,note_name,start_time,duration,velocity,tempo
0,B1,20.0,0.25,103,132.0
1,B1,20.0,0.75,90,132.0
2,B0,20.0,0.75,90,132.0
3,B4,20.0,0.75,90,132.0
4,B3,20.0,0.75,90,132.0
5,B2,20.0,0.75,90,132.0
6,B1,20.0,0.75,90,132.0
7,B2,20.75,0.25,90,132.0
8,B1,20.75,0.25,90,132.0
9,B5,20.75,0.25,90,132.0
10,B4,20.75,0.25,90,132.0
11,B3,20.75,0.25,90,132.0
12,B2,20.75,0.25,90,132.0
13,B1,21.0,0.25,102,132.0
14,B2,21.5,0.5,90,132.0
15,B1,21.5,0.5,90,132.0
16,B5,21.5,0.5,90,132.0
17,B4,21.5,0.5,90,132.0
18,B3,21.5,0.5,90,132.0
19,B2,21.5,0.5,90,132.0
20,B1,22.0,0.25,102,132.0
21,G2,22.25,0.25,90,132.0
22,G1,22.25,0.25,90,132.0
23,G5,22.25,0.25,90,132.0
24,G4,22.25,0.25,90,132.0
25,G3,22.25,0.25,90,132.0
26,G2,22.25,0.25,90,132.0
27,B2,22.5,0.5,90,132.0
28,B1,22.5,0.5,90,132.0
29,B5,22.5,0.5,90,132.0
30,B4,22.5,0.5,90,132.0
31,B3,22.5,0.5,90,132.0
32,B2,22.5,0.5,90,132.0
33,B1,23.0,0.25,103,132.0
34,B2,23.0,0.5,90,132.0
35,B1,23.0,0.5,90,132.0
36,B5,23.0,0.5,90,132.0
37,B4,23.0,0.5,90,132.0
38,B3,23.0,0.5,90,132.0
39,B2,23.0,0.5,90,132.0
40,B2,23.5,0.5,90,132.0
41,B1,23.5,0.5,90,132.0
42,B5,23.5,0.5,90,132.0
43,B4,23.5,0.5,90,132.0
44,B3,23.5,0.5,90,132.0
45,B2,23.5,0.5,90,132.0
46,B1,24.0,0.25,103,132.0
47,B1,24.0,0.75,90,132.0
48,B0,24.0,0.75,90,132.0
49,B4,24.0,0.75,90,132.0
50,B3,24.0,0.75,90,132.0
51,B2,24.0,0.75,90,132.0
52,B1,24.0,0.75,90,132.0
53,B2,24.75,0.25,90,132.0
54,B1,24.75,0.25,90,132.0
55,B5,24.75,0.25,90,132.0
56,B4,24.75,0.25,90,132.0
57,B3,24.75,0.25,90,132.0
58,B2,24.75,0.25,90,132.0
59,B1,25.0,0.25,103,132.0
60,B2,25.5,0.5,90,132.0
61,B1,25.5,0.5,90,132.0
62,B5,25.5,0.5,90,132.0
63,B4,25.5,0.5,90,132.0
64,B3,25.5,0.5,90,132.0
65,B2,25.5,0.5,90,132.0
66,B1,26.0,0.25,104,132.0
67,B2,26.0,0.375,90,132.0
68,B1,26.0,0.375,90,132.0
69,B5,26.0,0.375,90,132.0
70,B4,26.0,0.375,90,132.0
71,B3,26.0,0.375,90,132.0
72,B2,26.0,0.375,90,132.0
73,B2,26.5,0.5,90,132.0
74,B1,26.5,0.5,90,132.0
75,B5,26.5,0.5,90,132.0
76,B4,26.5,0.5,90,132.0
77,B3,26.5,0.5,90,132.0
78,B2,26.5,0.5,90,132.0
79,B1,27.0,0.25,104,132.0
80,B2,27.0,0.5,90,132.0
81,B1,27.0,0.5,90,132.0
82,B5,27.0,0.5,90,132.0
83,B4,27.0,0.5,90,132.0
84,B3,27.0,0.5,90,132.0
85,B2,27.0,0.5,90,132.0
86,B2,27.5,0.5,90,132.0
87,B1,27.5,0.5,90,132.0
88,B5,27.5,0.5,90,132.0
89,B4,27.5,0.5,90,132.0
90,B3,27.5,0.5,90,132.0
91,B2,27.5,0.5,90,132.0
92,B1,28.0,0.25,103,132.0
93,B1,28.0,0.75,90,132.0
94,B0,28.0,0.75,90,132.0
95,B4,28.0,0.75,90,132.0
96,B3,28.0,0.75,90,132.0
97,B2,28.0,0.75,90,132.0
98,B1,28.0,0.75,90,132.0
99,B2,28.75,0.25,90,132.0
100,B1,28.75,0.25,90,132.0
101,B5,28.75,0.25,90,132.0
102,B4,28.75,0.25,90,132.0
103,B3,28.75,0.25,90,132.0
104,B2,28.75,0.25,90,132.0
105,B1,29.0,0.25,102,132.0
106,B2,29.5,0.5,90,132.0
107,B1,29.5,0.5,90,132.0
108,B5,29.5,0.5,90,132.0
109,B4,29.5,0.5,90,132.0
110,B3,29.5,0.5,90,132.0
111,B2,29.5,0.5,90,132.0
112,B1,30.0,0.25,102,132.0
113,G2,30.25,0.25,90,132.0
114,G1,30.25,0.25,90,132.0
115,G5,30.25,0.25,90,132.0
116,G4,30.25,0.25,90,132.0
117,G3,30.25,0.25,90,132.0
118,G2,30.25,0.25,90,132.0
119,B2,30.5,0.5,90,132.0
120,B1,30.5,0.5,90,132.0
121,B5,30.5,0.5,90,132.0
122,B4,30.5,0.5,90,132.0
123,B3,30.5,0.5,90,132.0
124,B2,30.5,0.5,90,132.0
125,B1,31.0,0.25,103,132.0
126,B2,31.0,0.5,90,132.0
127,B1,31.0,0.5,90,132.0
128,B5,31.0,0.5,90,132.0
129,B4,31.0,0.5,90,132.0
130,B3,31.0,0.5,90,132.0
131,B2,31.0,0.5,90,132.0
132,B2,31.5,0.5,90,132.0
133,B1,31.5,0.5,90,132.0
134,B5,31.5,0.5,90,132.0
135,B4,31.5,0.5,90,132.0
136,B3,31.5,0.5,90,132.0
137,B2,31.5,0.5,90,132.0
138,B1,32.0,0.25,103,132.0
139,B1,32.0,0.75,90,132.0
140,B0,32.0,0.75,90,132.0
141,B4,32.0,0.75,90,132.0
142,B3,32.0,0.75,90,132.0
143,B2,32.0,0.75,90,132.0
144,B1,32.0,0.75,90,132.0
145,E-5,32.0,4.0,63,132.0
146,D5,32.0,4.0,63,132.0
147,C#5,32.0,4.0,63,132.0
148,C5,32.0,4.0,63,132.0
149,C4,32.0,4.0,63,132.0
150,B4,32.0,4.0,63,132.0
151,B-4,32.0,4.0,63,132.0
152,A4,32.0,4.0,63,132.0
153,G#4,32.0,4.0,63,132.0
154,G4,32.0,4.0,63,132.0
155,F#4,32.0,4.0,63,132.0
156,F4,32.0,4.0,63,132.0
157,E4,32.0,4.0,63,132.0
158,D4,32.0,4.0,63,132.0
159,E-4,32.0,4.0,63,132.0
160,C#4,32.0,4.0,63,132.0
161,B2,32.75,0.25,90,132.0
162,B1,32.75,0.25,90,132.0
163,B5,32.75,0.25,90,132.0
164,B4,32.75,0.25,90,132.0
165,B3,32.75,0.25,90,132.0
166,B2,32.75,0.25,90,132.0
167,B1,33.0,0.25,103,132.0
168,B2,33.5,0.5,90,132.0
169,B1,33.5,0.5,90,132.0
170,B5,33.5,0.5,90,132.0
171,B4,33.5,0.5,90,132.0
172,B3,33.5,0.5,90,132.0
173,B2,33.5,0.5,90,132.0
174,B1,34.0,0.25,104,132.0
175,B2,34.0,0.375,90,132.0
176,B1,34.0,0.375,90,132.0
177,B5,34.0,0.375,90,132.0
178,B4,34.0,0.375,90,132.0
179,B3,34.0,0.375,90,132.0
180,B2,34.0,0.375,90,132.0
181,B2,34.5,0.5,90,132.0
182,B1,34.5,0.5,90,132.0
183,B5,34.5,0.5,90,132.0
184,B4,34.5,0.5,90,132.0
185,B3,34.5,0.5,90,132.0
186,B2,34.5,0.5,90,132.0
187,B1,35.0,0.25,104,132.0
188,B2,35.0,0.5,90,132.0
189,B1,35.0,0.5,90,132.0
190,B5,35.0,0.5,90,132.0
191,B4,35.0,0.5,90,132.0
192,B3,35.0,0.5,90,132.0
193,B2,35.0,0.5,90,132.0
194,B2,35.5,0.5,90,132.0
195,B1,35.5,0.5,90,132.0
196,B5,35.5,0.5,90,132.0
197,B4,35.5,0.5,90,132.0
198,B3,35.5,0.5,90,132.0
199,B2,35.5,0.5,90,132.0
200,B1,44.0,0.25,103,132.0
201,B1,44.0,0.75,90,132.0
202,B0,44.0,0.75,90,132.0
203,B4,44.0,0.75,90,132.0
204,B3,44.0,0.75,90,132.0
205,B2,44.0,0.75,90,132.0
206,B1,44.0,0.75,90,132.0
207,A3,44.0,4.0,111,132.0
208,E3,44.0,4.0,111,132.0
209,C#3,44.0,4.0,111,132.0
210,E-5,44.0,8.0,63,132.0
211,D5,44.0,8.0,63,132.0
212,C#5,44.0,8.0,63,132.0
213,C5,44.0,8.0,63,132.0
214,C4,44.0,8.0,63,132.0
215,B4,44.0,8.0,63,132.0
216,B-4,44.0,8.0,63,132.0
217,A4,44.0,8.0,63,132.0
218,G#4,44.0,8.0,63,132.0
219,G4,44.0,8.0,63,132.0
220,F#4,44.0,8.0,63,132.0
221,F4,44.0,8.0,63,132.0
222,E4,44.0,8.0,63,132.0
223,D4,44.0,8.0,63,132.0
224,E-4,44.0,8.0,63,132.0
225,C#4,44.0,8.0,63,132.0
226,B2,44.75,0.25,90,132.0
227,B1,44.75,0.25,90,132.0
228,B5,44.75,0.25,90,132.0
229,B4,44.75,0.25,90,132.0
230,B3,44.75,0.25,90,132.0
231,B2,44.75,0.25,90,132.0
232,B1,45.0,0.25,102,132.0
233,B2,45.5,0.5,90,132.0
234,B1,45.5,0.5,90,132.0
235,B5,45.5,0.5,90,132.0
236,B4,45.5,0.5,90,132.0
237,B3,45.5,0.5,90,132.0
238,B2,45.5,0.5,90,132.0
239,B1,46.0,0.25,102,132.0
240,G2,46.25,0.25,90,132.0
241,G1,46.25,0.25,90,132.0
242,G5,46.25,0.25,90,132.0
243,G4,46.25,0.25,90,132.0
244,G3,46.25,0.25,90,132.0
245,G2,46.25,0.25,90,132.0
246,B2,46.5,0.5,90,132.0
247,B1,46.5,0.5,90,132.0
248,B5,46.5,0.5,90,132.0
249,B4,46.5,0.5,90,132.0
250,B3,46.5,0.5,90,132.0
251,B2,46.5,0.5,90,132.0
252,B1,47.0,0.25,103,132.0
253,B2,47.0,0.5,90,132.0
254,B1,47.0,0.5,90,132.0
255,B5,47.0,0.5,90,132.0
256,B4,47.0,0.5,90,132.0
257,B3,47.0,0.5,90,132.0
258,B2,47.0,0.5,90,132.0
259,B2,47.5,0.5,90,132.0
260,B1,47.5,0.5,90,132.0
261,B5,47.5,0.5,90,132.0
262,B4,47.5,0.5,90,132.0
263,B3,47.5,0.5,90,132.0
264,B2,47.5,0.5,90,132.0
265,B1,52.0,0.25,103,132.0
266,B1,52.0,0.75,90,132.0
267,B0,52.0,0.75,90,132.0
268,B4,52.0,0.75,90,132.0
269,B3,52.0,0.75,90,132.0
270,B2,52.0,0.75,90,132.0
271,B1,52.0,0.75,90,132.0
272,A3,52.0,4.0,111,132.0
273,E3,52.0,4.0,111,132.0
274,C#3,52.0,4.0,111,132.0
275,B2,52.75,0.25,90,132.0
276,B1,52.75,0.25,90,132.0
277,B5,52.75,0.25,90,132.0
278,B4,52.75,0.25,90,132.0
279,B3,52.75,0.25,90,132.0
280,B2,52.75,0.25,90,132.0
281,B1,53.0,0.25,103,132.0
282,B2,53.5,0.5,90,132.0
283,B1,53.5,0.5,90,132.0
284,B5,53.5,0.5,90,132.0
285,B4,53.5,0.5,90,132.0
286,B3,53.5,0.5,90,132.0
287,B2,53.5,0.5,90,132.0
288,B1,54.0,0.25,104,132.0
289,B2,54.0,0.375,90,132.0
290,B1,54.0,0.375,90,132.0
291,B5,54.0,0.375,90,132.0
292,B4,54.0,0.375,90,132.0
293,B3,54.0,0.375,90,132.0
294,B2,54.0,0.375,90,132.0
295,B2,54.5,0.5,90,132.0
296,B1,54.5,0.5,90,132.0
297,B5,54.5,0.5,90,132.0
298,B4,54.5,0.5,90,132.0
299,B3,54.5,0.5,90,132.0
300,B2,54.5,0.5,90,132.0
301,B1,55.0,0.25,104,132.0
302,B2,55.0,0.5,90,132.0
303,B1,55.0,0.5,90,132.0
304,B5,55.0,0.5,90,132.0
305,B4,55.0,0.5,90,132.0
306,B3,55.0,0.5,90,132.0
307,B2,55.0,0.5,90,132.0
308,B2,55.5,0.5,90,132.0
309,B1,55.5,0.5,90,132.0
310,B5,55.5,0.5,90,132.0
311,B4,55.5,0.5,90,132.0
312,B3,55.5,0.5,90,132.0
313,B2,55.5,0.5,90,132.0
314,B1,56.0,0.25,103,132.0
315,B1,56.0,0.75,90,132.0
316,B0,56.0,0.75,90,132.0
317,B4,56.0,0.75,90,132.0
318,B3,56.0,0.75,90,132.0
319,B2,56.0,0.75,90,132.0
320,B1,56.0,0.75,90,132.0
321,B2,56.75,0.25,90,132.0
322,B1,56.75,0.25,90,132.0
323,B5,56.75,0.25,90,132.0
324,B4,56.75,0.25,90,132.0
325,B3,56.75,0.25,90,132.0
326,B2,56.75,0.25,90,132.0
327,B1,57.0,0.25,102,132.0
328,B2,57.5,0.5,90,132.0
329,B1,57.5,0.5,90,132.0
330,B5,57.5,0.5,90,132.0
331,B4,57.5,0.5,90,132.0
332,B3,57.5,0.5,90,132.0
333,B2,57.5,0.5,90,132.0
334,B1,58.0,0.25,102,132.0
335,G2,58.25,0.25,90,132.0
336,G1,58.25,0.25,90,132.0
337,G5,58.25,0.25,90,132.0
338,G4,58.25,0.25,90,132.0
339,G3,58.25,0.25,90,132.0
340,G2,58.25,0.25,90,132.0
341,B2,58.5,0.5,90,132.0
342,B1,58.5,0.5,90,132.0
343,B5,58.5,0.5,90,132.0
344,B4,58.5,0.5,90,132.0
345,B3,58.5,0.5,90,132.0
346,B2,58.5,0.5,90,132.0
347,B1,59.0,0.25,103,132.0
348,B2,59.0,0.5,90,132.0
349,B1,59.0,0.5,90,132.0
350,B5,59.0,0.5,90,132.0
351,B4,59.0,0.5,90,132.0
352,B3,59.0,0.5,90,132.0
353,B2,59.0,0.5,90,132.0
354,B2,59.5,0.5,90,132.0
355,B1,59.5,0.5,90,132.0
356,B5,59.5,0.5,90,132.0
357,B4,59.5,0.5,90,132.0
358,B3,59.5,0.5,90,132.0
359,B2,59.5,0.5,90,132.0
360,G4,60.0,0.5,101,132.0
361,G5,60.0,0.5,101,132.0
362,B4,60.0,0.5,101,132.0
363,B5,60.0,0.5,101,132.0
364,B4,60.0,0.5,101,132.0
365,G3,60.0,0.5,101,132.0
366,G4,60.0,0.5,101,132.0
367,B3,60.0,0.5,101,132.0
368,G4,60.75,0.5,101,132.0
369,G5,60.75,0.5,101,132.0
370,B4,60.75,0.5,101,132.0
371,B5,60.75,0.5,101,132.0
372,B4,60.75,0.5,101,132.0
373,B3,60.75,0.5,101,132.0
374,G4,60.75,0.5,101,132.0
375,G3,60.75,0.5,101,132.0
376,B5,61.5,0.5,101,132.0
377,B4,61.5,0.5,101,132.0
378,G5,61.5,0.5,101,132.0
379,G4,61.5,0.5,101,132.0
380,B4,61.5,0.5,101,132.0
381,B3,61.5,0.5,101,132.0
382,G4,61.5,0.5,101,132.0
383,G3,61.5,0.5,101,132.0
384,E3,62.0,1.5,127,132.0
385,F2,62.0,0.25,127,132.0
386,C4,62.0,2.0,103,132.0
387,A4,62.0,0.5,101,132.0
388,A5,62.0,0.5,101,132.0
389,C#5,62.0,0.5,101,132.0
390,C#6,62.0,0.5,101,132.0
391,C#5,62.0,0.5,101,132.0
392,C#4,62.0,0.5,101,132.0
393,A4,62.0,0.5,101,132.0
394,A3,62.0,0.5,101,132.0
395,C#6,62.75,0.5,101,132.0
396,C#5,62.75,0.5,101,132.0
397,A5,62.75,0.5,101,132.0
398,A4,62.75,0.5,101,132.0
399,C#5,62.75,0.5,101,132.0
400,C#4,62.75,0.5,101,132.0
401,A4,62.75,0.5,101,132.0
402,A3,62.75,0.5,101,132.0
403,G#2,62.75,0.25,80,132.0
404,D2,62.75,0.25,80,132.0
405,D2,63.0,0.25,80,132.0
406,G2,63.5,0.25,127,132.0
407,A4,63.5,0.5,104,132.0
408,A5,63.5,0.5,104,132.0
409,C#5,63.5,0.5,104,132.0
410,C#6,63.5,0.5,104,132.0
411,C#5,63.5,0.5,104,132.0
412,C#4,63.5,0.5,104,132.0
413,A4,63.5,0.5,104,132.0
414,A3,63.5,0.5,104,132.0
415,G#3,63.5,0.5,104,132.0
416,F#2,64.0,0.5,100,132.0
417,B1,64.0,0.25,103,132.0
418,C4,64.0,0.25,103,132.0
419,B1,64.0,0.75,90,132.0
420,B0,64.0,0.75,90,132.0
421,B4,64.0,0.75,90,132.0
422,B3,64.0,0.75,90,132.0
423,B2,64.0,0.75,90,132.0
424,B1,64.0,0.75,90,132.0
425,G3,64.0,4.0,127,132.0
426,A3,64.0,4.0,127,132.0
427,C#3,64.0,4.0,127,132.0
428,B2,64.75,0.25,90,132.0
429,B1,64.75,0.25,90,132.0
430,B5,64.75,0.25,90,132.0
431,B4,64.75,0.25,90,132.0
432,B3,64.75,0.25,90,132.0
433,B2,64.75,0.25,90,132.0
434,F#2,65.0,0.5,63,132.0
435,B1,65.0,0.25,102,132.0
436,B2,65.5,0.5,90,132.0
437,B1,65.5,0.5,90,132.0
438,B5,65.5,0.5,90,132.0
439,B4,65.5,0.5,90,132.0
440,B3,65.5,0.5,90,132.0
441,B2,65.5,0.5,90,132.0
442,F#2,66.0,0.5,79,132.0
443,B1,66.0,0.25,102,132.0
444,G2,66.25,0.25,90,132.0
445,G1,66.25,0.25,90,132.0
446,G5,66.25,0.25,90,132.0
447,G4,66.25,0.25,90,132.0
448,G3,66.25,0.25,90,132.0
449,G2,66.25,0.25,90,132.0
450,B2,66.5,0.5,90,132.0
451,B1,66.5,0.5,90,132.0
452,B5,66.5,0.5,90,132.0
453,B4,66.5,0.5,90,132.0
454,B3,66.5,0.5,90,132.0
455,B2,66.5,0.5,90,132.0
456,B1,67.0,0.25,103,132.0
457,B2,67.0,0.5,86,132.0
458,B1,67.0,0.5,86,132.0
459,B5,67.0,0.5,86,132.0
460,B4,67.0,0.5,86,132.0
461,B3,67.0,0.5,86,132.0
462,B2,67.0,0.5,86,132.0
463,F#2,67.0,0.5,86,132.0
464,B2,67.5,0.5,90,132.0
465,B1,67.5,0.5,90,132.0
466,B5,67.5,0.5,90,132.0
467,B4,67.5,0.5,90,132.0
468,B3,67.5,0.5,90,132.0
469,B2,67.5,0.5,90,132.0
470,F#2,68.0,0.5,100,132.0
471,B1,68.0,0.25,103,132.0
472,B1,68.0,0.75,90,132.0
473,B0,68.0,0.75,90,132.0
474,B4,68.0,0.75,90,132.0
475,B3,68.0,0.75,90,132.0
476,B2,68.0,0.75,90,132.0
477,B1,68.0,0.75,90,132.0
478,B2,68.75,0.25,90,132.0
479,B1,68.75,0.25,90,132.0
480,B5,68.75,0.25,90,132.0
481,B4,68.75,0.25,90,132.0
482,B3,68.75,0.25,90,132.0
483,B2,68.75,0.25,90,132.0
484,F#2,69.0,0.5,64,132.0
485,B1,69.0,0.25,103,132.0
486,B2,69.5,0.5,90,132.0
487,B1,69.5,0.5,90,132.0
488,B5,69.5,0.5,90,132.0
489,B4,69.5,0.5,90,132.0
490,B3,69.5,0.5,90,132.0
491,B2,69.5,0.5,90,132.0
492,F#2,70.0,0.5,80,132.0
493,B1,70.0,0.25,104,132.0
494,B2,70.0,0.375,90,132.0
495,B1,70.0,0.375,90,132.0
496,B5,70.0,0.375,90,132.0
497,B4,70.0,0.375,90,132.0
498,B3,70.0,0.375,90,132.0
499,B2,70.0,0.375,90,132.0
500,B2,70.5,0.5,90,132.0
501,B1,70.5,0.5,90,132.0
502,B5,70.5,0.5,90,132.0
503,B4,70.5,0.5,90,132.0
504,B3,70.5,0.5,90,132.0
505,B2,70.5,0.5,90,132.0
506,B1,71.0,0.25,104,132.0
507,B2,71.0,0.5,86,132.0
508,B1,71.0,0.5,86,132.0
509,B5,71.0,0.5,86,132.0
510,B4,71.0,0.5,86,132.0
511,B3,71.0,0.5,86,132.0
512,B2,71.0,0.5,86,132.0
513,F#2,71.0,0.5,86,132.0
514,B2,71.5,0.5,90,132.0
515,B1,71.5,0.5,90,132.0
516,B5,71.5,0.5,90,132.0
517,B4,71.5,0.5,90,132.0
518,B3,71.5,0.5,90,132.0
519,B2,71.5,0.5,90,132.0
520,F#2,72.0,0.5,100,132.0
521,B1,72.0,0.25,103,132.0
522,B1,72.0,0.75,90,132.0
523,B0,72.0,0.75,90,132.0
524,B4,72.0,0.75,90,132.0
525,B3,72.0,0.75,90,132.0
526,B2,72.0,0.75,90,132.0
527,B1,72.0,0.75,90,132.0
528,B2,72.75,0.25,90,132.0
529,B1,72.75,0.25,90,132.0
530,B5,72.75,0.25,90,132.0
531,B4,72.75,0.25,90,132.0
532,B3,72.75,0.25,90,132.0
533,B2,72.75,0.25,90,132.0
534,F#2,73.0,0.5,63,132.0
535,B1,73.0,0.25,102,132.0
536,B2,73.5,0.5,90,132.0
537,B1,73.5,0.5,90,132.0
538,B5,73.5,0.5,90,132.0
539,B4,73.5,0.5,90,132.0
540,B3,73.5,0.5,90,132.0
541,B2,73.5,0.5,90,132.0
542,F#2,74.0,0.5,79,132.0
543,B1,74.0,0.25,102,132.0
544,G2,74.25,0.25,90,132.0
545,G1,74.25,0.25,90,132.0
546,G5,74.25,0.25,90,132.0
547,G4,74.25,0.25,90,132.0
548,G3,74.25,0.25,90,132.0
549,G2,74.25,0.25,90,132.0
550,B2,74.5,0.5,90,132.0
551,B1,74.5,0.5,90,132.0
552,B5,74.5,0.5,90,132.0
553,B4,74.5,0.5,90,132.0
554,B3,74.5,0.5,90,132.0
555,B2,74.5,0.5,90,132.0
556,B1,75.0,0.25,103,132.0
557,B2,75.0,0.5,86,132.0
558,B1,75.0,0.5,86,132.0
559,B5,75.0,0.5,86,132.0
560,B4,75.0,0.5,86,132.0
561,B3,75.0,0.5,86,132.0
562,B2,75.0,0.5,86,132.0
563,F#2,75.0,0.5,86,132.0
564,B2,75.5,0.5,90,132.0
565,B1,75.5,0.5,90,132.0
566,B5,75.5,0.5,90,132.0
567,B4,75.5,0.5,90,132.0
568,B3,75.5,0.5,90,132.0
569,B2,75.5,0.5,90,132.0
570,F#2,76.0,0.5,100,132.0
571,B1,76.0,0.25,103,132.0
572,B1,76.0,0.75,90,132.0
573,B0,76.0,0.75,90,132.0
574,B4,76.0,0.75,90,132.0
575,B3,76.0,0.75,90,132.0
576,B2,76.0,0.75,90,132.0
577,B1,76.0,0.75,90,132.0
578,B2,76.75,0.25,90,132.0
579,B1,76.75,0.25,90,132.0
580,B5,76.75,0.25,90,132.0
581,B4,76.75,0.25,90,132.0
582,B3,76.75,0.25,90,132.0
583,B2,76.75,0.25,90,132.0
584,F#2,77.0,0.5,64,132.0
585,B1,77.0,0.25,103,132.0
586,B2,77.5,0.5,90,132.0
587,B1,77.5,0.5,90,132.0
588,B5,77.5,0.5,90,132.0
589,B4,77.5,0.5,90,132.0
590,B3,77.5,0.5,90,132.0
591,B2,77.5,0.5,90,132.0
592,F#2,78.0,0.5,80,132.0
593,B1,78.0,0.25,104,132.0
594,B2,78.0,0.375,90,132.0
595,B1,78.0,0.375,90,132.0
596,B5,78.0,0.375,90,132.0
597,B4,78.0,0.375,90,132.0
598,B3,78.0,0.375,90,132.0
599,B2,78.0,0.375,90,132.0
600,B2,78.5,0.5,90,132.0
601,B1,78.5,0.5,90,132.0
602,B5,78.5,0.5,90,132.0
603,B4,78.5,0.5,90,132.0
604,B3,78.5,0.5,90,132.0
605,B2,78.5,0.5,90,132.0
606,B1,79.0,0.25,104,132.0
607,B2,79.0,0.5,86,132.0
608,B1,79.0,0.5,86,132.0
609,B5,79.0,0.5,86,132.0
610,B4,79.0,0.5,86,132.0
611,B3,79.0,0.5,86,132.0
612,B2,79.0,0.5,86,132.0
613,F#2,79.0,0.5,86,132.0
614,B2,79.5,0.5,90,132.0
615,B1,79.5,0.5,90,132.0
616,B5,79.5,0.5,90,132.0
617,B4,79.5,0.5,90,132.0
618,B3,79.5,0.5,90,132.0
619,B2,79.5,0.5,90,132.0
620,F#2,80.0,0.5,100,132.0
621,B1,80.0,0.25,103,132.0
622,B1,80.0,0.75,90,132.0
623,B0,80.0,0.75,90,132.0
624,B4,80.0,0.75,90,132.0
625,B3,80.0,0.75,90,132.0
626,B2,80.0,0.75,90,132.0
627,B1,80.0,0.75,90,132.0
628,B2,80.75,0.25,90,132.0
629,B1,80.75,0.25,90,132.0
630,B5,80.75,0.25,90,132.0
631,B4,80.75,0.25,90,132.0
632,B3,80.75,0.25,90,132.0
633,B2,80.75,0.25,90,132.0
634,F#2,81.0,0.5,63,132.0
635,B1,81.0,0.25,102,132.0
636,B2,81.5,0.5,90,132.0
637,B1,81.5,0.5,90,132.0
638,B5,81.5,0.5,90,132.0
639,B4,81.5,0.5,90,132.0
640,B3,81.5,0.5,90,132.0
641,B2,81.5,0.5,90,132.0
642,F#2,82.0,0.5,79,132.0
643,B1,82.0,0.25,102,132.0
644,G2,82.25,0.25,90,132.0
645,G1,82.25,0.25,90,132.0
646,G5,82.25,0.25,90,132.0
647,G4,82.25,0.25,90,132.0
648,G3,82.25,0.25,90,132.0
649,G2,82.25,0.25,90,132.0
650,B2,82.5,0.5,90,132.0
651,B1,82.5,0.5,90,132.0
652,B5,82.5,0.5,90,132.0
653,B4,82.5,0.5,90,132.0
654,B3,82.5,0.5,90,132.0
655,B2,82.5,0.5,90,132.0
656,B1,83.0,0.25,103,132.0
657,B2,83.0,0.5,86,132.0
658,B1,83.0,0.5,86,132.0
659,B5,83.0,0.5,86,132.0
660,B4,83.0,0.5,86,132.0
661,B3,83.0,0.5,86,132.0
662,B2,83.0,0.5,86,132.0
663,F#2,83.0,0.5,86,132.0
664,B2,83.5,0.5,90,132.0
665,B1,83.5,0.5,90,132.0
666,B5,83.5,0.5,90,132.0
667,B4,83.5,0.5,90,132.0
668,B3,83.5,0.5,90,132.0
669,B2,83.5,0.5,90,132.0
670,F#2,84.0,0.5,100,132.0
671,B1,84.0,0.25,103,132.0
672,B1,84.0,0.75,90,132.0
673,B0,84.0,0.75,90,132.0
674,B4,84.0,0.75,90,132.0
675,B3,84.0,0.75,90,132.0
676,B2,84.0,0.75,90,132.0
677,B1,84.0,0.75,90,132.0
678,B2,84.75,0.25,90,132.0
679,B1,84.75,0.25,90,132.0
680,B5,84.75,0.25,90,132.0
681,B4,84.75,0.25,90,132.0
682,B3,84.75,0.25,90,132.0
683,B2,84.75,0.25,90,132.0
684,F#2,85.0,0.5,64,132.0
685,B1,85.0,0.25,103,132.0
686,B2,85.5,0.5,90,132.0
687,B1,85.5,0.5,90,132.0
688,B5,85.5,0.5,90,132.0
689,B4,85.5,0.5,90,132.0
690,B3,85.5,0.5,90,132.0
691,B2,85.5,0.5,90,132.0
692,F#2,86.0,0.5,80,132.0
693,B1,86.0,0.25,104,132.0
694,B2,86.0,0.375,90,132.0
695,B1,86.0,0.375,90,132.0
696,B5,86.0,0.375,90,132.0
697,B4,86.0,0.375,90,132.0
698,B3,86.0,0.375,90,132.0
699,B2,86.0,0.375,90,132.0
700,B2,86.5,0.5,90,132.0
701,B1,86.5,0.5,90,132.0
702,B5,86.5,0.5,90,132.0
703,B4,86.5,0.5,90,132.0
704,B3,86.5,0.5,90,132.0
705,B2,86.5,0.5,90,132.0
706,B1,87.0,0.25,104,132.0
707,B2,87.0,0.5,86,132.0
708,B1,87.0,0.5,86,132.0
709,B5,87.0,0.5,86,132.0
710,B4,87.0,0.5,86,132.0
711,B3,87.0,0.5,86,132.0
712,B2,87.0,0.5,86,132.0
713,F#2,87.0,0.5,86,132.0
714,B2,87.5,0.5,90,132.0
715,B1,87.5,0.5,90,132.0
716,B5,87.5,0.5,90,132.0
717,B4,87.5,0.5,90,132.0
718,B3,87.5,0.5,90,132.0
719,B2,87.5,0.5,90,132.0
720,F#2,88.0,0.5,100,132.0
721,B1,88.0,0.25,103,132.0
722,B1,88.0,0.75,90,132.0
723,B0,88.0,0.75,90,132.0
724,B4,88.0,0.75,90,132.0
725,B3,88.0,0.75,90,132.0
726,B2,88.0,0.75,90,132.0
727,B1,88.0,0.75,90,132.0
728,B2,88.75,0.25,90,132.0
729,B1,88.75,0.25,90,132.0
730,B5,88.75,0.25,90,132.0
731,B4,88.75,0.25,90,132.0
732,B3,88.75,0.25,90,132.0
733,B2,88.75,0.25,90,132.0
734,F#2,89.0,0.5,63,132.0
735,B1,89.0,0.25,102,132.0
736,B2,89.5,0.5,90,132.0
737,B1,89.5,0.5,90,132.0
738,B5,89.5,0.5,90,132.0
739,B4,89.5,0.5,90,132.0
740,B3,89.5,0.5,90,132.0
741,B2,89.5,0.5,90,132.0
742,F#2,90.0,0.5,79,132.0
743,B1,90.0,0.25,102,132.0
744,G2,90.25,0.25,90,132.0
745,G1,90.25,0.25,90,132.0
746,G5,90.25,0.25,90,132.0
747,G4,90.25,0.25,90,132.0
748,G3,90.25,0.25,90,132.0
749,G2,90.25,0.25,90,132.0
750,B2,90.5,0.5,90,132.0
751,B1,90.5,0.5,90,132.0
752,B5,90.5,0.5,90,132.0
753,B4,90.5,0.5,90,132.0
754,B3,90.5,0.5,90,132.0
755,B2,90.5,0.5,90,132.0
756,B1,91.0,0.25,103,132.0
757,B2,91.0,0.5,86,132.0
758,B1,91.0,0.5,86,132.0
759,B5,91.0,0.5,86,132.0
760,B4,91.0,0.5,86,132.0
761,B3,91.0,0.5,86,132.0
762,B2,91.0,0.5,86,132.0
763,F#2,91.0,0.5,86,132.0
764,B2,91.5,0.5,90,132.0
765,B1,91.5,0.5,90,132.0
766,B5,91.5,0.5,90,132.0
767,B4,91.5,0.5,90,132.0
768,B3,91.5,0.5,90,132.0
769,B2,91.5,0.5,90,132.0
770,B1,92.0,0.25,103,132.0
771,G4,92.0,0.5,101,132.0
772,G5,92.0,0.5,101,132.0
773,B4,92.0,0.5,101,132.0
774,B5,92.0,0.5,101,132.0
775,B4,92.0,0.5,101,132.0
776,G3,92.0,0.5,101,132.0
777,G4,92.0,0.5,101,132.0
778,B3,92.0,0.5,101,132.0
779,F#2,92.0,0.5,101,132.0
780,G4,92.75,0.5,101,132.0
781,G5,92.75,0.5,101,132.0
782,B4,92.75,0.5,101,132.0
783,B5,92.75,0.5,101,132.0
784,B4,92.75,0.5,101,132.0
785,B3,92.75,0.5,101,132.0
786,G4,92.75,0.5,101,132.0
787,G3,92.75,0.5,101,132.0
788,F#2,93.0,0.5,64,132.0
789,B1,93.0,0.25,103,132.0
790,B5,93.5,0.5,101,132.0
791,B4,93.5,0.5,101,132.0
792,G5,93.5,0.5,101,132.0
793,G4,93.5,0.5,101,132.0
794,B4,93.5,0.5,101,132.0
795,B3,93.5,0.5,101,132.0
796,G4,93.5,0.5,101,132.0
797,G3,93.5,0.5,101,132.0
798,E3,94.0,1.5,127,132.0
799,F2,94.0,0.25,127,132.0
800,C4,94.0,2.0,103,132.0
801,A4,94.0,0.5,101,132.0
802,A5,94.0,0.5,101,132.0
803,C#5,94.0,0.5,101,132.0
804,C#6,94.0,0.5,101,132.0
805,C#5,94.0,0.5,101,132.0
806,C#4,94.0,0.5,101,132.0
807,A4,94.0,0.5,101,132.0
808,A3,94.0,0.5,101,132.0
809,C#6,94.75,0.5,101,132.0
810,C#5,94.75,0.5,101,132.0
811,A5,94.75,0.5,101,132.0
812,A4,94.75,0.5,101,132.0
813,C#5,94.75,0.5,101,132.0
814,C#4,94.75,0.5,101,132.0
815,A4,94.75,0.5,101,132.0
816,A3,94.75,0.5,101,132.0
817,G#2,94.75,0.25,80,132.0
818,D2,94.75,0.25,80,132.0
819,D2,95.0,0.25,80,132.0
820,G2,95.5,0.25,127,132.0
821,A4,95.5,0.5,104,132.0
822,A5,95.5,0.5,104,132.0
823,C#5,95.5,0.5,104,132.0
824,C#6,95.5,0.5,104,132.0
825,C#5,95.5,0.5,104,132.0
826,C#4,95.5,0.5,104,132.0
827,A4,95.5,0.5,104,132.0
828,A3,95.5,0.5,104,132.0
829,G#3,95.5,0.5,104,132.0
830,C4,96.0,0.25,103,132.0
831,B1,96.0,0.75,90,132.0
832,B0,96.0,0.75,90,132.0
833,B4,96.0,0.75,90,132.0
834,B3,96.0,0.75,90,132.0
835,B2,96.0,0.75,90,132.0
836,B1,96.0,0.75,90,132.0
837,B5,96.0,4.0,116,132.0
838,B4,96.0,4.0,116,132.0
839,G3,96.0,4.0,116,132.0
840,A3,96.0,4.0,116,132.0
841,C#3,96.0,4.0,116,132.0
842,F#2,96.0,0.25,103,132.0
843,B1,96.0,0.25,103,132.0
844,F#2,96.5,0.25,73,132.0
845,B2,96.75,0.25,90,132.0
846,B1,96.75,0.25,90,132.0
847,B5,96.75,0.25,90,132.0
848,B4,96.75,0.25,90,132.0
849,B3,96.75,0.25,90,132.0
850,B2,96.75,0.25,90,132.0
851,F#2,97.0,0.25,92,132.0
852,B1,97.0,0.25,92,132.0
853,E2,97.0,0.25,92,132.0
854,E1,97.0,0.25,92,132.0
855,F#2,97.5,0.25,73,132.0
856,B2,97.5,0.5,90,132.0
857,B1,97.5,0.5,90,132.0
858,B5,97.5,0.5,90,132.0
859,B4,97.5,0.5,90,132.0
860,B3,97.5,0.5,90,132.0
861,B2,97.5,0.5,90,132.0
862,F#2,98.0,0.25,95,132.0
863,B1,98.0,0.25,95,132.0
864,G2,98.25,0.25,90,132.0
865,G1,98.25,0.25,90,132.0
866,G5,98.25,0.25,90,132.0
867,G4,98.25,0.25,90,132.0
868,G3,98.25,0.25,90,132.0
869,G2,98.25,0.25,90,132.0
870,F#2,98.5,0.25,73,132.0
871,B2,98.5,0.5,90,132.0
872,B1,98.5,0.5,90,132.0
873,B5,98.5,0.5,90,132.0
874,B4,98.5,0.5,90,132.0
875,B3,98.5,0.5,90,132.0
876,B2,98.5,0.5,90,132.0
877,B2,99.0,0.5,90,132.0
878,B1,99.0,0.5,90,132.0
879,B5,99.0,0.5,90,132.0
880,B4,99.0,0.5,90,132.0
881,B3,99.0,0.5,90,132.0
882,B2,99.0,0.5,90,132.0
883,F#2,99.0,0.25,92,132.0
884,E1,99.0,0.25,92,132.0
885,B1,99.0,0.25,92,132.0
886,E2,99.0,0.25,92,132.0
887,F#2,99.5,0.25,73,132.0
888,B2,99.5,0.5,90,132.0
889,B1,99.5,0.5,90,132.0
890,B5,99.5,0.5,90,132.0
891,B4,99.5,0.5,90,132.0
892,B3,99.5,0.5,90,132.0
893,B2,99.5,0.5,90,132.0
894,B1,100.0,0.75,90,132.0
895,B0,100.0,0.75,90,132.0
896,B4,100.0,0.75,90,132.0
897,B3,100.0,0.75,90,132.0
898,B2,100.0,0.75,90,132.0
899,B1,100.0,0.75,90,132.0
900,B5,100.0,4.0,100,132.0
901,B4,100.0,4.0,100,132.0
902,F#2,100.0,0.25,103,132.0
903,B1,100.0,0.25,103,132.0
904,F#2,100.5,0.25,73,132.0
905,B2,100.75,0.25,90,132.0
906,B1,100.75,0.25,90,132.0
907,B5,100.75,0.25,90,132.0
908,B4,100.75,0.25,90,132.0
909,B3,100.75,0.25,90,132.0
910,B2,100.75,0.25,90,132.0
911,F#2,101.0,0.25,92,132.0
912,E1,101.0,0.25,92,132.0
913,B1,101.0,0.25,92,132.0
914,E2,101.0,0.25,92,132.0
915,F#2,101.5,0.25,73,132.0
916,B2,101.5,0.5,90,132.0
917,B1,101.5,0.5,90,132.0
918,B5,101.5,0.5,90,132.0
919,B4,101.5,0.5,90,132.0
920,B3,101.5,0.5,90,132.0
921,B2,101.5,0.5,90,132.0
922,B2,102.0,0.375,90,132.0
923,B1,102.0,0.375,90,132.0
924,B5,102.0,0.375,90,132.0
925,B4,102.0,0.375,90,132.0
926,B3,102.0,0.375,90,132.0
927,B2,102.0,0.375,90,132.0
928,F#2,102.0,0.25,96,132.0
929,B1,102.0,0.25,96,132.0
930,F#2,102.5,0.25,73,132.0
931,B2,102.5,0.5,90,132.0
932,B1,102.5,0.5,90,132.0
933,B5,102.5,0.5,90,132.0
934,B4,102.5,0.5,90,132.0
935,B3,102.5,0.5,90,132.0
936,B2,102.5,0.5,90,132.0
937,B2,103.0,0.5,90,132.0
938,B1,103.0,0.5,90,132.0
939,B5,103.0,0.5,90,132.0
940,B4,103.0,0.5,90,132.0
941,B3,103.0,0.5,90,132.0
942,B2,103.0,0.5,90,132.0
943,F#2,103.0,0.25,93,132.0
944,E1,103.0,0.25,93,132.0
945,B1,103.0,0.25,93,132.0
946,E2,103.0,0.25,93,132.0
947,F#2,103.5,0.25,73,132.0
948,B2,103.5,0.5,90,132.0
949,B1,103.5,0.5,90,132.0
950,B5,103.5,0.5,90,132.0
951,B4,103.5,0.5,90,132.0
952,B3,103.5,0.5,90,132.0
953,B2,103.5,0.5,90,132.0
954,B1,104.0,0.75,90,132.0
955,B0,104.0,0.75,90,132.0
956,B4,104.0,0.75,90,132.0
957,B3,104.0,0.75,90,132.0
958,B2,104.0,0.75,90,132.0
959,B1,104.0,0.75,90,132.0
960,B5,104.0,4.0,100,132.0
961,B4,104.0,4.0,100,132.0
962,F#2,104.0,0.25,103,132.0
963,B1,104.0,0.25,103,132.0
964,F#2,104.5,0.25,73,132.0
965,B2,104.75,0.25,90,132.0
966,B1,104.75,0.25,90,132.0
967,B5,104.75,0.25,90,132.0
968,B4,104.75,0.25,90,132.0
969,B3,104.75,0.25,90,132.0
970,B2,104.75,0.25,90,132.0
971,F#2,105.0,0.25,92,132.0
972,B1,105.0,0.25,92,132.0
973,E2,105.0,0.25,92,132.0
974,E1,105.0,0.25,92,132.0
975,F#2,105.5,0.25,73,132.0
976,B2,105.5,0.5,90,132.0
977,B1,105.5,0.5,90,132.0
978,B5,105.5,0.5,90,132.0
979,B4,105.5,0.5,90,132.0
980,B3,105.5,0.5,90,132.0
981,B2,105.5,0.5,90,132.0
982,F#2,106.0,0.25,95,132.0
983,B1,106.0,0.25,95,132.0
984,G2,106.25,0.25,90,132.0
985,G1,106.25,0.25,90,132.0
986,G5,106.25,0.25,90,132.0
987,G4,106.25,0.25,90,132.0
988,G3,106.25,0.25,90,132.0
989,G2,106.25,0.25,90,132.0
990,F#2,106.5,0.25,73,132.0
991,B2,106.5,0.5,90,132.0
992,B1,106.5,0.5,90,132.0
993,B5,106.5,0.5,90,132.0
994,B4,106.5,0.5,90,132.0
995,B3,106.5,0.5,90,132.0
996,B2,106.5,0.5,90,132.0
997,B2,107.0,0.5,90,132.0
998,B1,107.0,0.5,90,132.0
999,B5,107.0,0.5,90,132.0
1000,B4,107.0,0.5,90,132.0
1001,B3,107.0,0.5,90,132.0
1002,B2,107.0,0.5,90,132.0
1003,F#2,107.0,0.25,92,132.0
1004,E1,107.0,0.25,92,132.0
1005,B1,107.0,0.25,92,132.0
1006,E2,107.0,0.25,92,132.0
1007,F#2,107.5,0.25,73,132.0
1008,B2,107.5,0.5,90,132.0
1009,B1,107.5,0.5,90,132.0
1010,B5,107.5,0.5,90,132.0
1011,B4,107.5,0.5,90,132.0
1012,B3,107.5,0.5,90,132.0
1013,B2,107.5,0.5,90,132.0
1014,B1,108.0,0.75,90,132.0
1015,B0,108.0,0.75,90,132.0
1016,B4,108.0,0.75,90,132.0
1017,B3,108.0,0.75,90,132.0
1018,B2,108.0,0.75,90,132.0
1019,B1,108.0,0.75,90,132.0
1020,B5,108.0,4.0,100,132.0
1021,B4,108.0,4.0,100,132.0
1022,F#2,108.0,0.25,103,132.0
1023,B1,108.0,0.25,103,132.0
1024,F#2,108.5,0.25,73,132.0
1025,B2,108.75,0.25,90,132.0
1026,B1,108.75,0.25,90,132.0
1027,B5,108.75,0.25,90,132.0
1028,B4,108.75,0.25,90,132.0
1029,B3,108.75,0.25,90,132.0
1030,B2,108.75,0.25,90,132.0
1031,F#2,109.0,0.25,92,132.0
1032,E1,109.0,0.25,92,132.0
1033,B1,109.0,0.25,92,132.0
1034,E2,109.0,0.25,92,132.0
1035,F#2,109.5,0.25,73,132.0
1036,B2,109.5,0.5,90,132.0
1037,B1,109.5,0.5,90,132.0
1038,B5,109.5,0.5,90,132.0
1039,B4,109.5,0.5,90,132.0
1040,B3,109.5,0.5,90,132.0
1041,B2,109.5,0.5,90,132.0
1042,B2,110.0,0.375,90,132.0
1043,B1,110.0,0.375,90,132.0
1044,B5,110.0,0.375,90,132.0
1045,B4,110.0,0.375,90,132.0
1046,B3,110.0,0.375,90,132.0
1047,B2,110.0,0.375,90,132.0
1048,F#2,110.0,0.25,96,132.0
1049,B1,110.0,0.25,96,132.0
1050,F#2,110.5,0.25,73,132.0
1051,B2,110.5,0.5,90,132.0
1052,B1,110.5,0.5,90,132.0
1053,B5,110.5,0.5,90,132.0
1054,B4,110.5,0.5,90,132.0
1055,B3,110.5,0.5,90,132.0
1056,B2,110.5,0.5,90,132.0
1057,B2,111.0,0.5,90,132.0
1058,B1,111.0,0.5,90,132.0
1059,B5,111.0,0.5,90,132.0
1060,B4,111.0,0.5,90,132.0
1061,B3,111.0,0.5,90,132.0
1062,B2,111.0,0.5,90,132.0
1063,F#2,111.0,0.25,93,132.0
1064,E1,111.0,0.25,93,132.0
1065,B1,111.0,0.25,93,132.0
1066,E2,111.0,0.25,93,132.0
1067,F#2,111.5,0.25,73,132.0
1068,B2,111.5,0.5,90,132.0
1069,B1,111.5,0.5,90,132.0
1070,B5,111.5,0.5,90,132.0
1071,B4,111.5,0.5,90,132.0
1072,B3,111.5,0.5,90,132.0
1073,B2,111.5,0.5,90,132.0
1074,B1,112.0,0.75,90,132.0
1075,B0,112.0,0.75,90,132.0
1076,B4,112.0,0.75,90,132.0
1077,B3,112.0,0.75,90,132.0
1078,B2,112.0,0.75,90,132.0
1079,B1,112.0,0.75,90,132.0
1080,B5,112.0,4.0,116,132.0
1081,B4,112.0,4.0,116,132.0
1082,G3,112.0,4.0,116,132.0
1083,A3,112.0,4.0,116,132.0
1084,C#3,112.0,4.0,116,132.0
1085,F#2,112.0,0.25,103,132.0
1086,B1,112.0,0.25,103,132.0
1087,F#2,112.5,0.25,73,132.0
1088,B2,112.75,0.25,90,132.0
1089,B1,112.75,0.25,90,132.0
1090,B5,112.75,0.25,90,132.0
1091,B4,112.75,0.25,90,132.0
1092,B3,112.75,0.25,90,132.0
1093,B2,112.75,0.25,90,132.0
1094,F#2,113.0,0.25,92,132.0
1095,B1,113.0,0.25,92,132.0
1096,E2,113.0,0.25,92,132.0
1097,E1,113.0,0.25,92,132.0
1098,F#2,113.5,0.25,73,132.0
1099,B2,113.5,0.5,90,132.0
1100,B1,113.5,0.5,90,132.0
1101,B5,113.5,0.5,90,132.0
1102,B4,113.5,0.5,90,132.0
1103,B3,113.5,0.5,90,132.0
1104,B2,113.5,0.5,90,132.0
1105,F#2,114.0,0.25,95,132.0
1106,B1,114.0,0.25,95,132.0
1107,G2,114.25,0.25,90,132.0
1108,G1,114.25,0.25,90,132.0
1109,G5,114.25,0.25,90,132.0
1110,G4,114.25,0.25,90,132.0
1111,G3,114.25,0.25,90,132.0
1112,G2,114.25,0.25,90,132.0
1113,F#2,114.5,0.25,73,132.0
1114,B2,114.5,0.5,90,132.0
1115,B1,114.5,0.5,90,132.0
1116,B5,114.5,0.5,90,132.0
1117,B4,114.5,0.5,90,132.0
1118,B3,114.5,0.5,90,132.0
1119,B2,114.5,0.5,90,132.0
1120,B2,115.0,0.5,90,132.0
1121,B1,115.0,0.5,90,132.0
1122,B5,115.0,0.5,90,132.0
1123,B4,115.0,0.5,90,132.0
1124,B3,115.0,0.5,90,132.0
1125,B2,115.0,0.5,90,132.0
1126,F#2,115.0,0.25,92,132.0
1127,E1,115.0,0.25,92,132.0
1128,B1,115.0,0.25,92,132.0
1129,E2,115.0,0.25,92,132.0
1130,F#2,115.5,0.25,73,132.0
1131,B2,115.5,0.5,90,132.0
1132,B1,115.5,0.5,90,132.0
1133,B5,115.5,0.5,90,132.0
1134,B4,115.5,0.5,90,132.0
1135,B3,115.5,0.5,90,132.0
1136,B2,115.5,0.5,90,132.0
1137,B1,116.0,0.75,90,132.0
1138,B0,116.0,0.75,90,132.0
1139,B4,116.0,0.75,90,132.0
1140,B3,116.0,0.75,90,132.0
1141,B2,116.0,0.75,90,132.0
1142,B1,116.0,0.75,90,132.0
1143,B5,116.0,4.0,100,132.0
1144,B4,116.0,4.0,100,132.0
1145,F#2,116.0,0.25,103,132.0
1146,B1,116.0,0.25,103,132.0
1147,F#2,116.5,0.25,73,132.0
1148,B2,116.75,0.25,90,132.0
1149,B1,116.75,0.25,90,132.0
1150,B5,116.75,0.25,90,132.0
1151,B4,116.75,0.25,90,132.0
1152,B3,116.75,0.25,90,132.0
1153,B2,116.75,0.25,90,132.0
1154,F#2,117.0,0.25,92,132.0
1155,E1,117.0,0.25,92,132.0
1156,B1,117.0,0.25,92,132.0
1157,E2,117.0,0.25,92,132.0
1158,F#2,117.5,0.25,73,132.0
1159,B2,117.5,0.5,90,132.0
1160,B1,117.5,0.5,90,132.0
1161,B5,117.5,0.5,90,132.0
1162,B4,117.5,0.5,90,132.0
1163,B3,117.5,0.5,90,132.0
1164,B2,117.5,0.5,90,132.0
1165,B2,118.0,0.375,90,132.0
1166,B1,118.0,0.375,90,132.0
1167,B5,118.0,0.375,90,132.0
1168,B4,118.0,0.375,90,132.0
1169,B3,118.0,0.375,90,132.0
1170,B2,118.0,0.375,90,132.0
1171,F#2,118.0,0.25,96,132.0
1172,B1,118.0,0.25,96,132.0
1173,F#2,118.5,0.25,73,132.0
1174,B2,118.5,0.5,90,132.0
1175,B1,118.5,0.5,90,132.0
1176,B5,118.5,0.5,90,132.0
1177,B4,118.5,0.5,90,132.0
1178,B3,118.5,0.5,90,132.0
1179,B2,118.5,0.5,90,132.0
1180,B2,119.0,0.5,90,132.0
1181,B1,119.0,0.5,90,132.0
1182,B5,119.0,0.5,90,132.0
1183,B4,119.0,0.5,90,132.0
1184,B3,119.0,0.5,90,132.0
1185,B2,119.0,0.5,90,132.0
1186,F#2,119.0,0.25,93,132.0
1187,E1,119.0,0.25,93,132.0
1188,B1,119.0,0.25,93,132.0
1189,E2,119.0,0.25,93,132.0
1190,F#2,119.5,0.25,73,132.0
1191,B2,119.5,0.5,90,132.0
1192,B1,119.5,0.5,90,132.0
1193,B5,119.5,0.5,90,132.0
1194,B4,119.5,0.5,90,132.0
1195,B3,119.5,0.5,90,132.0
1196,B2,119.5,0.5,90,132.0
1197,B1,120.0,0.75,90,132.0
1198,B0,120.0,0.75,90,132.0
1199,B4,120.0,0.75,90,132.0
1200,B3,120.0,0.75,90,132.0
1201,B2,120.0,0.75,90,132.0
1202,B1,120.0,0.75,90,132.0
1203,B5,120.0,4.0,100,132.0
1204,B4,120.0,4.0,100,132.0
1205,F#2,120.0,0.25,103,132.0
1206,B1,120.0,0.25,103,132.0
1207,F#2,120.5,0.25,73,132.0
1208,B2,120.75,0.25,90,132.0
1209,B1,120.75,0.25,90,132.0
1210,B5,120.75,0.25,90,132.0
1211,B4,120.75,0.25,90,132.0
1212,B3,120.75,0.25,90,132.0
1213,B2,120.75,0.25,90,132.0
1214,F#2,121.0,0.25,92,132.0
1215,B1,121.0,0.25,92,132.0
1216,E2,121.0,0.25,92,132.0
1217,E1,121.0,0.25,92,132.0
1218,F#2,121.5,0.25,73,132.0
1219,B2,121.5,0.5,90,132.0
1220,B1,121.5,0.5,90,132.0
1221,B5,121.5,0.5,90,132.0
1222,B4,121.5,0.5,90,132.0
1223,B3,121.5,0.5,90,132.0
1224,B2,121.5,0.5,90,132.0
1225,F#2,122.0,0.25,95,132.0
1226,B1,122.0,0.25,95,132.0
1227,G2,122.25,0.25,90,132.0
1228,G1,122.25,0.25,90,132.0
1229,G5,122.25,0.25,90,132.0
1230,G4,122.25,0.25,90,132.0
1231,G3,122.25,0.25,90,132.0
1232,G2,122.25,0.25,90,132.0
1233,F#2,122.5,0.25,73,132.0
1234,B2,122.5,0.5,90,132.0
1235,B1,122.5,0.5,90,132.0
1236,B5,122.5,0.5,90,132.0
1237,B4,122.5,0.5,90,132.0
1238,B3,122.5,0.5,90,132.0
1239,B2,122.5,0.5,90,132.0
1240,B2,123.0,0.5,90,132.0
1241,B1,123.0,0.5,90,132.0
1242,B5,123.0,0.5,90,132.0
1243,B4,123.0,0.5,90,132.0
1244,B3,123.0,0.5,90,132.0
1245,B2,123.0,0.5,90,132.0
1246,F#2,123.0,0.25,92,132.0
1247,E1,123.0,0.25,92,132.0
1248,B1,123.0,0.25,92,132.0
1249,E2,123.0,0.25,92,132.0
1250,F#2,123.5,0.25,73,132.0
1251,B2,123.5,0.5,90,132.0
1252,B1,123.5,0.5,90,132.0
1253,B5,123.5,0.5,90,132.0
1254,B4,123.5,0.5,90,132.0
1255,B3,123.5,0.5,90,132.0
1256,B2,123.5,0.5,90,132.0
1257,G4,124.0,0.5,101,132.0
1258,G5,124.0,0.5,101,132.0
1259,B4,124.0,0.5,101,132.0
1260,B5,124.0,0.5,101,132.0
1261,B4,124.0,0.5,101,132.0
1262,G3,124.0,0.5,101,132.0
1263,G4,124.0,0.5,101,132.0
1264,B3,124.0,0.5,101,132.0
1265,F#2,124.0,0.25,103,132.0
1266,B1,124.0,0.25,103,132.0
1267,E-5,124.0,4.0,63,132.0
1268,D5,124.0,4.0,63,132.0
1269,C#5,124.0,4.0,63,132.0
1270,C5,124.0,4.0,63,132.0
1271,C4,124.0,4.0,63,132.0
1272,B4,124.0,4.0,63,132.0
1273,B-4,124.0,4.0,63,132.0
1274,A4,124.0,4.0,63,132.0
1275,G#4,124.0,4.0,63,132.0
1276,G4,124.0,4.0,63,132.0
1277,F#4,124.0,4.0,63,132.0
1278,F4,124.0,4.0,63,132.0
1279,E4,124.0,4.0,63,132.0
1280,D4,124.0,4.0,63,132.0
1281,E-4,124.0,4.0,63,132.0
1282,C#4,124.0,4.0,63,132.0
1283,F#2,124.5,0.25,73,132.0
1284,G4,124.75,0.5,101,132.0
1285,G5,124.75,0.5,101,132.0
1286,B4,124.75,0.5,101,132.0
1287,B5,124.75,0.5,101,132.0
1288,B4,124.75,0.5,101,132.0
1289,B3,124.75,0.5,101,132.0
1290,G4,124.75,0.5,101,132.0
1291,G3,124.75,0.5,101,132.0
1292,F#2,125.0,0.25,92,132.0
1293,E1,125.0,0.25,92,132.0
1294,B1,125.0,0.25,92,132.0
1295,E2,125.0,0.25,92,132.0
1296,B5,125.5,0.5,101,132.0
1297,B4,125.5,0.5,101,132.0
1298,G5,125.5,0.5,101,132.0
1299,G4,125.5,0.5,101,132.0
1300,B4,125.5,0.5,101,132.0
1301,B3,125.5,0.5,101,132.0
1302,G4,125.5,0.5,101,132.0
1303,G3,125.5,0.5,101,132.0
1304,E3,126.0,1.5,127,132.0
1305,F2,126.0,0.25,127,132.0
1306,C4,126.0,2.0,103,132.0
1307,A4,126.0,0.5,101,132.0
1308,A5,126.0,0.5,101,132.0
1309,C#5,126.0,0.5,101,132.0
1310,C#6,126.0,0.5,101,132.0
1311,C#5,126.0,0.5,101,132.0
1312,C#4,126.0,0.5,101,132.0
1313,A4,126.0,0.5,101,132.0
1314,A3,126.0,0.5,101,132.0
1315,C#6,126.75,0.5,101,132.0
1316,C#5,126.75,0.5,101,132.0
1317,A5,126.75,0.5,101,132.0
1318,A4,126.75,0.5,101,132.0
1319,C#5,126.75,0.5,101,132.0
1320,C#4,126.75,0.5,101,132.0
1321,A4,126.75,0.5,101,132.0
1322,A3,126.75,0.5,101,132.0
1323,G#2,126.75,0.25,80,132.0
1324,D2,126.75,0.25,80,132.0
1325,D2,127.0,0.25,80,132.0
1326,G2,127.5,0.25,127,132.0
1327,A4,127.5,0.5,104,132.0
1328,A5,127.5,0.5,104,132.0
1329,C#5,127.5,0.5,104,132.0
1330,C#6,127.5,0.5,104,132.0
1331,C#5,127.5,0.5,104,132.0
1332,C#4,127.5,0.5,104,132.0
1333,A4,127.5,0.5,104,132.0
1334,A3,127.5,0.5,104,132.0
1335,G#3,127.5,0.5,104,132.0
1336,C4,136.0,0.25,103,132.0
1337,B5,136.0,0.5,101,132.0
1338,G5,136.0,0.5,101,132.0
1339,G4,136.0,0.5,101,132.0
1340,B4,136.0,0.5,101,132.0
1341,B4,136.0,0.5,101,132.0
1342,B3,136.0,0.5,101,132.0
1343,G3,136.0,0.5,101,132.0
1344,G4,136.0,0.5,101,132.0
1345,A3,136.0,4.0,111,132.0
1346,E3,136.0,4.0,111,132.0
1347,C#3,136.0,4.0,111,132.0
1348,B1,136.0,0.25,115,132.0
1349,E-2,136.0,0.25,115,132.0
1350,E-5,136.0,8.0,63,132.0
1351,D5,136.0,8.0,63,132.0
1352,C#5,136.0,8.0,63,132.0
1353,C5,136.0,8.0,63,132.0
1354,C4,136.0,8.0,63,132.0
1355,B4,136.0,8.0,63,132.0
1356,B-4,136.0,8.0,63,132.0
1357,A4,136.0,8.0,63,132.0
1358,G#4,136.0,8.0,63,132.0
1359,G4,136.0,8.0,63,132.0
1360,F#4,136.0,8.0,63,132.0
1361,F4,136.0,8.0,63,132.0
1362,E4,136.0,8.0,63,132.0
1363,D4,136.0,8.0,63,132.0
1364,E-4,136.0,8.0,63,132.0
1365,C#4,136.0,8.0,63,132.0
1366,B5,136.75,0.5,101,132.0
1367,G5,136.75,0.5,101,132.0
1368,B4,136.75,0.5,101,132.0
1369,G4,136.75,0.5,101,132.0
1370,B4,136.75,0.5,101,132.0
1371,G3,136.75,0.5,101,132.0
1372,B3,136.75,0.5,101,132.0
1373,G4,136.75,0.5,101,132.0
1374,B1,137.0,0.25,115,132.0
1375,E-2,137.0,0.25,115,132.0
1376,B5,137.5,0.5,101,132.0
1377,G5,137.5,0.5,101,132.0
1378,G4,137.5,0.5,101,132.0
1379,B4,137.5,0.5,101,132.0
1380,B4,137.5,0.5,101,132.0
1381,B3,137.5,0.5,101,132.0
1382,G3,137.5,0.5,101,132.0
1383,G4,137.5,0.5,101,132.0
1384,B1,138.0,0.25,115,132.0
1385,E-2,138.0,0.25,115,132.0
1386,B5,138.25,0.5,101,132.0
1387,G5,138.25,0.5,101,132.0
1388,G4,138.25,0.5,101,132.0
1389,B4,138.25,0.5,101,132.0
1390,B4,138.25,0.5,101,132.0
1391,B3,138.25,0.5,101,132.0
1392,G3,138.25,0.5,101,132.0
1393,G4,138.25,0.5,101,132.0
1394,B5,139.0,1.0,101,132.0
1395,G5,139.0,1.0,101,132.0
1396,B4,139.0,1.0,101,132.0
1397,G4,139.0,1.0,101,132.0
1398,B4,139.0,1.0,101,132.0
1399,G3,139.0,1.0,101,132.0
1400,B3,139.0,1.0,101,132.0
1401,G4,139.0,1.0,101,132.0
1402,B1,139.0,0.25,115,132.0
1403,E-2,139.0,0.25,115,132.0
1404,C#6,144.0,0.5,101,132.0
1405,A5,144.0,0.5,101,132.0
1406,C#5,144.0,0.5,101,132.0
1407,A4,144.0,0.5,101,132.0
1408,C#5,144.0,0.5,101,132.0
1409,A3,144.0,0.5,101,132.0
1410,C#4,144.0,0.5,101,132.0
1411,A4,144.0,0.5,101,132.0
1412,B1,144.0,0.25,115,132.0
1413,E-2,144.0,0.25,115,132.0
1414,A3,144.0,4.0,111,132.0
1415,E3,144.0,4.0,111,132.0
1416,C#3,144.0,4.0,111,132.0
1417,C#6,144.75,0.5,101,132.0
1418,A5,144.75,0.5,101,132.0
1419,C#5,144.75,0.5,101,132.0
1420,A4,144.75,0.5,101,132.0
1421,C#5,144.75,0.5,101,132.0
1422,A3,144.75,0.5,101,132.0
1423,C#4,144.75,0.5,101,132.0
1424,A4,144.75,0.5,101,132.0
1425,B1,145.0,0.25,115,132.0
1426,E-2,145.0,0.25,115,132.0
1427,C#6,145.5,0.5,101,132.0
1428,A5,145.5,0.5,101,132.0
1429,A4,145.5,0.5,101,132.0
1430,C#5,145.5,0.5,101,132.0
1431,C#5,145.5,0.5,101,132.0
1432,C#4,145.5,0.5,101,132.0
1433,A3,145.5,0.5,101,132.0
1434,A4,145.5,0.5,101,132.0
1435,B1,146.0,0.25,115,132.0
1436,E-2,146.0,0.25,115,132.0
1437,C#6,146.25,0.5,101,132.0
1438,A5,146.25,0.5,101,132.0
1439,A4,146.25,0.5,101,132.0
1440,C#5,146.25,0.5,101,132.0
1441,C#5,146.25,0.5,101,132.0
1442,C#4,146.25,0.5,101,132.0
1443,A3,146.25,0.5,101,132.0
1444,A4,146.25,0.5,101,132.0
1445,C#6,147.0,0.375,101,132.0
1446,A5,147.0,0.375,101,132.0
1447,A4,147.0,0.375,101,132.0
1448,C#5,147.0,0.375,101,132.0
1449,C#5,147.0,0.375,101,132.0
1450,C#4,147.0,0.375,101,132.0
1451,A3,147.0,0.375,101,132.0
1452,A4,147.0,0.375,101,132.0
1453,B1,147.0,0.25,115,132.0
1454,E-2,147.0,0.25,115,132.0
1455,C#6,147.5,0.375,101,132.0
1456,A4,147.5,0.375,101,132.0
1457,C#5,147.5,0.375,101,132.0
1458,A5,147.5,0.375,101,132.0
1459,C#5,147.5,0.375,101,132.0
1460,A4,147.5,0.375,101,132.0
1461,C#4,147.5,0.375,101,132.0
1462,A3,147.5,0.375,101,132.0
1463,E-6,148.0,0.5,101,132.0
1464,E-5,148.0,0.5,101,132.0
1465,B4,148.0,0.5,101,132.0
1466,B5,148.0,0.5,101,132.0
1467,E-5,148.0,0.5,101,132.0
1468,B4,148.0,0.5,101,132.0
1469,B3,148.0,0.5,101,132.0
1470,E-4,148.0,0.5,101,132.0
1471,B1,148.0,0.25,115,132.0
1472,E-2,148.0,0.25,115,132.0
1473,E-6,148.75,0.5,101,132.0
1474,B5,148.75,0.5,101,132.0
1475,B4,148.75,0.5,101,132.0
1476,E-5,148.75,0.5,101,132.0
1477,E-5,148.75,0.5,101,132.0
1478,E-4,148.75,0.5,101,132.0
1479,B3,148.75,0.5,101,132.0
1480,B4,148.75,0.5,101,132.0
1481,B1,149.0,0.25,115,132.0
1482,E-2,149.0,0.25,115,132.0
1483,E-6,149.5,0.5,101,132.0
1484,B5,149.5,0.5,101,132.0
1485,B4,149.5,0.5,101,132.0
1486,E-5,149.5,0.5,101,132.0
1487,E-5,149.5,0.5,101,132.0
1488,E-4,149.5,0.5,101,132.0
1489,B3,149.5,0.5,101,132.0
1490,B4,149.5,0.5,101,132.0
1491,B1,150.0,0.25,115,132.0
1492,E-2,150.0,0.25,115,132.0
1493,E-6,150.25,0.5,101,132.0
1494,B5,150.25,0.5,101,132.0
1495,B4,150.25,0.5,101,132.0
1496,E-5,150.25,0.5,101,132.0
1497,E-5,150.25,0.5,101,132.0
1498,E-4,150.25,0.5,101,132.0
1499,B3,150.25,0.5,101,132.0
1500,B4,150.25,0.5,101,132.0
1501,E-6,151.0,1.0,101,132.0
1502,B5,151.0,1.0,101,132.0
1503,B4,151.0,1.0,101,132.0
1504,E-5,151.0,1.0,101,132.0
1505,E-5,151.0,1.0,101,132.0
1506,E-4,151.0,1.0,101,132.0
1507,B3,151.0,1.0,101,132.0
1508,B4,151.0,1.0,101,132.0
1509,B1,151.0,0.25,115,132.0
1510,E-2,151.0,0.25,115,132.0
1511,E-6,152.0,0.5,101,132.0
1512,B5,152.0,0.5,101,132.0
1513,E-5,152.0,0.5,101,132.0
1514,B4,152.0,0.5,101,132.0
1515,E-5,152.0,0.5,101,132.0
1516,B3,152.0,0.5,101,132.0
1517,E-4,152.0,0.5,101,132.0
1518,B4,152.0,0.5,101,132.0
1519,B1,152.0,0.25,115,132.0
1520,E-2,152.0,0.25,115,132.0
1521,E-5,152.0,4.0,63,132.0
1522,D5,152.0,4.0,63,132.0
1523,C#5,152.0,4.0,63,132.0
1524,C5,152.0,4.0,63,132.0
1525,C4,152.0,4.0,63,132.0
1526,B4,152.0,4.0,63,132.0
1527,B-4,152.0,4.0,63,132.0
1528,A4,152.0,4.0,63,132.0
1529,G#4,152.0,4.0,63,132.0
1530,G4,152.0,4.0,63,132.0
1531,F#4,152.0,4.0,63,132.0
1532,F4,152.0,4.0,63,132.0
1533,E4,152.0,4.0,63,132.0
1534,D4,152.0,4.0,63,132.0
1535,E-4,152.0,4.0,63,132.0
1536,C#4,152.0,4.0,63,132.0
1537,E-6,152.75,0.5,101,132.0
1538,B5,152.75,0.5,101,132.0
1539,B4,152.75,0.5,101,132.0
1540,E-5,152.75,0.5,101,132.0
1541,E-5,152.75,0.5,101,132.0
1542,E-4,152.75,0.5,101,132.0
1543,B3,152.75,0.5,101,132.0
1544,B4,152.75,0.5,101,132.0
1545,B1,153.0,0.25,115,132.0
1546,E-2,153.0,0.25,115,132.0
1547,E-6,153.5,0.5,101,132.0
1548,B5,153.5,0.5,101,132.0
1549,E-5,153.5,0.5,101,132.0
1550,B4,153.5,0.5,101,132.0
1551,E-5,153.5,0.5,101,132.0
1552,B3,153.5,0.5,101,132.0
1553,E-4,153.5,0.5,101,132.0
1554,B4,153.5,0.5,101,132.0
1555,C#6,154.0,0.375,101,132.0
1556,C#5,154.0,0.375,101,132.0
1557,A4,154.0,0.375,101,132.0
1558,A5,154.0,0.375,101,132.0
1559,C#5,154.0,0.375,101,132.0
1560,A4,154.0,0.375,101,132.0
1561,A3,154.0,0.375,101,132.0
1562,C#4,154.0,0.375,101,132.0
1563,B1,154.0,0.25,115,132.0
1564,E-2,154.0,0.25,115,132.0
1565,C#6,154.5,0.375,101,132.0
1566,A4,154.5,0.375,101,132.0
1567,C#5,154.5,0.375,101,132.0
1568,A5,154.5,0.375,101,132.0
1569,C#5,154.5,0.375,101,132.0
1570,A4,154.5,0.375,101,132.0
1571,C#4,154.5,0.375,101,132.0
1572,A3,154.5,0.375,101,132.0
1573,E-6,155.0,0.375,101,132.0
1574,B4,155.0,0.375,101,132.0
1575,E-5,155.0,0.375,101,132.0
1576,B5,155.0,0.375,101,132.0
1577,E-5,155.0,0.375,101,132.0
1578,B4,155.0,0.375,101,132.0
1579,E-4,155.0,0.375,101,132.0
1580,B3,155.0,0.375,101,132.0
1581,B1,155.0,0.25,115,132.0
1582,E-2,155.0,0.25,115,132.0
1583,E-6,155.5,0.375,101,132.0
1584,B4,155.5,0.375,101,132.0
1585,E-5,155.5,0.375,101,132.0
1586,B5,155.5,0.375,101,132.0
1587,E-5,155.5,0.375,101,132.0
1588,B4,155.5,0.375,101,132.0
1589,E-4,155.5,0.375,101,132.0
1590,B3,155.5,0.375,101,132.0
1591,B5,164.0,0.5,101,132.0
1592,G5,164.0,0.5,101,132.0
1593,G4,164.0,0.5,101,132.0
1594,B4,164.0,0.5,101,132.0
1595,B4,164.0,0.5,101,132.0
1596,B3,164.0,0.5,101,132.0
1597,G3,164.0,0.5,101,132.0
1598,G4,164.0,0.5,101,132.0
1599,A3,164.0,4.0,111,132.0
1600,E3,164.0,4.0,111,132.0
1601,C#3,164.0,4.0,111,132.0
1602,E2,164.0,0.25,111,132.0
1603,B1,164.0,0.25,111,132.0
1604,E-2,164.0,0.25,111,132.0
1605,E-5,164.0,8.0,63,132.0
1606,D5,164.0,8.0,63,132.0
1607,C#5,164.0,8.0,63,132.0
1608,C5,164.0,8.0,63,132.0
1609,C4,164.0,8.0,63,132.0
1610,B4,164.0,8.0,63,132.0
1611,B-4,164.0,8.0,63,132.0
1612,A4,164.0,8.0,63,132.0
1613,G#4,164.0,8.0,63,132.0
1614,G4,164.0,8.0,63,132.0
1615,F#4,164.0,8.0,63,132.0
1616,F4,164.0,8.0,63,132.0
1617,E4,164.0,8.0,63,132.0
1618,D4,164.0,8.0,63,132.0
1619,E-4,164.0,8.0,63,132.0
1620,C#4,164.0,8.0,63,132.0
1621,E2,164.75,0.25,103,132.0
1622,B5,164.75,0.5,101,132.0
1623,G5,164.75,0.5,101,132.0
1624,B4,164.75,0.5,101,132.0
1625,G4,164.75,0.5,101,132.0
1626,B4,164.75,0.5,101,132.0
1627,G3,164.75,0.5,101,132.0
1628,B3,164.75,0.5,101,132.0
1629,G4,164.75,0.5,101,132.0
1630,B1,165.0,0.25,115,132.0
1631,E-2,165.0,0.25,115,132.0
1632,E2,165.5,0.25,103,132.0
1633,B5,165.5,0.5,101,132.0
1634,G5,165.5,0.5,101,132.0
1635,G4,165.5,0.5,101,132.0
1636,B4,165.5,0.5,101,132.0
1637,B4,165.5,0.5,101,132.0
1638,B3,165.5,0.5,101,132.0
1639,G3,165.5,0.5,101,132.0
1640,G4,165.5,0.5,101,132.0
1641,B1,166.0,0.25,115,132.0
1642,E-2,166.0,0.25,115,132.0
1643,E2,166.25,0.25,103,132.0
1644,B5,166.25,0.5,101,132.0
1645,G5,166.25,0.5,101,132.0
1646,G4,166.25,0.5,101,132.0
1647,B4,166.25,0.5,101,132.0
1648,B4,166.25,0.5,101,132.0
1649,B3,166.25,0.5,101,132.0
1650,G3,166.25,0.5,101,132.0
1651,G4,166.25,0.5,101,132.0
1652,B5,167.0,1.0,101,132.0
1653,G5,167.0,1.0,101,132.0
1654,B4,167.0,1.0,101,132.0
1655,G4,167.0,1.0,101,132.0
1656,B4,167.0,1.0,101,132.0
1657,G3,167.0,1.0,101,132.0
1658,B3,167.0,1.0,101,132.0
1659,G4,167.0,1.0,101,132.0
1660,E2,167.0,0.25,111,132.0
1661,B1,167.0,0.25,111,132.0
1662,E-2,167.0,0.25,111,132.0
1663,B1,172.0,4.0,127,132.0
1664,C#6,172.0,0.5,101,132.0
1665,A5,172.0,0.5,101,132.0
1666,C#5,172.0,0.5,101,132.0
1667,A4,172.0,0.5,101,132.0
1668,C#5,172.0,0.5,101,132.0
1669,A3,172.0,0.5,101,132.0
1670,C#4,172.0,0.5,101,132.0
1671,A4,172.0,0.5,101,132.0
1672,E2,172.0,0.25,111,132.0
1673,B1,172.0,0.25,111,132.0
1674,E-2,172.0,0.25,111,132.0
1675,A3,172.0,4.0,111,132.0
1676,E3,172.0,4.0,111,132.0
1677,C#3,172.0,4.0,111,132.0
1678,E2,172.75,0.25,103,132.0
1679,C#6,172.75,0.5,101,132.0
1680,A5,172.75,0.5,101,132.0
1681,C#5,172.75,0.5,101,132.0
1682,A4,172.75,0.5,101,132.0
1683,C#5,172.75,0.5,101,132.0
1684,A3,172.75,0.5,101,132.0
1685,C#4,172.75,0.5,101,132.0
1686,A4,172.75,0.5,101,132.0
1687,B1,173.0,0.25,115,132.0
1688,E-2,173.0,0.25,115,132.0
1689,E2,173.5,0.25,103,132.0
1690,C#6,173.5,0.5,101,132.0
1691,A5,173.5,0.5,101,132.0
1692,A4,173.5,0.5,101,132.0
1693,C#5,173.5,0.5,101,132.0
1694,C#5,173.5,0.5,101,132.0
1695,C#4,173.5,0.5,101,132.0
1696,A3,173.5,0.5,101,132.0
1697,A4,173.5,0.5,101,132.0
1698,B1,174.0,0.25,115,132.0
1699,E-2,174.0,0.25,115,132.0
1700,E2,174.25,0.25,103,132.0
1701,C#6,174.25,0.5,101,132.0
1702,A5,174.25,0.5,101,132.0
1703,A4,174.25,0.5,101,132.0
1704,C#5,174.25,0.5,101,132.0
1705,C#5,174.25,0.5,101,132.0
1706,C#4,174.25,0.5,101,132.0
1707,A3,174.25,0.5,101,132.0
1708,A4,174.25,0.5,101,132.0
1709,C#6,175.0,0.375,101,132.0
1710,A5,175.0,0.375,101,132.0
1711,A4,175.0,0.375,101,132.0
1712,C#5,175.0,0.375,101,132.0
1713,C#5,175.0,0.375,101,132.0
1714,C#4,175.0,0.375,101,132.0
1715,A3,175.0,0.375,101,132.0
1716,A4,175.0,0.375,101,132.0
1717,E2,175.0,0.25,111,132.0
1718,B1,175.0,0.25,111,132.0
1719,E-2,175.0,0.25,111,132.0
1720,E2,175.5,0.25,103,132.0
1721,C#6,175.5,0.375,101,132.0
1722,A4,175.5,0.375,101,132.0
1723,C#5,175.5,0.375,101,132.0
1724,A5,175.5,0.375,101,132.0
1725,C#5,175.5,0.375,101,132.0
1726,A4,175.5,0.375,101,132.0
1727,C#4,175.5,0.375,101,132.0
1728,A3,175.5,0.375,101,132.0
1729,B2,176.0,4.0,65,132.0
1730,B1,176.0,22.0,127,132.0
1731,C#6,176.0,0.5,101,132.0
1732,C#5,176.0,0.5,101,132.0
1733,F#4,176.0,0.5,101,132.0
1734,F#5,176.0,0.5,101,132.0
1735,C#5,176.0,0.5,101,132.0
1736,F#4,176.0,0.5,101,132.0
1737,F#3,176.0,0.5,101,132.0
1738,C#4,176.0,0.5,101,132.0
1739,E2,176.0,0.25,111,132.0
1740,B1,176.0,0.25,111,132.0
1741,E-2,176.0,0.25,111,132.0
1742,C#3,176.125,3.875,63,132.0
1743,E-3,176.125,3.875,63,132.0
1744,D3,176.125,3.875,63,132.0
1745,E3,176.125,3.875,63,132.0
1746,F3,176.125,3.875,63,132.0
1747,F#3,176.125,3.875,63,132.0
1748,G3,176.125,3.875,63,132.0
1749,G#3,176.125,3.875,63,132.0
1750,A3,176.125,3.875,63,132.0
1751,B-3,176.125,3.875,63,132.0
1752,B3,176.125,3.875,63,132.0
1753,C3,176.125,3.875,63,132.0
1754,C4,176.125,3.875,63,132.0
1755,C#4,176.125,3.875,63,132.0
1756,D4,176.125,3.875,63,132.0
1757,E-4,176.125,3.875,63,132.0
1758,E2,176.75,0.25,103,132.0
1759,C#6,176.75,0.5,101,132.0
1760,F#4,176.75,0.5,101,132.0
1761,C#5,176.75,0.5,101,132.0
1762,F#5,176.75,0.5,101,132.0
1763,C#5,176.75,0.5,101,132.0
1764,F#4,176.75,0.5,101,132.0
1765,C#4,176.75,0.5,101,132.0
1766,F#3,176.75,0.5,101,132.0
1767,B1,177.0,0.25,115,132.0
1768,E-2,177.0,0.25,115,132.0
1769,E2,177.5,0.25,103,132.0
1770,C#6,177.5,0.5,101,132.0
1771,F#4,177.5,0.5,101,132.0
1772,C#5,177.5,0.5,101,132.0
1773,F#5,177.5,0.5,101,132.0
1774,C#5,177.5,0.5,101,132.0
1775,F#4,177.5,0.5,101,132.0
1776,C#4,177.5,0.5,101,132.0
1777,F#3,177.5,0.5,101,132.0
1778,B1,178.0,0.25,115,132.0
1779,E-2,178.0,0.25,115,132.0
1780,E2,178.25,0.25,103,132.0
1781,C#6,178.25,0.5,101,132.0
1782,C#5,178.25,0.5,101,132.0
1783,F#4,178.25,0.5,101,132.0
1784,F#5,178.25,0.5,101,132.0
1785,C#5,178.25,0.5,101,132.0
1786,F#4,178.25,0.5,101,132.0
1787,F#3,178.25,0.5,101,132.0
1788,C#4,178.25,0.5,101,132.0
1789,C#6,179.0,0.875,101,132.0
1790,C#5,179.0,0.875,101,132.0
1791,F#4,179.0,0.875,101,132.0
1792,F#5,179.0,0.875,101,132.0
1793,C#5,179.0,0.875,101,132.0
1794,F#4,179.0,0.875,101,132.0
1795,F#3,179.0,0.875,101,132.0
1796,C#4,179.0,0.875,101,132.0
1797,E2,179.0,0.25,111,132.0
1798,B1,179.0,0.25,111,132.0
1799,E-2,179.0,0.25,111,132.0
1800,E2,179.5,0.25,103,132.0
1801,B2,198.0,18.0,65,132.0
1802,C#6,198.0,0.5,101,132.0
1803,C#5,198.0,0.5,101,132.0
1804,F#4,198.0,0.5,101,132.0
1805,F#5,198.0,0.5,101,132.0
1806,C#5,198.0,0.5,101,132.0
1807,F#4,198.0,0.5,101,132.0
1808,F#3,198.0,0.5,101,132.0
1809,C#4,198.0,0.5,101,132.0
1810,E2,198.0,0.25,111,132.0
1811,B1,198.0,0.25,111,132.0
1812,E-2,198.0,0.25,111,132.0
1813,C#3,198.0,16.125,63,132.0
1814,E-3,198.0,16.125,63,132.0
1815,D3,198.0,16.125,63,132.0
1816,E3,198.0,16.125,63,132.0
1817,F3,198.0,16.125,63,132.0
1818,F#3,198.0,16.125,63,132.0
1819,G3,198.0,16.125,63,132.0
1820,G#3,198.0,16.125,63,132.0
1821,A3,198.0,16.125,63,132.0
1822,B-3,198.0,16.125,63,132.0
1823,B3,198.0,16.125,63,132.0
1824,C3,198.0,16.125,63,132.0
1825,C4,198.0,16.125,63,132.0
1826,C#4,198.0,16.125,63,132.0
1827,D4,198.0,16.125,63,132.0
1828,E-4,198.0,16.125,63,132.0
1829,E2,198.75,0.25,103,132.0
1830,C#6,198.75,0.5,101,132.0
1831,F#4,198.75,0.5,101,132.0
1832,C#5,198.75,0.5,101,132.0
1833,F#5,198.75,0.5,101,132.0
1834,C#5,198.75,0.5,101,132.0
1835,F#4,198.75,0.5,101,132.0
1836,C#4,198.75,0.5,101,132.0
1837,F#3,198.75,0.5,101,132.0
1838,B1,199.0,0.25,115,132.0
1839,E-2,199.0,0.25,115,132.0
1840,E2,199.5,0.25,103,132.0
1841,C#6,199.5,0.5,101,132.0
1842,F#4,199.5,0.5,101,132.0
1843,C#5,199.5,0.5,101,132.0
1844,F#5,199.5,0.5,101,132.0
1845,C#5,199.5,0.5,101,132.0
1846,F#4,199.5,0.5,101,132.0
1847,C#4,199.5,0.5,101,132.0
1848,F#3,199.5,0.5,101,132.0
1849,B1,200.0,0.25,115,132.0
1850,E-2,200.0,0.25,115,132.0
1851,E2,200.25,0.25,103,132.0
1852,C#6,200.25,0.5,101,132.0
1853,C#5,200.25,0.5,101,132.0
1854,F#4,200.25,0.5,101,132.0
1855,F#5,200.25,0.5,101,132.0
1856,C#5,200.25,0.5,101,132.0
1857,F#4,200.25,0.5,101,132.0
1858,F#3,200.25,0.5,101,132.0
1859,C#4,200.25,0.5,101,132.0
1860,C#6,201.0,0.375,101,132.0
1861,C#5,201.0,0.375,101,132.0
1862,F#4,201.0,0.375,101,132.0
1863,F#5,201.0,0.375,101,132.0
1864,C#5,201.0,0.375,101,132.0
1865,F#4,201.0,0.375,101,132.0
1866,F#3,201.0,0.375,101,132.0
1867,C#4,201.0,0.375,101,132.0
1868,E2,201.0,0.25,111,132.0
1869,B1,201.0,0.25,111,132.0
1870,E-2,201.0,0.25,111,132.0
1871,E2,201.5,0.25,103,132.0
1872,C#6,201.5,0.375,101,132.0
1873,F#4,201.5,0.375,101,132.0
1874,C#5,201.5,0.375,101,132.0
1875,F#5,201.5,0.375,101,132.0
1876,C#5,201.5,0.375,101,132.0
1877,F#4,201.5,0.375,101,132.0
1878,C#4,201.5,0.375,101,132.0
1879,F#3,201.5,0.375,101,132.0
1880,C#6,216.0,0.375,101,132.0
1881,F#4,216.0,0.375,101,132.0
1882,C#5,216.0,0.375,101,132.0
1883,F#5,216.0,0.375,101,132.0
1884,C#5,216.0,0.375,101,132.0
1885,F#4,216.0,0.375,101,132.0
1886,C#4,216.0,0.375,101,132.0
1887,F#3,216.0,0.375,101,132.0
1888,B1,216.0,0.25,111,132.0
1889,E2,216.0,0.25,111,132.0
1890,E-2,216.0,0.25,111,132.0
1891,C#6,216.5,0.375,101,132.0
1892,C#5,216.5,0.375,101,132.0
1893,F#4,216.5,0.375,101,132.0
1894,F#5,216.5,0.375,101,132.0
1895,C#5,216.5,0.375,101,132.0
1896,F#4,216.5,0.375,101,132.0
1897,F#3,216.5,0.375,101,132.0
1898,C#4,216.5,0.375,101,132.0
1899,B1,216.5,0.25,103,132.0
1900,E2,216.5,0.25,103,132.0
1901,C#6,217.0,0.375,101,132.0
1902,F#4,217.0,0.375,101,132.0
1903,C#5,217.0,0.375,101,132.0
1904,F#5,217.0,0.375,101,132.0
1905,C#5,217.0,0.375,101,132.0
1906,F#4,217.0,0.375,101,132.0
1907,C#4,217.0,0.375,101,132.0
1908,F#3,217.0,0.375,101,132.0
1909,E2,217.0,0.25,111,132.0
1910,B1,217.0,0.25,111,132.0
1911,E-2,217.0,0.25,111,132.0
1912,C#6,217.5,0.375,101,132.0
1913,F#4,217.5,0.375,101,132.0
1914,C#5,217.5,0.375,101,132.0
1915,F#5,217.5,0.375,101,132.0
1916,C#5,217.5,0.375,101,132.0
1917,F#4,217.5,0.375,101,132.0
1918,C#4,217.5,0.375,101,132.0
1919,F#3,217.5,0.375,101,132.0
1920,B1,217.5,0.25,103,132.0
1921,E2,217.5,0.25,103,132.0
1922,C#6,218.0,0.375,101,132.0
1923,C#5,218.0,0.375,101,132.0
1924,F#4,218.0,0.375,101,132.0
1925,F#5,218.0,0.375,101,132.0
1926,C#5,218.0,0.375,101,132.0
1927,F#4,218.0,0.375,101,132.0
1928,F#3,218.0,0.375,101,132.0
1929,C#4,218.0,0.375,101,132.0
1930,E2,218.0,0.25,111,132.0
1931,B1,218.0,0.25,111,132.0
1932,E-2,218.0,0.25,111,132.0
1933,C#6,218.5,0.375,101,132.0
1934,C#5,218.5,0.375,101,132.0
1935,F#4,218.5,0.375,101,132.0
1936,F#5,218.5,0.375,101,132.0
1937,C#5,218.5,0.375,101,132.0
1938,F#4,218.5,0.375,101,132.0
1939,F#3,218.5,0.375,101,132.0
1940,C#4,218.5,0.375,101,132.0
1941,B1,218.5,0.25,103,132.0
1942,E2,218.5,0.25,103,132.0
1943,C#6,219.0,0.375,101,132.0
1944,C#5,219.0,0.375,101,132.0
1945,F#4,219.0,0.375,101,132.0
1946,F#5,219.0,0.375,101,132.0
1947,C#5,219.0,0.375,101,132.0
1948,F#4,219.0,0.375,101,132.0
1949,F#3,219.0,0.375,101,132.0
1950,C#4,219.0,0.375,101,132.0
1951,E2,219.0,0.25,111,132.0
1952,B1,219.0,0.25,111,132.0
1953,E-2,219.0,0.25,111,132.0
1954,C#6,219.5,0.375,101,132.0
1955,F#4,219.5,0.375,101,132.0
1956,C#5,219.5,0.375,101,132.0
1957,F#5,219.5,0.375,101,132.0
1958,C#5,219.5,0.375,101,132.0
1959,F#4,219.5,0.375,101,132.0
1960,C#4,219.5,0.375,101,132.0
1961,F#3,219.5,0.375,101,132.0
1962,B1,219.5,0.25,104,132.0
1963,E2,219.5,0.25,104,132.0
1964,C#6,220.0,0.375,101,132.0
1965,C#5,220.0,0.375,101,132.0
1966,F#4,220.0,0.375,101,132.0
1967,F#5,220.0,0.375,101,132.0
1968,C#5,220.0,0.375,101,132.0
1969,F#4,220.0,0.375,101,132.0
1970,F#3,220.0,0.375,101,132.0
1971,C#4,220.0,0.375,101,132.0
1972,E2,220.0,0.25,111,132.0
1973,B1,220.0,0.25,111,132.0
1974,E-2,220.0,0.25,111,132.0
1975,C#6,220.5,0.375,101,132.0
1976,C#5,220.5,0.375,101,132.0
1977,F#4,220.5,0.375,101,132.0
1978,F#5,220.5,0.375,101,132.0
1979,C#5,220.5,0.375,101,132.0
1980,F#4,220.5,0.375,101,132.0
1981,F#3,220.5,0.375,101,132.0
1982,C#4,220.5,0.375,101,132.0
1983,B1,220.5,0.25,104,132.0
1984,E2,220.5,0.25,104,132.0
1985,C#6,221.0,0.375,101,132.0
1986,C#5,221.0,0.375,101,132.0
1987,F#4,221.0,0.375,101,132.0
1988,F#5,221.0,0.375,101,132.0
1989,C#5,221.0,0.375,101,132.0
1990,F#4,221.0,0.375,101,132.0
1991,F#3,221.0,0.375,101,132.0
1992,C#4,221.0,0.375,101,132.0
1993,E2,221.0,0.25,111,132.0
1994,B1,221.0,0.25,111,132.0
1995,E-2,221.0,0.25,111,132.0
1996,C#6,221.5,0.375,101,132.0
1997,F#4,221.5,0.375,101,132.0
1998,C#5,221.5,0.375,101,132.0
1999,F#5,221.5,0.375,101,132.0
2000,C#5,221.5,0.375,101,132.0
2001,F#4,221.5,0.375,101,132.0
2002,C#4,221.5,0.375,101,132.0
2003,F#3,221.5,0.375,101,132.0
2004,B1,221.5,0.25,104,132.0
2005,E2,221.5,0.25,104,132.0
2006,C#6,222.0,0.375,101,132.0
2007,C#5,222.0,0.375,101,132.0
2008,F#4,222.0,0.375,101,132.0
2009,F#5,222.0,0.375,101,132.0
2010,C#5,222.0,0.375,101,132.0
2011,F#4,222.0,0.375,101,132.0
2012,F#3,222.0,0.375,101,132.0
2013,C#4,222.0,0.375,101,132.0
2014,E2,222.0,0.25,111,132.0
2015,B1,222.0,0.25,111,132.0
2016,E-2,222.0,0.25,111,132.0
2017,C#6,222.5,0.375,101,132.0
2018,C#5,222.5,0.375,101,132.0
2019,F#4,222.5,0.375,101,132.0
2020,F#5,222.5,0.375,101,132.0
2021,C#5,222.5,0.375,101,132.0
2022,F#4,222.5,0.375,101,132.0
2023,F#3,222.5,0.375,101,132.0
2024,C#4,222.5,0.375,101,132.0
2025,B1,222.5,0.25,104,132.0
2026,E2,222.5,0.25,104,132.0
2027,C#6,223.0,0.375,101,132.0
2028,C#5,223.0,0.375,101,132.0
2029,F#4,223.0,0.375,101,132.0
2030,F#5,223.0,0.375,101,132.0
2031,C#5,223.0,0.375,101,132.0
2032,F#4,223.0,0.375,101,132.0
2033,F#3,223.0,0.375,101,132.0
2034,C#4,223.0,0.375,101,132.0
2035,E2,223.0,0.25,111,132.0
2036,B1,223.0,0.25,111,132.0
2037,E-2,223.0,0.25,111,132.0
2038,C#6,223.5,0.375,101,132.0
2039,F#4,223.5,0.375,101,132.0
2040,C#5,223.5,0.375,101,132.0
2041,F#5,223.5,0.375,101,132.0
2042,C#5,223.5,0.375,101,132.0
2043,F#4,223.5,0.375,101,132.0
2044,C#4,223.5,0.375,101,132.0
2045,F#3,223.5,0.375,101,132.0
2046,B1,223.5,0.25,104,132.0
2047,E2,223.5,0.25,104,132.0
2048,C#6,224.0,0.125,101,132.0
2049,F#5,224.0,0.125,101,132.0
2050,C#5,224.0,0.125,101,132.0
2051,F#4,224.0,0.125,101,132.0
2052,C#5,224.0,0.125,101,132.0
2053,F#3,224.0,0.125,101,132.0
2054,C#4,224.0,0.125,101,132.0
2055,F#4,224.0,0.125,101,132.0
2056,E2,224.0,0.25,119,132.0
2057,B1,224.0,0.25,119,132.0
2058,E-2,224.0,0.25,119,132.0
2059,C#6,224.25,0.125,101,132.0
2060,F#5,224.25,0.125,101,132.0
2061,F#4,224.25,0.125,101,132.0
2062,C#5,224.25,0.125,101,132.0
2063,C#5,224.25,0.125,101,132.0
2064,C#4,224.25,0.125,101,132.0
2065,F#3,224.25,0.125,101,132.0
2066,F#4,224.25,0.125,101,132.0
2067,B1,224.25,0.25,104,132.0
2068,E2,224.25,0.25,104,132.0
2069,C#6,224.5,0.125,101,132.0
2070,F#5,224.5,0.125,101,132.0
2071,F#4,224.5,0.125,101,132.0
2072,C#5,224.5,0.125,101,132.0
2073,C#5,224.5,0.125,101,132.0
2074,C#4,224.5,0.125,101,132.0
2075,F#3,224.5,0.125,101,132.0
2076,F#4,224.5,0.125,101,132.0
2077,B1,224.5,0.25,104,132.0
2078,E2,224.5,0.25,104,132.0
2079,C#6,224.75,0.125,101,132.0
2080,F#5,224.75,0.125,101,132.0
2081,F#4,224.75,0.125,101,132.0
2082,C#5,224.75,0.125,101,132.0
2083,C#5,224.75,0.125,101,132.0
2084,C#4,224.75,0.125,101,132.0
2085,F#3,224.75,0.125,101,132.0
2086,F#4,224.75,0.125,101,132.0
2087,B1,224.75,0.25,104,132.0
2088,E2,224.75,0.25,104,132.0
2089,C#6,225.0,0.125,101,132.0
2090,F#5,225.0,0.125,101,132.0
2091,F#4,225.0,0.125,101,132.0
2092,C#5,225.0,0.125,101,132.0
2093,C#5,225.0,0.125,101,132.0
2094,C#4,225.0,0.125,101,132.0
2095,F#3,225.0,0.125,101,132.0
2096,F#4,225.0,0.125,101,132.0
2097,E2,225.0,0.25,119,132.0
2098,B1,225.0,0.25,119,132.0
2099,E-2,225.0,0.25,119,132.0
2100,C#6,225.25,0.125,101,132.0
2101,F#5,225.25,0.125,101,132.0
2102,C#5,225.25,0.125,101,132.0
2103,F#4,225.25,0.125,101,132.0
2104,C#5,225.25,0.125,101,132.0
2105,F#3,225.25,0.125,101,132.0
2106,C#4,225.25,0.125,101,132.0
2107,F#4,225.25,0.125,101,132.0
2108,B1,225.25,0.25,104,132.0
2109,E2,225.25,0.25,104,132.0
2110,C#6,225.5,0.125,101,132.0
2111,F#5,225.5,0.125,101,132.0
2112,C#5,225.5,0.125,101,132.0
2113,F#4,225.5,0.125,101,132.0
2114,C#5,225.5,0.125,101,132.0
2115,F#3,225.5,0.125,101,132.0
2116,C#4,225.5,0.125,101,132.0
2117,F#4,225.5,0.125,101,132.0
2118,B1,225.5,0.25,104,132.0
2119,E2,225.5,0.25,104,132.0
2120,C#6,225.75,0.125,101,132.0
2121,F#5,225.75,0.125,101,132.0
2122,F#4,225.75,0.125,101,132.0
2123,C#5,225.75,0.125,101,132.0
2124,C#5,225.75,0.125,101,132.0
2125,C#4,225.75,0.125,101,132.0
2126,F#3,225.75,0.125,101,132.0
2127,F#4,225.75,0.125,101,132.0
2128,B1,225.75,0.25,104,132.0
2129,E2,225.75,0.25,104,132.0
2130,C#6,226.0,0.125,101,132.0
2131,F#5,226.0,0.125,101,132.0
2132,F#4,226.0,0.125,101,132.0
2133,C#5,226.0,0.125,101,132.0
2134,C#5,226.0,0.125,101,132.0
2135,C#4,226.0,0.125,101,132.0
2136,F#3,226.0,0.125,101,132.0
2137,F#4,226.0,0.125,101,132.0
2138,E2,226.0,0.25,119,132.0
2139,B1,226.0,0.25,119,132.0
2140,E-2,226.0,0.25,119,132.0
2141,C#6,226.25,0.125,101,132.0
2142,F#5,226.25,0.125,101,132.0
2143,F#4,226.25,0.125,101,132.0
2144,C#5,226.25,0.125,101,132.0
2145,C#5,226.25,0.125,101,132.0
2146,C#4,226.25,0.125,101,132.0
2147,F#3,226.25,0.125,101,132.0
2148,F#4,226.25,0.125,101,132.0
2149,B1,226.25,0.25,104,132.0
2150,E2,226.25,0.25,104,132.0
2151,C#6,226.5,0.125,101,132.0
2152,F#5,226.5,0.125,101,132.0
2153,F#4,226.5,0.125,101,132.0
2154,C#5,226.5,0.125,101,132.0
2155,C#5,226.5,0.125,101,132.0
2156,C#4,226.5,0.125,101,132.0
2157,F#3,226.5,0.125,101,132.0
2158,F#4,226.5,0.125,101,132.0
2159,B1,226.5,0.25,104,132.0
2160,E2,226.5,0.25,104,132.0
2161,C#6,226.75,0.125,101,132.0
2162,F#5,226.75,0.125,101,132.0
2163,C#5,226.75,0.125,101,132.0
2164,F#4,226.75,0.125,101,132.0
2165,C#5,226.75,0.125,101,132.0
2166,F#3,226.75,0.125,101,132.0
2167,C#4,226.75,0.125,101,132.0
2168,F#4,226.75,0.125,101,132.0
2169,B1,226.75,0.25,104,132.0
2170,E2,226.75,0.25,104,132.0
2171,C#6,227.0,0.125,101,132.0
2172,F#5,227.0,0.125,101,132.0
2173,F#4,227.0,0.125,101,132.0
2174,C#5,227.0,0.125,101,132.0
2175,C#5,227.0,0.125,101,132.0
2176,C#4,227.0,0.125,101,132.0
2177,F#3,227.0,0.125,101,132.0
2178,F#4,227.0,0.125,101,132.0
2179,E2,227.0,0.25,119,132.0
2180,B1,227.0,0.25,119,132.0
2181,E-2,227.0,0.25,119,132.0
2182,C#6,227.25,0.125,101,132.0
2183,F#5,227.25,0.125,101,132.0
2184,F#4,227.25,0.125,101,132.0
2185,C#5,227.25,0.125,101,132.0
2186,C#5,227.25,0.125,101,132.0
2187,C#4,227.25,0.125,101,132.0
2188,F#3,227.25,0.125,101,132.0
2189,F#4,227.25,0.125,101,132.0
2190,B1,227.25,0.25,104,132.0
2191,E2,227.25,0.25,104,132.0
2192,C#6,227.5,0.125,101,132.0
2193,F#5,227.5,0.125,101,132.0
2194,C#5,227.5,0.125,101,132.0
2195,F#4,227.5,0.125,101,132.0
2196,C#5,227.5,0.125,101,132.0
2197,F#3,227.5,0.125,101,132.0
2198,C#4,227.5,0.125,101,132.0
2199,F#4,227.5,0.125,101,132.0
2200,B1,227.5,0.25,104,132.0
2201,E2,227.5,0.25,104,132.0
2202,C#6,227.75,0.125,101,132.0
2203,F#5,227.75,0.125,101,132.0
2204,C#5,227.75,0.125,101,132.0
2205,F#4,227.75,0.125,101,132.0
2206,C#5,227.75,0.125,101,132.0
2207,F#3,227.75,0.125,101,132.0
2208,C#4,227.75,0.125,101,132.0
2209,F#4,227.75,0.125,101,132.0
2210,B1,227.75,0.25,104,132.0
2211,E2,227.75,0.25,104,132.0
2212,C#6,228.0,1.75,101,132.0
2213,F#4,228.0,1.75,101,132.0
2214,C#5,228.0,1.75,101,132.0
2215,F#5,228.0,1.75,101,132.0
2216,C#5,228.0,1.75,101,132.0
2217,F#4,228.0,1.75,101,132.0
2218,C#4,228.0,1.75,101,132.0
2219,F#3,228.0,1.75,101,132.0
2220,E-5,232.0,4.0,63,132.0
2221,D5,232.0,4.0,63,132.0
2222,C#5,232.0,4.0,63,132.0
2223,C5,232.0,4.0,63,132.0
2224,C4,232.0,4.0,63,132.0
2225,B4,232.0,4.0,63,132.0
2226,B-4,232.0,4.0,63,132.0
2227,A4,232.0,4.0,63,132.0
2228,G#4,232.0,4.0,63,132.0
2229,G4,232.0,4.0,63,132.0
2230,F#4,232.0,4.0,63,132.0
2231,F4,232.0,4.0,63,132.0
2232,E4,232.0,4.0,63,132.0
2233,D4,232.0,4.0,63,132.0
2234,E-4,232.0,4.0,63,132.0
2235,C#4,232.0,4.0,63,132.0
2236,B0,244.0,0.375,127,132.0
2237,B1,244.0,0.75,86,132.0
2238,B3,244.0,0.75,86,132.0
2239,B4,244.0,0.75,86,132.0
2240,B0,244.0,0.75,86,132.0
2241,B5,244.0,0.75,86,132.0
2242,B4,244.0,0.75,86,132.0
2243,B3,244.0,0.75,86,132.0
2244,B2,244.0,0.75,86,132.0
2245,B4,244.0,0.75,86,132.0
2246,B1,244.0,0.75,86,132.0
2247,E-5,244.0,4.0,63,132.0
2248,D5,244.0,4.0,63,132.0
2249,C#5,244.0,4.0,63,132.0
2250,C5,244.0,4.0,63,132.0
2251,C4,244.0,4.0,63,132.0
2252,B4,244.0,4.0,63,132.0
2253,B-4,244.0,4.0,63,132.0
2254,A4,244.0,4.0,63,132.0
2255,G#4,244.0,4.0,63,132.0
2256,G4,244.0,4.0,63,132.0
2257,F#4,244.0,4.0,63,132.0
2258,F4,244.0,4.0,63,132.0
2259,E4,244.0,4.0,63,132.0
2260,D4,244.0,4.0,63,132.0
2261,E-4,244.0,4.0,63,132.0
2262,C#4,244.0,4.0,63,132.0
2263,A3,244.0,4.0,111,132.0
2264,E3,244.0,4.0,111,132.0
2265,C#3,244.0,4.0,111,132.0
2266,F#2,244.0,0.25,75,132.0
2267,B1,244.0,0.25,75,132.0
2268,B-5,244.0,0.25,75,132.0
2269,B-5,244.25,0.25,18,132.0
2270,B0,244.5,0.125,93,132.0
2271,F#2,244.5,0.25,52,132.0
2272,B-5,244.5,0.25,52,132.0
2273,B0,244.75,0.125,75,132.0
2274,B2,244.75,0.25,79,132.0
2275,B4,244.75,0.25,79,132.0
2276,B5,244.75,0.25,79,132.0
2277,B1,244.75,0.25,79,132.0
2278,B6,244.75,0.25,79,132.0
2279,B5,244.75,0.25,79,132.0
2280,B4,244.75,0.25,79,132.0
2281,B3,244.75,0.25,79,132.0
2282,B5,244.75,0.25,79,132.0
2283,B2,244.75,0.25,79,132.0
2284,B-5,244.75,0.25,79,132.0
2285,B0,245.0,0.125,68,132.0
2286,F#2,245.0,0.25,81,132.0
2287,B1,245.0,0.25,81,132.0
2288,E2,245.0,0.25,81,132.0
2289,E1,245.0,0.25,81,132.0
2290,B-5,245.0,0.25,81,132.0
2291,B-5,245.25,0.25,25,132.0
2292,B0,245.25,0.125,75,132.0
2293,B0,245.5,0.125,99,132.0
2294,B2,245.5,0.5,83,132.0
2295,B4,245.5,0.5,83,132.0
2296,B5,245.5,0.5,83,132.0
2297,B1,245.5,0.5,83,132.0
2298,B6,245.5,0.5,83,132.0
2299,B5,245.5,0.5,83,132.0
2300,B4,245.5,0.5,83,132.0
2301,B3,245.5,0.5,83,132.0
2302,B5,245.5,0.5,83,132.0
2303,B2,245.5,0.5,83,132.0
2304,F#2,245.5,0.25,42,132.0
2305,B-5,245.5,0.25,42,132.0
2306,B-5,245.75,0.25,11,132.0
2307,B0,245.75,0.375,127,132.0
2308,F#2,246.0,0.25,69,132.0
2309,B1,246.0,0.25,69,132.0
2310,B-5,246.0,0.25,69,132.0
2311,B0,246.25,0.125,93,132.0
2312,G2,246.25,0.25,77,132.0
2313,G4,246.25,0.25,77,132.0
2314,G5,246.25,0.25,77,132.0
2315,G1,246.25,0.25,77,132.0
2316,G6,246.25,0.25,77,132.0
2317,G5,246.25,0.25,77,132.0
2318,G4,246.25,0.25,77,132.0
2319,G3,246.25,0.25,77,132.0
2320,G5,246.25,0.25,77,132.0
2321,G2,246.25,0.25,77,132.0
2322,B-5,246.25,0.25,77,132.0
2323,B0,246.5,0.125,75,132.0
2324,B2,246.5,0.5,83,132.0
2325,B4,246.5,0.5,83,132.0
2326,B5,246.5,0.5,83,132.0
2327,B1,246.5,0.5,83,132.0
2328,B6,246.5,0.5,83,132.0
2329,B5,246.5,0.5,83,132.0
2330,B4,246.5,0.5,83,132.0
2331,B3,246.5,0.5,83,132.0
2332,B5,246.5,0.5,83,132.0
2333,B2,246.5,0.5,83,132.0
2334,F#2,246.5,0.25,52,132.0
2335,B-5,246.5,0.25,52,132.0
2336,B-5,246.75,0.25,39,132.0
2337,B0,246.75,0.125,59,132.0
2338,B0,247.0,0.125,58,132.0
2339,B2,247.0,0.5,83,132.0
2340,B4,247.0,0.5,83,132.0
2341,B5,247.0,0.5,83,132.0
2342,B1,247.0,0.5,83,132.0
2343,B6,247.0,0.5,83,132.0
2344,B5,247.0,0.5,83,132.0
2345,B4,247.0,0.5,83,132.0
2346,B3,247.0,0.5,83,132.0
2347,B5,247.0,0.5,83,132.0
2348,B2,247.0,0.5,83,132.0
2349,F#2,247.0,0.25,82,132.0
2350,E2,247.0,0.25,82,132.0
2351,B1,247.0,0.25,82,132.0
2352,E1,247.0,0.25,82,132.0
2353,B-5,247.0,0.25,82,132.0
2354,B-5,247.25,0.25,25,132.0
2355,B0,247.25,0.125,72,132.0
2356,B0,247.5,0.125,91,132.0
2357,B2,247.5,0.5,83,132.0
2358,B4,247.5,0.5,83,132.0
2359,B5,247.5,0.5,83,132.0
2360,B1,247.5,0.5,83,132.0
2361,B6,247.5,0.5,83,132.0
2362,B5,247.5,0.5,83,132.0
2363,B4,247.5,0.5,83,132.0
2364,B3,247.5,0.5,83,132.0
2365,B5,247.5,0.5,83,132.0
2366,B2,247.5,0.5,83,132.0
2367,F#2,247.5,0.25,42,132.0
2368,B-5,247.5,0.25,42,132.0
2369,B-5,247.75,0.25,11,132.0
2370,B0,247.75,0.25,127,132.0
2371,B0,252.0,0.25,127,132.0
2372,B1,252.0,0.75,83,132.0
2373,B3,252.0,0.75,83,132.0
2374,B4,252.0,0.75,83,132.0
2375,B0,252.0,0.75,83,132.0
2376,B5,252.0,0.75,83,132.0
2377,B4,252.0,0.75,83,132.0
2378,B3,252.0,0.75,83,132.0
2379,B2,252.0,0.75,83,132.0
2380,B4,252.0,0.75,83,132.0
2381,B1,252.0,0.75,83,132.0
2382,B-5,252.0,0.25,75,132.0
2383,F#2,252.0,0.25,75,132.0
2384,B1,252.0,0.25,75,132.0
2385,E-5,252.0,4.0,63,132.0
2386,D5,252.0,4.0,63,132.0
2387,C#5,252.0,4.0,63,132.0
2388,C5,252.0,4.0,63,132.0
2389,C4,252.0,4.0,63,132.0
2390,B4,252.0,4.0,63,132.0
2391,B-4,252.0,4.0,63,132.0
2392,A4,252.0,4.0,63,132.0
2393,G#4,252.0,4.0,63,132.0
2394,G4,252.0,4.0,63,132.0
2395,F#4,252.0,4.0,63,132.0
2396,F4,252.0,4.0,63,132.0
2397,E4,252.0,4.0,63,132.0
2398,D4,252.0,4.0,63,132.0
2399,E-4,252.0,4.0,63,132.0
2400,C#4,252.0,4.0,63,132.0
2401,A3,252.0,4.0,111,132.0
2402,E3,252.0,4.0,111,132.0
2403,C#3,252.0,4.0,111,132.0
2404,B-5,252.25,0.25,18,132.0
2405,B0,252.25,0.125,79,132.0
2406,B0,252.5,0.125,64,132.0
2407,B-5,252.5,0.25,52,132.0
2408,F#2,252.5,0.25,52,132.0
2409,B0,252.75,0.125,62,132.0
2410,B2,252.75,0.25,79,132.0
2411,B4,252.75,0.25,79,132.0
2412,B5,252.75,0.25,79,132.0
2413,B1,252.75,0.25,79,132.0
2414,B6,252.75,0.25,79,132.0
2415,B5,252.75,0.25,79,132.0
2416,B4,252.75,0.25,79,132.0
2417,B3,252.75,0.25,79,132.0
2418,B5,252.75,0.25,79,132.0
2419,B2,252.75,0.25,79,132.0
2420,B-5,252.75,0.25,79,132.0
2421,B0,253.0,0.125,66,132.0
2422,B-5,253.0,0.25,82,132.0
2423,F#2,253.0,0.25,82,132.0
2424,E2,253.0,0.25,82,132.0
2425,B1,253.0,0.25,82,132.0
2426,E1,253.0,0.25,82,132.0
2427,B-5,253.25,0.25,25,132.0
2428,B0,253.25,0.125,91,132.0
2429,B0,253.5,0.125,98,132.0
2430,B2,253.5,0.5,83,132.0
2431,B4,253.5,0.5,83,132.0
2432,B5,253.5,0.5,83,132.0
2433,B1,253.5,0.5,83,132.0
2434,B6,253.5,0.5,83,132.0
2435,B5,253.5,0.5,83,132.0
2436,B4,253.5,0.5,83,132.0
2437,B3,253.5,0.5,83,132.0
2438,B5,253.5,0.5,83,132.0
2439,B2,253.5,0.5,83,132.0
2440,B-5,253.5,0.25,42,132.0
2441,F#2,253.5,0.25,42,132.0
2442,B-5,253.75,0.25,11,132.0
2443,B0,253.75,0.375,127,132.0
2444,B2,254.0,0.375,83,132.0
2445,B4,254.0,0.375,83,132.0
2446,B5,254.0,0.375,83,132.0
2447,B1,254.0,0.375,83,132.0
2448,B6,254.0,0.375,83,132.0
2449,B5,254.0,0.375,83,132.0
2450,B4,254.0,0.375,83,132.0
2451,B3,254.0,0.375,83,132.0
2452,B5,254.0,0.375,83,132.0
2453,B2,254.0,0.375,83,132.0
2454,B-5,254.0,0.25,70,132.0
2455,F#2,254.0,0.25,70,132.0
2456,B1,254.0,0.25,70,132.0
2457,B-5,254.25,0.25,18,132.0
2458,B0,254.25,0.125,66,132.0
2459,B0,254.5,0.125,74,132.0
2460,B2,254.5,0.5,83,132.0
2461,B4,254.5,0.5,83,132.0
2462,B5,254.5,0.5,83,132.0
2463,B1,254.5,0.5,83,132.0
2464,B6,254.5,0.5,83,132.0
2465,B5,254.5,0.5,83,132.0
2466,B4,254.5,0.5,83,132.0
2467,B3,254.5,0.5,83,132.0
2468,B5,254.5,0.5,83,132.0
2469,B2,254.5,0.5,83,132.0
2470,B-5,254.5,0.25,52,132.0
2471,F#2,254.5,0.25,52,132.0
2472,B-5,254.75,0.25,39,132.0
2473,B0,254.75,0.125,84,132.0
2474,B1,255.0,0.375,127,132.0
2475,B2,255.0,0.5,83,132.0
2476,B4,255.0,0.5,83,132.0
2477,B5,255.0,0.5,83,132.0
2478,B1,255.0,0.5,83,132.0
2479,B6,255.0,0.5,83,132.0
2480,B5,255.0,0.5,83,132.0
2481,B4,255.0,0.5,83,132.0
2482,B3,255.0,0.5,83,132.0
2483,B5,255.0,0.5,83,132.0
2484,B2,255.0,0.5,83,132.0
2485,B-5,255.0,0.25,82,132.0
2486,F#2,255.0,0.25,82,132.0
2487,E2,255.0,0.25,82,132.0
2488,B1,255.0,0.25,82,132.0
2489,E1,255.0,0.25,82,132.0
2490,B-5,255.25,0.25,25,132.0
2491,B0,255.5,0.125,103,132.0
2492,B2,255.5,0.5,83,132.0
2493,B4,255.5,0.5,83,132.0
2494,B5,255.5,0.5,83,132.0
2495,B1,255.5,0.5,83,132.0
2496,B6,255.5,0.5,83,132.0
2497,B5,255.5,0.5,83,132.0
2498,B4,255.5,0.5,83,132.0
2499,B3,255.5,0.5,83,132.0
2500,B5,255.5,0.5,83,132.0
2501,B2,255.5,0.5,83,132.0
2502,B-5,255.5,0.25,42,132.0
2503,F#2,255.5,0.25,42,132.0
2504,B-5,255.75,0.25,69,132.0
2505,B1,255.75,0.25,69,132.0
2506,B0,256.0,0.375,127,132.0
2507,B1,256.0,0.75,86,132.0
2508,B3,256.0,0.75,86,132.0
2509,B4,256.0,0.75,86,132.0
2510,B0,256.0,0.75,86,132.0
2511,B5,256.0,0.75,86,132.0
2512,B4,256.0,0.75,86,132.0
2513,B3,256.0,0.75,86,132.0
2514,B2,256.0,0.75,86,132.0
2515,B4,256.0,0.75,86,132.0
2516,B1,256.0,0.75,86,132.0
2517,F#2,256.0,0.25,75,132.0
2518,B1,256.0,0.25,75,132.0
2519,B-5,256.0,0.25,75,132.0
2520,B-5,256.25,0.25,18,132.0
2521,B0,256.5,0.125,93,132.0
2522,F#2,256.5,0.25,52,132.0
2523,B-5,256.5,0.25,52,132.0
2524,B0,256.75,0.125,75,132.0
2525,B2,256.75,0.25,79,132.0
2526,B4,256.75,0.25,79,132.0
2527,B5,256.75,0.25,79,132.0
2528,B1,256.75,0.25,79,132.0
2529,B6,256.75,0.25,79,132.0
2530,B5,256.75,0.25,79,132.0
2531,B4,256.75,0.25,79,132.0
2532,B3,256.75,0.25,79,132.0
2533,B5,256.75,0.25,79,132.0
2534,B2,256.75,0.25,79,132.0
2535,B-5,256.75,0.25,79,132.0
2536,B0,257.0,0.125,68,132.0
2537,F#2,257.0,0.25,81,132.0
2538,B1,257.0,0.25,81,132.0
2539,E2,257.0,0.25,81,132.0
2540,E1,257.0,0.25,81,132.0
2541,B-5,257.0,0.25,81,132.0
2542,B-5,257.25,0.25,25,132.0
2543,B0,257.25,0.125,75,132.0
2544,B0,257.5,0.125,99,132.0
2545,B2,257.5,0.5,83,132.0
2546,B4,257.5,0.5,83,132.0
2547,B5,257.5,0.5,83,132.0
2548,B1,257.5,0.5,83,132.0
2549,B6,257.5,0.5,83,132.0
2550,B5,257.5,0.5,83,132.0
2551,B4,257.5,0.5,83,132.0
2552,B3,257.5,0.5,83,132.0
2553,B5,257.5,0.5,83,132.0
2554,B2,257.5,0.5,83,132.0
2555,F#2,257.5,0.25,42,132.0
2556,B-5,257.5,0.25,42,132.0
2557,B-5,257.75,0.25,11,132.0
2558,B0,257.75,0.375,127,132.0
2559,F#2,258.0,0.25,69,132.0
2560,B1,258.0,0.25,69,132.0
2561,B-5,258.0,0.25,69,132.0
2562,B0,258.25,0.125,93,132.0
2563,G2,258.25,0.25,77,132.0
2564,G4,258.25,0.25,77,132.0
2565,G5,258.25,0.25,77,132.0
2566,G1,258.25,0.25,77,132.0
2567,G6,258.25,0.25,77,132.0
2568,G5,258.25,0.25,77,132.0
2569,G4,258.25,0.25,77,132.0
2570,G3,258.25,0.25,77,132.0
2571,G5,258.25,0.25,77,132.0
2572,G2,258.25,0.25,77,132.0
2573,B-5,258.25,0.25,77,132.0
2574,B0,258.5,0.125,75,132.0
2575,B2,258.5,0.5,83,132.0
2576,B4,258.5,0.5,83,132.0
2577,B5,258.5,0.5,83,132.0
2578,B1,258.5,0.5,83,132.0
2579,B6,258.5,0.5,83,132.0
2580,B5,258.5,0.5,83,132.0
2581,B4,258.5,0.5,83,132.0
2582,B3,258.5,0.5,83,132.0
2583,B5,258.5,0.5,83,132.0
2584,B2,258.5,0.5,83,132.0
2585,F#2,258.5,0.25,52,132.0
2586,B-5,258.5,0.25,52,132.0
2587,B-5,258.75,0.25,39,132.0
2588,B0,258.75,0.125,59,132.0
2589,B0,259.0,0.125,58,132.0
2590,B2,259.0,0.5,83,132.0
2591,B4,259.0,0.5,83,132.0
2592,B5,259.0,0.5,83,132.0
2593,B1,259.0,0.5,83,132.0
2594,B6,259.0,0.5,83,132.0
2595,B5,259.0,0.5,83,132.0
2596,B4,259.0,0.5,83,132.0
2597,B3,259.0,0.5,83,132.0
2598,B5,259.0,0.5,83,132.0
2599,B2,259.0,0.5,83,132.0
2600,F#2,259.0,0.25,82,132.0
2601,E2,259.0,0.25,82,132.0
2602,B1,259.0,0.25,82,132.0
2603,E1,259.0,0.25,82,132.0
2604,B-5,259.0,0.25,82,132.0
2605,B-5,259.25,0.25,25,132.0
2606,B0,259.25,0.125,72,132.0
2607,B0,259.5,0.125,91,132.0
2608,B2,259.5,0.5,83,132.0
2609,B4,259.5,0.5,83,132.0
2610,B5,259.5,0.5,83,132.0
2611,B1,259.5,0.5,83,132.0
2612,B6,259.5,0.5,83,132.0
2613,B5,259.5,0.5,83,132.0
2614,B4,259.5,0.5,83,132.0
2615,B3,259.5,0.5,83,132.0
2616,B5,259.5,0.5,83,132.0
2617,B2,259.5,0.5,83,132.0
2618,F#2,259.5,0.25,42,132.0
2619,B-5,259.5,0.25,42,132.0
2620,B-5,259.75,0.25,11,132.0
2621,B0,259.75,0.25,127,132.0
2622,B0,260.0,0.25,127,132.0
2623,B1,260.0,0.75,83,132.0
2624,B3,260.0,0.75,83,132.0
2625,B4,260.0,0.75,83,132.0
2626,B0,260.0,0.75,83,132.0
2627,B5,260.0,0.75,83,132.0
2628,B4,260.0,0.75,83,132.0
2629,B3,260.0,0.75,83,132.0
2630,B2,260.0,0.75,83,132.0
2631,B4,260.0,0.75,83,132.0
2632,B1,260.0,0.75,83,132.0
2633,B-5,260.0,0.25,75,132.0
2634,F#2,260.0,0.25,75,132.0
2635,B1,260.0,0.25,75,132.0
2636,E-5,260.0,4.0,63,132.0
2637,D5,260.0,4.0,63,132.0
2638,C#5,260.0,4.0,63,132.0
2639,C5,260.0,4.0,63,132.0
2640,C4,260.0,4.0,63,132.0
2641,B4,260.0,4.0,63,132.0
2642,B-4,260.0,4.0,63,132.0
2643,A4,260.0,4.0,63,132.0
2644,G#4,260.0,4.0,63,132.0
2645,G4,260.0,4.0,63,132.0
2646,F#4,260.0,4.0,63,132.0
2647,F4,260.0,4.0,63,132.0
2648,E4,260.0,4.0,63,132.0
2649,D4,260.0,4.0,63,132.0
2650,E-4,260.0,4.0,63,132.0
2651,C#4,260.0,4.0,63,132.0
2652,B-5,260.25,0.25,18,132.0
2653,B0,260.25,0.125,79,132.0
2654,B0,260.5,0.125,64,132.0
2655,B-5,260.5,0.25,52,132.0
2656,F#2,260.5,0.25,52,132.0
2657,B0,260.75,0.125,62,132.0
2658,B2,260.75,0.25,79,132.0
2659,B4,260.75,0.25,79,132.0
2660,B5,260.75,0.25,79,132.0
2661,B1,260.75,0.25,79,132.0
2662,B6,260.75,0.25,79,132.0
2663,B5,260.75,0.25,79,132.0
2664,B4,260.75,0.25,79,132.0
2665,B3,260.75,0.25,79,132.0
2666,B5,260.75,0.25,79,132.0
2667,B2,260.75,0.25,79,132.0
2668,B-5,260.75,0.25,79,132.0
2669,B0,261.0,0.125,66,132.0
2670,B-5,261.0,0.25,82,132.0
2671,F#2,261.0,0.25,82,132.0
2672,E2,261.0,0.25,82,132.0
2673,B1,261.0,0.25,82,132.0
2674,E1,261.0,0.25,82,132.0
2675,B-5,261.25,0.25,25,132.0
2676,B0,261.25,0.125,91,132.0
2677,B0,261.5,0.125,98,132.0
2678,B2,261.5,0.5,83,132.0
2679,B4,261.5,0.5,83,132.0
2680,B5,261.5,0.5,83,132.0
2681,B1,261.5,0.5,83,132.0
2682,B6,261.5,0.5,83,132.0
2683,B5,261.5,0.5,83,132.0
2684,B4,261.5,0.5,83,132.0
2685,B3,261.5,0.5,83,132.0
2686,B5,261.5,0.5,83,132.0
2687,B2,261.5,0.5,83,132.0
2688,B-5,261.5,0.25,42,132.0
2689,F#2,261.5,0.25,42,132.0
2690,B-5,261.75,0.25,11,132.0
2691,B0,261.75,0.375,127,132.0
2692,B2,262.0,0.375,83,132.0
2693,B4,262.0,0.375,83,132.0
2694,B5,262.0,0.375,83,132.0
2695,B1,262.0,0.375,83,132.0
2696,B6,262.0,0.375,83,132.0
2697,B5,262.0,0.375,83,132.0
2698,B4,262.0,0.375,83,132.0
2699,B3,262.0,0.375,83,132.0
2700,B5,262.0,0.375,83,132.0
2701,B2,262.0,0.375,83,132.0
2702,B-5,262.0,0.25,70,132.0
2703,F#2,262.0,0.25,70,132.0
2704,B1,262.0,0.25,70,132.0
2705,B-5,262.25,0.25,18,132.0
2706,B0,262.25,0.125,66,132.0
2707,B0,262.5,0.125,74,132.0
2708,B2,262.5,0.5,83,132.0
2709,B4,262.5,0.5,83,132.0
2710,B5,262.5,0.5,83,132.0
2711,B1,262.5,0.5,83,132.0
2712,B6,262.5,0.5,83,132.0
2713,B5,262.5,0.5,83,132.0
2714,B4,262.5,0.5,83,132.0
2715,B3,262.5,0.5,83,132.0
2716,B5,262.5,0.5,83,132.0
2717,B2,262.5,0.5,83,132.0
2718,B-5,262.5,0.25,52,132.0
2719,F#2,262.5,0.25,52,132.0
2720,B-5,262.75,0.25,39,132.0
2721,B0,262.75,0.125,84,132.0
2722,B1,263.0,0.375,127,132.0
2723,B2,263.0,0.5,83,132.0
2724,B4,263.0,0.5,83,132.0
2725,B5,263.0,0.5,83,132.0
2726,B1,263.0,0.5,83,132.0
2727,B6,263.0,0.5,83,132.0
2728,B5,263.0,0.5,83,132.0
2729,B4,263.0,0.5,83,132.0
2730,B3,263.0,0.5,83,132.0
2731,B5,263.0,0.5,83,132.0
2732,B2,263.0,0.5,83,132.0
2733,B-5,263.0,0.25,82,132.0
2734,F#2,263.0,0.25,82,132.0
2735,E2,263.0,0.25,82,132.0
2736,B1,263.0,0.25,82,132.0
2737,E1,263.0,0.25,82,132.0
2738,B-5,263.25,0.25,25,132.0
2739,B0,263.5,0.125,103,132.0
2740,B2,263.5,0.5,83,132.0
2741,B4,263.5,0.5,83,132.0
2742,B5,263.5,0.5,83,132.0
2743,B1,263.5,0.5,83,132.0
2744,B6,263.5,0.5,83,132.0
2745,B5,263.5,0.5,83,132.0
2746,B4,263.5,0.5,83,132.0
2747,B3,263.5,0.5,83,132.0
2748,B5,263.5,0.5,83,132.0
2749,B2,263.5,0.5,83,132.0
2750,B-5,263.5,0.25,42,132.0
2751,F#2,263.5,0.25,42,132.0
2752,B-5,263.75,0.25,69,132.0
2753,B1,263.75,0.25,69,132.0
2754,B0,272.0,0.375,127,132.0
2755,B1,272.0,0.75,86,132.0
2756,B3,272.0,0.75,86,132.0
2757,B4,272.0,0.75,86,132.0
2758,B0,272.0,0.75,86,132.0
2759,B5,272.0,0.75,86,132.0
2760,B4,272.0,0.75,86,132.0
2761,B3,272.0,0.75,86,132.0
2762,B2,272.0,0.75,86,132.0
2763,B4,272.0,0.75,86,132.0
2764,B1,272.0,0.75,86,132.0
2765,A3,272.0,4.0,111,132.0
2766,E3,272.0,4.0,111,132.0
2767,C#3,272.0,4.0,111,132.0
2768,F#2,272.0,0.25,75,132.0
2769,B1,272.0,0.25,75,132.0
2770,B-5,272.0,0.25,75,132.0
2771,E-5,272.0,8.0,63,132.0
2772,D5,272.0,8.0,63,132.0
2773,C#5,272.0,8.0,63,132.0
2774,C5,272.0,8.0,63,132.0
2775,C4,272.0,8.0,63,132.0
2776,B4,272.0,8.0,63,132.0
2777,B-4,272.0,8.0,63,132.0
2778,A4,272.0,8.0,63,132.0
2779,G#4,272.0,8.0,63,132.0
2780,G4,272.0,8.0,63,132.0
2781,F#4,272.0,8.0,63,132.0
2782,F4,272.0,8.0,63,132.0
2783,E4,272.0,8.0,63,132.0
2784,D4,272.0,8.0,63,132.0
2785,E-4,272.0,8.0,63,132.0
2786,C#4,272.0,8.0,63,132.0
2787,B-5,272.25,0.25,18,132.0
2788,B0,272.5,0.125,93,132.0
2789,F#2,272.5,0.25,52,132.0
2790,B-5,272.5,0.25,52,132.0
2791,B0,272.75,0.125,75,132.0
2792,B2,272.75,0.25,79,132.0
2793,B4,272.75,0.25,79,132.0
2794,B5,272.75,0.25,79,132.0
2795,B1,272.75,0.25,79,132.0
2796,B6,272.75,0.25,79,132.0
2797,B5,272.75,0.25,79,132.0
2798,B4,272.75,0.25,79,132.0
2799,B3,272.75,0.25,79,132.0
2800,B5,272.75,0.25,79,132.0
2801,B2,272.75,0.25,79,132.0
2802,B-5,272.75,0.25,79,132.0
2803,B0,273.0,0.125,68,132.0
2804,F#2,273.0,0.25,81,132.0
2805,B1,273.0,0.25,81,132.0
2806,E2,273.0,0.25,81,132.0
2807,E1,273.0,0.25,81,132.0
2808,B-5,273.0,0.25,81,132.0
2809,B-5,273.25,0.25,25,132.0
2810,B0,273.25,0.125,75,132.0
2811,B0,273.5,0.125,99,132.0
2812,B2,273.5,0.5,83,132.0
2813,B4,273.5,0.5,83,132.0
2814,B5,273.5,0.5,83,132.0
2815,B1,273.5,0.5,83,132.0
2816,B6,273.5,0.5,83,132.0
2817,B5,273.5,0.5,83,132.0
2818,B4,273.5,0.5,83,132.0
2819,B3,273.5,0.5,83,132.0
2820,B5,273.5,0.5,83,132.0
2821,B2,273.5,0.5,83,132.0
2822,F#2,273.5,0.25,42,132.0
2823,B-5,273.5,0.25,42,132.0
2824,B-5,273.75,0.25,11,132.0
2825,B0,273.75,0.375,127,132.0
2826,F#2,274.0,0.25,69,132.0
2827,B1,274.0,0.25,69,132.0
2828,B-5,274.0,0.25,69,132.0
2829,B0,274.25,0.125,93,132.0
2830,G2,274.25,0.25,77,132.0
2831,G4,274.25,0.25,77,132.0
2832,G5,274.25,0.25,77,132.0
2833,G1,274.25,0.25,77,132.0
2834,G6,274.25,0.25,77,132.0
2835,G5,274.25,0.25,77,132.0
2836,G4,274.25,0.25,77,132.0
2837,G3,274.25,0.25,77,132.0
2838,G5,274.25,0.25,77,132.0
2839,G2,274.25,0.25,77,132.0
2840,B-5,274.25,0.25,77,132.0
2841,B0,274.5,0.125,75,132.0
2842,B2,274.5,0.5,83,132.0
2843,B4,274.5,0.5,83,132.0
2844,B5,274.5,0.5,83,132.0
2845,B1,274.5,0.5,83,132.0
2846,B6,274.5,0.5,83,132.0
2847,B5,274.5,0.5,83,132.0
2848,B4,274.5,0.5,83,132.0
2849,B3,274.5,0.5,83,132.0
2850,B5,274.5,0.5,83,132.0
2851,B2,274.5,0.5,83,132.0
2852,F#2,274.5,0.25,52,132.0
2853,B-5,274.5,0.25,52,132.0
2854,B-5,274.75,0.25,39,132.0
2855,B0,274.75,0.125,59,132.0
2856,B0,275.0,0.125,58,132.0
2857,B2,275.0,0.5,83,132.0
2858,B4,275.0,0.5,83,132.0
2859,B5,275.0,0.5,83,132.0
2860,B1,275.0,0.5,83,132.0
2861,B6,275.0,0.5,83,132.0
2862,B5,275.0,0.5,83,132.0
2863,B4,275.0,0.5,83,132.0
2864,B3,275.0,0.5,83,132.0
2865,B5,275.0,0.5,83,132.0
2866,B2,275.0,0.5,83,132.0
2867,F#2,275.0,0.25,82,132.0
2868,E2,275.0,0.25,82,132.0
2869,B1,275.0,0.25,82,132.0
2870,E1,275.0,0.25,82,132.0
2871,B-5,275.0,0.25,82,132.0
2872,B-5,275.25,0.25,25,132.0
2873,B0,275.25,0.125,72,132.0
2874,B0,275.5,0.125,91,132.0
2875,B2,275.5,0.5,83,132.0
2876,B4,275.5,0.5,83,132.0
2877,B5,275.5,0.5,83,132.0
2878,B1,275.5,0.5,83,132.0
2879,B6,275.5,0.5,83,132.0
2880,B5,275.5,0.5,83,132.0
2881,B4,275.5,0.5,83,132.0
2882,B3,275.5,0.5,83,132.0
2883,B5,275.5,0.5,83,132.0
2884,B2,275.5,0.5,83,132.0
2885,F#2,275.5,0.25,42,132.0
2886,B-5,275.5,0.25,42,132.0
2887,B-5,275.75,0.25,11,132.0
2888,B0,275.75,0.25,127,132.0
2889,B0,280.0,0.25,127,132.0
2890,B1,280.0,0.75,83,132.0
2891,B3,280.0,0.75,83,132.0
2892,B4,280.0,0.75,83,132.0
2893,B0,280.0,0.75,83,132.0
2894,B5,280.0,0.75,83,132.0
2895,B4,280.0,0.75,83,132.0
2896,B3,280.0,0.75,83,132.0
2897,B2,280.0,0.75,83,132.0
2898,B4,280.0,0.75,83,132.0
2899,B1,280.0,0.75,83,132.0
2900,B-5,280.0,0.25,75,132.0
2901,F#2,280.0,0.25,75,132.0
2902,B1,280.0,0.25,75,132.0
2903,A3,280.0,4.0,111,132.0
2904,E3,280.0,4.0,111,132.0
2905,C#3,280.0,4.0,111,132.0
2906,B-5,280.25,0.25,18,132.0
2907,B0,280.25,0.125,79,132.0
2908,B0,280.5,0.125,64,132.0
2909,B-5,280.5,0.25,52,132.0
2910,F#2,280.5,0.25,52,132.0
2911,B0,280.75,0.125,62,132.0
2912,B2,280.75,0.25,79,132.0
2913,B4,280.75,0.25,79,132.0
2914,B5,280.75,0.25,79,132.0
2915,B1,280.75,0.25,79,132.0
2916,B6,280.75,0.25,79,132.0
2917,B5,280.75,0.25,79,132.0
2918,B4,280.75,0.25,79,132.0
2919,B3,280.75,0.25,79,132.0
2920,B5,280.75,0.25,79,132.0
2921,B2,280.75,0.25,79,132.0
2922,B-5,280.75,0.25,79,132.0
2923,B0,281.0,0.125,66,132.0
2924,B-5,281.0,0.25,82,132.0
2925,F#2,281.0,0.25,82,132.0
2926,E2,281.0,0.25,82,132.0
2927,B1,281.0,0.25,82,132.0
2928,E1,281.0,0.25,82,132.0
2929,B-5,281.25,0.25,25,132.0
2930,B0,281.25,0.125,91,132.0
2931,B0,281.5,0.125,98,132.0
2932,B2,281.5,0.5,83,132.0
2933,B4,281.5,0.5,83,132.0
2934,B5,281.5,0.5,83,132.0
2935,B1,281.5,0.5,83,132.0
2936,B6,281.5,0.5,83,132.0
2937,B5,281.5,0.5,83,132.0
2938,B4,281.5,0.5,83,132.0
2939,B3,281.5,0.5,83,132.0
2940,B5,281.5,0.5,83,132.0
2941,B2,281.5,0.5,83,132.0
2942,B-5,281.5,0.25,42,132.0
2943,F#2,281.5,0.25,42,132.0
2944,B-5,281.75,0.25,11,132.0
2945,B0,281.75,0.375,127,132.0
2946,B2,282.0,0.375,83,132.0
2947,B4,282.0,0.375,83,132.0
2948,B5,282.0,0.375,83,132.0
2949,B1,282.0,0.375,83,132.0
2950,B6,282.0,0.375,83,132.0
2951,B5,282.0,0.375,83,132.0
2952,B4,282.0,0.375,83,132.0
2953,B3,282.0,0.375,83,132.0
2954,B5,282.0,0.375,83,132.0
2955,B2,282.0,0.375,83,132.0
2956,B-5,282.0,0.25,70,132.0
2957,F#2,282.0,0.25,70,132.0
2958,B1,282.0,0.25,70,132.0
2959,B-5,282.25,0.25,18,132.0
2960,B0,282.25,0.125,66,132.0
2961,B0,282.5,0.125,74,132.0
2962,B2,282.5,0.5,83,132.0
2963,B4,282.5,0.5,83,132.0
2964,B5,282.5,0.5,83,132.0
2965,B1,282.5,0.5,83,132.0
2966,B6,282.5,0.5,83,132.0
2967,B5,282.5,0.5,83,132.0
2968,B4,282.5,0.5,83,132.0
2969,B3,282.5,0.5,83,132.0
2970,B5,282.5,0.5,83,132.0
2971,B2,282.5,0.5,83,132.0
2972,B-5,282.5,0.25,52,132.0
2973,F#2,282.5,0.25,52,132.0
2974,B-5,282.75,0.25,39,132.0
2975,B0,282.75,0.125,84,132.0
2976,B1,283.0,0.375,127,132.0
2977,B2,283.0,0.5,83,132.0
2978,B4,283.0,0.5,83,132.0
2979,B5,283.0,0.5,83,132.0
2980,B1,283.0,0.5,83,132.0
2981,B6,283.0,0.5,83,132.0
2982,B5,283.0,0.5,83,132.0
2983,B4,283.0,0.5,83,132.0
2984,B3,283.0,0.5,83,132.0
2985,B5,283.0,0.5,83,132.0
2986,B2,283.0,0.5,83,132.0
2987,B-5,283.0,0.25,82,132.0
2988,F#2,283.0,0.25,82,132.0
2989,E2,283.0,0.25,82,132.0
2990,B1,283.0,0.25,82,132.0
2991,E1,283.0,0.25,82,132.0
2992,B-5,283.25,0.25,25,132.0
2993,B0,283.5,0.125,103,132.0
2994,B2,283.5,0.5,83,132.0
2995,B4,283.5,0.5,83,132.0
2996,B5,283.5,0.5,83,132.0
2997,B1,283.5,0.5,83,132.0
2998,B6,283.5,0.5,83,132.0
2999,B5,283.5,0.5,83,132.0
3000,B4,283.5,0.5,83,132.0
3001,B3,283.5,0.5,83,132.0
3002,B5,283.5,0.5,83,132.0
3003,B2,283.5,0.5,83,132.0
3004,B-5,283.5,0.25,42,132.0
3005,F#2,283.5,0.25,42,132.0
3006,B-5,283.75,0.25,69,132.0
3007,B1,283.75,0.25,69,132.0
3008,B0,284.0,0.375,127,132.0
3009,B1,284.0,0.75,86,132.0
3010,B3,284.0,0.75,86,132.0
3011,B4,284.0,0.75,86,132.0
3012,B0,284.0,0.75,86,132.0
3013,B5,284.0,0.75,86,132.0
3014,B4,284.0,0.75,86,132.0
3015,B3,284.0,0.75,86,132.0
3016,B2,284.0,0.75,86,132.0
3017,B4,284.0,0.75,86,132.0
3018,B1,284.0,0.75,86,132.0
3019,F#2,284.0,0.25,75,132.0
3020,B1,284.0,0.25,75,132.0
3021,B-5,284.0,0.25,75,132.0
3022,B-5,284.25,0.25,18,132.0
3023,B0,284.5,0.125,93,132.0
3024,F#2,284.5,0.25,52,132.0
3025,B-5,284.5,0.25,52,132.0
3026,B0,284.75,0.125,75,132.0
3027,B2,284.75,0.25,79,132.0
3028,B4,284.75,0.25,79,132.0
3029,B5,284.75,0.25,79,132.0
3030,B1,284.75,0.25,79,132.0
3031,B6,284.75,0.25,79,132.0
3032,B5,284.75,0.25,79,132.0
3033,B4,284.75,0.25,79,132.0
3034,B3,284.75,0.25,79,132.0
3035,B5,284.75,0.25,79,132.0
3036,B2,284.75,0.25,79,132.0
3037,B-5,284.75,0.25,79,132.0
3038,B0,285.0,0.125,68,132.0
3039,F#2,285.0,0.25,81,132.0
3040,B1,285.0,0.25,81,132.0
3041,E2,285.0,0.25,81,132.0
3042,E1,285.0,0.25,81,132.0
3043,B-5,285.0,0.25,81,132.0
3044,B-5,285.25,0.25,25,132.0
3045,B0,285.25,0.125,75,132.0
3046,B0,285.5,0.125,99,132.0
3047,B2,285.5,0.5,83,132.0
3048,B4,285.5,0.5,83,132.0
3049,B5,285.5,0.5,83,132.0
3050,B1,285.5,0.5,83,132.0
3051,B6,285.5,0.5,83,132.0
3052,B5,285.5,0.5,83,132.0
3053,B4,285.5,0.5,83,132.0
3054,B3,285.5,0.5,83,132.0
3055,B5,285.5,0.5,83,132.0
3056,B2,285.5,0.5,83,132.0
3057,F#2,285.5,0.25,42,132.0
3058,B-5,285.5,0.25,42,132.0
3059,B-5,285.75,0.25,11,132.0
3060,B0,285.75,0.375,127,132.0
3061,F#2,286.0,0.25,69,132.0
3062,B1,286.0,0.25,69,132.0
3063,B-5,286.0,0.25,69,132.0
3064,B0,286.25,0.125,93,132.0
3065,G2,286.25,0.25,77,132.0
3066,G4,286.25,0.25,77,132.0
3067,G5,286.25,0.25,77,132.0
3068,G1,286.25,0.25,77,132.0
3069,G6,286.25,0.25,77,132.0
3070,G5,286.25,0.25,77,132.0
3071,G4,286.25,0.25,77,132.0
3072,G3,286.25,0.25,77,132.0
3073,G5,286.25,0.25,77,132.0
3074,G2,286.25,0.25,77,132.0
3075,B-5,286.25,0.25,77,132.0
3076,B0,286.5,0.125,75,132.0
3077,B2,286.5,0.5,83,132.0
3078,B4,286.5,0.5,83,132.0
3079,B5,286.5,0.5,83,132.0
3080,B1,286.5,0.5,83,132.0
3081,B6,286.5,0.5,83,132.0
3082,B5,286.5,0.5,83,132.0
3083,B4,286.5,0.5,83,132.0
3084,B3,286.5,0.5,83,132.0
3085,B5,286.5,0.5,83,132.0
3086,B2,286.5,0.5,83,132.0
3087,F#2,286.5,0.25,52,132.0
3088,B-5,286.5,0.25,52,132.0
3089,B-5,286.75,0.25,39,132.0
3090,B0,286.75,0.125,59,132.0
3091,B0,287.0,0.125,58,132.0
3092,B2,287.0,0.5,83,132.0
3093,B4,287.0,0.5,83,132.0
3094,B5,287.0,0.5,83,132.0
3095,B1,287.0,0.5,83,132.0
3096,B6,287.0,0.5,83,132.0
3097,B5,287.0,0.5,83,132.0
3098,B4,287.0,0.5,83,132.0
3099,B3,287.0,0.5,83,132.0
3100,B5,287.0,0.5,83,132.0
3101,B2,287.0,0.5,83,132.0
3102,F#2,287.0,0.25,82,132.0
3103,E2,287.0,0.25,82,132.0
3104,B1,287.0,0.25,82,132.0
3105,E1,287.0,0.25,82,132.0
3106,B-5,287.0,0.25,82,132.0
3107,B-5,287.25,0.25,25,132.0
3108,B0,287.25,0.125,72,132.0
3109,B0,287.5,0.125,91,132.0
3110,B2,287.5,0.5,83,132.0
3111,B4,287.5,0.5,83,132.0
3112,B5,287.5,0.5,83,132.0
3113,B1,287.5,0.5,83,132.0
3114,B6,287.5,0.5,83,132.0
3115,B5,287.5,0.5,83,132.0
3116,B4,287.5,0.5,83,132.0
3117,B3,287.5,0.5,83,132.0
3118,B5,287.5,0.5,83,132.0
3119,B2,287.5,0.5,83,132.0
3120,F#2,287.5,0.25,42,132.0
3121,B-5,287.5,0.25,42,132.0
3122,B-5,287.75,0.25,11,132.0
3123,B0,287.75,0.25,127,132.0
3124,B0,288.0,0.25,127,132.0
3125,G4,288.0,0.5,101,132.0
3126,G5,288.0,0.5,101,132.0
3127,B4,288.0,0.5,101,132.0
3128,B5,288.0,0.5,101,132.0
3129,B4,288.0,0.5,101,132.0
3130,G3,288.0,0.5,101,132.0
3131,G4,288.0,0.5,101,132.0
3132,B3,288.0,0.5,101,132.0
3133,B-5,288.0,0.25,75,132.0
3134,F#2,288.0,0.25,75,132.0
3135,B1,288.0,0.25,75,132.0
3136,E-5,288.0,4.0,63,132.0
3137,D5,288.0,4.0,63,132.0
3138,C#5,288.0,4.0,63,132.0
3139,C5,288.0,4.0,63,132.0
3140,C4,288.0,4.0,63,132.0
3141,B4,288.0,4.0,63,132.0
3142,B-4,288.0,4.0,63,132.0
3143,A4,288.0,4.0,63,132.0
3144,G#4,288.0,4.0,63,132.0
3145,G4,288.0,4.0,63,132.0
3146,F#4,288.0,4.0,63,132.0
3147,F4,288.0,4.0,63,132.0
3148,E4,288.0,4.0,63,132.0
3149,D4,288.0,4.0,63,132.0
3150,E-4,288.0,4.0,63,132.0
3151,C#4,288.0,4.0,63,132.0
3152,B-5,288.25,0.25,18,132.0
3153,B-5,288.5,0.25,52,132.0
3154,F#2,288.5,0.25,52,132.0
3155,B-5,288.75,0.25,39,132.0
3156,G4,288.75,0.5,101,132.0
3157,G5,288.75,0.5,101,132.0
3158,B4,288.75,0.5,101,132.0
3159,B5,288.75,0.5,101,132.0
3160,B4,288.75,0.5,101,132.0
3161,B3,288.75,0.5,101,132.0
3162,G4,288.75,0.5,101,132.0
3163,G3,288.75,0.5,101,132.0
3164,B-5,289.0,0.25,82,132.0
3165,F#2,289.0,0.25,82,132.0
3166,E2,289.0,0.25,82,132.0
3167,B1,289.0,0.25,82,132.0
3168,E1,289.0,0.25,82,132.0
3169,B-5,289.25,0.25,25,132.0
3170,B5,289.5,0.5,101,132.0
3171,B4,289.5,0.5,101,132.0
3172,G5,289.5,0.5,101,132.0
3173,G4,289.5,0.5,101,132.0
3174,B4,289.5,0.5,101,132.0
3175,B3,289.5,0.5,101,132.0
3176,G4,289.5,0.5,101,132.0
3177,G3,289.5,0.5,101,132.0
3178,B-5,289.5,0.25,42,132.0
3179,F#2,289.5,0.25,42,132.0
3180,B-5,289.75,0.25,11,132.0
3181,E3,290.0,1.5,127,132.0
3182,F2,290.0,0.25,127,132.0
3183,C4,290.0,2.0,103,132.0
3184,A4,290.0,0.5,101,132.0
3185,A5,290.0,0.5,101,132.0
3186,C#5,290.0,0.5,101,132.0
3187,C#6,290.0,0.5,101,132.0
3188,C#5,290.0,0.5,101,132.0
3189,C#4,290.0,0.5,101,132.0
3190,A4,290.0,0.5,101,132.0
3191,A3,290.0,0.5,101,132.0
3192,C#6,290.75,0.5,101,132.0
3193,C#5,290.75,0.5,101,132.0
3194,A5,290.75,0.5,101,132.0
3195,A4,290.75,0.5,101,132.0
3196,C#5,290.75,0.5,101,132.0
3197,C#4,290.75,0.5,101,132.0
3198,A4,290.75,0.5,101,132.0
3199,A3,290.75,0.5,101,132.0
3200,G#2,290.75,0.25,80,132.0
3201,D2,290.75,0.25,80,132.0
3202,D2,291.0,0.25,80,132.0
3203,G2,291.5,0.25,127,132.0
3204,A4,291.5,0.5,104,132.0
3205,A5,291.5,0.5,104,132.0
3206,C#5,291.5,0.5,104,132.0
3207,C#6,291.5,0.5,104,132.0
3208,C#5,291.5,0.5,104,132.0
3209,C#4,291.5,0.5,104,132.0
3210,A4,291.5,0.5,104,132.0
3211,A3,291.5,0.5,104,132.0
3212,G#3,291.5,0.5,104,132.0
3213,B0,300.0,0.375,127,132.0
3214,C4,300.0,0.25,103,132.0
3215,B1,300.0,0.75,86,132.0
3216,B3,300.0,0.75,86,132.0
3217,B4,300.0,0.75,86,132.0
3218,B0,300.0,0.75,86,132.0
3219,B5,300.0,0.75,86,132.0
3220,B4,300.0,0.75,86,132.0
3221,B3,300.0,0.75,86,132.0
3222,B2,300.0,0.75,86,132.0
3223,B4,300.0,0.75,86,132.0
3224,B1,300.0,0.75,86,132.0
3225,A3,300.0,4.0,111,132.0
3226,E3,300.0,4.0,111,132.0
3227,C#3,300.0,4.0,111,132.0
3228,F#2,300.0,0.25,75,132.0
3229,B1,300.0,0.25,75,132.0
3230,B-5,300.0,0.25,75,132.0
3231,E-5,300.0,8.0,63,132.0
3232,D5,300.0,8.0,63,132.0
3233,C#5,300.0,8.0,63,132.0
3234,C5,300.0,8.0,63,132.0
3235,C4,300.0,8.0,63,132.0
3236,B4,300.0,8.0,63,132.0
3237,B-4,300.0,8.0,63,132.0
3238,A4,300.0,8.0,63,132.0
3239,G#4,300.0,8.0,63,132.0
3240,G4,300.0,8.0,63,132.0
3241,F#4,300.0,8.0,63,132.0
3242,F4,300.0,8.0,63,132.0
3243,E4,300.0,8.0,63,132.0
3244,D4,300.0,8.0,63,132.0
3245,E-4,300.0,8.0,63,132.0
3246,C#4,300.0,8.0,63,132.0
3247,B-5,300.25,0.25,18,132.0
3248,B0,300.5,0.125,93,132.0
3249,F#2,300.5,0.25,52,132.0
3250,B-5,300.5,0.25,52,132.0
3251,B0,300.75,0.125,75,132.0
3252,B2,300.75,0.25,79,132.0
3253,B4,300.75,0.25,79,132.0
3254,B5,300.75,0.25,79,132.0
3255,B1,300.75,0.25,79,132.0
3256,B6,300.75,0.25,79,132.0
3257,B5,300.75,0.25,79,132.0
3258,B4,300.75,0.25,79,132.0
3259,B3,300.75,0.25,79,132.0
3260,B5,300.75,0.25,79,132.0
3261,B2,300.75,0.25,79,132.0
3262,B-5,300.75,0.25,79,132.0
3263,B0,301.0,0.125,68,132.0
3264,F#2,301.0,0.25,81,132.0
3265,B1,301.0,0.25,81,132.0
3266,E2,301.0,0.25,81,132.0
3267,E1,301.0,0.25,81,132.0
3268,B-5,301.0,0.25,81,132.0
3269,B-5,301.25,0.25,25,132.0
3270,B0,301.25,0.125,75,132.0
3271,B0,301.5,0.125,99,132.0
3272,B2,301.5,0.5,83,132.0
3273,B4,301.5,0.5,83,132.0
3274,B5,301.5,0.5,83,132.0
3275,B1,301.5,0.5,83,132.0
3276,B6,301.5,0.5,83,132.0
3277,B5,301.5,0.5,83,132.0
3278,B4,301.5,0.5,83,132.0
3279,B3,301.5,0.5,83,132.0
3280,B5,301.5,0.5,83,132.0
3281,B2,301.5,0.5,83,132.0
3282,F#2,301.5,0.25,42,132.0
3283,B-5,301.5,0.25,42,132.0
3284,B-5,301.75,0.25,11,132.0
3285,B0,301.75,0.375,127,132.0
3286,F#2,302.0,0.25,69,132.0
3287,B1,302.0,0.25,69,132.0
3288,B-5,302.0,0.25,69,132.0
3289,B0,302.25,0.125,93,132.0
3290,G2,302.25,0.25,77,132.0
3291,G4,302.25,0.25,77,132.0
3292,G5,302.25,0.25,77,132.0
3293,G1,302.25,0.25,77,132.0
3294,G6,302.25,0.25,77,132.0
3295,G5,302.25,0.25,77,132.0
3296,G4,302.25,0.25,77,132.0
3297,G3,302.25,0.25,77,132.0
3298,G5,302.25,0.25,77,132.0
3299,G2,302.25,0.25,77,132.0
3300,B-5,302.25,0.25,77,132.0
3301,B0,302.5,0.125,75,132.0
3302,B2,302.5,0.5,83,132.0
3303,B4,302.5,0.5,83,132.0
3304,B5,302.5,0.5,83,132.0
3305,B1,302.5,0.5,83,132.0
3306,B6,302.5,0.5,83,132.0
3307,B5,302.5,0.5,83,132.0
3308,B4,302.5,0.5,83,132.0
3309,B3,302.5,0.5,83,132.0
3310,B5,302.5,0.5,83,132.0
3311,B2,302.5,0.5,83,132.0
3312,F#2,302.5,0.25,52,132.0
3313,B-5,302.5,0.25,52,132.0
3314,B-5,302.75,0.25,39,132.0
3315,B0,302.75,0.125,59,132.0
3316,B0,303.0,0.125,58,132.0
3317,B2,303.0,0.5,83,132.0
3318,B4,303.0,0.5,83,132.0
3319,B5,303.0,0.5,83,132.0
3320,B1,303.0,0.5,83,132.0
3321,B6,303.0,0.5,83,132.0
3322,B5,303.0,0.5,83,132.0
3323,B4,303.0,0.5,83,132.0
3324,B3,303.0,0.5,83,132.0
3325,B5,303.0,0.5,83,132.0
3326,B2,303.0,0.5,83,132.0
3327,F#2,303.0,0.25,82,132.0
3328,E2,303.0,0.25,82,132.0
3329,B1,303.0,0.25,82,132.0
3330,E1,303.0,0.25,82,132.0
3331,B-5,303.0,0.25,82,132.0
3332,B-5,303.25,0.25,25,132.0
3333,B0,303.25,0.125,72,132.0
3334,B0,303.5,0.125,91,132.0
3335,B2,303.5,0.5,83,132.0
3336,B4,303.5,0.5,83,132.0
3337,B5,303.5,0.5,83,132.0
3338,B1,303.5,0.5,83,132.0
3339,B6,303.5,0.5,83,132.0
3340,B5,303.5,0.5,83,132.0
3341,B4,303.5,0.5,83,132.0
3342,B3,303.5,0.5,83,132.0
3343,B5,303.5,0.5,83,132.0
3344,B2,303.5,0.5,83,132.0
3345,F#2,303.5,0.25,42,132.0
3346,B-5,303.5,0.25,42,132.0
3347,B-5,303.75,0.25,11,132.0
3348,B0,303.75,0.25,127,132.0
3349,B0,308.0,0.25,127,132.0
3350,B1,308.0,0.75,83,132.0
3351,B3,308.0,0.75,83,132.0
3352,B4,308.0,0.75,83,132.0
3353,B0,308.0,0.75,83,132.0
3354,B5,308.0,0.75,83,132.0
3355,B4,308.0,0.75,83,132.0
3356,B3,308.0,0.75,83,132.0
3357,B2,308.0,0.75,83,132.0
3358,B4,308.0,0.75,83,132.0
3359,B1,308.0,0.75,83,132.0
3360,B-5,308.0,0.25,75,132.0
3361,F#2,308.0,0.25,75,132.0
3362,B1,308.0,0.25,75,132.0
3363,A3,308.0,4.0,111,132.0
3364,E3,308.0,4.0,111,132.0
3365,C#3,308.0,4.0,111,132.0
3366,B-5,308.25,0.25,18,132.0
3367,B0,308.25,0.125,79,132.0
3368,B0,308.5,0.125,64,132.0
3369,B-5,308.5,0.25,52,132.0
3370,F#2,308.5,0.25,52,132.0
3371,B0,308.75,0.125,62,132.0
3372,B2,308.75,0.25,79,132.0
3373,B4,308.75,0.25,79,132.0
3374,B5,308.75,0.25,79,132.0
3375,B1,308.75,0.25,79,132.0
3376,B6,308.75,0.25,79,132.0
3377,B5,308.75,0.25,79,132.0
3378,B4,308.75,0.25,79,132.0
3379,B3,308.75,0.25,79,132.0
3380,B5,308.75,0.25,79,132.0
3381,B2,308.75,0.25,79,132.0
3382,B-5,308.75,0.25,79,132.0
3383,B0,309.0,0.125,66,132.0
3384,B-5,309.0,0.25,82,132.0
3385,F#2,309.0,0.25,82,132.0
3386,E2,309.0,0.25,82,132.0
3387,B1,309.0,0.25,82,132.0
3388,E1,309.0,0.25,82,132.0
3389,B-5,309.25,0.25,25,132.0
3390,B0,309.25,0.125,91,132.0
3391,B0,309.5,0.125,98,132.0
3392,B2,309.5,0.5,83,132.0
3393,B4,309.5,0.5,83,132.0
3394,B5,309.5,0.5,83,132.0
3395,B1,309.5,0.5,83,132.0
3396,B6,309.5,0.5,83,132.0
3397,B5,309.5,0.5,83,132.0
3398,B4,309.5,0.5,83,132.0
3399,B3,309.5,0.5,83,132.0
3400,B5,309.5,0.5,83,132.0
3401,B2,309.5,0.5,83,132.0
3402,B-5,309.5,0.25,42,132.0
3403,F#2,309.5,0.25,42,132.0
3404,B-5,309.75,0.25,11,132.0
3405,B0,309.75,0.375,127,132.0
3406,B2,310.0,0.375,83,132.0
3407,B4,310.0,0.375,83,132.0
3408,B5,310.0,0.375,83,132.0
3409,B1,310.0,0.375,83,132.0
3410,B6,310.0,0.375,83,132.0
3411,B5,310.0,0.375,83,132.0
3412,B4,310.0,0.375,83,132.0
3413,B3,310.0,0.375,83,132.0
3414,B5,310.0,0.375,83,132.0
3415,B2,310.0,0.375,83,132.0
3416,B-5,310.0,0.25,70,132.0
3417,F#2,310.0,0.25,70,132.0
3418,B1,310.0,0.25,70,132.0
3419,B-5,310.25,0.25,18,132.0
3420,B0,310.25,0.125,66,132.0
3421,B0,310.5,0.125,74,132.0
3422,B2,310.5,0.5,83,132.0
3423,B4,310.5,0.5,83,132.0
3424,B5,310.5,0.5,83,132.0
3425,B1,310.5,0.5,83,132.0
3426,B6,310.5,0.5,83,132.0
3427,B5,310.5,0.5,83,132.0
3428,B4,310.5,0.5,83,132.0
3429,B3,310.5,0.5,83,132.0
3430,B5,310.5,0.5,83,132.0
3431,B2,310.5,0.5,83,132.0
3432,B-5,310.5,0.25,52,132.0
3433,F#2,310.5,0.25,52,132.0
3434,B-5,310.75,0.25,39,132.0
3435,B0,310.75,0.125,84,132.0
3436,B1,311.0,0.375,127,132.0
3437,B2,311.0,0.5,83,132.0
3438,B4,311.0,0.5,83,132.0
3439,B5,311.0,0.5,83,132.0
3440,B1,311.0,0.5,83,132.0
3441,B6,311.0,0.5,83,132.0
3442,B5,311.0,0.5,83,132.0
3443,B4,311.0,0.5,83,132.0
3444,B3,311.0,0.5,83,132.0
3445,B5,311.0,0.5,83,132.0
3446,B2,311.0,0.5,83,132.0
3447,B-5,311.0,0.25,82,132.0
3448,F#2,311.0,0.25,82,132.0
3449,E2,311.0,0.25,82,132.0
3450,B1,311.0,0.25,82,132.0
3451,E1,311.0,0.25,82,132.0
3452,B-5,311.25,0.25,25,132.0
3453,B0,311.5,0.125,103,132.0
3454,B2,311.5,0.5,83,132.0
3455,B4,311.5,0.5,83,132.0
3456,B5,311.5,0.5,83,132.0
3457,B1,311.5,0.5,83,132.0
3458,B6,311.5,0.5,83,132.0
3459,B5,311.5,0.5,83,132.0
3460,B4,311.5,0.5,83,132.0
3461,B3,311.5,0.5,83,132.0
3462,B5,311.5,0.5,83,132.0
3463,B2,311.5,0.5,83,132.0
3464,B-5,311.5,0.25,42,132.0
3465,F#2,311.5,0.25,42,132.0
3466,B-5,311.75,0.25,69,132.0
3467,B1,311.75,0.25,69,132.0
3468,B0,312.0,0.375,127,132.0
3469,B1,312.0,0.75,86,132.0
3470,B3,312.0,0.75,86,132.0
3471,B4,312.0,0.75,86,132.0
3472,B0,312.0,0.75,86,132.0
3473,B5,312.0,0.75,86,132.0
3474,B4,312.0,0.75,86,132.0
3475,B3,312.0,0.75,86,132.0
3476,B2,312.0,0.75,86,132.0
3477,B4,312.0,0.75,86,132.0
3478,B1,312.0,0.75,86,132.0
3479,F#2,312.0,0.25,75,132.0
3480,B1,312.0,0.25,75,132.0
3481,B-5,312.0,0.25,75,132.0
3482,B-5,312.25,0.25,18,132.0
3483,B0,312.5,0.125,93,132.0
3484,F#2,312.5,0.25,52,132.0
3485,B-5,312.5,0.25,52,132.0
3486,B0,312.75,0.125,75,132.0
3487,B2,312.75,0.25,79,132.0
3488,B4,312.75,0.25,79,132.0
3489,B5,312.75,0.25,79,132.0
3490,B1,312.75,0.25,79,132.0
3491,B6,312.75,0.25,79,132.0
3492,B5,312.75,0.25,79,132.0
3493,B4,312.75,0.25,79,132.0
3494,B3,312.75,0.25,79,132.0
3495,B5,312.75,0.25,79,132.0
3496,B2,312.75,0.25,79,132.0
3497,B-5,312.75,0.25,79,132.0
3498,B0,313.0,0.125,68,132.0
3499,F#2,313.0,0.25,81,132.0
3500,B1,313.0,0.25,81,132.0
3501,E2,313.0,0.25,81,132.0
3502,E1,313.0,0.25,81,132.0
3503,B-5,313.0,0.25,81,132.0
3504,B-5,313.25,0.25,25,132.0
3505,B0,313.25,0.125,75,132.0
3506,B0,313.5,0.125,99,132.0
3507,B2,313.5,0.5,83,132.0
3508,B4,313.5,0.5,83,132.0
3509,B5,313.5,0.5,83,132.0
3510,B1,313.5,0.5,83,132.0
3511,B6,313.5,0.5,83,132.0
3512,B5,313.5,0.5,83,132.0
3513,B4,313.5,0.5,83,132.0
3514,B3,313.5,0.5,83,132.0
3515,B5,313.5,0.5,83,132.0
3516,B2,313.5,0.5,83,132.0
3517,F#2,313.5,0.25,42,132.0
3518,B-5,313.5,0.25,42,132.0
3519,B-5,313.75,0.25,11,132.0
3520,B0,313.75,0.375,127,132.0
3521,F#2,314.0,0.25,69,132.0
3522,B1,314.0,0.25,69,132.0
3523,B-5,314.0,0.25,69,132.0
3524,B0,314.25,0.125,93,132.0
3525,G2,314.25,0.25,77,132.0
3526,G4,314.25,0.25,77,132.0
3527,G5,314.25,0.25,77,132.0
3528,G1,314.25,0.25,77,132.0
3529,G6,314.25,0.25,77,132.0
3530,G5,314.25,0.25,77,132.0
3531,G4,314.25,0.25,77,132.0
3532,G3,314.25,0.25,77,132.0
3533,G5,314.25,0.25,77,132.0
3534,G2,314.25,0.25,77,132.0
3535,B-5,314.25,0.25,77,132.0
3536,B0,314.5,0.125,75,132.0
3537,B2,314.5,0.5,83,132.0
3538,B4,314.5,0.5,83,132.0
3539,B5,314.5,0.5,83,132.0
3540,B1,314.5,0.5,83,132.0
3541,B6,314.5,0.5,83,132.0
3542,B5,314.5,0.5,83,132.0
3543,B4,314.5,0.5,83,132.0
3544,B3,314.5,0.5,83,132.0
3545,B5,314.5,0.5,83,132.0
3546,B2,314.5,0.5,83,132.0
3547,F#2,314.5,0.25,52,132.0
3548,B-5,314.5,0.25,52,132.0
3549,B-5,314.75,0.25,39,132.0
3550,B0,314.75,0.125,59,132.0
3551,B0,315.0,0.125,58,132.0
3552,B2,315.0,0.5,83,132.0
3553,B4,315.0,0.5,83,132.0
3554,B5,315.0,0.5,83,132.0
3555,B1,315.0,0.5,83,132.0
3556,B6,315.0,0.5,83,132.0
3557,B5,315.0,0.5,83,132.0
3558,B4,315.0,0.5,83,132.0
3559,B3,315.0,0.5,83,132.0
3560,B5,315.0,0.5,83,132.0
3561,B2,315.0,0.5,83,132.0
3562,F#2,315.0,0.25,82,132.0
3563,E2,315.0,0.25,82,132.0
3564,B1,315.0,0.25,82,132.0
3565,E1,315.0,0.25,82,132.0
3566,B-5,315.0,0.25,82,132.0
3567,B-5,315.25,0.25,25,132.0
3568,B0,315.25,0.125,72,132.0
3569,B0,315.5,0.125,91,132.0
3570,B2,315.5,0.5,83,132.0
3571,B4,315.5,0.5,83,132.0
3572,B5,315.5,0.5,83,132.0
3573,B1,315.5,0.5,83,132.0
3574,B6,315.5,0.5,83,132.0
3575,B5,315.5,0.5,83,132.0
3576,B4,315.5,0.5,83,132.0
3577,B3,315.5,0.5,83,132.0
3578,B5,315.5,0.5,83,132.0
3579,B2,315.5,0.5,83,132.0
3580,F#2,315.5,0.25,42,132.0
3581,B-5,315.5,0.25,42,132.0
3582,B-5,315.75,0.25,11,132.0
3583,B0,315.75,0.25,127,132.0
3584,B0,316.0,0.25,127,132.0
3585,B1,316.0,0.75,83,132.0
3586,B3,316.0,0.75,83,132.0
3587,B4,316.0,0.75,83,132.0
3588,B0,316.0,0.75,83,132.0
3589,B5,316.0,0.75,83,132.0
3590,B4,316.0,0.75,83,132.0
3591,B3,316.0,0.75,83,132.0
3592,B2,316.0,0.75,83,132.0
3593,B4,316.0,0.75,83,132.0
3594,B1,316.0,0.75,83,132.0
3595,B-5,316.0,0.25,75,132.0
3596,F#2,316.0,0.25,75,132.0
3597,B1,316.0,0.25,75,132.0
3598,E-5,316.0,4.0,63,132.0
3599,D5,316.0,4.0,63,132.0
3600,C#5,316.0,4.0,63,132.0
3601,C5,316.0,4.0,63,132.0
3602,C4,316.0,4.0,63,132.0
3603,B4,316.0,4.0,63,132.0
3604,B-4,316.0,4.0,63,132.0
3605,A4,316.0,4.0,63,132.0
3606,G#4,316.0,4.0,63,132.0
3607,G4,316.0,4.0,63,132.0
3608,F#4,316.0,4.0,63,132.0
3609,F4,316.0,4.0,63,132.0
3610,E4,316.0,4.0,63,132.0
3611,D4,316.0,4.0,63,132.0
3612,E-4,316.0,4.0,63,132.0
3613,C#4,316.0,4.0,63,132.0
3614,B-5,316.25,0.25,18,132.0
3615,B0,316.25,0.125,79,132.0
3616,B0,316.5,0.125,64,132.0
3617,B-5,316.5,0.25,52,132.0
3618,F#2,316.5,0.25,52,132.0
3619,B0,316.75,0.125,62,132.0
3620,B2,316.75,0.25,79,132.0
3621,B4,316.75,0.25,79,132.0
3622,B5,316.75,0.25,79,132.0
3623,B1,316.75,0.25,79,132.0
3624,B6,316.75,0.25,79,132.0
3625,B5,316.75,0.25,79,132.0
3626,B4,316.75,0.25,79,132.0
3627,B3,316.75,0.25,79,132.0
3628,B5,316.75,0.25,79,132.0
3629,B2,316.75,0.25,79,132.0
3630,B-5,316.75,0.25,79,132.0
3631,B0,317.0,0.125,66,132.0
3632,B-5,317.0,0.25,82,132.0
3633,F#2,317.0,0.25,82,132.0
3634,E2,317.0,0.25,82,132.0
3635,B1,317.0,0.25,82,132.0
3636,E1,317.0,0.25,82,132.0
3637,B-5,317.25,0.25,25,132.0
3638,B0,317.25,0.125,91,132.0
3639,B0,317.5,0.125,98,132.0
3640,B2,317.5,0.5,83,132.0
3641,B4,317.5,0.5,83,132.0
3642,B5,317.5,0.5,83,132.0
3643,B1,317.5,0.5,83,132.0
3644,B6,317.5,0.5,83,132.0
3645,B5,317.5,0.5,83,132.0
3646,B4,317.5,0.5,83,132.0
3647,B3,317.5,0.5,83,132.0
3648,B5,317.5,0.5,83,132.0
3649,B2,317.5,0.5,83,132.0
3650,B-5,317.5,0.25,42,132.0
3651,F#2,317.5,0.25,42,132.0
3652,B-5,317.75,0.25,11,132.0
3653,B0,317.75,0.375,127,132.0
3654,B2,318.0,0.375,83,132.0
3655,B4,318.0,0.375,83,132.0
3656,B5,318.0,0.375,83,132.0
3657,B1,318.0,0.375,83,132.0
3658,B6,318.0,0.375,83,132.0
3659,B5,318.0,0.375,83,132.0
3660,B4,318.0,0.375,83,132.0
3661,B3,318.0,0.375,83,132.0
3662,B5,318.0,0.375,83,132.0
3663,B2,318.0,0.375,83,132.0
3664,B-5,318.0,0.25,70,132.0
3665,F#2,318.0,0.25,70,132.0
3666,B1,318.0,0.25,70,132.0
3667,B-5,318.25,0.25,18,132.0
3668,B0,318.25,0.125,66,132.0
3669,B0,318.5,0.125,74,132.0
3670,B2,318.5,0.5,83,132.0
3671,B4,318.5,0.5,83,132.0
3672,B5,318.5,0.5,83,132.0
3673,B1,318.5,0.5,83,132.0
3674,B6,318.5,0.5,83,132.0
3675,B5,318.5,0.5,83,132.0
3676,B4,318.5,0.5,83,132.0
3677,B3,318.5,0.5,83,132.0
3678,B5,318.5,0.5,83,132.0
3679,B2,318.5,0.5,83,132.0
3680,B-5,318.5,0.25,52,132.0
3681,F#2,318.5,0.25,52,132.0
3682,B-5,318.75,0.25,39,132.0
3683,B0,318.75,0.125,84,132.0
3684,B1,319.0,0.375,127,132.0
3685,B2,319.0,0.5,83,132.0
3686,B4,319.0,0.5,83,132.0
3687,B5,319.0,0.5,83,132.0
3688,B1,319.0,0.5,83,132.0
3689,B6,319.0,0.5,83,132.0
3690,B5,319.0,0.5,83,132.0
3691,B4,319.0,0.5,83,132.0
3692,B3,319.0,0.5,83,132.0
3693,B5,319.0,0.5,83,132.0
3694,B2,319.0,0.5,83,132.0
3695,B-5,319.0,0.25,82,132.0
3696,F#2,319.0,0.25,82,132.0
3697,E2,319.0,0.25,82,132.0
3698,B1,319.0,0.25,82,132.0
3699,E1,319.0,0.25,82,132.0
3700,B-5,319.25,0.25,25,132.0
3701,B0,319.5,0.125,103,132.0
3702,B2,319.5,0.5,83,132.0
3703,B4,319.5,0.5,83,132.0
3704,B5,319.5,0.5,83,132.0
3705,B1,319.5,0.5,83,132.0
3706,B6,319.5,0.5,83,132.0
3707,B5,319.5,0.5,83,132.0
3708,B4,319.5,0.5,83,132.0
3709,B3,319.5,0.5,83,132.0
3710,B5,319.5,0.5,83,132.0
3711,B2,319.5,0.5,83,132.0
3712,B-5,319.5,0.25,42,132.0
3713,F#2,319.5,0.25,42,132.0
3714,B-5,319.75,0.25,69,132.0
3715,B1,319.75,0.25,69,132.0
3716,B0,328.0,0.375,127,132.0
3717,B1,328.0,0.75,86,132.0
3718,B3,328.0,0.75,86,132.0
3719,B4,328.0,0.75,86,132.0
3720,B0,328.0,0.75,86,132.0
3721,B5,328.0,0.75,86,132.0
3722,B4,328.0,0.75,86,132.0
3723,B3,328.0,0.75,86,132.0
3724,B2,328.0,0.75,86,132.0
3725,B4,328.0,0.75,86,132.0
3726,B1,328.0,0.75,86,132.0
3727,A3,328.0,4.0,111,132.0
3728,E3,328.0,4.0,111,132.0
3729,C#3,328.0,4.0,111,132.0
3730,F#2,328.0,0.25,75,132.0
3731,B1,328.0,0.25,75,132.0
3732,B-5,328.0,0.25,75,132.0
3733,E-5,328.0,8.0,63,132.0
3734,D5,328.0,8.0,63,132.0
3735,C#5,328.0,8.0,63,132.0
3736,C5,328.0,8.0,63,132.0
3737,C4,328.0,8.0,63,132.0
3738,B4,328.0,8.0,63,132.0
3739,B-4,328.0,8.0,63,132.0
3740,A4,328.0,8.0,63,132.0
3741,G#4,328.0,8.0,63,132.0
3742,G4,328.0,8.0,63,132.0
3743,F#4,328.0,8.0,63,132.0
3744,F4,328.0,8.0,63,132.0
3745,E4,328.0,8.0,63,132.0
3746,D4,328.0,8.0,63,132.0
3747,E-4,328.0,8.0,63,132.0
3748,C#4,328.0,8.0,63,132.0
3749,B-5,328.25,0.25,18,132.0
3750,B0,328.5,0.125,93,132.0
3751,F#2,328.5,0.25,52,132.0
3752,B-5,328.5,0.25,52,132.0
3753,B0,328.75,0.125,75,132.0
3754,B2,328.75,0.25,79,132.0
3755,B4,328.75,0.25,79,132.0
3756,B5,328.75,0.25,79,132.0
3757,B1,328.75,0.25,79,132.0
3758,B6,328.75,0.25,79,132.0
3759,B5,328.75,0.25,79,132.0
3760,B4,328.75,0.25,79,132.0
3761,B3,328.75,0.25,79,132.0
3762,B5,328.75,0.25,79,132.0
3763,B2,328.75,0.25,79,132.0
3764,B-5,328.75,0.25,79,132.0
3765,B0,329.0,0.125,68,132.0
3766,F#2,329.0,0.25,81,132.0
3767,B1,329.0,0.25,81,132.0
3768,E2,329.0,0.25,81,132.0
3769,E1,329.0,0.25,81,132.0
3770,B-5,329.0,0.25,81,132.0
3771,B-5,329.25,0.25,25,132.0
3772,B0,329.25,0.125,75,132.0
3773,B0,329.5,0.125,99,132.0
3774,B2,329.5,0.5,83,132.0
3775,B4,329.5,0.5,83,132.0
3776,B5,329.5,0.5,83,132.0
3777,B1,329.5,0.5,83,132.0
3778,B6,329.5,0.5,83,132.0
3779,B5,329.5,0.5,83,132.0
3780,B4,329.5,0.5,83,132.0
3781,B3,329.5,0.5,83,132.0
3782,B5,329.5,0.5,83,132.0
3783,B2,329.5,0.5,83,132.0
3784,F#2,329.5,0.25,42,132.0
3785,B-5,329.5,0.25,42,132.0
3786,B-5,329.75,0.25,11,132.0
3787,B0,329.75,0.375,127,132.0
3788,F#2,330.0,0.25,69,132.0
3789,B1,330.0,0.25,69,132.0
3790,B-5,330.0,0.25,69,132.0
3791,B0,330.25,0.125,93,132.0
3792,G2,330.25,0.25,77,132.0
3793,G4,330.25,0.25,77,132.0
3794,G5,330.25,0.25,77,132.0
3795,G1,330.25,0.25,77,132.0
3796,G6,330.25,0.25,77,132.0
3797,G5,330.25,0.25,77,132.0
3798,G4,330.25,0.25,77,132.0
3799,G3,330.25,0.25,77,132.0
3800,G5,330.25,0.25,77,132.0
3801,G2,330.25,0.25,77,132.0
3802,B-5,330.25,0.25,77,132.0
3803,B0,330.5,0.125,75,132.0
3804,B2,330.5,0.5,83,132.0
3805,B4,330.5,0.5,83,132.0
3806,B5,330.5,0.5,83,132.0
3807,B1,330.5,0.5,83,132.0
3808,B6,330.5,0.5,83,132.0
3809,B5,330.5,0.5,83,132.0
3810,B4,330.5,0.5,83,132.0
3811,B3,330.5,0.5,83,132.0
3812,B5,330.5,0.5,83,132.0
3813,B2,330.5,0.5,83,132.0
3814,F#2,330.5,0.25,52,132.0
3815,B-5,330.5,0.25,52,132.0
3816,B-5,330.75,0.25,39,132.0
3817,B0,330.75,0.125,59,132.0
3818,B0,331.0,0.125,58,132.0
3819,B2,331.0,0.5,83,132.0
3820,B4,331.0,0.5,83,132.0
3821,B5,331.0,0.5,83,132.0
3822,B1,331.0,0.5,83,132.0
3823,B6,331.0,0.5,83,132.0
3824,B5,331.0,0.5,83,132.0
3825,B4,331.0,0.5,83,132.0
3826,B3,331.0,0.5,83,132.0
3827,B5,331.0,0.5,83,132.0
3828,B2,331.0,0.5,83,132.0
3829,F#2,331.0,0.25,82,132.0
3830,E2,331.0,0.25,82,132.0
3831,B1,331.0,0.25,82,132.0
3832,E1,331.0,0.25,82,132.0
3833,B-5,331.0,0.25,82,132.0
3834,B-5,331.25,0.25,25,132.0
3835,B0,331.25,0.125,72,132.0
3836,B0,331.5,0.125,91,132.0
3837,B2,331.5,0.5,83,132.0
3838,B4,331.5,0.5,83,132.0
3839,B5,331.5,0.5,83,132.0
3840,B1,331.5,0.5,83,132.0
3841,B6,331.5,0.5,83,132.0
3842,B5,331.5,0.5,83,132.0
3843,B4,331.5,0.5,83,132.0
3844,B3,331.5,0.5,83,132.0
3845,B5,331.5,0.5,83,132.0
3846,B2,331.5,0.5,83,132.0
3847,F#2,331.5,0.25,42,132.0
3848,B-5,331.5,0.25,42,132.0
3849,B-5,331.75,0.25,11,132.0
3850,B0,331.75,0.25,127,132.0
3851,B0,336.0,0.25,127,132.0
3852,B1,336.0,0.75,83,132.0
3853,B3,336.0,0.75,83,132.0
3854,B4,336.0,0.75,83,132.0
3855,B0,336.0,0.75,83,132.0
3856,B5,336.0,0.75,83,132.0
3857,B4,336.0,0.75,83,132.0
3858,B3,336.0,0.75,83,132.0
3859,B2,336.0,0.75,83,132.0
3860,B4,336.0,0.75,83,132.0
3861,B1,336.0,0.75,83,132.0
3862,B-5,336.0,0.25,75,132.0
3863,F#2,336.0,0.25,75,132.0
3864,B1,336.0,0.25,75,132.0
3865,A3,336.0,4.0,111,132.0
3866,E3,336.0,4.0,111,132.0
3867,C#3,336.0,4.0,111,132.0
3868,B-5,336.25,0.25,18,132.0
3869,B0,336.25,0.125,79,132.0
3870,B0,336.5,0.125,64,132.0
3871,B-5,336.5,0.25,52,132.0
3872,F#2,336.5,0.25,52,132.0
3873,B0,336.75,0.125,62,132.0
3874,B2,336.75,0.25,79,132.0
3875,B4,336.75,0.25,79,132.0
3876,B5,336.75,0.25,79,132.0
3877,B1,336.75,0.25,79,132.0
3878,B6,336.75,0.25,79,132.0
3879,B5,336.75,0.25,79,132.0
3880,B4,336.75,0.25,79,132.0
3881,B3,336.75,0.25,79,132.0
3882,B5,336.75,0.25,79,132.0
3883,B2,336.75,0.25,79,132.0
3884,B-5,336.75,0.25,79,132.0
3885,B0,337.0,0.125,66,132.0
3886,B-5,337.0,0.25,82,132.0
3887,F#2,337.0,0.25,82,132.0
3888,E2,337.0,0.25,82,132.0
3889,B1,337.0,0.25,82,132.0
3890,E1,337.0,0.25,82,132.0
3891,B-5,337.25,0.25,25,132.0
3892,B0,337.25,0.125,91,132.0
3893,B0,337.5,0.125,98,132.0
3894,B2,337.5,0.5,83,132.0
3895,B4,337.5,0.5,83,132.0
3896,B5,337.5,0.5,83,132.0
3897,B1,337.5,0.5,83,132.0
3898,B6,337.5,0.5,83,132.0
3899,B5,337.5,0.5,83,132.0
3900,B4,337.5,0.5,83,132.0
3901,B3,337.5,0.5,83,132.0
3902,B5,337.5,0.5,83,132.0
3903,B2,337.5,0.5,83,132.0
3904,B-5,337.5,0.25,42,132.0
3905,F#2,337.5,0.25,42,132.0
3906,B-5,337.75,0.25,11,132.0
3907,B0,337.75,0.375,127,132.0
3908,B2,338.0,0.375,83,132.0
3909,B4,338.0,0.375,83,132.0
3910,B5,338.0,0.375,83,132.0
3911,B1,338.0,0.375,83,132.0
3912,B6,338.0,0.375,83,132.0
3913,B5,338.0,0.375,83,132.0
3914,B4,338.0,0.375,83,132.0
3915,B3,338.0,0.375,83,132.0
3916,B5,338.0,0.375,83,132.0
3917,B2,338.0,0.375,83,132.0
3918,B-5,338.0,0.25,70,132.0
3919,F#2,338.0,0.25,70,132.0
3920,B1,338.0,0.25,70,132.0
3921,B-5,338.25,0.25,18,132.0
3922,B0,338.25,0.125,66,132.0
3923,B0,338.5,0.125,74,132.0
3924,B2,338.5,0.5,83,132.0
3925,B4,338.5,0.5,83,132.0
3926,B5,338.5,0.5,83,132.0
3927,B1,338.5,0.5,83,132.0
3928,B6,338.5,0.5,83,132.0
3929,B5,338.5,0.5,83,132.0
3930,B4,338.5,0.5,83,132.0
3931,B3,338.5,0.5,83,132.0
3932,B5,338.5,0.5,83,132.0
3933,B2,338.5,0.5,83,132.0
3934,B-5,338.5,0.25,52,132.0
3935,F#2,338.5,0.25,52,132.0
3936,B-5,338.75,0.25,39,132.0
3937,B0,338.75,0.125,84,132.0
3938,B1,339.0,0.375,127,132.0
3939,B2,339.0,0.5,83,132.0
3940,B4,339.0,0.5,83,132.0
3941,B5,339.0,0.5,83,132.0
3942,B1,339.0,0.5,83,132.0
3943,B6,339.0,0.5,83,132.0
3944,B5,339.0,0.5,83,132.0
3945,B4,339.0,0.5,83,132.0
3946,B3,339.0,0.5,83,132.0
3947,B5,339.0,0.5,83,132.0
3948,B2,339.0,0.5,83,132.0
3949,B-5,339.0,0.25,82,132.0
3950,F#2,339.0,0.25,82,132.0
3951,E2,339.0,0.25,82,132.0
3952,B1,339.0,0.25,82,132.0
3953,E1,339.0,0.25,82,132.0
3954,B-5,339.25,0.25,25,132.0
3955,B0,339.5,0.125,103,132.0
3956,B2,339.5,0.5,83,132.0
3957,B4,339.5,0.5,83,132.0
3958,B5,339.5,0.5,83,132.0
3959,B1,339.5,0.5,83,132.0
3960,B6,339.5,0.5,83,132.0
3961,B5,339.5,0.5,83,132.0
3962,B4,339.5,0.5,83,132.0
3963,B3,339.5,0.5,83,132.0
3964,B5,339.5,0.5,83,132.0
3965,B2,339.5,0.5,83,132.0
3966,B-5,339.5,0.25,42,132.0
3967,F#2,339.5,0.25,42,132.0
3968,B-5,339.75,0.25,69,132.0
3969,B1,339.75,0.25,69,132.0
3970,B0,340.0,0.375,127,132.0
3971,B1,340.0,0.75,86,132.0
3972,B3,340.0,0.75,86,132.0
3973,B4,340.0,0.75,86,132.0
3974,B0,340.0,0.75,86,132.0
3975,B5,340.0,0.75,86,132.0
3976,B4,340.0,0.75,86,132.0
3977,B3,340.0,0.75,86,132.0
3978,B2,340.0,0.75,86,132.0
3979,B4,340.0,0.75,86,132.0
3980,B1,340.0,0.75,86,132.0
3981,F#2,340.0,0.25,75,132.0
3982,B1,340.0,0.25,75,132.0
3983,B-5,340.0,0.25,75,132.0
3984,B-5,340.25,0.25,18,132.0
3985,B0,340.5,0.125,93,132.0
3986,F#2,340.5,0.25,52,132.0
3987,B-5,340.5,0.25,52,132.0
3988,B0,340.75,0.125,75,132.0
3989,B2,340.75,0.25,79,132.0
3990,B4,340.75,0.25,79,132.0
3991,B5,340.75,0.25,79,132.0
3992,B1,340.75,0.25,79,132.0
3993,B6,340.75,0.25,79,132.0
3994,B5,340.75,0.25,79,132.0
3995,B4,340.75,0.25,79,132.0
3996,B3,340.75,0.25,79,132.0
3997,B5,340.75,0.25,79,132.0
3998,B2,340.75,0.25,79,132.0
3999,B-5,340.75,0.25,79,132.0
4000,B0,341.0,0.125,68,132.0
4001,F#2,341.0,0.25,81,132.0
4002,B1,341.0,0.25,81,132.0
4003,E2,341.0,0.25,81,132.0
4004,E1,341.0,0.25,81,132.0
4005,B-5,341.0,0.25,81,132.0
4006,B-5,341.25,0.25,25,132.0
4007,B0,341.25,0.125,75,132.0
4008,B0,341.5,0.125,99,132.0
4009,B2,341.5,0.5,83,132.0
4010,B4,341.5,0.5,83,132.0
4011,B5,341.5,0.5,83,132.0
4012,B1,341.5,0.5,83,132.0
4013,B6,341.5,0.5,83,132.0
4014,B5,341.5,0.5,83,132.0
4015,B4,341.5,0.5,83,132.0
4016,B3,341.5,0.5,83,132.0
4017,B5,341.5,0.5,83,132.0
4018,B2,341.5,0.5,83,132.0
4019,F#2,341.5,0.25,42,132.0
4020,B-5,341.5,0.25,42,132.0
4021,B-5,341.75,0.25,11,132.0
4022,B0,341.75,0.375,127,132.0
4023,F#2,342.0,0.25,69,132.0
4024,B1,342.0,0.25,69,132.0
4025,B-5,342.0,0.25,69,132.0
4026,B0,342.25,0.125,93,132.0
4027,G2,342.25,0.25,77,132.0
4028,G4,342.25,0.25,77,132.0
4029,G5,342.25,0.25,77,132.0
4030,G1,342.25,0.25,77,132.0
4031,G6,342.25,0.25,77,132.0
4032,G5,342.25,0.25,77,132.0
4033,G4,342.25,0.25,77,132.0
4034,G3,342.25,0.25,77,132.0
4035,G5,342.25,0.25,77,132.0
4036,G2,342.25,0.25,77,132.0
4037,B-5,342.25,0.25,77,132.0
4038,B0,342.5,0.125,75,132.0
4039,B2,342.5,0.5,83,132.0
4040,B4,342.5,0.5,83,132.0
4041,B5,342.5,0.5,83,132.0
4042,B1,342.5,0.5,83,132.0
4043,B6,342.5,0.5,83,132.0
4044,B5,342.5,0.5,83,132.0
4045,B4,342.5,0.5,83,132.0
4046,B3,342.5,0.5,83,132.0
4047,B5,342.5,0.5,83,132.0
4048,B2,342.5,0.5,83,132.0
4049,F#2,342.5,0.25,52,132.0
4050,B-5,342.5,0.25,52,132.0
4051,B-5,342.75,0.25,39,132.0
4052,B0,342.75,0.125,59,132.0
4053,B0,343.0,0.125,58,132.0
4054,B2,343.0,0.5,83,132.0
4055,B4,343.0,0.5,83,132.0
4056,B5,343.0,0.5,83,132.0
4057,B1,343.0,0.5,83,132.0
4058,B6,343.0,0.5,83,132.0
4059,B5,343.0,0.5,83,132.0
4060,B4,343.0,0.5,83,132.0
4061,B3,343.0,0.5,83,132.0
4062,B5,343.0,0.5,83,132.0
4063,B2,343.0,0.5,83,132.0
4064,F#2,343.0,0.25,82,132.0
4065,E2,343.0,0.25,82,132.0
4066,B1,343.0,0.25,82,132.0
4067,E1,343.0,0.25,82,132.0
4068,B-5,343.0,0.25,82,132.0
4069,B-5,343.25,0.25,25,132.0
4070,B0,343.25,0.125,72,132.0
4071,B0,343.5,0.125,91,132.0
4072,B2,343.5,0.5,83,132.0
4073,B4,343.5,0.5,83,132.0
4074,B5,343.5,0.5,83,132.0
4075,B1,343.5,0.5,83,132.0
4076,B6,343.5,0.5,83,132.0
4077,B5,343.5,0.5,83,132.0
4078,B4,343.5,0.5,83,132.0
4079,B3,343.5,0.5,83,132.0
4080,B5,343.5,0.5,83,132.0
4081,B2,343.5,0.5,83,132.0
4082,F#2,343.5,0.25,42,132.0
4083,B-5,343.5,0.25,42,132.0
4084,B-5,343.75,0.25,11,132.0
4085,B0,343.75,0.25,127,132.0
4086,B0,344.0,0.25,127,132.0
4087,G4,344.0,0.5,101,132.0
4088,G5,344.0,0.5,101,132.0
4089,B4,344.0,0.5,101,132.0
4090,B5,344.0,0.5,101,132.0
4091,B4,344.0,0.5,101,132.0
4092,G3,344.0,0.5,101,132.0
4093,G4,344.0,0.5,101,132.0
4094,B3,344.0,0.5,101,132.0
4095,B-5,344.0,0.25,75,132.0
4096,F#2,344.0,0.25,75,132.0
4097,B1,344.0,0.25,75,132.0
4098,B-5,344.25,0.25,18,132.0
4099,B-5,344.5,0.25,52,132.0
4100,F#2,344.5,0.25,52,132.0
4101,B-5,344.75,0.25,39,132.0
4102,G4,344.75,0.5,101,132.0
4103,G5,344.75,0.5,101,132.0
4104,B4,344.75,0.5,101,132.0
4105,B5,344.75,0.5,101,132.0
4106,B4,344.75,0.5,101,132.0
4107,B3,344.75,0.5,101,132.0
4108,G4,344.75,0.5,101,132.0
4109,G3,344.75,0.5,101,132.0
4110,B-5,345.0,0.25,82,132.0
4111,F#2,345.0,0.25,82,132.0
4112,E2,345.0,0.25,82,132.0
4113,B1,345.0,0.25,82,132.0
4114,E1,345.0,0.25,82,132.0
4115,B-5,345.25,0.25,25,132.0
4116,B5,345.5,0.5,101,132.0
4117,B4,345.5,0.5,101,132.0
4118,G5,345.5,0.5,101,132.0
4119,G4,345.5,0.5,101,132.0
4120,B4,345.5,0.5,101,132.0
4121,B3,345.5,0.5,101,132.0
4122,G4,345.5,0.5,101,132.0
4123,G3,345.5,0.5,101,132.0
4124,B-5,345.5,0.25,42,132.0
4125,F#2,345.5,0.25,42,132.0
4126,B-5,345.75,0.25,11,132.0
4127,E3,346.0,1.5,127,132.0
4128,F2,346.0,0.25,127,132.0
4129,C4,346.0,2.0,103,132.0
4130,A4,346.0,0.5,101,132.0
4131,A5,346.0,0.5,101,132.0
4132,C#5,346.0,0.5,101,132.0
4133,C#6,346.0,0.5,101,132.0
4134,C#5,346.0,0.5,101,132.0
4135,C#4,346.0,0.5,101,132.0
4136,A4,346.0,0.5,101,132.0
4137,A3,346.0,0.5,101,132.0
4138,C#6,346.75,0.5,101,132.0
4139,C#5,346.75,0.5,101,132.0
4140,A5,346.75,0.5,101,132.0
4141,A4,346.75,0.5,101,132.0
4142,C#5,346.75,0.5,101,132.0
4143,C#4,346.75,0.5,101,132.0
4144,A4,346.75,0.5,101,132.0
4145,A3,346.75,0.5,101,132.0
4146,G#2,346.75,0.25,80,132.0
4147,D2,346.75,0.25,80,132.0
4148,D2,347.0,0.25,80,132.0
4149,G2,347.5,0.25,127,132.0
4150,A4,347.5,0.5,104,132.0
4151,A5,347.5,0.5,104,132.0
4152,C#5,347.5,0.5,104,132.0
4153,C#6,347.5,0.5,104,132.0
4154,C#5,347.5,0.5,104,132.0
4155,C#4,347.5,0.5,104,132.0
4156,A4,347.5,0.5,104,132.0
4157,A3,347.5,0.5,104,132.0
4158,G#3,347.5,0.5,104,132.0
4159,F#2,348.0,0.5,100,132.0
4160,B1,348.0,0.25,103,132.0
4161,C4,348.0,0.25,103,132.0
4162,B1,348.0,0.75,90,132.0
4163,B0,348.0,0.75,90,132.0
4164,B4,348.0,0.75,90,132.0
4165,B3,348.0,0.75,90,132.0
4166,B2,348.0,0.75,90,132.0
4167,B1,348.0,0.75,90,132.0
4168,G3,348.0,4.0,127,132.0
4169,A3,348.0,4.0,127,132.0
4170,C#3,348.0,4.0,127,132.0
4171,B2,348.75,0.25,90,132.0
4172,B1,348.75,0.25,90,132.0
4173,B5,348.75,0.25,90,132.0
4174,B4,348.75,0.25,90,132.0
4175,B3,348.75,0.25,90,132.0
4176,B2,348.75,0.25,90,132.0
4177,F#2,349.0,0.5,63,132.0
4178,B1,349.0,0.25,102,132.0
4179,B2,349.5,0.5,90,132.0
4180,B1,349.5,0.5,90,132.0
4181,B5,349.5,0.5,90,132.0
4182,B4,349.5,0.5,90,132.0
4183,B3,349.5,0.5,90,132.0
4184,B2,349.5,0.5,90,132.0
4185,F#2,350.0,0.5,79,132.0
4186,B1,350.0,0.25,102,132.0
4187,G2,350.25,0.25,90,132.0
4188,G1,350.25,0.25,90,132.0
4189,G5,350.25,0.25,90,132.0
4190,G4,350.25,0.25,90,132.0
4191,G3,350.25,0.25,90,132.0
4192,G2,350.25,0.25,90,132.0
4193,B2,350.5,0.5,90,132.0
4194,B1,350.5,0.5,90,132.0
4195,B5,350.5,0.5,90,132.0
4196,B4,350.5,0.5,90,132.0
4197,B3,350.5,0.5,90,132.0
4198,B2,350.5,0.5,90,132.0
4199,B1,351.0,0.25,103,132.0
4200,B2,351.0,0.5,86,132.0
4201,B1,351.0,0.5,86,132.0
4202,B5,351.0,0.5,86,132.0
4203,B4,351.0,0.5,86,132.0
4204,B3,351.0,0.5,86,132.0
4205,B2,351.0,0.5,86,132.0
4206,F#2,351.0,0.5,86,132.0
4207,B2,351.5,0.5,90,132.0
4208,B1,351.5,0.5,90,132.0
4209,B5,351.5,0.5,90,132.0
4210,B4,351.5,0.5,90,132.0
4211,B3,351.5,0.5,90,132.0
4212,B2,351.5,0.5,90,132.0
4213,F#2,352.0,0.5,100,132.0
4214,B1,352.0,0.25,103,132.0
4215,B1,352.0,0.75,90,132.0
4216,B0,352.0,0.75,90,132.0
4217,B4,352.0,0.75,90,132.0
4218,B3,352.0,0.75,90,132.0
4219,B2,352.0,0.75,90,132.0
4220,B1,352.0,0.75,90,132.0
4221,B2,352.75,0.25,90,132.0
4222,B1,352.75,0.25,90,132.0
4223,B5,352.75,0.25,90,132.0
4224,B4,352.75,0.25,90,132.0
4225,B3,352.75,0.25,90,132.0
4226,B2,352.75,0.25,90,132.0
4227,F#2,353.0,0.5,64,132.0
4228,B1,353.0,0.25,103,132.0
4229,B2,353.5,0.5,90,132.0
4230,B1,353.5,0.5,90,132.0
4231,B5,353.5,0.5,90,132.0
4232,B4,353.5,0.5,90,132.0
4233,B3,353.5,0.5,90,132.0
4234,B2,353.5,0.5,90,132.0
4235,F#2,354.0,0.5,80,132.0
4236,B1,354.0,0.25,104,132.0
4237,B2,354.0,0.375,90,132.0
4238,B1,354.0,0.375,90,132.0
4239,B5,354.0,0.375,90,132.0
4240,B4,354.0,0.375,90,132.0
4241,B3,354.0,0.375,90,132.0
4242,B2,354.0,0.375,90,132.0
4243,B2,354.5,0.5,90,132.0
4244,B1,354.5,0.5,90,132.0
4245,B5,354.5,0.5,90,132.0
4246,B4,354.5,0.5,90,132.0
4247,B3,354.5,0.5,90,132.0
4248,B2,354.5,0.5,90,132.0
4249,B1,355.0,0.25,104,132.0
4250,B2,355.0,0.5,86,132.0
4251,B1,355.0,0.5,86,132.0
4252,B5,355.0,0.5,86,132.0
4253,B4,355.0,0.5,86,132.0
4254,B3,355.0,0.5,86,132.0
4255,B2,355.0,0.5,86,132.0
4256,F#2,355.0,0.5,86,132.0
4257,B2,355.5,0.5,90,132.0
4258,B1,355.5,0.5,90,132.0
4259,B5,355.5,0.5,90,132.0
4260,B4,355.5,0.5,90,132.0
4261,B3,355.5,0.5,90,132.0
4262,B2,355.5,0.5,90,132.0
4263,F#2,356.0,0.5,100,132.0
4264,B1,356.0,0.25,103,132.0
4265,B1,356.0,0.75,90,132.0
4266,B0,356.0,0.75,90,132.0
4267,B4,356.0,0.75,90,132.0
4268,B3,356.0,0.75,90,132.0
4269,B2,356.0,0.75,90,132.0
4270,B1,356.0,0.75,90,132.0
4271,B2,356.75,0.25,90,132.0
4272,B1,356.75,0.25,90,132.0
4273,B5,356.75,0.25,90,132.0
4274,B4,356.75,0.25,90,132.0
4275,B3,356.75,0.25,90,132.0
4276,B2,356.75,0.25,90,132.0
4277,F#2,357.0,0.5,63,132.0
4278,B1,357.0,0.25,102,132.0
4279,B2,357.5,0.5,90,132.0
4280,B1,357.5,0.5,90,132.0
4281,B5,357.5,0.5,90,132.0
4282,B4,357.5,0.5,90,132.0
4283,B3,357.5,0.5,90,132.0
4284,B2,357.5,0.5,90,132.0
4285,F#2,358.0,0.5,79,132.0
4286,B1,358.0,0.25,102,132.0
4287,G2,358.25,0.25,90,132.0
4288,G1,358.25,0.25,90,132.0
4289,G5,358.25,0.25,90,132.0
4290,G4,358.25,0.25,90,132.0
4291,G3,358.25,0.25,90,132.0
4292,G2,358.25,0.25,90,132.0
4293,B2,358.5,0.5,90,132.0
4294,B1,358.5,0.5,90,132.0
4295,B5,358.5,0.5,90,132.0
4296,B4,358.5,0.5,90,132.0
4297,B3,358.5,0.5,90,132.0
4298,B2,358.5,0.5,90,132.0
4299,B1,359.0,0.25,103,132.0
4300,B2,359.0,0.5,86,132.0
4301,B1,359.0,0.5,86,132.0
4302,B5,359.0,0.5,86,132.0
4303,B4,359.0,0.5,86,132.0
4304,B3,359.0,0.5,86,132.0
4305,B2,359.0,0.5,86,132.0
4306,F#2,359.0,0.5,86,132.0
4307,B2,359.5,0.5,90,132.0
4308,B1,359.5,0.5,90,132.0
4309,B5,359.5,0.5,90,132.0
4310,B4,359.5,0.5,90,132.0
4311,B3,359.5,0.5,90,132.0
4312,B2,359.5,0.5,90,132.0
4313,F#2,360.0,0.5,100,132.0
4314,B1,360.0,0.25,103,132.0
4315,B1,360.0,0.75,90,132.0
4316,B0,360.0,0.75,90,132.0
4317,B4,360.0,0.75,90,132.0
4318,B3,360.0,0.75,90,132.0
4319,B2,360.0,0.75,90,132.0
4320,B1,360.0,0.75,90,132.0
4321,B2,360.75,0.25,90,132.0
4322,B1,360.75,0.25,90,132.0
4323,B5,360.75,0.25,90,132.0
4324,B4,360.75,0.25,90,132.0
4325,B3,360.75,0.25,90,132.0
4326,B2,360.75,0.25,90,132.0
4327,F#2,361.0,0.5,64,132.0
4328,B1,361.0,0.25,103,132.0
4329,B2,361.5,0.5,90,132.0
4330,B1,361.5,0.5,90,132.0
4331,B5,361.5,0.5,90,132.0
4332,B4,361.5,0.5,90,132.0
4333,B3,361.5,0.5,90,132.0
4334,B2,361.5,0.5,90,132.0
4335,F#2,362.0,0.5,80,132.0
4336,B1,362.0,0.25,104,132.0
4337,B2,362.0,0.375,90,132.0
4338,B1,362.0,0.375,90,132.0
4339,B5,362.0,0.375,90,132.0
4340,B4,362.0,0.375,90,132.0
4341,B3,362.0,0.375,90,132.0
4342,B2,362.0,0.375,90,132.0
4343,B2,362.5,0.5,90,132.0
4344,B1,362.5,0.5,90,132.0
4345,B5,362.5,0.5,90,132.0
4346,B4,362.5,0.5,90,132.0
4347,B3,362.5,0.5,90,132.0
4348,B2,362.5,0.5,90,132.0
4349,B1,363.0,0.25,104,132.0
4350,B2,363.0,0.5,86,132.0
4351,B1,363.0,0.5,86,132.0
4352,B5,363.0,0.5,86,132.0
4353,B4,363.0,0.5,86,132.0
4354,B3,363.0,0.5,86,132.0
4355,B2,363.0,0.5,86,132.0
4356,F#2,363.0,0.5,86,132.0
4357,B2,363.5,0.5,90,132.0
4358,B1,363.5,0.5,90,132.0
4359,B5,363.5,0.5,90,132.0
4360,B4,363.5,0.5,90,132.0
4361,B3,363.5,0.5,90,132.0
4362,B2,363.5,0.5,90,132.0
4363,F#2,364.0,0.5,100,132.0
4364,B1,364.0,0.25,103,132.0
4365,B1,364.0,0.75,90,132.0
4366,B0,364.0,0.75,90,132.0
4367,B4,364.0,0.75,90,132.0
4368,B3,364.0,0.75,90,132.0
4369,B2,364.0,0.75,90,132.0
4370,B1,364.0,0.75,90,132.0
4371,B2,364.75,0.25,90,132.0
4372,B1,364.75,0.25,90,132.0
4373,B5,364.75,0.25,90,132.0
4374,B4,364.75,0.25,90,132.0
4375,B3,364.75,0.25,90,132.0
4376,B2,364.75,0.25,90,132.0
4377,F#2,365.0,0.5,63,132.0
4378,B1,365.0,0.25,102,132.0
4379,B2,365.5,0.5,90,132.0
4380,B1,365.5,0.5,90,132.0
4381,B5,365.5,0.5,90,132.0
4382,B4,365.5,0.5,90,132.0
4383,B3,365.5,0.5,90,132.0
4384,B2,365.5,0.5,90,132.0
4385,F#2,366.0,0.5,79,132.0
4386,B1,366.0,0.25,102,132.0
4387,G2,366.25,0.25,90,132.0
4388,G1,366.25,0.25,90,132.0
4389,G5,366.25,0.25,90,132.0
4390,G4,366.25,0.25,90,132.0
4391,G3,366.25,0.25,90,132.0
4392,G2,366.25,0.25,90,132.0
4393,B2,366.5,0.5,90,132.0
4394,B1,366.5,0.5,90,132.0
4395,B5,366.5,0.5,90,132.0
4396,B4,366.5,0.5,90,132.0
4397,B3,366.5,0.5,90,132.0
4398,B2,366.5,0.5,90,132.0
4399,B1,367.0,0.25,103,132.0
4400,B2,367.0,0.5,86,132.0
4401,B1,367.0,0.5,86,132.0
4402,B5,367.0,0.5,86,132.0
4403,B4,367.0,0.5,86,132.0
4404,B3,367.0,0.5,86,132.0
4405,B2,367.0,0.5,86,132.0
4406,F#2,367.0,0.5,86,132.0
4407,B2,367.5,0.5,90,132.0
4408,B1,367.5,0.5,90,132.0
4409,B5,367.5,0.5,90,132.0
4410,B4,367.5,0.5,90,132.0
4411,B3,367.5,0.5,90,132.0
4412,B2,367.5,0.5,90,132.0
4413,F#2,368.0,0.5,100,132.0
4414,B1,368.0,0.25,103,132.0
4415,B1,368.0,0.75,90,132.0
4416,B0,368.0,0.75,90,132.0
4417,B4,368.0,0.75,90,132.0
4418,B3,368.0,0.75,90,132.0
4419,B2,368.0,0.75,90,132.0
4420,B1,368.0,0.75,90,132.0
4421,B2,368.75,0.25,90,132.0
4422,B1,368.75,0.25,90,132.0
4423,B5,368.75,0.25,90,132.0
4424,B4,368.75,0.25,90,132.0
4425,B3,368.75,0.25,90,132.0
4426,B2,368.75,0.25,90,132.0
4427,F#2,369.0,0.5,64,132.0
4428,B1,369.0,0.25,103,132.0
4429,B2,369.5,0.5,90,132.0
4430,B1,369.5,0.5,90,132.0
4431,B5,369.5,0.5,90,132.0
4432,B4,369.5,0.5,90,132.0
4433,B3,369.5,0.5,90,132.0
4434,B2,369.5,0.5,90,132.0
4435,F#2,370.0,0.5,80,132.0
4436,B1,370.0,0.25,104,132.0
4437,B2,370.0,0.375,90,132.0
4438,B1,370.0,0.375,90,132.0
4439,B5,370.0,0.375,90,132.0
4440,B4,370.0,0.375,90,132.0
4441,B3,370.0,0.375,90,132.0
4442,B2,370.0,0.375,90,132.0
4443,B2,370.5,0.5,90,132.0
4444,B1,370.5,0.5,90,132.0
4445,B5,370.5,0.5,90,132.0
4446,B4,370.5,0.5,90,132.0
4447,B3,370.5,0.5,90,132.0
4448,B2,370.5,0.5,90,132.0
4449,B1,371.0,0.25,104,132.0
4450,B2,371.0,0.5,86,132.0
4451,B1,371.0,0.5,86,132.0
4452,B5,371.0,0.5,86,132.0
4453,B4,371.0,0.5,86,132.0
4454,B3,371.0,0.5,86,132.0
4455,B2,371.0,0.5,86,132.0
4456,F#2,371.0,0.5,86,132.0
4457,B2,371.5,0.5,90,132.0
4458,B1,371.5,0.5,90,132.0
4459,B5,371.5,0.5,90,132.0
4460,B4,371.5,0.5,90,132.0
4461,B3,371.5,0.5,90,132.0
4462,B2,371.5,0.5,90,132.0
4463,F#2,372.0,0.5,100,132.0
4464,B1,372.0,0.25,103,132.0
4465,B1,372.0,0.75,90,132.0
4466,B0,372.0,0.75,90,132.0
4467,B4,372.0,0.75,90,132.0
4468,B3,372.0,0.75,90,132.0
4469,B2,372.0,0.75,90,132.0
4470,B1,372.0,0.75,90,132.0
4471,B2,372.75,0.25,90,132.0
4472,B1,372.75,0.25,90,132.0
4473,B5,372.75,0.25,90,132.0
4474,B4,372.75,0.25,90,132.0
4475,B3,372.75,0.25,90,132.0
4476,B2,372.75,0.25,90,132.0
4477,F#2,373.0,0.5,63,132.0
4478,B1,373.0,0.25,102,132.0
4479,B2,373.5,0.5,90,132.0
4480,B1,373.5,0.5,90,132.0
4481,B5,373.5,0.5,90,132.0
4482,B4,373.5,0.5,90,132.0
4483,B3,373.5,0.5,90,132.0
4484,B2,373.5,0.5,90,132.0
4485,F#2,374.0,0.5,79,132.0
4486,B1,374.0,0.25,102,132.0
4487,G2,374.25,0.25,90,132.0
4488,G1,374.25,0.25,90,132.0
4489,G5,374.25,0.25,90,132.0
4490,G4,374.25,0.25,90,132.0
4491,G3,374.25,0.25,90,132.0
4492,G2,374.25,0.25,90,132.0
4493,B2,374.5,0.5,90,132.0
4494,B1,374.5,0.5,90,132.0
4495,B5,374.5,0.5,90,132.0
4496,B4,374.5,0.5,90,132.0
4497,B3,374.5,0.5,90,132.0
4498,B2,374.5,0.5,90,132.0
4499,B1,375.0,0.25,103,132.0
4500,B2,375.0,0.5,86,132.0
4501,B1,375.0,0.5,86,132.0
4502,B5,375.0,0.5,86,132.0
4503,B4,375.0,0.5,86,132.0
4504,B3,375.0,0.5,86,132.0
4505,B2,375.0,0.5,86,132.0
4506,F#2,375.0,0.5,86,132.0
4507,B2,375.5,0.5,90,132.0
4508,B1,375.5,0.5,90,132.0
4509,B5,375.5,0.5,90,132.0
4510,B4,375.5,0.5,90,132.0
4511,B3,375.5,0.5,90,132.0
4512,B2,375.5,0.5,90,132.0
4513,B1,376.0,0.25,103,132.0
4514,G4,376.0,0.5,101,132.0
4515,G5,376.0,0.5,101,132.0
4516,B4,376.0,0.5,101,132.0
4517,B5,376.0,0.5,101,132.0
4518,B4,376.0,0.5,101,132.0
4519,G3,376.0,0.5,101,132.0
4520,G4,376.0,0.5,101,132.0
4521,B3,376.0,0.5,101,132.0
4522,F#2,376.0,0.5,101,132.0
4523,G4,376.75,0.5,101,132.0
4524,G5,376.75,0.5,101,132.0
4525,B4,376.75,0.5,101,132.0
4526,B5,376.75,0.5,101,132.0
4527,B4,376.75,0.5,101,132.0
4528,B3,376.75,0.5,101,132.0
4529,G4,376.75,0.5,101,132.0
4530,G3,376.75,0.5,101,132.0
4531,F#2,377.0,0.5,64,132.0
4532,B1,377.0,0.25,103,132.0
4533,B5,377.5,0.5,101,132.0
4534,B4,377.5,0.5,101,132.0
4535,G5,377.5,0.5,101,132.0
4536,G4,377.5,0.5,101,132.0
4537,B4,377.5,0.5,101,132.0
4538,B3,377.5,0.5,101,132.0
4539,G4,377.5,0.5,101,132.0
4540,G3,377.5,0.5,101,132.0
4541,E3,378.0,1.5,127,132.0
4542,F2,378.0,0.25,127,132.0
4543,C4,378.0,2.0,103,132.0
4544,A4,378.0,0.5,101,132.0
4545,A5,378.0,0.5,101,132.0
4546,C#5,378.0,0.5,101,132.0
4547,C#6,378.0,0.5,101,132.0
4548,C#5,378.0,0.5,101,132.0
4549,C#4,378.0,0.5,101,132.0
4550,A4,378.0,0.5,101,132.0
4551,A3,378.0,0.5,101,132.0
4552,C#6,378.75,0.5,101,132.0
4553,C#5,378.75,0.5,101,132.0
4554,A5,378.75,0.5,101,132.0
4555,A4,378.75,0.5,101,132.0
4556,C#5,378.75,0.5,101,132.0
4557,C#4,378.75,0.5,101,132.0
4558,A4,378.75,0.5,101,132.0
4559,A3,378.75,0.5,101,132.0
4560,G#2,378.75,0.25,80,132.0
4561,D2,378.75,0.25,80,132.0
4562,D2,379.0,0.25,80,132.0
4563,G2,379.5,0.25,127,132.0
4564,A4,379.5,0.5,104,132.0
4565,A5,379.5,0.5,104,132.0
4566,C#5,379.5,0.5,104,132.0
4567,C#6,379.5,0.5,104,132.0
4568,C#5,379.5,0.5,104,132.0
4569,C#4,379.5,0.5,104,132.0
4570,A4,379.5,0.5,104,132.0
4571,A3,379.5,0.5,104,132.0
4572,G#3,379.5,0.5,104,132.0
4573,C4,380.0,0.25,103,132.0
4574,B1,380.0,0.75,90,132.0
4575,B0,380.0,0.75,90,132.0
4576,B4,380.0,0.75,90,132.0
4577,B3,380.0,0.75,90,132.0
4578,B2,380.0,0.75,90,132.0
4579,B1,380.0,0.75,90,132.0
4580,B5,380.0,4.0,116,132.0
4581,B4,380.0,4.0,116,132.0
4582,G3,380.0,4.0,116,132.0
4583,A3,380.0,4.0,116,132.0
4584,C#3,380.0,4.0,116,132.0
4585,F#2,380.0,0.25,103,132.0
4586,B1,380.0,0.25,103,132.0
4587,F#2,380.5,0.25,73,132.0
4588,B2,380.75,0.25,90,132.0
4589,B1,380.75,0.25,90,132.0
4590,B5,380.75,0.25,90,132.0
4591,B4,380.75,0.25,90,132.0
4592,B3,380.75,0.25,90,132.0
4593,B2,380.75,0.25,90,132.0
4594,F#2,381.0,0.25,92,132.0
4595,B1,381.0,0.25,92,132.0
4596,E2,381.0,0.25,92,132.0
4597,E1,381.0,0.25,92,132.0
4598,F#2,381.5,0.25,73,132.0
4599,B2,381.5,0.5,90,132.0
4600,B1,381.5,0.5,90,132.0
4601,B5,381.5,0.5,90,132.0
4602,B4,381.5,0.5,90,132.0
4603,B3,381.5,0.5,90,132.0
4604,B2,381.5,0.5,90,132.0
4605,F#2,382.0,0.25,95,132.0
4606,B1,382.0,0.25,95,132.0
4607,G2,382.25,0.25,90,132.0
4608,G1,382.25,0.25,90,132.0
4609,G5,382.25,0.25,90,132.0
4610,G4,382.25,0.25,90,132.0
4611,G3,382.25,0.25,90,132.0
4612,G2,382.25,0.25,90,132.0
4613,F#2,382.5,0.25,73,132.0
4614,B2,382.5,0.5,90,132.0
4615,B1,382.5,0.5,90,132.0
4616,B5,382.5,0.5,90,132.0
4617,B4,382.5,0.5,90,132.0
4618,B3,382.5,0.5,90,132.0
4619,B2,382.5,0.5,90,132.0
4620,B2,383.0,0.5,90,132.0
4621,B1,383.0,0.5,90,132.0
4622,B5,383.0,0.5,90,132.0
4623,B4,383.0,0.5,90,132.0
4624,B3,383.0,0.5,90,132.0
4625,B2,383.0,0.5,90,132.0
4626,F#2,383.0,0.25,92,132.0
4627,E1,383.0,0.25,92,132.0
4628,B1,383.0,0.25,92,132.0
4629,E2,383.0,0.25,92,132.0
4630,F#2,383.5,0.25,73,132.0
4631,B2,383.5,0.5,90,132.0
4632,B1,383.5,0.5,90,132.0
4633,B5,383.5,0.5,90,132.0
4634,B4,383.5,0.5,90,132.0
4635,B3,383.5,0.5,90,132.0
4636,B2,383.5,0.5,90,132.0
4637,B1,384.0,0.75,90,132.0
4638,B0,384.0,0.75,90,132.0
4639,B4,384.0,0.75,90,132.0
4640,B3,384.0,0.75,90,132.0
4641,B2,384.0,0.75,90,132.0
4642,B1,384.0,0.75,90,132.0
4643,B5,384.0,4.0,100,132.0
4644,B4,384.0,4.0,100,132.0
4645,F#2,384.0,0.25,103,132.0
4646,B1,384.0,0.25,103,132.0
4647,F#2,384.5,0.25,73,132.0
4648,B2,384.75,0.25,90,132.0
4649,B1,384.75,0.25,90,132.0
4650,B5,384.75,0.25,90,132.0
4651,B4,384.75,0.25,90,132.0
4652,B3,384.75,0.25,90,132.0
4653,B2,384.75,0.25,90,132.0
4654,F#2,385.0,0.25,92,132.0
4655,E1,385.0,0.25,92,132.0
4656,B1,385.0,0.25,92,132.0
4657,E2,385.0,0.25,92,132.0
4658,F#2,385.5,0.25,73,132.0
4659,B2,385.5,0.5,90,132.0
4660,B1,385.5,0.5,90,132.0
4661,B5,385.5,0.5,90,132.0
4662,B4,385.5,0.5,90,132.0
4663,B3,385.5,0.5,90,132.0
4664,B2,385.5,0.5,90,132.0
4665,B2,386.0,0.375,90,132.0
4666,B1,386.0,0.375,90,132.0
4667,B5,386.0,0.375,90,132.0
4668,B4,386.0,0.375,90,132.0
4669,B3,386.0,0.375,90,132.0
4670,B2,386.0,0.375,90,132.0
4671,F#2,386.0,0.25,96,132.0
4672,B1,386.0,0.25,96,132.0
4673,F#2,386.5,0.25,73,132.0
4674,B2,386.5,0.5,90,132.0
4675,B1,386.5,0.5,90,132.0
4676,B5,386.5,0.5,90,132.0
4677,B4,386.5,0.5,90,132.0
4678,B3,386.5,0.5,90,132.0
4679,B2,386.5,0.5,90,132.0
4680,B2,387.0,0.5,90,132.0
4681,B1,387.0,0.5,90,132.0
4682,B5,387.0,0.5,90,132.0
4683,B4,387.0,0.5,90,132.0
4684,B3,387.0,0.5,90,132.0
4685,B2,387.0,0.5,90,132.0
4686,F#2,387.0,0.25,93,132.0
4687,E1,387.0,0.25,93,132.0
4688,B1,387.0,0.25,93,132.0
4689,E2,387.0,0.25,93,132.0
4690,F#2,387.5,0.25,73,132.0
4691,B2,387.5,0.5,90,132.0
4692,B1,387.5,0.5,90,132.0
4693,B5,387.5,0.5,90,132.0
4694,B4,387.5,0.5,90,132.0
4695,B3,387.5,0.5,90,132.0
4696,B2,387.5,0.5,90,132.0
4697,B1,388.0,0.75,90,132.0
4698,B0,388.0,0.75,90,132.0
4699,B4,388.0,0.75,90,132.0
4700,B3,388.0,0.75,90,132.0
4701,B2,388.0,0.75,90,132.0
4702,B1,388.0,0.75,90,132.0
4703,B5,388.0,4.0,100,132.0
4704,B4,388.0,4.0,100,132.0
4705,F#2,388.0,0.25,103,132.0
4706,B1,388.0,0.25,103,132.0
4707,F#2,388.5,0.25,73,132.0
4708,B2,388.75,0.25,90,132.0
4709,B1,388.75,0.25,90,132.0
4710,B5,388.75,0.25,90,132.0
4711,B4,388.75,0.25,90,132.0
4712,B3,388.75,0.25,90,132.0
4713,B2,388.75,0.25,90,132.0
4714,F#2,389.0,0.25,92,132.0
4715,B1,389.0,0.25,92,132.0
4716,E2,389.0,0.25,92,132.0
4717,E1,389.0,0.25,92,132.0
4718,F#2,389.5,0.25,73,132.0
4719,B2,389.5,0.5,90,132.0
4720,B1,389.5,0.5,90,132.0
4721,B5,389.5,0.5,90,132.0
4722,B4,389.5,0.5,90,132.0
4723,B3,389.5,0.5,90,132.0
4724,B2,389.5,0.5,90,132.0
4725,F#2,390.0,0.25,95,132.0
4726,B1,390.0,0.25,95,132.0
4727,G2,390.25,0.25,90,132.0
4728,G1,390.25,0.25,90,132.0
4729,G5,390.25,0.25,90,132.0
4730,G4,390.25,0.25,90,132.0
4731,G3,390.25,0.25,90,132.0
4732,G2,390.25,0.25,90,132.0
4733,F#2,390.5,0.25,73,132.0
4734,B2,390.5,0.5,90,132.0
4735,B1,390.5,0.5,90,132.0
4736,B5,390.5,0.5,90,132.0
4737,B4,390.5,0.5,90,132.0
4738,B3,390.5,0.5,90,132.0
4739,B2,390.5,0.5,90,132.0
4740,B2,391.0,0.5,90,132.0
4741,B1,391.0,0.5,90,132.0
4742,B5,391.0,0.5,90,132.0
4743,B4,391.0,0.5,90,132.0
4744,B3,391.0,0.5,90,132.0
4745,B2,391.0,0.5,90,132.0
4746,F#2,391.0,0.25,92,132.0
4747,E1,391.0,0.25,92,132.0
4748,B1,391.0,0.25,92,132.0
4749,E2,391.0,0.25,92,132.0
4750,F#2,391.5,0.25,73,132.0
4751,B2,391.5,0.5,90,132.0
4752,B1,391.5,0.5,90,132.0
4753,B5,391.5,0.5,90,132.0
4754,B4,391.5,0.5,90,132.0
4755,B3,391.5,0.5,90,132.0
4756,B2,391.5,0.5,90,132.0
4757,B1,392.0,0.75,90,132.0
4758,B0,392.0,0.75,90,132.0
4759,B4,392.0,0.75,90,132.0
4760,B3,392.0,0.75,90,132.0
4761,B2,392.0,0.75,90,132.0
4762,B1,392.0,0.75,90,132.0
4763,B5,392.0,4.0,100,132.0
4764,B4,392.0,4.0,100,132.0
4765,F#2,392.0,0.25,103,132.0
4766,B1,392.0,0.25,103,132.0
4767,F#2,392.5,0.25,73,132.0
4768,B2,392.75,0.25,90,132.0
4769,B1,392.75,0.25,90,132.0
4770,B5,392.75,0.25,90,132.0
4771,B4,392.75,0.25,90,132.0
4772,B3,392.75,0.25,90,132.0
4773,B2,392.75,0.25,90,132.0
4774,F#2,393.0,0.25,92,132.0
4775,E1,393.0,0.25,92,132.0
4776,B1,393.0,0.25,92,132.0
4777,E2,393.0,0.25,92,132.0
4778,F#2,393.5,0.25,73,132.0
4779,B2,393.5,0.5,90,132.0
4780,B1,393.5,0.5,90,132.0
4781,B5,393.5,0.5,90,132.0
4782,B4,393.5,0.5,90,132.0
4783,B3,393.5,0.5,90,132.0
4784,B2,393.5,0.5,90,132.0
4785,B2,394.0,0.375,90,132.0
4786,B1,394.0,0.375,90,132.0
4787,B5,394.0,0.375,90,132.0
4788,B4,394.0,0.375,90,132.0
4789,B3,394.0,0.375,90,132.0
4790,B2,394.0,0.375,90,132.0
4791,F#2,394.0,0.25,96,132.0
4792,B1,394.0,0.25,96,132.0
4793,F#2,394.5,0.25,73,132.0
4794,B2,394.5,0.5,90,132.0
4795,B1,394.5,0.5,90,132.0
4796,B5,394.5,0.5,90,132.0
4797,B4,394.5,0.5,90,132.0
4798,B3,394.5,0.5,90,132.0
4799,B2,394.5,0.5,90,132.0
4800,B2,395.0,0.5,90,132.0
4801,B1,395.0,0.5,90,132.0
4802,B5,395.0,0.5,90,132.0
4803,B4,395.0,0.5,90,132.0
4804,B3,395.0,0.5,90,132.0
4805,B2,395.0,0.5,90,132.0
4806,F#2,395.0,0.25,93,132.0
4807,E1,395.0,0.25,93,132.0
4808,B1,395.0,0.25,93,132.0
4809,E2,395.0,0.25,93,132.0
4810,F#2,395.5,0.25,73,132.0
4811,B2,395.5,0.5,90,132.0
4812,B1,395.5,0.5,90,132.0
4813,B5,395.5,0.5,90,132.0
4814,B4,395.5,0.5,90,132.0
4815,B3,395.5,0.5,90,132.0
4816,B2,395.5,0.5,90,132.0
4817,B1,396.0,0.75,90,132.0
4818,B0,396.0,0.75,90,132.0
4819,B4,396.0,0.75,90,132.0
4820,B3,396.0,0.75,90,132.0
4821,B2,396.0,0.75,90,132.0
4822,B1,396.0,0.75,90,132.0
4823,B5,396.0,4.0,100,132.0
4824,B4,396.0,4.0,100,132.0
4825,F#2,396.0,0.25,103,132.0
4826,B1,396.0,0.25,103,132.0
4827,F#2,396.5,0.25,73,132.0
4828,B2,396.75,0.25,90,132.0
4829,B1,396.75,0.25,90,132.0
4830,B5,396.75,0.25,90,132.0
4831,B4,396.75,0.25,90,132.0
4832,B3,396.75,0.25,90,132.0
4833,B2,396.75,0.25,90,132.0
4834,F#2,397.0,0.25,92,132.0
4835,B1,397.0,0.25,92,132.0
4836,E2,397.0,0.25,92,132.0
4837,E1,397.0,0.25,92,132.0
4838,F#2,397.5,0.25,73,132.0
4839,B2,397.5,0.5,90,132.0
4840,B1,397.5,0.5,90,132.0
4841,B5,397.5,0.5,90,132.0
4842,B4,397.5,0.5,90,132.0
4843,B3,397.5,0.5,90,132.0
4844,B2,397.5,0.5,90,132.0
4845,F#2,398.0,0.25,95,132.0
4846,B1,398.0,0.25,95,132.0
4847,G2,398.25,0.25,90,132.0
4848,G1,398.25,0.25,90,132.0
4849,G5,398.25,0.25,90,132.0
4850,G4,398.25,0.25,90,132.0
4851,G3,398.25,0.25,90,132.0
4852,G2,398.25,0.25,90,132.0
4853,F#2,398.5,0.25,73,132.0
4854,B2,398.5,0.5,90,132.0
4855,B1,398.5,0.5,90,132.0
4856,B5,398.5,0.5,90,132.0
4857,B4,398.5,0.5,90,132.0
4858,B3,398.5,0.5,90,132.0
4859,B2,398.5,0.5,90,132.0
4860,B2,399.0,0.5,90,132.0
4861,B1,399.0,0.5,90,132.0
4862,B5,399.0,0.5,90,132.0
4863,B4,399.0,0.5,90,132.0
4864,B3,399.0,0.5,90,132.0
4865,B2,399.0,0.5,90,132.0
4866,F#2,399.0,0.25,92,132.0
4867,E1,399.0,0.25,92,132.0
4868,B1,399.0,0.25,92,132.0
4869,E2,399.0,0.25,92,132.0
4870,F#2,399.5,0.25,73,132.0
4871,B2,399.5,0.5,90,132.0
4872,B1,399.5,0.5,90,132.0
4873,B5,399.5,0.5,90,132.0
4874,B4,399.5,0.5,90,132.0
4875,B3,399.5,0.5,90,132.0
4876,B2,399.5,0.5,90,132.0
4877,B1,400.0,0.75,90,132.0
4878,B0,400.0,0.75,90,132.0
4879,B4,400.0,0.75,90,132.0
4880,B3,400.0,0.75,90,132.0
4881,B2,400.0,0.75,90,132.0
4882,B1,400.0,0.75,90,132.0
4883,B5,400.0,4.0,100,132.0
4884,B4,400.0,4.0,100,132.0
4885,F#2,400.0,0.25,103,132.0
4886,B1,400.0,0.25,103,132.0
4887,F#2,400.5,0.25,73,132.0
4888,B2,400.75,0.25,90,132.0
4889,B1,400.75,0.25,90,132.0
4890,B5,400.75,0.25,90,132.0
4891,B4,400.75,0.25,90,132.0
4892,B3,400.75,0.25,90,132.0
4893,B2,400.75,0.25,90,132.0
4894,F#2,401.0,0.25,92,132.0
4895,E1,401.0,0.25,92,132.0
4896,B1,401.0,0.25,92,132.0
4897,E2,401.0,0.25,92,132.0
4898,F#2,401.5,0.25,73,132.0
4899,B2,401.5,0.5,90,132.0
4900,B1,401.5,0.5,90,132.0
4901,B5,401.5,0.5,90,132.0
4902,B4,401.5,0.5,90,132.0
4903,B3,401.5,0.5,90,132.0
4904,B2,401.5,0.5,90,132.0
4905,B2,402.0,0.375,90,132.0
4906,B1,402.0,0.375,90,132.0
4907,B5,402.0,0.375,90,132.0
4908,B4,402.0,0.375,90,132.0
4909,B3,402.0,0.375,90,132.0
4910,B2,402.0,0.375,90,132.0
4911,F#2,402.0,0.25,96,132.0
4912,B1,402.0,0.25,96,132.0
4913,F#2,402.5,0.25,73,132.0
4914,B2,402.5,0.5,90,132.0
4915,B1,402.5,0.5,90,132.0
4916,B5,402.5,0.5,90,132.0
4917,B4,402.5,0.5,90,132.0
4918,B3,402.5,0.5,90,132.0
4919,B2,402.5,0.5,90,132.0
4920,B2,403.0,0.5,90,132.0
4921,B1,403.0,0.5,90,132.0
4922,B5,403.0,0.5,90,132.0
4923,B4,403.0,0.5,90,132.0
4924,B3,403.0,0.5,90,132.0
4925,B2,403.0,0.5,90,132.0
4926,F#2,403.0,0.25,93,132.0
4927,E1,403.0,0.25,93,132.0
4928,B1,403.0,0.25,93,132.0
4929,E2,403.0,0.25,93,132.0
4930,F#2,403.5,0.25,73,132.0
4931,B2,403.5,0.5,90,132.0
4932,B1,403.5,0.5,90,132.0
4933,B5,403.5,0.5,90,132.0
4934,B4,403.5,0.5,90,132.0
4935,B3,403.5,0.5,90,132.0
4936,B2,403.5,0.5,90,132.0
4937,B1,404.0,0.75,90,132.0
4938,B0,404.0,0.75,90,132.0
4939,B4,404.0,0.75,90,132.0
4940,B3,404.0,0.75,90,132.0
4941,B2,404.0,0.75,90,132.0
4942,B1,404.0,0.75,90,132.0
4943,B5,404.0,4.0,100,132.0
4944,B4,404.0,4.0,100,132.0
4945,F#2,404.0,0.25,103,132.0
4946,B1,404.0,0.25,103,132.0
4947,F#2,404.5,0.25,73,132.0
4948,B2,404.75,0.25,90,132.0
4949,B1,404.75,0.25,90,132.0
4950,B5,404.75,0.25,90,132.0
4951,B4,404.75,0.25,90,132.0
4952,B3,404.75,0.25,90,132.0
4953,B2,404.75,0.25,90,132.0
4954,F#2,405.0,0.25,92,132.0
4955,B1,405.0,0.25,92,132.0
4956,E2,405.0,0.25,92,132.0
4957,E1,405.0,0.25,92,132.0
4958,F#2,405.5,0.25,73,132.0
4959,B2,405.5,0.5,90,132.0
4960,B1,405.5,0.5,90,132.0
4961,B5,405.5,0.5,90,132.0
4962,B4,405.5,0.5,90,132.0
4963,B3,405.5,0.5,90,132.0
4964,B2,405.5,0.5,90,132.0
4965,F#2,406.0,0.25,95,132.0
4966,B1,406.0,0.25,95,132.0
4967,G2,406.25,0.25,90,132.0
4968,G1,406.25,0.25,90,132.0
4969,G5,406.25,0.25,90,132.0
4970,G4,406.25,0.25,90,132.0
4971,G3,406.25,0.25,90,132.0
4972,G2,406.25,0.25,90,132.0
4973,F#2,406.5,0.25,73,132.0
4974,B2,406.5,0.5,90,132.0
4975,B1,406.5,0.5,90,132.0
4976,B5,406.5,0.5,90,132.0
4977,B4,406.5,0.5,90,132.0
4978,B3,406.5,0.5,90,132.0
4979,B2,406.5,0.5,90,132.0
4980,B2,407.0,0.5,90,132.0
4981,B1,407.0,0.5,90,132.0
4982,B5,407.0,0.5,90,132.0
4983,B4,407.0,0.5,90,132.0
4984,B3,407.0,0.5,90,132.0
4985,B2,407.0,0.5,90,132.0
4986,F#2,407.0,0.25,92,132.0
4987,E1,407.0,0.25,92,132.0
4988,B1,407.0,0.25,92,132.0
4989,E2,407.0,0.25,92,132.0
4990,F#2,407.5,0.25,73,132.0
4991,B2,407.5,0.5,90,132.0
4992,B1,407.5,0.5,90,132.0
4993,B5,407.5,0.5,90,132.0
4994,B4,407.5,0.5,90,132.0
4995,B3,407.5,0.5,90,132.0
4996,B2,407.5,0.5,90,132.0
4997,G4,408.0,0.5,101,132.0
4998,G5,408.0,0.5,101,132.0
4999,B4,408.0,0.5,101,132.0
5000,B5,408.0,0.5,101,132.0
5001,B4,408.0,0.5,101,132.0
5002,G3,408.0,0.5,101,132.0
5003,G4,408.0,0.5,101,132.0
5004,B3,408.0,0.5,101,132.0
5005,F#2,408.0,0.25,103,132.0
5006,B1,408.0,0.25,103,132.0
5007,E-5,408.0,4.0,63,132.0
5008,D5,408.0,4.0,63,132.0
5009,C#5,408.0,4.0,63,132.0
5010,C5,408.0,4.0,63,132.0
5011,C4,408.0,4.0,63,132.0
5012,B4,408.0,4.0,63,132.0
5013,B-4,408.0,4.0,63,132.0
5014,A4,408.0,4.0,63,132.0
5015,G#4,408.0,4.0,63,132.0
5016,G4,408.0,4.0,63,132.0
5017,F#4,408.0,4.0,63,132.0
5018,F4,408.0,4.0,63,132.0
5019,E4,408.0,4.0,63,132.0
5020,D4,408.0,4.0,63,132.0
5021,E-4,408.0,4.0,63,132.0
5022,C#4,408.0,4.0,63,132.0
5023,F#2,408.5,0.25,73,132.0
5024,G4,408.75,0.5,101,132.0
5025,G5,408.75,0.5,101,132.0
5026,B4,408.75,0.5,101,132.0
5027,B5,408.75,0.5,101,132.0
5028,B4,408.75,0.5,101,132.0
5029,B3,408.75,0.5,101,132.0
5030,G4,408.75,0.5,101,132.0
5031,G3,408.75,0.5,101,132.0
5032,F#2,409.0,0.25,92,132.0
5033,E1,409.0,0.25,92,132.0
5034,B1,409.0,0.25,92,132.0
5035,E2,409.0,0.25,92,132.0
5036,B5,409.5,0.5,101,132.0
5037,B4,409.5,0.5,101,132.0
5038,G5,409.5,0.5,101,132.0
5039,G4,409.5,0.5,101,132.0
5040,B4,409.5,0.5,101,132.0
5041,B3,409.5,0.5,101,132.0
5042,G4,409.5,0.5,101,132.0
5043,G3,409.5,0.5,101,132.0
5044,E3,410.0,1.5,127,132.0
5045,F2,410.0,0.25,127,132.0
5046,C4,410.0,2.0,103,132.0
5047,A4,410.0,0.5,101,132.0
5048,A5,410.0,0.5,101,132.0
5049,C#5,410.0,0.5,101,132.0
5050,C#6,410.0,0.5,101,132.0
5051,C#5,410.0,0.5,101,132.0
5052,C#4,410.0,0.5,101,132.0
5053,A4,410.0,0.5,101,132.0
5054,A3,410.0,0.5,101,132.0
5055,C#6,410.75,0.5,101,132.0
5056,C#5,410.75,0.5,101,132.0
5057,A5,410.75,0.5,101,132.0
5058,A4,410.75,0.5,101,132.0
5059,C#5,410.75,0.5,101,132.0
5060,C#4,410.75,0.5,101,132.0
5061,A4,410.75,0.5,101,132.0
5062,A3,410.75,0.5,101,132.0
5063,G#2,410.75,0.25,80,132.0
5064,D2,410.75,0.25,80,132.0
5065,D2,411.0,0.25,80,132.0
5066,G2,411.5,0.25,127,132.0
5067,A4,411.5,0.5,104,132.0
5068,A5,411.5,0.5,104,132.0
5069,C#5,411.5,0.5,104,132.0
5070,C#6,411.5,0.5,104,132.0
5071,C#5,411.5,0.5,104,132.0
5072,C#4,411.5,0.5,104,132.0
5073,A4,411.5,0.5,104,132.0
5074,A3,411.5,0.5,104,132.0
5075,G#3,411.5,0.5,104,132.0
5076,C4,420.0,0.25,103,132.0
5077,B5,420.0,0.5,101,132.0
5078,G5,420.0,0.5,101,132.0
5079,G4,420.0,0.5,101,132.0
5080,B4,420.0,0.5,101,132.0
5081,B4,420.0,0.5,101,132.0
5082,B3,420.0,0.5,101,132.0
5083,G3,420.0,0.5,101,132.0
5084,G4,420.0,0.5,101,132.0
5085,A3,420.0,4.0,111,132.0
5086,E3,420.0,4.0,111,132.0
5087,C#3,420.0,4.0,111,132.0
5088,B1,420.0,0.25,115,132.0
5089,E-2,420.0,0.25,115,132.0
5090,E-5,420.0,8.0,63,132.0
5091,D5,420.0,8.0,63,132.0
5092,C#5,420.0,8.0,63,132.0
5093,C5,420.0,8.0,63,132.0
5094,C4,420.0,8.0,63,132.0
5095,B4,420.0,8.0,63,132.0
5096,B-4,420.0,8.0,63,132.0
5097,A4,420.0,8.0,63,132.0
5098,G#4,420.0,8.0,63,132.0
5099,G4,420.0,8.0,63,132.0
5100,F#4,420.0,8.0,63,132.0
5101,F4,420.0,8.0,63,132.0
5102,E4,420.0,8.0,63,132.0
5103,D4,420.0,8.0,63,132.0
5104,E-4,420.0,8.0,63,132.0
5105,C#4,420.0,8.0,63,132.0
5106,B5,420.75,0.5,101,132.0
5107,G5,420.75,0.5,101,132.0
5108,B4,420.75,0.5,101,132.0
5109,G4,420.75,0.5,101,132.0
5110,B4,420.75,0.5,101,132.0
5111,G3,420.75,0.5,101,132.0
5112,B3,420.75,0.5,101,132.0
5113,G4,420.75,0.5,101,132.0
5114,B1,421.0,0.25,115,132.0
5115,E-2,421.0,0.25,115,132.0
5116,B5,421.5,0.5,101,132.0
5117,G5,421.5,0.5,101,132.0
5118,G4,421.5,0.5,101,132.0
5119,B4,421.5,0.5,101,132.0
5120,B4,421.5,0.5,101,132.0
5121,B3,421.5,0.5,101,132.0
5122,G3,421.5,0.5,101,132.0
5123,G4,421.5,0.5,101,132.0
5124,B1,422.0,0.25,115,132.0
5125,E-2,422.0,0.25,115,132.0
5126,B5,422.25,0.5,101,132.0
5127,G5,422.25,0.5,101,132.0
5128,G4,422.25,0.5,101,132.0
5129,B4,422.25,0.5,101,132.0
5130,B4,422.25,0.5,101,132.0
5131,B3,422.25,0.5,101,132.0
5132,G3,422.25,0.5,101,132.0
5133,G4,422.25,0.5,101,132.0
5134,B5,423.0,1.0,101,132.0
5135,G5,423.0,1.0,101,132.0
5136,B4,423.0,1.0,101,132.0
5137,G4,423.0,1.0,101,132.0
5138,B4,423.0,1.0,101,132.0
5139,G3,423.0,1.0,101,132.0
5140,B3,423.0,1.0,101,132.0
5141,G4,423.0,1.0,101,132.0
5142,B1,423.0,0.25,115,132.0
5143,E-2,423.0,0.25,115,132.0
5144,C#6,428.0,0.5,101,132.0
5145,A5,428.0,0.5,101,132.0
5146,C#5,428.0,0.5,101,132.0
5147,A4,428.0,0.5,101,132.0
5148,C#5,428.0,0.5,101,132.0
5149,A3,428.0,0.5,101,132.0
5150,C#4,428.0,0.5,101,132.0
5151,A4,428.0,0.5,101,132.0
5152,B1,428.0,0.25,115,132.0
5153,E-2,428.0,0.25,115,132.0
5154,A3,428.0,4.0,111,132.0
5155,E3,428.0,4.0,111,132.0
5156,C#3,428.0,4.0,111,132.0
5157,C#6,428.75,0.5,101,132.0
5158,A5,428.75,0.5,101,132.0
5159,C#5,428.75,0.5,101,132.0
5160,A4,428.75,0.5,101,132.0
5161,C#5,428.75,0.5,101,132.0
5162,A3,428.75,0.5,101,132.0
5163,C#4,428.75,0.5,101,132.0
5164,A4,428.75,0.5,101,132.0
5165,B1,429.0,0.25,115,132.0
5166,E-2,429.0,0.25,115,132.0
5167,C#6,429.5,0.5,101,132.0
5168,A5,429.5,0.5,101,132.0
5169,A4,429.5,0.5,101,132.0
5170,C#5,429.5,0.5,101,132.0
5171,C#5,429.5,0.5,101,132.0
5172,C#4,429.5,0.5,101,132.0
5173,A3,429.5,0.5,101,132.0
5174,A4,429.5,0.5,101,132.0
5175,B1,430.0,0.25,115,132.0
5176,E-2,430.0,0.25,115,132.0
5177,C#6,430.25,0.5,101,132.0
5178,A5,430.25,0.5,101,132.0
5179,A4,430.25,0.5,101,132.0
5180,C#5,430.25,0.5,101,132.0
5181,C#5,430.25,0.5,101,132.0
5182,C#4,430.25,0.5,101,132.0
5183,A3,430.25,0.5,101,132.0
5184,A4,430.25,0.5,101,132.0
5185,C#6,431.0,0.375,101,132.0
5186,A5,431.0,0.375,101,132.0
5187,A4,431.0,0.375,101,132.0
5188,C#5,431.0,0.375,101,132.0
5189,C#5,431.0,0.375,101,132.0
5190,C#4,431.0,0.375,101,132.0
5191,A3,431.0,0.375,101,132.0
5192,A4,431.0,0.375,101,132.0
5193,B1,431.0,0.25,115,132.0
5194,E-2,431.0,0.25,115,132.0
5195,C#6,431.5,0.375,101,132.0
5196,A4,431.5,0.375,101,132.0
5197,C#5,431.5,0.375,101,132.0
5198,A5,431.5,0.375,101,132.0
5199,C#5,431.5,0.375,101,132.0
5200,A4,431.5,0.375,101,132.0
5201,C#4,431.5,0.375,101,132.0
5202,A3,431.5,0.375,101,132.0
5203,E-6,432.0,0.5,101,132.0
5204,E-5,432.0,0.5,101,132.0
5205,B4,432.0,0.5,101,132.0
5206,B5,432.0,0.5,101,132.0
5207,E-5,432.0,0.5,101,132.0
5208,B4,432.0,0.5,101,132.0
5209,B3,432.0,0.5,101,132.0
5210,E-4,432.0,0.5,101,132.0
5211,B1,432.0,0.25,115,132.0
5212,E-2,432.0,0.25,115,132.0
5213,E-6,432.75,0.5,101,132.0
5214,B5,432.75,0.5,101,132.0
5215,B4,432.75,0.5,101,132.0
5216,E-5,432.75,0.5,101,132.0
5217,E-5,432.75,0.5,101,132.0
5218,E-4,432.75,0.5,101,132.0
5219,B3,432.75,0.5,101,132.0
5220,B4,432.75,0.5,101,132.0
5221,B1,433.0,0.25,115,132.0
5222,E-2,433.0,0.25,115,132.0
5223,E-6,433.5,0.5,101,132.0
5224,B5,433.5,0.5,101,132.0
5225,B4,433.5,0.5,101,132.0
5226,E-5,433.5,0.5,101,132.0
5227,E-5,433.5,0.5,101,132.0
5228,E-4,433.5,0.5,101,132.0
5229,B3,433.5,0.5,101,132.0
5230,B4,433.5,0.5,101,132.0
5231,B1,434.0,0.25,115,132.0
5232,E-2,434.0,0.25,115,132.0
5233,E-6,434.25,0.5,101,132.0
5234,B5,434.25,0.5,101,132.0
5235,B4,434.25,0.5,101,132.0
5236,E-5,434.25,0.5,101,132.0
5237,E-5,434.25,0.5,101,132.0
5238,E-4,434.25,0.5,101,132.0
5239,B3,434.25,0.5,101,132.0
5240,B4,434.25,0.5,101,132.0
5241,E-6,435.0,1.0,101,132.0
5242,B5,435.0,1.0,101,132.0
5243,B4,435.0,1.0,101,132.0
5244,E-5,435.0,1.0,101,132.0
5245,E-5,435.0,1.0,101,132.0
5246,E-4,435.0,1.0,101,132.0
5247,B3,435.0,1.0,101,132.0
5248,B4,435.0,1.0,101,132.0
5249,B1,435.0,0.25,115,132.0
5250,E-2,435.0,0.25,115,132.0
5251,E-6,436.0,0.5,101,132.0
5252,B5,436.0,0.5,101,132.0
5253,E-5,436.0,0.5,101,132.0
5254,B4,436.0,0.5,101,132.0
5255,E-5,436.0,0.5,101,132.0
5256,B3,436.0,0.5,101,132.0
5257,E-4,436.0,0.5,101,132.0
5258,B4,436.0,0.5,101,132.0
5259,B1,436.0,0.25,115,132.0
5260,E-2,436.0,0.25,115,132.0
5261,E-5,436.0,4.0,63,132.0
5262,D5,436.0,4.0,63,132.0
5263,C#5,436.0,4.0,63,132.0
5264,C5,436.0,4.0,63,132.0
5265,C4,436.0,4.0,63,132.0
5266,B4,436.0,4.0,63,132.0
5267,B-4,436.0,4.0,63,132.0
5268,A4,436.0,4.0,63,132.0
5269,G#4,436.0,4.0,63,132.0
5270,G4,436.0,4.0,63,132.0
5271,F#4,436.0,4.0,63,132.0
5272,F4,436.0,4.0,63,132.0
5273,E4,436.0,4.0,63,132.0
5274,D4,436.0,4.0,63,132.0
5275,E-4,436.0,4.0,63,132.0
5276,C#4,436.0,4.0,63,132.0
5277,E-6,436.75,0.5,101,132.0
5278,B5,436.75,0.5,101,132.0
5279,B4,436.75,0.5,101,132.0
5280,E-5,436.75,0.5,101,132.0
5281,E-5,436.75,0.5,101,132.0
5282,E-4,436.75,0.5,101,132.0
5283,B3,436.75,0.5,101,132.0
5284,B4,436.75,0.5,101,132.0
5285,B1,437.0,0.25,115,132.0
5286,E-2,437.0,0.25,115,132.0
5287,E-6,437.5,0.5,101,132.0
5288,B5,437.5,0.5,101,132.0
5289,E-5,437.5,0.5,101,132.0
5290,B4,437.5,0.5,101,132.0
5291,E-5,437.5,0.5,101,132.0
5292,B3,437.5,0.5,101,132.0
5293,E-4,437.5,0.5,101,132.0
5294,B4,437.5,0.5,101,132.0
5295,C#6,438.0,0.375,101,132.0
5296,C#5,438.0,0.375,101,132.0
5297,A4,438.0,0.375,101,132.0
5298,A5,438.0,0.375,101,132.0
5299,C#5,438.0,0.375,101,132.0
5300,A4,438.0,0.375,101,132.0
5301,A3,438.0,0.375,101,132.0
5302,C#4,438.0,0.375,101,132.0
5303,B1,438.0,0.25,115,132.0
5304,E-2,438.0,0.25,115,132.0
5305,C#6,438.5,0.375,101,132.0
5306,A4,438.5,0.375,101,132.0
5307,C#5,438.5,0.375,101,132.0
5308,A5,438.5,0.375,101,132.0
5309,C#5,438.5,0.375,101,132.0
5310,A4,438.5,0.375,101,132.0
5311,C#4,438.5,0.375,101,132.0
5312,A3,438.5,0.375,101,132.0
5313,E-6,439.0,0.375,101,132.0
5314,B4,439.0,0.375,101,132.0
5315,E-5,439.0,0.375,101,132.0
5316,B5,439.0,0.375,101,132.0
5317,E-5,439.0,0.375,101,132.0
5318,B4,439.0,0.375,101,132.0
5319,E-4,439.0,0.375,101,132.0
5320,B3,439.0,0.375,101,132.0
5321,B1,439.0,0.25,115,132.0
5322,E-2,439.0,0.25,115,132.0
5323,E-6,439.5,0.375,101,132.0
5324,B4,439.5,0.375,101,132.0
5325,E-5,439.5,0.375,101,132.0
5326,B5,439.5,0.375,101,132.0
5327,E-5,439.5,0.375,101,132.0
5328,B4,439.5,0.375,101,132.0
5329,E-4,439.5,0.375,101,132.0
5330,B3,439.5,0.375,101,132.0
5331,B5,448.0,0.5,101,132.0
5332,G5,448.0,0.5,101,132.0
5333,G4,448.0,0.5,101,132.0
5334,B4,448.0,0.5,101,132.0
5335,B4,448.0,0.5,101,132.0
5336,B3,448.0,0.5,101,132.0
5337,G3,448.0,0.5,101,132.0
5338,G4,448.0,0.5,101,132.0
5339,A3,448.0,4.0,111,132.0
5340,E3,448.0,4.0,111,132.0
5341,C#3,448.0,4.0,111,132.0
5342,E2,448.0,0.25,111,132.0
5343,B1,448.0,0.25,111,132.0
5344,E-2,448.0,0.25,111,132.0
5345,E-5,448.0,8.0,63,132.0
5346,D5,448.0,8.0,63,132.0
5347,C#5,448.0,8.0,63,132.0
5348,C5,448.0,8.0,63,132.0
5349,C4,448.0,8.0,63,132.0
5350,B4,448.0,8.0,63,132.0
5351,B-4,448.0,8.0,63,132.0
5352,A4,448.0,8.0,63,132.0
5353,G#4,448.0,8.0,63,132.0
5354,G4,448.0,8.0,63,132.0
5355,F#4,448.0,8.0,63,132.0
5356,F4,448.0,8.0,63,132.0
5357,E4,448.0,8.0,63,132.0
5358,D4,448.0,8.0,63,132.0
5359,E-4,448.0,8.0,63,132.0
5360,C#4,448.0,8.0,63,132.0
5361,E2,448.75,0.25,103,132.0
5362,B5,448.75,0.5,101,132.0
5363,G5,448.75,0.5,101,132.0
5364,B4,448.75,0.5,101,132.0
5365,G4,448.75,0.5,101,132.0
5366,B4,448.75,0.5,101,132.0
5367,G3,448.75,0.5,101,132.0
5368,B3,448.75,0.5,101,132.0
5369,G4,448.75,0.5,101,132.0
5370,B1,449.0,0.25,115,132.0
5371,E-2,449.0,0.25,115,132.0
5372,E2,449.5,0.25,103,132.0
5373,B5,449.5,0.5,101,132.0
5374,G5,449.5,0.5,101,132.0
5375,G4,449.5,0.5,101,132.0
5376,B4,449.5,0.5,101,132.0
5377,B4,449.5,0.5,101,132.0
5378,B3,449.5,0.5,101,132.0
5379,G3,449.5,0.5,101,132.0
5380,G4,449.5,0.5,101,132.0
5381,B1,450.0,0.25,115,132.0
5382,E-2,450.0,0.25,115,132.0
5383,E2,450.25,0.25,103,132.0
5384,B5,450.25,0.5,101,132.0
5385,G5,450.25,0.5,101,132.0
5386,G4,450.25,0.5,101,132.0
5387,B4,450.25,0.5,101,132.0
5388,B4,450.25,0.5,101,132.0
5389,B3,450.25,0.5,101,132.0
5390,G3,450.25,0.5,101,132.0
5391,G4,450.25,0.5,101,132.0
5392,B5,451.0,1.0,101,132.0
5393,G5,451.0,1.0,101,132.0
5394,B4,451.0,1.0,101,132.0
5395,G4,451.0,1.0,101,132.0
5396,B4,451.0,1.0,101,132.0
5397,G3,451.0,1.0,101,132.0
5398,B3,451.0,1.0,101,132.0
5399,G4,451.0,1.0,101,132.0
5400,E2,451.0,0.25,111,132.0
5401,B1,451.0,0.25,111,132.0
5402,E-2,451.0,0.25,111,132.0
5403,B1,456.0,4.0,127,132.0
5404,C#6,456.0,0.5,101,132.0
5405,A5,456.0,0.5,101,132.0
5406,C#5,456.0,0.5,101,132.0
5407,A4,456.0,0.5,101,132.0
5408,C#5,456.0,0.5,101,132.0
5409,A3,456.0,0.5,101,132.0
5410,C#4,456.0,0.5,101,132.0
5411,A4,456.0,0.5,101,132.0
5412,E2,456.0,0.25,111,132.0
5413,B1,456.0,0.25,111,132.0
5414,E-2,456.0,0.25,111,132.0
5415,A3,456.0,4.0,111,132.0
5416,E3,456.0,4.0,111,132.0
5417,C#3,456.0,4.0,111,132.0
5418,E2,456.75,0.25,103,132.0
5419,C#6,456.75,0.5,101,132.0
5420,A5,456.75,0.5,101,132.0
5421,C#5,456.75,0.5,101,132.0
5422,A4,456.75,0.5,101,132.0
5423,C#5,456.75,0.5,101,132.0
5424,A3,456.75,0.5,101,132.0
5425,C#4,456.75,0.5,101,132.0
5426,A4,456.75,0.5,101,132.0
5427,B1,457.0,0.25,115,132.0
5428,E-2,457.0,0.25,115,132.0
5429,E2,457.5,0.25,103,132.0
5430,C#6,457.5,0.5,101,132.0
5431,A5,457.5,0.5,101,132.0
5432,A4,457.5,0.5,101,132.0
5433,C#5,457.5,0.5,101,132.0
5434,C#5,457.5,0.5,101,132.0
5435,C#4,457.5,0.5,101,132.0
5436,A3,457.5,0.5,101,132.0
5437,A4,457.5,0.5,101,132.0
5438,B1,458.0,0.25,115,132.0
5439,E-2,458.0,0.25,115,132.0
5440,E2,458.25,0.25,103,132.0
5441,C#6,458.25,0.5,101,132.0
5442,A5,458.25,0.5,101,132.0
5443,A4,458.25,0.5,101,132.0
5444,C#5,458.25,0.5,101,132.0
5445,C#5,458.25,0.5,101,132.0
5446,C#4,458.25,0.5,101,132.0
5447,A3,458.25,0.5,101,132.0
5448,A4,458.25,0.5,101,132.0
5449,C#6,459.0,0.375,101,132.0
5450,A5,459.0,0.375,101,132.0
5451,A4,459.0,0.375,101,132.0
5452,C#5,459.0,0.375,101,132.0
5453,C#5,459.0,0.375,101,132.0
5454,C#4,459.0,0.375,101,132.0
5455,A3,459.0,0.375,101,132.0
5456,A4,459.0,0.375,101,132.0
5457,E2,459.0,0.25,111,132.0
5458,B1,459.0,0.25,111,132.0
5459,E-2,459.0,0.25,111,132.0
5460,E2,459.5,0.25,103,132.0
5461,C#6,459.5,0.375,101,132.0
5462,A4,459.5,0.375,101,132.0
5463,C#5,459.5,0.375,101,132.0
5464,A5,459.5,0.375,101,132.0
5465,C#5,459.5,0.375,101,132.0
5466,A4,459.5,0.375,101,132.0
5467,C#4,459.5,0.375,101,132.0
5468,A3,459.5,0.375,101,132.0
5469,B2,460.0,4.0,65,132.0
5470,B1,460.0,22.0,127,132.0
5471,C#6,460.0,0.5,101,132.0
5472,C#5,460.0,0.5,101,132.0
5473,F#4,460.0,0.5,101,132.0
5474,F#5,460.0,0.5,101,132.0
5475,C#5,460.0,0.5,101,132.0
5476,F#4,460.0,0.5,101,132.0
5477,F#3,460.0,0.5,101,132.0
5478,C#4,460.0,0.5,101,132.0
5479,E2,460.0,0.25,111,132.0
5480,B1,460.0,0.25,111,132.0
5481,E-2,460.0,0.25,111,132.0
5482,C#3,460.125,3.875,63,132.0
5483,E-3,460.125,3.875,63,132.0
5484,D3,460.125,3.875,63,132.0
5485,E3,460.125,3.875,63,132.0
5486,F3,460.125,3.875,63,132.0
5487,F#3,460.125,3.875,63,132.0
5488,G3,460.125,3.875,63,132.0
5489,G#3,460.125,3.875,63,132.0
5490,A3,460.125,3.875,63,132.0
5491,B-3,460.125,3.875,63,132.0
5492,B3,460.125,3.875,63,132.0
5493,C3,460.125,3.875,63,132.0
5494,C4,460.125,3.875,63,132.0
5495,C#4,460.125,3.875,63,132.0
5496,D4,460.125,3.875,63,132.0
5497,E-4,460.125,3.875,63,132.0
5498,E2,460.75,0.25,103,132.0
5499,C#6,460.75,0.5,101,132.0
5500,F#4,460.75,0.5,101,132.0
5501,C#5,460.75,0.5,101,132.0
5502,F#5,460.75,0.5,101,132.0
5503,C#5,460.75,0.5,101,132.0
5504,F#4,460.75,0.5,101,132.0
5505,C#4,460.75,0.5,101,132.0
5506,F#3,460.75,0.5,101,132.0
5507,B1,461.0,0.25,115,132.0
5508,E-2,461.0,0.25,115,132.0
5509,E2,461.5,0.25,103,132.0
5510,C#6,461.5,0.5,101,132.0
5511,F#4,461.5,0.5,101,132.0
5512,C#5,461.5,0.5,101,132.0
5513,F#5,461.5,0.5,101,132.0
5514,C#5,461.5,0.5,101,132.0
5515,F#4,461.5,0.5,101,132.0
5516,C#4,461.5,0.5,101,132.0
5517,F#3,461.5,0.5,101,132.0
5518,B1,462.0,0.25,115,132.0
5519,E-2,462.0,0.25,115,132.0
5520,E2,462.25,0.25,103,132.0
5521,C#6,462.25,0.5,101,132.0
5522,C#5,462.25,0.5,101,132.0
5523,F#4,462.25,0.5,101,132.0
5524,F#5,462.25,0.5,101,132.0
5525,C#5,462.25,0.5,101,132.0
5526,F#4,462.25,0.5,101,132.0
5527,F#3,462.25,0.5,101,132.0
5528,C#4,462.25,0.5,101,132.0
5529,C#6,463.0,0.875,101,132.0
5530,C#5,463.0,0.875,101,132.0
5531,F#4,463.0,0.875,101,132.0
5532,F#5,463.0,0.875,101,132.0
5533,C#5,463.0,0.875,101,132.0
5534,F#4,463.0,0.875,101,132.0
5535,F#3,463.0,0.875,101,132.0
5536,C#4,463.0,0.875,101,132.0
5537,E2,463.0,0.25,111,132.0
5538,B1,463.0,0.25,111,132.0
5539,E-2,463.0,0.25,111,132.0
5540,E2,463.5,0.25,103,132.0
5541,B2,482.0,18.0,65,132.0
5542,C#6,482.0,0.5,101,132.0
5543,C#5,482.0,0.5,101,132.0
5544,F#4,482.0,0.5,101,132.0
5545,F#5,482.0,0.5,101,132.0
5546,C#5,482.0,0.5,101,132.0
5547,F#4,482.0,0.5,101,132.0
5548,F#3,482.0,0.5,101,132.0
5549,C#4,482.0,0.5,101,132.0
5550,E2,482.0,0.25,111,132.0
5551,B1,482.0,0.25,111,132.0
5552,E-2,482.0,0.25,111,132.0
5553,C#3,482.0,16.125,63,132.0
5554,E-3,482.0,16.125,63,132.0
5555,D3,482.0,16.125,63,132.0
5556,E3,482.0,16.125,63,132.0
5557,F3,482.0,16.125,63,132.0
5558,F#3,482.0,16.125,63,132.0
5559,G3,482.0,16.125,63,132.0
5560,G#3,482.0,16.125,63,132.0
5561,A3,482.0,16.125,63,132.0
5562,B-3,482.0,16.125,63,132.0
5563,B3,482.0,16.125,63,132.0
5564,C3,482.0,16.125,63,132.0
5565,C4,482.0,16.125,63,132.0
5566,C#4,482.0,16.125,63,132.0
5567,D4,482.0,16.125,63,132.0
5568,E-4,482.0,16.125,63,132.0
5569,E2,482.75,0.25,103,132.0
5570,C#6,482.75,0.5,101,132.0
5571,F#4,482.75,0.5,101,132.0
5572,C#5,482.75,0.5,101,132.0
5573,F#5,482.75,0.5,101,132.0
5574,C#5,482.75,0.5,101,132.0
5575,F#4,482.75,0.5,101,132.0
5576,C#4,482.75,0.5,101,132.0
5577,F#3,482.75,0.5,101,132.0
5578,B1,483.0,0.25,115,132.0
5579,E-2,483.0,0.25,115,132.0
5580,E2,483.5,0.25,103,132.0
5581,C#6,483.5,0.5,101,132.0
5582,F#4,483.5,0.5,101,132.0
5583,C#5,483.5,0.5,101,132.0
5584,F#5,483.5,0.5,101,132.0
5585,C#5,483.5,0.5,101,132.0
5586,F#4,483.5,0.5,101,132.0
5587,C#4,483.5,0.5,101,132.0
5588,F#3,483.5,0.5,101,132.0
5589,B1,484.0,0.25,115,132.0
5590,E-2,484.0,0.25,115,132.0
5591,E2,484.25,0.25,103,132.0
5592,C#6,484.25,0.5,101,132.0
5593,C#5,484.25,0.5,101,132.0
5594,F#4,484.25,0.5,101,132.0
5595,F#5,484.25,0.5,101,132.0
5596,C#5,484.25,0.5,101,132.0
5597,F#4,484.25,0.5,101,132.0
5598,F#3,484.25,0.5,101,132.0
5599,C#4,484.25,0.5,101,132.0
5600,C#6,485.0,0.375,101,132.0
5601,C#5,485.0,0.375,101,132.0
5602,F#4,485.0,0.375,101,132.0
5603,F#5,485.0,0.375,101,132.0
5604,C#5,485.0,0.375,101,132.0
5605,F#4,485.0,0.375,101,132.0
5606,F#3,485.0,0.375,101,132.0
5607,C#4,485.0,0.375,101,132.0
5608,E2,485.0,0.25,111,132.0
5609,B1,485.0,0.25,111,132.0
5610,E-2,485.0,0.25,111,132.0
5611,E2,485.5,0.25,103,132.0
5612,C#6,485.5,0.375,101,132.0
5613,F#4,485.5,0.375,101,132.0
5614,C#5,485.5,0.375,101,132.0
5615,F#5,485.5,0.375,101,132.0
5616,C#5,485.5,0.375,101,132.0
5617,F#4,485.5,0.375,101,132.0
5618,C#4,485.5,0.375,101,132.0
5619,F#3,485.5,0.375,101,132.0
5620,C#6,500.0,0.375,101,132.0
5621,F#4,500.0,0.375,101,132.0
5622,C#5,500.0,0.375,101,132.0
5623,F#5,500.0,0.375,101,132.0
5624,C#5,500.0,0.375,101,132.0
5625,F#4,500.0,0.375,101,132.0
5626,C#4,500.0,0.375,101,132.0
5627,F#3,500.0,0.375,101,132.0
5628,B1,500.0,0.25,111,132.0
5629,E2,500.0,0.25,111,132.0
5630,E-2,500.0,0.25,111,132.0
5631,C#6,500.5,0.375,101,132.0
5632,C#5,500.5,0.375,101,132.0
5633,F#4,500.5,0.375,101,132.0
5634,F#5,500.5,0.375,101,132.0
5635,C#5,500.5,0.375,101,132.0
5636,F#4,500.5,0.375,101,132.0
5637,F#3,500.5,0.375,101,132.0
5638,C#4,500.5,0.375,101,132.0
5639,B1,500.5,0.25,103,132.0
5640,E2,500.5,0.25,103,132.0
5641,C#6,501.0,0.375,101,132.0
5642,F#4,501.0,0.375,101,132.0
5643,C#5,501.0,0.375,101,132.0
5644,F#5,501.0,0.375,101,132.0
5645,C#5,501.0,0.375,101,132.0
5646,F#4,501.0,0.375,101,132.0
5647,C#4,501.0,0.375,101,132.0
5648,F#3,501.0,0.375,101,132.0
5649,E2,501.0,0.25,111,132.0
5650,B1,501.0,0.25,111,132.0
5651,E-2,501.0,0.25,111,132.0
5652,C#6,501.5,0.375,101,132.0
5653,F#4,501.5,0.375,101,132.0
5654,C#5,501.5,0.375,101,132.0
5655,F#5,501.5,0.375,101,132.0
5656,C#5,501.5,0.375,101,132.0
5657,F#4,501.5,0.375,101,132.0
5658,C#4,501.5,0.375,101,132.0
5659,F#3,501.5,0.375,101,132.0
5660,B1,501.5,0.25,103,132.0
5661,E2,501.5,0.25,103,132.0
5662,C#6,502.0,0.375,101,132.0
5663,C#5,502.0,0.375,101,132.0
5664,F#4,502.0,0.375,101,132.0
5665,F#5,502.0,0.375,101,132.0
5666,C#5,502.0,0.375,101,132.0
5667,F#4,502.0,0.375,101,132.0
5668,F#3,502.0,0.375,101,132.0
5669,C#4,502.0,0.375,101,132.0
5670,E2,502.0,0.25,111,132.0
5671,B1,502.0,0.25,111,132.0
5672,E-2,502.0,0.25,111,132.0
5673,C#6,502.5,0.375,101,132.0
5674,C#5,502.5,0.375,101,132.0
5675,F#4,502.5,0.375,101,132.0
5676,F#5,502.5,0.375,101,132.0
5677,C#5,502.5,0.375,101,132.0
5678,F#4,502.5,0.375,101,132.0
5679,F#3,502.5,0.375,101,132.0
5680,C#4,502.5,0.375,101,132.0
5681,B1,502.5,0.25,103,132.0
5682,E2,502.5,0.25,103,132.0
5683,C#6,503.0,0.375,101,132.0
5684,C#5,503.0,0.375,101,132.0
5685,F#4,503.0,0.375,101,132.0
5686,F#5,503.0,0.375,101,132.0
5687,C#5,503.0,0.375,101,132.0
5688,F#4,503.0,0.375,101,132.0
5689,F#3,503.0,0.375,101,132.0
5690,C#4,503.0,0.375,101,132.0
5691,E2,503.0,0.25,111,132.0
5692,B1,503.0,0.25,111,132.0
5693,E-2,503.0,0.25,111,132.0
5694,C#6,503.5,0.375,101,132.0
5695,F#4,503.5,0.375,101,132.0
5696,C#5,503.5,0.375,101,132.0
5697,F#5,503.5,0.375,101,132.0
5698,C#5,503.5,0.375,101,132.0
5699,F#4,503.5,0.375,101,132.0
5700,C#4,503.5,0.375,101,132.0
5701,F#3,503.5,0.375,101,132.0
5702,B1,503.5,0.25,104,132.0
5703,E2,503.5,0.25,104,132.0
5704,C#6,504.0,0.375,101,132.0
5705,C#5,504.0,0.375,101,132.0
5706,F#4,504.0,0.375,101,132.0
5707,F#5,504.0,0.375,101,132.0
5708,C#5,504.0,0.375,101,132.0
5709,F#4,504.0,0.375,101,132.0
5710,F#3,504.0,0.375,101,132.0
5711,C#4,504.0,0.375,101,132.0
5712,E2,504.0,0.25,111,132.0
5713,B1,504.0,0.25,111,132.0
5714,E-2,504.0,0.25,111,132.0
5715,C#6,504.5,0.375,101,132.0
5716,C#5,504.5,0.375,101,132.0
5717,F#4,504.5,0.375,101,132.0
5718,F#5,504.5,0.375,101,132.0
5719,C#5,504.5,0.375,101,132.0
5720,F#4,504.5,0.375,101,132.0
5721,F#3,504.5,0.375,101,132.0
5722,C#4,504.5,0.375,101,132.0
5723,B1,504.5,0.25,104,132.0
5724,E2,504.5,0.25,104,132.0
5725,C#6,505.0,0.375,101,132.0
5726,C#5,505.0,0.375,101,132.0
5727,F#4,505.0,0.375,101,132.0
5728,F#5,505.0,0.375,101,132.0
5729,C#5,505.0,0.375,101,132.0
5730,F#4,505.0,0.375,101,132.0
5731,F#3,505.0,0.375,101,132.0
5732,C#4,505.0,0.375,101,132.0
5733,E2,505.0,0.25,111,132.0
5734,B1,505.0,0.25,111,132.0
5735,E-2,505.0,0.25,111,132.0
5736,C#6,505.5,0.375,101,132.0
5737,F#4,505.5,0.375,101,132.0
5738,C#5,505.5,0.375,101,132.0
5739,F#5,505.5,0.375,101,132.0
5740,C#5,505.5,0.375,101,132.0
5741,F#4,505.5,0.375,101,132.0
5742,C#4,505.5,0.375,101,132.0
5743,F#3,505.5,0.375,101,132.0
5744,B1,505.5,0.25,104,132.0
5745,E2,505.5,0.25,104,132.0
5746,C#6,506.0,0.375,101,132.0
5747,C#5,506.0,0.375,101,132.0
5748,F#4,506.0,0.375,101,132.0
5749,F#5,506.0,0.375,101,132.0
5750,C#5,506.0,0.375,101,132.0
5751,F#4,506.0,0.375,101,132.0
5752,F#3,506.0,0.375,101,132.0
5753,C#4,506.0,0.375,101,132.0
5754,E2,506.0,0.25,111,132.0
5755,B1,506.0,0.25,111,132.0
5756,E-2,506.0,0.25,111,132.0
5757,C#6,506.5,0.375,101,132.0
5758,C#5,506.5,0.375,101,132.0
5759,F#4,506.5,0.375,101,132.0
5760,F#5,506.5,0.375,101,132.0
5761,C#5,506.5,0.375,101,132.0
5762,F#4,506.5,0.375,101,132.0
5763,F#3,506.5,0.375,101,132.0
5764,C#4,506.5,0.375,101,132.0
5765,B1,506.5,0.25,104,132.0
5766,E2,506.5,0.25,104,132.0
5767,C#6,507.0,0.375,101,132.0
5768,C#5,507.0,0.375,101,132.0
5769,F#4,507.0,0.375,101,132.0
5770,F#5,507.0,0.375,101,132.0
5771,C#5,507.0,0.375,101,132.0
5772,F#4,507.0,0.375,101,132.0
5773,F#3,507.0,0.375,101,132.0
5774,C#4,507.0,0.375,101,132.0
5775,E2,507.0,0.25,111,132.0
5776,B1,507.0,0.25,111,132.0
5777,E-2,507.0,0.25,111,132.0
5778,C#6,507.5,0.375,101,132.0
5779,F#4,507.5,0.375,101,132.0
5780,C#5,507.5,0.375,101,132.0
5781,F#5,507.5,0.375,101,132.0
5782,C#5,507.5,0.375,101,132.0
5783,F#4,507.5,0.375,101,132.0
5784,C#4,507.5,0.375,101,132.0
5785,F#3,507.5,0.375,101,132.0
5786,B1,507.5,0.25,104,132.0
5787,E2,507.5,0.25,104,132.0
5788,C#6,508.0,0.125,101,132.0
5789,F#5,508.0,0.125,101,132.0
5790,C#5,508.0,0.125,101,132.0
5791,F#4,508.0,0.125,101,132.0
5792,C#5,508.0,0.125,101,132.0
5793,F#3,508.0,0.125,101,132.0
5794,C#4,508.0,0.125,101,132.0
5795,F#4,508.0,0.125,101,132.0
5796,E2,508.0,0.25,119,132.0
5797,B1,508.0,0.25,119,132.0
5798,E-2,508.0,0.25,119,132.0
5799,C#6,508.25,0.125,101,132.0
5800,F#5,508.25,0.125,101,132.0
5801,F#4,508.25,0.125,101,132.0
5802,C#5,508.25,0.125,101,132.0
5803,C#5,508.25,0.125,101,132.0
5804,C#4,508.25,0.125,101,132.0
5805,F#3,508.25,0.125,101,132.0
5806,F#4,508.25,0.125,101,132.0
5807,B1,508.25,0.25,104,132.0
5808,E2,508.25,0.25,104,132.0
5809,C#6,508.5,0.125,101,132.0
5810,F#5,508.5,0.125,101,132.0
5811,F#4,508.5,0.125,101,132.0
5812,C#5,508.5,0.125,101,132.0
5813,C#5,508.5,0.125,101,132.0
5814,C#4,508.5,0.125,101,132.0
5815,F#3,508.5,0.125,101,132.0
5816,F#4,508.5,0.125,101,132.0
5817,B1,508.5,0.25,104,132.0
5818,E2,508.5,0.25,104,132.0
5819,C#6,508.75,0.125,101,132.0
5820,F#5,508.75,0.125,101,132.0
5821,F#4,508.75,0.125,101,132.0
5822,C#5,508.75,0.125,101,132.0
5823,C#5,508.75,0.125,101,132.0
5824,C#4,508.75,0.125,101,132.0
5825,F#3,508.75,0.125,101,132.0
5826,F#4,508.75,0.125,101,132.0
5827,B1,508.75,0.25,104,132.0
5828,E2,508.75,0.25,104,132.0
5829,C#6,509.0,0.125,101,132.0
5830,F#5,509.0,0.125,101,132.0
5831,F#4,509.0,0.125,101,132.0
5832,C#5,509.0,0.125,101,132.0
5833,C#5,509.0,0.125,101,132.0
5834,C#4,509.0,0.125,101,132.0
5835,F#3,509.0,0.125,101,132.0
5836,F#4,509.0,0.125,101,132.0
5837,E2,509.0,0.25,119,132.0
5838,B1,509.0,0.25,119,132.0
5839,E-2,509.0,0.25,119,132.0
5840,C#6,509.25,0.125,101,132.0
5841,F#5,509.25,0.125,101,132.0
5842,C#5,509.25,0.125,101,132.0
5843,F#4,509.25,0.125,101,132.0
5844,C#5,509.25,0.125,101,132.0
5845,F#3,509.25,0.125,101,132.0
5846,C#4,509.25,0.125,101,132.0
5847,F#4,509.25,0.125,101,132.0
5848,B1,509.25,0.25,104,132.0
5849,E2,509.25,0.25,104,132.0
5850,C#6,509.5,0.125,101,132.0
5851,F#5,509.5,0.125,101,132.0
5852,C#5,509.5,0.125,101,132.0
5853,F#4,509.5,0.125,101,132.0
5854,C#5,509.5,0.125,101,132.0
5855,F#3,509.5,0.125,101,132.0
5856,C#4,509.5,0.125,101,132.0
5857,F#4,509.5,0.125,101,132.0
5858,B1,509.5,0.25,104,132.0
5859,E2,509.5,0.25,104,132.0
5860,C#6,509.75,0.125,101,132.0
5861,F#5,509.75,0.125,101,132.0
5862,F#4,509.75,0.125,101,132.0
5863,C#5,509.75,0.125,101,132.0
5864,C#5,509.75,0.125,101,132.0
5865,C#4,509.75,0.125,101,132.0
5866,F#3,509.75,0.125,101,132.0
5867,F#4,509.75,0.125,101,132.0
5868,B1,509.75,0.25,104,132.0
5869,E2,509.75,0.25,104,132.0
5870,C#6,510.0,0.125,101,132.0
5871,F#5,510.0,0.125,101,132.0
5872,F#4,510.0,0.125,101,132.0
5873,C#5,510.0,0.125,101,132.0
5874,C#5,510.0,0.125,101,132.0
5875,C#4,510.0,0.125,101,132.0
5876,F#3,510.0,0.125,101,132.0
5877,F#4,510.0,0.125,101,132.0
5878,E2,510.0,0.25,119,132.0
5879,B1,510.0,0.25,119,132.0
5880,E-2,510.0,0.25,119,132.0
5881,C#6,510.25,0.125,101,132.0
5882,F#5,510.25,0.125,101,132.0
5883,F#4,510.25,0.125,101,132.0
5884,C#5,510.25,0.125,101,132.0
5885,C#5,510.25,0.125,101,132.0
5886,C#4,510.25,0.125,101,132.0
5887,F#3,510.25,0.125,101,132.0
5888,F#4,510.25,0.125,101,132.0
5889,B1,510.25,0.25,104,132.0
5890,E2,510.25,0.25,104,132.0
5891,C#6,510.5,0.125,101,132.0
5892,F#5,510.5,0.125,101,132.0
5893,F#4,510.5,0.125,101,132.0
5894,C#5,510.5,0.125,101,132.0
5895,C#5,510.5,0.125,101,132.0
5896,C#4,510.5,0.125,101,132.0
5897,F#3,510.5,0.125,101,132.0
5898,F#4,510.5,0.125,101,132.0
5899,B1,510.5,0.25,104,132.0
5900,E2,510.5,0.25,104,132.0
5901,C#6,510.75,0.125,101,132.0
5902,F#5,510.75,0.125,101,132.0
5903,C#5,510.75,0.125,101,132.0
5904,F#4,510.75,0.125,101,132.0
5905,C#5,510.75,0.125,101,132.0
5906,F#3,510.75,0.125,101,132.0
5907,C#4,510.75,0.125,101,132.0
5908,F#4,510.75,0.125,101,132.0
5909,B1,510.75,0.25,104,132.0
5910,E2,510.75,0.25,104,132.0
5911,C#6,511.0,0.125,101,132.0
5912,F#5,511.0,0.125,101,132.0
5913,F#4,511.0,0.125,101,132.0
5914,C#5,511.0,0.125,101,132.0
5915,C#5,511.0,0.125,101,132.0
5916,C#4,511.0,0.125,101,132.0
5917,F#3,511.0,0.125,101,132.0
5918,F#4,511.0,0.125,101,132.0
5919,E2,511.0,0.25,119,132.0
5920,B1,511.0,0.25,119,132.0
5921,E-2,511.0,0.25,119,132.0
5922,C#6,511.25,0.125,101,132.0
5923,F#5,511.25,0.125,101,132.0
5924,F#4,511.25,0.125,101,132.0
5925,C#5,511.25,0.125,101,132.0
5926,C#5,511.25,0.125,101,132.0
5927,C#4,511.25,0.125,101,132.0
5928,F#3,511.25,0.125,101,132.0
5929,F#4,511.25,0.125,101,132.0
5930,B1,511.25,0.25,104,132.0
5931,E2,511.25,0.25,104,132.0
5932,C#6,511.5,0.125,101,132.0
5933,F#5,511.5,0.125,101,132.0
5934,C#5,511.5,0.125,101,132.0
5935,F#4,511.5,0.125,101,132.0
5936,C#5,511.5,0.125,101,132.0
5937,F#3,511.5,0.125,101,132.0
5938,C#4,511.5,0.125,101,132.0
5939,F#4,511.5,0.125,101,132.0
5940,B1,511.5,0.25,104,132.0
5941,E2,511.5,0.25,104,132.0
5942,C#6,511.75,0.125,101,132.0
5943,F#5,511.75,0.125,101,132.0
5944,C#5,511.75,0.125,101,132.0
5945,F#4,511.75,0.125,101,132.0
5946,C#5,511.75,0.125,101,132.0
5947,F#3,511.75,0.125,101,132.0
5948,C#4,511.75,0.125,101,132.0
5949,F#4,511.75,0.125,101,132.0
5950,B1,511.75,0.25,104,132.0
5951,E2,511.75,0.25,104,132.0
5952,C#6,512.0,1.75,101,132.0
5953,F#4,512.0,1.75,101,132.0
5954,C#5,512.0,1.75,101,132.0
5955,F#5,512.0,1.75,101,132.0
5956,C#5,512.0,1.75,101,132.0
5957,F#4,512.0,1.75,101,132.0
5958,C#4,512.0,1.75,101,132.0
5959,F#3,512.0,1.75,101,132.0
5960,E-5,516.0,4.0,63,132.0
5961,D5,516.0,4.0,63,132.0
5962,C#5,516.0,4.0,63,132.0
5963,C5,516.0,4.0,63,132.0
5964,C4,516.0,4.0,63,132.0
5965,B4,516.0,4.0,63,132.0
5966,B-4,516.0,4.0,63,132.0
5967,A4,516.0,4.0,63,132.0
5968,G#4,516.0,4.0,63,132.0
5969,G4,516.0,4.0,63,132.0
5970,F#4,516.0,4.0,63,132.0
5971,F4,516.0,4.0,63,132.0
5972,E4,516.0,4.0,63,132.0
5973,D4,516.0,4.0,63,132.0
5974,E-4,516.0,4.0,63,132.0
5975,C#4,516.0,4.0,63,132.0
5976,B0,528.0,0.375,127,132.0
5977,B1,528.0,0.75,86,132.0
5978,B3,528.0,0.75,86,132.0
5979,B4,528.0,0.75,86,132.0
5980,B0,528.0,0.75,86,132.0
5981,B5,528.0,0.75,86,132.0
5982,B4,528.0,0.75,86,132.0
5983,B3,528.0,0.75,86,132.0
5984,B2,528.0,0.75,86,132.0
5985,B4,528.0,0.75,86,132.0
5986,B1,528.0,0.75,86,132.0
5987,E-5,528.0,4.0,63,132.0
5988,D5,528.0,4.0,63,132.0
5989,C#5,528.0,4.0,63,132.0
5990,C5,528.0,4.0,63,132.0
5991,C4,528.0,4.0,63,132.0
5992,B4,528.0,4.0,63,132.0
5993,B-4,528.0,4.0,63,132.0
5994,A4,528.0,4.0,63,132.0
5995,G#4,528.0,4.0,63,132.0
5996,G4,528.0,4.0,63,132.0
5997,F#4,528.0,4.0,63,132.0
5998,F4,528.0,4.0,63,132.0
5999,E4,528.0,4.0,63,132.0
6000,D4,528.0,4.0,63,132.0
6001,E-4,528.0,4.0,63,132.0
6002,C#4,528.0,4.0,63,132.0
6003,A3,528.0,4.0,111,132.0
6004,E3,528.0,4.0,111,132.0
6005,C#3,528.0,4.0,111,132.0
6006,F#2,528.0,0.25,75,132.0
6007,B1,528.0,0.25,75,132.0
6008,B-5,528.0,0.25,75,132.0
6009,B-5,528.25,0.25,18,132.0
6010,B0,528.5,0.125,93,132.0
6011,F#2,528.5,0.25,52,132.0
6012,B-5,528.5,0.25,52,132.0
6013,B0,528.75,0.125,75,132.0
6014,B2,528.75,0.25,79,132.0
6015,B4,528.75,0.25,79,132.0
6016,B5,528.75,0.25,79,132.0
6017,B1,528.75,0.25,79,132.0
6018,B6,528.75,0.25,79,132.0
6019,B5,528.75,0.25,79,132.0
6020,B4,528.75,0.25,79,132.0
6021,B3,528.75,0.25,79,132.0
6022,B5,528.75,0.25,79,132.0
6023,B2,528.75,0.25,79,132.0
6024,B-5,528.75,0.25,79,132.0
6025,B0,529.0,0.125,68,132.0
6026,F#2,529.0,0.25,81,132.0
6027,B1,529.0,0.25,81,132.0
6028,E2,529.0,0.25,81,132.0
6029,E1,529.0,0.25,81,132.0
6030,B-5,529.0,0.25,81,132.0
6031,B-5,529.25,0.25,25,132.0
6032,B0,529.25,0.125,75,132.0
6033,B0,529.5,0.125,99,132.0
6034,B2,529.5,0.5,83,132.0
6035,B4,529.5,0.5,83,132.0
6036,B5,529.5,0.5,83,132.0
6037,B1,529.5,0.5,83,132.0
6038,B6,529.5,0.5,83,132.0
6039,B5,529.5,0.5,83,132.0
6040,B4,529.5,0.5,83,132.0
6041,B3,529.5,0.5,83,132.0
6042,B5,529.5,0.5,83,132.0
6043,B2,529.5,0.5,83,132.0
6044,F#2,529.5,0.25,42,132.0
6045,B-5,529.5,0.25,42,132.0
6046,B-5,529.75,0.25,11,132.0
6047,B0,529.75,0.375,127,132.0
6048,F#2,530.0,0.25,69,132.0
6049,B1,530.0,0.25,69,132.0
6050,B-5,530.0,0.25,69,132.0
6051,B0,530.25,0.125,93,132.0
6052,G2,530.25,0.25,77,132.0
6053,G4,530.25,0.25,77,132.0
6054,G5,530.25,0.25,77,132.0
6055,G1,530.25,0.25,77,132.0
6056,G6,530.25,0.25,77,132.0
6057,G5,530.25,0.25,77,132.0
6058,G4,530.25,0.25,77,132.0
6059,G3,530.25,0.25,77,132.0
6060,G5,530.25,0.25,77,132.0
6061,G2,530.25,0.25,77,132.0
6062,B-5,530.25,0.25,77,132.0
6063,B0,530.5,0.125,75,132.0
6064,B2,530.5,0.5,83,132.0
6065,B4,530.5,0.5,83,132.0
6066,B5,530.5,0.5,83,132.0
6067,B1,530.5,0.5,83,132.0
6068,B6,530.5,0.5,83,132.0
6069,B5,530.5,0.5,83,132.0
6070,B4,530.5,0.5,83,132.0
6071,B3,530.5,0.5,83,132.0
6072,B5,530.5,0.5,83,132.0
6073,B2,530.5,0.5,83,132.0
6074,F#2,530.5,0.25,52,132.0
6075,B-5,530.5,0.25,52,132.0
6076,B-5,530.75,0.25,39,132.0
6077,B0,530.75,0.125,59,132.0
6078,B0,531.0,0.125,58,132.0
6079,B2,531.0,0.5,83,132.0
6080,B4,531.0,0.5,83,132.0
6081,B5,531.0,0.5,83,132.0
6082,B1,531.0,0.5,83,132.0
6083,B6,531.0,0.5,83,132.0
6084,B5,531.0,0.5,83,132.0
6085,B4,531.0,0.5,83,132.0
6086,B3,531.0,0.5,83,132.0
6087,B5,531.0,0.5,83,132.0
6088,B2,531.0,0.5,83,132.0
6089,F#2,531.0,0.25,82,132.0
6090,E2,531.0,0.25,82,132.0
6091,B1,531.0,0.25,82,132.0
6092,E1,531.0,0.25,82,132.0
6093,B-5,531.0,0.25,82,132.0
6094,B-5,531.25,0.25,25,132.0
6095,B0,531.25,0.125,72,132.0
6096,B0,531.5,0.125,91,132.0
6097,B2,531.5,0.5,83,132.0
6098,B4,531.5,0.5,83,132.0
6099,B5,531.5,0.5,83,132.0
6100,B1,531.5,0.5,83,132.0
6101,B6,531.5,0.5,83,132.0
6102,B5,531.5,0.5,83,132.0
6103,B4,531.5,0.5,83,132.0
6104,B3,531.5,0.5,83,132.0
6105,B5,531.5,0.5,83,132.0
6106,B2,531.5,0.5,83,132.0
6107,F#2,531.5,0.25,42,132.0
6108,B-5,531.5,0.25,42,132.0
6109,B-5,531.75,0.25,11,132.0
6110,B0,531.75,0.25,127,132.0
6111,B0,536.0,0.25,127,132.0
6112,B1,536.0,0.75,83,132.0
6113,B3,536.0,0.75,83,132.0
6114,B4,536.0,0.75,83,132.0
6115,B0,536.0,0.75,83,132.0
6116,B5,536.0,0.75,83,132.0
6117,B4,536.0,0.75,83,132.0
6118,B3,536.0,0.75,83,132.0
6119,B2,536.0,0.75,83,132.0
6120,B4,536.0,0.75,83,132.0
6121,B1,536.0,0.75,83,132.0
6122,B-5,536.0,0.25,75,132.0
6123,F#2,536.0,0.25,75,132.0
6124,B1,536.0,0.25,75,132.0
6125,E-5,536.0,4.0,63,132.0
6126,D5,536.0,4.0,63,132.0
6127,C#5,536.0,4.0,63,132.0
6128,C5,536.0,4.0,63,132.0
6129,C4,536.0,4.0,63,132.0
6130,B4,536.0,4.0,63,132.0
6131,B-4,536.0,4.0,63,132.0
6132,A4,536.0,4.0,63,132.0
6133,G#4,536.0,4.0,63,132.0
6134,G4,536.0,4.0,63,132.0
6135,F#4,536.0,4.0,63,132.0
6136,F4,536.0,4.0,63,132.0
6137,E4,536.0,4.0,63,132.0
6138,D4,536.0,4.0,63,132.0
6139,E-4,536.0,4.0,63,132.0
6140,C#4,536.0,4.0,63,132.0
6141,A3,536.0,4.0,111,132.0
6142,E3,536.0,4.0,111,132.0
6143,C#3,536.0,4.0,111,132.0
6144,B-5,536.25,0.25,18,132.0
6145,B0,536.25,0.125,79,132.0
6146,B0,536.5,0.125,64,132.0
6147,B-5,536.5,0.25,52,132.0
6148,F#2,536.5,0.25,52,132.0
6149,B0,536.75,0.125,62,132.0
6150,B2,536.75,0.25,79,132.0
6151,B4,536.75,0.25,79,132.0
6152,B5,536.75,0.25,79,132.0
6153,B1,536.75,0.25,79,132.0
6154,B6,536.75,0.25,79,132.0
6155,B5,536.75,0.25,79,132.0
6156,B4,536.75,0.25,79,132.0
6157,B3,536.75,0.25,79,132.0
6158,B5,536.75,0.25,79,132.0
6159,B2,536.75,0.25,79,132.0
6160,B-5,536.75,0.25,79,132.0
6161,B0,537.0,0.125,66,132.0
6162,B-5,537.0,0.25,82,132.0
6163,F#2,537.0,0.25,82,132.0
6164,E2,537.0,0.25,82,132.0
6165,B1,537.0,0.25,82,132.0
6166,E1,537.0,0.25,82,132.0
6167,B-5,537.25,0.25,25,132.0
6168,B0,537.25,0.125,91,132.0
6169,B0,537.5,0.125,98,132.0
6170,B2,537.5,0.5,83,132.0
6171,B4,537.5,0.5,83,132.0
6172,B5,537.5,0.5,83,132.0
6173,B1,537.5,0.5,83,132.0
6174,B6,537.5,0.5,83,132.0
6175,B5,537.5,0.5,83,132.0
6176,B4,537.5,0.5,83,132.0
6177,B3,537.5,0.5,83,132.0
6178,B5,537.5,0.5,83,132.0
6179,B2,537.5,0.5,83,132.0
6180,B-5,537.5,0.25,42,132.0
6181,F#2,537.5,0.25,42,132.0
6182,B-5,537.75,0.25,11,132.0
6183,B0,537.75,0.375,127,132.0
6184,B2,538.0,0.375,83,132.0
6185,B4,538.0,0.375,83,132.0
6186,B5,538.0,0.375,83,132.0
6187,B1,538.0,0.375,83,132.0
6188,B6,538.0,0.375,83,132.0
6189,B5,538.0,0.375,83,132.0
6190,B4,538.0,0.375,83,132.0
6191,B3,538.0,0.375,83,132.0
6192,B5,538.0,0.375,83,132.0
6193,B2,538.0,0.375,83,132.0
6194,B-5,538.0,0.25,70,132.0
6195,F#2,538.0,0.25,70,132.0
6196,B1,538.0,0.25,70,132.0
6197,B-5,538.25,0.25,18,132.0
6198,B0,538.25,0.125,66,132.0
6199,B0,538.5,0.125,74,132.0
6200,B2,538.5,0.5,83,132.0
6201,B4,538.5,0.5,83,132.0
6202,B5,538.5,0.5,83,132.0
6203,B1,538.5,0.5,83,132.0
6204,B6,538.5,0.5,83,132.0
6205,B5,538.5,0.5,83,132.0
6206,B4,538.5,0.5,83,132.0
6207,B3,538.5,0.5,83,132.0
6208,B5,538.5,0.5,83,132.0
6209,B2,538.5,0.5,83,132.0
6210,B-5,538.5,0.25,52,132.0
6211,F#2,538.5,0.25,52,132.0
6212,B-5,538.75,0.25,39,132.0
6213,B0,538.75,0.125,84,132.0
6214,B1,539.0,0.375,127,132.0
6215,B2,539.0,0.5,83,132.0
6216,B4,539.0,0.5,83,132.0
6217,B5,539.0,0.5,83,132.0
6218,B1,539.0,0.5,83,132.0
6219,B6,539.0,0.5,83,132.0
6220,B5,539.0,0.5,83,132.0
6221,B4,539.0,0.5,83,132.0
6222,B3,539.0,0.5,83,132.0
6223,B5,539.0,0.5,83,132.0
6224,B2,539.0,0.5,83,132.0
6225,B-5,539.0,0.25,82,132.0
6226,F#2,539.0,0.25,82,132.0
6227,E2,539.0,0.25,82,132.0
6228,B1,539.0,0.25,82,132.0
6229,E1,539.0,0.25,82,132.0
6230,B-5,539.25,0.25,25,132.0
6231,B0,539.5,0.125,103,132.0
6232,B2,539.5,0.5,83,132.0
6233,B4,539.5,0.5,83,132.0
6234,B5,539.5,0.5,83,132.0
6235,B1,539.5,0.5,83,132.0
6236,B6,539.5,0.5,83,132.0
6237,B5,539.5,0.5,83,132.0
6238,B4,539.5,0.5,83,132.0
6239,B3,539.5,0.5,83,132.0
6240,B5,539.5,0.5,83,132.0
6241,B2,539.5,0.5,83,132.0
6242,B-5,539.5,0.25,42,132.0
6243,F#2,539.5,0.25,42,132.0
6244,B-5,539.75,0.25,69,132.0
6245,B1,539.75,0.25,69,132.0
6246,B0,540.0,0.375,127,132.0
6247,B1,540.0,0.75,86,132.0
6248,B3,540.0,0.75,86,132.0
6249,B4,540.0,0.75,86,132.0
6250,B0,540.0,0.75,86,132.0
6251,B5,540.0,0.75,86,132.0
6252,B4,540.0,0.75,86,132.0
6253,B3,540.0,0.75,86,132.0
6254,B2,540.0,0.75,86,132.0
6255,B4,540.0,0.75,86,132.0
6256,B1,540.0,0.75,86,132.0
6257,F#2,540.0,0.25,75,132.0
6258,B1,540.0,0.25,75,132.0
6259,B-5,540.0,0.25,75,132.0
6260,B-5,540.25,0.25,18,132.0
6261,B0,540.5,0.125,93,132.0
6262,F#2,540.5,0.25,52,132.0
6263,B-5,540.5,0.25,52,132.0
6264,B0,540.75,0.125,75,132.0
6265,B2,540.75,0.25,79,132.0
6266,B4,540.75,0.25,79,132.0
6267,B5,540.75,0.25,79,132.0
6268,B1,540.75,0.25,79,132.0
6269,B6,540.75,0.25,79,132.0
6270,B5,540.75,0.25,79,132.0
6271,B4,540.75,0.25,79,132.0
6272,B3,540.75,0.25,79,132.0
6273,B5,540.75,0.25,79,132.0
6274,B2,540.75,0.25,79,132.0
6275,B-5,540.75,0.25,79,132.0
6276,B0,541.0,0.125,68,132.0
6277,F#2,541.0,0.25,81,132.0
6278,B1,541.0,0.25,81,132.0
6279,E2,541.0,0.25,81,132.0
6280,E1,541.0,0.25,81,132.0
6281,B-5,541.0,0.25,81,132.0
6282,B-5,541.25,0.25,25,132.0
6283,B0,541.25,0.125,75,132.0
6284,B0,541.5,0.125,99,132.0
6285,B2,541.5,0.5,83,132.0
6286,B4,541.5,0.5,83,132.0
6287,B5,541.5,0.5,83,132.0
6288,B1,541.5,0.5,83,132.0
6289,B6,541.5,0.5,83,132.0
6290,B5,541.5,0.5,83,132.0
6291,B4,541.5,0.5,83,132.0
6292,B3,541.5,0.5,83,132.0
6293,B5,541.5,0.5,83,132.0
6294,B2,541.5,0.5,83,132.0
6295,F#2,541.5,0.25,42,132.0
6296,B-5,541.5,0.25,42,132.0
6297,B-5,541.75,0.25,11,132.0
6298,B0,541.75,0.375,127,132.0
6299,F#2,542.0,0.25,69,132.0
6300,B1,542.0,0.25,69,132.0
6301,B-5,542.0,0.25,69,132.0
6302,B0,542.25,0.125,93,132.0
6303,G2,542.25,0.25,77,132.0
6304,G4,542.25,0.25,77,132.0
6305,G5,542.25,0.25,77,132.0
6306,G1,542.25,0.25,77,132.0
6307,G6,542.25,0.25,77,132.0
6308,G5,542.25,0.25,77,132.0
6309,G4,542.25,0.25,77,132.0
6310,G3,542.25,0.25,77,132.0
6311,G5,542.25,0.25,77,132.0
6312,G2,542.25,0.25,77,132.0
6313,B-5,542.25,0.25,77,132.0
6314,B0,542.5,0.125,75,132.0
6315,B2,542.5,0.5,83,132.0
6316,B4,542.5,0.5,83,132.0
6317,B5,542.5,0.5,83,132.0
6318,B1,542.5,0.5,83,132.0
6319,B6,542.5,0.5,83,132.0
6320,B5,542.5,0.5,83,132.0
6321,B4,542.5,0.5,83,132.0
6322,B3,542.5,0.5,83,132.0
6323,B5,542.5,0.5,83,132.0
6324,B2,542.5,0.5,83,132.0
6325,F#2,542.5,0.25,52,132.0
6326,B-5,542.5,0.25,52,132.0
6327,B-5,542.75,0.25,39,132.0
6328,B0,542.75,0.125,59,132.0
6329,B0,543.0,0.125,58,132.0
6330,B2,543.0,0.5,83,132.0
6331,B4,543.0,0.5,83,132.0
6332,B5,543.0,0.5,83,132.0
6333,B1,543.0,0.5,83,132.0
6334,B6,543.0,0.5,83,132.0
6335,B5,543.0,0.5,83,132.0
6336,B4,543.0,0.5,83,132.0
6337,B3,543.0,0.5,83,132.0
6338,B5,543.0,0.5,83,132.0
6339,B2,543.0,0.5,83,132.0
6340,F#2,543.0,0.25,82,132.0
6341,E2,543.0,0.25,82,132.0
6342,B1,543.0,0.25,82,132.0
6343,E1,543.0,0.25,82,132.0
6344,B-5,543.0,0.25,82,132.0
6345,B-5,543.25,0.25,25,132.0
6346,B0,543.25,0.125,72,132.0
6347,B0,543.5,0.125,91,132.0
6348,B2,543.5,0.5,83,132.0
6349,B4,543.5,0.5,83,132.0
6350,B5,543.5,0.5,83,132.0
6351,B1,543.5,0.5,83,132.0
6352,B6,543.5,0.5,83,132.0
6353,B5,543.5,0.5,83,132.0
6354,B4,543.5,0.5,83,132.0
6355,B3,543.5,0.5,83,132.0
6356,B5,543.5,0.5,83,132.0
6357,B2,543.5,0.5,83,132.0
6358,F#2,543.5,0.25,42,132.0
6359,B-5,543.5,0.25,42,132.0
6360,B-5,543.75,0.25,11,132.0
6361,B0,543.75,0.25,127,132.0
6362,B0,544.0,0.25,127,132.0
6363,B1,544.0,0.75,83,132.0
6364,B3,544.0,0.75,83,132.0
6365,B4,544.0,0.75,83,132.0
6366,B0,544.0,0.75,83,132.0
6367,B5,544.0,0.75,83,132.0
6368,B4,544.0,0.75,83,132.0
6369,B3,544.0,0.75,83,132.0
6370,B2,544.0,0.75,83,132.0
6371,B4,544.0,0.75,83,132.0
6372,B1,544.0,0.75,83,132.0
6373,B-5,544.0,0.25,75,132.0
6374,F#2,544.0,0.25,75,132.0
6375,B1,544.0,0.25,75,132.0
6376,E-5,544.0,4.0,63,132.0
6377,D5,544.0,4.0,63,132.0
6378,C#5,544.0,4.0,63,132.0
6379,C5,544.0,4.0,63,132.0
6380,C4,544.0,4.0,63,132.0
6381,B4,544.0,4.0,63,132.0
6382,B-4,544.0,4.0,63,132.0
6383,A4,544.0,4.0,63,132.0
6384,G#4,544.0,4.0,63,132.0
6385,G4,544.0,4.0,63,132.0
6386,F#4,544.0,4.0,63,132.0
6387,F4,544.0,4.0,63,132.0
6388,E4,544.0,4.0,63,132.0
6389,D4,544.0,4.0,63,132.0
6390,E-4,544.0,4.0,63,132.0
6391,C#4,544.0,4.0,63,132.0
6392,B-5,544.25,0.25,18,132.0
6393,B0,544.25,0.125,79,132.0
6394,B0,544.5,0.125,64,132.0
6395,B-5,544.5,0.25,52,132.0
6396,F#2,544.5,0.25,52,132.0
6397,B0,544.75,0.125,62,132.0
6398,B2,544.75,0.25,79,132.0
6399,B4,544.75,0.25,79,132.0
6400,B5,544.75,0.25,79,132.0
6401,B1,544.75,0.25,79,132.0
6402,B6,544.75,0.25,79,132.0
6403,B5,544.75,0.25,79,132.0
6404,B4,544.75,0.25,79,132.0
6405,B3,544.75,0.25,79,132.0
6406,B5,544.75,0.25,79,132.0
6407,B2,544.75,0.25,79,132.0
6408,B-5,544.75,0.25,79,132.0
6409,B0,545.0,0.125,66,132.0
6410,B-5,545.0,0.25,82,132.0
6411,F#2,545.0,0.25,82,132.0
6412,E2,545.0,0.25,82,132.0
6413,B1,545.0,0.25,82,132.0
6414,E1,545.0,0.25,82,132.0
6415,B-5,545.25,0.25,25,132.0
6416,B0,545.25,0.125,91,132.0
6417,B0,545.5,0.125,98,132.0
6418,B2,545.5,0.5,83,132.0
6419,B4,545.5,0.5,83,132.0
6420,B5,545.5,0.5,83,132.0
6421,B1,545.5,0.5,83,132.0
6422,B6,545.5,0.5,83,132.0
6423,B5,545.5,0.5,83,132.0
6424,B4,545.5,0.5,83,132.0
6425,B3,545.5,0.5,83,132.0
6426,B5,545.5,0.5,83,132.0
6427,B2,545.5,0.5,83,132.0
6428,B-5,545.5,0.25,42,132.0
6429,F#2,545.5,0.25,42,132.0
6430,B-5,545.75,0.25,11,132.0
6431,B0,545.75,0.375,127,132.0
6432,B2,546.0,0.375,83,132.0
6433,B4,546.0,0.375,83,132.0
6434,B5,546.0,0.375,83,132.0
6435,B1,546.0,0.375,83,132.0
6436,B6,546.0,0.375,83,132.0
6437,B5,546.0,0.375,83,132.0
6438,B4,546.0,0.375,83,132.0
6439,B3,546.0,0.375,83,132.0
6440,B5,546.0,0.375,83,132.0
6441,B2,546.0,0.375,83,132.0
6442,B-5,546.0,0.25,70,132.0
6443,F#2,546.0,0.25,70,132.0
6444,B1,546.0,0.25,70,132.0
6445,B-5,546.25,0.25,18,132.0
6446,B0,546.25,0.125,66,132.0
6447,B0,546.5,0.125,74,132.0
6448,B2,546.5,0.5,83,132.0
6449,B4,546.5,0.5,83,132.0
6450,B5,546.5,0.5,83,132.0
6451,B1,546.5,0.5,83,132.0
6452,B6,546.5,0.5,83,132.0
6453,B5,546.5,0.5,83,132.0
6454,B4,546.5,0.5,83,132.0
6455,B3,546.5,0.5,83,132.0
6456,B5,546.5,0.5,83,132.0
6457,B2,546.5,0.5,83,132.0
6458,B-5,546.5,0.25,52,132.0
6459,F#2,546.5,0.25,52,132.0
6460,B-5,546.75,0.25,39,132.0
6461,B0,546.75,0.125,84,132.0
6462,B1,547.0,0.375,127,132.0
6463,B2,547.0,0.5,83,132.0
6464,B4,547.0,0.5,83,132.0
6465,B5,547.0,0.5,83,132.0
6466,B1,547.0,0.5,83,132.0
6467,B6,547.0,0.5,83,132.0
6468,B5,547.0,0.5,83,132.0
6469,B4,547.0,0.5,83,132.0
6470,B3,547.0,0.5,83,132.0
6471,B5,547.0,0.5,83,132.0
6472,B2,547.0,0.5,83,132.0
6473,B-5,547.0,0.25,82,132.0
6474,F#2,547.0,0.25,82,132.0
6475,E2,547.0,0.25,82,132.0
6476,B1,547.0,0.25,82,132.0
6477,E1,547.0,0.25,82,132.0
6478,B-5,547.25,0.25,25,132.0
6479,B0,547.5,0.125,103,132.0
6480,B2,547.5,0.5,83,132.0
6481,B4,547.5,0.5,83,132.0
6482,B5,547.5,0.5,83,132.0
6483,B1,547.5,0.5,83,132.0
6484,B6,547.5,0.5,83,132.0
6485,B5,547.5,0.5,83,132.0
6486,B4,547.5,0.5,83,132.0
6487,B3,547.5,0.5,83,132.0
6488,B5,547.5,0.5,83,132.0
6489,B2,547.5,0.5,83,132.0
6490,B-5,547.5,0.25,42,132.0
6491,F#2,547.5,0.25,42,132.0
6492,B-5,547.75,0.25,69,132.0
6493,B1,547.75,0.25,69,132.0
6494,B0,556.0,0.375,127,132.0
6495,B1,556.0,0.75,86,132.0
6496,B3,556.0,0.75,86,132.0
6497,B4,556.0,0.75,86,132.0
6498,B0,556.0,0.75,86,132.0
6499,B5,556.0,0.75,86,132.0
6500,B4,556.0,0.75,86,132.0
6501,B3,556.0,0.75,86,132.0
6502,B2,556.0,0.75,86,132.0
6503,B4,556.0,0.75,86,132.0
6504,B1,556.0,0.75,86,132.0
6505,A3,556.0,4.0,111,132.0
6506,E3,556.0,4.0,111,132.0
6507,C#3,556.0,4.0,111,132.0
6508,F#2,556.0,0.25,75,132.0
6509,B1,556.0,0.25,75,132.0
6510,B-5,556.0,0.25,75,132.0
6511,E-5,556.0,8.0,63,132.0
6512,D5,556.0,8.0,63,132.0
6513,C#5,556.0,8.0,63,132.0
6514,C5,556.0,8.0,63,132.0
6515,C4,556.0,8.0,63,132.0
6516,B4,556.0,8.0,63,132.0
6517,B-4,556.0,8.0,63,132.0
6518,A4,556.0,8.0,63,132.0
6519,G#4,556.0,8.0,63,132.0
6520,G4,556.0,8.0,63,132.0
6521,F#4,556.0,8.0,63,132.0
6522,F4,556.0,8.0,63,132.0
6523,E4,556.0,8.0,63,132.0
6524,D4,556.0,8.0,63,132.0
6525,E-4,556.0,8.0,63,132.0
6526,C#4,556.0,8.0,63,132.0
6527,B-5,556.25,0.25,18,132.0
6528,B0,556.5,0.125,93,132.0
6529,F#2,556.5,0.25,52,132.0
6530,B-5,556.5,0.25,52,132.0
6531,B0,556.75,0.125,75,132.0
6532,B2,556.75,0.25,79,132.0
6533,B4,556.75,0.25,79,132.0
6534,B5,556.75,0.25,79,132.0
6535,B1,556.75,0.25,79,132.0
6536,B6,556.75,0.25,79,132.0
6537,B5,556.75,0.25,79,132.0
6538,B4,556.75,0.25,79,132.0
6539,B3,556.75,0.25,79,132.0
6540,B5,556.75,0.25,79,132.0
6541,B2,556.75,0.25,79,132.0
6542,B-5,556.75,0.25,79,132.0
6543,B0,557.0,0.125,68,132.0
6544,F#2,557.0,0.25,81,132.0
6545,B1,557.0,0.25,81,132.0
6546,E2,557.0,0.25,81,132.0
6547,E1,557.0,0.25,81,132.0
6548,B-5,557.0,0.25,81,132.0
6549,B-5,557.25,0.25,25,132.0
6550,B0,557.25,0.125,75,132.0
6551,B0,557.5,0.125,99,132.0
6552,B2,557.5,0.5,83,132.0
6553,B4,557.5,0.5,83,132.0
6554,B5,557.5,0.5,83,132.0
6555,B1,557.5,0.5,83,132.0
6556,B6,557.5,0.5,83,132.0
6557,B5,557.5,0.5,83,132.0
6558,B4,557.5,0.5,83,132.0
6559,B3,557.5,0.5,83,132.0
6560,B5,557.5,0.5,83,132.0
6561,B2,557.5,0.5,83,132.0
6562,F#2,557.5,0.25,42,132.0
6563,B-5,557.5,0.25,42,132.0
6564,B-5,557.75,0.25,11,132.0
6565,B0,557.75,0.375,127,132.0
6566,F#2,558.0,0.25,69,132.0
6567,B1,558.0,0.25,69,132.0
6568,B-5,558.0,0.25,69,132.0
6569,B0,558.25,0.125,93,132.0
6570,G2,558.25,0.25,77,132.0
6571,G4,558.25,0.25,77,132.0
6572,G5,558.25,0.25,77,132.0
6573,G1,558.25,0.25,77,132.0
6574,G6,558.25,0.25,77,132.0
6575,G5,558.25,0.25,77,132.0
6576,G4,558.25,0.25,77,132.0
6577,G3,558.25,0.25,77,132.0
6578,G5,558.25,0.25,77,132.0
6579,G2,558.25,0.25,77,132.0
6580,B-5,558.25,0.25,77,132.0
6581,B0,558.5,0.125,75,132.0
6582,B2,558.5,0.5,83,132.0
6583,B4,558.5,0.5,83,132.0
6584,B5,558.5,0.5,83,132.0
6585,B1,558.5,0.5,83,132.0
6586,B6,558.5,0.5,83,132.0
6587,B5,558.5,0.5,83,132.0
6588,B4,558.5,0.5,83,132.0
6589,B3,558.5,0.5,83,132.0
6590,B5,558.5,0.5,83,132.0
6591,B2,558.5,0.5,83,132.0
6592,F#2,558.5,0.25,52,132.0
6593,B-5,558.5,0.25,52,132.0
6594,B-5,558.75,0.25,39,132.0
6595,B0,558.75,0.125,59,132.0
6596,B0,559.0,0.125,58,132.0
6597,B2,559.0,0.5,83,132.0
6598,B4,559.0,0.5,83,132.0
6599,B5,559.0,0.5,83,132.0
6600,B1,559.0,0.5,83,132.0
6601,B6,559.0,0.5,83,132.0
6602,B5,559.0,0.5,83,132.0
6603,B4,559.0,0.5,83,132.0
6604,B3,559.0,0.5,83,132.0
6605,B5,559.0,0.5,83,132.0
6606,B2,559.0,0.5,83,132.0
6607,F#2,559.0,0.25,82,132.0
6608,E2,559.0,0.25,82,132.0
6609,B1,559.0,0.25,82,132.0
6610,E1,559.0,0.25,82,132.0
6611,B-5,559.0,0.25,82,132.0
6612,B-5,559.25,0.25,25,132.0
6613,B0,559.25,0.125,72,132.0
6614,B0,559.5,0.125,91,132.0
6615,B2,559.5,0.5,83,132.0
6616,B4,559.5,0.5,83,132.0
6617,B5,559.5,0.5,83,132.0
6618,B1,559.5,0.5,83,132.0
6619,B6,559.5,0.5,83,132.0
6620,B5,559.5,0.5,83,132.0
6621,B4,559.5,0.5,83,132.0
6622,B3,559.5,0.5,83,132.0
6623,B5,559.5,0.5,83,132.0
6624,B2,559.5,0.5,83,132.0
6625,F#2,559.5,0.25,42,132.0
6626,B-5,559.5,0.25,42,132.0
6627,B-5,559.75,0.25,11,132.0
6628,B0,559.75,0.25,127,132.0
6629,B0,564.0,0.25,127,132.0
6630,B1,564.0,0.75,83,132.0
6631,B3,564.0,0.75,83,132.0
6632,B4,564.0,0.75,83,132.0
6633,B0,564.0,0.75,83,132.0
6634,B5,564.0,0.75,83,132.0
6635,B4,564.0,0.75,83,132.0
6636,B3,564.0,0.75,83,132.0
6637,B2,564.0,0.75,83,132.0
6638,B4,564.0,0.75,83,132.0
6639,B1,564.0,0.75,83,132.0
6640,B-5,564.0,0.25,75,132.0
6641,F#2,564.0,0.25,75,132.0
6642,B1,564.0,0.25,75,132.0
6643,A3,564.0,4.0,111,132.0
6644,E3,564.0,4.0,111,132.0
6645,C#3,564.0,4.0,111,132.0
6646,B-5,564.25,0.25,18,132.0
6647,B0,564.25,0.125,79,132.0
6648,B0,564.5,0.125,64,132.0
6649,B-5,564.5,0.25,52,132.0
6650,F#2,564.5,0.25,52,132.0
6651,B0,564.75,0.125,62,132.0
6652,B2,564.75,0.25,79,132.0
6653,B4,564.75,0.25,79,132.0
6654,B5,564.75,0.25,79,132.0
6655,B1,564.75,0.25,79,132.0
6656,B6,564.75,0.25,79,132.0
6657,B5,564.75,0.25,79,132.0
6658,B4,564.75,0.25,79,132.0
6659,B3,564.75,0.25,79,132.0
6660,B5,564.75,0.25,79,132.0
6661,B2,564.75,0.25,79,132.0
6662,B-5,564.75,0.25,79,132.0
6663,B0,565.0,0.125,66,132.0
6664,B-5,565.0,0.25,82,132.0
6665,F#2,565.0,0.25,82,132.0
6666,E2,565.0,0.25,82,132.0
6667,B1,565.0,0.25,82,132.0
6668,E1,565.0,0.25,82,132.0
6669,B-5,565.25,0.25,25,132.0
6670,B0,565.25,0.125,91,132.0
6671,B0,565.5,0.125,98,132.0
6672,B2,565.5,0.5,83,132.0
6673,B4,565.5,0.5,83,132.0
6674,B5,565.5,0.5,83,132.0
6675,B1,565.5,0.5,83,132.0
6676,B6,565.5,0.5,83,132.0
6677,B5,565.5,0.5,83,132.0
6678,B4,565.5,0.5,83,132.0
6679,B3,565.5,0.5,83,132.0
6680,B5,565.5,0.5,83,132.0
6681,B2,565.5,0.5,83,132.0
6682,B-5,565.5,0.25,42,132.0
6683,F#2,565.5,0.25,42,132.0
6684,B-5,565.75,0.25,11,132.0
6685,B0,565.75,0.375,127,132.0
6686,B2,566.0,0.375,83,132.0
6687,B4,566.0,0.375,83,132.0
6688,B5,566.0,0.375,83,132.0
6689,B1,566.0,0.375,83,132.0
6690,B6,566.0,0.375,83,132.0
6691,B5,566.0,0.375,83,132.0
6692,B4,566.0,0.375,83,132.0
6693,B3,566.0,0.375,83,132.0
6694,B5,566.0,0.375,83,132.0
6695,B2,566.0,0.375,83,132.0
6696,B-5,566.0,0.25,70,132.0
6697,F#2,566.0,0.25,70,132.0
6698,B1,566.0,0.25,70,132.0
6699,B-5,566.25,0.25,18,132.0
6700,B0,566.25,0.125,66,132.0
6701,B0,566.5,0.125,74,132.0
6702,B2,566.5,0.5,83,132.0
6703,B4,566.5,0.5,83,132.0
6704,B5,566.5,0.5,83,132.0
6705,B1,566.5,0.5,83,132.0
6706,B6,566.5,0.5,83,132.0
6707,B5,566.5,0.5,83,132.0
6708,B4,566.5,0.5,83,132.0
6709,B3,566.5,0.5,83,132.0
6710,B5,566.5,0.5,83,132.0
6711,B2,566.5,0.5,83,132.0
6712,B-5,566.5,0.25,52,132.0
6713,F#2,566.5,0.25,52,132.0
6714,B-5,566.75,0.25,39,132.0
6715,B0,566.75,0.125,84,132.0
6716,B1,567.0,0.375,127,132.0
6717,B2,567.0,0.5,83,132.0
6718,B4,567.0,0.5,83,132.0
6719,B5,567.0,0.5,83,132.0
6720,B1,567.0,0.5,83,132.0
6721,B6,567.0,0.5,83,132.0
6722,B5,567.0,0.5,83,132.0
6723,B4,567.0,0.5,83,132.0
6724,B3,567.0,0.5,83,132.0
6725,B5,567.0,0.5,83,132.0
6726,B2,567.0,0.5,83,132.0
6727,B-5,567.0,0.25,82,132.0
6728,F#2,567.0,0.25,82,132.0
6729,E2,567.0,0.25,82,132.0
6730,B1,567.0,0.25,82,132.0
6731,E1,567.0,0.25,82,132.0
6732,B-5,567.25,0.25,25,132.0
6733,B0,567.5,0.125,103,132.0
6734,B2,567.5,0.5,83,132.0
6735,B4,567.5,0.5,83,132.0
6736,B5,567.5,0.5,83,132.0
6737,B1,567.5,0.5,83,132.0
6738,B6,567.5,0.5,83,132.0
6739,B5,567.5,0.5,83,132.0
6740,B4,567.5,0.5,83,132.0
6741,B3,567.5,0.5,83,132.0
6742,B5,567.5,0.5,83,132.0
6743,B2,567.5,0.5,83,132.0
6744,B-5,567.5,0.25,42,132.0
6745,F#2,567.5,0.25,42,132.0
6746,B-5,567.75,0.25,69,132.0
6747,B1,567.75,0.25,69,132.0
6748,B0,568.0,0.375,127,132.0
6749,B1,568.0,0.75,86,132.0
6750,B3,568.0,0.75,86,132.0
6751,B4,568.0,0.75,86,132.0
6752,B0,568.0,0.75,86,132.0
6753,B5,568.0,0.75,86,132.0
6754,B4,568.0,0.75,86,132.0
6755,B3,568.0,0.75,86,132.0
6756,B2,568.0,0.75,86,132.0
6757,B4,568.0,0.75,86,132.0
6758,B1,568.0,0.75,86,132.0
6759,F#2,568.0,0.25,75,132.0
6760,B1,568.0,0.25,75,132.0
6761,B-5,568.0,0.25,75,132.0
6762,B-5,568.25,0.25,18,132.0
6763,B0,568.5,0.125,93,132.0
6764,F#2,568.5,0.25,52,132.0
6765,B-5,568.5,0.25,52,132.0
6766,B0,568.75,0.125,75,132.0
6767,B2,568.75,0.25,79,132.0
6768,B4,568.75,0.25,79,132.0
6769,B5,568.75,0.25,79,132.0
6770,B1,568.75,0.25,79,132.0
6771,B6,568.75,0.25,79,132.0
6772,B5,568.75,0.25,79,132.0
6773,B4,568.75,0.25,79,132.0
6774,B3,568.75,0.25,79,132.0
6775,B5,568.75,0.25,79,132.0
6776,B2,568.75,0.25,79,132.0
6777,B-5,568.75,0.25,79,132.0
6778,B0,569.0,0.125,68,132.0
6779,F#2,569.0,0.25,81,132.0
6780,B1,569.0,0.25,81,132.0
6781,E2,569.0,0.25,81,132.0
6782,E1,569.0,0.25,81,132.0
6783,B-5,569.0,0.25,81,132.0
6784,B-5,569.25,0.25,25,132.0
6785,B0,569.25,0.125,75,132.0
6786,B0,569.5,0.125,99,132.0
6787,B2,569.5,0.5,83,132.0
6788,B4,569.5,0.5,83,132.0
6789,B5,569.5,0.5,83,132.0
6790,B1,569.5,0.5,83,132.0
6791,B6,569.5,0.5,83,132.0
6792,B5,569.5,0.5,83,132.0
6793,B4,569.5,0.5,83,132.0
6794,B3,569.5,0.5,83,132.0
6795,B5,569.5,0.5,83,132.0
6796,B2,569.5,0.5,83,132.0
6797,F#2,569.5,0.25,42,132.0
6798,B-5,569.5,0.25,42,132.0
6799,B-5,569.75,0.25,11,132.0
6800,B0,569.75,0.375,127,132.0
6801,F#2,570.0,0.25,69,132.0
6802,B1,570.0,0.25,69,132.0
6803,B-5,570.0,0.25,69,132.0
6804,B0,570.25,0.125,93,132.0
6805,G2,570.25,0.25,77,132.0
6806,G4,570.25,0.25,77,132.0
6807,G5,570.25,0.25,77,132.0
6808,G1,570.25,0.25,77,132.0
6809,G6,570.25,0.25,77,132.0
6810,G5,570.25,0.25,77,132.0
6811,G4,570.25,0.25,77,132.0
6812,G3,570.25,0.25,77,132.0
6813,G5,570.25,0.25,77,132.0
6814,G2,570.25,0.25,77,132.0
6815,B-5,570.25,0.25,77,132.0
6816,B0,570.5,0.125,75,132.0
6817,B2,570.5,0.5,83,132.0
6818,B4,570.5,0.5,83,132.0
6819,B5,570.5,0.5,83,132.0
6820,B1,570.5,0.5,83,132.0
6821,B6,570.5,0.5,83,132.0
6822,B5,570.5,0.5,83,132.0
6823,B4,570.5,0.5,83,132.0
6824,B3,570.5,0.5,83,132.0
6825,B5,570.5,0.5,83,132.0
6826,B2,570.5,0.5,83,132.0
6827,F#2,570.5,0.25,52,132.0
6828,B-5,570.5,0.25,52,132.0
6829,B-5,570.75,0.25,39,132.0
6830,B0,570.75,0.125,59,132.0
6831,B0,571.0,0.125,58,132.0
6832,B2,571.0,0.5,83,132.0
6833,B4,571.0,0.5,83,132.0
6834,B5,571.0,0.5,83,132.0
6835,B1,571.0,0.5,83,132.0
6836,B6,571.0,0.5,83,132.0
6837,B5,571.0,0.5,83,132.0
6838,B4,571.0,0.5,83,132.0
6839,B3,571.0,0.5,83,132.0
6840,B5,571.0,0.5,83,132.0
6841,B2,571.0,0.5,83,132.0
6842,F#2,571.0,0.25,82,132.0
6843,E2,571.0,0.25,82,132.0
6844,B1,571.0,0.25,82,132.0
6845,E1,571.0,0.25,82,132.0
6846,B-5,571.0,0.25,82,132.0
6847,B-5,571.25,0.25,25,132.0
6848,B0,571.25,0.125,72,132.0
6849,B0,571.5,0.125,91,132.0
6850,B2,571.5,0.5,83,132.0
6851,B4,571.5,0.5,83,132.0
6852,B5,571.5,0.5,83,132.0
6853,B1,571.5,0.5,83,132.0
6854,B6,571.5,0.5,83,132.0
6855,B5,571.5,0.5,83,132.0
6856,B4,571.5,0.5,83,132.0
6857,B3,571.5,0.5,83,132.0
6858,B5,571.5,0.5,83,132.0
6859,B2,571.5,0.5,83,132.0
6860,F#2,571.5,0.25,42,132.0
6861,B-5,571.5,0.25,42,132.0
6862,B-5,571.75,0.25,11,132.0
6863,B0,571.75,0.25,127,132.0
6864,B0,572.0,0.25,127,132.0
6865,G4,572.0,0.5,101,132.0
6866,G5,572.0,0.5,101,132.0
6867,B4,572.0,0.5,101,132.0
6868,B5,572.0,0.5,101,132.0
6869,B4,572.0,0.5,101,132.0
6870,G3,572.0,0.5,101,132.0
6871,G4,572.0,0.5,101,132.0
6872,B3,572.0,0.5,101,132.0
6873,F#2,572.0,0.25,103,132.0
6874,B1,572.0,0.25,103,132.0
6875,E-5,572.0,4.0,63,132.0
6876,D5,572.0,4.0,63,132.0
6877,C#5,572.0,4.0,63,132.0
6878,C5,572.0,4.0,63,132.0
6879,C4,572.0,4.0,63,132.0
6880,B4,572.0,4.0,63,132.0
6881,B-4,572.0,4.0,63,132.0
6882,A4,572.0,4.0,63,132.0
6883,G#4,572.0,4.0,63,132.0
6884,G4,572.0,4.0,63,132.0
6885,F#4,572.0,4.0,63,132.0
6886,F4,572.0,4.0,63,132.0
6887,E4,572.0,4.0,63,132.0
6888,D4,572.0,4.0,63,132.0
6889,E-4,572.0,4.0,63,132.0
6890,C#4,572.0,4.0,63,132.0
6891,F#2,572.5,0.25,73,132.0
6892,G4,572.75,0.5,101,132.0
6893,G5,572.75,0.5,101,132.0
6894,B4,572.75,0.5,101,132.0
6895,B5,572.75,0.5,101,132.0
6896,B4,572.75,0.5,101,132.0
6897,B3,572.75,0.5,101,132.0
6898,G4,572.75,0.5,101,132.0
6899,G3,572.75,0.5,101,132.0
6900,F#2,573.0,0.25,92,132.0
6901,B1,573.0,0.25,92,132.0
6902,E2,573.0,0.25,92,132.0
6903,E1,573.0,0.25,92,132.0
6904,B5,573.5,0.5,101,132.0
6905,B4,573.5,0.5,101,132.0
6906,G5,573.5,0.5,101,132.0
6907,G4,573.5,0.5,101,132.0
6908,B4,573.5,0.5,101,132.0
6909,B3,573.5,0.5,101,132.0
6910,G4,573.5,0.5,101,132.0
6911,G3,573.5,0.5,101,132.0
6912,E3,574.0,1.5,127,132.0
6913,F2,574.0,0.25,127,132.0
6914,C4,574.0,2.0,103,132.0
6915,A4,574.0,0.5,101,132.0
6916,A5,574.0,0.5,101,132.0
6917,C#5,574.0,0.5,101,132.0
6918,C#6,574.0,0.5,101,132.0
6919,C#5,574.0,0.5,101,132.0
6920,C#4,574.0,0.5,101,132.0
6921,A4,574.0,0.5,101,132.0
6922,A3,574.0,0.5,101,132.0
6923,C#6,574.75,0.5,101,132.0
6924,C#5,574.75,0.5,101,132.0
6925,A5,574.75,0.5,101,132.0
6926,A4,574.75,0.5,101,132.0
6927,C#5,574.75,0.5,101,132.0
6928,C#4,574.75,0.5,101,132.0
6929,A4,574.75,0.5,101,132.0
6930,A3,574.75,0.5,101,132.0
6931,G#2,574.75,0.25,80,132.0
6932,D2,574.75,0.25,80,132.0
6933,D2,575.0,0.25,80,132.0
6934,G2,575.5,0.25,127,132.0
6935,A4,575.5,0.5,104,132.0
6936,A5,575.5,0.5,104,132.0
6937,C#5,575.5,0.5,104,132.0
6938,C#6,575.5,0.5,104,132.0
6939,C#5,575.5,0.5,104,132.0
6940,C#4,575.5,0.5,104,132.0
6941,A4,575.5,0.5,104,132.0
6942,A3,575.5,0.5,104,132.0
6943,G#3,575.5,0.5,104,132.0
6944,B0,584.0,0.375,127,132.0
6945,C4,584.0,0.25,103,132.0
6946,B1,584.0,0.75,86,132.0
6947,B3,584.0,0.75,86,132.0
6948,B4,584.0,0.75,86,132.0
6949,B0,584.0,0.75,86,132.0
6950,B5,584.0,0.75,86,132.0
6951,B4,584.0,0.75,86,132.0
6952,B3,584.0,0.75,86,132.0
6953,B2,584.0,0.75,86,132.0
6954,B4,584.0,0.75,86,132.0
6955,B1,584.0,0.75,86,132.0
6956,A3,584.0,4.0,111,132.0
6957,E3,584.0,4.0,111,132.0
6958,C#3,584.0,4.0,111,132.0
6959,F#2,584.0,0.25,75,132.0
6960,B1,584.0,0.25,75,132.0
6961,B-5,584.0,0.25,75,132.0
6962,E-5,584.0,8.0,63,132.0
6963,D5,584.0,8.0,63,132.0
6964,C#5,584.0,8.0,63,132.0
6965,C5,584.0,8.0,63,132.0
6966,C4,584.0,8.0,63,132.0
6967,B4,584.0,8.0,63,132.0
6968,B-4,584.0,8.0,63,132.0
6969,A4,584.0,8.0,63,132.0
6970,G#4,584.0,8.0,63,132.0
6971,G4,584.0,8.0,63,132.0
6972,F#4,584.0,8.0,63,132.0
6973,F4,584.0,8.0,63,132.0
6974,E4,584.0,8.0,63,132.0
6975,D4,584.0,8.0,63,132.0
6976,E-4,584.0,8.0,63,132.0
6977,C#4,584.0,8.0,63,132.0
6978,B-5,584.25,0.25,18,132.0
6979,B0,584.5,0.125,93,132.0
6980,F#2,584.5,0.25,52,132.0
6981,B-5,584.5,0.25,52,132.0
6982,B0,584.75,0.125,75,132.0
6983,B2,584.75,0.25,79,132.0
6984,B4,584.75,0.25,79,132.0
6985,B5,584.75,0.25,79,132.0
6986,B1,584.75,0.25,79,132.0
6987,B6,584.75,0.25,79,132.0
6988,B5,584.75,0.25,79,132.0
6989,B4,584.75,0.25,79,132.0
6990,B3,584.75,0.25,79,132.0
6991,B5,584.75,0.25,79,132.0
6992,B2,584.75,0.25,79,132.0
6993,B-5,584.75,0.25,79,132.0
6994,B0,585.0,0.125,68,132.0
6995,F#2,585.0,0.25,81,132.0
6996,B1,585.0,0.25,81,132.0
6997,E2,585.0,0.25,81,132.0
6998,E1,585.0,0.25,81,132.0
6999,B-5,585.0,0.25,81,132.0
7000,B-5,585.25,0.25,25,132.0
7001,B0,585.25,0.125,75,132.0
7002,B0,585.5,0.125,99,132.0
7003,B2,585.5,0.5,83,132.0
7004,B4,585.5,0.5,83,132.0
7005,B5,585.5,0.5,83,132.0
7006,B1,585.5,0.5,83,132.0
7007,B6,585.5,0.5,83,132.0
7008,B5,585.5,0.5,83,132.0
7009,B4,585.5,0.5,83,132.0
7010,B3,585.5,0.5,83,132.0
7011,B5,585.5,0.5,83,132.0
7012,B2,585.5,0.5,83,132.0
7013,F#2,585.5,0.25,42,132.0
7014,B-5,585.5,0.25,42,132.0
7015,B-5,585.75,0.25,11,132.0
7016,B0,585.75,0.375,127,132.0
7017,F#2,586.0,0.25,69,132.0
7018,B1,586.0,0.25,69,132.0
7019,B-5,586.0,0.25,69,132.0
7020,B0,586.25,0.125,93,132.0
7021,G2,586.25,0.25,77,132.0
7022,G4,586.25,0.25,77,132.0
7023,G5,586.25,0.25,77,132.0
7024,G1,586.25,0.25,77,132.0
7025,G6,586.25,0.25,77,132.0
7026,G5,586.25,0.25,77,132.0
7027,G4,586.25,0.25,77,132.0
7028,G3,586.25,0.25,77,132.0
7029,G5,586.25,0.25,77,132.0
7030,G2,586.25,0.25,77,132.0
7031,B-5,586.25,0.25,77,132.0
7032,B0,586.5,0.125,75,132.0
7033,B2,586.5,0.5,83,132.0
7034,B4,586.5,0.5,83,132.0
7035,B5,586.5,0.5,83,132.0
7036,B1,586.5,0.5,83,132.0
7037,B6,586.5,0.5,83,132.0
7038,B5,586.5,0.5,83,132.0
7039,B4,586.5,0.5,83,132.0
7040,B3,586.5,0.5,83,132.0
7041,B5,586.5,0.5,83,132.0
7042,B2,586.5,0.5,83,132.0
7043,F#2,586.5,0.25,52,132.0
7044,B-5,586.5,0.25,52,132.0
7045,B-5,586.75,0.25,39,132.0
7046,B0,586.75,0.125,59,132.0
7047,B0,587.0,0.125,58,132.0
7048,B2,587.0,0.5,83,132.0
7049,B4,587.0,0.5,83,132.0
7050,B5,587.0,0.5,83,132.0
7051,B1,587.0,0.5,83,132.0
7052,B6,587.0,0.5,83,132.0
7053,B5,587.0,0.5,83,132.0
7054,B4,587.0,0.5,83,132.0
7055,B3,587.0,0.5,83,132.0
7056,B5,587.0,0.5,83,132.0
7057,B2,587.0,0.5,83,132.0
7058,F#2,587.0,0.25,82,132.0
7059,E2,587.0,0.25,82,132.0
7060,B1,587.0,0.25,82,132.0
7061,E1,587.0,0.25,82,132.0
7062,B-5,587.0,0.25,82,132.0
7063,B-5,587.25,0.25,25,132.0
7064,B0,587.25,0.125,72,132.0
7065,B0,587.5,0.125,91,132.0
7066,B2,587.5,0.5,83,132.0
7067,B4,587.5,0.5,83,132.0
7068,B5,587.5,0.5,83,132.0
7069,B1,587.5,0.5,83,132.0
7070,B6,587.5,0.5,83,132.0
7071,B5,587.5,0.5,83,132.0
7072,B4,587.5,0.5,83,132.0
7073,B3,587.5,0.5,83,132.0
7074,B5,587.5,0.5,83,132.0
7075,B2,587.5,0.5,83,132.0
7076,F#2,587.5,0.25,42,132.0
7077,B-5,587.5,0.25,42,132.0
7078,B-5,587.75,0.25,11,132.0
7079,B0,587.75,0.25,127,132.0
7080,B0,592.0,0.25,127,132.0
7081,B1,592.0,0.75,83,132.0
7082,B3,592.0,0.75,83,132.0
7083,B4,592.0,0.75,83,132.0
7084,B0,592.0,0.75,83,132.0
7085,B5,592.0,0.75,83,132.0
7086,B4,592.0,0.75,83,132.0
7087,B3,592.0,0.75,83,132.0
7088,B2,592.0,0.75,83,132.0
7089,B4,592.0,0.75,83,132.0
7090,B1,592.0,0.75,83,132.0
7091,B-5,592.0,0.25,75,132.0
7092,F#2,592.0,0.25,75,132.0
7093,B1,592.0,0.25,75,132.0
7094,A3,592.0,4.0,111,132.0
7095,E3,592.0,4.0,111,132.0
7096,C#3,592.0,4.0,111,132.0
7097,B-5,592.25,0.25,18,132.0
7098,B0,592.25,0.125,79,132.0
7099,B0,592.5,0.125,64,132.0
7100,B-5,592.5,0.25,52,132.0
7101,F#2,592.5,0.25,52,132.0
7102,B0,592.75,0.125,62,132.0
7103,B2,592.75,0.25,79,132.0
7104,B4,592.75,0.25,79,132.0
7105,B5,592.75,0.25,79,132.0
7106,B1,592.75,0.25,79,132.0
7107,B6,592.75,0.25,79,132.0
7108,B5,592.75,0.25,79,132.0
7109,B4,592.75,0.25,79,132.0
7110,B3,592.75,0.25,79,132.0
7111,B5,592.75,0.25,79,132.0
7112,B2,592.75,0.25,79,132.0
7113,B-5,592.75,0.25,79,132.0
7114,B0,593.0,0.125,66,132.0
7115,B-5,593.0,0.25,82,132.0
7116,F#2,593.0,0.25,82,132.0
7117,E2,593.0,0.25,82,132.0
7118,B1,593.0,0.25,82,132.0
7119,E1,593.0,0.25,82,132.0
7120,B-5,593.25,0.25,25,132.0
7121,B0,593.25,0.125,91,132.0
7122,B0,593.5,0.125,98,132.0
7123,B2,593.5,0.5,83,132.0
7124,B4,593.5,0.5,83,132.0
7125,B5,593.5,0.5,83,132.0
7126,B1,593.5,0.5,83,132.0
7127,B6,593.5,0.5,83,132.0
7128,B5,593.5,0.5,83,132.0
7129,B4,593.5,0.5,83,132.0
7130,B3,593.5,0.5,83,132.0
7131,B5,593.5,0.5,83,132.0
7132,B2,593.5,0.5,83,132.0
7133,B-5,593.5,0.25,42,132.0
7134,F#2,593.5,0.25,42,132.0
7135,B-5,593.75,0.25,11,132.0
7136,B0,593.75,0.375,127,132.0
7137,B2,594.0,0.375,83,132.0
7138,B4,594.0,0.375,83,132.0
7139,B5,594.0,0.375,83,132.0
7140,B1,594.0,0.375,83,132.0
7141,B6,594.0,0.375,83,132.0
7142,B5,594.0,0.375,83,132.0
7143,B4,594.0,0.375,83,132.0
7144,B3,594.0,0.375,83,132.0
7145,B5,594.0,0.375,83,132.0
7146,B2,594.0,0.375,83,132.0
7147,B-5,594.0,0.25,70,132.0
7148,F#2,594.0,0.25,70,132.0
7149,B1,594.0,0.25,70,132.0
7150,B-5,594.25,0.25,18,132.0
7151,B0,594.25,0.125,66,132.0
7152,B0,594.5,0.125,74,132.0
7153,B2,594.5,0.5,83,132.0
7154,B4,594.5,0.5,83,132.0
7155,B5,594.5,0.5,83,132.0
7156,B1,594.5,0.5,83,132.0
7157,B6,594.5,0.5,83,132.0
7158,B5,594.5,0.5,83,132.0
7159,B4,594.5,0.5,83,132.0
7160,B3,594.5,0.5,83,132.0
7161,B5,594.5,0.5,83,132.0
7162,B2,594.5,0.5,83,132.0
7163,B-5,594.5,0.25,52,132.0
7164,F#2,594.5,0.25,52,132.0
7165,B-5,594.75,0.25,39,132.0
7166,B0,594.75,0.125,84,132.0
7167,B1,595.0,0.375,127,132.0
7168,B2,595.0,0.5,83,132.0
7169,B4,595.0,0.5,83,132.0
7170,B5,595.0,0.5,83,132.0
7171,B1,595.0,0.5,83,132.0
7172,B6,595.0,0.5,83,132.0
7173,B5,595.0,0.5,83,132.0
7174,B4,595.0,0.5,83,132.0
7175,B3,595.0,0.5,83,132.0
7176,B5,595.0,0.5,83,132.0
7177,B2,595.0,0.5,83,132.0
7178,B-5,595.0,0.25,82,132.0
7179,F#2,595.0,0.25,82,132.0
7180,E2,595.0,0.25,82,132.0
7181,B1,595.0,0.25,82,132.0
7182,E1,595.0,0.25,82,132.0
7183,B-5,595.25,0.25,25,132.0
7184,B0,595.5,0.125,103,132.0
7185,B2,595.5,0.5,83,132.0
7186,B4,595.5,0.5,83,132.0
7187,B5,595.5,0.5,83,132.0
7188,B1,595.5,0.5,83,132.0
7189,B6,595.5,0.5,83,132.0
7190,B5,595.5,0.5,83,132.0
7191,B4,595.5,0.5,83,132.0
7192,B3,595.5,0.5,83,132.0
7193,B5,595.5,0.5,83,132.0
7194,B2,595.5,0.5,83,132.0
7195,B-5,595.5,0.25,42,132.0
7196,F#2,595.5,0.25,42,132.0
7197,B-5,595.75,0.25,69,132.0
7198,B1,595.75,0.25,69,132.0
7199,B0,596.0,0.375,127,132.0
7200,B1,596.0,0.75,86,132.0
7201,B3,596.0,0.75,86,132.0
7202,B4,596.0,0.75,86,132.0
7203,B0,596.0,0.75,86,132.0
7204,B5,596.0,0.75,86,132.0
7205,B4,596.0,0.75,86,132.0
7206,B3,596.0,0.75,86,132.0
7207,B2,596.0,0.75,86,132.0
7208,B4,596.0,0.75,86,132.0
7209,B1,596.0,0.75,86,132.0
7210,F#2,596.0,0.25,75,132.0
7211,B1,596.0,0.25,75,132.0
7212,B-5,596.0,0.25,75,132.0
7213,B-5,596.25,0.25,18,132.0
7214,B0,596.5,0.125,93,132.0
7215,F#2,596.5,0.25,52,132.0
7216,B-5,596.5,0.25,52,132.0
7217,B0,596.75,0.125,75,132.0
7218,B2,596.75,0.25,79,132.0
7219,B4,596.75,0.25,79,132.0
7220,B5,596.75,0.25,79,132.0
7221,B1,596.75,0.25,79,132.0
7222,B6,596.75,0.25,79,132.0
7223,B5,596.75,0.25,79,132.0
7224,B4,596.75,0.25,79,132.0
7225,B3,596.75,0.25,79,132.0
7226,B5,596.75,0.25,79,132.0
7227,B2,596.75,0.25,79,132.0
7228,B-5,596.75,0.25,79,132.0
7229,B0,597.0,0.125,68,132.0
7230,F#2,597.0,0.25,81,132.0
7231,B1,597.0,0.25,81,132.0
7232,E2,597.0,0.25,81,132.0
7233,E1,597.0,0.25,81,132.0
7234,B-5,597.0,0.25,81,132.0
7235,B-5,597.25,0.25,25,132.0
7236,B0,597.25,0.125,75,132.0
7237,B0,597.5,0.125,99,132.0
7238,B2,597.5,0.5,83,132.0
7239,B4,597.5,0.5,83,132.0
7240,B5,597.5,0.5,83,132.0
7241,B1,597.5,0.5,83,132.0
7242,B6,597.5,0.5,83,132.0
7243,B5,597.5,0.5,83,132.0
7244,B4,597.5,0.5,83,132.0
7245,B3,597.5,0.5,83,132.0
7246,B5,597.5,0.5,83,132.0
7247,B2,597.5,0.5,83,132.0
7248,F#2,597.5,0.25,42,132.0
7249,B-5,597.5,0.25,42,132.0
7250,B-5,597.75,0.25,11,132.0
7251,B0,597.75,0.375,127,132.0
7252,F#2,598.0,0.25,69,132.0
7253,B1,598.0,0.25,69,132.0
7254,B-5,598.0,0.25,69,132.0
7255,B0,598.25,0.125,93,132.0
7256,G2,598.25,0.25,77,132.0
7257,G4,598.25,0.25,77,132.0
7258,G5,598.25,0.25,77,132.0
7259,G1,598.25,0.25,77,132.0
7260,G6,598.25,0.25,77,132.0
7261,G5,598.25,0.25,77,132.0
7262,G4,598.25,0.25,77,132.0
7263,G3,598.25,0.25,77,132.0
7264,G5,598.25,0.25,77,132.0
7265,G2,598.25,0.25,77,132.0
7266,B-5,598.25,0.25,77,132.0
7267,B0,598.5,0.125,75,132.0
7268,B2,598.5,0.5,83,132.0
7269,B4,598.5,0.5,83,132.0
7270,B5,598.5,0.5,83,132.0
7271,B1,598.5,0.5,83,132.0
7272,B6,598.5,0.5,83,132.0
7273,B5,598.5,0.5,83,132.0
7274,B4,598.5,0.5,83,132.0
7275,B3,598.5,0.5,83,132.0
7276,B5,598.5,0.5,83,132.0
7277,B2,598.5,0.5,83,132.0
7278,F#2,598.5,0.25,52,132.0
7279,B-5,598.5,0.25,52,132.0
7280,B-5,598.75,0.25,39,132.0
7281,B0,598.75,0.125,59,132.0
7282,B0,599.0,0.125,58,132.0
7283,B2,599.0,0.5,83,132.0
7284,B4,599.0,0.5,83,132.0
7285,B5,599.0,0.5,83,132.0
7286,B1,599.0,0.5,83,132.0
7287,B6,599.0,0.5,83,132.0
7288,B5,599.0,0.5,83,132.0
7289,B4,599.0,0.5,83,132.0
7290,B3,599.0,0.5,83,132.0
7291,B5,599.0,0.5,83,132.0
7292,B2,599.0,0.5,83,132.0
7293,F#2,599.0,0.25,82,132.0
7294,E2,599.0,0.25,82,132.0
7295,B1,599.0,0.25,82,132.0
7296,E1,599.0,0.25,82,132.0
7297,B-5,599.0,0.25,82,132.0
7298,B-5,599.25,0.25,25,132.0
7299,B0,599.25,0.125,72,132.0
7300,B0,599.5,0.125,91,132.0
7301,B2,599.5,0.5,83,132.0
7302,B4,599.5,0.5,83,132.0
7303,B5,599.5,0.5,83,132.0
7304,B1,599.5,0.5,83,132.0
7305,B6,599.5,0.5,83,132.0
7306,B5,599.5,0.5,83,132.0
7307,B4,599.5,0.5,83,132.0
7308,B3,599.5,0.5,83,132.0
7309,B5,599.5,0.5,83,132.0
7310,B2,599.5,0.5,83,132.0
7311,F#2,599.5,0.25,42,132.0
7312,B-5,599.5,0.25,42,132.0
7313,B-5,599.75,0.25,11,132.0
7314,B0,599.75,0.25,127,132.0
7315,B0,600.0,0.25,127,132.0
7316,B1,600.0,0.75,83,132.0
7317,B3,600.0,0.75,83,132.0
7318,B4,600.0,0.75,83,132.0
7319,B0,600.0,0.75,83,132.0
7320,B5,600.0,0.75,83,132.0
7321,B4,600.0,0.75,83,132.0
7322,B3,600.0,0.75,83,132.0
7323,B2,600.0,0.75,83,132.0
7324,B4,600.0,0.75,83,132.0
7325,B1,600.0,0.75,83,132.0
7326,B-5,600.0,0.25,75,132.0
7327,F#2,600.0,0.25,75,132.0
7328,B1,600.0,0.25,75,132.0
7329,E-5,600.0,4.0,63,132.0
7330,D5,600.0,4.0,63,132.0
7331,C#5,600.0,4.0,63,132.0
7332,C5,600.0,4.0,63,132.0
7333,C4,600.0,4.0,63,132.0
7334,B4,600.0,4.0,63,132.0
7335,B-4,600.0,4.0,63,132.0
7336,A4,600.0,4.0,63,132.0
7337,G#4,600.0,4.0,63,132.0
7338,G4,600.0,4.0,63,132.0
7339,F#4,600.0,4.0,63,132.0
7340,F4,600.0,4.0,63,132.0
7341,E4,600.0,4.0,63,132.0
7342,D4,600.0,4.0,63,132.0
7343,E-4,600.0,4.0,63,132.0
7344,C#4,600.0,4.0,63,132.0
7345,B-5,600.25,0.25,18,132.0
7346,B0,600.25,0.125,79,132.0
7347,B0,600.5,0.125,64,132.0
7348,B-5,600.5,0.25,52,132.0
7349,F#2,600.5,0.25,52,132.0
7350,B0,600.75,0.125,62,132.0
7351,B2,600.75,0.25,79,132.0
7352,B4,600.75,0.25,79,132.0
7353,B5,600.75,0.25,79,132.0
7354,B1,600.75,0.25,79,132.0
7355,B6,600.75,0.25,79,132.0
7356,B5,600.75,0.25,79,132.0
7357,B4,600.75,0.25,79,132.0
7358,B3,600.75,0.25,79,132.0
7359,B5,600.75,0.25,79,132.0
7360,B2,600.75,0.25,79,132.0
7361,B-5,600.75,0.25,79,132.0
7362,B0,601.0,0.125,66,132.0
7363,B-5,601.0,0.25,82,132.0
7364,F#2,601.0,0.25,82,132.0
7365,E2,601.0,0.25,82,132.0
7366,B1,601.0,0.25,82,132.0
7367,E1,601.0,0.25,82,132.0
7368,B-5,601.25,0.25,25,132.0
7369,B0,601.25,0.125,91,132.0
7370,B0,601.5,0.125,98,132.0
7371,B2,601.5,0.5,83,132.0
7372,B4,601.5,0.5,83,132.0
7373,B5,601.5,0.5,83,132.0
7374,B1,601.5,0.5,83,132.0
7375,B6,601.5,0.5,83,132.0
7376,B5,601.5,0.5,83,132.0
7377,B4,601.5,0.5,83,132.0
7378,B3,601.5,0.5,83,132.0
7379,B5,601.5,0.5,83,132.0
7380,B2,601.5,0.5,83,132.0
7381,B-5,601.5,0.25,42,132.0
7382,F#2,601.5,0.25,42,132.0
7383,B-5,601.75,0.25,11,132.0
7384,B0,601.75,0.375,127,132.0
7385,B2,602.0,0.375,83,132.0
7386,B4,602.0,0.375,83,132.0
7387,B5,602.0,0.375,83,132.0
7388,B1,602.0,0.375,83,132.0
7389,B6,602.0,0.375,83,132.0
7390,B5,602.0,0.375,83,132.0
7391,B4,602.0,0.375,83,132.0
7392,B3,602.0,0.375,83,132.0
7393,B5,602.0,0.375,83,132.0
7394,B2,602.0,0.375,83,132.0
7395,B-5,602.0,0.25,70,132.0
7396,F#2,602.0,0.25,70,132.0
7397,B1,602.0,0.25,70,132.0
7398,B-5,602.25,0.25,18,132.0
7399,B0,602.25,0.125,66,132.0
7400,B0,602.5,0.125,74,132.0
7401,B2,602.5,0.5,83,132.0
7402,B4,602.5,0.5,83,132.0
7403,B5,602.5,0.5,83,132.0
7404,B1,602.5,0.5,83,132.0
7405,B6,602.5,0.5,83,132.0
7406,B5,602.5,0.5,83,132.0
7407,B4,602.5,0.5,83,132.0
7408,B3,602.5,0.5,83,132.0
7409,B5,602.5,0.5,83,132.0
7410,B2,602.5,0.5,83,132.0
7411,B-5,602.5,0.25,52,132.0
7412,F#2,602.5,0.25,52,132.0
7413,B-5,602.75,0.25,39,132.0
7414,B0,602.75,0.125,84,132.0
7415,B1,603.0,0.375,127,132.0
7416,B2,603.0,0.5,83,132.0
7417,B4,603.0,0.5,83,132.0
7418,B5,603.0,0.5,83,132.0
7419,B1,603.0,0.5,83,132.0
7420,B6,603.0,0.5,83,132.0
7421,B5,603.0,0.5,83,132.0
7422,B4,603.0,0.5,83,132.0
7423,B3,603.0,0.5,83,132.0
7424,B5,603.0,0.5,83,132.0
7425,B2,603.0,0.5,83,132.0
7426,B-5,603.0,0.25,82,132.0
7427,F#2,603.0,0.25,82,132.0
7428,E2,603.0,0.25,82,132.0
7429,B1,603.0,0.25,82,132.0
7430,E1,603.0,0.25,82,132.0
7431,B-5,603.25,0.25,25,132.0
7432,B0,603.5,0.125,103,132.0
7433,B2,603.5,0.5,83,132.0
7434,B4,603.5,0.5,83,132.0
7435,B5,603.5,0.5,83,132.0
7436,B1,603.5,0.5,83,132.0
7437,B6,603.5,0.5,83,132.0
7438,B5,603.5,0.5,83,132.0
7439,B4,603.5,0.5,83,132.0
7440,B3,603.5,0.5,83,132.0
7441,B5,603.5,0.5,83,132.0
7442,B2,603.5,0.5,83,132.0
7443,B-5,603.5,0.25,42,132.0
7444,F#2,603.5,0.25,42,132.0
7445,B-5,603.75,0.25,69,132.0
7446,B1,603.75,0.25,69,132.0
7447,B0,612.0,0.375,127,132.0
7448,B1,612.0,0.75,86,132.0
7449,B3,612.0,0.75,86,132.0
7450,B4,612.0,0.75,86,132.0
7451,B0,612.0,0.75,86,132.0
7452,B5,612.0,0.75,86,132.0
7453,B4,612.0,0.75,86,132.0
7454,B3,612.0,0.75,86,132.0
7455,B2,612.0,0.75,86,132.0
7456,B4,612.0,0.75,86,132.0
7457,B1,612.0,0.75,86,132.0
7458,A3,612.0,4.0,111,132.0
7459,E3,612.0,4.0,111,132.0
7460,C#3,612.0,4.0,111,132.0
7461,F#2,612.0,0.25,75,132.0
7462,B1,612.0,0.25,75,132.0
7463,B-5,612.0,0.25,75,132.0
7464,E-5,612.0,8.0,63,132.0
7465,D5,612.0,8.0,63,132.0
7466,C#5,612.0,8.0,63,132.0
7467,C5,612.0,8.0,63,132.0
7468,C4,612.0,8.0,63,132.0
7469,B4,612.0,8.0,63,132.0
7470,B-4,612.0,8.0,63,132.0
7471,A4,612.0,8.0,63,132.0
7472,G#4,612.0,8.0,63,132.0
7473,G4,612.0,8.0,63,132.0
7474,F#4,612.0,8.0,63,132.0
7475,F4,612.0,8.0,63,132.0
7476,E4,612.0,8.0,63,132.0
7477,D4,612.0,8.0,63,132.0
7478,E-4,612.0,8.0,63,132.0
7479,C#4,612.0,8.0,63,132.0
7480,B-5,612.25,0.25,18,132.0
7481,B0,612.5,0.125,93,132.0
7482,F#2,612.5,0.25,52,132.0
7483,B-5,612.5,0.25,52,132.0
7484,B0,612.75,0.125,75,132.0
7485,B2,612.75,0.25,79,132.0
7486,B4,612.75,0.25,79,132.0
7487,B5,612.75,0.25,79,132.0
7488,B1,612.75,0.25,79,132.0
7489,B6,612.75,0.25,79,132.0
7490,B5,612.75,0.25,79,132.0
7491,B4,612.75,0.25,79,132.0
7492,B3,612.75,0.25,79,132.0
7493,B5,612.75,0.25,79,132.0
7494,B2,612.75,0.25,79,132.0
7495,B-5,612.75,0.25,79,132.0
7496,B0,613.0,0.125,68,132.0
7497,F#2,613.0,0.25,81,132.0
7498,B1,613.0,0.25,81,132.0
7499,E2,613.0,0.25,81,132.0
7500,E1,613.0,0.25,81,132.0
7501,B-5,613.0,0.25,81,132.0
7502,B-5,613.25,0.25,25,132.0
7503,B0,613.25,0.125,75,132.0
7504,B0,613.5,0.125,99,132.0
7505,B2,613.5,0.5,83,132.0
7506,B4,613.5,0.5,83,132.0
7507,B5,613.5,0.5,83,132.0
7508,B1,613.5,0.5,83,132.0
7509,B6,613.5,0.5,83,132.0
7510,B5,613.5,0.5,83,132.0
7511,B4,613.5,0.5,83,132.0
7512,B3,613.5,0.5,83,132.0
7513,B5,613.5,0.5,83,132.0
7514,B2,613.5,0.5,83,132.0
7515,F#2,613.5,0.25,42,132.0
7516,B-5,613.5,0.25,42,132.0
7517,B-5,613.75,0.25,11,132.0
7518,B0,613.75,0.375,127,132.0
7519,F#2,614.0,0.25,69,132.0
7520,B1,614.0,0.25,69,132.0
7521,B-5,614.0,0.25,69,132.0
7522,B0,614.25,0.125,93,132.0
7523,G2,614.25,0.25,77,132.0
7524,G4,614.25,0.25,77,132.0
7525,G5,614.25,0.25,77,132.0
7526,G1,614.25,0.25,77,132.0
7527,G6,614.25,0.25,77,132.0
7528,G5,614.25,0.25,77,132.0
7529,G4,614.25,0.25,77,132.0
7530,G3,614.25,0.25,77,132.0
7531,G5,614.25,0.25,77,132.0
7532,G2,614.25,0.25,77,132.0
7533,B-5,614.25,0.25,77,132.0
7534,B0,614.5,0.125,75,132.0
7535,B2,614.5,0.5,83,132.0
7536,B4,614.5,0.5,83,132.0
7537,B5,614.5,0.5,83,132.0
7538,B1,614.5,0.5,83,132.0
7539,B6,614.5,0.5,83,132.0
7540,B5,614.5,0.5,83,132.0
7541,B4,614.5,0.5,83,132.0
7542,B3,614.5,0.5,83,132.0
7543,B5,614.5,0.5,83,132.0
7544,B2,614.5,0.5,83,132.0
7545,F#2,614.5,0.25,52,132.0
7546,B-5,614.5,0.25,52,132.0
7547,B-5,614.75,0.25,39,132.0
7548,B0,614.75,0.125,59,132.0
7549,B0,615.0,0.125,58,132.0
7550,B2,615.0,0.5,83,132.0
7551,B4,615.0,0.5,83,132.0
7552,B5,615.0,0.5,83,132.0
7553,B1,615.0,0.5,83,132.0
7554,B6,615.0,0.5,83,132.0
7555,B5,615.0,0.5,83,132.0
7556,B4,615.0,0.5,83,132.0
7557,B3,615.0,0.5,83,132.0
7558,B5,615.0,0.5,83,132.0
7559,B2,615.0,0.5,83,132.0
7560,F#2,615.0,0.25,82,132.0
7561,E2,615.0,0.25,82,132.0
7562,B1,615.0,0.25,82,132.0
7563,E1,615.0,0.25,82,132.0
7564,B-5,615.0,0.25,82,132.0
7565,B-5,615.25,0.25,25,132.0
7566,B0,615.25,0.125,72,132.0
7567,B0,615.5,0.125,91,132.0
7568,B2,615.5,0.5,83,132.0
7569,B4,615.5,0.5,83,132.0
7570,B5,615.5,0.5,83,132.0
7571,B1,615.5,0.5,83,132.0
7572,B6,615.5,0.5,83,132.0
7573,B5,615.5,0.5,83,132.0
7574,B4,615.5,0.5,83,132.0
7575,B3,615.5,0.5,83,132.0
7576,B5,615.5,0.5,83,132.0
7577,B2,615.5,0.5,83,132.0
7578,F#2,615.5,0.25,42,132.0
7579,B-5,615.5,0.25,42,132.0
7580,B-5,615.75,0.25,11,132.0
7581,B0,615.75,0.25,127,132.0
7582,B0,620.0,0.25,127,132.0
7583,B1,620.0,0.75,83,132.0
7584,B3,620.0,0.75,83,132.0
7585,B4,620.0,0.75,83,132.0
7586,B0,620.0,0.75,83,132.0
7587,B5,620.0,0.75,83,132.0
7588,B4,620.0,0.75,83,132.0
7589,B3,620.0,0.75,83,132.0
7590,B2,620.0,0.75,83,132.0
7591,B4,620.0,0.75,83,132.0
7592,B1,620.0,0.75,83,132.0
7593,B-5,620.0,0.25,75,132.0
7594,F#2,620.0,0.25,75,132.0
7595,B1,620.0,0.25,75,132.0
7596,A3,620.0,4.0,111,132.0
7597,E3,620.0,4.0,111,132.0
7598,C#3,620.0,4.0,111,132.0
7599,B-5,620.25,0.25,18,132.0
7600,B0,620.25,0.125,79,132.0
7601,B0,620.5,0.125,64,132.0
7602,B-5,620.5,0.25,52,132.0
7603,F#2,620.5,0.25,52,132.0
7604,B0,620.75,0.125,62,132.0
7605,B2,620.75,0.25,79,132.0
7606,B4,620.75,0.25,79,132.0
7607,B5,620.75,0.25,79,132.0
7608,B1,620.75,0.25,79,132.0
7609,B6,620.75,0.25,79,132.0
7610,B5,620.75,0.25,79,132.0
7611,B4,620.75,0.25,79,132.0
7612,B3,620.75,0.25,79,132.0
7613,B5,620.75,0.25,79,132.0
7614,B2,620.75,0.25,79,132.0
7615,B-5,620.75,0.25,79,132.0
7616,B0,621.0,0.125,66,132.0
7617,B-5,621.0,0.25,82,132.0
7618,F#2,621.0,0.25,82,132.0
7619,E2,621.0,0.25,82,132.0
7620,B1,621.0,0.25,82,132.0
7621,E1,621.0,0.25,82,132.0
7622,B-5,621.25,0.25,25,132.0
7623,B0,621.25,0.125,91,132.0
7624,B0,621.5,0.125,98,132.0
7625,B2,621.5,0.5,83,132.0
7626,B4,621.5,0.5,83,132.0
7627,B5,621.5,0.5,83,132.0
7628,B1,621.5,0.5,83,132.0
7629,B6,621.5,0.5,83,132.0
7630,B5,621.5,0.5,83,132.0
7631,B4,621.5,0.5,83,132.0
7632,B3,621.5,0.5,83,132.0
7633,B5,621.5,0.5,83,132.0
7634,B2,621.5,0.5,83,132.0
7635,B-5,621.5,0.25,42,132.0
7636,F#2,621.5,0.25,42,132.0
7637,B-5,621.75,0.25,11,132.0
7638,B0,621.75,0.375,127,132.0
7639,B2,622.0,0.375,83,132.0
7640,B4,622.0,0.375,83,132.0
7641,B5,622.0,0.375,83,132.0
7642,B1,622.0,0.375,83,132.0
7643,B6,622.0,0.375,83,132.0
7644,B5,622.0,0.375,83,132.0
7645,B4,622.0,0.375,83,132.0
7646,B3,622.0,0.375,83,132.0
7647,B5,622.0,0.375,83,132.0
7648,B2,622.0,0.375,83,132.0
7649,B-5,622.0,0.25,70,132.0
7650,F#2,622.0,0.25,70,132.0
7651,B1,622.0,0.25,70,132.0
7652,B-5,622.25,0.25,18,132.0
7653,B0,622.25,0.125,66,132.0
7654,B0,622.5,0.125,74,132.0
7655,B2,622.5,0.5,83,132.0
7656,B4,622.5,0.5,83,132.0
7657,B5,622.5,0.5,83,132.0
7658,B1,622.5,0.5,83,132.0
7659,B6,622.5,0.5,83,132.0
7660,B5,622.5,0.5,83,132.0
7661,B4,622.5,0.5,83,132.0
7662,B3,622.5,0.5,83,132.0
7663,B5,622.5,0.5,83,132.0
7664,B2,622.5,0.5,83,132.0
7665,B-5,622.5,0.25,52,132.0
7666,F#2,622.5,0.25,52,132.0
7667,B-5,622.75,0.25,39,132.0
7668,B0,622.75,0.125,84,132.0
7669,B1,623.0,0.375,127,132.0
7670,B2,623.0,0.5,83,132.0
7671,B4,623.0,0.5,83,132.0
7672,B5,623.0,0.5,83,132.0
7673,B1,623.0,0.5,83,132.0
7674,B6,623.0,0.5,83,132.0
7675,B5,623.0,0.5,83,132.0
7676,B4,623.0,0.5,83,132.0
7677,B3,623.0,0.5,83,132.0
7678,B5,623.0,0.5,83,132.0
7679,B2,623.0,0.5,83,132.0
7680,B-5,623.0,0.25,82,132.0
7681,F#2,623.0,0.25,82,132.0
7682,E2,623.0,0.25,82,132.0
7683,B1,623.0,0.25,82,132.0
7684,E1,623.0,0.25,82,132.0
7685,B-5,623.25,0.25,25,132.0
7686,B0,623.5,0.125,103,132.0
7687,B2,623.5,0.5,83,132.0
7688,B4,623.5,0.5,83,132.0
7689,B5,623.5,0.5,83,132.0
7690,B1,623.5,0.5,83,132.0
7691,B6,623.5,0.5,83,132.0
7692,B5,623.5,0.5,83,132.0
7693,B4,623.5,0.5,83,132.0
7694,B3,623.5,0.5,83,132.0
7695,B5,623.5,0.5,83,132.0
7696,B2,623.5,0.5,83,132.0
7697,B-5,623.5,0.25,42,132.0
7698,F#2,623.5,0.25,42,132.0
7699,B-5,623.75,0.25,69,132.0
7700,B1,623.75,0.25,69,132.0
7701,B0,624.0,0.375,127,132.0
7702,B1,624.0,0.75,86,132.0
7703,B3,624.0,0.75,86,132.0
7704,B4,624.0,0.75,86,132.0
7705,B0,624.0,0.75,86,132.0
7706,B5,624.0,0.75,86,132.0
7707,B4,624.0,0.75,86,132.0
7708,B3,624.0,0.75,86,132.0
7709,B2,624.0,0.75,86,132.0
7710,B4,624.0,0.75,86,132.0
7711,B1,624.0,0.75,86,132.0
7712,F#2,624.0,0.25,75,132.0
7713,B1,624.0,0.25,75,132.0
7714,B-5,624.0,0.25,75,132.0
7715,B-5,624.25,0.25,18,132.0
7716,B0,624.5,0.125,93,132.0
7717,F#2,624.5,0.25,52,132.0
7718,B-5,624.5,0.25,52,132.0
7719,B0,624.75,0.125,75,132.0
7720,B2,624.75,0.25,79,132.0
7721,B4,624.75,0.25,79,132.0
7722,B5,624.75,0.25,79,132.0
7723,B1,624.75,0.25,79,132.0
7724,B6,624.75,0.25,79,132.0
7725,B5,624.75,0.25,79,132.0
7726,B4,624.75,0.25,79,132.0
7727,B3,624.75,0.25,79,132.0
7728,B5,624.75,0.25,79,132.0
7729,B2,624.75,0.25,79,132.0
7730,B-5,624.75,0.25,79,132.0
7731,B0,625.0,0.125,68,132.0
7732,F#2,625.0,0.25,81,132.0
7733,B1,625.0,0.25,81,132.0
7734,E2,625.0,0.25,81,132.0
7735,E1,625.0,0.25,81,132.0
7736,B-5,625.0,0.25,81,132.0
7737,B-5,625.25,0.25,25,132.0
7738,B0,625.25,0.125,75,132.0
7739,B0,625.5,0.125,99,132.0
7740,B2,625.5,0.5,83,132.0
7741,B4,625.5,0.5,83,132.0
7742,B5,625.5,0.5,83,132.0
7743,B1,625.5,0.5,83,132.0
7744,B6,625.5,0.5,83,132.0
7745,B5,625.5,0.5,83,132.0
7746,B4,625.5,0.5,83,132.0
7747,B3,625.5,0.5,83,132.0
7748,B5,625.5,0.5,83,132.0
7749,B2,625.5,0.5,83,132.0
7750,F#2,625.5,0.25,42,132.0
7751,B-5,625.5,0.25,42,132.0
7752,B-5,625.75,0.25,11,132.0
7753,B0,625.75,0.375,127,132.0
7754,F#2,626.0,0.25,69,132.0
7755,B1,626.0,0.25,69,132.0
7756,B-5,626.0,0.25,69,132.0
7757,B0,626.25,0.125,93,132.0
7758,G2,626.25,0.25,77,132.0
7759,G4,626.25,0.25,77,132.0
7760,G5,626.25,0.25,77,132.0
7761,G1,626.25,0.25,77,132.0
7762,G6,626.25,0.25,77,132.0
7763,G5,626.25,0.25,77,132.0
7764,G4,626.25,0.25,77,132.0
7765,G3,626.25,0.25,77,132.0
7766,G5,626.25,0.25,77,132.0
7767,G2,626.25,0.25,77,132.0
7768,B-5,626.25,0.25,77,132.0
7769,B0,626.5,0.125,75,132.0
7770,B2,626.5,0.5,83,132.0
7771,B4,626.5,0.5,83,132.0
7772,B5,626.5,0.5,83,132.0
7773,B1,626.5,0.5,83,132.0
7774,B6,626.5,0.5,83,132.0
7775,B5,626.5,0.5,83,132.0
7776,B4,626.5,0.5,83,132.0
7777,B3,626.5,0.5,83,132.0
7778,B5,626.5,0.5,83,132.0
7779,B2,626.5,0.5,83,132.0
7780,F#2,626.5,0.25,52,132.0
7781,B-5,626.5,0.25,52,132.0
7782,B-5,626.75,0.25,39,132.0
7783,B0,626.75,0.125,59,132.0
7784,B0,627.0,0.125,58,132.0
7785,B2,627.0,0.5,83,132.0
7786,B4,627.0,0.5,83,132.0
7787,B5,627.0,0.5,83,132.0
7788,B1,627.0,0.5,83,132.0
7789,B6,627.0,0.5,83,132.0
7790,B5,627.0,0.5,83,132.0
7791,B4,627.0,0.5,83,132.0
7792,B3,627.0,0.5,83,132.0
7793,B5,627.0,0.5,83,132.0
7794,B2,627.0,0.5,83,132.0
7795,F#2,627.0,0.25,82,132.0
7796,E2,627.0,0.25,82,132.0
7797,B1,627.0,0.25,82,132.0
7798,E1,627.0,0.25,82,132.0
7799,B-5,627.0,0.25,82,132.0
7800,B-5,627.25,0.25,25,132.0
7801,B0,627.25,0.125,72,132.0
7802,B0,627.5,0.125,91,132.0
7803,B2,627.5,0.5,83,132.0
7804,B4,627.5,0.5,83,132.0
7805,B5,627.5,0.5,83,132.0
7806,B1,627.5,0.5,83,132.0
7807,B6,627.5,0.5,83,132.0
7808,B5,627.5,0.5,83,132.0
7809,B4,627.5,0.5,83,132.0
7810,B3,627.5,0.5,83,132.0
7811,B5,627.5,0.5,83,132.0
7812,B2,627.5,0.5,83,132.0
7813,F#2,627.5,0.25,42,132.0
7814,B-5,627.5,0.25,42,132.0
7815,B-5,627.75,0.25,11,132.0
7816,B0,627.75,0.25,127,132.0
7817,B0,628.0,0.25,127,132.0
7818,G4,628.0,0.5,101,132.0
7819,G5,628.0,0.5,101,132.0
7820,B4,628.0,0.5,101,132.0
7821,B5,628.0,0.5,101,132.0
7822,B4,628.0,0.5,101,132.0
7823,G3,628.0,0.5,101,132.0
7824,G4,628.0,0.5,101,132.0
7825,B3,628.0,0.5,101,132.0
7826,F#2,628.0,0.25,103,132.0
7827,B1,628.0,0.25,103,132.0
7828,F#2,628.5,0.25,73,132.0
7829,G4,628.75,0.5,101,132.0
7830,G5,628.75,0.5,101,132.0
7831,B4,628.75,0.5,101,132.0
7832,B5,628.75,0.5,101,132.0
7833,B4,628.75,0.5,101,132.0
7834,B3,628.75,0.5,101,132.0
7835,G4,628.75,0.5,101,132.0
7836,G3,628.75,0.5,101,132.0
7837,F#2,629.0,0.25,92,132.0
7838,B1,629.0,0.25,92,132.0
7839,E2,629.0,0.25,92,132.0
7840,E1,629.0,0.25,92,132.0
7841,B5,629.5,0.5,101,132.0
7842,B4,629.5,0.5,101,132.0
7843,G5,629.5,0.5,101,132.0
7844,G4,629.5,0.5,101,132.0
7845,B4,629.5,0.5,101,132.0
7846,B3,629.5,0.5,101,132.0
7847,G4,629.5,0.5,101,132.0
7848,G3,629.5,0.5,101,132.0
7849,E3,630.0,1.5,127,132.0
7850,F2,630.0,0.25,127,132.0
7851,C4,630.0,2.0,103,132.0
7852,A4,630.0,0.5,101,132.0
7853,A5,630.0,0.5,101,132.0
7854,C#5,630.0,0.5,101,132.0
7855,C#6,630.0,0.5,101,132.0
7856,C#5,630.0,0.5,101,132.0
7857,C#4,630.0,0.5,101,132.0
7858,A4,630.0,0.5,101,132.0
7859,A3,630.0,0.5,101,132.0
7860,C#6,630.75,0.5,101,132.0
7861,C#5,630.75,0.5,101,132.0
7862,A5,630.75,0.5,101,132.0
7863,A4,630.75,0.5,101,132.0
7864,C#5,630.75,0.5,101,132.0
7865,C#4,630.75,0.5,101,132.0
7866,A4,630.75,0.5,101,132.0
7867,A3,630.75,0.5,101,132.0
7868,G#2,630.75,0.25,80,132.0
7869,D2,630.75,0.25,80,132.0
7870,D2,631.0,0.25,80,132.0
7871,G2,631.5,0.25,127,132.0
7872,A4,631.5,0.5,104,132.0
7873,A5,631.5,0.5,104,132.0
7874,C#5,631.5,0.5,104,132.0
7875,C#6,631.5,0.5,104,132.0
7876,C#5,631.5,0.5,104,132.0
7877,C#4,631.5,0.5,104,132.0
7878,A4,631.5,0.5,104,132.0
7879,A3,631.5,0.5,104,132.0
7880,G#3,631.5,0.5,104,132.0
7881,B1,632.0,0.25,103,132.0
7882,C4,632.0,0.25,103,132.0
7883,B1,632.0,0.75,86,132.0
7884,B3,632.0,0.75,86,132.0
7885,B4,632.0,0.75,86,132.0
7886,B0,632.0,0.75,86,132.0
7887,B5,632.0,0.75,86,132.0
7888,B4,632.0,0.75,86,132.0
7889,B3,632.0,0.75,86,132.0
7890,B2,632.0,0.75,86,132.0
7891,B4,632.0,0.75,86,132.0
7892,B1,632.0,0.75,86,132.0
7893,B2,632.75,0.25,83,132.0
7894,B4,632.75,0.25,83,132.0
7895,B5,632.75,0.25,83,132.0
7896,B1,632.75,0.25,83,132.0
7897,B6,632.75,0.25,83,132.0
7898,B5,632.75,0.25,83,132.0
7899,B4,632.75,0.25,83,132.0
7900,B3,632.75,0.25,83,132.0
7901,B5,632.75,0.25,83,132.0
7902,B2,632.75,0.25,83,132.0
7903,B1,633.0,0.25,102,132.0
7904,B2,633.5,0.5,83,132.0
7905,B4,633.5,0.5,83,132.0
7906,B5,633.5,0.5,83,132.0
7907,B1,633.5,0.5,83,132.0
7908,B6,633.5,0.5,83,132.0
7909,B5,633.5,0.5,83,132.0
7910,B4,633.5,0.5,83,132.0
7911,B3,633.5,0.5,83,132.0
7912,B5,633.5,0.5,83,132.0
7913,B2,633.5,0.5,83,132.0
7914,B1,634.0,0.25,102,132.0
7915,G2,634.25,0.25,83,132.0
7916,G4,634.25,0.25,83,132.0
7917,G5,634.25,0.25,83,132.0
7918,G1,634.25,0.25,83,132.0
7919,G6,634.25,0.25,83,132.0
7920,G5,634.25,0.25,83,132.0
7921,G4,634.25,0.25,83,132.0
7922,G3,634.25,0.25,83,132.0
7923,G5,634.25,0.25,83,132.0
7924,G2,634.25,0.25,83,132.0
7925,B2,634.5,0.5,83,132.0
7926,B4,634.5,0.5,83,132.0
7927,B5,634.5,0.5,83,132.0
7928,B1,634.5,0.5,83,132.0
7929,B6,634.5,0.5,83,132.0
7930,B5,634.5,0.5,83,132.0
7931,B4,634.5,0.5,83,132.0
7932,B3,634.5,0.5,83,132.0
7933,B5,634.5,0.5,83,132.0
7934,B2,634.5,0.5,83,132.0
7935,B1,635.0,0.25,103,132.0
7936,B2,635.0,0.5,83,132.0
7937,B4,635.0,0.5,83,132.0
7938,B5,635.0,0.5,83,132.0
7939,B1,635.0,0.5,83,132.0
7940,B6,635.0,0.5,83,132.0
7941,B5,635.0,0.5,83,132.0
7942,B4,635.0,0.5,83,132.0
7943,B3,635.0,0.5,83,132.0
7944,B5,635.0,0.5,83,132.0
7945,B2,635.0,0.5,83,132.0
7946,B2,635.5,0.5,83,132.0
7947,B4,635.5,0.5,83,132.0
7948,B5,635.5,0.5,83,132.0
7949,B1,635.5,0.5,83,132.0
7950,B6,635.5,0.5,83,132.0
7951,B5,635.5,0.5,83,132.0
7952,B4,635.5,0.5,83,132.0
7953,B3,635.5,0.5,83,132.0
7954,B5,635.5,0.5,83,132.0
7955,B2,635.5,0.5,83,132.0
7956,B1,636.0,0.25,103,132.0
7957,B1,636.0,0.75,83,132.0
7958,B3,636.0,0.75,83,132.0
7959,B4,636.0,0.75,83,132.0
7960,B0,636.0,0.75,83,132.0
7961,B5,636.0,0.75,83,132.0
7962,B4,636.0,0.75,83,132.0
7963,B3,636.0,0.75,83,132.0
7964,B2,636.0,0.75,83,132.0
7965,B4,636.0,0.75,83,132.0
7966,B1,636.0,0.75,83,132.0
7967,B2,636.75,0.25,83,132.0
7968,B4,636.75,0.25,83,132.0
7969,B5,636.75,0.25,83,132.0
7970,B1,636.75,0.25,83,132.0
7971,B6,636.75,0.25,83,132.0
7972,B5,636.75,0.25,83,132.0
7973,B4,636.75,0.25,83,132.0
7974,B3,636.75,0.25,83,132.0
7975,B5,636.75,0.25,83,132.0
7976,B2,636.75,0.25,83,132.0
7977,B1,637.0,0.25,103,132.0
7978,B2,637.5,0.5,83,132.0
7979,B4,637.5,0.5,83,132.0
7980,B5,637.5,0.5,83,132.0
7981,B1,637.5,0.5,83,132.0
7982,B6,637.5,0.5,83,132.0
7983,B5,637.5,0.5,83,132.0
7984,B4,637.5,0.5,83,132.0
7985,B3,637.5,0.5,83,132.0
7986,B5,637.5,0.5,83,132.0
7987,B2,637.5,0.5,83,132.0
7988,B1,638.0,0.25,104,132.0
7989,B2,638.0,0.375,83,132.0
7990,B4,638.0,0.375,83,132.0
7991,B5,638.0,0.375,83,132.0
7992,B1,638.0,0.375,83,132.0
7993,B6,638.0,0.375,83,132.0
7994,B5,638.0,0.375,83,132.0
7995,B4,638.0,0.375,83,132.0
7996,B3,638.0,0.375,83,132.0
7997,B5,638.0,0.375,83,132.0
7998,B2,638.0,0.375,83,132.0
7999,B2,638.5,0.5,83,132.0
8000,B4,638.5,0.5,83,132.0
8001,B5,638.5,0.5,83,132.0
8002,B1,638.5,0.5,83,132.0
8003,B6,638.5,0.5,83,132.0
8004,B5,638.5,0.5,83,132.0
8005,B4,638.5,0.5,83,132.0
8006,B3,638.5,0.5,83,132.0
8007,B5,638.5,0.5,83,132.0
8008,B2,638.5,0.5,83,132.0
8009,B1,639.0,0.25,104,132.0
8010,B2,639.0,0.5,83,132.0
8011,B4,639.0,0.5,83,132.0
8012,B5,639.0,0.5,83,132.0
8013,B1,639.0,0.5,83,132.0
8014,B6,639.0,0.5,83,132.0
8015,B5,639.0,0.5,83,132.0
8016,B4,639.0,0.5,83,132.0
8017,B3,639.0,0.5,83,132.0
8018,B5,639.0,0.5,83,132.0
8019,B2,639.0,0.5,83,132.0
8020,B2,639.5,0.5,83,132.0
8021,B4,639.5,0.5,83,132.0
8022,B5,639.5,0.5,83,132.0
8023,B1,639.5,0.5,83,132.0
8024,B6,639.5,0.5,83,132.0
8025,B5,639.5,0.5,83,132.0
8026,B4,639.5,0.5,83,132.0
8027,B3,639.5,0.5,83,132.0
8028,B5,639.5,0.5,83,132.0
8029,B2,639.5,0.5,83,132.0
8030,B1,640.0,0.25,103,132.0
8031,B1,640.0,0.75,86,132.0
8032,B3,640.0,0.75,86,132.0
8033,B4,640.0,0.75,86,132.0
8034,B0,640.0,0.75,86,132.0
8035,B5,640.0,0.75,86,132.0
8036,B4,640.0,0.75,86,132.0
8037,B3,640.0,0.75,86,132.0
8038,B2,640.0,0.75,86,132.0
8039,B4,640.0,0.75,86,132.0
8040,B1,640.0,0.75,86,132.0
8041,B2,640.75,0.25,83,132.0
8042,B4,640.75,0.25,83,132.0
8043,B5,640.75,0.25,83,132.0
8044,B1,640.75,0.25,83,132.0
8045,B6,640.75,0.25,83,132.0
8046,B5,640.75,0.25,83,132.0
8047,B4,640.75,0.25,83,132.0
8048,B3,640.75,0.25,83,132.0
8049,B5,640.75,0.25,83,132.0
8050,B2,640.75,0.25,83,132.0
8051,B1,641.0,0.25,102,132.0
8052,B2,641.5,0.5,83,132.0
8053,B4,641.5,0.5,83,132.0
8054,B5,641.5,0.5,83,132.0
8055,B1,641.5,0.5,83,132.0
8056,B6,641.5,0.5,83,132.0
8057,B5,641.5,0.5,83,132.0
8058,B4,641.5,0.5,83,132.0
8059,B3,641.5,0.5,83,132.0
8060,B5,641.5,0.5,83,132.0
8061,B2,641.5,0.5,83,132.0
8062,B1,642.0,0.25,102,132.0
8063,G2,642.25,0.25,83,132.0
8064,G4,642.25,0.25,83,132.0
8065,G5,642.25,0.25,83,132.0
8066,G1,642.25,0.25,83,132.0
8067,G6,642.25,0.25,83,132.0
8068,G5,642.25,0.25,83,132.0
8069,G4,642.25,0.25,83,132.0
8070,G3,642.25,0.25,83,132.0
8071,G5,642.25,0.25,83,132.0
8072,G2,642.25,0.25,83,132.0
8073,B2,642.5,0.5,83,132.0
8074,B4,642.5,0.5,83,132.0
8075,B5,642.5,0.5,83,132.0
8076,B1,642.5,0.5,83,132.0
8077,B6,642.5,0.5,83,132.0
8078,B5,642.5,0.5,83,132.0
8079,B4,642.5,0.5,83,132.0
8080,B3,642.5,0.5,83,132.0
8081,B5,642.5,0.5,83,132.0
8082,B2,642.5,0.5,83,132.0
8083,B1,643.0,0.25,103,132.0
8084,B2,643.0,0.5,83,132.0
8085,B4,643.0,0.5,83,132.0
8086,B5,643.0,0.5,83,132.0
8087,B1,643.0,0.5,83,132.0
8088,B6,643.0,0.5,83,132.0
8089,B5,643.0,0.5,83,132.0
8090,B4,643.0,0.5,83,132.0
8091,B3,643.0,0.5,83,132.0
8092,B5,643.0,0.5,83,132.0
8093,B2,643.0,0.5,83,132.0
8094,B2,643.5,0.5,83,132.0
8095,B4,643.5,0.5,83,132.0
8096,B5,643.5,0.5,83,132.0
8097,B1,643.5,0.5,83,132.0
8098,B6,643.5,0.5,83,132.0
8099,B5,643.5,0.5,83,132.0
8100,B4,643.5,0.5,83,132.0
8101,B3,643.5,0.5,83,132.0
8102,B5,643.5,0.5,83,132.0
8103,B2,643.5,0.5,83,132.0
8104,B1,644.0,0.25,103,132.0
8105,B1,644.0,0.75,83,132.0
8106,B3,644.0,0.75,83,132.0
8107,B4,644.0,0.75,83,132.0
8108,B0,644.0,0.75,83,132.0
8109,B5,644.0,0.75,83,132.0
8110,B4,644.0,0.75,83,132.0
8111,B3,644.0,0.75,83,132.0
8112,B2,644.0,0.75,83,132.0
8113,B4,644.0,0.75,83,132.0
8114,B1,644.0,0.75,83,132.0
8115,B2,644.75,0.25,83,132.0
8116,B4,644.75,0.25,83,132.0
8117,B5,644.75,0.25,83,132.0
8118,B1,644.75,0.25,83,132.0
8119,B6,644.75,0.25,83,132.0
8120,B5,644.75,0.25,83,132.0
8121,B4,644.75,0.25,83,132.0
8122,B3,644.75,0.25,83,132.0
8123,B5,644.75,0.25,83,132.0
8124,B2,644.75,0.25,83,132.0
8125,B1,645.0,0.25,103,132.0
8126,B2,645.5,0.5,83,132.0
8127,B4,645.5,0.5,83,132.0
8128,B5,645.5,0.5,83,132.0
8129,B1,645.5,0.5,83,132.0
8130,B6,645.5,0.5,83,132.0
8131,B5,645.5,0.5,83,132.0
8132,B4,645.5,0.5,83,132.0
8133,B3,645.5,0.5,83,132.0
8134,B5,645.5,0.5,83,132.0
8135,B2,645.5,0.5,83,132.0
8136,B1,646.0,0.25,104,132.0
8137,B2,646.0,0.375,83,132.0
8138,B4,646.0,0.375,83,132.0
8139,B5,646.0,0.375,83,132.0
8140,B1,646.0,0.375,83,132.0
8141,B6,646.0,0.375,83,132.0
8142,B5,646.0,0.375,83,132.0
8143,B4,646.0,0.375,83,132.0
8144,B3,646.0,0.375,83,132.0
8145,B5,646.0,0.375,83,132.0
8146,B2,646.0,0.375,83,132.0
8147,B2,646.5,0.5,83,132.0
8148,B4,646.5,0.5,83,132.0
8149,B5,646.5,0.5,83,132.0
8150,B1,646.5,0.5,83,132.0
8151,B6,646.5,0.5,83,132.0
8152,B5,646.5,0.5,83,132.0
8153,B4,646.5,0.5,83,132.0
8154,B3,646.5,0.5,83,132.0
8155,B5,646.5,0.5,83,132.0
8156,B2,646.5,0.5,83,132.0
8157,B1,647.0,0.25,104,132.0
8158,B2,647.0,0.5,83,132.0
8159,B4,647.0,0.5,83,132.0
8160,B5,647.0,0.5,83,132.0
8161,B1,647.0,0.5,83,132.0
8162,B6,647.0,0.5,83,132.0
8163,B5,647.0,0.5,83,132.0
8164,B4,647.0,0.5,83,132.0
8165,B3,647.0,0.5,83,132.0
8166,B5,647.0,0.5,83,132.0
8167,B2,647.0,0.5,83,132.0
8168,B2,647.5,0.5,83,132.0
8169,B4,647.5,0.5,83,132.0
8170,B5,647.5,0.5,83,132.0
8171,B1,647.5,0.5,83,132.0
8172,B6,647.5,0.5,83,132.0
8173,B5,647.5,0.5,83,132.0
8174,B4,647.5,0.5,83,132.0
8175,B3,647.5,0.5,83,132.0
8176,B5,647.5,0.5,83,132.0
8177,B2,647.5,0.5,83,132.0
8178,B1,648.0,0.25,103,132.0
8179,B1,648.0,0.75,86,132.0
8180,B3,648.0,0.75,86,132.0
8181,B4,648.0,0.75,86,132.0
8182,B0,648.0,0.75,86,132.0
8183,B5,648.0,0.75,86,132.0
8184,B4,648.0,0.75,86,132.0
8185,B3,648.0,0.75,86,132.0
8186,B2,648.0,0.75,86,132.0
8187,B4,648.0,0.75,86,132.0
8188,B1,648.0,0.75,86,132.0
8189,B2,648.0,4.0,127,132.0
8190,B3,648.0,4.0,127,132.0
8191,B2,648.75,0.25,83,132.0
8192,B4,648.75,0.25,83,132.0
8193,B5,648.75,0.25,83,132.0
8194,B1,648.75,0.25,83,132.0
8195,B6,648.75,0.25,83,132.0
8196,B5,648.75,0.25,83,132.0
8197,B4,648.75,0.25,83,132.0
8198,B3,648.75,0.25,83,132.0
8199,B5,648.75,0.25,83,132.0
8200,B2,648.75,0.25,83,132.0
8201,B1,649.0,0.25,102,132.0
8202,B2,649.5,0.5,83,132.0
8203,B4,649.5,0.5,83,132.0
8204,B5,649.5,0.5,83,132.0
8205,B1,649.5,0.5,83,132.0
8206,B6,649.5,0.5,83,132.0
8207,B5,649.5,0.5,83,132.0
8208,B4,649.5,0.5,83,132.0
8209,B3,649.5,0.5,83,132.0
8210,B5,649.5,0.5,83,132.0
8211,B2,649.5,0.5,83,132.0
8212,B1,650.0,0.25,102,132.0
8213,G2,650.25,0.25,83,132.0
8214,G4,650.25,0.25,83,132.0
8215,G5,650.25,0.25,83,132.0
8216,G1,650.25,0.25,83,132.0
8217,G6,650.25,0.25,83,132.0
8218,G5,650.25,0.25,83,132.0
8219,G4,650.25,0.25,83,132.0
8220,G3,650.25,0.25,83,132.0
8221,G5,650.25,0.25,83,132.0
8222,G2,650.25,0.25,83,132.0
8223,B2,650.5,0.5,83,132.0
8224,B4,650.5,0.5,83,132.0
8225,B5,650.5,0.5,83,132.0
8226,B1,650.5,0.5,83,132.0
8227,B6,650.5,0.5,83,132.0
8228,B5,650.5,0.5,83,132.0
8229,B4,650.5,0.5,83,132.0
8230,B3,650.5,0.5,83,132.0
8231,B5,650.5,0.5,83,132.0
8232,B2,650.5,0.5,83,132.0
8233,B1,651.0,0.25,103,132.0
8234,B2,651.0,0.5,83,132.0
8235,B4,651.0,0.5,83,132.0
8236,B5,651.0,0.5,83,132.0
8237,B1,651.0,0.5,83,132.0
8238,B6,651.0,0.5,83,132.0
8239,B5,651.0,0.5,83,132.0
8240,B4,651.0,0.5,83,132.0
8241,B3,651.0,0.5,83,132.0
8242,B5,651.0,0.5,83,132.0
8243,B2,651.0,0.5,83,132.0
8244,B2,651.5,0.5,83,132.0
8245,B4,651.5,0.5,83,132.0
8246,B5,651.5,0.5,83,132.0
8247,B1,651.5,0.5,83,132.0
8248,B6,651.5,0.5,83,132.0
8249,B5,651.5,0.5,83,132.0
8250,B4,651.5,0.5,83,132.0
8251,B3,651.5,0.5,83,132.0
8252,B5,651.5,0.5,83,132.0
8253,B2,651.5,0.5,83,132.0
8254,B1,664.0,0.25,103,132.0
8255,B1,664.0,0.75,83,132.0
8256,B3,664.0,0.75,83,132.0
8257,B4,664.0,0.75,83,132.0
8258,B0,664.0,0.75,83,132.0
8259,B5,664.0,0.75,83,132.0
8260,B4,664.0,0.75,83,132.0
8261,B3,664.0,0.75,83,132.0
8262,B2,664.0,0.75,83,132.0
8263,B4,664.0,0.75,83,132.0
8264,B1,664.0,0.75,83,132.0
8265,B2,664.0,12.0,127,132.0
8266,B3,664.0,12.0,127,132.0
8267,B2,664.75,0.25,83,132.0
8268,B4,664.75,0.25,83,132.0
8269,B5,664.75,0.25,83,132.0
8270,B1,664.75,0.25,83,132.0
8271,B6,664.75,0.25,83,132.0
8272,B5,664.75,0.25,83,132.0
8273,B4,664.75,0.25,83,132.0
8274,B3,664.75,0.25,83,132.0
8275,B5,664.75,0.25,83,132.0
8276,B2,664.75,0.25,83,132.0
8277,B1,665.0,0.25,103,132.0
8278,B2,665.5,0.5,83,132.0
8279,B4,665.5,0.5,83,132.0
8280,B5,665.5,0.5,83,132.0
8281,B1,665.5,0.5,83,132.0
8282,B6,665.5,0.5,83,132.0
8283,B5,665.5,0.5,83,132.0
8284,B4,665.5,0.5,83,132.0
8285,B3,665.5,0.5,83,132.0
8286,B5,665.5,0.5,83,132.0
8287,B2,665.5,0.5,83,132.0
8288,B1,666.0,0.25,104,132.0
8289,B2,666.0,0.375,83,132.0
8290,B4,666.0,0.375,83,132.0
8291,B5,666.0,0.375,83,132.0
8292,B1,666.0,0.375,83,132.0
8293,B6,666.0,0.375,83,132.0
8294,B5,666.0,0.375,83,132.0
8295,B4,666.0,0.375,83,132.0
8296,B3,666.0,0.375,83,132.0
8297,B5,666.0,0.375,83,132.0
8298,B2,666.0,0.375,83,132.0
8299,B2,666.5,0.5,83,132.0
8300,B4,666.5,0.5,83,132.0
8301,B5,666.5,0.5,83,132.0
8302,B1,666.5,0.5,83,132.0
8303,B6,666.5,0.5,83,132.0
8304,B5,666.5,0.5,83,132.0
8305,B4,666.5,0.5,83,132.0
8306,B3,666.5,0.5,83,132.0
8307,B5,666.5,0.5,83,132.0
8308,B2,666.5,0.5,83,132.0
8309,B1,667.0,0.25,104,132.0
8310,B2,667.0,0.5,83,132.0
8311,B4,667.0,0.5,83,132.0
8312,B5,667.0,0.5,83,132.0
8313,B1,667.0,0.5,83,132.0
8314,B6,667.0,0.5,83,132.0
8315,B5,667.0,0.5,83,132.0
8316,B4,667.0,0.5,83,132.0
8317,B3,667.0,0.5,83,132.0
8318,B5,667.0,0.5,83,132.0
8319,B2,667.0,0.5,83,132.0
8320,B2,667.5,0.5,83,132.0
8321,B4,667.5,0.5,83,132.0
8322,B5,667.5,0.5,83,132.0
8323,B1,667.5,0.5,83,132.0
8324,B6,667.5,0.5,83,132.0
8325,B5,667.5,0.5,83,132.0
8326,B4,667.5,0.5,83,132.0
8327,B3,667.5,0.5,83,132.0
8328,B5,667.5,0.5,83,132.0
8329,B2,667.5,0.5,83,132.0
8330,B1,676.0,0.25,103,132.0
8331,B1,676.0,0.75,86,132.0
8332,B3,676.0,0.75,86,132.0
8333,B4,676.0,0.75,86,132.0
8334,B0,676.0,0.75,86,132.0
8335,B5,676.0,0.75,86,132.0
8336,B4,676.0,0.75,86,132.0
8337,B3,676.0,0.75,86,132.0
8338,B2,676.0,0.75,86,132.0
8339,B4,676.0,0.75,86,132.0
8340,B1,676.0,0.75,86,132.0
8341,B2,676.75,0.25,83,132.0
8342,B4,676.75,0.25,83,132.0
8343,B5,676.75,0.25,83,132.0
8344,B1,676.75,0.25,83,132.0
8345,B6,676.75,0.25,83,132.0
8346,B5,676.75,0.25,83,132.0
8347,B4,676.75,0.25,83,132.0
8348,B3,676.75,0.25,83,132.0
8349,B5,676.75,0.25,83,132.0
8350,B2,676.75,0.25,83,132.0
8351,B1,677.0,0.25,102,132.0
8352,B2,677.5,0.5,83,132.0
8353,B4,677.5,0.5,83,132.0
8354,B5,677.5,0.5,83,132.0
8355,B1,677.5,0.5,83,132.0
8356,B6,677.5,0.5,83,132.0
8357,B5,677.5,0.5,83,132.0
8358,B4,677.5,0.5,83,132.0
8359,B3,677.5,0.5,83,132.0
8360,B5,677.5,0.5,83,132.0
8361,B2,677.5,0.5,83,132.0
8362,B1,678.0,0.25,102,132.0
8363,G2,678.25,0.25,83,132.0
8364,G4,678.25,0.25,83,132.0
8365,G5,678.25,0.25,83,132.0
8366,G1,678.25,0.25,83,132.0
8367,G6,678.25,0.25,83,132.0
8368,G5,678.25,0.25,83,132.0
8369,G4,678.25,0.25,83,132.0
8370,G3,678.25,0.25,83,132.0
8371,G5,678.25,0.25,83,132.0
8372,G2,678.25,0.25,83,132.0
8373,B2,678.5,0.5,83,132.0
8374,B4,678.5,0.5,83,132.0
8375,B5,678.5,0.5,83,132.0
8376,B1,678.5,0.5,83,132.0
8377,B6,678.5,0.5,83,132.0
8378,B5,678.5,0.5,83,132.0
8379,B4,678.5,0.5,83,132.0
8380,B3,678.5,0.5,83,132.0
8381,B5,678.5,0.5,83,132.0
8382,B2,678.5,0.5,83,132.0
8383,B1,679.0,0.25,103,132.0
8384,B2,679.0,0.5,83,132.0
8385,B4,679.0,0.5,83,132.0
8386,B5,679.0,0.5,83,132.0
8387,B1,679.0,0.5,83,132.0
8388,B6,679.0,0.5,83,132.0
8389,B5,679.0,0.5,83,132.0
8390,B4,679.0,0.5,83,132.0
8391,B3,679.0,0.5,83,132.0
8392,B5,679.0,0.5,83,132.0
8393,B2,679.0,0.5,83,132.0
8394,B2,679.5,0.5,83,132.0
8395,B4,679.5,0.5,83,132.0
8396,B5,679.5,0.5,83,132.0
8397,B1,679.5,0.5,83,132.0
8398,B6,679.5,0.5,83,132.0
8399,B5,679.5,0.5,83,132.0
8400,B4,679.5,0.5,83,132.0
8401,B3,679.5,0.5,83,132.0
8402,B5,679.5,0.5,83,132.0
8403,B2,679.5,0.5,83,132.0
8404,B1,680.0,0.25,103,132.0
8405,B1,680.0,0.75,83,132.0
8406,B3,680.0,0.75,83,132.0
8407,B4,680.0,0.75,83,132.0
8408,B0,680.0,0.75,83,132.0
8409,B5,680.0,0.75,83,132.0
8410,B4,680.0,0.75,83,132.0
8411,B3,680.0,0.75,83,132.0
8412,B2,680.0,0.75,83,132.0
8413,B4,680.0,0.75,83,132.0
8414,B1,680.0,0.75,83,132.0
8415,B2,680.75,0.25,83,132.0
8416,B4,680.75,0.25,83,132.0
8417,B5,680.75,0.25,83,132.0
8418,B1,680.75,0.25,83,132.0
8419,B6,680.75,0.25,83,132.0
8420,B5,680.75,0.25,83,132.0
8421,B4,680.75,0.25,83,132.0
8422,B3,680.75,0.25,83,132.0
8423,B5,680.75,0.25,83,132.0
8424,B2,680.75,0.25,83,132.0
8425,B1,681.0,0.25,103,132.0
8426,B2,681.5,0.5,83,132.0
8427,B4,681.5,0.5,83,132.0
8428,B5,681.5,0.5,83,132.0
8429,B1,681.5,0.5,83,132.0
8430,B6,681.5,0.5,83,132.0
8431,B5,681.5,0.5,83,132.0
8432,B4,681.5,0.5,83,132.0
8433,B3,681.5,0.5,83,132.0
8434,B5,681.5,0.5,83,132.0
8435,B2,681.5,0.5,83,132.0
8436,B1,682.0,0.25,104,132.0
8437,B2,682.0,0.375,83,132.0
8438,B4,682.0,0.375,83,132.0
8439,B5,682.0,0.375,83,132.0
8440,B1,682.0,0.375,83,132.0
8441,B6,682.0,0.375,83,132.0
8442,B5,682.0,0.375,83,132.0
8443,B4,682.0,0.375,83,132.0
8444,B3,682.0,0.375,83,132.0
8445,B5,682.0,0.375,83,132.0
8446,B2,682.0,0.375,83,132.0
8447,B2,682.5,0.5,83,132.0
8448,B4,682.5,0.5,83,132.0
8449,B5,682.5,0.5,83,132.0
8450,B1,682.5,0.5,83,132.0
8451,B6,682.5,0.5,83,132.0
8452,B5,682.5,0.5,83,132.0
8453,B4,682.5,0.5,83,132.0
8454,B3,682.5,0.5,83,132.0
8455,B5,682.5,0.5,83,132.0
8456,B2,682.5,0.5,83,132.0
8457,B1,683.0,0.25,104,132.0
8458,B2,683.0,0.5,83,132.0
8459,B4,683.0,0.5,83,132.0
8460,B5,683.0,0.5,83,132.0
8461,B1,683.0,0.5,83,132.0
8462,B6,683.0,0.5,83,132.0
8463,B5,683.0,0.5,83,132.0
8464,B4,683.0,0.5,83,132.0
8465,B3,683.0,0.5,83,132.0
8466,B5,683.0,0.5,83,132.0
8467,B2,683.0,0.5,83,132.0
8468,B2,683.5,0.5,83,132.0
8469,B4,683.5,0.5,83,132.0
8470,B5,683.5,0.5,83,132.0
8471,B1,683.5,0.5,83,132.0
8472,B6,683.5,0.5,83,132.0
8473,B5,683.5,0.5,83,132.0
8474,B4,683.5,0.5,83,132.0
8475,B3,683.5,0.5,83,132.0
8476,B5,683.5,0.5,83,132.0
8477,B2,683.5,0.5,83,132.0
8478,B1,684.0,0.25,103,132.0
8479,C#6,684.0,1.0,101,132.0
8480,C#5,684.0,1.0,101,132.0
8481,F#4,684.0,1.0,101,132.0
8482,F#5,684.0,1.0,101,132.0
8483,C#5,684.0,1.0,101,132.0
8484,F#4,684.0,1.0,101,132.0
8485,F#3,684.0,1.0,101,132.0
8486,C#4,684.0,1.0,101,132.0
8487,G4,688.0,0.5,104,132.0
8488,G5,688.0,0.5,104,132.0
8489,B4,688.0,0.5,104,132.0
8490,B5,688.0,0.5,104,132.0
8491,B4,688.0,0.5,104,132.0
8492,G3,688.0,0.5,104,132.0
8493,G4,688.0,0.5,104,132.0
8494,B3,688.0,0.5,104,132.0
8495,C#3,688.0,0.5,104,132.0
8496,E-5,688.0,4.0,63,132.0
8497,D5,688.0,4.0,63,132.0
8498,C#5,688.0,4.0,63,132.0
8499,C5,688.0,4.0,63,132.0
8500,C4,688.0,4.0,63,132.0
8501,B4,688.0,4.0,63,132.0
8502,B-4,688.0,4.0,63,132.0
8503,A4,688.0,4.0,63,132.0
8504,G#4,688.0,4.0,63,132.0
8505,G4,688.0,4.0,63,132.0
8506,F#4,688.0,4.0,63,132.0
8507,F4,688.0,4.0,63,132.0
8508,E4,688.0,4.0,63,132.0
8509,D4,688.0,4.0,63,132.0
8510,E-4,688.0,4.0,63,132.0
8511,C#4,688.0,4.0,63,132.0
8512,C#3,688.5,0.25,1,132.0
8513,G4,688.75,0.5,104,132.0
8514,G5,688.75,0.5,104,132.0
8515,B4,688.75,0.5,104,132.0
8516,B5,688.75,0.5,104,132.0
8517,B4,688.75,0.5,104,132.0
8518,B3,688.75,0.5,104,132.0
8519,G4,688.75,0.5,104,132.0
8520,G3,688.75,0.5,104,132.0
8521,C#3,688.75,0.5,104,132.0
8522,C#3,689.25,0.25,1,132.0
8523,B5,689.5,0.5,104,132.0
8524,B4,689.5,0.5,104,132.0
8525,G5,689.5,0.5,104,132.0
8526,G4,689.5,0.5,104,132.0
8527,B4,689.5,0.5,104,132.0
8528,B3,689.5,0.5,104,132.0
8529,G4,689.5,0.5,104,132.0
8530,G3,689.5,0.5,104,132.0
8531,C#3,689.5,0.5,104,132.0
8532,E3,690.0,1.5,127,132.0
8533,F2,690.0,0.25,127,132.0
8534,C4,690.0,2.0,103,132.0
8535,A4,690.0,0.5,104,132.0
8536,A5,690.0,0.5,104,132.0
8537,C#5,690.0,0.5,104,132.0
8538,C#6,690.0,0.5,104,132.0
8539,C#5,690.0,0.5,104,132.0
8540,C#4,690.0,0.5,104,132.0
8541,A4,690.0,0.5,104,132.0
8542,A3,690.0,0.5,104,132.0
8543,C#3,690.0,0.5,104,132.0
8544,C#3,690.5,0.25,1,132.0
8545,C#6,690.75,0.5,104,132.0
8546,C#5,690.75,0.5,104,132.0
8547,A5,690.75,0.5,104,132.0
8548,A4,690.75,0.5,104,132.0
8549,C#5,690.75,0.5,104,132.0
8550,C#4,690.75,0.5,104,132.0
8551,A4,690.75,0.5,104,132.0
8552,A3,690.75,0.5,104,132.0
8553,C#3,690.75,0.5,104,132.0
8554,G#2,690.75,0.25,80,132.0
8555,D2,690.75,0.25,80,132.0
8556,D2,691.0,0.25,80,132.0
8557,C#3,691.25,0.25,2,132.0
8558,G2,691.5,0.25,127,132.0
8559,A4,691.5,0.5,106,132.0
8560,A5,691.5,0.5,106,132.0
8561,C#5,691.5,0.5,106,132.0
8562,C#6,691.5,0.5,106,132.0
8563,C#5,691.5,0.5,106,132.0
8564,C#4,691.5,0.5,106,132.0
8565,A4,691.5,0.5,106,132.0
8566,A3,691.5,0.5,106,132.0
8567,G#3,691.5,0.5,106,132.0
8568,C#3,691.5,0.5,106,132.0
8569,B0,700.0,0.375,127,132.0
8570,C4,700.0,0.25,103,132.0
8571,B1,700.0,0.75,86,132.0
8572,B3,700.0,0.75,86,132.0
8573,B4,700.0,0.75,86,132.0
8574,B0,700.0,0.75,86,132.0
8575,B5,700.0,0.75,86,132.0
8576,B4,700.0,0.75,86,132.0
8577,B3,700.0,0.75,86,132.0
8578,B2,700.0,0.75,86,132.0
8579,B4,700.0,0.75,86,132.0
8580,B1,700.0,0.75,86,132.0
8581,A3,700.0,4.0,111,132.0
8582,E3,700.0,4.0,111,132.0
8583,C#3,700.0,4.0,111,132.0
8584,F#2,700.0,0.25,75,132.0
8585,B1,700.0,0.25,75,132.0
8586,B-5,700.0,0.25,75,132.0
8587,E-5,700.0,8.0,63,132.0
8588,D5,700.0,8.0,63,132.0
8589,C#5,700.0,8.0,63,132.0
8590,C5,700.0,8.0,63,132.0
8591,C4,700.0,8.0,63,132.0
8592,B4,700.0,8.0,63,132.0
8593,B-4,700.0,8.0,63,132.0
8594,A4,700.0,8.0,63,132.0
8595,G#4,700.0,8.0,63,132.0
8596,G4,700.0,8.0,63,132.0
8597,F#4,700.0,8.0,63,132.0
8598,F4,700.0,8.0,63,132.0
8599,E4,700.0,8.0,63,132.0
8600,D4,700.0,8.0,63,132.0
8601,E-4,700.0,8.0,63,132.0
8602,C#4,700.0,8.0,63,132.0
8603,B-5,700.25,0.25,18,132.0
8604,B0,700.5,0.125,93,132.0
8605,F#2,700.5,0.25,52,132.0
8606,B-5,700.5,0.25,52,132.0
8607,B0,700.75,0.125,75,132.0
8608,B2,700.75,0.25,79,132.0
8609,B4,700.75,0.25,79,132.0
8610,B5,700.75,0.25,79,132.0
8611,B1,700.75,0.25,79,132.0
8612,B6,700.75,0.25,79,132.0
8613,B5,700.75,0.25,79,132.0
8614,B4,700.75,0.25,79,132.0
8615,B3,700.75,0.25,79,132.0
8616,B5,700.75,0.25,79,132.0
8617,B2,700.75,0.25,79,132.0
8618,B-5,700.75,0.25,79,132.0
8619,B0,701.0,0.125,68,132.0
8620,F#2,701.0,0.25,81,132.0
8621,B1,701.0,0.25,81,132.0
8622,E2,701.0,0.25,81,132.0
8623,E1,701.0,0.25,81,132.0
8624,B-5,701.0,0.25,81,132.0
8625,B-5,701.25,0.25,25,132.0
8626,B0,701.25,0.125,75,132.0
8627,B0,701.5,0.125,99,132.0
8628,B2,701.5,0.5,83,132.0
8629,B4,701.5,0.5,83,132.0
8630,B5,701.5,0.5,83,132.0
8631,B1,701.5,0.5,83,132.0
8632,B6,701.5,0.5,83,132.0
8633,B5,701.5,0.5,83,132.0
8634,B4,701.5,0.5,83,132.0
8635,B3,701.5,0.5,83,132.0
8636,B5,701.5,0.5,83,132.0
8637,B2,701.5,0.5,83,132.0
8638,F#2,701.5,0.25,42,132.0
8639,B-5,701.5,0.25,42,132.0
8640,B-5,701.75,0.25,11,132.0
8641,B0,701.75,0.375,127,132.0
8642,F#2,702.0,0.25,69,132.0
8643,B1,702.0,0.25,69,132.0
8644,B-5,702.0,0.25,69,132.0
8645,B0,702.25,0.125,93,132.0
8646,G2,702.25,0.25,77,132.0
8647,G4,702.25,0.25,77,132.0
8648,G5,702.25,0.25,77,132.0
8649,G1,702.25,0.25,77,132.0
8650,G6,702.25,0.25,77,132.0
8651,G5,702.25,0.25,77,132.0
8652,G4,702.25,0.25,77,132.0
8653,G3,702.25,0.25,77,132.0
8654,G5,702.25,0.25,77,132.0
8655,G2,702.25,0.25,77,132.0
8656,B-5,702.25,0.25,77,132.0
8657,B0,702.5,0.125,75,132.0
8658,B2,702.5,0.5,83,132.0
8659,B4,702.5,0.5,83,132.0
8660,B5,702.5,0.5,83,132.0
8661,B1,702.5,0.5,83,132.0
8662,B6,702.5,0.5,83,132.0
8663,B5,702.5,0.5,83,132.0
8664,B4,702.5,0.5,83,132.0
8665,B3,702.5,0.5,83,132.0
8666,B5,702.5,0.5,83,132.0
8667,B2,702.5,0.5,83,132.0
8668,F#2,702.5,0.25,52,132.0
8669,B-5,702.5,0.25,52,132.0
8670,B-5,702.75,0.25,39,132.0
8671,B0,702.75,0.125,59,132.0
8672,B0,703.0,0.125,58,132.0
8673,B2,703.0,0.5,83,132.0
8674,B4,703.0,0.5,83,132.0
8675,B5,703.0,0.5,83,132.0
8676,B1,703.0,0.5,83,132.0
8677,B6,703.0,0.5,83,132.0
8678,B5,703.0,0.5,83,132.0
8679,B4,703.0,0.5,83,132.0
8680,B3,703.0,0.5,83,132.0
8681,B5,703.0,0.5,83,132.0
8682,B2,703.0,0.5,83,132.0
8683,F#2,703.0,0.25,82,132.0
8684,E2,703.0,0.25,82,132.0
8685,B1,703.0,0.25,82,132.0
8686,E1,703.0,0.25,82,132.0
8687,B-5,703.0,0.25,82,132.0
8688,B-5,703.25,0.25,25,132.0
8689,B0,703.25,0.125,72,132.0
8690,B0,703.5,0.125,91,132.0
8691,B2,703.5,0.5,83,132.0
8692,B4,703.5,0.5,83,132.0
8693,B5,703.5,0.5,83,132.0
8694,B1,703.5,0.5,83,132.0
8695,B6,703.5,0.5,83,132.0
8696,B5,703.5,0.5,83,132.0
8697,B4,703.5,0.5,83,132.0
8698,B3,703.5,0.5,83,132.0
8699,B5,703.5,0.5,83,132.0
8700,B2,703.5,0.5,83,132.0
8701,F#2,703.5,0.25,42,132.0
8702,B-5,703.5,0.25,42,132.0
8703,B-5,703.75,0.25,11,132.0
8704,B0,703.75,0.25,127,132.0
8705,B0,708.0,0.25,127,132.0
8706,B1,708.0,0.75,83,132.0
8707,B3,708.0,0.75,83,132.0
8708,B4,708.0,0.75,83,132.0
8709,B0,708.0,0.75,83,132.0
8710,B5,708.0,0.75,83,132.0
8711,B4,708.0,0.75,83,132.0
8712,B3,708.0,0.75,83,132.0
8713,B2,708.0,0.75,83,132.0
8714,B4,708.0,0.75,83,132.0
8715,B1,708.0,0.75,83,132.0
8716,B-5,708.0,0.25,75,132.0
8717,F#2,708.0,0.25,75,132.0
8718,B1,708.0,0.25,75,132.0
8719,A3,708.0,4.0,111,132.0
8720,E3,708.0,4.0,111,132.0
8721,C#3,708.0,4.0,111,132.0
8722,B-5,708.25,0.25,18,132.0
8723,B0,708.25,0.125,79,132.0
8724,B0,708.5,0.125,64,132.0
8725,B-5,708.5,0.25,52,132.0
8726,F#2,708.5,0.25,52,132.0
8727,B0,708.75,0.125,62,132.0
8728,B2,708.75,0.25,79,132.0
8729,B4,708.75,0.25,79,132.0
8730,B5,708.75,0.25,79,132.0
8731,B1,708.75,0.25,79,132.0
8732,B6,708.75,0.25,79,132.0
8733,B5,708.75,0.25,79,132.0
8734,B4,708.75,0.25,79,132.0
8735,B3,708.75,0.25,79,132.0
8736,B5,708.75,0.25,79,132.0
8737,B2,708.75,0.25,79,132.0
8738,B-5,708.75,0.25,79,132.0
8739,B0,709.0,0.125,66,132.0
8740,B-5,709.0,0.25,82,132.0
8741,F#2,709.0,0.25,82,132.0
8742,E2,709.0,0.25,82,132.0
8743,B1,709.0,0.25,82,132.0
8744,E1,709.0,0.25,82,132.0
8745,B-5,709.25,0.25,25,132.0
8746,B0,709.25,0.125,91,132.0
8747,B0,709.5,0.125,98,132.0
8748,B2,709.5,0.5,83,132.0
8749,B4,709.5,0.5,83,132.0
8750,B5,709.5,0.5,83,132.0
8751,B1,709.5,0.5,83,132.0
8752,B6,709.5,0.5,83,132.0
8753,B5,709.5,0.5,83,132.0
8754,B4,709.5,0.5,83,132.0
8755,B3,709.5,0.5,83,132.0
8756,B5,709.5,0.5,83,132.0
8757,B2,709.5,0.5,83,132.0
8758,B-5,709.5,0.25,42,132.0
8759,F#2,709.5,0.25,42,132.0
8760,B-5,709.75,0.25,11,132.0
8761,B0,709.75,0.375,127,132.0
8762,B2,710.0,0.375,83,132.0
8763,B4,710.0,0.375,83,132.0
8764,B5,710.0,0.375,83,132.0
8765,B1,710.0,0.375,83,132.0
8766,B6,710.0,0.375,83,132.0
8767,B5,710.0,0.375,83,132.0
8768,B4,710.0,0.375,83,132.0
8769,B3,710.0,0.375,83,132.0
8770,B5,710.0,0.375,83,132.0
8771,B2,710.0,0.375,83,132.0
8772,B-5,710.0,0.25,70,132.0
8773,F#2,710.0,0.25,70,132.0
8774,B1,710.0,0.25,70,132.0
8775,B-5,710.25,0.25,18,132.0
8776,B0,710.25,0.125,66,132.0
8777,B0,710.5,0.125,74,132.0
8778,B2,710.5,0.5,83,132.0
8779,B4,710.5,0.5,83,132.0
8780,B5,710.5,0.5,83,132.0
8781,B1,710.5,0.5,83,132.0
8782,B6,710.5,0.5,83,132.0
8783,B5,710.5,0.5,83,132.0
8784,B4,710.5,0.5,83,132.0
8785,B3,710.5,0.5,83,132.0
8786,B5,710.5,0.5,83,132.0
8787,B2,710.5,0.5,83,132.0
8788,B-5,710.5,0.25,52,132.0
8789,F#2,710.5,0.25,52,132.0
8790,B-5,710.75,0.25,39,132.0
8791,B0,710.75,0.125,84,132.0
8792,B1,711.0,0.375,127,132.0
8793,B2,711.0,0.5,83,132.0
8794,B4,711.0,0.5,83,132.0
8795,B5,711.0,0.5,83,132.0
8796,B1,711.0,0.5,83,132.0
8797,B6,711.0,0.5,83,132.0
8798,B5,711.0,0.5,83,132.0
8799,B4,711.0,0.5,83,132.0
8800,B3,711.0,0.5,83,132.0
8801,B5,711.0,0.5,83,132.0
8802,B2,711.0,0.5,83,132.0
8803,B-5,711.0,0.25,82,132.0
8804,F#2,711.0,0.25,82,132.0
8805,E2,711.0,0.25,82,132.0
8806,B1,711.0,0.25,82,132.0
8807,E1,711.0,0.25,82,132.0
8808,B-5,711.25,0.25,25,132.0
8809,B0,711.5,0.125,103,132.0
8810,B2,711.5,0.5,83,132.0
8811,B4,711.5,0.5,83,132.0
8812,B5,711.5,0.5,83,132.0
8813,B1,711.5,0.5,83,132.0
8814,B6,711.5,0.5,83,132.0
8815,B5,711.5,0.5,83,132.0
8816,B4,711.5,0.5,83,132.0
8817,B3,711.5,0.5,83,132.0
8818,B5,711.5,0.5,83,132.0
8819,B2,711.5,0.5,83,132.0
8820,B-5,711.5,0.25,42,132.0
8821,F#2,711.5,0.25,42,132.0
8822,B-5,711.75,0.25,69,132.0
8823,B1,711.75,0.25,69,132.0
8824,B0,712.0,0.375,127,132.0
8825,B1,712.0,0.75,86,132.0
8826,B3,712.0,0.75,86,132.0
8827,B4,712.0,0.75,86,132.0
8828,B0,712.0,0.75,86,132.0
8829,B5,712.0,0.75,86,132.0
8830,B4,712.0,0.75,86,132.0
8831,B3,712.0,0.75,86,132.0
8832,B2,712.0,0.75,86,132.0
8833,B4,712.0,0.75,86,132.0
8834,B1,712.0,0.75,86,132.0
8835,F#2,712.0,0.25,75,132.0
8836,B1,712.0,0.25,75,132.0
8837,B-5,712.0,0.25,75,132.0
8838,B-5,712.25,0.25,18,132.0
8839,B0,712.5,0.125,93,132.0
8840,F#2,712.5,0.25,52,132.0
8841,B-5,712.5,0.25,52,132.0
8842,B0,712.75,0.125,75,132.0
8843,B2,712.75,0.25,79,132.0
8844,B4,712.75,0.25,79,132.0
8845,B5,712.75,0.25,79,132.0
8846,B1,712.75,0.25,79,132.0
8847,B6,712.75,0.25,79,132.0
8848,B5,712.75,0.25,79,132.0
8849,B4,712.75,0.25,79,132.0
8850,B3,712.75,0.25,79,132.0
8851,B5,712.75,0.25,79,132.0
8852,B2,712.75,0.25,79,132.0
8853,B-5,712.75,0.25,79,132.0
8854,B0,713.0,0.125,68,132.0
8855,F#2,713.0,0.25,81,132.0
8856,B1,713.0,0.25,81,132.0
8857,E2,713.0,0.25,81,132.0
8858,E1,713.0,0.25,81,132.0
8859,B-5,713.0,0.25,81,132.0
8860,B-5,713.25,0.25,25,132.0
8861,B0,713.25,0.125,75,132.0
8862,B0,713.5,0.125,99,132.0
8863,B2,713.5,0.5,83,132.0
8864,B4,713.5,0.5,83,132.0
8865,B5,713.5,0.5,83,132.0
8866,B1,713.5,0.5,83,132.0
8867,B6,713.5,0.5,83,132.0
8868,B5,713.5,0.5,83,132.0
8869,B4,713.5,0.5,83,132.0
8870,B3,713.5,0.5,83,132.0
8871,B5,713.5,0.5,83,132.0
8872,B2,713.5,0.5,83,132.0
8873,F#2,713.5,0.25,42,132.0
8874,B-5,713.5,0.25,42,132.0
8875,B-5,713.75,0.25,11,132.0
8876,B0,713.75,0.375,127,132.0
8877,F#2,714.0,0.25,69,132.0
8878,B1,714.0,0.25,69,132.0
8879,B-5,714.0,0.25,69,132.0
8880,B0,714.25,0.125,93,132.0
8881,G2,714.25,0.25,77,132.0
8882,G4,714.25,0.25,77,132.0
8883,G5,714.25,0.25,77,132.0
8884,G1,714.25,0.25,77,132.0
8885,G6,714.25,0.25,77,132.0
8886,G5,714.25,0.25,77,132.0
8887,G4,714.25,0.25,77,132.0
8888,G3,714.25,0.25,77,132.0
8889,G5,714.25,0.25,77,132.0
8890,G2,714.25,0.25,77,132.0
8891,B-5,714.25,0.25,77,132.0
8892,B0,714.5,0.125,75,132.0
8893,B2,714.5,0.5,83,132.0
8894,B4,714.5,0.5,83,132.0
8895,B5,714.5,0.5,83,132.0
8896,B1,714.5,0.5,83,132.0
8897,B6,714.5,0.5,83,132.0
8898,B5,714.5,0.5,83,132.0
8899,B4,714.5,0.5,83,132.0
8900,B3,714.5,0.5,83,132.0
8901,B5,714.5,0.5,83,132.0
8902,B2,714.5,0.5,83,132.0
8903,F#2,714.5,0.25,52,132.0
8904,B-5,714.5,0.25,52,132.0
8905,B-5,714.75,0.25,39,132.0
8906,B0,714.75,0.125,59,132.0
8907,B0,715.0,0.125,58,132.0
8908,B2,715.0,0.5,83,132.0
8909,B4,715.0,0.5,83,132.0
8910,B5,715.0,0.5,83,132.0
8911,B1,715.0,0.5,83,132.0
8912,B6,715.0,0.5,83,132.0
8913,B5,715.0,0.5,83,132.0
8914,B4,715.0,0.5,83,132.0
8915,B3,715.0,0.5,83,132.0
8916,B5,715.0,0.5,83,132.0
8917,B2,715.0,0.5,83,132.0
8918,F#2,715.0,0.25,82,132.0
8919,E2,715.0,0.25,82,132.0
8920,B1,715.0,0.25,82,132.0
8921,E1,715.0,0.25,82,132.0
8922,B-5,715.0,0.25,82,132.0
8923,B-5,715.25,0.25,25,132.0
8924,B0,715.25,0.125,72,132.0
8925,B0,715.5,0.125,91,132.0
8926,B2,715.5,0.5,83,132.0
8927,B4,715.5,0.5,83,132.0
8928,B5,715.5,0.5,83,132.0
8929,B1,715.5,0.5,83,132.0
8930,B6,715.5,0.5,83,132.0
8931,B5,715.5,0.5,83,132.0
8932,B4,715.5,0.5,83,132.0
8933,B3,715.5,0.5,83,132.0
8934,B5,715.5,0.5,83,132.0
8935,B2,715.5,0.5,83,132.0
8936,F#2,715.5,0.25,42,132.0
8937,B-5,715.5,0.25,42,132.0
8938,B-5,715.75,0.25,11,132.0
8939,B0,715.75,0.25,127,132.0
8940,B0,716.0,0.25,127,132.0
8941,B1,716.0,0.75,83,132.0
8942,B3,716.0,0.75,83,132.0
8943,B4,716.0,0.75,83,132.0
8944,B0,716.0,0.75,83,132.0
8945,B5,716.0,0.75,83,132.0
8946,B4,716.0,0.75,83,132.0
8947,B3,716.0,0.75,83,132.0
8948,B2,716.0,0.75,83,132.0
8949,B4,716.0,0.75,83,132.0
8950,B1,716.0,0.75,83,132.0
8951,B-5,716.0,0.25,75,132.0
8952,F#2,716.0,0.25,75,132.0
8953,B1,716.0,0.25,75,132.0
8954,E-5,716.0,4.0,63,132.0
8955,D5,716.0,4.0,63,132.0
8956,C#5,716.0,4.0,63,132.0
8957,C5,716.0,4.0,63,132.0
8958,C4,716.0,4.0,63,132.0
8959,B4,716.0,4.0,63,132.0
8960,B-4,716.0,4.0,63,132.0
8961,A4,716.0,4.0,63,132.0
8962,G#4,716.0,4.0,63,132.0
8963,G4,716.0,4.0,63,132.0
8964,F#4,716.0,4.0,63,132.0
8965,F4,716.0,4.0,63,132.0
8966,E4,716.0,4.0,63,132.0
8967,D4,716.0,4.0,63,132.0
8968,E-4,716.0,4.0,63,132.0
8969,C#4,716.0,4.0,63,132.0
8970,B-5,716.25,0.25,18,132.0
8971,B0,716.25,0.125,79,132.0
8972,B0,716.5,0.125,64,132.0
8973,B-5,716.5,0.25,52,132.0
8974,F#2,716.5,0.25,52,132.0
8975,B0,716.75,0.125,62,132.0
8976,B2,716.75,0.25,79,132.0
8977,B4,716.75,0.25,79,132.0
8978,B5,716.75,0.25,79,132.0
8979,B1,716.75,0.25,79,132.0
8980,B6,716.75,0.25,79,132.0
8981,B5,716.75,0.25,79,132.0
8982,B4,716.75,0.25,79,132.0
8983,B3,716.75,0.25,79,132.0
8984,B5,716.75,0.25,79,132.0
8985,B2,716.75,0.25,79,132.0
8986,B-5,716.75,0.25,79,132.0
8987,B0,717.0,0.125,66,132.0
8988,B-5,717.0,0.25,82,132.0
8989,F#2,717.0,0.25,82,132.0
8990,E2,717.0,0.25,82,132.0
8991,B1,717.0,0.25,82,132.0
8992,E1,717.0,0.25,82,132.0
8993,B-5,717.25,0.25,25,132.0
8994,B0,717.25,0.125,91,132.0
8995,B0,717.5,0.125,98,132.0
8996,B2,717.5,0.5,83,132.0
8997,B4,717.5,0.5,83,132.0
8998,B5,717.5,0.5,83,132.0
8999,B1,717.5,0.5,83,132.0
9000,B6,717.5,0.5,83,132.0
9001,B5,717.5,0.5,83,132.0
9002,B4,717.5,0.5,83,132.0
9003,B3,717.5,0.5,83,132.0
9004,B5,717.5,0.5,83,132.0
9005,B2,717.5,0.5,83,132.0
9006,B-5,717.5,0.25,42,132.0
9007,F#2,717.5,0.25,42,132.0
9008,B-5,717.75,0.25,11,132.0
9009,B0,717.75,0.375,127,132.0
9010,B2,718.0,0.375,83,132.0
9011,B4,718.0,0.375,83,132.0
9012,B5,718.0,0.375,83,132.0
9013,B1,718.0,0.375,83,132.0
9014,B6,718.0,0.375,83,132.0
9015,B5,718.0,0.375,83,132.0
9016,B4,718.0,0.375,83,132.0
9017,B3,718.0,0.375,83,132.0
9018,B5,718.0,0.375,83,132.0
9019,B2,718.0,0.375,83,132.0
9020,B-5,718.0,0.25,70,132.0
9021,F#2,718.0,0.25,70,132.0
9022,B1,718.0,0.25,70,132.0
9023,B-5,718.25,0.25,18,132.0
9024,B0,718.25,0.125,66,132.0
9025,B0,718.5,0.125,74,132.0
9026,B2,718.5,0.5,83,132.0
9027,B4,718.5,0.5,83,132.0
9028,B5,718.5,0.5,83,132.0
9029,B1,718.5,0.5,83,132.0
9030,B6,718.5,0.5,83,132.0
9031,B5,718.5,0.5,83,132.0
9032,B4,718.5,0.5,83,132.0
9033,B3,718.5,0.5,83,132.0
9034,B5,718.5,0.5,83,132.0
9035,B2,718.5,0.5,83,132.0
9036,B-5,718.5,0.25,52,132.0
9037,F#2,718.5,0.25,52,132.0
9038,B-5,718.75,0.25,39,132.0
9039,B0,718.75,0.125,84,132.0
9040,B1,719.0,0.375,127,132.0
9041,B2,719.0,0.5,83,132.0
9042,B4,719.0,0.5,83,132.0
9043,B5,719.0,0.5,83,132.0
9044,B1,719.0,0.5,83,132.0
9045,B6,719.0,0.5,83,132.0
9046,B5,719.0,0.5,83,132.0
9047,B4,719.0,0.5,83,132.0
9048,B3,719.0,0.5,83,132.0
9049,B5,719.0,0.5,83,132.0
9050,B2,719.0,0.5,83,132.0
9051,B-5,719.0,0.25,82,132.0
9052,F#2,719.0,0.25,82,132.0
9053,E2,719.0,0.25,82,132.0
9054,B1,719.0,0.25,82,132.0
9055,E1,719.0,0.25,82,132.0
9056,B-5,719.25,0.25,25,132.0
9057,B0,719.5,0.125,103,132.0
9058,B2,719.5,0.5,83,132.0
9059,B4,719.5,0.5,83,132.0
9060,B5,719.5,0.5,83,132.0
9061,B1,719.5,0.5,83,132.0
9062,B6,719.5,0.5,83,132.0
9063,B5,719.5,0.5,83,132.0
9064,B4,719.5,0.5,83,132.0
9065,B3,719.5,0.5,83,132.0
9066,B5,719.5,0.5,83,132.0
9067,B2,719.5,0.5,83,132.0
9068,B-5,719.5,0.25,42,132.0
9069,F#2,719.5,0.25,42,132.0
9070,B-5,719.75,0.25,69,132.0
9071,B1,719.75,0.25,69,132.0
9072,B0,728.0,0.375,127,132.0
9073,B1,728.0,0.75,86,132.0
9074,B3,728.0,0.75,86,132.0
9075,B4,728.0,0.75,86,132.0
9076,B0,728.0,0.75,86,132.0
9077,B5,728.0,0.75,86,132.0
9078,B4,728.0,0.75,86,132.0
9079,B3,728.0,0.75,86,132.0
9080,B2,728.0,0.75,86,132.0
9081,B4,728.0,0.75,86,132.0
9082,B1,728.0,0.75,86,132.0
9083,A3,728.0,4.0,111,132.0
9084,E3,728.0,4.0,111,132.0
9085,C#3,728.0,4.0,111,132.0
9086,F#2,728.0,0.25,75,132.0
9087,B1,728.0,0.25,75,132.0
9088,B-5,728.0,0.25,75,132.0
9089,E-5,728.0,8.0,63,132.0
9090,D5,728.0,8.0,63,132.0
9091,C#5,728.0,8.0,63,132.0
9092,C5,728.0,8.0,63,132.0
9093,C4,728.0,8.0,63,132.0
9094,B4,728.0,8.0,63,132.0
9095,B-4,728.0,8.0,63,132.0
9096,A4,728.0,8.0,63,132.0
9097,G#4,728.0,8.0,63,132.0
9098,G4,728.0,8.0,63,132.0
9099,F#4,728.0,8.0,63,132.0
9100,F4,728.0,8.0,63,132.0
9101,E4,728.0,8.0,63,132.0
9102,D4,728.0,8.0,63,132.0
9103,E-4,728.0,8.0,63,132.0
9104,C#4,728.0,8.0,63,132.0
9105,B-5,728.25,0.25,18,132.0
9106,B0,728.5,0.125,93,132.0
9107,F#2,728.5,0.25,52,132.0
9108,B-5,728.5,0.25,52,132.0
9109,B0,728.75,0.125,75,132.0
9110,B2,728.75,0.25,79,132.0
9111,B4,728.75,0.25,79,132.0
9112,B5,728.75,0.25,79,132.0
9113,B1,728.75,0.25,79,132.0
9114,B6,728.75,0.25,79,132.0
9115,B5,728.75,0.25,79,132.0
9116,B4,728.75,0.25,79,132.0
9117,B3,728.75,0.25,79,132.0
9118,B5,728.75,0.25,79,132.0
9119,B2,728.75,0.25,79,132.0
9120,B-5,728.75,0.25,79,132.0
9121,B0,729.0,0.125,68,132.0
9122,F#2,729.0,0.25,81,132.0
9123,B1,729.0,0.25,81,132.0
9124,E2,729.0,0.25,81,132.0
9125,E1,729.0,0.25,81,132.0
9126,B-5,729.0,0.25,81,132.0
9127,B-5,729.25,0.25,25,132.0
9128,B0,729.25,0.125,75,132.0
9129,B0,729.5,0.125,99,132.0
9130,B2,729.5,0.5,83,132.0
9131,B4,729.5,0.5,83,132.0
9132,B5,729.5,0.5,83,132.0
9133,B1,729.5,0.5,83,132.0
9134,B6,729.5,0.5,83,132.0
9135,B5,729.5,0.5,83,132.0
9136,B4,729.5,0.5,83,132.0
9137,B3,729.5,0.5,83,132.0
9138,B5,729.5,0.5,83,132.0
9139,B2,729.5,0.5,83,132.0
9140,F#2,729.5,0.25,42,132.0
9141,B-5,729.5,0.25,42,132.0
9142,B-5,729.75,0.25,11,132.0
9143,B0,729.75,0.375,127,132.0
9144,F#2,730.0,0.25,69,132.0
9145,B1,730.0,0.25,69,132.0
9146,B-5,730.0,0.25,69,132.0
9147,B0,730.25,0.125,93,132.0
9148,G2,730.25,0.25,77,132.0
9149,G4,730.25,0.25,77,132.0
9150,G5,730.25,0.25,77,132.0
9151,G1,730.25,0.25,77,132.0
9152,G6,730.25,0.25,77,132.0
9153,G5,730.25,0.25,77,132.0
9154,G4,730.25,0.25,77,132.0
9155,G3,730.25,0.25,77,132.0
9156,G5,730.25,0.25,77,132.0
9157,G2,730.25,0.25,77,132.0
9158,B-5,730.25,0.25,77,132.0
9159,B0,730.5,0.125,75,132.0
9160,B2,730.5,0.5,83,132.0
9161,B4,730.5,0.5,83,132.0
9162,B5,730.5,0.5,83,132.0
9163,B1,730.5,0.5,83,132.0
9164,B6,730.5,0.5,83,132.0
9165,B5,730.5,0.5,83,132.0
9166,B4,730.5,0.5,83,132.0
9167,B3,730.5,0.5,83,132.0
9168,B5,730.5,0.5,83,132.0
9169,B2,730.5,0.5,83,132.0
9170,F#2,730.5,0.25,52,132.0
9171,B-5,730.5,0.25,52,132.0
9172,B-5,730.75,0.25,39,132.0
9173,B0,730.75,0.125,59,132.0
9174,B0,731.0,0.125,58,132.0
9175,B2,731.0,0.5,83,132.0
9176,B4,731.0,0.5,83,132.0
9177,B5,731.0,0.5,83,132.0
9178,B1,731.0,0.5,83,132.0
9179,B6,731.0,0.5,83,132.0
9180,B5,731.0,0.5,83,132.0
9181,B4,731.0,0.5,83,132.0
9182,B3,731.0,0.5,83,132.0
9183,B5,731.0,0.5,83,132.0
9184,B2,731.0,0.5,83,132.0
9185,F#2,731.0,0.25,82,132.0
9186,E2,731.0,0.25,82,132.0
9187,B1,731.0,0.25,82,132.0
9188,E1,731.0,0.25,82,132.0
9189,B-5,731.0,0.25,82,132.0
9190,B-5,731.25,0.25,25,132.0
9191,B0,731.25,0.125,72,132.0
9192,B0,731.5,0.125,91,132.0
9193,B2,731.5,0.5,83,132.0
9194,B4,731.5,0.5,83,132.0
9195,B5,731.5,0.5,83,132.0
9196,B1,731.5,0.5,83,132.0
9197,B6,731.5,0.5,83,132.0
9198,B5,731.5,0.5,83,132.0
9199,B4,731.5,0.5,83,132.0
9200,B3,731.5,0.5,83,132.0
9201,B5,731.5,0.5,83,132.0
9202,B2,731.5,0.5,83,132.0
9203,F#2,731.5,0.25,42,132.0
9204,B-5,731.5,0.25,42,132.0
9205,B-5,731.75,0.25,11,132.0
9206,B0,731.75,0.25,127,132.0
9207,B0,736.0,0.25,127,132.0
9208,B1,736.0,0.75,83,132.0
9209,B3,736.0,0.75,83,132.0
9210,B4,736.0,0.75,83,132.0
9211,B0,736.0,0.75,83,132.0
9212,B5,736.0,0.75,83,132.0
9213,B4,736.0,0.75,83,132.0
9214,B3,736.0,0.75,83,132.0
9215,B2,736.0,0.75,83,132.0
9216,B4,736.0,0.75,83,132.0
9217,B1,736.0,0.75,83,132.0
9218,B-5,736.0,0.25,75,132.0
9219,F#2,736.0,0.25,75,132.0
9220,B1,736.0,0.25,75,132.0
9221,A3,736.0,4.0,111,132.0
9222,E3,736.0,4.0,111,132.0
9223,C#3,736.0,4.0,111,132.0
9224,B-5,736.25,0.25,18,132.0
9225,B0,736.25,0.125,79,132.0
9226,B0,736.5,0.125,64,132.0
9227,B-5,736.5,0.25,52,132.0
9228,F#2,736.5,0.25,52,132.0
9229,B0,736.75,0.125,62,132.0
9230,B2,736.75,0.25,79,132.0
9231,B4,736.75,0.25,79,132.0
9232,B5,736.75,0.25,79,132.0
9233,B1,736.75,0.25,79,132.0
9234,B6,736.75,0.25,79,132.0
9235,B5,736.75,0.25,79,132.0
9236,B4,736.75,0.25,79,132.0
9237,B3,736.75,0.25,79,132.0
9238,B5,736.75,0.25,79,132.0
9239,B2,736.75,0.25,79,132.0
9240,B-5,736.75,0.25,79,132.0
9241,B0,737.0,0.125,66,132.0
9242,B-5,737.0,0.25,82,132.0
9243,F#2,737.0,0.25,82,132.0
9244,E2,737.0,0.25,82,132.0
9245,B1,737.0,0.25,82,132.0
9246,E1,737.0,0.25,82,132.0
9247,B-5,737.25,0.25,25,132.0
9248,B0,737.25,0.125,91,132.0
9249,B0,737.5,0.125,98,132.0
9250,B2,737.5,0.5,83,132.0
9251,B4,737.5,0.5,83,132.0
9252,B5,737.5,0.5,83,132.0
9253,B1,737.5,0.5,83,132.0
9254,B6,737.5,0.5,83,132.0
9255,B5,737.5,0.5,83,132.0
9256,B4,737.5,0.5,83,132.0
9257,B3,737.5,0.5,83,132.0
9258,B5,737.5,0.5,83,132.0
9259,B2,737.5,0.5,83,132.0
9260,B-5,737.5,0.25,42,132.0
9261,F#2,737.5,0.25,42,132.0
9262,B-5,737.75,0.25,11,132.0
9263,B0,737.75,0.375,127,132.0
9264,B2,738.0,0.375,83,132.0
9265,B4,738.0,0.375,83,132.0
9266,B5,738.0,0.375,83,132.0
9267,B1,738.0,0.375,83,132.0
9268,B6,738.0,0.375,83,132.0
9269,B5,738.0,0.375,83,132.0
9270,B4,738.0,0.375,83,132.0
9271,B3,738.0,0.375,83,132.0
9272,B5,738.0,0.375,83,132.0
9273,B2,738.0,0.375,83,132.0
9274,B-5,738.0,0.25,70,132.0
9275,F#2,738.0,0.25,70,132.0
9276,B1,738.0,0.25,70,132.0
9277,B-5,738.25,0.25,18,132.0
9278,B0,738.25,0.125,66,132.0
9279,B0,738.5,0.125,74,132.0
9280,B2,738.5,0.5,83,132.0
9281,B4,738.5,0.5,83,132.0
9282,B5,738.5,0.5,83,132.0
9283,B1,738.5,0.5,83,132.0
9284,B6,738.5,0.5,83,132.0
9285,B5,738.5,0.5,83,132.0
9286,B4,738.5,0.5,83,132.0
9287,B3,738.5,0.5,83,132.0
9288,B5,738.5,0.5,83,132.0
9289,B2,738.5,0.5,83,132.0
9290,B-5,738.5,0.25,52,132.0
9291,F#2,738.5,0.25,52,132.0
9292,B-5,738.75,0.25,39,132.0
9293,B0,738.75,0.125,84,132.0
9294,B1,739.0,0.375,127,132.0
9295,B2,739.0,0.5,83,132.0
9296,B4,739.0,0.5,83,132.0
9297,B5,739.0,0.5,83,132.0
9298,B1,739.0,0.5,83,132.0
9299,B6,739.0,0.5,83,132.0
9300,B5,739.0,0.5,83,132.0
9301,B4,739.0,0.5,83,132.0
9302,B3,739.0,0.5,83,132.0
9303,B5,739.0,0.5,83,132.0
9304,B2,739.0,0.5,83,132.0
9305,B-5,739.0,0.25,82,132.0
9306,F#2,739.0,0.25,82,132.0
9307,E2,739.0,0.25,82,132.0
9308,B1,739.0,0.25,82,132.0
9309,E1,739.0,0.25,82,132.0
9310,B-5,739.25,0.25,25,132.0
9311,B0,739.5,0.125,103,132.0
9312,B2,739.5,0.5,83,132.0
9313,B4,739.5,0.5,83,132.0
9314,B5,739.5,0.5,83,132.0
9315,B1,739.5,0.5,83,132.0
9316,B6,739.5,0.5,83,132.0
9317,B5,739.5,0.5,83,132.0
9318,B4,739.5,0.5,83,132.0
9319,B3,739.5,0.5,83,132.0
9320,B5,739.5,0.5,83,132.0
9321,B2,739.5,0.5,83,132.0
9322,B-5,739.5,0.25,42,132.0
9323,F#2,739.5,0.25,42,132.0
9324,B-5,739.75,0.25,69,132.0
9325,B1,739.75,0.25,69,132.0
9326,B0,740.0,0.375,127,132.0
9327,B1,740.0,0.75,86,132.0
9328,B3,740.0,0.75,86,132.0
9329,B4,740.0,0.75,86,132.0
9330,B0,740.0,0.75,86,132.0
9331,B5,740.0,0.75,86,132.0
9332,B4,740.0,0.75,86,132.0
9333,B3,740.0,0.75,86,132.0
9334,B2,740.0,0.75,86,132.0
9335,B4,740.0,0.75,86,132.0
9336,B1,740.0,0.75,86,132.0
9337,F#2,740.0,0.25,75,132.0
9338,B1,740.0,0.25,75,132.0
9339,B-5,740.0,0.25,75,132.0
9340,B-5,740.25,0.25,18,132.0
9341,B0,740.5,0.125,93,132.0
9342,F#2,740.5,0.25,52,132.0
9343,B-5,740.5,0.25,52,132.0
9344,B0,740.75,0.125,75,132.0
9345,B2,740.75,0.25,79,132.0
9346,B4,740.75,0.25,79,132.0
9347,B5,740.75,0.25,79,132.0
9348,B1,740.75,0.25,79,132.0
9349,B6,740.75,0.25,79,132.0
9350,B5,740.75,0.25,79,132.0
9351,B4,740.75,0.25,79,132.0
9352,B3,740.75,0.25,79,132.0
9353,B5,740.75,0.25,79,132.0
9354,B2,740.75,0.25,79,132.0
9355,B-5,740.75,0.25,79,132.0
9356,B0,741.0,0.125,68,132.0
9357,F#2,741.0,0.25,81,132.0
9358,B1,741.0,0.25,81,132.0
9359,E2,741.0,0.25,81,132.0
9360,E1,741.0,0.25,81,132.0
9361,B-5,741.0,0.25,81,132.0
9362,B-5,741.25,0.25,25,132.0
9363,B0,741.25,0.125,75,132.0
9364,B0,741.5,0.125,99,132.0
9365,B2,741.5,0.5,83,132.0
9366,B4,741.5,0.5,83,132.0
9367,B5,741.5,0.5,83,132.0
9368,B1,741.5,0.5,83,132.0
9369,B6,741.5,0.5,83,132.0
9370,B5,741.5,0.5,83,132.0
9371,B4,741.5,0.5,83,132.0
9372,B3,741.5,0.5,83,132.0
9373,B5,741.5,0.5,83,132.0
9374,B2,741.5,0.5,83,132.0
9375,F#2,741.5,0.25,42,132.0
9376,B-5,741.5,0.25,42,132.0
9377,B-5,741.75,0.25,11,132.0
9378,B0,741.75,0.375,127,132.0
9379,F#2,742.0,0.25,69,132.0
9380,B1,742.0,0.25,69,132.0
9381,B-5,742.0,0.25,69,132.0
9382,B0,742.25,0.125,93,132.0
9383,G2,742.25,0.25,77,132.0
9384,G4,742.25,0.25,77,132.0
9385,G5,742.25,0.25,77,132.0
9386,G1,742.25,0.25,77,132.0
9387,G6,742.25,0.25,77,132.0
9388,G5,742.25,0.25,77,132.0
9389,G4,742.25,0.25,77,132.0
9390,G3,742.25,0.25,77,132.0
9391,G5,742.25,0.25,77,132.0
9392,G2,742.25,0.25,77,132.0
9393,B-5,742.25,0.25,77,132.0
9394,B0,742.5,0.125,75,132.0
9395,B2,742.5,0.5,83,132.0
9396,B4,742.5,0.5,83,132.0
9397,B5,742.5,0.5,83,132.0
9398,B1,742.5,0.5,83,132.0
9399,B6,742.5,0.5,83,132.0
9400,B5,742.5,0.5,83,132.0
9401,B4,742.5,0.5,83,132.0
9402,B3,742.5,0.5,83,132.0
9403,B5,742.5,0.5,83,132.0
9404,B2,742.5,0.5,83,132.0
9405,F#2,742.5,0.25,52,132.0
9406,B-5,742.5,0.25,52,132.0
9407,B-5,742.75,0.25,39,132.0
9408,B0,742.75,0.125,59,132.0
9409,B0,743.0,0.125,58,132.0
9410,B2,743.0,0.5,83,132.0
9411,B4,743.0,0.5,83,132.0
9412,B5,743.0,0.5,83,132.0
9413,B1,743.0,0.5,83,132.0
9414,B6,743.0,0.5,83,132.0
9415,B5,743.0,0.5,83,132.0
9416,B4,743.0,0.5,83,132.0
9417,B3,743.0,0.5,83,132.0
9418,B5,743.0,0.5,83,132.0
9419,B2,743.0,0.5,83,132.0
9420,F#2,743.0,0.25,82,132.0
9421,E2,743.0,0.25,82,132.0
9422,B1,743.0,0.25,82,132.0
9423,E1,743.0,0.25,82,132.0
9424,B-5,743.0,0.25,82,132.0
9425,B-5,743.25,0.25,25,132.0
9426,B0,743.25,0.125,72,132.0
9427,B0,743.5,0.125,91,132.0
9428,B2,743.5,0.5,83,132.0
9429,B4,743.5,0.5,83,132.0
9430,B5,743.5,0.5,83,132.0
9431,B1,743.5,0.5,83,132.0
9432,B6,743.5,0.5,83,132.0
9433,B5,743.5,0.5,83,132.0
9434,B4,743.5,0.5,83,132.0
9435,B3,743.5,0.5,83,132.0
9436,B5,743.5,0.5,83,132.0
9437,B2,743.5,0.5,83,132.0
9438,F#2,743.5,0.25,42,132.0
9439,B-5,743.5,0.25,42,132.0
9440,B-5,743.75,0.25,11,132.0
9441,B0,743.75,0.25,127,132.0
9442,B0,744.0,0.25,127,132.0
9443,G4,744.0,0.5,101,132.0
9444,G5,744.0,0.5,101,132.0
9445,B4,744.0,0.5,101,132.0
9446,B5,744.0,0.5,101,132.0
9447,B4,744.0,0.5,101,132.0
9448,G3,744.0,0.5,101,132.0
9449,G4,744.0,0.5,101,132.0
9450,B3,744.0,0.5,101,132.0
9451,B-5,744.0,0.25,75,132.0
9452,F#2,744.0,0.25,75,132.0
9453,B1,744.0,0.25,75,132.0
9454,B-5,744.25,0.25,18,132.0
9455,B-5,744.5,0.25,52,132.0
9456,F#2,744.5,0.25,52,132.0
9457,B-5,744.75,0.25,39,132.0
9458,G4,744.75,0.5,101,132.0
9459,G5,744.75,0.5,101,132.0
9460,B4,744.75,0.5,101,132.0
9461,B5,744.75,0.5,101,132.0
9462,B4,744.75,0.5,101,132.0
9463,B3,744.75,0.5,101,132.0
9464,G4,744.75,0.5,101,132.0
9465,G3,744.75,0.5,101,132.0
9466,B-5,745.0,0.25,82,132.0
9467,F#2,745.0,0.25,82,132.0
9468,E2,745.0,0.25,82,132.0
9469,B1,745.0,0.25,82,132.0
9470,E1,745.0,0.25,82,132.0
9471,B-5,745.25,0.25,25,132.0
9472,B5,745.5,0.5,101,132.0
9473,B4,745.5,0.5,101,132.0
9474,G5,745.5,0.5,101,132.0
9475,G4,745.5,0.5,101,132.0
9476,B4,745.5,0.5,101,132.0
9477,B3,745.5,0.5,101,132.0
9478,G4,745.5,0.5,101,132.0
9479,G3,745.5,0.5,101,132.0
9480,E3,746.0,1.5,127,132.0
9481,F2,746.0,0.25,127,132.0
9482,C4,746.0,2.0,103,132.0
9483,A4,746.0,0.5,101,132.0
9484,A5,746.0,0.5,101,132.0
9485,C#5,746.0,0.5,101,132.0
9486,C#6,746.0,0.5,101,132.0
9487,C#5,746.0,0.5,101,132.0
9488,C#4,746.0,0.5,101,132.0
9489,A4,746.0,0.5,101,132.0
9490,A3,746.0,0.5,101,132.0
9491,C#6,746.75,0.5,101,132.0
9492,C#5,746.75,0.5,101,132.0
9493,A5,746.75,0.5,101,132.0
9494,A4,746.75,0.5,101,132.0
9495,C#5,746.75,0.5,101,132.0
9496,C#4,746.75,0.5,101,132.0
9497,A4,746.75,0.5,101,132.0
9498,A3,746.75,0.5,101,132.0
9499,G#2,746.75,0.25,80,132.0
9500,D2,746.75,0.25,80,132.0
9501,D2,747.0,0.25,80,132.0
9502,G2,747.5,0.25,127,132.0
9503,A4,747.5,0.5,104,132.0
9504,A5,747.5,0.5,104,132.0
9505,C#5,747.5,0.5,104,132.0
9506,C#6,747.5,0.5,104,132.0
9507,C#5,747.5,0.5,104,132.0
9508,C#4,747.5,0.5,104,132.0
9509,A4,747.5,0.5,104,132.0
9510,A3,747.5,0.5,104,132.0
9511,G#3,747.5,0.5,104,132.0
9512,C4,748.0,0.25,103,132.0
9513,E-5,748.0,4.0,63,132.0
9514,D5,748.0,4.0,63,132.0
9515,C#5,748.0,4.0,63,132.0
9516,C5,748.0,4.0,63,132.0
9517,C4,748.0,4.0,63,132.0
9518,B4,748.0,4.0,63,132.0
9519,B-4,748.0,4.0,63,132.0
9520,A4,748.0,4.0,63,132.0
9521,G#4,748.0,4.0,63,132.0
9522,G4,748.0,4.0,63,132.0
9523,F#4,748.0,4.0,63,132.0
9524,F4,748.0,4.0,63,132.0
9525,E4,748.0,4.0,63,132.0
9526,D4,748.0,4.0,63,132.0
9527,E-4,748.0,4.0,63,132.0
9528,C#4,748.0,4.0,63,132.0
9529,F#6,752.0,0.5,104,132.0
9530,B5,752.0,0.5,104,132.0
9531,F#4,752.0,0.5,104,132.0
9532,B4,752.0,0.5,104,132.0
9533,F#5,752.0,0.5,104,132.0
9534,F#5,752.0,0.5,104,132.0
9535,F#4,752.0,0.5,104,132.0
9536,B3,752.0,0.5,104,132.0
9537,B4,752.0,0.5,104,132.0
9538,F#3,752.0,0.5,104,132.0
9539,G1,752.0,4.0,127,132.0
9540,B1,752.0,4.0,127,132.0
9541,G2,752.0,4.0,127,132.0
9542,B1,752.0,4.0,127,132.0
9543,G2,752.0,4.0,127,132.0
9544,A3,752.0,4.0,111,132.0
9545,E3,752.0,4.0,111,132.0
9546,C#3,752.0,4.0,111,132.0
9547,E-5,752.0,8.0,63,132.0
9548,D5,752.0,8.0,63,132.0
9549,C#5,752.0,8.0,63,132.0
9550,C5,752.0,8.0,63,132.0
9551,C4,752.0,8.0,63,132.0
9552,B4,752.0,8.0,63,132.0
9553,B-4,752.0,8.0,63,132.0
9554,A4,752.0,8.0,63,132.0
9555,G#4,752.0,8.0,63,132.0
9556,G4,752.0,8.0,63,132.0
9557,F#4,752.0,8.0,63,132.0
9558,F4,752.0,8.0,63,132.0
9559,E4,752.0,8.0,63,132.0
9560,D4,752.0,8.0,63,132.0
9561,E-4,752.0,8.0,63,132.0
9562,C#4,752.0,8.0,63,132.0
9563,A3,760.0,4.0,111,132.0
9564,E3,760.0,4.0,111,132.0
9565,C#3,760.0,4.0,111,132.0
