,note_name,start_time,duration,velocity,tempo
0,F#2,0.0,1.0,51,160.0
1,F#2,1.0,1.0,51,160.0
2,F#2,2.0,1.0,51,160.0
3,F#2,3.0,1.0,51,160.0
4,F2,4.0,1.0,102,160.0
5,F2,4.0,1.0,95,160.0
6,F4,4.0,1.0,89,160.0
7,E-4,4.0,1.0,89,160.0
8,C4,4.0,1.0,89,160.0
9,A3,4.0,1.0,89,160.0
10,F2,4.017,1/40,86,160.0
11,A2,4.017,1/40,86,160.0
12,C2,4.017,1/40,86,160.0
13,F#2,4.017,1/40,86,160.0
14,F2,5.0,1.0,102,160.0
15,F2,5.0,1.0,95,160.0
16,F4,5.0,1.0,89,160.0
17,E-4,5.0,1.0,89,160.0
18,C4,5.0,1.0,89,160.0
19,A3,5.0,1.0,89,160.0
20,F2,5.017,1/40,81,160.0
21,A2,5.017,1/40,81,160.0
22,C2,5.017,1/40,81,160.0
23,F#2,5.017,1/40,81,160.0
24,F2,6.0,1.0,102,160.0
25,F2,6.0,1.0,95,160.0
26,F4,6.0,1.0,89,160.0
27,E-4,6.0,1.0,89,160.0
28,C4,6.0,1.0,89,160.0
29,A3,6.0,1.0,89,160.0
30,F2,6.017,1/40,85,160.0
31,A2,6.017,1/40,85,160.0
32,C2,6.017,1/40,85,160.0
33,F#2,6.017,1/40,85,160.0
34,F2,7.0,1.0,102,160.0
35,F2,7.0,1.0,95,160.0
36,F4,7.0,1.0,89,160.0
37,E-4,7.0,1.0,89,160.0
38,C4,7.0,1.0,89,160.0
39,A3,7.0,1.0,89,160.0
40,F2,7.017,1/40,88,160.0
41,A2,7.017,1/40,88,160.0
42,F#2,7.017,1/40,88,160.0
43,C2,7.017,1/40,88,160.0
44,F2,8.0,1.0,102,160.0
45,F2,8.0,1.0,95,160.0
46,F4,8.0,1.0,89,160.0
47,E-4,8.0,1.0,89,160.0
48,C4,8.0,1.0,89,160.0
49,A3,8.0,1.0,89,160.0
50,C2,8.017,1/40,104,160.0
51,F#2,8.017,1/40,104,160.0
52,D2,9.017,1/40,88,160.0
53,C5,9.5,0.5,89,160.0
54,C5,9.5,0.5,89,160.0
55,F2,9.5,0.5,102,160.0
56,F2,9.5,0.5,95,160.0
57,C5,9.5,0.5,89,160.0
58,C2,9.517,1/40,95,160.0
59,F5,10.0,0.5,89,160.0
60,F5,10.0,0.5,89,160.0
61,F5,10.0,0.5,89,160.0
62,B-2,10.017,1/40,112,160.0
63,F5,10.5,1.0,89,160.0
64,F5,10.5,1.0,89,160.0
65,F2,10.5,0.5,102,160.0
66,F2,10.5,0.5,95,160.0
67,F5,10.5,1.0,89,160.0
68,C2,10.517,1/40,95,160.0
69,F#2,11.017,1/40,96,160.0
70,D2,11.017,1/40,96,160.0
71,F5,11.5,0.5,89,160.0
72,F5,11.5,0.5,89,160.0
73,F2,11.5,0.5,102,160.0
74,F2,11.5,0.5,95,160.0
75,F5,11.5,0.5,89,160.0
76,F#2,11.517,1/40,85,160.0
77,C2,11.517,1/40,85,160.0
78,F5,12.0,0.5,89,160.0
79,F5,12.0,0.5,89,160.0
80,F2,12.0,1.0,102,160.0
81,F2,12.0,1.0,95,160.0
82,F5,12.0,0.5,89,160.0
83,C2,12.017,1/40,96,160.0
84,F#2,12.017,1/40,96,160.0
85,C5,12.5,0.5,89,160.0
86,C5,12.5,0.5,89,160.0
87,C5,12.5,0.5,89,160.0
88,C5,13.0,0.5,89,160.0
89,C5,13.0,0.5,89,160.0
90,C5,13.0,0.5,89,160.0
91,F#2,13.017,1/40,98,160.0
92,D2,13.017,1/40,98,160.0
93,C5,13.5,0.5,89,160.0
94,C5,13.5,0.5,89,160.0
95,F2,13.5,0.5,102,160.0
96,F2,13.5,0.5,95,160.0
97,C5,13.5,0.5,89,160.0
98,F#2,13.517,1/40,81,160.0
99,C2,13.517,1/40,81,160.0
100,E-5,14.0,0.5,89,160.0
101,E-5,14.0,0.5,89,160.0
102,E-5,14.0,0.5,89,160.0
103,B-2,14.017,1/40,112,160.0
104,E-5,14.5,0.5,89,160.0
105,E-5,14.5,0.5,89,160.0
106,F2,14.5,0.5,102,160.0
107,F2,14.5,0.5,95,160.0
108,E-5,14.5,0.5,89,160.0
109,C2,14.517,1/40,95,160.0
110,F5,15.0,1.0,89,160.0
111,F5,15.0,1.0,89,160.0
112,F5,15.0,1.0,89,160.0
113,F#2,15.017,1/40,96,160.0
114,D2,15.017,1/40,96,160.0
115,F2,15.5,0.5,102,160.0
116,F2,15.5,0.5,95,160.0
117,C2,15.517,1/40,95,160.0
118,F5,16.0,1.5,89,160.0
119,F5,16.0,1.5,89,160.0
120,F3,16.0,1.0,102,160.0
121,F3,16.0,1.0,102,160.0
122,F3,16.0,1.0,95,160.0
123,F3,16.0,1.0,102,160.0
124,F5,16.0,1.5,89,160.0
125,G#4,16.0,1.5,89,160.0
126,F4,16.0,1.5,89,160.0
127,C2,16.017,1/40,96,160.0
128,F#2,16.017,1/40,96,160.0
129,G#3,17.0,1.0,102,160.0
130,G#3,17.0,1.0,102,160.0
131,F#2,17.017,1/40,100,160.0
132,D2,17.017,1/40,100,160.0
133,F3,17.5,0.5,102,160.0
134,F3,17.5,0.5,95,160.0
135,F4,17.5,2.0,89,160.0
136,D4,17.5,2.0,89,160.0
137,F#2,17.517,1/40,82,160.0
138,C2,17.517,1/40,82,160.0
139,B-3,18.0,1.0,102,160.0
140,B-3,18.0,1.0,102,160.0
141,B-2,18.017,1/40,112,160.0
142,F3,18.5,0.5,102,160.0
143,F3,18.5,0.5,95,160.0
144,C2,18.517,1/40,95,160.0
145,G#3,19.0,0.5,102,160.0
146,G#3,19.0,0.5,102,160.0
147,D2,19.017,1/40,96,160.0
148,F#2,19.017,1/40,96,160.0
149,F3,19.5,0.5,102,160.0
150,C4,19.5,0.5,102,160.0
151,F3,19.5,0.5,95,160.0
152,C4,19.5,0.5,102,160.0
153,G4,19.5,0.5,89,160.0
154,E4,19.5,0.5,89,160.0
155,C2,19.517,1/40,95,160.0
156,F3,20.0,1.0,102,160.0
157,C4,20.0,0.5,102,160.0
158,F3,20.0,1.0,95,160.0
159,C4,20.0,0.5,102,160.0
160,F#2,20.017,1/40,96,160.0
161,C2,20.017,1/40,96,160.0
162,B-3,20.5,1.0,102,160.0
163,B-3,20.5,1.0,102,160.0
164,D2,21.017,1/40,100,160.0
165,F#2,21.017,1/40,100,160.0
166,F3,21.5,0.5,102,160.0
167,G#3,21.5,1.0,102,160.0
168,F3,21.5,0.5,95,160.0
169,G#3,21.5,1.0,102,160.0
170,G4,21.5,1.5,89,160.0
171,E4,21.5,1.5,89,160.0
172,F#2,21.517,1/40,82,160.0
173,C2,21.517,1/40,82,160.0
174,B-2,22.017,1/40,112,160.0
175,F3,22.5,0.5,102,160.0
176,F3,22.5,0.5,102,160.0
177,F3,22.5,0.5,95,160.0
178,F3,22.5,0.5,102,160.0
179,C2,22.517,1/40,95,160.0
180,G#3,23.0,1.0,102,160.0
181,G#3,23.0,1.0,102,160.0
182,F4,23.0,2.5,89,160.0
183,D4,23.0,2.5,89,160.0
184,D2,23.017,1/40,96,160.0
185,F#2,23.017,1/40,96,160.0
186,F3,23.5,0.5,102,160.0
187,F3,23.5,0.5,95,160.0
188,C2,23.517,1/40,95,160.0
189,F2,24.0,1.0,102,160.0
190,F2,24.0,1.0,95,160.0
191,F#2,24.017,1/40,96,160.0
192,C2,24.017,1/40,96,160.0
193,G#5,25.0,0.5,89,160.0
194,G#5,25.0,0.5,89,160.0
195,F#2,25.017,1/40,100,160.0
196,D2,25.017,1/40,100,160.0
197,G#5,25.5,1.0,89,160.0
198,F2,25.5,0.5,102,160.0
199,F2,25.5,0.5,95,160.0
200,G#5,25.5,1.0,89,160.0
201,F4,25.5,1.0,89,160.0
202,E-4,25.5,1.0,89,160.0
203,C4,25.5,1.0,89,160.0
204,A3,25.5,1.0,89,160.0
205,F#2,25.517,1/40,82,160.0
206,C2,25.517,1/40,82,160.0
207,B-2,26.017,1/40,112,160.0
208,G#5,26.5,1.0,89,160.0
209,G#5,26.5,0.5,89,160.0
210,F2,26.5,0.5,102,160.0
211,F2,26.5,0.5,95,160.0
212,G#5,26.5,1.0,89,160.0
213,C2,26.517,1/40,95,160.0
214,G#5,27.0,1.0,89,160.0
215,D2,27.017,1/40,96,160.0
216,F#2,27.017,1/40,96,160.0
217,G#5,27.5,0.5,89,160.0
218,F2,27.5,0.5,102,160.0
219,F2,27.5,0.5,95,160.0
220,G#5,27.5,0.5,89,160.0
221,C2,27.517,1/40,95,160.0
222,G#5,28.0,1.0,89,160.0
223,G#5,28.0,1.0,89,160.0
224,F2,28.0,1.0,102,160.0
225,F2,28.0,1.0,95,160.0
226,G#5,28.0,1.0,89,160.0
227,C2,28.017,1/40,96,160.0
228,F#2,28.017,1/40,96,160.0
229,C5,29.0,0.5,89,160.0
230,G#5,29.0,0.5,89,160.0
231,C5,29.0,0.5,89,160.0
232,F#2,29.017,1/40,100,160.0
233,D2,29.017,1/40,100,160.0
234,C5,29.5,0.5,89,160.0
235,G#5,29.5,1.0,89,160.0
236,F2,29.5,0.5,102,160.0
237,F2,29.5,0.5,95,160.0
238,C5,29.5,0.5,89,160.0
239,F#2,29.517,1/40,82,160.0
240,C2,29.517,1/40,82,160.0
241,E-5,30.0,0.5,89,160.0
242,E-5,30.0,0.5,89,160.0
243,B-2,30.017,1/40,112,160.0
244,E-5,30.5,0.5,89,160.0
245,C5,30.5,0.5,89,160.0
246,F2,30.5,0.5,102,160.0
247,F2,30.5,0.5,95,160.0
248,E-5,30.5,0.5,89,160.0
249,C2,30.517,1/40,95,160.0
250,F5,31.0,1.0,89,160.0
251,C5,31.0,0.5,89,160.0
252,F5,31.0,1.0,89,160.0
253,D2,31.017,1/40,96,160.0
254,F#2,31.017,1/40,96,160.0
255,E-5,31.5,0.5,89,160.0
256,F2,31.5,0.5,102,160.0
257,F2,31.5,0.5,95,160.0
258,C2,31.517,1/40,95,160.0
259,F5,32.0,1.5,89,160.0
260,E-5,32.0,0.5,89,160.0
261,F2,32.0,1.0,102,160.0
262,F2,32.0,1.0,95,160.0
263,F5,32.0,1.5,89,160.0
264,C2,32.017,1/40,96,160.0
265,F#2,32.017,1/40,96,160.0
266,F5,32.5,1.0,89,160.0
267,F#2,33.017,1/40,100,160.0
268,D2,33.017,1/40,100,160.0
269,F5,33.5,1.5,89,160.0
270,F2,33.5,0.5,102,160.0
271,F2,33.5,0.5,95,160.0
272,G#4,33.5,1.5,89,160.0
273,F4,33.5,1.5,89,160.0
274,C2,33.517,1/40,82,160.0
275,F#2,33.517,1/40,82,160.0
276,B-2,34.017,1/40,112,160.0
277,F2,34.5,0.5,102,160.0
278,F2,34.5,0.5,95,160.0
279,C2,34.517,1/40,95,160.0
280,F4,35.0,2.0,89,160.0
281,D4,35.0,2.0,89,160.0
282,F#2,35.017,1/40,96,160.0
283,D2,35.017,1/40,96,160.0
284,F2,35.5,0.5,102,160.0
285,F2,35.5,0.5,95,160.0
286,C2,35.517,1/40,95,160.0
287,F2,36.0,1.0,102,160.0
288,F2,36.0,1.0,95,160.0
289,F#2,36.017,1/40,96,160.0
290,C2,36.017,1/40,96,160.0
291,F3,37.0,0.5,102,160.0
292,F3,37.0,0.5,102,160.0
293,G4,37.0,0.5,89,160.0
294,E4,37.0,0.5,89,160.0
295,F#2,37.017,1/40,100,160.0
296,D2,37.017,1/40,100,160.0
297,F2,37.5,0.5,102,160.0
298,E-3,37.5,0.5,102,160.0
299,F2,37.5,0.5,95,160.0
300,E-3,37.5,0.5,102,160.0
301,F#2,37.517,1/40,81,160.0
302,C2,37.517,1/40,81,160.0
303,C3,38.0,0.5,102,160.0
304,C3,38.0,0.5,102,160.0
305,B-2,38.017,1/40,112,160.0
306,F2,38.5,0.5,102,160.0
307,B-2,38.5,0.5,102,160.0
308,F2,38.5,0.5,95,160.0
309,B-2,38.5,0.5,102,160.0
310,C2,38.517,1/40,95,160.0
311,F4,39.0,0.5,89,160.0
312,G#2,39.0,1.0,102,160.0
313,G#2,39.0,1.0,102,160.0
314,F4,39.0,0.5,89,160.0
315,G4,39.0,1.5,89,160.0
316,E4,39.0,1.5,89,160.0
317,F#2,39.017,1/40,96,160.0
318,D2,39.017,1/40,96,160.0
319,F4,39.5,0.5,89,160.0
320,F2,39.5,0.5,102,160.0
321,F2,39.5,0.5,95,160.0
322,F4,39.5,0.5,89,160.0
323,C2,39.517,1/40,95,160.0
324,F2,40.0,1.0,102,160.0
325,F2,40.0,1.0,95,160.0
326,C2,40.017,1/40,96,160.0
327,F#2,40.017,1/40,96,160.0
328,F4,40.5,1.5,89,160.0
329,D4,40.5,1.5,89,160.0
330,F5,41.0,1.0,89,160.0
331,F5,41.0,1.0,89,160.0
332,D2,41.017,1/40,98,160.0
333,F#2,41.017,1/40,98,160.0
334,F2,41.5,0.5,102,160.0
335,F2,41.5,0.5,95,160.0
336,F#2,41.517,1/40,81,160.0
337,C2,41.517,1/40,81,160.0
338,F5,42.0,1.0,89,160.0
339,F4,42.0,0.5,89,160.0
340,F5,42.0,1.0,89,160.0
341,B-2,42.017,1/40,112,160.0
342,F4,42.5,0.5,89,160.0
343,F2,42.5,0.5,102,160.0
344,F2,42.5,0.5,95,160.0
345,C2,42.517,1/40,95,160.0
346,F5,43.0,0.5,89,160.0
347,F5,43.0,0.5,89,160.0
348,F4,43.0,1.0,89,160.0
349,E-4,43.0,1.0,89,160.0
350,C4,43.0,1.0,89,160.0
351,A3,43.0,1.0,89,160.0
352,D2,43.017,1/40,96,160.0
353,F#2,43.017,1/40,96,160.0
354,G5,43.5,0.5,89,160.0
355,F2,43.5,0.5,102,160.0
356,F2,43.5,0.5,95,160.0
357,G5,43.5,0.5,89,160.0
358,C2,43.517,1/40,95,160.0
359,G5,44.0,1.0,89,160.0
360,F5,44.0,1.0,89,160.0
361,F2,44.0,1.0,102,160.0
362,F2,44.0,1.0,95,160.0
363,G5,44.0,1.0,89,160.0
364,F#2,44.017,1/40,96,160.0
365,C2,44.017,1/40,96,160.0
366,E-5,45.0,0.5,89,160.0
367,F5,45.0,1.0,89,160.0
368,E-5,45.0,0.5,89,160.0
369,D2,45.017,1/40,100,160.0
370,F#2,45.017,1/40,100,160.0
371,E-5,45.5,0.5,89,160.0
372,F2,45.5,0.5,102,160.0
373,F2,45.5,0.5,95,160.0
374,E-5,45.5,0.5,89,160.0
375,C2,45.517,1/40,82,160.0
376,F#2,45.517,1/40,82,160.0
377,E-5,46.0,0.5,89,160.0
378,F5,46.0,0.5,89,160.0
379,E-5,46.0,0.5,89,160.0
380,B-2,46.017,1/40,112,160.0
381,E-5,46.5,0.5,89,160.0
382,G5,46.5,0.5,89,160.0
383,F2,46.5,0.5,102,160.0
384,F2,46.5,0.5,95,160.0
385,E-5,46.5,0.5,89,160.0
386,C2,46.517,1/40,95,160.0
387,F5,47.0,1.0,89,160.0
388,G5,47.0,1.0,89,160.0
389,F5,47.0,1.0,89,160.0
390,D2,47.017,1/40,96,160.0
391,F#2,47.017,1/40,96,160.0
392,F2,47.5,0.5,102,160.0
393,F2,47.5,0.5,95,160.0
394,C2,47.517,1/40,95,160.0
395,F5,48.0,1.5,89,160.0
396,E-5,48.0,0.5,89,160.0
397,F2,48.0,1.0,102,160.0
398,F2,48.0,1.0,102,160.0
399,F2,48.0,1.0,95,160.0
400,F2,48.0,1.0,102,160.0
401,F5,48.0,1.5,89,160.0
402,F#2,48.017,1/40,96,160.0
403,C2,48.017,1/40,96,160.0
404,E-5,48.5,0.5,89,160.0
405,E-5,49.0,0.5,89,160.0
406,G#2,49.0,1.0,102,160.0
407,G#2,49.0,1.0,102,160.0
408,F#2,49.017,1/40,100,160.0
409,D2,49.017,1/40,100,160.0
410,E-5,49.5,0.5,89,160.0
411,F2,49.5,0.5,102,160.0
412,F2,49.5,0.5,95,160.0
413,F#2,49.517,1/40,82,160.0
414,C2,49.517,1/40,82,160.0
415,F5,50.0,1.0,89,160.0
416,B-2,50.0,1.0,102,160.0
417,B-2,50.0,1.0,102,160.0
418,B-2,50.017,1/40,112,160.0
419,F2,50.5,0.5,102,160.0
420,F2,50.5,0.5,95,160.0
421,C2,50.517,1/40,95,160.0
422,F5,51.0,1.5,89,160.0
423,C3,51.0,0.5,102,160.0
424,C3,51.0,0.5,102,160.0
425,F4,51.0,1.5,89,160.0
426,C#4,51.0,1.5,89,160.0
427,F#2,51.017,1/40,96,160.0
428,D2,51.017,1/40,96,160.0
429,F2,51.5,0.5,102,160.0
430,E-3,51.5,0.5,102,160.0
431,F2,51.5,0.5,95,160.0
432,E-3,51.5,0.5,102,160.0
433,C2,51.517,1/40,95,160.0
434,F2,52.0,1.0,102,160.0
435,E-3,52.0,0.5,102,160.0
436,F2,52.0,1.0,95,160.0
437,E-3,52.0,0.5,102,160.0
438,C2,52.017,1/40,96,160.0
439,F#2,52.017,1/40,96,160.0
440,C#3,52.5,1.0,102,160.0
441,C#3,52.5,1.0,102,160.0
442,F4,52.5,2.0,89,160.0
443,D4,52.5,2.0,89,160.0
444,F#2,53.017,1/40,100,160.0
445,D2,53.017,1/40,100,160.0
446,F2,53.5,0.5,102,160.0
447,G#2,53.5,1.0,102,160.0
448,F2,53.5,0.5,95,160.0
449,G#2,53.5,1.0,102,160.0
450,F#2,53.517,1/40,82,160.0
451,C2,53.517,1/40,82,160.0
452,B-2,54.017,1/40,112,160.0
453,E-5,54.5,0.5,89,160.0
454,F2,54.5,0.5,102,160.0
455,F2,54.5,0.5,102,160.0
456,F2,54.5,0.5,95,160.0
457,F2,54.5,0.5,102,160.0
458,E-5,54.5,0.5,89,160.0
459,G4,54.5,0.5,89,160.0
460,E4,54.5,0.5,89,160.0
461,C2,54.517,1/40,95,160.0
462,E-5,55.0,0.5,89,160.0
463,G#2,55.0,1.0,102,160.0
464,G#2,55.0,1.0,102,160.0
465,E-5,55.0,0.5,89,160.0
466,D2,55.017,1/40,96,160.0
467,F#2,55.017,1/40,96,160.0
468,E-5,55.5,0.5,89,160.0
469,F2,55.5,0.5,102,160.0
470,F2,55.5,0.5,95,160.0
471,E-5,55.5,0.5,89,160.0
472,C2,55.517,1/40,95,160.0
473,E-5,56.0,1.0,89,160.0
474,F2,56.0,1.0,102,160.0
475,F2,56.0,1.0,95,160.0
476,E-5,56.0,1.0,89,160.0
477,C2,56.017,1/40,96,160.0
478,F#2,56.017,1/40,96,160.0
479,G4,56.5,1.5,89,160.0
480,E4,56.5,1.5,89,160.0
481,D2,57.017,1/40,100,160.0
482,F#2,57.017,1/40,100,160.0
483,E-5,57.5,0.5,89,160.0
484,F2,57.5,0.5,102,160.0
485,F2,57.5,0.5,95,160.0
486,E-5,57.5,0.5,89,160.0
487,F#2,57.517,1/40,82,160.0
488,C2,57.517,1/40,82,160.0
489,E-5,58.0,0.5,89,160.0
490,E-5,58.0,0.5,89,160.0
491,F4,58.0,2.5,89,160.0
492,D4,58.0,2.5,89,160.0
493,B-2,58.017,1/40,112,160.0
494,D5,58.5,1.0,89,160.0
495,F2,58.5,0.5,102,160.0
496,F2,58.5,0.5,95,160.0
497,D5,58.5,1.0,89,160.0
498,C2,58.517,1/40,95,160.0
499,D2,59.017,1/40,96,160.0
500,F#2,59.017,1/40,96,160.0
501,C5,59.5,0.5,89,160.0
502,F2,59.5,0.5,102,160.0
503,F2,59.5,0.5,95,160.0
504,C5,59.5,0.5,89,160.0
505,C2,59.517,1/40,95,160.0
506,C5,60.0,0.5,89,160.0
507,F2,60.0,1.0,102,160.0
508,F2,60.0,1.0,95,160.0
509,C5,60.0,0.5,89,160.0
510,F#2,60.017,1/40,96,160.0
511,C2,60.017,1/40,96,160.0
512,E-5,60.5,1.0,89,160.0
513,C5,60.5,1.0,89,160.0
514,A4,60.5,1.0,89,160.0
515,F4,60.5,1.0,89,160.0
516,B-4,61.0,0.5,89,160.0
517,B-4,61.0,0.5,89,160.0
518,F#2,61.017,1/40,100,160.0
519,D2,61.017,1/40,100,160.0
520,G#4,61.5,0.5,89,160.0
521,F2,61.5,0.5,102,160.0
522,F2,61.5,0.5,95,160.0
523,G#4,61.5,0.5,89,160.0
524,F#2,61.517,1/40,82,160.0
525,C2,61.517,1/40,82,160.0
526,B-4,62.0,0.5,89,160.0
527,B-4,62.0,0.5,89,160.0
528,B-2,62.017,1/40,112,160.0
529,G#4,62.5,0.5,89,160.0
530,F2,62.5,0.5,102,160.0
531,F2,62.5,0.5,95,160.0
532,G#4,62.5,0.5,89,160.0
533,C2,62.517,1/40,95,160.0
534,C5,63.0,0.5,89,160.0
535,C5,63.0,0.5,89,160.0
536,D2,63.017,1/40,96,160.0
537,F#2,63.017,1/40,96,160.0
538,B-4,63.5,0.25,89,160.0
539,F2,63.5,0.5,102,160.0
540,F2,63.5,0.5,95,160.0
541,B-4,63.5,0.25,89,160.0
542,C2,63.517,1/40,95,160.0
543,G#4,63.75,0.25,89,160.0
544,G#4,63.75,0.25,89,160.0
545,F4,64.0,1.5,89,160.0
546,F2,64.0,1.0,102,160.0
547,F2,64.0,1.0,95,160.0
548,F4,64.0,1.5,89,160.0
549,C2,64.017,1/40,96,160.0
550,F#2,64.017,1/40,96,160.0
551,F#2,65.017,1/40,100,160.0
552,D2,65.017,1/40,100,160.0
553,F2,65.5,0.5,102,160.0
554,F2,65.5,0.5,95,160.0
555,F#2,65.517,1/40,81,160.0
556,C2,65.517,1/40,81,160.0
557,B-2,66.017,1/40,112,160.0
558,F2,66.5,0.5,102,160.0
559,F2,66.5,0.5,95,160.0
560,C2,66.517,1/40,95,160.0
561,D2,67.017,1/40,96,160.0
562,F#2,67.017,1/40,96,160.0
563,F2,67.5,0.5,102,160.0
564,F2,67.5,0.5,95,160.0
565,C2,67.517,1/40,95,160.0
566,F2,68.0,1.0,102,160.0
567,F2,68.0,1.0,95,160.0
568,C2,68.017,1/40,96,160.0
569,F#2,68.017,1/40,96,160.0
570,F3,68.5,0.5,102,160.0
571,F3,68.5,0.5,102,160.0
572,F4,68.5,1.5,89,160.0
573,E-4,68.5,1.5,89,160.0
574,A3,68.5,1.5,89,160.0
575,E-3,69.0,0.5,102,160.0
576,E-3,69.0,0.5,102,160.0
577,F#2,69.017,1/40,100,160.0
578,D2,69.017,1/40,100,160.0
579,C5,69.5,0.5,89,160.0
580,F2,69.5,0.5,102,160.0
581,C3,69.5,0.5,102,160.0
582,F2,69.5,0.5,95,160.0
583,C3,69.5,0.5,102,160.0
584,C5,69.5,0.5,89,160.0
585,F#2,69.517,1/40,81,160.0
586,C2,69.517,1/40,81,160.0
587,C5,70.0,1.0,89,160.0
588,B-2,70.0,0.5,102,160.0
589,B-2,70.0,0.5,102,160.0
590,C5,70.0,1.0,89,160.0
591,F4,70.0,2.0,89,160.0
592,D4,70.0,2.0,89,160.0
593,B-2,70.017,1/40,112,160.0
594,F2,70.5,0.5,102,160.0
595,G#2,70.5,1.0,102,160.0
596,F2,70.5,0.5,95,160.0
597,G#2,70.5,1.0,102,160.0
598,C2,70.517,1/40,95,160.0
599,E-5,71.0,1.0,89,160.0
600,E-5,71.0,1.0,89,160.0
601,D2,71.017,1/40,96,160.0
602,F#2,71.017,1/40,96,160.0
603,F2,71.5,0.5,102,160.0
604,F2,71.5,0.5,95,160.0
605,C2,71.517,1/40,95,160.0
606,F5,72.0,0.5,89,160.0
607,C#2,72.0,1.0,102,160.0
608,C#2,72.0,1.0,95,160.0
609,F5,72.0,0.5,89,160.0
610,G4,72.0,0.5,89,160.0
611,E4,72.0,0.5,89,160.0
612,F#2,72.017,1/40,96,160.0
613,C2,72.017,1/40,96,160.0
614,F5,72.5,0.5,89,160.0
615,F5,72.5,0.5,89,160.0
616,F5,73.0,0.5,89,160.0
617,E-2,73.0,1.0,89,160.0
618,F5,73.0,0.5,89,160.0
619,G#4,73.0,2.0,89,160.0
620,F4,73.0,2.0,89,160.0
621,E-2,73.017,1/40,90,160.0
622,F#2,73.017,1/40,90,160.0
623,D2,73.017,1/40,90,160.0
624,F5,73.5,0.5,89,160.0
625,C#2,73.5,0.5,102,160.0
626,C#2,73.5,0.5,95,160.0
627,F5,73.5,0.5,89,160.0
628,F#2,73.517,1/40,81,160.0
629,C2,73.517,1/40,81,160.0
630,F5,74.0,1.5,89,160.0
631,C#2,74.0,0.5,102,160.0
632,C#2,74.0,0.5,95,160.0
633,F5,74.0,1.5,89,160.0
634,G4,74.0,1.5,89,160.0
635,E4,74.0,1.5,89,160.0
636,B-2,74.017,1/40,96,160.0
637,C2,74.017,1/40,96,160.0
638,G#2,74.5,0.5,102,160.0
639,G#2,74.5,0.5,95,160.0
640,C2,74.517,1/40,95,160.0
641,C#3,75.0,0.5,102,160.0
642,C#3,75.0,0.5,95,160.0
643,E-2,75.0,1.0,89,160.0
644,G#4,75.0,1.0,89,160.0
645,F4,75.0,1.0,89,160.0
646,E-2,75.017,1/40,88,160.0
647,F#2,75.017,1/40,88,160.0
648,D2,75.017,1/40,88,160.0
649,F5,75.5,0.5,89,160.0
650,C5,75.5,0.5,89,160.0
651,G#2,75.5,0.5,102,160.0
652,G#2,75.5,0.5,95,160.0
653,F5,75.5,0.5,89,160.0
654,F4,75.5,1.5,89,160.0
655,D4,75.5,1.5,89,160.0
656,C2,75.517,1/40,95,160.0
657,F5,76.0,0.5,89,160.0
658,C5,76.0,1.0,89,160.0
659,F5,76.0,0.5,89,160.0
660,C2,76.017,1/40,96,160.0
661,F#2,76.017,1/40,96,160.0
662,F5,76.5,1.0,89,160.0
663,C2,76.5,0.5,102,160.0
664,C2,76.5,0.5,95,160.0
665,F5,76.5,1.0,89,160.0
666,E-2,77.0,1.0,89,160.0
667,E-5,77.0,1.0,89,160.0
668,G#4,77.0,1.0,89,160.0
669,F4,77.0,1.0,89,160.0
670,C5,77.0,2.0,89,160.0
671,G4,77.0,2.0,89,160.0
672,E-2,77.017,1/40,90,160.0
673,F#2,77.017,1/40,90,160.0
674,D2,77.017,1/40,90,160.0
675,F5,77.5,1.5,89,160.0
676,C2,77.5,0.5,102,160.0
677,C2,77.5,0.5,95,160.0
678,F5,77.5,1.5,89,160.0
679,C2,77.517,1/40,81,160.0
680,F#2,77.517,1/40,81,160.0
681,F5,78.0,0.5,89,160.0
682,C2,78.0,0.5,102,160.0
683,C2,78.0,0.5,95,160.0
684,C2,78.017,1/40,96,160.0
685,B-2,78.017,1/40,96,160.0
686,F5,78.5,0.5,89,160.0
687,G2,78.5,0.5,102,160.0
688,G2,78.5,0.5,95,160.0
689,C2,78.517,1/40,95,160.0
690,F5,79.0,0.5,89,160.0
691,F5,79.0,0.5,89,160.0
692,C3,79.0,1.0,102,160.0
693,C3,79.0,1.0,95,160.0
694,E-2,79.0,1.0,89,160.0
695,F5,79.0,0.5,89,160.0
696,C5,79.0,1.0,89,160.0
697,G4,79.0,1.0,89,160.0
698,E-2,79.017,1/40,88,160.0
699,D2,79.017,1/40,88,160.0
700,F#2,79.017,1/40,88,160.0
701,E-5,79.5,0.5,89,160.0
702,F5,79.5,0.5,89,160.0
703,E-5,79.5,0.5,89,160.0
704,C2,79.517,1/40,95,160.0
705,F5,80.0,1.0,89,160.0
706,F5,80.0,1.5,89,160.0
707,C2,80.0,1.0,102,160.0
708,C2,80.0,1.0,95,160.0
709,F5,80.0,1.0,89,160.0
710,C2,80.017,1/40,96,160.0
711,F#2,80.017,1/40,96,160.0
712,F5,81.0,1.0,89,160.0
713,E-2,81.0,1.0,89,160.0
714,F5,81.0,1.0,89,160.0
715,C5,81.0,2.0,89,160.0
716,G4,81.0,2.0,89,160.0
717,D2,81.017,1/40,90,160.0
718,E-2,81.017,1/40,90,160.0
719,F#2,81.017,1/40,90,160.0
720,F5,81.5,0.5,89,160.0
721,C2,81.5,0.5,102,160.0
722,C2,81.5,0.5,95,160.0
723,C2,81.517,1/40,81,160.0
724,F#2,81.517,1/40,81,160.0
725,F5,82.0,1.0,89,160.0
726,F5,82.0,0.5,89,160.0
727,C2,82.0,0.5,102,160.0
728,C2,82.0,0.5,95,160.0
729,F5,82.0,1.0,89,160.0
730,C2,82.017,1/40,96,160.0
731,B-2,82.017,1/40,96,160.0
732,F5,82.5,1.0,89,160.0
733,G2,82.5,0.5,102,160.0
734,G2,82.5,0.5,95,160.0
735,C2,82.517,1/40,95,160.0
736,E-5,83.0,0.5,89,160.0
737,C3,83.0,0.5,102,160.0
738,C3,83.0,0.5,95,160.0
739,E-2,83.0,1.0,89,160.0
740,E-5,83.0,0.5,89,160.0
741,C5,83.0,1.0,89,160.0
742,G4,83.0,1.0,89,160.0
743,E-2,83.017,1/40,88,160.0
744,D2,83.017,1/40,88,160.0
745,F#2,83.017,1/40,88,160.0
746,F5,83.5,0.5,89,160.0
747,F5,83.5,1.5,89,160.0
748,G2,83.5,0.5,102,160.0
749,G2,83.5,0.5,95,160.0
750,F5,83.5,0.5,89,160.0
751,C2,83.517,1/40,95,160.0
752,F5,84.0,1.0,89,160.0
753,F5,84.0,1.0,89,160.0
754,F#2,84.017,1/40,96,160.0
755,C2,84.017,1/40,96,160.0
756,F2,84.5,0.5,102,160.0
757,F2,84.5,0.5,95,160.0
758,F5,85.0,0.5,89,160.0
759,E-2,85.0,1.0,89,160.0
760,F4,85.0,2.0,89,160.0
761,A4,85.0,2.0,89,160.0
762,E-2,85.017,1/40,90,160.0
763,D2,85.017,1/40,90,160.0
764,F#2,85.017,1/40,90,160.0
765,C5,85.5,0.5,89,160.0
766,E-5,85.5,0.5,89,160.0
767,F2,85.5,0.5,102,160.0
768,F2,85.5,0.5,95,160.0
769,C5,85.5,0.5,89,160.0
770,F#2,85.517,1/40,81,160.0
771,C2,85.517,1/40,81,160.0
772,C5,86.0,1.0,89,160.0
773,F5,86.0,1.0,89,160.0
774,F2,86.0,1.0,102,160.0
775,F2,86.0,1.0,95,160.0
776,C5,86.0,1.0,89,160.0
777,C2,86.017,1/40,96,160.0
778,B-2,86.017,1/40,96,160.0
779,C2,86.517,1/40,95,160.0
780,E-5,87.0,1.0,89,160.0
781,F5,87.0,1.0,89,160.0
782,F3,87.0,1.0,102,160.0
783,F3,87.0,1.0,95,160.0
784,E-2,87.0,1.0,89,160.0
785,E-5,87.0,1.0,89,160.0
786,F4,87.0,1.0,89,160.0
787,A4,87.0,1.0,89,160.0
788,F#2,87.017,1/40,88,160.0
789,D2,87.017,1/40,88,160.0
790,E-2,87.017,1/40,88,160.0
791,C2,87.517,1/40,95,160.0
792,F5,88.0,0.5,89,160.0
793,F5,88.0,1.0,89,160.0
794,C#2,88.0,1.0,102,160.0
795,C#2,88.0,1.0,95,160.0
796,F5,88.0,0.5,89,160.0
797,C2,88.017,1/40,96,160.0
798,F#2,88.017,1/40,96,160.0
799,F5,88.5,0.5,89,160.0
800,F5,88.5,0.5,89,160.0
801,F5,89.0,0.5,89,160.0
802,E-5,89.0,0.5,89,160.0
803,E-2,89.0,1.0,89,160.0
804,F5,89.0,0.5,89,160.0
805,G#4,89.0,2.0,89,160.0
806,F4,89.0,2.0,89,160.0
807,E-2,89.017,1/40,90,160.0
808,D2,89.017,1/40,90,160.0
809,F#2,89.017,1/40,90,160.0
810,F5,89.5,0.5,89,160.0
811,F5,89.5,0.5,89,160.0
812,C#2,89.5,0.5,102,160.0
813,C#2,89.5,0.5,95,160.0
814,F5,89.5,0.5,89,160.0
815,C2,89.517,1/40,81,160.0
816,F#2,89.517,1/40,81,160.0
817,F5,90.0,1.5,89,160.0
818,F5,90.0,1.0,89,160.0
819,C#2,90.0,0.5,102,160.0
820,C#2,90.0,0.5,95,160.0
821,F5,90.0,1.5,89,160.0
822,B-2,90.017,1/40,96,160.0
823,C2,90.017,1/40,96,160.0
824,G#2,90.5,0.5,102,160.0
825,G#2,90.5,0.5,95,160.0
826,C2,90.517,1/40,95,160.0
827,C#3,91.0,0.5,102,160.0
828,C#3,91.0,0.5,95,160.0
829,E-2,91.0,1.0,89,160.0
830,G#4,91.0,1.0,89,160.0
831,F4,91.0,1.0,89,160.0
832,E-2,91.017,1/40,88,160.0
833,F#2,91.017,1/40,88,160.0
834,D2,91.017,1/40,88,160.0
835,F5,91.5,0.5,89,160.0
836,C5,91.5,0.5,89,160.0
837,G#2,91.5,0.5,102,160.0
838,G#2,91.5,0.5,95,160.0
839,F5,91.5,0.5,89,160.0
840,C2,91.517,1/40,95,160.0
841,F5,92.0,0.5,89,160.0
842,C5,92.0,1.0,89,160.0
843,F5,92.0,0.5,89,160.0
844,F#2,92.017,1/40,96,160.0
845,C2,92.017,1/40,96,160.0
846,E-5,92.5,1.0,89,160.0
847,C2,92.5,0.5,102,160.0
848,C2,92.5,0.5,95,160.0
849,E-5,92.5,1.0,89,160.0
850,E-5,93.0,1.0,89,160.0
851,E-2,93.0,1.0,89,160.0
852,C5,93.0,2.0,89,160.0
853,G4,93.0,2.0,89,160.0
854,E-2,93.017,1/40,90,160.0
855,F#2,93.017,1/40,90,160.0
856,D2,93.017,1/40,90,160.0
857,E-5,93.5,0.5,89,160.0
858,C2,93.5,0.5,102,160.0
859,C2,93.5,0.5,95,160.0
860,E-5,93.5,0.5,89,160.0
861,C2,93.517,1/40,81,160.0
862,F#2,93.517,1/40,81,160.0
863,C5,94.0,1.0,89,160.0
864,F5,94.0,0.5,89,160.0
865,C2,94.0,0.5,102,160.0
866,C2,94.0,0.5,95,160.0
867,C5,94.0,1.0,89,160.0
868,B-2,94.017,1/40,96,160.0
869,C2,94.017,1/40,96,160.0
870,F5,94.5,0.5,89,160.0
871,G2,94.5,0.5,102,160.0
872,G2,94.5,0.5,95,160.0
873,C2,94.517,1/40,95,160.0
874,C5,95.0,1.0,89,160.0
875,F5,95.0,0.5,89,160.0
876,C3,95.0,1.0,102,160.0
877,C3,95.0,1.0,95,160.0
878,E-2,95.0,1.0,89,160.0
879,C5,95.0,1.0,89,160.0
880,C5,95.0,1.0,89,160.0
881,G4,95.0,1.0,89,160.0
882,E-2,95.017,1/40,88,160.0
883,D2,95.017,1/40,88,160.0
884,F#2,95.017,1/40,88,160.0
885,F5,95.5,0.5,89,160.0
886,C2,95.517,1/40,95,160.0
887,F5,96.0,0.5,89,160.0
888,F5,96.0,1.5,89,160.0
889,C2,96.0,1.0,102,160.0
890,C2,96.0,1.0,95,160.0
891,F5,96.0,0.5,89,160.0
892,F#2,96.017,1/40,96,160.0
893,C2,96.017,1/40,96,160.0
894,E-5,96.5,0.5,89,160.0
895,E-5,96.5,0.5,89,160.0
896,F5,97.0,1.0,89,160.0
897,E-2,97.0,1.0,89,160.0
898,F5,97.0,1.0,89,160.0
899,C5,97.0,2.0,89,160.0
900,G4,97.0,2.0,89,160.0
901,E-2,97.017,1/40,90,160.0
902,D2,97.017,1/40,90,160.0
903,F#2,97.017,1/40,90,160.0
904,F5,97.5,0.5,89,160.0
905,C2,97.5,0.5,102,160.0
906,C2,97.5,0.5,95,160.0
907,F#2,97.517,1/40,81,160.0
908,C2,97.517,1/40,81,160.0
909,F5,98.0,1.0,89,160.0
910,F5,98.0,0.5,89,160.0
911,C2,98.0,0.5,102,160.0
912,C2,98.0,0.5,95,160.0
913,F5,98.0,1.0,89,160.0
914,B-2,98.017,1/40,96,160.0
915,C2,98.017,1/40,96,160.0
916,E-5,98.5,1.0,89,160.0
917,G2,98.5,0.5,102,160.0
918,G2,98.5,0.5,95,160.0
919,C2,98.517,1/40,95,160.0
920,E-5,99.0,0.5,89,160.0
921,C3,99.0,0.5,102,160.0
922,C3,99.0,0.5,95,160.0
923,E-2,99.0,1.0,89,160.0
924,E-5,99.0,0.5,89,160.0
925,C5,99.0,1.0,89,160.0
926,G4,99.0,1.0,89,160.0
927,E-2,99.017,1/40,88,160.0
928,D2,99.017,1/40,88,160.0
929,F#2,99.017,1/40,88,160.0
930,F5,99.5,0.5,89,160.0
931,E-5,99.5,0.5,89,160.0
932,G2,99.5,0.5,102,160.0
933,G2,99.5,0.5,95,160.0
934,F5,99.5,0.5,89,160.0
935,C2,99.517,1/40,95,160.0
936,F5,100.0,1.0,89,160.0
937,C5,100.0,1.0,89,160.0
938,F5,100.0,1.0,89,160.0
939,F#2,100.017,1/40,96,160.0
940,C2,100.017,1/40,96,160.0
941,F2,100.5,0.5,102,160.0
942,F2,100.5,0.5,95,160.0
943,C5,101.0,1.0,89,160.0
944,E-2,101.0,1.0,89,160.0
945,F4,101.0,2.0,89,160.0
946,A4,101.0,2.0,89,160.0
947,E-2,101.017,1/40,90,160.0
948,D2,101.017,1/40,90,160.0
949,F#2,101.017,1/40,90,160.0
950,C5,101.5,0.5,89,160.0
951,F2,101.5,0.5,102,160.0
952,F2,101.5,0.5,95,160.0
953,C5,101.5,0.5,89,160.0
954,C2,101.517,1/40,81,160.0
955,F#2,101.517,1/40,81,160.0
956,C5,102.0,1.0,89,160.0
957,F5,102.0,0.5,89,160.0
958,F2,102.0,1.0,102,160.0
959,F2,102.0,1.0,95,160.0
960,C5,102.0,1.0,89,160.0
961,B-2,102.017,1/40,96,160.0
962,C2,102.017,1/40,96,160.0
963,E-5,102.5,0.5,89,160.0
964,C2,102.517,1/40,95,160.0
965,E-5,103.0,1.0,89,160.0
966,F5,103.0,1.0,89,160.0
967,F3,103.0,1.0,102,160.0
968,F3,103.0,1.0,95,160.0
969,E-2,103.0,1.0,89,160.0
970,E-5,103.0,1.0,89,160.0
971,F4,103.0,1.0,89,160.0
972,A4,103.0,1.0,89,160.0
973,E-2,103.017,1/40,88,160.0
974,D2,103.017,1/40,88,160.0
975,F#2,103.017,1/40,88,160.0
976,C2,103.517,1/40,95,160.0
977,F5,104.0,0.5,89,160.0
978,F5,104.0,1.0,89,160.0
979,C#2,104.0,1.0,102,160.0
980,C#2,104.0,1.0,95,160.0
981,F5,104.0,0.5,89,160.0
982,C2,104.017,1/40,104,160.0
983,F#2,104.017,1/40,104,160.0
984,F5,104.5,0.5,89,160.0
985,F5,104.5,0.5,89,160.0
986,C6,105.0,0.5,89,160.0
987,E-5,105.0,0.5,89,160.0
988,E-2,105.0,1.0,89,160.0
989,C6,105.0,0.5,89,160.0
990,F5,105.0,2.0,89,160.0
991,C#5,105.0,2.0,89,160.0
992,D2,105.017,1/40,88,160.0
993,B-5,105.5,0.5,89,160.0
994,F5,105.5,0.5,89,160.0
995,C#2,105.5,0.5,102,160.0
996,C#2,105.5,0.5,95,160.0
997,B-5,105.5,0.5,89,160.0
998,C2,105.517,1/40,95,160.0
999,B-5,106.0,0.5,89,160.0
1000,F5,106.0,1.0,89,160.0
1001,C#2,106.0,0.5,102,160.0
1002,C#2,106.0,0.5,95,160.0
1003,B-5,106.0,0.5,89,160.0
1004,B-2,106.017,1/40,112,160.0
1005,G#5,106.5,0.5,89,160.0
1006,G#2,106.5,0.5,102,160.0
1007,G#2,106.5,0.5,95,160.0
1008,G#5,106.5,0.5,89,160.0
1009,C2,106.517,1/40,95,160.0
1010,F5,107.0,0.5,89,160.0
1011,C#3,107.0,0.5,102,160.0
1012,C#3,107.0,0.5,95,160.0
1013,E-2,107.0,1.0,89,160.0
1014,F5,107.0,0.5,89,160.0
1015,C#5,107.0,1.0,89,160.0
1016,G#4,107.0,1.0,89,160.0
1017,F#2,107.017,1/40,96,160.0
1018,D2,107.017,1/40,96,160.0
1019,G#5,107.5,0.5,89,160.0
1020,C5,107.5,0.5,89,160.0
1021,G#2,107.5,0.5,102,160.0
1022,G#2,107.5,0.5,95,160.0
1023,G#5,107.5,0.5,89,160.0
1024,F#2,107.517,1/40,85,160.0
1025,C2,107.517,1/40,85,160.0
1026,G#5,108.0,0.5,89,160.0
1027,C5,108.0,1.0,89,160.0
1028,G#5,108.0,0.5,89,160.0
1029,C2,108.017,1/40,96,160.0
1030,F#2,108.017,1/40,96,160.0
1031,F5,108.5,1.0,89,160.0
1032,C2,108.5,0.5,102,160.0
1033,C2,108.5,0.5,95,160.0
1034,F5,108.5,1.0,89,160.0
1035,E-5,109.0,1.0,89,160.0
1036,E-2,109.0,1.0,89,160.0
1037,C5,109.0,2.0,89,160.0
1038,G4,109.0,2.0,89,160.0
1039,F#2,109.017,1/40,98,160.0
1040,D2,109.017,1/40,98,160.0
1041,F5,109.5,1.5,89,160.0
1042,C2,109.5,0.5,102,160.0
1043,C2,109.5,0.5,95,160.0
1044,F5,109.5,1.5,89,160.0
1045,F#2,109.517,1/40,81,160.0
1046,C2,109.517,1/40,81,160.0
1047,F5,110.0,0.5,89,160.0
1048,C2,110.0,0.5,102,160.0
1049,C2,110.0,0.5,95,160.0
1050,B-2,110.017,1/40,112,160.0
1051,F5,110.5,0.5,89,160.0
1052,G2,110.5,0.5,102,160.0
1053,G2,110.5,0.5,95,160.0
1054,C2,110.517,1/40,95,160.0
1055,E-5,111.0,1.0,89,160.0
1056,C6,111.0,0.5,89,160.0
1057,C3,111.0,1.0,102,160.0
1058,C3,111.0,1.0,95,160.0
1059,E-2,111.0,1.0,89,160.0
1060,E-5,111.0,1.0,89,160.0
1061,C5,111.0,1.0,89,160.0
1062,G4,111.0,1.0,89,160.0
1063,F#2,111.017,1/40,96,160.0
1064,D2,111.017,1/40,96,160.0
1065,B-5,111.5,0.5,89,160.0
1066,C2,111.517,1/40,95,160.0
1067,F5,112.0,0.5,89,160.0
1068,B-5,112.0,0.5,89,160.0
1069,C2,112.0,1.0,102,160.0
1070,C2,112.0,1.0,95,160.0
1071,F5,112.0,0.5,89,160.0
1072,C2,112.017,1/40,96,160.0
1073,F#2,112.017,1/40,96,160.0
1074,F5,112.5,0.5,89,160.0
1075,G#5,112.5,0.5,89,160.0
1076,F5,112.5,0.5,89,160.0
1077,F5,113.0,1.0,89,160.0
1078,F5,113.0,0.5,89,160.0
1079,E-2,113.0,1.0,89,160.0
1080,F5,113.0,1.0,89,160.0
1081,C5,113.0,2.0,89,160.0
1082,G4,113.0,2.0,89,160.0
1083,F#2,113.017,1/40,100,160.0
1084,D2,113.017,1/40,100,160.0
1085,G#5,113.5,0.5,89,160.0
1086,C2,113.5,0.5,102,160.0
1087,C2,113.5,0.5,95,160.0
1088,F#2,113.517,1/40,82,160.0
1089,C2,113.517,1/40,82,160.0
1090,F5,114.0,1.0,89,160.0
1091,G#5,114.0,0.5,89,160.0
1092,C2,114.0,0.5,102,160.0
1093,C2,114.0,0.5,95,160.0
1094,F5,114.0,1.0,89,160.0
1095,B-2,114.017,1/40,112,160.0
1096,F5,114.5,1.0,89,160.0
1097,G2,114.5,0.5,102,160.0
1098,G2,114.5,0.5,95,160.0
1099,C2,114.517,1/40,95,160.0
1100,E-5,115.0,0.5,89,160.0
1101,C3,115.0,0.5,102,160.0
1102,C3,115.0,0.5,95,160.0
1103,E-2,115.0,1.0,89,160.0
1104,E-5,115.0,0.5,89,160.0
1105,C5,115.0,1.0,89,160.0
1106,G4,115.0,1.0,89,160.0
1107,D2,115.017,1/40,96,160.0
1108,F#2,115.017,1/40,96,160.0
1109,F5,115.5,0.5,89,160.0
1110,F5,115.5,1.5,89,160.0
1111,G2,115.5,0.5,102,160.0
1112,G2,115.5,0.5,95,160.0
1113,F5,115.5,0.5,89,160.0
1114,C2,115.517,1/40,95,160.0
1115,F5,116.0,1.0,89,160.0
1116,F5,116.0,1.0,89,160.0
1117,F#2,116.017,1/40,96,160.0
1118,C2,116.017,1/40,96,160.0
1119,F2,116.5,0.5,102,160.0
1120,F2,116.5,0.5,95,160.0
1121,E-5,117.0,1.0,89,160.0
1122,E-2,117.0,1.0,89,160.0
1123,F4,117.0,2.0,89,160.0
1124,A4,117.0,2.0,89,160.0
1125,D2,117.017,1/40,100,160.0
1126,F#2,117.017,1/40,100,160.0
1127,C5,117.5,0.5,89,160.0
1128,F2,117.5,0.5,102,160.0
1129,F2,117.5,0.5,95,160.0
1130,C5,117.5,0.5,89,160.0
1131,F#2,117.517,1/40,82,160.0
1132,C2,117.517,1/40,82,160.0
1133,C5,118.0,1.0,89,160.0
1134,F5,118.0,0.5,89,160.0
1135,F2,118.0,1.0,102,160.0
1136,F2,118.0,1.0,95,160.0
1137,C5,118.0,1.0,89,160.0
1138,B-2,118.017,1/40,112,160.0
1139,F5,118.5,0.5,89,160.0
1140,C2,118.517,1/40,95,160.0
1141,E-5,119.0,1.0,89,160.0
1142,F5,119.0,1.0,89,160.0
1143,F3,119.0,1.0,102,160.0
1144,F3,119.0,1.0,95,160.0
1145,E-2,119.0,1.0,89,160.0
1146,E-5,119.0,1.0,89,160.0
1147,F4,119.0,1.0,89,160.0
1148,A4,119.0,1.0,89,160.0
1149,D2,119.017,1/40,96,160.0
1150,F#2,119.017,1/40,96,160.0
1151,C2,119.517,1/40,95,160.0
1152,F5,120.0,0.5,89,160.0
1153,F5,120.0,1.0,89,160.0
1154,C#2,120.0,1.0,102,160.0
1155,C#2,120.0,1.0,95,160.0
1156,F5,120.0,0.5,89,160.0
1157,F#2,120.017,1/40,96,160.0
1158,C2,120.017,1/40,96,160.0
1159,F5,120.5,0.5,89,160.0
1160,F5,120.5,0.5,89,160.0
1161,F5,121.0,0.5,89,160.0
1162,E-5,121.0,0.5,89,160.0
1163,E-2,121.0,1.0,89,160.0
1164,F5,121.0,0.5,89,160.0
1165,G#4,121.0,2.0,89,160.0
1166,F4,121.0,2.0,89,160.0
1167,F#2,121.017,1/40,100,160.0
1168,D2,121.017,1/40,100,160.0
1169,F5,121.5,0.5,89,160.0
1170,F5,121.5,0.5,89,160.0
1171,C#2,121.5,0.5,102,160.0
1172,C#2,121.5,0.5,95,160.0
1173,F5,121.5,0.5,89,160.0
1174,F#2,121.517,1/40,82,160.0
1175,C2,121.517,1/40,82,160.0
1176,F5,122.0,1.5,89,160.0
1177,F5,122.0,1.0,89,160.0
1178,C#2,122.0,0.5,102,160.0
1179,C#2,122.0,0.5,95,160.0
1180,F5,122.0,1.5,89,160.0
1181,B-2,122.017,1/40,112,160.0
1182,G#2,122.5,0.5,102,160.0
1183,G#2,122.5,0.5,95,160.0
1184,C2,122.517,1/40,95,160.0
1185,C#3,123.0,0.5,102,160.0
1186,C#3,123.0,0.5,95,160.0
1187,E-2,123.0,1.0,89,160.0
1188,G#4,123.0,1.0,89,160.0
1189,F4,123.0,1.0,89,160.0
1190,D2,123.017,1/40,96,160.0
1191,F#2,123.017,1/40,96,160.0
1192,F5,123.5,0.5,89,160.0
1193,C5,123.5,0.5,89,160.0
1194,G#2,123.5,0.5,102,160.0
1195,G#2,123.5,0.5,95,160.0
1196,F5,123.5,0.5,89,160.0
1197,C2,123.517,1/40,95,160.0
1198,F5,124.0,0.5,89,160.0
1199,C5,124.0,1.0,89,160.0
1200,F5,124.0,0.5,89,160.0
1201,C2,124.017,1/40,96,160.0
1202,F#2,124.017,1/40,96,160.0
1203,E-5,124.5,1.0,89,160.0
1204,C2,124.5,0.5,102,160.0
1205,C2,124.5,0.5,95,160.0
1206,E-5,124.5,1.0,89,160.0
1207,E-5,125.0,1.0,89,160.0
1208,E-2,125.0,1.0,89,160.0
1209,C5,125.0,2.0,89,160.0
1210,G4,125.0,2.0,89,160.0
1211,F#2,125.017,1/40,100,160.0
1212,D2,125.017,1/40,100,160.0
1213,E-5,125.5,0.5,89,160.0
1214,C2,125.5,0.5,102,160.0
1215,C2,125.5,0.5,95,160.0
1216,E-5,125.5,0.5,89,160.0
1217,F#2,125.517,1/40,82,160.0
1218,C2,125.517,1/40,82,160.0
1219,C5,126.0,1.0,89,160.0
1220,F5,126.0,0.5,89,160.0
1221,C2,126.0,0.5,102,160.0
1222,C2,126.0,0.5,95,160.0
1223,C5,126.0,1.0,89,160.0
1224,B-2,126.017,1/40,112,160.0
1225,F5,126.5,0.5,89,160.0
1226,G2,126.5,0.5,102,160.0
1227,G2,126.5,0.5,95,160.0
1228,C2,126.517,1/40,95,160.0
1229,C5,127.0,1.0,89,160.0
1230,F5,127.0,0.5,89,160.0
1231,C3,127.0,1.0,102,160.0
1232,C3,127.0,1.0,95,160.0
1233,E-2,127.0,1.0,89,160.0
1234,C5,127.0,1.0,89,160.0
1235,C5,127.0,1.0,89,160.0
1236,G4,127.0,1.0,89,160.0
1237,D2,127.017,1/40,96,160.0
1238,F#2,127.017,1/40,96,160.0
1239,F5,127.5,0.5,89,160.0
1240,C2,127.517,1/40,95,160.0
1241,F5,128.0,1.0,89,160.0
1242,F5,128.0,1.5,89,160.0
1243,C2,128.0,1.0,102,160.0
1244,C2,128.0,1.0,95,160.0
1245,F5,128.0,1.0,89,160.0
1246,C2,128.017,1/40,96,160.0
1247,F#2,128.017,1/40,96,160.0
1248,F5,129.0,0.5,89,160.0
1249,E-2,129.0,1.0,89,160.0
1250,F5,129.0,0.5,89,160.0
1251,C5,129.0,2.0,89,160.0
1252,G4,129.0,2.0,89,160.0
1253,F#2,129.017,1/40,100,160.0
1254,D2,129.017,1/40,100,160.0
1255,E-5,129.5,0.5,89,160.0
1256,F5,129.5,0.5,89,160.0
1257,C2,129.5,0.5,102,160.0
1258,C2,129.5,0.5,95,160.0
1259,E-5,129.5,0.5,89,160.0
1260,C2,129.517,1/40,82,160.0
1261,F#2,129.517,1/40,82,160.0
1262,F5,130.0,1.0,89,160.0
1263,F5,130.0,0.5,89,160.0
1264,C2,130.0,0.5,102,160.0
1265,C2,130.0,0.5,95,160.0
1266,F5,130.0,1.0,89,160.0
1267,B-2,130.017,1/40,112,160.0
1268,E-5,130.5,1.0,89,160.0
1269,G2,130.5,0.5,102,160.0
1270,G2,130.5,0.5,95,160.0
1271,C2,130.517,1/40,95,160.0
1272,E-5,131.0,0.5,89,160.0
1273,C3,131.0,0.5,102,160.0
1274,C3,131.0,0.5,95,160.0
1275,E-2,131.0,1.0,89,160.0
1276,E-5,131.0,0.5,89,160.0
1277,C5,131.0,1.0,89,160.0
1278,G4,131.0,1.0,89,160.0
1279,F#2,131.017,1/40,96,160.0
1280,D2,131.017,1/40,96,160.0
1281,F5,131.5,0.5,89,160.0
1282,E-5,131.5,0.5,89,160.0
1283,G2,131.5,0.5,102,160.0
1284,G2,131.5,0.5,95,160.0
1285,F5,131.5,0.5,89,160.0
1286,C2,131.517,1/40,95,160.0
1287,F5,132.0,1.0,89,160.0
1288,C5,132.0,1.0,89,160.0
1289,F5,132.0,1.0,89,160.0
1290,F#2,132.017,1/40,96,160.0
1291,C2,132.017,1/40,96,160.0
1292,F2,132.5,0.5,102,160.0
1293,F2,132.5,0.5,95,160.0
1294,C5,133.0,1.0,89,160.0
1295,E-2,133.0,1.0,89,160.0
1296,F4,133.0,2.0,89,160.0
1297,A4,133.0,2.0,89,160.0
1298,F#2,133.017,1/40,100,160.0
1299,D2,133.017,1/40,100,160.0
1300,F2,133.5,0.5,102,160.0
1301,F2,133.5,0.5,95,160.0
1302,F#2,133.517,1/40,81,160.0
1303,C2,133.517,1/40,81,160.0
1304,F5,134.0,1.0,89,160.0
1305,F2,134.0,1.0,102,160.0
1306,F2,134.0,1.0,95,160.0
1307,B-2,134.017,1/40,112,160.0
1308,C2,134.517,1/40,95,160.0
1309,F5,135.0,0.5,89,160.0
1310,F3,135.0,1.0,102,160.0
1311,F3,135.0,1.0,95,160.0
1312,E-2,135.0,1.0,89,160.0
1313,F4,135.0,1.0,89,160.0
1314,A4,135.0,1.0,89,160.0
1315,F#2,135.017,1/40,96,160.0
1316,D2,135.017,1/40,96,160.0
1317,E-5,135.5,0.5,89,160.0
1318,C2,135.517,1/40,95,160.0
1319,F5,136.0,1.0,89,160.0
1320,F2,136.0,1.0,102,160.0
1321,F2,136.0,1.0,95,160.0
1322,E-2,136.0,0.5,89,160.0
1323,C2,136.017,1/40,96,160.0
1324,F#2,136.017,1/40,96,160.0
1325,E-2,136.5,0.5,89,160.0
1326,G#5,137.0,0.5,89,160.0
1327,E-5,137.0,0.5,89,160.0
1328,E-2,137.0,0.5,89,160.0
1329,G#5,137.0,0.5,89,160.0
1330,D2,137.017,1/40,98,160.0
1331,F#2,137.017,1/40,98,160.0
1332,G#5,137.5,1.0,89,160.0
1333,F5,137.5,0.5,89,160.0
1334,F2,137.5,0.5,102,160.0
1335,F2,137.5,0.5,95,160.0
1336,E-2,137.5,0.5,89,160.0
1337,G#5,137.5,1.0,89,160.0
1338,F#2,137.517,1/40,81,160.0
1339,C2,137.517,1/40,81,160.0
1340,F5,138.0,1.0,89,160.0
1341,E-2,138.0,0.5,89,160.0
1342,B-2,138.017,1/40,112,160.0
1343,G#5,138.5,1.0,89,160.0
1344,F2,138.5,0.5,102,160.0
1345,F2,138.5,0.5,95,160.0
1346,E-2,138.5,0.5,89,160.0
1347,G#5,138.5,1.0,89,160.0
1348,C2,138.517,1/40,95,160.0
1349,E-2,139.0,0.5,89,160.0
1350,D2,139.017,1/40,96,160.0
1351,F#2,139.017,1/40,96,160.0
1352,G#5,139.5,0.5,89,160.0
1353,F2,139.5,0.5,102,160.0
1354,F2,139.5,0.5,95,160.0
1355,E-2,139.5,0.5,89,160.0
1356,G#5,139.5,0.5,89,160.0
1357,C2,139.517,1/40,95,160.0
1358,G#5,140.0,1.0,89,160.0
1359,F2,140.0,1.0,102,160.0
1360,F2,140.0,1.0,95,160.0
1361,E-2,140.0,0.5,89,160.0
1362,G#5,140.0,1.0,89,160.0
1363,F#2,140.017,1/40,96,160.0
1364,C2,140.017,1/40,96,160.0
1365,E-2,140.5,0.5,89,160.0
1366,C5,141.0,0.5,89,160.0
1367,E-2,141.0,0.5,89,160.0
1368,C5,141.0,0.5,89,160.0
1369,D2,141.017,1/40,100,160.0
1370,F#2,141.017,1/40,100,160.0
1371,C5,141.5,0.5,89,160.0
1372,F2,141.5,0.5,102,160.0
1373,F2,141.5,0.5,95,160.0
1374,E-2,141.5,0.5,89,160.0
1375,C5,141.5,0.5,89,160.0
1376,C2,141.517,1/40,82,160.0
1377,F#2,141.517,1/40,82,160.0
1378,E-5,142.0,0.5,89,160.0
1379,E-2,142.0,0.5,89,160.0
1380,E-5,142.0,0.5,89,160.0
1381,F4,142.0,1.0,89,160.0
1382,E-4,142.0,1.0,89,160.0
1383,C4,142.0,1.0,89,160.0
1384,A3,142.0,1.0,89,160.0
1385,B-2,142.017,1/40,112,160.0
1386,E-5,142.5,0.5,89,160.0
1387,F2,142.5,0.5,102,160.0
1388,F2,142.5,0.5,95,160.0
1389,E-2,142.5,0.5,89,160.0
1390,E-5,142.5,0.5,89,160.0
1391,C2,142.517,1/40,95,160.0
1392,F5,143.0,1.0,89,160.0
1393,G#5,143.0,0.5,89,160.0
1394,E-2,143.0,0.5,89,160.0
1395,F5,143.0,1.0,89,160.0
1396,D2,143.017,1/40,96,160.0
1397,F#2,143.017,1/40,96,160.0
1398,G#5,143.5,1.0,89,160.0
1399,F2,143.5,0.5,102,160.0
1400,F2,143.5,0.5,95,160.0
1401,E-2,143.5,0.5,89,160.0
1402,C2,143.517,1/40,95,160.0
1403,F5,144.0,1.5,89,160.0
1404,F3,144.0,1.0,102,160.0
1405,F3,144.0,1.0,102,160.0
1406,F3,144.0,1.0,95,160.0
1407,F3,144.0,1.0,102,160.0
1408,E-2,144.0,0.5,89,160.0
1409,F5,144.0,1.5,89,160.0
1410,F#2,144.017,1/40,96,160.0
1411,C2,144.017,1/40,96,160.0
1412,G#5,144.5,1.0,89,160.0
1413,E-2,144.5,0.5,89,160.0
1414,G#3,145.0,1.0,102,160.0
1415,G#3,145.0,1.0,102,160.0
1416,E-2,145.0,0.5,89,160.0
1417,F#2,145.017,1/40,100,160.0
1418,D2,145.017,1/40,100,160.0
1419,G#5,145.5,0.5,89,160.0
1420,F3,145.5,0.5,102,160.0
1421,F3,145.5,0.5,95,160.0
1422,E-2,145.5,0.5,89,160.0
1423,F#2,145.517,1/40,82,160.0
1424,C2,145.517,1/40,82,160.0
1425,G#5,146.0,1.0,89,160.0
1426,B-3,146.0,1.0,102,160.0
1427,B-3,146.0,1.0,102,160.0
1428,E-2,146.0,0.5,89,160.0
1429,B-2,146.017,1/40,112,160.0
1430,F3,146.5,0.5,102,160.0
1431,F3,146.5,0.5,95,160.0
1432,E-2,146.5,0.5,89,160.0
1433,C2,146.517,1/40,95,160.0
1434,C5,147.0,0.5,89,160.0
1435,G#3,147.0,0.5,102,160.0
1436,G#3,147.0,0.5,102,160.0
1437,E-2,147.0,0.5,89,160.0
1438,F#2,147.017,1/40,96,160.0
1439,D2,147.017,1/40,96,160.0
1440,C5,147.5,0.5,89,160.0
1441,F3,147.5,0.5,102,160.0
1442,C4,147.5,0.5,102,160.0
1443,F3,147.5,0.5,95,160.0
1444,C4,147.5,0.5,102,160.0
1445,E-2,147.5,0.5,89,160.0
1446,C2,147.517,1/40,95,160.0
1447,E-5,148.0,0.5,89,160.0
1448,F3,148.0,1.0,102,160.0
1449,C4,148.0,0.5,102,160.0
1450,F3,148.0,1.0,95,160.0
1451,C4,148.0,0.5,102,160.0
1452,E-2,148.0,0.5,89,160.0
1453,C2,148.017,1/40,96,160.0
1454,F#2,148.017,1/40,96,160.0
1455,E-5,148.5,0.5,89,160.0
1456,B-3,148.5,1.0,102,160.0
1457,B-3,148.5,1.0,102,160.0
1458,E-2,148.5,0.5,89,160.0
1459,F5,149.0,1.0,89,160.0
1460,E-2,149.0,0.5,89,160.0
1461,F#2,149.017,1/40,100,160.0
1462,D2,149.017,1/40,100,160.0
1463,F3,149.5,0.5,102,160.0
1464,G#3,149.5,1.0,102,160.0
1465,F3,149.5,0.5,95,160.0
1466,G#3,149.5,1.0,102,160.0
1467,E-2,149.5,0.5,89,160.0
1468,F#2,149.517,1/40,82,160.0
1469,C2,149.517,1/40,82,160.0
1470,F5,150.0,1.5,89,160.0
1471,E-2,150.0,0.5,89,160.0
1472,G#4,150.0,1.5,89,160.0
1473,F4,150.0,1.5,89,160.0
1474,B-2,150.017,1/40,112,160.0
1475,F3,150.5,0.5,102,160.0
1476,F3,150.5,0.5,102,160.0
1477,F3,150.5,0.5,95,160.0
1478,F3,150.5,0.5,102,160.0
1479,E-2,150.5,0.5,89,160.0
1480,C2,150.517,1/40,95,160.0
1481,F4,151.0,1.0,89,160.0
1482,G#3,151.0,1.0,102,160.0
1483,G#3,151.0,1.0,102,160.0
1484,E-2,151.0,0.5,89,160.0
1485,F4,151.0,1.0,89,160.0
1486,D2,151.017,1/40,96,160.0
1487,F#2,151.017,1/40,96,160.0
1488,F3,151.5,0.5,102,160.0
1489,F3,151.5,0.5,95,160.0
1490,E-2,151.5,0.5,89,160.0
1491,F4,151.5,2.0,89,160.0
1492,D4,151.5,2.0,89,160.0
1493,C2,151.517,1/40,95,160.0
1494,F2,152.0,1.0,102,160.0
1495,F2,152.0,1.0,95,160.0
1496,E-2,152.0,0.5,89,160.0
1497,C2,152.017,1/40,96,160.0
1498,F#2,152.017,1/40,96,160.0
1499,F5,152.5,0.5,89,160.0
1500,E-2,152.5,0.5,89,160.0
1501,F5,152.5,0.5,89,160.0
1502,G#5,153.0,0.5,89,160.0
1503,E-2,153.0,0.5,89,160.0
1504,G#5,153.0,0.5,89,160.0
1505,D2,153.017,1/40,100,160.0
1506,F#2,153.017,1/40,100,160.0
1507,G#5,153.5,1.0,89,160.0
1508,F2,153.5,0.5,102,160.0
1509,F2,153.5,0.5,95,160.0
1510,E-2,153.5,0.5,89,160.0
1511,G#5,153.5,1.0,89,160.0
1512,G4,153.5,0.5,89,160.0
1513,E4,153.5,0.5,89,160.0
1514,F#2,153.517,1/40,82,160.0
1515,C2,153.517,1/40,82,160.0
1516,E-2,154.0,0.5,89,160.0
1517,B-2,154.017,1/40,112,160.0
1518,G#5,154.5,1.0,89,160.0
1519,F2,154.5,0.5,102,160.0
1520,F2,154.5,0.5,95,160.0
1521,E-2,154.5,0.5,89,160.0
1522,G#5,154.5,1.0,89,160.0
1523,C2,154.517,1/40,95,160.0
1524,E-2,155.0,0.5,89,160.0
1525,D2,155.017,1/40,96,160.0
1526,F#2,155.017,1/40,96,160.0
1527,G#5,155.5,0.5,89,160.0
1528,F2,155.5,0.5,102,160.0
1529,F2,155.5,0.5,95,160.0
1530,E-2,155.5,0.5,89,160.0
1531,G#5,155.5,0.5,89,160.0
1532,G4,155.5,1.5,89,160.0
1533,E4,155.5,1.5,89,160.0
1534,C2,155.517,1/40,95,160.0
1535,G#5,156.0,1.0,89,160.0
1536,F2,156.0,1.0,102,160.0
1537,F2,156.0,1.0,95,160.0
1538,E-2,156.0,0.5,89,160.0
1539,G#5,156.0,1.0,89,160.0
1540,F#2,156.017,1/40,96,160.0
1541,C2,156.017,1/40,96,160.0
1542,E-2,156.5,0.5,89,160.0
1543,C5,157.0,0.5,89,160.0
1544,E-2,157.0,0.5,89,160.0
1545,C5,157.0,0.5,89,160.0
1546,F4,157.0,1.5,89,160.0
1547,D4,157.0,1.5,89,160.0
1548,F#2,157.017,1/40,100,160.0
1549,D2,157.017,1/40,100,160.0
1550,C5,157.5,0.5,89,160.0
1551,F2,157.5,0.5,102,160.0
1552,F2,157.5,0.5,95,160.0
1553,E-2,157.5,0.5,89,160.0
1554,C5,157.5,0.5,89,160.0
1555,F#2,157.517,1/40,82,160.0
1556,C2,157.517,1/40,82,160.0
1557,E-5,158.0,0.5,89,160.0
1558,E-2,158.0,0.5,89,160.0
1559,E-5,158.0,0.5,89,160.0
1560,B-2,158.017,1/40,112,160.0
1561,E-5,158.5,0.5,89,160.0
1562,F2,158.5,0.5,102,160.0
1563,F2,158.5,0.5,95,160.0
1564,E-2,158.5,0.5,89,160.0
1565,E-5,158.5,0.5,89,160.0
1566,F4,158.5,1.0,89,160.0
1567,D4,158.5,1.0,89,160.0
1568,C2,158.517,1/40,95,160.0
1569,F5,159.0,1.0,89,160.0
1570,E-2,159.0,0.5,89,160.0
1571,F5,159.0,1.0,89,160.0
1572,D2,159.017,1/40,96,160.0
1573,F#2,159.017,1/40,96,160.0
1574,F2,159.5,0.5,102,160.0
1575,F2,159.5,0.5,95,160.0
1576,E-2,159.5,0.5,89,160.0
1577,F4,159.5,0.5,89,160.0
1578,E-4,159.5,0.5,89,160.0
1579,C4,159.5,0.5,89,160.0
1580,A3,159.5,0.5,89,160.0
1581,C2,159.517,1/40,95,160.0
1582,F5,160.0,1.5,89,160.0
1583,F5,160.0,0.5,89,160.0
1584,F2,160.0,1.0,102,160.0
1585,F2,160.0,1.0,95,160.0
1586,E-2,160.0,0.5,89,160.0
1587,F5,160.0,1.5,89,160.0
1588,C2,160.017,1/40,96,160.0
1589,F#2,160.017,1/40,96,160.0
1590,G#5,160.5,0.5,89,160.0
1591,E-2,160.5,0.5,89,160.0
1592,G#5,161.0,1.0,89,160.0
1593,E-2,161.0,0.5,89,160.0
1594,F#2,161.017,1/40,100,160.0
1595,D2,161.017,1/40,100,160.0
1596,F2,161.5,0.5,102,160.0
1597,F2,161.5,0.5,95,160.0
1598,E-2,161.5,0.5,89,160.0
1599,F#2,161.517,1/40,81,160.0
1600,C2,161.517,1/40,81,160.0
1601,G#5,162.0,1.0,89,160.0
1602,E-2,162.0,0.5,89,160.0
1603,B-2,162.017,1/40,112,160.0
1604,F2,162.5,0.5,102,160.0
1605,F2,162.5,0.5,95,160.0
1606,E-2,162.5,0.5,89,160.0
1607,C2,162.517,1/40,95,160.0
1608,G#5,163.0,0.5,89,160.0
1609,E-2,163.0,0.5,89,160.0
1610,D2,163.017,1/40,96,160.0
1611,F#2,163.017,1/40,96,160.0
1612,G#5,163.5,1.0,89,160.0
1613,F2,163.5,0.5,102,160.0
1614,F2,163.5,0.5,95,160.0
1615,E-2,163.5,0.5,89,160.0
1616,C2,163.517,1/40,95,160.0
1617,F2,164.0,1.0,102,160.0
1618,F2,164.0,1.0,95,160.0
1619,E-2,164.0,0.5,89,160.0
1620,C2,164.017,1/40,96,160.0
1621,F#2,164.017,1/40,96,160.0
1622,C5,164.5,0.5,89,160.0
1623,E-2,164.5,0.5,89,160.0
1624,C5,165.0,0.5,89,160.0
1625,F3,165.0,0.5,102,160.0
1626,F3,165.0,0.5,102,160.0
1627,E-2,165.0,0.5,89,160.0
1628,F#2,165.017,1/40,100,160.0
1629,D2,165.017,1/40,100,160.0
1630,E-5,165.5,0.5,89,160.0
1631,F2,165.5,0.5,102,160.0
1632,E-3,165.5,0.5,102,160.0
1633,F2,165.5,0.5,95,160.0
1634,E-3,165.5,0.5,102,160.0
1635,E-2,165.5,0.5,89,160.0
1636,F#2,165.517,1/40,81,160.0
1637,C2,165.517,1/40,81,160.0
1638,E-5,166.0,0.5,89,160.0
1639,C3,166.0,0.5,102,160.0
1640,C3,166.0,0.5,102,160.0
1641,E-2,166.0,0.5,89,160.0
1642,B-2,166.017,1/40,112,160.0
1643,F5,166.5,1.0,89,160.0
1644,F2,166.5,0.5,102,160.0
1645,B-2,166.5,0.5,102,160.0
1646,F2,166.5,0.5,95,160.0
1647,B-2,166.5,0.5,102,160.0
1648,E-2,166.5,0.5,89,160.0
1649,C2,166.517,1/40,95,160.0
1650,F4,167.0,1.0,89,160.0
1651,G#2,167.0,1.0,102,160.0
1652,G#2,167.0,1.0,102,160.0
1653,E-2,167.0,0.5,89,160.0
1654,F4,167.0,1.0,89,160.0
1655,D2,167.017,1/40,96,160.0
1656,F#2,167.017,1/40,96,160.0
1657,F5,167.5,1.5,89,160.0
1658,F2,167.5,0.5,102,160.0
1659,F2,167.5,0.5,95,160.0
1660,E-2,167.5,0.5,89,160.0
1661,G#4,167.5,1.5,89,160.0
1662,F4,167.5,1.5,89,160.0
1663,C2,167.517,1/40,95,160.0
1664,F2,168.0,1.0,102,160.0
1665,F2,168.0,1.0,95,160.0
1666,E-2,168.0,0.5,89,160.0
1667,F#2,168.017,1/40,96,160.0
1668,C2,168.017,1/40,96,160.0
1669,C5,168.5,0.5,89,160.0
1670,E-2,168.5,0.5,89,160.0
1671,C5,168.5,0.5,89,160.0
1672,F5,169.0,0.5,89,160.0
1673,E-2,169.0,0.5,89,160.0
1674,F5,169.0,0.5,89,160.0
1675,E-2,169.017,1/40,90,160.0
1676,F#2,169.017,1/40,90,160.0
1677,D2,169.017,1/40,90,160.0
1678,F5,169.5,0.5,89,160.0
1679,F2,169.5,0.5,102,160.0
1680,F2,169.5,0.5,95,160.0
1681,E-2,169.5,0.5,89,160.0
1682,F5,169.5,0.5,89,160.0
1683,F4,169.5,1.5,89,160.0
1684,D4,169.5,1.5,89,160.0
1685,F#2,169.517,1/40,81,160.0
1686,C2,169.517,1/40,81,160.0
1687,F5,170.0,1.0,89,160.0
1688,E-2,170.0,0.5,89,160.0
1689,F5,170.0,1.0,89,160.0
1690,B-2,170.017,1/40,96,160.0
1691,C2,170.017,1/40,96,160.0
1692,F2,170.5,0.5,102,160.0
1693,F2,170.5,0.5,95,160.0
1694,E-2,170.5,0.5,89,160.0
1695,C2,170.517,1/40,95,160.0
1696,F5,171.0,0.5,89,160.0
1697,E-2,171.0,0.5,89,160.0
1698,F5,171.0,0.5,89,160.0
1699,G4,171.0,0.5,89,160.0
1700,E4,171.0,0.5,89,160.0
1701,E-2,171.017,1/40,88,160.0
1702,F#2,171.017,1/40,88,160.0
1703,D2,171.017,1/40,88,160.0
1704,G5,171.5,0.5,89,160.0
1705,F2,171.5,0.5,102,160.0
1706,F2,171.5,0.5,95,160.0
1707,E-2,171.5,0.5,89,160.0
1708,G5,171.5,0.5,89,160.0
1709,G4,171.5,1.5,89,160.0
1710,E4,171.5,1.5,89,160.0
1711,C2,171.517,1/40,95,160.0
1712,G5,172.0,0.5,89,160.0
1713,F2,172.0,1.0,102,160.0
1714,F2,172.0,1.0,95,160.0
1715,E-2,172.0,0.5,89,160.0
1716,G5,172.0,0.5,89,160.0
1717,C2,172.017,1/40,96,160.0
1718,F#2,172.017,1/40,96,160.0
1719,E-5,172.5,0.5,89,160.0
1720,E-2,172.5,0.5,89,160.0
1721,E-5,172.5,0.5,89,160.0
1722,E-5,173.0,0.5,89,160.0
1723,E-2,173.0,0.5,89,160.0
1724,E-5,173.0,0.5,89,160.0
1725,F4,173.0,1.5,89,160.0
1726,D4,173.0,1.5,89,160.0
1727,E-2,173.017,1/40,90,160.0
1728,F#2,173.017,1/40,90,160.0
1729,D2,173.017,1/40,90,160.0
1730,E-5,173.5,0.5,89,160.0
1731,F2,173.5,0.5,102,160.0
1732,F2,173.5,0.5,95,160.0
1733,E-2,173.5,0.5,89,160.0
1734,E-5,173.5,0.5,89,160.0
1735,C2,173.517,1/40,81,160.0
1736,F#2,173.517,1/40,81,160.0
1737,E-5,174.0,1.0,89,160.0
1738,E-2,174.0,0.5,89,160.0
1739,E-5,174.0,1.0,89,160.0
1740,C2,174.017,1/40,96,160.0
1741,B-2,174.017,1/40,96,160.0
1742,F2,174.5,0.5,102,160.0
1743,F2,174.5,0.5,95,160.0
1744,E-2,174.5,0.5,89,160.0
1745,F4,174.5,1.0,89,160.0
1746,D4,174.5,1.0,89,160.0
1747,C2,174.517,1/40,95,160.0
1748,F5,175.0,1.0,89,160.0
1749,E-2,175.0,0.5,89,160.0
1750,F5,175.0,1.0,89,160.0
1751,E-2,175.017,1/40,88,160.0
1752,D2,175.017,1/40,88,160.0
1753,F#2,175.017,1/40,88,160.0
1754,F2,175.5,0.5,102,160.0
1755,F2,175.5,0.5,95,160.0
1756,E-2,175.5,0.5,89,160.0
1757,F4,175.5,0.5,89,160.0
1758,E-4,175.5,0.5,89,160.0
1759,C4,175.5,0.5,89,160.0
1760,A3,175.5,0.5,89,160.0
1761,C2,175.517,1/40,95,160.0
1762,F5,176.0,1.5,89,160.0
1763,C5,176.0,0.5,89,160.0
1764,F2,176.0,1.0,102,160.0
1765,F2,176.0,1.0,95,160.0
1766,E-2,176.0,0.5,89,160.0
1767,F5,176.0,1.5,89,160.0
1768,C2,176.017,1/40,96,160.0
1769,F#2,176.017,1/40,96,160.0
1770,F5,176.5,0.5,89,160.0
1771,F3,176.5,0.5,102,160.0
1772,F3,176.5,0.5,102,160.0
1773,E-2,176.5,0.5,89,160.0
1774,F5,177.0,0.5,89,160.0
1775,E-3,177.0,0.5,102,160.0
1776,E-3,177.0,0.5,102,160.0
1777,E-2,177.0,0.5,89,160.0
1778,D2,177.017,1/40,90,160.0
1779,E-2,177.017,1/40,90,160.0
1780,F#2,177.017,1/40,90,160.0
1781,F5,177.5,1.0,89,160.0
1782,F2,177.5,0.5,102,160.0
1783,C3,177.5,0.5,102,160.0
1784,F2,177.5,0.5,95,160.0
1785,C3,177.5,0.5,102,160.0
1786,E-2,177.5,0.5,89,160.0
1787,C2,177.517,1/40,81,160.0
1788,F#2,177.517,1/40,81,160.0
1789,B-2,178.0,0.5,102,160.0
1790,B-2,178.0,0.5,102,160.0
1791,E-2,178.0,0.5,89,160.0
1792,C2,178.017,1/40,96,160.0
1793,B-2,178.017,1/40,96,160.0
1794,F5,178.5,0.5,89,160.0
1795,F2,178.5,0.5,102,160.0
1796,G#2,178.5,1.0,102,160.0
1797,F2,178.5,0.5,95,160.0
1798,G#2,178.5,1.0,102,160.0
1799,E-2,178.5,0.5,89,160.0
1800,C2,178.517,1/40,95,160.0
1801,G5,179.0,0.5,89,160.0
1802,E-2,179.0,0.5,89,160.0
1803,E-2,179.017,1/40,88,160.0
1804,D2,179.017,1/40,88,160.0
1805,F#2,179.017,1/40,88,160.0
1806,G5,179.5,0.5,89,160.0
1807,F2,179.5,0.5,102,160.0
1808,F2,179.5,0.5,95,160.0
1809,E-2,179.5,0.5,89,160.0
1810,C2,179.517,1/40,95,160.0
1811,E-5,180.0,0.5,89,160.0
1812,F2,180.0,1.0,102,160.0
1813,F2,180.0,1.0,95,160.0
1814,E-2,180.0,0.5,89,160.0
1815,F#2,180.017,1/40,96,160.0
1816,C2,180.017,1/40,96,160.0
1817,E-5,180.5,0.5,89,160.0
1818,E-2,180.5,0.5,89,160.0
1819,E-5,181.0,0.5,89,160.0
1820,E-2,181.0,0.5,89,160.0
1821,E-2,181.017,1/40,90,160.0
1822,D2,181.017,1/40,90,160.0
1823,F#2,181.017,1/40,90,160.0
1824,E-5,181.5,1.0,89,160.0
1825,F2,181.5,0.5,102,160.0
1826,F2,181.5,0.5,95,160.0
1827,E-2,181.5,0.5,89,160.0
1828,F#2,181.517,1/40,81,160.0
1829,C2,181.517,1/40,81,160.0
1830,E-2,182.0,0.5,89,160.0
1831,C2,182.017,1/40,96,160.0
1832,B-2,182.017,1/40,96,160.0
1833,F5,182.5,1.0,89,160.0
1834,F2,182.5,0.5,102,160.0
1835,F2,182.5,0.5,95,160.0
1836,E-2,182.5,0.5,89,160.0
1837,C2,182.517,1/40,95,160.0
1838,F4,183.0,1.0,89,160.0
1839,E-2,183.0,0.5,89,160.0
1840,F4,183.0,1.0,89,160.0
1841,F#2,183.017,1/40,88,160.0
1842,D2,183.017,1/40,88,160.0
1843,E-2,183.017,1/40,88,160.0
1844,F5,183.5,1.5,89,160.0
1845,F2,183.5,0.5,102,160.0
1846,F2,183.5,0.5,95,160.0
1847,E-2,183.5,0.5,89,160.0
1848,G#4,183.5,1.5,89,160.0
1849,F4,183.5,1.5,89,160.0
1850,C2,183.517,1/40,95,160.0
1851,F2,184.0,1.0,102,160.0
1852,F2,184.0,1.0,95,160.0
1853,E-2,184.0,0.5,89,160.0
1854,C2,184.017,1/40,96,160.0
1855,F#2,184.017,1/40,96,160.0
1856,E-2,184.5,0.5,89,160.0
1857,F4,185.0,0.5,89,160.0
1858,E-2,185.0,0.5,89,160.0
1859,F4,185.0,0.5,89,160.0
1860,E-2,185.017,1/40,90,160.0
1861,D2,185.017,1/40,90,160.0
1862,F#2,185.017,1/40,90,160.0
1863,F4,185.5,0.5,89,160.0
1864,F2,185.5,0.5,102,160.0
1865,F2,185.5,0.5,95,160.0
1866,E-2,185.5,0.5,89,160.0
1867,F4,185.5,0.5,89,160.0
1868,C2,185.517,1/40,81,160.0
1869,F#2,185.517,1/40,81,160.0
1870,G#4,186.0,1.0,89,160.0
1871,E-2,186.0,0.5,89,160.0
1872,G#4,186.0,1.0,89,160.0
1873,B-2,186.017,1/40,96,160.0
1874,C2,186.017,1/40,96,160.0
1875,F2,186.5,0.5,102,160.0
1876,F2,186.5,0.5,95,160.0
1877,E-2,186.5,0.5,89,160.0
1878,C2,186.517,1/40,95,160.0
1879,C5,187.0,0.5,89,160.0
1880,E-2,187.0,0.5,89,160.0
1881,C5,187.0,0.5,89,160.0
1882,E-2,187.017,1/40,88,160.0
1883,F#2,187.017,1/40,88,160.0
1884,D2,187.017,1/40,88,160.0
1885,F5,187.5,0.5,89,160.0
1886,F2,187.5,0.5,102,160.0
1887,F2,187.5,0.5,95,160.0
1888,E-2,187.5,0.5,89,160.0
1889,F5,187.5,0.5,89,160.0
1890,C2,187.517,1/40,95,160.0
1891,F5,188.0,1.0,89,160.0
1892,F2,188.0,1.0,102,160.0
1893,F2,188.0,1.0,95,160.0
1894,E-2,188.0,0.5,89,160.0
1895,F5,188.0,1.0,89,160.0
1896,F#2,188.017,1/40,96,160.0
1897,C2,188.017,1/40,96,160.0
1898,E-2,188.5,0.5,89,160.0
1899,F5,189.0,1.0,89,160.0
1900,E-2,189.0,0.5,89,160.0
1901,F5,189.0,1.0,89,160.0
1902,E-2,189.017,1/40,90,160.0
1903,F#2,189.017,1/40,90,160.0
1904,D2,189.017,1/40,90,160.0
1905,F2,189.5,0.5,102,160.0
1906,F2,189.5,0.5,95,160.0
1907,E-2,189.5,0.5,89,160.0
1908,C2,189.517,1/40,81,160.0
1909,F#2,189.517,1/40,81,160.0
1910,F5,190.0,0.5,89,160.0
1911,E-2,190.0,0.5,89,160.0
1912,F5,190.0,0.5,89,160.0
1913,B-2,190.017,1/40,96,160.0
1914,C2,190.017,1/40,96,160.0
1915,G5,190.5,0.5,89,160.0
1916,F4,190.5,1.0,89,160.0
1917,F2,190.5,0.5,102,160.0
1918,F2,190.5,0.5,95,160.0
1919,E-2,190.5,0.5,89,160.0
1920,G5,190.5,0.5,89,160.0
1921,C2,190.517,1/40,95,160.0
1922,E-5,191.0,0.5,89,160.0
1923,E-2,191.0,0.5,89,160.0
1924,E-5,191.0,0.5,89,160.0
1925,E-2,191.017,1/40,88,160.0
1926,D2,191.017,1/40,88,160.0
1927,F#2,191.017,1/40,88,160.0
1928,C5,191.5,0.5,89,160.0
1929,F2,191.5,0.5,102,160.0
1930,F2,191.5,0.5,95,160.0
1931,E-2,191.5,0.5,89,160.0
1932,C5,191.5,0.5,89,160.0
1933,C2,191.517,1/40,95,160.0
1934,F2,192.0,1.0,102,160.0
1935,F2,192.0,1.0,95,160.0
1936,E-2,192.0,0.5,89,160.0
1937,F#2,192.017,1/40,96,160.0
1938,C2,192.017,1/40,96,160.0
1939,F4,192.5,0.5,89,160.0
1940,E-2,192.5,0.5,89,160.0
1941,F4,193.0,0.5,89,160.0
1942,E-2,193.0,0.5,89,160.0
1943,E-2,193.017,1/40,90,160.0
1944,D2,193.017,1/40,90,160.0
1945,F#2,193.017,1/40,90,160.0
1946,G#4,193.5,1.0,89,160.0
1947,F2,193.5,0.5,102,160.0
1948,F2,193.5,0.5,95,160.0
1949,E-2,193.5,0.5,89,160.0
1950,F#2,193.517,1/40,81,160.0
1951,C2,193.517,1/40,81,160.0
1952,E-2,194.0,0.5,89,160.0
1953,B-2,194.017,1/40,96,160.0
1954,C2,194.017,1/40,96,160.0
1955,F5,194.5,1.0,89,160.0
1956,C5,194.5,0.5,89,160.0
1957,F2,194.5,0.5,102,160.0
1958,F2,194.5,0.5,95,160.0
1959,E-2,194.5,0.5,89,160.0
1960,F5,194.5,1.0,89,160.0
1961,C2,194.517,1/40,95,160.0
1962,F5,195.0,0.5,89,160.0
1963,E-2,195.0,0.5,89,160.0
1964,E-2,195.017,1/40,88,160.0
1965,D2,195.017,1/40,88,160.0
1966,F#2,195.017,1/40,88,160.0
1967,F5,195.5,0.5,89,160.0
1968,F5,195.5,1.0,89,160.0
1969,F2,195.5,0.5,102,160.0
1970,F2,195.5,0.5,95,160.0
1971,E-2,195.5,0.5,89,160.0
1972,F5,195.5,0.5,89,160.0
1973,C2,195.517,1/40,95,160.0
1974,F2,196.0,1.0,102,160.0
1975,F2,196.0,1.0,95,160.0
1976,E-2,196.0,0.5,89,160.0
1977,F#2,196.017,1/40,96,160.0
1978,C2,196.017,1/40,96,160.0
1979,F5,196.5,1.0,89,160.0
1980,E-2,196.5,0.5,89,160.0
1981,E-2,197.0,0.5,89,160.0
1982,E-2,197.017,1/40,90,160.0
1983,D2,197.017,1/40,90,160.0
1984,F#2,197.017,1/40,90,160.0
1985,C5,197.5,0.5,89,160.0
1986,F5,197.5,0.5,89,160.0
1987,F2,197.5,0.5,102,160.0
1988,F2,197.5,0.5,95,160.0
1989,E-2,197.5,0.5,89,160.0
1990,C5,197.5,0.5,89,160.0
1991,C2,197.517,1/40,81,160.0
1992,F#2,197.517,1/40,81,160.0
1993,C5,198.0,1.0,89,160.0
1994,G5,198.0,0.5,89,160.0
1995,E-2,198.0,0.5,89,160.0
1996,C5,198.0,1.0,89,160.0
1997,B-2,198.017,1/40,96,160.0
1998,C2,198.017,1/40,96,160.0
1999,E-5,198.5,0.5,89,160.0
2000,F2,198.5,0.5,102,160.0
2001,F2,198.5,0.5,95,160.0
2002,E-2,198.5,0.5,89,160.0
2003,C2,198.517,1/40,95,160.0
2004,E-5,199.0,1.0,89,160.0
2005,C5,199.0,0.5,89,160.0
2006,E-2,199.0,0.5,89,160.0
2007,E-5,199.0,1.0,89,160.0
2008,E-2,199.017,1/40,88,160.0
2009,D2,199.017,1/40,88,160.0
2010,F#2,199.017,1/40,88,160.0
2011,F2,199.5,0.5,102,160.0
2012,F2,199.5,0.5,95,160.0
2013,E-2,199.5,0.5,89,160.0
2014,C2,199.517,1/40,95,160.0
2015,F5,200.0,0.5,89,160.0
2016,C#2,200.0,1.0,102,160.0
2017,C#2,200.0,1.0,95,160.0
2018,F5,200.0,0.5,89,160.0
2019,C2,200.017,1/40,104,160.0
2020,F#2,200.017,1/40,104,160.0
2021,F5,200.5,0.5,89,160.0
2022,F5,200.5,0.5,89,160.0
2023,F5,201.0,0.5,89,160.0
2024,E-2,201.0,1.0,89,160.0
2025,F5,201.0,0.5,89,160.0
2026,G#4,201.0,2.0,89,160.0
2027,F4,201.0,2.0,89,160.0
2028,D2,201.017,1/40,88,160.0
2029,F5,201.5,0.5,89,160.0
2030,C#2,201.5,0.5,102,160.0
2031,C#2,201.5,0.5,95,160.0
2032,F5,201.5,0.5,89,160.0
2033,C2,201.517,1/40,95,160.0
2034,F5,202.0,1.5,89,160.0
2035,F5,202.0,1.0,89,160.0
2036,C#2,202.0,0.5,102,160.0
2037,C#2,202.0,0.5,95,160.0
2038,F5,202.0,1.5,89,160.0
2039,B-2,202.017,1/40,112,160.0
2040,G#2,202.5,0.5,102,160.0
2041,G#2,202.5,0.5,95,160.0
2042,C2,202.517,1/40,95,160.0
2043,F5,203.0,0.5,89,160.0
2044,C#3,203.0,0.5,102,160.0
2045,C#3,203.0,0.5,95,160.0
2046,E-2,203.0,1.0,89,160.0
2047,G#4,203.0,1.0,89,160.0
2048,F4,203.0,1.0,89,160.0
2049,F#2,203.017,1/40,96,160.0
2050,D2,203.017,1/40,96,160.0
2051,F5,203.5,0.5,89,160.0
2052,G#2,203.5,0.5,102,160.0
2053,G#2,203.5,0.5,95,160.0
2054,F5,203.5,0.5,89,160.0
2055,F#2,203.517,1/40,85,160.0
2056,C2,203.517,1/40,85,160.0
2057,F5,204.0,0.5,89,160.0
2058,F5,204.0,0.5,89,160.0
2059,C2,204.017,1/40,96,160.0
2060,F#2,204.017,1/40,96,160.0
2061,F5,204.5,1.0,89,160.0
2062,C2,204.5,0.5,102,160.0
2063,C2,204.5,0.5,95,160.0
2064,F5,204.5,1.0,89,160.0
2065,C5,205.0,0.5,89,160.0
2066,E-2,205.0,1.0,89,160.0
2067,C5,205.0,2.0,89,160.0
2068,G4,205.0,2.0,89,160.0
2069,F#2,205.017,1/40,98,160.0
2070,D2,205.017,1/40,98,160.0
2071,F5,205.5,1.5,89,160.0
2072,C5,205.5,1.0,89,160.0
2073,C2,205.5,0.5,102,160.0
2074,C2,205.5,0.5,95,160.0
2075,F5,205.5,1.5,89,160.0
2076,F#2,205.517,1/40,81,160.0
2077,C2,205.517,1/40,81,160.0
2078,C2,206.0,0.5,102,160.0
2079,C2,206.0,0.5,95,160.0
2080,B-2,206.017,1/40,112,160.0
2081,E-5,206.5,1.0,89,160.0
2082,G2,206.5,0.5,102,160.0
2083,G2,206.5,0.5,95,160.0
2084,C2,206.517,1/40,95,160.0
2085,F5,207.0,0.5,89,160.0
2086,C3,207.0,1.0,102,160.0
2087,C3,207.0,1.0,95,160.0
2088,E-2,207.0,1.0,89,160.0
2089,F5,207.0,0.5,89,160.0
2090,C5,207.0,1.0,89,160.0
2091,G4,207.0,1.0,89,160.0
2092,F#2,207.017,1/40,96,160.0
2093,D2,207.017,1/40,96,160.0
2094,E-5,207.5,0.5,89,160.0
2095,F5,207.5,0.5,89,160.0
2096,E-5,207.5,0.5,89,160.0
2097,C2,207.517,1/40,95,160.0
2098,F5,208.0,1.0,89,160.0
2099,F5,208.0,0.5,89,160.0
2100,C2,208.0,1.0,102,160.0
2101,C2,208.0,1.0,95,160.0
2102,F5,208.0,1.0,89,160.0
2103,C2,208.017,1/40,96,160.0
2104,F#2,208.017,1/40,96,160.0
2105,F5,208.5,0.5,89,160.0
2106,F5,209.0,1.0,89,160.0
2107,F5,209.0,0.5,89,160.0
2108,E-2,209.0,1.0,89,160.0
2109,F5,209.0,1.0,89,160.0
2110,C5,209.0,2.0,89,160.0
2111,G4,209.0,2.0,89,160.0
2112,F#2,209.017,1/40,100,160.0
2113,D2,209.017,1/40,100,160.0
2114,F5,209.5,1.5,89,160.0
2115,C2,209.5,0.5,102,160.0
2116,C2,209.5,0.5,95,160.0
2117,F#2,209.517,1/40,82,160.0
2118,C2,209.517,1/40,82,160.0
2119,F5,210.0,1.0,89,160.0
2120,C2,210.0,0.5,102,160.0
2121,C2,210.0,0.5,95,160.0
2122,F5,210.0,1.0,89,160.0
2123,B-2,210.017,1/40,112,160.0
2124,G2,210.5,0.5,102,160.0
2125,G2,210.5,0.5,95,160.0
2126,C2,210.517,1/40,95,160.0
2127,E-5,211.0,0.5,89,160.0
2128,F5,211.0,0.5,89,160.0
2129,C3,211.0,0.5,102,160.0
2130,C3,211.0,0.5,95,160.0
2131,E-2,211.0,1.0,89,160.0
2132,E-5,211.0,0.5,89,160.0
2133,C5,211.0,1.0,89,160.0
2134,G4,211.0,1.0,89,160.0
2135,D2,211.017,1/40,96,160.0
2136,F#2,211.017,1/40,96,160.0
2137,F5,211.5,0.5,89,160.0
2138,F5,211.5,0.5,89,160.0
2139,G2,211.5,0.5,102,160.0
2140,G2,211.5,0.5,95,160.0
2141,F5,211.5,0.5,89,160.0
2142,C2,211.517,1/40,95,160.0
2143,F5,212.0,1.0,89,160.0
2144,F5,212.0,1.0,89,160.0
2145,F5,212.0,1.0,89,160.0
2146,F#2,212.017,1/40,96,160.0
2147,C2,212.017,1/40,96,160.0
2148,F2,212.5,0.5,102,160.0
2149,F2,212.5,0.5,95,160.0
2150,F5,213.0,1.5,89,160.0
2151,E-2,213.0,1.0,89,160.0
2152,F4,213.0,2.0,89,160.0
2153,A4,213.0,2.0,89,160.0
2154,D2,213.017,1/40,100,160.0
2155,F#2,213.017,1/40,100,160.0
2156,C5,213.5,0.5,89,160.0
2157,F2,213.5,0.5,102,160.0
2158,F2,213.5,0.5,95,160.0
2159,C5,213.5,0.5,89,160.0
2160,F#2,213.517,1/40,82,160.0
2161,C2,213.517,1/40,82,160.0
2162,C5,214.0,1.0,89,160.0
2163,F2,214.0,1.0,102,160.0
2164,F2,214.0,1.0,95,160.0
2165,C5,214.0,1.0,89,160.0
2166,B-2,214.017,1/40,112,160.0
2167,F5,214.5,0.5,89,160.0
2168,C2,214.517,1/40,95,160.0
2169,E-5,215.0,1.0,89,160.0
2170,E-5,215.0,0.5,89,160.0
2171,F3,215.0,1.0,102,160.0
2172,F3,215.0,1.0,95,160.0
2173,E-2,215.0,1.0,89,160.0
2174,E-5,215.0,1.0,89,160.0
2175,F4,215.0,1.0,89,160.0
2176,A4,215.0,1.0,89,160.0
2177,D2,215.017,1/40,96,160.0
2178,F#2,215.017,1/40,96,160.0
2179,F5,215.5,1.0,89,160.0
2180,C2,215.517,1/40,95,160.0
2181,F5,216.0,0.5,89,160.0
2182,C#2,216.0,1.0,102,160.0
2183,C#2,216.0,1.0,95,160.0
2184,F5,216.0,0.5,89,160.0
2185,F#2,216.017,1/40,96,160.0
2186,C2,216.017,1/40,96,160.0
2187,F5,216.5,0.5,89,160.0
2188,F5,216.5,1.0,89,160.0
2189,F5,216.5,0.5,89,160.0
2190,F5,217.0,0.5,89,160.0
2191,E-2,217.0,1.0,89,160.0
2192,F5,217.0,0.5,89,160.0
2193,G#4,217.0,2.0,89,160.0
2194,F4,217.0,2.0,89,160.0
2195,F#2,217.017,1/40,100,160.0
2196,D2,217.017,1/40,100,160.0
2197,F5,217.5,0.5,89,160.0
2198,F5,217.5,1.0,89,160.0
2199,C#2,217.5,0.5,102,160.0
2200,C#2,217.5,0.5,95,160.0
2201,F5,217.5,0.5,89,160.0
2202,F#2,217.517,1/40,82,160.0
2203,C2,217.517,1/40,82,160.0
2204,F5,218.0,1.5,89,160.0
2205,C#2,218.0,0.5,102,160.0
2206,C#2,218.0,0.5,95,160.0
2207,F5,218.0,1.5,89,160.0
2208,B-2,218.017,1/40,112,160.0
2209,E-5,218.5,0.5,89,160.0
2210,G#2,218.5,0.5,102,160.0
2211,G#2,218.5,0.5,95,160.0
2212,C2,218.517,1/40,95,160.0
2213,F5,219.0,0.5,89,160.0
2214,C#3,219.0,0.5,102,160.0
2215,C#3,219.0,0.5,95,160.0
2216,E-2,219.0,1.0,89,160.0
2217,G#4,219.0,1.0,89,160.0
2218,F4,219.0,1.0,89,160.0
2219,D2,219.017,1/40,96,160.0
2220,F#2,219.017,1/40,96,160.0
2221,F5,219.5,0.5,89,160.0
2222,F5,219.5,1.0,89,160.0
2223,G#2,219.5,0.5,102,160.0
2224,G#2,219.5,0.5,95,160.0
2225,F5,219.5,0.5,89,160.0
2226,C2,219.517,1/40,95,160.0
2227,F5,220.0,0.5,89,160.0
2228,F5,220.0,0.5,89,160.0
2229,C2,220.017,1/40,96,160.0
2230,F#2,220.017,1/40,96,160.0
2231,E-5,220.5,1.0,89,160.0
2232,C2,220.5,0.5,102,160.0
2233,C2,220.5,0.5,95,160.0
2234,E-5,220.5,1.0,89,160.0
2235,C5,221.0,0.5,89,160.0
2236,E-2,221.0,1.0,89,160.0
2237,C5,221.0,2.0,89,160.0
2238,G4,221.0,2.0,89,160.0
2239,F#2,221.017,1/40,100,160.0
2240,D2,221.017,1/40,100,160.0
2241,E-5,221.5,0.5,89,160.0
2242,C5,221.5,1.0,89,160.0
2243,C2,221.5,0.5,102,160.0
2244,C2,221.5,0.5,95,160.0
2245,E-5,221.5,0.5,89,160.0
2246,F#2,221.517,1/40,82,160.0
2247,C2,221.517,1/40,82,160.0
2248,C5,222.0,1.0,89,160.0
2249,C2,222.0,0.5,102,160.0
2250,C2,222.0,0.5,95,160.0
2251,C5,222.0,1.0,89,160.0
2252,B-2,222.017,1/40,112,160.0
2253,E-5,222.5,1.0,89,160.0
2254,G2,222.5,0.5,102,160.0
2255,G2,222.5,0.5,95,160.0
2256,C2,222.517,1/40,95,160.0
2257,C5,223.0,1.0,89,160.0
2258,C3,223.0,1.0,102,160.0
2259,C3,223.0,1.0,95,160.0
2260,E-2,223.0,1.0,89,160.0
2261,C5,223.0,1.0,89,160.0
2262,C5,223.0,1.0,89,160.0
2263,G4,223.0,1.0,89,160.0
2264,D2,223.017,1/40,96,160.0
2265,F#2,223.017,1/40,96,160.0
2266,F5,223.5,0.5,89,160.0
2267,C2,223.517,1/40,95,160.0
2268,F5,224.0,0.5,89,160.0
2269,F5,224.0,0.5,89,160.0
2270,C2,224.0,1.0,102,160.0
2271,C2,224.0,1.0,95,160.0
2272,F5,224.0,0.5,89,160.0
2273,C2,224.017,1/40,96,160.0
2274,F#2,224.017,1/40,96,160.0
2275,E-5,224.5,0.5,89,160.0
2276,F5,224.5,0.5,89,160.0
2277,E-5,224.5,0.5,89,160.0
2278,F5,225.0,1.0,89,160.0
2279,F5,225.0,0.5,89,160.0
2280,E-2,225.0,1.0,89,160.0
2281,F5,225.0,1.0,89,160.0
2282,C5,225.0,2.0,89,160.0
2283,G4,225.0,2.0,89,160.0
2284,F#2,225.017,1/40,100,160.0
2285,D2,225.017,1/40,100,160.0
2286,F5,225.5,1.5,89,160.0
2287,C2,225.5,0.5,102,160.0
2288,C2,225.5,0.5,95,160.0
2289,C2,225.517,1/40,82,160.0
2290,F#2,225.517,1/40,82,160.0
2291,F5,226.0,1.0,89,160.0
2292,C2,226.0,0.5,102,160.0
2293,C2,226.0,0.5,95,160.0
2294,F5,226.0,1.0,89,160.0
2295,B-2,226.017,1/40,112,160.0
2296,G2,226.5,0.5,102,160.0
2297,G2,226.5,0.5,95,160.0
2298,C2,226.517,1/40,95,160.0
2299,E-5,227.0,0.5,89,160.0
2300,F5,227.0,0.5,89,160.0
2301,C3,227.0,0.5,102,160.0
2302,C3,227.0,0.5,95,160.0
2303,E-2,227.0,1.0,89,160.0
2304,E-5,227.0,0.5,89,160.0
2305,C5,227.0,1.0,89,160.0
2306,G4,227.0,1.0,89,160.0
2307,F#2,227.017,1/40,96,160.0
2308,D2,227.017,1/40,96,160.0
2309,F5,227.5,0.5,89,160.0
2310,F5,227.5,0.5,89,160.0
2311,G2,227.5,0.5,102,160.0
2312,G2,227.5,0.5,95,160.0
2313,F5,227.5,0.5,89,160.0
2314,C2,227.517,1/40,95,160.0
2315,F5,228.0,1.0,89,160.0
2316,E-5,228.0,1.0,89,160.0
2317,F5,228.0,1.0,89,160.0
2318,F#2,228.017,1/40,96,160.0
2319,C2,228.017,1/40,96,160.0
2320,F2,228.5,0.5,102,160.0
2321,F2,228.5,0.5,95,160.0
2322,E-5,229.0,0.5,89,160.0
2323,E-2,229.0,1.0,89,160.0
2324,F4,229.0,2.0,89,160.0
2325,A4,229.0,2.0,89,160.0
2326,F#2,229.017,1/40,100,160.0
2327,D2,229.017,1/40,100,160.0
2328,C5,229.5,0.5,89,160.0
2329,C5,229.5,1.0,89,160.0
2330,F2,229.5,0.5,102,160.0
2331,F2,229.5,0.5,95,160.0
2332,C5,229.5,0.5,89,160.0
2333,F#2,229.517,1/40,81,160.0
2334,C2,229.517,1/40,81,160.0
2335,C5,230.0,1.0,89,160.0
2336,F2,230.0,1.0,102,160.0
2337,F2,230.0,1.0,95,160.0
2338,C5,230.0,1.0,89,160.0
2339,B-2,230.017,1/40,112,160.0
2340,C5,230.5,1.0,89,160.0
2341,C2,230.517,1/40,95,160.0
2342,E-5,231.0,1.0,89,160.0
2343,F3,231.0,1.0,102,160.0
2344,F3,231.0,1.0,95,160.0
2345,E-2,231.0,1.0,89,160.0
2346,E-5,231.0,1.0,89,160.0
2347,F4,231.0,1.0,89,160.0
2348,A4,231.0,1.0,89,160.0
2349,F#2,231.017,1/40,96,160.0
2350,D2,231.017,1/40,96,160.0
2351,F5,231.5,0.5,89,160.0
2352,C2,231.517,1/40,95,160.0
2353,F5,232.0,0.5,89,160.0
2354,E-5,232.0,0.5,89,160.0
2355,C#2,232.0,1.0,102,160.0
2356,C#2,232.0,1.0,95,160.0
2357,F5,232.0,0.5,89,160.0
2358,C2,232.017,1/40,96,160.0
2359,F#2,232.017,1/40,96,160.0
2360,F5,232.5,0.5,89,160.0
2361,F5,232.5,1.0,89,160.0
2362,F5,232.5,0.5,89,160.0
2363,C6,233.0,0.5,89,160.0
2364,E-2,233.0,1.0,89,160.0
2365,C6,233.0,0.5,89,160.0
2366,F5,233.0,2.0,89,160.0
2367,C#5,233.0,2.0,89,160.0
2368,D2,233.017,1/40,98,160.0
2369,F#2,233.017,1/40,98,160.0
2370,B-5,233.5,0.5,89,160.0
2371,F5,233.5,1.0,89,160.0
2372,C#2,233.5,0.5,102,160.0
2373,C#2,233.5,0.5,95,160.0
2374,B-5,233.5,0.5,89,160.0
2375,F#2,233.517,1/40,81,160.0
2376,C2,233.517,1/40,81,160.0
2377,B-5,234.0,0.5,89,160.0
2378,C#2,234.0,0.5,102,160.0
2379,C#2,234.0,0.5,95,160.0
2380,B-5,234.0,0.5,89,160.0
2381,B-2,234.017,1/40,112,160.0
2382,G#5,234.5,0.5,89,160.0
2383,E-5,234.5,0.5,89,160.0
2384,G#2,234.5,0.5,102,160.0
2385,G#2,234.5,0.5,95,160.0
2386,G#5,234.5,0.5,89,160.0
2387,C2,234.517,1/40,95,160.0
2388,F5,235.0,0.5,89,160.0
2389,F5,235.0,0.5,89,160.0
2390,C#3,235.0,0.5,102,160.0
2391,C#3,235.0,0.5,95,160.0
2392,E-2,235.0,1.0,89,160.0
2393,F5,235.0,0.5,89,160.0
2394,C#5,235.0,1.0,89,160.0
2395,G#4,235.0,1.0,89,160.0
2396,D2,235.017,1/40,96,160.0
2397,F#2,235.017,1/40,96,160.0
2398,G#5,235.5,0.5,89,160.0
2399,F5,235.5,1.0,89,160.0
2400,G#2,235.5,0.5,102,160.0
2401,G#2,235.5,0.5,95,160.0
2402,G#5,235.5,0.5,89,160.0
2403,C2,235.517,1/40,95,160.0
2404,G#5,236.0,0.5,89,160.0
2405,G#5,236.0,0.5,89,160.0
2406,F#2,236.017,1/40,96,160.0
2407,C2,236.017,1/40,96,160.0
2408,F5,236.5,1.0,89,160.0
2409,C2,236.5,0.5,102,160.0
2410,F5,236.5,1.0,89,160.0
2411,C5,237.0,0.5,89,160.0
2412,E-2,237.0,1.0,89,160.0
2413,C5,237.0,2.0,89,160.0
2414,G4,237.0,2.0,89,160.0
2415,D2,237.017,1/40,100,160.0
2416,F#2,237.017,1/40,100,160.0
2417,F5,237.5,1.5,89,160.0
2418,C5,237.5,1.0,89,160.0
2419,C2,237.5,0.5,102,160.0
2420,F5,237.5,1.5,89,160.0
2421,C2,237.517,1/40,82,160.0
2422,F#2,237.517,1/40,82,160.0
2423,C2,238.0,0.5,102,160.0
2424,B-2,238.017,1/40,112,160.0
2425,E-5,238.5,1.0,89,160.0
2426,G2,238.5,0.5,102,160.0
2427,C2,238.517,1/40,95,160.0
2428,E-5,239.0,1.0,89,160.0
2429,C3,239.0,1.0,102,160.0
2430,E-2,239.0,1.0,89,160.0
2431,E-5,239.0,1.0,89,160.0
2432,C5,239.0,1.0,89,160.0
2433,G4,239.0,1.0,89,160.0
2434,D2,239.017,1/40,96,160.0
2435,F#2,239.017,1/40,96,160.0
2436,F5,239.5,0.5,89,160.0
2437,C2,239.517,1/40,95,160.0
2438,F5,240.0,0.5,89,160.0
2439,F5,240.0,0.5,89,160.0
2440,C2,240.0,1.0,102,160.0
2441,F5,240.0,0.5,89,160.0
2442,F#2,240.017,1/40,96,160.0
2443,C2,240.017,1/40,96,160.0
2444,F5,240.5,0.5,89,160.0
2445,C6,240.5,0.5,89,160.0
2446,F5,240.5,0.5,89,160.0
2447,F5,241.0,1.0,89,160.0
2448,B-5,241.0,0.5,89,160.0
2449,E-2,241.0,1.0,89,160.0
2450,F5,241.0,1.0,89,160.0
2451,C5,241.0,2.0,89,160.0
2452,G4,241.0,2.0,89,160.0
2453,F#2,241.017,1/40,100,160.0
2454,D2,241.017,1/40,100,160.0
2455,B-5,241.5,0.5,89,160.0
2456,C2,241.5,0.5,102,160.0
2457,F#2,241.517,1/40,82,160.0
2458,C2,241.517,1/40,82,160.0
2459,F5,242.0,1.0,89,160.0
2460,G#5,242.0,0.5,89,160.0
2461,C2,242.0,0.5,102,160.0
2462,F5,242.0,1.0,89,160.0
2463,B-2,242.017,1/40,112,160.0
2464,F5,242.5,0.5,89,160.0
2465,G2,242.5,0.5,102,160.0
2466,C2,242.517,1/40,95,160.0
2467,E-5,243.0,0.5,89,160.0
2468,G#5,243.0,0.5,89,160.0
2469,C3,243.0,0.5,102,160.0
2470,E-2,243.0,1.0,89,160.0
2471,E-5,243.0,0.5,89,160.0
2472,C5,243.0,1.0,89,160.0
2473,G4,243.0,1.0,89,160.0
2474,F#2,243.017,1/40,96,160.0
2475,D2,243.017,1/40,96,160.0
2476,F5,243.5,0.5,89,160.0
2477,G#5,243.5,0.5,89,160.0
2478,G2,243.5,0.5,102,160.0
2479,F5,243.5,0.5,89,160.0
2480,C2,243.517,1/40,95,160.0
2481,F5,244.0,1.0,89,160.0
2482,F5,244.0,1.0,89,160.0
2483,F5,244.0,1.0,89,160.0
2484,C2,244.017,1/40,96,160.0
2485,F#2,244.017,1/40,96,160.0
2486,F2,244.5,0.5,102,160.0
2487,F5,245.0,1.5,89,160.0
2488,E-2,245.0,1.0,89,160.0
2489,F4,245.0,2.0,89,160.0
2490,A4,245.0,2.0,89,160.0
2491,F#2,245.017,1/40,100,160.0
2492,D2,245.017,1/40,100,160.0
2493,C5,245.5,0.5,89,160.0
2494,F2,245.5,0.5,102,160.0
2495,C5,245.5,0.5,89,160.0
2496,F#2,245.517,1/40,82,160.0
2497,C2,245.517,1/40,82,160.0
2498,C5,246.0,1.0,89,160.0
2499,F2,246.0,1.0,102,160.0
2500,C5,246.0,1.0,89,160.0
2501,B-2,246.017,1/40,112,160.0
2502,E-5,246.5,1.0,89,160.0
2503,C2,246.517,1/40,95,160.0
2504,E-5,247.0,1.0,89,160.0
2505,F3,247.0,1.0,102,160.0
2506,E-2,247.0,1.0,89,160.0
2507,E-5,247.0,1.0,89,160.0
2508,F4,247.0,1.0,89,160.0
2509,A4,247.0,1.0,89,160.0
2510,D2,247.017,1/40,96,160.0
2511,F#2,247.017,1/40,96,160.0
2512,F5,247.5,0.5,89,160.0
2513,C2,247.517,1/40,95,160.0
2514,F5,248.0,0.5,89,160.0
2515,F5,248.0,0.5,89,160.0
2516,C#2,248.0,1.0,102,160.0
2517,F5,248.0,0.5,89,160.0
2518,C2,248.017,1/40,96,160.0
2519,F#2,248.017,1/40,96,160.0
2520,F5,248.5,0.5,89,160.0
2521,F5,248.5,1.0,89,160.0
2522,F5,248.5,0.5,89,160.0
2523,F5,249.0,0.5,89,160.0
2524,E-2,249.0,1.0,89,160.0
2525,F5,249.0,0.5,89,160.0
2526,G#4,249.0,2.0,89,160.0
2527,F4,249.0,2.0,89,160.0
2528,D2,249.017,1/40,100,160.0
2529,F#2,249.017,1/40,100,160.0
2530,F5,249.5,0.5,89,160.0
2531,F5,249.5,1.0,89,160.0
2532,C#2,249.5,0.5,102,160.0
2533,F5,249.5,0.5,89,160.0
2534,F#2,249.517,1/40,82,160.0
2535,C2,249.517,1/40,82,160.0
2536,F5,250.0,1.5,89,160.0
2537,C#2,250.0,0.5,102,160.0
2538,F5,250.0,1.5,89,160.0
2539,B-2,250.017,1/40,112,160.0
2540,E-5,250.5,0.5,89,160.0
2541,G#2,250.5,0.5,102,160.0
2542,C2,250.517,1/40,95,160.0
2543,F5,251.0,0.5,89,160.0
2544,C#3,251.0,0.5,102,160.0
2545,E-2,251.0,1.0,89,160.0
2546,G#4,251.0,1.0,89,160.0
2547,F4,251.0,1.0,89,160.0
2548,D2,251.017,1/40,96,160.0
2549,F#2,251.017,1/40,96,160.0
2550,F5,251.5,0.5,89,160.0
2551,F5,251.5,1.0,89,160.0
2552,G#2,251.5,0.5,102,160.0
2553,F5,251.5,0.5,89,160.0
2554,C2,251.517,1/40,95,160.0
2555,F5,252.0,0.5,89,160.0
2556,F5,252.0,0.5,89,160.0
2557,F#2,252.017,1/40,96,160.0
2558,C2,252.017,1/40,96,160.0
2559,E-5,252.5,1.0,89,160.0
2560,C2,252.5,0.5,102,160.0
2561,E-5,252.5,1.0,89,160.0
2562,C5,253.0,0.5,89,160.0
2563,E-2,253.0,1.0,89,160.0
2564,C5,253.0,2.0,89,160.0
2565,G4,253.0,2.0,89,160.0
2566,F#2,253.017,1/40,100,160.0
2567,D2,253.017,1/40,100,160.0
2568,E-5,253.5,0.5,89,160.0
2569,C5,253.5,1.0,89,160.0
2570,C2,253.5,0.5,102,160.0
2571,E-5,253.5,0.5,89,160.0
2572,F#2,253.517,1/40,82,160.0
2573,C2,253.517,1/40,82,160.0
2574,C5,254.0,1.0,89,160.0
2575,C2,254.0,0.5,102,160.0
2576,C5,254.0,1.0,89,160.0
2577,B-2,254.017,1/40,112,160.0
2578,E-5,254.5,1.0,89,160.0
2579,G2,254.5,0.5,102,160.0
2580,C2,254.517,1/40,95,160.0
2581,C5,255.0,1.0,89,160.0
2582,C3,255.0,1.0,102,160.0
2583,E-2,255.0,1.0,89,160.0
2584,C5,255.0,1.0,89,160.0
2585,C5,255.0,1.0,89,160.0
2586,G4,255.0,1.0,89,160.0
2587,D2,255.017,1/40,96,160.0
2588,F#2,255.017,1/40,96,160.0
2589,F5,255.5,0.5,89,160.0
2590,C2,255.517,1/40,95,160.0
2591,F5,256.0,1.0,89,160.0
2592,F5,256.0,0.5,89,160.0
2593,C2,256.0,1.0,102,160.0
2594,F5,256.0,1.0,89,160.0
2595,C2,256.017,1/40,96,160.0
2596,F#2,256.017,1/40,96,160.0
2597,F5,256.5,0.5,89,160.0
2598,F5,257.0,0.5,89,160.0
2599,F5,257.0,0.5,89,160.0
2600,E-2,257.0,1.0,89,160.0
2601,F5,257.0,0.5,89,160.0
2602,C5,257.0,2.0,89,160.0
2603,G4,257.0,2.0,89,160.0
2604,F#2,257.017,1/40,100,160.0
2605,D2,257.017,1/40,100,160.0
2606,E-5,257.5,0.5,89,160.0
2607,F5,257.5,1.5,89,160.0
2608,C2,257.5,0.5,102,160.0
2609,E-5,257.5,0.5,89,160.0
2610,F#2,257.517,1/40,81,160.0
2611,C2,257.517,1/40,81,160.0
2612,F5,258.0,1.0,89,160.0
2613,C2,258.0,0.5,102,160.0
2614,F5,258.0,1.0,89,160.0
2615,B-2,258.017,1/40,112,160.0
2616,G2,258.5,0.5,102,160.0
2617,C2,258.517,1/40,95,160.0
2618,E-5,259.0,0.5,89,160.0
2619,F5,259.0,0.5,89,160.0
2620,C3,259.0,0.5,102,160.0
2621,E-2,259.0,1.0,89,160.0
2622,E-5,259.0,0.5,89,160.0
2623,C5,259.0,1.0,89,160.0
2624,G4,259.0,1.0,89,160.0
2625,D2,259.017,1/40,96,160.0
2626,F#2,259.017,1/40,96,160.0
2627,F5,259.5,0.5,89,160.0
2628,F5,259.5,0.5,89,160.0
2629,G2,259.5,0.5,102,160.0
2630,F5,259.5,0.5,89,160.0
2631,C2,259.517,1/40,95,160.0
2632,F5,260.0,1.0,89,160.0
2633,E-5,260.0,1.0,89,160.0
2634,F5,260.0,1.0,89,160.0
2635,C2,260.017,1/40,96,160.0
2636,F#2,260.017,1/40,96,160.0
2637,F2,260.5,0.5,102,160.0
2638,E-5,261.0,0.5,89,160.0
2639,E-2,261.0,1.0,89,160.0
2640,F4,261.0,2.0,89,160.0
2641,A4,261.0,2.0,89,160.0
2642,F#2,261.017,1/40,100,160.0
2643,D2,261.017,1/40,100,160.0
2644,C5,261.5,1.0,89,160.0
2645,F2,261.5,0.5,102,160.0
2646,F#2,261.517,1/40,81,160.0
2647,C2,261.517,1/40,81,160.0
2648,F2,262.0,1.0,102,160.0
2649,B-2,262.017,1/40,112,160.0
2650,C5,262.5,1.0,89,160.0
2651,C2,262.517,1/40,95,160.0
2652,F3,263.0,1.0,102,160.0
2653,E-2,263.0,1.0,89,160.0
2654,F4,263.0,1.0,89,160.0
2655,A4,263.0,1.0,89,160.0
2656,D2,263.017,1/40,96,160.0
2657,F#2,263.017,1/40,96,160.0
2658,F5,263.5,1.0,89,160.0
2659,C2,263.517,1/40,95,160.0
2660,F2,264.0,0.5,102,160.0
2661,E-2,264.0,0.5,89,160.0
2662,F#2,264.017,1/40,96,160.0
2663,C2,264.017,1/40,96,160.0
2664,F5,264.5,0.5,89,160.0
2665,E-2,264.5,0.5,89,160.0
2666,C5,265.0,0.5,89,160.0
2667,E-5,265.0,0.5,89,160.0
2668,E-2,265.0,0.5,89,160.0
2669,C5,265.0,0.5,89,160.0
2670,E-2,265.017,1/40,90,160.0
2671,F#2,265.017,1/40,90,160.0
2672,D2,265.017,1/40,90,160.0
2673,C5,265.5,0.5,89,160.0
2674,F5,265.5,1.0,89,160.0
2675,F2,265.5,0.5,102,160.0
2676,E-2,265.5,0.5,89,160.0
2677,C5,265.5,0.5,89,160.0
2678,F#2,265.517,1/40,81,160.0
2679,C2,265.517,1/40,81,160.0
2680,E-4,266.0,0.5,89,160.0
2681,E-2,266.0,0.5,89,160.0
2682,E-4,266.0,0.5,89,160.0
2683,B-2,266.017,1/40,96,160.0
2684,C2,266.017,1/40,96,160.0
2685,F4,266.5,1.0,89,160.0
2686,E-5,266.5,0.5,89,160.0
2687,F2,266.5,0.5,102,160.0
2688,E-2,266.5,0.5,89,160.0
2689,F4,266.5,1.0,89,160.0
2690,C2,266.517,1/40,95,160.0
2691,F5,267.0,0.5,89,160.0
2692,E-2,267.0,0.5,89,160.0
2693,E-2,267.017,1/40,88,160.0
2694,F#2,267.017,1/40,88,160.0
2695,D2,267.017,1/40,88,160.0
2696,F4,267.5,0.5,89,160.0
2697,F5,267.5,1.0,89,160.0
2698,E-2,267.5,0.5,89,160.0
2699,F4,267.5,0.5,89,160.0
2700,C2,267.517,1/40,95,160.0
2701,F4,268.0,1.0,89,160.0
2702,F2,268.0,0.5,102,160.0
2703,E-2,268.0,0.5,89,160.0
2704,F4,268.0,1.0,89,160.0
2705,C2,268.017,1/40,96,160.0
2706,F#2,268.017,1/40,96,160.0
2707,E-2,268.5,0.5,89,160.0
2708,E-2,269.0,0.5,89,160.0
2709,E-2,269.017,1/40,90,160.0
2710,F#2,269.017,1/40,90,160.0
2711,D2,269.017,1/40,90,160.0
2712,F2,269.5,0.5,102,160.0
2713,E-2,269.5,0.5,89,160.0
2714,C2,269.517,1/40,81,160.0
2715,F#2,269.517,1/40,81,160.0
2716,E-4,270.0,1.0,89,160.0
2717,E-2,270.0,0.5,89,160.0
2718,E-4,270.0,1.0,89,160.0
2719,C2,270.017,1/40,96,160.0
2720,B-2,270.017,1/40,96,160.0
2721,F2,270.5,0.5,102,160.0
2722,E-2,270.5,0.5,89,160.0
2723,C2,270.517,1/40,95,160.0
2724,F4,271.0,0.5,89,160.0
2725,E-2,271.0,0.5,89,160.0
2726,F4,271.0,0.5,89,160.0
2727,E-2,271.017,1/40,88,160.0
2728,D2,271.017,1/40,88,160.0
2729,F#2,271.017,1/40,88,160.0
2730,F4,271.5,0.5,89,160.0
2731,E-2,271.5,0.5,89,160.0
2732,F4,271.5,0.5,89,160.0
2733,C2,271.517,1/40,95,160.0
2734,F2,272.0,0.5,102,160.0
2735,E-2,272.0,0.5,89,160.0
2736,C2,272.017,1/40,96,160.0
2737,F#2,272.017,1/40,96,160.0
2738,C5,272.5,0.5,89,160.0
2739,E-2,272.5,0.5,89,160.0
2740,C5,273.0,0.5,89,160.0
2741,C5,273.0,0.5,89,160.0
2742,E-2,273.0,0.5,89,160.0
2743,C5,273.0,0.5,89,160.0
2744,D2,273.017,1/40,90,160.0
2745,E-2,273.017,1/40,90,160.0
2746,F#2,273.017,1/40,90,160.0
2747,C5,273.5,0.5,89,160.0
2748,E-4,273.5,0.5,89,160.0
2749,F2,273.5,0.5,102,160.0
2750,E-2,273.5,0.5,89,160.0
2751,C5,273.5,0.5,89,160.0
2752,C2,273.517,1/40,81,160.0
2753,F#2,273.517,1/40,81,160.0
2754,E-4,274.0,0.5,89,160.0
2755,F4,274.0,1.0,89,160.0
2756,E-2,274.0,0.5,89,160.0
2757,E-4,274.0,0.5,89,160.0
2758,C2,274.017,1/40,96,160.0
2759,B-2,274.017,1/40,96,160.0
2760,F4,274.5,1.0,89,160.0
2761,F2,274.5,0.5,102,160.0
2762,E-2,274.5,0.5,89,160.0
2763,F4,274.5,1.0,89,160.0
2764,C2,274.517,1/40,95,160.0
2765,F4,275.0,0.5,89,160.0
2766,E-2,275.0,0.5,89,160.0
2767,E-2,275.017,1/40,88,160.0
2768,D2,275.017,1/40,88,160.0
2769,F#2,275.017,1/40,88,160.0
2770,F4,275.5,0.5,89,160.0
2771,F4,275.5,1.0,89,160.0
2772,E-2,275.5,0.5,89,160.0
2773,F4,275.5,0.5,89,160.0
2774,C2,275.517,1/40,95,160.0
2775,F4,276.0,1.0,89,160.0
2776,F2,276.0,0.5,102,160.0
2777,E-2,276.0,0.5,89,160.0
2778,F4,276.0,1.0,89,160.0
2779,F#2,276.017,1/40,96,160.0
2780,C2,276.017,1/40,96,160.0
2781,E-2,276.5,0.5,89,160.0
2782,E-2,277.0,0.5,89,160.0
2783,E-2,277.017,1/40,90,160.0
2784,D2,277.017,1/40,90,160.0
2785,F#2,277.017,1/40,90,160.0
2786,C4,277.5,0.5,89,160.0
2787,E-4,277.5,1.0,89,160.0
2788,F2,277.5,0.5,102,160.0
2789,E-2,277.5,0.5,89,160.0
2790,C4,277.5,0.5,89,160.0
2791,F#2,277.517,1/40,81,160.0
2792,C2,277.517,1/40,81,160.0
2793,E-4,278.0,0.5,89,160.0
2794,E-2,278.0,0.5,89,160.0
2795,E-4,278.0,0.5,89,160.0
2796,C2,278.017,1/40,96,160.0
2797,B-2,278.017,1/40,96,160.0
2798,E-4,278.5,0.5,89,160.0
2799,F4,278.5,0.5,89,160.0
2800,F2,278.5,0.5,102,160.0
2801,E-2,278.5,0.5,89,160.0
2802,E-4,278.5,0.5,89,160.0
2803,C2,278.517,1/40,95,160.0
2804,F4,279.0,1.0,89,160.0
2805,F4,279.0,0.5,89,160.0
2806,E-2,279.0,0.5,89,160.0
2807,F4,279.0,1.0,89,160.0
2808,F#2,279.017,1/40,88,160.0
2809,D2,279.017,1/40,88,160.0
2810,E-2,279.017,1/40,88,160.0
2811,E-2,279.5,0.5,89,160.0
2812,C2,279.517,1/40,95,160.0
2813,G#4,280.0,1.0,89,160.0
2814,F2,280.0,0.5,102,160.0
2815,E-2,280.0,0.5,89,160.0
2816,G#4,280.0,1.0,89,160.0
2817,C2,280.017,1/40,96,160.0
2818,F#2,280.017,1/40,96,160.0
2819,C5,280.5,0.5,89,160.0
2820,E-2,280.5,0.5,89,160.0
2821,C5,281.0,0.5,89,160.0
2822,C5,281.0,0.5,89,160.0
2823,E-2,281.0,0.5,89,160.0
2824,C5,281.0,0.5,89,160.0
2825,E-2,281.017,1/40,90,160.0
2826,D2,281.017,1/40,90,160.0
2827,F#2,281.017,1/40,90,160.0
2828,C5,281.5,0.5,89,160.0
2829,E-4,281.5,0.5,89,160.0
2830,F2,281.5,0.5,102,160.0
2831,E-2,281.5,0.5,89,160.0
2832,C5,281.5,0.5,89,160.0
2833,C2,281.517,1/40,81,160.0
2834,F#2,281.517,1/40,81,160.0
2835,E-4,282.0,0.5,89,160.0
2836,F4,282.0,1.0,89,160.0
2837,E-2,282.0,0.5,89,160.0
2838,E-4,282.0,0.5,89,160.0
2839,B-2,282.017,1/40,96,160.0
2840,C2,282.017,1/40,96,160.0
2841,F4,282.5,1.0,89,160.0
2842,F2,282.5,0.5,102,160.0
2843,E-2,282.5,0.5,89,160.0
2844,F4,282.5,1.0,89,160.0
2845,C2,282.517,1/40,95,160.0
2846,F4,283.0,0.5,89,160.0
2847,E-2,283.0,0.5,89,160.0
2848,E-2,283.017,1/40,88,160.0
2849,F#2,283.017,1/40,88,160.0
2850,D2,283.017,1/40,88,160.0
2851,F4,283.5,0.5,89,160.0
2852,F4,283.5,1.0,89,160.0
2853,E-2,283.5,0.5,89,160.0
2854,F4,283.5,0.5,89,160.0
2855,C2,283.517,1/40,95,160.0
2856,F4,284.0,1.0,89,160.0
2857,F2,284.0,0.5,102,160.0
2858,E-2,284.0,0.5,89,160.0
2859,F4,284.0,1.0,89,160.0
2860,F#2,284.017,1/40,96,160.0
2861,C2,284.017,1/40,96,160.0
2862,E-2,284.5,0.5,89,160.0
2863,C4,285.0,0.5,89,160.0
2864,E-2,285.0,0.5,89,160.0
2865,E-2,285.017,1/40,90,160.0
2866,F#2,285.017,1/40,90,160.0
2867,D2,285.017,1/40,90,160.0
2868,E-4,285.5,0.5,89,160.0
2869,F2,285.5,0.5,102,160.0
2870,E-2,285.5,0.5,89,160.0
2871,C2,285.517,1/40,81,160.0
2872,F#2,285.517,1/40,81,160.0
2873,E-4,286.0,1.0,89,160.0
2874,E-4,286.0,0.5,89,160.0
2875,E-2,286.0,0.5,89,160.0
2876,E-4,286.0,1.0,89,160.0
2877,B-2,286.017,1/40,96,160.0
2878,C2,286.017,1/40,96,160.0
2879,F4,286.5,1.0,89,160.0
2880,F2,286.5,0.5,102,160.0
2881,E-2,286.5,0.5,89,160.0
2882,C2,286.517,1/40,95,160.0
2883,F4,287.0,0.5,89,160.0
2884,E-2,287.0,0.5,89,160.0
2885,F4,287.0,0.5,89,160.0
2886,E-2,287.017,1/40,88,160.0
2887,D2,287.017,1/40,88,160.0
2888,F#2,287.017,1/40,88,160.0
2889,F4,287.5,0.5,89,160.0
2890,G#4,287.5,1.0,89,160.0
2891,E-2,287.5,0.5,89,160.0
2892,F4,287.5,0.5,89,160.0
2893,C2,287.517,1/40,95,160.0
2894,F2,288.0,0.5,102,160.0
2895,E-2,288.0,0.5,89,160.0
2896,F#2,288.017,1/40,96,160.0
2897,C2,288.017,1/40,96,160.0
2898,C5,288.5,0.5,89,160.0
2899,E-2,288.5,0.5,89,160.0
2900,C5,289.0,0.5,89,160.0
2901,C5,289.0,0.5,89,160.0
2902,E-2,289.0,0.5,89,160.0
2903,C5,289.0,0.5,89,160.0
2904,E-2,289.017,1/40,90,160.0
2905,D2,289.017,1/40,90,160.0
2906,F#2,289.017,1/40,90,160.0
2907,C5,289.5,0.5,89,160.0
2908,E-4,289.5,0.5,89,160.0
2909,F2,289.5,0.5,102,160.0
2910,E-2,289.5,0.5,89,160.0
2911,C5,289.5,0.5,89,160.0
2912,F#2,289.517,1/40,81,160.0
2913,C2,289.517,1/40,81,160.0
2914,E-4,290.0,0.5,89,160.0
2915,F4,290.0,1.0,89,160.0
2916,E-2,290.0,0.5,89,160.0
2917,E-4,290.0,0.5,89,160.0
2918,B-2,290.017,1/40,96,160.0
2919,C2,290.017,1/40,96,160.0
2920,F4,290.5,1.0,89,160.0
2921,F2,290.5,0.5,102,160.0
2922,E-2,290.5,0.5,89,160.0
2923,F4,290.5,1.0,89,160.0
2924,C2,290.517,1/40,95,160.0
2925,F4,291.0,0.5,89,160.0
2926,E-2,291.0,0.5,89,160.0
2927,E-2,291.017,1/40,88,160.0
2928,D2,291.017,1/40,88,160.0
2929,F#2,291.017,1/40,88,160.0
2930,F4,291.5,0.5,89,160.0
2931,F4,291.5,1.0,89,160.0
2932,E-2,291.5,0.5,89,160.0
2933,F4,291.5,0.5,89,160.0
2934,C2,291.517,1/40,95,160.0
2935,F4,292.0,0.5,89,160.0
2936,F2,292.0,0.5,102,160.0
2937,E-2,292.0,0.5,89,160.0
2938,F4,292.0,0.5,89,160.0
2939,F#2,292.017,1/40,96,160.0
2940,C2,292.017,1/40,96,160.0
2941,C4,292.5,0.5,89,160.0
2942,E-2,292.5,0.5,89,160.0
2943,C4,292.5,0.5,89,160.0
2944,C4,293.0,1.0,89,160.0
2945,E-2,293.0,0.5,89,160.0
2946,C4,293.0,1.0,89,160.0
2947,E-2,293.017,1/40,90,160.0
2948,D2,293.017,1/40,90,160.0
2949,F#2,293.017,1/40,90,160.0
2950,E-4,293.5,1.0,89,160.0
2951,F2,293.5,0.5,102,160.0
2952,E-2,293.5,0.5,89,160.0
2953,C2,293.517,1/40,81,160.0
2954,F#2,293.517,1/40,81,160.0
2955,E-2,294.0,0.5,89,160.0
2956,B-2,294.017,1/40,96,160.0
2957,C2,294.017,1/40,96,160.0
2958,F4,294.5,0.5,89,160.0
2959,F2,294.5,0.5,102,160.0
2960,E-2,294.5,0.5,89,160.0
2961,C2,294.517,1/40,95,160.0
2962,F4,295.0,0.5,89,160.0
2963,E-2,295.0,0.5,89,160.0
2964,E-2,295.017,1/40,88,160.0
2965,D2,295.017,1/40,88,160.0
2966,F#2,295.017,1/40,88,160.0
2967,E-2,295.5,0.5,89,160.0
2968,C2,295.517,1/40,95,160.0
2969,C4,296.0,0.5,89,160.0
2970,F2,296.0,0.5,102,160.0
2971,E-2,296.0,0.5,89,160.0
2972,C2,296.017,1/40,104,160.0
2973,F#2,296.017,1/40,104,160.0
2974,C5,296.5,0.5,89,160.0
2975,C4,296.5,1.5,89,160.0
2976,E-2,296.5,0.5,89,160.0
2977,C5,297.0,0.5,89,160.0
2978,E-2,297.0,0.5,89,160.0
2979,D2,297.017,1/40,88,160.0
2980,E-4,297.5,0.5,89,160.0
2981,F2,297.5,0.5,102,160.0
2982,E-2,297.5,0.5,89,160.0
2983,C2,297.517,1/40,95,160.0
2984,E-4,298.0,0.5,89,160.0
2985,F4,298.0,1.0,89,160.0
2986,B-3,298.0,0.5,89,160.0
2987,E-2,298.0,0.5,89,160.0
2988,E-4,298.0,0.5,89,160.0
2989,B-2,298.017,1/40,112,160.0
2990,F4,298.5,1.0,89,160.0
2991,B-3,298.5,1.5,89,160.0
2992,F2,298.5,0.5,102,160.0
2993,E-2,298.5,0.5,89,160.0
2994,F4,298.5,1.0,89,160.0
2995,C2,298.517,1/40,95,160.0
2996,F4,299.0,0.5,89,160.0
2997,E-2,299.0,0.5,89,160.0
2998,F#2,299.017,1/40,96,160.0
2999,D2,299.017,1/40,96,160.0
3000,F4,299.5,0.5,89,160.0
3001,F4,299.5,0.5,89,160.0
3002,E-2,299.5,0.5,89,160.0
3003,F4,299.5,0.5,89,160.0
3004,F#2,299.517,1/40,85,160.0
3005,C2,299.517,1/40,85,160.0
3006,F4,300.0,1.0,89,160.0
3007,C4,300.0,0.5,89,160.0
3008,G#3,300.0,0.5,89,160.0
3009,F2,300.0,0.5,102,160.0
3010,E-2,300.0,0.5,89,160.0
3011,F4,300.0,1.0,89,160.0
3012,C2,300.017,1/40,96,160.0
3013,F#2,300.017,1/40,96,160.0
3014,C4,300.5,1.0,89,160.0
3015,G#3,300.5,1.5,89,160.0
3016,E-2,300.5,0.5,89,160.0
3017,E-2,301.0,0.5,89,160.0
3018,F#2,301.017,1/40,98,160.0
3019,D2,301.017,1/40,98,160.0
3020,F2,301.5,0.5,102,160.0
3021,E-2,301.5,0.5,89,160.0
3022,F#2,301.517,1/40,81,160.0
3023,C2,301.517,1/40,81,160.0
3024,E-4,302.0,1.0,89,160.0
3025,G3,302.0,0.5,89,160.0
3026,E-2,302.0,0.5,89,160.0
3027,E-4,302.0,1.0,89,160.0
3028,B-2,302.017,1/40,112,160.0
3029,G3,302.5,1.5,89,160.0
3030,F2,302.5,0.5,102,160.0
3031,E-2,302.5,0.5,89,160.0
3032,C2,302.517,1/40,95,160.0
3033,F4,303.0,0.5,89,160.0
3034,E-2,303.0,0.5,89,160.0
3035,F4,303.0,0.5,89,160.0
3036,F#2,303.017,1/40,96,160.0
3037,D2,303.017,1/40,96,160.0
3038,F4,303.5,0.5,89,160.0
3039,E-2,303.5,0.5,89,160.0
3040,F4,303.5,0.5,89,160.0
3041,C2,303.517,1/40,95,160.0
3042,G#3,304.0,0.5,89,160.0
3043,F2,304.0,0.5,102,160.0
3044,E-2,304.0,0.5,89,160.0
3045,C2,304.017,1/40,96,160.0
3046,F#2,304.017,1/40,96,160.0
3047,G#3,304.5,1.5,89,160.0
3048,E-2,304.5,0.5,89,160.0
3049,E-2,305.0,0.5,89,160.0
3050,F#2,305.017,1/40,100,160.0
3051,D2,305.017,1/40,100,160.0
3052,E-4,305.5,0.5,89,160.0
3053,F2,305.5,0.5,102,160.0
3054,E-2,305.5,0.5,89,160.0
3055,F#2,305.517,1/40,82,160.0
3056,C2,305.517,1/40,82,160.0
3057,E-4,306.0,0.5,89,160.0
3058,F4,306.0,1.0,89,160.0
3059,G3,306.0,0.5,89,160.0
3060,E-2,306.0,0.5,89,160.0
3061,E-4,306.0,0.5,89,160.0
3062,B-2,306.017,1/40,112,160.0
3063,F4,306.5,1.0,89,160.0
3064,G3,306.5,1.5,89,160.0
3065,F2,306.5,0.5,102,160.0
3066,E-2,306.5,0.5,89,160.0
3067,F4,306.5,1.0,89,160.0
3068,C2,306.517,1/40,95,160.0
3069,F4,307.0,0.5,89,160.0
3070,E-2,307.0,0.5,89,160.0
3071,D2,307.017,1/40,96,160.0
3072,F#2,307.017,1/40,96,160.0
3073,F4,307.5,0.5,89,160.0
3074,F4,307.5,1.0,89,160.0
3075,E-2,307.5,0.5,89,160.0
3076,F4,307.5,0.5,89,160.0
3077,C2,307.517,1/40,95,160.0
3078,F4,308.0,1.0,89,160.0
3079,F2,308.0,0.5,102,160.0
3080,E-2,308.0,0.5,89,160.0
3081,F4,308.0,1.0,89,160.0
3082,G#3,308.0,0.5,89,160.0
3083,C4,308.0,0.5,89,160.0
3084,F#2,308.017,1/40,96,160.0
3085,C2,308.017,1/40,96,160.0
3086,E-2,308.5,0.5,89,160.0
3087,G#3,308.5,1.5,89,160.0
3088,C4,308.5,1.5,89,160.0
3089,E-2,309.0,0.5,89,160.0
3090,D2,309.017,1/40,100,160.0
3091,F#2,309.017,1/40,100,160.0
3092,C4,309.5,0.5,89,160.0
3093,E-4,309.5,1.0,89,160.0
3094,F2,309.5,0.5,102,160.0
3095,E-2,309.5,0.5,89,160.0
3096,C4,309.5,0.5,89,160.0
3097,F#2,309.517,1/40,82,160.0
3098,C2,309.517,1/40,82,160.0
3099,E-4,310.0,0.5,89,160.0
3100,B-3,310.0,0.5,89,160.0
3101,E-2,310.0,0.5,89,160.0
3102,E-4,310.0,0.5,89,160.0
3103,B-2,310.017,1/40,112,160.0
3104,E-4,310.5,0.5,89,160.0
3105,F4,310.5,0.5,89,160.0
3106,F2,310.5,0.5,102,160.0
3107,E-2,310.5,0.5,89,160.0
3108,E-4,310.5,0.5,89,160.0
3109,B-3,310.5,1.5,89,160.0
3110,F4,310.5,1.5,89,160.0
3111,C2,310.517,1/40,95,160.0
3112,F4,311.0,1.0,89,160.0
3113,F4,311.0,0.5,89,160.0
3114,E-2,311.0,0.5,89,160.0
3115,F4,311.0,1.0,89,160.0
3116,D2,311.017,1/40,96,160.0
3117,F#2,311.017,1/40,96,160.0
3118,E-2,311.5,0.5,89,160.0
3119,C2,311.517,1/40,95,160.0
3120,G#4,312.0,1.0,89,160.0
3121,C4,312.0,0.5,89,160.0
3122,F2,312.0,0.5,102,160.0
3123,E-2,312.0,0.5,89,160.0
3124,G#4,312.0,1.0,89,160.0
3125,F#2,312.017,1/40,96,160.0
3126,C2,312.017,1/40,96,160.0
3127,C4,312.5,1.5,89,160.0
3128,E-2,312.5,0.5,89,160.0
3129,E-2,313.0,0.5,89,160.0
3130,F#2,313.017,1/40,100,160.0
3131,D2,313.017,1/40,100,160.0
3132,E-4,313.5,0.5,89,160.0
3133,F2,313.5,0.5,102,160.0
3134,E-2,313.5,0.5,89,160.0
3135,F#2,313.517,1/40,82,160.0
3136,C2,313.517,1/40,82,160.0
3137,E-4,314.0,0.5,89,160.0
3138,F4,314.0,1.0,89,160.0
3139,E-2,314.0,0.5,89,160.0
3140,E-4,314.0,0.5,89,160.0
3141,B-3,314.0,0.5,89,160.0
3142,C#4,314.0,0.5,89,160.0
3143,B-2,314.017,1/40,112,160.0
3144,F4,314.5,1.0,89,160.0
3145,F2,314.5,0.5,102,160.0
3146,E-2,314.5,0.5,89,160.0
3147,F4,314.5,1.0,89,160.0
3148,B-3,314.5,1.5,89,160.0
3149,C#4,314.5,1.5,89,160.0
3150,C2,314.517,1/40,95,160.0
3151,F4,315.0,0.5,89,160.0
3152,E-2,315.0,0.5,89,160.0
3153,D2,315.017,1/40,96,160.0
3154,F#2,315.017,1/40,96,160.0
3155,F4,315.5,0.5,89,160.0
3156,F4,315.5,1.0,89,160.0
3157,E-2,315.5,0.5,89,160.0
3158,F4,315.5,0.5,89,160.0
3159,C2,315.517,1/40,95,160.0
3160,F4,316.0,1.0,89,160.0
3161,F2,316.0,0.5,102,160.0
3162,E-2,316.0,0.5,89,160.0
3163,F4,316.0,1.0,89,160.0
3164,G#3,316.0,0.5,89,160.0
3165,E-4,316.0,0.5,89,160.0
3166,C2,316.017,1/40,96,160.0
3167,F#2,316.017,1/40,96,160.0
3168,E-2,316.5,0.5,89,160.0
3169,G#3,316.5,1.5,89,160.0
3170,E-4,316.5,1.5,89,160.0
3171,C4,317.0,0.5,89,160.0
3172,E-2,317.0,0.5,89,160.0
3173,F#2,317.017,1/40,100,160.0
3174,D2,317.017,1/40,100,160.0
3175,E-4,317.5,0.5,89,160.0
3176,F2,317.5,0.5,102,160.0
3177,E-2,317.5,0.5,89,160.0
3178,F#2,317.517,1/40,82,160.0
3179,C2,317.517,1/40,82,160.0
3180,E-4,318.0,1.0,89,160.0
3181,E-4,318.0,0.5,89,160.0
3182,B-3,318.0,0.5,89,160.0
3183,E-2,318.0,0.5,89,160.0
3184,E-4,318.0,1.0,89,160.0
3185,B-2,318.017,1/40,112,160.0
3186,F4,318.5,1.0,89,160.0
3187,B-3,318.5,1.5,89,160.0
3188,F2,318.5,0.5,102,160.0
3189,E-2,318.5,0.5,89,160.0
3190,C2,318.517,1/40,95,160.0
3191,F4,319.0,0.5,89,160.0
3192,E-2,319.0,0.5,89,160.0
3193,F4,319.0,0.5,89,160.0
3194,D2,319.017,1/40,96,160.0
3195,F#2,319.017,1/40,96,160.0
3196,F4,319.5,0.5,89,160.0
3197,G#4,319.5,1.0,89,160.0
3198,E-2,319.5,0.5,89,160.0
3199,F4,319.5,0.5,89,160.0
3200,C2,319.517,1/40,95,160.0
3201,G#3,320.0,0.5,89,160.0
3202,F2,320.0,0.5,102,160.0
3203,E-2,320.0,0.5,89,160.0
3204,C2,320.017,1/40,96,160.0
3205,F#2,320.017,1/40,96,160.0
3206,G#3,320.5,1.5,89,160.0
3207,E-2,320.5,0.5,89,160.0
3208,E-2,321.0,0.5,89,160.0
3209,F#2,321.017,1/40,100,160.0
3210,D2,321.017,1/40,100,160.0
3211,E-4,321.5,0.5,89,160.0
3212,F2,321.5,0.5,102,160.0
3213,E-2,321.5,0.5,89,160.0
3214,C2,321.517,1/40,82,160.0
3215,F#2,321.517,1/40,82,160.0
3216,E-4,322.0,0.5,89,160.0
3217,F4,322.0,1.0,89,160.0
3218,G3,322.0,0.5,89,160.0
3219,E-2,322.0,0.5,89,160.0
3220,E-4,322.0,0.5,89,160.0
3221,B-2,322.017,1/40,112,160.0
3222,F4,322.5,1.0,89,160.0
3223,G3,322.5,1.5,89,160.0
3224,F2,322.5,0.5,102,160.0
3225,E-2,322.5,0.5,89,160.0
3226,F4,322.5,1.0,89,160.0
3227,C2,322.517,1/40,95,160.0
3228,F4,323.0,0.5,89,160.0
3229,E-2,323.0,0.5,89,160.0
3230,F#2,323.017,1/40,96,160.0
3231,D2,323.017,1/40,96,160.0
3232,F4,323.5,0.5,89,160.0
3233,F4,323.5,1.0,89,160.0
3234,E-2,323.5,0.5,89,160.0
3235,F4,323.5,0.5,89,160.0
3236,C2,323.517,1/40,95,160.0
3237,F4,324.0,0.5,89,160.0
3238,E-2,324.0,0.5,89,160.0
3239,F4,324.0,0.5,89,160.0
3240,F2,324.0,1.0,102,160.0
3241,C#2,324.0,1.0,102,160.0
3242,F#2,324.017,1/40,96,160.0
3243,C2,324.017,1/40,96,160.0
3244,C4,324.5,0.5,89,160.0
3245,E-2,324.5,0.5,89,160.0
3246,C4,324.5,0.5,89,160.0
3247,C4,325.0,0.5,89,160.0
3248,E-2,325.0,0.5,89,160.0
3249,C4,325.0,0.5,89,160.0
3250,G#4,325.0,2.0,89,160.0
3251,F4,325.0,2.0,89,160.0
3252,F#2,325.017,1/40,100,160.0
3253,D2,325.017,1/40,100,160.0
3254,C5,325.5,0.5,89,160.0
3255,E-4,325.5,1.0,89,160.0
3256,C#2,325.5,0.5,102,160.0
3257,E-2,325.5,0.5,89,160.0
3258,C5,325.5,0.5,89,160.0
3259,F#2,325.517,1/40,81,160.0
3260,C2,325.517,1/40,81,160.0
3261,C5,326.0,1.0,89,160.0
3262,C#2,326.0,0.5,102,160.0
3263,E-2,326.0,0.5,89,160.0
3264,C5,326.0,1.0,89,160.0
3265,B-2,326.017,1/40,112,160.0
3266,F4,326.5,0.5,89,160.0
3267,G#2,326.5,0.5,102,160.0
3268,E-2,326.5,0.5,89,160.0
3269,C2,326.517,1/40,95,160.0
3270,E-5,327.0,1.0,89,160.0
3271,F4,327.0,0.5,89,160.0
3272,C#3,327.0,0.5,102,160.0
3273,E-2,327.0,0.5,89,160.0
3274,E-5,327.0,1.0,89,160.0
3275,G#4,327.0,1.0,89,160.0
3276,F4,327.0,1.0,89,160.0
3277,F#2,327.017,1/40,96,160.0
3278,D2,327.017,1/40,96,160.0
3279,G#2,327.5,0.5,102,160.0
3280,E-2,327.5,0.5,89,160.0
3281,C2,327.517,1/40,95,160.0
3282,F5,328.0,0.5,89,160.0
3283,F5,328.0,0.5,89,160.0
3284,C2,328.017,1/40,96,160.0
3285,F#2,328.017,1/40,96,160.0
3286,F5,328.5,0.5,89,160.0
3287,C2,328.5,0.5,102,160.0
3288,F5,328.5,0.5,89,160.0
3289,F5,329.0,0.5,89,160.0
3290,E-2,329.0,1.0,89,160.0
3291,F5,329.0,0.5,89,160.0
3292,C5,329.0,2.0,89,160.0
3293,G4,329.0,2.0,89,160.0
3294,D2,329.017,1/40,98,160.0
3295,F#2,329.017,1/40,98,160.0
3296,F5,329.5,0.5,89,160.0
3297,E-4,329.5,0.5,89,160.0
3298,C2,329.5,0.5,102,160.0
3299,F5,329.5,0.5,89,160.0
3300,F#2,329.517,1/40,81,160.0
3301,C2,329.517,1/40,81,160.0
3302,F5,330.0,1.5,89,160.0
3303,F4,330.0,1.0,89,160.0
3304,C2,330.0,0.5,102,160.0
3305,F5,330.0,1.5,89,160.0
3306,B-2,330.017,1/40,112,160.0
3307,G2,330.5,0.5,102,160.0
3308,C2,330.517,1/40,95,160.0
3309,F4,331.0,0.5,89,160.0
3310,C3,331.0,1.0,102,160.0
3311,E-2,331.0,1.0,89,160.0
3312,C5,331.0,1.0,89,160.0
3313,G4,331.0,1.0,89,160.0
3314,D2,331.017,1/40,96,160.0
3315,F#2,331.017,1/40,96,160.0
3316,F5,331.5,0.5,89,160.0
3317,F4,331.5,0.5,89,160.0
3318,F5,331.5,0.5,89,160.0
3319,C2,331.517,1/40,95,160.0
3320,F5,332.0,0.5,89,160.0
3321,C4,332.0,0.5,89,160.0
3322,C2,332.0,1.0,102,160.0
3323,F5,332.0,0.5,89,160.0
3324,F#2,332.017,1/40,96,160.0
3325,C2,332.017,1/40,96,160.0
3326,F5,332.5,1.0,89,160.0
3327,C4,332.5,0.5,89,160.0
3328,F5,332.5,1.0,89,160.0
3329,C5,333.0,0.5,89,160.0
3330,E-2,333.0,1.0,89,160.0
3331,C5,333.0,2.0,89,160.0
3332,G4,333.0,2.0,89,160.0
3333,D2,333.017,1/40,100,160.0
3334,F#2,333.017,1/40,100,160.0
3335,F5,333.5,1.5,89,160.0
3336,C5,333.5,1.0,89,160.0
3337,C2,333.5,0.5,102,160.0
3338,F5,333.5,1.5,89,160.0
3339,C2,333.517,1/40,82,160.0
3340,F#2,333.517,1/40,82,160.0
3341,C2,334.0,0.5,102,160.0
3342,B-2,334.017,1/40,112,160.0
3343,E-5,334.5,1.0,89,160.0
3344,G2,334.5,0.5,102,160.0
3345,C2,334.517,1/40,95,160.0
3346,F5,335.0,0.5,89,160.0
3347,C3,335.0,0.5,102,160.0
3348,E-2,335.0,1.0,89,160.0
3349,F5,335.0,0.5,89,160.0
3350,C5,335.0,1.0,89,160.0
3351,G4,335.0,1.0,89,160.0
3352,D2,335.017,1/40,96,160.0
3353,F#2,335.017,1/40,96,160.0
3354,E-5,335.5,0.5,89,160.0
3355,F5,335.5,0.5,89,160.0
3356,G2,335.5,0.5,102,160.0
3357,E-5,335.5,0.5,89,160.0
3358,C2,335.517,1/40,95,160.0
3359,F5,336.0,1.0,89,160.0
3360,F5,336.0,0.5,89,160.0
3361,F5,336.0,1.0,89,160.0
3362,F#2,336.017,1/40,96,160.0
3363,C2,336.017,1/40,96,160.0
3364,F5,336.5,0.5,89,160.0
3365,F2,336.5,0.5,102,160.0
3366,F5,337.0,1.0,89,160.0
3367,F5,337.0,0.5,89,160.0
3368,E-2,337.0,1.0,89,160.0
3369,F5,337.0,1.0,89,160.0
3370,F4,337.0,2.0,89,160.0
3371,A4,337.0,2.0,89,160.0
3372,F#2,337.017,1/40,100,160.0
3373,D2,337.017,1/40,100,160.0
3374,F5,337.5,1.5,89,160.0
3375,F2,337.5,0.5,102,160.0
3376,F#2,337.517,1/40,82,160.0
3377,C2,337.517,1/40,82,160.0
3378,F5,338.0,1.0,89,160.0
3379,F2,338.0,1.0,102,160.0
3380,F5,338.0,1.0,89,160.0
3381,B-2,338.017,1/40,112,160.0
3382,C2,338.517,1/40,95,160.0
3383,E-5,339.0,0.5,89,160.0
3384,F5,339.0,0.5,89,160.0
3385,F3,339.0,1.0,102,160.0
3386,E-2,339.0,1.0,89,160.0
3387,E-5,339.0,0.5,89,160.0
3388,F4,339.0,1.0,89,160.0
3389,A4,339.0,1.0,89,160.0
3390,F#2,339.017,1/40,96,160.0
3391,D2,339.017,1/40,96,160.0
3392,F5,339.5,0.5,89,160.0
3393,F5,339.5,0.5,89,160.0
3394,F5,339.5,0.5,89,160.0
3395,C2,339.517,1/40,95,160.0
3396,F5,340.0,1.0,89,160.0
3397,F5,340.0,1.0,89,160.0
3398,C#2,340.0,1.0,102,160.0
3399,F5,340.0,1.0,89,160.0
3400,C2,340.017,1/40,96,160.0
3401,F#2,340.017,1/40,96,160.0
3402,F5,341.0,1.5,89,160.0
3403,E-2,341.0,1.0,89,160.0
3404,G#4,341.0,2.0,89,160.0
3405,F4,341.0,2.0,89,160.0
3406,F#2,341.017,1/40,100,160.0
3407,D2,341.017,1/40,100,160.0
3408,C5,341.5,0.5,89,160.0
3409,C#2,341.5,0.5,102,160.0
3410,C5,341.5,0.5,89,160.0
3411,F#2,341.517,1/40,82,160.0
3412,C2,341.517,1/40,82,160.0
3413,C5,342.0,1.0,89,160.0
3414,C#2,342.0,0.5,102,160.0
3415,C5,342.0,1.0,89,160.0
3416,B-2,342.017,1/40,112,160.0
3417,F5,342.5,0.5,89,160.0
3418,G#2,342.5,0.5,102,160.0
3419,C2,342.517,1/40,95,160.0
3420,E-5,343.0,1.0,89,160.0
3421,E-5,343.0,0.5,89,160.0
3422,C#3,343.0,0.5,102,160.0
3423,E-2,343.0,1.0,89,160.0
3424,E-5,343.0,1.0,89,160.0
3425,G#4,343.0,1.0,89,160.0
3426,F4,343.0,1.0,89,160.0
3427,D2,343.017,1/40,96,160.0
3428,F#2,343.017,1/40,96,160.0
3429,F5,343.5,1.0,89,160.0
3430,G#2,343.5,0.5,102,160.0
3431,C2,343.517,1/40,95,160.0
3432,F5,344.0,0.5,89,160.0
3433,F5,344.0,0.5,89,160.0
3434,C2,344.017,1/40,96,160.0
3435,F#2,344.017,1/40,96,160.0
3436,F5,344.5,0.5,89,160.0
3437,F5,344.5,1.0,89,160.0
3438,C2,344.5,0.5,102,160.0
3439,F5,344.5,0.5,89,160.0
3440,F5,345.0,0.5,89,160.0
3441,E-2,345.0,1.0,89,160.0
3442,F5,345.0,0.5,89,160.0
3443,C5,345.0,2.0,89,160.0
3444,G4,345.0,2.0,89,160.0
3445,D2,345.017,1/40,100,160.0
3446,F#2,345.017,1/40,100,160.0
3447,F5,345.5,0.5,89,160.0
3448,F5,345.5,1.0,89,160.0
3449,C2,345.5,0.5,102,160.0
3450,F5,345.5,0.5,89,160.0
3451,F#2,345.517,1/40,82,160.0
3452,C2,345.517,1/40,82,160.0
3453,F5,346.0,1.5,89,160.0
3454,C2,346.0,0.5,102,160.0
3455,F5,346.0,1.5,89,160.0
3456,B-2,346.017,1/40,112,160.0
3457,E-5,346.5,0.5,89,160.0
3458,G2,346.5,0.5,102,160.0
3459,C2,346.517,1/40,95,160.0
3460,F5,347.0,0.5,89,160.0
3461,C3,347.0,1.0,102,160.0
3462,E-2,347.0,1.0,89,160.0
3463,C5,347.0,1.0,89,160.0
3464,G4,347.0,1.0,89,160.0
3465,D2,347.017,1/40,96,160.0
3466,F#2,347.017,1/40,96,160.0
3467,F5,347.5,0.5,89,160.0
3468,F5,347.5,1.0,89,160.0
3469,F5,347.5,0.5,89,160.0
3470,C2,347.517,1/40,95,160.0
3471,F5,348.0,0.5,89,160.0
3472,C2,348.0,1.0,102,160.0
3473,F5,348.0,0.5,89,160.0
3474,F#2,348.017,1/40,96,160.0
3475,C2,348.017,1/40,96,160.0
3476,E-5,348.5,1.0,89,160.0
3477,E-5,348.5,1.0,89,160.0
3478,C5,349.0,0.5,89,160.0
3479,E-2,349.0,1.0,89,160.0
3480,C5,349.0,2.0,89,160.0
3481,G4,349.0,2.0,89,160.0
3482,F#2,349.017,1/40,100,160.0
3483,D2,349.017,1/40,100,160.0
3484,E-5,349.5,0.5,89,160.0
3485,C5,349.5,1.0,89,160.0
3486,C2,349.5,0.5,102,160.0
3487,E-5,349.5,0.5,89,160.0
3488,F#2,349.517,1/40,82,160.0
3489,C2,349.517,1/40,82,160.0
3490,C5,350.0,1.0,89,160.0
3491,C2,350.0,0.5,102,160.0
3492,C5,350.0,1.0,89,160.0
3493,B-2,350.017,1/40,112,160.0
3494,E-5,350.5,1.0,89,160.0
3495,G2,350.5,0.5,102,160.0
3496,C2,350.517,1/40,95,160.0
3497,C5,351.0,1.0,89,160.0
3498,C3,351.0,0.5,102,160.0
3499,E-2,351.0,1.0,89,160.0
3500,C5,351.0,1.0,89,160.0
3501,C5,351.0,1.0,89,160.0
3502,G4,351.0,1.0,89,160.0
3503,D2,351.017,1/40,96,160.0
3504,F#2,351.017,1/40,96,160.0
3505,F5,351.5,0.5,89,160.0
3506,G2,351.5,0.5,102,160.0
3507,C2,351.517,1/40,95,160.0
3508,F5,352.0,0.5,89,160.0
3509,F5,352.0,0.5,89,160.0
3510,F5,352.0,0.5,89,160.0
3511,C2,352.017,1/40,96,160.0
3512,F#2,352.017,1/40,96,160.0
3513,E-5,352.5,0.5,89,160.0
3514,F5,352.5,0.5,89,160.0
3515,F2,352.5,0.5,102,160.0
3516,E-5,352.5,0.5,89,160.0
3517,F5,353.0,1.0,89,160.0
3518,F5,353.0,0.5,89,160.0
3519,E-2,353.0,1.0,89,160.0
3520,F5,353.0,1.0,89,160.0
3521,F4,353.0,2.0,89,160.0
3522,A4,353.0,2.0,89,160.0
3523,F#2,353.017,1/40,100,160.0
3524,D2,353.017,1/40,100,160.0
3525,F5,353.5,1.5,89,160.0
3526,F2,353.5,0.5,102,160.0
3527,F#2,353.517,1/40,81,160.0
3528,C2,353.517,1/40,81,160.0
3529,F5,354.0,1.0,89,160.0
3530,F2,354.0,1.0,102,160.0
3531,F5,354.0,1.0,89,160.0
3532,B-2,354.017,1/40,112,160.0
3533,C2,354.517,1/40,95,160.0
3534,E-5,355.0,0.5,89,160.0
3535,F5,355.0,0.5,89,160.0
3536,F3,355.0,1.0,102,160.0
3537,E-2,355.0,1.0,89,160.0
3538,E-5,355.0,0.5,89,160.0
3539,F4,355.0,1.0,89,160.0
3540,A4,355.0,1.0,89,160.0
3541,D2,355.017,1/40,96,160.0
3542,F#2,355.017,1/40,96,160.0
3543,F5,355.5,0.5,89,160.0
3544,F5,355.5,0.5,89,160.0
3545,F5,355.5,0.5,89,160.0
3546,C2,355.517,1/40,95,160.0
3547,F5,356.0,1.0,89,160.0
3548,E-5,356.0,1.0,89,160.0
3549,C#2,356.0,1.0,102,160.0
3550,F5,356.0,1.0,89,160.0
3551,C2,356.017,1/40,96,160.0
3552,F#2,356.017,1/40,96,160.0
3553,E-5,357.0,0.5,89,160.0
3554,E-2,357.0,1.0,89,160.0
3555,F5,357.0,2.0,89,160.0
3556,C#5,357.0,2.0,89,160.0
3557,F#2,357.017,1/40,100,160.0
3558,D2,357.017,1/40,100,160.0
3559,C5,357.5,0.5,89,160.0
3560,C5,357.5,1.0,89,160.0
3561,C#2,357.5,0.5,102,160.0
3562,C5,357.5,0.5,89,160.0
3563,F#2,357.517,1/40,81,160.0
3564,C2,357.517,1/40,81,160.0
3565,C5,358.0,1.0,89,160.0
3566,C#2,358.0,0.5,102,160.0
3567,C5,358.0,1.0,89,160.0
3568,B-2,358.017,1/40,112,160.0
3569,C5,358.5,1.0,89,160.0
3570,G#2,358.5,0.5,102,160.0
3571,C2,358.517,1/40,95,160.0
3572,E-5,359.0,1.0,89,160.0
3573,C#3,359.0,0.5,102,160.0
3574,E-2,359.0,1.0,89,160.0
3575,E-5,359.0,1.0,89,160.0
3576,C#5,359.0,1.0,89,160.0
3577,G#4,359.0,1.0,89,160.0
3578,D2,359.017,1/40,96,160.0
3579,F#2,359.017,1/40,96,160.0
3580,F5,359.5,0.5,89,160.0
3581,G#2,359.5,0.5,102,160.0
3582,C2,359.517,1/40,95,160.0
3583,F5,360.0,0.5,89,160.0
3584,E-5,360.0,0.5,89,160.0
3585,F5,360.0,0.5,89,160.0
3586,F#2,360.017,1/40,96,160.0
3587,C2,360.017,1/40,96,160.0
3588,F5,360.5,0.5,89,160.0
3589,F5,360.5,1.0,89,160.0
3590,C2,360.5,0.5,102,160.0
3591,F5,360.5,0.5,89,160.0
3592,C6,361.0,0.5,89,160.0
3593,E-2,361.0,1.0,89,160.0
3594,C6,361.0,0.5,89,160.0
3595,C5,361.0,2.0,89,160.0
3596,G4,361.0,2.0,89,160.0
3597,E-2,361.017,1/40,90,160.0
3598,F#2,361.017,1/40,90,160.0
3599,D2,361.017,1/40,90,160.0
3600,B-5,361.5,0.5,89,160.0
3601,F5,361.5,1.0,89,160.0
3602,C2,361.5,0.5,102,160.0
3603,B-5,361.5,0.5,89,160.0
3604,F#2,361.517,1/40,81,160.0
3605,C2,361.517,1/40,81,160.0
3606,B-5,362.0,0.5,89,160.0
3607,C2,362.0,0.5,102,160.0
3608,B-5,362.0,0.5,89,160.0
3609,B-2,362.017,1/40,96,160.0
3610,C2,362.017,1/40,96,160.0
3611,G#5,362.5,0.5,89,160.0
3612,E-5,362.5,0.5,89,160.0
3613,G2,362.5,0.5,102,160.0
3614,G#5,362.5,0.5,89,160.0
3615,C2,362.517,1/40,95,160.0
3616,F5,363.0,0.5,89,160.0
3617,F5,363.0,0.5,89,160.0
3618,C3,363.0,1.0,102,160.0
3619,E-2,363.0,1.0,89,160.0
3620,F5,363.0,0.5,89,160.0
3621,C5,363.0,1.0,89,160.0
3622,G4,363.0,1.0,89,160.0
3623,E-2,363.017,1/40,88,160.0
3624,F#2,363.017,1/40,88,160.0
3625,D2,363.017,1/40,88,160.0
3626,G#5,363.5,0.5,89,160.0
3627,F5,363.5,1.0,89,160.0
3628,G#5,363.5,0.5,89,160.0
3629,C2,363.517,1/40,95,160.0
3630,G#5,364.0,0.5,89,160.0
3631,C2,364.0,1.0,102,160.0
3632,G#5,364.0,0.5,89,160.0
3633,C2,364.017,1/40,96,160.0
3634,F#2,364.017,1/40,96,160.0
3635,F5,364.5,1.0,89,160.0
3636,F5,364.5,1.0,89,160.0
3637,C5,365.0,0.5,89,160.0
3638,E-2,365.0,1.0,89,160.0
3639,C5,365.0,2.0,89,160.0
3640,G4,365.0,2.0,89,160.0
3641,E-2,365.017,1/40,90,160.0
3642,F#2,365.017,1/40,90,160.0
3643,D2,365.017,1/40,90,160.0
3644,F5,365.5,1.5,89,160.0
3645,C5,365.5,1.0,89,160.0
3646,C2,365.5,0.5,102,160.0
3647,F5,365.5,1.5,89,160.0
3648,C2,365.517,1/40,81,160.0
3649,F#2,365.517,1/40,81,160.0
3650,C2,366.0,0.5,102,160.0
3651,C2,366.017,1/40,96,160.0
3652,B-2,366.017,1/40,96,160.0
3653,E-5,366.5,1.0,89,160.0
3654,G2,366.5,0.5,102,160.0
3655,C2,366.517,1/40,95,160.0
3656,E-5,367.0,1.0,89,160.0
3657,C3,367.0,0.5,102,160.0
3658,E-2,367.0,1.0,89,160.0
3659,E-5,367.0,1.0,89,160.0
3660,C5,367.0,1.0,89,160.0
3661,G4,367.0,1.0,89,160.0
3662,E-2,367.017,1/40,88,160.0
3663,D2,367.017,1/40,88,160.0
3664,F#2,367.017,1/40,88,160.0
3665,F5,367.5,0.5,89,160.0
3666,G2,367.5,0.5,102,160.0
3667,C2,367.517,1/40,95,160.0
3668,F5,368.0,0.5,89,160.0
3669,F5,368.0,0.5,89,160.0
3670,F5,368.0,0.5,89,160.0
3671,C2,368.017,1/40,96,160.0
3672,F#2,368.017,1/40,96,160.0
3673,F5,368.5,0.5,89,160.0
3674,C6,368.5,0.5,89,160.0
3675,F2,368.5,0.5,102,160.0
3676,F5,368.5,0.5,89,160.0
3677,F5,369.0,1.0,89,160.0
3678,B-5,369.0,0.5,89,160.0
3679,E-2,369.0,1.0,89,160.0
3680,F5,369.0,1.0,89,160.0
3681,F4,369.0,2.0,89,160.0
3682,A4,369.0,2.0,89,160.0
3683,D2,369.017,1/40,90,160.0
3684,E-2,369.017,1/40,90,160.0
3685,F#2,369.017,1/40,90,160.0
3686,B-5,369.5,0.5,89,160.0
3687,F2,369.5,0.5,102,160.0
3688,C2,369.517,1/40,81,160.0
3689,F#2,369.517,1/40,81,160.0
3690,F5,370.0,1.0,89,160.0
3691,G#5,370.0,0.5,89,160.0
3692,F2,370.0,1.0,102,160.0
3693,F5,370.0,1.0,89,160.0
3694,C2,370.017,1/40,96,160.0
3695,B-2,370.017,1/40,96,160.0
3696,F5,370.5,0.5,89,160.0
3697,C2,370.517,1/40,95,160.0
3698,E-5,371.0,0.5,89,160.0
3699,G#5,371.0,0.5,89,160.0
3700,F3,371.0,1.0,102,160.0
3701,E-2,371.0,1.0,89,160.0
3702,E-5,371.0,0.5,89,160.0
3703,F4,371.0,1.0,89,160.0
3704,A4,371.0,1.0,89,160.0
3705,E-2,371.017,1/40,88,160.0
3706,D2,371.017,1/40,88,160.0
3707,F#2,371.017,1/40,88,160.0
3708,F5,371.5,0.5,89,160.0
3709,G#5,371.5,0.5,89,160.0
3710,F5,371.5,0.5,89,160.0
3711,C2,371.517,1/40,95,160.0
3712,F5,372.0,1.0,89,160.0
3713,F5,372.0,1.0,89,160.0
3714,C#2,372.0,1.0,102,160.0
3715,F5,372.0,1.0,89,160.0
3716,F#2,372.017,1/40,96,160.0
3717,C2,372.017,1/40,96,160.0
3718,F5,373.0,1.5,89,160.0
3719,E-2,373.0,1.0,89,160.0
3720,G#4,373.0,2.0,89,160.0
3721,F4,373.0,2.0,89,160.0
3722,E-2,373.017,1/40,90,160.0
3723,D2,373.017,1/40,90,160.0
3724,F#2,373.017,1/40,90,160.0
3725,C5,373.5,0.5,89,160.0
3726,C#2,373.5,0.5,102,160.0
3727,C5,373.5,0.5,89,160.0
3728,F#2,373.517,1/40,81,160.0
3729,C2,373.517,1/40,81,160.0
3730,C5,374.0,1.0,89,160.0
3731,C#2,374.0,0.5,102,160.0
3732,C5,374.0,1.0,89,160.0
3733,C2,374.017,1/40,96,160.0
3734,B-2,374.017,1/40,96,160.0
3735,E-5,374.5,1.0,89,160.0
3736,G#2,374.5,0.5,102,160.0
3737,C2,374.517,1/40,95,160.0
3738,E-5,375.0,1.0,89,160.0
3739,C#3,375.0,0.5,102,160.0
3740,E-2,375.0,1.0,89,160.0
3741,E-5,375.0,1.0,89,160.0
3742,G#4,375.0,1.0,89,160.0
3743,F4,375.0,1.0,89,160.0
3744,F#2,375.017,1/40,88,160.0
3745,D2,375.017,1/40,88,160.0
3746,E-2,375.017,1/40,88,160.0
3747,F5,375.5,0.5,89,160.0
3748,G#2,375.5,0.5,102,160.0
3749,C2,375.517,1/40,95,160.0
3750,F5,376.0,0.5,89,160.0
3751,F5,376.0,0.5,89,160.0
3752,F5,376.0,0.5,89,160.0
3753,C2,376.017,1/40,96,160.0
3754,F#2,376.017,1/40,96,160.0
3755,F5,376.5,0.5,89,160.0
3756,F5,376.5,1.0,89,160.0
3757,C2,376.5,0.5,102,160.0
3758,F5,376.5,0.5,89,160.0
3759,F5,377.0,0.5,89,160.0
3760,E-2,377.0,1.0,89,160.0
3761,F5,377.0,0.5,89,160.0
3762,C5,377.0,2.0,89,160.0
3763,G4,377.0,2.0,89,160.0
3764,E-2,377.017,1/40,90,160.0
3765,D2,377.017,1/40,90,160.0
3766,F#2,377.017,1/40,90,160.0
3767,F5,377.5,0.5,89,160.0
3768,F5,377.5,1.0,89,160.0
3769,C2,377.5,0.5,102,160.0
3770,F5,377.5,0.5,89,160.0
3771,C2,377.517,1/40,81,160.0
3772,F#2,377.517,1/40,81,160.0
3773,F5,378.0,1.5,89,160.0
3774,C2,378.0,0.5,102,160.0
3775,F5,378.0,1.5,89,160.0
3776,B-2,378.017,1/40,96,160.0
3777,C2,378.017,1/40,96,160.0
3778,E-5,378.5,0.5,89,160.0
3779,G2,378.5,0.5,102,160.0
3780,C2,378.517,1/40,95,160.0
3781,F5,379.0,0.5,89,160.0
3782,C3,379.0,1.0,102,160.0
3783,E-2,379.0,1.0,89,160.0
3784,C5,379.0,1.0,89,160.0
3785,G4,379.0,1.0,89,160.0
3786,E-2,379.017,1/40,88,160.0
3787,F#2,379.017,1/40,88,160.0
3788,D2,379.017,1/40,88,160.0
3789,F5,379.5,0.5,89,160.0
3790,F5,379.5,1.0,89,160.0
3791,F5,379.5,0.5,89,160.0
3792,C2,379.517,1/40,95,160.0
3793,F5,380.0,0.5,89,160.0
3794,C2,380.0,1.0,102,160.0
3795,F5,380.0,0.5,89,160.0
3796,F#2,380.017,1/40,96,160.0
3797,C2,380.017,1/40,96,160.0
3798,E-5,380.5,1.0,89,160.0
3799,E-5,380.5,1.0,89,160.0
3800,C5,381.0,0.5,89,160.0
3801,E-2,381.0,1.0,89,160.0
3802,C5,381.0,2.0,89,160.0
3803,G4,381.0,2.0,89,160.0
3804,E-2,381.017,1/40,90,160.0
3805,F#2,381.017,1/40,90,160.0
3806,D2,381.017,1/40,90,160.0
3807,E-5,381.5,0.5,89,160.0
3808,C5,381.5,1.0,89,160.0
3809,C2,381.5,0.5,102,160.0
3810,E-5,381.5,0.5,89,160.0
3811,C2,381.517,1/40,81,160.0
3812,F#2,381.517,1/40,81,160.0
3813,C5,382.0,1.0,89,160.0
3814,C2,382.0,0.5,102,160.0
3815,C5,382.0,1.0,89,160.0
3816,B-2,382.017,1/40,96,160.0
3817,C2,382.017,1/40,96,160.0
3818,E-5,382.5,1.0,89,160.0
3819,G2,382.5,0.5,102,160.0
3820,C2,382.517,1/40,95,160.0
3821,C5,383.0,1.0,89,160.0
3822,C3,383.0,0.5,102,160.0
3823,E-2,383.0,1.0,89,160.0
3824,C5,383.0,1.0,89,160.0
3825,C5,383.0,1.0,89,160.0
3826,G4,383.0,1.0,89,160.0
3827,E-2,383.017,1/40,88,160.0
3828,D2,383.017,1/40,88,160.0
3829,F#2,383.017,1/40,88,160.0
3830,F5,383.5,0.5,89,160.0
3831,G2,383.5,0.5,102,160.0
3832,C2,383.517,1/40,95,160.0
3833,F5,384.0,1.0,89,160.0
3834,F5,384.0,0.5,89,160.0
3835,F5,384.0,1.0,89,160.0
3836,F#2,384.017,1/40,96,160.0
3837,C2,384.017,1/40,96,160.0
3838,F5,384.5,0.5,89,160.0
3839,F2,384.5,0.5,102,160.0
3840,F5,385.0,0.5,89,160.0
3841,F5,385.0,0.5,89,160.0
3842,E-2,385.0,1.0,89,160.0
3843,F5,385.0,0.5,89,160.0
3844,F4,385.0,2.0,89,160.0
3845,A4,385.0,2.0,89,160.0
3846,E-2,385.017,1/40,90,160.0
3847,D2,385.017,1/40,90,160.0
3848,F#2,385.017,1/40,90,160.0
3849,E-5,385.5,0.5,89,160.0
3850,F5,385.5,1.5,89,160.0
3851,F2,385.5,0.5,102,160.0
3852,E-5,385.5,0.5,89,160.0
3853,F#2,385.517,1/40,81,160.0
3854,C2,385.517,1/40,81,160.0
3855,F5,386.0,1.0,89,160.0
3856,F2,386.0,1.0,102,160.0
3857,F5,386.0,1.0,89,160.0
3858,B-2,386.017,1/40,96,160.0
3859,C2,386.017,1/40,96,160.0
3860,C2,386.517,1/40,95,160.0
3861,E-5,387.0,0.5,89,160.0
3862,F5,387.0,0.5,89,160.0
3863,F3,387.0,1.0,102,160.0
3864,E-2,387.0,1.0,89,160.0
3865,E-5,387.0,0.5,89,160.0
3866,F4,387.0,1.0,89,160.0
3867,A4,387.0,1.0,89,160.0
3868,E-2,387.017,1/40,88,160.0
3869,D2,387.017,1/40,88,160.0
3870,F#2,387.017,1/40,88,160.0
3871,F5,387.5,0.5,89,160.0
3872,F5,387.5,0.5,89,160.0
3873,F5,387.5,0.5,89,160.0
3874,C2,387.517,1/40,95,160.0
3875,F5,388.0,1.0,89,160.0
3876,E-5,388.0,1.0,89,160.0
3877,F2,388.0,1.0,102,160.0
3878,F5,388.0,1.0,89,160.0
3879,F#2,388.017,1/40,96,160.0
3880,C2,388.017,1/40,96,160.0
3881,E-5,389.0,0.5,89,160.0
3882,E-2,389.0,1.0,89,160.0
3883,E-2,389.017,1/40,90,160.0
3884,D2,389.017,1/40,90,160.0
3885,F#2,389.017,1/40,90,160.0
3886,C5,389.5,0.5,89,160.0
3887,C5,389.5,1.0,89,160.0
3888,F2,389.5,0.5,102,160.0
3889,C5,389.5,0.5,89,160.0
3890,C2,389.517,1/40,81,160.0
3891,F#2,389.517,1/40,81,160.0
3892,C5,390.0,1.0,89,160.0
3893,C5,390.0,1.0,89,160.0
3894,B-2,390.017,1/40,96,160.0
3895,C2,390.017,1/40,96,160.0
3896,C5,390.5,1.0,89,160.0
3897,F2,390.5,0.5,102,160.0
3898,C2,390.517,1/40,95,160.0
3899,E-5,391.0,1.0,89,160.0
3900,E-2,391.0,1.0,89,160.0
3901,E-5,391.0,1.0,89,160.0
3902,E-2,391.017,1/40,88,160.0
3903,D2,391.017,1/40,88,160.0
3904,F#2,391.017,1/40,88,160.0
3905,F5,391.5,1.0,89,160.0
3906,F2,391.5,0.5,102,160.0
3907,C2,391.517,1/40,95,160.0
3908,F5,392.0,0.5,89,160.0
3909,C#2,392.0,1.0,102,160.0
3910,F5,392.0,0.5,89,160.0
3911,C2,392.017,1/40,104,160.0
3912,F#2,392.017,1/40,104,160.0
3913,F5,392.5,0.5,89,160.0
3914,F5,392.5,0.5,89,160.0
3915,F5,392.5,0.5,89,160.0
3916,F5,393.0,0.5,89,160.0
3917,E-5,393.0,0.5,89,160.0
3918,E-2,393.0,1.0,89,160.0
3919,F5,393.0,0.5,89,160.0
3920,G#4,393.0,2.0,89,160.0
3921,F4,393.0,2.0,89,160.0
3922,D2,393.017,1/40,88,160.0
3923,F5,393.5,0.5,89,160.0
3924,F5,393.5,1.0,89,160.0
3925,C#2,393.5,0.5,102,160.0
3926,F5,393.5,0.5,89,160.0
3927,C2,393.517,1/40,95,160.0
3928,F5,394.0,1.5,89,160.0
3929,C#2,394.0,0.5,102,160.0
3930,F5,394.0,1.5,89,160.0
3931,B-2,394.017,1/40,112,160.0
3932,E-5,394.5,0.5,89,160.0
3933,G#2,394.5,0.5,102,160.0
3934,C2,394.517,1/40,95,160.0
3935,F5,395.0,0.5,89,160.0
3936,C#3,395.0,0.5,102,160.0
3937,E-2,395.0,1.0,89,160.0
3938,G#4,395.0,1.0,89,160.0
3939,F4,395.0,1.0,89,160.0
3940,F#2,395.017,1/40,96,160.0
3941,D2,395.017,1/40,96,160.0
3942,F5,395.5,0.5,89,160.0
3943,F5,395.5,1.0,89,160.0
3944,G#2,395.5,0.5,102,160.0
3945,F5,395.5,0.5,89,160.0
3946,G4,395.5,1.5,89,160.0
3947,E4,395.5,1.5,89,160.0
3948,F#2,395.517,1/40,85,160.0
3949,C2,395.517,1/40,85,160.0
3950,F5,396.0,0.5,89,160.0
3951,F5,396.0,0.5,89,160.0
3952,C2,396.017,1/40,96,160.0
3953,F#2,396.017,1/40,96,160.0
3954,F5,396.5,1.0,89,160.0
3955,C2,396.5,0.5,102,160.0
3956,F5,396.5,1.0,89,160.0
3957,C5,397.0,0.5,89,160.0
3958,E-2,397.0,1.0,89,160.0
3959,F4,397.0,1.5,89,160.0
3960,D4,397.0,1.5,89,160.0
3961,C5,397.0,2.0,89,160.0
3962,G4,397.0,2.0,89,160.0
3963,F#2,397.017,1/40,98,160.0
3964,D2,397.017,1/40,98,160.0
3965,F5,397.5,1.5,89,160.0
3966,C5,397.5,1.0,89,160.0
3967,C2,397.5,0.5,102,160.0
3968,F5,397.5,1.5,89,160.0
3969,F#2,397.517,1/40,81,160.0
3970,C2,397.517,1/40,81,160.0
3971,C2,398.0,0.5,102,160.0
3972,B-2,398.017,1/40,112,160.0
3973,G2,398.5,0.5,102,160.0
3974,E-5,398.5,1.0,89,160.0
3975,G#4,398.5,1.0,89,160.0
3976,F4,398.5,1.0,89,160.0
3977,C2,398.517,1/40,95,160.0
3978,F5,399.0,0.5,89,160.0
3979,C3,399.0,1.0,102,160.0
3980,E-2,399.0,1.0,89,160.0
3981,F5,399.0,0.5,89,160.0
3982,C5,399.0,1.0,89,160.0
3983,G4,399.0,1.0,89,160.0
3984,F#2,399.017,1/40,96,160.0
3985,D2,399.017,1/40,96,160.0
3986,E-5,399.5,0.5,89,160.0
3987,F5,399.5,0.5,89,160.0
3988,E-5,399.5,0.5,89,160.0
3989,C2,399.517,1/40,95,160.0
3990,F5,400.0,1.0,89,160.0
3991,F5,400.0,0.5,89,160.0
3992,C2,400.0,1.0,102,160.0
3993,F5,400.0,1.0,89,160.0
3994,C2,400.017,1/40,96,160.0
3995,F#2,400.017,1/40,96,160.0
3996,F5,400.5,0.5,89,160.0
3997,F5,401.0,1.0,89,160.0
3998,F5,401.0,0.5,89,160.0
3999,E-2,401.0,1.0,89,160.0
4000,F5,401.0,1.0,89,160.0
4001,C5,401.0,2.0,89,160.0
4002,G4,401.0,2.0,89,160.0
4003,F#2,401.017,1/40,100,160.0
4004,D2,401.017,1/40,100,160.0
4005,F5,401.5,1.5,89,160.0
4006,C2,401.5,0.5,102,160.0
4007,F#2,401.517,1/40,82,160.0
4008,C2,401.517,1/40,82,160.0
4009,F5,402.0,1.0,89,160.0
4010,C2,402.0,0.5,102,160.0
4011,F5,402.0,1.0,89,160.0
4012,B-2,402.017,1/40,112,160.0
4013,G2,402.5,0.5,102,160.0
4014,C2,402.517,1/40,95,160.0
4015,E-5,403.0,0.5,89,160.0
4016,F5,403.0,0.5,89,160.0
4017,C3,403.0,0.5,102,160.0
4018,E-2,403.0,1.0,89,160.0
4019,E-5,403.0,0.5,89,160.0
4020,C5,403.0,1.0,89,160.0
4021,G4,403.0,1.0,89,160.0
4022,D2,403.017,1/40,96,160.0
4023,F#2,403.017,1/40,96,160.0
4024,F5,403.5,0.5,89,160.0
4025,F5,403.5,0.5,89,160.0
4026,G2,403.5,0.5,102,160.0
4027,F5,403.5,0.5,89,160.0
4028,C2,403.517,1/40,95,160.0
4029,F5,404.0,1.0,89,160.0
4030,F5,404.0,1.0,89,160.0
4031,F5,404.0,1.0,89,160.0
4032,F#2,404.017,1/40,96,160.0
4033,C2,404.017,1/40,96,160.0
4034,F2,404.5,0.5,102,160.0
4035,F5,405.0,1.5,89,160.0
4036,E-2,405.0,1.0,89,160.0
4037,F4,405.0,2.0,89,160.0
4038,A4,405.0,2.0,89,160.0
4039,D2,405.017,1/40,100,160.0
4040,F#2,405.017,1/40,100,160.0
4041,C5,405.5,0.5,89,160.0
4042,F2,405.5,0.5,102,160.0
4043,C5,405.5,0.5,89,160.0
4044,F#2,405.517,1/40,82,160.0
4045,C2,405.517,1/40,82,160.0
4046,C5,406.0,1.0,89,160.0
4047,F2,406.0,1.0,102,160.0
4048,C5,406.0,1.0,89,160.0
4049,B-2,406.017,1/40,112,160.0
4050,F5,406.5,0.5,89,160.0
4051,C2,406.517,1/40,95,160.0
4052,E-5,407.0,1.0,89,160.0
4053,E-5,407.0,0.5,89,160.0
4054,F3,407.0,1.0,102,160.0
4055,E-2,407.0,1.0,89,160.0
4056,E-5,407.0,1.0,89,160.0
4057,F4,407.0,1.0,89,160.0
4058,A4,407.0,1.0,89,160.0
4059,D2,407.017,1/40,96,160.0
4060,F#2,407.017,1/40,96,160.0
4061,F5,407.5,1.0,89,160.0
4062,C2,407.517,1/40,95,160.0
4063,F5,408.0,0.5,89,160.0
4064,C#2,408.0,1.0,102,160.0
4065,F5,408.0,0.5,89,160.0
4066,F#2,408.017,1/40,96,160.0
4067,C2,408.017,1/40,96,160.0
4068,F5,408.5,0.5,89,160.0
4069,F5,408.5,1.0,89,160.0
4070,F5,408.5,0.5,89,160.0
4071,F5,409.0,0.5,89,160.0
4072,E-2,409.0,1.0,89,160.0
4073,F5,409.0,0.5,89,160.0
4074,G#4,409.0,2.0,89,160.0
4075,F4,409.0,2.0,89,160.0
4076,F#2,409.017,1/40,100,160.0
4077,D2,409.017,1/40,100,160.0
4078,F5,409.5,0.5,89,160.0
4079,F5,409.5,1.0,89,160.0
4080,C#2,409.5,0.5,102,160.0
4081,F5,409.5,0.5,89,160.0
4082,F#2,409.517,1/40,82,160.0
4083,C2,409.517,1/40,82,160.0
4084,F5,410.0,1.5,89,160.0
4085,C#2,410.0,0.5,102,160.0
4086,F5,410.0,1.5,89,160.0
4087,B-2,410.017,1/40,112,160.0
4088,E-5,410.5,0.5,89,160.0
4089,G#2,410.5,0.5,102,160.0
4090,C2,410.517,1/40,95,160.0
4091,F5,411.0,0.5,89,160.0
4092,C#3,411.0,0.5,102,160.0
4093,E-2,411.0,1.0,89,160.0
4094,G#4,411.0,1.0,89,160.0
4095,F4,411.0,1.0,89,160.0
4096,D2,411.017,1/40,96,160.0
4097,F#2,411.017,1/40,96,160.0
4098,F5,411.5,0.5,89,160.0
4099,F5,411.5,1.0,89,160.0
4100,G#2,411.5,0.5,102,160.0
4101,F5,411.5,0.5,89,160.0
4102,C2,411.517,1/40,95,160.0
4103,F5,412.0,0.5,89,160.0
4104,F5,412.0,0.5,89,160.0
4105,C2,412.017,1/40,96,160.0
4106,F#2,412.017,1/40,96,160.0
4107,E-5,412.5,1.0,89,160.0
4108,C2,412.5,0.5,102,160.0
4109,E-5,412.5,1.0,89,160.0
4110,C5,413.0,0.5,89,160.0
4111,E-2,413.0,1.0,89,160.0
4112,C5,413.0,2.0,89,160.0
4113,G4,413.0,2.0,89,160.0
4114,F#2,413.017,1/40,100,160.0
4115,D2,413.017,1/40,100,160.0
4116,E-5,413.5,0.5,89,160.0
4117,C5,413.5,1.0,89,160.0
4118,C2,413.5,0.5,102,160.0
4119,E-5,413.5,0.5,89,160.0
4120,F#2,413.517,1/40,82,160.0
4121,C2,413.517,1/40,82,160.0
4122,C5,414.0,1.0,89,160.0
4123,C2,414.0,0.5,102,160.0
4124,C5,414.0,1.0,89,160.0
4125,B-2,414.017,1/40,112,160.0
4126,E-5,414.5,1.0,89,160.0
4127,G2,414.5,0.5,102,160.0
4128,C2,414.517,1/40,95,160.0
4129,C5,415.0,1.0,89,160.0
4130,C3,415.0,1.0,102,160.0
4131,E-2,415.0,1.0,89,160.0
4132,C5,415.0,1.0,89,160.0
4133,C5,415.0,1.0,89,160.0
4134,G4,415.0,1.0,89,160.0
4135,D2,415.017,1/40,96,160.0
4136,F#2,415.017,1/40,96,160.0
4137,F5,415.5,0.5,89,160.0
4138,C2,415.517,1/40,95,160.0
4139,F5,416.0,0.5,89,160.0
4140,F5,416.0,0.5,89,160.0
4141,C2,416.0,1.0,102,160.0
4142,F5,416.0,0.5,89,160.0
4143,C2,416.017,1/40,96,160.0
4144,F#2,416.017,1/40,96,160.0
4145,E-5,416.5,0.5,89,160.0
4146,F5,416.5,0.5,89,160.0
4147,E-5,416.5,0.5,89,160.0
4148,F5,417.0,1.0,89,160.0
4149,F5,417.0,0.5,89,160.0
4150,E-2,417.0,1.0,89,160.0
4151,F5,417.0,1.0,89,160.0
4152,C5,417.0,2.0,89,160.0
4153,G4,417.0,2.0,89,160.0
4154,F#2,417.017,1/40,100,160.0
4155,D2,417.017,1/40,100,160.0
4156,F5,417.5,1.5,89,160.0
4157,C2,417.5,0.5,102,160.0
4158,C2,417.517,1/40,82,160.0
4159,F#2,417.517,1/40,82,160.0
4160,F5,418.0,1.0,89,160.0
4161,C2,418.0,0.5,102,160.0
4162,F5,418.0,1.0,89,160.0
4163,B-2,418.017,1/40,112,160.0
4164,G2,418.5,0.5,102,160.0
4165,C2,418.517,1/40,95,160.0
4166,E-5,419.0,0.5,89,160.0
4167,F5,419.0,0.5,89,160.0
4168,C3,419.0,0.5,102,160.0
4169,E-2,419.0,1.0,89,160.0
4170,E-5,419.0,0.5,89,160.0
4171,C5,419.0,1.0,89,160.0
4172,G4,419.0,1.0,89,160.0
4173,F#2,419.017,1/40,96,160.0
4174,D2,419.017,1/40,96,160.0
4175,F5,419.5,0.5,89,160.0
4176,F5,419.5,0.5,89,160.0
4177,G2,419.5,0.5,102,160.0
4178,F5,419.5,0.5,89,160.0
4179,C2,419.517,1/40,95,160.0
4180,F5,420.0,1.0,89,160.0
4181,E-5,420.0,1.0,89,160.0
4182,F5,420.0,1.0,89,160.0
4183,F#2,420.017,1/40,96,160.0
4184,C2,420.017,1/40,96,160.0
4185,F2,420.5,0.5,102,160.0
4186,E-5,421.0,0.5,89,160.0
4187,E-2,421.0,1.0,89,160.0
4188,F4,421.0,2.0,89,160.0
4189,A4,421.0,2.0,89,160.0
4190,F#2,421.017,1/40,100,160.0
4191,D2,421.017,1/40,100,160.0
4192,C5,421.5,0.5,89,160.0
4193,C5,421.5,1.0,89,160.0
4194,F2,421.5,0.5,102,160.0
4195,C5,421.5,0.5,89,160.0
4196,F#2,421.517,1/40,81,160.0
4197,C2,421.517,1/40,81,160.0
4198,C5,422.0,1.0,89,160.0
4199,F2,422.0,1.0,102,160.0
4200,C5,422.0,1.0,89,160.0
4201,B-2,422.017,1/40,112,160.0
4202,C5,422.5,1.0,89,160.0
4203,C2,422.517,1/40,95,160.0
4204,E-5,423.0,1.0,89,160.0
4205,F3,423.0,1.0,102,160.0
4206,E-2,423.0,1.0,89,160.0
4207,E-5,423.0,1.0,89,160.0
4208,F4,423.0,1.0,89,160.0
4209,A4,423.0,1.0,89,160.0
4210,F#2,423.017,1/40,96,160.0
4211,D2,423.017,1/40,96,160.0
4212,F5,423.5,0.5,89,160.0
4213,C2,423.517,1/40,95,160.0
4214,F5,424.0,0.5,89,160.0
4215,E-5,424.0,0.5,89,160.0
4216,C#2,424.0,1.0,102,160.0
4217,F5,424.0,0.5,89,160.0
4218,C2,424.017,1/40,96,160.0
4219,F#2,424.017,1/40,96,160.0
4220,F5,424.5,0.5,89,160.0
4221,F5,424.5,1.0,89,160.0
4222,F5,424.5,0.5,89,160.0
4223,C6,425.0,0.5,89,160.0
4224,E-2,425.0,1.0,89,160.0
4225,C6,425.0,0.5,89,160.0
4226,F5,425.0,2.0,89,160.0
4227,C#5,425.0,2.0,89,160.0
4228,D2,425.017,1/40,98,160.0
4229,F#2,425.017,1/40,98,160.0
4230,B-5,425.5,0.5,89,160.0
4231,F5,425.5,1.0,89,160.0
4232,C#2,425.5,0.5,102,160.0
4233,B-5,425.5,0.5,89,160.0
4234,F#2,425.517,1/40,81,160.0
4235,C2,425.517,1/40,81,160.0
4236,B-5,426.0,0.5,89,160.0
4237,C#2,426.0,0.5,102,160.0
4238,B-5,426.0,0.5,89,160.0
4239,B-2,426.017,1/40,112,160.0
4240,G#5,426.5,0.5,89,160.0
4241,E-5,426.5,0.5,89,160.0
4242,G#2,426.5,0.5,102,160.0
4243,G#5,426.5,0.5,89,160.0
4244,C2,426.517,1/40,95,160.0
4245,F5,427.0,0.5,89,160.0
4246,F5,427.0,0.5,89,160.0
4247,C#3,427.0,0.5,102,160.0
4248,E-2,427.0,1.0,89,160.0
4249,F5,427.0,0.5,89,160.0
4250,C#5,427.0,1.0,89,160.0
4251,G#4,427.0,1.0,89,160.0
4252,D2,427.017,1/40,96,160.0
4253,F#2,427.017,1/40,96,160.0
4254,G#5,427.5,0.5,89,160.0
4255,F5,427.5,1.0,89,160.0
4256,G#2,427.5,0.5,102,160.0
4257,G#5,427.5,0.5,89,160.0
4258,C2,427.517,1/40,95,160.0
4259,G#5,428.0,0.5,89,160.0
4260,G#5,428.0,0.5,89,160.0
4261,F#2,428.017,1/40,96,160.0
4262,C2,428.017,1/40,96,160.0
4263,F5,428.5,1.0,89,160.0
4264,C2,428.5,0.5,102,160.0
4265,F5,428.5,1.0,89,160.0
4266,C5,429.0,0.5,89,160.0
4267,E-2,429.0,1.0,89,160.0
4268,C5,429.0,2.0,89,160.0
4269,G4,429.0,2.0,89,160.0
4270,D2,429.017,1/40,100,160.0
4271,F#2,429.017,1/40,100,160.0
4272,F5,429.5,1.5,89,160.0
4273,C5,429.5,1.0,89,160.0
4274,C2,429.5,0.5,102,160.0
4275,F5,429.5,1.5,89,160.0
4276,C2,429.517,1/40,82,160.0
4277,F#2,429.517,1/40,82,160.0
4278,C2,430.0,0.5,102,160.0
4279,B-2,430.017,1/40,112,160.0
4280,E-5,430.5,1.0,89,160.0
4281,G2,430.5,0.5,102,160.0
4282,C2,430.517,1/40,95,160.0
4283,E-5,431.0,1.0,89,160.0
4284,C3,431.0,1.0,102,160.0
4285,E-2,431.0,1.0,89,160.0
4286,E-5,431.0,1.0,89,160.0
4287,C5,431.0,1.0,89,160.0
4288,G4,431.0,1.0,89,160.0
4289,D2,431.017,1/40,96,160.0
4290,F#2,431.017,1/40,96,160.0
4291,F5,431.5,0.5,89,160.0
4292,C2,431.517,1/40,95,160.0
4293,F5,432.0,0.5,89,160.0
4294,F5,432.0,0.5,89,160.0
4295,C2,432.0,1.0,102,160.0
4296,F5,432.0,0.5,89,160.0
4297,F#2,432.017,1/40,96,160.0
4298,C2,432.017,1/40,96,160.0
4299,F5,432.5,0.5,89,160.0
4300,C6,432.5,0.5,89,160.0
4301,F5,432.5,0.5,89,160.0
4302,F5,433.0,1.0,89,160.0
4303,B-5,433.0,0.5,89,160.0
4304,E-2,433.0,1.0,89,160.0
4305,F5,433.0,1.0,89,160.0
4306,C5,433.0,2.0,89,160.0
4307,G4,433.0,2.0,89,160.0
4308,F#2,433.017,1/40,100,160.0
4309,D2,433.017,1/40,100,160.0
4310,B-5,433.5,0.5,89,160.0
4311,C2,433.5,0.5,102,160.0
4312,F#2,433.517,1/40,82,160.0
4313,C2,433.517,1/40,82,160.0
4314,F5,434.0,1.0,89,160.0
4315,G#5,434.0,0.5,89,160.0
4316,C2,434.0,0.5,102,160.0
4317,F5,434.0,1.0,89,160.0
4318,B-2,434.017,1/40,112,160.0
4319,F5,434.5,0.5,89,160.0
4320,G2,434.5,0.5,102,160.0
4321,C2,434.517,1/40,95,160.0
4322,E-5,435.0,0.5,89,160.0
4323,G#5,435.0,0.5,89,160.0
4324,C3,435.0,0.5,102,160.0
4325,E-2,435.0,1.0,89,160.0
4326,E-5,435.0,0.5,89,160.0
4327,C5,435.0,1.0,89,160.0
4328,G4,435.0,1.0,89,160.0
4329,F#2,435.017,1/40,96,160.0
4330,D2,435.017,1/40,96,160.0
4331,F5,435.5,0.5,89,160.0
4332,G#5,435.5,0.5,89,160.0
4333,G2,435.5,0.5,102,160.0
4334,F5,435.5,0.5,89,160.0
4335,C2,435.517,1/40,95,160.0
4336,F5,436.0,1.0,89,160.0
4337,F5,436.0,1.0,89,160.0
4338,F5,436.0,1.0,89,160.0
4339,C2,436.017,1/40,96,160.0
4340,F#2,436.017,1/40,96,160.0
4341,F2,436.5,0.5,102,160.0
4342,F5,437.0,1.5,89,160.0
4343,E-2,437.0,1.0,89,160.0
4344,F4,437.0,2.0,89,160.0
4345,A4,437.0,2.0,89,160.0
4346,F#2,437.017,1/40,100,160.0
4347,D2,437.017,1/40,100,160.0
4348,C5,437.5,0.5,89,160.0
4349,F2,437.5,0.5,102,160.0
4350,C5,437.5,0.5,89,160.0
4351,F#2,437.517,1/40,82,160.0
4352,C2,437.517,1/40,82,160.0
4353,C5,438.0,1.0,89,160.0
4354,F2,438.0,1.0,102,160.0
4355,C5,438.0,1.0,89,160.0
4356,B-2,438.017,1/40,112,160.0
4357,E-5,438.5,1.0,89,160.0
4358,C2,438.517,1/40,95,160.0
4359,E-5,439.0,1.0,89,160.0
4360,F3,439.0,1.0,102,160.0
4361,E-2,439.0,1.0,89,160.0
4362,E-5,439.0,1.0,89,160.0
4363,F4,439.0,1.0,89,160.0
4364,A4,439.0,1.0,89,160.0
4365,D2,439.017,1/40,96,160.0
4366,F#2,439.017,1/40,96,160.0
4367,F5,439.5,0.5,89,160.0
4368,C2,439.517,1/40,95,160.0
4369,F5,440.0,0.5,89,160.0
4370,F5,440.0,0.5,89,160.0
4371,C#2,440.0,1.0,102,160.0
4372,F5,440.0,0.5,89,160.0
4373,C2,440.017,1/40,96,160.0
4374,F#2,440.017,1/40,96,160.0
4375,F5,440.5,0.5,89,160.0
4376,F5,440.5,1.0,89,160.0
4377,F5,440.5,0.5,89,160.0
4378,F5,441.0,0.5,89,160.0
4379,E-2,441.0,1.0,89,160.0
4380,F5,441.0,0.5,89,160.0
4381,G#4,441.0,2.0,89,160.0
4382,F4,441.0,2.0,89,160.0
4383,D2,441.017,1/40,100,160.0
4384,F#2,441.017,1/40,100,160.0
4385,F5,441.5,0.5,89,160.0
4386,F5,441.5,1.0,89,160.0
4387,C#2,441.5,0.5,102,160.0
4388,F5,441.5,0.5,89,160.0
4389,F#2,441.517,1/40,82,160.0
4390,C2,441.517,1/40,82,160.0
4391,F5,442.0,1.5,89,160.0
4392,C#2,442.0,0.5,102,160.0
4393,F5,442.0,1.5,89,160.0
4394,B-2,442.017,1/40,112,160.0
4395,E-5,442.5,0.5,89,160.0
4396,G#2,442.5,0.5,102,160.0
4397,C2,442.517,1/40,95,160.0
4398,F5,443.0,0.5,89,160.0
4399,C#3,443.0,0.5,102,160.0
4400,E-2,443.0,1.0,89,160.0
4401,G#4,443.0,1.0,89,160.0
4402,F4,443.0,1.0,89,160.0
4403,D2,443.017,1/40,96,160.0
4404,F#2,443.017,1/40,96,160.0
4405,F5,443.5,0.5,89,160.0
4406,F5,443.5,1.0,89,160.0
4407,G#2,443.5,0.5,102,160.0
4408,F5,443.5,0.5,89,160.0
4409,C2,443.517,1/40,95,160.0
4410,F5,444.0,0.5,89,160.0
4411,F5,444.0,0.5,89,160.0
4412,F#2,444.017,1/40,96,160.0
4413,C2,444.017,1/40,96,160.0
4414,E-5,444.5,1.0,89,160.0
4415,C2,444.5,0.5,102,160.0
4416,E-5,444.5,1.0,89,160.0
4417,C5,445.0,0.5,89,160.0
4418,E-2,445.0,1.0,89,160.0
4419,C5,445.0,2.0,89,160.0
4420,G4,445.0,2.0,89,160.0
4421,F#2,445.017,1/40,100,160.0
4422,D2,445.017,1/40,100,160.0
4423,E-5,445.5,0.5,89,160.0
4424,C5,445.5,1.0,89,160.0
4425,C2,445.5,0.5,102,160.0
4426,E-5,445.5,0.5,89,160.0
4427,F#2,445.517,1/40,82,160.0
4428,C2,445.517,1/40,82,160.0
4429,C5,446.0,1.0,89,160.0
4430,C2,446.0,0.5,102,160.0
4431,C5,446.0,1.0,89,160.0
4432,B-2,446.017,1/40,112,160.0
4433,E-5,446.5,1.0,89,160.0
4434,G2,446.5,0.5,102,160.0
4435,C2,446.517,1/40,95,160.0
4436,C5,447.0,1.0,89,160.0
4437,C3,447.0,1.0,102,160.0
4438,E-2,447.0,1.0,89,160.0
4439,C5,447.0,1.0,89,160.0
4440,C5,447.0,1.0,89,160.0
4441,G4,447.0,1.0,89,160.0
4442,D2,447.017,1/40,96,160.0
4443,F#2,447.017,1/40,96,160.0
4444,F5,447.5,0.5,89,160.0
4445,C2,447.517,1/40,95,160.0
4446,F5,448.0,1.0,89,160.0
4447,F5,448.0,0.5,89,160.0
4448,C2,448.0,1.0,102,160.0
4449,F5,448.0,1.0,89,160.0
4450,C2,448.017,1/40,96,160.0
4451,F#2,448.017,1/40,96,160.0
4452,F5,448.5,0.5,89,160.0
4453,F5,449.0,0.5,89,160.0
4454,F5,449.0,0.5,89,160.0
4455,E-2,449.0,1.0,89,160.0
4456,F5,449.0,0.5,89,160.0
4457,C5,449.0,2.0,89,160.0
4458,G4,449.0,2.0,89,160.0
4459,F#2,449.017,1/40,100,160.0
4460,D2,449.017,1/40,100,160.0
4461,E-5,449.5,0.5,89,160.0
4462,F5,449.5,1.5,89,160.0
4463,C2,449.5,0.5,102,160.0
4464,E-5,449.5,0.5,89,160.0
4465,F#2,449.517,1/40,81,160.0
4466,C2,449.517,1/40,81,160.0
4467,F5,450.0,1.0,89,160.0
4468,C2,450.0,0.5,102,160.0
4469,F5,450.0,1.0,89,160.0
4470,B-2,450.017,1/40,112,160.0
4471,G2,450.5,0.5,102,160.0
4472,C2,450.517,1/40,95,160.0
4473,E-5,451.0,0.5,89,160.0
4474,F5,451.0,0.5,89,160.0
4475,C3,451.0,0.5,102,160.0
4476,E-2,451.0,1.0,89,160.0
4477,E-5,451.0,0.5,89,160.0
4478,C5,451.0,1.0,89,160.0
4479,G4,451.0,1.0,89,160.0
4480,D2,451.017,1/40,96,160.0
4481,F#2,451.017,1/40,96,160.0
4482,F5,451.5,0.5,89,160.0
4483,F5,451.5,0.5,89,160.0
4484,G2,451.5,0.5,102,160.0
4485,F5,451.5,0.5,89,160.0
4486,C2,451.517,1/40,95,160.0
4487,F5,452.0,1.0,89,160.0
4488,E-5,452.0,1.0,89,160.0
4489,F5,452.0,1.0,89,160.0
4490,C2,452.017,1/40,96,160.0
4491,F#2,452.017,1/40,96,160.0
4492,F2,452.5,0.5,102,160.0
4493,E-5,453.0,0.5,89,160.0
4494,E-2,453.0,1.0,89,160.0
4495,F4,453.0,2.0,89,160.0
4496,A4,453.0,2.0,89,160.0
4497,F#2,453.017,1/40,100,160.0
4498,D2,453.017,1/40,100,160.0
4499,C5,453.5,1.0,89,160.0
4500,F2,453.5,0.5,102,160.0
4501,F#2,453.517,1/40,81,160.0
4502,C2,453.517,1/40,81,160.0
4503,F2,454.0,1.0,102,160.0
4504,B-2,454.017,1/40,112,160.0
4505,C5,454.5,1.0,89,160.0
4506,C2,454.517,1/40,95,160.0
4507,F3,455.0,1.0,102,160.0
4508,E-2,455.0,1.0,89,160.0
4509,F4,455.0,1.0,89,160.0
4510,A4,455.0,1.0,89,160.0
4511,D2,455.017,1/40,96,160.0
4512,F#2,455.017,1/40,96,160.0
4513,F5,455.5,1.0,89,160.0
4514,C2,455.517,1/40,95,160.0
4515,C4,456.0,0.5,89,160.0
4516,F2,456.0,0.5,102,160.0
4517,E-2,456.0,0.5,89,160.0
4518,F#2,456.017,1/40,96,160.0
4519,C2,456.017,1/40,96,160.0
4520,F5,456.5,0.5,89,160.0
4521,C4,456.5,1.5,89,160.0
4522,E-2,456.5,0.5,89,160.0
4523,E-5,457.0,0.5,89,160.0
4524,E-2,457.0,0.5,89,160.0
4525,E-2,457.017,1/40,90,160.0
4526,F#2,457.017,1/40,90,160.0
4527,D2,457.017,1/40,90,160.0
4528,F5,457.5,1.0,89,160.0
4529,F2,457.5,0.5,102,160.0
4530,E-2,457.5,0.5,89,160.0
4531,F#2,457.517,1/40,81,160.0
4532,C2,457.517,1/40,81,160.0
4533,E-4,458.0,0.5,89,160.0
4534,B-3,458.0,0.5,89,160.0
4535,E-2,458.0,0.5,89,160.0
4536,E-4,458.0,0.5,89,160.0
4537,B-2,458.017,1/40,96,160.0
4538,C2,458.017,1/40,96,160.0
4539,F4,458.5,1.0,89,160.0
4540,E-5,458.5,0.5,89,160.0
4541,B-3,458.5,1.5,89,160.0
4542,F2,458.5,0.5,102,160.0
4543,E-2,458.5,0.5,89,160.0
4544,F4,458.5,1.0,89,160.0
4545,C2,458.517,1/40,95,160.0
4546,F5,459.0,0.5,89,160.0
4547,E-2,459.0,0.5,89,160.0
4548,E-2,459.017,1/40,88,160.0
4549,F#2,459.017,1/40,88,160.0
4550,D2,459.017,1/40,88,160.0
4551,F4,459.5,0.5,89,160.0
4552,F5,459.5,1.0,89,160.0
4553,E-2,459.5,0.5,89,160.0
4554,F4,459.5,0.5,89,160.0
4555,C2,459.517,1/40,95,160.0
4556,F4,460.0,1.0,89,160.0
4557,G#3,460.0,0.5,89,160.0
4558,F2,460.0,0.5,102,160.0
4559,E-2,460.0,0.5,89,160.0
4560,F4,460.0,1.0,89,160.0
4561,C2,460.017,1/40,96,160.0
4562,F#2,460.017,1/40,96,160.0
4563,G#3,460.5,1.5,89,160.0
4564,E-2,460.5,0.5,89,160.0
4565,E-2,461.0,0.5,89,160.0
4566,E-2,461.017,1/40,90,160.0
4567,F#2,461.017,1/40,90,160.0
4568,D2,461.017,1/40,90,160.0
4569,F2,461.5,0.5,102,160.0
4570,E-2,461.5,0.5,89,160.0
4571,C2,461.517,1/40,81,160.0
4572,F#2,461.517,1/40,81,160.0
4573,E-4,462.0,1.0,89,160.0
4574,G3,462.0,0.5,89,160.0
4575,E-2,462.0,0.5,89,160.0
4576,E-4,462.0,1.0,89,160.0
4577,C2,462.017,1/40,96,160.0
4578,B-2,462.017,1/40,96,160.0
4579,G3,462.5,1.5,89,160.0
4580,F2,462.5,0.5,102,160.0
4581,E-2,462.5,0.5,89,160.0
4582,C2,462.517,1/40,95,160.0
4583,F4,463.0,0.5,89,160.0
4584,E-2,463.0,0.5,89,160.0
4585,F4,463.0,0.5,89,160.0
4586,E-2,463.017,1/40,88,160.0
4587,D2,463.017,1/40,88,160.0
4588,F#2,463.017,1/40,88,160.0
4589,F4,463.5,0.5,89,160.0
4590,E-2,463.5,0.5,89,160.0
4591,F4,463.5,0.5,89,160.0
4592,C2,463.517,1/40,95,160.0
4593,G#3,464.0,0.5,89,160.0
4594,F2,464.0,0.5,102,160.0
4595,E-2,464.0,0.5,89,160.0
4596,C2,464.017,1/40,96,160.0
4597,F#2,464.017,1/40,96,160.0
4598,G#3,464.5,1.5,89,160.0
4599,E-2,464.5,0.5,89,160.0
4600,E-2,465.0,0.5,89,160.0
4601,D2,465.017,1/40,90,160.0
4602,E-2,465.017,1/40,90,160.0
4603,F#2,465.017,1/40,90,160.0
4604,E-4,465.5,0.5,89,160.0
4605,F2,465.5,0.5,102,160.0
4606,E-2,465.5,0.5,89,160.0
4607,C2,465.517,1/40,81,160.0
4608,F#2,465.517,1/40,81,160.0
4609,E-4,466.0,0.5,89,160.0
4610,F4,466.0,1.0,89,160.0
4611,G3,466.0,0.5,89,160.0
4612,E-2,466.0,0.5,89,160.0
4613,E-4,466.0,0.5,89,160.0
4614,C2,466.017,1/40,96,160.0
4615,B-2,466.017,1/40,96,160.0
4616,F4,466.5,1.0,89,160.0
4617,G3,466.5,1.5,89,160.0
4618,F2,466.5,0.5,102,160.0
4619,E-2,466.5,0.5,89,160.0
4620,F4,466.5,1.0,89,160.0
4621,C2,466.517,1/40,95,160.0
4622,F4,467.0,0.5,89,160.0
4623,E-2,467.0,0.5,89,160.0
4624,E-2,467.017,1/40,88,160.0
4625,D2,467.017,1/40,88,160.0
4626,F#2,467.017,1/40,88,160.0
4627,F4,467.5,0.5,89,160.0
4628,F4,467.5,1.0,89,160.0
4629,E-2,467.5,0.5,89,160.0
4630,F4,467.5,0.5,89,160.0
4631,C2,467.517,1/40,95,160.0
4632,F4,468.0,1.0,89,160.0
4633,F2,468.0,0.5,102,160.0
4634,E-2,468.0,0.5,89,160.0
4635,F4,468.0,1.0,89,160.0
4636,G#3,468.0,0.5,89,160.0
4637,C4,468.0,0.5,89,160.0
4638,F#2,468.017,1/40,96,160.0
4639,C2,468.017,1/40,96,160.0
4640,E-2,468.5,0.5,89,160.0
4641,G#3,468.5,1.5,89,160.0
4642,C4,468.5,1.5,89,160.0
4643,E-2,469.0,0.5,89,160.0
4644,E-2,469.017,1/40,90,160.0
4645,D2,469.017,1/40,90,160.0
4646,F#2,469.017,1/40,90,160.0
4647,C4,469.5,0.5,89,160.0
4648,E-4,469.5,1.0,89,160.0
4649,F2,469.5,0.5,102,160.0
4650,E-2,469.5,0.5,89,160.0
4651,C4,469.5,0.5,89,160.0
4652,F#2,469.517,1/40,81,160.0
4653,C2,469.517,1/40,81,160.0
4654,E-4,470.0,0.5,89,160.0
4655,B-3,470.0,0.5,89,160.0
4656,E-2,470.0,0.5,89,160.0
4657,E-4,470.0,0.5,89,160.0
4658,C2,470.017,1/40,96,160.0
4659,B-2,470.017,1/40,96,160.0
4660,E-4,470.5,0.5,89,160.0
4661,F4,470.5,0.5,89,160.0
4662,F2,470.5,0.5,102,160.0
4663,E-2,470.5,0.5,89,160.0
4664,E-4,470.5,0.5,89,160.0
4665,B-3,470.5,1.5,89,160.0
4666,F4,470.5,1.5,89,160.0
4667,C2,470.517,1/40,95,160.0
4668,F4,471.0,1.0,89,160.0
4669,F4,471.0,0.5,89,160.0
4670,E-2,471.0,0.5,89,160.0
4671,F4,471.0,1.0,89,160.0
4672,F#2,471.017,1/40,88,160.0
4673,D2,471.017,1/40,88,160.0
4674,E-2,471.017,1/40,88,160.0
4675,E-2,471.5,0.5,89,160.0
4676,C2,471.517,1/40,95,160.0
4677,G#4,472.0,1.0,89,160.0
4678,C4,472.0,0.5,89,160.0
4679,F2,472.0,0.5,102,160.0
4680,E-2,472.0,0.5,89,160.0
4681,G#4,472.0,1.0,89,160.0
4682,C2,472.017,1/40,96,160.0
4683,F#2,472.017,1/40,96,160.0
4684,C4,472.5,1.5,89,160.0
4685,E-2,472.5,0.5,89,160.0
4686,E-2,473.0,0.5,89,160.0
4687,E-2,473.017,1/40,90,160.0
4688,D2,473.017,1/40,90,160.0
4689,F#2,473.017,1/40,90,160.0
4690,E-4,473.5,0.5,89,160.0
4691,F2,473.5,0.5,102,160.0
4692,E-2,473.5,0.5,89,160.0
4693,C2,473.517,1/40,81,160.0
4694,F#2,473.517,1/40,81,160.0
4695,E-4,474.0,0.5,89,160.0
4696,F4,474.0,1.0,89,160.0
4697,E-2,474.0,0.5,89,160.0
4698,E-4,474.0,0.5,89,160.0
4699,B-3,474.0,0.5,89,160.0
4700,C#4,474.0,0.5,89,160.0
4701,B-2,474.017,1/40,96,160.0
4702,C2,474.017,1/40,96,160.0
4703,F4,474.5,1.0,89,160.0
4704,F2,474.5,0.5,102,160.0
4705,E-2,474.5,0.5,89,160.0
4706,F4,474.5,1.0,89,160.0
4707,B-3,474.5,1.5,89,160.0
4708,C#4,474.5,1.5,89,160.0
4709,C2,474.517,1/40,95,160.0
4710,F4,475.0,0.5,89,160.0
4711,E-2,475.0,0.5,89,160.0
4712,E-2,475.017,1/40,88,160.0
4713,F#2,475.017,1/40,88,160.0
4714,D2,475.017,1/40,88,160.0
4715,F4,475.5,0.5,89,160.0
4716,F4,475.5,1.0,89,160.0
4717,E-2,475.5,0.5,89,160.0
4718,F4,475.5,0.5,89,160.0
4719,C2,475.517,1/40,95,160.0
4720,F4,476.0,1.0,89,160.0
4721,F2,476.0,0.5,102,160.0
4722,E-2,476.0,0.5,89,160.0
4723,F4,476.0,1.0,89,160.0
4724,G#3,476.0,0.5,89,160.0
4725,E-4,476.0,0.5,89,160.0
4726,F#2,476.017,1/40,96,160.0
4727,C2,476.017,1/40,96,160.0
4728,E-2,476.5,0.5,89,160.0
4729,G#3,476.5,1.5,89,160.0
4730,E-4,476.5,1.5,89,160.0
4731,C4,477.0,0.5,89,160.0
4732,E-2,477.0,0.5,89,160.0
4733,E-2,477.017,1/40,90,160.0
4734,F#2,477.017,1/40,90,160.0
4735,D2,477.017,1/40,90,160.0
4736,E-4,477.5,0.5,89,160.0
4737,F2,477.5,0.5,102,160.0
4738,E-2,477.5,0.5,89,160.0
4739,C2,477.517,1/40,81,160.0
4740,F#2,477.517,1/40,81,160.0
4741,E-4,478.0,1.0,89,160.0
4742,E-4,478.0,0.5,89,160.0
4743,B-3,478.0,0.5,89,160.0
4744,E-2,478.0,0.5,89,160.0
4745,E-4,478.0,1.0,89,160.0
4746,B-2,478.017,1/40,96,160.0
4747,C2,478.017,1/40,96,160.0
4748,F4,478.5,1.0,89,160.0
4749,B-3,478.5,1.5,89,160.0
4750,F2,478.5,0.5,102,160.0
4751,E-2,478.5,0.5,89,160.0
4752,C2,478.517,1/40,95,160.0
4753,F4,479.0,0.5,89,160.0
4754,E-2,479.0,0.5,89,160.0
4755,F4,479.0,0.5,89,160.0
4756,E-2,479.017,1/40,88,160.0
4757,D2,479.017,1/40,88,160.0
4758,F#2,479.017,1/40,88,160.0
4759,F4,479.5,0.5,89,160.0
4760,G#4,479.5,1.0,89,160.0
4761,E-2,479.5,0.5,89,160.0
4762,F4,479.5,0.5,89,160.0
4763,C2,479.517,1/40,95,160.0
4764,G#3,480.0,0.5,89,160.0
4765,F2,480.0,0.5,102,160.0
4766,E-2,480.0,0.5,89,160.0
4767,F#2,480.017,1/40,96,160.0
4768,C2,480.017,1/40,96,160.0
4769,G#3,480.5,1.5,89,160.0
4770,E-2,480.5,0.5,89,160.0
4771,E-2,481.0,0.5,89,160.0
4772,E-2,481.017,1/40,90,160.0
4773,D2,481.017,1/40,90,160.0
4774,F#2,481.017,1/40,90,160.0
4775,E-4,481.5,0.5,89,160.0
4776,F2,481.5,0.5,102,160.0
4777,E-2,481.5,0.5,89,160.0
4778,F#2,481.517,1/40,81,160.0
4779,C2,481.517,1/40,81,160.0
4780,E-4,482.0,0.5,89,160.0
4781,F4,482.0,1.0,89,160.0
4782,G3,482.0,0.5,89,160.0
4783,E-2,482.0,0.5,89,160.0
4784,E-4,482.0,0.5,89,160.0
4785,B-2,482.017,1/40,96,160.0
4786,C2,482.017,1/40,96,160.0
4787,F4,482.5,1.0,89,160.0
4788,G3,482.5,1.5,89,160.0
4789,F2,482.5,0.5,102,160.0
4790,E-2,482.5,0.5,89,160.0
4791,F4,482.5,1.0,89,160.0
4792,C2,482.517,1/40,95,160.0
4793,F4,483.0,0.5,89,160.0
4794,E-2,483.0,0.5,89,160.0
4795,E-2,483.017,1/40,88,160.0
4796,D2,483.017,1/40,88,160.0
4797,F#2,483.017,1/40,88,160.0
4798,F4,483.5,0.5,89,160.0
4799,F4,483.5,1.0,89,160.0
4800,E-2,483.5,0.5,89,160.0
4801,F4,483.5,0.5,89,160.0
4802,C2,483.517,1/40,95,160.0
4803,F4,484.0,0.5,89,160.0
4804,E-2,484.0,0.5,89,160.0
4805,F4,484.0,0.5,89,160.0
4806,F2,484.0,1.0,102,160.0
4807,C#2,484.0,1.0,102,160.0
4808,F#2,484.017,1/40,96,160.0
4809,C2,484.017,1/40,96,160.0
4810,C4,484.5,0.5,89,160.0
4811,E-2,484.5,0.5,89,160.0
4812,C4,484.5,0.5,89,160.0
4813,C4,485.0,0.5,89,160.0
4814,E-2,485.0,0.5,89,160.0
4815,C4,485.0,0.5,89,160.0
4816,G#4,485.0,2.0,89,160.0
4817,F4,485.0,2.0,89,160.0
4818,E-2,485.017,1/40,90,160.0
4819,D2,485.017,1/40,90,160.0
4820,F#2,485.017,1/40,90,160.0
4821,C5,485.5,0.5,89,160.0
4822,E-4,485.5,1.0,89,160.0
4823,C#2,485.5,0.5,102,160.0
4824,E-2,485.5,0.5,89,160.0
4825,C5,485.5,0.5,89,160.0
4826,C2,485.517,1/40,81,160.0
4827,F#2,485.517,1/40,81,160.0
4828,C5,486.0,1.0,89,160.0
4829,C#2,486.0,0.5,102,160.0
4830,E-2,486.0,0.5,89,160.0
4831,C5,486.0,1.0,89,160.0
4832,B-2,486.017,1/40,96,160.0
4833,C2,486.017,1/40,96,160.0
4834,F4,486.5,0.5,89,160.0
4835,G#2,486.5,0.5,102,160.0
4836,E-2,486.5,0.5,89,160.0
4837,C2,486.517,1/40,95,160.0
4838,E-5,487.0,1.0,89,160.0
4839,F4,487.0,0.5,89,160.0
4840,C#3,487.0,0.5,102,160.0
4841,E-2,487.0,0.5,89,160.0
4842,E-5,487.0,1.0,89,160.0
4843,G#4,487.0,1.0,89,160.0
4844,F4,487.0,1.0,89,160.0
4845,E-2,487.017,1/40,88,160.0
4846,D2,487.017,1/40,88,160.0
4847,F#2,487.017,1/40,88,160.0
4848,G#2,487.5,0.5,102,160.0
4849,E-2,487.5,0.5,89,160.0
4850,C2,487.517,1/40,95,160.0
4851,F5,488.0,0.5,89,160.0
4852,F5,488.0,0.5,89,160.0
4853,C2,488.017,1/40,104,160.0
4854,F#2,488.017,1/40,104,160.0
4855,F5,488.5,0.5,89,160.0
4856,C2,488.5,0.5,102,160.0
4857,F5,488.5,0.5,89,160.0
4858,F5,489.0,0.5,89,160.0
4859,E-2,489.0,1.0,89,160.0
4860,F5,489.0,0.5,89,160.0
4861,C5,489.0,2.0,89,160.0
4862,G4,489.0,2.0,89,160.0
4863,D2,489.017,1/40,88,160.0
4864,F5,489.5,0.5,89,160.0
4865,E-4,489.5,0.5,89,160.0
4866,C2,489.5,0.5,102,160.0
4867,F5,489.5,0.5,89,160.0
4868,C2,489.517,1/40,95,160.0
4869,F5,490.0,1.5,89,160.0
4870,F4,490.0,1.0,89,160.0
4871,C2,490.0,0.5,102,160.0
4872,F5,490.0,1.5,89,160.0
4873,B-2,490.017,1/40,112,160.0
4874,G2,490.5,0.5,102,160.0
4875,C2,490.517,1/40,95,160.0
4876,F4,491.0,0.5,89,160.0
4877,C3,491.0,1.0,102,160.0
4878,E-2,491.0,1.0,89,160.0
4879,C5,491.0,1.0,89,160.0
4880,G4,491.0,1.0,89,160.0
4881,F#2,491.017,1/40,96,160.0
4882,D2,491.017,1/40,96,160.0
4883,F5,491.5,0.5,89,160.0
4884,F4,491.5,0.5,89,160.0
4885,F5,491.5,0.5,89,160.0
4886,F#2,491.517,1/40,85,160.0
4887,C2,491.517,1/40,85,160.0
4888,F5,492.0,0.5,89,160.0
4889,C4,492.0,0.5,89,160.0
4890,C2,492.0,1.0,102,160.0
4891,F5,492.0,0.5,89,160.0
4892,C2,492.017,1/40,96,160.0
4893,F#2,492.017,1/40,96,160.0
4894,F5,492.5,1.0,89,160.0
4895,C4,492.5,0.5,89,160.0
4896,F5,492.5,1.0,89,160.0
4897,C5,493.0,0.5,89,160.0
4898,E-2,493.0,1.0,89,160.0
4899,C5,493.0,2.0,89,160.0
4900,G4,493.0,2.0,89,160.0
4901,F#2,493.017,1/40,98,160.0
4902,D2,493.017,1/40,98,160.0
4903,F5,493.5,1.5,89,160.0
4904,C5,493.5,1.0,89,160.0
4905,C2,493.5,0.5,102,160.0
4906,F5,493.5,1.5,89,160.0
4907,F#2,493.517,1/40,81,160.0
4908,C2,493.517,1/40,81,160.0
4909,C2,494.0,0.5,102,160.0
4910,B-2,494.017,1/40,112,160.0
4911,E-5,494.5,1.0,89,160.0
4912,G2,494.5,0.5,102,160.0
4913,C2,494.517,1/40,95,160.0
4914,F5,495.0,0.5,89,160.0
4915,C3,495.0,0.5,102,160.0
4916,E-2,495.0,1.0,89,160.0
4917,F5,495.0,0.5,89,160.0
4918,C5,495.0,1.0,89,160.0
4919,G4,495.0,1.0,89,160.0
4920,F#2,495.017,1/40,96,160.0
4921,D2,495.017,1/40,96,160.0
4922,E-5,495.5,0.5,89,160.0
4923,F5,495.5,0.5,89,160.0
4924,G2,495.5,0.5,102,160.0
4925,E-5,495.5,0.5,89,160.0
4926,C2,495.517,1/40,95,160.0
4927,F5,496.0,1.0,89,160.0
4928,F5,496.0,0.5,89,160.0
4929,F5,496.0,1.0,89,160.0
4930,C2,496.017,1/40,96,160.0
4931,F#2,496.017,1/40,96,160.0
4932,F5,496.5,0.5,89,160.0
4933,F2,496.5,0.5,102,160.0
4934,F5,497.0,1.0,89,160.0
4935,F5,497.0,0.5,89,160.0
4936,E-2,497.0,1.0,89,160.0
4937,F5,497.0,1.0,89,160.0
4938,F4,497.0,2.0,89,160.0
4939,A4,497.0,2.0,89,160.0
4940,F#2,497.017,1/40,100,160.0
4941,D2,497.017,1/40,100,160.0
4942,F5,497.5,1.5,89,160.0
4943,F2,497.5,0.5,102,160.0
4944,F#2,497.517,1/40,82,160.0
4945,C2,497.517,1/40,82,160.0
4946,F5,498.0,1.0,89,160.0
4947,F2,498.0,1.0,102,160.0
4948,F5,498.0,1.0,89,160.0
4949,B-2,498.017,1/40,112,160.0
4950,C2,498.517,1/40,95,160.0
4951,E-5,499.0,0.5,89,160.0
4952,F5,499.0,0.5,89,160.0
4953,F3,499.0,1.0,102,160.0
4954,E-2,499.0,1.0,89,160.0
4955,E-5,499.0,0.5,89,160.0
4956,F4,499.0,1.0,89,160.0
4957,A4,499.0,1.0,89,160.0
4958,D2,499.017,1/40,96,160.0
4959,F#2,499.017,1/40,96,160.0
4960,F5,499.5,0.5,89,160.0
4961,F5,499.5,0.5,89,160.0
4962,F5,499.5,0.5,89,160.0
4963,C2,499.517,1/40,95,160.0
4964,F5,500.0,1.0,89,160.0
4965,F5,500.0,1.0,89,160.0
4966,C#2,500.0,1.0,102,160.0
4967,F5,500.0,1.0,89,160.0
4968,F#2,500.017,1/40,96,160.0
4969,C2,500.017,1/40,96,160.0
4970,F5,501.0,1.5,89,160.0
4971,E-2,501.0,1.0,89,160.0
4972,G#4,501.0,2.0,89,160.0
4973,F4,501.0,2.0,89,160.0
4974,D2,501.017,1/40,100,160.0
4975,F#2,501.017,1/40,100,160.0
4976,C5,501.5,0.5,89,160.0
4977,C#2,501.5,0.5,102,160.0
4978,C5,501.5,0.5,89,160.0
4979,F#2,501.517,1/40,82,160.0
4980,C2,501.517,1/40,82,160.0
4981,C5,502.0,1.0,89,160.0
4982,C#2,502.0,0.5,102,160.0
4983,C5,502.0,1.0,89,160.0
4984,B-2,502.017,1/40,112,160.0
4985,F5,502.5,0.5,89,160.0
4986,G#2,502.5,0.5,102,160.0
4987,C2,502.517,1/40,95,160.0
4988,E-5,503.0,1.0,89,160.0
4989,E-5,503.0,0.5,89,160.0
4990,C#3,503.0,0.5,102,160.0
4991,E-2,503.0,1.0,89,160.0
4992,E-5,503.0,1.0,89,160.0
4993,G#4,503.0,1.0,89,160.0
4994,F4,503.0,1.0,89,160.0
4995,D2,503.017,1/40,96,160.0
4996,F#2,503.017,1/40,96,160.0
4997,F5,503.5,1.0,89,160.0
4998,G#2,503.5,0.5,102,160.0
4999,C2,503.517,1/40,95,160.0
5000,F5,504.0,0.5,89,160.0
5001,F5,504.0,0.5,89,160.0
5002,F#2,504.017,1/40,96,160.0
5003,C2,504.017,1/40,96,160.0
5004,F5,504.5,0.5,89,160.0
5005,F5,504.5,1.0,89,160.0
5006,C2,504.5,0.5,102,160.0
5007,F5,504.5,0.5,89,160.0
5008,F5,505.0,0.5,89,160.0
5009,E-2,505.0,1.0,89,160.0
5010,F5,505.0,0.5,89,160.0
5011,C5,505.0,2.0,89,160.0
5012,G4,505.0,2.0,89,160.0
5013,F#2,505.017,1/40,100,160.0
5014,D2,505.017,1/40,100,160.0
5015,F5,505.5,0.5,89,160.0
5016,F5,505.5,1.0,89,160.0
5017,C2,505.5,0.5,102,160.0
5018,F5,505.5,0.5,89,160.0
5019,F#2,505.517,1/40,82,160.0
5020,C2,505.517,1/40,82,160.0
5021,F5,506.0,1.5,89,160.0
5022,C2,506.0,0.5,102,160.0
5023,F5,506.0,1.5,89,160.0
5024,B-2,506.017,1/40,112,160.0
5025,E-5,506.5,0.5,89,160.0
5026,G2,506.5,0.5,102,160.0
5027,C2,506.517,1/40,95,160.0
5028,F5,507.0,0.5,89,160.0
5029,C3,507.0,1.0,102,160.0
5030,E-2,507.0,1.0,89,160.0
5031,C5,507.0,1.0,89,160.0
5032,G4,507.0,1.0,89,160.0
5033,D2,507.017,1/40,96,160.0
5034,F#2,507.017,1/40,96,160.0
5035,F5,507.5,0.5,89,160.0
5036,F5,507.5,1.0,89,160.0
5037,F5,507.5,0.5,89,160.0
5038,C2,507.517,1/40,95,160.0
5039,F5,508.0,0.5,89,160.0
5040,C2,508.0,1.0,102,160.0
5041,F5,508.0,0.5,89,160.0
5042,C2,508.017,1/40,96,160.0
5043,F#2,508.017,1/40,96,160.0
5044,E-5,508.5,1.0,89,160.0
5045,E-5,508.5,1.0,89,160.0
5046,C5,509.0,0.5,89,160.0
5047,E-2,509.0,1.0,89,160.0
5048,C5,509.0,2.0,89,160.0
5049,G4,509.0,2.0,89,160.0
5050,F#2,509.017,1/40,100,160.0
5051,D2,509.017,1/40,100,160.0
5052,E-5,509.5,0.5,89,160.0
5053,C5,509.5,1.0,89,160.0
5054,C2,509.5,0.5,102,160.0
5055,E-5,509.5,0.5,89,160.0
5056,F#2,509.517,1/40,82,160.0
5057,C2,509.517,1/40,82,160.0
5058,C5,510.0,1.0,89,160.0
5059,C2,510.0,0.5,102,160.0
5060,C5,510.0,1.0,89,160.0
5061,B-2,510.017,1/40,112,160.0
5062,E-5,510.5,1.0,89,160.0
5063,G2,510.5,0.5,102,160.0
5064,C2,510.517,1/40,95,160.0
5065,C5,511.0,1.0,89,160.0
5066,C3,511.0,0.5,102,160.0
5067,E-2,511.0,1.0,89,160.0
5068,C5,511.0,1.0,89,160.0
5069,C5,511.0,1.0,89,160.0
5070,G4,511.0,1.0,89,160.0
5071,D2,511.017,1/40,96,160.0
5072,F#2,511.017,1/40,96,160.0
5073,F5,511.5,0.5,89,160.0
5074,G2,511.5,0.5,102,160.0
5075,C2,511.517,1/40,95,160.0
5076,F5,512.0,0.5,89,160.0
5077,F5,512.0,0.5,89,160.0
5078,F5,512.0,0.5,89,160.0
5079,C2,512.017,1/40,96,160.0
5080,F#2,512.017,1/40,96,160.0
5081,E-5,512.5,0.5,89,160.0
5082,F5,512.5,0.5,89,160.0
5083,F2,512.5,0.5,102,160.0
5084,E-5,512.5,0.5,89,160.0
5085,F5,513.0,1.0,89,160.0
5086,F5,513.0,0.5,89,160.0
5087,E-2,513.0,1.0,89,160.0
5088,F5,513.0,1.0,89,160.0
5089,F4,513.0,2.0,89,160.0
5090,A4,513.0,2.0,89,160.0
5091,F#2,513.017,1/40,100,160.0
5092,D2,513.017,1/40,100,160.0
5093,F5,513.5,1.5,89,160.0
5094,F2,513.5,0.5,102,160.0
5095,C2,513.517,1/40,82,160.0
5096,F#2,513.517,1/40,82,160.0
5097,F5,514.0,1.0,89,160.0
5098,F2,514.0,1.0,102,160.0
5099,F5,514.0,1.0,89,160.0
5100,B-2,514.017,1/40,112,160.0
5101,C2,514.517,1/40,95,160.0
5102,E-5,515.0,0.5,89,160.0
5103,F5,515.0,0.5,89,160.0
5104,F3,515.0,1.0,102,160.0
5105,E-2,515.0,1.0,89,160.0
5106,E-5,515.0,0.5,89,160.0
5107,F4,515.0,1.0,89,160.0
5108,A4,515.0,1.0,89,160.0
5109,F#2,515.017,1/40,96,160.0
5110,D2,515.017,1/40,96,160.0
5111,F5,515.5,0.5,89,160.0
5112,F5,515.5,0.5,89,160.0
5113,F5,515.5,0.5,89,160.0
5114,C2,515.517,1/40,95,160.0
5115,F5,516.0,1.0,89,160.0
5116,E-5,516.0,1.0,89,160.0
5117,C#2,516.0,1.0,102,160.0
5118,F5,516.0,1.0,89,160.0
5119,F#2,516.017,1/40,96,160.0
5120,C2,516.017,1/40,96,160.0
5121,E-5,517.0,0.5,89,160.0
5122,E-2,517.0,1.0,89,160.0
5123,F5,517.0,2.0,89,160.0
5124,C#5,517.0,2.0,89,160.0
5125,F#2,517.017,1/40,100,160.0
5126,D2,517.017,1/40,100,160.0
5127,C5,517.5,0.5,89,160.0
5128,C5,517.5,1.0,89,160.0
5129,C#2,517.5,0.5,102,160.0
5130,C5,517.5,0.5,89,160.0
5131,F#2,517.517,1/40,81,160.0
5132,C2,517.517,1/40,81,160.0
5133,C5,518.0,1.0,89,160.0
5134,C#2,518.0,0.5,102,160.0
5135,C5,518.0,1.0,89,160.0
5136,B-2,518.017,1/40,112,160.0
5137,C5,518.5,1.0,89,160.0
5138,G#2,518.5,0.5,102,160.0
5139,C2,518.517,1/40,95,160.0
5140,E-5,519.0,1.0,89,160.0
5141,C#3,519.0,0.5,102,160.0
5142,E-2,519.0,1.0,89,160.0
5143,E-5,519.0,1.0,89,160.0
5144,C#5,519.0,1.0,89,160.0
5145,G#4,519.0,1.0,89,160.0
5146,F#2,519.017,1/40,96,160.0
5147,D2,519.017,1/40,96,160.0
5148,F5,519.5,0.5,89,160.0
5149,G#2,519.5,0.5,102,160.0
5150,C2,519.517,1/40,95,160.0
5151,F5,520.0,0.5,89,160.0
5152,E-5,520.0,0.5,89,160.0
5153,F5,520.0,0.5,89,160.0
5154,C2,520.017,1/40,96,160.0
5155,F#2,520.017,1/40,96,160.0
5156,F5,520.5,0.5,89,160.0
5157,F5,520.5,1.0,89,160.0
5158,C2,520.5,0.5,102,160.0
5159,F5,520.5,0.5,89,160.0
5160,C6,521.0,0.5,89,160.0
5161,E-2,521.0,1.0,89,160.0
5162,C6,521.0,0.5,89,160.0
5163,C5,521.0,2.0,89,160.0
5164,G4,521.0,2.0,89,160.0
5165,D2,521.017,1/40,98,160.0
5166,F#2,521.017,1/40,98,160.0
5167,B-5,521.5,0.5,89,160.0
5168,F5,521.5,1.0,89,160.0
5169,C2,521.5,0.5,102,160.0
5170,B-5,521.5,0.5,89,160.0
5171,F#2,521.517,1/40,81,160.0
5172,C2,521.517,1/40,81,160.0
5173,B-5,522.0,0.5,89,160.0
5174,C2,522.0,0.5,102,160.0
5175,B-5,522.0,0.5,89,160.0
5176,B-2,522.017,1/40,112,160.0
5177,G#5,522.5,0.5,89,160.0
5178,E-5,522.5,0.5,89,160.0
5179,G2,522.5,0.5,102,160.0
5180,G#5,522.5,0.5,89,160.0
5181,C2,522.517,1/40,95,160.0
5182,F5,523.0,0.5,89,160.0
5183,F5,523.0,0.5,89,160.0
5184,C3,523.0,1.0,102,160.0
5185,E-2,523.0,1.0,89,160.0
5186,F5,523.0,0.5,89,160.0
5187,C5,523.0,1.0,89,160.0
5188,G4,523.0,1.0,89,160.0
5189,D2,523.017,1/40,96,160.0
5190,F#2,523.017,1/40,96,160.0
5191,G#5,523.5,0.5,89,160.0
5192,F5,523.5,1.0,89,160.0
5193,G#5,523.5,0.5,89,160.0
5194,C2,523.517,1/40,95,160.0
5195,G#5,524.0,0.5,89,160.0
5196,C2,524.0,1.0,102,160.0
5197,G#5,524.0,0.5,89,160.0
5198,F#2,524.017,1/40,96,160.0
5199,C2,524.017,1/40,96,160.0
5200,F5,524.5,1.0,89,160.0
5201,F5,524.5,1.0,89,160.0
5202,C5,525.0,0.5,89,160.0
5203,E-2,525.0,1.0,89,160.0
5204,C5,525.0,2.0,89,160.0
5205,G4,525.0,2.0,89,160.0
5206,D2,525.017,1/40,100,160.0
5207,F#2,525.017,1/40,100,160.0
5208,F5,525.5,1.5,89,160.0
5209,C5,525.5,1.0,89,160.0
5210,C2,525.5,0.5,102,160.0
5211,F5,525.5,1.5,89,160.0
5212,C2,525.517,1/40,82,160.0
5213,F#2,525.517,1/40,82,160.0
5214,C2,526.0,0.5,102,160.0
5215,B-2,526.017,1/40,112,160.0
5216,E-5,526.5,1.0,89,160.0
5217,G2,526.5,0.5,102,160.0
5218,C2,526.517,1/40,95,160.0
5219,E-5,527.0,1.0,89,160.0
5220,C3,527.0,0.5,102,160.0
5221,E-2,527.0,1.0,89,160.0
5222,E-5,527.0,1.0,89,160.0
5223,C5,527.0,1.0,89,160.0
5224,G4,527.0,1.0,89,160.0
5225,D2,527.017,1/40,96,160.0
5226,F#2,527.017,1/40,96,160.0
5227,F5,527.5,0.5,89,160.0
5228,G2,527.5,0.5,102,160.0
5229,C2,527.517,1/40,95,160.0
5230,F5,528.0,0.5,89,160.0
5231,F5,528.0,0.5,89,160.0
5232,F5,528.0,0.5,89,160.0
5233,F#2,528.017,1/40,96,160.0
5234,C2,528.017,1/40,96,160.0
5235,F5,528.5,0.5,89,160.0
5236,C6,528.5,0.5,89,160.0
5237,F2,528.5,0.5,102,160.0
5238,F5,528.5,0.5,89,160.0
5239,F5,529.0,1.0,89,160.0
5240,B-5,529.0,0.5,89,160.0
5241,E-2,529.0,1.0,89,160.0
5242,F5,529.0,1.0,89,160.0
5243,F4,529.0,2.0,89,160.0
5244,A4,529.0,2.0,89,160.0
5245,F#2,529.017,1/40,100,160.0
5246,D2,529.017,1/40,100,160.0
5247,B-5,529.5,0.5,89,160.0
5248,F2,529.5,0.5,102,160.0
5249,F#2,529.517,1/40,82,160.0
5250,C2,529.517,1/40,82,160.0
5251,F5,530.0,1.0,89,160.0
5252,G#5,530.0,0.5,89,160.0
5253,F2,530.0,1.0,102,160.0
5254,F5,530.0,1.0,89,160.0
5255,B-2,530.017,1/40,112,160.0
5256,F5,530.5,0.5,89,160.0
5257,C2,530.517,1/40,95,160.0
5258,E-5,531.0,0.5,89,160.0
5259,G#5,531.0,0.5,89,160.0
5260,F3,531.0,1.0,102,160.0
5261,E-2,531.0,1.0,89,160.0
5262,E-5,531.0,0.5,89,160.0
5263,F4,531.0,1.0,89,160.0
5264,A4,531.0,1.0,89,160.0
5265,F#2,531.017,1/40,96,160.0
5266,D2,531.017,1/40,96,160.0
5267,F5,531.5,0.5,89,160.0
5268,G#5,531.5,0.5,89,160.0
5269,F5,531.5,0.5,89,160.0
5270,C2,531.517,1/40,95,160.0
5271,F5,532.0,1.0,89,160.0
5272,F5,532.0,1.0,89,160.0
5273,C#2,532.0,1.0,102,160.0
5274,F5,532.0,1.0,89,160.0
5275,C2,532.017,1/40,96,160.0
5276,F#2,532.017,1/40,96,160.0
5277,F5,533.0,1.5,89,160.0
5278,E-2,533.0,1.0,89,160.0
5279,G#4,533.0,2.0,89,160.0
5280,F4,533.0,2.0,89,160.0
5281,F#2,533.017,1/40,100,160.0
5282,D2,533.017,1/40,100,160.0
5283,C5,533.5,0.5,89,160.0
5284,C#2,533.5,0.5,102,160.0
5285,C5,533.5,0.5,89,160.0
5286,F#2,533.517,1/40,82,160.0
5287,C2,533.517,1/40,82,160.0
5288,C5,534.0,1.0,89,160.0
5289,C#2,534.0,0.5,102,160.0
5290,C5,534.0,1.0,89,160.0
5291,B-2,534.017,1/40,112,160.0
5292,E-5,534.5,1.0,89,160.0
5293,G#2,534.5,0.5,102,160.0
5294,C2,534.517,1/40,95,160.0
5295,E-5,535.0,1.0,89,160.0
5296,C#3,535.0,0.5,102,160.0
5297,E-2,535.0,1.0,89,160.0
5298,E-5,535.0,1.0,89,160.0
5299,G#4,535.0,1.0,89,160.0
5300,F4,535.0,1.0,89,160.0
5301,D2,535.017,1/40,96,160.0
5302,F#2,535.017,1/40,96,160.0
5303,F5,535.5,0.5,89,160.0
5304,G#2,535.5,0.5,102,160.0
5305,C2,535.517,1/40,95,160.0
5306,F5,536.0,0.5,89,160.0
5307,F5,536.0,0.5,89,160.0
5308,F5,536.0,0.5,89,160.0
5309,C2,536.017,1/40,96,160.0
5310,F#2,536.017,1/40,96,160.0
5311,F5,536.5,0.5,89,160.0
5312,F5,536.5,1.0,89,160.0
5313,C2,536.5,0.5,102,160.0
5314,F5,536.5,0.5,89,160.0
5315,F5,537.0,0.5,89,160.0
5316,E-2,537.0,1.0,89,160.0
5317,F5,537.0,0.5,89,160.0
5318,C5,537.0,2.0,89,160.0
5319,G4,537.0,2.0,89,160.0
5320,D2,537.017,1/40,100,160.0
5321,F#2,537.017,1/40,100,160.0
5322,F5,537.5,0.5,89,160.0
5323,F5,537.5,1.0,89,160.0
5324,C2,537.5,0.5,102,160.0
5325,F5,537.5,0.5,89,160.0
5326,F#2,537.517,1/40,82,160.0
5327,C2,537.517,1/40,82,160.0
5328,F5,538.0,1.5,89,160.0
5329,C2,538.0,0.5,102,160.0
5330,F5,538.0,1.5,89,160.0
5331,B-2,538.017,1/40,112,160.0
5332,E-5,538.5,0.5,89,160.0
5333,G2,538.5,0.5,102,160.0
5334,C2,538.517,1/40,95,160.0
5335,F5,539.0,0.5,89,160.0
5336,C3,539.0,1.0,102,160.0
5337,E-2,539.0,1.0,89,160.0
5338,C5,539.0,1.0,89,160.0
5339,G4,539.0,1.0,89,160.0
5340,D2,539.017,1/40,96,160.0
5341,F#2,539.017,1/40,96,160.0
5342,F5,539.5,0.5,89,160.0
5343,F5,539.5,1.0,89,160.0
5344,F5,539.5,0.5,89,160.0
5345,C2,539.517,1/40,95,160.0
5346,F5,540.0,0.5,89,160.0
5347,C2,540.0,1.0,102,160.0
5348,F5,540.0,0.5,89,160.0
5349,F#2,540.017,1/40,96,160.0
5350,C2,540.017,1/40,96,160.0
5351,E-5,540.5,1.0,89,160.0
5352,E-5,540.5,1.0,89,160.0
5353,C5,541.0,0.5,89,160.0
5354,E-2,541.0,1.0,89,160.0
5355,C5,541.0,2.0,89,160.0
5356,G4,541.0,2.0,89,160.0
5357,F#2,541.017,1/40,100,160.0
5358,D2,541.017,1/40,100,160.0
5359,E-5,541.5,0.5,89,160.0
5360,C5,541.5,1.0,89,160.0
5361,C2,541.5,0.5,102,160.0
5362,E-5,541.5,0.5,89,160.0
5363,F#2,541.517,1/40,82,160.0
5364,C2,541.517,1/40,82,160.0
5365,C5,542.0,1.0,89,160.0
5366,C2,542.0,0.5,102,160.0
5367,C5,542.0,1.0,89,160.0
5368,B-2,542.017,1/40,112,160.0
5369,E-5,542.5,1.0,89,160.0
5370,G2,542.5,0.5,102,160.0
5371,C2,542.517,1/40,95,160.0
5372,C5,543.0,1.0,89,160.0
5373,C3,543.0,0.5,102,160.0
5374,E-2,543.0,1.0,89,160.0
5375,C5,543.0,1.0,89,160.0
5376,C5,543.0,1.0,89,160.0
5377,G4,543.0,1.0,89,160.0
5378,D2,543.017,1/40,96,160.0
5379,F#2,543.017,1/40,96,160.0
5380,F5,543.5,0.5,89,160.0
5381,G2,543.5,0.5,102,160.0
5382,C2,543.517,1/40,95,160.0
5383,F5,544.0,1.0,89,160.0
5384,F5,544.0,0.5,89,160.0
5385,F5,544.0,1.0,89,160.0
5386,C2,544.017,1/40,96,160.0
5387,F#2,544.017,1/40,96,160.0
5388,F5,544.5,0.5,89,160.0
5389,F2,544.5,0.5,102,160.0
5390,F5,545.0,0.5,89,160.0
5391,F5,545.0,0.5,89,160.0
5392,E-2,545.0,1.0,89,160.0
5393,F5,545.0,0.5,89,160.0
5394,F4,545.0,2.0,89,160.0
5395,A4,545.0,2.0,89,160.0
5396,F#2,545.017,1/40,100,160.0
5397,D2,545.017,1/40,100,160.0
5398,E-5,545.5,0.5,89,160.0
5399,F5,545.5,1.5,89,160.0
5400,F2,545.5,0.5,102,160.0
5401,E-5,545.5,0.5,89,160.0
5402,F#2,545.517,1/40,81,160.0
5403,C2,545.517,1/40,81,160.0
5404,F5,546.0,1.0,89,160.0
5405,F2,546.0,1.0,102,160.0
5406,F5,546.0,1.0,89,160.0
5407,B-2,546.017,1/40,112,160.0
5408,C2,546.517,1/40,95,160.0
5409,E-5,547.0,0.5,89,160.0
5410,F5,547.0,0.5,89,160.0
5411,F3,547.0,1.0,102,160.0
5412,E-2,547.0,1.0,89,160.0
5413,E-5,547.0,0.5,89,160.0
5414,F4,547.0,1.0,89,160.0
5415,A4,547.0,1.0,89,160.0
5416,D2,547.017,1/40,96,160.0
5417,F#2,547.017,1/40,96,160.0
5418,F5,547.5,0.5,89,160.0
5419,F5,547.5,0.5,89,160.0
5420,F5,547.5,0.5,89,160.0
5421,C2,547.517,1/40,95,160.0
5422,F5,548.0,1.0,89,160.0
5423,E-5,548.0,1.0,89,160.0
5424,F2,548.0,1.0,102,160.0
5425,F5,548.0,1.0,89,160.0
5426,C2,548.017,1/40,96,160.0
5427,F#2,548.017,1/40,96,160.0
5428,E-5,549.0,0.5,89,160.0
5429,E-2,549.0,1.0,89,160.0
5430,F#2,549.017,1/40,100,160.0
5431,D2,549.017,1/40,100,160.0
5432,C5,549.5,0.5,89,160.0
5433,C5,549.5,1.0,89,160.0
5434,F2,549.5,0.5,102,160.0
5435,C5,549.5,0.5,89,160.0
5436,F#2,549.517,1/40,81,160.0
5437,C2,549.517,1/40,81,160.0
5438,C5,550.0,1.0,89,160.0
5439,C5,550.0,1.0,89,160.0
5440,B-2,550.017,1/40,112,160.0
5441,C5,550.5,1.0,89,160.0
5442,F2,550.5,0.5,102,160.0
5443,C2,550.517,1/40,95,160.0
5444,E-5,551.0,1.0,89,160.0
5445,E-2,551.0,1.0,89,160.0
5446,E-5,551.0,1.0,89,160.0
5447,D2,551.017,1/40,96,160.0
5448,F#2,551.017,1/40,96,160.0
5449,F5,551.5,1.0,89,160.0
5450,F2,551.5,0.5,102,160.0
5451,C2,551.517,1/40,95,160.0
5452,F5,552.0,0.5,89,160.0
5453,C#2,552.0,1.0,102,160.0
5454,F5,552.0,0.5,89,160.0
5455,F#2,552.017,1/40,96,160.0
5456,C2,552.017,1/40,96,160.0
5457,F5,552.5,0.5,89,160.0
5458,F5,552.5,0.5,89,160.0
5459,F5,552.5,0.5,89,160.0
5460,F5,553.0,0.5,89,160.0
5461,E-5,553.0,0.5,89,160.0
5462,E-2,553.0,1.0,89,160.0
5463,F5,553.0,0.5,89,160.0
5464,G#4,553.0,2.0,89,160.0
5465,F4,553.0,2.0,89,160.0
5466,E-2,553.017,1/40,90,160.0
5467,F#2,553.017,1/40,90,160.0
5468,D2,553.017,1/40,90,160.0
5469,F5,553.5,0.5,89,160.0
5470,F5,553.5,1.0,89,160.0
5471,C#2,553.5,0.5,102,160.0
5472,F5,553.5,0.5,89,160.0
5473,F#2,553.517,1/40,81,160.0
5474,C2,553.517,1/40,81,160.0
5475,F5,554.0,1.5,89,160.0
5476,C#2,554.0,0.5,102,160.0
5477,F5,554.0,1.5,89,160.0
5478,B-2,554.017,1/40,96,160.0
5479,C2,554.017,1/40,96,160.0
5480,E-5,554.5,0.5,89,160.0
5481,G#2,554.5,0.5,102,160.0
5482,C2,554.517,1/40,95,160.0
5483,F5,555.0,0.5,89,160.0
5484,C#3,555.0,0.5,102,160.0
5485,E-2,555.0,1.0,89,160.0
5486,G#4,555.0,1.0,89,160.0
5487,F4,555.0,1.0,89,160.0
5488,E-2,555.017,1/40,88,160.0
5489,F#2,555.017,1/40,88,160.0
5490,D2,555.017,1/40,88,160.0
5491,F5,555.5,0.5,89,160.0
5492,F5,555.5,1.0,89,160.0
5493,G#2,555.5,0.5,102,160.0
5494,F5,555.5,0.5,89,160.0
5495,G4,555.5,1.5,89,160.0
5496,E4,555.5,1.5,89,160.0
5497,C2,555.517,1/40,95,160.0
5498,F5,556.0,0.5,89,160.0
5499,F5,556.0,0.5,89,160.0
5500,C2,556.017,1/40,96,160.0
5501,F#2,556.017,1/40,96,160.0
5502,F5,556.5,1.0,89,160.0
5503,C2,556.5,0.5,102,160.0
5504,F5,556.5,1.0,89,160.0
5505,C5,557.0,0.5,89,160.0
5506,E-2,557.0,1.0,89,160.0
5507,F4,557.0,1.5,89,160.0
5508,D4,557.0,1.5,89,160.0
5509,C5,557.0,2.0,89,160.0
5510,G4,557.0,2.0,89,160.0
5511,E-2,557.017,1/40,90,160.0
5512,F#2,557.017,1/40,90,160.0
5513,D2,557.017,1/40,90,160.0
5514,F5,557.5,1.5,89,160.0
5515,C5,557.5,1.0,89,160.0
5516,C2,557.5,0.5,102,160.0
5517,F5,557.5,1.5,89,160.0
5518,C2,557.517,1/40,81,160.0
5519,F#2,557.517,1/40,81,160.0
5520,C2,558.0,0.5,102,160.0
5521,C2,558.017,1/40,96,160.0
5522,B-2,558.017,1/40,96,160.0
5523,G2,558.5,0.5,102,160.0
5524,E-5,558.5,1.0,89,160.0
5525,G#4,558.5,1.0,89,160.0
5526,F4,558.5,1.0,89,160.0
5527,C2,558.517,1/40,95,160.0
5528,F5,559.0,0.5,89,160.0
5529,C3,559.0,1.0,102,160.0
5530,E-2,559.0,1.0,89,160.0
5531,F5,559.0,0.5,89,160.0
5532,C5,559.0,1.0,89,160.0
5533,G4,559.0,1.0,89,160.0
5534,E-2,559.017,1/40,88,160.0
5535,D2,559.017,1/40,88,160.0
5536,F#2,559.017,1/40,88,160.0
5537,E-5,559.5,0.5,89,160.0
5538,F5,559.5,0.5,89,160.0
5539,E-5,559.5,0.5,89,160.0
5540,C2,559.517,1/40,95,160.0
5541,F5,560.0,1.0,89,160.0
5542,F5,560.0,0.5,89,160.0
5543,C2,560.0,1.0,102,160.0
5544,F5,560.0,1.0,89,160.0
5545,C2,560.017,1/40,96,160.0
5546,F#2,560.017,1/40,96,160.0
5547,F5,560.5,0.5,89,160.0
5548,F5,561.0,1.0,89,160.0
5549,F5,561.0,0.5,89,160.0
5550,E-2,561.0,1.0,89,160.0
5551,F5,561.0,1.0,89,160.0
5552,C5,561.0,2.0,89,160.0
5553,G4,561.0,2.0,89,160.0
5554,D2,561.017,1/40,90,160.0
5555,E-2,561.017,1/40,90,160.0
5556,F#2,561.017,1/40,90,160.0
5557,F5,561.5,1.5,89,160.0
5558,C2,561.5,0.5,102,160.0
5559,C2,561.517,1/40,81,160.0
5560,F#2,561.517,1/40,81,160.0
5561,F5,562.0,1.0,89,160.0
5562,C2,562.0,0.5,102,160.0
5563,F5,562.0,1.0,89,160.0
5564,C2,562.017,1/40,96,160.0
5565,B-2,562.017,1/40,96,160.0
5566,G2,562.5,0.5,102,160.0
5567,C2,562.517,1/40,95,160.0
5568,E-5,563.0,0.5,89,160.0
5569,F5,563.0,0.5,89,160.0
5570,C3,563.0,0.5,102,160.0
5571,E-2,563.0,1.0,89,160.0
5572,E-5,563.0,0.5,89,160.0
5573,C5,563.0,1.0,89,160.0
5574,G4,563.0,1.0,89,160.0
5575,E-2,563.017,1/40,88,160.0
5576,D2,563.017,1/40,88,160.0
5577,F#2,563.017,1/40,88,160.0
5578,F5,563.5,0.5,89,160.0
5579,F5,563.5,0.5,89,160.0
5580,G2,563.5,0.5,102,160.0
5581,F5,563.5,0.5,89,160.0
5582,C2,563.517,1/40,95,160.0
5583,F5,564.0,1.0,89,160.0
5584,F5,564.0,1.0,89,160.0
5585,F5,564.0,1.0,89,160.0
5586,F#2,564.017,1/40,96,160.0
5587,C2,564.017,1/40,96,160.0
5588,F2,564.5,0.5,102,160.0
5589,F5,565.0,1.5,89,160.0
5590,E-2,565.0,1.0,89,160.0
5591,F4,565.0,2.0,89,160.0
5592,A4,565.0,2.0,89,160.0
5593,E-2,565.017,1/40,90,160.0
5594,D2,565.017,1/40,90,160.0
5595,F#2,565.017,1/40,90,160.0
5596,C5,565.5,0.5,89,160.0
5597,F2,565.5,0.5,102,160.0
5598,C5,565.5,0.5,89,160.0
5599,F#2,565.517,1/40,81,160.0
5600,C2,565.517,1/40,81,160.0
5601,C5,566.0,1.0,89,160.0
5602,F2,566.0,1.0,102,160.0
5603,C5,566.0,1.0,89,160.0
5604,C2,566.017,1/40,96,160.0
5605,B-2,566.017,1/40,96,160.0
5606,F5,566.5,0.5,89,160.0
5607,C2,566.517,1/40,95,160.0
5608,E-5,567.0,1.0,89,160.0
5609,E-5,567.0,0.5,89,160.0
5610,F3,567.0,1.0,102,160.0
5611,E-2,567.0,1.0,89,160.0
5612,E-5,567.0,1.0,89,160.0
5613,F4,567.0,1.0,89,160.0
5614,A4,567.0,1.0,89,160.0
5615,F#2,567.017,1/40,88,160.0
5616,D2,567.017,1/40,88,160.0
5617,E-2,567.017,1/40,88,160.0
5618,F5,567.5,1.0,89,160.0
5619,C2,567.517,1/40,95,160.0
5620,F5,568.0,0.5,89,160.0
5621,C#2,568.0,1.0,102,160.0
5622,F5,568.0,0.5,89,160.0
5623,C2,568.017,1/40,96,160.0
5624,F#2,568.017,1/40,96,160.0
5625,F5,568.5,0.5,89,160.0
5626,F5,568.5,1.0,89,160.0
5627,F5,568.5,0.5,89,160.0
5628,F5,569.0,0.5,89,160.0
5629,E-2,569.0,1.0,89,160.0
5630,F5,569.0,0.5,89,160.0
5631,G#4,569.0,2.0,89,160.0
5632,F4,569.0,2.0,89,160.0
5633,E-2,569.017,1/40,90,160.0
5634,D2,569.017,1/40,90,160.0
5635,F#2,569.017,1/40,90,160.0
5636,F5,569.5,0.5,89,160.0
5637,F5,569.5,1.0,89,160.0
5638,C#2,569.5,0.5,102,160.0
5639,F5,569.5,0.5,89,160.0
5640,C2,569.517,1/40,81,160.0
5641,F#2,569.517,1/40,81,160.0
5642,F5,570.0,1.5,89,160.0
5643,C#2,570.0,0.5,102,160.0
5644,F5,570.0,1.5,89,160.0
5645,B-2,570.017,1/40,96,160.0
5646,C2,570.017,1/40,96,160.0
5647,E-5,570.5,0.5,89,160.0
5648,G#2,570.5,0.5,102,160.0
5649,C2,570.517,1/40,95,160.0
5650,F5,571.0,0.5,89,160.0
5651,C#3,571.0,0.5,102,160.0
5652,E-2,571.0,1.0,89,160.0
5653,G#4,571.0,1.0,89,160.0
5654,F4,571.0,1.0,89,160.0
5655,E-2,571.017,1/40,88,160.0
5656,F#2,571.017,1/40,88,160.0
5657,D2,571.017,1/40,88,160.0
5658,F5,571.5,0.5,89,160.0
5659,F5,571.5,1.0,89,160.0
5660,G#2,571.5,0.5,102,160.0
5661,F5,571.5,0.5,89,160.0
5662,C2,571.517,1/40,95,160.0
5663,F5,572.0,0.5,89,160.0
5664,F5,572.0,0.5,89,160.0
5665,F#2,572.017,1/40,96,160.0
5666,C2,572.017,1/40,96,160.0
5667,E-5,572.5,1.0,89,160.0
5668,C2,572.5,0.5,102,160.0
5669,E-5,572.5,1.0,89,160.0
5670,C5,573.0,0.5,89,160.0
5671,E-2,573.0,1.0,89,160.0
5672,C5,573.0,2.0,89,160.0
5673,G4,573.0,2.0,89,160.0
5674,E-2,573.017,1/40,90,160.0
5675,F#2,573.017,1/40,90,160.0
5676,D2,573.017,1/40,90,160.0
5677,E-5,573.5,0.5,89,160.0
5678,C5,573.5,1.0,89,160.0
5679,C2,573.5,0.5,102,160.0
5680,E-5,573.5,0.5,89,160.0
5681,C2,573.517,1/40,81,160.0
5682,F#2,573.517,1/40,81,160.0
5683,C5,574.0,1.0,89,160.0
5684,C2,574.0,0.5,102,160.0
5685,C5,574.0,1.0,89,160.0
5686,B-2,574.017,1/40,96,160.0
5687,C2,574.017,1/40,96,160.0
5688,E-5,574.5,1.0,89,160.0
5689,G2,574.5,0.5,102,160.0
5690,C2,574.517,1/40,95,160.0
5691,C5,575.0,1.0,89,160.0
5692,C3,575.0,1.0,102,160.0
5693,E-2,575.0,1.0,89,160.0
5694,C5,575.0,1.0,89,160.0
5695,C5,575.0,1.0,89,160.0
5696,G4,575.0,1.0,89,160.0
5697,E-2,575.017,1/40,88,160.0
5698,D2,575.017,1/40,88,160.0
5699,F#2,575.017,1/40,88,160.0
5700,F5,575.5,0.5,89,160.0
5701,C2,575.517,1/40,95,160.0
5702,F5,576.0,0.5,89,160.0
5703,F5,576.0,0.5,89,160.0
5704,C2,576.0,1.0,102,160.0
5705,F5,576.0,0.5,89,160.0
5706,F#2,576.017,1/40,96,160.0
5707,C2,576.017,1/40,96,160.0
5708,E-5,576.5,0.5,89,160.0
5709,F5,576.5,0.5,89,160.0
5710,E-5,576.5,0.5,89,160.0
5711,F5,577.0,1.0,89,160.0
5712,F5,577.0,0.5,89,160.0
5713,E-2,577.0,1.0,89,160.0
5714,F5,577.0,1.0,89,160.0
5715,C5,577.0,2.0,89,160.0
5716,G4,577.0,2.0,89,160.0
5717,E-2,577.017,1/40,90,160.0
5718,D2,577.017,1/40,90,160.0
5719,F#2,577.017,1/40,90,160.0
5720,F5,577.5,1.5,89,160.0
5721,C2,577.5,0.5,102,160.0
5722,F#2,577.517,1/40,81,160.0
5723,C2,577.517,1/40,81,160.0
5724,F5,578.0,1.0,89,160.0
5725,C2,578.0,0.5,102,160.0
5726,F5,578.0,1.0,89,160.0
5727,B-2,578.017,1/40,96,160.0
5728,C2,578.017,1/40,96,160.0
5729,G2,578.5,0.5,102,160.0
5730,C2,578.517,1/40,95,160.0
5731,E-5,579.0,0.5,89,160.0
5732,F5,579.0,0.5,89,160.0
5733,C3,579.0,0.5,102,160.0
5734,E-2,579.0,1.0,89,160.0
5735,E-5,579.0,0.5,89,160.0
5736,C5,579.0,1.0,89,160.0
5737,G4,579.0,1.0,89,160.0
5738,E-2,579.017,1/40,88,160.0
5739,D2,579.017,1/40,88,160.0
5740,F#2,579.017,1/40,88,160.0
5741,F5,579.5,0.5,89,160.0
5742,F5,579.5,0.5,89,160.0
5743,G2,579.5,0.5,102,160.0
5744,F5,579.5,0.5,89,160.0
5745,C2,579.517,1/40,95,160.0
5746,F5,580.0,1.0,89,160.0
5747,E-5,580.0,1.0,89,160.0
5748,F5,580.0,1.0,89,160.0
5749,F#2,580.017,1/40,96,160.0
5750,C2,580.017,1/40,96,160.0
5751,F2,580.5,0.5,102,160.0
5752,E-5,581.0,0.5,89,160.0
5753,E-2,581.0,1.0,89,160.0
5754,F4,581.0,2.0,89,160.0
5755,A4,581.0,2.0,89,160.0
5756,E-2,581.017,1/40,90,160.0
5757,D2,581.017,1/40,90,160.0
5758,F#2,581.017,1/40,90,160.0
5759,C5,581.5,0.5,89,160.0
5760,C5,581.5,1.0,89,160.0
5761,F2,581.5,0.5,102,160.0
5762,C5,581.5,0.5,89,160.0
5763,C2,581.517,1/40,81,160.0
5764,F#2,581.517,1/40,81,160.0
5765,C5,582.0,1.0,89,160.0
5766,F2,582.0,1.0,102,160.0
5767,C5,582.0,1.0,89,160.0
5768,B-2,582.017,1/40,96,160.0
5769,C2,582.017,1/40,96,160.0
5770,C5,582.5,1.0,89,160.0
5771,C2,582.517,1/40,95,160.0
5772,E-5,583.0,1.0,89,160.0
5773,F3,583.0,1.0,102,160.0
5774,E-2,583.0,1.0,89,160.0
5775,E-5,583.0,1.0,89,160.0
5776,F4,583.0,1.0,89,160.0
5777,A4,583.0,1.0,89,160.0
5778,E-2,583.017,1/40,88,160.0
5779,D2,583.017,1/40,88,160.0
5780,F#2,583.017,1/40,88,160.0
5781,F5,583.5,0.5,89,160.0
5782,C2,583.517,1/40,95,160.0
5783,F5,584.0,0.5,89,160.0
5784,E-5,584.0,0.5,89,160.0
5785,C#2,584.0,1.0,102,160.0
5786,F5,584.0,0.5,89,160.0
5787,C2,584.017,1/40,104,160.0
5788,F#2,584.017,1/40,104,160.0
5789,F5,584.5,0.5,89,160.0
5790,F5,584.5,1.0,89,160.0
5791,F5,584.5,0.5,89,160.0
5792,C6,585.0,0.5,89,160.0
5793,E-2,585.0,1.0,89,160.0
5794,C6,585.0,0.5,89,160.0
5795,F5,585.0,2.0,89,160.0
5796,C#5,585.0,2.0,89,160.0
5797,D2,585.017,1/40,88,160.0
5798,B-5,585.5,0.5,89,160.0
5799,F5,585.5,1.0,89,160.0
5800,C#2,585.5,0.5,102,160.0
5801,B-5,585.5,0.5,89,160.0
5802,C2,585.517,1/40,95,160.0
5803,B-5,586.0,0.5,89,160.0
5804,C#2,586.0,0.5,102,160.0
5805,B-5,586.0,0.5,89,160.0
5806,B-2,586.017,1/40,112,160.0
5807,G#5,586.5,0.5,89,160.0
5808,E-5,586.5,0.5,89,160.0
5809,G#2,586.5,0.5,102,160.0
5810,G#5,586.5,0.5,89,160.0
5811,C2,586.517,1/40,95,160.0
5812,F5,587.0,0.5,89,160.0
5813,F5,587.0,0.5,89,160.0
5814,C#3,587.0,0.5,102,160.0
5815,E-2,587.0,1.0,89,160.0
5816,F5,587.0,0.5,89,160.0
5817,C#5,587.0,1.0,89,160.0
5818,G#4,587.0,1.0,89,160.0
5819,F#2,587.017,1/40,96,160.0
5820,D2,587.017,1/40,96,160.0
5821,G#5,587.5,0.5,89,160.0
5822,F5,587.5,1.0,89,160.0
5823,G#2,587.5,0.5,102,160.0
5824,G#5,587.5,0.5,89,160.0
5825,F#2,587.517,1/40,85,160.0
5826,C2,587.517,1/40,85,160.0
5827,G#5,588.0,0.5,89,160.0
5828,G#5,588.0,0.5,89,160.0
5829,C2,588.017,1/40,96,160.0
5830,F#2,588.017,1/40,96,160.0
5831,F5,588.5,1.0,89,160.0
5832,C2,588.5,0.5,102,160.0
5833,F5,588.5,1.0,89,160.0
5834,C5,589.0,0.5,89,160.0
5835,E-2,589.0,1.0,89,160.0
5836,C5,589.0,2.0,89,160.0
5837,G4,589.0,2.0,89,160.0
5838,F#2,589.017,1/40,98,160.0
5839,D2,589.017,1/40,98,160.0
5840,F5,589.5,1.5,89,160.0
5841,C5,589.5,1.0,89,160.0
5842,C2,589.5,0.5,102,160.0
5843,F5,589.5,1.5,89,160.0
5844,F#2,589.517,1/40,81,160.0
5845,C2,589.517,1/40,81,160.0
5846,C2,590.0,0.5,102,160.0
5847,B-2,590.017,1/40,112,160.0
5848,E-5,590.5,1.0,89,160.0
5849,G2,590.5,0.5,102,160.0
5850,C2,590.517,1/40,95,160.0
5851,E-5,591.0,1.0,89,160.0
5852,C3,591.0,1.0,102,160.0
5853,E-2,591.0,1.0,89,160.0
5854,E-5,591.0,1.0,89,160.0
5855,C5,591.0,1.0,89,160.0
5856,G4,591.0,1.0,89,160.0
5857,F#2,591.017,1/40,96,160.0
5858,D2,591.017,1/40,96,160.0
5859,F5,591.5,0.5,89,160.0
5860,C2,591.517,1/40,95,160.0
5861,F5,592.0,0.5,89,160.0
5862,F5,592.0,0.5,89,160.0
5863,C2,592.0,1.0,102,160.0
5864,F5,592.0,0.5,89,160.0
5865,C2,592.017,1/40,96,160.0
5866,F#2,592.017,1/40,96,160.0
5867,F5,592.5,0.5,89,160.0
5868,C6,592.5,0.5,89,160.0
5869,F5,592.5,0.5,89,160.0
5870,F5,593.0,1.0,89,160.0
5871,B-5,593.0,0.5,89,160.0
5872,E-2,593.0,1.0,89,160.0
5873,F5,593.0,1.0,89,160.0
5874,C5,593.0,2.0,89,160.0
5875,G4,593.0,2.0,89,160.0
5876,F#2,593.017,1/40,100,160.0
5877,D2,593.017,1/40,100,160.0
5878,B-5,593.5,0.5,89,160.0
5879,C2,593.5,0.5,102,160.0
5880,F#2,593.517,1/40,82,160.0
5881,C2,593.517,1/40,82,160.0
5882,F5,594.0,1.0,89,160.0
5883,G#5,594.0,0.5,89,160.0
5884,C2,594.0,0.5,102,160.0
5885,F5,594.0,1.0,89,160.0
5886,B-2,594.017,1/40,112,160.0
5887,F5,594.5,0.5,89,160.0
5888,G2,594.5,0.5,102,160.0
5889,C2,594.517,1/40,95,160.0
5890,E-5,595.0,0.5,89,160.0
5891,G#5,595.0,0.5,89,160.0
5892,C3,595.0,0.5,102,160.0
5893,E-2,595.0,1.0,89,160.0
5894,E-5,595.0,0.5,89,160.0
5895,C5,595.0,1.0,89,160.0
5896,G4,595.0,1.0,89,160.0
5897,D2,595.017,1/40,96,160.0
5898,F#2,595.017,1/40,96,160.0
5899,F5,595.5,0.5,89,160.0
5900,G#5,595.5,0.5,89,160.0
5901,G2,595.5,0.5,102,160.0
5902,F5,595.5,0.5,89,160.0
5903,C2,595.517,1/40,95,160.0
5904,F5,596.0,1.0,89,160.0
5905,F5,596.0,1.0,89,160.0
5906,F5,596.0,1.0,89,160.0
5907,F#2,596.017,1/40,96,160.0
5908,C2,596.017,1/40,96,160.0
5909,F2,596.5,0.5,102,160.0
5910,F5,597.0,1.5,89,160.0
5911,E-2,597.0,1.0,89,160.0
5912,F4,597.0,2.0,89,160.0
5913,A4,597.0,2.0,89,160.0
5914,D2,597.017,1/40,100,160.0
5915,F#2,597.017,1/40,100,160.0
5916,C5,597.5,0.5,89,160.0
5917,F2,597.5,0.5,102,160.0
5918,C5,597.5,0.5,89,160.0
5919,F#2,597.517,1/40,82,160.0
5920,C2,597.517,1/40,82,160.0
5921,C5,598.0,1.0,89,160.0
5922,F2,598.0,1.0,102,160.0
5923,C5,598.0,1.0,89,160.0
5924,B-2,598.017,1/40,112,160.0
5925,E-5,598.5,1.0,89,160.0
5926,C2,598.517,1/40,95,160.0
5927,E-5,599.0,1.0,89,160.0
5928,F3,599.0,1.0,102,160.0
5929,E-2,599.0,1.0,89,160.0
5930,E-5,599.0,1.0,89,160.0
5931,F4,599.0,1.0,89,160.0
5932,A4,599.0,1.0,89,160.0
5933,D2,599.017,1/40,96,160.0
5934,F#2,599.017,1/40,96,160.0
5935,F5,599.5,0.5,89,160.0
5936,C2,599.517,1/40,95,160.0
5937,F5,600.0,0.5,89,160.0
5938,F5,600.0,0.5,89,160.0
5939,C#2,600.0,1.0,102,160.0
5940,F5,600.0,0.5,89,160.0
5941,F#2,600.017,1/40,96,160.0
5942,C2,600.017,1/40,96,160.0
5943,F5,600.5,0.5,89,160.0
5944,F5,600.5,1.0,89,160.0
5945,F5,600.5,0.5,89,160.0
5946,F5,601.0,0.5,89,160.0
5947,E-2,601.0,1.0,89,160.0
5948,F5,601.0,0.5,89,160.0
5949,G#4,601.0,2.0,89,160.0
5950,F4,601.0,2.0,89,160.0
5951,F#2,601.017,1/40,100,160.0
5952,D2,601.017,1/40,100,160.0
5953,F5,601.5,0.5,89,160.0
5954,F5,601.5,1.0,89,160.0
5955,C#2,601.5,0.5,102,160.0
5956,F5,601.5,0.5,89,160.0
5957,F#2,601.517,1/40,82,160.0
5958,C2,601.517,1/40,82,160.0
5959,F5,602.0,1.5,89,160.0
5960,C#2,602.0,0.5,102,160.0
5961,F5,602.0,1.5,89,160.0
5962,B-2,602.017,1/40,112,160.0
5963,E-5,602.5,0.5,89,160.0
5964,G#2,602.5,0.5,102,160.0
5965,C2,602.517,1/40,95,160.0
5966,F5,603.0,0.5,89,160.0
5967,C#3,603.0,0.5,102,160.0
5968,E-2,603.0,1.0,89,160.0
5969,G#4,603.0,1.0,89,160.0
5970,F4,603.0,1.0,89,160.0
5971,D2,603.017,1/40,96,160.0
5972,F#2,603.017,1/40,96,160.0
5973,F5,603.5,0.5,89,160.0
5974,F5,603.5,1.0,89,160.0
5975,G#2,603.5,0.5,102,160.0
5976,F5,603.5,0.5,89,160.0
5977,C2,603.517,1/40,95,160.0
5978,F5,604.0,0.5,89,160.0
5979,F5,604.0,0.5,89,160.0
5980,C2,604.017,1/40,96,160.0
5981,F#2,604.017,1/40,96,160.0
5982,E-5,604.5,1.0,89,160.0
5983,C2,604.5,0.5,102,160.0
5984,E-5,604.5,1.0,89,160.0
5985,C5,605.0,0.5,89,160.0
5986,E-2,605.0,1.0,89,160.0
5987,C5,605.0,2.0,89,160.0
5988,G4,605.0,2.0,89,160.0
5989,F#2,605.017,1/40,100,160.0
5990,D2,605.017,1/40,100,160.0
5991,E-5,605.5,0.5,89,160.0
5992,C5,605.5,1.0,89,160.0
5993,C2,605.5,0.5,102,160.0
5994,E-5,605.5,0.5,89,160.0
5995,F#2,605.517,1/40,82,160.0
5996,C2,605.517,1/40,82,160.0
5997,C5,606.0,1.0,89,160.0
5998,C2,606.0,0.5,102,160.0
5999,C5,606.0,1.0,89,160.0
6000,B-2,606.017,1/40,112,160.0
6001,E-5,606.5,1.0,89,160.0
6002,G2,606.5,0.5,102,160.0
6003,C2,606.517,1/40,95,160.0
6004,C5,607.0,1.0,89,160.0
6005,C3,607.0,1.0,102,160.0
6006,E-2,607.0,1.0,89,160.0
6007,C5,607.0,1.0,89,160.0
6008,C5,607.0,1.0,89,160.0
6009,G4,607.0,1.0,89,160.0
6010,D2,607.017,1/40,96,160.0
6011,F#2,607.017,1/40,96,160.0
6012,F5,607.5,0.5,89,160.0
6013,C2,607.517,1/40,95,160.0
6014,F5,608.0,1.0,89,160.0
6015,F5,608.0,0.5,89,160.0
6016,C2,608.0,1.0,102,160.0
6017,F5,608.0,1.0,89,160.0
6018,C2,608.017,1/40,96,160.0
6019,F#2,608.017,1/40,96,160.0
6020,F5,608.5,0.5,89,160.0
6021,F5,609.0,0.5,89,160.0
6022,F5,609.0,0.5,89,160.0
6023,E-2,609.0,1.0,89,160.0
6024,F5,609.0,0.5,89,160.0
6025,C5,609.0,2.0,89,160.0
6026,G4,609.0,2.0,89,160.0
6027,F#2,609.017,1/40,100,160.0
6028,D2,609.017,1/40,100,160.0
6029,E-5,609.5,0.5,89,160.0
6030,F5,609.5,1.5,89,160.0
6031,C2,609.5,0.5,102,160.0
6032,E-5,609.5,0.5,89,160.0
6033,C2,609.517,1/40,82,160.0
6034,F#2,609.517,1/40,82,160.0
6035,F5,610.0,1.0,89,160.0
6036,C2,610.0,0.5,102,160.0
6037,F5,610.0,1.0,89,160.0
6038,B-2,610.017,1/40,112,160.0
6039,G2,610.5,0.5,102,160.0
6040,C2,610.517,1/40,95,160.0
6041,E-5,611.0,0.5,89,160.0
6042,F5,611.0,0.5,89,160.0
6043,C3,611.0,0.5,102,160.0
6044,E-2,611.0,1.0,89,160.0
6045,E-5,611.0,0.5,89,160.0
6046,C5,611.0,1.0,89,160.0
6047,G4,611.0,1.0,89,160.0
6048,F#2,611.017,1/40,96,160.0
6049,D2,611.017,1/40,96,160.0
6050,F5,611.5,0.5,89,160.0
6051,F5,611.5,0.5,89,160.0
6052,G2,611.5,0.5,102,160.0
6053,F5,611.5,0.5,89,160.0
6054,C2,611.517,1/40,95,160.0
6055,F5,612.0,1.0,89,160.0
6056,E-5,612.0,1.0,89,160.0
6057,F5,612.0,1.0,89,160.0
6058,F#2,612.017,1/40,96,160.0
6059,C2,612.017,1/40,96,160.0
6060,F3,612.5,0.5,102,160.0
6061,E-5,613.0,0.5,89,160.0
6062,E-2,613.0,1.0,89,160.0
6063,F4,613.0,2.0,89,160.0
6064,A4,613.0,2.0,89,160.0
6065,F#2,613.017,1/40,100,160.0
6066,D2,613.017,1/40,100,160.0
6067,C5,613.5,1.0,89,160.0
6068,F3,613.5,0.5,102,160.0
6069,F#2,613.517,1/40,81,160.0
6070,C2,613.517,1/40,81,160.0
6071,F3,614.0,1.0,102,160.0
6072,B-2,614.017,1/40,112,160.0
6073,C5,614.5,1.0,89,160.0
6074,C2,614.517,1/40,95,160.0
6075,F4,615.0,1.0,102,160.0
6076,E-2,615.0,1.0,89,160.0
6077,F4,615.0,1.0,89,160.0
6078,A4,615.0,1.0,89,160.0
6079,F#2,615.017,1/40,96,160.0
6080,D2,615.017,1/40,96,160.0
6081,F5,615.5,1.0,89,160.0
6082,C2,615.517,1/40,95,160.0
6083,F5,616.5,0.5,89,160.0
6084,E-5,617.0,0.5,89,160.0
6085,F5,617.5,1.0,89,160.0
6086,E-5,618.5,0.5,89,160.0
6087,F5,619.0,0.5,89,160.0
6088,F5,619.5,1.0,89,160.0
6089,F4,620.5,1.0,89,160.0
6090,A4,620.5,1.0,89,160.0
6091,C5,622.5,1.0,89,160.0
6092,A4,622.5,1.0,89,160.0
6093,F4,623.5,2.0,89,160.0
6094,G#4,623.5,2.0,89,160.0
