,note_name,start_time,duration,velocity,tempo
0,B4,0.0,0.25,50,89.0
1,B3,0.0,0.25,50,89.0
2,F#4,0.5,0.25,50,89.0
3,D4,0.75,0.25,50,89.0
4,B4,1.0,0.25,50,89.0
5,B3,1.0,0.25,50,89.0
6,F#4,1.5,0.25,50,89.0
7,D4,1.75,0.25,50,89.0
8,B4,2.0,0.25,50,89.0
9,B3,2.0,0.25,50,89.0
10,F#4,2.5,0.25,50,89.0
11,D4,2.75,0.25,50,89.0
12,B3,3.0,0.25,50,89.0
13,B4,3.0,0.25,50,89.0
14,F#4,3.5,0.25,50,89.0
15,D4,3.75,0.25,50,89.0
16,B3,4.0,0.25,50,89.0
17,B4,4.0,0.25,50,89.0
18,G4,4.5,0.25,50,89.0
19,D4,4.75,0.25,50,89.0
20,B4,5.0,0.25,50,89.0
21,B3,5.0,0.25,50,89.0
22,G4,5.5,0.25,50,89.0
23,D4,5.75,0.25,50,89.0
24,B3,6.0,0.25,50,89.0
25,B4,6.0,0.25,50,89.0
26,G4,6.5,0.25,50,89.0
27,D4,6.75,0.25,50,89.0
28,B4,7.0,0.25,50,89.0
29,B3,7.0,0.25,50,89.0
30,G4,7.5,0.25,50,89.0
31,D4,7.75,0.25,50,89.0
32,A3,8.0,0.25,50,89.0
33,A4,8.0,0.25,50,89.0
34,F#4,8.5,0.25,50,89.0
35,D4,8.75,0.25,50,89.0
36,A3,9.0,0.25,50,89.0
37,A4,9.0,0.25,50,89.0
38,F#4,9.5,0.25,50,89.0
39,D4,9.75,0.25,50,89.0
40,A3,10.0,0.25,50,89.0
41,A4,10.0,0.25,50,89.0
42,F#4,10.5,0.25,50,89.0
43,D4,10.75,0.25,50,89.0
44,A3,11.0,0.25,50,89.0
45,A4,11.0,0.25,50,89.0
46,F#4,11.5,0.25,50,89.0
47,A3,11.75,0.25,50,89.0
48,E4,12.0,0.25,50,89.0
49,A4,12.0,0.25,50,89.0
50,C#5,12.0,0.25,50,89.0
51,D4,15.938,0.062,50,89.0
52,B3,15.938,0.062,50,89.0
53,F#4,16.0,0.25,50,89.0
54,B4,16.0,0.25,50,89.0
55,D4,16.0,0.188,50,89.0
56,B3,16.0,0.188,50,89.0
57,F#4,16.5,0.25,50,89.0
58,D4,17.0,0.25,50,89.0
59,B4,17.25,0.25,50,89.0
60,F#4,17.75,0.25,50,89.0
61,D4,18.5,0.25,50,89.0
62,B4,19.5,0.25,50,89.0
63,D4,19.938,0.062,50,89.0
64,B3,19.938,0.062,50,89.0
65,B4,20.0,0.25,50,89.0
66,G4,20.0,0.25,50,89.0
67,D4,20.0,0.188,50,89.0
68,B3,20.0,0.188,50,89.0
69,G4,20.5,0.25,50,89.0
70,D4,21.0,0.25,50,89.0
71,B4,21.25,0.25,50,89.0
72,G4,21.75,0.25,50,89.0
73,D4,22.5,0.25,50,89.0
74,B4,23.5,0.25,50,89.0
75,D4,23.938,0.062,50,89.0
76,A3,23.938,0.062,50,89.0
77,A4,24.0,0.25,50,89.0
78,F#4,24.0,0.25,50,89.0
79,D4,24.0,0.188,50,89.0
80,A3,24.0,0.188,50,89.0
81,F#4,24.5,0.25,50,89.0
82,D4,25.0,0.25,50,89.0
83,A4,25.25,0.25,50,89.0
84,F#4,25.75,0.25,50,89.0
85,D4,26.5,0.25,50,89.0
86,A4,27.5,0.25,50,89.0
87,A3,27.938,0.062,50,89.0
88,C#4,27.938,0.062,50,89.0
89,E4,28.0,0.25,50,89.0
90,A4,28.0,0.25,50,89.0
91,A3,28.0,0.188,50,89.0
92,C#4,28.0,0.188,50,89.0
93,D4,31.375,0.125,50,89.0
94,F#4,31.5,0.125,50,89.0
95,B4,31.625,0.125,50,89.0
96,D5,31.75,0.125,50,89.0
97,C#5,31.875,0.125,50,89.0
98,B4,32.0,0.125,50,89.0
99,B-4,32.125,0.125,50,89.0
100,B4,32.25,0.125,50,89.0
101,F#4,34.625,0.125,50,89.0
102,D4,34.625,0.125,50,89.0
103,B4,34.75,0.25,50,89.0
104,C#5,35.25,0.25,50,89.0
105,D5,35.75,0.25,50,89.0
106,E5,36.25,0.25,50,89.0
107,F#5,36.75,0.25,50,89.0
108,D5,37.25,0.25,50,89.0
109,F#5,37.875,0.25,50,89.0
110,D5,38.5,0.25,50,89.0
111,F#5,39.25,0.25,50,89.0
112,F#4,41.75,0.25,50,89.0
113,D5,41.75,0.25,50,89.0
114,C#5,42.875,0.25,50,89.0
115,E4,42.875,0.25,50,89.0
116,B1,44.0,0.25,50,89.0
117,B2,44.0,0.25,50,89.0
118,B4,44.0,0.25,50,89.0
119,B3,44.0,0.25,50,89.0
120,D4,44.0,0.25,50,89.0
121,F#4,44.75,0.25,50,89.0
122,B2,44.75,0.25,50,89.0
123,B1,45.5,0.25,50,89.0
124,B3,46.0,0.25,50,89.0
125,B1,46.0,0.25,50,89.0
126,F#4,46.75,0.25,50,89.0
127,D5,47.0,0.25,50,89.0
128,C#5,47.25,0.25,50,89.0
129,B4,47.5,0.25,50,89.0
130,A4,47.75,0.25,50,89.0
131,B1,48.0,0.25,50,89.0
132,G2,48.0,0.25,50,89.0
133,D4,48.0,0.25,50,89.0
134,G3,48.0,0.25,50,89.0
135,B4,48.0,0.25,50,89.0
136,G4,48.75,0.25,50,89.0
137,G2,48.75,0.25,50,89.0
138,E4,49.25,0.25,50,89.0
139,B1,49.5,0.25,50,89.0
140,D4,49.75,0.25,50,89.0
141,B3,50.0,0.25,50,89.0
142,B1,50.0,0.25,50,89.0
143,G4,50.75,0.25,50,89.0
144,D5,51.0,0.25,50,89.0
145,C#5,51.25,0.25,50,89.0
146,D4,51.25,0.25,50,89.0
147,F#4,51.25,0.25,50,89.0
148,B4,51.5,0.25,50,89.0
149,C#5,51.75,0.25,50,89.0
150,F#4,51.75,0.25,50,89.0
151,B1,52.0,0.25,50,89.0
152,D3,52.0,0.25,50,89.0
153,D5,52.0,0.25,50,89.0
154,D4,52.0,0.25,50,89.0
155,F#4,52.0,0.25,50,89.0
156,A4,52.75,0.25,50,89.0
157,D3,52.75,0.25,50,89.0
158,A3,53.25,0.25,50,89.0
159,F#4,53.25,0.25,50,89.0
160,B1,53.5,0.25,50,89.0
161,F#4,53.75,0.25,50,89.0
162,D4,53.75,0.25,50,89.0
163,F#4,54.0,0.25,50,89.0
164,B1,54.0,0.25,50,89.0
165,D4,54.25,0.25,50,89.0
166,A4,54.75,0.25,50,89.0
167,D5,55.0,0.25,50,89.0
168,C#5,55.25,0.25,50,89.0
169,E4,55.25,0.25,50,89.0
170,A3,55.25,0.25,50,89.0
171,D5,55.5,0.25,50,89.0
172,E5,55.75,0.25,50,89.0
173,E4,55.75,0.25,50,89.0
174,B1,56.0,0.25,50,89.0
175,A2,56.0,0.25,50,89.0
176,E5,56.0,0.25,50,89.0
177,A4,56.0,0.25,50,89.0
178,A2,56.75,0.25,50,89.0
179,B1,57.5,0.25,50,89.0
180,D5,58.0,0.25,50,89.0
181,B1,58.0,0.25,50,89.0
182,C#5,59.0,0.25,50,89.0
183,B3,60.0,0.125,50,89.0
184,B3,60.0,0.25,50,89.0
185,B4,60.0,0.25,50,89.0
186,D4,60.0,0.25,50,89.0
187,F#4,60.0,0.25,50,89.0
188,F#3,60.5,0.25,50,89.0
189,B2,60.5,0.25,50,89.0
190,F#3,61.25,0.25,50,89.0
191,B3,61.5,0.25,50,89.0
192,B2,61.5,0.25,50,89.0
193,F#3,61.5,0.25,50,89.0
194,C#4,61.75,0.25,50,89.0
195,D4,62.0,0.25,50,89.0
196,E4,62.312,0.25,50,89.0
197,F#3,62.5,0.25,50,89.0
198,B2,62.5,0.25,50,89.0
199,D4,62.625,0.25,50,89.0
200,C#4,63.0,0.25,50,89.0
201,B3,63.312,0.25,50,89.0
202,B2,63.5,0.25,50,89.0
203,F#3,63.5,0.25,50,89.0
204,A3,63.625,0.25,50,89.0
205,G3,64.0,0.25,50,89.0
206,D3,64.5,0.25,50,89.0
207,G3,64.5,0.25,50,89.0
208,G2,64.5,0.25,50,89.0
209,D4,64.75,0.25,50,89.0
210,D4,65.5,0.25,50,89.0
211,G3,65.5,0.25,50,89.0
212,G2,65.5,0.25,50,89.0
213,D3,65.5,0.25,50,89.0
214,G3,66.5,0.25,50,89.0
215,D3,66.5,0.25,50,89.0
216,G2,66.5,0.25,50,89.0
217,G3,67.5,0.25,50,89.0
218,D3,67.5,0.25,50,89.0
219,G2,67.5,0.25,50,89.0
220,D4,68.0,0.25,50,89.0
221,A3,68.5,0.25,50,89.0
222,F#3,68.5,0.25,50,89.0
223,A2,68.5,0.25,50,89.0
224,D4,69.0,0.25,50,89.0
225,A3,69.5,0.25,50,89.0
226,A2,69.5,0.25,50,89.0
227,F#3,69.5,0.25,50,89.0
228,D4,70.0,0.25,50,89.0
229,A3,70.5,0.25,50,89.0
230,F#3,70.5,0.25,50,89.0
231,A2,70.5,0.25,50,89.0
232,D4,71.0,0.25,50,89.0
233,E4,71.5,0.25,50,89.0
234,A2,71.5,0.25,50,89.0
235,F#3,71.5,0.25,50,89.0
236,C#4,71.75,0.25,50,89.0
237,A2,72.5,0.25,50,89.0
238,E3,72.5,0.25,50,89.0
239,E3,73.5,0.25,50,89.0
240,A2,73.5,0.25,50,89.0
241,A2,74.5,0.25,50,89.0
242,E3,74.5,0.25,50,89.0
243,B3,76.0,0.125,50,89.0
244,B1,76.0,0.25,50,89.0
245,B4,76.0,0.25,50,89.0
246,D4,76.0,0.25,50,89.0
247,F#4,76.0,0.25,50,89.0
248,B3,76.0,0.25,50,89.0
249,B2,76.0,0.25,50,89.0
250,F#3,76.5,0.25,50,89.0
251,B2,76.5,0.25,50,89.0
252,F#3,77.25,0.25,50,89.0
253,F#2,77.25,0.25,50,89.0
254,F#3,77.5,0.25,50,89.0
255,B2,77.5,0.25,50,89.0
256,F#2,77.5,0.25,50,89.0
257,B3,77.5,0.25,50,89.0
258,C#4,77.75,0.25,50,89.0
259,F#2,77.75,0.25,50,89.0
260,F#2,78.0,0.25,50,89.0
261,D4,78.0,0.25,50,89.0
262,E4,78.312,0.25,50,89.0
263,F#2,78.312,0.25,50,89.0
264,F#3,78.5,0.25,50,89.0
265,B2,78.5,0.25,50,89.0
266,F#2,78.625,0.25,50,89.0
267,D4,78.625,0.25,50,89.0
268,F#2,79.0,0.25,50,89.0
269,C#4,79.0,0.25,50,89.0
270,B3,79.312,0.25,50,89.0
271,F#2,79.312,0.25,50,89.0
272,B2,79.5,0.25,50,89.0
273,F#3,79.5,0.25,50,89.0
274,F#2,79.625,0.25,50,89.0
275,A3,79.625,0.25,50,89.0
276,B1,80.0,0.25,50,89.0
277,B3,80.0,0.25,50,89.0
278,D4,80.0,0.25,50,89.0
279,B4,80.0,0.25,50,89.0
280,G4,80.0,0.25,50,89.0
281,G3,80.0,0.25,50,89.0
282,G2,80.0,0.25,50,89.0
283,G3,80.5,0.25,50,89.0
284,G2,80.5,0.25,50,89.0
285,D3,80.5,0.25,50,89.0
286,D4,80.75,0.25,50,89.0
287,G2,80.75,0.25,50,89.0
288,D4,81.5,0.25,50,89.0
289,G2,81.5,0.125,50,89.0
290,G2,81.5,0.25,50,89.0
291,G3,81.5,0.25,50,89.0
292,D3,81.5,0.25,50,89.0
293,G2,82.5,0.25,50,89.0
294,D3,82.5,0.25,50,89.0
295,G3,82.5,0.25,50,89.0
296,G2,83.5,0.25,50,89.0
297,D3,83.5,0.25,50,89.0
298,G3,83.5,0.25,50,89.0
299,B1,84.0,0.25,50,89.0
300,A4,84.0,0.25,50,89.0
301,F#4,84.0,0.25,50,89.0
302,A3,84.0,0.25,50,89.0
303,A3,84.0,0.125,50,89.0
304,D4,84.0,0.125,50,89.0
305,F#2,84.0,0.25,50,89.0
306,D4,84.0,0.25,50,89.0
307,F#3,84.5,0.25,50,89.0
308,A2,84.5,0.25,50,89.0
309,A3,84.5,0.25,50,89.0
310,F#2,84.5,0.25,50,89.0
311,F#2,85.0,0.25,50,89.0
312,D4,85.0,0.25,50,89.0
313,A2,85.5,0.25,50,89.0
314,F#3,85.5,0.25,50,89.0
315,A3,85.5,0.25,50,89.0
316,F#2,85.5,0.25,50,89.0
317,D4,86.0,0.25,50,89.0
318,F#2,86.0,0.25,50,89.0
319,A2,86.5,0.25,50,89.0
320,F#3,86.5,0.25,50,89.0
321,A3,86.5,0.25,50,89.0
322,F#2,86.5,0.25,50,89.0
323,D4,87.0,0.25,50,89.0
324,F#2,87.0,0.25,50,89.0
325,E4,87.5,0.25,50,89.0
326,A2,87.5,0.125,50,89.0
327,A2,87.5,0.25,50,89.0
328,F#3,87.5,0.25,50,89.0
329,C#4,87.75,0.25,50,89.0
330,A2,87.75,0.25,50,89.0
331,B1,88.0,0.25,50,89.0
332,A4,88.0,0.25,50,89.0
333,C#4,88.0,0.25,50,89.0
334,A3,88.0,0.25,50,89.0
335,E4,88.0,0.25,50,89.0
336,E3,88.5,0.25,50,89.0
337,A2,88.5,0.25,50,89.0
338,E3,89.5,0.25,50,89.0
339,A2,89.5,0.25,50,89.0
340,A2,90.5,0.25,50,89.0
341,E3,90.5,0.25,50,89.0
342,B2,92.0,0.25,50,89.0
343,C#5,92.0,0.25,50,89.0
344,B3,92.0,0.25,50,89.0
345,B-5,92.5,0.25,50,89.0
346,B-5,92.75,0.25,50,89.0
347,D3,93.0,0.25,50,89.0
348,C#5,93.0,0.25,50,89.0
349,B3,93.0,0.25,50,89.0
350,B3,93.25,0.25,50,89.0
351,F#3,93.5,0.25,50,89.0
352,B-5,93.5,0.25,50,89.0
353,B3,93.5,0.25,50,89.0
354,B-5,93.75,0.25,50,89.0
355,C#4,93.75,0.25,50,89.0
356,B2,94.0,0.25,50,89.0
357,C#5,94.0,0.25,50,89.0
358,D4,94.0,0.25,50,89.0
359,C#4,94.25,0.25,50,89.0
360,B-5,94.5,0.25,50,89.0
361,D4,94.5,0.25,50,89.0
362,B-5,94.75,0.25,50,89.0
363,C#4,94.75,0.25,50,89.0
364,D3,95.0,0.25,50,89.0
365,C#5,95.0,0.25,50,89.0
366,D4,95.0,0.25,50,89.0
367,C#4,95.375,0.25,50,89.0
368,F#3,95.5,0.25,50,89.0
369,B-5,95.5,0.25,50,89.0
370,B-5,95.75,0.25,50,89.0
371,B3,95.75,0.25,50,89.0
372,G2,96.0,0.25,50,89.0
373,C#5,96.0,0.25,50,89.0
374,B-5,96.5,0.25,50,89.0
375,B-5,96.75,0.25,50,89.0
376,B2,97.0,0.25,50,89.0
377,C#5,97.0,0.25,50,89.0
378,B3,97.0,0.25,50,89.0
379,B3,97.25,0.25,50,89.0
380,D3,97.5,0.25,50,89.0
381,B-5,97.5,0.25,50,89.0
382,B3,97.5,0.25,50,89.0
383,B-5,97.75,0.25,50,89.0
384,C#4,97.75,0.25,50,89.0
385,G3,98.0,0.25,50,89.0
386,C#5,98.0,0.25,50,89.0
387,D4,98.0,0.25,50,89.0
388,C#4,98.25,0.25,50,89.0
389,B-5,98.5,0.25,50,89.0
390,D4,98.5,0.25,50,89.0
391,B-5,98.75,0.25,50,89.0
392,C#4,98.75,0.25,50,89.0
393,B2,99.0,0.25,50,89.0
394,C#5,99.0,0.25,50,89.0
395,D4,99.0,0.25,50,89.0
396,E4,99.375,0.25,50,89.0
397,D3,99.5,0.25,50,89.0
398,B-5,99.5,0.25,50,89.0
399,B-5,99.75,0.25,50,89.0
400,A3,99.75,0.25,50,89.0
401,D3,100.0,0.25,50,89.0
402,C#5,100.0,0.25,50,89.0
403,B-5,100.5,0.25,50,89.0
404,B-5,100.75,0.25,50,89.0
405,F#3,101.0,0.25,50,89.0
406,C#5,101.0,0.25,50,89.0
407,A3,101.0,0.25,50,89.0
408,A3,101.25,0.25,50,89.0
409,A3,101.5,0.25,50,89.0
410,B-5,101.5,0.25,50,89.0
411,A3,101.5,0.25,50,89.0
412,B-5,101.75,0.25,50,89.0
413,A3,101.75,0.25,50,89.0
414,D3,102.0,0.25,50,89.0
415,C#5,102.0,0.25,50,89.0
416,D4,102.0,0.25,50,89.0
417,A3,102.25,0.25,50,89.0
418,B-5,102.5,0.25,50,89.0
419,D4,102.5,0.25,50,89.0
420,B-5,102.75,0.25,50,89.0
421,A3,102.75,0.25,50,89.0
422,F#3,103.0,0.25,50,89.0
423,C#5,103.0,0.25,50,89.0
424,D4,103.0,0.25,50,89.0
425,E4,103.375,0.25,50,89.0
426,B-5,103.5,0.25,50,89.0
427,B-5,103.75,0.25,50,89.0
428,E4,103.75,0.25,50,89.0
429,A2,104.0,0.25,50,89.0
430,C#5,104.0,0.25,50,89.0
431,C#4,104.25,0.25,50,89.0
432,B-5,104.5,0.25,50,89.0
433,B-5,104.75,0.25,50,89.0
434,C#3,105.0,0.25,50,89.0
435,C#5,105.0,0.25,50,89.0
436,E3,105.5,0.25,50,89.0
437,B-5,105.5,0.25,50,89.0
438,B-5,105.75,0.25,50,89.0
439,A2,106.0,0.25,50,89.0
440,C#5,106.0,0.25,50,89.0
441,B-5,106.5,0.25,50,89.0
442,B-5,106.75,0.25,50,89.0
443,C#3,107.0,0.25,50,89.0
444,C#5,107.0,0.25,50,89.0
445,E3,107.5,0.25,50,89.0
446,B-5,107.5,0.25,50,89.0
447,B-5,107.75,0.25,50,89.0
448,B2,108.0,0.25,50,89.0
449,B1,108.0,0.25,50,89.0
450,B3,108.0,0.25,50,89.0
451,C2,108.0,0.25,50,89.0
452,C#5,108.0,0.25,50,89.0
453,B-5,108.5,0.25,50,89.0
454,B-5,108.75,0.25,50,89.0
455,D3,109.0,0.25,50,89.0
456,C#5,109.0,0.25,50,89.0
457,D2,109.0,0.25,50,89.0
458,B3,109.0,0.25,50,89.0
459,B3,109.25,0.25,50,89.0
460,F#3,109.5,0.25,50,89.0
461,B-5,109.5,0.25,50,89.0
462,F#2,109.5,0.25,50,89.0
463,B3,109.5,0.25,50,89.0
464,B-5,109.75,0.25,50,89.0
465,C#4,109.75,0.25,50,89.0
466,F#2,110.0,0.25,50,89.0
467,C#5,110.0,0.25,50,89.0
468,B1,110.0,0.25,50,89.0
469,D4,110.0,0.25,50,89.0
470,C#4,110.25,0.25,50,89.0
471,B-5,110.5,0.25,50,89.0
472,D4,110.5,0.25,50,89.0
473,B-5,110.75,0.25,50,89.0
474,C#4,110.75,0.25,50,89.0
475,D3,111.0,0.25,50,89.0
476,C#5,111.0,0.25,50,89.0
477,D2,111.0,0.25,50,89.0
478,D4,111.0,0.25,50,89.0
479,C#4,111.375,0.25,50,89.0
480,F#3,111.5,0.25,50,89.0
481,B-5,111.5,0.25,50,89.0
482,F#2,111.5,0.25,50,89.0
483,B-5,111.75,0.25,50,89.0
484,B3,111.75,0.25,50,89.0
485,G2,112.0,0.25,50,89.0
486,G1,112.0,0.25,50,89.0
487,C#5,112.0,0.25,50,89.0
488,C2,112.0,0.25,50,89.0
489,B-5,112.5,0.25,50,89.0
490,B-5,112.75,0.25,50,89.0
491,B2,113.0,0.25,50,89.0
492,C#5,113.0,0.25,50,89.0
493,B1,113.0,0.25,50,89.0
494,B3,113.0,0.25,50,89.0
495,B3,113.25,0.25,50,89.0
496,D3,113.5,0.25,50,89.0
497,B-5,113.5,0.25,50,89.0
498,D2,113.5,0.25,50,89.0
499,B3,113.5,0.25,50,89.0
500,B-5,113.75,0.25,50,89.0
501,C#4,113.75,0.25,50,89.0
502,G3,114.0,0.25,50,89.0
503,C#5,114.0,0.25,50,89.0
504,G1,114.0,0.25,50,89.0
505,D4,114.0,0.25,50,89.0
506,C#4,114.25,0.25,50,89.0
507,B-5,114.5,0.25,50,89.0
508,D4,114.5,0.25,50,89.0
509,B-5,114.75,0.25,50,89.0
510,C#4,114.75,0.25,50,89.0
511,B2,115.0,0.25,50,89.0
512,C#5,115.0,0.25,50,89.0
513,B1,115.0,0.25,50,89.0
514,D4,115.0,0.25,50,89.0
515,E4,115.375,0.25,50,89.0
516,D3,115.5,0.25,50,89.0
517,B-5,115.5,0.25,50,89.0
518,D2,115.5,0.25,50,89.0
519,B-5,115.75,0.25,50,89.0
520,A3,115.75,0.25,50,89.0
521,D3,116.0,0.25,50,89.0
522,D2,116.0,0.25,50,89.0
523,C#5,116.0,0.25,50,89.0
524,C2,116.0,0.25,50,89.0
525,B-5,116.5,0.25,50,89.0
526,B-5,116.75,0.25,50,89.0
527,F#3,117.0,0.25,50,89.0
528,C#5,117.0,0.25,50,89.0
529,F#2,117.0,0.25,50,89.0
530,A3,117.0,0.25,50,89.0
531,A3,117.25,0.25,50,89.0
532,A3,117.5,0.25,50,89.0
533,B-5,117.5,0.25,50,89.0
534,A2,117.5,0.25,50,89.0
535,A3,117.5,0.25,50,89.0
536,B-5,117.75,0.25,50,89.0
537,A3,117.75,0.25,50,89.0
538,D3,118.0,0.25,50,89.0
539,C#5,118.0,0.25,50,89.0
540,D2,118.0,0.25,50,89.0
541,D4,118.0,0.25,50,89.0
542,A3,118.25,0.25,50,89.0
543,B-5,118.5,0.25,50,89.0
544,D4,118.5,0.25,50,89.0
545,B-5,118.75,0.25,50,89.0
546,A3,118.75,0.25,50,89.0
547,F#3,119.0,0.25,50,89.0
548,C#5,119.0,0.25,50,89.0
549,F#2,119.0,0.25,50,89.0
550,D4,119.0,0.25,50,89.0
551,E4,119.375,0.25,50,89.0
552,B-5,119.5,0.25,50,89.0
553,A2,119.5,0.25,50,89.0
554,B-5,119.75,0.25,50,89.0
555,E4,119.75,0.25,50,89.0
556,A2,120.0,0.25,50,89.0
557,A1,120.0,0.25,50,89.0
558,C2,120.0,0.25,50,89.0
559,C#5,120.0,0.25,50,89.0
560,C#4,120.25,0.25,50,89.0
561,B-5,120.5,0.25,50,89.0
562,B-5,120.75,0.25,50,89.0
563,C#3,121.0,0.25,50,89.0
564,C#5,121.0,0.25,50,89.0
565,C#2,121.0,0.25,50,89.0
566,E3,121.5,0.25,50,89.0
567,B-5,121.5,0.25,50,89.0
568,E2,121.5,0.25,50,89.0
569,B-5,121.75,0.25,50,89.0
570,D4,122.0,0.25,50,89.0
571,C#4,123.0,0.25,50,89.0
572,C2,124.0,0.25,50,89.0
573,B1,124.0,0.25,50,89.0
574,D4,124.0,0.25,50,89.0
575,B4,124.0,0.25,50,89.0
576,F#4,124.0,0.25,50,89.0
577,B3,124.0,0.25,50,89.0
578,B3,124.0,0.25,50,89.0
579,B2,124.0,0.25,50,89.0
580,F#4,124.5,0.25,50,89.0
581,F#2,124.5,0.25,50,89.0
582,F#3,124.5,0.25,50,89.0
583,A1,124.75,0.25,50,89.0
584,E-2,124.75,0.25,50,89.0
585,D4,125.0,0.25,50,89.0
586,C2,125.0,0.25,50,89.0
587,F#3,125.0,0.25,50,89.0
588,F#2,125.0,0.25,50,89.0
589,B4,125.25,0.25,50,89.0
590,F#3,125.25,0.25,50,89.0
591,F#2,125.25,0.25,50,89.0
592,B1,125.5,0.25,50,89.0
593,C2,125.5,0.25,50,89.0
594,E-2,125.5,0.25,50,89.0
595,F#2,125.5,0.25,50,89.0
596,F#3,125.5,0.25,50,89.0
597,F#4,125.75,0.25,50,89.0
598,F#2,125.75,0.25,50,89.0
599,F#3,125.75,0.25,50,89.0
600,C2,126.0,0.25,50,89.0
601,B1,126.0,0.25,50,89.0
602,F#3,126.0,0.25,50,89.0
603,F#2,126.0,0.25,50,89.0
604,B2,126.25,0.25,50,89.0
605,B3,126.25,0.25,50,89.0
606,D4,126.5,0.25,50,89.0
607,B3,126.5,0.25,50,89.0
608,B2,126.5,0.25,50,89.0
609,E-2,126.75,0.25,50,89.0
610,A1,126.75,0.25,50,89.0
611,B3,126.75,0.25,50,89.0
612,B2,126.75,0.25,50,89.0
613,C2,127.0,0.25,50,89.0
614,B2,127.0,0.25,50,89.0
615,B3,127.0,0.25,50,89.0
616,B4,127.5,0.25,50,89.0
617,B1,127.5,0.25,50,89.0
618,C2,127.5,0.25,50,89.0
619,E-2,127.5,0.25,50,89.0
620,A2,127.5,0.25,50,89.0
621,A3,127.5,0.25,50,89.0
622,B3,127.75,0.25,50,89.0
623,B2,127.75,0.25,50,89.0
624,C2,128.0,0.25,50,89.0
625,G1,128.0,0.25,50,89.0
626,B3,128.0,0.25,50,89.0
627,D4,128.0,0.25,50,89.0
628,B4,128.0,0.25,50,89.0
629,G4,128.0,0.25,50,89.0
630,G2,128.25,0.25,50,89.0
631,G3,128.25,0.25,50,89.0
632,G4,128.5,0.25,50,89.0
633,E-2,128.75,0.25,50,89.0
634,A1,128.75,0.25,50,89.0
635,G2,128.75,0.25,50,89.0
636,G3,128.75,0.25,50,89.0
637,D4,129.0,0.25,50,89.0
638,C2,129.0,0.25,50,89.0
639,G2,129.0,0.25,50,89.0
640,G3,129.0,0.25,50,89.0
641,B4,129.25,0.25,50,89.0
642,G3,129.25,0.25,50,89.0
643,G2,129.25,0.25,50,89.0
644,G1,129.5,0.25,50,89.0
645,C2,129.5,0.25,50,89.0
646,E-2,129.5,0.25,50,89.0
647,G3,129.5,0.25,50,89.0
648,G2,129.5,0.25,50,89.0
649,G4,129.75,0.25,50,89.0
650,G3,129.75,0.25,50,89.0
651,G2,129.75,0.25,50,89.0
652,C2,130.0,0.25,50,89.0
653,G1,130.0,0.25,50,89.0
654,D3,130.0,0.25,50,89.0
655,B3,130.0,0.25,50,89.0
656,D3,130.25,0.25,50,89.0
657,B3,130.25,0.25,50,89.0
658,D4,130.5,0.25,50,89.0
659,D3,130.5,0.25,50,89.0
660,B3,130.5,0.25,50,89.0
661,A1,130.75,0.25,50,89.0
662,D3,130.75,0.25,50,89.0
663,B3,130.75,0.25,50,89.0
664,C2,131.0,0.25,50,89.0
665,G3,131.0,0.25,50,89.0
666,B3,131.0,0.25,50,89.0
667,B4,131.5,0.25,50,89.0
668,G1,131.5,0.25,50,89.0
669,C2,131.5,0.25,50,89.0
670,E-2,131.5,0.25,50,89.0
671,E3,131.5,0.25,50,89.0
672,C#4,131.5,0.25,50,89.0
673,D4,131.75,0.25,50,89.0
674,F#3,131.75,0.25,50,89.0
675,C2,132.0,0.25,50,89.0
676,D2,132.0,0.25,50,89.0
677,A3,132.0,0.25,50,89.0
678,A4,132.0,0.25,50,89.0
679,F#4,132.0,0.25,50,89.0
680,D4,132.0,0.25,50,89.0
681,A3,132.25,0.25,50,89.0
682,D3,132.25,0.25,50,89.0
683,F#4,132.5,0.25,50,89.0
684,A3,132.75,0.25,50,89.0
685,A1,132.75,0.25,50,89.0
686,E-2,132.75,0.25,50,89.0
687,D4,133.0,0.25,50,89.0
688,C2,133.0,0.25,50,89.0
689,A3,133.0,0.25,50,89.0
690,D3,133.0,0.25,50,89.0
691,A4,133.25,0.25,50,89.0
692,D3,133.25,0.25,50,89.0
693,A3,133.25,0.25,50,89.0
694,D2,133.5,0.25,50,89.0
695,C2,133.5,0.25,50,89.0
696,E-2,133.5,0.25,50,89.0
697,A3,133.5,0.25,50,89.0
698,D3,133.5,0.25,50,89.0
699,F#4,133.75,0.25,50,89.0
700,D3,133.75,0.25,50,89.0
701,A3,133.75,0.25,50,89.0
702,C2,134.0,0.25,50,89.0
703,D2,134.0,0.25,50,89.0
704,F#3,134.0,0.25,50,89.0
705,D4,134.0,0.25,50,89.0
706,F#3,134.25,0.25,50,89.0
707,D4,134.25,0.25,50,89.0
708,D4,134.5,0.25,50,89.0
709,D4,134.5,0.25,50,89.0
710,F#3,134.5,0.25,50,89.0
711,A1,134.75,0.25,50,89.0
712,E-2,134.75,0.25,50,89.0
713,F#3,134.75,0.25,50,89.0
714,D4,134.75,0.25,50,89.0
715,C2,135.0,0.25,50,89.0
716,D4,135.0,0.25,50,89.0
717,A3,135.0,0.25,50,89.0
718,A4,135.5,0.25,50,89.0
719,D2,135.5,0.25,50,89.0
720,C2,135.5,0.25,50,89.0
721,E-2,135.5,0.25,50,89.0
722,E4,135.5,0.25,50,89.0
723,D4,135.5,0.25,50,89.0
724,C#4,135.75,0.25,50,89.0
725,E4,135.75,0.25,50,89.0
726,C2,136.0,0.25,50,89.0
727,A1,136.0,0.25,50,89.0
728,C#4,136.0,0.25,50,89.0
729,A3,136.0,0.25,50,89.0
730,A4,136.0,0.25,50,89.0
731,E4,136.0,0.25,50,89.0
732,C#4,136.25,0.25,50,89.0
733,A3,136.25,0.25,50,89.0
734,E4,136.5,0.25,50,89.0
735,E-2,136.75,0.25,50,89.0
736,A1,136.75,0.25,50,89.0
737,C#4,137.0,0.25,50,89.0
738,C2,137.0,0.25,50,89.0
739,A4,137.25,0.25,50,89.0
740,A1,137.5,0.25,50,89.0
741,E-2,137.5,0.25,50,89.0
742,C2,137.5,0.25,50,89.0
743,E4,137.75,0.25,50,89.0
744,A3,138.0,0.25,50,89.0
745,D4,138.0,0.25,50,89.0
746,C#4,139.0,0.25,50,89.0
747,F#3,139.0,0.25,50,89.0
748,C2,140.0,0.25,50,89.0
749,B1,140.0,0.25,50,89.0
750,B4,140.0,0.25,50,89.0
751,D4,140.0,0.25,50,89.0
752,F#4,140.0,0.25,50,89.0
753,B3,140.0,0.25,50,89.0
754,B3,140.0,0.25,50,89.0
755,D3,140.0,0.25,50,89.0
756,F#4,140.5,0.25,50,89.0
757,F#3,140.5,0.25,50,89.0
758,B2,140.5,0.25,50,89.0
759,A1,140.75,0.25,50,89.0
760,E-2,140.75,0.25,50,89.0
761,D4,141.0,0.25,50,89.0
762,C2,141.0,0.25,50,89.0
763,B2,141.0,0.25,50,89.0
764,F#3,141.0,0.25,50,89.0
765,B4,141.25,0.25,50,89.0
766,F#3,141.25,0.25,50,89.0
767,B2,141.25,0.25,50,89.0
768,B1,141.5,0.25,50,89.0
769,C2,141.5,0.25,50,89.0
770,E-2,141.5,0.25,50,89.0
771,F#3,141.5,0.25,50,89.0
772,B2,141.5,0.25,50,89.0
773,F#4,141.75,0.25,50,89.0
774,F#3,141.75,0.25,50,89.0
775,B2,141.75,0.25,50,89.0
776,C2,142.0,0.25,50,89.0
777,B1,142.0,0.25,50,89.0
778,D3,142.0,0.25,50,89.0
779,F#3,142.0,0.25,50,89.0
780,D3,142.25,0.25,50,89.0
781,B3,142.25,0.25,50,89.0
782,D4,142.5,0.25,50,89.0
783,B3,142.5,0.25,50,89.0
784,D3,142.5,0.25,50,89.0
785,E-2,142.75,0.25,50,89.0
786,A1,142.75,0.25,50,89.0
787,B3,142.75,0.25,50,89.0
788,D3,142.75,0.25,50,89.0
789,C2,143.0,0.25,50,89.0
790,F#3,143.0,0.25,50,89.0
791,B3,143.0,0.25,50,89.0
792,B4,143.5,0.25,50,89.0
793,B1,143.5,0.25,50,89.0
794,C2,143.5,0.25,50,89.0
795,E-2,143.5,0.25,50,89.0
796,A3,143.5,0.25,50,89.0
797,D3,143.5,0.25,50,89.0
798,B3,143.75,0.25,50,89.0
799,D3,143.75,0.25,50,89.0
800,C2,144.0,0.25,50,89.0
801,G1,144.0,0.25,50,89.0
802,B3,144.0,0.25,50,89.0
803,G4,144.0,0.25,50,89.0
804,B4,144.0,0.25,50,89.0
805,D4,144.0,0.25,50,89.0
806,B2,144.25,0.25,50,89.0
807,G3,144.25,0.25,50,89.0
808,G4,144.5,0.25,50,89.0
809,A1,144.75,0.25,50,89.0
810,E-2,144.75,0.25,50,89.0
811,G3,144.75,0.25,50,89.0
812,B2,144.75,0.25,50,89.0
813,D4,145.0,0.25,50,89.0
814,C2,145.0,0.25,50,89.0
815,B2,145.0,0.25,50,89.0
816,G3,145.0,0.25,50,89.0
817,B4,145.25,0.25,50,89.0
818,B2,145.25,0.25,50,89.0
819,G3,145.25,0.25,50,89.0
820,G1,145.5,0.25,50,89.0
821,E-2,145.5,0.25,50,89.0
822,C2,145.5,0.25,50,89.0
823,G3,145.5,0.25,50,89.0
824,B2,145.5,0.25,50,89.0
825,G4,145.75,0.25,50,89.0
826,B2,145.75,0.25,50,89.0
827,G3,145.75,0.25,50,89.0
828,C2,146.0,0.25,50,89.0
829,G1,146.0,0.25,50,89.0
830,B3,146.0,0.25,50,89.0
831,D3,146.0,0.25,50,89.0
832,D3,146.25,0.25,50,89.0
833,B3,146.25,0.25,50,89.0
834,D4,146.5,0.25,50,89.0
835,D3,146.5,0.25,50,89.0
836,B3,146.5,0.25,50,89.0
837,A1,146.75,0.25,50,89.0
838,B3,146.75,0.25,50,89.0
839,G3,146.75,0.25,50,89.0
840,C2,147.0,0.25,50,89.0
841,G3,147.0,0.25,50,89.0
842,B3,147.0,0.25,50,89.0
843,B4,147.5,0.25,50,89.0
844,G1,147.5,0.25,50,89.0
845,C2,147.5,0.25,50,89.0
846,E-2,147.5,0.25,50,89.0
847,A3,147.5,0.25,50,89.0
848,C#4,147.5,0.25,50,89.0
849,G3,147.75,0.25,50,89.0
850,D4,147.75,0.25,50,89.0
851,C2,148.0,0.25,50,89.0
852,D2,148.0,0.25,50,89.0
853,A4,148.0,0.25,50,89.0
854,F#4,148.0,0.25,50,89.0
855,A3,148.0,0.25,50,89.0
856,D4,148.0,0.25,50,89.0
857,F#3,148.25,0.25,50,89.0
858,A3,148.25,0.25,50,89.0
859,F#4,148.5,0.25,50,89.0
860,E-2,148.75,0.25,50,89.0
861,A1,148.75,0.25,50,89.0
862,F#3,148.75,0.25,50,89.0
863,A3,148.75,0.25,50,89.0
864,D4,149.0,0.25,50,89.0
865,C2,149.0,0.25,50,89.0
866,A3,149.0,0.25,50,89.0
867,D3,149.0,0.25,50,89.0
868,A4,149.25,0.25,50,89.0
869,A3,149.25,0.25,50,89.0
870,D3,149.25,0.25,50,89.0
871,D2,149.5,0.25,50,89.0
872,C2,149.5,0.25,50,89.0
873,E-2,149.5,0.25,50,89.0
874,A3,149.5,0.25,50,89.0
875,D3,149.5,0.25,50,89.0
876,F#4,149.75,0.25,50,89.0
877,A3,149.75,0.25,50,89.0
878,D3,149.75,0.25,50,89.0
879,C2,150.0,0.25,50,89.0
880,D2,150.0,0.25,50,89.0
881,D4,150.0,0.25,50,89.0
882,F#3,150.0,0.25,50,89.0
883,D4,150.25,0.25,50,89.0
884,F#3,150.25,0.25,50,89.0
885,D4,150.5,0.25,50,89.0
886,F#3,150.5,0.25,50,89.0
887,D4,150.5,0.25,50,89.0
888,E-2,150.75,0.25,50,89.0
889,A1,150.75,0.25,50,89.0
890,D4,150.75,0.25,50,89.0
891,F#3,150.75,0.25,50,89.0
892,C2,151.0,0.25,50,89.0
893,D4,151.0,0.25,50,89.0
894,A3,151.0,0.25,50,89.0
895,A4,151.5,0.25,50,89.0
896,D2,151.5,0.25,50,89.0
897,C2,151.5,0.25,50,89.0
898,E-2,151.5,0.25,50,89.0
899,E4,151.5,0.25,50,89.0
900,D4,151.5,0.25,50,89.0
901,C#4,151.75,0.25,50,89.0
902,E4,151.75,0.25,50,89.0
903,C2,152.0,0.25,50,89.0
904,A1,152.0,0.25,50,89.0
905,E4,152.0,0.25,50,89.0
906,A4,152.0,0.25,50,89.0
907,A3,152.0,0.25,50,89.0
908,C#4,152.0,0.25,50,89.0
909,C#4,152.25,0.25,50,89.0
910,A3,152.25,0.25,50,89.0
911,E4,152.5,0.25,50,89.0
912,E-2,152.75,0.25,50,89.0
913,A1,152.75,0.25,50,89.0
914,C#4,153.0,0.25,50,89.0
915,C2,153.0,0.25,50,89.0
916,A4,153.25,0.25,50,89.0
917,A1,153.5,0.25,50,89.0
918,E-2,153.5,0.25,50,89.0
919,C2,153.5,0.25,50,89.0
920,E4,153.75,0.25,50,89.0
921,C2,154.0,0.25,50,89.0
922,A1,154.0,0.25,50,89.0
923,D4,154.0,0.25,50,89.0
924,C#4,154.5,0.25,50,89.0
925,A1,154.75,0.25,50,89.0
926,C2,155.0,0.25,50,89.0
927,C#4,155.0,0.25,50,89.0
928,A1,155.5,0.25,50,89.0
929,E-2,155.5,0.25,50,89.0
930,C2,155.5,0.25,50,89.0
931,C2,156.0,0.25,50,89.0
932,B1,156.0,0.25,50,89.0
933,F#4,156.0,0.125,50,89.0
934,F#3,156.0,0.25,50,89.0
935,B4,156.0,0.25,50,89.0
936,D4,156.0,0.25,50,89.0
937,F#4,156.0,0.25,50,89.0
938,E3,156.25,0.25,50,89.0
939,E4,156.25,0.25,50,89.0
940,F#4,156.5,0.25,50,89.0
941,F#3,156.5,0.25,50,89.0
942,F#4,156.5,0.125,50,89.0
943,E-2,156.75,0.25,50,89.0
944,A1,156.75,0.25,50,89.0
945,E3,156.75,0.25,50,89.0
946,E4,156.75,0.25,50,89.0
947,D4,157.0,0.25,50,89.0
948,C2,157.0,0.25,50,89.0
949,F#3,157.0,0.25,50,89.0
950,F#4,157.0,0.25,50,89.0
951,B4,157.25,0.25,50,89.0
952,B1,157.5,0.25,50,89.0
953,E-2,157.5,0.25,50,89.0
954,C2,157.5,0.25,50,89.0
955,E4,157.5,0.25,50,89.0
956,E3,157.5,0.25,50,89.0
957,F#4,157.75,0.25,50,89.0
958,F#3,157.75,0.25,50,89.0
959,F#4,157.75,0.125,50,89.0
960,C2,158.0,0.25,50,89.0
961,B1,158.0,0.25,50,89.0
962,E4,158.25,0.25,50,89.0
963,E3,158.25,0.25,50,89.0
964,D4,158.5,0.25,50,89.0
965,E-2,158.75,0.25,50,89.0
966,A1,158.75,0.25,50,89.0
967,F#3,158.75,0.25,50,89.0
968,F#4,158.75,0.25,50,89.0
969,C2,159.0,0.25,50,89.0
970,G3,159.25,0.25,50,89.0
971,G4,159.25,0.25,50,89.0
972,B4,159.5,0.25,50,89.0
973,B1,159.5,0.25,50,89.0
974,C2,159.5,0.25,50,89.0
975,E-2,159.5,0.25,50,89.0
976,G4,159.75,0.25,50,89.0
977,G3,159.75,0.25,50,89.0
978,C2,160.0,0.25,50,89.0
979,G1,160.0,0.25,50,89.0
980,G4,160.0,0.25,50,89.0
981,B4,160.0,0.25,50,89.0
982,D4,160.0,0.25,50,89.0
983,B3,160.0,0.25,50,89.0
984,D3,160.25,0.25,50,89.0
985,D4,160.25,0.25,50,89.0
986,G4,160.5,0.25,50,89.0
987,A4,160.75,0.25,50,89.0
988,E-2,160.75,0.25,50,89.0
989,A1,160.75,0.25,50,89.0
990,C2,161.0,0.25,50,89.0
991,D4,161.25,0.25,50,89.0
992,G1,161.5,0.25,50,89.0
993,E-2,161.5,0.25,50,89.0
994,C2,161.5,0.25,50,89.0
995,G4,161.75,0.25,50,89.0
996,G4,161.75,0.25,50,89.0
997,D4,161.75,0.25,50,89.0
998,C2,162.0,0.25,50,89.0
999,G1,162.0,0.25,50,89.0
1000,G4,162.25,0.25,50,89.0
1001,D4,162.25,0.25,50,89.0
1002,D4,162.5,0.25,50,89.0
1003,D4,162.5,0.125,50,89.0
1004,G4,162.5,0.25,50,89.0
1005,A1,162.75,0.25,50,89.0
1006,D4,162.75,0.25,50,89.0
1007,G4,162.75,0.25,50,89.0
1008,C2,163.0,0.25,50,89.0
1009,G4,163.25,0.25,50,89.0
1010,D4,163.25,0.25,50,89.0
1011,B4,163.5,0.25,50,89.0
1012,G1,163.5,0.25,50,89.0
1013,C2,163.5,0.25,50,89.0
1014,E-2,163.5,0.25,50,89.0
1015,A4,163.5,0.25,50,89.0
1016,D4,163.5,0.25,50,89.0
1017,G4,163.75,0.25,50,89.0
1018,D4,163.75,0.25,50,89.0
1019,C2,164.0,0.25,50,89.0
1020,D2,164.0,0.25,50,89.0
1021,D4,164.0,0.25,50,89.0
1022,A3,164.0,0.25,50,89.0
1023,F#4,164.0,0.25,50,89.0
1024,A4,164.0,0.25,50,89.0
1025,F#4,164.25,0.25,50,89.0
1026,D4,164.25,0.25,50,89.0
1027,F#4,164.5,0.25,50,89.0
1028,A4,164.75,0.25,50,89.0
1029,A1,164.75,0.25,50,89.0
1030,E-2,164.75,0.25,50,89.0
1031,C2,165.0,0.25,50,89.0
1032,D4,165.25,0.25,50,89.0
1033,D2,165.5,0.25,50,89.0
1034,C2,165.5,0.25,50,89.0
1035,E-2,165.5,0.25,50,89.0
1036,F#4,165.75,0.25,50,89.0
1037,D4,165.75,0.25,50,89.0
1038,F#4,165.75,0.125,50,89.0
1039,C2,166.0,0.25,50,89.0
1040,D2,166.0,0.25,50,89.0
1041,D4,166.25,0.25,50,89.0
1042,F#4,166.25,0.25,50,89.0
1043,A1,166.75,0.25,50,89.0
1044,E-2,166.75,0.25,50,89.0
1045,F#4,166.75,0.25,50,89.0
1046,A4,166.75,0.25,50,89.0
1047,C2,167.0,0.25,50,89.0
1048,G4,167.0,0.25,50,89.0
1049,E4,167.0,0.25,50,89.0
1050,A4,167.5,0.25,50,89.0
1051,D2,167.5,0.25,50,89.0
1052,C2,167.5,0.25,50,89.0
1053,E-2,167.5,0.25,50,89.0
1054,F#4,167.5,0.25,50,89.0
1055,D4,167.5,0.25,50,89.0
1056,E4,167.75,0.25,50,89.0
1057,A3,167.75,0.25,50,89.0
1058,C2,168.0,0.25,50,89.0
1059,A1,168.0,0.25,50,89.0
1060,A4,168.0,0.25,50,89.0
1061,A3,168.0,0.25,50,89.0
1062,C#4,168.0,0.25,50,89.0
1063,E4,168.0,0.25,50,89.0
1064,E4,168.5,0.25,50,89.0
1065,A4,168.75,0.25,50,89.0
1066,A1,168.75,0.25,50,89.0
1067,E-2,168.75,0.25,50,89.0
1068,C2,169.0,0.25,50,89.0
1069,E4,169.0,0.25,50,89.0
1070,C#4,169.25,0.25,50,89.0
1071,E4,169.25,0.25,50,89.0
1072,A1,169.5,0.25,50,89.0
1073,E4,169.5,0.25,50,89.0
1074,C2,169.5,0.25,50,89.0
1075,E-2,169.5,0.25,50,89.0
1076,E4,169.75,0.25,50,89.0
1077,E4,169.75,0.125,50,89.0
1078,C2,170.0,0.25,50,89.0
1079,A1,170.0,0.25,50,89.0
1080,E4,170.0,0.25,50,89.0
1081,E4,170.25,0.25,50,89.0
1082,C#4,170.5,0.25,50,89.0
1083,E4,170.5,0.25,50,89.0
1084,A1,170.75,0.25,50,89.0
1085,E4,170.75,0.25,50,89.0
1086,C2,171.0,0.25,50,89.0
1087,C#4,171.0,0.25,50,89.0
1088,A4,171.5,0.25,50,89.0
1089,A1,171.5,0.25,50,89.0
1090,D4,171.5,0.25,50,89.0
1091,E-2,171.5,0.25,50,89.0
1092,C2,171.5,0.25,50,89.0
1093,C2,172.0,0.25,50,89.0
1094,B1,172.0,0.25,50,89.0
1095,F#3,172.0,0.25,50,89.0
1096,F#4,172.0,0.125,50,89.0
1097,D4,172.0,0.25,50,89.0
1098,F#4,172.0,0.25,50,89.0
1099,B4,172.0,0.25,50,89.0
1100,E3,172.25,0.25,50,89.0
1101,E4,172.25,0.25,50,89.0
1102,F#4,172.5,0.25,50,89.0
1103,F#3,172.5,0.25,50,89.0
1104,F#4,172.5,0.125,50,89.0
1105,E-2,172.75,0.25,50,89.0
1106,A1,172.75,0.25,50,89.0
1107,E4,172.75,0.25,50,89.0
1108,E3,172.75,0.25,50,89.0
1109,D4,173.0,0.25,50,89.0
1110,C2,173.0,0.25,50,89.0
1111,F#3,173.0,0.25,50,89.0
1112,F#4,173.0,0.25,50,89.0
1113,B4,173.25,0.25,50,89.0
1114,E4,173.25,0.25,50,89.0
1115,E3,173.25,0.25,50,89.0
1116,B1,173.5,0.25,50,89.0
1117,C2,173.5,0.25,50,89.0
1118,E-2,173.5,0.25,50,89.0
1119,F#3,173.5,0.25,50,89.0
1120,F#4,173.5,0.25,50,89.0
1121,F#4,173.75,0.25,50,89.0
1122,C2,174.0,0.25,50,89.0
1123,B1,174.0,0.25,50,89.0
1124,E3,174.25,0.25,50,89.0
1125,E4,174.25,0.25,50,89.0
1126,D4,174.5,0.25,50,89.0
1127,F#3,174.5,0.25,50,89.0
1128,F#4,174.5,0.25,50,89.0
1129,A1,174.75,0.25,50,89.0
1130,E-2,174.75,0.25,50,89.0
1131,E3,174.75,0.25,50,89.0
1132,E4,174.75,0.25,50,89.0
1133,C2,175.0,0.25,50,89.0
1134,F#4,175.0,0.25,50,89.0
1135,F#3,175.0,0.25,50,89.0
1136,B4,175.5,0.25,50,89.0
1137,B1,175.5,0.25,50,89.0
1138,C2,175.5,0.25,50,89.0
1139,E-2,175.5,0.25,50,89.0
1140,G4,175.5,0.25,50,89.0
1141,G3,175.5,0.25,50,89.0
1142,G4,175.75,0.25,50,89.0
1143,G3,175.75,0.25,50,89.0
1144,C2,176.0,0.25,50,89.0
1145,G1,176.0,0.25,50,89.0
1146,B3,176.0,0.25,50,89.0
1147,D4,176.0,0.25,50,89.0
1148,G4,176.0,0.25,50,89.0
1149,B4,176.0,0.25,50,89.0
1150,D4,176.25,0.25,50,89.0
1151,D3,176.25,0.25,50,89.0
1152,G4,176.5,0.25,50,89.0
1153,A4,176.75,0.25,50,89.0
1154,E-2,176.75,0.25,50,89.0
1155,A1,176.75,0.25,50,89.0
1156,C2,177.0,0.25,50,89.0
1157,D4,177.25,0.25,50,89.0
1158,G1,177.5,0.25,50,89.0
1159,C2,177.5,0.25,50,89.0
1160,E-2,177.5,0.25,50,89.0
1161,G4,177.75,0.25,50,89.0
1162,G3,177.75,0.25,50,89.0
1163,G4,177.75,0.25,50,89.0
1164,D4,177.75,0.25,50,89.0
1165,C2,178.0,0.25,50,89.0
1166,G1,178.0,0.25,50,89.0
1167,G4,178.25,0.25,50,89.0
1168,D4,178.25,0.25,50,89.0
1169,G3,178.25,0.25,50,89.0
1170,D4,178.5,0.25,50,89.0
1171,D4,178.5,0.125,50,89.0
1172,G4,178.5,0.25,50,89.0
1173,G3,178.5,0.25,50,89.0
1174,A1,178.75,0.25,50,89.0
1175,G4,178.75,0.25,50,89.0
1176,D4,178.75,0.25,50,89.0
1177,G3,178.75,0.25,50,89.0
1178,C2,179.0,0.25,50,89.0
1179,G4,179.25,0.25,50,89.0
1180,G3,179.25,0.25,50,89.0
1181,D4,179.25,0.25,50,89.0
1182,B4,179.5,0.25,50,89.0
1183,G1,179.5,0.25,50,89.0
1184,C2,179.5,0.25,50,89.0
1185,E-2,179.5,0.25,50,89.0
1186,D4,179.5,0.25,50,89.0
1187,A4,179.5,0.25,50,89.0
1188,A3,179.5,0.25,50,89.0
1189,G4,179.75,0.25,50,89.0
1190,G3,179.75,0.25,50,89.0
1191,D4,179.75,0.25,50,89.0
1192,C2,180.0,0.25,50,89.0
1193,D2,180.0,0.25,50,89.0
1194,A3,180.0,0.25,50,89.0
1195,D4,180.0,0.25,50,89.0
1196,F#4,180.0,0.25,50,89.0
1197,A4,180.0,0.25,50,89.0
1198,F#3,180.25,0.25,50,89.0
1199,F#4,180.25,0.25,50,89.0
1200,D4,180.25,0.25,50,89.0
1201,F#4,180.5,0.25,50,89.0
1202,A4,180.75,0.25,50,89.0
1203,E-2,180.75,0.25,50,89.0
1204,A1,180.75,0.25,50,89.0
1205,C2,181.0,0.25,50,89.0
1206,D4,181.25,0.25,50,89.0
1207,D2,181.5,0.25,50,89.0
1208,E-2,181.5,0.25,50,89.0
1209,C2,181.5,0.25,50,89.0
1210,F#4,181.75,0.25,50,89.0
1211,F#4,181.75,0.125,50,89.0
1212,F#3,181.75,0.25,50,89.0
1213,D4,181.75,0.25,50,89.0
1214,C2,182.0,0.25,50,89.0
1215,D2,182.0,0.25,50,89.0
1216,F#4,182.25,0.25,50,89.0
1217,F#3,182.25,0.25,50,89.0
1218,D4,182.25,0.25,50,89.0
1219,A1,182.75,0.25,50,89.0
1220,E-2,182.75,0.25,50,89.0
1221,A4,182.75,0.25,50,89.0
1222,F#4,182.75,0.25,50,89.0
1223,A3,182.75,0.25,50,89.0
1224,C2,183.0,0.25,50,89.0
1225,G4,183.0,0.25,50,89.0
1226,E4,183.0,0.25,50,89.0
1227,G3,183.0,0.25,50,89.0
1228,A4,183.5,0.25,50,89.0
1229,D2,183.5,0.25,50,89.0
1230,E-2,183.5,0.25,50,89.0
1231,C2,183.5,0.25,50,89.0
1232,F#4,183.5,0.25,50,89.0
1233,D4,183.5,0.25,50,89.0
1234,F#3,183.5,0.25,50,89.0
1235,E4,183.75,0.25,50,89.0
1236,E3,183.75,0.25,50,89.0
1237,A3,183.75,0.25,50,89.0
1238,C2,184.0,0.25,50,89.0
1239,A1,184.0,0.25,50,89.0
1240,A3,184.0,0.25,50,89.0
1241,C#4,184.0,0.25,50,89.0
1242,E4,184.0,0.25,50,89.0
1243,A4,184.0,0.25,50,89.0
1244,A1,184.75,0.25,50,89.0
1245,E-2,184.75,0.25,50,89.0
1246,C2,185.0,0.25,50,89.0
1247,A1,185.5,0.25,50,89.0
1248,E-2,185.5,0.25,50,89.0
1249,C2,185.5,0.25,50,89.0
1250,C2,186.0,0.25,50,89.0
1251,A1,186.0,0.25,50,89.0
1252,D4,186.25,0.25,50,89.0
1253,D4,186.5,0.25,50,89.0
1254,D4,186.75,0.25,50,89.0
1255,D4,187.0,0.25,50,89.0
1256,D4,187.25,0.25,50,89.0
1257,D4,187.5,0.25,50,89.0
1258,B3,187.75,0.25,50,89.0
1259,B2,188.0,0.25,50,89.0
1260,C2,188.0,0.25,50,89.0
1261,B1,188.0,0.25,50,89.0
1262,D4,188.0,0.125,50,89.0
1263,B3,188.25,0.125,50,89.0
1264,B3,188.375,0.125,50,89.0
1265,D2,188.75,0.25,50,89.0
1266,B3,188.75,0.125,50,89.0
1267,D3,189.0,0.25,50,89.0
1268,C2,189.0,0.25,50,89.0
1269,D2,189.0,0.25,50,89.0
1270,D4,189.0,0.125,50,89.0
1271,D4,189.25,0.125,50,89.0
1272,F#3,189.5,0.25,50,89.0
1273,C2,189.5,0.25,50,89.0
1274,F#2,189.5,0.25,50,89.0
1275,D4,189.5,0.125,50,89.0
1276,B3,189.75,0.125,50,89.0
1277,F#2,190.0,0.25,50,89.0
1278,C2,190.0,0.25,50,89.0
1279,B1,190.0,0.25,50,89.0
1280,D4,190.0,0.125,50,89.0
1281,B3,190.25,0.125,50,89.0
1282,B3,190.375,0.125,50,89.0
1283,D2,190.75,0.25,50,89.0
1284,B3,190.75,0.125,50,89.0
1285,D3,191.0,0.25,50,89.0
1286,C2,191.0,0.25,50,89.0
1287,D2,191.0,0.25,50,89.0
1288,D4,191.0,0.125,50,89.0
1289,D4,191.25,0.125,50,89.0
1290,F#3,191.5,0.25,50,89.0
1291,C2,191.5,0.25,50,89.0
1292,F#2,191.5,0.25,50,89.0
1293,D4,191.5,0.125,50,89.0
1294,B3,191.75,0.125,50,89.0
1295,G2,192.0,0.25,50,89.0
1296,C2,192.0,0.25,50,89.0
1297,G1,192.0,0.25,50,89.0
1298,D4,192.0,0.125,50,89.0
1299,B3,192.25,0.125,50,89.0
1300,B3,192.375,0.125,50,89.0
1301,D2,192.75,0.25,50,89.0
1302,B3,192.75,0.125,50,89.0
1303,B2,193.0,0.25,50,89.0
1304,C2,193.0,0.25,50,89.0
1305,B1,193.0,0.25,50,89.0
1306,D4,193.0,0.125,50,89.0
1307,D4,193.25,0.125,50,89.0
1308,D3,193.5,0.25,50,89.0
1309,C2,193.5,0.25,50,89.0
1310,D2,193.5,0.25,50,89.0
1311,D4,193.5,0.125,50,89.0
1312,B3,193.75,0.125,50,89.0
1313,G3,194.0,0.25,50,89.0
1314,C2,194.0,0.25,50,89.0
1315,G1,194.0,0.25,50,89.0
1316,D4,194.0,0.125,50,89.0
1317,B3,194.25,0.125,50,89.0
1318,B3,194.375,0.125,50,89.0
1319,D2,194.75,0.25,50,89.0
1320,B3,194.75,0.125,50,89.0
1321,B2,195.0,0.25,50,89.0
1322,C2,195.0,0.25,50,89.0
1323,B1,195.0,0.25,50,89.0
1324,E4,195.0,0.125,50,89.0
1325,E4,195.25,0.125,50,89.0
1326,D3,195.5,0.25,50,89.0
1327,C2,195.5,0.25,50,89.0
1328,D2,195.5,0.25,50,89.0
1329,E4,195.5,0.125,50,89.0
1330,D4,195.75,0.125,50,89.0
1331,D3,196.0,0.25,50,89.0
1332,C2,196.0,0.25,50,89.0
1333,D2,196.0,0.25,50,89.0
1334,E4,196.0,0.125,50,89.0
1335,E4,196.25,0.125,50,89.0
1336,E4,196.5,0.125,50,89.0
1337,D2,196.75,0.25,50,89.0
1338,D4,196.75,0.125,50,89.0
1339,F#3,197.0,0.25,50,89.0
1340,C2,197.0,0.25,50,89.0
1341,F#2,197.0,0.25,50,89.0
1342,E4,197.0,0.125,50,89.0
1343,F#4,197.25,0.125,50,89.0
1344,A3,197.5,0.25,50,89.0
1345,C2,197.5,0.25,50,89.0
1346,A2,197.5,0.25,50,89.0
1347,D4,197.5,0.125,50,89.0
1348,D4,197.75,0.125,50,89.0
1349,D3,198.0,0.25,50,89.0
1350,C2,198.0,0.25,50,89.0
1351,D2,198.0,0.25,50,89.0
1352,D4,198.0,0.125,50,89.0
1353,C2,198.5,0.25,50,89.0
1354,D2,198.5,0.125,50,89.0
1355,D2,198.5,0.25,50,89.0
1356,D4,198.5,0.125,50,89.0
1357,E4,199.0,0.125,50,89.0
1358,E4,199.25,0.125,50,89.0
1359,E4,199.5,0.125,50,89.0
1360,D4,199.75,0.125,50,89.0
1361,A2,200.0,0.25,50,89.0
1362,C2,200.0,0.25,50,89.0
1363,A1,200.0,0.25,50,89.0
1364,E4,200.0,0.125,50,89.0
1365,E4,200.25,0.125,50,89.0
1366,E4,200.5,0.125,50,89.0
1367,D2,200.75,0.25,50,89.0
1368,D4,200.75,0.125,50,89.0
1369,C#3,201.0,0.25,50,89.0
1370,C2,201.0,0.25,50,89.0
1371,C#2,201.0,0.25,50,89.0
1372,E4,201.0,0.125,50,89.0
1373,F#4,201.25,0.125,50,89.0
1374,E3,201.5,0.25,50,89.0
1375,C2,201.5,0.25,50,89.0
1376,E2,201.5,0.25,50,89.0
1377,D4,201.5,0.125,50,89.0
1378,D4,201.75,0.125,50,89.0
1379,A2,202.0,0.25,50,89.0
1380,C2,202.0,0.25,50,89.0
1381,A1,202.0,0.25,50,89.0
1382,D4,202.0,0.125,50,89.0
1383,A1,202.5,0.25,50,89.0
1384,D4,202.5,0.125,50,89.0
1385,C2,202.5,0.25,50,89.0
1386,D2,202.5,0.25,50,89.0
1387,D4,202.75,0.125,50,89.0
1388,D4,203.0,0.125,50,89.0
1389,D4,203.25,0.125,50,89.0
1390,D4,203.5,0.125,50,89.0
1391,B3,203.75,0.125,50,89.0
1392,B2,204.0,0.25,50,89.0
1393,C2,204.0,0.25,50,89.0
1394,B1,204.0,0.25,50,89.0
1395,D4,204.0,0.125,50,89.0
1396,D4,204.25,0.125,50,89.0
1397,D4,204.5,0.125,50,89.0
1398,F#4,204.75,0.25,50,89.0
1399,D2,204.75,0.25,50,89.0
1400,B3,204.75,0.125,50,89.0
1401,C2,205.0,0.25,50,89.0
1402,D2,205.0,0.25,50,89.0
1403,D4,205.0,0.125,50,89.0
1404,D3,205.0,0.25,50,89.0
1405,D5,205.0,0.25,50,89.0
1406,D4,205.25,0.125,50,89.0
1407,C2,205.5,0.25,50,89.0
1408,F#2,205.5,0.25,50,89.0
1409,D4,205.5,0.125,50,89.0
1410,B4,205.5,0.25,50,89.0
1411,F#3,205.5,0.25,50,89.0
1412,D5,205.75,0.25,50,89.0
1413,B3,205.75,0.125,50,89.0
1414,F#2,206.0,0.25,50,89.0
1415,C2,206.0,0.25,50,89.0
1416,B1,206.0,0.25,50,89.0
1417,E4,206.0,0.125,50,89.0
1418,F#4,206.25,0.25,50,89.0
1419,B4,206.5,0.25,50,89.0
1420,D4,206.5,0.125,50,89.0
1421,D2,206.75,0.25,50,89.0
1422,D3,207.0,0.25,50,89.0
1423,C2,207.0,0.25,50,89.0
1424,D2,207.0,0.25,50,89.0
1425,D4,207.0,0.125,50,89.0
1426,D4,207.125,0.125,50,89.0
1427,D4,207.375,0.125,50,89.0
1428,F#3,207.5,0.25,50,89.0
1429,C2,207.5,0.25,50,89.0
1430,F#2,207.5,0.25,50,89.0
1431,D4,207.5,0.125,50,89.0
1432,D4,207.75,0.125,50,89.0
1433,D4,207.875,0.125,50,89.0
1434,G2,208.0,0.25,50,89.0
1435,C2,208.0,0.25,50,89.0
1436,G1,208.0,0.25,50,89.0
1437,D4,208.0,0.125,50,89.0
1438,D4,208.25,0.125,50,89.0
1439,D4,208.5,0.125,50,89.0
1440,B4,208.75,0.25,50,89.0
1441,D2,208.75,0.25,50,89.0
1442,D4,208.75,0.125,50,89.0
1443,C2,209.0,0.25,50,89.0
1444,B1,209.0,0.25,50,89.0
1445,D4,209.0,0.125,50,89.0
1446,B2,209.0,0.25,50,89.0
1447,B4,209.0,0.25,50,89.0
1448,D4,209.25,0.125,50,89.0
1449,C2,209.5,0.25,50,89.0
1450,D2,209.5,0.25,50,89.0
1451,D4,209.5,0.125,50,89.0
1452,C#5,209.5,0.25,50,89.0
1453,D3,209.5,0.25,50,89.0
1454,D5,209.75,0.25,50,89.0
1455,B3,209.75,0.125,50,89.0
1456,G3,210.0,0.25,50,89.0
1457,C2,210.0,0.25,50,89.0
1458,G1,210.0,0.25,50,89.0
1459,E4,210.0,0.125,50,89.0
1460,B4,210.25,0.25,50,89.0
1461,D4,210.5,0.125,50,89.0
1462,D2,210.75,0.25,50,89.0
1463,B2,211.0,0.25,50,89.0
1464,C2,211.0,0.25,50,89.0
1465,B1,211.0,0.25,50,89.0
1466,D4,211.0,0.125,50,89.0
1467,D4,211.25,0.125,50,89.0
1468,D3,211.5,0.25,50,89.0
1469,C2,211.5,0.25,50,89.0
1470,D2,211.5,0.25,50,89.0
1471,D4,211.5,0.125,50,89.0
1472,D4,211.75,0.125,50,89.0
1473,D3,212.0,0.25,50,89.0
1474,C2,212.0,0.25,50,89.0
1475,D2,212.0,0.25,50,89.0
1476,D4,212.0,0.125,50,89.0
1477,F#4,212.25,0.125,50,89.0
1478,F#4,212.5,0.125,50,89.0
1479,D2,212.75,0.25,50,89.0
1480,F#4,212.75,0.125,50,89.0
1481,F#3,213.0,0.25,50,89.0
1482,C2,213.0,0.25,50,89.0
1483,F#2,213.0,0.25,50,89.0
1484,F#4,213.0,0.125,50,89.0
1485,A4,213.25,0.125,50,89.0
1486,A3,213.5,0.25,50,89.0
1487,C2,213.5,0.25,50,89.0
1488,A2,213.5,0.25,50,89.0
1489,D4,213.5,0.125,50,89.0
1490,D4,213.75,0.125,50,89.0
1491,D3,214.0,0.25,50,89.0
1492,C2,214.0,0.25,50,89.0
1493,D2,214.0,0.25,50,89.0
1494,D4,214.0,0.125,50,89.0
1495,D4,214.5,0.125,50,89.0
1496,D2,214.75,0.25,50,89.0
1497,C2,215.0,0.25,50,89.0
1498,F#2,215.0,0.25,50,89.0
1499,D4,215.0,0.125,50,89.0
1500,F#4,215.25,0.125,50,89.0
1501,C2,215.5,0.25,50,89.0
1502,A2,215.5,0.25,50,89.0
1503,F#4,215.5,0.125,50,89.0
1504,F#4,215.75,0.125,50,89.0
1505,A2,216.0,0.25,50,89.0
1506,C2,216.0,0.25,50,89.0
1507,A1,216.0,0.25,50,89.0
1508,E4,216.0,0.125,50,89.0
1509,E4,216.375,0.125,50,89.0
1510,D2,216.75,0.25,50,89.0
1511,E4,216.75,0.125,50,89.0
1512,C#3,217.0,0.25,50,89.0
1513,C2,217.0,0.25,50,89.0
1514,C#2,217.0,0.25,50,89.0
1515,E4,217.0,0.125,50,89.0
1516,E3,217.5,0.25,50,89.0
1517,C2,217.5,0.25,50,89.0
1518,E2,217.5,0.25,50,89.0
1519,E4,217.5,0.125,50,89.0
1520,D4,217.75,0.125,50,89.0
1521,A2,218.0,0.25,50,89.0
1522,C2,218.0,0.25,50,89.0
1523,A1,218.0,0.25,50,89.0
1524,E4,218.0,0.125,50,89.0
1525,A1,218.5,0.25,50,89.0
1526,D4,218.5,0.125,50,89.0
1527,C2,218.5,0.25,50,89.0
1528,D2,218.5,0.25,50,89.0
1529,F#3,218.75,0.125,50,89.0
1530,D4,219.0,0.125,50,89.0
1531,D4,219.5,0.125,50,89.0
1532,D4,219.75,0.125,50,89.0
1533,B2,220.0,0.25,50,89.0
1534,C2,220.0,0.25,50,89.0
1535,B1,220.0,0.25,50,89.0
1536,B3,220.0,0.25,50,89.0
1537,B3,220.5,0.25,50,89.0
1538,D2,220.75,0.25,50,89.0
1539,D3,221.0,0.25,50,89.0
1540,C2,221.0,0.25,50,89.0
1541,D2,221.0,0.25,50,89.0
1542,D4,221.0,0.25,50,89.0
1543,D4,221.25,0.25,50,89.0
1544,F#3,221.5,0.25,50,89.0
1545,C2,221.5,0.25,50,89.0
1546,F#2,221.5,0.25,50,89.0
1547,D4,221.5,0.25,50,89.0
1548,D4,221.75,0.25,50,89.0
1549,F#2,222.0,0.25,50,89.0
1550,C2,222.0,0.25,50,89.0
1551,B1,222.0,0.25,50,89.0
1552,B3,222.0,0.25,50,89.0
1553,B3,222.5,0.25,50,89.0
1554,D2,222.75,0.25,50,89.0
1555,F#3,222.75,0.25,50,89.0
1556,D3,223.0,0.25,50,89.0
1557,C2,223.0,0.25,50,89.0
1558,D2,223.0,0.25,50,89.0
1559,D4,223.0,0.25,50,89.0
1560,F#3,223.5,0.25,50,89.0
1561,C2,223.5,0.25,50,89.0
1562,F#2,223.5,0.25,50,89.0
1563,D4,223.5,0.25,50,89.0
1564,D4,223.75,0.25,50,89.0
1565,G2,224.0,0.25,50,89.0
1566,C2,224.0,0.25,50,89.0
1567,G1,224.0,0.25,50,89.0
1568,B3,224.0,0.25,50,89.0
1569,B3,224.5,0.25,50,89.0
1570,D2,224.75,0.25,50,89.0
1571,G3,224.75,0.25,50,89.0
1572,B2,225.0,0.25,50,89.0
1573,C2,225.0,0.25,50,89.0
1574,B1,225.0,0.25,50,89.0
1575,D4,225.0,0.25,50,89.0
1576,D3,225.5,0.25,50,89.0
1577,C2,225.5,0.25,50,89.0
1578,D2,225.5,0.25,50,89.0
1579,D4,225.5,0.25,50,89.0
1580,D4,225.75,0.25,50,89.0
1581,G3,226.0,0.25,50,89.0
1582,C2,226.0,0.25,50,89.0
1583,G1,226.0,0.25,50,89.0
1584,B3,226.0,0.25,50,89.0
1585,B3,226.5,0.25,50,89.0
1586,D2,226.75,0.25,50,89.0
1587,B2,227.0,0.25,50,89.0
1588,C2,227.0,0.25,50,89.0
1589,B1,227.0,0.25,50,89.0
1590,E4,227.0,0.25,50,89.0
1591,E4,227.25,0.25,50,89.0
1592,D3,227.5,0.25,50,89.0
1593,C2,227.5,0.25,50,89.0
1594,D2,227.5,0.25,50,89.0
1595,E4,227.5,0.25,50,89.0
1596,D4,227.75,0.25,50,89.0
1597,D3,228.0,0.25,50,89.0
1598,C2,228.0,0.25,50,89.0
1599,D2,228.0,0.25,50,89.0
1600,E4,228.0,0.25,50,89.0
1601,D4,228.5,0.25,50,89.0
1602,D2,228.75,0.25,50,89.0
1603,D4,228.75,0.25,50,89.0
1604,F#3,229.0,0.25,50,89.0
1605,C2,229.0,0.25,50,89.0
1606,F#2,229.0,0.25,50,89.0
1607,E4,229.0,0.25,50,89.0
1608,E4,229.25,0.25,50,89.0
1609,A3,229.5,0.25,50,89.0
1610,C2,229.5,0.25,50,89.0
1611,A2,229.5,0.25,50,89.0
1612,E4,229.5,0.25,50,89.0
1613,D4,229.75,0.25,50,89.0
1614,D3,230.0,0.25,50,89.0
1615,C2,230.0,0.25,50,89.0
1616,D2,230.0,0.25,50,89.0
1617,E4,230.0,0.25,50,89.0
1618,D4,230.5,0.25,50,89.0
1619,D2,230.75,0.25,50,89.0
1620,D4,230.75,0.25,50,89.0
1621,C2,231.0,0.25,50,89.0
1622,F#2,231.0,0.25,50,89.0
1623,D4,231.0,0.25,50,89.0
1624,C2,231.5,0.25,50,89.0
1625,A2,231.5,0.25,50,89.0
1626,D4,231.5,0.25,50,89.0
1627,D4,231.75,0.25,50,89.0
1628,A2,232.0,0.25,50,89.0
1629,C2,232.0,0.25,50,89.0
1630,A1,232.0,0.25,50,89.0
1631,C#4,232.0,0.25,50,89.0
1632,C#4,232.375,0.25,50,89.0
1633,D2,232.75,0.25,50,89.0
1634,C#4,232.75,0.25,50,89.0
1635,C#3,233.0,0.25,50,89.0
1636,C2,233.0,0.25,50,89.0
1637,C#2,233.0,0.25,50,89.0
1638,C#4,233.0,0.25,50,89.0
1639,E3,233.5,0.25,50,89.0
1640,C2,233.5,0.25,50,89.0
1641,E2,233.5,0.25,50,89.0
1642,C#4,233.5,0.25,50,89.0
1643,B3,233.75,0.25,50,89.0
1644,A2,234.0,0.25,50,89.0
1645,C2,234.0,0.25,50,89.0
1646,A1,234.0,0.25,50,89.0
1647,D4,234.0,0.25,50,89.0
1648,A1,234.5,0.25,50,89.0
1649,C#4,234.5,0.25,50,89.0
1650,D2,234.5,0.25,50,89.0
1651,C2,234.5,0.25,50,89.0
1652,F#3,234.75,0.25,50,89.0
1653,D4,235.0,0.25,50,89.0
1654,F#4,235.0,0.25,50,89.0
1655,F#4,235.5,0.25,50,89.0
1656,D4,235.5,0.25,50,89.0
1657,F#4,235.75,0.25,50,89.0
1658,C#4,235.75,0.25,50,89.0
1659,B2,236.0,0.25,50,89.0
1660,C#5,236.0,0.25,50,89.0
1661,D4,236.0,0.25,50,89.0
1662,B3,236.0,0.25,50,89.0
1663,B-5,236.5,0.25,50,89.0
1664,B3,236.5,0.25,50,89.0
1665,D4,236.5,0.25,50,89.0
1666,B-5,236.75,0.25,50,89.0
1667,D3,237.0,0.25,50,89.0
1668,C#5,237.0,0.25,50,89.0
1669,F#4,237.0,0.25,50,89.0
1670,D4,237.0,0.25,50,89.0
1671,D4,237.25,0.25,50,89.0
1672,F#4,237.25,0.25,50,89.0
1673,F#3,237.5,0.25,50,89.0
1674,B-5,237.5,0.25,50,89.0
1675,F#4,237.5,0.25,50,89.0
1676,D4,237.5,0.25,50,89.0
1677,B-5,237.75,0.25,50,89.0
1678,D4,237.75,0.25,50,89.0
1679,F#4,237.75,0.25,50,89.0
1680,B2,238.0,0.25,50,89.0
1681,C#5,238.0,0.25,50,89.0
1682,B3,238.0,0.25,50,89.0
1683,D4,238.0,0.25,50,89.0
1684,B-5,238.5,0.25,50,89.0
1685,B3,238.5,0.25,50,89.0
1686,D4,238.5,0.25,50,89.0
1687,B-5,238.75,0.25,50,89.0
1688,F#3,238.75,0.25,50,89.0
1689,D3,239.0,0.25,50,89.0
1690,C#5,239.0,0.25,50,89.0
1691,F#4,239.0,0.25,50,89.0
1692,D4,239.0,0.25,50,89.0
1693,F#3,239.5,0.25,50,89.0
1694,B-5,239.5,0.25,50,89.0
1695,F#4,239.5,0.25,50,89.0
1696,D4,239.5,0.25,50,89.0
1697,B-5,239.75,0.25,50,89.0
1698,D4,239.75,0.25,50,89.0
1699,F#4,239.75,0.25,50,89.0
1700,G2,240.0,0.25,50,89.0
1701,C#5,240.0,0.25,50,89.0
1702,D4,240.0,0.25,50,89.0
1703,B3,240.0,0.25,50,89.0
1704,B-5,240.5,0.25,50,89.0
1705,B3,240.5,0.25,50,89.0
1706,D4,240.5,0.25,50,89.0
1707,B-5,240.75,0.25,50,89.0
1708,G3,240.75,0.25,50,89.0
1709,B2,241.0,0.25,50,89.0
1710,C#5,241.0,0.25,50,89.0
1711,G4,241.0,0.25,50,89.0
1712,D4,241.0,0.25,50,89.0
1713,D3,241.5,0.25,50,89.0
1714,B-5,241.5,0.25,50,89.0
1715,G4,241.5,0.25,50,89.0
1716,D4,241.5,0.25,50,89.0
1717,B-5,241.75,0.25,50,89.0
1718,D4,241.75,0.25,50,89.0
1719,G4,241.75,0.25,50,89.0
1720,G3,242.0,0.25,50,89.0
1721,C#5,242.0,0.25,50,89.0
1722,B3,242.0,0.25,50,89.0
1723,D4,242.0,0.25,50,89.0
1724,B-5,242.5,0.25,50,89.0
1725,D4,242.5,0.25,50,89.0
1726,B3,242.5,0.25,50,89.0
1727,B-5,242.75,0.25,50,89.0
1728,B2,243.0,0.25,50,89.0
1729,C#5,243.0,0.25,50,89.0
1730,G4,243.0,0.25,50,89.0
1731,E4,243.0,0.25,50,89.0
1732,G4,243.25,0.25,50,89.0
1733,E4,243.25,0.25,50,89.0
1734,D3,243.5,0.25,50,89.0
1735,B-5,243.5,0.25,50,89.0
1736,G4,243.5,0.25,50,89.0
1737,E4,243.5,0.25,50,89.0
1738,B-5,243.75,0.25,50,89.0
1739,G4,243.75,0.25,50,89.0
1740,D4,243.75,0.25,50,89.0
1741,D3,244.0,0.25,50,89.0
1742,C#5,244.0,0.25,50,89.0
1743,E4,244.0,0.25,50,89.0
1744,G4,244.0,0.25,50,89.0
1745,B-5,244.5,0.25,50,89.0
1746,F#4,244.5,0.25,50,89.0
1747,D4,244.5,0.25,50,89.0
1748,B-5,244.75,0.25,50,89.0
1749,D4,244.75,0.25,50,89.0
1750,F#3,245.0,0.25,50,89.0
1751,C#5,245.0,0.25,50,89.0
1752,E4,245.0,0.25,50,89.0
1753,E4,245.25,0.25,50,89.0
1754,A3,245.5,0.25,50,89.0
1755,B-5,245.5,0.25,50,89.0
1756,E4,245.5,0.25,50,89.0
1757,B-5,245.75,0.25,50,89.0
1758,D4,245.75,0.25,50,89.0
1759,D3,246.0,0.25,50,89.0
1760,C#5,246.0,0.25,50,89.0
1761,E4,246.0,0.25,50,89.0
1762,B-5,246.5,0.25,50,89.0
1763,D4,246.5,0.25,50,89.0
1764,B-5,246.75,0.25,50,89.0
1765,D4,246.75,0.25,50,89.0
1766,C#5,247.0,0.25,50,89.0
1767,D4,247.0,0.25,50,89.0
1768,B-5,247.5,0.25,50,89.0
1769,D4,247.5,0.25,50,89.0
1770,B-5,247.75,0.25,50,89.0
1771,D4,247.75,0.25,50,89.0
1772,A2,248.0,0.25,50,89.0
1773,C#5,248.0,0.25,50,89.0
1774,C#4,248.0,0.25,50,89.0
1775,C#4,248.375,0.25,50,89.0
1776,B-5,248.5,0.25,50,89.0
1777,B-5,248.75,0.25,50,89.0
1778,C#4,248.75,0.25,50,89.0
1779,C#3,249.0,0.25,50,89.0
1780,C#5,249.0,0.25,50,89.0
1781,C#4,249.0,0.25,50,89.0
1782,E3,249.5,0.25,50,89.0
1783,B-5,249.5,0.25,50,89.0
1784,C#4,249.5,0.25,50,89.0
1785,B-5,249.75,0.25,50,89.0
1786,B3,249.75,0.25,50,89.0
1787,A2,250.0,0.25,50,89.0
1788,C#5,250.0,0.25,50,89.0
1789,D4,250.0,0.25,50,89.0
1790,C#4,250.5,0.25,50,89.0
1791,B3,251.0,0.25,50,89.0
1792,B3,251.5,0.25,50,89.0
1793,D4,254.0,0.25,50,89.0
1794,C#4,255.0,0.25,50,89.0
1795,C2,256.0,0.25,50,89.0
1796,B1,256.0,0.25,50,89.0
1797,F#4,256.0,0.25,50,89.0
1798,B4,256.0,0.25,50,89.0
1799,D4,256.0,0.25,50,89.0
1800,B3,256.0,0.25,50,89.0
1801,B3,256.0,0.25,50,89.0
1802,B2,256.0,0.25,50,89.0
1803,F#4,256.5,0.25,50,89.0
1804,F#2,256.5,0.25,50,89.0
1805,F#3,256.5,0.25,50,89.0
1806,E-2,256.75,0.25,50,89.0
1807,A1,256.75,0.25,50,89.0
1808,D4,257.0,0.25,50,89.0
1809,C2,257.0,0.25,50,89.0
1810,F#3,257.0,0.25,50,89.0
1811,F#2,257.0,0.25,50,89.0
1812,B4,257.25,0.25,50,89.0
1813,F#3,257.25,0.25,50,89.0
1814,F#2,257.25,0.25,50,89.0
1815,B1,257.5,0.25,50,89.0
1816,C2,257.5,0.25,50,89.0
1817,E-2,257.5,0.25,50,89.0
1818,F#2,257.5,0.25,50,89.0
1819,F#3,257.5,0.25,50,89.0
1820,F#4,257.75,0.25,50,89.0
1821,F#2,257.75,0.25,50,89.0
1822,F#3,257.75,0.25,50,89.0
1823,C2,258.0,0.25,50,89.0
1824,B1,258.0,0.25,50,89.0
1825,F#2,258.0,0.25,50,89.0
1826,F#3,258.0,0.25,50,89.0
1827,B2,258.25,0.25,50,89.0
1828,B3,258.25,0.25,50,89.0
1829,D4,258.5,0.25,50,89.0
1830,B2,258.5,0.25,50,89.0
1831,B3,258.5,0.25,50,89.0
1832,A1,258.75,0.25,50,89.0
1833,E-2,258.75,0.25,50,89.0
1834,B3,258.75,0.25,50,89.0
1835,B2,258.75,0.25,50,89.0
1836,C2,259.0,0.25,50,89.0
1837,B2,259.0,0.25,50,89.0
1838,B3,259.0,0.25,50,89.0
1839,B4,259.5,0.25,50,89.0
1840,B1,259.5,0.25,50,89.0
1841,C2,259.5,0.25,50,89.0
1842,E-2,259.5,0.25,50,89.0
1843,A2,259.5,0.25,50,89.0
1844,A3,259.5,0.25,50,89.0
1845,B3,259.75,0.25,50,89.0
1846,B2,259.75,0.25,50,89.0
1847,C2,260.0,0.25,50,89.0
1848,G1,260.0,0.25,50,89.0
1849,B3,260.0,0.25,50,89.0
1850,D4,260.0,0.25,50,89.0
1851,G4,260.0,0.25,50,89.0
1852,B4,260.0,0.25,50,89.0
1853,G2,260.25,0.25,50,89.0
1854,G3,260.25,0.25,50,89.0
1855,G4,260.5,0.25,50,89.0
1856,A1,260.75,0.25,50,89.0
1857,E-2,260.75,0.25,50,89.0
1858,G2,260.75,0.25,50,89.0
1859,G3,260.75,0.25,50,89.0
1860,D4,261.0,0.25,50,89.0
1861,C2,261.0,0.25,50,89.0
1862,G2,261.0,0.25,50,89.0
1863,G3,261.0,0.25,50,89.0
1864,B4,261.25,0.25,50,89.0
1865,G3,261.25,0.25,50,89.0
1866,G2,261.25,0.25,50,89.0
1867,G1,261.5,0.25,50,89.0
1868,C2,261.5,0.25,50,89.0
1869,E-2,261.5,0.25,50,89.0
1870,G3,261.5,0.25,50,89.0
1871,G2,261.5,0.25,50,89.0
1872,G4,261.75,0.25,50,89.0
1873,G2,261.75,0.25,50,89.0
1874,G3,261.75,0.25,50,89.0
1875,C2,262.0,0.25,50,89.0
1876,G1,262.0,0.25,50,89.0
1877,B3,262.0,0.25,50,89.0
1878,D3,262.0,0.25,50,89.0
1879,B3,262.25,0.25,50,89.0
1880,D3,262.25,0.25,50,89.0
1881,D4,262.5,0.25,50,89.0
1882,B3,262.5,0.25,50,89.0
1883,D3,262.5,0.25,50,89.0
1884,A1,262.75,0.25,50,89.0
1885,D3,262.75,0.25,50,89.0
1886,B3,262.75,0.25,50,89.0
1887,C2,263.0,0.25,50,89.0
1888,G3,263.0,0.25,50,89.0
1889,B3,263.0,0.25,50,89.0
1890,B4,263.5,0.25,50,89.0
1891,G1,263.5,0.25,50,89.0
1892,E-2,263.5,0.25,50,89.0
1893,C2,263.5,0.25,50,89.0
1894,C#4,263.5,0.25,50,89.0
1895,E3,263.5,0.25,50,89.0
1896,D4,263.75,0.25,50,89.0
1897,F#3,263.75,0.25,50,89.0
1898,C2,264.0,0.25,50,89.0
1899,D2,264.0,0.25,50,89.0
1900,F#4,264.0,0.25,50,89.0
1901,A4,264.0,0.25,50,89.0
1902,A3,264.0,0.25,50,89.0
1903,D4,264.0,0.25,50,89.0
1904,A3,264.25,0.25,50,89.0
1905,D3,264.25,0.25,50,89.0
1906,F#4,264.5,0.25,50,89.0
1907,A3,264.75,0.25,50,89.0
1908,A1,264.75,0.25,50,89.0
1909,E-2,264.75,0.25,50,89.0
1910,D4,265.0,0.25,50,89.0
1911,C2,265.0,0.25,50,89.0
1912,A3,265.0,0.25,50,89.0
1913,D3,265.0,0.25,50,89.0
1914,A4,265.25,0.25,50,89.0
1915,A3,265.25,0.25,50,89.0
1916,D3,265.25,0.25,50,89.0
1917,D2,265.5,0.25,50,89.0
1918,E-2,265.5,0.25,50,89.0
1919,C2,265.5,0.25,50,89.0
1920,D3,265.5,0.25,50,89.0
1921,A3,265.5,0.25,50,89.0
1922,F#4,265.75,0.25,50,89.0
1923,A3,265.75,0.25,50,89.0
1924,D3,265.75,0.25,50,89.0
1925,C2,266.0,0.25,50,89.0
1926,D2,266.0,0.25,50,89.0
1927,F#3,266.0,0.25,50,89.0
1928,D4,266.0,0.25,50,89.0
1929,F#3,266.25,0.25,50,89.0
1930,D4,266.25,0.25,50,89.0
1931,D4,266.5,0.25,50,89.0
1932,F#3,266.5,0.25,50,89.0
1933,D4,266.5,0.25,50,89.0
1934,E-2,266.75,0.25,50,89.0
1935,A1,266.75,0.25,50,89.0
1936,D4,266.75,0.25,50,89.0
1937,F#3,266.75,0.25,50,89.0
1938,C2,267.0,0.25,50,89.0
1939,D4,267.0,0.25,50,89.0
1940,A3,267.0,0.25,50,89.0
1941,A4,267.5,0.25,50,89.0
1942,D2,267.5,0.25,50,89.0
1943,E-2,267.5,0.25,50,89.0
1944,C2,267.5,0.25,50,89.0
1945,D4,267.5,0.25,50,89.0
1946,E4,267.5,0.25,50,89.0
1947,E4,267.75,0.25,50,89.0
1948,C#4,267.75,0.25,50,89.0
1949,C2,268.0,0.25,50,89.0
1950,A1,268.0,0.25,50,89.0
1951,A4,268.0,0.25,50,89.0
1952,A3,268.0,0.25,50,89.0
1953,E4,268.0,0.25,50,89.0
1954,C#4,268.0,0.25,50,89.0
1955,C#4,268.25,0.25,50,89.0
1956,A3,268.25,0.25,50,89.0
1957,E4,268.5,0.25,50,89.0
1958,E-2,268.75,0.25,50,89.0
1959,A1,268.75,0.25,50,89.0
1960,C#4,269.0,0.25,50,89.0
1961,C2,269.0,0.25,50,89.0
1962,A4,269.25,0.25,50,89.0
1963,A1,269.5,0.25,50,89.0
1964,C2,269.5,0.25,50,89.0
1965,E-2,269.5,0.25,50,89.0
1966,E4,269.75,0.25,50,89.0
1967,D4,270.0,0.25,50,89.0
1968,A3,270.0,0.25,50,89.0
1969,F#3,271.0,0.25,50,89.0
1970,C#4,271.0,0.25,50,89.0
1971,C2,272.0,0.25,50,89.0
1972,B1,272.0,0.25,50,89.0
1973,D4,272.0,0.25,50,89.0
1974,B4,272.0,0.25,50,89.0
1975,B3,272.0,0.25,50,89.0
1976,F#4,272.0,0.25,50,89.0
1977,D3,272.0,0.25,50,89.0
1978,B3,272.0,0.25,50,89.0
1979,F#4,272.5,0.25,50,89.0
1980,B2,272.5,0.25,50,89.0
1981,F#3,272.5,0.25,50,89.0
1982,E-2,272.75,0.25,50,89.0
1983,A1,272.75,0.25,50,89.0
1984,D4,273.0,0.25,50,89.0
1985,C2,273.0,0.25,50,89.0
1986,B2,273.0,0.25,50,89.0
1987,F#3,273.0,0.25,50,89.0
1988,B4,273.25,0.25,50,89.0
1989,F#3,273.25,0.25,50,89.0
1990,B2,273.25,0.25,50,89.0
1991,B1,273.5,0.25,50,89.0
1992,E-2,273.5,0.25,50,89.0
1993,C2,273.5,0.25,50,89.0
1994,F#3,273.5,0.25,50,89.0
1995,B2,273.5,0.25,50,89.0
1996,F#4,273.75,0.25,50,89.0
1997,F#3,273.75,0.25,50,89.0
1998,B2,273.75,0.25,50,89.0
1999,C2,274.0,0.25,50,89.0
2000,B1,274.0,0.25,50,89.0
2001,F#3,274.0,0.25,50,89.0
2002,D3,274.0,0.25,50,89.0
2003,D3,274.25,0.25,50,89.0
2004,B3,274.25,0.25,50,89.0
2005,D4,274.5,0.25,50,89.0
2006,B3,274.5,0.25,50,89.0
2007,D3,274.5,0.25,50,89.0
2008,A1,274.75,0.25,50,89.0
2009,E-2,274.75,0.25,50,89.0
2010,D3,274.75,0.25,50,89.0
2011,B3,274.75,0.25,50,89.0
2012,C2,275.0,0.25,50,89.0
2013,F#3,275.0,0.25,50,89.0
2014,B3,275.0,0.25,50,89.0
2015,B4,275.5,0.25,50,89.0
2016,B1,275.5,0.25,50,89.0
2017,E-2,275.5,0.25,50,89.0
2018,C2,275.5,0.25,50,89.0
2019,D3,275.5,0.25,50,89.0
2020,A3,275.5,0.25,50,89.0
2021,B3,275.75,0.25,50,89.0
2022,D3,275.75,0.25,50,89.0
2023,C2,276.0,0.25,50,89.0
2024,G1,276.0,0.25,50,89.0
2025,B4,276.0,0.25,50,89.0
2026,B3,276.0,0.25,50,89.0
2027,G4,276.0,0.25,50,89.0
2028,D4,276.0,0.25,50,89.0
2029,B2,276.25,0.25,50,89.0
2030,G3,276.25,0.25,50,89.0
2031,G4,276.5,0.25,50,89.0
2032,A1,276.75,0.25,50,89.0
2033,E-2,276.75,0.25,50,89.0
2034,G3,276.75,0.25,50,89.0
2035,B2,276.75,0.25,50,89.0
2036,D4,277.0,0.25,50,89.0
2037,C2,277.0,0.25,50,89.0
2038,B2,277.0,0.25,50,89.0
2039,G3,277.0,0.25,50,89.0
2040,B4,277.25,0.25,50,89.0
2041,B2,277.25,0.25,50,89.0
2042,G3,277.25,0.25,50,89.0
2043,G1,277.5,0.25,50,89.0
2044,E-2,277.5,0.25,50,89.0
2045,C2,277.5,0.25,50,89.0
2046,G3,277.5,0.25,50,89.0
2047,B2,277.5,0.25,50,89.0
2048,G4,277.75,0.25,50,89.0
2049,G3,277.75,0.25,50,89.0
2050,B2,277.75,0.25,50,89.0
2051,C2,278.0,0.25,50,89.0
2052,G1,278.0,0.25,50,89.0
2053,B3,278.0,0.25,50,89.0
2054,D3,278.0,0.25,50,89.0
2055,B3,278.25,0.25,50,89.0
2056,D3,278.25,0.25,50,89.0
2057,D4,278.5,0.25,50,89.0
2058,D3,278.5,0.25,50,89.0
2059,B3,278.5,0.25,50,89.0
2060,A1,278.75,0.25,50,89.0
2061,B3,278.75,0.25,50,89.0
2062,G3,278.75,0.25,50,89.0
2063,C2,279.0,0.25,50,89.0
2064,G3,279.0,0.25,50,89.0
2065,B3,279.0,0.25,50,89.0
2066,B4,279.5,0.25,50,89.0
2067,G1,279.5,0.25,50,89.0
2068,C2,279.5,0.25,50,89.0
2069,E-2,279.5,0.25,50,89.0
2070,A3,279.5,0.25,50,89.0
2071,C#4,279.5,0.25,50,89.0
2072,G3,279.75,0.25,50,89.0
2073,D4,279.75,0.25,50,89.0
2074,C2,280.0,0.25,50,89.0
2075,D2,280.0,0.25,50,89.0
2076,A3,280.0,0.25,50,89.0
2077,D4,280.0,0.25,50,89.0
2078,F#4,280.0,0.25,50,89.0
2079,A4,280.0,0.25,50,89.0
2080,A3,280.25,0.25,50,89.0
2081,F#3,280.25,0.25,50,89.0
2082,F#4,280.5,0.25,50,89.0
2083,E-2,280.75,0.25,50,89.0
2084,A1,280.75,0.25,50,89.0
2085,F#3,280.75,0.25,50,89.0
2086,A3,280.75,0.25,50,89.0
2087,D4,281.0,0.25,50,89.0
2088,C2,281.0,0.25,50,89.0
2089,D3,281.0,0.25,50,89.0
2090,A3,281.0,0.25,50,89.0
2091,A4,281.25,0.25,50,89.0
2092,D3,281.25,0.25,50,89.0
2093,A3,281.25,0.25,50,89.0
2094,D2,281.5,0.25,50,89.0
2095,C2,281.5,0.25,50,89.0
2096,E-2,281.5,0.25,50,89.0
2097,A3,281.5,0.25,50,89.0
2098,D3,281.5,0.25,50,89.0
2099,F#4,281.75,0.25,50,89.0
2100,D3,281.75,0.25,50,89.0
2101,A3,281.75,0.25,50,89.0
2102,C2,282.0,0.25,50,89.0
2103,D2,282.0,0.25,50,89.0
2104,F#3,282.0,0.25,50,89.0
2105,D4,282.0,0.25,50,89.0
2106,D4,282.25,0.25,50,89.0
2107,F#3,282.25,0.25,50,89.0
2108,D4,282.5,0.25,50,89.0
2109,D4,282.5,0.25,50,89.0
2110,F#3,282.5,0.25,50,89.0
2111,E-2,282.75,0.25,50,89.0
2112,A1,282.75,0.25,50,89.0
2113,F#3,282.75,0.25,50,89.0
2114,D4,282.75,0.25,50,89.0
2115,C2,283.0,0.25,50,89.0
2116,A3,283.0,0.25,50,89.0
2117,D4,283.0,0.25,50,89.0
2118,A4,283.5,0.25,50,89.0
2119,D2,283.5,0.25,50,89.0
2120,C2,283.5,0.25,50,89.0
2121,E-2,283.5,0.25,50,89.0
2122,E4,283.5,0.25,50,89.0
2123,D4,283.5,0.25,50,89.0
2124,E4,283.75,0.25,50,89.0
2125,C#4,283.75,0.25,50,89.0
2126,C2,284.0,0.25,50,89.0
2127,A1,284.0,0.25,50,89.0
2128,A4,284.0,0.25,50,89.0
2129,E4,284.0,0.25,50,89.0
2130,C#4,284.0,0.25,50,89.0
2131,A3,284.0,0.25,50,89.0
2132,A3,284.25,0.25,50,89.0
2133,C#4,284.25,0.25,50,89.0
2134,E4,284.5,0.25,50,89.0
2135,E-2,284.75,0.25,50,89.0
2136,A1,284.75,0.25,50,89.0
2137,C#4,285.0,0.25,50,89.0
2138,C2,285.0,0.25,50,89.0
2139,A4,285.25,0.25,50,89.0
2140,A1,285.5,0.25,50,89.0
2141,E-2,285.5,0.25,50,89.0
2142,C2,285.5,0.25,50,89.0
2143,E4,285.75,0.25,50,89.0
2144,C2,286.0,0.25,50,89.0
2145,A1,286.0,0.25,50,89.0
2146,F#4,286.0,0.25,50,89.0
2147,D5,286.0,0.25,50,89.0
2148,A1,286.75,0.25,50,89.0
2149,C2,287.0,0.25,50,89.0
2150,C#5,287.0,0.25,50,89.0
2151,E4,287.0,0.25,50,89.0
2152,A1,287.5,0.25,50,89.0
2153,C2,287.5,0.25,50,89.0
2154,E-2,287.5,0.25,50,89.0
2155,C2,288.0,0.25,50,89.0
2156,B1,288.0,0.25,50,89.0
2157,F#4,288.0,0.125,50,89.0
2158,F#3,288.0,0.25,50,89.0
2159,D4,288.0,0.25,50,89.0
2160,F#4,288.0,0.25,50,89.0
2161,B4,288.0,0.25,50,89.0
2162,E3,288.25,0.25,50,89.0
2163,E4,288.25,0.25,50,89.0
2164,F#4,288.5,0.25,50,89.0
2165,F#4,288.5,0.125,50,89.0
2166,F#3,288.5,0.25,50,89.0
2167,A1,288.75,0.25,50,89.0
2168,E-2,288.75,0.25,50,89.0
2169,E3,288.75,0.25,50,89.0
2170,E4,288.75,0.25,50,89.0
2171,D4,289.0,0.25,50,89.0
2172,C2,289.0,0.25,50,89.0
2173,F#3,289.0,0.25,50,89.0
2174,F#4,289.0,0.25,50,89.0
2175,B4,289.25,0.25,50,89.0
2176,B1,289.5,0.25,50,89.0
2177,E-2,289.5,0.25,50,89.0
2178,C2,289.5,0.25,50,89.0
2179,E3,289.5,0.25,50,89.0
2180,E4,289.5,0.25,50,89.0
2181,F#4,289.75,0.25,50,89.0
2182,F#3,289.75,0.25,50,89.0
2183,F#4,289.75,0.125,50,89.0
2184,C2,290.0,0.25,50,89.0
2185,B1,290.0,0.25,50,89.0
2186,E3,290.25,0.25,50,89.0
2187,E4,290.25,0.25,50,89.0
2188,D4,290.5,0.25,50,89.0
2189,A1,290.75,0.25,50,89.0
2190,E-2,290.75,0.25,50,89.0
2191,F#3,290.75,0.25,50,89.0
2192,F#4,290.75,0.25,50,89.0
2193,C2,291.0,0.25,50,89.0
2194,G3,291.25,0.25,50,89.0
2195,G4,291.25,0.25,50,89.0
2196,B4,291.5,0.25,50,89.0
2197,B1,291.5,0.25,50,89.0
2198,C2,291.5,0.25,50,89.0
2199,E-2,291.5,0.25,50,89.0
2200,G4,291.75,0.25,50,89.0
2201,G3,291.75,0.25,50,89.0
2202,C2,292.0,0.25,50,89.0
2203,G1,292.0,0.25,50,89.0
2204,B3,292.0,0.25,50,89.0
2205,D4,292.0,0.25,50,89.0
2206,G4,292.0,0.25,50,89.0
2207,B4,292.0,0.25,50,89.0
2208,D4,292.25,0.25,50,89.0
2209,D3,292.25,0.25,50,89.0
2210,G4,292.5,0.25,50,89.0
2211,E-2,292.75,0.25,50,89.0
2212,A1,292.75,0.25,50,89.0
2213,D4,293.0,0.25,50,89.0
2214,C2,293.0,0.25,50,89.0
2215,B4,293.25,0.25,50,89.0
2216,G1,293.5,0.25,50,89.0
2217,E-2,293.5,0.25,50,89.0
2218,C2,293.5,0.25,50,89.0
2219,G4,293.75,0.25,50,89.0
2220,D4,293.75,0.25,50,89.0
2221,G4,293.75,0.25,50,89.0
2222,C2,294.0,0.25,50,89.0
2223,G1,294.0,0.25,50,89.0
2224,G4,294.25,0.25,50,89.0
2225,D4,294.25,0.25,50,89.0
2226,D4,294.5,0.25,50,89.0
2227,D4,294.5,0.125,50,89.0
2228,G4,294.5,0.25,50,89.0
2229,A1,294.75,0.25,50,89.0
2230,D4,294.75,0.25,50,89.0
2231,G4,294.75,0.25,50,89.0
2232,C2,295.0,0.25,50,89.0
2233,G4,295.25,0.25,50,89.0
2234,D4,295.25,0.25,50,89.0
2235,B4,295.5,0.25,50,89.0
2236,G1,295.5,0.25,50,89.0
2237,C2,295.5,0.25,50,89.0
2238,E-2,295.5,0.25,50,89.0
2239,A4,295.5,0.25,50,89.0
2240,D4,295.5,0.25,50,89.0
2241,D4,295.75,0.25,50,89.0
2242,G4,295.75,0.25,50,89.0
2243,C2,296.0,0.25,50,89.0
2244,D2,296.0,0.25,50,89.0
2245,F#4,296.0,0.25,50,89.0
2246,A4,296.0,0.25,50,89.0
2247,D4,296.0,0.25,50,89.0
2248,A3,296.0,0.25,50,89.0
2249,F#4,296.25,0.25,50,89.0
2250,D4,296.25,0.25,50,89.0
2251,F#4,296.5,0.25,50,89.0
2252,A1,296.75,0.25,50,89.0
2253,E-2,296.75,0.25,50,89.0
2254,D4,297.0,0.25,50,89.0
2255,C2,297.0,0.25,50,89.0
2256,A4,297.25,0.25,50,89.0
2257,D2,297.5,0.25,50,89.0
2258,C2,297.5,0.25,50,89.0
2259,E-2,297.5,0.25,50,89.0
2260,F#4,297.75,0.25,50,89.0
2261,F#4,297.75,0.125,50,89.0
2262,D4,297.75,0.25,50,89.0
2263,C2,298.0,0.25,50,89.0
2264,D2,298.0,0.25,50,89.0
2265,D4,298.25,0.25,50,89.0
2266,F#4,298.25,0.25,50,89.0
2267,E-2,298.75,0.25,50,89.0
2268,A1,298.75,0.25,50,89.0
2269,F#4,298.75,0.25,50,89.0
2270,A4,298.75,0.25,50,89.0
2271,C2,299.0,0.25,50,89.0
2272,G4,299.0,0.25,50,89.0
2273,E4,299.0,0.25,50,89.0
2274,A4,299.5,0.25,50,89.0
2275,D2,299.5,0.25,50,89.0
2276,C2,299.5,0.25,50,89.0
2277,E-2,299.5,0.25,50,89.0
2278,D4,299.5,0.25,50,89.0
2279,F#4,299.5,0.25,50,89.0
2280,E4,299.75,0.25,50,89.0
2281,A3,299.75,0.25,50,89.0
2282,C2,300.0,0.25,50,89.0
2283,A1,300.0,0.25,50,89.0
2284,A3,300.0,0.25,50,89.0
2285,E4,300.0,0.25,50,89.0
2286,C#4,300.0,0.25,50,89.0
2287,A4,300.0,0.25,50,89.0
2288,E4,300.5,0.25,50,89.0
2289,E-2,300.75,0.25,50,89.0
2290,A1,300.75,0.25,50,89.0
2291,C#4,301.0,0.25,50,89.0
2292,C2,301.0,0.25,50,89.0
2293,E4,301.0,0.25,50,89.0
2294,A4,301.25,0.25,50,89.0
2295,E4,301.25,0.25,50,89.0
2296,A1,301.5,0.25,50,89.0
2297,E4,301.5,0.25,50,89.0
2298,E-2,301.5,0.25,50,89.0
2299,C2,301.5,0.25,50,89.0
2300,E4,301.75,0.25,50,89.0
2301,E4,301.75,0.125,50,89.0
2302,C2,302.0,0.25,50,89.0
2303,A1,302.0,0.25,50,89.0
2304,E4,302.0,0.25,50,89.0
2305,E4,302.25,0.25,50,89.0
2306,C#4,302.5,0.25,50,89.0
2307,E4,302.5,0.25,50,89.0
2308,A1,302.75,0.25,50,89.0
2309,E4,302.75,0.25,50,89.0
2310,C2,303.0,0.25,50,89.0
2311,C#4,303.0,0.25,50,89.0
2312,A4,303.5,0.25,50,89.0
2313,A1,303.5,0.25,50,89.0
2314,D4,303.5,0.25,50,89.0
2315,E-2,303.5,0.25,50,89.0
2316,C2,303.5,0.25,50,89.0
2317,C2,304.0,0.25,50,89.0
2318,B1,304.0,0.25,50,89.0
2319,F#4,304.0,0.125,50,89.0
2320,F#3,304.0,0.25,50,89.0
2321,B4,304.0,0.25,50,89.0
2322,F#4,304.0,0.25,50,89.0
2323,D4,304.0,0.25,50,89.0
2324,E4,304.25,0.25,50,89.0
2325,E3,304.25,0.25,50,89.0
2326,F#4,304.5,0.25,50,89.0
2327,F#4,304.5,0.125,50,89.0
2328,F#3,304.5,0.25,50,89.0
2329,A1,304.75,0.25,50,89.0
2330,E-2,304.75,0.25,50,89.0
2331,E3,304.75,0.25,50,89.0
2332,E4,304.75,0.25,50,89.0
2333,D4,305.0,0.25,50,89.0
2334,C2,305.0,0.25,50,89.0
2335,F#4,305.0,0.25,50,89.0
2336,F#3,305.0,0.25,50,89.0
2337,B4,305.25,0.25,50,89.0
2338,E4,305.25,0.25,50,89.0
2339,E3,305.25,0.25,50,89.0
2340,B1,305.5,0.25,50,89.0
2341,E-2,305.5,0.25,50,89.0
2342,C2,305.5,0.25,50,89.0
2343,F#3,305.5,0.25,50,89.0
2344,F#4,305.5,0.25,50,89.0
2345,F#4,305.75,0.25,50,89.0
2346,C2,306.0,0.25,50,89.0
2347,B1,306.0,0.25,50,89.0
2348,E3,306.25,0.25,50,89.0
2349,E4,306.25,0.25,50,89.0
2350,D4,306.5,0.25,50,89.0
2351,F#3,306.5,0.25,50,89.0
2352,F#4,306.5,0.25,50,89.0
2353,A1,306.75,0.25,50,89.0
2354,E-2,306.75,0.25,50,89.0
2355,E3,306.75,0.25,50,89.0
2356,E4,306.75,0.25,50,89.0
2357,C2,307.0,0.25,50,89.0
2358,F#3,307.0,0.25,50,89.0
2359,F#4,307.0,0.25,50,89.0
2360,B4,307.5,0.25,50,89.0
2361,B1,307.5,0.25,50,89.0
2362,C2,307.5,0.25,50,89.0
2363,E-2,307.5,0.25,50,89.0
2364,G4,307.5,0.25,50,89.0
2365,G3,307.5,0.25,50,89.0
2366,G3,307.75,0.25,50,89.0
2367,G4,307.75,0.25,50,89.0
2368,C2,308.0,0.25,50,89.0
2369,G1,308.0,0.25,50,89.0
2370,G4,308.0,0.25,50,89.0
2371,B4,308.0,0.25,50,89.0
2372,B3,308.0,0.25,50,89.0
2373,D4,308.0,0.25,50,89.0
2374,D4,308.25,0.25,50,89.0
2375,D3,308.25,0.25,50,89.0
2376,G4,308.5,0.25,50,89.0
2377,E-2,308.75,0.25,50,89.0
2378,A1,308.75,0.25,50,89.0
2379,D4,309.0,0.25,50,89.0
2380,C2,309.0,0.25,50,89.0
2381,B4,309.25,0.25,50,89.0
2382,G1,309.5,0.25,50,89.0
2383,C2,309.5,0.25,50,89.0
2384,E-2,309.5,0.25,50,89.0
2385,G4,309.75,0.25,50,89.0
2386,G4,309.75,0.25,50,89.0
2387,G3,309.75,0.25,50,89.0
2388,D4,309.75,0.25,50,89.0
2389,C2,310.0,0.25,50,89.0
2390,G1,310.0,0.25,50,89.0
2391,D4,310.25,0.25,50,89.0
2392,G3,310.25,0.25,50,89.0
2393,G4,310.25,0.25,50,89.0
2394,D4,310.5,0.25,50,89.0
2395,D4,310.5,0.125,50,89.0
2396,G3,310.5,0.25,50,89.0
2397,G4,310.5,0.25,50,89.0
2398,A1,310.75,0.25,50,89.0
2399,G3,310.75,0.25,50,89.0
2400,D4,310.75,0.25,50,89.0
2401,G4,310.75,0.25,50,89.0
2402,C2,311.0,0.25,50,89.0
2403,G3,311.25,0.25,50,89.0
2404,D4,311.25,0.25,50,89.0
2405,G4,311.25,0.25,50,89.0
2406,B4,311.5,0.25,50,89.0
2407,G1,311.5,0.25,50,89.0
2408,C2,311.5,0.25,50,89.0
2409,E-2,311.5,0.25,50,89.0
2410,A3,311.5,0.25,50,89.0
2411,D4,311.5,0.25,50,89.0
2412,A4,311.5,0.25,50,89.0
2413,G3,311.75,0.25,50,89.0
2414,D4,311.75,0.25,50,89.0
2415,G4,311.75,0.25,50,89.0
2416,C2,312.0,0.25,50,89.0
2417,D2,312.0,0.25,50,89.0
2418,A4,312.0,0.25,50,89.0
2419,F#4,312.0,0.25,50,89.0
2420,D4,312.0,0.25,50,89.0
2421,A3,312.0,0.25,50,89.0
2422,F#4,312.25,0.25,50,89.0
2423,F#3,312.25,0.25,50,89.0
2424,D4,312.25,0.25,50,89.0
2425,F#4,312.5,0.25,50,89.0
2426,E-2,312.75,0.25,50,89.0
2427,A1,312.75,0.25,50,89.0
2428,D4,313.0,0.25,50,89.0
2429,C2,313.0,0.25,50,89.0
2430,A4,313.25,0.25,50,89.0
2431,D2,313.5,0.25,50,89.0
2432,C2,313.5,0.25,50,89.0
2433,E-2,313.5,0.25,50,89.0
2434,F#4,313.75,0.25,50,89.0
2435,F#4,313.75,0.125,50,89.0
2436,D4,313.75,0.25,50,89.0
2437,F#3,313.75,0.25,50,89.0
2438,C2,314.0,0.25,50,89.0
2439,D2,314.0,0.25,50,89.0
2440,F#4,314.25,0.25,50,89.0
2441,F#3,314.25,0.25,50,89.0
2442,D4,314.25,0.25,50,89.0
2443,A1,314.75,0.25,50,89.0
2444,E-2,314.75,0.25,50,89.0
2445,A3,314.75,0.25,50,89.0
2446,A4,314.75,0.25,50,89.0
2447,F#4,314.75,0.25,50,89.0
2448,C2,315.0,0.25,50,89.0
2449,G4,315.0,0.25,50,89.0
2450,G3,315.0,0.25,50,89.0
2451,E4,315.0,0.25,50,89.0
2452,A4,315.5,0.25,50,89.0
2453,D2,315.5,0.25,50,89.0
2454,C2,315.5,0.25,50,89.0
2455,E-2,315.5,0.25,50,89.0
2456,D4,315.5,0.25,50,89.0
2457,F#3,315.5,0.25,50,89.0
2458,F#4,315.5,0.25,50,89.0
2459,E4,315.75,0.25,50,89.0
2460,E3,315.75,0.25,50,89.0
2461,A3,315.75,0.25,50,89.0
2462,C2,316.0,0.25,50,89.0
2463,A1,316.0,0.25,50,89.0
2464,E4,316.0,0.25,50,89.0
2465,A4,316.0,0.25,50,89.0
2466,C#4,316.0,0.25,50,89.0
2467,A3,316.0,0.25,50,89.0
2468,A1,316.75,0.25,50,89.0
2469,E-2,316.75,0.25,50,89.0
2470,C2,317.0,0.25,50,89.0
2471,A1,317.5,0.25,50,89.0
2472,E-2,317.5,0.25,50,89.0
2473,C2,317.5,0.25,50,89.0
2474,C2,318.0,0.25,50,89.0
2475,A1,318.0,0.25,50,89.0
2476,D4,318.0,0.25,50,89.0
2477,C#4,319.0,0.25,50,89.0
2478,B3,320.0,0.25,50,89.0
2479,F#3,320.5,0.25,50,89.0
2480,F#3,320.5,0.25,50,89.0
2481,B2,320.5,0.25,50,89.0
2482,F#3,321.0,0.25,50,89.0
2483,F#3,321.25,0.25,50,89.0
2484,F#3,321.5,0.25,50,89.0
2485,F#3,321.5,0.25,50,89.0
2486,B2,321.5,0.25,50,89.0
2487,F#3,321.75,0.25,50,89.0
2488,F#3,322.0,0.25,50,89.0
2489,B3,322.25,0.25,50,89.0
2490,B3,322.5,0.25,50,89.0
2491,F#3,322.5,0.25,50,89.0
2492,B2,322.5,0.25,50,89.0
2493,B3,322.75,0.25,50,89.0
2494,B3,323.0,0.25,50,89.0
2495,A3,323.5,0.25,50,89.0
2496,B2,323.5,0.25,50,89.0
2497,F#3,323.5,0.25,50,89.0
2498,B3,323.75,0.25,50,89.0
2499,G3,324.25,0.25,50,89.0
2500,G2,324.5,0.25,50,89.0
2501,G3,324.5,0.25,50,89.0
2502,D3,324.5,0.25,50,89.0
2503,G3,324.75,0.25,50,89.0
2504,G3,325.0,0.25,50,89.0
2505,G3,325.25,0.25,50,89.0
2506,G3,325.5,0.25,50,89.0
2507,G2,325.5,0.25,50,89.0
2508,D3,325.5,0.25,50,89.0
2509,G3,325.5,0.25,50,89.0
2510,G3,325.75,0.25,50,89.0
2511,B3,326.0,0.25,50,89.0
2512,B3,326.25,0.25,50,89.0
2513,B3,326.5,0.25,50,89.0
2514,D3,326.5,0.25,50,89.0
2515,G2,326.5,0.25,50,89.0
2516,G3,326.5,0.25,50,89.0
2517,B3,326.75,0.25,50,89.0
2518,B3,327.0,0.25,50,89.0
2519,C#4,327.5,0.25,50,89.0
2520,G3,327.5,0.25,50,89.0
2521,G2,327.5,0.25,50,89.0
2522,D3,327.5,0.25,50,89.0
2523,D4,327.75,0.25,50,89.0
2524,A3,328.25,0.25,50,89.0
2525,A3,328.25,0.25,50,89.0
2526,B3,328.5,0.25,50,89.0
2527,A2,328.5,0.25,50,89.0
2528,F#3,328.5,0.25,50,89.0
2529,C#4,328.75,0.25,50,89.0
2530,A3,328.75,0.25,50,89.0
2531,D4,329.0,0.25,50,89.0
2532,A3,329.0,0.25,50,89.0
2533,E4,329.25,0.25,50,89.0
2534,A3,329.25,0.25,50,89.0
2535,F#4,329.5,0.25,50,89.0
2536,A3,329.5,0.25,50,89.0
2537,F#3,329.5,0.25,50,89.0
2538,A2,329.5,0.25,50,89.0
2539,G4,329.75,0.25,50,89.0
2540,A3,329.75,0.25,50,89.0
2541,A4,330.0,0.25,50,89.0
2542,A3,330.0,0.25,50,89.0
2543,F#4,330.25,0.25,50,89.0
2544,D4,330.25,0.25,50,89.0
2545,D4,330.5,0.25,50,89.0
2546,A2,330.5,0.25,50,89.0
2547,F#3,330.5,0.25,50,89.0
2548,D4,330.75,0.25,50,89.0
2549,F#4,331.0,0.25,50,89.0
2550,D4,331.0,0.25,50,89.0
2551,A4,331.5,0.25,50,89.0
2552,E4,331.5,0.25,50,89.0
2553,F#3,331.5,0.25,50,89.0
2554,A2,331.5,0.25,50,89.0
2555,G4,331.75,0.25,50,89.0
2556,E4,331.75,0.25,50,89.0
2557,E4,332.25,0.25,50,89.0
2558,C#4,332.25,0.25,50,89.0
2559,A2,332.5,0.25,50,89.0
2560,E3,332.5,0.25,50,89.0
2561,A2,333.5,0.25,50,89.0
2562,E3,333.5,0.25,50,89.0
2563,E3,334.5,0.25,50,89.0
2564,A2,334.5,0.25,50,89.0
2565,F#3,334.75,0.25,50,89.0
2566,F#2,334.75,0.25,50,89.0
2567,D4,335.0,0.25,50,89.0
2568,D3,335.0,0.25,50,89.0
2569,D3,335.5,0.25,50,89.0
2570,D4,335.5,0.25,50,89.0
2571,D4,335.75,0.25,50,89.0
2572,D3,335.75,0.25,50,89.0
2573,C2,336.0,0.25,50,89.0
2574,B1,336.0,0.25,50,89.0
2575,B2,336.0,0.25,50,89.0
2576,B3,336.0,0.125,50,89.0
2577,B4,336.0,0.25,50,89.0
2578,B3,336.0,0.25,50,89.0
2579,F#4,336.0,0.25,50,89.0
2580,D4,336.0,0.25,50,89.0
2581,F#4,336.5,0.25,50,89.0
2582,B3,336.5,0.25,50,89.0
2583,B2,336.5,0.25,50,89.0
2584,A1,336.75,0.25,50,89.0
2585,E-2,336.75,0.25,50,89.0
2586,D4,337.0,0.25,50,89.0
2587,C2,337.0,0.25,50,89.0
2588,D4,337.0,0.125,50,89.0
2589,D3,337.0,0.25,50,89.0
2590,B4,337.25,0.25,50,89.0
2591,D3,337.25,0.25,50,89.0
2592,D4,337.25,0.25,50,89.0
2593,B1,337.5,0.25,50,89.0
2594,C2,337.5,0.25,50,89.0
2595,E-2,337.5,0.25,50,89.0
2596,D4,337.5,0.25,50,89.0
2597,D3,337.5,0.25,50,89.0
2598,F#4,337.75,0.25,50,89.0
2599,D4,337.75,0.25,50,89.0
2600,D3,337.75,0.25,50,89.0
2601,C2,338.0,0.25,50,89.0
2602,B1,338.0,0.25,50,89.0
2603,B3,338.0,0.25,50,89.0
2604,B2,338.0,0.25,50,89.0
2605,D4,338.5,0.25,50,89.0
2606,B2,338.5,0.25,50,89.0
2607,B3,338.5,0.25,50,89.0
2608,A1,338.75,0.25,50,89.0
2609,E-2,338.75,0.25,50,89.0
2610,F#2,338.75,0.25,50,89.0
2611,F#3,338.75,0.25,50,89.0
2612,C2,339.0,0.25,50,89.0
2613,D4,339.0,0.25,50,89.0
2614,D3,339.0,0.25,50,89.0
2615,B4,339.5,0.25,50,89.0
2616,B1,339.5,0.25,50,89.0
2617,C2,339.5,0.25,50,89.0
2618,E-2,339.5,0.25,50,89.0
2619,D4,339.5,0.25,50,89.0
2620,D3,339.5,0.25,50,89.0
2621,C#3,339.75,0.25,50,89.0
2622,C#4,339.75,0.25,50,89.0
2623,C2,340.0,0.25,50,89.0
2624,G1,340.0,0.25,50,89.0
2625,D4,340.0,0.25,50,89.0
2626,B4,340.0,0.25,50,89.0
2627,G4,340.0,0.25,50,89.0
2628,B3,340.0,0.25,50,89.0
2629,B3,340.0,0.25,50,89.0
2630,B2,340.0,0.25,50,89.0
2631,G4,340.5,0.25,50,89.0
2632,B2,340.5,0.25,50,89.0
2633,B3,340.5,0.25,50,89.0
2634,E-2,340.75,0.25,50,89.0
2635,A1,340.75,0.25,50,89.0
2636,G2,340.75,0.25,50,89.0
2637,G3,340.75,0.25,50,89.0
2638,D4,341.0,0.25,50,89.0
2639,C2,341.0,0.25,50,89.0
2640,D3,341.0,0.25,50,89.0
2641,D4,341.0,0.25,50,89.0
2642,B4,341.25,0.25,50,89.0
2643,D4,341.25,0.25,50,89.0
2644,D3,341.25,0.25,50,89.0
2645,G1,341.5,0.25,50,89.0
2646,C2,341.5,0.25,50,89.0
2647,E-2,341.5,0.25,50,89.0
2648,D4,341.5,0.25,50,89.0
2649,D3,341.5,0.25,50,89.0
2650,G4,341.75,0.25,50,89.0
2651,D3,341.75,0.25,50,89.0
2652,D4,341.75,0.25,50,89.0
2653,C2,342.0,0.25,50,89.0
2654,G1,342.0,0.25,50,89.0
2655,B3,342.0,0.25,50,89.0
2656,B2,342.0,0.25,50,89.0
2657,G4,342.0,0.25,50,89.0
2658,G3,342.0,0.25,50,89.0
2659,G4,342.312,0.25,50,89.0
2660,G3,342.312,0.25,50,89.0
2661,D4,342.5,0.25,50,89.0
2662,B3,342.5,0.25,50,89.0
2663,B2,342.5,0.25,50,89.0
2664,G4,342.625,0.25,50,89.0
2665,G3,342.625,0.25,50,89.0
2666,A1,342.75,0.25,50,89.0
2667,C2,343.0,0.25,50,89.0
2668,G4,343.0,0.25,50,89.0
2669,G3,343.0,0.25,50,89.0
2670,G3,343.312,0.25,50,89.0
2671,G4,343.312,0.25,50,89.0
2672,B4,343.5,0.25,50,89.0
2673,G1,343.5,0.25,50,89.0
2674,E-2,343.5,0.25,50,89.0
2675,C2,343.5,0.25,50,89.0
2676,A4,343.688,0.25,50,89.0
2677,A3,343.688,0.25,50,89.0
2678,C2,344.0,0.25,50,89.0
2679,D2,344.0,0.25,50,89.0
2680,D4,344.0,0.25,50,89.0
2681,A3,344.0,0.25,50,89.0
2682,F#4,344.0,0.25,50,89.0
2683,A4,344.0,0.25,50,89.0
2684,G4,344.0,0.25,50,89.0
2685,G3,344.0,0.25,50,89.0
2686,F#4,344.5,0.25,50,89.0
2687,F#3,344.5,0.25,50,89.0
2688,F#4,344.5,0.125,50,89.0
2689,A1,344.75,0.25,50,89.0
2690,E-2,344.75,0.25,50,89.0
2691,D4,345.0,0.25,50,89.0
2692,C2,345.0,0.25,50,89.0
2693,A4,345.25,0.25,50,89.0
2694,D2,345.5,0.25,50,89.0
2695,C2,345.5,0.25,50,89.0
2696,E-2,345.5,0.25,50,89.0
2697,F#4,345.75,0.25,50,89.0
2698,F#4,345.75,0.125,50,89.0
2699,D4,345.75,0.25,50,89.0
2700,C2,346.0,0.25,50,89.0
2701,D2,346.0,0.25,50,89.0
2702,D4,346.25,0.25,50,89.0
2703,F#4,346.25,0.25,50,89.0
2704,D4,346.5,0.25,50,89.0
2705,E-2,346.75,0.25,50,89.0
2706,A1,346.75,0.25,50,89.0
2707,A4,346.75,0.25,50,89.0
2708,F#4,346.75,0.25,50,89.0
2709,C2,347.0,0.25,50,89.0
2710,E4,347.0,0.25,50,89.0
2711,G4,347.0,0.25,50,89.0
2712,A4,347.5,0.25,50,89.0
2713,D2,347.5,0.25,50,89.0
2714,C2,347.5,0.25,50,89.0
2715,E-2,347.5,0.25,50,89.0
2716,D4,347.5,0.25,50,89.0
2717,F#4,347.5,0.25,50,89.0
2718,C#4,347.75,0.25,50,89.0
2719,E4,347.75,0.25,50,89.0
2720,C2,348.0,0.25,50,89.0
2721,A1,348.0,0.25,50,89.0
2722,A4,348.0,0.25,50,89.0
2723,A3,348.0,0.25,50,89.0
2724,E4,348.0,0.25,50,89.0
2725,C#4,348.0,0.25,50,89.0
2726,E4,348.5,0.25,50,89.0
2727,A1,348.75,0.25,50,89.0
2728,E-2,348.75,0.25,50,89.0
2729,C#4,349.0,0.25,50,89.0
2730,C2,349.0,0.25,50,89.0
2731,E4,349.0,0.25,50,89.0
2732,A4,349.25,0.25,50,89.0
2733,E4,349.25,0.25,50,89.0
2734,A1,349.5,0.25,50,89.0
2735,E4,349.5,0.25,50,89.0
2736,E-2,349.5,0.25,50,89.0
2737,C2,349.5,0.25,50,89.0
2738,E4,349.75,0.25,50,89.0
2739,E4,349.75,0.125,50,89.0
2740,C2,350.0,0.25,50,89.0
2741,A1,350.0,0.25,50,89.0
2742,E4,350.0,0.25,50,89.0
2743,E4,350.25,0.25,50,89.0
2744,C#4,350.5,0.25,50,89.0
2745,E4,350.5,0.25,50,89.0
2746,A1,350.75,0.25,50,89.0
2747,F#2,350.75,0.25,50,89.0
2748,E4,350.75,0.25,50,89.0
2749,F#3,350.75,0.25,50,89.0
2750,C2,351.0,0.25,50,89.0
2751,C#4,351.0,0.25,50,89.0
2752,D3,351.0,0.25,50,89.0
2753,D4,351.0,0.25,50,89.0
2754,A4,351.5,0.25,50,89.0
2755,A1,351.5,0.25,50,89.0
2756,C2,351.5,0.25,50,89.0
2757,E-2,351.5,0.25,50,89.0
2758,D4,351.5,0.25,50,89.0
2759,D3,351.5,0.25,50,89.0
2760,D4,351.5,0.25,50,89.0
2761,D4,351.75,0.25,50,89.0
2762,D3,351.75,0.25,50,89.0
2763,C2,352.0,0.25,50,89.0
2764,B3,352.0,0.125,50,89.0
2765,B2,352.0,0.25,50,89.0
2766,F#4,352.0,0.25,50,89.0
2767,B3,352.0,0.25,50,89.0
2768,B4,352.0,0.25,50,89.0
2769,D4,352.0,0.25,50,89.0
2770,F#4,352.5,0.25,50,89.0
2771,B3,352.5,0.25,50,89.0
2772,B2,352.5,0.25,50,89.0
2773,D4,353.0,0.25,50,89.0
2774,D3,353.0,0.25,50,89.0
2775,D4,353.0,0.125,50,89.0
2776,B4,353.25,0.25,50,89.0
2777,D4,353.25,0.25,50,89.0
2778,D3,353.25,0.25,50,89.0
2779,D3,353.5,0.25,50,89.0
2780,D4,353.5,0.25,50,89.0
2781,F#4,353.75,0.25,50,89.0
2782,D4,353.75,0.25,50,89.0
2783,D3,353.75,0.25,50,89.0
2784,B2,354.0,0.25,50,89.0
2785,B3,354.0,0.25,50,89.0
2786,D4,354.5,0.25,50,89.0
2787,B3,354.5,0.25,50,89.0
2788,B2,354.5,0.25,50,89.0
2789,F#3,354.75,0.25,50,89.0
2790,F#2,354.75,0.25,50,89.0
2791,D4,355.0,0.25,50,89.0
2792,D3,355.0,0.25,50,89.0
2793,B4,355.5,0.25,50,89.0
2794,D3,355.5,0.25,50,89.0
2795,D4,355.5,0.25,50,89.0
2796,C#3,355.75,0.25,50,89.0
2797,C#4,355.75,0.25,50,89.0
2798,D4,356.0,0.25,50,89.0
2799,G4,356.0,0.25,50,89.0
2800,B3,356.0,0.25,50,89.0
2801,B4,356.0,0.25,50,89.0
2802,B3,356.0,0.25,50,89.0
2803,B2,356.0,0.25,50,89.0
2804,G4,356.5,0.25,50,89.0
2805,B3,356.5,0.25,50,89.0
2806,B2,356.5,0.25,50,89.0
2807,G3,356.75,0.25,50,89.0
2808,G2,356.75,0.25,50,89.0
2809,D4,357.0,0.25,50,89.0
2810,D4,357.0,0.25,50,89.0
2811,D3,357.0,0.25,50,89.0
2812,B4,357.25,0.25,50,89.0
2813,D4,357.25,0.25,50,89.0
2814,D3,357.25,0.25,50,89.0
2815,D3,357.5,0.25,50,89.0
2816,D4,357.5,0.25,50,89.0
2817,G4,357.75,0.25,50,89.0
2818,D4,357.75,0.25,50,89.0
2819,D3,357.75,0.25,50,89.0
2820,G4,358.0,0.25,50,89.0
2821,D4,358.0,0.25,50,89.0
2822,B3,358.0,0.25,50,89.0
2823,B2,358.0,0.25,50,89.0
2824,D4,358.312,0.25,50,89.0
2825,G4,358.312,0.25,50,89.0
2826,D4,358.5,0.25,50,89.0
2827,B3,358.5,0.25,50,89.0
2828,B2,358.5,0.25,50,89.0
2829,G4,358.625,0.25,50,89.0
2830,D4,358.625,0.25,50,89.0
2831,D4,359.0,0.25,50,89.0
2832,G4,359.0,0.25,50,89.0
2833,G4,359.312,0.25,50,89.0
2834,D4,359.312,0.25,50,89.0
2835,B4,359.5,0.25,50,89.0
2836,A4,359.688,0.25,50,89.0
2837,D4,359.688,0.25,50,89.0
2838,G4,360.0,0.25,50,89.0
2839,D4,360.0,0.25,50,89.0
2840,A3,360.25,0.25,50,89.0
2841,B3,360.5,0.25,50,89.0
2842,F#4,360.5,0.25,50,89.0
2843,D4,360.5,0.25,50,89.0
2844,C#4,360.75,0.25,50,89.0
2845,D4,361.0,0.25,50,89.0
2846,D4,361.0,0.25,50,89.0
2847,E4,361.25,0.25,50,89.0
2848,F#4,361.5,0.25,50,89.0
2849,G4,361.75,0.25,50,89.0
2850,F#4,361.75,0.25,50,89.0
2851,A4,362.0,0.25,50,89.0
2852,F#4,362.25,0.125,50,89.0
2853,F#4,362.25,0.25,50,89.0
2854,A4,362.75,0.125,50,89.0
2855,A4,362.75,0.25,50,89.0
2856,F#4,362.75,0.25,50,89.0
2857,G4,363.0,0.125,50,89.0
2858,G4,363.0,0.25,50,89.0
2859,F#4,363.5,0.125,50,89.0
2860,F#4,363.5,0.25,50,89.0
2861,E4,363.75,0.125,50,89.0
2862,E4,363.75,0.25,50,89.0
2863,A3,364.5,0.25,50,89.0
2864,C#4,365.0,0.25,50,89.0
2865,A3,365.5,0.25,50,89.0
2866,D4,366.0,0.25,50,89.0
2867,C#4,367.0,0.25,50,89.0
2868,B3,368.0,0.25,50,89.0
2869,F#3,368.5,0.25,50,89.0
