,note_name,start_time,duration,velocity,tempo
0,B-2,4.0,0.031,107,87.0
1,C2,4.0,0.031,107,87.0
2,F#2,4.5,0.031,107,87.0
3,D2,5.0,0.031,103,87.0
4,E-2,5.0,0.031,103,87.0
5,F#2,5.0,0.031,103,87.0
6,F#2,5.25,0.031,72,87.0
7,C2,5.49,0.031,104,87.0
8,F#2,5.49,0.031,104,87.0
9,C2,5.75,0.031,86,87.0
10,F#2,5.75,0.031,86,87.0
11,F#2,6.0,0.031,111,87.0
12,F#2,6.25,0.031,78,87.0
13,C2,6.5,0.031,106,87.0
14,F#2,6.5,0.031,106,87.0
15,F#2,6.75,0.031,73,87.0
16,D2,7.0,0.031,105,87.0
17,E-2,7.0,0.031,105,87.0
18,F#2,7.0,0.031,105,87.0
19,F#2,7.25,0.031,71,87.0
20,C2,7.5,0.031,73,87.0
21,F#2,7.5,0.031,73,87.0
22,C2,7.74,0.031,56,87.0
23,F#2,7.74,0.031,56,87.0
24,B-2,8.0,0.031,106,87.0
25,C2,8.0,0.031,106,87.0
26,C2,8.25,0.031,105,87.0
27,C2,8.5,0.031,104,87.0
28,F#2,8.5,0.031,104,87.0
29,D2,9.0,0.031,103,87.0
30,E-2,9.0,0.031,103,87.0
31,F#2,9.0,0.031,103,87.0
32,F#2,9.25,0.031,72,87.0
33,C2,9.5,0.031,76,87.0
34,F#2,9.5,0.031,76,87.0
35,C2,9.75,0.031,102,87.0
36,F#2,10.0,0.031,111,87.0
37,C2,10.24,0.031,56,87.0
38,F#2,10.24,0.031,56,87.0
39,C2,10.5,0.031,104,87.0
40,F#2,10.5,0.031,104,87.0
41,B-2,10.75,0.031,115,87.0
42,D2,11.0,0.031,102,87.0
43,E-2,11.0,0.031,102,87.0
44,F#2,11.0,0.031,102,87.0
45,D2,11.25,0.031,102,87.0
46,E-2,11.25,0.031,102,87.0
47,C2,11.5,0.031,76,87.0
48,F#2,11.5,0.031,76,87.0
49,C2,11.74,21/500,43,87.0
50,B-2,12.0,0.031,102,87.0
51,C2,12.0,0.031,102,87.0
52,F#2,12.5,0.031,107,87.0
53,D2,13.0,0.031,105,87.0
54,E-2,13.0,0.031,105,87.0
55,F#2,13.0,0.031,105,87.0
56,F#2,13.25,0.031,74,87.0
57,C2,13.49,0.031,102,87.0
58,F#2,13.49,0.031,102,87.0
59,C2,13.75,0.031,90,87.0
60,F#2,13.75,0.031,90,87.0
61,F#2,14.0,0.031,108,87.0
62,F#2,14.25,0.031,72,87.0
63,C2,14.5,0.031,106,87.0
64,F#2,14.5,0.031,106,87.0
65,F#2,14.75,0.031,72,87.0
66,D2,15.0,0.031,103,87.0
67,E-2,15.0,0.031,103,87.0
68,F#2,15.0,0.031,103,87.0
69,F#2,15.25,0.031,80,87.0
70,C2,15.5,0.031,76,87.0
71,F#2,15.5,0.031,76,87.0
72,C2,15.74,0.031,55,87.0
73,F#2,15.74,0.031,55,87.0
74,B-2,16.0,0.031,106,87.0
75,C2,16.0,0.031,106,87.0
76,C2,16.25,0.031,102,87.0
77,C2,16.5,0.031,105,87.0
78,F#2,16.5,0.031,105,87.0
79,D2,17.0,0.031,103,87.0
80,E-2,17.0,0.031,103,87.0
81,F#2,17.0,0.031,103,87.0
82,F#2,17.25,0.031,70,87.0
83,C2,17.5,0.031,76,87.0
84,F#2,17.5,0.031,76,87.0
85,C2,17.75,0.031,104,87.0
86,F#2,18.0,0.031,106,87.0
87,C2,18.25,0.031,58,87.0
88,F#2,18.25,0.031,58,87.0
89,C2,18.5,0.031,105,87.0
90,F#2,18.5,0.031,105,87.0
91,B-2,18.75,0.031,107,87.0
92,D2,19.0,0.031,104,87.0
93,E-2,19.0,0.031,104,87.0
94,F#2,19.0,0.031,104,87.0
95,D2,19.25,0.031,102,87.0
96,E-2,19.25,0.031,102,87.0
97,F#3,19.469,13/250,1,87.0
98,C2,19.5,0.031,77,87.0
99,F#2,19.5,0.031,77,87.0
100,C2,19.74,21/500,41,87.0
101,F5,20.0,77/200,90,87.0
102,F#3,20.0,13/250,1,87.0
103,C#5,20.0,49/100,98,87.0
104,B-2,20.0,0.031,100,87.0
105,C2,20.0,0.031,100,87.0
106,E-5,20.49,0.5,102,87.0
107,F5,20.5,77/200,56,87.0
108,F#3,20.5,13/250,1,87.0
109,F#2,20.5,0.031,107,87.0
110,F#3,20.74,13/250,1,87.0
111,F#3,20.99,0.062,1,87.0
112,F5,21.0,77/200,86,87.0
113,F5,21.0,77/200,105,87.0
114,D2,21.0,0.031,101,87.0
115,E-2,21.0,0.031,101,87.0
116,F#2,21.0,0.031,101,87.0
117,F#2,21.25,0.031,73,87.0
118,C#5,21.49,0.25,99,87.0
119,C2,21.49,0.031,103,87.0
120,F#2,21.49,0.031,103,87.0
121,F5,21.5,77/200,56,87.0
122,E-5,21.74,0.25,96,87.0
123,C2,21.75,0.031,89,87.0
124,F#2,21.75,0.031,89,87.0
125,F5,21.99,99/250,82,87.0
126,F5,21.99,177/200,105,87.0
127,F#2,22.0,0.031,108,87.0
128,F#2,22.25,0.031,77,87.0
129,F5,22.49,99/250,55,87.0
130,F#3,22.5,13/250,1,87.0
131,C2,22.5,0.031,106,87.0
132,F#2,22.5,0.031,106,87.0
133,F#3,22.75,13/250,1,87.0
134,F#2,22.75,0.031,77,87.0
135,F5,22.99,99/250,85,87.0
136,C#5,22.99,0.5,104,87.0
137,D2,23.0,0.031,106,87.0
138,E-2,23.0,0.031,106,87.0
139,F#2,23.0,0.031,106,87.0
140,F#3,23.115,0.062,1,87.0
141,F#2,23.25,0.031,77,87.0
142,E-5,23.49,229/500,99,87.0
143,G#5,23.5,73/250,50,87.0
144,C2,23.5,0.031,76,87.0
145,F#2,23.5,0.031,76,87.0
146,F#3,23.625,13/250,1,87.0
147,C2,23.74,0.031,59,87.0
148,F#2,23.74,0.031,59,87.0
149,C#5,23.99,1/100,101,87.0
150,F5,24.0,417/1000,90,87.0
151,F#3,24.0,13/250,1,87.0
152,C#5,24.0,49/100,101,87.0
153,B-2,24.0,0.031,102,87.0
154,C2,24.0,0.031,102,87.0
155,F#3,24.24,0.062,1,87.0
156,C2,24.25,0.031,100,87.0
157,F#3,24.365,0.062,1,87.0
158,E-5,24.49,0.5,101,87.0
159,G#5,24.5,151/500,54,87.0
160,E-4,24.5,0.438,80,87.0
161,C2,24.5,0.031,104,87.0
162,F#2,24.5,0.031,104,87.0
163,F#3,24.75,13/250,1,87.0
164,F#3,24.875,13/250,1,87.0
165,F5,24.99,77/200,99,87.0
166,F5,25.0,0.438,87,87.0
167,F#3,25.0,13/250,1,87.0
168,D2,25.0,0.031,103,87.0
169,E-2,25.0,0.031,103,87.0
170,F#2,25.0,0.031,103,87.0
171,F#2,25.25,0.031,80,87.0
172,G#5,25.5,323/1000,54,87.0
173,F#3,25.5,13/250,1,87.0
174,E-4,25.5,77/200,80,87.0
175,C#5,25.5,6/25,105,87.0
176,C2,25.5,0.031,74,87.0
177,F#2,25.5,0.031,74,87.0
178,F#3,25.74,0.062,1,87.0
179,C2,25.75,0.031,104,87.0
180,E-5,25.75,6/25,101,87.0
181,F#3,25.875,13/250,1,87.0
182,F5,26.0,77/200,87,87.0
183,F#2,26.0,0.031,106,87.0
184,F5,26.0,99/100,103,87.0
185,C2,26.25,0.031,53,87.0
186,F#2,26.25,0.031,53,87.0
187,F#3,26.365,0.062,1,87.0
188,F#3,26.49,0.062,1,87.0
189,G#5,26.5,427/1000,48,87.0
190,E-4,26.5,0.406,85,87.0
191,C2,26.5,0.031,104,87.0
192,F#2,26.5,0.031,104,87.0
193,F#3,26.625,13/250,1,87.0
194,B-2,26.75,0.031,106,87.0
195,C#5,27.0,177/500,91,87.0
196,F#3,27.0,13/250,1,87.0
197,C#5,27.0,0.469,101,87.0
198,D2,27.0,0.031,106,87.0
199,E-2,27.0,0.031,106,87.0
200,F#2,27.0,0.031,106,87.0
201,D2,27.25,0.031,104,87.0
202,E-2,27.25,0.031,104,87.0
203,E-5,27.5,99/250,49,87.0
204,E-5,27.5,427/1000,104,87.0
205,C2,27.5,0.031,73,87.0
206,F#2,27.5,0.031,73,87.0
207,F#3,27.625,13/250,1,87.0
208,C2,27.74,21/500,35,87.0
209,F#3,27.812,13/250,1,87.0
210,F5,28.0,77/200,83,87.0
211,F#3,28.0,13/250,1,87.0
212,B-4,28.0,229/500,103,87.0
213,B-2,28.0,0.031,104,87.0
214,C2,28.0,0.031,104,87.0
215,F#3,28.5,13/250,1,87.0
216,F#2,28.5,0.031,113,87.0
217,C5,28.5,49/100,102,87.0
218,F5,28.521,77/200,57,87.0
219,F#3,28.74,0.062,1,87.0
220,F5,29.0,77/200,85,87.0
221,F#3,29.0,13/250,1,87.0
222,C#5,29.0,229/500,99,87.0
223,D2,29.0,0.031,105,87.0
224,E-2,29.0,0.031,105,87.0
225,F#2,29.0,0.031,105,87.0
226,F#2,29.25,0.031,74,87.0
227,C2,29.49,0.031,103,87.0
228,F#2,29.49,0.031,103,87.0
229,B-4,29.5,6/25,102,87.0
230,F5,29.521,77/200,54,87.0
231,C5,29.75,6/25,104,87.0
232,C2,29.75,0.031,92,87.0
233,F#2,29.75,0.031,92,87.0
234,F5,29.99,99/250,82,87.0
235,F#2,30.0,0.031,112,87.0
236,C#5,30.0,99/100,105,87.0
237,F#2,30.25,0.031,78,87.0
238,C2,30.5,0.031,105,87.0
239,F#2,30.5,0.031,105,87.0
240,F5,30.51,99/250,51,87.0
241,F#3,30.75,13/250,1,87.0
242,F#2,30.75,0.031,79,87.0
243,F5,30.99,99/250,82,87.0
244,F#3,31.0,13/250,1,87.0
245,B-4,31.0,49/100,102,87.0
246,D2,31.0,0.031,99,87.0
247,E-2,31.0,0.031,99,87.0
248,F#2,31.0,0.031,99,87.0
249,F#3,31.25,13/250,1,87.0
250,F#2,31.25,0.031,74,87.0
251,G#5,31.5,73/250,53,87.0
252,F#3,31.5,13/250,1,87.0
253,C5,31.5,417/1000,99,87.0
254,C2,31.5,0.031,74,87.0
255,F#2,31.5,0.031,74,87.0
256,C2,31.74,0.031,60,87.0
257,F#2,31.74,0.031,60,87.0
258,F#3,31.75,13/250,1,87.0
259,F5,32.0,417/1000,92,87.0
260,B-4,32.0,0.438,96,87.0
261,B-2,32.0,0.031,102,87.0
262,C2,32.0,0.031,102,87.0
263,F#3,32.25,13/250,1,87.0
264,C2,32.25,0.031,100,87.0
265,G#5,32.5,151/500,50,87.0
266,F#3,32.5,13/250,1,87.0
267,E-4,32.5,229/1000,81,87.0
268,C5,32.5,49/100,103,87.0
269,C2,32.5,0.031,106,87.0
270,F#2,32.5,0.031,106,87.0
271,F5,33.0,0.438,82,87.0
272,F#3,33.0,13/250,1,87.0
273,E-4,33.0,13/50,85,87.0
274,C#5,33.0,0.469,105,87.0
275,D2,33.0,0.031,103,87.0
276,E-2,33.0,0.031,103,87.0
277,F#2,33.0,0.031,103,87.0
278,F#3,33.25,13/250,1,87.0
279,F#2,33.25,0.031,73,87.0
280,G#5,33.5,323/1000,49,87.0
281,F#3,33.5,13/250,1,87.0
282,E-4,33.5,73/250,79,87.0
283,B-4,33.5,6/25,99,87.0
284,C2,33.5,0.031,78,87.0
285,F#2,33.5,0.031,78,87.0
286,F#3,33.75,13/250,1,87.0
287,C2,33.75,0.031,98,87.0
288,C5,33.75,6/25,95,87.0
289,F5,34.0,77/200,82,87.0
290,F#2,34.0,0.031,110,87.0
291,C#5,34.0,237/250,97,87.0
292,F#3,34.25,13/250,1,87.0
293,C2,34.25,0.031,61,87.0
294,F#2,34.25,0.031,61,87.0
295,G#5,34.5,427/1000,49,87.0
296,F#3,34.5,13/250,1,87.0
297,C#4,34.5,323/1000,84,87.0
298,C2,34.5,0.031,106,87.0
299,F#2,34.5,0.031,106,87.0
300,B-2,34.75,0.031,111,87.0
301,C#5,35.0,177/500,82,87.0
302,F#3,35.0,13/250,1,87.0
303,B-4,35.0,49/100,102,87.0
304,D2,35.0,0.031,106,87.0
305,E-2,35.0,0.031,106,87.0
306,F#2,35.0,0.031,106,87.0
307,F#3,35.25,13/250,1,87.0
308,D2,35.25,0.031,104,87.0
309,E-2,35.25,0.031,104,87.0
310,E-5,35.5,99/250,55,87.0
311,F#3,35.5,13/250,1,87.0
312,C5,35.5,49/100,101,87.0
313,C2,35.5,0.031,78,87.0
314,F#2,35.5,0.031,78,87.0
315,C2,35.74,21/500,35,87.0
316,F#3,35.75,13/250,1,87.0
317,F5,36.0,77/200,85,87.0
318,C#5,36.0,49/100,97,87.0
319,B-2,36.0,0.031,107,87.0
320,C2,36.0,0.031,107,87.0
321,F#3,36.25,13/250,1,87.0
322,E-5,36.49,0.5,105,87.0
323,F5,36.5,77/200,57,87.0
324,F#3,36.5,13/250,1,87.0
325,F#2,36.5,0.031,112,87.0
326,F#3,36.99,0.062,1,87.0
327,F5,37.0,77/200,84,87.0
328,F5,37.0,77/200,105,87.0
329,D2,37.0,0.031,104,87.0
330,E-2,37.0,0.031,104,87.0
331,F#2,37.0,0.031,104,87.0
332,F#2,37.25,0.031,73,87.0
333,C#5,37.49,0.25,100,87.0
334,C2,37.49,0.031,100,87.0
335,F#2,37.49,0.031,100,87.0
336,F5,37.5,77/200,55,87.0
337,E-5,37.74,0.25,100,87.0
338,C2,37.75,0.031,87,87.0
339,F#2,37.75,0.031,87,87.0
340,F5,37.99,99/250,88,87.0
341,F5,37.99,177/200,105,87.0
342,F#2,38.0,0.031,112,87.0
343,F#3,38.25,13/250,1,87.0
344,F#2,38.25,0.031,76,87.0
345,F5,38.49,99/250,50,87.0
346,F#3,38.5,13/250,1,87.0
347,C2,38.5,0.031,108,87.0
348,F#2,38.5,0.031,108,87.0
349,F#3,38.75,13/250,1,87.0
350,F#2,38.75,0.031,77,87.0
351,F5,38.99,99/250,89,87.0
352,C#5,38.99,0.5,104,87.0
353,F#3,39.0,13/250,1,87.0
354,D2,39.0,0.031,104,87.0
355,E-2,39.0,0.031,104,87.0
356,F#2,39.0,0.031,104,87.0
357,F#3,39.25,13/250,1,87.0
358,F#2,39.25,0.031,74,87.0
359,E-5,39.49,229/500,99,87.0
360,G#5,39.5,73/250,48,87.0
361,F#3,39.5,13/250,1,87.0
362,C2,39.5,0.031,76,87.0
363,F#2,39.5,0.031,76,87.0
364,C2,39.74,0.031,56,87.0
365,F#2,39.74,0.031,56,87.0
366,C#5,39.99,1/100,100,87.0
367,F5,40.0,417/1000,91,87.0
368,F#3,40.0,13/250,1,87.0
369,C#5,40.0,49/100,100,87.0
370,B-2,40.0,0.031,106,87.0
371,C2,40.0,0.031,106,87.0
372,F#3,40.25,13/250,1,87.0
373,C2,40.25,0.031,104,87.0
374,E-5,40.49,0.5,98,87.0
375,G#5,40.5,151/500,50,87.0
376,F#3,40.5,13/250,1,87.0
377,C2,40.5,0.031,103,87.0
378,F#2,40.5,0.031,103,87.0
379,F#3,40.75,13/250,1,87.0
380,F5,40.99,77/200,100,87.0
381,F5,41.0,0.438,86,87.0
382,F#3,41.0,13/250,1,87.0
383,D2,41.0,0.031,102,87.0
384,E-2,41.0,0.031,102,87.0
385,F#2,41.0,0.031,102,87.0
386,F#3,41.25,13/250,1,87.0
387,F#2,41.25,0.031,76,87.0
388,G#5,41.5,323/1000,47,87.0
389,F#3,41.5,13/250,1,87.0
390,C#5,41.5,6/25,95,87.0
391,C2,41.5,0.031,74,87.0
392,F#2,41.5,0.031,74,87.0
393,F#3,41.75,13/250,1,87.0
394,C2,41.75,0.031,97,87.0
395,E-5,41.75,6/25,102,87.0
396,F5,42.0,77/200,88,87.0
397,F#3,42.0,13/250,1,87.0
398,F#2,42.0,0.031,105,87.0
399,F5,42.0,1.0,104,87.0
400,F#3,42.25,13/250,1,87.0
401,C2,42.25,0.031,61,87.0
402,F#2,42.25,0.031,61,87.0
403,G#5,42.5,427/1000,53,87.0
404,F#3,42.5,13/250,1,87.0
405,C2,42.5,0.031,105,87.0
406,F#2,42.5,0.031,105,87.0
407,F#3,42.75,13/250,1,87.0
408,B-2,42.75,0.031,111,87.0
409,F#2,42.99,21/500,106,87.0
410,F#3,43.0,13/250,1,87.0
411,F5,44.0,0.688,88,87.0
412,B-4,44.0,229/500,100,87.0
413,B-2,44.0,0.031,106,87.0
414,C2,44.0,0.031,106,87.0
415,F#3,44.49,0.062,1,87.0
416,F#2,44.5,0.031,110,87.0
417,E-4,44.5,0.438,78,87.0
418,E-4,45.5,77/200,86,87.0
419,F5,45.75,729/1000,90,87.0
420,C5,45.75,6/25,104,87.0
421,C2,45.75,0.031,84,87.0
422,F#2,45.75,0.031,84,87.0
423,F#3,46.0,13/250,1,87.0
424,F#2,46.0,0.031,106,87.0
425,C#5,46.0,99/100,103,87.0
426,F#2,46.25,0.031,70,87.0
427,G#5,46.5,151/500,56,87.0
428,F#3,46.5,13/250,1,87.0
429,E-4,46.5,0.406,85,87.0
430,C2,46.5,0.031,107,87.0
431,F#2,46.5,0.031,107,87.0
432,F#3,46.75,13/250,1,87.0
433,F#2,46.75,0.031,70,87.0
434,F5,46.99,99/250,89,87.0
435,F#3,47.0,13/250,1,87.0
436,B-4,47.0,49/100,100,87.0
437,D2,47.0,0.031,100,87.0
438,E-2,47.0,0.031,100,87.0
439,F#2,47.0,0.031,100,87.0
440,F#2,47.25,0.031,72,87.0
441,G#5,47.5,73/250,52,87.0
442,C5,47.5,417/1000,99,87.0
443,C2,47.5,0.031,78,87.0
444,F#2,47.5,0.031,78,87.0
445,C2,47.74,0.031,62,87.0
446,F#2,47.74,0.031,62,87.0
447,F#3,47.75,13/250,1,87.0
448,F5,48.0,417/1000,87,87.0
449,F#3,48.0,13/250,1,87.0
450,B-4,48.0,0.438,95,87.0
451,B-2,48.0,0.031,109,87.0
452,C2,48.0,0.031,109,87.0
453,F#3,48.25,13/250,1,87.0
454,C2,48.25,0.031,102,87.0
455,G#5,48.5,151/500,52,87.0
456,F#3,48.5,13/250,1,87.0
457,E-4,48.5,229/1000,83,87.0
458,C5,48.5,49/100,99,87.0
459,C2,48.5,0.031,100,87.0
460,F#2,48.5,0.031,100,87.0
461,F5,49.0,0.438,85,87.0
462,F#3,49.0,13/250,1,87.0
463,E-4,49.0,13/50,85,87.0
464,C#5,49.0,0.469,96,87.0
465,D2,49.0,0.031,105,87.0
466,E-2,49.0,0.031,105,87.0
467,F#2,49.0,0.031,105,87.0
468,F#2,49.25,0.031,73,87.0
469,G#5,49.5,323/1000,50,87.0
470,F#3,49.5,13/250,1,87.0
471,E-4,49.5,73/250,83,87.0
472,B-4,49.5,6/25,98,87.0
473,C2,49.5,0.031,70,87.0
474,F#2,49.5,0.031,70,87.0
475,F#3,49.75,13/250,1,87.0
476,C2,49.75,0.031,104,87.0
477,C5,49.75,6/25,96,87.0
478,F5,50.0,77/200,90,87.0
479,F#3,50.0,13/250,1,87.0
480,F#2,50.0,0.031,105,87.0
481,C#5,50.0,237/250,98,87.0
482,F#3,50.25,13/250,1,87.0
483,C2,50.25,0.031,56,87.0
484,F#2,50.25,0.031,56,87.0
485,G#5,50.5,417/1000,57,87.0
486,F#3,50.5,13/250,1,87.0
487,C#4,50.5,323/1000,79,87.0
488,C2,50.5,0.031,108,87.0
489,F#2,50.5,0.031,108,87.0
490,F#3,50.75,13/250,1,87.0
491,B-2,50.75,0.031,115,87.0
492,C#5,51.0,177/500,89,87.0
493,F#3,51.0,13/250,1,87.0
494,B-4,51.0,49/100,103,87.0
495,D2,51.0,0.031,103,87.0
496,E-2,51.0,0.031,103,87.0
497,F#2,51.0,0.031,103,87.0
498,D2,51.25,0.031,102,87.0
499,E-2,51.25,0.031,102,87.0
500,E-5,51.5,99/250,50,87.0
501,C#4,51.5,0.375,97,87.0
502,C5,51.5,49/100,100,87.0
503,C2,51.5,0.031,74,87.0
504,F#2,51.5,0.031,74,87.0
505,C2,51.74,21/500,36,87.0
506,E-4,51.99,1/100,103,87.0
507,F#1,52.0,49/100,101,87.0
508,F5,52.0,77/200,82,87.0
509,E-4,52.0,479/1000,103,87.0
510,B-2,52.0,0.031,102,87.0
511,C2,52.0,0.031,102,87.0
512,F5,52.479,77/200,53,87.0
513,F4,52.49,27/200,102,87.0
514,F#2,52.5,0.031,113,87.0
515,F4,52.74,1271/1000,102,87.0
516,F5,53.0,77/200,82,87.0
517,D2,53.0,0.031,104,87.0
518,E-2,53.0,0.031,104,87.0
519,F#2,53.0,0.031,104,87.0
520,F#2,53.25,0.031,70,87.0
521,F5,53.479,77/200,57,87.0
522,C2,53.49,0.031,103,87.0
523,F#2,53.49,0.031,103,87.0
524,C2,53.75,0.031,86,87.0
525,F#2,53.75,0.031,86,87.0
526,F5,53.99,99/250,90,87.0
527,F#2,54.0,0.031,109,87.0
528,C#4,54.25,13/125,98,87.0
529,F#2,54.25,0.031,76,87.0
530,F5,54.469,99/250,48,87.0
531,C#4,54.5,73/200,104,87.0
532,C2,54.5,0.031,104,87.0
533,F#2,54.5,0.031,104,87.0
534,F#2,54.75,0.031,71,87.0
535,F5,54.99,99/250,88,87.0
536,C#4,54.99,27/200,105,87.0
537,D2,55.0,0.031,104,87.0
538,E-2,55.0,0.031,104,87.0
539,F#2,55.0,0.031,104,87.0
540,C#4,55.24,0.156,99,87.0
541,F#2,55.25,0.031,77,87.0
542,C#4,55.49,427/1000,99,87.0
543,G#5,55.5,73/250,47,87.0
544,C2,55.5,0.031,76,87.0
545,F#2,55.5,0.031,76,87.0
546,C2,55.74,0.031,58,87.0
547,F#2,55.74,0.031,58,87.0
548,E-4,55.99,1/100,95,87.0
549,G#1,56.0,0.5,101,87.0
550,F5,56.0,417/1000,86,87.0
551,E-4,56.0,49/100,95,87.0
552,B-2,56.0,0.031,107,87.0
553,C2,56.0,0.031,107,87.0
554,C2,56.25,0.031,96,87.0
555,F4,56.49,73/500,95,87.0
556,G#5,56.5,151/500,53,87.0
557,C2,56.5,0.031,104,87.0
558,F#2,56.5,0.031,104,87.0
559,F4,56.74,277/200,100,87.0
560,F5,57.0,0.438,92,87.0
561,D2,57.0,0.031,102,87.0
562,E-2,57.0,0.031,102,87.0
563,F#2,57.0,0.031,102,87.0
564,F#2,57.25,0.031,77,87.0
565,G#5,57.5,323/1000,54,87.0
566,C2,57.5,0.031,74,87.0
567,F#2,57.5,0.031,74,87.0
568,C2,57.75,0.031,101,87.0
569,F5,58.0,77/200,88,87.0
570,F#2,58.0,0.031,113,87.0
571,C2,58.25,0.031,58,87.0
572,F#2,58.25,0.031,58,87.0
573,C#4,58.49,56/125,97,87.0
574,G#5,58.5,427/1000,55,87.0
575,C2,58.5,0.031,106,87.0
576,F#2,58.5,0.031,106,87.0
577,B-2,58.75,0.031,111,87.0
578,F5,59.0,177/500,92,87.0
579,C#4,59.0,0.406,95,87.0
580,D2,59.0,0.031,105,87.0
581,E-2,59.0,0.031,105,87.0
582,F#2,59.0,0.031,105,87.0
583,D2,59.25,0.031,98,87.0
584,E-2,59.25,0.031,98,87.0
585,G#5,59.5,99/250,50,87.0
586,C#4,59.5,177/500,100,87.0
587,C2,59.5,0.031,75,87.0
588,F#2,59.5,0.031,75,87.0
589,C2,59.74,21/500,39,87.0
590,E-4,59.99,1/100,102,87.0
591,F1,60.0,49/100,100,87.0
592,F5,60.0,77/200,90,87.0
593,E-4,60.0,417/1000,102,87.0
594,B-2,60.0,0.031,109,87.0
595,C2,60.0,0.031,109,87.0
596,F5,60.479,77/200,55,87.0
597,F4,60.49,73/500,104,87.0
598,F#2,60.5,0.031,111,87.0
599,F4,60.75,349/500,95,87.0
600,F5,61.0,77/200,88,87.0
601,D2,61.0,0.031,106,87.0
602,E-2,61.0,0.031,106,87.0
603,F#2,61.0,0.031,106,87.0
604,F#2,61.25,0.031,76,87.0
605,F5,61.479,77/200,49,87.0
606,C2,61.49,0.031,103,87.0
607,F#2,61.49,0.031,103,87.0
608,E-4,61.5,99/100,101,87.0
609,C2,61.75,0.031,90,87.0
610,F#2,61.75,0.031,90,87.0
611,F5,61.99,99/250,82,87.0
612,F#2,62.0,0.031,114,87.0
613,F#2,62.25,0.031,78,87.0
614,F5,62.469,99/250,53,87.0
615,C#4,62.49,229/500,99,87.0
616,C2,62.5,0.031,104,87.0
617,F#2,62.5,0.031,104,87.0
618,F#2,62.75,0.031,77,87.0
619,F5,62.99,99/250,84,87.0
620,C#4,63.0,77/200,99,87.0
621,D2,63.0,0.031,104,87.0
622,E-2,63.0,0.031,104,87.0
623,F#2,63.0,0.031,104,87.0
624,F#2,63.25,0.031,80,87.0
625,G#5,63.5,73/250,48,87.0
626,C#4,63.5,99/250,104,87.0
627,C2,63.5,0.031,74,87.0
628,F#2,63.5,0.031,74,87.0
629,C2,63.74,0.031,57,87.0
630,F#2,63.74,0.031,57,87.0
631,B-1,64.0,0.5,97,87.0
632,F5,64.0,417/1000,84,87.0
633,E-4,64.0,49/100,105,87.0
634,B-2,64.0,0.031,106,87.0
635,C2,64.0,0.031,106,87.0
636,C2,64.25,0.031,98,87.0
637,G#5,64.5,151/500,47,87.0
638,C#4,64.5,27/200,99,87.0
639,C2,64.5,0.031,106,87.0
640,F#2,64.5,0.031,106,87.0
641,C#4,64.75,229/1000,103,87.0
642,F5,65.0,0.438,89,87.0
643,B-3,65.0,1.156,105,87.0
644,D2,65.0,0.031,105,87.0
645,E-2,65.0,0.031,105,87.0
646,F#2,65.0,0.031,105,87.0
647,F#2,65.25,0.031,79,87.0
648,G#5,65.5,323/1000,47,87.0
649,C2,65.5,0.031,74,87.0
650,F#2,65.5,0.031,74,87.0
651,C2,65.75,0.031,99,87.0
652,F5,66.0,77/200,87,87.0
653,F#2,66.0,0.031,113,87.0
654,C2,66.25,0.031,58,87.0
655,F#2,66.25,0.031,58,87.0
656,G#5,66.5,427/1000,55,87.0
657,C#4,66.5,49/100,98,87.0
658,C2,66.5,0.031,108,87.0
659,F#2,66.5,0.031,108,87.0
660,B-2,66.75,0.031,113,87.0
661,F5,67.0,177/500,85,87.0
662,B-3,67.0,77/200,99,87.0
663,D2,67.0,0.031,104,87.0
664,E-2,67.0,0.031,104,87.0
665,F#2,67.0,0.031,104,87.0
666,D2,67.25,0.031,104,87.0
667,E-2,67.25,0.031,104,87.0
668,G#5,67.5,99/250,56,87.0
669,B-3,67.5,49/100,101,87.0
670,C2,67.5,0.031,74,87.0
671,F#2,67.5,0.031,74,87.0
672,C2,67.74,21/500,41,87.0
673,E-4,67.99,1/100,98,87.0
674,F#1,68.0,49/100,99,87.0
675,F5,68.0,77/200,85,87.0
676,E-4,68.0,49/100,98,87.0
677,B-2,68.0,0.031,104,87.0
678,C2,68.0,0.031,104,87.0
679,F5,68.479,77/200,56,87.0
680,F4,68.5,0.156,95,87.0
681,F#2,68.5,0.031,115,87.0
682,F4,68.75,1417/1000,100,87.0
683,F5,69.0,77/200,92,87.0
684,D2,69.0,0.031,103,87.0
685,E-2,69.0,0.031,103,87.0
686,F#2,69.0,0.031,103,87.0
687,F#2,69.25,0.031,77,87.0
688,F5,69.479,77/200,50,87.0
689,C2,69.49,0.031,104,87.0
690,F#2,69.49,0.031,104,87.0
691,C2,69.75,0.031,86,87.0
692,F#2,69.75,0.031,86,87.0
693,F5,69.99,99/250,85,87.0
694,F#2,70.0,0.031,115,87.0
695,F#2,70.25,0.031,74,87.0
696,F5,70.469,99/250,53,87.0
697,C#4,70.49,99/250,105,87.0
698,C2,70.5,0.031,106,87.0
699,F#2,70.5,0.031,106,87.0
700,F#2,70.75,0.031,76,87.0
701,F5,70.99,99/250,89,87.0
702,C#4,70.99,0.406,95,87.0
703,D2,71.0,0.031,102,87.0
704,E-2,71.0,0.031,102,87.0
705,F#2,71.0,0.031,102,87.0
706,F#2,71.25,0.031,75,87.0
707,C#4,71.49,0.406,96,87.0
708,G#5,71.5,73/250,50,87.0
709,C2,71.5,0.031,73,87.0
710,F#2,71.5,0.031,73,87.0
711,C2,71.74,0.031,60,87.0
712,F#2,71.74,0.031,60,87.0
713,E-4,71.99,1/100,99,87.0
714,G#1,72.0,0.5,101,87.0
715,F5,72.0,417/1000,87,87.0
716,E-4,72.0,49/100,99,87.0
717,B-2,72.0,0.031,106,87.0
718,C2,72.0,0.031,106,87.0
719,C2,72.25,0.031,102,87.0
720,G#5,72.5,151/500,48,87.0
721,F4,72.5,99/500,95,87.0
722,C2,72.5,0.031,107,87.0
723,F#2,72.5,0.031,107,87.0
724,F4,72.75,273/200,101,87.0
725,F5,73.0,0.438,92,87.0
726,D2,73.0,0.031,103,87.0
727,E-2,73.0,0.031,103,87.0
728,F#2,73.0,0.031,103,87.0
729,F#2,73.25,0.031,72,87.0
730,G#5,73.5,323/1000,54,87.0
731,C2,73.5,0.031,77,87.0
732,F#2,73.5,0.031,77,87.0
733,C2,73.75,0.031,96,87.0
734,F5,74.0,77/200,89,87.0
735,F#2,74.0,0.031,112,87.0
736,C#4,74.25,27/200,95,87.0
737,C2,74.25,0.031,56,87.0
738,F#2,74.25,0.031,56,87.0
739,G#5,74.5,427/1000,47,87.0
740,C#4,74.5,0.406,99,87.0
741,C2,74.5,0.031,104,87.0
742,F#2,74.5,0.031,104,87.0
743,B-2,74.75,0.031,115,87.0
744,F5,75.0,177/500,87,87.0
745,C#4,75.0,99/250,99,87.0
746,D2,75.0,0.031,100,87.0
747,E-2,75.0,0.031,100,87.0
748,F#2,75.0,0.031,100,87.0
749,D2,75.25,0.031,99,87.0
750,E-2,75.25,0.031,99,87.0
751,G#5,75.5,99/250,55,87.0
752,C#4,75.5,73/250,100,87.0
753,C2,75.5,0.031,76,87.0
754,F#2,75.5,0.031,76,87.0
755,C2,75.74,21/500,45,87.0
756,F1,76.0,49/100,102,87.0
757,F5,76.0,77/200,88,87.0
758,E-4,76.0,49/100,103,87.0
759,B-2,76.0,0.031,102,87.0
760,C2,76.0,0.031,102,87.0
761,F5,76.479,77/200,48,87.0
762,C#4,76.5,229/1000,96,87.0
763,F#2,76.5,0.031,108,87.0
764,C4,76.75,1.312,105,87.0
765,F5,77.0,77/200,89,87.0
766,D2,77.0,0.031,104,87.0
767,E-2,77.0,0.031,104,87.0
768,F#2,77.0,0.031,104,87.0
769,F#2,77.25,0.031,76,87.0
770,F5,77.479,77/200,47,87.0
771,C2,77.49,0.031,104,87.0
772,F#2,77.49,0.031,104,87.0
773,C2,77.75,0.031,89,87.0
774,F#2,77.75,0.031,89,87.0
775,F5,77.99,99/250,91,87.0
776,F#2,78.0,0.031,106,87.0
777,F#2,78.25,0.031,73,87.0
778,F5,78.469,99/250,50,87.0
779,C4,78.5,49/100,102,87.0
780,C2,78.5,0.031,110,87.0
781,F#2,78.5,0.031,110,87.0
782,F#2,78.75,0.031,78,87.0
783,F5,78.99,99/250,86,87.0
784,C4,79.0,49/100,98,87.0
785,D2,79.0,0.031,99,87.0
786,E-2,79.0,0.031,99,87.0
787,F#2,79.0,0.031,99,87.0
788,B-4,79.01,0.375,92,87.0
789,B-4,79.01,0.375,104,87.0
790,F#2,79.25,0.031,75,87.0
791,G#5,79.396,0.094,90,87.0
792,G#5,79.396,0.094,104,87.0
793,G#5,79.5,73/250,51,87.0
794,C4,79.5,49/100,99,87.0
795,B-5,79.5,417/1000,88,87.0
796,B-5,79.5,417/1000,105,87.0
797,C2,79.5,0.031,75,87.0
798,F#2,79.5,0.031,75,87.0
799,C2,79.74,0.031,56,87.0
800,F#2,79.74,0.031,56,87.0
801,B-1,80.0,0.5,103,87.0
802,F5,80.0,417/1000,83,87.0
803,C#4,80.0,0.219,98,87.0
804,B-2,80.0,0.031,105,87.0
805,C2,80.0,0.031,105,87.0
806,E-4,80.24,0.719,101,87.0
807,C2,80.25,0.031,101,87.0
808,G#5,80.5,151/500,48,87.0
809,C2,80.5,0.031,110,87.0
810,F#2,80.5,0.031,110,87.0
811,B-3,80.99,1583/1000,103,87.0
812,F5,81.0,0.438,89,87.0
813,D2,81.0,0.031,105,87.0
814,E-2,81.0,0.031,105,87.0
815,F#2,81.0,0.031,105,87.0
816,F#2,81.25,0.031,71,87.0
817,G#5,81.5,323/1000,48,87.0
818,C2,81.5,0.031,72,87.0
819,F#2,81.5,0.031,72,87.0
820,C2,81.75,0.031,101,87.0
821,F5,82.0,77/200,82,87.0
822,F#2,82.0,0.031,107,87.0
823,C2,82.25,0.031,55,87.0
824,F#2,82.25,0.031,55,87.0
825,G#5,82.5,427/1000,55,87.0
826,C2,82.5,0.031,106,87.0
827,F#2,82.5,0.031,106,87.0
828,B-2,82.75,0.031,115,87.0
829,F5,83.0,177/500,87,87.0
830,G#4,83.0,0.312,98,87.0
831,D2,83.0,0.031,101,87.0
832,E-2,83.0,0.031,101,87.0
833,F#2,83.0,0.031,101,87.0
834,D2,83.25,0.031,96,87.0
835,E-2,83.25,0.031,96,87.0
836,G#5,83.5,99/250,57,87.0
837,G#4,83.5,229/500,99,87.0
838,C2,83.5,0.031,75,87.0
839,F#2,83.5,0.031,75,87.0
840,C2,83.74,21/500,39,87.0
841,F#1,84.0,3.938,104,87.0
842,F5,84.0,77/200,82,87.0
843,F#4,84.0,0.781,102,87.0
844,C#5,84.0,49/100,105,87.0
845,B-2,84.0,0.031,104,87.0
846,C2,84.0,0.031,104,87.0
847,F5,84.479,77/200,56,87.0
848,E-5,84.49,0.5,97,87.0
849,F#2,84.5,0.031,113,87.0
850,F5,85.0,77/200,89,87.0
851,F#4,85.0,167/1000,98,87.0
852,F5,85.0,77/200,98,87.0
853,D2,85.0,0.031,102,87.0
854,E-2,85.0,0.031,102,87.0
855,F#2,85.0,0.031,102,87.0
856,F#4,85.25,0.156,97,87.0
857,F#2,85.25,0.031,75,87.0
858,F5,85.479,77/200,49,87.0
859,C#5,85.49,0.25,98,87.0
860,C2,85.49,0.031,108,87.0
861,F#2,85.49,0.031,108,87.0
862,F#4,85.5,0.406,105,87.0
863,E-5,85.74,0.25,105,87.0
864,C2,85.75,0.031,88,87.0
865,F#2,85.75,0.031,88,87.0
866,F5,85.99,99/250,87,87.0
867,F5,85.99,177/200,103,87.0
868,F#4,86.0,99/250,105,87.0
869,F#2,86.0,0.031,111,87.0
870,F#2,86.25,0.031,78,87.0
871,F5,86.469,99/250,50,87.0
872,F#4,86.5,0.375,97,87.0
873,C2,86.5,0.031,102,87.0
874,F#2,86.5,0.031,102,87.0
875,F#2,86.75,0.031,71,87.0
876,F5,86.99,99/250,84,87.0
877,C#5,86.99,0.5,95,87.0
878,F#4,87.0,56/125,105,87.0
879,D2,87.0,0.031,101,87.0
880,E-2,87.0,0.031,101,87.0
881,F#2,87.0,0.031,101,87.0
882,F#2,87.25,0.031,71,87.0
883,E-5,87.49,229/500,100,87.0
884,G#5,87.5,73/250,50,87.0
885,G#4,87.5,27/200,98,87.0
886,C2,87.5,0.031,74,87.0
887,F#2,87.5,0.031,74,87.0
888,C2,87.74,0.031,60,87.0
889,F#2,87.74,0.031,60,87.0
890,G#4,87.75,0.219,100,87.0
891,C#1,87.99,1/100,99,87.0
892,C#5,87.99,1/100,99,87.0
893,C#1,88.0,3979/1000,99,87.0
894,F5,88.0,417/1000,82,87.0
895,F4,88.0,0.781,100,87.0
896,C#5,88.0,49/100,99,87.0
897,B-2,88.0,0.031,103,87.0
898,C2,88.0,0.031,103,87.0
899,C2,88.25,0.031,97,87.0
900,E-5,88.49,0.5,98,87.0
901,G#5,88.5,151/500,54,87.0
902,C2,88.5,0.031,108,87.0
903,F#2,88.5,0.031,108,87.0
904,F4,88.99,417/1000,105,87.0
905,F5,88.99,77/200,99,87.0
906,F5,89.0,0.438,87,87.0
907,D2,89.0,0.031,106,87.0
908,E-2,89.0,0.031,106,87.0
909,F#2,89.0,0.031,106,87.0
910,F#2,89.25,0.031,78,87.0
911,G#5,89.5,323/1000,50,87.0
912,F4,89.5,77/200,100,87.0
913,C#5,89.5,6/25,96,87.0
914,C2,89.5,0.031,78,87.0
915,F#2,89.5,0.031,78,87.0
916,C2,89.75,0.031,102,87.0
917,E-5,89.75,6/25,99,87.0
918,F5,90.0,77/200,90,87.0
919,F4,90.0,0.375,98,87.0
920,F#2,90.0,0.031,105,87.0
921,F5,90.0,99/100,105,87.0
922,C2,90.25,0.031,57,87.0
923,F#2,90.25,0.031,57,87.0
924,G#5,90.5,427/1000,55,87.0
925,F4,90.5,73/200,95,87.0
926,C2,90.5,0.031,109,87.0
927,F#2,90.5,0.031,109,87.0
928,B-2,90.75,0.031,110,87.0
929,F5,91.0,177/500,88,87.0
930,F4,91.0,99/250,105,87.0
931,C#5,91.0,0.469,104,87.0
932,D2,91.0,0.031,106,87.0
933,E-2,91.0,0.031,106,87.0
934,F#2,91.0,0.031,106,87.0
935,D2,91.25,0.031,104,87.0
936,E-2,91.25,0.031,104,87.0
937,F#4,91.49,0.25,98,87.0
938,G#5,91.5,99/250,51,87.0
939,E-5,91.5,427/1000,103,87.0
940,C2,91.5,0.031,77,87.0
941,F#2,91.5,0.031,77,87.0
942,F4,91.74,0.25,95,87.0
943,C2,91.74,21/500,39,87.0
944,G#1,92.0,3.938,104,87.0
945,F5,92.0,77/200,87,87.0
946,E-4,92.0,0.781,98,87.0
947,B-4,92.0,229/500,97,87.0
948,B-2,92.0,0.031,107,87.0
949,C2,92.0,0.031,107,87.0
950,F5,92.479,77/200,54,87.0
951,F#2,92.5,0.031,115,87.0
952,C5,92.5,49/100,95,87.0
953,F5,93.0,77/200,82,87.0
954,E-4,93.0,73/200,104,87.0
955,C#5,93.0,229/500,103,87.0
956,D2,93.0,0.031,105,87.0
957,E-2,93.0,0.031,105,87.0
958,F#2,93.0,0.031,105,87.0
959,F#2,93.25,0.031,75,87.0
960,F5,93.479,77/200,47,87.0
961,C2,93.49,0.031,109,87.0
962,F#2,93.49,0.031,109,87.0
963,E-4,93.5,99/250,97,87.0
964,B-4,93.5,6/25,99,87.0
965,C5,93.75,6/25,105,87.0
966,C2,93.75,0.031,88,87.0
967,F#2,93.75,0.031,88,87.0
968,F5,93.99,99/250,82,87.0
969,E-4,94.0,0.375,104,87.0
970,F#2,94.0,0.031,114,87.0
971,C#5,94.0,99/100,98,87.0
972,F#2,94.25,0.031,79,87.0
973,F5,94.469,99/250,51,87.0
974,E-4,94.5,177/500,104,87.0
975,C2,94.5,0.031,102,87.0
976,F#2,94.5,0.031,102,87.0
977,F#2,94.75,0.031,76,87.0
978,F5,94.99,99/250,82,87.0
979,F4,95.0,0.438,100,87.0
980,B-4,95.0,49/100,100,87.0
981,D2,95.0,0.031,104,87.0
982,E-2,95.0,0.031,104,87.0
983,F#2,95.0,0.031,104,87.0
984,F#2,95.25,0.031,75,87.0
985,C#4,95.49,0.25,102,87.0
986,G#5,95.5,73/250,47,87.0
987,C5,95.5,417/1000,97,87.0
988,C2,95.5,0.031,74,87.0
989,F#2,95.5,0.031,74,87.0
990,C2,95.74,0.031,60,87.0
991,F#2,95.74,0.031,60,87.0
992,E-4,95.75,0.25,99,87.0
993,B-1,95.99,1/100,100,87.0
994,B-1,96.0,3979/1000,100,87.0
995,F5,96.0,417/1000,86,87.0
996,E-4,96.0,0.406,99,87.0
997,B-4,96.0,0.438,102,87.0
998,B-2,96.0,0.031,106,87.0
999,C2,96.0,0.031,106,87.0
1000,C2,96.25,0.031,98,87.0
1001,C#4,96.49,0.25,97,87.0
1002,G#5,96.5,151/500,57,87.0
1003,C5,96.5,49/100,98,87.0
1004,C2,96.5,0.031,104,87.0
1005,F#2,96.5,0.031,104,87.0
1006,B-3,96.75,26/125,96,87.0
1007,F5,97.0,0.438,86,87.0
1008,C#4,97.0,0.406,96,87.0
1009,C#5,97.0,0.469,104,87.0
1010,D2,97.0,0.031,101,87.0
1011,E-2,97.0,0.031,101,87.0
1012,F#2,97.0,0.031,101,87.0
1013,F#2,97.25,0.031,71,87.0
1014,G#5,97.5,323/1000,50,87.0
1015,C#4,97.5,229/1000,102,87.0
1016,B-4,97.5,6/25,101,87.0
1017,C2,97.5,0.031,74,87.0
1018,F#2,97.5,0.031,74,87.0
1019,B-3,97.75,167/1000,97,87.0
1020,C2,97.75,0.031,96,87.0
1021,C5,97.75,6/25,103,87.0
1022,F5,98.0,77/200,89,87.0
1023,C#4,98.0,0.156,103,87.0
1024,F#2,98.0,0.031,105,87.0
1025,C#5,98.0,237/250,101,87.0
1026,C#4,98.25,167/1000,102,87.0
1027,C2,98.25,0.031,56,87.0
1028,F#2,98.25,0.031,56,87.0
1029,G#5,98.5,427/1000,51,87.0
1030,C#4,98.5,73/200,97,87.0
1031,C2,98.5,0.031,109,87.0
1032,F#2,98.5,0.031,109,87.0
1033,B-2,98.75,0.031,107,87.0
1034,F5,99.0,177/500,89,87.0
1035,E-4,99.0,0.375,100,87.0
1036,B-4,99.0,49/100,96,87.0
1037,D2,99.0,0.031,104,87.0
1038,E-2,99.0,0.031,104,87.0
1039,F#2,99.0,0.031,104,87.0
1040,D2,99.25,0.031,102,87.0
1041,E-2,99.25,0.031,102,87.0
1042,G#5,99.5,99/250,55,87.0
1043,C#4,99.5,0.156,105,87.0
1044,C5,99.5,49/100,101,87.0
1045,C2,99.5,0.031,78,87.0
1046,F#2,99.5,0.031,78,87.0
1047,C2,99.74,21/500,45,87.0
1048,C#4,99.75,6/25,95,87.0
1049,F#1,100.0,3.938,96,87.0
1050,F5,100.0,77/200,92,87.0
1051,B-3,100.0,0.719,98,87.0
1052,C#5,100.0,49/100,101,87.0
1053,B-2,100.0,0.031,102,87.0
1054,C2,100.0,0.031,102,87.0
1055,F5,100.479,77/200,53,87.0
1056,E-5,100.49,0.5,101,87.0
1057,F#2,100.5,0.031,114,87.0
1058,F5,101.0,77/200,85,87.0
1059,F#4,101.0,99/250,105,87.0
1060,F5,101.0,77/200,99,87.0
1061,D2,101.0,0.031,102,87.0
1062,E-2,101.0,0.031,102,87.0
1063,F#2,101.0,0.031,102,87.0
1064,F#2,101.25,0.031,75,87.0
1065,F5,101.479,77/200,47,87.0
1066,C#5,101.49,0.25,95,87.0
1067,C2,101.49,0.031,102,87.0
1068,F#2,101.49,0.031,102,87.0
1069,F#4,101.5,0.156,98,87.0
1070,E-5,101.74,0.25,99,87.0
1071,F#4,101.75,27/200,104,87.0
1072,C2,101.75,0.031,88,87.0
1073,F#2,101.75,0.031,88,87.0
1074,F5,101.99,99/250,87,87.0
1075,F5,101.99,177/200,96,87.0
1076,F#4,102.0,427/1000,100,87.0
1077,F#2,102.0,0.031,109,87.0
1078,F#2,102.25,0.031,76,87.0
1079,F5,102.469,99/250,57,87.0
1080,F#4,102.5,99/250,100,87.0
1081,C2,102.5,0.031,100,87.0
1082,F#2,102.5,0.031,100,87.0
1083,F#2,102.75,0.031,72,87.0
1084,F5,102.99,99/250,83,87.0
1085,C#5,102.99,0.5,104,87.0
1086,F#4,103.0,0.438,102,87.0
1087,D2,103.0,0.031,102,87.0
1088,E-2,103.0,0.031,102,87.0
1089,F#2,103.0,0.031,102,87.0
1090,F#2,103.25,0.031,77,87.0
1091,E-5,103.49,229/500,101,87.0
1092,G#5,103.5,73/250,50,87.0
1093,G#4,103.5,73/500,98,87.0
1094,C2,103.5,0.031,71,87.0
1095,F#2,103.5,0.031,71,87.0
1096,C2,103.74,0.031,57,87.0
1097,F#2,103.74,0.031,57,87.0
1098,G#4,103.75,0.188,96,87.0
1099,C#1,103.99,1/100,100,87.0
1100,C#5,103.99,1/100,95,87.0
1101,C#1,104.0,3979/1000,100,87.0
1102,F5,104.0,417/1000,90,87.0
1103,F4,104.0,0.844,100,87.0
1104,C#5,104.0,49/100,95,87.0
1105,B-2,104.0,0.031,104,87.0
1106,C2,104.0,0.031,104,87.0
1107,C2,104.25,0.031,105,87.0
1108,E-5,104.49,0.5,100,87.0
1109,G#5,104.5,151/500,49,87.0
1110,C2,104.5,0.031,103,87.0
1111,F#2,104.5,0.031,103,87.0
1112,F5,104.99,77/200,97,87.0
1113,F5,105.0,0.438,83,87.0
1114,F4,105.0,0.375,98,87.0
1115,D2,105.0,0.031,100,87.0
1116,E-2,105.0,0.031,100,87.0
1117,F#2,105.0,0.031,100,87.0
1118,F#2,105.25,0.031,76,87.0
1119,G#5,105.5,323/1000,49,87.0
1120,F4,105.5,0.375,101,87.0
1121,C#5,105.5,6/25,105,87.0
1122,C2,105.5,0.031,72,87.0
1123,F#2,105.5,0.031,72,87.0
1124,C2,105.75,0.031,103,87.0
1125,E-5,105.75,6/25,96,87.0
1126,F5,106.0,77/200,87,87.0
1127,F4,106.0,99/250,97,87.0
1128,F#2,106.0,0.031,115,87.0
1129,F5,106.0,99/100,97,87.0
1130,C2,106.25,0.031,58,87.0
1131,F#2,106.25,0.031,58,87.0
1132,G#5,106.5,427/1000,54,87.0
1133,F4,106.5,0.344,105,87.0
1134,C2,106.5,0.031,107,87.0
1135,F#2,106.5,0.031,107,87.0
1136,B-2,106.75,0.031,110,87.0
1137,F5,107.0,177/500,89,87.0
1138,F4,107.0,0.344,100,87.0
1139,C#5,107.0,0.469,103,87.0
1140,D2,107.0,0.031,105,87.0
1141,E-2,107.0,0.031,105,87.0
1142,F#2,107.0,0.031,105,87.0
1143,D2,107.25,0.031,100,87.0
1144,E-2,107.25,0.031,100,87.0
1145,G#5,107.5,99/250,56,87.0
1146,F#4,107.5,229/1000,95,87.0
1147,E-5,107.5,427/1000,105,87.0
1148,C2,107.5,0.031,80,87.0
1149,F#2,107.5,0.031,80,87.0
1150,F4,107.74,6/25,95,87.0
1151,C2,107.74,21/500,40,87.0
1152,G#1,108.0,3.938,98,87.0
1153,F5,108.0,77/200,86,87.0
1154,E-4,108.0,127/200,97,87.0
1155,B-4,108.0,229/500,103,87.0
1156,B-2,108.0,0.031,102,87.0
1157,C2,108.0,0.031,102,87.0
1158,F5,108.479,77/200,57,87.0
1159,F#2,108.5,0.031,114,87.0
1160,C5,108.5,49/100,100,87.0
1161,E-4,108.99,0.25,105,87.0
1162,F5,109.0,77/200,86,87.0
1163,C#5,109.0,229/500,103,87.0
1164,D2,109.0,0.031,105,87.0
1165,E-2,109.0,0.031,105,87.0
1166,F#2,109.0,0.031,105,87.0
1167,C#4,109.24,0.25,98,87.0
1168,F#2,109.25,0.031,70,87.0
1169,F5,109.479,77/200,52,87.0
1170,C2,109.49,0.031,106,87.0
1171,F#2,109.49,0.031,106,87.0
1172,E-4,109.5,271/1000,102,87.0
1173,B-4,109.5,6/25,100,87.0
1174,C5,109.75,6/25,99,87.0
1175,C2,109.75,0.031,88,87.0
1176,F#2,109.75,0.031,88,87.0
1177,F5,109.99,99/250,92,87.0
1178,E-4,110.0,229/1000,105,87.0
1179,F#2,110.0,0.031,112,87.0
1180,C#5,110.0,99/100,101,87.0
1181,C#4,110.25,0.156,98,87.0
1182,F#2,110.25,0.031,78,87.0
1183,F5,110.469,99/250,55,87.0
1184,E-4,110.49,0.344,95,87.0
1185,C2,110.5,0.031,108,87.0
1186,F#2,110.5,0.031,108,87.0
1187,F#2,110.75,0.031,79,87.0
1188,F5,110.99,99/250,89,87.0
1189,F4,110.99,0.438,96,87.0
1190,B-4,111.0,49/100,96,87.0
1191,D2,111.0,0.031,103,87.0
1192,E-2,111.0,0.031,103,87.0
1193,F#2,111.0,0.031,103,87.0
1194,F#2,111.25,0.031,71,87.0
1195,C#4,111.49,167/1000,100,87.0
1196,G#5,111.5,73/250,56,87.0
1197,C5,111.5,417/1000,103,87.0
1198,C2,111.5,0.031,74,87.0
1199,F#2,111.5,0.031,74,87.0
1200,C2,111.74,0.031,60,87.0
1201,F#2,111.74,0.031,60,87.0
1202,C#4,111.75,167/1000,97,87.0
1203,B-1,111.99,1/100,97,87.0
1204,B-1,112.0,3979/1000,97,87.0
1205,F5,112.0,417/1000,85,87.0
1206,E-4,112.0,521/1000,97,87.0
1207,B-4,112.0,0.438,100,87.0
1208,B-2,112.0,0.031,102,87.0
1209,C2,112.0,0.031,102,87.0
1210,C2,112.25,0.031,96,87.0
1211,G#5,112.5,151/500,47,87.0
1212,C5,112.5,49/100,98,87.0
1213,C2,112.5,0.031,104,87.0
1214,F#2,112.5,0.031,104,87.0
1215,C#4,112.99,0.25,99,87.0
1216,F5,113.0,0.438,84,87.0
1217,C#5,113.0,0.469,104,87.0
1218,D2,113.0,0.031,103,87.0
1219,E-2,113.0,0.031,103,87.0
1220,F#2,113.0,0.031,103,87.0
1221,B-3,113.25,6/25,103,87.0
1222,F#2,113.25,0.031,75,87.0
1223,C#4,113.49,0.375,97,87.0
1224,G#5,113.5,323/1000,51,87.0
1225,B-4,113.5,6/25,97,87.0
1226,C2,113.5,0.031,74,87.0
1227,F#2,113.5,0.031,74,87.0
1228,C2,113.75,0.031,104,87.0
1229,C5,113.75,6/25,101,87.0
1230,F5,114.0,77/200,88,87.0
1231,C#4,114.0,6/25,98,87.0
1232,F#2,114.0,0.031,114,87.0
1233,C#5,114.0,237/250,97,87.0
1234,B-3,114.25,26/125,100,87.0
1235,C2,114.25,0.031,58,87.0
1236,F#2,114.25,0.031,58,87.0
1237,G#5,114.5,427/1000,50,87.0
1238,C#4,114.5,151/500,98,87.0
1239,C2,114.5,0.031,106,87.0
1240,F#2,114.5,0.031,106,87.0
1241,B-2,114.75,0.031,111,87.0
1242,F5,115.0,177/500,82,87.0
1243,E-4,115.0,427/1000,103,87.0
1244,B-4,115.0,49/100,97,87.0
1245,D2,115.0,0.031,100,87.0
1246,E-2,115.0,0.031,100,87.0
1247,F#2,115.0,0.031,100,87.0
1248,D2,115.25,0.031,102,87.0
1249,E-2,115.25,0.031,102,87.0
1250,C#4,115.49,167/1000,98,87.0
1251,G#5,115.5,99/250,56,87.0
1252,C5,115.5,49/100,104,87.0
1253,C2,115.5,0.031,75,87.0
1254,F#2,115.5,0.031,75,87.0
1255,C#4,115.74,0.188,104,87.0
1256,C2,115.74,21/500,41,87.0
1257,F#1,116.0,49/100,102,87.0
1258,F5,116.0,77/200,87,87.0
1259,B-3,116.0,19/25,95,87.0
1260,C#5,116.0,49/100,105,87.0
1261,B-2,116.0,0.031,100,87.0
1262,C2,116.0,0.031,100,87.0
1263,F5,116.479,77/200,50,87.0
1264,E-5,116.49,0.5,105,87.0
1265,F#2,116.5,0.031,105,87.0
1266,F5,117.0,77/200,88,87.0
1267,C#4,117.0,26/125,100,87.0
1268,F5,117.0,77/200,103,87.0
1269,D2,117.0,0.031,103,87.0
1270,E-2,117.0,0.031,103,87.0
1271,F#2,117.0,0.031,103,87.0
1272,B-3,117.25,0.656,101,87.0
1273,F#2,117.25,0.031,75,87.0
1274,F5,117.479,77/200,47,87.0
1275,C#5,117.49,0.25,95,87.0
1276,C2,117.49,0.031,104,87.0
1277,F#2,117.49,0.031,104,87.0
1278,E-5,117.74,0.25,96,87.0
1279,C2,117.75,0.031,90,87.0
1280,F#2,117.75,0.031,90,87.0
1281,F5,117.99,99/250,88,87.0
1282,F5,117.99,177/200,99,87.0
1283,C#4,118.0,6/25,103,87.0
1284,F#2,118.0,0.031,108,87.0
1285,B-3,118.25,69/125,99,87.0
1286,F#2,118.25,0.031,72,87.0
1287,F5,118.469,99/250,50,87.0
1288,C2,118.5,0.031,106,87.0
1289,F#2,118.5,0.031,106,87.0
1290,F#2,118.75,0.031,74,87.0
1291,F5,118.99,99/250,88,87.0
1292,C#4,118.99,177/200,102,87.0
1293,C#5,118.99,0.5,103,87.0
1294,D2,119.0,0.031,103,87.0
1295,E-2,119.0,0.031,103,87.0
1296,F#2,119.0,0.031,103,87.0
1297,F#2,119.25,0.031,70,87.0
1298,E-5,119.49,229/500,104,87.0
1299,G#5,119.5,73/250,53,87.0
1300,C2,119.5,0.031,80,87.0
1301,F#2,119.5,0.031,80,87.0
1302,C2,119.74,0.031,55,87.0
1303,F#2,119.74,0.031,55,87.0
1304,C#4,119.99,1/100,101,87.0
1305,C#5,119.99,1/100,103,87.0
1306,G#1,120.0,0.5,95,87.0
1307,F5,120.0,417/1000,90,87.0
1308,C#4,120.0,173/200,101,87.0
1309,C#5,120.0,49/100,103,87.0
1310,B-2,120.0,0.031,106,87.0
1311,C2,120.0,0.031,106,87.0
1312,C2,120.25,0.031,102,87.0
1313,E-5,120.49,0.5,102,87.0
1314,G#5,120.5,151/500,56,87.0
1315,C2,120.5,0.031,104,87.0
1316,F#2,120.5,0.031,104,87.0
1317,F5,120.99,77/200,97,87.0
1318,F5,121.0,0.438,91,87.0
1319,C#4,121.0,19/25,102,87.0
1320,D2,121.0,0.031,104,87.0
1321,E-2,121.0,0.031,104,87.0
1322,F#2,121.0,0.031,104,87.0
1323,F#2,121.25,0.031,71,87.0
1324,G#5,121.5,323/1000,56,87.0
1325,C#5,121.5,6/25,97,87.0
1326,C2,121.5,0.031,74,87.0
1327,F#2,121.5,0.031,74,87.0
1328,C2,121.75,0.031,104,87.0
1329,E-5,121.75,6/25,104,87.0
1330,C#4,121.99,73/500,96,87.0
1331,F5,122.0,77/200,87,87.0
1332,F#2,122.0,0.031,111,87.0
1333,F5,122.0,99/100,98,87.0
1334,C#4,122.24,177/1000,102,87.0
1335,C2,122.25,0.031,62,87.0
1336,F#2,122.25,0.031,62,87.0
1337,G#5,122.5,427/1000,57,87.0
1338,C#4,122.5,271/1000,95,87.0
1339,C2,122.5,0.031,102,87.0
1340,F#2,122.5,0.031,102,87.0
1341,B-2,122.75,0.031,114,87.0
1342,F5,123.0,177/500,90,87.0
1343,E-4,123.0,0.375,100,87.0
1344,C#5,123.0,0.469,96,87.0
1345,D2,123.0,0.031,101,87.0
1346,E-2,123.0,0.031,101,87.0
1347,F#2,123.0,0.031,101,87.0
1348,D2,123.25,0.031,96,87.0
1349,E-2,123.25,0.031,96,87.0
1350,G#5,123.5,99/250,54,87.0
1351,C#4,123.5,23/200,98,87.0
1352,E-5,123.5,427/1000,98,87.0
1353,C2,123.5,0.031,74,87.0
1354,F#2,123.5,0.031,74,87.0
1355,C#4,123.74,23/200,105,87.0
1356,C2,123.74,21/500,42,87.0
1357,F1,124.0,49/100,95,87.0
1358,F5,124.0,77/200,83,87.0
1359,C4,124.0,19/25,97,87.0
1360,B-4,124.0,229/500,97,87.0
1361,B-2,124.0,0.031,105,87.0
1362,C2,124.0,0.031,105,87.0
1363,F5,124.479,77/200,47,87.0
1364,F#2,124.5,0.031,108,87.0
1365,C5,124.5,49/100,103,87.0
1366,F5,125.0,77/200,92,87.0
1367,C#4,125.0,229/1000,104,87.0
1368,C#5,125.0,229/500,104,87.0
1369,D2,125.0,0.031,103,87.0
1370,E-2,125.0,0.031,103,87.0
1371,F#2,125.0,0.031,103,87.0
1372,C4,125.25,69/125,97,87.0
1373,F#2,125.25,0.031,74,87.0
1374,F5,125.479,77/200,50,87.0
1375,C2,125.49,0.031,102,87.0
1376,F#2,125.49,0.031,102,87.0
1377,B-4,125.5,6/25,98,87.0
1378,C5,125.75,6/25,102,87.0
1379,C2,125.75,0.031,85,87.0
1380,F#2,125.75,0.031,85,87.0
1381,F5,125.99,99/250,86,87.0
1382,C#4,126.0,0.188,95,87.0
1383,F#2,126.0,0.031,112,87.0
1384,C#5,126.0,99/100,102,87.0
1385,C4,126.24,69/125,97,87.0
1386,F#2,126.25,0.031,74,87.0
1387,F5,126.469,99/250,49,87.0
1388,C2,126.5,0.031,106,87.0
1389,F#2,126.5,0.031,106,87.0
1390,F#2,126.75,0.031,73,87.0
1391,F5,126.99,99/250,90,87.0
1392,C#4,127.0,349/500,98,87.0
1393,B-4,127.0,49/100,105,87.0
1394,D2,127.0,0.031,106,87.0
1395,E-2,127.0,0.031,106,87.0
1396,F#2,127.0,0.031,106,87.0
1397,F#2,127.25,0.031,72,87.0
1398,G#5,127.5,73/250,51,87.0
1399,C5,127.5,417/1000,96,87.0
1400,C2,127.5,0.031,73,87.0
1401,F#2,127.5,0.031,73,87.0
1402,C2,127.74,0.031,54,87.0
1403,F#2,127.74,0.031,54,87.0
1404,C#4,127.99,1/100,105,87.0
1405,B-1,128.0,0.5,101,87.0
1406,F5,128.0,417/1000,86,87.0
1407,C#4,128.0,427/500,105,87.0
1408,B-4,128.0,0.438,105,87.0
1409,B-2,128.0,0.031,101,87.0
1410,C2,128.0,0.031,101,87.0
1411,C2,128.25,0.031,99,87.0
1412,G#5,128.5,151/500,51,87.0
1413,C5,128.5,49/100,99,87.0
1414,C2,128.5,0.031,103,87.0
1415,F#2,128.5,0.031,103,87.0
1416,F5,129.0,0.438,88,87.0
1417,C#4,129.0,0.719,103,87.0
1418,C#5,129.0,0.469,105,87.0
1419,D2,129.0,0.031,101,87.0
1420,E-2,129.0,0.031,101,87.0
1421,F#2,129.0,0.031,101,87.0
1422,F#2,129.25,0.031,80,87.0
1423,G#5,129.5,323/1000,51,87.0
1424,B-4,129.5,6/25,98,87.0
1425,C2,129.5,0.031,76,87.0
1426,F#2,129.5,0.031,76,87.0
1427,C2,129.75,0.031,101,87.0
1428,C5,129.75,6/25,99,87.0
1429,C#4,129.99,167/1000,97,87.0
1430,F5,130.0,77/200,89,87.0
1431,F#2,130.0,0.031,105,87.0
1432,C#5,130.0,237/250,95,87.0
1433,C#4,130.24,0.156,99,87.0
1434,C2,130.25,0.031,56,87.0
1435,F#2,130.25,0.031,56,87.0
1436,G#5,130.5,427/1000,52,87.0
1437,C#4,130.5,271/1000,102,87.0
1438,C2,130.5,0.031,102,87.0
1439,F#2,130.5,0.031,102,87.0
1440,B-2,130.75,0.031,106,87.0
1441,E-4,130.99,0.406,102,87.0
1442,F5,131.0,177/500,85,87.0
1443,B-4,131.0,49/100,99,87.0
1444,D2,131.0,0.031,102,87.0
1445,E-2,131.0,0.031,102,87.0
1446,F#2,131.0,0.031,102,87.0
1447,D2,131.25,0.031,104,87.0
1448,E-2,131.25,0.031,104,87.0
1449,C#4,131.49,0.125,98,87.0
1450,G#5,131.5,99/250,48,87.0
1451,C5,131.5,49/100,99,87.0
1452,C2,131.5,0.031,77,87.0
1453,F#2,131.5,0.031,77,87.0
1454,C#4,131.74,99/500,103,87.0
1455,C2,131.74,21/500,38,87.0
1456,F#1,132.0,49/100,98,87.0
1457,F5,132.0,77/200,87,87.0
1458,B-3,132.0,0.781,103,87.0
1459,C#5,132.0,49/100,103,87.0
1460,B-2,132.0,0.031,106,87.0
1461,C2,132.0,0.031,106,87.0
1462,F5,132.479,77/200,54,87.0
1463,E-5,132.49,0.5,97,87.0
1464,F#2,132.5,0.031,111,87.0
1465,F5,133.0,77/200,92,87.0
1466,C#4,133.0,229/1000,100,87.0
1467,F5,133.0,77/200,105,87.0
1468,D2,133.0,0.031,105,87.0
1469,E-2,133.0,0.031,105,87.0
1470,F#2,133.0,0.031,105,87.0
1471,B-3,133.25,123/200,103,87.0
1472,F#2,133.25,0.031,78,87.0
1473,F5,133.479,77/200,53,87.0
1474,C#5,133.49,0.25,103,87.0
1475,C2,133.49,0.031,104,87.0
1476,F#2,133.49,0.031,104,87.0
1477,E-5,133.74,0.25,96,87.0
1478,C2,133.75,0.031,88,87.0
1479,F#2,133.75,0.031,88,87.0
1480,F5,133.99,99/250,82,87.0
1481,F5,133.99,177/200,98,87.0
1482,C#4,134.0,6/25,97,87.0
1483,F#2,134.0,0.031,114,87.0
1484,B-3,134.25,521/1000,98,87.0
1485,F#2,134.25,0.031,80,87.0
1486,F5,134.469,99/250,48,87.0
1487,C2,134.5,0.031,109,87.0
1488,F#2,134.5,0.031,109,87.0
1489,F#2,134.75,0.031,80,87.0
1490,F5,134.99,99/250,84,87.0
1491,C#4,134.99,99/125,96,87.0
1492,C#5,134.99,0.5,95,87.0
1493,D2,135.0,0.031,102,87.0
1494,E-2,135.0,0.031,102,87.0
1495,F#2,135.0,0.031,102,87.0
1496,F#2,135.25,0.031,74,87.0
1497,E-5,135.49,229/500,102,87.0
1498,G#5,135.5,73/250,51,87.0
1499,C2,135.5,0.031,75,87.0
1500,F#2,135.5,0.031,75,87.0
1501,C2,135.74,0.031,58,87.0
1502,F#2,135.74,0.031,58,87.0
1503,C#5,135.99,1/100,104,87.0
1504,G#1,136.0,0.5,96,87.0
1505,F5,136.0,417/1000,92,87.0
1506,C#4,136.0,401/500,99,87.0
1507,C#5,136.0,49/100,104,87.0
1508,B-2,136.0,0.031,102,87.0
1509,C2,136.0,0.031,102,87.0
1510,C2,136.25,0.031,105,87.0
1511,E-5,136.49,0.5,102,87.0
1512,G#5,136.5,151/500,52,87.0
1513,C2,136.5,0.031,106,87.0
1514,F#2,136.5,0.031,106,87.0
1515,C4,136.99,177/250,101,87.0
1516,F5,136.99,77/200,104,87.0
1517,F5,137.0,0.438,84,87.0
1518,D2,137.0,0.031,102,87.0
1519,E-2,137.0,0.031,102,87.0
1520,F#2,137.0,0.031,102,87.0
1521,F#2,137.25,0.031,71,87.0
1522,G#5,137.5,323/1000,53,87.0
1523,C#5,137.5,6/25,95,87.0
1524,C2,137.5,0.031,74,87.0
1525,F#2,137.5,0.031,74,87.0
1526,C2,137.75,0.031,102,87.0
1527,E-5,137.75,6/25,103,87.0
1528,C#4,137.99,73/500,96,87.0
1529,F5,138.0,77/200,84,87.0
1530,F#2,138.0,0.031,105,87.0
1531,F5,138.0,99/100,99,87.0
1532,C#4,138.24,0.156,100,87.0
1533,C2,138.25,0.031,58,87.0
1534,F#2,138.25,0.031,58,87.0
1535,C#4,138.49,333/1000,98,87.0
1536,G#5,138.5,427/1000,53,87.0
1537,C2,138.5,0.031,104,87.0
1538,F#2,138.5,0.031,104,87.0
1539,B-2,138.75,0.031,106,87.0
1540,F5,139.0,177/500,87,87.0
1541,E-4,139.0,177/500,103,87.0
1542,C#5,139.0,0.469,98,87.0
1543,D2,139.0,0.031,105,87.0
1544,E-2,139.0,0.031,105,87.0
1545,F#2,139.0,0.031,105,87.0
1546,D2,139.25,0.031,97,87.0
1547,E-2,139.25,0.031,97,87.0
1548,C#4,139.49,73/500,102,87.0
1549,G#5,139.5,99/250,47,87.0
1550,E-5,139.5,427/1000,103,87.0
1551,C2,139.5,0.031,74,87.0
1552,F#2,139.5,0.031,74,87.0
1553,C#4,139.74,177/1000,105,87.0
1554,C2,139.74,21/500,40,87.0
1555,C4,139.99,1/100,100,87.0
1556,F1,140.0,49/100,100,87.0
1557,F5,140.0,77/200,82,87.0
1558,C4,140.0,0.75,100,87.0
1559,B-4,140.0,229/500,95,87.0
1560,B-2,140.0,0.031,106,87.0
1561,C2,140.0,0.031,106,87.0
1562,F5,140.479,77/200,53,87.0
1563,F#2,140.5,0.031,106,87.0
1564,C5,140.5,49/100,100,87.0
1565,C#4,140.99,0.25,105,87.0
1566,F5,141.0,77/200,86,87.0
1567,C#5,141.0,229/500,105,87.0
1568,D2,141.0,0.031,104,87.0
1569,E-2,141.0,0.031,104,87.0
1570,F#2,141.0,0.031,104,87.0
1571,C4,141.25,521/1000,97,87.0
1572,F#2,141.25,0.031,74,87.0
1573,F5,141.479,77/200,51,87.0
1574,C2,141.49,0.031,106,87.0
1575,F#2,141.49,0.031,106,87.0
1576,B-4,141.5,6/25,104,87.0
1577,C5,141.75,6/25,95,87.0
1578,C2,141.75,0.031,92,87.0
1579,F#2,141.75,0.031,92,87.0
1580,F5,141.99,99/250,90,87.0
1581,C#4,142.0,229/1000,96,87.0
1582,F#2,142.0,0.031,113,87.0
1583,C#5,142.0,99/100,97,87.0
1584,C4,142.24,271/500,102,87.0
1585,F#2,142.25,0.031,72,87.0
1586,F5,142.469,99/250,49,87.0
1587,C2,142.5,0.031,104,87.0
1588,F#2,142.5,0.031,104,87.0
1589,F#2,142.75,0.031,74,87.0
1590,F5,142.99,99/250,85,87.0
1591,C#4,142.99,0.812,104,87.0
1592,B-4,143.0,49/100,99,87.0
1593,D2,143.0,0.031,103,87.0
1594,E-2,143.0,0.031,103,87.0
1595,F#2,143.0,0.031,103,87.0
1596,F#2,143.25,0.031,77,87.0
1597,G#5,143.5,73/250,55,87.0
1598,C5,143.5,417/1000,101,87.0
1599,C2,143.5,0.031,72,87.0
1600,F#2,143.5,0.031,72,87.0
1601,C2,143.74,0.031,57,87.0
1602,F#2,143.74,0.031,57,87.0
1603,C4,143.99,1/100,96,87.0
1604,B-1,144.0,0.5,100,87.0
1605,F5,144.0,417/1000,92,87.0
1606,C4,144.0,823/1000,96,87.0
1607,B-4,144.0,0.438,99,87.0
1608,B-2,144.0,0.031,104,87.0
1609,C2,144.0,0.031,104,87.0
1610,C2,144.25,0.031,103,87.0
1611,G#5,144.5,151/500,56,87.0
1612,C5,144.5,49/100,105,87.0
1613,C2,144.5,0.031,104,87.0
1614,F#2,144.5,0.031,104,87.0
1615,B-3,144.99,823/1000,98,87.0
1616,F5,145.0,0.438,88,87.0
1617,C#5,145.0,0.469,101,87.0
1618,D2,145.0,0.031,107,87.0
1619,E-2,145.0,0.031,107,87.0
1620,F#2,145.0,0.031,107,87.0
1621,F#2,145.25,0.031,77,87.0
1622,G#5,145.5,323/1000,51,87.0
1623,B-4,145.5,6/25,103,87.0
1624,C2,145.5,0.031,74,87.0
1625,F#2,145.5,0.031,74,87.0
1626,C2,145.75,0.031,100,87.0
1627,C5,145.75,6/25,98,87.0
1628,B-3,145.99,173/200,105,87.0
1629,F5,146.0,77/200,83,87.0
1630,F#2,146.0,0.031,113,87.0
1631,C#5,146.0,237/250,98,87.0
1632,C2,146.25,0.031,58,87.0
1633,F#2,146.25,0.031,58,87.0
1634,G#5,146.5,427/1000,53,87.0
1635,C2,146.5,0.031,102,87.0
1636,F#2,146.5,0.031,102,87.0
1637,B-2,146.75,0.031,113,87.0
1638,F5,147.0,177/500,89,87.0
1639,C4,147.0,417/1000,99,87.0
1640,B-4,147.0,49/100,104,87.0
1641,D2,147.0,0.031,103,87.0
1642,E-2,147.0,0.031,103,87.0
1643,F#2,147.0,0.031,103,87.0
1644,D2,147.25,0.031,100,87.0
1645,E-2,147.25,0.031,100,87.0
1646,C#4,147.49,427/1000,96,87.0
1647,G#5,147.5,99/250,54,87.0
1648,C5,147.5,49/100,95,87.0
1649,C2,147.5,0.031,78,87.0
1650,F#2,147.5,0.031,78,87.0
1651,C2,147.74,21/500,37,87.0
1652,E-4,147.99,1/100,96,87.0
1653,F#1,148.0,6/25,104,87.0
1654,F5,148.0,77/200,92,87.0
1655,E-4,148.0,49/100,96,87.0
1656,B-2,148.0,0.031,106,87.0
1657,C2,148.0,0.031,106,87.0
1658,F5,148.479,77/200,51,87.0
1659,F4,148.5,0.156,98,87.0
1660,F#2,148.5,0.031,109,87.0
1661,F4,148.75,194/125,100,87.0
1662,F5,149.0,77/200,87,87.0
1663,D2,149.0,0.031,108,87.0
1664,E-2,149.0,0.031,108,87.0
1665,F#2,149.0,0.031,108,87.0
1666,F#2,149.25,0.031,77,87.0
1667,F5,149.479,77/200,55,87.0
1668,C2,149.49,0.031,108,87.0
1669,F#2,149.49,0.031,108,87.0
1670,C2,149.75,0.031,88,87.0
1671,F#2,149.75,0.031,88,87.0
1672,F5,149.99,99/250,88,87.0
1673,F#2,150.0,0.031,105,87.0
1674,F#2,150.25,0.031,78,87.0
1675,F5,150.469,99/250,56,87.0
1676,C#4,150.49,0.375,100,87.0
1677,C2,150.5,0.031,108,87.0
1678,F#2,150.5,0.031,108,87.0
1679,F#2,150.75,0.031,77,87.0
1680,F5,150.99,99/250,92,87.0
1681,C#4,151.0,0.125,101,87.0
1682,D2,151.0,0.031,105,87.0
1683,E-2,151.0,0.031,105,87.0
1684,F#2,151.0,0.031,105,87.0
1685,C#4,151.25,73/500,99,87.0
1686,F#2,151.25,0.031,70,87.0
1687,G#5,151.5,73/250,49,87.0
1688,C#4,151.5,26/125,101,87.0
1689,C2,151.5,0.031,77,87.0
1690,F#2,151.5,0.031,77,87.0
1691,C2,151.74,0.031,58,87.0
1692,F#2,151.74,0.031,58,87.0
1693,G#1,152.0,6/25,101,87.0
1694,F5,152.0,417/1000,85,87.0
1695,E-4,152.0,0.344,97,87.0
1696,B-2,152.0,0.031,104,87.0
1697,C2,152.0,0.031,104,87.0
1698,C2,152.25,0.031,99,87.0
1699,F4,152.49,167/1000,95,87.0
1700,G#5,152.5,151/500,49,87.0
1701,C2,152.5,0.031,102,87.0
1702,F#2,152.5,0.031,102,87.0
1703,F4,152.74,1229/1000,100,87.0
1704,F5,153.0,0.438,84,87.0
1705,D2,153.0,0.031,101,87.0
1706,E-2,153.0,0.031,101,87.0
1707,F#2,153.0,0.031,101,87.0
1708,F#2,153.25,0.031,71,87.0
1709,G#5,153.5,323/1000,55,87.0
1710,C2,153.5,0.031,72,87.0
1711,F#2,153.5,0.031,72,87.0
1712,C2,153.75,0.031,100,87.0
1713,F5,154.0,77/200,92,87.0
1714,F#2,154.0,0.031,111,87.0
1715,C2,154.25,0.031,60,87.0
1716,F#2,154.25,0.031,60,87.0
1717,G#5,154.5,427/1000,52,87.0
1718,C#4,154.5,0.344,99,87.0
1719,C2,154.5,0.031,108,87.0
1720,F#2,154.5,0.031,108,87.0
1721,B-2,154.75,0.031,110,87.0
1722,F5,155.0,177/500,90,87.0
1723,C#4,155.0,0.156,105,87.0
1724,D2,155.0,0.031,104,87.0
1725,E-2,155.0,0.031,104,87.0
1726,F#2,155.0,0.031,104,87.0
1727,C#4,155.25,167/1000,99,87.0
1728,D2,155.25,0.031,95,87.0
1729,E-2,155.25,0.031,95,87.0
1730,G#5,155.5,99/250,55,87.0
1731,C#4,155.5,0.281,97,87.0
1732,C2,155.5,0.031,74,87.0
1733,F#2,155.5,0.031,74,87.0
1734,C2,155.74,21/500,39,87.0
1735,E-4,155.99,1/100,105,87.0
1736,F1,156.0,6/25,102,87.0
1737,F5,156.0,77/200,83,87.0
1738,E-4,156.0,49/100,105,87.0
1739,B-2,156.0,0.031,102,87.0
1740,C2,156.0,0.031,102,87.0
1741,F5,156.479,77/200,49,87.0
1742,C4,156.49,177/1000,104,87.0
1743,F#2,156.5,0.031,114,87.0
1744,C4,156.74,677/500,98,87.0
1745,F5,157.0,77/200,84,87.0
1746,D2,157.0,0.031,107,87.0
1747,E-2,157.0,0.031,107,87.0
1748,F#2,157.0,0.031,107,87.0
1749,F#2,157.25,0.031,74,87.0
1750,F5,157.479,77/200,50,87.0
1751,C2,157.49,0.031,108,87.0
1752,F#2,157.49,0.031,108,87.0
1753,C2,157.75,0.031,88,87.0
1754,F#2,157.75,0.031,88,87.0
1755,F5,157.99,99/250,86,87.0
1756,F#2,158.0,0.031,109,87.0
1757,F#2,158.25,0.031,79,87.0
1758,F5,158.469,99/250,52,87.0
1759,C4,158.5,73/200,102,87.0
1760,C2,158.5,0.031,106,87.0
1761,F#2,158.5,0.031,106,87.0
1762,F#2,158.75,0.031,72,87.0
1763,F5,158.99,99/250,83,87.0
1764,C4,159.0,177/500,98,87.0
1765,D2,159.0,0.031,104,87.0
1766,E-2,159.0,0.031,104,87.0
1767,F#2,159.0,0.031,104,87.0
1768,F#2,159.25,0.031,74,87.0
1769,C4,159.49,177/500,97,87.0
1770,G#5,159.5,73/250,57,87.0
1771,C2,159.5,0.031,72,87.0
1772,F#2,159.5,0.031,72,87.0
1773,C2,159.74,0.031,56,87.0
1774,F#2,159.74,0.031,56,87.0
1775,B-1,160.0,6/25,101,87.0
1776,F5,160.0,417/1000,91,87.0
1777,C#4,160.0,0.469,97,87.0
1778,B-2,160.0,0.031,108,87.0
1779,C2,160.0,0.031,108,87.0
1780,C2,160.25,0.031,95,87.0
1781,G#5,160.5,151/500,50,87.0
1782,B-3,160.5,0.156,97,87.0
1783,C2,160.5,0.031,108,87.0
1784,F#2,160.5,0.031,108,87.0
1785,B-3,160.75,1.375,98,87.0
1786,F5,161.0,0.438,90,87.0
1787,D2,161.0,0.031,102,87.0
1788,E-2,161.0,0.031,102,87.0
1789,F#2,161.0,0.031,102,87.0
1790,F#2,161.25,0.031,73,87.0
1791,G#5,161.5,323/1000,56,87.0
1792,C2,161.5,0.031,78,87.0
1793,F#2,161.5,0.031,78,87.0
1794,C2,161.75,0.031,98,87.0
1795,F5,162.0,77/200,91,87.0
1796,F#2,162.0,0.031,107,87.0
1797,B-4,162.0,177/1000,92,87.0
1798,C2,162.25,0.031,56,87.0
1799,F#2,162.25,0.031,56,87.0
1800,B-1,162.49,0.25,98,87.0
1801,G#5,162.5,427/1000,57,87.0
1802,C#4,162.5,0.156,99,87.0
1803,B-4,162.5,177/1000,91,87.0
1804,C2,162.5,0.031,102,87.0
1805,F#2,162.5,0.031,102,87.0
1806,C2,162.75,6/25,103,87.0
1807,C#4,162.75,73/500,97,87.0
1808,B-2,162.75,0.031,114,87.0
1809,C#2,163.0,6/25,99,87.0
1810,F5,163.0,177/500,86,87.0
1811,C#4,163.0,99/250,96,87.0
1812,B-4,163.0,323/1000,91,87.0
1813,D2,163.0,0.031,100,87.0
1814,E-2,163.0,0.031,100,87.0
1815,F#2,163.0,0.031,100,87.0
1816,C2,163.25,6/25,101,87.0
1817,D2,163.25,0.031,98,87.0
1818,E-2,163.25,0.031,98,87.0
1819,B-1,163.5,6/25,101,87.0
1820,G#5,163.5,99/250,47,87.0
1821,C#4,163.5,323/1000,98,87.0
1822,B-6,163.5,417/1000,92,87.0
1823,B-6,163.5,417/1000,102,87.0
1824,C2,163.5,0.031,76,87.0
1825,F#2,163.5,0.031,76,87.0
1826,C2,163.74,21/500,41,87.0
1827,G#1,163.75,6/25,105,87.0
1828,E-4,163.99,1/100,102,87.0
1829,F#1,164.0,49/100,103,87.0
1830,F5,164.0,77/200,88,87.0
1831,E-4,164.0,6/25,102,87.0
1832,B-2,164.0,0.031,104,87.0
1833,C2,164.0,0.031,104,87.0
1834,F4,164.24,77/200,99,87.0
1835,F5,164.479,77/200,50,87.0
1836,F#2,164.5,0.031,107,87.0
1837,F4,164.75,1.406,102,87.0
1838,F5,165.0,77/200,85,87.0
1839,D2,165.0,0.031,102,87.0
1840,E-2,165.0,0.031,102,87.0
1841,F#2,165.0,0.031,102,87.0
1842,F#2,165.25,0.031,77,87.0
1843,F5,165.479,77/200,55,87.0
1844,C2,165.49,0.031,105,87.0
1845,F#2,165.49,0.031,105,87.0
1846,C2,165.75,0.031,90,87.0
1847,F#2,165.75,0.031,90,87.0
1848,F5,165.99,99/250,85,87.0
1849,F#2,166.0,0.031,110,87.0
1850,F#2,166.25,0.031,75,87.0
1851,F5,166.469,99/250,53,87.0
1852,C#4,166.5,27/200,96,87.0
1853,C2,166.5,0.031,102,87.0
1854,F#2,166.5,0.031,102,87.0
1855,C#4,166.75,27/200,101,87.0
1856,F#2,166.75,0.031,70,87.0
1857,F5,166.99,99/250,88,87.0
1858,C#4,167.0,77/200,96,87.0
1859,D2,167.0,0.031,102,87.0
1860,E-2,167.0,0.031,102,87.0
1861,F#2,167.0,0.031,102,87.0
1862,F#2,167.25,0.031,71,87.0
1863,G#5,167.5,73/250,55,87.0
1864,C#4,167.5,0.312,97,87.0
1865,C2,167.5,0.031,74,87.0
1866,F#2,167.5,0.031,74,87.0
1867,C2,167.74,0.031,58,87.0
1868,F#2,167.74,0.031,58,87.0
1869,E-4,167.99,1/100,99,87.0
1870,G#1,168.0,0.5,105,87.0
1871,F5,168.0,417/1000,84,87.0
1872,E-4,168.0,49/100,99,87.0
1873,B-2,168.0,0.031,108,87.0
1874,C2,168.0,0.031,108,87.0
1875,C2,168.25,0.031,99,87.0
1876,G#5,168.5,151/500,51,87.0
1877,F4,168.5,23/200,96,87.0
1878,C2,168.5,0.031,105,87.0
1879,F#2,168.5,0.031,105,87.0
1880,F4,168.75,1.688,104,87.0
1881,F5,169.0,0.438,88,87.0
1882,D2,169.0,0.031,103,87.0
1883,E-2,169.0,0.031,103,87.0
1884,F#2,169.0,0.031,103,87.0
1885,F#2,169.25,0.031,76,87.0
1886,G#5,169.5,323/1000,48,87.0
1887,C2,169.5,0.031,74,87.0
1888,F#2,169.5,0.031,74,87.0
1889,C2,169.75,0.031,95,87.0
1890,F5,170.0,77/200,90,87.0
1891,F#2,170.0,0.031,112,87.0
1892,C2,170.25,0.031,58,87.0
1893,F#2,170.25,0.031,58,87.0
1894,G#5,170.5,427/1000,57,87.0
1895,C2,170.5,0.031,106,87.0
1896,F#2,170.5,0.031,106,87.0
1897,B-2,170.75,0.031,109,87.0
1898,C#4,170.99,0.312,104,87.0
1899,F5,171.0,177/500,92,87.0
1900,D2,171.0,0.031,106,87.0
1901,E-2,171.0,0.031,106,87.0
1902,F#2,171.0,0.031,106,87.0
1903,D2,171.25,0.031,104,87.0
1904,E-2,171.25,0.031,104,87.0
1905,C#4,171.49,0.375,98,87.0
1906,G#5,171.5,99/250,54,87.0
1907,C2,171.5,0.031,74,87.0
1908,F#2,171.5,0.031,74,87.0
1909,B-5,171.531,56/125,84,87.0
1910,B-5,171.531,56/125,99,87.0
1911,C2,171.74,21/500,40,87.0
1912,F5,171.99,1/100,85,87.0
1913,F5,171.99,1/100,97,87.0
1914,F1,172.0,49/100,101,87.0
1915,F5,172.0,77/200,90,87.0
1916,E-4,172.0,427/1000,98,87.0
1917,F5,172.0,417/1000,85,87.0
1918,F5,172.0,417/1000,97,87.0
1919,B-2,172.0,0.031,106,87.0
1920,C2,172.0,0.031,106,87.0
1921,F5,172.479,77/200,54,87.0
1922,C4,172.49,27/200,104,87.0
1923,F#2,172.5,0.031,111,87.0
1924,C4,172.75,1729/1000,105,87.0
1925,F5,173.0,77/200,90,87.0
1926,D2,173.0,0.031,104,87.0
1927,E-2,173.0,0.031,104,87.0
1928,F#2,173.0,0.031,104,87.0
1929,F#2,173.25,0.031,80,87.0
1930,F5,173.479,77/200,47,87.0
1931,C2,173.49,0.031,106,87.0
1932,F#2,173.49,0.031,106,87.0
1933,C2,173.75,0.031,86,87.0
1934,F#2,173.75,0.031,86,87.0
1935,F5,173.99,99/250,85,87.0
1936,F#2,174.0,0.031,107,87.0
1937,F#2,174.25,0.031,73,87.0
1938,F5,174.469,99/250,50,87.0
1939,C2,174.5,0.031,108,87.0
1940,F#2,174.5,0.031,108,87.0
1941,C4,174.75,0.094,95,87.0
1942,F#2,174.75,0.031,75,87.0
1943,F5,174.99,99/250,83,87.0
1944,C4,175.0,27/200,99,87.0
1945,D2,175.0,0.031,104,87.0
1946,E-2,175.0,0.031,104,87.0
1947,F#2,175.0,0.031,104,87.0
1948,C4,175.25,0.125,103,87.0
1949,F#2,175.25,0.031,72,87.0
1950,C4,175.49,271/1000,104,87.0
1951,G#5,175.5,73/250,50,87.0
1952,C2,175.5,0.031,74,87.0
1953,F#2,175.5,0.031,74,87.0
1954,C2,175.74,0.031,54,87.0
1955,F#2,175.74,0.031,54,87.0
1956,F1,175.812,0.188,97,87.0
1957,C#4,175.99,1/100,104,87.0
1958,F5,176.0,417/1000,89,87.0
1959,C#4,176.0,0.406,104,87.0
1960,B-2,176.0,0.031,105,87.0
1961,C2,176.0,0.031,105,87.0
1962,B-1,176.01,0.781,100,87.0
1963,C2,176.25,0.031,105,87.0
1964,E-4,176.49,23/200,97,87.0
1965,G#5,176.5,151/500,47,87.0
1966,C2,176.5,0.031,108,87.0
1967,F#2,176.5,0.031,108,87.0
1968,F4,176.75,73/200,104,87.0
1969,C2,176.802,19/25,102,87.0
1970,F5,177.0,0.438,85,87.0
1971,D2,177.0,0.031,103,87.0
1972,E-2,177.0,0.031,103,87.0
1973,F#2,177.0,0.031,103,87.0
1974,E-4,177.24,0.188,97,87.0
1975,F#2,177.25,0.031,79,87.0
1976,C#4,177.49,0.5,96,87.0
1977,G#5,177.5,323/1000,55,87.0
1978,C2,177.5,0.031,75,87.0
1979,F#2,177.5,0.031,75,87.0
1980,C#2,177.573,173/200,95,87.0
1981,C2,177.75,0.031,102,87.0
1982,B-3,177.99,237/250,103,87.0
1983,F5,178.0,77/200,82,87.0
1984,F#2,178.0,0.031,113,87.0
1985,C2,178.25,0.031,56,87.0
1986,F#2,178.25,0.031,56,87.0
1987,F2,178.448,1479/1000,104,87.0
1988,G#5,178.5,427/1000,49,87.0
1989,C2,178.5,0.031,107,87.0
1990,F#2,178.5,0.031,107,87.0
1991,B-2,178.75,0.031,110,87.0
1992,G#4,178.99,73/200,100,87.0
1993,F5,179.0,177/500,84,87.0
1994,D2,179.0,0.031,101,87.0
1995,E-2,179.0,0.031,101,87.0
1996,F#2,179.0,0.031,101,87.0
1997,D2,179.25,0.031,100,87.0
1998,E-2,179.25,0.031,100,87.0
1999,G#4,179.49,0.438,99,87.0
2000,G#5,179.5,99/250,51,87.0
2001,C2,179.5,0.031,77,87.0
2002,F#2,179.5,0.031,77,87.0
2003,C2,179.74,21/500,40,87.0
2004,F#1,180.0,3.938,97,87.0
2005,F5,180.0,77/200,88,87.0
2006,F#4,180.0,0.781,105,87.0
2007,F#2,180.0,3.938,96,87.0
2008,F#2,180.0,362/125,96,87.0
2009,C#5,180.0,49/100,99,87.0
2010,F#5,180.0,3.969,104,87.0
2011,B-2,180.0,0.031,110,87.0
2012,C2,180.0,0.031,110,87.0
2013,F5,180.479,77/200,55,87.0
2014,E-5,180.49,0.5,98,87.0
2015,F#2,180.5,0.031,108,87.0
2016,F5,181.0,77/200,85,87.0
2017,F#4,181.0,167/1000,103,87.0
2018,F5,181.0,77/200,95,87.0
2019,D2,181.0,0.031,104,87.0
2020,E-2,181.0,0.031,104,87.0
2021,F#2,181.0,0.031,104,87.0
2022,F#4,181.25,0.156,95,87.0
2023,F#2,181.25,0.031,73,87.0
2024,F5,181.479,77/200,50,87.0
2025,C#5,181.49,0.25,103,87.0
2026,C2,181.49,0.031,106,87.0
2027,F#2,181.49,0.031,106,87.0
2028,F#4,181.5,0.406,105,87.0
2029,E-5,181.74,0.25,104,87.0
2030,C2,181.75,0.031,88,87.0
2031,F#2,181.75,0.031,88,87.0
2032,F5,181.99,99/250,83,87.0
2033,F5,181.99,177/200,95,87.0
2034,F#4,182.0,99/250,103,87.0
2035,F#2,182.0,0.031,115,87.0
2036,F#2,182.25,0.031,72,87.0
2037,F5,182.469,99/250,56,87.0
2038,F#4,182.5,0.375,104,87.0
2039,C2,182.5,0.031,109,87.0
2040,F#2,182.5,0.031,109,87.0
2041,F#2,182.75,0.031,76,87.0
2042,F5,182.99,99/250,83,87.0
2043,C#5,182.99,0.5,103,87.0
2044,F#4,183.0,56/125,96,87.0
2045,C#4,183.0,56/125,77,87.0
2046,F#2,183.0,979/1000,97,87.0
2047,D2,183.0,0.031,104,87.0
2048,E-2,183.0,0.031,104,87.0
2049,F#2,183.0,0.031,104,87.0
2050,F#2,183.25,0.031,79,87.0
2051,E-5,183.49,229/500,99,87.0
2052,G#5,183.5,73/250,51,87.0
2053,G#4,183.5,27/200,98,87.0
2054,F4,183.5,27/200,85,87.0
2055,C2,183.5,0.031,73,87.0
2056,F#2,183.5,0.031,73,87.0
2057,C2,183.74,0.031,60,87.0
2058,F#2,183.74,0.031,60,87.0
2059,G#4,183.75,0.219,97,87.0
2060,F4,183.75,0.219,59,87.0
2061,C#1,183.99,1/100,102,87.0
2062,C#2,183.99,1/100,100,87.0
2063,C#2,183.99,1/100,103,87.0
2064,C#5,183.99,1/100,98,87.0
2065,C#5,183.99,1/100,95,87.0
2066,C#1,184.0,3979/1000,102,87.0
2067,F5,184.0,417/1000,92,87.0
2068,F4,184.0,0.781,95,87.0
2069,C#4,184.0,0.781,82,87.0
2070,C#2,184.0,3979/1000,100,87.0
2071,C#2,184.0,1849/500,103,87.0
2072,C#5,184.0,49/100,98,87.0
2073,C#5,184.0,399/100,95,87.0
2074,B-2,184.0,0.031,103,87.0
2075,C2,184.0,0.031,103,87.0
2076,C2,184.25,0.031,99,87.0
2077,E-5,184.49,0.5,95,87.0
2078,G#5,184.5,151/500,48,87.0
2079,C2,184.5,0.031,107,87.0
2080,F#2,184.5,0.031,107,87.0
2081,F4,184.99,417/1000,96,87.0
2082,F5,184.99,77/200,103,87.0
2083,F5,185.0,0.438,92,87.0
2084,D2,185.0,0.031,105,87.0
2085,E-2,185.0,0.031,105,87.0
2086,F#2,185.0,0.031,105,87.0
2087,F#2,185.25,0.031,79,87.0
2088,G#5,185.5,323/1000,57,87.0
2089,F4,185.5,77/200,96,87.0
2090,C#5,185.5,6/25,96,87.0
2091,C2,185.5,0.031,75,87.0
2092,F#2,185.5,0.031,75,87.0
2093,C2,185.75,0.031,98,87.0
2094,E-5,185.75,6/25,101,87.0
2095,F5,186.0,77/200,87,87.0
2096,F4,186.0,0.375,97,87.0
2097,F#2,186.0,0.031,110,87.0
2098,F5,186.0,99/100,101,87.0
2099,C2,186.25,0.031,58,87.0
2100,F#2,186.25,0.031,58,87.0
2101,G#5,186.5,427/1000,48,87.0
2102,F4,186.5,73/200,100,87.0
2103,C2,186.5,0.031,104,87.0
2104,F#2,186.5,0.031,104,87.0
2105,B-2,186.75,0.031,111,87.0
2106,F5,187.0,177/500,84,87.0
2107,F4,187.0,99/250,96,87.0
2108,C#4,187.0,99/250,73,87.0
2109,C#5,187.0,0.469,96,87.0
2110,D2,187.0,0.031,104,87.0
2111,E-2,187.0,0.031,104,87.0
2112,F#2,187.0,0.031,104,87.0
2113,D2,187.25,0.031,97,87.0
2114,E-2,187.25,0.031,97,87.0
2115,F#4,187.49,0.25,105,87.0
2116,C#4,187.49,0.25,69,87.0
2117,G#5,187.5,99/250,56,87.0
2118,E-5,187.5,427/1000,97,87.0
2119,C2,187.5,0.031,75,87.0
2120,F#2,187.5,0.031,75,87.0
2121,F4,187.74,0.25,97,87.0
2122,C#4,187.74,13/50,71,87.0
2123,C2,187.74,21/500,45,87.0
2124,G#1,188.0,3.938,105,87.0
2125,F5,188.0,77/200,89,87.0
2126,E-4,188.0,0.781,100,87.0
2127,C4,188.0,0.781,71,87.0
2128,C#4,188.0,21/500,71,87.0
2129,G#2,188.0,3.938,98,87.0
2130,G#2,188.0,3.938,95,87.0
2131,B-4,188.0,229/500,101,87.0
2132,G#5,188.0,399/100,101,87.0
2133,B-2,188.0,0.031,103,87.0
2134,C2,188.0,0.031,103,87.0
2135,F5,188.479,77/200,56,87.0
2136,F#2,188.5,0.031,108,87.0
2137,C5,188.5,49/100,96,87.0
2138,F5,189.0,77/200,85,87.0
2139,E-4,189.0,73/200,98,87.0
2140,C#5,189.0,229/500,102,87.0
2141,D2,189.0,0.031,99,87.0
2142,E-2,189.0,0.031,99,87.0
2143,F#2,189.0,0.031,99,87.0
2144,F#2,189.25,0.031,77,87.0
2145,F5,189.479,77/200,55,87.0
2146,C2,189.49,0.031,102,87.0
2147,F#2,189.49,0.031,102,87.0
2148,E-4,189.5,99/250,98,87.0
2149,B-4,189.5,6/25,103,87.0
2150,C5,189.75,6/25,96,87.0
2151,C2,189.75,0.031,88,87.0
2152,F#2,189.75,0.031,88,87.0
2153,F5,189.99,99/250,84,87.0
2154,E-4,190.0,0.375,102,87.0
2155,F#2,190.0,0.031,113,87.0
2156,C#5,190.0,99/100,102,87.0
2157,F#2,190.25,0.031,73,87.0
2158,F5,190.469,99/250,53,87.0
2159,E-4,190.5,177/500,98,87.0
2160,C2,190.5,0.031,107,87.0
2161,F#2,190.5,0.031,107,87.0
2162,F#2,190.75,0.031,77,87.0
2163,F5,190.99,99/250,84,87.0
2164,F4,191.0,0.438,99,87.0
2165,B-4,191.0,49/100,96,87.0
2166,D2,191.0,0.031,103,87.0
2167,E-2,191.0,0.031,103,87.0
2168,F#2,191.0,0.031,103,87.0
2169,F#2,191.25,0.031,78,87.0
2170,C#4,191.49,0.25,96,87.0
2171,G#5,191.5,73/250,55,87.0
2172,C5,191.5,417/1000,102,87.0
2173,C2,191.5,0.031,75,87.0
2174,F#2,191.5,0.031,75,87.0
2175,C2,191.74,0.031,60,87.0
2176,F#2,191.74,0.031,60,87.0
2177,E-4,191.75,0.25,105,87.0
2178,B-1,191.99,1/100,95,87.0
2179,B-2,191.99,1/100,103,87.0
2180,B-2,191.99,1/100,100,87.0
2181,B-5,191.99,1/100,102,87.0
2182,B-1,192.0,3979/1000,95,87.0
2183,F5,192.0,417/1000,82,87.0
2184,E-4,192.0,0.406,105,87.0
2185,B-2,192.0,3979/1000,103,87.0
2186,B-2,192.0,3979/1000,100,87.0
2187,B-4,192.0,0.438,99,87.0
2188,B-5,192.0,3.969,102,87.0
2189,B-2,192.0,0.031,106,87.0
2190,C2,192.0,0.031,106,87.0
2191,C2,192.25,0.031,98,87.0
2192,C#4,192.49,0.25,104,87.0
2193,G#5,192.5,151/500,53,87.0
2194,C5,192.5,49/100,98,87.0
2195,C2,192.5,0.031,104,87.0
2196,F#2,192.5,0.031,104,87.0
2197,B-3,192.75,26/125,102,87.0
2198,F5,193.0,0.438,89,87.0
2199,C#4,193.0,0.406,102,87.0
2200,C#5,193.0,0.469,98,87.0
2201,D2,193.0,0.031,102,87.0
2202,E-2,193.0,0.031,102,87.0
2203,F#2,193.0,0.031,102,87.0
2204,F#2,193.25,0.031,75,87.0
2205,G#5,193.5,323/1000,52,87.0
2206,C#4,193.5,229/1000,99,87.0
2207,B-4,193.5,6/25,100,87.0
2208,C2,193.5,0.031,76,87.0
2209,F#2,193.5,0.031,76,87.0
2210,B-3,193.75,167/1000,98,87.0
2211,C2,193.75,0.031,101,87.0
2212,C5,193.75,6/25,99,87.0
2213,F5,194.0,77/200,89,87.0
2214,C#4,194.0,0.156,98,87.0
2215,F#2,194.0,0.031,108,87.0
2216,C#5,194.0,237/250,104,87.0
2217,C#4,194.25,167/1000,100,87.0
2218,C2,194.25,0.031,58,87.0
2219,F#2,194.25,0.031,58,87.0
2220,G#5,194.5,427/1000,47,87.0
2221,C#4,194.5,73/200,98,87.0
2222,C2,194.5,0.031,106,87.0
2223,F#2,194.5,0.031,106,87.0
2224,B-2,194.75,0.031,108,87.0
2225,F5,195.0,177/500,89,87.0
2226,E-4,195.0,0.375,101,87.0
2227,B-4,195.0,49/100,98,87.0
2228,D2,195.0,0.031,100,87.0
2229,E-2,195.0,0.031,100,87.0
2230,F#2,195.0,0.031,100,87.0
2231,D2,195.25,0.031,102,87.0
2232,E-2,195.25,0.031,102,87.0
2233,G#5,195.5,99/250,50,87.0
2234,C#4,195.5,0.156,97,87.0
2235,C5,195.5,49/100,99,87.0
2236,C2,195.5,0.031,72,87.0
2237,F#2,195.5,0.031,72,87.0
2238,C2,195.74,21/500,38,87.0
2239,C#4,195.75,6/25,98,87.0
2240,F#1,196.0,3.938,96,87.0
2241,F5,196.0,77/200,84,87.0
2242,B-3,196.0,0.719,95,87.0
2243,F#2,196.0,3.938,100,87.0
2244,F#2,196.0,362/125,104,87.0
2245,C#5,196.0,49/100,103,87.0
2246,F#5,196.0,3.969,101,87.0
2247,B-2,196.0,0.031,108,87.0
2248,C2,196.0,0.031,108,87.0
2249,F5,196.479,77/200,53,87.0
2250,E-5,196.49,0.5,98,87.0
2251,F#2,196.5,0.031,114,87.0
2252,F5,197.0,77/200,88,87.0
2253,F#4,197.0,99/250,98,87.0
2254,F5,197.0,77/200,95,87.0
2255,D2,197.0,0.031,100,87.0
2256,E-2,197.0,0.031,100,87.0
2257,F#2,197.0,0.031,100,87.0
2258,F#2,197.25,0.031,76,87.0
2259,F5,197.479,77/200,49,87.0
2260,C#5,197.49,0.25,96,87.0
2261,C2,197.49,0.031,108,87.0
2262,F#2,197.49,0.031,108,87.0
2263,F#4,197.5,0.156,95,87.0
2264,E-5,197.74,0.25,105,87.0
2265,F#4,197.75,27/200,97,87.0
2266,C2,197.75,0.031,88,87.0
2267,F#2,197.75,0.031,88,87.0
2268,F5,197.99,99/250,84,87.0
2269,F5,197.99,177/200,96,87.0
2270,F#4,198.0,427/1000,97,87.0
2271,F#2,198.0,0.031,111,87.0
2272,F#2,198.25,0.031,80,87.0
2273,F5,198.469,99/250,55,87.0
2274,F#4,198.5,99/250,98,87.0
2275,C2,198.5,0.031,108,87.0
2276,F#2,198.5,0.031,108,87.0
2277,F#2,198.75,0.031,76,87.0
2278,F5,198.99,99/250,92,87.0
2279,C#5,198.99,0.5,105,87.0
2280,F#4,199.0,0.438,98,87.0
2281,C#4,199.0,56/125,77,87.0
2282,F#2,199.0,979/1000,102,87.0
2283,D2,199.0,0.031,105,87.0
2284,E-2,199.0,0.031,105,87.0
2285,F#2,199.0,0.031,105,87.0
2286,F#2,199.25,0.031,74,87.0
2287,E-5,199.49,229/500,102,87.0
2288,G#5,199.5,73/250,56,87.0
2289,G#4,199.5,73/500,96,87.0
2290,F4,199.5,27/200,85,87.0
2291,C2,199.5,0.031,72,87.0
2292,F#2,199.5,0.031,72,87.0
2293,C2,199.74,0.031,62,87.0
2294,F#2,199.74,0.031,62,87.0
2295,G#4,199.75,0.188,104,87.0
2296,F4,199.75,0.219,59,87.0
2297,C#1,199.99,1/100,98,87.0
2298,C#2,199.99,1/100,96,87.0
2299,C#2,199.99,1/100,105,87.0
2300,C#5,199.99,1/100,100,87.0
2301,C#5,199.99,1/100,102,87.0
2302,C#1,200.0,3979/1000,98,87.0
2303,F5,200.0,417/1000,87,87.0
2304,F4,200.0,0.844,98,87.0
2305,C#4,200.0,0.781,82,87.0
2306,C#2,200.0,3979/1000,96,87.0
2307,C#2,200.0,1849/500,105,87.0
2308,C#5,200.0,49/100,100,87.0
2309,C#5,200.0,399/100,102,87.0
2310,B-2,200.0,0.031,104,87.0
2311,C2,200.0,0.031,104,87.0
2312,C2,200.25,0.031,104,87.0
2313,E-5,200.49,0.5,99,87.0
2314,G#5,200.5,151/500,56,87.0
2315,C2,200.5,0.031,106,87.0
2316,F#2,200.5,0.031,106,87.0
2317,F5,200.99,77/200,100,87.0
2318,F5,201.0,0.438,92,87.0
2319,F4,201.0,0.375,97,87.0
2320,D2,201.0,0.031,106,87.0
2321,E-2,201.0,0.031,106,87.0
2322,F#2,201.0,0.031,106,87.0
2323,F#2,201.25,0.031,71,87.0
2324,G#5,201.5,323/1000,48,87.0
2325,F4,201.5,0.375,97,87.0
2326,C#5,201.5,6/25,104,87.0
2327,C2,201.5,0.031,76,87.0
2328,F#2,201.5,0.031,76,87.0
2329,C2,201.75,0.031,103,87.0
2330,E-5,201.75,6/25,105,87.0
2331,F5,202.0,77/200,88,87.0
2332,F4,202.0,99/250,96,87.0
2333,F#2,202.0,0.031,109,87.0
2334,F5,202.0,99/100,99,87.0
2335,C2,202.25,0.031,54,87.0
2336,F#2,202.25,0.031,54,87.0
2337,G#5,202.5,427/1000,57,87.0
2338,F4,202.5,0.344,102,87.0
2339,C2,202.5,0.031,104,87.0
2340,F#2,202.5,0.031,104,87.0
2341,B-2,202.75,0.031,115,87.0
2342,F5,203.0,177/500,84,87.0
2343,F4,203.0,0.344,103,87.0
2344,C#4,203.0,99/250,73,87.0
2345,C#5,203.0,0.469,98,87.0
2346,D2,203.0,0.031,101,87.0
2347,E-2,203.0,0.031,101,87.0
2348,F#2,203.0,0.031,101,87.0
2349,D2,203.25,0.031,98,87.0
2350,E-2,203.25,0.031,98,87.0
2351,C#4,203.49,0.25,69,87.0
2352,G#5,203.5,99/250,49,87.0
2353,F#4,203.5,229/1000,100,87.0
2354,E-5,203.5,427/1000,98,87.0
2355,C2,203.5,0.031,76,87.0
2356,F#2,203.5,0.031,76,87.0
2357,F4,203.74,6/25,100,87.0
2358,C#4,203.74,13/50,71,87.0
2359,C2,203.74,21/500,44,87.0
2360,G#1,204.0,3.938,98,87.0
2361,F5,204.0,77/200,85,87.0
2362,E-4,204.0,127/200,104,87.0
2363,C4,204.0,0.781,71,87.0
2364,C#4,204.0,21/500,71,87.0
2365,G#2,204.0,3.938,101,87.0
2366,G#2,204.0,3.938,101,87.0
2367,B-4,204.0,229/500,104,87.0
2368,G#5,204.0,399/100,101,87.0
2369,B-2,204.0,0.031,102,87.0
2370,C2,204.0,0.031,102,87.0
2371,F5,204.479,77/200,49,87.0
2372,F#2,204.5,0.031,105,87.0
2373,C5,204.5,49/100,101,87.0
2374,E-4,204.99,0.25,105,87.0
2375,F5,205.0,77/200,92,87.0
2376,C#5,205.0,229/500,101,87.0
2377,D2,205.0,0.031,104,87.0
2378,E-2,205.0,0.031,104,87.0
2379,F#2,205.0,0.031,104,87.0
2380,C#4,205.24,0.25,95,87.0
2381,F#2,205.25,0.031,75,87.0
2382,F5,205.479,77/200,50,87.0
2383,C2,205.49,0.031,107,87.0
2384,F#2,205.49,0.031,107,87.0
2385,E-4,205.5,271/1000,102,87.0
2386,B-4,205.5,6/25,99,87.0
2387,C5,205.75,6/25,100,87.0
2388,C2,205.75,0.031,90,87.0
2389,F#2,205.75,0.031,90,87.0
2390,F5,205.99,99/250,82,87.0
2391,E-4,206.0,229/1000,96,87.0
2392,F#2,206.0,0.031,109,87.0
2393,C#5,206.0,99/100,103,87.0
2394,C#4,206.25,0.156,102,87.0
2395,F#2,206.25,0.031,70,87.0
2396,F5,206.469,99/250,55,87.0
2397,E-4,206.49,0.344,98,87.0
2398,C2,206.5,0.031,105,87.0
2399,F#2,206.5,0.031,105,87.0
2400,F#2,206.75,0.031,70,87.0
2401,F5,206.99,99/250,85,87.0
2402,F4,206.99,0.438,100,87.0
2403,B-4,207.0,49/100,102,87.0
2404,D2,207.0,0.031,104,87.0
2405,E-2,207.0,0.031,104,87.0
2406,F#2,207.0,0.031,104,87.0
2407,F#2,207.25,0.031,73,87.0
2408,C#4,207.49,167/1000,98,87.0
2409,G#5,207.5,73/250,47,87.0
2410,C5,207.5,417/1000,104,87.0
2411,C2,207.5,0.031,77,87.0
2412,F#2,207.5,0.031,77,87.0
2413,C2,207.74,0.031,58,87.0
2414,F#2,207.74,0.031,58,87.0
2415,C#4,207.75,167/1000,100,87.0
2416,B-2,207.99,1/100,103,87.0
2417,B-5,207.99,1/100,100,87.0
2418,B-1,208.0,37/50,105,87.0
2419,F5,208.0,417/1000,85,87.0
2420,E-4,208.0,521/1000,104,87.0
2421,B-1,208.0,323/500,97,87.0
2422,B-2,208.0,3979/1000,103,87.0
2423,B-4,208.0,0.438,95,87.0
2424,B-5,208.0,3.969,100,87.0
2425,B-2,208.0,0.031,105,87.0
2426,C2,208.0,0.031,105,87.0
2427,C2,208.25,0.031,100,87.0
2428,G#5,208.5,151/500,56,87.0
2429,C5,208.5,49/100,103,87.0
2430,C2,208.5,0.031,102,87.0
2431,F#2,208.5,0.031,102,87.0
2432,C2,208.74,151/250,95,87.0
2433,C2,208.75,127/200,98,87.0
2434,C#4,208.99,0.25,104,87.0
2435,F5,209.0,0.438,84,87.0
2436,C#5,209.0,0.469,103,87.0
2437,D2,209.0,0.031,103,87.0
2438,E-2,209.0,0.031,103,87.0
2439,F#2,209.0,0.031,103,87.0
2440,B-3,209.25,6/25,98,87.0
2441,F#2,209.25,0.031,80,87.0
2442,C#4,209.49,0.375,95,87.0
2443,C#2,209.5,917/1000,102,87.0
2444,G#5,209.5,323/1000,50,87.0
2445,C#2,209.5,37/50,98,87.0
2446,B-4,209.5,6/25,103,87.0
2447,C2,209.5,0.031,76,87.0
2448,F#2,209.5,0.031,76,87.0
2449,C2,209.75,0.031,105,87.0
2450,C5,209.75,6/25,103,87.0
2451,F5,210.0,77/200,85,87.0
2452,C#4,210.0,6/25,102,87.0
2453,F#2,210.0,0.031,106,87.0
2454,C#5,210.0,237/250,102,87.0
2455,B-3,210.25,26/125,95,87.0
2456,C2,210.25,0.031,58,87.0
2457,F#2,210.25,0.031,58,87.0
2458,F2,210.49,151/125,98,87.0
2459,F2,210.5,101/100,100,87.0
2460,G#5,210.5,427/1000,49,87.0
2461,C#4,210.5,151/500,103,87.0
2462,C2,210.5,0.031,102,87.0
2463,F#2,210.5,0.031,102,87.0
2464,B-2,210.75,0.031,105,87.0
2465,F5,211.0,177/500,90,87.0
2466,E-4,211.0,427/1000,97,87.0
2467,B-4,211.0,49/100,99,87.0
2468,D2,211.0,0.031,107,87.0
2469,E-2,211.0,0.031,107,87.0
2470,F#2,211.0,0.031,107,87.0
2471,D2,211.25,0.031,98,87.0
2472,E-2,211.25,0.031,98,87.0
2473,C#4,211.49,167/1000,100,87.0
2474,G#5,211.5,99/250,57,87.0
2475,C5,211.5,49/100,99,87.0
2476,C2,211.5,0.031,72,87.0
2477,F#2,211.5,0.031,72,87.0
2478,C#4,211.74,0.188,104,87.0
2479,C2,211.74,21/500,38,87.0
2480,F5,212.0,77/200,89,87.0
2481,B-3,212.0,19/25,105,87.0
2482,F#5,212.0,1479/1000,90,87.0
2483,F#2,212.0,4.0,102,87.0
2484,F#1,212.0,3.938,96,87.0
2485,C#5,212.0,49/100,103,87.0
2486,F#5,212.0,3.969,102,87.0
2487,B-2,212.0,0.031,106,87.0
2488,C2,212.0,0.031,106,87.0
2489,F5,212.479,77/200,55,87.0
2490,E-5,212.49,0.5,96,87.0
2491,F#2,212.5,0.031,110,87.0
2492,F5,213.0,77/200,91,87.0
2493,C#4,213.0,26/125,98,87.0
2494,F5,213.0,77/200,101,87.0
2495,D2,213.0,0.031,100,87.0
2496,E-2,213.0,0.031,100,87.0
2497,F#2,213.0,0.031,100,87.0
2498,B-3,213.25,0.656,105,87.0
2499,F#2,213.25,0.031,72,87.0
2500,F5,213.479,77/200,52,87.0
2501,C#5,213.49,0.25,96,87.0
2502,C2,213.49,0.031,106,87.0
2503,F#2,213.49,0.031,106,87.0
2504,F#6,213.5,0.875,84,87.0
2505,E-5,213.74,0.25,101,87.0
2506,C2,213.75,0.031,88,87.0
2507,F#2,213.75,0.031,88,87.0
2508,F5,213.99,99/250,90,87.0
2509,F5,213.99,177/200,101,87.0
2510,C#4,214.0,6/25,101,87.0
2511,F#2,214.0,0.031,110,87.0
2512,B-3,214.25,69/125,99,87.0
2513,F#2,214.25,0.031,79,87.0
2514,F5,214.469,99/250,48,87.0
2515,F#5,214.49,0.5,86,87.0
2516,C2,214.5,0.031,106,87.0
2517,F#2,214.5,0.031,106,87.0
2518,F#2,214.75,0.031,74,87.0
2519,F5,214.99,99/250,85,87.0
2520,C#4,214.99,177/200,102,87.0
2521,F#6,214.99,1.0,82,87.0
2522,C#5,214.99,0.5,101,87.0
2523,D2,215.0,0.031,100,87.0
2524,E-2,215.0,0.031,100,87.0
2525,F#2,215.0,0.031,100,87.0
2526,F#2,215.25,0.031,71,87.0
2527,E-5,215.49,229/500,101,87.0
2528,G#5,215.5,73/250,53,87.0
2529,C2,215.5,0.031,72,87.0
2530,F#2,215.5,0.031,72,87.0
2531,C2,215.74,0.031,58,87.0
2532,F#2,215.74,0.031,58,87.0
2533,C#4,215.99,1/100,98,87.0
2534,G#5,215.99,1/100,88,87.0
2535,G#2,215.99,1/100,103,87.0
2536,G#1,215.99,1/100,104,87.0
2537,C#5,215.99,1/100,103,87.0
2538,C#5,215.99,1/100,98,87.0
2539,F5,216.0,417/1000,89,87.0
2540,C#4,216.0,173/200,98,87.0
2541,G#5,216.0,149/100,88,87.0
2542,G#2,216.0,3021/1000,103,87.0
2543,G#1,216.0,3979/1000,104,87.0
2544,C#5,216.0,49/100,103,87.0
2545,C#5,216.0,399/100,98,87.0
2546,B-2,216.0,0.031,108,87.0
2547,C2,216.0,0.031,108,87.0
2548,C2,216.25,0.031,98,87.0
2549,E-5,216.49,0.5,97,87.0
2550,G#5,216.5,151/500,53,87.0
2551,C2,216.5,0.031,102,87.0
2552,F#2,216.5,0.031,102,87.0
2553,F5,216.99,77/200,105,87.0
2554,F5,217.0,0.438,86,87.0
2555,C#4,217.0,19/25,103,87.0
2556,D2,217.0,0.031,105,87.0
2557,E-2,217.0,0.031,105,87.0
2558,F#2,217.0,0.031,105,87.0
2559,F#2,217.25,0.031,70,87.0
2560,G#6,217.49,1.0,91,87.0
2561,G#5,217.5,323/1000,54,87.0
2562,C#5,217.5,6/25,100,87.0
2563,C2,217.5,0.031,71,87.0
2564,F#2,217.5,0.031,71,87.0
2565,C2,217.75,0.031,101,87.0
2566,E-5,217.75,6/25,95,87.0
2567,C#4,217.99,73/500,96,87.0
2568,F5,218.0,77/200,92,87.0
2569,F#2,218.0,0.031,112,87.0
2570,F5,218.0,99/100,103,87.0
2571,C#4,218.24,177/1000,97,87.0
2572,C2,218.25,0.031,60,87.0
2573,F#2,218.25,0.031,60,87.0
2574,G#5,218.49,0.5,86,87.0
2575,G#5,218.5,427/1000,55,87.0
2576,C#4,218.5,271/1000,98,87.0
2577,C2,218.5,0.031,102,87.0
2578,F#2,218.5,0.031,102,87.0
2579,B-2,218.75,0.031,112,87.0
2580,G#6,218.99,927/1000,87,87.0
2581,C#2,218.99,101/100,103,87.0
2582,F5,219.0,177/500,92,87.0
2583,E-4,219.0,0.375,100,87.0
2584,C#5,219.0,0.469,95,87.0
2585,D2,219.0,0.031,104,87.0
2586,E-2,219.0,0.031,104,87.0
2587,F#2,219.0,0.031,104,87.0
2588,D2,219.25,0.031,98,87.0
2589,E-2,219.25,0.031,98,87.0
2590,G#5,219.5,99/250,48,87.0
2591,C#4,219.5,23/200,98,87.0
2592,E-5,219.5,427/1000,103,87.0
2593,C2,219.5,0.031,74,87.0
2594,F#2,219.5,0.031,74,87.0
2595,C#4,219.74,23/200,96,87.0
2596,C2,219.74,21/500,45,87.0
2597,F5,220.0,77/200,82,87.0
2598,C4,220.0,19/25,101,87.0
2599,F5,220.0,149/100,90,87.0
2600,C#2,220.0,0.031,103,87.0
2601,F1,220.0,3.938,105,87.0
2602,B-4,220.0,229/500,97,87.0
2603,G#5,220.0,399/100,105,87.0
2604,B-2,220.0,0.031,102,87.0
2605,C2,220.0,0.031,102,87.0
2606,F1,220.031,3.969,102,87.0
2607,F5,220.479,77/200,54,87.0
2608,F#2,220.5,0.031,109,87.0
2609,C5,220.5,49/100,101,87.0
2610,F5,221.0,77/200,91,87.0
2611,C#4,221.0,229/1000,96,87.0
2612,C#5,221.0,229/500,97,87.0
2613,D2,221.0,0.031,103,87.0
2614,E-2,221.0,0.031,103,87.0
2615,F#2,221.0,0.031,103,87.0
2616,C4,221.25,69/125,100,87.0
2617,F#2,221.25,0.031,79,87.0
2618,F5,221.479,77/200,54,87.0
2619,F6,221.49,1.0,88,87.0
2620,C2,221.49,0.031,106,87.0
2621,F#2,221.49,0.031,106,87.0
2622,B-4,221.5,6/25,95,87.0
2623,C5,221.75,6/25,95,87.0
2624,C2,221.75,0.031,88,87.0
2625,F#2,221.75,0.031,88,87.0
2626,F5,221.99,99/250,87,87.0
2627,C#4,222.0,0.188,98,87.0
2628,F#2,222.0,0.031,109,87.0
2629,C#5,222.0,99/100,104,87.0
2630,C4,222.24,69/125,95,87.0
2631,F#2,222.25,0.031,79,87.0
2632,F5,222.469,99/250,52,87.0
2633,F5,222.49,229/500,92,87.0
2634,C2,222.5,0.031,104,87.0
2635,F#2,222.5,0.031,104,87.0
2636,F#2,222.75,0.031,77,87.0
2637,F5,222.99,99/250,92,87.0
2638,F6,222.99,1.0,87,87.0
2639,C#4,223.0,349/500,99,87.0
2640,B-4,223.0,49/100,104,87.0
2641,D2,223.0,0.031,105,87.0
2642,E-2,223.0,0.031,105,87.0
2643,F#2,223.0,0.031,105,87.0
2644,F#2,223.25,0.031,72,87.0
2645,G#5,223.5,73/250,52,87.0
2646,C5,223.5,417/1000,97,87.0
2647,C2,223.5,0.031,76,87.0
2648,F#2,223.5,0.031,76,87.0
2649,C2,223.74,0.031,56,87.0
2650,F#2,223.74,0.031,56,87.0
2651,C#4,223.99,1/100,98,87.0
2652,B-1,223.99,1/100,97,87.0
2653,B-1,223.99,1/100,104,87.0
2654,B-5,223.99,1/100,95,87.0
2655,F5,224.0,417/1000,90,87.0
2656,C#4,224.0,427/500,98,87.0
2657,B-5,224.0,149/100,85,87.0
2658,B-1,224.0,3.812,97,87.0
2659,B-1,224.0,3979/1000,104,87.0
2660,B-4,224.0,0.438,100,87.0
2661,B-5,224.0,3.969,95,87.0
2662,B-2,224.0,0.031,107,87.0
2663,C2,224.0,0.031,107,87.0
2664,C2,224.25,0.031,101,87.0
2665,G#5,224.5,151/500,54,87.0
2666,C5,224.5,49/100,95,87.0
2667,C2,224.5,0.031,104,87.0
2668,F#2,224.5,0.031,104,87.0
2669,F5,225.0,0.438,88,87.0
2670,C#4,225.0,0.719,101,87.0
2671,C#5,225.0,0.469,104,87.0
2672,D2,225.0,0.031,100,87.0
2673,E-2,225.0,0.031,100,87.0
2674,F#2,225.0,0.031,100,87.0
2675,F#2,225.25,0.031,79,87.0
2676,G#5,225.5,323/1000,47,87.0
2677,B-6,225.5,237/250,88,87.0
2678,B-4,225.5,6/25,96,87.0
2679,C2,225.5,0.031,74,87.0
2680,F#2,225.5,0.031,74,87.0
2681,C2,225.75,0.031,95,87.0
2682,C5,225.75,6/25,98,87.0
2683,C#4,225.99,167/1000,97,87.0
2684,F5,226.0,77/200,82,87.0
2685,F#2,226.0,0.031,108,87.0
2686,C#5,226.0,237/250,95,87.0
2687,C#4,226.24,0.156,96,87.0
2688,C2,226.25,0.031,62,87.0
2689,F#2,226.25,0.031,62,87.0
2690,B-5,226.49,0.5,89,87.0
2691,G#5,226.5,427/1000,53,87.0
2692,C#4,226.5,271/1000,98,87.0
2693,C2,226.5,0.031,106,87.0
2694,F#2,226.5,0.031,106,87.0
2695,B-2,226.75,0.031,113,87.0
2696,E-4,226.99,0.406,105,87.0
2697,B-6,226.99,417/1000,84,87.0
2698,F5,227.0,177/500,85,87.0
2699,B-4,227.0,49/100,103,87.0
2700,D2,227.0,0.031,108,87.0
2701,E-2,227.0,0.031,108,87.0
2702,F#2,227.0,0.031,108,87.0
2703,D2,227.25,0.031,101,87.0
2704,E-2,227.25,0.031,101,87.0
2705,C#4,227.49,0.125,100,87.0
2706,G#5,227.5,99/250,53,87.0
2707,B-6,227.5,0.406,89,87.0
2708,C5,227.5,49/100,103,87.0
2709,C2,227.5,0.031,77,87.0
2710,F#2,227.5,0.031,77,87.0
2711,C#4,227.74,99/500,101,87.0
2712,C2,227.74,21/500,42,87.0
2713,F5,228.0,77/200,87,87.0
2714,B-3,228.0,0.781,103,87.0
2715,F#5,228.0,1479/1000,82,87.0
2716,F#2,228.0,4.0,96,87.0
2717,F#1,228.0,3.938,95,87.0
2718,C#5,228.0,49/100,100,87.0
2719,F#5,228.0,3.969,95,87.0
2720,B-2,228.0,0.031,106,87.0
2721,C2,228.0,0.031,106,87.0
2722,F5,228.479,77/200,55,87.0
2723,E-5,228.49,0.5,96,87.0
2724,F#2,228.5,0.031,110,87.0
2725,F5,229.0,77/200,84,87.0
2726,C#4,229.0,229/1000,99,87.0
2727,F5,229.0,77/200,101,87.0
2728,D2,229.0,0.031,106,87.0
2729,E-2,229.0,0.031,106,87.0
2730,F#2,229.0,0.031,106,87.0
2731,B-3,229.25,123/200,99,87.0
2732,F#2,229.25,0.031,71,87.0
2733,F5,229.479,77/200,53,87.0
2734,C#5,229.49,0.25,102,87.0
2735,C2,229.49,0.031,108,87.0
2736,F#2,229.49,0.031,108,87.0
2737,F#6,229.5,0.875,89,87.0
2738,E-5,229.74,0.25,95,87.0
2739,C2,229.75,0.031,85,87.0
2740,F#2,229.75,0.031,85,87.0
2741,F5,229.99,99/250,84,87.0
2742,F5,229.99,177/200,99,87.0
2743,C#4,230.0,6/25,95,87.0
2744,F#2,230.0,0.031,108,87.0
2745,B-3,230.25,521/1000,97,87.0
2746,F#2,230.25,0.031,73,87.0
2747,F5,230.469,99/250,56,87.0
2748,F#5,230.49,0.5,88,87.0
2749,C2,230.5,0.031,108,87.0
2750,F#2,230.5,0.031,108,87.0
2751,F#2,230.75,0.031,77,87.0
2752,F5,230.99,99/250,92,87.0
2753,C#4,230.99,99/125,97,87.0
2754,F#6,230.99,1.0,84,87.0
2755,C#5,230.99,0.5,103,87.0
2756,D2,231.0,0.031,105,87.0
2757,E-2,231.0,0.031,105,87.0
2758,F#2,231.0,0.031,105,87.0
2759,F#2,231.25,0.031,80,87.0
2760,E-5,231.49,229/500,99,87.0
2761,G#5,231.5,73/250,57,87.0
2762,C2,231.5,0.031,76,87.0
2763,F#2,231.5,0.031,76,87.0
2764,C2,231.74,0.031,60,87.0
2765,F#2,231.74,0.031,60,87.0
2766,G#5,231.99,1/100,88,87.0
2767,G#2,231.99,1/100,105,87.0
2768,G#1,231.99,1/100,95,87.0
2769,C#5,231.99,1/100,95,87.0
2770,C#5,231.99,1/100,105,87.0
2771,F5,232.0,417/1000,82,87.0
2772,C#4,232.0,401/500,104,87.0
2773,G#5,232.0,149/100,88,87.0
2774,G#2,232.0,3021/1000,105,87.0
2775,G#1,232.0,3979/1000,95,87.0
2776,C#5,232.0,49/100,95,87.0
2777,C#5,232.0,399/100,105,87.0
2778,B-2,232.0,0.031,104,87.0
2779,C2,232.0,0.031,104,87.0
2780,C2,232.25,0.031,101,87.0
2781,E-5,232.49,0.5,101,87.0
2782,G#5,232.5,151/500,54,87.0
2783,C2,232.5,0.031,103,87.0
2784,F#2,232.5,0.031,103,87.0
2785,C4,232.99,177/250,99,87.0
2786,F5,232.99,77/200,95,87.0
2787,F5,233.0,0.438,90,87.0
2788,D2,233.0,0.031,103,87.0
2789,E-2,233.0,0.031,103,87.0
2790,F#2,233.0,0.031,103,87.0
2791,F#2,233.25,0.031,74,87.0
2792,G#6,233.49,1.0,83,87.0
2793,G#5,233.5,323/1000,54,87.0
2794,C#5,233.5,6/25,101,87.0
2795,C2,233.5,0.031,77,87.0
2796,F#2,233.5,0.031,77,87.0
2797,C2,233.75,0.031,101,87.0
2798,E-5,233.75,6/25,99,87.0
2799,C#4,233.99,73/500,105,87.0
2800,F5,234.0,77/200,86,87.0
2801,F#2,234.0,0.031,111,87.0
2802,F5,234.0,99/100,103,87.0
2803,C#4,234.24,0.156,104,87.0
2804,C2,234.25,0.031,53,87.0
2805,F#2,234.25,0.031,53,87.0
2806,C#4,234.49,333/1000,103,87.0
2807,G#5,234.49,0.5,88,87.0
2808,G#5,234.5,427/1000,51,87.0
2809,C2,234.5,0.031,108,87.0
2810,F#2,234.5,0.031,108,87.0
2811,B-2,234.75,0.031,115,87.0
2812,G#6,234.99,927/1000,86,87.0
2813,C#3,234.99,229/500,102,87.0
2814,F5,235.0,177/500,82,87.0
2815,E-4,235.0,177/500,105,87.0
2816,C#5,235.0,0.469,105,87.0
2817,D2,235.0,0.031,106,87.0
2818,E-2,235.0,0.031,106,87.0
2819,F#2,235.0,0.031,106,87.0
2820,D2,235.25,0.031,101,87.0
2821,E-2,235.25,0.031,101,87.0
2822,C#3,235.469,229/500,102,87.0
2823,C#4,235.49,73/500,100,87.0
2824,G#5,235.5,99/250,49,87.0
2825,E-5,235.5,427/1000,99,87.0
2826,C2,235.5,0.031,78,87.0
2827,F#2,235.5,0.031,78,87.0
2828,C#4,235.74,177/1000,105,87.0
2829,C2,235.74,21/500,40,87.0
2830,C4,235.99,1/100,101,87.0
2831,F5,236.0,77/200,85,87.0
2832,C4,236.0,0.75,101,87.0
2833,F5,236.0,149/100,83,87.0
2834,F1,236.0,3.938,103,87.0
2835,B-4,236.0,229/500,105,87.0
2836,G#5,236.0,399/100,98,87.0
2837,B-2,236.0,0.031,105,87.0
2838,C2,236.0,0.031,105,87.0
2839,F1,236.031,3.969,99,87.0
2840,F5,236.479,77/200,55,87.0
2841,F#2,236.5,0.031,106,87.0
2842,C5,236.5,49/100,99,87.0
2843,C#4,236.99,0.25,96,87.0
2844,F5,237.0,77/200,91,87.0
2845,C#5,237.0,229/500,98,87.0
2846,D2,237.0,0.031,106,87.0
2847,E-2,237.0,0.031,106,87.0
2848,F#2,237.0,0.031,106,87.0
2849,C4,237.25,521/1000,100,87.0
2850,F#2,237.25,0.031,79,87.0
2851,F5,237.479,77/200,48,87.0
2852,F6,237.49,1.0,83,87.0
2853,C2,237.49,0.031,105,87.0
2854,F#2,237.49,0.031,105,87.0
2855,B-4,237.5,6/25,103,87.0
2856,C5,237.75,6/25,103,87.0
2857,C2,237.75,0.031,90,87.0
2858,F#2,237.75,0.031,90,87.0
2859,F5,237.99,99/250,89,87.0
2860,C#4,238.0,229/1000,104,87.0
2861,F#2,238.0,0.031,110,87.0
2862,C#5,238.0,99/100,103,87.0
2863,C4,238.24,271/500,96,87.0
2864,F#2,238.25,0.031,78,87.0
2865,F5,238.469,99/250,55,87.0
2866,F5,238.49,229/500,82,87.0
2867,C2,238.5,0.031,104,87.0
2868,F#2,238.5,0.031,104,87.0
2869,F#2,238.75,0.031,71,87.0
2870,F5,238.99,99/250,86,87.0
2871,C#4,238.99,0.812,100,87.0
2872,F6,238.99,1.0,88,87.0
2873,B-4,239.0,49/100,95,87.0
2874,D2,239.0,0.031,104,87.0
2875,E-2,239.0,0.031,104,87.0
2876,F#2,239.0,0.031,104,87.0
2877,F#2,239.25,0.031,71,87.0
2878,G#5,239.5,73/250,47,87.0
2879,C5,239.5,417/1000,96,87.0
2880,C2,239.5,0.031,78,87.0
2881,F#2,239.5,0.031,78,87.0
2882,C2,239.74,0.031,56,87.0
2883,F#2,239.74,0.031,56,87.0
2884,C4,239.99,1/100,96,87.0
2885,B-1,239.99,1/100,97,87.0
2886,B-1,239.99,1/100,105,87.0
2887,B-5,239.99,1/100,98,87.0
2888,F5,240.0,417/1000,92,87.0
2889,C4,240.0,823/1000,96,87.0
2890,B-5,240.0,149/100,86,87.0
2891,B-1,240.0,3.812,97,87.0
2892,B-1,240.0,3979/1000,105,87.0
2893,B-4,240.0,0.438,102,87.0
2894,B-5,240.0,3.969,98,87.0
2895,B-2,240.0,0.031,110,87.0
2896,C2,240.0,0.031,110,87.0
2897,C2,240.25,0.031,105,87.0
2898,G#5,240.5,151/500,49,87.0
2899,C5,240.5,49/100,100,87.0
2900,C2,240.5,0.031,103,87.0
2901,F#2,240.5,0.031,103,87.0
2902,B-3,240.99,823/1000,105,87.0
2903,F5,241.0,0.438,89,87.0
2904,C#5,241.0,0.469,103,87.0
2905,D2,241.0,0.031,103,87.0
2906,E-2,241.0,0.031,103,87.0
2907,F#2,241.0,0.031,103,87.0
2908,F#2,241.25,0.031,73,87.0
2909,G#5,241.5,323/1000,50,87.0
2910,B-6,241.5,237/250,87,87.0
2911,B-4,241.5,6/25,99,87.0
2912,C2,241.5,0.031,70,87.0
2913,F#2,241.5,0.031,70,87.0
2914,C2,241.75,0.031,105,87.0
2915,C5,241.75,6/25,105,87.0
2916,B-3,241.99,173/200,103,87.0
2917,F5,242.0,77/200,82,87.0
2918,F#2,242.0,0.031,110,87.0
2919,C#5,242.0,237/250,101,87.0
2920,C2,242.25,0.031,59,87.0
2921,F#2,242.25,0.031,59,87.0
2922,B-5,242.49,0.5,87,87.0
2923,G#5,242.5,427/1000,53,87.0
2924,C2,242.5,0.031,108,87.0
2925,F#2,242.5,0.031,108,87.0
2926,B-2,242.75,0.031,106,87.0
2927,B-6,242.99,417/1000,89,87.0
2928,F5,243.0,177/500,83,87.0
2929,C4,243.0,417/1000,97,87.0
2930,B-4,243.0,49/100,101,87.0
2931,D2,243.0,0.031,103,87.0
2932,E-2,243.0,0.031,103,87.0
2933,F#2,243.0,0.031,103,87.0
2934,D2,243.25,0.031,98,87.0
2935,E-2,243.25,0.031,98,87.0
2936,C#4,243.49,427/1000,104,87.0
2937,G#5,243.5,99/250,47,87.0
2938,B-6,243.5,0.406,89,87.0
2939,C5,243.5,49/100,100,87.0
2940,C2,243.5,0.031,72,87.0
2941,F#2,243.5,0.031,72,87.0
2942,C2,243.74,21/500,41,87.0
2943,B2,244.0,3.5,86,87.0
2944,F#4,244.0,177/500,98,87.0
2945,B4,244.0,431/125,62,87.0
2946,B2,244.0,3479/1000,60,87.0
2947,F#4,244.0,4.0,53,87.0
2948,B4,244.0,4.0,54,87.0
2949,B1,244.0,0.031,101,87.0
2950,E-4,244.01,474/125,87,87.0
2951,F#4,244.01,474/125,87,87.0
2952,B4,244.01,474/125,87,87.0
2953,F#4,244.5,167/1000,103,87.0
2954,F#4,244.75,333/1000,104,87.0
2955,E-2,245.0,0.031,103,87.0
2956,F#4,245.25,323/1000,103,87.0
2957,F#4,245.75,323/1000,102,87.0
2958,B1,245.75,0.031,100,87.0
2959,F#4,246.25,333/1000,95,87.0
2960,B1,246.5,0.031,95,87.0
2961,F#4,246.75,99/125,98,87.0
2962,E-2,247.0,0.031,98,87.0
2963,E-2,247.5,0.25,57,87.0
2964,E-5,247.5,27/200,60,87.0
2965,E-2,247.5,167/1000,54,87.0
2966,F2,247.75,99/500,88,87.0
2967,F5,247.75,23/200,55,87.0
2968,F2,247.75,0.125,54,87.0
2969,B-4,247.99,1/100,52,87.0
2970,F#4,248.0,177/500,97,87.0
2971,F#5,248.0,3.219,52,87.0
2972,F#2,248.0,3.625,62,87.0
2973,F#4,248.0,3979/1000,53,87.0
2974,B4,248.0,1/100,54,87.0
2975,B-4,248.0,399/100,52,87.0
2976,B1,248.0,0.031,95,87.0
2977,F#2,248.0,3771/1000,84,87.0
2978,F#4,248.0,3771/1000,84,87.0
2979,B-4,248.0,3771/1000,84,87.0
2980,C#4,248.0,3771/1000,84,87.0
2981,F#4,248.5,167/1000,103,87.0
2982,F#4,248.75,333/1000,97,87.0
2983,E-2,249.0,0.031,103,87.0
2984,F#4,249.25,323/1000,102,87.0
2985,F#4,249.75,323/1000,102,87.0
2986,B1,249.75,0.031,95,87.0
2987,F#4,250.25,333/1000,100,87.0
2988,B1,250.5,0.031,96,87.0
2989,F#4,250.75,0.594,103,87.0
2990,E-2,251.0,0.031,102,87.0
2991,F5,251.24,27/200,55,87.0
2992,E-2,251.25,0.031,95,87.0
2993,F#4,251.49,0.5,102,87.0
2994,E-5,251.49,23/200,55,87.0
2995,C#5,251.74,73/500,61,87.0
2996,F#4,252.0,112/125,99,87.0
2997,E-5,252.0,677/1000,61,87.0
2998,C#3,252.0,4.0,58,87.0
2999,F#4,252.0,771/500,55,87.0
3000,C#4,252.0,4.0,61,87.0
3001,B1,252.0,0.031,100,87.0
3002,C#2,252.0,4.0,87,87.0
3003,G#3,252.0,4.0,87,87.0
3004,C#4,252.0,4.0,87,87.0
3005,C#3,252.0,4.0,87,87.0
3006,F5,252.75,573/1000,53,87.0
3007,F4,253.0,99/250,101,87.0
3008,E-2,253.0,0.031,102,87.0
3009,C#5,253.49,251/100,55,87.0
3010,F4,253.5,417/1000,100,87.0
3011,F4,253.5,2.5,60,87.0
3012,B1,253.75,0.031,96,87.0
3013,F4,254.0,427/1000,104,87.0
3014,F4,254.49,73/200,101,87.0
3015,B1,254.5,0.031,97,87.0
3016,F4,255.0,77/200,99,87.0
3017,E-2,255.0,0.031,104,87.0
3018,F4,255.5,427/1000,102,87.0
3019,F4,255.99,1/100,101,87.0
3020,F4,256.0,401/500,101,87.0
3021,C#5,256.0,2.344,55,87.0
3022,C#3,256.0,56/25,58,87.0
3023,C#4,256.0,2.281,61,87.0
3024,F4,256.0,477/200,60,87.0
3025,B1,256.0,0.031,99,87.0
3026,E-4,257.0,151/500,99,87.0
3027,E-2,257.0,0.031,104,87.0
3028,E-4,257.5,1333/1000,97,87.0
3029,B1,257.75,0.031,95,87.0
3030,C#2,258.406,2.406,87,87.0
3031,G#3,258.406,2.406,87,87.0
3032,C#4,258.406,2.406,87,87.0
3033,C#3,258.406,2.406,87,87.0
3034,G#2,258.49,667/1000,56,87.0
3035,G#3,258.49,177/250,56,87.0
3036,E-4,258.49,177/250,56,87.0
3037,G#4,258.5,177/250,56,87.0
3038,B1,258.5,0.031,98,87.0
3039,E-4,259.0,56/125,105,87.0
3040,E-2,259.0,0.031,100,87.0
3041,B-4,259.25,677/1000,55,87.0
3042,B-2,259.25,677/1000,56,87.0
3043,E-2,259.25,0.031,105,87.0
3044,B-3,259.25,0.656,58,87.0
3045,E-4,259.25,0.656,58,87.0
3046,E-4,259.5,0.5,96,87.0
3047,E-4,260.0,77/200,96,87.0
3048,B4,260.0,1651/500,56,87.0
3049,B2,260.0,3417/1000,58,87.0
3050,F#4,260.0,4.0,54,87.0
3051,B4,260.0,4.0,54,87.0
3052,B1,260.0,0.031,101,87.0
3053,E-4,260.5,49/100,105,87.0
3054,G#3,260.885,823/1000,89,87.0
3055,E-3,260.885,0.688,87,87.0
3056,G#1,260.885,0.688,87,87.0
3057,G#2,260.885,0.688,87,87.0
3058,F#4,261.0,0.375,95,87.0
3059,E-2,261.0,0.031,105,87.0
3060,F#4,261.5,77/200,97,87.0
3061,B-2,261.656,677/1000,86,87.0
3062,B-1,261.656,677/1000,86,87.0
3063,B-3,261.656,677/1000,86,87.0
3064,F3,261.656,677/1000,86,87.0
3065,B1,261.75,0.031,99,87.0
3066,F#4,262.0,73/200,102,87.0
3067,B1,262.406,349/100,85,87.0
3068,B2,262.406,349/100,85,87.0
3069,E-4,262.406,927/250,89,87.0
3070,F#4,262.406,927/250,89,87.0
3071,B4,262.406,927/250,89,87.0
3072,F#4,262.5,0.406,102,87.0
3073,B1,262.5,0.031,103,87.0
3074,G#4,263.0,49/100,105,87.0
3075,E-2,263.0,0.031,105,87.0
3076,F#4,263.5,0.406,105,87.0
3077,E-5,263.5,73/500,55,87.0
3078,E-2,263.5,177/1000,53,87.0
3079,F2,263.74,0.188,59,87.0
3080,F5,263.75,23/200,56,87.0
3081,F#2,263.99,1/100,62,87.0
3082,B-4,263.99,1/100,53,87.0
3083,F#4,264.0,177/200,101,87.0
3084,F#5,264.0,3.75,57,87.0
3085,F#2,264.0,4.0,62,87.0
3086,F#4,264.0,3979/1000,54,87.0
3087,B4,264.0,1/100,54,87.0
3088,B-4,264.0,399/100,53,87.0
3089,B1,264.0,0.031,101,87.0
3090,F#4,265.0,56/125,97,87.0
3091,E-2,265.0,0.031,102,87.0
3092,F#4,265.5,0.406,100,87.0
3093,B1,265.75,0.031,96,87.0
3094,E-2,265.906,13/50,57,87.0
3095,F#4,266.0,99/250,104,87.0
3096,F2,266.156,229/1000,92,87.0
3097,F#2,266.406,3.875,82,87.0
3098,B-4,266.406,4.0,87,87.0
3099,F#4,266.406,4.0,87,87.0
3100,C#4,266.406,4.0,87,87.0
3101,F#4,266.5,0.469,103,87.0
3102,B1,266.5,0.031,97,87.0
3103,G#4,267.0,49/100,100,87.0
3104,E-2,267.0,0.031,101,87.0
3105,E-2,267.25,0.031,101,87.0
3106,F4,267.5,0.406,98,87.0
3107,F1,268.0,37/50,103,87.0
3108,F4,268.0,399/100,100,87.0
3109,F4,268.0,37/50,82,87.0
3110,F2,268.0,37/50,100,87.0
3111,F#2,268.0,0.125,62,87.0
3112,F3,268.0,37/50,96,87.0
3113,F4,268.0,37/50,101,87.0
3114,C4,268.0,4.0,91,87.0
3115,F4,268.0,4.0,91,87.0
3116,B-2,268.0,0.031,108,87.0
3117,C2,268.0,0.031,108,87.0
3118,F#2,268.5,0.031,110,87.0
3119,A1,268.75,0.656,100,87.0
3120,A4,268.75,0.656,82,87.0
3121,A2,268.75,0.656,99,87.0
3122,A3,268.75,0.656,97,87.0
3123,A4,268.75,0.656,96,87.0
3124,D2,269.0,0.031,105,87.0
3125,E-2,269.0,0.031,105,87.0
3126,F#2,269.0,0.031,105,87.0
3127,F#2,269.25,0.031,70,87.0
3128,C2,269.49,0.031,104,87.0
3129,F#2,269.49,0.031,104,87.0
3130,C2,269.5,177/250,99,87.0
3131,C5,269.5,177/250,82,87.0
3132,C3,269.5,177/250,98,87.0
3133,C4,269.5,177/250,102,87.0
3134,C5,269.5,177/250,104,87.0
3135,C2,269.75,0.031,86,87.0
3136,F#2,269.75,0.031,86,87.0
3137,F#2,270.0,0.031,106,87.0
3138,F#2,270.25,349/500,104,87.0
3139,F#5,270.25,349/500,84,87.0
3140,F#3,270.25,349/500,101,87.0
3141,F#2,270.25,0.031,71,87.0
3142,F#4,270.25,349/500,95,87.0
3143,F#5,270.25,349/500,102,87.0
3144,F2,270.406,1271/1000,90,87.0
3145,A4,270.406,1271/1000,90,87.0
3146,E-4,270.406,1271/1000,90,87.0
3147,F4,270.406,1271/1000,90,87.0
3148,C2,270.5,0.031,102,87.0
3149,F#2,270.5,0.031,102,87.0
3150,F#2,270.75,0.031,79,87.0
3151,F2,270.99,0.719,101,87.0
3152,F5,270.99,0.719,89,87.0
3153,F3,270.99,0.719,104,87.0
3154,F4,270.99,0.719,103,87.0
3155,F5,270.99,0.719,100,87.0
3156,D2,271.0,0.031,102,87.0
3157,E-2,271.0,0.031,102,87.0
3158,F#2,271.0,0.031,102,87.0
3159,F#2,271.25,0.031,77,87.0
3160,C2,271.5,0.031,78,87.0
3161,F#2,271.5,0.031,78,87.0
3162,E-2,271.74,0.25,99,87.0
3163,E-5,271.74,0.25,92,87.0
3164,E-3,271.74,0.25,102,87.0
3165,E-4,271.74,0.25,96,87.0
3166,E-5,271.74,0.25,97,87.0
3167,C2,271.74,0.031,58,87.0
3168,F#2,271.74,0.031,58,87.0
3169,C3,271.896,1.469,89,87.0
3170,F4,271.917,1323/1000,85,87.0
3171,E-4,271.917,1323/1000,85,87.0
3172,A4,271.917,1323/1000,85,87.0
3173,E-2,272.0,6/25,101,87.0
3174,A4,272.0,2.938,99,87.0
3175,E-5,272.0,6/25,92,87.0
3176,E-3,272.0,6/25,98,87.0
3177,E-4,272.0,6/25,100,87.0
3178,E-5,272.0,6/25,105,87.0
3179,B-2,272.0,0.031,104,87.0
3180,C2,272.0,0.031,104,87.0
3181,C#2,272.25,49/100,102,87.0
3182,C#5,272.25,49/100,84,87.0
3183,C#3,272.25,49/100,95,87.0
3184,C2,272.25,0.031,98,87.0
3185,C#4,272.25,49/100,101,87.0
3186,C#5,272.25,49/100,100,87.0
3187,C2,272.5,0.031,106,87.0
3188,F#2,272.5,0.031,106,87.0
3189,C2,272.75,6/25,101,87.0
3190,C5,272.75,6/25,88,87.0
3191,C3,272.75,6/25,95,87.0
3192,C4,272.75,6/25,95,87.0
3193,C5,272.75,6/25,103,87.0
3194,B-1,273.0,49/100,98,87.0
3195,B-4,273.0,49/100,88,87.0
3196,B-2,273.0,49/100,104,87.0
3197,B-3,273.0,49/100,95,87.0
3198,B-4,273.0,49/100,105,87.0
3199,D2,273.0,0.031,102,87.0
3200,E-2,273.0,0.031,102,87.0
3201,F#2,273.0,0.031,102,87.0
3202,F#2,273.25,0.031,80,87.0
3203,F3,273.406,1.0,88,87.0
3204,F4,273.427,979/1000,87,87.0
3205,E-4,273.427,979/1000,87,87.0
3206,A4,273.427,979/1000,87,87.0
3207,A1,273.5,113/50,105,87.0
3208,A4,273.5,113/50,87,87.0
3209,A2,273.5,113/50,98,87.0
3210,A3,273.5,113/50,99,87.0
3211,A4,273.5,113/50,104,87.0
3212,C2,273.5,0.031,78,87.0
3213,F#2,273.5,0.031,78,87.0
3214,C2,273.75,0.031,100,87.0
3215,F#2,274.0,0.031,112,87.0
3216,C2,274.25,0.031,52,87.0
3217,F#2,274.25,0.031,52,87.0
3218,F3,274.406,77/200,88,87.0
3219,F4,274.406,73/250,87,87.0
3220,E-4,274.406,73/250,87,87.0
3221,A4,274.406,73/250,87,87.0
3222,C2,274.5,0.031,104,87.0
3223,F#2,274.5,0.031,104,87.0
3224,B-2,274.75,0.031,111,87.0
3225,C3,274.906,1599/500,82,87.0
3226,E-4,274.917,3333/1000,83,87.0
3227,F4,274.917,3333/1000,83,87.0
3228,A4,274.917,3333/1000,83,87.0
3229,B-4,275.0,99/250,97,87.0
3230,A4,275.0,1.0,75,87.0
3231,D2,275.0,0.031,103,87.0
3232,E-2,275.0,0.031,103,87.0
3233,F#2,275.0,0.031,103,87.0
3234,D2,275.25,0.031,103,87.0
3235,E-2,275.25,0.031,103,87.0
3236,B-4,275.5,0.344,105,87.0
3237,C2,275.5,0.031,77,87.0
3238,F#2,275.5,0.031,77,87.0
3239,C2,275.74,21/500,39,87.0
3240,C4,275.885,777/200,91,87.0
3241,F4,275.885,777/200,91,87.0
3242,F#1,276.0,3927/1000,96,87.0
3243,F#5,276.0,1979/500,88,87.0
3244,F#2,276.0,3.906,103,87.0
3245,C#5,276.0,49/100,102,87.0
3246,F#5,276.0,3927/1000,102,87.0
3247,B-2,276.0,0.031,104,87.0
3248,C2,276.0,0.031,104,87.0
3249,E-5,276.49,0.5,96,87.0
3250,F#2,276.5,0.031,112,87.0
3251,F#4,276.99,167/1000,105,87.0
3252,F5,277.0,77/200,99,87.0
3253,D2,277.0,0.031,104,87.0
3254,E-2,277.0,0.031,104,87.0
3255,F#2,277.0,0.031,104,87.0
3256,F#4,277.25,177/1000,103,87.0
3257,F#2,277.25,0.031,77,87.0
3258,C#5,277.49,0.25,104,87.0
3259,C2,277.49,0.031,101,87.0
3260,F#2,277.49,0.031,101,87.0
3261,F#4,277.5,417/1000,105,87.0
3262,E-5,277.74,0.25,97,87.0
3263,C2,277.75,0.031,90,87.0
3264,F#2,277.75,0.031,90,87.0
3265,F5,277.99,177/200,97,87.0
3266,F#4,278.0,56/125,104,87.0
3267,F#2,278.0,0.031,112,87.0
3268,F#2,278.25,0.031,80,87.0
3269,F5,278.406,77/200,92,87.0
3270,F#4,278.5,417/1000,99,87.0
3271,C2,278.5,0.031,106,87.0
3272,F#2,278.5,0.031,106,87.0
3273,F#2,278.75,0.031,78,87.0
3274,F5,278.885,77/200,47,87.0
3275,C#5,278.99,0.5,103,87.0
3276,F#4,279.0,229/500,105,87.0
3277,D2,279.0,0.031,102,87.0
3278,E-2,279.0,0.031,102,87.0
3279,F#2,279.0,0.031,102,87.0
3280,F#2,279.25,0.031,70,87.0
3281,F5,279.406,77/200,92,87.0
3282,E-5,279.49,229/500,99,87.0
3283,G#4,279.5,27/200,104,87.0
3284,C2,279.5,0.031,74,87.0
3285,F#2,279.5,0.031,74,87.0
3286,C2,279.74,0.031,54,87.0
3287,F#2,279.74,0.031,54,87.0
3288,G#4,279.75,6/25,100,87.0
3289,F5,279.885,77/200,56,87.0
3290,C#4,279.885,3.969,88,87.0
3291,F#4,279.885,3.969,88,87.0
3292,G#5,279.99,1/100,90,87.0
3293,G#2,279.99,1/100,97,87.0
3294,C#5,279.99,1/100,104,87.0
3295,G#5,279.99,1/100,99,87.0
3296,G#1,280.0,777/200,96,87.0
3297,F4,280.0,127/200,96,87.0
3298,G#5,280.0,777/200,90,87.0
3299,G#2,280.0,987/250,97,87.0
3300,C#5,280.0,49/100,104,87.0
3301,G#5,280.0,987/250,99,87.0
3302,B-2,280.0,0.031,104,87.0
3303,C2,280.0,0.031,104,87.0
3304,C2,280.25,0.031,104,87.0
3305,F5,280.396,99/250,82,87.0
3306,E-5,280.49,0.5,103,87.0
3307,C2,280.5,0.031,106,87.0
3308,F#2,280.5,0.031,106,87.0
3309,F5,280.875,99/250,52,87.0
3310,F5,280.99,77/200,102,87.0
3311,F4,281.0,99/250,102,87.0
3312,D2,281.0,0.031,102,87.0
3313,E-2,281.0,0.031,102,87.0
3314,F#2,281.0,0.031,102,87.0
3315,F#2,281.25,0.031,70,87.0
3316,F5,281.396,99/250,84,87.0
3317,F4,281.5,77/200,96,87.0
3318,C#5,281.5,6/25,101,87.0
3319,C2,281.5,0.031,75,87.0
3320,F#2,281.5,0.031,75,87.0
3321,C2,281.75,0.031,99,87.0
3322,E-5,281.75,6/25,96,87.0
3323,G#5,281.906,73/250,51,87.0
3324,F4,282.0,99/250,99,87.0
3325,F#2,282.0,0.031,106,87.0
3326,F5,282.0,99/100,105,87.0
3327,C2,282.25,0.031,57,87.0
3328,F#2,282.25,0.031,57,87.0
3329,F5,282.406,417/1000,84,87.0
3330,F4,282.5,0.375,102,87.0
3331,C2,282.5,0.031,105,87.0
3332,F#2,282.5,0.031,105,87.0
3333,B-2,282.75,0.031,112,87.0
3334,G#5,282.906,151/500,56,87.0
3335,F4,283.0,333/1000,101,87.0
3336,C#5,283.0,0.469,96,87.0
3337,D2,283.0,0.031,105,87.0
3338,E-2,283.0,0.031,105,87.0
3339,F#2,283.0,0.031,105,87.0
3340,D2,283.25,0.031,100,87.0
3341,E-2,283.25,0.031,100,87.0
3342,F5,283.406,0.438,91,87.0
3343,F#4,283.5,6/25,95,87.0
3344,E-5,283.5,427/1000,98,87.0
3345,C2,283.5,0.031,78,87.0
3346,F#2,283.5,0.031,78,87.0
3347,F4,283.74,0.25,100,87.0
3348,C2,283.74,21/500,43,87.0
3349,F4,283.875,1/100,87,87.0
3350,G#4,283.875,1/100,87,87.0
3351,F4,283.885,773/200,87,87.0
3352,G#4,283.885,773/200,87,87.0
3353,G#5,283.906,323/1000,55,87.0
3354,F2,283.99,1/100,95,87.0
3355,F5,283.99,1/100,105,87.0
3356,F1,284.0,3927/1000,98,87.0
3357,E-4,284.0,0.875,105,87.0
3358,F5,284.0,1979/500,82,87.0
3359,F2,284.0,3.969,95,87.0
3360,B-4,284.0,229/500,101,87.0
3361,F5,284.0,3979/1000,105,87.0
3362,B-2,284.0,0.031,104,87.0
3363,C2,284.0,0.031,104,87.0
3364,F5,284.406,77/200,92,87.0
3365,F#2,284.5,0.031,105,87.0
3366,C5,284.5,49/100,104,87.0
3367,G#5,284.906,427/1000,48,87.0
3368,E-4,285.0,0.438,95,87.0
3369,C#5,285.0,229/500,102,87.0
3370,D2,285.0,0.031,104,87.0
3371,E-2,285.0,0.031,104,87.0
3372,F#2,285.0,0.031,104,87.0
3373,F#2,285.25,0.031,75,87.0
3374,F5,285.406,177/500,85,87.0
3375,C2,285.49,0.031,104,87.0
3376,F#2,285.49,0.031,104,87.0
3377,E-4,285.5,177/500,100,87.0
3378,B-4,285.5,6/25,101,87.0
3379,C5,285.75,6/25,98,87.0
3380,C2,285.75,0.031,87,87.0
3381,F#2,285.75,0.031,87,87.0
3382,G#5,285.906,99/250,52,87.0
3383,E-4,286.0,77/200,97,87.0
3384,F#2,286.0,0.031,108,87.0
3385,C#5,286.0,99/100,97,87.0
3386,F#2,286.25,0.031,73,87.0
3387,F5,286.406,77/200,82,87.0
3388,E-4,286.5,99/250,105,87.0
3389,C2,286.5,0.031,102,87.0
3390,F#2,286.5,0.031,102,87.0
3391,F#2,286.75,0.031,70,87.0
3392,F5,286.885,77/200,50,87.0
3393,F4,287.0,0.375,95,87.0
3394,B-4,287.0,49/100,101,87.0
3395,D2,287.0,0.031,102,87.0
3396,E-2,287.0,0.031,102,87.0
3397,F#2,287.0,0.031,102,87.0
3398,F#2,287.25,0.031,78,87.0
3399,F5,287.406,77/200,88,87.0
3400,C#4,287.5,229/1000,98,87.0
3401,C5,287.5,417/1000,100,87.0
3402,C2,287.5,0.031,78,87.0
3403,F#2,287.5,0.031,78,87.0
3404,C2,287.74,0.031,58,87.0
3405,F#2,287.74,0.031,58,87.0
3406,E-4,287.75,0.25,96,87.0
3407,F4,287.875,1/100,87,87.0
3408,C5,287.875,1/100,87,87.0
3409,F5,287.885,77/200,53,87.0
3410,F4,287.885,3.906,87,87.0
3411,C5,287.885,3.906,87,87.0
3412,B-5,287.99,1/100,85,87.0
3413,B-5,287.99,1/100,98,87.0
3414,B-1,288.0,777/200,96,87.0
3415,E-4,288.0,0.312,96,87.0
3416,B-5,288.0,3917/1000,85,87.0
3417,B-2,288.0,3.938,102,87.0
3418,B-4,288.0,0.438,100,87.0
3419,B-5,288.0,399/100,98,87.0
3420,B-2,288.0,0.031,108,87.0
3421,C2,288.0,0.031,108,87.0
3422,C2,288.25,0.031,104,87.0
3423,F5,288.396,99/250,88,87.0
3424,C#4,288.5,26/125,97,87.0
3425,C5,288.5,49/100,97,87.0
3426,C2,288.5,0.031,100,87.0
3427,F#2,288.5,0.031,100,87.0
3428,B-3,288.75,27/200,102,87.0
3429,F5,288.875,99/250,51,87.0
3430,C#4,289.0,0.406,101,87.0
3431,C#5,289.0,0.469,97,87.0
3432,D2,289.0,0.031,106,87.0
3433,E-2,289.0,0.031,106,87.0
3434,F#2,289.0,0.031,106,87.0
3435,F#2,289.25,0.031,74,87.0
3436,F5,289.396,99/250,82,87.0
3437,C#4,289.5,229/1000,98,87.0
3438,B-4,289.5,6/25,100,87.0
3439,C2,289.5,0.031,72,87.0
3440,F#2,289.5,0.031,72,87.0
3441,B-3,289.75,0.188,102,87.0
3442,C2,289.75,0.031,99,87.0
3443,C5,289.75,6/25,95,87.0
3444,G#5,289.906,73/250,54,87.0
3445,C#4,290.0,0.156,97,87.0
3446,F#2,290.0,0.031,111,87.0
3447,C#5,290.0,237/250,96,87.0
3448,C#4,290.25,0.156,105,87.0
3449,C2,290.25,0.031,56,87.0
3450,F#2,290.25,0.031,56,87.0
3451,F5,290.406,417/1000,90,87.0
3452,C#4,290.5,0.312,101,87.0
3453,C2,290.5,0.031,103,87.0
3454,F#2,290.5,0.031,103,87.0
3455,B-2,290.75,0.031,112,87.0
3456,G#5,290.906,151/500,57,87.0
3457,E-4,291.0,0.469,95,87.0
3458,B-4,291.0,49/100,101,87.0
3459,D2,291.0,0.031,104,87.0
3460,E-2,291.0,0.031,104,87.0
3461,F#2,291.0,0.031,104,87.0
3462,D2,291.25,0.031,100,87.0
3463,E-2,291.25,0.031,100,87.0
3464,F5,291.406,0.438,82,87.0
3465,C#4,291.5,73/500,100,87.0
3466,C5,291.5,49/100,97,87.0
3467,C2,291.5,0.031,74,87.0
3468,F#2,291.5,0.031,74,87.0
3469,C#4,291.74,26/125,105,87.0
3470,C2,291.74,21/500,44,87.0
3471,F4,291.875,1/100,83,87.0
3472,B-4,291.875,1/100,83,87.0
3473,F4,291.885,3.844,83,87.0
3474,B-4,291.885,3.844,83,87.0
3475,G#5,291.906,323/1000,56,87.0
3476,F#1,292.0,3927/1000,98,87.0
3477,B-3,292.0,99/125,97,87.0
3478,F#5,292.0,1979/500,86,87.0
3479,F#2,292.0,3.906,102,87.0
3480,C#5,292.0,49/100,96,87.0
3481,F#5,292.0,3927/1000,101,87.0
3482,B-2,292.0,0.031,106,87.0
3483,C2,292.0,0.031,106,87.0
3484,F5,292.406,77/200,90,87.0
3485,E-5,292.49,0.5,97,87.0
3486,F#2,292.5,0.031,110,87.0
3487,G#5,292.906,427/1000,49,87.0
3488,F#4,293.0,417/1000,104,87.0
3489,F5,293.0,77/200,103,87.0
3490,D2,293.0,0.031,104,87.0
3491,E-2,293.0,0.031,104,87.0
3492,F#2,293.0,0.031,104,87.0
3493,F#2,293.25,0.031,72,87.0
3494,F5,293.406,177/500,90,87.0
3495,C#5,293.49,0.25,100,87.0
3496,C2,293.49,0.031,108,87.0
3497,F#2,293.49,0.031,108,87.0
3498,F#4,293.5,0.375,103,87.0
3499,E-5,293.74,0.25,102,87.0
3500,C2,293.75,0.031,88,87.0
3501,F#2,293.75,0.031,88,87.0
3502,G#5,293.906,99/250,52,87.0
3503,F5,293.99,177/200,101,87.0
3504,F#4,294.0,99/250,102,87.0
3505,F#2,294.0,0.031,114,87.0
3506,F#2,294.25,0.031,73,87.0
3507,F5,294.406,77/200,87,87.0
3508,F#4,294.5,0.375,103,87.0
3509,C2,294.5,0.031,106,87.0
3510,F#2,294.5,0.031,106,87.0
3511,F#2,294.75,0.031,80,87.0
3512,F5,294.885,77/200,47,87.0
3513,C#5,294.99,0.5,100,87.0
3514,F#4,295.0,0.344,102,87.0
3515,D2,295.0,0.031,104,87.0
3516,E-2,295.0,0.031,104,87.0
3517,F#2,295.0,0.031,104,87.0
3518,F#2,295.25,0.031,71,87.0
3519,F5,295.406,77/200,83,87.0
3520,E-5,295.49,229/500,96,87.0
3521,G#4,295.5,0.156,101,87.0
3522,C2,295.5,0.031,74,87.0
3523,F#2,295.5,0.031,74,87.0
3524,G#4,295.74,0.25,105,87.0
3525,C2,295.74,0.031,57,87.0
3526,F#2,295.74,0.031,57,87.0
3527,F5,295.885,77/200,54,87.0
3528,C#4,295.885,3.969,86,87.0
3529,F#4,295.885,3.969,86,87.0
3530,F4,295.99,1/100,105,87.0
3531,G#5,295.99,1/100,91,87.0
3532,G#2,295.99,1/100,95,87.0
3533,C#5,295.99,1/100,99,87.0
3534,G#5,295.99,1/100,103,87.0
3535,G#1,296.0,777/200,101,87.0
3536,F4,296.0,0.656,105,87.0
3537,G#5,296.0,777/200,91,87.0
3538,G#2,296.0,987/250,95,87.0
3539,C#5,296.0,49/100,99,87.0
3540,G#5,296.0,987/250,103,87.0
3541,B-2,296.0,0.031,104,87.0
3542,C2,296.0,0.031,104,87.0
3543,C2,296.25,0.031,100,87.0
3544,F5,296.396,99/250,90,87.0
3545,E-5,296.49,0.5,95,87.0
3546,C2,296.5,0.031,108,87.0
3547,F#2,296.5,0.031,108,87.0
3548,F5,296.875,99/250,57,87.0
3549,F5,296.99,77/200,105,87.0
3550,F4,297.0,99/250,103,87.0
3551,D2,297.0,0.031,104,87.0
3552,E-2,297.0,0.031,104,87.0
3553,F#2,297.0,0.031,104,87.0
3554,F#2,297.25,0.031,78,87.0
3555,F5,297.396,99/250,85,87.0
3556,F4,297.5,427/1000,105,87.0
3557,C#5,297.5,6/25,103,87.0
3558,C2,297.5,0.031,78,87.0
3559,F#2,297.5,0.031,78,87.0
3560,C2,297.75,0.031,99,87.0
3561,E-5,297.75,6/25,102,87.0
3562,G#5,297.906,73/250,51,87.0
3563,F4,298.0,177/500,102,87.0
3564,F#2,298.0,0.031,105,87.0
3565,F5,298.0,99/100,101,87.0
3566,C2,298.25,0.031,60,87.0
3567,F#2,298.25,0.031,60,87.0
3568,F5,298.406,417/1000,92,87.0
3569,F4,298.5,0.375,100,87.0
3570,C2,298.5,0.031,102,87.0
3571,F#2,298.5,0.031,102,87.0
3572,B-2,298.75,0.031,105,87.0
3573,G#5,298.906,151/500,52,87.0
3574,F4,299.0,323/1000,105,87.0
3575,C#5,299.0,0.469,103,87.0
3576,D2,299.0,0.031,104,87.0
3577,E-2,299.0,0.031,104,87.0
3578,F#2,299.0,0.031,104,87.0
3579,D2,299.25,0.031,100,87.0
3580,E-2,299.25,0.031,100,87.0
3581,F5,299.406,0.438,90,87.0
3582,F#4,299.5,6/25,97,87.0
3583,E-5,299.5,427/1000,104,87.0
3584,C2,299.5,0.031,77,87.0
3585,F#2,299.5,0.031,77,87.0
3586,F4,299.74,0.25,104,87.0
3587,C2,299.74,21/500,37,87.0
3588,F4,299.875,1/100,82,87.0
3589,G#4,299.875,1/100,82,87.0
3590,F4,299.885,773/200,82,87.0
3591,G#4,299.885,773/200,82,87.0
3592,G#5,299.906,323/1000,50,87.0
3593,F2,299.99,1/100,105,87.0
3594,F5,299.99,1/100,98,87.0
3595,F1,300.0,3927/1000,105,87.0
3596,E-4,300.0,0.781,102,87.0
3597,F5,300.0,1979/500,87,87.0
3598,F2,300.0,3.969,105,87.0
3599,B-4,300.0,229/500,95,87.0
3600,F5,300.0,3979/1000,98,87.0
3601,B-2,300.0,0.031,106,87.0
3602,C2,300.0,0.031,106,87.0
3603,F5,300.406,77/200,91,87.0
3604,F#2,300.5,0.031,106,87.0
3605,C5,300.5,49/100,95,87.0
3606,G#5,300.906,427/1000,48,87.0
3607,E-4,301.0,6/25,104,87.0
3608,C#5,301.0,229/500,103,87.0
3609,D2,301.0,0.031,104,87.0
3610,E-2,301.0,0.031,104,87.0
3611,F#2,301.0,0.031,104,87.0
3612,C#4,301.25,6/25,104,87.0
3613,F#2,301.25,0.031,77,87.0
3614,F5,301.406,177/500,89,87.0
3615,C2,301.49,0.031,109,87.0
3616,F#2,301.49,0.031,109,87.0
3617,E-4,301.5,0.375,105,87.0
3618,B-4,301.5,6/25,96,87.0
3619,C5,301.75,6/25,100,87.0
3620,C2,301.75,0.031,90,87.0
3621,F#2,301.75,0.031,90,87.0
3622,G#5,301.906,99/250,52,87.0
3623,E-4,302.0,0.219,105,87.0
3624,F#2,302.0,0.031,115,87.0
3625,C#5,302.0,99/100,100,87.0
3626,C#4,302.25,99/500,99,87.0
3627,F#2,302.25,0.031,74,87.0
3628,F5,302.406,77/200,88,87.0
3629,E-4,302.5,73/250,97,87.0
3630,C2,302.5,0.031,103,87.0
3631,F#2,302.5,0.031,103,87.0
3632,F#2,302.75,0.031,74,87.0
3633,F5,302.885,77/200,52,87.0
3634,F4,303.0,0.375,105,87.0
3635,B-4,303.0,49/100,102,87.0
3636,D2,303.0,0.031,104,87.0
3637,E-2,303.0,0.031,104,87.0
3638,F#2,303.0,0.031,104,87.0
3639,F#2,303.25,0.031,70,87.0
3640,F5,303.406,77/200,84,87.0
3641,C#4,303.5,177/1000,98,87.0
3642,C5,303.5,417/1000,103,87.0
3643,C2,303.5,0.031,74,87.0
3644,F#2,303.5,0.031,74,87.0
3645,C2,303.74,0.031,56,87.0
3646,F#2,303.74,0.031,56,87.0
3647,C#4,303.75,0.188,105,87.0
3648,F4,303.875,1/100,84,87.0
3649,C5,303.875,1/100,84,87.0
3650,F5,303.885,77/200,49,87.0
3651,F4,303.885,3.906,84,87.0
3652,C5,303.885,3.906,84,87.0
3653,B-5,303.99,1/100,87,87.0
3654,B-5,303.99,1/100,99,87.0
3655,B-1,304.0,777/200,95,87.0
3656,E-4,304.0,0.656,97,87.0
3657,B-5,304.0,3917/1000,87,87.0
3658,B-2,304.0,3.938,105,87.0
3659,B-4,304.0,0.438,105,87.0
3660,B-5,304.0,399/100,99,87.0
3661,B-2,304.0,0.031,106,87.0
3662,C2,304.0,0.031,106,87.0
3663,C2,304.25,0.031,105,87.0
3664,F5,304.396,99/250,92,87.0
3665,C5,304.5,49/100,105,87.0
3666,C2,304.5,0.031,102,87.0
3667,F#2,304.5,0.031,102,87.0
3668,F5,304.875,99/250,48,87.0
3669,C#4,304.99,0.25,96,87.0
3670,C#5,305.0,0.469,100,87.0
3671,D2,305.0,0.031,103,87.0
3672,E-2,305.0,0.031,103,87.0
3673,F#2,305.0,0.031,103,87.0
3674,B-3,305.24,0.219,103,87.0
3675,F#2,305.25,0.031,73,87.0
3676,F5,305.396,99/250,84,87.0
3677,C#4,305.5,73/200,104,87.0
3678,B-4,305.5,6/25,102,87.0
3679,C2,305.5,0.031,74,87.0
3680,F#2,305.5,0.031,74,87.0
3681,C2,305.75,0.031,102,87.0
3682,C5,305.75,6/25,101,87.0
3683,G#5,305.906,73/250,50,87.0
3684,C#4,306.0,26/125,104,87.0
3685,F#2,306.0,0.031,110,87.0
3686,C#5,306.0,237/250,98,87.0
3687,B-3,306.25,0.188,103,87.0
3688,C2,306.25,0.031,61,87.0
3689,F#2,306.25,0.031,61,87.0
3690,F5,306.406,417/1000,89,87.0
3691,C#4,306.49,0.406,104,87.0
3692,C2,306.5,0.031,104,87.0
3693,F#2,306.5,0.031,104,87.0
3694,B-2,306.75,0.031,114,87.0
3695,G#5,306.906,151/500,53,87.0
3696,E-4,307.0,229/500,101,87.0
3697,B-4,307.0,49/100,96,87.0
3698,D2,307.0,0.031,101,87.0
3699,E-2,307.0,0.031,101,87.0
3700,F#2,307.0,0.031,101,87.0
3701,D2,307.25,0.031,101,87.0
3702,E-2,307.25,0.031,101,87.0
3703,F5,307.406,0.438,83,87.0
3704,C#4,307.5,0.156,97,87.0
3705,C5,307.5,49/100,96,87.0
3706,C2,307.5,0.031,78,87.0
3707,F#2,307.5,0.031,78,87.0
3708,C2,307.74,21/500,36,87.0
3709,C#4,307.75,177/1000,98,87.0
3710,F4,307.875,1/100,84,87.0
3711,B-4,307.875,1/100,84,87.0
3712,F4,307.885,3.844,84,87.0
3713,B-4,307.885,3.844,84,87.0
3714,G#5,307.906,323/1000,54,87.0
3715,F#1,308.0,3927/1000,95,87.0
3716,B-3,308.0,0.781,105,87.0
3717,B-5,308.0,23/200,84,87.0
3718,F#2,308.0,3.906,105,87.0
3719,C#5,308.0,49/100,97,87.0
3720,F#5,308.0,3927/1000,103,87.0
3721,B-2,308.0,0.031,106,87.0
3722,C2,308.0,0.031,106,87.0
3723,B-5,308.24,177/1000,92,87.0
3724,F5,308.406,77/200,83,87.0
3725,E-5,308.49,0.5,103,87.0
3726,F#2,308.5,0.031,114,87.0
3727,B-6,308.75,73/1000,83,87.0
3728,B-6,308.865,73/1000,83,87.0
3729,G#5,308.906,427/1000,54,87.0
3730,C#4,309.0,6/25,97,87.0
3731,B-6,309.0,0.094,82,87.0
3732,F5,309.0,77/200,99,87.0
3733,D2,309.0,0.031,102,87.0
3734,E-2,309.0,0.031,102,87.0
3735,F#2,309.0,0.031,102,87.0
3736,B-3,309.25,271/500,96,87.0
3737,B-6,309.25,73/1000,84,87.0
3738,F#2,309.25,0.031,77,87.0
3739,F5,309.406,177/500,82,87.0
3740,C#5,309.49,0.25,105,87.0
3741,C2,309.49,0.031,102,87.0
3742,F#2,309.49,0.031,102,87.0
3743,B-6,309.5,0.188,90,87.0
3744,E-5,309.74,0.25,104,87.0
3745,C2,309.75,0.031,86,87.0
3746,F#2,309.75,0.031,86,87.0
3747,G#5,309.906,99/250,47,87.0
3748,B-5,309.99,27/200,87,87.0
3749,F5,309.99,177/200,100,87.0
3750,C#4,310.0,6/25,98,87.0
3751,F#2,310.0,0.031,111,87.0
3752,B-3,310.25,271/500,105,87.0
3753,B-5,310.25,0.188,84,87.0
3754,F#2,310.25,0.031,74,87.0
3755,F5,310.406,77/200,85,87.0
3756,C2,310.5,0.031,106,87.0
3757,F#2,310.5,0.031,106,87.0
3758,B-6,310.75,73/1000,85,87.0
3759,F#2,310.75,0.031,80,87.0
3760,B-6,310.875,73/1000,87,87.0
3761,F5,310.885,77/200,50,87.0
3762,C#5,310.99,0.5,102,87.0
3763,C#4,311.0,19/25,105,87.0
3764,C#3,311.0,73/250,92,87.0
3765,B-6,311.0,0.094,84,87.0
3766,D2,311.0,0.031,104,87.0
3767,E-2,311.0,0.031,104,87.0
3768,F#2,311.0,0.031,104,87.0
3769,E-3,311.25,0.281,90,87.0
3770,B-6,311.25,0.094,92,87.0
3771,F#2,311.25,0.031,79,87.0
3772,F5,311.406,77/200,92,87.0
3773,E-5,311.49,229/500,104,87.0
3774,F3,311.5,13/50,93,87.0
3775,B-6,311.5,0.156,91,87.0
3776,C2,311.5,0.031,76,87.0
3777,F#2,311.5,0.031,76,87.0
3778,C2,311.74,0.031,54,87.0
3779,F#2,311.74,0.031,54,87.0
3780,E-3,311.75,0.25,87,87.0
3781,F5,311.885,77/200,56,87.0
3782,C#4,311.885,3.969,84,87.0
3783,F#4,311.885,3.969,84,87.0
3784,G#5,311.99,1/100,91,87.0
3785,G#2,311.99,1/100,105,87.0
3786,C#5,311.99,1/100,97,87.0
3787,G#5,311.99,1/100,105,87.0
3788,C#1,312.0,777/200,104,87.0
3789,C#4,312.0,0.812,95,87.0
3790,C#3,312.0,3521/1000,92,87.0
3791,E-3,312.0,13/250,87,87.0
3792,G#5,312.0,73/500,91,87.0
3793,G#2,312.0,987/250,105,87.0
3794,C#5,312.0,49/100,97,87.0
3795,G#5,312.0,987/250,105,87.0
3796,B-2,312.0,0.031,109,87.0
3797,C2,312.0,0.031,109,87.0
3798,G#5,312.24,99/500,85,87.0
3799,C2,312.25,0.031,100,87.0
3800,F5,312.396,99/250,82,87.0
3801,E-5,312.49,0.5,103,87.0
3802,C2,312.5,0.031,103,87.0
3803,F#2,312.5,0.031,103,87.0
3804,G#6,312.74,83/1000,82,87.0
3805,G#6,312.865,83/1000,86,87.0
3806,F5,312.875,99/250,55,87.0
3807,F5,312.99,77/200,97,87.0
3808,C#4,313.0,177/250,101,87.0
3809,G#6,313.0,23/200,87,87.0
3810,D2,313.0,0.031,103,87.0
3811,E-2,313.0,0.031,103,87.0
3812,F#2,313.0,0.031,103,87.0
3813,G#6,313.25,13/125,90,87.0
3814,F#2,313.25,0.031,80,87.0
3815,F5,313.396,99/250,86,87.0
3816,G#6,313.5,26/125,84,87.0
3817,C#5,313.5,6/25,102,87.0
3818,C2,313.5,0.031,77,87.0
3819,F#2,313.5,0.031,77,87.0
3820,C2,313.75,0.031,96,87.0
3821,E-5,313.75,6/25,105,87.0
3822,G#5,313.906,73/250,48,87.0
3823,C#4,314.0,167/1000,104,87.0
3824,G#5,314.0,0.125,85,87.0
3825,F#2,314.0,0.031,114,87.0
3826,F5,314.0,99/100,97,87.0
3827,C#4,314.25,167/1000,98,87.0
3828,G#5,314.25,99/500,90,87.0
3829,C2,314.25,0.031,61,87.0
3830,F#2,314.25,0.031,61,87.0
3831,F5,314.406,417/1000,83,87.0
3832,C#4,314.5,73/250,96,87.0
3833,C2,314.5,0.031,101,87.0
3834,F#2,314.5,0.031,101,87.0
3835,G#6,314.74,0.094,82,87.0
3836,B-2,314.75,0.031,110,87.0
3837,G#6,314.875,83/1000,83,87.0
3838,G#5,314.906,151/500,51,87.0
3839,E-4,315.0,77/200,98,87.0
3840,G#6,315.0,83/1000,87,87.0
3841,C#5,315.0,0.469,98,87.0
3842,D2,315.0,0.031,105,87.0
3843,E-2,315.0,0.031,105,87.0
3844,F#2,315.0,0.031,105,87.0
3845,G#6,315.25,13/125,85,87.0
3846,D2,315.25,0.031,95,87.0
3847,E-2,315.25,0.031,95,87.0
3848,F5,315.406,0.438,90,87.0
3849,G#6,315.49,0.188,87,87.0
3850,C#4,315.5,0.125,98,87.0
3851,F2,315.5,229/1000,89,87.0
3852,E-5,315.5,427/1000,95,87.0
3853,C2,315.5,0.031,73,87.0
3854,F#2,315.5,0.031,73,87.0
3855,F#2,315.74,13/50,92,87.0
3856,C2,315.74,21/500,41,87.0
3857,C#4,315.75,177/1000,98,87.0
3858,F4,315.875,1/100,84,87.0
3859,G#4,315.875,1/100,84,87.0
3860,F4,315.885,773/200,84,87.0
3861,G#4,315.885,773/200,84,87.0
3862,G#5,315.906,323/1000,56,87.0
3863,G#2,315.99,1/100,95,87.0
3864,F5,315.99,1/100,101,87.0
3865,G#1,316.0,3927/1000,95,87.0
3866,C4,316.0,0.688,105,87.0
3867,G#2,316.0,3.812,87,87.0
3868,F#2,316.0,21/500,92,87.0
3869,B-5,316.0,23/200,92,87.0
3870,G#2,316.0,3.969,95,87.0
3871,B-4,316.0,229/500,103,87.0
3872,F5,316.0,3979/1000,101,87.0
3873,B-2,316.0,0.031,102,87.0
3874,C2,316.0,0.031,102,87.0
3875,B-5,316.24,177/1000,89,87.0
3876,F5,316.406,77/200,86,87.0
3877,F#2,316.5,0.031,111,87.0
3878,C5,316.5,49/100,104,87.0
3879,B-6,316.75,83/1000,86,87.0
3880,B-6,316.865,83/1000,85,87.0
3881,G#5,316.906,427/1000,52,87.0
3882,C#4,317.0,6/25,103,87.0
3883,B-6,317.0,0.094,82,87.0
3884,C#5,317.0,229/500,98,87.0
3885,D2,317.0,0.031,102,87.0
3886,E-2,317.0,0.031,102,87.0
3887,F#2,317.0,0.031,102,87.0
3888,C4,317.25,521/1000,97,87.0
3889,B-6,317.25,73/1000,86,87.0
3890,F#2,317.25,0.031,72,87.0
3891,F5,317.406,177/500,89,87.0
3892,C2,317.49,0.031,100,87.0
3893,F#2,317.49,0.031,100,87.0
3894,B-6,317.5,0.188,90,87.0
3895,B-4,317.5,6/25,99,87.0
3896,C5,317.75,6/25,95,87.0
3897,C2,317.75,0.031,86,87.0
3898,F#2,317.75,0.031,86,87.0
3899,G#5,317.906,99/250,54,87.0
3900,B-5,317.99,27/200,89,87.0
3901,C#4,318.0,6/25,100,87.0
3902,F#2,318.0,0.031,110,87.0
3903,C#5,318.0,99/100,102,87.0
3904,C4,318.25,0.594,103,87.0
3905,B-5,318.25,0.188,83,87.0
3906,F#2,318.25,0.031,77,87.0
3907,F5,318.406,77/200,84,87.0
3908,C2,318.5,0.031,108,87.0
3909,F#2,318.5,0.031,108,87.0
3910,B-6,318.75,73/1000,84,87.0
3911,F#2,318.75,0.031,73,87.0
3912,B-6,318.875,73/1000,86,87.0
3913,F5,318.885,77/200,51,87.0
3914,C#4,319.0,771/1000,100,87.0
3915,B-6,319.0,0.094,88,87.0
3916,B-4,319.0,49/100,98,87.0
3917,D2,319.0,0.031,103,87.0
3918,E-2,319.0,0.031,103,87.0
3919,F#2,319.0,0.031,103,87.0
3920,B-6,319.25,13/125,83,87.0
3921,F#2,319.25,0.031,72,87.0
3922,F5,319.406,77/200,90,87.0
3923,B-6,319.5,0.156,86,87.0
3924,C5,319.5,417/1000,97,87.0
3925,C2,319.5,0.031,75,87.0
3926,F#2,319.5,0.031,75,87.0
3927,C2,319.74,0.031,60,87.0
3928,F#2,319.74,0.031,60,87.0
3929,F4,319.875,1/100,84,87.0
3930,C5,319.875,1/100,84,87.0
3931,F5,319.885,77/200,50,87.0
3932,F4,319.885,3.906,84,87.0
3933,C5,319.885,3.906,84,87.0
3934,G#5,319.99,1/100,86,87.0
3935,B-5,319.99,1/100,96,87.0
3936,B-1,320.0,777/200,101,87.0
3937,C#4,320.0,771/1000,105,87.0
3938,B-2,320.0,3573/1000,83,87.0
3939,G#5,320.0,73/500,86,87.0
3940,B-2,320.0,3.938,98,87.0
3941,B-4,320.0,0.438,104,87.0
3942,B-5,320.0,399/100,96,87.0
3943,B-2,320.0,0.031,102,87.0
3944,C2,320.0,0.031,102,87.0
3945,G#5,320.24,99/500,85,87.0
3946,C2,320.25,0.031,105,87.0
3947,F5,320.396,99/250,89,87.0
3948,C5,320.5,49/100,100,87.0
3949,C2,320.5,0.031,106,87.0
3950,F#2,320.5,0.031,106,87.0
3951,G#6,320.74,0.062,82,87.0
3952,G#6,320.865,0.062,83,87.0
3953,F5,320.875,99/250,48,87.0
3954,C#4,321.0,771/1000,99,87.0
3955,G#6,321.0,23/200,82,87.0
3956,C#5,321.0,0.469,104,87.0
3957,D2,321.0,0.031,101,87.0
3958,E-2,321.0,0.031,101,87.0
3959,F#2,321.0,0.031,101,87.0
3960,G#6,321.25,13/125,88,87.0
3961,F#2,321.25,0.031,78,87.0
3962,F5,321.396,99/250,91,87.0
3963,G#6,321.5,26/125,91,87.0
3964,B-4,321.5,6/25,98,87.0
3965,C2,321.5,0.031,76,87.0
3966,F#2,321.5,0.031,76,87.0
3967,C2,321.75,0.031,102,87.0
3968,C5,321.75,6/25,98,87.0
3969,G#5,321.906,73/250,53,87.0
3970,C#4,321.99,73/500,99,87.0
3971,G#5,322.0,0.125,89,87.0
3972,F#2,322.0,0.031,107,87.0
3973,C#5,322.0,237/250,97,87.0
3974,C#4,322.24,167/1000,97,87.0
3975,G#5,322.25,99/500,91,87.0
3976,C2,322.25,0.031,59,87.0
3977,F#2,322.25,0.031,59,87.0
3978,F5,322.406,417/1000,92,87.0
3979,C#4,322.5,0.344,96,87.0
3980,C2,322.5,0.031,104,87.0
3981,F#2,322.5,0.031,104,87.0
3982,G#6,322.74,0.094,92,87.0
3983,B-2,322.75,0.031,114,87.0
3984,G#6,322.875,83/1000,91,87.0
3985,G#5,322.906,151/500,53,87.0
3986,E-4,323.0,0.312,98,87.0
3987,G#6,323.0,83/1000,83,87.0
3988,B-4,323.0,49/100,105,87.0
3989,D2,323.0,0.031,104,87.0
3990,E-2,323.0,0.031,104,87.0
3991,F#2,323.0,0.031,104,87.0
3992,G#6,323.25,13/125,82,87.0
3993,D2,323.25,0.031,96,87.0
3994,E-2,323.25,0.031,96,87.0
3995,F5,323.406,0.438,88,87.0
3996,G#6,323.49,0.188,85,87.0
3997,C#4,323.5,27/200,95,87.0
3998,F2,323.5,0.25,86,87.0
3999,C5,323.5,49/100,104,87.0
4000,C2,323.5,0.031,76,87.0
4001,F#2,323.5,0.031,76,87.0
4002,G#2,323.74,13/50,89,87.0
4003,C2,323.74,21/500,45,87.0
4004,C#4,323.75,0.156,103,87.0
4005,F4,323.875,1/100,88,87.0
4006,B-4,323.875,1/100,88,87.0
4007,F4,323.885,3.844,88,87.0
4008,B-4,323.885,3.844,88,87.0
4009,G#5,323.906,323/1000,53,87.0
4010,B-3,323.99,1/100,105,87.0
4011,F#1,324.0,3927/1000,99,87.0
4012,B-3,324.0,771/1000,105,87.0
4013,B-5,324.0,23/200,82,87.0
4014,F#2,324.0,3.906,101,87.0
4015,C#5,324.0,49/100,103,87.0
4016,B-5,324.0,3927/1000,95,87.0
4017,B-2,324.0,0.031,108,87.0
4018,C2,324.0,0.031,108,87.0
4019,F#2,324.01,3573/1000,91,87.0
4020,B-5,324.24,177/1000,86,87.0
4021,F5,324.406,77/200,87,87.0
4022,E-5,324.49,0.5,104,87.0
4023,F#2,324.5,0.031,110,87.0
4024,B-6,324.75,0.062,91,87.0
4025,B-6,324.865,73/1000,92,87.0
4026,G#5,324.906,427/1000,57,87.0
4027,C#4,324.99,0.25,104,87.0
4028,B-6,325.0,0.094,86,87.0
4029,F5,325.0,77/200,97,87.0
4030,D2,325.0,0.031,101,87.0
4031,E-2,325.0,0.031,101,87.0
4032,F#2,325.0,0.031,101,87.0
4033,B-3,325.24,0.625,101,87.0
4034,B-6,325.25,73/1000,92,87.0
4035,F#2,325.25,0.031,77,87.0
4036,F5,325.406,177/500,89,87.0
4037,C#5,325.49,0.25,98,87.0
4038,C2,325.49,0.031,106,87.0
4039,F#2,325.49,0.031,106,87.0
4040,B-6,325.5,0.188,92,87.0
4041,E-5,325.74,0.25,97,87.0
4042,C2,325.75,0.031,86,87.0
4043,F#2,325.75,0.031,86,87.0
4044,G#5,325.906,99/250,50,87.0
4045,B-5,325.99,27/200,84,87.0
4046,F5,325.99,177/200,100,87.0
4047,C#4,326.0,6/25,102,87.0
4048,F#2,326.0,0.031,107,87.0
4049,B-3,326.25,583/1000,99,87.0
4050,B-5,326.25,0.188,92,87.0
4051,F#2,326.25,0.031,75,87.0
4052,F5,326.406,77/200,91,87.0
4053,C#3,326.5,6/25,93,87.0
4054,C2,326.5,0.031,104,87.0
4055,F#2,326.5,0.031,104,87.0
4056,E-3,326.74,0.25,92,87.0
4057,B-6,326.75,73/1000,89,87.0
4058,F#2,326.75,0.031,75,87.0
4059,B-6,326.875,73/1000,86,87.0
4060,F5,326.885,77/200,48,87.0
4061,C#4,326.99,0.781,95,87.0
4062,F3,326.99,0.25,90,87.0
4063,C#5,326.99,0.5,99,87.0
4064,B-6,327.0,0.094,85,87.0
4065,D2,327.0,0.031,103,87.0
4066,E-2,327.0,0.031,103,87.0
4067,F#2,327.0,0.031,103,87.0
4068,B-6,327.24,13/125,92,87.0
4069,E-3,327.25,6/25,87,87.0
4070,F#2,327.25,0.031,71,87.0
4071,F5,327.406,77/200,87,87.0
4072,E-5,327.49,229/500,101,87.0
4073,C#3,327.5,6/25,88,87.0
4074,B-6,327.5,0.156,88,87.0
4075,C2,327.5,0.031,74,87.0
4076,F#2,327.5,0.031,74,87.0
4077,C2,327.74,0.031,60,87.0
4078,F#2,327.74,0.031,60,87.0
4079,E-3,327.75,229/1000,92,87.0
4080,F5,327.885,77/200,57,87.0
4081,F#4,327.885,3.969,84,87.0
4082,B-4,327.885,3.969,84,87.0
4083,C#4,327.99,1/100,101,87.0
4084,G#5,327.99,1/100,92,87.0
4085,G#2,327.99,1/100,97,87.0
4086,C#5,327.99,1/100,105,87.0
4087,G#5,327.99,1/100,99,87.0
4088,C#1,328.0,777/200,96,87.0
4089,C#4,328.0,427/500,101,87.0
4090,F3,328.0,1729/500,91,87.0
4091,G#5,328.0,73/500,92,87.0
4092,G#2,328.0,987/250,97,87.0
4093,C#5,328.0,49/100,105,87.0
4094,G#5,328.0,987/250,99,87.0
4095,B-2,328.0,0.031,109,87.0
4096,C2,328.0,0.031,109,87.0
4097,G#5,328.24,99/500,84,87.0
4098,C2,328.25,0.031,95,87.0
4099,F5,328.396,99/250,82,87.0
4100,E-5,328.49,0.5,105,87.0
4101,C2,328.5,0.031,104,87.0
4102,F#2,328.5,0.031,104,87.0
4103,G#6,328.74,83/1000,85,87.0
4104,G#6,328.865,73/1000,85,87.0
4105,F5,328.875,99/250,50,87.0
4106,F5,328.99,77/200,99,87.0
4107,C4,329.0,0.719,100,87.0
4108,G#6,329.0,23/200,89,87.0
4109,D2,329.0,0.031,100,87.0
4110,E-2,329.0,0.031,100,87.0
4111,F#2,329.0,0.031,100,87.0
4112,G#6,329.25,13/125,91,87.0
4113,F#2,329.25,0.031,77,87.0
4114,F5,329.396,99/250,84,87.0
4115,G#6,329.5,26/125,86,87.0
4116,C#5,329.5,6/25,100,87.0
4117,C2,329.5,0.031,72,87.0
4118,F#2,329.5,0.031,72,87.0
4119,C2,329.75,0.031,105,87.0
4120,E-5,329.75,6/25,95,87.0
4121,G#5,329.906,73/250,53,87.0
4122,C#4,330.0,27/200,103,87.0
4123,G#5,330.0,0.125,87,87.0
4124,F#2,330.0,0.031,105,87.0
4125,F5,330.0,99/100,105,87.0
4126,C#4,330.25,27/200,99,87.0
4127,G#5,330.25,99/500,88,87.0
4128,C2,330.25,0.031,58,87.0
4129,F#2,330.25,0.031,58,87.0
4130,F5,330.406,417/1000,86,87.0
4131,C#4,330.5,77/200,99,87.0
4132,C2,330.5,0.031,100,87.0
4133,F#2,330.5,0.031,100,87.0
4134,G#6,330.74,0.094,85,87.0
4135,B-2,330.75,0.031,111,87.0
4136,G#6,330.875,83/1000,87,87.0
4137,G#5,330.906,151/500,53,87.0
4138,E-4,331.0,323/1000,98,87.0
4139,G#6,331.0,83/1000,82,87.0
4140,C#5,331.0,0.469,95,87.0
4141,D2,331.0,0.031,100,87.0
4142,E-2,331.0,0.031,100,87.0
4143,F#2,331.0,0.031,100,87.0
4144,G#6,331.25,13/125,85,87.0
4145,D2,331.25,0.031,100,87.0
4146,E-2,331.25,0.031,100,87.0
4147,F5,331.406,0.438,84,87.0
4148,G#6,331.49,0.188,83,87.0
4149,C#4,331.5,27/200,95,87.0
4150,E-3,331.5,229/1000,93,87.0
4151,E-5,331.5,427/1000,100,87.0
4152,C2,331.5,0.031,78,87.0
4153,F#2,331.5,0.031,78,87.0
4154,C#4,331.74,99/500,95,87.0
4155,C2,331.74,21/500,45,87.0
4156,F3,331.75,0.25,88,87.0
4157,F4,331.875,1/100,88,87.0
4158,G#4,331.875,1/100,88,87.0
4159,F4,331.885,773/200,88,87.0
4160,G#4,331.885,773/200,88,87.0
4161,G#5,331.906,323/1000,47,87.0
4162,G#2,331.99,1/100,96,87.0
4163,G#5,331.99,1/100,103,87.0
4164,G#1,332.0,3927/1000,101,87.0
4165,C4,332.0,0.688,98,87.0
4166,E-3,332.0,3667/1000,88,87.0
4167,F3,332.0,1/100,88,87.0
4168,B-5,332.0,23/200,87,87.0
4169,G#2,332.0,3.969,96,87.0
4170,B-4,332.0,229/500,104,87.0
4171,G#5,332.0,399/100,103,87.0
4172,B-2,332.0,0.031,108,87.0
4173,C2,332.0,0.031,108,87.0
4174,B-5,332.24,177/1000,86,87.0
4175,F5,332.406,77/200,82,87.0
4176,F#2,332.5,0.031,106,87.0
4177,C5,332.5,49/100,99,87.0
4178,B-6,332.75,73/1000,92,87.0
4179,B-6,332.865,73/1000,85,87.0
4180,G#5,332.906,427/1000,51,87.0
4181,C#4,333.0,6/25,100,87.0
4182,B-6,333.0,0.094,82,87.0
4183,C#5,333.0,229/500,105,87.0
4184,D2,333.0,0.031,102,87.0
4185,E-2,333.0,0.031,102,87.0
4186,F#2,333.0,0.031,102,87.0
4187,C4,333.25,521/1000,104,87.0
4188,B-6,333.25,73/1000,86,87.0
4189,F#2,333.25,0.031,77,87.0
4190,F5,333.406,177/500,87,87.0
4191,C2,333.49,0.031,103,87.0
4192,F#2,333.49,0.031,103,87.0
4193,B-6,333.5,0.188,83,87.0
4194,B-4,333.5,6/25,98,87.0
4195,C5,333.75,6/25,98,87.0
4196,C2,333.75,0.031,84,87.0
4197,F#2,333.75,0.031,84,87.0
4198,G#5,333.906,99/250,48,87.0
4199,B-5,333.99,27/200,85,87.0
4200,C#4,334.0,6/25,98,87.0
4201,F#2,334.0,0.031,106,87.0
4202,C#5,334.0,99/100,95,87.0
4203,C4,334.25,521/1000,100,87.0
4204,B-5,334.25,0.188,86,87.0
4205,F#2,334.25,0.031,73,87.0
4206,F5,334.406,77/200,92,87.0
4207,C2,334.5,0.031,105,87.0
4208,F#2,334.5,0.031,105,87.0
4209,B-6,334.75,73/1000,88,87.0
4210,F#2,334.75,0.031,75,87.0
4211,B-6,334.875,73/1000,86,87.0
4212,F5,334.885,77/200,50,87.0
4213,C#4,335.0,667/1000,101,87.0
4214,B-6,335.0,0.094,86,87.0
4215,B-4,335.0,49/100,100,87.0
4216,D2,335.0,0.031,105,87.0
4217,E-2,335.0,0.031,105,87.0
4218,F#2,335.0,0.031,105,87.0
4219,B-6,335.25,13/125,87,87.0
4220,F#2,335.25,0.031,76,87.0
4221,F5,335.406,77/200,91,87.0
4222,B-6,335.5,0.156,86,87.0
4223,C5,335.5,417/1000,102,87.0
4224,C2,335.5,0.031,72,87.0
4225,F#2,335.5,0.031,72,87.0
4226,F3,335.719,27/200,83,87.0
4227,C2,335.74,0.031,58,87.0
4228,F#2,335.74,0.031,58,87.0
4229,E-3,335.844,0.125,88,87.0
4230,E-4,335.875,1/100,84,87.0
4231,G#4,335.875,1/100,84,87.0
4232,F5,335.885,77/200,49,87.0
4233,E-4,335.885,3.906,84,87.0
4234,G#4,335.885,3.906,84,87.0
4235,D3,335.99,1/100,90,87.0
4236,B-0,336.0,777/200,95,87.0
4237,C4,336.0,0.719,103,87.0
4238,D3,336.0,0.75,90,87.0
4239,D5,336.0,729/1000,87,87.0
4240,B-2,336.0,3.938,102,87.0
4241,D5,336.0,677/1000,114,87.0
4242,D5,336.0,37/50,105,87.0
4243,B-2,336.0,0.031,106,87.0
4244,C2,336.0,0.031,106,87.0
4245,C2,336.25,0.031,102,87.0
4246,F5,336.396,99/250,85,87.0
4247,C2,336.5,0.031,110,87.0
4248,F#2,336.5,0.031,110,87.0
4249,E-5,336.74,0.719,83,87.0
4250,E-3,336.75,0.688,84,87.0
4251,E-5,336.75,323/500,117,87.0
4252,E-5,336.75,677/1000,98,87.0
4253,F5,336.875,99/250,51,87.0
4254,B-3,337.0,177/250,98,87.0
4255,D2,337.0,0.031,104,87.0
4256,E-2,337.0,0.031,104,87.0
4257,F#2,337.0,0.031,104,87.0
4258,F#2,337.25,0.031,73,87.0
4259,F5,337.396,99/250,84,87.0
4260,F3,337.49,2177/1000,88,87.0
4261,F5,337.49,599/250,85,87.0
4262,F5,337.49,2333/1000,97,87.0
4263,F5,337.5,349/250,98,87.0
4264,C2,337.5,0.031,72,87.0
4265,F#2,337.5,0.031,72,87.0
4266,C2,337.75,0.031,96,87.0
4267,G#5,337.906,73/250,50,87.0
4268,B-3,338.0,771/1000,98,87.0
4269,F#2,338.0,0.031,109,87.0
4270,C2,338.25,0.031,56,87.0
4271,F#2,338.25,0.031,56,87.0
4272,F5,338.406,417/1000,90,87.0
4273,C2,338.5,0.031,105,87.0
4274,F#2,338.5,0.031,105,87.0
4275,B-2,338.75,0.031,115,87.0
4276,G#5,338.906,151/500,52,87.0
4277,C4,339.0,56/125,96,87.0
4278,B-4,339.0,49/100,101,87.0
4279,D2,339.0,0.031,101,87.0
4280,E-2,339.0,0.031,101,87.0
4281,F#2,339.0,0.031,101,87.0
4282,D2,339.25,0.031,103,87.0
4283,E-2,339.25,0.031,103,87.0
4284,F5,339.406,0.438,90,87.0
4285,F4,339.49,0.375,102,87.0
4286,C5,339.5,49/100,101,87.0
4287,C2,339.5,0.031,77,87.0
4288,F#2,339.5,0.031,77,87.0
4289,C2,339.74,21/500,36,87.0
4290,F4,339.875,1/100,87,87.0
4291,B-4,339.875,1/100,87,87.0
4292,F4,339.885,3.844,87,87.0
4293,B-4,339.885,3.844,87,87.0
4294,G#5,339.906,323/1000,49,87.0
4295,F#1,340.0,3927/1000,95,87.0
4296,F4,340.0,49/100,104,87.0
4297,B-2,340.0,3.969,85,87.0
4298,B-5,340.0,23/200,87,87.0
4299,F#2,340.0,399/100,96,87.0
4300,C#5,340.0,49/100,99,87.0
4301,B-5,340.0,3927/1000,96,87.0
4302,B-2,340.0,0.031,106,87.0
4303,C2,340.0,0.031,106,87.0
4304,B-5,340.24,177/1000,92,87.0
4305,F5,340.406,77/200,91,87.0
4306,E-5,340.49,0.5,99,87.0
4307,E-4,340.5,49/100,101,87.0
4308,F#2,340.5,0.031,112,87.0
4309,B-6,340.75,0.094,90,87.0
4310,B-6,340.875,0.094,86,87.0
4311,G#5,340.906,427/1000,52,87.0
4312,F4,341.0,49/100,99,87.0
4313,B-6,341.0,0.094,91,87.0
4314,F5,341.0,77/200,97,87.0
4315,D2,341.0,0.031,107,87.0
4316,E-2,341.0,0.031,107,87.0
4317,F#2,341.0,0.031,107,87.0
4318,B-6,341.25,73/1000,84,87.0
4319,F#2,341.25,0.031,74,87.0
4320,F5,341.406,177/500,85,87.0
4321,C#5,341.49,0.25,96,87.0
4322,C2,341.49,0.031,107,87.0
4323,F#2,341.49,0.031,107,87.0
4324,E-4,341.5,271/500,95,87.0
4325,B-6,341.5,0.188,92,87.0
4326,E-5,341.74,0.25,95,87.0
4327,C2,341.75,0.031,88,87.0
4328,F#2,341.75,0.031,88,87.0
4329,G#5,341.906,99/250,48,87.0
4330,B-5,341.99,27/200,88,87.0
4331,F5,341.99,177/200,105,87.0
4332,F#2,342.0,0.031,109,87.0
4333,B-5,342.25,0.188,90,87.0
4334,F#2,342.25,0.031,75,87.0
4335,F5,342.406,77/200,84,87.0
4336,G#4,342.5,49/100,96,87.0
4337,C2,342.5,0.031,103,87.0
4338,F#2,342.5,0.031,103,87.0
4339,B-6,342.75,73/1000,84,87.0
4340,F#2,342.75,0.031,76,87.0
4341,B-6,342.875,73/1000,91,87.0
4342,F5,342.885,77/200,54,87.0
4343,C#5,342.99,0.5,104,87.0
4344,F4,343.0,23/200,100,87.0
4345,B-6,343.0,0.094,90,87.0
4346,D2,343.0,0.031,104,87.0
4347,E-2,343.0,0.031,104,87.0
4348,F#2,343.0,0.031,104,87.0
4349,F4,343.25,23/200,99,87.0
4350,B-6,343.25,13/125,88,87.0
4351,F#2,343.25,0.031,71,87.0
4352,F5,343.406,77/200,83,87.0
4353,E-5,343.49,229/500,103,87.0
4354,F4,343.5,77/200,103,87.0
4355,B-6,343.5,0.156,83,87.0
4356,C2,343.5,0.031,80,87.0
4357,F#2,343.5,0.031,80,87.0
4358,C2,343.74,0.031,58,87.0
4359,F#2,343.74,0.031,58,87.0
4360,F5,343.885,77/200,56,87.0
4361,F#4,343.885,3.969,88,87.0
4362,B-4,343.885,3.969,88,87.0
4363,G#2,343.99,1/100,85,87.0
4364,G#5,343.99,1/100,89,87.0
4365,C#5,343.99,1/100,100,87.0
4366,G#5,343.99,1/100,102,87.0
4367,C#1,344.0,777/200,96,87.0
4368,F4,344.0,49/100,95,87.0
4369,G#2,344.0,3979/1000,85,87.0
4370,G#5,344.0,73/500,89,87.0
4371,C#2,344.0,4.0,101,87.0
4372,C#5,344.0,49/100,100,87.0
4373,G#5,344.0,987/250,102,87.0
4374,B-2,344.0,0.031,110,87.0
4375,C2,344.0,0.031,110,87.0
4376,G#5,344.24,99/500,89,87.0
4377,C2,344.25,0.031,101,87.0
4378,F5,344.396,99/250,84,87.0
4379,E-5,344.49,0.5,95,87.0
4380,E-4,344.5,49/100,102,87.0
4381,C2,344.5,0.031,106,87.0
4382,F#2,344.5,0.031,106,87.0
4383,G#6,344.75,83/1000,85,87.0
4384,F5,344.875,99/250,47,87.0
4385,G#6,344.875,83/1000,87,87.0
4386,F5,344.99,77/200,103,87.0
4387,F4,345.0,49/100,99,87.0
4388,G#6,345.0,23/200,89,87.0
4389,D2,345.0,0.031,106,87.0
4390,E-2,345.0,0.031,106,87.0
4391,F#2,345.0,0.031,106,87.0
4392,G#6,345.25,13/125,84,87.0
4393,F#2,345.25,0.031,76,87.0
4394,F5,345.396,99/250,88,87.0
4395,E-4,345.5,521/1000,104,87.0
4396,G#6,345.5,26/125,87,87.0
4397,C#5,345.5,6/25,105,87.0
4398,C2,345.5,0.031,72,87.0
4399,F#2,345.5,0.031,72,87.0
4400,C2,345.75,0.031,98,87.0
4401,E-5,345.75,6/25,101,87.0
4402,G#5,345.906,73/250,55,87.0
4403,G#5,346.0,0.125,87,87.0
4404,F#2,346.0,0.031,108,87.0
4405,F5,346.0,99/100,98,87.0
4406,G#5,346.25,99/500,91,87.0
4407,C2,346.25,0.031,56,87.0
4408,F#2,346.25,0.031,56,87.0
4409,F5,346.406,417/1000,87,87.0
4410,F4,346.5,427/1000,99,87.0
4411,C2,346.5,0.031,106,87.0
4412,F#2,346.5,0.031,106,87.0
4413,G#6,346.74,0.094,85,87.0
4414,B-2,346.75,0.031,105,87.0
4415,G#6,346.875,83/1000,90,87.0
4416,G#5,346.906,151/500,52,87.0
4417,F4,347.0,0.406,104,87.0
4418,G#6,347.0,83/1000,88,87.0
4419,C#5,347.0,0.469,101,87.0
4420,D2,347.0,0.031,104,87.0
4421,E-2,347.0,0.031,104,87.0
4422,F#2,347.0,0.031,104,87.0
4423,G#6,347.25,13/125,84,87.0
4424,D2,347.25,0.031,98,87.0
4425,E-2,347.25,0.031,98,87.0
4426,F5,347.406,0.438,92,87.0
4427,G#6,347.49,0.188,82,87.0
4428,F4,347.5,0.344,105,87.0
4429,E-5,347.5,427/1000,105,87.0
4430,C2,347.5,0.031,76,87.0
4431,F#2,347.5,0.031,76,87.0
4432,C2,347.74,21/500,42,87.0
4433,F4,347.875,1/100,86,87.0
4434,G#4,347.875,1/100,86,87.0
4435,F4,347.885,773/200,86,87.0
4436,G#4,347.885,773/200,86,87.0
4437,G#5,347.906,323/1000,48,87.0
4438,G#1,347.99,1/100,99,87.0
4439,G#5,347.99,1/100,105,87.0
4440,G#1,348.0,3927/1000,100,87.0
4441,F4,348.0,979/1000,102,87.0
4442,C3,348.0,3.969,89,87.0
4443,B-5,348.0,23/200,84,87.0
4444,C#2,348.0,1/100,101,87.0
4445,G#1,348.0,4.0,99,87.0
4446,B-4,348.0,229/500,104,87.0
4447,G#5,348.0,3979/1000,105,87.0
4448,B-2,348.0,0.031,102,87.0
4449,C2,348.0,0.031,102,87.0
4450,B-5,348.24,177/1000,88,87.0
4451,F5,348.406,77/200,85,87.0
4452,F#2,348.5,0.031,105,87.0
4453,C5,348.5,49/100,100,87.0
4454,B-6,348.75,73/1000,91,87.0
4455,B-6,348.865,83/1000,88,87.0
4456,G#5,348.906,427/1000,48,87.0
4457,E-4,349.0,151/500,101,87.0
4458,B-6,349.0,0.094,82,87.0
4459,C#5,349.0,229/500,95,87.0
4460,D2,349.0,0.031,103,87.0
4461,E-2,349.0,0.031,103,87.0
4462,F#2,349.0,0.031,103,87.0
4463,B-6,349.25,73/1000,92,87.0
4464,F#2,349.25,0.031,77,87.0
4465,F5,349.406,177/500,90,87.0
4466,C2,349.49,0.031,101,87.0
4467,F#2,349.49,0.031,101,87.0
4468,E-4,349.5,373/200,99,87.0
4469,B-6,349.5,0.188,84,87.0
4470,B-4,349.5,6/25,102,87.0
4471,C5,349.75,6/25,95,87.0
4472,C2,349.75,0.031,88,87.0
4473,F#2,349.75,0.031,88,87.0
4474,G#5,349.906,99/250,55,87.0
4475,B-5,349.99,27/200,92,87.0
4476,F#2,350.0,0.031,115,87.0
4477,C#5,350.0,99/100,97,87.0
4478,B-5,350.25,0.188,85,87.0
4479,F#2,350.25,0.031,72,87.0
4480,F5,350.406,77/200,90,87.0
4481,C2,350.5,0.031,102,87.0
4482,F#2,350.5,0.031,102,87.0
4483,B-6,350.75,73/1000,88,87.0
4484,F#2,350.75,0.031,74,87.0
4485,B-6,350.875,73/1000,86,87.0
4486,F5,350.885,77/200,55,87.0
4487,B-6,351.0,0.094,88,87.0
4488,B-4,351.0,49/100,98,87.0
4489,D2,351.0,0.031,107,87.0
4490,E-2,351.0,0.031,107,87.0
4491,F#2,351.0,0.031,107,87.0
4492,B-6,351.24,13/125,85,87.0
4493,F#2,351.25,0.031,76,87.0
4494,F5,351.406,77/200,84,87.0
4495,E-4,351.5,0.312,98,87.0
4496,B-6,351.5,0.156,85,87.0
4497,C5,351.5,417/1000,97,87.0
4498,C2,351.5,0.031,74,87.0
4499,F#2,351.5,0.031,74,87.0
4500,C2,351.74,0.031,60,87.0
4501,F#2,351.74,0.031,60,87.0
4502,E-4,351.875,1/100,86,87.0
4503,G#4,351.875,1/100,86,87.0
4504,F5,351.885,77/200,49,87.0
4505,E-4,351.885,3.906,86,87.0
4506,G#4,351.885,3.906,86,87.0
4507,G#5,351.99,1/100,92,87.0
4508,B-1,351.99,1/100,95,87.0
4509,B-5,351.99,1/100,95,87.0
4510,B-1,352.0,777/200,104,87.0
4511,E-4,352.0,99/100,104,87.0
4512,B-2,352.0,1979/500,84,87.0
4513,G#5,352.0,73/500,92,87.0
4514,G#1,352.0,21/1000,99,87.0
4515,B-1,352.0,3979/1000,95,87.0
4516,B-4,352.0,0.438,103,87.0
4517,B-5,352.0,399/100,95,87.0
4518,B-2,352.0,0.031,107,87.0
4519,C2,352.0,0.031,107,87.0
4520,G#5,352.24,99/500,87,87.0
4521,C2,352.25,0.031,102,87.0
4522,F5,352.396,99/250,90,87.0
4523,C5,352.5,49/100,97,87.0
4524,C2,352.5,0.031,106,87.0
4525,F#2,352.5,0.031,106,87.0
4526,G#6,352.74,73/1000,83,87.0
4527,F5,352.875,99/250,48,87.0
4528,G#6,352.875,73/1000,92,87.0
4529,C#4,353.0,417/1000,97,87.0
4530,G#6,353.0,23/200,92,87.0
4531,C#5,353.0,0.469,104,87.0
4532,D2,353.0,0.031,100,87.0
4533,E-2,353.0,0.031,100,87.0
4534,F#2,353.0,0.031,100,87.0
4535,G#6,353.25,13/125,92,87.0
4536,F#2,353.25,0.031,73,87.0
4537,F5,353.396,99/250,90,87.0
4538,C#4,353.5,1.938,97,87.0
4539,G#6,353.5,26/125,92,87.0
4540,B-4,353.5,6/25,104,87.0
4541,C2,353.5,0.031,72,87.0
4542,F#2,353.5,0.031,72,87.0
4543,C2,353.75,0.031,105,87.0
4544,C5,353.75,6/25,98,87.0
4545,G#5,353.906,73/250,49,87.0
4546,G#5,354.0,0.125,88,87.0
4547,F#2,354.0,0.031,106,87.0
4548,C#5,354.0,237/250,97,87.0
4549,G#5,354.25,99/500,88,87.0
4550,C2,354.25,0.031,56,87.0
4551,F#2,354.25,0.031,56,87.0
4552,F5,354.406,417/1000,85,87.0
4553,C2,354.5,0.031,104,87.0
4554,F#2,354.5,0.031,104,87.0
4555,G#6,354.74,0.094,87,87.0
4556,B-2,354.75,0.031,113,87.0
4557,G#6,354.875,83/1000,84,87.0
4558,G#5,354.906,151/500,54,87.0
4559,G#6,355.0,83/1000,83,87.0
4560,B-4,355.0,49/100,100,87.0
4561,D2,355.0,0.031,102,87.0
4562,E-2,355.0,0.031,102,87.0
4563,F#2,355.0,0.031,102,87.0
4564,G#6,355.25,13/125,82,87.0
4565,D2,355.25,0.031,102,87.0
4566,E-2,355.25,0.031,102,87.0
4567,F5,355.406,0.438,84,87.0
4568,G#6,355.49,0.188,83,87.0
4569,F4,355.5,73/200,95,87.0
4570,C5,355.5,49/100,105,87.0
4571,C2,355.5,0.031,75,87.0
4572,F#2,355.5,0.031,75,87.0
4573,C2,355.74,21/500,44,87.0
4574,F4,355.875,1/100,86,87.0
4575,B-4,355.875,1/100,86,87.0
4576,F4,355.885,3.844,86,87.0
4577,B-4,355.885,3.844,86,87.0
4578,G#5,355.906,323/1000,47,87.0
4579,F#1,356.0,3927/1000,104,87.0
4580,F4,356.0,49/100,98,87.0
4581,B-2,356.0,3.969,90,87.0
4582,B-5,356.0,23/200,92,87.0
4583,F#2,356.0,399/100,105,87.0
4584,C#5,356.0,49/100,101,87.0
4585,B-5,356.0,3927/1000,100,87.0
4586,B-2,356.0,0.031,104,87.0
4587,C2,356.0,0.031,104,87.0
4588,B-5,356.24,177/1000,85,87.0
4589,F5,356.406,77/200,86,87.0
4590,E-5,356.49,0.5,100,87.0
4591,E-4,356.5,49/100,103,87.0
4592,F#2,356.5,0.031,109,87.0
4593,B-6,356.75,0.094,90,87.0
4594,B-6,356.875,0.094,87,87.0
4595,G#5,356.906,427/1000,48,87.0
4596,F4,357.0,49/100,96,87.0
4597,B-6,357.0,0.094,86,87.0
4598,F5,357.0,77/200,100,87.0
4599,D2,357.0,0.031,104,87.0
4600,E-2,357.0,0.031,104,87.0
4601,F#2,357.0,0.031,104,87.0
4602,B-6,357.25,73/1000,91,87.0
4603,F#2,357.25,0.031,80,87.0
4604,F5,357.406,177/500,86,87.0
4605,C#5,357.49,0.25,99,87.0
4606,C2,357.49,0.031,108,87.0
4607,F#2,357.49,0.031,108,87.0
4608,E-4,357.5,271/500,96,87.0
4609,B-6,357.5,0.188,89,87.0
4610,E-5,357.74,0.25,103,87.0
4611,C2,357.75,0.031,86,87.0
4612,F#2,357.75,0.031,86,87.0
4613,G#5,357.906,99/250,56,87.0
4614,B-5,357.99,27/200,84,87.0
4615,F5,357.99,177/200,102,87.0
4616,F#2,358.0,0.031,105,87.0
4617,B-5,358.25,0.188,88,87.0
4618,F#2,358.25,0.031,80,87.0
4619,F5,358.406,77/200,82,87.0
4620,G#4,358.5,49/100,95,87.0
4621,C2,358.5,0.031,104,87.0
4622,F#2,358.5,0.031,104,87.0
4623,B-6,358.75,73/1000,92,87.0
4624,F#2,358.75,0.031,80,87.0
4625,B-6,358.875,73/1000,91,87.0
4626,F5,358.885,77/200,48,87.0
4627,C#5,358.99,0.5,97,87.0
4628,F4,359.0,23/200,97,87.0
4629,B-6,359.0,0.094,83,87.0
4630,D2,359.0,0.031,102,87.0
4631,E-2,359.0,0.031,102,87.0
4632,F#2,359.0,0.031,102,87.0
4633,F4,359.25,23/200,105,87.0
4634,B-6,359.25,13/125,88,87.0
4635,F#2,359.25,0.031,75,87.0
4636,F5,359.406,77/200,82,87.0
4637,E-5,359.49,229/500,99,87.0
4638,F4,359.5,77/200,101,87.0
4639,B-6,359.5,0.156,86,87.0
4640,C2,359.5,0.031,77,87.0
4641,F#2,359.5,0.031,77,87.0
4642,C2,359.74,0.031,58,87.0
4643,F#2,359.74,0.031,58,87.0
4644,F5,359.885,77/200,51,87.0
4645,F#4,359.885,3.969,88,87.0
4646,B-4,359.885,3.969,88,87.0
4647,G#2,359.99,1/100,90,87.0
4648,G#5,359.99,1/100,91,87.0
4649,C#5,359.99,1/100,96,87.0
4650,G#5,359.99,1/100,96,87.0
4651,C#1,360.0,777/200,104,87.0
4652,F4,360.0,49/100,104,87.0
4653,G#2,360.0,3979/1000,90,87.0
4654,G#5,360.0,73/500,91,87.0
4655,C#2,360.0,4.0,104,87.0
4656,C#5,360.0,49/100,96,87.0
4657,G#5,360.0,987/250,96,87.0
4658,B-2,360.0,0.031,102,87.0
4659,C2,360.0,0.031,102,87.0
4660,G#5,360.24,99/500,91,87.0
4661,C2,360.25,0.031,95,87.0
4662,F5,360.396,99/250,87,87.0
4663,E-5,360.49,0.5,99,87.0
4664,E-4,360.5,49/100,99,87.0
4665,C2,360.5,0.031,104,87.0
4666,F#2,360.5,0.031,104,87.0
4667,G#6,360.75,83/1000,84,87.0
4668,F5,360.875,99/250,56,87.0
4669,G#6,360.875,83/1000,85,87.0
4670,F5,360.99,77/200,99,87.0
4671,F4,361.0,49/100,104,87.0
4672,G#6,361.0,23/200,89,87.0
4673,D2,361.0,0.031,103,87.0
4674,E-2,361.0,0.031,103,87.0
4675,F#2,361.0,0.031,103,87.0
4676,G#6,361.25,13/125,90,87.0
4677,F#2,361.25,0.031,79,87.0
4678,F5,361.396,99/250,91,87.0
4679,E-4,361.5,521/1000,99,87.0
4680,G#6,361.5,26/125,84,87.0
4681,C#5,361.5,6/25,97,87.0
4682,C2,361.5,0.031,76,87.0
4683,F#2,361.5,0.031,76,87.0
4684,C2,361.75,0.031,100,87.0
4685,E-5,361.75,6/25,97,87.0
4686,G#5,361.906,73/250,47,87.0
4687,G#5,362.0,0.125,86,87.0
4688,F#2,362.0,0.031,115,87.0
4689,F5,362.0,99/100,102,87.0
4690,G#5,362.25,99/500,88,87.0
4691,C2,362.25,0.031,60,87.0
4692,F#2,362.25,0.031,60,87.0
4693,F5,362.406,417/1000,91,87.0
4694,F4,362.5,427/1000,104,87.0
4695,C2,362.5,0.031,104,87.0
4696,F#2,362.5,0.031,104,87.0
4697,G#6,362.74,0.094,83,87.0
4698,B-2,362.75,0.031,110,87.0
4699,G#6,362.875,83/1000,91,87.0
4700,G#5,362.906,151/500,51,87.0
4701,F4,363.0,0.406,97,87.0
4702,G#6,363.0,83/1000,89,87.0
4703,C#5,363.0,0.469,101,87.0
4704,D2,363.0,0.031,106,87.0
4705,E-2,363.0,0.031,106,87.0
4706,F#2,363.0,0.031,106,87.0
4707,G#6,363.25,13/125,90,87.0
4708,D2,363.25,0.031,100,87.0
4709,E-2,363.25,0.031,100,87.0
4710,F5,363.406,0.438,88,87.0
4711,G#6,363.49,0.188,84,87.0
4712,F4,363.5,0.344,99,87.0
4713,E-5,363.5,427/1000,101,87.0
4714,C2,363.5,0.031,78,87.0
4715,F#2,363.5,0.031,78,87.0
4716,C2,363.74,21/500,36,87.0
4717,F4,363.875,1/100,86,87.0
4718,G#4,363.875,1/100,86,87.0
4719,F4,363.885,773/200,86,87.0
4720,G#4,363.885,773/200,86,87.0
4721,G#5,363.906,323/1000,48,87.0
4722,G#1,363.99,1/100,102,87.0
4723,G#5,363.99,1/100,96,87.0
4724,G#1,364.0,3927/1000,102,87.0
4725,F4,364.0,979/1000,102,87.0
4726,C3,364.0,3.969,93,87.0
4727,B-5,364.0,23/200,85,87.0
4728,C#2,364.0,1/100,104,87.0
4729,G#1,364.0,4.0,102,87.0
4730,B-4,364.0,229/500,99,87.0
4731,G#5,364.0,3979/1000,96,87.0
4732,B-2,364.0,0.031,104,87.0
4733,C2,364.0,0.031,104,87.0
4734,B-5,364.24,177/1000,92,87.0
4735,F5,364.406,77/200,91,87.0
4736,F#2,364.5,0.031,113,87.0
4737,C5,364.5,49/100,103,87.0
4738,B-6,364.75,73/1000,88,87.0
4739,B-6,364.865,83/1000,82,87.0
4740,G#5,364.906,427/1000,51,87.0
4741,E-4,365.0,151/500,95,87.0
4742,B-6,365.0,0.094,90,87.0
4743,C#5,365.0,229/500,103,87.0
4744,D2,365.0,0.031,104,87.0
4745,E-2,365.0,0.031,104,87.0
4746,F#2,365.0,0.031,104,87.0
4747,B-6,365.25,73/1000,89,87.0
4748,F#2,365.25,0.031,73,87.0
4749,F5,365.406,177/500,89,87.0
4750,C2,365.49,0.031,107,87.0
4751,F#2,365.49,0.031,107,87.0
4752,E-4,365.5,373/200,100,87.0
4753,B-6,365.5,0.188,83,87.0
4754,B-4,365.5,6/25,101,87.0
4755,C5,365.75,6/25,104,87.0
4756,C2,365.75,0.031,90,87.0
4757,F#2,365.75,0.031,90,87.0
4758,G#5,365.906,99/250,57,87.0
4759,B-5,365.99,27/200,84,87.0
4760,F#2,366.0,0.031,113,87.0
4761,C#5,366.0,99/100,105,87.0
4762,B-5,366.25,0.188,91,87.0
4763,F#2,366.25,0.031,71,87.0
4764,F5,366.406,77/200,92,87.0
4765,C2,366.5,0.031,108,87.0
4766,F#2,366.5,0.031,108,87.0
4767,B-6,366.75,73/1000,88,87.0
4768,F#2,366.75,0.031,80,87.0
4769,B-6,366.875,73/1000,87,87.0
4770,F5,366.885,77/200,54,87.0
4771,B-6,367.0,0.094,89,87.0
4772,B-4,367.0,49/100,99,87.0
4773,D2,367.0,0.031,102,87.0
4774,E-2,367.0,0.031,102,87.0
4775,F#2,367.0,0.031,102,87.0
4776,B-6,367.24,13/125,88,87.0
4777,F#2,367.25,0.031,77,87.0
4778,F5,367.406,77/200,82,87.0
4779,E-4,367.5,0.312,102,87.0
4780,B-6,367.5,0.156,89,87.0
4781,C5,367.5,417/1000,100,87.0
4782,C2,367.5,0.031,76,87.0
4783,F#2,367.5,0.031,76,87.0
4784,C2,367.74,0.031,54,87.0
4785,F#2,367.74,0.031,54,87.0
4786,E-4,367.875,1/100,84,87.0
4787,G#4,367.875,1/100,84,87.0
4788,F5,367.885,77/200,54,87.0
4789,E-4,367.885,3.906,84,87.0
4790,G#4,367.885,3.906,84,87.0
4791,G#5,367.99,1/100,85,87.0
4792,B-1,367.99,1/100,97,87.0
4793,B-5,367.99,1/100,104,87.0
4794,B-1,368.0,777/200,105,87.0
4795,E-4,368.0,99/100,104,87.0
4796,B-2,368.0,3.406,84,87.0
4797,G#5,368.0,73/500,85,87.0
4798,G#1,368.0,21/1000,102,87.0
4799,B-1,368.0,1.969,97,87.0
4800,B-4,368.0,0.438,101,87.0
4801,B-5,368.0,399/100,104,87.0
4802,B-2,368.0,0.031,108,87.0
4803,C2,368.0,0.031,108,87.0
4804,G#5,368.24,99/500,82,87.0
4805,C2,368.25,0.031,104,87.0
4806,F5,368.396,99/250,87,87.0
4807,C5,368.5,49/100,98,87.0
4808,C2,368.5,0.031,110,87.0
4809,F#2,368.5,0.031,110,87.0
4810,G#6,368.74,73/1000,85,87.0
4811,F5,368.875,99/250,54,87.0
4812,G#6,368.875,73/1000,88,87.0
4813,C#4,369.0,417/1000,101,87.0
4814,G#6,369.0,23/200,92,87.0
4815,C#5,369.0,0.469,105,87.0
4816,D2,369.0,0.031,101,87.0
4817,E-2,369.0,0.031,101,87.0
4818,F#2,369.0,0.031,101,87.0
4819,G#6,369.25,13/125,84,87.0
4820,F#2,369.25,0.031,80,87.0
4821,F5,369.396,99/250,91,87.0
4822,C#4,369.5,1.938,100,87.0
4823,G#6,369.5,26/125,90,87.0
4824,B-4,369.5,6/25,95,87.0
4825,C2,369.5,0.031,77,87.0
4826,F#2,369.5,0.031,77,87.0
4827,C2,369.75,0.031,96,87.0
4828,C5,369.75,6/25,97,87.0
4829,G#5,369.906,73/250,49,87.0
4830,G#5,370.0,0.125,82,87.0
4831,C2,370.0,729/1000,96,87.0
4832,F#2,370.0,0.031,111,87.0
4833,C#5,370.0,237/250,97,87.0
4834,G#5,370.25,99/500,83,87.0
4835,C2,370.25,0.031,53,87.0
4836,F#2,370.25,0.031,53,87.0
4837,F5,370.406,417/1000,91,87.0
4838,C2,370.5,0.031,102,87.0
4839,F#2,370.5,0.031,102,87.0
4840,G#6,370.74,0.094,92,87.0
4841,C#2,370.75,667/1000,97,87.0
4842,B-2,370.75,0.031,111,87.0
4843,G#6,370.875,83/1000,88,87.0
4844,G#5,370.906,151/500,50,87.0
4845,G#6,371.0,83/1000,87,87.0
4846,B-4,371.0,49/100,97,87.0
4847,D2,371.0,0.031,101,87.0
4848,E-2,371.0,0.031,101,87.0
4849,F#2,371.0,0.031,101,87.0
4850,G#6,371.25,13/125,84,87.0
4851,D2,371.25,0.031,102,87.0
4852,E-2,371.25,0.031,102,87.0
4853,F5,371.406,0.438,90,87.0
4854,G#6,371.49,0.188,92,87.0
4855,E-2,371.49,427/1000,100,87.0
4856,F4,371.5,73/200,100,87.0
4857,E-3,371.5,229/1000,83,87.0
4858,C5,371.5,49/100,101,87.0
4859,C2,371.5,0.031,72,87.0
4860,F#2,371.5,0.031,72,87.0
4861,C2,371.74,21/500,43,87.0
4862,F3,371.75,99/500,93,87.0
4863,F4,371.875,1/100,88,87.0
4864,B-4,371.875,1/100,88,87.0
4865,F4,371.885,3.844,88,87.0
4866,B-4,371.885,3.844,88,87.0
4867,G#5,371.906,323/1000,57,87.0
4868,F#1,372.0,3927/1000,100,87.0
4869,F4,372.0,49/100,103,87.0
4870,F#3,372.0,3.469,93,87.0
4871,B-5,372.0,23/200,89,87.0
4872,F#2,372.0,399/100,103,87.0
4873,C#5,372.0,49/100,98,87.0
4874,B-5,372.0,3927/1000,105,87.0
4875,B-2,372.0,0.031,106,87.0
4876,C2,372.0,0.031,106,87.0
4877,B-5,372.24,177/1000,92,87.0
4878,F5,372.406,77/200,86,87.0
4879,E-5,372.49,0.5,95,87.0
4880,E-4,372.5,49/100,101,87.0
4881,F#2,372.5,0.031,113,87.0
4882,B-6,372.75,0.094,82,87.0
4883,B-6,372.875,0.094,85,87.0
4884,G#5,372.906,427/1000,49,87.0
4885,F4,373.0,49/100,95,87.0
4886,B-6,373.0,0.094,90,87.0
4887,F5,373.0,77/200,98,87.0
4888,D2,373.0,0.031,104,87.0
4889,E-2,373.0,0.031,104,87.0
4890,F#2,373.0,0.031,104,87.0
4891,B-6,373.25,73/1000,91,87.0
4892,F#2,373.25,0.031,70,87.0
4893,F5,373.406,177/500,85,87.0
4894,C#5,373.49,0.25,102,87.0
4895,C2,373.49,0.031,104,87.0
4896,F#2,373.49,0.031,104,87.0
4897,E-4,373.5,271/500,105,87.0
4898,B-6,373.5,0.188,88,87.0
4899,E-5,373.74,0.25,104,87.0
4900,C2,373.75,0.031,83,87.0
4901,F#2,373.75,0.031,83,87.0
4902,G#5,373.906,99/250,50,87.0
4903,B-5,373.99,27/200,84,87.0
4904,F5,373.99,177/200,97,87.0
4905,F#2,374.0,0.031,115,87.0
4906,B-5,374.25,0.188,88,87.0
4907,F#2,374.25,0.031,73,87.0
4908,F5,374.406,77/200,83,87.0
4909,G#4,374.5,49/100,100,87.0
4910,C2,374.5,0.031,105,87.0
4911,F#2,374.5,0.031,105,87.0
4912,B-6,374.75,73/1000,90,87.0
4913,F#2,374.75,0.031,75,87.0
4914,B-6,374.875,73/1000,86,87.0
4915,F5,374.885,77/200,47,87.0
4916,C#5,374.99,0.5,101,87.0
4917,F4,375.0,23/200,103,87.0
4918,B-6,375.0,0.094,89,87.0
4919,D2,375.0,0.031,101,87.0
4920,E-2,375.0,0.031,101,87.0
4921,F#2,375.0,0.031,101,87.0
4922,F4,375.25,23/200,95,87.0
4923,B-6,375.25,13/125,83,87.0
4924,F#2,375.25,0.031,76,87.0
4925,F5,375.406,77/200,87,87.0
4926,C#3,375.49,13/50,93,87.0
4927,E-5,375.49,229/500,98,87.0
4928,F4,375.5,77/200,101,87.0
4929,B-6,375.5,0.156,87,87.0
4930,C2,375.5,0.031,76,87.0
4931,F#2,375.5,0.031,76,87.0
4932,E-3,375.74,0.25,90,87.0
4933,C2,375.74,0.031,61,87.0
4934,F#2,375.74,0.031,61,87.0
4935,F5,375.885,77/200,48,87.0
4936,F#4,375.885,3.969,84,87.0
4937,B-4,375.885,3.969,84,87.0
4938,C#3,375.99,1/100,84,87.0
4939,G#5,375.99,1/100,86,87.0
4940,C#5,375.99,1/100,100,87.0
4941,G#5,375.99,1/100,95,87.0
4942,C#1,376.0,777/200,101,87.0
4943,F4,376.0,49/100,98,87.0
4944,C#3,376.0,1729/500,84,87.0
4945,G#5,376.0,73/500,86,87.0
4946,C#2,376.0,4.0,105,87.0
4947,C#5,376.0,49/100,100,87.0
4948,G#5,376.0,987/250,95,87.0
4949,B-2,376.0,0.031,106,87.0
4950,C2,376.0,0.031,106,87.0
4951,G#5,376.24,99/500,84,87.0
4952,C2,376.25,0.031,100,87.0
4953,F5,376.396,99/250,90,87.0
4954,E-5,376.49,0.5,105,87.0
4955,E-4,376.5,49/100,97,87.0
4956,C2,376.5,0.031,106,87.0
4957,F#2,376.5,0.031,106,87.0
4958,G#6,376.75,83/1000,88,87.0
4959,F5,376.875,99/250,48,87.0
4960,G#6,376.875,83/1000,87,87.0
4961,F5,376.99,77/200,100,87.0
4962,F4,377.0,49/100,100,87.0
4963,G#6,377.0,23/200,91,87.0
4964,D2,377.0,0.031,103,87.0
4965,E-2,377.0,0.031,103,87.0
4966,F#2,377.0,0.031,103,87.0
4967,G#6,377.25,13/125,87,87.0
4968,F#2,377.25,0.031,75,87.0
4969,F5,377.396,99/250,90,87.0
4970,E-4,377.5,521/1000,98,87.0
4971,G#6,377.5,26/125,88,87.0
4972,C#5,377.5,6/25,103,87.0
4973,C2,377.5,0.031,73,87.0
4974,F#2,377.5,0.031,73,87.0
4975,C2,377.75,0.031,103,87.0
4976,E-5,377.75,6/25,96,87.0
4977,G#5,377.906,73/250,54,87.0
4978,G#5,378.0,0.125,85,87.0
4979,F#2,378.0,0.031,108,87.0
4980,F5,378.0,99/100,100,87.0
4981,G#5,378.25,99/500,84,87.0
4982,C2,378.25,0.031,60,87.0
4983,F#2,378.25,0.031,60,87.0
4984,F5,378.406,417/1000,82,87.0
4985,F4,378.5,427/1000,95,87.0
4986,C2,378.5,0.031,106,87.0
4987,F#2,378.5,0.031,106,87.0
4988,G#6,378.74,0.094,84,87.0
4989,B-2,378.75,0.031,113,87.0
4990,G#6,378.875,83/1000,87,87.0
4991,G#5,378.906,151/500,56,87.0
4992,F4,379.0,0.406,98,87.0
4993,G#6,379.0,83/1000,89,87.0
4994,C#5,379.0,0.469,103,87.0
4995,D2,379.0,0.031,99,87.0
4996,E-2,379.0,0.031,99,87.0
4997,F#2,379.0,0.031,99,87.0
4998,G#6,379.25,13/125,92,87.0
4999,D2,379.25,0.031,98,87.0
5000,E-2,379.25,0.031,98,87.0
5001,F5,379.406,0.438,92,87.0
5002,C4,379.49,6/25,85,87.0
5003,G#6,379.49,0.188,82,87.0
5004,F4,379.5,0.344,98,87.0
5005,E-5,379.5,427/1000,95,87.0
5006,C2,379.5,0.031,74,87.0
5007,F#2,379.5,0.031,74,87.0
5008,B-3,379.74,13/50,88,87.0
5009,C2,379.74,21/500,35,87.0
5010,F4,379.875,1/100,87,87.0
5011,G#4,379.875,1/100,87,87.0
5012,F4,379.885,773/200,87,87.0
5013,G#4,379.885,773/200,87,87.0
5014,G#5,379.906,323/1000,50,87.0
5015,G#1,379.99,1/100,105,87.0
5016,G#5,379.99,1/100,97,87.0
5017,G#2,379.99,1/100,89,87.0
5018,G#3,379.99,1/100,89,87.0
5019,G#1,380.0,3927/1000,102,87.0
5020,F4,380.0,979/1000,102,87.0
5021,B-3,380.0,1/100,88,87.0
5022,B-5,380.0,23/200,91,87.0
5023,C#2,380.0,1/100,105,87.0
5024,G#1,380.0,4.0,105,87.0
5025,B-4,380.0,229/500,95,87.0
5026,G#5,380.0,3979/1000,97,87.0
5027,G#2,380.0,3.969,89,87.0
5028,G#3,380.0,3.969,89,87.0
5029,B-2,380.0,0.031,109,87.0
5030,C2,380.0,0.031,109,87.0
5031,B-5,380.24,177/1000,82,87.0
5032,F5,380.406,77/200,91,87.0
5033,F#2,380.5,0.031,107,87.0
5034,C5,380.5,49/100,96,87.0
5035,B-6,380.75,73/1000,85,87.0
5036,B-6,380.865,83/1000,91,87.0
5037,G#5,380.906,427/1000,56,87.0
5038,E-4,381.0,151/500,99,87.0
5039,B-6,381.0,0.094,91,87.0
5040,C#5,381.0,229/500,101,87.0
5041,D2,381.0,0.031,101,87.0
5042,E-2,381.0,0.031,101,87.0
5043,F#2,381.0,0.031,101,87.0
5044,B-6,381.25,73/1000,85,87.0
5045,F#2,381.25,0.031,75,87.0
5046,F5,381.406,177/500,90,87.0
5047,C2,381.49,0.031,103,87.0
5048,F#2,381.49,0.031,103,87.0
5049,E-4,381.5,373/200,103,87.0
5050,B-6,381.5,0.188,91,87.0
5051,B-4,381.5,6/25,98,87.0
5052,C5,381.75,6/25,102,87.0
5053,C2,381.75,0.031,86,87.0
5054,F#2,381.75,0.031,86,87.0
5055,G#5,381.906,99/250,55,87.0
5056,B-5,381.99,27/200,91,87.0
5057,F#2,382.0,0.031,113,87.0
5058,C#5,382.0,99/100,104,87.0
5059,B-5,382.25,0.188,84,87.0
5060,F#2,382.25,0.031,80,87.0
5061,F5,382.406,77/200,84,87.0
5062,C2,382.5,0.031,104,87.0
5063,F#2,382.5,0.031,104,87.0
5064,B-6,382.75,73/1000,92,87.0
5065,F#2,382.75,0.031,80,87.0
5066,B-6,382.875,73/1000,82,87.0
5067,F5,382.885,77/200,51,87.0
5068,B-6,383.0,0.094,89,87.0
5069,B-4,383.0,49/100,98,87.0
5070,D2,383.0,0.031,101,87.0
5071,E-2,383.0,0.031,101,87.0
5072,F#2,383.0,0.031,101,87.0
5073,B-6,383.24,13/125,88,87.0
5074,F#2,383.25,0.031,79,87.0
5075,F5,383.406,77/200,89,87.0
5076,E-4,383.5,0.312,100,87.0
5077,B-6,383.5,0.156,90,87.0
5078,C5,383.5,417/1000,105,87.0
5079,C2,383.5,0.031,72,87.0
5080,F#2,383.5,0.031,72,87.0
5081,C2,383.74,0.031,56,87.0
5082,F#2,383.74,0.031,56,87.0
5083,E-4,383.875,1/100,90,87.0
5084,G#4,383.875,1/100,90,87.0
5085,F5,383.885,77/200,50,87.0
5086,E-4,383.885,3.906,90,87.0
5087,G#4,383.885,3.906,90,87.0
5088,B-2,383.99,1/100,87,87.0
5089,B-3,383.99,1/100,87,87.0
5090,G#5,383.99,1/100,91,87.0
5091,B-1,383.99,1/100,101,87.0
5092,B-5,383.99,1/100,100,87.0
5093,B-1,384.0,777/200,99,87.0
5094,E-4,384.0,99/100,101,87.0
5095,B-2,384.0,2.938,87,87.0
5096,B-3,384.0,487/125,87,87.0
5097,G#5,384.0,73/500,91,87.0
5098,G#1,384.0,21/1000,105,87.0
5099,B-1,384.0,3979/1000,101,87.0
5100,B-4,384.0,0.438,102,87.0
5101,B-5,384.0,399/100,100,87.0
5102,B-2,384.0,0.031,103,87.0
5103,C2,384.0,0.031,103,87.0
5104,G#5,384.24,99/500,92,87.0
5105,C2,384.25,0.031,101,87.0
5106,F5,384.396,99/250,85,87.0
5107,C5,384.5,49/100,96,87.0
5108,C2,384.5,0.031,101,87.0
5109,F#2,384.5,0.031,101,87.0
5110,G#6,384.74,73/1000,87,87.0
5111,F5,384.875,99/250,52,87.0
5112,G#6,384.875,73/1000,84,87.0
5113,C#4,385.0,417/1000,99,87.0
5114,G#6,385.0,23/200,89,87.0
5115,C#5,385.0,0.469,96,87.0
5116,D2,385.0,0.031,100,87.0
5117,E-2,385.0,0.031,100,87.0
5118,F#2,385.0,0.031,100,87.0
5119,G#6,385.25,13/125,92,87.0
5120,F#2,385.25,0.031,71,87.0
5121,F5,385.396,99/250,85,87.0
5122,C#4,385.5,1.938,98,87.0
5123,G#6,385.5,26/125,88,87.0
5124,B-4,385.5,6/25,98,87.0
5125,C2,385.5,0.031,80,87.0
5126,F#2,385.5,0.031,80,87.0
5127,C2,385.75,0.031,103,87.0
5128,C5,385.75,6/25,97,87.0
5129,G#5,385.906,73/250,52,87.0
5130,G#5,386.0,0.125,82,87.0
5131,F#2,386.0,0.031,114,87.0
5132,C#5,386.0,237/250,98,87.0
5133,G#5,386.25,99/500,90,87.0
5134,C2,386.25,0.031,56,87.0
5135,F#2,386.25,0.031,56,87.0
5136,F5,386.406,417/1000,85,87.0
5137,C2,386.5,0.031,104,87.0
5138,F#2,386.5,0.031,104,87.0
5139,G#6,386.74,0.094,88,87.0
5140,B-2,386.75,0.031,105,87.0
5141,G#6,386.875,83/1000,88,87.0
5142,G#5,386.906,151/500,56,87.0
5143,E-3,387.0,0.469,88,87.0
5144,G#6,387.0,83/1000,87,87.0
5145,B-4,387.0,49/100,105,87.0
5146,D2,387.0,0.031,104,87.0
5147,E-2,387.0,0.031,104,87.0
5148,F#2,387.0,0.031,104,87.0
5149,G#6,387.25,13/125,82,87.0
5150,D2,387.25,0.031,100,87.0
5151,E-2,387.25,0.031,100,87.0
5152,F5,387.406,0.438,88,87.0
5153,G#6,387.49,0.188,83,87.0
5154,F4,387.5,73/200,100,87.0
5155,F3,387.5,56/125,92,87.0
5156,C5,387.5,49/100,96,87.0
5157,C2,387.5,0.031,75,87.0
5158,F#2,387.5,0.031,75,87.0
5159,C2,387.74,21/500,44,87.0
5160,F4,387.875,1/100,84,87.0
5161,B-4,387.875,1/100,84,87.0
5162,F4,387.885,3.844,84,87.0
5163,B-4,387.885,3.844,84,87.0
5164,G#5,387.906,323/1000,48,87.0
5165,F#1,388.0,3927/1000,96,87.0
5166,F4,388.0,49/100,96,87.0
5167,F#3,388.0,3.469,84,87.0
5168,B-5,388.0,23/200,89,87.0
5169,F#2,388.0,399/100,101,87.0
5170,C#5,388.0,49/100,104,87.0
5171,B-5,388.0,3927/1000,102,87.0
5172,B-2,388.0,0.031,101,87.0
5173,C2,388.0,0.031,101,87.0
5174,B-5,388.24,177/1000,86,87.0
5175,F5,388.406,77/200,86,87.0
5176,E-5,388.49,0.5,101,87.0
5177,E-4,388.5,49/100,95,87.0
5178,F#2,388.5,0.031,113,87.0
5179,B-6,388.75,0.094,90,87.0
5180,B-6,388.875,0.094,92,87.0
5181,G#5,388.906,427/1000,48,87.0
5182,F4,389.0,49/100,97,87.0
5183,B-6,389.0,0.094,92,87.0
5184,F5,389.0,77/200,97,87.0
5185,D2,389.0,0.031,106,87.0
5186,E-2,389.0,0.031,106,87.0
5187,F#2,389.0,0.031,106,87.0
5188,B-6,389.25,73/1000,92,87.0
5189,F#2,389.25,0.031,79,87.0
5190,F5,389.406,177/500,92,87.0
5191,C#5,389.49,0.25,95,87.0
5192,C2,389.49,0.031,108,87.0
5193,F#2,389.49,0.031,108,87.0
5194,E-4,389.5,271/500,100,87.0
5195,B-6,389.5,0.188,91,87.0
5196,E-5,389.74,0.25,103,87.0
5197,C2,389.75,0.031,88,87.0
5198,F#2,389.75,0.031,88,87.0
5199,G#5,389.906,99/250,54,87.0
5200,B-5,389.99,27/200,84,87.0
5201,F5,389.99,177/200,102,87.0
5202,F#2,390.0,0.031,109,87.0
5203,B-5,390.25,0.188,88,87.0
5204,F#2,390.25,0.031,74,87.0
5205,F5,390.406,77/200,92,87.0
5206,G#4,390.5,49/100,101,87.0
5207,C2,390.5,0.031,108,87.0
5208,F#2,390.5,0.031,108,87.0
5209,B-6,390.75,73/1000,85,87.0
5210,F#2,390.75,0.031,74,87.0
5211,B-6,390.875,73/1000,88,87.0
5212,F5,390.885,77/200,48,87.0
5213,C#5,390.99,0.5,100,87.0
5214,F4,391.0,23/200,104,87.0
5215,B-6,391.0,0.094,88,87.0
5216,D2,391.0,0.031,101,87.0
5217,E-2,391.0,0.031,101,87.0
5218,F#2,391.0,0.031,101,87.0
5219,F4,391.25,23/200,95,87.0
5220,B-6,391.25,13/125,83,87.0
5221,F#2,391.25,0.031,80,87.0
5222,F5,391.406,77/200,86,87.0
5223,C#3,391.49,13/50,86,87.0
5224,E-5,391.49,229/500,103,87.0
5225,F4,391.5,77/200,102,87.0
5226,B-6,391.5,0.156,83,87.0
5227,C2,391.5,0.031,79,87.0
5228,F#2,391.5,0.031,79,87.0
5229,E-3,391.74,0.25,92,87.0
5230,C2,391.74,0.031,58,87.0
5231,F#2,391.74,0.031,58,87.0
5232,F5,391.885,77/200,57,87.0
5233,F#4,391.885,3.969,86,87.0
5234,B-4,391.885,3.969,86,87.0
5235,C#3,391.99,1/100,85,87.0
5236,G#5,391.99,1/100,82,87.0
5237,C#5,391.99,1/100,102,87.0
5238,G#5,391.99,1/100,96,87.0
5239,C#1,392.0,777/200,101,87.0
5240,F4,392.0,49/100,101,87.0
5241,C#3,392.0,1729/500,85,87.0
5242,G#5,392.0,73/500,82,87.0
5243,C#2,392.0,4.0,95,87.0
5244,C#5,392.0,49/100,102,87.0
5245,G#5,392.0,987/250,96,87.0
5246,B-2,392.0,0.031,108,87.0
5247,C2,392.0,0.031,108,87.0
5248,G#5,392.24,99/500,86,87.0
5249,C2,392.25,0.031,96,87.0
5250,F5,392.396,99/250,91,87.0
5251,E-5,392.49,0.5,105,87.0
5252,E-4,392.5,49/100,95,87.0
5253,C2,392.5,0.031,105,87.0
5254,F#2,392.5,0.031,105,87.0
5255,G#6,392.75,83/1000,88,87.0
5256,F5,392.875,99/250,52,87.0
5257,G#6,392.875,83/1000,92,87.0
5258,F5,392.99,77/200,100,87.0
5259,F4,393.0,49/100,97,87.0
5260,G#6,393.0,23/200,92,87.0
5261,D2,393.0,0.031,108,87.0
5262,E-2,393.0,0.031,108,87.0
5263,F#2,393.0,0.031,108,87.0
5264,G#6,393.25,13/125,85,87.0
5265,F#2,393.25,0.031,77,87.0
5266,F5,393.396,99/250,91,87.0
5267,E-4,393.5,521/1000,100,87.0
5268,G#6,393.5,26/125,83,87.0
5269,C#5,393.5,6/25,100,87.0
5270,C2,393.5,0.031,75,87.0
5271,F#2,393.5,0.031,75,87.0
5272,C2,393.75,0.031,98,87.0
5273,E-5,393.75,6/25,100,87.0
5274,G#5,393.906,73/250,56,87.0
5275,G#5,394.0,0.125,92,87.0
5276,F#2,394.0,0.031,111,87.0
5277,F5,394.0,99/100,97,87.0
5278,G#5,394.25,99/500,88,87.0
5279,C2,394.25,0.031,54,87.0
5280,F#2,394.25,0.031,54,87.0
5281,F5,394.406,417/1000,83,87.0
5282,F4,394.5,427/1000,98,87.0
5283,C2,394.5,0.031,103,87.0
5284,F#2,394.5,0.031,103,87.0
5285,G#6,394.74,0.094,84,87.0
5286,B-2,394.75,0.031,111,87.0
5287,G#6,394.875,83/1000,83,87.0
5288,G#5,394.906,151/500,49,87.0
5289,F4,395.0,0.406,102,87.0
5290,G#6,395.0,83/1000,85,87.0
5291,C#5,395.0,0.469,96,87.0
5292,D2,395.0,0.031,106,87.0
5293,E-2,395.0,0.031,106,87.0
5294,F#2,395.0,0.031,106,87.0
5295,G#6,395.25,13/125,84,87.0
5296,D2,395.25,0.031,102,87.0
5297,E-2,395.25,0.031,102,87.0
5298,F5,395.406,0.438,87,87.0
5299,C4,395.49,6/25,85,87.0
5300,G#6,395.49,0.188,91,87.0
5301,F4,395.5,0.344,95,87.0
5302,E-5,395.5,427/1000,104,87.0
5303,C2,395.5,0.031,70,87.0
5304,F#2,395.5,0.031,70,87.0
5305,B-3,395.74,13/50,89,87.0
5306,C2,395.74,21/500,35,87.0
5307,F4,395.875,1/100,82,87.0
5308,G#4,395.875,1/100,82,87.0
5309,F4,395.885,773/200,82,87.0
5310,G#4,395.885,773/200,82,87.0
5311,G#5,395.906,323/1000,52,87.0
5312,G#1,395.99,1/100,100,87.0
5313,G#5,395.99,1/100,97,87.0
5314,G#2,395.99,1/100,86,87.0
5315,G#3,395.99,1/100,86,87.0
5316,G#1,396.0,3927/1000,101,87.0
5317,F4,396.0,979/1000,97,87.0
5318,B-3,396.0,1/100,89,87.0
5319,B-5,396.0,23/200,83,87.0
5320,C#2,396.0,1/100,95,87.0
5321,G#1,396.0,1979/500,100,87.0
5322,B-4,396.0,229/500,100,87.0
5323,G#5,396.0,3979/1000,97,87.0
5324,G#2,396.0,3.969,86,87.0
5325,G#3,396.0,3.969,86,87.0
5326,B-2,396.0,0.031,106,87.0
5327,C2,396.0,0.031,106,87.0
5328,B-5,396.24,177/1000,84,87.0
5329,F5,396.406,77/200,88,87.0
5330,F#2,396.5,0.031,113,87.0
5331,C5,396.5,49/100,99,87.0
5332,B-6,396.75,73/1000,91,87.0
5333,B-6,396.865,83/1000,82,87.0
5334,G#5,396.906,427/1000,56,87.0
5335,E-4,397.0,151/500,103,87.0
5336,B-6,397.0,0.094,88,87.0
5337,C#5,397.0,229/500,103,87.0
5338,D2,397.0,0.031,103,87.0
5339,E-2,397.0,0.031,103,87.0
5340,F#2,397.0,0.031,103,87.0
5341,B-6,397.25,73/1000,88,87.0
5342,F#2,397.25,0.031,73,87.0
5343,F5,397.406,177/500,92,87.0
5344,C2,397.49,0.031,102,87.0
5345,F#2,397.49,0.031,102,87.0
5346,E-4,397.5,373/200,102,87.0
5347,B-6,397.5,0.188,88,87.0
5348,B-4,397.5,6/25,103,87.0
5349,C5,397.75,6/25,100,87.0
5350,C2,397.75,0.031,84,87.0
5351,F#2,397.75,0.031,84,87.0
5352,G#5,397.906,99/250,49,87.0
5353,B-5,397.99,27/200,90,87.0
5354,F#2,398.0,0.031,115,87.0
5355,C#5,398.0,99/100,99,87.0
5356,B-5,398.25,0.188,85,87.0
5357,F#2,398.25,0.031,79,87.0
5358,F5,398.406,77/200,85,87.0
5359,C2,398.5,0.031,108,87.0
5360,F#2,398.5,0.031,108,87.0
5361,B-6,398.75,73/1000,86,87.0
5362,F#2,398.75,0.031,77,87.0
5363,B-6,398.875,73/1000,85,87.0
5364,F5,398.885,77/200,52,87.0
5365,B-6,399.0,0.094,82,87.0
5366,B-4,399.0,49/100,101,87.0
5367,D2,399.0,0.031,105,87.0
5368,E-2,399.0,0.031,105,87.0
5369,F#2,399.0,0.031,105,87.0
5370,B-6,399.24,13/125,87,87.0
5371,F#2,399.25,0.031,76,87.0
5372,F5,399.406,77/200,84,87.0
5373,E-4,399.5,0.312,104,87.0
5374,B-6,399.5,0.156,90,87.0
5375,C5,399.5,417/1000,102,87.0
5376,C2,399.5,0.031,74,87.0
5377,F#2,399.5,0.031,74,87.0
5378,C2,399.74,0.031,60,87.0
5379,F#2,399.74,0.031,60,87.0
5380,E-4,399.875,1/100,90,87.0
5381,G#4,399.875,1/100,90,87.0
5382,F5,399.885,77/200,51,87.0
5383,E-4,399.885,3.906,90,87.0
5384,G#4,399.885,3.906,90,87.0
5385,G#5,399.99,1/100,87,87.0
5386,E-4,400.0,99/100,98,87.0
5387,G#5,400.0,0.844,87,87.0
5388,B-4,400.0,173/200,102,87.0
5389,G#3,400.0,99/125,86,87.0
5390,G#2,400.0,99/125,86,87.0
5391,B-2,400.0,0.031,104,87.0
5392,C2,400.0,0.031,104,87.0
5393,G#1,400.01,0.812,100,87.0
5394,G#1,400.021,0.781,104,87.0
5395,G#5,400.031,771/1000,95,87.0
5396,C2,400.25,0.031,98,87.0
5397,F5,400.396,99/250,87,87.0
5398,C2,400.5,0.031,102,87.0
5399,F#2,400.5,0.031,102,87.0
5400,F5,400.875,99/250,48,87.0
5401,B-1,401.0,151/500,104,87.0
5402,C#4,401.0,417/1000,101,87.0
5403,C#5,401.0,0.469,104,87.0
5404,B-3,401.0,151/500,84,87.0
5405,B-2,401.0,151/500,84,87.0
5406,C2,401.0,0.031,92,87.0
5407,D2,401.0,0.031,92,87.0
5408,E-2,401.0,0.031,92,87.0
5409,F#2,401.0,0.031,92,87.0
5410,B-5,401.01,99/500,83,87.0
5411,B-1,401.01,0.188,105,87.0
5412,B-5,401.01,271/1000,95,87.0
5413,F#2,401.25,0.031,73,87.0
5414,F5,401.396,99/250,85,87.0
5415,D2,401.479,0.031,107,87.0
5416,C2,401.479,0.031,107,87.0
5417,E-2,401.479,0.031,107,87.0
5418,B-2,401.479,0.031,107,87.0
5419,B-1,401.5,2.5,104,87.0
5420,C#4,401.5,2.5,100,87.0
5421,B-4,401.5,2.5,99,87.0
5422,B-5,401.51,249/100,83,87.0
5423,B-1,401.51,249/100,105,87.0
5424,B-5,401.51,249/100,95,87.0
5425,B-3,401.521,2479/1000,84,87.0
5426,B-2,401.521,2479/1000,84,87.0
5427,G#5,401.906,73/250,53,87.0
5428,F5,402.406,417/1000,86,87.0
5429,G#5,402.906,151/500,56,87.0
5430,C#5,403.406,0.438,87,87.0
5431,E-4,403.896,0.75,90,87.0
5432,G#4,403.896,0.75,90,87.0
5433,C#5,403.906,2.5,55,87.0
5434,B-1,404.0,1901/500,104,87.0
5435,C#4,404.0,3823/1000,100,87.0
5436,B-5,404.0,3.594,83,87.0
5437,B-1,404.0,3.406,105,87.0
5438,B-4,404.0,3.906,99,87.0
5439,B-5,404.0,306/125,95,87.0
5440,B-3,404.0,3.594,84,87.0
5441,B-2,404.0,3.594,84,87.0
5442,B-4,404.875,0.312,90,87.0
5443,F4,404.875,0.312,90,87.0
5444,B-4,405.417,2.469,90,87.0
5445,F4,405.417,2.469,90,87.0
5446,C#5,406.406,1849/500,55,87.0
5447,B-4,407.885,351/100,90,87.0
5448,F4,407.885,351/100,90,87.0
