,note_name,start_time,duration,velocity,tempo
0,B-2,0.0,0.125,127,160.0
1,B1,0.0,0.125,127,160.0
2,G2,0.0,0.125,127,160.0
3,C2,0.0,0.125,127,160.0
4,E-2,1.0,0.125,127,160.0
5,E2,1.0,0.125,127,160.0
6,F#2,1.0,0.125,127,160.0
7,B1,1.5,0.125,127,160.0
8,G2,1.5,0.125,127,160.0
9,C2,1.5,0.125,127,160.0
10,G1,2.5,0.125,127,160.0
11,E-2,3.0,0.125,127,160.0
12,E2,3.0,0.125,127,160.0
13,B1,3.5,0.125,127,160.0
14,G2,3.5,0.125,127,160.0
15,C2,3.5,0.125,127,160.0
16,B1,4.0,0.125,127,160.0
17,G2,4.0,0.125,127,160.0
18,C2,4.0,0.125,127,160.0
19,E2,5.0,0.125,127,160.0
20,E-2,5.0,0.125,127,160.0
21,G1,6.0,0.125,127,160.0
22,B1,6.5,0.125,127,160.0
23,G2,6.5,0.125,127,160.0
24,C2,6.5,0.125,127,160.0
25,E2,7.0,0.125,127,160.0
26,E-2,7.0,0.125,127,160.0
27,G1,7.5,0.125,127,160.0
28,B-2,8.0,0.125,127,160.0
29,B1,8.0,0.125,127,160.0
30,G2,8.0,0.125,127,160.0
31,C2,8.0,0.125,127,160.0
32,E-2,9.0,0.125,127,160.0
33,E2,9.0,0.125,127,160.0
34,F#2,9.0,0.125,127,160.0
35,B1,9.5,0.125,127,160.0
36,G2,9.5,0.125,127,160.0
37,C2,9.5,0.125,127,160.0
38,G1,10.5,0.125,127,160.0
39,E-2,11.0,0.125,127,160.0
40,E2,11.0,0.125,127,160.0
41,B1,11.5,0.125,127,160.0
42,G2,11.5,0.125,127,160.0
43,C2,11.5,0.125,127,160.0
44,B1,12.0,0.125,127,160.0
45,G2,12.0,0.125,127,160.0
46,C2,12.0,0.125,127,160.0
47,E2,13.0,0.125,127,160.0
48,E-2,13.0,0.125,127,160.0
49,G1,14.0,0.125,127,160.0
50,D6,14.0,0.5,127,160.0
51,B5,14.5,0.5,127,160.0
52,B1,14.5,0.125,127,160.0
53,G2,14.5,0.125,127,160.0
54,C2,14.5,0.125,127,160.0
55,A5,15.0,0.5,127,160.0
56,E2,15.0,0.125,127,160.0
57,E-2,15.0,0.125,127,160.0
58,G1,15.5,0.125,127,160.0
59,G5,15.5,0.5,127,160.0
60,B5,16.0,1.0,127,160.0
61,B-2,16.0,0.125,127,160.0
62,B1,16.0,0.125,127,160.0
63,G2,16.0,0.125,127,160.0
64,C2,16.0,0.125,127,160.0
65,A2,16.5,0.25,127,160.0
66,A2,17.0,0.25,127,160.0
67,E-2,17.0,0.125,127,160.0
68,E2,17.0,0.125,127,160.0
69,F#2,17.0,0.125,127,160.0
70,B1,17.5,0.125,127,160.0
71,G2,17.5,0.125,127,160.0
72,C2,17.5,0.125,127,160.0
73,A2,18.0,0.25,127,160.0
74,G1,18.5,0.125,127,160.0
75,A2,19.0,0.25,76,160.0
76,E-2,19.0,0.125,127,160.0
77,E2,19.0,0.125,127,160.0
78,A2,19.5,0.25,127,160.0
79,B1,19.5,0.125,127,160.0
80,G2,19.5,0.125,127,160.0
81,C2,19.5,0.125,127,160.0
82,A2,20.0,0.25,127,160.0
83,B1,20.0,0.125,127,160.0
84,G2,20.0,0.125,127,160.0
85,C2,20.0,0.125,127,160.0
86,A2,21.0,0.25,127,160.0
87,E2,21.0,0.125,127,160.0
88,E-2,21.0,0.125,127,160.0
89,D5,21.5,0.5,127,160.0
90,A2,22.0,0.25,76,160.0
91,G1,22.0,0.125,127,160.0
92,D6,22.0,0.5,127,160.0
93,A2,22.5,0.25,127,160.0
94,B5,22.5,0.5,127,160.0
95,B1,22.5,0.125,127,160.0
96,G2,22.5,0.125,127,160.0
97,C2,22.5,0.125,127,160.0
98,A2,23.0,0.25,127,160.0
99,A5,23.0,0.5,127,160.0
100,E2,23.0,0.125,127,160.0
101,E-2,23.0,0.125,127,160.0
102,C3,23.5,0.25,127,160.0
103,G1,23.5,0.125,127,160.0
104,G5,23.5,0.5,127,160.0
105,B5,24.0,1.0,127,160.0
106,B-2,24.0,0.125,127,160.0
107,B1,24.0,0.125,127,160.0
108,G2,24.0,0.125,127,160.0
109,C2,24.0,0.125,127,160.0
110,C3,24.5,0.25,127,160.0
111,C3,25.0,0.25,127,160.0
112,E-2,25.0,0.125,127,160.0
113,E2,25.0,0.125,127,160.0
114,F#2,25.0,0.125,127,160.0
115,B1,25.5,0.125,127,160.0
116,G2,25.5,0.125,127,160.0
117,C2,25.5,0.125,127,160.0
118,C3,26.0,0.25,127,160.0
119,G1,26.5,0.125,127,160.0
120,C3,27.0,0.25,76,160.0
121,E-2,27.0,0.125,127,160.0
122,E2,27.0,0.125,127,160.0
123,C3,27.5,0.25,127,160.0
124,B1,27.5,0.125,127,160.0
125,G2,27.5,0.125,127,160.0
126,C2,27.5,0.125,127,160.0
127,C3,28.0,0.25,127,160.0
128,B1,28.0,0.125,127,160.0
129,G2,28.0,0.125,127,160.0
130,C2,28.0,0.125,127,160.0
131,C3,29.0,0.25,127,160.0
132,E2,29.0,0.125,127,160.0
133,E-2,29.0,0.125,127,160.0
134,C3,30.0,0.25,76,160.0
135,G1,30.0,0.125,127,160.0
136,D6,30.0,0.5,127,160.0
137,C3,30.5,0.25,127,160.0
138,B5,30.5,0.5,127,160.0
139,B1,30.5,0.125,127,160.0
140,G2,30.5,0.125,127,160.0
141,C2,30.5,0.125,127,160.0
142,C3,31.0,0.25,127,160.0
143,A5,31.0,0.5,127,160.0
144,E2,31.0,0.125,127,160.0
145,E-2,31.0,0.125,127,160.0
146,F#2,31.5,0.25,127,160.0
147,G1,31.5,0.125,127,160.0
148,G5,31.5,0.5,127,160.0
149,B5,32.0,0.5,127,160.0
150,B-2,32.0,0.125,127,160.0
151,B1,32.0,0.125,127,160.0
152,G2,32.0,0.125,127,160.0
153,C2,32.0,0.125,127,160.0
154,G2,32.5,0.25,127,160.0
155,A5,32.5,0.5,127,160.0
156,G2,33.0,0.25,127,160.0
157,G5,33.0,1.0,127,160.0
158,E-2,33.0,0.125,127,160.0
159,E2,33.0,0.125,127,160.0
160,F#2,33.0,0.125,127,160.0
161,B1,33.5,0.125,127,160.0
162,G2,33.5,0.125,127,160.0
163,C2,33.5,0.125,127,160.0
164,G2,34.0,0.25,127,160.0
165,G1,34.5,0.125,127,160.0
166,E5,35.0,1.0,127,160.0
167,E-2,35.0,0.125,127,160.0
168,E2,35.0,0.125,127,160.0
169,B1,35.5,0.125,127,160.0
170,G2,35.5,0.125,127,160.0
171,C2,35.5,0.125,127,160.0
172,D5,36.0,1.0,127,160.0
173,B1,36.0,0.125,127,160.0
174,G2,36.0,0.125,127,160.0
175,C2,36.0,0.125,127,160.0
176,E2,37.0,0.125,127,160.0
177,E-2,37.0,0.125,127,160.0
178,G1,38.0,0.125,127,160.0
179,D6,38.0,0.5,127,160.0
180,B5,38.5,0.5,127,160.0
181,B1,38.5,0.125,127,160.0
182,G2,38.5,0.125,127,160.0
183,C2,38.5,0.125,127,160.0
184,A5,39.0,0.5,127,160.0
185,E2,39.0,0.125,127,160.0
186,E-2,39.0,0.125,127,160.0
187,F#2,39.5,0.25,127,160.0
188,G1,39.5,0.125,127,160.0
189,G5,39.5,0.5,127,160.0
190,B5,40.0,0.5,127,160.0
191,B-2,40.0,0.125,127,160.0
192,B1,40.0,0.125,127,160.0
193,G2,40.0,0.125,127,160.0
194,C2,40.0,0.125,127,160.0
195,G2,40.5,0.25,127,160.0
196,A5,40.5,0.5,127,160.0
197,G2,41.0,0.25,127,160.0
198,G5,41.0,1.0,127,160.0
199,E-2,41.0,0.125,127,160.0
200,E2,41.0,0.125,127,160.0
201,F#2,41.0,0.125,127,160.0
202,B1,41.5,0.125,127,160.0
203,G2,41.5,0.125,127,160.0
204,C2,41.5,0.125,127,160.0
205,G2,42.0,0.25,127,160.0
206,G1,42.5,0.125,127,160.0
207,E5,43.0,1.0,127,160.0
208,E-2,43.0,0.125,127,160.0
209,E2,43.0,0.125,127,160.0
210,B1,43.5,0.125,127,160.0
211,G2,43.5,0.125,127,160.0
212,C2,43.5,0.125,127,160.0
213,D5,44.0,1.0,127,160.0
214,B1,44.0,0.125,127,160.0
215,G2,44.0,0.125,127,160.0
216,C2,44.0,0.125,127,160.0
217,B4,45.0,0.5,127,160.0
218,E2,45.0,0.125,127,160.0
219,E-2,45.0,0.125,127,160.0
220,D5,45.5,0.5,127,160.0
221,G1,46.0,0.125,127,160.0
222,D6,46.0,0.5,127,160.0
223,B5,46.5,0.5,127,160.0
224,B1,46.5,0.125,127,160.0
225,G2,46.5,0.125,127,160.0
226,C2,46.5,0.125,127,160.0
227,G2,47.0,0.25,127,160.0
228,A5,47.0,0.5,127,160.0
229,E2,47.0,0.125,127,160.0
230,E-2,47.0,0.125,127,160.0
231,G1,47.5,0.125,127,160.0
232,G5,47.5,0.5,127,160.0
233,B5,48.0,1.0,127,160.0
234,B-2,48.0,0.125,127,160.0
235,B1,48.0,0.125,127,160.0
236,G2,48.0,0.125,127,160.0
237,C2,48.0,0.125,127,160.0
238,A2,48.5,0.25,127,160.0
239,A2,49.0,0.25,127,160.0
240,E-2,49.0,0.125,127,160.0
241,E2,49.0,0.125,127,160.0
242,F#2,49.0,0.125,127,160.0
243,B1,49.5,0.125,127,160.0
244,G2,49.5,0.125,127,160.0
245,C2,49.5,0.125,127,160.0
246,A2,50.0,0.25,127,160.0
247,G1,50.5,0.125,127,160.0
248,A2,51.0,0.25,76,160.0
249,E-2,51.0,0.125,127,160.0
250,E2,51.0,0.125,127,160.0
251,A2,51.5,0.25,127,160.0
252,B1,51.5,0.125,127,160.0
253,G2,51.5,0.125,127,160.0
254,C2,51.5,0.125,127,160.0
255,A2,52.0,0.25,127,160.0
256,B1,52.0,0.125,127,160.0
257,G2,52.0,0.125,127,160.0
258,C2,52.0,0.125,127,160.0
259,A2,53.0,0.25,127,160.0
260,E2,53.0,0.125,127,160.0
261,E-2,53.0,0.125,127,160.0
262,D5,53.5,0.5,127,160.0
263,A2,54.0,0.25,76,160.0
264,G1,54.0,0.125,127,160.0
265,D6,54.0,0.5,127,160.0
266,A2,54.5,0.25,127,160.0
267,B5,54.5,0.5,127,160.0
268,B1,54.5,0.125,127,160.0
269,G2,54.5,0.125,127,160.0
270,C2,54.5,0.125,127,160.0
271,A2,55.0,0.25,127,160.0
272,A5,55.0,0.5,127,160.0
273,E2,55.0,0.125,127,160.0
274,E-2,55.0,0.125,127,160.0
275,C3,55.5,0.25,127,160.0
276,G1,55.5,0.125,127,160.0
277,G5,55.5,0.5,127,160.0
278,B5,56.0,1.0,127,160.0
279,B-2,56.0,0.125,127,160.0
280,B1,56.0,0.125,127,160.0
281,G2,56.0,0.125,127,160.0
282,C2,56.0,0.125,127,160.0
283,C3,56.5,0.25,127,160.0
284,C3,57.0,0.25,127,160.0
285,E-2,57.0,0.125,127,160.0
286,E2,57.0,0.125,127,160.0
287,F#2,57.0,0.125,127,160.0
288,B1,57.5,0.125,127,160.0
289,G2,57.5,0.125,127,160.0
290,C2,57.5,0.125,127,160.0
291,C3,58.0,0.25,127,160.0
292,G1,58.5,0.125,127,160.0
293,C3,59.0,0.25,76,160.0
294,E-2,59.0,0.125,127,160.0
295,E2,59.0,0.125,127,160.0
296,C3,59.5,0.25,127,160.0
297,B1,59.5,0.125,127,160.0
298,G2,59.5,0.125,127,160.0
299,C2,59.5,0.125,127,160.0
300,C3,60.0,0.25,127,160.0
301,B1,60.0,0.125,127,160.0
302,G2,60.0,0.125,127,160.0
303,C2,60.0,0.125,127,160.0
304,D5,60.5,0.5,127,160.0
305,C3,61.0,0.25,127,160.0
306,D5,61.0,1.0,127,160.0
307,E2,61.0,0.125,127,160.0
308,E-2,61.0,0.125,127,160.0
309,C3,62.0,0.25,76,160.0
310,G1,62.0,0.125,127,160.0
311,D6,62.0,0.5,127,160.0
312,C3,62.5,0.25,127,160.0
313,B5,62.5,0.5,127,160.0
314,B1,62.5,0.125,127,160.0
315,G2,62.5,0.125,127,160.0
316,C2,62.5,0.125,127,160.0
317,C3,63.0,0.25,127,160.0
318,A5,63.0,0.5,127,160.0
319,E2,63.0,0.125,127,160.0
320,E-2,63.0,0.125,127,160.0
321,F#2,63.5,0.25,127,160.0
322,G1,63.5,0.125,127,160.0
323,G5,63.5,0.5,127,160.0
324,B5,64.0,0.5,127,160.0
325,B-2,64.0,0.125,127,160.0
326,B1,64.0,0.125,127,160.0
327,G2,64.0,0.125,127,160.0
328,C2,64.0,0.125,127,160.0
329,G2,64.5,0.25,127,160.0
330,A5,64.5,0.5,127,160.0
331,G2,65.0,0.25,127,160.0
332,G5,65.0,1.0,127,160.0
333,E-2,65.0,0.125,127,160.0
334,E2,65.0,0.125,127,160.0
335,F#2,65.0,0.125,127,160.0
336,B1,65.5,0.125,127,160.0
337,G2,65.5,0.125,127,160.0
338,C2,65.5,0.125,127,160.0
339,G2,66.0,0.25,127,160.0
340,G1,66.5,0.125,127,160.0
341,E5,67.0,1.0,127,160.0
342,E-2,67.0,0.125,127,160.0
343,E2,67.0,0.125,127,160.0
344,B1,67.5,0.125,127,160.0
345,G2,67.5,0.125,127,160.0
346,C2,67.5,0.125,127,160.0
347,D5,68.0,1.0,127,160.0
348,B1,68.0,0.125,127,160.0
349,G2,68.0,0.125,127,160.0
350,C2,68.0,0.125,127,160.0
351,E2,69.0,0.125,127,160.0
352,E-2,69.0,0.125,127,160.0
353,G1,70.0,0.125,127,160.0
354,D6,70.0,0.5,127,160.0
355,B5,70.5,0.5,127,160.0
356,B1,70.5,0.125,127,160.0
357,G2,70.5,0.125,127,160.0
358,C2,70.5,0.125,127,160.0
359,A5,71.0,0.5,127,160.0
360,E2,71.0,0.125,127,160.0
361,E-2,71.0,0.125,127,160.0
362,F#2,71.5,0.25,127,160.0
363,G1,71.5,0.125,127,160.0
364,G5,71.5,0.5,127,160.0
365,B5,72.0,0.5,127,160.0
366,B-2,72.0,0.125,127,160.0
367,B1,72.0,0.125,127,160.0
368,G2,72.0,0.125,127,160.0
369,C2,72.0,0.125,127,160.0
370,G2,72.5,0.25,127,160.0
371,A5,72.5,0.5,127,160.0
372,G2,73.0,0.25,127,160.0
373,G5,73.0,1.0,127,160.0
374,E-2,73.0,0.125,127,160.0
375,E2,73.0,0.125,127,160.0
376,F#2,73.0,0.125,127,160.0
377,B1,73.5,0.125,127,160.0
378,G2,73.5,0.125,127,160.0
379,C2,73.5,0.125,127,160.0
380,G2,74.0,0.25,127,160.0
381,G1,74.5,0.125,127,160.0
382,E5,75.0,1.0,127,160.0
383,E-2,75.0,0.125,127,160.0
384,E2,75.0,0.125,127,160.0
385,B1,75.5,0.125,127,160.0
386,G2,75.5,0.125,127,160.0
387,C2,75.5,0.125,127,160.0
388,D5,76.0,0.75,127,160.0
389,B1,76.0,0.125,127,160.0
390,G2,76.0,0.125,127,160.0
391,C2,76.0,0.125,127,160.0
392,B5,77.0,1.0,127,160.0
393,E2,77.0,0.125,127,160.0
394,E-2,77.0,0.125,127,160.0
395,G1,78.0,0.125,127,160.0
396,A5,78.0,1.0,127,160.0
397,B1,78.5,0.125,127,160.0
398,G2,78.5,0.125,127,160.0
399,C2,78.5,0.125,127,160.0
400,G2,79.0,0.25,127,160.0
401,G5,79.0,1.0,127,160.0
402,E2,79.0,0.125,127,160.0
403,E-2,79.0,0.125,127,160.0
404,G1,79.5,0.125,127,160.0
405,A5,80.0,1.5,127,160.0
406,B-2,80.0,0.125,127,160.0
407,B1,80.0,0.125,127,160.0
408,G2,80.0,0.125,127,160.0
409,C2,80.0,0.125,127,160.0
410,E5,80.0,4.0,127,160.0
411,A4,80.0,4.0,127,160.0
412,A3,80.0,4.0,127,160.0
413,A2,80.5,0.25,127,160.0
414,A2,81.0,0.25,127,160.0
415,E-2,81.0,0.125,127,160.0
416,E2,81.0,0.125,127,160.0
417,F#2,81.0,0.125,127,160.0
418,B1,81.5,0.125,127,160.0
419,G2,81.5,0.125,127,160.0
420,C2,81.5,0.125,127,160.0
421,A2,82.0,0.25,127,160.0
422,E5,82.0,1.5,127,160.0
423,G1,82.5,0.125,127,160.0
424,A2,83.0,0.25,76,160.0
425,E-2,83.0,0.125,127,160.0
426,E2,83.0,0.125,127,160.0
427,A2,83.5,0.25,127,160.0
428,B1,83.5,0.125,127,160.0
429,G2,83.5,0.125,127,160.0
430,C2,83.5,0.125,127,160.0
431,A2,84.0,0.25,127,160.0
432,A5,84.0,0.75,127,160.0
433,B1,84.0,0.125,127,160.0
434,G2,84.0,0.125,127,160.0
435,C2,84.0,0.125,127,160.0
436,A2,85.0,0.25,127,160.0
437,B5,85.0,0.75,127,160.0
438,E2,85.0,0.125,127,160.0
439,E-2,85.0,0.125,127,160.0
440,A2,86.0,0.25,76,160.0
441,G1,86.0,0.125,127,160.0
442,A5,86.0,0.75,127,160.0
443,A2,86.5,0.25,127,160.0
444,B1,86.5,0.125,127,160.0
445,G2,86.5,0.125,127,160.0
446,C2,86.5,0.125,127,160.0
447,A2,87.0,0.25,127,160.0
448,G5,87.0,0.75,127,160.0
449,E2,87.0,0.125,127,160.0
450,E-2,87.0,0.125,127,160.0
451,C3,87.5,0.25,127,160.0
452,G1,87.5,0.125,127,160.0
453,A5,88.0,1.5,127,160.0
454,B-2,88.0,0.125,127,160.0
455,B1,88.0,0.125,127,160.0
456,G2,88.0,0.125,127,160.0
457,C2,88.0,0.125,127,160.0
458,E5,88.0,4.0,127,160.0
459,A4,88.0,4.0,127,160.0
460,A3,88.0,4.0,127,160.0
461,C3,88.5,0.25,127,160.0
462,C3,89.0,0.25,127,160.0
463,E-2,89.0,0.125,127,160.0
464,E2,89.0,0.125,127,160.0
465,F#2,89.0,0.125,127,160.0
466,B1,89.5,0.125,127,160.0
467,G2,89.5,0.125,127,160.0
468,C2,89.5,0.125,127,160.0
469,C3,90.0,0.25,127,160.0
470,E5,90.0,1.0,127,160.0
471,G5,90.0,2.0,127,160.0
472,C5,90.0,2.0,127,160.0
473,G1,90.5,0.125,127,160.0
474,C3,91.0,0.25,76,160.0
475,E-2,91.0,0.125,127,160.0
476,E2,91.0,0.125,127,160.0
477,C3,91.5,0.25,127,160.0
478,E5,91.5,0.5,127,160.0
479,B1,91.5,0.125,127,160.0
480,G2,91.5,0.125,127,160.0
481,C2,91.5,0.125,127,160.0
482,C3,92.0,0.25,127,160.0
483,A5,92.0,0.75,127,160.0
484,B1,92.0,0.125,127,160.0
485,G2,92.0,0.125,127,160.0
486,C2,92.0,0.125,127,160.0
487,G3,92.0,4.0,127,160.0
488,C4,92.0,4.0,127,160.0
489,G4,92.0,4.0,127,160.0
490,C5,92.0,4.0,127,160.0
491,G5,92.0,4.0,127,160.0
492,C5,92.0,4.0,127,160.0
493,C3,93.0,0.25,127,160.0
494,B5,93.0,0.75,127,160.0
495,E2,93.0,0.125,127,160.0
496,E-2,93.0,0.125,127,160.0
497,C3,94.0,0.25,76,160.0
498,G1,94.0,0.125,127,160.0
499,A5,94.0,0.75,127,160.0
500,C3,94.5,0.25,127,160.0
501,B1,94.5,0.125,127,160.0
502,G2,94.5,0.125,127,160.0
503,C2,94.5,0.125,127,160.0
504,C3,95.0,0.25,127,160.0
505,G5,95.0,0.75,127,160.0
506,E2,95.0,0.125,127,160.0
507,E-2,95.0,0.125,127,160.0
508,F#2,95.5,0.25,127,160.0
509,G1,95.5,0.125,127,160.0
510,A5,96.0,1.5,127,160.0
511,B-2,96.0,0.125,127,160.0
512,B1,96.0,0.125,127,160.0
513,G2,96.0,0.125,127,160.0
514,C2,96.0,0.125,127,160.0
515,G2,96.5,0.25,127,160.0
516,G2,97.0,0.25,127,160.0
517,E-2,97.0,0.125,127,160.0
518,E2,97.0,0.125,127,160.0
519,F#2,97.0,0.125,127,160.0
520,B1,97.5,0.125,127,160.0
521,G2,97.5,0.125,127,160.0
522,C2,97.5,0.125,127,160.0
523,G2,98.0,0.25,127,160.0
524,G5,98.0,1.5,127,160.0
525,G1,98.5,0.125,127,160.0
526,E-2,99.0,0.125,127,160.0
527,E2,99.0,0.125,127,160.0
528,B1,99.5,0.125,127,160.0
529,G2,99.5,0.125,127,160.0
530,C2,99.5,0.125,127,160.0
531,A5,100.0,0.75,127,160.0
532,B1,100.0,0.125,127,160.0
533,G2,100.0,0.125,127,160.0
534,C2,100.0,0.125,127,160.0
535,G3,100.0,4.0,127,160.0
536,C4,100.0,4.0,127,160.0
537,G4,100.0,4.0,127,160.0
538,C5,100.0,4.0,127,160.0
539,B5,101.0,0.75,127,160.0
540,E2,101.0,0.125,127,160.0
541,E-2,101.0,0.125,127,160.0
542,G1,102.0,0.125,127,160.0
543,G5,102.0,0.75,127,160.0
544,B1,102.5,0.125,127,160.0
545,G2,102.5,0.125,127,160.0
546,C2,102.5,0.125,127,160.0
547,E5,103.0,0.5,127,160.0
548,E2,103.0,0.125,127,160.0
549,E-2,103.0,0.125,127,160.0
550,F#2,103.5,0.25,127,160.0
551,G1,103.5,0.125,127,160.0
552,G5,103.5,0.5,127,160.0
553,A5,104.0,0.75,127,160.0
554,B-2,104.0,0.125,127,160.0
555,B1,104.0,0.125,127,160.0
556,G2,104.0,0.125,127,160.0
557,C2,104.0,0.125,127,160.0
558,G2,104.5,0.25,127,160.0
559,G2,105.0,0.25,127,160.0
560,A5,105.0,0.5,127,160.0
561,E-2,105.0,0.125,127,160.0
562,E2,105.0,0.125,127,160.0
563,F#2,105.0,0.125,127,160.0
564,B5,105.5,0.5,127,160.0
565,B1,105.5,0.125,127,160.0
566,G2,105.5,0.125,127,160.0
567,C2,105.5,0.125,127,160.0
568,G2,106.0,0.25,127,160.0
569,A5,106.0,0.5,127,160.0
570,G1,106.5,0.125,127,160.0
571,G5,106.5,1.0,127,160.0
572,E-2,107.0,0.125,127,160.0
573,E2,107.0,0.125,127,160.0
574,G5,107.5,0.5,127,160.0
575,B1,107.5,0.125,127,160.0
576,G2,107.5,0.125,127,160.0
577,C2,107.5,0.125,127,160.0
578,G5,108.0,1.0,127,160.0
579,B1,108.0,0.125,127,160.0
580,G2,108.0,0.125,127,160.0
581,C2,108.0,0.125,127,160.0
582,E2,109.0,0.125,127,160.0
583,E-2,109.0,0.125,127,160.0
584,E1,109.0,0.125,127,160.0
585,G1,110.0,0.125,127,160.0
586,E1,110.0,0.125,127,160.0
587,E-2,110.0,0.125,127,160.0
588,B1,110.5,0.125,127,160.0
589,G2,110.5,0.125,127,160.0
590,C2,110.5,0.125,127,160.0
591,G2,111.0,0.25,127,160.0
592,E5,111.0,0.5,127,160.0
593,E2,111.0,0.125,127,160.0
594,E-2,111.0,0.125,127,160.0
595,E1,111.0,0.125,127,160.0
596,G1,111.5,0.125,127,160.0
597,G5,111.5,0.5,127,160.0
598,A1,112.0,1.5,127,160.0
599,A1,112.0,4.0,127,160.0
600,A5,112.0,0.5,127,160.0
601,B-2,112.0,0.125,127,160.0
602,B1,112.0,0.125,127,160.0
603,G2,112.0,0.125,127,160.0
604,C2,112.0,0.125,127,160.0
605,A5,112.0,4.0,127,160.0
606,E5,112.0,4.0,127,160.0
607,C6,112.0,4.0,127,160.0
608,A3,112.0,4.0,127,160.0
609,A2,112.5,0.25,127,160.0
610,A5,112.5,0.5,127,160.0
611,A2,113.0,0.25,127,160.0
612,A5,113.0,0.5,127,160.0
613,E-2,113.0,0.125,127,160.0
614,E2,113.0,0.125,127,160.0
615,F#2,113.0,0.125,127,160.0
616,A1,113.5,2.0,127,160.0
617,B5,113.5,0.5,127,160.0
618,B1,113.5,0.125,127,160.0
619,G2,113.5,0.125,127,160.0
620,C2,113.5,0.125,127,160.0
621,A2,114.0,0.25,127,160.0
622,G5,114.0,1.0,127,160.0
623,G1,114.5,0.125,127,160.0
624,A2,115.0,0.25,76,160.0
625,E-2,115.0,0.125,127,160.0
626,E2,115.0,0.125,127,160.0
627,D4,115.0,1.0,127,160.0
628,D5,115.0,1.0,127,160.0
629,A2,115.5,0.25,127,160.0
630,A1,115.5,0.5,127,160.0
631,B1,115.5,0.125,127,160.0
632,G2,115.5,0.125,127,160.0
633,C2,115.5,0.125,127,160.0
634,A2,116.0,0.25,127,160.0
635,A1,116.0,2.5,127,160.0
636,A1,116.0,4.0,127,160.0
637,B1,116.0,0.125,127,160.0
638,G2,116.0,0.125,127,160.0
639,C2,116.0,0.125,127,160.0
640,D4,116.0,1.0,127,160.0
641,D5,116.0,1.0,127,160.0
642,A2,117.0,0.25,127,160.0
643,E2,117.0,0.125,127,160.0
644,E-2,117.0,0.125,127,160.0
645,B3,117.0,1.0,127,160.0
646,B4,117.0,1.0,127,160.0
647,A2,118.0,0.25,76,160.0
648,G1,118.0,0.125,127,160.0
649,A3,118.0,1.0,127,160.0
650,A4,118.0,1.0,127,160.0
651,A2,118.5,0.25,127,160.0
652,A1,118.5,1.5,127,160.0
653,B1,118.5,0.125,127,160.0
654,G2,118.5,0.125,127,160.0
655,C2,118.5,0.125,127,160.0
656,A2,119.0,0.25,127,160.0
657,E5,119.0,0.5,127,160.0
658,E2,119.0,0.125,127,160.0
659,E-2,119.0,0.125,127,160.0
660,G3,119.0,1.0,127,160.0
661,G4,119.0,1.0,127,160.0
662,C3,119.5,0.25,127,160.0
663,G1,119.5,0.125,127,160.0
664,G5,119.5,0.5,127,160.0
665,C2,120.0,1.5,127,160.0
666,C2,120.0,4.0,127,160.0
667,A5,120.0,0.5,127,160.0
668,B-2,120.0,0.125,127,160.0
669,B1,120.0,0.125,127,160.0
670,G2,120.0,0.125,127,160.0
671,C2,120.0,0.125,127,160.0
672,A5,120.0,4.0,127,160.0
673,E5,120.0,4.0,127,160.0
674,C6,120.0,4.0,127,160.0
675,A3,120.0,4.0,127,160.0
676,C3,120.5,0.25,127,160.0
677,A5,120.5,0.5,127,160.0
678,C3,121.0,0.25,127,160.0
679,A5,121.0,0.5,127,160.0
680,E-2,121.0,0.125,127,160.0
681,E2,121.0,0.125,127,160.0
682,F#2,121.0,0.125,127,160.0
683,C2,121.5,2.0,127,160.0
684,B5,121.5,0.5,127,160.0
685,B1,121.5,0.125,127,160.0
686,G2,121.5,0.125,127,160.0
687,C2,121.5,0.125,127,160.0
688,C3,122.0,0.25,127,160.0
689,G5,122.0,1.0,127,160.0
690,G1,122.5,0.125,127,160.0
691,C3,123.0,0.25,76,160.0
692,E-2,123.0,0.125,127,160.0
693,E2,123.0,0.125,127,160.0
694,D5,123.0,1.0,127,160.0
695,D4,123.0,1.0,127,160.0
696,C3,123.5,0.25,127,160.0
697,C2,123.5,0.5,127,160.0
698,B1,123.5,0.125,127,160.0
699,G2,123.5,0.125,127,160.0
700,C2,123.5,0.125,127,160.0
701,C3,124.0,0.25,127,160.0
702,C2,124.0,2.5,127,160.0
703,C2,124.0,4.0,127,160.0
704,B1,124.0,0.125,127,160.0
705,G2,124.0,0.125,127,160.0
706,C2,124.0,0.125,127,160.0
707,E5,124.0,4.0,127,160.0
708,G5,124.0,4.0,127,160.0
709,C6,124.0,4.0,127,160.0
710,C4,124.0,4.0,127,160.0
711,D5,124.0,1.0,127,160.0
712,D4,124.0,1.0,127,160.0
713,C3,125.0,0.25,127,160.0
714,E2,125.0,0.125,127,160.0
715,E-2,125.0,0.125,127,160.0
716,B4,125.0,1.0,127,160.0
717,B3,125.0,1.0,127,160.0
718,C3,126.0,0.25,76,160.0
719,G1,126.0,0.125,127,160.0
720,A4,126.0,1.0,127,160.0
721,A3,126.0,1.0,127,160.0
722,C3,126.5,0.25,127,160.0
723,C2,126.5,1.5,127,160.0
724,B1,126.5,0.125,127,160.0
725,G2,126.5,0.125,127,160.0
726,C2,126.5,0.125,127,160.0
727,C3,127.0,0.25,127,160.0
728,E2,127.0,0.125,127,160.0
729,E-2,127.0,0.125,127,160.0
730,G4,127.0,1.0,127,160.0
731,G3,127.0,1.0,127,160.0
732,F#2,127.5,0.25,127,160.0
733,G1,127.5,0.125,127,160.0
734,G1,128.0,1.5,127,160.0
735,G1,128.0,4.0,127,160.0
736,A5,128.0,0.5,127,160.0
737,B-2,128.0,0.125,127,160.0
738,B1,128.0,0.125,127,160.0
739,G2,128.0,0.125,127,160.0
740,C2,128.0,0.125,127,160.0
741,G2,128.5,0.25,127,160.0
742,A5,128.5,0.5,127,160.0
743,G2,129.0,0.25,127,160.0
744,A5,129.0,0.5,127,160.0
745,E-2,129.0,0.125,127,160.0
746,E2,129.0,0.125,127,160.0
747,F#2,129.0,0.125,127,160.0
748,G1,129.5,2.0,127,160.0
749,B5,129.5,0.5,127,160.0
750,B1,129.5,0.125,127,160.0
751,G2,129.5,0.125,127,160.0
752,C2,129.5,0.125,127,160.0
753,G2,130.0,0.25,127,160.0
754,G5,130.0,1.0,127,160.0
755,G1,130.5,0.125,127,160.0
756,E-2,131.0,0.125,127,160.0
757,E2,131.0,0.125,127,160.0
758,D5,131.0,1.0,127,160.0
759,D4,131.0,1.0,127,160.0
760,G2,131.5,0.25,127,160.0
761,G1,131.5,0.5,127,160.0
762,B1,131.5,0.125,127,160.0
763,G2,131.5,0.125,127,160.0
764,C2,131.5,0.125,127,160.0
765,G2,132.0,0.25,127,160.0
766,G1,132.0,2.5,127,160.0
767,G1,132.0,4.0,127,160.0
768,B1,132.0,0.125,127,160.0
769,G2,132.0,0.125,127,160.0
770,C2,132.0,0.125,127,160.0
771,E5,132.0,4.0,127,160.0
772,G5,132.0,4.0,127,160.0
773,C6,132.0,4.0,127,160.0
774,C4,132.0,4.0,127,160.0
775,D5,132.0,1.0,127,160.0
776,D4,132.0,1.0,127,160.0
777,G2,133.0,0.25,127,160.0
778,E2,133.0,0.125,127,160.0
779,E-2,133.0,0.125,127,160.0
780,B4,133.0,1.0,127,160.0
781,B3,133.0,1.0,127,160.0
782,G1,134.0,0.125,127,160.0
783,A4,134.0,1.0,127,160.0
784,A3,134.0,1.0,127,160.0
785,G2,134.5,0.25,127,160.0
786,G1,134.5,1.5,127,160.0
787,B1,134.5,0.125,127,160.0
788,G2,134.5,0.125,127,160.0
789,C2,134.5,0.125,127,160.0
790,G2,135.0,0.25,127,160.0
791,E2,135.0,0.125,127,160.0
792,E-2,135.0,0.125,127,160.0
793,G4,135.0,1.0,127,160.0
794,G3,135.0,1.0,127,160.0
795,F#2,135.5,0.25,127,160.0
796,G1,135.5,0.125,127,160.0
797,G5,135.5,0.5,127,160.0
798,G1,136.0,1.5,127,160.0
799,G1,136.0,4.0,127,160.0
800,A5,136.0,0.5,127,160.0
801,B-2,136.0,0.125,127,160.0
802,B1,136.0,0.125,127,160.0
803,G2,136.0,0.125,127,160.0
804,C2,136.0,0.125,127,160.0
805,D5,136.0,4.0,127,160.0
806,G5,136.0,4.0,127,160.0
807,B5,136.0,4.0,127,160.0
808,G3,136.0,4.0,127,160.0
809,A4,136.0,0.5,127,160.0
810,A3,136.0,0.5,127,160.0
811,G2,136.5,0.25,127,160.0
812,B5,136.5,0.5,127,160.0
813,B4,136.5,0.5,127,160.0
814,B3,136.5,0.5,127,160.0
815,G2,137.0,0.25,127,160.0
816,G5,137.0,1.0,127,160.0
817,E-2,137.0,0.125,127,160.0
818,E2,137.0,0.125,127,160.0
819,F#2,137.0,0.125,127,160.0
820,G4,137.0,1.0,127,160.0
821,G3,137.0,1.0,127,160.0
822,G1,137.5,2.0,127,160.0
823,B1,137.5,0.125,127,160.0
824,G2,137.5,0.125,127,160.0
825,C2,137.5,0.125,127,160.0
826,G2,138.0,0.25,127,160.0
827,G1,138.5,0.125,127,160.0
828,G5,138.5,0.5,127,160.0
829,A5,139.0,0.5,127,160.0
830,E-2,139.0,0.125,127,160.0
831,E2,139.0,0.125,127,160.0
832,A4,139.0,0.5,127,160.0
833,A3,139.0,0.5,127,160.0
834,G2,139.5,0.25,127,160.0
835,G1,139.5,0.5,127,160.0
836,B5,139.5,0.5,127,160.0
837,B1,139.5,0.125,127,160.0
838,G2,139.5,0.125,127,160.0
839,C2,139.5,0.125,127,160.0
840,B4,139.5,0.5,127,160.0
841,B3,139.5,0.5,127,160.0
842,G2,140.0,0.25,127,160.0
843,G1,140.0,2.5,127,160.0
844,G1,140.0,4.0,127,160.0
845,G5,140.0,1.0,127,160.0
846,B1,140.0,0.125,127,160.0
847,G2,140.0,0.125,127,160.0
848,C2,140.0,0.125,127,160.0
849,G3,140.0,1.0,127,160.0
850,G4,140.0,1.0,127,160.0
851,G2,141.0,0.25,127,160.0
852,E2,141.0,0.125,127,160.0
853,E-2,141.0,0.125,127,160.0
854,E1,141.0,0.125,127,160.0
855,D6,141.0,0.5,127,160.0
856,A5,141.0,0.5,127,160.0
857,D5,141.0,0.5,127,160.0
858,E6,141.5,1.0,127,160.0
859,B5,141.5,1.0,127,160.0
860,E5,141.5,1.0,127,160.0
861,G1,142.0,0.125,127,160.0
862,E1,142.0,0.125,127,160.0
863,E-2,142.0,0.125,127,160.0
864,G2,142.5,0.25,127,160.0
865,G1,142.5,1.5,127,160.0
866,B1,142.5,0.125,127,160.0
867,G2,142.5,0.125,127,160.0
868,C2,142.5,0.125,127,160.0
869,G6,142.5,1.0,127,160.0
870,D6,142.5,1.0,127,160.0
871,G5,142.5,1.0,127,160.0
872,G2,143.0,0.25,127,160.0
873,G5,143.0,1.0,127,160.0
874,E2,143.0,0.125,127,160.0
875,E-2,143.0,0.125,127,160.0
876,E1,143.0,0.125,127,160.0
877,A2,143.5,0.25,127,160.0
878,G1,143.5,0.125,127,160.0
879,A1,144.0,1.5,127,160.0
880,A1,144.0,4.0,127,160.0
881,A5,144.0,0.5,127,160.0
882,B-2,144.0,0.125,127,160.0
883,B1,144.0,0.125,127,160.0
884,G2,144.0,0.125,127,160.0
885,C2,144.0,0.125,127,160.0
886,A2,144.5,0.25,127,160.0
887,A5,144.5,0.5,127,160.0
888,A2,145.0,0.25,127,160.0
889,A5,145.0,0.5,127,160.0
890,E-2,145.0,0.125,127,160.0
891,E2,145.0,0.125,127,160.0
892,F#2,145.0,0.125,127,160.0
893,A1,145.5,2.0,127,160.0
894,B5,145.5,0.5,127,160.0
895,B1,145.5,0.125,127,160.0
896,G2,145.5,0.125,127,160.0
897,C2,145.5,0.125,127,160.0
898,A2,146.0,0.25,127,160.0
899,G5,146.0,1.0,127,160.0
900,G1,146.5,0.125,127,160.0
901,A2,147.0,0.25,76,160.0
902,E-2,147.0,0.125,127,160.0
903,E2,147.0,0.125,127,160.0
904,D5,147.0,1.0,127,160.0
905,D4,147.0,1.0,127,160.0
906,A2,147.5,0.25,127,160.0
907,A1,147.5,0.5,127,160.0
908,B1,147.5,0.125,127,160.0
909,G2,147.5,0.125,127,160.0
910,C2,147.5,0.125,127,160.0
911,A2,148.0,0.25,127,160.0
912,A1,148.0,2.5,127,160.0
913,A1,148.0,4.0,127,160.0
914,B1,148.0,0.125,127,160.0
915,G2,148.0,0.125,127,160.0
916,C2,148.0,0.125,127,160.0
917,D5,148.0,1.0,127,160.0
918,D4,148.0,1.0,127,160.0
919,A2,149.0,0.25,127,160.0
920,E2,149.0,0.125,127,160.0
921,E-2,149.0,0.125,127,160.0
922,B4,149.0,1.0,127,160.0
923,B3,149.0,1.0,127,160.0
924,A2,150.0,0.25,76,160.0
925,G1,150.0,0.125,127,160.0
926,A4,150.0,1.0,127,160.0
927,A3,150.0,1.0,127,160.0
928,A2,150.5,0.25,127,160.0
929,A1,150.5,1.5,127,160.0
930,B1,150.5,0.125,127,160.0
931,G2,150.5,0.125,127,160.0
932,C2,150.5,0.125,127,160.0
933,A2,151.0,0.25,127,160.0
934,E5,151.0,0.5,127,160.0
935,E2,151.0,0.125,127,160.0
936,E-2,151.0,0.125,127,160.0
937,G4,151.0,1.0,127,160.0
938,G3,151.0,1.0,127,160.0
939,C3,151.5,0.25,127,160.0
940,G1,151.5,0.125,127,160.0
941,G5,151.5,0.5,127,160.0
942,C2,152.0,1.5,127,160.0
943,C2,152.0,4.0,127,160.0
944,A5,152.0,0.5,127,160.0
945,B-2,152.0,0.125,127,160.0
946,B1,152.0,0.125,127,160.0
947,G2,152.0,0.125,127,160.0
948,C2,152.0,0.125,127,160.0
949,D5,152.0,4.0,127,160.0
950,G5,152.0,4.0,127,160.0
951,B5,152.0,4.0,127,160.0
952,G3,152.0,4.0,127,160.0
953,C3,152.5,0.25,127,160.0
954,A5,152.5,0.5,127,160.0
955,C3,153.0,0.25,127,160.0
956,A5,153.0,0.5,127,160.0
957,E-2,153.0,0.125,127,160.0
958,E2,153.0,0.125,127,160.0
959,F#2,153.0,0.125,127,160.0
960,C2,153.5,2.0,127,160.0
961,B5,153.5,0.5,127,160.0
962,B1,153.5,0.125,127,160.0
963,G2,153.5,0.125,127,160.0
964,C2,153.5,0.125,127,160.0
965,C3,154.0,0.25,127,160.0
966,G5,154.0,1.0,127,160.0
967,G1,154.5,0.125,127,160.0
968,C3,155.0,0.25,76,160.0
969,E-2,155.0,0.125,127,160.0
970,E2,155.0,0.125,127,160.0
971,D5,155.0,1.0,127,160.0
972,D4,155.0,1.0,127,160.0
973,C3,155.5,0.25,127,160.0
974,C2,155.5,0.5,127,160.0
975,B1,155.5,0.125,127,160.0
976,G2,155.5,0.125,127,160.0
977,C2,155.5,0.125,127,160.0
978,C3,156.0,0.25,127,160.0
979,C2,156.0,2.5,127,160.0
980,C2,156.0,4.0,127,160.0
981,B1,156.0,0.125,127,160.0
982,G2,156.0,0.125,127,160.0
983,C2,156.0,0.125,127,160.0
984,D5,156.0,1.0,127,160.0
985,D4,156.0,1.0,127,160.0
986,C3,157.0,0.25,127,160.0
987,E2,157.0,0.125,127,160.0
988,E-2,157.0,0.125,127,160.0
989,B4,157.0,1.0,127,160.0
990,B3,157.0,1.0,127,160.0
991,C3,158.0,0.25,76,160.0
992,G1,158.0,0.125,127,160.0
993,A4,158.0,1.0,127,160.0
994,A3,158.0,1.0,127,160.0
995,C3,158.5,0.25,127,160.0
996,C2,158.5,1.5,127,160.0
997,B1,158.5,0.125,127,160.0
998,G2,158.5,0.125,127,160.0
999,C2,158.5,0.125,127,160.0
1000,C3,159.0,0.25,127,160.0
1001,E5,159.0,0.5,127,160.0
1002,E2,159.0,0.125,127,160.0
1003,E-2,159.0,0.125,127,160.0
1004,G4,159.0,1.0,127,160.0
1005,G3,159.0,1.0,127,160.0
1006,F#2,159.5,0.25,127,160.0
1007,G1,159.5,0.125,127,160.0
1008,G5,159.5,0.5,127,160.0
1009,G1,160.0,1.5,127,160.0
1010,G1,160.0,4.0,127,160.0
1011,A5,160.0,0.5,127,160.0
1012,B-2,160.0,0.125,127,160.0
1013,B1,160.0,0.125,127,160.0
1014,G2,160.0,0.125,127,160.0
1015,C2,160.0,0.125,127,160.0
1016,G2,160.5,0.25,127,160.0
1017,A5,160.5,0.5,127,160.0
1018,G2,161.0,0.25,127,160.0
1019,A5,161.0,0.5,127,160.0
1020,E-2,161.0,0.125,127,160.0
1021,E2,161.0,0.125,127,160.0
1022,F#2,161.0,0.125,127,160.0
1023,G1,161.5,2.0,127,160.0
1024,B5,161.5,0.5,127,160.0
1025,B1,161.5,0.125,127,160.0
1026,G2,161.5,0.125,127,160.0
1027,C2,161.5,0.125,127,160.0
1028,G2,162.0,0.25,127,160.0
1029,G5,162.0,1.0,127,160.0
1030,G1,162.5,0.125,127,160.0
1031,E-2,163.0,0.125,127,160.0
1032,E2,163.0,0.125,127,160.0
1033,D5,163.0,1.0,127,160.0
1034,D4,163.0,1.0,127,160.0
1035,G2,163.5,0.25,127,160.0
1036,G1,163.5,0.5,127,160.0
1037,B1,163.5,0.125,127,160.0
1038,G2,163.5,0.125,127,160.0
1039,C2,163.5,0.125,127,160.0
1040,G2,164.0,0.25,127,160.0
1041,G1,164.0,2.5,127,160.0
1042,G1,164.0,4.0,127,160.0
1043,B1,164.0,0.125,127,160.0
1044,G2,164.0,0.125,127,160.0
1045,C2,164.0,0.125,127,160.0
1046,D5,164.0,4.0,127,160.0
1047,G5,164.0,4.0,127,160.0
1048,B5,164.0,4.0,127,160.0
1049,G3,164.0,4.0,127,160.0
1050,D5,164.0,1.0,127,160.0
1051,D4,164.0,1.0,127,160.0
1052,G2,165.0,0.25,127,160.0
1053,E2,165.0,0.125,127,160.0
1054,E-2,165.0,0.125,127,160.0
1055,B4,165.0,1.0,127,160.0
1056,B3,165.0,1.0,127,160.0
1057,G1,166.0,0.125,127,160.0
1058,A4,166.0,1.0,127,160.0
1059,A3,166.0,1.0,127,160.0
1060,G2,166.5,0.25,127,160.0
1061,G1,166.5,1.5,127,160.0
1062,B1,166.5,0.125,127,160.0
1063,G2,166.5,0.125,127,160.0
1064,C2,166.5,0.125,127,160.0
1065,G2,167.0,0.25,127,160.0
1066,E2,167.0,0.125,127,160.0
1067,E-2,167.0,0.125,127,160.0
1068,G4,167.0,1.0,127,160.0
1069,G3,167.0,1.0,127,160.0
1070,F#2,167.5,0.25,127,160.0
1071,G1,167.5,0.125,127,160.0
1072,G5,167.5,0.5,127,160.0
1073,G1,168.0,1.5,127,160.0
1074,G1,168.0,4.0,127,160.0
1075,A5,168.0,0.5,127,160.0
1076,B-2,168.0,0.125,127,160.0
1077,B1,168.0,0.125,127,160.0
1078,G2,168.0,0.125,127,160.0
1079,C2,168.0,0.125,127,160.0
1080,A4,168.0,0.5,127,160.0
1081,A3,168.0,0.5,127,160.0
1082,G2,168.5,0.25,127,160.0
1083,B5,168.5,0.5,127,160.0
1084,B4,168.5,0.5,127,160.0
1085,B3,168.5,0.5,127,160.0
1086,G2,169.0,0.25,127,160.0
1087,G5,169.0,1.0,127,160.0
1088,E-2,169.0,0.125,127,160.0
1089,E2,169.0,0.125,127,160.0
1090,F#2,169.0,0.125,127,160.0
1091,G4,169.0,1.0,127,160.0
1092,G3,169.0,1.0,127,160.0
1093,G1,169.5,2.0,127,160.0
1094,B1,169.5,0.125,127,160.0
1095,G2,169.5,0.125,127,160.0
1096,C2,169.5,0.125,127,160.0
1097,G2,170.0,0.25,127,160.0
1098,G1,170.5,0.125,127,160.0
1099,G5,170.5,0.5,127,160.0
1100,A5,171.0,0.5,127,160.0
1101,E-2,171.0,0.125,127,160.0
1102,E2,171.0,0.125,127,160.0
1103,A4,171.0,0.5,127,160.0
1104,A3,171.0,0.5,127,160.0
1105,G2,171.5,0.25,127,160.0
1106,G1,171.5,0.5,127,160.0
1107,B5,171.5,0.5,127,160.0
1108,B1,171.5,0.125,127,160.0
1109,G2,171.5,0.125,127,160.0
1110,C2,171.5,0.125,127,160.0
1111,B4,171.5,0.5,127,160.0
1112,B3,171.5,0.5,127,160.0
1113,G2,172.0,0.25,127,160.0
1114,G1,172.0,2.5,127,160.0
1115,G1,172.0,4.0,127,160.0
1116,G5,172.0,1.0,127,160.0
1117,B1,172.0,0.125,127,160.0
1118,G2,172.0,0.125,127,160.0
1119,C2,172.0,0.125,127,160.0
1120,D5,172.0,4.0,127,160.0
1121,G5,172.0,4.0,127,160.0
1122,B5,172.0,4.0,127,160.0
1123,G3,172.0,4.0,127,160.0
1124,G4,172.0,1.0,127,160.0
1125,G3,172.0,1.0,127,160.0
1126,G2,173.0,0.25,127,160.0
1127,E-2,173.0,0.125,127,160.0
1128,E1,173.0,0.125,127,160.0
1129,E2,173.0,0.125,127,160.0
1130,D5,173.0,0.5,127,160.0
1131,A5,173.0,0.5,127,160.0
1132,D6,173.0,0.5,127,160.0
1133,D5,173.5,0.5,127,160.0
1134,E6,173.5,1.0,127,160.0
1135,B5,173.5,1.0,127,160.0
1136,E5,173.5,1.0,127,160.0
1137,D6,174.0,0.5,127,160.0
1138,G1,174.0,0.125,127,160.0
1139,E1,174.0,0.125,127,160.0
1140,E-2,174.0,0.125,127,160.0
1141,G2,174.5,0.25,127,160.0
1142,G1,174.5,1.5,127,160.0
1143,B5,174.5,0.5,127,160.0
1144,B1,174.5,0.125,127,160.0
1145,G2,174.5,0.125,127,160.0
1146,C2,174.5,0.125,127,160.0
1147,G6,174.5,1.0,127,160.0
1148,D6,174.5,1.0,127,160.0
1149,G5,174.5,1.0,127,160.0
1150,G2,175.0,0.25,127,160.0
1151,A5,175.0,0.5,127,160.0
1152,E2,175.0,0.125,127,160.0
1153,E-2,175.0,0.125,127,160.0
1154,E1,175.0,0.125,127,160.0
1155,A2,175.5,0.25,127,160.0
1156,G5,175.5,0.5,127,160.0
1157,G1,175.5,0.125,127,160.0
1158,C2,175.5,0.125,127,160.0
1159,B1,175.5,0.125,127,160.0
1160,B5,176.0,1.0,127,160.0
1161,A5,176.0,4.0,127,160.0
1162,E5,176.0,4.0,127,160.0
1163,C6,176.0,4.0,127,160.0
1164,A3,176.0,4.0,127,160.0
1165,A2,176.5,0.25,127,160.0
1166,A2,177.0,0.25,127,160.0
1167,E-2,177.0,0.125,127,160.0
1168,E-2,177.5,0.125,127,160.0
1169,A2,178.0,0.25,127,160.0
1170,A2,179.0,0.25,76,160.0
1171,E-2,179.0,0.125,127,160.0
1172,A2,179.5,0.25,127,160.0
1173,A2,180.0,0.25,127,160.0
1174,A2,181.0,0.25,127,160.0
1175,E-2,181.0,0.125,127,160.0
1176,E-2,181.5,0.125,127,160.0
1177,D5,181.5,0.5,127,160.0
1178,A2,182.0,0.25,76,160.0
1179,D6,182.0,0.5,127,160.0
1180,A2,182.5,0.25,127,160.0
1181,B5,182.5,0.5,127,160.0
1182,A2,183.0,0.25,127,160.0
1183,E-2,183.0,0.125,127,160.0
1184,A5,183.0,0.5,127,160.0
1185,C3,183.5,0.25,127,160.0
1186,G5,183.5,0.5,127,160.0
1187,B5,184.0,1.0,127,160.0
1188,A5,184.0,4.0,127,160.0
1189,E5,184.0,4.0,127,160.0
1190,C6,184.0,4.0,127,160.0
1191,A3,184.0,4.0,127,160.0
1192,C3,184.5,0.25,127,160.0
1193,C3,185.0,0.25,127,160.0
1194,E-2,185.0,0.125,127,160.0
1195,E-2,185.5,0.125,127,160.0
1196,C3,186.0,0.25,127,160.0
1197,C3,187.0,0.25,76,160.0
1198,E-2,187.0,0.125,127,160.0
1199,C3,187.5,0.25,127,160.0
1200,C3,188.0,0.25,127,160.0
1201,E5,188.0,4.0,127,160.0
1202,G5,188.0,4.0,127,160.0
1203,C6,188.0,4.0,127,160.0
1204,C4,188.0,4.0,127,160.0
1205,C3,189.0,0.25,127,160.0
1206,E-2,189.0,0.125,127,160.0
1207,E-2,189.5,0.125,127,160.0
1208,D5,189.5,0.5,127,160.0
1209,C3,190.0,0.25,76,160.0
1210,D6,190.0,0.5,127,160.0
1211,C3,190.5,0.25,127,160.0
1212,B5,190.5,0.5,127,160.0
1213,C3,191.0,0.25,127,160.0
1214,E-2,191.0,0.125,127,160.0
1215,A5,191.0,0.5,127,160.0
1216,F#2,191.5,0.25,127,160.0
1217,F#2,191.5,0.5,127,160.0
1218,G5,191.5,0.5,127,160.0
1219,G2,192.0,0.5,127,160.0
1220,B5,192.0,0.5,127,160.0
1221,B-2,192.0,0.125,127,160.0
1222,B1,192.0,0.125,127,160.0
1223,G2,192.0,0.125,127,160.0
1224,C2,192.0,0.125,127,160.0
1225,G2,192.5,0.25,127,160.0
1226,G2,192.5,0.5,127,160.0
1227,A5,192.5,0.5,127,160.0
1228,G2,193.0,0.25,127,160.0
1229,G2,193.0,0.5,127,160.0
1230,G5,193.0,1.0,127,160.0
1231,E-2,193.0,0.125,127,160.0
1232,E2,193.0,0.125,127,160.0
1233,F#2,193.0,0.125,127,160.0
1234,G2,193.5,0.5,127,160.0
1235,B1,193.5,0.125,127,160.0
1236,G2,193.5,0.125,127,160.0
1237,C2,193.5,0.125,127,160.0
1238,G2,194.0,0.25,127,160.0
1239,G2,194.0,0.75,127,160.0
1240,E-5,194.0,0.125,127,160.0
1241,G#5,194.0,0.125,127,160.0
1242,G1,194.5,0.125,127,160.0
1243,E5,195.0,1.0,127,160.0
1244,E-2,195.0,0.125,127,160.0
1245,E2,195.0,0.125,127,160.0
1246,B1,195.5,0.125,127,160.0
1247,G2,195.5,0.125,127,160.0
1248,C2,195.5,0.125,127,160.0
1249,D5,196.0,1.0,127,160.0
1250,B1,196.0,0.125,127,160.0
1251,G2,196.0,0.125,127,160.0
1252,C2,196.0,0.125,127,160.0
1253,E-5,196.0,0.125,127,160.0
1254,G#5,196.0,0.125,127,160.0
1255,E5,196.0,4.0,127,160.0
1256,G5,196.0,4.0,127,160.0
1257,C6,196.0,4.0,127,160.0
1258,C4,196.0,4.0,127,160.0
1259,E2,197.0,0.125,127,160.0
1260,E-2,197.0,0.125,127,160.0
1261,E-5,197.0,0.125,127,160.0
1262,G#5,197.0,0.125,127,160.0
1263,G1,198.0,0.125,127,160.0
1264,D6,198.0,0.5,127,160.0
1265,B5,198.5,0.5,127,160.0
1266,B1,198.5,0.125,127,160.0
1267,G2,198.5,0.125,127,160.0
1268,C2,198.5,0.125,127,160.0
1269,A5,199.0,0.5,127,160.0
1270,E2,199.0,0.125,127,160.0
1271,E-2,199.0,0.125,127,160.0
1272,F#2,199.5,0.25,127,160.0
1273,F2,199.5,0.5,127,160.0
1274,G5,199.5,0.5,127,160.0
1275,G1,199.5,0.125,127,160.0
1276,E-5,199.5,0.125,127,160.0
1277,G#5,199.5,0.125,127,160.0
1278,G2,200.0,0.5,127,160.0
1279,B5,200.0,0.5,127,160.0
1280,B-2,200.0,0.125,127,160.0
1281,B1,200.0,0.125,127,160.0
1282,G2,200.0,0.125,127,160.0
1283,C2,200.0,0.125,127,160.0
1284,D5,200.0,4.0,127,160.0
1285,G5,200.0,4.0,127,160.0
1286,B5,200.0,4.0,127,160.0
1287,G3,200.0,4.0,127,160.0
1288,G2,200.5,0.25,127,160.0
1289,G2,200.5,0.5,127,160.0
1290,A5,200.5,0.5,127,160.0
1291,G2,201.0,0.25,127,160.0
1292,G2,201.0,0.5,127,160.0
1293,G5,201.0,1.0,127,160.0
1294,E-2,201.0,0.125,127,160.0
1295,E2,201.0,0.125,127,160.0
1296,F#2,201.0,0.125,127,160.0
1297,G2,201.5,0.5,127,160.0
1298,B1,201.5,0.125,127,160.0
1299,G2,201.5,0.125,127,160.0
1300,C2,201.5,0.125,127,160.0
1301,G2,202.0,0.25,127,160.0
1302,G2,202.0,0.75,127,160.0
1303,E-5,202.0,0.125,127,160.0
1304,G#5,202.0,0.125,127,160.0
1305,G1,202.5,0.125,127,160.0
1306,E5,203.0,1.0,127,160.0
1307,E-2,203.0,0.125,127,160.0
1308,E2,203.0,0.125,127,160.0
1309,B1,203.5,0.125,127,160.0
1310,G2,203.5,0.125,127,160.0
1311,C2,203.5,0.125,127,160.0
1312,D5,204.0,0.75,127,160.0
1313,B1,204.0,0.125,127,160.0
1314,G2,204.0,0.125,127,160.0
1315,C2,204.0,0.125,127,160.0
1316,E-5,204.0,0.125,127,160.0
1317,G#5,204.0,0.125,127,160.0
1318,B4,205.0,0.5,127,160.0
1319,E2,205.0,0.125,127,160.0
1320,E-2,205.0,0.125,127,160.0
1321,G#5,205.0,0.125,127,160.0
1322,E-5,205.0,0.125,127,160.0
1323,D5,205.5,0.5,127,160.0
1324,G1,206.0,0.125,127,160.0
1325,D6,206.0,0.5,127,160.0
1326,B5,206.5,0.5,127,160.0
1327,B1,206.5,0.125,127,160.0
1328,G2,206.5,0.125,127,160.0
1329,C2,206.5,0.125,127,160.0
1330,G2,207.0,0.25,127,160.0
1331,A5,207.0,0.5,127,160.0
1332,E2,207.0,0.125,127,160.0
1333,E-2,207.0,0.125,127,160.0
1334,G5,207.5,0.5,127,160.0
1335,G1,207.5,0.125,127,160.0
1336,G#5,207.5,0.125,127,160.0
1337,E-5,207.5,0.125,127,160.0
1338,A1,208.0,1.0,127,160.0
1339,B5,208.0,1.0,127,160.0
1340,B-2,208.0,0.125,127,160.0
1341,B1,208.0,0.125,127,160.0
1342,G2,208.0,0.125,127,160.0
1343,C2,208.0,0.125,127,160.0
1344,A2,208.5,0.25,127,160.0
1345,A2,209.0,0.25,127,160.0
1346,E-2,209.0,0.125,127,160.0
1347,E2,209.0,0.125,127,160.0
1348,F#2,209.0,0.125,127,160.0
1349,B1,209.5,0.125,127,160.0
1350,G2,209.5,0.125,127,160.0
1351,C2,209.5,0.125,127,160.0
1352,G4,209.5,1.0,127,160.0
1353,D4,209.5,1.0,127,160.0
1354,A2,210.0,0.25,127,160.0
1355,G1,210.5,0.125,127,160.0
1356,G4,210.5,0.5,127,160.0
1357,D4,210.5,0.5,127,160.0
1358,A2,211.0,0.25,76,160.0
1359,E-2,211.0,0.125,127,160.0
1360,E2,211.0,0.125,127,160.0
1361,G4,211.0,0.5,127,160.0
1362,D4,211.0,0.5,127,160.0
1363,A2,211.5,0.25,127,160.0
1364,B1,211.5,0.125,127,160.0
1365,G2,211.5,0.125,127,160.0
1366,C2,211.5,0.125,127,160.0
1367,G4,211.5,0.5,127,160.0
1368,D4,211.5,0.5,127,160.0
1369,A2,212.0,0.25,127,160.0
1370,B1,212.0,0.125,127,160.0
1371,G2,212.0,0.125,127,160.0
1372,C2,212.0,0.125,127,160.0
1373,E4,212.0,1.0,127,160.0
1374,B3,212.0,1.0,127,160.0
1375,D5,212.5,0.5,127,160.0
1376,A2,213.0,0.25,127,160.0
1377,E5,213.0,0.5,127,160.0
1378,E2,213.0,0.125,127,160.0
1379,E-2,213.0,0.125,127,160.0
1380,D5,213.5,0.5,127,160.0
1381,A2,214.0,0.25,76,160.0
1382,G1,214.0,0.125,127,160.0
1383,D6,214.0,0.5,127,160.0
1384,A2,214.5,0.25,127,160.0
1385,B5,214.5,0.5,127,160.0
1386,B1,214.5,0.125,127,160.0
1387,G2,214.5,0.125,127,160.0
1388,C2,214.5,0.125,127,160.0
1389,A2,215.0,0.25,127,160.0
1390,A5,215.0,0.5,127,160.0
1391,E2,215.0,0.125,127,160.0
1392,E-2,215.0,0.125,127,160.0
1393,C3,215.5,0.25,127,160.0
1394,G1,215.5,0.125,127,160.0
1395,G5,215.5,0.5,127,160.0
1396,C#2,216.0,1.0,127,160.0
1397,B5,216.0,1.0,127,160.0
1398,B-2,216.0,0.125,127,160.0
1399,B1,216.0,0.125,127,160.0
1400,G2,216.0,0.125,127,160.0
1401,C2,216.0,0.125,127,160.0
1402,D5,216.0,4.0,127,160.0
1403,G5,216.0,4.0,127,160.0
1404,B5,216.0,4.0,127,160.0
1405,G3,216.0,4.0,127,160.0
1406,C3,216.5,0.25,127,160.0
1407,C3,217.0,0.25,127,160.0
1408,E-2,217.0,0.125,127,160.0
1409,E2,217.0,0.125,127,160.0
1410,F#2,217.0,0.125,127,160.0
1411,B1,217.5,0.125,127,160.0
1412,G2,217.5,0.125,127,160.0
1413,C2,217.5,0.125,127,160.0
1414,G4,217.5,1.0,127,160.0
1415,D4,217.5,1.0,127,160.0
1416,C3,218.0,0.25,127,160.0
1417,G1,218.5,0.125,127,160.0
1418,G4,218.5,0.5,127,160.0
1419,D4,218.5,0.5,127,160.0
1420,C3,219.0,0.25,76,160.0
1421,E-2,219.0,0.125,127,160.0
1422,E2,219.0,0.125,127,160.0
1423,G4,219.0,0.5,127,160.0
1424,D4,219.0,0.5,127,160.0
1425,C3,219.5,0.25,127,160.0
1426,B1,219.5,0.125,127,160.0
1427,G2,219.5,0.125,127,160.0
1428,C2,219.5,0.125,127,160.0
1429,G4,219.5,0.5,127,160.0
1430,D4,219.5,0.5,127,160.0
1431,C3,220.0,0.25,127,160.0
1432,B1,220.0,0.125,127,160.0
1433,G2,220.0,0.125,127,160.0
1434,C2,220.0,0.125,127,160.0
1435,E4,220.0,0.5,127,160.0
1436,A4,220.0,0.5,127,160.0
1437,B4,220.5,0.5,127,160.0
1438,F#4,220.5,0.5,127,160.0
1439,C3,221.0,0.25,127,160.0
1440,E2,221.0,0.125,127,160.0
1441,E-2,221.0,0.125,127,160.0
1442,D5,221.5,0.5,127,160.0
1443,C3,222.0,0.25,76,160.0
1444,G1,222.0,0.125,127,160.0
1445,D6,222.0,0.5,127,160.0
1446,C3,222.5,0.25,127,160.0
1447,B5,222.5,0.5,127,160.0
1448,B1,222.5,0.125,127,160.0
1449,G2,222.5,0.125,127,160.0
1450,C2,222.5,0.125,127,160.0
1451,C3,223.0,0.25,127,160.0
1452,A5,223.0,0.5,127,160.0
1453,E2,223.0,0.125,127,160.0
1454,E-2,223.0,0.125,127,160.0
1455,F#2,223.5,0.25,127,160.0
1456,G1,223.5,0.125,127,160.0
1457,F#2,223.5,0.5,127,160.0
1458,G5,223.5,0.5,127,160.0
1459,G2,224.0,0.5,127,160.0
1460,B5,224.0,0.5,127,160.0
1461,B-2,224.0,0.125,127,160.0
1462,B1,224.0,0.125,127,160.0
1463,G2,224.0,0.125,127,160.0
1464,C2,224.0,0.125,127,160.0
1465,G2,224.5,0.25,127,160.0
1466,G2,224.5,0.5,127,160.0
1467,A5,224.5,0.5,127,160.0
1468,G2,225.0,0.25,127,160.0
1469,G2,225.0,0.5,127,160.0
1470,G5,225.0,1.0,127,160.0
1471,E-2,225.0,0.125,127,160.0
1472,E2,225.0,0.125,127,160.0
1473,F#2,225.0,0.125,127,160.0
1474,G2,225.5,0.5,127,160.0
1475,B1,225.5,0.125,127,160.0
1476,G2,225.5,0.125,127,160.0
1477,C2,225.5,0.125,127,160.0
1478,G2,226.0,0.25,127,160.0
1479,G2,226.0,0.75,127,160.0
1480,G#5,226.0,0.125,127,160.0
1481,E-5,226.0,0.125,127,160.0
1482,G1,226.5,0.125,127,160.0
1483,E5,227.0,1.0,127,160.0
1484,E-2,227.0,0.125,127,160.0
1485,E2,227.0,0.125,127,160.0
1486,B1,227.5,0.125,127,160.0
1487,G2,227.5,0.125,127,160.0
1488,C2,227.5,0.125,127,160.0
1489,D5,228.0,1.0,127,160.0
1490,B1,228.0,0.125,127,160.0
1491,G2,228.0,0.125,127,160.0
1492,C2,228.0,0.125,127,160.0
1493,E-5,228.0,0.125,127,160.0
1494,G#5,228.0,0.125,127,160.0
1495,D5,228.0,4.0,127,160.0
1496,G5,228.0,4.0,127,160.0
1497,B5,228.0,4.0,127,160.0
1498,G3,228.0,4.0,127,160.0
1499,E2,229.0,0.125,127,160.0
1500,E-2,229.0,0.125,127,160.0
1501,E-5,229.0,0.125,127,160.0
1502,G#5,229.0,0.125,127,160.0
1503,G1,230.0,0.125,127,160.0
1504,D6,230.0,0.5,127,160.0
1505,B5,230.5,0.5,127,160.0
1506,B1,230.5,0.125,127,160.0
1507,G2,230.5,0.125,127,160.0
1508,C2,230.5,0.125,127,160.0
1509,A5,231.0,0.5,127,160.0
1510,E2,231.0,0.125,127,160.0
1511,E-2,231.0,0.125,127,160.0
1512,A5,231.0,0.5,127,160.0
1513,E5,231.0,0.5,127,160.0
1514,A4,231.0,0.5,127,160.0
1515,F#2,231.5,0.25,127,160.0
1516,F#2,231.5,0.5,127,160.0
1517,G5,231.5,0.5,127,160.0
1518,G1,231.5,0.125,127,160.0
1519,E-5,231.5,0.125,127,160.0
1520,G#5,231.5,0.125,127,160.0
1521,G5,231.5,0.5,127,160.0
1522,D5,231.5,0.5,127,160.0
1523,G4,231.5,0.5,127,160.0
1524,G2,232.0,0.5,127,160.0
1525,B5,232.0,0.5,127,160.0
1526,B-2,232.0,0.125,127,160.0
1527,B1,232.0,0.125,127,160.0
1528,G2,232.0,0.125,127,160.0
1529,C2,232.0,0.125,127,160.0
1530,B4,232.0,0.5,127,160.0
1531,F#4,232.0,0.5,127,160.0
1532,F#5,232.0,0.5,127,160.0
1533,B5,232.0,0.5,127,160.0
1534,G2,232.5,0.25,127,160.0
1535,G2,232.5,0.5,127,160.0
1536,A5,232.5,0.5,127,160.0
1537,A4,232.5,0.5,127,160.0
1538,E4,232.5,0.5,127,160.0
1539,E5,232.5,0.5,127,160.0
1540,A5,232.5,0.5,127,160.0
1541,G2,233.0,0.25,127,160.0
1542,G2,233.0,0.5,127,160.0
1543,G5,233.0,1.0,127,160.0
1544,E-2,233.0,0.125,127,160.0
1545,E2,233.0,0.125,127,160.0
1546,F#2,233.0,0.125,127,160.0
1547,G4,233.0,1.0,127,160.0
1548,D4,233.0,1.0,127,160.0
1549,D5,233.0,1.0,127,160.0
1550,G5,233.0,1.0,127,160.0
1551,G2,233.5,0.5,127,160.0
1552,B1,233.5,0.125,127,160.0
1553,G2,233.5,0.125,127,160.0
1554,C2,233.5,0.125,127,160.0
1555,G2,234.0,0.25,127,160.0
1556,G2,234.0,0.75,127,160.0
1557,E-5,234.0,0.125,127,160.0
1558,G#5,234.0,0.125,127,160.0
1559,G1,234.5,0.125,127,160.0
1560,E5,235.0,1.0,127,160.0
1561,E-2,235.0,0.125,127,160.0
1562,E2,235.0,0.125,127,160.0
1563,B1,235.5,0.125,127,160.0
1564,G2,235.5,0.125,127,160.0
1565,C2,235.5,0.125,127,160.0
1566,D5,236.0,0.75,127,160.0
1567,B1,236.0,0.125,127,160.0
1568,G2,236.0,0.125,127,160.0
1569,C2,236.0,0.125,127,160.0
1570,E-5,236.0,0.125,127,160.0
1571,G#5,236.0,0.125,127,160.0
1572,D5,236.0,4.0,127,160.0
1573,G5,236.0,4.0,127,160.0
1574,B5,236.0,4.0,127,160.0
1575,G3,236.0,4.0,127,160.0
1576,B5,237.0,1.0,127,160.0
1577,E2,237.0,0.125,127,160.0
1578,E-2,237.0,0.125,127,160.0
1579,G#5,237.0,0.125,127,160.0
1580,E-5,237.0,0.125,127,160.0
1581,G1,238.0,0.125,127,160.0
1582,A5,238.0,1.0,127,160.0
1583,B1,238.5,0.125,127,160.0
1584,G2,238.5,0.125,127,160.0
1585,C2,238.5,0.125,127,160.0
1586,G2,239.0,0.25,127,160.0
1587,F#2,239.0,0.5,127,160.0
1588,G5,239.0,1.0,127,160.0
1589,E2,239.0,0.125,127,160.0
1590,E-2,239.0,0.125,127,160.0
1591,G2,239.5,0.5,127,160.0
1592,G1,239.5,0.125,127,160.0
1593,E-5,239.5,0.125,127,160.0
1594,G#5,239.5,0.125,127,160.0
1595,A2,240.0,0.5,127,160.0
1596,A5,240.0,1.5,127,160.0
1597,B-2,240.0,0.125,127,160.0
1598,B1,240.0,0.125,127,160.0
1599,G2,240.0,0.125,127,160.0
1600,C2,240.0,0.125,127,160.0
1601,A4,240.0,1.5,127,160.0
1602,E5,240.0,1.5,127,160.0
1603,A2,240.5,0.25,127,160.0
1604,A2,240.5,0.5,127,160.0
1605,A2,241.0,0.25,127,160.0
1606,A2,241.0,0.75,127,160.0
1607,E-2,241.0,0.125,127,160.0
1608,E2,241.0,0.125,127,160.0
1609,F#2,241.0,0.125,127,160.0
1610,B1,241.5,0.125,127,160.0
1611,G2,241.5,0.125,127,160.0
1612,C2,241.5,0.125,127,160.0
1613,A2,242.0,0.25,127,160.0
1614,A2,242.0,0.75,127,160.0
1615,E5,242.0,1.5,127,160.0
1616,E4,242.0,1.5,127,160.0
1617,B4,242.0,1.5,127,160.0
1618,G1,242.5,0.125,127,160.0
1619,A2,243.0,0.25,76,160.0
1620,E-2,243.0,0.125,127,160.0
1621,E2,243.0,0.125,127,160.0
1622,A2,243.5,0.25,127,160.0
1623,A2,243.5,0.5,127,160.0
1624,B1,243.5,0.125,127,160.0
1625,G2,243.5,0.125,127,160.0
1626,C2,243.5,0.125,127,160.0
1627,A2,244.0,0.25,127,160.0
1628,A2,244.0,0.75,127,160.0
1629,A5,244.0,0.75,127,160.0
1630,B1,244.0,0.125,127,160.0
1631,G2,244.0,0.125,127,160.0
1632,C2,244.0,0.125,127,160.0
1633,A5,244.0,0.75,127,160.0
1634,E5,244.0,0.75,127,160.0
1635,A2,245.0,0.25,127,160.0
1636,A2,245.0,0.75,127,160.0
1637,B5,245.0,0.75,127,160.0
1638,E2,245.0,0.125,127,160.0
1639,E-2,245.0,0.125,127,160.0
1640,B5,245.0,0.75,127,160.0
1641,F#5,245.0,0.75,127,160.0
1642,A2,246.0,0.25,76,160.0
1643,G1,246.0,0.125,127,160.0
1644,A5,246.0,0.75,127,160.0
1645,A5,246.0,0.75,127,160.0
1646,E5,246.0,0.75,127,160.0
1647,A2,246.5,0.25,127,160.0
1648,A2,246.5,0.5,127,160.0
1649,B1,246.5,0.125,127,160.0
1650,G2,246.5,0.125,127,160.0
1651,C2,246.5,0.125,127,160.0
1652,A2,247.0,0.25,127,160.0
1653,A2,247.0,0.5,127,160.0
1654,G5,247.0,0.75,127,160.0
1655,E2,247.0,0.125,127,160.0
1656,E-2,247.0,0.125,127,160.0
1657,G5,247.0,0.75,127,160.0
1658,D5,247.0,0.75,127,160.0
1659,C3,247.5,0.25,127,160.0
1660,G1,247.5,0.125,127,160.0
1661,B2,247.5,0.5,127,160.0
1662,C3,248.0,0.5,127,160.0
1663,A5,248.0,1.5,127,160.0
1664,B-2,248.0,0.125,127,160.0
1665,B1,248.0,0.125,127,160.0
1666,G2,248.0,0.125,127,160.0
1667,C2,248.0,0.125,127,160.0
1668,E5,248.0,4.0,127,160.0
1669,A4,248.0,4.0,127,160.0
1670,A3,248.0,4.0,127,160.0
1671,E5,248.0,1.5,127,160.0
1672,A5,248.0,1.5,127,160.0
1673,C3,248.5,0.25,127,160.0
1674,C3,248.5,0.5,127,160.0
1675,C3,249.0,0.25,127,160.0
1676,C3,249.0,0.75,127,160.0
1677,E-2,249.0,0.125,127,160.0
1678,E2,249.0,0.125,127,160.0
1679,F#2,249.0,0.125,127,160.0
1680,B1,249.5,0.125,127,160.0
1681,G2,249.5,0.125,127,160.0
1682,C2,249.5,0.125,127,160.0
1683,C3,250.0,0.25,127,160.0
1684,C3,250.0,0.75,127,160.0
1685,E5,250.0,1.5,127,160.0
1686,G5,250.0,2.0,127,160.0
1687,C5,250.0,2.0,127,160.0
1688,E5,250.0,1.5,127,160.0
1689,B4,250.0,1.5,127,160.0
1690,G1,250.5,0.125,127,160.0
1691,C3,251.0,0.25,76,160.0
1692,E-2,251.0,0.125,127,160.0
1693,E2,251.0,0.125,127,160.0
1694,C3,251.5,0.25,127,160.0
1695,C3,251.5,0.5,127,160.0
1696,B1,251.5,0.125,127,160.0
1697,G2,251.5,0.125,127,160.0
1698,C2,251.5,0.125,127,160.0
1699,C3,252.0,0.25,127,160.0
1700,C3,252.0,0.75,127,160.0
1701,A5,252.0,0.75,127,160.0
1702,B1,252.0,0.125,127,160.0
1703,G2,252.0,0.125,127,160.0
1704,C2,252.0,0.125,127,160.0
1705,G5,252.0,4.0,127,160.0
1706,C5,252.0,4.0,127,160.0
1707,A5,252.0,0.75,127,160.0
1708,E5,252.0,0.75,127,160.0
1709,C3,253.0,0.25,127,160.0
1710,C3,253.0,0.75,127,160.0
1711,B5,253.0,0.75,127,160.0
1712,E2,253.0,0.125,127,160.0
1713,E-2,253.0,0.125,127,160.0
1714,B5,253.0,0.75,127,160.0
1715,F#5,253.0,0.75,127,160.0
1716,C3,254.0,0.25,76,160.0
1717,G1,254.0,0.125,127,160.0
1718,A5,254.0,0.75,127,160.0
1719,A5,254.0,0.75,127,160.0
1720,E5,254.0,0.75,127,160.0
1721,C3,254.5,0.25,127,160.0
1722,C3,254.5,0.5,127,160.0
1723,B1,254.5,0.125,127,160.0
1724,G2,254.5,0.125,127,160.0
1725,C2,254.5,0.125,127,160.0
1726,C3,255.0,0.25,127,160.0
1727,C3,255.0,0.5,127,160.0
1728,G5,255.0,0.75,127,160.0
1729,E2,255.0,0.125,127,160.0
1730,E-2,255.0,0.125,127,160.0
1731,G5,255.0,0.75,127,160.0
1732,D5,255.0,0.75,127,160.0
1733,F#2,255.5,0.25,127,160.0
1734,G1,255.5,0.125,127,160.0
1735,F#2,255.5,0.5,127,160.0
1736,G2,256.0,0.5,127,160.0
1737,A5,256.0,1.5,127,160.0
1738,B-2,256.0,0.125,127,160.0
1739,B1,256.0,0.125,127,160.0
1740,G2,256.0,0.125,127,160.0
1741,C2,256.0,0.125,127,160.0
1742,E5,256.0,4.0,127,160.0
1743,A4,256.0,4.0,127,160.0
1744,A3,256.0,4.0,127,160.0
1745,A5,256.0,1.5,127,160.0
1746,E5,256.0,1.5,127,160.0
1747,G2,256.5,0.25,127,160.0
1748,G2,256.5,0.5,127,160.0
1749,G2,257.0,0.25,127,160.0
1750,G2,257.0,0.5,127,160.0
1751,E-2,257.0,0.125,127,160.0
1752,E2,257.0,0.125,127,160.0
1753,F#2,257.0,0.125,127,160.0
1754,G2,257.5,0.5,127,160.0
1755,B1,257.5,0.125,127,160.0
1756,G2,257.5,0.125,127,160.0
1757,C2,257.5,0.125,127,160.0
1758,G2,258.0,0.25,127,160.0
1759,G2,258.0,0.75,127,160.0
1760,B5,258.0,1.5,127,160.0
1761,E-5,258.0,0.125,127,160.0
1762,G#5,258.0,0.125,127,160.0
1763,B5,258.0,1.5,127,160.0
1764,F#5,258.0,1.5,127,160.0
1765,G1,258.5,0.125,127,160.0
1766,E-2,259.0,0.125,127,160.0
1767,E2,259.0,0.125,127,160.0
1768,B1,259.5,0.125,127,160.0
1769,G2,259.5,0.125,127,160.0
1770,C2,259.5,0.125,127,160.0
1771,A5,260.0,0.75,127,160.0
1772,B1,260.0,0.125,127,160.0
1773,G2,260.0,0.125,127,160.0
1774,C2,260.0,0.125,127,160.0
1775,E-5,260.0,0.125,127,160.0
1776,G#5,260.0,0.125,127,160.0
1777,G3,260.0,4.0,127,160.0
1778,C4,260.0,4.0,127,160.0
1779,G4,260.0,4.0,127,160.0
1780,C5,260.0,4.0,127,160.0
1781,B5,261.0,0.75,127,160.0
1782,E2,261.0,0.125,127,160.0
1783,E-2,261.0,0.125,127,160.0
1784,G#5,261.0,0.125,127,160.0
1785,E-5,261.0,0.125,127,160.0
1786,G1,262.0,0.125,127,160.0
1787,G5,262.0,0.75,127,160.0
1788,B1,262.5,0.125,127,160.0
1789,G2,262.5,0.125,127,160.0
1790,C2,262.5,0.125,127,160.0
1791,E5,263.0,0.5,127,160.0
1792,E2,263.0,0.125,127,160.0
1793,E-2,263.0,0.125,127,160.0
1794,F#2,263.5,0.25,127,160.0
1795,F#2,263.5,0.5,127,160.0
1796,G5,263.5,0.5,127,160.0
1797,G1,263.5,0.125,127,160.0
1798,E-5,263.5,0.125,127,160.0
1799,G#5,263.5,0.125,127,160.0
1800,A5,264.0,1.0,127,160.0
1801,A5,265.0,0.5,127,160.0
1802,B5,265.5,0.5,127,160.0
1803,A5,266.0,0.5,127,160.0
1804,G5,266.5,1.0,127,160.0
1805,G5,267.5,0.5,127,160.0
1806,G5,268.0,1.0,127,160.0
1807,G3,268.0,4.0,127,160.0
1808,C4,268.0,4.0,127,160.0
1809,G4,268.0,4.0,127,160.0
1810,C5,268.0,4.0,127,160.0
1811,E1,269.0,0.125,127,160.0
1812,E-2,269.0,0.125,127,160.0
1813,E-2,270.0,0.125,127,160.0
1814,E1,270.0,0.125,127,160.0
1815,G2,271.0,0.25,127,160.0
1816,E5,271.0,0.5,127,160.0
1817,E5,271.0,0.5,127,160.0
1818,E-2,271.0,0.125,127,160.0
1819,E1,271.0,0.125,127,160.0
1820,G5,271.5,0.5,127,160.0
1821,G5,271.5,0.5,127,160.0
1822,A1,272.0,1.5,127,160.0
1823,A1,272.0,4.0,127,160.0
1824,E4,272.0,4.0,127,160.0
1825,A5,272.0,0.5,127,160.0
1826,B-2,272.0,0.125,127,160.0
1827,B1,272.0,0.125,127,160.0
1828,G2,272.0,0.125,127,160.0
1829,C2,272.0,0.125,127,160.0
1830,A5,272.0,0.5,127,160.0
1831,A4,272.0,0.5,127,160.0
1832,E5,272.0,0.5,127,160.0
1833,A2,272.5,0.25,127,160.0
1834,A5,272.5,0.5,127,160.0
1835,A5,272.5,0.5,127,160.0
1836,A4,272.5,0.5,127,160.0
1837,E5,272.5,0.5,127,160.0
1838,A2,273.0,0.25,127,160.0
1839,A5,273.0,0.5,127,160.0
1840,E-2,273.0,0.125,127,160.0
1841,E2,273.0,0.125,127,160.0
1842,F#2,273.0,0.125,127,160.0
1843,A5,273.0,0.5,127,160.0
1844,A4,273.0,0.5,127,160.0
1845,E5,273.0,0.5,127,160.0
1846,A1,273.5,2.0,127,160.0
1847,B5,273.5,0.5,127,160.0
1848,B1,273.5,0.125,127,160.0
1849,G2,273.5,0.125,127,160.0
1850,C2,273.5,0.125,127,160.0
1851,B5,273.5,0.5,127,160.0
1852,B4,273.5,0.5,127,160.0
1853,F#5,273.5,0.5,127,160.0
1854,A2,274.0,0.25,127,160.0
1855,G5,274.0,1.0,127,160.0
1856,G5,274.0,1.0,127,160.0
1857,G4,274.0,1.0,127,160.0
1858,D5,274.0,1.0,127,160.0
1859,G1,274.5,0.125,127,160.0
1860,A2,275.0,0.25,76,160.0
1861,E-2,275.0,0.125,127,160.0
1862,E2,275.0,0.125,127,160.0
1863,G5,275.0,1.0,127,160.0
1864,D5,275.0,1.0,127,160.0
1865,A4,275.0,1.0,127,160.0
1866,A2,275.5,0.25,127,160.0
1867,A1,275.5,0.5,127,160.0
1868,B1,275.5,0.125,127,160.0
1869,G2,275.5,0.125,127,160.0
1870,C2,275.5,0.125,127,160.0
1871,A2,276.0,0.25,127,160.0
1872,A1,276.0,2.5,127,160.0
1873,A1,276.0,4.0,127,160.0
1874,E4,276.0,1.0,127,160.0
1875,B1,276.0,0.125,127,160.0
1876,G2,276.0,0.125,127,160.0
1877,C2,276.0,0.125,127,160.0
1878,G5,276.0,1.0,127,160.0
1879,D5,276.0,1.0,127,160.0
1880,A4,276.0,1.0,127,160.0
1881,A2,277.0,0.25,127,160.0
1882,A4,277.0,0.5,127,160.0
1883,E2,277.0,0.125,127,160.0
1884,E-2,277.0,0.125,127,160.0
1885,G5,277.0,1.0,127,160.0
1886,B4,277.0,1.0,127,160.0
1887,F#4,277.0,1.0,127,160.0
1888,B4,277.5,0.5,127,160.0
1889,A2,278.0,0.25,76,160.0
1890,G1,278.0,0.125,127,160.0
1891,A4,278.0,0.5,127,160.0
1892,G5,278.0,1.0,127,160.0
1893,A4,278.0,1.0,127,160.0
1894,E4,278.0,1.0,127,160.0
1895,A2,278.5,0.25,127,160.0
1896,A1,278.5,1.5,127,160.0
1897,G4,278.5,1.0,127,160.0
1898,B1,278.5,0.125,127,160.0
1899,G2,278.5,0.125,127,160.0
1900,C2,278.5,0.125,127,160.0
1901,A2,279.0,0.25,127,160.0
1902,E5,279.0,0.5,127,160.0
1903,E2,279.0,0.125,127,160.0
1904,E-2,279.0,0.125,127,160.0
1905,G4,279.0,1.0,127,160.0
1906,G5,279.0,1.0,127,160.0
1907,D4,279.0,1.0,127,160.0
1908,C3,279.5,0.25,127,160.0
1909,G1,279.5,0.125,127,160.0
1910,E4,279.5,0.5,127,160.0
1911,G5,279.5,0.5,127,160.0
1912,C2,280.0,1.5,127,160.0
1913,C2,280.0,4.0,127,160.0
1914,E4,280.0,4.0,127,160.0
1915,A5,280.0,0.5,127,160.0
1916,B-2,280.0,0.125,127,160.0
1917,B1,280.0,0.125,127,160.0
1918,G2,280.0,0.125,127,160.0
1919,C2,280.0,0.125,127,160.0
1920,A5,280.0,0.5,127,160.0
1921,A4,280.0,0.5,127,160.0
1922,E5,280.0,0.5,127,160.0
1923,C3,280.5,0.25,127,160.0
1924,A5,280.5,0.5,127,160.0
1925,A5,280.5,0.5,127,160.0
1926,A4,280.5,0.5,127,160.0
1927,E5,280.5,0.5,127,160.0
1928,C3,281.0,0.25,127,160.0
1929,A5,281.0,0.5,127,160.0
1930,E-2,281.0,0.125,127,160.0
1931,E2,281.0,0.125,127,160.0
1932,F#2,281.0,0.125,127,160.0
1933,A5,281.0,0.5,127,160.0
1934,A4,281.0,0.5,127,160.0
1935,E5,281.0,0.5,127,160.0
1936,C2,281.5,2.0,127,160.0
1937,B5,281.5,0.5,127,160.0
1938,B1,281.5,0.125,127,160.0
1939,G2,281.5,0.125,127,160.0
1940,C2,281.5,0.125,127,160.0
1941,B5,281.5,0.5,127,160.0
1942,B4,281.5,0.5,127,160.0
1943,F#5,281.5,0.5,127,160.0
1944,C3,282.0,0.25,127,160.0
1945,G5,282.0,1.0,127,160.0
1946,G5,282.0,1.0,127,160.0
1947,G4,282.0,1.0,127,160.0
1948,D5,282.0,1.0,127,160.0
1949,G1,282.5,0.125,127,160.0
1950,C3,283.0,0.25,76,160.0
1951,E-2,283.0,0.125,127,160.0
1952,E2,283.0,0.125,127,160.0
1953,G5,283.0,1.0,127,160.0
1954,D5,283.0,1.0,127,160.0
1955,A4,283.0,1.0,127,160.0
1956,C3,283.5,0.25,127,160.0
1957,C2,283.5,0.5,127,160.0
1958,B1,283.5,0.125,127,160.0
1959,G2,283.5,0.125,127,160.0
1960,C2,283.5,0.125,127,160.0
1961,C3,284.0,0.25,127,160.0
1962,C2,284.0,2.5,127,160.0
1963,C2,284.0,4.0,127,160.0
1964,E4,284.0,1.0,127,160.0
1965,B1,284.0,0.125,127,160.0
1966,G2,284.0,0.125,127,160.0
1967,C2,284.0,0.125,127,160.0
1968,G5,284.0,1.0,127,160.0
1969,D5,284.0,1.0,127,160.0
1970,A4,284.0,1.0,127,160.0
1971,C3,285.0,0.25,127,160.0
1972,A4,285.0,0.5,127,160.0
1973,E2,285.0,0.125,127,160.0
1974,E-2,285.0,0.125,127,160.0
1975,G5,285.0,1.0,127,160.0
1976,B4,285.0,1.0,127,160.0
1977,F#4,285.0,1.0,127,160.0
1978,B4,285.5,0.5,127,160.0
1979,C3,286.0,0.25,76,160.0
1980,G1,286.0,0.125,127,160.0
1981,A4,286.0,0.5,127,160.0
1982,G5,286.0,1.0,127,160.0
1983,A4,286.0,1.0,127,160.0
1984,E4,286.0,1.0,127,160.0
1985,C3,286.5,0.25,127,160.0
1986,C2,286.5,1.5,127,160.0
1987,G4,286.5,1.0,127,160.0
1988,B1,286.5,0.125,127,160.0
1989,G2,286.5,0.125,127,160.0
1990,C2,286.5,0.125,127,160.0
1991,C3,287.0,0.25,127,160.0
1992,E2,287.0,0.125,127,160.0
1993,E-2,287.0,0.125,127,160.0
1994,G4,287.0,1.0,127,160.0
1995,G5,287.0,1.0,127,160.0
1996,D4,287.0,1.0,127,160.0
1997,F#2,287.5,0.25,127,160.0
1998,G1,287.5,0.125,127,160.0
1999,D4,287.5,0.5,127,160.0
2000,G1,288.0,1.5,127,160.0
2001,G1,288.0,4.0,127,160.0
2002,D4,288.0,4.0,127,160.0
2003,A5,288.0,0.5,127,160.0
2004,B-2,288.0,0.125,127,160.0
2005,B1,288.0,0.125,127,160.0
2006,G2,288.0,0.125,127,160.0
2007,C2,288.0,0.125,127,160.0
2008,A5,288.0,0.5,127,160.0
2009,A4,288.0,0.5,127,160.0
2010,E5,288.0,0.5,127,160.0
2011,G2,288.5,0.25,127,160.0
2012,A5,288.5,0.5,127,160.0
2013,A5,288.5,0.5,127,160.0
2014,A4,288.5,0.5,127,160.0
2015,E5,288.5,0.5,127,160.0
2016,G2,289.0,0.25,127,160.0
2017,A5,289.0,0.5,127,160.0
2018,E-2,289.0,0.125,127,160.0
2019,E2,289.0,0.125,127,160.0
2020,F#2,289.0,0.125,127,160.0
2021,A5,289.0,0.5,127,160.0
2022,A4,289.0,0.5,127,160.0
2023,E5,289.0,0.5,127,160.0
2024,G1,289.5,2.0,127,160.0
2025,B5,289.5,0.5,127,160.0
2026,B1,289.5,0.125,127,160.0
2027,G2,289.5,0.125,127,160.0
2028,C2,289.5,0.125,127,160.0
2029,B5,289.5,0.5,127,160.0
2030,B4,289.5,0.5,127,160.0
2031,F#5,289.5,0.5,127,160.0
2032,G2,290.0,0.25,127,160.0
2033,G5,290.0,1.0,127,160.0
2034,G5,290.0,1.0,127,160.0
2035,G4,290.0,1.0,127,160.0
2036,D5,290.0,1.0,127,160.0
2037,G1,290.5,0.125,127,160.0
2038,E-2,291.0,0.125,127,160.0
2039,E2,291.0,0.125,127,160.0
2040,G5,291.0,1.0,127,160.0
2041,D5,291.0,1.0,127,160.0
2042,A4,291.0,1.0,127,160.0
2043,G2,291.5,0.25,127,160.0
2044,G1,291.5,0.5,127,160.0
2045,B1,291.5,0.125,127,160.0
2046,G2,291.5,0.125,127,160.0
2047,C2,291.5,0.125,127,160.0
2048,G2,292.0,0.25,127,160.0
2049,G1,292.0,2.5,127,160.0
2050,G1,292.0,4.0,127,160.0
2051,D4,292.0,1.0,127,160.0
2052,B1,292.0,0.125,127,160.0
2053,G2,292.0,0.125,127,160.0
2054,C2,292.0,0.125,127,160.0
2055,G5,292.0,1.0,127,160.0
2056,D5,292.0,1.0,127,160.0
2057,A4,292.0,1.0,127,160.0
2058,G2,293.0,0.25,127,160.0
2059,D4,293.0,0.5,127,160.0
2060,E2,293.0,0.125,127,160.0
2061,E-2,293.0,0.125,127,160.0
2062,G5,293.0,1.0,127,160.0
2063,B4,293.0,1.0,127,160.0
2064,F#4,293.0,1.0,127,160.0
2065,D4,293.5,0.5,127,160.0
2066,G1,294.0,0.125,127,160.0
2067,D4,294.0,0.5,127,160.0
2068,G5,294.0,1.0,127,160.0
2069,A4,294.0,1.0,127,160.0
2070,E4,294.0,1.0,127,160.0
2071,G2,294.5,0.25,127,160.0
2072,G1,294.5,1.5,127,160.0
2073,B3,294.5,1.0,127,160.0
2074,B1,294.5,0.125,127,160.0
2075,G2,294.5,0.125,127,160.0
2076,C2,294.5,0.125,127,160.0
2077,G2,295.0,0.25,127,160.0
2078,E2,295.0,0.125,127,160.0
2079,E-2,295.0,0.125,127,160.0
2080,G4,295.0,1.0,127,160.0
2081,G5,295.0,1.0,127,160.0
2082,D4,295.0,1.0,127,160.0
2083,F#2,295.5,0.25,127,160.0
2084,G1,295.5,0.125,127,160.0
2085,D4,295.5,0.5,127,160.0
2086,G5,295.5,0.5,127,160.0
2087,G1,296.0,1.5,127,160.0
2088,G1,296.0,4.0,127,160.0
2089,D4,296.0,4.0,127,160.0
2090,A5,296.0,0.5,127,160.0
2091,B-2,296.0,0.125,127,160.0
2092,B1,296.0,0.125,127,160.0
2093,G2,296.0,0.125,127,160.0
2094,C2,296.0,0.125,127,160.0
2095,A5,296.0,0.5,127,160.0
2096,A4,296.0,0.5,127,160.0
2097,E5,296.0,0.5,127,160.0
2098,G2,296.5,0.25,127,160.0
2099,B5,296.5,0.5,127,160.0
2100,B5,296.5,0.5,127,160.0
2101,B4,296.5,0.5,127,160.0
2102,F#5,296.5,0.5,127,160.0
2103,G2,297.0,0.25,127,160.0
2104,G5,297.0,1.0,127,160.0
2105,E-2,297.0,0.125,127,160.0
2106,E2,297.0,0.125,127,160.0
2107,F#2,297.0,0.125,127,160.0
2108,G5,297.0,1.0,127,160.0
2109,G4,297.0,1.0,127,160.0
2110,D5,297.0,1.0,127,160.0
2111,G1,297.5,2.0,127,160.0
2112,B1,297.5,0.125,127,160.0
2113,G2,297.5,0.125,127,160.0
2114,C2,297.5,0.125,127,160.0
2115,G2,298.0,0.25,127,160.0
2116,G1,298.5,0.125,127,160.0
2117,G5,298.5,0.5,127,160.0
2118,A5,299.0,0.5,127,160.0
2119,E-2,299.0,0.125,127,160.0
2120,E2,299.0,0.125,127,160.0
2121,A5,299.0,0.5,127,160.0
2122,A4,299.0,0.5,127,160.0
2123,E5,299.0,0.5,127,160.0
2124,G2,299.5,0.25,127,160.0
2125,G1,299.5,0.5,127,160.0
2126,B5,299.5,0.5,127,160.0
2127,B1,299.5,0.125,127,160.0
2128,G2,299.5,0.125,127,160.0
2129,C2,299.5,0.125,127,160.0
2130,B5,299.5,0.5,127,160.0
2131,B4,299.5,0.5,127,160.0
2132,F#5,299.5,0.5,127,160.0
2133,G2,300.0,0.25,127,160.0
2134,G1,300.0,2.5,127,160.0
2135,G1,300.0,4.0,127,160.0
2136,D4,300.0,1.0,127,160.0
2137,G5,300.0,1.0,127,160.0
2138,B1,300.0,0.125,127,160.0
2139,G2,300.0,0.125,127,160.0
2140,C2,300.0,0.125,127,160.0
2141,G5,300.0,1.0,127,160.0
2142,G4,300.0,1.0,127,160.0
2143,D5,300.0,1.0,127,160.0
2144,G2,301.0,0.25,127,160.0
2145,B3,301.0,0.5,127,160.0
2146,E2,301.0,0.125,127,160.0
2147,E-2,301.0,0.125,127,160.0
2148,E1,301.0,0.125,127,160.0
2149,D6,301.0,0.5,127,160.0
2150,A5,301.0,0.5,127,160.0
2151,D5,301.0,0.5,127,160.0
2152,B3,301.5,0.5,127,160.0
2153,E6,301.5,1.0,127,160.0
2154,B5,301.5,1.0,127,160.0
2155,E5,301.5,1.0,127,160.0
2156,G4,302.0,0.5,127,160.0
2157,G1,302.0,0.125,127,160.0
2158,E1,302.0,0.125,127,160.0
2159,E-2,302.0,0.125,127,160.0
2160,G2,302.5,0.25,127,160.0
2161,G1,302.5,1.5,127,160.0
2162,A4,302.5,1.0,127,160.0
2163,B1,302.5,0.125,127,160.0
2164,G2,302.5,0.125,127,160.0
2165,C2,302.5,0.125,127,160.0
2166,G6,302.5,1.0,127,160.0
2167,D6,302.5,1.0,127,160.0
2168,G5,302.5,1.0,127,160.0
2169,G2,303.0,0.25,127,160.0
2170,G5,303.0,1.0,127,160.0
2171,G5,303.0,1.0,127,160.0
2172,E2,303.0,0.125,127,160.0
2173,E-2,303.0,0.125,127,160.0
2174,E1,303.0,0.125,127,160.0
2175,A2,303.5,0.25,127,160.0
2176,G1,303.5,0.125,127,160.0
2177,E4,303.5,0.5,127,160.0
2178,A1,304.0,1.5,127,160.0
2179,A1,304.0,4.0,127,160.0
2180,E4,304.0,4.0,127,160.0
2181,A5,304.0,0.5,127,160.0
2182,B-2,304.0,0.125,127,160.0
2183,B1,304.0,0.125,127,160.0
2184,G2,304.0,0.125,127,160.0
2185,C2,304.0,0.125,127,160.0
2186,A5,304.0,0.5,127,160.0
2187,A4,304.0,0.5,127,160.0
2188,E5,304.0,0.5,127,160.0
2189,A2,304.5,0.25,127,160.0
2190,A5,304.5,0.5,127,160.0
2191,A5,304.5,0.5,127,160.0
2192,A4,304.5,0.5,127,160.0
2193,E5,304.5,0.5,127,160.0
2194,A2,305.0,0.25,127,160.0
2195,A5,305.0,0.5,127,160.0
2196,E-2,305.0,0.125,127,160.0
2197,E2,305.0,0.125,127,160.0
2198,F#2,305.0,0.125,127,160.0
2199,A5,305.0,0.5,127,160.0
2200,A4,305.0,0.5,127,160.0
2201,E5,305.0,0.5,127,160.0
2202,A1,305.5,2.0,127,160.0
2203,B5,305.5,0.5,127,160.0
2204,B1,305.5,0.125,127,160.0
2205,G2,305.5,0.125,127,160.0
2206,C2,305.5,0.125,127,160.0
2207,B5,305.5,0.5,127,160.0
2208,B4,305.5,0.5,127,160.0
2209,F#5,305.5,0.5,127,160.0
2210,A2,306.0,0.25,127,160.0
2211,G5,306.0,1.0,127,160.0
2212,G5,306.0,1.0,127,160.0
2213,G4,306.0,1.0,127,160.0
2214,D5,306.0,1.0,127,160.0
2215,G1,306.5,0.125,127,160.0
2216,A2,307.0,0.25,76,160.0
2217,E-2,307.0,0.125,127,160.0
2218,E2,307.0,0.125,127,160.0
2219,G5,307.0,1.0,127,160.0
2220,D5,307.0,1.0,127,160.0
2221,A4,307.0,1.0,127,160.0
2222,A2,307.5,0.25,127,160.0
2223,A1,307.5,0.5,127,160.0
2224,B1,307.5,0.125,127,160.0
2225,G2,307.5,0.125,127,160.0
2226,C2,307.5,0.125,127,160.0
2227,A2,308.0,0.25,127,160.0
2228,A1,308.0,2.5,127,160.0
2229,A1,308.0,4.0,127,160.0
2230,E4,308.0,1.0,127,160.0
2231,B1,308.0,0.125,127,160.0
2232,G2,308.0,0.125,127,160.0
2233,C2,308.0,0.125,127,160.0
2234,G5,308.0,1.0,127,160.0
2235,D5,308.0,1.0,127,160.0
2236,A4,308.0,1.0,127,160.0
2237,A2,309.0,0.25,127,160.0
2238,A4,309.0,0.5,127,160.0
2239,E2,309.0,0.125,127,160.0
2240,E-2,309.0,0.125,127,160.0
2241,G5,309.0,1.0,127,160.0
2242,B4,309.0,1.0,127,160.0
2243,F#4,309.0,1.0,127,160.0
2244,B4,309.5,0.5,127,160.0
2245,A2,310.0,0.25,76,160.0
2246,G1,310.0,0.125,127,160.0
2247,A4,310.0,0.5,127,160.0
2248,G5,310.0,1.0,127,160.0
2249,A4,310.0,1.0,127,160.0
2250,E4,310.0,1.0,127,160.0
2251,A2,310.5,0.25,127,160.0
2252,A1,310.5,1.5,127,160.0
2253,G4,310.5,1.0,127,160.0
2254,B1,310.5,0.125,127,160.0
2255,G2,310.5,0.125,127,160.0
2256,C2,310.5,0.125,127,160.0
2257,A2,311.0,0.25,127,160.0
2258,E5,311.0,0.5,127,160.0
2259,E2,311.0,0.125,127,160.0
2260,E-2,311.0,0.125,127,160.0
2261,G4,311.0,1.0,127,160.0
2262,G5,311.0,1.0,127,160.0
2263,D4,311.0,1.0,127,160.0
2264,C3,311.5,0.25,127,160.0
2265,G1,311.5,0.125,127,160.0
2266,E4,311.5,0.5,127,160.0
2267,G5,311.5,0.5,127,160.0
2268,C2,312.0,1.5,127,160.0
2269,C2,312.0,4.0,127,160.0
2270,E4,312.0,4.0,127,160.0
2271,A5,312.0,0.5,127,160.0
2272,B-2,312.0,0.125,127,160.0
2273,B1,312.0,0.125,127,160.0
2274,G2,312.0,0.125,127,160.0
2275,C2,312.0,0.125,127,160.0
2276,A5,312.0,0.5,127,160.0
2277,A4,312.0,0.5,127,160.0
2278,E5,312.0,0.5,127,160.0
2279,C3,312.5,0.25,127,160.0
2280,A5,312.5,0.5,127,160.0
2281,A5,312.5,0.5,127,160.0
2282,A4,312.5,0.5,127,160.0
2283,E5,312.5,0.5,127,160.0
2284,C3,313.0,0.25,127,160.0
2285,A5,313.0,0.5,127,160.0
2286,E-2,313.0,0.125,127,160.0
2287,E2,313.0,0.125,127,160.0
2288,F#2,313.0,0.125,127,160.0
2289,A5,313.0,0.5,127,160.0
2290,A4,313.0,0.5,127,160.0
2291,E5,313.0,0.5,127,160.0
2292,C2,313.5,2.0,127,160.0
2293,B5,313.5,0.5,127,160.0
2294,B1,313.5,0.125,127,160.0
2295,G2,313.5,0.125,127,160.0
2296,C2,313.5,0.125,127,160.0
2297,B5,313.5,0.5,127,160.0
2298,B4,313.5,0.5,127,160.0
2299,F#5,313.5,0.5,127,160.0
2300,C3,314.0,0.25,127,160.0
2301,G5,314.0,1.0,127,160.0
2302,G5,314.0,1.0,127,160.0
2303,G4,314.0,1.0,127,160.0
2304,D5,314.0,1.0,127,160.0
2305,G1,314.5,0.125,127,160.0
2306,C3,315.0,0.25,76,160.0
2307,E-2,315.0,0.125,127,160.0
2308,E2,315.0,0.125,127,160.0
2309,G5,315.0,1.0,127,160.0
2310,D5,315.0,1.0,127,160.0
2311,A4,315.0,1.0,127,160.0
2312,C3,315.5,0.25,127,160.0
2313,C2,315.5,0.5,127,160.0
2314,B1,315.5,0.125,127,160.0
2315,G2,315.5,0.125,127,160.0
2316,C2,315.5,0.125,127,160.0
2317,C3,316.0,0.25,127,160.0
2318,C2,316.0,2.5,127,160.0
2319,C2,316.0,4.0,127,160.0
2320,E4,316.0,1.0,127,160.0
2321,B1,316.0,0.125,127,160.0
2322,G2,316.0,0.125,127,160.0
2323,C2,316.0,0.125,127,160.0
2324,G5,316.0,1.0,127,160.0
2325,D5,316.0,1.0,127,160.0
2326,A4,316.0,1.0,127,160.0
2327,C3,317.0,0.25,127,160.0
2328,A4,317.0,0.5,127,160.0
2329,E2,317.0,0.125,127,160.0
2330,E-2,317.0,0.125,127,160.0
2331,G5,317.0,1.0,127,160.0
2332,B4,317.0,1.0,127,160.0
2333,F#4,317.0,1.0,127,160.0
2334,B4,317.5,0.5,127,160.0
2335,C3,318.0,0.25,76,160.0
2336,G1,318.0,0.125,127,160.0
2337,A4,318.0,0.5,127,160.0
2338,G5,318.0,1.0,127,160.0
2339,A4,318.0,1.0,127,160.0
2340,E4,318.0,1.0,127,160.0
2341,C3,318.5,0.25,127,160.0
2342,C2,318.5,1.5,127,160.0
2343,G4,318.5,1.0,127,160.0
2344,B1,318.5,0.125,127,160.0
2345,G2,318.5,0.125,127,160.0
2346,C2,318.5,0.125,127,160.0
2347,C3,319.0,0.25,127,160.0
2348,E5,319.0,0.5,127,160.0
2349,E2,319.0,0.125,127,160.0
2350,E-2,319.0,0.125,127,160.0
2351,G4,319.0,1.0,127,160.0
2352,G5,319.0,1.0,127,160.0
2353,D4,319.0,1.0,127,160.0
2354,F#2,319.5,0.25,127,160.0
2355,G1,319.5,0.125,127,160.0
2356,D4,319.5,0.5,127,160.0
2357,G5,319.5,0.5,127,160.0
2358,G1,320.0,1.5,127,160.0
2359,G1,320.0,4.0,127,160.0
2360,D4,320.0,4.0,127,160.0
2361,A5,320.0,0.5,127,160.0
2362,B-2,320.0,0.125,127,160.0
2363,B1,320.0,0.125,127,160.0
2364,G2,320.0,0.125,127,160.0
2365,C2,320.0,0.125,127,160.0
2366,A5,320.0,0.5,127,160.0
2367,A4,320.0,0.5,127,160.0
2368,E5,320.0,0.5,127,160.0
2369,G2,320.5,0.25,127,160.0
2370,A5,320.5,0.5,127,160.0
2371,A5,320.5,0.5,127,160.0
2372,A4,320.5,0.5,127,160.0
2373,E5,320.5,0.5,127,160.0
2374,G2,321.0,0.25,127,160.0
2375,A5,321.0,0.5,127,160.0
2376,E-2,321.0,0.125,127,160.0
2377,E2,321.0,0.125,127,160.0
2378,F#2,321.0,0.125,127,160.0
2379,A5,321.0,0.5,127,160.0
2380,A4,321.0,0.5,127,160.0
2381,E5,321.0,0.5,127,160.0
2382,G1,321.5,2.0,127,160.0
2383,B5,321.5,0.5,127,160.0
2384,B1,321.5,0.125,127,160.0
2385,G2,321.5,0.125,127,160.0
2386,C2,321.5,0.125,127,160.0
2387,B5,321.5,0.5,127,160.0
2388,B4,321.5,0.5,127,160.0
2389,F#5,321.5,0.5,127,160.0
2390,G2,322.0,0.25,127,160.0
2391,G5,322.0,1.0,127,160.0
2392,G5,322.0,1.0,127,160.0
2393,G4,322.0,1.0,127,160.0
2394,D5,322.0,1.0,127,160.0
2395,G1,322.5,0.125,127,160.0
2396,E-2,323.0,0.125,127,160.0
2397,E2,323.0,0.125,127,160.0
2398,G5,323.0,1.0,127,160.0
2399,D5,323.0,1.0,127,160.0
2400,A4,323.0,1.0,127,160.0
2401,G2,323.5,0.25,127,160.0
2402,G1,323.5,0.5,127,160.0
2403,B1,323.5,0.125,127,160.0
2404,G2,323.5,0.125,127,160.0
2405,C2,323.5,0.125,127,160.0
2406,G2,324.0,0.25,127,160.0
2407,G1,324.0,2.5,127,160.0
2408,G1,324.0,4.0,127,160.0
2409,D4,324.0,1.0,127,160.0
2410,B1,324.0,0.125,127,160.0
2411,G2,324.0,0.125,127,160.0
2412,C2,324.0,0.125,127,160.0
2413,G5,324.0,1.0,127,160.0
2414,D5,324.0,1.0,127,160.0
2415,A4,324.0,1.0,127,160.0
2416,G2,325.0,0.25,127,160.0
2417,D4,325.0,0.5,127,160.0
2418,E2,325.0,0.125,127,160.0
2419,E-2,325.0,0.125,127,160.0
2420,G5,325.0,1.0,127,160.0
2421,B4,325.0,1.0,127,160.0
2422,F#4,325.0,1.0,127,160.0
2423,D4,325.5,0.5,127,160.0
2424,G1,326.0,0.125,127,160.0
2425,D4,326.0,0.5,127,160.0
2426,G5,326.0,1.0,127,160.0
2427,A4,326.0,1.0,127,160.0
2428,E4,326.0,1.0,127,160.0
2429,G2,326.5,0.25,127,160.0
2430,G1,326.5,1.5,127,160.0
2431,B3,326.5,1.0,127,160.0
2432,B1,326.5,0.125,127,160.0
2433,G2,326.5,0.125,127,160.0
2434,C2,326.5,0.125,127,160.0
2435,G2,327.0,0.25,127,160.0
2436,E2,327.0,0.125,127,160.0
2437,E-2,327.0,0.125,127,160.0
2438,G4,327.0,1.0,127,160.0
2439,G5,327.0,1.0,127,160.0
2440,D4,327.0,1.0,127,160.0
2441,F#2,327.5,0.25,127,160.0
2442,G1,327.5,0.125,127,160.0
2443,D4,327.5,0.5,127,160.0
2444,G5,327.5,0.5,127,160.0
2445,G1,328.0,1.5,127,160.0
2446,G1,328.0,4.0,127,160.0
2447,D4,328.0,4.0,127,160.0
2448,A5,328.0,0.5,127,160.0
2449,B-2,328.0,0.125,127,160.0
2450,B1,328.0,0.125,127,160.0
2451,G2,328.0,0.125,127,160.0
2452,C2,328.0,0.125,127,160.0
2453,A5,328.0,0.5,127,160.0
2454,A4,328.0,0.5,127,160.0
2455,E5,328.0,0.5,127,160.0
2456,G2,328.5,0.25,127,160.0
2457,B5,328.5,0.5,127,160.0
2458,B5,328.5,0.5,127,160.0
2459,B4,328.5,0.5,127,160.0
2460,F#5,328.5,0.5,127,160.0
2461,G2,329.0,0.25,127,160.0
2462,G5,329.0,1.0,127,160.0
2463,E-2,329.0,0.125,127,160.0
2464,E2,329.0,0.125,127,160.0
2465,F#2,329.0,0.125,127,160.0
2466,G5,329.0,1.0,127,160.0
2467,G4,329.0,1.0,127,160.0
2468,D5,329.0,1.0,127,160.0
2469,G1,329.5,2.0,127,160.0
2470,B1,329.5,0.125,127,160.0
2471,G2,329.5,0.125,127,160.0
2472,C2,329.5,0.125,127,160.0
2473,G2,330.0,0.25,127,160.0
2474,G1,330.5,0.125,127,160.0
2475,G5,330.5,0.5,127,160.0
2476,A5,331.0,0.5,127,160.0
2477,E-2,331.0,0.125,127,160.0
2478,E2,331.0,0.125,127,160.0
2479,A5,331.0,0.5,127,160.0
2480,A4,331.0,0.5,127,160.0
2481,E5,331.0,0.5,127,160.0
2482,G2,331.5,0.25,127,160.0
2483,G1,331.5,0.5,127,160.0
2484,B5,331.5,0.5,127,160.0
2485,B1,331.5,0.125,127,160.0
2486,G2,331.5,0.125,127,160.0
2487,C2,331.5,0.125,127,160.0
2488,B5,331.5,0.5,127,160.0
2489,B4,331.5,0.5,127,160.0
2490,F#5,331.5,0.5,127,160.0
2491,G2,332.0,0.25,127,160.0
2492,G1,332.0,2.5,127,160.0
2493,G1,332.0,4.0,127,160.0
2494,D4,332.0,1.0,127,160.0
2495,G5,332.0,1.0,127,160.0
2496,B1,332.0,0.125,127,160.0
2497,G2,332.0,0.125,127,160.0
2498,C2,332.0,0.125,127,160.0
2499,G5,332.0,1.0,127,160.0
2500,G4,332.0,1.0,127,160.0
2501,D5,332.0,1.0,127,160.0
2502,G2,333.0,0.25,127,160.0
2503,B3,333.0,0.5,127,160.0
2504,B4,333.0,0.5,127,160.0
2505,E2,333.0,0.125,127,160.0
2506,E-2,333.0,0.125,127,160.0
2507,E1,333.0,0.125,127,160.0
2508,D6,333.0,0.5,127,160.0
2509,A5,333.0,0.5,127,160.0
2510,D5,333.0,0.5,127,160.0
2511,B3,333.5,0.5,127,160.0
2512,B4,333.5,0.5,127,160.0
2513,E6,333.5,1.0,127,160.0
2514,B5,333.5,1.0,127,160.0
2515,E5,333.5,1.0,127,160.0
2516,G4,334.0,0.5,127,160.0
2517,G5,334.0,0.5,127,160.0
2518,G1,334.0,0.125,127,160.0
2519,E1,334.0,0.125,127,160.0
2520,E-2,334.0,0.125,127,160.0
2521,G2,334.5,0.25,127,160.0
2522,G1,334.5,1.5,127,160.0
2523,A4,334.5,1.0,127,160.0
2524,A5,334.5,1.0,127,160.0
2525,B1,334.5,0.125,127,160.0
2526,G2,334.5,0.125,127,160.0
2527,C2,334.5,0.125,127,160.0
2528,G6,334.5,1.0,127,160.0
2529,D6,334.5,1.0,127,160.0
2530,G5,334.5,1.0,127,160.0
2531,G2,335.0,0.25,127,160.0
2532,E2,335.0,0.125,127,160.0
2533,E-2,335.0,0.125,127,160.0
2534,E1,335.0,0.125,127,160.0
2535,A2,335.5,0.25,127,160.0
2536,G1,335.5,0.125,127,160.0
2537,E4,335.5,0.5,127,160.0
2538,E5,335.5,0.5,127,160.0
2539,A1,336.0,1.5,127,160.0
2540,A1,336.0,4.0,127,160.0
2541,E4,336.0,4.0,127,160.0
2542,E5,336.0,4.0,127,160.0
2543,B-2,336.0,0.125,127,160.0
2544,B1,336.0,0.125,127,160.0
2545,G2,336.0,0.125,127,160.0
2546,C2,336.0,0.125,127,160.0
2547,A5,336.0,4.0,127,160.0
2548,E5,336.0,4.0,127,160.0
2549,C6,336.0,4.0,127,160.0
2550,A3,336.0,4.0,127,160.0
2551,C6,336.0,0.5,127,160.0
2552,C5,336.0,0.5,127,160.0
2553,G5,336.0,0.5,127,160.0
2554,A2,336.5,0.25,127,160.0
2555,D6,336.5,0.5,127,160.0
2556,D5,336.5,0.5,127,160.0
2557,A5,336.5,0.5,127,160.0
2558,A2,337.0,0.25,127,160.0
2559,E-2,337.0,0.125,127,160.0
2560,E2,337.0,0.125,127,160.0
2561,F#2,337.0,0.125,127,160.0
2562,D5,337.0,1.0,127,160.0
2563,G5,337.0,1.0,127,160.0
2564,G4,337.0,1.0,127,160.0
2565,A1,337.5,2.0,127,160.0
2566,B1,337.5,0.125,127,160.0
2567,G2,337.5,0.125,127,160.0
2568,C2,337.5,0.125,127,160.0
2569,A2,338.0,0.25,127,160.0
2570,G1,338.5,0.125,127,160.0
2571,G5,338.5,0.5,127,160.0
2572,G4,338.5,0.5,127,160.0
2573,D5,338.5,0.5,127,160.0
2574,A2,339.0,0.25,76,160.0
2575,E-2,339.0,0.125,127,160.0
2576,E2,339.0,0.125,127,160.0
2577,G5,339.0,0.5,127,160.0
2578,C6,339.0,0.5,127,160.0
2579,C5,339.0,0.5,127,160.0
2580,A2,339.5,0.25,127,160.0
2581,A1,339.5,0.5,127,160.0
2582,B1,339.5,0.125,127,160.0
2583,G2,339.5,0.125,127,160.0
2584,C2,339.5,0.125,127,160.0
2585,D6,339.5,0.5,127,160.0
2586,A5,339.5,0.5,127,160.0
2587,D5,339.5,0.5,127,160.0
2588,A2,340.0,0.25,127,160.0
2589,A1,340.0,2.5,127,160.0
2590,A1,340.0,4.0,127,160.0
2591,E4,340.0,1.0,127,160.0
2592,E5,340.0,1.0,127,160.0
2593,B1,340.0,0.125,127,160.0
2594,G2,340.0,0.125,127,160.0
2595,C2,340.0,0.125,127,160.0
2596,G5,340.0,1.0,127,160.0
2597,D5,340.0,1.0,127,160.0
2598,G4,340.0,1.0,127,160.0
2599,A2,341.0,0.25,127,160.0
2600,A4,341.0,0.5,127,160.0
2601,A5,341.0,0.5,127,160.0
2602,E2,341.0,0.125,127,160.0
2603,E-2,341.0,0.125,127,160.0
2604,B4,341.5,0.5,127,160.0
2605,B5,341.5,0.5,127,160.0
2606,G5,341.5,0.5,127,160.0
2607,D5,341.5,0.5,127,160.0
2608,G4,341.5,0.5,127,160.0
2609,A2,342.0,0.25,76,160.0
2610,G1,342.0,0.125,127,160.0
2611,A4,342.0,0.5,127,160.0
2612,A5,342.0,0.5,127,160.0
2613,A2,342.5,0.25,127,160.0
2614,A1,342.5,1.5,127,160.0
2615,G4,342.5,1.0,127,160.0
2616,G5,342.5,1.0,127,160.0
2617,B1,342.5,0.125,127,160.0
2618,G2,342.5,0.125,127,160.0
2619,C2,342.5,0.125,127,160.0
2620,G5,342.5,0.5,127,160.0
2621,D5,342.5,0.5,127,160.0
2622,G4,342.5,0.5,127,160.0
2623,A2,343.0,0.25,127,160.0
2624,E2,343.0,0.125,127,160.0
2625,E-2,343.0,0.125,127,160.0
2626,C3,343.5,0.25,127,160.0
2627,G1,343.5,0.125,127,160.0
2628,E4,343.5,0.5,127,160.0
2629,E5,343.5,0.5,127,160.0
2630,G5,343.5,0.5,127,160.0
2631,D5,343.5,0.5,127,160.0
2632,G4,343.5,0.5,127,160.0
2633,C2,344.0,1.5,127,160.0
2634,C2,344.0,4.0,127,160.0
2635,E4,344.0,4.0,127,160.0
2636,E5,344.0,4.0,127,160.0
2637,B-2,344.0,0.125,127,160.0
2638,B1,344.0,0.125,127,160.0
2639,G2,344.0,0.125,127,160.0
2640,C2,344.0,0.125,127,160.0
2641,A5,344.0,4.0,127,160.0
2642,E5,344.0,4.0,127,160.0
2643,C6,344.0,4.0,127,160.0
2644,A3,344.0,4.0,127,160.0
2645,C6,344.0,0.5,127,160.0
2646,C5,344.0,0.5,127,160.0
2647,G5,344.0,0.5,127,160.0
2648,C3,344.5,0.25,127,160.0
2649,D6,344.5,0.5,127,160.0
2650,D5,344.5,0.5,127,160.0
2651,A5,344.5,0.5,127,160.0
2652,C3,345.0,0.25,127,160.0
2653,E-2,345.0,0.125,127,160.0
2654,E2,345.0,0.125,127,160.0
2655,F#2,345.0,0.125,127,160.0
2656,D5,345.0,1.0,127,160.0
2657,G5,345.0,1.0,127,160.0
2658,G4,345.0,1.0,127,160.0
2659,C2,345.5,2.0,127,160.0
2660,B1,345.5,0.125,127,160.0
2661,G2,345.5,0.125,127,160.0
2662,C2,345.5,0.125,127,160.0
2663,C3,346.0,0.25,127,160.0
2664,G1,346.5,0.125,127,160.0
2665,G5,346.5,0.5,127,160.0
2666,G4,346.5,0.5,127,160.0
2667,D5,346.5,0.5,127,160.0
2668,C3,347.0,0.25,76,160.0
2669,E-2,347.0,0.125,127,160.0
2670,E2,347.0,0.125,127,160.0
2671,G5,347.0,0.5,127,160.0
2672,C6,347.0,0.5,127,160.0
2673,C5,347.0,0.5,127,160.0
2674,C3,347.5,0.25,127,160.0
2675,C2,347.5,0.5,127,160.0
2676,B1,347.5,0.125,127,160.0
2677,G2,347.5,0.125,127,160.0
2678,C2,347.5,0.125,127,160.0
2679,D6,347.5,0.5,127,160.0
2680,A5,347.5,0.5,127,160.0
2681,D5,347.5,0.5,127,160.0
2682,C3,348.0,0.25,127,160.0
2683,C2,348.0,2.5,127,160.0
2684,C2,348.0,4.0,127,160.0
2685,E4,348.0,1.0,127,160.0
2686,E5,348.0,1.0,127,160.0
2687,B1,348.0,0.125,127,160.0
2688,G2,348.0,0.125,127,160.0
2689,C2,348.0,0.125,127,160.0
2690,E5,348.0,4.0,127,160.0
2691,G5,348.0,4.0,127,160.0
2692,C6,348.0,4.0,127,160.0
2693,C4,348.0,4.0,127,160.0
2694,G5,348.0,1.0,127,160.0
2695,D5,348.0,1.0,127,160.0
2696,G4,348.0,1.0,127,160.0
2697,C3,349.0,0.25,127,160.0
2698,A4,349.0,0.5,127,160.0
2699,A5,349.0,0.5,127,160.0
2700,E2,349.0,0.125,127,160.0
2701,E-2,349.0,0.125,127,160.0
2702,B4,349.5,0.5,127,160.0
2703,B5,349.5,0.5,127,160.0
2704,G5,349.5,0.5,127,160.0
2705,D5,349.5,0.5,127,160.0
2706,G4,349.5,0.5,127,160.0
2707,C3,350.0,0.25,76,160.0
2708,G1,350.0,0.125,127,160.0
2709,A4,350.0,0.5,127,160.0
2710,A5,350.0,0.5,127,160.0
2711,C3,350.5,0.25,127,160.0
2712,C2,350.5,1.5,127,160.0
2713,G4,350.5,1.0,127,160.0
2714,G5,350.5,1.0,127,160.0
2715,B1,350.5,0.125,127,160.0
2716,G2,350.5,0.125,127,160.0
2717,C2,350.5,0.125,127,160.0
2718,G4,350.5,0.5,127,160.0
2719,D5,350.5,0.5,127,160.0
2720,G5,350.5,0.5,127,160.0
2721,C3,351.0,0.25,127,160.0
2722,E2,351.0,0.125,127,160.0
2723,E-2,351.0,0.125,127,160.0
2724,F#2,351.5,0.25,127,160.0
2725,G1,351.5,0.125,127,160.0
2726,D4,351.5,0.5,127,160.0
2727,D5,351.5,0.5,127,160.0
2728,G4,351.5,0.5,127,160.0
2729,G5,351.5,0.5,127,160.0
2730,D5,351.5,0.5,127,160.0
2731,G1,352.0,1.5,127,160.0
2732,G1,352.0,4.0,127,160.0
2733,D4,352.0,4.0,127,160.0
2734,D5,352.0,4.0,127,160.0
2735,B-2,352.0,0.125,127,160.0
2736,B1,352.0,0.125,127,160.0
2737,G2,352.0,0.125,127,160.0
2738,C2,352.0,0.125,127,160.0
2739,C6,352.0,0.5,127,160.0
2740,C5,352.0,0.5,127,160.0
2741,G5,352.0,0.5,127,160.0
2742,G2,352.5,0.25,127,160.0
2743,D6,352.5,0.5,127,160.0
2744,D5,352.5,0.5,127,160.0
2745,A5,352.5,0.5,127,160.0
2746,G2,353.0,0.25,127,160.0
2747,E-2,353.0,0.125,127,160.0
2748,E2,353.0,0.125,127,160.0
2749,F#2,353.0,0.125,127,160.0
2750,D5,353.0,1.0,127,160.0
2751,G5,353.0,1.0,127,160.0
2752,G4,353.0,1.0,127,160.0
2753,G1,353.5,2.0,127,160.0
2754,B1,353.5,0.125,127,160.0
2755,G2,353.5,0.125,127,160.0
2756,C2,353.5,0.125,127,160.0
2757,G2,354.0,0.25,127,160.0
2758,G1,354.5,0.125,127,160.0
2759,G5,354.5,0.5,127,160.0
2760,G4,354.5,0.5,127,160.0
2761,D5,354.5,0.5,127,160.0
2762,E-2,355.0,0.125,127,160.0
2763,E2,355.0,0.125,127,160.0
2764,G5,355.0,0.5,127,160.0
2765,C6,355.0,0.5,127,160.0
2766,C5,355.0,0.5,127,160.0
2767,G2,355.5,0.25,127,160.0
2768,G1,355.5,0.5,127,160.0
2769,B1,355.5,0.125,127,160.0
2770,G2,355.5,0.125,127,160.0
2771,C2,355.5,0.125,127,160.0
2772,D6,355.5,0.5,127,160.0
2773,A5,355.5,0.5,127,160.0
2774,D5,355.5,0.5,127,160.0
2775,G2,356.0,0.25,127,160.0
2776,G1,356.0,2.5,127,160.0
2777,G1,356.0,4.0,127,160.0
2778,D4,356.0,1.0,127,160.0
2779,D5,356.0,1.0,127,160.0
2780,B1,356.0,0.125,127,160.0
2781,G2,356.0,0.125,127,160.0
2782,C2,356.0,0.125,127,160.0
2783,E5,356.0,4.0,127,160.0
2784,G5,356.0,4.0,127,160.0
2785,C6,356.0,4.0,127,160.0
2786,C4,356.0,4.0,127,160.0
2787,G5,356.0,1.0,127,160.0
2788,D5,356.0,1.0,127,160.0
2789,G4,356.0,1.0,127,160.0
2790,G2,357.0,0.25,127,160.0
2791,D4,357.0,0.5,127,160.0
2792,D5,357.0,0.5,127,160.0
2793,E2,357.0,0.125,127,160.0
2794,E-2,357.0,0.125,127,160.0
2795,D4,357.5,0.5,127,160.0
2796,D5,357.5,0.5,127,160.0
2797,G5,357.5,0.5,127,160.0
2798,D5,357.5,0.5,127,160.0
2799,G4,357.5,0.5,127,160.0
2800,G1,358.0,0.125,127,160.0
2801,D4,358.0,0.5,127,160.0
2802,D5,358.0,0.5,127,160.0
2803,G2,358.5,0.25,127,160.0
2804,G1,358.5,1.5,127,160.0
2805,B3,358.5,1.0,127,160.0
2806,B4,358.5,1.0,127,160.0
2807,B1,358.5,0.125,127,160.0
2808,G2,358.5,0.125,127,160.0
2809,C2,358.5,0.125,127,160.0
2810,G4,358.5,0.5,127,160.0
2811,G5,358.5,0.5,127,160.0
2812,D5,358.5,0.5,127,160.0
2813,G2,359.0,0.25,127,160.0
2814,E2,359.0,0.125,127,160.0
2815,E-2,359.0,0.125,127,160.0
2816,F#2,359.5,0.25,127,160.0
2817,G1,359.5,0.125,127,160.0
2818,D4,359.5,0.5,127,160.0
2819,D5,359.5,0.5,127,160.0
2820,G4,359.5,0.5,127,160.0
2821,D5,359.5,0.5,127,160.0
2822,G5,359.5,0.5,127,160.0
2823,G1,360.0,1.5,127,160.0
2824,G1,360.0,4.0,127,160.0
2825,D4,360.0,4.0,127,160.0
2826,D5,360.0,4.0,127,160.0
2827,B-2,360.0,0.125,127,160.0
2828,B1,360.0,0.125,127,160.0
2829,G2,360.0,0.125,127,160.0
2830,C2,360.0,0.125,127,160.0
2831,D5,360.0,4.0,127,160.0
2832,G5,360.0,4.0,127,160.0
2833,B5,360.0,4.0,127,160.0
2834,G3,360.0,4.0,127,160.0
2835,C6,360.0,0.5,127,160.0
2836,C5,360.0,0.5,127,160.0
2837,G5,360.0,0.5,127,160.0
2838,G2,360.5,0.25,127,160.0
2839,D6,360.5,0.5,127,160.0
2840,D5,360.5,0.5,127,160.0
2841,A5,360.5,0.5,127,160.0
2842,G2,361.0,0.25,127,160.0
2843,E-2,361.0,0.125,127,160.0
2844,E2,361.0,0.125,127,160.0
2845,F#2,361.0,0.125,127,160.0
2846,D5,361.0,1.0,127,160.0
2847,G5,361.0,1.0,127,160.0
2848,G4,361.0,1.0,127,160.0
2849,G1,361.5,2.0,127,160.0
2850,B1,361.5,0.125,127,160.0
2851,G2,361.5,0.125,127,160.0
2852,C2,361.5,0.125,127,160.0
2853,G2,362.0,0.25,127,160.0
2854,G1,362.5,0.125,127,160.0
2855,G5,362.5,0.5,127,160.0
2856,G4,362.5,0.5,127,160.0
2857,D5,362.5,0.5,127,160.0
2858,E-2,363.0,0.125,127,160.0
2859,E2,363.0,0.125,127,160.0
2860,G5,363.0,0.5,127,160.0
2861,C6,363.0,0.5,127,160.0
2862,C5,363.0,0.5,127,160.0
2863,G2,363.5,0.25,127,160.0
2864,G1,363.5,0.5,127,160.0
2865,B1,363.5,0.125,127,160.0
2866,G2,363.5,0.125,127,160.0
2867,C2,363.5,0.125,127,160.0
2868,D6,363.5,0.5,127,160.0
2869,A5,363.5,0.5,127,160.0
2870,D5,363.5,0.5,127,160.0
2871,G2,364.0,0.25,127,160.0
2872,G1,364.0,2.5,127,160.0
2873,G1,364.0,4.0,127,160.0
2874,D4,364.0,1.0,127,160.0
2875,D5,364.0,1.0,127,160.0
2876,B1,364.0,0.125,127,160.0
2877,G2,364.0,0.125,127,160.0
2878,C2,364.0,0.125,127,160.0
2879,G5,364.0,1.0,127,160.0
2880,D5,364.0,1.0,127,160.0
2881,G4,364.0,1.0,127,160.0
2882,G2,365.0,0.25,127,160.0
2883,B3,365.0,0.5,127,160.0
2884,E2,365.0,0.125,127,160.0
2885,E-2,365.0,0.125,127,160.0
2886,E1,365.0,0.125,127,160.0
2887,B4,365.0,0.5,127,160.0
2888,B5,365.0,0.5,127,160.0
2889,D6,365.0,0.5,127,160.0
2890,A5,365.0,0.5,127,160.0
2891,D5,365.0,0.5,127,160.0
2892,E4,365.5,1.0,127,160.0
2893,E5,365.5,1.0,127,160.0
2894,E6,365.5,1.0,127,160.0
2895,E6,365.5,1.0,127,160.0
2896,B5,365.5,1.0,127,160.0
2897,E5,365.5,1.0,127,160.0
2898,G1,366.0,0.125,127,160.0
2899,E1,366.0,0.125,127,160.0
2900,E-2,366.0,0.125,127,160.0
2901,G2,366.5,0.25,127,160.0
2902,G1,366.5,1.5,127,160.0
2903,G4,366.5,1.5,127,160.0
2904,B1,366.5,0.125,127,160.0
2905,G2,366.5,0.125,127,160.0
2906,C2,366.5,0.125,127,160.0
2907,G5,366.5,1.5,127,160.0
2908,G6,366.5,1.5,127,160.0
2909,G6,366.5,1.0,127,160.0
2910,D6,366.5,1.0,127,160.0
2911,G5,366.5,1.0,127,160.0
2912,G2,367.0,0.25,127,160.0
2913,E2,367.0,0.125,127,160.0
2914,E-2,367.0,0.125,127,160.0
2915,E1,367.0,0.125,127,160.0
2916,G1,367.5,0.125,127,160.0
2917,B1,367.5,0.125,127,160.0
2918,C2,367.5,0.125,127,160.0
2919,F2,367.5,0.125,127,160.0
2920,B1,368.0,0.125,127,160.0
2921,E2,369.0,0.125,127,160.0
2922,E-2,369.0,0.125,127,160.0
2923,E-2,369.5,0.125,127,160.0
2924,B1,369.5,0.125,127,160.0
2925,E-2,371.0,0.125,127,160.0
2926,E2,371.0,0.125,127,160.0
2927,B1,371.5,0.125,127,160.0
2928,B1,372.0,0.125,127,160.0
2929,E2,373.0,0.125,127,160.0
2930,E-2,373.0,0.125,127,160.0
2931,E-2,373.5,0.125,127,160.0
2932,B1,374.5,0.125,127,160.0
2933,E-2,375.0,0.125,127,160.0
2934,E2,375.0,0.125,127,160.0
2935,B1,376.0,0.125,127,160.0
2936,D5,376.0,4.0,127,160.0
2937,G5,376.0,4.0,127,160.0
2938,B5,376.0,4.0,127,160.0
2939,G3,376.0,4.0,127,160.0
2940,E-2,377.0,0.125,127,160.0
2941,E2,377.0,0.125,127,160.0
2942,E-2,377.5,0.125,127,160.0
2943,B1,377.5,0.125,127,160.0
2944,E-2,379.0,0.125,127,160.0
2945,E2,379.0,0.125,127,160.0
2946,B1,379.5,0.125,127,160.0
2947,B1,380.0,0.125,127,160.0
2948,E-2,381.0,0.125,127,160.0
2949,E2,381.0,0.125,127,160.0
2950,E-2,381.5,0.125,127,160.0
2951,B1,382.5,0.125,127,160.0
2952,E-2,383.0,0.125,127,160.0
2953,E2,383.0,0.125,127,160.0
2954,B1,383.5,0.125,127,160.0
2955,B1,384.0,0.125,127,160.0
2956,E2,385.0,0.125,127,160.0
2957,E-2,385.0,0.125,127,160.0
2958,E-2,385.5,0.125,127,160.0
2959,B1,385.5,0.125,127,160.0
2960,E-2,387.0,0.125,127,160.0
2961,E2,387.0,0.125,127,160.0
2962,B1,387.5,0.125,127,160.0
2963,B1,388.0,0.125,127,160.0
2964,D5,388.0,4.0,127,160.0
2965,G5,388.0,4.0,127,160.0
2966,B5,388.0,4.0,127,160.0
2967,G3,388.0,4.0,127,160.0
2968,E2,389.0,0.125,127,160.0
2969,E-2,389.0,0.125,127,160.0
2970,E-2,389.5,0.125,127,160.0
2971,B1,390.5,0.125,127,160.0
2972,E-2,391.0,0.125,127,160.0
2973,E2,391.0,0.125,127,160.0
2974,B1,392.0,0.125,127,160.0
2975,E-2,393.0,0.125,127,160.0
2976,E2,393.0,0.125,127,160.0
2977,E-2,393.5,0.125,127,160.0
2978,B1,393.5,0.125,127,160.0
2979,E-2,395.0,0.125,127,160.0
2980,E2,395.0,0.125,127,160.0
2981,B1,395.5,0.125,127,160.0
2982,B1,396.0,0.125,127,160.0
2983,D5,396.0,4.0,127,160.0
2984,G5,396.0,4.0,127,160.0
2985,B5,396.0,4.0,127,160.0
2986,G3,396.0,4.0,127,160.0
2987,E-2,397.0,0.125,127,160.0
2988,E2,397.0,0.125,127,160.0
2989,E1,397.0,0.125,127,160.0
2990,E-2,397.5,0.125,127,160.0
2991,E-2,398.0,0.125,127,160.0
2992,E1,398.0,0.125,127,160.0
2993,B1,398.5,0.125,127,160.0
2994,E-2,399.0,0.125,127,160.0
2995,E2,399.0,0.125,127,160.0
2996,E1,399.0,0.125,127,160.0
2997,B1,399.5,0.125,127,160.0
2998,B-2,400.0,0.125,127,160.0
2999,B1,400.0,0.125,127,160.0
3000,G2,400.0,0.125,127,160.0
3001,C2,400.0,0.125,127,160.0
3002,A5,400.0,4.0,127,160.0
3003,E5,400.0,4.0,127,160.0
3004,C6,400.0,4.0,127,160.0
3005,A3,400.0,4.0,127,160.0
3006,E-2,401.0,0.125,127,160.0
3007,E2,401.0,0.125,127,160.0
3008,F#2,401.0,0.125,127,160.0
3009,B1,401.5,0.125,127,160.0
3010,G2,401.5,0.125,127,160.0
3011,C2,401.5,0.125,127,160.0
3012,E-2,401.5,0.125,127,160.0
3013,E-5,402.0,0.125,127,160.0
3014,G#5,402.0,0.125,127,160.0
3015,G1,402.5,0.125,127,160.0
3016,E-2,403.0,0.125,127,160.0
3017,E2,403.0,0.125,127,160.0
3018,B1,403.5,0.125,127,160.0
3019,G2,403.5,0.125,127,160.0
3020,C2,403.5,0.125,127,160.0
3021,B1,404.0,0.125,127,160.0
3022,G2,404.0,0.125,127,160.0
3023,C2,404.0,0.125,127,160.0
3024,E-5,404.0,0.125,127,160.0
3025,G#5,404.0,0.125,127,160.0
3026,E2,405.0,0.125,127,160.0
3027,E-2,405.0,0.125,127,160.0
3028,E-5,405.0,0.125,127,160.0
3029,G#5,405.0,0.125,127,160.0
3030,E-2,405.5,0.125,127,160.0
3031,G1,406.0,0.125,127,160.0
3032,B1,406.5,0.125,127,160.0
3033,G2,406.5,0.125,127,160.0
3034,C2,406.5,0.125,127,160.0
3035,E2,407.0,0.125,127,160.0
3036,E-2,407.0,0.125,127,160.0
3037,G1,407.5,0.125,127,160.0
3038,E-5,407.5,0.125,127,160.0
3039,G#5,407.5,0.125,127,160.0
3040,B-2,408.0,0.125,127,160.0
3041,B1,408.0,0.125,127,160.0
3042,G2,408.0,0.125,127,160.0
3043,C2,408.0,0.125,127,160.0
3044,A5,408.0,4.0,127,160.0
3045,E5,408.0,4.0,127,160.0
3046,C6,408.0,4.0,127,160.0
3047,A3,408.0,4.0,127,160.0
3048,E-2,409.0,0.125,127,160.0
3049,E2,409.0,0.125,127,160.0
3050,F#2,409.0,0.125,127,160.0
3051,B1,409.5,0.125,127,160.0
3052,G2,409.5,0.125,127,160.0
3053,C2,409.5,0.125,127,160.0
3054,E-2,409.5,0.125,127,160.0
3055,E-5,410.0,0.125,127,160.0
3056,G#5,410.0,0.125,127,160.0
3057,G1,410.5,0.125,127,160.0
3058,E-2,411.0,0.125,127,160.0
3059,E2,411.0,0.125,127,160.0
3060,B1,411.5,0.125,127,160.0
3061,G2,411.5,0.125,127,160.0
3062,C2,411.5,0.125,127,160.0
3063,B1,412.0,0.125,127,160.0
3064,G2,412.0,0.125,127,160.0
3065,C2,412.0,0.125,127,160.0
3066,E-5,412.0,0.125,127,160.0
3067,G#5,412.0,0.125,127,160.0
3068,E5,412.0,4.0,127,160.0
3069,G5,412.0,4.0,127,160.0
3070,C6,412.0,4.0,127,160.0
3071,C4,412.0,4.0,127,160.0
3072,E2,413.0,0.125,127,160.0
3073,E-2,413.0,0.125,127,160.0
3074,E-5,413.0,0.125,127,160.0
3075,G#5,413.0,0.125,127,160.0
3076,E-2,413.5,0.125,127,160.0
3077,G1,414.0,0.125,127,160.0
3078,B1,414.5,0.125,127,160.0
3079,G2,414.5,0.125,127,160.0
3080,C2,414.5,0.125,127,160.0
3081,E2,415.0,0.125,127,160.0
3082,E-2,415.0,0.125,127,160.0
3083,G1,415.5,0.125,127,160.0
3084,E-5,415.5,0.125,127,160.0
3085,G#5,415.5,0.125,127,160.0
3086,B-2,416.0,0.125,127,160.0
3087,B1,416.0,0.125,127,160.0
3088,G2,416.0,0.125,127,160.0
3089,C2,416.0,0.125,127,160.0
3090,E-2,417.0,0.125,127,160.0
3091,E2,417.0,0.125,127,160.0
3092,F#2,417.0,0.125,127,160.0
3093,B1,417.5,0.125,127,160.0
3094,G2,417.5,0.125,127,160.0
3095,C2,417.5,0.125,127,160.0
3096,E-2,417.5,0.125,127,160.0
3097,E-5,418.0,0.125,127,160.0
3098,G#5,418.0,0.125,127,160.0
3099,G1,418.5,0.125,127,160.0
3100,E-2,419.0,0.125,127,160.0
3101,E2,419.0,0.125,127,160.0
3102,B1,419.5,0.125,127,160.0
3103,G2,419.5,0.125,127,160.0
3104,C2,419.5,0.125,127,160.0
3105,B1,420.0,0.125,127,160.0
3106,G2,420.0,0.125,127,160.0
3107,C2,420.0,0.125,127,160.0
3108,E-5,420.0,0.125,127,160.0
3109,G#5,420.0,0.125,127,160.0
3110,E5,420.0,4.0,127,160.0
3111,G5,420.0,4.0,127,160.0
3112,C6,420.0,4.0,127,160.0
3113,C4,420.0,4.0,127,160.0
3114,E2,421.0,0.125,127,160.0
3115,E-2,421.0,0.125,127,160.0
3116,E-5,421.0,0.125,127,160.0
3117,G#5,421.0,0.125,127,160.0
3118,E-2,421.5,0.125,127,160.0
3119,G1,422.0,0.125,127,160.0
3120,B1,422.5,0.125,127,160.0
3121,G2,422.5,0.125,127,160.0
3122,C2,422.5,0.125,127,160.0
3123,E2,423.0,0.125,127,160.0
3124,E-2,423.0,0.125,127,160.0
3125,G1,423.5,0.125,127,160.0
3126,E-5,423.5,0.125,127,160.0
3127,G#5,423.5,0.125,127,160.0
3128,B-2,424.0,0.125,127,160.0
3129,B1,424.0,0.125,127,160.0
3130,G2,424.0,0.125,127,160.0
3131,C2,424.0,0.125,127,160.0
3132,D5,424.0,4.0,127,160.0
3133,G5,424.0,4.0,127,160.0
3134,B5,424.0,4.0,127,160.0
3135,G3,424.0,4.0,127,160.0
3136,E-2,425.0,0.125,127,160.0
3137,E2,425.0,0.125,127,160.0
3138,F#2,425.0,0.125,127,160.0
3139,B1,425.5,0.125,127,160.0
3140,G2,425.5,0.125,127,160.0
3141,C2,425.5,0.125,127,160.0
3142,E-2,425.5,0.125,127,160.0
3143,E-5,426.0,0.125,127,160.0
3144,G#5,426.0,0.125,127,160.0
3145,G1,426.5,0.125,127,160.0
3146,E-2,427.0,0.125,127,160.0
3147,E2,427.0,0.125,127,160.0
3148,B1,427.5,0.125,127,160.0
3149,G2,427.5,0.125,127,160.0
3150,C2,427.5,0.125,127,160.0
3151,E5,436.0,0.5,127,160.0
3152,G5,436.5,0.5,127,160.0
3153,A5,437.0,0.5,127,160.0
3154,E-2,437.0,0.125,127,160.0
3155,E1,437.0,0.125,127,160.0
3156,B5,437.5,1.0,127,160.0
3157,E1,438.0,0.125,127,160.0
3158,E-2,438.0,0.125,127,160.0
3159,A5,438.5,0.5,127,160.0
3160,B5,439.0,0.5,127,160.0
3161,E5,439.0,0.5,127,160.0
3162,E1,439.0,0.125,127,160.0
3163,E-2,439.0,0.125,127,160.0
3164,C6,439.5,0.5,127,160.0
3165,G5,439.5,0.5,127,160.0
3166,A1,440.0,1.5,127,160.0
3167,A1,440.0,4.0,127,160.0
3168,E4,440.0,4.0,127,160.0
3169,E5,440.0,4.0,127,160.0
3170,D6,440.0,4.0,127,160.0
3171,B-2,440.0,0.125,127,160.0
3172,B1,440.0,0.125,127,160.0
3173,G2,440.0,0.125,127,160.0
3174,C2,440.0,0.125,127,160.0
3175,D5,440.0,4.0,127,160.0
3176,G5,440.0,4.0,127,160.0
3177,B5,440.0,4.0,127,160.0
3178,G3,440.0,4.0,127,160.0
3179,A5,440.0,0.5,127,160.0
3180,A4,440.0,0.5,127,160.0
3181,E5,440.0,0.5,127,160.0
3182,A2,440.5,0.25,127,160.0
3183,A5,440.5,0.5,127,160.0
3184,A4,440.5,0.5,127,160.0
3185,E5,440.5,0.5,127,160.0
3186,A2,441.0,0.25,127,160.0
3187,E-2,441.0,0.125,127,160.0
3188,E2,441.0,0.125,127,160.0
3189,F#2,441.0,0.125,127,160.0
3190,A5,441.0,0.5,127,160.0
3191,A4,441.0,0.5,127,160.0
3192,E5,441.0,0.5,127,160.0
3193,A1,441.5,2.0,127,160.0
3194,B1,441.5,0.125,127,160.0
3195,G2,441.5,0.125,127,160.0
3196,C2,441.5,0.125,127,160.0
3197,B5,441.5,0.5,127,160.0
3198,B4,441.5,0.5,127,160.0
3199,F#5,441.5,0.5,127,160.0
3200,A2,442.0,0.25,127,160.0
3201,G5,442.0,1.0,127,160.0
3202,G4,442.0,1.0,127,160.0
3203,D5,442.0,1.0,127,160.0
3204,G1,442.5,0.125,127,160.0
3205,A2,443.0,0.25,76,160.0
3206,E-2,443.0,0.125,127,160.0
3207,E2,443.0,0.125,127,160.0
3208,G5,443.0,1.0,127,160.0
3209,D5,443.0,1.0,127,160.0
3210,A4,443.0,1.0,127,160.0
3211,A2,443.5,0.25,127,160.0
3212,A1,443.5,0.5,127,160.0
3213,B1,443.5,0.125,127,160.0
3214,G2,443.5,0.125,127,160.0
3215,C2,443.5,0.125,127,160.0
3216,A2,444.0,0.25,127,160.0
3217,A1,444.0,2.5,127,160.0
3218,A1,444.0,4.0,127,160.0
3219,E4,444.0,1.0,127,160.0
3220,E5,444.0,1.0,127,160.0
3221,D6,444.0,1.5,127,160.0
3222,B1,444.0,0.125,127,160.0
3223,G2,444.0,0.125,127,160.0
3224,C2,444.0,0.125,127,160.0
3225,G5,444.0,1.0,127,160.0
3226,D5,444.0,1.0,127,160.0
3227,A4,444.0,1.0,127,160.0
3228,A2,445.0,0.25,127,160.0
3229,A4,445.0,0.5,127,160.0
3230,A5,445.0,0.5,127,160.0
3231,E2,445.0,0.125,127,160.0
3232,E-2,445.0,0.125,127,160.0
3233,G5,445.0,1.0,127,160.0
3234,B4,445.0,1.0,127,160.0
3235,F#4,445.0,1.0,127,160.0
3236,B4,445.5,0.5,127,160.0
3237,B5,445.5,0.5,127,160.0
3238,C6,445.5,1.0,127,160.0
3239,A2,446.0,0.25,76,160.0
3240,G1,446.0,0.125,127,160.0
3241,A4,446.0,0.5,127,160.0
3242,A5,446.0,0.5,127,160.0
3243,G5,446.0,1.0,127,160.0
3244,A4,446.0,1.0,127,160.0
3245,E4,446.0,1.0,127,160.0
3246,A2,446.5,0.25,127,160.0
3247,A1,446.5,1.5,127,160.0
3248,G4,446.5,1.0,127,160.0
3249,G5,446.5,1.0,127,160.0
3250,B5,446.5,1.0,127,160.0
3251,B1,446.5,0.125,127,160.0
3252,G2,446.5,0.125,127,160.0
3253,C2,446.5,0.125,127,160.0
3254,A2,447.0,0.25,127,160.0
3255,E2,447.0,0.125,127,160.0
3256,E-2,447.0,0.125,127,160.0
3257,G4,447.0,1.0,127,160.0
3258,G5,447.0,1.0,127,160.0
3259,D4,447.0,1.0,127,160.0
3260,C3,447.5,0.25,127,160.0
3261,G1,447.5,0.125,127,160.0
3262,E4,447.5,0.5,127,160.0
3263,E5,447.5,0.5,127,160.0
3264,G5,447.5,0.5,127,160.0
3265,C2,448.0,1.5,127,160.0
3266,C2,448.0,4.0,127,160.0
3267,E4,448.0,4.0,127,160.0
3268,E5,448.0,4.0,127,160.0
3269,G5,448.0,3.0,127,160.0
3270,B-2,448.0,0.125,127,160.0
3271,B1,448.0,0.125,127,160.0
3272,G2,448.0,0.125,127,160.0
3273,C2,448.0,0.125,127,160.0
3274,A5,448.0,0.5,127,160.0
3275,A4,448.0,0.5,127,160.0
3276,E5,448.0,0.5,127,160.0
3277,C3,448.5,0.25,127,160.0
3278,A5,448.5,0.5,127,160.0
3279,A4,448.5,0.5,127,160.0
3280,E5,448.5,0.5,127,160.0
3281,C3,449.0,0.25,127,160.0
3282,E-2,449.0,0.125,127,160.0
3283,E2,449.0,0.125,127,160.0
3284,F#2,449.0,0.125,127,160.0
3285,A5,449.0,0.5,127,160.0
3286,A4,449.0,0.5,127,160.0
3287,E5,449.0,0.5,127,160.0
3288,C2,449.5,2.0,127,160.0
3289,B1,449.5,0.125,127,160.0
3290,G2,449.5,0.125,127,160.0
3291,C2,449.5,0.125,127,160.0
3292,B5,449.5,0.5,127,160.0
3293,B4,449.5,0.5,127,160.0
3294,F#5,449.5,0.5,127,160.0
3295,C3,450.0,0.25,127,160.0
3296,G5,450.0,1.0,127,160.0
3297,G4,450.0,1.0,127,160.0
3298,D5,450.0,1.0,127,160.0
3299,G1,450.5,0.125,127,160.0
3300,C3,451.0,0.25,76,160.0
3301,E-2,451.0,0.125,127,160.0
3302,E2,451.0,0.125,127,160.0
3303,G5,451.0,1.0,127,160.0
3304,D5,451.0,1.0,127,160.0
3305,A4,451.0,1.0,127,160.0
3306,C3,451.5,0.25,127,160.0
3307,C2,451.5,0.5,127,160.0
3308,B1,451.5,0.125,127,160.0
3309,G2,451.5,0.125,127,160.0
3310,C2,451.5,0.125,127,160.0
3311,C3,452.0,0.25,127,160.0
3312,C2,452.0,2.5,127,160.0
3313,C2,452.0,4.0,127,160.0
3314,E4,452.0,1.0,127,160.0
3315,E5,452.0,1.0,127,160.0
3316,A5,452.0,0.5,127,160.0
3317,B1,452.0,0.125,127,160.0
3318,G2,452.0,0.125,127,160.0
3319,C2,452.0,0.125,127,160.0
3320,D5,452.0,4.0,127,160.0
3321,G5,452.0,4.0,127,160.0
3322,B5,452.0,4.0,127,160.0
3323,G3,452.0,4.0,127,160.0
3324,G5,452.0,1.0,127,160.0
3325,D5,452.0,1.0,127,160.0
3326,A4,452.0,1.0,127,160.0
3327,A5,452.5,0.5,127,160.0
3328,C3,453.0,0.25,127,160.0
3329,A4,453.0,0.5,127,160.0
3330,A5,453.0,0.5,127,160.0
3331,A5,453.0,0.5,127,160.0
3332,E2,453.0,0.125,127,160.0
3333,E-2,453.0,0.125,127,160.0
3334,G5,453.0,1.0,127,160.0
3335,B4,453.0,1.0,127,160.0
3336,F#4,453.0,1.0,127,160.0
3337,B4,453.5,0.5,127,160.0
3338,B5,453.5,0.5,127,160.0
3339,B5,453.5,0.5,127,160.0
3340,C3,454.0,0.25,76,160.0
3341,G1,454.0,0.125,127,160.0
3342,A4,454.0,0.5,127,160.0
3343,A5,454.0,0.5,127,160.0
3344,G5,454.0,1.0,127,160.0
3345,G5,454.0,1.0,127,160.0
3346,A4,454.0,1.0,127,160.0
3347,E4,454.0,1.0,127,160.0
3348,C3,454.5,0.25,127,160.0
3349,C2,454.5,1.5,127,160.0
3350,G4,454.5,1.0,127,160.0
3351,G5,454.5,1.0,127,160.0
3352,B1,454.5,0.125,127,160.0
3353,G2,454.5,0.125,127,160.0
3354,C2,454.5,0.125,127,160.0
3355,C3,455.0,0.25,127,160.0
3356,E2,455.0,0.125,127,160.0
3357,E-2,455.0,0.125,127,160.0
3358,G4,455.0,1.0,127,160.0
3359,G5,455.0,1.0,127,160.0
3360,D4,455.0,1.0,127,160.0
3361,F#2,455.5,0.25,127,160.0
3362,G1,455.5,0.125,127,160.0
3363,D4,455.5,0.5,127,160.0
3364,D5,455.5,0.5,127,160.0
3365,G1,456.0,1.5,127,160.0
3366,G1,456.0,4.0,127,160.0
3367,D4,456.0,4.0,127,160.0
3368,D5,456.0,4.0,127,160.0
3369,B-2,456.0,0.125,127,160.0
3370,B1,456.0,0.125,127,160.0
3371,G2,456.0,0.125,127,160.0
3372,C2,456.0,0.125,127,160.0
3373,A3,456.0,4.0,127,160.0
3374,E4,456.0,4.0,127,160.0
3375,C5,456.0,4.0,127,160.0
3376,A4,456.0,4.0,127,160.0
3377,A5,456.0,0.5,127,160.0
3378,A4,456.0,0.5,127,160.0
3379,E5,456.0,0.5,127,160.0
3380,G2,456.5,0.25,127,160.0
3381,A5,456.5,0.5,127,160.0
3382,A4,456.5,0.5,127,160.0
3383,E5,456.5,0.5,127,160.0
3384,G2,457.0,0.25,127,160.0
3385,E-2,457.0,0.125,127,160.0
3386,E2,457.0,0.125,127,160.0
3387,F#2,457.0,0.125,127,160.0
3388,A5,457.0,0.5,127,160.0
3389,A4,457.0,0.5,127,160.0
3390,E5,457.0,0.5,127,160.0
3391,G1,457.5,2.0,127,160.0
3392,B1,457.5,0.125,127,160.0
3393,G2,457.5,0.125,127,160.0
3394,C2,457.5,0.125,127,160.0
3395,B5,457.5,0.5,127,160.0
3396,B4,457.5,0.5,127,160.0
3397,F#5,457.5,0.5,127,160.0
3398,G2,458.0,0.25,127,160.0
3399,G5,458.0,1.0,127,160.0
3400,G4,458.0,1.0,127,160.0
3401,D5,458.0,1.0,127,160.0
3402,G1,458.5,0.125,127,160.0
3403,E-2,459.0,0.125,127,160.0
3404,E2,459.0,0.125,127,160.0
3405,G5,459.0,1.0,127,160.0
3406,D5,459.0,1.0,127,160.0
3407,A4,459.0,1.0,127,160.0
3408,G2,459.5,0.25,127,160.0
3409,G1,459.5,0.5,127,160.0
3410,B1,459.5,0.125,127,160.0
3411,G2,459.5,0.125,127,160.0
3412,C2,459.5,0.125,127,160.0
3413,G2,460.0,0.25,127,160.0
3414,G1,460.0,2.5,127,160.0
3415,G1,460.0,4.0,127,160.0
3416,D4,460.0,1.0,127,160.0
3417,D5,460.0,1.0,127,160.0
3418,B1,460.0,0.125,127,160.0
3419,G2,460.0,0.125,127,160.0
3420,C2,460.0,0.125,127,160.0
3421,D5,460.0,4.0,127,160.0
3422,G5,460.0,4.0,127,160.0
3423,B5,460.0,4.0,127,160.0
3424,G3,460.0,4.0,127,160.0
3425,G5,460.0,1.0,127,160.0
3426,D5,460.0,1.0,127,160.0
3427,A4,460.0,1.0,127,160.0
3428,G2,461.0,0.25,127,160.0
3429,D4,461.0,0.5,127,160.0
3430,D5,461.0,0.5,127,160.0
3431,E2,461.0,0.125,127,160.0
3432,E-2,461.0,0.125,127,160.0
3433,G5,461.0,1.0,127,160.0
3434,B4,461.0,1.0,127,160.0
3435,F#4,461.0,1.0,127,160.0
3436,D4,461.5,0.5,127,160.0
3437,D5,461.5,0.5,127,160.0
3438,G1,462.0,0.125,127,160.0
3439,D4,462.0,0.5,127,160.0
3440,D5,462.0,0.5,127,160.0
3441,G5,462.0,1.0,127,160.0
3442,A4,462.0,1.0,127,160.0
3443,E4,462.0,1.0,127,160.0
3444,G2,462.5,0.25,127,160.0
3445,G1,462.5,1.5,127,160.0
3446,B3,462.5,1.0,127,160.0
3447,B4,462.5,1.0,127,160.0
3448,B1,462.5,0.125,127,160.0
3449,G2,462.5,0.125,127,160.0
3450,C2,462.5,0.125,127,160.0
3451,G2,463.0,0.25,127,160.0
3452,E2,463.0,0.125,127,160.0
3453,E-2,463.0,0.125,127,160.0
3454,G4,463.0,1.0,127,160.0
3455,G5,463.0,1.0,127,160.0
3456,D4,463.0,1.0,127,160.0
3457,F#2,463.5,0.25,127,160.0
3458,G1,463.5,0.125,127,160.0
3459,D4,463.5,0.5,127,160.0
3460,D5,463.5,0.5,127,160.0
3461,G5,463.5,0.5,127,160.0
3462,G1,464.0,1.5,127,160.0
3463,G1,464.0,4.0,127,160.0
3464,D4,464.0,4.0,127,160.0
3465,D5,464.0,4.0,127,160.0
3466,D6,464.0,0.5,127,160.0
3467,B-2,464.0,0.125,127,160.0
3468,B1,464.0,0.125,127,160.0
3469,G2,464.0,0.125,127,160.0
3470,C2,464.0,0.125,127,160.0
3471,A3,464.0,4.0,127,160.0
3472,E4,464.0,4.0,127,160.0
3473,C5,464.0,4.0,127,160.0
3474,A4,464.0,4.0,127,160.0
3475,A5,464.0,4.0,127,160.0
3476,E5,464.0,4.0,127,160.0
3477,C6,464.0,4.0,127,160.0
3478,A3,464.0,4.0,127,160.0
3479,A5,464.0,0.5,127,160.0
3480,A4,464.0,0.5,127,160.0
3481,E5,464.0,0.5,127,160.0
3482,G2,464.5,0.25,127,160.0
3483,D6,464.5,0.5,127,160.0
3484,B5,464.5,0.5,127,160.0
3485,B4,464.5,0.5,127,160.0
3486,F#5,464.5,0.5,127,160.0
3487,G2,465.0,0.25,127,160.0
3488,B5,465.0,1.0,127,160.0
3489,E-2,465.0,0.125,127,160.0
3490,E2,465.0,0.125,127,160.0
3491,F#2,465.0,0.125,127,160.0
3492,G5,465.0,1.0,127,160.0
3493,G4,465.0,1.0,127,160.0
3494,D5,465.0,1.0,127,160.0
3495,G1,465.5,2.0,127,160.0
3496,B1,465.5,0.125,127,160.0
3497,G2,465.5,0.125,127,160.0
3498,C2,465.5,0.125,127,160.0
3499,G2,466.0,0.25,127,160.0
3500,G1,466.5,0.125,127,160.0
3501,G5,466.5,0.5,127,160.0
3502,D6,467.0,0.5,127,160.0
3503,E-2,467.0,0.125,127,160.0
3504,E2,467.0,0.125,127,160.0
3505,A5,467.0,0.5,127,160.0
3506,A4,467.0,0.5,127,160.0
3507,E5,467.0,0.5,127,160.0
3508,G2,467.5,0.25,127,160.0
3509,G1,467.5,0.5,127,160.0
3510,D6,467.5,0.5,127,160.0
3511,B1,467.5,0.125,127,160.0
3512,G2,467.5,0.125,127,160.0
3513,C2,467.5,0.125,127,160.0
3514,B5,467.5,0.5,127,160.0
3515,B4,467.5,0.5,127,160.0
3516,F#5,467.5,0.5,127,160.0
3517,G2,468.0,0.25,127,160.0
3518,G1,468.0,2.5,127,160.0
3519,G1,468.0,4.0,127,160.0
3520,D4,468.0,1.0,127,160.0
3521,D5,468.0,1.0,127,160.0
3522,B5,468.0,1.0,127,160.0
3523,B1,468.0,0.125,127,160.0
3524,G2,468.0,0.125,127,160.0
3525,C2,468.0,0.125,127,160.0
3526,C5,468.0,4.0,127,160.0
3527,C4,468.0,4.0,127,160.0
3528,G4,468.0,4.0,127,160.0
3529,E5,468.0,4.0,127,160.0
3530,G5,468.0,1.0,127,160.0
3531,G4,468.0,1.0,127,160.0
3532,D5,468.0,1.0,127,160.0
3533,G2,469.0,0.25,127,160.0
3534,B3,469.0,0.5,127,160.0
3535,D5,469.0,0.5,127,160.0
3536,E2,469.0,0.125,127,160.0
3537,E-2,469.0,0.125,127,160.0
3538,E1,469.0,0.125,127,160.0
3539,D6,469.0,0.5,127,160.0
3540,A5,469.0,0.5,127,160.0
3541,D5,469.0,0.5,127,160.0
3542,E4,469.5,1.0,127,160.0
3543,E5,469.5,1.0,127,160.0
3544,E6,469.5,1.0,127,160.0
3545,B5,469.5,1.0,127,160.0
3546,E5,469.5,1.0,127,160.0
3547,G1,470.0,0.125,127,160.0
3548,E1,470.0,0.125,127,160.0
3549,E-2,470.0,0.125,127,160.0
3550,G2,470.5,0.25,127,160.0
3551,G1,470.5,1.5,127,160.0
3552,G4,470.5,1.0,127,160.0
3553,G5,470.5,1.0,127,160.0
3554,B1,470.5,0.125,127,160.0
3555,G2,470.5,0.125,127,160.0
3556,C2,470.5,0.125,127,160.0
3557,G6,470.5,1.0,127,160.0
3558,D6,470.5,1.0,127,160.0
3559,G5,470.5,1.0,127,160.0
3560,G2,471.0,0.25,127,160.0
3561,G5,471.0,1.0,127,160.0
3562,E2,471.0,0.125,127,160.0
3563,E-2,471.0,0.125,127,160.0
3564,E1,471.0,0.125,127,160.0
3565,A2,471.5,0.25,127,160.0
3566,G1,471.5,0.125,127,160.0
3567,E4,471.5,0.5,127,160.0
3568,E5,471.5,0.5,127,160.0
3569,A1,472.0,1.5,127,160.0
3570,A1,472.0,4.0,127,160.0
3571,E4,472.0,4.0,127,160.0
3572,E5,472.0,4.0,127,160.0
3573,B-2,472.0,0.125,127,160.0
3574,B1,472.0,0.125,127,160.0
3575,G2,472.0,0.125,127,160.0
3576,C2,472.0,0.125,127,160.0
3577,A5,472.0,4.0,127,160.0
3578,E5,472.0,4.0,127,160.0
3579,C6,472.0,4.0,127,160.0
3580,A3,472.0,4.0,127,160.0
3581,A5,472.0,0.5,127,160.0
3582,A4,472.0,0.5,127,160.0
3583,E5,472.0,0.5,127,160.0
3584,A2,472.5,0.25,127,160.0
3585,A5,472.5,0.5,127,160.0
3586,A4,472.5,0.5,127,160.0
3587,E5,472.5,0.5,127,160.0
3588,A2,473.0,0.25,127,160.0
3589,E-2,473.0,0.125,127,160.0
3590,E2,473.0,0.125,127,160.0
3591,F#2,473.0,0.125,127,160.0
3592,A5,473.0,0.5,127,160.0
3593,A4,473.0,0.5,127,160.0
3594,E5,473.0,0.5,127,160.0
3595,A1,473.5,2.0,127,160.0
3596,B1,473.5,0.125,127,160.0
3597,G2,473.5,0.125,127,160.0
3598,C2,473.5,0.125,127,160.0
3599,B5,473.5,0.5,127,160.0
3600,B4,473.5,0.5,127,160.0
3601,F#5,473.5,0.5,127,160.0
3602,A2,474.0,0.25,127,160.0
3603,G5,474.0,1.0,127,160.0
3604,G4,474.0,1.0,127,160.0
3605,D5,474.0,1.0,127,160.0
3606,G1,474.5,0.125,127,160.0
3607,A2,475.0,0.25,76,160.0
3608,E-2,475.0,0.125,127,160.0
3609,E2,475.0,0.125,127,160.0
3610,G5,475.0,1.0,127,160.0
3611,D5,475.0,1.0,127,160.0
3612,A4,475.0,1.0,127,160.0
3613,A2,475.5,0.25,127,160.0
3614,A1,475.5,0.5,127,160.0
3615,B1,475.5,0.125,127,160.0
3616,G2,475.5,0.125,127,160.0
3617,C2,475.5,0.125,127,160.0
3618,A2,476.0,0.25,127,160.0
3619,A1,476.0,2.5,127,160.0
3620,A1,476.0,4.0,127,160.0
3621,E4,476.0,1.0,127,160.0
3622,E5,476.0,1.0,127,160.0
3623,B1,476.0,0.125,127,160.0
3624,G2,476.0,0.125,127,160.0
3625,C2,476.0,0.125,127,160.0
3626,C5,476.0,4.0,127,160.0
3627,C4,476.0,4.0,127,160.0
3628,G4,476.0,4.0,127,160.0
3629,E5,476.0,4.0,127,160.0
3630,E5,476.0,4.0,127,160.0
3631,G5,476.0,4.0,127,160.0
3632,C6,476.0,4.0,127,160.0
3633,C4,476.0,4.0,127,160.0
3634,G5,476.0,1.0,127,160.0
3635,D5,476.0,1.0,127,160.0
3636,A4,476.0,1.0,127,160.0
3637,A2,477.0,0.25,127,160.0
3638,A4,477.0,0.5,127,160.0
3639,A5,477.0,0.5,127,160.0
3640,D5,477.0,0.5,127,160.0
3641,E2,477.0,0.125,127,160.0
3642,E-2,477.0,0.125,127,160.0
3643,G5,477.0,1.0,127,160.0
3644,B4,477.0,1.0,127,160.0
3645,F#4,477.0,1.0,127,160.0
3646,B4,477.5,0.5,127,160.0
3647,B5,477.5,0.5,127,160.0
3648,A5,477.5,1.0,127,160.0
3649,A2,478.0,0.25,76,160.0
3650,G1,478.0,0.125,127,160.0
3651,A4,478.0,0.5,127,160.0
3652,A5,478.0,0.5,127,160.0
3653,G5,478.0,1.0,127,160.0
3654,A4,478.0,1.0,127,160.0
3655,E4,478.0,1.0,127,160.0
3656,A2,478.5,0.25,127,160.0
3657,A1,478.5,1.5,127,160.0
3658,G4,478.5,1.0,127,160.0
3659,G5,478.5,1.0,127,160.0
3660,G5,478.5,1.5,127,160.0
3661,B1,478.5,0.125,127,160.0
3662,G2,478.5,0.125,127,160.0
3663,C2,478.5,0.125,127,160.0
3664,A2,479.0,0.25,127,160.0
3665,E2,479.0,0.125,127,160.0
3666,E-2,479.0,0.125,127,160.0
3667,G4,479.0,1.0,127,160.0
3668,G5,479.0,1.0,127,160.0
3669,D4,479.0,1.0,127,160.0
3670,C3,479.5,0.25,127,160.0
3671,G1,479.5,0.125,127,160.0
3672,E4,479.5,0.5,127,160.0
3673,E5,479.5,0.5,127,160.0
3674,C2,480.0,1.5,127,160.0
3675,C2,480.0,4.0,127,160.0
3676,E4,480.0,4.0,127,160.0
3677,E5,480.0,4.0,127,160.0
3678,B-2,480.0,0.125,127,160.0
3679,B1,480.0,0.125,127,160.0
3680,G2,480.0,0.125,127,160.0
3681,C2,480.0,0.125,127,160.0
3682,G3,480.0,4.0,127,160.0
3683,D5,480.0,4.0,127,160.0
3684,B4,480.0,4.0,127,160.0
3685,G4,480.0,4.0,127,160.0
3686,A5,480.0,0.5,127,160.0
3687,A4,480.0,0.5,127,160.0
3688,E5,480.0,0.5,127,160.0
3689,C3,480.5,0.25,127,160.0
3690,A5,480.5,0.5,127,160.0
3691,A4,480.5,0.5,127,160.0
3692,E5,480.5,0.5,127,160.0
3693,C3,481.0,0.25,127,160.0
3694,E-2,481.0,0.125,127,160.0
3695,E2,481.0,0.125,127,160.0
3696,F#2,481.0,0.125,127,160.0
3697,A5,481.0,0.5,127,160.0
3698,A4,481.0,0.5,127,160.0
3699,E5,481.0,0.5,127,160.0
3700,C2,481.5,2.0,127,160.0
3701,B1,481.5,0.125,127,160.0
3702,G2,481.5,0.125,127,160.0
3703,C2,481.5,0.125,127,160.0
3704,B5,481.5,0.5,127,160.0
3705,B4,481.5,0.5,127,160.0
3706,F#5,481.5,0.5,127,160.0
3707,C3,482.0,0.25,127,160.0
3708,G5,482.0,1.0,127,160.0
3709,G4,482.0,1.0,127,160.0
3710,D5,482.0,1.0,127,160.0
3711,G1,482.5,0.125,127,160.0
3712,C3,483.0,0.25,76,160.0
3713,E-2,483.0,0.125,127,160.0
3714,E2,483.0,0.125,127,160.0
3715,G5,483.0,1.0,127,160.0
3716,D5,483.0,1.0,127,160.0
3717,A4,483.0,1.0,127,160.0
3718,C3,483.5,0.25,127,160.0
3719,C2,483.5,0.5,127,160.0
3720,G5,483.5,0.5,127,160.0
3721,B1,483.5,0.125,127,160.0
3722,G2,483.5,0.125,127,160.0
3723,C2,483.5,0.125,127,160.0
3724,C3,484.0,0.25,127,160.0
3725,C2,484.0,2.5,127,160.0
3726,C2,484.0,4.0,127,160.0
3727,E4,484.0,1.0,127,160.0
3728,E5,484.0,1.0,127,160.0
3729,G5,484.0,1.5,127,160.0
3730,B1,484.0,0.125,127,160.0
3731,G2,484.0,0.125,127,160.0
3732,C2,484.0,0.125,127,160.0
3733,E5,484.0,4.0,127,160.0
3734,G5,484.0,4.0,127,160.0
3735,C6,484.0,4.0,127,160.0
3736,C4,484.0,4.0,127,160.0
3737,G5,484.0,1.0,127,160.0
3738,D5,484.0,1.0,127,160.0
3739,A4,484.0,1.0,127,160.0
3740,C3,485.0,0.25,127,160.0
3741,A4,485.0,0.5,127,160.0
3742,A5,485.0,0.5,127,160.0
3743,E2,485.0,0.125,127,160.0
3744,E-2,485.0,0.125,127,160.0
3745,G5,485.0,1.0,127,160.0
3746,B4,485.0,1.0,127,160.0
3747,F#4,485.0,1.0,127,160.0
3748,B4,485.5,0.5,127,160.0
3749,B5,485.5,0.5,127,160.0
3750,E5,485.5,2.0,127,160.0
3751,C3,486.0,0.25,76,160.0
3752,G1,486.0,0.125,127,160.0
3753,A4,486.0,0.5,127,160.0
3754,A5,486.0,0.5,127,160.0
3755,G5,486.0,1.0,127,160.0
3756,A4,486.0,1.0,127,160.0
3757,E4,486.0,1.0,127,160.0
3758,C3,486.5,0.25,127,160.0
3759,C2,486.5,1.5,127,160.0
3760,G4,486.5,1.0,127,160.0
3761,G5,486.5,1.0,127,160.0
3762,B1,486.5,0.125,127,160.0
3763,G2,486.5,0.125,127,160.0
3764,C2,486.5,0.125,127,160.0
3765,C3,487.0,0.25,127,160.0
3766,E2,487.0,0.125,127,160.0
3767,E-2,487.0,0.125,127,160.0
3768,G4,487.0,1.0,127,160.0
3769,G5,487.0,1.0,127,160.0
3770,D4,487.0,1.0,127,160.0
3771,F#2,487.5,0.25,127,160.0
3772,G1,487.5,0.125,127,160.0
3773,D4,487.5,0.5,127,160.0
3774,D5,487.5,0.5,127,160.0
3775,B4,487.5,0.5,127,160.0
3776,G1,488.0,1.5,127,160.0
3777,G1,488.0,4.0,127,160.0
3778,D4,488.0,4.0,127,160.0
3779,D5,488.0,4.0,127,160.0
3780,B4,488.0,0.5,127,160.0
3781,B-2,488.0,0.125,127,160.0
3782,B1,488.0,0.125,127,160.0
3783,G2,488.0,0.125,127,160.0
3784,C2,488.0,0.125,127,160.0
3785,D5,488.0,4.0,127,160.0
3786,G5,488.0,4.0,127,160.0
3787,B5,488.0,4.0,127,160.0
3788,G3,488.0,4.0,127,160.0
3789,A5,488.0,0.5,127,160.0
3790,A4,488.0,0.5,127,160.0
3791,E5,488.0,0.5,127,160.0
3792,G2,488.5,0.25,127,160.0
3793,A4,488.5,0.5,127,160.0
3794,A5,488.5,0.5,127,160.0
3795,A4,488.5,0.5,127,160.0
3796,E5,488.5,0.5,127,160.0
3797,G2,489.0,0.25,127,160.0
3798,G4,489.0,3.0,127,160.0
3799,E-2,489.0,0.125,127,160.0
3800,E2,489.0,0.125,127,160.0
3801,F#2,489.0,0.125,127,160.0
3802,A5,489.0,0.5,127,160.0
3803,A4,489.0,0.5,127,160.0
3804,E5,489.0,0.5,127,160.0
3805,G1,489.5,2.0,127,160.0
3806,B1,489.5,0.125,127,160.0
3807,G2,489.5,0.125,127,160.0
3808,C2,489.5,0.125,127,160.0
3809,B5,489.5,0.5,127,160.0
3810,B4,489.5,0.5,127,160.0
3811,F#5,489.5,0.5,127,160.0
3812,G2,490.0,0.25,127,160.0
3813,G5,490.0,1.0,127,160.0
3814,G4,490.0,1.0,127,160.0
3815,D5,490.0,1.0,127,160.0
3816,G1,490.5,0.125,127,160.0
3817,E-2,491.0,0.125,127,160.0
3818,E2,491.0,0.125,127,160.0
3819,G5,491.0,1.0,127,160.0
3820,D5,491.0,1.0,127,160.0
3821,A4,491.0,1.0,127,160.0
3822,G2,491.5,0.25,127,160.0
3823,G1,491.5,0.5,127,160.0
3824,B1,491.5,0.125,127,160.0
3825,G2,491.5,0.125,127,160.0
3826,C2,491.5,0.125,127,160.0
3827,G2,492.0,0.25,127,160.0
3828,G1,492.0,2.5,127,160.0
3829,G1,492.0,4.0,127,160.0
3830,D4,492.0,1.0,127,160.0
3831,D5,492.0,1.0,127,160.0
3832,B1,492.0,0.125,127,160.0
3833,G2,492.0,0.125,127,160.0
3834,C2,492.0,0.125,127,160.0
3835,G5,492.0,1.0,127,160.0
3836,D5,492.0,1.0,127,160.0
3837,A4,492.0,1.0,127,160.0
3838,G2,493.0,0.25,127,160.0
3839,D4,493.0,0.5,127,160.0
3840,D5,493.0,0.5,127,160.0
3841,E2,493.0,0.125,127,160.0
3842,E-2,493.0,0.125,127,160.0
3843,G5,493.0,1.0,127,160.0
3844,B4,493.0,1.0,127,160.0
3845,F#4,493.0,1.0,127,160.0
3846,D4,493.5,0.5,127,160.0
3847,D5,493.5,0.5,127,160.0
3848,G1,494.0,0.125,127,160.0
3849,D4,494.0,0.5,127,160.0
3850,D5,494.0,0.5,127,160.0
3851,G5,494.0,1.0,127,160.0
3852,A4,494.0,1.0,127,160.0
3853,E4,494.0,1.0,127,160.0
3854,G2,494.5,0.25,127,160.0
3855,G1,494.5,1.5,127,160.0
3856,B3,494.5,1.0,127,160.0
3857,B4,494.5,1.0,127,160.0
3858,B1,494.5,0.125,127,160.0
3859,G2,494.5,0.125,127,160.0
3860,C2,494.5,0.125,127,160.0
3861,G2,495.0,0.25,127,160.0
3862,E2,495.0,0.125,127,160.0
3863,E-2,495.0,0.125,127,160.0
3864,G4,495.0,1.0,127,160.0
3865,G5,495.0,1.0,127,160.0
3866,D4,495.0,1.0,127,160.0
3867,F#2,495.5,0.25,127,160.0
3868,G1,495.5,0.125,127,160.0
3869,D4,495.5,0.5,127,160.0
3870,D5,495.5,0.5,127,160.0
3871,G5,495.5,0.5,127,160.0
3872,G1,496.0,1.5,127,160.0
3873,G1,496.0,4.0,127,160.0
3874,D4,496.0,4.0,127,160.0
3875,D5,496.0,4.0,127,160.0
3876,D6,496.0,0.5,127,160.0
3877,B-2,496.0,0.125,127,160.0
3878,B1,496.0,0.125,127,160.0
3879,G2,496.0,0.125,127,160.0
3880,C2,496.0,0.125,127,160.0
3881,G3,496.0,4.0,127,160.0
3882,D5,496.0,4.0,127,160.0
3883,B4,496.0,4.0,127,160.0
3884,G4,496.0,4.0,127,160.0
3885,A5,496.0,0.5,127,160.0
3886,A4,496.0,0.5,127,160.0
3887,E5,496.0,0.5,127,160.0
3888,G2,496.5,0.25,127,160.0
3889,D6,496.5,0.5,127,160.0
3890,B5,496.5,0.5,127,160.0
3891,B4,496.5,0.5,127,160.0
3892,F#5,496.5,0.5,127,160.0
3893,G2,497.0,0.25,127,160.0
3894,B5,497.0,1.0,127,160.0
3895,E-2,497.0,0.125,127,160.0
3896,E2,497.0,0.125,127,160.0
3897,F#2,497.0,0.125,127,160.0
3898,G5,497.0,1.0,127,160.0
3899,G4,497.0,1.0,127,160.0
3900,D5,497.0,1.0,127,160.0
3901,G1,497.5,2.0,127,160.0
3902,B1,497.5,0.125,127,160.0
3903,G2,497.5,0.125,127,160.0
3904,C2,497.5,0.125,127,160.0
3905,G2,498.0,0.25,127,160.0
3906,G1,498.5,0.125,127,160.0
3907,G5,498.5,0.5,127,160.0
3908,D6,499.0,0.5,127,160.0
3909,E-2,499.0,0.125,127,160.0
3910,E2,499.0,0.125,127,160.0
3911,A5,499.0,0.5,127,160.0
3912,A4,499.0,0.5,127,160.0
3913,E5,499.0,0.5,127,160.0
3914,G2,499.5,0.25,127,160.0
3915,G1,499.5,0.5,127,160.0
3916,D6,499.5,0.5,127,160.0
3917,B1,499.5,0.125,127,160.0
3918,G2,499.5,0.125,127,160.0
3919,C2,499.5,0.125,127,160.0
3920,B5,499.5,0.5,127,160.0
3921,B4,499.5,0.5,127,160.0
3922,F#5,499.5,0.5,127,160.0
3923,G2,500.0,0.25,127,160.0
3924,G1,500.0,2.5,127,160.0
3925,G1,500.0,4.0,127,160.0
3926,D4,500.0,1.0,127,160.0
3927,D5,500.0,1.0,127,160.0
3928,B5,500.0,1.0,127,160.0
3929,B1,500.0,0.125,127,160.0
3930,G2,500.0,0.125,127,160.0
3931,C2,500.0,0.125,127,160.0
3932,G5,500.0,1.0,127,160.0
3933,G4,500.0,1.0,127,160.0
3934,D5,500.0,1.0,127,160.0
3935,G2,501.0,0.25,127,160.0
3936,B3,501.0,0.5,127,160.0
3937,D5,501.0,0.5,127,160.0
3938,E2,501.0,0.125,127,160.0
3939,E-2,501.0,0.125,127,160.0
3940,E1,501.0,0.125,127,160.0
3941,D6,501.0,0.5,127,160.0
3942,A5,501.0,0.5,127,160.0
3943,D5,501.0,0.5,127,160.0
3944,E4,501.5,1.0,127,160.0
3945,E5,501.5,1.0,127,160.0
3946,A5,501.5,0.5,127,160.0
3947,E6,501.5,1.0,127,160.0
3948,B5,501.5,1.0,127,160.0
3949,E5,501.5,1.0,127,160.0
3950,G1,502.0,0.125,127,160.0
3951,E1,502.0,0.125,127,160.0
3952,E-2,502.0,0.125,127,160.0
3953,G2,502.5,0.25,127,160.0
3954,G1,502.5,1.5,127,160.0
3955,G4,502.5,1.0,127,160.0
3956,G5,502.5,1.0,127,160.0
3957,G5,502.5,0.5,127,160.0
3958,B1,502.5,0.125,127,160.0
3959,G2,502.5,0.125,127,160.0
3960,C2,502.5,0.125,127,160.0
3961,G6,502.5,1.0,127,160.0
3962,D6,502.5,1.0,127,160.0
3963,G5,502.5,1.0,127,160.0
3964,G2,503.0,0.25,127,160.0
3965,E2,503.0,0.125,127,160.0
3966,E-2,503.0,0.125,127,160.0
3967,E1,503.0,0.125,127,160.0
3968,A2,503.5,0.25,127,160.0
3969,G1,503.5,0.125,127,160.0
3970,E4,503.5,0.5,127,160.0
3971,E5,503.5,0.5,127,160.0
3972,G5,503.5,0.5,127,160.0
3973,A1,504.0,1.5,127,160.0
3974,A1,504.0,4.0,127,160.0
3975,E4,504.0,4.0,127,160.0
3976,E5,504.0,4.0,127,160.0
3977,A5,504.0,3.0,127,160.0
3978,B-2,504.0,0.125,127,160.0
3979,B1,504.0,0.125,127,160.0
3980,G2,504.0,0.125,127,160.0
3981,C2,504.0,0.125,127,160.0
3982,D5,504.0,4.0,127,160.0
3983,G5,504.0,4.0,127,160.0
3984,B5,504.0,4.0,127,160.0
3985,G3,504.0,4.0,127,160.0
3986,C6,504.0,0.5,127,160.0
3987,C5,504.0,0.5,127,160.0
3988,G5,504.0,0.5,127,160.0
3989,A2,504.5,0.25,127,160.0
3990,D6,504.5,0.5,127,160.0
3991,D5,504.5,0.5,127,160.0
3992,A5,504.5,0.5,127,160.0
3993,A2,505.0,0.25,127,160.0
3994,E-2,505.0,0.125,127,160.0
3995,E2,505.0,0.125,127,160.0
3996,F#2,505.0,0.125,127,160.0
3997,D5,505.0,1.0,127,160.0
3998,G5,505.0,1.0,127,160.0
3999,G4,505.0,1.0,127,160.0
4000,A1,505.5,2.0,127,160.0
4001,B1,505.5,0.125,127,160.0
4002,G2,505.5,0.125,127,160.0
4003,C2,505.5,0.125,127,160.0
4004,A2,506.0,0.25,127,160.0
4005,G1,506.5,0.125,127,160.0
4006,G5,506.5,0.5,127,160.0
4007,G4,506.5,0.5,127,160.0
4008,D5,506.5,0.5,127,160.0
4009,A2,507.0,0.25,76,160.0
4010,E-2,507.0,0.125,127,160.0
4011,E2,507.0,0.125,127,160.0
4012,G5,507.0,0.5,127,160.0
4013,C6,507.0,0.5,127,160.0
4014,C5,507.0,0.5,127,160.0
4015,A2,507.5,0.25,127,160.0
4016,A1,507.5,0.5,127,160.0
4017,B1,507.5,0.125,127,160.0
4018,G2,507.5,0.125,127,160.0
4019,C2,507.5,0.125,127,160.0
4020,D6,507.5,0.5,127,160.0
4021,A5,507.5,0.5,127,160.0
4022,D5,507.5,0.5,127,160.0
4023,A2,508.0,0.25,127,160.0
4024,A1,508.0,2.5,127,160.0
4025,A1,508.0,4.0,127,160.0
4026,E4,508.0,1.0,127,160.0
4027,E5,508.0,1.0,127,160.0
4028,B1,508.0,0.125,127,160.0
4029,G2,508.0,0.125,127,160.0
4030,C2,508.0,0.125,127,160.0
4031,G3,508.0,4.0,127,160.0
4032,D5,508.0,4.0,127,160.0
4033,B4,508.0,4.0,127,160.0
4034,G4,508.0,4.0,127,160.0
4035,G5,508.0,1.0,127,160.0
4036,D5,508.0,1.0,127,160.0
4037,G4,508.0,1.0,127,160.0
4038,A2,509.0,0.25,127,160.0
4039,A4,509.0,0.5,127,160.0
4040,A5,509.0,0.5,127,160.0
4041,E2,509.0,0.125,127,160.0
4042,E-2,509.0,0.125,127,160.0
4043,B4,509.5,0.5,127,160.0
4044,B5,509.5,0.5,127,160.0
4045,G5,509.5,0.5,127,160.0
4046,D5,509.5,0.5,127,160.0
4047,G4,509.5,0.5,127,160.0
4048,A2,510.0,0.25,76,160.0
4049,G1,510.0,0.125,127,160.0
4050,A4,510.0,0.5,127,160.0
4051,A5,510.0,0.5,127,160.0
4052,A2,510.5,0.25,127,160.0
4053,A1,510.5,1.5,127,160.0
4054,G4,510.5,1.0,127,160.0
4055,G5,510.5,1.0,127,160.0
4056,B1,510.5,0.125,127,160.0
4057,G2,510.5,0.125,127,160.0
4058,C2,510.5,0.125,127,160.0
4059,G4,510.5,0.5,127,160.0
4060,G5,510.5,0.5,127,160.0
4061,D5,510.5,0.5,127,160.0
4062,A2,511.0,0.25,127,160.0
4063,E2,511.0,0.125,127,160.0
4064,E-2,511.0,0.125,127,160.0
4065,C3,511.5,0.25,127,160.0
4066,G1,511.5,0.125,127,160.0
4067,E4,511.5,0.5,127,160.0
4068,E5,511.5,0.5,127,160.0
4069,G4,511.5,0.5,127,160.0
4070,D5,511.5,0.5,127,160.0
4071,G5,511.5,0.5,127,160.0
4072,C2,512.0,1.5,127,160.0
4073,C2,512.0,4.0,127,160.0
4074,E4,512.0,4.0,127,160.0
4075,E5,512.0,4.0,127,160.0
4076,B-2,512.0,0.125,127,160.0
4077,B1,512.0,0.125,127,160.0
4078,G2,512.0,0.125,127,160.0
4079,C2,512.0,0.125,127,160.0
4080,C6,512.0,0.5,127,160.0
4081,C5,512.0,0.5,127,160.0
4082,G5,512.0,0.5,127,160.0
4083,C3,512.5,0.25,127,160.0
4084,D6,512.5,0.5,127,160.0
4085,D5,512.5,0.5,127,160.0
4086,A5,512.5,0.5,127,160.0
4087,C3,513.0,0.25,127,160.0
4088,E-2,513.0,0.125,127,160.0
4089,E2,513.0,0.125,127,160.0
4090,F#2,513.0,0.125,127,160.0
4091,D5,513.0,1.0,127,160.0
4092,G5,513.0,1.0,127,160.0
4093,G4,513.0,1.0,127,160.0
4094,C2,513.5,2.0,127,160.0
4095,B1,513.5,0.125,127,160.0
4096,G2,513.5,0.125,127,160.0
4097,C2,513.5,0.125,127,160.0
4098,C3,514.0,0.25,127,160.0
4099,G1,514.5,0.125,127,160.0
4100,G5,514.5,0.5,127,160.0
4101,G4,514.5,0.5,127,160.0
4102,D5,514.5,0.5,127,160.0
4103,C3,515.0,0.25,76,160.0
4104,E-2,515.0,0.125,127,160.0
4105,E2,515.0,0.125,127,160.0
4106,G5,515.0,0.5,127,160.0
4107,C6,515.0,0.5,127,160.0
4108,C5,515.0,0.5,127,160.0
4109,C3,515.5,0.25,127,160.0
4110,C2,515.5,0.5,127,160.0
4111,B1,515.5,0.125,127,160.0
4112,G2,515.5,0.125,127,160.0
4113,C2,515.5,0.125,127,160.0
4114,D6,515.5,0.5,127,160.0
4115,A5,515.5,0.5,127,160.0
4116,D5,515.5,0.5,127,160.0
4117,C3,516.0,0.25,127,160.0
4118,C2,516.0,2.5,127,160.0
4119,C2,516.0,4.0,127,160.0
4120,E4,516.0,1.0,127,160.0
4121,E5,516.0,1.0,127,160.0
4122,B1,516.0,0.125,127,160.0
4123,G2,516.0,0.125,127,160.0
4124,C2,516.0,0.125,127,160.0
4125,G3,516.0,4.0,127,160.0
4126,D5,516.0,4.0,127,160.0
4127,B4,516.0,4.0,127,160.0
4128,G4,516.0,4.0,127,160.0
4129,D5,516.0,4.0,127,160.0
4130,G5,516.0,4.0,127,160.0
4131,B5,516.0,4.0,127,160.0
4132,G3,516.0,4.0,127,160.0
4133,G5,516.0,1.0,127,160.0
4134,D5,516.0,1.0,127,160.0
4135,G4,516.0,1.0,127,160.0
4136,C3,517.0,0.25,127,160.0
4137,A4,517.0,0.5,127,160.0
4138,A5,517.0,0.5,127,160.0
4139,E2,517.0,0.125,127,160.0
4140,E-2,517.0,0.125,127,160.0
4141,B4,517.5,0.5,127,160.0
4142,B5,517.5,0.5,127,160.0
4143,A5,517.5,0.5,127,160.0
4144,G5,517.5,0.5,127,160.0
4145,D5,517.5,0.5,127,160.0
4146,G4,517.5,0.5,127,160.0
4147,C3,518.0,0.25,76,160.0
4148,G1,518.0,0.125,127,160.0
4149,A4,518.0,0.5,127,160.0
4150,A5,518.0,0.5,127,160.0
4151,C3,518.5,0.25,127,160.0
4152,C2,518.5,1.5,127,160.0
4153,G4,518.5,1.0,127,160.0
4154,G5,518.5,1.0,127,160.0
4155,B5,518.5,0.5,127,160.0
4156,B1,518.5,0.125,127,160.0
4157,G2,518.5,0.125,127,160.0
4158,C2,518.5,0.125,127,160.0
4159,G4,518.5,0.5,127,160.0
4160,G5,518.5,0.5,127,160.0
4161,D5,518.5,0.5,127,160.0
4162,C3,519.0,0.25,127,160.0
4163,E2,519.0,0.125,127,160.0
4164,E-2,519.0,0.125,127,160.0
4165,F#2,519.5,0.25,127,160.0
4166,G1,519.5,0.125,127,160.0
4167,D4,519.5,0.5,127,160.0
4168,D5,519.5,0.5,127,160.0
4169,G5,519.5,0.5,127,160.0
4170,G4,519.5,0.5,127,160.0
4171,D5,519.5,0.5,127,160.0
4172,G5,519.5,0.5,127,160.0
4173,G1,520.0,1.5,127,160.0
4174,G1,520.0,4.0,127,160.0
4175,D4,520.0,4.0,127,160.0
4176,D5,520.0,4.0,127,160.0
4177,G5,520.0,3.0,127,160.0
4178,B-2,520.0,0.125,127,160.0
4179,B1,520.0,0.125,127,160.0
4180,G2,520.0,0.125,127,160.0
4181,C2,520.0,0.125,127,160.0
4182,A3,520.0,4.0,127,160.0
4183,E4,520.0,4.0,127,160.0
4184,C5,520.0,4.0,127,160.0
4185,A4,520.0,4.0,127,160.0
4186,C6,520.0,0.5,127,160.0
4187,C5,520.0,0.5,127,160.0
4188,G5,520.0,0.5,127,160.0
4189,G2,520.5,0.25,127,160.0
4190,D6,520.5,0.5,127,160.0
4191,D5,520.5,0.5,127,160.0
4192,A5,520.5,0.5,127,160.0
4193,G2,521.0,0.25,127,160.0
4194,E-2,521.0,0.125,127,160.0
4195,E2,521.0,0.125,127,160.0
4196,F#2,521.0,0.125,127,160.0
4197,D5,521.0,1.0,127,160.0
4198,G5,521.0,1.0,127,160.0
4199,G4,521.0,1.0,127,160.0
4200,G1,521.5,2.0,127,160.0
4201,B1,521.5,0.125,127,160.0
4202,G2,521.5,0.125,127,160.0
4203,C2,521.5,0.125,127,160.0
4204,G2,522.0,0.25,127,160.0
4205,G1,522.5,0.125,127,160.0
4206,G5,522.5,0.5,127,160.0
4207,G4,522.5,0.5,127,160.0
4208,D5,522.5,0.5,127,160.0
4209,E-2,523.0,0.125,127,160.0
4210,E2,523.0,0.125,127,160.0
4211,G5,523.0,0.5,127,160.0
4212,C6,523.0,0.5,127,160.0
4213,C5,523.0,0.5,127,160.0
4214,G2,523.5,0.25,127,160.0
4215,G1,523.5,0.5,127,160.0
4216,B1,523.5,0.125,127,160.0
4217,G2,523.5,0.125,127,160.0
4218,C2,523.5,0.125,127,160.0
4219,D6,523.5,0.5,127,160.0
4220,A5,523.5,0.5,127,160.0
4221,D5,523.5,0.5,127,160.0
4222,G2,524.0,0.25,127,160.0
4223,G1,524.0,2.5,127,160.0
4224,G1,524.0,4.0,127,160.0
4225,D4,524.0,1.0,127,160.0
4226,D5,524.0,1.0,127,160.0
4227,B1,524.0,0.125,127,160.0
4228,G2,524.0,0.125,127,160.0
4229,C2,524.0,0.125,127,160.0
4230,D5,524.0,4.0,127,160.0
4231,G5,524.0,4.0,127,160.0
4232,B5,524.0,4.0,127,160.0
4233,G3,524.0,4.0,127,160.0
4234,G5,524.0,1.0,127,160.0
4235,D5,524.0,1.0,127,160.0
4236,G4,524.0,1.0,127,160.0
4237,G2,525.0,0.25,127,160.0
4238,D4,525.0,0.5,127,160.0
4239,D5,525.0,0.5,127,160.0
4240,E2,525.0,0.125,127,160.0
4241,E-2,525.0,0.125,127,160.0
4242,D4,525.5,0.5,127,160.0
4243,D5,525.5,0.5,127,160.0
4244,G5,525.5,0.5,127,160.0
4245,D5,525.5,0.5,127,160.0
4246,G4,525.5,0.5,127,160.0
4247,G1,526.0,0.125,127,160.0
4248,D4,526.0,0.5,127,160.0
4249,D5,526.0,0.5,127,160.0
4250,G2,526.5,0.25,127,160.0
4251,G1,526.5,1.5,127,160.0
4252,B3,526.5,1.0,127,160.0
4253,B4,526.5,1.0,127,160.0
4254,B1,526.5,0.125,127,160.0
4255,G2,526.5,0.125,127,160.0
4256,C2,526.5,0.125,127,160.0
4257,G4,526.5,0.5,127,160.0
4258,G5,526.5,0.5,127,160.0
4259,D5,526.5,0.5,127,160.0
4260,G2,527.0,0.25,127,160.0
4261,E2,527.0,0.125,127,160.0
4262,E-2,527.0,0.125,127,160.0
4263,F#2,527.5,0.25,127,160.0
4264,G1,527.5,0.125,127,160.0
4265,D4,527.5,0.5,127,160.0
4266,D5,527.5,0.5,127,160.0
4267,G5,527.5,0.5,127,160.0
4268,G4,527.5,0.5,127,160.0
4269,D5,527.5,0.5,127,160.0
4270,G5,527.5,0.5,127,160.0
4271,G1,528.0,1.5,127,160.0
4272,G1,528.0,4.0,127,160.0
4273,D4,528.0,4.0,127,160.0
4274,D5,528.0,4.0,127,160.0
4275,D6,528.0,0.5,127,160.0
4276,B-2,528.0,0.125,127,160.0
4277,B1,528.0,0.125,127,160.0
4278,G2,528.0,0.125,127,160.0
4279,C2,528.0,0.125,127,160.0
4280,A3,528.0,4.0,127,160.0
4281,E4,528.0,4.0,127,160.0
4282,C5,528.0,4.0,127,160.0
4283,A4,528.0,4.0,127,160.0
4284,C6,528.0,0.5,127,160.0
4285,C5,528.0,0.5,127,160.0
4286,G5,528.0,0.5,127,160.0
4287,G2,528.5,0.25,127,160.0
4288,D6,528.5,0.5,127,160.0
4289,D6,528.5,0.5,127,160.0
4290,D5,528.5,0.5,127,160.0
4291,A5,528.5,0.5,127,160.0
4292,G2,529.0,0.25,127,160.0
4293,B5,529.0,1.0,127,160.0
4294,E-2,529.0,0.125,127,160.0
4295,E2,529.0,0.125,127,160.0
4296,F#2,529.0,0.125,127,160.0
4297,D5,529.0,1.0,127,160.0
4298,G5,529.0,1.0,127,160.0
4299,G4,529.0,1.0,127,160.0
4300,G1,529.5,2.0,127,160.0
4301,B1,529.5,0.125,127,160.0
4302,G2,529.5,0.125,127,160.0
4303,C2,529.5,0.125,127,160.0
4304,G2,530.0,0.25,127,160.0
4305,G1,530.5,0.125,127,160.0
4306,G5,530.5,0.5,127,160.0
4307,G5,530.5,0.5,127,160.0
4308,G4,530.5,0.5,127,160.0
4309,D5,530.5,0.5,127,160.0
4310,D6,531.0,0.5,127,160.0
4311,E-2,531.0,0.125,127,160.0
4312,E2,531.0,0.125,127,160.0
4313,G5,531.0,0.5,127,160.0
4314,C6,531.0,0.5,127,160.0
4315,C5,531.0,0.5,127,160.0
4316,G2,531.5,0.25,127,160.0
4317,G1,531.5,0.5,127,160.0
4318,D6,531.5,0.5,127,160.0
4319,B1,531.5,0.125,127,160.0
4320,G2,531.5,0.125,127,160.0
4321,C2,531.5,0.125,127,160.0
4322,D6,531.5,0.5,127,160.0
4323,A5,531.5,0.5,127,160.0
4324,D5,531.5,0.5,127,160.0
4325,G2,532.0,0.25,127,160.0
4326,G1,532.0,2.5,127,160.0
4327,G1,532.0,4.0,127,160.0
4328,D4,532.0,1.0,127,160.0
4329,D5,532.0,1.0,127,160.0
4330,B5,532.0,1.0,127,160.0
4331,B1,532.0,0.125,127,160.0
4332,G2,532.0,0.125,127,160.0
4333,C2,532.0,0.125,127,160.0
4334,C5,532.0,4.0,127,160.0
4335,C4,532.0,4.0,127,160.0
4336,G4,532.0,4.0,127,160.0
4337,E5,532.0,4.0,127,160.0
4338,G5,532.0,1.0,127,160.0
4339,D5,532.0,1.0,127,160.0
4340,G4,532.0,1.0,127,160.0
4341,G2,533.0,0.25,127,160.0
4342,B3,533.0,0.5,127,160.0
4343,D5,533.0,0.5,127,160.0
4344,E2,533.0,0.125,127,160.0
4345,E-2,533.0,0.125,127,160.0
4346,E1,533.0,0.125,127,160.0
4347,D6,533.0,0.5,127,160.0
4348,A5,533.0,0.5,127,160.0
4349,D5,533.0,0.5,127,160.0
4350,E4,533.5,1.0,127,160.0
4351,E5,533.5,1.0,127,160.0
4352,A5,533.5,0.5,127,160.0
4353,E6,533.5,1.0,127,160.0
4354,B5,533.5,1.0,127,160.0
4355,E5,533.5,1.0,127,160.0
4356,G1,534.0,0.125,127,160.0
4357,E1,534.0,0.125,127,160.0
4358,E-2,534.0,0.125,127,160.0
4359,G2,534.5,0.25,127,160.0
4360,G1,534.5,1.5,127,160.0
4361,G4,534.5,1.0,127,160.0
4362,G5,534.5,1.0,127,160.0
4363,G5,534.5,0.5,127,160.0
4364,B1,534.5,0.125,127,160.0
4365,G2,534.5,0.125,127,160.0
4366,C2,534.5,0.125,127,160.0
4367,G6,534.5,1.0,127,160.0
4368,D6,534.5,1.0,127,160.0
4369,G5,534.5,1.0,127,160.0
4370,G2,535.0,0.25,127,160.0
4371,E2,535.0,0.125,127,160.0
4372,E-2,535.0,0.125,127,160.0
4373,E1,535.0,0.125,127,160.0
4374,G1,535.5,0.125,127,160.0
4375,E4,535.5,0.5,127,160.0
4376,E5,535.5,0.5,127,160.0
4377,G5,535.5,0.5,127,160.0
4378,A1,536.0,1.5,127,160.0
4379,A1,536.0,4.0,127,160.0
4380,E4,536.0,4.0,127,160.0
4381,E5,536.0,4.0,127,160.0
4382,A5,536.0,3.0,127,160.0
4383,B-2,536.0,0.125,127,160.0
4384,B1,536.0,0.125,127,160.0
4385,G2,536.0,0.125,127,160.0
4386,C2,536.0,0.125,127,160.0
4387,C6,536.0,0.5,127,160.0
4388,C5,536.0,0.5,127,160.0
4389,G5,536.0,0.5,127,160.0
4390,A2,536.5,0.25,127,160.0
4391,D6,536.5,0.5,127,160.0
4392,D5,536.5,0.5,127,160.0
4393,A5,536.5,0.5,127,160.0
4394,A2,537.0,0.25,127,160.0
4395,E-2,537.0,0.125,127,160.0
4396,E2,537.0,0.125,127,160.0
4397,F#2,537.0,0.125,127,160.0
4398,D5,537.0,1.0,127,160.0
4399,G5,537.0,1.0,127,160.0
4400,G4,537.0,1.0,127,160.0
4401,A1,537.5,2.0,127,160.0
4402,B1,537.5,0.125,127,160.0
4403,G2,537.5,0.125,127,160.0
4404,C2,537.5,0.125,127,160.0
4405,A2,538.0,0.25,127,160.0
4406,G1,538.5,0.125,127,160.0
4407,G5,538.5,0.5,127,160.0
4408,G4,538.5,0.5,127,160.0
4409,D5,538.5,0.5,127,160.0
4410,A2,539.0,0.25,76,160.0
4411,E-2,539.0,0.125,127,160.0
4412,E2,539.0,0.125,127,160.0
4413,G5,539.0,0.5,127,160.0
4414,C6,539.0,0.5,127,160.0
4415,C5,539.0,0.5,127,160.0
4416,A2,539.5,0.25,127,160.0
4417,A1,539.5,0.5,127,160.0
4418,B1,539.5,0.125,127,160.0
4419,G2,539.5,0.125,127,160.0
4420,C2,539.5,0.125,127,160.0
4421,D6,539.5,0.5,127,160.0
4422,A5,539.5,0.5,127,160.0
4423,D5,539.5,0.5,127,160.0
4424,A2,540.0,0.25,127,160.0
4425,A1,540.0,2.5,127,160.0
4426,A1,540.0,4.0,127,160.0
4427,E4,540.0,1.0,127,160.0
4428,E5,540.0,1.0,127,160.0
4429,B1,540.0,0.125,127,160.0
4430,G2,540.0,0.125,127,160.0
4431,C2,540.0,0.125,127,160.0
4432,C5,540.0,4.0,127,160.0
4433,C4,540.0,4.0,127,160.0
4434,G4,540.0,4.0,127,160.0
4435,E5,540.0,4.0,127,160.0
4436,G5,540.0,1.0,127,160.0
4437,D5,540.0,1.0,127,160.0
4438,G4,540.0,1.0,127,160.0
4439,A2,541.0,0.25,127,160.0
4440,A4,541.0,0.5,127,160.0
4441,A5,541.0,0.5,127,160.0
4442,E2,541.0,0.125,127,160.0
4443,E-2,541.0,0.125,127,160.0
4444,B4,541.5,0.5,127,160.0
4445,B5,541.5,0.5,127,160.0
4446,G5,541.5,0.5,127,160.0
4447,D5,541.5,0.5,127,160.0
4448,G4,541.5,0.5,127,160.0
4449,A2,542.0,0.25,76,160.0
4450,G1,542.0,0.125,127,160.0
4451,A4,542.0,0.5,127,160.0
4452,A5,542.0,0.5,127,160.0
4453,A2,542.5,0.25,127,160.0
4454,A1,542.5,1.5,127,160.0
4455,G4,542.5,1.0,127,160.0
4456,G5,542.5,1.0,127,160.0
4457,B1,542.5,0.125,127,160.0
4458,G2,542.5,0.125,127,160.0
4459,C2,542.5,0.125,127,160.0
4460,G4,542.5,0.5,127,160.0
4461,G5,542.5,0.5,127,160.0
4462,D5,542.5,0.5,127,160.0
4463,A2,543.0,0.25,127,160.0
4464,E2,543.0,0.125,127,160.0
4465,E-2,543.0,0.125,127,160.0
4466,C3,543.5,0.25,127,160.0
4467,G1,543.5,0.125,127,160.0
4468,E4,543.5,0.5,127,160.0
4469,E5,543.5,0.5,127,160.0
4470,G4,543.5,0.5,127,160.0
4471,D5,543.5,0.5,127,160.0
4472,G5,543.5,0.5,127,160.0
4473,C2,544.0,1.5,127,160.0
4474,C2,544.0,4.0,127,160.0
4475,E4,544.0,4.0,127,160.0
4476,E5,544.0,4.0,127,160.0
4477,B-2,544.0,0.125,127,160.0
4478,B1,544.0,0.125,127,160.0
4479,G2,544.0,0.125,127,160.0
4480,C2,544.0,0.125,127,160.0
4481,G3,544.0,4.0,127,160.0
4482,D5,544.0,4.0,127,160.0
4483,B4,544.0,4.0,127,160.0
4484,G4,544.0,4.0,127,160.0
4485,C6,544.0,0.5,127,160.0
4486,C5,544.0,0.5,127,160.0
4487,G5,544.0,0.5,127,160.0
4488,C3,544.5,0.25,127,160.0
4489,D6,544.5,0.5,127,160.0
4490,D5,544.5,0.5,127,160.0
4491,A5,544.5,0.5,127,160.0
4492,C3,545.0,0.25,127,160.0
4493,E-2,545.0,0.125,127,160.0
4494,E2,545.0,0.125,127,160.0
4495,F#2,545.0,0.125,127,160.0
4496,D5,545.0,1.0,127,160.0
4497,G5,545.0,1.0,127,160.0
4498,G4,545.0,1.0,127,160.0
4499,C2,545.5,2.0,127,160.0
4500,B1,545.5,0.125,127,160.0
4501,G2,545.5,0.125,127,160.0
4502,C2,545.5,0.125,127,160.0
4503,C3,546.0,0.25,127,160.0
4504,G1,546.5,0.125,127,160.0
4505,G5,546.5,0.5,127,160.0
4506,G4,546.5,0.5,127,160.0
4507,D5,546.5,0.5,127,160.0
4508,C3,547.0,0.25,76,160.0
4509,E-2,547.0,0.125,127,160.0
4510,E2,547.0,0.125,127,160.0
4511,G5,547.0,0.5,127,160.0
4512,C6,547.0,0.5,127,160.0
4513,C5,547.0,0.5,127,160.0
4514,C3,547.5,0.25,127,160.0
4515,C2,547.5,0.5,127,160.0
4516,B1,547.5,0.125,127,160.0
4517,G2,547.5,0.125,127,160.0
4518,C2,547.5,0.125,127,160.0
4519,D6,547.5,0.5,127,160.0
4520,A5,547.5,0.5,127,160.0
4521,D5,547.5,0.5,127,160.0
4522,C3,548.0,0.25,127,160.0
4523,C2,548.0,2.5,127,160.0
4524,C2,548.0,4.0,127,160.0
4525,E4,548.0,1.0,127,160.0
4526,E5,548.0,1.0,127,160.0
4527,B1,548.0,0.125,127,160.0
4528,G2,548.0,0.125,127,160.0
4529,C2,548.0,0.125,127,160.0
4530,G5,548.0,1.0,127,160.0
4531,D5,548.0,1.0,127,160.0
4532,G4,548.0,1.0,127,160.0
4533,C3,549.0,0.25,127,160.0
4534,A4,549.0,0.5,127,160.0
4535,A5,549.0,0.5,127,160.0
4536,E2,549.0,0.125,127,160.0
4537,E-2,549.0,0.125,127,160.0
4538,B4,549.5,0.5,127,160.0
4539,B5,549.5,0.5,127,160.0
4540,A5,549.5,0.5,127,160.0
4541,G5,549.5,0.5,127,160.0
4542,G4,549.5,0.5,127,160.0
4543,D5,549.5,0.5,127,160.0
4544,C3,550.0,0.25,76,160.0
4545,G1,550.0,0.125,127,160.0
4546,A4,550.0,0.5,127,160.0
4547,A5,550.0,0.5,127,160.0
4548,C3,550.5,0.25,127,160.0
4549,C2,550.5,1.5,127,160.0
4550,G4,550.5,1.0,127,160.0
4551,G5,550.5,1.0,127,160.0
4552,B5,550.5,0.5,127,160.0
4553,B1,550.5,0.125,127,160.0
4554,G2,550.5,0.125,127,160.0
4555,C2,550.5,0.125,127,160.0
4556,G5,550.5,0.5,127,160.0
4557,G4,550.5,0.5,127,160.0
4558,D5,550.5,0.5,127,160.0
4559,C3,551.0,0.25,127,160.0
4560,E2,551.0,0.125,127,160.0
4561,E-2,551.0,0.125,127,160.0
4562,F#2,551.5,0.25,127,160.0
4563,G1,551.5,0.125,127,160.0
4564,D4,551.5,0.5,127,160.0
4565,D5,551.5,0.5,127,160.0
4566,G5,551.5,0.5,127,160.0
4567,G5,551.5,0.5,127,160.0
4568,D5,551.5,0.5,127,160.0
4569,G4,551.5,0.5,127,160.0
4570,G1,552.0,1.5,127,160.0
4571,G1,552.0,4.0,127,160.0
4572,D4,552.0,4.0,127,160.0
4573,D5,552.0,4.0,127,160.0
4574,G5,552.0,3.0,127,160.0
4575,B-2,552.0,0.125,127,160.0
4576,B1,552.0,0.125,127,160.0
4577,G2,552.0,0.125,127,160.0
4578,C2,552.0,0.125,127,160.0
4579,C6,552.0,0.5,127,160.0
4580,C5,552.0,0.5,127,160.0
4581,G5,552.0,0.5,127,160.0
4582,G2,552.5,0.25,127,160.0
4583,D6,552.5,0.5,127,160.0
4584,D5,552.5,0.5,127,160.0
4585,A5,552.5,0.5,127,160.0
4586,G2,553.0,0.25,127,160.0
4587,E-2,553.0,0.125,127,160.0
4588,E2,553.0,0.125,127,160.0
4589,F#2,553.0,0.125,127,160.0
4590,D5,553.0,1.0,127,160.0
4591,G5,553.0,1.0,127,160.0
4592,G4,553.0,1.0,127,160.0
4593,G1,553.5,2.0,127,160.0
4594,B1,553.5,0.125,127,160.0
4595,G2,553.5,0.125,127,160.0
4596,C2,553.5,0.125,127,160.0
4597,G2,554.0,0.25,127,160.0
4598,G1,554.5,0.125,127,160.0
4599,G5,554.5,0.5,127,160.0
4600,G4,554.5,0.5,127,160.0
4601,D5,554.5,0.5,127,160.0
4602,E-2,555.0,0.125,127,160.0
4603,E2,555.0,0.125,127,160.0
4604,G5,555.0,0.5,127,160.0
4605,C6,555.0,0.5,127,160.0
4606,C5,555.0,0.5,127,160.0
4607,G2,555.5,0.25,127,160.0
4608,G1,555.5,0.5,127,160.0
4609,B1,555.5,0.125,127,160.0
4610,G2,555.5,0.125,127,160.0
4611,C2,555.5,0.125,127,160.0
4612,D6,555.5,0.5,127,160.0
4613,A5,555.5,0.5,127,160.0
4614,D5,555.5,0.5,127,160.0
4615,G2,556.0,0.25,127,160.0
4616,G1,556.0,2.5,127,160.0
4617,G1,556.0,4.0,127,160.0
4618,D4,556.0,1.0,127,160.0
4619,D5,556.0,1.0,127,160.0
4620,B1,556.0,0.125,127,160.0
4621,G2,556.0,0.125,127,160.0
4622,C2,556.0,0.125,127,160.0
4623,G5,556.0,1.0,127,160.0
4624,D5,556.0,1.0,127,160.0
4625,G4,556.0,1.0,127,160.0
4626,G2,557.0,0.25,127,160.0
4627,D4,557.0,0.5,127,160.0
4628,D5,557.0,0.5,127,160.0
4629,E2,557.0,0.125,127,160.0
4630,E-2,557.0,0.125,127,160.0
4631,D4,557.5,0.5,127,160.0
4632,D5,557.5,0.5,127,160.0
4633,G5,557.5,0.5,127,160.0
4634,D5,557.5,0.5,127,160.0
4635,G4,557.5,0.5,127,160.0
4636,G1,558.0,0.125,127,160.0
4637,D4,558.0,0.5,127,160.0
4638,D5,558.0,0.5,127,160.0
4639,G2,558.5,0.25,127,160.0
4640,G1,558.5,1.5,127,160.0
4641,B3,558.5,1.0,127,160.0
4642,B4,558.5,1.0,127,160.0
4643,B1,558.5,0.125,127,160.0
4644,G2,558.5,0.125,127,160.0
4645,C2,558.5,0.125,127,160.0
4646,G4,558.5,0.5,127,160.0
4647,G5,558.5,0.5,127,160.0
4648,D5,558.5,0.5,127,160.0
4649,G2,559.0,0.25,127,160.0
4650,E2,559.0,0.125,127,160.0
4651,E-2,559.0,0.125,127,160.0
4652,F#2,559.5,0.25,127,160.0
4653,G1,559.5,0.125,127,160.0
4654,D4,559.5,0.5,127,160.0
4655,D5,559.5,0.5,127,160.0
4656,G4,559.5,0.5,127,160.0
4657,D5,559.5,0.5,127,160.0
4658,G5,559.5,0.5,127,160.0
4659,G1,560.0,1.5,127,160.0
4660,G1,560.0,4.0,127,160.0
4661,D4,560.0,4.0,127,160.0
4662,D5,560.0,4.0,127,160.0
4663,B-2,560.0,0.125,127,160.0
4664,B1,560.0,0.125,127,160.0
4665,G2,560.0,0.125,127,160.0
4666,C2,560.0,0.125,127,160.0
4667,G3,560.0,4.0,127,160.0
4668,D5,560.0,4.0,127,160.0
4669,B4,560.0,4.0,127,160.0
4670,G4,560.0,4.0,127,160.0
4671,C6,560.0,0.5,127,160.0
4672,C5,560.0,0.5,127,160.0
4673,G5,560.0,0.5,127,160.0
4674,G2,560.5,0.25,127,160.0
4675,D6,560.5,0.5,127,160.0
4676,D5,560.5,0.5,127,160.0
4677,A5,560.5,0.5,127,160.0
4678,G2,561.0,0.25,127,160.0
4679,D6,561.0,0.75,127,160.0
4680,E-2,561.0,0.125,127,160.0
4681,E2,561.0,0.125,127,160.0
4682,F#2,561.0,0.125,127,160.0
4683,D5,561.0,1.0,127,160.0
4684,G5,561.0,1.0,127,160.0
4685,G4,561.0,1.0,127,160.0
4686,G1,561.5,2.0,127,160.0
4687,B1,561.5,0.125,127,160.0
4688,G2,561.5,0.125,127,160.0
4689,C2,561.5,0.125,127,160.0
4690,G2,562.0,0.25,127,160.0
4691,G1,562.5,0.125,127,160.0
4692,G5,562.5,0.5,127,160.0
4693,G4,562.5,0.5,127,160.0
4694,D5,562.5,0.5,127,160.0
4695,E-2,563.0,0.125,127,160.0
4696,E2,563.0,0.125,127,160.0
4697,G5,563.0,0.5,127,160.0
4698,C6,563.0,0.5,127,160.0
4699,C5,563.0,0.5,127,160.0
4700,G2,563.5,0.25,127,160.0
4701,G1,563.5,0.5,127,160.0
4702,B1,563.5,0.125,127,160.0
4703,G2,563.5,0.125,127,160.0
4704,C2,563.5,0.125,127,160.0
4705,D6,563.5,0.5,127,160.0
4706,A5,563.5,0.5,127,160.0
4707,D5,563.5,0.5,127,160.0
4708,G2,564.0,0.25,127,160.0
4709,G1,564.0,2.5,127,160.0
4710,G1,564.0,4.0,127,160.0
4711,D4,564.0,1.0,127,160.0
4712,D5,564.0,1.0,127,160.0
4713,B1,564.0,0.125,127,160.0
4714,G2,564.0,0.125,127,160.0
4715,C2,564.0,0.125,127,160.0
4716,G5,564.0,1.0,127,160.0
4717,D5,564.0,1.0,127,160.0
4718,G4,564.0,1.0,127,160.0
4719,G2,565.0,0.25,127,160.0
4720,B3,565.0,0.5,127,160.0
4721,D5,565.0,0.5,127,160.0
4722,E2,565.0,0.125,127,160.0
4723,E-2,565.0,0.125,127,160.0
4724,E1,565.0,0.125,127,160.0
4725,D6,565.0,0.5,127,160.0
4726,A5,565.0,0.5,127,160.0
4727,D5,565.0,0.5,127,160.0
4728,E4,565.5,1.0,127,160.0
4729,E5,565.5,1.0,127,160.0
4730,E6,565.5,1.0,127,160.0
4731,B5,565.5,1.0,127,160.0
4732,E5,565.5,1.0,127,160.0
4733,G1,566.0,0.125,127,160.0
4734,E1,566.0,0.125,127,160.0
4735,E-2,566.0,0.125,127,160.0
4736,G2,566.5,0.25,127,160.0
4737,G1,566.5,1.5,127,160.0
4738,G4,566.5,1.0,127,160.0
4739,G5,566.5,1.0,127,160.0
4740,B1,566.5,0.125,127,160.0
4741,G2,566.5,0.125,127,160.0
4742,C2,566.5,0.125,127,160.0
4743,G6,566.5,1.0,127,160.0
4744,D6,566.5,1.0,127,160.0
4745,G5,566.5,1.0,127,160.0
4746,G2,567.0,0.25,127,160.0
4747,E2,567.0,0.125,127,160.0
4748,E-2,567.0,0.125,127,160.0
4749,E1,567.0,0.125,127,160.0
4750,A2,567.5,0.25,127,160.0
4751,G1,567.5,0.125,127,160.0
4752,E4,567.5,0.5,127,160.0
4753,E5,567.5,0.5,127,160.0
4754,A1,568.0,1.5,127,160.0
4755,A1,568.0,4.0,127,160.0
4756,E4,568.0,4.0,127,160.0
4757,E5,568.0,4.0,127,160.0
4758,B-2,568.0,0.125,127,160.0
4759,B1,568.0,0.125,127,160.0
4760,G2,568.0,0.125,127,160.0
4761,C2,568.0,0.125,127,160.0
4762,C6,568.0,0.5,127,160.0
4763,C5,568.0,0.5,127,160.0
4764,G5,568.0,0.5,127,160.0
4765,A2,568.5,0.25,127,160.0
4766,D6,568.5,0.5,127,160.0
4767,D5,568.5,0.5,127,160.0
4768,A5,568.5,0.5,127,160.0
4769,A2,569.0,0.25,127,160.0
4770,E-2,569.0,0.125,127,160.0
4771,E2,569.0,0.125,127,160.0
4772,F#2,569.0,0.125,127,160.0
4773,D5,569.0,1.0,127,160.0
4774,G5,569.0,1.0,127,160.0
4775,G4,569.0,1.0,127,160.0
4776,A1,569.5,2.0,127,160.0
4777,B1,569.5,0.125,127,160.0
4778,G2,569.5,0.125,127,160.0
4779,C2,569.5,0.125,127,160.0
4780,A2,570.0,0.25,127,160.0
4781,G1,570.5,0.125,127,160.0
4782,G5,570.5,0.5,127,160.0
4783,G4,570.5,0.5,127,160.0
4784,D5,570.5,0.5,127,160.0
4785,A2,571.0,0.25,76,160.0
4786,E-2,571.0,0.125,127,160.0
4787,E2,571.0,0.125,127,160.0
4788,G5,571.0,0.5,127,160.0
4789,C6,571.0,0.5,127,160.0
4790,C5,571.0,0.5,127,160.0
4791,A2,571.5,0.25,127,160.0
4792,A1,571.5,0.5,127,160.0
4793,B1,571.5,0.125,127,160.0
4794,G2,571.5,0.125,127,160.0
4795,C2,571.5,0.125,127,160.0
4796,D6,571.5,0.5,127,160.0
4797,A5,571.5,0.5,127,160.0
4798,D5,571.5,0.5,127,160.0
4799,A2,572.0,0.25,127,160.0
4800,A1,572.0,2.5,127,160.0
4801,A1,572.0,4.0,127,160.0
4802,E4,572.0,1.0,127,160.0
4803,E5,572.0,1.0,127,160.0
4804,B1,572.0,0.125,127,160.0
4805,G2,572.0,0.125,127,160.0
4806,C2,572.0,0.125,127,160.0
4807,G3,572.0,4.0,127,160.0
4808,D5,572.0,4.0,127,160.0
4809,B4,572.0,4.0,127,160.0
4810,G4,572.0,4.0,127,160.0
4811,G5,572.0,1.0,127,160.0
4812,D5,572.0,1.0,127,160.0
4813,G4,572.0,1.0,127,160.0
4814,A2,573.0,0.25,127,160.0
4815,A4,573.0,0.5,127,160.0
4816,A5,573.0,0.5,127,160.0
4817,E2,573.0,0.125,127,160.0
4818,E-2,573.0,0.125,127,160.0
4819,B4,573.5,0.5,127,160.0
4820,B5,573.5,0.5,127,160.0
4821,G5,573.5,0.5,127,160.0
4822,D5,573.5,0.5,127,160.0
4823,G4,573.5,0.5,127,160.0
4824,A2,574.0,0.25,76,160.0
4825,G1,574.0,0.125,127,160.0
4826,A4,574.0,0.5,127,160.0
4827,A5,574.0,0.5,127,160.0
4828,A2,574.5,0.25,127,160.0
4829,A1,574.5,1.5,127,160.0
4830,G4,574.5,1.0,127,160.0
4831,G5,574.5,1.0,127,160.0
4832,B1,574.5,0.125,127,160.0
4833,G2,574.5,0.125,127,160.0
4834,C2,574.5,0.125,127,160.0
4835,G4,574.5,0.5,127,160.0
4836,G5,574.5,0.5,127,160.0
4837,D5,574.5,0.5,127,160.0
4838,A2,575.0,0.25,127,160.0
4839,E2,575.0,0.125,127,160.0
4840,E-2,575.0,0.125,127,160.0
4841,C3,575.5,0.25,127,160.0
4842,G1,575.5,0.125,127,160.0
4843,E4,575.5,0.5,127,160.0
4844,E5,575.5,0.5,127,160.0
4845,G4,575.5,0.5,127,160.0
4846,D5,575.5,0.5,127,160.0
4847,G5,575.5,0.5,127,160.0
4848,C2,576.0,1.5,127,160.0
4849,C2,576.0,4.0,127,160.0
4850,E4,576.0,4.0,127,160.0
4851,E5,576.0,4.0,127,160.0
4852,B-2,576.0,0.125,127,160.0
4853,B1,576.0,0.125,127,160.0
4854,G2,576.0,0.125,127,160.0
4855,C2,576.0,0.125,127,160.0
4856,C6,576.0,0.5,127,160.0
4857,C5,576.0,0.5,127,160.0
4858,G5,576.0,0.5,127,160.0
4859,C3,576.5,0.25,127,160.0
4860,D6,576.5,0.5,127,160.0
4861,D5,576.5,0.5,127,160.0
4862,A5,576.5,0.5,127,160.0
4863,C3,577.0,0.25,127,160.0
4864,E-2,577.0,0.125,127,160.0
4865,E2,577.0,0.125,127,160.0
4866,F#2,577.0,0.125,127,160.0
4867,D5,577.0,1.0,127,160.0
4868,G5,577.0,1.0,127,160.0
4869,G4,577.0,1.0,127,160.0
4870,C2,577.5,2.0,127,160.0
4871,B1,577.5,0.125,127,160.0
4872,G2,577.5,0.125,127,160.0
4873,C2,577.5,0.125,127,160.0
4874,C3,578.0,0.25,127,160.0
4875,G1,578.5,0.125,127,160.0
4876,G5,578.5,0.5,127,160.0
4877,G4,578.5,0.5,127,160.0
4878,D5,578.5,0.5,127,160.0
4879,C3,579.0,0.25,76,160.0
4880,E-2,579.0,0.125,127,160.0
4881,E2,579.0,0.125,127,160.0
4882,G5,579.0,0.5,127,160.0
4883,C6,579.0,0.5,127,160.0
4884,C5,579.0,0.5,127,160.0
4885,C3,579.5,0.25,127,160.0
4886,C2,579.5,0.5,127,160.0
4887,B1,579.5,0.125,127,160.0
4888,G2,579.5,0.125,127,160.0
4889,C2,579.5,0.125,127,160.0
4890,D6,579.5,0.5,127,160.0
4891,A5,579.5,0.5,127,160.0
4892,D5,579.5,0.5,127,160.0
4893,C3,580.0,0.25,127,160.0
4894,C2,580.0,2.5,127,160.0
4895,C2,580.0,4.0,127,160.0
4896,E4,580.0,1.0,127,160.0
4897,E5,580.0,1.0,127,160.0
4898,B1,580.0,0.125,127,160.0
4899,G2,580.0,0.125,127,160.0
4900,C2,580.0,0.125,127,160.0
4901,G3,580.0,4.0,127,160.0
4902,D5,580.0,4.0,127,160.0
4903,B4,580.0,4.0,127,160.0
4904,G4,580.0,4.0,127,160.0
4905,G5,580.0,1.0,127,160.0
4906,D5,580.0,1.0,127,160.0
4907,G4,580.0,1.0,127,160.0
4908,C3,581.0,0.25,127,160.0
4909,A4,581.0,0.5,127,160.0
4910,A5,581.0,0.5,127,160.0
4911,D5,581.0,0.5,127,160.0
4912,E2,581.0,0.125,127,160.0
4913,E-2,581.0,0.125,127,160.0
4914,B4,581.5,0.5,127,160.0
4915,B5,581.5,0.5,127,160.0
4916,A5,581.5,1.0,127,160.0
4917,G5,581.5,0.5,127,160.0
4918,D5,581.5,0.5,127,160.0
4919,G4,581.5,0.5,127,160.0
4920,C3,582.0,0.25,76,160.0
4921,G1,582.0,0.125,127,160.0
4922,A4,582.0,0.5,127,160.0
4923,A5,582.0,0.5,127,160.0
4924,C3,582.5,0.25,127,160.0
4925,C2,582.5,1.5,127,160.0
4926,G4,582.5,1.0,127,160.0
4927,G5,582.5,1.0,127,160.0
4928,G5,582.5,1.5,127,160.0
4929,B1,582.5,0.125,127,160.0
4930,G2,582.5,0.125,127,160.0
4931,C2,582.5,0.125,127,160.0
4932,G4,582.5,0.5,127,160.0
4933,G5,582.5,0.5,127,160.0
4934,D5,582.5,0.5,127,160.0
4935,C3,583.0,0.25,127,160.0
4936,E2,583.0,0.125,127,160.0
4937,E-2,583.0,0.125,127,160.0
4938,F#2,583.5,0.25,127,160.0
4939,G1,583.5,0.125,127,160.0
4940,D4,583.5,0.5,127,160.0
4941,D5,583.5,0.5,127,160.0
4942,G4,583.5,0.5,127,160.0
4943,D5,583.5,0.5,127,160.0
4944,G5,583.5,0.5,127,160.0
4945,G1,584.0,1.5,127,160.0
4946,G1,584.0,4.0,127,160.0
4947,D4,584.0,4.0,127,160.0
4948,D5,584.0,4.0,127,160.0
4949,B-2,584.0,0.125,127,160.0
4950,B1,584.0,0.125,127,160.0
4951,G2,584.0,0.125,127,160.0
4952,C2,584.0,0.125,127,160.0
4953,A3,584.0,4.0,127,160.0
4954,E4,584.0,4.0,127,160.0
4955,C5,584.0,4.0,127,160.0
4956,A4,584.0,4.0,127,160.0
4957,C6,584.0,0.5,127,160.0
4958,C5,584.0,0.5,127,160.0
4959,G5,584.0,0.5,127,160.0
4960,G2,584.5,0.25,127,160.0
4961,D6,584.5,0.5,127,160.0
4962,D5,584.5,0.5,127,160.0
4963,A5,584.5,0.5,127,160.0
4964,G2,585.0,0.25,127,160.0
4965,E-2,585.0,0.125,127,160.0
4966,E2,585.0,0.125,127,160.0
4967,F#2,585.0,0.125,127,160.0
4968,D5,585.0,1.0,127,160.0
4969,G5,585.0,1.0,127,160.0
4970,G4,585.0,1.0,127,160.0
4971,G1,585.5,2.0,127,160.0
4972,B1,585.5,0.125,127,160.0
4973,G2,585.5,0.125,127,160.0
4974,C2,585.5,0.125,127,160.0
4975,G2,586.0,0.25,127,160.0
4976,G1,586.5,0.125,127,160.0
4977,G5,586.5,0.5,127,160.0
4978,G4,586.5,0.5,127,160.0
4979,D5,586.5,0.5,127,160.0
4980,E-2,587.0,0.125,127,160.0
4981,E2,587.0,0.125,127,160.0
4982,G5,587.0,0.5,127,160.0
4983,C6,587.0,0.5,127,160.0
4984,C5,587.0,0.5,127,160.0
4985,G2,587.5,0.25,127,160.0
4986,G1,587.5,0.5,127,160.0
4987,B1,587.5,0.125,127,160.0
4988,G2,587.5,0.125,127,160.0
4989,C2,587.5,0.125,127,160.0
4990,D6,587.5,0.5,127,160.0
4991,A5,587.5,0.5,127,160.0
4992,D5,587.5,0.5,127,160.0
4993,G2,588.0,0.25,127,160.0
4994,G1,588.0,2.5,127,160.0
4995,G1,588.0,4.0,127,160.0
4996,D4,588.0,1.0,127,160.0
4997,D5,588.0,1.0,127,160.0
4998,B1,588.0,0.125,127,160.0
4999,G2,588.0,0.125,127,160.0
5000,C2,588.0,0.125,127,160.0
5001,G5,588.0,1.0,127,160.0
5002,D5,588.0,1.0,127,160.0
5003,G4,588.0,1.0,127,160.0
5004,G2,589.0,0.25,127,160.0
5005,D4,589.0,0.5,127,160.0
5006,D5,589.0,0.5,127,160.0
5007,E2,589.0,0.125,127,160.0
5008,E-2,589.0,0.125,127,160.0
5009,D4,589.5,0.5,127,160.0
5010,D5,589.5,0.5,127,160.0
5011,G5,589.5,0.5,127,160.0
5012,D5,589.5,0.5,127,160.0
5013,G4,589.5,0.5,127,160.0
5014,G1,590.0,0.125,127,160.0
5015,D4,590.0,0.5,127,160.0
5016,D5,590.0,0.5,127,160.0
5017,G2,590.5,0.25,127,160.0
5018,G1,590.5,1.5,127,160.0
5019,B3,590.5,1.0,127,160.0
5020,B4,590.5,1.0,127,160.0
5021,B1,590.5,0.125,127,160.0
5022,G2,590.5,0.125,127,160.0
5023,C2,590.5,0.125,127,160.0
5024,G4,590.5,0.5,127,160.0
5025,G5,590.5,0.5,127,160.0
5026,D5,590.5,0.5,127,160.0
5027,G2,591.0,0.25,127,160.0
5028,E2,591.0,0.125,127,160.0
5029,E-2,591.0,0.125,127,160.0
5030,F#2,591.5,0.25,127,160.0
5031,G1,591.5,0.125,127,160.0
5032,D4,591.5,0.5,127,160.0
5033,D5,591.5,0.5,127,160.0
5034,G4,591.5,0.5,127,160.0
5035,D5,591.5,0.5,127,160.0
5036,G5,591.5,0.5,127,160.0
5037,G1,592.0,1.5,127,160.0
5038,G1,592.0,4.0,127,160.0
5039,D4,592.0,4.0,127,160.0
5040,D5,592.0,4.0,127,160.0
5041,B-2,592.0,0.125,127,160.0
5042,B1,592.0,0.125,127,160.0
5043,G2,592.0,0.125,127,160.0
5044,C2,592.0,0.125,127,160.0
5045,A3,592.0,4.0,127,160.0
5046,E4,592.0,4.0,127,160.0
5047,C5,592.0,4.0,127,160.0
5048,A4,592.0,4.0,127,160.0
5049,C6,592.0,0.5,127,160.0
5050,C5,592.0,0.5,127,160.0
5051,G5,592.0,0.5,127,160.0
5052,G2,592.5,0.25,127,160.0
5053,D6,592.5,0.5,127,160.0
5054,D5,592.5,0.5,127,160.0
5055,A5,592.5,0.5,127,160.0
5056,G2,593.0,0.25,127,160.0
5057,E-2,593.0,0.125,127,160.0
5058,E2,593.0,0.125,127,160.0
5059,F#2,593.0,0.125,127,160.0
5060,D5,593.0,1.0,127,160.0
5061,G5,593.0,1.0,127,160.0
5062,G4,593.0,1.0,127,160.0
5063,G1,593.5,2.0,127,160.0
5064,B1,593.5,0.125,127,160.0
5065,G2,593.5,0.125,127,160.0
5066,C2,593.5,0.125,127,160.0
5067,G2,594.0,0.25,127,160.0
5068,G1,594.5,0.125,127,160.0
5069,G5,594.5,0.5,127,160.0
5070,G4,594.5,0.5,127,160.0
5071,D5,594.5,0.5,127,160.0
5072,E-2,595.0,0.125,127,160.0
5073,E2,595.0,0.125,127,160.0
5074,G5,595.0,0.5,127,160.0
5075,C6,595.0,0.5,127,160.0
5076,C5,595.0,0.5,127,160.0
5077,G2,595.5,0.25,127,160.0
5078,G1,595.5,0.5,127,160.0
5079,B1,595.5,0.125,127,160.0
5080,G2,595.5,0.125,127,160.0
5081,C2,595.5,0.125,127,160.0
5082,D6,595.5,0.5,127,160.0
5083,A5,595.5,0.5,127,160.0
5084,D5,595.5,0.5,127,160.0
5085,G2,596.0,0.25,127,160.0
5086,G1,596.0,2.5,127,160.0
5087,G1,596.0,4.0,127,160.0
5088,D4,596.0,1.0,127,160.0
5089,D5,596.0,1.0,127,160.0
5090,B1,596.0,0.125,127,160.0
5091,G2,596.0,0.125,127,160.0
5092,C2,596.0,0.125,127,160.0
5093,C5,596.0,4.0,127,160.0
5094,C4,596.0,4.0,127,160.0
5095,G4,596.0,4.0,127,160.0
5096,E5,596.0,4.0,127,160.0
5097,G5,596.0,1.0,127,160.0
5098,D5,596.0,1.0,127,160.0
5099,G4,596.0,1.0,127,160.0
5100,G2,597.0,0.25,127,160.0
5101,B3,597.0,0.5,127,160.0
5102,D5,597.0,0.5,127,160.0
5103,D5,597.0,0.5,127,160.0
5104,E2,597.0,0.125,127,160.0
5105,E-2,597.0,0.125,127,160.0
5106,E1,597.0,0.125,127,160.0
5107,D6,597.0,0.5,127,160.0
5108,A5,597.0,0.5,127,160.0
5109,D5,597.0,0.5,127,160.0
5110,E4,597.5,1.0,127,160.0
5111,E5,597.5,1.0,127,160.0
5112,E5,597.5,1.0,127,160.0
5113,E6,597.5,1.0,127,160.0
5114,B5,597.5,1.0,127,160.0
5115,E5,597.5,1.0,127,160.0
5116,G1,598.0,0.125,127,160.0
5117,E1,598.0,0.125,127,160.0
5118,E-2,598.0,0.125,127,160.0
5119,G2,598.5,0.25,127,160.0
5120,G1,598.5,1.5,127,160.0
5121,G4,598.5,1.0,127,160.0
5122,G5,598.5,1.0,127,160.0
5123,G5,598.5,1.0,127,160.0
5124,B1,598.5,0.125,127,160.0
5125,G2,598.5,0.125,127,160.0
5126,C2,598.5,0.125,127,160.0
5127,G6,598.5,1.0,127,160.0
5128,D6,598.5,1.0,127,160.0
5129,G5,598.5,1.0,127,160.0
5130,G2,599.0,0.25,127,160.0
5131,E2,599.0,0.125,127,160.0
5132,E-2,599.0,0.125,127,160.0
5133,E1,599.0,0.125,127,160.0
5134,G1,599.5,0.125,127,160.0
5135,E4,599.5,0.5,127,160.0
5136,E5,599.5,0.5,127,160.0
5137,E5,599.5,0.5,127,160.0
5138,E4,599.5,0.5,127,160.0
5139,E4,600.0,4.0,127,160.0
5140,E5,600.0,4.0,127,160.0
5141,A5,600.0,4.0,127,160.0
5142,E5,600.0,4.0,127,160.0
5143,C6,600.0,4.0,127,160.0
5144,A3,600.0,4.0,127,160.0
5145,E5,600.0,4.0,127,160.0
5146,E4,600.0,4.0,127,160.0
5147,E4,604.0,1.0,127,160.0
5148,E5,604.0,1.0,127,160.0
5149,C5,604.0,4.0,127,160.0
5150,C4,604.0,4.0,127,160.0
5151,G4,604.0,4.0,127,160.0
5152,E5,604.0,4.0,127,160.0
5153,D5,605.0,0.062,127,160.0
5154,E5,605.0,1.0,127,160.0
5155,E4,605.0,1.0,127,160.0
5156,B4,605.125,0.062,127,160.0
5157,A4,605.25,0.062,127,160.0
5158,G4,605.375,0.062,127,160.0
5159,E4,605.5,0.062,127,160.0
5160,B1,608.0,0.125,10,160.0
5161,G3,608.0,4.0,127,160.0
5162,D5,608.0,4.0,127,160.0
5163,B4,608.0,4.0,127,160.0
5164,G4,608.0,4.0,127,160.0
5165,A5,608.0,4.0,127,160.0
5166,E5,608.0,4.0,127,160.0
5167,C6,608.0,4.0,127,160.0
5168,A3,608.0,4.0,127,160.0
5169,E5,612.0,4.0,127,160.0
5170,G5,612.0,4.0,127,160.0
5171,C6,612.0,4.0,127,160.0
5172,C4,612.0,4.0,127,160.0
5173,E5,620.0,4.0,127,160.0
5174,G5,620.0,4.0,127,160.0
5175,C6,620.0,4.0,127,160.0
5176,C4,620.0,4.0,127,160.0
5177,G3,624.0,4.0,127,160.0
5178,D5,624.0,4.0,127,160.0
5179,B4,624.0,4.0,127,160.0
5180,G4,624.0,4.0,127,160.0
5181,D5,624.0,4.0,127,160.0
5182,G5,624.0,4.0,127,160.0
5183,B5,624.0,4.0,127,160.0
5184,G3,624.0,4.0,127,160.0
5185,G3,636.0,4.0,127,160.0
5186,D5,636.0,4.0,127,160.0
5187,B4,636.0,4.0,127,160.0
5188,G4,636.0,4.0,127,160.0
5189,D5,640.0,4.0,127,160.0
5190,G5,640.0,4.0,127,160.0
5191,B5,640.0,4.0,127,160.0
5192,G3,640.0,4.0,127,160.0
5193,G3,644.0,4.0,127,160.0
5194,D5,644.0,4.0,127,160.0
5195,B4,644.0,4.0,127,160.0
5196,G4,644.0,4.0,127,160.0
5197,A3,648.0,4.0,127,160.0
5198,E4,648.0,4.0,127,160.0
5199,C5,648.0,4.0,127,160.0
5200,A4,648.0,4.0,127,160.0
5201,D5,652.0,4.0,127,160.0
5202,G5,652.0,4.0,127,160.0
5203,B5,652.0,4.0,127,160.0
5204,G3,652.0,4.0,127,160.0
5205,A3,656.0,4.0,127,160.0
5206,E4,656.0,4.0,127,160.0
5207,C5,656.0,4.0,127,160.0
5208,A4,656.0,4.0,127,160.0
5209,C5,660.0,4.0,127,160.0
5210,C4,660.0,4.0,127,160.0
5211,G4,660.0,4.0,127,160.0
5212,E5,660.0,4.0,127,160.0
5213,D5,660.0,4.0,127,160.0
5214,G5,660.0,4.0,127,160.0
5215,B5,660.0,4.0,127,160.0
5216,G3,660.0,4.0,127,160.0
5217,A5,664.0,4.0,127,160.0
5218,E5,664.0,4.0,127,160.0
5219,C6,664.0,4.0,127,160.0
5220,A3,664.0,4.0,127,160.0
5221,C5,668.0,4.0,127,160.0
5222,C4,668.0,4.0,127,160.0
5223,G4,668.0,4.0,127,160.0
5224,E5,668.0,4.0,127,160.0
5225,G3,672.0,4.0,127,160.0
5226,D5,672.0,4.0,127,160.0
5227,B4,672.0,4.0,127,160.0
5228,G4,672.0,4.0,127,160.0
5229,A5,672.0,4.0,127,160.0
5230,E5,672.0,4.0,127,160.0
5231,C6,672.0,4.0,127,160.0
5232,A3,672.0,4.0,127,160.0
5233,E5,676.0,4.0,127,160.0
5234,G5,676.0,4.0,127,160.0
5235,C6,676.0,4.0,127,160.0
5236,C4,676.0,4.0,127,160.0
5237,E5,684.0,4.0,127,160.0
5238,G5,684.0,4.0,127,160.0
5239,C6,684.0,4.0,127,160.0
5240,C4,684.0,4.0,127,160.0
5241,G3,688.0,4.0,127,160.0
5242,D5,688.0,4.0,127,160.0
5243,B4,688.0,4.0,127,160.0
5244,G4,688.0,4.0,127,160.0
5245,D5,688.0,4.0,127,160.0
5246,G5,688.0,4.0,127,160.0
5247,B5,688.0,4.0,127,160.0
5248,G3,688.0,4.0,127,160.0
5249,G3,700.0,4.0,127,160.0
5250,D5,700.0,4.0,127,160.0
5251,B4,700.0,4.0,127,160.0
5252,G4,700.0,4.0,127,160.0
5253,D5,704.0,4.0,127,160.0
5254,G5,704.0,4.0,127,160.0
5255,B5,704.0,4.0,127,160.0
5256,G3,704.0,4.0,127,160.0
5257,G3,708.0,4.0,127,160.0
5258,D5,708.0,4.0,127,160.0
5259,B4,708.0,4.0,127,160.0
5260,G4,708.0,4.0,127,160.0
5261,A3,712.0,4.0,127,160.0
5262,E4,712.0,4.0,127,160.0
5263,C5,712.0,4.0,127,160.0
5264,A4,712.0,4.0,127,160.0
5265,D5,716.0,4.0,127,160.0
5266,G5,716.0,4.0,127,160.0
5267,B5,716.0,4.0,127,160.0
5268,G3,716.0,4.0,127,160.0
5269,A3,720.0,4.0,127,160.0
5270,E4,720.0,4.0,127,160.0
5271,C5,720.0,4.0,127,160.0
5272,A4,720.0,4.0,127,160.0
5273,C5,724.0,4.0,127,160.0
5274,C4,724.0,4.0,127,160.0
5275,G4,724.0,4.0,127,160.0
5276,E5,724.0,4.0,127,160.0
5277,D5,724.0,4.0,127,160.0
5278,G5,724.0,4.0,127,160.0
5279,B5,724.0,4.0,127,160.0
5280,G3,724.0,4.0,127,160.0
5281,A5,728.0,4.0,127,160.0
5282,E5,728.0,4.0,127,160.0
5283,C6,728.0,4.0,127,160.0
5284,A3,728.0,4.0,127,160.0
5285,C5,732.0,4.0,127,160.0
5286,C4,732.0,4.0,127,160.0
5287,G4,732.0,4.0,127,160.0
5288,E5,732.0,4.0,127,160.0
5289,G3,736.0,4.0,127,160.0
5290,D5,736.0,4.0,127,160.0
5291,B4,736.0,4.0,127,160.0
5292,G4,736.0,4.0,127,160.0
5293,A5,736.0,4.0,127,160.0
5294,E5,736.0,4.0,127,160.0
5295,C6,736.0,4.0,127,160.0
5296,A3,736.0,4.0,127,160.0
5297,E5,740.0,4.0,127,160.0
5298,G5,740.0,4.0,127,160.0
5299,C6,740.0,4.0,127,160.0
5300,C4,740.0,4.0,127,160.0
5301,E5,748.0,4.0,127,160.0
5302,G5,748.0,4.0,127,160.0
5303,C6,748.0,4.0,127,160.0
5304,C4,748.0,4.0,127,160.0
5305,G3,752.0,4.0,127,160.0
5306,D5,752.0,4.0,127,160.0
5307,B4,752.0,4.0,127,160.0
5308,G4,752.0,4.0,127,160.0
5309,D5,752.0,4.0,127,160.0
5310,G5,752.0,4.0,127,160.0
5311,B5,752.0,4.0,127,160.0
5312,G3,752.0,4.0,127,160.0
5313,G3,764.0,4.0,127,160.0
5314,D5,764.0,4.0,127,160.0
5315,B4,764.0,4.0,127,160.0
5316,G4,764.0,4.0,127,160.0
5317,D5,768.0,4.0,127,160.0
5318,G5,768.0,4.0,127,160.0
5319,B5,768.0,4.0,127,160.0
5320,G3,768.0,4.0,127,160.0
5321,G3,772.0,4.0,127,160.0
5322,D5,772.0,4.0,127,160.0
5323,B4,772.0,4.0,127,160.0
5324,G4,772.0,4.0,127,160.0
5325,D5,780.0,4.0,127,160.0
5326,G5,780.0,4.0,127,160.0
5327,B5,780.0,4.0,127,160.0
5328,G3,780.0,4.0,127,160.0
5329,D5,788.0,4.0,127,160.0
5330,G5,788.0,4.0,127,160.0
5331,B5,788.0,4.0,127,160.0
5332,G3,788.0,4.0,127,160.0
5333,A5,792.0,4.0,127,160.0
5334,E5,792.0,4.0,127,160.0
5335,C6,792.0,4.0,127,160.0
5336,A3,792.0,4.0,127,160.0
5337,A5,800.0,4.0,127,160.0
5338,E5,800.0,4.0,127,160.0
5339,C6,800.0,4.0,127,160.0
5340,A3,800.0,4.0,127,160.0
5341,E5,804.0,4.0,127,160.0
5342,G5,804.0,4.0,127,160.0
5343,C6,804.0,4.0,127,160.0
5344,C4,804.0,4.0,127,160.0
5345,E5,812.0,4.0,127,160.0
5346,G5,812.0,4.0,127,160.0
5347,C6,812.0,4.0,127,160.0
5348,C4,812.0,4.0,127,160.0
5349,D5,816.0,4.0,127,160.0
5350,G5,816.0,4.0,127,160.0
5351,B5,816.0,4.0,127,160.0
5352,G3,816.0,4.0,127,160.0
5353,D5,832.0,4.0,127,160.0
5354,G5,832.0,4.0,127,160.0
5355,B5,832.0,4.0,127,160.0
5356,G3,832.0,4.0,127,160.0
5357,D5,844.0,4.0,127,160.0
5358,G5,844.0,4.0,127,160.0
5359,B5,844.0,4.0,127,160.0
5360,G3,844.0,4.0,127,160.0
5361,D5,852.0,4.0,127,160.0
5362,G5,852.0,4.0,127,160.0
5363,B5,852.0,4.0,127,160.0
5364,G3,852.0,4.0,127,160.0
5365,A5,856.0,4.0,127,160.0
5366,E5,856.0,4.0,127,160.0
5367,C6,856.0,4.0,127,160.0
5368,A3,856.0,4.0,127,160.0
5369,A5,864.0,4.0,127,160.0
5370,E5,864.0,4.0,127,160.0
5371,C6,864.0,4.0,127,160.0
5372,A3,864.0,4.0,127,160.0
5373,E5,868.0,4.0,127,160.0
5374,G5,868.0,4.0,127,160.0
5375,C6,868.0,4.0,127,160.0
5376,C4,868.0,4.0,127,160.0
5377,E5,876.0,4.0,127,160.0
5378,G5,876.0,4.0,127,160.0
5379,C6,876.0,4.0,127,160.0
5380,C4,876.0,4.0,127,160.0
5381,D5,880.0,4.0,127,160.0
5382,G5,880.0,4.0,127,160.0
5383,B5,880.0,4.0,127,160.0
5384,G3,880.0,4.0,127,160.0
5385,D5,896.0,4.0,127,160.0
5386,G5,896.0,4.0,127,160.0
5387,B5,896.0,4.0,127,160.0
5388,G3,896.0,4.0,127,160.0
5389,D5,908.0,4.0,127,160.0
5390,G5,908.0,4.0,127,160.0
5391,B5,908.0,4.0,127,160.0
5392,G3,908.0,4.0,127,160.0
5393,D5,916.0,4.0,127,160.0
5394,G5,916.0,4.0,127,160.0
5395,B5,916.0,4.0,127,160.0
5396,G3,916.0,4.0,127,160.0
