,note_name,start_time,duration,velocity,tempo
0,D3,2.0,0.25,96,165.0
1,E-3,2.25,0.25,96,165.0
2,F3,2.5,0.25,96,165.0
3,G3,2.75,0.25,96,165.0
4,G#3,3.0,0.25,96,165.0
5,B-3,3.25,0.25,96,165.0
6,C4,3.5,0.25,96,165.0
7,D4,3.75,0.25,96,165.0
8,G3,4.0,0.5,96,165.0
9,B-3,4.0,0.5,96,165.0
10,E-4,4.0,0.5,96,165.0
11,E-3,4.0,0.5,80,165.0
12,E-2,4.0,0.5,80,165.0
13,B-2,4.0,0.5,80,165.0
14,B-3,4.5,0.5,96,165.0
15,G3,4.5,0.5,96,165.0
16,E-4,4.5,0.5,96,165.0
17,E-3,4.5,0.5,80,165.0
18,E-2,4.5,0.5,80,165.0
19,B-2,4.5,0.5,80,165.0
20,B-3,5.0,1.0,96,165.0
21,E-4,6.0,1.0,96,165.0
22,E-2,6.5,0.5,80,165.0
23,F4,7.0,1.0,96,165.0
24,E-3,7.0,1.0,80,165.0
25,G4,8.0,1.0,96,165.0
26,D4,8.0,1.0,96,165.0
27,B3,8.0,1.0,96,165.0
28,G3,8.0,0.5,80,165.0
29,D3,8.0,0.5,80,165.0
30,G2,8.0,0.5,80,165.0
31,G2,8.5,0.5,80,165.0
32,G3,8.5,0.5,80,165.0
33,D3,8.5,0.5,80,165.0
34,F4,9.0,1.0,96,165.0
35,E-4,10.0,1.0,96,165.0
36,G2,10.5,0.5,80,165.0
37,F4,11.0,1.0,96,165.0
38,G3,11.0,1.0,80,165.0
39,C4,12.0,0.5,96,165.0
40,G#3,12.0,0.5,96,165.0
41,G#3,12.0,0.5,80,165.0
42,E-3,12.0,0.5,80,165.0
43,G#2,12.0,0.5,80,165.0
44,C4,12.5,0.5,96,165.0
45,G4,12.5,0.5,96,165.0
46,G#2,12.5,0.5,80,165.0
47,E-3,12.5,0.5,80,165.0
48,G#3,12.5,0.5,80,165.0
49,G#4,13.0,0.5,96,165.0
50,G4,13.5,0.5,96,165.0
51,G#4,14.0,0.5,96,165.0
52,G4,14.5,0.5,96,165.0
53,G#2,14.5,0.5,80,165.0
54,G#4,15.0,0.5,96,165.0
55,G#3,15.0,1.0,80,165.0
56,G4,15.5,0.5,96,165.0
57,G#4,16.0,0.5,96,165.0
58,D4,16.0,0.5,96,165.0
59,B-3,16.0,0.5,96,165.0
60,B-2,16.0,0.5,80,165.0
61,B-3,16.0,0.5,80,165.0
62,F3,16.0,0.5,80,165.0
63,B-4,16.5,1.0,96,165.0
64,F3,16.5,0.5,80,165.0
65,B-3,16.5,0.5,80,165.0
66,B-2,16.5,0.5,80,165.0
67,F4,17.5,1.0,96,165.0
68,B-3,18.0,0.75,80,165.0
69,B-2,18.0,0.75,80,165.0
70,F3,18.0,0.75,80,165.0
71,E-4,18.5,0.5,96,165.0
72,F2,18.75,0.75,80,165.0
73,F3,18.75,0.75,80,165.0
74,F4,19.0,0.5,96,165.0
75,E-4,19.5,0.5,96,165.0
76,B-2,19.5,0.5,80,165.0
77,B-1,19.5,0.5,80,165.0
78,G3,20.0,0.5,96,165.0
79,B-3,20.0,0.5,96,165.0
80,E-3,20.0,0.5,80,165.0
81,E-2,20.0,0.5,80,165.0
82,G3,20.5,0.5,96,165.0
83,B-3,20.5,0.5,96,165.0
84,E-3,20.5,0.5,80,165.0
85,E-2,20.5,0.5,80,165.0
86,B-3,21.0,1.0,96,165.0
87,E-4,22.0,1.0,96,165.0
88,E-2,22.5,0.5,80,165.0
89,F4,23.0,1.0,96,165.0
90,E-3,23.0,1.0,80,165.0
91,G4,24.0,1.0,96,165.0
92,B3,24.0,1.0,96,165.0
93,D4,24.0,1.0,96,165.0
94,G3,24.0,0.5,80,165.0
95,D3,24.0,0.5,80,165.0
96,G2,24.0,0.5,80,165.0
97,D3,24.5,0.5,80,165.0
98,G3,24.5,0.5,80,165.0
99,G2,24.5,0.5,80,165.0
100,F4,25.0,1.0,96,165.0
101,E-4,26.0,1.0,96,165.0
102,G2,26.5,0.5,80,165.0
103,F4,27.0,1.0,96,165.0
104,G3,27.0,1.0,80,165.0
105,G#3,28.0,0.5,96,165.0
106,C4,28.0,0.5,96,165.0
107,G#3,28.0,0.5,80,165.0
108,E-3,28.0,0.5,80,165.0
109,G#2,28.0,0.5,80,165.0
110,G4,28.5,0.5,96,165.0
111,C4,28.5,0.5,96,165.0
112,G#2,28.5,0.5,80,165.0
113,E-3,28.5,0.5,80,165.0
114,G#3,28.5,0.5,80,165.0
115,G#4,29.0,0.5,96,165.0
116,G4,29.5,0.5,96,165.0
117,G#4,30.0,0.5,96,165.0
118,G4,30.5,0.5,96,165.0
119,G#2,30.5,0.5,80,165.0
120,G#4,31.0,0.5,96,165.0
121,G#3,31.0,1.0,80,165.0
122,G4,31.5,0.5,96,165.0
123,G#4,32.0,0.5,96,165.0
124,D4,32.0,0.5,96,165.0
125,B-3,32.0,0.5,96,165.0
126,B-2,32.0,0.5,80,165.0
127,B-3,32.0,0.5,80,165.0
128,F3,32.0,0.5,80,165.0
129,B-4,32.5,1.0,96,165.0
130,F3,32.5,0.5,80,165.0
131,B-3,32.5,0.5,80,165.0
132,B-2,32.5,0.5,80,165.0
133,F4,33.5,1.0,96,165.0
134,B-3,34.0,0.75,80,165.0
135,F3,34.0,0.75,80,165.0
136,B-2,34.0,0.75,80,165.0
137,E-4,34.5,0.5,96,165.0
138,F2,34.75,0.75,80,165.0
139,F3,34.75,0.75,80,165.0
140,F4,35.0,0.5,96,165.0
141,E-4,35.5,0.5,96,165.0
142,B-1,35.5,0.5,80,165.0
143,B-2,35.5,0.5,80,165.0
144,E-2,36.0,0.5,80,165.0
145,E-3,36.5,0.5,80,165.0
146,B-2,36.5,0.5,80,165.0
147,E-2,37.0,0.5,80,165.0
148,E-4,37.0,1.0,96,165.0
149,B-4,37.0,1.0,96,165.0
150,G4,37.0,1.0,96,165.0
151,B-2,37.5,0.5,80,165.0
152,E-3,37.5,0.5,80,165.0
153,G4,38.0,0.5,96,165.0
154,E-2,38.0,0.5,80,165.0
155,G#4,38.5,0.5,96,165.0
156,E-3,38.5,0.5,80,165.0
157,B-2,38.5,0.5,80,165.0
158,B-4,39.0,0.5,96,165.0
159,E-2,39.0,0.5,80,165.0
160,D5,39.5,0.5,96,165.0
161,B4,39.5,0.5,96,165.0
162,G4,39.5,0.5,96,165.0
163,E-3,39.5,0.5,80,165.0
164,B-2,39.5,0.5,80,165.0
165,G2,40.0,0.5,80,165.0
166,G4,40.5,1.0,96,165.0
167,D5,40.5,1.0,96,165.0
168,B4,40.5,1.0,96,165.0
169,D3,40.5,0.5,80,165.0
170,G3,40.5,0.5,80,165.0
171,G2,41.0,0.5,80,165.0
172,C5,41.5,1.0,96,165.0
173,G3,41.5,0.5,80,165.0
174,D3,41.5,0.5,80,165.0
175,G2,42.0,0.5,80,165.0
176,G4,42.5,1.5,96,165.0
177,B4,42.5,1.5,96,165.0
178,D5,42.5,1.5,96,165.0
179,G3,42.5,0.5,80,165.0
180,D3,42.5,0.5,80,165.0
181,G2,43.0,0.5,80,165.0
182,G3,43.5,0.5,80,165.0
183,D3,43.5,0.5,80,165.0
184,G#2,44.0,0.5,80,165.0
185,E-3,44.5,0.5,80,165.0
186,G#3,44.5,0.5,80,165.0
187,G#2,45.0,0.5,80,165.0
188,E-5,45.0,1.0,96,165.0
189,C5,45.0,1.0,96,165.0
190,G#4,45.0,1.0,96,165.0
191,E-3,45.5,0.5,80,165.0
192,G#3,45.5,0.5,80,165.0
193,C5,46.0,0.5,96,165.0
194,G#2,46.0,0.5,80,165.0
195,D5,46.5,0.5,96,165.0
196,G#3,46.5,0.5,80,165.0
197,E-3,46.5,0.5,80,165.0
198,E-5,47.0,0.5,96,165.0
199,G#2,47.0,0.5,80,165.0
200,B4,47.5,0.5,96,165.0
201,E-5,47.5,0.5,96,165.0
202,F#5,47.5,0.5,96,165.0
203,E-3,47.5,0.5,80,165.0
204,G#3,47.5,0.5,80,165.0
205,G#2,48.0,0.5,80,165.0
206,E-5,48.5,1.0,96,165.0
207,B4,48.5,1.0,96,165.0
208,F#5,48.5,1.0,96,165.0
209,E-3,48.5,0.5,80,165.0
210,G#3,48.5,0.5,80,165.0
211,G#2,49.0,0.5,80,165.0
212,F5,49.5,1.0,96,165.0
213,B4,49.5,1.0,96,165.0
214,G#3,49.5,0.5,80,165.0
215,E-3,49.5,0.5,80,165.0
216,B2,50.0,0.5,80,165.0
217,E-5,50.5,1.0,96,165.0
218,G#3,50.5,0.5,80,165.0
219,B3,50.5,0.5,80,165.0
220,B2,51.0,0.5,80,165.0
221,G#4,51.5,0.5,96,165.0
222,B4,51.5,0.5,96,165.0
223,G#3,51.5,0.5,80,165.0
224,B3,51.5,0.5,80,165.0
225,E-2,52.0,0.5,80,165.0
226,B-4,52.0,1.0,96,165.0
227,G4,52.0,1.0,96,165.0
228,E-3,52.5,0.5,80,165.0
229,B-2,52.5,0.5,80,165.0
230,E-2,53.0,0.5,80,165.0
231,G4,53.0,1.0,96,165.0
232,B-4,53.0,1.0,96,165.0
233,E-4,53.0,1.0,96,165.0
234,B-2,53.5,0.5,80,165.0
235,E-3,53.5,0.5,80,165.0
236,G4,54.0,0.5,96,165.0
237,E-2,54.0,0.5,80,165.0
238,G#4,54.5,0.5,96,165.0
239,E-3,54.5,0.5,80,165.0
240,B-2,54.5,0.5,80,165.0
241,B-4,55.0,0.5,96,165.0
242,E-2,55.0,0.5,80,165.0
243,D5,55.5,0.5,96,165.0
244,B4,55.5,0.5,96,165.0
245,G4,55.5,0.5,96,165.0
246,E-3,55.5,0.5,80,165.0
247,B-2,55.5,0.5,80,165.0
248,G2,56.0,0.5,80,165.0
249,G4,56.5,1.0,96,165.0
250,D5,56.5,1.0,96,165.0
251,B4,56.5,1.0,96,165.0
252,D3,56.5,0.5,80,165.0
253,G3,56.5,0.5,80,165.0
254,G2,57.0,0.5,80,165.0
255,C5,57.5,1.0,96,165.0
256,D3,57.5,0.5,80,165.0
257,G3,57.5,0.5,80,165.0
258,G2,58.0,0.5,80,165.0
259,G4,58.5,1.5,96,165.0
260,B4,58.5,1.5,96,165.0
261,D5,58.5,1.5,96,165.0
262,G3,58.5,0.5,80,165.0
263,D3,58.5,0.5,80,165.0
264,G2,59.0,0.5,80,165.0
265,D3,59.5,0.5,80,165.0
266,G3,59.5,0.5,80,165.0
267,G#2,60.0,0.5,80,165.0
268,G#3,60.5,0.5,80,165.0
269,E-3,60.5,0.5,80,165.0
270,G#2,61.0,0.5,80,165.0
271,E-5,61.0,1.0,96,165.0
272,C5,61.0,1.0,96,165.0
273,G#4,61.0,1.0,96,165.0
274,E-3,61.5,0.5,80,165.0
275,G#3,61.5,0.5,80,165.0
276,C5,62.0,0.5,96,165.0
277,G#2,62.0,0.5,80,165.0
278,D5,62.5,0.5,96,165.0
279,E-3,62.5,0.5,80,165.0
280,G#3,62.5,0.5,80,165.0
281,E-5,63.0,0.5,96,165.0
282,G#2,63.0,0.5,80,165.0
283,B4,63.5,0.5,96,165.0
284,F#5,63.5,0.5,96,165.0
285,E-5,63.5,0.5,96,165.0
286,G#3,63.5,0.5,80,165.0
287,E-3,63.5,0.5,80,165.0
288,G#2,64.0,0.5,80,165.0
289,F#5,64.5,1.0,96,165.0
290,B4,64.5,1.0,96,165.0
291,E-5,64.5,1.0,96,165.0
292,E-3,64.5,0.5,80,165.0
293,G#3,64.5,0.5,80,165.0
294,G#2,65.0,0.5,80,165.0
295,F5,65.5,1.0,96,165.0
296,E-3,65.5,0.5,80,165.0
297,G#3,65.5,0.5,80,165.0
298,B2,66.0,0.5,80,165.0
299,E-5,66.5,1.0,96,165.0
300,B3,66.5,0.5,80,165.0
301,G#3,66.5,0.5,80,165.0
302,B2,67.0,0.5,80,165.0
303,B4,67.5,0.5,96,165.0
304,G#4,67.5,0.5,96,165.0
305,G#3,67.5,0.5,80,165.0
306,B3,67.5,0.5,80,165.0
307,E-2,68.0,0.5,80,165.0
308,B-4,68.0,1.0,96,165.0
309,G4,68.0,1.0,96,165.0
310,E-3,68.5,0.5,80,165.0
311,B-3,69.0,1.0,96,165.0
312,B-1,69.0,0.5,80,165.0
313,E-3,69.5,0.5,80,165.0
314,E-4,70.0,1.0,96,165.0
315,E-2,70.0,0.5,80,165.0
316,E-3,70.5,0.5,80,165.0
317,F4,71.0,1.0,96,165.0
318,B-1,71.0,0.5,80,165.0
319,E-3,71.5,0.5,80,165.0
320,G2,72.0,0.5,80,165.0
321,D4,72.0,1.0,96,165.0
322,G4,72.0,1.0,96,165.0
323,G3,72.5,0.5,80,165.0
324,F4,73.0,1.0,96,165.0
325,D2,73.0,0.5,80,165.0
326,G3,73.5,0.5,80,165.0
327,E-4,74.0,1.0,96,165.0
328,G2,74.0,0.5,80,165.0
329,G3,74.5,0.5,80,165.0
330,D2,75.0,0.5,80,165.0
331,D4,75.0,1.0,96,165.0
332,F4,75.0,1.0,96,165.0
333,G3,75.5,0.5,80,165.0
334,G#2,76.0,0.5,80,165.0
335,G4,76.5,0.5,96,165.0
336,G#3,76.5,0.5,80,165.0
337,G#4,77.0,0.5,96,165.0
338,E-2,77.0,0.5,80,165.0
339,G4,77.5,0.5,96,165.0
340,G#3,77.5,0.5,80,165.0
341,G#4,78.0,0.5,96,165.0
342,G#2,78.0,0.5,80,165.0
343,G4,78.5,0.5,96,165.0
344,G#3,78.5,0.5,80,165.0
345,G#4,79.0,0.5,96,165.0
346,E-2,79.0,0.5,80,165.0
347,G4,79.5,0.5,96,165.0
348,G#3,79.5,0.5,80,165.0
349,G#4,80.0,0.5,96,165.0
350,B-2,80.0,0.5,80,165.0
351,B-3,80.5,0.5,80,165.0
352,B-4,80.5,1.0,96,165.0
353,F4,80.5,1.0,96,165.0
354,F2,81.0,0.5,80,165.0
355,B-3,81.5,0.5,80,165.0
356,F4,81.5,1.0,96,165.0
357,D4,81.5,1.0,96,165.0
358,B-2,82.0,0.5,80,165.0
359,E-4,82.5,0.5,96,165.0
360,B-3,82.5,0.5,80,165.0
361,F2,83.0,0.5,80,165.0
362,F4,83.0,0.5,96,165.0
363,D4,83.0,0.5,96,165.0
364,E-4,83.5,0.5,96,165.0
365,B-3,83.5,0.5,80,165.0
366,E-2,84.0,0.5,80,165.0
367,E-3,84.5,0.5,80,165.0
368,B-3,85.0,1.0,96,165.0
369,B-1,85.0,0.5,80,165.0
370,E-3,85.5,0.5,80,165.0
371,E-4,86.0,1.0,96,165.0
372,E-2,86.0,0.5,80,165.0
373,E-3,86.5,0.5,80,165.0
374,F4,87.0,1.0,96,165.0
375,B-1,87.0,0.5,80,165.0
376,E-3,87.5,0.5,80,165.0
377,G2,88.0,0.5,80,165.0
378,D4,88.0,1.0,96,165.0
379,G4,88.0,1.0,96,165.0
380,G3,88.5,0.5,80,165.0
381,F4,89.0,1.0,96,165.0
382,D2,89.0,0.5,80,165.0
383,G3,89.5,0.5,80,165.0
384,E-4,90.0,1.0,96,165.0
385,G2,90.0,0.5,80,165.0
386,G3,90.5,0.5,80,165.0
387,D2,91.0,0.5,80,165.0
388,F4,91.0,1.0,96,165.0
389,D4,91.0,1.0,96,165.0
390,G3,91.5,0.5,80,165.0
391,G#2,92.0,0.5,80,165.0
392,G4,92.5,0.5,96,165.0
393,G#3,92.5,0.5,80,165.0
394,G#4,93.0,0.5,96,165.0
395,E-2,93.0,0.5,80,165.0
396,G4,93.5,0.5,96,165.0
397,G#3,93.5,0.5,80,165.0
398,G#4,94.0,0.5,96,165.0
399,G#2,94.0,0.5,80,165.0
400,G4,94.5,0.5,96,165.0
401,G#3,94.5,0.5,80,165.0
402,G#4,95.0,0.5,96,165.0
403,E-2,95.0,0.5,80,165.0
404,G4,95.5,0.5,96,165.0
405,G#3,95.5,0.5,80,165.0
406,G#4,96.0,0.5,96,165.0
407,B-2,96.0,0.5,80,165.0
408,B-3,96.5,0.5,80,165.0
409,B-4,96.5,1.0,96,165.0
410,F4,96.5,1.0,96,165.0
411,F2,97.0,0.5,80,165.0
412,B-3,97.5,0.5,80,165.0
413,F4,97.5,1.0,96,165.0
414,D4,97.5,1.0,96,165.0
415,B-2,98.0,0.5,80,165.0
416,E-4,98.5,0.5,96,165.0
417,B-3,98.5,0.5,80,165.0
418,F2,99.0,0.5,80,165.0
419,F4,99.0,0.5,96,165.0
420,D4,99.0,0.5,96,165.0
421,E-4,99.5,0.5,96,165.0
422,B-3,99.5,0.5,80,165.0
423,C2,100.0,0.5,80,165.0
424,C3,100.0,0.5,80,165.0
425,C3,100.5,0.5,80,165.0
426,C2,100.5,0.5,80,165.0
427,E-5,101.0,1.0,96,165.0
428,B-5,101.0,1.0,96,165.0
429,G5,101.0,1.0,96,165.0
430,C3,101.5,0.5,80,165.0
431,G5,102.0,1.0,96,165.0
432,E-5,102.0,1.0,96,165.0
433,C4,102.0,1.0,80,165.0
434,G3,102.0,1.0,80,165.0
435,C3,103.0,1.0,80,165.0
436,E-5,103.0,1.0,96,165.0
437,B-5,103.0,1.0,96,165.0
438,G5,103.0,1.0,96,165.0
439,G5,104.0,1.5,96,165.0
440,D5,104.0,1.5,96,165.0
441,B1,104.0,0.5,80,165.0
442,B2,104.0,0.5,80,165.0
443,B2,104.5,0.5,80,165.0
444,B1,104.5,0.5,80,165.0
445,B-5,105.5,1.5,96,165.0
446,B2,105.5,0.5,80,165.0
447,G3,106.0,1.0,80,165.0
448,D3,106.0,1.0,80,165.0
449,B-5,107.0,0.5,96,165.0
450,B2,107.0,1.0,80,165.0
451,F5,107.5,0.5,96,165.0
452,C6,107.5,0.5,96,165.0
453,B-1,108.0,0.5,80,165.0
454,B-2,108.0,0.5,80,165.0
455,B-2,108.5,0.5,80,165.0
456,B-1,108.5,0.5,80,165.0
457,F5,109.0,1.0,96,165.0
458,C6,109.0,1.0,96,165.0
459,B-2,109.5,0.5,80,165.0
460,B-5,110.0,1.0,96,165.0
461,B-3,110.0,1.0,80,165.0
462,F3,110.0,1.0,80,165.0
463,B-2,111.0,1.0,80,165.0
464,G5,111.0,1.0,96,165.0
465,E-5,111.0,1.0,96,165.0
466,F5,112.0,1.0,96,165.0
467,D5,112.0,1.0,96,165.0
468,A2,112.0,1.0,80,165.0
469,A1,112.0,1.0,80,165.0
470,A2,113.0,0.5,80,165.0
471,C5,113.0,1.5,96,165.0
472,E-5,113.0,1.5,96,165.0
473,E-3,113.5,1.0,80,165.0
474,A3,113.5,1.0,80,165.0
475,C5,114.5,2.5,96,165.0
476,A2,114.5,0.5,80,165.0
477,E-2,115.0,0.5,80,165.0
478,A1,115.5,0.5,80,165.0
479,F2,116.0,0.5,80,165.0
480,G#3,116.5,0.5,80,165.0
481,C4,116.5,0.5,80,165.0
482,F2,117.0,0.5,80,165.0
483,G#3,117.5,0.5,80,165.0
484,C4,117.5,0.5,80,165.0
485,E-5,118.0,0.5,96,165.0
486,F2,118.0,0.5,80,165.0
487,C5,118.5,0.5,96,165.0
488,G#3,118.5,0.5,80,165.0
489,C4,118.5,0.5,80,165.0
490,E-5,119.0,1.0,96,165.0
491,F2,119.0,0.5,80,165.0
492,G#3,119.5,0.5,80,165.0
493,C4,119.5,0.5,80,165.0
494,E-5,120.0,0.5,96,165.0
495,F2,120.0,0.5,80,165.0
496,C5,120.5,0.5,96,165.0
497,G#3,120.5,0.5,80,165.0
498,C4,120.5,0.5,80,165.0
499,E-5,121.0,1.0,96,165.0
500,F2,121.0,0.5,80,165.0
501,G#3,121.5,0.5,80,165.0
502,C4,121.5,0.5,80,165.0
503,E-5,122.0,0.5,96,165.0
504,F2,122.0,0.5,80,165.0
505,C5,122.5,0.5,96,165.0
506,G#3,122.5,0.5,80,165.0
507,C4,122.5,0.5,80,165.0
508,E-5,123.0,0.5,96,165.0
509,F2,123.0,0.5,80,165.0
510,F5,123.5,1.0,96,165.0
511,G#3,123.5,0.5,80,165.0
512,C4,123.5,0.5,80,165.0
513,G2,124.0,0.5,80,165.0
514,G5,124.5,0.5,96,165.0
515,E-5,124.5,0.5,96,165.0
516,C5,124.5,0.5,96,165.0
517,B-3,124.5,0.5,80,165.0
518,E-3,124.5,0.5,80,165.0
519,G2,125.0,0.5,80,165.0
520,E-3,125.5,0.5,80,165.0
521,B-3,125.5,0.5,80,165.0
522,E-5,126.0,0.5,96,165.0
523,G2,126.0,0.5,80,165.0
524,C5,126.5,0.5,96,165.0
525,B-3,126.5,0.5,80,165.0
526,E-3,126.5,0.5,80,165.0
527,E-5,127.0,1.0,96,165.0
528,G2,127.0,0.5,80,165.0
529,E-3,127.5,0.5,80,165.0
530,B-3,127.5,0.5,80,165.0
531,E-5,128.0,0.5,96,165.0
532,G2,128.0,0.5,80,165.0
533,E-3,128.498,0.5,80,165.0
534,B-3,128.498,0.5,80,165.0
535,C5,128.5,0.5,96,165.0
536,E-5,129.0,1.0,96,165.0
537,G2,129.0,0.5,80,165.0
538,E-3,129.498,0.5,80,165.0
539,B-3,129.498,0.5,80,165.0
540,E-5,130.0,0.5,96,165.0
541,G2,130.0,0.5,80,165.0
542,E-3,130.498,0.5,80,165.0
543,B-3,130.498,0.5,80,165.0
544,C5,130.5,0.5,96,165.0
545,E-5,131.0,0.5,96,165.0
546,G2,131.0,0.5,80,165.0
547,F5,131.5,1.0,96,165.0
548,B-3,131.5,0.5,80,165.0
549,E-3,131.5,0.5,80,165.0
550,G#2,132.0,0.5,80,165.0
551,G5,132.5,0.5,96,165.0
552,E-5,132.5,0.5,96,165.0
553,B-4,132.5,0.5,96,165.0
554,G#3,132.5,0.5,80,165.0
555,C4,132.5,0.5,80,165.0
556,G#2,133.0,0.5,80,165.0
557,C4,133.5,0.5,80,165.0
558,G#3,133.5,0.5,80,165.0
559,G#2,134.0,0.5,80,165.0
560,E-5,134.0,0.5,96,165.0
561,G#4,134.0,0.5,96,165.0
562,C5,134.5,0.5,96,165.0
563,C4,134.5,0.5,80,165.0
564,G#3,134.5,0.5,80,165.0
565,G#2,135.0,0.5,80,165.0
566,E-5,135.0,1.0,96,165.0
567,G#4,135.0,1.0,96,165.0
568,G#3,135.5,0.5,80,165.0
569,C4,135.5,0.5,80,165.0
570,A2,136.0,0.5,80,165.0
571,G#4,136.0,0.5,96,165.0
572,E-5,136.0,0.5,96,165.0
573,C5,136.5,0.5,96,165.0
574,A3,136.5,0.5,80,165.0
575,C4,136.5,0.5,80,165.0
576,A2,137.0,0.5,80,165.0
577,E-5,137.0,1.0,96,165.0
578,C5,137.0,1.0,96,165.0
579,C4,137.5,0.5,80,165.0
580,A3,137.5,0.5,80,165.0
581,A2,138.0,0.5,80,165.0
582,E-5,138.0,0.5,96,165.0
583,A4,138.0,0.5,96,165.0
584,C5,138.5,0.5,96,165.0
585,C4,138.5,0.5,80,165.0
586,A3,138.5,0.5,80,165.0
587,A2,139.0,0.5,80,165.0
588,E-5,139.0,0.5,96,165.0
589,A4,139.0,0.5,96,165.0
590,F5,139.5,1.0,96,165.0
591,C5,139.5,1.0,96,165.0
592,A3,139.5,0.5,80,165.0
593,C4,139.5,0.5,80,165.0
594,B-2,140.0,0.5,80,165.0
595,G5,140.5,0.5,96,165.0
596,E-5,140.5,0.5,96,165.0
597,B-3,140.5,0.5,80,165.0
598,D4,140.5,0.5,80,165.0
599,B-2,141.0,0.5,80,165.0
600,B-3,141.5,0.5,80,165.0
601,D4,141.5,0.5,80,165.0
602,B-2,142.0,0.5,80,165.0
603,G5,142.5,1.5,96,165.0
604,E-5,142.5,1.5,96,165.0
605,D4,142.5,0.5,80,165.0
606,B-3,142.5,0.5,80,165.0
607,B-2,143.0,0.5,80,165.0
608,D4,143.5,0.5,80,165.0
609,B-3,143.5,0.5,80,165.0
610,B-2,144.0,0.5,80,165.0
611,F5,144.0,0.5,96,165.0
612,D5,144.0,0.5,96,165.0
613,F5,144.5,1.0,96,165.0
614,D5,144.5,1.0,96,165.0
615,B-3,144.5,0.5,80,165.0
616,D4,144.5,0.5,80,165.0
617,B-2,145.0,0.5,80,165.0
618,B-3,145.5,0.5,80,165.0
619,D4,145.5,0.5,80,165.0
620,C5,146.0,0.5,96,165.0
621,B-2,146.0,0.5,80,165.0
622,G#5,146.5,1.0,96,165.0
623,B-3,146.5,0.5,80,165.0
624,D4,146.5,0.5,80,165.0
625,B-2,147.0,0.5,80,165.0
626,G5,147.5,1.0,96,165.0
627,D4,147.5,0.5,80,165.0
628,B-3,147.5,0.5,80,165.0
629,F3,148.0,0.5,80,165.0
630,F2,148.0,0.5,80,165.0
631,E-5,148.5,1.0,96,165.0
632,F2,148.5,0.5,80,165.0
633,F3,148.5,0.5,80,165.0
634,F5,149.5,1.0,96,165.0
635,D5,149.5,1.0,96,165.0
636,B-4,149.5,1.0,96,165.0
637,F3,149.5,2.5,80,165.0
638,F2,149.5,2.5,80,165.0
639,F4,150.5,0.5,96,165.0
640,B-4,150.5,0.5,96,165.0
641,B-4,151.0,0.5,96,165.0
642,F4,151.0,0.5,96,165.0
643,B-1,152.0,0.5,80,165.0
644,A4,152.0,1.0,96,165.0
645,F4,152.0,1.0,96,165.0
646,B-2,152.5,0.5,80,165.0
647,D3,152.5,0.5,80,165.0
648,D2,153.0,0.5,80,165.0
649,A7,153.124,31/500,96,165.0
650,G7,153.124,31/500,96,165.0
651,F7,153.25,31/500,96,165.0
652,E7,153.25,31/500,96,165.0
653,D7,153.374,31/500,96,165.0
654,C7,153.438,31/500,96,165.0
655,B6,153.438,31/500,96,165.0
656,D3,153.5,0.5,80,165.0
657,B-2,153.5,0.5,80,165.0
658,A6,153.562,31/500,96,165.0
659,G6,153.562,31/500,96,165.0
660,F6,153.688,31/500,96,165.0
661,E6,153.688,31/500,96,165.0
662,D6,153.812,31/500,96,165.0
663,C6,153.812,31/500,96,165.0
664,B5,153.938,31/500,96,165.0
665,A5,153.938,31/500,96,165.0
666,F2,154.0,0.5,80,165.0
667,G5,154.062,31/500,96,165.0
668,F5,154.062,31/500,96,165.0
669,E5,154.186,31/500,96,165.0
670,D5,154.25,31/500,96,165.0
671,C5,154.25,31/500,96,165.0
672,B4,154.374,31/500,96,165.0
673,A4,154.438,31/500,96,165.0
674,D3,154.5,0.5,80,165.0
675,B-2,154.5,0.5,80,165.0
676,B-1,155.0,0.5,80,165.0
677,F6,155.0,0.5,96,165.0
678,F5,155.0,0.5,96,165.0
679,F6,155.5,0.5,96,165.0
680,F5,155.5,0.5,96,165.0
681,B-2,155.5,0.5,80,165.0
682,D3,155.5,0.5,80,165.0
683,A1,156.0,0.5,80,165.0
684,F6,156.5,0.5,96,165.0
685,F5,156.5,0.5,96,165.0
686,A2,156.5,0.5,80,165.0
687,C3,156.5,0.5,80,165.0
688,F2,157.0,0.5,80,165.0
689,E-6,157.0,0.5,96,165.0
690,E-5,157.0,0.5,96,165.0
691,D6,157.5,0.5,96,165.0
692,D5,157.5,0.5,96,165.0
693,C3,157.5,0.5,80,165.0
694,A2,157.5,0.5,80,165.0
695,D2,158.0,0.5,80,165.0
696,E-6,158.0,0.5,96,165.0
697,E-5,158.0,0.5,96,165.0
698,F6,158.5,0.5,96,165.0
699,F5,158.5,0.5,96,165.0
700,F#3,158.5,0.5,80,165.0
701,A3,158.5,0.5,80,165.0
702,F#2,159.0,0.5,80,165.0
703,F6,159.0,1.0,96,165.0
704,F5,159.0,1.0,96,165.0
705,A3,159.5,0.5,80,165.0
706,F#3,159.5,0.5,80,165.0
707,G2,160.0,0.5,80,165.0
708,F6,160.0,0.5,96,165.0
709,F5,160.0,0.5,96,165.0
710,D4,160.5,0.5,80,165.0
711,B-3,160.5,0.5,80,165.0
712,B-2,161.0,0.5,80,165.0
713,B-6,161.0,0.5,96,165.0
714,B-5,161.0,0.5,96,165.0
715,A6,161.5,0.5,96,165.0
716,A5,161.5,0.5,96,165.0
717,D4,161.5,0.5,80,165.0
718,B-3,161.5,0.5,80,165.0
719,D3,162.0,0.5,80,165.0
720,B-6,162.0,0.5,96,165.0
721,B-5,162.0,0.5,96,165.0
722,D4,162.5,0.5,80,165.0
723,B-3,162.5,0.5,80,165.0
724,G3,163.0,0.5,80,165.0
725,F6,163.0,0.5,96,165.0
726,F5,163.0,0.5,96,165.0
727,F6,163.5,0.5,96,165.0
728,F5,163.5,0.5,96,165.0
729,B-3,163.5,0.5,80,165.0
730,D4,163.5,0.5,80,165.0
731,F2,164.0,0.5,80,165.0
732,F6,164.0,0.5,96,165.0
733,F5,164.0,0.5,96,165.0
734,F6,164.5,0.5,96,165.0
735,F5,164.5,0.5,96,165.0
736,G#3,164.5,0.5,80,165.0
737,C4,164.5,0.5,80,165.0
738,G#2,165.0,0.5,80,165.0
739,E-6,165.0,0.5,96,165.0
740,E-5,165.0,0.5,96,165.0
741,D6,165.5,0.5,96,165.0
742,D5,165.5,0.5,96,165.0
743,C4,165.5,0.5,80,165.0
744,G#3,165.5,0.5,80,165.0
745,B-2,166.0,0.5,80,165.0
746,E-6,166.0,0.5,96,165.0
747,E-5,166.0,0.5,96,165.0
748,F6,166.5,0.5,96,165.0
749,F5,166.5,0.5,96,165.0
750,D4,166.5,0.5,80,165.0
751,B-3,166.5,0.5,80,165.0
752,F3,167.0,0.5,80,165.0
753,F6,167.0,1.0,96,165.0
754,F5,167.0,1.0,96,165.0
755,B-3,167.5,0.5,80,165.0
756,D4,167.5,0.5,80,165.0
757,E-2,168.0,0.5,80,165.0
758,F6,168.0,0.5,96,165.0
759,F5,168.0,0.5,96,165.0
760,G3,168.5,0.5,80,165.0
761,E-3,168.5,0.5,80,165.0
762,B-2,169.0,0.5,80,165.0
763,D7,169.0,0.5,96,165.0
764,D6,169.0,0.5,96,165.0
765,C7,169.5,0.5,96,165.0
766,C6,169.5,0.5,96,165.0
767,E-3,169.5,0.5,80,165.0
768,G3,169.5,0.5,80,165.0
769,E-2,170.0,0.5,80,165.0
770,B-6,170.0,0.5,96,165.0
771,B-5,170.0,0.5,96,165.0
772,E-3,170.5,0.5,80,165.0
773,G3,170.5,0.5,80,165.0
774,B-2,171.0,0.5,80,165.0
775,E-6,171.0,0.5,96,165.0
776,G6,171.0,0.5,96,165.0
777,G5,171.0,0.5,96,165.0
778,G6,171.5,0.5,96,165.0
779,E-6,171.5,0.5,96,165.0
780,G5,171.5,0.5,96,165.0
781,G3,171.5,0.5,80,165.0
782,E-3,171.5,0.5,80,165.0
783,D2,172.0,0.5,80,165.0
784,G6,172.0,0.5,96,165.0
785,E-6,172.0,0.5,96,165.0
786,G5,172.0,0.5,96,165.0
787,G6,172.5,0.5,96,165.0
788,E-6,172.5,0.5,96,165.0
789,G5,172.5,0.5,96,165.0
790,D3,172.5,0.5,80,165.0
791,F3,172.5,0.5,80,165.0
792,A2,173.0,0.5,80,165.0
793,E-6,173.0,0.5,96,165.0
794,G6,173.0,0.5,96,165.0
795,G5,173.0,0.5,96,165.0
796,A6,173.5,0.5,96,165.0
797,A5,173.5,0.5,96,165.0
798,F3,173.5,0.5,80,165.0
799,D3,173.5,0.5,80,165.0
800,D2,174.0,0.5,80,165.0
801,B-6,174.0,0.5,96,165.0
802,G6,174.0,0.5,96,165.0
803,E-6,174.0,0.5,96,165.0
804,B-5,174.0,0.5,96,165.0
805,D3,174.5,0.5,80,165.0
806,F3,174.5,0.5,80,165.0
807,A2,175.0,0.5,80,165.0
808,F6,175.0,0.5,96,165.0
809,D6,175.0,0.5,96,165.0
810,F5,175.0,0.5,96,165.0
811,D6,175.5,0.5,96,165.0
812,F6,175.5,0.5,96,165.0
813,F5,175.5,0.5,96,165.0
814,D3,175.5,0.5,80,165.0
815,F3,175.5,0.5,80,165.0
816,C2,176.0,0.5,80,165.0
817,D6,176.0,0.5,96,165.0
818,F6,176.0,0.5,96,165.0
819,F5,176.0,0.5,96,165.0
820,D6,176.5,1.0,96,165.0
821,D5,176.5,1.0,96,165.0
822,E-3,176.5,0.5,80,165.0
823,G3,176.5,0.5,80,165.0
824,E-2,177.0,0.5,80,165.0
825,D6,177.5,1.0,96,165.0
826,F6,177.5,1.0,96,165.0
827,F5,177.5,1.0,96,165.0
828,G3,177.5,0.5,80,165.0
829,E-3,177.5,0.5,80,165.0
830,G2,178.0,0.5,80,165.0
831,E-6,178.5,1.0,96,165.0
832,E-5,178.5,1.0,96,165.0
833,G3,178.5,0.5,80,165.0
834,E-3,178.5,0.5,80,165.0
835,C3,179.0,0.5,80,165.0
836,D6,179.5,1.0,96,165.0
837,D5,179.5,1.0,96,165.0
838,E-3,179.5,0.5,80,165.0
839,G3,179.5,0.5,80,165.0
840,F1,180.0,1.0,80,165.0
841,F2,180.0,1.0,80,165.0
842,E-6,180.5,1.0,96,165.0
843,E-5,180.5,1.0,96,165.0
844,G2,181.0,0.5,80,165.0
845,G1,181.0,0.5,80,165.0
846,F6,181.5,1.0,96,165.0
847,F5,181.5,1.0,96,165.0
848,A1,181.5,0.5,80,165.0
849,A2,181.5,0.5,80,165.0
850,B-2,182.0,0.5,80,165.0
851,B-1,182.0,0.5,80,165.0
852,D6,182.5,0.5,96,165.0
853,D5,182.5,0.5,96,165.0
854,C2,182.5,0.5,80,165.0
855,C3,182.5,0.5,80,165.0
856,C6,183.0,0.5,96,165.0
857,C5,183.0,0.5,96,165.0
858,D2,183.0,0.5,80,165.0
859,D3,183.0,0.5,80,165.0
860,D6,183.5,0.5,96,165.0
861,D5,183.5,0.5,96,165.0
862,E-3,183.5,0.5,80,165.0
863,E-2,183.5,0.5,80,165.0
864,B-1,184.0,0.5,80,165.0
865,F5,184.0,1.0,96,165.0
866,C6,184.0,1.0,96,165.0
867,C5,184.0,1.0,96,165.0
868,B-2,184.5,0.5,80,165.0
869,D3,184.5,0.5,80,165.0
870,D2,185.0,0.5,80,165.0
871,C6,185.0,0.5,96,165.0
872,C5,185.0,0.5,96,165.0
873,D6,185.5,0.5,96,165.0
874,D5,185.5,0.5,96,165.0
875,D3,185.5,0.5,80,165.0
876,B-2,185.5,0.5,80,165.0
877,F2,186.0,0.5,80,165.0
878,E-6,186.0,0.5,96,165.0
879,E-5,186.0,0.5,96,165.0
880,F6,186.5,0.5,96,165.0
881,F5,186.5,0.5,96,165.0
882,D3,186.5,0.5,80,165.0
883,B-2,186.5,0.5,80,165.0
884,B-1,187.0,0.5,80,165.0
885,F6,187.0,0.5,96,165.0
886,F5,187.0,0.5,96,165.0
887,F6,187.5,0.5,96,165.0
888,F5,187.5,0.5,96,165.0
889,B-2,187.5,0.5,80,165.0
890,D3,187.5,0.5,80,165.0
891,A1,188.0,0.5,80,165.0
892,F6,188.0,0.5,96,165.0
893,F5,188.0,0.5,96,165.0
894,F6,188.5,0.5,96,165.0
895,F5,188.5,0.5,96,165.0
896,C3,188.5,0.5,80,165.0
897,A2,188.5,0.5,80,165.0
898,F2,189.0,0.5,80,165.0
899,E-6,189.0,0.5,96,165.0
900,E-5,189.0,0.5,96,165.0
901,D6,189.5,0.5,96,165.0
902,D5,189.5,0.5,96,165.0
903,A2,189.5,0.5,80,165.0
904,C3,189.5,0.5,80,165.0
905,D2,190.0,0.5,80,165.0
906,E-6,190.0,0.5,96,165.0
907,E-5,190.0,0.5,96,165.0
908,F6,190.5,0.5,96,165.0
909,F5,190.5,0.5,96,165.0
910,A3,190.5,0.5,80,165.0
911,F#3,190.5,0.5,80,165.0
912,F#2,191.0,0.5,80,165.0
913,F6,191.0,0.5,96,165.0
914,F5,191.0,0.5,96,165.0
915,F6,191.5,0.5,96,165.0
916,F5,191.5,0.5,96,165.0
917,F#3,191.5,0.5,80,165.0
918,A3,191.5,0.5,80,165.0
919,G2,192.0,0.5,80,165.0
920,F6,192.0,0.5,96,165.0
921,F5,192.0,0.5,96,165.0
922,B-3,192.5,0.5,80,165.0
923,D4,192.5,0.5,80,165.0
924,B-2,193.0,0.5,80,165.0
925,B-6,193.0,0.5,96,165.0
926,B-5,193.0,0.5,96,165.0
927,A6,193.5,0.5,96,165.0
928,A5,193.5,0.5,96,165.0
929,D4,193.5,0.5,80,165.0
930,B-3,193.5,0.5,80,165.0
931,D3,194.0,0.5,80,165.0
932,B-6,194.0,0.5,96,165.0
933,B-5,194.0,0.5,96,165.0
934,D4,194.5,0.5,80,165.0
935,B-3,194.5,0.5,80,165.0
936,G3,195.0,0.5,80,165.0
937,F6,195.0,0.5,96,165.0
938,F5,195.0,0.5,96,165.0
939,F6,195.5,0.5,96,165.0
940,F5,195.5,0.5,96,165.0
941,B-3,195.5,0.5,80,165.0
942,D4,195.5,0.5,80,165.0
943,F2,196.0,0.5,80,165.0
944,F6,196.0,0.5,96,165.0
945,F5,196.0,0.5,96,165.0
946,F6,196.5,0.5,96,165.0
947,F5,196.5,0.5,96,165.0
948,C4,196.5,0.5,80,165.0
949,G#3,196.5,0.5,80,165.0
950,G#2,197.0,0.5,80,165.0
951,E-6,197.0,0.5,96,165.0
952,E-5,197.0,0.5,96,165.0
953,D6,197.5,0.5,96,165.0
954,D5,197.5,0.5,96,165.0
955,G#3,197.5,0.5,80,165.0
956,C4,197.5,0.5,80,165.0
957,B-2,198.0,0.5,80,165.0
958,E-6,198.0,0.5,96,165.0
959,E-5,198.0,0.5,96,165.0
960,C6,198.5,0.5,96,165.0
961,F6,198.5,0.5,96,165.0
962,F5,198.5,0.5,96,165.0
963,B-3,198.5,0.5,80,165.0
964,D4,198.5,0.5,80,165.0
965,F3,199.0,0.5,80,165.0
966,F6,199.0,0.5,96,165.0
967,F5,199.0,0.5,96,165.0
968,F6,199.5,0.5,96,165.0
969,F5,199.5,0.5,96,165.0
970,D4,199.5,0.5,80,165.0
971,B-3,199.5,0.5,80,165.0
972,E-2,200.0,0.5,80,165.0
973,F6,200.0,0.5,96,165.0
974,F5,200.0,0.5,96,165.0
975,E-3,200.5,0.5,80,165.0
976,G3,200.5,0.5,80,165.0
977,B-2,201.0,0.5,80,165.0
978,D7,201.0,0.5,96,165.0
979,D6,201.0,0.5,96,165.0
980,C7,201.5,0.5,96,165.0
981,C6,201.5,0.5,96,165.0
982,G3,201.5,0.5,80,165.0
983,E-3,201.5,0.5,80,165.0
984,E-2,202.0,0.5,80,165.0
985,B-6,202.0,0.5,96,165.0
986,B-5,202.0,0.5,96,165.0
987,E-3,202.5,0.5,80,165.0
988,G3,202.5,0.5,80,165.0
989,B-2,203.0,0.5,80,165.0
990,E-6,203.0,0.5,96,165.0
991,G6,203.0,0.5,96,165.0
992,G5,203.0,0.5,96,165.0
993,E-6,203.5,0.5,96,165.0
994,G6,203.5,0.5,96,165.0
995,G5,203.5,0.5,96,165.0
996,E-3,203.5,0.5,80,165.0
997,G3,203.5,0.5,80,165.0
998,D2,204.0,0.5,80,165.0
999,G6,204.0,0.5,96,165.0
1000,E-6,204.0,0.5,96,165.0
1001,G5,204.0,0.5,96,165.0
1002,G6,204.5,0.5,96,165.0
1003,E-6,204.5,0.5,96,165.0
1004,G5,204.5,0.5,96,165.0
1005,D3,204.5,0.5,80,165.0
1006,F3,204.5,0.5,80,165.0
1007,A2,205.0,0.5,80,165.0
1008,G6,205.0,0.5,96,165.0
1009,E-6,205.0,0.5,96,165.0
1010,G5,205.0,0.5,96,165.0
1011,A6,205.5,0.5,96,165.0
1012,A5,205.5,0.5,96,165.0
1013,D3,205.5,0.5,80,165.0
1014,F3,205.5,0.5,80,165.0
1015,D2,206.0,0.5,80,165.0
1016,B-6,206.0,0.5,96,165.0
1017,G6,206.0,0.5,96,165.0
1018,E-6,206.0,0.5,96,165.0
1019,B-5,206.0,0.5,96,165.0
1020,F3,206.5,0.5,80,165.0
1021,D3,206.5,0.5,80,165.0
1022,A2,207.0,0.5,80,165.0
1023,D6,207.0,0.5,96,165.0
1024,F6,207.0,0.5,96,165.0
1025,F5,207.0,0.5,96,165.0
1026,F6,207.5,0.5,96,165.0
1027,D6,207.5,0.5,96,165.0
1028,F5,207.5,0.5,96,165.0
1029,F3,207.5,0.5,80,165.0
1030,D3,207.5,0.5,80,165.0
1031,C2,208.0,0.5,80,165.0
1032,D6,208.0,0.5,96,165.0
1033,F6,208.0,0.5,96,165.0
1034,F5,208.0,0.5,96,165.0
1035,D6,208.5,1.0,96,165.0
1036,D5,208.5,1.0,96,165.0
1037,E-3,208.5,0.5,80,165.0
1038,G3,208.5,0.5,80,165.0
1039,E-2,209.0,0.5,80,165.0
1040,D6,209.5,1.0,96,165.0
1041,F6,209.5,1.0,96,165.0
1042,F5,209.5,1.0,96,165.0
1043,G3,209.5,0.5,80,165.0
1044,E-3,209.5,0.5,80,165.0
1045,G2,210.0,0.5,80,165.0
1046,E-6,210.5,2.0,96,165.0
1047,C6,210.5,2.0,96,165.0
1048,E-5,210.5,2.0,96,165.0
1049,G3,210.5,0.5,80,165.0
1050,E-3,210.5,0.5,80,165.0
1051,C3,211.0,0.5,80,165.0
1052,G3,211.5,0.5,80,165.0
1053,E-3,211.5,0.5,80,165.0
1054,F2,212.0,0.5,80,165.0
1055,F6,212.5,1.5,96,165.0
1056,C6,212.5,1.5,96,165.0
1057,F5,212.5,1.5,96,165.0
1058,F3,212.5,0.5,80,165.0
1059,A3,212.5,0.5,80,165.0
1060,C3,213.0,0.5,80,165.0
1061,A3,213.5,0.5,80,165.0
1062,F3,213.5,0.5,80,165.0
1063,F2,214.0,0.5,80,165.0
1064,F6,214.0,0.5,96,165.0
1065,F5,214.0,0.5,96,165.0
1066,F6,214.5,1.0,96,165.0
1067,B-6,214.5,1.0,96,165.0
1068,B-5,214.5,1.0,96,165.0
1069,A3,214.5,0.5,80,165.0
1070,F3,214.5,0.5,80,165.0
1071,C3,215.0,0.5,80,165.0
1072,F6,215.5,1.0,96,165.0
1073,A6,215.5,1.0,96,165.0
1074,A5,215.5,1.0,96,165.0
1075,A3,215.5,0.5,80,165.0
1076,F3,215.5,0.5,80,165.0
1077,E-2,216.0,0.5,80,165.0
1078,G6,216.5,1.0,96,165.0
1079,G5,216.5,1.0,96,165.0
1080,G3,216.5,0.5,80,165.0
1081,E-3,216.5,0.5,80,165.0
1082,B-2,217.0,0.5,80,165.0
1083,A6,217.5,0.5,96,165.0
1084,F6,217.5,0.5,96,165.0
1085,A5,217.5,0.5,96,165.0
1086,E-3,217.5,0.5,80,165.0
1087,G3,217.5,0.5,80,165.0
1088,E-2,218.0,0.5,80,165.0
1089,F6,218.0,0.5,96,165.0
1090,A6,218.0,0.5,96,165.0
1091,A5,218.0,0.5,96,165.0
1092,A6,218.5,1.5,96,165.0
1093,E-6,218.5,1.5,96,165.0
1094,A5,218.5,1.5,96,165.0
1095,E-3,218.5,0.5,80,165.0
1096,G3,218.5,0.5,80,165.0
1097,B-2,219.0,0.5,80,165.0
1098,E-3,219.5,0.5,80,165.0
1099,G3,219.5,0.5,80,165.0
1100,F2,220.0,0.5,80,165.0
1101,E-6,220.0,0.5,96,165.0
1102,B-6,220.0,0.5,96,165.0
1103,B-5,220.0,0.5,96,165.0
1104,E-6,220.5,1.5,96,165.0
1105,B-6,220.5,1.5,96,165.0
1106,B-5,220.5,1.5,96,165.0
1107,A3,220.5,0.5,80,165.0
1108,F3,220.5,0.5,80,165.0
1109,C3,221.0,0.5,80,165.0
1110,F3,221.5,0.5,80,165.0
1111,A3,221.5,0.5,80,165.0
1112,F2,222.0,0.5,80,165.0
1113,F6,222.0,0.5,96,165.0
1114,F5,222.0,0.5,96,165.0
1115,B-6,222.5,1.0,96,165.0
1116,F6,222.5,1.0,96,165.0
1117,B-5,222.5,1.0,96,165.0
1118,F3,222.5,0.5,80,165.0
1119,A3,222.5,0.5,80,165.0
1120,C3,223.0,0.5,80,165.0
1121,F6,223.5,1.0,96,165.0
1122,A6,223.5,1.0,96,165.0
1123,A5,223.5,1.0,96,165.0
1124,F3,223.5,0.5,80,165.0
1125,A3,223.5,0.5,80,165.0
1126,D2,224.0,0.5,80,165.0
1127,G6,224.5,1.0,96,165.0
1128,G5,224.5,1.0,96,165.0
1129,F3,224.5,0.5,80,165.0
1130,D3,224.5,0.5,80,165.0
1131,A2,225.0,0.5,80,165.0
1132,A6,225.5,0.5,96,165.0
1133,F6,225.5,0.5,96,165.0
1134,A5,225.5,0.5,96,165.0
1135,D3,225.5,0.5,80,165.0
1136,F3,225.5,0.5,80,165.0
1137,D2,226.0,0.5,80,165.0
1138,A6,226.0,0.5,96,165.0
1139,F6,226.0,0.5,96,165.0
1140,A5,226.0,0.5,96,165.0
1141,F6,226.5,1.5,96,165.0
1142,A6,226.5,1.5,96,165.0
1143,A5,226.5,1.5,96,165.0
1144,D3,226.5,0.5,80,165.0
1145,F3,226.5,0.5,80,165.0
1146,A2,227.0,0.5,80,165.0
1147,D3,227.5,0.5,80,165.0
1148,F3,227.5,0.5,80,165.0
1149,G2,228.0,0.5,80,165.0
1150,F6,228.0,0.5,96,165.0
1151,B-6,228.0,0.5,96,165.0
1152,B-5,228.0,0.5,96,165.0
1153,F6,228.5,1.0,96,165.0
1154,B-6,228.5,1.0,96,165.0
1155,B-5,228.5,1.0,96,165.0
1156,D4,228.5,0.5,80,165.0
1157,B-3,228.5,0.5,80,165.0
1158,B-2,229.0,0.5,80,165.0
1159,C7,229.5,0.5,96,165.0
1160,C6,229.5,0.5,96,165.0
1161,B-3,229.5,0.5,80,165.0
1162,D4,229.5,0.5,80,165.0
1163,D3,230.0,0.5,80,165.0
1164,A6,230.0,0.5,96,165.0
1165,A5,230.0,0.5,96,165.0
1166,B-6,230.5,3.0,96,165.0
1167,G6,230.5,3.0,96,165.0
1168,D6,230.5,3.0,96,165.0
1169,B-5,230.5,3.0,96,165.0
1170,B-3,230.5,0.5,80,165.0
1171,D4,230.5,0.5,80,165.0
1172,G3,231.0,0.5,80,165.0
1173,B-3,231.5,0.5,80,165.0
1174,D4,231.5,0.5,80,165.0
1175,C2,232.0,0.5,80,165.0
1176,E-3,232.5,0.5,80,165.0
1177,G3,232.5,0.5,80,165.0
1178,E-2,233.0,0.5,80,165.0
1179,E-3,233.5,0.5,80,165.0
1180,G3,233.5,0.5,80,165.0
1181,G2,234.0,0.5,80,165.0
1182,E-6,234.5,1.5,96,165.0
1183,A6,234.5,1.5,96,165.0
1184,A5,234.5,1.5,96,165.0
1185,E-3,234.5,0.5,80,165.0
1186,G3,234.5,0.5,80,165.0
1187,C3,235.0,0.5,80,165.0
1188,E-3,235.5,0.5,80,165.0
1189,G3,235.5,0.5,80,165.0
1190,F2,236.0,0.5,80,165.0
1191,E-6,236.0,0.5,96,165.0
1192,B-6,236.0,0.5,96,165.0
1193,B-5,236.0,0.5,96,165.0
1194,B-6,236.5,1.5,96,165.0
1195,E-6,236.5,1.5,96,165.0
1196,B-5,236.5,1.5,96,165.0
1197,F3,236.5,0.5,80,165.0
1198,A3,236.5,0.5,80,165.0
1199,C3,237.0,0.5,80,165.0
1200,A3,237.5,0.5,80,165.0
1201,F3,237.5,0.5,80,165.0
1202,F2,238.0,0.5,80,165.0
1203,F6,238.0,0.5,96,165.0
1204,F5,238.0,0.5,96,165.0
1205,B-6,238.5,1.0,96,165.0
1206,F6,238.5,1.0,96,165.0
1207,B-5,238.5,1.0,96,165.0
1208,A3,238.5,0.5,80,165.0
1209,F3,238.5,0.5,80,165.0
1210,C3,239.0,0.5,80,165.0
1211,F6,239.5,1.0,96,165.0
1212,A6,239.5,1.0,96,165.0
1213,A5,239.5,1.0,96,165.0
1214,A3,239.5,0.5,80,165.0
1215,F3,239.5,0.5,80,165.0
1216,B-2,240.0,0.5,80,165.0
1217,G6,240.5,1.0,96,165.0
1218,G5,240.5,1.0,96,165.0
1219,D4,240.5,0.5,80,165.0
1220,B-3,240.5,0.5,80,165.0
1221,F3,241.0,0.5,80,165.0
1222,A6,241.5,1.0,96,165.0
1223,F6,241.5,1.0,96,165.0
1224,A5,241.5,1.0,96,165.0
1225,B-3,241.5,0.5,80,165.0
1226,D4,241.5,0.5,80,165.0
1227,B-2,242.0,0.5,80,165.0
1228,A6,242.5,1.5,96,165.0
1229,F6,242.5,1.5,96,165.0
1230,A5,242.5,1.5,96,165.0
1231,B-3,242.5,0.5,80,165.0
1232,D4,242.5,0.5,80,165.0
1233,F3,243.0,0.5,80,165.0
1234,B-1,243.5,0.5,80,165.0
1235,B-2,243.5,0.5,80,165.0
1236,F6,244.0,0.5,96,165.0
1237,B-6,244.0,0.5,96,165.0
1238,B-5,244.0,0.5,96,165.0
1239,F6,244.5,1.75,96,165.0
1240,B-6,244.5,1.75,96,165.0
1241,B-5,244.5,1.75,96,165.0
1242,B-1,244.5,0.5,80,165.0
1243,B-2,244.5,0.5,80,165.0
1244,B-1,245.0,0.5,80,165.0
1245,B-2,245.0,0.5,80,165.0
1246,C2,245.5,0.5,80,165.0
1247,C3,245.5,0.5,80,165.0
1248,D2,246.0,0.5,80,165.0
1249,D3,246.0,0.5,80,165.0
1250,E-2,246.5,0.5,80,165.0
1251,E-3,246.5,0.5,80,165.0
1252,F2,247.0,0.5,80,165.0
1253,F3,247.0,0.5,80,165.0
1254,G2,247.5,0.5,80,165.0
1255,G3,247.5,0.5,80,165.0
1256,A3,248.0,0.5,80,165.0
1257,A2,248.0,0.5,80,165.0
1258,E-2,248.5,0.5,80,165.0
1259,E-3,249.0,0.5,80,165.0
1260,B-2,249.0,0.5,80,165.0
1261,E-2,249.5,0.5,80,165.0
1262,B-2,250.0,0.5,80,165.0
1263,E-3,250.0,0.5,80,165.0
1264,E-2,250.5,0.5,80,165.0
1265,E-3,251.0,0.5,80,165.0
1266,B-2,251.0,0.5,80,165.0
1267,E-2,251.5,0.5,80,165.0
1268,G4,251.5,1.0,96,165.0
1269,E-4,251.5,1.0,96,165.0
1270,B-4,251.5,1.0,96,165.0
1271,E-3,252.0,0.5,80,165.0
1272,B-2,252.0,0.5,80,165.0
1273,G4,252.5,0.5,96,165.0
1274,G2,252.5,0.5,80,165.0
1275,G#4,253.0,0.5,96,165.0
1276,G3,253.0,0.5,80,165.0
1277,D3,253.0,0.5,80,165.0
1278,B-4,253.5,0.5,96,165.0
1279,G2,253.5,0.5,80,165.0
1280,G4,254.0,0.5,96,165.0
1281,B4,254.0,0.5,96,165.0
1282,D5,254.0,0.5,96,165.0
1283,G3,254.0,0.5,80,165.0
1284,D3,254.0,0.5,80,165.0
1285,G2,254.5,0.5,80,165.0
1286,G4,255.0,1.0,96,165.0
1287,D5,255.0,1.0,96,165.0
1288,B4,255.0,1.0,96,165.0
1289,D3,255.0,0.5,80,165.0
1290,G3,255.0,0.5,80,165.0
1291,G2,255.5,0.5,80,165.0
1292,C5,256.0,1.0,96,165.0
1293,G3,256.0,0.5,80,165.0
1294,D3,256.0,0.5,80,165.0
1295,G#2,256.5,0.5,80,165.0
1296,G4,257.0,1.5,96,165.0
1297,B4,257.0,1.5,96,165.0
1298,D5,257.0,1.5,96,165.0
1299,E-3,257.0,0.5,80,165.0
1300,G#3,257.0,0.5,80,165.0
1301,G#2,257.5,0.5,80,165.0
1302,E-3,258.0,0.5,80,165.0
1303,G#3,258.0,0.5,80,165.0
1304,G#2,258.5,0.5,80,165.0
1305,G#3,259.0,0.5,80,165.0
1306,E-3,259.0,0.5,80,165.0
1307,G#2,259.5,0.5,80,165.0
1308,G#4,259.5,1.0,96,165.0
1309,C5,259.5,1.0,96,165.0
1310,E-5,259.5,1.0,96,165.0
1311,G#3,260.0,0.5,80,165.0
1312,E-3,260.0,0.5,80,165.0
1313,C5,260.5,0.5,96,165.0
1314,G#2,260.5,0.5,80,165.0
1315,D5,261.0,0.5,96,165.0
1316,G#3,261.0,0.5,80,165.0
1317,E-3,261.0,0.5,80,165.0
1318,E-5,261.5,0.5,96,165.0
1319,G#2,261.5,0.5,80,165.0
1320,F#5,262.0,0.5,96,165.0
1321,B4,262.0,0.5,96,165.0
1322,E-5,262.0,0.5,96,165.0
1323,G#3,262.0,0.5,80,165.0
1324,E-3,262.0,0.5,80,165.0
1325,B2,262.5,0.5,80,165.0
1326,F#5,263.0,1.0,96,165.0
1327,E-5,263.0,1.0,96,165.0
1328,B4,263.0,1.0,96,165.0
1329,B3,263.0,0.5,80,165.0
1330,G#3,263.0,0.5,80,165.0
1331,B2,263.5,0.5,80,165.0
1332,F5,264.0,1.0,96,165.0
1333,B4,264.0,1.0,96,165.0
1334,B3,264.0,0.5,80,165.0
1335,G#3,264.0,0.5,80,165.0
1336,E-2,264.5,0.5,80,165.0
1337,E-5,265.0,1.0,96,165.0
1338,E-3,265.0,0.5,80,165.0
1339,B-2,265.0,0.5,80,165.0
1340,E-2,265.5,0.5,80,165.0
1341,G#4,266.0,0.5,96,165.0
1342,B4,266.0,0.5,96,165.0
1343,B-2,266.0,0.5,80,165.0
1344,E-3,266.0,0.5,80,165.0
1345,E-2,266.5,0.5,80,165.0
1346,B-4,266.5,1.0,96,165.0
1347,G4,266.5,1.0,96,165.0
1348,E-3,267.0,0.5,80,165.0
1349,B-2,267.0,0.5,80,165.0
1350,E-2,267.5,0.5,80,165.0
1351,E-4,267.5,1.0,96,165.0
1352,G4,267.5,1.0,96,165.0
1353,B-4,267.5,1.0,96,165.0
1354,E-3,268.0,0.5,80,165.0
1355,B-2,268.0,0.5,80,165.0
1356,G4,268.5,0.5,96,165.0
1357,G2,268.5,0.5,80,165.0
1358,G#4,269.0,0.5,96,165.0
1359,G3,269.0,0.5,80,165.0
1360,D3,269.0,0.5,80,165.0
1361,B-4,269.5,0.5,96,165.0
1362,G2,269.5,0.5,80,165.0
1363,B4,270.0,0.5,96,165.0
1364,G4,270.0,0.5,96,165.0
1365,D5,270.0,0.5,96,165.0
1366,D3,270.0,0.5,80,165.0
1367,G3,270.0,0.5,80,165.0
1368,G2,270.5,0.5,80,165.0
1369,B4,271.0,1.0,96,165.0
1370,G4,271.0,1.0,96,165.0
1371,D5,271.0,1.0,96,165.0
1372,D3,271.0,0.5,80,165.0
1373,G3,271.0,0.5,80,165.0
1374,G2,271.5,0.5,80,165.0
1375,C5,272.0,1.0,96,165.0
1376,D3,272.0,0.5,80,165.0
1377,G3,272.0,0.5,80,165.0
1378,G#2,272.5,0.5,80,165.0
1379,G4,273.0,1.5,96,165.0
1380,B4,273.0,1.5,96,165.0
1381,D5,273.0,1.5,96,165.0
1382,G#3,273.0,0.5,80,165.0
1383,E-3,273.0,0.5,80,165.0
1384,G#2,273.5,0.5,80,165.0
1385,E-3,274.0,0.5,80,165.0
1386,G#3,274.0,0.5,80,165.0
1387,G#2,274.5,0.5,80,165.0
1388,E-3,275.0,0.5,80,165.0
1389,G#3,275.0,0.5,80,165.0
1390,G#2,275.5,0.5,80,165.0
1391,G#4,275.5,1.0,96,165.0
1392,C5,275.5,1.0,96,165.0
1393,E-5,275.5,1.0,96,165.0
1394,E-3,276.0,0.5,80,165.0
1395,G#3,276.0,0.5,80,165.0
1396,C5,276.5,0.5,96,165.0
1397,G#2,276.5,0.5,80,165.0
1398,D5,277.0,0.5,96,165.0
1399,G#3,277.0,0.5,80,165.0
1400,E-3,277.0,0.5,80,165.0
1401,E-5,277.5,0.5,96,165.0
1402,G#2,277.5,0.5,80,165.0
1403,E-5,278.0,0.5,96,165.0
1404,B4,278.0,0.5,96,165.0
1405,F#5,278.0,0.5,96,165.0
1406,E-3,278.0,0.5,80,165.0
1407,G#3,278.0,0.5,80,165.0
1408,B2,278.5,0.5,80,165.0
1409,E-5,279.0,1.0,96,165.0
1410,F#5,279.0,1.0,96,165.0
1411,B4,279.0,1.0,96,165.0
1412,G#3,279.0,0.5,80,165.0
1413,B3,279.0,0.5,80,165.0
1414,B2,279.5,0.5,80,165.0
1415,F5,280.0,1.0,96,165.0
1416,B3,280.0,0.5,80,165.0
1417,G#3,280.0,0.5,80,165.0
1418,E-2,280.5,0.5,80,165.0
1419,E-5,281.0,1.0,96,165.0
1420,E-3,281.0,0.5,80,165.0
1421,B-1,281.5,0.5,80,165.0
1422,E-3,282.0,0.5,80,165.0
1423,B4,282.0,0.5,96,165.0
1424,G#4,282.0,0.5,96,165.0
1425,E-2,282.5,0.5,80,165.0
1426,B-4,282.5,1.0,96,165.0
1427,G4,282.5,1.0,96,165.0
1428,E-3,283.0,0.5,80,165.0
1429,B-3,283.5,1.0,96,165.0
1430,B-1,283.5,0.5,80,165.0
1431,E-3,284.0,0.5,80,165.0
1432,E-4,284.5,1.0,96,165.0
1433,G2,284.5,0.5,80,165.0
1434,G3,285.0,0.5,80,165.0
1435,F4,285.5,1.0,96,165.0
1436,D2,285.5,0.5,80,165.0
1437,G3,286.0,0.5,80,165.0
1438,G2,286.5,0.5,80,165.0
1439,D4,286.5,1.0,96,165.0
1440,G4,286.5,1.0,96,165.0
1441,G3,287.0,0.5,80,165.0
1442,F4,287.5,1.0,96,165.0
1443,D2,287.5,0.5,80,165.0
1444,G3,288.0,0.5,80,165.0
1445,E-4,288.5,1.0,96,165.0
1446,G#2,288.5,0.5,80,165.0
1447,G#3,289.0,0.5,80,165.0
1448,E-2,289.5,0.5,80,165.0
1449,F4,289.5,1.0,96,165.0
1450,D4,289.5,1.0,96,165.0
1451,G#3,290.0,0.5,80,165.0
1452,G#2,290.5,0.5,80,165.0
1453,G4,291.0,0.5,96,165.0
1454,G#3,291.0,0.5,80,165.0
1455,G#4,291.5,0.5,96,165.0
1456,E-2,291.5,0.5,80,165.0
1457,G4,292.0,0.5,96,165.0
1458,G#3,292.0,0.5,80,165.0
1459,G#4,292.5,0.5,96,165.0
1460,B-2,292.5,0.5,80,165.0
1461,G4,293.0,0.5,96,165.0
1462,B-3,293.0,0.5,80,165.0
1463,G#4,293.5,0.5,96,165.0
1464,F2,293.5,0.5,80,165.0
1465,G4,294.0,0.5,96,165.0
1466,B-3,294.0,0.5,80,165.0
1467,G#4,294.5,0.5,96,165.0
1468,B-2,294.5,0.5,80,165.0
1469,B-3,295.0,0.5,80,165.0
1470,B-4,295.0,1.0,96,165.0
1471,F4,295.0,1.0,96,165.0
1472,F2,295.5,0.5,80,165.0
1473,B-3,296.0,0.5,80,165.0
1474,D4,296.0,1.0,96,165.0
1475,F4,296.0,1.0,96,165.0
1476,E-2,296.5,0.5,80,165.0
1477,E-4,297.0,0.5,96,165.0
1478,E-3,297.0,0.5,80,165.0
1479,B-1,297.5,0.5,80,165.0
1480,F4,297.5,0.5,96,165.0
1481,D4,297.5,0.5,96,165.0
1482,E-4,298.0,0.5,96,165.0
1483,E-3,298.0,0.5,80,165.0
1484,E-2,298.5,0.5,80,165.0
1485,E-3,299.0,0.5,80,165.0
1486,B-3,299.5,1.0,96,165.0
1487,B-1,299.5,0.5,80,165.0
1488,E-3,300.0,0.5,80,165.0
1489,E-4,300.5,1.0,96,165.0
1490,G2,300.5,0.5,80,165.0
1491,G3,301.0,0.5,80,165.0
1492,F4,301.5,1.0,96,165.0
1493,D2,301.5,0.5,80,165.0
1494,G3,302.0,0.5,80,165.0
1495,G2,302.5,0.5,80,165.0
1496,D4,302.5,1.0,96,165.0
1497,G4,302.5,1.0,96,165.0
1498,G3,303.0,0.5,80,165.0
1499,F4,303.5,1.0,96,165.0
1500,D2,303.5,0.5,80,165.0
1501,G3,304.0,0.5,80,165.0
1502,E-4,304.5,1.0,96,165.0
1503,G#2,304.5,0.5,80,165.0
1504,G#3,305.0,0.5,80,165.0
1505,E-2,305.5,0.5,80,165.0
1506,F4,305.5,1.0,96,165.0
1507,D4,305.5,1.0,96,165.0
1508,G#3,306.0,0.5,80,165.0
1509,G#2,306.5,0.5,80,165.0
1510,G4,307.0,0.5,96,165.0
1511,G#3,307.0,0.5,80,165.0
1512,G#4,307.5,0.5,96,165.0
1513,E-2,307.5,0.5,80,165.0
1514,G4,308.0,0.5,96,165.0
1515,G#3,308.0,0.5,80,165.0
1516,G#4,308.5,0.5,96,165.0
1517,B-2,308.5,0.5,80,165.0
1518,G4,309.0,0.5,96,165.0
1519,B-3,309.0,0.5,80,165.0
1520,G#4,309.5,0.5,96,165.0
1521,F2,309.5,0.5,80,165.0
1522,G4,310.0,0.5,96,165.0
1523,B-3,310.0,0.5,80,165.0
1524,G#4,310.5,0.5,96,165.0
1525,B-2,310.5,0.5,80,165.0
1526,B-3,311.0,0.5,80,165.0
1527,B-4,311.0,1.0,96,165.0
1528,F4,311.0,1.0,96,165.0
1529,F2,311.5,0.5,80,165.0
1530,B-3,312.0,0.5,80,165.0
1531,F4,312.0,1.0,96,165.0
1532,D4,312.0,1.0,96,165.0
1533,C3,312.5,0.5,80,165.0
1534,C2,312.5,0.5,80,165.0
1535,E-4,313.0,0.5,96,165.0
1536,C2,313.0,0.5,80,165.0
1537,C3,313.0,0.5,80,165.0
1538,F4,313.5,0.5,96,165.0
1539,D4,313.5,0.5,96,165.0
1540,E-4,314.0,0.5,96,165.0
1541,C3,314.0,0.5,80,165.0
1542,C4,314.5,1.0,80,165.0
1543,G3,314.5,1.0,80,165.0
1544,C3,315.5,1.0,80,165.0
1545,G5,315.5,1.0,96,165.0
1546,E-5,315.5,1.0,96,165.0
1547,B-5,315.5,1.0,96,165.0
1548,G5,316.5,1.0,96,165.0
1549,E-5,316.5,1.0,96,165.0
1550,B2,316.5,0.5,80,165.0
1551,B1,316.5,0.5,80,165.0
1552,B2,317.0,0.5,80,165.0
1553,B1,317.0,0.5,80,165.0
1554,G5,317.5,1.0,96,165.0
1555,E-5,317.5,1.0,96,165.0
1556,B-5,317.5,1.0,96,165.0
1557,B2,318.0,0.5,80,165.0
1558,G5,318.5,1.5,96,165.0
1559,D5,318.5,1.5,96,165.0
1560,D3,318.5,1.0,80,165.0
1561,G3,318.5,1.0,80,165.0
1562,B2,319.5,1.0,80,165.0
1563,B-5,320.0,1.5,96,165.0
1564,B-2,320.5,0.5,80,165.0
1565,B-1,320.5,0.5,80,165.0
1566,B-1,321.0,0.5,80,165.0
1567,B-2,321.0,0.5,80,165.0
1568,B-5,321.5,0.5,96,165.0
1569,B-2,322.0,0.5,80,165.0
1570,F5,322.0,0.5,96,165.0
1571,C6,322.0,0.5,96,165.0
1572,F3,322.5,1.0,80,165.0
1573,B-3,322.5,1.0,80,165.0
1574,B-2,323.5,1.0,80,165.0
1575,F5,323.5,1.0,96,165.0
1576,C6,323.5,1.0,96,165.0
1577,B-5,324.5,1.0,96,165.0
1578,A2,324.5,1.0,80,165.0
1579,A1,324.5,1.0,80,165.0
1580,A2,325.5,0.5,80,165.0
1581,G5,325.5,1.0,96,165.0
1582,E-5,325.5,1.0,96,165.0
1583,A3,326.0,1.0,80,165.0
1584,E-3,326.0,1.0,80,165.0
1585,F5,326.5,1.0,96,165.0
1586,D5,326.5,1.0,96,165.0
1587,A2,327.0,0.5,80,165.0
1588,E-2,327.5,0.5,80,165.0
1589,C5,327.5,1.5,96,165.0
1590,E-5,327.5,1.5,96,165.0
1591,A1,328.0,0.5,80,165.0
1592,F2,328.5,0.5,80,165.0
1593,C5,329.0,2.5,96,165.0
1594,G#3,329.0,0.5,80,165.0
1595,C4,329.0,0.5,80,165.0
1596,F2,329.5,0.5,80,165.0
1597,G#3,330.0,0.5,80,165.0
1598,C4,330.0,0.5,80,165.0
1599,F2,330.5,0.5,80,165.0
1600,G#3,331.0,0.5,80,165.0
1601,C4,331.0,0.5,80,165.0
1602,F2,331.5,0.5,80,165.0
1603,G#3,332.0,0.5,80,165.0
1604,C4,332.0,0.5,80,165.0
1605,E-5,332.5,0.5,96,165.0
1606,F2,332.5,0.5,80,165.0
1607,C5,333.0,0.5,96,165.0
1608,G#3,333.0,0.5,80,165.0
1609,C4,333.0,0.5,80,165.0
1610,E-5,333.5,1.0,96,165.0
1611,F2,333.5,0.5,80,165.0
1612,G#3,334.0,0.5,80,165.0
1613,C4,334.0,0.5,80,165.0
1614,E-5,334.5,0.5,96,165.0
1615,F2,334.5,0.5,80,165.0
1616,C5,335.0,0.5,96,165.0
1617,G#3,335.0,0.5,80,165.0
1618,C4,335.0,0.5,80,165.0
1619,E-5,335.5,1.0,96,165.0
1620,F2,335.5,0.5,80,165.0
1621,G#3,336.0,0.5,80,165.0
1622,C4,336.0,0.5,80,165.0
1623,E-5,336.5,0.5,96,165.0
1624,G2,336.5,0.5,80,165.0
1625,C5,337.0,0.5,96,165.0
1626,B-3,337.0,0.5,80,165.0
1627,E-3,337.0,0.5,80,165.0
1628,E-5,337.5,0.5,96,165.0
1629,G2,337.5,0.5,80,165.0
1630,F5,338.0,1.0,96,165.0
1631,E-3,338.0,0.5,80,165.0
1632,B-3,338.0,0.5,80,165.0
1633,G2,338.5,0.5,80,165.0
1634,C5,339.0,0.5,96,165.0
1635,E-5,339.0,0.5,96,165.0
1636,G5,339.0,0.5,96,165.0
1637,B-3,339.0,0.5,80,165.0
1638,E-3,339.0,0.5,80,165.0
1639,G2,339.5,0.5,80,165.0
1640,E-3,340.0,0.5,80,165.0
1641,B-3,340.0,0.5,80,165.0
1642,E-5,340.5,0.5,96,165.0
1643,G2,340.5,0.5,80,165.0
1644,E-3,340.998,0.5,80,165.0
1645,B-3,340.998,0.5,80,165.0
1646,C5,341.0,0.5,96,165.0
1647,E-5,341.5,1.0,96,165.0
1648,G2,341.5,0.5,80,165.0
1649,E-3,341.998,0.5,80,165.0
1650,B-3,341.998,0.5,80,165.0
1651,E-5,342.5,0.5,96,165.0
1652,G2,342.5,0.5,80,165.0
1653,E-3,342.998,0.5,80,165.0
1654,B-3,342.998,0.5,80,165.0
1655,C5,343.0,0.5,96,165.0
1656,E-5,343.5,1.0,96,165.0
1657,G2,343.5,0.5,80,165.0
1658,B-3,344.0,0.5,80,165.0
1659,E-3,344.0,0.5,80,165.0
1660,E-5,344.5,0.5,96,165.0
1661,G#2,344.5,0.5,80,165.0
1662,C5,345.0,0.5,96,165.0
1663,G#3,345.0,0.5,80,165.0
1664,C4,345.0,0.5,80,165.0
1665,E-5,345.5,0.5,96,165.0
1666,G#2,345.5,0.5,80,165.0
1667,F5,346.0,1.0,96,165.0
1668,C4,346.0,0.5,80,165.0
1669,G#3,346.0,0.5,80,165.0
1670,G#2,346.5,0.5,80,165.0
1671,B-4,347.0,0.5,96,165.0
1672,E-5,347.0,0.5,96,165.0
1673,G5,347.0,0.5,96,165.0
1674,C4,347.0,0.5,80,165.0
1675,G#3,347.0,0.5,80,165.0
1676,G#2,347.5,0.5,80,165.0
1677,G#3,348.0,0.5,80,165.0
1678,C4,348.0,0.5,80,165.0
1679,A2,348.5,0.5,80,165.0
1680,E-5,348.5,0.5,96,165.0
1681,G#4,348.5,0.5,96,165.0
1682,C5,349.0,0.5,96,165.0
1683,A3,349.0,0.5,80,165.0
1684,C4,349.0,0.5,80,165.0
1685,A2,349.5,0.5,80,165.0
1686,E-5,349.5,1.0,96,165.0
1687,G#4,349.5,1.0,96,165.0
1688,C4,350.0,0.5,80,165.0
1689,A3,350.0,0.5,80,165.0
1690,A2,350.5,0.5,80,165.0
1691,G#4,350.5,0.5,96,165.0
1692,E-5,350.5,0.5,96,165.0
1693,C5,351.0,0.5,96,165.0
1694,C4,351.0,0.5,80,165.0
1695,A3,351.0,0.5,80,165.0
1696,A2,351.5,0.5,80,165.0
1697,E-5,351.5,1.0,96,165.0
1698,C5,351.5,1.0,96,165.0
1699,A3,352.0,0.5,80,165.0
1700,C4,352.0,0.5,80,165.0
1701,B-2,352.5,0.5,80,165.0
1702,E-5,352.5,0.5,96,165.0
1703,A4,352.5,0.5,96,165.0
1704,C5,353.0,0.5,96,165.0
1705,B-3,353.0,0.5,80,165.0
1706,D4,353.0,0.5,80,165.0
1707,B-2,353.5,0.5,80,165.0
1708,E-5,353.5,0.5,96,165.0
1709,A4,353.5,0.5,96,165.0
1710,F5,354.0,1.0,96,165.0
1711,C5,354.0,1.0,96,165.0
1712,B-3,354.0,0.5,80,165.0
1713,D4,354.0,0.5,80,165.0
1714,B-2,354.5,0.5,80,165.0
1715,G5,355.0,0.5,96,165.0
1716,E-5,355.0,0.5,96,165.0
1717,D4,355.0,0.5,80,165.0
1718,B-3,355.0,0.5,80,165.0
1719,B-2,355.5,0.5,80,165.0
1720,B-3,356.0,0.5,80,165.0
1721,D4,356.0,0.5,80,165.0
1722,B-2,356.5,0.5,80,165.0
1723,G5,357.0,1.5,96,165.0
1724,E-5,357.0,1.5,96,165.0
1725,B-3,357.0,0.5,80,165.0
1726,D4,357.0,0.5,80,165.0
1727,B-2,357.5,0.5,80,165.0
1728,B-3,358.0,0.5,80,165.0
1729,D4,358.0,0.5,80,165.0
1730,B-2,358.5,0.5,80,165.0
1731,F5,358.5,0.5,96,165.0
1732,D5,358.5,0.5,96,165.0
1733,F5,359.0,1.0,96,165.0
1734,D5,359.0,1.0,96,165.0
1735,B-3,359.0,0.5,80,165.0
1736,D4,359.0,0.5,80,165.0
1737,B-2,359.5,0.5,80,165.0
1738,D4,360.0,0.5,80,165.0
1739,B-3,360.0,0.5,80,165.0
1740,C5,360.5,0.5,96,165.0
1741,F3,360.5,0.5,80,165.0
1742,F2,360.5,0.5,80,165.0
1743,G#5,361.0,1.0,96,165.0
1744,F2,361.0,0.5,80,165.0
1745,F3,361.0,0.5,80,165.0
1746,G5,362.0,1.0,96,165.0
1747,F2,362.0,2.5,80,165.0
1748,F3,362.0,2.5,80,165.0
1749,E-5,363.0,1.0,96,165.0
1750,D5,364.0,1.0,96,165.0
1751,B-4,364.0,1.0,96,165.0
1752,F5,364.0,1.0,96,165.0
1753,B-1,364.5,0.5,80,165.0
1754,F4,365.0,0.5,96,165.0
1755,B-4,365.0,0.5,96,165.0
1756,B-2,365.0,0.5,80,165.0
1757,D3,365.0,0.5,80,165.0
1758,D2,365.5,0.5,80,165.0
1759,B-4,365.5,0.5,96,165.0
1760,F4,365.5,0.5,96,165.0
1761,D3,366.0,0.5,80,165.0
1762,B-2,366.0,0.5,80,165.0
1763,F2,366.5,0.5,80,165.0
1764,F4,366.5,1.0,96,165.0
1765,A4,366.5,1.0,96,165.0
1766,D3,367.0,0.5,80,165.0
1767,B-2,367.0,0.5,80,165.0
1768,B-1,367.5,0.5,80,165.0
1769,A7,367.624,31/500,96,165.0
1770,G7,367.624,31/500,96,165.0
1771,F7,367.75,31/500,96,165.0
1772,E7,367.75,31/500,96,165.0
1773,D7,367.874,31/500,96,165.0
1774,C7,367.874,31/500,96,165.0
1775,B6,368.0,31/500,96,165.0
1776,A6,368.0,31/500,96,165.0
1777,B-2,368.0,0.5,80,165.0
1778,D3,368.0,0.5,80,165.0
1779,G6,368.124,31/500,96,165.0
1780,F6,368.124,31/500,96,165.0
1781,E6,368.25,31/500,96,165.0
1782,D6,368.25,31/500,96,165.0
1783,C6,368.374,31/500,96,165.0
1784,B5,368.374,31/500,96,165.0
1785,A1,368.5,0.5,80,165.0
1786,A5,368.5,31/500,96,165.0
1787,G5,368.5,31/500,96,165.0
1788,F5,368.624,31/500,96,165.0
1789,E5,368.624,31/500,96,165.0
1790,D5,368.75,31/500,96,165.0
1791,C5,368.75,31/500,96,165.0
1792,B4,368.874,31/500,96,165.0
1793,A4,368.874,31/500,96,165.0
1794,C3,369.0,0.5,80,165.0
1795,A2,369.0,0.5,80,165.0
1796,F2,369.5,0.5,80,165.0
1797,F5,369.5,0.5,96,165.0
1798,F6,369.5,0.5,96,165.0
1799,F5,370.0,0.5,96,165.0
1800,F6,370.0,0.5,96,165.0
1801,A2,370.0,0.5,80,165.0
1802,C3,370.0,0.5,80,165.0
1803,D2,370.5,0.5,80,165.0
1804,F5,371.0,0.5,96,165.0
1805,F6,371.0,0.5,96,165.0
1806,A3,371.0,0.5,80,165.0
1807,F#3,371.0,0.5,80,165.0
1808,F#2,371.5,0.5,80,165.0
1809,E-5,371.5,0.5,96,165.0
1810,E-6,371.5,0.5,96,165.0
1811,D5,372.0,0.5,96,165.0
1812,D6,372.0,0.5,96,165.0
1813,F#3,372.0,0.5,80,165.0
1814,A3,372.0,0.5,80,165.0
1815,G2,372.5,0.5,80,165.0
1816,E-5,372.5,0.5,96,165.0
1817,E-6,372.5,0.5,96,165.0
1818,F5,373.0,0.5,96,165.0
1819,F6,373.0,0.5,96,165.0
1820,B-3,373.0,0.5,80,165.0
1821,D4,373.0,0.5,80,165.0
1822,B-2,373.5,0.5,80,165.0
1823,F5,373.5,1.0,96,165.0
1824,F6,373.5,1.0,96,165.0
1825,D4,374.0,0.5,80,165.0
1826,B-3,374.0,0.5,80,165.0
1827,D3,374.5,0.5,80,165.0
1828,F5,374.5,0.5,96,165.0
1829,F6,374.5,0.5,96,165.0
1830,D4,375.0,0.5,80,165.0
1831,B-3,375.0,0.5,80,165.0
1832,G3,375.5,0.5,80,165.0
1833,B-5,375.5,0.5,96,165.0
1834,B-6,375.5,0.5,96,165.0
1835,A5,376.0,0.5,96,165.0
1836,A6,376.0,0.5,96,165.0
1837,B-3,376.0,0.5,80,165.0
1838,D4,376.0,0.5,80,165.0
1839,F2,376.5,0.5,80,165.0
1840,B-5,376.5,0.5,96,165.0
1841,B-6,376.5,0.5,96,165.0
1842,C4,377.0,0.5,80,165.0
1843,G#3,377.0,0.5,80,165.0
1844,G#2,377.5,0.5,80,165.0
1845,F5,377.5,0.5,96,165.0
1846,F6,377.5,0.5,96,165.0
1847,F5,378.0,0.5,96,165.0
1848,F6,378.0,0.5,96,165.0
1849,G#3,378.0,0.5,80,165.0
1850,C4,378.0,0.5,80,165.0
1851,B-2,378.5,0.5,80,165.0
1852,F5,378.5,0.5,96,165.0
1853,F6,378.5,0.5,96,165.0
1854,F5,379.0,0.5,96,165.0
1855,F6,379.0,0.5,96,165.0
1856,B-3,379.0,0.5,80,165.0
1857,D4,379.0,0.5,80,165.0
1858,F3,379.5,0.5,80,165.0
1859,E-5,379.5,0.5,96,165.0
1860,E-6,379.5,0.5,96,165.0
1861,D5,380.0,0.5,96,165.0
1862,D6,380.0,0.5,96,165.0
1863,D4,380.0,0.5,80,165.0
1864,B-3,380.0,0.5,80,165.0
1865,E-2,380.5,0.5,80,165.0
1866,E-5,380.5,0.5,96,165.0
1867,E-6,380.5,0.5,96,165.0
1868,F5,381.0,0.5,96,165.0
1869,F6,381.0,0.5,96,165.0
1870,E-3,381.0,0.5,80,165.0
1871,G3,381.0,0.5,80,165.0
1872,B-2,381.5,0.5,80,165.0
1873,F5,381.5,1.0,96,165.0
1874,F6,381.5,1.0,96,165.0
1875,G3,382.0,0.5,80,165.0
1876,E-3,382.0,0.5,80,165.0
1877,E-2,382.5,0.5,80,165.0
1878,F5,382.5,0.5,96,165.0
1879,F6,382.5,0.5,96,165.0
1880,E-3,383.0,0.5,80,165.0
1881,G3,383.0,0.5,80,165.0
1882,B-2,383.5,0.5,80,165.0
1883,D6,383.5,0.5,96,165.0
1884,D7,383.5,0.5,96,165.0
1885,C6,384.0,0.5,96,165.0
1886,C7,384.0,0.5,96,165.0
1887,E-3,384.0,0.5,80,165.0
1888,G3,384.0,0.5,80,165.0
1889,D2,384.5,0.5,80,165.0
1890,B-5,384.5,0.5,96,165.0
1891,B-6,384.5,0.5,96,165.0
1892,D3,385.0,0.5,80,165.0
1893,F3,385.0,0.5,80,165.0
1894,A2,385.5,0.5,80,165.0
1895,G5,385.5,0.5,96,165.0
1896,E-6,385.5,0.5,96,165.0
1897,G6,385.5,0.5,96,165.0
1898,G5,386.0,0.5,96,165.0
1899,G6,386.0,0.5,96,165.0
1900,E-6,386.0,0.5,96,165.0
1901,D3,386.0,0.5,80,165.0
1902,F3,386.0,0.5,80,165.0
1903,D2,386.5,0.5,80,165.0
1904,G5,386.5,0.5,96,165.0
1905,G6,386.5,0.5,96,165.0
1906,E-6,386.5,0.5,96,165.0
1907,G5,387.0,0.5,96,165.0
1908,G6,387.0,0.5,96,165.0
1909,E-6,387.0,0.5,96,165.0
1910,F3,387.0,0.5,80,165.0
1911,D3,387.0,0.5,80,165.0
1912,A2,387.5,0.5,80,165.0
1913,G5,387.5,0.5,96,165.0
1914,E-6,387.5,0.5,96,165.0
1915,G6,387.5,0.5,96,165.0
1916,A5,388.0,0.5,96,165.0
1917,A6,388.0,0.5,96,165.0
1918,F3,388.0,0.5,80,165.0
1919,D3,388.0,0.5,80,165.0
1920,C2,388.5,0.5,80,165.0
1921,B-5,388.5,0.5,96,165.0
1922,B-6,388.5,0.5,96,165.0
1923,G6,388.5,0.5,96,165.0
1924,E-6,388.5,0.5,96,165.0
1925,E-3,389.0,0.5,80,165.0
1926,G3,389.0,0.5,80,165.0
1927,E-2,389.5,0.5,80,165.0
1928,F5,389.5,0.5,96,165.0
1929,F6,389.5,0.5,96,165.0
1930,D6,389.5,0.5,96,165.0
1931,F5,390.0,0.5,96,165.0
1932,D6,390.0,0.5,96,165.0
1933,F6,390.0,0.5,96,165.0
1934,G3,390.0,0.5,80,165.0
1935,E-3,390.0,0.5,80,165.0
1936,G2,390.5,0.5,80,165.0
1937,F5,390.5,0.5,96,165.0
1938,D6,390.5,0.5,96,165.0
1939,F6,390.5,0.5,96,165.0
1940,D5,391.0,1.0,96,165.0
1941,D6,391.0,1.0,96,165.0
1942,G3,391.0,0.5,80,165.0
1943,E-3,391.0,0.5,80,165.0
1944,C3,391.5,0.5,80,165.0
1945,F5,392.0,1.0,96,165.0
1946,D6,392.0,1.0,96,165.0
1947,F6,392.0,1.0,96,165.0
1948,G3,392.0,0.5,80,165.0
1949,E-3,392.0,0.5,80,165.0
1950,F1,392.5,1.0,80,165.0
1951,F2,392.5,1.0,80,165.0
1952,E-5,393.0,1.0,96,165.0
1953,E-6,393.0,1.0,96,165.0
1954,G2,393.5,0.5,80,165.0
1955,G1,393.5,0.5,80,165.0
1956,D5,394.0,1.0,96,165.0
1957,D6,394.0,1.0,96,165.0
1958,A1,394.0,0.5,80,165.0
1959,A2,394.0,0.5,80,165.0
1960,B-2,394.5,0.5,80,165.0
1961,B-1,394.5,0.5,80,165.0
1962,E-5,395.0,1.0,96,165.0
1963,E-6,395.0,1.0,96,165.0
1964,C2,395.0,0.5,80,165.0
1965,C3,395.0,0.5,80,165.0
1966,D2,395.5,0.5,80,165.0
1967,D3,395.5,0.5,80,165.0
1968,F5,396.0,1.0,96,165.0
1969,F6,396.0,1.0,96,165.0
1970,E-3,396.0,0.5,80,165.0
1971,E-2,396.0,0.5,80,165.0
1972,B-1,396.5,0.5,80,165.0
1973,D5,397.0,0.5,96,165.0
1974,D6,397.0,0.5,96,165.0
1975,D3,397.0,0.5,80,165.0
1976,B-2,397.0,0.5,80,165.0
1977,D2,397.5,0.5,80,165.0
1978,C5,397.5,0.5,96,165.0
1979,C6,397.5,0.5,96,165.0
1980,D5,398.0,0.5,96,165.0
1981,D6,398.0,0.5,96,165.0
1982,B-2,398.0,0.5,80,165.0
1983,D3,398.0,0.5,80,165.0
1984,F2,398.5,0.5,80,165.0
1985,C5,398.5,1.0,96,165.0
1986,C6,398.5,1.0,96,165.0
1987,F5,398.5,1.0,96,165.0
1988,B-2,399.0,0.5,80,165.0
1989,D3,399.0,0.5,80,165.0
1990,B-1,399.5,0.5,80,165.0
1991,C5,399.5,0.5,96,165.0
1992,C6,399.5,0.5,96,165.0
1993,D5,400.0,0.5,96,165.0
1994,D6,400.0,0.5,96,165.0
1995,D3,400.0,0.5,80,165.0
1996,B-2,400.0,0.5,80,165.0
1997,A1,400.5,0.5,80,165.0
1998,E-5,400.5,0.5,96,165.0
1999,E-6,400.5,0.5,96,165.0
2000,F5,401.0,0.5,96,165.0
2001,F6,401.0,0.5,96,165.0
2002,A2,401.0,0.5,80,165.0
2003,C3,401.0,0.5,80,165.0
2004,F2,401.5,0.5,80,165.0
2005,F5,401.5,0.5,96,165.0
2006,F6,401.5,0.5,96,165.0
2007,F5,402.0,0.5,96,165.0
2008,F6,402.0,0.5,96,165.0
2009,C3,402.0,0.5,80,165.0
2010,A2,402.0,0.5,80,165.0
2011,D2,402.5,0.5,80,165.0
2012,F5,402.5,0.5,96,165.0
2013,F6,402.5,0.5,96,165.0
2014,F5,403.0,0.5,96,165.0
2015,F6,403.0,0.5,96,165.0
2016,F#3,403.0,0.5,80,165.0
2017,A3,403.0,0.5,80,165.0
2018,F#2,403.5,0.5,80,165.0
2019,E-5,403.5,0.5,96,165.0
2020,E-6,403.5,0.5,96,165.0
2021,D5,404.0,0.5,96,165.0
2022,D6,404.0,0.5,96,165.0
2023,A3,404.0,0.5,80,165.0
2024,F#3,404.0,0.5,80,165.0
2025,G2,404.5,0.5,80,165.0
2026,E-5,404.5,0.5,96,165.0
2027,E-6,404.5,0.5,96,165.0
2028,F5,405.0,0.5,96,165.0
2029,F6,405.0,0.5,96,165.0
2030,D4,405.0,0.5,80,165.0
2031,B-3,405.0,0.5,80,165.0
2032,B-2,405.5,0.5,80,165.0
2033,F5,405.5,0.5,96,165.0
2034,F6,405.5,0.5,96,165.0
2035,F5,406.0,0.5,96,165.0
2036,F6,406.0,0.5,96,165.0
2037,B-3,406.0,0.5,80,165.0
2038,D4,406.0,0.5,80,165.0
2039,D3,406.5,0.5,80,165.0
2040,F5,406.5,0.5,96,165.0
2041,F6,406.5,0.5,96,165.0
2042,B-3,407.0,0.5,80,165.0
2043,D4,407.0,0.5,80,165.0
2044,G3,407.5,0.5,80,165.0
2045,B-5,407.5,0.5,96,165.0
2046,B-6,407.5,0.5,96,165.0
2047,A5,408.0,0.5,96,165.0
2048,A6,408.0,0.5,96,165.0
2049,B-3,408.0,0.5,80,165.0
2050,D4,408.0,0.5,80,165.0
2051,F2,408.5,0.5,80,165.0
2052,B-5,408.5,0.5,96,165.0
2053,B-6,408.5,0.5,96,165.0
2054,G#3,409.0,0.5,80,165.0
2055,C4,409.0,0.5,80,165.0
2056,G#2,409.5,0.5,80,165.0
2057,F5,409.5,0.5,96,165.0
2058,F6,409.5,0.5,96,165.0
2059,F5,410.0,0.5,96,165.0
2060,F6,410.0,0.5,96,165.0
2061,C4,410.0,0.5,80,165.0
2062,G#3,410.0,0.5,80,165.0
2063,B-2,410.5,0.5,80,165.0
2064,F5,410.5,0.5,96,165.0
2065,F6,410.5,0.5,96,165.0
2066,F5,411.0,0.5,96,165.0
2067,F6,411.0,0.5,96,165.0
2068,D4,411.0,0.5,80,165.0
2069,B-3,411.0,0.5,80,165.0
2070,F3,411.5,0.5,80,165.0
2071,E-5,411.5,0.5,96,165.0
2072,E-6,411.5,0.5,96,165.0
2073,D5,412.0,0.5,96,165.0
2074,D6,412.0,0.5,96,165.0
2075,B-3,412.0,0.5,80,165.0
2076,D4,412.0,0.5,80,165.0
2077,E-2,412.5,0.5,80,165.0
2078,E-5,412.5,0.5,96,165.0
2079,E-6,412.5,0.5,96,165.0
2080,F5,413.0,0.5,96,165.0
2081,C6,413.0,0.5,96,165.0
2082,F6,413.0,0.5,96,165.0
2083,G3,413.0,0.5,80,165.0
2084,E-3,413.0,0.5,80,165.0
2085,B-2,413.5,0.5,80,165.0
2086,F5,413.5,0.5,96,165.0
2087,F6,413.5,0.5,96,165.0
2088,F5,414.0,0.5,96,165.0
2089,F6,414.0,0.5,96,165.0
2090,E-3,414.0,0.5,80,165.0
2091,G3,414.0,0.5,80,165.0
2092,E-2,414.5,0.5,80,165.0
2093,F5,414.5,0.5,96,165.0
2094,F6,414.5,0.5,96,165.0
2095,G3,415.0,0.5,80,165.0
2096,E-3,415.0,0.5,80,165.0
2097,B-2,415.5,0.5,80,165.0
2098,D6,415.5,0.5,96,165.0
2099,D7,415.5,0.5,96,165.0
2100,C6,416.0,0.5,96,165.0
2101,C7,416.0,0.5,96,165.0
2102,G3,416.0,0.5,80,165.0
2103,E-3,416.0,0.5,80,165.0
2104,D2,416.5,0.5,80,165.0
2105,B-5,416.5,0.5,96,165.0
2106,B-6,416.5,0.5,96,165.0
2107,F3,417.0,0.5,80,165.0
2108,D3,417.0,0.5,80,165.0
2109,A2,417.5,0.5,80,165.0
2110,G5,417.5,0.5,96,165.0
2111,E-6,417.5,0.5,96,165.0
2112,G6,417.5,0.5,96,165.0
2113,G5,418.0,0.5,96,165.0
2114,E-6,418.0,0.5,96,165.0
2115,G6,418.0,0.5,96,165.0
2116,F3,418.0,0.5,80,165.0
2117,D3,418.0,0.5,80,165.0
2118,D2,418.5,0.5,80,165.0
2119,G5,418.5,0.5,96,165.0
2120,G6,418.5,0.5,96,165.0
2121,E-6,418.5,0.5,96,165.0
2122,G5,419.0,0.5,96,165.0
2123,G6,419.0,0.5,96,165.0
2124,E-6,419.0,0.5,96,165.0
2125,D3,419.0,0.5,80,165.0
2126,F3,419.0,0.5,80,165.0
2127,A2,419.5,0.5,80,165.0
2128,G5,419.5,0.5,96,165.0
2129,G6,419.5,0.5,96,165.0
2130,E-6,419.5,0.5,96,165.0
2131,A5,420.0,0.5,96,165.0
2132,A6,420.0,0.5,96,165.0
2133,D3,420.0,0.5,80,165.0
2134,F3,420.0,0.5,80,165.0
2135,C2,420.5,0.5,80,165.0
2136,B-5,420.5,0.5,96,165.0
2137,B-6,420.5,0.5,96,165.0
2138,G6,420.5,0.5,96,165.0
2139,E-6,420.5,0.5,96,165.0
2140,G3,421.0,0.5,80,165.0
2141,E-3,421.0,0.5,80,165.0
2142,E-2,421.5,0.5,80,165.0
2143,F5,421.5,0.5,96,165.0
2144,D6,421.5,0.5,96,165.0
2145,F6,421.5,0.5,96,165.0
2146,F5,422.0,0.5,96,165.0
2147,F6,422.0,0.5,96,165.0
2148,D6,422.0,0.5,96,165.0
2149,E-3,422.0,0.5,80,165.0
2150,G3,422.0,0.5,80,165.0
2151,G2,422.5,0.5,80,165.0
2152,F5,422.5,0.5,96,165.0
2153,D6,422.5,0.5,96,165.0
2154,F6,422.5,0.5,96,165.0
2155,D5,423.0,1.0,96,165.0
2156,D6,423.0,1.0,96,165.0
2157,E-3,423.0,0.5,80,165.0
2158,G3,423.0,0.5,80,165.0
2159,C3,423.5,0.5,80,165.0
2160,F5,424.0,1.0,96,165.0
2161,D6,424.0,1.0,96,165.0
2162,F6,424.0,1.0,96,165.0
2163,E-3,424.0,0.5,80,165.0
2164,G3,424.0,0.5,80,165.0
2165,F2,424.5,0.5,80,165.0
2166,E-5,425.0,2.0,96,165.0
2167,E-6,425.0,2.0,96,165.0
2168,C6,425.0,2.0,96,165.0
2169,A3,425.0,0.5,80,165.0
2170,F3,425.0,0.5,80,165.0
2171,C3,425.5,0.5,80,165.0
2172,F3,426.0,0.5,80,165.0
2173,A3,426.0,0.5,80,165.0
2174,F2,426.5,0.5,80,165.0
2175,F5,427.0,1.5,96,165.0
2176,F6,427.0,1.5,96,165.0
2177,C6,427.0,1.5,96,165.0
2178,F3,427.0,0.5,80,165.0
2179,A3,427.0,0.5,80,165.0
2180,C3,427.5,0.5,80,165.0
2181,F3,428.0,0.5,80,165.0
2182,A3,428.0,0.5,80,165.0
2183,E-2,428.5,0.5,80,165.0
2184,F5,428.5,0.5,96,165.0
2185,F6,428.5,0.5,96,165.0
2186,B-5,429.0,1.0,96,165.0
2187,F6,429.0,1.0,96,165.0
2188,B-6,429.0,1.0,96,165.0
2189,E-3,429.0,0.5,80,165.0
2190,G3,429.0,0.5,80,165.0
2191,B-2,429.5,0.5,80,165.0
2192,A5,430.0,1.0,96,165.0
2193,F6,430.0,1.0,96,165.0
2194,A6,430.0,1.0,96,165.0
2195,G3,430.0,0.5,80,165.0
2196,E-3,430.0,0.5,80,165.0
2197,E-2,430.5,0.5,80,165.0
2198,G5,431.0,1.0,96,165.0
2199,G6,431.0,1.0,96,165.0
2200,G3,431.0,0.5,80,165.0
2201,E-3,431.0,0.5,80,165.0
2202,B-2,431.5,0.5,80,165.0
2203,A5,432.0,0.5,96,165.0
2204,A6,432.0,0.5,96,165.0
2205,F6,432.0,0.5,96,165.0
2206,G3,432.0,0.5,80,165.0
2207,E-3,432.0,0.5,80,165.0
2208,F2,432.5,0.5,80,165.0
2209,A5,432.5,0.5,96,165.0
2210,F6,432.5,0.5,96,165.0
2211,A6,432.5,0.5,96,165.0
2212,A5,433.0,1.5,96,165.0
2213,A6,433.0,1.5,96,165.0
2214,E-6,433.0,1.5,96,165.0
2215,F3,433.0,0.5,80,165.0
2216,A3,433.0,0.5,80,165.0
2217,C3,433.5,0.5,80,165.0
2218,A3,434.0,0.5,80,165.0
2219,F3,434.0,0.5,80,165.0
2220,F2,434.5,0.5,80,165.0
2221,B-5,434.5,0.5,96,165.0
2222,E-6,434.5,0.5,96,165.0
2223,B-6,434.5,0.5,96,165.0
2224,B-5,435.0,1.5,96,165.0
2225,E-6,435.0,1.5,96,165.0
2226,B-6,435.0,1.5,96,165.0
2227,A3,435.0,0.5,80,165.0
2228,F3,435.0,0.5,80,165.0
2229,C3,435.5,0.5,80,165.0
2230,A3,436.0,0.5,80,165.0
2231,F3,436.0,0.5,80,165.0
2232,D2,436.5,0.5,80,165.0
2233,F5,436.5,0.5,96,165.0
2234,F6,436.5,0.5,96,165.0
2235,B-5,437.0,1.0,96,165.0
2236,B-6,437.0,1.0,96,165.0
2237,F6,437.0,1.0,96,165.0
2238,F3,437.0,0.5,80,165.0
2239,D3,437.0,0.5,80,165.0
2240,A2,437.5,0.5,80,165.0
2241,A5,438.0,1.0,96,165.0
2242,F6,438.0,1.0,96,165.0
2243,A6,438.0,1.0,96,165.0
2244,F3,438.0,0.5,80,165.0
2245,D3,438.0,0.5,80,165.0
2246,D2,438.5,0.5,80,165.0
2247,G5,439.0,1.0,96,165.0
2248,G6,439.0,1.0,96,165.0
2249,F3,439.0,0.5,80,165.0
2250,D3,439.0,0.5,80,165.0
2251,A2,439.5,0.5,80,165.0
2252,A5,440.0,0.5,96,165.0
2253,A6,440.0,0.5,96,165.0
2254,F6,440.0,0.5,96,165.0
2255,F3,440.0,0.5,80,165.0
2256,D3,440.0,0.5,80,165.0
2257,G2,440.5,0.5,80,165.0
2258,A6,440.5,0.5,96,165.0
2259,F6,440.5,0.5,96,165.0
2260,A5,440.5,0.5,96,165.0
2261,F6,441.0,1.5,96,165.0
2262,A6,441.0,1.5,96,165.0
2263,A5,441.0,1.5,96,165.0
2264,B-3,441.0,0.5,80,165.0
2265,D4,441.0,0.5,80,165.0
2266,B-2,441.5,0.5,80,165.0
2267,D4,442.0,0.5,80,165.0
2268,B-3,442.0,0.5,80,165.0
2269,D3,442.5,0.5,80,165.0
2270,F6,442.5,0.5,96,165.0
2271,B-6,442.5,0.5,96,165.0
2272,B-5,442.5,0.5,96,165.0
2273,F6,443.0,1.0,96,165.0
2274,B-6,443.0,1.0,96,165.0
2275,B-5,443.0,1.0,96,165.0
2276,D4,443.0,0.5,80,165.0
2277,B-3,443.0,0.5,80,165.0
2278,G3,443.5,0.5,80,165.0
2279,C7,444.0,0.5,96,165.0
2280,C6,444.0,0.5,96,165.0
2281,D4,444.0,0.5,80,165.0
2282,B-3,444.0,0.5,80,165.0
2283,C2,444.5,0.5,80,165.0
2284,A6,444.5,0.5,96,165.0
2285,A5,444.5,0.5,96,165.0
2286,B-6,445.0,3.0,96,165.0
2287,G6,445.0,3.0,96,165.0
2288,D6,445.0,3.0,96,165.0
2289,B-5,445.0,3.0,96,165.0
2290,E-3,445.0,0.5,80,165.0
2291,G3,445.0,0.5,80,165.0
2292,E-2,445.5,0.5,80,165.0
2293,E-3,446.0,0.5,80,165.0
2294,G3,446.0,0.5,80,165.0
2295,G2,446.5,0.5,80,165.0
2296,E-3,447.0,0.5,80,165.0
2297,G3,447.0,0.5,80,165.0
2298,C3,447.5,0.5,80,165.0
2299,E-3,448.0,0.5,80,165.0
2300,G3,448.0,0.5,80,165.0
2301,F2,448.5,0.5,80,165.0
2302,A5,449.0,1.5,96,165.0
2303,E-6,449.0,1.5,96,165.0
2304,A6,449.0,1.5,96,165.0
2305,A3,449.0,0.5,80,165.0
2306,F3,449.0,0.5,80,165.0
2307,C3,449.5,0.5,80,165.0
2308,F3,450.0,0.5,80,165.0
2309,A3,450.0,0.5,80,165.0
2310,F2,450.5,0.5,80,165.0
2311,B-5,450.5,0.5,96,165.0
2312,E-6,450.5,0.5,96,165.0
2313,B-6,450.5,0.5,96,165.0
2314,B-5,451.0,1.5,96,165.0
2315,B-6,451.0,1.5,96,165.0
2316,E-6,451.0,1.5,96,165.0
2317,F3,451.0,0.5,80,165.0
2318,A3,451.0,0.5,80,165.0
2319,C3,451.5,0.5,80,165.0
2320,A3,452.0,0.5,80,165.0
2321,F3,452.0,0.5,80,165.0
2322,B-2,452.5,0.5,80,165.0
2323,F5,452.5,0.5,96,165.0
2324,F6,452.5,0.5,96,165.0
2325,B-5,453.0,1.0,96,165.0
2326,B-6,453.0,1.0,96,165.0
2327,F6,453.0,1.0,96,165.0
2328,B-3,453.0,0.5,80,165.0
2329,D4,453.0,0.5,80,165.0
2330,F3,453.5,0.5,80,165.0
2331,A5,454.0,1.0,96,165.0
2332,F6,454.0,1.0,96,165.0
2333,A6,454.0,1.0,96,165.0
2334,D4,454.0,0.5,80,165.0
2335,B-3,454.0,0.5,80,165.0
2336,B-2,454.5,0.5,80,165.0
2337,G5,455.0,1.0,96,165.0
2338,G6,455.0,1.0,96,165.0
2339,D4,455.0,0.5,80,165.0
2340,B-3,455.0,0.5,80,165.0
2341,F3,455.5,0.5,80,165.0
2342,A5,456.0,1.0,96,165.0
2343,A6,456.0,1.0,96,165.0
2344,F6,456.0,1.0,96,165.0
2345,B-2,456.0,0.5,80,165.0
2346,B-1,456.0,0.5,80,165.0
2347,A5,457.0,1.5,96,165.0
2348,A6,457.0,1.5,96,165.0
2349,F6,457.0,1.5,96,165.0
2350,B-2,457.0,0.5,80,165.0
2351,B-1,457.0,0.5,80,165.0
2352,B-2,457.5,0.5,80,165.0
2353,F3,458.0,0.5,80,165.0
2354,B-3,458.5,0.5,80,165.0
2355,B-5,458.5,0.5,96,165.0
2356,F6,458.5,0.5,96,165.0
2357,B-6,458.5,0.5,96,165.0
2358,D4,459.0,0.5,80,165.0
2359,B-5,459.0,1.5,96,165.0
2360,F6,459.0,1.5,96,165.0
2361,B-6,459.0,1.5,96,165.0
2362,B-3,459.5,0.5,80,165.0
2363,F3,460.0,0.5,80,165.0
2364,B-2,460.5,0.5,80,165.0
2365,F6,460.5,0.5,88,165.0
2366,F5,460.5,0.5,88,165.0
2367,G#1,461.0,1.5,80,165.0
2368,G#2,461.0,1.5,80,165.0
2369,F6,462.0,1.0,88,165.0
2370,F5,462.0,1.0,88,165.0
2371,C3,462.5,1.5,80,165.0
2372,D6,463.0,1.0,88,165.0
2373,F5,463.0,1.0,88,165.0
2374,E-3,464.0,1.0,80,165.0
2375,C6,464.0,1.0,88,165.0
2376,F5,464.0,1.0,88,165.0
2377,B-5,465.0,1.0,88,165.0
2378,F5,465.0,1.0,88,165.0
2379,G#2,465.0,0.5,80,165.0
2380,G#1,465.0,0.5,80,165.0
2381,B-3,465.5,0.5,80,165.0
2382,G#3,466.0,0.5,80,165.0
2383,G4,466.0,1.0,96,165.0
2384,E-4,466.0,1.0,96,165.0
2385,C4,466.0,1.0,96,165.0
2386,G3,466.5,0.5,80,165.0
2387,F3,467.0,0.5,80,165.0
2388,E-5,467.0,1.0,96,165.0
2389,C5,467.0,1.0,96,165.0
2390,G5,467.0,1.0,96,165.0
2391,E-3,467.5,0.5,80,165.0
2392,D3,468.0,0.5,80,165.0
2393,E-5,468.0,1.0,96,165.0
2394,C5,468.0,1.0,96,165.0
2395,G5,468.0,1.0,96,165.0
2396,E-3,468.5,0.5,80,165.0
2397,E-5,469.0,1.0,96,165.0
2398,C5,469.0,1.0,96,165.0
2399,G5,469.0,1.0,96,165.0
2400,E-3,469.0,1.5,80,165.0
2401,E-2,469.0,1.5,80,165.0
2402,E-5,470.0,1.0,96,165.0
2403,C5,470.0,1.0,96,165.0
2404,G5,470.0,1.0,96,165.0
2405,D4,470.5,1.5,80,165.0
2406,G#5,471.0,1.0,96,165.0
2407,B-3,472.0,1.0,80,165.0
2408,B-5,472.0,1.0,96,165.0
2409,E-5,472.0,1.0,96,165.0
2410,C5,472.0,1.0,96,165.0
2411,E-5,473.0,1.0,96,165.0
2412,E-3,473.0,0.5,80,165.0
2413,E-2,473.0,0.5,80,165.0
2414,G4,473.5,0.5,80,165.0
2415,F5,474.0,0.5,96,165.0
2416,F4,474.0,0.5,80,165.0
2417,E-5,474.5,0.5,96,165.0
2418,E-4,474.5,0.5,80,165.0
2419,F5,475.0,0.5,96,165.0
2420,D4,475.0,0.5,80,165.0
2421,G5,475.5,2.5,96,165.0
2422,C4,475.5,0.5,80,165.0
2423,B-3,476.0,0.5,80,165.0
2424,G#3,476.5,0.5,80,165.0
2425,F3,477.0,1.5,80,165.0
2426,F2,477.0,1.5,80,165.0
2427,F6,478.0,0.5,96,165.0
2428,E-6,478.5,0.5,96,165.0
2429,G#3,478.5,1.5,80,165.0
2430,F6,479.0,0.5,96,165.0
2431,G6,479.5,2.5,96,165.0
2432,C4,480.0,1.0,80,165.0
2433,G2,481.0,0.5,80,165.0
2434,G3,481.0,0.5,80,165.0
2435,D3,481.5,0.5,80,165.0
2436,G3,482.0,0.5,80,165.0
2437,B3,482.5,0.5,80,165.0
2438,F5,483.0,1.0,96,165.0
2439,C5,483.0,1.0,96,165.0
2440,G#5,483.0,1.0,96,165.0
2441,B3,483.0,0.5,80,165.0
2442,B2,483.0,0.5,80,165.0
2443,G3,483.5,0.5,80,165.0
2444,B3,484.0,0.5,80,165.0
2445,F5,484.0,1.0,96,165.0
2446,C5,484.0,1.0,96,165.0
2447,G#5,484.0,1.0,96,165.0
2448,D4,484.5,0.5,80,165.0
2449,F5,485.0,1.0,96,165.0
2450,C5,485.0,1.0,96,165.0
2451,G#5,485.0,1.0,96,165.0
2452,C3,485.0,0.5,80,165.0
2453,C2,485.0,0.5,80,165.0
2454,C4,485.5,0.5,80,165.0
2455,G3,486.0,0.5,80,165.0
2456,G5,486.0,1.0,96,165.0
2457,B4,486.0,1.0,96,165.0
2458,E-3,486.5,0.5,80,165.0
2459,D5,487.0,1.0,96,165.0
2460,C3,487.0,0.5,80,165.0
2461,G2,487.5,0.5,80,165.0
2462,E-2,488.0,0.5,80,165.0
2463,G5,488.0,1.0,96,165.0
2464,B4,488.0,1.0,96,165.0
2465,C2,488.5,0.5,80,165.0
2466,F5,489.0,1.0,96,165.0
2467,B-1,489.0,0.5,80,165.0
2468,B-2,489.0,0.5,80,165.0
2469,B-2,489.5,0.5,80,165.0
2470,F5,490.0,0.5,96,165.0
2471,C#3,490.0,0.5,80,165.0
2472,F3,490.0,0.5,80,165.0
2473,G#3,490.0,0.5,80,165.0
2474,E-5,490.5,0.5,96,165.0
2475,E-3,490.5,1.0,80,165.0
2476,E-2,490.5,1.0,80,165.0
2477,F5,491.0,0.5,96,165.0
2478,G5,491.5,2.5,96,165.0
2479,E-3,491.5,0.5,80,165.0
2480,B-3,492.0,0.5,80,165.0
2481,C#4,492.0,0.5,80,165.0
2482,G3,492.0,0.5,80,165.0
2483,E-3,492.5,0.5,80,165.0
2484,G#2,493.0,0.5,80,165.0
2485,G#3,493.0,0.5,80,165.0
2486,E-3,493.5,0.5,80,165.0
2487,F6,494.0,0.5,96,165.0
2488,G#3,494.0,0.5,80,165.0
2489,G#2,494.0,0.5,80,165.0
2490,E-6,494.5,0.5,96,165.0
2491,E-3,494.5,0.5,80,165.0
2492,F6,495.0,0.5,96,165.0
2493,G#3,495.0,0.5,80,165.0
2494,G#2,495.0,0.5,80,165.0
2495,G6,495.5,1.0,96,165.0
2496,E-3,495.5,0.5,80,165.0
2497,G#3,496.0,0.5,80,165.0
2498,G#2,496.0,0.5,80,165.0
2499,G5,496.5,0.5,96,165.0
2500,E-3,496.5,0.5,80,165.0
2501,F5,497.0,0.5,96,165.0
2502,G#3,497.0,0.5,80,165.0
2503,G#2,497.0,0.5,80,165.0
2504,E-5,497.5,0.5,96,165.0
2505,E-3,497.5,0.5,80,165.0
2506,E-5,498.0,0.5,96,165.0
2507,G#2,498.0,0.5,80,165.0
2508,G#3,498.0,0.5,80,165.0
2509,E-3,498.5,0.5,80,165.0
2510,B-5,498.5,0.5,96,165.0
2511,B-4,498.5,0.5,96,165.0
2512,D6,499.0,0.5,96,165.0
2513,D5,499.0,0.5,96,165.0
2514,G#2,499.0,0.5,80,165.0
2515,G#3,499.0,0.5,80,165.0
2516,E-3,499.5,0.5,80,165.0
2517,E-6,499.5,0.5,96,165.0
2518,E-5,499.5,0.5,96,165.0
2519,G#2,500.0,0.5,80,165.0
2520,G#3,500.0,0.5,80,165.0
2521,E-3,500.5,0.5,80,165.0
2522,B-5,500.5,0.5,96,165.0
2523,B-4,500.5,0.5,96,165.0
2524,D6,501.0,0.5,96,165.0
2525,D5,501.0,0.5,96,165.0
2526,E-3,501.0,0.5,80,165.0
2527,E-2,501.0,0.5,80,165.0
2528,B-2,501.5,0.5,80,165.0
2529,E-6,501.5,0.5,96,165.0
2530,E-5,501.5,0.5,96,165.0
2531,E-2,502.0,0.5,80,165.0
2532,E-3,502.0,0.5,80,165.0
2533,B-2,502.5,0.5,80,165.0
2534,B-5,502.5,0.5,96,165.0
2535,B-4,502.5,0.5,96,165.0
2536,D6,503.0,0.5,96,165.0
2537,D5,503.0,0.5,96,165.0
2538,E-2,503.0,0.5,80,165.0
2539,E-3,503.0,0.5,80,165.0
2540,B-2,503.5,0.5,80,165.0
2541,E-6,503.5,0.5,96,165.0
2542,E-5,503.5,0.5,96,165.0
2543,F6,504.0,0.5,96,165.0
2544,F5,504.0,0.5,96,165.0
2545,E-2,504.0,0.5,80,165.0
2546,E-3,504.0,0.5,80,165.0
2547,B-2,504.5,0.5,80,165.0
2548,E-6,504.5,0.5,96,165.0
2549,E-5,504.5,0.5,96,165.0
2550,D6,505.0,0.5,96,165.0
2551,D5,505.0,0.5,96,165.0
2552,E-2,505.0,0.5,80,165.0
2553,E-3,505.0,0.5,80,165.0
2554,B-2,505.5,0.5,80,165.0
2555,E-6,505.5,0.5,96,165.0
2556,E-5,505.5,0.5,96,165.0
2557,E-3,506.0,0.5,80,165.0
2558,E-2,506.0,0.5,80,165.0
2559,B-2,506.5,0.5,80,165.0
2560,B-5,506.5,0.5,96,165.0
2561,B-4,506.5,0.5,96,165.0
2562,D6,507.0,0.5,96,165.0
2563,D5,507.0,0.5,96,165.0
2564,E-3,507.0,0.5,80,165.0
2565,E-2,507.0,0.5,80,165.0
2566,B-2,507.5,0.5,80,165.0
2567,E-6,507.5,0.5,96,165.0
2568,E-5,507.5,0.5,96,165.0
2569,E-3,508.0,0.5,80,165.0
2570,E-2,508.0,0.5,80,165.0
2571,B-2,508.5,0.5,80,165.0
2572,B-5,508.5,0.5,96,165.0
2573,B-4,508.5,0.5,96,165.0
2574,D6,509.0,0.5,96,165.0
2575,D5,509.0,0.5,96,165.0
2576,F1,509.0,0.5,80,165.0
2577,F2,509.0,0.5,80,165.0
2578,F3,509.5,0.5,80,165.0
2579,E-6,509.5,0.5,96,165.0
2580,E-5,509.5,0.5,96,165.0
2581,C3,510.0,0.5,80,165.0
2582,B-5,510.5,0.5,96,165.0
2583,B-4,510.5,0.5,96,165.0
2584,G2,510.5,0.5,80,165.0
2585,G1,510.5,0.5,80,165.0
2586,D6,511.0,0.5,96,165.0
2587,D5,511.0,0.5,96,165.0
2588,E-6,511.5,0.5,96,165.0
2589,E-5,511.5,0.5,96,165.0
2590,G1,511.5,0.5,80,165.0
2591,G2,511.5,0.5,80,165.0
2592,F6,512.0,0.5,96,165.0
2593,F5,512.0,0.5,96,165.0
2594,E-6,512.5,0.5,96,165.0
2595,E-5,512.5,0.5,96,165.0
2596,G#2,512.5,0.5,80,165.0
2597,G#1,512.5,0.5,80,165.0
2598,D6,513.0,0.5,96,165.0
2599,D5,513.0,0.5,96,165.0
2600,G#2,513.0,0.5,80,165.0
2601,G#1,513.0,0.5,80,165.0
2602,G#3,513.5,0.5,80,165.0
2603,E-6,513.5,0.5,96,165.0
2604,E-5,513.5,0.5,96,165.0
2605,E-3,514.0,0.5,80,165.0
2606,C6,514.0,1.0,96,165.0
2607,C5,514.0,1.0,96,165.0
2608,C3,514.5,0.5,80,165.0
2609,C6,515.0,0.5,96,165.0
2610,C5,515.0,0.5,96,165.0
2611,A1,515.0,1.0,80,165.0
2612,A2,515.0,1.0,80,165.0
2613,D6,515.5,1.0,96,165.0
2614,D5,515.5,1.0,96,165.0
2615,C3,516.0,1.0,80,165.0
2616,A3,516.0,1.0,80,165.0
2617,E-3,516.0,1.0,80,165.0
2618,D6,516.5,1.0,96,165.0
2619,D5,516.5,1.0,96,165.0
2620,B-1,517.0,0.5,80,165.0
2621,B-2,517.0,0.5,80,165.0
2622,F2,517.5,0.5,80,165.0
2623,E-6,517.5,0.5,96,165.0
2624,E-5,517.5,0.5,96,165.0
2625,B-2,518.0,0.5,80,165.0
2626,B-1,518.0,0.5,80,165.0
2627,F2,518.5,0.5,80,165.0
2628,E-6,519.0,1.0,96,165.0
2629,E-5,519.0,1.0,96,165.0
2630,B-2,519.0,0.5,80,165.0
2631,B-1,519.0,0.5,80,165.0
2632,F2,519.5,0.5,80,165.0
2633,B-5,520.0,1.0,96,165.0
2634,B-4,520.0,1.0,96,165.0
2635,B-2,520.0,0.5,80,165.0
2636,B-1,520.0,0.5,80,165.0
2637,F2,520.5,0.5,80,165.0
2638,G#6,521.0,1.0,96,165.0
2639,G#5,521.0,1.0,96,165.0
2640,B-2,521.0,0.5,80,165.0
2641,B-1,521.0,0.5,80,165.0
2642,F2,521.5,0.5,80,165.0
2643,G6,522.0,1.0,96,165.0
2644,G5,522.0,1.0,96,165.0
2645,B-1,522.0,0.5,80,165.0
2646,B-2,522.0,0.5,80,165.0
2647,F2,522.5,0.5,80,165.0
2648,F6,523.0,2.5,96,165.0
2649,F5,523.0,2.5,96,165.0
2650,B-1,523.0,0.5,80,165.0
2651,B-2,523.0,0.5,80,165.0
2652,F2,523.5,0.5,80,165.0
2653,B-1,524.0,0.5,80,165.0
2654,B-2,524.0,0.5,80,165.0
2655,F2,524.5,0.5,80,165.0
2656,C3,525.0,1.0,80,165.0
2657,C2,525.0,1.0,80,165.0
2658,E-6,525.5,0.5,96,165.0
2659,E-5,525.5,0.5,96,165.0
2660,C3,526.0,0.5,80,165.0
2661,G6,526.0,0.5,96,165.0
2662,G5,526.0,0.5,96,165.0
2663,F6,526.5,31/250,96,165.0
2664,F5,526.5,31/250,96,165.0
2665,E3,526.5,1.0,80,165.0
2666,G3,526.5,1.0,80,165.0
2667,C4,526.5,1.0,80,165.0
2668,G6,526.75,31/250,96,165.0
2669,G5,526.75,31/250,96,165.0
2670,F6,527.0,4.0,96,165.0
2671,F5,527.0,4.0,96,165.0
2672,C2,527.5,0.5,80,165.0
2673,C3,528.0,0.5,80,165.0
2674,C2,528.5,0.5,80,165.0
2675,B-1,529.0,1.0,80,165.0
2676,B-2,529.0,1.0,80,165.0
2677,B-2,530.0,0.5,80,165.0
2678,B-3,530.5,1.0,80,165.0
2679,F3,530.5,1.0,80,165.0
2680,D3,530.5,1.0,80,165.0
2681,G6,531.0,0.5,96,165.0
2682,G5,531.0,0.5,96,165.0
2683,F6,531.5,0.5,96,165.0
2684,F5,531.5,0.5,96,165.0
2685,G6,532.0,3.0,96,165.0
2686,G5,532.0,3.0,96,165.0
2687,E-4,535.0,1.5,96,165.0
2688,F1,535.0,0.5,80,165.0
2689,F2,535.0,0.5,80,165.0
2690,G1,535.5,0.5,80,165.0
2691,G2,535.5,0.5,80,165.0
2692,A2,536.0,0.5,80,165.0
2693,A1,536.0,0.5,80,165.0
2694,D4,536.5,1.0,96,165.0
2695,B-1,536.5,0.5,80,165.0
2696,B-2,536.5,0.5,80,165.0
2697,C3,537.0,0.5,80,165.0
2698,C2,537.0,0.5,80,165.0
2699,D3,537.5,0.5,80,165.0
2700,D2,537.5,0.5,80,165.0
2701,A7,537.622,31/500,96,165.0
2702,G7,537.622,31/500,96,165.0
2703,F7,537.748,31/500,96,165.0
2704,E7,537.748,31/500,96,165.0
2705,D7,537.874,31/500,96,165.0
2706,C7,537.874,31/500,96,165.0
2707,B6,537.998,31/500,96,165.0
2708,A6,537.998,31/500,96,165.0
2709,E-2,538.0,0.5,80,165.0
2710,E-3,538.0,0.5,80,165.0
2711,G6,538.124,31/500,96,165.0
2712,F6,538.124,31/500,96,165.0
2713,E6,538.248,31/500,96,165.0
2714,D6,538.312,31/500,96,165.0
2715,C6,538.312,31/500,96,165.0
2716,B5,538.436,31/500,96,165.0
2717,A5,538.436,31/500,96,165.0
2718,G5,538.56,31/500,96,165.0
2719,F5,538.624,31/500,96,165.0
2720,E5,538.624,31/500,96,165.0
2721,D5,538.748,31/500,96,165.0
2722,C5,538.748,31/500,96,165.0
2723,B4,538.874,31/500,96,165.0
2724,A4,538.874,31/500,96,165.0
2725,G4,539.0,31/500,96,165.0
2726,F4,539.0,31/500,96,165.0
2727,E4,539.122,31/500,96,165.0
2728,D4,539.186,31/500,96,165.0
2729,C4,539.25,31/500,96,165.0
2730,B3,539.25,31/500,96,165.0
2731,A3,539.374,31/500,96,165.0
2732,G3,539.374,31/500,96,165.0
2733,F3,539.5,31/500,96,165.0
2734,E3,539.5,31/500,96,165.0
2735,D3,539.624,31/500,96,165.0
2736,C3,539.624,31/500,96,165.0
2737,B2,539.75,31/500,96,165.0
2738,A2,539.75,31/500,96,165.0
2739,G2,539.874,31/500,96,165.0
2740,F2,539.874,31/500,96,165.0
2741,E2,539.998,31/500,96,165.0
2742,D2,540.062,31/500,96,165.0
2743,C2,540.062,31/500,96,165.0
2744,B1,540.186,31/500,96,165.0
2745,A1,540.25,31/500,96,165.0
2746,B-1,541.0,0.5,80,165.0
2747,B-2,541.5,0.5,80,165.0
2748,D3,541.5,0.5,80,165.0
2749,D2,542.0,0.5,80,165.0
2750,B-2,542.5,0.5,80,165.0
2751,D3,542.5,0.5,80,165.0
2752,F2,543.0,0.5,80,165.0
2753,B-2,543.5,0.5,80,165.0
2754,D3,543.5,0.5,80,165.0
2755,B-1,544.0,0.5,80,165.0
2756,B-2,544.5,0.5,80,165.0
2757,D3,544.5,0.5,80,165.0
2758,A1,545.0,0.5,80,165.0
2759,A7,545.0,31/500,96,165.0
2760,G7,545.0,31/500,96,165.0
2761,F7,545.126,31/500,96,165.0
2762,E7,545.126,31/500,96,165.0
2763,D7,545.25,31/500,96,165.0
2764,C7,545.25,31/500,96,165.0
2765,B6,545.376,31/500,96,165.0
2766,A6,545.376,31/500,96,165.0
2767,G6,545.5,31/500,96,165.0
2768,F6,545.5,31/500,96,165.0
2769,A2,545.5,0.5,80,165.0
2770,C3,545.5,0.5,80,165.0
2771,E6,545.626,31/500,96,165.0
2772,D6,545.626,31/500,96,165.0
2773,C6,545.75,31/500,96,165.0
2774,B5,545.75,31/500,96,165.0
2775,A5,545.876,31/500,96,165.0
2776,G5,545.876,31/500,96,165.0
2777,F2,546.0,0.5,80,165.0
2778,F5,546.0,31/500,96,165.0
2779,E5,546.0,31/500,96,165.0
2780,D5,546.126,31/500,96,165.0
2781,C5,546.126,31/500,96,165.0
2782,B4,546.25,31/500,96,165.0
2783,A4,546.25,31/500,96,165.0
2784,A2,546.5,0.5,80,165.0
2785,C3,546.5,0.5,80,165.0
2786,D2,547.0,0.5,80,165.0
2787,F5,547.5,0.5,96,165.0
2788,F6,547.5,0.5,96,165.0
2789,A3,547.5,0.5,80,165.0
2790,F#3,547.5,0.5,80,165.0
2791,F#2,548.0,0.5,80,165.0
2792,F5,548.0,0.5,96,165.0
2793,F6,548.0,0.5,96,165.0
2794,A3,548.5,0.5,80,165.0
2795,F#3,548.5,0.5,80,165.0
2796,G2,549.0,0.5,80,165.0
2797,F5,549.0,0.5,96,165.0
2798,F6,549.0,0.5,96,165.0
2799,E-5,549.5,0.5,96,165.0
2800,E-6,549.5,0.5,96,165.0
2801,B-3,549.5,0.5,80,165.0
2802,D4,549.5,0.5,80,165.0
2803,B-2,550.0,0.5,80,165.0
2804,D5,550.0,0.5,96,165.0
2805,D6,550.0,0.5,96,165.0
2806,E-5,550.5,0.5,96,165.0
2807,E-6,550.5,0.5,96,165.0
2808,B-3,550.5,0.5,80,165.0
2809,D4,550.5,0.5,80,165.0
2810,D3,551.0,0.5,80,165.0
2811,F5,551.0,0.5,96,165.0
2812,F6,551.0,0.5,96,165.0
2813,F5,551.5,1.0,96,165.0
2814,F6,551.5,1.0,96,165.0
2815,B-3,551.5,0.5,80,165.0
2816,D4,551.5,0.5,80,165.0
2817,G3,552.0,0.5,80,165.0
2818,F5,552.5,0.5,96,165.0
2819,F6,552.5,0.5,96,165.0
2820,B-3,552.5,0.5,80,165.0
2821,D4,552.5,0.5,80,165.0
2822,F2,553.0,0.5,80,165.0
2823,B-5,553.5,0.5,96,165.0
2824,B-6,553.5,0.5,96,165.0
2825,C4,553.5,0.5,80,165.0
2826,G#3,553.5,0.5,80,165.0
2827,G#2,554.0,0.5,80,165.0
2828,A5,554.0,0.5,96,165.0
2829,A6,554.0,0.5,96,165.0
2830,B-5,554.5,0.5,96,165.0
2831,B-6,554.5,0.5,96,165.0
2832,C4,554.5,0.5,80,165.0
2833,G#3,554.5,0.5,80,165.0
2834,B-2,555.0,0.5,80,165.0
2835,F5,555.5,0.5,96,165.0
2836,F6,555.5,0.5,96,165.0
2837,D4,555.5,0.5,80,165.0
2838,B-3,555.5,0.5,80,165.0
2839,F3,556.0,0.5,80,165.0
2840,F5,556.0,0.5,96,165.0
2841,F6,556.0,0.5,96,165.0
2842,F5,556.5,0.5,96,165.0
2843,F6,556.5,0.5,96,165.0
2844,B-3,556.5,0.5,80,165.0
2845,D4,556.5,0.5,80,165.0
2846,E-2,557.0,0.5,80,165.0
2847,F5,557.0,0.5,96,165.0
2848,F6,557.0,0.5,96,165.0
2849,E-5,557.5,0.5,96,165.0
2850,E-6,557.5,0.5,96,165.0
2851,E-3,557.5,0.5,80,165.0
2852,G3,557.5,0.5,80,165.0
2853,B-2,558.0,0.5,80,165.0
2854,D5,558.0,0.5,96,165.0
2855,D6,558.0,0.5,96,165.0
2856,E-5,558.5,0.5,96,165.0
2857,E-6,558.5,0.5,96,165.0
2858,G3,558.5,0.5,80,165.0
2859,E-3,558.5,0.5,80,165.0
2860,E-2,559.0,0.5,80,165.0
2861,F5,559.0,0.5,96,165.0
2862,F6,559.0,0.5,96,165.0
2863,F5,559.5,1.0,96,165.0
2864,F6,559.5,1.0,96,165.0
2865,G3,559.5,0.5,80,165.0
2866,E-3,559.5,0.5,80,165.0
2867,B-2,560.0,0.5,80,165.0
2868,F5,560.5,0.5,96,165.0
2869,F6,560.5,0.5,96,165.0
2870,G3,560.5,0.5,80,165.0
2871,E-3,560.5,0.5,80,165.0
2872,D2,561.0,0.5,80,165.0
2873,D6,561.5,0.5,96,165.0
2874,D7,561.5,0.5,96,165.0
2875,D3,561.5,0.5,80,165.0
2876,F3,561.5,0.5,80,165.0
2877,A2,562.0,0.5,80,165.0
2878,C6,562.0,0.5,96,165.0
2879,C7,562.0,0.5,96,165.0
2880,B-5,562.5,0.5,96,165.0
2881,B-6,562.5,0.5,96,165.0
2882,D3,562.5,0.5,80,165.0
2883,F3,562.5,0.5,80,165.0
2884,D2,563.0,0.5,80,165.0
2885,G5,563.5,0.5,96,165.0
2886,E-6,563.5,0.5,96,165.0
2887,G6,563.5,0.5,96,165.0
2888,D3,563.5,0.5,80,165.0
2889,F3,563.5,0.5,80,165.0
2890,A2,564.0,0.5,80,165.0
2891,G5,564.0,0.5,96,165.0
2892,G6,564.0,0.5,96,165.0
2893,E-6,564.0,0.5,96,165.0
2894,G5,564.5,0.5,96,165.0
2895,G6,564.5,0.5,96,165.0
2896,E-6,564.5,0.5,96,165.0
2897,D3,564.5,0.5,80,165.0
2898,F3,564.5,0.5,80,165.0
2899,C2,565.0,0.5,80,165.0
2900,G5,565.0,0.5,96,165.0
2901,G6,565.0,0.5,96,165.0
2902,E-6,565.0,0.5,96,165.0
2903,G5,565.5,0.5,96,165.0
2904,E-6,565.5,0.5,96,165.0
2905,G6,565.5,0.5,96,165.0
2906,G3,565.5,0.5,80,165.0
2907,E-3,565.5,0.5,80,165.0
2908,E-2,566.0,0.5,80,165.0
2909,A5,566.0,0.5,96,165.0
2910,A6,566.0,0.5,96,165.0
2911,B-5,566.5,0.5,96,165.0
2912,B-6,566.5,0.5,96,165.0
2913,G6,566.5,0.5,96,165.0
2914,E-6,566.5,0.5,96,165.0
2915,G3,566.5,0.5,80,165.0
2916,E-3,566.5,0.5,80,165.0
2917,G2,567.0,0.5,80,165.0
2918,F5,567.5,0.5,96,165.0
2919,F6,567.5,0.5,96,165.0
2920,D6,567.5,0.5,96,165.0
2921,G3,567.5,0.5,80,165.0
2922,E-3,567.5,0.5,80,165.0
2923,C3,568.0,0.5,80,165.0
2924,F5,568.0,0.5,96,165.0
2925,D6,568.0,0.5,96,165.0
2926,F6,568.0,0.5,96,165.0
2927,F5,568.5,0.5,96,165.0
2928,D6,568.5,0.5,96,165.0
2929,F6,568.5,0.5,96,165.0
2930,G3,568.5,0.5,80,165.0
2931,E-3,568.5,0.5,80,165.0
2932,D5,569.0,1.0,96,165.0
2933,D6,569.0,1.0,96,165.0
2934,F1,569.0,1.0,80,165.0
2935,F2,569.0,1.0,80,165.0
2936,F5,570.0,1.0,96,165.0
2937,D6,570.0,1.0,96,165.0
2938,F6,570.0,1.0,96,165.0
2939,G1,570.0,0.5,80,165.0
2940,G2,570.0,0.5,80,165.0
2941,A1,570.5,0.5,80,165.0
2942,A2,570.5,0.5,80,165.0
2943,E-5,571.0,1.0,96,165.0
2944,E-6,571.0,1.0,96,165.0
2945,B-1,571.0,0.5,80,165.0
2946,B-2,571.0,0.5,80,165.0
2947,C3,571.5,0.5,80,165.0
2948,C2,571.5,0.5,80,165.0
2949,D5,572.0,1.0,96,165.0
2950,D6,572.0,1.0,96,165.0
2951,D2,572.0,0.5,80,165.0
2952,D3,572.0,0.5,80,165.0
2953,E-3,572.5,0.5,80,165.0
2954,E-2,572.5,0.5,80,165.0
2955,B-1,573.0,0.5,80,165.0
2956,E-5,573.0,1.0,96,165.0
2957,E-6,573.0,1.0,96,165.0
2958,D3,573.5,0.5,80,165.0
2959,B-2,573.5,0.5,80,165.0
2960,D2,574.0,0.5,80,165.0
2961,F5,574.0,1.0,96,165.0
2962,F6,574.0,1.0,96,165.0
2963,D3,574.5,0.5,80,165.0
2964,B-2,574.5,0.5,80,165.0
2965,F2,575.0,0.5,80,165.0
2966,D5,575.0,0.5,96,165.0
2967,D6,575.0,0.5,96,165.0
2968,C5,575.5,0.5,96,165.0
2969,C6,575.5,0.5,96,165.0
2970,D3,575.5,0.5,80,165.0
2971,B-2,575.5,0.5,80,165.0
2972,B-1,576.0,0.5,80,165.0
2973,D5,576.0,0.5,96,165.0
2974,D6,576.0,0.5,96,165.0
2975,C5,576.5,1.0,96,165.0
2976,C6,576.5,1.0,96,165.0
2977,F5,576.5,1.0,96,165.0
2978,D3,576.5,0.5,80,165.0
2979,B-2,576.5,0.5,80,165.0
2980,A1,577.0,0.5,80,165.0
2981,C5,577.5,0.5,96,165.0
2982,C6,577.5,0.5,96,165.0
2983,A2,577.5,0.5,80,165.0
2984,C3,577.5,0.5,80,165.0
2985,F2,578.0,0.5,80,165.0
2986,D5,578.0,0.5,96,165.0
2987,D6,578.0,0.5,96,165.0
2988,E-5,578.5,0.5,96,165.0
2989,E-6,578.5,0.5,96,165.0
2990,A2,578.5,0.5,80,165.0
2991,C3,578.5,0.5,80,165.0
2992,D2,579.0,0.5,80,165.0
2993,F5,579.0,0.5,96,165.0
2994,F6,579.0,0.5,96,165.0
2995,F5,579.5,0.5,96,165.0
2996,F6,579.5,0.5,96,165.0
2997,A3,579.5,0.5,80,165.0
2998,F#3,579.5,0.5,80,165.0
2999,F#2,580.0,0.5,80,165.0
3000,F5,580.0,0.5,96,165.0
3001,F6,580.0,0.5,96,165.0
3002,F5,580.5,0.5,96,165.0
3003,F6,580.5,0.5,96,165.0
3004,A3,580.5,0.5,80,165.0
3005,F#3,580.5,0.5,80,165.0
3006,G2,581.0,0.5,80,165.0
3007,F5,581.0,0.5,96,165.0
3008,F6,581.0,0.5,96,165.0
3009,E-5,581.5,0.5,96,165.0
3010,E-6,581.5,0.5,96,165.0
3011,B-3,581.5,0.5,80,165.0
3012,D4,581.5,0.5,80,165.0
3013,B-2,582.0,0.5,80,165.0
3014,D5,582.0,0.5,96,165.0
3015,D6,582.0,0.5,96,165.0
3016,E-5,582.5,0.5,96,165.0
3017,E-6,582.5,0.5,96,165.0
3018,B-3,582.5,0.5,80,165.0
3019,D4,582.5,0.5,80,165.0
3020,D3,583.0,0.5,80,165.0
3021,F5,583.0,0.5,96,165.0
3022,F6,583.0,0.5,96,165.0
3023,F5,583.5,0.5,96,165.0
3024,F6,583.5,0.5,96,165.0
3025,B-3,583.5,0.5,80,165.0
3026,D4,583.5,0.5,80,165.0
3027,G3,584.0,0.5,80,165.0
3028,F5,584.0,0.5,96,165.0
3029,F6,584.0,0.5,96,165.0
3030,F5,584.5,0.5,96,165.0
3031,F6,584.5,0.5,96,165.0
3032,B-3,584.5,0.5,80,165.0
3033,D4,584.5,0.5,80,165.0
3034,F2,585.0,0.5,80,165.0
3035,B-5,585.5,0.5,96,165.0
3036,B-6,585.5,0.5,96,165.0
3037,C4,585.5,0.5,80,165.0
3038,G#3,585.5,0.5,80,165.0
3039,G#2,586.0,0.5,80,165.0
3040,A5,586.0,0.5,96,165.0
3041,A6,586.0,0.5,96,165.0
3042,B-6,586.5,0.5,96,165.0
3043,B-5,586.5,0.5,96,165.0
3044,C4,586.5,0.5,80,165.0
3045,G#3,586.5,0.5,80,165.0
3046,B-2,587.0,0.5,80,165.0
3047,F6,587.5,0.5,96,165.0
3048,F5,587.5,0.5,96,165.0
3049,B-3,587.5,0.5,80,165.0
3050,D4,587.5,0.5,80,165.0
3051,F3,588.0,0.5,80,165.0
3052,F6,588.0,0.5,96,165.0
3053,F5,588.0,0.5,96,165.0
3054,F6,588.5,0.5,96,165.0
3055,F5,588.5,0.5,96,165.0
3056,B-3,588.5,0.5,80,165.0
3057,D4,588.5,0.5,80,165.0
3058,E-2,589.0,0.5,80,165.0
3059,F6,589.0,0.5,96,165.0
3060,F5,589.0,0.5,96,165.0
3061,E-6,589.5,0.5,96,165.0
3062,E-5,589.5,0.5,96,165.0
3063,G3,589.5,0.5,80,165.0
3064,E-3,589.5,0.5,80,165.0
3065,B-2,590.0,0.5,80,165.0
3066,D5,590.0,0.5,96,165.0
3067,D6,590.0,0.5,96,165.0
3068,E-5,590.5,0.5,96,165.0
3069,E-6,590.5,0.5,96,165.0
3070,G3,590.5,0.5,80,165.0
3071,E-3,590.5,0.5,80,165.0
3072,E-2,591.0,0.5,80,165.0
3073,F5,591.0,0.5,96,165.0
3074,C6,591.0,0.5,96,165.0
3075,F6,591.0,0.5,96,165.0
3076,F5,591.5,0.5,96,165.0
3077,F6,591.5,0.5,96,165.0
3078,G3,591.5,0.5,80,165.0
3079,E-3,591.5,0.5,80,165.0
3080,B-2,592.0,0.5,80,165.0
3081,F5,592.0,0.5,96,165.0
3082,F6,592.0,0.5,96,165.0
3083,F5,592.5,0.5,96,165.0
3084,F6,592.5,0.5,96,165.0
3085,G3,592.5,0.5,80,165.0
3086,E-3,592.5,0.5,80,165.0
3087,D2,593.0,0.5,80,165.0
3088,D6,593.5,0.5,96,165.0
3089,D7,593.5,0.5,96,165.0
3090,F3,593.5,0.5,80,165.0
3091,D3,593.5,0.5,80,165.0
3092,A2,594.0,0.5,80,165.0
3093,C6,594.0,0.5,96,165.0
3094,C7,594.0,0.5,96,165.0
3095,B-5,594.5,0.5,96,165.0
3096,B-6,594.5,0.5,96,165.0
3097,F3,594.5,0.5,80,165.0
3098,D3,594.5,0.5,80,165.0
3099,D2,595.0,0.5,80,165.0
3100,G5,595.5,0.5,96,165.0
3101,E-6,595.5,0.5,96,165.0
3102,G6,595.5,0.5,96,165.0
3103,F3,595.5,0.5,80,165.0
3104,D3,595.5,0.5,80,165.0
3105,A2,596.0,0.5,80,165.0
3106,G5,596.0,0.5,96,165.0
3107,E-6,596.0,0.5,96,165.0
3108,G6,596.0,0.5,96,165.0
3109,G5,596.5,0.5,96,165.0
3110,G6,596.5,0.5,96,165.0
3111,E-6,596.5,0.5,96,165.0
3112,F3,596.5,0.5,80,165.0
3113,D3,596.5,0.5,80,165.0
3114,C2,597.0,0.5,80,165.0
3115,G5,597.0,0.5,96,165.0
3116,G6,597.0,0.5,96,165.0
3117,E-6,597.0,0.5,96,165.0
3118,G5,597.5,0.5,96,165.0
3119,G6,597.5,0.5,96,165.0
3120,E-6,597.5,0.5,96,165.0
3121,G3,597.5,0.5,80,165.0
3122,E-3,597.5,0.5,80,165.0
3123,E-2,598.0,0.5,80,165.0
3124,A5,598.0,0.5,96,165.0
3125,A6,598.0,0.5,96,165.0
3126,B-5,598.5,0.5,96,165.0
3127,B-6,598.5,0.5,96,165.0
3128,G6,598.5,0.5,96,165.0
3129,E-6,598.5,0.5,96,165.0
3130,G3,598.5,0.5,80,165.0
3131,E-3,598.5,0.5,80,165.0
3132,G2,599.0,0.5,80,165.0
3133,F5,599.5,0.5,96,165.0
3134,D6,599.5,0.5,96,165.0
3135,F6,599.5,0.5,96,165.0
3136,G3,599.5,0.5,80,165.0
3137,E-3,599.5,0.5,80,165.0
3138,C3,600.0,0.5,80,165.0
3139,F5,600.0,0.5,96,165.0
3140,F6,600.0,0.5,96,165.0
3141,D6,600.0,0.5,96,165.0
3142,F5,600.5,0.5,96,165.0
3143,D6,600.5,0.5,96,165.0
3144,F6,600.5,0.5,96,165.0
3145,G3,600.5,0.5,80,165.0
3146,E-3,600.5,0.5,80,165.0
3147,F2,601.0,0.5,80,165.0
3148,D6,601.0,1.0,96,165.0
3149,D5,601.0,1.0,96,165.0
3150,F3,601.5,0.5,80,165.0
3151,A3,601.5,0.5,80,165.0
3152,C3,602.0,0.5,80,165.0
3153,F5,602.0,1.0,96,165.0
3154,D6,602.0,1.0,96,165.0
3155,F6,602.0,1.0,96,165.0
3156,F3,602.5,0.5,80,165.0
3157,A3,602.5,0.5,80,165.0
3158,F2,603.0,0.5,80,165.0
3159,E-5,603.0,2.0,96,165.0
3160,E-6,603.0,2.0,96,165.0
3161,C6,603.0,2.0,96,165.0
3162,F3,603.5,0.5,80,165.0
3163,A3,603.5,0.5,80,165.0
3164,C3,604.0,0.5,80,165.0
3165,F3,604.5,0.5,80,165.0
3166,A3,604.5,0.5,80,165.0
3167,E-2,605.0,0.5,80,165.0
3168,F5,605.0,1.5,96,165.0
3169,F6,605.0,1.5,96,165.0
3170,C6,605.0,1.5,96,165.0
3171,G3,605.5,0.5,80,165.0
3172,E-3,605.5,0.5,80,165.0
3173,B-2,606.0,0.5,80,165.0
3174,F5,606.5,0.5,96,165.0
3175,F6,606.5,0.5,96,165.0
3176,G3,606.5,0.5,80,165.0
3177,E-3,606.5,0.5,80,165.0
3178,E-2,607.0,0.5,80,165.0
3179,B-5,607.0,1.0,96,165.0
3180,F6,607.0,1.0,96,165.0
3181,B-6,607.0,1.0,96,165.0
3182,G3,607.5,0.5,80,165.0
3183,E-3,607.5,0.5,80,165.0
3184,B-2,608.0,0.5,80,165.0
3185,A5,608.0,1.0,96,165.0
3186,F6,608.0,1.0,96,165.0
3187,A6,608.0,1.0,96,165.0
3188,G3,608.5,0.5,80,165.0
3189,E-3,608.5,0.5,80,165.0
3190,F2,609.0,0.5,80,165.0
3191,G5,609.0,1.0,96,165.0
3192,G6,609.0,1.0,96,165.0
3193,F3,609.5,0.5,80,165.0
3194,A3,609.5,0.5,80,165.0
3195,C3,610.0,0.5,80,165.0
3196,A5,610.0,0.5,96,165.0
3197,A6,610.0,0.5,96,165.0
3198,F6,610.0,0.5,96,165.0
3199,A5,610.5,0.5,96,165.0
3200,F6,610.5,0.5,96,165.0
3201,A6,610.5,0.5,96,165.0
3202,F3,610.5,0.5,80,165.0
3203,A3,610.5,0.5,80,165.0
3204,F2,611.0,0.5,80,165.0
3205,A5,611.0,1.5,96,165.0
3206,A6,611.0,1.5,96,165.0
3207,E-6,611.0,1.5,96,165.0
3208,F3,611.5,0.5,80,165.0
3209,A3,611.5,0.5,80,165.0
3210,C3,612.0,0.5,80,165.0
3211,B-5,612.5,0.5,96,165.0
3212,E-6,612.5,0.5,96,165.0
3213,B-6,612.5,0.5,96,165.0
3214,F3,612.5,0.5,80,165.0
3215,A3,612.5,0.5,80,165.0
3216,D2,613.0,0.5,80,165.0
3217,B-5,613.0,1.5,96,165.0
3218,E-6,613.0,1.5,96,165.0
3219,B-6,613.0,1.5,96,165.0
3220,F3,613.5,0.5,80,165.0
3221,D3,613.5,0.5,80,165.0
3222,A2,614.0,0.5,80,165.0
3223,F5,614.5,0.5,96,165.0
3224,F6,614.5,0.5,96,165.0
3225,F3,614.5,0.5,80,165.0
3226,D3,614.5,0.5,80,165.0
3227,D2,615.0,0.5,80,165.0
3228,B-5,615.0,1.0,96,165.0
3229,B-6,615.0,1.0,96,165.0
3230,F6,615.0,1.0,96,165.0
3231,F3,615.5,0.5,80,165.0
3232,D3,615.5,0.5,80,165.0
3233,A2,616.0,0.5,80,165.0
3234,A5,616.0,1.0,96,165.0
3235,F6,616.0,1.0,96,165.0
3236,A6,616.0,1.0,96,165.0
3237,F3,616.5,0.5,80,165.0
3238,D3,616.5,0.5,80,165.0
3239,G2,617.0,0.5,80,165.0
3240,G5,617.0,1.0,96,165.0
3241,G6,617.0,1.0,96,165.0
3242,B-3,617.5,0.5,80,165.0
3243,D4,617.5,0.5,80,165.0
3244,B-2,618.0,0.5,80,165.0
3245,A5,618.0,0.5,96,165.0
3246,A6,618.0,0.5,96,165.0
3247,F6,618.0,0.5,96,165.0
3248,A6,618.5,0.5,96,165.0
3249,F6,618.5,0.5,96,165.0
3250,A5,618.5,0.5,96,165.0
3251,B-3,618.5,0.5,80,165.0
3252,D4,618.5,0.5,80,165.0
3253,D3,619.0,0.5,80,165.0
3254,F6,619.0,1.5,96,165.0
3255,A6,619.0,1.5,96,165.0
3256,A5,619.0,1.5,96,165.0
3257,B-3,619.5,0.5,80,165.0
3258,D4,619.5,0.5,80,165.0
3259,G3,620.0,0.5,80,165.0
3260,F6,620.5,0.5,96,165.0
3261,B-6,620.5,0.5,96,165.0
3262,B-5,620.5,0.5,96,165.0
3263,B-3,620.5,0.5,80,165.0
3264,D4,620.5,0.5,80,165.0
3265,C2,621.0,0.5,80,165.0
3266,F6,621.0,1.0,96,165.0
3267,B-6,621.0,1.0,96,165.0
3268,B-5,621.0,1.0,96,165.0
3269,G3,621.5,0.5,80,165.0
3270,E-3,621.5,0.5,80,165.0
3271,E-2,622.0,0.5,80,165.0
3272,C7,622.0,0.5,96,165.0
3273,C6,622.0,0.5,96,165.0
3274,A6,622.5,0.5,96,165.0
3275,A5,622.5,0.5,96,165.0
3276,G3,622.5,0.5,80,165.0
3277,E-3,622.5,0.5,80,165.0
3278,G2,623.0,0.5,80,165.0
3279,B-6,623.0,3.0,96,165.0
3280,G6,623.0,3.0,96,165.0
3281,D6,623.0,3.0,96,165.0
3282,B-5,623.0,3.0,96,165.0
3283,G3,623.5,0.5,80,165.0
3284,E-3,623.5,0.5,80,165.0
3285,C3,624.0,0.5,80,165.0
3286,G3,624.5,0.5,80,165.0
3287,E-3,624.5,0.5,80,165.0
3288,F2,625.0,0.5,80,165.0
3289,F3,625.5,0.5,80,165.0
3290,A3,625.5,0.5,80,165.0
3291,C3,626.0,0.5,80,165.0
3292,F3,626.5,0.5,80,165.0
3293,A3,626.5,0.5,80,165.0
3294,F2,627.0,0.5,80,165.0
3295,A5,627.0,1.5,96,165.0
3296,E-6,627.0,1.5,96,165.0
3297,A6,627.0,1.5,96,165.0
3298,A3,627.5,0.5,80,165.0
3299,F3,627.5,0.5,80,165.0
3300,C3,628.0,0.5,80,165.0
3301,B-5,628.5,0.5,96,165.0
3302,E-6,628.5,0.5,96,165.0
3303,B-6,628.5,0.5,96,165.0
3304,A3,628.5,0.5,80,165.0
3305,F3,628.5,0.5,80,165.0
3306,B-2,629.0,0.5,80,165.0
3307,B-5,629.0,1.5,96,165.0
3308,B-6,629.0,1.5,96,165.0
3309,E-6,629.0,1.5,96,165.0
3310,D4,629.5,0.5,80,165.0
3311,B-3,629.5,0.5,80,165.0
3312,F3,630.0,0.5,80,165.0
3313,F5,630.5,0.5,96,165.0
3314,F6,630.5,0.5,96,165.0
3315,D4,630.5,0.5,80,165.0
3316,B-3,630.5,0.5,80,165.0
3317,B-2,631.0,0.5,80,165.0
3318,B-5,631.0,1.0,96,165.0
3319,B-6,631.0,1.0,96,165.0
3320,F6,631.0,1.0,96,165.0
3321,D4,631.5,0.5,80,165.0
3322,B-3,631.5,0.5,80,165.0
3323,F3,632.0,0.5,80,165.0
3324,A5,632.0,1.0,96,165.0
3325,F6,632.0,1.0,96,165.0
3326,A6,632.0,1.0,96,165.0
3327,B-1,632.5,0.5,80,165.0
3328,B-2,632.5,0.5,80,165.0
3329,G5,633.0,1.0,96,165.0
3330,G6,633.0,1.0,96,165.0
3331,A5,634.0,1.0,96,165.0
3332,A6,634.0,1.0,96,165.0
3333,F6,634.0,1.0,96,165.0
3334,A5,635.0,1.5,96,165.0
3335,A6,635.0,1.5,96,165.0
3336,F6,635.0,1.5,96,165.0
3337,B-1,635.0,2.0,80,165.0
3338,B-2,635.0,2.0,80,165.0
3339,B-5,636.5,0.5,96,165.0
3340,F6,636.5,0.5,96,165.0
3341,B-6,636.5,0.5,96,165.0
3342,B-5,637.0,1.5,96,165.0
3343,F6,637.0,1.5,96,165.0
3344,B-6,637.0,1.5,96,165.0
3345,C5,638.5,0.5,96,165.0
3346,A4,638.5,0.5,96,165.0
3347,D4,638.5,0.5,96,165.0
3348,F4,638.5,0.5,96,165.0
3349,C5,640.75,1.75,96,165.0
3350,A4,640.75,1.75,96,165.0
3351,D4,640.75,1.75,96,165.0
3352,F4,640.75,1.75,96,165.0
