,note_name,start_time,duration,velocity,tempo
0,B-2,0.0,0.5,50,88.0
1,C3,0.5,0.25,60,88.0
2,E-3,0.624,31/125,60,88.0
3,B-3,0.75,31/125,50,88.0
4,C4,0.874,31/125,60,88.0
5,E-4,1.0,31/125,60,88.0
6,B-4,1.124,31/125,50,88.0
7,C5,1.25,31/125,60,88.0
8,E-5,1.374,31/125,60,88.0
9,B-5,1.5,2.5,60,88.0
10,B-3,4.0,0.5,70,88.0
11,G#3,4.0,4.0,50,88.0
12,E-4,4.5,0.5,70,88.0
13,B-3,5.0,0.5,70,88.0
14,B-4,5.5,2.5,70,88.0
15,B-3,7.0,0.5,70,88.0
16,G#3,7.5,0.5,70,88.0
17,B-3,8.0,0.5,70,88.0
18,G#3,8.0,4.0,50,88.0
19,G#3,8.5,0.5,70,88.0
20,G5,9.0,0.5,70,88.0
21,F5,9.5,0.5,70,88.0
22,E-5,10.0,0.5,70,88.0
23,D5,10.25,0.5,70,88.0
24,E-5,10.5,0.5,70,88.0
25,D5,10.75,0.5,70,88.0
26,B-4,11.0,0.5,70,88.0
27,G#4,11.5,0.5,70,88.0
28,E-4,12.0,0.5,70,88.0
29,E-3,12.0,4.0,50,88.0
30,D4,12.5,31/250,70,88.0
31,E-4,12.624,63/500,70,88.0
32,D4,12.75,0.25,70,88.0
33,B-3,13.0,0.5,70,88.0
34,B-4,13.5,1.5,70,88.0
35,B-3,15.0,0.5,70,88.0
36,E-3,15.5,0.5,70,88.0
37,B-3,16.0,0.5,70,88.0
38,E-3,16.0,4.0,50,88.0
39,G5,16.5,1.5,70,88.0
40,B-3,18.0,0.25,70,88.0
41,E-4,18.25,0.25,70,88.0
42,F4,18.5,0.25,70,88.0
43,B-4,18.75,0.25,70,88.0
44,E-4,19.0,0.5,70,88.0
45,B-3,19.5,0.5,70,88.0
46,G#3,20.0,4.0,50,88.0
47,E-4,20.0,1.5,70,88.0
48,B-4,20.0,1.5,70,88.0
49,C4,20.0,1.5,70,88.0
50,E-4,21.5,2.5,70,88.0
51,C4,21.5,2.5,70,88.0
52,B-3,21.5,2.5,70,88.0
53,B-4,24.0,0.5,70,88.0
54,G#3,24.0,4.0,50,88.0
55,E-4,24.5,0.25,70,88.0
56,C5,24.75,0.75,70,88.0
57,B-4,25.25,0.75,70,88.0
58,E-4,25.5,0.5,70,88.0
59,B-3,26.0,0.5,70,88.0
60,C4,26.25,0.5,70,88.0
61,E-4,26.5,0.5,70,88.0
62,B-3,27.0,0.5,70,88.0
63,G#3,27.5,0.5,70,88.0
64,E-4,28.0,0.5,70,88.0
65,E-3,28.0,4.0,50,88.0
66,D4,28.5,31/250,70,88.0
67,E-4,28.624,63/500,70,88.0
68,D4,28.75,0.25,70,88.0
69,B-3,29.0,0.5,70,88.0
70,B-4,29.5,1.5,70,88.0
71,E-5,31.0,0.5,70,88.0
72,F5,31.25,0.5,70,88.0
73,G5,31.5,0.5,70,88.0
74,B-5,31.75,0.25,70,88.0
75,G5,32.0,0.5,70,88.0
76,B-5,32.0,0.25,70,88.0
77,E-3,32.0,3.0,50,88.0
78,F5,32.25,0.5,70,88.0
79,E-5,32.5,0.5,70,88.0
80,C5,32.75,0.5,70,88.0
81,B-4,33.0,2.0,70,88.0
82,B-5,36.0,0.75,62,88.0
83,C3,36.0,2.0,50,88.0
84,C5,36.0,1.0,49,88.0
85,E-5,36.0,1.0,49,88.0
86,G3,36.5,0.5,50,88.0
87,B-5,36.75,0.25,62,88.0
88,E-4,36.75,1.25,50,88.0
89,B-5,37.0,0.5,62,88.0
90,E-5,37.0,1.0,49,88.0
91,C5,37.0,1.0,49,88.0
92,B-5,37.5,0.25,62,88.0
93,B-3,37.5,0.5,50,88.0
94,B-5,37.75,0.25,62,88.0
95,G#3,38.0,2.0,50,88.0
96,B-5,38.0,0.5,53,88.0
97,E-5,38.0,0.5,53,88.0
98,C5,38.0,0.5,53,88.0
99,G5,38.5,0.5,62,88.0
100,C4,38.5,0.5,50,88.0
101,E-4,38.75,0.75,50,88.0
102,F5,39.0,0.5,56,88.0
103,C5,39.0,0.5,56,88.0
104,F5,39.5,0.25,62,88.0
105,B-3,39.5,0.5,50,88.0
106,E-5,39.75,0.25,62,88.0
107,G5,40.0,2.5,62,88.0
108,E-3,40.0,2.0,50,88.0
109,E-5,40.0,0.5,49,88.0
110,B-4,40.0,0.5,49,88.0
111,G3,40.5,0.5,50,88.0
112,E-4,40.75,1.25,50,88.0
113,E-5,41.0,0.5,49,88.0
114,B-4,41.0,0.5,49,88.0
115,B-3,41.5,0.5,50,88.0
116,B-4,42.0,0.5,49,88.0
117,E-3,42.0,2.0,50,88.0
118,E-5,42.5,0.25,62,88.0
119,B-3,42.5,0.5,50,88.0
120,E-6,42.75,0.25,62,88.0
121,B-4,42.75,1.25,50,88.0
122,D6,43.0,0.25,62,88.0
123,E-6,43.25,0.5,62,88.0
124,E-4,43.5,0.5,50,88.0
125,E-5,43.75,0.25,62,88.0
126,B-5,44.0,0.75,62,88.0
127,C3,44.0,2.0,50,88.0
128,E-5,44.0,1.0,49,88.0
129,C5,44.0,1.0,49,88.0
130,G3,44.5,0.5,50,88.0
131,B-5,44.75,0.25,62,88.0
132,E-4,44.75,1.25,50,88.0
133,B-5,45.0,0.75,62,88.0
134,C5,45.0,1.0,49,88.0
135,E-5,45.0,1.0,49,88.0
136,B-3,45.5,0.5,50,88.0
137,B-5,45.75,0.25,62,88.0
138,G#3,46.0,2.0,50,88.0
139,E-6,46.0,0.5,53,88.0
140,G#5,46.0,0.5,53,88.0
141,E-5,46.0,0.5,53,88.0
142,D6,46.5,0.25,62,88.0
143,C4,46.5,0.5,50,88.0
144,C6,46.75,0.25,62,88.0
145,E-4,46.75,0.75,50,88.0
146,B-5,47.0,0.5,56,88.0
147,E-5,47.0,0.5,56,88.0
148,B-5,47.5,0.25,62,88.0
149,B-3,47.5,0.5,50,88.0
150,C6,47.75,0.25,62,88.0
151,B-5,48.0,1.0,62,88.0
152,E-3,48.0,2.0,50,88.0
153,B-4,48.0,0.5,49,88.0
154,E-5,48.0,0.5,49,88.0
155,G3,48.5,0.5,50,88.0
156,E-4,48.75,1.25,50,88.0
157,G5,49.0,83/250,62,88.0
158,B-4,49.0,0.5,49,88.0
159,E-5,49.0,0.5,49,88.0
160,G#5,49.332,167/500,62,88.0
161,B-3,49.5,0.5,50,88.0
162,G5,49.666,167/500,62,88.0
163,F5,50.0,937/500,62,88.0
164,D3,50.0,2.0,50,88.0
165,B-4,50.0,0.5,49,88.0
166,D5,50.0,0.5,49,88.0
167,B-3,50.5,0.5,50,88.0
168,B-4,50.75,1.25,50,88.0
169,D5,51.0,0.5,49,88.0
170,F4,51.5,0.5,50,88.0
171,E-5,51.75,31/125,62,88.0
172,B-5,52.0,0.75,62,88.0
173,C3,52.0,2.0,50,88.0
174,E-5,52.0,1.0,49,88.0
175,C5,52.0,1.0,49,88.0
176,G3,52.5,0.5,50,88.0
177,G5,52.75,0.25,62,88.0
178,E-4,52.75,1.25,50,88.0
179,B-5,53.0,0.75,62,88.0
180,C5,53.0,1.0,49,88.0
181,E-5,53.0,1.0,49,88.0
182,B-3,53.5,0.5,50,88.0
183,G5,53.75,0.25,62,88.0
184,G#3,54.0,2.0,50,88.0
185,C5,54.0,0.5,53,88.0
186,E-5,54.0,0.5,53,88.0
187,B-5,54.0,0.5,53,88.0
188,G5,54.5,0.5,62,88.0
189,C4,54.5,0.5,50,88.0
190,E-4,54.75,0.75,50,88.0
191,C5,55.0,0.5,56,88.0
192,F5,55.0,0.5,56,88.0
193,F5,55.5,0.25,62,88.0
194,B-3,55.5,0.5,50,88.0
195,E-5,55.75,0.25,62,88.0
196,G5,56.0,2.5,62,88.0
197,E-3,56.0,2.0,50,88.0
198,B-4,56.0,0.5,49,88.0
199,E-5,56.0,0.5,49,88.0
200,G3,56.5,0.5,50,88.0
201,E-4,56.75,1.25,50,88.0
202,B-4,57.0,0.5,49,88.0
203,E-5,57.0,0.5,49,88.0
204,B-3,57.5,0.5,50,88.0
205,E-3,58.0,1.0,50,88.0
206,B-4,58.0,0.5,49,88.0
207,E-5,58.0,0.5,49,88.0
208,E-4,58.5,0.5,50,88.0
209,B-3,58.5,0.5,50,88.0
210,D3,59.0,1.0,50,88.0
211,C5,59.0,0.25,62,88.0
212,E-5,59.0,0.25,62,88.0
213,D5,59.25,0.25,62,88.0
214,F5,59.25,0.25,62,88.0
215,E-5,59.5,0.25,62,88.0
216,G5,59.5,0.25,62,88.0
217,D4,59.5,0.5,50,88.0
218,B-3,59.5,0.5,50,88.0
219,F5,59.75,0.25,62,88.0
220,D5,59.75,0.25,62,88.0
221,F5,60.0,0.5,62,88.0
222,C3,60.0,2.0,50,88.0
223,G3,60.5,0.5,50,88.0
224,C5,60.5,0.25,56,88.0
225,E-5,60.5,0.25,56,88.0
226,C5,60.75,0.5,62,88.0
227,E-4,60.75,1.25,50,88.0
228,E-5,61.0,0.25,62,88.0
229,C5,61.25,0.5,56,88.0
230,E-5,61.25,0.5,56,88.0
231,B-3,61.5,0.5,50,88.0
232,C5,61.75,0.25,62,88.0
233,G#3,62.0,2.0,50,88.0
234,C5,62.0,1.0,56,88.0
235,E-5,62.0,1.0,56,88.0
236,C4,62.5,0.5,50,88.0
237,E-4,62.75,0.75,50,88.0
238,C5,63.0,0.25,62,88.0
239,E-5,63.0,0.25,62,88.0
240,D5,63.25,0.25,62,88.0
241,F5,63.25,0.25,62,88.0
242,B-3,63.5,0.5,50,88.0
243,E-5,63.5,0.25,62,88.0
244,G5,63.5,0.25,62,88.0
245,F5,63.75,0.25,62,88.0
246,D5,63.75,0.25,62,88.0
247,F5,64.0,0.5,62,88.0
248,E-3,64.0,2.0,50,88.0
249,E-5,64.5,0.25,62,88.0
250,G3,64.5,0.5,50,88.0
251,C5,64.75,0.5,62,88.0
252,E-4,64.75,1.25,50,88.0
253,E-5,65.0,0.5,62,88.0
254,E-5,65.5,0.25,62,88.0
255,B-3,65.5,0.5,50,88.0
256,D5,65.75,1.25,62,88.0
257,F5,65.75,1.25,62,88.0
258,B-2,66.0,2.0,50,88.0
259,F3,66.5,0.5,50,88.0
260,D4,66.75,0.75,50,88.0
261,E-5,67.0,0.25,62,88.0
262,C5,67.0,0.25,62,88.0
263,F5,67.25,0.25,62,88.0
264,D5,67.25,0.25,62,88.0
265,B-3,67.5,0.5,50,88.0
266,G5,67.5,0.25,62,88.0
267,E-5,67.5,0.25,62,88.0
268,F5,67.75,0.25,62,88.0
269,D5,67.75,0.25,62,88.0
270,F5,68.0,0.5,62,88.0
271,D5,68.0,0.25,62,88.0
272,C3,68.0,2.0,50,88.0
273,G3,68.5,0.5,50,88.0
274,E-5,68.5,0.25,56,88.0
275,C5,68.5,0.25,56,88.0
276,C5,68.75,0.5,62,88.0
277,E-4,68.75,1.25,50,88.0
278,E-5,69.0,0.25,62,88.0
279,E-5,69.25,0.5,56,88.0
280,C5,69.25,0.5,56,88.0
281,B-3,69.5,0.5,50,88.0
282,C5,69.75,0.25,62,88.0
283,G#3,70.0,2.0,50,88.0
284,E-5,70.0,1.0,56,88.0
285,C5,70.0,1.0,56,88.0
286,C4,70.5,0.5,50,88.0
287,E-4,70.75,0.75,50,88.0
288,E-5,71.0,0.25,62,88.0
289,C5,71.0,0.25,62,88.0
290,F5,71.25,0.25,62,88.0
291,D5,71.25,0.25,62,88.0
292,B-3,71.5,0.5,50,88.0
293,G5,71.5,0.25,62,88.0
294,E-5,71.5,0.25,62,88.0
295,F5,71.75,0.25,62,88.0
296,D5,71.75,0.25,62,88.0
297,E-3,72.0,2.0,50,88.0
298,F5,72.0,1.0,62,88.0
299,D5,72.0,1.0,62,88.0
300,G3,72.5,0.5,50,88.0
301,E-4,72.75,1.25,50,88.0
302,B-5,73.0,0.5,62,88.0
303,E-5,73.0,0.5,62,88.0
304,E-5,73.5,0.5,62,88.0
305,B-3,73.5,0.5,50,88.0
306,F5,73.75,1.25,62,88.0
307,D5,73.75,1.25,62,88.0
308,B-2,74.0,1.5,50,88.0
309,F3,74.5,0.5,50,88.0
310,D4,74.75,0.75,50,88.0
311,E-5,75.25,0.25,82,88.0
312,F5,75.5,0.25,82,88.0
313,B-1,75.5,0.5,50,88.0
314,B-2,75.5,0.5,50,88.0
315,E-5,75.75,0.25,82,88.0
316,E-4,76.0,0.25,95,88.0
317,G#2,76.0,0.25,70,88.0
318,G#1,76.0,0.25,70,88.0
319,B-4,76.25,0.25,95,88.0
320,G#2,76.25,0.5,70,88.0
321,E-5,76.5,0.25,95,88.0
322,G#3,76.5,0.25,70,88.0
323,E-3,76.5,0.25,70,88.0
324,G#4,76.75,0.25,95,88.0
325,G#2,76.75,0.5,70,88.0
326,B-4,77.0,0.25,95,88.0
327,G#3,77.0,0.25,70,88.0
328,E-3,77.0,0.25,70,88.0
329,E-5,77.25,0.25,95,88.0
330,G#2,77.25,0.5,70,88.0
331,B-4,77.5,0.25,95,88.0
332,G#3,77.5,0.25,70,88.0
333,E-3,77.5,0.25,70,88.0
334,G#4,77.75,0.25,95,88.0
335,G#2,77.75,0.5,70,88.0
336,G4,78.0,31/250,95,88.0
337,G#3,78.0,0.25,70,88.0
338,E-3,78.0,0.25,70,88.0
339,G#4,78.124,31/250,95,88.0
340,G4,78.25,0.25,95,88.0
341,G#2,78.25,0.5,70,88.0
342,G#4,78.5,0.25,95,88.0
343,G#3,78.5,0.25,70,88.0
344,E-3,78.5,0.25,70,88.0
345,G4,78.75,0.25,95,88.0
346,G#2,78.75,0.5,70,88.0
347,F4,79.0,0.25,95,88.0
348,E-3,79.0,0.25,70,88.0
349,G#3,79.0,0.25,70,88.0
350,G4,79.25,0.25,95,88.0
351,G#2,79.25,0.5,70,88.0
352,E-5,79.5,0.25,95,88.0
353,E-3,79.5,0.25,70,88.0
354,G#3,79.5,0.25,70,88.0
355,G4,79.75,0.25,95,88.0
356,C3,79.75,0.25,70,88.0
357,C2,79.75,0.25,70,88.0
358,B-4,80.0,0.5,95,88.0
359,C2,80.0,0.25,70,88.0
360,C3,80.0,0.25,70,88.0
361,C3,80.25,0.5,70,88.0
362,E-5,80.5,0.25,95,88.0
363,G3,80.5,0.25,70,88.0
364,C4,80.5,0.25,70,88.0
365,G#4,80.75,0.25,95,88.0
366,C3,80.75,0.5,70,88.0
367,B-4,81.0,0.25,95,88.0
368,C4,81.0,0.25,70,88.0
369,G3,81.0,0.25,70,88.0
370,E-5,81.25,0.25,95,88.0
371,C3,81.25,0.5,70,88.0
372,B-4,81.5,0.25,95,88.0
373,C4,81.5,0.25,70,88.0
374,G3,81.5,0.25,70,88.0
375,G#4,81.75,0.25,95,88.0
376,B-2,81.75,0.5,70,88.0
377,G4,82.0,31/250,95,88.0
378,B-3,82.0,0.25,70,88.0
379,F3,82.0,0.25,70,88.0
380,G#4,82.124,31/250,95,88.0
381,G4,82.25,0.25,95,88.0
382,B-2,82.25,0.5,70,88.0
383,G#4,82.5,0.25,95,88.0
384,F3,82.5,0.25,70,88.0
385,B-3,82.5,0.25,70,88.0
386,G4,82.75,0.25,95,88.0
387,B-2,82.75,0.5,70,88.0
388,F4,83.0,0.25,95,88.0
389,B-3,83.0,0.25,70,88.0
390,F3,83.0,0.25,70,88.0
391,G4,83.25,0.25,95,88.0
392,B-2,83.25,0.5,70,88.0
393,B-4,83.5,0.25,95,88.0
394,B-3,83.5,0.25,70,88.0
395,F3,83.5,0.25,70,88.0
396,E-5,83.75,0.25,95,88.0
397,B-2,83.75,0.25,70,88.0
398,B-1,83.75,0.25,70,88.0
399,G#4,84.0,0.25,95,88.0
400,G#2,84.0,0.25,70,88.0
401,G#1,84.0,0.25,70,88.0
402,B-4,84.25,0.25,95,88.0
403,G#2,84.25,0.5,70,88.0
404,E-5,84.5,0.25,95,88.0
405,E-3,84.5,0.25,70,88.0
406,G#3,84.5,0.25,70,88.0
407,G#4,84.75,0.25,95,88.0
408,G#2,84.75,0.5,70,88.0
409,B-4,85.0,0.25,95,88.0
410,G#3,85.0,0.25,70,88.0
411,E-3,85.0,0.25,70,88.0
412,E-5,85.25,0.25,95,88.0
413,G#2,85.25,0.5,70,88.0
414,B-4,85.5,0.25,95,88.0
415,G#3,85.5,0.25,70,88.0
416,E-3,85.5,0.25,70,88.0
417,G#4,85.75,0.25,95,88.0
418,G#2,85.75,0.5,70,88.0
419,G4,86.0,31/250,95,88.0
420,G#3,86.0,0.25,70,88.0
421,E-3,86.0,0.25,70,88.0
422,G#4,86.124,31/250,95,88.0
423,G4,86.25,0.25,95,88.0
424,G#2,86.25,0.5,70,88.0
425,G#4,86.5,0.25,95,88.0
426,E-3,86.5,0.25,70,88.0
427,G#3,86.5,0.25,70,88.0
428,G4,86.75,0.25,95,88.0
429,G#2,86.75,0.5,70,88.0
430,F4,87.0,0.25,95,88.0
431,E-3,87.0,0.25,70,88.0
432,G#3,87.0,0.25,70,88.0
433,G4,87.25,0.25,95,88.0
434,G#2,87.25,0.5,70,88.0
435,E-5,87.5,0.25,95,88.0
436,G#3,87.5,0.25,70,88.0
437,E-3,87.5,0.25,70,88.0
438,G4,87.75,0.25,95,88.0
439,C3,87.75,0.25,70,88.0
440,C2,87.75,0.25,70,88.0
441,B-4,88.0,0.5,95,88.0
442,C3,88.0,0.25,70,88.0
443,C2,88.0,0.25,70,88.0
444,C3,88.25,0.5,70,88.0
445,E-5,88.5,0.25,95,88.0
446,C4,88.5,0.25,70,88.0
447,G3,88.5,0.25,70,88.0
448,G#4,88.75,0.25,95,88.0
449,C3,88.75,0.5,70,88.0
450,B-4,89.0,0.25,95,88.0
451,C4,89.0,0.25,70,88.0
452,G3,89.0,0.25,70,88.0
453,E-5,89.25,0.25,95,88.0
454,C3,89.25,0.5,70,88.0
455,B-4,89.5,0.25,95,88.0
456,G3,89.5,0.25,70,88.0
457,C4,89.5,0.25,70,88.0
458,G#4,89.75,0.25,95,88.0
459,B-2,89.75,0.5,70,88.0
460,G4,90.0,31/250,95,88.0
461,B-3,90.0,0.25,70,88.0
462,F3,90.0,0.25,70,88.0
463,G#4,90.124,31/250,95,88.0
464,G4,90.25,0.25,95,88.0
465,B-2,90.25,0.5,70,88.0
466,G#4,90.5,0.25,95,88.0
467,F3,90.5,0.25,70,88.0
468,B-3,90.5,0.25,70,88.0
469,G4,90.75,0.25,95,88.0
470,B-2,90.75,0.5,70,88.0
471,E-5,91.0,0.25,95,88.0
472,B-3,91.0,0.25,70,88.0
473,F3,91.0,0.25,70,88.0
474,B-4,91.25,0.25,95,88.0
475,B-2,91.25,0.5,70,88.0
476,C5,91.5,0.25,95,88.0
477,F3,91.5,0.25,70,88.0
478,B-3,91.5,0.25,70,88.0
479,B-4,91.75,0.25,95,88.0
480,B-1,91.75,0.25,70,88.0
481,B-2,91.75,0.25,70,88.0
482,B-5,92.0,0.75,78,88.0
483,C3,92.0,0.25,60,88.0
484,C4,92.25,0.25,60,88.0
485,C3,92.5,0.25,60,88.0
486,E-4,92.5,0.25,78,88.0
487,G4,92.5,0.25,78,88.0
488,B-4,92.5,0.25,78,88.0
489,B-5,92.75,0.25,78,88.0
490,C4,92.75,0.25,60,88.0
491,B-5,93.0,0.5,78,88.0
492,C3,93.0,0.25,60,88.0
493,C4,93.25,0.25,60,88.0
494,B-5,93.5,0.25,78,88.0
495,C3,93.5,0.25,60,88.0
496,B-5,93.75,0.25,78,88.0
497,C4,93.75,0.25,60,88.0
498,B-5,94.0,0.5,78,88.0
499,G#2,94.0,0.25,60,88.0
500,G#3,94.25,0.25,60,88.0
501,G5,94.5,0.5,78,88.0
502,G#2,94.5,0.25,60,88.0
503,G#3,94.75,0.25,60,88.0
504,F5,95.0,0.5,78,88.0
505,G#2,95.0,0.25,60,88.0
506,G#3,95.25,0.25,60,88.0
507,F5,95.5,0.25,78,88.0
508,G#2,95.5,0.25,60,88.0
509,E-5,95.75,0.25,78,88.0
510,G#3,95.75,0.25,60,88.0
511,G5,96.0,1.0,78,88.0
512,E-3,96.0,0.25,60,88.0
513,E-4,96.25,0.25,60,88.0
514,E-3,96.5,0.25,60,88.0
515,G4,96.5,0.25,78,88.0
516,E-4,96.5,0.25,78,88.0
517,B-4,96.75,0.25,78,88.0
518,E-4,96.75,0.25,60,88.0
519,B-5,97.0,0.25,78,88.0
520,E-3,97.0,0.25,60,88.0
521,B-5,97.25,0.25,78,88.0
522,E-4,97.25,0.25,60,88.0
523,B-5,97.5,0.25,78,88.0
524,E-3,97.5,0.25,60,88.0
525,C6,97.75,0.25,78,88.0
526,E-4,97.75,0.25,60,88.0
527,B-5,98.0,0.5,78,88.0
528,E-3,98.0,0.25,60,88.0
529,E-4,98.25,0.25,60,88.0
530,G5,98.5,0.5,78,88.0
531,E-3,98.5,0.25,60,88.0
532,E-4,98.75,0.25,60,88.0
533,F5,99.0,0.5,78,88.0
534,B-2,99.0,0.25,60,88.0
535,B-3,99.25,0.25,60,88.0
536,F5,99.5,0.25,78,88.0
537,B-2,99.5,0.25,60,88.0
538,E-5,99.75,0.25,78,88.0
539,B-3,99.75,0.25,60,88.0
540,B-5,100.0,0.75,78,88.0
541,C3,100.0,0.25,60,88.0
542,C4,100.25,0.25,60,88.0
543,C3,100.5,0.25,60,88.0
544,B-4,100.5,0.25,78,88.0
545,G4,100.5,0.25,78,88.0
546,E-4,100.5,0.25,78,88.0
547,B-5,100.75,0.25,78,88.0
548,C4,100.75,0.25,60,88.0
549,B-5,101.0,0.5,78,88.0
550,C3,101.0,0.25,60,88.0
551,C4,101.25,0.25,60,88.0
552,B-5,101.5,0.25,78,88.0
553,C3,101.5,0.25,60,88.0
554,B-5,101.75,0.25,78,88.0
555,C4,101.75,0.25,60,88.0
556,B-5,102.0,0.5,78,88.0
557,G#2,102.0,0.25,60,88.0
558,G#3,102.25,0.25,60,88.0
559,G5,102.5,0.5,78,88.0
560,G#2,102.5,0.25,60,88.0
561,G#3,102.75,0.25,60,88.0
562,F5,103.0,0.75,78,88.0
563,G#2,103.0,0.25,60,88.0
564,G#3,103.25,0.25,60,88.0
565,G#2,103.5,0.25,60,88.0
566,B-4,103.75,0.25,78,88.0
567,G#3,103.75,0.25,60,88.0
568,E-5,104.0,0.25,78,88.0
569,E-3,104.0,0.25,60,88.0
570,F5,104.25,0.25,78,88.0
571,E-4,104.25,0.25,60,88.0
572,G5,104.5,0.25,78,88.0
573,E-3,104.5,0.25,60,88.0
574,G#5,104.75,0.25,78,88.0
575,E-4,104.75,0.25,60,88.0
576,G5,105.0,0.5,78,88.0
577,E-3,105.0,0.25,60,88.0
578,E-4,105.25,0.25,60,88.0
579,F5,105.5,0.25,78,88.0
580,E-3,105.5,0.25,60,88.0
581,F5,105.75,0.25,78,88.0
582,E-4,105.75,0.25,60,88.0
583,E-5,106.0,0.25,78,88.0
584,B-2,106.0,0.25,60,88.0
585,F5,106.25,0.25,78,88.0
586,B-3,106.25,0.25,60,88.0
587,G5,106.5,0.25,78,88.0
588,B-2,106.5,0.25,60,88.0
589,G#5,106.75,0.25,78,88.0
590,B-3,106.75,0.25,60,88.0
591,G5,107.0,0.5,78,88.0
592,B-2,107.0,0.25,60,88.0
593,B-3,107.25,0.25,60,88.0
594,F5,107.5,0.5,78,88.0
595,B-2,107.5,0.25,60,88.0
596,B-3,107.75,0.25,60,88.0
597,C2,108.0,0.25,70,88.0
598,B-5,108.0,0.75,78,88.0
599,G5,108.0,0.75,78,88.0
600,E-5,108.0,0.75,78,88.0
601,C3,108.25,0.25,70,88.0
602,C3,108.5,0.25,70,88.0
603,C6,108.75,0.25,78,88.0
604,B-3,108.75,0.25,70,88.0
605,C3,109.0,0.25,70,88.0
606,B-5,109.0,0.25,78,88.0
607,E-5,109.0,0.25,78,88.0
608,G5,109.25,0.25,78,88.0
609,C4,109.25,0.25,70,88.0
610,G5,109.5,0.25,78,88.0
611,C3,109.5,0.25,70,88.0
612,F5,109.75,0.25,78,88.0
613,B-3,109.75,0.25,70,88.0
614,G#1,110.0,0.25,70,88.0
615,F5,110.0,0.25,78,88.0
616,C5,110.0,0.25,78,88.0
617,G#2,110.25,0.25,70,88.0
618,E-5,110.25,0.25,78,88.0
619,G#4,110.25,0.25,78,88.0
620,G#1,110.5,0.25,70,88.0
621,F5,110.5,0.25,78,88.0
622,C5,110.5,0.25,78,88.0
623,G#2,110.75,0.25,70,88.0
624,E-5,110.75,0.25,78,88.0
625,G#4,110.75,0.25,78,88.0
626,G#1,111.0,0.25,70,88.0
627,F5,111.0,0.25,78,88.0
628,C5,111.0,0.25,78,88.0
629,E-3,111.25,0.25,70,88.0
630,E-5,111.25,0.25,78,88.0
631,G#4,111.25,0.25,78,88.0
632,G#1,111.5,0.25,70,88.0
633,F5,111.5,0.25,78,88.0
634,C5,111.5,0.25,78,88.0
635,B-2,111.75,0.25,70,88.0
636,E-5,111.75,0.25,78,88.0
637,G#4,111.75,0.25,78,88.0
638,E-2,112.0,0.25,70,88.0
639,B-5,112.0,0.75,78,88.0
640,E-5,112.0,0.75,78,88.0
641,G5,112.0,0.75,78,88.0
642,E-3,112.25,0.25,70,88.0
643,E-3,112.5,0.25,70,88.0
644,B-3,112.75,0.25,70,88.0
645,B-5,112.75,0.25,78,88.0
646,G5,112.75,0.25,78,88.0
647,E-5,112.75,0.25,78,88.0
648,E-3,113.0,0.25,70,88.0
649,B-5,113.0,0.25,78,88.0
650,G5,113.0,0.25,78,88.0
651,E-5,113.0,0.25,78,88.0
652,C4,113.25,0.25,70,88.0
653,B-5,113.25,0.25,78,88.0
654,G5,113.25,0.25,78,88.0
655,E-5,113.25,0.25,78,88.0
656,E-3,113.5,0.25,70,88.0
657,B-5,113.5,0.5,78,88.0
658,G5,113.5,0.5,78,88.0
659,E-5,113.5,0.5,78,88.0
660,B-3,113.75,0.25,70,88.0
661,E-2,114.0,0.25,70,88.0
662,B-5,114.0,0.5,78,88.0
663,E-5,114.0,0.5,78,88.0
664,E-3,114.25,0.25,70,88.0
665,E-2,114.5,0.25,70,88.0
666,G5,114.5,0.5,78,88.0
667,B-4,114.5,0.5,78,88.0
668,E-3,114.75,0.25,70,88.0
669,B-1,115.0,0.25,70,88.0
670,F5,115.0,0.5,78,88.0
671,B-4,115.0,0.5,78,88.0
672,D5,115.0,0.5,78,88.0
673,B-2,115.25,0.25,70,88.0
674,F5,115.5,0.25,78,88.0
675,B-1,115.5,0.25,70,88.0
676,E-5,115.75,0.25,78,88.0
677,B-2,115.75,0.25,70,88.0
678,E-5,116.0,0.75,78,88.0
679,C5,116.0,0.5,78,88.0
680,C2,116.0,0.25,70,88.0
681,C3,116.25,0.25,70,88.0
682,C2,116.5,0.25,70,88.0
683,B-4,116.75,0.25,78,88.0
684,C3,116.75,0.25,70,88.0
685,C2,117.0,0.25,70,88.0
686,B-5,117.0,0.25,78,88.0
687,E-5,117.0,0.25,78,88.0
688,C3,117.25,0.25,70,88.0
689,B-5,117.25,0.25,78,88.0
690,E-5,117.25,0.25,78,88.0
691,C2,117.5,0.25,70,88.0
692,B-5,117.5,0.25,78,88.0
693,E-5,117.5,0.25,78,88.0
694,C3,117.75,0.25,70,88.0
695,B-5,117.75,0.25,78,88.0
696,E-5,117.75,0.25,78,88.0
697,G#1,118.0,0.25,70,88.0
698,B-5,118.0,0.25,78,88.0
699,E-5,118.0,0.25,78,88.0
700,G5,118.25,0.25,78,88.0
701,G#2,118.25,0.25,70,88.0
702,G5,118.5,0.25,78,88.0
703,G#1,118.5,0.25,70,88.0
704,G#2,118.75,0.25,70,88.0
705,F5,118.75,0.25,78,88.0
706,G#4,118.75,0.25,78,88.0
707,G#1,119.0,0.25,70,88.0
708,F5,119.0,1.0,78,88.0
709,G#4,119.0,1.0,78,88.0
710,G#2,119.25,0.25,70,88.0
711,G#1,119.5,0.25,70,88.0
712,G#2,119.75,0.25,70,88.0
713,E-5,120.0,0.25,78,88.0
714,E-2,120.0,0.25,70,88.0
715,F5,120.25,0.25,78,88.0
716,E-3,120.25,0.25,70,88.0
717,G5,120.5,0.25,78,88.0
718,E-2,120.5,0.25,70,88.0
719,G#5,120.75,0.25,78,88.0
720,E-3,120.75,0.25,70,88.0
721,G5,121.0,0.5,78,88.0
722,E-2,121.0,0.25,70,88.0
723,E-3,121.25,0.25,70,88.0
724,F5,121.5,0.25,78,88.0
725,E-2,121.5,0.25,70,88.0
726,F5,121.75,0.25,78,88.0
727,E-3,121.75,0.25,70,88.0
728,E-5,122.0,0.25,78,88.0
729,E-2,122.0,0.25,70,88.0
730,F5,122.25,0.25,78,88.0
731,E-3,122.25,0.25,70,88.0
732,G5,122.5,0.25,78,88.0
733,E-2,122.5,0.25,70,88.0
734,G#5,122.75,0.25,78,88.0
735,E-3,122.75,0.25,70,88.0
736,G5,123.0,0.5,78,88.0
737,B-1,123.0,0.25,70,88.0
738,B-2,123.25,0.25,70,88.0
739,F5,123.5,0.5,78,88.0
740,B-1,123.5,0.25,70,88.0
741,B-2,123.75,0.25,70,88.0
742,E-5,124.0,1.0,90,88.0
743,E-6,124.0,1.0,90,88.0
744,G#5,124.0,1.0,90,88.0
745,C#1,124.0,0.25,75,88.0
746,C#2,124.0,0.25,75,88.0
747,C#2,124.25,0.25,75,88.0
748,C#1,124.25,0.25,75,88.0
749,C#3,124.75,0.25,75,88.0
750,F5,125.0,0.5,90,88.0
751,G#5,125.0,0.5,90,88.0
752,C#5,125.0,0.5,90,88.0
753,C#6,125.0,0.5,90,88.0
754,F3,125.0,0.25,75,88.0
755,G#3,125.0,0.25,75,88.0
756,C#4,125.0,0.25,75,88.0
757,C#6,125.5,0.75,90,88.0
758,C#2,125.5,0.25,75,88.0
759,C#1,125.75,0.25,75,88.0
760,C#7,125.75,0.5,86,88.0
761,F6,125.75,0.5,86,88.0
762,G#6,125.75,0.5,86,88.0
763,C#5,126.25,0.25,90,88.0
764,C#3,126.5,0.25,75,88.0
765,C#6,126.5,0.25,90,88.0
766,G#5,126.5,0.25,90,88.0
767,F5,126.5,0.25,90,88.0
768,C#6,126.75,0.25,90,88.0
769,G#3,126.75,0.25,75,88.0
770,C#7,127.0,0.25,86,88.0
771,G#6,127.0,0.25,86,88.0
772,F6,127.0,0.25,86,88.0
773,F4,127.0,0.25,75,88.0
774,C#4,127.0,0.25,75,88.0
775,C#6,127.25,0.25,90,88.0
776,G#3,127.25,0.25,75,88.0
777,C#3,127.5,0.25,75,88.0
778,F5,127.5,0.25,90,88.0
779,G#5,127.5,0.25,90,88.0
780,C#6,127.5,0.25,90,88.0
781,C#5,127.75,0.25,90,88.0
782,G#2,127.75,0.25,75,88.0
783,C#6,128.0,0.25,90,88.0
784,G#5,128.0,0.25,90,88.0
785,F5,128.0,0.25,90,88.0
786,C#2,128.0,0.25,75,88.0
787,C#1,128.0,0.25,75,88.0
788,C#5,128.25,0.25,90,88.0
789,C#2,128.25,0.25,75,88.0
790,C#1,128.25,0.25,75,88.0
791,C#2,128.5,0.25,75,88.0
792,G#5,128.5,0.25,90,88.0
793,C#6,128.5,0.25,90,88.0
794,F5,128.5,0.25,90,88.0
795,C#6,128.75,0.25,90,88.0
796,G#2,128.75,0.25,75,88.0
797,F6,129.0,0.25,86,88.0
798,G#6,129.0,0.25,86,88.0
799,C#7,129.0,0.25,86,88.0
800,F3,129.0,0.25,75,88.0
801,C#3,129.0,0.25,75,88.0
802,C#6,129.25,0.25,90,88.0
803,G#2,129.25,0.25,75,88.0
804,C#2,129.5,0.25,75,88.0
805,F5,129.5,0.25,90,88.0
806,C#6,129.5,0.25,90,88.0
807,G#5,129.5,0.25,90,88.0
808,C#5,129.75,0.25,90,88.0
809,F5,130.0,0.25,95,88.0
810,C#5,130.0,0.25,95,88.0
811,C#6,130.0,0.25,95,88.0
812,G#5,130.0,0.25,95,88.0
813,C#1,130.0,0.25,80,88.0
814,C#2,130.0,0.25,80,88.0
815,G#5,130.25,0.25,95,88.0
816,C#6,130.25,0.25,95,88.0
817,C#5,130.25,0.25,95,88.0
818,F5,130.25,0.25,95,88.0
819,C#2,130.25,0.25,80,88.0
820,C#1,130.25,0.25,80,88.0
821,G#5,130.5,0.25,95,88.0
822,C#6,130.5,0.25,95,88.0
823,C#5,130.5,0.25,95,88.0
824,F5,130.5,0.25,95,88.0
825,C#1,130.5,0.25,80,88.0
826,C#2,130.5,0.25,80,88.0
827,G#5,130.75,0.25,95,88.0
828,C#6,130.75,0.25,95,88.0
829,C#5,130.75,0.25,95,88.0
830,F5,130.75,0.25,95,88.0
831,C#2,130.75,0.25,80,88.0
832,C#1,130.75,0.25,80,88.0
833,B-5,131.0,0.25,98,88.0
834,E-6,131.0,0.25,98,88.0
835,E-5,131.0,0.25,98,88.0
836,G5,131.0,0.25,98,88.0
837,E-2,131.0,0.25,85,88.0
838,E-1,131.0,0.25,85,88.0
839,G5,131.25,0.25,98,88.0
840,E-5,131.25,0.25,98,88.0
841,E-6,131.25,0.25,98,88.0
842,B-5,131.25,0.25,98,88.0
843,E-2,131.25,0.25,85,88.0
844,E-1,131.25,0.25,85,88.0
845,G5,131.5,0.25,98,88.0
846,E-5,131.5,0.25,98,88.0
847,E-6,131.5,0.25,98,88.0
848,B-5,131.5,0.25,98,88.0
849,E-2,131.5,0.25,85,88.0
850,E-1,131.5,0.25,85,88.0
851,G5,131.75,0.25,98,88.0
852,E-5,131.75,0.25,98,88.0
853,E-6,131.75,0.25,98,88.0
854,B-5,131.75,0.25,98,88.0
855,E-1,131.75,0.25,85,88.0
856,E-2,131.75,0.25,85,88.0
857,C5,132.0,0.5,102,88.0
858,C6,132.0,0.5,102,88.0
859,F5,132.0,0.5,102,88.0
860,G#5,132.0,0.5,102,88.0
861,F1,132.0,0.25,90,88.0
862,F2,132.0,0.25,90,88.0
863,F3,132.25,0.25,90,88.0
864,C3,132.25,0.25,90,88.0
865,F2,132.5,0.25,90,88.0
866,E-5,132.5,0.5,102,88.0
867,E-6,132.5,0.5,102,88.0
868,G#5,132.5,0.5,102,88.0
869,C6,132.5,0.5,102,88.0
870,C3,132.75,0.25,90,88.0
871,F3,132.75,0.25,90,88.0
872,F2,133.0,0.25,90,88.0
873,E-5,133.0,0.5,102,88.0
874,E-6,133.0,0.5,102,88.0
875,G#5,133.0,0.5,102,88.0
876,C6,133.0,0.5,102,88.0
877,C3,133.25,0.25,90,88.0
878,F3,133.25,0.25,90,88.0
879,F2,133.5,0.25,90,88.0
880,F5,133.5,0.5,102,88.0
881,F6,133.5,0.5,102,88.0
882,G#5,133.5,0.5,102,88.0
883,C6,133.5,0.5,102,88.0
884,C3,133.75,0.25,90,88.0
885,F3,133.75,0.25,90,88.0
886,G#5,134.0,0.5,102,88.0
887,G#6,134.0,0.5,102,88.0
888,C#6,134.0,0.5,102,88.0
889,C#3,134.0,0.25,90,88.0
890,C#2,134.0,0.25,90,88.0
891,G#3,134.25,0.25,90,88.0
892,C#4,134.25,0.25,90,88.0
893,C#3,134.5,0.25,90,88.0
894,G5,134.5,0.5,102,88.0
895,G6,134.5,0.5,102,88.0
896,C#6,134.5,0.5,102,88.0
897,C#4,134.75,0.25,90,88.0
898,G#3,134.75,0.25,90,88.0
899,C#3,135.0,0.25,90,88.0
900,F5,135.0,0.5,102,88.0
901,F6,135.0,0.5,102,88.0
902,G#5,135.0,0.5,102,88.0
903,C#4,135.25,0.25,90,88.0
904,G#3,135.25,0.25,90,88.0
905,C#3,135.5,0.25,90,88.0
906,E-5,135.5,0.5,102,88.0
907,E-6,135.5,0.5,102,88.0
908,G#5,135.5,0.5,102,88.0
909,C#4,135.75,0.25,90,88.0
910,G#3,135.75,0.25,90,88.0
911,E-5,136.0,0.75,102,88.0
912,E-6,136.0,0.75,102,88.0
913,G#5,136.0,0.5,102,88.0
914,C6,136.0,0.5,102,88.0
915,G#2,136.0,0.25,90,88.0
916,G#1,136.0,0.25,90,88.0
917,E-3,136.25,0.25,90,88.0
918,G#3,136.25,0.25,90,88.0
919,G#2,136.5,0.25,90,88.0
920,C5,136.75,0.25,102,88.0
921,C6,136.75,0.25,102,88.0
922,G#3,136.75,0.25,90,88.0
923,E-3,136.75,0.25,90,88.0
924,G#2,137.0,0.25,90,88.0
925,C#5,137.0,0.5,102,88.0
926,C#6,137.0,0.5,102,88.0
927,G#3,137.25,0.25,90,88.0
928,E-3,137.25,0.25,90,88.0
929,G#2,137.5,0.25,90,88.0
930,C5,137.5,0.25,102,88.0
931,C6,137.5,0.25,102,88.0
932,C5,137.75,0.25,102,88.0
933,C6,137.75,0.25,102,88.0
934,G#3,137.75,0.25,90,88.0
935,E-3,137.75,0.25,90,88.0
936,B-5,138.0,0.25,102,88.0
937,E-5,138.0,0.25,102,88.0
938,B-4,138.0,0.25,102,88.0
939,G2,138.0,0.25,90,88.0
940,G1,138.0,0.25,90,88.0
941,B-4,138.25,0.25,81,88.0
942,E-3,138.25,0.25,90,88.0
943,G3,138.25,0.25,90,88.0
944,G2,138.5,0.25,90,88.0
945,E-5,138.5,0.25,81,88.0
946,G5,138.5,0.25,81,88.0
947,B-5,138.5,0.25,81,88.0
948,B-5,138.75,0.25,81,88.0
949,G3,138.75,0.25,90,88.0
950,E-3,138.75,0.25,90,88.0
951,G1,139.0,0.25,90,88.0
952,E-6,139.0,0.25,81,88.0
953,G6,139.0,0.25,81,88.0
954,B-6,139.0,0.25,81,88.0
955,B-2,139.25,0.25,90,88.0
956,G1,139.5,0.25,90,88.0
957,B-5,139.5,0.25,81,88.0
958,G5,139.5,0.25,81,88.0
959,E-5,139.5,0.25,81,88.0
960,B-4,139.5,0.25,81,88.0
961,B-2,139.75,0.25,90,88.0
962,G#4,139.75,0.25,102,88.0
963,G#5,139.75,0.25,102,88.0
964,C5,140.0,0.5,102,88.0
965,C6,140.0,0.5,102,88.0
966,F5,140.0,0.5,102,88.0
967,G#5,140.0,0.5,102,88.0
968,F2,140.0,0.25,90,88.0
969,F1,140.0,0.25,90,88.0
970,C3,140.25,0.25,90,88.0
971,F3,140.25,0.25,90,88.0
972,F2,140.5,0.25,90,88.0
973,E-5,140.5,0.5,102,88.0
974,E-6,140.5,0.5,102,88.0
975,G#5,140.5,0.5,102,88.0
976,C6,140.5,0.5,102,88.0
977,F3,140.75,0.25,90,88.0
978,C3,140.75,0.25,90,88.0
979,F2,141.0,0.25,90,88.0
980,E-5,141.0,0.5,102,88.0
981,E-6,141.0,0.5,102,88.0
982,C6,141.0,0.5,102,88.0
983,G#5,141.0,0.5,102,88.0
984,F3,141.25,0.25,90,88.0
985,C3,141.25,0.25,90,88.0
986,F2,141.5,0.25,90,88.0
987,F5,141.5,0.5,102,88.0
988,F6,141.5,0.5,102,88.0
989,C6,141.5,0.5,102,88.0
990,G#5,141.5,0.5,102,88.0
991,F3,141.75,0.25,90,88.0
992,C3,141.75,0.25,90,88.0
993,G#5,142.0,0.5,102,88.0
994,G#6,142.0,0.5,102,88.0
995,C#6,142.0,0.5,102,88.0
996,C#2,142.0,0.25,90,88.0
997,C#3,142.0,0.25,90,88.0
998,C#4,142.25,0.25,90,88.0
999,G#3,142.25,0.25,90,88.0
1000,C#3,142.5,0.25,90,88.0
1001,G5,142.5,0.5,102,88.0
1002,G6,142.5,0.5,102,88.0
1003,C#6,142.5,0.5,102,88.0
1004,G#3,142.75,0.25,90,88.0
1005,C#4,142.75,0.25,90,88.0
1006,C#3,143.0,0.25,90,88.0
1007,F5,143.0,0.5,102,88.0
1008,F6,143.0,0.5,102,88.0
1009,G#5,143.0,0.5,102,88.0
1010,G#3,143.25,0.25,90,88.0
1011,C#4,143.25,0.25,90,88.0
1012,C#3,143.5,0.25,90,88.0
1013,E-5,143.5,0.5,102,88.0
1014,E-6,143.5,0.5,102,88.0
1015,G#5,143.5,0.5,102,88.0
1016,G#3,143.75,0.25,90,88.0
1017,C#4,143.75,0.25,90,88.0
1018,E-5,144.0,0.75,102,88.0
1019,E-6,144.0,0.75,102,88.0
1020,G#5,144.0,0.5,102,88.0
1021,C6,144.0,0.5,102,88.0
1022,G#1,144.0,0.25,90,88.0
1023,G#2,144.0,0.25,90,88.0
1024,E-3,144.25,0.25,90,88.0
1025,G#3,144.25,0.25,90,88.0
1026,G#2,144.5,0.25,90,88.0
1027,C5,144.75,0.25,102,88.0
1028,C6,144.75,0.25,102,88.0
1029,E-3,144.75,0.25,90,88.0
1030,G#3,144.75,0.25,90,88.0
1031,G#2,145.0,0.25,90,88.0
1032,C#5,145.0,0.75,102,88.0
1033,C#6,145.0,0.75,102,88.0
1034,E-3,145.25,0.25,90,88.0
1035,G#3,145.25,0.25,90,88.0
1036,G#2,145.5,0.25,90,88.0
1037,C5,145.75,0.25,102,88.0
1038,C6,145.75,0.25,102,88.0
1039,E-3,145.75,0.25,90,88.0
1040,G#3,145.75,0.25,90,88.0
1041,B-4,146.0,0.75,102,88.0
1042,B-5,146.0,0.75,102,88.0
1043,G5,146.0,0.25,102,88.0
1044,E-5,146.0,0.25,102,88.0
1045,G1,146.0,0.25,90,88.0
1046,G2,146.0,0.25,90,88.0
1047,G3,146.25,0.25,90,88.0
1048,E-3,146.25,0.25,90,88.0
1049,G2,146.5,0.25,90,88.0
1050,E-4,146.75,0.25,102,88.0
1051,E-5,146.75,0.25,102,88.0
1052,E-3,146.75,0.25,90,88.0
1053,G3,146.75,0.25,90,88.0
1054,C5,147.0,0.25,102,88.0
1055,C6,147.0,0.25,102,88.0
1056,E-2,147.0,0.25,90,88.0
1057,E-3,147.0,0.25,90,88.0
1058,B-4,147.25,0.25,102,88.0
1059,B-5,147.25,0.25,102,88.0
1060,B-2,147.25,0.25,90,88.0
1061,B-1,147.25,0.25,90,88.0
1062,G#4,147.5,0.25,102,88.0
1063,G#5,147.5,0.25,102,88.0
1064,G2,147.5,0.25,90,88.0
1065,G1,147.5,0.25,90,88.0
1066,B-4,147.75,0.25,102,88.0
1067,B-5,147.75,0.25,102,88.0
1068,E-1,147.75,0.25,90,88.0
1069,E-2,147.75,0.25,90,88.0
1070,G#5,148.0,0.5,102,88.0
1071,G#4,148.0,0.5,102,88.0
1072,F2,148.0,0.25,90,88.0
1073,F1,148.0,0.25,90,88.0
1074,C3,148.25,0.25,90,88.0
1075,F3,148.25,0.25,90,88.0
1076,F2,148.5,0.25,90,88.0
1077,B-5,148.5,0.25,102,88.0
1078,B-4,148.5,0.25,102,88.0
1079,C6,148.75,281/500,102,88.0
1080,C5,148.75,281/500,102,88.0
1081,F3,148.75,0.25,90,88.0
1082,C3,148.75,0.25,90,88.0
1083,F2,149.0,0.25,90,88.0
1084,B-5,149.166,333/500,102,88.0
1085,B-4,149.166,333/500,102,88.0
1086,F3,149.25,0.25,90,88.0
1087,C3,149.25,0.25,90,88.0
1088,F2,149.5,0.25,90,88.0
1089,G#5,149.5,104/125,102,88.0
1090,G#4,149.5,104/125,102,88.0
1091,F3,149.75,0.25,90,88.0
1092,C3,149.75,0.25,90,88.0
1093,G1,150.0,0.25,90,88.0
1094,G2,150.0,0.25,90,88.0
1095,G3,150.25,0.25,90,88.0
1096,E-3,150.25,0.25,90,88.0
1097,G2,150.5,0.25,90,88.0
1098,E-5,150.75,0.25,102,88.0
1099,E-4,150.75,0.25,102,88.0
1100,E-3,150.75,0.25,90,88.0
1101,G3,150.75,0.25,90,88.0
1102,G2,151.0,0.25,90,88.0
1103,C6,151.0,0.25,102,88.0
1104,C5,151.0,0.25,102,88.0
1105,B-5,151.25,0.25,102,88.0
1106,B-4,151.25,0.25,102,88.0
1107,E-3,151.25,0.25,90,88.0
1108,G3,151.25,0.25,90,88.0
1109,G2,151.5,0.25,90,88.0
1110,G#5,151.5,0.25,102,88.0
1111,G#4,151.5,0.25,102,88.0
1112,B-5,151.75,0.25,102,88.0
1113,B-4,151.75,0.25,102,88.0
1114,E-3,151.75,0.25,90,88.0
1115,G3,151.75,0.25,90,88.0
1116,G#5,152.0,0.5,102,88.0
1117,G#4,152.0,0.5,102,88.0
1118,G#1,152.0,0.25,90,88.0
1119,G#2,152.0,0.25,90,88.0
1120,E-3,152.25,0.25,90,88.0
1121,G#3,152.25,0.25,90,88.0
1122,G#2,152.5,0.25,90,88.0
1123,B-5,152.5,0.25,102,88.0
1124,B-4,152.5,0.25,102,88.0
1125,C6,152.75,0.5,102,88.0
1126,C5,152.75,0.5,102,88.0
1127,E-3,152.75,0.25,90,88.0
1128,G#3,152.75,0.25,90,88.0
1129,G#2,153.0,0.25,90,88.0
1130,B-5,153.25,333/500,102,88.0
1131,B-4,153.25,333/500,102,88.0
1132,E-3,153.25,0.25,90,88.0
1133,G#3,153.25,0.25,90,88.0
1134,G#2,153.5,0.25,90,88.0
1135,F5,153.5,0.5,102,88.0
1136,D5,153.5,0.5,102,88.0
1137,D6,153.5,0.5,102,88.0
1138,E-3,153.75,0.25,90,88.0
1139,G#3,153.75,0.25,90,88.0
1140,B-6,154.0,0.25,76,88.0
1141,B-5,154.0,0.25,76,88.0
1142,B-2,154.0,0.25,90,88.0
1143,B-1,154.0,0.25,90,88.0
1144,F6,154.25,0.25,76,88.0
1145,D6,154.25,0.25,76,88.0
1146,B-3,154.25,0.25,90,88.0
1147,F3,154.25,0.25,90,88.0
1148,B-2,154.5,0.25,90,88.0
1149,F6,154.5,0.25,76,88.0
1150,F5,154.5,0.25,76,88.0
1151,F3,154.75,0.25,90,88.0
1152,B-5,154.75,0.25,76,88.0
1153,D6,154.75,0.25,76,88.0
1154,D6,155.0,0.25,76,88.0
1155,D5,155.0,0.25,76,88.0
1156,B-2,155.0,0.25,90,88.0
1157,B-3,155.0,0.25,90,88.0
1158,F3,155.25,0.25,90,88.0
1159,B-5,155.25,0.25,76,88.0
1160,F5,155.25,0.25,76,88.0
1161,B-2,155.5,0.25,90,88.0
1162,G#5,155.5,0.25,102,88.0
1163,G#4,155.5,0.25,102,88.0
1164,F2,155.75,0.25,90,88.0
1165,G#5,155.75,0.25,102,88.0
1166,G#4,155.75,0.25,102,88.0
1167,G#5,156.0,0.25,102,88.0
1168,G#4,156.0,0.25,102,88.0
1169,C#5,156.0,0.25,102,88.0
1170,C#2,156.0,0.25,90,88.0
1171,C#1,156.0,0.25,90,88.0
1172,G#5,156.25,0.25,102,88.0
1173,G#4,156.25,0.25,102,88.0
1174,C#5,156.25,0.25,102,88.0
1175,C#3,156.25,0.25,90,88.0
1176,G#2,156.25,0.25,90,88.0
1177,C#2,156.5,0.25,90,88.0
1178,B-5,156.5,0.25,102,88.0
1179,B-4,156.5,0.25,102,88.0
1180,C6,156.75,0.5,102,88.0
1181,C5,156.75,0.5,102,88.0
1182,C#3,156.75,0.25,90,88.0
1183,G#2,156.75,0.25,90,88.0
1184,C#2,157.0,0.25,90,88.0
1185,B-5,157.25,0.25,102,88.0
1186,B-4,157.25,0.25,102,88.0
1187,C#3,157.25,0.25,90,88.0
1188,G#2,157.25,0.25,90,88.0
1189,C#2,157.5,0.25,90,88.0
1190,G#5,157.5,0.25,102,88.0
1191,G#4,157.5,0.25,102,88.0
1192,G#5,157.75,0.25,102,88.0
1193,G#4,157.75,0.25,102,88.0
1194,C#3,157.75,0.25,90,88.0
1195,G#2,157.75,0.25,90,88.0
1196,G#5,158.0,0.25,102,88.0
1197,G#4,158.0,0.25,102,88.0
1198,E-2,158.0,0.25,90,88.0
1199,E-1,158.0,0.25,90,88.0
1200,G#5,158.25,0.25,102,88.0
1201,G#4,158.25,0.25,102,88.0
1202,E-5,158.25,0.25,102,88.0
1203,E-3,158.25,0.25,90,88.0
1204,B-2,158.25,0.25,90,88.0
1205,E-2,158.5,0.25,90,88.0
1206,G#5,158.5,0.75,102,88.0
1207,G#4,158.5,0.75,102,88.0
1208,E-5,158.5,0.75,102,88.0
1209,E-3,158.75,0.25,90,88.0
1210,B-2,158.75,0.25,90,88.0
1211,E-2,159.0,0.25,90,88.0
1212,G#5,159.25,0.25,102,88.0
1213,G#4,159.25,0.25,102,88.0
1214,E-5,159.25,0.25,102,88.0
1215,E-3,159.25,0.25,90,88.0
1216,B-2,159.25,0.25,90,88.0
1217,E-2,159.5,0.25,90,88.0
1218,G5,159.5,0.25,102,88.0
1219,G4,159.5,0.25,102,88.0
1220,F5,159.75,0.25,102,88.0
1221,G#5,159.75,0.25,102,88.0
1222,C5,159.75,0.25,102,88.0
1223,G#4,159.75,0.25,102,88.0
1224,E-3,159.75,0.25,90,88.0
1225,B-2,159.75,0.25,90,88.0
1226,F2,160.0,0.25,90,88.0
1227,F1,160.0,0.25,90,88.0
1228,F3,160.25,0.25,90,88.0
1229,C3,160.25,0.25,90,88.0
1230,F2,160.5,0.25,90,88.0
1231,F5,160.5,0.5,102,88.0
1232,G#5,160.5,0.5,102,88.0
1233,C5,160.5,0.5,102,88.0
1234,G#4,160.5,0.5,102,88.0
1235,F3,160.75,0.25,90,88.0
1236,C3,160.75,0.25,90,88.0
1237,F6,161.0,83/250,86,88.0
1238,F2,161.0,0.25,90,88.0
1239,C6,161.166,167/500,86,88.0
1240,F3,161.25,0.25,90,88.0
1241,C3,161.25,0.25,90,88.0
1242,G#5,161.332,167/500,86,88.0
1243,F5,161.5,167/500,86,88.0
1244,F2,161.5,0.25,90,88.0
1245,C5,161.666,167/500,86,88.0
1246,F3,161.75,0.25,90,88.0
1247,C3,161.75,0.25,90,88.0
1248,G#4,161.832,21/125,86,88.0
1249,F4,162.0,167/500,86,88.0
1250,F2,162.0,0.25,90,88.0
1251,G#4,162.166,83/500,86,88.0
1252,G#3,162.25,0.25,90,88.0
1253,C3,162.25,0.25,90,88.0
1254,C5,162.332,21/125,86,88.0
1255,G#4,162.5,83/500,86,88.0
1256,F2,162.5,0.25,90,88.0
1257,C5,162.666,21/125,86,88.0
1258,C3,162.75,0.25,90,88.0
1259,F3,162.75,0.25,90,88.0
1260,F5,162.834,83/500,86,88.0
1261,C5,163.0,83/500,86,88.0
1262,F2,163.0,0.25,90,88.0
1263,F3,163.0,0.25,90,88.0
1264,F5,163.166,21/125,86,88.0
1265,C3,163.25,0.25,90,88.0
1266,C2,163.25,0.25,90,88.0
1267,G#5,163.334,83/500,86,88.0
1268,F5,163.5,83/500,86,88.0
1269,G#1,163.5,0.25,90,88.0
1270,G#2,163.5,0.25,90,88.0
1271,G#5,163.666,21/125,86,88.0
1272,F2,163.75,0.25,90,88.0
1273,F1,163.75,0.25,90,88.0
1274,C6,163.832,83/500,86,88.0
1275,F6,164.0,249/500,86,88.0
1276,B-2,164.0,0.25,90,88.0
1277,B-1,164.0,0.25,90,88.0
1278,D3,164.25,31/250,90,88.0
1279,F3,164.374,63/500,90,88.0
1280,B-3,164.5,0.25,90,88.0
1281,G#4,164.5,0.25,102,88.0
1282,G#5,164.5,0.25,102,88.0
1283,G#4,164.75,0.25,102,88.0
1284,G#5,164.75,0.25,102,88.0
1285,B-1,164.75,0.5,90,88.0
1286,B-2,164.75,0.5,90,88.0
1287,B-4,165.0,0.25,102,88.0
1288,B-5,165.0,0.25,102,88.0
1289,B-2,165.25,0.25,90,88.0
1290,C5,165.25,0.5,102,88.0
1291,C6,165.25,0.5,102,88.0
1292,D3,165.5,0.25,90,88.0
1293,B-3,165.5,0.25,90,88.0
1294,F3,165.5,0.25,90,88.0
1295,B-2,165.75,0.25,90,88.0
1296,C#5,165.75,0.25,102,88.0
1297,C#6,165.75,0.25,102,88.0
1298,C5,166.0,0.5,102,88.0
1299,C6,166.0,0.5,102,88.0
1300,C#2,166.0,0.25,90,88.0
1301,C#3,166.0,0.25,90,88.0
1302,F3,166.25,31/250,90,88.0
1303,G#3,166.374,63/500,90,88.0
1304,C#4,166.5,0.25,90,88.0
1305,G#4,166.5,0.5,102,88.0
1306,G#5,166.5,0.5,102,88.0
1307,E-3,166.75,0.5,90,88.0
1308,E-2,166.75,0.5,90,88.0
1309,B-4,167.0,0.25,102,88.0
1310,B-5,167.0,0.25,102,88.0
1311,C5,167.25,0.5,102,88.0
1312,C6,167.25,0.5,102,88.0
1313,B-4,167.75,0.25,102,88.0
1314,B-5,167.75,0.25,102,88.0
1315,G#4,168.0,0.5,102,88.0
1316,G#5,168.0,0.5,102,88.0
1317,G#2,168.0,0.25,75,88.0
1318,G#1,168.0,0.25,75,88.0
1319,G#2,168.25,0.5,75,88.0
1320,E-4,168.5,0.25,95,88.0
1321,E-3,168.5,0.25,75,88.0
1322,G#3,168.5,0.25,75,88.0
1323,B-4,168.75,0.25,95,88.0
1324,G#2,168.75,0.5,75,88.0
1325,E-5,169.0,0.25,95,88.0
1326,G#3,169.0,0.25,75,88.0
1327,E-3,169.0,0.25,75,88.0
1328,G#4,169.25,0.25,95,88.0
1329,G#2,169.25,0.5,75,88.0
1330,B-4,169.5,0.25,95,88.0
1331,G#3,169.5,0.25,75,88.0
1332,E-3,169.5,0.25,75,88.0
1333,E-5,169.75,0.25,95,88.0
1334,G#2,169.75,0.5,75,88.0
1335,B-4,170.0,0.25,95,88.0
1336,G#3,170.0,0.25,75,88.0
1337,E-3,170.0,0.25,75,88.0
1338,G#4,170.25,0.25,95,88.0
1339,G#2,170.25,0.5,75,88.0
1340,G4,170.5,31/250,95,88.0
1341,E-3,170.5,0.25,75,88.0
1342,G#3,170.5,0.25,75,88.0
1343,G#4,170.624,31/250,95,88.0
1344,G4,170.75,0.25,95,88.0
1345,G#2,170.75,0.5,75,88.0
1346,G#4,171.0,0.25,95,88.0
1347,E-3,171.0,0.25,75,88.0
1348,G#3,171.0,0.25,75,88.0
1349,G4,171.25,0.25,95,88.0
1350,G#2,171.25,0.5,75,88.0
1351,F4,171.5,0.25,95,88.0
1352,G#3,171.5,0.25,75,88.0
1353,E-3,171.5,0.25,75,88.0
1354,G4,171.75,0.25,95,88.0
1355,C3,171.75,0.25,75,88.0
1356,C2,171.75,0.25,75,88.0
1357,E-5,172.0,0.25,95,88.0
1358,C3,172.0,0.25,75,88.0
1359,C2,172.0,0.25,75,88.0
1360,G4,172.25,0.25,95,88.0
1361,C3,172.25,0.5,75,88.0
1362,B-4,172.5,0.5,95,88.0
1363,C4,172.5,0.25,75,88.0
1364,G3,172.5,0.25,75,88.0
1365,C3,172.75,0.5,75,88.0
1366,E-5,173.0,0.25,95,88.0
1367,C4,173.0,0.25,75,88.0
1368,G3,173.0,0.25,75,88.0
1369,G#4,173.25,0.25,95,88.0
1370,C3,173.25,0.5,75,88.0
1371,B-4,173.5,0.25,95,88.0
1372,G3,173.5,0.25,75,88.0
1373,C4,173.5,0.25,75,88.0
1374,E-5,173.75,0.25,95,88.0
1375,B-2,173.75,0.5,75,88.0
1376,B-4,174.0,0.25,95,88.0
1377,B-3,174.0,0.25,75,88.0
1378,F3,174.0,0.25,75,88.0
1379,G#4,174.25,0.25,95,88.0
1380,B-2,174.25,0.5,75,88.0
1381,G4,174.5,31/250,95,88.0
1382,F3,174.5,0.25,75,88.0
1383,B-3,174.5,0.25,75,88.0
1384,G#4,174.624,31/250,95,88.0
1385,G4,174.75,0.25,95,88.0
1386,B-2,174.75,0.5,75,88.0
1387,G#4,175.0,0.25,95,88.0
1388,B-3,175.0,0.25,75,88.0
1389,F3,175.0,0.25,75,88.0
1390,G4,175.25,0.25,95,88.0
1391,B-2,175.25,0.5,75,88.0
1392,F4,175.5,0.25,95,88.0
1393,F3,175.5,0.25,75,88.0
1394,B-3,175.5,0.25,75,88.0
1395,G4,175.75,0.25,95,88.0
1396,B-1,175.75,0.25,75,88.0
1397,B-2,175.75,0.25,75,88.0
1398,B-4,176.0,0.25,95,88.0
1399,G#1,176.0,0.25,75,88.0
1400,G#2,176.0,0.25,75,88.0
1401,E-5,176.25,0.25,95,88.0
1402,G#2,176.25,0.5,75,88.0
1403,G#4,176.5,0.25,95,88.0
1404,G#3,176.5,0.25,75,88.0
1405,E-3,176.5,0.25,75,88.0
1406,B-4,176.75,0.25,95,88.0
1407,G#2,176.75,0.5,75,88.0
1408,E-5,177.0,0.25,95,88.0
1409,E-3,177.0,0.25,75,88.0
1410,G#3,177.0,0.25,75,88.0
1411,G#4,177.25,0.25,95,88.0
1412,G#2,177.25,0.5,75,88.0
1413,B-4,177.5,0.25,95,88.0
1414,G#3,177.5,0.25,75,88.0
1415,E-3,177.5,0.25,75,88.0
1416,E-5,177.75,0.25,95,88.0
1417,G#2,177.75,0.5,75,88.0
1418,B-4,178.0,0.25,95,88.0
1419,E-3,178.0,0.25,75,88.0
1420,G#3,178.0,0.25,75,88.0
1421,G#4,178.25,0.25,95,88.0
1422,G#2,178.25,0.5,75,88.0
1423,G4,178.5,31/250,95,88.0
1424,E-3,178.5,0.25,75,88.0
1425,G#3,178.5,0.25,75,88.0
1426,G#4,178.624,31/250,95,88.0
1427,G4,178.75,0.25,95,88.0
1428,G#2,178.75,0.5,75,88.0
1429,G#4,179.0,0.25,95,88.0
1430,G#3,179.0,0.25,75,88.0
1431,E-3,179.0,0.25,75,88.0
1432,G4,179.25,0.25,95,88.0
1433,G#2,179.25,0.5,75,88.0
1434,F4,179.5,0.25,95,88.0
1435,E-3,179.5,0.25,75,88.0
1436,G#3,179.5,0.25,75,88.0
1437,G4,179.75,0.25,95,88.0
1438,C2,179.75,0.25,75,88.0
1439,C3,179.75,0.25,75,88.0
1440,E-5,180.0,0.25,95,88.0
1441,C2,180.0,0.25,75,88.0
1442,C3,180.0,0.25,75,88.0
1443,G4,180.25,0.25,95,88.0
1444,C3,180.25,0.5,75,88.0
1445,B-4,180.5,0.5,95,88.0
1446,G3,180.5,0.25,75,88.0
1447,C4,180.5,0.25,75,88.0
1448,C3,180.75,0.5,75,88.0
1449,E-5,181.0,0.25,95,88.0
1450,G3,181.0,0.25,75,88.0
1451,C4,181.0,0.25,75,88.0
1452,G#4,181.25,0.25,95,88.0
1453,C3,181.25,0.5,75,88.0
1454,B-4,181.5,0.25,95,88.0
1455,C4,181.5,0.25,75,88.0
1456,G3,181.5,0.25,75,88.0
1457,E-5,181.75,0.25,95,88.0
1458,B-2,181.75,0.5,75,88.0
1459,B-4,182.0,0.25,95,88.0
1460,B-3,182.0,0.25,75,88.0
1461,F3,182.0,0.25,75,88.0
1462,G#4,182.25,0.25,95,88.0
1463,B-2,182.25,0.5,75,88.0
1464,G4,182.5,31/250,95,88.0
1465,B-3,182.5,0.25,75,88.0
1466,F3,182.5,0.25,75,88.0
1467,G#4,182.624,31/250,95,88.0
1468,G4,182.75,0.25,95,88.0
1469,B-2,182.75,0.5,75,88.0
1470,G#4,183.0,0.25,95,88.0
1471,F3,183.0,0.25,75,88.0
1472,B-3,183.0,0.25,75,88.0
1473,G4,183.25,0.25,95,88.0
1474,B-2,183.25,0.5,75,88.0
1475,E-5,183.5,0.25,95,88.0
1476,B-3,183.5,0.25,75,88.0
1477,F3,183.5,0.25,75,88.0
1478,B-4,183.75,0.25,95,88.0
1479,B-1,183.75,0.25,75,88.0
1480,B-2,183.75,0.25,75,88.0
1481,C5,184.0,0.25,95,88.0
1482,B-4,184.25,0.25,95,88.0
