,note_name,start_time,duration,velocity,tempo
0,C6,1.5,1.0,56,179.0
1,B-5,2.5,0.5,56,179.0
2,G#5,3.0,0.5,56,179.0
3,G5,3.5,0.5,55,179.0
4,F5,4.0,1.0,55,179.0
5,C#3,4.0,0.5,29,179.0
6,G#3,4.5,0.5,48,179.0
7,C6,5.0,0.5,55,179.0
8,C#4,5.0,0.5,51,179.0
9,C6,5.5,2.0,55,179.0
10,E-4,5.5,1.5,52,179.0
11,C#4,7.0,1.0,53,179.0
12,C#3,7.0,1.0,53,179.0
13,C6,7.5,0.5,52,179.0
14,B-5,8.0,1.0,51,179.0
15,E-3,8.0,0.5,57,179.0
16,B-3,8.5,0.5,57,179.0
17,G#5,9.0,1.0,49,179.0
18,E-4,9.0,0.5,60,179.0
19,F4,9.5,0.5,60,179.0
20,G5,10.0,1.0,48,179.0
21,G4,10.0,2.0,60,179.0
22,G#5,11.0,1.0,48,179.0
23,B-5,12.0,1.0,48,179.0
24,C3,12.0,0.5,60,179.0
25,G3,12.5,0.5,59,179.0
26,C6,13.0,1.0,48,179.0
27,E-4,13.0,0.5,57,179.0
28,C4,13.5,0.5,56,179.0
29,C#6,14.0,1.0,47,179.0
30,B-4,14.0,0.5,53,179.0
31,G4,14.5,0.5,52,179.0
32,C6,15.0,1.0,47,179.0
33,E-4,15.0,0.5,49,179.0
34,C4,15.5,0.5,47,179.0
35,B-5,16.0,0.5,47,179.0
36,F3,16.0,0.5,47,179.0
37,G#5,16.5,0.5,48,179.0
38,C4,16.5,0.5,47,179.0
39,G5,17.0,0.5,49,179.0
40,F4,17.0,0.5,49,179.0
41,G#4,17.5,2.5,40,179.0
42,F5,17.5,2.5,51,179.0
43,C5,17.5,2.5,51,179.0
44,G#5,17.5,2.5,51,179.0
45,G#4,20.0,4.0,40,179.0
46,F5,23.0,3.0,51,179.0
47,C5,23.0,3.0,51,179.0
48,G#5,23.0,3.0,51,179.0
49,C#2,24.0,1.0,73,179.0
50,C#3,24.0,1.0,73,179.0
51,C#4,25.0,0.5,73,179.0
52,G#3,25.0,0.5,73,179.0
53,F3,25.0,0.5,73,179.0
54,B-5,26.0,0.25,73,179.0
55,C#2,26.0,0.5,73,179.0
56,C6,26.25,0.25,73,179.0
57,C#6,26.5,0.25,73,179.0
58,C#3,26.5,1.0,73,179.0
59,E-6,26.75,0.25,73,179.0
60,F6,27.0,0.5,73,179.0
61,C6,27.5,0.5,73,179.0
62,F8,27.5,0.5,73,179.0
63,E-3,27.5,0.5,73,179.0
64,E-2,27.5,0.5,73,179.0
65,F6,28.0,0.5,73,179.0
66,E-3,28.0,0.5,73,179.0
67,E-2,28.0,0.5,73,179.0
68,G#6,28.5,0.25,73,179.0
69,E-3,28.5,0.5,73,179.0
70,G6,28.75,0.25,73,179.0
71,E-6,29.0,0.5,73,179.0
72,B-3,29.0,0.5,73,179.0
73,G#5,29.5,0.5,73,179.0
74,E-4,29.5,0.5,73,179.0
75,C6,30.0,0.5,73,179.0
76,G4,30.0,0.5,73,179.0
77,B-5,30.5,0.5,73,179.0
78,E-4,30.5,0.5,73,179.0
79,B-5,31.0,0.5,73,179.0
80,B-3,31.0,0.5,73,179.0
81,G#5,31.5,0.5,73,179.0
82,E-3,31.5,0.5,73,179.0
83,B-5,32.0,0.5,73,179.0
84,C3,32.0,1.0,73,179.0
85,C2,32.0,1.0,73,179.0
86,G#5,32.5,0.5,73,179.0
87,C#6,33.0,31/125,73,179.0
88,E3,33.0,0.5,73,179.0
89,G3,33.0,0.5,73,179.0
90,C4,33.0,0.5,73,179.0
91,E-6,33.25,31/125,73,179.0
92,F6,33.5,31/125,73,179.0
93,C2,33.5,0.5,73,179.0
94,G6,33.75,31/125,73,179.0
95,G#6,34.0,1.0,73,179.0
96,C3,34.0,0.5,73,179.0
97,E3,34.5,0.5,73,179.0
98,E2,34.5,0.5,73,179.0
99,G6,35.0,1.5,73,179.0
100,F3,35.5,0.5,73,179.0
101,F2,35.5,0.5,73,179.0
102,F3,36.0,0.5,73,179.0
103,F2,36.0,0.5,73,179.0
104,G#5,36.5,0.25,73,179.0
105,F3,36.5,0.5,73,179.0
106,G#5,36.75,0.25,73,179.0
107,B-5,37.0,0.25,73,179.0
108,F4,37.0,0.5,73,179.0
109,F4,37.5,0.5,73,179.0
110,C#6,37.5,0.5,73,179.0
111,B-5,37.5,0.5,73,179.0
112,G5,37.5,0.5,73,179.0
113,E5,37.5,0.5,73,179.0
114,F5,38.0,0.25,73,179.0
115,C5,38.25,0.25,73,179.0
116,G#4,38.5,0.25,73,179.0
117,G#5,38.5,0.5,73,179.0
118,F5,38.5,0.5,73,179.0
119,F6,38.5,0.5,73,179.0
120,C6,38.5,0.5,73,179.0
121,F4,38.75,0.25,73,179.0
122,C4,39.0,0.25,73,179.0
123,G#5,39.0,1.5,73,179.0
124,F5,39.0,1.5,73,179.0
125,F6,39.0,1.5,73,179.0
126,C6,39.0,1.5,73,179.0
127,G#3,39.25,0.25,73,179.0
128,F3,39.5,0.5,73,179.0
129,B-1,40.0,0.5,73,179.0
130,G5,40.5,0.25,73,179.0
131,B-2,40.5,0.5,73,179.0
132,G5,40.75,0.25,73,179.0
133,G#5,41.0,1.0,73,179.0
134,B-1,41.0,0.5,73,179.0
135,B-2,41.5,0.5,73,179.0
136,B-5,42.0,1.0,73,179.0
137,B-1,42.0,0.5,73,179.0
138,B-2,42.5,0.5,73,179.0
139,C6,43.0,0.5,73,179.0
140,B-1,43.0,0.5,73,179.0
141,E-5,43.5,0.25,73,179.0
142,B-2,43.5,0.5,73,179.0
143,F5,43.75,0.25,73,179.0
144,G5,44.0,0.5,73,179.0
145,C2,44.0,0.5,73,179.0
146,G#5,44.5,1.5,73,179.0
147,C3,44.5,0.5,73,179.0
148,C2,45.0,0.5,73,179.0
149,C3,45.5,0.5,73,179.0
150,B-5,46.0,0.5,73,179.0
151,C2,46.0,0.5,73,179.0
152,C3,46.5,0.5,73,179.0
153,E-5,46.5,0.5,73,179.0
154,E-6,46.5,0.5,73,179.0
155,F6,47.0,0.5,73,179.0
156,C2,47.0,0.5,73,179.0
157,G6,47.5,0.5,73,179.0
158,C3,47.5,0.5,73,179.0
159,F6,48.0,0.5,73,179.0
160,C#2,48.0,0.5,73,179.0
161,E-6,48.5,1.0,73,179.0
162,C#3,48.5,0.5,73,179.0
163,C#2,49.0,0.5,73,179.0
164,C#3,49.5,0.5,73,179.0
165,E-6,50.0,0.5,73,179.0
166,C#2,50.0,0.5,73,179.0
167,E-6,50.5,0.25,73,179.0
168,C#3,50.5,0.5,73,179.0
169,C#6,50.75,0.25,73,179.0
170,C6,51.0,0.5,73,179.0
171,C#2,51.0,0.5,73,179.0
172,F5,51.5,0.5,73,179.0
173,E-3,51.5,0.5,73,179.0
174,E-2,51.5,0.5,73,179.0
175,G5,52.0,0.5,73,179.0
176,G#5,52.5,1.0,73,179.0
177,E-3,52.5,0.5,73,179.0
178,E-2,52.5,0.5,73,179.0
179,E-3,53.0,0.5,73,179.0
180,E-2,53.0,0.5,73,179.0
181,C#6,53.5,0.5,73,179.0
182,E-2,53.5,1.0,73,179.0
183,E-3,53.5,1.0,73,179.0
184,E-6,54.0,0.5,73,179.0
185,G#6,54.5,0.5,73,179.0
186,G#6,55.0,0.5,73,179.0
187,B-6,55.5,0.5,73,179.0
188,B-6,56.0,3.0,73,179.0
189,G#2,56.5,0.5,49,179.0
190,G#3,57.0,0.5,53,179.0
191,G#2,57.5,0.5,53,179.0
192,G#3,58.0,0.5,53,179.0
193,G#2,58.5,0.5,53,179.0
194,G#3,59.0,0.5,53,179.0
195,G#4,59.0,2.5,57,179.0
196,C5,59.0,2.5,57,179.0
197,G#2,59.5,0.5,51,179.0
198,G#3,60.0,0.5,48,179.0
199,G2,60.5,0.5,45,179.0
200,G3,61.0,0.5,43,179.0
201,G2,61.5,0.5,41,179.0
202,G#4,61.5,0.5,63,179.0
203,C5,61.5,0.5,63,179.0
204,G3,62.0,0.5,40,179.0
205,G#4,62.0,0.5,63,179.0
206,C5,62.0,0.5,63,179.0
207,G2,62.5,0.5,39,179.0
208,G#4,62.5,0.5,63,179.0
209,C#5,62.5,0.5,63,179.0
210,G3,63.0,0.5,39,179.0
211,B-4,63.0,1.0,60,179.0
212,E-5,63.0,1.0,60,179.0
213,G2,63.5,0.5,39,179.0
214,G3,64.0,0.5,39,179.0
215,B-4,64.0,1.0,56,179.0
216,C#5,64.0,1.0,56,179.0
217,F#2,64.5,0.5,39,179.0
218,F#3,65.0,0.5,39,179.0
219,G4,65.0,1.0,55,179.0
220,C5,65.0,1.0,55,179.0
221,F#2,65.5,0.5,39,179.0
222,F#3,66.0,0.5,39,179.0
223,G4,66.0,1.0,56,179.0
224,B-4,66.0,1.0,56,179.0
225,F#2,66.5,0.5,39,179.0
226,F#3,67.0,0.5,39,179.0
227,F#4,67.0,1.0,59,179.0
228,B-4,67.0,1.0,59,179.0
229,F#2,67.5,0.5,39,179.0
230,F#3,68.0,0.5,39,179.0
231,F#4,68.0,0.5,60,179.0
232,B-4,68.0,0.5,60,179.0
233,F2,68.5,0.5,39,179.0
234,F#4,68.5,1.0,60,179.0
235,B-4,68.5,1.0,60,179.0
236,F3,69.0,0.5,39,179.0
237,C5,69.5,0.5,65,179.0
238,F2,69.5,0.5,39,179.0
239,B-4,70.0,0.5,65,179.0
240,F3,70.0,0.5,40,179.0
241,F2,70.5,0.5,41,179.0
242,F4,70.5,0.5,65,179.0
243,A4,70.5,0.5,65,179.0
244,F3,71.0,0.5,44,179.0
245,F2,71.5,0.5,45,179.0
246,F3,72.0,0.5,45,179.0
247,B-2,72.5,0.5,47,179.0
248,B-3,73.0,0.5,47,179.0
249,B-2,73.5,0.5,47,179.0
250,B-3,74.0,0.5,47,179.0
251,B-2,74.5,0.5,47,179.0
252,B-3,75.0,0.5,47,179.0
253,F4,75.0,4.0,65,179.0
254,A4,75.0,4.0,65,179.0
255,B-2,75.5,0.5,47,179.0
256,B-3,76.0,0.5,47,179.0
257,A2,76.5,0.5,47,179.0
258,A3,77.0,0.5,47,179.0
259,A2,77.5,0.5,47,179.0
260,A3,78.0,0.5,47,179.0
261,A2,78.5,0.5,47,179.0
262,A3,79.0,0.5,47,179.0
263,B-4,79.0,2.5,65,179.0
264,F4,79.0,2.5,65,179.0
265,C#5,79.0,2.5,65,179.0
266,A2,79.5,0.5,47,179.0
267,A3,80.0,0.5,45,179.0
268,G#2,80.5,0.5,45,179.0
269,G#3,81.0,0.5,44,179.0
270,C#5,81.5,0.5,65,179.0
271,G#2,81.5,0.5,44,179.0
272,C#5,82.0,0.5,65,179.0
273,G#3,82.0,0.5,44,179.0
274,E-5,82.5,0.5,65,179.0
275,G#2,82.5,0.5,44,179.0
276,F5,83.0,1.0,65,179.0
277,G#3,83.0,0.5,44,179.0
278,G#2,83.5,0.5,44,179.0
279,E-5,84.0,1.0,65,179.0
280,G#3,84.0,0.5,44,179.0
281,G2,84.5,0.5,47,179.0
282,C#5,85.0,1.0,65,179.0
283,G3,85.0,0.5,48,179.0
284,G2,85.5,0.5,49,179.0
285,C5,86.0,1.0,65,179.0
286,G3,86.0,0.5,49,179.0
287,E-3,86.5,1.0,51,179.0
288,B-3,86.5,1.0,51,179.0
289,G3,86.5,1.0,51,179.0
290,G#4,87.0,1.5,65,179.0
291,C5,87.0,1.5,65,179.0
292,C#2,87.5,0.5,73,179.0
293,C#3,87.5,0.5,73,179.0
294,C3,88.0,0.5,73,179.0
295,C2,88.0,0.5,73,179.0
296,G#4,88.5,1.0,65,179.0
297,C5,88.5,1.0,65,179.0
298,C3,89.0,0.5,73,179.0
299,C2,89.0,0.5,73,179.0
300,C#5,89.5,0.5,65,179.0
301,C3,89.5,0.5,73,179.0
302,G#4,90.0,0.5,65,179.0
303,C5,90.0,0.5,65,179.0
304,E-3,90.0,0.5,73,179.0
305,G3,90.0,0.5,73,179.0
306,B-3,90.0,0.5,73,179.0
307,C3,90.5,0.5,73,179.0
308,G4,90.5,0.5,65,179.0
309,B-4,90.5,0.5,65,179.0
310,C3,91.0,0.5,73,179.0
311,C3,91.5,0.5,73,179.0
312,E-3,92.0,0.5,73,179.0
313,G3,92.0,0.5,73,179.0
314,B-3,92.0,0.5,73,179.0
315,C2,92.5,0.5,73,179.0
316,C3,92.5,0.5,73,179.0
317,G4,93.5,2.5,65,179.0
318,B-4,93.5,2.5,65,179.0
319,C2,93.5,0.5,73,179.0
320,C3,93.5,0.5,73,179.0
321,G2,94.0,0.5,73,179.0
322,E2,94.5,0.5,73,179.0
323,E3,94.5,0.5,73,179.0
324,C3,95.0,0.5,73,179.0
325,G2,95.5,0.5,73,179.0
326,G3,95.5,0.5,73,179.0
327,C5,96.0,0.5,73,179.0
328,E3,96.0,0.5,73,179.0
329,C#5,96.5,0.5,73,179.0
330,C3,96.5,1.0,73,179.0
331,C4,96.5,1.0,73,179.0
332,G4,97.0,0.5,73,179.0
333,E-5,97.0,0.5,73,179.0
334,C5,97.0,0.5,73,179.0
335,F3,97.5,0.5,73,179.0
336,F2,97.5,0.5,73,179.0
337,F3,98.0,0.5,73,179.0
338,G4,98.5,1.0,73,179.0
339,E-5,98.5,1.0,73,179.0
340,C5,98.5,1.0,73,179.0
341,G#3,98.5,0.5,73,179.0
342,C4,98.5,0.5,73,179.0
343,E-2,99.0,1.0,73,179.0
344,E-3,99.0,1.0,73,179.0
345,G4,99.5,1.0,73,179.0
346,E-5,99.5,1.0,73,179.0
347,C5,99.5,1.0,73,179.0
348,E-3,100.0,0.5,73,179.0
349,G4,100.5,0.5,73,179.0
350,E-5,100.5,0.5,73,179.0
351,C5,100.5,0.5,73,179.0
352,G3,100.5,0.5,73,179.0
353,B-3,100.5,0.5,73,179.0
354,G4,101.0,1.0,73,179.0
355,E-5,101.0,1.0,73,179.0
356,C5,101.0,1.0,73,179.0
357,D2,101.0,0.5,73,179.0
358,D3,101.0,0.5,73,179.0
359,G4,102.0,0.5,73,179.0
360,E5,102.0,0.5,73,179.0
361,C5,102.0,0.5,73,179.0
362,D2,102.0,0.5,73,179.0
363,D3,102.0,0.5,73,179.0
364,D2,102.5,0.5,73,179.0
365,D3,103.0,0.5,73,179.0
366,G4,103.0,0.5,73,179.0
367,E5,103.0,0.5,73,179.0
368,C5,103.0,0.5,73,179.0
369,D2,103.5,0.5,73,179.0
370,G4,103.5,0.5,73,179.0
371,E5,103.5,0.5,73,179.0
372,C5,103.5,0.5,73,179.0
373,G4,104.0,1.0,73,179.0
374,E5,104.0,1.0,73,179.0
375,C5,104.0,1.0,73,179.0
376,C#2,104.0,0.5,73,179.0
377,C#3,104.0,0.5,73,179.0
378,G5,105.0,1.0,73,179.0
379,C5,105.0,117/125,73,179.0
380,E5,105.0,117/125,73,179.0
381,C#3,105.0,0.5,73,179.0
382,C#2,105.0,0.5,73,179.0
383,G#5,106.0,469/500,73,179.0
384,E5,106.0,469/500,73,179.0
385,C5,106.0,469/500,73,179.0
386,C2,106.0,0.5,73,179.0
387,C3,106.0,0.5,73,179.0
388,G#2,106.5,0.5,73,179.0
389,G5,107.0,1.5,73,179.0
390,C5,107.0,469/500,73,179.0
391,C3,107.0,0.5,73,179.0
392,G#3,107.5,1.0,73,179.0
393,E-3,107.5,1.0,73,179.0
394,F5,108.5,1.0,73,179.0
395,E-3,108.5,0.5,73,179.0
396,C3,109.0,0.5,73,179.0
397,G5,109.5,1.0,73,179.0
398,G#2,109.5,0.5,73,179.0
399,B-1,110.0,0.5,73,179.0
400,B-2,110.0,0.5,73,179.0
401,B-2,110.5,0.5,73,179.0
402,D5,110.5,0.5,73,179.0
403,G#5,110.5,0.5,73,179.0
404,C#3,111.0,0.5,73,179.0
405,F3,111.0,0.5,73,179.0
406,B-3,111.0,0.5,73,179.0
407,B-2,111.5,0.5,73,179.0
408,E-2,112.0,0.5,73,179.0
409,E-3,112.0,0.5,73,179.0
410,E-3,112.5,0.5,73,179.0
411,D5,113.0,2.0,73,179.0
412,G#5,113.0,2.0,73,179.0
413,E-4,113.0,0.5,73,179.0
414,B-3,113.0,0.5,73,179.0
415,G3,113.0,0.5,73,179.0
416,G#2,113.5,0.5,73,179.0
417,G#1,113.5,0.5,73,179.0
418,G#2,114.5,0.5,73,179.0
419,G#1,114.5,0.5,73,179.0
420,G#2,115.0,0.5,73,179.0
421,C#5,115.0,0.5,73,179.0
422,G5,115.0,0.5,73,179.0
423,C3,115.5,0.5,73,179.0
424,E-3,115.5,0.5,73,179.0
425,G#3,115.5,0.5,73,179.0
426,G#2,116.0,0.5,73,179.0
427,F5,116.0,0.5,73,179.0
428,C#5,116.0,0.5,73,179.0
429,G#3,116.5,0.5,73,179.0
430,E-3,116.5,0.5,73,179.0
431,C3,116.5,0.5,73,179.0
432,G#2,117.0,0.5,73,179.0
433,E-5,117.0,1.5,73,179.0
434,C5,117.0,1.5,73,179.0
435,G#3,117.5,0.5,73,179.0
436,E-3,117.5,0.5,73,179.0
437,C3,117.5,0.5,73,179.0
438,G#2,118.0,0.5,73,179.0
439,G#1,118.0,0.5,73,179.0
440,G#5,118.5,1.5,73,179.0
441,C5,118.5,1.5,73,179.0
442,E-5,118.5,1.5,73,179.0
443,G#2,119.0,0.5,73,179.0
444,G#1,119.0,0.5,73,179.0
445,C5,120.0,1.0,73,179.0
446,G#2,120.0,1.0,73,179.0
447,G#1,120.0,1.0,73,179.0
448,C#5,121.0,1.0,73,179.0
449,G#2,121.0,0.5,73,179.0
450,G#1,121.0,0.5,73,179.0
451,G2,121.5,1.0,73,179.0
452,G1,121.5,1.0,73,179.0
453,G#5,122.0,1.0,73,179.0
454,F2,122.5,0.5,73,179.0
455,F1,122.5,0.5,73,179.0
456,G5,123.0,0.5,73,179.0
457,F2,123.0,0.5,73,179.0
458,F1,123.0,0.5,73,179.0
459,F5,123.5,0.5,73,179.0
460,F2,123.5,0.5,73,179.0
461,F1,123.5,0.5,73,179.0
462,G5,124.0,0.5,73,179.0
463,G5,124.5,0.5,73,179.0
464,G5,125.0,0.5,73,179.0
465,F1,125.0,0.5,73,179.0
466,F2,125.5,0.5,73,179.0
467,G#5,125.5,249/500,73,179.0
468,E-5,125.5,249/500,73,179.0
469,C5,125.5,249/500,73,179.0
470,G#5,126.0,1.0,73,179.0
471,E-5,126.0,1.0,73,179.0
472,C5,126.0,1.0,73,179.0
473,C#2,126.0,0.5,73,179.0
474,C#1,126.0,0.5,73,179.0
475,C#2,126.5,0.5,73,179.0
476,C#1,126.5,0.5,73,179.0
477,G#2,127.0,0.5,73,179.0
478,E-4,127.5,0.5,73,179.0
479,G#4,127.5,0.5,73,179.0
480,C5,127.5,0.5,73,179.0
481,C#3,127.5,0.5,73,179.0
482,F3,127.5,0.5,73,179.0
483,G#2,128.0,0.5,73,179.0
484,E-4,128.0,0.5,73,179.0
485,G#4,128.0,0.5,73,179.0
486,C5,128.0,0.5,73,179.0
487,C#2,128.5,0.5,73,179.0
488,E-4,128.5,0.5,73,179.0
489,G#4,128.5,0.5,73,179.0
490,C#5,128.5,0.5,73,179.0
491,G#2,129.0,0.5,73,179.0
492,E-4,129.5,0.5,73,179.0
493,G#4,129.5,0.5,73,179.0
494,C#5,129.5,0.5,73,179.0
495,F3,129.5,0.5,73,179.0
496,C#3,129.5,0.5,73,179.0
497,G#2,130.0,0.5,73,179.0
498,C5,130.5,1.5,73,179.0
499,E-4,130.5,1.5,73,179.0
500,G#4,130.5,1.5,73,179.0
501,E-1,130.5,0.5,73,179.0
502,E-2,130.5,0.5,73,179.0
503,E-1,131.0,0.5,73,179.0
504,E-2,131.0,0.5,73,179.0
505,E-1,131.5,0.5,73,179.0
506,E-2,131.5,0.5,73,179.0
507,E-4,132.0,1.0,73,179.0
508,G4,132.0,1.0,73,179.0
509,B-4,132.0,1.0,73,179.0
510,E-1,133.0,0.5,73,179.0
511,C4,133.0,0.5,73,179.0
512,G#4,133.0,0.5,73,179.0
513,F4,133.0,0.5,73,179.0
514,E-2,133.5,0.5,73,179.0
515,F4,133.5,0.5,73,179.0
516,G#4,133.5,0.5,73,179.0
517,C4,133.5,0.5,73,179.0
518,F4,134.0,0.5,73,179.0
519,G#4,134.0,0.5,73,179.0
520,C4,134.0,0.5,73,179.0
521,C1,134.0,0.5,73,179.0
522,C2,134.0,0.5,73,179.0
523,C5,134.5,0.5,73,179.0
524,C1,134.5,0.5,73,179.0
525,C2,134.5,0.5,73,179.0
526,F5,135.0,0.5,73,179.0
527,G2,135.0,0.5,73,179.0
528,G#5,135.5,1.0,73,179.0
529,C3,135.5,0.5,73,179.0
530,E-3,135.5,0.5,73,179.0
531,G2,136.0,0.5,73,179.0
532,G5,136.5,0.5,73,179.0
533,C2,136.5,0.5,73,179.0
534,G5,137.0,0.5,73,179.0
535,G2,137.0,0.5,73,179.0
536,G5,137.5,0.5,73,179.0
537,E-3,137.5,1.0,73,179.0
538,C3,137.5,1.0,73,179.0
539,F5,138.0,1.0,73,179.0
540,F4,138.5,3.0,53,179.0
541,C#4,138.5,3.0,53,179.0
542,B-3,138.5,3.0,53,179.0
543,G#4,138.5,3.0,53,179.0
544,E-5,139.0,1.0,73,179.0
545,C#5,140.0,1.0,73,179.0
546,G4,141.0,0.5,73,179.0
547,B-4,141.0,0.5,73,179.0
548,E-4,141.0,0.5,73,179.0
549,E-4,141.5,0.5,73,179.0
550,B-4,141.5,0.5,73,179.0
551,G4,141.5,0.5,73,179.0
552,C4,141.5,1.0,51,179.0
553,E-4,141.5,1.0,51,179.0
554,G4,141.5,1.0,51,179.0
555,B-4,141.5,1.0,51,179.0
556,E-4,142.0,0.5,73,179.0
557,B-4,142.0,0.5,73,179.0
558,G4,142.0,0.5,73,179.0
559,B-4,142.5,0.5,73,179.0
560,E-5,143.0,0.5,73,179.0
561,G5,143.5,1.0,73,179.0
562,B-5,144.5,0.5,73,179.0
563,C4,144.5,2.0,51,179.0
564,E-4,144.5,2.0,51,179.0
565,G4,144.5,2.0,51,179.0
566,B-4,144.5,2.0,51,179.0
567,B-5,145.0,0.5,73,179.0
568,B-5,145.5,0.5,73,179.0
569,G#5,146.0,1.0,73,179.0
570,G#3,146.5,1.0,73,179.0
571,G#2,146.5,1.0,73,179.0
572,G5,147.0,1.0,73,179.0
573,F#3,147.5,1.0,73,179.0
574,F#2,147.5,1.0,73,179.0
575,E-5,148.0,1.0,73,179.0
576,E2,148.5,0.5,73,179.0
577,E3,148.5,0.5,73,179.0
578,C#5,149.0,1.5,61,179.0
579,B2,149.0,0.5,73,179.0
580,E3,149.5,0.5,73,179.0
581,G#3,150.0,0.5,73,179.0
582,B3,150.0,0.5,73,179.0
583,G#5,150.5,1.5,56,179.0
584,E2,151.0,0.5,73,179.0
585,E3,151.0,0.5,73,179.0
586,E-5,152.0,1.0,56,179.0
587,E-2,152.0,0.5,73,179.0
588,E-3,152.0,0.5,73,179.0
589,E-2,152.5,0.5,73,179.0
590,E-3,152.5,0.5,73,179.0
591,E-5,153.0,0.5,56,179.0
592,E-3,153.0,0.5,73,179.0
593,G#5,153.5,1.5,57,179.0
594,G3,153.5,0.5,73,179.0
595,B-3,153.5,0.5,73,179.0
596,E-3,154.0,0.5,73,179.0
597,E-3,154.5,0.75,73,179.0
598,E-2,154.5,0.75,73,179.0
599,G#5,155.0,1.0,73,179.0
600,D3,155.25,0.75,73,179.0
601,D2,155.25,0.75,73,179.0
602,B-5,156.0,1.0,73,179.0
603,C#3,156.0,0.5,73,179.0
604,C#2,156.0,0.5,73,179.0
605,C3,156.5,0.5,73,179.0
606,C2,156.5,0.5,73,179.0
607,G#5,157.0,1.0,73,179.0
608,B5,157.0,1.0,73,179.0
609,B-5,158.0,0.5,73,179.0
610,G#5,158.5,1.0,73,179.0
611,B5,159.5,1.0,73,179.0
612,C4,159.5,31/500,73,179.0
613,B3,159.5,31/500,73,179.0
614,A3,159.624,31/500,73,179.0
615,G3,159.688,31/500,73,179.0
616,F3,159.688,31/500,73,179.0
617,E3,159.812,31/500,73,179.0
618,D3,159.812,31/500,73,179.0
619,C3,159.938,31/500,73,179.0
620,B2,159.938,31/500,73,179.0
621,A2,160.062,31/500,73,179.0
622,G2,160.062,31/500,73,179.0
623,F2,160.188,31/500,73,179.0
624,E2,160.188,31/500,73,179.0
625,D2,160.312,31/500,73,179.0
626,C2,160.312,31/500,73,179.0
627,G5,160.5,0.5,73,179.0
628,B-5,160.5,0.5,73,179.0
629,C#2,160.5,0.5,73,179.0
630,C#1,160.5,0.5,73,179.0
631,G#2,161.0,0.5,73,179.0
632,C#3,161.0,0.5,73,179.0
633,C#2,161.5,0.5,73,179.0
634,G5,161.5,0.5,73,179.0
635,B-5,161.5,0.5,73,179.0
636,G4,162.0,0.5,73,179.0
637,B-4,162.0,0.5,73,179.0
638,E-4,162.0,0.5,73,179.0
639,C#3,162.0,0.5,73,179.0
640,G#2,162.0,0.5,73,179.0
641,C#2,162.5,0.5,73,179.0
642,G4,162.5,0.5,73,179.0
643,B-4,162.5,0.5,73,179.0
644,E-4,162.5,0.5,73,179.0
645,G4,163.0,0.5,73,179.0
646,B-4,163.0,0.5,73,179.0
647,E-4,163.0,0.5,73,179.0
648,C#3,163.0,0.5,73,179.0
649,G#2,163.0,0.5,73,179.0
650,C#2,163.5,0.5,73,179.0
651,E-5,163.5,0.75,73,179.0
652,E-6,163.5,0.75,73,179.0
653,C#3,164.0,0.5,73,179.0
654,G#2,164.0,0.5,73,179.0
655,D5,164.25,187/250,73,179.0
656,D6,164.25,187/250,73,179.0
657,E-1,164.5,0.5,73,179.0
658,E-2,164.5,0.5,73,179.0
659,C#5,165.0,0.5,73,179.0
660,C#6,165.0,0.5,73,179.0
661,E-3,165.0,0.5,73,179.0
662,B-2,165.0,0.5,73,179.0
663,E-2,165.5,0.5,73,179.0
664,C5,165.5,0.5,73,179.0
665,C6,165.5,0.5,73,179.0
666,C6,166.0,0.5,73,179.0
667,B-2,166.0,0.5,73,179.0
668,E-3,166.0,0.5,73,179.0
669,C7,166.5,0.5,73,179.0
670,E-2,166.5,0.5,73,179.0
671,C5,167.0,1.0,73,179.0
672,C6,167.0,1.0,73,179.0
673,E5,167.0,1.0,73,179.0
674,G5,167.0,1.0,73,179.0
675,B-2,167.0,0.5,73,179.0
676,E-3,167.0,0.5,73,179.0
677,E-2,167.5,0.5,73,179.0
678,B-4,168.0,0.5,73,179.0
679,B-5,168.0,0.5,73,179.0
680,B-2,168.0,0.5,73,179.0
681,E-3,168.0,0.5,73,179.0
682,G#4,168.5,0.5,73,179.0
683,G#5,168.5,0.5,73,179.0
684,C2,168.5,0.5,73,179.0
685,C1,168.5,0.5,73,179.0
686,G4,169.0,0.5,73,179.0
687,G5,169.0,0.5,73,179.0
688,G2,169.0,0.5,73,179.0
689,C3,169.0,0.5,73,179.0
690,C2,169.5,0.5,73,179.0
691,F4,169.5,1.0,73,179.0
692,F5,169.5,1.0,73,179.0
693,G#4,169.5,1.0,73,179.0
694,C3,170.0,0.5,73,179.0
695,G2,170.0,0.5,73,179.0
696,C2,170.5,0.5,73,179.0
697,C5,170.5,0.5,73,179.0
698,C6,170.5,0.5,73,179.0
699,C5,171.0,1031/500,73,179.0
700,C6,171.0,1031/500,73,179.0
701,G#5,171.0,1031/500,73,179.0
702,F5,171.0,1031/500,73,179.0
703,C3,171.0,0.5,73,179.0
704,G2,171.0,0.5,73,179.0
705,C2,171.5,0.5,73,179.0
706,G2,172.0,0.5,73,179.0
707,C3,172.0,0.5,73,179.0
708,F2,172.5,0.5,73,179.0
709,F1,172.5,0.5,73,179.0
710,C5,173.0,0.5,73,179.0
711,C6,173.0,0.5,73,179.0
712,C3,173.0,0.5,73,179.0
713,F3,173.0,0.5,73,179.0
714,F2,173.5,0.5,73,179.0
715,B-4,173.5,1.0,73,179.0
716,B-5,173.5,1.0,73,179.0
717,E-5,173.5,1.0,73,179.0
718,F3,174.0,0.5,73,179.0
719,C3,174.0,0.5,73,179.0
720,F2,174.5,0.5,73,179.0
721,G#4,174.5,1.0,73,179.0
722,G#5,174.5,1.0,73,179.0
723,F3,175.0,0.5,73,179.0
724,C3,175.0,0.5,73,179.0
725,F2,175.5,0.5,73,179.0
726,G4,175.5,1.0,73,179.0
727,G5,175.5,1.0,73,179.0
728,B-4,175.5,1.0,73,179.0
729,C3,176.0,0.5,73,179.0
730,F3,176.0,0.5,73,179.0
731,G#4,176.5,1.0,73,179.0
732,G#5,176.5,1.0,73,179.0
733,B-2,176.5,0.5,73,179.0
734,B-1,176.5,0.5,73,179.0
735,F3,177.0,0.5,73,179.0
736,B-3,177.0,0.5,73,179.0
737,B-2,177.5,0.5,73,179.0
738,B-4,177.5,2.0,73,179.0
739,B-5,177.5,2.0,73,179.0
740,E-5,177.5,2.0,73,179.0
741,B-3,178.0,0.5,73,179.0
742,F3,178.0,0.5,73,179.0
743,B-2,178.5,0.5,73,179.0
744,B-3,179.0,0.5,73,179.0
745,F3,179.0,0.5,73,179.0
746,B-2,179.5,0.5,73,179.0
747,C5,179.5,2.0,73,179.0
748,C6,179.5,2.0,73,179.0
749,E-5,179.5,2.0,73,179.0
750,G5,179.5,2.0,73,179.0
751,F3,180.0,0.5,73,179.0
752,B-3,180.0,0.5,73,179.0
753,C2,180.5,0.5,73,179.0
754,C1,180.5,0.5,73,179.0
755,G2,181.0,0.5,73,179.0
756,C3,181.0,0.5,73,179.0
757,C2,181.5,0.5,73,179.0
758,B-4,181.562,0.5,73,179.0
759,B-5,181.562,0.5,73,179.0
760,C5,181.562,31/500,73,179.0
761,C6,181.562,31/500,73,179.0
762,E-5,181.562,31/500,73,179.0
763,G5,181.562,31/500,73,179.0
764,C3,182.0,0.5,73,179.0
765,G2,182.0,0.5,73,179.0
766,G#4,182.062,0.5,73,179.0
767,G#5,182.062,0.5,73,179.0
768,E2,182.5,0.5,73,179.0
769,E1,182.5,0.5,73,179.0
770,G4,182.562,0.5,73,179.0
771,G5,182.562,0.5,73,179.0
772,E3,183.0,0.5,73,179.0
773,C3,183.0,0.5,73,179.0
774,G#4,183.062,2.5,73,179.0
775,G#5,183.062,2.5,73,179.0
776,C5,183.062,1031/500,73,179.0
777,F5,183.062,1031/500,73,179.0
778,E2,183.5,0.5,73,179.0
779,C3,184.0,0.5,73,179.0
780,E3,184.0,0.5,73,179.0
781,F3,184.5,0.5,73,179.0
782,F2,184.5,0.5,73,179.0
783,F3,185.0,0.5,73,179.0
784,G#3,185.5,219/500,73,179.0
785,F4,185.5,219/500,73,179.0
786,C4,185.5,219/500,73,179.0
787,E2,186.0,1.0,73,179.0
788,E3,186.0,1.0,73,179.0
789,F4,186.062,219/500,73,179.0
790,F5,186.062,219/500,73,179.0
791,B-4,186.062,219/500,73,179.0
792,C#5,186.062,219/500,73,179.0
793,F4,186.562,219/500,73,179.0
794,F5,186.562,219/500,73,179.0
795,B-4,186.562,219/500,73,179.0
796,C#5,186.562,219/500,73,179.0
797,E3,187.0,0.5,73,179.0
798,F4,187.062,0.5,73,179.0
799,F5,187.062,0.5,73,179.0
800,B-4,187.062,0.5,73,179.0
801,C#5,187.062,0.5,73,179.0
802,G#3,187.5,187/500,73,179.0
803,E4,187.5,187/500,73,179.0
804,C4,187.5,187/500,73,179.0
805,G4,187.562,0.5,73,179.0
806,G5,187.562,0.5,73,179.0
807,E-3,188.0,0.5,73,179.0
808,E-2,188.0,0.5,73,179.0
809,G#4,188.062,1.0,73,179.0
810,G#5,188.062,1.0,73,179.0
811,E-3,188.5,0.5,73,179.0
812,E-2,188.5,0.5,73,179.0
813,E-3,189.0,0.5,73,179.0
814,B-4,189.062,0.5,73,179.0
815,B-5,189.062,0.5,73,179.0
816,G#3,189.5,249/500,73,179.0
817,F4,189.5,249/500,73,179.0
818,C4,189.5,249/500,73,179.0
819,G5,189.562,0.5,73,179.0
820,E-3,190.0,0.5,73,179.0
821,G4,190.062,0.5,58,179.0
822,D3,190.5,343/500,73,179.0
823,D2,190.5,343/500,73,179.0
824,G5,190.562,0.5,73,179.0
825,G4,191.062,0.5,58,179.0
826,D3,191.5,343/500,73,179.0
827,D2,191.5,343/500,73,179.0
828,G#5,191.562,0.5,73,179.0
829,G#4,192.062,0.5,58,179.0
830,B-5,192.562,0.5,73,179.0
831,B-4,193.062,0.5,58,179.0
832,C#2,193.5,0.5,73,179.0
833,C#3,193.5,0.5,73,179.0
834,C6,193.562,1.5,73,179.0
835,C5,193.562,1.5,73,179.0
836,G#5,193.562,1.5,73,179.0
837,F5,193.562,1.5,73,179.0
838,C#2,194.0,0.5,73,179.0
839,C#3,194.0,0.5,73,179.0
840,C#2,194.5,0.5,73,179.0
841,C#3,194.5,0.5,73,179.0
842,C#2,195.0,0.5,73,179.0
843,C5,195.062,1.0,73,179.0
844,C6,195.062,1.0,73,179.0
845,E5,195.062,1.0,73,179.0
846,F3,195.5,0.5,73,179.0
847,C#3,195.5,0.5,73,179.0
848,E-2,196.0,0.5,73,179.0
849,G#4,196.062,0.5,73,179.0
850,G#5,196.062,0.5,73,179.0
851,E-3,196.5,0.5,73,179.0
852,B-4,196.562,0.5,73,179.0
853,B-5,196.562,0.5,73,179.0
854,E-3,197.0,0.5,73,179.0
855,C5,197.062,0.5,73,179.0
856,C6,197.062,0.5,73,179.0
857,G3,197.5,0.5,73,179.0
858,B-3,197.5,0.5,73,179.0
859,E-4,197.5,0.5,73,179.0
860,E-3,198.0,0.5,73,179.0
861,E-3,198.5,0.5,73,179.0
862,E-3,199.0,0.5,73,179.0
863,C5,199.062,1.0,73,179.0
864,C6,199.062,1.0,73,179.0
865,G#5,199.062,1.0,73,179.0
866,F5,199.062,1.0,73,179.0
867,B-3,199.5,281/500,73,179.0
868,G3,199.5,281/500,73,179.0
869,E-4,199.5,281/500,73,179.0
870,E-3,200.0,249/500,73,179.0
871,B-4,200.062,0.5,73,179.0
872,B-5,200.062,0.5,73,179.0
873,G#4,200.562,0.5,73,179.0
874,G#5,200.562,0.5,73,179.0
875,G4,201.062,0.5,73,179.0
876,G5,201.062,0.5,73,179.0
877,C2,201.5,109/250,73,179.0
878,C3,201.5,109/250,73,179.0
879,F4,201.562,1.0,73,179.0
880,F5,201.562,1.0,73,179.0
881,G#4,201.562,1.0,73,179.0
882,C5,202.562,0.5,73,179.0
883,C6,202.562,0.5,73,179.0
884,C5,203.062,1031/500,73,179.0
885,C6,203.062,1031/500,73,179.0
886,G#5,203.062,1031/500,73,179.0
887,F5,203.062,1031/500,73,179.0
888,E2,203.5,109/250,73,179.0
889,E3,203.5,109/250,73,179.0
890,F3,204.5,0.5,73,179.0
891,F2,204.5,109/250,73,179.0
892,F3,205.0,0.5,73,179.0
893,C5,205.062,0.5,73,179.0
894,C6,205.062,0.5,73,179.0
895,F4,205.5,0.5,73,179.0
896,C4,205.5,0.5,73,179.0
897,G#3,205.5,0.5,73,179.0
898,B-4,205.562,1.0,73,179.0
899,B-5,205.562,1.0,73,179.0
900,E-5,205.562,1.0,73,179.0
901,E-2,206.0,1.0,73,179.0
902,E-3,206.0,1.0,73,179.0
903,G#4,206.562,1.0,73,179.0
904,G#5,206.562,1.0,73,179.0
905,E-3,207.0,0.5,73,179.0
906,G3,207.5,187/500,73,179.0
907,E-4,207.5,187/500,73,179.0
908,B-3,207.5,187/500,73,179.0
909,G4,207.562,1.0,73,179.0
910,G5,207.562,1.0,73,179.0
911,B-4,207.562,1.0,73,179.0
912,E-3,208.0,187/500,73,179.0
913,B-1,208.5,249/500,73,179.0
914,G#4,208.562,1.0,73,179.0
915,G#5,208.562,1.0,73,179.0
916,B-2,209.0,249/500,73,179.0
917,B-1,209.5,249/500,73,179.0
918,B-4,209.562,2.0,73,179.0
919,B-5,209.562,2.0,73,179.0
920,E5,209.562,2.0,73,179.0
921,G5,209.562,2.0,73,179.0
922,B-2,210.0,249/500,73,179.0
923,B-1,210.5,249/500,73,179.0
924,B-2,211.0,249/500,73,179.0
925,B-1,211.5,249/500,73,179.0
926,C5,211.562,1.0,73,179.0
927,C6,211.562,1.0,73,179.0
928,G5,211.562,1.0,73,179.0
929,E5,211.562,1.0,73,179.0
930,B-2,212.0,249/500,73,179.0
931,C2,212.5,249/500,73,179.0
932,C5,212.562,1.0,73,179.0
933,C6,212.562,1.0,73,179.0
934,G5,212.562,1.0,73,179.0
935,E5,212.562,1.0,73,179.0
936,C3,213.0,249/500,73,179.0
937,C2,213.5,249/500,73,179.0
938,B-4,213.624,0.5,73,179.0
939,B-5,213.624,0.5,73,179.0
940,C5,213.624,31/500,73,179.0
941,C6,213.624,31/500,73,179.0
942,G5,213.624,31/500,73,179.0
943,E5,213.624,31/500,73,179.0
944,C3,214.0,249/500,73,179.0
945,G#4,214.124,0.5,73,179.0
946,G#5,214.124,0.5,73,179.0
947,C2,214.5,249/500,73,179.0
948,G4,214.624,0.5,73,179.0
949,G5,214.624,0.5,73,179.0
950,C3,215.0,249/500,73,179.0
951,G#4,215.124,2.5,73,179.0
952,G#5,215.124,2.5,73,179.0
953,C2,215.5,249/500,73,179.0
954,C3,216.0,249/500,73,179.0
955,C#3,216.5,1.0,73,179.0
956,C#2,216.5,1.0,73,179.0
957,C#3,217.5,0.5,73,179.0
958,G#4,217.624,0.5,73,179.0
959,G#5,217.624,0.5,73,179.0
960,F3,218.0,0.5,73,179.0
961,G#3,218.0,0.5,73,179.0
962,C#4,218.0,0.5,73,179.0
963,G#4,218.124,0.5,73,179.0
964,G#5,218.124,0.5,73,179.0
965,G#4,218.624,0.5,73,179.0
966,G#5,218.624,0.5,73,179.0
967,C#2,219.0,0.5,73,179.0
968,C#3,219.0,0.5,73,179.0
969,F4,219.124,1.0,73,179.0
970,F5,219.124,1.0,73,179.0
971,E-3,220.0,0.5,73,179.0
972,E-2,220.0,0.5,73,179.0
973,F4,220.124,0.5,73,179.0
974,F5,220.124,0.5,73,179.0
975,E-3,220.5,0.5,73,179.0
976,E-2,220.5,0.5,73,179.0
977,G4,220.624,0.5,73,179.0
978,G5,220.624,0.5,73,179.0
979,E-3,221.0,0.5,73,179.0
980,G#4,221.124,0.5,73,179.0
981,G#5,221.124,0.5,73,179.0
982,B-3,221.5,0.5,73,179.0
983,B-4,221.624,0.5,73,179.0
984,B-5,221.624,0.5,73,179.0
985,E-4,222.0,0.5,73,179.0
986,B-4,222.124,0.5,73,179.0
987,B-5,222.124,0.5,73,179.0
988,G4,222.5,0.5,73,179.0
989,B-4,222.624,0.5,73,179.0
990,B-5,222.624,0.5,73,179.0
991,E-4,223.0,0.5,73,179.0
992,G4,223.124,1.0,73,179.0
993,G5,223.124,1.0,73,179.0
994,B-3,223.5,0.5,73,179.0
995,E-3,224.0,0.5,73,179.0
996,G4,224.124,0.5,73,179.0
997,G5,224.124,0.5,73,179.0
998,G#3,224.5,0.5,73,179.0
999,G#2,224.5,0.5,73,179.0
1000,G#4,224.624,0.5,73,179.0
1001,G#5,224.624,0.5,73,179.0
1002,G#3,225.0,0.5,73,179.0
1003,G#2,225.0,0.5,73,179.0
1004,B-4,225.124,0.5,73,179.0
1005,B-5,225.124,0.5,73,179.0
1006,C5,225.624,1.0,73,179.0
1007,C6,225.624,1.0,73,179.0
1008,F5,225.624,1.0,73,179.0
1009,F#2,226.0,0.5,73,179.0
1010,F#3,226.0,0.5,73,179.0
1011,F#3,226.5,0.5,73,179.0
1012,F#2,226.5,0.5,73,179.0
1013,C#5,226.624,0.5,73,179.0
1014,C#6,226.624,0.5,73,179.0
1015,C5,227.124,1.0,73,179.0
1016,C6,227.124,1.0,73,179.0
1017,F5,227.124,1.0,73,179.0
1018,E2,227.5,0.5,73,179.0
1019,E3,227.5,0.5,73,179.0
1020,E3,228.0,0.5,73,179.0
1021,E2,228.0,0.5,73,179.0
1022,G#4,228.124,1.0,73,179.0
1023,G#5,228.124,1.0,73,179.0
1024,E-3,229.0,0.5,73,179.0
1025,E-2,229.0,0.5,73,179.0
1026,B-4,229.124,0.5,73,179.0
1027,B-5,229.124,0.5,73,179.0
1028,E-5,229.124,0.5,73,179.0
1029,E-2,229.5,0.5,73,179.0
1030,E-3,229.5,0.5,73,179.0
1031,F2,230.5,1.0,73,179.0
1032,F3,230.5,1.0,73,179.0
1033,B-4,231.124,1.5,73,179.0
1034,B-5,231.124,1.5,73,179.0
1035,E-5,231.124,1.5,73,179.0
1036,G2,231.5,1.0,73,179.0
1037,G3,231.5,1.0,73,179.0
1038,G#2,232.5,249/500,73,179.0
1039,G#3,232.5,249/500,73,179.0
1040,B-4,232.624,0.5,73,179.0
1041,B-5,232.624,0.5,73,179.0
1042,E-3,233.0,0.5,73,179.0
1043,B-4,233.124,0.5,73,179.0
1044,B-5,233.124,0.5,73,179.0
1045,G#3,233.5,249/500,73,179.0
1046,G#2,233.5,249/500,73,179.0
1047,G#4,233.624,0.5,73,179.0
1048,G#5,233.624,0.5,73,179.0
1049,E-3,234.0,0.5,73,179.0
1050,G4,234.124,0.5,73,179.0
1051,G5,234.124,0.5,73,179.0
1052,G#2,234.5,249/500,73,179.0
1053,G#3,234.5,249/500,73,179.0
1054,G#4,234.624,0.5,73,179.0
1055,G#5,234.624,0.5,73,179.0
1056,E-3,235.0,0.5,73,179.0
1057,G#4,235.124,0.5,73,179.0
1058,E-5,235.124,0.5,73,179.0
1059,G#5,235.124,0.5,73,179.0
1060,C5,235.124,0.5,73,179.0
1061,G#3,235.5,249/500,73,179.0
1062,G#2,235.5,249/500,73,179.0
1063,G#4,235.624,0.5,73,179.0
1064,E-5,235.624,0.5,73,179.0
1065,G#5,235.624,0.5,73,179.0
1066,C5,235.624,0.5,73,179.0
1067,E-3,236.0,0.5,73,179.0
1068,G3,236.5,249/500,73,179.0
1069,G2,236.5,249/500,73,179.0
1070,F#4,236.624,0.5,73,179.0
1071,F#5,236.624,0.5,73,179.0
1072,E-3,237.0,0.5,73,179.0
1073,F#4,237.124,0.5,73,179.0
1074,F#5,237.124,0.5,73,179.0
1075,G2,237.5,249/500,73,179.0
1076,G3,237.5,249/500,73,179.0
1077,E-3,238.0,0.5,73,179.0
1078,E4,238.124,0.5,73,179.0
1079,E5,238.124,0.5,73,179.0
1080,B4,238.124,0.5,73,179.0
1081,G#4,238.124,0.5,73,179.0
1082,G2,238.5,249/500,73,179.0
1083,G3,238.5,249/500,73,179.0
1084,E4,238.624,0.5,73,179.0
1085,E5,238.624,0.5,73,179.0
1086,B4,238.624,0.5,73,179.0
1087,G#4,238.624,0.5,73,179.0
1088,E-3,239.0,0.5,73,179.0
1089,G2,239.5,249/500,73,179.0
1090,G3,239.5,249/500,73,179.0
1091,E-4,239.624,0.5,73,179.0
1092,E-5,239.624,0.5,73,179.0
1093,E-3,240.0,0.5,73,179.0
1094,E-4,240.124,0.5,73,179.0
1095,E-5,240.124,0.5,73,179.0
1096,E-3,240.5,249/500,73,179.0
1097,E-2,240.5,249/500,73,179.0
1098,E-4,240.624,0.5,73,179.0
1099,E-5,240.624,0.5,73,179.0
1100,B-2,241.0,0.5,73,179.0
1101,F4,241.124,1.0,73,179.0
1102,F5,241.124,1.0,73,179.0
1103,E-2,241.5,249/500,73,179.0
1104,E-3,241.5,249/500,73,179.0
1105,B-2,242.0,0.5,73,179.0
1106,G4,242.124,1.0,73,179.0
1107,G5,242.124,1.0,73,179.0
1108,E-2,242.5,249/500,73,179.0
1109,E-3,242.5,249/500,73,179.0
1110,B-2,243.0,0.5,73,179.0
1111,G#5,243.124,281/500,73,179.0
1112,E-2,243.5,249/500,73,179.0
1113,E-3,243.5,249/500,73,179.0
1114,G#4,243.624,0.5,58,179.0
1115,B-2,244.0,0.5,73,179.0
1116,B-5,244.124,281/500,73,179.0
1117,G#2,244.5,249/500,73,179.0
1118,G#3,244.5,249/500,73,179.0
1119,B-4,244.624,0.5,58,179.0
1120,E-3,245.0,0.5,73,179.0
1121,C6,245.124,281/500,73,179.0
1122,G#3,245.5,249/500,73,179.0
1123,G#2,245.5,249/500,73,179.0
1124,C5,245.624,0.5,58,179.0
1125,E-3,246.0,0.5,73,179.0
1126,G#5,246.124,281/500,73,179.0
1127,G3,246.5,249/500,73,179.0
1128,G2,246.5,249/500,73,179.0
1129,G#4,246.624,0.5,58,179.0
1130,E-3,247.0,0.5,73,179.0
1131,C#6,247.124,281/500,73,179.0
1132,G2,247.5,249/500,73,179.0
1133,G3,247.5,249/500,73,179.0
1134,C#5,247.624,0.5,58,179.0
1135,E-3,248.0,0.5,73,179.0
1136,C6,248.124,281/500,73,179.0
1137,F2,248.5,249/500,73,179.0
1138,F3,248.5,249/500,73,179.0
1139,C5,248.624,0.5,58,179.0
1140,C3,249.0,0.5,73,179.0
1141,B-5,249.124,281/500,73,179.0
1142,F2,249.5,249/500,73,179.0
1143,F3,249.5,249/500,73,179.0
1144,B-4,249.624,0.5,58,179.0
1145,C3,250.0,0.5,73,179.0
1146,G#5,250.124,281/500,73,179.0
1147,F3,250.5,249/500,73,179.0
1148,F2,250.5,249/500,73,179.0
1149,G#4,250.624,0.5,58,179.0
1150,C3,251.0,0.5,73,179.0
1151,G5,251.124,281/500,73,179.0
1152,F2,251.5,249/500,73,179.0
1153,F3,251.5,249/500,73,179.0
1154,G4,251.624,0.5,73,179.0
1155,C3,252.0,0.5,73,179.0
1156,G#4,252.124,0.5,73,179.0
1157,G#5,252.124,0.5,73,179.0
1158,B-2,252.5,249/500,73,179.0
1159,B-3,252.5,249/500,73,179.0
1160,B-4,252.624,1.0,73,179.0
1161,B-5,252.624,1.0,73,179.0
1162,F3,253.0,0.5,73,179.0
1163,B-3,253.5,249/500,73,179.0
1164,B-2,253.5,249/500,73,179.0
1165,G#4,253.624,1.0,73,179.0
1166,G#5,253.624,1.0,73,179.0
1167,F3,254.0,0.5,73,179.0
1168,B-2,254.5,249/500,73,179.0
1169,B-3,254.5,249/500,73,179.0
1170,B-4,254.624,0.5,73,179.0
1171,B-5,254.624,0.5,73,179.0
1172,F3,255.0,0.5,73,179.0
1173,C5,255.124,1.5,73,179.0
1174,C6,255.124,1.5,73,179.0
1175,B-3,255.5,249/500,73,179.0
1176,B-2,255.5,249/500,73,179.0
1177,F3,256.0,0.5,73,179.0
1178,E-1,256.5,0.5,73,179.0
1179,B-4,256.624,0.5,73,179.0
1180,E-5,256.624,0.5,73,179.0
1181,B-5,256.624,0.5,73,179.0
1182,E-2,257.0,0.5,73,179.0
1183,B-4,257.124,2.0,73,179.0
1184,E-5,257.124,2.0,73,179.0
1185,B-5,257.124,2.0,73,179.0
1186,E-3,257.5,0.5,73,179.0
1187,G3,257.5,0.5,73,179.0
1188,E-1,258.5,0.5,73,179.0
1189,E-2,259.0,0.5,73,179.0
1190,G3,259.5,0.5,73,179.0
1191,E-3,259.5,0.5,73,179.0
1192,E-5,260.124,1.5,73,179.0
1193,E-6,260.124,1.5,73,179.0
1194,E-1,260.5,0.5,73,179.0
1195,E-2,261.0,0.5,73,179.0
1196,G3,261.5,0.5,73,179.0
1197,E-3,261.5,0.5,73,179.0
1198,G#4,261.624,0.5,73,179.0
1199,G#5,261.624,0.5,73,179.0
1200,G#4,262.124,0.5,73,179.0
1201,G#5,262.124,0.5,73,179.0
1202,E-1,262.5,0.5,73,179.0
1203,C#5,262.624,0.5,73,179.0
1204,C#6,262.624,0.5,73,179.0
1205,E-2,263.0,0.5,73,179.0
1206,C#5,263.124,0.5,73,179.0
1207,C#6,263.124,0.5,73,179.0
1208,G3,263.5,0.5,73,179.0
1209,E-3,263.5,0.5,73,179.0
1210,C#5,263.624,0.5,73,179.0
1211,C#6,263.624,0.5,73,179.0
1212,C5,264.124,1.0,73,179.0
1213,C6,264.124,1.0,73,179.0
1214,B-4,265.124,1.0,73,179.0
1215,B-5,265.124,1.0,73,179.0
1216,G#4,266.124,1.0,73,179.0
1217,G#5,266.124,1.0,73,179.0
1218,B-4,267.124,1.0,73,179.0
1219,B-5,267.124,1.0,73,179.0
1220,E-5,267.124,1.0,73,179.0
1221,G5,267.124,1.0,73,179.0
1222,E-4,268.5,83/250,73,179.0
1223,B-3,268.832,167/500,73,179.0
1224,C5,269.124,1.0,73,179.0
1225,C6,269.124,1.0,73,179.0
1226,G5,269.124,1.0,73,179.0
1227,E-5,269.124,1.0,73,179.0
1228,G3,269.166,167/500,73,179.0
1229,E-3,269.5,167/500,73,179.0
1230,B-2,269.834,167/500,73,179.0
1231,G2,270.166,167/500,73,179.0
1232,E-2,270.5,0.5,73,179.0
1233,E-1,271.0,0.5,73,179.0
1234,E-2,271.0,0.5,73,179.0
1235,C#5,271.124,1.0,73,179.0
1236,C#6,271.124,1.0,73,179.0
1237,G5,271.124,1.0,73,179.0
1238,B-5,271.124,1.0,73,179.0
1239,E-1,271.5,0.5,73,179.0
1240,E-2,271.5,0.5,73,179.0
1241,F2,272.0,0.5,73,179.0
1242,F1,272.0,0.5,73,179.0
1243,E-6,273.124,1.0,73,179.0
1244,E-5,273.124,1.0,73,179.0
1245,B-5,273.124,1.0,73,179.0
1246,G5,273.124,1.0,73,179.0
1247,C#5,275.124,1.0,73,179.0
1248,C#6,275.124,1.0,73,179.0
1249,C5,276.124,0.5,73,179.0
1250,C6,276.124,0.5,73,179.0
1251,C5,276.624,2.5,73,179.0
1252,C6,276.624,2.5,73,179.0
1253,C5,281.624,2.5,73,179.0
1254,C6,281.624,2.5,73,179.0
1255,G4,284.124,0.5,73,179.0
1256,B-4,284.124,0.5,73,179.0
1257,E-5,284.124,0.5,73,179.0
1258,G4,284.624,0.5,73,179.0
1259,B-4,284.624,0.5,73,179.0
1260,F5,284.624,0.5,73,179.0
1261,G#5,285.124,0.5,73,179.0
1262,G#4,285.124,0.5,73,179.0
1263,C5,285.124,0.5,73,179.0
1264,G#5,285.624,4.0,73,179.0
