,note_name,start_time,duration,velocity,tempo
0,A3,3.5,0.5,103,80.0
1,B2,4.0,0.5,70,80.0
2,F#4,4.0,219/500,92,80.0
3,D4,4.0,219/500,92,80.0
4,A4,4.0,219/500,92,80.0
5,F#3,4.5,0.5,70,80.0
6,F#4,4.5,0.25,92,80.0
7,A4,4.5,0.25,92,80.0
8,D4,4.5,0.25,92,80.0
9,F#4,4.75,78/125,92,80.0
10,A4,4.75,86/125,92,80.0
11,D4,4.75,86/125,92,80.0
12,D4,5.0,0.5,70,80.0
13,F#3,5.5,0.5,70,80.0
14,F#4,5.5,0.5,92,80.0
15,D4,5.5,0.5,92,80.0
16,G2,6.0,0.5,70,80.0
17,G4,6.0,0.5,92,80.0
18,B4,6.0,0.5,92,80.0
19,D4,6.0,0.5,92,80.0
20,D3,6.5,0.5,70,80.0
21,F#4,6.5,1.0,92,80.0
22,A4,6.5,1.0,92,80.0
23,D4,6.5,1.0,92,80.0
24,D4,7.0,0.5,70,80.0
25,A3,7.5,0.5,92,80.0
26,G3,7.5,0.5,70,80.0
27,A2,8.0,0.5,70,80.0
28,E4,8.0,0.5,92,80.0
29,C#4,8.0,0.5,92,80.0
30,A4,8.0,0.5,92,80.0
31,E3,8.5,0.5,70,80.0
32,E4,8.5,0.25,92,80.0
33,C#4,8.5,0.25,92,80.0
34,A4,8.5,0.25,92,80.0
35,E4,8.75,78/125,92,80.0
36,A4,8.75,86/125,92,80.0
37,C#4,8.75,86/125,92,80.0
38,D4,9.0,0.5,70,80.0
39,A3,9.5,0.5,70,80.0
40,F#4,9.5,0.5,92,80.0
41,C#4,9.5,0.5,92,80.0
42,D3,10.0,0.5,70,80.0
43,G4,10.0,0.5,92,80.0
44,D4,10.0,0.5,92,80.0
45,B4,10.0,0.5,92,80.0
46,A3,10.5,0.5,70,80.0
47,F#4,10.5,1.0,92,80.0
48,D4,10.5,1.0,92,80.0
49,A4,10.5,1.0,92,80.0
50,D4,11.0,0.5,70,80.0
51,D4,11.5,0.5,92,80.0
52,A3,11.5,0.5,70,80.0
53,B2,12.0,0.5,70,80.0
54,A4,12.0,0.5,92,80.0
55,F#4,12.0,0.5,92,80.0
56,F#3,12.5,0.5,70,80.0
57,A4,12.5,1.0,92,80.0
58,F#4,12.5,1.0,92,80.0
59,D4,13.0,0.5,70,80.0
60,F#4,13.5,187/500,92,80.0
61,F#3,13.5,0.5,70,80.0
62,G2,14.0,0.5,70,80.0
63,B4,14.0,249/500,92,80.0
64,G4,14.0,249/500,92,80.0
65,D3,14.5,0.5,70,80.0
66,A4,14.5,249/500,92,80.0
67,F#4,14.5,249/500,92,80.0
68,D4,15.0,0.5,70,80.0
69,F#4,15.0,249/500,92,80.0
70,D4,15.0,249/500,92,80.0
71,G3,15.5,0.5,70,80.0
72,E4,15.5,249/500,92,80.0
73,B3,15.5,249/500,92,80.0
74,D4,16.0,249/500,92,80.0
75,A2,16.0,0.5,70,80.0
76,D4,16.5,0.25,92,80.0
77,E3,16.5,0.5,70,80.0
78,D4,16.75,0.75,92,80.0
79,A3,17.0,0.5,70,80.0
80,A3,17.5,0.5,92,80.0
81,E3,17.5,0.5,70,80.0
82,E4,18.0,0.5,92,80.0
83,D4,18.5,0.25,92,80.0
84,D4,18.75,156/125,92,80.0
85,E4,20.0,0.25,103,80.0
86,G3,20.0,0.25,103,80.0
87,C#4,20.0,0.25,103,80.0
88,A1,20.0,0.25,80,80.0
89,A2,20.0,0.25,80,80.0
90,E4,20.25,0.25,103,80.0
91,G3,20.25,0.25,103,80.0
92,C#4,20.25,0.25,103,80.0
93,A1,20.25,0.25,80,80.0
94,A2,20.25,0.25,80,80.0
95,E4,20.5,0.25,103,80.0
96,G3,20.5,0.25,103,80.0
97,C#4,20.5,0.25,103,80.0
98,A1,20.5,0.25,80,80.0
99,A2,20.5,0.25,80,80.0
100,E4,20.75,0.25,103,80.0
101,G3,20.75,0.25,103,80.0
102,C#4,20.75,0.25,103,80.0
103,A1,20.75,0.25,80,80.0
104,A2,20.75,0.25,80,80.0
105,E4,21.5,0.25,103,80.0
106,G3,21.5,0.25,103,80.0
107,C#4,21.5,0.25,103,80.0
108,A1,21.5,0.25,80,80.0
109,A2,21.5,0.25,80,80.0
110,E4,21.75,0.25,103,80.0
111,G3,21.75,0.25,103,80.0
112,C#4,21.75,0.25,103,80.0
113,A1,21.75,0.25,80,80.0
114,A2,21.75,0.25,80,80.0
115,E4,22.0,0.25,103,80.0
116,G3,22.0,0.25,103,80.0
117,C#4,22.0,0.25,103,80.0
118,A1,22.0,0.25,80,80.0
119,A2,22.0,0.25,80,80.0
120,E4,22.25,0.25,103,80.0
121,G3,22.25,0.25,103,80.0
122,C#4,22.25,0.25,103,80.0
123,A1,22.25,0.25,80,80.0
124,A2,22.25,0.25,80,80.0
125,A3,23.0,83/500,80,80.0
126,E3,23.166,21/125,80,80.0
127,C#3,23.334,83/500,80,80.0
128,A2,23.5,83/500,80,80.0
129,E2,23.666,21/125,80,80.0
130,C#2,23.834,83/500,80,80.0
131,D4,24.0,0.5,103,80.0
132,D5,24.0,0.5,103,80.0
133,B1,24.0,0.5,80,80.0
134,B2,24.0,0.5,80,80.0
135,D3,24.5,0.25,80,80.0
136,F#5,24.5,0.5,103,80.0
137,F#6,24.5,0.5,103,80.0
138,F#3,24.75,0.25,80,80.0
139,B3,25.0,0.5,80,80.0
140,E5,25.0,0.5,103,80.0
141,E6,25.0,0.5,103,80.0
142,D5,25.5,0.5,103,80.0
143,D6,25.5,0.5,103,80.0
144,G2,25.5,0.5,80,80.0
145,G1,25.5,0.5,80,80.0
146,G3,26.0,0.25,80,80.0
147,E5,26.0,0.5,103,80.0
148,G5,26.0,0.5,103,80.0
149,B5,26.0,0.5,103,80.0
150,E6,26.0,0.5,103,80.0
151,D3,26.25,0.25,80,80.0
152,B2,26.5,0.25,80,80.0
153,D5,26.5,0.5,103,80.0
154,D6,26.5,0.5,103,80.0
155,G2,26.75,0.25,80,80.0
156,D2,27.0,0.25,80,80.0
157,B4,27.0,0.5,103,80.0
158,B5,27.0,0.5,103,80.0
159,B1,27.25,0.25,80,80.0
160,G1,27.5,0.5,80,80.0
161,A4,27.5,0.5,103,80.0
162,A5,27.5,0.5,103,80.0
163,A5,28.0,0.5,103,80.0
164,E5,28.0,0.5,103,80.0
165,A4,28.0,0.5,103,80.0
166,C#5,28.0,0.5,103,80.0
167,A1,28.0,0.5,80,80.0
168,A2,28.0,0.5,80,80.0
169,C#3,28.5,0.25,80,80.0
170,F#4,28.5,0.25,103,80.0
171,F#5,28.5,0.25,103,80.0
172,E3,28.75,0.25,80,80.0
173,E4,28.75,249/500,103,80.0
174,E5,28.75,249/500,103,80.0
175,A3,29.0,0.5,80,80.0
176,D4,29.25,0.25,103,80.0
177,D5,29.25,0.25,103,80.0
178,F#4,29.5,2.5,103,80.0
179,A4,29.5,2.5,103,80.0
180,F#5,29.5,2.5,103,80.0
181,D2,29.5,0.5,80,80.0
182,D3,29.5,0.5,80,80.0
183,D4,30.0,0.25,80,80.0
184,A3,30.25,0.25,80,80.0
185,F#3,30.5,0.25,80,80.0
186,D3,30.75,0.25,80,80.0
187,A2,31.0,0.25,80,80.0
188,F#2,31.25,0.25,80,80.0
189,D2,31.5,0.5,80,80.0
190,A4,32.0,0.5,103,80.0
191,A5,32.0,0.5,103,80.0
192,G2,32.0,0.5,80,80.0
193,G1,32.0,0.5,80,80.0
194,B2,32.5,0.25,80,80.0
195,F#4,32.5,0.25,103,80.0
196,F#5,32.5,0.25,103,80.0
197,D3,32.75,0.25,80,80.0
198,E4,32.75,0.25,103,80.0
199,E5,32.75,0.25,103,80.0
200,G3,33.0,0.5,80,80.0
201,D4,33.0,0.5,103,80.0
202,D5,33.0,0.5,103,80.0
203,A4,33.5,0.5,103,80.0
204,A5,33.5,0.5,103,80.0
205,A2,33.5,0.5,80,80.0
206,A1,33.5,0.5,80,80.0
207,A2,34.0,0.25,80,80.0
208,F#4,34.0,0.25,103,80.0
209,F#5,34.0,0.25,103,80.0
210,C#3,34.25,0.25,80,80.0
211,E4,34.25,0.25,103,80.0
212,E5,34.25,0.25,103,80.0
213,E3,34.5,0.25,80,80.0
214,D4,34.5,0.5,103,80.0
215,D5,34.5,0.5,103,80.0
216,A3,34.75,0.25,80,80.0
217,E3,35.0,0.25,80,80.0
218,E4,35.0,0.5,103,80.0
219,E5,35.0,0.5,103,80.0
220,C#3,35.25,0.25,80,80.0
221,A2,35.5,0.5,80,80.0
222,E5,35.5,0.5,103,80.0
223,A4,35.5,0.5,103,80.0
224,E4,35.5,0.5,103,80.0
225,C#5,35.5,0.5,103,80.0
226,F#2,36.0,0.5,80,80.0
227,F#1,36.0,0.5,80,80.0
228,D3,36.5,0.25,80,80.0
229,E5,36.5,0.5,103,80.0
230,A4,36.5,0.5,103,80.0
231,E4,36.5,0.5,103,80.0
232,C#5,36.5,0.5,103,80.0
233,F#3,36.75,0.25,80,80.0
234,A3,37.0,0.5,80,80.0
235,E5,37.0,0.5,103,80.0
236,E4,37.0,0.5,103,80.0
237,E5,37.5,1.0,103,80.0
238,A4,37.5,1.0,103,80.0
239,E4,37.5,1.0,103,80.0
240,C#5,37.5,1.0,103,80.0
241,D3,37.5,0.5,80,80.0
242,D2,37.5,0.5,80,80.0
243,D4,38.0,0.25,80,80.0
244,A3,38.25,0.25,80,80.0
245,F#3,38.5,0.25,80,80.0
246,A4,38.5,0.5,103,80.0
247,C#5,38.5,0.5,103,80.0
248,E5,38.5,0.5,103,80.0
249,E4,38.5,0.5,103,80.0
250,D3,38.75,0.25,80,80.0
251,A2,39.0,0.25,80,80.0
252,C#5,39.0,0.5,103,80.0
253,A4,39.0,0.5,103,80.0
254,E5,39.0,0.5,103,80.0
255,E4,39.0,0.5,103,80.0
256,F#2,39.25,0.25,80,80.0
257,D2,39.5,0.5,80,80.0
258,C#5,39.5,0.5,103,80.0
259,A4,39.5,0.5,103,80.0
260,E4,39.5,0.5,103,80.0
261,E5,39.5,0.5,103,80.0
262,D4,40.0,0.5,103,80.0
263,D5,40.0,0.5,103,80.0
264,B1,40.0,0.5,80,80.0
265,B2,40.0,0.5,80,80.0
266,D3,40.5,0.25,80,80.0
267,D4,40.5,0.5,103,80.0
268,D5,40.5,0.5,103,80.0
269,F#3,40.75,0.25,80,80.0
270,B3,41.0,0.5,80,80.0
271,F#5,41.0,0.5,103,80.0
272,F#6,41.0,0.5,103,80.0
273,E5,41.5,0.5,103,80.0
274,E6,41.5,0.5,103,80.0
275,G1,41.5,0.5,80,80.0
276,G2,41.5,0.5,80,80.0
277,G3,42.0,0.25,80,80.0
278,D5,42.0,0.5,103,80.0
279,D6,42.0,0.5,103,80.0
280,D3,42.25,0.25,80,80.0
281,B2,42.5,0.25,80,80.0
282,B5,42.5,0.5,103,80.0
283,G5,42.5,0.5,103,80.0
284,E5,42.5,0.5,103,80.0
285,E6,42.5,0.5,103,80.0
286,G2,42.75,0.25,80,80.0
287,D2,43.0,0.25,80,80.0
288,D5,43.0,0.5,103,80.0
289,D6,43.0,0.5,103,80.0
290,B1,43.25,0.25,80,80.0
291,G1,43.5,0.5,80,80.0
292,B4,43.5,0.5,103,80.0
293,B5,43.5,0.5,103,80.0
294,A4,44.0,0.5,103,80.0
295,A5,44.0,0.5,103,80.0
296,A2,44.0,0.5,80,80.0
297,A1,44.0,0.5,80,80.0
298,C#3,44.5,0.25,80,80.0
299,E5,44.5,0.5,103,80.0
300,C#5,44.5,0.5,103,80.0
301,A4,44.5,0.5,103,80.0
302,A5,44.5,0.5,103,80.0
303,E3,44.75,0.25,80,80.0
304,A3,45.0,0.5,80,80.0
305,F#4,45.0,0.25,103,80.0
306,F#5,45.0,0.25,103,80.0
307,E4,45.25,249/500,103,80.0
308,E5,45.25,249/500,103,80.0
309,D3,45.5,0.5,80,80.0
310,D2,45.5,0.5,80,80.0
311,D4,45.75,0.25,103,80.0
312,D5,45.75,0.25,103,80.0
313,D4,46.0,0.25,80,80.0
314,A4,46.0,2.5,103,80.0
315,F#4,46.0,2.5,103,80.0
316,F#5,46.0,2.5,103,80.0
317,A3,46.25,0.25,80,80.0
318,F#3,46.5,0.25,80,80.0
319,D3,46.75,0.25,80,80.0
320,A2,47.0,0.25,80,80.0
321,F#2,47.25,0.25,80,80.0
322,D2,47.5,0.5,80,80.0
323,G1,48.0,0.5,80,80.0
324,G2,48.0,0.5,80,80.0
325,B2,48.5,0.25,80,80.0
326,A4,48.5,0.5,103,80.0
327,A5,48.5,0.5,103,80.0
328,D3,48.75,0.25,80,80.0
329,G3,49.0,0.5,80,80.0
330,F#4,49.0,0.25,103,80.0
331,F#5,49.0,0.25,103,80.0
332,E4,49.25,0.25,103,80.0
333,E5,49.25,0.25,103,80.0
334,D4,49.5,0.5,103,80.0
335,D5,49.5,0.5,103,80.0
336,A2,49.5,0.5,80,80.0
337,A1,49.5,0.5,80,80.0
338,A2,50.0,0.25,80,80.0
339,A4,50.0,0.5,103,80.0
340,A5,50.0,0.5,103,80.0
341,C#3,50.25,0.25,80,80.0
342,E3,50.5,0.25,80,80.0
343,F#4,50.5,0.25,103,80.0
344,F#5,50.5,0.25,103,80.0
345,A3,50.75,0.25,80,80.0
346,E4,50.75,0.25,103,80.0
347,E5,50.75,0.25,103,80.0
348,E3,51.0,0.25,80,80.0
349,D4,51.0,0.5,103,80.0
350,D5,51.0,0.5,103,80.0
351,C#3,51.25,0.25,80,80.0
352,A2,51.5,0.5,80,80.0
353,E4,51.5,0.5,103,80.0
354,E5,51.5,0.5,103,80.0
355,A4,52.0,0.5,103,80.0
356,C#5,52.0,0.5,103,80.0
357,E4,52.0,0.5,103,80.0
358,E5,52.0,0.5,103,80.0
359,F#1,52.0,0.5,80,80.0
360,F#2,52.0,0.5,80,80.0
361,D3,52.5,0.25,80,80.0
362,F#3,52.75,0.25,80,80.0
363,A3,53.0,0.5,80,80.0
364,A4,53.0,0.5,103,80.0
365,C#5,53.0,0.5,103,80.0
366,E4,53.0,0.5,103,80.0
367,E5,53.0,0.5,103,80.0
368,E4,53.5,0.5,103,80.0
369,E5,53.5,0.5,103,80.0
370,D2,53.5,0.5,80,80.0
371,D3,53.5,0.5,80,80.0
372,A4,54.0,1.0,103,80.0
373,C#5,54.0,1.0,103,80.0
374,E4,54.0,1.0,103,80.0
375,E5,54.0,1.0,103,80.0
376,D3,54.5,0.5,80,80.0
377,D2,54.5,0.5,80,80.0
378,E4,55.0,0.5,103,80.0
379,E5,55.0,0.5,103,80.0
380,A4,55.5,0.5,103,80.0
381,F#4,55.5,0.75,103,80.0
382,D4,55.5,0.75,103,80.0
383,D5,55.5,0.75,103,80.0
384,B1,56.0,0.25,80,80.0
385,B2,56.0,0.25,80,80.0
386,A3,56.25,0.25,103,80.0
387,B3,56.5,0.25,103,80.0
388,A3,56.75,0.25,103,80.0
389,B2,56.75,0.25,80,80.0
390,F#3,56.75,0.25,80,80.0
391,D3,56.75,0.25,80,80.0
392,B3,57.0,0.25,103,80.0
393,A3,57.25,0.5,103,80.0
394,D3,57.5,0.25,80,80.0
395,F#3,57.5,0.25,80,80.0
396,B3,57.5,0.25,80,80.0
397,A3,57.75,0.25,103,80.0
398,B3,58.0,0.25,103,80.0
399,A3,58.25,0.25,103,80.0
400,B4,58.5,1.0,103,80.0
401,D3,58.5,0.25,80,80.0
402,F#3,58.5,0.25,80,80.0
403,B2,58.5,0.25,80,80.0
404,A4,59.5,0.75,103,80.0
405,B1,59.5,0.25,80,80.0
406,B2,59.5,0.25,80,80.0
407,G1,60.0,0.25,80,80.0
408,G2,60.0,0.25,80,80.0
409,A3,60.25,0.25,103,80.0
410,B3,60.5,0.25,103,80.0
411,A3,60.75,0.25,103,80.0
412,G3,60.75,0.25,80,80.0
413,B3,60.75,0.25,80,80.0
414,D3,60.75,0.25,80,80.0
415,B3,61.0,0.25,103,80.0
416,A3,61.25,0.5,103,80.0
417,A1,61.5,0.25,80,80.0
418,A2,61.5,0.25,80,80.0
419,A3,61.75,0.25,103,80.0
420,B3,62.0,0.25,103,80.0
421,A3,62.25,0.25,103,80.0
422,B4,62.5,1.0,103,80.0
423,A3,62.5,0.25,80,80.0
424,E3,62.5,0.25,80,80.0
425,C#3,62.5,0.25,80,80.0
426,A4,63.5,0.75,103,80.0
427,A2,63.5,0.25,80,80.0
428,A1,63.5,0.25,80,80.0
429,B1,64.0,0.25,80,80.0
430,B2,64.0,0.25,80,80.0
431,D5,64.25,0.25,103,80.0
432,C#5,64.5,0.25,103,80.0
433,A4,64.75,0.25,103,80.0
434,D3,64.75,0.25,80,80.0
435,F#3,64.75,0.25,80,80.0
436,B2,64.75,0.25,80,80.0
437,A4,65.0,0.5,103,80.0
438,A4,65.5,0.25,103,80.0
439,B3,65.5,0.25,80,80.0
440,F#3,65.5,0.25,80,80.0
441,D3,65.5,0.25,80,80.0
442,A4,65.75,0.25,103,80.0
443,A4,66.0,0.25,103,80.0
444,F#4,66.25,0.25,103,80.0
445,F#4,66.5,0.25,103,80.0
446,B2,66.5,0.25,80,80.0
447,F#3,66.5,0.25,80,80.0
448,D3,66.5,0.25,80,80.0
449,A4,66.75,0.25,103,80.0
450,E4,67.0,0.5,103,80.0
451,E4,67.5,0.25,103,80.0
452,B2,67.5,0.25,80,80.0
453,B1,67.5,0.25,80,80.0
454,D4,67.75,0.5,103,80.0
455,G2,68.0,0.25,80,80.0
456,G1,68.0,0.25,80,80.0
457,D4,68.25,31/125,103,80.0
458,E4,68.5,31/125,103,80.0
459,F#4,68.75,31/125,103,80.0
460,G3,68.75,0.25,80,80.0
461,B3,68.75,0.25,80,80.0
462,D3,68.75,0.25,80,80.0
463,E4,69.0,31/125,103,80.0
464,E4,69.25,31/125,103,80.0
465,E4,69.5,31/125,103,80.0
466,D2,69.5,0.25,80,80.0
467,D3,69.5,0.25,80,80.0
468,E4,69.75,31/125,103,80.0
469,E4,70.0,31/125,103,80.0
470,D4,70.25,31/125,103,80.0
471,E4,70.5,31/125,103,80.0
472,A2,70.5,0.25,80,80.0
473,D4,70.75,31/125,103,80.0
474,B2,70.75,0.25,80,80.0
475,E4,71.0,31/125,103,80.0
476,D3,71.0,0.25,80,80.0
477,D4,71.25,31/125,103,80.0
478,E3,71.25,0.75,80,80.0
479,D4,71.5,0.25,103,80.0
480,B2,72.0,0.25,80,80.0
481,B1,72.0,0.25,80,80.0
482,D4,72.5,0.25,103,80.0
483,B3,72.75,0.25,103,80.0
484,B2,72.75,0.25,80,80.0
485,F#3,72.75,0.25,80,80.0
486,D3,72.75,0.25,80,80.0
487,D4,73.0,0.5,103,80.0
488,D4,73.5,0.5,103,80.0
489,D3,73.5,0.25,80,80.0
490,B3,73.5,0.25,80,80.0
491,F#3,73.5,0.25,80,80.0
492,D4,74.0,0.25,103,80.0
493,B3,74.25,0.25,103,80.0
494,D4,74.5,0.5,103,80.0
495,F#3,74.5,0.25,80,80.0
496,B2,74.5,0.25,80,80.0
497,D3,74.5,0.25,80,80.0
498,D4,75.0,31/250,103,80.0
499,D4,75.124,63/500,103,80.0
500,D4,75.25,31/250,103,80.0
501,D4,75.374,63/500,103,80.0
502,D4,75.5,0.5,103,80.0
503,B1,75.5,0.25,80,80.0
504,B2,75.5,0.25,80,80.0
505,D4,76.0,0.25,103,80.0
506,D2,76.0,0.25,80,80.0
507,D3,76.0,0.25,80,80.0
508,D4,76.25,0.5,103,80.0
509,D4,76.75,0.25,103,80.0
510,D3,76.75,0.25,80,80.0
511,A3,76.75,0.25,80,80.0
512,F#3,76.75,0.25,80,80.0
513,E4,77.0,0.25,103,80.0
514,D4,77.25,0.25,103,80.0
515,E4,77.5,0.25,103,80.0
516,D3,77.5,0.25,80,80.0
517,D2,77.5,0.25,80,80.0
518,D4,77.75,0.25,103,80.0
519,E4,78.0,0.25,103,80.0
520,F#4,78.25,0.25,103,80.0
521,F#4,78.5,2.0,103,80.0
522,A2,78.5,0.25,80,80.0
523,B2,78.75,0.25,80,80.0
524,D3,79.0,0.25,80,80.0
525,E3,79.25,0.75,80,80.0
526,F#1,80.0,0.25,80,80.0
527,F#2,80.0,0.25,80,80.0
528,D4,80.5,0.25,103,80.0
529,B3,80.75,0.25,103,80.0
530,D3,80.75,0.25,80,80.0
531,A3,80.75,0.25,80,80.0
532,F#3,80.75,0.25,80,80.0
533,D4,81.0,0.25,103,80.0
534,D4,81.25,0.25,103,80.0
535,D4,81.5,0.25,103,80.0
536,G2,81.5,0.25,80,80.0
537,G1,81.5,0.25,80,80.0
538,B3,81.75,0.25,103,80.0
539,D4,82.0,0.25,103,80.0
540,D4,82.25,0.25,103,80.0
541,B3,82.5,0.5,103,80.0
542,A2,82.5,0.25,80,80.0
543,B2,82.75,0.25,80,80.0
544,D4,83.0,0.25,103,80.0
545,D3,83.0,0.25,80,80.0
546,D4,83.25,1.5,103,80.0
547,E3,83.25,0.25,80,80.0
548,G2,83.5,0.25,80,80.0
549,G#2,83.75,0.25,80,80.0
550,A2,84.0,0.25,80,80.0
551,A1,84.0,0.25,80,80.0
552,A3,84.75,0.25,103,80.0
553,A2,84.75,0.25,80,80.0
554,A1,84.75,0.25,80,80.0
555,E4,85.0,0.25,103,80.0
556,D4,85.25,0.25,103,80.0
557,E4,85.5,0.25,103,80.0
558,B2,85.5,1.0,80,80.0
559,B1,85.5,1.0,80,80.0
560,D4,85.75,0.25,103,80.0
561,E4,86.0,0.25,103,80.0
562,D4,86.25,0.25,103,80.0
563,D4,86.5,2.5,103,80.0
564,E3,86.5,0.5,80,80.0
565,D3,87.0,0.5,80,80.0
566,B2,87.5,0.5,80,80.0
567,E1,88.0,0.5,80,80.0
568,E2,88.0,4.0,80,80.0
569,E1,88.5,0.5,80,80.0
570,E1,89.0,0.5,80,80.0
571,A4,89.0,0.5,103,80.0
572,E4,89.0,0.5,103,80.0
573,E1,89.5,0.5,80,80.0
574,F#4,89.5,0.25,103,80.0
575,D4,89.5,0.25,103,80.0
576,E4,89.75,0.25,103,80.0
577,D4,90.0,0.5,103,80.0
578,E1,90.0,0.5,80,80.0
579,E1,90.5,0.5,80,80.0
580,A4,90.5,0.5,103,80.0
581,E4,90.5,0.5,103,80.0
582,E1,91.0,0.5,80,80.0
583,F#4,91.0,0.25,103,80.0
584,D4,91.0,0.25,103,80.0
585,E4,91.25,0.25,103,80.0
586,D4,91.5,0.5,103,80.0
587,E1,91.5,0.5,80,80.0
588,E4,92.0,0.5,103,80.0
589,B3,92.0,0.5,103,80.0
590,A2,92.0,0.25,80,80.0
591,A1,92.0,0.25,80,80.0
592,A2,92.25,0.25,80,80.0
593,A1,92.25,0.25,80,80.0
594,E4,92.5,0.5,103,80.0
595,B3,92.5,0.5,103,80.0
596,A2,92.5,0.25,80,80.0
597,A1,92.5,0.25,80,80.0
598,A2,92.75,0.25,80,80.0
599,A1,92.75,0.25,80,80.0
600,A4,93.0,0.25,103,80.0
601,C#4,93.0,0.25,103,80.0
602,E4,93.0,0.25,103,80.0
603,A3,93.0,0.25,103,80.0
604,A4,93.25,0.25,103,80.0
605,C#4,93.25,0.25,103,80.0
606,E4,93.25,0.25,103,80.0
607,A3,93.25,0.25,103,80.0
608,A4,93.5,0.25,103,80.0
609,C#4,93.5,0.25,103,80.0
610,E4,93.5,0.25,103,80.0
611,A3,93.5,0.25,103,80.0
612,A2,93.5,0.25,80,80.0
613,A1,93.5,0.25,80,80.0
614,A4,93.75,0.25,103,80.0
615,C#4,93.75,0.25,103,80.0
616,E4,93.75,0.25,103,80.0
617,A3,93.75,0.25,103,80.0
618,A2,93.75,0.25,80,80.0
619,A1,93.75,0.25,80,80.0
620,B3,94.25,0.25,80,80.0
621,A3,94.5,0.25,80,80.0
622,A4,94.5,0.25,103,80.0
623,C#4,94.5,0.25,103,80.0
624,E4,94.5,0.25,103,80.0
625,A3,94.5,0.25,103,80.0
626,F#3,94.75,0.25,80,80.0
627,A4,94.75,47/250,103,80.0
628,C#4,94.75,47/250,103,80.0
629,E4,94.75,47/250,103,80.0
630,A3,94.75,47/250,103,80.0
631,E3,95.0,0.25,80,80.0
632,D4,95.5,0.5,103,80.0
633,D5,95.5,0.5,103,80.0
634,A2,95.5,0.5,80,80.0
635,A1,95.5,0.5,80,80.0
636,B4,96.0,0.5,103,80.0
637,B5,96.0,0.5,103,80.0
638,B1,96.0,0.5,80,80.0
639,B2,96.0,0.5,80,80.0
640,D3,96.5,0.25,80,80.0
641,A4,96.5,0.5,103,80.0
642,A5,96.5,0.5,103,80.0
643,F#3,96.75,0.25,80,80.0
644,B3,97.0,0.5,80,80.0
645,D4,97.0,0.5,103,80.0
646,D5,97.0,0.5,103,80.0
647,F#5,97.5,0.5,103,80.0
648,F#6,97.5,0.5,103,80.0
649,G1,97.5,0.5,80,80.0
650,G2,97.5,0.5,80,80.0
651,G3,98.0,0.25,80,80.0
652,E5,98.0,0.5,103,80.0
653,E6,98.0,0.5,103,80.0
654,D3,98.25,0.25,80,80.0
655,B2,98.5,0.25,80,80.0
656,D5,98.5,0.5,103,80.0
657,D6,98.5,0.5,103,80.0
658,G2,98.75,0.25,80,80.0
659,D2,99.0,0.25,80,80.0
660,B5,99.0,0.5,103,80.0
661,G5,99.0,0.5,103,80.0
662,E5,99.0,0.5,103,80.0
663,E6,99.0,0.5,103,80.0
664,B1,99.25,0.25,80,80.0
665,G1,99.5,0.5,80,80.0
666,D5,99.5,0.5,103,80.0
667,D6,99.5,0.5,103,80.0
668,B4,100.0,0.5,103,80.0
669,B5,100.0,0.5,103,80.0
670,A2,100.0,0.5,80,80.0
671,A1,100.0,0.5,80,80.0
672,C#3,100.5,0.25,80,80.0
673,A4,100.5,0.5,103,80.0
674,A5,100.5,0.5,103,80.0
675,E3,100.75,0.25,80,80.0
676,A3,101.0,0.5,80,80.0
677,E5,101.0,0.5,103,80.0
678,C#5,101.0,0.5,103,80.0
679,A4,101.0,0.5,103,80.0
680,A5,101.0,0.5,103,80.0
681,F#4,101.5,0.25,103,80.0
682,F#5,101.5,0.25,103,80.0
683,D3,101.5,0.5,80,80.0
684,D2,101.5,0.5,80,80.0
685,E4,101.75,249/500,103,80.0
686,E5,101.75,249/500,103,80.0
687,D4,102.0,0.25,80,80.0
688,A3,102.25,0.25,80,80.0
689,D4,102.25,0.25,103,80.0
690,D5,102.25,0.25,103,80.0
691,F#3,102.5,0.25,80,80.0
692,A4,102.5,2.5,103,80.0
693,F#4,102.5,2.5,103,80.0
694,F#5,102.5,2.5,103,80.0
695,D3,102.75,0.25,80,80.0
696,A2,103.0,0.25,80,80.0
697,F#2,103.25,0.25,80,80.0
698,D2,103.5,0.5,80,80.0
699,G1,104.0,0.5,80,80.0
700,G2,104.0,0.5,80,80.0
701,B2,104.5,0.25,80,80.0
702,D3,104.75,0.25,80,80.0
703,G3,105.0,0.5,80,80.0
704,A4,105.0,0.5,103,80.0
705,A5,105.0,0.5,103,80.0
706,F#4,105.5,0.25,103,80.0
707,F#5,105.5,0.25,103,80.0
708,A2,105.5,0.5,80,80.0
709,A1,105.5,0.5,80,80.0
710,E4,105.75,0.25,103,80.0
711,E5,105.75,0.25,103,80.0
712,A2,106.0,0.25,80,80.0
713,D4,106.0,0.5,103,80.0
714,D5,106.0,0.5,103,80.0
715,C#3,106.25,0.25,80,80.0
716,E3,106.5,0.25,80,80.0
717,A4,106.5,0.5,103,80.0
718,A5,106.5,0.5,103,80.0
719,A3,106.75,0.25,80,80.0
720,E3,107.0,0.25,80,80.0
721,F#4,107.0,0.25,103,80.0
722,F#5,107.0,0.25,103,80.0
723,C#3,107.25,0.25,80,80.0
724,E4,107.25,0.25,103,80.0
725,E5,107.25,0.25,103,80.0
726,A2,107.5,0.5,80,80.0
727,D4,107.5,0.5,103,80.0
728,D5,107.5,0.5,103,80.0
729,E4,108.0,0.5,103,80.0
730,E5,108.0,0.5,103,80.0
731,F#1,108.0,0.5,80,80.0
732,F#2,108.0,0.5,80,80.0
733,D3,108.5,0.25,80,80.0
734,A4,108.5,0.5,103,80.0
735,C#5,108.5,0.5,103,80.0
736,E4,108.5,0.5,103,80.0
737,E5,108.5,0.5,103,80.0
738,F#3,108.75,0.25,80,80.0
739,A3,109.0,0.5,80,80.0
740,A4,109.5,0.5,103,80.0
741,C#5,109.5,0.5,103,80.0
742,E4,109.5,0.5,103,80.0
743,E5,109.5,0.5,103,80.0
744,D2,109.5,0.5,80,80.0
745,D3,109.5,0.5,80,80.0
746,D4,110.0,0.25,80,80.0
747,E4,110.0,0.5,103,80.0
748,E5,110.0,0.5,103,80.0
749,A3,110.25,0.25,80,80.0
750,F#3,110.5,0.25,80,80.0
751,A4,110.5,1.0,103,80.0
752,C#5,110.5,1.0,103,80.0
753,E4,110.5,1.0,103,80.0
754,E5,110.5,1.0,103,80.0
755,D3,110.75,0.25,80,80.0
756,A2,111.0,0.25,80,80.0
757,F#2,111.25,0.25,80,80.0
758,D2,111.5,0.5,80,80.0
759,C#5,111.5,0.5,103,80.0
760,A4,111.5,0.5,103,80.0
761,E4,111.5,0.5,103,80.0
762,E5,111.5,0.5,103,80.0
763,A4,112.0,0.5,103,80.0
764,C#5,112.0,0.5,103,80.0
765,E4,112.0,0.5,103,80.0
766,E5,112.0,0.5,103,80.0
767,B2,112.0,0.5,80,80.0
768,B1,112.0,0.5,80,80.0
769,D3,112.5,0.25,80,80.0
770,A4,112.5,0.5,103,80.0
771,C#5,112.5,0.5,103,80.0
772,E4,112.5,0.5,103,80.0
773,E5,112.5,0.5,103,80.0
774,F#3,112.75,0.25,80,80.0
775,B3,113.0,0.5,80,80.0
776,D4,113.0,0.5,103,80.0
777,D5,113.0,0.5,103,80.0
778,D4,113.5,0.5,103,80.0
779,D5,113.5,0.5,103,80.0
780,G2,113.5,0.5,80,80.0
781,G1,113.5,0.5,80,80.0
782,G3,114.0,0.25,80,80.0
783,F#5,114.0,0.5,103,80.0
784,F#6,114.0,0.5,103,80.0
785,D3,114.25,0.25,80,80.0
786,B2,114.5,0.25,80,80.0
787,E5,114.5,0.5,103,80.0
788,E6,114.5,0.5,103,80.0
789,G2,114.75,0.25,80,80.0
790,D2,115.0,0.25,80,80.0
791,D5,115.0,0.5,103,80.0
792,D6,115.0,0.5,103,80.0
793,B1,115.25,0.25,80,80.0
794,G1,115.5,0.5,80,80.0
795,B5,115.5,0.5,103,80.0
796,G5,115.5,0.5,103,80.0
797,E5,115.5,0.5,103,80.0
798,E6,115.5,0.5,103,80.0
799,D5,116.0,0.5,103,80.0
800,D6,116.0,0.5,103,80.0
801,A2,116.0,0.5,80,80.0
802,A1,116.0,0.5,80,80.0
803,C#3,116.5,0.25,80,80.0
804,B4,116.5,0.5,103,80.0
805,B5,116.5,0.5,103,80.0
806,E3,116.75,0.25,80,80.0
807,A3,117.0,0.5,80,80.0
808,A4,117.0,0.5,103,80.0
809,A5,117.0,0.5,103,80.0
810,E5,117.5,0.5,103,80.0
811,C#5,117.5,0.5,103,80.0
812,A4,117.5,0.5,103,80.0
813,A5,117.5,0.5,103,80.0
814,D2,117.5,0.5,80,80.0
815,D3,117.5,0.5,80,80.0
816,D4,118.0,0.25,80,80.0
817,F#4,118.0,0.25,103,80.0
818,F#5,118.0,0.25,103,80.0
819,A3,118.25,0.25,80,80.0
820,E4,118.25,249/500,103,80.0
821,E5,118.25,249/500,103,80.0
822,F#3,118.5,0.25,80,80.0
823,D3,118.75,0.25,80,80.0
824,D4,118.75,0.25,103,80.0
825,D5,118.75,0.25,103,80.0
826,A2,119.0,0.25,80,80.0
827,A4,119.0,2.5,103,80.0
828,F#4,119.0,2.5,103,80.0
829,F#5,119.0,2.5,103,80.0
830,F#2,119.25,0.25,80,80.0
831,D2,119.5,0.5,80,80.0
832,G1,120.0,0.5,80,80.0
833,G2,120.0,0.5,80,80.0
834,B2,120.5,0.25,80,80.0
835,D3,120.75,0.25,80,80.0
836,G3,121.0,0.5,80,80.0
837,A4,121.5,0.5,103,80.0
838,A5,121.5,0.5,103,80.0
839,A1,121.5,0.5,80,80.0
840,A2,121.5,0.5,80,80.0
841,A2,122.0,0.25,80,80.0
842,F#4,122.0,0.25,103,80.0
843,F#5,122.0,0.25,103,80.0
844,C#3,122.25,0.25,80,80.0
845,E4,122.25,0.25,103,80.0
846,E5,122.25,0.25,103,80.0
847,E3,122.5,0.25,80,80.0
848,D4,122.5,0.5,103,80.0
849,D5,122.5,0.5,103,80.0
850,A3,122.75,0.25,80,80.0
851,E3,123.0,0.25,80,80.0
852,A4,123.0,0.5,103,80.0
853,A5,123.0,0.5,103,80.0
854,C#3,123.25,0.25,80,80.0
855,A2,123.5,0.5,80,80.0
856,F#4,123.5,0.25,103,80.0
857,F#5,123.5,0.25,103,80.0
858,E4,123.75,0.25,103,80.0
859,E5,123.75,0.25,103,80.0
860,D4,124.0,0.5,103,80.0
861,D5,124.0,0.5,103,80.0
862,F#1,124.0,0.5,80,80.0
863,F#2,124.0,0.5,80,80.0
864,D3,124.5,0.25,80,80.0
865,E4,124.5,0.5,103,80.0
866,E5,124.5,0.5,103,80.0
867,F#3,124.75,0.25,80,80.0
868,A3,125.0,0.5,80,80.0
869,A4,125.0,0.5,103,80.0
870,C#5,125.0,0.5,103,80.0
871,E4,125.0,0.5,103,80.0
872,E5,125.0,0.5,103,80.0
873,D3,125.5,0.5,80,80.0
874,D2,125.5,0.5,80,80.0
875,D4,126.0,0.25,80,80.0
876,A4,126.0,0.5,103,80.0
877,C#5,126.0,0.5,103,80.0
878,E4,126.0,0.5,103,80.0
879,E5,126.0,0.5,103,80.0
880,A3,126.25,0.25,80,80.0
881,F#3,126.5,0.25,80,80.0
882,E4,126.5,0.5,103,80.0
883,E5,126.5,0.5,103,80.0
884,D3,126.75,0.25,80,80.0
885,A2,127.0,0.25,80,80.0
886,A4,127.0,1.0,103,80.0
887,C#5,127.0,1.0,103,80.0
888,E4,127.0,1.0,103,80.0
889,E5,127.0,1.0,103,80.0
890,F#2,127.25,0.25,80,80.0
891,D2,127.5,0.5,80,80.0
892,E1,128.0,0.25,80,80.0
893,C#5,128.0,0.5,103,80.0
894,A4,128.0,0.5,103,80.0
895,E4,128.0,0.5,103,80.0
896,E5,128.0,0.5,103,80.0
897,E2,128.25,0.25,80,80.0
898,G2,128.5,0.25,80,80.0
899,D4,128.5,0.75,103,80.0
900,D5,128.5,0.75,103,80.0
901,B2,128.75,0.25,80,80.0
902,E3,129.0,0.25,80,80.0
903,G3,129.25,0.25,80,80.0
904,C#4,129.25,0.25,103,80.0
905,C#5,129.25,0.25,103,80.0
906,B3,129.5,0.25,80,80.0
907,D4,129.5,0.25,103,80.0
908,D5,129.5,0.25,103,80.0
909,E3,129.75,0.25,80,80.0
910,C#4,129.75,0.25,103,80.0
911,C#5,129.75,0.25,103,80.0
912,E4,130.0,0.25,80,80.0
913,D4,130.0,0.25,103,80.0
914,D5,130.0,0.25,103,80.0
915,B3,130.25,0.25,80,80.0
916,C#4,130.25,0.25,103,80.0
917,C#5,130.25,0.25,103,80.0
918,G3,130.5,0.25,80,80.0
919,D4,130.5,109/250,103,80.0
920,D5,130.5,109/250,103,80.0
921,E3,130.75,0.25,80,80.0
922,B2,131.0,0.25,80,80.0
923,B4,131.0,281/500,103,80.0
924,B5,131.0,281/500,103,80.0
925,G2,131.25,0.25,80,80.0
926,E2,131.5,0.25,80,80.0
927,C#5,131.5,531/500,103,80.0
928,A5,131.5,531/500,103,80.0
929,A4,131.5,531/500,103,80.0
930,F#5,131.5,531/500,103,80.0
931,E1,131.75,0.25,80,80.0
932,F#1,132.0,0.25,80,80.0
933,D2,132.25,0.25,80,80.0
934,F#2,132.5,0.25,80,80.0
935,D5,132.5,0.75,103,80.0
936,G4,132.5,0.75,103,80.0
937,D4,132.5,0.75,103,80.0
938,B4,132.5,0.75,103,80.0
939,A2,132.75,0.25,80,80.0
940,D3,133.0,0.25,80,80.0
941,F#3,133.25,0.25,80,80.0
942,C#4,133.25,0.25,103,80.0
943,C#5,133.25,0.25,103,80.0
944,A3,133.5,0.25,80,80.0
945,D4,133.5,0.25,103,80.0
946,D5,133.5,0.25,103,80.0
947,D3,133.75,0.25,80,80.0
948,C#4,133.75,0.25,103,80.0
949,C#5,133.75,0.25,103,80.0
950,D4,134.0,0.25,80,80.0
951,D4,134.0,0.25,103,80.0
952,D5,134.0,0.25,103,80.0
953,A3,134.25,0.25,80,80.0
954,C#4,134.25,0.25,103,80.0
955,C#5,134.25,0.25,103,80.0
956,F#3,134.5,0.25,80,80.0
957,D4,134.5,109/250,103,80.0
958,D5,134.5,109/250,103,80.0
959,D3,134.75,0.25,80,80.0
960,A2,135.0,0.25,80,80.0
961,B4,135.0,281/500,103,80.0
962,B5,135.0,281/500,103,80.0
963,F#2,135.25,0.25,80,80.0
964,D2,135.5,0.25,80,80.0
965,F#5,135.5,1.0,103,80.0
966,A5,135.5,1.0,103,80.0
967,A4,135.5,1.0,103,80.0
968,D5,135.5,1.0,103,80.0
969,F#1,135.75,0.25,80,80.0
970,B0,136.0,0.25,80,80.0
971,B1,136.25,0.25,80,80.0
972,D2,136.5,0.25,80,80.0
973,A4,136.5,1.0,103,80.0
974,F#4,136.5,1.0,103,80.0
975,D4,136.5,1.0,103,80.0
976,D5,136.5,1.0,103,80.0
977,F#2,136.75,0.25,80,80.0
978,B2,137.0,0.25,80,80.0
979,D3,137.25,0.25,80,80.0
980,F#3,137.5,0.25,80,80.0
981,F#4,137.5,0.25,103,80.0
982,F#5,137.5,0.25,103,80.0
983,B2,137.75,0.25,80,80.0
984,G4,137.75,31/125,103,80.0
985,G5,137.75,31/125,103,80.0
986,B3,138.0,0.25,80,80.0
987,F#4,138.0,359/250,103,80.0
988,A4,138.0,359/250,103,80.0
989,F#5,138.0,359/250,103,80.0
990,F#3,138.25,0.25,80,80.0
991,D3,138.5,0.25,80,80.0
992,B2,138.75,0.25,80,80.0
993,F#2,139.0,0.25,80,80.0
994,D2,139.25,0.25,80,80.0
995,B1,139.5,0.25,80,80.0
996,F#4,139.5,0.25,103,80.0
997,F#5,139.5,0.25,103,80.0
998,B0,139.75,0.25,80,80.0
999,G4,139.75,31/125,103,80.0
1000,G5,139.75,31/125,103,80.0
1001,D5,140.0,1.0,103,80.0
1002,F#4,140.0,1.0,103,80.0
1003,F#5,140.0,1.0,103,80.0
1004,A0,140.0,0.5,80,80.0
1005,A1,140.0,0.5,80,80.0
1006,A2,140.5,0.25,80,80.0
1007,C#3,140.75,0.25,80,80.0
1008,E3,140.75,0.25,80,80.0
1009,A3,140.75,0.25,80,80.0
1010,D4,141.0,0.5,103,80.0
1011,D5,141.0,0.5,103,80.0
1012,F#4,141.0,0.5,103,80.0
1013,A2,141.25,0.25,80,80.0
1014,D4,141.5,0.5,103,80.0
1015,F#4,141.5,0.5,103,80.0
1016,D5,141.5,0.5,103,80.0
1017,D3,141.5,0.5,80,80.0
1018,D2,141.5,0.5,80,80.0
1019,D3,142.0,0.25,80,80.0
1020,F#4,142.0,0.75,103,80.0
1021,A4,142.0,0.75,103,80.0
1022,F#5,142.0,0.75,103,80.0
1023,F#3,142.25,0.25,80,80.0
1024,A3,142.5,0.25,80,80.0
1025,D4,142.75,0.25,80,80.0
1026,E4,142.75,0.75,103,80.0
1027,G4,142.75,0.75,103,80.0
1028,E5,142.75,0.75,103,80.0
1029,A3,143.0,0.25,80,80.0
1030,F#3,143.25,0.25,80,80.0
1031,D3,143.5,0.5,80,80.0
1032,E4,143.5,281/500,103,80.0
1033,G4,143.5,281/500,103,80.0
1034,E5,143.5,281/500,103,80.0
1035,E1,144.0,0.25,80,80.0
1036,D4,144.0,164/125,103,80.0
1037,F#4,144.0,164/125,103,80.0
1038,D5,144.0,164/125,103,80.0
1039,E2,144.25,0.25,80,80.0
1040,E2,144.5,0.25,80,80.0
1041,B2,144.75,0.25,80,80.0
1042,E3,145.0,0.5,80,80.0
1043,G3,145.0,0.5,80,80.0
1044,C#4,145.25,0.25,103,80.0
1045,C#5,145.25,0.25,103,80.0
1046,D4,145.5,0.25,103,80.0
1047,D5,145.5,0.25,103,80.0
1048,E2,145.5,0.75,80,80.0
1049,E1,145.5,0.75,80,80.0
1050,C#4,145.75,0.25,103,80.0
1051,C#5,145.75,0.25,103,80.0
1052,D4,146.0,0.25,103,80.0
1053,D5,146.0,0.25,103,80.0
1054,E2,146.25,0.25,80,80.0
1055,C#4,146.25,0.25,103,80.0
1056,C#5,146.25,0.25,103,80.0
1057,B2,146.5,0.25,80,80.0
1058,D4,146.5,109/250,103,80.0
1059,D5,146.5,109/250,103,80.0
1060,E3,146.75,0.25,80,80.0
1061,G3,147.0,0.25,80,80.0
1062,B4,147.0,281/500,103,80.0
1063,B5,147.0,281/500,103,80.0
1064,E3,147.25,0.25,80,80.0
1065,B2,147.5,0.25,80,80.0
1066,F#5,147.5,531/500,103,80.0
1067,C#5,147.5,531/500,103,80.0
1068,A4,147.5,531/500,103,80.0
1069,A5,147.5,531/500,103,80.0
1070,E2,147.75,0.25,80,80.0
1071,F#1,148.0,0.25,80,80.0
1072,F#2,148.25,0.25,80,80.0
1073,F#2,148.5,0.25,80,80.0
1074,B4,148.5,0.75,103,80.0
1075,G4,148.5,0.75,103,80.0
1076,D4,148.5,0.75,103,80.0
1077,D5,148.5,0.75,103,80.0
1078,C#3,148.75,0.25,80,80.0
1079,A3,149.0,0.5,80,80.0
1080,F#3,149.0,0.5,80,80.0
1081,C#4,149.25,0.25,103,80.0
1082,C#5,149.25,0.25,103,80.0
1083,D4,149.5,0.25,103,80.0
1084,D5,149.5,0.25,103,80.0
1085,F#1,149.5,0.75,80,80.0
1086,F#2,149.5,0.75,80,80.0
1087,C#4,149.75,0.25,103,80.0
1088,C#5,149.75,0.25,103,80.0
1089,D4,150.0,0.25,103,80.0
1090,D5,150.0,0.25,103,80.0
1091,F#2,150.25,0.25,80,80.0
1092,C#4,150.25,0.25,103,80.0
1093,C#5,150.25,0.25,103,80.0
1094,C#3,150.5,0.25,80,80.0
1095,D4,150.5,109/250,103,80.0
1096,D5,150.5,109/250,103,80.0
1097,F#3,150.75,0.25,80,80.0
1098,A3,151.0,0.25,80,80.0
1099,D6,151.0,0.5,103,80.0
1100,D5,151.0,0.5,103,80.0
1101,F#3,151.25,0.25,80,80.0
1102,F#5,151.5,531/500,103,80.0
1103,C#3,151.5,0.25,80,80.0
1104,C#5,151.5,0.75,103,80.0
1105,C#6,151.5,0.75,103,80.0
1106,F#2,151.75,0.25,80,80.0
1107,G1,152.0,0.5,80,80.0
1108,G2,152.0,0.5,80,80.0
1109,A4,152.25,0.25,103,80.0
1110,A5,152.25,0.25,103,80.0
1111,B2,152.5,0.25,80,80.0
1112,A4,152.5,1.0,103,80.0
1113,A5,152.5,1.0,103,80.0
1114,D3,152.75,0.25,80,80.0
1115,G3,153.0,0.5,80,80.0
1116,A4,153.5,0.25,103,80.0
1117,A5,153.5,0.25,103,80.0
1118,G2,153.5,0.5,80,80.0
1119,G1,153.5,0.5,80,80.0
1120,B4,153.75,31/125,103,80.0
1121,B5,153.75,31/125,103,80.0
1122,G3,154.0,0.25,80,80.0
1123,D5,154.0,359/250,103,80.0
1124,F#5,154.0,359/250,103,80.0
1125,A4,154.0,359/250,103,80.0
1126,A5,154.0,359/250,103,80.0
1127,D3,154.25,0.25,80,80.0
1128,B2,154.5,0.25,80,80.0
1129,G2,154.75,0.25,80,80.0
1130,D2,155.0,0.25,80,80.0
1131,B1,155.25,0.25,80,80.0
1132,G1,155.5,0.5,80,80.0
1133,A4,155.5,0.25,103,80.0
1134,A5,155.5,0.25,103,80.0
1135,B4,155.75,31/125,103,80.0
1136,B5,155.75,31/125,103,80.0
1137,D5,156.0,1.0,103,80.0
1138,F#5,156.0,1.0,103,80.0
1139,A4,156.0,1.0,103,80.0
1140,A5,156.0,1.0,103,80.0
1141,F#4,157.5,0.5,103,80.0
1142,F#5,157.5,0.5,103,80.0
1143,A4,158.0,4.0,103,80.0
1144,A5,158.0,4.0,103,80.0
