,note_name,start_time,duration,velocity,tempo
0,G4,3.0,83/500,110,91.0
1,D4,3.166,41/250,110,91.0
2,B3,3.332,41/250,110,91.0
3,G3,3.5,41/250,110,91.0
4,D3,3.666,41/250,110,91.0
5,B2,3.832,41/250,110,91.0
6,G4,3.906,47/500,110,91.0
7,C5,3.906,47/500,110,91.0
8,E5,3.906,47/500,110,91.0
9,G5,4.0,499/500,110,91.0
10,G4,4.0,113/125,110,91.0
11,C5,4.0,113/125,110,91.0
12,E5,4.0,113/125,110,91.0
13,C3,4.0,0.5,110,91.0
14,C2,4.0,0.5,110,91.0
15,C4,4.5,0.25,110,91.0
16,G3,4.5,0.25,110,91.0
17,E3,4.5,0.25,110,91.0
18,C3,4.75,0.25,110,91.0
19,G4,5.0,0.5,110,91.0
20,C3,5.0,0.25,110,91.0
21,C3,5.25,0.25,110,91.0
22,C5,5.5,0.5,110,91.0
23,E3,5.5,0.25,110,91.0
24,G3,5.5,0.25,110,91.0
25,C4,5.5,0.25,110,91.0
26,C3,5.75,0.25,110,91.0
27,F5,6.0,0.5,110,91.0
28,C3,6.0,0.5,110,91.0
29,C2,6.0,0.5,110,91.0
30,E5,6.5,0.25,110,91.0
31,G3,6.5,0.25,110,91.0
32,C4,6.5,0.25,110,91.0
33,E3,6.5,0.25,110,91.0
34,D5,6.75,0.5,110,91.0
35,C3,6.75,0.25,110,91.0
36,C3,7.0,0.25,110,91.0
37,C5,7.25,0.5,110,91.0
38,C3,7.25,0.25,110,91.0
39,C4,7.5,0.25,110,91.0
40,G3,7.5,0.25,110,91.0
41,E3,7.5,0.25,110,91.0
42,C5,7.75,0.25,110,91.0
43,C3,7.75,0.25,110,91.0
44,D5,8.0,1.25,110,91.0
45,B2,8.0,0.5,110,91.0
46,B1,8.0,0.5,110,91.0
47,F3,8.5,0.25,110,91.0
48,B3,8.5,0.25,110,91.0
49,D3,8.5,0.25,110,91.0
50,B2,8.75,0.25,110,91.0
51,B2,9.0,0.25,110,91.0
52,E5,9.25,0.25,110,91.0
53,B2,9.25,0.25,110,91.0
54,F5,9.5,0.25,110,91.0
55,B3,9.5,0.25,110,91.0
56,F3,9.5,0.25,110,91.0
57,D3,9.5,0.25,110,91.0
58,E5,9.75,31/250,110,91.0
59,B2,9.75,0.25,110,91.0
60,F5,9.874,63/500,110,91.0
61,E5,10.0,1.0,110,91.0
62,E3,10.0,0.5,110,91.0
63,E2,10.0,0.5,110,91.0
64,B3,10.5,0.25,110,91.0
65,E4,10.5,0.25,110,91.0
66,G#3,10.5,0.25,110,91.0
67,E3,10.75,0.25,110,91.0
68,D5,11.0,0.75,110,91.0
69,E3,11.0,0.25,110,91.0
70,E3,11.25,0.25,110,91.0
71,E4,11.5,0.25,110,91.0
72,B3,11.5,0.25,110,91.0
73,G#3,11.5,0.25,110,91.0
74,E5,11.75,31/250,110,91.0
75,E3,11.75,0.25,110,91.0
76,D5,11.874,63/500,110,91.0
77,C5,12.0,1.0,110,91.0
78,F2,12.0,0.25,110,91.0
79,F3,12.0,0.25,110,91.0
80,F3,12.25,0.25,110,91.0
81,A3,12.5,0.25,110,91.0
82,C4,12.5,0.25,110,91.0
83,F4,12.5,0.25,110,91.0
84,F3,12.75,0.25,110,91.0
85,A5,13.0,437/500,110,91.0
86,F4,13.0,0.25,110,91.0
87,C4,13.0,0.25,110,91.0
88,A3,13.0,0.25,110,91.0
89,F3,13.25,0.25,110,91.0
90,F4,13.5,0.25,110,91.0
91,C4,13.5,0.25,110,91.0
92,A3,13.5,0.25,110,91.0
93,F3,13.75,0.25,110,91.0
94,G5,13.874,3/50,110,91.0
95,A5,13.936,8/125,110,91.0
96,G5,14.0,53/50,110,91.0
97,G4,14.0,0.25,110,91.0
98,D4,14.0,0.25,110,91.0
99,B3,14.0,0.25,110,91.0
100,G3,14.25,0.25,110,91.0
101,D4,14.5,0.25,110,91.0
102,B3,14.5,0.25,110,91.0
103,G4,14.5,0.25,110,91.0
104,G3,14.75,0.25,110,91.0
105,D4,15.0,0.25,110,91.0
106,F4,15.0,0.25,110,91.0
107,B3,15.0,0.25,110,91.0
108,G3,15.25,0.25,110,91.0
109,B3,15.5,0.25,110,91.0
110,D4,15.5,0.25,110,91.0
111,F4,15.5,0.25,110,91.0
112,G3,15.75,0.25,110,91.0
113,C3,16.0,1.5,88,91.0
114,C2,16.0,2.0,88,91.0
115,E4,16.0,1.0,97,91.0
116,G4,16.0,1.0,97,91.0
117,C4,16.0,1.0,97,91.0
118,E4,17.0,0.5,88,91.0
119,C4,17.0,1.0,88,91.0
120,G4,17.0,1.0,88,91.0
121,E4,17.5,0.5,101,91.0
122,C3,17.5,0.5,88,91.0
123,G#4,18.0,0.5,101,91.0
124,E2,18.0,2.0,88,91.0
125,E3,18.0,1.5,88,91.0
126,D4,18.0,1.0,88,91.0
127,B3,18.0,1.0,88,91.0
128,A4,18.5,0.5,101,91.0
129,B4,19.0,0.5,101,91.0
130,B3,19.0,1.0,88,91.0
131,D4,19.0,1.0,88,91.0
132,C5,19.5,0.5,101,91.0
133,E3,19.5,0.5,88,91.0
134,C4,20.0,1.0,88,91.0
135,B4,20.0,0.5,101,91.0
136,E4,20.0,0.75,88,91.0
137,A3,20.0,1.5,88,91.0
138,A2,20.0,2.0,88,91.0
139,A4,20.5,0.25,101,91.0
140,E4,20.75,0.5,101,91.0
141,C4,21.0,0.5,88,91.0
142,D4,21.25,0.25,101,91.0
143,C4,21.5,0.5,101,91.0
144,A3,21.5,0.5,88,91.0
145,G3,22.0,1.5,88,91.0
146,G2,22.0,2.0,88,91.0
147,B-4,22.0,1.0,88,91.0
148,C4,22.0,1.0,88,91.0
149,E4,22.0,1.0,88,91.0
150,G4,22.0,1.0,88,91.0
151,C4,23.0,0.5,88,91.0
152,E4,23.0,1.0,88,91.0
153,B-4,23.0,1.0,88,91.0
154,G4,23.0,1.0,88,91.0
155,C4,23.5,0.5,101,91.0
156,G3,23.5,0.5,88,91.0
157,F3,24.0,1.5,88,91.0
158,F2,24.0,2.0,88,91.0
159,F4,24.0,1.0,92,91.0
160,C4,24.0,1.0,92,91.0
161,A4,24.0,1.0,92,91.0
162,A4,25.0,0.5,88,91.0
163,F4,25.0,1.0,88,91.0
164,C4,25.0,1.0,88,91.0
165,B4,25.5,0.5,101,91.0
166,F3,25.5,0.5,88,91.0
167,C5,26.0,0.5,101,91.0
168,F3,26.0,1.5,88,91.0
169,F2,26.0,2.0,88,91.0
170,G4,26.0,1.0,88,91.0
171,D4,26.0,1.0,88,91.0
172,D5,26.5,0.25,101,91.0
173,B4,26.75,0.5,101,91.0
174,D4,27.0,1.0,88,91.0
175,G4,27.0,0.5,88,91.0
176,A4,27.25,0.25,101,91.0
177,G4,27.5,0.5,101,91.0
178,F3,27.5,0.5,88,91.0
179,E3,28.0,1.5,88,91.0
180,E2,28.0,2.0,88,91.0
181,B3,28.0,1.0,88,91.0
182,D4,28.0,1.0,88,91.0
183,G4,28.0,1.0,88,91.0
184,G4,29.0,0.5,88,91.0
185,D4,29.0,1.0,88,91.0
186,B3,29.0,1.0,88,91.0
187,G4,29.5,0.5,101,91.0
188,E3,29.5,0.5,88,91.0
189,B-4,30.0,0.5,101,91.0
190,A3,30.0,1.5,88,91.0
191,A2,30.0,2.0,88,91.0
192,C#4,30.0,1.0,88,91.0
193,E4,30.0,1.0,88,91.0
194,B-4,30.5,0.25,101,91.0
195,A4,30.75,0.25,101,91.0
196,C#4,31.0,1.0,88,91.0
197,E4,31.0,1.0,88,91.0
198,G4,31.25,0.25,101,91.0
199,F4,31.5,0.5,101,91.0
200,A3,31.5,0.5,88,91.0
201,D3,32.0,1.5,88,91.0
202,D2,32.0,2.0,88,91.0
203,D4,32.0,1.0,88,91.0
204,A3,32.0,1.0,88,91.0
205,F4,32.0,1.0,88,91.0
206,A3,33.0,1.0,88,91.0
207,D4,33.0,0.5,101,91.0
208,E4,33.5,0.5,101,91.0
209,D3,33.5,0.5,88,91.0
210,F4,34.0,0.5,101,91.0
211,E3,34.0,1.5,88,91.0
212,E2,34.0,2.0,88,91.0
213,B3,34.0,1.0,88,91.0
214,G#3,34.0,1.0,88,91.0
215,D4,34.0,1.0,88,91.0
216,E4,34.5,0.5,101,91.0
217,G#4,35.0,0.5,101,91.0
218,F4,35.0,1.0,88,91.0
219,D4,35.0,1.0,88,91.0
220,B3,35.0,1.0,88,91.0
221,B4,35.5,0.5,101,91.0
222,E3,35.5,0.5,88,91.0
223,D5,36.0,0.5,101,91.0
224,A3,36.0,1.5,88,91.0
225,A2,36.0,2.0,88,91.0
226,E4,36.0,1.0,88,91.0
227,G4,36.0,1.0,88,91.0
228,C5,36.5,0.25,101,91.0
229,B4,36.75,0.5,101,91.0
230,E4,37.0,1.0,88,91.0
231,G4,37.0,1.0,88,91.0
232,C5,37.25,0.5,101,91.0
233,G3,37.5,0.5,88,91.0
234,E5,37.75,1.25,101,91.0
235,D3,38.0,1.5,88,91.0
236,D2,38.0,2.0,88,91.0
237,A4,38.0,1.0,88,91.0
238,F#4,38.0,1.0,88,91.0
239,C4,38.0,1.0,88,91.0
240,A4,39.0,0.5,101,91.0
241,F#4,39.0,1.0,88,91.0
242,C4,39.0,1.0,88,91.0
243,B4,39.5,0.5,101,91.0
244,D3,39.5,0.5,88,91.0
245,C5,40.0,1.0,101,91.0
246,F2,40.0,0.25,88,91.0
247,C3,40.25,0.25,88,91.0
248,F3,40.5,0.25,88,91.0
249,A3,40.75,0.25,88,91.0
250,E6,41.0,83/500,88,91.0
251,C4,41.0,0.5,101,91.0
252,C6,41.166,83/500,88,91.0
253,A5,41.332,21/125,88,91.0
254,E5,41.5,83/500,88,91.0
255,E4,41.5,0.5,101,91.0
256,C5,41.666,83/500,88,91.0
257,A4,41.832,21/125,88,91.0
258,G4,42.0,21/125,88,91.0
259,D4,42.0,0.5,101,91.0
260,G3,42.0,0.25,88,91.0
261,B4,42.166,21/125,88,91.0
262,D5,42.334,21/125,88,91.0
263,G5,42.5,21/125,88,91.0
264,E4,42.5,0.25,101,91.0
265,B5,42.666,21/125,88,91.0
266,D4,42.75,0.5,101,91.0
267,D6,42.834,21/125,88,91.0
268,F6,43.0,21/125,88,91.0
269,C4,43.25,0.5,101,91.0
270,C4,43.75,0.25,101,91.0
271,C4,44.0,0.25,101,91.0
272,C1,44.0,83/500,88,91.0
273,E1,44.166,21/125,88,91.0
274,G1,44.334,83/500,88,91.0
275,C2,44.5,83/500,88,91.0
276,E2,44.666,21/125,88,91.0
277,G2,44.834,83/500,88,91.0
278,C3,45.0,83/500,88,91.0
279,E3,45.166,83/500,88,91.0
280,G3,45.332,83/500,88,91.0
281,C4,45.5,83/500,88,91.0
282,E4,45.666,83/500,88,91.0
283,G4,45.832,83/500,88,91.0
284,C4,46.0,0.5,101,91.0
285,C5,46.0,83/500,88,91.0
286,G4,46.166,21/125,88,91.0
287,E4,46.334,83/500,88,91.0
288,D4,46.5,0.5,101,91.0
289,C4,46.5,83/500,88,91.0
290,G3,46.666,21/125,88,91.0
291,E3,46.834,83/500,88,91.0
292,E4,47.0,0.5,101,91.0
293,C3,47.0,83/500,88,91.0
294,G2,47.166,21/125,88,91.0
295,E2,47.334,83/500,88,91.0
296,F4,47.5,0.5,101,91.0
297,C2,47.5,83/500,88,91.0
298,G1,47.666,83/250,88,91.0
299,E2,48.0,0.25,110,91.0
300,G4,48.0,1.5,110,91.0
301,E4,48.0,1.5,110,91.0
302,C4,48.0,1.5,110,91.0
303,E3,48.25,0.25,110,91.0
304,C6,48.5,0.25,110,91.0
305,E2,48.5,0.25,110,91.0
306,D6,48.75,0.25,110,91.0
307,E3,48.75,0.25,110,91.0
308,C6,49.0,0.25,110,91.0
309,E2,49.0,0.25,110,91.0
310,E3,49.25,0.25,110,91.0
311,B4,49.5,0.5,110,91.0
312,E2,49.5,0.25,110,91.0
313,E3,49.75,0.25,110,91.0
314,F2,50.0,0.25,110,91.0
315,C5,50.0,1.5,110,91.0
316,A4,50.0,1.5,110,91.0
317,F4,50.0,1.5,110,91.0
318,F3,50.25,0.25,110,91.0
319,C6,50.5,0.25,110,91.0
320,F2,50.5,0.25,110,91.0
321,G6,50.75,0.25,110,91.0
322,F3,50.75,0.25,110,91.0
323,G6,51.0,0.25,110,91.0
324,F2,51.0,0.25,110,91.0
325,F3,51.25,0.25,110,91.0
326,C5,51.5,0.25,110,91.0
327,F2,51.5,0.25,110,91.0
328,D5,51.75,0.25,110,91.0
329,F3,51.75,0.25,110,91.0
330,E2,52.0,0.25,110,91.0
331,E5,52.0,0.5,110,91.0
332,G4,52.0,0.5,110,91.0
333,C5,52.0,0.5,110,91.0
334,E3,52.25,0.25,110,91.0
335,C5,52.5,0.25,110,91.0
336,E2,52.5,0.25,110,91.0
337,C5,52.75,0.5,110,91.0
338,E3,52.75,0.25,110,91.0
339,E2,53.0,0.25,110,91.0
340,A4,53.25,0.5,110,91.0
341,E3,53.25,0.25,110,91.0
342,E2,53.5,0.25,110,91.0
343,E3,53.75,0.25,110,91.0
344,G4,53.75,0.5,110,91.0
345,C4,53.75,0.5,110,91.0
346,A3,53.75,0.5,110,91.0
347,F2,54.0,0.25,110,91.0
348,F3,54.25,0.25,110,91.0
349,F2,54.5,0.25,110,91.0
350,C6,54.75,0.25,110,91.0
351,F3,54.75,0.25,110,91.0
352,B5,55.0,0.25,110,91.0
353,F2,55.0,0.25,110,91.0
354,G5,55.25,0.25,110,91.0
355,F3,55.25,0.25,110,91.0
356,C4,55.5,0.25,110,91.0
357,F2,55.5,0.25,110,91.0
358,D4,55.75,0.25,110,91.0
359,F3,55.75,0.25,110,91.0
360,E4,56.0,0.5,110,91.0
361,G2,56.0,0.5,110,91.0
362,G1,56.0,0.5,110,91.0
363,F4,56.5,0.25,110,91.0
364,G3,56.5,0.5,110,91.0
365,B3,56.5,0.5,110,91.0
366,D4,56.5,0.5,110,91.0
367,E4,56.75,0.5,110,91.0
368,G#2,57.0,0.5,110,91.0
369,G#1,57.0,0.5,110,91.0
370,D4,57.25,0.5,110,91.0
371,G#3,57.5,0.5,110,91.0
372,B3,57.5,0.5,110,91.0
373,E4,57.5,0.5,110,91.0
374,C4,57.75,0.75,110,91.0
375,A2,58.0,0.5,110,91.0
376,A1,58.0,0.5,110,91.0
377,E4,58.5,0.5,110,91.0
378,C4,58.5,0.5,110,91.0
379,E3,58.5,0.5,110,91.0
380,A3,58.5,0.5,110,91.0
381,A4,59.0,0.5,110,91.0
382,F#2,59.0,0.5,110,91.0
383,F#1,59.0,0.5,110,91.0
384,B4,59.5,0.5,110,91.0
385,C4,59.5,0.5,110,91.0
386,A3,59.5,0.5,110,91.0
387,F#3,59.5,0.5,110,91.0
388,D3,59.5,0.5,110,91.0
389,C5,60.0,2.0,110,91.0
390,D3,60.0,0.5,110,91.0
391,D2,60.0,0.5,110,91.0
392,A3,60.5,0.25,110,91.0
393,C4,60.5,0.25,110,91.0
394,F3,60.5,0.25,110,91.0
395,F5,60.75,0.25,110,91.0
396,D3,60.75,0.25,110,91.0
397,A5,61.0,0.25,110,91.0
398,D3,61.0,0.25,110,91.0
399,C6,61.25,0.25,110,91.0
400,D3,61.25,0.25,110,91.0
401,E6,61.5,0.25,110,91.0
402,C4,61.5,0.25,110,91.0
403,A3,61.5,0.25,110,91.0
404,F3,61.5,0.25,110,91.0
405,D3,61.75,0.25,110,91.0
406,E5,62.0,0.5,94,91.0
407,C5,62.0,0.5,94,91.0
408,D3,62.0,0.5,110,91.0
409,D2,62.0,0.5,110,91.0
410,D5,62.5,0.5,94,91.0
411,B4,62.5,0.5,94,91.0
412,C4,62.5,0.25,110,91.0
413,A3,62.5,0.25,110,91.0
414,F3,62.5,0.25,110,91.0
415,D3,62.75,0.25,110,91.0
416,D3,63.0,0.25,110,91.0
417,E5,63.0,0.5,94,91.0
418,C5,63.0,0.5,94,91.0
419,D3,63.25,0.25,110,91.0
420,F5,63.5,0.5,94,91.0
421,D5,63.5,0.5,94,91.0
422,A3,63.5,0.25,110,91.0
423,C4,63.5,0.25,110,91.0
424,F3,63.5,0.25,110,91.0
425,D3,63.75,0.25,110,91.0
426,G5,64.0,1.5,94,91.0
427,E5,64.0,1.5,94,91.0
428,G2,64.0,0.5,110,91.0
429,G3,64.0,0.5,110,91.0
430,G4,64.5,0.25,110,91.0
431,D4,64.5,0.25,110,91.0
432,B3,64.5,0.25,110,91.0
433,G3,64.75,0.25,110,91.0
434,G3,65.0,0.25,110,91.0
435,G3,65.25,0.25,110,91.0
436,F5,65.5,0.25,94,91.0
437,D5,65.5,0.25,94,91.0
438,D4,65.5,0.25,110,91.0
439,B3,65.5,0.25,110,91.0
440,F4,65.5,0.25,110,91.0
441,G3,65.75,0.25,110,91.0
442,F5,65.75,1.75,94,91.0
443,D5,65.75,1.75,94,91.0
444,G2,66.0,0.5,110,91.0
445,G3,66.0,0.5,110,91.0
446,F4,66.5,0.25,110,91.0
447,D4,66.5,0.25,110,91.0
448,B3,66.5,0.25,110,91.0
449,G3,66.75,0.25,110,91.0
450,G3,67.0,0.25,110,91.0
451,G3,67.25,0.25,110,91.0
452,C6,67.5,0.25,110,91.0
453,C5,67.5,0.25,110,91.0
454,F4,67.5,0.25,110,91.0
455,B3,67.5,0.25,110,91.0
456,D4,67.5,0.25,110,91.0
457,G3,67.75,0.25,110,91.0
458,D6,67.75,0.25,110,91.0
459,D5,67.75,0.25,110,91.0
460,E6,68.0,0.75,110,91.0
461,E5,68.0,0.75,110,91.0
462,G3,68.0,0.25,110,91.0
463,G2,68.0,0.25,110,91.0
464,G#4,68.25,0.25,110,91.0
465,D4,68.25,0.25,110,91.0
466,F4,68.25,0.25,110,91.0
467,D4,68.5,0.25,110,91.0
468,G#4,68.5,0.25,110,91.0
469,F4,68.5,0.25,110,91.0
470,D6,68.75,0.25,110,91.0
471,D5,68.75,0.25,110,91.0
472,D4,68.75,0.25,110,91.0
473,G#4,68.75,0.25,110,91.0
474,F4,68.75,0.25,110,91.0
475,D6,69.0,0.75,110,91.0
476,D5,69.0,0.75,110,91.0
477,D4,69.0,0.25,110,91.0
478,G#4,69.0,0.25,110,91.0
479,F4,69.0,0.25,110,91.0
480,D4,69.25,0.25,110,91.0
481,G#4,69.25,0.25,110,91.0
482,F4,69.25,0.25,110,91.0
483,D4,69.5,0.25,110,91.0
484,G#4,69.5,0.25,110,91.0
485,F4,69.5,0.25,110,91.0
486,G5,69.75,0.25,110,91.0
487,G4,69.75,0.25,110,91.0
488,D4,69.75,0.25,110,91.0
489,G#4,69.75,0.25,110,91.0
490,F4,69.75,0.25,110,91.0
491,E6,70.0,0.5,110,91.0
492,E5,70.0,0.5,110,91.0
493,D4,70.0,0.25,110,91.0
494,G#4,70.0,0.25,110,91.0
495,F4,70.0,0.25,110,91.0
496,F6,70.5,0.25,110,91.0
497,F5,70.5,0.25,110,91.0
498,E6,70.75,0.5,110,91.0
499,E5,70.75,0.5,110,91.0
500,G4,71.0,31/500,110,91.0
501,F4,71.0,31/500,110,91.0
502,E4,71.124,31/500,110,91.0
503,D4,71.188,31/500,110,91.0
504,C4,71.188,31/500,110,91.0
505,D6,71.25,0.25,110,91.0
506,D5,71.25,0.25,110,91.0
507,B3,71.312,31/500,110,91.0
508,A3,71.312,31/500,110,91.0
509,G3,71.438,31/500,110,91.0
510,F3,71.438,31/500,110,91.0
511,C6,71.5,0.5,110,91.0
512,C5,71.5,0.5,110,91.0
513,E3,71.562,31/500,110,91.0
514,D3,71.562,31/500,110,91.0
515,C3,71.688,31/500,110,91.0
516,B2,71.688,31/500,110,91.0
517,A2,71.812,31/500,110,91.0
518,G2,71.812,31/500,110,91.0
519,C3,71.998,1/500,110,91.0
520,C2,71.998,1/500,110,91.0
521,C3,72.0,249/500,110,91.0
522,C2,72.0,249/500,110,91.0
523,C4,72.498,0.25,110,91.0
524,E3,72.498,0.25,110,91.0
525,G3,72.498,0.25,110,91.0
526,C3,72.748,0.25,110,91.0
527,C3,72.998,0.25,110,91.0
528,G5,73.0,0.5,110,91.0
529,G4,73.0,0.5,110,91.0
530,C5,73.0,0.5,110,91.0
531,C3,73.248,0.25,110,91.0
532,C4,73.498,0.25,110,91.0
533,E3,73.498,0.25,110,91.0
534,G3,73.498,0.25,110,91.0
535,C6,73.5,0.5,110,91.0
536,C5,73.5,0.5,110,91.0
537,E5,73.5,0.5,110,91.0
538,C3,73.748,0.25,110,91.0
539,C3,73.998,0.5,110,91.0
540,C2,73.998,0.5,110,91.0
541,F6,74.0,0.5,110,91.0
542,F5,74.0,0.5,110,91.0
543,C6,74.0,0.5,110,91.0
544,C4,74.498,0.25,110,91.0
545,E3,74.498,0.25,110,91.0
546,G3,74.498,0.25,110,91.0
547,E6,74.5,0.25,110,91.0
548,E5,74.5,0.25,110,91.0
549,C3,74.748,0.25,110,91.0
550,D6,74.75,0.5,110,91.0
551,D5,74.75,0.5,110,91.0
552,C3,74.998,0.25,110,91.0
553,C3,75.248,0.25,110,91.0
554,C6,75.25,0.5,110,91.0
555,C5,75.25,0.5,110,91.0
556,G5,75.25,0.5,110,91.0
557,E5,75.25,0.5,110,91.0
558,C4,75.498,0.25,110,91.0
559,E3,75.498,0.25,110,91.0
560,G3,75.498,0.25,110,91.0
561,C3,75.748,0.25,110,91.0
562,C6,75.75,0.25,110,91.0
563,C5,75.75,0.25,110,91.0
564,G5,75.75,0.25,110,91.0
565,E5,75.75,0.25,110,91.0
566,B1,75.998,1/500,110,91.0
567,B2,75.998,1/500,110,91.0
568,D6,76.0,1.25,110,91.0
569,D5,76.0,1.25,110,91.0
570,B5,76.0,1.25,110,91.0
571,F5,76.0,1.25,110,91.0
572,B1,76.498,249/500,110,91.0
573,B2,76.498,249/500,110,91.0
574,F3,76.996,31/125,110,91.0
575,D3,76.996,31/125,110,91.0
576,B3,76.996,31/125,110,91.0
577,B2,77.246,0.25,110,91.0
578,E6,77.25,0.25,110,91.0
579,E5,77.25,0.25,110,91.0
580,B2,77.496,0.25,110,91.0
581,F6,77.5,0.25,110,91.0
582,F5,77.5,0.25,110,91.0
583,B2,77.746,0.25,110,91.0
584,F6,77.75,0.25,110,91.0
585,F5,77.75,0.25,110,91.0
586,D3,77.996,31/125,110,91.0
587,F3,77.996,31/125,110,91.0
588,B3,77.996,31/125,110,91.0
589,E6,78.0,0.5,110,91.0
590,B5,78.0,0.5,110,91.0
591,E5,78.0,0.5,110,91.0
592,G#5,78.0,0.5,110,91.0
593,B2,78.246,0.25,110,91.0
594,E3,78.496,0.5,110,91.0
595,E2,78.496,0.5,110,91.0
596,G#5,78.5,0.5,110,91.0
597,G#4,78.5,0.5,110,91.0
598,G#3,78.996,0.25,110,91.0
599,B3,78.996,0.25,110,91.0
600,E4,78.996,0.25,110,91.0
601,A5,79.0,0.5,110,91.0
602,A4,79.0,0.5,110,91.0
603,E3,79.246,0.25,110,91.0
604,E3,79.496,0.25,110,91.0
605,B5,79.5,0.5,110,91.0
606,B4,79.5,0.5,110,91.0
607,E3,79.746,0.25,110,91.0
608,G#3,79.996,0.25,110,91.0
609,E4,79.996,0.25,110,91.0
610,B3,79.996,0.25,110,91.0
611,C6,80.0,1.0,110,91.0
612,C5,80.0,1.0,110,91.0
613,E3,80.246,0.25,110,91.0
614,A1,80.498,249/500,110,91.0
615,A2,80.498,249/500,110,91.0
616,C3,80.996,31/125,110,91.0
617,A3,80.996,31/125,110,91.0
618,E3,80.996,31/125,110,91.0
619,G5,81.0,0.5,110,91.0
620,G4,81.0,0.5,110,91.0
621,C5,81.0,0.5,110,91.0
622,A2,81.246,0.25,110,91.0
623,A2,81.496,0.25,110,91.0
624,C6,81.5,0.5,110,91.0
625,C5,81.5,0.5,110,91.0
626,A2,81.746,0.25,110,91.0
627,C3,81.996,0.25,110,91.0
628,A3,81.996,0.25,110,91.0
629,E3,81.996,0.25,110,91.0
630,F6,82.0,0.5,110,91.0
631,F5,82.0,0.5,110,91.0
632,C6,82.0,0.5,110,91.0
633,A2,82.246,0.25,110,91.0
634,A1,82.496,0.5,110,91.0
635,A2,82.496,0.5,110,91.0
636,E6,82.5,0.25,110,91.0
637,E5,82.5,0.25,110,91.0
638,D6,82.75,0.5,110,91.0
639,D5,82.75,0.5,110,91.0
640,C3,82.996,0.25,110,91.0
641,A3,82.996,0.25,110,91.0
642,E3,82.996,0.25,110,91.0
643,A2,83.246,0.25,110,91.0
644,C6,83.25,0.5,110,91.0
645,C5,83.25,0.5,110,91.0
646,E5,83.25,0.5,110,91.0
647,A5,83.25,0.5,110,91.0
648,A2,83.496,0.25,110,91.0
649,A2,83.746,0.25,110,91.0
650,C6,83.75,0.25,110,91.0
651,C5,83.75,0.25,110,91.0
652,E5,83.75,0.25,110,91.0
653,A5,83.75,0.25,110,91.0
654,C3,83.996,0.25,110,91.0
655,A3,83.996,0.25,110,91.0
656,E3,83.996,0.25,110,91.0
657,D5,84.0,0.5,110,91.0
658,D6,84.0,0.5,110,91.0
659,G5,84.0,0.5,110,91.0
660,B-5,84.0,0.5,110,91.0
661,A2,84.246,0.25,110,91.0
662,G2,84.498,249/500,110,91.0
663,G3,84.498,249/500,110,91.0
664,B-4,84.5,0.25,101,91.0
665,B-5,84.5,0.25,101,91.0
666,B-4,84.75,0.5,101,91.0
667,B-5,84.75,0.5,101,91.0
668,B-3,84.996,31/125,110,91.0
669,F4,84.996,31/125,110,91.0
670,D4,84.996,31/125,110,91.0
671,G3,85.246,0.25,110,91.0
672,G5,85.25,0.25,110,91.0
673,G6,85.25,0.25,110,91.0
674,G3,85.496,0.25,110,91.0
675,A5,85.5,0.25,110,91.0
676,A6,85.5,0.25,110,91.0
677,G3,85.746,0.25,110,91.0
678,A5,85.75,0.25,110,91.0
679,A6,85.75,0.25,110,91.0
680,B-3,85.996,0.25,110,91.0
681,D4,85.996,0.25,110,91.0
682,F4,85.996,0.25,110,91.0
683,G5,86.0,1.0,110,91.0
684,G6,86.0,1.0,110,91.0
685,E6,86.0,1.0,110,91.0
686,C6,86.0,1.0,110,91.0
687,G3,86.246,0.25,110,91.0
688,C2,86.498,0.5,110,91.0
689,C3,86.498,0.5,110,91.0
690,G3,86.998,0.25,110,91.0
691,C4,86.998,0.25,110,91.0
692,E3,86.998,0.25,110,91.0
693,E6,87.0,0.25,110,91.0
694,E5,87.0,0.25,110,91.0
695,C3,87.248,0.25,110,91.0
696,E6,87.25,0.25,110,91.0
697,E5,87.25,0.25,110,91.0
698,C3,87.498,0.25,110,91.0
699,E6,87.5,0.25,110,91.0
700,E5,87.5,0.25,110,91.0
701,C3,87.748,0.25,110,91.0
702,F6,87.75,0.25,110,91.0
703,F5,87.75,0.25,110,91.0
704,C4,87.998,0.25,110,91.0
705,E3,87.998,0.25,110,91.0
706,G3,87.998,0.25,110,91.0
707,G6,88.0,0.5,110,91.0
708,G5,88.0,0.5,110,91.0
709,C6,88.0,0.5,110,91.0
710,C3,88.248,0.25,110,91.0
711,F2,88.498,249/500,110,91.0
712,F3,88.498,249/500,110,91.0
713,F6,88.5,0.25,110,91.0
714,F5,88.5,0.25,110,91.0
715,E6,88.75,0.5,110,91.0
716,E5,88.75,0.5,110,91.0
717,A3,88.996,31/125,110,91.0
718,F4,88.996,31/125,110,91.0
719,C4,88.996,31/125,110,91.0
720,F3,89.246,0.25,110,91.0
721,F6,89.25,0.5,110,91.0
722,F5,89.25,0.5,110,91.0
723,F3,89.496,0.25,110,91.0
724,F3,89.746,0.25,110,91.0
725,C6,89.75,0.25,110,91.0
726,C5,89.75,0.25,110,91.0
727,C4,89.996,0.25,110,91.0
728,A3,89.996,0.25,110,91.0
729,F4,89.996,0.25,110,91.0
730,E6,90.0,0.25,110,91.0
731,F3,90.246,0.25,110,91.0
732,C6,90.25,0.25,110,91.0
733,F2,90.496,0.5,110,91.0
734,F3,90.496,0.5,110,91.0
735,A5,90.5,0.25,110,91.0
736,F5,90.75,0.25,110,91.0
737,F4,90.996,0.25,110,91.0
738,C4,90.996,0.25,110,91.0
739,A3,90.996,0.25,110,91.0
740,E5,91.0,0.5,110,91.0
741,F3,91.246,0.25,110,91.0
742,F3,91.496,0.25,110,91.0
743,E6,91.5,0.25,110,91.0
744,E5,91.5,0.25,110,91.0
745,F3,91.746,0.25,110,91.0
746,F6,91.75,0.25,110,91.0
747,F5,91.75,0.25,110,91.0
748,F4,91.996,0.25,110,91.0
749,C4,91.996,0.25,110,91.0
750,A3,91.996,0.25,110,91.0
751,G6,92.0,0.5,110,91.0
752,G5,92.0,0.5,110,91.0
753,F3,92.246,0.25,110,91.0
754,F3,92.498,249/500,110,91.0
755,F2,92.498,249/500,110,91.0
756,F6,92.5,0.25,110,91.0
757,F5,92.5,0.25,110,91.0
758,E6,92.75,0.5,110,91.0
759,E5,92.75,0.5,110,91.0
760,E4,92.996,31/125,110,91.0
761,G#3,92.996,31/125,110,91.0
762,C4,92.996,31/125,110,91.0
763,F3,93.246,0.25,110,91.0
764,F6,93.25,0.5,110,91.0
765,F5,93.25,0.5,110,91.0
766,F3,93.496,0.25,110,91.0
767,F3,93.746,0.25,110,91.0
768,C6,93.75,1.75,110,91.0
769,C5,93.75,1.75,110,91.0
770,F5,93.75,1.75,110,91.0
771,G#5,93.75,1.75,110,91.0
772,E4,93.996,0.25,110,91.0
773,G#3,93.996,0.25,110,91.0
774,C4,93.996,0.25,110,91.0
775,F3,94.246,0.25,110,91.0
776,F2,94.496,0.5,110,91.0
777,F3,94.496,0.5,110,91.0
778,G#3,94.996,0.25,110,91.0
779,E4,94.996,0.25,110,91.0
780,C4,94.996,0.25,110,91.0
781,F3,95.246,0.25,110,91.0
782,F3,95.496,0.25,110,91.0
783,C6,95.5,0.25,110,91.0
784,C5,95.5,0.25,110,91.0
785,F3,95.746,0.25,110,91.0
786,D6,95.75,0.25,110,91.0
787,D5,95.75,0.25,110,91.0
788,C4,95.996,0.25,110,91.0
789,G#3,95.996,0.25,110,91.0
790,E4,95.996,0.25,110,91.0
791,F6,96.0,0.5,110,91.0
792,F5,96.0,0.5,110,91.0
793,F3,96.246,0.25,110,91.0
794,D3,96.498,249/500,110,91.0
795,D2,96.498,249/500,110,91.0
796,E6,96.5,0.25,110,91.0
797,E5,96.5,0.25,110,91.0
798,C6,96.75,0.5,110,91.0
799,C5,96.75,0.5,110,91.0
800,F3,96.996,31/125,110,91.0
801,C4,96.996,31/125,110,91.0
802,A3,96.996,31/125,110,91.0
803,D3,97.246,0.25,110,91.0
804,C6,97.25,0.5,110,91.0
805,C5,97.25,0.5,110,91.0
806,F5,97.25,0.5,110,91.0
807,A5,97.25,0.5,110,91.0
808,D3,97.496,0.25,110,91.0
809,D3,97.746,0.25,110,91.0
810,C6,97.75,0.75,110,91.0
811,C5,97.75,0.75,110,91.0
812,F#5,97.75,0.75,110,91.0
813,A5,97.75,0.75,110,91.0
814,A3,97.996,0.25,110,91.0
815,F3,97.996,0.25,110,91.0
816,C4,97.996,0.25,110,91.0
817,D3,98.246,0.25,110,91.0
818,F#3,98.498,0.5,110,91.0
819,F#2,98.498,0.5,110,91.0
820,A4,98.5,0.5,110,91.0
821,A5,98.5,0.5,110,91.0
822,C4,98.998,0.25,110,91.0
823,E4,98.998,0.25,110,91.0
824,A3,98.998,0.25,110,91.0
825,C6,99.0,0.5,110,91.0
826,C5,99.0,0.5,110,91.0
827,F#3,99.248,0.25,110,91.0
828,F#3,99.498,0.25,110,91.0
829,E6,99.5,0.5,110,91.0
830,E5,99.5,0.5,110,91.0
831,F#3,99.748,0.25,110,91.0
832,A3,99.998,0.25,110,91.0
833,C4,99.998,0.25,110,91.0
834,E4,99.998,0.25,110,91.0
835,E6,100.0,1.25,110,91.0
836,E5,100.0,1.25,110,91.0
837,G5,100.0,1.25,110,91.0
838,F#3,100.248,0.25,110,91.0
839,G3,100.498,249/500,110,91.0
840,G2,100.498,249/500,110,91.0
841,B3,100.996,31/125,110,91.0
842,G4,100.996,31/125,110,91.0
843,D4,100.996,31/125,110,91.0
844,G3,101.246,0.25,110,91.0
845,F6,101.25,0.25,110,91.0
846,F5,101.25,0.25,110,91.0
847,G3,101.496,0.25,110,91.0
848,E6,101.5,0.25,110,91.0
849,E5,101.5,0.25,110,91.0
850,G3,101.746,0.25,110,91.0
851,D6,101.75,0.25,110,91.0
852,D5,101.75,0.25,110,91.0
853,B3,101.996,0.25,110,91.0
854,D4,101.996,0.25,110,91.0
855,G4,101.996,0.25,110,91.0
856,C6,102.0,0.5,88,91.0
857,C5,102.0,0.5,88,91.0
858,G3,102.246,0.25,110,91.0
859,G2,102.496,0.5,110,91.0
860,G3,102.496,0.5,110,91.0
861,B5,102.5,0.5,88,91.0
862,B4,102.5,0.5,88,91.0
863,D4,102.996,0.25,110,91.0
864,B3,102.996,0.25,110,91.0
865,F4,102.996,0.25,110,91.0
866,C6,103.0,0.5,88,91.0
867,C5,103.0,0.5,88,91.0
868,G3,103.246,0.25,110,91.0
869,G3,103.496,1/500,110,91.0
870,F4,103.498,83/500,110,91.0
871,D6,103.5,0.5,88,91.0
872,D5,103.5,0.5,88,91.0
873,D4,103.664,83/500,110,91.0
874,B3,103.83,83/500,110,91.0
875,G3,103.998,83/500,110,91.0
876,C5,104.0,1.0,88,91.0
877,C6,104.0,1.0,88,91.0
878,D3,104.164,21/125,110,91.0
879,B2,104.332,83/500,110,91.0
880,C2,104.498,249/500,110,91.0
881,C3,104.498,249/500,110,91.0
882,E3,104.996,0.25,110,91.0
883,C4,104.996,0.25,110,91.0
884,G3,104.996,0.25,110,91.0
885,G5,105.0,0.5,110,91.0
886,G4,105.0,0.5,110,91.0
887,C5,105.0,0.5,110,91.0
888,C3,105.246,0.25,110,91.0
889,C3,105.496,0.25,110,91.0
890,C6,105.5,0.5,110,91.0
891,C5,105.5,0.5,110,91.0
892,E5,105.5,0.5,110,91.0
893,C3,105.746,0.25,110,91.0
894,E3,105.996,0.25,110,91.0
895,C4,105.996,0.25,110,91.0
896,G3,105.996,0.25,110,91.0
897,F6,106.0,0.5,110,91.0
898,F5,106.0,0.5,110,91.0
899,C6,106.0,0.5,110,91.0
900,C3,106.246,0.25,110,91.0
901,C2,106.496,0.5,110,91.0
902,C3,106.496,0.5,110,91.0
903,E6,106.5,0.25,110,91.0
904,E5,106.5,0.25,110,91.0
905,D6,106.75,0.5,110,91.0
906,D5,106.75,0.5,110,91.0
907,E3,106.996,0.25,110,91.0
908,C4,106.996,0.25,110,91.0
909,G3,106.996,0.25,110,91.0
910,C3,107.246,0.25,110,91.0
911,C6,107.25,0.5,110,91.0
912,C5,107.25,0.5,110,91.0
913,E5,107.25,0.5,110,91.0
914,G5,107.25,0.5,110,91.0
915,C3,107.496,0.25,110,91.0
916,C3,107.746,0.25,110,91.0
917,C6,107.75,0.25,110,91.0
918,C5,107.75,0.25,110,91.0
919,E5,107.75,0.25,110,91.0
920,G5,107.75,0.25,110,91.0
921,E3,107.996,0.25,110,91.0
922,C4,107.996,0.25,110,91.0
923,G3,107.996,0.25,110,91.0
924,D6,108.0,1.25,110,91.0
925,D5,108.0,1.25,110,91.0
926,F5,108.0,1.25,110,91.0
927,B5,108.0,1.25,110,91.0
928,C3,108.246,0.25,110,91.0
929,B2,108.496,1/500,110,91.0
930,B1,108.496,1/500,110,91.0
931,B2,108.996,249/500,110,91.0
932,B1,108.996,249/500,110,91.0
933,E6,109.25,0.25,110,91.0
934,E5,109.25,0.25,110,91.0
935,D3,109.494,31/125,110,91.0
936,F3,109.494,31/125,110,91.0
937,B3,109.494,31/125,110,91.0
938,F6,109.5,0.25,110,91.0
939,F5,109.5,0.25,110,91.0
940,B2,109.744,0.25,110,91.0
941,F6,109.75,0.25,110,91.0
942,F5,109.75,0.25,110,91.0
943,B2,109.994,0.25,110,91.0
944,G#5,110.0,0.5,110,91.0
945,E5,110.0,0.5,110,91.0
946,B5,110.0,0.5,110,91.0
947,E6,110.0,0.5,110,91.0
948,B2,110.244,0.25,110,91.0
949,D3,110.494,31/125,110,91.0
950,F3,110.494,31/125,110,91.0
951,B3,110.494,31/125,110,91.0
952,G#4,110.5,0.5,110,91.0
953,G#5,110.5,0.5,110,91.0
954,B2,110.744,0.25,110,91.0
955,E2,110.994,0.5,110,91.0
956,E3,110.994,0.5,110,91.0
957,A4,111.0,0.5,110,91.0
958,A5,111.0,0.5,110,91.0
959,G#3,111.494,31/125,110,91.0
960,E4,111.494,31/125,110,91.0
961,B3,111.494,31/125,110,91.0
962,B4,111.5,0.5,110,91.0
963,B5,111.5,0.5,110,91.0
964,E3,111.744,0.25,110,91.0
965,E3,111.994,0.25,110,91.0
966,C5,112.0,1.0,110,91.0
967,C6,112.0,1.0,110,91.0
968,E3,112.244,0.25,110,91.0
969,G#3,112.494,0.25,110,91.0
970,E4,112.494,0.25,110,91.0
971,B3,112.494,0.25,110,91.0
972,E3,112.744,0.25,110,91.0
973,A1,112.996,249/500,110,91.0
974,A2,112.996,249/500,110,91.0
975,G5,113.0,0.5,110,91.0
976,G4,113.0,0.5,110,91.0
977,C5,113.0,0.5,110,91.0
978,C3,113.494,31/125,110,91.0
979,A3,113.494,31/125,110,91.0
980,E3,113.494,31/125,110,91.0
981,C6,113.5,0.5,110,91.0
982,C5,113.5,0.5,110,91.0
983,A2,113.744,0.25,110,91.0
984,A2,113.994,0.25,110,91.0
985,F6,114.0,0.5,110,91.0
986,F5,114.0,0.5,110,91.0
987,C6,114.0,0.5,110,91.0
988,A2,114.244,0.25,110,91.0
989,C3,114.494,0.25,110,91.0
990,E3,114.494,0.25,110,91.0
991,A3,114.494,0.25,110,91.0
992,E6,114.5,0.25,110,91.0
993,E5,114.5,0.25,110,91.0
994,A2,114.744,0.25,110,91.0
995,D6,114.75,0.5,110,91.0
996,D5,114.75,0.5,110,91.0
997,A1,114.994,0.5,110,91.0
998,A2,114.994,0.5,110,91.0
999,C6,115.25,0.5,110,91.0
1000,C5,115.25,0.5,110,91.0
1001,E5,115.25,0.5,110,91.0
1002,A5,115.25,0.5,110,91.0
1003,C3,115.494,0.25,110,91.0
1004,E3,115.494,0.25,110,91.0
1005,A3,115.494,0.25,110,91.0
1006,A2,115.744,0.25,110,91.0
1007,C6,115.75,0.25,110,91.0
1008,C5,115.75,0.25,110,91.0
1009,E5,115.75,0.25,110,91.0
1010,A5,115.75,0.25,110,91.0
1011,A2,115.994,0.25,110,91.0
1012,D5,116.0,0.5,110,91.0
1013,D6,116.0,0.5,110,91.0
1014,B-5,116.0,0.5,110,91.0
1015,G5,116.0,0.5,110,91.0
1016,A2,116.244,0.25,110,91.0
1017,A3,116.494,0.25,110,91.0
1018,C3,116.494,0.25,110,91.0
1019,E3,116.494,0.25,110,91.0
1020,B-4,116.5,0.25,101,91.0
1021,B-5,116.5,0.25,101,91.0
1022,A2,116.744,0.25,110,91.0
1023,B-4,116.75,0.5,101,91.0
1024,B-5,116.75,0.5,101,91.0
1025,G3,116.996,249/500,110,91.0
1026,G2,116.996,249/500,110,91.0
1027,G5,117.25,0.25,110,91.0
1028,G6,117.25,0.25,110,91.0
1029,F4,117.494,31/125,110,91.0
1030,B-3,117.494,31/125,110,91.0
1031,D4,117.494,31/125,110,91.0
1032,A5,117.5,0.25,110,91.0
1033,A6,117.5,0.25,110,91.0
1034,G3,117.744,0.25,110,91.0
1035,A5,117.75,0.25,110,91.0
1036,A6,117.75,0.25,110,91.0
1037,G3,117.994,0.25,110,91.0
1038,G5,118.0,1.0,110,91.0
1039,G6,118.0,1.0,110,91.0
1040,C#6,118.0,1.0,110,91.0
1041,E6,118.0,1.0,110,91.0
1042,G3,118.244,0.25,110,91.0
1043,F4,118.494,0.25,110,91.0
1044,D4,118.494,0.25,110,91.0
1045,B-3,118.494,0.25,110,91.0
1046,G3,118.744,0.25,110,91.0
1047,C#3,118.996,0.5,110,91.0
1048,C#2,118.996,0.5,110,91.0
1049,E6,119.0,0.25,110,91.0
1050,E5,119.0,0.25,110,91.0
1051,E6,119.25,0.25,110,91.0
1052,E5,119.25,0.25,110,91.0
1053,C#4,119.496,0.25,110,91.0
1054,A3,119.496,0.25,110,91.0
1055,E3,119.496,0.25,110,91.0
1056,E6,119.5,0.25,110,91.0
1057,E5,119.5,0.25,110,91.0
1058,C#3,119.746,0.25,110,91.0
1059,F6,119.75,0.25,110,91.0
1060,F5,119.75,0.25,110,91.0
1061,C#3,119.996,0.25,110,91.0
1062,G6,120.0,0.5,110,91.0
1063,G5,120.0,0.5,110,91.0
1064,C#3,120.246,0.25,110,91.0
1065,A3,120.496,0.25,110,91.0
1066,C#4,120.496,0.25,110,91.0
1067,E3,120.496,0.25,110,91.0
1068,F6,120.5,0.25,110,91.0
1069,F5,120.5,0.25,110,91.0
1070,C#3,120.746,0.25,110,91.0
1071,E6,120.75,0.5,110,91.0
1072,E5,120.75,0.5,110,91.0
1073,D3,120.996,0.5,110,91.0
1074,D2,120.996,0.5,110,91.0
1075,F6,121.25,0.5,110,91.0
1076,F5,121.25,0.5,110,91.0
1077,C4,121.496,83/500,110,91.0
1078,A3,121.662,83/500,110,91.0
1079,B6,121.75,1.0,110,91.0
1080,B5,121.75,1.0,110,91.0
1081,E6,121.75,1.0,110,91.0
1082,G#6,121.75,1.0,110,91.0
1083,F3,121.828,21/125,110,91.0
1084,D3,121.996,0.5,110,91.0
1085,D2,121.996,0.5,110,91.0
1086,C4,122.496,83/500,110,91.0
1087,A3,122.662,83/500,110,91.0
1088,F3,122.828,21/125,110,91.0
1089,E3,122.996,0.5,110,91.0
1090,E2,122.996,0.5,110,91.0
1091,C5,123.0,0.5,110,91.0
1092,C6,123.0,0.5,110,91.0
1093,D4,123.496,83/500,110,91.0
1094,D6,123.5,0.5,110,91.0
1095,D5,123.5,0.5,110,91.0
1096,B3,123.662,83/500,110,91.0
1097,G#3,123.828,21/125,110,91.0
1098,E2,123.996,0.5,110,91.0
1099,E3,123.996,0.5,110,91.0
1100,F5,124.0,0.5,110,91.0
1101,F6,124.0,0.5,110,91.0
1102,C6,124.0,0.5,110,91.0
1103,A5,124.0,0.5,110,91.0
1104,D4,124.496,83/500,110,91.0
1105,E6,124.5,0.25,110,91.0
1106,E5,124.5,0.25,110,91.0
1107,B3,124.662,83/500,110,91.0
1108,E-5,124.75,0.5,110,91.0
1109,E-6,124.75,0.5,110,91.0
1110,G#3,124.828,21/125,110,91.0
1111,A3,124.996,0.5,110,91.0
1112,A2,124.996,0.5,110,91.0
1113,E6,125.25,0.5,110,91.0
1114,E5,125.25,0.5,110,91.0
1115,A4,125.496,83/500,110,91.0
1116,E4,125.662,83/500,110,91.0
1117,A5,125.75,1.25,110,91.0
1118,A6,125.75,1.25,110,91.0
1119,F#6,125.75,1.25,110,91.0
1120,C6,125.75,1.25,110,91.0
1121,C4,125.828,21/125,110,91.0
1122,G2,125.996,0.5,110,91.0
1123,G3,125.996,0.5,110,91.0
1124,G4,126.496,83/500,110,91.0
1125,D4,126.662,83/500,110,91.0
1126,B3,126.828,21/125,110,91.0
1127,F#2,126.996,0.5,110,91.0
1128,F#3,126.996,0.5,110,91.0
1129,A6,127.0,1.0,110,91.0
1130,A5,127.0,1.0,110,91.0
1131,F#6,127.0,1.0,110,91.0
1132,C6,127.0,1.0,110,91.0
1133,A4,127.496,83/500,110,91.0
1134,F#4,127.662,83/500,110,91.0
1135,C4,127.828,21/125,110,91.0
1136,F#3,127.996,0.5,110,91.0
1137,F#2,127.996,0.5,110,91.0
1138,G6,128.0,0.75,110,91.0
1139,G5,128.0,0.75,110,91.0
1140,D5,128.496,83/500,110,91.0
1141,A4,128.662,83/500,110,91.0
1142,C6,128.75,0.25,110,91.0
1143,C5,128.75,0.25,110,91.0
1144,F#4,128.828,21/125,110,91.0
1145,D3,128.996,83/250,110,91.0
1146,D2,128.996,83/250,110,91.0
1147,D6,129.0,0.5,110,91.0
1148,D5,129.0,0.5,110,91.0
1149,E6,129.5,0.25,110,91.0
1150,E5,129.5,0.25,110,91.0
1151,C6,129.75,1.25,110,91.0
1152,C5,129.75,1.25,110,91.0
1153,A5,129.75,1.25,110,91.0
1154,F5,129.75,1.25,110,91.0
1155,A6,130.87,167/500,110,91.0
1156,C7,130.87,167/500,110,91.0
1157,E7,130.996,167/500,110,91.0
1158,C6,131.0,0.5,110,91.0
1159,C5,131.0,0.5,110,91.0
1160,D6,131.5,0.5,110,91.0
1161,D5,131.5,0.5,110,91.0
1162,F6,132.0,0.5,110,91.0
1163,F5,132.0,0.5,110,91.0
1164,E6,132.5,0.25,110,91.0
1165,E5,132.5,0.25,110,91.0
1166,C6,132.75,0.5,110,91.0
1167,C5,132.75,0.5,110,91.0
1168,G2,132.996,167/500,110,91.0
1169,G1,132.996,167/500,110,91.0
1170,C6,133.25,0.5,110,91.0
1171,C5,133.25,0.5,110,91.0
1172,C6,133.75,0.75,110,91.0
1173,C5,133.75,0.75,110,91.0
1174,G5,134.5,0.5,110,91.0
1175,G4,134.5,0.5,110,91.0
1176,G7,134.996,167/500,110,91.0
1177,C6,135.0,0.5,110,91.0
1178,C5,135.0,0.5,110,91.0
1179,D6,135.5,0.25,110,91.0
1180,D5,135.5,0.25,110,91.0
1181,C6,135.75,0.25,110,91.0
1182,C5,135.75,0.25,110,91.0
1183,G5,135.75,0.25,110,91.0
1184,E5,135.75,0.25,110,91.0
1185,C6,137.0,1.0,110,91.0
1186,C5,137.0,1.0,110,91.0
1187,G5,137.0,1.0,110,91.0
1188,E5,137.0,1.0,110,91.0
