,note_name,start_time,duration,velocity,tempo
0,D5,0.0,2.5,78,158.0
1,C3,0.0,751/500,78,158.0
2,B3,1.502,749/500,78,158.0
3,D5,2.5,0.5,78,158.0
4,D5,3.0,0.5,78,158.0
5,C4,3.0,1.0,78,158.0
6,D5,3.5,0.5,78,158.0
7,D5,4.0,1.0,78,158.0
8,G4,4.0,1.5,78,158.0
9,C5,5.0,0.5,78,158.0
10,B4,5.5,1.0,78,158.0
11,C4,5.5,1.5,78,158.0
12,C5,6.5,1.0,78,158.0
13,G3,7.0,1.0,78,158.0
14,C5,7.5,0.5,78,158.0
15,B2,8.0,1.5,78,158.0
16,B4,8.0,2.5,78,158.0
17,D5,8.0,2.5,78,158.0
18,B3,9.5,1.5,78,158.0
19,B4,10.5,0.5,78,158.0
20,D5,10.5,0.5,78,158.0
21,D4,11.0,1.0,78,158.0
22,B4,11.0,0.5,78,158.0
23,D5,11.0,0.5,78,158.0
24,B4,11.5,0.5,78,158.0
25,D5,11.5,0.5,78,158.0
26,G4,12.0,1.5,78,158.0
27,B4,12.0,1.0,78,158.0
28,D5,12.0,1.0,78,158.0
29,G5,13.0,0.5,78,158.0
30,F#5,13.5,1.0,78,158.0
31,D4,13.5,1.5,78,158.0
32,D5,14.5,1.0,78,158.0
33,G3,15.0,1.0,78,158.0
34,C5,15.5,0.5,78,158.0
35,C3,16.0,1.5,78,158.0
36,G4,16.0,2.5,78,158.0
37,D5,16.0,2.5,78,158.0
38,G3,17.5,1.5,78,158.0
39,G4,18.5,0.5,78,158.0
40,D5,18.5,0.5,78,158.0
41,C4,19.0,1.0,78,158.0
42,G4,19.0,0.5,78,158.0
43,D5,19.0,0.5,78,158.0
44,G4,19.5,0.5,78,158.0
45,D5,19.5,0.5,78,158.0
46,G4,20.0,1.5,78,158.0
47,G4,20.0,1.0,78,158.0
48,D5,20.0,1.0,78,158.0
49,C5,21.0,0.5,78,158.0
50,B4,21.5,1.0,78,158.0
51,C4,21.5,1.5,78,158.0
52,C5,22.5,1.0,78,158.0
53,G3,23.0,1.0,78,158.0
54,C5,23.5,0.5,78,158.0
55,B4,24.0,1.5,78,158.0
56,G2,24.0,1.5,78,158.0
57,G3,25.5,1.5,78,158.0
58,G4,25.5,1.5,78,158.0
59,D4,25.5,1.5,78,158.0
60,D4,27.0,0.5,78,158.0
61,B4,27.0,1.0,78,158.0
62,D4,27.0,1.0,78,158.0
63,G4,27.0,1.0,78,158.0
64,G3,27.5,0.5,78,158.0
65,G2,28.0,0.5,78,158.0
66,C5,28.0,0.5,78,158.0
67,D4,28.0,0.5,78,158.0
68,G4,28.0,0.5,78,158.0
69,G3,28.5,0.5,78,158.0
70,G4,28.5,0.5,78,158.0
71,D4,28.5,0.5,78,158.0
72,G2,29.0,0.5,78,158.0
73,A4,29.0,0.5,78,158.0
74,D4,29.0,0.5,78,158.0
75,G3,29.5,0.5,78,158.0
76,C5,29.5,0.5,78,158.0
77,D4,29.5,0.5,78,158.0
78,G2,30.0,0.5,78,158.0
79,B4,30.0,0.5,78,158.0
80,D4,30.0,0.5,78,158.0
81,G3,30.5,0.5,78,158.0
82,G4,30.5,0.5,78,158.0
83,D4,30.5,0.5,78,158.0
84,G2,31.0,0.5,78,158.0
85,B4,31.0,0.5,78,158.0
86,D4,31.0,0.5,78,158.0
87,G4,31.5,0.5,78,158.0
88,G3,31.5,0.5,78,158.0
89,C2,32.0,0.5,78,158.0
90,G4,32.0,2.5,78,158.0
91,D5,32.0,2.5,78,158.0
92,G2,32.5,0.5,78,158.0
93,C3,33.0,0.5,78,158.0
94,D3,33.5,0.5,78,158.0
95,E3,34.0,0.5,78,158.0
96,C3,34.5,0.5,78,158.0
97,G4,34.5,0.5,78,158.0
98,D5,34.5,0.5,78,158.0
99,E3,35.0,0.5,78,158.0
100,G4,35.0,0.5,78,158.0
101,D5,35.0,0.5,78,158.0
102,G3,35.5,0.5,78,158.0
103,G4,35.5,0.5,78,158.0
104,D5,35.5,0.5,78,158.0
105,C4,36.0,0.5,78,158.0
106,G4,36.0,1.0,78,158.0
107,D5,36.0,1.0,78,158.0
108,G3,36.5,0.5,78,158.0
109,C5,37.0,0.5,78,158.0
110,E3,37.0,0.5,78,158.0
111,B4,37.5,1.0,78,158.0
112,C3,37.5,0.5,78,158.0
113,G2,38.0,0.5,78,158.0
114,C5,38.5,1.0,78,158.0
115,C2,38.5,0.5,78,158.0
116,G1,39.0,0.5,78,158.0
117,C5,39.5,0.5,78,158.0
118,C2,39.5,0.5,78,158.0
119,B1,40.0,0.5,78,158.0
120,B4,40.0,2.5,78,158.0
121,D5,40.0,2.5,78,158.0
122,G2,40.5,251/500,78,158.0
123,B2,41.002,249/500,78,158.0
124,D3,41.5,0.5,78,158.0
125,G3,42.0,0.5,78,158.0
126,B3,42.5,0.5,78,158.0
127,B4,42.5,0.5,78,158.0
128,D5,42.5,0.5,78,158.0
129,D4,43.0,0.5,78,158.0
130,B4,43.0,0.5,78,158.0
131,D5,43.0,0.5,78,158.0
132,G3,43.5,0.5,78,158.0
133,B4,43.5,0.5,78,158.0
134,D5,43.5,0.5,78,158.0
135,G4,44.0,0.5,78,158.0
136,B4,44.0,1.0,78,158.0
137,D5,44.0,1.0,78,158.0
138,D4,44.5,0.5,78,158.0
139,G5,45.0,0.5,78,158.0
140,B3,45.0,0.5,78,158.0
141,F#5,45.5,1.0,78,158.0
142,G3,45.5,0.5,78,158.0
143,D3,46.0,0.5,78,158.0
144,A5,46.5,1.0,78,158.0
145,B2,46.5,0.5,78,158.0
146,G2,47.0,0.5,78,158.0
147,A5,47.5,0.5,78,158.0
148,G1,47.5,0.5,78,158.0
149,G5,48.0,4.0,78,158.0
150,A1,48.0,1.5,78,158.0
151,E1,49.5,1.0,78,158.0
152,A1,50.5,0.5,78,158.0
153,E2,51.0,1.0,78,158.0
154,G5,52.0,1.5,78,158.0
155,D2,52.0,1.5,78,158.0
156,F#5,53.5,1.0,78,158.0
157,A1,53.5,1.5,78,158.0
158,A5,54.5,1.0,78,158.0
159,F#1,55.0,1.0,78,158.0
160,A5,55.5,0.5,78,158.0
161,A5,56.0,0.5,78,158.0
162,G1,56.0,0.5,78,158.0
163,G5,56.5,3.5,78,158.0
164,D2,56.5,0.5,78,158.0
165,G2,57.0,0.5,78,158.0
166,A2,57.5,0.5,78,158.0
167,B2,58.0,0.5,78,158.0
168,D3,58.5,0.5,78,158.0
169,G3,59.0,0.5,78,158.0
170,A3,59.5,0.5,78,158.0
171,D5,60.0,0.5,78,158.0
172,B3,60.0,0.5,78,158.0
173,C5,60.5,0.5,78,158.0
174,A3,60.5,0.5,78,158.0
175,B4,61.0,0.5,78,158.0
176,G3,61.0,0.5,78,158.0
177,G4,61.5,0.5,78,158.0
178,D3,61.5,0.5,78,158.0
179,C5,62.0,0.5,78,158.0
180,B2,62.0,0.5,78,158.0
181,G4,62.5,0.5,78,158.0
182,A2,62.5,0.5,78,158.0
183,C5,63.0,0.5,78,158.0
184,G2,63.0,0.5,78,158.0
185,B4,63.5,0.5,78,158.0
186,D2,63.5,0.5,78,158.0
187,G4,64.0,1.0,78,158.0
188,C3,64.0,0.5,78,158.0
189,C2,64.0,0.5,78,158.0
190,G3,64.5,0.5,78,158.0
191,C4,65.0,0.5,78,158.0
192,G4,65.0,0.5,78,158.0
193,D5,65.0,0.5,78,158.0
194,G3,65.5,0.5,78,158.0
195,G4,65.5,0.5,78,158.0
196,D5,65.5,0.5,78,158.0
197,E4,66.0,0.5,78,158.0
198,G4,66.0,0.5,78,158.0
199,D5,66.0,0.5,78,158.0
200,G3,66.5,0.5,78,158.0
201,G4,66.5,0.5,78,158.0
202,D5,66.5,0.5,78,158.0
203,C4,67.0,0.5,78,158.0
204,G4,67.0,0.5,78,158.0
205,D5,67.0,0.5,78,158.0
206,G3,67.5,0.5,78,158.0
207,G4,67.5,0.5,78,158.0
208,D5,67.5,0.5,78,158.0
209,G4,68.0,1.0,78,158.0
210,D5,68.0,1.0,78,158.0
211,C3,68.0,0.5,78,158.0
212,C2,68.0,0.5,78,158.0
213,G3,68.5,0.5,78,158.0
214,C5,69.0,0.5,78,158.0
215,C4,69.0,0.5,78,158.0
216,B4,69.5,1.5,78,158.0
217,G3,69.5,0.5,78,158.0
218,E4,70.0,0.5,78,158.0
219,G3,70.5,0.5,78,158.0
220,A4,71.0,1.0,78,158.0
221,C4,71.0,0.5,78,158.0
222,G3,71.5,0.5,78,158.0
223,A4,72.0,1.0,78,158.0
224,B2,72.0,0.5,78,158.0
225,B1,72.0,0.5,78,158.0
226,G3,72.5,0.5,78,158.0
227,B4,73.0,0.5,78,158.0
228,B3,73.0,0.5,78,158.0
229,A4,73.5,1.5,78,158.0
230,G3,73.5,0.5,78,158.0
231,D4,74.0,0.5,78,158.0
232,G3,74.5,0.5,78,158.0
233,B4,75.0,0.5,78,158.0
234,B3,75.0,0.5,78,158.0
235,A4,75.5,0.5,78,158.0
236,G3,75.5,0.5,78,158.0
237,A4,76.0,0.5,78,158.0
238,B1,76.0,0.5,78,158.0
239,B2,76.0,0.5,78,158.0
240,G3,76.5,0.5,78,158.0
241,D4,76.5,1.5,78,158.0
242,G4,76.5,1.5,78,158.0
243,B3,77.0,0.5,78,158.0
244,G3,77.5,0.5,78,158.0
245,D4,78.0,0.5,78,158.0
246,G4,78.0,0.5,78,158.0
247,D4,78.0,0.5,78,158.0
248,A4,78.5,0.5,78,158.0
249,G3,78.5,0.5,78,158.0
250,B4,79.0,0.5,78,158.0
251,B3,79.0,0.5,78,158.0
252,B4,79.5,0.5,78,158.0
253,G3,79.5,0.5,78,158.0
254,C5,80.0,1.0,78,158.0
255,A1,80.0,251/500,78,158.0
256,A2,80.0,251/500,78,158.0
257,E3,80.502,249/500,78,158.0
258,B4,81.0,0.5,78,158.0
259,A3,81.0,0.5,78,158.0
260,A4,81.5,1.0,78,158.0
261,E3,81.5,0.5,78,158.0
262,C4,82.0,0.5,78,158.0
263,G4,82.5,1.0,78,158.0
264,E3,82.5,0.5,78,158.0
265,A3,83.0,0.5,78,158.0
266,B4,83.5,0.5,78,158.0
267,E3,83.5,0.5,78,158.0
268,C5,84.0,1.0,78,158.0
269,A4,84.0,1.0,78,158.0
270,F#4,84.0,1.0,78,158.0
271,D3,84.0,0.5,78,158.0
272,D2,84.0,0.5,78,158.0
273,A3,84.5,0.5,78,158.0
274,B4,85.0,0.5,78,158.0
275,D4,85.0,0.5,78,158.0
276,A4,85.5,1.0,78,158.0
277,A3,85.5,0.5,78,158.0
278,F#4,86.0,0.5,78,158.0
279,G4,86.5,1.0,78,158.0
280,A3,86.5,0.5,78,158.0
281,D4,87.0,0.5,78,158.0
282,G4,87.5,0.5,78,158.0
283,A3,87.5,0.5,78,158.0
284,A4,88.0,1.0,78,158.0
285,G1,88.0,0.5,78,158.0
286,G2,88.5,0.5,78,158.0
287,D5,89.0,0.5,78,158.0
288,B2,89.0,0.5,78,158.0
289,A4,89.5,0.5,78,158.0
290,D3,89.5,0.5,78,158.0
291,B4,90.0,2.0,78,158.0
292,G3,90.0,0.5,78,158.0
293,B3,90.5,0.5,78,158.0
294,D4,91.0,0.5,78,158.0
295,G3,91.5,0.5,78,158.0
296,C6,92.0,0.5,78,158.0
297,G4,92.0,0.5,78,158.0
298,B5,92.5,1.0,78,158.0
299,D4,92.5,0.5,78,158.0
300,B3,93.0,0.5,78,158.0
301,A5,93.5,1.0,78,158.0
302,G3,93.5,0.5,78,158.0
303,D3,94.0,0.5,78,158.0
304,B5,94.5,1.5,78,158.0
305,B2,94.5,0.5,78,158.0
306,G2,95.0,0.5,78,158.0
307,G1,95.5,0.5,78,158.0
308,C4,96.0,1.0,78,158.0
309,E4,96.0,1.0,78,158.0
310,G4,96.0,1.0,78,158.0
311,C2,96.0,0.5,78,158.0
312,C3,96.0,0.5,78,158.0
313,G3,96.5,0.5,78,158.0
314,D5,97.0,0.5,78,158.0
315,C4,97.0,0.5,78,158.0
316,D5,97.5,0.5,78,158.0
317,G3,97.5,0.5,78,158.0
318,D5,98.0,0.5,78,158.0
319,E4,98.0,0.5,78,158.0
320,D5,98.5,0.5,78,158.0
321,G3,98.5,0.5,78,158.0
322,D5,99.0,0.5,78,158.0
323,C4,99.0,0.5,78,158.0
324,D5,99.5,0.5,78,158.0
325,G3,99.5,0.5,78,158.0
326,D5,100.0,1.0,78,158.0
327,C3,100.0,0.5,78,158.0
328,C2,100.0,0.5,78,158.0
329,G3,100.5,0.5,78,158.0
330,C5,101.0,0.5,78,158.0
331,C4,101.0,0.5,78,158.0
332,B4,101.5,1.0,78,158.0
333,G3,101.5,0.5,78,158.0
334,E4,102.0,0.5,78,158.0
335,A4,102.5,1.0,78,158.0
336,G3,102.5,0.5,78,158.0
337,C4,103.0,0.5,78,158.0
338,A4,103.5,0.5,78,158.0
339,G3,103.5,0.5,78,158.0
340,A4,104.0,1.0,78,158.0
341,B2,104.0,0.5,78,158.0
342,B1,104.0,0.5,78,158.0
343,G3,104.5,0.5,78,158.0
344,B4,105.0,0.5,78,158.0
345,B3,105.0,0.5,78,158.0
346,A4,105.5,1.0,78,158.0
347,G3,105.5,0.5,78,158.0
348,D4,106.0,0.5,78,158.0
349,A4,106.5,0.5,78,158.0
350,G3,106.5,0.5,78,158.0
351,B4,107.0,0.5,78,158.0
352,B3,107.0,0.5,78,158.0
353,A4,107.5,0.5,78,158.0
354,G3,107.5,0.5,78,158.0
355,A4,108.0,0.5,78,158.0
356,B1,108.0,0.5,78,158.0
357,B2,108.0,0.5,78,158.0
358,G4,108.5,0.5,78,158.0
359,G3,108.5,0.5,78,158.0
360,G4,109.0,1.0,78,158.0
361,B3,109.0,0.5,78,158.0
362,G3,109.5,0.5,78,158.0
363,G4,110.0,0.5,78,158.0
364,D4,110.0,0.5,78,158.0
365,A4,110.5,0.5,78,158.0
366,G3,110.5,0.5,78,158.0
367,B4,111.0,0.5,78,158.0
368,B3,111.0,0.5,78,158.0
369,C5,111.5,0.5,78,158.0
370,G3,111.5,0.5,78,158.0
371,C5,112.0,1.0,78,158.0
372,A2,112.0,0.5,78,158.0
373,A1,112.0,0.5,78,158.0
374,E3,112.5,0.5,78,158.0
375,B4,113.0,0.5,78,158.0
376,A3,113.0,0.5,78,158.0
377,A4,113.5,1.0,78,158.0
378,E3,113.5,0.5,78,158.0
379,C4,114.0,0.5,78,158.0
380,G4,114.5,0.5,78,158.0
381,E3,114.5,0.5,78,158.0
382,G4,115.0,0.5,78,158.0
383,A3,115.0,0.5,78,158.0
384,E3,115.5,0.5,78,158.0
385,F#4,115.5,0.5,78,158.0
386,C5,115.5,0.5,78,158.0
387,A4,115.5,0.5,78,158.0
388,D2,116.0,0.5,78,158.0
389,D3,116.0,0.5,78,158.0
390,A3,116.5,0.5,78,158.0
391,D4,117.0,0.5,78,158.0
392,F#4,117.0,1.0,78,158.0
393,C5,117.0,1.0,78,158.0
394,A4,117.0,1.0,78,158.0
395,A3,117.5,0.5,78,158.0
396,D5,118.0,0.5,78,158.0
397,F#4,118.0,0.5,78,158.0
398,A4,118.5,1.0,78,158.0
399,A3,118.5,0.5,78,158.0
400,D4,119.0,0.5,78,158.0
401,G4,119.5,1.0,78,158.0
402,A3,119.5,0.5,78,158.0
403,A3,120.0,1/500,78,158.0
404,G1,120.002,249/500,78,158.0
405,G2,120.5,0.5,78,158.0
406,D4,120.5,0.5,78,158.0
407,G4,120.5,0.5,78,158.0
408,B2,121.0,0.5,78,158.0
409,D3,121.5,0.5,78,158.0
410,G3,122.0,0.5,78,158.0
411,B3,122.5,0.5,78,158.0
412,D4,123.0,0.5,78,158.0
413,G3,123.5,0.5,78,158.0
414,D4,123.5,2.5,78,158.0
415,G4,123.5,2.5,78,158.0
416,G4,124.0,0.5,78,158.0
417,D4,124.5,0.5,78,158.0
418,B3,125.0,0.5,78,158.0
419,G3,125.5,0.5,78,158.0
420,B5,126.0,1.0,78,158.0
421,D3,126.0,0.5,78,158.0
422,B2,126.5,0.5,78,158.0
423,G5,127.0,0.5,78,158.0
424,G2,127.0,1.0,78,158.0
425,C6,127.5,0.5,78,158.0
426,G5,128.0,0.5,78,158.0
427,C3,128.0,1.5,78,158.0
428,C2,128.0,1.5,78,158.0
429,D5,128.5,0.5,78,158.0
430,B5,129.0,0.5,78,158.0
431,G4,129.5,1.0,78,158.0
432,C3,129.5,0.5,78,158.0
433,E3,130.0,1.0,78,158.0
434,G3,130.0,1.0,78,158.0
435,C4,130.0,1.0,78,158.0
436,G5,130.5,1.0,78,158.0
437,C3,131.0,0.5,78,158.0
438,C2,131.0,0.5,78,158.0
439,F#5,131.5,3.0,78,158.0
440,B2,131.5,0.5,78,158.0
441,B1,131.5,0.5,78,158.0
442,B2,132.5,0.5,78,158.0
443,B1,132.5,0.5,78,158.0
444,G2,133.0,0.5,78,158.0
445,D3,133.5,0.5,78,158.0
446,G3,134.0,0.5,78,158.0
447,E5,134.5,0.5,78,158.0
448,B3,134.5,0.5,78,158.0
449,E5,135.0,0.5,78,158.0
450,G3,135.0,0.5,78,158.0
451,D3,135.5,0.5,78,158.0
452,B4,135.5,2.0,78,158.0
453,D5,135.5,2.0,78,158.0
454,G2,136.0,0.5,78,158.0
455,A1,136.5,0.5,78,158.0
456,A2,136.5,0.5,78,158.0
457,E3,137.0,0.5,78,158.0
458,G4,137.5,1.0,78,158.0
459,A3,137.5,0.5,78,158.0
460,C4,138.0,0.5,78,158.0
461,E5,138.5,1.0,78,158.0
462,D3,138.5,0.5,78,158.0
463,D2,138.5,0.5,78,158.0
464,D3,139.0,0.5,78,158.0
465,D5,139.5,1.0,78,158.0
466,F#3,139.5,0.5,78,158.0
467,A3,139.5,0.5,78,158.0
468,G1,140.0,0.5,78,158.0
469,G2,140.0,0.5,78,158.0
470,C5,140.5,0.5,78,158.0
471,B4,141.0,1.0,78,158.0
472,G1,141.0,0.5,78,158.0
473,G2,141.0,0.5,78,158.0
474,G2,141.5,0.5,78,158.0
475,A4,142.0,1.0,78,158.0
476,D3,142.0,0.5,78,158.0
477,G3,142.5,0.5,78,158.0
478,A4,143.0,0.5,78,158.0
479,B3,143.0,0.5,78,158.0
480,G3,143.5,0.5,78,158.0
481,G4,143.5,2.5,78,158.0
482,B4,143.5,2.5,78,158.0
483,D3,144.0,0.5,78,158.0
484,G2,144.5,0.5,78,158.0
485,A1,145.0,1.5,78,158.0
486,A2,145.0,1.5,78,158.0
487,B4,146.0,0.5,78,158.0
488,B4,146.5,0.5,78,158.0
489,A2,146.5,0.5,78,158.0
490,B4,147.0,0.5,78,158.0
491,A3,147.0,1.0,78,158.0
492,E3,147.0,1.0,78,158.0
493,C3,147.0,1.0,78,158.0
494,A4,147.5,1.0,78,158.0
495,C5,147.5,1.0,78,158.0
496,A2,148.0,0.5,78,158.0
497,B4,148.5,0.5,78,158.0
498,A1,148.5,0.5,78,158.0
499,A4,149.0,1.0,78,158.0
500,A1,149.0,0.5,78,158.0
501,A2,149.5,0.5,78,158.0
502,E3,150.0,0.5,78,158.0
503,E4,150.0,1.0,78,158.0
504,G4,150.0,1.0,78,158.0
505,A3,150.5,0.5,78,158.0
506,C4,151.0,0.5,78,158.0
507,G4,151.0,0.5,78,158.0
508,E4,151.0,0.5,78,158.0
509,A3,151.5,0.5,78,158.0
510,A4,151.5,1.0,78,158.0
511,C5,151.5,1.0,78,158.0
512,E3,152.0,0.5,78,158.0
513,B4,152.5,0.5,78,158.0
514,A2,152.5,0.5,78,158.0
515,C5,153.0,1.0,78,158.0
516,D2,153.0,0.5,78,158.0
517,D3,153.0,0.5,78,158.0
518,D4,153.5,0.5,78,158.0
519,D5,154.0,1.0,78,158.0
520,A3,154.0,0.5,78,158.0
521,F#3,154.5,0.5,78,158.0
522,D3,155.0,0.5,78,158.0
523,D5,155.0,0.5,78,158.0
524,A4,155.0,0.5,78,158.0
525,A2,155.5,0.5,78,158.0
526,G4,156.0,1.5,78,158.0
527,F#2,156.0,0.5,78,158.0
528,D5,156.0,0.5,78,158.0
529,A4,156.0,0.5,78,158.0
530,D2,156.5,0.5,78,158.0
531,D2,157.0,0.5,78,158.0
532,D1,157.0,0.5,78,158.0
533,F#4,157.5,1.5,78,158.0
534,D2,157.5,0.5,78,158.0
535,D1,157.5,0.5,78,158.0
536,D1,158.0,0.5,73,158.0
537,D2,158.0,0.5,73,158.0
538,D1,158.5,0.5,73,158.0
539,D2,158.5,0.5,73,158.0
540,D4,159.0,1.0,78,158.0
541,G2,161.0,1.0,73,158.0
542,G1,161.0,1.0,73,158.0
543,D5,162.0,1.0,73,158.0
544,D4,162.0,1.0,73,158.0
545,F#4,162.0,1.0,73,158.0
546,A4,162.0,1.0,73,158.0
547,B3,162.0,0.5,73,158.0
548,G3,162.0,0.5,73,158.0
549,D3,162.5,0.5,73,158.0
550,G2,163.0,0.5,73,158.0
551,G5,163.0,1.0,73,158.0
552,G4,163.0,1.0,73,158.0
553,D3,163.5,0.5,73,158.0
554,D5,164.0,0.5,73,158.0
555,A4,164.0,0.5,73,158.0
556,A5,164.0,0.5,73,158.0
557,B3,164.0,0.5,73,158.0
558,G3,164.0,0.5,73,158.0
559,D3,164.5,0.5,73,158.0
560,G5,164.5,0.5,73,158.0
561,G4,164.5,0.5,73,158.0
562,G2,165.0,0.5,73,158.0
563,D5,165.0,0.5,73,158.0
564,A4,165.0,0.5,73,158.0
565,A5,165.0,0.5,73,158.0
566,D3,165.5,0.5,73,158.0
567,G5,165.5,0.5,73,158.0
568,G4,165.5,0.5,73,158.0
569,D5,166.0,1.0,73,158.0
570,A4,166.0,1.0,73,158.0
571,A5,166.0,1.0,73,158.0
572,B3,166.0,0.5,73,158.0
573,G3,166.0,0.5,73,158.0
574,D3,166.5,0.5,73,158.0
575,G2,167.0,0.5,73,158.0
576,G5,167.0,0.5,73,158.0
577,G4,167.0,0.5,73,158.0
578,D3,167.5,0.5,73,158.0
579,D5,167.5,0.5,73,158.0
580,A4,167.5,0.5,73,158.0
581,A5,167.5,0.5,73,158.0
582,B3,168.0,0.5,73,158.0
583,G3,168.0,0.5,73,158.0
584,D3,168.5,0.5,73,158.0
585,D5,168.5,0.5,73,158.0
586,A4,168.5,0.5,73,158.0
587,A5,168.5,0.5,73,158.0
588,G5,169.0,0.5,73,158.0
589,G4,169.0,0.5,73,158.0
590,C3,169.0,1.0,73,158.0
591,C2,169.0,1.0,73,158.0
592,D5,169.5,0.5,73,158.0
593,A4,169.5,0.5,73,158.0
594,A5,169.5,0.5,73,158.0
595,B5,170.0,0.5,73,158.0
596,B4,170.0,0.5,73,158.0
597,E4,170.0,0.5,73,158.0
598,C4,170.0,0.5,73,158.0
599,G3,170.5,0.5,73,158.0
600,G5,170.5,2.0,73,158.0
601,B4,170.5,2.0,73,158.0
602,D5,170.5,2.0,73,158.0
603,B5,170.5,2.0,73,158.0
604,C3,171.0,0.5,73,158.0
605,G3,171.5,0.5,73,158.0
606,E4,172.0,0.5,73,158.0
607,C4,172.0,0.5,73,158.0
608,G3,172.5,0.5,73,158.0
609,E5,172.5,0.5,73,158.0
610,A4,172.5,0.5,73,158.0
611,C5,172.5,0.5,73,158.0
612,A5,172.5,0.5,73,158.0
613,C3,173.0,0.5,73,158.0
614,G5,173.0,0.5,73,158.0
615,G4,173.0,0.5,73,158.0
616,G3,173.5,0.5,73,158.0
617,E5,173.5,0.5,73,158.0
618,A4,173.5,0.5,73,158.0
619,C5,173.5,0.5,73,158.0
620,A5,173.5,0.5,73,158.0
621,G5,174.0,0.5,73,158.0
622,G4,174.0,0.5,73,158.0
623,C4,174.0,0.5,73,158.0
624,E4,174.0,0.5,73,158.0
625,G3,174.5,0.5,73,158.0
626,E5,174.5,1.0,73,158.0
627,A4,174.5,1.0,73,158.0
628,C5,174.5,1.0,73,158.0
629,A5,174.5,1.0,73,158.0
630,C3,175.0,0.5,73,158.0
631,G3,175.5,0.5,73,158.0
632,G5,175.5,0.5,73,158.0
633,G4,175.5,0.5,73,158.0
634,E5,176.0,0.5,73,158.0
635,A4,176.0,0.5,73,158.0
636,C5,176.0,0.5,73,158.0
637,A5,176.0,0.5,73,158.0
638,C4,176.0,0.5,73,158.0
639,E4,176.0,0.5,73,158.0
640,G3,176.5,0.5,73,158.0
641,E5,177.0,0.5,73,158.0
642,A4,177.0,0.5,73,158.0
643,C5,177.0,0.5,73,158.0
644,A5,177.0,0.5,73,158.0
645,E1,177.0,1.0,73,158.0
646,E2,177.0,1.0,73,158.0
647,G5,177.5,0.5,73,158.0
648,G4,177.5,0.5,73,158.0
649,A5,178.0,0.5,73,158.0
650,A4,178.0,0.5,73,158.0
651,G3,178.0,0.5,73,158.0
652,E3,178.0,0.5,73,158.0
653,B2,178.5,0.5,73,158.0
654,B5,178.5,0.5,73,158.0
655,B4,178.5,0.5,73,158.0
656,E2,179.0,0.5,73,158.0
657,E5,179.0,1.0,73,158.0
658,B4,179.0,1.0,73,158.0
659,B5,179.0,1.0,73,158.0
660,G5,179.0,1.0,73,158.0
661,B2,179.5,0.5,73,158.0
662,C5,180.0,1.0,73,158.0
663,G4,180.0,1.0,73,158.0
664,G5,180.0,1.0,73,158.0
665,E5,180.0,1.0,73,158.0
666,G3,180.0,0.5,73,158.0
667,E3,180.0,0.5,73,158.0
668,B2,180.5,0.5,73,158.0
669,F#5,181.0,1.5,73,158.0
670,F#4,181.0,1.5,73,158.0
671,D5,181.0,1.5,73,158.0
672,B4,181.0,1.5,73,158.0
673,D1,181.0,1.0,73,158.0
674,D2,181.0,1.0,73,158.0
675,F#3,182.0,0.5,73,158.0
676,D3,182.0,0.5,73,158.0
677,A2,182.5,0.5,73,158.0
678,G5,182.5,1.5,73,158.0
679,G4,182.5,1.5,73,158.0
680,E5,182.5,1.5,73,158.0
681,B4,182.5,1.5,73,158.0
682,D2,183.0,0.5,73,158.0
683,A2,183.5,0.5,73,158.0
684,A5,184.0,0.5,73,158.0
685,A4,184.0,0.5,73,158.0
686,F#3,184.0,0.5,73,158.0
687,D3,184.0,0.5,73,158.0
688,A2,184.5,0.5,73,158.0
689,G5,184.5,0.5,73,158.0
690,G4,184.5,0.5,73,158.0
691,F#5,185.0,1.5,73,158.0
692,F#4,185.0,1.5,73,158.0
693,D5,185.0,1.5,73,158.0
694,A4,185.0,1.5,73,158.0
695,C2,185.0,1.0,73,158.0
696,C3,185.0,1.0,73,158.0
697,E4,186.0,0.5,73,158.0
698,C4,186.0,0.5,73,158.0
699,G3,186.5,0.5,73,158.0
700,G5,186.5,2.0,73,158.0
701,G4,186.5,2.0,73,158.0
702,D5,186.5,2.0,73,158.0
703,C3,187.0,0.5,73,158.0
704,G3,187.5,0.5,73,158.0
705,E4,188.0,0.5,73,158.0
706,C4,188.0,0.5,73,158.0
707,G3,188.5,0.5,73,158.0
708,D5,188.5,0.5,73,158.0
709,D4,188.5,0.5,73,158.0
710,E5,189.0,0.5,73,158.0
711,E4,189.0,0.5,73,158.0
712,D3,189.0,0.5,73,158.0
713,D2,189.0,0.5,73,158.0
714,D3,189.5,0.5,73,158.0
715,C5,189.5,0.5,73,158.0
716,G4,189.5,0.5,73,158.0
717,E5,189.5,0.5,73,158.0
718,G5,189.5,0.5,73,158.0
719,C5,190.0,0.5,73,158.0
720,G4,190.0,0.5,73,158.0
721,E5,190.0,0.5,73,158.0
722,G5,190.0,0.5,73,158.0
723,D4,190.0,0.5,73,158.0
724,A3,190.0,0.5,73,158.0
725,F#3,190.0,0.5,73,158.0
726,D3,190.5,0.5,73,158.0
727,C5,190.5,0.5,73,158.0
728,G4,190.5,0.5,73,158.0
729,E5,190.5,0.5,73,158.0
730,G5,190.5,0.5,73,158.0
731,C5,191.0,0.5,73,158.0
732,G4,191.0,0.5,73,158.0
733,E5,191.0,0.5,73,158.0
734,G5,191.0,0.5,73,158.0
735,F#2,191.0,0.5,73,158.0
736,F#1,191.0,0.5,73,158.0
737,D3,191.5,0.5,73,158.0
738,C5,191.5,1.0,73,158.0
739,G4,191.5,1.0,73,158.0
740,E5,191.5,1.0,73,158.0
741,G5,191.5,1.0,73,158.0
742,F#3,192.0,0.5,73,158.0
743,D4,192.0,0.5,73,158.0
744,A3,192.0,0.5,73,158.0
745,D3,192.5,0.5,73,158.0
746,C5,192.5,0.5,73,158.0
747,G4,192.5,0.5,73,158.0
748,E5,192.5,0.5,73,158.0
749,G5,192.5,0.5,73,158.0
750,G5,193.0,1.0,73,158.0
751,G4,193.0,1.0,73,158.0
752,G2,193.0,0.5,73,158.0
753,G1,193.0,0.5,73,158.0
754,G2,193.5,0.5,73,158.0
755,F#5,194.0,0.5,73,158.0
756,F#4,194.0,0.5,73,158.0
757,G3,194.0,0.5,73,158.0
758,B2,194.0,0.5,73,158.0
759,D3,194.0,0.5,73,158.0
760,G2,194.5,0.5,73,158.0
761,G5,194.5,1.0,73,158.0
762,G4,194.5,1.0,73,158.0
763,G2,195.0,0.5,73,158.0
764,G2,195.5,0.5,73,158.0
765,F#5,195.5,1.5,73,158.0
766,A4,195.5,1.5,73,158.0
767,D5,195.5,1.5,73,158.0
768,A5,195.5,1.5,73,158.0
769,G3,196.0,0.5,73,158.0
770,B2,196.0,0.5,73,158.0
771,D3,196.0,0.5,73,158.0
772,G2,196.5,0.5,73,158.0
773,A4,197.0,0.5,73,158.0
774,A5,197.0,0.5,73,158.0
775,D5,197.0,0.5,73,158.0
776,G1,197.0,0.5,73,158.0
777,G2,197.0,0.5,73,158.0
778,G3,197.5,0.5,73,158.0
779,G5,197.5,0.5,73,158.0
780,G4,197.5,0.5,73,158.0
781,F#3,198.0,0.5,73,158.0
782,A5,198.0,0.5,73,158.0
783,A4,198.0,0.5,73,158.0
784,D5,198.0,0.5,73,158.0
785,D3,198.5,0.5,73,158.0
786,G5,198.5,0.5,73,158.0
787,G4,198.5,0.5,73,158.0
788,B2,199.0,0.5,73,158.0
789,A5,199.0,1.0,73,158.0
790,A4,199.0,1.0,73,158.0
791,D5,199.0,1.0,73,158.0
792,G2,199.5,0.5,73,158.0
793,D2,200.0,0.5,73,158.0
794,G5,200.0,0.5,73,158.0
795,G4,200.0,0.5,73,158.0
796,B1,200.5,0.5,73,158.0
797,A5,200.5,0.5,73,158.0
798,A4,200.5,0.5,73,158.0
799,D5,200.5,0.5,73,158.0
800,C2,201.0,0.5,73,158.0
801,C3,201.0,0.5,73,158.0
802,C3,201.5,0.5,73,158.0
803,A5,201.5,0.5,73,158.0
804,A4,201.5,0.5,73,158.0
805,D5,201.5,0.5,73,158.0
806,G5,202.0,0.5,73,158.0
807,G4,202.0,0.5,73,158.0
808,C4,202.0,0.5,73,158.0
809,E3,202.0,0.5,73,158.0
810,G3,202.0,0.5,73,158.0
811,C3,202.5,0.5,73,158.0
812,A5,202.5,0.5,73,158.0
813,A4,202.5,0.5,73,158.0
814,D5,202.5,0.5,73,158.0
815,C3,203.0,0.5,73,158.0
816,B5,203.0,0.5,73,158.0
817,B4,203.0,0.5,73,158.0
818,C3,203.5,0.5,73,158.0
819,B5,203.5,2.0,73,158.0
820,B4,203.5,2.0,73,158.0
821,G5,203.5,2.0,73,158.0
822,D5,203.5,2.0,73,158.0
823,G3,204.0,0.5,73,158.0
824,E3,204.0,0.5,73,158.0
825,C4,204.0,0.5,73,158.0
826,C3,204.5,0.5,73,158.0
827,B2,205.0,0.5,73,158.0
828,B1,205.0,0.5,73,158.0
829,B2,205.5,0.5,73,158.0
830,A5,205.5,0.5,73,158.0
831,A4,205.5,0.5,73,158.0
832,E5,205.5,0.5,73,158.0
833,C5,205.5,0.5,73,158.0
834,G5,206.0,0.5,73,158.0
835,G4,206.0,0.5,73,158.0
836,B3,206.0,0.5,73,158.0
837,F#3,206.0,0.5,73,158.0
838,E-3,206.0,0.5,73,158.0
839,B2,206.5,0.5,73,158.0
840,A5,206.5,0.5,73,158.0
841,A4,206.5,0.5,73,158.0
842,E5,206.5,0.5,73,158.0
843,C5,206.5,0.5,73,158.0
844,G5,207.0,0.5,73,158.0
845,G4,207.0,0.5,73,158.0
846,E-3,207.0,0.5,73,158.0
847,E-2,207.0,0.5,73,158.0
848,E-3,207.5,0.5,73,158.0
849,A5,207.5,1.0,73,158.0
850,A4,207.5,1.0,73,158.0
851,E5,207.5,1.0,73,158.0
852,C5,207.5,1.0,73,158.0
853,B3,208.0,0.5,73,158.0
854,F#3,208.0,0.5,73,158.0
855,E-3,208.0,0.5,73,158.0
856,E-3,208.5,0.5,73,158.0
857,G5,208.5,0.5,73,158.0
858,G4,208.5,0.5,73,158.0
859,A5,209.0,0.5,73,158.0
860,A4,209.0,0.5,73,158.0
861,F#5,209.0,0.5,73,158.0
862,E-5,209.0,0.5,73,158.0
863,E3,209.0,0.5,73,158.0
864,E2,209.0,0.5,73,158.0
865,E3,209.5,0.5,73,158.0
866,A5,210.0,0.5,73,158.0
867,A4,210.0,0.5,73,158.0
868,F#5,210.0,0.5,73,158.0
869,E-5,210.0,0.5,73,158.0
870,E4,210.0,0.5,73,158.0
871,B3,210.0,0.5,73,158.0
872,G3,210.0,0.5,73,158.0
873,E3,210.5,0.5,73,158.0
874,G5,210.5,0.5,73,158.0
875,G4,210.5,0.5,73,158.0
876,E3,211.0,0.5,73,158.0
877,A5,211.0,0.5,73,158.0
878,A4,211.0,0.5,73,158.0
879,E3,211.5,0.5,73,158.0
880,D6,211.5,0.5,73,158.0
881,D5,211.5,0.5,73,158.0
882,B5,212.0,1.0,73,158.0
883,B4,212.0,1.0,73,158.0
884,E-5,212.0,1.0,73,158.0
885,F#5,212.0,1.0,73,158.0
886,E4,212.0,0.5,73,158.0
887,G3,212.0,0.5,73,158.0
888,B3,212.0,0.5,73,158.0
889,E3,212.5,0.5,73,158.0
890,G5,213.0,1.0,73,158.0
891,G4,213.0,1.0,73,158.0
892,B4,213.0,1.0,73,158.0
893,D2,213.0,0.5,73,158.0
894,D3,213.0,0.5,73,158.0
895,D3,213.5,0.5,73,158.0
896,F#5,214.0,1.5,73,158.0
897,F#4,214.0,1.5,73,158.0
898,B4,214.0,1.5,73,158.0
899,D5,214.0,1.5,73,158.0
900,D4,214.0,0.5,73,158.0
901,F#3,214.0,0.5,73,158.0
902,A3,214.0,0.5,73,158.0
903,D3,214.5,0.5,73,158.0
904,D3,215.0,0.5,73,158.0
905,D3,215.5,0.5,73,158.0
906,G5,215.5,1.5,73,158.0
907,G4,215.5,1.5,73,158.0
908,B4,215.5,1.5,73,158.0
909,E5,215.5,1.5,73,158.0
910,A3,216.0,0.5,73,158.0
911,F#3,216.0,0.5,73,158.0
912,D4,216.0,0.5,73,158.0
913,D3,216.5,0.5,73,158.0
914,A5,217.0,0.75,73,158.0
915,A4,217.0,0.75,73,158.0
916,C2,217.0,0.5,73,158.0
917,C3,217.0,0.5,73,158.0
918,C3,217.5,0.5,73,158.0
919,G5,217.75,0.25,73,158.0
920,G4,217.75,0.25,73,158.0
921,F#5,218.0,1.5,73,158.0
922,F#4,218.0,1.5,73,158.0
923,C4,218.0,0.5,73,158.0
924,E-3,218.0,0.5,73,158.0
925,G3,218.0,0.5,73,158.0
926,C3,218.5,0.5,73,158.0
927,C3,219.0,0.5,73,158.0
928,C3,219.5,0.5,73,158.0
929,G5,219.5,2.0,73,158.0
930,G4,219.5,2.0,73,158.0
931,D5,219.5,2.0,73,158.0
932,G3,220.0,0.5,73,158.0
933,E-3,220.0,0.5,73,158.0
934,C4,220.0,0.5,73,158.0
935,C3,220.5,0.5,73,158.0
936,D3,221.0,0.5,73,158.0
937,D2,221.0,0.5,73,158.0
938,D3,221.5,0.5,73,158.0
939,D5,221.5,0.5,73,158.0
940,D4,221.5,0.5,73,158.0
941,E5,222.0,0.5,73,158.0
942,E4,222.0,0.5,73,158.0
943,A3,222.0,0.5,73,158.0
944,F#3,222.0,0.5,73,158.0
945,D4,222.0,0.5,73,158.0
946,D3,222.5,0.5,73,158.0
947,G5,222.5,0.5,73,158.0
948,G4,222.5,0.5,73,158.0
949,E-5,222.5,0.5,73,158.0
950,C5,222.5,0.5,73,158.0
951,D4,223.0,0.25,73,158.0
952,G5,223.0,0.5,73,158.0
953,G4,223.0,0.5,73,158.0
954,E-5,223.0,0.5,73,158.0
955,C5,223.0,0.5,73,158.0
956,A3,223.25,0.25,73,158.0
957,F#3,223.5,0.25,73,158.0
958,G5,223.5,1.0,73,158.0
959,G4,223.5,1.0,73,158.0
960,C5,223.5,1.0,73,158.0
961,E-5,223.5,1.0,73,158.0
962,D3,223.75,0.25,73,158.0
963,A2,224.0,0.25,73,158.0
964,F#2,224.25,0.25,73,158.0
965,D2,224.5,0.5,73,158.0
966,G5,224.5,0.5,73,158.0
967,G4,224.5,0.5,73,158.0
968,E-5,224.5,0.5,73,158.0
969,C5,224.5,0.5,73,158.0
970,G5,225.0,0.5,73,158.0
971,G4,225.0,0.5,73,158.0
972,E-5,225.0,0.5,73,158.0
973,C5,225.0,0.5,73,158.0
974,G1,225.0,4.0,73,158.0
975,G2,225.0,4.0,73,158.0
976,G5,225.5,0.5,73,158.0
977,G4,225.5,0.5,73,158.0
978,C5,225.5,0.5,73,158.0
979,E-5,225.5,0.5,73,158.0
980,G5,226.0,1.0,73,158.0
981,G4,226.0,1.0,73,158.0
982,G5,227.0,0.5,73,158.0
983,G4,227.0,0.5,73,158.0
984,F#5,227.5,1.0,73,158.0
985,F#4,227.5,1.0,73,158.0
986,G5,228.5,0.5,73,158.0
987,G4,228.5,0.5,73,158.0
988,D5,229.0,1.0,73,158.0
989,G4,229.0,1.0,73,158.0
990,B4,229.0,1.0,73,158.0
991,G5,229.0,1.0,73,158.0
992,D5,234.0,4.0,73,158.0
993,G4,234.0,4.0,73,158.0
994,B4,234.0,4.0,73,158.0
995,G5,234.0,4.0,73,158.0
