,note_name,start_time,duration,velocity,tempo
0,E4,0.0,0.5,103,201.0
1,B1,0.0,1.5,84,201.0
2,F#2,0.0,1.5,84,201.0
3,B2,0.0,1.5,84,201.0
4,F#4,0.5,0.5,103,201.0
5,A4,1.0,0.5,103,201.0
6,B4,1.5,0.5,103,201.0
7,B1,1.5,1.5,84,201.0
8,F#2,1.5,1.5,84,201.0
9,B2,1.5,1.5,84,201.0
10,F#4,2.0,0.5,103,201.0
11,A4,2.5,0.5,103,201.0
12,F#4,3.0,0.5,103,201.0
13,B1,3.0,1.5,84,201.0
14,F#2,3.0,1.5,84,201.0
15,B2,3.0,1.5,84,201.0
16,A4,3.5,0.5,103,201.0
17,B4,4.0,0.5,103,201.0
18,E5,4.5,0.5,103,201.0
19,B2,4.5,1.5,84,201.0
20,F#2,4.5,1.5,84,201.0
21,B1,4.5,1.5,84,201.0
22,A4,5.0,0.5,103,201.0
23,B4,5.5,0.5,103,201.0
24,A4,6.0,0.5,103,201.0
25,B2,6.0,1.0,84,201.0
26,F#2,6.0,1.0,84,201.0
27,B1,6.0,1.0,84,201.0
28,B4,6.5,0.5,103,201.0
29,E5,7.0,0.5,103,201.0
30,F#2,7.0,1.0,84,201.0
31,B2,7.0,1.0,84,201.0
32,B1,7.0,1.0,84,201.0
33,F#5,7.5,0.5,103,201.0
34,B4,8.0,0.5,103,201.0
35,B1,8.0,1.0,84,201.0
36,F#2,8.0,1.0,84,201.0
37,B2,8.0,1.0,84,201.0
38,E5,8.5,0.5,103,201.0
39,A4,9.0,0.5,103,201.0
40,B1,9.0,1.0,84,201.0
41,F#2,9.0,1.0,84,201.0
42,B2,9.0,1.0,84,201.0
43,B4,9.5,0.5,103,201.0
44,E5,10.0,0.5,103,201.0
45,B1,10.0,1.0,84,201.0
46,F#2,10.0,1.0,84,201.0
47,B2,10.0,1.0,84,201.0
48,F#5,10.5,0.5,103,201.0
49,B5,11.0,0.5,103,201.0
50,B1,11.0,1.0,84,201.0
51,F#2,11.0,1.0,84,201.0
52,B2,11.0,1.0,84,201.0
53,E5,11.5,0.5,103,201.0
54,E6,12.0,31/250,103,201.0
55,B2,12.0,1.0,84,201.0
56,B1,12.0,1.0,84,201.0
57,E-6,12.124,31/250,103,201.0
58,C#6,12.25,31/250,103,201.0
59,B5,12.374,31/250,103,201.0
60,A5,12.5,31/250,103,201.0
61,G#5,12.624,31/250,103,201.0
62,F#5,12.75,31/250,103,201.0
63,E5,12.874,31/250,103,201.0
64,F#5,13.0,1.0,80,201.0
65,F#4,13.0,1.0,80,201.0
66,F#2,13.0,1.0,84,201.0
67,F#1,13.0,1.0,84,201.0
68,F#5,14.0,0.5,80,201.0
69,F#4,14.0,0.5,80,201.0
70,E-1,14.0,1.0,84,201.0
71,E-2,14.0,1.0,84,201.0
72,F#5,14.5,0.5,80,201.0
73,F#4,14.5,0.5,80,201.0
74,G#5,15.0,1.0,80,201.0
75,G#4,15.0,1.0,80,201.0
76,E1,15.0,1.0,78,201.0
77,E2,15.0,1.0,78,201.0
78,G#4,16.0,1.0,80,201.0
79,G#5,16.0,1.0,80,201.0
80,G#3,16.0,1.0,84,201.0
81,B3,16.0,1.0,84,201.0
82,G#4,17.0,1.0,80,201.0
83,G#5,17.0,1.0,80,201.0
84,B3,17.0,1.0,84,201.0
85,G#3,17.0,1.0,84,201.0
86,E2,18.0,1.0,62,201.0
87,F#4,18.0,1.0,80,201.0
88,F#5,18.0,1.0,80,201.0
89,F#5,19.0,1.0,80,201.0
90,F#4,19.0,1.0,80,201.0
91,G#3,19.0,1.0,67,201.0
92,B3,19.0,1.0,67,201.0
93,F#5,20.0,0.5,80,201.0
94,F#4,20.0,0.5,80,201.0
95,G#3,20.0,0.5,67,201.0
96,B3,20.0,0.5,67,201.0
97,F#5,20.5,0.5,80,201.0
98,F#4,20.5,0.5,80,201.0
99,B3,20.5,0.5,67,201.0
100,G#3,20.5,0.5,67,201.0
101,E2,21.0,1.0,62,201.0
102,G#4,21.0,1.0,80,201.0
103,G#5,21.0,1.0,80,201.0
104,G#4,22.0,1.0,80,201.0
105,G#5,22.0,1.0,80,201.0
106,G#3,22.0,1.0,67,201.0
107,B3,22.0,1.0,67,201.0
108,G#4,23.0,1.0,80,201.0
109,G#5,23.0,1.0,80,201.0
110,B3,23.0,1.0,67,201.0
111,G#3,23.0,1.0,67,201.0
112,F#4,24.0,1.0,80,201.0
113,F#5,24.0,1.0,80,201.0
114,E2,24.0,1.0,62,201.0
115,E1,24.0,1.0,62,201.0
116,F#4,25.0,1.0,95,201.0
117,B3,25.0,1.0,67,201.0
118,G#3,25.0,1.0,67,201.0
119,G#4,26.0,1.0,95,201.0
120,B3,26.0,0.5,67,201.0
121,G#3,26.0,0.5,67,201.0
122,G#3,26.5,0.5,67,201.0
123,B3,26.5,0.5,67,201.0
124,E2,27.0,1.0,62,201.0
125,E4,27.0,3.0,95,201.0
126,G#4,27.0,3.0,95,201.0
127,B3,28.0,1.0,67,201.0
128,G#3,28.0,1.0,67,201.0
129,G#3,29.0,1.0,67,201.0
130,B3,29.0,1.0,67,201.0
131,C#2,30.0,1.0,62,201.0
132,C#3,30.0,1.0,62,201.0
133,G#4,31.0,1.0,95,201.0
134,G#3,31.0,1.0,67,201.0
135,B3,31.0,1.0,67,201.0
136,B4,32.0,1.0,95,201.0
137,G#3,32.0,0.5,67,201.0
138,B3,32.0,0.5,67,201.0
139,B3,32.5,0.5,67,201.0
140,G#3,32.5,0.5,67,201.0
141,C#2,33.0,1.0,62,201.0
142,G#4,33.0,2.0,95,201.0
143,B4,33.0,2.0,95,201.0
144,E4,33.0,2.0,95,201.0
145,G#3,34.0,1.0,67,201.0
146,B3,34.0,1.0,67,201.0
147,B3,35.0,1.0,67,201.0
148,G#3,35.0,1.0,67,201.0
149,G#4,36.0,2.0,95,201.0
150,B4,36.0,2.0,95,201.0
151,G#1,36.0,1.0,62,201.0
152,G#2,36.0,1.0,62,201.0
153,B3,37.0,1.0,67,201.0
154,G#3,37.0,1.0,67,201.0
155,F#4,38.0,1.0,95,201.0
156,B3,38.0,0.5,67,201.0
157,G#3,38.0,0.5,67,201.0
158,G#3,38.5,0.5,67,201.0
159,B3,38.5,0.5,67,201.0
160,F#4,39.0,3.0,95,201.0
161,G#2,39.0,1.0,62,201.0
162,G#3,40.0,1.0,67,201.0
163,B3,40.0,1.0,67,201.0
164,G#3,41.0,1.0,67,201.0
165,B3,41.0,1.0,67,201.0
166,A1,42.0,1.0,62,201.0
167,A2,42.0,1.0,62,201.0
168,F#4,43.0,0.5,95,201.0
169,C#4,43.0,1.0,67,201.0
170,A3,43.0,1.0,67,201.0
171,F#4,43.5,0.5,95,201.0
172,G#4,44.0,1.0,95,201.0
173,C#4,44.0,0.5,67,201.0
174,A3,44.0,0.5,67,201.0
175,A3,44.5,0.5,67,201.0
176,C#4,44.5,0.5,67,201.0
177,A2,45.0,1.0,62,201.0
178,E4,45.0,2.0,95,201.0
179,G#4,45.0,2.0,95,201.0
180,A3,46.0,1.0,67,201.0
181,C#4,46.0,1.0,67,201.0
182,B3,47.0,1.0,95,201.0
183,A3,47.0,1.0,67,201.0
184,C#4,47.0,1.0,67,201.0
185,B3,48.0,1.0,95,201.0
186,E1,48.0,1.0,62,201.0
187,E2,48.0,1.0,62,201.0
188,G#4,49.0,1.0,95,201.0
189,E4,49.0,1.0,95,201.0
190,G#3,49.0,1.0,67,201.0
191,B3,49.0,1.0,67,201.0
192,G#4,50.0,1.0,95,201.0
193,E4,50.0,1.0,95,201.0
194,G#3,50.0,0.5,67,201.0
195,B3,50.0,0.5,67,201.0
196,B3,50.5,0.5,67,201.0
197,G#3,50.5,0.5,67,201.0
198,E2,51.0,1.0,62,201.0
199,G#4,51.0,3.0,95,201.0
200,E4,51.0,3.0,95,201.0
201,G#3,52.0,1.0,67,201.0
202,B3,52.0,1.0,67,201.0
203,B3,53.0,1.0,67,201.0
204,G#3,53.0,1.0,67,201.0
205,C#2,54.0,1.0,62,201.0
206,C#3,54.0,1.0,62,201.0
207,G#4,55.0,1.0,95,201.0
208,B3,55.0,1.0,67,201.0
209,G#3,55.0,1.0,67,201.0
210,G#4,56.0,1.0,95,201.0
211,B4,56.0,1.0,95,201.0
212,B3,56.0,0.5,67,201.0
213,G#3,56.0,0.5,67,201.0
214,G#3,56.5,0.5,67,201.0
215,B3,56.5,0.5,67,201.0
216,C#3,57.0,1.0,62,201.0
217,G#4,57.0,2.0,95,201.0
218,B4,57.0,2.0,95,201.0
219,G#3,58.0,1.0,67,201.0
220,B3,58.0,1.0,67,201.0
221,C#5,59.0,1.0,95,201.0
222,G#3,59.0,1.0,67,201.0
223,B3,59.0,1.0,67,201.0
224,F#4,60.0,2.0,95,201.0
225,E-4,60.0,2.0,95,201.0
226,G#2,60.0,1.0,62,201.0
227,G#1,60.0,1.0,62,201.0
228,B3,61.0,1.0,67,201.0
229,G#3,61.0,1.0,67,201.0
230,F#4,62.0,1.0,95,201.0
231,E-4,62.0,1.0,95,201.0
232,B3,62.0,0.5,67,201.0
233,G#3,62.0,0.5,67,201.0
234,B3,62.5,0.5,67,201.0
235,G#3,62.5,0.5,67,201.0
236,G#2,63.0,1.0,62,201.0
237,F#4,63.0,2.0,95,201.0
238,E-4,63.0,2.0,95,201.0
239,G#3,64.0,1.0,67,201.0
240,B3,64.0,1.0,67,201.0
241,G#4,65.0,1.0,95,201.0
242,G#3,65.0,1.0,67,201.0
243,B3,65.0,1.0,67,201.0
244,E4,66.0,3.0,95,201.0
245,C#4,66.0,3.0,95,201.0
246,A1,66.0,1.0,62,201.0
247,A2,66.0,1.0,62,201.0
248,C#4,67.0,1.0,67,201.0
249,A3,67.0,1.0,67,201.0
250,C#4,68.0,0.5,67,201.0
251,A3,68.0,0.5,67,201.0
252,C#4,68.5,0.5,67,201.0
253,A3,68.5,0.5,67,201.0
254,A2,69.0,1.0,62,201.0
255,G#4,70.0,1.0,95,201.0
256,A3,70.0,1.0,67,201.0
257,C#4,70.0,1.0,67,201.0
258,A4,71.0,1.0,95,201.0
259,A3,71.0,1.0,67,201.0
260,C#4,71.0,1.0,67,201.0
261,B4,72.0,2.0,95,201.0
262,G#4,72.0,2.0,95,201.0
263,G#2,72.0,1.0,62,201.0
264,G#1,72.0,1.0,62,201.0
265,G#2,73.0,1.0,62,201.0
266,E3,74.0,1.0,62,201.0
267,B4,74.0,1.0,95,201.0
268,G#4,74.0,1.0,95,201.0
269,B3,75.0,1.0,62,201.0
270,G#4,75.0,1.0,95,201.0
271,B4,75.0,1.0,95,201.0
272,E3,76.0,1.0,62,201.0
273,A4,76.0,1.0,95,201.0
274,F#4,76.0,1.0,95,201.0
275,G#2,77.0,1.0,62,201.0
276,G#4,77.0,1.0,95,201.0
277,E4,77.0,1.0,95,201.0
278,F#4,78.0,1.5,95,201.0
279,C#4,78.0,1.5,95,201.0
280,A1,78.0,1.0,62,201.0
281,A2,78.0,1.0,62,201.0
282,A2,79.0,1.0,62,201.0
283,E4,79.5,1.5,95,201.0
284,B3,79.5,1.5,95,201.0
285,E3,80.0,1.0,62,201.0
286,C#4,81.0,1.0,62,201.0
287,F#4,81.0,1.5,95,201.0
288,C#4,81.0,1.5,95,201.0
289,E3,82.0,1.0,62,201.0
290,G#4,82.5,1.5,95,201.0
291,E4,82.5,1.5,95,201.0
292,A2,83.0,1.0,62,201.0
293,B4,84.0,2.0,95,201.0
294,F#4,84.0,2.0,95,201.0
295,B1,84.0,1.0,62,201.0
296,B2,84.0,1.0,62,201.0
297,B2,85.0,1.0,62,201.0
298,F#3,86.0,1.0,62,201.0
299,B4,86.0,1.0,95,201.0
300,F#4,86.0,1.0,95,201.0
301,E-4,87.0,1.0,62,201.0
302,B4,87.0,1.0,95,201.0
303,F#4,87.0,1.0,95,201.0
304,F#3,88.0,1.0,62,201.0
305,F#4,88.0,1.0,95,201.0
306,A4,88.0,1.0,95,201.0
307,B2,89.0,1.0,62,201.0
308,E4,89.0,1.0,95,201.0
309,G#4,89.0,1.0,95,201.0
310,C#4,90.0,1.5,95,201.0
311,F#4,90.0,1.5,95,201.0
312,C#3,90.0,1.0,62,201.0
313,C#2,90.0,1.0,62,201.0
314,C#3,91.0,1.0,62,201.0
315,C#4,91.5,1.5,95,201.0
316,G#4,91.5,1.5,95,201.0
317,G#3,92.0,1.0,62,201.0
318,C#4,93.0,1.0,62,201.0
319,C#4,93.0,1.5,95,201.0
320,F#4,93.0,1.5,95,201.0
321,G#3,94.0,1.0,62,201.0
322,C#3,95.0,1.0,62,201.0
323,G#2,96.0,0.5,62,201.0
324,G#4,96.0,2.0,95,201.0
325,B4,96.0,2.0,95,201.0
326,E3,96.5,0.5,62,201.0
327,B3,97.0,0.5,62,201.0
328,E3,97.5,0.5,62,201.0
329,G#3,98.0,0.5,62,201.0
330,G#4,98.0,1.0,95,201.0
331,B4,98.0,1.0,95,201.0
332,B3,98.5,0.5,62,201.0
333,E4,99.0,0.5,62,201.0
334,G#4,99.0,1.0,95,201.0
335,B4,99.0,1.0,95,201.0
336,B3,99.5,0.5,62,201.0
337,A4,100.0,1.0,95,201.0
338,G#3,100.0,0.5,62,201.0
339,E3,100.5,0.5,62,201.0
340,G#4,101.0,1.0,95,201.0
341,B2,101.0,0.5,62,201.0
342,E2,101.5,0.5,62,201.0
343,F#4,102.0,1.5,95,201.0
344,A1,102.0,0.5,62,201.0
345,E2,102.5,0.5,62,201.0
346,C#3,103.0,0.5,62,201.0
347,E4,103.5,1.5,95,201.0
348,A2,103.5,0.5,62,201.0
349,C#3,104.0,0.5,62,201.0
350,E3,104.5,0.5,62,201.0
351,A3,105.0,0.5,62,201.0
352,E3,105.5,0.5,62,201.0
353,A4,106.0,1.0,95,201.0
354,C#3,106.0,0.5,62,201.0
355,A2,106.5,0.5,62,201.0
356,A4,107.0,1.0,95,201.0
357,E2,107.0,0.5,62,201.0
358,A1,107.5,0.5,62,201.0
359,B1,108.0,0.5,62,201.0
360,B4,108.0,2.0,95,201.0
361,F#4,108.0,2.0,95,201.0
362,F#2,108.5,0.5,62,201.0
363,E-3,109.0,0.5,62,201.0
364,B2,109.5,0.5,62,201.0
365,E-3,110.0,0.5,62,201.0
366,B4,110.0,1.0,95,201.0
367,F#4,110.0,1.0,95,201.0
368,F#3,110.5,0.5,62,201.0
369,B3,111.0,0.5,62,201.0
370,B4,111.0,1.0,95,201.0
371,F#4,111.0,1.0,95,201.0
372,F#3,111.5,0.5,62,201.0
373,C#5,112.0,1.0,95,201.0
374,E-3,112.0,0.5,62,201.0
375,B2,112.5,0.5,62,201.0
376,E-5,113.0,1.0,95,201.0
377,F#2,113.0,0.5,62,201.0
378,B1,113.5,0.5,62,201.0
379,C#2,114.0,0.5,62,201.0
380,G#4,114.0,1.5,95,201.0
381,E5,114.0,1.5,95,201.0
382,C#5,114.0,1.5,95,201.0
383,G#2,114.5,0.5,62,201.0
384,E3,115.0,0.5,62,201.0
385,E-5,115.5,1.5,95,201.0
386,C#3,115.5,0.5,62,201.0
387,E3,116.0,0.5,62,201.0
388,G#3,116.5,0.5,62,201.0
389,C#4,117.0,0.5,62,201.0
390,C#5,117.0,1.5,95,201.0
391,G#4,117.0,1.5,95,201.0
392,E5,117.0,1.5,95,201.0
393,G#3,117.5,0.5,62,201.0
394,E3,118.0,0.5,62,201.0
395,C#3,118.5,0.5,62,201.0
396,E-5,118.5,1.5,95,201.0
397,F#5,118.5,1.5,95,201.0
398,G#2,119.0,0.5,62,201.0
399,C#2,119.5,0.5,62,201.0
400,A1,120.0,1.0,78,201.0
401,A2,120.0,3.0,78,201.0
402,E5,120.0,2.0,95,201.0
403,A4,120.0,2.0,95,201.0
404,C#5,120.0,2.0,95,201.0
405,A1,121.0,1.0,78,201.0
406,A1,122.0,1.0,78,201.0
407,A4,122.0,1.0,95,201.0
408,A5,122.0,1.0,95,201.0
409,A1,123.0,1.0,78,201.0
410,A2,123.0,1.0,78,201.0
411,E5,123.0,1.0,95,201.0
412,E6,123.0,1.0,95,201.0
413,B1,124.0,1.0,78,201.0
414,B2,124.0,2.0,78,201.0
415,F#5,124.0,1.0,95,201.0
416,F#6,124.0,1.0,95,201.0
417,B1,125.0,1.0,78,201.0
418,E5,125.0,1.0,95,201.0
419,E6,125.0,1.0,95,201.0
420,C#3,126.0,3.0,78,201.0
421,C#2,126.0,1.0,78,201.0
422,G#5,126.0,2.0,95,201.0
423,E6,126.0,2.0,95,201.0
424,E5,126.0,2.0,95,201.0
425,C#2,127.0,1.0,78,201.0
426,C#2,128.0,1.0,78,201.0
427,B4,128.0,1.0,95,201.0
428,B5,128.0,1.0,95,201.0
429,F#5,128.998,1/500,95,201.0
430,F#6,128.998,1/500,95,201.0
431,C#2,129.0,1.0,78,201.0
432,C#3,129.0,3.0,78,201.0
433,F#5,129.998,499/500,95,201.0
434,F#6,129.998,499/500,95,201.0
435,C#2,130.0,1.0,78,201.0
436,E5,130.996,1.0,95,201.0
437,E6,130.996,1.0,95,201.0
438,C#2,131.0,1.0,78,201.0
439,F#6,131.998,1.0,95,201.0
440,F#5,131.998,1.0,95,201.0
441,B2,132.0,3.0,78,201.0
442,B1,132.0,1.0,78,201.0
443,F#6,132.998,2.0,95,201.0
444,B5,132.998,2.0,95,201.0
445,F#5,132.998,2.0,95,201.0
446,B1,133.0,1.0,78,201.0
447,B1,134.0,1.0,78,201.0
448,B1,135.0,1.0,78,201.0
449,B2,135.0,3.0,78,201.0
450,F#5,135.998,1.0,95,201.0
451,F#6,135.998,1.0,95,201.0
452,B1,136.0,1.0,78,201.0
453,E6,136.998,2.0,95,201.0
454,E5,136.998,2.0,95,201.0
455,B5,136.998,2.0,95,201.0
456,B1,137.0,1.0,78,201.0
457,B1,138.0,1.0,78,201.0
458,B2,138.0,3.0,78,201.0
459,F#5,138.998,1.0,95,201.0
460,F#6,138.998,1.0,95,201.0
461,B1,139.0,1.0,78,201.0
462,E5,139.998,1.0,95,201.0
463,E6,139.998,1.0,95,201.0
464,B1,140.0,1.0,78,201.0
465,F#5,140.998,1.0,95,201.0
466,F#6,140.998,1.0,95,201.0
467,B1,141.0,1.0,78,201.0
468,B2,141.0,3.0,78,201.0
469,A5,141.998,1.0,95,201.0
470,A6,141.998,1.0,95,201.0
471,B1,142.0,1.0,78,201.0
472,G#5,142.998,1.0,95,201.0
473,G#6,142.998,1.0,95,201.0
474,B1,143.0,1.0,78,201.0
475,E5,143.998,1.0,95,201.0
476,E6,143.998,1.0,95,201.0
477,A2,144.0,0.5,78,201.0
478,A1,144.0,0.5,78,201.0
479,A3,144.5,0.5,78,201.0
480,C#4,144.5,0.5,78,201.0
481,E4,144.998,2.0,95,201.0
482,G#4,144.998,2.0,95,201.0
483,A3,145.0,0.5,78,201.0
484,C#4,145.0,0.5,78,201.0
485,A3,145.5,0.5,78,201.0
486,C#4,145.5,0.5,78,201.0
487,A3,146.0,0.5,78,201.0
488,C#4,146.0,0.5,78,201.0
489,A3,146.5,0.5,78,201.0
490,C#4,146.5,0.5,78,201.0
491,B4,146.998,1.0,95,201.0
492,B5,146.998,1.0,95,201.0
493,A3,147.0,0.5,78,201.0
494,C#4,147.0,0.5,78,201.0
495,A3,147.5,0.5,78,201.0
496,C#4,147.5,0.5,78,201.0
497,E5,147.998,1.0,95,201.0
498,E6,147.998,1.0,95,201.0
499,A3,148.0,0.5,78,201.0
500,C#4,148.0,0.5,78,201.0
501,B1,148.5,0.5,78,201.0
502,B2,148.5,0.5,78,201.0
503,F#5,148.998,1.0,95,201.0
504,F#6,148.998,1.0,95,201.0
505,B3,149.0,0.5,78,201.0
506,E-4,149.0,0.5,78,201.0
507,E-4,149.5,0.5,78,201.0
508,B3,149.5,0.5,78,201.0
509,E5,149.998,1.0,95,201.0
510,E6,149.998,1.0,95,201.0
511,C#3,150.0,0.5,78,201.0
512,C#2,150.0,0.5,78,201.0
513,E4,150.5,0.5,78,201.0
514,C#4,150.5,0.5,78,201.0
515,E6,150.998,1.0,95,201.0
516,E5,150.998,1.0,95,201.0
517,G#5,150.998,1.0,95,201.0
518,E4,151.0,0.5,78,201.0
519,C#4,151.0,0.5,78,201.0
520,E4,151.5,0.5,78,201.0
521,C#4,151.5,0.5,78,201.0
522,E4,152.0,0.5,78,201.0
523,C#4,152.0,0.5,78,201.0
524,E4,152.5,0.5,78,201.0
525,C#4,152.5,0.5,78,201.0
526,B4,152.998,1.0,95,201.0
527,B5,152.998,1.0,95,201.0
528,E4,153.0,0.5,78,201.0
529,C#4,153.0,0.5,78,201.0
530,E4,153.5,0.5,78,201.0
531,C#4,153.5,0.5,78,201.0
532,F#5,153.998,1.0,95,201.0
533,F#6,153.998,1.0,95,201.0
534,C#4,154.0,0.5,78,201.0
535,E4,154.0,0.5,78,201.0
536,C#4,154.5,0.5,78,201.0
537,E4,154.5,0.5,78,201.0
538,E5,154.998,1.0,95,201.0
539,E6,154.998,1.0,95,201.0
540,C#3,155.0,1.0,78,201.0
541,C#2,155.0,1.0,78,201.0
542,F#5,155.998,1.0,95,201.0
543,F#6,155.998,1.0,95,201.0
544,B1,156.0,1.0,78,201.0
545,B2,156.0,1.0,78,201.0
546,B5,156.998,2.0,95,201.0
547,F#5,156.998,2.0,95,201.0
548,F#6,156.998,2.0,95,201.0
549,B1,157.0,1.0,78,201.0
550,B2,157.0,1.0,78,201.0
551,B1,158.0,1.0,78,201.0
552,B2,158.0,1.0,78,201.0
553,B1,159.0,1.0,78,201.0
554,B2,159.0,1.0,78,201.0
555,F#5,159.998,1.0,95,201.0
556,F#6,159.998,1.0,95,201.0
557,B1,160.0,1.0,78,201.0
558,B2,160.0,1.0,78,201.0
559,F#5,160.998,1.0,95,201.0
560,F#6,160.998,1.0,95,201.0
561,B1,161.0,0.5,78,201.0
562,B2,161.0,0.5,78,201.0
563,B1,161.5,0.5,78,201.0
564,B2,161.5,0.5,78,201.0
565,E5,161.998,1.0,95,201.0
566,E6,161.998,1.0,95,201.0
567,B0,162.0,3.0,78,201.0
568,B1,162.0,3.0,78,201.0
569,F#5,162.998,1.0,95,201.0
570,F#6,162.998,1.0,95,201.0
571,E5,163.998,1.0,95,201.0
572,E6,163.998,1.0,95,201.0
573,F#5,164.998,1.0,95,201.0
574,F#6,164.998,1.0,95,201.0
575,A5,165.998,1.0,95,201.0
576,A6,165.998,1.0,95,201.0
577,G#5,166.998,1.0,95,201.0
578,G#6,166.998,1.0,95,201.0
579,E5,167.998,1.0,95,201.0
580,E6,167.998,1.0,95,201.0
581,A1,168.0,0.5,78,201.0
582,A2,168.5,0.5,78,201.0
583,C#5,168.998,1.0,86,201.0
584,A5,168.998,1.0,86,201.0
585,C#6,168.998,1.0,86,201.0
586,A1,169.0,0.5,78,201.0
587,A2,169.5,0.5,78,201.0
588,G#5,169.998,1.0,69,201.0
589,A2,170.0,0.5,78,201.0
590,A3,170.5,0.5,78,201.0
591,E5,170.998,1.0,69,201.0
592,C#4,171.0,1.0,78,201.0
593,A3,171.0,1.0,78,201.0
594,B4,171.998,1.0,68,201.0
595,B5,171.998,1.0,68,201.0
596,A1,172.0,1.0,78,201.0
597,A2,172.0,1.0,78,201.0
598,G#5,172.998,1.0,41,201.0
599,B2,173.0,1.0,78,201.0
600,B1,173.0,1.0,78,201.0
601,E5,173.998,1.0,41,201.0
602,C#2,174.0,0.5,78,201.0
603,C#3,174.5,0.5,78,201.0
604,C#5,174.998,3.0,95,201.0
605,G#4,174.998,3.0,95,201.0
606,G#5,174.998,3.0,95,201.0
607,C#2,175.0,0.5,78,201.0
608,C#3,175.5,0.5,78,201.0
609,C#3,176.0,0.5,78,201.0
610,C#4,176.5,0.5,78,201.0
611,C#4,177.0,1.0,78,201.0
612,E4,177.0,1.0,78,201.0
613,C#3,178.0,1.0,78,201.0
614,C#2,178.0,1.0,78,201.0
615,C#2,179.0,0.5,78,201.0
616,C#3,179.0,0.5,78,201.0
617,C#3,179.5,0.5,78,201.0
618,C#2,179.5,0.5,78,201.0
619,B1,180.0,0.5,78,201.0
620,B2,180.5,0.5,78,201.0
621,C#5,180.998,3.0,95,201.0
622,G#4,180.998,3.0,95,201.0
623,G#5,180.998,3.0,95,201.0
624,B1,181.0,0.5,78,201.0
625,B2,181.5,0.5,78,201.0
626,B2,182.0,0.5,78,201.0
627,B3,182.5,0.5,78,201.0
628,E-4,183.0,1.0,78,201.0
629,B3,183.0,1.0,78,201.0
630,B5,183.998,3.0,95,201.0
631,B4,183.998,3.0,95,201.0
632,B1,184.0,1.0,78,201.0
633,B2,184.0,1.0,78,201.0
634,B2,185.0,0.5,78,201.0
635,B1,185.0,0.5,78,201.0
636,B1,185.5,0.5,78,201.0
637,B2,185.5,0.5,78,201.0
638,B1,186.0,0.5,78,201.0
639,B2,186.5,0.5,78,201.0
640,E5,186.998,2.0,95,201.0
641,E4,186.998,2.0,95,201.0
642,B1,187.0,0.5,78,201.0
643,B2,187.5,0.5,78,201.0
644,B2,188.0,0.5,78,201.0
645,B3,188.5,0.5,78,201.0
646,G#5,188.998,1.0,95,201.0
647,G#4,188.998,1.0,95,201.0
648,E-4,189.0,2.0,78,201.0
649,B3,189.0,2.0,78,201.0
650,F#5,189.998,1.0,95,201.0
651,F#4,189.998,1.0,95,201.0
652,E5,190.998,1.0,95,201.0
653,E4,190.998,1.0,95,201.0
654,B1,191.0,1.0,78,201.0
655,B2,191.0,1.0,78,201.0
656,F#5,191.998,1.0,95,201.0
657,F#4,191.998,1.0,95,201.0
658,A1,192.0,0.5,78,201.0
659,A2,192.5,0.5,78,201.0
660,A5,192.998,1.0,95,201.0
661,E-5,192.998,1.0,95,201.0
662,A4,192.998,1.0,95,201.0
663,A1,193.0,0.5,78,201.0
664,A2,193.5,0.5,78,201.0
665,G#5,193.998,1.0,95,201.0
666,G#4,193.998,1.0,95,201.0
667,A2,194.0,0.5,78,201.0
668,A3,194.5,0.5,78,201.0
669,E5,194.998,1.0,95,201.0
670,E4,194.998,1.0,95,201.0
671,A3,195.0,1.0,78,201.0
672,C#4,195.0,1.0,78,201.0
673,A5,195.998,1.0,86,201.0
674,C#6,195.998,1.0,86,201.0
675,C#5,195.998,1.0,86,201.0
676,A2,196.0,1.0,78,201.0
677,A1,196.0,1.0,78,201.0
678,G#5,196.998,1.0,69,201.0
679,B1,197.0,1.0,78,201.0
680,B2,197.0,1.0,78,201.0
681,E5,197.998,1.0,69,201.0
682,C#2,198.0,0.5,78,201.0
683,C#3,198.5,0.5,78,201.0
684,B4,198.998,1.0,68,201.0
685,B5,198.998,1.0,68,201.0
686,C#2,199.0,0.5,78,201.0
687,C#3,199.5,0.5,78,201.0
688,G#5,199.998,1.0,41,201.0
689,C#3,200.0,0.5,78,201.0
690,C#4,200.5,0.5,78,201.0
691,E5,200.998,1.0,41,201.0
692,E4,201.0,1.0,78,201.0
693,C#4,201.0,1.0,78,201.0
694,G#4,201.998,3.0,95,201.0
695,C#5,201.998,3.0,95,201.0
696,G#5,201.998,3.0,95,201.0
697,C#2,202.0,1.0,78,201.0
698,C#3,202.0,1.0,78,201.0
699,C#3,203.0,0.5,78,201.0
700,C#2,203.0,0.5,78,201.0
701,C#2,203.5,0.5,78,201.0
702,C#3,203.5,0.5,78,201.0
703,B1,204.0,0.5,78,201.0
704,B2,204.5,0.5,78,201.0
705,E4,204.998,1.5,95,201.0
706,E5,204.998,1.5,95,201.0
707,B1,205.0,0.5,78,201.0
708,B2,205.5,0.5,78,201.0
709,B2,206.0,0.5,78,201.0
710,G#4,206.498,1.5,95,201.0
711,G#5,206.498,1.5,95,201.0
712,B3,206.5,0.5,78,201.0
713,E-4,207.0,1.0,78,201.0
714,B3,207.0,1.0,78,201.0
715,B4,207.998,3.0,95,201.0
716,F#5,207.998,3.0,95,201.0
717,B5,207.998,3.0,95,201.0
718,E-5,207.998,3.0,95,201.0
719,B2,208.0,1.0,78,201.0
720,B1,208.0,1.0,78,201.0
721,B2,209.0,0.5,78,201.0
722,B1,209.0,0.5,78,201.0
723,B2,209.5,0.5,78,201.0
724,B1,209.5,0.5,78,201.0
725,B1,210.0,0.5,78,201.0
726,B2,210.5,0.5,78,201.0
727,F#5,210.998,1.0,95,201.0
728,F#4,210.998,1.0,95,201.0
729,B1,211.0,0.5,78,201.0
730,B2,211.5,0.5,78,201.0
731,F#4,211.998,1.0,95,201.0
732,F#5,211.998,1.0,95,201.0
733,B2,212.0,0.5,78,201.0
734,B3,212.5,0.5,78,201.0
735,F#4,212.998,1.0,95,201.0
736,F#5,212.998,1.0,95,201.0
737,E-4,213.0,1.0,78,201.0
738,B3,213.0,1.0,78,201.0
739,F#5,213.998,1.0,95,201.0
740,F#4,213.998,1.0,95,201.0
741,B2,214.0,1.0,78,201.0
742,B1,214.0,1.0,78,201.0
743,E5,214.998,1.0,95,201.0
744,E4,214.998,1.0,95,201.0
745,B1,215.0,1.0,78,201.0
746,B2,215.0,1.0,78,201.0
747,F#5,215.998,1.0,95,201.0
748,F#4,215.998,1.0,95,201.0
749,A2,216.0,1.0,78,201.0
750,A1,216.0,1.0,78,201.0
751,A5,216.998,1.0,95,201.0
752,E5,216.998,1.0,95,201.0
753,A4,216.998,1.0,95,201.0
754,A4,217.0,0.5,78,201.0
755,E4,217.5,0.5,78,201.0
756,G#5,217.998,1.0,95,201.0
757,G#4,217.998,1.0,95,201.0
758,C#4,218.0,0.5,78,201.0
759,A3,218.5,0.5,78,201.0
760,E5,218.998,1.0,95,201.0
761,E4,218.998,1.0,95,201.0
762,E3,219.0,0.5,78,201.0
763,C#3,219.5,0.5,78,201.0
764,A2,220.0,0.5,78,201.0
765,A1,220.5,0.5,78,201.0
766,B2,221.0,1.0,78,201.0
767,B1,221.0,1.0,78,201.0
768,B4,221.998,1.0,95,201.0
769,A4,221.998,1.0,95,201.0
770,E4,221.998,1.0,95,201.0
771,C#1,222.0,1.0,78,201.0
772,C#2,222.0,1.0,78,201.0
773,E5,222.998,1.0,95,201.0
774,E4,222.998,1.0,95,201.0
775,C#4,223.0,0.5,78,201.0
776,G#3,223.5,0.5,78,201.0
777,F#5,223.998,1.0,95,201.0
778,F#4,223.998,1.0,95,201.0
779,E3,224.0,0.5,78,201.0
780,C#3,224.5,0.5,78,201.0
781,E5,224.998,1.0,95,201.0
782,E4,224.998,1.0,95,201.0
783,G#2,225.0,0.5,78,201.0
784,E2,225.5,0.5,78,201.0
785,C#2,226.0,0.5,78,201.0
786,G#1,226.5,0.5,78,201.0
787,E5,226.998,1.0,95,201.0
788,E4,226.998,1.0,95,201.0
789,C#1,227.0,1.0,78,201.0
790,B1,228.0,1.0,78,201.0
791,B0,228.0,1.0,78,201.0
792,B4,228.998,1.0,95,201.0
793,B3,228.998,1.0,95,201.0
794,B3,229.0,0.5,78,201.0
795,F#3,229.5,0.5,78,201.0
796,F#5,229.998,1.0,95,201.0
797,F#4,229.998,1.0,95,201.0
798,E-3,230.0,0.5,78,201.0
799,B2,230.5,0.5,78,201.0
800,E5,230.998,1.0,95,201.0
801,E4,230.998,1.0,95,201.0
802,G#4,230.998,1.0,95,201.0
803,F#2,231.0,0.5,78,201.0
804,E-2,231.5,0.5,78,201.0
805,F#5,231.998,1.0,95,201.0
806,F#4,231.998,1.0,95,201.0
807,C#5,231.998,1.0,95,201.0
808,B1,232.0,0.5,78,201.0
809,F#1,232.5,0.5,78,201.0
810,F#5,232.998,2.0,95,201.0
811,B4,232.998,2.0,95,201.0
812,F#4,232.998,2.0,95,201.0
813,B0,233.0,1.0,78,201.0
814,B2,234.0,1.0,78,201.0
815,B1,234.0,1.0,78,201.0
816,B2,235.0,1.0,78,201.0
817,B1,235.0,1.0,78,201.0
818,F#5,235.998,1.0,95,201.0
819,F#4,235.998,1.0,95,201.0
820,E-5,235.998,1.0,95,201.0
821,B1,236.0,1.0,78,201.0
822,B2,236.0,1.0,78,201.0
823,E5,236.998,1.0,95,201.0
824,E4,236.998,1.0,95,201.0
825,B2,237.0,1.5,78,201.0
826,B1,237.0,1.5,78,201.0
827,G#2,238.5,1.5,78,201.0
828,G#1,238.5,1.5,78,201.0
829,F#5,238.998,1.0,95,201.0
830,B4,238.998,1.0,95,201.0
831,F#4,238.998,1.0,95,201.0
832,E5,239.998,1.0,95,201.0
833,E4,239.998,1.0,95,201.0
834,A1,240.0,1.0,78,201.0
835,A2,240.0,1.0,78,201.0
836,F#5,240.998,1.0,95,201.0
837,F#4,240.998,1.0,95,201.0
838,B4,240.998,1.0,95,201.0
839,A4,241.0,0.5,78,201.0
840,E4,241.5,0.5,78,201.0
841,A5,241.998,1.0,95,201.0
842,A4,241.998,1.0,95,201.0
843,E-5,241.998,1.0,95,201.0
844,C#4,242.0,0.5,78,201.0
845,A3,242.5,0.5,78,201.0
846,G#5,242.998,1.0,95,201.0
847,G#4,242.998,1.0,95,201.0
848,E-5,242.998,1.0,95,201.0
849,E3,243.0,0.5,78,201.0
850,C#3,243.5,0.5,78,201.0
851,E5,243.998,1.0,95,201.0
852,E4,243.998,1.0,95,201.0
853,A2,244.0,0.5,78,201.0
854,A1,244.5,0.5,78,201.0
855,B1,245.0,1.0,78,201.0
856,B2,245.0,1.0,78,201.0
857,C#2,246.0,1.0,78,201.0
858,C#1,246.0,1.0,78,201.0
859,C#4,247.0,0.5,78,201.0
860,G#3,247.5,0.5,78,201.0
861,E5,247.998,1.0,95,201.0
862,E4,247.998,1.0,95,201.0
863,B4,247.998,1.0,95,201.0
864,E3,248.0,0.5,78,201.0
865,C#3,248.5,0.5,78,201.0
866,F#5,248.998,1.0,95,201.0
867,F#4,248.998,1.0,95,201.0
868,G#2,249.0,0.5,78,201.0
869,E2,249.5,0.5,78,201.0
870,E5,249.998,1.0,95,201.0
871,E4,249.998,1.0,95,201.0
872,C#2,250.0,0.5,78,201.0
873,G#1,250.5,0.5,78,201.0
874,E5,250.998,2.0,95,201.0
875,G#4,250.998,2.0,95,201.0
876,E4,250.998,2.0,95,201.0
877,C#1,251.0,1.0,78,201.0
878,B0,252.0,1.0,78,201.0
879,B1,252.0,1.0,78,201.0
880,B4,252.998,1.0,95,201.0
881,B3,252.998,1.0,95,201.0
882,B3,253.0,0.5,78,201.0
883,F#3,253.5,0.5,78,201.0
884,F#5,253.998,1.0,95,201.0
885,F#4,253.998,1.0,95,201.0
886,E-3,254.0,0.5,78,201.0
887,B2,254.5,0.5,78,201.0
888,E5,254.998,1.0,95,201.0
889,E4,254.998,1.0,95,201.0
890,F#2,255.0,0.5,78,201.0
891,E-2,255.5,0.5,78,201.0
892,F#5,255.998,1.0,95,201.0
893,F#4,255.998,1.0,95,201.0
894,B1,256.0,0.5,78,201.0
895,F#1,256.5,0.5,78,201.0
896,F#5,256.998,2.0,95,201.0
897,B4,256.998,2.0,95,201.0
898,F#4,256.998,2.0,95,201.0
899,B0,257.0,1.0,78,201.0
900,B0,258.0,1.0,78,201.0
901,B1,258.0,1.0,78,201.0
902,F#5,258.998,1.0,95,201.0
903,F#4,258.998,1.0,95,201.0
904,B1,259.0,1.0,78,201.0
905,B0,259.0,1.0,78,201.0
906,F#5,259.998,1.5,95,201.0
907,F#4,259.998,1.5,95,201.0
908,B0,260.0,1.0,78,201.0
909,B1,260.0,1.0,78,201.0
910,E-3,261.0,1.0,78,201.0
911,F#2,261.0,1.0,78,201.0
912,B2,261.0,1.0,78,201.0
913,E5,261.498,1.5,95,201.0
914,E4,261.498,1.5,95,201.0
915,E-3,262.0,1.0,78,201.0
916,F#2,262.0,1.0,78,201.0
917,B2,262.0,1.0,78,201.0
918,F#5,262.998,1.0,95,201.0
919,B4,262.998,1.0,95,201.0
920,F#4,262.998,1.0,95,201.0
921,E-3,263.0,1.0,78,201.0
922,F#2,263.0,1.0,78,201.0
923,B2,263.0,1.0,78,201.0
924,E5,263.996,501/500,95,201.0
925,E4,263.996,501/500,95,201.0
926,G#1,264.0,3.0,78,201.0
927,G#2,264.0,3.0,78,201.0
928,B4,264.996,1.0,95,201.0
929,F#5,264.996,1.0,95,201.0
930,F#4,264.996,1.0,95,201.0
931,E-5,265.996,1/500,95,201.0
932,A5,265.996,1/500,95,201.0
933,A4,265.996,1/500,95,201.0
934,E-5,266.996,499/500,95,201.0
935,A5,266.996,499/500,95,201.0
936,A4,266.996,499/500,95,201.0
937,B3,267.0,3.0,78,201.0
938,G#3,267.0,3.0,78,201.0
939,E3,267.0,3.0,78,201.0
940,G#5,267.996,1.0,95,201.0
941,G#4,267.996,1.0,95,201.0
942,E-5,267.996,1.0,95,201.0
943,E5,268.996,1.0,95,201.0
944,E4,268.996,1.0,95,201.0
945,E5,269.996,0.5,95,201.0
946,A2,270.0,3.0,78,201.0
947,A1,270.0,3.0,78,201.0
948,F#5,270.496,0.5,95,201.0
949,B5,270.996,0.5,95,201.0
950,E5,271.496,0.5,95,201.0
951,F#5,271.996,0.5,95,201.0
952,B5,272.496,0.5,95,201.0
953,E5,272.996,0.5,95,201.0
954,E3,273.0,3.0,78,201.0
955,C#3,273.0,3.0,78,201.0
956,B3,273.0,3.0,78,201.0
957,F#5,273.496,0.5,95,201.0
958,B5,273.996,0.5,95,201.0
959,E5,274.496,0.5,95,201.0
960,F#5,274.996,0.5,95,201.0
961,B5,275.496,0.5,95,201.0
962,E5,275.996,0.5,95,201.0
963,B2,276.0,3.0,78,201.0
964,B1,276.0,3.0,78,201.0
965,F#5,276.496,0.5,95,201.0
966,B5,276.996,0.5,95,201.0
967,E5,277.496,0.5,95,201.0
968,F#5,277.996,0.5,95,201.0
969,B5,278.496,0.5,95,201.0
970,E5,278.996,0.5,95,201.0
971,E-3,279.0,3.0,78,201.0
972,B3,279.0,3.0,78,201.0
973,F#3,279.0,3.0,78,201.0
974,F#5,279.496,0.5,95,201.0
975,B5,279.996,0.5,95,201.0
976,E5,280.496,0.5,95,201.0
977,F#5,280.996,0.5,95,201.0
978,B5,281.496,0.5,95,201.0
979,E5,281.996,0.5,95,201.0
980,C#3,282.0,3.0,78,201.0
981,C#2,282.0,3.0,78,201.0
982,F#5,282.496,0.5,95,201.0
983,B5,282.996,0.5,95,201.0
984,E5,283.496,0.5,95,201.0
985,F#5,283.996,0.5,95,201.0
986,B5,284.496,0.5,95,201.0
987,E5,284.996,0.5,95,201.0
988,B3,285.0,3.0,78,201.0
989,G#3,285.0,3.0,78,201.0
990,E3,285.0,3.0,78,201.0
991,F#5,285.496,0.5,95,201.0
992,B5,285.996,0.5,95,201.0
993,E5,286.496,0.5,95,201.0
994,F#5,286.996,0.5,95,201.0
995,B5,287.496,0.5,95,201.0
996,E5,287.996,0.5,95,201.0
997,E2,288.0,1.0,62,201.0
998,E3,288.0,1.0,62,201.0
999,F#5,288.496,0.5,95,201.0
1000,B5,288.996,0.5,95,201.0
1001,B2,289.0,1.0,62,201.0
1002,E6,289.496,0.5,95,201.0
1003,F#6,289.996,0.5,95,201.0
1004,E3,290.0,1.0,62,201.0
1005,B6,290.496,0.5,95,201.0
1006,E6,290.996,0.5,95,201.0
1007,B3,291.0,1.0,62,201.0
1008,G#3,291.0,1.0,62,201.0
1009,F#6,291.496,0.5,95,201.0
1010,B6,291.996,0.5,95,201.0
1011,E3,292.0,1.0,62,201.0
1012,E7,292.496,0.5,95,201.0
1013,F#7,292.996,0.5,95,201.0
1014,B2,293.0,1.0,62,201.0
1015,B7,293.496,0.5,95,201.0
1016,E3,294.0,1.0,62,201.0
1017,E2,294.0,1.0,62,201.0
1018,F#4,294.996,1.0,95,201.0
1019,B2,295.0,1.0,62,201.0
1020,G#4,295.996,1.0,95,201.0
1021,E3,296.0,1.0,62,201.0
1022,E4,296.996,3.0,95,201.0
1023,G#4,296.996,3.0,95,201.0
1024,G#3,297.0,1.0,62,201.0
1025,B3,297.0,1.0,62,201.0
1026,E3,298.0,1.0,62,201.0
1027,B2,299.0,1.0,62,201.0
1028,E3,300.0,1.0,62,201.0
1029,E2,300.0,1.0,62,201.0
1030,G#4,300.996,1.0,95,201.0
1031,B2,301.0,1.0,62,201.0
1032,B4,301.996,1.0,95,201.0
1033,E3,302.0,1.0,62,201.0
1034,E4,302.996,2.0,95,201.0
1035,G#4,302.996,2.0,95,201.0
1036,B4,302.996,2.0,95,201.0
1037,G#3,303.0,1.0,62,201.0
1038,B3,303.0,1.0,62,201.0
1039,E3,304.0,1.0,62,201.0
1040,E4,304.996,1.0,95,201.0
1041,B2,305.0,1.0,62,201.0
1042,G#4,305.996,2.0,95,201.0
1043,B4,305.996,2.0,95,201.0
1044,E2,306.0,1.0,62,201.0
1045,A2,307.0,1.0,62,201.0
1046,F#4,307.996,1.0,95,201.0
1047,E3,308.0,1.0,62,201.0
1048,F#4,308.996,3.0,95,201.0
1049,A3,309.0,1.0,62,201.0
1050,C#4,309.0,1.0,62,201.0
1051,E3,310.0,1.0,62,201.0
1052,A2,311.0,1.0,62,201.0
1053,E3,312.0,1.0,62,201.0
1054,E2,312.0,1.0,62,201.0
1055,F#4,312.996,0.5,95,201.0
1056,B2,313.0,1.0,62,201.0
1057,F#4,313.496,0.5,95,201.0
1058,G#4,313.996,1.0,95,201.0
1059,E3,314.0,1.0,62,201.0
1060,E4,314.996,2.0,95,201.0
1061,C#4,314.996,2.0,95,201.0
1062,G#4,314.996,2.0,95,201.0
1063,G#3,315.0,1.0,62,201.0
1064,B3,315.0,1.0,62,201.0
1065,E3,316.0,1.0,62,201.0
1066,B3,316.996,1.0,95,201.0
1067,B2,317.0,1.0,62,201.0
1068,B3,317.996,1.0,95,201.0
1069,E2,318.0,1.0,62,201.0
1070,E3,318.0,1.0,62,201.0
1071,E4,318.996,1.0,95,201.0
1072,G#4,318.996,1.0,95,201.0
1073,B2,319.0,1.0,62,201.0
1074,E4,319.996,1.0,95,201.0
1075,G#4,319.996,1.0,95,201.0
1076,E3,320.0,1.0,62,201.0
1077,E4,320.996,3.0,95,201.0
1078,G#4,320.996,3.0,95,201.0
1079,B3,321.0,1.0,62,201.0
1080,G#3,321.0,1.0,62,201.0
1081,E3,322.0,1.0,62,201.0
1082,B2,323.0,1.0,62,201.0
1083,E2,324.0,1.0,62,201.0
1084,E3,324.0,1.0,62,201.0
1085,E5,324.996,1.0,95,201.0
1086,B2,325.0,1.0,62,201.0
1087,G#4,325.996,1.0,95,201.0
1088,E-5,325.996,1.0,95,201.0
1089,E3,326.0,1.0,62,201.0
1090,G#4,326.996,2.0,95,201.0
1091,B4,326.996,2.0,95,201.0
1092,B3,327.0,1.0,62,201.0
1093,G#3,327.0,1.0,62,201.0
1094,E3,328.0,1.0,62,201.0
1095,G#4,328.996,1.0,95,201.0
1096,B2,329.0,1.0,62,201.0
1097,B3,329.996,2.0,95,201.0
1098,F#4,329.996,2.0,95,201.0
1099,E2,330.0,1.0,62,201.0
1100,A2,331.0,1.0,62,201.0
1101,B3,331.996,1.0,95,201.0
1102,E4,331.996,1.0,95,201.0
1103,E3,332.0,1.0,62,201.0
1104,B3,332.996,2.0,95,201.0
1105,F#4,332.996,2.0,95,201.0
1106,C#4,333.0,1.0,62,201.0
1107,A3,333.0,1.0,62,201.0
1108,E3,334.0,1.0,62,201.0
1109,G#4,334.996,1.0,95,201.0
1110,A2,335.0,1.0,62,201.0
1111,C#4,335.996,3.0,95,201.0
1112,E4,335.996,3.0,95,201.0
1113,G#1,336.0,1.0,78,201.0
1114,G#2,336.0,1.0,78,201.0
1115,G#1,337.0,1.0,78,201.0
1116,G#2,337.0,1.0,78,201.0
1117,G#1,338.0,1.0,78,201.0
1118,G#2,338.0,1.0,78,201.0
1119,B3,339.0,1.0,78,201.0
1120,G#3,339.0,1.0,78,201.0
1121,E3,339.0,1.0,78,201.0
1122,G#4,339.996,1.0,95,201.0
1123,G#1,340.0,1.0,78,201.0
1124,G#2,340.0,1.0,78,201.0
1125,A4,340.996,1.0,95,201.0
1126,G#1,341.0,1.0,78,201.0
1127,G#2,341.0,1.0,78,201.0
1128,G#4,341.996,2.0,95,201.0
1129,B4,341.996,2.0,95,201.0
1130,A2,342.0,1.0,78,201.0
1131,A1,342.0,1.0,78,201.0
1132,A2,343.0,1.0,78,201.0
1133,A1,343.0,1.0,78,201.0
1134,G#4,343.996,1.0,95,201.0
1135,B4,343.996,1.0,95,201.0
1136,A2,344.0,1.0,78,201.0
1137,A1,344.0,1.0,78,201.0
1138,G#4,344.996,1.0,95,201.0
1139,B4,344.996,1.0,95,201.0
1140,E3,345.0,1.0,78,201.0
1141,A3,345.0,1.0,78,201.0
1142,C#4,345.0,1.0,78,201.0
1143,F#4,345.996,1.0,95,201.0
1144,A4,345.996,1.0,95,201.0
1145,A2,346.0,1.0,78,201.0
1146,A1,346.0,1.0,78,201.0
1147,E4,346.996,1.0,95,201.0
1148,G#4,346.996,1.0,95,201.0
1149,A2,347.0,1.0,78,201.0
1150,A1,347.0,1.0,78,201.0
1151,C#4,347.996,1.5,95,201.0
1152,F#4,347.996,1.5,95,201.0
1153,B1,348.0,1.0,78,201.0
1154,B2,348.0,1.0,78,201.0
1155,B1,349.0,1.0,78,201.0
1156,B2,349.0,1.0,78,201.0
1157,B3,349.496,1.5,95,201.0
1158,E4,349.496,1.5,95,201.0
1159,B1,350.0,1.0,78,201.0
1160,B2,350.0,1.0,78,201.0
1161,C#4,350.996,1.5,95,201.0
1162,F#4,350.996,1.5,95,201.0
1163,E-4,351.0,1.0,78,201.0
1164,B3,351.0,1.0,78,201.0
1165,F#3,351.0,1.0,78,201.0
1166,B1,352.0,1.0,78,201.0
1167,B2,352.0,1.0,78,201.0
1168,E4,352.496,1.5,95,201.0
1169,G#4,352.496,1.5,95,201.0
1170,B1,353.0,1.0,78,201.0
1171,B2,353.0,1.0,78,201.0
1172,F#4,353.996,2.0,95,201.0
1173,B4,353.996,2.0,95,201.0
1174,C#2,354.0,1.0,78,201.0
1175,C#3,354.0,1.0,78,201.0
1176,C#2,355.0,1.0,78,201.0
1177,C#3,355.0,1.0,78,201.0
1178,F#4,355.996,1.0,95,201.0
1179,B4,355.996,1.0,95,201.0
1180,C#2,356.0,1.0,78,201.0
1181,C#3,356.0,1.0,78,201.0
1182,B4,356.996,1.0,95,201.0
1183,F#4,356.996,1.0,95,201.0
1184,E4,357.0,1.0,78,201.0
1185,C#4,357.0,1.0,78,201.0
1186,G#3,357.0,1.0,78,201.0
1187,F#4,357.996,1.0,95,201.0
1188,A4,357.996,1.0,95,201.0
1189,C#2,358.0,1.0,78,201.0
1190,C#3,358.0,1.0,78,201.0
1191,E4,358.996,1.0,95,201.0
1192,G#4,358.996,1.0,95,201.0
1193,C#2,359.0,1.0,78,201.0
1194,C#3,359.0,1.0,78,201.0
1195,C#4,359.996,1.5,95,201.0
1196,F#4,359.996,1.5,95,201.0
1197,G#2,360.0,1.0,78,201.0
1198,G#1,360.0,1.0,78,201.0
1199,G#2,361.0,1.0,78,201.0
1200,G#1,361.0,1.0,78,201.0
1201,C#4,361.496,1.5,95,201.0
1202,G#4,361.496,1.5,95,201.0
1203,G#2,362.0,1.0,78,201.0
1204,G#1,362.0,1.0,78,201.0
1205,F#4,362.996,1.5,95,201.0
1206,E3,363.0,1.0,78,201.0
1207,G#3,363.0,1.0,78,201.0
1208,B3,363.0,1.0,78,201.0
1209,G#2,364.0,1.0,78,201.0
1210,G#1,364.0,1.0,78,201.0
1211,G#2,365.0,1.0,78,201.0
1212,G#1,365.0,1.0,78,201.0
1213,G#4,365.996,2.0,95,201.0
1214,B4,365.996,2.0,95,201.0
1215,A1,366.0,1.0,78,201.0
1216,A2,366.0,1.0,78,201.0
1217,A1,367.0,1.0,78,201.0
1218,A2,367.0,1.0,78,201.0
1219,G#4,367.996,1.0,95,201.0
1220,B4,367.996,1.0,95,201.0
1221,A1,368.0,1.0,78,201.0
1222,A2,368.0,1.0,78,201.0
1223,G#4,368.996,1.0,95,201.0
1224,B4,368.996,1.0,95,201.0
1225,C#4,369.0,1.0,78,201.0
1226,A3,369.0,1.0,78,201.0
1227,E3,369.0,1.0,78,201.0
1228,A4,369.996,1.0,95,201.0
1229,F#4,369.996,1.0,95,201.0
1230,A1,370.0,1.0,78,201.0
1231,A2,370.0,1.0,78,201.0
1232,G#4,370.996,1.0,95,201.0
1233,E4,370.996,1.0,95,201.0
1234,A1,371.0,1.0,78,201.0
1235,A2,371.0,1.0,78,201.0
1236,F#4,371.996,1.5,95,201.0
1237,C#4,371.996,1.5,95,201.0
1238,B2,372.0,1.0,78,201.0
1239,B1,372.0,1.0,78,201.0
1240,B2,373.0,1.0,78,201.0
1241,B1,373.0,1.0,78,201.0
1242,E4,373.496,1.5,95,201.0
1243,C#4,373.496,1.5,95,201.0
1244,B2,374.0,1.0,78,201.0
1245,B1,374.0,1.0,78,201.0
1246,F#3,375.0,1.0,78,201.0
1247,B3,375.0,1.0,78,201.0
1248,E-4,375.0,1.0,78,201.0
1249,A4,375.996,1.0,95,201.0
1250,B2,376.0,1.0,78,201.0
1251,B1,376.0,1.0,78,201.0
1252,A4,376.996,1.0,95,201.0
1253,B2,377.0,1.0,78,201.0
1254,B1,377.0,1.0,78,201.0
1255,F#4,377.996,2.0,95,201.0
1256,B4,377.996,2.0,95,201.0
1257,C#3,378.0,1.5,78,201.0
1258,C#2,378.0,1.5,78,201.0
1259,C#3,379.5,1.5,78,201.0
1260,C#2,379.5,1.5,78,201.0
1261,F#4,379.996,1.0,95,201.0
1262,B4,379.996,1.0,95,201.0
1263,F#4,380.996,1.0,95,201.0
1264,B4,380.996,1.0,95,201.0
1265,C#3,381.0,1.5,78,201.0
1266,C#2,381.0,1.5,78,201.0
1267,C#5,381.996,1.0,95,201.0
1268,C#3,382.5,1.5,78,201.0
1269,C#2,382.5,1.5,78,201.0
1270,E-5,382.996,1.0,95,201.0
1271,C#5,383.996,1.5,95,201.0
1272,G#4,383.996,1.5,95,201.0
1273,E5,383.996,1.5,95,201.0
1274,A2,384.0,3.0,78,201.0
1275,A1,384.0,1.0,78,201.0
1276,A1,385.0,1.0,78,201.0
1277,E-5,385.496,1.5,95,201.0
1278,G#4,385.496,1.5,95,201.0
1279,A1,386.0,1.0,78,201.0
1280,C#5,386.996,1.5,95,201.0
1281,G#4,386.996,1.5,95,201.0
1282,E5,386.996,1.5,95,201.0
1283,A1,387.0,1.0,78,201.0
1284,A2,387.0,1.0,78,201.0
1285,B2,388.0,2.0,78,201.0
1286,B1,388.0,1.0,78,201.0
1287,E-5,388.496,1.5,95,201.0
1288,F#5,388.496,1.5,95,201.0
1289,B1,389.0,1.0,78,201.0
1290,C#5,389.996,2.0,95,201.0
1291,A4,389.996,2.0,95,201.0
1292,E5,389.996,2.0,95,201.0
1293,C#3,390.0,3.0,78,201.0
1294,C#2,390.0,1.0,78,201.0
1295,C#2,391.0,1.0,78,201.0
1296,A4,391.996,1.0,95,201.0
1297,A5,391.996,1.0,95,201.0
1298,C#2,392.0,1.0,78,201.0
1299,E5,392.996,1.0,95,201.0
1300,E6,392.996,1.0,95,201.0
1301,C#2,393.0,1.0,78,201.0
1302,C#3,393.0,3.0,78,201.0
1303,F#5,393.996,1.0,95,201.0
1304,F#6,393.996,1.0,95,201.0
1305,C#2,394.0,1.0,78,201.0
1306,E5,394.996,1.0,95,201.0
1307,E6,394.996,1.0,95,201.0
1308,C#2,395.0,1.0,78,201.0
1309,G#5,395.996,2.0,95,201.0
1310,E6,395.996,2.0,95,201.0
1311,E5,395.996,2.0,95,201.0
1312,B2,396.0,3.0,78,201.0
1313,B1,396.0,1.0,78,201.0
1314,B1,397.0,1.0,78,201.0
1315,B4,397.996,1.0,95,201.0
1316,B5,397.996,1.0,95,201.0
1317,B1,398.0,1.0,78,201.0
1318,F#5,398.996,1.0,95,201.0
1319,F#6,398.996,1.0,95,201.0
1320,B1,399.0,1.0,78,201.0
1321,B2,399.0,3.0,78,201.0
1322,E5,399.996,1.0,95,201.0
1323,E6,399.996,1.0,95,201.0
1324,B1,400.0,1.0,78,201.0
1325,F#6,400.996,1.0,95,201.0
1326,F#5,400.996,1.0,95,201.0
1327,B1,401.0,1.0,78,201.0
1328,F#5,401.996,2.0,95,201.0
1329,F#6,401.996,2.0,95,201.0
1330,B5,401.996,2.0,95,201.0
1331,B1,402.0,1.0,78,201.0
1332,B2,402.0,3.0,78,201.0
1333,B1,403.0,1.0,78,201.0
1334,B1,404.0,1.0,78,201.0
1335,F#6,404.996,1.0,95,201.0
1336,F#5,404.996,1.0,95,201.0
1337,B5,404.996,1.0,95,201.0
1338,B1,405.0,1.0,78,201.0
1339,B2,405.0,3.0,78,201.0
1340,E6,405.996,2.0,95,201.0
1341,E5,405.996,2.0,95,201.0
1342,B5,405.996,2.0,95,201.0
1343,B1,406.0,1.0,78,201.0
1344,B1,407.0,1.0,78,201.0
1345,F#5,407.996,1.0,95,201.0
1346,F#6,407.996,1.0,95,201.0
1347,A2,408.0,1.0,78,201.0
1348,A1,408.0,1.0,78,201.0
1349,E5,408.996,1.0,95,201.0
1350,E6,408.996,1.0,95,201.0
1351,A2,409.0,1.0,78,201.0
1352,A1,409.0,1.0,78,201.0
1353,F#5,409.996,1.0,95,201.0
1354,F#6,409.996,1.0,95,201.0
1355,A2,410.0,1.0,78,201.0
1356,A1,410.0,1.0,78,201.0
1357,A5,410.996,1.0,95,201.0
1358,A6,410.996,1.0,95,201.0
1359,A2,411.0,1.0,78,201.0
1360,A1,411.0,1.0,78,201.0
1361,G#5,411.996,1.0,95,201.0
1362,G#6,411.996,1.0,95,201.0
1363,B2,412.0,1.0,78,201.0
1364,B1,412.0,1.0,78,201.0
1365,E5,412.996,1.0,95,201.0
1366,E6,412.996,1.0,95,201.0
1367,B2,413.0,1.0,78,201.0
1368,B1,413.0,1.0,78,201.0
1369,G#4,413.996,2.0,95,201.0
1370,C#4,413.996,2.0,95,201.0
1371,E4,413.996,2.0,95,201.0
1372,C#3,414.0,1.0,78,201.0
1373,C#2,414.0,1.0,78,201.0
1374,C#3,415.0,1.0,78,201.0
1375,C#2,415.0,1.0,78,201.0
1376,B5,415.996,1.0,95,201.0
1377,B4,415.996,1.0,95,201.0
1378,C#3,416.0,1.0,78,201.0
1379,C#2,416.0,1.0,78,201.0
1380,E6,416.996,1.0,95,201.0
1381,E5,416.996,1.0,95,201.0
1382,C#3,417.0,1.0,78,201.0
1383,C#2,417.0,1.0,78,201.0
1384,F#6,417.996,1.0,95,201.0
1385,F#5,417.996,1.0,95,201.0
1386,C#3,418.0,1.0,78,201.0
1387,C#2,418.0,1.0,78,201.0
1388,E6,418.996,1.0,95,201.0
1389,E5,418.996,1.0,95,201.0
1390,C#3,419.0,1.0,78,201.0
1391,C#2,419.0,1.0,78,201.0
1392,G#5,419.996,1.0,95,201.0
1393,E6,419.996,1.0,95,201.0
1394,E5,419.996,1.0,95,201.0
1395,B2,420.0,1.0,78,201.0
1396,B1,420.0,1.0,78,201.0
1397,B2,421.0,1.0,78,201.0
1398,B1,421.0,1.0,78,201.0
1399,B5,421.996,1.0,95,201.0
1400,B4,421.996,1.0,95,201.0
1401,B2,422.0,1.0,78,201.0
1402,B1,422.0,1.0,78,201.0
1403,F#6,422.996,1.0,95,201.0
1404,F#5,422.996,1.0,95,201.0
1405,B2,423.0,1.0,78,201.0
1406,B1,423.0,1.0,78,201.0
1407,E6,423.996,1.0,95,201.0
1408,E5,423.996,1.0,95,201.0
1409,B2,424.0,1.0,78,201.0
1410,B1,424.0,1.0,78,201.0
1411,F#5,424.996,1.0,95,201.0
1412,F#6,424.996,1.0,95,201.0
1413,B2,425.0,1.0,78,201.0
1414,B1,425.0,1.0,78,201.0
1415,B5,425.996,2.0,95,201.0
1416,F#6,425.996,2.0,95,201.0
1417,F#5,425.996,2.0,95,201.0
1418,B2,426.0,0.5,78,201.0
1419,B1,426.0,0.5,78,201.0
1420,B2,426.5,0.5,78,201.0
1421,B1,426.5,0.5,78,201.0
1422,B2,427.0,0.5,78,201.0
1423,B1,427.0,0.5,78,201.0
1424,B2,427.5,0.5,78,201.0
1425,B1,427.5,0.5,78,201.0
1426,B2,428.0,0.5,78,201.0
1427,B1,428.0,0.5,78,201.0
1428,B2,428.5,0.5,78,201.0
1429,B1,428.5,0.5,78,201.0
1430,F#6,428.996,1.0,95,201.0
1431,F#5,428.996,1.0,95,201.0
1432,B2,429.0,1.0,78,201.0
1433,B1,429.0,1.0,78,201.0
1434,F#6,429.996,1.0,95,201.0
1435,F#5,429.996,1.0,95,201.0
1436,E6,430.996,1.0,95,201.0
1437,E5,430.996,1.0,95,201.0
1438,F#6,431.996,1.0,95,201.0
1439,F#5,431.996,1.0,95,201.0
1440,A0,432.0,1.0,78,201.0
1441,A1,432.0,1.0,78,201.0
1442,E6,432.996,1.0,95,201.0
1443,E5,432.996,1.0,95,201.0
1444,A1,433.0,1.0,78,201.0
1445,A2,433.0,1.0,78,201.0
1446,E2,433.0,1.0,78,201.0
1447,F#6,433.996,1.0,95,201.0
1448,F#5,433.996,1.0,95,201.0
1449,A1,434.0,1.0,78,201.0
1450,A2,434.0,1.0,78,201.0
1451,E2,434.0,1.0,78,201.0
1452,A6,434.996,1.0,95,201.0
1453,A5,434.996,1.0,95,201.0
1454,A3,435.0,0.5,78,201.0
1455,E3,435.5,0.5,78,201.0
1456,G#5,435.996,1.0,95,201.0
1457,G#6,435.996,1.0,95,201.0
1458,C#3,436.0,0.5,78,201.0
1459,A2,436.5,0.5,78,201.0
1460,E6,436.996,1.0,95,201.0
1461,E5,436.996,1.0,95,201.0
1462,E2,437.0,0.5,78,201.0
1463,A1,437.5,0.5,78,201.0
1464,A5,437.996,1.0,86,201.0
1465,C#6,437.996,1.0,86,201.0
1466,C#5,437.996,1.0,86,201.0
1467,C#2,438.0,1.0,78,201.0
1468,C#1,438.0,1.0,78,201.0
1469,G#5,438.996,1.0,69,201.0
1470,G#2,439.0,1.0,78,201.0
1471,C#3,439.0,1.0,78,201.0
1472,C#2,439.0,1.0,78,201.0
1473,E5,439.996,1.0,69,201.0
1474,G#2,440.0,1.0,78,201.0
1475,C#3,440.0,1.0,78,201.0
1476,C#2,440.0,1.0,78,201.0
1477,B5,440.996,1.0,95,201.0
1478,B4,440.996,1.0,95,201.0
1479,C#4,441.0,0.5,78,201.0
1480,G#3,441.5,0.5,78,201.0
1481,G#5,441.996,1.0,41,201.0
1482,E3,442.0,0.5,78,201.0
1483,C#3,442.5,0.5,78,201.0
1484,E5,442.996,1.0,41,201.0
1485,G#2,443.0,0.5,78,201.0
1486,C#2,443.5,0.5,78,201.0
1487,C#5,443.996,3.0,95,201.0
1488,G#4,443.996,3.0,95,201.0
1489,G#5,443.996,3.0,95,201.0
1490,B1,444.0,1.0,78,201.0
1491,B0,444.0,1.0,78,201.0
1492,F#2,445.0,1.0,78,201.0
1493,B2,445.0,1.0,78,201.0
1494,B1,445.0,1.0,78,201.0
1495,F#2,446.0,1.0,78,201.0
1496,B2,446.0,1.0,78,201.0
1497,B1,446.0,1.0,78,201.0
1498,B3,447.0,0.5,78,201.0
1499,F#3,447.5,0.5,78,201.0
1500,E-3,448.0,0.5,78,201.0
1501,B2,448.5,0.5,78,201.0
1502,F#2,449.0,0.5,78,201.0
1503,B1,449.5,0.5,78,201.0
1504,C#5,449.996,3.0,95,201.0
1505,G#4,449.996,3.0,95,201.0
1506,G#5,449.996,3.0,95,201.0
1507,B1,450.0,0.5,78,201.0
1508,B2,450.0,0.5,78,201.0
1509,B2,450.5,0.5,78,201.0
1510,B1,450.5,0.5,78,201.0
1511,B2,451.0,0.5,78,201.0
1512,B1,451.0,0.5,78,201.0
1513,B2,451.5,0.5,78,201.0
1514,B1,451.5,0.5,78,201.0
1515,B1,452.0,0.5,78,201.0
1516,B2,452.0,0.5,78,201.0
1517,B1,452.5,0.5,78,201.0
1518,E-5,452.996,3.0,95,201.0
1519,B4,452.996,3.0,95,201.0
1520,B5,452.996,3.0,95,201.0
1521,B0,453.0,1.0,78,201.0
1522,E4,455.996,2.0,95,201.0
1523,E5,455.996,2.0,95,201.0
1524,A1,456.0,1.0,78,201.0
1525,A0,456.0,1.0,78,201.0
1526,A1,457.0,1.0,78,201.0
1527,E2,457.5,1.0,78,201.0
1528,G#4,457.996,1.0,95,201.0
1529,G#5,457.996,1.0,95,201.0
1530,C#3,458.0,0.5,78,201.0
1531,A2,458.5,0.5,78,201.0
1532,F#6,458.996,1.0,95,201.0
1533,F#5,458.996,1.0,95,201.0
1534,A3,459.0,0.5,78,201.0
1535,E3,459.5,0.5,78,201.0
1536,E6,459.996,1.0,95,201.0
1537,E5,459.996,1.0,95,201.0
1538,C#3,460.0,0.5,78,201.0
1539,A2,460.5,0.5,78,201.0
1540,F#6,460.996,1.0,95,201.0
1541,F#5,460.996,1.0,95,201.0
1542,E2,461.0,0.5,78,201.0
1543,A1,461.5,0.5,78,201.0
1544,A6,461.996,1.0,95,201.0
1545,E6,461.996,1.0,95,201.0
1546,A5,461.996,1.0,95,201.0
1547,C#2,462.0,1.0,78,201.0
1548,G#6,462.996,1.0,95,201.0
1549,G#5,462.996,1.0,95,201.0
1550,C#2,463.0,1.0,78,201.0
1551,G#2,463.5,1.0,78,201.0
1552,E6,463.996,1.0,95,201.0
1553,E5,463.996,1.0,95,201.0
1554,E3,464.0,0.5,78,201.0
1555,C#3,464.5,0.5,78,201.0
1556,A5,464.996,1.0,86,201.0
1557,C#6,464.996,1.0,86,201.0
1558,C#5,464.996,1.0,86,201.0
1559,C#4,465.0,0.5,78,201.0
1560,G#3,465.5,0.5,78,201.0
1561,G#5,465.996,1.0,69,201.0
1562,E3,466.0,0.5,78,201.0
1563,C#3,466.5,0.5,78,201.0
1564,E5,466.996,1.0,69,201.0
1565,G#2,467.0,0.5,78,201.0
1566,E-2,467.5,0.5,78,201.0
1567,B5,467.996,1.0,95,201.0
1568,B4,467.996,1.0,95,201.0
1569,B1,468.0,1.0,78,201.0
1570,B0,468.0,0.5,78,201.0
1571,G#5,468.996,1.0,40,201.0
1572,B1,469.0,1.0,78,201.0
1573,F#2,469.5,1.0,78,201.0
1574,E5,469.996,1.0,40,201.0
1575,E-3,470.0,0.5,78,201.0
1576,B2,470.5,0.5,78,201.0
1577,C#5,470.996,3.0,95,201.0
1578,G#5,470.996,3.0,95,201.0
1579,G#4,470.996,3.0,95,201.0
1580,B3,471.0,0.5,78,201.0
1581,F#3,471.5,0.5,78,201.0
1582,E-3,472.0,0.5,78,201.0
1583,B2,472.5,0.5,78,201.0
1584,F#2,473.0,0.5,78,201.0
1585,E-2,473.5,0.5,78,201.0
1586,E5,473.996,1.5,95,201.0
1587,E4,473.996,1.5,95,201.0
1588,B1,474.0,1.0,78,201.0
1589,B0,474.0,0.5,78,201.0
1590,B1,475.0,1.0,78,201.0
1591,G#5,475.496,1.5,95,201.0
1592,G#4,475.496,1.5,95,201.0
1593,F#2,475.5,1.0,78,201.0
1594,E-3,476.0,0.5,78,201.0
1595,B2,476.5,0.5,78,201.0
1596,F#5,476.996,3.0,95,201.0
1597,E-5,476.996,3.0,95,201.0
1598,B5,476.996,3.0,95,201.0
1599,B4,476.996,3.0,95,201.0
1600,B3,477.0,0.5,78,201.0
1601,F#3,477.5,0.5,78,201.0
1602,E-3,478.0,0.5,78,201.0
1603,B2,478.5,0.5,78,201.0
1604,F#2,479.0,0.5,78,201.0
1605,B1,479.5,0.5,78,201.0
1606,E6,479.996,1.0,95,201.0
1607,E5,479.996,1.0,95,201.0
1608,A1,480.0,1.0,78,201.0
1609,A0,480.0,1.0,78,201.0
1610,F#6,480.996,1.0,95,201.0
1611,F#5,480.996,1.0,95,201.0
1612,C#3,481.0,1.0,78,201.0
1613,A2,481.0,1.0,78,201.0
1614,E2,481.0,1.0,78,201.0
1615,F#6,481.996,1.0,95,201.0
1616,F#5,481.996,1.0,95,201.0
1617,A2,482.0,1.0,78,201.0
1618,C#3,482.0,1.0,78,201.0
1619,E3,482.0,1.0,78,201.0
1620,F#6,482.996,1.0,95,201.0
1621,F#5,482.996,1.0,95,201.0
1622,C#3,483.0,1.0,78,201.0
1623,E3,483.0,1.0,78,201.0
1624,A3,483.0,1.0,78,201.0
1625,E6,483.996,1.0,95,201.0
1626,E5,483.996,1.0,95,201.0
1627,A0,484.0,1.0,78,201.0
1628,A1,484.0,1.0,78,201.0
1629,F#6,484.996,1.0,95,201.0
1630,F#5,484.996,1.0,95,201.0
1631,B0,485.0,1.0,78,201.0
1632,B1,485.0,1.0,78,201.0
1633,A6,485.996,1.0,95,201.0
1634,E6,485.996,1.0,95,201.0
1635,A5,485.996,1.0,95,201.0
1636,C#1,486.0,1.0,78,201.0
1637,C#2,486.0,1.0,78,201.0
1638,G#6,486.996,1.0,95,201.0
1639,G#5,486.996,1.0,95,201.0
1640,G#2,487.0,1.0,78,201.0
1641,C#3,487.0,1.0,78,201.0
1642,E3,487.0,1.0,78,201.0
1643,E6,487.996,1.0,95,201.0
1644,E5,487.996,1.0,95,201.0
1645,G#3,488.0,1.0,78,201.0
1646,E3,488.0,1.0,78,201.0
1647,C#3,488.0,1.0,78,201.0
1648,G#3,489.0,1.0,78,201.0
1649,C#4,489.0,1.0,78,201.0
1650,E3,489.0,1.0,78,201.0
1651,G#3,490.0,1.0,78,201.0
1652,E3,490.0,1.0,78,201.0
1653,C#3,490.0,1.0,78,201.0
1654,B4,490.996,1.0,95,201.0
1655,B5,490.996,1.0,95,201.0
1656,E3,491.0,1.0,78,201.0
1657,C#3,491.0,1.0,78,201.0
1658,G#2,491.0,1.0,78,201.0
1659,E5,491.996,1.0,95,201.0
1660,E6,491.996,1.0,95,201.0
1661,B1,492.0,1.0,78,201.0
1662,B0,492.0,1.0,78,201.0
1663,F#5,492.996,1.0,95,201.0
1664,F#6,492.996,1.0,95,201.0
1665,E-3,493.0,1.0,78,201.0
1666,B2,493.0,1.0,78,201.0
1667,F#2,493.0,1.0,78,201.0
1668,E5,493.996,1.0,95,201.0
1669,E6,493.996,1.0,95,201.0
1670,F#3,494.0,1.0,78,201.0
1671,E-3,494.0,1.0,78,201.0
1672,B2,494.0,1.0,78,201.0
1673,B3,495.0,1.0,78,201.0
1674,E-3,495.0,1.0,78,201.0
1675,F#3,495.0,1.0,78,201.0
1676,E5,495.996,1.0,95,201.0
1677,E6,495.996,1.0,95,201.0
1678,B2,496.0,1.0,78,201.0
1679,E-3,496.0,1.0,78,201.0
1680,F#3,496.0,1.0,78,201.0
1681,F#2,497.0,1.0,78,201.0
1682,B2,497.0,1.0,78,201.0
1683,E-3,497.0,1.0,78,201.0
1684,B5,497.996,1.0,95,201.0
1685,B4,497.996,1.0,95,201.0
1686,B0,498.0,1.0,78,201.0
1687,B1,498.0,1.0,78,201.0
1688,F#6,498.996,1.0,95,201.0
1689,F#5,498.996,1.0,95,201.0
1690,F#2,499.0,1.0,78,201.0
1691,B2,499.0,1.0,78,201.0
1692,E-3,499.0,1.0,78,201.0
1693,E6,499.996,1.0,95,201.0
1694,C#6,499.996,1.0,95,201.0
1695,E5,499.996,1.0,95,201.0
1696,B2,500.0,1.0,78,201.0
1697,E-3,500.0,1.0,78,201.0
1698,F#3,500.0,1.0,78,201.0
1699,F#6,500.996,1.0,95,201.0
1700,C#6,500.996,1.0,95,201.0
1701,F#5,500.996,1.0,95,201.0
1702,F#3,501.0,1.0,78,201.0
1703,E-3,501.0,1.0,78,201.0
1704,B3,501.0,1.0,78,201.0
1705,F#6,501.996,2.0,95,201.0
1706,B5,501.996,2.0,95,201.0
1707,F#5,501.996,2.0,95,201.0
1708,B2,502.0,1.0,78,201.0
1709,B1,502.0,1.0,78,201.0
1710,G#2,503.0,1.0,78,201.0
1711,G#1,503.0,1.0,78,201.0
1712,A1,504.0,1.0,78,201.0
1713,A2,504.0,1.0,78,201.0
1714,F#6,504.996,1.0,95,201.0
1715,B5,504.996,1.0,95,201.0
1716,F#5,504.996,1.0,95,201.0
1717,E3,505.0,1.0,78,201.0
1718,A2,505.0,1.0,78,201.0
1719,C#3,505.0,1.0,78,201.0
1720,E6,505.996,1.0,95,201.0
1721,E5,505.996,1.0,95,201.0
1722,E3,506.0,1.0,78,201.0
1723,C#3,506.0,1.0,78,201.0
1724,A3,506.0,1.0,78,201.0
1725,E3,507.0,1.0,78,201.0
1726,A3,507.0,1.0,78,201.0
1727,C#4,507.0,1.0,78,201.0
1728,B5,507.996,1.0,95,201.0
1729,F#6,507.996,1.0,95,201.0
1730,F#5,507.996,1.0,95,201.0
1731,A1,508.0,1.0,78,201.0
1732,A2,508.0,1.0,78,201.0
1733,E6,508.996,1.0,95,201.0
1734,E5,508.996,1.0,95,201.0
1735,B2,509.0,1.0,78,201.0
1736,B1,509.0,1.0,78,201.0
1737,F#6,509.996,1.0,95,201.0
1738,B5,509.996,1.0,95,201.0
1739,F#5,509.996,1.0,95,201.0
1740,C#3,510.0,1.0,78,201.0
1741,C#2,510.0,1.0,78,201.0
1742,A6,510.996,1.0,95,201.0
1743,E-6,510.996,1.0,95,201.0
1744,A5,510.996,1.0,95,201.0
1745,E3,511.0,1.0,78,201.0
1746,C#3,511.0,1.0,78,201.0
1747,G#3,511.0,1.0,78,201.0
1748,G#6,511.996,1.0,95,201.0
1749,E-6,511.996,1.0,95,201.0
1750,G#5,511.996,1.0,95,201.0
1751,G#3,512.0,1.0,78,201.0
1752,E3,512.0,1.0,78,201.0
1753,C#4,512.0,1.0,78,201.0
1754,E5,512.996,1.0,95,201.0
1755,E6,512.996,1.0,95,201.0
1756,C#4,513.0,1.0,78,201.0
1757,E4,513.0,1.0,78,201.0
1758,G#3,513.0,1.0,78,201.0
1759,C#6,513.996,3.0,95,201.0
1760,C#5,513.996,3.0,95,201.0
1761,C#4,514.0,1.0,78,201.0
1762,E3,514.0,1.0,78,201.0
1763,G#3,514.0,1.0,78,201.0
1764,G#3,515.0,1.0,78,201.0
1765,C#3,515.0,1.0,78,201.0
1766,E3,515.0,1.0,78,201.0
1767,B1,516.0,1.0,78,201.0
1768,B2,516.0,1.0,78,201.0
1769,E6,516.996,1.0,95,201.0
1770,B5,516.996,1.0,95,201.0
1771,E5,516.996,1.0,95,201.0
1772,F#3,517.0,1.0,78,201.0
1773,B2,517.0,1.0,78,201.0
1774,E-3,517.0,1.0,78,201.0
1775,F#6,517.996,1.0,95,201.0
1776,F#5,517.996,1.0,95,201.0
1777,B3,518.0,1.0,78,201.0
1778,E-3,518.0,1.0,78,201.0
1779,F#3,518.0,1.0,78,201.0
1780,E6,518.996,1.0,95,201.0
1781,E5,518.996,1.0,95,201.0
1782,F#3,519.0,1.0,78,201.0
1783,E-4,519.0,1.0,78,201.0
1784,B3,519.0,1.0,78,201.0
1785,G#5,519.996,2.0,95,201.0
1786,E6,519.996,2.0,95,201.0
1787,E5,519.996,2.0,95,201.0
1788,F#3,520.0,1.0,78,201.0
1789,E-3,520.0,1.0,78,201.0
1790,B3,520.0,1.0,78,201.0
1791,E-3,521.0,1.0,78,201.0
1792,B2,521.0,1.0,78,201.0
1793,F#3,521.0,1.0,78,201.0
1794,B5,521.996,1.0,95,201.0
1795,B4,521.996,1.0,95,201.0
1796,B2,522.0,1.0,78,201.0
1797,B1,522.0,1.0,78,201.0
1798,F#6,522.996,1.0,95,201.0
1799,F#5,522.996,1.0,95,201.0
1800,B1,523.0,1.0,78,201.0
1801,B2,523.0,1.0,78,201.0
1802,E6,523.996,1.0,95,201.0
1803,E5,523.996,1.0,95,201.0
1804,B1,524.0,1.0,78,201.0
1805,B2,524.0,1.0,78,201.0
1806,F#6,524.996,1.0,95,201.0
1807,F#5,524.996,1.0,95,201.0
1808,B0,525.0,1.0,78,201.0
1809,B1,525.0,1.0,78,201.0
1810,B5,525.996,2.0,95,201.0
1811,F#6,525.996,2.0,95,201.0
1812,F#5,525.996,2.0,95,201.0
1813,B1,526.0,1.0,78,201.0
1814,B0,526.0,1.0,78,201.0
1815,B1,527.0,1.0,78,201.0
1816,B0,527.0,1.0,78,201.0
1817,F#6,527.996,1.0,95,201.0
1818,F#5,527.996,1.0,95,201.0
1819,A1,528.0,1.0,78,201.0
1820,F#6,528.996,1.5,95,201.0
1821,F#5,528.996,1.5,95,201.0
1822,C#2,529.0,0.25,78,201.0
1823,E2,529.25,0.25,78,201.0
1824,A2,529.5,0.25,78,201.0
1825,C#3,529.75,0.25,78,201.0
1826,E3,530.0,0.25,78,201.0
1827,A3,530.25,0.25,78,201.0
1828,E6,530.496,1.5,95,201.0
1829,E5,530.496,1.5,95,201.0
1830,C#4,530.5,0.25,78,201.0
1831,E4,530.75,0.25,78,201.0
1832,A4,531.0,0.25,78,201.0
1833,E4,531.25,0.25,78,201.0
1834,C#4,531.5,0.25,78,201.0
1835,A3,531.75,0.25,78,201.0
1836,F#6,531.996,1.0,95,201.0
1837,B5,531.996,1.0,95,201.0
1838,F#5,531.996,1.0,95,201.0
1839,E3,532.0,0.25,78,201.0
1840,C#3,532.25,0.25,78,201.0
1841,A2,532.5,0.25,78,201.0
1842,E2,532.75,0.25,78,201.0
1843,E6,532.996,1.0,95,201.0
1844,E5,532.996,1.0,95,201.0
1845,C#2,533.0,0.25,78,201.0
1846,A1,533.25,0.75,78,201.0
1847,F#6,533.996,1.0,95,201.0
1848,B5,533.996,1.0,95,201.0
1849,F#5,533.996,1.0,95,201.0
1850,C#2,534.0,1.0,78,201.0
1851,E-6,534.996,1.0,95,201.0
1852,A6,534.996,1.0,95,201.0
1853,A5,534.996,1.0,95,201.0
1854,E2,535.0,0.25,78,201.0
1855,G#2,535.25,0.25,78,201.0
1856,C#3,535.5,0.25,78,201.0
1857,E3,535.75,0.25,78,201.0
1858,G#6,535.996,1.0,95,201.0
1859,E-6,535.996,1.0,95,201.0
1860,G#5,535.996,1.0,95,201.0
1861,G#3,536.0,0.25,78,201.0
1862,C#4,536.25,0.25,78,201.0
1863,E4,536.5,0.25,78,201.0
1864,G#4,536.75,0.25,78,201.0
1865,E6,536.996,1.0,95,201.0
1866,E5,536.996,1.0,95,201.0
1867,C#5,537.0,0.25,78,201.0
1868,G#4,537.25,0.25,78,201.0
1869,E4,537.5,0.25,78,201.0
1870,C#4,537.75,0.25,78,201.0
1871,G#3,538.0,0.25,78,201.0
1872,E3,538.25,0.25,78,201.0
1873,C#3,538.5,0.25,78,201.0
1874,G#2,538.75,0.25,78,201.0
1875,E2,539.0,0.25,78,201.0
1876,C#2,539.25,0.75,78,201.0
1877,B4,539.996,1.0,95,201.0
1878,B5,539.996,1.0,95,201.0
1879,B1,540.0,1.0,78,201.0
1880,E5,540.996,1.0,95,201.0
1881,E6,540.996,1.0,95,201.0
1882,E-2,541.0,0.25,78,201.0
1883,F#2,541.25,0.25,78,201.0
1884,B2,541.5,0.25,78,201.0
1885,E-3,541.75,0.25,78,201.0
1886,F#5,541.996,1.0,95,201.0
1887,F#6,541.996,1.0,95,201.0
1888,F#3,542.0,0.25,78,201.0
1889,B3,542.25,0.25,78,201.0
1890,E-4,542.5,0.25,78,201.0
1891,F#4,542.75,0.25,78,201.0
1892,E5,542.996,1.0,95,201.0
1893,E6,542.996,1.0,95,201.0
1894,B4,543.0,0.25,78,201.0
1895,F#4,543.25,0.25,78,201.0
1896,E-4,543.5,0.25,78,201.0
1897,B3,543.75,0.25,78,201.0
1898,F#3,544.0,0.25,78,201.0
1899,E-3,544.25,0.25,78,201.0
1900,B2,544.5,0.25,78,201.0
1901,F#2,544.75,0.25,78,201.0
1902,E5,544.996,1.0,95,201.0
1903,E6,544.996,1.0,95,201.0
1904,E-2,545.0,0.25,78,201.0
1905,B1,545.25,0.75,78,201.0
1906,B1,546.0,1.0,78,201.0
1907,B4,546.996,1.0,95,201.0
1908,B5,546.996,1.0,95,201.0
1909,B3,547.0,0.5,78,201.0
1910,F#3,547.5,0.5,78,201.0
1911,F#5,547.996,1.0,95,201.0
1912,F#6,547.996,1.0,95,201.0
1913,E-3,548.0,0.5,78,201.0
1914,B2,548.5,0.5,78,201.0
1915,E5,548.996,1.0,95,201.0
1916,C#6,548.996,1.0,95,201.0
1917,E6,548.996,1.0,95,201.0
1918,B2,549.0,1.5,78,201.0
1919,B1,549.0,1.5,78,201.0
1920,F#5,549.996,1.0,95,201.0
1921,F#6,549.996,1.0,95,201.0
1922,C#6,549.996,1.0,95,201.0
1923,G#1,550.5,1.5,78,201.0
1924,G#2,550.5,1.5,78,201.0
1925,F#5,550.996,2.0,95,201.0
1926,B5,550.996,2.0,95,201.0
1927,F#6,550.996,2.0,95,201.0
1928,A2,552.0,1.0,78,201.0
1929,A1,552.0,1.0,78,201.0
1930,A3,553.0,0.5,78,201.0
1931,E3,553.0,0.5,78,201.0
1932,C#3,553.0,0.5,78,201.0
1933,A2,553.5,0.5,78,201.0
1934,F#5,553.996,1.0,95,201.0
1935,B5,553.996,1.0,95,201.0
1936,F#6,553.996,1.0,95,201.0
1937,C#3,554.0,0.5,78,201.0
1938,E3,554.0,0.5,78,201.0
1939,A3,554.0,0.5,78,201.0
1940,A2,554.5,0.5,78,201.0
1941,E5,554.996,1.0,95,201.0
1942,E6,554.996,1.0,95,201.0
1943,A1,555.0,1.5,78,201.0
1944,A2,555.0,1.5,78,201.0
1945,B1,556.5,1.5,78,201.0
1946,B2,556.5,1.5,78,201.0
1947,F#5,556.996,1.0,95,201.0
1948,B5,556.996,1.0,95,201.0
1949,F#6,556.996,1.0,95,201.0
1950,E5,557.996,1.0,95,201.0
1951,E6,557.996,1.0,95,201.0
1952,C#2,558.0,1.0,78,201.0
1953,C#3,558.0,1.0,78,201.0
1954,F#5,558.996,1.0,95,201.0
1955,B5,558.996,1.0,95,201.0
1956,F#6,558.996,1.0,95,201.0
1957,E3,559.0,0.5,78,201.0
1958,G#3,559.0,0.5,78,201.0
1959,C#4,559.0,0.5,78,201.0
1960,C#3,559.5,0.5,78,201.0
1961,A5,559.996,1.0,95,201.0
1962,E-6,559.996,1.0,95,201.0
1963,A6,559.996,1.0,95,201.0
1964,C#4,560.0,0.5,78,201.0
1965,G#3,560.0,0.5,78,201.0
1966,E3,560.0,0.5,78,201.0
1967,C#3,560.5,0.5,78,201.0
1968,G#5,560.996,1.0,95,201.0
1969,E-6,560.996,1.0,95,201.0
1970,G#6,560.996,1.0,95,201.0
1971,C#3,561.0,1.5,78,201.0
1972,C#2,561.0,1.5,78,201.0
1973,E5,561.996,1.0,95,201.0
1974,E6,561.996,1.0,95,201.0
1975,C3,562.5,1.5,78,201.0
1976,C2,562.5,1.5,78,201.0
1977,G#5,562.996,3.0,95,201.0
1978,C#5,562.996,3.0,95,201.0
1979,E5,562.996,3.0,95,201.0
1980,B2,564.0,1.0,78,201.0
1981,B1,564.0,1.0,78,201.0
1982,B3,565.0,0.5,78,201.0
1983,F#3,565.0,0.5,78,201.0
1984,E-3,565.0,0.5,78,201.0
1985,B2,565.5,0.5,78,201.0
1986,E5,565.996,1.0,95,201.0
1987,B5,565.996,1.0,95,201.0
1988,E6,565.996,1.0,95,201.0
1989,E-3,566.0,0.5,78,201.0
1990,F#3,566.0,0.5,78,201.0
1991,B3,566.0,0.5,78,201.0
1992,B2,566.5,0.5,78,201.0
1993,F#5,566.996,1.0,95,201.0
1994,F#6,566.996,1.0,95,201.0
1995,E-3,567.0,0.5,78,201.0
1996,F#3,567.0,0.5,78,201.0
1997,B3,567.0,0.5,78,201.0
1998,B2,567.5,0.5,78,201.0
1999,E5,567.996,1.0,95,201.0
2000,E6,567.996,1.0,95,201.0
2001,B3,568.0,0.5,78,201.0
2002,F#3,568.0,0.5,78,201.0
2003,E-3,568.0,0.5,78,201.0
2004,B2,568.5,0.5,78,201.0
2005,E5,568.996,2.0,95,201.0
2006,E6,568.996,2.0,95,201.0
2007,G#5,568.996,2.0,95,201.0
2008,E-3,569.0,0.5,78,201.0
2009,F#3,569.0,0.5,78,201.0
2010,B3,569.0,0.5,78,201.0
2011,B2,569.5,0.5,78,201.0
2012,B2,570.0,1.0,78,201.0
2013,B1,570.0,1.0,78,201.0
2014,B4,570.996,1.0,95,201.0
2015,B5,570.996,1.0,95,201.0
2016,B2,571.0,1.0,78,201.0
2017,B1,571.0,1.0,78,201.0
2018,F#5,571.996,1.0,95,201.0
2019,F#6,571.996,1.0,95,201.0
2020,B2,572.0,1.0,78,201.0
2021,B1,572.0,1.0,78,201.0
2022,E5,572.996,1.0,95,201.0
2023,E6,572.996,1.0,95,201.0
2024,B0,573.0,0.5,78,201.0
2025,B1,573.0,0.5,78,201.0
2026,B0,573.5,0.5,78,201.0
2027,B1,573.5,0.5,78,201.0
2028,F#5,573.996,1.0,95,201.0
2029,F#6,573.996,1.0,95,201.0
2030,B0,574.0,0.5,78,201.0
2031,B1,574.0,0.5,78,201.0
2032,B0,574.5,0.5,78,201.0
2033,B1,574.5,0.5,78,201.0
2034,F#5,574.996,2.0,95,201.0
2035,F#6,574.996,2.0,95,201.0
2036,B5,574.996,2.0,95,201.0
2037,B0,575.0,0.5,78,201.0
2038,B1,575.0,0.5,78,201.0
2039,B0,575.5,0.5,78,201.0
2040,B1,575.5,0.5,78,201.0
2041,B1,576.0,1.0,78,201.0
2042,B0,576.0,1.0,78,201.0
2043,F#5,576.996,1.0,95,201.0
2044,F#6,576.996,1.0,95,201.0
2045,B2,577.0,1.0,78,201.0
2046,B1,577.0,1.0,78,201.0
2047,F#5,577.996,1.5,95,201.0
2048,F#6,577.996,1.5,95,201.0
2049,B2,578.0,1.0,78,201.0
2050,B1,578.0,1.0,78,201.0
2051,B0,579.0,1.0,78,201.0
2052,B1,579.0,1.0,78,201.0
2053,E5,579.496,1.5,95,201.0
2054,E6,579.496,1.5,95,201.0
2055,B1,580.0,1.0,78,201.0
2056,B2,580.0,1.0,78,201.0
2057,F#5,580.996,1.0,95,201.0
2058,F#6,580.996,1.0,95,201.0
2059,B5,580.996,1.0,95,201.0
2060,B1,581.0,1.0,78,201.0
2061,B2,581.0,1.0,78,201.0
2062,E5,581.996,1.0,95,201.0
2063,E6,581.996,1.0,95,201.0
2064,B0,582.0,1.0,78,201.0
2065,B1,582.0,1.0,78,201.0
2066,F#5,582.996,1.0,95,201.0
2067,B5,582.996,1.0,95,201.0
2068,F#6,582.996,1.0,95,201.0
2069,B1,583.0,1.0,78,201.0
2070,B2,583.0,1.0,78,201.0
2071,A5,583.996,1.0,95,201.0
2072,A6,583.996,1.0,95,201.0
2073,E-6,583.996,1.0,95,201.0
2074,B1,584.0,1.0,78,201.0
2075,B2,584.0,1.0,78,201.0
2076,G#5,584.996,1.0,95,201.0
2077,E-6,584.996,1.0,95,201.0
2078,G#6,584.996,1.0,95,201.0
2079,B1,585.0,1.0,78,201.0
2080,B0,585.0,1.0,78,201.0
2081,E5,585.996,1.0,95,201.0
2082,E6,585.996,1.0,95,201.0
2083,B2,586.0,1.0,78,201.0
2084,B1,586.0,1.0,78,201.0
2085,E4,586.996,0.5,80,201.0
2086,B2,587.0,1.0,78,201.0
2087,B1,587.0,1.0,78,201.0
2088,F#4,587.496,0.5,80,201.0
2089,A4,587.996,0.5,80,201.0
2090,B1,588.0,1.0,78,201.0
2091,B0,588.0,1.0,78,201.0
2092,B4,588.496,0.5,80,201.0
2093,F#4,588.996,0.5,80,201.0
2094,E-3,589.0,1.0,78,201.0
2095,B2,589.0,1.0,78,201.0
2096,F#2,589.0,1.0,78,201.0
2097,A4,589.496,0.5,80,201.0
2098,F#4,589.996,0.5,80,201.0
2099,F#2,590.0,1.0,78,201.0
2100,E-3,590.0,1.0,78,201.0
2101,B2,590.0,1.0,78,201.0
2102,A4,590.496,0.5,80,201.0
2103,F#5,590.996,1.0,95,201.0
2104,B4,590.996,1.0,95,201.0
2105,F#4,590.996,1.0,95,201.0
2106,B1,591.0,1.0,78,201.0
2107,B0,591.0,1.0,78,201.0
2108,E5,591.996,1.0,95,201.0
2109,E4,591.996,1.0,95,201.0
2110,E-3,592.0,1.0,78,201.0
2111,B2,592.0,1.0,78,201.0
2112,F#2,592.0,1.0,78,201.0
2113,F#5,592.996,1.0,95,201.0
2114,F#4,592.996,1.0,95,201.0
2115,B4,592.996,1.0,95,201.0
2116,B2,593.0,1.0,78,201.0
2117,E-3,593.0,1.0,78,201.0
2118,F#2,593.0,1.0,78,201.0
2119,E5,593.996,1.0,95,201.0
2120,E4,593.996,1.0,95,201.0
2121,B1,594.0,1.0,78,201.0
2122,B0,594.0,1.0,78,201.0
2123,F#5,594.996,1.0,95,201.0
2124,F#4,594.996,1.0,95,201.0
2125,B4,594.996,1.0,95,201.0
2126,E-3,595.0,1.0,78,201.0
2127,B2,595.0,1.0,78,201.0
2128,F#3,595.0,1.0,78,201.0
2129,A5,595.996,1.0,95,201.0
2130,E-5,595.996,1.0,95,201.0
2131,A4,595.996,1.0,95,201.0
2132,F#3,596.0,1.0,78,201.0
2133,E-3,596.0,1.0,78,201.0
2134,B2,596.0,1.0,78,201.0
2135,G#5,596.996,1.0,95,201.0
2136,E-5,596.996,1.0,95,201.0
2137,G#4,596.996,1.0,95,201.0
2138,B0,597.0,1.0,78,201.0
2139,B1,597.0,1.0,78,201.0
2140,E5,597.996,1.0,95,201.0
2141,E4,597.996,1.0,95,201.0
2142,F#3,598.0,1.0,78,201.0
2143,B2,598.0,1.0,78,201.0
2144,E-3,598.0,1.0,78,201.0
2145,E4,598.996,0.5,80,201.0
2146,F#3,599.0,1.0,78,201.0
2147,E-3,599.0,1.0,78,201.0
2148,B2,599.0,1.0,78,201.0
2149,F#4,599.496,0.5,80,201.0
2150,A4,599.996,0.5,80,201.0
2151,B0,600.0,1.0,78,201.0
2152,B1,600.0,1.0,78,201.0
2153,B4,600.496,0.5,80,201.0
2154,F#4,600.996,0.5,80,201.0
2155,B0,601.0,1.0,78,201.0
2156,B1,601.0,1.0,78,201.0
2157,A4,601.496,0.5,80,201.0
2158,F#4,601.996,0.5,80,201.0
2159,B0,602.0,1.0,78,201.0
2160,B1,602.0,1.0,78,201.0
2161,A4,602.496,0.5,80,201.0
2162,F#4,602.996,1.0,95,201.0
2163,F#5,602.996,1.0,95,201.0
2164,B4,602.996,1.0,95,201.0
2165,B1,603.0,1.0,78,201.0
2166,B0,603.0,1.0,78,201.0
2167,E4,603.996,1.0,95,201.0
2168,E5,603.996,1.0,95,201.0
2169,B1,604.0,1.0,78,201.0
2170,B0,604.0,1.0,78,201.0
2171,F#4,604.996,1.0,95,201.0
2172,F#5,604.996,1.0,95,201.0
2173,B4,604.996,1.0,95,201.0
2174,B1,605.0,1.0,78,201.0
2175,B0,605.0,1.0,78,201.0
2176,E4,605.996,1.0,95,201.0
2177,E5,605.996,1.0,95,201.0
2178,B1,606.0,1.0,78,201.0
2179,B0,606.0,1.0,78,201.0
2180,F#4,606.996,1.0,95,201.0
2181,B4,606.996,1.0,95,201.0
2182,F#5,606.996,1.0,95,201.0
2183,B1,607.0,1.0,78,201.0
2184,B0,607.0,1.0,78,201.0
2185,A4,607.996,1.0,95,201.0
2186,E-5,607.996,1.0,95,201.0
2187,A5,607.996,1.0,95,201.0
2188,B1,608.0,1.0,78,201.0
2189,B0,608.0,1.0,78,201.0
2190,G#4,608.996,1.0,95,201.0
2191,E-5,608.996,1.0,95,201.0
2192,G#5,608.996,1.0,95,201.0
2193,B1,609.0,1.0,78,201.0
2194,B0,609.0,1.0,78,201.0
2195,E4,609.996,1.0,95,201.0
2196,E5,609.996,1.0,95,201.0
2197,B1,610.0,1.0,78,201.0
2198,B0,610.0,1.0,78,201.0
2199,E6,610.996,31/250,95,201.0
2200,B1,611.0,1.0,78,201.0
2201,B0,611.0,1.0,78,201.0
2202,E-6,611.12,31/250,95,201.0
2203,C#6,611.246,31/250,95,201.0
2204,B5,611.37,31/250,95,201.0
2205,A5,611.496,31/250,95,201.0
2206,G#5,611.62,31/250,95,201.0
2207,F#5,611.746,31/250,95,201.0
2208,E5,611.87,31/250,95,201.0
2209,B1,612.0,0.5,78,201.0
2210,B0,612.0,0.5,78,201.0
2211,B0,612.5,0.5,78,201.0
2212,B1,613.0,0.5,78,201.0
2213,B0,613.5,0.5,78,201.0
2214,F#5,613.996,1.0,95,201.0
2215,B4,613.996,1.0,95,201.0
2216,F#4,613.996,1.0,95,201.0
2217,B1,614.0,0.5,78,201.0
2218,B0,614.5,0.5,78,201.0
2219,F#5,614.996,1.0,95,201.0
2220,B4,614.996,1.0,95,201.0
2221,F#4,614.996,1.0,95,201.0
2222,B0,615.0,0.5,78,201.0
2223,B1,615.0,0.5,78,201.0
2224,B0,615.5,0.5,78,201.0
2225,B1,615.5,0.5,78,201.0
2226,E5,615.996,1.0,95,201.0
2227,E4,615.996,1.0,95,201.0
2228,B0,616.0,0.5,78,201.0
2229,B1,616.0,0.5,78,201.0
2230,B0,616.5,0.5,78,201.0
2231,B1,616.5,0.5,78,201.0
2232,F#5,616.996,1.0,95,201.0
2233,F#4,616.996,1.0,95,201.0
2234,B4,616.996,1.0,95,201.0
2235,B0,617.0,0.5,78,201.0
2236,B1,617.0,0.5,78,201.0
2237,B0,617.5,0.5,78,201.0
2238,B1,617.5,0.5,78,201.0
2239,E5,617.996,1.0,95,201.0
2240,E4,617.996,1.0,95,201.0
2241,E2,618.0,3.0,78,201.0
2242,E1,618.0,3.0,78,201.0
2243,F#5,618.996,1.0,95,201.0
2244,B4,618.996,1.0,95,201.0
2245,F#4,618.996,1.0,95,201.0
2246,A5,619.996,1.0,95,201.0
2247,A4,619.996,1.0,95,201.0
2248,E-5,619.996,1.0,95,201.0
2249,G#5,620.996,1.0,95,201.0
2250,G#4,620.996,1.0,95,201.0
2251,E-5,620.996,1.0,95,201.0
2252,E5,621.996,1.0,95,201.0
2253,G#4,621.996,1.0,95,201.0
2254,E4,621.996,1.0,95,201.0
2255,E6,622.996,31/250,95,201.0
2256,E-6,623.12,31/250,95,201.0
2257,C#6,623.246,31/250,95,201.0
2258,B5,623.37,31/250,95,201.0
2259,A5,623.496,31/250,95,201.0
2260,G#5,623.62,31/250,95,201.0
2261,F#5,623.746,31/250,95,201.0
2262,E5,623.87,31/250,95,201.0
2263,E6,625.996,31/250,95,201.0
2264,E-6,626.12,31/250,95,201.0
2265,C#6,626.246,31/250,95,201.0
2266,B5,626.37,31/250,95,201.0
2267,A5,626.496,31/250,95,201.0
2268,G#5,626.62,31/250,95,201.0
2269,F#5,626.746,31/250,95,201.0
2270,E5,626.87,31/250,95,201.0
