,note_name,start_time,duration,velocity,tempo
0,F3,0.0,2.01,66,126.0
1,E-2,0.0,2.01,66,126.0
2,G3,0.0,2.01,66,126.0
3,B-3,0.0,2.01,66,126.0
4,E-3,0.0,2.01,66,126.0
5,E-4,1.854,1.115,57,126.0
6,E-3,1.854,1.115,57,126.0
7,F4,1.938,1.073,57,126.0
8,B-4,2.021,0.99,71,126.0
9,E-4,2.021,0.99,71,126.0
10,F5,2.846,1.154,55,126.0
11,E-4,2.846,1.154,55,126.0
12,G5,2.929,1.071,55,126.0
13,B-5,3.012,0.988,69,126.0
14,E-5,3.012,0.988,69,126.0
15,G5,4.0,3.999,55,126.0
16,B-5,4.0,3.999,69,126.0
17,E-5,4.0,3.999,69,126.0
18,F5,4.0,3.958,55,126.0
19,E-4,4.0,3.958,55,126.0
20,B-4,8.004,1.518,67,126.0
21,C3,8.004,2.016,66,126.0
22,E-4,8.004,2.016,66,126.0
23,G4,9.522,0.995,62,126.0
24,E-4,10.021,1.979,65,126.0
25,G4,10.519,0.463,62,126.0
26,D5,11.012,0.463,63,126.0
27,E-5,11.505,0.495,62,126.0
28,E-5,12.0,2.02,62,126.0
29,G#2,12.004,2.484,67,126.0
30,B-4,14.021,0.99,65,126.0
31,G#3,14.519,0.985,62,126.0
32,C5,15.012,0.987,63,126.0
33,B-4,16.004,2.016,67,126.0
34,B-2,16.004,1.024,67,126.0
35,F3,17.029,0.463,63,126.0
36,B-3,17.522,2.477,62,126.0
37,B-4,18.021,0.99,65,126.0
38,B-4,19.012,0.988,63,126.0
39,B-4,20.0,1.521,63,126.0
40,E-3,20.004,0.499,67,126.0
41,B-3,20.533,0.466,62,126.0
42,E-4,21.029,0.99,63,126.0
43,G#4,21.522,0.995,62,126.0
44,E-4,22.021,1.979,65,126.0
45,G#4,22.519,0.463,62,126.0
46,G4,23.012,0.463,63,126.0
47,F4,23.505,0.465,62,126.0
48,B-4,24.004,1.518,67,126.0
49,C3,24.004,0.499,67,126.0
50,G3,24.533,0.466,62,126.0
51,C4,25.029,2.97,63,126.0
52,G4,25.522,0.995,62,126.0
53,G4,26.519,0.463,62,126.0
54,D5,27.012,0.463,63,126.0
55,E-5,27.505,0.495,62,126.0
56,E-5,28.0,2.02,62,126.0
57,G#2,28.004,0.499,67,126.0
58,E-3,28.533,0.466,62,126.0
59,G#3,29.029,0.463,63,126.0
60,C4,29.522,2.477,62,126.0
61,B-4,30.021,0.99,65,126.0
62,C5,31.012,0.987,63,126.0
63,B-4,32.004,2.016,67,126.0
64,B-2,32.004,0.499,67,126.0
65,F3,32.533,0.466,62,126.0
66,B-3,33.029,0.463,63,126.0
67,E-4,33.522,2.477,62,126.0
68,F5,34.021,1.483,65,126.0
69,E-5,35.505,0.495,62,126.0
70,E-5,36.0,3.999,62,126.0
71,E-2,36.004,0.499,66,126.0
72,B-2,36.533,0.466,62,126.0
73,E-3,37.029,0.463,63,126.0
74,F3,37.522,2.477,62,126.0
75,E-2,40.004,0.499,66,126.0
76,B-2,40.533,0.466,62,126.0
77,E-3,41.029,0.99,63,126.0
78,G3,41.522,0.995,62,126.0
79,E-3,42.021,1.979,65,126.0
80,B-3,42.519,0.463,62,126.0
81,G#3,43.012,0.463,63,126.0
82,G3,43.505,0.465,62,126.0
83,F3,44.004,1.518,67,126.0
84,E-2,44.004,0.499,66,126.0
85,B-2,44.533,0.466,62,126.0
86,E-3,45.029,1.981,63,126.0
87,G3,45.522,1.981,62,126.0
88,E-3,47.012,0.987,63,126.0
89,G3,48.004,1.518,67,126.0
90,E-2,48.004,0.499,66,126.0
91,B-2,48.533,0.466,62,126.0
92,E-3,49.029,1.488,63,126.0
93,D4,49.522,1.488,62,126.0
94,E-3,50.519,1.48,62,126.0
95,D4,51.012,0.987,63,126.0
96,E-4,52.004,1.518,67,126.0
97,E-2,52.004,0.499,66,126.0
98,B-2,52.533,0.466,62,126.0
99,E-3,53.029,2.97,63,126.0
100,B-3,53.522,0.468,62,126.0
101,F4,54.021,0.99,65,126.0
102,E-4,55.012,0.463,63,126.0
103,F4,55.505,0.495,62,126.0
104,F4,56.0,0.503,62,126.0
105,D2,56.004,0.499,66,126.0
106,E-4,56.533,0.988,62,126.0
107,B-2,56.533,0.466,62,126.0
108,E-3,57.029,1.488,63,126.0
109,B-3,57.522,0.468,62,126.0
110,F4,58.021,0.99,65,126.0
111,E-3,58.519,1.48,62,126.0
112,E-4,59.012,0.987,63,126.0
113,C2,60.004,0.499,65,126.0
114,B-3,60.004,1.518,66,126.0
115,F4,60.004,1.518,66,126.0
116,B-2,60.533,0.466,62,126.0
117,E-3,61.029,2.97,63,126.0
118,B-3,61.522,0.468,62,126.0
119,G4,62.021,0.468,65,126.0
120,B-3,62.519,0.463,62,126.0
121,G#4,63.012,0.463,63,126.0
122,G4,63.505,0.495,62,126.0
123,G4,64.0,0.503,62,126.0
124,G#1,64.004,0.499,64,126.0
125,E-4,64.533,0.988,62,126.0
126,B-2,64.533,0.466,62,126.0
127,E-3,65.029,2.97,63,126.0
128,B-3,65.522,1.488,62,126.0
129,F4,67.012,0.987,63,126.0
130,B-3,67.838,0.162,59,126.0
131,E-4,67.921,0.079,59,126.0
132,B-3,68.0,1.521,59,126.0
133,E-4,68.0,1.521,59,126.0
134,G4,68.004,1.518,73,126.0
135,G1,68.004,0.499,64,126.0
136,B-2,68.533,0.466,62,126.0
137,E-3,69.029,2.97,63,126.0
138,B-3,69.522,0.468,62,126.0
139,G4,70.021,0.99,65,126.0
140,G#4,71.012,0.463,63,126.0
141,G4,71.505,0.495,62,126.0
142,G4,72.0,0.503,62,126.0
143,B-1,72.004,0.499,65,126.0
144,E-4,72.533,0.988,62,126.0
145,B-2,72.533,0.466,62,126.0
146,E-3,73.029,2.97,63,126.0
147,B-3,73.522,0.468,62,126.0
148,E-4,74.021,0.99,65,126.0
149,F4,75.012,0.987,63,126.0
150,B-3,75.838,0.162,59,126.0
151,C2,75.838,0.162,52,126.0
152,E-4,75.921,0.079,59,126.0
153,G2,75.921,0.079,54,126.0
154,B-3,76.0,2.02,59,126.0
155,C2,76.0,3.011,52,126.0
156,E-4,76.0,2.02,59,126.0
157,G2,76.0,3.011,54,126.0
158,G4,76.004,2.016,73,126.0
159,E-3,76.004,3.007,68,126.0
160,G4,78.021,0.468,65,126.0
161,G#4,78.519,0.985,62,126.0
162,E-3,79.012,0.988,63,126.0
163,G4,79.505,0.495,62,126.0
164,G4,80.0,0.503,62,126.0
165,E-3,80.0,3.999,63,126.0
166,E-4,80.533,0.495,62,126.0
167,E-4,81.029,1.981,63,126.0
168,F4,83.012,0.987,63,126.0
169,E-4,84.004,1.518,67,126.0
170,E-2,84.004,0.499,66,126.0
171,B-2,84.533,0.466,62,126.0
172,E-3,85.029,2.97,63,126.0
173,B-3,85.522,0.468,62,126.0
174,F4,86.021,0.99,65,126.0
175,E-4,87.012,0.463,63,126.0
176,F4,87.505,0.495,62,126.0
177,F4,88.0,0.503,62,126.0
178,D2,88.004,0.499,66,126.0
179,E-4,88.533,0.988,62,126.0
180,B-2,88.533,0.466,62,126.0
181,E-3,89.029,1.488,63,126.0
182,B-3,89.522,0.468,62,126.0
183,F4,90.021,0.99,65,126.0
184,E-3,90.519,1.48,62,126.0
185,E-4,91.012,0.987,63,126.0
186,C2,92.004,0.499,65,126.0
187,B-3,92.004,1.518,64,126.0
188,E-4,92.004,1.518,64,126.0
189,G4,92.004,1.518,64,126.0
190,B-2,92.533,0.466,62,126.0
191,E-3,93.029,2.97,63,126.0
192,B-3,93.522,0.468,62,126.0
193,E-4,94.021,0.497,64,126.0
194,G4,94.021,0.497,64,126.0
195,B-3,94.519,0.463,62,126.0
196,G#4,95.012,0.463,63,126.0
197,G4,95.505,0.495,62,126.0
198,G4,96.0,0.503,62,126.0
199,G#1,96.004,0.499,64,126.0
200,E-4,96.533,0.988,62,126.0
201,B-2,96.533,0.466,62,126.0
202,E-3,97.029,2.97,63,126.0
203,B-3,97.522,1.488,62,126.0
204,F4,99.012,0.987,63,126.0
205,B-3,99.838,0.162,59,126.0
206,E-4,99.921,0.079,59,126.0
207,B-3,100.0,1.521,59,126.0
208,E-4,100.0,1.521,59,126.0
209,G4,100.004,1.518,73,126.0
210,G1,100.004,0.499,64,126.0
211,B-2,100.533,0.466,62,126.0
212,E-3,101.029,2.97,63,126.0
213,B-3,101.522,0.468,62,126.0
214,G4,102.021,0.99,65,126.0
215,G#4,103.012,0.463,63,126.0
216,G4,103.505,0.495,62,126.0
217,G4,104.0,0.503,62,126.0
218,F1,104.004,0.499,63,126.0
219,F4,104.533,0.988,62,126.0
220,B-2,104.533,0.466,62,126.0
221,E-3,105.029,2.97,63,126.0
222,E-4,105.522,1.488,62,126.0
223,F4,107.012,0.987,63,126.0
224,E-4,108.004,1.518,67,126.0
225,E-2,108.004,0.499,66,126.0
226,B-2,108.533,0.466,62,126.0
227,E-3,109.029,2.971,63,126.0
228,B-3,109.522,0.995,62,126.0
229,B-3,110.519,0.463,62,126.0
230,E-4,111.012,0.463,63,126.0
231,B-4,111.505,0.465,62,126.0
232,D4,111.838,0.162,59,126.0
233,G4,111.921,0.079,59,126.0
234,E-3,112.0,3.999,63,126.0
235,D4,112.0,2.02,59,126.0
236,G4,112.0,2.02,59,126.0
237,D5,112.004,2.016,73,126.0
238,D5,113.854,2.145,57,126.0
239,G5,113.938,2.062,57,126.0
240,D6,114.021,1.979,71,126.0
241,G#6,117.029,0.236,63,126.0
242,B-6,117.281,0.226,62,126.0
243,G#6,117.522,0.227,62,126.0
244,G6,117.765,0.24,62,126.0
245,F6,118.021,0.241,65,126.0
246,E-6,118.277,0.226,62,126.0
247,D6,118.519,0.227,62,126.0
248,C6,118.761,0.235,62,126.0
249,B-5,119.012,0.235,63,126.0
250,G#5,119.263,0.227,62,126.0
251,G5,119.505,0.227,62,126.0
252,F5,119.747,0.237,62,126.0
253,E-5,120.004,1.518,67,126.0
254,E-3,120.004,0.499,67,126.0
255,B-3,120.533,0.466,62,126.0
256,E-4,121.029,2.97,63,126.0
257,B-4,121.522,0.468,62,126.0
258,F5,122.021,0.99,65,126.0
259,E-5,123.012,0.463,63,126.0
260,B-4,123.505,0.495,59,126.0
261,F5,123.505,0.495,59,126.0
262,B-4,124.0,0.532,59,126.0
263,F5,124.0,0.532,59,126.0
264,D3,124.004,0.499,67,126.0
265,E-5,124.533,0.988,62,126.0
266,B-3,124.533,0.466,62,126.0
267,E-4,125.029,1.488,63,126.0
268,B-4,125.522,0.468,62,126.0
269,E-5,126.021,0.99,65,126.0
270,E-4,126.519,1.48,62,126.0
271,F5,127.012,0.987,63,126.0
272,B-4,127.838,0.162,59,126.0
273,E-5,127.921,0.079,59,126.0
274,B-4,128.0,1.521,59,126.0
275,E-5,128.0,1.521,59,126.0
276,G5,128.004,1.518,73,126.0
277,C3,128.004,0.499,67,126.0
278,B-3,128.533,0.466,62,126.0
279,E-4,129.029,2.97,63,126.0
280,B-4,129.522,0.468,62,126.0
281,E-5,130.021,0.497,64,126.0
282,G5,130.021,0.497,64,126.0
283,B-4,130.519,0.463,62,126.0
284,G#5,131.012,0.463,63,126.0
285,G5,131.505,0.495,62,126.0
286,G5,132.0,0.503,62,126.0
287,G#2,132.004,0.499,67,126.0
288,E-5,132.533,0.988,62,126.0
289,B-3,132.533,0.466,62,126.0
290,E-4,133.029,2.97,63,126.0
291,B-4,133.522,1.488,62,126.0
292,F5,135.012,0.987,63,126.0
293,B-4,135.838,0.162,59,126.0
294,E-5,135.921,0.079,59,126.0
295,B-4,136.0,1.521,59,126.0
296,E-5,136.0,1.521,59,126.0
297,G5,136.004,1.518,73,126.0
298,G2,136.004,0.499,67,126.0
299,B-3,136.533,0.466,62,126.0
300,E-4,137.029,2.97,63,126.0
301,B-4,137.522,0.497,62,126.0
302,B-4,138.021,0.99,64,126.0
303,G5,138.021,0.99,64,126.0
304,G#5,139.012,0.463,63,126.0
305,G5,139.505,0.495,62,126.0
306,G5,140.0,0.503,62,126.0
307,B-2,140.004,0.499,67,126.0
308,E-5,140.533,0.988,62,126.0
309,B-3,140.533,0.466,62,126.0
310,E-4,141.029,2.97,63,126.0
311,B-4,141.522,0.468,62,126.0
312,E-5,142.021,0.99,65,126.0
313,F5,143.012,0.987,63,126.0
314,B-4,143.838,0.162,59,126.0
315,C2,143.838,0.162,52,126.0
316,E-5,143.921,0.079,59,126.0
317,G2,143.921,0.079,54,126.0
318,B-4,144.0,2.02,59,126.0
319,C2,144.0,3.011,52,126.0
320,E-5,144.0,2.02,59,126.0
321,G2,144.0,3.011,54,126.0
322,G5,144.004,2.016,73,126.0
323,E-3,144.004,3.007,68,126.0
324,G5,146.021,0.468,65,126.0
325,G#5,146.519,0.985,62,126.0
326,E-3,147.012,0.988,63,126.0
327,G5,147.505,0.495,62,126.0
328,G5,148.0,0.503,62,126.0
329,E-3,148.0,3.999,63,126.0
330,E-5,148.533,0.495,62,126.0
331,E-5,149.029,0.99,63,126.0
332,E-6,150.021,0.241,65,126.0
333,B-5,150.277,0.226,62,126.0
334,G#5,150.519,0.227,62,126.0
335,E-5,150.761,0.235,62,126.0
336,B-5,151.012,0.235,63,126.0
337,G#5,151.263,0.227,62,126.0
338,G5,151.505,0.227,62,126.0
339,F5,151.747,0.237,62,126.0
340,E-5,152.004,1.518,67,126.0
341,E-3,152.004,0.499,67,126.0
342,B-3,152.533,0.466,62,126.0
343,E-4,153.029,2.97,63,126.0
344,B-4,153.522,0.468,62,126.0
345,F5,154.021,0.99,65,126.0
346,E-5,155.012,0.463,63,126.0
347,F5,155.505,0.495,62,126.0
348,F5,156.0,0.503,62,126.0
349,D3,156.004,0.499,67,126.0
350,E-5,156.533,0.988,62,126.0
351,B-3,156.533,0.466,62,126.0
352,E-4,157.029,1.488,63,126.0
353,B-4,157.522,0.468,62,126.0
354,E-5,158.021,0.99,65,126.0
355,E-4,158.519,1.48,62,126.0
356,F5,159.012,0.987,63,126.0
357,B-4,159.838,0.162,59,126.0
358,E-5,159.921,0.079,59,126.0
359,B-4,160.0,1.521,59,126.0
360,E-5,160.0,1.521,59,126.0
361,G5,160.004,1.518,73,126.0
362,C3,160.004,0.499,67,126.0
363,B-3,160.533,0.466,62,126.0
364,E-4,161.029,2.97,63,126.0
365,B-4,161.522,0.468,62,126.0
366,E-5,162.021,0.99,64,126.0
367,G5,162.021,0.99,64,126.0
368,G#5,163.012,0.463,63,126.0
369,G5,163.505,0.495,62,126.0
370,G5,164.0,0.503,62,126.0
371,G#2,164.004,0.499,67,126.0
372,E-5,164.533,0.988,62,126.0
373,B-3,164.533,0.466,62,126.0
374,E-4,165.029,2.97,63,126.0
375,B-4,165.522,1.488,62,126.0
376,F5,167.012,0.987,63,126.0
377,B-4,167.838,0.162,59,126.0
378,E-5,167.921,0.079,59,126.0
379,B-4,168.0,1.521,59,126.0
380,E-5,168.0,1.521,59,126.0
381,G5,168.004,1.518,73,126.0
382,G2,168.004,0.499,67,126.0
383,B-3,168.533,0.466,62,126.0
384,E-4,169.029,2.97,63,126.0
385,B-4,169.522,0.468,62,126.0
386,E-5,170.021,0.497,64,126.0
387,G5,170.021,0.497,64,126.0
388,B-4,170.519,0.463,62,126.0
389,G#5,171.012,0.463,63,126.0
390,G5,171.505,0.495,62,126.0
391,G5,172.0,0.503,62,126.0
392,F2,172.004,0.499,67,126.0
393,F5,172.533,0.988,62,126.0
394,B-3,172.533,0.466,62,126.0
395,E-4,173.029,2.97,63,126.0
396,E-5,173.522,1.488,62,126.0
397,F5,175.012,0.987,63,126.0
398,E-3,176.004,0.499,67,126.0
399,B-4,176.004,1.518,66,126.0
400,E-5,176.004,1.518,66,126.0
401,B-3,176.533,0.466,62,126.0
402,E-4,177.029,1.981,63,126.0
403,B-4,177.522,1.981,62,126.0
404,B-3,179.012,0.987,63,126.0
405,E-2,180.004,0.499,66,126.0
406,E-4,180.004,1.518,64,126.0
407,B-4,180.004,1.518,64,126.0
408,B-3,180.533,0.466,62,126.0
409,E-4,181.029,0.99,63,126.0
410,E-4,181.522,1.488,59,126.0
411,B-4,181.522,1.488,59,126.0
412,E-3,182.021,0.468,65,126.0
413,E-2,182.519,0.463,61,126.0
414,G#4,183.012,0.987,63,126.0
415,D3,183.012,0.987,63,126.0
416,C2,184.004,0.499,65,126.0
417,E-4,184.004,1.518,66,126.0
418,B-4,184.004,1.518,66,126.0
419,C3,184.533,0.466,62,126.0
420,G3,185.029,0.463,63,126.0
421,G4,185.522,0.995,62,126.0
422,C4,185.522,0.995,62,126.0
423,G4,186.519,0.463,62,126.0
424,E-4,186.519,1.48,62,126.0
425,D5,187.012,0.463,63,126.0
426,E-5,187.505,0.495,62,126.0
427,E-5,188.0,0.503,62,126.0
428,G#2,188.004,0.499,67,126.0
429,B-4,188.533,0.466,62,126.0
430,E-3,188.533,0.466,62,126.0
431,B-5,189.029,0.463,63,126.0
432,G#3,189.029,0.463,63,126.0
433,E-5,189.522,0.468,62,126.0
434,C4,189.522,2.477,62,126.0
435,B-4,190.021,0.99,65,126.0
436,C5,191.012,0.987,63,126.0
437,B-4,192.004,1.024,67,126.0
438,B-2,192.004,0.499,67,126.0
439,F3,192.533,0.466,62,126.0
440,B-5,193.029,0.463,63,126.0
441,B-3,193.029,0.463,63,126.0
442,E-5,193.522,0.468,62,126.0
443,E-4,193.522,2.477,62,126.0
444,B-4,194.021,0.468,65,126.0
445,D5,194.519,0.463,62,126.0
446,E-5,195.012,0.463,63,126.0
447,B-4,195.505,0.495,62,126.0
448,B-4,196.0,0.532,62,126.0
449,E-3,196.004,0.499,67,126.0
450,B-4,196.533,0.466,62,126.0
451,B-3,196.533,0.466,62,126.0
452,B-5,197.029,0.463,63,126.0
453,E-4,197.029,0.463,63,126.0
454,E-5,197.522,0.966,62,126.0
455,G4,197.522,2.477,62,126.0
456,D5,198.519,0.463,62,126.0
457,E-5,199.012,0.463,63,126.0
458,B-4,199.505,0.494,62,126.0
459,B-4,200.004,1.518,67,126.0
460,C2,200.004,0.499,65,126.0
461,C3,200.533,0.466,62,126.0
462,G3,201.029,0.463,63,126.0
463,G4,201.522,0.995,62,126.0
464,C4,201.522,0.995,62,126.0
465,G4,202.519,0.463,62,126.0
466,E-4,202.519,1.48,62,126.0
467,D5,203.012,0.463,63,126.0
468,E-5,203.505,0.495,62,126.0
469,E-5,204.0,0.503,62,126.0
470,G#2,204.004,0.499,67,126.0
471,B-4,204.533,0.466,62,126.0
472,E-3,204.533,0.466,62,126.0
473,B-5,205.029,0.463,63,126.0
474,G#3,205.029,0.463,63,126.0
475,E-5,205.522,0.468,62,126.0
476,C4,205.522,2.477,62,126.0
477,B-4,206.021,0.99,65,126.0
478,C5,207.012,0.987,63,126.0
479,B-4,208.004,1.024,67,126.0
480,B-2,208.004,0.499,67,126.0
481,F3,208.533,0.466,62,126.0
482,B-5,209.029,0.463,63,126.0
483,B-3,209.029,0.463,63,126.0
484,E-5,209.522,0.468,62,126.0
485,E-4,209.522,2.477,62,126.0
486,B-4,210.021,0.468,65,126.0
487,F5,210.519,0.985,62,126.0
488,E-5,211.505,0.495,62,126.0
489,E-5,212.0,0.503,62,126.0
490,E-3,212.004,0.499,67,126.0
491,B-4,212.533,0.466,62,126.0
492,B-3,212.533,0.466,62,126.0
493,B-5,213.029,0.463,63,126.0
494,E-4,213.029,2.97,63,126.0
495,E-5,213.522,0.966,62,126.0
496,D5,214.519,0.463,62,126.0
497,E-5,215.012,0.463,63,126.0
498,B-4,215.505,0.495,62,126.0
499,B-4,216.0,0.532,62,126.0
500,F2,216.004,2.016,67,126.0
501,B-4,216.533,0.466,62,126.0
502,B-5,217.029,0.463,63,126.0
503,E-5,217.522,0.966,62,126.0
504,F3,218.021,1.979,65,126.0
505,D5,218.519,0.463,62,126.0
506,E-5,219.012,0.463,63,126.0
507,B-4,219.505,0.495,62,126.0
508,F3,220.0,3.999,65,126.0
509,B-4,220.0,3.999,62,126.0
510,E-4,224.004,1.024,67,126.0
511,C3,224.004,3.995,61,126.0
512,G3,224.004,3.995,61,126.0
513,C4,225.029,0.236,67,126.0
514,D4,225.281,0.226,68,126.0
515,E-4,225.522,0.227,70,126.0
516,F4,225.765,0.24,71,126.0
517,G4,226.021,0.241,73,126.0
518,G#4,226.277,0.226,75,126.0
519,B-4,226.519,0.227,76,126.0
520,C5,226.761,0.235,78,126.0
521,D5,227.012,0.235,79,126.0
522,E-5,227.263,0.227,81,126.0
523,F5,227.505,0.227,82,126.0
524,G5,227.747,0.237,84,126.0
525,B-5,228.004,2.016,93,126.0
526,C2,228.004,0.499,91,126.0
527,C3,228.533,0.466,88,126.0
528,G3,229.029,0.463,89,126.0
529,C4,229.522,0.468,88,126.0
530,E-4,230.021,0.468,91,126.0
531,C5,230.021,1.979,90,126.0
532,F5,230.021,1.979,90,126.0
533,C4,230.519,0.463,88,126.0
534,G3,231.012,0.463,89,126.0
535,C3,231.505,0.465,88,126.0
536,G4,231.838,0.162,80,126.0
537,B-4,231.921,0.079,80,126.0
538,G4,232.0,3.011,80,126.0
539,B-4,232.0,3.011,80,126.0
540,G5,232.004,3.007,94,126.0
541,C2,232.004,0.499,91,126.0
542,C3,232.533,0.466,88,126.0
543,G3,233.029,0.463,89,126.0
544,C4,233.522,0.468,88,126.0
545,E-4,234.021,0.468,91,126.0
546,C4,234.519,0.463,88,126.0
547,F4,235.012,0.463,88,126.0
548,F5,235.012,0.463,88,126.0
549,C3,235.012,0.463,88,126.0
550,G4,235.505,0.465,87,126.0
551,G5,235.505,0.465,87,126.0
552,B-2,235.505,0.465,87,126.0
553,G#2,236.004,0.499,93,126.0
554,G#4,236.004,1.024,92,126.0
555,G#5,236.004,1.024,92,126.0
556,E-3,236.533,0.466,88,126.0
557,B-4,237.029,0.463,88,126.0
558,B-5,237.029,0.463,88,126.0
559,G#3,237.029,0.463,88,126.0
560,C4,237.522,0.468,88,126.0
561,G#4,237.522,0.995,87,126.0
562,G#5,237.522,0.995,87,126.0
563,G#3,238.021,0.99,91,126.0
564,G4,238.519,0.985,87,126.0
565,G5,238.519,0.985,87,126.0
566,E-3,239.012,0.987,89,126.0
567,G4,239.505,0.495,85,126.0
568,B-4,239.505,0.495,85,126.0
569,E-5,239.505,0.495,85,126.0
570,G4,240.0,1.028,85,126.0
571,B-4,240.0,1.028,85,126.0
572,E-5,240.0,1.028,85,126.0
573,G#2,240.004,0.499,93,126.0
574,E-3,240.533,0.466,88,126.0
575,D5,241.029,0.463,89,126.0
576,G#3,241.029,0.99,89,126.0
577,E-5,241.522,0.995,88,126.0
578,B-2,242.021,0.99,91,126.0
579,F4,242.519,1.48,85,126.0
580,B-4,242.519,1.48,85,126.0
581,F5,242.519,1.48,85,126.0
582,B-3,243.012,0.987,89,126.0
583,G4,243.838,0.162,85,126.0
584,B-4,243.921,0.079,85,126.0
585,G4,244.0,2.02,85,126.0
586,B-4,244.0,2.02,85,126.0
587,G5,244.004,2.016,99,126.0
588,C3,244.004,0.499,93,126.0
589,G3,244.533,0.466,88,126.0
590,C4,245.029,0.463,89,126.0
591,G3,245.522,0.468,88,126.0
592,C3,246.021,0.468,91,126.0
593,F4,246.021,0.99,88,126.0
594,B-4,246.021,0.99,88,126.0
595,F5,246.021,0.99,88,126.0
596,G3,246.519,0.463,88,126.0
597,G5,247.012,0.463,89,126.0
598,C4,247.012,0.987,89,126.0
599,G4,247.505,0.495,85,126.0
600,E-5,247.505,0.495,85,126.0
601,G4,248.0,0.532,85,126.0
602,E-5,248.0,0.532,85,126.0
603,C2,248.004,0.499,91,126.0
604,C3,248.533,0.466,88,126.0
605,G4,248.533,1.984,87,126.0
606,B-4,248.533,1.984,87,126.0
607,G3,249.029,0.463,89,126.0
608,C4,249.522,0.468,88,126.0
609,E-4,250.021,0.468,91,126.0
610,B-4,250.519,0.463,88,126.0
611,C4,250.519,0.463,88,126.0
612,G#4,251.012,0.463,89,126.0
613,G3,251.012,0.987,89,126.0
614,E-4,251.505,0.495,85,126.0
615,B-4,251.505,0.495,85,126.0
616,E-4,252.0,1.521,85,126.0
617,B-4,252.0,1.521,85,126.0
618,G#1,252.004,0.499,90,126.0
619,G#2,252.533,0.466,88,126.0
620,E-3,253.029,0.463,89,126.0
621,E-4,253.522,0.468,88,126.0
622,G#3,253.522,1.488,88,126.0
623,B-4,254.021,0.468,91,126.0
624,D4,254.519,0.985,87,126.0
625,D5,254.519,0.985,87,126.0
626,G#3,255.012,0.987,89,126.0
627,E-4,255.505,0.495,85,126.0
628,G4,255.505,0.495,85,126.0
629,E-5,255.505,0.495,85,126.0
630,E-4,256.0,0.532,85,126.0
631,G4,256.0,0.532,85,126.0
632,E-5,256.0,0.532,85,126.0
633,B-1,256.004,1.024,91,126.0
634,D4,256.533,0.988,87,126.0
635,D5,256.533,0.988,87,126.0
636,B-2,257.029,0.99,89,126.0
637,E-4,257.522,0.995,85,126.0
638,G4,257.522,0.995,85,126.0
639,E-5,257.522,0.995,85,126.0
640,F3,258.021,0.99,91,126.0
641,F4,258.519,1.48,85,126.0
642,B-4,258.519,1.48,85,126.0
643,F5,258.519,1.48,85,126.0
644,B-3,259.012,0.987,89,126.0
645,C2,260.004,0.499,91,126.0
646,C5,260.004,2.016,90,126.0
647,E-5,260.004,2.016,90,126.0
648,C6,260.004,2.016,90,126.0
649,C3,260.533,0.466,88,126.0
650,G3,261.029,0.463,89,126.0
651,C4,261.522,0.468,88,126.0
652,E-4,262.021,0.468,91,126.0
653,D5,262.021,0.99,88,126.0
654,G5,262.021,0.99,88,126.0
655,D6,262.021,0.99,88,126.0
656,C4,262.519,0.463,88,126.0
657,G3,263.012,0.987,89,126.0
658,E-5,263.012,0.492,88,126.0
659,E-6,263.012,0.492,88,126.0
660,B-4,263.505,0.495,87,126.0
661,B-5,263.505,0.495,87,126.0
662,B-4,264.0,0.532,87,126.0
663,B-5,264.0,0.532,87,126.0
664,C2,264.004,0.499,91,126.0
665,C3,264.533,0.466,88,126.0
666,G#4,264.533,1.984,85,126.0
667,C5,264.533,1.984,85,126.0
668,G#5,264.533,1.984,85,126.0
669,G3,265.029,0.463,89,126.0
670,C4,265.522,0.468,88,126.0
671,E-4,266.021,0.468,91,126.0
672,G5,266.519,0.463,88,126.0
673,C4,266.519,0.463,88,126.0
674,F5,267.012,0.463,89,126.0
675,G3,267.012,0.987,89,126.0
676,G4,267.505,0.495,83,126.0
677,B-4,267.505,0.495,83,126.0
678,E-5,267.505,0.495,83,126.0
679,G4,268.0,1.521,83,126.0
680,B-4,268.0,1.521,83,126.0
681,E-5,268.0,1.521,83,126.0
682,G#1,268.004,0.499,90,126.0
683,G#2,268.533,0.466,88,126.0
684,E-3,269.029,0.463,89,126.0
685,E-5,269.522,0.468,88,126.0
686,G#3,269.522,0.468,88,126.0
687,E-5,270.021,0.468,91,126.0
688,G#2,270.021,0.468,91,126.0
689,D5,270.519,0.463,88,126.0
690,E-3,270.519,0.463,88,126.0
691,B-4,271.012,0.492,89,126.0
692,G#2,271.012,0.987,89,126.0
693,G4,271.505,0.495,83,126.0
694,B-4,271.505,0.495,83,126.0
695,E-5,271.505,0.495,83,126.0
696,G4,272.0,0.532,83,126.0
697,B-4,272.0,0.532,83,126.0
698,E-5,272.0,0.532,83,126.0
699,B-1,272.004,2.016,91,126.0
700,D5,272.533,0.466,88,126.0
701,B-4,273.029,0.492,89,126.0
702,F4,273.522,1.488,85,126.0
703,B-4,273.522,1.488,85,126.0
704,E-5,273.522,1.488,85,126.0
705,B-3,274.021,0.468,91,126.0
706,F3,274.519,0.463,88,126.0
707,F4,275.012,0.987,86,126.0
708,B-4,275.012,0.987,86,126.0
709,F5,275.012,0.987,86,126.0
710,B-2,275.012,0.987,86,126.0
711,B1,276.004,0.499,78,126.0
712,F#4,276.004,1.518,77,126.0
713,B-4,276.004,1.518,77,126.0
714,F#5,276.004,1.518,77,126.0
715,B2,276.533,0.466,75,126.0
716,E-3,277.029,0.463,76,126.0
717,F#3,277.522,0.995,75,126.0
718,G#4,277.522,1.488,72,126.0
719,C#5,277.522,1.488,72,126.0
720,G#5,277.522,1.488,72,126.0
721,B3,278.519,1.48,75,126.0
722,B-4,279.012,0.987,73,126.0
723,E-5,279.012,0.987,73,126.0
724,B-5,279.012,0.987,73,126.0
725,C#3,280.004,0.499,80,126.0
726,B-4,280.004,1.024,79,126.0
727,E-5,280.004,1.024,79,126.0
728,G#3,280.533,1.486,75,126.0
729,F#5,281.029,0.463,76,126.0
730,C#5,281.522,0.995,75,126.0
731,C#4,282.021,1.979,78,126.0
732,B-4,282.519,0.985,75,126.0
733,G#4,283.505,0.495,75,126.0
734,G#4,284.0,1.521,75,126.0
735,E-3,284.004,0.499,80,126.0
736,B-3,284.533,0.466,75,126.0
737,E-4,285.029,1.488,76,126.0
738,G#4,285.522,1.488,70,126.0
739,B-4,285.522,1.488,70,126.0
740,E-5,285.522,1.488,70,126.0
741,E-4,286.519,1.481,62,126.0
742,G#4,287.012,0.463,63,126.0
743,B-4,287.505,0.465,62,126.0
744,E-4,288.0,3.999,62,126.0
745,B-6,288.004,1.024,67,126.0
746,G#6,289.029,0.99,63,126.0
747,G6,290.021,0.99,65,126.0
748,E-6,291.012,0.492,63,126.0
749,E-5,291.505,0.465,62,126.0
750,F#5,292.004,1.518,54,126.0
751,B2,292.004,0.499,54,126.0
752,F#3,292.533,0.466,49,126.0
753,B3,293.029,2.97,50,126.0
754,G#5,293.522,1.488,49,126.0
755,B-5,295.012,0.987,50,126.0
756,C#6,296.004,1.024,54,126.0
757,C#3,296.004,0.499,54,126.0
758,G#3,296.533,1.486,49,126.0
759,E-5,297.029,0.463,50,126.0
760,C#5,297.522,0.995,49,126.0
761,C#4,298.021,1.979,52,126.0
762,C#5,298.519,0.463,49,126.0
763,B-4,299.012,0.463,50,126.0
764,G#4,299.505,0.495,49,126.0
765,G#4,300.0,1.521,49,126.0
766,E-3,300.004,0.499,54,126.0
767,B-3,300.533,0.466,49,126.0
768,E-4,301.029,1.488,50,126.0
769,G#4,301.522,1.488,44,126.0
770,B-4,301.522,1.488,44,126.0
771,E-5,301.522,1.488,44,126.0
772,E-4,302.519,1.481,49,126.0
773,G#4,303.012,0.463,50,126.0
774,B-4,303.505,0.465,49,126.0
775,E-5,304.004,0.499,54,126.0
776,B-4,304.533,0.747,49,126.0
777,E-5,305.281,0.738,49,126.0
778,G#5,306.021,0.739,52,126.0
779,B-5,306.761,0.743,49,126.0
780,E-5,307.339,0.661,41,126.0
781,E-3,307.339,0.661,41,126.0
782,G#5,307.422,0.578,41,126.0
783,B-3,307.422,0.578,41,126.0
784,E-6,307.505,0.495,51,126.0
785,E-4,307.505,0.495,51,126.0
786,E-6,308.0,4.0,51,126.0
787,E-4,308.0,4.0,51,126.0
788,E-5,308.0,4.0,41,126.0
789,E-3,308.0,4.0,41,126.0
790,G#5,308.0,4.0,41,126.0
791,B-3,308.0,4.0,41,126.0
792,E-6,312.0,3.999,51,126.0
793,E-4,312.0,3.999,51,126.0
794,E-5,312.0,3.999,41,126.0
795,E-3,312.0,3.999,41,126.0
796,G#5,312.0,3.999,41,126.0
797,B-3,312.0,3.999,41,126.0
