,note_name,start_time,duration,velocity,tempo
0,F6,0.01,0.493,54,100.0
1,E-6,0.533,0.466,49,100.0
2,G#6,1.029,0.99,50,100.0
3,G#6,2.021,0.99,52,100.0
4,B-6,3.012,0.987,50,100.0
5,B-6,4.004,1.024,54,100.0
6,C7,5.029,0.99,50,100.0
7,G#6,6.021,0.99,52,100.0
8,E-6,7.012,0.987,50,100.0
9,F6,8.004,0.499,54,100.0
10,E-6,8.533,0.466,49,100.0
11,G#6,9.029,0.99,50,100.0
12,G#6,10.021,0.99,52,100.0
13,B-6,11.012,0.987,50,100.0
14,B-6,12.004,1.024,54,100.0
15,C7,13.029,0.492,50,100.0
16,C7,13.522,0.468,49,100.0
17,B-6,14.021,1.979,52,100.0
18,F6,16.004,0.499,54,100.0
19,E-6,16.533,0.466,49,100.0
20,G#6,17.029,0.99,50,100.0
21,G#6,18.021,0.99,52,100.0
22,B-6,19.012,0.987,50,100.0
23,B-6,20.004,1.024,54,100.0
24,C7,21.029,0.99,50,100.0
25,G#6,22.021,0.99,52,100.0
26,E-6,23.012,0.987,50,100.0
27,F6,24.004,0.499,54,100.0
28,E-6,24.533,0.466,49,100.0
29,G#6,25.029,0.99,50,100.0
30,G#6,26.021,0.99,52,100.0
31,B-6,27.012,0.492,50,100.0
32,B-6,27.505,0.465,49,100.0
33,G#6,28.004,3.995,49,100.0
34,F6,32.004,0.499,54,100.0
35,C#5,32.004,2.016,54,100.0
36,E-6,32.533,0.466,49,100.0
37,G#6,33.029,0.99,50,100.0
38,G#6,34.021,0.99,52,100.0
39,F5,34.021,1.979,52,100.0
40,B-6,35.012,0.987,50,100.0
41,B-6,36.004,1.024,54,100.0
42,C5,36.004,2.016,54,100.0
43,C7,37.029,0.99,50,100.0
44,G#6,38.021,0.99,52,100.0
45,G#5,38.021,1.979,52,100.0
46,E-6,39.012,0.987,50,100.0
47,F6,40.004,0.499,54,100.0
48,C#5,40.004,2.016,54,100.0
49,E-6,40.533,0.466,49,100.0
50,G#6,41.029,0.99,50,100.0
51,G#6,42.021,0.99,52,100.0
52,F5,42.021,1.979,52,100.0
53,B-6,43.012,0.987,50,100.0
54,B-6,44.004,1.024,54,100.0
55,C5,44.004,2.016,54,100.0
56,C7,45.029,0.99,50,100.0
57,B-6,46.021,1.979,52,100.0
58,B-5,46.021,1.979,52,100.0
59,F6,48.004,0.499,54,100.0
60,C#5,48.004,2.016,54,100.0
61,E-6,48.533,0.466,49,100.0
62,G#6,49.029,0.99,50,100.0
63,G#6,50.021,0.99,52,100.0
64,F5,50.021,1.979,52,100.0
65,B-6,51.012,0.987,50,100.0
66,B-6,52.004,1.024,54,100.0
67,C5,52.004,2.016,54,100.0
68,C7,53.029,0.99,50,100.0
69,G#6,54.021,0.99,52,100.0
70,G#5,54.021,1.979,52,100.0
71,E-6,55.012,0.987,50,100.0
72,F6,56.004,0.499,54,100.0
73,C#5,56.004,2.016,54,100.0
74,E-6,56.533,0.466,49,100.0
75,G#6,57.029,0.99,50,100.0
76,G#6,58.021,0.99,52,100.0
77,F5,58.021,1.979,52,100.0
78,B-6,59.012,0.987,50,100.0
79,G#6,60.004,2.016,49,100.0
80,G#5,60.004,3.995,54,100.0
81,G5,62.021,1.979,52,100.0
82,F5,64.004,0.499,67,100.0
83,C#4,64.004,2.016,67,100.0
84,E-5,64.533,0.466,62,100.0
85,G#5,65.029,0.99,63,100.0
86,F4,65.854,2.145,57,100.0
87,G#4,65.938,2.062,57,100.0
88,G#5,66.021,0.99,65,100.0
89,C#5,66.021,1.979,71,100.0
90,B-5,67.012,0.987,63,100.0
91,B-5,68.004,1.024,67,100.0
92,C4,68.004,2.016,67,100.0
93,C6,69.029,0.99,63,100.0
94,F4,69.854,2.145,57,100.0
95,G#4,69.938,2.062,57,100.0
96,G#5,70.021,0.99,65,100.0
97,C5,70.021,1.979,71,100.0
98,E-5,71.012,0.987,63,100.0
99,F5,72.004,0.499,67,100.0
100,C#4,72.004,2.016,67,100.0
101,E-5,72.533,0.466,62,100.0
102,G#5,73.029,0.99,63,100.0
103,F4,73.854,2.145,57,100.0
104,G#4,73.938,2.062,57,100.0
105,G#5,74.021,0.99,65,100.0
106,C#5,74.021,1.979,71,100.0
107,B-5,75.012,0.987,63,100.0
108,B-5,76.004,1.024,67,100.0
109,C4,76.004,2.016,67,100.0
110,C6,77.029,0.99,63,100.0
111,F4,77.854,2.145,57,100.0
112,G#4,77.938,2.062,57,100.0
113,B-5,78.021,1.979,68,100.0
114,C5,78.021,1.979,68,100.0
115,F5,80.004,0.499,67,100.0
116,C#4,80.004,2.016,67,100.0
117,E-5,80.533,0.466,62,100.0
118,G#5,81.029,0.99,63,100.0
119,F4,81.854,2.145,57,100.0
120,G#4,81.938,2.062,57,100.0
121,G#5,82.021,0.99,65,100.0
122,C#5,82.021,1.979,71,100.0
123,B-5,83.012,0.987,63,100.0
124,B-5,84.004,1.024,67,100.0
125,C4,84.004,2.016,67,100.0
126,C6,85.029,0.99,63,100.0
127,F4,85.854,2.145,57,100.0
128,G#4,85.938,2.062,57,100.0
129,G#5,86.021,0.99,65,100.0
130,C5,86.021,1.979,71,100.0
131,E-5,87.012,0.987,63,100.0
132,F5,88.004,0.499,67,100.0
133,C#4,88.004,2.016,67,100.0
134,E-5,88.533,0.466,62,100.0
135,G#5,89.029,0.99,63,100.0
136,F4,89.854,2.145,57,100.0
137,G#4,89.938,2.062,57,100.0
138,G#5,90.021,0.99,65,100.0
139,C5,90.021,1.979,71,100.0
140,B-5,91.012,0.987,63,100.0
141,G#5,92.004,3.995,62,100.0
142,G#4,92.004,2.016,67,100.0
143,G4,94.021,1.979,65,100.0
144,C#6,96.004,0.499,67,100.0
145,F#4,96.004,2.016,67,100.0
146,C6,96.533,0.466,62,100.0
147,G#5,97.029,0.463,63,100.0
148,F5,97.522,0.966,62,100.0
149,B-4,98.021,1.979,65,100.0
150,G#5,98.519,0.463,62,100.0
151,B-5,99.012,0.463,63,100.0
152,F5,99.505,0.465,62,100.0
153,G#5,100.004,1.024,67,100.0
154,G#4,100.004,2.016,67,100.0
155,E-5,101.029,0.99,63,100.0
156,F5,102.021,0.99,65,100.0
157,E-4,102.021,1.979,65,100.0
158,G#5,103.012,0.987,63,100.0
159,C#6,104.004,0.499,67,100.0
160,F4,104.004,2.016,67,100.0
161,C6,104.533,0.466,62,100.0
162,G#5,105.029,0.463,63,100.0
163,F5,105.522,0.966,62,100.0
164,G#4,106.021,1.979,65,100.0
165,G#5,106.519,0.463,62,100.0
166,B-5,107.012,0.463,63,100.0
167,F5,107.505,0.465,62,100.0
168,G#5,108.004,3.995,62,100.0
169,G#4,108.004,1.024,67,100.0
170,E-4,109.029,0.99,63,100.0
171,F4,110.021,0.99,65,100.0
172,G#4,111.012,0.987,63,100.0
173,C#6,112.004,0.499,67,100.0
174,F#4,112.004,2.016,67,100.0
175,C6,112.533,0.466,62,100.0
176,G#5,113.029,0.463,63,100.0
177,F5,113.522,0.966,62,100.0
178,B-4,114.021,1.979,65,100.0
179,G#5,114.519,0.463,62,100.0
180,B-5,115.012,0.463,63,100.0
181,F5,115.505,0.465,62,100.0
182,G#5,116.004,1.024,67,100.0
183,G#4,116.004,2.016,67,100.0
184,E-5,117.029,0.99,63,100.0
185,F5,118.021,0.99,65,100.0
186,E-4,118.021,1.979,65,100.0
187,G#5,119.012,0.987,63,100.0
188,E-5,120.004,1.518,67,100.0
189,F4,120.004,3.995,62,100.0
190,G#5,121.522,0.468,62,100.0
191,C#5,122.021,1.483,65,100.0
192,C#5,123.505,0.465,62,100.0
193,E-5,124.004,0.499,67,100.0
194,C#5,124.533,0.466,62,100.0
195,E-5,125.029,0.463,63,100.0
196,C#5,125.522,0.468,62,100.0
197,B-4,126.021,0.468,65,100.0
198,G3,126.021,0.99,65,100.0
199,E-5,126.519,0.463,62,100.0
200,G#5,127.012,0.463,63,100.0
201,E-4,127.012,0.987,63,100.0
202,B-5,127.505,0.494,62,100.0
203,B-5,128.004,1.024,67,100.0
204,C#4,128.004,1.024,67,100.0
205,G#5,129.029,0.463,63,100.0
206,G#4,129.029,0.99,63,100.0
207,F5,129.522,0.966,62,100.0
208,C#5,130.021,0.99,65,100.0
209,G#5,130.519,0.463,62,100.0
210,B-5,131.012,0.463,63,100.0
211,G#4,131.012,0.987,63,100.0
212,C6,131.505,0.465,62,100.0
213,E-6,132.004,0.499,67,100.0
214,C4,132.004,1.024,67,100.0
215,B-5,132.533,0.466,62,100.0
216,C6,133.029,0.99,63,100.0
217,G#4,133.029,0.99,63,100.0
218,G#5,134.021,0.468,65,100.0
219,C5,134.021,0.99,65,100.0
220,E-5,134.519,0.463,62,100.0
221,G#5,135.012,0.463,63,100.0
222,G#4,135.012,0.987,63,100.0
223,B-5,135.505,0.494,62,100.0
224,B-5,136.004,1.024,67,100.0
225,C#4,136.004,1.024,67,100.0
226,G#5,137.029,0.463,63,100.0
227,G#4,137.029,0.99,63,100.0
228,F5,137.522,0.966,62,100.0
229,C#5,138.021,0.99,65,100.0
230,B-5,138.519,0.463,62,100.0
231,G#5,139.012,0.463,63,100.0
232,G#4,139.012,0.987,63,100.0
233,E-6,139.505,0.465,62,100.0
234,C6,140.004,2.016,67,100.0
235,F4,140.004,1.024,67,100.0
236,C5,141.029,0.99,63,100.0
237,B-4,142.021,0.468,65,100.0
238,G4,142.021,1.979,65,100.0
239,E-5,142.519,0.463,62,100.0
240,G#5,143.012,0.463,63,100.0
241,B-5,143.505,0.494,62,100.0
242,B-5,144.004,1.024,67,100.0
243,C#4,144.004,1.024,67,100.0
244,G#5,145.029,0.463,63,100.0
245,G#4,145.029,0.99,63,100.0
246,F5,145.522,0.966,62,100.0
247,C#5,146.021,0.99,65,100.0
248,G#5,146.519,0.463,62,100.0
249,B-5,147.012,0.463,63,100.0
250,G#4,147.012,0.987,63,100.0
251,C6,147.505,0.465,62,100.0
252,E-6,148.004,0.499,67,100.0
253,C4,148.004,1.024,67,100.0
254,B-5,148.533,0.466,62,100.0
255,C6,149.029,0.99,63,100.0
256,G#4,149.029,0.99,63,100.0
257,G#5,150.021,0.99,65,100.0
258,C5,150.021,0.99,65,100.0
259,G5,151.012,0.987,63,100.0
260,G#4,151.012,0.987,63,100.0
261,F4,151.838,0.162,59,100.0
262,B-4,151.921,0.079,59,100.0
263,F4,152.0,1.521,59,100.0
264,B-4,152.0,1.521,59,100.0
265,F5,152.004,1.518,73,100.0
266,C#3,152.004,0.499,67,100.0
267,G#3,152.533,0.466,62,100.0
268,C#4,153.029,0.99,63,100.0
269,F5,153.522,0.468,62,100.0
270,G4,153.854,1.156,57,100.0
271,B-4,153.938,1.073,57,100.0
272,G5,154.021,0.99,71,100.0
273,E-3,154.021,0.468,65,100.0
274,B-3,154.519,0.463,62,100.0
275,G#5,155.012,0.463,63,100.0
276,E-4,155.012,0.987,63,100.0
277,G5,155.505,0.495,62,100.0
278,G5,156.0,0.503,62,100.0
279,G#2,156.004,0.499,67,100.0
280,E-3,156.533,0.466,62,100.0
281,G#4,156.533,1.486,59,100.0
282,C5,156.533,1.486,59,100.0
283,G#5,156.533,1.486,59,100.0
284,G#3,157.029,0.463,63,100.0
285,E-3,157.522,0.468,62,100.0
286,B-3,158.021,0.468,77,100.0
287,B-4,158.021,0.468,77,100.0
288,G2,158.021,0.468,77,100.0
289,E-4,158.519,0.463,74,100.0
290,E-5,158.519,0.463,74,100.0
291,D3,158.519,0.463,74,100.0
292,G3,159.012,0.987,76,100.0
293,G#4,159.012,0.492,75,100.0
294,G#5,159.012,0.492,75,100.0
295,B-4,159.505,0.494,74,100.0
296,B-5,159.505,0.494,74,100.0
297,C#2,160.004,0.499,79,100.0
298,B-4,160.004,1.024,77,100.0
299,E-5,160.004,1.024,77,100.0
300,B-5,160.004,1.024,77,100.0
301,C#3,160.533,0.466,75,100.0
302,G#4,161.029,0.463,75,100.0
303,G#5,161.029,0.463,75,100.0
304,G#3,161.029,0.463,75,100.0
305,C#4,161.522,0.468,75,100.0
306,F4,161.522,0.995,74,100.0
307,F5,161.522,0.995,74,100.0
308,E-4,162.021,0.468,78,100.0
309,G#4,162.519,0.463,74,100.0
310,G#5,162.519,0.463,74,100.0
311,F4,162.519,0.463,74,100.0
312,B-4,163.012,0.463,75,100.0
313,B-5,163.012,0.463,75,100.0
314,E-4,163.012,0.463,75,100.0
315,C5,163.505,0.465,74,100.0
316,C6,163.505,0.465,74,100.0
317,C#4,163.505,0.465,74,100.0
318,E-5,164.004,0.499,79,100.0
319,E-6,164.004,0.499,79,100.0
320,C3,164.004,0.499,79,100.0
321,B-4,164.533,0.466,74,100.0
322,B-5,164.533,0.466,74,100.0
323,G3,164.533,0.466,74,100.0
324,C4,165.029,0.463,76,100.0
325,C5,165.029,0.99,75,100.0
326,C6,165.029,0.99,75,100.0
327,E-4,165.522,0.468,75,100.0
328,G#4,166.021,0.468,77,100.0
329,G#5,166.021,0.468,77,100.0
330,C4,166.021,0.468,77,100.0
331,E-4,166.519,0.463,74,100.0
332,E-5,166.519,0.463,74,100.0
333,G3,166.519,0.463,74,100.0
334,C3,167.012,0.987,76,100.0
335,G#4,167.012,0.492,75,100.0
336,G#5,167.012,0.492,75,100.0
337,B-4,167.505,0.494,74,100.0
338,B-5,167.505,0.494,74,100.0
339,C#3,168.004,0.499,80,100.0
340,B-4,168.004,1.024,79,100.0
341,B-5,168.004,1.024,79,100.0
342,G#3,168.533,0.466,75,100.0
343,C#4,169.029,0.99,76,100.0
344,G#4,169.029,0.492,75,100.0
345,G#5,169.029,0.492,75,100.0
346,F4,169.522,0.995,74,100.0
347,F5,169.522,0.995,74,100.0
348,E-3,170.021,0.468,78,100.0
349,B-4,170.519,0.463,74,100.0
350,B-5,170.519,0.463,74,100.0
351,B-3,170.519,0.463,74,100.0
352,E-4,171.012,0.987,76,100.0
353,G#4,171.012,0.492,75,100.0
354,G#5,171.012,0.492,75,100.0
355,E-5,171.505,0.494,74,100.0
356,E-6,171.505,0.494,74,100.0
357,F3,172.004,0.499,80,100.0
358,C5,172.004,2.016,79,100.0
359,C6,172.004,2.016,79,100.0
360,C4,172.533,0.466,75,100.0
361,F4,173.029,0.463,76,100.0
362,C4,173.522,0.468,75,100.0
363,B-3,174.021,0.468,77,100.0
364,B-4,174.021,0.468,77,100.0
365,G2,174.021,0.468,77,100.0
366,E-4,174.519,0.463,74,100.0
367,E-5,174.519,0.463,74,100.0
368,D3,174.519,0.463,74,100.0
369,G3,175.012,0.987,76,100.0
370,G#4,175.012,0.492,75,100.0
371,G#5,175.012,0.492,75,100.0
372,B-4,175.505,0.494,74,100.0
373,B-5,175.505,0.494,74,100.0
374,C#2,176.004,0.499,79,100.0
375,B-4,176.004,1.024,77,100.0
376,E-5,176.004,1.024,77,100.0
377,B-5,176.004,1.024,77,100.0
378,C#3,176.533,0.466,75,100.0
379,G#4,177.029,0.463,75,100.0
380,G#5,177.029,0.463,75,100.0
381,G#3,177.029,0.463,75,100.0
382,C#4,177.522,0.468,75,100.0
383,F4,177.522,0.995,74,100.0
384,F5,177.522,0.995,74,100.0
385,E-4,178.021,0.468,78,100.0
386,G#4,178.519,0.463,74,100.0
387,G#5,178.519,0.463,74,100.0
388,F4,178.519,0.463,74,100.0
389,B-4,179.012,0.463,75,100.0
390,B-5,179.012,0.463,75,100.0
391,E-4,179.012,0.463,75,100.0
392,C5,179.505,0.465,74,100.0
393,C6,179.505,0.465,74,100.0
394,C#4,179.505,0.465,74,100.0
395,E-5,180.004,0.499,79,100.0
396,E-6,180.004,0.499,79,100.0
397,C3,180.004,0.499,79,100.0
398,B-4,180.533,0.466,74,100.0
399,B-5,180.533,0.466,74,100.0
400,G3,180.533,0.466,74,100.0
401,C4,181.029,0.463,76,100.0
402,C5,181.029,0.99,75,100.0
403,C6,181.029,0.99,75,100.0
404,E-4,181.522,0.468,75,100.0
405,C4,182.021,0.468,78,100.0
406,G#4,182.021,0.99,77,100.0
407,G#5,182.021,0.99,77,100.0
408,G3,182.519,0.463,75,100.0
409,G4,183.012,0.987,75,100.0
410,G5,183.012,0.987,75,100.0
411,C3,183.012,0.987,75,100.0
412,F4,183.838,0.162,72,100.0
413,B-4,183.921,0.079,72,100.0
414,F4,184.0,1.521,72,100.0
415,B-4,184.0,1.521,72,100.0
416,F5,184.004,1.518,86,100.0
417,C#3,184.004,0.499,80,100.0
418,G#3,184.533,0.466,75,100.0
419,C#4,185.029,0.99,76,100.0
420,F5,185.522,0.468,75,100.0
421,G4,185.854,1.156,70,100.0
422,B-4,185.938,1.073,70,100.0
423,G5,186.021,0.99,84,100.0
424,E-3,186.021,0.468,78,100.0
425,B-3,186.519,0.463,75,100.0
426,G#5,187.012,0.463,76,100.0
427,E-4,187.012,0.987,76,100.0
428,G5,187.505,0.495,75,100.0
429,G5,188.0,0.503,75,100.0
430,G#2,188.004,0.499,80,100.0
431,E-3,188.533,0.466,73,100.0
432,G#4,188.533,3.466,69,100.0
433,C5,188.533,3.466,69,100.0
434,G#5,188.533,3.466,69,100.0
435,G#3,189.029,0.463,70,100.0
436,E-3,189.522,0.468,67,100.0
437,C4,190.021,1.979,63,100.0
438,B-5,192.004,0.499,54,100.0
439,C#2,192.004,2.016,52,100.0
440,C#3,192.004,2.016,52,100.0
441,G#5,192.533,0.466,49,100.0
442,F5,193.029,0.463,50,100.0
443,G#5,193.522,0.468,49,100.0
444,B-5,194.021,0.468,52,100.0
445,C#3,194.021,1.979,51,100.0
446,G#3,194.021,1.979,51,100.0
447,G#5,194.519,0.463,49,100.0
448,E-6,195.012,0.463,50,100.0
449,C6,195.505,0.495,49,100.0
450,C6,196.0,3.999,49,100.0
451,C#4,196.004,2.016,53,100.0
452,G#4,196.004,2.016,53,100.0
453,G#4,198.021,1.979,51,100.0
454,C#5,198.021,1.979,51,100.0
455,B-5,200.004,0.499,54,100.0
456,C2,200.004,2.016,52,100.0
457,C3,200.004,2.016,52,100.0
458,G#5,200.533,0.466,49,100.0
459,E-5,201.029,0.463,50,100.0
460,G#5,201.522,0.468,49,100.0
461,B-5,202.021,0.468,52,100.0
462,C3,202.021,1.979,51,100.0
463,G3,202.021,1.979,51,100.0
464,G#5,202.519,0.463,49,100.0
465,E-6,203.012,0.463,50,100.0
466,C6,203.505,0.495,49,100.0
467,C6,204.0,3.999,49,100.0
468,C4,204.004,2.016,53,100.0
469,G4,204.004,2.016,53,100.0
470,G4,206.021,1.979,51,100.0
471,C5,206.021,1.979,51,100.0
472,B-5,208.004,0.499,54,100.0
473,C#2,208.004,2.016,52,100.0
474,C#3,208.004,2.016,52,100.0
475,G#5,208.533,0.466,49,100.0
476,F5,209.029,0.463,50,100.0
477,G#5,209.522,0.468,49,100.0
478,B-5,210.021,0.468,52,100.0
479,C#3,210.021,1.979,51,100.0
480,G#3,210.021,1.979,51,100.0
481,G#5,210.519,0.463,49,100.0
482,E-6,211.012,0.463,50,100.0
483,C6,211.505,0.495,49,100.0
484,C6,212.0,2.02,49,100.0
485,C#4,212.004,2.016,53,100.0
486,G#4,212.004,2.016,53,100.0
487,G#5,214.021,0.99,52,100.0
488,G#4,214.021,1.979,51,100.0
489,C#5,214.021,1.979,51,100.0
490,B-5,215.012,0.987,50,100.0
491,E-5,215.838,0.162,46,100.0
492,G#5,215.921,0.079,46,100.0
493,E-5,216.0,2.02,46,100.0
494,G#5,216.0,2.02,46,100.0
495,C6,216.004,2.016,60,100.0
496,F3,216.004,0.499,54,100.0
497,C4,216.533,0.466,49,100.0
498,F4,217.029,0.463,50,100.0
499,C4,217.522,0.468,49,100.0
500,B-4,217.854,2.145,44,100.0
501,E-5,217.938,2.062,44,100.0
502,B-5,218.021,1.979,58,100.0
503,G#4,218.021,0.468,52,100.0
504,C4,218.519,0.463,49,100.0
505,F4,219.012,0.463,50,100.0
506,C4,219.505,0.465,49,100.0
507,G#4,219.838,0.162,46,100.0
508,C5,219.921,0.079,46,100.0
509,G#4,220.0,1.028,46,100.0
510,C5,220.0,1.028,46,100.0
511,G#5,220.004,1.024,60,100.0
512,F2,220.004,0.499,54,100.0
513,C3,220.533,0.466,50,100.0
514,F3,221.029,0.463,51,100.0
515,G4,221.029,0.99,50,100.0
516,G5,221.029,0.99,50,100.0
517,C3,221.522,0.468,53,100.0
518,F4,221.854,1.156,47,100.0
519,B-4,221.938,1.073,47,100.0
520,F5,222.021,0.99,61,100.0
521,G#3,222.021,0.468,55,100.0
522,C3,222.519,0.463,56,100.0
523,F3,223.012,0.463,58,100.0
524,F4,223.012,0.987,55,100.0
525,B-4,223.012,0.987,55,100.0
526,E-5,223.012,0.987,55,100.0
527,C3,223.505,0.465,60,100.0
528,F4,223.838,0.162,46,100.0
529,G#4,223.921,0.079,46,100.0
530,F4,224.0,0.503,46,100.0
531,G#4,224.0,0.532,46,100.0
532,B-4,224.004,0.499,70,100.0
533,C#2,224.004,0.499,70,100.0
534,G#4,224.533,0.466,62,100.0
535,C#3,224.533,0.466,62,100.0
536,F4,225.029,0.463,63,100.0
537,G#3,225.029,0.463,63,100.0
538,G#4,225.522,0.468,62,100.0
539,C#4,225.522,0.468,62,100.0
540,B-4,226.021,0.468,65,100.0
541,F4,226.021,1.979,65,100.0
542,G#4,226.519,0.463,62,100.0
543,E-5,227.012,0.463,63,100.0
544,C5,227.505,0.495,62,100.0
545,C5,228.0,3.999,62,100.0
546,C#3,228.004,0.499,67,100.0
547,G#3,228.533,0.466,62,100.0
548,E-6,229.029,0.463,63,100.0
549,C#4,229.029,0.463,63,100.0
550,C6,229.522,1.981,62,100.0
551,F4,229.522,0.995,62,100.0
552,C#4,230.519,0.463,62,100.0
553,G#3,231.012,0.463,63,100.0
554,C#3,231.505,0.465,62,100.0
555,F4,231.838,0.162,59,100.0
556,G#4,231.921,0.079,59,100.0
557,F4,232.0,0.503,59,100.0
558,G#4,232.0,0.532,59,100.0
559,B-4,232.004,0.499,69,100.0
560,C2,232.004,0.499,69,100.0
561,G#4,232.533,0.466,62,100.0
562,G2,232.533,0.466,62,100.0
563,E-4,233.029,0.463,63,100.0
564,C3,233.029,0.463,63,100.0
565,G#4,233.522,0.468,62,100.0
566,G3,233.522,0.468,62,100.0
567,B-4,234.021,0.468,65,100.0
568,C4,234.021,0.468,65,100.0
569,G#4,234.519,0.463,62,100.0
570,E-4,234.519,0.463,62,100.0
571,E-5,235.012,0.463,63,100.0
572,C4,235.012,0.987,63,100.0
573,C5,235.505,0.495,62,100.0
574,C5,236.0,3.999,62,100.0
575,C3,236.004,0.499,67,100.0
576,G3,236.533,0.466,62,100.0
577,E-7,237.029,0.463,63,100.0
578,C4,237.029,0.463,63,100.0
579,C7,237.522,1.981,62,100.0
580,E-4,237.522,0.995,62,100.0
581,C4,238.519,0.463,62,100.0
582,G3,239.012,0.463,63,100.0
583,C3,239.505,0.465,62,100.0
584,F4,239.838,0.162,59,100.0
585,G#4,239.921,0.079,59,100.0
586,F4,240.0,0.503,59,100.0
587,G#4,240.0,0.532,59,100.0
588,B-4,240.004,0.499,70,100.0
589,C#2,240.004,0.499,70,100.0
590,G#4,240.533,0.466,62,100.0
591,C#3,240.533,0.466,62,100.0
592,F4,241.029,0.463,63,100.0
593,G#3,241.029,0.463,63,100.0
594,G#4,241.522,0.468,62,100.0
595,C#4,241.522,0.468,62,100.0
596,B-4,242.021,0.468,65,100.0
597,F4,242.021,1.979,65,100.0
598,G#4,242.519,0.463,62,100.0
599,E-5,243.012,0.463,63,100.0
600,C5,243.505,0.495,62,100.0
601,C5,244.0,2.02,62,100.0
602,C#3,244.004,0.499,67,100.0
603,G#3,244.533,0.466,62,100.0
604,C#4,245.029,0.463,63,100.0
605,G#3,245.522,0.468,62,100.0
606,G#4,246.021,1.979,65,100.0
607,F4,246.021,0.468,65,100.0
608,G#3,246.519,0.463,62,100.0
609,C#4,247.012,0.463,63,100.0
610,G#3,247.505,0.465,62,100.0
611,E-4,247.838,0.162,54,100.0
612,G4,247.921,0.079,54,100.0
613,E-4,248.0,3.97,54,100.0
614,G4,248.0,3.999,54,100.0
615,B-4,248.004,3.995,68,100.0
616,E-2,248.004,0.499,66,100.0
617,B-2,248.533,0.466,62,100.0
618,E-3,249.029,0.463,64,100.0
619,G3,249.522,0.468,65,100.0
620,B-3,250.021,0.468,66,100.0
621,G3,250.519,0.463,68,100.0
622,B-3,251.012,0.463,69,100.0
623,E-4,251.505,0.494,70,100.0
624,G3,251.816,0.184,59,100.0
625,B-3,251.879,0.121,59,100.0
626,E-4,251.941,0.059,59,100.0
627,G3,252.0,2.02,59,100.0
628,B-3,252.0,1.492,59,100.0
629,E-4,252.0,2.02,59,100.0
630,G4,252.004,2.016,73,100.0
631,E-2,252.004,0.499,71,100.0
632,E-3,252.533,0.466,73,100.0
633,B-3,253.029,0.99,74,100.0
634,E-4,253.522,0.995,76,100.0
635,G4,254.021,0.99,65,100.0
636,E-4,254.519,1.48,78,100.0
637,G4,255.012,0.463,63,100.0
638,B-4,255.505,0.494,62,100.0
639,G4,255.816,0.184,64,100.0
640,E-3,255.816,0.184,64,100.0
641,B-4,255.879,0.121,64,100.0
642,B-3,255.879,0.121,64,100.0
643,E-5,255.941,0.059,54,100.0
644,E-5,256.0,3.999,54,100.0
645,G4,256.0,3.978,64,100.0
646,E-3,256.0,3.978,64,100.0
647,B-4,256.0,3.957,64,100.0
648,B-3,256.0,3.957,64,100.0
649,G5,256.004,3.995,78,100.0
650,E-4,256.004,3.995,78,100.0
651,E-6,259.816,0.184,67,100.0
652,E-5,259.816,0.184,67,100.0
653,G6,259.879,0.121,67,100.0
654,G5,259.879,0.121,67,100.0
655,B-6,259.941,0.059,54,100.0
656,B-6,260.0,4.0,54,100.0
657,E-6,260.0,4.0,67,100.0
658,E-5,260.0,4.0,67,100.0
659,G6,260.0,4.0,67,100.0
660,G5,260.0,4.0,67,100.0
661,E-7,260.004,3.996,81,100.0
662,B-5,260.004,3.996,81,100.0
663,B-6,264.0,2.02,54,100.0
664,E-6,264.0,1.998,67,100.0
665,E-5,264.0,1.998,67,100.0
666,G6,264.0,1.978,67,100.0
667,G5,264.0,1.978,67,100.0
668,E-7,264.0,2.02,81,100.0
669,B-5,264.0,2.02,81,100.0
670,B-3,266.021,0.497,90,100.0
671,B-4,266.021,0.497,90,100.0
672,E-4,266.519,0.492,87,100.0
673,E-5,266.519,0.492,87,100.0
674,G#4,267.012,0.492,88,100.0
675,G#5,267.012,0.492,88,100.0
676,B-4,267.505,0.494,87,100.0
677,B-5,267.505,0.494,87,100.0
678,B-4,268.004,1.024,90,100.0
679,E-5,268.004,1.024,90,100.0
680,B-5,268.004,1.024,90,100.0
681,C#1,268.004,0.528,89,100.0
682,C#2,268.004,0.528,89,100.0
683,G#2,268.533,0.466,88,100.0
684,G#4,269.029,0.463,88,100.0
685,G#5,269.029,0.463,88,100.0
686,C#3,269.029,0.463,88,100.0
687,G#3,269.522,0.468,88,100.0
688,F4,269.522,0.995,87,100.0
689,F5,269.522,0.995,87,100.0
690,C#4,270.021,0.468,91,100.0
691,G#4,270.519,0.463,87,100.0
692,G#5,270.519,0.463,87,100.0
693,E-4,270.519,0.463,87,100.0
694,B-4,271.012,0.463,88,100.0
695,B-5,271.012,0.463,88,100.0
696,F4,271.012,0.463,88,100.0
697,C5,271.505,0.465,87,100.0
698,C6,271.505,0.465,87,100.0
699,E-4,271.505,0.465,87,100.0
700,E-5,272.004,0.528,92,100.0
701,E-6,272.004,0.528,92,100.0
702,C2,272.004,0.528,92,100.0
703,C3,272.004,0.528,92,100.0
704,B-4,272.533,0.466,87,100.0
705,B-5,272.533,0.466,87,100.0
706,G3,272.533,0.466,87,100.0
707,C4,273.029,0.463,89,100.0
708,C5,273.029,0.99,88,100.0
709,C6,273.029,0.99,88,100.0
710,E-4,273.522,0.468,88,100.0
711,G#4,274.021,0.468,90,100.0
712,G#5,274.021,0.468,90,100.0
713,C4,274.021,0.468,90,100.0
714,E-4,274.519,0.463,87,100.0
715,E-5,274.519,0.463,87,100.0
716,G3,274.519,0.463,87,100.0
717,C3,275.012,0.987,89,100.0
718,G#4,275.012,0.492,88,100.0
719,G#5,275.012,0.492,88,100.0
720,B-4,275.505,0.494,87,100.0
721,B-5,275.505,0.494,87,100.0
722,B-4,276.004,1.024,90,100.0
723,E-5,276.004,1.024,90,100.0
724,B-5,276.004,1.024,90,100.0
725,C#2,276.004,0.528,92,100.0
726,C#3,276.004,0.528,92,100.0
727,G#3,276.533,0.466,88,100.0
728,C#4,277.029,0.99,89,100.0
729,G#4,277.029,0.492,88,100.0
730,G#5,277.029,0.492,88,100.0
731,F4,277.522,0.995,87,100.0
732,F5,277.522,0.995,87,100.0
733,E-2,278.021,0.497,90,100.0
734,E-3,278.021,0.497,90,100.0
735,B-4,278.519,0.463,87,100.0
736,B-5,278.519,0.463,87,100.0
737,B-3,278.519,0.463,87,100.0
738,E-4,279.012,0.987,89,100.0
739,G#4,279.012,0.492,88,100.0
740,G#5,279.012,0.492,88,100.0
741,E-5,279.505,0.494,87,100.0
742,E-6,279.505,0.494,87,100.0
743,F2,280.004,0.499,93,100.0
744,C5,280.004,2.016,90,100.0
745,E-5,280.004,2.016,90,100.0
746,C6,280.004,2.016,90,100.0
747,C3,280.533,0.466,88,100.0
748,F3,281.029,0.463,89,100.0
749,G#3,281.522,0.468,88,100.0
750,G2,282.021,0.99,91,100.0
751,B-3,282.021,0.497,90,100.0
752,B-4,282.021,0.497,90,100.0
753,E-4,282.519,0.492,87,100.0
754,E-5,282.519,0.492,87,100.0
755,G3,283.012,0.987,89,100.0
756,G#4,283.012,0.492,88,100.0
757,G#5,283.012,0.492,88,100.0
758,B-4,283.505,0.494,87,100.0
759,B-5,283.505,0.494,87,100.0
760,B-4,284.004,1.024,90,100.0
761,E-5,284.004,1.024,90,100.0
762,B-5,284.004,1.024,90,100.0
763,C#1,284.004,0.528,89,100.0
764,C#2,284.004,0.528,89,100.0
765,G#2,284.533,0.466,88,100.0
766,G#4,285.029,0.463,88,100.0
767,G#5,285.029,0.463,88,100.0
768,C#3,285.029,0.463,88,100.0
769,G#3,285.522,0.468,88,100.0
770,F4,285.522,0.995,87,100.0
771,F5,285.522,0.995,87,100.0
772,C#4,286.021,0.468,91,100.0
773,G#4,286.519,0.463,87,100.0
774,G#5,286.519,0.463,87,100.0
775,E-4,286.519,0.463,87,100.0
776,B-4,287.012,0.463,88,100.0
777,B-5,287.012,0.463,88,100.0
778,F4,287.012,0.463,88,100.0
779,C5,287.505,0.465,87,100.0
780,C6,287.505,0.465,87,100.0
781,E-4,287.505,0.465,87,100.0
782,E-5,288.004,0.528,92,100.0
783,E-6,288.004,0.528,92,100.0
784,C2,288.004,0.528,92,100.0
785,C3,288.004,0.528,92,100.0
786,B-4,288.533,0.466,87,100.0
787,B-5,288.533,0.466,87,100.0
788,G3,288.533,0.466,87,100.0
789,C4,289.029,0.463,89,100.0
790,C5,289.029,0.99,88,100.0
791,C6,289.029,0.99,88,100.0
792,E-4,289.522,0.468,88,100.0
793,C4,290.021,0.468,91,100.0
794,G#4,290.021,0.99,88,100.0
795,C5,290.021,0.99,88,100.0
796,G#5,290.021,0.99,88,100.0
797,G3,290.519,0.463,88,100.0
798,G4,291.012,0.987,88,100.0
799,G5,291.012,0.987,88,100.0
800,C3,291.012,0.987,88,100.0
801,F4,291.838,0.162,85,100.0
802,B-4,291.921,0.079,85,100.0
803,F4,292.0,1.521,85,100.0
804,B-4,292.0,1.521,85,100.0
805,F5,292.004,1.518,99,100.0
806,B-1,292.004,0.528,91,100.0
807,B-2,292.004,0.528,91,100.0
808,F3,292.533,0.466,88,100.0
809,B-3,293.029,0.99,89,100.0
810,F4,293.522,0.497,87,100.0
811,F5,293.522,0.497,87,100.0
812,G4,293.854,1.156,83,100.0
813,C5,293.938,1.073,83,100.0
814,G5,294.021,0.99,97,100.0
815,E-2,294.021,0.497,90,100.0
816,E-3,294.021,0.497,90,100.0
817,B-3,294.519,0.463,88,100.0
818,E-4,295.012,0.987,89,100.0
819,G#4,295.012,0.492,88,100.0
820,G#5,295.012,0.492,88,100.0
821,G4,295.505,0.495,85,100.0
822,C5,295.505,0.495,85,100.0
823,G5,295.505,0.495,85,100.0
824,G4,296.0,0.532,85,100.0
825,C5,296.0,0.532,85,100.0
826,G5,296.0,0.532,85,100.0
827,G#1,296.004,1.024,90,100.0
828,G#2,296.004,1.024,90,100.0
829,G#4,296.533,1.486,84,100.0
830,C5,296.533,1.486,84,100.0
831,E-5,296.533,1.486,84,100.0
832,G#5,296.533,1.486,84,100.0
833,G#3,297.029,0.236,89,100.0
834,E-3,297.281,0.226,88,100.0
835,G#2,297.522,0.468,88,100.0
836,B-3,298.021,0.497,90,100.0
837,B-4,298.021,0.497,90,100.0
838,G1,298.021,0.99,88,100.0
839,G2,298.021,0.99,88,100.0
840,E-4,298.519,0.492,87,100.0
841,E-5,298.519,0.492,87,100.0
842,G3,299.012,0.987,89,100.0
843,G#4,299.012,0.492,88,100.0
844,G#5,299.012,0.492,88,100.0
845,B-4,299.505,0.494,87,100.0
846,B-5,299.505,0.494,87,100.0
847,B-4,300.004,1.024,90,100.0
848,E-5,300.004,1.024,90,100.0
849,B-5,300.004,1.024,90,100.0
850,C#1,300.004,0.528,89,100.0
851,C#2,300.004,0.528,89,100.0
852,G#2,300.533,0.466,88,100.0
853,G#4,301.029,0.463,88,100.0
854,G#5,301.029,0.463,88,100.0
855,C#3,301.029,0.463,88,100.0
856,G#3,301.522,0.468,88,100.0
857,F4,301.522,0.995,87,100.0
858,F5,301.522,0.995,87,100.0
859,C#4,302.021,0.468,91,100.0
860,G#4,302.519,0.463,87,100.0
861,G#5,302.519,0.463,87,100.0
862,E-4,302.519,0.463,87,100.0
863,B-4,303.012,0.463,88,100.0
864,B-5,303.012,0.463,88,100.0
865,F4,303.012,0.463,88,100.0
866,C5,303.505,0.465,87,100.0
867,C6,303.505,0.465,87,100.0
868,E-4,303.505,0.465,87,100.0
869,E-5,304.004,0.528,92,100.0
870,E-6,304.004,0.528,92,100.0
871,C2,304.004,0.528,92,100.0
872,C3,304.004,0.528,92,100.0
873,B-4,304.533,0.466,87,100.0
874,B-5,304.533,0.466,87,100.0
875,G3,304.533,0.466,87,100.0
876,C4,305.029,0.463,89,100.0
877,C5,305.029,0.99,88,100.0
878,C6,305.029,0.99,88,100.0
879,E-4,305.522,0.468,88,100.0
880,G#4,306.021,0.468,90,100.0
881,G#5,306.021,0.468,90,100.0
882,C4,306.021,0.468,90,100.0
883,E-4,306.519,0.463,87,100.0
884,E-5,306.519,0.463,87,100.0
885,G3,306.519,0.463,87,100.0
886,C3,307.012,0.987,89,100.0
887,G#4,307.012,0.492,88,100.0
888,G#5,307.012,0.492,88,100.0
889,B-4,307.505,0.494,87,100.0
890,B-5,307.505,0.494,87,100.0
891,B-4,308.004,1.024,90,100.0
892,E-5,308.004,1.024,90,100.0
893,B-5,308.004,1.024,90,100.0
894,B-1,308.004,0.528,91,100.0
895,B-2,308.004,0.528,91,100.0
896,F3,308.533,0.466,88,100.0
897,B-3,309.029,0.99,89,100.0
898,G#4,309.029,0.492,88,100.0
899,G#5,309.029,0.492,88,100.0
900,F4,309.522,0.995,87,100.0
901,F5,309.522,0.995,87,100.0
902,E-1,310.021,0.99,87,100.0
903,E-2,310.021,0.99,87,100.0
904,B-4,310.519,0.492,87,100.0
905,B-5,310.519,0.492,87,100.0
906,E-3,311.012,0.987,89,100.0
907,G#4,311.012,0.492,88,100.0
908,G#5,311.012,0.492,88,100.0
909,E-5,311.505,0.495,87,100.0
910,E-6,311.505,0.495,87,100.0
911,E-5,312.0,0.532,87,100.0
912,E-6,312.0,0.532,87,100.0
913,F1,312.004,1.024,90,100.0
914,F2,312.004,1.024,90,100.0
915,C5,312.533,1.486,85,100.0
916,E-5,312.533,1.486,85,100.0
917,C6,312.533,1.486,85,100.0
918,F3,313.029,0.463,89,100.0
919,C3,313.522,0.468,88,100.0
920,B-3,314.021,0.497,90,100.0
921,B-4,314.021,0.497,90,100.0
922,G1,314.021,0.99,88,100.0
923,G2,314.021,0.99,88,100.0
924,E-4,314.519,0.492,87,100.0
925,E-5,314.519,0.492,87,100.0
926,G3,315.012,0.987,89,100.0
927,G#4,315.012,0.492,88,100.0
928,G#5,315.012,0.492,88,100.0
929,B-4,315.505,0.494,87,100.0
930,B-5,315.505,0.494,87,100.0
931,B-4,316.004,1.024,90,100.0
932,E-5,316.004,1.024,90,100.0
933,B-5,316.004,1.024,90,100.0
934,C#1,316.004,0.528,89,100.0
935,C#2,316.004,0.528,89,100.0
936,G#2,316.533,0.466,88,100.0
937,G#4,317.029,0.463,88,100.0
938,G#5,317.029,0.463,88,100.0
939,C#3,317.029,0.463,88,100.0
940,G#3,317.522,0.468,88,100.0
941,F4,317.522,0.995,87,100.0
942,F5,317.522,0.995,87,100.0
943,C#4,318.021,0.468,91,100.0
944,G#4,318.519,0.463,87,100.0
945,G#5,318.519,0.463,87,100.0
946,E-4,318.519,0.463,87,100.0
947,B-4,319.012,0.463,88,100.0
948,B-5,319.012,0.463,88,100.0
949,F4,319.012,0.463,88,100.0
950,C5,319.505,0.465,87,100.0
951,C6,319.505,0.465,87,100.0
952,E-4,319.505,0.465,87,100.0
953,E-5,320.004,0.528,92,100.0
954,E-6,320.004,0.528,92,100.0
955,C2,320.004,0.528,92,100.0
956,C3,320.004,0.528,92,100.0
957,B-4,320.533,0.466,87,100.0
958,B-5,320.533,0.466,87,100.0
959,G3,320.533,0.466,87,100.0
960,C4,321.029,0.463,89,100.0
961,C5,321.029,0.99,88,100.0
962,C6,321.029,0.99,88,100.0
963,E-4,321.522,0.468,88,100.0
964,C4,322.021,0.468,91,100.0
965,G#4,322.021,0.99,88,100.0
966,C5,322.021,0.99,88,100.0
967,G#5,322.021,0.99,88,100.0
968,G3,322.519,0.463,88,100.0
969,G4,323.012,0.987,88,100.0
970,G5,323.012,0.987,88,100.0
971,C3,323.012,0.987,88,100.0
972,F4,323.838,0.162,85,100.0
973,B-4,323.921,0.079,85,100.0
974,F4,324.0,1.521,85,100.0
975,B-4,324.0,1.521,85,100.0
976,F5,324.004,1.518,99,100.0
977,B-1,324.004,0.528,91,100.0
978,B-2,324.004,0.528,91,100.0
979,F3,324.533,0.466,88,100.0
980,B-3,325.029,0.99,89,100.0
981,F4,325.522,0.497,87,100.0
982,F5,325.522,0.497,87,100.0
983,G4,325.854,1.156,83,100.0
984,C5,325.938,1.073,83,100.0
985,G5,326.021,0.99,97,100.0
986,E-2,326.021,0.497,90,100.0
987,E-3,326.021,0.497,90,100.0
988,B-3,326.519,0.463,88,100.0
989,E-4,327.012,0.987,89,100.0
990,G#4,327.012,0.492,88,100.0
991,G#5,327.012,0.492,88,100.0
992,G4,327.505,0.495,85,100.0
993,C5,327.505,0.495,85,100.0
994,G5,327.505,0.495,85,100.0
995,G4,328.0,0.532,85,100.0
996,C5,328.0,0.532,85,100.0
997,G5,328.0,0.532,85,100.0
998,G#1,328.004,1.024,90,100.0
999,G#2,328.004,1.024,90,100.0
1000,G#4,328.533,1.486,84,100.0
1001,C5,328.533,1.486,84,100.0
1002,E-5,328.533,1.486,84,100.0
1003,G#5,328.533,1.486,84,100.0
1004,G#3,329.029,0.463,89,100.0
1005,E-3,329.522,0.468,88,100.0
1006,B3,330.021,0.497,90,100.0
1007,B4,330.021,0.497,90,100.0
1008,F#1,330.021,0.99,88,100.0
1009,F#2,330.021,0.99,88,100.0
1010,E4,330.519,0.492,87,100.0
1011,E5,330.519,0.492,87,100.0
1012,A4,331.012,0.492,88,100.0
1013,A5,331.012,0.492,88,100.0
1014,C#3,331.012,0.987,88,100.0
1015,F#3,331.012,0.987,88,100.0
1016,B4,331.505,0.494,87,100.0
1017,B5,331.505,0.494,87,100.0
1018,B4,332.004,1.024,90,100.0
1019,E5,332.004,1.024,90,100.0
1020,B5,332.004,1.024,90,100.0
1021,D1,332.004,0.528,88,100.0
1022,A1,332.004,0.528,88,100.0
1023,D2,332.533,0.466,87,100.0
1024,A4,333.029,0.463,88,100.0
1025,A5,333.029,0.463,88,100.0
1026,F#2,333.029,0.463,88,100.0
1027,A2,333.522,0.468,88,100.0
1028,F#4,333.522,0.995,87,100.0
1029,F#5,333.522,0.995,87,100.0
1030,D3,334.021,0.468,91,100.0
1031,A4,334.519,0.463,87,100.0
1032,A5,334.519,0.463,87,100.0
1033,F#3,334.519,0.463,87,100.0
1034,B4,335.012,0.463,88,100.0
1035,B5,335.012,0.463,88,100.0
1036,A3,335.012,0.463,88,100.0
1037,C#5,335.505,0.465,87,100.0
1038,C#6,335.505,0.465,87,100.0
1039,D4,335.505,0.465,87,100.0
1040,E5,336.004,0.528,90,100.0
1041,E6,336.004,0.528,90,100.0
1042,C#1,336.004,0.528,90,100.0
1043,C#2,336.004,0.528,90,100.0
1044,B4,336.533,0.466,87,100.0
1045,B5,336.533,0.466,87,100.0
1046,G#2,336.533,0.466,87,100.0
1047,C#3,337.029,0.463,89,100.0
1048,C#5,337.029,0.99,88,100.0
1049,C#6,337.029,0.99,88,100.0
1050,G#3,337.522,0.468,88,100.0
1051,C#4,338.021,0.99,91,100.0
1052,A4,338.021,0.497,90,100.0
1053,A5,338.021,0.497,90,100.0
1054,E4,338.519,0.492,87,100.0
1055,E5,338.519,0.492,87,100.0
1056,G#3,339.012,0.987,89,100.0
1057,A4,339.012,0.492,88,100.0
1058,A5,339.012,0.492,88,100.0
1059,B4,339.505,0.494,87,100.0
1060,B5,339.505,0.494,87,100.0
1061,D2,340.004,0.499,92,100.0
1062,B4,340.004,1.024,90,100.0
1063,E5,340.004,1.024,90,100.0
1064,B5,340.004,1.024,90,100.0
1065,A2,340.533,0.466,88,100.0
1066,D3,341.029,0.99,89,100.0
1067,A4,341.029,0.492,88,100.0
1068,A5,341.029,0.492,88,100.0
1069,F#4,341.522,0.995,87,100.0
1070,F#5,341.522,0.995,87,100.0
1071,E2,342.021,0.99,90,100.0
1072,B4,342.519,0.492,87,100.0
1073,B5,342.519,0.492,87,100.0
1074,E3,343.012,0.987,89,100.0
1075,A4,343.012,0.492,88,100.0
1076,A5,343.012,0.492,88,100.0
1077,E5,343.505,0.494,87,100.0
1078,E6,343.505,0.494,87,100.0
1079,F#2,344.004,0.499,93,100.0
1080,C#5,344.004,2.016,92,100.0
1081,C#6,344.004,2.016,92,100.0
1082,C#3,344.533,0.466,88,100.0
1083,F#3,345.029,0.463,89,100.0
1084,C#3,345.522,0.468,88,100.0
1085,G#2,346.021,0.99,91,100.0
1086,B3,346.021,0.497,90,100.0
1087,B4,346.021,0.497,90,100.0
1088,E4,346.519,0.492,87,100.0
1089,E5,346.519,0.492,87,100.0
1090,G#3,347.012,0.987,89,100.0
1091,A4,347.012,0.492,88,100.0
1092,A5,347.012,0.492,88,100.0
1093,B4,347.505,0.494,87,100.0
1094,B5,347.505,0.494,87,100.0
1095,D2,348.004,0.499,92,100.0
1096,B4,348.004,1.024,90,100.0
1097,E5,348.004,1.024,90,100.0
1098,B5,348.004,1.024,90,100.0
1099,A2,348.533,0.466,88,100.0
1100,A4,349.029,0.463,88,100.0
1101,A5,349.029,0.463,88,100.0
1102,D3,349.029,0.463,88,100.0
1103,F#3,349.522,0.468,88,100.0
1104,F#4,349.522,0.995,87,100.0
1105,F#5,349.522,0.995,87,100.0
1106,A3,350.021,0.468,91,100.0
1107,A4,350.519,0.463,87,100.0
1108,A5,350.519,0.463,87,100.0
1109,D4,350.519,0.463,87,100.0
1110,B4,351.012,0.463,88,100.0
1111,B5,351.012,0.463,88,100.0
1112,A3,351.012,0.463,88,100.0
1113,C#5,351.505,0.465,87,100.0
1114,C#6,351.505,0.465,87,100.0
1115,F#3,351.505,0.465,87,100.0
1116,E5,352.004,0.528,90,100.0
1117,E6,352.004,0.528,90,100.0
1118,C#1,352.004,0.528,90,100.0
1119,C#2,352.004,0.528,90,100.0
1120,B4,352.533,0.466,87,100.0
1121,B5,352.533,0.466,87,100.0
1122,G#2,352.533,0.466,87,100.0
1123,C#3,353.029,0.463,89,100.0
1124,C#5,353.029,0.99,88,100.0
1125,C#6,353.029,0.99,88,100.0
1126,G#3,353.522,0.468,88,100.0
1127,C#4,354.021,0.468,91,100.0
1128,A4,354.021,0.99,88,100.0
1129,E5,354.021,0.99,88,100.0
1130,A5,354.021,0.99,88,100.0
1131,E4,354.519,0.463,88,100.0
1132,G#4,355.012,0.987,88,100.0
1133,G#5,355.012,0.987,88,100.0
1134,C#4,355.012,0.987,88,100.0
1135,D2,356.004,0.499,92,100.0
1136,F#4,356.004,1.518,85,100.0
1137,A4,356.004,1.518,85,100.0
1138,F#5,356.004,1.518,85,100.0
1139,A2,356.533,0.466,87,100.0
1140,D3,357.029,0.99,85,100.0
1141,F#4,357.522,0.497,80,100.0
1142,F#5,357.522,0.497,80,100.0
1143,E2,358.021,0.468,79,100.0
1144,G#4,358.021,0.99,78,100.0
1145,G#5,358.021,0.99,78,100.0
1146,B2,358.519,0.463,78,100.0
1147,E3,359.012,0.987,76,100.0
1148,A4,359.012,0.492,73,100.0
1149,A5,359.012,0.492,73,100.0
1150,G#4,359.505,0.495,71,100.0
1151,G#5,359.505,0.495,71,100.0
1152,G#4,360.0,0.532,71,100.0
1153,G#5,360.0,0.532,71,100.0
1154,F#2,360.004,1.024,71,100.0
1155,A4,360.533,1.361,64,100.0
1156,E5,360.533,1.361,64,100.0
1157,A5,360.533,1.361,64,100.0
1158,F#3,361.029,0.463,67,100.0
1159,C#3,361.522,0.468,65,100.0
1160,B4,362.021,0.468,65,100.0
1161,E2,362.021,0.99,64,100.0
1162,E5,362.519,0.463,62,100.0
1163,A5,363.012,0.463,63,100.0
1164,E3,363.012,0.987,63,100.0
1165,B5,363.505,0.494,62,100.0
1166,D2,364.004,0.499,66,100.0
1167,B4,364.004,1.024,64,100.0
1168,E5,364.004,1.024,64,100.0
1169,B5,364.004,1.024,64,100.0
1170,A2,364.533,0.466,62,100.0
1171,A5,365.029,0.463,63,100.0
1172,D3,365.029,0.463,63,100.0
1173,F#5,365.522,0.966,62,100.0
1174,F#3,365.522,0.468,62,100.0
1175,A3,366.021,0.468,65,100.0
1176,A5,366.519,0.463,62,100.0
1177,D4,366.519,0.463,62,100.0
1178,B5,367.012,0.463,63,100.0
1179,A3,367.012,0.463,63,100.0
1180,C#6,367.505,0.465,62,100.0
1181,F#3,367.505,0.465,62,100.0
1182,E6,368.004,0.499,67,100.0
1183,C#3,368.004,0.499,67,100.0
1184,B5,368.533,0.466,62,100.0
1185,G#3,368.533,0.466,62,100.0
1186,C#6,369.029,0.99,63,100.0
1187,C#4,369.029,0.463,63,100.0
1188,G#3,369.522,0.468,62,100.0
1189,A5,370.021,0.468,65,100.0
1190,E4,370.021,0.468,65,100.0
1191,E5,370.519,0.463,62,100.0
1192,G#3,370.519,0.463,62,100.0
1193,A5,371.012,0.463,63,100.0
1194,C#4,371.012,0.987,63,100.0
1195,B5,371.505,0.494,62,100.0
1196,B5,372.004,1.024,67,100.0
1197,D3,372.004,0.499,67,100.0
1198,A3,372.533,0.466,62,100.0
1199,A5,373.029,0.463,63,100.0
1200,D4,373.029,0.99,63,100.0
1201,F#5,373.522,0.995,62,100.0
1202,E3,374.021,0.468,65,100.0
1203,B5,374.519,0.463,62,100.0
1204,B3,374.519,0.463,62,100.0
1205,A5,375.012,0.463,63,100.0
1206,E4,375.012,0.987,63,100.0
1207,E6,375.505,0.465,62,100.0
1208,C#6,376.004,2.016,67,100.0
1209,F#3,376.004,0.499,67,100.0
1210,C#4,376.533,0.466,62,100.0
1211,F#4,377.029,0.463,63,100.0
1212,C#4,377.522,0.468,62,100.0
1213,B4,378.021,0.468,65,100.0
1214,G#3,378.021,0.468,65,100.0
1215,E5,378.519,0.463,62,100.0
1216,D4,378.519,0.463,62,100.0
1217,A5,379.012,0.463,63,100.0
1218,G#4,379.012,0.987,63,100.0
1219,B5,379.505,0.494,62,100.0
1220,B5,380.004,1.024,67,100.0
1221,D3,380.004,0.499,67,100.0
1222,A3,380.533,1.486,62,100.0
1223,A5,381.029,0.463,63,100.0
1224,F#5,381.522,0.966,62,100.0
1225,D4,382.021,0.99,65,100.0
1226,A5,382.519,0.463,62,100.0
1227,B5,383.012,0.463,63,100.0
1228,A3,383.012,0.987,63,100.0
1229,C#6,383.505,0.465,62,100.0
1230,E6,384.004,0.499,67,100.0
1231,C#3,384.004,0.499,67,100.0
1232,B5,384.533,0.466,62,100.0
1233,G#3,384.533,0.466,62,100.0
1234,C#6,385.029,0.99,63,100.0
1235,C#4,385.029,0.463,63,100.0
1236,G#3,385.522,0.468,62,100.0
1237,A5,386.021,0.99,65,100.0
1238,E4,386.021,0.468,65,100.0
1239,G#3,386.519,0.463,62,100.0
1240,G#5,387.012,0.987,63,100.0
1241,C#4,387.012,0.987,63,100.0
1242,B4,387.838,0.162,59,100.0
1243,E5,387.921,0.079,59,100.0
1244,B4,388.0,1.521,59,100.0
1245,E5,388.0,1.521,59,100.0
1246,F#5,388.004,1.518,73,100.0
1247,D3,388.004,0.499,67,100.0
1248,A3,388.533,0.466,62,100.0
1249,D4,389.029,0.99,63,100.0
1250,F#5,389.522,0.468,62,100.0
1251,E3,390.021,0.468,65,100.0
1252,B4,390.021,0.99,64,100.0
1253,G#5,390.021,0.99,64,100.0
1254,B3,390.519,0.463,62,100.0
1255,A5,391.012,0.463,63,100.0
1256,E4,391.012,0.987,63,100.0
1257,G#5,391.505,0.495,62,100.0
1258,G#5,392.0,0.503,62,100.0
1259,A2,392.004,0.499,67,100.0
1260,E3,392.533,0.466,62,100.0
1261,C#5,392.533,1.984,61,100.0
1262,A5,392.533,1.984,61,100.0
1263,A3,393.029,0.463,63,100.0
1264,B3,393.522,0.468,62,100.0
1265,E4,394.021,0.468,65,100.0
1266,A4,394.519,0.463,62,100.0
1267,B4,395.012,0.463,63,100.0
1268,C#5,395.505,0.465,62,100.0
1269,A3,395.838,0.162,54,100.0
1270,A4,395.879,0.121,59,100.0
1271,B3,395.921,0.079,54,100.0
1272,A3,396.0,7.999,54,100.0
1273,A4,396.0,2.02,59,100.0
1274,B3,396.0,7.999,54,100.0
1275,B4,396.004,2.016,73,100.0
1276,E4,396.004,3.996,64,100.0
1277,E5,398.0,0.123,65,100.0
1278,B4,398.11,1.89,57,100.0
1279,B4,403.999,3.011,57,100.0
1280,E4,403.999,3.999,64,100.0
1281,E5,407.011,0.987,63,100.0
1282,F5,408.003,0.499,67,100.0
1283,C#4,408.003,2.016,67,100.0
1284,E-5,408.532,0.466,62,100.0
1285,G#5,409.028,0.99,63,100.0
1286,F4,409.854,2.145,57,100.0
1287,G#4,409.937,2.062,57,100.0
1288,G#5,410.02,0.99,65,100.0
1289,C#5,410.02,1.979,71,100.0
1290,B-5,411.011,0.987,63,100.0
1291,B-5,412.003,1.024,67,100.0
1292,C4,412.003,2.016,67,100.0
1293,C6,413.028,0.99,63,100.0
1294,F4,413.854,2.145,57,100.0
1295,G#4,413.937,2.062,57,100.0
1296,G#5,414.02,0.99,65,100.0
1297,C5,414.02,1.979,71,100.0
1298,E-5,415.011,0.987,63,100.0
1299,F5,416.003,0.499,67,100.0
1300,C#4,416.003,2.016,67,100.0
1301,E-5,416.532,0.466,62,100.0
1302,G#5,417.028,0.99,63,100.0
1303,F4,417.854,2.145,57,100.0
1304,G#4,417.937,2.062,57,100.0
1305,G#5,418.02,0.99,65,100.0
1306,C#5,418.02,1.979,71,100.0
1307,B-5,419.011,0.987,63,100.0
1308,B-5,420.003,1.024,67,100.0
1309,C4,420.003,2.016,67,100.0
1310,C6,421.028,0.99,63,100.0
1311,B-5,422.02,1.979,65,100.0
1312,B-4,422.02,1.979,65,100.0
1313,F5,424.003,0.499,67,100.0
1314,C#4,424.003,2.016,67,100.0
1315,E-5,424.532,0.466,62,100.0
1316,G#5,425.028,0.99,63,100.0
1317,F4,425.854,2.145,57,100.0
1318,G#4,425.937,2.062,57,100.0
1319,G#5,426.02,0.99,65,100.0
1320,C#5,426.02,1.979,71,100.0
1321,B-5,427.011,0.987,63,100.0
1322,B-5,428.003,1.024,67,100.0
1323,C4,428.003,2.016,67,100.0
1324,C6,429.028,0.99,63,100.0
1325,F4,429.854,2.145,57,100.0
1326,G#4,429.937,2.062,57,100.0
1327,G#5,430.02,0.99,65,100.0
1328,C5,430.02,1.979,71,100.0
1329,E-5,431.011,0.987,63,100.0
1330,F5,432.003,0.499,67,100.0
1331,C#4,432.003,2.016,67,100.0
1332,E-5,432.532,0.466,62,100.0
1333,G#5,433.028,0.99,63,100.0
1334,F4,433.854,2.145,57,100.0
1335,G#4,433.937,2.062,57,100.0
1336,G#5,434.02,0.99,65,100.0
1337,C5,434.02,1.979,71,100.0
1338,B-5,435.011,0.987,63,100.0
1339,G#5,436.003,3.995,62,100.0
1340,G#4,436.003,2.016,67,100.0
1341,G4,438.02,1.979,65,100.0
1342,F5,440.003,0.499,67,100.0
1343,C#4,440.003,1.518,67,100.0
1344,E-5,440.532,0.466,62,100.0
1345,G#5,441.028,0.99,63,100.0
1346,G#4,441.521,0.468,62,100.0
1347,G#5,442.02,0.99,65,100.0
1348,C#5,442.02,1.979,65,100.0
1349,B-5,443.011,0.987,63,100.0
1350,B-5,444.003,1.024,67,100.0
1351,C4,444.003,1.518,67,100.0
1352,C6,445.028,0.99,63,100.0
1353,G#4,445.521,0.468,62,100.0
1354,G#5,446.02,0.99,65,100.0
1355,C5,446.02,1.979,65,100.0
1356,E-5,447.011,0.987,63,100.0
1357,F5,448.003,0.499,67,100.0
1358,C#4,448.003,1.518,67,100.0
1359,E-5,448.532,0.466,62,100.0
1360,G#5,449.028,0.99,63,100.0
1361,G#4,449.521,0.468,62,100.0
1362,G#5,450.02,0.99,65,100.0
1363,C#5,450.02,1.979,65,100.0
1364,B-5,451.011,0.987,63,100.0
1365,B-5,452.003,1.024,67,100.0
1366,C4,452.003,2.016,67,100.0
1367,C6,453.028,0.492,63,100.0
1368,C6,453.521,0.468,62,100.0
1369,G#5,454.02,0.99,65,100.0
1370,G#4,454.02,0.99,65,100.0
1371,G5,455.011,0.987,63,100.0
1372,C5,455.011,0.987,63,100.0
1373,G#5,455.749,0.125,62,100.0
1374,G5,455.874,0.125,62,100.0
1375,F5,456.003,0.499,67,100.0
1376,C#4,456.003,1.518,67,100.0
1377,E-5,456.532,0.466,62,100.0
1378,G#5,457.028,0.99,63,100.0
1379,G#4,457.521,0.468,62,100.0
1380,G#5,458.02,0.99,65,100.0
1381,C#5,458.02,1.979,65,100.0
1382,B-5,459.011,0.987,63,100.0
1383,B-5,460.003,1.024,67,100.0
1384,C4,460.003,1.518,67,100.0
1385,C6,461.028,0.99,63,100.0
1386,G#4,461.521,0.468,62,100.0
1387,G#5,462.02,0.99,65,100.0
1388,C5,462.02,1.979,65,100.0
1389,E-5,463.011,0.987,63,100.0
1390,F5,464.003,0.499,67,100.0
1391,C#4,464.003,1.518,67,100.0
1392,E-5,464.532,0.466,62,100.0
1393,G#5,465.028,0.99,63,100.0
1394,G#4,465.521,0.468,62,100.0
1395,G#5,466.02,0.99,65,100.0
1396,C#5,466.02,1.979,65,100.0
1397,B-5,467.011,0.987,63,100.0
1398,G#5,468.003,3.995,62,100.0
1399,G#4,468.003,2.016,67,100.0
1400,G4,470.02,1.979,65,100.0
1401,F5,471.815,0.184,59,100.0
1402,C#4,471.837,0.162,59,100.0
1403,G#5,471.878,0.121,59,100.0
1404,G#4,471.92,0.079,59,100.0
1405,C6,471.94,0.059,59,100.0
1406,F5,471.999,0.503,59,100.0
1407,C#4,471.999,2.02,59,100.0
1408,G#5,471.999,0.503,59,100.0
1409,G#4,471.999,2.02,59,100.0
1410,C6,471.999,0.532,59,100.0
1411,F6,472.003,0.528,73,100.0
1412,C#5,472.003,2.016,73,100.0
1413,E-6,472.532,0.466,62,100.0
1414,G#6,473.028,0.99,63,100.0
1415,G#6,474.02,0.99,65,100.0
1416,B-6,475.011,0.492,63,100.0
1417,B-6,475.504,0.465,62,100.0
1418,G#4,476.003,0.499,67,100.0
1419,C5,476.532,0.466,62,100.0
1420,E-5,477.028,0.463,63,100.0
1421,G#5,477.521,0.468,62,100.0
1422,B-5,478.02,0.468,65,100.0
1423,C6,478.518,0.463,62,100.0
1424,E-6,479.011,0.987,63,100.0
1425,C6,479.837,0.162,54,100.0
1426,E-6,479.92,0.079,54,100.0
1427,C6,479.999,3.999,54,100.0
1428,E-6,479.999,3.999,54,100.0
1429,G#6,480.003,3.995,68,100.0
