,note_name,start_time,duration,velocity,tempo
0,D5,0.01,0.238,52,72.0
1,E5,0.264,0.221,49,72.0
2,F#5,0.504,2.013,49,72.0
3,G2,0.504,0.557,42,72.0
4,D3,1.031,0.523,37,72.0
5,G3,1.525,0.526,38,72.0
6,A3,2.022,0.524,37,72.0
7,E5,2.518,0.119,52,72.0
8,D4,2.518,0.519,40,72.0
9,F#5,2.645,0.114,49,72.0
10,E5,2.767,0.112,49,72.0
11,D5,2.887,0.583,49,72.0
12,E5,3.504,2.013,49,72.0
13,A2,3.504,0.557,42,72.0
14,E3,4.031,0.523,37,72.0
15,A3,4.525,0.526,38,72.0
16,D4,5.022,0.524,37,72.0
17,D5,5.518,0.119,52,72.0
18,E5,5.645,0.114,49,72.0
19,D5,5.767,0.112,49,72.0
20,C#5,5.887,0.583,49,72.0
21,B2,6.504,0.497,54,72.0
22,D4,6.504,1.518,53,72.0
23,A4,6.504,1.518,53,72.0
24,F#3,7.031,0.464,49,72.0
25,B3,7.525,0.467,50,72.0
26,D4,8.022,0.465,49,72.0
27,A4,8.518,0.459,52,72.0
28,D5,9.007,0.463,49,72.0
29,C#5,9.504,0.497,54,72.0
30,F#2,9.504,0.497,54,72.0
31,A4,10.031,0.464,49,72.0
32,C#3,10.031,0.464,49,72.0
33,E4,10.525,0.467,50,72.0
34,F#3,10.525,0.991,50,72.0
35,D4,11.022,0.465,49,72.0
36,C#4,11.518,0.459,52,72.0
37,F#3,11.518,0.981,52,72.0
38,B4,12.007,0.225,49,72.0
39,C#5,12.247,0.237,49,72.0
40,D5,12.504,2.013,49,72.0
41,G2,12.504,0.497,54,72.0
42,D3,13.031,0.464,49,72.0
43,G3,13.525,0.467,50,72.0
44,A3,14.022,0.465,49,72.0
45,D4,14.518,0.981,52,72.0
46,C#5,15.007,0.225,49,72.0
47,D5,15.247,0.237,49,72.0
48,E5,15.504,2.996,49,72.0
49,A2,15.504,2.995,49,72.0
50,E5,18.5,5.999,49,72.0
51,C#4,18.504,2.995,41,72.0
52,A2,18.504,2.996,44,72.0
53,E3,18.504,2.996,44,72.0
54,A3,18.504,2.996,44,72.0
55,A2,24.499,2.999,44,72.0
56,E3,24.499,2.999,44,72.0
57,A3,24.499,2.999,44,72.0
58,D3,27.503,0.557,42,72.0
59,A4,27.503,2.995,48,72.0
60,D5,27.503,2.995,48,72.0
61,A2,28.03,0.523,37,72.0
62,D3,28.524,0.526,38,72.0
63,A3,29.021,0.524,37,72.0
64,D4,29.517,0.519,40,72.0
65,A4,30.006,0.493,37,72.0
66,A4,30.499,0.029,37,72.0
67,G2,30.503,0.557,42,72.0
68,D5,30.503,2.995,48,72.0
69,A5,30.503,2.995,48,72.0
70,D3,31.03,0.523,37,72.0
71,A3,31.524,0.526,38,72.0
72,G3,32.021,0.524,37,72.0
73,D4,32.517,0.519,40,72.0
74,A4,33.006,0.493,37,72.0
75,A4,33.499,0.029,37,72.0
76,A2,33.503,0.557,42,72.0
77,A4,33.503,1.518,53,72.0
78,C#5,33.503,1.518,53,72.0
79,E3,34.03,0.523,37,72.0
80,A3,34.524,0.991,50,72.0
81,D5,35.021,0.465,49,72.0
82,C#5,35.517,0.459,52,72.0
83,B-2,35.517,0.981,52,72.0
84,B4,36.006,0.463,49,72.0
85,A4,36.503,2.013,49,72.0
86,B2,36.503,0.497,54,72.0
87,F#3,37.03,0.464,49,72.0
88,B3,37.524,0.467,50,72.0
89,D4,38.021,0.465,49,72.0
90,A4,38.517,0.981,52,72.0
91,D4,39.503,2.473,41,72.0
92,F#4,39.503,2.995,55,72.0
93,G2,39.503,0.497,54,72.0
94,D3,40.03,0.464,49,72.0
95,G3,40.524,0.467,50,72.0
96,A3,41.021,0.465,49,72.0
97,D4,41.517,0.981,52,72.0
98,G4,42.006,0.463,49,72.0
99,A4,42.503,0.497,54,72.0
100,G4,43.03,0.464,49,72.0
101,D4,43.524,0.467,50,72.0
102,A3,44.021,0.465,49,72.0
103,G3,44.517,0.459,52,72.0
104,D3,45.006,0.463,49,72.0
105,G1,45.503,2.996,46,72.0
106,G1,48.499,2.999,46,72.0
107,D2,51.503,0.497,53,72.0
108,F#4,51.503,2.013,46,72.0
109,A4,51.503,2.013,46,72.0
110,D5,51.503,2.013,46,72.0
111,A3,52.03,0.464,49,72.0
112,A4,52.524,1.974,49,72.0
113,D5,54.006,0.463,49,72.0
114,G2,54.503,0.497,54,72.0
115,A4,54.503,2.995,48,72.0
116,A5,54.503,2.995,48,72.0
117,A3,55.03,0.464,49,72.0
118,D4,55.524,1.974,49,72.0
119,A2,57.503,0.497,54,72.0
120,A4,57.503,1.518,53,72.0
121,C#5,57.503,1.518,53,72.0
122,A3,58.03,0.464,49,72.0
123,A4,58.524,1.974,49,72.0
124,D5,59.021,0.465,49,72.0
125,C#5,59.517,0.459,52,72.0
126,B4,60.006,0.463,49,72.0
127,A4,60.503,2.995,49,72.0
128,B2,60.503,0.497,54,72.0
129,A3,61.03,0.464,49,72.0
130,D4,61.524,1.974,49,72.0
131,G2,63.503,0.497,54,72.0
132,A4,63.503,2.013,46,72.0
133,E5,63.503,2.013,46,72.0
134,G3,64.03,0.464,49,72.0
135,A4,64.524,1.974,49,72.0
136,A4,65.517,0.981,51,72.0
137,E5,65.517,0.981,51,72.0
138,A2,66.503,0.497,54,72.0
139,A4,66.503,2.013,48,72.0
140,F#5,66.503,2.013,48,72.0
141,A3,67.03,0.464,49,72.0
142,A4,67.524,1.974,49,72.0
143,F#5,68.517,0.488,40,72.0
144,F#5,69.006,0.493,37,72.0
145,F#5,69.499,0.029,37,72.0
146,B2,69.503,0.497,54,72.0
147,A4,69.503,1.518,53,72.0
148,E5,69.503,1.518,53,72.0
149,F#3,70.03,0.464,49,72.0
150,A4,70.524,1.974,49,72.0
151,F#5,71.021,0.465,49,72.0
152,E5,71.517,0.459,52,72.0
153,D5,72.006,0.463,49,72.0
154,D6,72.503,0.497,54,72.0
155,F#2,72.503,0.497,54,72.0
156,C#6,73.03,0.464,49,72.0
157,C#3,73.03,0.464,49,72.0
158,A5,73.524,0.467,50,72.0
159,F#3,73.524,1.974,49,72.0
160,E5,74.021,0.465,49,72.0
161,D5,74.517,0.459,52,72.0
162,C#5,75.006,0.463,49,72.0
163,A4,75.337,0.162,41,72.0
164,B4,75.42,0.079,41,72.0
165,A4,75.499,2.017,41,72.0
166,B4,75.499,2.017,41,72.0
167,E5,75.503,2.013,55,72.0
168,G2,75.503,0.497,54,72.0
169,D3,76.03,0.464,49,72.0
170,G3,76.524,0.467,50,72.0
171,B3,77.021,1.477,49,72.0
172,E5,77.517,0.459,52,72.0
173,F#5,78.006,0.463,49,72.0
174,A4,78.503,2.013,48,72.0
175,D5,78.503,2.013,48,72.0
176,A2,78.503,2.013,48,72.0
177,B-2,80.517,0.981,52,72.0
178,F#4,80.517,0.488,39,72.0
179,B4,80.517,0.488,39,72.0
180,F#4,81.006,0.492,36,72.0
181,B4,81.006,0.492,36,72.0
182,F#4,81.337,0.162,46,72.0
183,B4,81.42,0.079,46,72.0
184,F#4,81.499,1.521,46,72.0
185,B4,81.499,1.521,46,72.0
186,D5,81.503,1.518,60,72.0
187,B2,81.503,0.497,54,72.0
188,F#3,82.03,0.464,49,72.0
189,B3,82.524,0.991,50,72.0
190,D5,83.021,0.494,49,72.0
191,D5,83.517,0.459,52,72.0
192,F#3,83.517,0.981,52,72.0
193,A5,84.006,0.463,49,72.0
194,F#5,84.503,2.013,49,72.0
195,F#2,84.503,2.995,48,72.0
196,A3,84.503,2.995,48,72.0
197,B4,86.517,0.459,52,72.0
198,D5,87.006,0.463,49,72.0
199,F#4,87.337,0.162,41,72.0
200,B4,87.42,0.079,41,72.0
201,F#4,87.499,2.017,41,72.0
202,B4,87.499,2.017,41,72.0
203,E5,87.503,2.013,55,72.0
204,G2,87.503,1.518,54,72.0
205,D3,89.021,0.465,49,72.0
206,F#5,89.517,0.981,52,72.0
207,G3,89.517,0.981,52,72.0
208,C#6,90.503,0.497,54,72.0
209,B-2,90.503,2.013,49,72.0
210,B-5,91.03,0.464,49,72.0
211,G5,91.524,0.467,50,72.0
212,E5,92.021,0.465,49,72.0
213,D5,92.517,0.981,52,72.0
214,B-3,92.517,0.981,52,72.0
215,A4,93.503,2.013,48,72.0
216,F#5,93.503,2.013,48,72.0
217,B2,93.503,2.013,48,72.0
218,F#3,95.517,0.981,52,72.0
219,D4,96.503,1.518,53,72.0
220,E4,96.503,1.518,53,72.0
221,D2,96.503,2.013,48,72.0
222,D3,96.503,2.013,48,72.0
223,D4,98.021,0.494,48,72.0
224,F#4,98.021,0.494,48,72.0
225,F#3,98.517,0.981,78,72.0
226,D4,98.517,0.488,77,72.0
227,D5,98.517,0.488,77,72.0
228,E4,99.006,0.492,74,72.0
229,E5,99.006,0.492,74,72.0
230,F#4,99.503,1.518,79,72.0
231,F#5,99.503,1.518,79,72.0
232,G1,99.503,0.526,78,72.0
233,G2,99.503,0.526,78,72.0
234,D3,100.03,0.464,75,72.0
235,G3,100.524,0.467,76,72.0
236,E4,101.021,0.465,74,72.0
237,E5,101.021,0.465,74,72.0
238,B3,101.021,0.465,74,72.0
239,D3,101.517,0.981,78,72.0
240,F#4,101.517,0.488,77,72.0
241,F#5,101.517,0.488,77,72.0
242,B4,102.006,0.492,74,72.0
243,B5,102.006,0.492,74,72.0
244,A4,102.503,0.557,74,72.0
245,A5,102.503,0.557,74,72.0
246,A1,102.503,0.557,74,72.0
247,E4,103.03,0.523,70,72.0
248,E5,103.03,0.523,70,72.0
249,C#3,103.03,0.523,70,72.0
250,E3,103.524,0.526,64,72.0
251,E4,103.524,1.974,74,72.0
252,E5,103.524,1.974,74,72.0
253,G3,104.021,0.524,63,72.0
254,C#4,104.517,0.519,66,72.0
255,G3,105.006,0.493,63,72.0
256,G3,105.499,0.029,63,72.0
257,B1,105.503,0.557,66,72.0
258,D4,105.503,1.518,77,72.0
259,G4,105.503,1.518,77,72.0
260,D5,105.503,1.518,77,72.0
261,F#3,106.03,0.523,63,72.0
262,B3,106.524,0.526,64,72.0
263,C#4,107.021,0.524,70,72.0
264,C#5,107.021,0.524,70,72.0
265,F#3,107.021,0.524,70,72.0
266,B2,107.517,0.981,78,72.0
267,D4,107.517,0.488,77,72.0
268,D5,107.517,0.488,77,72.0
269,G4,108.006,0.492,74,72.0
270,G5,108.006,0.492,74,72.0
271,F#4,108.503,0.557,74,72.0
272,F#5,108.503,0.557,74,72.0
273,A1,108.503,0.557,74,72.0
274,C#4,109.03,0.523,70,72.0
275,C#5,109.03,0.523,70,72.0
276,C#3,109.03,0.523,70,72.0
277,C#4,109.524,1.511,67,72.0
278,C#5,109.524,1.974,81,72.0
279,E3,109.524,0.526,64,72.0
280,A3,110.021,0.524,63,72.0
281,C#4,110.517,0.981,66,72.0
282,A3,111.006,0.493,63,72.0
283,A3,111.499,0.029,63,72.0
284,G1,111.503,0.557,65,72.0
285,D4,111.503,1.518,77,72.0
286,G4,111.503,1.518,77,72.0
287,D5,111.503,1.518,77,72.0
288,D3,112.03,0.523,63,72.0
289,G3,112.524,0.526,64,72.0
290,A4,113.021,0.524,70,72.0
291,D5,113.021,0.524,70,72.0
292,B3,113.021,0.524,70,72.0
293,A4,113.517,0.519,73,72.0
294,C#5,113.517,0.519,73,72.0
295,D3,113.517,0.519,73,72.0
296,B4,114.006,0.493,69,72.0
297,G2,114.006,0.493,69,72.0
298,B4,114.499,0.029,69,72.0
299,G2,114.499,0.029,69,72.0
300,A1,114.503,0.557,65,72.0
301,A4,114.503,2.013,74,72.0
302,C#5,114.503,2.013,74,72.0
303,E2,115.03,0.523,62,72.0
304,G2,115.524,0.526,64,72.0
305,C#3,116.021,0.524,63,72.0
306,E3,116.517,0.981,78,72.0
307,D4,116.517,0.488,77,72.0
308,D5,116.517,0.488,77,72.0
309,E4,117.006,0.492,74,72.0
310,E5,117.006,0.492,74,72.0
311,D2,117.503,0.497,79,72.0
312,F#4,117.503,1.021,79,72.0
313,F#5,117.503,1.021,79,72.0
314,F#3,118.03,0.464,75,72.0
315,F#4,118.524,0.991,76,72.0
316,G3,118.524,0.991,76,72.0
317,G4,119.517,0.488,77,72.0
318,E2,119.517,0.488,77,72.0
319,E3,119.517,0.488,77,72.0
320,F#4,120.006,0.492,74,72.0
321,D2,120.006,0.492,74,72.0
322,D3,120.006,0.492,74,72.0
323,E4,120.503,1.518,79,72.0
324,C#2,120.503,1.518,79,72.0
325,C#3,120.503,1.518,79,72.0
326,A4,122.021,1.447,74,72.0
327,A1,122.021,1.447,74,72.0
328,G1,123.503,2.996,72,72.0
329,D5,123.503,1.518,79,72.0
330,F#5,123.503,1.518,79,72.0
331,E5,125.021,0.465,75,72.0
332,F#5,125.517,0.459,78,72.0
333,B5,126.006,0.463,75,72.0
334,G1,126.499,3.0,72,72.0
335,A5,126.503,0.497,80,72.0
336,E5,127.03,0.493,75,72.0
337,E5,127.524,1.975,75,72.0
338,G1,129.499,2.017,72,72.0
339,E5,129.499,1.777,75,72.0
340,D5,132.499,0.234,36,72.0
341,E5,132.753,0.499,41,72.0
342,D5,133.282,0.228,36,72.0
343,E5,133.525,0.475,36,72.0
344,D5,134.03,0.453,36,72.0
345,E5,134.514,0.482,36,72.0
346,D5,135.026,0.453,36,72.0
347,E5,135.51,0.472,36,72.0
348,D5,136.012,0.483,36,72.0
349,D5,136.496,0.237,36,72.0
350,E5,136.753,1.276,41,72.0
351,D5,138.03,0.226,36,72.0
352,C#5,138.271,0.227,36,72.0
353,D5,138.514,0.24,36,72.0
354,A4,138.77,1.726,39,72.0
355,A4,140.496,0.237,36,72.0
356,F#5,140.753,0.499,41,72.0
357,E5,141.282,0.228,36,72.0
358,F#5,141.525,0.745,36,72.0
359,E5,142.271,0.227,36,72.0
360,F#5,142.514,0.482,36,72.0
361,G5,143.026,0.453,36,72.0
362,F#5,143.51,0.501,36,72.0
363,F#5,144.012,0.454,36,72.0
364,A5,144.496,0.237,36,72.0
365,F#5,144.753,1.518,41,72.0
366,E5,146.271,0.241,24,72.0
367,E5,146.514,0.27,24,72.0
368,D5,146.77,1.483,39,72.0
369,F#5,148.254,0.227,36,72.0
370,G5,148.496,0.237,36,72.0
371,D5,148.587,0.162,33,72.0
372,E5,148.67,0.079,33,72.0
373,D5,148.749,0.503,33,72.0
374,E5,148.749,0.503,33,72.0
375,A5,148.753,0.528,47,72.0
376,A4,148.753,3.995,36,72.0
377,A5,149.282,0.242,24,72.0
378,A5,149.525,0.252,24,72.0
379,A5,149.778,0.251,25,72.0
380,A5,150.03,0.482,36,72.0
381,A5,150.514,1.981,36,72.0
382,A5,152.496,0.252,36,72.0
383,D5,152.753,1.024,41,72.0
384,D5,152.753,0.528,40,72.0
385,A5,152.753,0.528,40,72.0
386,B5,153.282,0.228,36,72.0
387,G5,153.525,0.475,36,72.0
388,C#5,153.778,0.99,37,72.0
389,F#5,154.03,0.482,36,72.0
390,F#5,154.514,0.24,36,72.0
391,D5,154.77,1.726,39,72.0
392,B4,154.77,0.99,39,72.0
393,A4,155.761,0.987,37,72.0
394,G5,156.496,0.237,36,72.0
395,F#5,156.753,0.271,41,72.0
396,E3,156.753,2.016,42,72.0
397,E4,156.753,2.016,42,72.0
398,D5,157.039,0.242,36,72.0
399,D5,157.282,2.971,36,72.0
400,A3,158.77,1.979,38,72.0
401,E4,158.77,1.979,38,72.0
402,D5,160.496,0.237,75,72.0
403,E5,160.753,0.499,80,72.0
404,D1,160.753,1.024,76,72.0
405,D2,160.753,1.024,76,72.0
406,D5,161.282,0.228,75,72.0
407,E5,161.525,0.475,75,72.0
408,D3,161.778,0.99,75,72.0
409,D4,161.778,0.99,75,72.0
410,D5,162.03,0.453,75,72.0
411,A4,162.514,0.512,74,72.0
412,E5,162.514,0.512,74,72.0
413,A3,162.77,0.99,78,72.0
414,D4,162.77,0.99,78,72.0
415,D5,163.026,0.453,75,72.0
416,A4,163.51,0.501,74,72.0
417,E5,163.51,0.501,74,72.0
418,D3,163.761,0.987,75,72.0
419,D4,163.761,0.987,75,72.0
420,D5,164.012,0.483,75,72.0
421,D5,164.496,0.237,75,72.0
422,A4,164.753,0.499,72,72.0
423,E5,164.753,1.276,86,72.0
424,D3,164.753,1.024,77,72.0
425,F#3,164.753,1.024,77,72.0
426,C#4,164.753,1.024,77,72.0
427,D3,165.778,0.99,71,72.0
428,F#3,165.778,0.99,71,72.0
429,C#4,165.778,0.99,71,72.0
430,D5,166.03,0.226,75,72.0
431,C#5,166.271,0.227,75,72.0
432,D5,166.514,0.24,75,72.0
433,A4,166.77,1.726,78,72.0
434,D3,166.77,0.99,73,72.0
435,F#3,166.77,0.99,73,72.0
436,C#4,166.77,0.99,73,72.0
437,D3,167.761,0.987,73,72.0
438,F#3,167.761,0.987,73,72.0
439,C#4,167.761,0.987,73,72.0
440,A4,168.496,0.252,75,72.0
441,A4,168.753,0.528,77,72.0
442,C5,168.753,0.528,77,72.0
443,F#5,168.753,0.528,77,72.0
444,D2,168.753,1.024,78,72.0
445,D3,168.753,1.024,78,72.0
446,E5,169.282,0.228,75,72.0
447,A4,169.525,0.745,74,72.0
448,F#5,169.525,0.745,74,72.0
449,F#3,169.778,0.99,75,72.0
450,A3,169.778,0.99,75,72.0
451,E5,170.271,0.227,75,72.0
452,A4,170.514,0.512,74,72.0
453,F#5,170.514,0.512,74,72.0
454,F#3,170.77,0.99,75,72.0
455,A3,170.77,0.99,75,72.0
456,G5,171.026,0.453,75,72.0
457,A4,171.51,0.501,72,72.0
458,F#5,171.51,0.501,72,72.0
459,F#3,171.761,0.987,75,72.0
460,A3,171.761,0.987,75,72.0
461,A4,172.012,0.483,72,72.0
462,F#5,172.012,0.483,72,72.0
463,A5,172.496,0.237,75,72.0
464,A4,172.753,1.518,77,72.0
465,D5,172.753,1.518,77,72.0
466,F#5,172.753,1.518,77,72.0
467,E3,172.753,1.024,79,72.0
468,E4,172.753,1.024,79,72.0
469,E3,173.778,0.99,73,72.0
470,E4,173.778,0.99,73,72.0
471,E5,174.271,0.241,63,72.0
472,E5,174.514,0.27,63,72.0
473,A4,174.77,1.483,77,72.0
474,D5,174.77,1.483,77,72.0
475,E3,174.77,0.99,75,72.0
476,E4,174.77,0.99,75,72.0
477,E3,175.761,0.987,73,72.0
478,E4,175.761,0.987,73,72.0
479,F#5,176.254,0.227,75,72.0
480,G5,176.496,0.237,75,72.0
481,B-4,176.587,0.162,72,72.0
482,E5,176.67,0.079,72,72.0
483,B-4,176.749,0.503,72,72.0
484,E5,176.749,0.503,72,72.0
485,A5,176.753,0.528,86,72.0
486,G2,176.753,1.024,80,72.0
487,A5,177.282,0.242,75,72.0
488,A5,177.525,0.252,75,72.0
489,G3,177.778,0.99,76,72.0
490,E5,177.778,0.251,75,72.0
491,A5,177.778,0.251,75,72.0
492,A5,178.03,0.482,75,72.0
493,D5,178.514,1.981,72,72.0
494,E5,178.514,1.981,72,72.0
495,A5,178.514,1.981,72,72.0
496,G3,178.77,0.99,75,72.0
497,A3,178.77,0.99,75,72.0
498,G3,179.761,0.987,75,72.0
499,A3,179.761,0.987,75,72.0
500,A5,180.496,0.252,75,72.0
501,D5,180.753,0.528,79,72.0
502,A5,180.753,0.528,79,72.0
503,D2,180.753,1.024,78,72.0
504,D3,180.753,1.024,78,72.0
505,B5,181.282,0.228,75,72.0
506,D5,181.525,0.504,74,72.0
507,G5,181.525,0.504,74,72.0
508,C#2,181.778,0.99,74,72.0
509,C#3,181.778,0.99,74,72.0
510,F#5,182.03,0.482,75,72.0
511,F#5,182.514,0.24,75,72.0
512,D5,182.77,1.726,78,72.0
513,B2,182.77,0.99,78,72.0
514,A2,183.761,0.987,76,72.0
515,G5,184.496,0.237,75,72.0
516,F#5,184.753,0.271,80,72.0
517,E2,184.753,1.024,79,72.0
518,D5,185.039,0.242,75,72.0
519,D5,185.282,1.23,75,72.0
520,E3,185.778,0.99,76,72.0
521,D5,186.514,0.255,75,72.0
522,A2,186.77,0.527,66,72.0
523,A4,186.77,0.99,77,72.0
524,D5,186.77,0.99,77,72.0
525,E3,187.268,0.522,63,72.0
526,C#5,187.761,0.987,76,72.0
527,A3,187.761,0.522,64,72.0
528,E3,188.254,0.495,63,72.0
529,D4,188.565,0.184,72,72.0
530,G4,188.628,0.121,72,72.0
531,A4,188.69,0.059,72,72.0
532,D4,188.749,1.028,72,72.0
533,E3,188.749,0.029,63,72.0
534,G4,188.749,1.028,72,72.0
535,A4,188.749,1.028,72,72.0
536,D5,188.753,1.024,73,72.0
537,D2,188.753,0.559,54,72.0
538,F#3,189.282,0.525,50,72.0
539,G4,189.778,0.99,63,72.0
540,A3,189.778,0.522,51,72.0
541,F#3,190.271,0.527,50,72.0
542,A4,190.77,0.99,65,72.0
543,D5,191.761,0.987,63,72.0
544,A3,191.761,0.987,63,72.0
545,A5,192.753,1.024,67,72.0
546,D3,192.753,1.024,67,72.0
547,D5,193.778,0.99,63,72.0
548,A3,193.778,2.97,62,72.0
549,D6,194.77,0.99,65,72.0
550,A6,195.761,0.987,63,72.0
551,A5,196.753,0.271,80,72.0
552,D2,196.753,2.016,78,72.0
553,D3,196.753,2.016,78,72.0
554,A4,197.039,0.228,75,72.0
555,D5,197.282,0.228,75,72.0
556,E5,197.525,0.237,75,72.0
557,A5,197.778,0.236,76,72.0
558,A4,198.03,0.226,75,72.0
559,D5,198.271,0.227,75,72.0
560,E5,198.514,0.24,75,72.0
561,A5,198.77,0.241,78,72.0
562,A1,198.77,1.979,76,72.0
563,A2,198.77,1.979,76,72.0
564,A4,199.026,0.226,75,72.0
565,D5,199.268,0.227,75,72.0
566,E5,199.51,0.235,75,72.0
567,A5,199.761,0.235,76,72.0
568,A4,200.012,0.227,75,72.0
569,D5,200.254,0.227,75,72.0
570,E5,200.496,0.237,75,72.0
571,A5,200.753,0.271,80,72.0
572,B1,200.753,2.016,78,72.0
573,B2,200.753,2.016,78,72.0
574,A4,201.039,0.228,75,72.0
575,D5,201.282,0.228,75,72.0
576,E5,201.525,0.237,75,72.0
577,A5,201.778,0.236,76,72.0
578,A4,202.03,0.226,75,72.0
579,D5,202.271,0.227,75,72.0
580,E5,202.514,0.24,75,72.0
581,A5,202.77,0.241,78,72.0
582,G2,202.77,1.979,77,72.0
583,G3,202.77,1.979,77,72.0
584,A4,203.026,0.226,75,72.0
585,D5,203.268,0.227,75,72.0
586,E5,203.51,0.235,75,72.0
587,A5,203.761,0.235,76,72.0
588,A4,204.012,0.227,75,72.0
589,D5,204.254,0.227,75,72.0
590,E5,204.496,0.237,75,72.0
591,A5,204.753,0.271,80,72.0
592,D2,204.753,2.016,78,72.0
593,D3,204.753,2.016,78,72.0
594,A4,205.039,0.228,75,72.0
595,D5,205.282,0.228,75,72.0
596,E5,205.525,0.237,75,72.0
597,A5,205.778,0.236,76,72.0
598,A4,206.03,0.226,75,72.0
599,D5,206.271,0.227,75,72.0
600,E5,206.514,0.24,75,72.0
601,A5,206.77,0.241,78,72.0
602,A2,206.77,1.979,77,72.0
603,A3,206.77,1.979,77,72.0
604,A4,207.026,0.226,75,72.0
605,D5,207.268,0.227,75,72.0
606,E5,207.51,0.235,75,72.0
607,A5,207.761,0.235,76,72.0
608,A4,208.012,0.227,75,72.0
609,D5,208.254,0.227,75,72.0
610,E5,208.496,0.237,75,72.0
611,D6,208.753,0.271,67,72.0
612,B2,208.753,1.024,67,72.0
613,D5,209.039,0.228,62,72.0
614,G5,209.282,0.228,62,72.0
615,A5,209.525,0.237,62,72.0
616,A6,209.778,0.236,63,72.0
617,A3,209.778,0.99,63,72.0
618,A5,210.03,0.226,62,72.0
619,D6,210.271,0.227,62,72.0
620,E6,210.514,0.24,62,72.0
621,D7,210.77,0.241,65,72.0
622,G2,210.77,0.468,65,72.0
623,D6,211.026,0.226,62,72.0
624,G6,211.268,0.227,62,72.0
625,D3,211.268,0.463,62,72.0
626,A6,211.51,0.235,62,72.0
627,A7,211.761,0.235,63,72.0
628,G3,211.761,0.987,63,72.0
629,E7,212.012,0.227,62,72.0
630,D7,212.254,0.227,62,72.0
631,A6,212.496,0.237,62,72.0
632,A5,212.753,0.271,80,72.0
633,D2,212.753,1.518,78,72.0
634,D3,212.753,1.518,78,72.0
635,A4,213.039,0.228,75,72.0
636,D5,213.282,0.228,75,72.0
637,E5,213.525,0.237,75,72.0
638,A5,213.778,0.236,76,72.0
639,A4,214.03,0.226,75,72.0
640,D5,214.271,0.227,75,72.0
641,D3,214.271,0.468,75,72.0
642,E5,214.514,0.24,75,72.0
643,A5,214.77,0.241,78,72.0
644,A1,214.77,1.483,76,72.0
645,A2,214.77,1.483,76,72.0
646,A4,215.026,0.226,75,72.0
647,D5,215.268,0.227,75,72.0
648,E5,215.51,0.235,75,72.0
649,A5,215.761,0.235,76,72.0
650,A4,216.012,0.227,75,72.0
651,D5,216.254,0.227,75,72.0
652,A2,216.254,0.465,75,72.0
653,E5,216.496,0.237,75,72.0
654,A5,216.753,0.271,80,72.0
655,B1,216.753,1.024,78,72.0
656,B2,216.753,1.024,78,72.0
657,A4,217.039,0.228,75,72.0
658,D5,217.282,0.228,75,72.0
659,E5,217.525,0.237,75,72.0
660,A5,217.778,0.236,76,72.0
661,B2,217.778,0.99,76,72.0
662,A4,218.03,0.226,75,72.0
663,D5,218.271,0.227,75,72.0
664,E5,218.514,0.24,75,72.0
665,A5,218.77,0.241,78,72.0
666,G1,218.77,0.99,75,72.0
667,A4,219.026,0.226,75,72.0
668,D5,219.268,0.227,75,72.0
669,E5,219.51,0.235,75,72.0
670,A5,219.761,0.235,76,72.0
671,G3,219.761,0.987,76,72.0
672,A4,220.012,0.227,75,72.0
673,D5,220.254,0.227,75,72.0
674,E5,220.496,0.237,75,72.0
675,A5,220.753,0.271,80,72.0
676,D2,220.753,2.016,79,72.0
677,A4,221.039,0.228,75,72.0
678,D5,221.282,0.228,75,72.0
679,E5,221.525,0.237,75,72.0
680,A5,221.778,0.236,76,72.0
681,A4,222.03,0.226,75,72.0
682,D5,222.271,0.227,75,72.0
683,E5,222.514,0.24,75,72.0
684,A5,222.77,0.241,78,72.0
685,A1,222.77,1.029,63,72.0
686,A4,223.026,0.226,75,72.0
687,D5,223.268,0.227,75,72.0
688,E5,223.51,0.235,75,72.0
689,A5,223.761,0.235,76,72.0
690,A3,223.761,0.988,64,72.0
691,A4,224.012,0.227,75,72.0
692,D5,224.254,0.227,75,72.0
693,E5,224.496,0.237,75,72.0
694,A3,224.749,0.038,64,72.0
695,A5,224.753,0.271,80,72.0
696,B2,224.753,1.063,68,72.0
697,A4,225.039,0.228,75,72.0
698,D5,225.282,0.228,75,72.0
699,E5,225.525,0.237,75,72.0
700,A5,225.778,0.236,76,72.0
701,B3,225.778,1.029,64,72.0
702,A4,226.03,0.226,75,72.0
703,D5,226.271,0.227,75,72.0
704,E5,226.514,0.24,75,72.0
705,A5,226.77,0.241,78,72.0
706,G2,226.77,0.527,66,72.0
707,A4,227.026,0.226,75,72.0
708,D5,227.268,0.227,75,72.0
709,D3,227.268,0.522,63,72.0
710,F#4,227.51,0.25,74,72.0
711,F#5,227.51,0.25,74,72.0
712,G3,227.761,0.522,77,72.0
713,G4,227.761,0.25,88,72.0
714,G5,227.761,0.25,88,72.0
715,F#4,228.012,0.241,87,72.0
716,F#5,228.012,0.241,87,72.0
717,D3,228.254,0.495,76,72.0
718,G4,228.254,0.241,87,72.0
719,G5,228.254,0.241,87,72.0
720,A4,228.496,0.252,87,72.0
721,A5,228.496,0.252,87,72.0
722,D3,228.749,0.029,76,72.0
723,D5,228.753,1.024,90,72.0
724,G5,228.753,1.024,90,72.0
725,D6,228.753,1.024,90,72.0
726,G2,228.753,0.528,80,72.0
727,B3,228.753,0.528,80,72.0
728,D3,229.282,0.525,76,72.0
729,F#4,229.778,0.522,84,72.0
730,F#5,229.778,0.522,84,72.0
731,G3,229.778,0.522,84,72.0
732,D3,230.271,0.527,76,72.0
733,F#4,230.271,0.241,87,72.0
734,F#5,230.271,0.241,87,72.0
735,E4,230.514,0.512,85,72.0
736,F#4,230.514,0.512,85,72.0
737,E5,230.514,0.512,85,72.0
738,F#2,230.77,0.99,90,72.0
739,F#3,230.77,0.99,90,72.0
740,D4,231.026,1.469,87,72.0
741,D5,231.026,1.469,87,72.0
742,B-1,231.761,0.987,87,72.0
743,B-2,231.761,0.987,87,72.0
744,E4,232.496,0.252,87,72.0
745,E5,232.496,0.252,87,72.0
746,F#4,232.753,0.528,92,72.0
747,F#5,232.753,0.528,92,72.0
748,B1,232.753,1.024,91,72.0
749,B2,232.753,1.024,91,72.0
750,E4,233.282,0.242,87,72.0
751,E5,233.282,0.242,87,72.0
752,G4,233.525,0.745,87,72.0
753,G5,233.525,0.745,87,72.0
754,F#3,233.778,0.99,88,72.0
755,A3,233.778,0.99,88,72.0
756,F#4,234.271,0.241,87,72.0
757,F#5,234.271,0.241,87,72.0
758,F#4,234.514,0.995,85,72.0
759,A4,234.514,0.995,85,72.0
760,F#5,234.514,0.995,85,72.0
761,G2,234.77,0.468,91,72.0
762,D3,235.268,0.463,88,72.0
763,D4,235.51,0.985,87,72.0
764,A4,235.51,0.985,87,72.0
765,G3,235.761,0.463,89,72.0
766,D3,236.254,0.465,88,72.0
767,D4,236.496,0.252,87,72.0
768,D5,236.496,0.252,87,72.0
769,B4,236.753,1.024,91,72.0
770,B5,236.753,1.024,91,72.0
771,G1,236.753,1.024,91,72.0
772,G2,236.753,1.024,91,72.0
773,C#6,237.778,0.236,89,72.0
774,B-1,237.778,0.99,87,72.0
775,B-2,237.778,0.99,87,72.0
776,A5,238.03,0.226,88,72.0
777,G5,238.271,0.227,88,72.0
778,C#5,238.514,0.24,88,72.0
779,D5,238.582,0.655,83,72.0
780,G5,238.645,0.593,83,72.0
781,A5,238.707,0.56,83,72.0
782,D6,238.77,0.497,97,72.0
783,B1,238.77,0.99,89,72.0
784,B2,238.77,0.99,89,72.0
785,F#4,239.268,0.241,87,72.0
786,F#5,239.268,0.241,87,72.0
787,E4,239.51,0.501,87,72.0
788,E5,239.51,0.501,87,72.0
789,A3,239.761,0.463,89,72.0
790,D4,240.012,0.483,87,72.0
791,D5,240.012,0.483,87,72.0
792,F#3,240.254,0.465,88,72.0
793,D4,240.496,0.252,87,72.0
794,D5,240.496,0.252,87,72.0
795,E3,240.753,0.271,93,72.0
796,G4,240.753,0.528,92,72.0
797,G5,240.753,0.528,92,72.0
798,B3,241.039,0.228,88,72.0
799,A4,241.282,0.228,87,72.0
800,A5,241.282,0.228,87,72.0
801,E4,241.282,0.228,87,72.0
802,G4,241.525,0.237,88,72.0
803,F#4,241.525,0.504,87,72.0
804,F#5,241.525,0.504,87,72.0
805,E4,241.778,0.734,89,72.0
806,E4,242.03,0.482,85,72.0
807,A4,242.03,0.482,85,72.0
808,E5,242.03,0.482,85,72.0
809,E4,242.514,0.24,86,72.0
810,A4,242.514,0.24,86,72.0
811,E5,242.514,0.24,86,72.0
812,E4,242.514,0.24,86,72.0
813,F#3,242.77,0.241,91,72.0
814,F#4,242.77,0.99,88,72.0
815,A4,242.77,0.99,88,72.0
816,F#5,242.77,0.99,88,72.0
817,C#4,243.026,0.453,88,72.0
818,F#4,243.51,0.25,88,72.0
819,F#4,243.761,0.235,89,72.0
820,F#3,243.761,0.235,89,72.0
821,C#4,244.012,0.227,88,72.0
822,C#4,244.012,0.227,88,72.0
823,B3,244.254,0.227,88,72.0
824,F#4,244.254,0.227,88,72.0
825,A4,244.496,0.252,87,72.0
826,B5,244.496,0.252,87,72.0
827,G2,244.753,0.499,93,72.0
828,D5,244.753,1.024,92,72.0
829,D6,244.753,1.024,92,72.0
830,D3,245.282,0.228,88,72.0
831,G3,245.525,0.237,88,72.0
832,B3,245.778,0.236,89,72.0
833,F#4,245.778,0.492,88,72.0
834,F#5,245.778,0.492,88,72.0
835,D3,246.03,0.226,88,72.0
836,F#4,246.271,0.227,87,72.0
837,F#5,246.271,0.227,87,72.0
838,G3,246.271,0.227,87,72.0
839,E4,246.514,0.512,87,72.0
840,E5,246.514,0.512,87,72.0
841,F#2,246.77,0.241,91,72.0
842,C#3,247.026,0.226,88,72.0
843,D4,247.026,1.469,87,72.0
844,D5,247.026,1.469,87,72.0
845,G3,247.268,0.227,88,72.0
846,C#3,247.51,0.235,88,72.0
847,F#3,247.761,0.235,89,72.0
848,C#3,248.012,0.227,88,72.0
849,E3,248.254,0.227,88,72.0
850,D4,248.496,0.252,87,72.0
851,D5,248.496,0.252,87,72.0
852,E4,248.753,0.528,92,72.0
853,E5,248.753,0.528,92,72.0
854,B1,248.753,1.518,91,72.0
855,B2,248.753,1.518,91,72.0
856,D4,249.282,0.242,87,72.0
857,D5,249.282,0.242,87,72.0
858,E4,249.525,0.504,87,72.0
859,E5,249.525,0.504,87,72.0
860,F#4,250.03,0.482,87,72.0
861,F#5,250.03,0.482,87,72.0
862,B3,250.271,0.241,76,72.0
863,B3,250.514,0.27,76,72.0
864,G4,250.514,0.512,85,72.0
865,C5,250.514,0.512,85,72.0
866,G5,250.514,0.512,85,72.0
867,D2,250.77,0.527,78,72.0
868,A4,251.026,0.482,87,72.0
869,A5,251.026,0.482,87,72.0
870,D3,251.268,0.522,76,72.0
871,F#4,251.51,0.501,87,72.0
872,F#5,251.51,0.501,87,72.0
873,F#2,251.761,0.522,77,72.0
874,E4,252.012,0.483,85,72.0
875,A4,252.012,0.483,85,72.0
876,E5,252.012,0.483,85,72.0
877,F#3,252.254,0.495,76,72.0
878,E4,252.496,0.252,85,72.0
879,A4,252.496,0.252,85,72.0
880,E5,252.496,0.252,85,72.0
881,F#3,252.749,0.029,76,72.0
882,G2,252.753,0.559,81,72.0
883,D4,252.753,2.016,90,72.0
884,A4,252.753,2.016,90,72.0
885,D5,252.753,2.016,90,72.0
886,G3,253.282,0.525,76,72.0
887,B3,253.778,0.522,77,72.0
888,G3,254.271,0.527,76,72.0
889,A2,254.77,0.527,79,72.0
890,F#4,254.77,0.99,88,72.0
891,A4,254.77,0.99,88,72.0
892,F#5,254.77,0.99,88,72.0
893,E3,255.268,0.522,76,72.0
894,A3,255.761,0.522,77,72.0
895,D4,255.761,0.987,88,72.0
896,F#4,255.761,0.987,88,72.0
897,E3,256.254,0.495,76,72.0
898,E3,256.749,0.029,76,72.0
899,D4,256.753,1.024,92,72.0
900,E4,256.753,1.024,92,72.0
901,A1,256.753,0.528,78,72.0
902,A2,256.753,0.528,78,72.0
903,E3,257.282,0.525,76,72.0
904,A3,257.778,0.99,89,72.0
905,D4,257.778,0.492,88,72.0
906,E4,257.778,0.492,88,72.0
907,A4,258.271,0.497,87,72.0
908,A5,258.271,0.497,87,72.0
909,A3,258.77,1.979,91,72.0
910,F#5,258.77,0.99,88,72.0
911,A5,258.77,0.99,88,72.0
912,F#6,258.77,0.99,88,72.0
913,E5,259.761,0.987,88,72.0
914,E6,259.761,0.987,88,72.0
915,D5,260.753,0.285,92,72.0
916,D6,260.753,0.285,92,72.0
917,D1,260.753,1.024,89,72.0
918,D2,260.753,1.024,89,72.0
919,A4,261.039,0.228,62,72.0
920,D5,261.282,0.228,62,72.0
921,E5,261.525,0.237,62,72.0
922,A5,261.778,0.236,63,72.0
923,D4,261.778,0.463,63,72.0
924,A4,262.03,0.226,62,72.0
925,D5,262.271,0.227,62,72.0
926,A3,262.271,0.468,62,72.0
927,E5,262.514,0.24,62,72.0
928,A5,262.77,0.241,65,72.0
929,A2,262.77,1.979,65,72.0
930,A4,263.026,0.226,62,72.0
931,D5,263.268,0.227,62,72.0
932,E5,263.51,0.235,62,72.0
933,A5,263.761,0.235,63,72.0
934,A4,264.012,0.227,62,72.0
935,D5,264.254,0.227,62,72.0
936,E5,264.496,0.237,62,72.0
937,A5,264.753,0.271,67,72.0
938,F#2,264.753,1.024,67,72.0
939,A4,265.039,0.228,62,72.0
940,D5,265.282,0.228,62,72.0
941,E5,265.525,0.237,62,72.0
942,A5,265.778,0.236,63,72.0
943,F#3,265.778,0.99,63,72.0
944,A4,266.03,0.226,62,72.0
945,D5,266.271,0.227,62,72.0
946,E5,266.514,0.24,62,72.0
947,A5,266.77,0.241,65,72.0
948,E2,266.77,0.99,64,72.0
949,E3,266.77,0.99,64,72.0
950,A4,267.026,0.226,62,72.0
951,D5,267.268,0.227,62,72.0
952,E5,267.51,0.235,62,72.0
953,A5,267.761,0.235,63,72.0
954,E3,267.761,0.987,63,72.0
955,A4,268.012,0.227,62,72.0
956,D5,268.254,0.227,62,72.0
957,E5,268.496,0.237,62,72.0
958,A5,268.753,0.271,67,72.0
959,D2,268.753,2.016,66,72.0
960,D3,268.753,2.016,66,72.0
961,A4,269.039,0.228,62,72.0
962,D5,269.282,0.228,62,72.0
963,E5,269.525,0.237,62,72.0
964,A5,269.778,0.236,63,72.0
965,A4,270.03,0.226,62,72.0
966,D5,270.271,0.227,62,72.0
967,E5,270.514,0.24,62,72.0
968,A5,270.77,0.241,65,72.0
969,G2,270.77,0.99,64,72.0
970,G3,270.77,0.99,64,72.0
971,A4,271.026,0.226,62,72.0
972,D5,271.268,0.227,62,72.0
973,E5,271.51,0.235,62,72.0
974,A5,271.761,0.235,63,72.0
975,G2,271.761,0.987,62,72.0
976,G3,271.761,0.987,62,72.0
977,A4,272.012,0.227,62,72.0
978,D5,272.254,0.227,62,72.0
979,E5,272.496,0.237,62,72.0
980,A5,272.753,0.271,67,72.0
981,F#2,272.753,2.016,66,72.0
982,F#3,272.753,2.016,66,72.0
983,A4,273.039,0.228,62,72.0
984,D5,273.282,0.228,62,72.0
985,E5,273.525,0.237,62,72.0
986,A5,273.778,0.236,63,72.0
987,A4,274.03,0.226,62,72.0
988,D5,274.271,0.227,62,72.0
989,E5,274.514,0.24,62,72.0
990,A5,274.77,0.241,65,72.0
991,E2,274.77,0.99,64,72.0
992,E3,274.77,0.99,64,72.0
993,A4,275.026,0.226,62,72.0
994,D5,275.268,0.227,62,72.0
995,E5,275.51,0.235,62,72.0
996,A5,275.761,0.235,63,72.0
997,E2,275.761,0.987,62,72.0
998,E3,275.761,0.987,62,72.0
999,A4,276.012,0.227,62,72.0
1000,D5,276.254,0.227,62,72.0
1001,E5,276.496,0.237,62,72.0
1002,A5,276.753,0.271,54,72.0
1003,D2,276.753,2.016,52,72.0
1004,D3,276.753,2.016,52,72.0
1005,A4,277.039,0.228,49,72.0
1006,D5,277.282,0.228,49,72.0
1007,E5,277.525,0.237,49,72.0
1008,A5,277.778,0.236,50,72.0
1009,A4,278.03,0.226,49,72.0
1010,D5,278.271,0.227,49,72.0
1011,E5,278.514,0.24,49,72.0
1012,A5,278.77,0.241,52,72.0
1013,G3,278.77,0.99,51,72.0
1014,G4,278.77,0.99,51,72.0
1015,A4,279.026,0.226,49,72.0
1016,D5,279.268,0.227,49,72.0
1017,E5,279.51,0.235,49,72.0
1018,A5,279.761,0.235,50,72.0
1019,G3,279.761,0.987,49,72.0
1020,G4,279.761,0.987,49,72.0
1021,A4,280.012,0.227,49,72.0
1022,D5,280.254,0.227,49,72.0
1023,E5,280.496,0.237,49,72.0
1024,A5,280.753,0.271,54,72.0
1025,F#3,280.753,2.016,53,72.0
1026,F#4,280.753,2.016,53,72.0
1027,A4,281.039,0.228,49,72.0
1028,D5,281.282,0.228,49,72.0
1029,E5,281.525,0.237,49,72.0
1030,A5,281.778,0.236,50,72.0
1031,A4,282.03,0.226,49,72.0
1032,D5,282.271,0.227,49,72.0
1033,E5,282.514,0.24,49,72.0
1034,A5,282.77,0.241,52,72.0
1035,E3,282.77,0.99,51,72.0
1036,E4,282.77,0.99,51,72.0
1037,A4,283.026,0.226,49,72.0
1038,D5,283.268,0.227,49,72.0
1039,E5,283.51,0.235,49,72.0
1040,A5,283.761,0.235,50,72.0
1041,E3,283.761,0.987,49,72.0
1042,E4,283.761,0.987,49,72.0
1043,A4,284.012,0.227,49,72.0
1044,D5,284.254,0.227,49,72.0
1045,E5,284.496,0.237,49,72.0
1046,A5,284.753,0.271,41,72.0
1047,D3,284.753,2.016,40,72.0
1048,D4,284.753,2.016,40,72.0
1049,A4,285.039,0.228,36,72.0
1050,D5,285.282,0.228,36,72.0
1051,E5,285.525,0.237,36,72.0
1052,A5,285.778,0.236,37,72.0
1053,A4,286.03,0.226,36,72.0
1054,D5,286.271,0.227,36,72.0
1055,E5,286.514,0.24,36,72.0
1056,A5,286.77,0.241,39,72.0
1057,G3,286.77,0.99,38,72.0
1058,G4,286.77,0.99,38,72.0
1059,A4,287.026,0.226,36,72.0
1060,D5,287.268,0.227,36,72.0
1061,E5,287.51,0.235,36,72.0
1062,A5,287.761,0.235,37,72.0
1063,G3,287.761,0.987,36,72.0
1064,G4,287.761,0.987,36,72.0
1065,A4,288.012,0.227,36,72.0
1066,D5,288.254,0.227,36,72.0
1067,E5,288.496,0.237,36,72.0
1068,A5,288.753,0.271,41,72.0
1069,F#3,288.753,2.016,40,72.0
1070,F#4,288.753,2.016,40,72.0
1071,A4,289.039,0.228,36,72.0
1072,D5,289.282,0.228,36,72.0
1073,E5,289.525,0.237,36,72.0
1074,A5,289.778,0.236,37,72.0
1075,A4,290.03,0.226,36,72.0
1076,D5,290.271,0.227,36,72.0
1077,E5,290.514,0.24,36,72.0
1078,D5,290.77,0.241,39,72.0
1079,E3,290.77,1.979,38,72.0
1080,E4,290.77,1.979,38,72.0
1081,C#5,291.026,0.226,36,72.0
1082,A4,291.268,0.227,36,72.0
1083,F#4,291.51,0.235,36,72.0
1084,D4,291.761,0.235,37,72.0
1085,C#4,292.012,0.227,36,72.0
1086,A3,292.254,0.227,36,72.0
1087,E3,292.496,0.253,36,72.0
1088,E3,292.749,1.028,36,72.0
1089,G1,294.393,0.48,33,72.0
1090,D3,294.903,0.115,36,72.0
1091,E3,295.026,0.113,36,72.0
1092,F#3,295.147,0.112,36,72.0
1093,G3,295.268,0.113,36,72.0
1094,A3,295.389,0.113,36,72.0
1095,B3,295.51,0.114,36,72.0
1096,C#4,295.632,0.121,36,72.0
1097,D4,295.761,0.121,37,72.0
1098,E4,295.89,0.114,36,72.0
1099,F#4,296.012,0.113,36,72.0
1100,G4,296.133,0.113,36,72.0
1101,A4,296.254,0.112,36,72.0
1102,B4,296.374,0.114,36,72.0
1103,C#5,296.496,0.253,36,72.0
1104,C#5,296.749,3.999,36,72.0
