,note_name,start_time,duration,velocity,tempo
0,E-4,0.01,0.493,69,120.0
1,F3,0.01,3.989,64,120.0
2,G#4,0.533,0.466,64,120.0
3,E-5,1.029,0.463,65,120.0
4,E-4,1.522,0.468,64,120.0
5,G#4,2.021,0.468,67,120.0
6,B-4,2.519,0.463,64,120.0
7,E-4,3.012,0.463,65,120.0
8,G#4,3.505,0.465,64,120.0
9,E-5,4.004,0.499,69,120.0
10,C#3,4.004,3.995,64,120.0
11,E-4,4.533,0.466,64,120.0
12,G#4,5.029,0.463,65,120.0
13,B-4,5.522,0.468,64,120.0
14,E-4,6.021,0.468,67,120.0
15,G#4,6.519,0.463,64,120.0
16,B-4,7.012,0.463,65,120.0
17,G#4,7.505,0.465,64,120.0
18,E-4,8.004,0.499,69,120.0
19,E-3,8.004,3.995,64,120.0
20,G#4,8.533,0.466,64,120.0
21,E-5,9.029,0.463,65,120.0
22,E-4,9.522,0.468,64,120.0
23,G#4,10.021,0.468,67,120.0
24,B-4,10.519,0.463,64,120.0
25,E-4,11.012,0.463,65,120.0
26,G#4,11.505,0.465,64,120.0
27,E-5,12.004,0.499,69,120.0
28,G#3,12.004,3.995,64,120.0
29,E-4,12.533,0.466,64,120.0
30,G#4,13.029,0.463,65,120.0
31,B-4,13.522,0.468,64,120.0
32,E-4,14.021,0.468,67,120.0
33,G#4,14.519,0.463,64,120.0
34,B-4,15.012,0.463,65,120.0
35,G#4,15.505,0.465,64,120.0
36,E-4,16.004,0.499,69,120.0
37,F3,16.004,3.995,64,120.0
38,G#4,16.533,0.466,64,120.0
39,E-5,17.029,0.463,65,120.0
40,E-4,17.522,0.468,64,120.0
41,G#4,18.021,0.468,67,120.0
42,B-4,18.519,0.463,64,120.0
43,E-4,19.012,0.463,65,120.0
44,G#4,19.505,0.465,64,120.0
45,E-5,20.004,0.499,69,120.0
46,C#3,20.004,3.995,64,120.0
47,E-4,20.533,0.466,64,120.0
48,G#4,21.029,0.463,65,120.0
49,B-4,21.522,0.468,64,120.0
50,E-4,22.021,0.468,67,120.0
51,G#4,22.519,0.463,64,120.0
52,B-4,23.012,0.463,65,120.0
53,G#4,23.505,0.465,64,120.0
54,E-4,24.004,0.499,69,120.0
55,E-3,24.004,3.995,64,120.0
56,G#4,24.533,0.466,64,120.0
57,E-5,25.029,0.463,65,120.0
58,E-4,25.522,0.468,64,120.0
59,G#4,26.021,0.468,67,120.0
60,B-4,26.519,0.463,64,120.0
61,E-4,27.012,0.463,65,120.0
62,G#4,27.505,0.465,64,120.0
63,E-5,28.004,0.499,69,120.0
64,G#3,28.004,3.995,64,120.0
65,E-4,28.533,0.466,64,120.0
66,G#4,29.029,0.463,65,120.0
67,B-4,29.522,0.468,64,120.0
68,G#4,30.021,0.739,67,120.0
69,G4,30.761,0.743,64,120.0
70,C4,31.505,0.495,61,120.0
71,G#4,31.505,0.495,61,120.0
72,C4,32.0,2.02,61,120.0
73,G#4,32.0,2.02,61,120.0
74,F2,32.004,0.499,69,120.0
75,C3,32.533,0.466,64,120.0
76,F3,33.029,0.463,65,120.0
77,G#3,33.522,0.468,64,120.0
78,G#4,34.021,0.739,67,120.0
79,C4,34.021,1.979,67,120.0
80,G4,34.761,0.743,64,120.0
81,E-4,35.505,0.495,61,120.0
82,B-4,35.505,0.495,61,120.0
83,E-4,36.0,2.518,61,120.0
84,B-4,36.0,2.518,61,120.0
85,C#2,36.004,0.499,68,120.0
86,G#2,36.533,0.466,64,120.0
87,C#3,37.029,0.463,65,120.0
88,G#3,37.522,0.468,64,120.0
89,C#4,38.021,1.979,67,120.0
90,G#4,38.519,0.463,64,120.0
91,G4,39.012,0.463,65,120.0
92,G#4,39.505,0.465,64,120.0
93,E-2,40.004,0.499,68,120.0
94,E-4,40.004,1.024,68,120.0
95,B-4,40.004,1.024,68,120.0
96,B-2,40.533,0.466,64,120.0
97,E-4,41.029,0.463,65,120.0
98,E-3,41.029,0.463,65,120.0
99,G#3,41.522,0.468,64,120.0
100,E-4,41.522,0.995,61,120.0
101,C5,41.522,0.995,61,120.0
102,C4,42.021,1.979,67,120.0
103,E-4,42.519,0.985,63,120.0
104,C#5,42.519,0.985,63,120.0
105,E-4,43.505,0.495,61,120.0
106,G#4,43.505,0.495,61,120.0
107,C5,43.505,0.495,61,120.0
108,E-4,44.0,2.02,61,120.0
109,G#4,44.0,2.02,61,120.0
110,C5,44.0,2.02,61,120.0
111,G#2,44.004,0.499,69,120.0
112,E-3,44.533,0.466,64,120.0
113,G#3,45.029,0.463,65,120.0
114,C4,45.522,0.468,64,120.0
115,G#4,46.021,0.739,67,120.0
116,E-4,46.021,1.979,67,120.0
117,E-5,46.761,0.743,64,120.0
118,F4,47.505,0.495,59,120.0
119,G#4,47.505,0.495,59,120.0
120,E-5,47.505,0.495,59,120.0
121,F4,48.0,2.02,59,120.0
122,G#4,48.0,2.02,59,120.0
123,E-5,48.0,2.02,59,120.0
124,C2,48.004,0.499,67,120.0
125,G2,48.533,0.466,64,120.0
126,C3,49.029,0.463,65,120.0
127,E-3,49.522,0.468,64,120.0
128,G#4,50.021,0.739,67,120.0
129,G#3,50.021,1.979,67,120.0
130,E-5,50.761,0.743,64,120.0
131,F4,51.505,0.495,59,120.0
132,G#4,51.505,0.495,59,120.0
133,E-5,51.505,0.495,59,120.0
134,F4,52.0,1.521,59,120.0
135,G#4,52.0,1.521,59,120.0
136,E-5,52.0,1.521,59,120.0
137,C#2,52.004,0.499,68,120.0
138,G#2,52.533,0.466,64,120.0
139,C#3,53.029,0.463,65,120.0
140,G#3,53.522,0.468,64,120.0
141,F4,53.522,0.995,63,120.0
142,G#4,53.522,0.995,63,120.0
143,C#4,54.021,1.979,67,120.0
144,G#4,54.519,0.463,64,120.0
145,G4,55.012,0.463,65,120.0
146,G#4,55.505,0.465,64,120.0
147,F2,55.879,0.121,61,120.0
148,F2,56.0,1.521,61,120.0
149,G#3,56.004,1.518,75,120.0
150,E-4,56.004,1.024,68,120.0
151,C5,56.004,1.024,68,120.0
152,B-4,57.029,0.463,65,120.0
153,E-2,57.522,0.468,63,120.0
154,E-4,57.522,0.995,61,120.0
155,G#4,57.522,0.995,61,120.0
156,G3,58.021,0.99,67,120.0
157,E-4,58.519,0.985,63,120.0
158,G4,58.519,0.985,63,120.0
159,C#3,59.012,0.987,65,120.0
160,G#4,59.505,0.494,64,120.0
161,C2,60.004,1.024,67,120.0
162,G#4,60.004,1.518,68,120.0
163,G#5,60.004,1.518,68,120.0
164,C3,61.029,0.463,65,120.0
165,E-3,61.522,0.468,64,120.0
166,E-5,61.522,1.488,61,120.0
167,G#5,61.522,1.488,61,120.0
168,E-6,61.522,1.488,61,120.0
169,G#3,62.021,0.468,67,120.0
170,C4,62.519,1.48,64,120.0
171,G#4,63.012,0.988,62,120.0
172,C5,63.012,0.988,62,120.0
173,G#5,63.012,0.988,62,120.0
174,G#4,64.0,0.532,62,120.0
175,C5,64.0,0.532,62,120.0
176,G#5,64.0,0.532,62,120.0
177,C#2,64.004,0.499,68,120.0
178,G4,64.533,0.466,63,120.0
179,G5,64.533,0.466,63,120.0
180,C#3,64.533,0.466,63,120.0
181,G#3,65.029,0.463,65,120.0
182,G#4,65.029,0.99,64,120.0
183,G#5,65.029,0.99,64,120.0
184,C#4,65.522,2.477,64,120.0
185,G4,66.021,0.497,66,120.0
186,G5,66.021,0.497,66,120.0
187,G#4,66.519,0.492,63,120.0
188,G#5,66.519,0.492,63,120.0
189,E-4,67.012,0.492,64,120.0
190,E-5,67.012,0.492,64,120.0
191,B-3,67.505,0.494,63,120.0
192,B-4,67.505,0.494,63,120.0
193,E-2,68.004,0.499,68,120.0
194,G#4,68.004,1.518,68,120.0
195,G#5,68.004,1.518,68,120.0
196,B-2,68.533,0.466,64,120.0
197,E-3,69.029,0.463,65,120.0
198,B-3,69.522,0.468,64,120.0
199,E-5,69.522,1.488,61,120.0
200,G#5,69.522,1.488,61,120.0
201,E-6,69.522,1.488,61,120.0
202,E-4,70.021,0.468,67,120.0
203,G4,70.519,1.48,64,120.0
204,G#4,71.012,0.988,62,120.0
205,C5,71.012,0.988,62,120.0
206,G#5,71.012,0.988,62,120.0
207,G#4,72.0,0.532,62,120.0
208,C5,72.0,0.532,62,120.0
209,G#5,72.0,0.532,62,120.0
210,G#2,72.004,0.499,69,120.0
211,G#4,72.533,0.466,63,120.0
212,G#5,72.533,0.466,63,120.0
213,E-3,72.533,0.466,63,120.0
214,G#3,73.029,0.463,65,120.0
215,B-4,73.029,0.99,64,120.0
216,B-5,73.029,0.99,64,120.0
217,C4,73.522,0.468,64,120.0
218,C#5,74.021,0.468,66,120.0
219,C#6,74.021,0.468,66,120.0
220,E-4,74.021,0.468,66,120.0
221,C5,74.519,0.463,63,120.0
222,C6,74.519,0.463,63,120.0
223,C4,74.519,0.463,63,120.0
224,G#3,75.012,0.987,65,120.0
225,B-4,75.012,0.492,64,120.0
226,B-5,75.012,0.492,64,120.0
227,G#4,75.505,0.494,63,120.0
228,G#5,75.505,0.494,63,120.0
229,C2,76.004,1.024,67,120.0
230,G#4,76.004,1.518,66,120.0
231,C5,76.004,1.518,66,120.0
232,G#5,76.004,1.518,66,120.0
233,C3,77.029,0.463,65,120.0
234,E-3,77.522,0.468,64,120.0
235,E-5,77.522,1.488,61,120.0
236,G#5,77.522,1.488,61,120.0
237,E-6,77.522,1.488,61,120.0
238,G#3,78.021,0.468,67,120.0
239,C4,78.519,0.463,64,120.0
240,E-4,79.012,0.987,65,120.0
241,G#4,79.012,0.988,62,120.0
242,C5,79.012,0.988,62,120.0
243,G#5,79.012,0.988,62,120.0
244,G#4,80.0,0.532,62,120.0
245,C5,80.0,0.532,62,120.0
246,G#5,80.0,0.532,62,120.0
247,C#2,80.004,0.499,68,120.0
248,G4,80.533,0.466,63,120.0
249,G5,80.533,0.466,63,120.0
250,C#3,80.533,0.466,63,120.0
251,G#3,81.029,0.463,65,120.0
252,G#4,81.029,0.99,64,120.0
253,G#5,81.029,0.99,64,120.0
254,C#4,81.522,2.477,64,120.0
255,G4,82.021,0.497,66,120.0
256,G5,82.021,0.497,66,120.0
257,G#4,82.519,0.492,63,120.0
258,G#5,82.519,0.492,63,120.0
259,E-4,83.012,0.492,64,120.0
260,E-5,83.012,0.492,64,120.0
261,B-3,83.505,0.494,63,120.0
262,B-4,83.505,0.494,63,120.0
263,F2,83.879,0.121,61,120.0
264,F2,84.0,1.521,61,120.0
265,G#3,84.004,1.518,75,120.0
266,G#4,84.004,0.528,68,120.0
267,G#5,84.004,0.528,68,120.0
268,G4,84.533,0.495,63,120.0
269,G5,84.533,0.495,63,120.0
270,G#4,85.029,0.492,64,120.0
271,G#5,85.029,0.492,64,120.0
272,E-2,85.522,0.468,63,120.0
273,B-4,85.522,0.995,61,120.0
274,E-5,85.522,0.995,61,120.0
275,B-5,85.522,0.995,61,120.0
276,G3,86.021,1.979,67,120.0
277,G#4,86.519,0.492,63,120.0
278,G#5,86.519,0.492,63,120.0
279,B-4,87.012,0.492,64,120.0
280,B-5,87.012,0.492,64,120.0
281,E-5,87.505,0.495,61,120.0
282,G#5,87.505,0.495,61,120.0
283,E-6,87.505,0.495,61,120.0
284,E-5,88.0,0.532,61,120.0
285,G#5,88.0,0.532,61,120.0
286,E-6,88.0,0.532,61,120.0
287,C#2,88.004,2.016,68,120.0
288,G4,88.533,0.466,64,120.0
289,G#5,89.029,0.463,65,120.0
290,B-5,89.522,0.468,64,120.0
291,C#5,90.021,0.497,66,120.0
292,C#6,90.021,0.497,66,120.0
293,C5,90.519,0.492,63,120.0
294,C6,90.519,0.492,63,120.0
295,B-4,91.012,0.492,64,120.0
296,B-5,91.012,0.492,64,120.0
297,G#4,91.505,0.494,63,120.0
298,G#5,91.505,0.494,63,120.0
299,E-4,92.004,1.024,68,120.0
300,C2,92.004,1.024,68,120.0
301,B-4,93.029,0.463,65,120.0
302,C3,93.029,0.463,65,120.0
303,C5,93.522,0.468,64,120.0
304,G3,93.522,0.468,64,120.0
305,B-4,94.021,0.468,67,120.0
306,C4,94.021,0.468,67,120.0
307,C5,94.519,0.463,64,120.0
308,G3,94.519,0.463,64,120.0
309,C5,95.012,0.463,65,120.0
310,C4,95.012,0.463,65,120.0
311,C5,95.505,0.465,64,120.0
312,G3,95.505,0.465,64,120.0
313,C#5,96.004,0.499,69,120.0
314,C3,96.004,0.499,69,120.0
315,C5,96.533,0.988,64,120.0
316,G3,96.533,0.466,64,120.0
317,C4,97.029,0.463,65,120.0
318,G3,97.522,0.468,64,120.0
319,E-4,97.522,0.995,63,120.0
320,B-4,97.522,0.995,63,120.0
321,C4,98.021,0.468,67,120.0
322,G3,98.519,0.463,64,120.0
323,E-4,98.519,1.48,63,120.0
324,G#4,98.519,1.48,63,120.0
325,C4,99.012,0.463,65,120.0
326,G3,99.505,0.465,64,120.0
327,E-4,100.004,1.024,69,120.0
328,C#3,100.004,0.499,69,120.0
329,G#3,100.533,0.466,64,120.0
330,B-4,101.029,0.463,65,120.0
331,C#4,101.029,0.463,65,120.0
332,C5,101.522,0.468,64,120.0
333,G#3,101.522,0.468,64,120.0
334,C#4,102.021,0.468,67,120.0
335,E-4,102.021,0.99,64,120.0
336,G#4,102.021,0.99,64,120.0
337,C5,102.021,0.99,64,120.0
338,G#3,102.519,0.463,64,120.0
339,C5,103.012,0.463,65,120.0
340,C#4,103.012,0.463,65,120.0
341,C5,103.505,0.465,64,120.0
342,G#3,103.505,0.465,64,120.0
343,E-4,104.004,0.499,68,120.0
344,C#5,104.004,0.499,68,120.0
345,C#3,104.004,0.499,68,120.0
346,C5,104.533,0.988,64,120.0
347,G#3,104.533,0.466,64,120.0
348,C#4,105.029,0.463,65,120.0
349,G#3,105.522,0.468,64,120.0
350,E-4,105.522,0.995,63,120.0
351,B-4,105.522,0.995,63,120.0
352,C#4,106.021,0.468,67,120.0
353,G#3,106.519,0.463,64,120.0
354,E-4,106.519,1.48,63,120.0
355,G#4,106.519,1.48,63,120.0
356,C#4,107.012,0.463,65,120.0
357,G#3,107.505,0.465,64,120.0
358,E-4,108.004,1.024,69,120.0
359,F2,108.004,0.499,69,120.0
360,C3,108.533,0.466,64,120.0
361,B-4,109.029,0.463,65,120.0
362,F3,109.029,0.463,65,120.0
363,C5,109.522,0.468,64,120.0
364,C3,109.522,0.468,64,120.0
365,C5,110.021,0.468,67,120.0
366,G#3,110.021,0.468,67,120.0
367,C5,110.519,0.463,64,120.0
368,F3,110.519,0.463,64,120.0
369,C5,111.012,0.463,65,120.0
370,C3,111.012,0.987,65,120.0
371,E-4,111.505,0.495,59,120.0
372,G#4,111.505,0.495,59,120.0
373,F5,111.505,0.495,59,120.0
374,E-4,112.0,0.532,59,120.0
375,G#4,112.0,0.532,59,120.0
376,F5,112.0,0.532,59,120.0
377,E-2,112.004,0.499,68,120.0
378,E-5,112.533,0.988,64,120.0
379,B-2,112.533,0.466,64,120.0
380,E-3,113.029,0.463,65,120.0
381,G3,113.522,0.468,64,120.0
382,F4,113.522,0.995,63,120.0
383,C5,113.522,0.995,63,120.0
384,E-3,114.021,0.468,67,120.0
385,B-2,114.519,0.463,64,120.0
386,F4,114.519,0.985,63,120.0
387,B-4,114.519,0.985,63,120.0
388,E-2,115.012,0.463,64,120.0
389,G#4,115.505,0.465,64,120.0
390,B-2,115.505,0.465,64,120.0
391,G#4,116.0,0.177,69,120.0
392,C#2,116.004,1.024,68,120.0
393,B-4,116.158,0.842,59,120.0
394,G#4,117.029,0.463,65,120.0
395,G#2,117.029,0.463,65,120.0
396,C#3,117.522,0.995,64,120.0
397,F4,117.522,1.981,61,120.0
398,G#4,117.522,1.981,61,120.0
399,G#2,118.519,0.463,64,120.0
400,C#3,119.012,0.987,65,120.0
401,G#4,119.505,0.465,64,120.0
402,C#2,120.004,0.499,68,120.0
403,E-4,120.004,1.024,68,120.0
404,C5,120.004,1.024,68,120.0
405,G#2,120.533,0.466,64,120.0
406,B-4,121.029,0.463,65,120.0
407,C3,121.029,0.99,65,120.0
408,E-4,121.522,0.995,61,120.0
409,G#4,121.522,0.995,61,120.0
410,E-2,122.021,0.468,66,120.0
411,B-2,122.519,0.463,64,120.0
412,E-4,122.519,1.48,63,120.0
413,B-4,122.519,1.48,63,120.0
414,E-3,123.012,0.463,65,120.0
415,B-2,123.505,0.465,64,120.0
416,E-4,124.004,1.024,68,120.0
417,C2,124.004,1.024,68,120.0
418,B-4,125.029,0.463,65,120.0
419,C3,125.029,0.463,65,120.0
420,C5,125.522,0.468,64,120.0
421,G3,125.522,0.468,64,120.0
422,B-4,126.021,0.468,67,120.0
423,C4,126.021,0.468,67,120.0
424,C5,126.519,0.463,64,120.0
425,G3,126.519,0.463,64,120.0
426,C5,127.012,0.463,65,120.0
427,C4,127.012,0.463,65,120.0
428,C5,127.505,0.465,64,120.0
429,G3,127.505,0.465,64,120.0
430,C#5,128.004,0.499,69,120.0
431,C3,128.004,0.499,69,120.0
432,C5,128.533,0.988,64,120.0
433,G3,128.533,0.466,64,120.0
434,C4,129.029,0.463,65,120.0
435,G3,129.522,0.468,64,120.0
436,E-4,129.522,0.995,63,120.0
437,B-4,129.522,0.995,63,120.0
438,C4,130.021,0.468,67,120.0
439,G3,130.519,0.463,64,120.0
440,E-4,130.519,1.48,63,120.0
441,G#4,130.519,1.48,63,120.0
442,C4,131.012,0.463,65,120.0
443,G3,131.505,0.465,64,120.0
444,E-4,132.004,1.024,69,120.0
445,C#3,132.004,0.499,69,120.0
446,G#3,132.533,0.466,64,120.0
447,B-4,133.029,0.463,65,120.0
448,C#4,133.029,0.463,65,120.0
449,C5,133.522,0.468,64,120.0
450,G#3,133.522,0.468,64,120.0
451,C#4,134.021,0.468,67,120.0
452,E-4,134.021,0.99,64,120.0
453,G#4,134.021,0.99,64,120.0
454,C5,134.021,0.99,64,120.0
455,G#3,134.519,0.463,64,120.0
456,C5,135.012,0.463,65,120.0
457,C#4,135.012,0.463,65,120.0
458,C5,135.505,0.465,64,120.0
459,G#3,135.505,0.465,64,120.0
460,E-4,136.004,0.499,68,120.0
461,C#5,136.004,0.499,68,120.0
462,C#3,136.004,0.499,68,120.0
463,C5,136.533,0.988,64,120.0
464,G#3,136.533,0.466,64,120.0
465,C#4,137.029,0.463,65,120.0
466,G#3,137.522,0.468,64,120.0
467,E-4,137.522,0.995,63,120.0
468,B-4,137.522,0.995,63,120.0
469,C#4,138.021,0.468,67,120.0
470,G#3,138.519,0.463,64,120.0
471,E-4,138.519,1.48,63,120.0
472,G#4,138.519,1.48,63,120.0
473,C#4,139.012,0.463,65,120.0
474,G#3,139.505,0.465,64,120.0
475,E-4,140.004,1.024,69,120.0
476,F2,140.004,0.499,69,120.0
477,C3,140.533,0.466,64,120.0
478,B-4,141.029,0.463,65,120.0
479,F3,141.029,0.463,65,120.0
480,C5,141.522,0.468,64,120.0
481,C3,141.522,0.468,64,120.0
482,C5,142.021,0.468,67,120.0
483,G#3,142.021,0.468,67,120.0
484,C5,142.519,0.463,64,120.0
485,F3,142.519,0.463,64,120.0
486,C5,143.012,0.463,65,120.0
487,C3,143.012,0.987,65,120.0
488,E-4,143.505,0.495,59,120.0
489,G#4,143.505,0.495,59,120.0
490,F5,143.505,0.495,59,120.0
491,E-4,144.0,0.532,59,120.0
492,G#4,144.0,0.532,59,120.0
493,F5,144.0,0.532,59,120.0
494,E-2,144.004,0.499,68,120.0
495,E-5,144.533,0.988,64,120.0
496,B-2,144.533,0.466,64,120.0
497,E-3,145.029,0.463,65,120.0
498,G3,145.522,0.468,64,120.0
499,F4,145.522,0.995,63,120.0
500,C5,145.522,0.995,63,120.0
501,E-3,146.021,0.468,67,120.0
502,B-2,146.519,0.463,64,120.0
503,F4,146.519,0.985,63,120.0
504,B-4,146.519,0.985,63,120.0
505,E-2,147.012,0.463,64,120.0
506,G#4,147.505,0.465,64,120.0
507,B-2,147.505,0.465,64,120.0
508,G#4,148.0,0.177,69,120.0
509,C#2,148.004,1.024,68,120.0
510,B-4,148.158,0.842,59,120.0
511,G#4,149.029,0.463,65,120.0
512,G#2,149.029,0.463,65,120.0
513,C#3,149.522,0.995,64,120.0
514,F4,149.522,1.981,61,120.0
515,G#4,149.522,1.981,61,120.0
516,G#2,150.519,0.463,64,120.0
517,C#3,151.012,0.987,65,120.0
518,G#4,151.505,0.465,64,120.0
519,C#2,152.004,0.499,68,120.0
520,E-4,152.004,1.024,68,120.0
521,C5,152.004,1.024,68,120.0
522,G#2,152.533,0.466,64,120.0
523,B-4,153.029,0.463,65,120.0
524,C3,153.029,0.99,65,120.0
525,E-4,153.522,0.995,61,120.0
526,G#4,153.522,0.995,61,120.0
527,E-2,154.021,0.468,66,120.0
528,B-2,154.519,0.463,64,120.0
529,E-4,154.519,1.48,63,120.0
530,B-4,154.519,1.48,63,120.0
531,E-3,155.012,0.463,65,120.0
532,B-2,155.505,0.465,64,120.0
533,E-4,156.004,1.024,69,120.0
534,B-1,156.004,0.499,67,120.0
535,B-2,156.533,0.466,64,120.0
536,E-5,157.029,0.251,65,120.0
537,F3,157.029,0.463,65,120.0
538,E-5,157.281,0.24,64,120.0
539,E-5,157.522,0.241,64,120.0
540,B-3,157.522,0.468,64,120.0
541,E-5,157.765,0.255,64,120.0
542,E-5,158.021,0.468,67,120.0
543,F3,158.021,0.468,67,120.0
544,E-5,158.519,0.985,64,120.0
545,E-4,158.519,0.463,64,120.0
546,B-3,159.012,0.463,65,120.0
547,E-5,159.505,0.465,64,120.0
548,F3,159.505,0.465,64,120.0
549,B-2,160.004,0.499,69,120.0
550,C5,160.004,1.024,66,120.0
551,C#5,160.004,1.024,66,120.0
552,F5,160.004,1.024,66,120.0
553,F3,160.533,0.466,64,120.0
554,E-5,161.029,0.463,65,120.0
555,B-3,161.029,0.463,65,120.0
556,C5,161.522,0.995,64,120.0
557,E-4,161.522,0.468,64,120.0
558,B-3,162.021,0.468,67,120.0
559,F3,162.519,0.463,64,120.0
560,C5,162.519,1.48,63,120.0
561,E-5,162.519,1.48,63,120.0
562,B-2,163.012,0.463,65,120.0
563,B-3,163.505,0.465,64,120.0
564,E-4,164.004,1.024,69,120.0
565,C2,164.004,0.499,67,120.0
566,C3,164.533,0.466,64,120.0
567,E-5,165.029,0.463,65,120.0
568,G3,165.029,0.463,65,120.0
569,E-5,165.522,0.241,64,120.0
570,C4,165.522,0.468,64,120.0
571,E-5,165.765,0.255,64,120.0
572,E-5,166.021,0.468,67,120.0
573,G3,166.021,0.468,67,120.0
574,E-5,166.519,0.985,64,120.0
575,E-4,166.519,0.463,64,120.0
576,C4,167.012,0.463,65,120.0
577,E-5,167.505,0.465,64,120.0
578,G3,167.505,0.465,64,120.0
579,C3,168.004,0.499,69,120.0
580,C5,168.004,1.024,68,120.0
581,F5,168.004,1.024,68,120.0
582,G3,168.533,0.466,64,120.0
583,G5,169.029,0.463,65,120.0
584,C4,169.029,0.463,65,120.0
585,E-4,169.522,0.468,64,120.0
586,C5,169.522,0.995,61,120.0
587,F5,169.522,0.995,61,120.0
588,C4,170.021,0.468,67,120.0
589,G3,170.519,0.463,64,120.0
590,C5,170.519,1.48,63,120.0
591,E-5,170.519,1.48,63,120.0
592,E-3,171.012,0.463,65,120.0
593,C3,171.505,0.465,64,120.0
594,E-4,172.004,1.024,69,120.0
595,C#2,172.004,0.499,68,120.0
596,C#3,172.533,0.466,64,120.0
597,E-5,173.029,0.251,65,120.0
598,G#3,173.029,0.463,65,120.0
599,E-5,173.281,0.24,64,120.0
600,E-5,173.522,0.241,64,120.0
601,C#4,173.522,0.468,64,120.0
602,E-5,173.765,0.255,64,120.0
603,E-5,174.021,0.468,67,120.0
604,G#3,174.021,0.468,67,120.0
605,E-5,174.519,0.985,64,120.0
606,F4,174.519,0.463,64,120.0
607,C#4,175.012,0.463,65,120.0
608,E-5,175.505,0.465,64,120.0
609,G#3,175.505,0.465,64,120.0
610,C5,176.004,0.499,68,120.0
611,F5,176.004,0.499,68,120.0
612,C#3,176.004,0.499,68,120.0
613,E-5,176.533,0.988,64,120.0
614,G#3,176.533,0.466,64,120.0
615,C#4,177.029,0.463,65,120.0
616,C5,177.522,0.995,64,120.0
617,F4,177.522,0.468,64,120.0
618,C#4,178.021,0.468,67,120.0
619,E-5,178.519,0.985,64,120.0
620,G#3,178.519,0.463,64,120.0
621,C#3,179.012,0.987,65,120.0
622,E-5,179.505,0.465,64,120.0
623,E-2,180.004,0.499,68,120.0
624,F4,180.004,1.518,66,120.0
625,B-4,180.004,1.518,66,120.0
626,F5,180.004,1.518,66,120.0
627,B-2,180.533,0.466,64,120.0
628,E-3,181.029,0.463,65,120.0
629,E-5,181.522,0.468,64,120.0
630,G3,181.522,0.468,64,120.0
631,E-3,182.021,0.468,67,120.0
632,E-4,182.021,1.483,65,120.0
633,G4,182.021,1.483,65,120.0
634,E-5,182.021,1.483,65,120.0
635,B-2,182.519,0.463,64,120.0
636,E-2,183.012,0.463,64,120.0
637,E-4,183.505,0.494,63,120.0
638,E-5,183.505,0.494,63,120.0
639,E-3,183.505,0.494,63,120.0
640,F4,184.004,1.024,68,120.0
641,F5,184.004,1.024,68,120.0
642,E-2,184.004,1.024,68,120.0
643,E-3,184.004,1.024,68,120.0
644,E-3,185.029,0.99,65,120.0
645,E-4,185.029,0.492,64,120.0
646,E-5,185.029,0.492,64,120.0
647,F4,185.522,0.995,63,120.0
648,F5,185.522,0.995,63,120.0
649,E-4,186.021,0.99,67,120.0
650,G4,186.519,1.481,61,120.0
651,B-4,186.519,1.481,61,120.0
652,G5,186.519,1.481,61,120.0
653,E-2,187.012,0.987,64,120.0
654,E-3,187.012,0.987,64,120.0
655,G4,188.0,2.02,61,120.0
656,B-4,188.0,2.02,61,120.0
657,G5,188.0,2.02,61,120.0
658,E-1,188.004,2.016,64,120.0
659,G#4,190.021,0.739,66,120.0
660,G#5,190.021,0.739,66,120.0
661,G4,190.761,0.743,63,120.0
662,G5,190.761,0.743,63,120.0
663,G#4,191.505,0.495,61,120.0
664,C5,191.505,0.495,61,120.0
665,G#5,191.505,0.495,61,120.0
666,G#4,192.0,2.02,61,120.0
667,C5,192.0,2.02,61,120.0
668,G#5,192.0,2.02,61,120.0
669,F2,192.004,0.499,69,120.0
670,C3,192.533,0.466,64,120.0
671,F3,193.029,0.463,65,120.0
672,G#3,193.522,0.468,64,120.0
673,C4,194.021,0.99,67,120.0
674,G#4,194.021,0.739,66,120.0
675,G#5,194.021,0.739,66,120.0
676,G4,194.761,0.743,63,120.0
677,G5,194.761,0.743,63,120.0
678,E-4,195.012,0.987,65,120.0
679,B-4,195.505,0.495,61,120.0
680,E-5,195.505,0.495,61,120.0
681,B-5,195.505,0.495,61,120.0
682,B-4,196.0,2.02,61,120.0
683,E-5,196.0,2.02,61,120.0
684,B-5,196.0,2.02,61,120.0
685,C#2,196.004,0.499,68,120.0
686,G#2,196.533,0.466,64,120.0
687,C#3,197.029,0.463,65,120.0
688,G#3,197.522,0.468,64,120.0
689,C#4,198.021,0.468,67,120.0
690,G#4,198.519,0.463,63,120.0
691,G#5,198.519,0.463,63,120.0
692,G#3,198.519,0.463,63,120.0
693,G4,199.012,0.463,64,120.0
694,G5,199.012,0.463,64,120.0
695,C#3,199.012,0.463,64,120.0
696,G#4,199.505,0.465,63,120.0
697,G#5,199.505,0.465,63,120.0
698,G#3,199.505,0.465,63,120.0
699,E-2,200.004,0.499,68,120.0
700,B-4,200.004,1.024,66,120.0
701,E-5,200.004,1.024,66,120.0
702,B-5,200.004,1.024,66,120.0
703,E-3,200.533,0.466,64,120.0
704,B-3,201.029,0.99,65,120.0
705,E-4,201.029,0.492,64,120.0
706,E-5,201.029,0.492,64,120.0
707,C5,201.522,0.995,63,120.0
708,C6,201.522,0.995,63,120.0
709,E-4,202.021,0.468,67,120.0
710,B-3,202.519,1.48,64,120.0
711,C#5,202.519,0.492,61,120.0
712,G#5,202.519,0.492,61,120.0
713,C#6,202.519,0.492,61,120.0
714,C5,203.012,0.492,64,120.0
715,C6,203.012,0.492,64,120.0
716,C5,203.505,0.495,62,120.0
717,G#5,203.505,0.495,62,120.0
718,C6,203.505,0.495,62,120.0
719,C5,204.0,1.521,62,120.0
720,G#5,204.0,1.521,62,120.0
721,C6,204.0,1.521,62,120.0
722,G#2,204.004,0.499,69,120.0
723,E-3,204.533,0.466,64,120.0
724,G#3,205.029,0.463,65,120.0
725,G#4,205.522,0.468,63,120.0
726,G#5,205.522,0.468,63,120.0
727,C4,205.522,0.468,63,120.0
728,G#4,206.021,0.739,64,120.0
729,C5,206.021,0.739,64,120.0
730,G#5,206.021,0.739,64,120.0
731,G#2,206.021,0.739,64,120.0
732,G2,206.761,1.209,64,120.0
733,B-4,206.761,0.743,63,120.0
734,B-5,206.761,0.743,63,120.0
735,G#4,207.505,0.495,61,120.0
736,C5,207.505,0.495,61,120.0
737,G#5,207.505,0.495,61,120.0
738,G#4,208.0,2.02,61,120.0
739,C5,208.0,2.02,61,120.0
740,G#5,208.0,2.02,61,120.0
741,F2,208.004,1.024,69,120.0
742,C3,209.029,0.463,65,120.0
743,F3,209.522,0.468,64,120.0
744,G#4,210.021,0.739,64,120.0
745,C5,210.021,0.739,64,120.0
746,G#5,210.021,0.739,64,120.0
747,G#3,210.021,0.739,64,120.0
748,G4,210.761,0.743,63,120.0
749,G5,210.761,0.743,63,120.0
750,C4,210.761,0.743,63,120.0
751,B-4,211.505,0.495,61,120.0
752,E-5,211.505,0.495,61,120.0
753,B-5,211.505,0.495,61,120.0
754,B-4,212.0,2.02,61,120.0
755,E-5,212.0,2.02,61,120.0
756,B-5,212.0,2.02,61,120.0
757,C#2,212.004,0.499,68,120.0
758,G#2,212.533,0.466,64,120.0
759,C#3,213.029,0.463,65,120.0
760,G#3,213.522,0.468,64,120.0
761,C#4,214.021,0.468,67,120.0
762,G#4,214.519,0.463,63,120.0
763,G#5,214.519,0.463,63,120.0
764,G#3,214.519,0.463,63,120.0
765,G4,215.012,0.463,64,120.0
766,G5,215.012,0.463,64,120.0
767,C#3,215.012,0.463,64,120.0
768,G#4,215.505,0.465,63,120.0
769,G#5,215.505,0.465,63,120.0
770,G#3,215.505,0.465,63,120.0
771,E-2,216.004,0.499,68,120.0
772,B-4,216.004,1.024,68,120.0
773,B-5,216.004,1.024,68,120.0
774,E-3,216.533,0.466,64,120.0
775,B-3,217.029,0.99,65,120.0
776,E-4,217.029,0.492,64,120.0
777,E-5,217.029,0.492,64,120.0
778,C5,217.522,0.995,63,120.0
779,C6,217.522,0.995,63,120.0
780,E-4,218.021,0.468,67,120.0
781,B-3,218.519,1.48,64,120.0
782,B-4,218.519,0.492,63,120.0
783,B-5,218.519,0.492,63,120.0
784,G4,219.012,0.492,64,120.0
785,G5,219.012,0.492,64,120.0
786,G#4,219.505,0.495,63,120.0
787,G#5,219.505,0.495,63,120.0
788,G#4,220.0,2.02,63,120.0
789,G#5,220.0,2.02,63,120.0
790,G#2,220.004,0.499,69,120.0
791,E-3,220.533,0.466,64,120.0
792,G#3,221.029,0.463,65,120.0
793,E-4,221.522,0.468,64,120.0
794,G#5,222.021,0.739,66,120.0
795,G#6,222.021,0.739,66,120.0
796,G#4,222.021,0.739,66,120.0
797,G5,222.761,0.743,63,120.0
798,G6,222.761,0.743,63,120.0
799,G4,222.761,0.743,63,120.0
800,G#5,223.505,0.495,61,120.0
801,C6,223.505,0.495,61,120.0
802,G#6,223.505,0.495,61,120.0
803,G#5,224.0,2.02,61,120.0
804,C6,224.0,2.02,61,120.0
805,G#6,224.0,2.02,61,120.0
806,F3,224.004,0.499,69,120.0
807,C4,224.533,0.466,64,120.0
808,F4,225.029,0.463,65,120.0
809,G#4,225.522,0.497,64,120.0
810,C5,226.021,0.99,67,120.0
811,G#5,226.021,0.739,66,120.0
812,G#6,226.021,0.739,66,120.0
813,G5,226.761,0.743,63,120.0
814,G6,226.761,0.743,63,120.0
815,E-5,227.012,0.988,65,120.0
816,E-6,227.505,0.495,56,120.0
817,B-5,227.505,0.495,63,120.0
818,B-6,227.505,0.495,63,120.0
819,E-5,228.0,2.02,65,120.0
820,B-5,228.0,2.02,63,120.0
821,B-6,228.0,2.02,63,120.0
822,C#3,228.004,0.499,69,120.0
823,G#3,228.533,0.466,64,120.0
824,C#4,229.029,0.463,65,120.0
825,G#4,229.522,0.468,64,120.0
826,C#5,230.021,1.979,67,120.0
827,G#5,230.519,0.492,63,120.0
828,G#6,230.519,0.492,63,120.0
829,G5,231.012,0.492,64,120.0
830,G6,231.012,0.492,64,120.0
831,G#5,231.505,0.494,63,120.0
832,G#6,231.505,0.494,63,120.0
833,E-3,232.004,0.499,69,120.0
834,B-5,232.004,1.024,68,120.0
835,B-6,232.004,1.024,68,120.0
836,B-3,232.533,0.466,64,120.0
837,E-5,233.029,0.463,64,120.0
838,E-6,233.029,0.463,64,120.0
839,E-4,233.029,0.463,64,120.0
840,G#4,233.522,0.468,64,120.0
841,C6,233.522,0.995,63,120.0
842,C7,233.522,0.995,63,120.0
843,C5,234.021,0.99,67,120.0
844,C#6,234.519,0.985,63,120.0
845,C#7,234.519,0.985,63,120.0
846,G4,235.012,0.987,65,120.0
847,C7,235.505,0.495,70,120.0
848,C6,235.505,0.495,56,120.0
849,G#6,235.505,0.495,56,120.0
850,C7,236.0,2.02,70,120.0
851,G#3,236.004,0.499,69,120.0
852,E-4,236.533,0.466,64,120.0
853,G#4,237.029,0.463,65,120.0
854,C5,237.522,0.468,64,120.0
855,G#4,238.021,0.99,67,120.0
856,G#5,238.021,0.739,66,120.0
857,G#6,238.021,0.739,66,120.0
858,E-6,238.761,0.743,63,120.0
859,E-7,238.761,0.743,63,120.0
860,E-4,239.012,0.987,65,120.0
861,E-6,239.505,0.495,62,120.0
862,G#6,239.505,0.495,62,120.0
863,E-7,239.505,0.495,62,120.0
864,E-6,240.0,2.02,62,120.0
865,G#6,240.0,2.02,62,120.0
866,E-7,240.0,2.02,62,120.0
867,C3,240.004,0.499,69,120.0
868,G3,240.533,0.466,64,120.0
869,C4,241.029,0.463,65,120.0
870,E-4,241.522,0.468,64,120.0
871,G4,242.021,1.979,67,120.0
872,G#5,242.021,0.739,66,120.0
873,G#6,242.021,0.739,66,120.0
874,E-6,242.761,0.743,63,120.0
875,E-7,242.761,0.743,63,120.0
876,E-6,243.505,0.495,62,120.0
877,G#6,243.505,0.495,62,120.0
878,E-7,243.505,0.495,62,120.0
879,E-6,244.0,1.521,62,120.0
880,G#6,244.0,1.521,62,120.0
881,E-7,244.0,1.521,62,120.0
882,C#3,244.004,0.499,69,120.0
883,G#3,244.533,0.466,64,120.0
884,C#4,245.029,0.463,65,120.0
885,G#5,245.522,0.468,56,120.0
886,C6,245.522,0.995,63,120.0
887,G#6,245.522,0.995,63,120.0
888,G#4,245.522,0.995,63,120.0
889,C#5,246.021,1.979,67,120.0
890,G#5,246.519,0.492,63,120.0
891,G#6,246.519,0.492,63,120.0
892,G5,247.012,0.492,64,120.0
893,G6,247.012,0.492,64,120.0
894,G#5,247.505,0.494,63,120.0
895,G#6,247.505,0.494,63,120.0
896,F3,247.879,0.121,61,120.0
897,F3,248.0,2.02,61,120.0
898,F4,248.004,2.016,75,120.0
899,C6,248.004,1.024,68,120.0
900,C7,248.004,1.024,68,120.0
901,B-5,249.029,0.492,64,120.0
902,B-6,249.029,0.492,64,120.0
903,G#5,249.522,0.995,63,120.0
904,G#6,249.522,0.995,63,120.0
905,E-3,250.021,0.99,66,120.0
906,E-4,250.021,0.99,66,120.0
907,G5,250.519,0.985,63,120.0
908,G6,250.519,0.985,63,120.0
909,C#4,251.012,0.987,65,120.0
910,G#5,251.505,0.494,63,120.0
911,G#6,251.505,0.494,63,120.0
912,C3,252.004,1.024,69,120.0
913,G#5,252.004,1.518,66,120.0
914,C#6,252.004,1.518,66,120.0
915,G#6,252.004,1.518,66,120.0
916,G3,253.029,0.463,65,120.0
917,C4,253.522,0.995,64,120.0
918,E-5,253.522,1.488,61,120.0
919,G#5,253.522,1.488,61,120.0
920,E-6,253.522,1.488,61,120.0
921,G3,254.519,0.463,64,120.0
922,E-4,255.012,0.987,65,120.0
923,G#4,255.012,0.988,62,120.0
924,C5,255.012,0.988,62,120.0
925,G#5,255.012,0.988,62,120.0
926,G#4,256.0,0.532,62,120.0
927,C5,256.0,0.532,62,120.0
928,G#5,256.0,0.532,62,120.0
929,C#2,256.004,0.499,68,120.0
930,G4,256.533,0.466,63,120.0
931,G5,256.533,0.466,63,120.0
932,C#3,256.533,0.466,63,120.0
933,G#3,257.029,0.463,65,120.0
934,G#4,257.029,0.99,64,120.0
935,G#5,257.029,0.99,64,120.0
936,C#4,257.522,2.477,64,120.0
937,G4,258.021,0.497,66,120.0
938,G5,258.021,0.497,66,120.0
939,G#4,258.519,0.492,63,120.0
940,G#5,258.519,0.492,63,120.0
941,E-4,259.012,0.492,64,120.0
942,E-5,259.012,0.492,64,120.0
943,B-3,259.505,0.494,63,120.0
944,B-4,259.505,0.494,63,120.0
945,E-2,260.004,0.499,68,120.0
946,G#4,260.004,1.518,68,120.0
947,G#5,260.004,1.518,68,120.0
948,B-2,260.533,0.466,64,120.0
949,E-3,261.029,0.463,65,120.0
950,B-3,261.522,0.468,64,120.0
951,E-5,261.522,1.488,61,120.0
952,G#5,261.522,1.488,61,120.0
953,E-6,261.522,1.488,61,120.0
954,E-4,262.021,0.468,67,120.0
955,G4,262.519,1.48,64,120.0
956,G#4,263.012,0.988,62,120.0
957,C5,263.012,0.988,62,120.0
958,G#5,263.012,0.988,62,120.0
959,G#4,264.0,0.532,62,120.0
960,C5,264.0,0.532,62,120.0
961,G#5,264.0,0.532,62,120.0
962,G#2,264.004,0.499,69,120.0
963,G#4,264.533,0.466,63,120.0
964,G#5,264.533,0.466,63,120.0
965,E-3,264.533,0.466,63,120.0
966,G#3,265.029,0.463,65,120.0
967,B-4,265.029,0.99,64,120.0
968,B-5,265.029,0.99,64,120.0
969,C4,265.522,0.468,64,120.0
970,C#5,266.021,0.468,66,120.0
971,C#6,266.021,0.468,66,120.0
972,E-4,266.021,0.468,66,120.0
973,C4,266.519,1.48,64,120.0
974,C5,266.519,0.492,63,120.0
975,C6,266.519,0.492,63,120.0
976,B-4,267.012,0.492,64,120.0
977,B-5,267.012,0.492,64,120.0
978,G#4,267.505,0.494,63,120.0
979,G#5,267.505,0.494,63,120.0
980,C2,268.004,0.499,67,120.0
981,G#4,268.004,1.518,66,120.0
982,C5,268.004,1.518,66,120.0
983,G#5,268.004,1.518,66,120.0
984,G2,268.533,0.466,64,120.0
985,C3,269.029,0.463,65,120.0
986,E-3,269.522,0.468,64,120.0
987,E-5,269.522,1.488,61,120.0
988,G#5,269.522,1.488,61,120.0
989,E-6,269.522,1.488,61,120.0
990,G#3,270.021,0.468,67,120.0
991,C4,270.519,1.48,64,120.0
992,G#4,271.012,0.988,62,120.0
993,C5,271.012,0.988,62,120.0
994,G#5,271.012,0.988,62,120.0
995,G#4,272.0,0.532,62,120.0
996,C5,272.0,0.532,62,120.0
997,G#5,272.0,0.532,62,120.0
998,C#2,272.004,0.499,68,120.0
999,G4,272.533,0.466,63,120.0
1000,G5,272.533,0.466,63,120.0
1001,C#3,272.533,0.466,63,120.0
1002,G#5,273.029,0.99,65,120.0
1003,G#3,273.029,0.463,65,120.0
1004,C#4,273.522,2.477,64,120.0
1005,G4,274.021,0.497,66,120.0
1006,G5,274.021,0.497,66,120.0
1007,G#4,274.519,0.492,63,120.0
1008,G#5,274.519,0.492,63,120.0
1009,E-4,275.012,0.492,64,120.0
1010,E-5,275.012,0.492,64,120.0
1011,G#3,275.505,0.494,63,120.0
1012,G#4,275.505,0.494,63,120.0
1013,F2,275.879,0.121,61,120.0
1014,F2,276.0,1.521,61,120.0
1015,G#3,276.004,1.518,75,120.0
1016,G#4,276.004,0.528,68,120.0
1017,G#5,276.004,0.528,68,120.0
1018,G4,276.533,0.495,63,120.0
1019,G5,276.533,0.495,63,120.0
1020,G#4,277.029,0.492,64,120.0
1021,G#5,277.029,0.492,64,120.0
1022,E-2,277.522,0.468,63,120.0
1023,B-4,277.522,0.995,61,120.0
1024,E-5,277.522,0.995,61,120.0
1025,B-5,277.522,0.995,61,120.0
1026,G3,278.021,1.979,67,120.0
1027,G#4,278.519,0.492,63,120.0
1028,G#5,278.519,0.492,63,120.0
1029,B-4,279.012,0.492,64,120.0
1030,B-5,279.012,0.492,64,120.0
1031,E-5,279.505,0.495,61,120.0
1032,G#5,279.505,0.495,61,120.0
1033,E-6,279.505,0.495,61,120.0
1034,E-5,280.0,0.532,61,120.0
1035,G#5,280.0,0.532,61,120.0
1036,E-6,280.0,0.532,61,120.0
1037,C#2,280.004,2.016,68,120.0
1038,G#4,280.533,0.466,64,120.0
1039,G#5,281.029,0.463,65,120.0
1040,B-4,281.522,0.497,63,120.0
1041,B-5,281.522,0.497,63,120.0
1042,C#5,282.021,0.497,66,120.0
1043,C#6,282.021,0.497,66,120.0
1044,C5,282.519,0.492,63,120.0
1045,C6,282.519,0.492,63,120.0
1046,B-4,283.012,0.492,64,120.0
1047,B-5,283.012,0.492,64,120.0
1048,G#4,283.505,0.494,63,120.0
1049,G#5,283.505,0.494,63,120.0
1050,G#2,284.004,2.016,69,120.0
1051,A4,286.021,0.739,66,120.0
1052,A5,286.021,0.739,66,120.0
1053,G#4,286.761,0.743,63,120.0
1054,G#5,286.761,0.743,63,120.0
1055,A4,287.505,0.495,61,120.0
1056,C#5,287.505,0.495,61,120.0
1057,A5,287.505,0.495,61,120.0
1058,A4,288.0,2.02,61,120.0
1059,C#5,288.0,2.02,61,120.0
1060,A5,288.0,2.02,61,120.0
1061,F#1,288.004,1.024,66,120.0
1062,F#2,288.004,1.024,66,120.0
1063,C#3,289.029,0.463,65,120.0
1064,F#3,289.522,0.468,64,120.0
1065,C#3,290.021,1.979,67,120.0
1066,A4,290.021,0.739,66,120.0
1067,A5,290.021,0.739,66,120.0
1068,G#4,290.761,0.743,63,120.0
1069,G#5,290.761,0.743,63,120.0
1070,B4,291.505,0.495,61,120.0
1071,D5,291.505,0.495,61,120.0
1072,B5,291.505,0.495,61,120.0
1073,B4,292.0,2.02,61,120.0
1074,D5,292.0,2.02,61,120.0
1075,B5,292.0,2.02,61,120.0
1076,D2,292.004,0.499,68,120.0
1077,A2,292.533,0.466,64,120.0
1078,D3,293.029,0.463,65,120.0
1079,F#3,293.522,0.468,64,120.0
1080,A3,294.021,0.468,67,120.0
1081,D4,294.519,0.985,64,120.0
1082,A4,294.519,0.492,63,120.0
1083,A5,294.519,0.492,63,120.0
1084,G#4,295.012,0.492,64,120.0
1085,G#5,295.012,0.492,64,120.0
1086,A4,295.505,0.465,63,120.0
1087,A5,295.505,0.465,63,120.0
1088,D3,295.505,0.465,63,120.0
1089,E2,296.004,0.499,68,120.0
1090,B4,296.004,1.024,66,120.0
1091,E5,296.004,1.024,66,120.0
1092,B5,296.004,1.024,66,120.0
1093,B2,296.533,0.466,64,120.0
1094,E4,297.029,0.463,64,120.0
1095,E5,297.029,0.463,64,120.0
1096,E3,297.029,0.463,64,120.0
1097,G#3,297.522,0.468,64,120.0
1098,C#5,297.522,0.995,63,120.0
1099,C#6,297.522,0.995,63,120.0
1100,B3,298.021,0.468,67,120.0
1101,E4,298.519,1.48,64,120.0
1102,D5,298.519,0.985,61,120.0
1103,F#5,298.519,0.985,61,120.0
1104,D6,298.519,0.985,61,120.0
1105,C#5,299.505,0.495,61,120.0
1106,E5,299.505,0.495,61,120.0
1107,C#6,299.505,0.495,61,120.0
1108,C#5,300.0,1.521,61,120.0
1109,E5,300.0,1.521,61,120.0
1110,C#6,300.0,1.521,61,120.0
1111,A2,300.004,0.499,69,120.0
1112,C#3,300.533,0.466,64,120.0
1113,E3,301.029,0.463,65,120.0
1114,A5,301.522,0.497,62,120.0
1115,A2,301.522,0.497,62,120.0
1116,A3,301.522,0.497,62,120.0
1117,A4,302.021,0.739,64,120.0
1118,C#5,302.021,0.739,64,120.0
1119,A5,302.021,0.739,64,120.0
1120,A2,302.021,0.99,65,120.0
1121,E3,302.021,0.99,65,120.0
1122,A3,302.021,0.99,65,120.0
1123,G#4,302.761,0.743,63,120.0
1124,G#5,302.761,0.743,63,120.0
1125,G#2,303.012,0.987,65,120.0
1126,A4,303.505,0.495,60,120.0
1127,C#5,303.505,0.495,60,120.0
1128,E5,303.505,0.495,60,120.0
1129,A5,303.505,0.495,60,120.0
1130,A4,304.0,2.02,60,120.0
1131,C#5,304.0,2.02,60,120.0
1132,E5,304.0,2.02,60,120.0
1133,A5,304.0,2.02,60,120.0
1134,F#1,304.004,1.024,66,120.0
1135,F#2,304.004,1.024,66,120.0
1136,C#3,305.029,0.463,65,120.0
1137,F#3,305.522,0.497,64,120.0
1138,A4,306.021,0.739,64,120.0
1139,C#5,306.021,0.739,64,120.0
1140,A5,306.021,0.739,64,120.0
1141,F#2,306.021,0.99,64,120.0
1142,C#3,306.021,0.99,64,120.0
1143,F#3,306.021,0.99,64,120.0
1144,G#4,306.761,0.743,63,120.0
1145,G#5,306.761,0.743,63,120.0
1146,E3,307.012,0.987,65,120.0
1147,B4,307.505,0.495,61,120.0
1148,D5,307.505,0.495,61,120.0
1149,B5,307.505,0.495,61,120.0
1150,B4,308.0,2.02,61,120.0
1151,D5,308.0,2.02,61,120.0
1152,B5,308.0,2.02,61,120.0
1153,D2,308.004,0.499,68,120.0
1154,A2,308.533,0.466,64,120.0
1155,D3,309.029,0.463,65,120.0
1156,F#3,309.522,0.468,64,120.0
1157,A3,310.021,0.468,67,120.0
1158,A4,310.519,0.463,63,120.0
1159,A5,310.519,0.463,63,120.0
1160,D4,310.519,0.463,63,120.0
1161,G#4,311.012,0.463,64,120.0
1162,G#5,311.012,0.463,64,120.0
1163,F#3,311.012,0.463,64,120.0
1164,A4,311.505,0.465,63,120.0
1165,A5,311.505,0.465,63,120.0
1166,D3,311.505,0.465,63,120.0
1167,E2,312.004,0.499,68,120.0
1168,B4,312.004,1.024,66,120.0
1169,E5,312.004,1.024,66,120.0
1170,B5,312.004,1.024,66,120.0
1171,B2,312.533,0.466,64,120.0
1172,E4,313.029,0.463,64,120.0
1173,E5,313.029,0.463,64,120.0
1174,E3,313.029,0.463,64,120.0
1175,G#3,313.522,0.468,64,120.0
1176,C#5,313.522,0.995,63,120.0
1177,C#6,313.522,0.995,63,120.0
1178,B3,314.021,0.468,67,120.0
1179,B4,314.519,0.463,62,120.0
1180,E-5,314.519,0.463,62,120.0
1181,B5,314.519,0.463,62,120.0
1182,E4,314.519,0.463,62,120.0
1183,B3,315.012,0.987,65,120.0
1184,G#4,315.012,0.492,64,120.0
1185,G#5,315.012,0.492,64,120.0
1186,A4,315.505,0.495,60,120.0
1187,C#5,315.505,0.495,60,120.0
1188,E5,315.505,0.495,60,120.0
1189,A5,315.505,0.495,60,120.0
1190,A4,316.0,2.02,60,120.0
1191,C#5,316.0,2.02,60,120.0
1192,E5,316.0,2.02,60,120.0
1193,A5,316.0,2.02,60,120.0
1194,A2,316.004,0.499,69,120.0
1195,C#3,316.533,0.466,64,120.0
1196,E3,317.029,0.463,65,120.0
1197,A3,317.522,0.468,64,120.0
1198,A4,317.833,0.927,59,120.0
1199,D5,317.896,0.864,59,120.0
1200,E5,317.958,0.802,59,120.0
1201,A5,318.021,0.739,73,120.0
1202,E3,318.021,1.979,67,120.0
1203,G#4,318.761,0.743,63,120.0
1204,G#5,318.761,0.743,63,120.0
1205,A4,319.505,0.495,60,120.0
1206,D5,319.505,0.495,60,120.0
1207,E5,319.505,0.495,60,120.0
1208,A5,319.505,0.495,60,120.0
1209,A4,320.0,2.02,60,120.0
1210,D5,320.0,2.02,60,120.0
1211,E5,320.0,2.02,60,120.0
1212,A5,320.0,2.02,60,120.0
1213,F#1,320.004,1.024,66,120.0
1214,F#2,320.004,1.024,66,120.0
1215,C#3,321.029,0.463,65,120.0
1216,F#3,321.522,0.497,64,120.0
1217,A4,322.021,0.739,64,120.0
1218,D5,322.021,0.739,64,120.0
1219,A5,322.021,0.739,64,120.0
1220,F#2,322.021,1.979,64,120.0
1221,C#3,322.021,1.979,64,120.0
1222,F#3,322.021,1.979,64,120.0
1223,G#4,322.761,0.743,63,120.0
1224,G#5,322.761,0.743,63,120.0
1225,B4,323.505,0.495,61,120.0
1226,D5,323.505,0.495,61,120.0
1227,B5,323.505,0.495,61,120.0
1228,B4,324.0,2.02,61,120.0
1229,D5,324.0,2.02,61,120.0
1230,B5,324.0,2.02,61,120.0
1231,D1,324.004,0.499,64,120.0
1232,A1,324.533,0.228,61,120.0
1233,D2,324.776,0.237,63,120.0
1234,F#2,325.029,0.236,65,120.0
1235,A2,325.281,0.226,64,120.0
1236,D3,325.522,0.227,64,120.0
1237,F#3,325.765,0.24,64,120.0
1238,A3,326.021,0.99,67,120.0
1239,A4,326.519,0.492,63,120.0
1240,A5,326.519,0.492,63,120.0
1241,G#4,327.012,0.492,64,120.0
1242,G#5,327.012,0.492,64,120.0
1243,A3,327.012,0.987,64,120.0
1244,D4,327.012,0.987,64,120.0
1245,A4,327.505,0.494,63,120.0
1246,A5,327.505,0.494,63,120.0
1247,E1,328.004,0.271,65,120.0
1248,B4,328.004,1.024,66,120.0
1249,E5,328.004,1.024,66,120.0
1250,B5,328.004,1.024,66,120.0
1251,B1,328.29,0.228,62,120.0
1252,E2,328.533,0.228,63,120.0
1253,G#2,328.776,0.237,64,120.0
1254,B2,329.029,0.236,65,120.0
1255,E4,329.029,0.492,64,120.0
1256,E5,329.029,0.492,64,120.0
1257,E3,329.281,0.226,64,120.0
1258,G#3,329.522,0.227,64,120.0
1259,C#5,329.522,0.995,63,120.0
1260,C#6,329.522,0.995,63,120.0
1261,B3,329.765,0.24,64,120.0
1262,E4,330.021,0.99,67,120.0
1263,D5,330.519,0.985,61,120.0
1264,F#5,330.519,0.985,61,120.0
1265,D6,330.519,0.985,61,120.0
1266,G#3,331.012,0.987,62,120.0
1267,B3,331.012,0.987,62,120.0
1268,E4,331.012,0.987,62,120.0
1269,C#5,331.505,0.495,61,120.0
1270,E5,331.505,0.495,61,120.0
1271,C#6,331.505,0.495,61,120.0
1272,C#5,332.0,2.02,61,120.0
1273,E5,332.0,2.02,61,120.0
1274,C#6,332.0,2.02,61,120.0
1275,A1,332.004,0.528,66,120.0
1276,A2,332.004,0.528,66,120.0
1277,C#3,332.533,0.466,64,120.0
1278,E3,333.029,0.463,65,120.0
1279,A3,333.522,0.497,64,120.0
1280,A4,334.021,0.739,64,120.0
1281,E5,334.021,0.739,64,120.0
1282,A5,334.021,0.739,64,120.0
1283,E3,334.021,1.979,66,120.0
1284,A3,334.021,1.979,66,120.0
1285,E5,334.761,0.743,63,120.0
1286,E6,334.761,0.743,63,120.0
1287,E5,335.505,0.495,63,120.0
1288,A5,335.505,0.495,63,120.0
1289,B5,335.505,0.495,63,120.0
1290,E6,335.505,0.495,63,120.0
1291,E5,336.0,2.02,63,120.0
1292,A5,336.0,2.02,63,120.0
1293,B5,336.0,2.02,63,120.0
1294,E6,336.0,2.02,63,120.0
1295,F#1,336.004,1.024,66,120.0
1296,F#2,336.004,1.024,66,120.0
1297,C#3,337.029,0.463,65,120.0
1298,F#3,337.522,0.468,64,120.0
1299,F#2,338.021,1.979,67,120.0
1300,A4,338.021,0.739,64,120.0
1301,E5,338.021,0.739,64,120.0
1302,A5,338.021,0.739,64,120.0
1303,E5,338.761,0.743,63,120.0
1304,E6,338.761,0.743,63,120.0
1305,B5,339.505,0.495,67,120.0
1306,E5,339.505,0.495,62,120.0
1307,A5,339.505,0.495,62,120.0
1308,E6,339.505,0.495,62,120.0
1309,E5,340.0,1.521,62,120.0
1310,A5,340.0,1.521,62,120.0
1311,E6,340.0,1.521,62,120.0
1312,D2,340.004,0.499,68,120.0
1313,A2,340.533,0.466,64,120.0
1314,D3,341.029,0.463,65,120.0
1315,F#3,341.522,1.488,64,120.0
1316,A4,341.522,0.995,61,120.0
1317,C#5,341.522,0.995,61,120.0
1318,A5,341.522,0.995,61,120.0
1319,A4,342.519,0.492,63,120.0
1320,A5,342.519,0.492,63,120.0
1321,G#4,343.012,0.492,64,120.0
1322,G#5,343.012,0.492,64,120.0
1323,F#3,343.012,0.987,62,120.0
1324,A3,343.012,0.987,62,120.0
1325,D4,343.012,0.987,62,120.0
1326,A4,343.505,0.494,63,120.0
1327,A5,343.505,0.494,63,120.0
1328,C#5,344.004,1.024,68,120.0
1329,C#6,344.004,1.024,68,120.0
1330,B1,344.004,2.016,67,120.0
1331,B2,344.004,2.016,67,120.0
1332,B4,345.029,0.492,64,120.0
1333,B5,345.029,0.492,64,120.0
1334,A4,345.522,0.995,63,120.0
1335,A5,345.522,0.995,63,120.0
1336,A1,346.021,0.99,64,120.0
1337,A2,346.021,0.99,64,120.0
1338,G#4,346.519,0.985,63,120.0
1339,G#5,346.519,0.985,63,120.0
1340,G#1,347.012,0.987,62,120.0
1341,G#2,347.012,0.987,62,120.0
1342,A5,347.505,0.494,64,120.0
1343,A4,348.004,1.518,64,120.0
1344,C#5,348.004,1.518,64,120.0
1345,E5,348.004,1.518,64,120.0
1346,A5,348.004,1.518,64,120.0
1347,F#1,348.004,1.024,66,120.0
1348,F#2,348.004,1.024,66,120.0
1349,C#3,349.029,0.463,65,120.0
1350,F#3,349.522,0.995,64,120.0
1351,E5,349.522,1.488,60,120.0
1352,G#5,349.522,1.488,60,120.0
1353,B5,349.522,1.488,60,120.0
1354,E6,349.522,1.488,60,120.0
1355,A3,350.519,0.492,63,120.0
1356,B3,350.519,0.492,63,120.0
1357,A4,351.012,0.988,64,120.0
1358,A5,351.012,0.988,64,120.0
1359,C#5,351.012,0.987,60,120.0
1360,E5,351.012,0.987,60,120.0
1361,F#3,351.012,0.987,60,120.0
1362,A4,352.0,0.532,64,120.0
1363,A5,352.0,0.532,64,120.0
1364,D2,352.004,0.499,68,120.0
1365,G#4,352.533,0.466,63,120.0
1366,G#5,352.533,0.466,63,120.0
1367,A2,352.533,0.466,63,120.0
1368,D3,353.029,0.463,65,120.0
1369,A4,353.029,0.99,64,120.0
1370,A5,353.029,0.99,64,120.0
1371,F#3,353.522,0.468,64,120.0
1372,G#4,354.021,0.468,66,120.0
1373,G#5,354.021,0.468,66,120.0
1374,A3,354.021,0.468,66,120.0
1375,D4,354.519,1.451,64,120.0
1376,A4,354.519,0.492,63,120.0
1377,A5,354.519,0.492,63,120.0
1378,E4,355.012,0.492,64,120.0
1379,E5,355.012,0.492,64,120.0
1380,D4,355.505,0.494,63,120.0
1381,D5,355.505,0.494,63,120.0
1382,E2,356.004,0.499,68,120.0
1383,A4,356.004,1.518,68,120.0
1384,A5,356.004,1.518,68,120.0
1385,B2,356.533,0.466,64,120.0
1386,E3,357.029,0.463,65,120.0
1387,G#3,357.522,0.468,64,120.0
1388,E5,357.522,1.488,61,120.0
1389,A5,357.522,1.488,61,120.0
1390,E6,357.522,1.488,61,120.0
1391,B3,358.021,0.468,67,120.0
1392,E4,358.519,1.48,64,120.0
1393,A4,359.012,0.988,64,120.0
1394,A5,359.012,0.988,64,120.0
1395,C#5,359.012,0.987,57,120.0
1396,E5,359.012,0.987,57,120.0
1397,A4,360.0,0.532,64,120.0
1398,A5,360.0,0.532,64,120.0
1399,A2,360.004,0.499,69,120.0
1400,A4,360.533,0.466,63,120.0
1401,A5,360.533,0.466,63,120.0
1402,E3,360.533,0.466,63,120.0
1403,A3,361.029,0.463,65,120.0
1404,B4,361.029,0.99,64,120.0
1405,B5,361.029,0.99,64,120.0
1406,E3,361.522,0.468,64,120.0
1407,D5,362.021,0.497,65,120.0
1408,D6,362.021,0.497,65,120.0
1409,G#1,362.021,0.497,65,120.0
1410,G#2,362.021,0.497,65,120.0
1411,C#5,362.519,0.463,63,120.0
1412,C#6,362.519,0.463,63,120.0
1413,D3,362.519,0.463,63,120.0
1414,G#3,363.012,0.987,65,120.0
1415,B4,363.012,0.492,64,120.0
1416,B5,363.012,0.492,64,120.0
1417,C#5,363.505,0.494,63,120.0
1418,C#6,363.505,0.494,63,120.0
1419,A4,364.004,1.518,64,120.0
1420,B4,364.004,1.518,64,120.0
1421,D5,364.004,1.518,64,120.0
1422,A5,364.004,1.518,64,120.0
1423,F#1,364.004,1.024,66,120.0
1424,F#2,364.004,1.024,66,120.0
1425,C#3,365.029,0.463,65,120.0
1426,E5,365.522,1.488,60,120.0
1427,G#5,365.522,1.488,60,120.0
1428,B5,365.522,1.488,60,120.0
1429,E6,365.522,1.488,60,120.0
1430,F#2,365.522,0.995,63,120.0
1431,F#3,365.522,0.995,63,120.0
1432,A3,366.519,0.463,64,120.0
1433,F#3,367.012,0.987,65,120.0
1434,A4,367.012,0.988,60,120.0
1435,C#5,367.012,0.988,60,120.0
1436,E5,367.012,0.988,60,120.0
1437,A5,367.012,0.988,60,120.0
1438,A4,368.0,0.532,60,120.0
1439,C#5,368.0,0.532,60,120.0
1440,E5,368.0,0.532,60,120.0
1441,A5,368.0,0.532,60,120.0
1442,D2,368.004,0.499,68,120.0
1443,G#4,368.533,0.466,63,120.0
1444,G#5,368.533,0.466,63,120.0
1445,A2,368.533,0.466,63,120.0
1446,D3,369.029,0.463,65,120.0
1447,A4,369.029,0.99,64,120.0
1448,A5,369.029,0.99,64,120.0
1449,F#3,369.522,0.468,64,120.0
1450,G#4,370.021,0.468,66,120.0
1451,G#5,370.021,0.468,66,120.0
1452,A3,370.021,0.468,66,120.0
1453,D4,370.519,1.451,64,120.0
1454,A4,370.519,0.492,63,120.0
1455,A5,370.519,0.492,63,120.0
1456,E4,371.012,0.492,64,120.0
1457,E5,371.012,0.492,64,120.0
1458,D4,371.505,0.494,63,120.0
1459,D5,371.505,0.494,63,120.0
1460,A4,372.004,0.528,68,120.0
1461,A5,372.004,0.528,68,120.0
1462,F#1,372.004,1.518,66,120.0
1463,F#2,372.004,1.518,66,120.0
1464,G#4,372.533,0.495,63,120.0
1465,G#5,372.533,0.495,63,120.0
1466,A4,373.029,0.492,64,120.0
1467,A5,373.029,0.492,64,120.0
1468,B4,373.522,0.995,61,120.0
1469,E5,373.522,0.995,61,120.0
1470,B5,373.522,0.995,61,120.0
1471,E1,373.522,2.477,60,120.0
1472,E2,373.522,2.477,60,120.0
1473,A4,374.519,0.492,63,120.0
1474,A5,374.519,0.492,63,120.0
1475,B4,375.012,0.492,64,120.0
1476,B5,375.012,0.492,64,120.0
1477,E5,375.505,0.495,61,120.0
1478,A5,375.505,0.495,61,120.0
1479,E6,375.505,0.495,61,120.0
1480,E5,376.0,4.0,61,120.0
1481,A5,376.0,4.0,61,120.0
1482,E6,376.0,4.0,61,120.0
1483,D1,376.004,3.996,60,120.0
1484,D2,376.004,3.996,60,120.0
1485,E5,380.0,3.999,61,120.0
1486,A5,380.0,3.999,61,120.0
1487,E6,380.0,3.999,61,120.0
1488,D1,380.0,3.999,60,120.0
1489,D2,380.0,3.999,60,120.0
1490,E6,383.816,0.184,56,120.0
1491,A6,383.879,0.121,56,120.0
1492,B6,383.941,0.059,67,120.0
1493,E6,384.0,3.999,56,120.0
1494,A6,384.0,3.999,56,120.0
1495,B6,384.0,3.999,67,120.0
1496,E7,384.004,3.995,62,120.0
