,note_name,start_time,duration,velocity,tempo
0,G#5,0.01,0.49,80,120.0
1,C#4,0.01,2.99,72,120.0
2,F4,0.01,2.99,72,120.0
3,G#4,0.01,2.99,72,120.0
4,C#6,0.53,0.23,75,120.0
5,C#5,0.776,0.229,75,120.0
6,G#5,1.021,0.231,75,120.0
7,E-6,1.269,0.238,75,120.0
8,E-5,1.522,0.238,75,120.0
9,G#5,1.776,0.229,75,120.0
10,C#6,2.021,0.225,75,120.0
11,C#5,2.261,0.225,75,120.0
12,G#5,2.501,0.229,75,120.0
13,C6,2.746,0.238,75,120.0
14,C#5,3.0,0.268,80,120.0
15,C#4,3.0,0.775,72,120.0
16,F4,3.0,0.775,72,120.0
17,G#4,3.0,0.775,72,120.0
18,C#6,3.283,0.231,75,120.0
19,C#5,3.53,0.23,75,120.0
20,G#5,3.776,0.229,75,120.0
21,E-4,3.776,2.224,72,120.0
22,F#4,3.776,2.224,72,120.0
23,B-4,3.776,2.224,72,120.0
24,C#5,4.021,0.231,75,120.0
25,C#6,4.269,0.238,75,120.0
26,C#5,4.522,0.238,75,120.0
27,G#5,4.776,0.229,75,120.0
28,E-6,5.021,0.225,75,120.0
29,E-5,5.261,0.225,75,120.0
30,G#5,5.501,0.229,75,120.0
31,C#6,5.746,0.238,75,120.0
32,C#5,6.0,0.268,80,120.0
33,E-4,6.0,1.521,72,120.0
34,F#4,6.0,1.521,72,120.0
35,B-4,6.0,1.521,72,120.0
36,G#5,6.283,0.231,75,120.0
37,C6,6.53,0.23,75,120.0
38,C#5,6.776,0.229,75,120.0
39,C#6,7.021,0.231,75,120.0
40,C#5,7.269,0.238,75,120.0
41,G#5,7.522,0.238,75,120.0
42,F4,7.522,1.478,72,120.0
43,G#4,7.522,1.478,72,120.0
44,C5,7.522,1.478,72,120.0
45,C#5,7.776,0.229,75,120.0
46,C#6,8.021,0.225,75,120.0
47,C#5,8.261,0.225,75,120.0
48,G#5,8.501,0.229,75,120.0
49,E-6,8.746,0.238,75,120.0
50,E-5,9.0,0.268,80,120.0
51,F4,9.0,2.26,72,120.0
52,G#4,9.0,2.26,72,120.0
53,C5,9.0,2.26,72,120.0
54,G#5,9.283,0.231,75,120.0
55,C#6,9.53,0.23,75,120.0
56,C#5,9.776,0.229,75,120.0
57,G#5,10.021,0.231,75,120.0
58,C6,10.269,0.238,75,120.0
59,C#5,10.522,0.238,75,120.0
60,C#6,10.776,0.229,75,120.0
61,C#5,11.021,0.225,75,120.0
62,G#5,11.261,0.225,75,120.0
63,F#4,11.261,0.739,74,120.0
64,B-4,11.261,0.739,74,120.0
65,C#5,11.501,0.229,75,120.0
66,C#6,11.746,0.238,75,120.0
67,C#5,12.0,0.268,80,120.0
68,F#4,12.0,2.999,74,120.0
69,B-4,12.0,2.999,74,120.0
70,G#5,12.283,0.231,75,120.0
71,E-6,12.53,0.23,75,120.0
72,E-5,12.776,0.229,75,120.0
73,G#5,13.021,0.231,75,120.0
74,C#6,13.269,0.238,75,120.0
75,C#5,13.522,0.238,75,120.0
76,G#5,13.776,0.229,75,120.0
77,C6,14.021,0.225,75,120.0
78,C#5,14.261,0.225,75,120.0
79,C#6,14.501,0.229,75,120.0
80,C#5,14.746,0.238,75,120.0
81,G#5,15.0,0.268,80,120.0
82,C#3,15.0,3.0,74,120.0
83,E-4,15.0,3.0,74,120.0
84,C#5,15.283,0.231,75,120.0
85,C#6,15.53,0.23,75,120.0
86,C#5,15.776,0.229,75,120.0
87,G#5,16.021,0.231,75,120.0
88,E-6,16.269,0.238,75,120.0
89,E-5,16.522,0.238,75,120.0
90,G#5,16.776,0.229,75,120.0
91,C#6,17.021,0.225,75,120.0
92,C#5,17.261,0.225,75,120.0
93,G#5,17.501,0.229,75,120.0
94,C6,17.746,0.238,75,120.0
95,C#5,18.775,0.268,80,120.0
96,C#3,18.775,0.775,74,120.0
97,E-4,18.775,0.775,74,120.0
98,C#6,19.059,0.231,75,120.0
99,C#5,19.306,0.23,75,120.0
100,G#5,19.552,0.229,75,120.0
101,E-3,19.552,2.224,74,120.0
102,F#4,19.552,2.224,74,120.0
103,C#5,19.797,0.231,75,120.0
104,C#6,20.044,0.238,75,120.0
105,C#5,20.298,0.238,75,120.0
106,G#5,20.552,0.229,75,120.0
107,E-6,20.796,0.225,75,120.0
108,E-5,21.036,0.225,75,120.0
109,G#5,21.276,0.229,75,120.0
110,C#6,21.521,0.238,75,120.0
111,C#5,21.775,0.268,80,120.0
112,E-3,21.775,1.521,74,120.0
113,F#4,21.775,1.521,74,120.0
114,G#5,22.059,0.231,75,120.0
115,C6,22.306,0.23,75,120.0
116,C#5,22.552,0.229,75,120.0
117,C#6,22.797,0.231,75,120.0
118,C#5,23.044,0.238,75,120.0
119,G#5,23.298,0.238,75,120.0
120,F3,23.298,1.478,74,120.0
121,G#4,23.298,1.478,74,120.0
122,C#5,23.552,0.229,75,120.0
123,C#6,23.796,0.225,75,120.0
124,C#5,24.036,0.225,75,120.0
125,G#5,24.276,0.229,75,120.0
126,E-6,24.521,0.238,75,120.0
127,E-5,24.775,0.268,80,120.0
128,F3,24.775,2.26,74,120.0
129,G#4,24.775,2.26,74,120.0
130,G#5,25.059,0.231,75,120.0
131,C#6,25.306,0.23,75,120.0
132,C#5,25.552,0.229,75,120.0
133,G#5,25.797,0.231,75,120.0
134,C6,26.044,0.238,75,120.0
135,C#5,26.298,0.238,75,120.0
136,C#6,26.552,0.229,75,120.0
137,C#5,26.796,0.225,75,120.0
138,G#5,27.036,0.225,75,120.0
139,F#3,27.036,0.739,74,120.0
140,B-4,27.036,0.739,74,120.0
141,C#5,27.276,0.229,75,120.0
142,C#6,27.521,0.238,75,120.0
143,C#5,27.775,0.268,80,120.0
144,F#3,27.775,2.999,74,120.0
145,B-4,27.775,2.999,74,120.0
146,G#5,28.059,0.231,75,120.0
147,E-6,28.306,0.23,75,120.0
148,E-5,28.552,0.229,75,120.0
149,G#5,28.797,0.231,75,120.0
150,C#6,29.044,0.238,75,120.0
151,C#5,29.298,0.238,75,120.0
152,G#5,29.552,0.229,75,120.0
153,C6,29.796,0.225,75,120.0
154,C#5,30.036,0.225,75,120.0
155,C#6,30.276,0.229,75,120.0
156,C#5,30.521,0.238,75,120.0
157,G#6,30.779,0.271,80,120.0
158,C#3,30.779,0.771,80,120.0
159,G#5,31.065,0.228,75,120.0
160,C#6,31.309,0.228,75,120.0
161,G#6,31.552,0.237,75,120.0
162,G#3,31.552,0.745,75,120.0
163,G#5,31.805,0.236,76,120.0
164,C#6,32.057,0.226,75,120.0
165,G#6,32.298,0.227,75,120.0
166,C#4,32.298,0.468,75,120.0
167,G#5,32.54,0.24,75,120.0
168,C#6,32.796,0.241,78,120.0
169,E-3,32.796,0.739,78,120.0
170,C#5,33.053,0.226,75,120.0
171,G#5,33.294,0.227,75,120.0
172,C#6,33.536,0.235,75,120.0
173,B-3,33.536,0.743,75,120.0
174,C#5,33.787,0.235,76,120.0
175,G#5,34.038,0.227,75,120.0
176,C#6,34.28,0.227,75,120.0
177,E-4,34.28,0.465,75,120.0
178,C#5,34.522,0.237,75,120.0
179,G#6,34.779,0.271,80,120.0
180,F3,34.779,0.771,80,120.0
181,G#5,35.065,0.228,75,120.0
182,C#6,35.309,0.228,75,120.0
183,G#6,35.552,0.237,75,120.0
184,C4,35.552,0.745,75,120.0
185,G#5,35.805,0.236,76,120.0
186,C#6,36.057,0.226,75,120.0
187,G#6,36.298,0.227,75,120.0
188,F4,36.298,0.468,75,120.0
189,G#5,36.54,0.24,75,120.0
190,C#6,36.796,0.241,78,120.0
191,F#3,36.796,0.739,78,120.0
192,C#5,37.053,0.226,75,120.0
193,G#5,37.294,0.227,75,120.0
194,E-6,37.536,0.235,75,120.0
195,C#4,37.536,0.743,75,120.0
196,E-5,37.787,0.235,76,120.0
197,G#5,38.038,0.227,75,120.0
198,F6,38.28,0.227,75,120.0
199,F#4,38.28,0.465,75,120.0
200,F5,38.522,0.237,75,120.0
201,G#6,38.779,0.271,80,120.0
202,C#3,38.779,0.771,80,120.0
203,G#5,39.065,0.228,75,120.0
204,C#6,39.309,0.228,75,120.0
205,G#6,39.552,0.237,75,120.0
206,G#3,39.552,0.745,75,120.0
207,G#5,39.805,0.236,76,120.0
208,C#6,40.057,0.226,75,120.0
209,G#6,40.298,0.227,75,120.0
210,C#4,40.298,0.468,75,120.0
211,G#5,40.54,0.24,75,120.0
212,C#6,40.796,0.241,78,120.0
213,E-3,40.796,0.739,78,120.0
214,C#5,41.053,0.226,75,120.0
215,G#5,41.294,0.227,75,120.0
216,C#6,41.536,0.235,75,120.0
217,B-3,41.536,0.743,75,120.0
218,C#5,41.787,0.235,76,120.0
219,G#5,42.038,0.227,75,120.0
220,C#6,42.28,0.227,75,120.0
221,E-4,42.28,0.465,75,120.0
222,C#5,42.522,0.237,75,120.0
223,F6,42.779,0.271,80,120.0
224,F3,42.779,1.024,80,120.0
225,E-6,43.065,0.228,75,120.0
226,C#6,43.309,0.228,75,120.0
227,G#5,43.552,0.237,75,120.0
228,F#6,43.805,0.236,76,120.0
229,F4,43.805,0.99,76,120.0
230,G#5,44.057,0.226,75,120.0
231,G#6,44.298,0.227,75,120.0
232,F#6,44.54,0.852,75,120.0
233,F#3,44.796,0.99,78,120.0
234,G#6,45.228,1.172,67,120.0
235,E-7,45.29,1.109,67,120.0
236,F7,45.353,1.047,67,120.0
237,G#7,45.415,0.984,81,120.0
238,F#4,45.787,0.987,76,120.0
239,C#3,46.779,0.499,67,120.0
240,G#3,47.309,0.466,62,120.0
241,E-5,47.805,0.492,63,120.0
242,C#4,47.805,0.99,63,120.0
243,E-5,48.298,0.468,62,120.0
244,C#5,48.796,0.99,65,120.0
245,F3,48.796,0.468,65,120.0
246,C4,49.294,0.463,62,120.0
247,F5,49.787,0.463,63,120.0
248,F4,49.787,0.987,63,120.0
249,G#5,50.28,0.495,62,120.0
250,G#5,50.775,1.521,62,120.0
251,E-3,50.779,0.499,67,120.0
252,B-3,51.309,0.466,62,120.0
253,E-4,51.805,0.463,63,120.0
254,F5,52.298,0.468,62,120.0
255,B-3,52.298,0.468,62,120.0
256,E-5,52.796,0.468,65,120.0
257,E-4,52.796,0.99,65,120.0
258,G#4,53.294,1.48,61,120.0
259,C#5,53.294,1.48,61,120.0
260,G#3,53.787,0.463,63,120.0
261,E-4,54.28,0.465,62,120.0
262,F3,54.779,0.499,67,120.0
263,C4,55.309,0.466,62,120.0
264,E-5,55.805,0.492,63,120.0
265,F4,55.805,0.99,63,120.0
266,E-5,56.298,0.497,62,120.0
267,E-5,56.796,0.99,65,120.0
268,G#3,56.796,0.468,65,120.0
269,E-4,57.294,0.463,62,120.0
270,C#5,57.787,0.463,63,120.0
271,G#4,57.787,0.988,63,120.0
272,G#4,58.28,0.495,59,120.0
273,E-5,58.28,0.495,59,120.0
274,G#4,58.775,0.532,59,120.0
275,E-5,58.775,0.532,59,120.0
276,F#3,58.779,0.499,67,120.0
277,F5,59.309,0.988,62,120.0
278,C#4,59.309,0.466,62,120.0
279,F#4,59.805,0.99,63,120.0
280,E-5,60.298,0.995,62,120.0
281,G#3,60.796,0.468,65,120.0
282,C#5,61.294,0.463,62,120.0
283,E-4,61.294,0.463,62,120.0
284,C#5,61.787,0.987,63,120.0
285,G#4,61.787,0.987,63,120.0
286,F3,62.779,0.499,67,120.0
287,G#4,62.779,1.024,66,120.0
288,C#5,62.779,1.024,66,120.0
289,C4,63.309,0.466,62,120.0
290,C#5,63.805,0.99,63,120.0
291,F4,63.805,0.463,63,120.0
292,C4,64.298,0.468,62,120.0
293,E-5,64.796,0.99,65,120.0
294,G#3,64.796,0.468,65,120.0
295,E-4,65.294,0.463,62,120.0
296,G#4,65.787,0.492,63,120.0
297,G#4,65.787,0.988,63,120.0
298,G#4,66.28,0.495,59,120.0
299,C#5,66.28,0.495,59,120.0
300,G#4,66.775,0.532,59,120.0
301,C#5,66.775,0.532,59,120.0
302,E-3,66.779,0.499,67,120.0
303,C#5,67.309,0.988,62,120.0
304,B-3,67.309,0.466,62,120.0
305,E-4,67.805,0.99,63,120.0
306,E-5,68.298,0.995,62,120.0
307,G#3,68.796,0.99,65,120.0
308,G#4,69.294,0.463,62,120.0
309,G#5,69.787,0.987,63,120.0
310,E-4,69.787,0.987,63,120.0
311,F#4,70.613,0.162,59,120.0
312,C#5,70.696,0.079,59,120.0
313,F#4,70.775,1.028,59,120.0
314,C#5,70.775,1.028,59,120.0
315,F#5,70.779,1.024,73,120.0
316,F#3,70.779,0.499,67,120.0
317,C#4,71.309,0.466,62,120.0
318,F#5,71.805,0.463,63,120.0
319,F#4,71.805,0.99,63,120.0
320,G#5,72.298,0.995,62,120.0
321,G#3,72.796,0.99,65,120.0
322,E-5,73.294,0.985,62,120.0
323,E-4,73.787,0.987,63,120.0
324,G#4,74.28,0.495,59,120.0
325,F5,74.28,0.495,59,120.0
326,G#4,74.775,1.028,59,120.0
327,F5,74.775,1.028,59,120.0
328,C#3,74.779,3.831,62,120.0
329,G#3,75.805,0.236,63,120.0
330,C#4,76.057,0.226,62,120.0
331,G#4,76.298,0.227,65,120.0
332,C#5,76.54,0.24,67,120.0
333,E-5,76.796,0.241,70,120.0
334,G#5,77.053,0.226,72,120.0
335,C#6,77.294,0.227,75,120.0
336,E-6,77.536,0.235,78,120.0
337,G#6,77.787,0.987,80,120.0
338,F3,78.779,0.499,67,120.0
339,C4,79.309,0.466,62,120.0
340,G#5,79.805,0.492,63,120.0
341,F4,79.805,0.99,63,120.0
342,G#5,80.298,0.497,62,120.0
343,G#5,80.796,0.468,65,120.0
344,C#3,80.796,0.468,65,120.0
345,F#5,81.294,0.463,62,120.0
346,G#3,81.294,0.463,62,120.0
347,F5,81.787,0.463,63,120.0
348,C#4,81.787,0.987,63,120.0
349,F#5,82.28,0.495,62,120.0
350,F#5,82.775,0.503,62,120.0
351,E-3,82.779,0.499,67,120.0
352,G#5,83.309,0.988,62,120.0
353,B-3,83.309,0.466,62,120.0
354,E-4,83.805,0.99,63,120.0
355,G#4,84.298,0.995,61,120.0
356,E-5,84.298,0.995,61,120.0
357,G#3,84.796,0.99,65,120.0
358,C#5,85.294,0.985,62,120.0
359,E-4,85.787,0.987,63,120.0
360,G#4,86.28,0.495,59,120.0
361,F5,86.28,0.495,59,120.0
362,G#4,86.775,1.028,59,120.0
363,F5,86.775,1.028,59,120.0
364,F3,86.779,0.499,67,120.0
365,C4,87.309,0.466,62,120.0
366,G#5,87.805,0.463,63,120.0
367,F4,87.805,0.463,63,120.0
368,G#5,88.298,0.468,62,120.0
369,C4,88.298,0.468,62,120.0
370,G#5,88.796,0.468,65,120.0
371,C#3,88.796,0.468,65,120.0
372,F#5,89.294,0.463,62,120.0
373,G#3,89.294,0.463,62,120.0
374,F5,89.787,0.463,63,120.0
375,C#4,89.787,0.987,63,120.0
376,F#5,90.28,0.495,62,120.0
377,F#5,90.775,0.503,62,120.0
378,E-3,90.779,0.499,67,120.0
379,G#5,91.309,0.988,62,120.0
380,B-3,91.309,0.466,62,120.0
381,E-4,91.805,0.99,63,120.0
382,C#5,92.298,0.995,61,120.0
383,C#6,92.298,0.995,61,120.0
384,G#3,92.796,0.99,65,120.0
385,C5,93.294,0.985,61,120.0
386,C6,93.294,0.985,61,120.0
387,E-4,93.787,0.987,63,120.0
388,G#4,94.28,0.495,61,120.0
389,G#5,94.28,0.495,61,120.0
390,G#4,94.775,1.028,61,120.0
391,G#5,94.775,1.028,61,120.0
392,F3,94.779,0.499,67,120.0
393,C4,95.309,0.466,62,120.0
394,G#5,95.805,0.99,63,120.0
395,F4,95.805,0.463,63,120.0
396,C4,96.298,0.468,62,120.0
397,G#5,96.796,0.468,65,120.0
398,C#3,96.796,0.468,65,120.0
399,F#5,97.294,0.463,62,120.0
400,G#3,97.294,0.463,62,120.0
401,F5,97.787,0.463,63,120.0
402,C#4,97.787,0.987,63,120.0
403,F#5,98.28,0.495,62,120.0
404,F#5,98.775,0.503,62,120.0
405,E-3,98.779,0.499,67,120.0
406,G#5,99.309,0.988,62,120.0
407,B-3,99.309,0.466,62,120.0
408,E-4,99.805,0.99,63,120.0
409,G#4,100.298,0.995,61,120.0
410,E-5,100.298,0.995,61,120.0
411,G#3,100.796,0.99,65,120.0
412,C#5,101.294,0.985,62,120.0
413,E-4,101.787,0.987,63,120.0
414,G#4,102.28,0.495,59,120.0
415,F5,102.28,0.495,59,120.0
416,G#4,102.775,1.028,59,120.0
417,F5,102.775,1.028,59,120.0
418,C#2,102.779,1.024,66,120.0
419,C#3,102.779,1.024,66,120.0
420,C#3,103.805,0.236,62,120.0
421,G#3,104.057,0.226,63,120.0
422,C#4,104.298,0.468,64,120.0
423,G#4,104.54,0.24,65,120.0
424,C#5,104.796,0.241,66,120.0
425,E-5,105.053,0.226,67,120.0
426,G#5,105.294,0.227,68,120.0
427,C#6,105.536,0.235,69,120.0
428,E-6,105.787,0.235,70,120.0
429,G#6,106.038,0.227,71,120.0
430,C#7,106.28,0.227,72,120.0
431,E-7,106.522,0.237,73,120.0
432,G#7,106.779,2.016,80,120.0
433,G#4,108.796,0.99,77,120.0
434,G#5,108.796,0.99,77,120.0
435,C#5,109.787,0.987,75,120.0
436,C#6,109.787,0.987,75,120.0
437,B2,110.779,0.499,80,120.0
438,C#5,110.779,1.024,78,120.0
439,E5,110.779,1.024,78,120.0
440,C#6,110.779,1.024,78,120.0
441,F#3,111.309,0.466,75,120.0
442,B3,111.805,0.463,76,120.0
443,C#5,111.805,0.99,73,120.0
444,E5,111.805,0.99,73,120.0
445,C#6,111.805,0.99,73,120.0
446,F#3,112.298,0.468,75,120.0
447,B4,112.796,0.468,76,120.0
448,E-5,112.796,0.468,76,120.0
449,B5,112.796,0.468,76,120.0
450,C#3,112.796,0.468,76,120.0
451,B-4,113.294,0.463,74,120.0
452,B-5,113.294,0.463,74,120.0
453,G#3,113.294,0.463,74,120.0
454,G#4,113.787,0.463,75,120.0
455,G#5,113.787,0.463,75,120.0
456,C#4,113.787,0.463,75,120.0
457,G#3,114.28,0.465,75,120.0
458,B-4,114.28,0.495,72,120.0
459,E-5,114.28,0.495,72,120.0
460,B-5,114.28,0.495,72,120.0
461,B-4,114.775,2.02,72,120.0
462,E-5,114.775,2.02,72,120.0
463,B-5,114.775,2.02,72,120.0
464,E-3,114.779,0.499,80,120.0
465,B-3,115.309,0.466,75,120.0
466,E-4,115.805,0.463,76,120.0
467,B-3,116.298,0.468,75,120.0
468,C#3,116.796,0.468,78,120.0
469,F#4,116.796,0.99,77,120.0
470,F#5,116.796,0.99,77,120.0
471,G#3,117.294,0.463,75,120.0
472,C#4,117.787,0.463,76,120.0
473,G#4,117.787,0.987,75,120.0
474,G#5,117.787,0.987,75,120.0
475,G#3,118.28,0.465,75,120.0
476,B2,118.779,0.499,80,120.0
477,B-4,118.779,1.024,77,120.0
478,E-5,118.779,1.024,77,120.0
479,B-5,118.779,1.024,77,120.0
480,F#3,119.309,0.466,75,120.0
481,G#4,119.805,0.463,75,120.0
482,G#5,119.805,0.463,75,120.0
483,B3,119.805,0.463,75,120.0
484,F#3,120.298,0.468,75,120.0
485,B4,120.298,0.995,72,120.0
486,E-5,120.298,0.995,72,120.0
487,B5,120.298,0.995,72,120.0
488,C#3,120.796,0.468,78,120.0
489,G#3,121.294,0.463,75,120.0
490,B-4,121.294,0.985,74,120.0
491,B-5,121.294,0.985,74,120.0
492,C#4,121.787,0.463,76,120.0
493,G#3,122.28,0.465,75,120.0
494,B-4,122.28,0.495,73,120.0
495,E-5,122.28,0.495,73,120.0
496,B-5,122.28,0.495,73,120.0
497,B-4,122.775,2.02,73,120.0
498,E-5,122.775,2.02,73,120.0
499,B-5,122.775,2.02,73,120.0
500,E-3,122.779,0.499,80,120.0
501,B-3,123.309,0.466,75,120.0
502,E-4,123.805,0.463,76,120.0
503,B-3,124.298,0.468,75,120.0
504,C#3,124.796,0.468,78,120.0
505,F#4,124.796,0.99,77,120.0
506,F#5,124.796,0.99,77,120.0
507,G#3,125.294,0.463,75,120.0
508,C#4,125.787,0.463,76,120.0
509,C#5,125.787,0.987,75,120.0
510,C#6,125.787,0.987,75,120.0
511,G#3,126.28,0.465,75,120.0
512,B2,126.779,0.499,80,120.0
513,C#5,126.779,1.024,78,120.0
514,E5,126.779,1.024,78,120.0
515,C#6,126.779,1.024,78,120.0
516,F#3,127.309,0.466,75,120.0
517,B3,127.805,0.463,76,120.0
518,C#5,127.805,0.99,73,120.0
519,E5,127.805,0.99,73,120.0
520,C#6,127.805,0.99,73,120.0
521,F#3,128.298,0.468,75,120.0
522,B4,128.796,0.468,76,120.0
523,E-5,128.796,0.468,76,120.0
524,B5,128.796,0.468,76,120.0
525,C#3,128.796,0.468,76,120.0
526,B-4,129.294,0.463,74,120.0
527,B-5,129.294,0.463,74,120.0
528,G#3,129.294,0.463,74,120.0
529,G#4,129.787,0.463,75,120.0
530,G#5,129.787,0.463,75,120.0
531,C#4,129.787,0.463,75,120.0
532,G#3,130.28,0.465,75,120.0
533,B-4,130.28,0.495,72,120.0
534,E-5,130.28,0.495,72,120.0
535,B-5,130.28,0.495,72,120.0
536,B-4,130.775,2.02,72,120.0
537,E-5,130.775,2.02,72,120.0
538,B-5,130.775,2.02,72,120.0
539,E-3,130.779,0.499,80,120.0
540,B-3,131.309,0.466,75,120.0
541,E-4,131.805,0.463,76,120.0
542,B-3,132.298,0.468,75,120.0
543,C#3,132.796,0.468,78,120.0
544,F#4,132.796,0.99,77,120.0
545,F#5,132.796,0.99,77,120.0
546,G#3,133.294,0.463,75,120.0
547,C#4,133.787,0.463,76,120.0
548,G#4,133.787,0.987,75,120.0
549,G#5,133.787,0.987,75,120.0
550,G#3,134.28,0.465,75,120.0
551,B2,134.779,0.499,80,120.0
552,B-4,134.779,1.024,77,120.0
553,E-5,134.779,1.024,77,120.0
554,B-5,134.779,1.024,77,120.0
555,F#3,135.309,0.466,75,120.0
556,B3,135.805,0.463,76,120.0
557,B-4,135.805,0.99,73,120.0
558,E-5,135.805,0.99,73,120.0
559,B-5,135.805,0.99,73,120.0
560,F#3,136.298,0.468,75,120.0
561,G#4,136.796,0.468,77,120.0
562,G#5,136.796,0.468,77,120.0
563,C#3,136.796,0.468,77,120.0
564,F#4,137.294,0.463,74,120.0
565,F#5,137.294,0.463,74,120.0
566,G#3,137.294,0.463,74,120.0
567,F4,137.787,0.463,75,120.0
568,F5,137.787,0.463,75,120.0
569,C#4,137.787,0.463,75,120.0
570,F#4,138.28,0.495,67,120.0
571,F#5,138.28,0.495,81,120.0
572,G#3,138.28,0.465,75,120.0
573,F#4,138.775,1.492,67,120.0
574,F#5,138.775,2.02,81,120.0
575,F#3,138.779,0.499,80,120.0
576,C#4,139.309,0.466,75,120.0
577,F#4,139.805,0.99,76,120.0
578,C#4,140.298,0.468,75,120.0
579,C#3,140.796,0.468,91,120.0
580,F#4,140.796,0.99,90,120.0
581,F#5,140.796,0.99,90,120.0
582,G#3,141.294,0.463,88,120.0
583,C#4,141.787,0.463,89,120.0
584,C#5,141.787,0.987,88,120.0
585,C#6,141.787,0.987,88,120.0
586,G#3,142.28,0.465,88,120.0
587,C#5,142.779,1.024,91,120.0
588,E5,142.779,1.024,91,120.0
589,C#6,142.779,1.024,91,120.0
590,B1,142.779,0.528,91,120.0
591,B2,142.779,0.528,91,120.0
592,F#3,143.309,0.466,88,120.0
593,B3,143.805,0.463,89,120.0
594,C#5,143.805,0.99,86,120.0
595,E5,143.805,0.99,86,120.0
596,C#6,143.805,0.99,86,120.0
597,F#3,144.298,0.468,88,120.0
598,B4,144.796,0.497,88,120.0
599,E-5,144.796,0.497,88,120.0
600,B5,144.796,0.497,88,120.0
601,C#2,144.796,0.497,88,120.0
602,C#3,144.796,0.497,88,120.0
603,B-4,145.294,0.463,87,120.0
604,B-5,145.294,0.463,87,120.0
605,G#3,145.294,0.463,87,120.0
606,G#4,145.787,0.463,88,120.0
607,G#5,145.787,0.463,88,120.0
608,C#4,145.787,0.463,88,120.0
609,G#3,146.28,0.465,88,120.0
610,B-4,146.28,0.495,85,120.0
611,E-5,146.28,0.495,85,120.0
612,B-5,146.28,0.495,85,120.0
613,B-4,146.775,2.02,85,120.0
614,E-5,146.775,2.02,85,120.0
615,B-5,146.775,2.02,85,120.0
616,E-2,146.779,0.528,92,120.0
617,E-3,146.779,0.528,92,120.0
618,B-3,147.309,0.466,88,120.0
619,E-4,147.805,0.463,89,120.0
620,B-3,148.298,0.468,88,120.0
621,F#4,148.796,0.99,90,120.0
622,F#5,148.796,0.99,90,120.0
623,C#2,148.796,0.497,90,120.0
624,C#3,148.796,0.497,90,120.0
625,G#3,149.294,0.463,88,120.0
626,C#4,149.787,0.463,89,120.0
627,G#4,149.787,0.987,88,120.0
628,G#5,149.787,0.987,88,120.0
629,G#3,150.28,0.465,88,120.0
630,B-4,150.779,1.024,90,120.0
631,E-5,150.779,1.024,90,120.0
632,B-5,150.779,1.024,90,120.0
633,B1,150.779,0.528,91,120.0
634,B2,150.779,0.528,91,120.0
635,F#3,151.309,0.466,88,120.0
636,G#4,151.805,0.463,88,120.0
637,G#5,151.805,0.463,88,120.0
638,B3,151.805,0.463,88,120.0
639,F#3,152.298,0.468,88,120.0
640,B4,152.298,0.995,85,120.0
641,E-5,152.298,0.995,85,120.0
642,B5,152.298,0.995,85,120.0
643,C#2,152.796,0.497,90,120.0
644,C#3,152.796,0.497,90,120.0
645,G#3,153.294,0.463,88,120.0
646,C#5,153.294,0.985,87,120.0
647,C#6,153.294,0.985,87,120.0
648,C#4,153.787,0.463,89,120.0
649,G#3,154.28,0.465,88,120.0
650,B-4,154.28,0.495,85,120.0
651,E-5,154.28,0.495,85,120.0
652,B-5,154.28,0.495,85,120.0
653,B-4,154.775,2.02,85,120.0
654,E-5,154.775,2.02,85,120.0
655,B-5,154.775,2.02,85,120.0
656,E-2,154.779,0.528,92,120.0
657,E-3,154.779,0.528,92,120.0
658,B-3,155.309,0.466,88,120.0
659,E-4,155.805,0.463,89,120.0
660,B-3,156.298,0.468,88,120.0
661,F#4,156.796,0.99,90,120.0
662,F#5,156.796,0.99,90,120.0
663,C#2,156.796,0.497,90,120.0
664,C#3,156.796,0.497,90,120.0
665,G#3,157.294,0.463,88,120.0
666,C#4,157.787,0.463,89,120.0
667,C#5,157.787,0.987,88,120.0
668,C#6,157.787,0.987,88,120.0
669,G#3,158.28,0.465,88,120.0
670,C#5,158.779,1.024,91,120.0
671,E5,158.779,1.024,91,120.0
672,C#6,158.779,1.024,91,120.0
673,B1,158.779,0.528,91,120.0
674,B2,158.779,0.528,91,120.0
675,F#3,159.309,0.466,88,120.0
676,B3,159.805,0.463,89,120.0
677,C#5,159.805,0.99,86,120.0
678,E5,159.805,0.99,86,120.0
679,C#6,159.805,0.99,86,120.0
680,F#3,160.298,0.468,88,120.0
681,B4,160.796,0.497,88,120.0
682,E-5,160.796,0.497,88,120.0
683,B5,160.796,0.497,88,120.0
684,C#2,160.796,0.497,88,120.0
685,C#3,160.796,0.497,88,120.0
686,B-4,161.294,0.463,87,120.0
687,B-5,161.294,0.463,87,120.0
688,G#3,161.294,0.463,87,120.0
689,G#4,161.787,0.463,88,120.0
690,G#5,161.787,0.463,88,120.0
691,C#4,161.787,0.463,88,120.0
692,G#3,162.28,0.465,88,120.0
693,B-4,162.28,0.495,85,120.0
694,E-5,162.28,0.495,85,120.0
695,B-5,162.28,0.495,85,120.0
696,B-4,162.775,2.02,85,120.0
697,E-5,162.775,2.02,85,120.0
698,B-5,162.775,2.02,85,120.0
699,E-2,162.779,0.528,92,120.0
700,E-3,162.779,0.528,92,120.0
701,B-3,163.309,0.466,88,120.0
702,E-4,163.805,0.463,89,120.0
703,B-3,164.298,0.468,88,120.0
704,F#4,164.796,0.99,90,120.0
705,F#5,164.796,0.99,90,120.0
706,C#2,164.796,0.497,90,120.0
707,C#3,164.796,0.497,90,120.0
708,G#3,165.294,0.463,88,120.0
709,C#4,165.787,0.463,89,120.0
710,G#4,165.787,0.987,88,120.0
711,G#5,165.787,0.987,88,120.0
712,G#3,166.28,0.465,88,120.0
713,B-4,166.779,1.024,90,120.0
714,E-5,166.779,1.024,90,120.0
715,B-5,166.779,1.024,90,120.0
716,B1,166.779,0.528,91,120.0
717,B2,166.779,0.528,91,120.0
718,F#3,167.309,0.466,88,120.0
719,B3,167.805,0.463,89,120.0
720,B-4,167.805,0.99,86,120.0
721,E-5,167.805,0.99,86,120.0
722,B-5,167.805,0.99,86,120.0
723,F#3,168.298,0.468,88,120.0
724,G#4,168.796,0.497,90,120.0
725,G#5,168.796,0.497,90,120.0
726,C#2,168.796,0.497,90,120.0
727,C#3,168.796,0.497,90,120.0
728,F#4,169.294,0.463,87,120.0
729,F#5,169.294,0.463,87,120.0
730,G#3,169.294,0.463,87,120.0
731,F4,169.787,0.463,88,120.0
732,F5,169.787,0.463,88,120.0
733,C#4,169.787,0.463,88,120.0
734,F#4,170.28,0.495,80,120.0
735,F#5,170.28,0.495,94,120.0
736,G#3,170.28,0.465,88,120.0
737,F#4,170.775,1.492,80,120.0
738,F#5,170.775,2.02,94,120.0
739,F#3,170.779,0.499,93,120.0
740,C#4,171.309,0.466,86,120.0
741,F#4,171.805,0.99,83,120.0
742,C#4,172.298,0.468,80,120.0
743,F#5,172.796,0.99,76,120.0
744,C#3,172.796,0.468,76,120.0
745,G#3,173.294,0.463,73,120.0
746,C#6,173.787,0.987,69,120.0
747,C#4,173.787,0.463,69,120.0
748,G#3,174.28,0.465,66,120.0
749,C#6,174.779,1.024,67,120.0
750,B3,174.779,0.499,67,120.0
751,F#4,175.309,0.466,62,120.0
752,C#6,175.805,0.99,63,120.0
753,B4,175.805,0.463,63,120.0
754,F#4,176.298,0.468,62,120.0
755,B5,176.796,0.468,65,120.0
756,C#4,176.796,0.468,65,120.0
757,B-5,177.294,0.463,62,120.0
758,G#4,177.294,0.463,62,120.0
759,G#5,177.787,0.463,63,120.0
760,C#5,177.787,0.987,63,120.0
761,B-5,178.28,0.495,62,120.0
762,B-5,178.775,2.02,62,120.0
763,E-4,178.779,0.499,67,120.0
764,B-4,179.309,0.466,62,120.0
765,E-5,179.805,0.463,63,120.0
766,B-4,180.298,0.468,62,120.0
767,F#5,180.796,0.99,65,120.0
768,C#4,180.796,0.468,65,120.0
769,G#4,181.294,0.463,62,120.0
770,G#5,181.787,0.987,63,120.0
771,C#5,181.787,0.987,63,120.0
772,E-5,182.613,0.162,59,120.0
773,F#5,182.696,0.079,59,120.0
774,E-5,182.775,1.028,59,120.0
775,F#5,182.775,1.028,59,120.0
776,B-5,182.779,1.024,73,120.0
777,B3,182.779,0.499,67,120.0
778,F#4,183.309,0.466,62,120.0
779,G#5,183.805,0.463,63,120.0
780,B4,183.805,0.99,63,120.0
781,E-5,184.298,0.995,61,120.0
782,B5,184.298,0.995,61,120.0
783,C#4,184.796,0.468,65,120.0
784,C#6,185.294,0.985,62,120.0
785,G#4,185.294,0.463,62,120.0
786,C#5,185.787,0.987,63,120.0
787,B-5,186.28,0.495,62,120.0
788,B-5,186.775,2.02,62,120.0
789,E-4,186.779,0.499,67,120.0
790,B-4,187.309,0.466,62,120.0
791,E-5,187.805,0.463,63,120.0
792,B-4,188.298,0.468,62,120.0
793,F#5,188.796,0.99,65,120.0
794,C#4,188.796,0.468,65,120.0
795,G#4,189.294,0.463,62,120.0
796,C#6,189.787,0.987,63,120.0
797,C#5,189.787,0.987,63,120.0
798,C#6,190.779,1.024,67,120.0
799,B3,190.779,0.499,67,120.0
800,F#4,191.309,0.466,62,120.0
801,C#6,191.805,0.463,63,120.0
802,B4,191.805,0.463,63,120.0
803,C#5,192.298,0.468,62,120.0
804,F#4,192.298,0.468,62,120.0
805,B5,192.796,0.468,65,120.0
806,C#4,192.796,0.468,65,120.0
807,B-5,193.294,0.463,62,120.0
808,G#4,193.294,0.463,62,120.0
809,G#5,193.787,0.463,63,120.0
810,C#5,193.787,0.987,63,120.0
811,B-5,194.28,0.495,62,120.0
812,B-5,194.775,2.02,62,120.0
813,E-4,194.779,0.499,67,120.0
814,B-4,195.309,0.466,62,120.0
815,E-5,195.805,0.463,63,120.0
816,B-4,196.298,0.468,62,120.0
817,F#5,196.796,0.99,65,120.0
818,C#4,196.796,0.468,65,120.0
819,G#4,197.294,0.463,62,120.0
820,G#5,197.787,0.987,63,120.0
821,C#5,197.787,0.987,63,120.0
822,E-5,198.613,0.162,59,120.0
823,F#5,198.696,0.079,59,120.0
824,E-5,198.775,1.028,59,120.0
825,F#5,198.775,1.028,59,120.0
826,B-5,198.779,1.024,73,120.0
827,B3,198.779,0.499,67,120.0
828,F#4,199.309,0.466,62,120.0
829,B-5,199.805,0.463,63,120.0
830,B4,199.805,0.463,63,120.0
831,C#5,200.298,0.468,62,120.0
832,F#4,200.298,0.468,62,120.0
833,G#5,200.796,0.468,65,120.0
834,C#4,200.796,0.468,65,120.0
835,F#5,201.294,0.463,62,120.0
836,G#4,201.294,0.463,62,120.0
837,F5,201.787,0.463,63,120.0
838,C#5,201.787,0.987,63,120.0
839,F#5,202.28,0.495,62,120.0
840,F#5,202.775,1.521,62,120.0
841,F#3,202.779,0.499,67,120.0
842,C#4,203.309,0.466,62,120.0
843,F#4,203.805,0.463,63,120.0
844,G#4,204.298,0.468,62,120.0
845,B-4,204.796,0.468,65,120.0
846,C#5,205.294,0.463,62,120.0
847,F#5,205.787,0.988,58,120.0
848,B-5,205.787,0.988,58,120.0
849,C#6,205.787,0.988,58,120.0
850,F#6,205.787,0.988,58,120.0
851,F#3,205.787,0.988,58,120.0
852,C#4,205.787,0.988,58,120.0
853,F#4,205.787,0.988,58,120.0
854,F#5,206.775,4.0,58,120.0
855,B-5,206.775,4.0,58,120.0
856,C#6,206.775,4.0,58,120.0
857,F#6,206.775,4.0,58,120.0
858,F#3,206.775,3.999,58,120.0
859,C#4,206.775,3.999,58,120.0
860,F#4,206.775,3.999,58,120.0
861,F#5,210.775,3.999,58,120.0
862,B-5,210.775,3.999,58,120.0
863,C#6,210.775,3.999,58,120.0
864,F#6,210.775,3.999,58,120.0
865,F#2,210.779,3.995,62,120.0
