case_id,note,note_name,start_time,duration,velocity,tempo
0,0,F#4,0.0,0.5,100,90.0
0,1,E-3,0.0,4.0,100,90.0
0,2,F#4,1.0,0.5,100,90.0
0,3,F#4,2.0,0.5,100,90.0
0,4,B-4,3.0,0.5,100,90.0
0,5,E-5,4.0,0.5,100,90.0
0,6,B2,4.0,4.0,100,90.0
0,7,E-5,5.0,0.5,100,90.0
0,8,E-5,6.0,0.5,100,90.0
0,9,C#5,7.0,0.5,100,90.0
0,10,B-4,8.0,0.5,100,90.0
0,11,F#3,8.0,4.0,100,90.0
0,12,B-4,9.0,0.5,100,90.0
0,13,B-4,10.0,0.5,100,90.0
0,14,B-4,11.0,0.5,100,90.0
0,15,F4,12.0,0.5,100,90.0
0,16,C#3,12.0,4.0,100,90.0
0,17,F4,13.0,0.5,100,90.0
0,18,F4,14.0,0.5,100,90.0
0,19,E-4,15.0,0.5,100,90.0
0,20,F#4,16.0,0.5,100,90.0
0,21,E-3,16.0,4.0,100,90.0
0,22,F#4,17.0,0.5,100,90.0
0,23,F#4,18.0,0.5,100,90.0
0,24,B-4,19.0,0.5,100,90.0
0,25,E-5,20.0,0.5,100,90.0
0,26,B2,20.0,4.0,100,90.0
0,27,E-5,21.0,0.5,100,90.0
0,28,E-5,22.0,0.5,100,90.0
0,29,C#5,23.0,0.5,100,90.0
0,30,B-4,24.0,0.5,100,90.0
0,31,F#3,24.0,4.0,100,90.0
0,32,B-4,25.0,0.5,100,90.0
0,33,B-4,26.0,0.5,100,90.0
0,34,B-4,27.0,0.5,100,90.0
0,35,F4,28.0,0.5,100,90.0
0,36,C#3,28.0,4.0,100,90.0
0,37,F4,29.0,0.5,100,90.0
0,38,F4,30.0,0.5,100,90.0
0,39,E-4,31.0,0.5,100,90.0
0,40,F#4,32.0,0.5,100,90.0
0,41,E-3,32.0,4.0,100,90.0
0,42,F#4,33.0,0.5,100,90.0
0,43,F#4,34.0,0.5,100,90.0
0,44,B-4,35.0,0.5,100,90.0
0,45,E-5,36.0,0.5,100,90.0
0,46,B2,36.0,4.0,100,90.0
0,47,E-5,37.0,0.5,100,90.0
0,48,E-5,38.0,0.5,100,90.0
0,49,C#5,39.0,0.5,100,90.0
0,50,B-4,40.0,0.5,100,90.0
0,51,F#3,40.0,4.0,100,90.0
0,52,B-4,41.0,0.5,100,90.0
0,53,B-4,42.0,0.5,100,90.0
0,54,B-4,43.0,0.5,100,90.0
0,55,F4,44.0,0.5,100,90.0
0,56,C#3,44.0,4.0,100,90.0
0,57,F4,45.0,0.5,100,90.0
0,58,F4,46.0,0.5,100,90.0
0,59,E-4,47.0,0.5,100,90.0
0,60,F#4,48.0,417/1000,100,90.0
0,61,E-3,48.0,4.0,100,90.0
0,62,F#4,48.5,417/1000,100,90.0
0,63,F#4,49.0,417/1000,100,90.0
0,64,F#4,49.5,417/1000,100,90.0
0,65,F#4,50.0,417/1000,100,90.0
0,66,F#4,50.5,417/1000,100,90.0
0,67,F#4,51.0,0.5,100,90.0
0,68,B-4,51.5,0.5,100,90.0
0,69,E-5,52.0,417/1000,100,90.0
0,70,B2,52.0,4.0,100,90.0
0,71,E-5,52.5,417/1000,100,90.0
0,72,E-5,53.0,417/1000,100,90.0
0,73,E-5,53.5,417/1000,100,90.0
0,74,E-5,54.0,417/1000,100,90.0
0,75,E-5,54.5,417/1000,100,90.0
0,76,C#5,55.0,417/1000,100,90.0
0,77,C#5,55.5,417/1000,100,90.0
0,78,B-4,56.0,417/1000,100,90.0
0,79,F#3,56.0,4.0,100,90.0
0,80,B-4,56.5,417/1000,100,90.0
0,81,B-4,57.0,417/1000,100,90.0
0,82,B-4,57.5,417/1000,100,90.0
0,83,B-4,58.0,417/1000,100,90.0
0,84,B-4,58.5,417/1000,100,90.0
0,85,B-4,59.0,0.375,100,90.0
0,86,B-4,59.5,417/1000,100,90.0
0,87,F4,60.0,417/1000,100,90.0
0,88,C#3,60.0,4.0,100,90.0
0,89,F4,60.5,417/1000,100,90.0
0,90,F4,61.0,417/1000,100,90.0
0,91,F4,61.5,417/1000,100,90.0
0,92,F4,62.0,417/1000,100,90.0
0,93,F4,62.5,417/1000,100,90.0
0,94,F4,63.0,417/1000,100,90.0
0,95,F4,63.5,417/1000,100,90.0
0,96,F#4,64.0,417/1000,100,90.0
0,97,E-3,64.0,4.0,100,90.0
0,98,F#4,64.5,417/1000,100,90.0
0,99,F#4,65.0,417/1000,100,90.0
0,100,F#4,65.5,417/1000,100,90.0
0,101,F#4,66.0,417/1000,100,90.0
0,102,F#4,66.5,417/1000,100,90.0
0,103,F#4,67.0,0.5,100,90.0
0,104,B-4,67.5,0.5,100,90.0
0,105,E-5,68.0,417/1000,100,90.0
0,106,B2,68.0,4.0,100,90.0
0,107,E-5,68.5,417/1000,100,90.0
0,108,E-5,69.0,417/1000,100,90.0
0,109,E-5,69.5,417/1000,100,90.0
0,110,E-5,70.0,417/1000,100,90.0
0,111,E-5,70.5,417/1000,100,90.0
0,112,C#5,71.0,417/1000,100,90.0
0,113,C#5,71.5,417/1000,100,90.0
0,114,B-4,72.0,417/1000,100,90.0
0,115,F#3,72.0,4.0,100,90.0
0,116,B-4,72.5,417/1000,100,90.0
0,117,B-4,73.0,417/1000,100,90.0
0,118,B-4,73.5,417/1000,100,90.0
0,119,B-4,74.0,417/1000,100,90.0
0,120,B-4,74.5,417/1000,100,90.0
0,121,B-4,75.0,0.375,100,90.0
0,122,B-4,75.5,0.5,100,90.0
0,123,F4,76.0,417/1000,100,90.0
0,124,C#3,76.0,4.0,100,90.0
0,125,F4,76.5,417/1000,100,90.0
0,126,F4,77.0,417/1000,100,90.0
0,127,F4,77.5,417/1000,100,90.0
0,128,F4,78.0,417/1000,100,90.0
0,129,F4,78.5,417/1000,100,90.0
0,130,F4,79.0,417/1000,100,90.0
0,131,F4,79.5,417/1000,100,90.0
0,132,F#4,80.0,417/1000,100,90.0
0,133,E-3,80.0,4.0,100,90.0
0,134,F#4,80.5,417/1000,100,90.0
0,135,F#4,81.0,417/1000,100,90.0
0,136,F#4,81.5,417/1000,100,90.0
0,137,B-4,82.0,417/1000,100,90.0
0,138,B-4,82.5,229/500,100,90.0
0,139,F#5,83.0,229/500,100,90.0
0,140,F5,83.5,229/500,100,90.0
0,141,E-5,84.0,417/1000,100,90.0
0,142,B2,84.0,4.0,100,90.0
0,143,E-5,84.5,417/1000,100,90.0
0,144,E-5,85.0,417/1000,100,90.0
0,145,C#5,85.5,417/1000,100,90.0
0,146,C#5,86.0,417/1000,100,90.0
0,147,C#5,86.5,417/1000,100,90.0
0,148,G#4,87.0,417/1000,100,90.0
0,149,G#4,87.5,417/1000,100,90.0
0,150,B-4,88.0,417/1000,100,90.0
0,151,F#3,88.0,4.0,100,90.0
0,152,B-4,88.5,417/1000,100,90.0
0,153,B-4,89.0,417/1000,100,90.0
0,154,B-4,89.5,417/1000,100,90.0
0,155,C#5,90.0,417/1000,100,90.0
0,156,B4,90.5,417/1000,100,90.0
0,157,B-4,91.0,229/500,100,90.0
0,158,F#4,91.5,0.5,100,90.0
0,159,F4,92.0,417/1000,100,90.0
0,160,C#3,92.0,4.0,100,90.0
0,161,F4,92.5,417/1000,100,90.0
0,162,F4,93.0,417/1000,100,90.0
0,163,F4,93.5,417/1000,100,90.0
0,164,G#4,94.0,1.0,100,90.0
0,165,F4,95.0,1.0,100,90.0
0,166,F#4,96.0,417/1000,100,90.0
0,167,E-3,96.0,4.0,100,90.0
0,168,F#4,96.5,417/1000,100,90.0
0,169,F#4,97.0,417/1000,100,90.0
0,170,F#4,97.5,417/1000,100,90.0
0,171,B-4,98.0,417/1000,100,90.0
0,172,B-4,98.5,229/500,100,90.0
0,173,F#5,99.0,229/500,100,90.0
0,174,F5,99.5,229/500,100,90.0
0,175,E-5,100.0,417/1000,100,90.0
0,176,B2,100.0,4.0,100,90.0
0,177,E-5,100.5,417/1000,100,90.0
0,178,E-5,101.0,417/1000,100,90.0
0,179,C#5,101.5,417/1000,100,90.0
0,180,C#5,102.0,417/1000,100,90.0
0,181,C#5,102.5,417/1000,100,90.0
0,182,G#4,103.0,417/1000,100,90.0
0,183,G#4,103.5,417/1000,100,90.0
0,184,B-4,104.0,417/1000,100,90.0
0,185,F#3,104.0,4.0,100,90.0
0,186,B-4,104.5,417/1000,100,90.0
0,187,B-4,105.0,417/1000,100,90.0
0,188,B-4,105.5,417/1000,100,90.0
0,189,C#5,106.0,417/1000,100,90.0
0,190,B4,106.5,417/1000,100,90.0
0,191,B-4,107.0,229/500,100,90.0
0,192,F#4,107.5,0.5,100,90.0
0,193,F4,108.0,417/1000,100,90.0
0,194,C#3,108.0,4.0,100,90.0
0,195,F4,108.5,417/1000,100,90.0
0,196,F4,109.0,417/1000,100,90.0
0,197,F4,109.5,417/1000,100,90.0
0,198,F#4,110.0,1.0,100,90.0
0,199,G#4,111.0,0.5,100,90.0
0,200,F#4,111.5,0.5,100,90.0
0,201,F#4,112.0,0.5,100,90.0
1,0,F#2,4.0,0.25,127,90.0
1,1,F#2,5.0,0.25,127,90.0
1,2,F#2,6.0,0.25,127,90.0
1,3,F#2,7.0,0.25,127,90.0
1,4,A3,7.75,0.25,115,90.0
1,5,B1,7.75,0.25,120,90.0
1,6,A4,7.75,0.25,120,90.0
1,7,C#3,7.75,0.25,120,90.0
1,8,C2,7.75,0.25,127,90.0
1,9,A4,7.75,0.25,100,90.0
1,10,A3,7.75,0.25,100,90.0
1,11,A4,7.75,0.25,100,90.0
1,12,A3,7.75,0.25,100,90.0
1,13,A4,7.969,0.031,127,90.0
1,14,A4,7.969,0.031,127,90.0
1,15,F#2,7.969,0.031,127,90.0
1,16,A3,8.0,83/1000,115,90.0
1,17,B1,8.0,0.25,120,90.0
1,18,C#3,8.0,0.25,120,90.0
1,19,A4,8.0,83/1000,100,90.0
1,20,A3,8.0,83/1000,100,90.0
1,21,A4,8.0,83/1000,100,90.0
1,22,A3,8.0,83/1000,100,90.0
1,23,A4,8.0,0.219,127,90.0
1,24,A4,8.0,0.219,127,90.0
1,25,F#2,8.0,0.219,127,90.0
1,26,A4,8.24,0.25,127,90.0
1,27,A4,8.49,0.25,127,90.0
1,28,F#2,8.49,0.25,127,90.0
1,29,C2,8.49,0.25,127,90.0
1,30,G#3,8.5,333/1000,115,90.0
1,31,C#2,8.5,0.5,120,90.0
1,32,G#4,8.5,0.5,120,90.0
1,33,C#3,8.5,0.5,120,90.0
1,34,G#3,8.5,333/1000,100,90.0
1,35,G#4,8.5,333/1000,100,90.0
1,36,G#3,8.5,333/1000,100,90.0
1,37,G#4,8.5,333/1000,100,90.0
1,38,A4,8.74,0.25,127,90.0
1,39,A4,8.99,0.25,127,90.0
1,40,D2,8.99,0.25,127,90.0
1,41,F#2,8.99,0.25,127,90.0
1,42,F#3,9.0,0.25,127,90.0
1,43,F#4,9.0,0.25,127,90.0
1,44,A4,9.24,0.25,127,90.0
1,45,A4,9.49,0.25,127,90.0
1,46,F#2,9.49,0.25,127,90.0
1,47,G#3,9.523,0.312,127,90.0
1,48,A4,9.74,0.25,127,90.0
1,49,C2,9.74,0.25,127,90.0
1,50,A4,9.99,0.25,127,90.0
1,51,F#2,9.99,0.25,127,90.0
1,52,A4,10.24,0.25,127,90.0
1,53,G#3,10.484,323/1000,127,90.0
1,54,A4,10.49,0.25,127,90.0
1,55,C2,10.49,0.25,127,90.0
1,56,F#2,10.49,0.25,127,90.0
1,57,A4,10.74,0.25,127,90.0
1,58,A4,10.99,0.25,127,90.0
1,59,D2,10.99,0.25,127,90.0
1,60,F#2,10.99,0.25,127,90.0
1,61,F#4,11.0,0.25,127,90.0
1,62,F#3,11.0,0.25,127,90.0
1,63,A4,11.24,0.25,127,90.0
1,64,A4,11.49,0.25,127,90.0
1,65,F#2,11.49,0.25,127,90.0
1,66,G#3,11.503,0.297,127,90.0
1,67,A4,11.74,0.25,127,90.0
1,68,C2,11.74,0.25,127,90.0
1,69,G#3,11.75,0.25,115,90.0
1,70,E2,11.75,0.25,120,90.0
1,71,G#4,11.75,0.25,120,90.0
1,72,C#3,11.75,0.25,120,90.0
1,73,G#3,11.75,0.25,100,90.0
1,74,G#4,11.75,0.25,100,90.0
1,75,G#3,11.75,0.25,100,90.0
1,76,G#4,11.75,0.25,100,90.0
1,77,A4,11.99,1/100,127,90.0
1,78,F#2,11.99,1/100,127,90.0
1,79,G#3,12.0,83/1000,115,90.0
1,80,E2,12.0,0.25,120,90.0
1,81,C#3,12.0,0.25,120,90.0
1,82,G#3,12.0,83/1000,100,90.0
1,83,G#4,12.0,83/1000,100,90.0
1,84,G#3,12.0,83/1000,100,90.0
1,85,G#4,12.0,83/1000,100,90.0
1,86,A4,12.0,6/25,127,90.0
1,87,F#2,12.0,6/25,127,90.0
1,88,A4,12.24,0.25,127,90.0
1,89,G#3,12.487,333/1000,127,90.0
1,90,A4,12.49,0.25,127,90.0
1,91,C2,12.49,0.25,127,90.0
1,92,F#2,12.49,0.25,127,90.0
1,93,A3,12.5,333/1000,115,90.0
1,94,E-2,12.5,0.5,120,90.0
1,95,A4,12.5,0.25,120,90.0
1,96,C#3,12.5,0.5,120,90.0
1,97,A3,12.5,333/1000,100,90.0
1,98,A4,12.5,333/1000,100,90.0
1,99,A3,12.5,333/1000,100,90.0
1,100,A4,12.5,333/1000,100,90.0
1,101,A4,12.74,0.25,127,90.0
1,102,A4,12.99,0.25,127,90.0
1,103,D2,12.99,0.25,127,90.0
1,104,F#2,12.99,0.25,127,90.0
1,105,F#4,13.0,0.25,127,90.0
1,106,F#3,13.0,0.25,127,90.0
1,107,A4,13.24,0.25,127,90.0
1,108,A4,13.49,0.25,127,90.0
1,109,F#2,13.49,0.25,127,90.0
1,110,G#3,13.497,0.312,127,90.0
1,111,A4,13.74,0.25,127,90.0
1,112,C2,13.74,0.25,127,90.0
1,113,F#3,13.75,333/1000,115,90.0
1,114,F#2,13.75,0.5,120,90.0
1,115,F#4,13.75,0.25,120,90.0
1,116,C#3,13.75,0.5,120,90.0
1,117,F#3,13.75,333/1000,100,90.0
1,118,F#4,13.75,333/1000,100,90.0
1,119,F#3,13.75,333/1000,100,90.0
1,120,F#4,13.75,333/1000,100,90.0
1,121,A4,13.99,0.25,127,90.0
1,122,F#2,13.99,0.25,127,90.0
1,123,A4,14.24,0.25,127,90.0
1,124,G#3,14.479,181/500,127,90.0
1,125,A4,14.49,0.25,127,90.0
1,126,C2,14.49,0.25,127,90.0
1,127,F#2,14.49,0.25,127,90.0
1,128,G#3,14.5,333/1000,115,90.0
1,129,E2,14.5,0.5,120,90.0
1,130,G#4,14.5,0.25,120,90.0
1,131,C#3,14.5,0.5,120,90.0
1,132,G#4,14.5,333/1000,100,90.0
1,133,G#3,14.5,333/1000,100,90.0
1,134,G#4,14.5,333/1000,100,90.0
1,135,G#3,14.5,333/1000,100,90.0
1,136,A4,14.74,0.25,127,90.0
1,137,A4,14.99,0.25,127,90.0
1,138,D2,14.99,0.25,127,90.0
1,139,F#2,14.99,0.25,127,90.0
1,140,F#4,15.0,0.25,127,90.0
1,141,F#3,15.0,0.25,127,90.0
1,142,A4,15.24,0.25,127,90.0
1,143,G#3,15.482,0.344,127,90.0
1,144,A4,15.49,0.25,127,90.0
1,145,F#2,15.49,0.25,127,90.0
1,146,A4,15.74,0.25,127,90.0
1,147,C2,15.74,0.25,127,90.0
1,148,A3,15.75,0.25,115,90.0
1,149,B1,15.75,0.25,120,90.0
1,150,A4,15.75,0.25,120,90.0
1,151,C#3,15.75,0.25,120,90.0
1,152,A3,15.75,0.25,100,90.0
1,153,A4,15.75,0.25,100,90.0
1,154,A3,15.75,0.25,100,90.0
1,155,A4,15.75,0.25,100,90.0
1,156,A4,15.99,1/100,127,90.0
1,157,F#2,15.99,1/100,127,90.0
1,158,C#3,16.0,0.453,127,90.0
1,159,A3,16.0,83/1000,115,90.0
1,160,B1,16.0,0.25,120,90.0
1,161,C#3,16.0,0.25,120,90.0
1,162,A3,16.0,83/1000,100,90.0
1,163,A4,16.0,83/1000,100,90.0
1,164,A3,16.0,83/1000,100,90.0
1,165,A4,16.0,83/1000,100,90.0
1,166,A4,16.24,6/25,127,90.0
1,167,F#2,16.24,6/25,127,90.0
1,168,A4,16.479,0.25,127,90.0
1,169,G#3,16.5,333/1000,115,90.0
1,170,C#2,16.5,0.5,120,90.0
1,171,G#4,16.5,0.25,120,90.0
1,172,C#3,16.5,0.5,120,90.0
1,173,G#3,16.5,333/1000,100,90.0
1,174,G#4,16.5,333/1000,100,90.0
1,175,G#3,16.5,333/1000,100,90.0
1,176,G#4,16.5,333/1000,100,90.0
1,177,G#3,16.513,67/250,127,90.0
1,178,A4,16.729,0.25,127,90.0
1,179,C2,16.729,0.25,127,90.0
1,180,F#2,16.729,0.25,127,90.0
1,181,A4,16.979,0.25,127,90.0
1,182,F#4,17.0,0.25,127,90.0
1,183,F#3,17.0,0.25,127,90.0
1,184,A4,17.229,0.25,127,90.0
1,185,D2,17.229,0.25,127,90.0
1,186,F#2,17.229,0.25,127,90.0
1,187,G#3,17.273,0.133,127,90.0
1,188,A4,17.479,0.25,127,90.0
1,189,A4,17.729,0.25,127,90.0
1,190,F#2,17.729,0.25,127,90.0
1,191,G#3,17.773,27/200,127,90.0
1,192,C#3,17.979,323/1000,127,90.0
1,193,A4,17.979,0.25,127,90.0
1,194,C2,17.979,0.25,127,90.0
1,195,A4,18.229,0.25,127,90.0
1,196,F#2,18.229,0.25,127,90.0
1,197,A4,18.479,0.25,127,90.0
1,198,G#3,18.497,307/1000,127,90.0
1,199,A4,18.729,0.25,127,90.0
1,200,C2,18.729,0.25,127,90.0
1,201,F#2,18.729,0.25,127,90.0
1,202,A4,18.979,0.25,127,90.0
1,203,F#4,19.0,0.25,127,90.0
1,204,F#3,19.0,0.25,127,90.0
1,205,A4,19.229,0.25,127,90.0
1,206,D2,19.229,0.25,127,90.0
1,207,F#2,19.229,0.25,127,90.0
1,208,G#3,19.255,73/1000,127,90.0
1,209,G#3,19.471,16/125,127,90.0
1,210,A4,19.479,0.25,127,90.0
1,211,G#3,19.729,0.102,127,90.0
1,212,A4,19.729,0.25,127,90.0
1,213,F#2,19.729,0.25,127,90.0
1,214,G#3,19.75,0.25,115,90.0
1,215,E2,19.75,0.25,120,90.0
1,216,G#4,19.75,0.25,120,90.0
1,217,C#3,19.75,0.25,120,90.0
1,218,G#3,19.75,0.25,100,90.0
1,219,G#4,19.75,0.25,100,90.0
1,220,G#3,19.75,0.25,100,90.0
1,221,G#4,19.75,0.25,100,90.0
1,222,A4,19.979,0.25,127,90.0
1,223,C2,19.979,0.25,127,90.0
1,224,G#3,20.0,83/1000,115,90.0
1,225,E2,20.0,0.25,120,90.0
1,226,C#3,20.0,0.25,120,90.0
1,227,G#3,20.0,83/1000,100,90.0
1,228,G#4,20.0,83/1000,100,90.0
1,229,G#3,20.0,83/1000,100,90.0
1,230,G#4,20.0,83/1000,100,90.0
1,231,G#3,20.005,159/500,127,90.0
1,232,A4,20.229,1/100,127,90.0
1,233,F#2,20.229,1/100,127,90.0
1,234,A4,20.479,6/25,127,90.0
1,235,F#2,20.479,6/25,127,90.0
1,236,A3,20.5,333/1000,115,90.0
1,237,E-2,20.5,0.5,120,90.0
1,238,A4,20.5,0.25,120,90.0
1,239,C#3,20.5,0.5,120,90.0
1,240,A3,20.5,333/1000,100,90.0
1,241,A4,20.5,333/1000,100,90.0
1,242,A3,20.5,333/1000,100,90.0
1,243,A4,20.5,333/1000,100,90.0
1,244,G#3,20.513,0.133,127,90.0
1,245,A4,20.719,0.25,127,90.0
1,246,G#3,20.789,253/1000,127,90.0
1,247,A4,20.969,0.25,127,90.0
1,248,C2,20.969,0.25,127,90.0
1,249,F#2,20.969,0.25,127,90.0
1,250,F#4,21.0,0.25,127,90.0
1,251,F#3,21.0,0.25,127,90.0
1,252,A4,21.219,0.25,127,90.0
1,253,G#3,21.312,177/1000,127,90.0
1,254,A4,21.469,0.25,127,90.0
1,255,D2,21.469,0.25,127,90.0
1,256,F#2,21.469,0.25,127,90.0
1,257,A4,21.719,0.25,127,90.0
1,258,F#3,21.75,333/1000,115,90.0
1,259,F#2,21.75,0.5,120,90.0
1,260,F#4,21.75,0.25,120,90.0
1,261,F#4,21.75,333/1000,100,90.0
1,262,F#3,21.75,333/1000,100,90.0
1,263,F#4,21.75,333/1000,100,90.0
1,264,F#3,21.75,333/1000,100,90.0
1,265,G#3,21.773,201/1000,127,90.0
1,266,A4,21.969,0.25,127,90.0
1,267,F#2,21.969,0.25,127,90.0
1,268,C#3,22.008,0.352,127,90.0
1,269,A4,22.219,0.25,127,90.0
1,270,C2,22.219,0.25,127,90.0
1,271,A4,22.469,0.25,127,90.0
1,272,F#2,22.469,0.25,127,90.0
1,273,G#3,22.482,91/1000,127,90.0
1,274,G#3,22.5,333/1000,115,90.0
1,275,E2,22.5,0.5,120,90.0
1,276,G#4,22.5,0.25,120,90.0
1,277,G#4,22.5,333/1000,100,90.0
1,278,G#3,22.5,333/1000,100,90.0
1,279,G#4,22.5,333/1000,100,90.0
1,280,G#3,22.5,333/1000,100,90.0
1,281,A4,22.719,0.25,127,90.0
1,282,G#3,22.724,0.094,127,90.0
1,283,A4,22.969,0.25,127,90.0
1,284,C2,22.969,0.25,127,90.0
1,285,F#2,22.969,0.25,127,90.0
1,286,G#3,22.987,107/1000,127,90.0
1,287,F#4,23.0,0.25,127,90.0
1,288,F#3,23.0,0.25,127,90.0
1,289,A4,23.219,0.25,127,90.0
1,290,G#3,23.247,0.102,127,90.0
1,291,A4,23.469,0.25,127,90.0
1,292,D2,23.469,0.25,127,90.0
1,293,F#2,23.469,0.25,127,90.0
1,294,G#3,23.516,107/1000,127,90.0
1,295,A4,23.719,0.25,127,90.0
1,296,A3,23.75,0.25,115,90.0
1,297,B1,23.75,0.25,120,90.0
1,298,A4,23.75,0.25,120,90.0
1,299,C#3,23.75,0.25,120,90.0
1,300,A3,23.75,0.25,100,90.0
1,301,A4,23.75,0.25,100,90.0
1,302,A3,23.75,0.25,100,90.0
1,303,A4,23.75,0.25,100,90.0
1,304,G#3,23.763,0.094,127,90.0
1,305,A4,23.969,0.25,127,90.0
1,306,F#2,23.969,0.25,127,90.0
1,307,A3,24.0,83/1000,115,90.0
1,308,B1,24.0,0.25,120,90.0
1,309,A4,24.0,0.25,120,90.0
1,310,C#3,24.0,0.25,120,90.0
1,311,A3,24.0,83/1000,100,90.0
1,312,A4,24.0,83/1000,100,90.0
1,313,A3,24.0,83/1000,100,90.0
1,314,A4,24.0,83/1000,100,90.0
1,315,G#3,24.008,339/1000,127,90.0
1,316,A4,24.219,0.25,127,90.0
1,317,C2,24.219,0.25,127,90.0
1,318,A4,24.469,1/100,127,90.0
1,319,F#2,24.469,1/100,127,90.0
1,320,G#3,24.5,333/1000,115,90.0
1,321,C#2,24.5,0.5,120,90.0
1,322,G#4,24.5,0.25,120,90.0
1,323,C#3,24.5,0.5,120,90.0
1,324,G#3,24.5,333/1000,100,90.0
1,325,G#4,24.5,333/1000,100,90.0
1,326,G#3,24.5,333/1000,100,90.0
1,327,G#4,24.5,333/1000,100,90.0
1,328,G#3,24.513,0.109,127,90.0
1,329,A4,24.719,6/25,127,90.0
1,330,F#2,24.719,6/25,127,90.0
1,331,G#3,24.779,0.219,127,90.0
1,332,A4,24.958,0.25,127,90.0
1,333,F#4,25.0,0.25,127,90.0
1,334,F#3,25.0,0.25,127,90.0
1,335,A4,25.208,0.25,127,90.0
1,336,C2,25.208,0.25,127,90.0
1,337,F#2,25.208,0.25,127,90.0
1,338,G#3,25.305,73/500,127,90.0
1,339,A4,25.458,0.25,127,90.0
1,340,A4,25.708,0.25,127,90.0
1,341,D2,25.708,0.25,127,90.0
1,342,F#2,25.708,0.25,127,90.0
1,343,G#3,25.737,19/100,127,90.0
1,344,A4,25.958,0.25,127,90.0
1,345,C#3,25.966,0.297,127,90.0
1,346,A4,26.208,0.25,127,90.0
1,347,F#2,26.208,0.25,127,90.0
1,348,A4,26.458,0.25,127,90.0
1,349,C2,26.458,0.25,127,90.0
1,350,G#3,26.466,67/250,127,90.0
1,351,A4,26.708,0.25,127,90.0
1,352,F#2,26.708,0.25,127,90.0
1,353,A4,26.958,0.25,127,90.0
1,354,F#3,27.0,0.25,127,90.0
1,355,F#4,27.0,0.25,127,90.0
1,356,A4,27.208,0.25,127,90.0
1,357,C2,27.208,0.25,127,90.0
1,358,F#2,27.208,0.25,127,90.0
1,359,G#3,27.232,91/1000,127,90.0
1,360,A4,27.458,0.25,127,90.0
1,361,G#3,27.495,91/1000,127,90.0
1,362,A4,27.708,0.25,127,90.0
1,363,D2,27.708,0.25,127,90.0
1,364,F#2,27.708,0.25,127,90.0
1,365,G#3,27.75,0.25,115,90.0
1,366,E2,27.75,0.25,120,90.0
1,367,G#4,27.75,0.25,120,90.0
1,368,C#3,27.75,0.25,120,90.0
1,369,G#3,27.75,0.25,100,90.0
1,370,G#4,27.75,0.25,100,90.0
1,371,G#3,27.75,0.25,100,90.0
1,372,G#4,27.75,0.25,100,90.0
1,373,G#3,27.76,0.164,127,90.0
1,374,A4,27.958,0.25,127,90.0
1,375,G#3,28.0,83/1000,115,90.0
1,376,E2,28.0,0.25,120,90.0
1,377,C#3,28.0,0.25,120,90.0
1,378,G#3,28.0,83/1000,100,90.0
1,379,G#4,28.0,83/1000,100,90.0
1,380,G#3,28.0,83/1000,100,90.0
1,381,G#4,28.0,83/1000,100,90.0
1,382,C#3,28.003,0.211,127,90.0
1,383,A4,28.208,0.25,127,90.0
1,384,F#2,28.208,0.25,127,90.0
1,385,G#3,28.25,143/1000,127,90.0
1,386,A4,28.458,0.25,127,90.0
1,387,C2,28.458,0.25,127,90.0
1,388,A3,28.5,333/1000,115,90.0
1,389,E-2,28.5,0.5,120,90.0
1,390,A4,28.5,0.25,120,90.0
1,391,C#3,28.5,0.5,120,90.0
1,392,A3,28.5,333/1000,100,90.0
1,393,A4,28.5,333/1000,100,90.0
1,394,A3,28.5,333/1000,100,90.0
1,395,A4,28.5,333/1000,100,90.0
1,396,G#3,28.513,0.102,127,90.0
1,397,A4,28.708,1/100,127,90.0
1,398,F#2,28.708,1/100,127,90.0
1,399,G#3,28.732,14/125,127,90.0
1,400,A4,28.958,6/25,127,90.0
1,401,F#2,28.958,6/25,127,90.0
1,402,F#4,29.0,0.25,127,90.0
1,403,F#3,29.0,0.25,127,90.0
1,404,G#3,29.008,107/1000,127,90.0
1,405,A4,29.198,0.25,127,90.0
1,406,G#3,29.253,99/1000,127,90.0
1,407,A4,29.448,0.25,127,90.0
1,408,C2,29.448,0.25,127,90.0
1,409,F#2,29.448,0.25,127,90.0
1,410,G#3,29.51,107/1000,127,90.0
1,411,A4,29.698,0.25,127,90.0
1,412,F#3,29.75,333/1000,115,90.0
1,413,F#2,29.75,0.5,120,90.0
1,414,F#4,29.75,0.25,120,90.0
1,415,C#3,29.75,0.5,120,90.0
1,416,F#4,29.75,333/1000,100,90.0
1,417,F#3,29.75,333/1000,100,90.0
1,418,F#4,29.75,333/1000,100,90.0
1,419,F#3,29.75,333/1000,100,90.0
1,420,G#3,29.776,99/1000,127,90.0
1,421,A4,29.948,0.25,127,90.0
1,422,D2,29.948,0.25,127,90.0
1,423,F#2,29.948,0.25,127,90.0
1,424,G#3,30.021,0.242,127,90.0
1,425,A4,30.198,0.25,127,90.0
1,426,A4,30.448,0.25,127,90.0
1,427,F#2,30.448,0.25,127,90.0
1,428,G#3,30.5,333/1000,115,90.0
1,429,E2,30.5,0.5,120,90.0
1,430,G#4,30.5,0.25,120,90.0
1,431,C#3,30.5,0.5,120,90.0
1,432,G#3,30.5,333/1000,100,90.0
1,433,G#4,30.5,333/1000,100,90.0
1,434,G#3,30.5,333/1000,100,90.0
1,435,G#4,30.5,333/1000,100,90.0
1,436,G#3,30.523,0.289,127,90.0
1,437,A4,30.698,0.25,127,90.0
1,438,C2,30.698,0.25,127,90.0
1,439,A4,30.948,0.25,127,90.0
1,440,F#2,30.948,0.25,127,90.0
1,441,F#4,31.0,0.25,127,90.0
1,442,F#3,31.0,0.25,127,90.0
1,443,G#3,31.034,13/125,127,90.0
1,444,A4,31.198,0.25,127,90.0
1,445,G#3,31.268,13/125,127,90.0
1,446,A4,31.448,0.25,127,90.0
1,447,C2,31.448,0.25,127,90.0
1,448,F#2,31.448,0.25,127,90.0
1,449,G#3,31.516,14/125,127,90.0
1,450,A4,31.698,0.25,127,90.0
1,451,G#3,31.747,12/125,127,90.0
1,452,A3,31.75,0.25,115,90.0
1,453,B1,31.75,0.25,120,90.0
1,454,A4,31.75,0.25,120,90.0
1,455,C#3,31.75,0.25,120,90.0
1,456,C#5,31.75,0.25,100,90.0
1,457,A5,31.75,0.25,100,90.0
1,458,A3,31.75,0.25,100,90.0
1,459,A4,31.75,0.25,100,90.0
1,460,A3,31.75,0.25,100,90.0
1,461,A4,31.75,0.25,100,90.0
1,462,A4,31.948,0.25,127,90.0
1,463,D2,31.948,0.25,127,90.0
1,464,F#2,31.948,0.25,127,90.0
1,465,A3,32.0,83/1000,115,90.0
1,466,B1,32.0,0.25,120,90.0
1,467,C#3,32.0,0.25,120,90.0
1,468,C#5,32.0,83/1000,100,90.0
1,469,A5,32.0,83/1000,100,90.0
1,470,A3,32.0,83/1000,100,90.0
1,471,A4,32.0,83/1000,100,90.0
1,472,A3,32.0,83/1000,100,90.0
1,473,A4,32.0,83/1000,100,90.0
1,474,G#3,32.005,0.383,127,90.0
1,475,A4,32.198,0.25,127,90.0
1,476,C#3,32.25,0.25,120,90.0
1,477,A4,32.448,0.25,127,90.0
1,478,F#2,32.448,0.25,127,90.0
1,479,G#3,32.5,333/1000,115,90.0
1,480,C#2,32.5,0.5,120,90.0
1,481,G#4,32.5,0.25,120,90.0
1,482,C#3,32.5,0.25,120,90.0
1,483,C#5,32.5,333/1000,100,90.0
1,484,G#5,32.5,333/1000,100,90.0
1,485,G#3,32.5,333/1000,100,90.0
1,486,G#4,32.5,333/1000,100,90.0
1,487,G#3,32.5,333/1000,100,90.0
1,488,G#4,32.5,333/1000,100,90.0
1,489,A4,32.698,0.25,127,90.0
1,490,C2,32.698,0.25,127,90.0
1,491,C#3,32.75,0.25,120,90.0
1,492,A4,32.948,1/100,127,90.0
1,493,F#2,32.948,1/100,127,90.0
1,494,C#3,33.0,0.25,120,90.0
1,495,F#4,33.0,0.25,127,90.0
1,496,F#3,33.0,0.25,127,90.0
1,497,G#3,33.018,107/1000,127,90.0
1,498,A4,33.198,6/25,127,90.0
1,499,F#2,33.198,6/25,127,90.0
1,500,C#3,33.25,0.25,120,90.0
1,501,G#3,33.263,13/125,127,90.0
1,502,A4,33.438,0.25,127,90.0
1,503,C#3,33.5,0.25,120,90.0
1,504,G#3,33.508,91/1000,127,90.0
1,505,A4,33.688,0.25,127,90.0
1,506,C2,33.688,0.25,127,90.0
1,507,F#2,33.688,0.25,127,90.0
1,508,G#3,33.742,99/1000,127,90.0
1,509,C#3,33.75,0.25,120,90.0
1,510,A4,33.938,0.25,127,90.0
1,511,C#3,34.0,0.25,120,90.0
1,512,G#3,34.029,299/1000,127,90.0
1,513,A4,34.188,0.25,127,90.0
1,514,D2,34.188,0.25,127,90.0
1,515,F#2,34.188,0.25,127,90.0
1,516,C#3,34.25,0.25,120,90.0
1,517,A4,34.438,0.25,127,90.0
1,518,C#3,34.5,0.25,120,90.0
1,519,G#3,34.518,14/125,127,90.0
1,520,A4,34.688,0.25,127,90.0
1,521,F#2,34.688,0.25,127,90.0
1,522,C#3,34.75,0.25,120,90.0
1,523,G#3,34.771,323/1000,127,90.0
1,524,A4,34.938,0.25,127,90.0
1,525,C2,34.938,0.25,127,90.0
1,526,C#3,35.0,0.25,120,90.0
1,527,F#4,35.0,0.25,127,90.0
1,528,F#3,35.0,0.25,127,90.0
1,529,A4,35.188,0.25,127,90.0
1,530,F#2,35.188,0.25,127,90.0
1,531,C#3,35.25,0.25,120,90.0
1,532,G#3,35.253,27/200,127,90.0
1,533,A4,35.438,0.25,127,90.0
1,534,C#3,35.5,0.25,120,90.0
1,535,G#3,35.516,107/1000,127,90.0
1,536,A4,35.688,0.25,127,90.0
1,537,C2,35.688,0.25,127,90.0
1,538,F#2,35.688,0.25,127,90.0
1,539,G#3,35.75,0.25,115,90.0
1,540,E2,35.75,0.25,120,90.0
1,541,G#4,35.75,0.25,120,90.0
1,542,C#3,35.75,0.25,120,90.0
1,543,C#5,35.75,0.25,100,90.0
1,544,G#5,35.75,0.25,100,90.0
1,545,G#3,35.75,0.25,100,90.0
1,546,G#4,35.75,0.25,100,90.0
1,547,G#3,35.75,0.25,100,90.0
1,548,G#4,35.75,0.25,100,90.0
1,549,G#3,35.763,0.094,127,90.0
1,550,A4,35.938,0.25,127,90.0
1,551,G#3,36.0,83/1000,115,90.0
1,552,E2,36.0,0.25,120,90.0
1,553,G#4,36.0,0.25,120,90.0
1,554,C#3,36.0,0.25,120,90.0
1,555,C#5,36.0,83/1000,100,90.0
1,556,G#5,36.0,83/1000,100,90.0
1,557,G#3,36.0,83/1000,100,90.0
1,558,G#4,36.0,83/1000,100,90.0
1,559,G#3,36.0,83/1000,100,90.0
1,560,G#4,36.0,83/1000,100,90.0
1,561,G#3,36.023,163/500,127,90.0
1,562,A4,36.188,0.25,127,90.0
1,563,D2,36.188,0.25,127,90.0
1,564,F#2,36.188,0.25,127,90.0
1,565,C#3,36.25,0.25,120,90.0
1,566,A4,36.438,0.25,127,90.0
1,567,A3,36.5,333/1000,115,90.0
1,568,E-2,36.5,0.5,120,90.0
1,569,A4,36.5,0.5,120,90.0
1,570,C#3,36.5,0.25,120,90.0
1,571,C#5,36.5,333/1000,100,90.0
1,572,A5,36.5,333/1000,100,90.0
1,573,A4,36.5,333/1000,100,90.0
1,574,A3,36.5,333/1000,100,90.0
1,575,A4,36.5,333/1000,100,90.0
1,576,A3,36.5,333/1000,100,90.0
1,577,G#3,36.534,0.102,127,90.0
1,578,A4,36.688,0.25,127,90.0
1,579,F#2,36.688,0.25,127,90.0
1,580,C#3,36.75,0.25,120,90.0
1,581,G#3,36.789,151/500,127,90.0
1,582,A4,36.938,0.25,127,90.0
1,583,C2,36.938,0.25,127,90.0
1,584,C#3,37.0,0.25,120,90.0
1,585,F#4,37.0,0.25,127,90.0
1,586,F#3,37.0,0.25,127,90.0
1,587,A4,37.188,1/100,127,90.0
1,588,F#2,37.188,1/100,127,90.0
1,589,C#3,37.25,0.25,120,90.0
1,590,G#3,37.268,99/1000,127,90.0
1,591,A4,37.438,6/25,127,90.0
1,592,F#2,37.438,6/25,127,90.0
1,593,C#3,37.5,0.25,120,90.0
1,594,G#3,37.542,83/1000,127,90.0
1,595,A4,37.677,0.25,127,90.0
1,596,F#3,37.75,333/1000,115,90.0
1,597,F#2,37.75,0.5,120,90.0
1,598,F#4,37.75,0.5,120,90.0
1,599,C#3,37.75,0.25,120,90.0
1,600,C#5,37.75,333/1000,100,90.0
1,601,F#5,37.75,333/1000,100,90.0
1,602,F#4,37.75,333/1000,100,90.0
1,603,F#3,37.75,333/1000,100,90.0
1,604,F#4,37.75,333/1000,100,90.0
1,605,F#3,37.75,333/1000,100,90.0
1,606,G#3,37.779,0.094,127,90.0
1,607,A4,37.927,0.25,127,90.0
1,608,C2,37.927,0.25,127,90.0
1,609,F#2,37.927,0.25,127,90.0
1,610,C#3,38.0,0.25,120,90.0
1,611,G#3,38.034,189/500,127,90.0
1,612,A4,38.177,0.25,127,90.0
1,613,C#3,38.25,0.25,120,90.0
1,614,A4,38.427,0.25,127,90.0
1,615,D2,38.427,0.25,127,90.0
1,616,F#2,38.427,0.25,127,90.0
1,617,G#3,38.5,333/1000,115,90.0
1,618,E2,38.5,0.5,120,90.0
1,619,G#4,38.5,0.5,120,90.0
1,620,C#3,38.5,0.25,120,90.0
1,621,C#5,38.5,333/1000,100,90.0
1,622,G#5,38.5,333/1000,100,90.0
1,623,G#3,38.5,333/1000,100,90.0
1,624,G#4,38.5,333/1000,100,90.0
1,625,G#3,38.5,333/1000,100,90.0
1,626,G#4,38.5,333/1000,100,90.0
1,627,A4,38.677,0.25,127,90.0
1,628,G#3,38.729,99/1000,127,90.0
1,629,C#3,38.75,0.25,120,90.0
1,630,A4,38.927,0.25,127,90.0
1,631,F#2,38.927,0.25,127,90.0
1,632,C#3,39.0,0.25,120,90.0
1,633,F#4,39.0,0.25,127,90.0
1,634,F#3,39.0,0.25,127,90.0
1,635,G#3,39.008,13/125,127,90.0
1,636,A4,39.177,0.25,127,90.0
1,637,C2,39.177,0.25,127,90.0
1,638,G#3,39.25,0.102,127,90.0
1,639,C#3,39.25,0.25,120,90.0
1,640,A4,39.427,0.25,127,90.0
1,641,F#2,39.427,0.25,127,90.0
1,642,C#3,39.5,0.25,120,90.0
1,643,G#3,39.508,0.102,127,90.0
1,644,A4,39.677,0.25,127,90.0
1,645,A3,39.75,0.25,115,90.0
1,646,B1,39.75,0.25,120,90.0
1,647,A4,39.75,0.25,120,90.0
1,648,C#3,39.75,0.25,120,90.0
1,649,C#5,39.75,0.25,100,90.0
1,650,A5,39.75,0.25,100,90.0
1,651,A3,39.75,0.25,100,90.0
1,652,A4,39.75,0.25,100,90.0
1,653,A3,39.75,0.25,100,90.0
1,654,A4,39.75,0.25,100,90.0
1,655,G#3,39.76,0.086,127,90.0
1,656,A4,39.927,0.25,127,90.0
1,657,C2,39.927,0.25,127,90.0
1,658,F#2,39.927,0.25,127,90.0
1,659,A3,40.0,83/1000,115,90.0
1,660,B1,40.0,0.25,120,90.0
1,661,A4,40.0,0.25,120,90.0
1,662,C#3,40.0,0.25,120,90.0
1,663,C#5,40.0,83/1000,100,90.0
1,664,A5,40.0,83/1000,100,90.0
1,665,A3,40.0,83/1000,100,90.0
1,666,A4,40.0,83/1000,100,90.0
1,667,A3,40.0,83/1000,100,90.0
1,668,A4,40.0,83/1000,100,90.0
1,669,G#3,40.021,0.195,127,90.0
1,670,A4,40.177,0.25,127,90.0
1,671,C#3,40.25,0.25,120,90.0
1,672,A4,40.427,0.25,127,90.0
1,673,D2,40.427,0.25,127,90.0
1,674,F#2,40.427,0.25,127,90.0
1,675,G#3,40.482,83/1000,127,90.0
1,676,G#3,40.5,333/1000,115,90.0
1,677,C#2,40.5,0.5,120,90.0
1,678,G#4,40.5,0.5,120,90.0
1,679,C#3,40.5,0.25,120,90.0
1,680,C#5,40.5,333/1000,100,90.0
1,681,G#5,40.5,333/1000,100,90.0
1,682,G#3,40.5,333/1000,100,90.0
1,683,G#4,40.5,333/1000,100,90.0
1,684,G#3,40.5,333/1000,100,90.0
1,685,G#4,40.5,333/1000,100,90.0
1,686,A4,40.677,0.25,127,90.0
1,687,G#3,40.732,0.102,127,90.0
1,688,C#3,40.75,0.25,120,90.0
1,689,A4,40.927,0.25,127,90.0
1,690,F#2,40.927,0.25,127,90.0
1,691,G#3,40.995,3/25,127,90.0
1,692,C#3,41.0,0.25,120,90.0
1,693,F#4,41.0,0.25,127,90.0
1,694,F#3,41.0,0.25,127,90.0
1,695,A4,41.177,0.25,127,90.0
1,696,C2,41.177,0.25,127,90.0
1,697,G#3,41.25,99/1000,127,90.0
1,698,C#3,41.25,0.25,120,90.0
1,699,A4,41.427,1/100,127,90.0
1,700,F#2,41.427,1/100,127,90.0
1,701,G#3,41.5,99/1000,127,90.0
1,702,C#3,41.5,0.25,120,90.0
1,703,A4,41.677,6/25,127,90.0
1,704,F#2,41.677,6/25,127,90.0
1,705,C#3,41.75,0.25,120,90.0
1,706,G#3,41.76,0.109,127,90.0
1,707,A4,41.917,0.25,127,90.0
1,708,C#3,42.0,0.25,120,90.0
1,709,G#3,42.031,159/500,127,90.0
1,710,A4,42.167,0.25,127,90.0
1,711,C2,42.167,0.25,127,90.0
1,712,F#2,42.167,0.25,127,90.0
1,713,C#3,42.25,0.25,120,90.0
1,714,A4,42.417,0.25,127,90.0
1,715,C#3,42.5,0.25,120,90.0
1,716,G#3,42.505,0.125,127,90.0
1,717,A4,42.667,0.25,127,90.0
1,718,D2,42.667,0.25,127,90.0
1,719,F#2,42.667,0.25,127,90.0
1,720,C#3,42.75,0.25,120,90.0
1,721,G#3,42.781,71/250,127,90.0
1,722,A4,42.917,0.25,127,90.0
1,723,C#3,43.0,0.25,120,90.0
1,724,F#4,43.0,0.25,127,90.0
1,725,F#3,43.0,0.25,127,90.0
1,726,A4,43.167,0.25,127,90.0
1,727,F#2,43.167,0.25,127,90.0
1,728,G#3,43.227,99/1000,127,90.0
1,729,C#3,43.25,0.25,120,90.0
1,730,A4,43.417,0.25,127,90.0
1,731,C2,43.417,0.25,127,90.0
1,732,G#3,43.5,99/1000,127,90.0
1,733,C#3,43.5,0.25,120,90.0
1,734,A4,43.667,0.25,127,90.0
1,735,F#2,43.667,0.25,127,90.0
1,736,G#3,43.75,0.25,115,90.0
1,737,E2,43.75,0.25,120,90.0
1,738,G#4,43.75,0.25,120,90.0
1,739,C#3,43.75,0.25,120,90.0
1,740,C#5,43.75,0.25,100,90.0
1,741,G#5,43.75,0.25,100,90.0
1,742,G#3,43.75,0.25,100,90.0
1,743,G#4,43.75,0.25,100,90.0
1,744,G#3,43.75,0.25,100,90.0
1,745,G#4,43.75,0.25,100,90.0
1,746,G#3,43.753,0.094,127,90.0
1,747,A4,43.917,0.25,127,90.0
1,748,G#3,44.0,83/1000,115,90.0
1,749,E2,44.0,0.25,120,90.0
1,750,G#4,44.0,0.25,120,90.0
1,751,C#3,44.0,0.25,120,90.0
1,752,C#5,44.0,83/1000,100,90.0
1,753,G#5,44.0,83/1000,100,90.0
1,754,G#3,44.0,83/1000,100,90.0
1,755,G#4,44.0,83/1000,100,90.0
1,756,G#3,44.0,83/1000,100,90.0
1,757,G#4,44.0,83/1000,100,90.0
1,758,G#3,44.013,163/500,127,90.0
1,759,A4,44.167,0.25,127,90.0
1,760,C2,44.167,0.25,127,90.0
1,761,F#2,44.167,0.25,127,90.0
1,762,C#3,44.25,0.25,120,90.0
1,763,A4,44.417,0.25,127,90.0
1,764,A3,44.5,333/1000,115,90.0
1,765,E-2,44.5,0.5,120,90.0
1,766,A4,44.5,0.5,120,90.0
1,767,C#3,44.5,0.25,120,90.0
1,768,C#5,44.5,333/1000,100,90.0
1,769,A5,44.5,333/1000,100,90.0
1,770,A4,44.5,333/1000,100,90.0
1,771,A3,44.5,333/1000,100,90.0
1,772,A4,44.5,333/1000,100,90.0
1,773,A3,44.5,333/1000,100,90.0
1,774,G#3,44.518,91/1000,127,90.0
1,775,A4,44.667,0.25,127,90.0
1,776,D2,44.667,0.25,127,90.0
1,777,F#2,44.667,0.25,127,90.0
1,778,C#3,44.75,0.25,120,90.0
1,779,G#3,44.781,307/1000,127,90.0
1,780,A4,44.917,0.25,127,90.0
1,781,C#3,45.0,0.25,120,90.0
1,782,F#3,45.0,0.25,127,90.0
1,783,F#4,45.0,0.25,127,90.0
1,784,A4,45.167,0.25,127,90.0
1,785,F#2,45.167,0.25,127,90.0
1,786,C#3,45.25,0.25,120,90.0
1,787,G#3,45.297,107/1000,127,90.0
1,788,A4,45.417,0.25,127,90.0
1,789,C2,45.417,0.25,127,90.0
1,790,C#3,45.5,0.25,120,90.0
1,791,G#3,45.542,107/1000,127,90.0
1,792,A4,45.667,1/100,127,90.0
1,793,F#2,45.667,1/100,127,90.0
1,794,F#3,45.75,333/1000,115,90.0
1,795,F#2,45.75,0.5,120,90.0
1,796,F#4,45.75,0.5,120,90.0
1,797,C#3,45.75,0.25,120,90.0
1,798,C#5,45.75,333/1000,100,90.0
1,799,F#5,45.75,333/1000,100,90.0
1,800,F#3,45.75,333/1000,100,90.0
1,801,F#4,45.75,333/1000,100,90.0
1,802,F#3,45.75,333/1000,100,90.0
1,803,F#4,45.75,333/1000,100,90.0
1,804,G#3,45.781,12/125,127,90.0
1,805,A4,45.917,6/25,127,90.0
1,806,F#2,45.917,6/25,127,90.0
1,807,C#3,46.0,0.25,120,90.0
1,808,G#3,46.021,0.297,127,90.0
1,809,A4,46.156,0.25,127,90.0
1,810,C#3,46.25,0.25,120,90.0
1,811,A4,46.406,0.25,127,90.0
1,812,C2,46.406,0.25,127,90.0
1,813,F#2,46.406,0.25,127,90.0
1,814,G#3,46.5,333/1000,115,90.0
1,815,E2,46.5,0.5,120,90.0
1,816,G#4,46.5,0.5,120,90.0
1,817,C#3,46.5,0.25,120,90.0
1,818,C#5,46.5,333/1000,100,90.0
1,819,G#5,46.5,333/1000,100,90.0
1,820,G#3,46.5,333/1000,100,90.0
1,821,G#4,46.5,333/1000,100,90.0
1,822,G#3,46.5,333/1000,100,90.0
1,823,G#4,46.5,333/1000,100,90.0
1,824,A4,46.656,0.25,127,90.0
1,825,C#3,46.75,0.25,120,90.0
1,826,G#3,46.773,12/125,127,90.0
1,827,A4,46.906,0.25,127,90.0
1,828,D2,46.906,0.25,127,90.0
1,829,F#2,46.906,0.25,127,90.0
1,830,C#3,47.0,0.25,120,90.0
1,831,F#3,47.0,0.25,127,90.0
1,832,F#4,47.0,0.25,127,90.0
1,833,G#3,47.021,14/125,127,90.0
1,834,A4,47.156,0.25,127,90.0
1,835,C#3,47.25,0.25,120,90.0
1,836,G#3,47.271,107/1000,127,90.0
1,837,A4,47.406,0.25,127,90.0
1,838,F#2,47.406,0.25,127,90.0
1,839,C#3,47.5,0.25,120,90.0
1,840,G#3,47.523,13/125,127,90.0
1,841,A4,47.656,0.25,127,90.0
1,842,C2,47.656,0.25,127,90.0
1,843,A3,47.75,0.25,115,90.0
1,844,B1,47.75,0.25,120,90.0
1,845,A4,47.75,0.25,120,90.0
1,846,C#3,47.75,0.25,120,90.0
1,847,C#5,47.75,0.25,100,90.0
1,848,A5,47.75,0.25,100,90.0
1,849,A3,47.75,0.25,100,90.0
1,850,A4,47.75,0.25,100,90.0
1,851,A3,47.75,0.25,100,90.0
1,852,A4,47.75,0.25,100,90.0
1,853,G#3,47.773,0.102,127,90.0
1,854,A4,47.906,0.25,127,90.0
1,855,F#2,47.906,0.25,127,90.0
1,856,A3,48.0,83/1000,115,90.0
1,857,B1,48.0,0.25,120,90.0
1,858,A4,48.0,0.25,120,90.0
1,859,C#3,48.0,0.25,120,90.0
1,860,C#5,48.0,83/1000,100,90.0
1,861,A5,48.0,83/1000,100,90.0
1,862,A3,48.0,83/1000,100,90.0
1,863,A4,48.0,83/1000,100,90.0
1,864,A3,48.0,83/1000,100,90.0
1,865,A4,48.0,83/1000,100,90.0
1,866,G#3,48.029,159/500,127,90.0
1,867,A4,48.156,0.25,127,90.0
1,868,C#3,48.25,0.25,120,90.0
1,869,A4,48.406,0.25,127,90.0
1,870,C2,48.406,0.25,127,90.0
1,871,F#2,48.406,0.25,127,90.0
1,872,G#3,48.5,333/1000,115,90.0
1,873,C#2,48.5,0.5,120,90.0
1,874,G#4,48.5,0.5,120,90.0
1,875,C#3,48.5,0.25,120,90.0
1,876,C#5,48.5,333/1000,100,90.0
1,877,G#5,48.5,333/1000,100,90.0
1,878,G#3,48.5,333/1000,100,90.0
1,879,G#4,48.5,333/1000,100,90.0
1,880,G#3,48.5,333/1000,100,90.0
1,881,G#4,48.5,333/1000,100,90.0
1,882,A4,48.656,0.25,127,90.0
1,883,C#3,48.75,0.25,120,90.0
1,884,A4,48.906,0.25,127,90.0
1,885,D2,48.906,0.25,127,90.0
1,886,F#2,48.906,0.25,127,90.0
1,887,G#3,48.969,99/1000,127,90.0
1,888,C#3,49.0,0.25,120,90.0
1,889,F#4,49.0,0.25,127,90.0
1,890,F#3,49.0,0.25,127,90.0
1,891,A4,49.156,0.25,127,90.0
1,892,G#3,49.216,99/1000,127,90.0
1,893,C#3,49.25,0.25,120,90.0
1,894,A4,49.406,0.25,127,90.0
1,895,F#2,49.406,0.25,127,90.0
1,896,G#3,49.487,0.094,127,90.0
1,897,C#3,49.5,0.25,120,90.0
1,898,A4,49.656,0.25,127,90.0
1,899,C2,49.656,0.25,127,90.0
1,900,G#3,49.745,12/125,127,90.0
1,901,C#3,49.75,0.25,120,90.0
1,902,A4,49.906,1/100,127,90.0
1,903,F#2,49.906,1/100,127,90.0
1,904,C#3,50.0,0.25,120,90.0
1,905,G#3,50.008,349/1000,127,90.0
1,906,A4,50.156,6/25,127,90.0
1,907,F#2,50.156,6/25,127,90.0
1,908,C#3,50.25,0.25,120,90.0
1,909,A4,50.396,0.25,127,90.0
1,910,C#3,50.5,0.25,120,90.0
1,911,G#3,50.51,0.125,127,90.0
1,912,A4,50.646,0.25,127,90.0
1,913,C2,50.646,0.25,127,90.0
1,914,F#2,50.646,0.25,127,90.0
1,915,C#3,50.75,0.25,120,90.0
1,916,G#3,50.771,0.32,127,90.0
1,917,A4,50.896,0.25,127,90.0
1,918,C#3,51.0,0.25,120,90.0
1,919,F#4,51.0,0.25,127,90.0
1,920,F#3,51.0,0.25,127,90.0
1,921,A4,51.146,0.25,127,90.0
1,922,D2,51.146,0.25,127,90.0
1,923,F#2,51.146,0.25,127,90.0
1,924,C#3,51.25,0.25,120,90.0
1,925,G#3,51.255,0.117,127,90.0
1,926,A4,51.396,0.25,127,90.0
1,927,C#3,51.5,0.25,120,90.0
1,928,G#3,51.526,23/200,127,90.0
1,929,A4,51.646,0.25,127,90.0
1,930,F#2,51.646,0.25,127,90.0
1,931,G#3,51.75,0.25,115,90.0
1,932,E2,51.75,0.25,120,90.0
1,933,G#4,51.75,0.25,120,90.0
1,934,C#3,51.75,0.25,120,90.0
1,935,C#5,51.75,0.25,100,90.0
1,936,G#5,51.75,0.25,100,90.0
1,937,G#4,51.75,0.25,100,90.0
1,938,G#3,51.75,0.25,100,90.0
1,939,G#4,51.75,0.25,100,90.0
1,940,G#3,51.75,0.25,100,90.0
1,941,G#3,51.776,13/125,127,90.0
1,942,A4,51.896,0.25,127,90.0
1,943,C2,51.896,0.25,127,90.0
1,944,G#3,52.0,83/1000,115,90.0
1,945,E2,52.0,0.25,120,90.0
1,946,G#4,52.0,0.25,120,90.0
1,947,C#3,52.0,0.25,120,90.0
1,948,C#5,52.0,83/1000,100,90.0
1,949,G#5,52.0,83/1000,100,90.0
1,950,G#4,52.0,83/1000,100,90.0
1,951,G#3,52.0,83/1000,100,90.0
1,952,G#4,52.0,83/1000,100,90.0
1,953,G#3,52.0,83/1000,100,90.0
1,954,G#3,52.031,181/500,127,90.0
1,955,A4,52.146,0.25,127,90.0
1,956,F#2,52.146,0.25,127,90.0
1,957,C#3,52.25,0.25,120,90.0
1,958,A4,52.396,0.25,127,90.0
1,959,A3,52.5,333/1000,115,90.0
1,960,E-2,52.5,0.5,120,90.0
1,961,A4,52.5,0.5,120,90.0
1,962,C#3,52.5,0.25,120,90.0
1,963,C#5,52.5,333/1000,100,90.0
1,964,A5,52.5,333/1000,100,90.0
1,965,A4,52.5,333/1000,100,90.0
1,966,A3,52.5,333/1000,100,90.0
1,967,A4,52.5,333/1000,100,90.0
1,968,A3,52.5,333/1000,100,90.0
1,969,G#3,52.56,0.094,127,90.0
1,970,A4,52.646,0.25,127,90.0
1,971,C2,52.646,0.25,127,90.0
1,972,F#2,52.646,0.25,127,90.0
1,973,C#3,52.75,0.25,120,90.0
1,974,G#3,52.818,0.305,127,90.0
1,975,A4,52.896,0.25,127,90.0
1,976,C#3,53.0,0.25,120,90.0
1,977,F#4,53.0,0.25,127,90.0
1,978,F#3,53.0,0.25,127,90.0
1,979,A4,53.146,0.25,127,90.0
1,980,D2,53.146,0.25,127,90.0
1,981,F#2,53.146,0.25,127,90.0
1,982,C#3,53.25,0.25,120,90.0
1,983,G#3,53.318,12/125,127,90.0
1,984,A4,53.396,0.25,127,90.0
1,985,C#3,53.5,0.25,120,90.0
1,986,G#3,53.56,0.102,127,90.0
1,987,A4,53.646,0.25,127,90.0
1,988,F#2,53.646,0.25,127,90.0
1,989,F#3,53.75,333/1000,115,90.0
1,990,F#2,53.75,0.5,120,90.0
1,991,F#4,53.75,0.5,120,90.0
1,992,C#3,53.75,0.25,120,90.0
1,993,C#5,53.75,333/1000,100,90.0
1,994,F#5,53.75,333/1000,100,90.0
1,995,F#3,53.75,333/1000,100,90.0
1,996,F#4,53.75,333/1000,100,90.0
1,997,F#3,53.75,333/1000,100,90.0
1,998,F#4,53.75,333/1000,100,90.0
1,999,G#3,53.797,0.102,127,90.0
1,1000,A4,53.896,0.25,127,90.0
1,1001,C2,53.896,0.25,127,90.0
1,1002,C#3,54.0,0.25,120,90.0
1,1003,G#3,54.049,189/500,127,90.0
1,1004,A4,54.146,1/100,127,90.0
1,1005,F#2,54.146,1/100,127,90.0
1,1006,C#3,54.25,0.25,120,90.0
1,1007,A4,54.396,6/25,127,90.0
1,1008,F#2,54.396,6/25,127,90.0
1,1009,G#3,54.5,333/1000,115,90.0
1,1010,E2,54.5,0.5,120,90.0
1,1011,G#4,54.5,0.25,120,90.0
1,1012,C#3,54.5,0.25,120,90.0
1,1013,C#5,54.5,333/1000,100,90.0
1,1014,G#5,54.5,333/1000,100,90.0
1,1015,G#3,54.5,333/1000,100,90.0
1,1016,G#4,54.5,333/1000,100,90.0
1,1017,G#3,54.5,333/1000,100,90.0
1,1018,G#4,54.5,333/1000,100,90.0
1,1019,A4,54.635,0.25,127,90.0
1,1020,C#3,54.75,0.25,120,90.0
1,1021,G#3,54.781,107/1000,127,90.0
1,1022,A4,54.885,0.25,127,90.0
1,1023,C2,54.885,0.25,127,90.0
1,1024,F#2,54.885,0.25,127,90.0
1,1025,C#3,55.0,0.25,120,90.0
1,1026,F#4,55.0,0.25,127,90.0
1,1027,F#3,55.0,0.25,127,90.0
1,1028,G#3,55.031,12/125,127,90.0
1,1029,A4,55.135,0.25,127,90.0
1,1030,C#3,55.25,0.25,120,90.0
1,1031,G#3,55.284,0.094,127,90.0
1,1032,A4,55.385,0.25,127,90.0
1,1033,D2,55.385,0.25,127,90.0
1,1034,F#2,55.385,0.25,127,90.0
1,1035,C#3,55.5,0.25,120,90.0
1,1036,G#3,55.523,99/1000,127,90.0
1,1037,A4,55.635,0.25,127,90.0
1,1038,A3,55.75,0.25,115,90.0
1,1039,B1,55.75,0.25,120,90.0
1,1040,A4,55.75,0.25,120,90.0
1,1041,C#3,55.75,0.25,120,90.0
1,1042,C#5,55.75,0.25,100,90.0
1,1043,A5,55.75,0.25,100,90.0
1,1044,A3,55.75,0.25,100,90.0
1,1045,A4,55.75,0.25,100,90.0
1,1046,A3,55.75,0.25,100,90.0
1,1047,A4,55.75,0.25,100,90.0
1,1048,G#3,55.763,12/125,127,90.0
1,1049,A4,55.885,0.25,127,90.0
1,1050,F#2,55.885,0.25,127,90.0
1,1051,A3,56.0,83/1000,115,90.0
1,1052,B1,56.0,0.25,120,90.0
1,1053,A4,56.0,0.25,120,90.0
1,1054,C#3,56.0,0.25,120,90.0
1,1055,C#5,56.0,83/1000,100,90.0
1,1056,A5,56.0,83/1000,100,90.0
1,1057,A3,56.0,83/1000,100,90.0
1,1058,A4,56.0,83/1000,100,90.0
1,1059,A3,56.0,83/1000,100,90.0
1,1060,A4,56.0,83/1000,100,90.0
1,1061,G#3,56.016,229/1000,127,90.0
1,1062,A4,56.135,0.25,127,90.0
1,1063,C2,56.135,0.25,127,90.0
1,1064,C#3,56.25,0.25,120,90.0
1,1065,A4,56.385,0.25,127,90.0
1,1066,F#2,56.385,0.25,127,90.0
1,1067,G#3,56.5,333/1000,115,90.0
1,1068,C#2,56.5,0.5,120,90.0
1,1069,G#4,56.5,0.5,120,90.0
1,1070,C#3,56.5,0.25,120,90.0
1,1071,C#5,56.5,333/1000,100,90.0
1,1072,G#5,56.5,333/1000,100,90.0
1,1073,G#3,56.5,333/1000,100,90.0
1,1074,G#4,56.5,333/1000,100,90.0
1,1075,G#3,56.5,333/1000,100,90.0
1,1076,G#4,56.5,333/1000,100,90.0
1,1077,G#3,56.539,13/125,127,90.0
1,1078,A4,56.635,0.25,127,90.0
1,1079,C#3,56.75,0.25,120,90.0
1,1080,G#3,56.784,12/125,127,90.0
1,1081,A4,56.885,0.25,127,90.0
1,1082,C2,56.885,0.25,127,90.0
1,1083,F#2,56.885,0.25,127,90.0
1,1084,C#3,57.0,0.25,120,90.0
1,1085,F#4,57.0,0.25,127,90.0
1,1086,F#3,57.0,0.25,127,90.0
1,1087,G#3,57.018,0.094,127,90.0
1,1088,A4,57.135,0.25,127,90.0
1,1089,G#3,57.25,12/125,127,90.0
1,1090,C#3,57.25,0.25,120,90.0
1,1091,A4,57.385,0.25,127,90.0
1,1092,D2,57.385,0.25,127,90.0
1,1093,F#2,57.385,0.25,127,90.0
1,1094,C#3,57.5,0.25,120,90.0
1,1095,G#3,57.516,13/125,127,90.0
1,1096,A4,57.635,0.25,127,90.0
1,1097,C#3,57.75,0.25,120,90.0
1,1098,G#3,57.773,99/1000,127,90.0
1,1099,A4,57.885,0.25,127,90.0
1,1100,F#2,57.885,0.25,127,90.0
1,1101,C#3,58.0,0.25,120,90.0
1,1102,G#3,58.036,73/250,127,90.0
1,1103,A4,58.135,0.25,127,90.0
1,1104,C2,58.135,0.25,127,90.0
1,1105,C#3,58.25,0.25,120,90.0
1,1106,A4,58.385,1/100,127,90.0
1,1107,F#2,58.385,1/100,127,90.0
1,1108,C#3,58.5,0.25,120,90.0
1,1109,G#3,58.51,23/200,127,90.0
1,1110,A4,58.635,6/25,127,90.0
1,1111,F#2,58.635,6/25,127,90.0
1,1112,C#3,58.75,0.25,120,90.0
1,1113,G#3,58.786,73/250,127,90.0
1,1114,A4,58.875,0.25,127,90.0
1,1115,C#3,59.0,0.25,120,90.0
1,1116,F#4,59.0,0.25,127,90.0
1,1117,F#3,59.0,0.25,127,90.0
1,1118,A4,59.125,0.25,127,90.0
1,1119,C2,59.125,0.25,127,90.0
1,1120,F#2,59.125,0.25,127,90.0
1,1121,C#3,59.25,0.25,120,90.0
1,1122,G#3,59.253,16/125,127,90.0
1,1123,A4,59.375,0.25,127,90.0
1,1124,C#3,59.5,0.25,120,90.0
1,1125,G#3,59.526,14/125,127,90.0
1,1126,A4,59.625,0.25,127,90.0
1,1127,D2,59.625,0.25,127,90.0
1,1128,F#2,59.625,0.25,127,90.0
1,1129,G#3,59.75,0.25,115,90.0
1,1130,E2,59.75,0.25,120,90.0
1,1131,G#4,59.75,0.25,120,90.0
1,1132,C#3,59.75,0.25,120,90.0
1,1133,C#5,59.75,0.25,100,90.0
1,1134,G#5,59.75,0.25,100,90.0
1,1135,G#4,59.75,0.25,100,90.0
1,1136,G#3,59.75,0.25,100,90.0
1,1137,G#4,59.75,0.25,100,90.0
1,1138,G#3,59.75,0.25,100,90.0
1,1139,G#3,59.792,107/1000,127,90.0
1,1140,A4,59.875,0.25,127,90.0
1,1141,G#3,60.0,83/1000,115,90.0
1,1142,E2,60.0,0.25,120,90.0
1,1143,C#3,60.0,0.25,120,90.0
1,1144,C#5,60.0,83/1000,100,90.0
1,1145,G#5,60.0,83/1000,100,90.0
1,1146,G#4,60.0,83/1000,100,90.0
1,1147,G#3,60.0,83/1000,100,90.0
1,1148,G#4,60.0,83/1000,100,90.0
1,1149,G#3,60.0,83/1000,100,90.0
1,1150,G#3,60.034,63/200,127,90.0
1,1151,A4,60.125,0.25,127,90.0
1,1152,F#2,60.125,0.25,127,90.0
1,1153,C#3,60.25,0.25,120,90.0
1,1154,A4,60.375,0.25,127,90.0
1,1155,C2,60.375,0.25,127,90.0
1,1156,A3,60.5,333/1000,115,90.0
1,1157,E-2,60.5,0.5,120,90.0
1,1158,A4,60.5,0.5,120,90.0
1,1159,C#3,60.5,0.25,120,90.0
1,1160,C#5,60.5,333/1000,100,90.0
1,1161,A5,60.5,333/1000,100,90.0
1,1162,A3,60.5,333/1000,100,90.0
1,1163,A4,60.5,333/1000,100,90.0
1,1164,A3,60.5,333/1000,100,90.0
1,1165,A4,60.5,333/1000,100,90.0
1,1166,G#3,60.544,99/1000,127,90.0
1,1167,A4,60.625,0.25,127,90.0
1,1168,F#2,60.625,0.25,127,90.0
1,1169,C#3,60.75,0.25,120,90.0
1,1170,G#3,60.794,163/500,127,90.0
1,1171,A4,60.875,0.25,127,90.0
1,1172,C#3,61.0,0.25,120,90.0
1,1173,F#4,61.0,0.25,127,90.0
1,1174,F#3,61.0,0.25,127,90.0
1,1175,A4,61.125,0.25,127,90.0
1,1176,C2,61.125,0.25,127,90.0
1,1177,F#2,61.125,0.25,127,90.0
1,1178,C#3,61.25,0.25,120,90.0
1,1179,G#3,61.276,0.094,127,90.0
1,1180,A4,61.375,0.25,127,90.0
1,1181,C#3,61.5,0.25,120,90.0
1,1182,G#3,61.529,61/500,127,90.0
1,1183,A4,61.625,0.25,127,90.0
1,1184,D2,61.625,0.25,127,90.0
1,1185,F#2,61.625,0.25,127,90.0
1,1186,F#3,61.75,333/1000,115,90.0
1,1187,F#2,61.75,0.5,120,90.0
1,1188,F#4,61.75,0.25,120,90.0
1,1189,C#3,61.75,0.25,120,90.0
1,1190,C#5,61.75,333/1000,100,90.0
1,1191,F#5,61.75,333/1000,100,90.0
1,1192,F#3,61.75,333/1000,100,90.0
1,1193,F#4,61.75,333/1000,100,90.0
1,1194,F#3,61.75,333/1000,100,90.0
1,1195,F#4,61.75,333/1000,100,90.0
1,1196,G#3,61.779,13/125,127,90.0
1,1197,A4,61.875,0.25,127,90.0
1,1198,C#3,62.0,0.25,120,90.0
1,1199,G#3,62.01,0.312,127,90.0
1,1200,A4,62.125,0.25,127,90.0
1,1201,F#2,62.125,0.25,127,90.0
1,1202,C#3,62.25,0.25,120,90.0
1,1203,A4,62.375,0.25,127,90.0
1,1204,C2,62.375,0.25,127,90.0
1,1205,G#3,62.5,333/1000,115,90.0
1,1206,E2,62.5,0.5,120,90.0
1,1207,G#4,62.5,0.5,120,90.0
1,1208,C#3,62.5,0.25,120,90.0
1,1209,C#5,62.5,333/1000,100,90.0
1,1210,G#5,62.5,333/1000,100,90.0
1,1211,G#3,62.5,333/1000,100,90.0
1,1212,G#4,62.5,333/1000,100,90.0
1,1213,G#3,62.5,333/1000,100,90.0
1,1214,G#4,62.5,333/1000,100,90.0
1,1215,G#3,62.536,0.102,127,90.0
1,1216,A4,62.625,1/100,127,90.0
1,1217,F#2,62.625,1/100,127,90.0
1,1218,C#3,62.75,0.25,120,90.0
1,1219,G#3,62.768,13/125,127,90.0
1,1220,A4,62.875,6/25,127,90.0
1,1221,F#2,62.875,6/25,127,90.0
1,1222,C#3,63.0,0.25,120,90.0
1,1223,F#4,63.0,0.25,127,90.0
1,1224,F#3,63.0,0.25,127,90.0
1,1225,G#3,63.016,99/1000,127,90.0
1,1226,A4,63.115,0.25,127,90.0
1,1227,C#3,63.25,0.25,120,90.0
1,1228,G#3,63.271,99/1000,127,90.0
1,1229,A4,63.365,0.25,127,90.0
1,1230,C2,63.365,0.25,127,90.0
1,1231,F#2,63.365,0.25,127,90.0
1,1232,C#3,63.5,0.25,120,90.0
1,1233,G#3,63.534,159/500,127,90.0
1,1234,A4,63.615,0.25,127,90.0
1,1235,B2,63.75,0.25,115,90.0
1,1236,B1,63.75,0.25,120,90.0
1,1237,B3,63.75,0.25,120,90.0
1,1238,C#3,63.75,0.25,120,90.0
1,1239,B2,63.75,0.25,50,90.0
1,1240,A4,63.75,0.25,50,90.0
1,1241,A3,63.75,0.25,50,90.0
1,1242,B3,63.75,0.25,50,90.0
1,1243,B3,63.75,0.25,100,90.0
1,1244,A4,63.75,0.25,100,90.0
1,1245,A3,63.75,0.25,100,90.0
1,1246,B2,63.75,0.25,100,90.0
1,1247,B3,63.75,0.25,100,90.0
1,1248,A4,63.75,0.25,100,90.0
1,1249,A3,63.75,0.25,100,90.0
1,1250,B2,63.75,0.25,100,90.0
1,1251,A4,63.865,0.25,127,90.0
1,1252,D2,63.865,0.25,127,90.0
1,1253,F#2,63.865,0.25,127,90.0
1,1254,C#4,64.0,0.305,127,90.0
1,1255,B2,64.0,83/1000,115,90.0
1,1256,B1,64.0,0.25,120,90.0
1,1257,B3,64.0,0.25,120,90.0
1,1258,C#3,64.0,0.25,120,90.0
1,1259,B2,64.0,83/1000,50,90.0
1,1260,A4,64.0,83/1000,50,90.0
1,1261,A3,64.0,83/1000,50,90.0
1,1262,B3,64.0,83/1000,50,90.0
1,1263,B3,64.0,83/1000,100,90.0
1,1264,A4,64.0,83/1000,100,90.0
1,1265,A3,64.0,83/1000,100,90.0
1,1266,B2,64.0,83/1000,100,90.0
1,1267,B3,64.0,83/1000,100,90.0
1,1268,A4,64.0,83/1000,100,90.0
1,1269,A3,64.0,83/1000,100,90.0
1,1270,B2,64.0,83/1000,100,90.0
1,1271,A4,64.115,0.25,127,90.0
1,1272,F#3,64.349,89/1000,127,90.0
1,1273,A4,64.365,0.25,127,90.0
1,1274,F#2,64.365,0.25,127,90.0
1,1275,C#3,64.5,333/1000,115,90.0
1,1276,C#2,64.5,0.5,120,90.0
1,1277,C#4,64.5,0.5,120,90.0
1,1278,C4,64.5,0.25,120,90.0
1,1279,C#3,64.5,0.5,120,90.0
1,1280,C#4,64.5,333/1000,50,90.0
1,1281,C#3,64.5,333/1000,50,90.0
1,1282,G#4,64.5,333/1000,50,90.0
1,1283,G#3,64.5,333/1000,50,90.0
1,1284,G#4,64.5,333/1000,100,90.0
1,1285,C#4,64.5,333/1000,100,90.0
1,1286,C#3,64.5,333/1000,100,90.0
1,1287,G#3,64.5,333/1000,100,90.0
1,1288,G#4,64.5,333/1000,100,90.0
1,1289,C#4,64.5,333/1000,100,90.0
1,1290,C#3,64.5,333/1000,100,90.0
1,1291,G#3,64.5,333/1000,100,90.0
1,1292,F#3,64.594,89/1000,127,90.0
1,1293,A4,64.615,0.25,127,90.0
1,1294,C2,64.615,0.25,127,90.0
1,1295,F#3,64.844,0.086,127,90.0
1,1296,A4,64.865,0.25,127,90.0
1,1297,F#2,64.865,0.25,127,90.0
1,1298,F#3,65.0,0.25,127,90.0
1,1299,F#4,65.0,0.25,127,90.0
1,1300,F#3,65.055,31/100,127,90.0
1,1301,A4,65.115,0.25,127,90.0
1,1302,A4,65.365,0.25,127,90.0
1,1303,C2,65.365,0.25,127,90.0
1,1304,F#2,65.365,0.25,127,90.0
1,1305,G#3,65.542,0.266,127,90.0
1,1306,A4,65.615,0.25,127,90.0
1,1307,A4,65.865,0.25,127,90.0
1,1308,D2,65.865,0.25,127,90.0
1,1309,F#2,65.865,0.25,127,90.0
1,1310,A4,66.115,0.25,127,90.0
1,1311,C#3,66.128,0.258,127,90.0
1,1312,A4,66.365,0.25,127,90.0
1,1313,F#2,66.365,0.25,127,90.0
1,1314,C#3,66.529,23/200,127,90.0
1,1315,A4,66.615,0.25,127,90.0
1,1316,C2,66.615,0.25,127,90.0
1,1317,C#3,66.758,27/200,127,90.0
1,1318,A4,66.865,1/100,127,90.0
1,1319,F#2,66.865,1/100,127,90.0
1,1320,G#3,66.984,0.125,127,90.0
1,1321,F#4,67.0,0.25,127,90.0
1,1322,F#3,67.0,0.25,127,90.0
1,1323,A4,67.115,6/25,127,90.0
1,1324,F#2,67.115,6/25,127,90.0
1,1325,G#3,67.224,13/100,127,90.0
1,1326,A4,67.354,0.25,127,90.0
1,1327,G#3,67.5,3/50,127,90.0
1,1328,A4,67.604,0.25,127,90.0
1,1329,C2,67.604,0.25,127,90.0
1,1330,F#2,67.604,0.25,127,90.0
1,1331,G#3,67.703,0.164,127,90.0
1,1332,E2,67.75,0.25,120,90.0
1,1333,C#3,67.75,0.25,120,90.0
1,1334,G#3,67.75,0.25,100,90.0
1,1335,G#4,67.75,0.25,100,90.0
1,1336,G#3,67.75,0.25,100,90.0
1,1337,G#4,67.75,0.25,100,90.0
1,1338,A4,67.854,0.25,127,90.0
1,1339,C#4,67.992,0.008,127,90.0
1,1340,C#4,68.0,0.297,127,90.0
1,1341,E2,68.0,0.25,120,90.0
1,1342,C#3,68.0,0.25,120,90.0
1,1343,G#3,68.0,83/1000,100,90.0
1,1344,G#4,68.0,83/1000,100,90.0
1,1345,G#3,68.0,83/1000,100,90.0
1,1346,G#4,68.0,83/1000,100,90.0
1,1347,A4,68.104,0.25,127,90.0
1,1348,D2,68.104,0.25,127,90.0
1,1349,F#2,68.104,0.25,127,90.0
1,1350,A4,68.354,0.25,127,90.0
1,1351,F#3,68.453,0.094,127,90.0
1,1352,E-2,68.5,0.5,120,90.0
1,1353,C#3,68.5,0.5,120,90.0
1,1354,A3,68.5,333/1000,100,90.0
1,1355,A4,68.5,333/1000,100,90.0
1,1356,A3,68.5,333/1000,100,90.0
1,1357,A4,68.5,333/1000,100,90.0
1,1358,A4,68.604,0.25,127,90.0
1,1359,F#2,68.604,0.25,127,90.0
1,1360,F#3,68.74,0.164,127,90.0
1,1361,A4,68.854,0.25,127,90.0
1,1362,C2,68.854,0.25,127,90.0
1,1363,G#3,68.987,0.328,127,90.0
1,1364,F#4,69.0,0.25,127,90.0
1,1365,F#3,69.0,0.25,127,90.0
1,1366,A4,69.104,0.25,127,90.0
1,1367,F#2,69.104,0.25,127,90.0
1,1368,A4,69.354,0.25,127,90.0
1,1369,G#3,69.487,159/1000,127,90.0
1,1370,A4,69.604,0.25,127,90.0
1,1371,C2,69.604,0.25,127,90.0
1,1372,F#2,69.604,0.25,127,90.0
1,1373,F#2,69.75,0.5,120,90.0
1,1374,C#3,69.75,0.5,120,90.0
1,1375,F#3,69.75,333/1000,100,90.0
1,1376,F#4,69.75,333/1000,100,90.0
1,1377,F#3,69.75,333/1000,100,90.0
1,1378,F#4,69.75,333/1000,100,90.0
1,1379,G#3,69.753,0.195,127,90.0
1,1380,A4,69.854,0.25,127,90.0
1,1381,C#3,70.016,37/100,127,90.0
1,1382,A4,70.104,0.25,127,90.0
1,1383,D2,70.104,0.25,127,90.0
1,1384,F#2,70.104,0.25,127,90.0
1,1385,A4,70.354,0.25,127,90.0
1,1386,E2,70.5,0.5,120,90.0
1,1387,C#3,70.5,0.5,120,90.0
1,1388,G#4,70.5,333/1000,100,90.0
1,1389,G#3,70.5,333/1000,100,90.0
1,1390,G#4,70.5,333/1000,100,90.0
1,1391,G#3,70.5,333/1000,100,90.0
1,1392,G#3,70.508,12/125,127,90.0
1,1393,A4,70.604,0.25,127,90.0
1,1394,F#2,70.604,0.25,127,90.0
1,1395,G#3,70.747,107/1000,127,90.0
1,1396,A4,70.854,0.25,127,90.0
1,1397,C2,70.854,0.25,127,90.0
1,1398,F#4,71.0,0.25,127,90.0
1,1399,F#3,71.0,0.25,127,90.0
1,1400,G#3,71.01,23/200,127,90.0
1,1401,A4,71.104,1/100,127,90.0
1,1402,F#2,71.104,1/100,127,90.0
1,1403,G#3,71.237,0.078,127,90.0
1,1404,A4,71.354,6/25,127,90.0
1,1405,F#2,71.354,6/25,127,90.0
1,1406,G#3,71.518,91/1000,127,90.0
1,1407,A4,71.594,0.25,127,90.0
1,1408,B1,71.75,0.25,120,90.0
1,1409,C#3,71.75,0.25,120,90.0
1,1410,A3,71.75,0.25,100,90.0
1,1411,A4,71.75,0.25,100,90.0
1,1412,A3,71.75,0.25,100,90.0
1,1413,A4,71.75,0.25,100,90.0
1,1414,G#3,71.768,0.148,127,90.0
1,1415,A4,71.844,0.25,127,90.0
1,1416,C2,71.844,0.25,127,90.0
1,1417,F#2,71.844,0.25,127,90.0
1,1418,B1,72.0,0.25,120,90.0
1,1419,C#3,72.0,0.25,120,90.0
1,1420,A3,72.0,83/1000,100,90.0
1,1421,A4,72.0,83/1000,100,90.0
1,1422,A3,72.0,83/1000,100,90.0
1,1423,A4,72.0,83/1000,100,90.0
1,1424,C#4,72.049,151/500,127,90.0
1,1425,A4,72.094,0.25,127,90.0
1,1426,A4,72.344,0.25,127,90.0
1,1427,D2,72.344,0.25,127,90.0
1,1428,F#2,72.344,0.25,127,90.0
1,1429,G#3,72.495,23/200,127,90.0
1,1430,C#2,72.5,0.5,120,90.0
1,1431,C#3,72.5,0.5,120,90.0
1,1432,G#3,72.5,333/1000,100,90.0
1,1433,G#4,72.5,333/1000,100,90.0
1,1434,G#3,72.5,333/1000,100,90.0
1,1435,G#4,72.5,333/1000,100,90.0
1,1436,A4,72.594,0.25,127,90.0
1,1437,G#3,72.75,0.148,127,90.0
1,1438,A4,72.844,0.25,127,90.0
1,1439,F#2,72.844,0.25,127,90.0
1,1440,F#4,73.0,0.25,127,90.0
1,1441,F#3,73.0,0.25,127,90.0
1,1442,F#3,73.016,16/125,127,90.0
1,1443,A4,73.094,0.25,127,90.0
1,1444,C2,73.094,0.25,127,90.0
1,1445,F#3,73.286,0.117,127,90.0
1,1446,A4,73.344,0.25,127,90.0
1,1447,F#2,73.344,0.25,127,90.0
1,1448,F#3,73.536,0.109,127,90.0
1,1449,A4,73.594,0.25,127,90.0
1,1450,F#3,73.773,0.156,127,90.0
1,1451,A4,73.844,0.25,127,90.0
1,1452,C2,73.844,0.25,127,90.0
1,1453,F#2,73.844,0.25,127,90.0
1,1454,C#3,74.036,151/500,127,90.0
1,1455,A4,74.094,0.25,127,90.0
1,1456,A4,74.344,0.25,127,90.0
1,1457,D2,74.344,0.25,127,90.0
1,1458,F#2,74.344,0.25,127,90.0
1,1459,G#3,74.49,0.086,127,90.0
1,1460,A4,74.594,0.25,127,90.0
1,1461,G#3,74.724,99/1000,127,90.0
1,1462,A4,74.844,0.25,127,90.0
1,1463,F#2,74.844,0.25,127,90.0
1,1464,G#3,74.971,91/1000,127,90.0
1,1465,F#4,75.0,0.25,127,90.0
1,1466,F#3,75.0,0.25,127,90.0
1,1467,A4,75.094,0.25,127,90.0
1,1468,C2,75.094,0.25,127,90.0
1,1469,G#3,75.245,12/125,127,90.0
1,1470,A4,75.344,1/100,127,90.0
1,1471,F#2,75.344,1/100,127,90.0
1,1472,G#3,75.536,0.086,127,90.0
1,1473,A4,75.594,6/25,127,90.0
1,1474,F#2,75.594,6/25,127,90.0
1,1475,E2,75.75,0.25,120,90.0
1,1476,C#3,75.75,0.25,120,90.0
1,1477,G#3,75.75,0.25,100,90.0
1,1478,G#4,75.75,0.25,100,90.0
1,1479,G#3,75.75,0.25,100,90.0
1,1480,G#4,75.75,0.25,100,90.0
1,1481,G#3,75.776,73/500,127,90.0
1,1482,A4,75.833,0.25,127,90.0
1,1483,E2,76.0,0.25,120,90.0
1,1484,C#3,76.0,0.25,120,90.0
1,1485,G#3,76.0,83/1000,100,90.0
1,1486,G#4,76.0,83/1000,100,90.0
1,1487,G#3,76.0,83/1000,100,90.0
1,1488,G#4,76.0,83/1000,100,90.0
1,1489,C#4,76.026,99/1000,127,90.0
1,1490,A4,76.083,0.25,127,90.0
1,1491,C2,76.083,0.25,127,90.0
1,1492,F#2,76.083,0.25,127,90.0
1,1493,C#4,76.273,99/1000,127,90.0
1,1494,A4,76.333,0.25,127,90.0
1,1495,E-2,76.5,0.5,120,90.0
1,1496,C#3,76.5,0.5,120,90.0
1,1497,A3,76.5,333/1000,100,90.0
1,1498,A4,76.5,333/1000,100,90.0
1,1499,A3,76.5,333/1000,100,90.0
1,1500,A4,76.5,333/1000,100,90.0
1,1501,C#4,76.508,161/1000,127,90.0
1,1502,A4,76.583,0.25,127,90.0
1,1503,D2,76.583,0.25,127,90.0
1,1504,F#2,76.583,0.25,127,90.0
1,1505,G#3,76.779,31/100,127,90.0
1,1506,A4,76.833,0.25,127,90.0
1,1507,F#4,77.0,0.25,127,90.0
1,1508,F#3,77.0,0.25,127,90.0
1,1509,A4,77.083,0.25,127,90.0
1,1510,F#2,77.083,0.25,127,90.0
1,1511,G#3,77.286,0.094,127,90.0
1,1512,A4,77.333,0.25,127,90.0
1,1513,C2,77.333,0.25,127,90.0
1,1514,G#3,77.536,12/125,127,90.0
1,1515,A4,77.583,0.25,127,90.0
1,1516,F#2,77.583,0.25,127,90.0
1,1517,F#2,77.75,0.5,120,90.0
1,1518,F#4,77.75,333/1000,100,90.0
1,1519,F#3,77.75,333/1000,100,90.0
1,1520,F#4,77.75,333/1000,100,90.0
1,1521,F#3,77.75,333/1000,100,90.0
1,1522,G#3,77.784,99/1000,127,90.0
1,1523,A4,77.833,0.25,127,90.0
1,1524,C#3,78.06,0.352,127,90.0
1,1525,A4,78.083,0.25,127,90.0
1,1526,C2,78.083,0.25,127,90.0
1,1527,F#2,78.083,0.25,127,90.0
1,1528,A4,78.333,0.25,127,90.0
1,1529,C#3,78.453,28/125,127,90.0
1,1530,E2,78.5,0.5,120,90.0
1,1531,G#4,78.5,333/1000,100,90.0
1,1532,G#3,78.5,333/1000,100,90.0
1,1533,G#4,78.5,333/1000,100,90.0
1,1534,G#3,78.5,333/1000,100,90.0
1,1535,A4,78.583,0.25,127,90.0
1,1536,D2,78.583,0.25,127,90.0
1,1537,F#2,78.583,0.25,127,90.0
1,1538,G#3,78.802,51/200,127,90.0
1,1539,A4,78.833,0.25,127,90.0
1,1540,F#4,79.0,0.25,127,90.0
1,1541,F#3,79.0,0.25,127,90.0
1,1542,A4,79.083,0.25,127,90.0
1,1543,F#2,79.083,0.25,127,90.0
1,1544,G#3,79.24,23/200,127,90.0
1,1545,A4,79.333,0.25,127,90.0
1,1546,C2,79.333,0.25,127,90.0
1,1547,G#3,79.51,0.109,127,90.0
1,1548,A4,79.583,1/100,127,90.0
1,1549,F#2,79.583,1/100,127,90.0
1,1550,B1,79.75,0.25,120,90.0
1,1551,C#3,79.75,0.25,120,90.0
1,1552,A3,79.75,0.25,100,90.0
1,1553,A4,79.75,0.25,100,90.0
1,1554,A3,79.75,0.25,100,90.0
1,1555,A4,79.75,0.25,100,90.0
1,1556,G#3,79.758,99/1000,127,90.0
1,1557,A4,79.833,6/25,127,90.0
1,1558,F#2,79.833,6/25,127,90.0
1,1559,G#3,80.0,0.32,127,90.0
1,1560,B1,80.0,0.25,120,90.0
1,1561,C#3,80.0,0.25,120,90.0
1,1562,A3,80.0,83/1000,100,90.0
1,1563,A4,80.0,83/1000,100,90.0
1,1564,A3,80.0,83/1000,100,90.0
1,1565,A4,80.0,83/1000,100,90.0
1,1566,A4,80.073,0.25,127,90.0
1,1567,A4,80.323,0.25,127,90.0
1,1568,C2,80.323,0.25,127,90.0
1,1569,F#2,80.323,0.25,127,90.0
1,1570,G#3,80.482,0.344,127,90.0
1,1571,C#2,80.5,0.5,120,90.0
1,1572,C#3,80.5,0.5,120,90.0
1,1573,G#3,80.5,333/1000,100,90.0
1,1574,G#4,80.5,333/1000,100,90.0
1,1575,G#3,80.5,333/1000,100,90.0
1,1576,G#4,80.5,333/1000,100,90.0
1,1577,A4,80.573,0.25,127,90.0
1,1578,A4,80.823,0.25,127,90.0
1,1579,D2,80.823,0.25,127,90.0
1,1580,F#2,80.823,0.25,127,90.0
1,1581,F#4,81.0,0.25,127,90.0
1,1582,F#3,81.0,0.25,127,90.0
1,1583,G#3,81.003,247/1000,127,90.0
1,1584,A4,81.073,0.25,127,90.0
1,1585,A4,81.323,0.25,127,90.0
1,1586,F#2,81.323,0.25,127,90.0
1,1587,G#3,81.516,331/1000,127,90.0
1,1588,A4,81.573,0.25,127,90.0
1,1589,C2,81.573,0.25,127,90.0
1,1590,A4,81.823,0.25,127,90.0
1,1591,F#2,81.823,0.25,127,90.0
1,1592,G#3,81.997,0.141,127,90.0
1,1593,A4,82.073,0.25,127,90.0
1,1594,G#3,82.258,89/1000,127,90.0
1,1595,A4,82.323,0.25,127,90.0
1,1596,C2,82.323,0.25,127,90.0
1,1597,F#2,82.323,0.25,127,90.0
1,1598,G#3,82.495,27/200,127,90.0
1,1599,A4,82.573,0.25,127,90.0
1,1600,G#3,82.734,0.117,127,90.0
1,1601,A4,82.823,0.25,127,90.0
1,1602,D2,82.823,0.25,127,90.0
1,1603,F#2,82.823,0.25,127,90.0
1,1604,G#3,82.995,3/25,127,90.0
1,1605,F#3,83.0,0.25,127,90.0
1,1606,F#4,83.0,0.25,127,90.0
1,1607,A4,83.073,0.25,127,90.0
1,1608,G#3,83.24,14/125,127,90.0
1,1609,A4,83.323,0.25,127,90.0
1,1610,F#2,83.323,0.25,127,90.0
1,1611,G#3,83.513,0.109,127,90.0
1,1612,A4,83.573,0.25,127,90.0
1,1613,C2,83.573,0.25,127,90.0
1,1614,E2,83.75,0.25,120,90.0
1,1615,C#3,83.75,0.25,120,90.0
1,1616,G#3,83.75,0.25,100,90.0
1,1617,G#4,83.75,0.25,100,90.0
1,1618,G#3,83.75,0.25,100,90.0
1,1619,G#4,83.75,0.25,100,90.0
1,1620,G#3,83.768,99/1000,127,90.0
1,1621,A4,83.823,1/100,127,90.0
1,1622,F#2,83.823,1/100,127,90.0
1,1623,E2,84.0,0.25,120,90.0
1,1624,C#3,84.0,0.25,120,90.0
1,1625,G#3,84.0,83/1000,100,90.0
1,1626,G#4,84.0,83/1000,100,90.0
1,1627,G#3,84.0,83/1000,100,90.0
1,1628,G#4,84.0,83/1000,100,90.0
1,1629,G#3,84.021,27/200,127,90.0
1,1630,A4,84.073,6/25,127,90.0
1,1631,F#2,84.073,6/25,127,90.0
1,1632,G#3,84.271,13/125,127,90.0
1,1633,A4,84.312,0.25,127,90.0
1,1634,E-2,84.5,0.5,120,90.0
1,1635,C#3,84.5,0.5,120,90.0
1,1636,A3,84.5,333/1000,100,90.0
1,1637,A4,84.5,333/1000,100,90.0
1,1638,A3,84.5,333/1000,100,90.0
1,1639,A4,84.5,333/1000,100,90.0
1,1640,G#3,84.508,0.094,127,90.0
1,1641,A4,84.562,0.25,127,90.0
1,1642,C2,84.562,0.25,127,90.0
1,1643,F#2,84.562,0.25,127,90.0
1,1644,G#3,84.737,0.109,127,90.0
1,1645,A4,84.812,0.25,127,90.0
1,1646,G#3,84.995,16/125,127,90.0
1,1647,F#3,85.0,0.25,127,90.0
1,1648,F#4,85.0,0.25,127,90.0
1,1649,A4,85.062,0.25,127,90.0
1,1650,D2,85.062,0.25,127,90.0
1,1651,F#2,85.062,0.25,127,90.0
1,1652,G#3,85.26,61/500,127,90.0
1,1653,A4,85.312,0.25,127,90.0
1,1654,G#3,85.534,143/500,127,90.0
1,1655,A4,85.562,0.25,127,90.0
1,1656,F#2,85.562,0.25,127,90.0
1,1657,F#2,85.75,0.5,120,90.0
1,1658,C#3,85.75,0.5,120,90.0
1,1659,F#4,85.75,333/1000,100,90.0
1,1660,F#3,85.75,333/1000,100,90.0
1,1661,F#4,85.75,333/1000,100,90.0
1,1662,F#3,85.75,333/1000,100,90.0
1,1663,A4,85.812,0.25,127,90.0
1,1664,C2,85.812,0.25,127,90.0
1,1665,G#3,86.003,0.297,127,90.0
1,1666,A4,86.062,0.25,127,90.0
1,1667,F#2,86.062,0.25,127,90.0
1,1668,A4,86.312,0.25,127,90.0
1,1669,E2,86.5,0.5,120,90.0
1,1670,C#3,86.5,0.5,120,90.0
1,1671,G#3,86.5,333/1000,100,90.0
1,1672,G#4,86.5,333/1000,100,90.0
1,1673,G#3,86.5,333/1000,100,90.0
1,1674,G#4,86.5,333/1000,100,90.0
1,1675,G#3,86.508,0.109,127,90.0
1,1676,A4,86.562,0.25,127,90.0
1,1677,C2,86.562,0.25,127,90.0
1,1678,F#2,86.562,0.25,127,90.0
1,1679,G#3,86.747,107/1000,127,90.0
1,1680,A4,86.812,0.25,127,90.0
1,1681,F#4,87.0,0.25,127,90.0
1,1682,F#3,87.0,0.25,127,90.0
1,1683,G#3,87.026,0.227,127,90.0
1,1684,A4,87.062,0.25,127,90.0
1,1685,D2,87.062,0.25,127,90.0
1,1686,F#2,87.062,0.25,127,90.0
1,1687,A4,87.312,0.25,127,90.0
1,1688,G#3,87.495,16/125,127,90.0
1,1689,A4,87.562,0.25,127,90.0
1,1690,F#2,87.562,0.25,127,90.0
1,1691,G#3,87.745,0.094,127,90.0
1,1692,B1,87.75,0.25,120,90.0
1,1693,A4,87.75,0.25,120,90.0
1,1694,C#5,87.75,0.25,100,90.0
1,1695,A5,87.75,0.25,100,90.0
1,1696,A3,87.75,0.25,100,90.0
1,1697,A4,87.75,0.25,100,90.0
1,1698,A3,87.75,0.25,100,90.0
1,1699,A4,87.75,0.25,100,90.0
1,1700,A4,87.812,0.25,127,90.0
1,1701,C2,87.812,0.25,127,90.0
1,1702,B1,88.0,0.25,120,90.0
1,1703,A4,88.0,0.25,120,90.0
1,1704,C#5,88.0,83/1000,100,90.0
1,1705,A5,88.0,83/1000,100,90.0
1,1706,A3,88.0,83/1000,100,90.0
1,1707,A4,88.0,83/1000,100,90.0
1,1708,A3,88.0,83/1000,100,90.0
1,1709,A4,88.0,83/1000,100,90.0
1,1710,G#3,88.018,307/1000,127,90.0
1,1711,A4,88.062,1/100,127,90.0
1,1712,F#2,88.062,1/100,127,90.0
1,1713,A4,88.312,6/25,127,90.0
1,1714,F#2,88.312,6/25,127,90.0
1,1715,C#2,88.5,0.5,120,90.0
1,1716,G#4,88.5,0.5,120,90.0
1,1717,G#5,88.5,333/1000,100,90.0
1,1718,C#5,88.5,333/1000,100,90.0
1,1719,G#3,88.5,333/1000,100,90.0
1,1720,G#4,88.5,333/1000,100,90.0
1,1721,G#3,88.5,333/1000,100,90.0
1,1722,G#4,88.5,333/1000,100,90.0
1,1723,G#3,88.503,14/125,127,90.0
1,1724,A4,88.552,0.25,127,90.0
1,1725,G#3,88.747,13/125,127,90.0
1,1726,A4,88.802,0.25,127,90.0
1,1727,C2,88.802,0.25,127,90.0
1,1728,F#2,88.802,0.25,127,90.0
1,1729,F#4,89.0,0.25,127,90.0
1,1730,F#3,89.0,0.25,127,90.0
1,1731,G#3,89.013,23/200,127,90.0
1,1732,A4,89.052,0.25,127,90.0
1,1733,G#3,89.26,99/1000,127,90.0
1,1734,A4,89.302,0.25,127,90.0
1,1735,D2,89.302,0.25,127,90.0
1,1736,F#2,89.302,0.25,127,90.0
1,1737,G#3,89.516,14/125,127,90.0
1,1738,A4,89.552,0.25,127,90.0
1,1739,G#3,89.766,0.07,127,90.0
1,1740,A4,89.802,0.25,127,90.0
1,1741,F#2,89.802,0.25,127,90.0
1,1742,G#3,90.029,143/1000,127,90.0
1,1743,A4,90.052,0.25,127,90.0
1,1744,C2,90.052,0.25,127,90.0
1,1745,G#3,90.279,26/125,127,90.0
1,1746,A4,90.302,0.25,127,90.0
1,1747,F#2,90.302,0.25,127,90.0
1,1748,A4,90.552,0.25,127,90.0
1,1749,G#3,90.753,0.242,127,90.0
1,1750,A4,90.802,0.25,127,90.0
1,1751,C2,90.802,0.25,127,90.0
1,1752,F#2,90.802,0.25,127,90.0
1,1753,F#4,91.0,0.25,127,90.0
1,1754,F#3,91.0,0.25,127,90.0
1,1755,A4,91.052,0.25,127,90.0
1,1756,A4,91.302,0.25,127,90.0
1,1757,D2,91.302,0.25,127,90.0
1,1758,F#2,91.302,0.25,127,90.0
1,1759,A4,91.552,0.25,127,90.0
1,1760,G#3,91.578,3/25,127,90.0
1,1761,E2,91.75,0.25,120,90.0
1,1762,G#4,91.75,0.25,120,90.0
1,1763,G#5,91.75,0.25,100,90.0
1,1764,C#5,91.75,0.25,100,90.0
1,1765,G#3,91.75,0.25,100,90.0
1,1766,G#4,91.75,0.25,100,90.0
1,1767,G#3,91.75,0.25,100,90.0
1,1768,G#4,91.75,0.25,100,90.0
1,1769,G#3,91.781,0.219,127,90.0
1,1770,A4,91.802,0.25,127,90.0
1,1771,F#2,91.802,0.25,127,90.0
1,1772,G#3,92.0,0.016,127,90.0
1,1773,E2,92.0,0.25,120,90.0
1,1774,G#5,92.0,83/1000,100,90.0
1,1775,C#5,92.0,83/1000,100,90.0
1,1776,G#3,92.0,83/1000,100,90.0
1,1777,G#4,92.0,83/1000,100,90.0
1,1778,G#3,92.0,83/1000,100,90.0
1,1779,G#4,92.0,83/1000,100,90.0
1,1780,A4,92.052,0.25,127,90.0
1,1781,C2,92.052,0.25,127,90.0
1,1782,G#3,92.276,0.055,127,90.0
1,1783,A4,92.302,1/100,127,90.0
1,1784,F#2,92.302,1/100,127,90.0
1,1785,G#3,92.43,83/1000,127,90.0
1,1786,E-2,92.5,0.5,120,90.0
1,1787,A4,92.5,0.25,120,90.0
1,1788,C#5,92.5,333/1000,100,90.0
1,1789,A5,92.5,333/1000,100,90.0
1,1790,A4,92.5,333/1000,100,90.0
1,1791,A3,92.5,333/1000,100,90.0
1,1792,A4,92.5,333/1000,100,90.0
1,1793,A3,92.5,333/1000,100,90.0
1,1794,A4,92.552,6/25,127,90.0
1,1795,F#2,92.552,6/25,127,90.0
1,1796,G#3,92.578,29/125,127,90.0
1,1797,A4,92.792,0.25,127,90.0
1,1798,F#4,93.0,0.25,127,90.0
1,1799,F#3,93.0,0.25,127,90.0
1,1800,G#3,93.008,13/125,127,90.0
1,1801,A4,93.042,0.25,127,90.0
1,1802,C2,93.042,0.25,127,90.0
1,1803,F#2,93.042,0.25,127,90.0
1,1804,G#3,93.237,13/125,127,90.0
1,1805,A4,93.292,0.25,127,90.0
1,1806,G#3,93.5,61/500,127,90.0
1,1807,A4,93.542,0.25,127,90.0
1,1808,D2,93.542,0.25,127,90.0
1,1809,F#2,93.542,0.25,127,90.0
1,1810,G#3,93.74,23/200,127,90.0
1,1811,F#2,93.75,0.5,120,90.0
1,1812,F#4,93.75,0.25,120,90.0
1,1813,C#5,93.75,333/1000,100,90.0
1,1814,F#5,93.75,333/1000,100,90.0
1,1815,F#4,93.75,333/1000,100,90.0
1,1816,F#3,93.75,333/1000,100,90.0
1,1817,F#4,93.75,333/1000,100,90.0
1,1818,F#3,93.75,333/1000,100,90.0
1,1819,A4,93.792,0.25,127,90.0
1,1820,G#3,94.0,16/125,127,90.0
1,1821,A4,94.042,0.25,127,90.0
1,1822,F#2,94.042,0.25,127,90.0
1,1823,G#3,94.247,0.102,127,90.0
1,1824,A4,94.292,0.25,127,90.0
1,1825,C2,94.292,0.25,127,90.0
1,1826,G#3,94.5,0.086,127,90.0
1,1827,E2,94.5,0.5,120,90.0
1,1828,G#4,94.5,0.25,120,90.0
1,1829,C#5,94.5,333/1000,100,90.0
1,1830,G#5,94.5,333/1000,100,90.0
1,1831,G#3,94.5,333/1000,100,90.0
1,1832,G#4,94.5,333/1000,100,90.0
1,1833,G#3,94.5,333/1000,100,90.0
1,1834,G#4,94.5,333/1000,100,90.0
1,1835,A4,94.542,0.25,127,90.0
1,1836,F#2,94.542,0.25,127,90.0
1,1837,G#3,94.74,26/125,127,90.0
1,1838,A4,94.792,0.25,127,90.0
1,1839,F#4,95.0,0.25,127,90.0
1,1840,F#3,95.0,0.25,127,90.0
1,1841,A4,95.042,0.25,127,90.0
1,1842,C2,95.042,0.25,127,90.0
1,1843,F#2,95.042,0.25,127,90.0
1,1844,A4,95.292,0.25,127,90.0
1,1845,G#3,95.513,107/1000,127,90.0
1,1846,A4,95.542,0.25,127,90.0
1,1847,D2,95.542,0.25,127,90.0
1,1848,F#2,95.542,0.25,127,90.0
1,1849,B1,95.75,0.25,120,90.0
1,1850,A4,95.75,0.25,120,90.0
1,1851,C#3,95.75,0.25,120,90.0
1,1852,A5,95.75,0.25,100,90.0
1,1853,C#5,95.75,0.25,100,90.0
1,1854,A3,95.75,0.25,100,90.0
1,1855,A4,95.75,0.25,100,90.0
1,1856,A3,95.75,0.25,100,90.0
1,1857,A4,95.75,0.25,100,90.0
1,1858,G#3,95.753,23/200,127,90.0
1,1859,A4,95.792,0.25,127,90.0
1,1860,B1,96.0,0.25,120,90.0
1,1861,C#3,96.0,0.25,120,90.0
1,1862,A5,96.0,83/1000,100,90.0
1,1863,C#5,96.0,83/1000,100,90.0
1,1864,A3,96.0,83/1000,100,90.0
1,1865,A4,96.0,83/1000,100,90.0
1,1866,A3,96.0,83/1000,100,90.0
1,1867,A4,96.0,83/1000,100,90.0
1,1868,G#3,96.008,221/1000,127,90.0
1,1869,A4,96.042,0.25,127,90.0
1,1870,F#2,96.042,0.25,127,90.0
1,1871,C#3,96.25,0.25,120,90.0
1,1872,A4,96.292,0.25,127,90.0
1,1873,C2,96.292,0.25,127,90.0
1,1874,C#2,96.5,0.5,120,90.0
1,1875,G#4,96.5,0.25,120,90.0
1,1876,C#3,96.5,0.25,120,90.0
1,1877,C#5,96.5,333/1000,100,90.0
1,1878,G#5,96.5,333/1000,100,90.0
1,1879,G#3,96.5,333/1000,100,90.0
1,1880,G#4,96.5,333/1000,100,90.0
1,1881,G#3,96.5,333/1000,100,90.0
1,1882,G#4,96.5,333/1000,100,90.0
1,1883,G#3,96.503,17/500,127,90.0
1,1884,A3,96.503,17/500,127,90.0
1,1885,A4,96.542,1/100,127,90.0
1,1886,F#2,96.542,1/100,127,90.0
1,1887,C#3,96.75,0.25,120,90.0
1,1888,G#3,96.766,81/1000,127,90.0
1,1889,A4,96.792,6/25,127,90.0
1,1890,F#2,96.792,6/25,127,90.0
1,1891,C#3,97.0,0.25,120,90.0
1,1892,F#4,97.0,0.25,127,90.0
1,1893,F#3,97.0,0.25,127,90.0
1,1894,G#3,97.008,83/1000,127,90.0
1,1895,A4,97.031,0.25,127,90.0
1,1896,G#3,97.237,0.086,127,90.0
1,1897,C#3,97.25,0.25,120,90.0
1,1898,A4,97.281,0.25,127,90.0
1,1899,C2,97.281,0.25,127,90.0
1,1900,F#2,97.281,0.25,127,90.0
1,1901,G#3,97.495,81/1000,127,90.0
1,1902,C#3,97.5,0.25,120,90.0
1,1903,A4,97.531,0.25,127,90.0
1,1904,G#3,97.734,0.078,127,90.0
1,1905,C#3,97.75,0.25,120,90.0
1,1906,A4,97.781,0.25,127,90.0
1,1907,D2,97.781,0.25,127,90.0
1,1908,F#2,97.781,0.25,127,90.0
1,1909,G#3,97.977,81/1000,127,90.0
1,1910,C#3,98.0,0.25,120,90.0
1,1911,A4,98.031,0.25,127,90.0
1,1912,G#3,98.216,83/1000,127,90.0
1,1913,C#3,98.25,0.25,120,90.0
1,1914,A4,98.281,0.25,127,90.0
1,1915,F#2,98.281,0.25,127,90.0
1,1916,G#3,98.471,19/250,127,90.0
1,1917,C#3,98.5,0.25,120,90.0
1,1918,A4,98.531,0.25,127,90.0
1,1919,C2,98.531,0.25,127,90.0
1,1920,G#3,98.74,12/125,127,90.0
1,1921,C#3,98.75,0.25,120,90.0
1,1922,A4,98.781,0.25,127,90.0
1,1923,F#2,98.781,0.25,127,90.0
1,1924,C#3,99.0,0.25,120,90.0
1,1925,F#4,99.0,0.25,127,90.0
1,1926,F#3,99.0,0.25,127,90.0
1,1927,A4,99.031,0.25,127,90.0
1,1928,G#3,99.242,83/1000,127,90.0
1,1929,C#3,99.25,0.25,120,90.0
1,1930,A4,99.281,0.25,127,90.0
1,1931,C2,99.281,0.25,127,90.0
1,1932,F#2,99.281,0.25,127,90.0
1,1933,C#3,99.5,0.25,120,90.0
1,1934,A4,99.531,0.25,127,90.0
1,1935,G#3,99.547,0.102,127,90.0
1,1936,E2,99.75,0.25,120,90.0
1,1937,G#4,99.75,0.25,120,90.0
1,1938,C#3,99.75,0.25,120,90.0
1,1939,G#5,99.75,0.25,100,90.0
1,1940,C#5,99.75,0.25,100,90.0
1,1941,G#3,99.75,0.25,100,90.0
1,1942,G#4,99.75,0.25,100,90.0
1,1943,G#3,99.75,0.25,100,90.0
1,1944,G#4,99.75,0.25,100,90.0
1,1945,A4,99.781,0.25,127,90.0
1,1946,D2,99.781,0.25,127,90.0
1,1947,F#2,99.781,0.25,127,90.0
1,1948,G#3,99.997,3/1000,127,90.0
1,1949,G#3,100.0,0.078,127,90.0
1,1950,E2,100.0,0.25,120,90.0
1,1951,C#3,100.0,0.25,120,90.0
1,1952,G#5,100.0,83/1000,100,90.0
1,1953,C#5,100.0,83/1000,100,90.0
1,1954,G#3,100.0,83/1000,100,90.0
1,1955,G#4,100.0,83/1000,100,90.0
1,1956,G#3,100.0,83/1000,100,90.0
1,1957,G#4,100.0,83/1000,100,90.0
1,1958,A4,100.031,0.25,127,90.0
1,1959,G#3,100.25,81/1000,127,90.0
1,1960,C#3,100.25,0.25,120,90.0
1,1961,A4,100.281,0.25,127,90.0
1,1962,F#2,100.281,0.25,127,90.0
1,1963,E-2,100.5,0.5,120,90.0
1,1964,A4,100.5,0.25,120,90.0
1,1965,C#3,100.5,0.25,120,90.0
1,1966,C#5,100.5,333/1000,100,90.0
1,1967,A5,100.5,333/1000,100,90.0
1,1968,A4,100.5,333/1000,100,90.0
1,1969,A3,100.5,333/1000,100,90.0
1,1970,A4,100.5,333/1000,100,90.0
1,1971,A3,100.5,333/1000,100,90.0
1,1972,G#3,100.513,0.078,127,90.0
1,1973,A4,100.531,0.25,127,90.0
1,1974,C2,100.531,0.25,127,90.0
1,1975,G#3,100.75,0.078,127,90.0
1,1976,C#3,100.75,0.25,120,90.0
1,1977,A4,100.781,1/100,127,90.0
1,1978,F#2,100.781,1/100,127,90.0
1,1979,C#3,101.0,0.25,120,90.0
1,1980,F#4,101.0,0.25,127,90.0
1,1981,F#3,101.0,0.25,127,90.0
1,1982,G#3,101.003,0.078,127,90.0
1,1983,A4,101.031,6/25,127,90.0
1,1984,F#2,101.031,6/25,127,90.0
1,1985,G#3,101.245,0.078,127,90.0
1,1986,C#3,101.25,0.25,120,90.0
1,1987,A4,101.271,0.25,127,90.0
1,1988,C#3,101.5,0.25,120,90.0
1,1989,G#3,101.505,19/250,127,90.0
1,1990,A4,101.521,0.25,127,90.0
1,1991,C2,101.521,0.25,127,90.0
1,1992,F#2,101.521,0.25,127,90.0
1,1993,G#3,101.75,0.086,127,90.0
1,1994,F#2,101.75,0.5,120,90.0
1,1995,F#4,101.75,0.25,120,90.0
1,1996,C#3,101.75,0.25,120,90.0
1,1997,F#5,101.75,333/1000,100,90.0
1,1998,C#5,101.75,333/1000,100,90.0
1,1999,F#3,101.75,333/1000,100,90.0
1,2000,F#4,101.75,333/1000,100,90.0
1,2001,F#3,101.75,333/1000,100,90.0
1,2002,F#4,101.75,333/1000,100,90.0
1,2003,A4,101.771,0.25,127,90.0
1,2004,C#3,102.0,0.25,120,90.0
1,2005,G#3,102.005,0.086,127,90.0
1,2006,A4,102.021,0.25,127,90.0
1,2007,D2,102.021,0.25,127,90.0
1,2008,F#2,102.021,0.25,127,90.0
1,2009,C#3,102.25,0.25,120,90.0
1,2010,A4,102.271,0.25,127,90.0
1,2011,G#3,102.273,23/200,127,90.0
1,2012,E2,102.5,0.5,120,90.0
1,2013,G#4,102.5,0.25,120,90.0
1,2014,C#3,102.5,0.25,120,90.0
1,2015,G#5,102.5,333/1000,100,90.0
1,2016,C#5,102.5,333/1000,100,90.0
1,2017,G#3,102.5,333/1000,100,90.0
1,2018,G#4,102.5,333/1000,100,90.0
1,2019,G#3,102.5,333/1000,100,90.0
1,2020,G#4,102.5,333/1000,100,90.0
1,2021,A4,102.521,0.25,127,90.0
1,2022,F#2,102.521,0.25,127,90.0
1,2023,C#3,102.75,0.25,120,90.0
1,2024,A4,102.771,0.25,127,90.0
1,2025,C2,102.771,0.25,127,90.0
1,2026,G#3,102.784,12/125,127,90.0
1,2027,C#3,103.0,0.25,120,90.0
1,2028,F#3,103.0,0.25,127,90.0
1,2029,F#4,103.0,0.25,127,90.0
1,2030,A4,103.021,0.25,127,90.0
1,2031,F#2,103.021,0.25,127,90.0
1,2032,C#3,103.25,0.25,120,90.0
1,2033,A4,103.271,0.25,127,90.0
1,2034,G#3,103.315,83/1000,127,90.0
1,2035,C#3,103.5,0.25,120,90.0
1,2036,A4,103.521,0.25,127,90.0
1,2037,C2,103.521,0.25,127,90.0
1,2038,F#2,103.521,0.25,127,90.0
1,2039,G#3,103.591,0.078,127,90.0
1,2040,B1,103.75,0.25,120,90.0
1,2041,A4,103.75,0.25,120,90.0
1,2042,C#3,103.75,0.25,120,90.0
1,2043,C#5,103.75,0.25,100,90.0
1,2044,A5,103.75,0.25,100,90.0
1,2045,A3,103.75,0.25,100,90.0
1,2046,A4,103.75,0.25,100,90.0
1,2047,A3,103.75,0.25,100,90.0
1,2048,A4,103.75,0.25,100,90.0
1,2049,A4,103.771,0.25,127,90.0
1,2050,G#3,103.828,0.086,127,90.0
1,2051,B1,104.0,0.25,120,90.0
1,2052,C#3,104.0,0.25,120,90.0
1,2053,C#5,104.0,83/1000,100,90.0
1,2054,A5,104.0,83/1000,100,90.0
1,2055,A3,104.0,83/1000,100,90.0
1,2056,A4,104.0,83/1000,100,90.0
1,2057,A3,104.0,83/1000,100,90.0
1,2058,A4,104.0,83/1000,100,90.0
1,2059,A4,104.021,0.25,127,90.0
1,2060,D2,104.021,0.25,127,90.0
1,2061,F#2,104.021,0.25,127,90.0
1,2062,G#3,104.078,0.086,127,90.0
1,2063,C#3,104.25,0.25,120,90.0
1,2064,A4,104.271,0.25,127,90.0
1,2065,G#3,104.312,83/1000,127,90.0
1,2066,C#2,104.5,0.5,120,90.0
1,2067,G#4,104.5,0.25,120,90.0
1,2068,C#3,104.5,0.25,120,90.0
1,2069,C#5,104.5,333/1000,100,90.0
1,2070,G#5,104.5,333/1000,100,90.0
1,2071,G#3,104.5,333/1000,100,90.0
1,2072,G#4,104.5,333/1000,100,90.0
1,2073,G#3,104.5,333/1000,100,90.0
1,2074,G#4,104.5,333/1000,100,90.0
1,2075,A4,104.521,0.25,127,90.0
1,2076,F#2,104.521,0.25,127,90.0
1,2077,G#3,104.542,89/1000,127,90.0
1,2078,C#3,104.75,0.25,120,90.0
1,2079,A4,104.771,0.25,127,90.0
1,2080,C2,104.771,0.25,127,90.0
1,2081,G#3,104.786,0.086,127,90.0
1,2082,C#3,105.0,0.25,120,90.0
1,2083,F#4,105.0,0.25,127,90.0
1,2084,F#3,105.0,0.25,127,90.0
1,2085,A4,105.021,1/100,127,90.0
1,2086,F#2,105.021,1/100,127,90.0
1,2087,G#3,105.214,13/125,127,90.0
1,2088,C#3,105.25,0.25,120,90.0
1,2089,A4,105.271,6/25,127,90.0
1,2090,F#2,105.271,6/25,127,90.0
1,2091,C#3,105.5,0.25,120,90.0
1,2092,A4,105.51,0.25,127,90.0
1,2093,G#3,105.523,81/1000,127,90.0
1,2094,C#3,105.75,0.25,120,90.0
1,2095,A4,105.76,0.25,127,90.0
1,2096,C2,105.76,0.25,127,90.0
1,2097,F#2,105.76,0.25,127,90.0
1,2098,G#3,105.779,19/250,127,90.0
1,2099,C#3,106.0,0.25,120,90.0
1,2100,A4,106.01,0.25,127,90.0
1,2101,G#3,106.029,83/1000,127,90.0
1,2102,C#3,106.25,0.25,120,90.0
1,2103,A4,106.26,0.25,127,90.0
1,2104,D2,106.26,0.25,127,90.0
1,2105,F#2,106.26,0.25,127,90.0
1,2106,G#3,106.268,81/1000,127,90.0
1,2107,C#3,106.5,0.25,120,90.0
1,2108,A4,106.51,0.25,127,90.0
1,2109,C#3,106.75,0.25,120,90.0
1,2110,A4,106.76,0.25,127,90.0
1,2111,F#2,106.76,0.25,127,90.0
1,2112,G#3,106.766,0.094,127,90.0
1,2113,C#3,107.0,0.25,120,90.0
1,2114,F#4,107.0,0.25,127,90.0
1,2115,F#3,107.0,0.25,127,90.0
1,2116,A4,107.01,0.25,127,90.0
1,2117,C2,107.01,0.25,127,90.0
1,2118,C#3,107.25,0.25,120,90.0
1,2119,A4,107.26,0.25,127,90.0
1,2120,F#2,107.26,0.25,127,90.0
1,2121,G#3,107.286,91/1000,127,90.0
1,2122,C#3,107.5,0.25,120,90.0
1,2123,A4,107.51,0.25,127,90.0
1,2124,G#3,107.552,81/1000,127,90.0
1,2125,E2,107.75,0.25,120,90.0
1,2126,G#4,107.75,0.25,120,90.0
1,2127,C#3,107.75,0.25,120,90.0
1,2128,G#5,107.75,0.25,100,90.0
1,2129,C#5,107.75,0.25,100,90.0
1,2130,G#4,107.75,0.25,100,90.0
1,2131,G#3,107.75,0.25,100,90.0
1,2132,G#4,107.75,0.25,100,90.0
1,2133,G#3,107.75,0.25,100,90.0
1,2134,A4,107.76,0.25,127,90.0
1,2135,C2,107.76,0.25,127,90.0
1,2136,F#2,107.76,0.25,127,90.0
1,2137,G#3,107.799,0.078,127,90.0
1,2138,E2,108.0,0.25,120,90.0
1,2139,C#3,108.0,0.25,120,90.0
1,2140,G#5,108.0,83/1000,100,90.0
1,2141,C#5,108.0,83/1000,100,90.0
1,2142,G#4,108.0,83/1000,100,90.0
1,2143,G#3,108.0,83/1000,100,90.0
1,2144,G#4,108.0,83/1000,100,90.0
1,2145,G#3,108.0,83/1000,100,90.0
1,2146,A4,108.01,0.25,127,90.0
1,2147,G#3,108.06,99/500,127,90.0
1,2148,C#3,108.25,0.25,120,90.0
1,2149,A4,108.26,0.25,127,90.0
1,2150,D2,108.26,0.25,127,90.0
1,2151,F#2,108.26,0.25,127,90.0
1,2152,E-2,108.5,0.5,120,90.0
1,2153,A4,108.5,0.25,120,90.0
1,2154,C#3,108.5,0.25,120,90.0
1,2155,A5,108.5,333/1000,100,90.0
1,2156,C#5,108.5,333/1000,100,90.0
1,2157,A4,108.5,333/1000,100,90.0
1,2158,A3,108.5,333/1000,100,90.0
1,2159,A4,108.5,333/1000,100,90.0
1,2160,A3,108.5,333/1000,100,90.0
1,2161,A4,108.51,0.25,127,90.0
1,2162,G#3,108.531,89/1000,127,90.0
1,2163,C#3,108.75,0.25,120,90.0
1,2164,A4,108.76,0.25,127,90.0
1,2165,F#2,108.76,0.25,127,90.0
1,2166,G#3,108.789,0.078,127,90.0
1,2167,C#3,109.0,0.25,120,90.0
1,2168,F#4,109.0,0.25,127,90.0
1,2169,F#3,109.0,0.25,127,90.0
1,2170,A4,109.01,0.25,127,90.0
1,2171,C2,109.01,0.25,127,90.0
1,2172,G#3,109.029,0.086,127,90.0
1,2173,C#3,109.25,0.25,120,90.0
1,2174,A4,109.26,1/100,127,90.0
1,2175,F#2,109.26,1/100,127,90.0
1,2176,G#3,109.286,83/1000,127,90.0
1,2177,C#3,109.5,0.25,120,90.0
1,2178,A4,109.51,6/25,127,90.0
1,2179,F#2,109.51,6/25,127,90.0
1,2180,G#3,109.549,12/125,127,90.0
1,2181,F#2,109.75,0.5,120,90.0
1,2182,F#4,109.75,0.25,120,90.0
1,2183,C#3,109.75,0.25,120,90.0
1,2184,A4,109.75,0.25,127,90.0
1,2185,C#5,109.75,333/1000,100,90.0
1,2186,F#5,109.75,333/1000,100,90.0
1,2187,F#3,109.75,333/1000,100,90.0
1,2188,F#4,109.75,333/1000,100,90.0
1,2189,F#3,109.75,333/1000,100,90.0
1,2190,F#4,109.75,333/1000,100,90.0
1,2191,C#3,110.0,0.25,120,90.0
1,2192,A4,110.0,0.25,127,90.0
1,2193,C2,110.0,0.25,127,90.0
1,2194,F#2,110.0,0.25,127,90.0
1,2195,G#3,110.031,81/1000,127,90.0
1,2196,C#3,110.25,0.25,120,90.0
1,2197,A4,110.25,0.25,127,90.0
1,2198,G#3,110.273,0.086,127,90.0
1,2199,E2,110.5,0.5,120,90.0
1,2200,G#4,110.5,0.25,120,90.0
1,2201,C#3,110.5,0.25,120,90.0
1,2202,C#5,110.5,333/1000,100,90.0
1,2203,G#5,110.5,333/1000,100,90.0
1,2204,G#3,110.5,333/1000,100,90.0
1,2205,G#4,110.5,333/1000,100,90.0
1,2206,G#3,110.5,333/1000,100,90.0
1,2207,G#4,110.5,333/1000,100,90.0
1,2208,A4,110.5,0.25,127,90.0
1,2209,D2,110.5,0.25,127,90.0
1,2210,F#2,110.5,0.25,127,90.0
1,2211,G#3,110.523,91/1000,127,90.0
1,2212,C#3,110.75,0.25,120,90.0
1,2213,A4,110.75,0.25,127,90.0
1,2214,G#3,110.81,13/125,127,90.0
1,2215,C#3,111.0,0.25,120,90.0
1,2216,F#4,111.0,0.25,127,90.0
1,2217,F#3,111.0,0.25,127,90.0
1,2218,A4,111.0,0.25,127,90.0
1,2219,F#2,111.0,0.25,127,90.0
1,2220,C#3,111.25,0.25,120,90.0
1,2221,A4,111.25,0.25,127,90.0
1,2222,C2,111.25,0.25,127,90.0
1,2223,G#3,111.284,91/1000,127,90.0
1,2224,C#3,111.5,0.25,120,90.0
1,2225,A4,111.5,0.25,127,90.0
1,2226,F#2,111.5,0.25,127,90.0
1,2227,G#3,111.591,0.094,127,90.0
1,2228,B2,111.75,0.25,115,90.0
1,2229,B1,111.75,0.25,120,90.0
1,2230,B3,111.75,0.25,120,90.0
1,2231,C#3,111.75,0.25,120,90.0
1,2232,A4,111.75,0.25,127,90.0
1,2233,B2,111.75,0.25,50,90.0
1,2234,A4,111.75,0.25,50,90.0
1,2235,A3,111.75,0.25,50,90.0
1,2236,B3,111.75,0.25,50,90.0
1,2237,B3,111.75,0.25,100,90.0
1,2238,A4,111.75,0.25,100,90.0
1,2239,A3,111.75,0.25,100,90.0
1,2240,B2,111.75,0.25,100,90.0
1,2241,B3,111.75,0.25,100,90.0
1,2242,A4,111.75,0.25,100,90.0
1,2243,A3,111.75,0.25,100,90.0
1,2244,B2,111.75,0.25,100,90.0
1,2245,G#3,111.831,107/1000,127,90.0
1,2246,B2,112.0,83/1000,115,90.0
1,2247,B1,112.0,0.25,120,90.0
1,2248,C#3,112.0,0.25,120,90.0
1,2249,B2,112.0,83/1000,50,90.0
1,2250,A4,112.0,83/1000,50,90.0
1,2251,A3,112.0,83/1000,50,90.0
1,2252,B3,112.0,83/1000,50,90.0
1,2253,B3,112.0,83/1000,100,90.0
1,2254,A4,112.0,83/1000,100,90.0
1,2255,A3,112.0,83/1000,100,90.0
1,2256,B2,112.0,83/1000,100,90.0
1,2257,B3,112.0,83/1000,100,90.0
1,2258,A4,112.0,83/1000,100,90.0
1,2259,A3,112.0,83/1000,100,90.0
1,2260,B2,112.0,83/1000,100,90.0
1,2261,A4,112.0,0.25,127,90.0
1,2262,C2,112.0,0.25,127,90.0
1,2263,F#2,112.0,0.25,127,90.0
1,2264,G#3,112.081,107/1000,127,90.0
1,2265,A4,112.25,0.25,127,90.0
1,2266,G#3,112.398,0.094,127,90.0
1,2267,C#3,112.5,333/1000,115,90.0
1,2268,C#2,112.5,0.5,120,90.0
1,2269,C#4,112.5,0.25,120,90.0
1,2270,C#3,112.5,0.5,120,90.0
1,2271,C#4,112.5,333/1000,50,90.0
1,2272,C#3,112.5,333/1000,50,90.0
1,2273,G#4,112.5,333/1000,50,90.0
1,2274,G#3,112.5,333/1000,50,90.0
1,2275,G#4,112.5,333/1000,100,90.0
1,2276,C#4,112.5,333/1000,100,90.0
1,2277,C#3,112.5,333/1000,100,90.0
1,2278,G#3,112.5,333/1000,100,90.0
1,2279,G#4,112.5,333/1000,100,90.0
1,2280,C#4,112.5,333/1000,100,90.0
1,2281,C#3,112.5,333/1000,100,90.0
1,2282,G#3,112.5,333/1000,100,90.0
1,2283,A4,112.5,0.25,127,90.0
1,2284,D2,112.5,0.25,127,90.0
1,2285,F#2,112.5,0.25,127,90.0
1,2286,G#3,112.716,91/1000,127,90.0
1,2287,A4,112.75,0.25,127,90.0
1,2288,F#4,113.0,0.25,127,90.0
1,2289,F#3,113.0,0.25,127,90.0
1,2290,A4,113.0,0.25,127,90.0
1,2291,F#2,113.0,0.25,127,90.0
1,2292,G#3,113.044,13/125,127,90.0
1,2293,A4,113.25,0.25,127,90.0
1,2294,C2,113.25,0.25,127,90.0
1,2295,A4,113.5,1/100,127,90.0
1,2296,F#2,113.5,1/100,127,90.0
1,2297,G#3,113.69,83/1000,127,90.0
1,2298,A4,113.75,6/25,127,90.0
1,2299,F#2,113.75,6/25,127,90.0
1,2300,A4,113.99,0.25,127,90.0
1,2301,G#3,114.008,0.086,127,90.0
1,2302,A4,114.24,0.25,127,90.0
1,2303,C2,114.24,0.25,127,90.0
1,2304,F#2,114.24,0.25,127,90.0
1,2305,G#3,114.268,0.078,127,90.0
1,2306,A4,114.49,0.25,127,90.0
1,2307,G#3,114.51,83/1000,127,90.0
1,2308,A4,114.74,0.25,127,90.0
1,2309,D2,114.74,0.25,127,90.0
1,2310,F#2,114.74,0.25,127,90.0
1,2311,G#3,114.776,81/1000,127,90.0
1,2312,A4,114.99,0.25,127,90.0
1,2313,F#4,115.0,0.25,127,90.0
1,2314,F#3,115.0,0.25,127,90.0
1,2315,G#3,115.055,0.109,127,90.0
1,2316,A4,115.24,0.25,127,90.0
1,2317,F#2,115.24,0.25,127,90.0
1,2318,A4,115.49,0.25,127,90.0
1,2319,C2,115.49,0.25,127,90.0
1,2320,G#3,115.521,83/1000,127,90.0
1,2321,A4,115.74,0.25,127,90.0
1,2322,F#2,115.74,0.25,127,90.0
1,2323,E2,115.75,0.25,120,90.0
1,2324,C#3,115.75,0.25,120,90.0
1,2325,G#3,115.75,0.25,100,90.0
1,2326,G#4,115.75,0.25,100,90.0
1,2327,G#3,115.75,0.25,100,90.0
1,2328,G#4,115.75,0.25,100,90.0
1,2329,G#3,115.773,83/1000,127,90.0
1,2330,A4,115.99,0.25,127,90.0
1,2331,E2,116.0,0.25,120,90.0
1,2332,C#3,116.0,0.25,120,90.0
1,2333,G#3,116.0,83/1000,100,90.0
1,2334,G#4,116.0,83/1000,100,90.0
1,2335,G#3,116.0,83/1000,100,90.0
1,2336,G#4,116.0,83/1000,100,90.0
1,2337,G#3,116.036,23/200,127,90.0
1,2338,A4,116.24,0.25,127,90.0
1,2339,C2,116.24,0.25,127,90.0
1,2340,F#2,116.24,0.25,127,90.0
1,2341,A4,116.49,0.25,127,90.0
1,2342,E-2,116.5,0.5,120,90.0
1,2343,C#3,116.5,0.5,120,90.0
1,2344,A3,116.5,333/1000,100,90.0
1,2345,A4,116.5,333/1000,100,90.0
1,2346,A3,116.5,333/1000,100,90.0
1,2347,A4,116.5,333/1000,100,90.0
1,2348,G#3,116.521,0.086,127,90.0
1,2349,A4,116.74,0.25,127,90.0
1,2350,D2,116.74,0.25,127,90.0
1,2351,F#2,116.74,0.25,127,90.0
1,2352,G#3,116.768,0.086,127,90.0
1,2353,A4,116.99,0.25,127,90.0
1,2354,F#4,117.0,0.25,127,90.0
1,2355,F#3,117.0,0.25,127,90.0
1,2356,G#3,117.065,0.125,127,90.0
1,2357,A4,117.24,0.25,127,90.0
1,2358,F#2,117.24,0.25,127,90.0
1,2359,A4,117.49,0.25,127,90.0
1,2360,C2,117.49,0.25,127,90.0
1,2361,G#3,117.521,83/1000,127,90.0
1,2362,A4,117.74,1/100,127,90.0
1,2363,F#2,117.74,1/100,127,90.0
1,2364,F#2,117.75,0.5,120,90.0
1,2365,C#3,117.75,0.5,120,90.0
1,2366,F#3,117.75,333/1000,100,90.0
1,2367,F#4,117.75,333/1000,100,90.0
1,2368,F#3,117.75,333/1000,100,90.0
1,2369,F#4,117.75,333/1000,100,90.0
1,2370,G#3,117.779,0.078,127,90.0
1,2371,A4,117.99,6/25,127,90.0
1,2372,F#2,117.99,6/25,127,90.0
1,2373,G#3,118.023,19/250,127,90.0
1,2374,A4,118.229,0.25,127,90.0
1,2375,G#3,118.273,81/1000,127,90.0
1,2376,A4,118.479,0.25,127,90.0
1,2377,C2,118.479,0.25,127,90.0
1,2378,F#2,118.479,0.25,127,90.0
1,2379,E2,118.5,0.5,120,90.0
1,2380,C#3,118.5,0.5,120,90.0
1,2381,G#4,118.5,333/1000,100,90.0
1,2382,G#3,118.5,333/1000,100,90.0
1,2383,G#4,118.5,333/1000,100,90.0
1,2384,G#3,118.5,333/1000,100,90.0
1,2385,G#3,118.521,0.086,127,90.0
1,2386,A4,118.729,0.25,127,90.0
1,2387,G#3,118.799,14/125,127,90.0
1,2388,A4,118.979,0.25,127,90.0
1,2389,D2,118.979,0.25,127,90.0
1,2390,F#2,118.979,0.25,127,90.0
1,2391,F#4,119.0,0.25,127,90.0
1,2392,F#3,119.0,0.25,127,90.0
1,2393,A4,119.229,0.25,127,90.0
1,2394,G#3,119.318,81/1000,127,90.0
1,2395,A4,119.479,0.25,127,90.0
1,2396,F#2,119.479,0.25,127,90.0
1,2397,G#3,119.586,81/1000,127,90.0
1,2398,A4,119.729,0.25,127,90.0
1,2399,C2,119.729,0.25,127,90.0
1,2400,B1,119.75,0.25,120,90.0
1,2401,C#3,119.75,0.25,120,90.0
1,2402,A3,119.75,0.25,100,90.0
1,2403,A4,119.75,0.25,100,90.0
1,2404,A3,119.75,0.25,100,90.0
1,2405,A4,119.75,0.25,100,90.0
1,2406,G#3,119.815,81/1000,127,90.0
1,2407,A4,119.979,0.25,127,90.0
1,2408,F#2,119.979,0.25,127,90.0
1,2409,B1,120.0,0.25,120,90.0
1,2410,C#3,120.0,0.25,120,90.0
1,2411,A3,120.0,83/1000,100,90.0
1,2412,A4,120.0,83/1000,100,90.0
1,2413,A3,120.0,83/1000,100,90.0
1,2414,A4,120.0,83/1000,100,90.0
1,2415,G#3,120.034,83/1000,127,90.0
1,2416,A4,120.229,0.25,127,90.0
1,2417,G#3,120.268,81/1000,127,90.0
1,2418,A4,120.479,0.25,127,90.0
1,2419,C2,120.479,0.25,127,90.0
1,2420,F#2,120.479,0.25,127,90.0
1,2421,C#2,120.5,0.5,120,90.0
1,2422,C#3,120.5,0.5,120,90.0
1,2423,G#3,120.5,333/1000,100,90.0
1,2424,G#4,120.5,333/1000,100,90.0
1,2425,G#3,120.5,333/1000,100,90.0
1,2426,G#4,120.5,333/1000,100,90.0
1,2427,G#3,120.523,0.086,127,90.0
1,2428,A4,120.729,0.25,127,90.0
1,2429,G#3,120.794,81/1000,127,90.0
1,2430,A4,120.979,0.25,127,90.0
1,2431,D2,120.979,0.25,127,90.0
1,2432,F#2,120.979,0.25,127,90.0
1,2433,F#3,121.0,0.25,127,90.0
1,2434,F#4,121.0,0.25,127,90.0
1,2435,G#3,121.039,81/1000,127,90.0
1,2436,A4,121.229,0.25,127,90.0
1,2437,G#3,121.297,0.109,127,90.0
1,2438,A4,121.479,0.25,127,90.0
1,2439,F#2,121.479,0.25,127,90.0
1,2440,A4,121.729,0.25,127,90.0
1,2441,C2,121.729,0.25,127,90.0
1,2442,G#3,121.763,81/1000,127,90.0
1,2443,A4,121.979,1/100,127,90.0
1,2444,F#2,121.979,1/100,127,90.0
1,2445,G#3,122.013,91/1000,127,90.0
1,2446,A4,122.229,6/25,127,90.0
1,2447,F#2,122.229,6/25,127,90.0
1,2448,G#3,122.284,81/1000,127,90.0
1,2449,A4,122.469,0.25,127,90.0
1,2450,G#3,122.529,83/1000,127,90.0
1,2451,A4,122.719,0.25,127,90.0
1,2452,C2,122.719,0.25,127,90.0
1,2453,F#2,122.719,0.25,127,90.0
1,2454,G#3,122.799,16/125,127,90.0
1,2455,A4,122.969,0.25,127,90.0
1,2456,F#3,123.0,0.25,127,90.0
1,2457,F#4,123.0,0.25,127,90.0
1,2458,A4,123.219,0.25,127,90.0
1,2459,D2,123.219,0.25,127,90.0
1,2460,F#2,123.219,0.25,127,90.0
1,2461,G#3,123.289,89/1000,127,90.0
1,2462,A4,123.469,0.25,127,90.0
1,2463,G#3,123.568,0.102,127,90.0
1,2464,A4,123.719,0.25,127,90.0
1,2465,F#2,123.719,0.25,127,90.0
1,2466,E2,123.75,0.25,120,90.0
1,2467,C#3,123.75,0.25,120,90.0
1,2468,G#3,123.75,0.25,100,90.0
1,2469,G#4,123.75,0.25,100,90.0
1,2470,G#3,123.75,0.25,100,90.0
1,2471,G#4,123.75,0.25,100,90.0
1,2472,A4,123.969,0.25,127,90.0
1,2473,C2,123.969,0.25,127,90.0
1,2474,G#3,123.977,0.023,127,90.0
1,2475,G#3,124.0,13/200,127,90.0
1,2476,E2,124.0,0.25,120,90.0
1,2477,C#3,124.0,0.25,120,90.0
1,2478,G#3,124.0,83/1000,100,90.0
1,2479,G#4,124.0,83/1000,100,90.0
1,2480,G#3,124.0,83/1000,100,90.0
1,2481,G#4,124.0,83/1000,100,90.0
1,2482,A4,124.219,0.25,127,90.0
1,2483,F#2,124.219,0.25,127,90.0
1,2484,G#3,124.258,81/1000,127,90.0
1,2485,A4,124.469,0.25,127,90.0
1,2486,E-2,124.5,0.5,120,90.0
1,2487,C#3,124.5,0.5,120,90.0
1,2488,A3,124.5,333/1000,100,90.0
1,2489,A4,124.5,333/1000,100,90.0
1,2490,A3,124.5,333/1000,100,90.0
1,2491,A4,124.5,333/1000,100,90.0
1,2492,G#3,124.521,81/1000,127,90.0
1,2493,A4,124.719,0.25,127,90.0
1,2494,C2,124.719,0.25,127,90.0
1,2495,F#2,124.719,0.25,127,90.0
1,2496,G#3,124.768,83/1000,127,90.0
1,2497,A4,124.969,0.25,127,90.0
1,2498,F#4,125.0,0.25,127,90.0
1,2499,F#3,125.0,0.25,127,90.0
1,2500,G#3,125.036,99/1000,127,90.0
1,2501,A4,125.219,0.25,127,90.0
1,2502,D2,125.219,0.25,127,90.0
1,2503,F#2,125.219,0.25,127,90.0
1,2504,A4,125.469,0.25,127,90.0
1,2505,G#3,125.513,81/1000,127,90.0
1,2506,A4,125.719,0.25,127,90.0
1,2507,F#2,125.719,0.25,127,90.0
1,2508,F#2,125.75,0.5,120,90.0
1,2509,F#4,125.75,333/1000,100,90.0
1,2510,F#3,125.75,333/1000,100,90.0
1,2511,F#4,125.75,333/1000,100,90.0
1,2512,F#3,125.75,333/1000,100,90.0
1,2513,G#3,125.766,19/250,127,90.0
1,2514,A4,125.969,0.25,127,90.0
1,2515,C2,125.969,0.25,127,90.0
1,2516,G#3,126.018,83/1000,127,90.0
1,2517,A4,126.219,1/100,127,90.0
1,2518,F#2,126.219,1/100,127,90.0
1,2519,G#3,126.266,81/1000,127,90.0
1,2520,A4,126.469,6/25,127,90.0
1,2521,F#2,126.469,6/25,127,90.0
1,2522,E2,126.5,0.5,120,90.0
1,2523,G#4,126.5,333/1000,100,90.0
1,2524,G#3,126.5,333/1000,100,90.0
1,2525,G#4,126.5,333/1000,100,90.0
1,2526,G#3,126.5,333/1000,100,90.0
1,2527,G#3,126.516,83/1000,127,90.0
1,2528,A4,126.708,0.25,127,90.0
1,2529,G#3,126.766,81/1000,127,90.0
1,2530,A4,126.958,0.25,127,90.0
1,2531,C2,126.958,0.25,127,90.0
1,2532,F#2,126.958,0.25,127,90.0
1,2533,F#4,127.0,0.25,127,90.0
1,2534,F#3,127.0,0.25,127,90.0
1,2535,G#3,127.052,13/125,127,90.0
1,2536,A4,127.208,0.25,127,90.0
1,2537,G#3,127.286,13/125,127,90.0
1,2538,A4,127.458,0.25,127,90.0
1,2539,D2,127.458,0.25,127,90.0
1,2540,F#2,127.458,0.25,127,90.0
1,2541,G#3,127.534,14/125,127,90.0
1,2542,A4,127.708,0.25,127,90.0
1,2543,B1,127.75,0.25,120,90.0
1,2544,A4,127.75,0.25,120,90.0
1,2545,C#3,127.75,0.25,120,90.0
1,2546,C#5,127.75,0.25,100,90.0
1,2547,A5,127.75,0.25,100,90.0
1,2548,A3,127.75,0.25,100,90.0
1,2549,A4,127.75,0.25,100,90.0
1,2550,A3,127.75,0.25,100,90.0
1,2551,A4,127.75,0.25,100,90.0
1,2552,G#3,127.766,12/125,127,90.0
1,2553,A4,127.958,0.25,127,90.0
1,2554,F#2,127.958,0.25,127,90.0
1,2555,B1,128.0,0.25,120,90.0
1,2556,A4,128.0,0.25,120,90.0
1,2557,C#3,128.0,0.25,120,90.0
1,2558,C#5,128.0,83/1000,100,90.0
1,2559,A5,128.0,83/1000,100,90.0
1,2560,A3,128.0,83/1000,100,90.0
1,2561,A4,128.0,83/1000,100,90.0
1,2562,A3,128.0,83/1000,100,90.0
1,2563,A4,128.0,83/1000,100,90.0
1,2564,G#3,128.023,0.383,127,90.0
1,2565,A4,128.208,0.25,127,90.0
1,2566,C2,128.208,0.25,127,90.0
1,2567,C#3,128.25,0.25,120,90.0
1,2568,A4,128.458,0.25,127,90.0
1,2569,F#2,128.458,0.25,127,90.0
1,2570,C#2,128.5,0.5,120,90.0
1,2571,G#4,128.5,0.5,120,90.0
1,2572,C#3,128.5,0.25,120,90.0
1,2573,G#5,128.5,333/1000,100,90.0
1,2574,C#5,128.5,333/1000,100,90.0
1,2575,G#3,128.5,333/1000,100,90.0
1,2576,G#4,128.5,333/1000,100,90.0
1,2577,G#3,128.5,333/1000,100,90.0
1,2578,G#4,128.5,333/1000,100,90.0
1,2579,A4,128.708,0.25,127,90.0
1,2580,C#3,128.75,0.25,120,90.0
1,2581,A4,128.958,0.25,127,90.0
1,2582,C2,128.958,0.25,127,90.0
1,2583,F#2,128.958,0.25,127,90.0
1,2584,C#3,129.0,0.25,120,90.0
1,2585,F#4,129.0,0.25,127,90.0
1,2586,F#3,129.0,0.25,127,90.0
1,2587,G#3,129.036,107/1000,127,90.0
1,2588,A4,129.208,0.25,127,90.0
1,2589,C#3,129.25,0.25,120,90.0
1,2590,G#3,129.281,13/125,127,90.0
1,2591,A4,129.458,0.25,127,90.0
1,2592,D2,129.458,0.25,127,90.0
1,2593,F#2,129.458,0.25,127,90.0
1,2594,C#3,129.5,0.25,120,90.0
1,2595,G#3,129.526,91/1000,127,90.0
1,2596,A4,129.708,0.25,127,90.0
1,2597,C#3,129.75,0.25,120,90.0
1,2598,G#3,129.76,99/1000,127,90.0
1,2599,A4,129.958,0.25,127,90.0
1,2600,F#2,129.958,0.25,127,90.0
1,2601,C#3,130.0,0.25,120,90.0
1,2602,G#3,130.047,299/1000,127,90.0
1,2603,A4,130.208,0.25,127,90.0
1,2604,C2,130.208,0.25,127,90.0
1,2605,C#3,130.25,0.25,120,90.0
1,2606,A4,130.458,1/100,127,90.0
1,2607,F#2,130.458,1/100,127,90.0
1,2608,C#3,130.5,0.25,120,90.0
1,2609,G#3,130.536,14/125,127,90.0
1,2610,A4,130.708,6/25,127,90.0
1,2611,F#2,130.708,6/25,127,90.0
1,2612,C#3,130.75,0.25,120,90.0
1,2613,G#3,130.789,323/1000,127,90.0
1,2614,A4,130.948,0.25,127,90.0
1,2615,C#3,131.0,0.25,120,90.0
1,2616,F#4,131.0,0.25,127,90.0
1,2617,F#3,131.0,0.25,127,90.0
1,2618,A4,131.198,0.25,127,90.0
1,2619,C2,131.198,0.25,127,90.0
1,2620,F#2,131.198,0.25,127,90.0
1,2621,C#3,131.25,0.25,120,90.0
1,2622,G#3,131.271,27/200,127,90.0
1,2623,A4,131.448,0.25,127,90.0
1,2624,C#3,131.5,0.25,120,90.0
1,2625,G#3,131.534,107/1000,127,90.0
1,2626,A4,131.698,0.25,127,90.0
1,2627,D2,131.698,0.25,127,90.0
1,2628,F#2,131.698,0.25,127,90.0
1,2629,E2,131.75,0.25,120,90.0
1,2630,G#4,131.75,0.25,120,90.0
1,2631,C#3,131.75,0.25,120,90.0
1,2632,G#5,131.75,0.25,100,90.0
1,2633,C#5,131.75,0.25,100,90.0
1,2634,G#3,131.75,0.25,100,90.0
1,2635,G#4,131.75,0.25,100,90.0
1,2636,G#3,131.75,0.25,100,90.0
1,2637,G#4,131.75,0.25,100,90.0
1,2638,G#3,131.781,0.094,127,90.0
1,2639,A4,131.948,0.25,127,90.0
1,2640,E2,132.0,0.25,120,90.0
1,2641,C#3,132.0,0.25,120,90.0
1,2642,G#5,132.0,83/1000,100,90.0
1,2643,C#5,132.0,83/1000,100,90.0
1,2644,G#3,132.0,83/1000,100,90.0
1,2645,G#4,132.0,83/1000,100,90.0
1,2646,G#3,132.0,83/1000,100,90.0
1,2647,G#4,132.0,83/1000,100,90.0
1,2648,G#3,132.042,163/500,127,90.0
1,2649,A4,132.198,0.25,127,90.0
1,2650,F#2,132.198,0.25,127,90.0
1,2651,C#3,132.25,0.25,120,90.0
1,2652,A4,132.448,0.25,127,90.0
1,2653,C2,132.448,0.25,127,90.0
1,2654,E-2,132.5,0.5,120,90.0
1,2655,A4,132.5,0.25,120,90.0
1,2656,C#3,132.5,0.25,120,90.0
1,2657,C#5,132.5,333/1000,100,90.0
1,2658,A5,132.5,333/1000,100,90.0
1,2659,A4,132.5,333/1000,100,90.0
1,2660,A3,132.5,333/1000,100,90.0
1,2661,A4,132.5,333/1000,100,90.0
1,2662,A3,132.5,333/1000,100,90.0
1,2663,G#3,132.552,0.102,127,90.0
1,2664,A4,132.698,0.25,127,90.0
1,2665,F#2,132.698,0.25,127,90.0
1,2666,C#3,132.75,0.25,120,90.0
1,2667,G#3,132.807,151/500,127,90.0
1,2668,A4,132.948,0.25,127,90.0
1,2669,C#3,133.0,0.25,120,90.0
1,2670,F#4,133.0,0.25,127,90.0
1,2671,F#3,133.0,0.25,127,90.0
1,2672,A4,133.198,0.25,127,90.0
1,2673,C2,133.198,0.25,127,90.0
1,2674,F#2,133.198,0.25,127,90.0
1,2675,C#3,133.25,0.25,120,90.0
1,2676,G#3,133.286,99/1000,127,90.0
1,2677,A4,133.448,0.25,127,90.0
1,2678,C#3,133.5,0.25,120,90.0
1,2679,G#3,133.56,83/1000,127,90.0
1,2680,A4,133.698,0.25,127,90.0
1,2681,D2,133.698,0.25,127,90.0
1,2682,F#2,133.698,0.25,127,90.0
1,2683,F#2,133.75,0.5,120,90.0
1,2684,F#4,133.75,0.25,120,90.0
1,2685,C#3,133.75,0.25,120,90.0
1,2686,C#5,133.75,333/1000,100,90.0
1,2687,F#5,133.75,333/1000,100,90.0
1,2688,F#4,133.75,333/1000,100,90.0
1,2689,F#3,133.75,333/1000,100,90.0
1,2690,F#4,133.75,333/1000,100,90.0
1,2691,F#3,133.75,333/1000,100,90.0
1,2692,G#3,133.797,0.094,127,90.0
1,2693,A4,133.948,0.25,127,90.0
1,2694,C#3,134.0,0.25,120,90.0
1,2695,G#3,134.052,189/500,127,90.0
1,2696,A4,134.198,0.25,127,90.0
1,2697,F#2,134.198,0.25,127,90.0
1,2698,C#3,134.25,0.25,120,90.0
1,2699,A4,134.448,0.25,127,90.0
1,2700,C2,134.448,0.25,127,90.0
1,2701,E2,134.5,0.5,120,90.0
1,2702,G#4,134.5,0.25,120,90.0
1,2703,C#3,134.5,0.25,120,90.0
1,2704,C#5,134.5,333/1000,100,90.0
1,2705,G#5,134.5,333/1000,100,90.0
1,2706,G#3,134.5,333/1000,100,90.0
1,2707,G#4,134.5,333/1000,100,90.0
1,2708,G#3,134.5,333/1000,100,90.0
1,2709,G#4,134.5,333/1000,100,90.0
1,2710,A4,134.698,1/100,127,90.0
1,2711,F#2,134.698,1/100,127,90.0
1,2712,G#3,134.747,99/1000,127,90.0
1,2713,C#3,134.75,0.25,120,90.0
1,2714,A4,134.948,6/25,127,90.0
1,2715,F#2,134.948,6/25,127,90.0
1,2716,C#3,135.0,0.25,120,90.0
1,2717,F#4,135.0,0.25,127,90.0
1,2718,F#3,135.0,0.25,127,90.0
1,2719,G#3,135.026,13/125,127,90.0
1,2720,A4,135.188,0.25,127,90.0
1,2721,C#3,135.25,0.25,120,90.0
1,2722,G#3,135.268,0.102,127,90.0
1,2723,A4,135.438,0.25,127,90.0
1,2724,C2,135.438,0.25,127,90.0
1,2725,F#2,135.438,0.25,127,90.0
1,2726,C#3,135.5,0.25,120,90.0
1,2727,G#3,135.526,0.102,127,90.0
1,2728,A4,135.688,0.25,127,90.0
1,2729,B1,135.75,0.25,120,90.0
1,2730,A4,135.75,0.25,120,90.0
1,2731,C#3,135.75,0.25,120,90.0
1,2732,A5,135.75,0.25,100,90.0
1,2733,C#5,135.75,0.25,100,90.0
1,2734,A3,135.75,0.25,100,90.0
1,2735,A4,135.75,0.25,100,90.0
1,2736,A3,135.75,0.25,100,90.0
1,2737,A4,135.75,0.25,100,90.0
1,2738,G#3,135.779,0.086,127,90.0
1,2739,A4,135.938,0.25,127,90.0
1,2740,D2,135.938,0.25,127,90.0
1,2741,F#2,135.938,0.25,127,90.0
1,2742,B1,136.0,0.25,120,90.0
1,2743,A4,136.0,0.25,120,90.0
1,2744,C#3,136.0,0.25,120,90.0
1,2745,A5,136.0,83/1000,100,90.0
1,2746,C#5,136.0,83/1000,100,90.0
1,2747,A3,136.0,83/1000,100,90.0
1,2748,A4,136.0,83/1000,100,90.0
1,2749,A3,136.0,83/1000,100,90.0
1,2750,A4,136.0,83/1000,100,90.0
1,2751,G#3,136.039,0.195,127,90.0
1,2752,A4,136.188,0.25,127,90.0
1,2753,C#3,136.25,0.25,120,90.0
1,2754,A4,136.438,0.25,127,90.0
1,2755,F#2,136.438,0.25,127,90.0
1,2756,G#3,136.5,83/1000,127,90.0
1,2757,C#2,136.5,0.5,120,90.0
1,2758,G#4,136.5,0.25,120,90.0
1,2759,C#3,136.5,0.25,120,90.0
1,2760,C#5,136.5,333/1000,100,90.0
1,2761,G#5,136.5,333/1000,100,90.0
1,2762,G#3,136.5,333/1000,100,90.0
1,2763,G#4,136.5,333/1000,100,90.0
1,2764,G#3,136.5,333/1000,100,90.0
1,2765,G#4,136.5,333/1000,100,90.0
1,2766,A4,136.688,0.25,127,90.0
1,2767,C2,136.688,0.25,127,90.0
1,2768,G#3,136.75,0.102,127,90.0
1,2769,C#3,136.75,0.25,120,90.0
1,2770,A4,136.938,0.25,127,90.0
1,2771,F#2,136.938,0.25,127,90.0
1,2772,C#3,137.0,0.25,120,90.0
1,2773,F#4,137.0,0.25,127,90.0
1,2774,F#3,137.0,0.25,127,90.0
1,2775,G#3,137.013,3/25,127,90.0
1,2776,A4,137.188,0.25,127,90.0
1,2777,C#3,137.25,0.25,120,90.0
1,2778,G#3,137.268,99/1000,127,90.0
1,2779,A4,137.438,0.25,127,90.0
1,2780,C2,137.438,0.25,127,90.0
1,2781,F#2,137.438,0.25,127,90.0
1,2782,C#3,137.5,0.25,120,90.0
1,2783,G#3,137.518,99/1000,127,90.0
1,2784,A4,137.688,0.25,127,90.0
1,2785,C#3,137.75,0.25,120,90.0
1,2786,G#3,137.779,0.109,127,90.0
1,2787,A4,137.938,0.25,127,90.0
1,2788,D2,137.938,0.25,127,90.0
1,2789,F#2,137.938,0.25,127,90.0
1,2790,C#3,138.0,0.25,120,90.0
1,2791,G#3,138.049,159/500,127,90.0
1,2792,A4,138.188,0.25,127,90.0
1,2793,C#3,138.25,0.25,120,90.0
1,2794,A4,138.438,0.25,127,90.0
1,2795,F#2,138.438,0.25,127,90.0
1,2796,C#3,138.5,0.25,120,90.0
1,2797,G#3,138.523,0.125,127,90.0
1,2798,A4,138.688,0.25,127,90.0
1,2799,C2,138.688,0.25,127,90.0
1,2800,C#3,138.75,0.25,120,90.0
1,2801,G#3,138.799,71/250,127,90.0
1,2802,A4,138.938,1/100,127,90.0
1,2803,F#2,138.938,1/100,127,90.0
1,2804,C#3,139.0,0.25,120,90.0
1,2805,F#4,139.0,0.25,127,90.0
1,2806,F#3,139.0,0.25,127,90.0
1,2807,A4,139.188,6/25,127,90.0
1,2808,F#2,139.188,6/25,127,90.0
1,2809,G#3,139.245,99/1000,127,90.0
1,2810,C#3,139.25,0.25,120,90.0
1,2811,A4,139.427,0.25,127,90.0
1,2812,C#3,139.5,0.25,120,90.0
1,2813,G#3,139.518,99/1000,127,90.0
1,2814,A4,139.677,0.25,127,90.0
1,2815,C2,139.677,0.25,127,90.0
1,2816,F#2,139.677,0.25,127,90.0
1,2817,E2,139.75,0.25,120,90.0
1,2818,G#4,139.75,0.25,120,90.0
1,2819,C#3,139.75,0.25,120,90.0
1,2820,G#5,139.75,0.25,100,90.0
1,2821,C#5,139.75,0.25,100,90.0
1,2822,G#3,139.75,0.25,100,90.0
1,2823,G#4,139.75,0.25,100,90.0
1,2824,G#3,139.75,0.25,100,90.0
1,2825,G#4,139.75,0.25,100,90.0
1,2826,G#3,139.771,0.094,127,90.0
1,2827,A4,139.927,0.25,127,90.0
1,2828,E2,140.0,0.25,120,90.0
1,2829,C#3,140.0,0.25,120,90.0
1,2830,G#5,140.0,83/1000,100,90.0
1,2831,C#5,140.0,83/1000,100,90.0
1,2832,G#3,140.0,83/1000,100,90.0
1,2833,G#4,140.0,83/1000,100,90.0
1,2834,G#3,140.0,83/1000,100,90.0
1,2835,G#4,140.0,83/1000,100,90.0
1,2836,G#3,140.031,163/500,127,90.0
1,2837,A4,140.177,0.25,127,90.0
1,2838,D2,140.177,0.25,127,90.0
1,2839,F#2,140.177,0.25,127,90.0
1,2840,C#3,140.25,0.25,120,90.0
1,2841,A4,140.427,0.25,127,90.0
1,2842,E-2,140.5,0.5,120,90.0
1,2843,A4,140.5,0.25,120,90.0
1,2844,C#3,140.5,0.25,120,90.0
1,2845,C#5,140.5,333/1000,100,90.0
1,2846,A5,140.5,333/1000,100,90.0
1,2847,A4,140.5,333/1000,100,90.0
1,2848,A3,140.5,333/1000,100,90.0
1,2849,A4,140.5,333/1000,100,90.0
1,2850,A3,140.5,333/1000,100,90.0
1,2851,G#3,140.536,91/1000,127,90.0
1,2852,A4,140.677,0.25,127,90.0
1,2853,F#2,140.677,0.25,127,90.0
1,2854,C#3,140.75,0.25,120,90.0
1,2855,G#3,140.799,307/1000,127,90.0
1,2856,A4,140.927,0.25,127,90.0
1,2857,C2,140.927,0.25,127,90.0
1,2858,C#3,141.0,0.25,120,90.0
1,2859,F#3,141.0,0.25,127,90.0
1,2860,F#4,141.0,0.25,127,90.0
1,2861,A4,141.177,0.25,127,90.0
1,2862,F#2,141.177,0.25,127,90.0
1,2863,C#3,141.25,0.25,120,90.0
1,2864,G#3,141.315,107/1000,127,90.0
1,2865,A4,141.427,0.25,127,90.0
1,2866,C#3,141.5,0.25,120,90.0
1,2867,G#3,141.56,107/1000,127,90.0
1,2868,A4,141.677,0.25,127,90.0
1,2869,C2,141.677,0.25,127,90.0
1,2870,F#2,141.677,0.25,127,90.0
1,2871,F#2,141.75,0.5,120,90.0
1,2872,F#4,141.75,0.25,120,90.0
1,2873,C#3,141.75,0.25,120,90.0
1,2874,F#5,141.75,333/1000,100,90.0
1,2875,C#5,141.75,333/1000,100,90.0
1,2876,F#3,141.75,333/1000,100,90.0
1,2877,F#4,141.75,333/1000,100,90.0
1,2878,F#3,141.75,333/1000,100,90.0
1,2879,F#4,141.75,333/1000,100,90.0
1,2880,G#3,141.799,12/125,127,90.0
1,2881,A4,141.927,0.25,127,90.0
1,2882,C#3,142.0,0.25,120,90.0
1,2883,G#3,142.039,0.297,127,90.0
1,2884,A4,142.177,0.25,127,90.0
1,2885,D2,142.177,0.25,127,90.0
1,2886,F#2,142.177,0.25,127,90.0
1,2887,C#3,142.25,0.25,120,90.0
1,2888,A4,142.427,0.25,127,90.0
1,2889,E2,142.5,0.5,120,90.0
1,2890,G#4,142.5,0.25,120,90.0
1,2891,C#3,142.5,0.25,120,90.0
1,2892,G#5,142.5,333/1000,100,90.0
1,2893,C#5,142.5,333/1000,100,90.0
1,2894,G#3,142.5,333/1000,100,90.0
1,2895,G#4,142.5,333/1000,100,90.0
1,2896,G#3,142.5,333/1000,100,90.0
1,2897,G#4,142.5,333/1000,100,90.0
1,2898,A4,142.677,0.25,127,90.0
1,2899,F#2,142.677,0.25,127,90.0
1,2900,C#3,142.75,0.25,120,90.0
1,2901,G#3,142.792,12/125,127,90.0
1,2902,A4,142.927,0.25,127,90.0
1,2903,C2,142.927,0.25,127,90.0
1,2904,C#3,143.0,0.25,120,90.0
1,2905,F#4,143.0,0.25,127,90.0
1,2906,F#3,143.0,0.25,127,90.0
1,2907,G#3,143.039,14/125,127,90.0
1,2908,A4,143.177,1/100,127,90.0
1,2909,F#2,143.177,1/100,127,90.0
1,2910,C#3,143.25,0.25,120,90.0
1,2911,G#3,143.289,107/1000,127,90.0
1,2912,A4,143.427,6/25,127,90.0
1,2913,F#2,143.427,6/25,127,90.0
1,2914,C#3,143.5,0.25,120,90.0
1,2915,G#3,143.542,13/125,127,90.0
1,2916,A4,143.667,0.25,127,90.0
1,2917,B1,143.75,0.25,120,90.0
1,2918,A4,143.75,0.25,120,90.0
1,2919,C#3,143.75,0.25,120,90.0
1,2920,C#5,143.75,0.25,100,90.0
1,2921,A5,143.75,0.25,100,90.0
1,2922,A3,143.75,0.25,100,90.0
1,2923,A4,143.75,0.25,100,90.0
1,2924,A3,143.75,0.25,100,90.0
1,2925,A4,143.75,0.25,100,90.0
1,2926,G#3,143.792,0.102,127,90.0
1,2927,A4,143.917,0.25,127,90.0
1,2928,C2,143.917,0.25,127,90.0
1,2929,F#2,143.917,0.25,127,90.0
1,2930,B1,144.0,0.25,120,90.0
1,2931,C#3,144.0,0.25,120,90.0
1,2932,C#5,144.0,83/1000,100,90.0
1,2933,A5,144.0,83/1000,100,90.0
1,2934,A3,144.0,83/1000,100,90.0
1,2935,A4,144.0,83/1000,100,90.0
1,2936,A3,144.0,83/1000,100,90.0
1,2937,A4,144.0,83/1000,100,90.0
1,2938,G#3,144.047,159/500,127,90.0
1,2939,A4,144.167,0.25,127,90.0
1,2940,C#3,144.25,0.25,120,90.0
1,2941,A4,144.417,0.25,127,90.0
1,2942,D2,144.417,0.25,127,90.0
1,2943,F#2,144.417,0.25,127,90.0
1,2944,C#2,144.5,0.5,120,90.0
1,2945,G#4,144.5,0.25,120,90.0
1,2946,C#3,144.5,0.25,120,90.0
1,2947,C#5,144.5,333/1000,100,90.0
1,2948,G#5,144.5,333/1000,100,90.0
1,2949,G#3,144.5,333/1000,100,90.0
1,2950,G#4,144.5,333/1000,100,90.0
1,2951,G#3,144.5,333/1000,100,90.0
1,2952,G#4,144.5,333/1000,100,90.0
1,2953,A4,144.667,0.25,127,90.0
1,2954,C#3,144.75,0.25,120,90.0
1,2955,A4,144.917,0.25,127,90.0
1,2956,F#2,144.917,0.25,127,90.0
1,2957,G#3,144.987,99/1000,127,90.0
1,2958,C#3,145.0,0.25,120,90.0
1,2959,F#4,145.0,0.25,127,90.0
1,2960,F#3,145.0,0.25,127,90.0
1,2961,A4,145.167,0.25,127,90.0
1,2962,C2,145.167,0.25,127,90.0
1,2963,G#3,145.234,99/1000,127,90.0
1,2964,C#3,145.25,0.25,120,90.0
1,2965,A4,145.417,0.25,127,90.0
1,2966,F#2,145.417,0.25,127,90.0
1,2967,C#3,145.5,0.25,120,90.0
1,2968,G#3,145.505,0.094,127,90.0
1,2969,A4,145.667,0.25,127,90.0
1,2970,C#3,145.75,0.25,120,90.0
1,2971,G#3,145.763,12/125,127,90.0
1,2972,A4,145.917,0.25,127,90.0
1,2973,C2,145.917,0.25,127,90.0
1,2974,F#2,145.917,0.25,127,90.0
1,2975,C#3,146.0,0.25,120,90.0
1,2976,G#3,146.026,349/1000,127,90.0
1,2977,A4,146.167,0.25,127,90.0
1,2978,C#3,146.25,0.25,120,90.0
1,2979,A4,146.417,0.25,127,90.0
1,2980,D2,146.417,0.25,127,90.0
1,2981,F#2,146.417,0.25,127,90.0
1,2982,C#3,146.5,0.25,120,90.0
1,2983,G#3,146.529,0.125,127,90.0
1,2984,A4,146.667,0.25,127,90.0
1,2985,C#3,146.75,0.25,120,90.0
1,2986,G#3,146.789,0.32,127,90.0
1,2987,A4,146.917,0.25,127,90.0
1,2988,F#2,146.917,0.25,127,90.0
1,2989,C#3,147.0,0.25,120,90.0
1,2990,F#4,147.0,0.25,127,90.0
1,2991,F#3,147.0,0.25,127,90.0
1,2992,A4,147.167,0.25,127,90.0
1,2993,C2,147.167,0.25,127,90.0
1,2994,C#3,147.25,0.25,120,90.0
1,2995,G#3,147.273,0.117,127,90.0
1,2996,A4,147.417,1/100,127,90.0
1,2997,F#2,147.417,1/100,127,90.0
1,2998,C#3,147.5,0.25,120,90.0
1,2999,G#3,147.544,23/200,127,90.0
1,3000,A4,147.667,6/25,127,90.0
1,3001,F#2,147.667,6/25,127,90.0
1,3002,E2,147.75,0.25,120,90.0
1,3003,G#4,147.75,0.25,120,90.0
1,3004,C#3,147.75,0.25,120,90.0
1,3005,G#5,147.75,0.25,100,90.0
1,3006,C#5,147.75,0.25,100,90.0
1,3007,G#4,147.75,0.25,100,90.0
1,3008,G#3,147.75,0.25,100,90.0
1,3009,G#4,147.75,0.25,100,90.0
1,3010,G#3,147.75,0.25,100,90.0
1,3011,G#3,147.794,13/125,127,90.0
1,3012,A4,147.906,0.25,127,90.0
1,3013,E2,148.0,0.25,120,90.0
1,3014,C#3,148.0,0.25,120,90.0
1,3015,G#5,148.0,83/1000,100,90.0
1,3016,C#5,148.0,83/1000,100,90.0
1,3017,G#4,148.0,83/1000,100,90.0
1,3018,G#3,148.0,83/1000,100,90.0
1,3019,G#4,148.0,83/1000,100,90.0
1,3020,G#3,148.0,83/1000,100,90.0
1,3021,G#3,148.049,181/500,127,90.0
1,3022,A4,148.156,0.25,127,90.0
1,3023,C2,148.156,0.25,127,90.0
1,3024,F#2,148.156,0.25,127,90.0
1,3025,C#3,148.25,0.25,120,90.0
1,3026,A4,148.406,0.25,127,90.0
1,3027,E-2,148.5,0.5,120,90.0
1,3028,A4,148.5,0.25,120,90.0
1,3029,C#3,148.5,0.25,120,90.0
1,3030,A5,148.5,333/1000,100,90.0
1,3031,C#5,148.5,333/1000,100,90.0
1,3032,A4,148.5,333/1000,100,90.0
1,3033,A3,148.5,333/1000,100,90.0
1,3034,A4,148.5,333/1000,100,90.0
1,3035,A3,148.5,333/1000,100,90.0
1,3036,G#3,148.578,0.094,127,90.0
1,3037,A4,148.656,0.25,127,90.0
1,3038,D2,148.656,0.25,127,90.0
1,3039,F#2,148.656,0.25,127,90.0
1,3040,C#3,148.75,0.25,120,90.0
1,3041,G#3,148.836,0.305,127,90.0
1,3042,A4,148.906,0.25,127,90.0
1,3043,C#3,149.0,0.25,120,90.0
1,3044,F#4,149.0,0.25,127,90.0
1,3045,F#3,149.0,0.25,127,90.0
1,3046,A4,149.156,0.25,127,90.0
1,3047,F#2,149.156,0.25,127,90.0
1,3048,C#3,149.25,0.25,120,90.0
1,3049,G#3,149.336,12/125,127,90.0
1,3050,A4,149.406,0.25,127,90.0
1,3051,C2,149.406,0.25,127,90.0
1,3052,C#3,149.5,0.25,120,90.0
1,3053,G#3,149.578,0.102,127,90.0
1,3054,A4,149.656,0.25,127,90.0
1,3055,F#2,149.656,0.25,127,90.0
1,3056,F#2,149.75,0.5,120,90.0
1,3057,F#4,149.75,0.25,120,90.0
1,3058,C#3,149.75,0.25,120,90.0
1,3059,C#5,149.75,333/1000,100,90.0
1,3060,F#5,149.75,333/1000,100,90.0
1,3061,F#3,149.75,333/1000,100,90.0
1,3062,F#4,149.75,333/1000,100,90.0
1,3063,F#3,149.75,333/1000,100,90.0
1,3064,F#4,149.75,333/1000,100,90.0
1,3065,G#3,149.815,0.102,127,90.0
1,3066,A4,149.906,0.25,127,90.0
1,3067,C#3,150.0,0.25,120,90.0
1,3068,G#3,150.068,189/500,127,90.0
1,3069,A4,150.156,0.25,127,90.0
1,3070,C2,150.156,0.25,127,90.0
1,3071,F#2,150.156,0.25,127,90.0
1,3072,C#3,150.25,0.25,120,90.0
1,3073,A4,150.406,0.25,127,90.0
1,3074,E2,150.5,0.5,120,90.0
1,3075,G#4,150.5,0.25,120,90.0
1,3076,C#3,150.5,0.25,120,90.0
1,3077,C#5,150.5,333/1000,100,90.0
1,3078,G#5,150.5,333/1000,100,90.0
1,3079,G#3,150.5,333/1000,100,90.0
1,3080,G#4,150.5,333/1000,100,90.0
1,3081,G#3,150.5,333/1000,100,90.0
1,3082,G#4,150.5,333/1000,100,90.0
1,3083,A4,150.656,0.25,127,90.0
1,3084,D2,150.656,0.25,127,90.0
1,3085,F#2,150.656,0.25,127,90.0
1,3086,C#3,150.75,0.25,120,90.0
1,3087,G#3,150.799,107/1000,127,90.0
1,3088,A4,150.906,0.25,127,90.0
1,3089,C#3,151.0,0.25,120,90.0
1,3090,F#4,151.0,0.25,127,90.0
1,3091,F#3,151.0,0.25,127,90.0
1,3092,G#3,151.049,12/125,127,90.0
1,3093,A4,151.156,0.25,127,90.0
1,3094,F#2,151.156,0.25,127,90.0
1,3095,C#3,151.25,0.25,120,90.0
1,3096,G#3,151.302,0.094,127,90.0
1,3097,A4,151.406,0.25,127,90.0
1,3098,C2,151.406,0.25,127,90.0
1,3099,C#3,151.5,0.25,120,90.0
1,3100,G#3,151.542,99/1000,127,90.0
1,3101,A4,151.656,1/100,127,90.0
1,3102,F#2,151.656,1/100,127,90.0
1,3103,B1,151.75,0.25,120,90.0
1,3104,A4,151.75,0.25,120,90.0
1,3105,C#3,151.75,0.25,120,90.0
1,3106,C#5,151.75,0.25,100,90.0
1,3107,A5,151.75,0.25,100,90.0
1,3108,A3,151.75,0.25,100,90.0
1,3109,A4,151.75,0.25,100,90.0
1,3110,A3,151.75,0.25,100,90.0
1,3111,A4,151.75,0.25,100,90.0
1,3112,G#3,151.781,12/125,127,90.0
1,3113,A4,151.906,6/25,127,90.0
1,3114,F#2,151.906,6/25,127,90.0
1,3115,B1,152.0,0.25,120,90.0
1,3116,C#3,152.0,0.25,120,90.0
1,3117,C#5,152.0,83/1000,100,90.0
1,3118,A5,152.0,83/1000,100,90.0
1,3119,A3,152.0,83/1000,100,90.0
1,3120,A4,152.0,83/1000,100,90.0
1,3121,A3,152.0,83/1000,100,90.0
1,3122,A4,152.0,83/1000,100,90.0
1,3123,G#3,152.034,229/1000,127,90.0
1,3124,A4,152.146,0.25,127,90.0
1,3125,C#3,152.25,0.25,120,90.0
1,3126,A4,152.396,0.25,127,90.0
1,3127,C2,152.396,0.25,127,90.0
1,3128,F#2,152.396,0.25,127,90.0
1,3129,C#2,152.5,0.5,120,90.0
1,3130,G#4,152.5,0.25,120,90.0
1,3131,C#3,152.5,0.25,120,90.0
1,3132,G#5,152.5,333/1000,100,90.0
1,3133,C#5,152.5,333/1000,100,90.0
1,3134,G#3,152.5,333/1000,100,90.0
1,3135,G#4,152.5,333/1000,100,90.0
1,3136,G#3,152.5,333/1000,100,90.0
1,3137,G#4,152.5,333/1000,100,90.0
1,3138,G#3,152.557,13/125,127,90.0
1,3139,A4,152.646,0.25,127,90.0
1,3140,C#3,152.75,0.25,120,90.0
1,3141,G#3,152.802,12/125,127,90.0
1,3142,A4,152.896,0.25,127,90.0
1,3143,D2,152.896,0.25,127,90.0
1,3144,F#2,152.896,0.25,127,90.0
1,3145,C#3,153.0,0.25,120,90.0
1,3146,F#4,153.0,0.25,127,90.0
1,3147,F#3,153.0,0.25,127,90.0
1,3148,G#3,153.036,0.094,127,90.0
1,3149,A4,153.146,0.25,127,90.0
1,3150,C#3,153.25,0.25,120,90.0
1,3151,G#3,153.268,12/125,127,90.0
1,3152,A4,153.396,0.25,127,90.0
1,3153,F#2,153.396,0.25,127,90.0
1,3154,C#3,153.5,0.25,120,90.0
1,3155,G#3,153.534,13/125,127,90.0
1,3156,A4,153.646,0.25,127,90.0
1,3157,C2,153.646,0.25,127,90.0
1,3158,C#3,153.75,0.25,120,90.0
1,3159,G#3,153.792,99/1000,127,90.0
1,3160,A4,153.896,0.25,127,90.0
1,3161,F#2,153.896,0.25,127,90.0
1,3162,C#3,154.0,0.25,120,90.0
1,3163,G#3,154.055,73/250,127,90.0
1,3164,A4,154.146,0.25,127,90.0
1,3165,C#3,154.25,0.25,120,90.0
1,3166,A4,154.396,0.25,127,90.0
1,3167,C2,154.396,0.25,127,90.0
1,3168,F#2,154.396,0.25,127,90.0
1,3169,C#3,154.5,0.25,120,90.0
1,3170,G#3,154.529,23/200,127,90.0
1,3171,A4,154.646,0.25,127,90.0
1,3172,C#3,154.75,0.25,120,90.0
1,3173,G#3,154.805,73/250,127,90.0
1,3174,A4,154.896,0.25,127,90.0
1,3175,D2,154.896,0.25,127,90.0
1,3176,F#2,154.896,0.25,127,90.0
1,3177,C#3,155.0,0.25,120,90.0
1,3178,F#4,155.0,0.25,127,90.0
1,3179,F#3,155.0,0.25,127,90.0
1,3180,A4,155.146,0.25,127,90.0
1,3181,C#3,155.25,0.25,120,90.0
1,3182,G#3,155.271,16/125,127,90.0
1,3183,A4,155.396,0.25,127,90.0
1,3184,F#2,155.396,0.25,127,90.0
1,3185,C#3,155.5,0.25,120,90.0
1,3186,G#3,155.544,14/125,127,90.0
1,3187,A4,155.646,0.25,127,90.0
1,3188,C2,155.646,0.25,127,90.0
1,3189,E2,155.75,0.25,120,90.0
1,3190,G#4,155.75,0.25,120,90.0
1,3191,C#3,155.75,0.25,120,90.0
1,3192,C#5,155.75,0.25,100,90.0
1,3193,G#5,155.75,0.25,100,90.0
1,3194,G#4,155.75,0.25,100,90.0
1,3195,G#3,155.75,0.25,100,90.0
1,3196,G#4,155.75,0.25,100,90.0
1,3197,G#3,155.75,0.25,100,90.0
1,3198,G#3,155.81,107/1000,127,90.0
1,3199,A4,155.896,1/100,127,90.0
1,3200,F#2,155.896,1/100,127,90.0
1,3201,E2,156.0,0.25,120,90.0
1,3202,C#3,156.0,0.25,120,90.0
1,3203,C#5,156.0,83/1000,100,90.0
1,3204,G#5,156.0,83/1000,100,90.0
1,3205,G#4,156.0,83/1000,100,90.0
1,3206,G#3,156.0,83/1000,100,90.0
1,3207,G#4,156.0,83/1000,100,90.0
1,3208,G#3,156.0,83/1000,100,90.0
1,3209,G#3,156.052,63/200,127,90.0
1,3210,A4,156.146,6/25,127,90.0
1,3211,F#2,156.146,6/25,127,90.0
1,3212,C#3,156.25,0.25,120,90.0
1,3213,A4,156.385,0.25,127,90.0
1,3214,E-2,156.5,0.5,120,90.0
1,3215,A4,156.5,0.25,120,90.0
1,3216,C#3,156.5,0.25,120,90.0
1,3217,A5,156.5,333/1000,100,90.0
1,3218,C#5,156.5,333/1000,100,90.0
1,3219,A3,156.5,333/1000,100,90.0
1,3220,A4,156.5,333/1000,100,90.0
1,3221,A3,156.5,333/1000,100,90.0
1,3222,A4,156.5,333/1000,100,90.0
1,3223,G#3,156.562,99/1000,127,90.0
1,3224,A4,156.635,0.25,127,90.0
1,3225,C2,156.635,0.25,127,90.0
1,3226,F#2,156.635,0.25,127,90.0
1,3227,C#3,156.75,0.25,120,90.0
1,3228,G#3,156.812,163/500,127,90.0
1,3229,A4,156.885,0.25,127,90.0
1,3230,C#3,157.0,0.25,120,90.0
1,3231,F#4,157.0,0.25,127,90.0
1,3232,F#3,157.0,0.25,127,90.0
1,3233,A4,157.135,0.25,127,90.0
1,3234,D2,157.135,0.25,127,90.0
1,3235,F#2,157.135,0.25,127,90.0
1,3236,C#3,157.25,0.25,120,90.0
1,3237,G#3,157.294,0.094,127,90.0
1,3238,A4,157.385,0.25,127,90.0
1,3239,C#3,157.5,0.25,120,90.0
1,3240,G#3,157.547,61/500,127,90.0
1,3241,A4,157.635,0.25,127,90.0
1,3242,F#2,157.635,0.25,127,90.0
1,3243,F#2,157.75,0.5,120,90.0
1,3244,F#4,157.75,0.25,120,90.0
1,3245,C#3,157.75,0.25,120,90.0
1,3246,C#5,157.75,333/1000,100,90.0
1,3247,F#5,157.75,333/1000,100,90.0
1,3248,F#3,157.75,333/1000,100,90.0
1,3249,F#4,157.75,333/1000,100,90.0
1,3250,F#3,157.75,333/1000,100,90.0
1,3251,F#4,157.75,333/1000,100,90.0
1,3252,G#3,157.797,13/125,127,90.0
1,3253,A4,157.885,0.25,127,90.0
1,3254,C2,157.885,0.25,127,90.0
1,3255,C#3,158.0,0.25,120,90.0
1,3256,G#3,158.029,0.312,127,90.0
1,3257,A4,158.135,0.25,127,90.0
1,3258,F#2,158.135,0.25,127,90.0
1,3259,C#3,158.25,0.25,120,90.0
1,3260,A4,158.385,0.25,127,90.0
1,3261,E2,158.5,0.5,120,90.0
1,3262,G#4,158.5,0.25,120,90.0
1,3263,C#3,158.5,0.25,120,90.0
1,3264,G#5,158.5,333/1000,100,90.0
1,3265,C#5,158.5,333/1000,100,90.0
1,3266,G#3,158.5,333/1000,100,90.0
1,3267,G#4,158.5,333/1000,100,90.0
1,3268,G#3,158.5,333/1000,100,90.0
1,3269,G#4,158.5,333/1000,100,90.0
1,3270,A4,158.635,0.25,127,90.0
1,3271,C2,158.635,0.25,127,90.0
1,3272,F#2,158.635,0.25,127,90.0
1,3273,C#3,158.75,0.25,120,90.0
1,3274,A4,158.885,0.25,127,90.0
1,3275,C#3,159.0,0.25,120,90.0
1,3276,F#3,159.0,0.25,127,90.0
1,3277,F#4,159.0,0.25,127,90.0
1,3278,A4,159.135,0.25,127,90.0
1,3279,D2,159.135,0.25,127,90.0
1,3280,F#2,159.135,0.25,127,90.0
1,3281,C#3,159.25,0.25,120,90.0
1,3282,A4,159.385,0.25,127,90.0
1,3283,C#3,159.5,0.25,120,90.0
1,3284,A4,159.635,0.25,127,90.0
1,3285,F#2,159.635,0.25,127,90.0
1,3286,C#3,159.745,51/200,72,90.0
1,3287,C#4,159.745,51/200,72,90.0
1,3288,B2,159.75,0.25,115,90.0
1,3289,B1,159.75,0.25,120,90.0
1,3290,B3,159.75,0.25,120,90.0
1,3291,C#3,159.75,0.25,120,90.0
1,3292,B2,159.75,0.25,50,90.0
1,3293,A4,159.75,0.25,50,90.0
1,3294,A3,159.75,0.25,50,90.0
1,3295,B3,159.75,0.25,50,90.0
1,3296,B3,159.75,0.25,100,90.0
1,3297,A4,159.75,0.25,100,90.0
1,3298,A3,159.75,0.25,100,90.0
1,3299,B2,159.75,0.25,100,90.0
1,3300,C#2,159.857,143/1000,75,90.0
1,3301,A4,159.885,0.25,127,90.0
1,3302,C2,159.885,0.25,127,90.0
1,3303,B2,160.0,83/1000,115,90.0
1,3304,B1,160.0,0.25,120,90.0
1,3305,C#3,160.0,0.25,120,90.0
1,3306,C#2,160.0,4.0,75,90.0
1,3307,B2,160.0,83/1000,50,90.0
1,3308,A4,160.0,83/1000,50,90.0
1,3309,A3,160.0,83/1000,50,90.0
1,3310,B3,160.0,83/1000,50,90.0
1,3311,B3,160.0,83/1000,100,90.0
1,3312,A4,160.0,83/1000,100,90.0
1,3313,A3,160.0,83/1000,100,90.0
1,3314,B2,160.0,83/1000,100,90.0
1,3315,C#3,160.0,1857/500,72,90.0
1,3316,C#4,160.0,1857/500,72,90.0
1,3317,C#3,160.026,1987/500,93,90.0
1,3318,A4,160.135,1/100,127,90.0
1,3319,F#2,160.135,1/100,127,90.0
1,3320,A4,160.385,6/25,127,90.0
1,3321,F#2,160.385,6/25,127,90.0
1,3322,G#3,160.484,307/1000,127,90.0
1,3323,C#3,160.5,333/1000,115,90.0
1,3324,C#2,160.5,0.5,120,90.0
1,3325,C#4,160.5,0.25,120,90.0
1,3326,C#3,160.5,0.5,120,90.0
1,3327,C#4,160.5,333/1000,50,90.0
1,3328,C#3,160.5,333/1000,50,90.0
1,3329,G#4,160.5,333/1000,50,90.0
1,3330,G#3,160.5,333/1000,50,90.0
1,3331,G#4,160.5,333/1000,100,90.0
1,3332,C#4,160.5,333/1000,100,90.0
1,3333,C#3,160.5,333/1000,100,90.0
1,3334,G#3,160.5,333/1000,100,90.0
1,3335,A4,160.625,0.25,127,90.0
1,3336,A4,160.875,0.25,127,90.0
1,3337,C2,160.875,0.25,127,90.0
1,3338,F#2,160.875,0.25,127,90.0
1,3339,F#3,161.0,0.25,127,90.0
1,3340,F#4,161.0,0.25,127,90.0
1,3341,C#3,161.044,0.211,127,90.0
1,3342,A4,161.125,0.25,127,90.0
1,3343,A4,161.375,0.25,127,90.0
1,3344,D2,161.375,0.25,127,90.0
1,3345,F#2,161.375,0.25,127,90.0
1,3346,G#3,161.497,0.258,127,90.0
1,3347,A4,161.625,0.25,127,90.0
1,3348,A4,161.875,0.25,127,90.0
1,3349,F#2,161.875,0.25,127,90.0
1,3350,C#3,162.01,49/200,127,90.0
1,3351,A4,162.125,0.25,127,90.0
1,3352,C2,162.125,0.25,127,90.0
1,3353,A4,162.375,0.25,127,90.0
1,3354,F#2,162.375,0.25,127,90.0
1,3355,C#3,162.505,69/250,127,90.0
1,3356,A4,162.625,0.25,127,90.0
1,3357,A4,162.875,0.25,127,90.0
1,3358,C2,162.875,0.25,127,90.0
1,3359,F#2,162.875,0.25,127,90.0
1,3360,C#3,162.977,401/1000,127,90.0
1,3361,F#4,163.0,0.25,127,90.0
1,3362,F#3,163.0,0.25,127,90.0
1,3363,A4,163.125,0.25,127,90.0
1,3364,A4,163.375,0.25,127,90.0
1,3365,D2,163.375,0.25,127,90.0
1,3366,F#2,163.375,0.25,127,90.0
1,3367,E3,163.487,37/200,127,90.0
1,3368,A4,163.625,0.25,127,90.0
1,3369,G#3,163.747,253/1000,127,90.0
1,3370,E2,163.75,0.25,120,90.0
1,3371,C#3,163.75,0.25,120,90.0
1,3372,G#3,163.75,0.25,100,90.0
1,3373,G#4,163.75,0.25,100,90.0
1,3374,E-3,163.758,0.242,82,90.0
1,3375,E-4,163.758,0.242,82,90.0
1,3376,A4,163.875,0.25,127,90.0
1,3377,F#2,163.875,0.25,127,90.0
1,3378,E-3,163.979,21/1000,89,90.0
1,3379,G#3,164.0,13/250,127,90.0
1,3380,E2,164.0,0.25,120,90.0
1,3381,C#3,164.0,0.25,120,90.0
1,3382,C#2,164.0,4.0,75,90.0
1,3383,E-3,164.0,4.0,89,90.0
1,3384,G#3,164.0,83/1000,100,90.0
1,3385,G#4,164.0,83/1000,100,90.0
1,3386,E-3,164.0,3.734,82,90.0
1,3387,E-4,164.0,3.734,82,90.0
1,3388,A4,164.125,0.25,127,90.0
1,3389,C2,164.125,0.25,127,90.0
1,3390,A4,164.375,1/100,127,90.0
1,3391,F#2,164.375,1/100,127,90.0
1,3392,G#3,164.5,299/1000,127,90.0
1,3393,E-2,164.5,0.5,120,90.0
1,3394,C#3,164.5,0.5,120,90.0
1,3395,A3,164.5,333/1000,100,90.0
1,3396,A4,164.5,333/1000,100,90.0
1,3397,A4,164.625,6/25,127,90.0
1,3398,F#2,164.625,6/25,127,90.0
1,3399,A4,164.865,0.25,127,90.0
1,3400,F#4,165.0,0.25,127,90.0
1,3401,F#3,165.0,0.25,127,90.0
1,3402,C#3,165.029,221/1000,127,90.0
1,3403,A4,165.115,0.25,127,90.0
1,3404,C2,165.115,0.25,127,90.0
1,3405,F#2,165.115,0.25,127,90.0
1,3406,A4,165.365,0.25,127,90.0
1,3407,C#3,165.492,69/250,127,90.0
1,3408,A4,165.615,0.25,127,90.0
1,3409,D2,165.615,0.25,127,90.0
1,3410,F#2,165.615,0.25,127,90.0
1,3411,F#2,165.75,0.5,120,90.0
1,3412,C#3,165.75,0.5,120,90.0
1,3413,F#3,165.75,333/1000,100,90.0
1,3414,F#4,165.75,333/1000,100,90.0
1,3415,A4,165.865,0.25,127,90.0
1,3416,C#3,166.008,253/1000,127,90.0
1,3417,A4,166.115,0.25,127,90.0
1,3418,F#2,166.115,0.25,127,90.0
1,3419,A4,166.365,0.25,127,90.0
1,3420,C2,166.365,0.25,127,90.0
1,3421,C#3,166.49,0.234,127,90.0
1,3422,E2,166.5,0.5,120,90.0
1,3423,C#3,166.5,0.5,120,90.0
1,3424,G#4,166.5,333/1000,100,90.0
1,3425,G#3,166.5,333/1000,100,90.0
1,3426,A4,166.615,0.25,127,90.0
1,3427,F#2,166.615,0.25,127,90.0
1,3428,A4,166.865,0.25,127,90.0
1,3429,C#3,166.964,143/500,127,90.0
1,3430,F#4,167.0,0.25,127,90.0
1,3431,F#3,167.0,0.25,127,90.0
1,3432,A4,167.115,0.25,127,90.0
1,3433,C2,167.115,0.25,127,90.0
1,3434,F#2,167.115,0.25,127,90.0
1,3435,A4,167.365,0.25,127,90.0
1,3436,E3,167.49,0.18,127,90.0
1,3437,A4,167.615,0.25,127,90.0
1,3438,D2,167.615,0.25,127,90.0
1,3439,F#2,167.615,0.25,127,90.0
1,3440,G#3,167.75,0.25,127,90.0
1,3441,B1,167.75,0.25,120,90.0
1,3442,C#3,167.75,0.25,120,90.0
1,3443,A3,167.75,0.25,100,90.0
1,3444,A4,167.75,0.25,100,90.0
1,3445,E4,167.802,99/500,67,90.0
1,3446,E3,167.802,99/500,67,90.0
1,3447,A4,167.865,0.25,127,90.0
1,3448,G#3,168.0,13/200,127,90.0
1,3449,B1,168.0,0.25,120,90.0
1,3450,C#3,168.0,0.25,120,90.0
1,3451,C#2,168.0,4.0,75,90.0
1,3452,E-3,168.0,23/200,89,90.0
1,3453,A3,168.0,83/1000,100,90.0
1,3454,A4,168.0,83/1000,100,90.0
1,3455,E4,168.0,3.602,67,90.0
1,3456,E3,168.0,3.602,67,90.0
1,3457,E3,168.083,3917/1000,76,90.0
1,3458,A4,168.115,0.25,127,90.0
1,3459,F#2,168.115,0.25,127,90.0
1,3460,C2,168.375,0.25,127,90.0
1,3461,G#3,168.451,237/1000,127,90.0
1,3462,C#2,168.5,0.5,120,90.0
1,3463,C#3,168.5,0.5,120,90.0
1,3464,G#3,168.5,333/1000,100,90.0
1,3465,G#4,168.5,333/1000,100,90.0
1,3466,A4,168.615,1/100,127,90.0
1,3467,F#2,168.615,1/100,127,90.0
1,3468,A4,168.625,6/25,127,90.0
1,3469,F#2,168.625,6/25,127,90.0
1,3470,A4,168.865,0.25,127,90.0
1,3471,F#4,169.0,0.25,127,90.0
1,3472,F#3,169.0,0.25,127,90.0
1,3473,C#3,169.003,0.211,127,90.0
1,3474,A4,169.115,0.25,127,90.0
1,3475,C2,169.115,0.25,127,90.0
1,3476,F#2,169.115,0.25,127,90.0
1,3477,A4,169.365,0.25,127,90.0
1,3478,G#3,169.5,28/125,127,90.0
1,3479,A4,169.615,0.25,127,90.0
1,3480,D2,169.615,0.25,127,90.0
1,3481,F#2,169.615,0.25,127,90.0
1,3482,A4,169.865,0.25,127,90.0
1,3483,C#3,169.995,27/125,127,90.0
1,3484,A4,170.115,0.25,127,90.0
1,3485,F#2,170.115,0.25,127,90.0
1,3486,A4,170.365,0.25,127,90.0
1,3487,C2,170.365,0.25,127,90.0
1,3488,G#3,170.487,177/1000,127,90.0
1,3489,A4,170.615,0.25,127,90.0
1,3490,F#2,170.615,0.25,127,90.0
1,3491,A4,170.865,0.25,127,90.0
1,3492,F#4,171.0,0.25,127,90.0
1,3493,F#3,171.0,0.25,127,90.0
1,3494,C#3,171.018,0.227,127,90.0
1,3495,A4,171.115,0.25,127,90.0
1,3496,C2,171.115,0.25,127,90.0
1,3497,F#2,171.115,0.25,127,90.0
1,3498,A4,171.365,0.25,127,90.0
1,3499,G#3,171.534,0.172,127,90.0
1,3500,A4,171.615,0.25,127,90.0
1,3501,D2,171.615,0.25,127,90.0
1,3502,F#2,171.615,0.25,127,90.0
1,3503,F#4,171.716,71/250,85,90.0
1,3504,F#3,171.716,71/250,85,90.0
1,3505,E2,171.75,0.25,120,90.0
1,3506,C#3,171.75,0.25,120,90.0
1,3507,G#3,171.75,0.25,100,90.0
1,3508,G#4,171.75,0.25,100,90.0
1,3509,A4,171.865,0.25,127,90.0
1,3510,E2,172.0,0.25,120,90.0
1,3511,C#3,172.0,0.25,120,90.0
1,3512,C#2,172.0,3.875,75,90.0
1,3513,E3,172.0,23/200,76,90.0
1,3514,G#3,172.0,83/1000,100,90.0
1,3515,G#4,172.0,83/1000,100,90.0
1,3516,F#4,172.0,511/250,85,90.0
1,3517,F#3,172.0,511/250,85,90.0
1,3518,C#3,172.01,51/200,127,90.0
1,3519,F#3,172.049,983/500,81,90.0
1,3520,A4,172.115,0.25,127,90.0
1,3521,F#2,172.115,0.25,127,90.0
1,3522,A4,172.365,0.25,127,90.0
1,3523,C2,172.365,0.25,127,90.0
1,3524,E-2,172.5,0.5,120,90.0
1,3525,C#3,172.5,0.5,120,90.0
1,3526,A3,172.5,333/1000,100,90.0
1,3527,A4,172.5,333/1000,100,90.0
1,3528,G#3,172.508,0.258,127,90.0
1,3529,A4,172.615,1/100,127,90.0
1,3530,F#2,172.615,1/100,127,90.0
1,3531,A4,172.865,6/25,127,90.0
1,3532,F#2,172.865,6/25,127,90.0
1,3533,E3,172.984,91/500,127,90.0
1,3534,F#4,173.0,0.25,127,90.0
1,3535,F#3,173.0,0.25,127,90.0
1,3536,A4,173.104,0.25,127,90.0
1,3537,E3,173.294,159/1000,127,90.0
1,3538,A4,173.354,0.25,127,90.0
1,3539,C2,173.354,0.25,127,90.0
1,3540,F#2,173.354,0.25,127,90.0
1,3541,G#3,173.542,193/1000,127,90.0
1,3542,A4,173.604,0.25,127,90.0
1,3543,F#2,173.75,0.5,120,90.0
1,3544,F#4,173.75,333/1000,100,90.0
1,3545,F#3,173.75,333/1000,100,90.0
1,3546,E3,173.815,77/500,127,90.0
1,3547,A4,173.854,0.25,127,90.0
1,3548,D2,173.854,0.25,127,90.0
1,3549,F#2,173.854,0.25,127,90.0
1,3550,G#3,173.974,2.0,81,90.0
1,3551,G#3,174.044,431/250,72,90.0
1,3552,G#4,174.044,431/250,72,90.0
1,3553,G#3,174.062,263/1000,127,90.0
1,3554,A4,174.104,0.25,127,90.0
1,3555,A4,174.354,0.25,127,90.0
1,3556,F#2,174.354,0.25,127,90.0
1,3557,E2,174.5,0.5,120,90.0
1,3558,G#4,174.5,333/1000,100,90.0
1,3559,G#3,174.5,333/1000,100,90.0
1,3560,C#3,174.508,3/25,127,90.0
1,3561,A4,174.604,0.25,127,90.0
1,3562,C2,174.604,0.25,127,90.0
1,3563,C#3,174.766,0.133,127,90.0
1,3564,A4,174.854,0.25,127,90.0
1,3565,F#2,174.854,0.25,127,90.0
1,3566,F#4,175.0,0.25,127,90.0
1,3567,F#3,175.0,0.25,127,90.0
1,3568,E3,175.042,0.172,127,90.0
1,3569,A4,175.104,0.25,127,90.0
1,3570,G#3,175.341,0.203,127,90.0
1,3571,A4,175.354,0.25,127,90.0
1,3572,C2,175.354,0.25,127,90.0
1,3573,F#2,175.354,0.25,127,90.0
1,3574,A4,175.604,0.25,127,90.0
1,3575,B2,175.75,0.25,115,90.0
1,3576,B1,175.75,0.25,120,90.0
1,3577,C#3,175.75,0.25,120,90.0
1,3578,B2,175.75,0.25,50,90.0
1,3579,A4,175.75,0.25,50,90.0
1,3580,A3,175.75,0.25,50,90.0
1,3581,B3,175.75,0.25,50,90.0
1,3582,B3,175.75,0.25,100,90.0
1,3583,A4,175.75,0.25,100,90.0
1,3584,A3,175.75,0.25,100,90.0
1,3585,B2,175.75,0.25,100,90.0
1,3586,B3,175.75,0.25,100,90.0
1,3587,A4,175.75,0.25,100,90.0
1,3588,A3,175.75,0.25,100,90.0
1,3589,B2,175.75,0.25,100,90.0
1,3590,C#3,175.766,0.234,127,90.0
1,3591,A4,175.854,0.25,127,90.0
1,3592,D2,175.854,0.25,127,90.0
1,3593,F#2,175.854,0.25,127,90.0
1,3594,C#3,176.0,21/1000,127,90.0
1,3595,B2,176.0,83/1000,115,90.0
1,3596,B1,176.0,0.25,120,90.0
1,3597,C#3,176.0,0.25,120,90.0
1,3598,B2,176.0,83/1000,50,90.0
1,3599,A4,176.0,83/1000,50,90.0
1,3600,A3,176.0,83/1000,50,90.0
1,3601,B3,176.0,83/1000,50,90.0
1,3602,B3,176.0,83/1000,100,90.0
1,3603,A4,176.0,83/1000,100,90.0
1,3604,A3,176.0,83/1000,100,90.0
1,3605,B2,176.0,83/1000,100,90.0
1,3606,B3,176.083,83/1000,100,90.0
1,3607,A4,176.083,83/1000,100,90.0
1,3608,A3,176.083,83/1000,100,90.0
1,3609,B2,176.083,83/1000,100,90.0
1,3610,A4,176.104,0.25,127,90.0
1,3611,G#3,176.289,89/1000,127,90.0
1,3612,A4,176.354,0.25,127,90.0
1,3613,F#2,176.354,0.25,127,90.0
1,3614,C#3,176.5,333/1000,115,90.0
1,3615,C#2,176.5,0.5,120,90.0
1,3616,C#3,176.5,0.5,120,90.0
1,3617,C#4,176.5,333/1000,50,90.0
1,3618,C#3,176.5,333/1000,50,90.0
1,3619,G#4,176.5,333/1000,50,90.0
1,3620,G#3,176.5,333/1000,50,90.0
1,3621,G#4,176.5,333/1000,100,90.0
1,3622,C#4,176.5,333/1000,100,90.0
1,3623,C#3,176.5,333/1000,100,90.0
1,3624,G#3,176.5,333/1000,100,90.0
1,3625,G#3,176.539,81/1000,127,90.0
1,3626,G#4,176.583,333/1000,100,90.0
1,3627,C#4,176.583,333/1000,100,90.0
1,3628,C#3,176.583,333/1000,100,90.0
1,3629,G#3,176.583,333/1000,100,90.0
1,3630,A4,176.604,0.25,127,90.0
1,3631,C2,176.604,0.25,127,90.0
1,3632,G#3,176.781,0.086,127,90.0
1,3633,A4,176.854,1/100,127,90.0
1,3634,F#2,176.854,1/100,127,90.0
1,3635,F#4,177.0,0.25,127,90.0
1,3636,F#3,177.0,0.25,127,90.0
1,3637,G#3,177.052,91/1000,127,90.0
1,3638,A4,177.104,6/25,127,90.0
1,3639,F#2,177.104,6/25,127,90.0
1,3640,G#3,177.299,14/125,127,90.0
1,3641,A4,177.344,0.25,127,90.0
1,3642,A4,177.594,0.25,127,90.0
1,3643,C2,177.594,0.25,127,90.0
1,3644,F#2,177.594,0.25,127,90.0
1,3645,G#3,177.773,91/1000,127,90.0
1,3646,A4,177.844,0.25,127,90.0
1,3647,G#3,178.029,0.086,127,90.0
1,3648,A4,178.094,0.25,127,90.0
1,3649,D2,178.094,0.25,127,90.0
1,3650,F#2,178.094,0.25,127,90.0
1,3651,G#3,178.268,81/1000,127,90.0
1,3652,A4,178.344,0.25,127,90.0
1,3653,G#3,178.5,91/1000,127,90.0
1,3654,A4,178.594,0.25,127,90.0
1,3655,F#2,178.594,0.25,127,90.0
1,3656,G#3,178.76,12/125,127,90.0
1,3657,A4,178.844,0.25,127,90.0
1,3658,C2,178.844,0.25,127,90.0
1,3659,G#3,179.0,0.117,127,90.0
1,3660,F#3,179.0,0.25,127,90.0
1,3661,F#4,179.0,0.25,127,90.0
1,3662,A4,179.094,0.25,127,90.0
1,3663,F#2,179.094,0.25,127,90.0
1,3664,G#3,179.258,73/500,127,90.0
1,3665,A4,179.344,0.25,127,90.0
1,3666,A4,179.594,0.25,127,90.0
1,3667,C2,179.594,0.25,127,90.0
1,3668,F#2,179.594,0.25,127,90.0
1,3669,G#3,179.729,23/200,127,90.0
1,3670,E2,179.75,0.25,120,90.0
1,3671,C#3,179.75,0.25,120,90.0
1,3672,G#3,179.75,0.25,100,90.0
1,3673,G#4,179.75,0.25,100,90.0
1,3674,G#3,179.833,0.25,100,90.0
1,3675,G#4,179.833,0.25,100,90.0
1,3676,A4,179.844,0.25,127,90.0
1,3677,E2,180.0,0.25,120,90.0
1,3678,C#3,180.0,0.25,120,90.0
1,3679,G#3,180.0,83/1000,100,90.0
1,3680,G#4,180.0,83/1000,100,90.0
1,3681,G#3,180.008,161/1000,127,90.0
1,3682,G#3,180.083,83/1000,100,90.0
1,3683,G#4,180.083,83/1000,100,90.0
1,3684,A4,180.094,0.25,127,90.0
1,3685,D2,180.094,0.25,127,90.0
1,3686,F#2,180.094,0.25,127,90.0
1,3687,A4,180.344,0.25,127,90.0
1,3688,E-2,180.5,0.5,120,90.0
1,3689,C#3,180.5,0.5,120,90.0
1,3690,A3,180.5,333/1000,100,90.0
1,3691,A4,180.5,333/1000,100,90.0
1,3692,A3,180.583,333/1000,100,90.0
1,3693,A4,180.583,333/1000,100,90.0
1,3694,A4,180.594,0.25,127,90.0
1,3695,F#2,180.594,0.25,127,90.0
1,3696,G#3,180.745,13/125,127,90.0
1,3697,A4,180.844,0.25,127,90.0
1,3698,C2,180.844,0.25,127,90.0
1,3699,F#4,181.0,0.25,127,90.0
1,3700,F#3,181.0,0.25,127,90.0
1,3701,G#3,181.013,13/125,127,90.0
1,3702,A4,181.094,1/100,127,90.0
1,3703,F#2,181.094,1/100,127,90.0
1,3704,G#3,181.263,91/1000,127,90.0
1,3705,A4,181.344,6/25,127,90.0
1,3706,F#2,181.344,6/25,127,90.0
1,3707,G#3,181.521,12/125,127,90.0
1,3708,A4,181.583,0.25,127,90.0
1,3709,F#2,181.75,0.5,120,90.0
1,3710,C#3,181.75,0.5,120,90.0
1,3711,F#3,181.75,333/1000,100,90.0
1,3712,F#4,181.75,333/1000,100,90.0
1,3713,G#3,181.766,0.094,127,90.0
1,3714,F#3,181.833,333/1000,100,90.0
1,3715,F#4,181.833,333/1000,100,90.0
1,3716,A4,181.833,0.25,127,90.0
1,3717,C2,181.833,0.25,127,90.0
1,3718,F#2,181.833,0.25,127,90.0
1,3719,G#3,182.0,0.094,127,90.0
1,3720,A4,182.083,0.25,127,90.0
1,3721,G#3,182.24,0.102,127,90.0
1,3722,A4,182.333,0.25,127,90.0
1,3723,D2,182.333,0.25,127,90.0
1,3724,F#2,182.333,0.25,127,90.0
1,3725,G#3,182.487,107/1000,127,90.0
1,3726,E2,182.5,0.5,120,90.0
1,3727,C#3,182.5,0.5,120,90.0
1,3728,G#4,182.5,333/1000,100,90.0
1,3729,G#3,182.5,333/1000,100,90.0
1,3730,A4,182.583,0.25,127,90.0
1,3731,G#4,182.583,333/1000,100,90.0
1,3732,G#3,182.583,333/1000,100,90.0
1,3733,G#3,182.745,14/125,127,90.0
1,3734,A4,182.833,0.25,127,90.0
1,3735,F#2,182.833,0.25,127,90.0
1,3736,G#3,182.992,16/125,127,90.0
1,3737,F#4,183.0,0.25,127,90.0
1,3738,F#3,183.0,0.25,127,90.0
1,3739,A4,183.083,0.25,127,90.0
1,3740,C2,183.083,0.25,127,90.0
1,3741,A4,183.333,0.25,127,90.0
1,3742,F#2,183.333,0.25,127,90.0
1,3743,G#3,183.521,14/125,127,90.0
1,3744,A4,183.583,0.25,127,90.0
1,3745,B1,183.75,0.25,120,90.0
1,3746,C#3,183.75,0.25,120,90.0
1,3747,A3,183.75,0.25,100,90.0
1,3748,A4,183.75,0.25,100,90.0
1,3749,G#3,183.779,23/200,127,90.0
1,3750,A3,183.833,0.25,100,90.0
1,3751,A4,183.833,0.25,100,90.0
1,3752,A4,183.833,0.25,127,90.0
1,3753,C2,183.833,0.25,127,90.0
1,3754,F#2,183.833,0.25,127,90.0
1,3755,B1,184.0,0.25,120,90.0
1,3756,C#3,184.0,0.25,120,90.0
1,3757,A3,184.0,83/1000,100,90.0
1,3758,A4,184.0,83/1000,100,90.0
1,3759,G#3,184.044,0.141,127,90.0
1,3760,A4,184.083,0.25,127,90.0
1,3761,A3,184.083,83/1000,100,90.0
1,3762,A4,184.083,83/1000,100,90.0
1,3763,A4,184.333,0.25,127,90.0
1,3764,D2,184.333,0.25,127,90.0
1,3765,F#2,184.333,0.25,127,90.0
1,3766,G#3,184.471,107/1000,127,90.0
1,3767,C#2,184.5,0.5,120,90.0
1,3768,C#3,184.5,0.5,120,90.0
1,3769,G#3,184.5,333/1000,100,90.0
1,3770,G#4,184.5,333/1000,100,90.0
1,3771,A4,184.583,0.25,127,90.0
1,3772,G#3,184.583,333/1000,100,90.0
1,3773,G#4,184.583,333/1000,100,90.0
1,3774,G#3,184.742,14/125,127,90.0
1,3775,A4,184.833,0.25,127,90.0
1,3776,F#2,184.833,0.25,127,90.0
1,3777,F#4,185.0,0.25,127,90.0
1,3778,F#3,185.0,0.25,127,90.0
1,3779,G#3,185.016,151/1000,127,90.0
1,3780,A4,185.083,0.25,127,90.0
1,3781,C2,185.083,0.25,127,90.0
1,3782,A4,185.333,1/100,127,90.0
1,3783,F#2,185.333,1/100,127,90.0
1,3784,G#3,185.482,99/1000,127,90.0
1,3785,A4,185.583,6/25,127,90.0
1,3786,F#2,185.583,6/25,127,90.0
1,3787,G#3,185.745,13/125,127,90.0
1,3788,A4,185.823,0.25,127,90.0
1,3789,G#3,186.0,13/125,127,90.0
1,3790,A4,186.073,0.25,127,90.0
1,3791,C2,186.073,0.25,127,90.0
1,3792,F#2,186.073,0.25,127,90.0
1,3793,G#3,186.253,107/1000,127,90.0
1,3794,A4,186.323,0.25,127,90.0
1,3795,G#3,186.531,0.148,127,90.0
1,3796,A4,186.573,0.25,127,90.0
1,3797,D2,186.573,0.25,127,90.0
1,3798,F#2,186.573,0.25,127,90.0
1,3799,A4,186.823,0.25,127,90.0
1,3800,G#3,187.0,0.164,127,90.0
1,3801,F#4,187.0,0.25,127,90.0
1,3802,F#3,187.0,0.25,127,90.0
1,3803,A4,187.073,0.25,127,90.0
1,3804,F#2,187.073,0.25,127,90.0
1,3805,A4,187.323,0.25,127,90.0
1,3806,C2,187.323,0.25,127,90.0
1,3807,G#3,187.513,73/500,127,90.0
1,3808,A4,187.573,0.25,127,90.0
1,3809,F#2,187.573,0.25,127,90.0
1,3810,E2,187.75,0.25,120,90.0
1,3811,C#3,187.75,0.25,120,90.0
1,3812,G#3,187.75,0.25,100,90.0
1,3813,G#4,187.75,0.25,100,90.0
1,3814,A4,187.823,0.25,127,90.0
1,3815,G#3,187.833,0.25,100,90.0
1,3816,G#4,187.833,0.25,100,90.0
1,3817,G#3,187.995,1/200,127,90.0
1,3818,G#3,188.0,12/125,127,90.0
1,3819,E2,188.0,0.25,120,90.0
1,3820,C#3,188.0,0.25,120,90.0
1,3821,G#3,188.0,83/1000,100,90.0
1,3822,G#4,188.0,83/1000,100,90.0
1,3823,A4,188.073,0.25,127,90.0
1,3824,C2,188.073,0.25,127,90.0
1,3825,F#2,188.073,0.25,127,90.0
1,3826,G#3,188.083,83/1000,100,90.0
1,3827,G#4,188.083,83/1000,100,90.0
1,3828,G#3,188.276,0.102,127,90.0
1,3829,A4,188.323,0.25,127,90.0
1,3830,E-2,188.5,0.5,120,90.0
1,3831,C#3,188.5,0.5,120,90.0
1,3832,A3,188.5,333/1000,100,90.0
1,3833,A4,188.5,333/1000,100,90.0
1,3834,G#3,188.521,161/1000,127,90.0
1,3835,A4,188.573,0.25,127,90.0
1,3836,D2,188.573,0.25,127,90.0
1,3837,F#2,188.573,0.25,127,90.0
1,3838,A3,188.583,333/1000,100,90.0
1,3839,A4,188.583,333/1000,100,90.0
1,3840,A4,188.823,0.25,127,90.0
1,3841,F#4,189.0,0.25,127,90.0
1,3842,F#3,189.0,0.25,127,90.0
1,3843,G#3,189.008,99/1000,127,90.0
1,3844,A4,189.073,0.25,127,90.0
1,3845,F#2,189.073,0.25,127,90.0
1,3846,G#3,189.245,0.109,127,90.0
1,3847,A4,189.323,0.25,127,90.0
1,3848,C2,189.323,0.25,127,90.0
1,3849,G#3,189.529,107/1000,127,90.0
1,3850,A4,189.573,1/100,127,90.0
1,3851,F#2,189.573,1/100,127,90.0
1,3852,F#2,189.75,0.5,120,90.0
1,3853,F#4,189.75,333/1000,100,90.0
1,3854,F#3,189.75,333/1000,100,90.0
1,3855,G#3,189.779,0.109,127,90.0
1,3856,A4,189.823,6/25,127,90.0
1,3857,F#2,189.823,6/25,127,90.0
1,3858,F#4,189.833,333/1000,100,90.0
1,3859,F#3,189.833,333/1000,100,90.0
1,3860,G#3,190.034,99/1000,127,90.0
1,3861,A4,190.062,0.25,127,90.0
1,3862,G#3,190.266,14/125,127,90.0
1,3863,A4,190.312,0.25,127,90.0
1,3864,C2,190.312,0.25,127,90.0
1,3865,F#2,190.312,0.25,127,90.0
1,3866,E2,190.5,0.5,120,90.0
1,3867,G#4,190.5,333/1000,100,90.0
1,3868,G#3,190.5,333/1000,100,90.0
1,3869,G#3,190.536,103/500,127,90.0
1,3870,A4,190.562,0.25,127,90.0
1,3871,G#4,190.583,333/1000,100,90.0
1,3872,G#3,190.583,333/1000,100,90.0
1,3873,A4,190.812,0.25,127,90.0
1,3874,D2,190.812,0.25,127,90.0
1,3875,F#2,190.812,0.25,127,90.0
1,3876,G#3,190.982,143/500,127,90.0
1,3877,F#4,191.0,0.25,127,90.0
1,3878,F#3,191.0,0.25,127,90.0
1,3879,A4,191.062,0.25,127,90.0
1,3880,A4,191.312,0.25,127,90.0
1,3881,F#2,191.312,0.25,127,90.0
1,3882,G#3,191.516,0.117,127,90.0
1,3883,A4,191.562,0.25,127,90.0
1,3884,C2,191.562,0.25,127,90.0
1,3885,B1,191.75,0.25,120,90.0
1,3886,A4,191.75,0.25,120,90.0
1,3887,C#5,191.75,0.25,100,90.0
1,3888,A5,191.75,0.25,100,90.0
1,3889,A3,191.75,0.25,100,90.0
1,3890,A4,191.75,0.25,100,90.0
1,3891,G#3,191.771,23/200,127,90.0
1,3892,A4,191.812,0.25,127,90.0
1,3893,F#2,191.812,0.25,127,90.0
1,3894,A3,191.833,0.25,100,90.0
1,3895,A4,191.833,0.25,100,90.0
1,3896,B1,192.0,0.25,120,90.0
1,3897,A4,192.0,0.25,120,90.0
1,3898,C#5,192.0,83/1000,100,90.0
1,3899,A5,192.0,83/1000,100,90.0
1,3900,A3,192.0,83/1000,100,90.0
1,3901,A4,192.0,83/1000,100,90.0
1,3902,G#3,192.057,0.164,127,90.0
1,3903,A4,192.062,0.25,127,90.0
1,3904,A3,192.083,83/1000,100,90.0
1,3905,A4,192.083,83/1000,100,90.0
1,3906,A4,192.312,0.25,127,90.0
1,3907,C2,192.312,0.25,127,90.0
1,3908,F#2,192.312,0.25,127,90.0
1,3909,C#2,192.5,0.5,120,90.0
1,3910,G#4,192.5,0.5,120,90.0
1,3911,G#5,192.5,333/1000,100,90.0
1,3912,C#5,192.5,333/1000,100,90.0
1,3913,G#3,192.5,333/1000,100,90.0
1,3914,G#4,192.5,333/1000,100,90.0
1,3915,G#3,192.518,13/125,127,90.0
1,3916,A4,192.562,0.25,127,90.0
1,3917,G#3,192.583,333/1000,100,90.0
1,3918,G#4,192.583,333/1000,100,90.0
1,3919,G#3,192.766,23/200,127,90.0
1,3920,A4,192.812,0.25,127,90.0
1,3921,D2,192.812,0.25,127,90.0
1,3922,F#2,192.812,0.25,127,90.0
1,3923,F#4,193.0,0.25,127,90.0
1,3924,F#3,193.0,0.25,127,90.0
1,3925,G#3,193.034,107/1000,127,90.0
1,3926,A4,193.062,0.25,127,90.0
1,3927,G#3,193.292,13/125,127,90.0
1,3928,A4,193.312,0.25,127,90.0
1,3929,F#2,193.312,0.25,127,90.0
1,3930,G#3,193.552,0.109,127,90.0
1,3931,A4,193.562,0.25,127,90.0
1,3932,C2,193.562,0.25,127,90.0
1,3933,G#3,193.807,107/1000,127,90.0
1,3934,A4,193.812,1/100,127,90.0
1,3935,F#2,193.812,1/100,127,90.0
1,3936,G#3,194.057,0.172,127,90.0
1,3937,A4,194.062,6/25,127,90.0
1,3938,F#2,194.062,6/25,127,90.0
1,3939,A4,194.302,0.25,127,90.0
1,3940,G#3,194.5,12/125,127,90.0
1,3941,A4,194.552,0.25,127,90.0
1,3942,C2,194.552,0.25,127,90.0
1,3943,F#2,194.552,0.25,127,90.0
1,3944,G#3,194.755,67/250,127,90.0
1,3945,A4,194.802,0.25,127,90.0
1,3946,F#4,195.0,0.25,127,90.0
1,3947,F#3,195.0,0.25,127,90.0
1,3948,A4,195.052,0.25,127,90.0
1,3949,D2,195.052,0.25,127,90.0
1,3950,F#2,195.052,0.25,127,90.0
1,3951,G#3,195.24,14/125,127,90.0
1,3952,A4,195.302,0.25,127,90.0
1,3953,G#3,195.503,23/200,127,90.0
1,3954,A4,195.552,0.25,127,90.0
1,3955,F#2,195.552,0.25,127,90.0
1,3956,E2,195.75,0.25,120,90.0
1,3957,G#4,195.75,0.25,120,90.0
1,3958,G#5,195.75,0.25,100,90.0
1,3959,C#5,195.75,0.25,100,90.0
1,3960,G#3,195.75,0.25,100,90.0
1,3961,G#4,195.75,0.25,100,90.0
1,3962,G#3,195.76,177/1000,127,90.0
1,3963,A4,195.802,0.25,127,90.0
1,3964,C2,195.802,0.25,127,90.0
1,3965,G#3,195.833,0.25,100,90.0
1,3966,G#4,195.833,0.25,100,90.0
1,3967,E2,196.0,0.25,120,90.0
1,3968,G#5,196.0,83/1000,100,90.0
1,3969,C#5,196.0,83/1000,100,90.0
1,3970,G#3,196.0,83/1000,100,90.0
1,3971,G#4,196.0,83/1000,100,90.0
1,3972,G#3,196.049,0.266,127,90.0
1,3973,A4,196.052,0.25,127,90.0
1,3974,F#2,196.052,0.25,127,90.0
1,3975,G#3,196.083,83/1000,100,90.0
1,3976,G#4,196.083,83/1000,100,90.0
1,3977,A4,196.302,0.25,127,90.0
1,3978,G#3,196.497,16/125,127,90.0
1,3979,E-2,196.5,0.5,120,90.0
1,3980,A4,196.5,0.25,120,90.0
1,3981,C#5,196.5,333/1000,100,90.0
1,3982,A5,196.5,333/1000,100,90.0
1,3983,A4,196.5,333/1000,100,90.0
1,3984,A3,196.5,333/1000,100,90.0
1,3985,A4,196.552,0.25,127,90.0
1,3986,C2,196.552,0.25,127,90.0
1,3987,F#2,196.552,0.25,127,90.0
1,3988,A4,196.583,333/1000,100,90.0
1,3989,A3,196.583,333/1000,100,90.0
1,3990,G#3,196.789,23/200,127,90.0
1,3991,A4,196.802,0.25,127,90.0
1,3992,F#3,197.0,0.25,127,90.0
1,3993,F#4,197.0,0.25,127,90.0
1,3994,G#3,197.036,0.227,127,90.0
1,3995,A4,197.052,0.25,127,90.0
1,3996,D2,197.052,0.25,127,90.0
1,3997,F#2,197.052,0.25,127,90.0
1,3998,A4,197.302,0.25,127,90.0
1,3999,G#3,197.531,23/200,127,90.0
1,4000,A4,197.552,0.25,127,90.0
1,4001,F#2,197.552,0.25,127,90.0
1,4002,F#2,197.75,0.5,120,90.0
1,4003,F#4,197.75,0.25,120,90.0
1,4004,C#5,197.75,333/1000,100,90.0
1,4005,F#5,197.75,333/1000,100,90.0
1,4006,F#4,197.75,333/1000,100,90.0
1,4007,F#3,197.75,333/1000,100,90.0
1,4008,G#3,197.792,0.117,127,90.0
1,4009,A4,197.802,0.25,127,90.0
1,4010,C2,197.802,0.25,127,90.0
1,4011,F#4,197.833,333/1000,100,90.0
1,4012,F#3,197.833,333/1000,100,90.0
1,4013,G#3,198.049,279/1000,127,90.0
1,4014,A4,198.052,1/100,127,90.0
1,4015,F#2,198.052,1/100,127,90.0
1,4016,A4,198.302,6/25,127,90.0
1,4017,F#2,198.302,6/25,127,90.0
1,4018,E2,198.5,0.5,120,90.0
1,4019,G#4,198.5,0.25,120,90.0
1,4020,C#5,198.5,333/1000,100,90.0
1,4021,G#5,198.5,333/1000,100,90.0
1,4022,G#3,198.5,333/1000,100,90.0
1,4023,G#4,198.5,333/1000,100,90.0
1,4024,G#3,198.51,107/1000,127,90.0
1,4025,A4,198.542,0.25,127,90.0
1,4026,G#3,198.583,333/1000,100,90.0
1,4027,G#4,198.583,333/1000,100,90.0
1,4028,G#3,198.755,0.219,127,90.0
1,4029,A4,198.792,0.25,127,90.0
1,4030,C2,198.792,0.25,127,90.0
1,4031,F#2,198.792,0.25,127,90.0
1,4032,F#3,199.0,0.25,127,90.0
1,4033,F#4,199.0,0.25,127,90.0
1,4034,A4,199.042,0.25,127,90.0
1,4035,A4,199.292,0.25,127,90.0
1,4036,D2,199.292,0.25,127,90.0
1,4037,F#2,199.292,0.25,127,90.0
1,4038,G#3,199.497,0.086,127,90.0
1,4039,A4,199.542,0.25,127,90.0
1,4040,B1,199.75,0.25,120,90.0
1,4041,A4,199.75,0.25,120,90.0
1,4042,A5,199.75,0.25,100,90.0
1,4043,C#5,199.75,0.25,100,90.0
1,4044,A3,199.75,0.25,100,90.0
1,4045,A4,199.75,0.25,100,90.0
1,4046,G#3,199.784,0.078,127,90.0
1,4047,A4,199.792,0.25,127,90.0
1,4048,F#2,199.792,0.25,127,90.0
1,4049,A3,199.833,0.25,100,90.0
1,4050,A4,199.833,0.25,100,90.0
1,4051,B1,200.0,0.25,120,90.0
1,4052,A5,200.0,83/1000,100,90.0
1,4053,C#5,200.0,83/1000,100,90.0
1,4054,A3,200.0,83/1000,100,90.0
1,4055,A4,200.0,83/1000,100,90.0
1,4056,G#3,200.036,61/500,127,90.0
1,4057,A4,200.042,0.25,127,90.0
1,4058,C2,200.042,0.25,127,90.0
1,4059,A3,200.083,83/1000,100,90.0
1,4060,A4,200.083,83/1000,100,90.0
1,4061,A4,200.292,0.25,127,90.0
1,4062,F#2,200.292,0.25,127,90.0
1,4063,C#2,200.5,0.5,120,90.0
1,4064,G#4,200.5,0.25,120,90.0
1,4065,C#5,200.5,333/1000,100,90.0
1,4066,G#5,200.5,333/1000,100,90.0
1,4067,G#3,200.5,333/1000,100,90.0
1,4068,G#4,200.5,333/1000,100,90.0
1,4069,G#3,200.516,0.102,127,90.0
1,4070,A4,200.542,0.25,127,90.0
1,4071,G#3,200.583,333/1000,100,90.0
1,4072,G#4,200.583,333/1000,100,90.0
1,4073,A4,200.792,0.25,127,90.0
1,4074,C2,200.792,0.25,127,90.0
1,4075,F#2,200.792,0.25,127,90.0
1,4076,F#4,201.0,0.25,127,90.0
1,4077,F#3,201.0,0.25,127,90.0
1,4078,G#3,201.008,0.164,127,90.0
1,4079,A4,201.042,0.25,127,90.0
1,4080,A4,201.292,0.25,127,90.0
1,4081,D2,201.292,0.25,127,90.0
1,4082,F#2,201.292,0.25,127,90.0
1,4083,G#3,201.505,0.234,127,90.0
1,4084,A4,201.542,0.25,127,90.0
1,4085,A4,201.792,0.25,127,90.0
1,4086,F#2,201.792,0.25,127,90.0
1,4087,A4,202.042,0.25,127,90.0
1,4088,C2,202.042,0.25,127,90.0
1,4089,G#3,202.229,0.094,127,90.0
1,4090,A4,202.292,1/100,127,90.0
1,4091,F#2,202.292,1/100,127,90.0
1,4092,G#3,202.487,0.109,127,90.0
1,4093,A4,202.542,6/25,127,90.0
1,4094,F#2,202.542,6/25,127,90.0
1,4095,G#3,202.747,0.102,127,90.0
1,4096,A4,202.781,0.25,127,90.0
1,4097,F#4,203.0,0.25,127,90.0
1,4098,F#3,203.0,0.25,127,90.0
1,4099,G#3,203.005,161/1000,127,90.0
1,4100,A4,203.031,0.25,127,90.0
1,4101,C2,203.031,0.25,127,90.0
1,4102,F#2,203.031,0.25,127,90.0
1,4103,A4,203.281,0.25,127,90.0
1,4104,G#3,203.526,12/125,127,90.0
1,4105,A4,203.531,0.25,127,90.0
1,4106,D2,203.531,0.25,127,90.0
1,4107,F#2,203.531,0.25,127,90.0
1,4108,E2,203.75,0.25,120,90.0
1,4109,G#4,203.75,0.25,120,90.0
1,4110,G#5,203.75,0.25,100,90.0
1,4111,C#5,203.75,0.25,100,90.0
1,4112,G#3,203.75,0.25,100,90.0
1,4113,G#4,203.75,0.25,100,90.0
1,4114,G#3,203.773,12/125,127,90.0
1,4115,A4,203.781,0.25,127,90.0
1,4116,G#3,203.833,0.25,100,90.0
1,4117,G#4,203.833,0.25,100,90.0
1,4118,E2,204.0,0.25,120,90.0
1,4119,G#5,204.0,83/1000,100,90.0
1,4120,C#5,204.0,83/1000,100,90.0
1,4121,G#3,204.0,83/1000,100,90.0
1,4122,G#4,204.0,83/1000,100,90.0
1,4123,G#3,204.023,12/125,127,90.0
1,4124,A4,204.031,0.25,127,90.0
1,4125,F#2,204.031,0.25,127,90.0
1,4126,G#3,204.083,83/1000,100,90.0
1,4127,G#4,204.083,83/1000,100,90.0
1,4128,G#3,204.271,91/1000,127,90.0
1,4129,A4,204.281,0.25,127,90.0
1,4130,C2,204.281,0.25,127,90.0
1,4131,E-2,204.5,0.5,120,90.0
1,4132,A4,204.5,0.25,120,90.0
1,4133,C#5,204.5,333/1000,100,90.0
1,4134,A5,204.5,333/1000,100,90.0
1,4135,A4,204.5,333/1000,100,90.0
1,4136,A3,204.5,333/1000,100,90.0
1,4137,G#3,204.516,61/500,127,90.0
1,4138,A4,204.531,0.25,127,90.0
1,4139,F#2,204.531,0.25,127,90.0
1,4140,A4,204.583,333/1000,100,90.0
1,4141,A3,204.583,333/1000,100,90.0
1,4142,A4,204.781,0.25,127,90.0
1,4143,F#4,205.0,0.25,127,90.0
1,4144,F#3,205.0,0.25,127,90.0
1,4145,G#3,205.021,91/1000,127,90.0
1,4146,A4,205.031,0.25,127,90.0
1,4147,C2,205.031,0.25,127,90.0
1,4148,F#2,205.031,0.25,127,90.0
1,4149,G#3,205.263,99/1000,127,90.0
1,4150,A4,205.281,0.25,127,90.0
1,4151,G#3,205.518,99/1000,127,90.0
1,4152,A4,205.531,0.25,127,90.0
1,4153,D2,205.531,0.25,127,90.0
1,4154,F#2,205.531,0.25,127,90.0
1,4155,F#2,205.75,0.5,120,90.0
1,4156,F#4,205.75,0.25,120,90.0
1,4157,F#5,205.75,333/1000,100,90.0
1,4158,C#5,205.75,333/1000,100,90.0
1,4159,F#3,205.75,333/1000,100,90.0
1,4160,F#4,205.75,333/1000,100,90.0
1,4161,G#3,205.763,0.094,127,90.0
1,4162,A4,205.781,0.25,127,90.0
1,4163,F#3,205.833,333/1000,100,90.0
1,4164,F#4,205.833,333/1000,100,90.0
1,4165,G#3,206.01,12/125,127,90.0
1,4166,A4,206.031,0.25,127,90.0
1,4167,F#2,206.031,0.25,127,90.0
1,4168,G#3,206.25,0.086,127,90.0
1,4169,A4,206.281,0.25,127,90.0
1,4170,C2,206.281,0.25,127,90.0
1,4171,G#3,206.482,0.094,127,90.0
1,4172,E2,206.5,0.5,120,90.0
1,4173,G#4,206.5,0.25,120,90.0
1,4174,G#5,206.5,333/1000,100,90.0
1,4175,C#5,206.5,333/1000,100,90.0
1,4176,G#3,206.5,333/1000,100,90.0
1,4177,G#4,206.5,333/1000,100,90.0
1,4178,A4,206.531,1/100,127,90.0
1,4179,F#2,206.531,1/100,127,90.0
1,4180,G#3,206.583,333/1000,100,90.0
1,4181,G#4,206.583,333/1000,100,90.0
1,4182,G#3,206.75,0.141,127,90.0
1,4183,A4,206.781,6/25,127,90.0
1,4184,F#2,206.781,6/25,127,90.0
1,4185,F#4,207.0,0.25,127,90.0
1,4186,F#3,207.0,0.25,127,90.0
1,4187,A4,207.021,0.25,127,90.0
1,4188,A4,207.271,0.25,127,90.0
1,4189,C2,207.271,0.25,127,90.0
1,4190,F#2,207.271,0.25,127,90.0
1,4191,G#3,207.294,99/1000,127,90.0
1,4192,A4,207.521,0.25,127,90.0
1,4193,G#3,207.539,23/200,127,90.0
1,4194,B2,207.75,0.25,115,90.0
1,4195,B1,207.75,0.25,120,90.0
1,4196,B3,207.75,0.25,120,90.0
1,4197,C#3,207.75,0.25,120,90.0
1,4198,B2,207.75,0.25,50,90.0
1,4199,A4,207.75,0.25,50,90.0
1,4200,A3,207.75,0.25,50,90.0
1,4201,B3,207.75,0.25,50,90.0
1,4202,B3,207.75,0.25,100,90.0
1,4203,A4,207.75,0.25,100,90.0
1,4204,A3,207.75,0.25,100,90.0
1,4205,B2,207.75,0.25,100,90.0
1,4206,A4,207.771,0.25,127,90.0
1,4207,D2,207.771,0.25,127,90.0
1,4208,F#2,207.771,0.25,127,90.0
1,4209,G#3,207.805,0.109,127,90.0
1,4210,B3,207.833,0.25,100,90.0
1,4211,A4,207.833,0.25,100,90.0
1,4212,A3,207.833,0.25,100,90.0
1,4213,B2,207.833,0.25,100,90.0
1,4214,B2,208.0,83/1000,115,90.0
1,4215,B1,208.0,0.25,120,90.0
1,4216,C#3,208.0,0.25,120,90.0
1,4217,B2,208.0,83/1000,50,90.0
1,4218,A4,208.0,83/1000,50,90.0
1,4219,A3,208.0,83/1000,50,90.0
1,4220,B3,208.0,83/1000,50,90.0
1,4221,B3,208.0,83/1000,100,90.0
1,4222,A4,208.0,83/1000,100,90.0
1,4223,A3,208.0,83/1000,100,90.0
1,4224,B2,208.0,83/1000,100,90.0
1,4225,A4,208.021,0.25,127,90.0
1,4226,G#3,208.047,89/1000,127,90.0
1,4227,B3,208.083,83/1000,100,90.0
1,4228,A4,208.083,83/1000,100,90.0
1,4229,A3,208.083,83/1000,100,90.0
1,4230,B2,208.083,83/1000,100,90.0
1,4231,A4,208.271,0.25,127,90.0
1,4232,F#2,208.271,0.25,127,90.0
1,4233,G#3,208.281,0.086,127,90.0
1,4234,C#3,208.5,333/1000,115,90.0
1,4235,C#2,208.5,0.5,120,90.0
1,4236,C#4,208.5,0.25,120,90.0
1,4237,C#3,208.5,0.5,120,90.0
1,4238,C#4,208.5,333/1000,50,90.0
1,4239,C#3,208.5,333/1000,50,90.0
1,4240,G#4,208.5,333/1000,50,90.0
1,4241,G#3,208.5,333/1000,50,90.0
1,4242,G#4,208.5,333/1000,100,90.0
1,4243,C#4,208.5,333/1000,100,90.0
1,4244,C#3,208.5,333/1000,100,90.0
1,4245,G#3,208.5,333/1000,100,90.0
1,4246,A4,208.521,0.25,127,90.0
1,4247,C2,208.521,0.25,127,90.0
1,4248,G#3,208.534,0.156,127,90.0
1,4249,G#4,208.583,333/1000,100,90.0
1,4250,C#4,208.583,333/1000,100,90.0
1,4251,C#3,208.583,333/1000,100,90.0
1,4252,G#3,208.583,333/1000,100,90.0
1,4253,A4,208.771,0.25,127,90.0
1,4254,F#2,208.771,0.25,127,90.0
1,4255,F#4,209.0,0.25,127,90.0
1,4256,F#3,209.0,0.25,127,90.0
1,4257,G#3,209.008,12/125,127,90.0
1,4258,A4,209.021,0.25,127,90.0
1,4259,G#3,209.258,81/1000,127,90.0
1,4260,A4,209.271,0.25,127,90.0
1,4261,C2,209.271,0.25,127,90.0
1,4262,F#2,209.271,0.25,127,90.0
1,4263,G#3,209.518,0.086,127,90.0
1,4264,A4,209.521,0.25,127,90.0
1,4265,G#3,209.768,0.094,127,90.0
1,4266,A4,209.771,0.25,127,90.0
1,4267,D2,209.771,0.25,127,90.0
1,4268,F#2,209.771,0.25,127,90.0
1,4269,A4,210.021,0.25,127,90.0
1,4270,G#3,210.023,169/1000,127,90.0
1,4271,A4,210.271,0.25,127,90.0
1,4272,F#2,210.271,0.25,127,90.0
1,4273,G#3,210.484,13/125,127,90.0
1,4274,A4,210.521,0.25,127,90.0
1,4275,C2,210.521,0.25,127,90.0
1,4276,G#3,210.732,99/1000,127,90.0
1,4277,A4,210.771,1/100,127,90.0
1,4278,F#2,210.771,1/100,127,90.0
1,4279,F#4,211.0,0.25,127,90.0
1,4280,F#3,211.0,0.25,127,90.0
1,4281,G#3,211.005,201/1000,127,90.0
1,4282,A4,211.021,6/25,127,90.0
1,4283,F#2,211.021,6/25,127,90.0
1,4284,A4,211.26,0.25,127,90.0
1,4285,G#3,211.466,91/500,127,90.0
1,4286,A4,211.51,0.25,127,90.0
1,4287,C2,211.51,0.25,127,90.0
1,4288,F#2,211.51,0.25,127,90.0
1,4289,E2,211.75,0.25,120,90.0
1,4290,C#3,211.75,0.25,120,90.0
1,4291,G#3,211.75,0.25,100,90.0
1,4292,G#4,211.75,0.25,100,90.0
1,4293,A4,211.76,0.25,127,90.0
1,4294,G#3,211.833,0.25,100,90.0
1,4295,G#4,211.833,0.25,100,90.0
1,4296,E2,212.0,0.25,120,90.0
1,4297,C#3,212.0,0.25,120,90.0
1,4298,G#3,212.0,83/1000,100,90.0
1,4299,G#4,212.0,83/1000,100,90.0
1,4300,A4,212.01,0.25,127,90.0
1,4301,D2,212.01,0.25,127,90.0
1,4302,F#2,212.01,0.25,127,90.0
1,4303,G#3,212.018,99/1000,127,90.0
1,4304,G#3,212.083,83/1000,100,90.0
1,4305,G#4,212.083,83/1000,100,90.0
1,4306,G#3,212.25,107/1000,127,90.0
1,4307,A4,212.26,0.25,127,90.0
1,4308,E-2,212.5,0.5,120,90.0
1,4309,C#3,212.5,0.5,120,90.0
1,4310,A3,212.5,333/1000,100,90.0
1,4311,A4,212.5,333/1000,100,90.0
1,4312,A4,212.51,0.25,127,90.0
1,4313,F#2,212.51,0.25,127,90.0
1,4314,G#3,212.523,0.102,127,90.0
1,4315,A3,212.583,333/1000,100,90.0
1,4316,A4,212.583,333/1000,100,90.0
1,4317,A4,212.76,0.25,127,90.0
1,4318,C2,212.76,0.25,127,90.0
1,4319,G#3,212.779,99/1000,127,90.0
1,4320,F#4,213.0,0.25,127,90.0
1,4321,F#3,213.0,0.25,127,90.0
1,4322,A4,213.01,0.25,127,90.0
1,4323,F#2,213.01,0.25,127,90.0
1,4324,G#3,213.039,0.094,127,90.0
1,4325,A4,213.26,0.25,127,90.0
1,4326,G#3,213.292,0.094,127,90.0
1,4327,A4,213.51,0.25,127,90.0
1,4328,C2,213.51,0.25,127,90.0
1,4329,F#2,213.51,0.25,127,90.0
1,4330,G#3,213.534,0.133,127,90.0
1,4331,F#2,213.75,0.5,120,90.0
1,4332,C#3,213.75,0.5,120,90.0
1,4333,F#3,213.75,333/1000,100,90.0
1,4334,F#4,213.75,333/1000,100,90.0
1,4335,A4,213.76,0.25,127,90.0
1,4336,F#3,213.833,333/1000,100,90.0
1,4337,F#4,213.833,333/1000,100,90.0
1,4338,G#3,214.0,107/1000,127,90.0
1,4339,A4,214.01,0.25,127,90.0
1,4340,D2,214.01,0.25,127,90.0
1,4341,F#2,214.01,0.25,127,90.0
1,4342,A4,214.26,0.25,127,90.0
1,4343,G#3,214.268,0.094,127,90.0
1,4344,E2,214.5,0.5,120,90.0
1,4345,C#3,214.5,0.5,120,90.0
1,4346,G#4,214.5,333/1000,100,90.0
1,4347,G#3,214.5,333/1000,100,90.0
1,4348,A4,214.51,0.25,127,90.0
1,4349,F#2,214.51,0.25,127,90.0
1,4350,G#3,214.521,99/1000,127,90.0
1,4351,G#4,214.583,333/1000,100,90.0
1,4352,G#3,214.583,333/1000,100,90.0
1,4353,A4,214.76,0.25,127,90.0
1,4354,C2,214.76,0.25,127,90.0
1,4355,G#3,214.768,12/125,127,90.0
1,4356,F#4,215.0,0.25,127,90.0
1,4357,F#3,215.0,0.25,127,90.0
1,4358,A4,215.01,1/100,127,90.0
1,4359,F#2,215.01,1/100,127,90.0
1,4360,G#3,215.039,193/1000,127,90.0
1,4361,A4,215.26,6/25,127,90.0
1,4362,F#2,215.26,6/25,127,90.0
1,4363,G#3,215.471,0.164,127,90.0
1,4364,A4,215.5,0.25,127,90.0
1,4365,B1,215.75,0.25,120,90.0
1,4366,C#3,215.75,0.25,120,90.0
1,4367,A3,215.75,0.25,100,90.0
1,4368,A4,215.75,0.25,100,90.0
1,4369,A4,215.75,0.25,127,90.0
1,4370,C2,215.75,0.25,127,90.0
1,4371,F#2,215.75,0.25,127,90.0
1,4372,A3,215.833,0.25,100,90.0
1,4373,A4,215.833,0.25,100,90.0
1,4374,B1,216.0,0.25,120,90.0
1,4375,C#3,216.0,0.25,120,90.0
1,4376,A4,216.0,0.25,127,90.0
1,4377,A3,216.0,83/1000,100,90.0
1,4378,A4,216.0,83/1000,100,90.0
1,4379,A3,216.083,83/1000,100,90.0
1,4380,A4,216.083,83/1000,100,90.0
1,4381,A4,216.25,0.25,127,90.0
1,4382,D2,216.25,0.25,127,90.0
1,4383,F#2,216.25,0.25,127,90.0
1,4384,G#3,216.286,0.094,127,90.0
1,4385,C#2,216.5,0.5,120,90.0
1,4386,C#3,216.5,0.5,120,90.0
1,4387,A4,216.5,0.25,127,90.0
1,4388,G#3,216.5,333/1000,100,90.0
1,4389,G#4,216.5,333/1000,100,90.0
1,4390,G#3,216.539,13/125,127,90.0
1,4391,G#3,216.583,333/1000,100,90.0
1,4392,G#4,216.583,333/1000,100,90.0
1,4393,A4,216.75,0.25,127,90.0
1,4394,F#2,216.75,0.25,127,90.0
1,4395,G#3,216.779,13/125,127,90.0
1,4396,F#3,217.0,0.25,127,90.0
1,4397,F#4,217.0,0.25,127,90.0
1,4398,A4,217.0,0.25,127,90.0
1,4399,C2,217.0,0.25,127,90.0
1,4400,G#3,217.036,23/200,127,90.0
1,4401,A4,217.25,0.25,127,90.0
1,4402,F#2,217.25,0.25,127,90.0
1,4403,G#3,217.284,12/125,127,90.0
1,4404,A4,217.5,0.25,127,90.0
1,4405,G#3,217.526,0.102,127,90.0
1,4406,A4,217.75,0.25,127,90.0
1,4407,C2,217.75,0.25,127,90.0
1,4408,F#2,217.75,0.25,127,90.0
1,4409,G#3,217.771,107/1000,127,90.0
1,4410,A4,218.0,0.25,127,90.0
1,4411,G#3,218.034,0.156,127,90.0
1,4412,A4,218.25,0.25,127,90.0
1,4413,D2,218.25,0.25,127,90.0
1,4414,F#2,218.25,0.25,127,90.0
1,4415,A4,218.5,0.25,127,90.0
1,4416,G#3,218.508,107/1000,127,90.0
1,4417,A4,218.75,0.25,127,90.0
1,4418,F#2,218.75,0.25,127,90.0
1,4419,G#3,218.766,14/125,127,90.0
1,4420,F#4,219.0,0.25,127,90.0
1,4421,F#3,219.0,0.25,127,90.0
1,4422,A4,219.0,0.25,127,90.0
1,4423,C2,219.0,0.25,127,90.0
1,4424,G#3,219.023,0.109,127,90.0
1,4425,A4,219.25,1/100,127,90.0
1,4426,F#2,219.25,1/100,127,90.0
1,4427,G#3,219.266,91/1000,127,90.0
1,4428,A4,219.5,6/25,127,90.0
1,4429,F#2,219.5,6/25,127,90.0
1,4430,G#3,219.505,12/125,127,90.0
1,4431,A4,219.74,0.25,127,90.0
1,4432,E2,219.75,0.25,120,90.0
1,4433,C#3,219.75,0.25,120,90.0
1,4434,G#3,219.75,0.25,100,90.0
1,4435,G#4,219.75,0.25,100,90.0
1,4436,G#3,219.773,0.164,127,90.0
1,4437,G#3,219.833,0.25,100,90.0
1,4438,G#4,219.833,0.25,100,90.0
1,4439,A4,219.99,0.25,127,90.0
1,4440,C2,219.99,0.25,127,90.0
1,4441,F#2,219.99,0.25,127,90.0
1,4442,E2,220.0,0.25,120,90.0
1,4443,C#3,220.0,0.25,120,90.0
1,4444,G#3,220.0,83/1000,100,90.0
1,4445,G#4,220.0,83/1000,100,90.0
1,4446,G#3,220.083,83/1000,100,90.0
1,4447,G#4,220.083,83/1000,100,90.0
1,4448,A4,220.24,0.25,127,90.0
1,4449,G#3,220.49,0.109,127,90.0
1,4450,A4,220.49,0.25,127,90.0
1,4451,D2,220.49,0.25,127,90.0
1,4452,F#2,220.49,0.25,127,90.0
1,4453,E-2,220.5,0.5,120,90.0
1,4454,C#3,220.5,0.5,120,90.0
1,4455,A3,220.5,333/1000,100,90.0
1,4456,A4,220.5,333/1000,100,90.0
1,4457,A3,220.583,333/1000,100,90.0
1,4458,A4,220.583,333/1000,100,90.0
1,4459,A4,220.74,0.25,127,90.0
1,4460,G#3,220.76,151/1000,127,90.0
1,4461,A4,220.99,0.25,127,90.0
1,4462,F#2,220.99,0.25,127,90.0
1,4463,F#4,221.0,0.25,127,90.0
1,4464,F#3,221.0,0.25,127,90.0
1,4465,A4,221.24,0.25,127,90.0
1,4466,C2,221.24,0.25,127,90.0
1,4467,G#3,221.276,23/200,127,90.0
1,4468,A4,221.49,0.25,127,90.0
1,4469,F#2,221.49,0.25,127,90.0
1,4470,A4,221.74,0.25,127,90.0
1,4471,F#2,221.75,0.5,120,90.0
1,4472,F#4,221.75,333/1000,100,90.0
1,4473,F#3,221.75,333/1000,100,90.0
1,4474,G#3,221.768,0.094,127,90.0
1,4475,F#4,221.833,333/1000,100,90.0
1,4476,F#3,221.833,333/1000,100,90.0
1,4477,A4,221.99,0.25,127,90.0
1,4478,C2,221.99,0.25,127,90.0
1,4479,F#2,221.99,0.25,127,90.0
1,4480,G#3,222.016,161/1000,127,90.0
1,4481,A4,222.24,0.25,127,90.0
1,4482,A4,222.49,0.25,127,90.0
1,4483,D2,222.49,0.25,127,90.0
1,4484,F#2,222.49,0.25,127,90.0
1,4485,E2,222.5,0.5,120,90.0
1,4486,G#4,222.5,333/1000,100,90.0
1,4487,G#3,222.5,333/1000,100,90.0
1,4488,G#4,222.583,333/1000,100,90.0
1,4489,G#3,222.583,333/1000,100,90.0
1,4490,A4,222.74,0.25,127,90.0
1,4491,G#3,222.974,13/125,127,90.0
1,4492,A4,222.99,0.25,127,90.0
1,4493,F#2,222.99,0.25,127,90.0
1,4494,F#4,223.0,0.25,127,90.0
1,4495,F#3,223.0,0.25,127,90.0
1,4496,G#3,223.208,13/125,127,90.0
1,4497,A4,223.24,0.25,127,90.0
1,4498,C2,223.24,0.25,127,90.0
1,4499,G#3,223.456,14/125,127,90.0
1,4500,A4,223.49,1/100,127,90.0
1,4501,F#2,223.49,1/100,127,90.0
1,4502,G#3,223.688,12/125,127,90.0
1,4503,A4,223.74,6/25,127,90.0
1,4504,F#2,223.74,6/25,127,90.0
1,4505,B1,223.75,0.25,120,90.0
1,4506,A4,223.75,0.25,120,90.0
1,4507,C#3,223.75,0.25,120,90.0
1,4508,C#5,223.75,0.25,100,90.0
1,4509,A5,223.75,0.25,100,90.0
1,4510,A3,223.75,0.25,100,90.0
1,4511,A4,223.75,0.25,100,90.0
1,4512,A3,223.833,0.25,100,90.0
1,4513,A4,223.833,0.25,100,90.0
1,4514,G#3,223.945,0.055,127,90.0
1,4515,A4,223.979,0.25,127,90.0
1,4516,G#3,224.0,0.328,127,90.0
1,4517,B1,224.0,0.25,120,90.0
1,4518,A4,224.0,0.25,120,90.0
1,4519,C#3,224.0,0.25,120,90.0
1,4520,C#5,224.0,83/1000,100,90.0
1,4521,A5,224.0,83/1000,100,90.0
1,4522,A3,224.0,83/1000,100,90.0
1,4523,A4,224.0,83/1000,100,90.0
1,4524,A3,224.083,83/1000,100,90.0
1,4525,A4,224.083,83/1000,100,90.0
1,4526,A4,224.229,0.25,127,90.0
1,4527,C2,224.229,0.25,127,90.0
1,4528,F#2,224.229,0.25,127,90.0
1,4529,C#3,224.25,0.25,120,90.0
1,4530,A4,224.479,0.25,127,90.0
1,4531,C#2,224.5,0.5,120,90.0
1,4532,G#4,224.5,0.5,120,90.0
1,4533,C#3,224.5,0.25,120,90.0
1,4534,G#5,224.5,333/1000,100,90.0
1,4535,C#5,224.5,333/1000,100,90.0
1,4536,G#3,224.5,333/1000,100,90.0
1,4537,G#4,224.5,333/1000,100,90.0
1,4538,G#3,224.583,333/1000,100,90.0
1,4539,G#4,224.583,333/1000,100,90.0
1,4540,A4,224.729,0.25,127,90.0
1,4541,D2,224.729,0.25,127,90.0
1,4542,F#2,224.729,0.25,127,90.0
1,4543,C#3,224.75,0.25,120,90.0
1,4544,G#3,224.958,107/1000,127,90.0
1,4545,A4,224.979,0.25,127,90.0
1,4546,C#3,225.0,0.25,120,90.0
1,4547,F#4,225.0,0.25,127,90.0
1,4548,F#3,225.0,0.25,127,90.0
1,4549,G#3,225.203,13/125,127,90.0
1,4550,A4,225.229,0.25,127,90.0
1,4551,F#2,225.229,0.25,127,90.0
1,4552,C#3,225.25,0.25,120,90.0
1,4553,G#3,225.448,91/1000,127,90.0
1,4554,A4,225.479,0.25,127,90.0
1,4555,C2,225.479,0.25,127,90.0
1,4556,C#3,225.5,0.25,120,90.0
1,4557,G#3,225.682,99/1000,127,90.0
1,4558,A4,225.729,0.25,127,90.0
1,4559,F#2,225.729,0.25,127,90.0
1,4560,C#3,225.75,0.25,120,90.0
1,4561,G#3,225.969,299/1000,127,90.0
1,4562,A4,225.979,0.25,127,90.0
1,4563,C#3,226.0,0.25,120,90.0
1,4564,A4,226.229,0.25,127,90.0
1,4565,C2,226.229,0.25,127,90.0
1,4566,F#2,226.229,0.25,127,90.0
1,4567,C#3,226.25,0.25,120,90.0
1,4568,G#3,226.458,14/125,127,90.0
1,4569,A4,226.479,0.25,127,90.0
1,4570,C#3,226.5,0.25,120,90.0
1,4571,G#3,226.711,323/1000,127,90.0
1,4572,A4,226.729,0.25,127,90.0
1,4573,D2,226.729,0.25,127,90.0
1,4574,F#2,226.729,0.25,127,90.0
1,4575,C#3,226.75,0.25,120,90.0
1,4576,A4,226.979,0.25,127,90.0
1,4577,C#3,227.0,0.25,120,90.0
1,4578,F#4,227.0,0.25,127,90.0
1,4579,F#3,227.0,0.25,127,90.0
1,4580,G#3,227.193,27/200,127,90.0
1,4581,A4,227.229,0.25,127,90.0
1,4582,F#2,227.229,0.25,127,90.0
1,4583,C#3,227.25,0.25,120,90.0
1,4584,G#3,227.456,107/1000,127,90.0
1,4585,A4,227.479,0.25,127,90.0
1,4586,C2,227.479,0.25,127,90.0
1,4587,C#3,227.5,0.25,120,90.0
1,4588,G#3,227.703,0.094,127,90.0
1,4589,A4,227.729,1/100,127,90.0
1,4590,F#2,227.729,1/100,127,90.0
1,4591,E2,227.75,0.25,120,90.0
1,4592,G#4,227.75,0.25,120,90.0
1,4593,C#3,227.75,0.25,120,90.0
1,4594,G#5,227.75,0.25,100,90.0
1,4595,C#5,227.75,0.25,100,90.0
1,4596,G#3,227.75,0.25,100,90.0
1,4597,G#4,227.75,0.25,100,90.0
1,4598,G#3,227.833,0.25,100,90.0
1,4599,G#4,227.833,0.25,100,90.0
1,4600,G#3,227.964,9/250,127,90.0
1,4601,A4,227.979,6/25,127,90.0
1,4602,F#2,227.979,6/25,127,90.0
1,4603,G#3,228.0,0.289,127,90.0
1,4604,E2,228.0,0.25,120,90.0
1,4605,C#3,228.0,0.25,120,90.0
1,4606,G#5,228.0,83/1000,100,90.0
1,4607,C#5,228.0,83/1000,100,90.0
1,4608,G#3,228.0,83/1000,100,90.0
1,4609,G#4,228.0,83/1000,100,90.0
1,4610,G#3,228.083,83/1000,100,90.0
1,4611,G#4,228.083,83/1000,100,90.0
1,4612,A4,228.219,0.25,127,90.0
1,4613,C#3,228.25,0.25,120,90.0
1,4614,A4,228.469,0.25,127,90.0
1,4615,C2,228.469,0.25,127,90.0
1,4616,F#2,228.469,0.25,127,90.0
1,4617,G#3,228.474,0.102,127,90.0
1,4618,E-2,228.5,0.5,120,90.0
1,4619,A4,228.5,0.25,120,90.0
1,4620,C#3,228.5,0.25,120,90.0
1,4621,C#5,228.5,333/1000,100,90.0
1,4622,A5,228.5,333/1000,100,90.0
1,4623,A4,228.5,333/1000,100,90.0
1,4624,A3,228.5,333/1000,100,90.0
1,4625,A4,228.583,333/1000,100,90.0
1,4626,A3,228.583,333/1000,100,90.0
1,4627,A4,228.719,0.25,127,90.0
1,4628,G#3,228.729,151/500,127,90.0
1,4629,C#3,228.75,0.25,120,90.0
1,4630,A4,228.969,0.25,127,90.0
1,4631,D2,228.969,0.25,127,90.0
1,4632,F#2,228.969,0.25,127,90.0
1,4633,C#3,229.0,0.25,120,90.0
1,4634,F#4,229.0,0.25,127,90.0
1,4635,F#3,229.0,0.25,127,90.0
1,4636,G#3,229.208,99/1000,127,90.0
1,4637,A4,229.219,0.25,127,90.0
1,4638,C#3,229.25,0.25,120,90.0
1,4639,A4,229.469,0.25,127,90.0
1,4640,F#2,229.469,0.25,127,90.0
1,4641,G#3,229.482,83/1000,127,90.0
1,4642,C#3,229.5,0.25,120,90.0
1,4643,G#3,229.719,0.094,127,90.0
1,4644,A4,229.719,0.25,127,90.0
1,4645,C2,229.719,0.25,127,90.0
1,4646,F#2,229.75,0.5,120,90.0
1,4647,F#4,229.75,0.25,120,90.0
1,4648,C#3,229.75,0.25,120,90.0
1,4649,C#5,229.75,333/1000,100,90.0
1,4650,F#5,229.75,333/1000,100,90.0
1,4651,F#4,229.75,333/1000,100,90.0
1,4652,F#3,229.75,333/1000,100,90.0
1,4653,F#4,229.833,333/1000,100,90.0
1,4654,F#3,229.833,333/1000,100,90.0
1,4655,A4,229.969,0.25,127,90.0
1,4656,F#2,229.969,0.25,127,90.0
1,4657,G#3,229.974,189/500,127,90.0
1,4658,C#3,230.0,0.25,120,90.0
1,4659,A4,230.219,0.25,127,90.0
1,4660,C#3,230.25,0.25,120,90.0
1,4661,A4,230.469,0.25,127,90.0
1,4662,C2,230.469,0.25,127,90.0
1,4663,F#2,230.469,0.25,127,90.0
1,4664,E2,230.5,0.5,120,90.0
1,4665,G#4,230.5,0.25,120,90.0
1,4666,C#3,230.5,0.25,120,90.0
1,4667,C#5,230.5,333/1000,100,90.0
1,4668,G#5,230.5,333/1000,100,90.0
1,4669,G#3,230.5,333/1000,100,90.0
1,4670,G#4,230.5,333/1000,100,90.0
1,4671,G#3,230.583,333/1000,100,90.0
1,4672,G#4,230.583,333/1000,100,90.0
1,4673,G#3,230.669,99/1000,127,90.0
1,4674,A4,230.719,0.25,127,90.0
1,4675,C#3,230.75,0.25,120,90.0
1,4676,G#3,230.948,13/125,127,90.0
1,4677,A4,230.969,0.25,127,90.0
1,4678,D2,230.969,0.25,127,90.0
1,4679,F#2,230.969,0.25,127,90.0
1,4680,C#3,231.0,0.25,120,90.0
1,4681,F#4,231.0,0.25,127,90.0
1,4682,F#3,231.0,0.25,127,90.0
1,4683,G#3,231.19,0.102,127,90.0
1,4684,A4,231.219,0.25,127,90.0
1,4685,C#3,231.25,0.25,120,90.0
1,4686,G#3,231.448,0.102,127,90.0
1,4687,A4,231.469,0.25,127,90.0
1,4688,F#2,231.469,0.25,127,90.0
1,4689,C#3,231.5,0.25,120,90.0
1,4690,G#3,231.701,0.086,127,90.0
1,4691,A4,231.719,0.25,127,90.0
1,4692,C2,231.719,0.25,127,90.0
1,4693,B1,231.75,0.25,120,90.0
1,4694,A4,231.75,0.25,120,90.0
1,4695,C#3,231.75,0.25,120,90.0
1,4696,A5,231.75,0.25,100,90.0
1,4697,C#5,231.75,0.25,100,90.0
1,4698,A3,231.75,0.25,100,90.0
1,4699,A4,231.75,0.25,100,90.0
1,4700,A3,231.833,0.25,100,90.0
1,4701,A4,231.833,0.25,100,90.0
1,4702,G#3,231.961,0.039,127,90.0
1,4703,A4,231.969,1/100,127,90.0
1,4704,F#2,231.969,1/100,127,90.0
1,4705,G#3,232.0,0.156,127,90.0
1,4706,B1,232.0,0.25,120,90.0
1,4707,A4,232.0,0.25,120,90.0
1,4708,C#3,232.0,0.25,120,90.0
1,4709,A5,232.0,83/1000,100,90.0
1,4710,C#5,232.0,83/1000,100,90.0
1,4711,A3,232.0,83/1000,100,90.0
1,4712,A4,232.0,83/1000,100,90.0
1,4713,A3,232.083,83/1000,100,90.0
1,4714,A4,232.083,83/1000,100,90.0
1,4715,A4,232.219,6/25,127,90.0
1,4716,F#2,232.219,6/25,127,90.0
1,4717,C#3,232.25,0.25,120,90.0
1,4718,G#3,232.422,83/1000,127,90.0
1,4719,A4,232.458,0.25,127,90.0
1,4720,C#2,232.5,0.5,120,90.0
1,4721,G#4,232.5,0.25,120,90.0
1,4722,C#3,232.5,0.25,120,90.0
1,4723,C#5,232.5,333/1000,100,90.0
1,4724,G#5,232.5,333/1000,100,90.0
1,4725,G#3,232.5,333/1000,100,90.0
1,4726,G#4,232.5,333/1000,100,90.0
1,4727,G#3,232.583,333/1000,100,90.0
1,4728,G#4,232.583,333/1000,100,90.0
1,4729,G#3,232.672,0.102,127,90.0
1,4730,A4,232.708,0.25,127,90.0
1,4731,C2,232.708,0.25,127,90.0
1,4732,F#2,232.708,0.25,127,90.0
1,4733,C#3,232.75,0.25,120,90.0
1,4734,G#3,232.935,3/25,127,90.0
1,4735,A4,232.958,0.25,127,90.0
1,4736,C#3,233.0,0.25,120,90.0
1,4737,F#4,233.0,0.25,127,90.0
1,4738,F#3,233.0,0.25,127,90.0
1,4739,G#3,233.19,99/1000,127,90.0
1,4740,A4,233.208,0.25,127,90.0
1,4741,D2,233.208,0.25,127,90.0
1,4742,F#2,233.208,0.25,127,90.0
1,4743,C#3,233.25,0.25,120,90.0
1,4744,G#3,233.44,99/1000,127,90.0
1,4745,A4,233.458,0.25,127,90.0
1,4746,C#3,233.5,0.25,120,90.0
1,4747,G#3,233.701,0.109,127,90.0
1,4748,A4,233.708,0.25,127,90.0
1,4749,F#2,233.708,0.25,127,90.0
1,4750,C#3,233.75,0.25,120,90.0
1,4751,A4,233.958,0.25,127,90.0
1,4752,C2,233.958,0.25,127,90.0
1,4753,G#3,233.971,159/500,127,90.0
1,4754,C#3,234.0,0.25,120,90.0
1,4755,A4,234.208,0.25,127,90.0
1,4756,F#2,234.208,0.25,127,90.0
1,4757,C#3,234.25,0.25,120,90.0
1,4758,G#3,234.445,0.125,127,90.0
1,4759,A4,234.458,0.25,127,90.0
1,4760,C#3,234.5,0.25,120,90.0
1,4761,A4,234.708,0.25,127,90.0
1,4762,C2,234.708,0.25,127,90.0
1,4763,F#2,234.708,0.25,127,90.0
1,4764,G#3,234.721,71/250,127,90.0
1,4765,C#3,234.75,0.25,120,90.0
1,4766,A4,234.958,0.25,127,90.0
1,4767,C#3,235.0,0.25,120,90.0
1,4768,F#3,235.0,0.25,127,90.0
1,4769,F#4,235.0,0.25,127,90.0
1,4770,G#3,235.167,99/1000,127,90.0
1,4771,A4,235.208,0.25,127,90.0
1,4772,D2,235.208,0.25,127,90.0
1,4773,F#2,235.208,0.25,127,90.0
1,4774,C#3,235.25,0.25,120,90.0
1,4775,G#3,235.44,99/1000,127,90.0
1,4776,A4,235.458,0.25,127,90.0
1,4777,C#3,235.5,0.25,120,90.0
1,4778,G#3,235.693,0.094,127,90.0
1,4779,A4,235.708,0.25,127,90.0
1,4780,F#2,235.708,0.25,127,90.0
1,4781,E2,235.75,0.25,120,90.0
1,4782,G#4,235.75,0.25,120,90.0
1,4783,C#3,235.75,0.25,120,90.0
1,4784,G#5,235.75,0.25,100,90.0
1,4785,C#5,235.75,0.25,100,90.0
1,4786,G#3,235.75,0.25,100,90.0
1,4787,G#4,235.75,0.25,100,90.0
1,4788,G#3,235.833,0.25,100,90.0
1,4789,G#4,235.833,0.25,100,90.0
1,4790,G#3,235.953,0.047,127,90.0
1,4791,A4,235.958,0.25,127,90.0
1,4792,C2,235.958,0.25,127,90.0
1,4793,G#3,236.0,279/1000,127,90.0
1,4794,E2,236.0,0.25,120,90.0
1,4795,C#3,236.0,0.25,120,90.0
1,4796,G#5,236.0,83/1000,100,90.0
1,4797,C#5,236.0,83/1000,100,90.0
1,4798,G#3,236.0,83/1000,100,90.0
1,4799,G#4,236.0,83/1000,100,90.0
1,4800,G#3,236.083,83/1000,100,90.0
1,4801,G#4,236.083,83/1000,100,90.0
1,4802,A4,236.208,1/100,127,90.0
1,4803,F#2,236.208,1/100,127,90.0
1,4804,C#3,236.25,0.25,120,90.0
1,4805,G#3,236.458,91/1000,127,90.0
1,4806,A4,236.458,6/25,127,90.0
1,4807,F#2,236.458,6/25,127,90.0
1,4808,E-2,236.5,0.5,120,90.0
1,4809,A4,236.5,0.25,120,90.0
1,4810,C#3,236.5,0.25,120,90.0
1,4811,C#5,236.5,333/1000,100,90.0
1,4812,A5,236.5,333/1000,100,90.0
1,4813,A4,236.5,333/1000,100,90.0
1,4814,A3,236.5,333/1000,100,90.0
1,4815,A4,236.583,333/1000,100,90.0
1,4816,A3,236.583,333/1000,100,90.0
1,4817,A4,236.698,0.25,127,90.0
1,4818,G#3,236.721,307/1000,127,90.0
1,4819,C#3,236.75,0.25,120,90.0
1,4820,A4,236.948,0.25,127,90.0
1,4821,C2,236.948,0.25,127,90.0
1,4822,F#2,236.948,0.25,127,90.0
1,4823,C#3,237.0,0.25,120,90.0
1,4824,F#3,237.0,0.25,127,90.0
1,4825,F#4,237.0,0.25,127,90.0
1,4826,A4,237.198,0.25,127,90.0
1,4827,G#3,237.237,107/1000,127,90.0
1,4828,C#3,237.25,0.25,120,90.0
1,4829,A4,237.448,0.25,127,90.0
1,4830,D2,237.448,0.25,127,90.0
1,4831,F#2,237.448,0.25,127,90.0
1,4832,G#3,237.482,107/1000,127,90.0
1,4833,C#3,237.5,0.25,120,90.0
1,4834,A4,237.698,0.25,127,90.0
1,4835,G#3,237.721,12/125,127,90.0
1,4836,F#2,237.75,0.5,120,90.0
1,4837,F#4,237.75,0.25,120,90.0
1,4838,C#3,237.75,0.25,120,90.0
1,4839,F#5,237.75,333/1000,100,90.0
1,4840,C#5,237.75,333/1000,100,90.0
1,4841,F#3,237.75,333/1000,100,90.0
1,4842,F#4,237.75,333/1000,100,90.0
1,4843,F#3,237.833,333/1000,100,90.0
1,4844,F#4,237.833,333/1000,100,90.0
1,4845,A4,237.948,0.25,127,90.0
1,4846,F#2,237.948,0.25,127,90.0
1,4847,G#3,237.961,0.297,127,90.0
1,4848,C#3,238.0,0.25,120,90.0
1,4849,A4,238.198,0.25,127,90.0
1,4850,C2,238.198,0.25,127,90.0
1,4851,C#3,238.25,0.25,120,90.0
1,4852,A4,238.448,0.25,127,90.0
1,4853,F#2,238.448,0.25,127,90.0
1,4854,E2,238.5,0.5,120,90.0
1,4855,G#4,238.5,0.25,120,90.0
1,4856,C#3,238.5,0.25,120,90.0
1,4857,G#5,238.5,333/1000,100,90.0
1,4858,C#5,238.5,333/1000,100,90.0
1,4859,G#3,238.5,333/1000,100,90.0
1,4860,G#4,238.5,333/1000,100,90.0
1,4861,G#3,238.583,333/1000,100,90.0
1,4862,G#4,238.583,333/1000,100,90.0
1,4863,A4,238.698,0.25,127,90.0
1,4864,G#3,238.714,12/125,127,90.0
1,4865,C#3,238.75,0.25,120,90.0
1,4866,A4,238.948,0.25,127,90.0
1,4867,C2,238.948,0.25,127,90.0
1,4868,F#2,238.948,0.25,127,90.0
1,4869,G#3,238.961,14/125,127,90.0
1,4870,C#3,239.0,0.25,120,90.0
1,4871,F#4,239.0,0.25,127,90.0
1,4872,F#3,239.0,0.25,127,90.0
1,4873,A4,239.198,0.25,127,90.0
1,4874,G#3,239.211,107/1000,127,90.0
1,4875,C#3,239.25,0.25,120,90.0
1,4876,A4,239.448,0.25,127,90.0
1,4877,D2,239.448,0.25,127,90.0
1,4878,F#2,239.448,0.25,127,90.0
1,4879,G#3,239.464,13/125,127,90.0
1,4880,C#3,239.5,0.25,120,90.0
1,4881,A4,239.698,0.25,127,90.0
1,4882,G#3,239.714,0.102,127,90.0
1,4883,B1,239.75,0.25,120,90.0
1,4884,A4,239.75,0.25,120,90.0
1,4885,C#3,239.75,0.25,120,90.0
1,4886,C#5,239.75,0.25,100,90.0
1,4887,A5,239.75,0.25,100,90.0
1,4888,A3,239.75,0.25,100,90.0
1,4889,A4,239.75,0.25,100,90.0
1,4890,A3,239.833,0.25,100,90.0
1,4891,A4,239.833,0.25,100,90.0
1,4892,A4,239.948,0.25,127,90.0
1,4893,F#2,239.948,0.25,127,90.0
1,4894,G#3,239.969,0.031,127,90.0
1,4895,G#3,240.0,143/500,127,90.0
1,4896,B1,240.0,0.25,120,90.0
1,4897,C#3,240.0,0.25,120,90.0
1,4898,C#5,240.0,83/1000,100,90.0
1,4899,A5,240.0,83/1000,100,90.0
1,4900,A3,240.0,83/1000,100,90.0
1,4901,A4,240.0,83/1000,100,90.0
1,4902,A3,240.083,83/1000,100,90.0
1,4903,A4,240.083,83/1000,100,90.0
1,4904,A4,240.198,0.25,127,90.0
1,4905,C2,240.198,0.25,127,90.0
1,4906,C#3,240.25,0.25,120,90.0
1,4907,A4,240.448,1/100,127,90.0
1,4908,F#2,240.448,1/100,127,90.0
1,4909,C#2,240.5,0.5,120,90.0
1,4910,G#4,240.5,0.25,120,90.0
1,4911,C#3,240.5,0.25,120,90.0
1,4912,C#5,240.5,333/1000,100,90.0
1,4913,G#5,240.5,333/1000,100,90.0
1,4914,G#3,240.5,333/1000,100,90.0
1,4915,G#4,240.5,333/1000,100,90.0
1,4916,G#3,240.583,333/1000,100,90.0
1,4917,G#4,240.583,333/1000,100,90.0
1,4918,A4,240.698,6/25,127,90.0
1,4919,F#2,240.698,6/25,127,90.0
1,4920,C#3,240.75,0.25,120,90.0
1,4921,G#3,240.909,99/1000,127,90.0
1,4922,A4,240.938,0.25,127,90.0
1,4923,C#3,241.0,0.25,120,90.0
1,4924,F#4,241.0,0.25,127,90.0
1,4925,F#3,241.0,0.25,127,90.0
1,4926,G#3,241.156,99/1000,127,90.0
1,4927,A4,241.188,0.25,127,90.0
1,4928,C2,241.188,0.25,127,90.0
1,4929,F#2,241.188,0.25,127,90.0
1,4930,C#3,241.25,0.25,120,90.0
1,4931,G#3,241.427,0.094,127,90.0
1,4932,A4,241.438,0.25,127,90.0
1,4933,C#3,241.5,0.25,120,90.0
1,4934,G#3,241.685,12/125,127,90.0
1,4935,A4,241.688,0.25,127,90.0
1,4936,D2,241.688,0.25,127,90.0
1,4937,F#2,241.688,0.25,127,90.0
1,4938,C#3,241.75,0.25,120,90.0
1,4939,A4,241.938,0.25,127,90.0
1,4940,G#3,241.948,349/1000,127,90.0
1,4941,C#3,242.0,0.25,120,90.0
1,4942,A4,242.188,0.25,127,90.0
1,4943,F#2,242.188,0.25,127,90.0
1,4944,C#3,242.25,0.25,120,90.0
1,4945,A4,242.438,0.25,127,90.0
1,4946,C2,242.438,0.25,127,90.0
1,4947,G#3,242.451,0.125,127,90.0
1,4948,C#3,242.5,0.25,120,90.0
1,4949,A4,242.688,0.25,127,90.0
1,4950,F#2,242.688,0.25,127,90.0
1,4951,G#3,242.711,0.32,127,90.0
1,4952,C#3,242.75,0.25,120,90.0
1,4953,A4,242.938,0.25,127,90.0
1,4954,C#3,243.0,0.25,120,90.0
1,4955,F#4,243.0,0.25,127,90.0
1,4956,F#3,243.0,0.25,127,90.0
1,4957,A4,243.188,0.25,127,90.0
1,4958,C2,243.188,0.25,127,90.0
1,4959,F#2,243.188,0.25,127,90.0
1,4960,G#3,243.195,0.117,127,90.0
1,4961,C#3,243.25,0.25,120,90.0
1,4962,A4,243.438,0.25,127,90.0
1,4963,G#3,243.466,23/200,127,90.0
1,4964,C#3,243.5,0.25,120,90.0
1,4965,A4,243.688,0.25,127,90.0
1,4966,D2,243.688,0.25,127,90.0
1,4967,F#2,243.688,0.25,127,90.0
1,4968,G#3,243.716,13/125,127,90.0
1,4969,E2,243.75,0.25,120,90.0
1,4970,G#4,243.75,0.25,120,90.0
1,4971,C#3,243.75,0.25,120,90.0
1,4972,G#5,243.75,0.25,100,90.0
1,4973,C#5,243.75,0.25,100,90.0
1,4974,G#4,243.75,0.25,100,90.0
1,4975,G#3,243.75,0.25,100,90.0
1,4976,G#4,243.833,0.25,100,90.0
1,4977,G#3,243.833,0.25,100,90.0
1,4978,A4,243.938,0.25,127,90.0
1,4979,G#3,243.971,29/1000,127,90.0
1,4980,G#3,244.0,333/1000,127,90.0
1,4981,E2,244.0,0.25,120,90.0
1,4982,C#3,244.0,0.25,120,90.0
1,4983,G#5,244.0,83/1000,100,90.0
1,4984,C#5,244.0,83/1000,100,90.0
1,4985,G#4,244.0,83/1000,100,90.0
1,4986,G#3,244.0,83/1000,100,90.0
1,4987,G#4,244.083,83/1000,100,90.0
1,4988,G#3,244.083,83/1000,100,90.0
1,4989,A4,244.188,0.25,127,90.0
1,4990,F#2,244.188,0.25,127,90.0
1,4991,C#3,244.25,0.25,120,90.0
1,4992,A4,244.438,0.25,127,90.0
1,4993,C2,244.438,0.25,127,90.0
1,4994,G#3,244.5,0.094,127,90.0
1,4995,E-2,244.5,0.5,120,90.0
1,4996,A4,244.5,0.25,120,90.0
1,4997,C#3,244.5,0.25,120,90.0
1,4998,A5,244.5,333/1000,100,90.0
1,4999,C#5,244.5,333/1000,100,90.0
1,5000,A4,244.5,333/1000,100,90.0
1,5001,A3,244.5,333/1000,100,90.0
1,5002,A4,244.583,333/1000,100,90.0
1,5003,A3,244.583,333/1000,100,90.0
1,5004,A4,244.688,1/100,127,90.0
1,5005,F#2,244.688,1/100,127,90.0
1,5006,C#3,244.75,0.25,120,90.0
1,5007,G#3,244.758,0.305,127,90.0
1,5008,A4,244.938,6/25,127,90.0
1,5009,F#2,244.938,6/25,127,90.0
1,5010,C#3,245.0,0.25,120,90.0
1,5011,F#4,245.0,0.25,127,90.0
1,5012,F#3,245.0,0.25,127,90.0
1,5013,A4,245.177,0.25,127,90.0
1,5014,C#3,245.25,0.25,120,90.0
1,5015,G#3,245.258,12/125,127,90.0
1,5016,A4,245.427,0.25,127,90.0
1,5017,C2,245.427,0.25,127,90.0
1,5018,F#2,245.427,0.25,127,90.0
1,5019,G#3,245.5,0.102,127,90.0
1,5020,C#3,245.5,0.25,120,90.0
1,5021,A4,245.677,0.25,127,90.0
1,5022,G#3,245.737,0.102,127,90.0
1,5023,F#2,245.75,0.5,120,90.0
1,5024,F#4,245.75,0.25,120,90.0
1,5025,C#3,245.75,0.25,120,90.0
1,5026,C#5,245.75,333/1000,100,90.0
1,5027,F#5,245.75,333/1000,100,90.0
1,5028,F#3,245.75,333/1000,100,90.0
1,5029,F#4,245.75,333/1000,100,90.0
1,5030,F#3,245.833,333/1000,100,90.0
1,5031,F#4,245.833,333/1000,100,90.0
1,5032,A4,245.927,0.25,127,90.0
1,5033,D2,245.927,0.25,127,90.0
1,5034,F#2,245.927,0.25,127,90.0
1,5035,G#3,245.99,189/500,127,90.0
1,5036,C#3,246.0,0.25,120,90.0
1,5037,A4,246.177,0.25,127,90.0
1,5038,C#3,246.25,0.25,120,90.0
1,5039,A4,246.427,0.25,127,90.0
1,5040,F#2,246.427,0.25,127,90.0
1,5041,E2,246.5,0.5,120,90.0
1,5042,G#4,246.5,0.25,120,90.0
1,5043,C#3,246.5,0.25,120,90.0
1,5044,C#5,246.5,333/1000,100,90.0
1,5045,G#5,246.5,333/1000,100,90.0
1,5046,G#3,246.5,333/1000,100,90.0
1,5047,G#4,246.5,333/1000,100,90.0
1,5048,G#3,246.583,333/1000,100,90.0
1,5049,G#4,246.583,333/1000,100,90.0
1,5050,A4,246.677,0.25,127,90.0
1,5051,C2,246.677,0.25,127,90.0
1,5052,G#3,246.721,107/1000,127,90.0
1,5053,C#3,246.75,0.25,120,90.0
1,5054,A4,246.927,0.25,127,90.0
1,5055,F#2,246.927,0.25,127,90.0
1,5056,G#3,246.971,12/125,127,90.0
1,5057,C#3,247.0,0.25,120,90.0
1,5058,F#4,247.0,0.25,127,90.0
1,5059,F#3,247.0,0.25,127,90.0
1,5060,A4,247.177,0.25,127,90.0
1,5061,G#3,247.224,0.094,127,90.0
1,5062,C#3,247.25,0.25,120,90.0
1,5063,A4,247.427,0.25,127,90.0
1,5064,C2,247.427,0.25,127,90.0
1,5065,F#2,247.427,0.25,127,90.0
1,5066,G#3,247.464,99/1000,127,90.0
1,5067,C#3,247.5,0.25,108,90.0
1,5068,E3,247.5,0.25,108,90.0
1,5069,A4,247.677,0.25,127,90.0
1,5070,G#3,247.703,12/125,127,90.0
1,5071,B1,247.75,0.25,120,90.0
1,5072,A4,247.75,0.25,120,90.0
1,5073,C#5,247.75,0.25,100,90.0
1,5074,A5,247.75,0.25,100,90.0
1,5075,C#3,247.75,0.25,119,90.0
1,5076,C#3,247.75,0.25,119,90.0
1,5077,A3,247.75,0.25,100,90.0
1,5078,A4,247.75,0.25,100,90.0
1,5079,A3,247.833,0.25,100,90.0
1,5080,A4,247.833,0.25,100,90.0
1,5081,A4,247.927,0.25,127,90.0
1,5082,D2,247.927,0.25,127,90.0
1,5083,F#2,247.927,0.25,127,90.0
1,5084,G#3,247.956,11/250,127,90.0
1,5085,G#3,248.0,37/200,127,90.0
1,5086,B1,248.0,0.25,120,90.0
1,5087,C#5,248.0,83/1000,100,90.0
1,5088,A5,248.0,83/1000,100,90.0
1,5089,C#3,248.0,0.25,110,90.0
1,5090,E3,248.0,0.25,110,90.0
1,5091,A3,248.0,83/1000,100,90.0
1,5092,A4,248.0,83/1000,100,90.0
1,5093,A3,248.083,83/1000,100,90.0
1,5094,A4,248.083,83/1000,100,90.0
1,5095,A4,248.177,0.25,127,90.0
1,5096,C#3,248.25,0.25,112,90.0
1,5097,C#3,248.25,0.25,112,90.0
1,5098,A4,248.427,0.25,127,90.0
1,5099,F#2,248.427,0.25,127,90.0
1,5100,G#3,248.479,13/125,127,90.0
1,5101,C#2,248.5,0.5,120,90.0
1,5102,G#4,248.5,0.25,120,90.0
1,5103,C#3,248.5,0.25,120,90.0
1,5104,G#5,248.5,333/1000,100,90.0
1,5105,C#5,248.5,333/1000,100,90.0
1,5106,G#3,248.5,333/1000,100,90.0
1,5107,G#4,248.5,333/1000,100,90.0
1,5108,G#3,248.583,333/1000,100,90.0
1,5109,G#4,248.583,333/1000,100,90.0
1,5110,A4,248.677,0.25,127,90.0
1,5111,C2,248.677,0.25,127,90.0
1,5112,G#3,248.724,12/125,127,90.0
1,5113,C#3,248.75,0.25,120,90.0
1,5114,A4,248.927,1/100,127,90.0
1,5115,F#2,248.927,1/100,127,90.0
1,5116,G#3,248.958,0.094,127,90.0
1,5117,C#3,249.0,0.25,120,90.0
1,5118,F#4,249.0,0.25,127,90.0
1,5119,F#3,249.0,0.25,127,90.0
1,5120,A4,249.177,6/25,127,90.0
1,5121,F#2,249.177,6/25,127,90.0
1,5122,G#3,249.19,12/125,127,90.0
1,5123,C#3,249.25,0.25,120,90.0
1,5124,A4,249.417,0.25,127,90.0
1,5125,G#3,249.456,13/125,127,90.0
1,5126,C#3,249.5,0.25,120,90.0
1,5127,A4,249.667,0.25,127,90.0
1,5128,C2,249.667,0.25,127,90.0
1,5129,F#2,249.667,0.25,127,90.0
1,5130,G#3,249.714,99/1000,127,90.0
1,5131,C#3,249.75,0.25,120,90.0
1,5132,A4,249.917,0.25,127,90.0
1,5133,G#3,249.977,73/250,127,90.0
1,5134,C#3,250.0,0.25,120,90.0
1,5135,A4,250.167,0.25,127,90.0
1,5136,D2,250.167,0.25,127,90.0
1,5137,F#2,250.167,0.25,127,90.0
1,5138,C#3,250.25,0.25,120,90.0
1,5139,A4,250.417,0.25,127,90.0
1,5140,G#3,250.451,23/200,127,90.0
1,5141,C#3,250.5,0.25,120,90.0
1,5142,A4,250.667,0.25,127,90.0
1,5143,F#2,250.667,0.25,127,90.0
1,5144,G#3,250.727,73/250,127,90.0
1,5145,C#3,250.75,0.25,120,90.0
1,5146,A4,250.917,0.25,127,90.0
1,5147,C2,250.917,0.25,127,90.0
1,5148,C#3,251.0,0.25,120,90.0
1,5149,F#4,251.0,0.25,127,90.0
1,5150,F#3,251.0,0.25,127,90.0
1,5151,A4,251.167,0.25,127,90.0
1,5152,F#2,251.167,0.25,127,90.0
1,5153,G#3,251.193,16/125,127,90.0
1,5154,C#3,251.25,0.25,120,90.0
1,5155,A4,251.417,0.25,127,90.0
1,5156,G#3,251.466,14/125,127,90.0
1,5157,C#3,251.5,0.25,120,90.0
1,5158,A4,251.667,0.25,127,90.0
1,5159,C2,251.667,0.25,127,90.0
1,5160,F#2,251.667,0.25,127,90.0
1,5161,G#3,251.732,107/1000,127,90.0
1,5162,E2,251.75,0.25,120,90.0
1,5163,G#4,251.75,0.25,120,90.0
1,5164,C#3,251.75,0.25,120,90.0
1,5165,C#5,251.75,0.25,100,90.0
1,5166,G#5,251.75,0.25,100,90.0
1,5167,G#4,251.75,0.25,100,90.0
1,5168,G#3,251.75,0.25,100,90.0
1,5169,G#4,251.833,0.25,100,90.0
1,5170,G#3,251.833,0.25,100,90.0
1,5171,A4,251.917,0.25,127,90.0
1,5172,G#3,251.974,13/500,127,90.0
1,5173,G#3,252.0,0.289,127,90.0
1,5174,E2,252.0,0.25,120,90.0
1,5175,C#3,252.0,0.25,120,90.0
1,5176,C#5,252.0,83/1000,100,90.0
1,5177,G#5,252.0,83/1000,100,90.0
1,5178,G#4,252.0,83/1000,100,90.0
1,5179,G#3,252.0,83/1000,100,90.0
1,5180,G#4,252.083,83/1000,100,90.0
1,5181,G#3,252.083,83/1000,100,90.0
1,5182,A4,252.167,0.25,127,90.0
1,5183,D2,252.167,0.25,127,90.0
1,5184,F#2,252.167,0.25,127,90.0
1,5185,C#3,252.25,0.25,120,90.0
1,5186,A4,252.417,0.25,127,90.0
1,5187,G#3,252.484,99/1000,127,90.0
1,5188,E-2,252.5,0.5,120,90.0
1,5189,A4,252.5,0.25,120,90.0
1,5190,C#3,252.5,0.25,120,90.0
1,5191,A5,252.5,333/1000,100,90.0
1,5192,C#5,252.5,333/1000,100,90.0
1,5193,A3,252.5,333/1000,100,90.0
1,5194,A4,252.5,333/1000,100,90.0
1,5195,A3,252.583,333/1000,100,90.0
1,5196,A4,252.583,333/1000,100,90.0
1,5197,A4,252.667,0.25,127,90.0
1,5198,F#2,252.667,0.25,127,90.0
1,5199,G#3,252.734,163/500,127,90.0
1,5200,C#3,252.75,0.25,120,90.0
1,5201,A4,252.917,0.25,127,90.0
1,5202,C2,252.917,0.25,127,90.0
1,5203,C#3,253.0,0.25,120,90.0
1,5204,F#4,253.0,0.25,127,90.0
1,5205,F#3,253.0,0.25,127,90.0
1,5206,A4,253.167,1/100,127,90.0
1,5207,F#2,253.167,1/100,127,90.0
1,5208,G#3,253.216,0.094,127,90.0
1,5209,C#3,253.25,0.25,120,90.0
1,5210,A4,253.417,6/25,127,90.0
1,5211,F#2,253.417,6/25,127,90.0
1,5212,G#3,253.469,61/500,127,90.0
1,5213,C#3,253.5,0.25,120,90.0
1,5214,A4,253.656,0.25,127,90.0
1,5215,G#3,253.719,13/125,127,90.0
1,5216,F#2,253.75,0.5,120,90.0
1,5217,F#4,253.75,0.25,120,90.0
1,5218,C#3,253.75,0.25,120,90.0
1,5219,C#5,253.75,333/1000,100,90.0
1,5220,F#5,253.75,333/1000,100,90.0
1,5221,F#3,253.75,333/1000,100,90.0
1,5222,F#4,253.75,333/1000,100,90.0
1,5223,F#3,253.833,333/1000,100,90.0
1,5224,F#4,253.833,333/1000,100,90.0
1,5225,A4,253.906,0.25,127,90.0
1,5226,C2,253.906,0.25,127,90.0
1,5227,F#2,253.906,0.25,127,90.0
1,5228,G#3,253.951,0.312,127,90.0
1,5229,C#3,254.0,0.25,120,90.0
1,5230,A4,254.156,0.25,127,90.0
1,5231,C#3,254.25,0.25,120,90.0
1,5232,A4,254.406,0.25,127,90.0
1,5233,D2,254.406,0.25,127,90.0
1,5234,F#2,254.406,0.25,127,90.0
1,5235,E2,254.5,0.5,120,90.0
1,5236,G#4,254.5,0.25,120,90.0
1,5237,C#3,254.5,0.25,120,90.0
1,5238,G#5,254.5,333/1000,100,90.0
1,5239,C#5,254.5,333/1000,100,90.0
1,5240,G#3,254.5,333/1000,100,90.0
1,5241,G#4,254.5,333/1000,100,90.0
1,5242,G#3,254.583,333/1000,100,90.0
1,5243,G#4,254.583,333/1000,100,90.0
1,5244,A4,254.656,0.25,127,90.0
1,5245,C#3,254.75,0.25,120,90.0
1,5246,A4,254.906,0.25,127,90.0
1,5247,F#2,254.906,0.25,127,90.0
1,5248,C#3,255.0,0.25,120,90.0
1,5249,F#3,255.0,0.25,127,90.0
1,5250,F#4,255.0,0.25,127,90.0
1,5251,A4,255.156,0.25,127,90.0
1,5252,C2,255.156,0.25,127,90.0
1,5253,C#3,255.25,0.25,120,90.0
1,5254,A4,255.406,0.25,127,90.0
1,5255,F#2,255.406,0.25,127,90.0
1,5256,C#3,255.5,0.25,120,90.0
1,5257,A4,255.656,0.25,127,90.0
1,5258,B2,255.75,0.25,115,90.0
1,5259,B1,255.75,0.25,120,90.0
1,5260,B3,255.75,0.25,120,90.0
1,5261,C#3,255.75,0.25,120,90.0
1,5262,B2,255.75,0.25,50,90.0
1,5263,A4,255.75,0.25,50,90.0
1,5264,A3,255.75,0.25,50,90.0
1,5265,B3,255.75,0.25,50,90.0
1,5266,B3,255.75,0.25,100,90.0
1,5267,A4,255.75,0.25,100,90.0
1,5268,A3,255.75,0.25,100,90.0
1,5269,B2,255.75,0.25,100,90.0
1,5270,B3,255.833,0.25,100,90.0
1,5271,A4,255.833,0.25,100,90.0
1,5272,A3,255.833,0.25,100,90.0
1,5273,B2,255.833,0.25,100,90.0
1,5274,A4,255.906,0.25,127,90.0
1,5275,C2,255.906,0.25,127,90.0
1,5276,F#2,255.906,0.25,127,90.0
1,5277,B2,256.0,83/1000,115,90.0
1,5278,B1,256.0,0.25,120,90.0
1,5279,C#3,256.0,0.25,101,90.0
1,5280,C#3,256.0,0.25,120,90.0
1,5281,B2,256.0,83/1000,50,90.0
1,5282,A4,256.0,83/1000,50,90.0
1,5283,A3,256.0,83/1000,50,90.0
1,5284,B3,256.0,83/1000,50,90.0
1,5285,B3,256.0,83/1000,100,90.0
1,5286,A4,256.0,83/1000,100,90.0
1,5287,A3,256.0,83/1000,100,90.0
1,5288,B2,256.0,83/1000,100,90.0
1,5289,B3,256.083,83/1000,100,90.0
1,5290,A4,256.083,83/1000,100,90.0
1,5291,A3,256.083,83/1000,100,90.0
1,5292,B2,256.083,83/1000,100,90.0
1,5293,A4,256.156,0.25,127,90.0
1,5294,C#3,256.25,0.25,104,90.0
1,5295,A4,256.406,0.25,127,90.0
1,5296,D2,256.406,0.25,127,90.0
1,5297,F#2,256.406,0.25,127,90.0
1,5298,C#3,256.5,333/1000,115,90.0
1,5299,C#2,256.5,0.5,120,90.0
1,5300,C#4,256.5,0.25,120,90.0
1,5301,C#3,256.5,0.25,120,90.0
1,5302,C#3,256.5,0.5,96,90.0
1,5303,C#4,256.5,333/1000,50,90.0
1,5304,C#3,256.5,333/1000,50,90.0
1,5305,G#4,256.5,333/1000,50,90.0
1,5306,G#3,256.5,333/1000,50,90.0
1,5307,G#4,256.5,333/1000,100,90.0
1,5308,C#4,256.5,333/1000,100,90.0
1,5309,C#3,256.5,333/1000,100,90.0
1,5310,G#3,256.5,333/1000,100,90.0
1,5311,G#4,256.583,333/1000,100,90.0
1,5312,C#4,256.583,333/1000,100,90.0
1,5313,C#3,256.583,333/1000,100,90.0
1,5314,G#3,256.583,333/1000,100,90.0
1,5315,A4,256.656,0.25,127,90.0
1,5316,C#3,256.75,0.25,95,90.0
1,5317,A4,256.906,0.25,127,90.0
1,5318,F#2,256.906,0.25,127,90.0
1,5319,C#3,257.0,0.25,113,90.0
1,5320,F#4,257.0,0.25,127,90.0
1,5321,F#3,257.0,0.25,127,90.0
1,5322,A4,257.156,0.25,127,90.0
1,5323,C2,257.156,0.25,127,90.0
1,5324,C#3,257.25,0.25,102,90.0
1,5325,A4,257.406,1/100,127,90.0
1,5326,F#2,257.406,1/100,127,90.0
1,5327,C#3,257.5,0.25,90,90.0
1,5328,A4,257.656,6/25,127,90.0
1,5329,F#2,257.656,6/25,127,90.0
1,5330,C#3,257.75,0.25,53,90.0
1,5331,A4,257.896,0.25,127,90.0
1,5332,C#3,258.0,0.25,101,90.0
1,5333,A4,258.146,0.25,127,90.0
1,5334,C2,258.146,0.25,127,90.0
1,5335,F#2,258.146,0.25,127,90.0
1,5336,C#3,258.25,0.25,99,90.0
1,5337,A4,258.396,0.25,127,90.0
1,5338,C#3,258.5,0.25,105,90.0
1,5339,A4,258.646,0.25,127,90.0
1,5340,D2,258.646,0.25,127,90.0
1,5341,F#2,258.646,0.25,127,90.0
1,5342,C#3,258.75,0.25,104,90.0
1,5343,A4,258.896,0.25,127,90.0
1,5344,C#3,259.0,0.25,109,90.0
1,5345,F#4,259.0,0.25,127,90.0
1,5346,F#3,259.0,0.25,127,90.0
1,5347,A4,259.146,0.25,127,90.0
1,5348,F#2,259.146,0.25,127,90.0
1,5349,C#3,259.25,0.25,97,90.0
1,5350,A4,259.396,0.25,127,90.0
1,5351,C2,259.396,0.25,127,90.0
1,5352,C#3,259.5,0.25,92,90.0
1,5353,A4,259.646,0.25,127,90.0
1,5354,F#2,259.646,0.25,127,90.0
1,5355,E2,259.75,0.25,120,90.0
1,5356,C#3,259.75,0.25,120,90.0
1,5357,C#3,259.75,0.25,104,90.0
1,5358,G#3,259.75,0.25,100,90.0
1,5359,G#4,259.75,0.25,100,90.0
1,5360,G#3,259.833,0.25,100,90.0
1,5361,G#4,259.833,0.25,100,90.0
1,5362,A4,259.896,0.25,127,90.0
1,5363,E2,260.0,0.25,120,90.0
1,5364,C#3,260.0,0.25,79,90.0
1,5365,C#3,260.0,0.25,104,90.0
1,5366,G#3,260.0,83/1000,100,90.0
1,5367,G#4,260.0,83/1000,100,90.0
1,5368,G#3,260.083,83/1000,100,90.0
1,5369,G#4,260.083,83/1000,100,90.0
1,5370,A4,260.146,0.25,127,90.0
1,5371,C2,260.146,0.25,127,90.0
1,5372,F#2,260.146,0.25,127,90.0
1,5373,C#3,260.25,0.25,87,90.0
1,5374,A4,260.396,0.25,127,90.0
1,5375,E-2,260.5,0.5,120,90.0
1,5376,C#3,260.5,0.25,120,90.0
1,5377,C#3,260.5,0.5,101,90.0
1,5378,A3,260.5,333/1000,100,90.0
1,5379,A4,260.5,333/1000,100,90.0
1,5380,A3,260.583,333/1000,100,90.0
1,5381,A4,260.583,333/1000,100,90.0
1,5382,A4,260.646,0.25,127,90.0
1,5383,D2,260.646,0.25,127,90.0
1,5384,F#2,260.646,0.25,127,90.0
1,5385,C#3,260.75,0.25,88,90.0
1,5386,A4,260.896,0.25,127,90.0
1,5387,C#3,261.0,0.25,95,90.0
1,5388,F#4,261.0,0.25,127,90.0
1,5389,F#3,261.0,0.25,127,90.0
1,5390,A4,261.146,0.25,127,90.0
1,5391,F#2,261.146,0.25,127,90.0
1,5392,C#3,261.25,0.25,90,90.0
1,5393,A4,261.396,0.25,127,90.0
1,5394,C2,261.396,0.25,127,90.0
1,5395,C#3,261.5,0.25,97,90.0
1,5396,A4,261.646,1/100,127,90.0
1,5397,F#2,261.646,1/100,127,90.0
1,5398,F#2,261.75,0.5,120,90.0
1,5399,C#3,261.75,0.25,120,90.0
1,5400,C#3,261.75,0.5,102,90.0
1,5401,F#3,261.75,333/1000,100,90.0
1,5402,F#4,261.75,333/1000,100,90.0
1,5403,F#3,261.833,333/1000,100,90.0
1,5404,F#4,261.833,333/1000,100,90.0
1,5405,A4,261.896,6/25,127,90.0
1,5406,F#2,261.896,6/25,127,90.0
1,5407,C#3,262.0,0.25,84,90.0
1,5408,A4,262.135,0.25,127,90.0
1,5409,C#3,262.25,0.25,83,90.0
1,5410,A4,262.385,0.25,127,90.0
1,5411,C2,262.385,0.25,127,90.0
1,5412,F#2,262.385,0.25,127,90.0
1,5413,E2,262.5,0.5,120,90.0
1,5414,C#3,262.5,0.25,120,90.0
1,5415,C#3,262.5,0.5,90,90.0
1,5416,G#4,262.5,333/1000,100,90.0
1,5417,G#3,262.5,333/1000,100,90.0
1,5418,G#4,262.583,333/1000,100,90.0
1,5419,G#3,262.583,333/1000,100,90.0
1,5420,A4,262.635,0.25,127,90.0
1,5421,C#3,262.75,0.25,81,90.0
1,5422,A4,262.885,0.25,127,90.0
1,5423,D2,262.885,0.25,127,90.0
1,5424,F#2,262.885,0.25,127,90.0
1,5425,C#3,263.0,0.25,77,90.0
1,5426,F#4,263.0,0.25,127,90.0
1,5427,F#3,263.0,0.25,127,90.0
1,5428,A4,263.135,0.25,127,90.0
1,5429,C#3,263.25,0.25,93,90.0
1,5430,A4,263.385,0.25,127,90.0
1,5431,F#2,263.385,0.25,127,90.0
1,5432,C#3,263.5,0.25,81,90.0
1,5433,E3,263.5,0.25,81,90.0
1,5434,A4,263.635,0.25,127,90.0
1,5435,C2,263.635,0.25,127,90.0
1,5436,B1,263.75,0.25,120,90.0
1,5437,C#3,263.75,0.25,85,90.0
1,5438,C#3,263.75,0.25,100,90.0
1,5439,C#3,263.75,0.25,100,90.0
1,5440,A3,263.75,0.25,100,90.0
1,5441,A4,263.75,0.25,100,90.0
1,5442,A3,263.833,0.25,100,90.0
1,5443,A4,263.833,0.25,100,90.0
1,5444,A4,263.885,0.25,127,90.0
1,5445,F#2,263.885,0.25,127,90.0
1,5446,B1,264.0,0.25,120,90.0
1,5447,C#3,264.0,0.25,85,90.0
1,5448,C#3,264.0,0.25,88,90.0
1,5449,E3,264.0,0.25,88,90.0
1,5450,A3,264.0,83/1000,100,90.0
1,5451,A4,264.0,83/1000,100,90.0
1,5452,A3,264.083,83/1000,100,90.0
1,5453,A4,264.083,83/1000,100,90.0
1,5454,A4,264.135,0.25,127,90.0
1,5455,C#3,264.25,0.25,76,90.0
1,5456,C#3,264.25,0.25,76,90.0
1,5457,A4,264.385,0.25,127,90.0
1,5458,C2,264.385,0.25,127,90.0
1,5459,F#2,264.385,0.25,127,90.0
1,5460,C#2,264.5,0.5,120,90.0
1,5461,C#3,264.5,0.25,120,90.0
1,5462,C#3,264.5,0.5,83,90.0
1,5463,G#3,264.5,333/1000,100,90.0
1,5464,G#4,264.5,333/1000,100,90.0
1,5465,G#3,264.583,333/1000,100,90.0
1,5466,G#4,264.583,333/1000,100,90.0
1,5467,A4,264.635,0.25,127,90.0
1,5468,C#3,264.75,0.25,68,90.0
1,5469,A4,264.885,0.25,127,90.0
1,5470,D2,264.885,0.25,127,90.0
1,5471,F#2,264.885,0.25,127,90.0
1,5472,C#3,265.0,0.25,67,90.0
1,5473,F#4,265.0,0.25,127,90.0
1,5474,F#3,265.0,0.25,127,90.0
1,5475,A4,265.135,0.25,127,90.0
1,5476,C#3,265.25,0.25,79,90.0
1,5477,A4,265.385,0.25,127,90.0
1,5478,F#2,265.385,0.25,127,90.0
1,5479,C#3,265.5,0.25,61,90.0
1,5480,A4,265.635,0.25,127,90.0
1,5481,C2,265.635,0.25,127,90.0
1,5482,C#3,265.75,0.25,65,90.0
1,5483,A4,265.885,1/100,127,90.0
1,5484,F#2,265.885,1/100,127,90.0
1,5485,C#3,266.0,0.25,77,90.0
1,5486,A4,266.135,6/25,127,90.0
1,5487,F#2,266.135,6/25,127,90.0
1,5488,C#3,266.25,0.25,78,90.0
1,5489,A4,266.375,0.25,127,90.0
1,5490,C#3,266.5,0.25,74,90.0
1,5491,A4,266.625,0.25,127,90.0
1,5492,C2,266.625,0.25,127,90.0
1,5493,F#2,266.625,0.25,127,90.0
1,5494,C#3,266.75,0.25,69,90.0
1,5495,A4,266.875,0.25,127,90.0
1,5496,C#3,267.0,0.25,79,90.0
1,5497,F#4,267.0,0.25,127,90.0
1,5498,F#3,267.0,0.25,127,90.0
1,5499,A4,267.125,0.25,127,90.0
1,5500,D2,267.125,0.25,127,90.0
1,5501,F#2,267.125,0.25,127,90.0
1,5502,C#3,267.25,0.25,82,90.0
1,5503,A4,267.375,0.25,127,90.0
1,5504,C#3,267.5,0.25,78,90.0
1,5505,A4,267.625,0.25,127,90.0
1,5506,F#2,267.625,0.25,127,90.0
1,5507,E2,267.75,0.25,120,90.0
1,5508,C#3,267.75,0.25,120,90.0
1,5509,C#3,267.75,0.25,68,90.0
1,5510,G#3,267.75,0.25,100,90.0
1,5511,G#4,267.75,0.25,100,90.0
1,5512,G#3,267.833,0.25,100,90.0
1,5513,G#4,267.833,0.25,100,90.0
1,5514,A4,267.875,0.25,127,90.0
1,5515,C2,267.875,0.25,127,90.0
1,5516,E2,268.0,0.25,120,90.0
1,5517,C#3,268.0,0.25,111,90.0
1,5518,C#3,268.0,0.25,68,90.0
1,5519,G#3,268.0,83/1000,100,90.0
1,5520,G#4,268.0,83/1000,100,90.0
1,5521,G#3,268.083,83/1000,100,90.0
1,5522,G#4,268.083,83/1000,100,90.0
1,5523,A4,268.125,0.25,127,90.0
1,5524,F#2,268.125,0.25,127,90.0
1,5525,C#3,268.25,0.25,105,90.0
1,5526,A4,268.375,0.25,127,90.0
1,5527,E-2,268.5,0.5,120,90.0
1,5528,C#3,268.5,0.25,120,90.0
1,5529,C#3,268.5,0.5,107,90.0
1,5530,A3,268.5,333/1000,100,90.0
1,5531,A4,268.5,333/1000,100,90.0
1,5532,A3,268.583,333/1000,100,90.0
1,5533,A4,268.583,333/1000,100,90.0
1,5534,A4,268.625,0.25,127,90.0
1,5535,C2,268.625,0.25,127,90.0
1,5536,F#2,268.625,0.25,127,90.0
1,5537,C#3,268.75,0.25,89,90.0
1,5538,A4,268.875,0.25,127,90.0
1,5539,C#3,269.0,0.25,92,90.0
1,5540,F#4,269.0,0.25,127,90.0
1,5541,F#3,269.0,0.25,127,90.0
1,5542,A4,269.125,0.25,127,90.0
1,5543,D2,269.125,0.25,127,90.0
1,5544,F#2,269.125,0.25,127,90.0
1,5545,C#3,269.25,0.25,96,90.0
1,5546,A4,269.375,0.25,127,90.0
1,5547,C#3,269.5,0.25,101,90.0
1,5548,A4,269.625,0.25,127,90.0
1,5549,F#2,269.625,0.25,127,90.0
1,5550,F#2,269.75,0.5,120,90.0
1,5551,C#3,269.75,0.25,102,90.0
1,5552,F#4,269.75,333/1000,100,90.0
1,5553,F#3,269.75,333/1000,100,90.0
1,5554,F#4,269.833,333/1000,100,90.0
1,5555,F#3,269.833,333/1000,100,90.0
1,5556,C2,269.885,0.25,127,90.0
1,5557,C#3,270.0,0.25,95,90.0
1,5558,A4,270.125,1/100,127,90.0
1,5559,F#2,270.125,1/100,127,90.0
1,5560,A4,270.135,6/25,127,90.0
1,5561,F#2,270.135,6/25,127,90.0
1,5562,C#3,270.25,0.25,72,90.0
1,5563,A4,270.375,0.25,127,90.0
1,5564,E2,270.5,0.5,120,90.0
1,5565,C#3,270.5,0.25,99,90.0
1,5566,G#4,270.5,333/1000,100,90.0
1,5567,G#3,270.5,333/1000,100,90.0
1,5568,G#4,270.583,333/1000,100,90.0
1,5569,G#3,270.583,333/1000,100,90.0
1,5570,A4,270.625,0.25,127,90.0
1,5571,C2,270.625,0.25,127,90.0
1,5572,F#2,270.625,0.25,127,90.0
1,5573,C#3,270.75,0.25,97,90.0
1,5574,A4,270.875,0.25,127,90.0
1,5575,C#3,271.0,0.25,82,90.0
1,5576,F#4,271.0,0.25,127,90.0
1,5577,F#3,271.0,0.25,127,90.0
1,5578,A4,271.125,0.25,127,90.0
1,5579,D2,271.125,0.25,127,90.0
1,5580,F#2,271.125,0.25,127,90.0
1,5581,C#3,271.25,0.25,68,90.0
1,5582,A4,271.375,0.25,127,90.0
1,5583,E3,271.5,0.25,95,90.0
1,5584,A4,271.625,0.25,127,90.0
1,5585,F#2,271.625,0.25,127,90.0
1,5586,B1,271.75,0.25,120,90.0
1,5587,A4,271.75,0.25,120,90.0
1,5588,C#5,271.75,0.25,100,90.0
1,5589,A5,271.75,0.25,100,90.0
1,5590,C#3,271.75,0.25,117,90.0
1,5591,C#3,271.75,0.25,117,90.0
1,5592,A3,271.75,0.25,100,90.0
1,5593,A4,271.75,0.25,100,90.0
1,5594,A3,271.833,0.25,100,90.0
1,5595,A4,271.833,0.25,100,90.0
1,5596,A4,271.875,0.25,127,90.0
1,5597,C2,271.875,0.25,127,90.0
1,5598,B1,272.0,0.25,120,90.0
1,5599,A4,272.0,0.25,120,90.0
1,5600,C#5,272.0,83/1000,100,90.0
1,5601,A5,272.0,83/1000,100,90.0
1,5602,C#3,272.0,0.25,110,90.0
1,5603,E3,272.0,0.25,110,90.0
1,5604,A3,272.0,83/1000,100,90.0
1,5605,A4,272.0,83/1000,100,90.0
1,5606,A3,272.083,83/1000,100,90.0
1,5607,A4,272.083,83/1000,100,90.0
1,5608,A4,272.125,0.25,127,90.0
1,5609,F#2,272.125,0.25,127,90.0
1,5610,C#3,272.25,0.25,116,90.0
1,5611,C#3,272.25,0.25,116,90.0
1,5612,A4,272.375,0.25,127,90.0
1,5613,C#2,272.5,0.5,120,90.0
1,5614,G#4,272.5,0.5,120,90.0
1,5615,G#5,272.5,333/1000,100,90.0
1,5616,C#5,272.5,333/1000,100,90.0
1,5617,C#3,272.5,0.25,116,90.0
1,5618,C#3,272.5,0.25,116,90.0
1,5619,G#3,272.5,333/1000,100,90.0
1,5620,G#4,272.5,333/1000,100,90.0
1,5621,G#3,272.583,333/1000,100,90.0
1,5622,G#4,272.583,333/1000,100,90.0
1,5623,A4,272.625,0.25,127,90.0
1,5624,C2,272.625,0.25,127,90.0
1,5625,F#2,272.625,0.25,127,90.0
1,5626,C#3,272.75,0.25,104,90.0
1,5627,C#3,272.75,0.25,104,90.0
1,5628,A4,272.875,0.25,127,90.0
1,5629,C#3,273.0,0.25,110,90.0
1,5630,C#3,273.0,0.25,110,90.0
1,5631,F#3,273.0,0.25,127,90.0
1,5632,F#4,273.0,0.25,127,90.0
1,5633,A4,273.125,0.25,127,90.0
1,5634,D2,273.125,0.25,127,90.0
1,5635,F#2,273.125,0.25,127,90.0
1,5636,C#3,273.25,0.25,104,90.0
1,5637,C#3,273.25,0.25,104,90.0
1,5638,A4,273.375,0.25,127,90.0
1,5639,C#3,273.5,0.25,108,90.0
1,5640,C#3,273.5,0.25,108,90.0
1,5641,A4,273.625,0.25,127,90.0
1,5642,F#2,273.625,0.25,127,90.0
1,5643,C#3,273.75,0.25,112,90.0
1,5644,C#3,273.75,0.25,112,90.0
1,5645,A4,273.875,0.25,127,90.0
1,5646,C2,273.875,0.25,127,90.0
1,5647,C#3,274.0,0.25,110,90.0
1,5648,C#3,274.0,0.25,110,90.0
1,5649,A4,274.125,1/100,127,90.0
1,5650,F#2,274.125,1/100,127,90.0
1,5651,C#3,274.25,0.25,106,90.0
1,5652,C#3,274.25,0.25,106,90.0
1,5653,A4,274.375,6/25,127,90.0
1,5654,F#2,274.375,6/25,127,90.0
1,5655,C#3,274.5,0.25,112,90.0
1,5656,C#3,274.5,0.25,112,90.0
1,5657,A4,274.615,0.25,127,90.0
1,5658,C#3,274.75,0.25,111,90.0
1,5659,C#3,274.75,0.25,111,90.0
1,5660,A4,274.865,0.25,127,90.0
1,5661,C2,274.865,0.25,127,90.0
1,5662,F#2,274.865,0.25,127,90.0
1,5663,C#3,275.0,0.25,116,90.0
1,5664,C#3,275.0,0.25,116,90.0
1,5665,F#3,275.0,0.25,127,90.0
1,5666,F#4,275.0,0.25,127,90.0
1,5667,A4,275.115,0.25,127,90.0
1,5668,C#3,275.25,0.25,108,90.0
1,5669,C#3,275.25,0.25,108,90.0
1,5670,A4,275.365,0.25,127,90.0
1,5671,D2,275.365,0.25,127,90.0
1,5672,F#2,275.365,0.25,127,90.0
1,5673,C#3,275.5,0.25,110,90.0
1,5674,C#3,275.5,0.25,110,90.0
1,5675,A4,275.615,0.25,127,90.0
1,5676,E2,275.75,0.25,120,90.0
1,5677,G#4,275.75,0.25,120,90.0
1,5678,G#5,275.75,0.25,100,90.0
1,5679,C#5,275.75,0.25,100,90.0
1,5680,C#3,275.75,0.25,110,90.0
1,5681,C#3,275.75,0.25,110,90.0
1,5682,G#3,275.75,0.25,100,90.0
1,5683,G#4,275.75,0.25,100,90.0
1,5684,G#3,275.833,0.25,100,90.0
1,5685,G#4,275.833,0.25,100,90.0
1,5686,A4,275.865,0.25,127,90.0
1,5687,F#2,275.865,0.25,127,90.0
1,5688,E2,276.0,0.25,120,90.0
1,5689,G#5,276.0,83/1000,100,90.0
1,5690,C#5,276.0,83/1000,100,90.0
1,5691,C#3,276.0,0.25,106,90.0
1,5692,C#3,276.0,0.25,106,90.0
1,5693,G#3,276.0,83/1000,100,90.0
1,5694,G#4,276.0,83/1000,100,90.0
1,5695,G#3,276.083,83/1000,100,90.0
1,5696,G#4,276.083,83/1000,100,90.0
1,5697,A4,276.115,0.25,127,90.0
1,5698,C2,276.115,0.25,127,90.0
1,5699,C#3,276.25,0.25,104,90.0
1,5700,C#3,276.25,0.25,104,90.0
1,5701,A4,276.365,0.25,127,90.0
1,5702,F#2,276.365,0.25,127,90.0
1,5703,E-2,276.5,0.5,120,90.0
1,5704,A4,276.5,0.25,120,90.0
1,5705,C#5,276.5,333/1000,100,90.0
1,5706,A5,276.5,333/1000,100,90.0
1,5707,C#3,276.5,0.25,110,90.0
1,5708,C#3,276.5,0.25,110,90.0
1,5709,A4,276.5,333/1000,100,90.0
1,5710,A3,276.5,333/1000,100,90.0
1,5711,A4,276.583,333/1000,100,90.0
1,5712,A3,276.583,333/1000,100,90.0
1,5713,A4,276.615,0.25,127,90.0
1,5714,C#3,276.75,0.25,108,90.0
1,5715,C#3,276.75,0.25,108,90.0
1,5716,A4,276.865,0.25,127,90.0
1,5717,C2,276.865,0.25,127,90.0
1,5718,F#2,276.865,0.25,127,90.0
1,5719,C#3,277.0,0.25,106,90.0
1,5720,C#3,277.0,0.25,106,90.0
1,5721,F#4,277.0,0.25,127,90.0
1,5722,F#3,277.0,0.25,127,90.0
1,5723,A4,277.115,0.25,127,90.0
1,5724,C#3,277.25,0.25,106,90.0
1,5725,C#3,277.25,0.25,106,90.0
1,5726,A4,277.365,0.25,127,90.0
1,5727,D2,277.365,0.25,127,90.0
1,5728,F#2,277.365,0.25,127,90.0
1,5729,C#3,277.5,0.25,106,90.0
1,5730,C#3,277.5,0.25,106,90.0
1,5731,A4,277.615,0.25,127,90.0
1,5732,F#2,277.75,0.5,120,90.0
1,5733,F#4,277.75,0.25,120,90.0
1,5734,C#5,277.75,333/1000,100,90.0
1,5735,F#5,277.75,333/1000,100,90.0
1,5736,C#3,277.75,0.25,104,90.0
1,5737,C#3,277.75,0.25,104,90.0
1,5738,F#4,277.75,333/1000,100,90.0
1,5739,F#3,277.75,333/1000,100,90.0
1,5740,F#4,277.833,333/1000,100,90.0
1,5741,F#3,277.833,333/1000,100,90.0
1,5742,A4,277.865,0.25,127,90.0
1,5743,F#2,277.865,0.25,127,90.0
1,5744,C#3,278.0,0.25,101,90.0
1,5745,C#3,278.0,0.25,101,90.0
1,5746,A4,278.115,0.25,127,90.0
1,5747,C2,278.115,0.25,127,90.0
1,5748,C#3,278.25,0.25,102,90.0
1,5749,C#3,278.25,0.25,102,90.0
1,5750,A4,278.365,1/100,127,90.0
1,5751,F#2,278.365,1/100,127,90.0
1,5752,E2,278.5,0.5,120,90.0
1,5753,G#4,278.5,0.25,120,90.0
1,5754,C#5,278.5,333/1000,100,90.0
1,5755,G#5,278.5,333/1000,100,90.0
1,5756,C#3,278.5,0.25,102,90.0
1,5757,C#3,278.5,0.25,102,90.0
1,5758,G#3,278.5,333/1000,100,90.0
1,5759,G#4,278.5,333/1000,100,90.0
1,5760,G#3,278.583,333/1000,100,90.0
1,5761,G#4,278.583,333/1000,100,90.0
1,5762,A4,278.615,6/25,127,90.0
1,5763,F#2,278.615,6/25,127,90.0
1,5764,C#3,278.75,0.25,91,90.0
1,5765,C#3,278.75,0.25,91,90.0
1,5766,A4,278.854,0.25,127,90.0
1,5767,C#3,279.0,0.25,108,90.0
1,5768,C#3,279.0,0.25,108,90.0
1,5769,F#4,279.0,0.25,127,90.0
1,5770,F#3,279.0,0.25,127,90.0
1,5771,A4,279.104,0.25,127,90.0
1,5772,C2,279.104,0.25,127,90.0
1,5773,F#2,279.104,0.25,127,90.0
1,5774,C#3,279.25,0.25,102,90.0
1,5775,C#3,279.25,0.25,102,90.0
1,5776,A4,279.354,0.25,127,90.0
1,5777,C#3,279.5,0.25,110,90.0
1,5778,E3,279.5,0.25,110,90.0
1,5779,A4,279.604,0.25,127,90.0
1,5780,D2,279.604,0.25,127,90.0
1,5781,F#2,279.604,0.25,127,90.0
1,5782,B1,279.75,0.25,120,90.0
1,5783,A4,279.75,0.25,120,90.0
1,5784,A5,279.75,0.25,100,90.0
1,5785,C#5,279.75,0.25,100,90.0
1,5786,C#3,279.75,0.25,119,90.0
1,5787,C#3,279.75,0.25,119,90.0
1,5788,A3,279.75,0.25,100,90.0
1,5789,A4,279.75,0.25,100,90.0
1,5790,A3,279.833,0.25,100,90.0
1,5791,A4,279.833,0.25,100,90.0
1,5792,A4,279.854,0.25,127,90.0
1,5793,B1,280.0,0.25,120,90.0
1,5794,A5,280.0,83/1000,100,90.0
1,5795,C#5,280.0,83/1000,100,90.0
1,5796,C#3,280.0,0.25,114,90.0
1,5797,E3,280.0,0.25,114,90.0
1,5798,A3,280.0,83/1000,100,90.0
1,5799,A4,280.0,83/1000,100,90.0
1,5800,A3,280.083,83/1000,100,90.0
1,5801,A4,280.083,83/1000,100,90.0
1,5802,A4,280.104,0.25,127,90.0
1,5803,F#2,280.104,0.25,127,90.0
1,5804,C#3,280.25,0.25,112,90.0
1,5805,C#3,280.25,0.25,112,90.0
1,5806,A4,280.354,0.25,127,90.0
1,5807,C2,280.354,0.25,127,90.0
1,5808,C#2,280.5,0.5,120,90.0
1,5809,G#4,280.5,0.25,120,90.0
1,5810,C#5,280.5,333/1000,100,90.0
1,5811,G#5,280.5,333/1000,100,90.0
1,5812,C#3,280.5,0.25,112,90.0
1,5813,C#3,280.5,0.25,112,90.0
1,5814,G#3,280.5,333/1000,100,90.0
1,5815,G#4,280.5,333/1000,100,90.0
1,5816,G#3,280.583,333/1000,100,90.0
1,5817,G#4,280.583,333/1000,100,90.0
1,5818,A4,280.604,0.25,127,90.0
1,5819,F#2,280.604,0.25,127,90.0
1,5820,C#3,280.75,0.25,106,90.0
1,5821,C#3,280.75,0.25,106,90.0
1,5822,A4,280.854,0.25,127,90.0
1,5823,C#3,281.0,0.25,104,90.0
1,5824,C#3,281.0,0.25,104,90.0
1,5825,F#4,281.0,0.25,127,90.0
1,5826,F#3,281.0,0.25,127,90.0
1,5827,A4,281.104,0.25,127,90.0
1,5828,C2,281.104,0.25,127,90.0
1,5829,F#2,281.104,0.25,127,90.0
1,5830,C#3,281.25,0.25,111,90.0
1,5831,C#3,281.25,0.25,111,90.0
1,5832,A4,281.354,0.25,127,90.0
1,5833,C#3,281.5,0.25,106,90.0
1,5834,C#3,281.5,0.25,106,90.0
1,5835,A4,281.604,0.25,127,90.0
1,5836,D2,281.604,0.25,127,90.0
1,5837,F#2,281.604,0.25,127,90.0
1,5838,C#3,281.75,0.25,102,90.0
1,5839,C#3,281.75,0.25,102,90.0
1,5840,A4,281.854,0.25,127,90.0
1,5841,C#3,282.0,0.25,110,90.0
1,5842,C#3,282.0,0.25,110,90.0
1,5843,A4,282.104,0.25,127,90.0
1,5844,F#2,282.104,0.25,127,90.0
1,5845,C#3,282.25,0.25,102,90.0
1,5846,C#3,282.25,0.25,102,90.0
1,5847,A4,282.354,0.25,127,90.0
1,5848,C2,282.354,0.25,127,90.0
1,5849,C#3,282.5,0.25,116,90.0
1,5850,C#3,282.5,0.25,116,90.0
1,5851,A4,282.604,1/100,127,90.0
1,5852,F#2,282.604,1/100,127,90.0
1,5853,C#3,282.75,0.25,104,90.0
1,5854,C#3,282.75,0.25,104,90.0
1,5855,A4,282.854,6/25,127,90.0
1,5856,F#2,282.854,6/25,127,90.0
1,5857,C#3,283.0,0.25,117,90.0
1,5858,C#3,283.0,0.25,117,90.0
1,5859,F#4,283.0,0.25,127,90.0
1,5860,F#3,283.0,0.25,127,90.0
1,5861,A4,283.094,0.25,127,90.0
1,5862,C#3,283.25,0.25,101,90.0
1,5863,C#3,283.25,0.25,101,90.0
1,5864,A4,283.344,0.25,127,90.0
1,5865,C2,283.344,0.25,127,90.0
1,5866,F#2,283.344,0.25,127,90.0
1,5867,C#3,283.5,0.25,116,90.0
1,5868,C#3,283.5,0.25,116,90.0
1,5869,A4,283.594,0.25,127,90.0
1,5870,E2,283.75,0.25,120,90.0
1,5871,G#4,283.75,0.25,120,90.0
1,5872,G#5,283.75,0.25,100,90.0
1,5873,C#5,283.75,0.25,100,90.0
1,5874,C#3,283.75,0.25,112,90.0
1,5875,C#3,283.75,0.25,112,90.0
1,5876,G#3,283.75,0.25,100,90.0
1,5877,G#4,283.75,0.25,100,90.0
1,5878,G#3,283.833,0.25,100,90.0
1,5879,G#4,283.833,0.25,100,90.0
1,5880,A4,283.844,0.25,127,90.0
1,5881,D2,283.844,0.25,127,90.0
1,5882,F#2,283.844,0.25,127,90.0
1,5883,E2,284.0,0.25,120,90.0
1,5884,G#5,284.0,83/1000,100,90.0
1,5885,C#5,284.0,83/1000,100,90.0
1,5886,C#3,284.0,0.25,108,90.0
1,5887,C#3,284.0,0.25,108,90.0
1,5888,G#3,284.0,83/1000,100,90.0
1,5889,G#4,284.0,83/1000,100,90.0
1,5890,G#3,284.083,83/1000,100,90.0
1,5891,G#4,284.083,83/1000,100,90.0
1,5892,A4,284.094,0.25,127,90.0
1,5893,C#3,284.25,0.25,100,90.0
1,5894,C#3,284.25,0.25,100,90.0
1,5895,A4,284.344,0.25,127,90.0
1,5896,F#2,284.344,0.25,127,90.0
1,5897,E-2,284.5,0.5,120,90.0
1,5898,A4,284.5,0.25,120,90.0
1,5899,C#5,284.5,333/1000,100,90.0
1,5900,A5,284.5,333/1000,100,90.0
1,5901,C#3,284.5,0.25,111,90.0
1,5902,C#3,284.5,0.25,111,90.0
1,5903,A4,284.5,333/1000,100,90.0
1,5904,A3,284.5,333/1000,100,90.0
1,5905,A4,284.583,333/1000,100,90.0
1,5906,A3,284.583,333/1000,100,90.0
1,5907,A4,284.594,0.25,127,90.0
1,5908,C2,284.594,0.25,127,90.0
1,5909,C#3,284.75,0.25,110,90.0
1,5910,C#3,284.75,0.25,110,90.0
1,5911,A4,284.844,0.25,127,90.0
1,5912,F#2,284.844,0.25,127,90.0
1,5913,C#3,285.0,0.25,114,90.0
1,5914,C#3,285.0,0.25,114,90.0
1,5915,F#4,285.0,0.25,127,90.0
1,5916,F#3,285.0,0.25,127,90.0
1,5917,A4,285.094,0.25,127,90.0
1,5918,C#3,285.25,0.25,110,90.0
1,5919,C#3,285.25,0.25,110,90.0
1,5920,A4,285.344,0.25,127,90.0
1,5921,C2,285.344,0.25,127,90.0
1,5922,F#2,285.344,0.25,127,90.0
1,5923,C#3,285.5,0.25,110,90.0
1,5924,C#3,285.5,0.25,110,90.0
1,5925,A4,285.594,0.25,127,90.0
1,5926,F#2,285.75,0.5,120,90.0
1,5927,F#4,285.75,0.25,120,90.0
1,5928,F#5,285.75,333/1000,100,90.0
1,5929,C#5,285.75,333/1000,100,90.0
1,5930,C#3,285.75,0.25,116,90.0
1,5931,C#3,285.75,0.25,116,90.0
1,5932,F#3,285.75,333/1000,100,90.0
1,5933,F#4,285.75,333/1000,100,90.0
1,5934,F#3,285.833,333/1000,100,90.0
1,5935,F#4,285.833,333/1000,100,90.0
1,5936,A4,285.844,0.25,127,90.0
1,5937,D2,285.844,0.25,127,90.0
1,5938,F#2,285.844,0.25,127,90.0
1,5939,C#3,286.0,0.25,114,90.0
1,5940,C#3,286.0,0.25,114,90.0
1,5941,A4,286.094,0.25,127,90.0
1,5942,C#3,286.25,0.25,99,90.0
1,5943,C#3,286.25,0.25,99,90.0
1,5944,A4,286.344,0.25,127,90.0
1,5945,F#2,286.344,0.25,127,90.0
1,5946,E2,286.5,0.5,120,90.0
1,5947,G#4,286.5,0.25,120,90.0
1,5948,G#5,286.5,333/1000,100,90.0
1,5949,C#5,286.5,333/1000,100,90.0
1,5950,C#3,286.5,0.25,106,90.0
1,5951,C#3,286.5,0.25,106,90.0
1,5952,G#3,286.5,333/1000,100,90.0
1,5953,G#4,286.5,333/1000,100,90.0
1,5954,G#3,286.583,333/1000,100,90.0
1,5955,G#4,286.583,333/1000,100,90.0
1,5956,A4,286.594,0.25,127,90.0
1,5957,C2,286.594,0.25,127,90.0
1,5958,C#3,286.75,0.25,110,90.0
1,5959,C#3,286.75,0.25,110,90.0
1,5960,A4,286.844,1/100,127,90.0
1,5961,F#2,286.844,1/100,127,90.0
1,5962,C#3,287.0,0.25,116,90.0
1,5963,C#3,287.0,0.25,116,90.0
1,5964,F#4,287.0,0.25,127,90.0
1,5965,F#3,287.0,0.25,127,90.0
1,5966,A4,287.094,6/25,127,90.0
1,5967,F#2,287.094,6/25,127,90.0
1,5968,C#3,287.25,0.25,117,90.0
1,5969,C#3,287.25,0.25,117,90.0
1,5970,A4,287.333,0.25,127,90.0
1,5971,C#3,287.5,0.25,116,90.0
1,5972,E3,287.5,0.25,116,90.0
1,5973,A4,287.583,0.25,127,90.0
1,5974,C2,287.583,0.25,127,90.0
1,5975,F#2,287.583,0.25,127,90.0
1,5976,B2,287.75,0.25,115,90.0
1,5977,B1,287.75,0.25,120,90.0
1,5978,B3,287.75,0.25,120,90.0
1,5979,C#3,287.75,0.25,120,90.0
1,5980,C#3,287.75,0.25,118,90.0
1,5981,B2,287.75,0.25,50,90.0
1,5982,A4,287.75,0.25,50,90.0
1,5983,A3,287.75,0.25,50,90.0
1,5984,B3,287.75,0.25,50,90.0
1,5985,B3,287.75,0.25,100,90.0
1,5986,A4,287.75,0.25,100,90.0
1,5987,A3,287.75,0.25,100,90.0
1,5988,B2,287.75,0.25,100,90.0
1,5989,A4,287.833,0.25,127,90.0
1,5990,B3,287.833,0.25,100,90.0
1,5991,A4,287.833,0.25,100,90.0
1,5992,A3,287.833,0.25,100,90.0
1,5993,B2,287.833,0.25,100,90.0
1,5994,B2,288.0,83/1000,115,90.0
1,5995,B1,288.0,0.25,120,90.0
1,5996,E3,288.0,0.25,107,90.0
1,5997,C#3,288.0,0.25,118,90.0
1,5998,B2,288.0,83/1000,50,90.0
1,5999,A4,288.0,83/1000,50,90.0
1,6000,A3,288.0,83/1000,50,90.0
1,6001,B3,288.0,83/1000,50,90.0
1,6002,B3,288.0,83/1000,100,90.0
1,6003,A4,288.0,83/1000,100,90.0
1,6004,A3,288.0,83/1000,100,90.0
1,6005,B2,288.0,83/1000,100,90.0
1,6006,B3,288.083,83/1000,100,90.0
1,6007,A4,288.083,83/1000,100,90.0
1,6008,A3,288.083,83/1000,100,90.0
1,6009,B2,288.083,83/1000,100,90.0
1,6010,A4,288.083,0.25,127,90.0
1,6011,D2,288.083,0.25,127,90.0
1,6012,F#2,288.083,0.25,127,90.0
1,6013,C#3,288.25,0.25,125,90.0
1,6014,A4,288.333,0.25,127,90.0
1,6015,C#3,288.5,333/1000,115,90.0
1,6016,C#2,288.5,0.5,120,90.0
1,6017,C#4,288.5,0.25,120,90.0
1,6018,C#3,288.5,0.25,120,90.0
1,6019,C#3,288.5,0.5,105,90.0
1,6020,C#4,288.5,333/1000,50,90.0
1,6021,C#3,288.5,333/1000,50,90.0
1,6022,G#4,288.5,333/1000,50,90.0
1,6023,G#3,288.5,333/1000,50,90.0
1,6024,G#4,288.5,333/1000,100,90.0
1,6025,C#4,288.5,333/1000,100,90.0
1,6026,C#3,288.5,333/1000,100,90.0
1,6027,G#3,288.5,333/1000,100,90.0
1,6028,G#4,288.583,333/1000,100,90.0
1,6029,C#4,288.583,333/1000,100,90.0
1,6030,C#3,288.583,333/1000,100,90.0
1,6031,G#3,288.583,333/1000,100,90.0
1,6032,A4,288.583,0.25,127,90.0
1,6033,F#2,288.583,0.25,127,90.0
1,6034,C#3,288.75,0.25,92,90.0
1,6035,A4,288.833,0.25,127,90.0
1,6036,C2,288.833,0.25,127,90.0
1,6037,C#3,289.0,0.25,97,90.0
1,6038,F#4,289.0,0.25,127,90.0
1,6039,F#3,289.0,0.25,127,90.0
1,6040,A4,289.083,0.25,127,90.0
1,6041,F#2,289.083,0.25,127,90.0
1,6042,C#3,289.25,0.25,83,90.0
1,6043,A4,289.333,0.25,127,90.0
1,6044,C#3,289.5,0.25,92,90.0
1,6045,A4,289.583,0.25,127,90.0
1,6046,C2,289.583,0.25,127,90.0
1,6047,F#2,289.583,0.25,127,90.0
1,6048,C#3,289.75,0.25,73,90.0
1,6049,A4,289.833,0.25,127,90.0
1,6050,C#3,290.0,0.25,79,90.0
1,6051,A4,290.083,0.25,127,90.0
1,6052,D2,290.083,0.25,127,90.0
1,6053,F#2,290.083,0.25,127,90.0
1,6054,C#3,290.25,0.25,73,90.0
1,6055,A4,290.333,0.25,127,90.0
1,6056,C#3,290.5,0.25,83,90.0
1,6057,A4,290.583,0.25,127,90.0
1,6058,F#2,290.583,0.25,127,90.0
1,6059,C#3,290.75,0.25,101,90.0
1,6060,A4,290.833,0.25,127,90.0
1,6061,C2,290.833,0.25,127,90.0
1,6062,C#3,291.0,0.25,99,90.0
1,6063,F#4,291.0,0.25,127,90.0
1,6064,F#3,291.0,0.25,127,90.0
1,6065,A4,291.083,1/100,127,90.0
1,6066,F#2,291.083,1/100,127,90.0
1,6067,C#3,291.25,0.25,88,90.0
1,6068,A4,291.333,6/25,127,90.0
1,6069,F#2,291.333,6/25,127,90.0
1,6070,C#3,291.5,0.25,84,90.0
1,6071,A4,291.573,0.25,127,90.0
1,6072,E2,291.75,0.25,120,90.0
1,6073,C#3,291.75,0.25,120,90.0
1,6074,C#3,291.75,0.25,107,90.0
1,6075,G#3,291.75,0.25,100,90.0
1,6076,G#4,291.75,0.25,100,90.0
1,6077,A4,291.823,0.25,127,90.0
1,6078,C2,291.823,0.25,127,90.0
1,6079,F#2,291.823,0.25,127,90.0
1,6080,G#3,291.833,0.25,100,90.0
1,6081,G#4,291.833,0.25,100,90.0
1,6082,E2,292.0,0.25,120,90.0
1,6083,C#3,292.0,0.25,104,90.0
1,6084,C#3,292.0,0.25,107,90.0
1,6085,G#3,292.0,83/1000,100,90.0
1,6086,G#4,292.0,83/1000,100,90.0
1,6087,A4,292.073,0.25,127,90.0
1,6088,G#3,292.083,83/1000,100,90.0
1,6089,G#4,292.083,83/1000,100,90.0
1,6090,C#3,292.25,0.25,101,90.0
1,6091,A4,292.323,0.25,127,90.0
1,6092,D2,292.323,0.25,127,90.0
1,6093,F#2,292.323,0.25,127,90.0
1,6094,E-2,292.5,0.5,120,90.0
1,6095,C#3,292.5,0.25,120,90.0
1,6096,C#3,292.5,0.5,104,90.0
1,6097,A3,292.5,333/1000,100,90.0
1,6098,A4,292.5,333/1000,100,90.0
1,6099,A4,292.573,0.25,127,90.0
1,6100,A3,292.583,333/1000,100,90.0
1,6101,A4,292.583,333/1000,100,90.0
1,6102,C#3,292.75,0.25,109,90.0
1,6103,A4,292.823,0.25,127,90.0
1,6104,F#2,292.823,0.25,127,90.0
1,6105,C#3,293.0,0.25,102,90.0
1,6106,F#3,293.0,0.25,127,90.0
1,6107,F#4,293.0,0.25,127,90.0
1,6108,A4,293.073,0.25,127,90.0
1,6109,C2,293.073,0.25,127,90.0
1,6110,C#3,293.25,0.25,105,90.0
1,6111,A4,293.323,0.25,127,90.0
1,6112,F#2,293.323,0.25,127,90.0
1,6113,C#3,293.5,0.25,111,90.0
1,6114,A4,293.573,0.25,127,90.0
1,6115,F#2,293.75,0.5,120,90.0
1,6116,C#3,293.75,0.25,120,90.0
1,6117,C#3,293.75,0.5,111,90.0
1,6118,F#3,293.75,333/1000,100,90.0
1,6119,F#4,293.75,333/1000,100,90.0
1,6120,A4,293.823,0.25,127,90.0
1,6121,C2,293.823,0.25,127,90.0
1,6122,F#2,293.823,0.25,127,90.0
1,6123,F#3,293.833,333/1000,100,90.0
1,6124,F#4,293.833,333/1000,100,90.0
1,6125,C#3,294.0,0.25,116,90.0
1,6126,A4,294.073,0.25,127,90.0
1,6127,C#3,294.25,0.25,105,90.0
1,6128,A4,294.323,0.25,127,90.0
1,6129,D2,294.323,0.25,127,90.0
1,6130,F#2,294.323,0.25,127,90.0
1,6131,E2,294.5,0.5,120,90.0
1,6132,C#3,294.5,0.25,120,90.0
1,6133,C#3,294.5,0.5,116,90.0
1,6134,G#4,294.5,333/1000,100,90.0
1,6135,G#3,294.5,333/1000,100,90.0
1,6136,A4,294.573,0.25,127,90.0
1,6137,G#4,294.583,333/1000,100,90.0
1,6138,G#3,294.583,333/1000,100,90.0
1,6139,C#3,294.75,0.25,111,90.0
1,6140,A4,294.823,0.25,127,90.0
1,6141,F#2,294.823,0.25,127,90.0
1,6142,C#3,295.0,0.25,113,90.0
1,6143,F#4,295.0,0.25,127,90.0
1,6144,F#3,295.0,0.25,127,90.0
1,6145,A4,295.073,0.25,127,90.0
1,6146,C2,295.073,0.25,127,90.0
1,6147,C#3,295.25,0.25,105,90.0
1,6148,A4,295.323,1/100,127,90.0
1,6149,F#2,295.323,1/100,127,90.0
1,6150,E3,295.5,0.25,116,90.0
1,6151,A4,295.573,6/25,127,90.0
1,6152,F#2,295.573,6/25,127,90.0
1,6153,B1,295.75,0.25,120,90.0
1,6154,C#3,295.75,0.25,120,90.0
1,6155,C#3,295.75,0.25,121,90.0
1,6156,A3,295.75,0.25,100,90.0
1,6157,A4,295.75,0.25,100,90.0
1,6158,A4,295.812,0.25,127,90.0
1,6159,A3,295.833,0.25,100,90.0
1,6160,A4,295.833,0.25,100,90.0
1,6161,B1,296.0,0.25,120,90.0
1,6162,E3,296.0,0.25,113,90.0
1,6163,C#3,296.0,0.25,121,90.0
1,6164,A3,296.0,83/1000,100,90.0
1,6165,A4,296.0,83/1000,100,90.0
1,6166,A4,296.062,0.25,127,90.0
1,6167,C2,296.062,0.25,127,90.0
1,6168,F#2,296.062,0.25,127,90.0
1,6169,A3,296.083,83/1000,100,90.0
1,6170,A4,296.083,83/1000,100,90.0
1,6171,C#3,296.25,0.25,123,90.0
1,6172,A4,296.312,0.25,127,90.0
1,6173,C#2,296.5,0.5,120,90.0
1,6174,C#3,296.5,0.25,120,90.0
1,6175,C#3,296.5,0.5,88,90.0
1,6176,G#3,296.5,333/1000,100,90.0
1,6177,G#4,296.5,333/1000,100,90.0
1,6178,A4,296.562,0.25,127,90.0
1,6179,D2,296.562,0.25,127,90.0
1,6180,F#2,296.562,0.25,127,90.0
1,6181,G#3,296.583,333/1000,100,90.0
1,6182,G#4,296.583,333/1000,100,90.0
1,6183,C#3,296.75,0.25,96,90.0
1,6184,A4,296.812,0.25,127,90.0
1,6185,C#3,297.0,0.25,111,90.0
1,6186,F#4,297.0,0.25,127,90.0
1,6187,F#3,297.0,0.25,127,90.0
1,6188,A4,297.062,0.25,127,90.0
1,6189,F#2,297.062,0.25,127,90.0
1,6190,C#3,297.25,0.25,107,90.0
1,6191,A4,297.312,0.25,127,90.0
1,6192,C2,297.312,0.25,127,90.0
1,6193,C#3,297.5,0.25,101,90.0
1,6194,A4,297.562,0.25,127,90.0
1,6195,F#2,297.562,0.25,127,90.0
1,6196,C#3,297.75,0.25,87,90.0
1,6197,A4,297.812,0.25,127,90.0
1,6198,C#3,298.0,0.25,99,90.0
1,6199,A4,298.062,0.25,127,90.0
1,6200,C2,298.062,0.25,127,90.0
1,6201,F#2,298.062,0.25,127,90.0
1,6202,C#3,298.25,0.25,85,90.0
1,6203,A4,298.312,0.25,127,90.0
1,6204,C#3,298.5,0.25,105,90.0
1,6205,A4,298.562,0.25,127,90.0
1,6206,D2,298.562,0.25,127,90.0
1,6207,F#2,298.562,0.25,127,90.0
1,6208,C#3,298.75,0.25,101,90.0
1,6209,A4,298.812,0.25,127,90.0
1,6210,C#3,299.0,0.25,113,90.0
1,6211,F#4,299.0,0.25,127,90.0
1,6212,F#3,299.0,0.25,127,90.0
1,6213,A4,299.062,0.25,127,90.0
1,6214,F#2,299.062,0.25,127,90.0
1,6215,C#3,299.25,0.25,104,90.0
1,6216,A4,299.312,0.25,127,90.0
1,6217,C2,299.312,0.25,127,90.0
1,6218,C#3,299.5,0.25,109,90.0
1,6219,A4,299.562,1/100,127,90.0
1,6220,F#2,299.562,1/100,127,90.0
1,6221,E2,299.75,0.25,120,90.0
1,6222,C#3,299.75,0.25,120,90.0
1,6223,C#3,299.75,0.25,118,90.0
1,6224,G#3,299.75,0.25,100,90.0
1,6225,G#4,299.75,0.25,100,90.0
1,6226,A4,299.812,6/25,127,90.0
1,6227,F#2,299.812,6/25,127,90.0
1,6228,G#3,299.833,0.25,100,90.0
1,6229,G#4,299.833,0.25,100,90.0
1,6230,E2,300.0,0.25,120,90.0
1,6231,C#3,300.0,0.25,109,90.0
1,6232,C#3,300.0,0.25,118,90.0
1,6233,G#3,300.0,83/1000,100,90.0
1,6234,G#4,300.0,83/1000,100,90.0
1,6235,A4,300.052,0.25,127,90.0
1,6236,G#3,300.083,83/1000,100,90.0
1,6237,G#4,300.083,83/1000,100,90.0
1,6238,C#3,300.25,0.25,107,90.0
1,6239,A4,300.302,0.25,127,90.0
1,6240,C2,300.302,0.25,127,90.0
1,6241,F#2,300.302,0.25,127,90.0
1,6242,E-2,300.5,0.5,120,90.0
1,6243,C#3,300.5,0.25,120,90.0
1,6244,C#3,300.5,0.5,113,90.0
1,6245,A3,300.5,333/1000,100,90.0
1,6246,A4,300.5,333/1000,100,90.0
1,6247,A4,300.552,0.25,127,90.0
1,6248,A3,300.583,333/1000,100,90.0
1,6249,A4,300.583,333/1000,100,90.0
1,6250,C#3,300.75,0.25,104,90.0
1,6251,A4,300.802,0.25,127,90.0
1,6252,D2,300.802,0.25,127,90.0
1,6253,F#2,300.802,0.25,127,90.0
1,6254,C#3,301.0,0.25,111,90.0
1,6255,F#4,301.0,0.25,127,90.0
1,6256,F#3,301.0,0.25,127,90.0
1,6257,A4,301.052,0.25,127,90.0
1,6258,C#3,301.25,0.25,102,90.0
1,6259,A4,301.302,0.25,127,90.0
1,6260,F#2,301.302,0.25,127,90.0
1,6261,C#3,301.5,0.25,113,90.0
1,6262,A4,301.552,0.25,127,90.0
1,6263,C2,301.552,0.25,127,90.0
1,6264,F#2,301.75,0.5,120,90.0
1,6265,C#3,301.75,0.25,120,90.0
1,6266,C#3,301.75,0.5,113,90.0
1,6267,F#3,301.75,333/1000,100,90.0
1,6268,F#4,301.75,333/1000,100,90.0
1,6269,A4,301.802,0.25,127,90.0
1,6270,F#2,301.802,0.25,127,90.0
1,6271,F#3,301.833,333/1000,100,90.0
1,6272,F#4,301.833,333/1000,100,90.0
1,6273,C#3,302.0,0.25,104,90.0
1,6274,A4,302.052,0.25,127,90.0
1,6275,C#3,302.25,0.25,105,90.0
1,6276,A4,302.302,0.25,127,90.0
1,6277,C2,302.302,0.25,127,90.0
1,6278,F#2,302.302,0.25,127,90.0
1,6279,E2,302.5,0.5,120,90.0
1,6280,C#3,302.5,0.25,120,90.0
1,6281,C#3,302.5,0.5,114,90.0
1,6282,G#4,302.5,333/1000,100,90.0
1,6283,G#3,302.5,333/1000,100,90.0
1,6284,A4,302.552,0.25,127,90.0
1,6285,G#4,302.583,333/1000,100,90.0
1,6286,G#3,302.583,333/1000,100,90.0
1,6287,C#3,302.75,0.25,101,90.0
1,6288,A4,302.802,0.25,127,90.0
1,6289,D2,302.802,0.25,127,90.0
1,6290,F#2,302.802,0.25,127,90.0
1,6291,C#3,303.0,0.25,97,90.0
1,6292,F#4,303.0,0.25,127,90.0
1,6293,F#3,303.0,0.25,127,90.0
1,6294,A4,303.052,0.25,127,90.0
1,6295,C#3,303.25,0.25,48,90.0
1,6296,A4,303.302,0.25,127,90.0
1,6297,F#2,303.302,0.25,127,90.0
1,6298,E3,303.5,0.25,107,90.0
1,6299,A4,303.552,0.25,127,90.0
1,6300,C2,303.552,0.25,127,90.0
1,6301,B1,303.75,0.25,120,90.0
1,6302,C#3,303.75,0.25,120,90.0
1,6303,C#3,303.75,0.25,127,90.0
1,6304,A3,303.75,0.25,100,90.0
1,6305,A4,303.75,0.25,100,90.0
1,6306,A4,303.802,1/100,127,90.0
1,6307,F#2,303.802,1/100,127,90.0
1,6308,A3,303.833,0.25,100,90.0
1,6309,A4,303.833,0.25,100,90.0
1,6310,B1,304.0,0.25,120,90.0
1,6311,E3,304.0,0.25,104,90.0
1,6312,C#3,304.0,0.25,127,90.0
1,6313,A3,304.0,83/1000,100,90.0
1,6314,A4,304.0,83/1000,100,90.0
1,6315,A4,304.052,6/25,127,90.0
1,6316,F#2,304.052,6/25,127,90.0
1,6317,A3,304.083,83/1000,100,90.0
1,6318,A4,304.083,83/1000,100,90.0
1,6319,C#3,304.25,0.25,127,90.0
1,6320,A4,304.292,0.25,127,90.0
1,6321,C#2,304.5,0.5,120,90.0
1,6322,C#3,304.5,0.25,120,90.0
1,6323,C#3,304.5,0.5,99,90.0
1,6324,G#3,304.5,333/1000,100,90.0
1,6325,G#4,304.5,333/1000,100,90.0
1,6326,A4,304.542,0.25,127,90.0
1,6327,C2,304.542,0.25,127,90.0
1,6328,F#2,304.542,0.25,127,90.0
1,6329,G#3,304.583,333/1000,100,90.0
1,6330,G#4,304.583,333/1000,100,90.0
1,6331,C#3,304.75,0.25,84,90.0
1,6332,A4,304.792,0.25,127,90.0
1,6333,C#3,305.0,0.25,113,90.0
1,6334,F#4,305.0,0.25,127,90.0
1,6335,F#3,305.0,0.25,127,90.0
1,6336,A4,305.042,0.25,127,90.0
1,6337,D2,305.042,0.25,127,90.0
1,6338,F#2,305.042,0.25,127,90.0
1,6339,C#3,305.25,0.25,105,90.0
1,6340,A4,305.292,0.25,127,90.0
1,6341,C#3,305.5,0.25,107,90.0
1,6342,A4,305.542,0.25,127,90.0
1,6343,F#2,305.542,0.25,127,90.0
1,6344,C#3,305.75,0.25,101,90.0
1,6345,A4,305.792,0.25,127,90.0
1,6346,C2,305.792,0.25,127,90.0
1,6347,C#3,306.0,0.25,92,90.0
1,6348,A4,306.042,0.25,127,90.0
1,6349,F#2,306.042,0.25,127,90.0
1,6350,C#3,306.25,0.25,105,90.0
1,6351,A4,306.292,0.25,127,90.0
1,6352,C#3,306.5,0.25,107,90.0
1,6353,A4,306.542,0.25,127,90.0
1,6354,C2,306.542,0.25,127,90.0
1,6355,F#2,306.542,0.25,127,90.0
1,6356,C#3,306.75,0.25,104,90.0
1,6357,A4,306.792,0.25,127,90.0
1,6358,C#3,307.0,0.25,111,90.0
1,6359,F#4,307.0,0.25,127,90.0
1,6360,F#3,307.0,0.25,127,90.0
1,6361,A4,307.042,0.25,127,90.0
1,6362,D2,307.042,0.25,127,90.0
1,6363,F#2,307.042,0.25,127,90.0
1,6364,C#3,307.25,0.25,104,90.0
1,6365,A4,307.292,0.25,127,90.0
1,6366,C#3,307.5,0.25,96,90.0
1,6367,A4,307.542,0.25,127,90.0
1,6368,F#2,307.542,0.25,127,90.0
1,6369,E2,307.75,0.25,120,90.0
1,6370,C#3,307.75,0.25,120,90.0
1,6371,C#3,307.75,0.25,125,90.0
1,6372,G#3,307.75,0.25,100,90.0
1,6373,G#4,307.75,0.25,100,90.0
1,6374,A4,307.792,0.25,127,90.0
1,6375,C2,307.792,0.25,127,90.0
1,6376,G#3,307.833,0.25,100,90.0
1,6377,G#4,307.833,0.25,100,90.0
1,6378,E2,308.0,0.25,120,90.0
1,6379,C#3,308.0,0.25,101,90.0
1,6380,C#3,308.0,0.25,125,90.0
1,6381,G#3,308.0,83/1000,100,90.0
1,6382,G#4,308.0,83/1000,100,90.0
1,6383,A4,308.042,1/100,127,90.0
1,6384,F#2,308.042,1/100,127,90.0
1,6385,G#3,308.083,83/1000,100,90.0
1,6386,G#4,308.083,83/1000,100,90.0
1,6387,C#3,308.25,0.25,113,90.0
1,6388,A4,308.292,6/25,127,90.0
1,6389,F#2,308.292,6/25,127,90.0
1,6390,E-2,308.5,0.5,120,90.0
1,6391,C#3,308.5,0.25,120,90.0
1,6392,C#3,308.5,0.5,113,90.0
1,6393,A3,308.5,333/1000,100,90.0
1,6394,A4,308.5,333/1000,100,90.0
1,6395,A4,308.531,0.25,127,90.0
1,6396,A3,308.583,333/1000,100,90.0
1,6397,A4,308.583,333/1000,100,90.0
1,6398,C#3,308.75,0.25,113,90.0
1,6399,A4,308.781,0.25,127,90.0
1,6400,C2,308.781,0.25,127,90.0
1,6401,F#2,308.781,0.25,127,90.0
1,6402,C#3,309.0,0.25,114,90.0
1,6403,F#4,309.0,0.25,127,90.0
1,6404,F#3,309.0,0.25,127,90.0
1,6405,A4,309.031,0.25,127,90.0
1,6406,C#3,309.25,0.25,116,90.0
1,6407,A4,309.281,0.25,127,90.0
1,6408,D2,309.281,0.25,127,90.0
1,6409,F#2,309.281,0.25,127,90.0
1,6410,C#3,309.5,0.25,113,90.0
1,6411,A4,309.531,0.25,127,90.0
1,6412,F#2,309.75,0.5,120,90.0
1,6413,C#3,309.75,0.25,120,90.0
1,6414,C#3,309.75,0.5,107,90.0
1,6415,F#3,309.75,333/1000,100,90.0
1,6416,F#4,309.75,333/1000,100,90.0
1,6417,A4,309.781,0.25,127,90.0
1,6418,F#2,309.781,0.25,127,90.0
1,6419,F#3,309.833,333/1000,100,90.0
1,6420,F#4,309.833,333/1000,100,90.0
1,6421,C#3,310.0,0.25,105,90.0
1,6422,A4,310.031,0.25,127,90.0
1,6423,C2,310.031,0.25,127,90.0
1,6424,C#3,310.25,0.25,107,90.0
1,6425,A4,310.281,0.25,127,90.0
1,6426,F#2,310.281,0.25,127,90.0
1,6427,E2,310.5,0.5,120,90.0
1,6428,C#3,310.5,0.25,120,90.0
1,6429,C#3,310.5,0.5,109,90.0
1,6430,G#4,310.5,333/1000,100,90.0
1,6431,G#3,310.5,333/1000,100,90.0
1,6432,A4,310.531,0.25,127,90.0
1,6433,G#4,310.583,333/1000,100,90.0
1,6434,G#3,310.583,333/1000,100,90.0
1,6435,C#3,310.75,0.25,85,90.0
1,6436,A4,310.781,0.25,127,90.0
1,6437,C2,310.781,0.25,127,90.0
1,6438,F#2,310.781,0.25,127,90.0
1,6439,C#3,311.0,0.25,113,90.0
1,6440,F#3,311.0,0.25,127,90.0
1,6441,F#4,311.0,0.25,127,90.0
1,6442,A4,311.031,0.25,127,90.0
1,6443,C#3,311.25,0.25,90,90.0
1,6444,A4,311.281,0.25,127,90.0
1,6445,D2,311.281,0.25,127,90.0
1,6446,F#2,311.281,0.25,127,90.0
1,6447,E3,311.5,0.25,111,90.0
1,6448,A4,311.531,0.25,127,90.0
1,6449,B2,311.75,0.25,115,90.0
1,6450,B1,311.75,0.25,120,90.0
1,6451,B3,311.75,0.25,120,90.0
1,6452,C#3,311.75,0.25,120,90.0
1,6453,C#3,311.75,0.25,105,90.0
1,6454,B2,311.75,0.25,50,90.0
1,6455,A4,311.75,0.25,50,90.0
1,6456,A3,311.75,0.25,50,90.0
1,6457,B3,311.75,0.25,50,90.0
1,6458,A3,311.75,0.25,100,90.0
1,6459,B2,311.75,0.25,100,90.0
1,6460,B3,311.75,0.25,100,90.0
1,6461,A4,311.75,0.25,100,90.0
1,6462,A4,311.781,0.25,127,90.0
1,6463,F#2,311.781,0.25,127,90.0
1,6464,A3,311.833,0.25,100,90.0
1,6465,B2,311.833,0.25,100,90.0
1,6466,B3,311.833,0.25,100,90.0
1,6467,A4,311.833,0.25,100,90.0
1,6468,B2,312.0,83/1000,115,90.0
1,6469,B1,312.0,0.25,120,90.0
1,6470,E3,312.0,0.25,105,90.0
1,6471,C#3,312.0,0.25,105,90.0
1,6472,B2,312.0,83/1000,50,90.0
1,6473,A4,312.0,83/1000,50,90.0
1,6474,A3,312.0,83/1000,50,90.0
1,6475,B3,312.0,83/1000,50,90.0
1,6476,A3,312.0,83/1000,100,90.0
1,6477,B2,312.0,83/1000,100,90.0
1,6478,B3,312.0,83/1000,100,90.0
1,6479,A4,312.0,83/1000,100,90.0
1,6480,A4,312.031,0.25,127,90.0
1,6481,C2,312.031,0.25,127,90.0
1,6482,A3,312.083,83/1000,100,90.0
1,6483,B2,312.083,83/1000,100,90.0
1,6484,B3,312.083,83/1000,100,90.0
1,6485,A4,312.083,83/1000,100,90.0
1,6486,C#3,312.25,0.25,114,90.0
1,6487,A4,312.281,1/100,127,90.0
1,6488,F#2,312.281,1/100,127,90.0
1,6489,C#3,312.5,333/1000,115,90.0
1,6490,C#2,312.5,0.5,120,90.0
1,6491,C#4,312.5,0.25,120,90.0
1,6492,C#3,312.5,0.5,120,90.0
1,6493,C#4,312.5,333/1000,50,90.0
1,6494,C#3,312.5,333/1000,50,90.0
1,6495,G#4,312.5,333/1000,50,90.0
1,6496,G#3,312.5,333/1000,50,90.0
1,6497,C#3,312.5,333/1000,100,90.0
1,6498,G#3,312.5,333/1000,100,90.0
1,6499,G#4,312.5,333/1000,100,90.0
1,6500,C#4,312.5,333/1000,100,90.0
1,6501,A4,312.531,6/25,127,90.0
1,6502,F#2,312.531,6/25,127,90.0
1,6503,C#3,312.583,333/1000,100,90.0
1,6504,G#3,312.583,333/1000,100,90.0
1,6505,G#4,312.583,333/1000,100,90.0
1,6506,C#4,312.583,333/1000,100,90.0
1,6507,A4,312.771,0.25,127,90.0
1,6508,A4,313.021,0.25,127,90.0
1,6509,C2,313.021,0.25,127,90.0
1,6510,F#2,313.021,0.25,127,90.0
1,6511,A4,313.271,0.25,127,90.0
1,6512,A4,313.521,0.25,127,90.0
1,6513,D2,313.521,0.25,127,90.0
1,6514,F#2,313.521,0.25,127,90.0
1,6515,A4,313.771,0.25,127,90.0
1,6516,A4,314.021,0.25,127,90.0
1,6517,F#2,314.021,0.25,127,90.0
1,6518,A4,314.271,0.25,127,90.0
1,6519,C2,314.271,0.25,127,90.0
1,6520,A4,314.521,0.25,127,90.0
1,6521,F#2,314.521,0.25,127,90.0
1,6522,A4,314.771,0.25,127,90.0
1,6523,A4,315.021,0.25,127,90.0
1,6524,C2,315.021,0.25,127,90.0
1,6525,F#2,315.021,0.25,127,90.0
1,6526,A4,315.271,0.25,127,90.0
1,6527,A4,315.521,0.25,127,90.0
1,6528,D2,315.521,0.25,127,90.0
1,6529,F#2,315.521,0.25,127,90.0
1,6530,A4,315.771,0.25,127,90.0
1,6531,A4,316.021,0.25,127,90.0
1,6532,F#2,316.021,0.25,127,90.0
1,6533,A4,316.271,0.25,127,90.0
1,6534,C2,316.271,0.25,127,90.0
1,6535,A4,316.521,1/100,127,90.0
1,6536,F#2,316.521,1/100,127,90.0
1,6537,A4,316.771,6/25,127,90.0
1,6538,F#2,316.771,6/25,127,90.0
1,6539,A4,317.01,0.25,127,90.0
1,6540,A4,317.26,0.25,127,90.0
1,6541,C2,317.26,0.25,127,90.0
1,6542,F#2,317.26,0.25,127,90.0
1,6543,A4,317.51,0.25,127,90.0
1,6544,A4,317.76,0.25,127,90.0
1,6545,D2,317.76,0.25,127,90.0
1,6546,F#2,317.76,0.25,127,90.0
1,6547,A4,318.01,0.25,127,90.0
1,6548,A4,318.26,0.25,127,90.0
1,6549,F#2,318.26,0.25,127,90.0
1,6550,A4,318.51,0.25,127,90.0
1,6551,C2,318.51,0.25,127,90.0
1,6552,A4,318.76,0.25,127,90.0
1,6553,F#2,318.76,0.25,127,90.0
1,6554,A4,319.01,0.25,127,90.0
1,6555,A4,319.26,0.25,127,90.0
1,6556,C2,319.26,0.25,127,90.0
1,6557,F#2,319.26,0.25,127,90.0
1,6558,A4,319.51,0.25,127,90.0
1,6559,A4,319.76,0.25,127,90.0
1,6560,D2,319.76,0.25,127,90.0
1,6561,F#2,319.76,0.25,127,90.0
1,6562,A4,320.01,0.25,127,90.0
1,6563,A4,320.26,0.25,127,90.0
1,6564,F#2,320.26,0.25,127,90.0
1,6565,A4,320.51,0.25,127,90.0
1,6566,C2,320.51,0.25,127,90.0
1,6567,A4,320.76,1/100,127,90.0
1,6568,F#2,320.76,1/100,127,90.0
1,6569,A4,321.01,6/25,127,90.0
1,6570,F#2,321.01,6/25,127,90.0
1,6571,A4,321.25,0.25,127,90.0
1,6572,A4,321.5,0.25,127,90.0
1,6573,C2,321.5,0.25,127,90.0
1,6574,F#2,321.5,0.25,127,90.0
1,6575,A4,321.75,0.25,127,90.0
1,6576,A4,322.0,0.25,127,90.0
1,6577,D2,322.0,0.25,127,90.0
1,6578,F#2,322.0,0.25,127,90.0
1,6579,A4,322.25,0.25,127,90.0
1,6580,A4,322.5,0.25,127,90.0
1,6581,F#2,322.5,0.25,127,90.0
1,6582,A4,322.75,0.25,127,90.0
1,6583,C2,322.75,0.25,127,90.0
1,6584,A4,323.0,0.25,127,90.0
1,6585,F#2,323.0,0.25,127,90.0
1,6586,A4,323.25,0.25,127,90.0
1,6587,A4,323.5,0.25,127,90.0
1,6588,C2,323.5,0.25,127,90.0
1,6589,F#2,323.5,0.25,127,90.0
1,6590,A4,323.75,0.25,127,90.0
1,6591,A4,324.0,0.25,127,90.0
1,6592,D2,324.0,0.25,127,90.0
1,6593,F#2,324.0,0.25,127,90.0
1,6594,A4,324.25,0.25,127,90.0
1,6595,A4,324.5,0.25,127,90.0
1,6596,F#2,324.5,0.25,127,90.0
1,6597,A4,324.75,0.25,127,90.0
1,6598,C2,324.75,0.25,127,90.0
1,6599,A4,325.0,1/100,127,90.0
1,6600,F#2,325.0,1/100,127,90.0
1,6601,A4,325.25,6/25,127,90.0
1,6602,F#2,325.25,6/25,127,90.0
1,6603,A4,325.49,0.25,127,90.0
1,6604,A4,325.74,0.25,127,90.0
1,6605,C2,325.74,0.25,127,90.0
1,6606,F#2,325.74,0.25,127,90.0
1,6607,A4,325.99,0.25,127,90.0
1,6608,A4,326.24,0.25,127,90.0
1,6609,D2,326.24,0.25,127,90.0
1,6610,F#2,326.24,0.25,127,90.0
1,6611,A4,326.49,0.25,127,90.0
1,6612,A4,326.74,0.25,127,90.0
1,6613,F#2,326.74,0.25,127,90.0
1,6614,A4,326.99,0.25,127,90.0
1,6615,C2,326.99,0.25,127,90.0
1,6616,A4,327.24,0.25,127,90.0
1,6617,F#2,327.24,0.25,127,90.0
1,6618,A4,327.49,0.25,127,90.0
1,6619,A4,327.74,0.25,127,90.0
1,6620,C2,327.74,0.25,127,90.0
1,6621,F#2,327.74,0.25,127,90.0
1,6622,A4,327.99,0.25,127,90.0
1,6623,A4,328.24,0.25,127,90.0
1,6624,D2,328.24,0.25,127,90.0
1,6625,F#2,328.24,0.25,127,90.0
1,6626,A4,328.49,0.25,127,90.0
1,6627,A4,328.74,0.25,127,90.0
1,6628,F#2,328.74,0.25,127,90.0
1,6629,A4,328.99,0.25,127,90.0
1,6630,C2,328.99,0.25,127,90.0
1,6631,A4,329.24,1/100,127,90.0
1,6632,F#2,329.24,1/100,127,90.0
1,6633,A4,329.49,6/25,127,90.0
1,6634,F#2,329.49,6/25,127,90.0
1,6635,A4,329.729,0.25,127,90.0
1,6636,A4,329.979,0.25,127,90.0
1,6637,C2,329.979,0.25,127,90.0
1,6638,F#2,329.979,0.25,127,90.0
1,6639,A4,330.229,0.25,127,90.0
2,0,C6,0.01,0.493,54,70.0
2,1,D6,0.533,0.466,49,70.0
2,2,F4,0.863,2.147,42,70.0
2,3,G5,0.904,1.115,42,70.0
2,4,C5,0.946,2.064,42,70.0
2,5,E6,1.029,0.99,56,70.0
2,6,F5,1.029,1.981,56,70.0
2,7,G6,2.021,0.99,52,70.0
2,8,G5,3.012,0.988,48,70.0
2,9,D6,3.012,0.988,48,70.0
2,10,G4,3.012,0.988,48,70.0
2,11,D5,3.012,0.988,48,70.0
2,12,G5,4.0,1.028,48,70.0
2,13,D6,4.0,1.028,48,70.0
2,14,G4,4.0,1.028,48,70.0
2,15,D5,4.0,1.028,48,70.0
2,16,C6,5.029,0.99,50,70.0
2,17,C4,5.029,0.463,50,70.0
2,18,G4,5.522,0.468,49,70.0
2,19,G5,6.021,0.468,51,70.0
2,20,C6,6.021,0.468,51,70.0
2,21,D5,6.021,0.468,51,70.0
2,22,D6,6.519,0.492,49,70.0
2,23,E5,6.519,1.481,49,70.0
2,24,D6,7.012,0.987,50,70.0
2,25,E5,8.0,1.028,49,70.0
2,26,C6,8.004,0.499,54,70.0
2,27,D6,8.533,0.466,49,70.0
2,28,F3,9.029,0.463,50,70.0
2,29,C6,9.029,0.99,49,70.0
2,30,E6,9.029,0.99,49,70.0
2,31,C4,9.522,0.468,49,70.0
2,32,G6,10.021,0.468,52,70.0
2,33,A4,10.021,0.99,52,70.0
2,34,A6,10.519,0.463,49,70.0
2,35,G3,11.012,0.463,50,70.0
2,36,D6,11.012,0.987,49,70.0
2,37,G6,11.012,0.987,49,70.0
2,38,D4,11.505,0.465,49,70.0
2,39,G5,12.004,1.024,53,70.0
2,40,D6,12.004,1.024,53,70.0
2,41,B4,12.004,1.024,53,70.0
2,42,C3,13.029,0.463,50,70.0
2,43,G5,13.029,0.99,50,70.0
2,44,D6,13.029,0.99,50,70.0
2,45,G3,13.522,0.468,49,70.0
2,46,B5,14.021,0.468,52,70.0
2,47,D6,14.021,0.468,52,70.0
2,48,D4,14.021,0.468,52,70.0
2,49,E6,14.519,0.463,49,70.0
2,50,E4,14.519,0.463,49,70.0
2,51,G4,15.012,0.988,50,70.0
2,52,C6,15.012,0.987,49,70.0
2,53,E6,15.012,0.987,49,70.0
2,54,G4,16.0,1.028,50,70.0
2,55,C6,16.004,0.499,67,70.0
2,56,D6,16.533,0.466,62,70.0
2,57,F3,17.029,0.463,63,70.0
2,58,C6,17.029,0.99,62,70.0
2,59,E6,17.029,0.99,62,70.0
2,60,C4,17.522,0.468,62,70.0
2,61,A4,18.021,0.99,65,70.0
2,62,C6,18.021,0.497,64,70.0
2,63,G6,18.021,0.497,64,70.0
2,64,A6,18.519,0.463,62,70.0
2,65,G3,19.012,0.463,63,70.0
2,66,B5,19.012,0.988,60,70.0
2,67,D6,19.012,0.988,60,70.0
2,68,D4,19.505,0.465,62,70.0
2,69,B5,20.0,1.028,60,70.0
2,70,D6,20.0,1.028,60,70.0
2,71,B4,20.004,1.024,67,70.0
2,72,A3,21.029,0.463,63,70.0
2,73,G5,21.029,0.99,62,70.0
2,74,C6,21.029,0.99,62,70.0
2,75,E4,21.522,0.468,62,70.0
2,76,G5,22.021,0.468,63,70.0
2,77,C6,22.021,0.468,63,70.0
2,78,B4,22.021,0.468,63,70.0
2,79,D6,22.519,0.463,62,70.0
2,80,E4,22.519,0.463,62,70.0
2,81,E6,23.012,0.463,63,70.0
2,82,C5,23.012,0.463,63,70.0
2,83,D6,23.505,0.465,62,70.0
2,84,E4,23.505,0.465,62,70.0
2,85,G5,24.004,0.499,66,70.0
2,86,C6,24.004,0.499,66,70.0
2,87,B4,24.004,0.499,66,70.0
2,88,B5,24.533,0.466,62,70.0
2,89,E4,24.533,0.466,62,70.0
2,90,F3,25.029,0.463,63,70.0
2,91,F5,25.029,0.99,62,70.0
2,92,A5,25.029,0.99,62,70.0
2,93,C4,25.522,0.468,62,70.0
2,94,B5,26.021,0.468,65,70.0
2,95,A4,26.021,0.99,65,70.0
2,96,C6,26.519,0.463,62,70.0
2,97,D5,26.846,0.987,55,70.0
2,98,G3,26.846,1.153,55,70.0
2,99,G5,26.929,1.07,55,70.0
2,100,D4,26.929,1.07,55,70.0
2,101,D6,27.012,0.821,69,70.0
2,102,G4,27.012,0.821,69,70.0
2,103,B5,28.004,0.858,67,70.0
2,104,D4,28.004,1.024,67,70.0
2,105,G5,29.029,2.971,59,70.0
2,106,B5,29.029,2.971,59,70.0
2,107,E3,29.029,0.99,62,70.0
2,108,B3,29.029,0.99,62,70.0
2,109,B3,30.021,0.468,65,70.0
2,110,E3,30.519,0.463,62,70.0
2,111,C4,31.012,0.463,63,70.0
2,112,E3,31.505,0.465,62,70.0
2,113,G5,32.0,1.028,59,70.0
2,114,B5,32.0,1.028,59,70.0
2,115,B3,32.004,0.499,67,70.0
2,116,E3,32.533,0.466,62,70.0
2,117,A2,33.029,0.463,63,70.0
2,118,E3,33.522,0.468,62,70.0
2,119,B3,34.021,0.468,65,70.0
2,120,E3,34.519,0.363,62,70.0
2,121,C4,35.012,0.821,63,70.0
2,122,C5,36.004,0.499,67,70.0
2,123,D5,36.533,0.466,62,70.0
2,124,G4,37.029,0.99,62,70.0
2,125,E5,37.029,0.99,62,70.0
2,126,C2,37.029,0.99,62,70.0
2,127,E3,37.029,0.99,62,70.0
2,128,G4,38.021,0.99,64,70.0
2,129,G5,38.021,0.99,64,70.0
2,130,C4,38.021,0.99,64,70.0
2,131,E4,38.021,0.99,64,70.0
2,132,G4,39.012,0.988,62,70.0
2,133,D5,39.012,0.988,62,70.0
2,134,G2,39.012,0.987,62,70.0
2,135,B3,39.012,0.987,62,70.0
2,136,G4,40.0,1.028,62,70.0
2,137,D5,40.0,1.028,62,70.0
2,138,G3,40.004,1.024,64,70.0
2,139,B3,40.004,1.024,64,70.0
2,140,D4,40.004,1.024,64,70.0
2,141,G4,41.029,0.99,62,70.0
2,142,C5,41.029,0.99,62,70.0
2,143,C3,41.029,0.99,62,70.0
2,144,G4,42.021,0.497,62,70.0
2,145,C5,42.021,0.497,62,70.0
2,146,C4,42.021,0.99,64,70.0
2,147,D4,42.021,0.99,64,70.0
2,148,D5,42.519,0.492,62,70.0
2,149,G4,43.012,0.987,62,70.0
2,150,D5,43.012,0.987,62,70.0
2,151,C4,43.012,0.987,62,70.0
2,152,E4,43.012,0.987,62,70.0
2,153,C5,44.004,0.499,67,70.0
2,154,B2,44.004,1.024,67,70.0
2,155,D5,44.533,0.466,62,70.0
2,156,G4,45.029,0.99,60,70.0
2,157,C5,45.029,0.99,60,70.0
2,158,E5,45.029,0.99,60,70.0
2,159,C2,45.029,0.99,60,70.0
2,160,G4,46.021,0.497,62,70.0
2,161,C5,46.021,0.497,62,70.0
2,162,G5,46.021,0.497,62,70.0
2,163,G3,46.021,0.99,64,70.0
2,164,C4,46.021,0.99,64,70.0
2,165,A5,46.519,0.463,62,70.0
2,166,G4,47.012,0.987,61,70.0
2,167,B4,47.012,0.987,61,70.0
2,168,G5,47.012,0.987,61,70.0
2,169,G2,47.012,0.987,61,70.0
2,170,B3,47.012,0.987,61,70.0
2,171,G4,48.004,1.024,65,70.0
2,172,D5,48.004,1.024,65,70.0
2,173,G3,48.004,1.024,65,70.0
2,174,B3,48.004,1.024,65,70.0
2,175,D4,48.004,1.024,65,70.0
2,176,G4,49.029,0.99,60,70.0
2,177,D5,49.029,0.99,60,70.0
2,178,C2,49.029,0.99,60,70.0
2,179,G4,50.021,0.497,62,70.0
2,180,D5,50.021,0.497,62,70.0
2,181,G3,50.021,0.99,62,70.0
2,182,C4,50.021,0.99,62,70.0
2,183,D4,50.021,0.99,62,70.0
2,184,E5,50.519,0.492,62,70.0
2,185,G4,51.012,0.987,61,70.0
2,186,E5,51.012,0.987,61,70.0
2,187,G3,51.012,0.987,61,70.0
2,188,C4,51.012,0.987,61,70.0
2,189,E4,51.012,0.987,61,70.0
2,190,D3,52.004,1.024,67,70.0
2,191,G4,52.004,0.528,66,70.0
2,192,C5,52.004,0.528,66,70.0
2,193,D5,52.533,0.466,62,70.0
2,194,G4,53.029,0.99,60,70.0
2,195,C5,53.029,0.99,60,70.0
2,196,E5,53.029,0.99,60,70.0
2,197,C2,53.029,0.99,60,70.0
2,198,G4,54.021,0.99,63,70.0
2,199,C5,54.021,0.99,63,70.0
2,200,G5,54.021,0.99,63,70.0
2,201,G3,54.021,0.99,63,70.0
2,202,C4,54.021,0.99,63,70.0
2,203,G4,55.012,0.988,60,70.0
2,204,B4,55.012,0.988,60,70.0
2,205,D5,55.012,0.988,60,70.0
2,206,G2,55.012,0.987,62,70.0
2,207,B3,55.012,0.987,62,70.0
2,208,G4,56.0,1.028,60,70.0
2,209,B4,56.0,1.028,60,70.0
2,210,D5,56.0,1.028,60,70.0
2,211,G3,56.004,1.024,64,70.0
2,212,B3,56.004,1.024,64,70.0
2,213,D4,56.004,1.024,64,70.0
2,214,G4,57.029,0.99,62,70.0
2,215,C5,57.029,0.99,62,70.0
2,216,A2,57.029,0.99,62,70.0
2,217,G4,58.021,0.497,62,70.0
2,218,C5,58.021,0.497,62,70.0
2,219,C4,58.021,0.99,62,70.0
2,220,E4,58.021,0.99,62,70.0
2,221,D5,58.519,0.463,62,70.0
2,222,G4,59.012,0.492,62,70.0
2,223,E5,59.012,0.492,62,70.0
2,224,A3,59.012,0.987,64,70.0
2,225,C4,59.012,0.987,64,70.0
2,226,E4,59.012,0.987,64,70.0
2,227,D5,59.505,0.465,62,70.0
2,228,G4,60.004,0.528,66,70.0
2,229,C5,60.004,0.528,66,70.0
2,230,G3,60.004,1.024,68,70.0
2,231,E4,60.004,1.024,68,70.0
2,232,B4,60.533,0.466,62,70.0
2,233,C4,61.029,0.99,62,70.0
2,234,A4,61.029,0.99,62,70.0
2,235,F2,61.029,0.99,62,70.0
2,236,B4,62.021,0.468,65,70.0
2,237,F3,62.021,0.99,62,70.0
2,238,A3,62.021,0.99,62,70.0
2,239,C4,62.021,0.99,62,70.0
2,240,C5,62.519,0.463,62,70.0
2,241,D4,62.846,1.153,55,70.0
2,242,G2,62.846,1.154,55,70.0
2,243,G4,62.929,1.07,55,70.0
2,244,D3,62.929,1.071,55,70.0
2,245,B4,63.012,0.987,69,70.0
2,246,B3,63.012,0.988,69,70.0
2,247,B3,64.0,1.028,69,70.0
2,248,G2,64.0,1.028,55,70.0
2,249,D3,64.0,1.028,55,70.0
2,250,G4,64.004,1.024,67,70.0
2,251,A2,65.029,1.488,63,70.0
2,252,D4,65.029,0.99,60,70.0
2,253,G4,65.029,0.99,60,70.0
2,254,B4,65.029,0.99,60,70.0
2,255,B3,66.021,0.99,64,70.0
2,256,C4,66.021,0.99,64,70.0
2,257,E3,66.519,1.48,62,70.0
2,258,B3,67.012,0.987,62,70.0
2,259,C4,67.012,0.987,62,70.0
2,260,A2,68.004,0.499,67,70.0
2,261,C4,68.004,1.024,64,70.0
2,262,E4,68.004,1.024,64,70.0
2,263,B4,68.004,1.024,64,70.0
2,264,E3,68.533,0.959,63,70.0
2,265,C4,69.029,0.99,61,70.0
2,266,D4,69.029,0.99,61,70.0
2,267,G4,69.029,0.99,61,70.0
2,268,A3,69.522,0.468,66,70.0
2,269,A2,70.021,0.468,68,70.0
2,270,C4,70.021,0.99,67,70.0
2,271,D4,70.021,0.99,67,70.0
2,272,E3,70.519,0.956,69,70.0
2,273,C4,71.012,0.987,68,70.0
2,274,D4,71.012,0.987,68,70.0
2,275,A3,71.505,0.495,73,70.0
2,276,A3,72.0,0.532,73,70.0
2,277,C4,72.004,1.024,79,70.0
2,278,D4,72.004,1.024,79,70.0
2,279,A3,72.533,0.228,75,70.0
2,280,G3,72.776,0.237,75,70.0
2,281,E-4,72.842,0.65,68,70.0
2,282,G4,72.904,0.617,68,70.0
2,283,B-4,72.967,0.555,68,70.0
2,284,E-5,73.029,0.463,79,70.0
2,285,G#2,73.029,0.463,79,70.0
2,286,G4,73.522,0.468,75,70.0
2,287,E-3,73.522,0.468,75,70.0
2,288,F4,74.021,0.99,78,70.0
2,289,G#3,74.021,0.468,78,70.0
2,290,E-3,74.519,0.463,75,70.0
2,291,E-4,75.012,0.987,76,70.0
2,292,G#3,75.012,0.463,76,70.0
2,293,E-3,75.505,0.465,75,70.0
2,294,G#3,76.004,0.499,80,70.0
2,295,G4,76.004,1.024,77,70.0
2,296,B-4,76.004,1.024,77,70.0
2,297,G5,76.004,1.024,77,70.0
2,298,E-3,76.533,0.466,75,70.0
2,299,F4,77.029,0.99,73,70.0
2,300,B-4,77.029,0.99,73,70.0
2,301,F5,77.029,0.99,73,70.0
2,302,B-1,77.029,0.492,74,70.0
2,303,B-2,77.029,0.492,74,70.0
2,304,F3,77.522,0.468,75,70.0
2,305,F4,78.021,0.99,78,70.0
2,306,B-3,78.021,0.468,78,70.0
2,307,F3,78.519,0.492,75,70.0
2,308,F3,79.012,0.463,76,70.0
2,309,D4,79.012,0.331,73,70.0
2,310,G4,79.012,0.331,73,70.0
2,311,D5,79.012,0.331,73,70.0
2,312,E-4,79.344,0.321,74,70.0
2,313,E-5,79.344,0.321,74,70.0
2,314,E-3,79.505,0.465,75,70.0
2,315,F4,79.666,0.333,74,70.0
2,316,F5,79.666,0.333,74,70.0
2,317,D3,80.004,0.499,80,70.0
2,318,E-4,80.004,0.366,79,70.0
2,319,E-5,80.004,0.366,79,70.0
2,320,D4,80.371,0.323,74,70.0
2,321,D5,80.371,0.323,74,70.0
2,322,E-3,80.533,0.466,75,70.0
2,323,B-3,80.695,0.333,74,70.0
2,324,B-4,80.695,0.333,74,70.0
2,325,C4,81.029,0.99,73,70.0
2,326,E-4,81.029,0.99,73,70.0
2,327,C5,81.029,0.99,73,70.0
2,328,G#1,81.029,0.492,74,70.0
2,329,G#2,81.029,0.492,74,70.0
2,330,E-3,81.522,0.468,75,70.0
2,331,G#3,82.021,0.468,78,70.0
2,332,C4,82.021,0.99,77,70.0
2,333,F4,82.021,0.99,77,70.0
2,334,E-3,82.519,0.463,75,70.0
2,335,G#2,83.012,0.463,76,70.0
2,336,E-4,83.012,0.987,75,70.0
2,337,G4,83.012,0.987,75,70.0
2,338,E-3,83.505,0.494,75,70.0
2,339,E-3,84.004,0.499,80,70.0
2,340,G4,84.004,1.024,77,70.0
2,341,B-4,84.004,1.024,77,70.0
2,342,G5,84.004,1.024,77,70.0
2,343,F3,84.533,0.466,75,70.0
2,344,B-4,85.029,0.99,73,70.0
2,345,D5,85.029,0.99,73,70.0
2,346,B-5,85.029,0.99,73,70.0
2,347,B-1,85.029,0.492,74,70.0
2,348,B-2,85.029,0.492,74,70.0
2,349,F3,85.522,0.468,75,70.0
2,350,B-4,86.021,0.99,78,70.0
2,351,B-3,86.021,0.468,78,70.0
2,352,F3,86.519,0.463,75,70.0
2,353,B-4,87.012,0.312,76,70.0
2,354,B-2,87.012,0.987,76,70.0
2,355,C5,87.344,0.302,75,70.0
2,356,D5,87.666,0.313,75,70.0
2,357,E-5,88.004,0.194,80,70.0
2,358,B-3,88.004,0.499,80,70.0
2,359,F5,88.209,0.151,75,70.0
2,360,G5,88.371,0.151,75,70.0
2,361,G#5,88.533,0.151,75,70.0
2,362,F3,88.533,0.466,75,70.0
2,363,B-5,88.695,0.151,75,70.0
2,364,C6,88.857,0.161,75,70.0
2,365,E-6,89.029,1.981,76,70.0
2,366,F2,89.029,0.463,76,70.0
2,367,C3,89.522,0.468,75,70.0
2,368,F3,90.021,0.468,78,70.0
2,369,G#3,90.519,0.463,75,70.0
2,370,G5,90.846,0.478,68,70.0
2,371,C6,90.929,0.414,68,70.0
2,372,G6,91.012,0.312,79,70.0
2,373,F2,91.012,0.312,79,70.0
2,374,E-6,91.344,0.302,75,70.0
2,375,C3,91.344,0.302,75,70.0
2,376,C6,91.666,0.313,75,70.0
2,377,F3,91.666,0.313,75,70.0
2,378,G5,92.004,0.347,80,70.0
2,379,G#3,92.004,0.347,80,70.0
2,380,E-5,92.371,0.304,75,70.0
2,381,F3,92.371,0.304,75,70.0
2,382,C5,92.695,0.313,75,70.0
2,383,C3,92.695,0.313,75,70.0
2,384,G#4,93.029,0.99,76,70.0
2,385,G#2,93.029,0.463,76,70.0
2,386,E-3,93.522,0.468,75,70.0
2,387,G#3,94.021,0.468,78,70.0
2,388,G4,94.021,0.99,74,70.0
2,389,C5,94.021,0.99,74,70.0
2,390,E-5,94.021,0.99,74,70.0
2,391,G5,94.021,0.99,74,70.0
2,392,E-3,94.519,0.463,75,70.0
2,393,G#3,95.012,0.463,76,70.0
2,394,G4,95.012,0.987,73,70.0
2,395,B-4,95.012,0.987,73,70.0
2,396,E-5,95.012,0.987,73,70.0
2,397,E-3,95.505,0.465,75,70.0
2,398,E-4,96.004,0.499,80,70.0
2,399,G#2,96.004,0.499,80,70.0
2,400,G4,96.533,0.466,75,70.0
2,401,G2,96.533,0.466,75,70.0
2,402,F2,97.029,0.463,76,70.0
2,403,E-4,97.029,0.99,75,70.0
2,404,B-4,97.029,0.99,75,70.0
2,405,F3,97.522,0.468,75,70.0
2,406,B-4,98.021,0.99,76,70.0
2,407,E-5,98.021,0.99,76,70.0
2,408,B-5,98.021,0.99,76,70.0
2,409,B-2,98.021,0.99,76,70.0
2,410,F4,99.012,0.987,74,70.0
2,411,B-4,99.012,0.987,74,70.0
2,412,F5,99.012,0.987,74,70.0
2,413,F2,99.012,0.987,74,70.0
2,414,E-4,100.004,1.024,76,70.0
2,415,G4,100.004,1.024,76,70.0
2,416,B-4,100.004,1.024,76,70.0
2,417,E-5,100.004,1.024,76,70.0
2,418,E-2,100.004,1.024,76,70.0
2,419,D4,101.029,1.981,73,70.0
2,420,G4,101.029,1.981,73,70.0
2,421,D5,101.029,1.981,73,70.0
2,422,B-1,101.029,0.492,72,70.0
2,423,B-2,101.029,0.492,72,70.0
2,424,B-1,101.522,0.497,71,70.0
2,425,B-2,101.522,0.497,71,70.0
2,426,B-1,102.021,0.497,74,70.0
2,427,B-2,102.021,0.497,74,70.0
2,428,B-1,102.519,0.492,71,70.0
2,429,B-2,102.519,0.492,71,70.0
2,430,B-1,103.012,0.388,74,70.0
2,431,B-2,103.012,0.388,74,70.0
2,432,E-4,104.004,0.528,92,70.0
2,433,E-5,104.004,0.528,92,70.0
2,434,F4,104.533,0.495,87,70.0
2,435,F5,104.533,0.495,87,70.0
2,436,G4,105.029,0.99,85,70.0
2,437,C5,105.029,0.99,85,70.0
2,438,E-5,105.029,0.99,85,70.0
2,439,G5,105.029,0.99,85,70.0
2,440,G#1,105.029,0.99,85,70.0
2,441,G#2,105.029,0.99,85,70.0
2,442,B-4,106.021,0.99,88,70.0
2,443,E-5,106.021,0.99,88,70.0
2,444,B-5,106.021,0.99,88,70.0
2,445,G#2,106.021,0.99,88,70.0
2,446,E-3,106.021,0.99,88,70.0
2,447,G#3,106.021,0.99,88,70.0
2,448,F4,107.012,0.987,86,70.0
2,449,B-4,107.012,0.987,86,70.0
2,450,F5,107.012,0.987,86,70.0
2,451,B-1,107.012,0.987,86,70.0
2,452,B-2,107.012,0.987,86,70.0
2,453,F4,108.004,1.024,91,70.0
2,454,B-4,108.004,1.024,91,70.0
2,455,B-2,108.004,1.024,91,70.0
2,456,F3,108.004,1.024,91,70.0
2,457,B-3,108.004,1.024,91,70.0
2,458,E-4,109.029,0.99,86,70.0
2,459,G4,109.029,0.99,86,70.0
2,460,E-5,109.029,0.99,86,70.0
2,461,E-2,109.029,0.99,86,70.0
2,462,E-3,109.029,0.99,86,70.0
2,463,E-4,110.021,0.497,88,70.0
2,464,G4,110.021,0.497,88,70.0
2,465,E-5,110.021,0.497,88,70.0
2,466,E-2,110.021,0.99,87,70.0
2,467,B-2,110.021,0.99,87,70.0
2,468,E-3,110.021,0.99,87,70.0
2,469,F4,110.519,0.492,87,70.0
2,470,F5,110.519,0.492,87,70.0
2,471,F4,111.012,0.388,86,70.0
2,472,B-4,111.012,0.388,86,70.0
2,473,F5,111.012,0.388,86,70.0
2,474,D2,111.012,0.388,86,70.0
2,475,D3,111.012,0.388,86,70.0
2,476,E-4,112.004,0.528,92,70.0
2,477,E-5,112.004,0.528,92,70.0
2,478,B-1,112.004,1.024,91,70.0
2,479,B-2,112.004,1.024,91,70.0
2,480,F4,112.533,0.495,87,70.0
2,481,F5,112.533,0.495,87,70.0
2,482,G4,113.029,0.99,86,70.0
2,483,C5,113.029,0.99,86,70.0
2,484,G5,113.029,0.99,86,70.0
2,485,G#1,113.029,0.99,86,70.0
2,486,G#2,113.029,0.99,86,70.0
2,487,B-4,114.021,0.497,88,70.0
2,488,D5,114.021,0.497,88,70.0
2,489,B-5,114.021,0.497,88,70.0
2,490,G#2,114.021,0.99,88,70.0
2,491,E-3,114.021,0.99,88,70.0
2,492,G#3,114.021,0.99,88,70.0
2,493,C5,114.519,0.492,87,70.0
2,494,C6,114.519,0.492,87,70.0
2,495,B-4,115.012,0.987,86,70.0
2,496,D5,115.012,0.987,86,70.0
2,497,B-5,115.012,0.987,86,70.0
2,498,B-1,115.012,0.987,86,70.0
2,499,B-2,115.012,0.987,86,70.0
2,500,F4,116.004,1.024,90,70.0
2,501,B-4,116.004,1.024,90,70.0
2,502,F5,116.004,1.024,90,70.0
2,503,B-2,116.004,1.024,90,70.0
2,504,F3,116.004,1.024,90,70.0
2,505,B-3,116.004,1.024,90,70.0
2,506,G4,117.029,0.99,87,70.0
2,507,B-4,117.029,0.99,87,70.0
2,508,F5,117.029,0.99,87,70.0
2,509,E-2,117.029,0.99,87,70.0
2,510,E-3,117.029,0.99,87,70.0
2,511,F4,118.021,0.497,88,70.0
2,512,B-4,118.021,0.497,88,70.0
2,513,F5,118.021,0.497,88,70.0
2,514,E-2,118.021,0.99,87,70.0
2,515,B-2,118.021,0.99,87,70.0
2,516,E-3,118.021,0.99,87,70.0
2,517,G4,118.519,0.492,87,70.0
2,518,G5,118.519,0.492,87,70.0
2,519,G4,119.012,0.492,86,70.0
2,520,G5,119.012,0.492,86,70.0
2,521,D2,119.012,0.987,88,70.0
2,522,D3,119.012,0.987,88,70.0
2,523,B-4,119.505,0.494,88,70.0
2,524,F4,120.004,0.528,90,70.0
2,525,B-4,120.004,0.528,90,70.0
2,526,E-5,120.004,0.528,90,70.0
2,527,B-1,120.004,1.024,91,70.0
2,528,B-2,120.004,1.024,91,70.0
2,529,F4,120.533,0.495,87,70.0
2,530,F5,120.533,0.495,87,70.0
2,531,G4,121.029,0.99,86,70.0
2,532,C5,121.029,0.99,86,70.0
2,533,G5,121.029,0.99,86,70.0
2,534,G#1,121.029,0.99,86,70.0
2,535,G#2,121.029,0.99,86,70.0
2,536,B-4,122.021,0.99,88,70.0
2,537,E-5,122.021,0.99,88,70.0
2,538,B-5,122.021,0.99,88,70.0
2,539,G#2,122.021,0.99,88,70.0
2,540,E-3,122.021,0.99,88,70.0
2,541,G#3,122.021,0.99,88,70.0
2,542,F4,123.012,0.987,86,70.0
2,543,B-4,123.012,0.987,86,70.0
2,544,F5,123.012,0.987,86,70.0
2,545,B-1,123.012,0.987,86,70.0
2,546,B-2,123.012,0.987,86,70.0
2,547,F4,124.004,1.024,91,70.0
2,548,B-4,124.004,1.024,91,70.0
2,549,B-2,124.004,1.024,91,70.0
2,550,F3,124.004,1.024,91,70.0
2,551,B-3,124.004,1.024,91,70.0
2,552,E-4,125.029,0.99,86,70.0
2,553,G4,125.029,0.99,86,70.0
2,554,E-5,125.029,0.99,86,70.0
2,555,C2,125.029,0.99,86,70.0
2,556,C3,125.029,0.99,86,70.0
2,557,E-4,126.021,0.497,88,70.0
2,558,G4,126.021,0.497,88,70.0
2,559,E-5,126.021,0.497,88,70.0
2,560,C2,126.021,0.99,89,70.0
2,561,C3,126.021,0.99,89,70.0
2,562,F4,126.519,0.492,87,70.0
2,563,F5,126.519,0.492,87,70.0
2,564,G4,127.012,0.492,86,70.0
2,565,C5,127.012,0.492,86,70.0
2,566,G5,127.012,0.492,86,70.0
2,567,B-1,127.012,0.987,87,70.0
2,568,B-2,127.012,0.987,87,70.0
2,569,F4,127.505,0.494,87,70.0
2,570,F5,127.505,0.494,87,70.0
2,571,E-4,128.004,0.528,90,70.0
2,572,G4,128.004,0.528,90,70.0
2,573,E-5,128.004,0.528,90,70.0
2,574,B-1,128.004,1.024,91,70.0
2,575,B-2,128.004,1.024,91,70.0
2,576,D4,128.533,0.495,87,70.0
2,577,D5,128.533,0.495,87,70.0
2,578,C4,129.029,0.99,86,70.0
2,579,E-4,129.029,0.99,86,70.0
2,580,C5,129.029,0.99,86,70.0
2,581,G#1,129.029,0.99,86,70.0
2,582,G#2,129.029,0.99,86,70.0
2,583,D4,130.021,0.497,90,70.0
2,584,D5,130.021,0.497,90,70.0
2,585,G#2,130.021,0.99,88,70.0
2,586,E-3,130.021,0.99,88,70.0
2,587,G#3,130.021,0.99,88,70.0
2,588,E-4,130.519,0.492,87,70.0
2,589,E-5,130.519,0.492,87,70.0
2,590,D4,131.012,0.987,86,70.0
2,591,G4,131.012,0.987,86,70.0
2,592,D5,131.012,0.987,86,70.0
2,593,B-1,131.012,0.987,86,70.0
2,594,B-2,131.012,0.987,86,70.0
2,595,E-4,132.004,1.024,78,70.0
2,596,B-4,132.004,1.024,78,70.0
2,597,B-2,132.004,1.024,78,70.0
2,598,F3,132.004,1.024,78,70.0
2,599,B-3,132.004,1.024,78,70.0
2,600,C3,133.029,1.488,76,70.0
2,601,E-4,133.029,0.99,72,70.0
2,602,G4,133.029,0.99,72,70.0
2,603,B-4,133.029,0.99,72,70.0
2,604,D5,133.029,0.99,72,70.0
2,605,C4,134.021,0.99,75,70.0
2,606,D4,134.021,0.99,75,70.0
2,607,E-4,134.021,0.99,75,70.0
2,608,G3,134.519,1.48,75,70.0
2,609,C4,135.012,0.987,71,70.0
2,610,D4,135.012,0.987,71,70.0
2,611,E-4,135.012,0.987,71,70.0
2,612,C4,136.004,1.73,72,70.0
2,613,D4,136.004,2.016,77,70.0
2,614,E-4,136.004,2.016,77,70.0
2,615,C3,136.004,1.024,79,70.0
2,616,G3,136.004,1.024,79,70.0
2,617,C4,137.281,0.738,49,70.0
2,618,D4,137.765,0.255,49,70.0
2,619,E-4,138.021,0.241,52,70.0
2,620,G4,138.277,0.226,49,70.0
2,621,C5,138.519,0.227,49,70.0
2,622,D5,138.761,0.235,49,70.0
2,623,E-5,139.012,0.235,50,70.0
2,624,B-5,139.263,0.227,49,70.0
2,625,D6,139.505,0.227,49,70.0
2,626,E-6,139.747,0.237,49,70.0
2,627,B-6,140.004,3.995,49,70.0
3,0,B-4,2.5,0.5,36,70.99
3,1,E-2,2.5,0.5,25,70.99
3,2,E-4,3.0,1.0,32,70.99
3,3,E-5,3.0,1.0,32,70.99
3,4,E-3,3.0,1.0,19,70.99
3,5,G3,3.0,1.0,19,70.99
3,6,D5,3.5,0.5,36,70.99
3,7,E-4,4.0,0.5,26,70.99
3,8,E-5,4.0,0.5,26,70.99
3,9,C5,4.0,0.5,26,70.99
3,10,E-3,4.0,0.5,19,70.99
3,11,G3,4.0,0.5,19,70.99
3,12,E-4,4.5,1.0,29,70.99
3,13,E-5,4.5,1.0,29,70.99
3,14,B-4,4.5,1.0,29,70.99
3,15,E-3,4.5,1.0,21,70.99
3,16,G3,4.5,1.0,21,70.99
3,17,G#4,5.5,0.25,33,70.99
3,18,E-2,5.5,0.5,23,70.99
3,19,E-4,5.5,0.5,23,70.99
3,20,E-5,5.5,0.5,23,70.99
3,21,G4,5.75,0.25,31,70.99
3,22,E-5,6.0,1.0,28,70.99
3,23,F4,6.0,0.5,36,70.99
3,24,E-3,6.0,1.0,23,70.99
3,25,G3,6.0,1.0,23,70.99
3,26,E-4,6.5,0.5,32,70.99
3,27,E-5,7.0,0.5,30,70.99
3,28,G4,7.0,0.5,30,70.99
3,29,E-3,7.0,0.5,20,70.99
3,30,G3,7.0,0.5,20,70.99
3,31,E-4,7.5,1.0,25,70.99
3,32,E-5,7.5,1.0,25,70.99
3,33,B-4,7.5,1.0,25,70.99
3,34,E-3,7.5,1.0,18,70.99
3,35,G3,7.5,1.0,18,70.99
3,36,C5,8.5,0.25,33,70.99
3,37,G1,8.5,0.5,23,70.99
3,38,E-4,8.5,0.5,23,70.99
3,39,E-5,8.5,0.5,23,70.99
3,40,D5,8.75,0.25,31,70.99
3,41,E-4,9.0,1.0,32,70.99
3,42,E-5,9.0,1.0,32,70.99
3,43,G2,9.0,1.0,18,70.99
3,44,E-3,9.0,1.0,18,70.99
3,45,G3,9.0,1.0,18,70.99
3,46,D5,9.5,0.5,36,70.99
3,47,E-4,10.0,0.5,26,70.99
3,48,E-5,10.0,0.5,26,70.99
3,49,C5,10.0,0.5,26,70.99
3,50,G2,10.0,0.5,18,70.99
3,51,E-3,10.0,0.5,18,70.99
3,52,G3,10.0,0.5,18,70.99
3,53,E-4,10.5,1.0,29,70.99
3,54,E-5,10.5,1.0,29,70.99
3,55,B-4,10.5,1.0,29,70.99
3,56,G2,10.5,1.0,20,70.99
3,57,E-3,10.5,1.0,20,70.99
3,58,G3,10.5,1.0,20,70.99
3,59,G#4,11.5,0.25,33,70.99
3,60,B-1,11.5,0.5,23,70.99
3,61,E-4,11.5,0.5,23,70.99
3,62,E-5,11.5,0.5,23,70.99
3,63,G4,11.75,0.25,31,70.99
3,64,E-5,12.0,1.0,28,70.99
3,65,B-4,12.0,0.5,36,70.99
3,66,B-2,12.0,1.0,23,70.99
3,67,G3,12.0,1.0,23,70.99
3,68,E-4,12.5,0.5,32,70.99
3,69,G4,12.875,0.125,25,70.99
3,70,D5,13.0,0.5,26,70.99
3,71,F4,13.0,0.5,26,70.99
3,72,B-2,13.0,0.5,18,70.99
3,73,G#3,13.0,0.5,18,70.99
3,74,E-4,13.5,0.75,20,70.99
3,75,E-5,13.5,1.0,20,70.99
3,76,E-3,13.5,1.0,16,70.99
3,77,G3,13.5,1.0,16,70.99
3,78,G4,14.25,0.25,20,70.99
3,79,B-4,14.5,0.25,23,70.99
3,80,E-2,14.5,0.5,23,70.99
3,81,G5,14.75,0.25,23,70.99
3,82,F5,15.0,0.5,40,70.99
3,83,G#5,15.0,1.0,24,70.99
3,84,G#4,15.0,1.0,24,70.99
3,85,E-3,15.0,1.0,19,70.99
3,86,C4,15.0,1.0,19,70.99
3,87,C5,15.5,0.5,30,70.99
3,88,D5,16.0,0.5,26,70.99
3,89,F4,16.0,0.5,26,70.99
3,90,F5,16.0,0.5,26,70.99
3,91,E-3,16.0,0.5,19,70.99
3,92,G#3,16.0,0.5,19,70.99
3,93,G4,16.5,1.0,29,70.99
3,94,G5,16.5,1.0,29,70.99
3,95,B-4,16.5,1.0,29,70.99
3,96,E-3,16.5,1.0,21,70.99
3,97,B-3,16.5,1.0,21,70.99
3,98,E-5,17.25,0.25,23,70.99
3,99,G5,17.5,0.25,34,70.99
3,100,E-2,17.5,0.5,23,70.99
3,101,B-4,17.5,0.5,24,70.99
3,102,B-5,17.5,0.5,24,70.99
3,103,E-5,17.75,0.25,35,70.99
3,104,F5,18.0,0.5,40,70.99
3,105,G#5,18.0,1.0,24,70.99
3,106,G#4,18.0,1.0,24,70.99
3,107,E-3,18.0,1.0,19,70.99
3,108,C4,18.0,1.0,19,70.99
3,109,C5,18.5,0.5,33,70.99
3,110,D5,19.0,0.5,26,70.99
3,111,F4,19.0,0.5,26,70.99
3,112,F5,19.0,0.5,26,70.99
3,113,E-3,19.0,0.5,19,70.99
3,114,G#3,19.0,0.5,19,70.99
3,115,E-5,19.5,0.5,40,70.99
3,116,G4,19.5,1.0,23,70.99
3,117,G5,19.5,1.0,23,70.99
3,118,E-3,19.5,1.0,19,70.99
3,119,B-3,19.5,1.0,19,70.99
3,120,B-4,20.0,0.5,36,70.99
3,121,E-5,20.5,0.5,32,70.99
3,122,C5,20.5,0.5,32,70.99
3,123,G4,20.5,0.5,32,70.99
3,124,E-2,20.5,0.5,29,70.99
3,125,E-3,20.5,0.5,29,70.99
3,126,F5,21.0,1.0,39,70.99
3,127,D5,21.0,1.0,39,70.99
3,128,F4,21.0,1.0,39,70.99
3,129,B-3,21.0,0.5,28,70.99
3,130,B-2,21.0,0.5,28,70.99
3,131,A3,21.5,0.5,32,70.99
3,132,A2,21.5,0.5,32,70.99
3,133,B-5,22.0,1.0,48,70.99
3,134,D5,22.0,1.0,48,70.99
3,135,B-4,22.0,1.0,48,70.99
3,136,G3,22.0,0.5,36,70.99
3,137,G2,22.0,0.5,36,70.99
3,138,F3,22.5,1.0,36,70.99
3,139,F2,22.5,1.0,36,70.99
3,140,D5,23.0,0.5,46,70.99
3,141,B-4,23.0,0.5,46,70.99
3,142,B-4,23.5,0.5,45,70.99
3,143,F5,23.5,0.5,45,70.99
3,144,A5,23.5,0.5,45,70.99
3,145,E-3,23.5,0.25,39,70.99
3,146,E-2,23.5,0.25,39,70.99
3,147,D2,23.75,0.25,40,70.99
3,148,D3,23.75,0.25,40,70.99
3,149,B-4,24.0,0.5,44,70.99
3,150,E-5,24.0,0.5,44,70.99
3,151,G5,24.0,0.5,44,70.99
3,152,F3,24.0,1.0,38,70.99
3,153,F2,24.0,1.0,38,70.99
3,154,F5,24.5,0.5,38,70.99
3,155,D5,24.5,0.5,38,70.99
3,156,A4,24.5,0.5,38,70.99
3,157,E-5,25.0,0.25,30,70.99
3,158,C5,25.0,0.25,30,70.99
3,159,G4,25.0,0.25,30,70.99
3,160,B-2,25.0,0.5,21,70.99
3,161,B-1,25.0,0.5,21,70.99
3,162,F4,25.25,0.156,27,70.99
3,163,B-4,25.25,0.156,27,70.99
3,164,D5,25.25,0.156,27,70.99
3,165,E-4,25.406,0.594,20,70.99
3,166,G#4,25.438,1.062,24,70.99
3,167,C5,25.469,0.5,30,70.99
3,168,F5,25.469,0.5,30,70.99
3,169,B-2,25.5,1.0,24,70.99
3,170,B-1,25.5,1.0,24,70.99
3,171,B-4,26.0,0.5,30,70.99
3,172,D4,26.0,0.5,30,70.99
3,173,C5,26.5,0.25,27,70.99
3,174,E-4,26.5,0.25,27,70.99
3,175,C4,26.5,0.25,27,70.99
3,176,G#3,26.5,0.375,21,70.99
3,177,B-2,26.5,0.375,21,70.99
3,178,B-4,26.75,0.25,27,70.99
3,179,F4,26.75,0.25,27,70.99
3,180,D4,26.75,0.25,27,70.99
3,181,E-2,26.875,0.125,19,70.99
3,182,G3,27.0,1.0,19,70.99
3,183,E-2,27.0,1.0,19,70.99
3,184,E-4,27.0,1.0,32,70.99
3,185,E-5,27.0,1.0,32,70.99
3,186,D5,27.5,0.5,34,70.99
3,187,E-4,28.0,0.5,26,70.99
3,188,E-5,28.0,0.5,26,70.99
3,189,C5,28.0,0.5,26,70.99
3,190,E-3,28.0,0.5,19,70.99
3,191,G3,28.0,0.5,19,70.99
3,192,E-4,28.5,1.0,29,70.99
3,193,E-5,28.5,1.0,29,70.99
3,194,B-4,28.5,1.0,29,70.99
3,195,E-3,28.5,1.0,21,70.99
3,196,G3,28.5,1.0,21,70.99
3,197,G#4,29.5,0.25,33,70.99
3,198,E-2,29.5,0.5,23,70.99
3,199,E-4,29.5,0.5,23,70.99
3,200,E-5,29.5,0.5,23,70.99
3,201,G4,29.75,0.25,31,70.99
3,202,E-5,30.0,1.0,28,70.99
3,203,F4,30.0,0.5,36,70.99
3,204,E-3,30.0,1.0,23,70.99
3,205,G3,30.0,1.0,23,70.99
3,206,E-4,30.5,0.5,32,70.99
3,207,E-5,31.0,0.5,30,70.99
3,208,G4,31.0,0.5,30,70.99
3,209,E-3,31.0,0.5,20,70.99
3,210,G3,31.0,0.5,20,70.99
3,211,E-4,31.5,1.0,25,70.99
3,212,E-5,31.5,1.0,25,70.99
3,213,B-4,31.5,1.0,25,70.99
3,214,E-3,31.5,1.0,18,70.99
3,215,G3,31.5,1.0,18,70.99
3,216,C5,32.5,0.25,33,70.99
3,217,C2,32.5,0.5,23,70.99
3,218,E-4,32.5,0.5,23,70.99
3,219,E-5,32.5,0.5,23,70.99
3,220,D5,32.75,0.25,31,70.99
3,221,E-4,33.0,1.0,32,70.99
3,222,E-5,33.0,1.0,32,70.99
3,223,C3,33.0,1.0,18,70.99
3,224,G3,33.0,1.0,18,70.99
3,225,D5,33.5,0.5,33,70.99
3,226,E-4,34.0,0.5,26,70.99
3,227,E-5,34.0,0.5,26,70.99
3,228,C5,34.0,0.5,26,70.99
3,229,C3,34.0,0.5,18,70.99
3,230,G3,34.0,0.5,18,70.99
3,231,E-4,34.5,1.0,29,70.99
3,232,E-5,34.5,1.0,29,70.99
3,233,B-4,34.5,1.0,29,70.99
3,234,C3,34.5,1.0,19,70.99
3,235,G3,34.5,1.0,19,70.99
3,236,A4,35.5,0.25,33,70.99
3,237,F2,35.5,0.5,23,70.99
3,238,E-4,35.5,0.5,23,70.99
3,239,E-5,35.5,0.5,23,70.99
3,240,G4,35.75,0.25,31,70.99
3,241,A4,36.0,0.5,36,70.99
3,242,F4,36.0,1.0,26,70.99
3,243,E-5,36.0,1.0,26,70.99
3,244,F3,36.0,1.0,23,70.99
3,245,C4,36.0,1.0,23,70.99
3,246,B-4,36.5,0.5,32,70.99
3,247,F4,37.0,0.5,26,70.99
3,248,E-5,37.0,0.5,26,70.99
3,249,C5,37.0,0.5,26,70.99
3,250,F3,37.0,0.5,20,70.99
3,251,A3,37.0,0.5,20,70.99
3,252,F5,37.5,1.0,26,70.99
3,253,E-5,37.5,0.75,31,70.99
3,254,B-4,37.5,0.75,31,70.99
3,255,F4,37.5,0.75,31,70.99
3,256,B-2,37.5,1.0,20,70.99
3,257,B-3,37.5,1.0,20,70.99
3,258,D5,38.25,0.25,35,70.99
3,259,B-5,38.5,0.5,38,70.99
3,260,C5,38.5,0.25,29,70.99
3,261,D4,38.5,0.375,17,70.99
3,262,B-3,38.5,0.375,17,70.99
3,263,G#4,38.5,0.375,17,70.99
3,264,B-4,38.75,0.25,23,70.99
3,265,E-3,38.875,0.125,19,70.99
3,266,B-3,38.938,0.062,19,70.99
3,267,G4,39.0,0.875,19,70.99
3,268,E-3,39.0,0.875,19,70.99
3,269,B-3,39.0,0.875,19,70.99
3,270,E-5,39.0,1.0,32,70.99
3,271,E-6,39.0,1.0,32,70.99
3,272,D6,39.5,0.5,36,70.99
3,273,E-3,39.875,1.125,19,70.99
3,274,B-3,39.938,1.062,19,70.99
3,275,E-6,40.0,1.0,23,70.99
3,276,G4,40.0,1.0,19,70.99
3,277,E-5,40.0,0.5,28,70.99
3,278,C6,40.0,0.5,28,70.99
3,279,D5,40.5,0.5,37,70.99
3,280,B-5,40.5,0.5,37,70.99
3,281,E-5,41.0,1.0,23,70.99
3,282,C5,41.0,0.5,33,70.99
3,283,G#5,41.0,0.5,33,70.99
3,284,E-3,41.0,1.0,18,70.99
3,285,B-3,41.0,1.0,18,70.99
3,286,B-4,41.5,0.5,28,70.99
3,287,G5,41.5,0.5,28,70.99
3,288,G#4,42.0,0.5,27,70.99
3,289,E-5,42.0,0.5,27,70.99
3,290,F5,42.0,0.5,27,70.99
3,291,E-3,42.0,1.0,18,70.99
3,292,B-3,42.0,1.0,18,70.99
3,293,G4,42.5,0.25,24,70.99
3,294,E-5,42.5,0.5,29,70.99
3,295,F4,42.75,0.25,20,70.99
3,296,E-4,43.0,0.25,19,70.99
3,297,C5,43.0,0.5,27,70.99
3,298,E-3,43.0,1.0,18,70.99
3,299,G3,43.0,1.0,18,70.99
3,300,G4,43.25,0.25,22,70.99
3,301,B-4,43.556,1.0,32,70.99
3,302,G2,44.0,1.0,17,70.99
3,303,E-3,44.0,1.0,17,70.99
3,304,G3,44.0,1.0,17,70.99
3,305,E-4,44.5,0.5,23,70.99
3,306,C5,44.5,0.25,33,70.99
3,307,D5,44.75,0.25,31,70.99
3,308,E-4,45.0,1.0,32,70.99
3,309,E-5,45.0,1.0,32,70.99
3,310,A2,45.0,1.0,18,70.99
3,311,E-3,45.0,1.0,18,70.99
3,312,G3,45.0,1.0,18,70.99
3,313,D5,45.5,0.5,35,70.99
3,314,E-4,46.0,0.5,26,70.99
3,315,E-5,46.0,0.5,26,70.99
3,316,C5,46.0,0.5,26,70.99
3,317,B-2,46.0,1.0,18,70.99
3,318,E-3,46.0,1.0,18,70.99
3,319,G3,46.0,1.0,18,70.99
3,320,B-4,46.5,1.0,37,70.99
3,321,E-4,47.0,1.0,23,70.99
3,322,E-5,47.0,1.0,23,70.99
3,323,C3,47.0,1.0,20,70.99
3,324,E-3,47.0,1.0,20,70.99
3,325,G3,47.0,1.0,20,70.99
3,326,G#4,47.5,0.25,33,70.99
3,327,G4,47.75,0.25,31,70.99
3,328,E-5,48.0,1.0,28,70.99
3,329,B-4,48.0,0.5,36,70.99
3,330,B-2,48.0,1.0,23,70.99
3,331,G3,48.0,1.0,23,70.99
3,332,E-4,48.5,0.5,32,70.99
3,333,G4,48.875,0.125,25,70.99
3,334,D5,49.0,0.5,26,70.99
3,335,F4,49.0,0.5,26,70.99
3,336,B-2,49.0,0.5,18,70.99
3,337,G#3,49.0,0.5,18,70.99
3,338,E-4,49.5,1.0,20,70.99
3,339,E-5,49.5,1.0,20,70.99
3,340,E-3,49.5,1.0,16,70.99
3,341,G3,49.5,1.0,16,70.99
3,342,E5,50.5,0.25,30,70.99
3,343,E4,50.5,0.25,30,70.99
3,344,E2,50.5,0.25,21,70.99
3,345,E3,50.5,0.25,21,70.99
3,346,F#5,50.75,0.25,33,70.99
3,347,F#4,50.75,0.25,33,70.99
3,348,F#2,50.75,0.25,23,70.99
3,349,F#3,50.75,0.25,23,70.99
3,350,G#4,51.0,0.5,37,70.99
3,351,G#5,51.0,0.5,37,70.99
3,352,G#2,51.0,0.5,26,70.99
3,353,G#3,51.0,0.5,26,70.99
3,354,F#5,51.5,0.5,32,70.99
3,355,F#4,51.5,0.5,32,70.99
3,356,F#2,51.5,0.5,22,70.99
3,357,F#3,51.5,0.5,22,70.99
3,358,E5,52.0,0.5,23,70.99
3,359,E4,52.0,0.5,23,70.99
3,360,E2,52.0,0.5,16,70.99
3,361,E3,52.0,0.5,16,70.99
3,362,E-5,52.5,1.0,23,70.99
3,363,E-4,52.5,1.0,23,70.99
3,364,E-2,52.5,1.0,16,70.99
3,365,E-3,52.5,1.0,16,70.99
3,366,E-4,53.5,0.5,24,70.99
3,367,C#4,53.5,0.5,24,70.99
3,368,E-3,53.5,0.5,24,70.99
3,369,C#2,53.5,0.25,21,70.99
3,370,C#3,53.5,0.25,21,70.99
3,371,B1,53.75,0.25,23,70.99
3,372,B2,53.75,0.25,23,70.99
3,373,E-3,54.0,1.0,29,70.99
3,374,B3,54.0,1.0,29,70.99
3,375,E-4,54.0,1.0,29,70.99
3,376,B-1,54.0,0.5,26,70.99
3,377,B-2,54.0,0.5,26,70.99
3,378,G#1,54.5,0.5,22,70.99
3,379,G#2,54.5,0.5,22,70.99
3,380,E-4,55.0,0.5,20,70.99
3,381,G#3,55.0,0.5,20,70.99
3,382,E-3,55.0,0.5,20,70.99
3,383,B1,55.0,0.5,18,70.99
3,384,B2,55.0,0.5,18,70.99
3,385,E-2,55.5,1.0,17,70.99
3,386,E-4,55.5,1.0,21,70.99
3,387,E-3,55.5,1.0,21,70.99
3,388,E5,56.5,0.25,30,70.99
3,389,E4,56.5,0.25,30,70.99
3,390,E-3,56.5,0.5,21,70.99
3,391,C#4,56.5,0.5,21,70.99
3,392,F#5,56.75,0.25,33,70.99
3,393,F#4,56.75,0.25,33,70.99
3,394,G#4,57.0,0.5,37,70.99
3,395,G#5,57.0,0.5,37,70.99
3,396,E-3,57.0,1.0,26,70.99
3,397,B3,57.0,1.0,26,70.99
3,398,F#4,57.5,0.5,33,70.99
3,399,F#5,57.5,0.5,33,70.99
3,400,E5,58.0,0.5,23,70.99
3,401,E4,58.0,0.5,23,70.99
3,402,E-3,58.0,0.5,16,70.99
3,403,G#3,58.0,0.5,16,70.99
3,404,E-5,58.5,1.0,23,70.99
3,405,E-4,58.5,1.0,23,70.99
3,406,E-3,58.5,1.0,16,70.99
3,407,E-4,58.5,1.0,16,70.99
3,408,E5,59.5,0.25,30,70.99
3,409,E4,59.5,0.25,30,70.99
3,410,C#2,59.5,0.5,21,70.99
3,411,C#3,59.5,0.5,21,70.99
3,412,E-5,59.75,0.25,32,70.99
3,413,F#5,59.75,0.25,32,70.99
3,414,F#4,59.75,0.25,32,70.99
3,415,E5,60.0,0.5,36,70.99
3,416,G#4,60.0,0.5,36,70.99
3,417,G#5,60.0,0.5,36,70.99
3,418,B-1,60.0,1.0,26,70.99
3,419,B-2,60.0,1.0,26,70.99
3,420,E-5,60.5,0.5,31,70.99
3,421,F#5,60.5,0.5,31,70.99
3,422,F#4,60.5,0.5,31,70.99
3,423,C#5,61.0,0.5,22,70.99
3,424,E5,61.0,0.5,22,70.99
3,425,E4,61.0,0.5,22,70.99
3,426,G1,61.0,1.0,16,70.99
3,427,G2,61.0,1.0,16,70.99
3,428,E-5,61.5,0.5,18,70.99
3,429,E-4,61.5,0.5,18,70.99
3,430,B4,61.5,0.5,18,70.99
3,431,B-4,62.0,0.5,16,70.99
3,432,C#5,62.0,0.5,16,70.99
3,433,C#4,62.0,0.5,16,70.99
3,434,G#1,62.0,1.0,12,70.99
3,435,G#2,62.0,1.0,12,70.99
3,436,B3,62.5,0.5,14,70.99
3,437,B4,62.5,0.5,14,70.99
3,438,G#4,62.5,0.5,14,70.99
3,439,B-1,63.0,0.25,16,70.99
3,440,B-2,63.25,0.25,16,70.99
3,441,F#4,63.5,1.0,23,70.99
3,442,B-4,63.5,0.5,27,70.99
3,443,E-3,63.5,0.25,15,70.99
3,444,F#3,63.75,0.25,16,70.99
3,445,B-3,64.0,0.25,17,70.99
3,446,G#4,64.5,1.0,26,70.99
3,447,B4,64.5,0.5,31,70.99
3,448,B-1,64.5,0.25,19,70.99
3,449,B-2,64.75,0.25,19,70.99
3,450,B3,65.0,0.25,18,70.99
3,451,F3,65.0,0.25,17,70.99
3,452,G#3,65.25,0.25,17,70.99
3,453,F4,65.5,0.5,26,70.99
3,454,G#4,65.5,0.5,26,70.99
3,455,G#3,66.0,0.25,16,70.99
3,456,B-1,66.0,0.25,16,70.99
3,457,B-2,66.25,0.25,16,70.99
3,458,F5,66.5,0.5,23,70.99
3,459,G#5,66.5,1.0,27,70.99
3,460,D3,66.5,0.25,15,70.99
3,461,F3,66.75,0.25,16,70.99
3,462,G#4,67.0,0.25,17,70.99
3,463,F#5,67.5,0.5,26,70.99
3,464,B-5,67.5,1.0,31,70.99
3,465,B-1,67.5,0.25,19,70.99
3,466,B-2,67.75,0.25,19,70.99
3,467,B-4,68.0,0.25,18,70.99
3,468,E-3,68.0,0.25,17,70.99
3,469,F#3,68.25,0.25,17,70.99
3,470,E-5,68.5,0.5,26,70.99
3,471,F#5,68.5,0.5,26,70.99
3,472,F#4,69.0,0.25,18,70.99
3,473,B-1,69.0,0.25,18,70.99
3,474,B-2,69.25,0.25,16,70.99
3,475,E-4,69.5,1.0,21,70.99
3,476,F#4,69.5,0.5,26,70.99
3,477,B2,69.5,0.25,14,70.99
3,478,E-3,69.75,0.25,14,70.99
3,479,F#3,70.0,0.25,15,70.99
3,480,B3,70.5,1.0,21,70.99
3,481,G#1,70.5,0.25,16,70.99
3,482,E-4,70.5,0.5,24,70.99
3,483,F4,70.5,0.5,24,70.99
3,484,G#2,70.75,0.25,16,70.99
3,485,F3,71.0,0.25,16,70.99
3,486,B2,71.0,0.25,15,70.99
3,487,E-3,71.25,0.25,15,70.99
3,488,B3,71.5,0.5,23,70.99
3,489,E-4,71.5,0.5,23,70.99
3,490,F4,71.5,0.5,23,70.99
3,491,G#1,72.0,0.25,18,70.99
3,492,G#2,72.25,0.25,18,70.99
3,493,F5,72.5,1.0,29,70.99
3,494,B-2,72.5,0.25,16,70.99
3,495,B-4,72.5,0.5,24,70.99
3,496,C#5,72.5,0.5,24,70.99
3,497,C#3,72.75,0.25,16,70.99
3,498,F4,73.0,0.25,17,70.99
3,499,E-5,73.5,1.0,29,70.99
3,500,F#1,73.5,0.25,18,70.99
3,501,B-4,73.5,0.5,24,70.99
3,502,C#5,73.5,0.5,24,70.99
3,503,F#2,73.75,0.25,18,70.99
3,504,E-4,74.0,0.25,18,70.99
3,505,B-2,74.0,0.25,17,70.99
3,506,C#3,74.25,0.25,17,70.99
3,507,B-4,74.5,0.5,26,70.99
3,508,C#5,74.5,0.5,26,70.99
3,509,E-5,74.5,0.5,26,70.99
3,510,F#1,75.0,0.25,14,70.99
3,511,F#2,75.25,0.25,14,70.99
3,512,E4,75.5,1.0,25,70.99
3,513,B-2,75.5,0.25,13,70.99
3,514,B-3,75.5,0.5,20,70.99
3,515,C4,75.5,0.5,20,70.99
3,516,C3,75.75,0.25,14,70.99
3,517,E3,76.0,0.5,15,70.99
3,518,F4,76.5,1.0,29,70.99
3,519,F1,76.5,0.25,18,70.99
3,520,B-3,76.5,0.5,24,70.99
3,521,C4,76.5,0.5,24,70.99
3,522,F2,76.75,0.25,17,70.99
3,523,F3,77.0,0.5,16,70.99
3,524,B-2,77.0,0.25,15,70.99
3,525,C3,77.25,0.25,15,70.99
3,526,B-3,77.5,0.5,22,70.99
3,527,C4,77.5,0.5,22,70.99
3,528,F4,78.0,1.5,22,70.99
3,529,A4,78.0,1.5,22,70.99
3,530,F5,78.0,1.5,22,70.99
3,531,E-5,78.0,1.5,22,70.99
3,532,F2,78.0,1.5,18,70.99
3,533,A2,78.0,1.5,18,70.99
3,534,F3,78.0,1.5,18,70.99
3,535,E-3,78.0,1.5,18,70.99
3,536,C#5,78.5,0.5,21,70.99
3,537,C#3,78.5,0.5,17,70.99
3,538,C5,79.0,0.5,21,70.99
3,539,C3,79.0,0.5,17,70.99
3,540,E-5,79.5,1.0,21,70.99
3,541,E-3,79.5,1.0,17,70.99
3,542,F4,79.5,1.5,22,70.99
3,543,B-4,79.5,1.5,22,70.99
3,544,F5,79.5,1.5,22,70.99
3,545,F2,79.5,1.5,18,70.99
3,546,B-2,79.5,1.5,18,70.99
3,547,F3,79.5,1.5,18,70.99
3,548,C#5,80.5,0.5,19,70.99
3,549,C#3,80.5,0.5,16,70.99
3,550,F#1,81.0,0.25,32,70.99
3,551,F#2,81.25,0.25,20,70.99
3,552,E4,81.5,1.0,40,70.99
3,553,B-2,81.5,0.25,19,70.99
3,554,B-3,81.5,0.5,31,70.99
3,555,C4,81.5,0.5,31,70.99
3,556,C3,81.75,0.25,20,70.99
3,557,E3,82.0,0.5,23,70.99
3,558,B-3,82.5,0.5,36,70.99
3,559,C1,82.5,0.25,38,70.99
3,560,E-4,82.5,1.0,41,70.99
3,561,F#4,82.5,1.0,41,70.99
3,562,C2,82.75,0.25,27,70.99
3,563,F#3,83.0,0.5,24,70.99
3,564,E-2,83.0,0.25,23,70.99
3,565,B-2,83.25,0.25,23,70.99
3,566,F#3,83.5,0.5,34,70.99
3,567,E-3,83.5,0.5,34,70.99
3,568,C4,83.5,0.5,34,70.99
3,569,F4,84.0,1.5,22,70.99
3,570,A4,84.0,1.5,22,70.99
3,571,F5,84.0,1.5,22,70.99
3,572,E-5,84.0,1.5,22,70.99
3,573,F2,84.0,1.5,18,70.99
3,574,A2,84.0,1.5,18,70.99
3,575,F3,84.0,1.5,18,70.99
3,576,E-3,84.0,1.5,18,70.99
3,577,C#5,84.5,0.5,21,70.99
3,578,C#3,84.5,0.5,17,70.99
3,579,C5,85.0,0.5,21,70.99
3,580,C3,85.0,0.5,17,70.99
3,581,G#4,85.5,0.5,20,70.99
3,582,G#5,85.5,0.5,20,70.99
3,583,B-4,85.5,1.5,18,70.99
3,584,D5,85.5,1.5,18,70.99
3,585,G#2,85.5,0.5,16,70.99
3,586,G#3,85.5,0.5,16,70.99
3,587,B-2,85.5,1.5,15,70.99
3,588,D3,85.5,1.5,15,70.99
3,589,F#4,86.0,0.5,16,70.99
3,590,F#5,86.0,0.5,16,70.99
3,591,F#2,86.0,0.5,12,70.99
3,592,F#3,86.0,0.5,12,70.99
3,593,F4,86.5,0.5,14,70.99
3,594,F5,86.5,0.5,14,70.99
3,595,F2,86.5,0.5,12,70.99
3,596,F3,86.5,0.5,12,70.99
3,597,E-2,87.0,0.25,18,70.99
3,598,B-2,87.25,0.25,18,70.99
3,599,F#4,87.5,1.0,26,70.99
3,600,B-4,87.5,0.5,31,70.99
3,601,E-3,87.5,0.25,17,70.99
3,602,F#3,87.75,0.25,18,70.99
3,603,B-3,88.0,0.25,19,70.99
3,604,G#4,88.5,1.0,29,70.99
3,605,B4,88.5,0.5,35,70.99
3,606,G#1,88.5,0.25,21,70.99
3,607,G#2,88.75,0.25,21,70.99
3,608,B3,89.0,0.25,20,70.99
3,609,B2,89.0,0.25,19,70.99
3,610,E3,89.25,0.25,19,70.99
3,611,E4,89.5,0.5,29,70.99
3,612,G#4,89.5,0.5,29,70.99
3,613,G#3,90.0,0.25,18,70.99
3,614,B-1,90.0,0.25,18,70.99
3,615,B-2,90.25,0.25,18,70.99
3,616,B-4,90.5,0.5,26,70.99
3,617,C#3,90.5,0.25,17,70.99
3,618,C#5,90.5,1.0,28,70.99
3,619,E5,90.5,1.0,28,70.99
3,620,G#5,90.5,1.0,28,70.99
3,621,E3,90.75,0.25,18,70.99
3,622,G#4,91.0,0.25,19,70.99
3,623,C#5,91.5,0.5,29,70.99
3,624,E-2,91.5,0.25,21,70.99
3,625,G5,91.5,1.0,32,70.99
3,626,B-5,91.5,1.0,32,70.99
3,627,B-2,91.75,0.25,21,70.99
3,628,B-4,92.0,0.25,20,70.99
3,629,E-3,92.0,0.25,19,70.99
3,630,G3,92.25,0.25,19,70.99
3,631,C#4,92.5,0.5,28,70.99
3,632,B-4,92.5,0.5,28,70.99
3,633,C#5,92.5,0.5,28,70.99
3,634,G#1,93.0,0.25,20,70.99
3,635,E-2,93.25,0.25,18,70.99
3,636,C4,93.5,0.5,24,70.99
3,637,G#2,93.5,0.25,16,70.99
3,638,E-4,93.5,1.0,26,70.99
3,639,F#4,93.5,1.0,26,70.99
3,640,C3,93.75,0.25,16,70.99
3,641,F#3,94.0,0.25,17,70.99
3,642,B3,94.5,0.5,24,70.99
3,643,G#1,94.5,0.25,18,70.99
3,644,E-4,94.5,1.0,26,70.99
3,645,F#4,94.5,1.0,26,70.99
3,646,E-2,94.75,0.25,18,70.99
3,647,F#3,95.0,0.25,18,70.99
3,648,G#2,95.0,0.25,17,70.99
3,649,B2,95.25,0.25,17,70.99
3,650,B3,95.5,0.5,26,70.99
3,651,E-4,95.5,0.5,26,70.99
3,652,E4,95.5,0.5,26,70.99
3,653,B-1,96.0,0.25,20,70.99
3,654,B-2,96.25,0.25,20,70.99
3,655,B-4,96.5,0.5,27,70.99
3,656,C#3,96.5,0.25,18,70.99
3,657,E5,96.5,1.0,29,70.99
3,658,C#5,96.5,1.0,29,70.99
3,659,G#5,96.5,1.0,29,70.99
3,660,E3,96.75,0.25,18,70.99
3,661,G#4,97.0,0.25,19,70.99
3,662,B-4,97.5,0.5,27,70.99
3,663,G1,97.5,0.25,20,70.99
3,664,C#5,97.5,1.0,30,70.99
3,665,E5,97.5,1.0,30,70.99
3,666,G2,97.75,0.25,20,70.99
3,667,E4,98.0,0.25,20,70.99
3,668,B-2,98.0,0.25,19,70.99
3,669,E-3,98.25,0.25,19,70.99
3,670,B-4,98.5,0.5,29,70.99
3,671,C#5,98.5,0.5,29,70.99
3,672,E-5,98.5,0.5,29,70.99
3,673,G#1,99.0,0.25,16,70.99
3,674,E-2,99.25,0.25,16,70.99
3,675,B3,99.5,0.5,23,70.99
3,676,D4,99.5,1.0,28,70.99
3,677,G#2,99.5,0.25,14,70.99
3,678,B2,99.75,0.25,16,70.99
3,679,F3,100.0,0.5,17,70.99
3,680,B-3,100.5,0.5,27,70.99
3,681,E-4,100.5,1.0,33,70.99
3,682,F#1,100.5,0.25,20,70.99
3,683,E-2,100.75,0.25,19,70.99
3,684,E-3,101.0,0.5,18,70.99
3,685,F#2,101.0,0.25,17,70.99
3,686,B-2,101.25,0.25,17,70.99
3,687,F#3,101.5,0.5,26,70.99
3,688,B-3,101.5,0.5,26,70.99
3,689,B-3,102.0,1.5,22,70.99
3,690,D4,102.0,1.5,22,70.99
3,691,B-4,102.0,1.5,22,70.99
3,692,G#4,102.0,1.5,22,70.99
3,693,B-2,102.0,1.5,18,70.99
3,694,G#3,102.0,1.5,18,70.99
3,695,D3,102.0,1.5,18,70.99
3,696,F#4,102.5,0.5,21,70.99
3,697,F#3,102.5,0.5,17,70.99
3,698,F4,103.0,0.5,21,70.99
3,699,F3,103.0,0.5,17,70.99
3,700,G#4,103.5,1.0,21,70.99
3,701,G#3,103.5,1.0,17,70.99
3,702,B-3,103.5,1.5,22,70.99
3,703,E-4,103.5,1.5,22,70.99
3,704,B-4,103.5,1.5,22,70.99
3,705,B-2,103.5,1.5,19,70.99
3,706,E-3,103.5,1.5,19,70.99
3,707,F#4,104.5,0.5,19,70.99
3,708,F#3,104.5,0.5,16,70.99
3,709,G#1,105.0,0.25,27,70.99
3,710,G#2,105.25,0.25,18,70.99
3,711,G#4,105.5,0.5,27,70.99
3,712,B2,105.5,0.25,17,70.99
3,713,B4,105.5,1.0,30,70.99
3,714,E5,105.5,1.0,30,70.99
3,715,E3,105.75,0.25,18,70.99
3,716,E4,106.0,0.5,19,70.99
3,717,F#4,106.5,0.5,29,70.99
3,718,B-1,106.5,0.25,26,70.99
3,719,B-4,106.5,1.0,32,70.99
3,720,E-5,106.5,1.0,32,70.99
3,721,F#2,106.75,0.25,21,70.99
3,722,E-4,107.0,0.5,19,70.99
3,723,B-2,107.0,0.25,18,70.99
3,724,E-3,107.25,0.25,17,70.99
3,725,F#4,107.5,0.5,26,70.99
3,726,B-4,107.5,0.5,26,70.99
3,727,G#2,108.0,1.0,17,70.99
3,728,B-2,108.0,1.5,21,70.99
3,729,D3,108.0,1.5,22,70.99
3,730,B-3,108.0,1.5,22,70.99
3,731,G#3,108.0,1.5,22,70.99
3,732,F#2,109.0,1.0,17,70.99
3,733,B-2,109.5,1.5,17,70.99
3,734,D3,109.5,1.5,22,70.99
3,735,G#3,109.5,1.5,22,70.99
3,736,B-3,109.5,1.5,22,70.99
3,737,F2,110.0,1.0,17,70.99
3,738,C#4,111.0,1.0,17,70.99
3,739,C#3,111.0,1.0,14,70.99
3,740,E-2,111.0,1.5,17,70.99
3,741,E-3,111.0,1.5,22,70.99
3,742,G3,111.0,1.5,22,70.99
3,743,E-4,111.0,1.5,22,70.99
3,744,B3,112.0,1.0,16,70.99
3,745,B2,112.0,1.0,13,70.99
3,746,E-2,112.5,1.5,15,70.99
3,747,E-4,112.5,1.5,20,70.99
3,748,G3,112.5,1.5,20,70.99
3,749,E-3,112.5,1.5,20,70.99
3,750,B-3,113.0,0.312,15,70.99
3,751,B-2,113.0,0.312,12,70.99
3,752,E-2,113.875,0.125,17,70.99
3,753,B-2,113.938,0.062,17,70.99
3,754,G3,114.0,1.0,17,70.99
3,755,E-2,114.0,1.0,17,70.99
3,756,B-2,114.0,1.0,17,70.99
3,757,G4,114.0,1.0,28,70.99
3,758,E-4,114.0,1.0,28,70.99
3,759,E-5,114.0,1.0,28,70.99
3,760,D4,114.5,0.5,28,70.99
3,761,D5,114.5,0.5,28,70.99
3,762,E-6,115.0,0.5,25,70.99
3,763,G5,115.0,0.5,25,70.99
3,764,C4,115.0,0.5,25,70.99
3,765,E-4,115.0,0.5,25,70.99
3,766,E-5,115.0,0.5,25,70.99
3,767,C5,115.0,0.5,25,70.99
3,768,E-6,115.5,1.0,27,70.99
3,769,G5,115.5,1.0,27,70.99
3,770,B-3,115.5,1.0,27,70.99
3,771,E-4,115.5,1.0,27,70.99
3,772,E-5,115.5,1.0,27,70.99
3,773,B-4,115.5,1.0,27,70.99
3,774,G#3,116.5,0.25,26,70.99
3,775,E-4,116.5,0.25,26,70.99
3,776,G#4,116.5,0.25,26,70.99
3,777,B-2,116.5,0.5,23,70.99
3,778,E-2,116.5,0.5,23,70.99
3,779,G3,116.75,0.25,26,70.99
3,780,G4,116.75,0.25,26,70.99
3,781,G3,117.0,1.0,28,70.99
3,782,F4,117.0,0.5,36,70.99
3,783,E-2,117.0,0.5,23,70.99
3,784,B-2,117.0,0.5,23,70.99
3,785,F3,117.0,0.5,23,70.99
3,786,E-4,117.5,0.5,32,70.99
3,787,E-3,117.5,0.5,23,70.99
3,788,E-6,118.0,0.5,32,70.99
3,789,G5,118.0,0.5,32,70.99
3,790,G3,118.0,0.5,32,70.99
3,791,E-4,118.0,0.5,32,70.99
3,792,E-5,118.0,0.5,32,70.99
3,793,G4,118.0,0.5,32,70.99
3,794,E-6,118.5,1.0,29,70.99
3,795,G5,118.5,1.0,29,70.99
3,796,B-3,118.5,1.0,29,70.99
3,797,E-4,118.5,1.0,29,70.99
3,798,E-5,118.5,1.0,29,70.99
3,799,B-4,118.5,1.0,29,70.99
3,800,C4,119.5,0.25,38,70.99
3,801,C5,119.5,0.25,38,70.99
3,802,G2,119.5,0.5,24,70.99
3,803,E-3,119.5,0.5,24,70.99
3,804,D4,119.75,0.25,36,70.99
3,805,D5,119.75,0.25,36,70.99
3,806,B-4,120.0,0.5,35,70.99
3,807,E-4,120.0,0.5,35,70.99
3,808,E-5,120.0,0.5,35,70.99
3,809,G2,120.0,1.0,20,70.99
3,810,E-3,120.0,1.0,20,70.99
3,811,D4,120.5,0.5,31,70.99
3,812,D5,120.5,0.5,31,70.99
3,813,E-6,121.0,0.5,30,70.99
3,814,G5,121.0,0.5,30,70.99
3,815,C4,121.0,0.5,30,70.99
3,816,E-4,121.0,0.5,30,70.99
3,817,E-5,121.0,0.5,30,70.99
3,818,C5,121.0,0.5,30,70.99
3,819,E-6,121.5,1.0,33,70.99
3,820,G5,121.5,1.0,33,70.99
3,821,B-3,121.5,1.0,33,70.99
3,822,E-4,121.5,1.0,33,70.99
3,823,E-5,121.5,1.0,33,70.99
3,824,B-4,121.5,1.0,33,70.99
3,825,G#3,122.5,0.25,30,70.99
3,826,E-4,122.5,0.25,30,70.99
3,827,G#4,122.5,0.25,30,70.99
3,828,B-1,122.5,0.5,24,70.99
3,829,B-2,122.5,0.5,24,70.99
3,830,G3,122.75,0.25,30,70.99
3,831,G4,122.75,0.25,30,70.99
3,832,B-3,123.0,1.0,32,70.99
3,833,B-4,123.0,0.5,41,70.99
3,834,E-3,123.0,1.0,26,70.99
3,835,B-2,123.0,1.0,26,70.99
3,836,G3,123.0,1.0,26,70.99
3,837,E-4,123.5,0.5,36,70.99
3,838,G4,123.875,0.125,28,70.99
3,839,G#3,124.0,0.5,28,70.99
3,840,D4,124.0,0.5,28,70.99
3,841,F4,124.0,0.5,28,70.99
3,842,B-1,124.0,0.5,20,70.99
3,843,B-2,124.0,0.5,20,70.99
3,844,E-4,124.5,0.75,23,70.99
3,845,G3,124.5,1.0,23,70.99
3,846,E-2,124.5,1.0,18,70.99
3,847,B-2,124.5,1.0,18,70.99
3,848,G4,125.25,0.25,23,70.99
3,849,G4,125.5,0.5,23,70.99
3,850,B-4,125.5,0.25,26,70.99
3,851,E-2,125.5,0.5,26,70.99
3,852,G5,125.75,0.25,26,70.99
3,853,F5,126.0,0.5,46,70.99
3,854,G#5,126.0,1.0,28,70.99
3,855,G#4,126.0,1.0,28,70.99
3,856,E-3,126.0,1.0,21,70.99
3,857,C4,126.0,1.0,21,70.99
3,858,C5,126.5,0.5,37,70.99
3,859,D5,127.0,0.5,30,70.99
3,860,F4,127.0,0.5,30,70.99
3,861,F5,127.0,0.5,30,70.99
3,862,E-3,127.0,0.5,21,70.99
3,863,G#3,127.0,0.5,21,70.99
3,864,G4,127.5,1.0,33,70.99
3,865,G5,127.5,1.0,33,70.99
3,866,B-4,127.5,1.0,33,70.99
3,867,E-3,127.5,1.0,24,70.99
3,868,B-3,127.5,1.0,24,70.99
3,869,E-5,128.25,0.25,26,70.99
3,870,G5,128.5,0.25,39,70.99
3,871,E-2,128.5,0.5,26,70.99
3,872,B-4,128.5,0.5,28,70.99
3,873,B-5,128.5,0.5,28,70.99
3,874,E-5,128.75,0.25,37,70.99
3,875,F5,129.0,0.25,46,70.99
3,876,G#5,129.0,1.0,28,70.99
3,877,G#4,129.0,1.0,28,70.99
3,878,E-3,129.0,1.0,21,70.99
3,879,C4,129.0,1.0,21,70.99
3,880,E-5,129.25,0.25,37,70.99
3,881,F5,129.5,0.25,41,70.99
3,882,C5,129.75,0.25,34,70.99
3,883,E-5,130.0,0.25,37,70.99
3,884,F4,130.0,0.5,26,70.99
3,885,F5,130.0,0.5,26,70.99
3,886,E-3,130.0,0.5,21,70.99
3,887,G#3,130.0,0.5,21,70.99
3,888,D5,130.25,0.25,33,70.99
3,889,E-5,130.5,0.25,46,70.99
3,890,G4,130.5,1.0,26,70.99
3,891,G5,130.5,1.0,26,70.99
3,892,E-3,130.5,1.0,21,70.99
3,893,B-3,130.5,1.0,21,70.99
3,894,D5,130.75,0.25,41,70.99
3,895,E-5,131.0,0.25,41,70.99
3,896,B-4,131.25,0.25,36,70.99
3,897,C5,131.5,0.25,47,70.99
3,898,E-5,131.5,0.5,33,70.99
3,899,G4,131.5,0.5,33,70.99
3,900,E-2,131.5,0.5,35,70.99
3,901,E-3,131.5,0.5,35,70.99
3,902,B-4,131.75,0.25,43,70.99
3,903,D5,132.0,0.25,49,70.99
3,904,F5,132.0,1.0,39,70.99
3,905,F4,132.0,1.0,39,70.99
3,906,B-3,132.0,0.5,30,70.99
3,907,B-2,132.0,0.5,30,70.99
3,908,C5,132.25,0.25,44,70.99
3,909,D5,132.5,0.25,50,70.99
3,910,A3,132.5,0.5,34,70.99
3,911,A2,132.5,0.5,34,70.99
3,912,B-4,132.75,0.25,43,70.99
3,913,C5,133.0,0.25,48,70.99
3,914,E-5,133.0,0.5,52,70.99
3,915,E-4,133.0,0.5,52,70.99
3,916,B-2,133.0,0.5,36,70.99
3,917,G3,133.0,0.5,36,70.99
3,918,G2,133.0,0.5,36,70.99
3,919,B-4,133.25,0.25,46,70.99
3,920,D5,133.5,0.25,57,70.99
3,921,F4,133.5,1.0,49,70.99
3,922,F5,133.5,1.0,49,70.99
3,923,B-2,133.5,1.0,46,70.99
3,924,F3,133.5,1.0,46,70.99
3,925,F2,133.5,1.0,46,70.99
3,926,C5,133.75,0.25,55,70.99
3,927,D5,134.0,0.25,61,70.99
3,928,B-4,134.25,0.25,55,70.99
3,929,A4,134.5,0.25,53,70.99
3,930,A5,134.5,0.5,62,70.99
3,931,F5,134.5,0.5,62,70.99
3,932,E-3,134.5,0.25,43,70.99
3,933,E-2,134.5,0.25,43,70.99
3,934,B-4,134.75,0.25,46,70.99
3,935,D2,134.75,0.25,44,70.99
3,936,D3,134.75,0.25,44,70.99
3,937,B-4,135.0,0.25,51,70.99
3,938,E-5,135.0,0.5,56,70.99
3,939,G5,135.0,0.5,56,70.99
3,940,F3,135.0,1.0,47,70.99
3,941,F2,135.0,1.0,47,70.99
3,942,G4,135.25,0.25,49,70.99
3,943,A4,135.5,0.25,46,70.99
3,944,F5,135.5,0.5,50,70.99
3,945,D5,135.5,0.5,50,70.99
3,946,G4,135.75,0.25,38,70.99
3,947,C5,136.0,0.25,40,70.99
3,948,G4,136.0,0.25,40,70.99
3,949,E-5,136.0,0.25,40,70.99
3,950,B-2,136.0,0.5,28,70.99
3,951,B-1,136.0,0.5,28,70.99
3,952,B-4,136.25,0.25,34,70.99
3,953,F4,136.25,0.25,34,70.99
3,954,D5,136.25,0.25,34,70.99
3,955,G#4,136.5,1.0,29,70.99
3,956,E-4,136.5,0.25,25,70.99
3,957,C5,136.5,0.5,42,70.99
3,958,B-2,136.5,1.0,30,70.99
3,959,B-1,136.5,1.0,30,70.99
3,960,C4,136.75,0.25,33,70.99
3,961,D4,137.0,0.25,32,70.99
3,962,G4,137.0,0.5,35,70.99
3,963,B-4,137.0,0.5,35,70.99
3,964,B-3,137.25,0.25,27,70.99
3,965,B-4,137.5,0.5,33,70.99
3,966,B-2,137.5,0.375,20,70.99
3,967,E-4,137.5,0.25,29,70.99
3,968,G#4,137.5,0.25,29,70.99
3,969,C4,137.5,0.25,29,70.99
3,970,G#3,137.75,0.125,24,70.99
3,971,D4,137.75,0.25,27,70.99
3,972,F4,137.75,0.25,27,70.99
3,973,E-2,137.875,0.125,20,70.99
3,974,G3,138.0,1.0,19,70.99
3,975,E-2,138.0,1.0,20,70.99
3,976,E-4,138.0,1.0,32,70.99
3,977,E-5,138.0,1.0,32,70.99
3,978,D5,138.5,0.5,36,70.99
3,979,E-4,139.0,0.5,26,70.99
3,980,E-5,139.0,0.5,26,70.99
3,981,C5,139.0,0.5,26,70.99
3,982,E-3,139.0,0.5,19,70.99
3,983,G3,139.0,0.5,19,70.99
3,984,E-4,139.5,1.0,29,70.99
3,985,E-5,139.5,1.0,29,70.99
3,986,B-4,139.5,1.0,29,70.99
3,987,E-3,139.5,1.0,21,70.99
3,988,G3,139.5,1.0,21,70.99
3,989,G#4,140.5,0.25,33,70.99
3,990,E-2,140.5,0.5,23,70.99
3,991,E-4,140.5,0.5,23,70.99
3,992,E-5,140.5,0.5,23,70.99
3,993,G4,140.75,0.25,31,70.99
3,994,E-5,141.0,1.0,28,70.99
3,995,F4,141.0,0.5,36,70.99
3,996,E-3,141.0,1.0,23,70.99
3,997,G3,141.0,1.0,23,70.99
3,998,E-4,141.5,0.5,32,70.99
3,999,E-5,142.0,0.5,30,70.99
3,1000,G4,142.0,0.5,30,70.99
3,1001,E-3,142.0,0.5,20,70.99
3,1002,G3,142.0,0.5,20,70.99
3,1003,E-4,142.5,1.0,25,70.99
3,1004,E-5,142.5,1.0,25,70.99
3,1005,B-4,142.5,1.0,25,70.99
3,1006,E-3,142.5,1.0,18,70.99
3,1007,G3,142.5,1.0,18,70.99
3,1008,C5,143.5,0.25,33,70.99
3,1009,C2,143.5,0.5,23,70.99
3,1010,E-4,143.5,0.5,23,70.99
3,1011,E-5,143.5,0.5,23,70.99
3,1012,D5,143.75,0.25,31,70.99
3,1013,E-4,144.0,1.0,32,70.99
3,1014,E-5,144.0,1.0,32,70.99
3,1015,C3,144.0,1.0,18,70.99
3,1016,G3,144.0,1.0,18,70.99
3,1017,D5,144.5,0.5,36,70.99
3,1018,E-4,145.0,0.5,26,70.99
3,1019,E-5,145.0,0.5,26,70.99
3,1020,C5,145.0,0.5,26,70.99
3,1021,C3,145.0,0.5,18,70.99
3,1022,G3,145.0,0.5,18,70.99
3,1023,E-4,145.5,1.0,29,70.99
3,1024,E-5,145.5,1.0,29,70.99
3,1025,B-4,145.5,1.0,29,70.99
3,1026,C3,145.5,1.0,19,70.99
3,1027,G3,145.5,1.0,19,70.99
3,1028,A4,146.5,0.25,33,70.99
3,1029,D2,146.5,0.5,23,70.99
3,1030,E-4,146.5,0.5,23,70.99
3,1031,E-5,146.5,0.5,23,70.99
3,1032,G4,146.75,0.25,31,70.99
3,1033,A4,147.0,0.5,36,70.99
3,1034,E-4,147.0,1.0,24,70.99
3,1035,E-5,147.0,1.0,24,70.99
3,1036,D3,147.0,1.0,22,70.99
3,1037,F#3,147.0,1.0,22,70.99
3,1038,C4,147.0,1.0,22,70.99
3,1039,B-4,147.5,0.5,32,70.99
3,1040,D4,148.0,0.5,26,70.99
3,1041,D5,148.0,0.5,26,70.99
3,1042,C5,148.0,0.5,26,70.99
3,1043,D3,148.0,0.5,20,70.99
3,1044,F#3,148.0,0.5,20,70.99
3,1045,A3,148.0,0.5,20,70.99
3,1046,D5,148.5,1.0,26,70.99
3,1047,B-4,148.5,0.75,26,70.99
3,1048,D4,148.5,0.75,26,70.99
3,1049,B-2,148.5,1.0,20,70.99
3,1050,B-3,148.5,1.0,20,70.99
3,1051,D5,149.25,0.25,24,70.99
3,1052,B-5,149.5,0.5,41,70.99
3,1053,C5,149.5,0.25,23,70.99
3,1054,D4,149.5,0.375,17,70.99
3,1055,B-3,149.5,0.375,17,70.99
3,1056,G#4,149.5,0.375,17,70.99
3,1057,B-4,149.75,0.25,32,70.99
3,1058,E-3,149.875,0.125,19,70.99
3,1059,B-3,149.938,0.062,19,70.99
3,1060,E-5,150.0,1.0,23,70.99
3,1061,E-6,150.0,0.75,44,70.99
3,1062,G4,150.0,0.875,19,70.99
3,1063,E-3,150.0,0.875,19,70.99
3,1064,B-3,150.0,0.875,19,70.99
3,1065,D6,150.75,0.25,39,70.99
3,1066,E-3,150.875,0.5,19,70.99
3,1067,B-3,150.938,0.438,19,70.99
3,1068,E-6,151.0,0.25,31,70.99
3,1069,E-5,151.0,0.75,31,70.99
3,1070,G4,151.0,0.375,19,70.99
3,1071,C6,151.25,0.25,36,70.99
3,1072,E-3,151.375,1.125,19,70.99
3,1073,B-3,151.438,1.062,19,70.99
3,1074,E-6,151.5,0.25,34,70.99
3,1075,G4,151.5,1.0,19,70.99
3,1076,D5,151.75,0.25,34,70.99
3,1077,B-5,151.75,0.5,44,70.99
3,1078,E-5,152.0,0.25,23,70.99
3,1079,C5,152.25,0.25,30,70.99
3,1080,G#5,152.25,0.5,39,70.99
3,1081,E-5,152.5,0.25,26,70.99
3,1082,E-3,152.5,0.5,18,70.99
3,1083,B-3,152.5,0.5,18,70.99
3,1084,B-4,152.75,0.25,26,70.99
3,1085,G5,152.75,0.25,37,70.99
3,1086,F5,153.0,0.25,36,70.99
3,1087,B-4,153.0,0.25,26,70.99
3,1088,E-3,153.0,0.875,18,70.99
3,1089,B-3,153.0,0.875,18,70.99
3,1090,G#4,153.25,0.5,24,70.99
3,1091,D5,153.25,0.25,36,70.99
3,1092,E-5,153.5,0.25,37,70.99
3,1093,G4,153.75,0.25,34,70.99
3,1094,G5,153.75,0.25,34,70.99
3,1095,E-3,153.875,0.5,16,70.99
3,1096,G#3,153.938,0.438,19,70.99
3,1097,B-5,154.0,1.25,39,70.99
3,1098,F4,154.0,0.25,26,70.99
3,1099,D4,154.25,0.25,30,70.99
3,1100,E-3,154.375,1.125,16,70.99
3,1101,G3,154.438,1.062,19,70.99
3,1102,E-4,154.5,0.25,28,70.99
3,1103,G4,154.75,0.25,33,70.99
3,1104,B-4,155.0,0.5,44,70.99
3,1105,C5,155.25,0.25,47,70.99
3,1106,D5,155.5,0.25,49,70.99
3,1107,G2,155.5,0.5,25,70.99
3,1108,E-3,155.5,0.5,26,70.99
3,1109,G3,155.5,0.5,26,70.99
3,1110,F5,155.75,0.25,46,70.99
3,1111,A2,156.0,1.0,20,70.99
3,1112,E-4,156.0,1.0,40,70.99
3,1113,E-5,156.0,1.0,40,70.99
3,1114,E-3,156.0,1.0,26,70.99
3,1115,G3,156.0,1.0,26,70.99
3,1116,D5,156.5,0.5,42,70.99
3,1117,E-4,157.0,0.5,29,70.99
3,1118,E-5,157.0,0.5,29,70.99
3,1119,C5,157.0,0.5,29,70.99
3,1120,B-2,157.0,1.0,20,70.99
3,1121,E-3,157.0,1.0,20,70.99
3,1122,G3,157.0,1.0,20,70.99
3,1123,B-4,157.5,1.0,38,70.99
3,1124,E-4,158.0,1.0,23,70.99
3,1125,E-5,158.0,1.0,23,70.99
3,1126,C3,158.0,1.0,20,70.99
3,1127,E-3,158.0,1.0,20,70.99
3,1128,G3,158.0,1.0,20,70.99
3,1129,G#4,158.5,0.25,33,70.99
3,1130,G4,158.75,0.25,31,70.99
3,1131,E-5,159.0,1.0,28,70.99
3,1132,B-4,159.0,0.5,36,70.99
3,1133,B-2,159.0,1.0,23,70.99
3,1134,G3,159.0,1.0,23,70.99
3,1135,E-4,159.5,0.5,32,70.99
3,1136,G4,160.0,0.25,25,70.99
3,1137,D5,160.0,1.375,21,70.99
3,1138,B-2,160.0,1.375,18,70.99
3,1139,G#3,160.0,1.375,18,70.99
3,1140,F4,160.25,1.125,32,70.99
3,1141,G#2,161.375,0.625,22,70.99
3,1142,E-3,161.438,0.562,22,70.99
3,1143,C5,161.5,0.5,31,70.99
3,1144,C4,161.5,0.5,27,70.99
3,1145,E-4,161.5,0.5,35,70.99
3,1146,E-5,161.5,0.5,35,70.99
3,1147,B-4,162.0,1.0,21,70.99
3,1148,G#2,162.0,1.0,22,70.99
3,1149,E-3,162.0,1.0,22,70.99
3,1150,C4,162.0,1.0,27,70.99
3,1151,E-4,162.0,1.0,35,70.99
3,1152,E-5,162.0,1.0,35,70.99
3,1153,A4,163.0,0.5,21,70.99
3,1154,E-4,163.0,1.5,23,70.99
3,1155,E-5,163.0,1.5,23,70.99
3,1156,C3,163.0,1.5,16,70.99
3,1157,E-3,163.0,1.5,16,70.99
3,1158,G#4,163.5,1.0,17,70.99
3,1159,E-5,164.5,0.5,17,70.99
3,1160,E-4,164.5,0.5,18,70.99
3,1161,G4,164.5,0.5,18,70.99
3,1162,B-2,164.5,0.5,14,70.99
3,1163,G3,164.5,0.5,14,70.99
3,1164,B-4,165.0,0.5,21,70.99
3,1165,E-5,165.0,1.0,17,70.99
3,1166,B-2,165.0,1.0,14,70.99
3,1167,G3,165.0,1.0,14,70.99
3,1168,E-4,165.5,0.5,21,70.99
3,1169,D5,166.0,2.0,17,70.99
3,1170,G4,166.0,0.25,19,70.99
3,1171,B-2,166.0,2.0,14,70.99
3,1172,G#3,166.0,2.0,14,70.99
3,1173,F4,166.25,1.5,18,70.99
3,1174,E-4,167.75,0.25,17,70.99
3,1175,E-4,168.0,1.0,22,70.99
3,1176,E-5,168.0,1.0,22,70.99
3,1177,E-3,168.0,1.0,15,70.99
3,1178,G3,168.0,1.0,15,70.99
3,1179,B-2,169.5,1.0,14,70.99
3,1180,G3,169.5,1.0,14,70.99
3,1181,B-3,169.5,1.0,14,70.99
3,1182,E-1,169.5,1.0,11,70.99
3,1183,E-2,169.5,1.0,11,70.99
3,1184,G4,171.0,1.5,23,70.99
3,1185,E-5,171.0,1.5,23,70.99
3,1186,G5,171.0,1.5,23,70.99
3,1187,E-3,171.0,1.5,12,70.99
3,1188,G3,171.0,1.5,12,70.99
3,1189,E-4,171.0,1.5,12,70.99
4,0,D4,0.01,0.279,69,120.0
4,1,D4,0.29,0.228,64,120.0
4,2,D5,0.533,0.195,64,120.0
4,3,A4,1.029,0.284,65,120.0
4,4,G#4,1.765,0.24,64,120.0
4,5,G4,2.277,0.183,64,120.0
4,6,F4,2.761,0.486,64,120.0
4,7,D4,3.263,0.227,64,120.0
4,8,F4,3.505,0.227,64,120.0
4,9,G4,3.747,0.237,64,120.0
4,10,C4,4.004,0.285,69,120.0
4,11,C4,4.29,0.228,64,120.0
4,12,D5,4.533,0.195,64,120.0
4,13,A4,5.029,0.284,65,120.0
4,14,G#4,5.765,0.24,64,120.0
4,15,G4,6.277,0.183,64,120.0
4,16,F4,6.761,0.486,64,120.0
4,17,D4,7.263,0.227,64,120.0
4,18,F4,7.505,0.227,64,120.0
4,19,G4,7.747,0.237,64,120.0
4,20,B3,8.004,0.285,69,120.0
4,21,B3,8.29,0.228,64,120.0
4,22,D5,8.533,0.195,64,120.0
4,23,A4,9.029,0.284,65,120.0
4,24,G#4,9.765,0.24,64,120.0
4,25,G4,10.277,0.183,64,120.0
4,26,F4,10.761,0.486,64,120.0
4,27,D4,11.263,0.227,64,120.0
4,28,F4,11.505,0.227,64,120.0
4,29,G4,11.747,0.237,64,120.0
4,30,B-3,12.004,0.285,69,120.0
4,31,B-3,12.29,0.228,64,120.0
4,32,D5,12.533,0.195,64,120.0
4,33,A4,13.029,0.284,65,120.0
4,34,G#4,13.765,0.24,64,120.0
4,35,G4,14.277,0.183,64,120.0
4,36,F4,14.761,0.486,64,120.0
4,37,D4,15.263,0.227,64,120.0
4,38,F4,15.505,0.227,64,120.0
4,39,G4,15.747,0.237,64,120.0
4,40,D4,16.004,0.229,69,120.0
4,41,D3,16.004,0.229,69,120.0
4,42,D4,16.29,0.228,64,120.0
4,43,D5,16.533,0.195,64,120.0
4,44,D3,16.533,0.195,64,120.0
4,45,A4,17.029,0.251,65,120.0
4,46,D3,17.029,0.251,65,120.0
4,47,D3,17.281,0.183,64,120.0
4,48,G#4,17.765,0.24,64,120.0
4,49,D3,17.765,0.24,64,120.0
4,50,G4,18.277,0.183,64,120.0
4,51,D3,18.277,0.183,64,120.0
4,52,F4,18.761,0.486,64,120.0
4,53,D3,18.761,0.25,64,120.0
4,54,D3,19.012,0.25,65,120.0
4,55,D4,19.263,0.241,64,120.0
4,56,D3,19.263,0.241,64,120.0
4,57,F4,19.505,0.194,64,120.0
4,58,D3,19.505,0.194,64,120.0
4,59,G4,19.747,0.237,64,120.0
4,60,C4,20.004,0.229,69,120.0
4,61,C3,20.004,0.229,69,120.0
4,62,C4,20.29,0.228,64,120.0
4,63,D5,20.533,0.195,64,120.0
4,64,C3,20.533,0.195,64,120.0
4,65,A4,21.029,0.251,65,120.0
4,66,C3,21.029,0.251,65,120.0
4,67,C3,21.281,0.183,64,120.0
4,68,G#4,21.765,0.24,64,120.0
4,69,C3,21.765,0.24,64,120.0
4,70,G4,22.277,0.183,64,120.0
4,71,C3,22.277,0.183,64,120.0
4,72,F4,22.761,0.486,64,120.0
4,73,C3,22.761,0.25,64,120.0
4,74,C3,23.012,0.25,65,120.0
4,75,D4,23.263,0.241,64,120.0
4,76,C3,23.263,0.241,64,120.0
4,77,F4,23.505,0.194,64,120.0
4,78,C3,23.505,0.194,64,120.0
4,79,G4,23.747,0.237,64,120.0
4,80,B3,24.004,0.229,69,120.0
4,81,B2,24.004,0.229,69,120.0
4,82,B3,24.29,0.228,64,120.0
4,83,D5,24.533,0.195,64,120.0
4,84,B2,24.533,0.195,64,120.0
4,85,A4,25.029,0.251,65,120.0
4,86,B2,25.029,0.251,65,120.0
4,87,B2,25.281,0.183,64,120.0
4,88,G#4,25.765,0.24,64,120.0
4,89,B2,25.765,0.24,64,120.0
4,90,G4,26.277,0.183,64,120.0
4,91,B2,26.277,0.183,64,120.0
4,92,F4,26.761,0.486,64,120.0
4,93,B2,26.761,0.25,64,120.0
4,94,B2,27.012,0.25,65,120.0
4,95,D4,27.263,0.241,64,120.0
4,96,B2,27.263,0.241,64,120.0
4,97,F4,27.505,0.194,64,120.0
4,98,B2,27.505,0.194,64,120.0
4,99,G4,27.747,0.237,64,120.0
4,100,B-3,28.004,0.229,69,120.0
4,101,B-2,28.004,0.229,69,120.0
4,102,B-3,28.29,0.228,64,120.0
4,103,D5,28.533,0.195,64,120.0
4,104,B-2,28.533,0.195,64,120.0
4,105,A4,29.029,0.251,65,120.0
4,106,B-2,29.029,0.251,65,120.0
4,107,B-2,29.281,0.183,64,120.0
4,108,G#4,29.765,0.24,64,120.0
4,109,C3,29.765,0.24,64,120.0
4,110,G4,30.277,0.183,64,120.0
4,111,C3,30.277,0.183,64,120.0
4,112,F4,30.761,0.486,64,120.0
4,113,C3,30.761,0.25,64,120.0
4,114,C3,31.012,0.25,65,120.0
4,115,D4,31.263,0.241,64,120.0
4,116,C3,31.263,0.241,64,120.0
4,117,F4,31.505,0.194,64,120.0
4,118,C3,31.505,0.194,64,120.0
4,119,G4,31.747,0.237,64,120.0
4,120,D2,32.004,0.499,100,120.0
4,121,D4,32.004,0.285,98,120.0
4,122,D5,32.004,0.285,98,120.0
4,123,D4,32.29,0.242,95,120.0
4,124,D5,32.29,0.242,95,120.0
4,125,D3,32.533,0.466,96,120.0
4,126,D5,32.533,0.195,95,120.0
4,127,D6,32.533,0.195,95,120.0
4,128,A4,33.029,0.251,96,120.0
4,129,A5,33.029,0.251,96,120.0
4,130,D2,33.029,0.251,96,120.0
4,131,D2,33.281,0.226,95,120.0
4,132,D3,33.522,0.227,96,120.0
4,133,D2,33.765,0.512,95,120.0
4,134,G#4,33.765,0.255,95,120.0
4,135,G#5,33.765,0.255,95,120.0
4,136,G4,34.277,0.226,95,120.0
4,137,G5,34.277,0.226,95,120.0
4,138,D2,34.277,0.226,95,120.0
4,139,D3,34.519,0.227,96,120.0
4,140,D2,34.761,0.25,95,120.0
4,141,F4,34.761,0.501,95,120.0
4,142,F5,34.761,0.501,95,120.0
4,143,D2,35.012,0.25,96,120.0
4,144,D4,35.263,0.227,95,120.0
4,145,D5,35.263,0.227,95,120.0
4,146,D2,35.263,0.227,95,120.0
4,147,D3,35.505,0.465,96,120.0
4,148,F4,35.505,0.241,95,120.0
4,149,F5,35.505,0.241,95,120.0
4,150,G4,35.747,0.252,95,120.0
4,151,G5,35.747,0.252,95,120.0
4,152,C2,36.004,0.499,99,120.0
4,153,C4,36.004,0.285,100,120.0
4,154,C5,36.004,0.285,100,120.0
4,155,C4,36.29,0.242,95,120.0
4,156,C5,36.29,0.242,95,120.0
4,157,C3,36.533,0.466,96,120.0
4,158,D5,36.533,0.195,95,120.0
4,159,D6,36.533,0.195,95,120.0
4,160,A4,37.029,0.251,96,120.0
4,161,A5,37.029,0.251,96,120.0
4,162,C2,37.029,0.251,96,120.0
4,163,C2,37.281,0.226,94,120.0
4,164,C3,37.522,0.227,96,120.0
4,165,C2,37.765,0.512,94,120.0
4,166,G#4,37.765,0.255,95,120.0
4,167,G#5,37.765,0.255,95,120.0
4,168,G4,38.277,0.226,95,120.0
4,169,G5,38.277,0.226,95,120.0
4,170,C2,38.277,0.226,95,120.0
4,171,C3,38.519,0.227,96,120.0
4,172,C2,38.761,0.25,94,120.0
4,173,F4,38.761,0.501,95,120.0
4,174,F5,38.761,0.501,95,120.0
4,175,C2,39.012,0.25,95,120.0
4,176,D4,39.263,0.227,95,120.0
4,177,D5,39.263,0.227,95,120.0
4,178,C2,39.263,0.227,95,120.0
4,179,C3,39.505,0.465,96,120.0
4,180,F4,39.505,0.241,95,120.0
4,181,F5,39.505,0.241,95,120.0
4,182,G4,39.747,0.252,95,120.0
4,183,G5,39.747,0.252,95,120.0
4,184,B1,40.004,0.499,99,120.0
4,185,B3,40.004,0.285,100,120.0
4,186,B4,40.004,0.285,100,120.0
4,187,B3,40.29,0.242,95,120.0
4,188,B4,40.29,0.242,95,120.0
4,189,B2,40.533,0.466,96,120.0
4,190,D5,40.533,0.195,95,120.0
4,191,D6,40.533,0.195,95,120.0
4,192,A4,41.029,0.251,96,120.0
4,193,A5,41.029,0.251,96,120.0
4,194,B1,41.029,0.251,96,120.0
4,195,B1,41.281,0.226,94,120.0
4,196,B2,41.522,0.227,96,120.0
4,197,B1,41.765,0.512,94,120.0
4,198,G#4,41.765,0.255,95,120.0
4,199,G#5,41.765,0.255,95,120.0
4,200,G4,42.277,0.226,95,120.0
4,201,G5,42.277,0.226,95,120.0
4,202,B1,42.277,0.226,95,120.0
4,203,B2,42.519,0.227,96,120.0
4,204,B1,42.761,0.25,94,120.0
4,205,F4,42.761,0.501,95,120.0
4,206,F5,42.761,0.501,95,120.0
4,207,B1,43.012,0.25,95,120.0
4,208,D4,43.263,0.227,95,120.0
4,209,D5,43.263,0.227,95,120.0
4,210,B1,43.263,0.227,95,120.0
4,211,B2,43.505,0.465,96,120.0
4,212,F4,43.505,0.241,95,120.0
4,213,F5,43.505,0.241,95,120.0
4,214,G4,43.747,0.252,95,120.0
4,215,G5,43.747,0.252,95,120.0
4,216,B-1,44.004,0.499,99,120.0
4,217,B-3,44.004,0.285,100,120.0
4,218,B-4,44.004,0.285,100,120.0
4,219,B-3,44.29,0.242,95,120.0
4,220,B-4,44.29,0.242,95,120.0
4,221,B-2,44.533,0.466,96,120.0
4,222,D5,44.533,0.195,95,120.0
4,223,D6,44.533,0.195,95,120.0
4,224,A4,45.029,0.251,96,120.0
4,225,A5,45.029,0.251,96,120.0
4,226,B-1,45.029,0.251,96,120.0
4,227,B-1,45.281,0.226,94,120.0
4,228,B-2,45.522,0.227,96,120.0
4,229,C2,45.765,0.512,94,120.0
4,230,G#4,45.765,0.255,95,120.0
4,231,G#5,45.765,0.255,95,120.0
4,232,G4,46.277,0.226,95,120.0
4,233,G5,46.277,0.226,95,120.0
4,234,C2,46.277,0.226,95,120.0
4,235,C3,46.519,0.227,96,120.0
4,236,C2,46.761,0.25,94,120.0
4,237,F4,46.761,0.501,95,120.0
4,238,F5,46.761,0.501,95,120.0
4,239,C2,47.012,0.25,95,120.0
4,240,D4,47.263,0.227,95,120.0
4,241,D5,47.263,0.227,95,120.0
4,242,C2,47.263,0.227,95,120.0
4,243,C3,47.505,0.465,96,120.0
4,244,F4,47.505,0.241,95,120.0
4,245,F5,47.505,0.241,95,120.0
4,246,G4,47.747,0.252,95,120.0
4,247,G5,47.747,0.252,95,120.0
4,248,D2,48.004,0.499,100,120.0
4,249,D4,48.004,0.285,98,120.0
4,250,D5,48.004,0.285,98,120.0
4,251,D4,48.29,0.242,95,120.0
4,252,D5,48.29,0.242,95,120.0
4,253,D3,48.533,0.466,96,120.0
4,254,D5,48.533,0.195,95,120.0
4,255,D6,48.533,0.195,95,120.0
4,256,A4,49.029,0.251,96,120.0
4,257,A5,49.029,0.251,96,120.0
4,258,D2,49.029,0.251,96,120.0
4,259,D2,49.281,0.226,95,120.0
4,260,D3,49.522,0.227,96,120.0
4,261,D2,49.765,0.512,95,120.0
4,262,G#4,49.765,0.255,95,120.0
4,263,G#5,49.765,0.255,95,120.0
4,264,G4,50.277,0.226,95,120.0
4,265,G5,50.277,0.226,95,120.0
4,266,D2,50.277,0.226,95,120.0
4,267,D3,50.519,0.227,96,120.0
4,268,D2,50.761,0.25,95,120.0
4,269,F4,50.761,0.501,95,120.0
4,270,F5,50.761,0.501,95,120.0
4,271,D2,51.012,0.25,96,120.0
4,272,D4,51.263,0.227,95,120.0
4,273,D5,51.263,0.227,95,120.0
4,274,D2,51.263,0.227,95,120.0
4,275,D3,51.505,0.465,96,120.0
4,276,F4,51.505,0.241,95,120.0
4,277,F5,51.505,0.241,95,120.0
4,278,G4,51.747,0.252,95,120.0
4,279,G5,51.747,0.252,95,120.0
4,280,C2,52.004,0.499,99,120.0
4,281,C4,52.004,0.285,100,120.0
4,282,C5,52.004,0.285,100,120.0
4,283,C4,52.29,0.242,95,120.0
4,284,C5,52.29,0.242,95,120.0
4,285,C3,52.533,0.466,96,120.0
4,286,D5,52.533,0.195,95,120.0
4,287,D6,52.533,0.195,95,120.0
4,288,A4,53.029,0.251,96,120.0
4,289,A5,53.029,0.251,96,120.0
4,290,C2,53.029,0.251,96,120.0
4,291,C2,53.281,0.226,94,120.0
4,292,C3,53.522,0.227,96,120.0
4,293,C2,53.765,0.512,94,120.0
4,294,G#4,53.765,0.255,95,120.0
4,295,G#5,53.765,0.255,95,120.0
4,296,G4,54.277,0.226,95,120.0
4,297,G5,54.277,0.226,95,120.0
4,298,C2,54.277,0.226,95,120.0
4,299,C3,54.519,0.227,96,120.0
4,300,C2,54.761,0.25,94,120.0
4,301,F4,54.761,0.501,95,120.0
4,302,F5,54.761,0.501,95,120.0
4,303,C2,55.012,0.25,95,120.0
4,304,D4,55.263,0.227,95,120.0
4,305,D5,55.263,0.227,95,120.0
4,306,C2,55.263,0.227,95,120.0
4,307,C3,55.505,0.465,96,120.0
4,308,F4,55.505,0.241,95,120.0
4,309,F5,55.505,0.241,95,120.0
4,310,G4,55.747,0.252,95,120.0
4,311,G5,55.747,0.252,95,120.0
4,312,B1,56.004,0.499,99,120.0
4,313,B3,56.004,0.285,100,120.0
4,314,B4,56.004,0.285,100,120.0
4,315,B3,56.29,0.242,95,120.0
4,316,B4,56.29,0.242,95,120.0
4,317,B2,56.533,0.466,96,120.0
4,318,D5,56.533,0.195,95,120.0
4,319,D6,56.533,0.195,95,120.0
4,320,A4,57.029,0.251,96,120.0
4,321,A5,57.029,0.251,96,120.0
4,322,B1,57.029,0.251,96,120.0
4,323,B1,57.281,0.226,94,120.0
4,324,B2,57.522,0.227,96,120.0
4,325,B1,57.765,0.512,94,120.0
4,326,G#4,57.765,0.255,95,120.0
4,327,G#5,57.765,0.255,95,120.0
4,328,G4,58.277,0.226,95,120.0
4,329,G5,58.277,0.226,95,120.0
4,330,B1,58.277,0.226,95,120.0
4,331,B2,58.519,0.227,96,120.0
4,332,B1,58.761,0.25,94,120.0
4,333,F4,58.761,0.501,95,120.0
4,334,F5,58.761,0.501,95,120.0
4,335,B1,59.012,0.25,95,120.0
4,336,D4,59.263,0.227,95,120.0
4,337,D5,59.263,0.227,95,120.0
4,338,B1,59.263,0.227,95,120.0
4,339,B2,59.505,0.465,96,120.0
4,340,F4,59.505,0.241,95,120.0
4,341,F5,59.505,0.241,95,120.0
4,342,G4,59.747,0.252,95,120.0
4,343,G5,59.747,0.252,95,120.0
4,344,B-1,60.004,0.499,99,120.0
4,345,B-3,60.004,0.285,100,120.0
4,346,B-4,60.004,0.285,100,120.0
4,347,B-3,60.29,0.242,95,120.0
4,348,B-4,60.29,0.242,95,120.0
4,349,B-2,60.533,0.466,96,120.0
4,350,D5,60.533,0.195,95,120.0
4,351,D6,60.533,0.195,95,120.0
4,352,A4,61.029,0.251,96,120.0
4,353,A5,61.029,0.251,96,120.0
4,354,B-1,61.029,0.251,96,120.0
4,355,B-1,61.281,0.226,94,120.0
4,356,B-2,61.522,0.227,96,120.0
4,357,C2,61.765,0.512,94,120.0
4,358,G#4,61.765,0.255,95,120.0
4,359,G#5,61.765,0.255,95,120.0
4,360,G4,62.277,0.226,95,120.0
4,361,G5,62.277,0.226,95,120.0
4,362,C2,62.277,0.226,95,120.0
4,363,C3,62.519,0.227,96,120.0
4,364,C2,62.761,0.25,94,120.0
4,365,F4,62.761,0.501,95,120.0
4,366,F5,62.761,0.501,95,120.0
4,367,C2,63.012,0.25,95,120.0
4,368,D4,63.263,0.227,95,120.0
4,369,D5,63.263,0.227,95,120.0
4,370,C2,63.263,0.227,95,120.0
4,371,C3,63.505,0.465,96,120.0
4,372,F4,63.505,0.241,95,120.0
4,373,F5,63.505,0.241,95,120.0
4,374,G4,63.747,0.252,95,120.0
4,375,G5,63.747,0.252,95,120.0
4,376,F5,64.004,0.499,84,120.0
4,377,D2,64.004,0.499,84,120.0
4,378,F5,64.533,0.242,80,120.0
4,379,D3,64.533,0.466,80,120.0
4,380,F5,64.776,0.237,80,120.0
4,381,D2,65.029,0.251,80,120.0
4,382,F5,65.281,0.226,80,120.0
4,383,D2,65.281,0.226,80,120.0
4,384,D3,65.522,0.227,80,120.0
4,385,F5,65.765,0.512,80,120.0
4,386,D2,65.765,0.512,80,120.0
4,387,D5,66.277,0.482,80,120.0
4,388,D2,66.277,0.226,79,120.0
4,389,D3,66.519,0.227,80,120.0
4,390,D5,66.761,1.238,80,120.0
4,391,D2,66.761,0.25,79,120.0
4,392,D2,67.012,0.25,80,120.0
4,393,D2,67.263,0.227,79,120.0
4,394,D3,67.505,0.465,80,120.0
4,395,F5,68.004,0.499,84,120.0
4,396,C2,68.004,0.499,84,120.0
4,397,F5,68.533,0.242,80,120.0
4,398,C3,68.533,0.466,80,120.0
4,399,F5,68.776,0.237,80,120.0
4,400,C2,69.029,0.251,79,120.0
4,401,G5,69.281,0.226,79,120.0
4,402,C2,69.281,0.226,79,120.0
4,403,C3,69.522,0.227,80,120.0
4,404,G#5,69.765,0.512,79,120.0
4,405,C2,69.765,0.512,79,120.0
4,406,G5,70.277,0.075,80,120.0
4,407,C2,70.277,0.226,78,120.0
4,408,G#5,70.358,0.075,80,120.0
4,409,G5,70.439,0.073,80,120.0
4,410,F5,70.519,0.227,80,120.0
4,411,C3,70.519,0.227,80,120.0
4,412,D5,70.761,0.25,79,120.0
4,413,C2,70.761,0.25,79,120.0
4,414,F5,71.012,0.25,80,120.0
4,415,C2,71.012,0.25,80,120.0
4,416,G5,71.263,0.227,79,120.0
4,417,C2,71.263,0.227,79,120.0
4,418,C3,71.505,0.465,80,120.0
4,419,F5,72.004,0.499,84,120.0
4,420,B1,72.004,0.499,84,120.0
4,421,F5,72.533,0.242,80,120.0
4,422,B2,72.533,0.466,80,120.0
4,423,F5,72.776,0.237,80,120.0
4,424,B1,73.029,0.251,79,120.0
4,425,G5,73.281,0.226,79,120.0
4,426,B1,73.281,0.226,79,120.0
4,427,B2,73.522,0.227,80,120.0
4,428,G#5,73.765,0.24,80,120.0
4,429,B1,73.765,0.512,78,120.0
4,430,A5,74.277,0.226,79,120.0
4,431,B1,74.277,0.226,79,120.0
4,432,B2,74.519,0.227,80,120.0
4,433,C6,74.761,0.486,80,120.0
4,434,B1,74.761,0.25,78,120.0
4,435,B1,75.012,0.25,79,120.0
4,436,A5,75.263,0.736,80,120.0
4,437,B1,75.263,0.227,78,120.0
4,438,B2,75.505,0.465,80,120.0
4,439,D6,76.004,0.229,85,120.0
4,440,B-1,76.004,0.499,83,120.0
4,441,D6,76.533,0.195,81,120.0
4,442,B-2,76.533,0.466,81,120.0
4,443,D6,77.029,0.251,82,120.0
4,444,B-1,77.029,0.251,82,120.0
4,445,A5,77.281,0.226,83,120.0
4,446,B-1,77.281,0.226,83,120.0
4,447,D6,77.522,0.227,85,120.0
4,448,B-2,77.522,0.227,85,120.0
4,449,C6,77.765,2.234,86,120.0
4,450,C2,77.765,0.512,84,120.0
4,451,C2,78.277,0.226,86,120.0
4,452,C3,78.519,0.227,89,120.0
4,453,C2,78.761,0.25,88,120.0
4,454,C2,79.012,0.25,89,120.0
4,455,C2,79.263,0.227,90,120.0
4,456,C3,79.505,0.465,93,120.0
4,457,D2,80.004,0.285,100,120.0
4,458,F5,80.004,0.528,98,120.0
4,459,A5,80.004,0.528,98,120.0
4,460,D2,80.29,0.228,95,120.0
4,461,F5,80.533,0.195,94,120.0
4,462,A5,80.533,0.195,94,120.0
4,463,D3,80.533,0.195,94,120.0
4,464,F5,80.776,0.252,93,120.0
4,465,A5,80.776,0.252,93,120.0
4,466,A2,81.029,0.251,96,120.0
4,467,D2,81.029,0.251,96,120.0
4,468,F5,81.281,0.226,93,120.0
4,469,A5,81.281,0.226,93,120.0
4,470,D2,81.281,0.226,93,120.0
4,471,D3,81.522,0.227,96,120.0
4,472,G#2,81.765,0.24,96,120.0
4,473,F5,81.765,0.512,93,120.0
4,474,A5,81.765,0.512,93,120.0
4,475,D2,81.765,0.512,93,120.0
4,476,D5,82.277,0.226,95,120.0
4,477,G5,82.277,0.226,95,120.0
4,478,G2,82.277,0.226,95,120.0
4,479,D2,82.277,0.226,95,120.0
4,480,D3,82.519,0.227,96,120.0
4,481,F2,82.761,0.486,96,120.0
4,482,D2,82.761,0.25,93,120.0
4,483,D5,82.761,1.238,93,120.0
4,484,G5,82.761,1.238,93,120.0
4,485,D2,83.012,0.25,94,120.0
4,486,D2,83.263,0.227,94,120.0
4,487,D2,83.263,0.227,94,120.0
4,488,F2,83.505,0.227,96,120.0
4,489,D3,83.505,0.465,96,120.0
4,490,G2,83.747,0.237,96,120.0
4,491,C2,84.004,0.285,99,120.0
4,492,F5,84.004,0.528,100,120.0
4,493,A5,84.004,0.528,100,120.0
4,494,C2,84.29,0.228,94,120.0
4,495,F5,84.533,0.195,94,120.0
4,496,A5,84.533,0.195,94,120.0
4,497,D3,84.533,0.195,94,120.0
4,498,F5,84.776,0.252,93,120.0
4,499,A5,84.776,0.252,93,120.0
4,500,A2,85.029,0.251,96,120.0
4,501,C2,85.029,0.251,96,120.0
4,502,F5,85.281,0.226,94,120.0
4,503,A5,85.281,0.226,94,120.0
4,504,C2,85.281,0.226,94,120.0
4,505,D3,85.522,0.227,96,120.0
4,506,C2,85.765,0.512,93,120.0
4,507,D5,85.765,0.24,95,120.0
4,508,G5,85.765,0.24,95,120.0
4,509,G#2,85.765,0.24,95,120.0
4,510,F5,86.277,0.226,95,120.0
4,511,A5,86.277,0.226,95,120.0
4,512,G2,86.277,0.226,95,120.0
4,513,C2,86.277,0.226,95,120.0
4,514,D3,86.519,0.227,96,120.0
4,515,F2,86.761,0.486,96,120.0
4,516,E5,86.761,0.25,94,120.0
4,517,D6,86.761,0.25,94,120.0
4,518,C2,86.761,0.25,94,120.0
4,519,C2,87.012,0.235,94,120.0
4,520,D5,87.263,0.227,94,120.0
4,521,A5,87.263,0.227,94,120.0
4,522,D2,87.263,0.227,94,120.0
4,523,D2,87.263,0.227,94,120.0
4,524,F2,87.505,0.227,96,120.0
4,525,C5,87.505,0.465,95,120.0
4,526,G5,87.505,0.465,95,120.0
4,527,D3,87.505,0.465,95,120.0
4,528,G2,87.747,0.237,96,120.0
4,529,D6,88.004,0.499,101,120.0
4,530,B5,88.004,0.285,100,120.0
4,531,B1,88.004,0.285,100,120.0
4,532,G5,88.29,0.228,95,120.0
4,533,B1,88.29,0.228,95,120.0
4,534,A5,88.533,0.466,96,120.0
4,535,D5,88.533,0.195,96,120.0
4,536,D3,88.533,0.195,96,120.0
4,537,E5,88.776,0.237,96,120.0
4,538,G5,89.029,0.463,97,120.0
4,539,F5,89.029,0.251,96,120.0
4,540,A2,89.029,0.251,96,120.0
4,541,B1,89.029,0.251,96,120.0
4,542,D5,89.281,0.226,94,120.0
4,543,B1,89.281,0.226,94,120.0
4,544,F5,89.522,0.468,96,120.0
4,545,B4,89.522,0.227,96,120.0
4,546,D3,89.522,0.227,96,120.0
4,547,B1,89.765,0.512,92,120.0
4,548,D5,89.765,0.24,96,120.0
4,549,G#2,89.765,0.24,96,120.0
4,550,C6,90.021,0.468,99,120.0
4,551,D5,90.277,0.226,95,120.0
4,552,G2,90.277,0.226,95,120.0
4,553,B1,90.277,0.226,95,120.0
4,554,G5,90.519,0.463,96,120.0
4,555,B4,90.519,0.227,96,120.0
4,556,D3,90.519,0.227,96,120.0
4,557,F2,90.761,0.486,96,120.0
4,558,D5,90.761,0.25,94,120.0
4,559,B1,90.761,0.25,94,120.0
4,560,F5,91.012,0.463,97,120.0
4,561,B4,91.012,0.235,95,120.0
4,562,B1,91.012,0.235,95,120.0
4,563,G4,91.263,0.227,95,120.0
4,564,D2,91.263,0.227,95,120.0
4,565,D2,91.263,0.227,95,120.0
4,566,E5,91.505,0.465,96,120.0
4,567,D3,91.505,0.465,96,120.0
4,568,B4,91.505,0.227,96,120.0
4,569,F2,91.505,0.227,96,120.0
4,570,G4,91.747,0.237,96,120.0
4,571,G2,91.747,0.237,96,120.0
4,572,B-4,92.004,0.499,101,120.0
4,573,B-1,92.004,0.285,99,120.0
4,574,B-1,92.29,0.228,94,120.0
4,575,C5,92.533,0.195,96,120.0
4,576,D3,92.533,0.195,96,120.0
4,577,B-4,92.776,0.252,95,120.0
4,578,D5,92.776,0.252,95,120.0
4,579,A2,93.029,0.251,95,120.0
4,580,B-1,93.029,0.251,95,120.0
4,581,D5,93.281,0.226,94,120.0
4,582,F5,93.281,0.226,94,120.0
4,583,B-1,93.281,0.226,94,120.0
4,584,D3,93.522,0.227,96,120.0
4,585,G#2,93.765,0.24,96,120.0
4,586,C2,93.765,0.512,93,120.0
4,587,E5,93.765,2.234,95,120.0
4,588,C6,93.765,2.234,95,120.0
4,589,G2,94.277,0.226,94,120.0
4,590,C2,94.277,0.226,94,120.0
4,591,D3,94.519,0.227,96,120.0
4,592,F2,94.761,0.486,96,120.0
4,593,C2,94.761,0.25,93,120.0
4,594,C2,95.012,0.235,94,120.0
4,595,D2,95.263,0.227,94,120.0
4,596,D2,95.263,0.227,94,120.0
4,597,F2,95.505,0.227,96,120.0
4,598,D3,95.505,0.465,96,120.0
4,599,G2,95.747,0.237,96,120.0
4,600,B-1,96.004,0.499,83,120.0
4,601,B-2,96.533,0.466,80,120.0
4,602,B-1,97.029,0.251,79,120.0
4,603,B-1,97.281,0.226,78,120.0
4,604,B-2,97.522,0.227,80,120.0
4,605,B-1,97.765,0.512,78,120.0
4,606,D5,98.021,0.256,82,120.0
4,607,F5,98.021,0.256,82,120.0
4,608,B-4,98.277,0.226,79,120.0
4,609,D5,98.277,0.226,79,120.0
4,610,B-1,98.277,0.226,79,120.0
4,611,D5,98.519,0.227,79,120.0
4,612,F5,98.519,0.227,79,120.0
4,613,B-2,98.519,0.227,79,120.0
4,614,E5,98.761,0.25,79,120.0
4,615,G5,98.761,0.25,79,120.0
4,616,B-1,98.761,0.25,79,120.0
4,617,F5,99.012,0.25,80,120.0
4,618,G#5,99.012,0.25,80,120.0
4,619,B-1,99.012,0.25,80,120.0
4,620,E5,99.263,0.227,79,120.0
4,621,G5,99.263,0.227,79,120.0
4,622,B-1,99.263,0.227,79,120.0
4,623,B-2,99.505,0.465,80,120.0
4,624,D5,99.505,0.241,79,120.0
4,625,F5,99.505,0.241,79,120.0
4,626,B-4,99.747,0.252,79,120.0
4,627,D5,99.747,0.252,79,120.0
4,628,G#5,100.004,0.155,85,120.0
4,629,C2,100.004,0.499,83,120.0
4,630,G5,100.167,0.115,80,120.0
4,631,F5,100.29,0.114,80,120.0
4,632,D5,100.412,0.12,80,120.0
4,633,D5,100.533,0.466,79,120.0
4,634,F5,100.533,0.466,79,120.0
4,635,C3,100.533,0.466,79,120.0
4,636,C2,101.029,0.251,79,120.0
4,637,E5,101.029,2.232,80,120.0
4,638,G5,101.029,2.232,80,120.0
4,639,C2,101.281,0.226,78,120.0
4,640,C3,101.522,0.227,80,120.0
4,641,C2,101.765,0.512,78,120.0
4,642,C2,102.277,0.226,78,120.0
4,643,C3,102.519,0.227,80,120.0
4,644,C2,102.761,0.25,78,120.0
4,645,C2,103.012,0.25,79,120.0
4,646,G#5,103.263,0.454,80,120.0
4,647,C2,103.263,0.227,78,120.0
4,648,C3,103.505,0.465,80,120.0
4,649,A5,103.747,0.237,80,120.0
4,650,C6,104.004,0.229,85,120.0
4,651,D2,104.004,0.499,84,120.0
4,652,A5,104.533,0.228,80,120.0
4,653,D3,104.533,0.466,80,120.0
4,654,G#5,104.776,0.237,80,120.0
4,655,G5,105.029,0.251,80,120.0
4,656,D2,105.029,0.251,80,120.0
4,657,F5,105.281,0.226,80,120.0
4,658,D2,105.281,0.226,80,120.0
4,659,D5,105.522,0.227,80,120.0
4,660,D3,105.522,0.227,80,120.0
4,661,E5,105.765,0.24,80,120.0
4,662,D2,105.765,0.512,79,120.0
4,663,F5,106.021,0.468,83,120.0
4,664,D2,106.277,0.226,79,120.0
4,665,G5,106.519,0.463,80,120.0
4,666,D3,106.519,0.227,80,120.0
4,667,D2,106.761,0.25,79,120.0
4,668,A5,107.012,0.463,81,120.0
4,669,D2,107.012,0.25,80,120.0
4,670,D2,107.263,0.227,79,120.0
4,671,C6,107.505,0.465,80,120.0
4,672,D3,107.505,0.465,80,120.0
4,673,C#6,108.004,0.499,84,120.0
4,674,C#2,108.004,0.499,84,120.0
4,675,G#5,108.533,0.195,80,120.0
4,676,C#3,108.533,0.466,80,120.0
4,677,G#5,109.029,0.251,80,120.0
4,678,C#2,109.029,0.251,80,120.0
4,679,G5,109.281,0.226,80,120.0
4,680,C#2,109.281,0.226,80,120.0
4,681,F5,109.522,0.227,80,120.0
4,682,C#3,109.522,0.227,80,120.0
4,683,G5,109.765,2.234,80,120.0
4,684,E-2,109.765,0.512,79,120.0
4,685,E-2,110.277,0.226,79,120.0
4,686,E-3,110.519,0.227,80,120.0
4,687,E-2,110.761,0.25,79,120.0
4,688,E-2,111.012,0.25,80,120.0
4,689,E-2,111.263,0.227,79,120.0
4,690,E-3,111.505,0.465,80,120.0
4,691,D4,112.004,0.499,84,120.0
4,692,F4,112.004,0.499,84,120.0
4,693,B-1,112.004,0.499,84,120.0
4,694,E4,112.533,0.466,79,120.0
4,695,G4,112.533,0.466,79,120.0
4,696,B-2,112.533,0.466,79,120.0
4,697,B-1,113.029,0.251,79,120.0
4,698,F4,113.029,0.492,80,120.0
4,699,A4,113.029,0.492,80,120.0
4,700,B-1,113.281,0.226,78,120.0
4,701,B-2,113.522,0.227,80,120.0
4,702,D5,113.522,0.497,79,120.0
4,703,F5,113.522,0.497,79,120.0
4,704,B-1,113.765,0.512,78,120.0
4,705,C5,114.021,0.99,82,120.0
4,706,E5,114.021,0.99,82,120.0
4,707,B-1,114.277,0.226,78,120.0
4,708,B-2,114.519,0.227,80,120.0
4,709,B-1,114.761,0.25,78,120.0
4,710,B-1,115.012,0.25,79,120.0
4,711,A4,115.012,0.987,80,120.0
4,712,D5,115.012,0.987,80,120.0
4,713,B-1,115.263,0.227,78,120.0
4,714,B-2,115.505,0.465,80,120.0
4,715,C2,116.004,0.499,83,120.0
4,716,G4,116.004,1.024,84,120.0
4,717,E5,116.004,1.024,84,120.0
4,718,C3,116.533,0.466,80,120.0
4,719,C2,117.029,0.251,79,120.0
4,720,A4,117.029,0.99,80,120.0
4,721,F5,117.029,0.99,80,120.0
4,722,C2,117.281,0.226,78,120.0
4,723,C3,117.522,0.227,80,120.0
4,724,C2,117.765,0.512,78,120.0
4,725,C5,118.021,0.99,82,120.0
4,726,G5,118.021,0.99,82,120.0
4,727,C2,118.277,0.226,78,120.0
4,728,C3,118.519,0.227,80,120.0
4,729,C2,118.761,0.25,78,120.0
4,730,C2,119.012,0.25,79,120.0
4,731,A4,119.012,0.987,80,120.0
4,732,E5,119.012,0.987,80,120.0
4,733,C2,119.263,0.227,78,120.0
4,734,C3,119.505,0.465,80,120.0
4,735,D2,120.004,0.499,84,120.0
4,736,D5,120.004,2.016,84,120.0
4,737,A5,120.004,2.016,84,120.0
4,738,D3,120.533,0.466,80,120.0
4,739,D2,121.029,0.251,80,120.0
4,740,D2,121.281,0.226,79,120.0
4,741,D3,121.522,0.227,80,120.0
4,742,D2,121.765,0.512,79,120.0
4,743,A5,122.021,0.241,83,120.0
4,744,G#5,122.277,0.226,80,120.0
4,745,D2,122.277,0.226,80,120.0
4,746,G5,122.519,0.227,80,120.0
4,747,D3,122.519,0.227,80,120.0
4,748,F#5,122.761,0.25,80,120.0
4,749,D2,122.761,0.25,80,120.0
4,750,F5,123.012,0.25,80,120.0
4,751,D2,123.012,0.25,80,120.0
4,752,E5,123.263,0.227,80,120.0
4,753,D2,123.263,0.227,80,120.0
4,754,E-5,123.505,0.227,80,120.0
4,755,D3,123.505,0.465,80,120.0
4,756,D5,123.747,0.237,80,120.0
4,757,C#2,124.004,0.499,84,120.0
4,758,G#4,124.004,2.016,84,120.0
4,759,C#5,124.004,2.016,84,120.0
4,760,C#3,124.533,0.466,80,120.0
4,761,C#2,125.029,0.251,80,120.0
4,762,C#2,125.281,0.226,79,120.0
4,763,C#3,125.522,0.227,80,120.0
4,764,E-2,125.765,0.512,79,120.0
4,765,B-4,126.021,1.979,82,120.0
4,766,E-5,126.021,1.979,82,120.0
4,767,E-2,126.277,0.226,79,120.0
4,768,E-3,126.519,0.227,80,120.0
4,769,E-2,126.761,0.25,79,120.0
4,770,E-2,127.012,0.25,80,120.0
4,771,E-2,127.263,0.227,79,120.0
4,772,E-3,127.505,0.465,80,120.0
4,773,B-1,128.004,0.499,83,120.0
4,774,B-2,128.533,0.466,80,120.0
4,775,B-1,129.029,0.251,79,120.0
4,776,B-1,129.281,0.226,78,120.0
4,777,B-2,129.522,0.227,80,120.0
4,778,B-1,129.765,0.512,78,120.0
4,779,D5,130.021,0.256,82,120.0
4,780,F5,130.021,0.256,82,120.0
4,781,B-4,130.277,0.226,79,120.0
4,782,D5,130.277,0.226,79,120.0
4,783,B-1,130.277,0.226,79,120.0
4,784,D5,130.519,0.227,79,120.0
4,785,F5,130.519,0.227,79,120.0
4,786,B-2,130.519,0.227,79,120.0
4,787,E5,130.761,0.25,79,120.0
4,788,G5,130.761,0.25,79,120.0
4,789,B-1,130.761,0.25,79,120.0
4,790,F5,131.012,0.25,80,120.0
4,791,G#5,131.012,0.25,80,120.0
4,792,B-1,131.012,0.25,80,120.0
4,793,E5,131.263,0.227,79,120.0
4,794,G5,131.263,0.227,79,120.0
4,795,B-1,131.263,0.227,79,120.0
4,796,B-2,131.505,0.465,80,120.0
4,797,D5,131.505,0.241,79,120.0
4,798,F5,131.505,0.241,79,120.0
4,799,B-4,131.747,0.252,79,120.0
4,800,D5,131.747,0.252,79,120.0
4,801,G#5,132.004,0.155,85,120.0
4,802,C2,132.004,0.499,83,120.0
4,803,G5,132.167,0.115,80,120.0
4,804,F5,132.29,0.114,80,120.0
4,805,D5,132.412,0.12,80,120.0
4,806,D5,132.533,0.466,79,120.0
4,807,F5,132.533,0.466,79,120.0
4,808,C3,132.533,0.466,79,120.0
4,809,C2,133.029,0.251,79,120.0
4,810,E5,133.029,2.232,80,120.0
4,811,G5,133.029,2.232,80,120.0
4,812,C2,133.281,0.226,78,120.0
4,813,C3,133.522,0.227,80,120.0
4,814,C2,133.765,0.512,78,120.0
4,815,C2,134.277,0.226,78,120.0
4,816,C3,134.519,0.227,80,120.0
4,817,C2,134.761,0.25,78,120.0
4,818,C2,135.012,0.25,79,120.0
4,819,G#5,135.263,0.454,80,120.0
4,820,C2,135.263,0.227,78,120.0
4,821,C3,135.505,0.465,80,120.0
4,822,A5,135.747,0.237,80,120.0
4,823,C6,136.004,0.229,85,120.0
4,824,D2,136.004,0.499,84,120.0
4,825,A5,136.533,0.228,80,120.0
4,826,D3,136.533,0.466,80,120.0
4,827,G#5,136.776,0.237,80,120.0
4,828,G5,137.029,0.251,80,120.0
4,829,D2,137.029,0.251,80,120.0
4,830,F5,137.281,0.226,80,120.0
4,831,D2,137.281,0.226,80,120.0
4,832,D5,137.522,0.227,80,120.0
4,833,D3,137.522,0.227,80,120.0
4,834,E5,137.765,0.24,80,120.0
4,835,D2,137.765,0.512,79,120.0
4,836,F5,138.021,0.468,83,120.0
4,837,D2,138.277,0.226,79,120.0
4,838,G5,138.519,0.463,80,120.0
4,839,D3,138.519,0.227,80,120.0
4,840,D2,138.761,0.25,79,120.0
4,841,A5,139.012,0.463,81,120.0
4,842,D2,139.012,0.25,80,120.0
4,843,D2,139.263,0.227,79,120.0
4,844,C6,139.505,0.465,80,120.0
4,845,D3,139.505,0.465,80,120.0
4,846,C#6,140.004,0.499,84,120.0
4,847,C#2,140.004,0.499,84,120.0
4,848,G#5,140.533,0.195,80,120.0
4,849,C#3,140.533,0.466,80,120.0
4,850,G#5,141.029,0.251,80,120.0
4,851,C#2,141.029,0.251,80,120.0
4,852,G5,141.281,0.226,80,120.0
4,853,C#2,141.281,0.226,80,120.0
4,854,F5,141.522,0.227,80,120.0
4,855,C#3,141.522,0.227,80,120.0
4,856,G5,141.765,2.234,80,120.0
4,857,E-2,141.765,0.512,79,120.0
4,858,E-2,142.277,0.226,79,120.0
4,859,E-3,142.519,0.227,80,120.0
4,860,E-2,142.761,0.25,79,120.0
4,861,E-2,143.012,0.25,80,120.0
4,862,E-2,143.263,0.227,79,120.0
4,863,E-3,143.505,0.465,80,120.0
4,864,D4,144.004,0.499,84,120.0
4,865,F4,144.004,0.499,84,120.0
4,866,B-1,144.004,0.499,84,120.0
4,867,E4,144.533,0.466,79,120.0
4,868,G4,144.533,0.466,79,120.0
4,869,B-2,144.533,0.466,79,120.0
4,870,B-1,145.029,0.251,79,120.0
4,871,F4,145.029,0.492,80,120.0
4,872,A4,145.029,0.492,80,120.0
4,873,B-1,145.281,0.226,78,120.0
4,874,B-2,145.522,0.227,80,120.0
4,875,D5,145.522,0.497,79,120.0
4,876,F5,145.522,0.497,79,120.0
4,877,B-1,145.765,0.512,78,120.0
4,878,C5,146.021,0.99,82,120.0
4,879,E5,146.021,0.99,82,120.0
4,880,B-1,146.277,0.226,78,120.0
4,881,B-2,146.519,0.227,80,120.0
4,882,B-1,146.761,0.25,78,120.0
4,883,B-1,147.012,0.25,79,120.0
4,884,A4,147.012,0.987,80,120.0
4,885,D5,147.012,0.987,80,120.0
4,886,B-1,147.263,0.227,78,120.0
4,887,B-2,147.505,0.465,80,120.0
4,888,C2,148.004,0.499,83,120.0
4,889,G4,148.004,1.024,84,120.0
4,890,E5,148.004,1.024,84,120.0
4,891,C3,148.533,0.466,80,120.0
4,892,C2,149.029,0.251,79,120.0
4,893,A4,149.029,0.99,80,120.0
4,894,F5,149.029,0.99,80,120.0
4,895,C2,149.281,0.226,78,120.0
4,896,C3,149.522,0.227,80,120.0
4,897,C2,149.765,0.512,78,120.0
4,898,C5,150.021,0.99,82,120.0
4,899,G5,150.021,0.99,82,120.0
4,900,C2,150.277,0.226,78,120.0
4,901,C3,150.519,0.227,80,120.0
4,902,C2,150.761,0.25,78,120.0
4,903,C2,151.012,0.25,79,120.0
4,904,A4,151.012,0.987,80,120.0
4,905,E5,151.012,0.987,80,120.0
4,906,C2,151.263,0.227,78,120.0
4,907,C3,151.505,0.465,80,120.0
4,908,D2,152.004,0.499,84,120.0
4,909,D5,152.004,2.016,84,120.0
4,910,A5,152.004,2.016,84,120.0
4,911,D3,152.533,0.466,80,120.0
4,912,D2,153.029,0.251,80,120.0
4,913,D2,153.281,0.226,79,120.0
4,914,D3,153.522,0.227,80,120.0
4,915,D2,153.765,0.512,79,120.0
4,916,A5,154.021,0.241,83,120.0
4,917,G#5,154.277,0.226,80,120.0
4,918,D2,154.277,0.226,80,120.0
4,919,G5,154.519,0.227,80,120.0
4,920,D3,154.519,0.227,80,120.0
4,921,F#5,154.761,0.25,80,120.0
4,922,D2,154.761,0.25,80,120.0
4,923,F5,155.012,0.25,80,120.0
4,924,D2,155.012,0.25,80,120.0
4,925,E5,155.263,0.227,80,120.0
4,926,D2,155.263,0.227,80,120.0
4,927,E-5,155.505,0.227,80,120.0
4,928,D3,155.505,0.465,80,120.0
4,929,D5,155.747,0.237,80,120.0
4,930,C#2,156.004,0.499,84,120.0
4,931,G#4,156.004,2.016,84,120.0
4,932,C#5,156.004,2.016,84,120.0
4,933,C#3,156.533,0.466,80,120.0
4,934,C#2,157.029,0.251,80,120.0
4,935,C#2,157.281,0.226,79,120.0
4,936,C#3,157.522,0.227,80,120.0
4,937,E-2,157.765,0.512,79,120.0
4,938,B-4,158.021,1.979,82,120.0
4,939,E-5,158.021,1.979,82,120.0
4,940,E-2,158.277,0.226,79,120.0
4,941,E-3,158.519,0.227,80,120.0
4,942,E-2,158.761,0.25,79,120.0
4,943,E-2,159.012,0.25,80,120.0
4,944,E-2,159.263,0.227,79,120.0
4,945,E-3,159.505,0.465,80,120.0
4,946,B-3,160.004,3.007,64,120.0
4,947,B-1,160.004,0.528,67,120.0
4,948,B-1,160.533,0.495,62,120.0
4,949,B-1,161.029,0.251,63,120.0
4,950,B-1,161.281,0.482,62,120.0
4,951,B-1,161.765,0.512,62,120.0
4,952,B-1,162.277,0.482,62,120.0
4,953,B-1,162.761,0.25,62,120.0
4,954,F4,163.012,0.987,65,120.0
4,955,B-1,163.012,0.25,63,120.0
4,956,B-1,163.263,0.241,62,120.0
4,957,B-1,163.505,0.465,62,120.0
4,958,E4,164.004,2.016,69,120.0
4,959,C2,164.004,0.528,67,120.0
4,960,C2,164.533,0.495,62,120.0
4,961,C2,165.029,0.251,63,120.0
4,962,C2,165.281,0.482,62,120.0
4,963,C2,165.765,0.512,62,120.0
4,964,D4,166.021,1.979,67,120.0
4,965,C2,166.277,0.482,62,120.0
4,966,C2,166.761,0.25,62,120.0
4,967,C2,167.012,0.25,63,120.0
4,968,C2,167.263,0.241,62,120.0
4,969,C2,167.505,0.465,62,120.0
4,970,F4,168.004,3.996,64,120.0
4,971,B1,168.004,0.528,67,120.0
4,972,B1,168.533,0.495,62,120.0
4,973,B1,169.029,0.251,63,120.0
4,974,B1,169.281,0.482,62,120.0
4,975,B1,169.765,0.512,62,120.0
4,976,B1,170.277,0.482,62,120.0
4,977,B1,170.761,0.25,62,120.0
4,978,B1,171.012,0.25,63,120.0
4,979,B1,171.263,0.241,62,120.0
4,980,B1,171.505,0.494,62,120.0
4,981,F4,172.0,3.999,64,120.0
4,982,B1,172.004,0.528,67,120.0
4,983,B1,172.533,0.495,62,120.0
4,984,B1,173.029,0.251,63,120.0
4,985,B1,173.281,0.482,62,120.0
4,986,B1,173.765,0.512,62,120.0
4,987,B1,174.277,0.482,62,120.0
4,988,B1,174.761,0.25,62,120.0
4,989,B1,175.012,0.25,63,120.0
4,990,B1,175.263,0.241,62,120.0
4,991,B1,175.505,0.465,62,120.0
4,992,B-3,176.004,3.007,64,120.0
4,993,B-1,176.004,0.528,67,120.0
4,994,B-1,176.533,0.495,62,120.0
4,995,B-1,177.029,0.251,63,120.0
4,996,B-1,177.281,0.482,62,120.0
4,997,B-1,177.765,0.512,62,120.0
4,998,B-1,178.277,0.482,62,120.0
4,999,B-1,178.761,0.25,62,120.0
4,1000,F4,179.012,0.987,65,120.0
4,1001,B-1,179.012,0.25,63,120.0
4,1002,B-1,179.263,0.241,62,120.0
4,1003,B-1,179.505,0.465,62,120.0
4,1004,E4,180.004,2.016,69,120.0
4,1005,C2,180.004,0.528,67,120.0
4,1006,C2,180.533,0.495,62,120.0
4,1007,C2,181.029,0.251,63,120.0
4,1008,C2,181.281,0.482,62,120.0
4,1009,C2,181.765,0.512,62,120.0
4,1010,D4,182.021,1.979,67,120.0
4,1011,C2,182.277,0.482,62,120.0
4,1012,C2,182.761,0.25,62,120.0
4,1013,C2,183.012,0.25,63,120.0
4,1014,C2,183.263,0.241,62,120.0
4,1015,C2,183.505,0.465,62,120.0
4,1016,D4,184.004,3.996,64,120.0
4,1017,D2,184.004,0.528,68,120.0
4,1018,D2,184.533,0.495,63,120.0
4,1019,D2,185.029,0.251,64,120.0
4,1020,D2,185.281,0.482,63,120.0
4,1021,D2,185.765,0.512,63,120.0
4,1022,D2,186.277,0.482,63,120.0
4,1023,D2,186.761,0.25,63,120.0
4,1024,D2,187.012,0.25,64,120.0
4,1025,D2,187.263,0.241,63,120.0
4,1026,D2,187.505,0.494,63,120.0
4,1027,D4,188.0,3.999,64,120.0
4,1028,D2,188.004,0.528,68,120.0
4,1029,D2,188.533,0.495,63,120.0
4,1030,D2,189.029,0.251,64,120.0
4,1031,D2,189.281,0.482,63,120.0
4,1032,D2,189.765,0.512,63,120.0
4,1033,D2,190.277,0.482,63,120.0
4,1034,D2,190.761,0.25,63,120.0
4,1035,D2,191.012,0.25,64,120.0
4,1036,D2,191.263,0.241,63,120.0
4,1037,D2,191.505,0.465,63,120.0
4,1038,B-3,192.004,3.007,64,120.0
4,1039,D3,192.004,0.285,69,120.0
4,1040,B-1,192.004,0.528,67,120.0
4,1041,D3,192.29,0.228,64,120.0
4,1042,D4,192.533,0.195,64,120.0
4,1043,B-1,192.533,0.495,62,120.0
4,1044,A3,193.029,0.251,64,120.0
4,1045,B-1,193.029,0.251,64,120.0
4,1046,B-1,193.281,0.482,62,120.0
4,1047,G#3,193.765,0.24,64,120.0
4,1048,B-1,193.765,0.512,62,120.0
4,1049,G3,194.277,0.183,64,120.0
4,1050,B-1,194.277,0.482,62,120.0
4,1051,F3,194.761,0.486,64,120.0
4,1052,B-1,194.761,0.25,62,120.0
4,1053,F4,195.012,0.987,65,120.0
4,1054,B-1,195.012,0.25,63,120.0
4,1055,D3,195.263,0.241,63,120.0
4,1056,B-1,195.263,0.241,63,120.0
4,1057,F3,195.505,0.227,64,120.0
4,1058,B-1,195.505,0.465,62,120.0
4,1059,G3,195.747,0.237,64,120.0
4,1060,E4,196.004,2.016,69,120.0
4,1061,C3,196.004,0.285,69,120.0
4,1062,C2,196.004,0.528,67,120.0
4,1063,C3,196.29,0.228,64,120.0
4,1064,D4,196.533,0.195,64,120.0
4,1065,C2,196.533,0.495,62,120.0
4,1066,A3,197.029,0.251,64,120.0
4,1067,C2,197.029,0.251,64,120.0
4,1068,C2,197.281,0.482,62,120.0
4,1069,G#3,197.765,0.24,64,120.0
4,1070,C2,197.765,0.512,62,120.0
4,1071,D4,198.021,1.979,67,120.0
4,1072,G3,198.277,0.183,64,120.0
4,1073,C2,198.277,0.482,62,120.0
4,1074,F3,198.761,0.486,64,120.0
4,1075,C2,198.761,0.25,62,120.0
4,1076,C2,199.012,0.25,63,120.0
4,1077,D3,199.263,0.241,63,120.0
4,1078,C2,199.263,0.241,63,120.0
4,1079,F3,199.505,0.227,64,120.0
4,1080,C2,199.505,0.465,62,120.0
4,1081,G3,199.747,0.237,64,120.0
4,1082,F4,200.004,3.996,64,120.0
4,1083,B2,200.004,0.285,69,120.0
4,1084,B1,200.004,0.528,67,120.0
4,1085,B2,200.29,0.228,64,120.0
4,1086,D4,200.533,0.195,64,120.0
4,1087,B1,200.533,0.495,62,120.0
4,1088,A3,201.029,0.251,64,120.0
4,1089,B1,201.029,0.251,64,120.0
4,1090,B1,201.281,0.482,62,120.0
4,1091,G#3,201.765,0.24,64,120.0
4,1092,B1,201.765,0.512,62,120.0
4,1093,G3,202.277,0.183,64,120.0
4,1094,B1,202.277,0.482,62,120.0
4,1095,F3,202.761,0.486,64,120.0
4,1096,B1,202.761,0.25,62,120.0
4,1097,B1,203.012,0.25,63,120.0
4,1098,D3,203.263,0.241,63,120.0
4,1099,B1,203.263,0.241,63,120.0
4,1100,F3,203.505,0.227,64,120.0
4,1101,B1,203.505,0.494,62,120.0
4,1102,G3,203.747,0.237,64,120.0
4,1103,F4,204.0,3.999,64,120.0
4,1104,B2,204.004,0.285,69,120.0
4,1105,B1,204.004,0.528,67,120.0
4,1106,B2,204.29,0.228,64,120.0
4,1107,D4,204.533,0.195,64,120.0
4,1108,B1,204.533,0.495,62,120.0
4,1109,A3,205.029,0.251,64,120.0
4,1110,B1,205.029,0.251,64,120.0
4,1111,B1,205.281,0.482,62,120.0
4,1112,G#3,205.765,0.24,64,120.0
4,1113,B1,205.765,0.512,62,120.0
4,1114,G3,206.277,0.183,64,120.0
4,1115,B1,206.277,0.482,62,120.0
4,1116,F3,206.761,0.486,64,120.0
4,1117,B1,206.761,0.25,62,120.0
4,1118,B1,207.012,0.25,63,120.0
4,1119,D3,207.263,0.241,63,120.0
4,1120,B1,207.263,0.241,63,120.0
4,1121,F3,207.505,0.227,64,120.0
4,1122,B1,207.505,0.465,62,120.0
4,1123,G3,207.747,0.237,64,120.0
4,1124,B-3,208.004,3.007,64,120.0
4,1125,D3,208.004,0.285,64,120.0
4,1126,B-1,208.004,0.528,62,120.0
4,1127,D3,208.29,0.228,65,120.0
4,1128,D4,208.533,0.195,66,120.0
4,1129,B-1,208.533,0.495,64,120.0
4,1130,A3,209.029,0.251,67,120.0
4,1131,B-1,209.029,0.251,67,120.0
4,1132,B-1,209.281,0.482,67,120.0
4,1133,G#3,209.765,0.24,71,120.0
4,1134,B-1,209.765,0.512,69,120.0
4,1135,G3,210.277,0.183,73,120.0
4,1136,B-1,210.277,0.482,71,120.0
4,1137,F3,210.761,0.486,75,120.0
4,1138,B-1,210.761,0.25,73,120.0
4,1139,F4,211.012,0.987,76,120.0
4,1140,B-1,211.012,0.25,74,120.0
4,1141,D3,211.263,0.241,76,120.0
4,1142,B-1,211.263,0.241,76,120.0
4,1143,F3,211.505,0.227,78,120.0
4,1144,B-1,211.505,0.465,76,120.0
4,1145,G3,211.747,0.237,79,120.0
4,1146,E4,212.004,2.016,80,120.0
4,1147,C3,212.004,0.285,80,120.0
4,1148,C2,212.004,0.528,78,120.0
4,1149,C3,212.29,0.228,81,120.0
4,1150,D4,212.533,0.195,82,120.0
4,1151,C2,212.533,0.495,80,120.0
4,1152,A3,213.029,0.251,83,120.0
4,1153,C2,213.029,0.251,83,120.0
4,1154,C2,213.281,0.482,83,120.0
4,1155,G#3,213.765,0.24,87,120.0
4,1156,C2,213.765,0.512,85,120.0
4,1157,D4,214.021,1.979,88,120.0
4,1158,G3,214.277,0.183,89,120.0
4,1159,C2,214.277,0.482,87,120.0
4,1160,F3,214.761,0.486,91,120.0
4,1161,C2,214.761,0.25,89,120.0
4,1162,C2,215.012,0.25,90,120.0
4,1163,D3,215.263,0.241,92,120.0
4,1164,C2,215.263,0.241,92,120.0
4,1165,F3,215.505,0.227,94,120.0
4,1166,C2,215.505,0.465,92,120.0
4,1167,G3,215.747,0.237,95,120.0
4,1168,D2,216.004,0.528,100,120.0
4,1169,D3,216.004,0.285,100,120.0
4,1170,D4,216.004,0.285,100,120.0
4,1171,D3,216.29,0.228,96,120.0
4,1172,D2,216.533,0.495,95,120.0
4,1173,D4,216.533,0.245,119,120.0
4,1174,F4,216.533,0.245,119,120.0
4,1175,D2,217.029,0.251,96,120.0
4,1176,A3,217.029,0.359,120,120.0
4,1177,E4,217.029,0.359,120,120.0
4,1178,D2,217.281,0.482,95,120.0
4,1179,D2,217.765,0.512,95,120.0
4,1180,G#3,217.765,0.255,119,120.0
4,1181,C4,217.765,0.255,119,120.0
4,1182,D2,218.277,0.482,95,120.0
4,1183,G3,218.277,0.232,119,120.0
4,1184,E4,218.277,0.232,119,120.0
4,1185,D2,218.761,0.25,95,120.0
4,1186,F3,218.761,0.501,119,120.0
4,1187,D4,218.761,0.501,119,120.0
4,1188,D2,219.012,0.25,96,120.0
4,1189,D3,219.263,0.241,95,120.0
4,1190,G3,219.263,0.241,95,120.0
4,1191,D2,219.263,0.241,95,120.0
4,1192,D2,219.505,0.494,95,120.0
4,1193,F3,219.505,0.241,95,120.0
4,1194,A3,219.505,0.241,95,120.0
4,1195,G3,219.747,0.252,95,120.0
4,1196,C4,219.747,0.252,95,120.0
4,1197,D3,220.004,0.285,101,120.0
4,1198,D2,220.004,0.528,100,120.0
4,1199,D3,220.29,0.228,96,120.0
4,1200,D2,220.533,0.495,95,120.0
4,1201,D4,220.533,0.245,119,120.0
4,1202,F4,220.533,0.245,119,120.0
4,1203,D2,221.029,0.251,96,120.0
4,1204,A3,221.029,0.359,120,120.0
4,1205,E4,221.029,0.359,120,120.0
4,1206,D2,221.281,0.482,95,120.0
4,1207,D2,221.765,0.512,95,120.0
4,1208,G#3,221.765,0.255,119,120.0
4,1209,C4,221.765,0.255,119,120.0
4,1210,D2,222.277,0.482,95,120.0
4,1211,G3,222.277,0.232,119,120.0
4,1212,E4,222.277,0.232,119,120.0
4,1213,D2,222.761,0.25,95,120.0
4,1214,F3,222.761,0.501,119,120.0
4,1215,D4,222.761,0.501,119,120.0
4,1216,D2,223.012,0.25,96,120.0
4,1217,D3,223.263,0.241,95,120.0
4,1218,G3,223.263,0.241,95,120.0
4,1219,D2,223.263,0.241,95,120.0
4,1220,D2,223.505,0.465,95,120.0
4,1221,F3,223.505,0.241,95,120.0
4,1222,A3,223.505,0.241,95,120.0
4,1223,G3,223.747,0.252,95,120.0
4,1224,C4,223.747,0.252,95,120.0
4,1225,F3,224.004,0.499,68,120.0
4,1226,B-3,224.004,0.499,68,120.0
4,1227,B-1,224.004,0.499,68,120.0
4,1228,F3,224.533,0.466,62,120.0
4,1229,B-3,224.533,0.466,62,120.0
4,1230,B-2,224.533,0.466,62,120.0
4,1231,B-2,225.029,0.251,64,120.0
4,1232,B-1,225.029,0.251,64,120.0
4,1233,B-1,225.281,0.226,62,120.0
4,1234,F3,225.281,0.482,61,120.0
4,1235,B-3,225.281,0.482,61,120.0
4,1236,B-2,225.522,0.227,64,120.0
4,1237,F3,225.765,0.512,61,120.0
4,1238,B-3,225.765,0.512,61,120.0
4,1239,B-1,225.765,0.512,61,120.0
4,1240,B-1,226.277,0.226,62,120.0
4,1241,F3,226.277,0.482,61,120.0
4,1242,B-3,226.277,0.482,61,120.0
4,1243,B-2,226.519,0.227,64,120.0
4,1244,B-2,226.761,0.25,63,120.0
4,1245,B-1,226.761,0.25,63,120.0
4,1246,B-2,227.012,0.25,64,120.0
4,1247,B-1,227.012,0.25,64,120.0
4,1248,B-2,227.263,0.227,63,120.0
4,1249,B-1,227.263,0.227,63,120.0
4,1250,F3,227.505,0.465,63,120.0
4,1251,B-3,227.505,0.465,63,120.0
4,1252,B-2,227.505,0.465,63,120.0
4,1253,G3,228.004,0.499,68,120.0
4,1254,C4,228.004,0.499,68,120.0
4,1255,C2,228.004,0.499,68,120.0
4,1256,G3,228.533,0.466,62,120.0
4,1257,C4,228.533,0.466,62,120.0
4,1258,C3,228.533,0.466,62,120.0
4,1259,C3,229.029,0.251,64,120.0
4,1260,C2,229.029,0.251,64,120.0
4,1261,C2,229.281,0.226,62,120.0
4,1262,G3,229.281,0.482,61,120.0
4,1263,C4,229.281,0.482,61,120.0
4,1264,C3,229.522,0.227,64,120.0
4,1265,G3,229.765,0.512,61,120.0
4,1266,C4,229.765,0.512,61,120.0
4,1267,C2,229.765,0.512,61,120.0
4,1268,C2,230.277,0.226,62,120.0
4,1269,G3,230.277,0.482,61,120.0
4,1270,C4,230.277,0.482,61,120.0
4,1271,C3,230.519,0.227,64,120.0
4,1272,C3,230.761,0.25,63,120.0
4,1273,C2,230.761,0.25,63,120.0
4,1274,C3,231.012,0.25,64,120.0
4,1275,C2,231.012,0.25,64,120.0
4,1276,C3,231.263,0.227,63,120.0
4,1277,C2,231.263,0.227,63,120.0
4,1278,G3,231.505,0.465,63,120.0
4,1279,C4,231.505,0.465,63,120.0
4,1280,C3,231.505,0.465,63,120.0
4,1281,A3,232.004,0.499,68,120.0
4,1282,D4,232.004,0.499,68,120.0
4,1283,D2,232.004,0.499,68,120.0
4,1284,A3,232.533,0.466,62,120.0
4,1285,D4,232.533,0.466,62,120.0
4,1286,D3,232.533,0.466,62,120.0
4,1287,D3,233.029,0.251,64,120.0
4,1288,D2,233.029,0.251,64,120.0
4,1289,D2,233.281,0.226,63,120.0
4,1290,A3,233.281,0.482,63,120.0
4,1291,D4,233.281,0.482,63,120.0
4,1292,D3,233.522,0.227,64,120.0
4,1293,G#3,233.765,0.512,63,120.0
4,1294,C#4,233.765,0.512,63,120.0
4,1295,C#2,233.765,0.512,63,120.0
4,1296,C#2,234.277,0.226,63,120.0
4,1297,G#3,234.277,0.482,61,120.0
4,1298,C#4,234.277,0.482,61,120.0
4,1299,C#3,234.519,0.227,64,120.0
4,1300,C#3,234.761,0.25,64,120.0
4,1301,C#2,234.761,0.25,64,120.0
4,1302,C#3,235.012,0.25,64,120.0
4,1303,C#2,235.012,0.25,64,120.0
4,1304,C#3,235.263,0.227,64,120.0
4,1305,C#2,235.263,0.227,64,120.0
4,1306,G#3,235.505,0.465,63,120.0
4,1307,C#4,235.505,0.465,63,120.0
4,1308,C#3,235.505,0.465,63,120.0
4,1309,G3,236.004,0.499,68,120.0
4,1310,C4,236.004,0.499,68,120.0
4,1311,C2,236.004,0.499,68,120.0
4,1312,G3,236.533,0.466,62,120.0
4,1313,C4,236.533,0.466,62,120.0
4,1314,C3,236.533,0.466,62,120.0
4,1315,C3,237.029,0.251,64,120.0
4,1316,C2,237.029,0.251,64,120.0
4,1317,C2,237.281,0.226,62,120.0
4,1318,G3,237.281,0.482,63,120.0
4,1319,C4,237.281,0.482,63,120.0
4,1320,C3,237.522,0.227,64,120.0
4,1321,F#3,237.765,0.512,63,120.0
4,1322,B3,237.765,0.512,63,120.0
4,1323,B1,237.765,0.512,63,120.0
4,1324,B1,238.277,0.226,62,120.0
4,1325,F#3,238.277,0.482,61,120.0
4,1326,B3,238.277,0.482,61,120.0
4,1327,B2,238.519,0.227,64,120.0
4,1328,B2,238.761,0.25,63,120.0
4,1329,B1,238.761,0.25,63,120.0
4,1330,B2,239.012,0.25,64,120.0
4,1331,B1,239.012,0.25,64,120.0
4,1332,B2,239.263,0.227,63,120.0
4,1333,B1,239.263,0.227,63,120.0
4,1334,F#3,239.505,0.465,63,120.0
4,1335,B3,239.505,0.465,63,120.0
4,1336,B2,239.505,0.465,63,120.0
4,1337,F3,240.004,0.499,68,120.0
4,1338,B-3,240.004,0.499,68,120.0
4,1339,B-1,240.004,0.499,68,120.0
4,1340,F3,240.533,0.466,62,120.0
4,1341,B-3,240.533,0.466,62,120.0
4,1342,B-2,240.533,0.466,62,120.0
4,1343,B-2,241.029,0.251,64,120.0
4,1344,B-1,241.029,0.251,64,120.0
4,1345,B-1,241.281,0.226,62,120.0
4,1346,F3,241.281,0.482,61,120.0
4,1347,B-3,241.281,0.482,61,120.0
4,1348,B-2,241.522,0.227,64,120.0
4,1349,F3,241.765,0.512,61,120.0
4,1350,B-3,241.765,0.512,61,120.0
4,1351,B-1,241.765,0.512,61,120.0
4,1352,B-1,242.277,0.226,62,120.0
4,1353,F3,242.277,0.482,61,120.0
4,1354,B-3,242.277,0.482,61,120.0
4,1355,B-2,242.519,0.227,64,120.0
4,1356,B-2,242.761,0.25,63,120.0
4,1357,B-1,242.761,0.25,63,120.0
4,1358,B-2,243.012,0.25,64,120.0
4,1359,B-1,243.012,0.25,64,120.0
4,1360,B-2,243.263,0.227,63,120.0
4,1361,B-1,243.263,0.227,63,120.0
4,1362,F3,243.505,0.465,63,120.0
4,1363,B-3,243.505,0.465,63,120.0
4,1364,B-2,243.505,0.465,63,120.0
4,1365,G3,244.004,0.499,68,120.0
4,1366,C4,244.004,0.499,68,120.0
4,1367,C2,244.004,0.499,68,120.0
4,1368,G3,244.533,0.466,62,120.0
4,1369,C4,244.533,0.466,62,120.0
4,1370,C3,244.533,0.466,62,120.0
4,1371,C3,245.029,0.251,64,120.0
4,1372,C2,245.029,0.251,64,120.0
4,1373,C2,245.281,0.226,62,120.0
4,1374,G3,245.281,0.482,61,120.0
4,1375,C4,245.281,0.482,61,120.0
4,1376,C3,245.522,0.227,64,120.0
4,1377,G3,245.765,0.512,61,120.0
4,1378,C4,245.765,0.512,61,120.0
4,1379,C2,245.765,0.512,61,120.0
4,1380,C2,246.277,0.226,62,120.0
4,1381,G3,246.277,0.482,61,120.0
4,1382,C4,246.277,0.482,61,120.0
4,1383,C3,246.519,0.227,64,120.0
4,1384,C3,246.761,0.25,63,120.0
4,1385,C2,246.761,0.25,63,120.0
4,1386,C3,247.012,0.25,64,120.0
4,1387,C2,247.012,0.25,64,120.0
4,1388,C3,247.263,0.227,63,120.0
4,1389,C2,247.263,0.227,63,120.0
4,1390,G3,247.505,0.465,63,120.0
4,1391,C4,247.505,0.465,63,120.0
4,1392,C3,247.505,0.465,63,120.0
4,1393,A3,248.004,0.499,68,120.0
4,1394,D4,248.004,0.499,68,120.0
4,1395,D2,248.004,0.499,68,120.0
4,1396,A3,248.533,0.466,62,120.0
4,1397,D4,248.533,0.466,62,120.0
4,1398,D3,248.533,0.466,62,120.0
4,1399,D3,249.029,0.251,64,120.0
4,1400,D2,249.029,0.251,64,120.0
4,1401,D2,249.281,0.226,63,120.0
4,1402,A3,249.281,0.482,61,120.0
4,1403,D4,249.281,0.482,61,120.0
4,1404,D3,249.522,0.227,64,120.0
4,1405,A3,249.765,0.512,62,120.0
4,1406,D4,249.765,0.512,62,120.0
4,1407,D2,249.765,0.512,62,120.0
4,1408,D2,250.277,0.226,63,120.0
4,1409,A3,250.277,0.482,61,120.0
4,1410,D4,250.277,0.482,61,120.0
4,1411,D3,250.519,0.227,64,120.0
4,1412,D3,250.761,0.25,64,120.0
4,1413,D2,250.761,0.25,64,120.0
4,1414,D3,251.012,0.25,64,120.0
4,1415,D2,251.012,0.25,64,120.0
4,1416,D3,251.263,0.227,64,120.0
4,1417,D2,251.263,0.227,64,120.0
4,1418,A3,251.505,0.465,62,120.0
4,1419,D4,251.505,0.465,62,120.0
4,1420,D3,251.505,0.465,62,120.0
4,1421,A3,252.004,0.499,67,120.0
4,1422,D4,252.004,0.499,67,120.0
4,1423,D2,252.004,0.499,67,120.0
4,1424,A3,252.533,0.466,62,120.0
4,1425,D4,252.533,0.466,62,120.0
4,1426,D3,252.533,0.466,62,120.0
4,1427,D3,253.029,0.251,64,120.0
4,1428,D2,253.029,0.251,64,120.0
4,1429,D2,253.281,0.226,63,120.0
4,1430,A3,253.281,0.482,61,120.0
4,1431,D4,253.281,0.482,61,120.0
4,1432,D3,253.522,0.227,64,120.0
4,1433,A3,253.765,0.512,62,120.0
4,1434,D4,253.765,0.512,62,120.0
4,1435,D2,253.765,0.512,62,120.0
4,1436,D2,254.277,0.226,63,120.0
4,1437,A3,254.277,0.482,61,120.0
4,1438,D4,254.277,0.482,61,120.0
4,1439,D3,254.519,0.227,64,120.0
4,1440,D3,254.761,0.25,64,120.0
4,1441,D2,254.761,0.25,64,120.0
4,1442,D3,255.012,0.25,64,120.0
4,1443,D2,255.012,0.25,64,120.0
4,1444,D3,255.263,0.227,64,120.0
4,1445,D2,255.263,0.227,64,120.0
4,1446,A3,255.505,0.465,63,120.0
4,1447,D4,255.505,0.465,63,120.0
4,1448,D3,255.505,0.465,63,120.0
4,1449,F3,256.004,0.499,68,120.0
4,1450,B-3,256.004,0.499,68,120.0
4,1451,B-1,256.004,0.499,68,120.0
4,1452,F3,256.533,0.466,62,120.0
4,1453,B-3,256.533,0.466,62,120.0
4,1454,B-2,256.533,0.466,62,120.0
4,1455,B-2,257.029,0.251,64,120.0
4,1456,B-1,257.029,0.251,64,120.0
4,1457,B-1,257.281,0.226,62,120.0
4,1458,F3,257.281,0.482,61,120.0
4,1459,B-3,257.281,0.482,61,120.0
4,1460,B-2,257.522,0.227,64,120.0
4,1461,F3,257.765,0.512,61,120.0
4,1462,B-3,257.765,0.512,61,120.0
4,1463,B-1,257.765,0.512,61,120.0
4,1464,B-1,258.277,0.226,62,120.0
4,1465,F3,258.277,0.482,61,120.0
4,1466,B-3,258.277,0.482,61,120.0
4,1467,B-2,258.519,0.227,64,120.0
4,1468,B-2,258.761,0.25,63,120.0
4,1469,B-1,258.761,0.25,63,120.0
4,1470,B-2,259.012,0.25,64,120.0
4,1471,B-1,259.012,0.25,64,120.0
4,1472,B-2,259.263,0.227,63,120.0
4,1473,B-1,259.263,0.227,63,120.0
4,1474,F3,259.505,0.465,63,120.0
4,1475,B-3,259.505,0.465,63,120.0
4,1476,B-2,259.505,0.465,63,120.0
4,1477,G3,260.004,0.499,68,120.0
4,1478,C4,260.004,0.499,68,120.0
4,1479,C2,260.004,0.499,68,120.0
4,1480,G3,260.533,0.466,62,120.0
4,1481,C4,260.533,0.466,62,120.0
4,1482,C3,260.533,0.466,62,120.0
4,1483,C3,261.029,0.251,64,120.0
4,1484,C2,261.029,0.251,64,120.0
4,1485,C2,261.281,0.226,62,120.0
4,1486,G3,261.281,0.482,61,120.0
4,1487,C4,261.281,0.482,61,120.0
4,1488,C3,261.522,0.227,64,120.0
4,1489,G3,261.765,0.512,61,120.0
4,1490,C4,261.765,0.512,61,120.0
4,1491,C2,261.765,0.512,61,120.0
4,1492,C2,262.277,0.226,62,120.0
4,1493,G3,262.277,0.482,61,120.0
4,1494,C4,262.277,0.482,61,120.0
4,1495,C3,262.519,0.227,64,120.0
4,1496,C3,262.761,0.25,63,120.0
4,1497,C2,262.761,0.25,63,120.0
4,1498,C3,263.012,0.25,64,120.0
4,1499,C2,263.012,0.25,64,120.0
4,1500,C3,263.263,0.227,63,120.0
4,1501,C2,263.263,0.227,63,120.0
4,1502,G3,263.505,0.465,63,120.0
4,1503,C4,263.505,0.465,63,120.0
4,1504,C3,263.505,0.465,63,120.0
4,1505,A3,264.004,0.499,68,120.0
4,1506,D4,264.004,0.499,68,120.0
4,1507,D2,264.004,0.499,68,120.0
4,1508,A3,264.533,0.466,62,120.0
4,1509,D4,264.533,0.466,62,120.0
4,1510,D3,264.533,0.466,62,120.0
4,1511,D3,265.029,0.251,64,120.0
4,1512,D2,265.029,0.251,64,120.0
4,1513,D2,265.281,0.226,63,120.0
4,1514,A3,265.281,0.482,63,120.0
4,1515,D4,265.281,0.482,63,120.0
4,1516,D3,265.522,0.227,64,120.0
4,1517,G#3,265.765,0.512,63,120.0
4,1518,C#4,265.765,0.512,63,120.0
4,1519,C#2,265.765,0.512,63,120.0
4,1520,C#2,266.277,0.226,63,120.0
4,1521,G#3,266.277,0.482,61,120.0
4,1522,C#4,266.277,0.482,61,120.0
4,1523,C#3,266.519,0.227,64,120.0
4,1524,C#3,266.761,0.25,64,120.0
4,1525,C#2,266.761,0.25,64,120.0
4,1526,C#3,267.012,0.25,64,120.0
4,1527,C#2,267.012,0.25,64,120.0
4,1528,C#3,267.263,0.227,64,120.0
4,1529,C#2,267.263,0.227,64,120.0
4,1530,G#3,267.505,0.465,63,120.0
4,1531,C#4,267.505,0.465,63,120.0
4,1532,C#3,267.505,0.465,63,120.0
4,1533,G3,268.004,0.499,68,120.0
4,1534,C4,268.004,0.499,68,120.0
4,1535,C2,268.004,0.499,68,120.0
4,1536,G3,268.533,0.466,62,120.0
4,1537,C4,268.533,0.466,62,120.0
4,1538,C3,268.533,0.466,62,120.0
4,1539,C3,269.029,0.251,64,120.0
4,1540,C2,269.029,0.251,64,120.0
4,1541,C2,269.281,0.226,62,120.0
4,1542,G3,269.281,0.482,63,120.0
4,1543,C4,269.281,0.482,63,120.0
4,1544,C3,269.522,0.227,64,120.0
4,1545,F#3,269.765,0.512,63,120.0
4,1546,B3,269.765,0.512,63,120.0
4,1547,B1,269.765,0.512,63,120.0
4,1548,B1,270.277,0.226,62,120.0
4,1549,F#3,270.277,0.482,61,120.0
4,1550,B3,270.277,0.482,61,120.0
4,1551,B2,270.519,0.227,64,120.0
4,1552,B2,270.761,0.25,63,120.0
4,1553,B1,270.761,0.25,63,120.0
4,1554,B2,271.012,0.25,64,120.0
4,1555,B1,271.012,0.25,64,120.0
4,1556,B2,271.263,0.227,63,120.0
4,1557,B1,271.263,0.227,63,120.0
4,1558,F#3,271.505,0.465,63,120.0
4,1559,B3,271.505,0.465,63,120.0
4,1560,B2,271.505,0.465,63,120.0
4,1561,F3,272.004,0.499,68,120.0
4,1562,B-3,272.004,0.499,68,120.0
4,1563,B-1,272.004,0.499,68,120.0
4,1564,F3,272.533,0.466,62,120.0
4,1565,B-3,272.533,0.466,62,120.0
4,1566,B-2,272.533,0.466,62,120.0
4,1567,B-2,273.029,0.251,64,120.0
4,1568,B-1,273.029,0.251,64,120.0
4,1569,B-1,273.281,0.226,62,120.0
4,1570,F3,273.281,0.482,61,120.0
4,1571,B-3,273.281,0.482,61,120.0
4,1572,B-2,273.522,0.227,64,120.0
4,1573,F3,273.765,0.512,61,120.0
4,1574,B-3,273.765,0.512,61,120.0
4,1575,B-1,273.765,0.512,61,120.0
4,1576,B-1,274.277,0.226,62,120.0
4,1577,F3,274.277,0.482,61,120.0
4,1578,B-3,274.277,0.482,61,120.0
4,1579,B-2,274.519,0.227,64,120.0
4,1580,B-2,274.761,0.25,63,120.0
4,1581,B-1,274.761,0.25,63,120.0
4,1582,B-2,275.012,0.25,64,120.0
4,1583,B-1,275.012,0.25,64,120.0
4,1584,B-2,275.263,0.227,63,120.0
4,1585,B-1,275.263,0.227,63,120.0
4,1586,F3,275.505,0.465,63,120.0
4,1587,B-3,275.505,0.465,63,120.0
4,1588,B-2,275.505,0.465,63,120.0
4,1589,G3,276.004,0.499,68,120.0
4,1590,C4,276.004,0.499,68,120.0
4,1591,C2,276.004,0.499,68,120.0
4,1592,G3,276.533,0.466,62,120.0
4,1593,C4,276.533,0.466,62,120.0
4,1594,C3,276.533,0.466,62,120.0
4,1595,C3,277.029,0.251,64,120.0
4,1596,C2,277.029,0.251,64,120.0
4,1597,C2,277.281,0.226,62,120.0
4,1598,G3,277.281,0.482,61,120.0
4,1599,C4,277.281,0.482,61,120.0
4,1600,C3,277.522,0.227,64,120.0
4,1601,G3,277.765,0.512,61,120.0
4,1602,C4,277.765,0.512,61,120.0
4,1603,C2,277.765,0.512,61,120.0
4,1604,C2,278.277,0.226,62,120.0
4,1605,G3,278.277,0.482,61,120.0
4,1606,C4,278.277,0.482,61,120.0
4,1607,C3,278.519,0.227,64,120.0
4,1608,C3,278.761,0.25,63,120.0
4,1609,C2,278.761,0.25,63,120.0
4,1610,C3,279.012,0.25,64,120.0
4,1611,C2,279.012,0.25,64,120.0
4,1612,C3,279.263,0.227,63,120.0
4,1613,C2,279.263,0.227,63,120.0
4,1614,G3,279.505,0.465,63,120.0
4,1615,C4,279.505,0.465,63,120.0
4,1616,C3,279.505,0.465,63,120.0
4,1617,D3,280.004,0.285,69,120.0
4,1618,D4,280.004,0.499,68,120.0
4,1619,D2,280.004,0.499,68,120.0
4,1620,D3,280.29,0.228,64,120.0
4,1621,D4,280.533,0.466,64,120.0
4,1622,D4,280.533,0.466,64,120.0
4,1623,D3,280.533,0.466,64,120.0
4,1624,A3,281.029,0.251,64,120.0
4,1625,D2,281.029,0.251,64,120.0
4,1626,D4,281.281,0.482,64,120.0
4,1627,D2,281.281,0.226,63,120.0
4,1628,D3,281.522,0.227,64,120.0
4,1629,G#3,281.765,0.24,64,120.0
4,1630,D4,281.765,0.512,64,120.0
4,1631,D2,281.765,0.512,64,120.0
4,1632,D4,282.277,0.453,64,120.0
4,1633,G3,282.277,0.226,64,120.0
4,1634,D2,282.277,0.226,64,120.0
4,1635,D3,282.519,0.227,64,120.0
4,1636,F3,282.761,0.486,64,120.0
4,1637,D2,282.761,0.25,63,120.0
4,1638,D2,283.012,0.25,64,120.0
4,1639,D3,283.263,0.227,64,120.0
4,1640,D2,283.263,0.227,64,120.0
4,1641,F3,283.505,0.227,64,120.0
4,1642,D4,283.505,0.465,64,120.0
4,1643,D3,283.505,0.465,64,120.0
4,1644,G3,283.747,0.237,64,120.0
4,1645,D3,284.004,0.285,69,120.0
4,1646,D4,284.004,0.499,68,120.0
4,1647,D2,284.004,0.499,68,120.0
4,1648,D3,284.29,0.228,64,120.0
4,1649,D4,284.533,0.466,64,120.0
4,1650,D4,284.533,0.466,64,120.0
4,1651,D3,284.533,0.466,64,120.0
4,1652,A3,285.029,0.251,64,120.0
4,1653,D2,285.029,0.251,64,120.0
4,1654,D4,285.281,0.482,64,120.0
4,1655,D2,285.281,0.226,63,120.0
4,1656,D3,285.522,0.227,64,120.0
4,1657,G#3,285.765,0.24,64,120.0
4,1658,D4,285.765,0.512,64,120.0
4,1659,D2,285.765,0.512,64,120.0
4,1660,D4,286.277,0.453,64,120.0
4,1661,G3,286.277,0.226,64,120.0
4,1662,D2,286.277,0.226,64,120.0
4,1663,D3,286.519,0.227,64,120.0
4,1664,F3,286.761,0.486,64,120.0
4,1665,D2,286.761,0.25,63,120.0
4,1666,D2,287.012,0.25,64,120.0
4,1667,D3,287.263,0.227,64,120.0
4,1668,D2,287.263,0.227,64,120.0
4,1669,F3,287.505,0.227,64,120.0
4,1670,D4,287.505,0.465,64,120.0
4,1671,D3,287.505,0.465,64,120.0
4,1672,G3,287.747,0.237,64,120.0
4,1673,B-3,288.004,0.285,69,120.0
4,1674,B-3,288.29,0.228,64,120.0
4,1675,D5,288.533,0.195,64,120.0
4,1676,A4,289.029,0.284,65,120.0
4,1677,G#4,289.765,0.24,64,120.0
4,1678,G4,290.277,0.183,64,120.0
4,1679,F4,290.761,0.486,64,120.0
4,1680,D4,291.263,0.227,64,120.0
4,1681,F4,291.505,0.227,64,120.0
4,1682,G4,291.747,0.237,64,120.0
4,1683,C4,292.004,0.285,69,120.0
4,1684,C4,292.29,0.228,64,120.0
4,1685,D5,292.533,0.195,64,120.0
4,1686,A4,293.029,0.284,65,120.0
4,1687,G#4,293.765,0.24,64,120.0
4,1688,G4,294.277,0.183,64,120.0
4,1689,F4,294.761,0.486,64,120.0
4,1690,D4,295.263,0.227,64,120.0
4,1691,F4,295.505,0.227,64,120.0
4,1692,G4,295.747,0.237,64,120.0
4,1693,D4,296.004,0.285,69,120.0
4,1694,D4,296.29,0.228,64,120.0
4,1695,D5,296.533,0.195,64,120.0
4,1696,A4,297.029,0.284,65,120.0
4,1697,G#4,297.765,0.24,64,120.0
4,1698,G4,298.277,0.183,64,120.0
4,1699,F4,298.761,0.486,64,120.0
4,1700,D4,299.263,0.227,64,120.0
4,1701,F4,299.505,0.227,64,120.0
4,1702,G4,299.747,0.237,64,120.0
4,1703,D4,300.004,0.285,69,120.0
4,1704,D4,300.29,0.228,64,120.0
4,1705,D5,300.533,0.195,64,120.0
4,1706,A4,301.029,0.284,65,120.0
4,1707,G#4,301.765,0.24,64,120.0
4,1708,G4,302.277,0.183,64,120.0
4,1709,F4,302.761,0.486,64,120.0
4,1710,D4,303.263,0.227,64,120.0
4,1711,F4,303.505,0.227,64,120.0
4,1712,G4,303.747,0.237,64,120.0
4,1713,B-3,304.004,0.285,69,120.0
4,1714,B-3,304.29,0.228,64,120.0
4,1715,D5,304.533,0.195,64,120.0
4,1716,A4,305.029,0.284,65,120.0
4,1717,G#4,305.765,0.24,64,120.0
4,1718,G4,306.277,0.183,64,120.0
4,1719,F4,306.761,0.486,64,120.0
4,1720,D4,307.263,0.227,64,120.0
4,1721,F4,307.505,0.227,64,120.0
4,1722,G4,307.747,0.237,64,120.0
4,1723,C4,308.004,0.285,57,120.0
4,1724,C4,308.29,0.257,52,120.0
4,1725,D5,308.533,0.195,64,120.0
4,1726,A4,309.029,0.284,65,120.0
4,1727,G#4,309.765,0.24,64,120.0
4,1728,G4,310.277,0.183,64,120.0
4,1729,F4,310.761,0.486,64,120.0
4,1730,D4,311.263,0.227,64,120.0
4,1731,F4,311.505,0.227,64,120.0
4,1732,G4,311.747,0.237,64,120.0
4,1733,D4,312.01,0.279,69,120.0
4,1734,D4,312.29,0.228,64,120.0
4,1735,D5,312.533,0.195,64,120.0
4,1736,A4,313.029,0.284,65,120.0
4,1737,G#4,313.765,0.24,64,120.0
4,1738,G4,314.277,0.183,64,120.0
4,1739,F4,314.761,0.486,64,120.0
4,1740,D4,315.263,0.227,64,120.0
4,1741,F4,315.505,0.227,64,120.0
4,1742,G4,315.747,0.237,64,120.0
4,1743,C4,316.004,0.285,69,120.0
4,1744,C4,316.29,0.228,64,120.0
4,1745,D5,316.533,0.195,64,120.0
4,1746,A4,317.029,0.284,65,120.0
4,1747,G#4,317.765,0.24,64,120.0
4,1748,G4,318.277,0.183,64,120.0
4,1749,F4,318.761,0.486,64,120.0
4,1750,D4,319.263,0.227,64,120.0
4,1751,F4,319.505,0.227,64,120.0
4,1752,G4,319.747,0.237,64,120.0
4,1753,B3,320.004,0.285,69,120.0
4,1754,B3,320.29,0.228,64,120.0
4,1755,D5,320.533,0.195,64,120.0
4,1756,A4,321.029,0.284,65,120.0
4,1757,G#4,321.765,0.24,64,120.0
4,1758,G4,322.277,0.183,64,120.0
4,1759,F4,322.761,0.486,64,120.0
4,1760,D4,323.263,0.227,64,120.0
4,1761,F4,323.505,0.227,64,120.0
4,1762,G4,323.747,0.237,64,120.0
4,1763,B-3,324.004,0.285,69,120.0
4,1764,B-3,324.29,0.228,64,120.0
4,1765,D5,324.533,0.195,64,120.0
4,1766,A4,325.029,0.284,65,120.0
4,1767,G#4,325.765,0.24,64,120.0
4,1768,G4,326.277,0.183,64,120.0
4,1769,F4,326.761,0.486,64,120.0
4,1770,D4,327.263,0.227,64,120.0
4,1771,F4,327.505,0.227,64,120.0
4,1772,G4,327.747,0.237,64,120.0
4,1773,D4,328.004,0.229,69,120.0
4,1774,D3,328.004,0.229,69,120.0
4,1775,D4,328.29,0.228,64,120.0
4,1776,D5,328.533,0.195,64,120.0
4,1777,D3,328.533,0.195,64,120.0
4,1778,A4,329.029,0.251,65,120.0
4,1779,D3,329.029,0.251,65,120.0
4,1780,D3,329.281,0.183,64,120.0
4,1781,G#4,329.765,0.24,64,120.0
4,1782,D3,329.765,0.24,64,120.0
4,1783,G4,330.277,0.183,64,120.0
4,1784,D3,330.277,0.183,64,120.0
4,1785,F4,330.761,0.486,64,120.0
4,1786,D3,330.761,0.25,64,120.0
4,1787,D3,331.012,0.25,65,120.0
4,1788,D4,331.263,0.241,64,120.0
4,1789,D3,331.263,0.241,64,120.0
4,1790,F4,331.505,0.194,64,120.0
4,1791,D3,331.505,0.194,64,120.0
4,1792,G4,331.747,0.237,64,120.0
4,1793,C4,332.004,0.229,69,120.0
4,1794,C3,332.004,0.229,69,120.0
4,1795,C4,332.29,0.228,64,120.0
4,1796,D5,332.533,0.195,64,120.0
4,1797,C3,332.533,0.195,64,120.0
4,1798,A4,333.029,0.251,65,120.0
4,1799,C3,333.029,0.251,65,120.0
4,1800,C3,333.281,0.183,64,120.0
4,1801,G#4,333.765,0.24,64,120.0
4,1802,C3,333.765,0.24,64,120.0
4,1803,G4,334.277,0.183,64,120.0
4,1804,C3,334.277,0.183,64,120.0
4,1805,F4,334.761,0.486,64,120.0
4,1806,C3,334.761,0.25,64,120.0
4,1807,C3,335.012,0.25,65,120.0
4,1808,D4,335.263,0.241,64,120.0
4,1809,C3,335.263,0.241,64,120.0
4,1810,F4,335.505,0.194,64,120.0
4,1811,C3,335.505,0.194,64,120.0
4,1812,G4,335.747,0.237,64,120.0
4,1813,B3,336.004,0.229,69,120.0
4,1814,B2,336.004,0.229,69,120.0
4,1815,B3,336.29,0.228,64,120.0
4,1816,D5,336.533,0.195,64,120.0
4,1817,B2,336.533,0.195,64,120.0
4,1818,A4,337.029,0.251,65,120.0
4,1819,B2,337.029,0.251,65,120.0
4,1820,B2,337.281,0.183,64,120.0
4,1821,G#4,337.765,0.24,64,120.0
4,1822,B2,337.765,0.24,64,120.0
4,1823,G4,338.277,0.183,64,120.0
4,1824,B2,338.277,0.183,64,120.0
4,1825,F4,338.761,0.486,64,120.0
4,1826,B2,338.761,0.25,64,120.0
4,1827,B2,339.012,0.25,65,120.0
4,1828,D4,339.263,0.241,64,120.0
4,1829,B2,339.263,0.241,64,120.0
4,1830,F4,339.505,0.194,64,120.0
4,1831,B2,339.505,0.194,64,120.0
4,1832,G4,339.747,0.237,64,120.0
4,1833,B-3,340.004,0.229,69,120.0
4,1834,B-2,340.004,0.229,69,120.0
4,1835,B-3,340.29,0.228,64,120.0
4,1836,D5,340.533,0.195,64,120.0
4,1837,B-2,340.533,0.195,64,120.0
4,1838,A4,341.029,0.251,65,120.0
4,1839,B-2,341.029,0.251,65,120.0
4,1840,B-2,341.281,0.183,64,120.0
4,1841,G#4,341.765,0.24,64,120.0
4,1842,C3,341.765,0.24,64,120.0
4,1843,G4,342.277,0.183,64,120.0
4,1844,C3,342.277,0.183,64,120.0
4,1845,F4,342.761,0.486,64,120.0
4,1846,C3,342.761,0.25,64,120.0
4,1847,C3,343.012,0.25,65,120.0
4,1848,D4,343.263,0.241,64,120.0
4,1849,C3,343.263,0.241,64,120.0
4,1850,F4,343.505,0.194,64,120.0
4,1851,C3,343.505,0.194,64,120.0
4,1852,G4,343.747,0.237,64,120.0
4,1853,D2,344.004,0.499,100,120.0
4,1854,D4,344.004,0.285,98,120.0
4,1855,D5,344.004,0.285,98,120.0
4,1856,D4,344.29,0.242,95,120.0
4,1857,D5,344.29,0.242,95,120.0
4,1858,D3,344.533,0.466,96,120.0
4,1859,D5,344.533,0.195,95,120.0
4,1860,D6,344.533,0.195,95,120.0
4,1861,A4,345.029,0.251,96,120.0
4,1862,A5,345.029,0.251,96,120.0
4,1863,D2,345.029,0.251,96,120.0
4,1864,D2,345.281,0.226,95,120.0
4,1865,D3,345.522,0.227,96,120.0
4,1866,D2,345.765,0.512,95,120.0
4,1867,G#4,345.765,0.255,95,120.0
4,1868,G#5,345.765,0.255,95,120.0
4,1869,G4,346.277,0.226,95,120.0
4,1870,G5,346.277,0.226,95,120.0
4,1871,D2,346.277,0.226,95,120.0
4,1872,D3,346.519,0.227,96,120.0
4,1873,D2,346.761,0.25,95,120.0
4,1874,F4,346.761,0.501,95,120.0
4,1875,F5,346.761,0.501,95,120.0
4,1876,D2,347.012,0.25,96,120.0
4,1877,D4,347.263,0.227,95,120.0
4,1878,D5,347.263,0.227,95,120.0
4,1879,D2,347.263,0.227,95,120.0
4,1880,D3,347.505,0.465,96,120.0
4,1881,F4,347.505,0.241,95,120.0
4,1882,F5,347.505,0.241,95,120.0
4,1883,G4,347.747,0.252,95,120.0
4,1884,G5,347.747,0.252,95,120.0
4,1885,C2,348.004,0.499,99,120.0
4,1886,C4,348.004,0.285,100,120.0
4,1887,C5,348.004,0.285,100,120.0
4,1888,C4,348.29,0.242,95,120.0
4,1889,C5,348.29,0.242,95,120.0
4,1890,C3,348.533,0.466,96,120.0
4,1891,D5,348.533,0.195,95,120.0
4,1892,D6,348.533,0.195,95,120.0
4,1893,A4,349.029,0.251,96,120.0
4,1894,A5,349.029,0.251,96,120.0
4,1895,C2,349.029,0.251,96,120.0
4,1896,C2,349.281,0.226,94,120.0
4,1897,C3,349.522,0.227,96,120.0
4,1898,C2,349.765,0.512,94,120.0
4,1899,G#4,349.765,0.255,95,120.0
4,1900,G#5,349.765,0.255,95,120.0
4,1901,G4,350.277,0.226,95,120.0
4,1902,G5,350.277,0.226,95,120.0
4,1903,C2,350.277,0.226,95,120.0
4,1904,C3,350.519,0.227,96,120.0
4,1905,C2,350.761,0.25,94,120.0
4,1906,F4,350.761,0.501,95,120.0
4,1907,F5,350.761,0.501,95,120.0
4,1908,C2,351.012,0.25,95,120.0
4,1909,D4,351.263,0.227,95,120.0
4,1910,D5,351.263,0.227,95,120.0
4,1911,C2,351.263,0.227,95,120.0
4,1912,C3,351.505,0.465,96,120.0
4,1913,F4,351.505,0.241,95,120.0
4,1914,F5,351.505,0.241,95,120.0
4,1915,G4,351.747,0.252,95,120.0
4,1916,G5,351.747,0.252,95,120.0
4,1917,B1,352.004,0.499,99,120.0
4,1918,B3,352.004,0.285,100,120.0
4,1919,B4,352.004,0.285,100,120.0
4,1920,B3,352.29,0.242,95,120.0
4,1921,B4,352.29,0.242,95,120.0
4,1922,B2,352.533,0.466,96,120.0
4,1923,D5,352.533,0.195,95,120.0
4,1924,D6,352.533,0.195,95,120.0
4,1925,A4,353.029,0.251,96,120.0
4,1926,A5,353.029,0.251,96,120.0
4,1927,B1,353.029,0.251,96,120.0
4,1928,B1,353.281,0.226,94,120.0
4,1929,B2,353.522,0.227,96,120.0
4,1930,B1,353.765,0.512,94,120.0
4,1931,G#4,353.765,0.255,95,120.0
4,1932,G#5,353.765,0.255,95,120.0
4,1933,G4,354.277,0.226,95,120.0
4,1934,G5,354.277,0.226,95,120.0
4,1935,B1,354.277,0.226,95,120.0
4,1936,B2,354.519,0.227,96,120.0
4,1937,B1,354.761,0.25,94,120.0
4,1938,F4,354.761,0.501,95,120.0
4,1939,F5,354.761,0.501,95,120.0
4,1940,B1,355.012,0.25,95,120.0
4,1941,D4,355.263,0.227,95,120.0
4,1942,D5,355.263,0.227,95,120.0
4,1943,B1,355.263,0.227,95,120.0
4,1944,B2,355.505,0.465,96,120.0
4,1945,F4,355.505,0.241,95,120.0
4,1946,F5,355.505,0.241,95,120.0
4,1947,G4,355.747,0.252,95,120.0
4,1948,G5,355.747,0.252,95,120.0
4,1949,B-1,356.004,0.499,99,120.0
4,1950,B-3,356.004,0.285,100,120.0
4,1951,B-4,356.004,0.285,100,120.0
4,1952,B-3,356.29,0.242,95,120.0
4,1953,B-4,356.29,0.242,95,120.0
4,1954,B-2,356.533,0.466,96,120.0
4,1955,D5,356.533,0.195,95,120.0
4,1956,D6,356.533,0.195,95,120.0
4,1957,A4,357.029,0.251,96,120.0
4,1958,A5,357.029,0.251,96,120.0
4,1959,B-1,357.029,0.251,96,120.0
4,1960,B-1,357.281,0.226,94,120.0
4,1961,B-2,357.522,0.227,96,120.0
4,1962,C2,357.765,0.512,94,120.0
4,1963,G#4,357.765,0.255,95,120.0
4,1964,G#5,357.765,0.255,95,120.0
4,1965,G4,358.277,0.226,95,120.0
4,1966,G5,358.277,0.226,95,120.0
4,1967,C2,358.277,0.226,95,120.0
4,1968,C3,358.519,0.227,96,120.0
4,1969,C2,358.761,0.25,94,120.0
4,1970,F4,358.761,0.501,95,120.0
4,1971,F5,358.761,0.501,95,120.0
4,1972,C2,359.012,0.25,95,120.0
4,1973,D4,359.263,0.227,95,120.0
4,1974,D5,359.263,0.227,95,120.0
4,1975,C2,359.263,0.227,95,120.0
4,1976,C3,359.505,0.465,96,120.0
4,1977,F4,359.505,0.241,95,120.0
4,1978,F5,359.505,0.241,95,120.0
4,1979,G4,359.747,0.252,95,120.0
4,1980,G5,359.747,0.252,95,120.0
4,1981,F5,360.004,0.499,84,120.0
4,1982,D2,360.004,0.499,84,120.0
4,1983,F5,360.533,0.242,80,120.0
4,1984,D3,360.533,0.466,80,120.0
4,1985,F5,360.776,0.237,80,120.0
4,1986,D2,361.029,0.251,80,120.0
4,1987,F5,361.281,0.226,80,120.0
4,1988,D2,361.281,0.226,80,120.0
4,1989,D3,361.522,0.227,80,120.0
4,1990,F5,361.765,0.512,80,120.0
4,1991,D2,361.765,0.512,80,120.0
4,1992,D5,362.277,0.482,80,120.0
4,1993,D2,362.277,0.226,79,120.0
4,1994,D3,362.519,0.227,80,120.0
4,1995,D5,362.761,1.238,80,120.0
4,1996,D2,362.761,0.25,79,120.0
4,1997,D2,363.012,0.25,80,120.0
4,1998,D2,363.263,0.227,79,120.0
4,1999,D3,363.505,0.465,80,120.0
4,2000,F5,364.004,0.499,84,120.0
4,2001,C2,364.004,0.499,84,120.0
4,2002,F5,364.533,0.242,80,120.0
4,2003,C3,364.533,0.466,80,120.0
4,2004,F5,364.776,0.237,80,120.0
4,2005,C2,365.029,0.251,79,120.0
4,2006,G5,365.281,0.226,79,120.0
4,2007,C2,365.281,0.226,79,120.0
4,2008,C3,365.522,0.227,80,120.0
4,2009,G#5,365.765,0.512,79,120.0
4,2010,C2,365.765,0.512,79,120.0
4,2011,G5,366.277,0.075,80,120.0
4,2012,C2,366.277,0.226,78,120.0
4,2013,G#5,366.358,0.075,80,120.0
4,2014,G5,366.439,0.073,80,120.0
4,2015,F5,366.519,0.227,80,120.0
4,2016,C3,366.519,0.227,80,120.0
4,2017,D5,366.761,0.25,79,120.0
4,2018,C2,366.761,0.25,79,120.0
4,2019,F5,367.012,0.25,80,120.0
4,2020,C2,367.012,0.25,80,120.0
4,2021,G5,367.263,0.227,79,120.0
4,2022,C2,367.263,0.227,79,120.0
4,2023,C3,367.505,0.465,80,120.0
4,2024,F5,368.004,0.499,84,120.0
4,2025,B1,368.004,0.499,84,120.0
4,2026,F5,368.533,0.242,80,120.0
4,2027,B2,368.533,0.466,80,120.0
4,2028,F5,368.776,0.237,80,120.0
4,2029,B1,369.029,0.251,79,120.0
4,2030,G5,369.281,0.226,79,120.0
4,2031,B1,369.281,0.226,79,120.0
4,2032,B2,369.522,0.227,80,120.0
4,2033,G#5,369.765,0.24,80,120.0
4,2034,B1,369.765,0.512,78,120.0
4,2035,A5,370.277,0.226,79,120.0
4,2036,B1,370.277,0.226,79,120.0
4,2037,B2,370.519,0.227,80,120.0
4,2038,C6,370.761,0.486,80,120.0
4,2039,B1,370.761,0.25,78,120.0
4,2040,B1,371.012,0.25,79,120.0
4,2041,A5,371.263,0.736,80,120.0
4,2042,B1,371.263,0.227,78,120.0
4,2043,B2,371.505,0.465,80,120.0
4,2044,D6,372.004,0.229,85,120.0
4,2045,B-1,372.004,0.499,83,120.0
4,2046,D6,372.533,0.195,81,120.0
4,2047,B-2,372.533,0.466,81,120.0
4,2048,D6,373.029,0.251,82,120.0
4,2049,B-1,373.029,0.251,82,120.0
4,2050,A5,373.281,0.226,83,120.0
4,2051,B-1,373.281,0.226,83,120.0
4,2052,D6,373.522,0.227,85,120.0
4,2053,B-2,373.522,0.227,85,120.0
4,2054,C6,373.765,2.234,86,120.0
4,2055,C2,373.765,0.512,84,120.0
4,2056,C2,374.277,0.226,86,120.0
4,2057,C3,374.519,0.227,89,120.0
4,2058,C2,374.761,0.25,88,120.0
4,2059,C2,375.012,0.25,89,120.0
4,2060,C2,375.263,0.227,90,120.0
4,2061,C3,375.505,0.465,93,120.0
4,2062,D2,376.004,0.285,100,120.0
4,2063,F5,376.004,0.528,98,120.0
4,2064,A5,376.004,0.528,98,120.0
4,2065,D2,376.29,0.228,95,120.0
4,2066,F5,376.533,0.195,94,120.0
4,2067,A5,376.533,0.195,94,120.0
4,2068,D3,376.533,0.195,94,120.0
4,2069,F5,376.776,0.252,93,120.0
4,2070,A5,376.776,0.252,93,120.0
4,2071,A2,377.029,0.251,96,120.0
4,2072,D2,377.029,0.251,96,120.0
4,2073,F5,377.281,0.226,93,120.0
4,2074,A5,377.281,0.226,93,120.0
4,2075,D2,377.281,0.226,93,120.0
4,2076,D3,377.522,0.227,96,120.0
4,2077,G#2,377.765,0.24,96,120.0
4,2078,F5,377.765,0.512,93,120.0
4,2079,A5,377.765,0.512,93,120.0
4,2080,D2,377.765,0.512,93,120.0
4,2081,D5,378.277,0.226,95,120.0
4,2082,G5,378.277,0.226,95,120.0
4,2083,G2,378.277,0.226,95,120.0
4,2084,D2,378.277,0.226,95,120.0
4,2085,D3,378.519,0.227,96,120.0
4,2086,F2,378.761,0.486,96,120.0
4,2087,D2,378.761,0.25,93,120.0
4,2088,D5,378.761,1.238,93,120.0
4,2089,G5,378.761,1.238,93,120.0
4,2090,D2,379.012,0.25,94,120.0
4,2091,D2,379.263,0.227,94,120.0
4,2092,D2,379.263,0.227,94,120.0
4,2093,F2,379.505,0.227,96,120.0
4,2094,D3,379.505,0.465,96,120.0
4,2095,G2,379.747,0.237,96,120.0
4,2096,C2,380.004,0.285,99,120.0
4,2097,F5,380.004,0.528,100,120.0
4,2098,A5,380.004,0.528,100,120.0
4,2099,C2,380.29,0.228,94,120.0
4,2100,F5,380.533,0.195,94,120.0
4,2101,A5,380.533,0.195,94,120.0
4,2102,D3,380.533,0.195,94,120.0
4,2103,F5,380.776,0.252,93,120.0
4,2104,A5,380.776,0.252,93,120.0
4,2105,A2,381.029,0.251,96,120.0
4,2106,C2,381.029,0.251,96,120.0
4,2107,F5,381.281,0.226,94,120.0
4,2108,A5,381.281,0.226,94,120.0
4,2109,C2,381.281,0.226,94,120.0
4,2110,D3,381.522,0.227,96,120.0
4,2111,C2,381.765,0.512,93,120.0
4,2112,D5,381.765,0.24,95,120.0
4,2113,G5,381.765,0.24,95,120.0
4,2114,G#2,381.765,0.24,95,120.0
4,2115,F5,382.277,0.226,95,120.0
4,2116,A5,382.277,0.226,95,120.0
4,2117,G2,382.277,0.226,95,120.0
4,2118,C2,382.277,0.226,95,120.0
4,2119,D3,382.519,0.227,96,120.0
4,2120,F2,382.761,0.486,96,120.0
4,2121,E5,382.761,0.25,94,120.0
4,2122,D6,382.761,0.25,94,120.0
4,2123,C2,382.761,0.25,94,120.0
4,2124,C2,383.012,0.235,94,120.0
4,2125,D5,383.263,0.227,94,120.0
4,2126,A5,383.263,0.227,94,120.0
4,2127,D2,383.263,0.227,94,120.0
4,2128,D2,383.263,0.227,94,120.0
4,2129,F2,383.505,0.227,96,120.0
4,2130,C5,383.505,0.465,95,120.0
4,2131,G5,383.505,0.465,95,120.0
4,2132,D3,383.505,0.465,95,120.0
4,2133,G2,383.747,0.237,96,120.0
4,2134,D6,384.004,0.499,101,120.0
4,2135,B5,384.004,0.285,100,120.0
4,2136,B1,384.004,0.285,100,120.0
4,2137,G5,384.29,0.228,95,120.0
4,2138,B1,384.29,0.228,95,120.0
4,2139,A5,384.533,0.466,96,120.0
4,2140,D5,384.533,0.195,96,120.0
4,2141,D3,384.533,0.195,96,120.0
4,2142,E5,384.776,0.237,96,120.0
4,2143,G5,385.029,0.463,97,120.0
4,2144,F5,385.029,0.251,96,120.0
4,2145,A2,385.029,0.251,96,120.0
4,2146,B1,385.029,0.251,96,120.0
4,2147,D5,385.281,0.226,94,120.0
4,2148,B1,385.281,0.226,94,120.0
4,2149,F5,385.522,0.468,96,120.0
4,2150,B4,385.522,0.227,96,120.0
4,2151,D3,385.522,0.227,96,120.0
4,2152,B1,385.765,0.512,92,120.0
4,2153,D5,385.765,0.24,96,120.0
4,2154,G#2,385.765,0.24,96,120.0
4,2155,C6,386.021,0.468,99,120.0
4,2156,D5,386.277,0.226,95,120.0
4,2157,G2,386.277,0.226,95,120.0
4,2158,B1,386.277,0.226,95,120.0
4,2159,G5,386.519,0.463,96,120.0
4,2160,B4,386.519,0.227,96,120.0
4,2161,D3,386.519,0.227,96,120.0
4,2162,F2,386.761,0.486,96,120.0
4,2163,D5,386.761,0.25,94,120.0
4,2164,B1,386.761,0.25,94,120.0
4,2165,F5,387.012,0.463,97,120.0
4,2166,B4,387.012,0.235,95,120.0
4,2167,B1,387.012,0.235,95,120.0
4,2168,G4,387.263,0.227,95,120.0
4,2169,D2,387.263,0.227,95,120.0
4,2170,D2,387.263,0.227,95,120.0
4,2171,E5,387.505,0.465,96,120.0
4,2172,D3,387.505,0.465,96,120.0
4,2173,B4,387.505,0.227,96,120.0
4,2174,F2,387.505,0.227,96,120.0
4,2175,G4,387.747,0.237,96,120.0
4,2176,G2,387.747,0.237,96,120.0
4,2177,B-4,388.004,0.499,101,120.0
4,2178,B-1,388.004,0.285,99,120.0
4,2179,B-1,388.29,0.228,94,120.0
4,2180,C5,388.533,0.195,96,120.0
4,2181,D3,388.533,0.195,96,120.0
4,2182,B-4,388.776,0.252,95,120.0
4,2183,D5,388.776,0.252,95,120.0
4,2184,A2,389.029,0.251,95,120.0
4,2185,B-1,389.029,0.251,95,120.0
4,2186,D5,389.281,0.226,94,120.0
4,2187,F5,389.281,0.226,94,120.0
4,2188,B-1,389.281,0.226,94,120.0
4,2189,D3,389.522,0.227,96,120.0
4,2190,G#2,389.765,0.24,96,120.0
4,2191,C2,389.765,0.512,93,120.0
4,2192,E5,389.765,2.234,95,120.0
4,2193,C6,389.765,2.234,95,120.0
4,2194,G2,390.277,0.226,94,120.0
4,2195,C2,390.277,0.226,94,120.0
4,2196,D3,390.519,0.227,96,120.0
4,2197,F2,390.761,0.486,96,120.0
4,2198,C2,390.761,0.25,93,120.0
4,2199,C2,391.012,0.235,94,120.0
4,2200,D2,391.263,0.227,94,120.0
4,2201,D2,391.263,0.227,94,120.0
4,2202,F2,391.505,0.227,96,120.0
4,2203,D3,391.505,0.465,96,120.0
4,2204,G2,391.747,0.237,96,120.0
4,2205,B-1,392.004,0.499,83,120.0
4,2206,B-2,392.533,0.466,80,120.0
4,2207,B-1,393.029,0.251,79,120.0
4,2208,B-1,393.281,0.226,78,120.0
4,2209,B-2,393.522,0.227,80,120.0
4,2210,B-1,393.765,0.512,78,120.0
4,2211,D5,394.021,0.256,82,120.0
4,2212,F5,394.021,0.256,82,120.0
4,2213,B-4,394.277,0.226,79,120.0
4,2214,D5,394.277,0.226,79,120.0
4,2215,B-1,394.277,0.226,79,120.0
4,2216,D5,394.519,0.227,79,120.0
4,2217,F5,394.519,0.227,79,120.0
4,2218,B-2,394.519,0.227,79,120.0
4,2219,E5,394.761,0.25,79,120.0
4,2220,G5,394.761,0.25,79,120.0
4,2221,B-1,394.761,0.25,79,120.0
4,2222,F5,395.012,0.25,80,120.0
4,2223,G#5,395.012,0.25,80,120.0
4,2224,B-1,395.012,0.25,80,120.0
4,2225,E5,395.263,0.227,79,120.0
4,2226,G5,395.263,0.227,79,120.0
4,2227,B-1,395.263,0.227,79,120.0
4,2228,B-2,395.505,0.465,80,120.0
4,2229,D5,395.505,0.241,79,120.0
4,2230,F5,395.505,0.241,79,120.0
4,2231,B-4,395.747,0.252,79,120.0
4,2232,D5,395.747,0.252,79,120.0
4,2233,G#5,396.004,0.155,85,120.0
4,2234,C2,396.004,0.499,83,120.0
4,2235,G5,396.167,0.115,80,120.0
4,2236,F5,396.29,0.114,80,120.0
4,2237,D5,396.412,0.12,80,120.0
4,2238,D5,396.533,0.466,79,120.0
4,2239,F5,396.533,0.466,79,120.0
4,2240,C3,396.533,0.466,79,120.0
4,2241,C2,397.029,0.251,79,120.0
4,2242,E5,397.029,2.232,80,120.0
4,2243,G5,397.029,2.232,80,120.0
4,2244,C2,397.281,0.226,78,120.0
4,2245,C3,397.522,0.227,80,120.0
4,2246,C2,397.765,0.512,78,120.0
4,2247,C2,398.277,0.226,78,120.0
4,2248,C3,398.519,0.227,80,120.0
4,2249,C2,398.761,0.25,78,120.0
4,2250,C2,399.012,0.25,79,120.0
4,2251,G#5,399.263,0.454,80,120.0
4,2252,C2,399.263,0.227,78,120.0
4,2253,C3,399.505,0.465,80,120.0
4,2254,A5,399.747,0.237,80,120.0
4,2255,C6,400.004,0.229,85,120.0
4,2256,D2,400.004,0.499,84,120.0
4,2257,A5,400.533,0.228,80,120.0
4,2258,D3,400.533,0.466,80,120.0
4,2259,G#5,400.776,0.237,80,120.0
4,2260,G5,401.029,0.251,80,120.0
4,2261,D2,401.029,0.251,80,120.0
4,2262,F5,401.281,0.226,80,120.0
4,2263,D2,401.281,0.226,80,120.0
4,2264,D5,401.522,0.227,80,120.0
4,2265,D3,401.522,0.227,80,120.0
4,2266,E5,401.765,0.24,80,120.0
4,2267,D2,401.765,0.512,79,120.0
4,2268,F5,402.021,0.468,83,120.0
4,2269,D2,402.277,0.226,79,120.0
4,2270,G5,402.519,0.463,80,120.0
4,2271,D3,402.519,0.227,80,120.0
4,2272,D2,402.761,0.25,79,120.0
4,2273,A5,403.012,0.463,81,120.0
4,2274,D2,403.012,0.25,80,120.0
4,2275,D2,403.263,0.227,79,120.0
4,2276,C6,403.505,0.465,80,120.0
4,2277,D3,403.505,0.465,80,120.0
4,2278,C#6,404.004,0.499,84,120.0
4,2279,C#2,404.004,0.499,84,120.0
4,2280,G#5,404.533,0.195,80,120.0
4,2281,C#3,404.533,0.466,80,120.0
4,2282,G#5,405.029,0.251,80,120.0
4,2283,C#2,405.029,0.251,80,120.0
4,2284,G5,405.281,0.226,80,120.0
4,2285,C#2,405.281,0.226,80,120.0
4,2286,F5,405.522,0.227,80,120.0
4,2287,C#3,405.522,0.227,80,120.0
4,2288,G5,405.765,2.234,80,120.0
4,2289,E-2,405.765,0.512,79,120.0
4,2290,E-2,406.277,0.226,79,120.0
4,2291,E-3,406.519,0.227,80,120.0
4,2292,E-2,406.761,0.25,79,120.0
4,2293,E-2,407.012,0.25,80,120.0
4,2294,E-2,407.263,0.227,79,120.0
4,2295,E-3,407.505,0.465,80,120.0
4,2296,D4,408.004,0.499,84,120.0
4,2297,F4,408.004,0.499,84,120.0
4,2298,B-1,408.004,0.499,84,120.0
4,2299,E4,408.533,0.466,79,120.0
4,2300,G4,408.533,0.466,79,120.0
4,2301,B-2,408.533,0.466,79,120.0
4,2302,B-1,409.029,0.251,79,120.0
4,2303,F4,409.029,0.492,80,120.0
4,2304,A4,409.029,0.492,80,120.0
4,2305,B-1,409.281,0.226,78,120.0
4,2306,B-2,409.522,0.227,80,120.0
4,2307,D5,409.522,0.497,79,120.0
4,2308,F5,409.522,0.497,79,120.0
4,2309,B-1,409.765,0.512,78,120.0
4,2310,C5,410.021,0.99,82,120.0
4,2311,E5,410.021,0.99,82,120.0
4,2312,B-1,410.277,0.226,78,120.0
4,2313,B-2,410.519,0.227,80,120.0
4,2314,B-1,410.761,0.25,78,120.0
4,2315,B-1,411.012,0.25,79,120.0
4,2316,A4,411.012,0.987,80,120.0
4,2317,D5,411.012,0.987,80,120.0
4,2318,B-1,411.263,0.227,78,120.0
4,2319,B-2,411.505,0.465,80,120.0
4,2320,C2,412.004,0.499,83,120.0
4,2321,G4,412.004,1.024,84,120.0
4,2322,E5,412.004,1.024,84,120.0
4,2323,C3,412.533,0.466,80,120.0
4,2324,C2,413.029,0.251,79,120.0
4,2325,A4,413.029,0.99,80,120.0
4,2326,F5,413.029,0.99,80,120.0
4,2327,C2,413.281,0.226,78,120.0
4,2328,C3,413.522,0.227,80,120.0
4,2329,C2,413.765,0.512,78,120.0
4,2330,C5,414.021,0.99,82,120.0
4,2331,G5,414.021,0.99,82,120.0
4,2332,C2,414.277,0.226,78,120.0
4,2333,C3,414.519,0.227,80,120.0
4,2334,C2,414.761,0.25,78,120.0
4,2335,C2,415.012,0.25,79,120.0
4,2336,A4,415.012,0.987,80,120.0
4,2337,E5,415.012,0.987,80,120.0
4,2338,C2,415.263,0.227,78,120.0
4,2339,C3,415.505,0.465,80,120.0
4,2340,D2,416.004,0.499,84,120.0
4,2341,D5,416.004,2.016,84,120.0
4,2342,A5,416.004,2.016,84,120.0
4,2343,D3,416.533,0.466,80,120.0
4,2344,D2,417.029,0.251,80,120.0
4,2345,D2,417.281,0.226,79,120.0
4,2346,D3,417.522,0.227,80,120.0
4,2347,D2,417.765,0.512,79,120.0
4,2348,A5,418.021,0.241,83,120.0
4,2349,G#5,418.277,0.226,80,120.0
4,2350,D2,418.277,0.226,80,120.0
4,2351,G5,418.519,0.227,80,120.0
4,2352,D3,418.519,0.227,80,120.0
4,2353,F#5,418.761,0.25,80,120.0
4,2354,D2,418.761,0.25,80,120.0
4,2355,F5,419.012,0.25,80,120.0
4,2356,D2,419.012,0.25,80,120.0
4,2357,E5,419.263,0.227,80,120.0
4,2358,D2,419.263,0.227,80,120.0
4,2359,E-5,419.505,0.227,80,120.0
4,2360,D3,419.505,0.465,80,120.0
4,2361,D5,419.747,0.237,80,120.0
4,2362,C#2,420.004,0.499,84,120.0
4,2363,G#4,420.004,2.016,84,120.0
4,2364,C#5,420.004,2.016,84,120.0
4,2365,C#3,420.533,0.466,80,120.0
4,2366,C#2,421.029,0.251,80,120.0
4,2367,C#2,421.281,0.226,79,120.0
4,2368,C#3,421.522,0.227,80,120.0
4,2369,E-2,421.765,0.512,79,120.0
4,2370,B-4,422.021,1.979,82,120.0
4,2371,E-5,422.021,1.979,82,120.0
4,2372,E-2,422.277,0.226,79,120.0
4,2373,E-3,422.519,0.227,80,120.0
4,2374,E-2,422.761,0.25,79,120.0
4,2375,E-2,423.012,0.25,80,120.0
4,2376,E-2,423.263,0.227,79,120.0
4,2377,E-3,423.505,0.465,80,120.0
4,2378,B-3,424.004,3.007,64,120.0
4,2379,B-1,424.004,0.528,67,120.0
4,2380,B-1,424.533,0.495,62,120.0
4,2381,B-1,425.029,0.251,63,120.0
4,2382,B-1,425.281,0.482,62,120.0
4,2383,B-1,425.765,0.512,62,120.0
4,2384,B-1,426.277,0.482,62,120.0
4,2385,B-1,426.761,0.25,62,120.0
4,2386,F4,427.012,0.987,65,120.0
4,2387,B-1,427.012,0.25,63,120.0
4,2388,B-1,427.263,0.241,62,120.0
4,2389,B-1,427.505,0.465,62,120.0
4,2390,E4,428.004,2.016,69,120.0
4,2391,C2,428.004,0.528,67,120.0
4,2392,C2,428.533,0.495,62,120.0
4,2393,C2,429.029,0.251,63,120.0
4,2394,C2,429.281,0.482,62,120.0
4,2395,C2,429.765,0.512,62,120.0
4,2396,D4,430.021,1.979,67,120.0
4,2397,C2,430.277,0.482,62,120.0
4,2398,C2,430.761,0.25,62,120.0
4,2399,C2,431.012,0.25,63,120.0
4,2400,C2,431.263,0.241,62,120.0
4,2401,C2,431.505,0.465,62,120.0
4,2402,F4,432.004,3.996,64,120.0
4,2403,B1,432.004,0.528,67,120.0
4,2404,B1,432.533,0.495,62,120.0
4,2405,B1,433.029,0.251,63,120.0
4,2406,B1,433.281,0.482,62,120.0
4,2407,B1,433.765,0.512,62,120.0
4,2408,B1,434.277,0.482,62,120.0
4,2409,B1,434.761,0.25,62,120.0
4,2410,B1,435.012,0.25,63,120.0
4,2411,B1,435.263,0.241,62,120.0
4,2412,B1,435.505,0.494,62,120.0
4,2413,F4,436.0,3.999,64,120.0
4,2414,B1,436.004,0.528,67,120.0
4,2415,B1,436.533,0.495,62,120.0
4,2416,B1,437.029,0.251,63,120.0
4,2417,B1,437.281,0.482,62,120.0
4,2418,B1,437.765,0.512,62,120.0
4,2419,B1,438.277,0.482,62,120.0
4,2420,B1,438.761,0.25,62,120.0
4,2421,B1,439.012,0.25,63,120.0
4,2422,B1,439.263,0.241,62,120.0
4,2423,B1,439.505,0.465,62,120.0
4,2424,B-3,440.004,3.007,64,120.0
4,2425,B-1,440.004,0.528,67,120.0
4,2426,B-1,440.533,0.495,62,120.0
4,2427,B-1,441.029,0.251,63,120.0
4,2428,B-1,441.281,0.482,62,120.0
4,2429,B-1,441.765,0.512,62,120.0
4,2430,B-1,442.277,0.482,62,120.0
4,2431,B-1,442.761,0.25,62,120.0
4,2432,F4,443.012,0.987,65,120.0
4,2433,B-1,443.012,0.25,63,120.0
4,2434,B-1,443.263,0.241,62,120.0
4,2435,B-1,443.505,0.465,62,120.0
4,2436,E4,444.004,2.016,69,120.0
4,2437,C2,444.004,0.528,67,120.0
4,2438,C2,444.533,0.495,62,120.0
4,2439,C2,445.029,0.251,63,120.0
4,2440,C2,445.281,0.482,62,120.0
4,2441,C2,445.765,0.512,62,120.0
4,2442,D4,446.021,1.979,67,120.0
4,2443,C2,446.277,0.482,62,120.0
4,2444,C2,446.761,0.25,62,120.0
4,2445,C2,447.012,0.25,63,120.0
4,2446,C2,447.263,0.241,62,120.0
4,2447,C2,447.505,0.465,62,120.0
4,2448,D4,448.004,3.996,64,120.0
4,2449,D2,448.004,0.528,68,120.0
4,2450,D2,448.533,0.495,63,120.0
4,2451,D2,449.029,0.251,64,120.0
4,2452,D2,449.281,0.482,63,120.0
4,2453,D2,449.765,0.512,63,120.0
4,2454,D2,450.277,0.482,63,120.0
4,2455,D2,450.761,0.25,63,120.0
4,2456,D2,451.012,0.25,64,120.0
4,2457,D2,451.263,0.241,63,120.0
4,2458,D2,451.505,0.494,63,120.0
4,2459,D4,452.0,3.999,64,120.0
4,2460,D2,452.004,0.528,68,120.0
4,2461,D2,452.533,0.495,63,120.0
4,2462,D2,453.029,0.251,64,120.0
4,2463,D2,453.281,0.482,63,120.0
4,2464,D2,453.765,0.512,63,120.0
4,2465,D2,454.277,0.482,63,120.0
4,2466,D2,454.761,0.25,63,120.0
4,2467,D2,455.012,0.25,64,120.0
4,2468,D2,455.263,0.241,63,120.0
4,2469,D2,455.505,0.465,63,120.0
4,2470,B-3,456.004,3.007,64,120.0
4,2471,D3,456.004,0.285,69,120.0
4,2472,B-1,456.004,0.528,67,120.0
4,2473,D3,456.29,0.228,64,120.0
4,2474,D4,456.533,0.195,64,120.0
4,2475,B-1,456.533,0.495,62,120.0
4,2476,A3,457.029,0.251,64,120.0
4,2477,B-1,457.029,0.251,64,120.0
4,2478,B-1,457.281,0.482,62,120.0
4,2479,G#3,457.765,0.24,64,120.0
4,2480,B-1,457.765,0.512,62,120.0
4,2481,G3,458.277,0.183,64,120.0
4,2482,B-1,458.277,0.482,62,120.0
4,2483,F3,458.761,0.486,64,120.0
4,2484,B-1,458.761,0.25,62,120.0
4,2485,F4,459.012,0.987,65,120.0
4,2486,B-1,459.012,0.25,63,120.0
4,2487,D3,459.263,0.241,63,120.0
4,2488,B-1,459.263,0.241,63,120.0
4,2489,F3,459.505,0.227,64,120.0
4,2490,B-1,459.505,0.465,62,120.0
4,2491,G3,459.747,0.237,64,120.0
4,2492,E4,460.004,2.016,69,120.0
4,2493,C3,460.004,0.285,69,120.0
4,2494,C2,460.004,0.528,67,120.0
4,2495,C3,460.29,0.228,64,120.0
4,2496,D4,460.533,0.195,64,120.0
4,2497,C2,460.533,0.495,62,120.0
4,2498,A3,461.029,0.251,64,120.0
4,2499,C2,461.029,0.251,64,120.0
4,2500,C2,461.281,0.482,62,120.0
4,2501,G#3,461.765,0.24,64,120.0
4,2502,C2,461.765,0.512,62,120.0
4,2503,D4,462.021,1.979,67,120.0
4,2504,G3,462.277,0.183,64,120.0
4,2505,C2,462.277,0.482,62,120.0
4,2506,F3,462.761,0.486,64,120.0
4,2507,C2,462.761,0.25,62,120.0
4,2508,C2,463.012,0.25,63,120.0
4,2509,D3,463.263,0.241,63,120.0
4,2510,C2,463.263,0.241,63,120.0
4,2511,F3,463.505,0.227,64,120.0
4,2512,C2,463.505,0.465,62,120.0
4,2513,G3,463.747,0.237,64,120.0
4,2514,F4,464.004,3.996,64,120.0
4,2515,B2,464.004,0.285,69,120.0
4,2516,B1,464.004,0.528,67,120.0
4,2517,B2,464.29,0.228,64,120.0
4,2518,D4,464.533,0.195,64,120.0
4,2519,B1,464.533,0.495,62,120.0
4,2520,A3,465.029,0.251,64,120.0
4,2521,B1,465.029,0.251,64,120.0
4,2522,B1,465.281,0.482,62,120.0
4,2523,G#3,465.765,0.24,64,120.0
4,2524,B1,465.765,0.512,62,120.0
4,2525,G3,466.277,0.183,64,120.0
4,2526,B1,466.277,0.482,62,120.0
4,2527,F3,466.761,0.486,64,120.0
4,2528,B1,466.761,0.25,62,120.0
4,2529,B1,467.012,0.25,63,120.0
4,2530,D3,467.263,0.241,63,120.0
4,2531,B1,467.263,0.241,63,120.0
4,2532,F3,467.505,0.227,64,120.0
4,2533,B1,467.505,0.494,62,120.0
4,2534,G3,467.747,0.237,64,120.0
4,2535,F4,468.0,3.999,64,120.0
4,2536,B2,468.004,0.285,69,120.0
4,2537,B1,468.004,0.528,67,120.0
4,2538,B2,468.29,0.228,64,120.0
4,2539,D4,468.533,0.195,64,120.0
4,2540,B1,468.533,0.495,62,120.0
4,2541,A3,469.029,0.251,64,120.0
4,2542,B1,469.029,0.251,64,120.0
4,2543,B1,469.281,0.482,62,120.0
4,2544,G#3,469.765,0.24,64,120.0
4,2545,B1,469.765,0.512,62,120.0
4,2546,G3,470.277,0.183,64,120.0
4,2547,B1,470.277,0.482,62,120.0
4,2548,F3,470.761,0.486,64,120.0
4,2549,B1,470.761,0.25,62,120.0
4,2550,B1,471.012,0.25,63,120.0
4,2551,D3,471.263,0.241,63,120.0
4,2552,B1,471.263,0.241,63,120.0
4,2553,F3,471.505,0.227,64,120.0
4,2554,B1,471.505,0.465,62,120.0
4,2555,G3,471.747,0.237,64,120.0
4,2556,B-3,472.004,3.007,64,120.0
4,2557,D3,472.004,0.285,64,120.0
4,2558,B-1,472.004,0.528,62,120.0
4,2559,D3,472.29,0.228,65,120.0
4,2560,D4,472.533,0.195,66,120.0
4,2561,B-1,472.533,0.495,64,120.0
4,2562,A3,473.029,0.251,67,120.0
4,2563,B-1,473.029,0.251,67,120.0
4,2564,B-1,473.281,0.482,67,120.0
4,2565,G#3,473.765,0.24,71,120.0
4,2566,B-1,473.765,0.512,69,120.0
4,2567,G3,474.277,0.183,73,120.0
4,2568,B-1,474.277,0.482,71,120.0
4,2569,F3,474.761,0.486,75,120.0
4,2570,B-1,474.761,0.25,73,120.0
4,2571,F4,475.012,0.987,76,120.0
4,2572,B-1,475.012,0.25,74,120.0
4,2573,D3,475.263,0.241,76,120.0
4,2574,B-1,475.263,0.241,76,120.0
4,2575,F3,475.505,0.227,78,120.0
4,2576,B-1,475.505,0.465,76,120.0
4,2577,G3,475.747,0.237,79,120.0
4,2578,E4,476.004,2.016,80,120.0
4,2579,C3,476.004,0.285,80,120.0
4,2580,C2,476.004,0.528,78,120.0
4,2581,C3,476.29,0.228,81,120.0
4,2582,D4,476.533,0.195,82,120.0
4,2583,C2,476.533,0.495,80,120.0
4,2584,A3,477.029,0.251,83,120.0
4,2585,C2,477.029,0.251,83,120.0
4,2586,C2,477.281,0.482,83,120.0
4,2587,G#3,477.765,0.24,87,120.0
4,2588,C2,477.765,0.512,85,120.0
4,2589,D4,478.021,1.979,88,120.0
4,2590,G3,478.277,0.183,89,120.0
4,2591,C2,478.277,0.482,87,120.0
4,2592,F3,478.761,0.486,91,120.0
4,2593,C2,478.761,0.25,89,120.0
4,2594,C2,479.012,0.25,90,120.0
4,2595,D3,479.263,0.241,92,120.0
4,2596,C2,479.263,0.241,92,120.0
4,2597,F3,479.505,0.227,94,120.0
4,2598,C2,479.505,0.465,92,120.0
4,2599,G3,479.747,0.237,95,120.0
4,2600,D2,480.004,0.528,100,120.0
4,2601,D3,480.004,0.285,100,120.0
4,2602,D4,480.004,0.285,100,120.0
4,2603,D3,480.29,0.228,96,120.0
4,2604,D2,480.533,0.495,95,120.0
4,2605,D4,480.533,0.245,119,120.0
4,2606,F4,480.533,0.245,119,120.0
4,2607,D2,481.029,0.251,96,120.0
4,2608,A3,481.029,0.359,120,120.0
4,2609,E4,481.029,0.359,120,120.0
4,2610,D2,481.281,0.482,95,120.0
4,2611,D2,481.765,0.512,95,120.0
4,2612,G#3,481.765,0.255,119,120.0
4,2613,C4,481.765,0.255,119,120.0
4,2614,D2,482.277,0.482,95,120.0
4,2615,G3,482.277,0.232,119,120.0
4,2616,E4,482.277,0.232,119,120.0
4,2617,D2,482.761,0.25,95,120.0
4,2618,F3,482.761,0.501,119,120.0
4,2619,D4,482.761,0.501,119,120.0
4,2620,D2,483.012,0.25,96,120.0
4,2621,D3,483.263,0.241,95,120.0
4,2622,G3,483.263,0.241,95,120.0
4,2623,D2,483.263,0.241,95,120.0
4,2624,D2,483.505,0.494,95,120.0
4,2625,F3,483.505,0.241,95,120.0
4,2626,A3,483.505,0.241,95,120.0
4,2627,G3,483.747,0.252,95,120.0
4,2628,C4,483.747,0.252,95,120.0
4,2629,D3,484.004,0.285,101,120.0
4,2630,D2,484.004,0.528,100,120.0
4,2631,D3,484.29,0.228,96,120.0
4,2632,D2,484.533,0.495,95,120.0
4,2633,D4,484.533,0.245,119,120.0
4,2634,F4,484.533,0.245,119,120.0
4,2635,D2,485.029,0.251,96,120.0
4,2636,A3,485.029,0.359,120,120.0
4,2637,E4,485.029,0.359,120,120.0
4,2638,D2,485.281,0.482,95,120.0
4,2639,D2,485.765,0.512,95,120.0
4,2640,G#3,485.765,0.255,119,120.0
4,2641,C4,485.765,0.255,119,120.0
4,2642,D2,486.277,0.482,95,120.0
4,2643,G3,486.277,0.232,119,120.0
4,2644,E4,486.277,0.232,119,120.0
4,2645,D2,486.761,0.25,95,120.0
4,2646,F3,486.761,0.501,119,120.0
4,2647,D4,486.761,0.501,119,120.0
4,2648,D2,487.012,0.25,96,120.0
4,2649,D3,487.263,0.241,95,120.0
4,2650,G3,487.263,0.241,95,120.0
4,2651,D2,487.263,0.241,95,120.0
4,2652,D2,487.505,0.465,95,120.0
4,2653,F3,487.505,0.241,95,120.0
4,2654,A3,487.505,0.241,95,120.0
4,2655,G3,487.747,0.252,95,120.0
4,2656,C4,487.747,0.252,95,120.0
4,2657,F3,488.004,0.499,68,120.0
4,2658,B-3,488.004,0.499,68,120.0
4,2659,B-1,488.004,0.499,68,120.0
4,2660,F3,488.533,0.466,62,120.0
4,2661,B-3,488.533,0.466,62,120.0
4,2662,B-2,488.533,0.466,62,120.0
4,2663,B-2,489.029,0.251,64,120.0
4,2664,B-1,489.029,0.251,64,120.0
4,2665,B-1,489.281,0.226,62,120.0
4,2666,F3,489.281,0.482,61,120.0
4,2667,B-3,489.281,0.482,61,120.0
4,2668,B-2,489.522,0.227,64,120.0
4,2669,F3,489.765,0.512,61,120.0
4,2670,B-3,489.765,0.512,61,120.0
4,2671,B-1,489.765,0.512,61,120.0
4,2672,B-1,490.277,0.226,62,120.0
4,2673,F3,490.277,0.482,61,120.0
4,2674,B-3,490.277,0.482,61,120.0
4,2675,B-2,490.519,0.227,64,120.0
4,2676,B-2,490.761,0.25,63,120.0
4,2677,B-1,490.761,0.25,63,120.0
4,2678,B-2,491.012,0.25,64,120.0
4,2679,B-1,491.012,0.25,64,120.0
4,2680,B-2,491.263,0.227,63,120.0
4,2681,B-1,491.263,0.227,63,120.0
4,2682,F3,491.505,0.465,63,120.0
4,2683,B-3,491.505,0.465,63,120.0
4,2684,B-2,491.505,0.465,63,120.0
4,2685,G3,492.004,0.499,68,120.0
4,2686,C4,492.004,0.499,68,120.0
4,2687,C2,492.004,0.499,68,120.0
4,2688,G3,492.533,0.466,62,120.0
4,2689,C4,492.533,0.466,62,120.0
4,2690,C3,492.533,0.466,62,120.0
4,2691,C3,493.029,0.251,64,120.0
4,2692,C2,493.029,0.251,64,120.0
4,2693,C2,493.281,0.226,62,120.0
4,2694,G3,493.281,0.482,61,120.0
4,2695,C4,493.281,0.482,61,120.0
4,2696,C3,493.522,0.227,64,120.0
4,2697,G3,493.765,0.512,61,120.0
4,2698,C4,493.765,0.512,61,120.0
4,2699,C2,493.765,0.512,61,120.0
4,2700,C2,494.277,0.226,62,120.0
4,2701,G3,494.277,0.482,61,120.0
4,2702,C4,494.277,0.482,61,120.0
4,2703,C3,494.519,0.227,64,120.0
4,2704,C3,494.761,0.25,63,120.0
4,2705,C2,494.761,0.25,63,120.0
4,2706,C3,495.012,0.25,64,120.0
4,2707,C2,495.012,0.25,64,120.0
4,2708,C3,495.263,0.227,63,120.0
4,2709,C2,495.263,0.227,63,120.0
4,2710,G3,495.505,0.465,63,120.0
4,2711,C4,495.505,0.465,63,120.0
4,2712,C3,495.505,0.465,63,120.0
4,2713,A3,496.004,0.499,68,120.0
4,2714,D4,496.004,0.499,68,120.0
4,2715,D2,496.004,0.499,68,120.0
4,2716,A3,496.533,0.466,62,120.0
4,2717,D4,496.533,0.466,62,120.0
4,2718,D3,496.533,0.466,62,120.0
4,2719,D3,497.029,0.251,64,120.0
4,2720,D2,497.029,0.251,64,120.0
4,2721,D2,497.281,0.226,63,120.0
4,2722,A3,497.281,0.482,63,120.0
4,2723,D4,497.281,0.482,63,120.0
4,2724,D3,497.522,0.227,64,120.0
4,2725,G#3,497.765,0.512,63,120.0
4,2726,C#4,497.765,0.512,63,120.0
4,2727,C#2,497.765,0.512,63,120.0
4,2728,C#2,498.277,0.226,63,120.0
4,2729,G#3,498.277,0.482,61,120.0
4,2730,C#4,498.277,0.482,61,120.0
4,2731,C#3,498.519,0.227,64,120.0
4,2732,C#3,498.761,0.25,64,120.0
4,2733,C#2,498.761,0.25,64,120.0
4,2734,C#3,499.012,0.25,64,120.0
4,2735,C#2,499.012,0.25,64,120.0
4,2736,C#3,499.263,0.227,64,120.0
4,2737,C#2,499.263,0.227,64,120.0
4,2738,G#3,499.505,0.465,63,120.0
4,2739,C#4,499.505,0.465,63,120.0
4,2740,C#3,499.505,0.465,63,120.0
4,2741,G3,500.004,0.499,68,120.0
4,2742,C4,500.004,0.499,68,120.0
4,2743,C2,500.004,0.499,68,120.0
4,2744,G3,500.533,0.466,62,120.0
4,2745,C4,500.533,0.466,62,120.0
4,2746,C3,500.533,0.466,62,120.0
4,2747,C3,501.029,0.251,64,120.0
4,2748,C2,501.029,0.251,64,120.0
4,2749,C2,501.281,0.226,62,120.0
4,2750,G3,501.281,0.482,63,120.0
4,2751,C4,501.281,0.482,63,120.0
4,2752,C3,501.522,0.227,64,120.0
4,2753,F#3,501.765,0.512,63,120.0
4,2754,B3,501.765,0.512,63,120.0
4,2755,B1,501.765,0.512,63,120.0
4,2756,B1,502.277,0.226,62,120.0
4,2757,F#3,502.277,0.482,61,120.0
4,2758,B3,502.277,0.482,61,120.0
4,2759,B2,502.519,0.227,64,120.0
4,2760,B2,502.761,0.25,63,120.0
4,2761,B1,502.761,0.25,63,120.0
4,2762,B2,503.012,0.25,64,120.0
4,2763,B1,503.012,0.25,64,120.0
4,2764,B2,503.263,0.227,63,120.0
4,2765,B1,503.263,0.227,63,120.0
4,2766,F#3,503.505,0.465,63,120.0
4,2767,B3,503.505,0.465,63,120.0
4,2768,B2,503.505,0.465,63,120.0
4,2769,F3,504.004,0.499,68,120.0
4,2770,B-3,504.004,0.499,68,120.0
4,2771,B-1,504.004,0.499,68,120.0
4,2772,F3,504.533,0.466,62,120.0
4,2773,B-3,504.533,0.466,62,120.0
4,2774,B-2,504.533,0.466,62,120.0
4,2775,B-2,505.029,0.251,64,120.0
4,2776,B-1,505.029,0.251,64,120.0
4,2777,B-1,505.281,0.226,62,120.0
4,2778,F3,505.281,0.482,61,120.0
4,2779,B-3,505.281,0.482,61,120.0
4,2780,B-2,505.522,0.227,64,120.0
4,2781,F3,505.765,0.512,61,120.0
4,2782,B-3,505.765,0.512,61,120.0
4,2783,B-1,505.765,0.512,61,120.0
4,2784,B-1,506.277,0.226,62,120.0
4,2785,F3,506.277,0.482,61,120.0
4,2786,B-3,506.277,0.482,61,120.0
4,2787,B-2,506.519,0.227,64,120.0
4,2788,B-2,506.761,0.25,63,120.0
4,2789,B-1,506.761,0.25,63,120.0
4,2790,B-2,507.012,0.25,64,120.0
4,2791,B-1,507.012,0.25,64,120.0
4,2792,B-2,507.263,0.227,63,120.0
4,2793,B-1,507.263,0.227,63,120.0
4,2794,F3,507.505,0.465,63,120.0
4,2795,B-3,507.505,0.465,63,120.0
4,2796,B-2,507.505,0.465,63,120.0
4,2797,G3,508.004,0.499,68,120.0
4,2798,C4,508.004,0.499,68,120.0
4,2799,C2,508.004,0.499,68,120.0
4,2800,G3,508.533,0.466,62,120.0
4,2801,C4,508.533,0.466,62,120.0
4,2802,C3,508.533,0.466,62,120.0
4,2803,C3,509.029,0.251,64,120.0
4,2804,C2,509.029,0.251,64,120.0
4,2805,C2,509.281,0.226,62,120.0
4,2806,G3,509.281,0.482,61,120.0
4,2807,C4,509.281,0.482,61,120.0
4,2808,C3,509.522,0.227,64,120.0
4,2809,G3,509.765,0.512,61,120.0
4,2810,C4,509.765,0.512,61,120.0
4,2811,C2,509.765,0.512,61,120.0
4,2812,C2,510.277,0.226,62,120.0
4,2813,G3,510.277,0.482,61,120.0
4,2814,C4,510.277,0.482,61,120.0
4,2815,C3,510.519,0.227,64,120.0
4,2816,C3,510.761,0.25,63,120.0
4,2817,C2,510.761,0.25,63,120.0
4,2818,C3,511.012,0.25,64,120.0
4,2819,C2,511.012,0.25,64,120.0
4,2820,C3,511.263,0.227,63,120.0
4,2821,C2,511.263,0.227,63,120.0
4,2822,G3,511.505,0.465,63,120.0
4,2823,C4,511.505,0.465,63,120.0
4,2824,C3,511.505,0.465,63,120.0
4,2825,D3,512.004,0.285,69,120.0
4,2826,D4,512.004,0.499,68,120.0
4,2827,D2,512.004,0.499,68,120.0
4,2828,D3,512.29,0.228,64,120.0
4,2829,D4,512.533,0.466,64,120.0
4,2830,D4,512.533,0.466,64,120.0
4,2831,D3,512.533,0.466,64,120.0
4,2832,A3,513.029,0.251,64,120.0
4,2833,D2,513.029,0.251,64,120.0
4,2834,D4,513.281,0.482,64,120.0
4,2835,D2,513.281,0.226,63,120.0
4,2836,D3,513.522,0.227,64,120.0
4,2837,G#3,513.765,0.24,64,120.0
4,2838,D4,513.765,0.512,64,120.0
4,2839,D2,513.765,0.512,64,120.0
4,2840,D4,514.277,0.453,64,120.0
4,2841,G3,514.277,0.226,64,120.0
4,2842,D2,514.277,0.226,64,120.0
4,2843,D3,514.519,0.227,64,120.0
4,2844,F3,514.761,0.486,64,120.0
4,2845,D2,514.761,0.25,63,120.0
4,2846,D2,515.012,0.25,64,120.0
4,2847,D3,515.263,0.227,64,120.0
4,2848,D2,515.263,0.227,64,120.0
4,2849,F3,515.505,0.227,64,120.0
4,2850,D4,515.505,0.465,64,120.0
4,2851,D3,515.505,0.465,64,120.0
4,2852,G3,515.747,0.237,64,120.0
4,2853,D3,516.004,0.285,69,120.0
4,2854,D4,516.004,0.499,68,120.0
4,2855,D2,516.004,0.499,68,120.0
4,2856,D3,516.29,0.228,64,120.0
4,2857,D4,516.533,0.466,64,120.0
4,2858,D4,516.533,0.466,64,120.0
4,2859,D3,516.533,0.466,64,120.0
4,2860,A3,517.029,0.251,64,120.0
4,2861,D2,517.029,0.251,64,120.0
4,2862,D4,517.281,0.482,64,120.0
4,2863,D2,517.281,0.226,63,120.0
4,2864,D3,517.522,0.227,64,120.0
4,2865,G#3,517.765,0.24,64,120.0
4,2866,D4,517.765,0.512,64,120.0
4,2867,D2,517.765,0.512,64,120.0
4,2868,D4,518.277,0.453,64,120.0
4,2869,G3,518.277,0.226,64,120.0
4,2870,D2,518.277,0.226,64,120.0
4,2871,D3,518.519,0.227,64,120.0
4,2872,F3,518.761,0.486,64,120.0
4,2873,D2,518.761,0.25,63,120.0
4,2874,D2,519.012,0.25,64,120.0
4,2875,D3,519.263,0.227,64,120.0
4,2876,D2,519.263,0.227,64,120.0
4,2877,F3,519.505,0.227,64,120.0
4,2878,D4,519.505,0.465,64,120.0
4,2879,D3,519.505,0.465,64,120.0
4,2880,G3,519.747,0.237,64,120.0
4,2881,B-3,520.004,0.285,69,120.0
4,2882,B-3,520.29,0.228,64,120.0
4,2883,D5,520.533,0.195,64,120.0
4,2884,A4,521.029,0.284,65,120.0
4,2885,G#4,521.765,0.24,64,120.0
4,2886,G4,522.277,0.183,64,120.0
4,2887,F4,522.761,0.486,64,120.0
4,2888,D4,523.263,0.227,64,120.0
4,2889,F4,523.505,0.227,64,120.0
4,2890,G4,523.747,0.237,64,120.0
4,2891,C4,524.004,0.285,69,120.0
4,2892,C4,524.29,0.228,64,120.0
4,2893,D5,524.533,0.195,64,120.0
4,2894,A4,525.029,0.284,65,120.0
4,2895,G#4,525.765,0.24,64,120.0
4,2896,G4,526.277,0.183,64,120.0
4,2897,F4,526.761,0.486,64,120.0
4,2898,D4,527.263,0.227,64,120.0
4,2899,F4,527.505,0.227,64,120.0
4,2900,G4,527.747,0.237,64,120.0
4,2901,D4,528.004,0.285,69,120.0
4,2902,D4,528.29,0.228,64,120.0
4,2903,D5,528.533,0.195,64,120.0
4,2904,A4,529.029,0.284,65,120.0
4,2905,G#4,529.765,0.24,64,120.0
4,2906,G4,530.277,0.183,64,120.0
4,2907,F4,530.761,0.486,64,120.0
4,2908,D4,531.263,0.227,64,120.0
4,2909,F4,531.505,0.227,64,120.0
4,2910,G4,531.747,0.237,64,120.0
4,2911,D4,532.004,0.285,69,120.0
4,2912,D4,532.29,0.228,64,120.0
4,2913,D5,532.533,0.195,64,120.0
4,2914,A4,533.029,0.284,65,120.0
4,2915,G#4,533.765,0.24,64,120.0
4,2916,G4,534.277,0.183,64,120.0
4,2917,F4,534.761,0.486,64,120.0
4,2918,D4,535.263,0.227,64,120.0
4,2919,F4,535.505,0.227,64,120.0
4,2920,G4,535.747,0.237,64,120.0
4,2921,B-3,536.004,0.285,69,120.0
4,2922,B-3,536.29,0.228,64,120.0
4,2923,D5,536.533,0.195,64,120.0
4,2924,A4,537.029,0.284,65,120.0
4,2925,G#4,537.765,0.24,64,120.0
4,2926,G4,538.277,0.183,64,120.0
4,2927,F4,538.761,0.486,64,120.0
4,2928,D4,539.263,0.227,64,120.0
4,2929,F4,539.505,0.227,64,120.0
4,2930,G4,539.747,0.237,64,120.0
4,2931,C4,540.004,0.285,57,120.0
4,2932,C4,540.29,0.257,52,120.0
4,2933,D5,540.533,0.195,64,120.0
4,2934,A4,541.029,0.284,65,120.0
4,2935,G#4,541.765,0.24,64,120.0
4,2936,G4,542.277,0.183,64,120.0
4,2937,F4,542.761,0.486,64,120.0
4,2938,D4,543.263,0.227,64,120.0
4,2939,F4,543.505,0.227,64,120.0
4,2940,G4,543.747,0.237,64,120.0
