,note_name,start_time,duration,velocity,tempo
0,F#2,4.0,0.25,127,90.0
1,F#2,5.0,0.25,127,90.0
2,F#2,6.0,0.25,127,90.0
3,F#2,7.0,0.25,127,90.0
4,A3,7.75,0.25,115,90.0
5,B1,7.75,0.25,120,90.0
6,A4,7.75,0.25,120,90.0
7,C#3,7.75,0.25,120,90.0
8,C2,7.75,0.25,127,90.0
9,A4,7.75,0.25,100,90.0
10,A3,7.75,0.25,100,90.0
11,A4,7.75,0.25,100,90.0
12,A3,7.75,0.25,100,90.0
13,A4,7.969,0.031,127,90.0
14,A4,7.969,0.031,127,90.0
15,F#2,7.969,0.031,127,90.0
16,A3,8.0,83/1000,115,90.0
17,B1,8.0,0.25,120,90.0
18,C#3,8.0,0.25,120,90.0
19,A4,8.0,83/1000,100,90.0
20,A3,8.0,83/1000,100,90.0
21,A4,8.0,83/1000,100,90.0
22,A3,8.0,83/1000,100,90.0
23,A4,8.0,0.219,127,90.0
24,A4,8.0,0.219,127,90.0
25,F#2,8.0,0.219,127,90.0
26,A4,8.24,0.25,127,90.0
27,A4,8.49,0.25,127,90.0
28,F#2,8.49,0.25,127,90.0
29,C2,8.49,0.25,127,90.0
30,G#3,8.5,333/1000,115,90.0
31,C#2,8.5,0.5,120,90.0
32,G#4,8.5,0.5,120,90.0
33,C#3,8.5,0.5,120,90.0
34,G#3,8.5,333/1000,100,90.0
35,G#4,8.5,333/1000,100,90.0
36,G#3,8.5,333/1000,100,90.0
37,G#4,8.5,333/1000,100,90.0
38,A4,8.74,0.25,127,90.0
39,A4,8.99,0.25,127,90.0
40,D2,8.99,0.25,127,90.0
41,F#2,8.99,0.25,127,90.0
42,F#3,9.0,0.25,127,90.0
43,F#4,9.0,0.25,127,90.0
44,A4,9.24,0.25,127,90.0
45,A4,9.49,0.25,127,90.0
46,F#2,9.49,0.25,127,90.0
47,G#3,9.523,0.312,127,90.0
48,A4,9.74,0.25,127,90.0
49,C2,9.74,0.25,127,90.0
50,A4,9.99,0.25,127,90.0
51,F#2,9.99,0.25,127,90.0
52,A4,10.24,0.25,127,90.0
53,G#3,10.484,323/1000,127,90.0
54,A4,10.49,0.25,127,90.0
55,C2,10.49,0.25,127,90.0
56,F#2,10.49,0.25,127,90.0
57,A4,10.74,0.25,127,90.0
58,A4,10.99,0.25,127,90.0
59,D2,10.99,0.25,127,90.0
60,F#2,10.99,0.25,127,90.0
61,F#4,11.0,0.25,127,90.0
62,F#3,11.0,0.25,127,90.0
63,A4,11.24,0.25,127,90.0
64,A4,11.49,0.25,127,90.0
65,F#2,11.49,0.25,127,90.0
66,G#3,11.503,0.297,127,90.0
67,A4,11.74,0.25,127,90.0
68,C2,11.74,0.25,127,90.0
69,G#3,11.75,0.25,115,90.0
70,E2,11.75,0.25,120,90.0
71,G#4,11.75,0.25,120,90.0
72,C#3,11.75,0.25,120,90.0
73,G#3,11.75,0.25,100,90.0
74,G#4,11.75,0.25,100,90.0
75,G#3,11.75,0.25,100,90.0
76,G#4,11.75,0.25,100,90.0
77,A4,11.99,1/100,127,90.0
78,F#2,11.99,1/100,127,90.0
79,G#3,12.0,83/1000,115,90.0
80,E2,12.0,0.25,120,90.0
81,C#3,12.0,0.25,120,90.0
82,G#3,12.0,83/1000,100,90.0
83,G#4,12.0,83/1000,100,90.0
84,G#3,12.0,83/1000,100,90.0
85,G#4,12.0,83/1000,100,90.0
86,A4,12.0,6/25,127,90.0
87,F#2,12.0,6/25,127,90.0
88,A4,12.24,0.25,127,90.0
89,G#3,12.487,333/1000,127,90.0
90,A4,12.49,0.25,127,90.0
91,C2,12.49,0.25,127,90.0
92,F#2,12.49,0.25,127,90.0
93,A3,12.5,333/1000,115,90.0
94,E-2,12.5,0.5,120,90.0
95,A4,12.5,0.25,120,90.0
96,C#3,12.5,0.5,120,90.0
97,A3,12.5,333/1000,100,90.0
98,A4,12.5,333/1000,100,90.0
99,A3,12.5,333/1000,100,90.0
100,A4,12.5,333/1000,100,90.0
101,A4,12.74,0.25,127,90.0
102,A4,12.99,0.25,127,90.0
103,D2,12.99,0.25,127,90.0
104,F#2,12.99,0.25,127,90.0
105,F#4,13.0,0.25,127,90.0
106,F#3,13.0,0.25,127,90.0
107,A4,13.24,0.25,127,90.0
108,A4,13.49,0.25,127,90.0
109,F#2,13.49,0.25,127,90.0
110,G#3,13.497,0.312,127,90.0
111,A4,13.74,0.25,127,90.0
112,C2,13.74,0.25,127,90.0
113,F#3,13.75,333/1000,115,90.0
114,F#2,13.75,0.5,120,90.0
115,F#4,13.75,0.25,120,90.0
116,C#3,13.75,0.5,120,90.0
117,F#3,13.75,333/1000,100,90.0
118,F#4,13.75,333/1000,100,90.0
119,F#3,13.75,333/1000,100,90.0
120,F#4,13.75,333/1000,100,90.0
121,A4,13.99,0.25,127,90.0
122,F#2,13.99,0.25,127,90.0
123,A4,14.24,0.25,127,90.0
124,G#3,14.479,181/500,127,90.0
125,A4,14.49,0.25,127,90.0
126,C2,14.49,0.25,127,90.0
127,F#2,14.49,0.25,127,90.0
128,G#3,14.5,333/1000,115,90.0
129,E2,14.5,0.5,120,90.0
130,G#4,14.5,0.25,120,90.0
131,C#3,14.5,0.5,120,90.0
132,G#4,14.5,333/1000,100,90.0
133,G#3,14.5,333/1000,100,90.0
134,G#4,14.5,333/1000,100,90.0
135,G#3,14.5,333/1000,100,90.0
136,A4,14.74,0.25,127,90.0
137,A4,14.99,0.25,127,90.0
138,D2,14.99,0.25,127,90.0
139,F#2,14.99,0.25,127,90.0
140,F#4,15.0,0.25,127,90.0
141,F#3,15.0,0.25,127,90.0
142,A4,15.24,0.25,127,90.0
143,G#3,15.482,0.344,127,90.0
144,A4,15.49,0.25,127,90.0
145,F#2,15.49,0.25,127,90.0
146,A4,15.74,0.25,127,90.0
147,C2,15.74,0.25,127,90.0
148,A3,15.75,0.25,115,90.0
149,B1,15.75,0.25,120,90.0
150,A4,15.75,0.25,120,90.0
151,C#3,15.75,0.25,120,90.0
152,A3,15.75,0.25,100,90.0
153,A4,15.75,0.25,100,90.0
154,A3,15.75,0.25,100,90.0
155,A4,15.75,0.25,100,90.0
156,A4,15.99,1/100,127,90.0
157,F#2,15.99,1/100,127,90.0
158,C#3,16.0,0.453,127,90.0
159,A3,16.0,83/1000,115,90.0
160,B1,16.0,0.25,120,90.0
161,C#3,16.0,0.25,120,90.0
162,A3,16.0,83/1000,100,90.0
163,A4,16.0,83/1000,100,90.0
164,A3,16.0,83/1000,100,90.0
165,A4,16.0,83/1000,100,90.0
166,A4,16.24,6/25,127,90.0
167,F#2,16.24,6/25,127,90.0
168,A4,16.479,0.25,127,90.0
169,G#3,16.5,333/1000,115,90.0
170,C#2,16.5,0.5,120,90.0
171,G#4,16.5,0.25,120,90.0
172,C#3,16.5,0.5,120,90.0
173,G#3,16.5,333/1000,100,90.0
174,G#4,16.5,333/1000,100,90.0
175,G#3,16.5,333/1000,100,90.0
176,G#4,16.5,333/1000,100,90.0
177,G#3,16.513,67/250,127,90.0
178,A4,16.729,0.25,127,90.0
179,C2,16.729,0.25,127,90.0
180,F#2,16.729,0.25,127,90.0
181,A4,16.979,0.25,127,90.0
182,F#4,17.0,0.25,127,90.0
183,F#3,17.0,0.25,127,90.0
184,A4,17.229,0.25,127,90.0
185,D2,17.229,0.25,127,90.0
186,F#2,17.229,0.25,127,90.0
187,G#3,17.273,0.133,127,90.0
188,A4,17.479,0.25,127,90.0
189,A4,17.729,0.25,127,90.0
190,F#2,17.729,0.25,127,90.0
191,G#3,17.773,27/200,127,90.0
192,C#3,17.979,323/1000,127,90.0
193,A4,17.979,0.25,127,90.0
194,C2,17.979,0.25,127,90.0
195,A4,18.229,0.25,127,90.0
196,F#2,18.229,0.25,127,90.0
197,A4,18.479,0.25,127,90.0
198,G#3,18.497,307/1000,127,90.0
199,A4,18.729,0.25,127,90.0
200,C2,18.729,0.25,127,90.0
201,F#2,18.729,0.25,127,90.0
202,A4,18.979,0.25,127,90.0
203,F#4,19.0,0.25,127,90.0
204,F#3,19.0,0.25,127,90.0
205,A4,19.229,0.25,127,90.0
206,D2,19.229,0.25,127,90.0
207,F#2,19.229,0.25,127,90.0
208,G#3,19.255,73/1000,127,90.0
209,G#3,19.471,16/125,127,90.0
210,A4,19.479,0.25,127,90.0
211,G#3,19.729,0.102,127,90.0
212,A4,19.729,0.25,127,90.0
213,F#2,19.729,0.25,127,90.0
214,G#3,19.75,0.25,115,90.0
215,E2,19.75,0.25,120,90.0
216,G#4,19.75,0.25,120,90.0
217,C#3,19.75,0.25,120,90.0
218,G#3,19.75,0.25,100,90.0
219,G#4,19.75,0.25,100,90.0
220,G#3,19.75,0.25,100,90.0
221,G#4,19.75,0.25,100,90.0
222,A4,19.979,0.25,127,90.0
223,C2,19.979,0.25,127,90.0
224,G#3,20.0,83/1000,115,90.0
225,E2,20.0,0.25,120,90.0
226,C#3,20.0,0.25,120,90.0
227,G#3,20.0,83/1000,100,90.0
228,G#4,20.0,83/1000,100,90.0
229,G#3,20.0,83/1000,100,90.0
230,G#4,20.0,83/1000,100,90.0
231,G#3,20.005,159/500,127,90.0
232,A4,20.229,1/100,127,90.0
233,F#2,20.229,1/100,127,90.0
234,A4,20.479,6/25,127,90.0
235,F#2,20.479,6/25,127,90.0
236,A3,20.5,333/1000,115,90.0
237,E-2,20.5,0.5,120,90.0
238,A4,20.5,0.25,120,90.0
239,C#3,20.5,0.5,120,90.0
240,A3,20.5,333/1000,100,90.0
241,A4,20.5,333/1000,100,90.0
242,A3,20.5,333/1000,100,90.0
243,A4,20.5,333/1000,100,90.0
244,G#3,20.513,0.133,127,90.0
245,A4,20.719,0.25,127,90.0
246,G#3,20.789,253/1000,127,90.0
247,A4,20.969,0.25,127,90.0
248,C2,20.969,0.25,127,90.0
249,F#2,20.969,0.25,127,90.0
250,F#4,21.0,0.25,127,90.0
251,F#3,21.0,0.25,127,90.0
252,A4,21.219,0.25,127,90.0
253,G#3,21.312,177/1000,127,90.0
254,A4,21.469,0.25,127,90.0
255,D2,21.469,0.25,127,90.0
256,F#2,21.469,0.25,127,90.0
257,A4,21.719,0.25,127,90.0
258,F#3,21.75,333/1000,115,90.0
259,F#2,21.75,0.5,120,90.0
260,F#4,21.75,0.25,120,90.0
261,F#4,21.75,333/1000,100,90.0
262,F#3,21.75,333/1000,100,90.0
263,F#4,21.75,333/1000,100,90.0
264,F#3,21.75,333/1000,100,90.0
265,G#3,21.773,201/1000,127,90.0
266,A4,21.969,0.25,127,90.0
267,F#2,21.969,0.25,127,90.0
268,C#3,22.008,0.352,127,90.0
269,A4,22.219,0.25,127,90.0
270,C2,22.219,0.25,127,90.0
271,A4,22.469,0.25,127,90.0
272,F#2,22.469,0.25,127,90.0
273,G#3,22.482,91/1000,127,90.0
274,G#3,22.5,333/1000,115,90.0
275,E2,22.5,0.5,120,90.0
276,G#4,22.5,0.25,120,90.0
277,G#4,22.5,333/1000,100,90.0
278,G#3,22.5,333/1000,100,90.0
279,G#4,22.5,333/1000,100,90.0
280,G#3,22.5,333/1000,100,90.0
281,A4,22.719,0.25,127,90.0
282,G#3,22.724,0.094,127,90.0
283,A4,22.969,0.25,127,90.0
284,C2,22.969,0.25,127,90.0
285,F#2,22.969,0.25,127,90.0
286,G#3,22.987,107/1000,127,90.0
287,F#4,23.0,0.25,127,90.0
288,F#3,23.0,0.25,127,90.0
289,A4,23.219,0.25,127,90.0
290,G#3,23.247,0.102,127,90.0
291,A4,23.469,0.25,127,90.0
292,D2,23.469,0.25,127,90.0
293,F#2,23.469,0.25,127,90.0
294,G#3,23.516,107/1000,127,90.0
295,A4,23.719,0.25,127,90.0
296,A3,23.75,0.25,115,90.0
297,B1,23.75,0.25,120,90.0
298,A4,23.75,0.25,120,90.0
299,C#3,23.75,0.25,120,90.0
300,A3,23.75,0.25,100,90.0
301,A4,23.75,0.25,100,90.0
302,A3,23.75,0.25,100,90.0
303,A4,23.75,0.25,100,90.0
304,G#3,23.763,0.094,127,90.0
305,A4,23.969,0.25,127,90.0
306,F#2,23.969,0.25,127,90.0
307,A3,24.0,83/1000,115,90.0
308,B1,24.0,0.25,120,90.0
309,A4,24.0,0.25,120,90.0
310,C#3,24.0,0.25,120,90.0
311,A3,24.0,83/1000,100,90.0
312,A4,24.0,83/1000,100,90.0
313,A3,24.0,83/1000,100,90.0
314,A4,24.0,83/1000,100,90.0
315,G#3,24.008,339/1000,127,90.0
316,A4,24.219,0.25,127,90.0
317,C2,24.219,0.25,127,90.0
318,A4,24.469,1/100,127,90.0
319,F#2,24.469,1/100,127,90.0
320,G#3,24.5,333/1000,115,90.0
321,C#2,24.5,0.5,120,90.0
322,G#4,24.5,0.25,120,90.0
323,C#3,24.5,0.5,120,90.0
324,G#3,24.5,333/1000,100,90.0
325,G#4,24.5,333/1000,100,90.0
326,G#3,24.5,333/1000,100,90.0
327,G#4,24.5,333/1000,100,90.0
328,G#3,24.513,0.109,127,90.0
329,A4,24.719,6/25,127,90.0
330,F#2,24.719,6/25,127,90.0
331,G#3,24.779,0.219,127,90.0
332,A4,24.958,0.25,127,90.0
333,F#4,25.0,0.25,127,90.0
334,F#3,25.0,0.25,127,90.0
335,A4,25.208,0.25,127,90.0
336,C2,25.208,0.25,127,90.0
337,F#2,25.208,0.25,127,90.0
338,G#3,25.305,73/500,127,90.0
339,A4,25.458,0.25,127,90.0
340,A4,25.708,0.25,127,90.0
341,D2,25.708,0.25,127,90.0
342,F#2,25.708,0.25,127,90.0
343,G#3,25.737,19/100,127,90.0
344,A4,25.958,0.25,127,90.0
345,C#3,25.966,0.297,127,90.0
346,A4,26.208,0.25,127,90.0
347,F#2,26.208,0.25,127,90.0
348,A4,26.458,0.25,127,90.0
349,C2,26.458,0.25,127,90.0
350,G#3,26.466,67/250,127,90.0
351,A4,26.708,0.25,127,90.0
352,F#2,26.708,0.25,127,90.0
353,A4,26.958,0.25,127,90.0
354,F#3,27.0,0.25,127,90.0
355,F#4,27.0,0.25,127,90.0
356,A4,27.208,0.25,127,90.0
357,C2,27.208,0.25,127,90.0
358,F#2,27.208,0.25,127,90.0
359,G#3,27.232,91/1000,127,90.0
360,A4,27.458,0.25,127,90.0
361,G#3,27.495,91/1000,127,90.0
362,A4,27.708,0.25,127,90.0
363,D2,27.708,0.25,127,90.0
364,F#2,27.708,0.25,127,90.0
365,G#3,27.75,0.25,115,90.0
366,E2,27.75,0.25,120,90.0
367,G#4,27.75,0.25,120,90.0
368,C#3,27.75,0.25,120,90.0
369,G#3,27.75,0.25,100,90.0
370,G#4,27.75,0.25,100,90.0
371,G#3,27.75,0.25,100,90.0
372,G#4,27.75,0.25,100,90.0
373,G#3,27.76,0.164,127,90.0
374,A4,27.958,0.25,127,90.0
375,G#3,28.0,83/1000,115,90.0
376,E2,28.0,0.25,120,90.0
377,C#3,28.0,0.25,120,90.0
378,G#3,28.0,83/1000,100,90.0
379,G#4,28.0,83/1000,100,90.0
380,G#3,28.0,83/1000,100,90.0
381,G#4,28.0,83/1000,100,90.0
382,C#3,28.003,0.211,127,90.0
383,A4,28.208,0.25,127,90.0
384,F#2,28.208,0.25,127,90.0
385,G#3,28.25,143/1000,127,90.0
386,A4,28.458,0.25,127,90.0
387,C2,28.458,0.25,127,90.0
388,A3,28.5,333/1000,115,90.0
389,E-2,28.5,0.5,120,90.0
390,A4,28.5,0.25,120,90.0
391,C#3,28.5,0.5,120,90.0
392,A3,28.5,333/1000,100,90.0
393,A4,28.5,333/1000,100,90.0
394,A3,28.5,333/1000,100,90.0
395,A4,28.5,333/1000,100,90.0
396,G#3,28.513,0.102,127,90.0
397,A4,28.708,1/100,127,90.0
398,F#2,28.708,1/100,127,90.0
399,G#3,28.732,14/125,127,90.0
400,A4,28.958,6/25,127,90.0
401,F#2,28.958,6/25,127,90.0
402,F#4,29.0,0.25,127,90.0
403,F#3,29.0,0.25,127,90.0
404,G#3,29.008,107/1000,127,90.0
405,A4,29.198,0.25,127,90.0
406,G#3,29.253,99/1000,127,90.0
407,A4,29.448,0.25,127,90.0
408,C2,29.448,0.25,127,90.0
409,F#2,29.448,0.25,127,90.0
410,G#3,29.51,107/1000,127,90.0
411,A4,29.698,0.25,127,90.0
412,F#3,29.75,333/1000,115,90.0
413,F#2,29.75,0.5,120,90.0
414,F#4,29.75,0.25,120,90.0
415,C#3,29.75,0.5,120,90.0
416,F#4,29.75,333/1000,100,90.0
417,F#3,29.75,333/1000,100,90.0
418,F#4,29.75,333/1000,100,90.0
419,F#3,29.75,333/1000,100,90.0
420,G#3,29.776,99/1000,127,90.0
421,A4,29.948,0.25,127,90.0
422,D2,29.948,0.25,127,90.0
423,F#2,29.948,0.25,127,90.0
424,G#3,30.021,0.242,127,90.0
425,A4,30.198,0.25,127,90.0
426,A4,30.448,0.25,127,90.0
427,F#2,30.448,0.25,127,90.0
428,G#3,30.5,333/1000,115,90.0
429,E2,30.5,0.5,120,90.0
430,G#4,30.5,0.25,120,90.0
431,C#3,30.5,0.5,120,90.0
432,G#3,30.5,333/1000,100,90.0
433,G#4,30.5,333/1000,100,90.0
434,G#3,30.5,333/1000,100,90.0
435,G#4,30.5,333/1000,100,90.0
436,G#3,30.523,0.289,127,90.0
437,A4,30.698,0.25,127,90.0
438,C2,30.698,0.25,127,90.0
439,A4,30.948,0.25,127,90.0
440,F#2,30.948,0.25,127,90.0
441,F#4,31.0,0.25,127,90.0
442,F#3,31.0,0.25,127,90.0
443,G#3,31.034,13/125,127,90.0
444,A4,31.198,0.25,127,90.0
445,G#3,31.268,13/125,127,90.0
446,A4,31.448,0.25,127,90.0
447,C2,31.448,0.25,127,90.0
448,F#2,31.448,0.25,127,90.0
449,G#3,31.516,14/125,127,90.0
450,A4,31.698,0.25,127,90.0
451,G#3,31.747,12/125,127,90.0
452,A3,31.75,0.25,115,90.0
453,B1,31.75,0.25,120,90.0
454,A4,31.75,0.25,120,90.0
455,C#3,31.75,0.25,120,90.0
456,C#5,31.75,0.25,100,90.0
457,A5,31.75,0.25,100,90.0
458,A3,31.75,0.25,100,90.0
459,A4,31.75,0.25,100,90.0
460,A3,31.75,0.25,100,90.0
461,A4,31.75,0.25,100,90.0
462,A4,31.948,0.25,127,90.0
463,D2,31.948,0.25,127,90.0
464,F#2,31.948,0.25,127,90.0
465,A3,32.0,83/1000,115,90.0
466,B1,32.0,0.25,120,90.0
467,C#3,32.0,0.25,120,90.0
468,C#5,32.0,83/1000,100,90.0
469,A5,32.0,83/1000,100,90.0
470,A3,32.0,83/1000,100,90.0
471,A4,32.0,83/1000,100,90.0
472,A3,32.0,83/1000,100,90.0
473,A4,32.0,83/1000,100,90.0
474,G#3,32.005,0.383,127,90.0
475,A4,32.198,0.25,127,90.0
476,C#3,32.25,0.25,120,90.0
477,A4,32.448,0.25,127,90.0
478,F#2,32.448,0.25,127,90.0
479,G#3,32.5,333/1000,115,90.0
480,C#2,32.5,0.5,120,90.0
481,G#4,32.5,0.25,120,90.0
482,C#3,32.5,0.25,120,90.0
483,C#5,32.5,333/1000,100,90.0
484,G#5,32.5,333/1000,100,90.0
485,G#3,32.5,333/1000,100,90.0
486,G#4,32.5,333/1000,100,90.0
487,G#3,32.5,333/1000,100,90.0
488,G#4,32.5,333/1000,100,90.0
489,A4,32.698,0.25,127,90.0
490,C2,32.698,0.25,127,90.0
491,C#3,32.75,0.25,120,90.0
492,A4,32.948,1/100,127,90.0
493,F#2,32.948,1/100,127,90.0
494,C#3,33.0,0.25,120,90.0
495,F#4,33.0,0.25,127,90.0
496,F#3,33.0,0.25,127,90.0
497,G#3,33.018,107/1000,127,90.0
498,A4,33.198,6/25,127,90.0
499,F#2,33.198,6/25,127,90.0
500,C#3,33.25,0.25,120,90.0
501,G#3,33.263,13/125,127,90.0
502,A4,33.438,0.25,127,90.0
503,C#3,33.5,0.25,120,90.0
504,G#3,33.508,91/1000,127,90.0
505,A4,33.688,0.25,127,90.0
506,C2,33.688,0.25,127,90.0
507,F#2,33.688,0.25,127,90.0
508,G#3,33.742,99/1000,127,90.0
509,C#3,33.75,0.25,120,90.0
510,A4,33.938,0.25,127,90.0
511,C#3,34.0,0.25,120,90.0
512,G#3,34.029,299/1000,127,90.0
513,A4,34.188,0.25,127,90.0
514,D2,34.188,0.25,127,90.0
515,F#2,34.188,0.25,127,90.0
516,C#3,34.25,0.25,120,90.0
517,A4,34.438,0.25,127,90.0
518,C#3,34.5,0.25,120,90.0
519,G#3,34.518,14/125,127,90.0
520,A4,34.688,0.25,127,90.0
521,F#2,34.688,0.25,127,90.0
522,C#3,34.75,0.25,120,90.0
523,G#3,34.771,323/1000,127,90.0
524,A4,34.938,0.25,127,90.0
525,C2,34.938,0.25,127,90.0
526,C#3,35.0,0.25,120,90.0
527,F#4,35.0,0.25,127,90.0
528,F#3,35.0,0.25,127,90.0
529,A4,35.188,0.25,127,90.0
530,F#2,35.188,0.25,127,90.0
531,C#3,35.25,0.25,120,90.0
532,G#3,35.253,27/200,127,90.0
533,A4,35.438,0.25,127,90.0
534,C#3,35.5,0.25,120,90.0
535,G#3,35.516,107/1000,127,90.0
536,A4,35.688,0.25,127,90.0
537,C2,35.688,0.25,127,90.0
538,F#2,35.688,0.25,127,90.0
539,G#3,35.75,0.25,115,90.0
540,E2,35.75,0.25,120,90.0
541,G#4,35.75,0.25,120,90.0
542,C#3,35.75,0.25,120,90.0
543,C#5,35.75,0.25,100,90.0
544,G#5,35.75,0.25,100,90.0
545,G#3,35.75,0.25,100,90.0
546,G#4,35.75,0.25,100,90.0
547,G#3,35.75,0.25,100,90.0
548,G#4,35.75,0.25,100,90.0
549,G#3,35.763,0.094,127,90.0
550,A4,35.938,0.25,127,90.0
551,G#3,36.0,83/1000,115,90.0
552,E2,36.0,0.25,120,90.0
553,G#4,36.0,0.25,120,90.0
554,C#3,36.0,0.25,120,90.0
555,C#5,36.0,83/1000,100,90.0
556,G#5,36.0,83/1000,100,90.0
557,G#3,36.0,83/1000,100,90.0
558,G#4,36.0,83/1000,100,90.0
559,G#3,36.0,83/1000,100,90.0
560,G#4,36.0,83/1000,100,90.0
561,G#3,36.023,163/500,127,90.0
562,A4,36.188,0.25,127,90.0
563,D2,36.188,0.25,127,90.0
564,F#2,36.188,0.25,127,90.0
565,C#3,36.25,0.25,120,90.0
566,A4,36.438,0.25,127,90.0
567,A3,36.5,333/1000,115,90.0
568,E-2,36.5,0.5,120,90.0
569,A4,36.5,0.5,120,90.0
570,C#3,36.5,0.25,120,90.0
571,C#5,36.5,333/1000,100,90.0
572,A5,36.5,333/1000,100,90.0
573,A4,36.5,333/1000,100,90.0
574,A3,36.5,333/1000,100,90.0
575,A4,36.5,333/1000,100,90.0
576,A3,36.5,333/1000,100,90.0
577,G#3,36.534,0.102,127,90.0
578,A4,36.688,0.25,127,90.0
579,F#2,36.688,0.25,127,90.0
580,C#3,36.75,0.25,120,90.0
581,G#3,36.789,151/500,127,90.0
582,A4,36.938,0.25,127,90.0
583,C2,36.938,0.25,127,90.0
584,C#3,37.0,0.25,120,90.0
585,F#4,37.0,0.25,127,90.0
586,F#3,37.0,0.25,127,90.0
587,A4,37.188,1/100,127,90.0
588,F#2,37.188,1/100,127,90.0
589,C#3,37.25,0.25,120,90.0
590,G#3,37.268,99/1000,127,90.0
591,A4,37.438,6/25,127,90.0
592,F#2,37.438,6/25,127,90.0
593,C#3,37.5,0.25,120,90.0
594,G#3,37.542,83/1000,127,90.0
595,A4,37.677,0.25,127,90.0
596,F#3,37.75,333/1000,115,90.0
597,F#2,37.75,0.5,120,90.0
598,F#4,37.75,0.5,120,90.0
599,C#3,37.75,0.25,120,90.0
600,C#5,37.75,333/1000,100,90.0
601,F#5,37.75,333/1000,100,90.0
602,F#4,37.75,333/1000,100,90.0
603,F#3,37.75,333/1000,100,90.0
604,F#4,37.75,333/1000,100,90.0
605,F#3,37.75,333/1000,100,90.0
606,G#3,37.779,0.094,127,90.0
607,A4,37.927,0.25,127,90.0
608,C2,37.927,0.25,127,90.0
609,F#2,37.927,0.25,127,90.0
610,C#3,38.0,0.25,120,90.0
611,G#3,38.034,189/500,127,90.0
612,A4,38.177,0.25,127,90.0
613,C#3,38.25,0.25,120,90.0
614,A4,38.427,0.25,127,90.0
615,D2,38.427,0.25,127,90.0
616,F#2,38.427,0.25,127,90.0
617,G#3,38.5,333/1000,115,90.0
618,E2,38.5,0.5,120,90.0
619,G#4,38.5,0.5,120,90.0
620,C#3,38.5,0.25,120,90.0
621,C#5,38.5,333/1000,100,90.0
622,G#5,38.5,333/1000,100,90.0
623,G#3,38.5,333/1000,100,90.0
624,G#4,38.5,333/1000,100,90.0
625,G#3,38.5,333/1000,100,90.0
626,G#4,38.5,333/1000,100,90.0
627,A4,38.677,0.25,127,90.0
628,G#3,38.729,99/1000,127,90.0
629,C#3,38.75,0.25,120,90.0
630,A4,38.927,0.25,127,90.0
631,F#2,38.927,0.25,127,90.0
632,C#3,39.0,0.25,120,90.0
633,F#4,39.0,0.25,127,90.0
634,F#3,39.0,0.25,127,90.0
635,G#3,39.008,13/125,127,90.0
636,A4,39.177,0.25,127,90.0
637,C2,39.177,0.25,127,90.0
638,G#3,39.25,0.102,127,90.0
639,C#3,39.25,0.25,120,90.0
640,A4,39.427,0.25,127,90.0
641,F#2,39.427,0.25,127,90.0
642,C#3,39.5,0.25,120,90.0
643,G#3,39.508,0.102,127,90.0
644,A4,39.677,0.25,127,90.0
645,A3,39.75,0.25,115,90.0
646,B1,39.75,0.25,120,90.0
647,A4,39.75,0.25,120,90.0
648,C#3,39.75,0.25,120,90.0
649,C#5,39.75,0.25,100,90.0
650,A5,39.75,0.25,100,90.0
651,A3,39.75,0.25,100,90.0
652,A4,39.75,0.25,100,90.0
653,A3,39.75,0.25,100,90.0
654,A4,39.75,0.25,100,90.0
655,G#3,39.76,0.086,127,90.0
656,A4,39.927,0.25,127,90.0
657,C2,39.927,0.25,127,90.0
658,F#2,39.927,0.25,127,90.0
659,A3,40.0,83/1000,115,90.0
660,B1,40.0,0.25,120,90.0
661,A4,40.0,0.25,120,90.0
662,C#3,40.0,0.25,120,90.0
663,C#5,40.0,83/1000,100,90.0
664,A5,40.0,83/1000,100,90.0
665,A3,40.0,83/1000,100,90.0
666,A4,40.0,83/1000,100,90.0
667,A3,40.0,83/1000,100,90.0
668,A4,40.0,83/1000,100,90.0
669,G#3,40.021,0.195,127,90.0
670,A4,40.177,0.25,127,90.0
671,C#3,40.25,0.25,120,90.0
672,A4,40.427,0.25,127,90.0
673,D2,40.427,0.25,127,90.0
674,F#2,40.427,0.25,127,90.0
675,G#3,40.482,83/1000,127,90.0
676,G#3,40.5,333/1000,115,90.0
677,C#2,40.5,0.5,120,90.0
678,G#4,40.5,0.5,120,90.0
679,C#3,40.5,0.25,120,90.0
680,C#5,40.5,333/1000,100,90.0
681,G#5,40.5,333/1000,100,90.0
682,G#3,40.5,333/1000,100,90.0
683,G#4,40.5,333/1000,100,90.0
684,G#3,40.5,333/1000,100,90.0
685,G#4,40.5,333/1000,100,90.0
686,A4,40.677,0.25,127,90.0
687,G#3,40.732,0.102,127,90.0
688,C#3,40.75,0.25,120,90.0
689,A4,40.927,0.25,127,90.0
690,F#2,40.927,0.25,127,90.0
691,G#3,40.995,3/25,127,90.0
692,C#3,41.0,0.25,120,90.0
693,F#4,41.0,0.25,127,90.0
694,F#3,41.0,0.25,127,90.0
695,A4,41.177,0.25,127,90.0
696,C2,41.177,0.25,127,90.0
697,G#3,41.25,99/1000,127,90.0
698,C#3,41.25,0.25,120,90.0
699,A4,41.427,1/100,127,90.0
700,F#2,41.427,1/100,127,90.0
701,G#3,41.5,99/1000,127,90.0
702,C#3,41.5,0.25,120,90.0
703,A4,41.677,6/25,127,90.0
704,F#2,41.677,6/25,127,90.0
705,C#3,41.75,0.25,120,90.0
706,G#3,41.76,0.109,127,90.0
707,A4,41.917,0.25,127,90.0
708,C#3,42.0,0.25,120,90.0
709,G#3,42.031,159/500,127,90.0
710,A4,42.167,0.25,127,90.0
711,C2,42.167,0.25,127,90.0
712,F#2,42.167,0.25,127,90.0
713,C#3,42.25,0.25,120,90.0
714,A4,42.417,0.25,127,90.0
715,C#3,42.5,0.25,120,90.0
716,G#3,42.505,0.125,127,90.0
717,A4,42.667,0.25,127,90.0
718,D2,42.667,0.25,127,90.0
719,F#2,42.667,0.25,127,90.0
720,C#3,42.75,0.25,120,90.0
721,G#3,42.781,71/250,127,90.0
722,A4,42.917,0.25,127,90.0
723,C#3,43.0,0.25,120,90.0
724,F#4,43.0,0.25,127,90.0
725,F#3,43.0,0.25,127,90.0
726,A4,43.167,0.25,127,90.0
727,F#2,43.167,0.25,127,90.0
728,G#3,43.227,99/1000,127,90.0
729,C#3,43.25,0.25,120,90.0
730,A4,43.417,0.25,127,90.0
731,C2,43.417,0.25,127,90.0
732,G#3,43.5,99/1000,127,90.0
733,C#3,43.5,0.25,120,90.0
734,A4,43.667,0.25,127,90.0
735,F#2,43.667,0.25,127,90.0
736,G#3,43.75,0.25,115,90.0
737,E2,43.75,0.25,120,90.0
738,G#4,43.75,0.25,120,90.0
739,C#3,43.75,0.25,120,90.0
740,C#5,43.75,0.25,100,90.0
741,G#5,43.75,0.25,100,90.0
742,G#3,43.75,0.25,100,90.0
743,G#4,43.75,0.25,100,90.0
744,G#3,43.75,0.25,100,90.0
745,G#4,43.75,0.25,100,90.0
746,G#3,43.753,0.094,127,90.0
747,A4,43.917,0.25,127,90.0
748,G#3,44.0,83/1000,115,90.0
749,E2,44.0,0.25,120,90.0
750,G#4,44.0,0.25,120,90.0
751,C#3,44.0,0.25,120,90.0
752,C#5,44.0,83/1000,100,90.0
753,G#5,44.0,83/1000,100,90.0
754,G#3,44.0,83/1000,100,90.0
755,G#4,44.0,83/1000,100,90.0
756,G#3,44.0,83/1000,100,90.0
757,G#4,44.0,83/1000,100,90.0
758,G#3,44.013,163/500,127,90.0
759,A4,44.167,0.25,127,90.0
760,C2,44.167,0.25,127,90.0
761,F#2,44.167,0.25,127,90.0
762,C#3,44.25,0.25,120,90.0
763,A4,44.417,0.25,127,90.0
764,A3,44.5,333/1000,115,90.0
765,E-2,44.5,0.5,120,90.0
766,A4,44.5,0.5,120,90.0
767,C#3,44.5,0.25,120,90.0
768,C#5,44.5,333/1000,100,90.0
769,A5,44.5,333/1000,100,90.0
770,A4,44.5,333/1000,100,90.0
771,A3,44.5,333/1000,100,90.0
772,A4,44.5,333/1000,100,90.0
773,A3,44.5,333/1000,100,90.0
774,G#3,44.518,91/1000,127,90.0
775,A4,44.667,0.25,127,90.0
776,D2,44.667,0.25,127,90.0
777,F#2,44.667,0.25,127,90.0
778,C#3,44.75,0.25,120,90.0
779,G#3,44.781,307/1000,127,90.0
780,A4,44.917,0.25,127,90.0
781,C#3,45.0,0.25,120,90.0
782,F#3,45.0,0.25,127,90.0
783,F#4,45.0,0.25,127,90.0
784,A4,45.167,0.25,127,90.0
785,F#2,45.167,0.25,127,90.0
786,C#3,45.25,0.25,120,90.0
787,G#3,45.297,107/1000,127,90.0
788,A4,45.417,0.25,127,90.0
789,C2,45.417,0.25,127,90.0
790,C#3,45.5,0.25,120,90.0
791,G#3,45.542,107/1000,127,90.0
792,A4,45.667,1/100,127,90.0
793,F#2,45.667,1/100,127,90.0
794,F#3,45.75,333/1000,115,90.0
795,F#2,45.75,0.5,120,90.0
796,F#4,45.75,0.5,120,90.0
797,C#3,45.75,0.25,120,90.0
798,C#5,45.75,333/1000,100,90.0
799,F#5,45.75,333/1000,100,90.0
800,F#3,45.75,333/1000,100,90.0
801,F#4,45.75,333/1000,100,90.0
802,F#3,45.75,333/1000,100,90.0
803,F#4,45.75,333/1000,100,90.0
804,G#3,45.781,12/125,127,90.0
805,A4,45.917,6/25,127,90.0
806,F#2,45.917,6/25,127,90.0
807,C#3,46.0,0.25,120,90.0
808,G#3,46.021,0.297,127,90.0
809,A4,46.156,0.25,127,90.0
810,C#3,46.25,0.25,120,90.0
811,A4,46.406,0.25,127,90.0
812,C2,46.406,0.25,127,90.0
813,F#2,46.406,0.25,127,90.0
814,G#3,46.5,333/1000,115,90.0
815,E2,46.5,0.5,120,90.0
816,G#4,46.5,0.5,120,90.0
817,C#3,46.5,0.25,120,90.0
818,C#5,46.5,333/1000,100,90.0
819,G#5,46.5,333/1000,100,90.0
820,G#3,46.5,333/1000,100,90.0
821,G#4,46.5,333/1000,100,90.0
822,G#3,46.5,333/1000,100,90.0
823,G#4,46.5,333/1000,100,90.0
824,A4,46.656,0.25,127,90.0
825,C#3,46.75,0.25,120,90.0
826,G#3,46.773,12/125,127,90.0
827,A4,46.906,0.25,127,90.0
828,D2,46.906,0.25,127,90.0
829,F#2,46.906,0.25,127,90.0
830,C#3,47.0,0.25,120,90.0
831,F#3,47.0,0.25,127,90.0
832,F#4,47.0,0.25,127,90.0
833,G#3,47.021,14/125,127,90.0
834,A4,47.156,0.25,127,90.0
835,C#3,47.25,0.25,120,90.0
836,G#3,47.271,107/1000,127,90.0
837,A4,47.406,0.25,127,90.0
838,F#2,47.406,0.25,127,90.0
839,C#3,47.5,0.25,120,90.0
840,G#3,47.523,13/125,127,90.0
841,A4,47.656,0.25,127,90.0
842,C2,47.656,0.25,127,90.0
843,A3,47.75,0.25,115,90.0
844,B1,47.75,0.25,120,90.0
845,A4,47.75,0.25,120,90.0
846,C#3,47.75,0.25,120,90.0
847,C#5,47.75,0.25,100,90.0
848,A5,47.75,0.25,100,90.0
849,A3,47.75,0.25,100,90.0
850,A4,47.75,0.25,100,90.0
851,A3,47.75,0.25,100,90.0
852,A4,47.75,0.25,100,90.0
853,G#3,47.773,0.102,127,90.0
854,A4,47.906,0.25,127,90.0
855,F#2,47.906,0.25,127,90.0
856,A3,48.0,83/1000,115,90.0
857,B1,48.0,0.25,120,90.0
858,A4,48.0,0.25,120,90.0
859,C#3,48.0,0.25,120,90.0
860,C#5,48.0,83/1000,100,90.0
861,A5,48.0,83/1000,100,90.0
862,A3,48.0,83/1000,100,90.0
863,A4,48.0,83/1000,100,90.0
864,A3,48.0,83/1000,100,90.0
865,A4,48.0,83/1000,100,90.0
866,G#3,48.029,159/500,127,90.0
867,A4,48.156,0.25,127,90.0
868,C#3,48.25,0.25,120,90.0
869,A4,48.406,0.25,127,90.0
870,C2,48.406,0.25,127,90.0
871,F#2,48.406,0.25,127,90.0
872,G#3,48.5,333/1000,115,90.0
873,C#2,48.5,0.5,120,90.0
874,G#4,48.5,0.5,120,90.0
875,C#3,48.5,0.25,120,90.0
876,C#5,48.5,333/1000,100,90.0
877,G#5,48.5,333/1000,100,90.0
878,G#3,48.5,333/1000,100,90.0
879,G#4,48.5,333/1000,100,90.0
880,G#3,48.5,333/1000,100,90.0
881,G#4,48.5,333/1000,100,90.0
882,A4,48.656,0.25,127,90.0
883,C#3,48.75,0.25,120,90.0
884,A4,48.906,0.25,127,90.0
885,D2,48.906,0.25,127,90.0
886,F#2,48.906,0.25,127,90.0
887,G#3,48.969,99/1000,127,90.0
888,C#3,49.0,0.25,120,90.0
889,F#4,49.0,0.25,127,90.0
890,F#3,49.0,0.25,127,90.0
891,A4,49.156,0.25,127,90.0
892,G#3,49.216,99/1000,127,90.0
893,C#3,49.25,0.25,120,90.0
894,A4,49.406,0.25,127,90.0
895,F#2,49.406,0.25,127,90.0
896,G#3,49.487,0.094,127,90.0
897,C#3,49.5,0.25,120,90.0
898,A4,49.656,0.25,127,90.0
899,C2,49.656,0.25,127,90.0
900,G#3,49.745,12/125,127,90.0
901,C#3,49.75,0.25,120,90.0
902,A4,49.906,1/100,127,90.0
903,F#2,49.906,1/100,127,90.0
904,C#3,50.0,0.25,120,90.0
905,G#3,50.008,349/1000,127,90.0
906,A4,50.156,6/25,127,90.0
907,F#2,50.156,6/25,127,90.0
908,C#3,50.25,0.25,120,90.0
909,A4,50.396,0.25,127,90.0
910,C#3,50.5,0.25,120,90.0
911,G#3,50.51,0.125,127,90.0
912,A4,50.646,0.25,127,90.0
913,C2,50.646,0.25,127,90.0
914,F#2,50.646,0.25,127,90.0
915,C#3,50.75,0.25,120,90.0
916,G#3,50.771,0.32,127,90.0
917,A4,50.896,0.25,127,90.0
918,C#3,51.0,0.25,120,90.0
919,F#4,51.0,0.25,127,90.0
920,F#3,51.0,0.25,127,90.0
921,A4,51.146,0.25,127,90.0
922,D2,51.146,0.25,127,90.0
923,F#2,51.146,0.25,127,90.0
924,C#3,51.25,0.25,120,90.0
925,G#3,51.255,0.117,127,90.0
926,A4,51.396,0.25,127,90.0
927,C#3,51.5,0.25,120,90.0
928,G#3,51.526,23/200,127,90.0
929,A4,51.646,0.25,127,90.0
930,F#2,51.646,0.25,127,90.0
931,G#3,51.75,0.25,115,90.0
932,E2,51.75,0.25,120,90.0
933,G#4,51.75,0.25,120,90.0
934,C#3,51.75,0.25,120,90.0
935,C#5,51.75,0.25,100,90.0
936,G#5,51.75,0.25,100,90.0
937,G#4,51.75,0.25,100,90.0
938,G#3,51.75,0.25,100,90.0
939,G#4,51.75,0.25,100,90.0
940,G#3,51.75,0.25,100,90.0
941,G#3,51.776,13/125,127,90.0
942,A4,51.896,0.25,127,90.0
943,C2,51.896,0.25,127,90.0
944,G#3,52.0,83/1000,115,90.0
945,E2,52.0,0.25,120,90.0
946,G#4,52.0,0.25,120,90.0
947,C#3,52.0,0.25,120,90.0
948,C#5,52.0,83/1000,100,90.0
949,G#5,52.0,83/1000,100,90.0
950,G#4,52.0,83/1000,100,90.0
951,G#3,52.0,83/1000,100,90.0
952,G#4,52.0,83/1000,100,90.0
953,G#3,52.0,83/1000,100,90.0
954,G#3,52.031,181/500,127,90.0
955,A4,52.146,0.25,127,90.0
956,F#2,52.146,0.25,127,90.0
957,C#3,52.25,0.25,120,90.0
958,A4,52.396,0.25,127,90.0
959,A3,52.5,333/1000,115,90.0
960,E-2,52.5,0.5,120,90.0
961,A4,52.5,0.5,120,90.0
962,C#3,52.5,0.25,120,90.0
963,C#5,52.5,333/1000,100,90.0
964,A5,52.5,333/1000,100,90.0
965,A4,52.5,333/1000,100,90.0
966,A3,52.5,333/1000,100,90.0
967,A4,52.5,333/1000,100,90.0
968,A3,52.5,333/1000,100,90.0
969,G#3,52.56,0.094,127,90.0
970,A4,52.646,0.25,127,90.0
971,C2,52.646,0.25,127,90.0
972,F#2,52.646,0.25,127,90.0
973,C#3,52.75,0.25,120,90.0
974,G#3,52.818,0.305,127,90.0
975,A4,52.896,0.25,127,90.0
976,C#3,53.0,0.25,120,90.0
977,F#4,53.0,0.25,127,90.0
978,F#3,53.0,0.25,127,90.0
979,A4,53.146,0.25,127,90.0
980,D2,53.146,0.25,127,90.0
981,F#2,53.146,0.25,127,90.0
982,C#3,53.25,0.25,120,90.0
983,G#3,53.318,12/125,127,90.0
984,A4,53.396,0.25,127,90.0
985,C#3,53.5,0.25,120,90.0
986,G#3,53.56,0.102,127,90.0
987,A4,53.646,0.25,127,90.0
988,F#2,53.646,0.25,127,90.0
989,F#3,53.75,333/1000,115,90.0
990,F#2,53.75,0.5,120,90.0
991,F#4,53.75,0.5,120,90.0
992,C#3,53.75,0.25,120,90.0
993,C#5,53.75,333/1000,100,90.0
994,F#5,53.75,333/1000,100,90.0
995,F#3,53.75,333/1000,100,90.0
996,F#4,53.75,333/1000,100,90.0
997,F#3,53.75,333/1000,100,90.0
998,F#4,53.75,333/1000,100,90.0
999,G#3,53.797,0.102,127,90.0
1000,A4,53.896,0.25,127,90.0
1001,C2,53.896,0.25,127,90.0
1002,C#3,54.0,0.25,120,90.0
1003,G#3,54.049,189/500,127,90.0
1004,A4,54.146,1/100,127,90.0
1005,F#2,54.146,1/100,127,90.0
1006,C#3,54.25,0.25,120,90.0
1007,A4,54.396,6/25,127,90.0
1008,F#2,54.396,6/25,127,90.0
1009,G#3,54.5,333/1000,115,90.0
1010,E2,54.5,0.5,120,90.0
1011,G#4,54.5,0.25,120,90.0
1012,C#3,54.5,0.25,120,90.0
1013,C#5,54.5,333/1000,100,90.0
1014,G#5,54.5,333/1000,100,90.0
1015,G#3,54.5,333/1000,100,90.0
1016,G#4,54.5,333/1000,100,90.0
1017,G#3,54.5,333/1000,100,90.0
1018,G#4,54.5,333/1000,100,90.0
1019,A4,54.635,0.25,127,90.0
1020,C#3,54.75,0.25,120,90.0
1021,G#3,54.781,107/1000,127,90.0
1022,A4,54.885,0.25,127,90.0
1023,C2,54.885,0.25,127,90.0
1024,F#2,54.885,0.25,127,90.0
1025,C#3,55.0,0.25,120,90.0
1026,F#4,55.0,0.25,127,90.0
1027,F#3,55.0,0.25,127,90.0
1028,G#3,55.031,12/125,127,90.0
1029,A4,55.135,0.25,127,90.0
1030,C#3,55.25,0.25,120,90.0
1031,G#3,55.284,0.094,127,90.0
1032,A4,55.385,0.25,127,90.0
1033,D2,55.385,0.25,127,90.0
1034,F#2,55.385,0.25,127,90.0
1035,C#3,55.5,0.25,120,90.0
1036,G#3,55.523,99/1000,127,90.0
1037,A4,55.635,0.25,127,90.0
1038,A3,55.75,0.25,115,90.0
1039,B1,55.75,0.25,120,90.0
1040,A4,55.75,0.25,120,90.0
1041,C#3,55.75,0.25,120,90.0
1042,C#5,55.75,0.25,100,90.0
1043,A5,55.75,0.25,100,90.0
1044,A3,55.75,0.25,100,90.0
1045,A4,55.75,0.25,100,90.0
1046,A3,55.75,0.25,100,90.0
1047,A4,55.75,0.25,100,90.0
1048,G#3,55.763,12/125,127,90.0
1049,A4,55.885,0.25,127,90.0
1050,F#2,55.885,0.25,127,90.0
1051,A3,56.0,83/1000,115,90.0
1052,B1,56.0,0.25,120,90.0
1053,A4,56.0,0.25,120,90.0
1054,C#3,56.0,0.25,120,90.0
1055,C#5,56.0,83/1000,100,90.0
1056,A5,56.0,83/1000,100,90.0
1057,A3,56.0,83/1000,100,90.0
1058,A4,56.0,83/1000,100,90.0
1059,A3,56.0,83/1000,100,90.0
1060,A4,56.0,83/1000,100,90.0
1061,G#3,56.016,229/1000,127,90.0
1062,A4,56.135,0.25,127,90.0
1063,C2,56.135,0.25,127,90.0
1064,C#3,56.25,0.25,120,90.0
1065,A4,56.385,0.25,127,90.0
1066,F#2,56.385,0.25,127,90.0
1067,G#3,56.5,333/1000,115,90.0
1068,C#2,56.5,0.5,120,90.0
1069,G#4,56.5,0.5,120,90.0
1070,C#3,56.5,0.25,120,90.0
1071,C#5,56.5,333/1000,100,90.0
1072,G#5,56.5,333/1000,100,90.0
1073,G#3,56.5,333/1000,100,90.0
1074,G#4,56.5,333/1000,100,90.0
1075,G#3,56.5,333/1000,100,90.0
1076,G#4,56.5,333/1000,100,90.0
1077,G#3,56.539,13/125,127,90.0
1078,A4,56.635,0.25,127,90.0
1079,C#3,56.75,0.25,120,90.0
1080,G#3,56.784,12/125,127,90.0
1081,A4,56.885,0.25,127,90.0
1082,C2,56.885,0.25,127,90.0
1083,F#2,56.885,0.25,127,90.0
1084,C#3,57.0,0.25,120,90.0
1085,F#4,57.0,0.25,127,90.0
1086,F#3,57.0,0.25,127,90.0
1087,G#3,57.018,0.094,127,90.0
1088,A4,57.135,0.25,127,90.0
1089,G#3,57.25,12/125,127,90.0
1090,C#3,57.25,0.25,120,90.0
1091,A4,57.385,0.25,127,90.0
1092,D2,57.385,0.25,127,90.0
1093,F#2,57.385,0.25,127,90.0
1094,C#3,57.5,0.25,120,90.0
1095,G#3,57.516,13/125,127,90.0
1096,A4,57.635,0.25,127,90.0
1097,C#3,57.75,0.25,120,90.0
1098,G#3,57.773,99/1000,127,90.0
1099,A4,57.885,0.25,127,90.0
1100,F#2,57.885,0.25,127,90.0
1101,C#3,58.0,0.25,120,90.0
1102,G#3,58.036,73/250,127,90.0
1103,A4,58.135,0.25,127,90.0
1104,C2,58.135,0.25,127,90.0
1105,C#3,58.25,0.25,120,90.0
1106,A4,58.385,1/100,127,90.0
1107,F#2,58.385,1/100,127,90.0
1108,C#3,58.5,0.25,120,90.0
1109,G#3,58.51,23/200,127,90.0
1110,A4,58.635,6/25,127,90.0
1111,F#2,58.635,6/25,127,90.0
1112,C#3,58.75,0.25,120,90.0
1113,G#3,58.786,73/250,127,90.0
1114,A4,58.875,0.25,127,90.0
1115,C#3,59.0,0.25,120,90.0
1116,F#4,59.0,0.25,127,90.0
1117,F#3,59.0,0.25,127,90.0
1118,A4,59.125,0.25,127,90.0
1119,C2,59.125,0.25,127,90.0
1120,F#2,59.125,0.25,127,90.0
1121,C#3,59.25,0.25,120,90.0
1122,G#3,59.253,16/125,127,90.0
1123,A4,59.375,0.25,127,90.0
1124,C#3,59.5,0.25,120,90.0
1125,G#3,59.526,14/125,127,90.0
1126,A4,59.625,0.25,127,90.0
1127,D2,59.625,0.25,127,90.0
1128,F#2,59.625,0.25,127,90.0
1129,G#3,59.75,0.25,115,90.0
1130,E2,59.75,0.25,120,90.0
1131,G#4,59.75,0.25,120,90.0
1132,C#3,59.75,0.25,120,90.0
1133,C#5,59.75,0.25,100,90.0
1134,G#5,59.75,0.25,100,90.0
1135,G#4,59.75,0.25,100,90.0
1136,G#3,59.75,0.25,100,90.0
1137,G#4,59.75,0.25,100,90.0
1138,G#3,59.75,0.25,100,90.0
1139,G#3,59.792,107/1000,127,90.0
1140,A4,59.875,0.25,127,90.0
1141,G#3,60.0,83/1000,115,90.0
1142,E2,60.0,0.25,120,90.0
1143,C#3,60.0,0.25,120,90.0
1144,C#5,60.0,83/1000,100,90.0
1145,G#5,60.0,83/1000,100,90.0
1146,G#4,60.0,83/1000,100,90.0
1147,G#3,60.0,83/1000,100,90.0
1148,G#4,60.0,83/1000,100,90.0
1149,G#3,60.0,83/1000,100,90.0
1150,G#3,60.034,63/200,127,90.0
1151,A4,60.125,0.25,127,90.0
1152,F#2,60.125,0.25,127,90.0
1153,C#3,60.25,0.25,120,90.0
1154,A4,60.375,0.25,127,90.0
1155,C2,60.375,0.25,127,90.0
1156,A3,60.5,333/1000,115,90.0
1157,E-2,60.5,0.5,120,90.0
1158,A4,60.5,0.5,120,90.0
1159,C#3,60.5,0.25,120,90.0
1160,C#5,60.5,333/1000,100,90.0
1161,A5,60.5,333/1000,100,90.0
1162,A3,60.5,333/1000,100,90.0
1163,A4,60.5,333/1000,100,90.0
1164,A3,60.5,333/1000,100,90.0
1165,A4,60.5,333/1000,100,90.0
1166,G#3,60.544,99/1000,127,90.0
1167,A4,60.625,0.25,127,90.0
1168,F#2,60.625,0.25,127,90.0
1169,C#3,60.75,0.25,120,90.0
1170,G#3,60.794,163/500,127,90.0
1171,A4,60.875,0.25,127,90.0
1172,C#3,61.0,0.25,120,90.0
1173,F#4,61.0,0.25,127,90.0
1174,F#3,61.0,0.25,127,90.0
1175,A4,61.125,0.25,127,90.0
1176,C2,61.125,0.25,127,90.0
1177,F#2,61.125,0.25,127,90.0
1178,C#3,61.25,0.25,120,90.0
1179,G#3,61.276,0.094,127,90.0
1180,A4,61.375,0.25,127,90.0
1181,C#3,61.5,0.25,120,90.0
1182,G#3,61.529,61/500,127,90.0
1183,A4,61.625,0.25,127,90.0
1184,D2,61.625,0.25,127,90.0
1185,F#2,61.625,0.25,127,90.0
1186,F#3,61.75,333/1000,115,90.0
1187,F#2,61.75,0.5,120,90.0
1188,F#4,61.75,0.25,120,90.0
1189,C#3,61.75,0.25,120,90.0
1190,C#5,61.75,333/1000,100,90.0
1191,F#5,61.75,333/1000,100,90.0
1192,F#3,61.75,333/1000,100,90.0
1193,F#4,61.75,333/1000,100,90.0
1194,F#3,61.75,333/1000,100,90.0
1195,F#4,61.75,333/1000,100,90.0
1196,G#3,61.779,13/125,127,90.0
1197,A4,61.875,0.25,127,90.0
1198,C#3,62.0,0.25,120,90.0
1199,G#3,62.01,0.312,127,90.0
1200,A4,62.125,0.25,127,90.0
1201,F#2,62.125,0.25,127,90.0
1202,C#3,62.25,0.25,120,90.0
1203,A4,62.375,0.25,127,90.0
1204,C2,62.375,0.25,127,90.0
1205,G#3,62.5,333/1000,115,90.0
1206,E2,62.5,0.5,120,90.0
1207,G#4,62.5,0.5,120,90.0
1208,C#3,62.5,0.25,120,90.0
1209,C#5,62.5,333/1000,100,90.0
1210,G#5,62.5,333/1000,100,90.0
1211,G#3,62.5,333/1000,100,90.0
1212,G#4,62.5,333/1000,100,90.0
1213,G#3,62.5,333/1000,100,90.0
1214,G#4,62.5,333/1000,100,90.0
1215,G#3,62.536,0.102,127,90.0
1216,A4,62.625,1/100,127,90.0
1217,F#2,62.625,1/100,127,90.0
1218,C#3,62.75,0.25,120,90.0
1219,G#3,62.768,13/125,127,90.0
1220,A4,62.875,6/25,127,90.0
1221,F#2,62.875,6/25,127,90.0
1222,C#3,63.0,0.25,120,90.0
1223,F#4,63.0,0.25,127,90.0
1224,F#3,63.0,0.25,127,90.0
1225,G#3,63.016,99/1000,127,90.0
1226,A4,63.115,0.25,127,90.0
1227,C#3,63.25,0.25,120,90.0
1228,G#3,63.271,99/1000,127,90.0
1229,A4,63.365,0.25,127,90.0
1230,C2,63.365,0.25,127,90.0
1231,F#2,63.365,0.25,127,90.0
1232,C#3,63.5,0.25,120,90.0
1233,G#3,63.534,159/500,127,90.0
1234,A4,63.615,0.25,127,90.0
1235,B2,63.75,0.25,115,90.0
1236,B1,63.75,0.25,120,90.0
1237,B3,63.75,0.25,120,90.0
1238,C#3,63.75,0.25,120,90.0
1239,B2,63.75,0.25,50,90.0
1240,A4,63.75,0.25,50,90.0
1241,A3,63.75,0.25,50,90.0
1242,B3,63.75,0.25,50,90.0
1243,B3,63.75,0.25,100,90.0
1244,A4,63.75,0.25,100,90.0
1245,A3,63.75,0.25,100,90.0
1246,B2,63.75,0.25,100,90.0
1247,B3,63.75,0.25,100,90.0
1248,A4,63.75,0.25,100,90.0
1249,A3,63.75,0.25,100,90.0
1250,B2,63.75,0.25,100,90.0
1251,A4,63.865,0.25,127,90.0
1252,D2,63.865,0.25,127,90.0
1253,F#2,63.865,0.25,127,90.0
1254,C#4,64.0,0.305,127,90.0
1255,B2,64.0,83/1000,115,90.0
1256,B1,64.0,0.25,120,90.0
1257,B3,64.0,0.25,120,90.0
1258,C#3,64.0,0.25,120,90.0
1259,B2,64.0,83/1000,50,90.0
1260,A4,64.0,83/1000,50,90.0
1261,A3,64.0,83/1000,50,90.0
1262,B3,64.0,83/1000,50,90.0
1263,B3,64.0,83/1000,100,90.0
1264,A4,64.0,83/1000,100,90.0
1265,A3,64.0,83/1000,100,90.0
1266,B2,64.0,83/1000,100,90.0
1267,B3,64.0,83/1000,100,90.0
1268,A4,64.0,83/1000,100,90.0
1269,A3,64.0,83/1000,100,90.0
1270,B2,64.0,83/1000,100,90.0
1271,A4,64.115,0.25,127,90.0
1272,F#3,64.349,89/1000,127,90.0
1273,A4,64.365,0.25,127,90.0
1274,F#2,64.365,0.25,127,90.0
1275,C#3,64.5,333/1000,115,90.0
1276,C#2,64.5,0.5,120,90.0
1277,C#4,64.5,0.5,120,90.0
1278,C4,64.5,0.25,120,90.0
1279,C#3,64.5,0.5,120,90.0
1280,C#4,64.5,333/1000,50,90.0
1281,C#3,64.5,333/1000,50,90.0
1282,G#4,64.5,333/1000,50,90.0
1283,G#3,64.5,333/1000,50,90.0
1284,G#4,64.5,333/1000,100,90.0
1285,C#4,64.5,333/1000,100,90.0
1286,C#3,64.5,333/1000,100,90.0
1287,G#3,64.5,333/1000,100,90.0
1288,G#4,64.5,333/1000,100,90.0
1289,C#4,64.5,333/1000,100,90.0
1290,C#3,64.5,333/1000,100,90.0
1291,G#3,64.5,333/1000,100,90.0
1292,F#3,64.594,89/1000,127,90.0
1293,A4,64.615,0.25,127,90.0
1294,C2,64.615,0.25,127,90.0
1295,F#3,64.844,0.086,127,90.0
1296,A4,64.865,0.25,127,90.0
1297,F#2,64.865,0.25,127,90.0
1298,F#3,65.0,0.25,127,90.0
1299,F#4,65.0,0.25,127,90.0
1300,F#3,65.055,31/100,127,90.0
1301,A4,65.115,0.25,127,90.0
1302,A4,65.365,0.25,127,90.0
1303,C2,65.365,0.25,127,90.0
1304,F#2,65.365,0.25,127,90.0
1305,G#3,65.542,0.266,127,90.0
1306,A4,65.615,0.25,127,90.0
1307,A4,65.865,0.25,127,90.0
1308,D2,65.865,0.25,127,90.0
1309,F#2,65.865,0.25,127,90.0
1310,A4,66.115,0.25,127,90.0
1311,C#3,66.128,0.258,127,90.0
1312,A4,66.365,0.25,127,90.0
1313,F#2,66.365,0.25,127,90.0
1314,C#3,66.529,23/200,127,90.0
1315,A4,66.615,0.25,127,90.0
1316,C2,66.615,0.25,127,90.0
1317,C#3,66.758,27/200,127,90.0
1318,A4,66.865,1/100,127,90.0
1319,F#2,66.865,1/100,127,90.0
1320,G#3,66.984,0.125,127,90.0
1321,F#4,67.0,0.25,127,90.0
1322,F#3,67.0,0.25,127,90.0
1323,A4,67.115,6/25,127,90.0
1324,F#2,67.115,6/25,127,90.0
1325,G#3,67.224,13/100,127,90.0
1326,A4,67.354,0.25,127,90.0
1327,G#3,67.5,3/50,127,90.0
1328,A4,67.604,0.25,127,90.0
1329,C2,67.604,0.25,127,90.0
1330,F#2,67.604,0.25,127,90.0
1331,G#3,67.703,0.164,127,90.0
1332,E2,67.75,0.25,120,90.0
1333,C#3,67.75,0.25,120,90.0
1334,G#3,67.75,0.25,100,90.0
1335,G#4,67.75,0.25,100,90.0
1336,G#3,67.75,0.25,100,90.0
1337,G#4,67.75,0.25,100,90.0
1338,A4,67.854,0.25,127,90.0
1339,C#4,67.992,0.008,127,90.0
1340,C#4,68.0,0.297,127,90.0
1341,E2,68.0,0.25,120,90.0
1342,C#3,68.0,0.25,120,90.0
1343,G#3,68.0,83/1000,100,90.0
1344,G#4,68.0,83/1000,100,90.0
1345,G#3,68.0,83/1000,100,90.0
1346,G#4,68.0,83/1000,100,90.0
1347,A4,68.104,0.25,127,90.0
1348,D2,68.104,0.25,127,90.0
1349,F#2,68.104,0.25,127,90.0
1350,A4,68.354,0.25,127,90.0
1351,F#3,68.453,0.094,127,90.0
1352,E-2,68.5,0.5,120,90.0
1353,C#3,68.5,0.5,120,90.0
1354,A3,68.5,333/1000,100,90.0
1355,A4,68.5,333/1000,100,90.0
1356,A3,68.5,333/1000,100,90.0
1357,A4,68.5,333/1000,100,90.0
1358,A4,68.604,0.25,127,90.0
1359,F#2,68.604,0.25,127,90.0
1360,F#3,68.74,0.164,127,90.0
1361,A4,68.854,0.25,127,90.0
1362,C2,68.854,0.25,127,90.0
1363,G#3,68.987,0.328,127,90.0
1364,F#4,69.0,0.25,127,90.0
1365,F#3,69.0,0.25,127,90.0
1366,A4,69.104,0.25,127,90.0
1367,F#2,69.104,0.25,127,90.0
1368,A4,69.354,0.25,127,90.0
1369,G#3,69.487,159/1000,127,90.0
1370,A4,69.604,0.25,127,90.0
1371,C2,69.604,0.25,127,90.0
1372,F#2,69.604,0.25,127,90.0
1373,F#2,69.75,0.5,120,90.0
1374,C#3,69.75,0.5,120,90.0
1375,F#3,69.75,333/1000,100,90.0
1376,F#4,69.75,333/1000,100,90.0
1377,F#3,69.75,333/1000,100,90.0
1378,F#4,69.75,333/1000,100,90.0
1379,G#3,69.753,0.195,127,90.0
1380,A4,69.854,0.25,127,90.0
1381,C#3,70.016,37/100,127,90.0
1382,A4,70.104,0.25,127,90.0
1383,D2,70.104,0.25,127,90.0
1384,F#2,70.104,0.25,127,90.0
1385,A4,70.354,0.25,127,90.0
1386,E2,70.5,0.5,120,90.0
1387,C#3,70.5,0.5,120,90.0
1388,G#4,70.5,333/1000,100,90.0
1389,G#3,70.5,333/1000,100,90.0
1390,G#4,70.5,333/1000,100,90.0
1391,G#3,70.5,333/1000,100,90.0
1392,G#3,70.508,12/125,127,90.0
1393,A4,70.604,0.25,127,90.0
1394,F#2,70.604,0.25,127,90.0
1395,G#3,70.747,107/1000,127,90.0
1396,A4,70.854,0.25,127,90.0
1397,C2,70.854,0.25,127,90.0
1398,F#4,71.0,0.25,127,90.0
1399,F#3,71.0,0.25,127,90.0
1400,G#3,71.01,23/200,127,90.0
1401,A4,71.104,1/100,127,90.0
1402,F#2,71.104,1/100,127,90.0
1403,G#3,71.237,0.078,127,90.0
1404,A4,71.354,6/25,127,90.0
1405,F#2,71.354,6/25,127,90.0
1406,G#3,71.518,91/1000,127,90.0
1407,A4,71.594,0.25,127,90.0
1408,B1,71.75,0.25,120,90.0
1409,C#3,71.75,0.25,120,90.0
1410,A3,71.75,0.25,100,90.0
1411,A4,71.75,0.25,100,90.0
1412,A3,71.75,0.25,100,90.0
1413,A4,71.75,0.25,100,90.0
1414,G#3,71.768,0.148,127,90.0
1415,A4,71.844,0.25,127,90.0
1416,C2,71.844,0.25,127,90.0
1417,F#2,71.844,0.25,127,90.0
1418,B1,72.0,0.25,120,90.0
1419,C#3,72.0,0.25,120,90.0
1420,A3,72.0,83/1000,100,90.0
1421,A4,72.0,83/1000,100,90.0
1422,A3,72.0,83/1000,100,90.0
1423,A4,72.0,83/1000,100,90.0
1424,C#4,72.049,151/500,127,90.0
1425,A4,72.094,0.25,127,90.0
1426,A4,72.344,0.25,127,90.0
1427,D2,72.344,0.25,127,90.0
1428,F#2,72.344,0.25,127,90.0
1429,G#3,72.495,23/200,127,90.0
1430,C#2,72.5,0.5,120,90.0
1431,C#3,72.5,0.5,120,90.0
1432,G#3,72.5,333/1000,100,90.0
1433,G#4,72.5,333/1000,100,90.0
1434,G#3,72.5,333/1000,100,90.0
1435,G#4,72.5,333/1000,100,90.0
1436,A4,72.594,0.25,127,90.0
1437,G#3,72.75,0.148,127,90.0
1438,A4,72.844,0.25,127,90.0
1439,F#2,72.844,0.25,127,90.0
1440,F#4,73.0,0.25,127,90.0
1441,F#3,73.0,0.25,127,90.0
1442,F#3,73.016,16/125,127,90.0
1443,A4,73.094,0.25,127,90.0
1444,C2,73.094,0.25,127,90.0
1445,F#3,73.286,0.117,127,90.0
1446,A4,73.344,0.25,127,90.0
1447,F#2,73.344,0.25,127,90.0
1448,F#3,73.536,0.109,127,90.0
1449,A4,73.594,0.25,127,90.0
1450,F#3,73.773,0.156,127,90.0
1451,A4,73.844,0.25,127,90.0
1452,C2,73.844,0.25,127,90.0
1453,F#2,73.844,0.25,127,90.0
1454,C#3,74.036,151/500,127,90.0
1455,A4,74.094,0.25,127,90.0
1456,A4,74.344,0.25,127,90.0
1457,D2,74.344,0.25,127,90.0
1458,F#2,74.344,0.25,127,90.0
1459,G#3,74.49,0.086,127,90.0
1460,A4,74.594,0.25,127,90.0
1461,G#3,74.724,99/1000,127,90.0
1462,A4,74.844,0.25,127,90.0
1463,F#2,74.844,0.25,127,90.0
1464,G#3,74.971,91/1000,127,90.0
1465,F#4,75.0,0.25,127,90.0
1466,F#3,75.0,0.25,127,90.0
1467,A4,75.094,0.25,127,90.0
1468,C2,75.094,0.25,127,90.0
1469,G#3,75.245,12/125,127,90.0
1470,A4,75.344,1/100,127,90.0
1471,F#2,75.344,1/100,127,90.0
1472,G#3,75.536,0.086,127,90.0
1473,A4,75.594,6/25,127,90.0
1474,F#2,75.594,6/25,127,90.0
1475,E2,75.75,0.25,120,90.0
1476,C#3,75.75,0.25,120,90.0
1477,G#3,75.75,0.25,100,90.0
1478,G#4,75.75,0.25,100,90.0
1479,G#3,75.75,0.25,100,90.0
1480,G#4,75.75,0.25,100,90.0
1481,G#3,75.776,73/500,127,90.0
1482,A4,75.833,0.25,127,90.0
1483,E2,76.0,0.25,120,90.0
1484,C#3,76.0,0.25,120,90.0
1485,G#3,76.0,83/1000,100,90.0
1486,G#4,76.0,83/1000,100,90.0
1487,G#3,76.0,83/1000,100,90.0
1488,G#4,76.0,83/1000,100,90.0
1489,C#4,76.026,99/1000,127,90.0
1490,A4,76.083,0.25,127,90.0
1491,C2,76.083,0.25,127,90.0
1492,F#2,76.083,0.25,127,90.0
1493,C#4,76.273,99/1000,127,90.0
1494,A4,76.333,0.25,127,90.0
1495,E-2,76.5,0.5,120,90.0
1496,C#3,76.5,0.5,120,90.0
1497,A3,76.5,333/1000,100,90.0
1498,A4,76.5,333/1000,100,90.0
1499,A3,76.5,333/1000,100,90.0
1500,A4,76.5,333/1000,100,90.0
1501,C#4,76.508,161/1000,127,90.0
1502,A4,76.583,0.25,127,90.0
1503,D2,76.583,0.25,127,90.0
1504,F#2,76.583,0.25,127,90.0
1505,G#3,76.779,31/100,127,90.0
1506,A4,76.833,0.25,127,90.0
1507,F#4,77.0,0.25,127,90.0
1508,F#3,77.0,0.25,127,90.0
1509,A4,77.083,0.25,127,90.0
1510,F#2,77.083,0.25,127,90.0
1511,G#3,77.286,0.094,127,90.0
1512,A4,77.333,0.25,127,90.0
1513,C2,77.333,0.25,127,90.0
1514,G#3,77.536,12/125,127,90.0
1515,A4,77.583,0.25,127,90.0
1516,F#2,77.583,0.25,127,90.0
1517,F#2,77.75,0.5,120,90.0
1518,F#4,77.75,333/1000,100,90.0
1519,F#3,77.75,333/1000,100,90.0
1520,F#4,77.75,333/1000,100,90.0
1521,F#3,77.75,333/1000,100,90.0
1522,G#3,77.784,99/1000,127,90.0
1523,A4,77.833,0.25,127,90.0
1524,C#3,78.06,0.352,127,90.0
1525,A4,78.083,0.25,127,90.0
1526,C2,78.083,0.25,127,90.0
1527,F#2,78.083,0.25,127,90.0
1528,A4,78.333,0.25,127,90.0
1529,C#3,78.453,28/125,127,90.0
1530,E2,78.5,0.5,120,90.0
1531,G#4,78.5,333/1000,100,90.0
1532,G#3,78.5,333/1000,100,90.0
1533,G#4,78.5,333/1000,100,90.0
1534,G#3,78.5,333/1000,100,90.0
1535,A4,78.583,0.25,127,90.0
1536,D2,78.583,0.25,127,90.0
1537,F#2,78.583,0.25,127,90.0
1538,G#3,78.802,51/200,127,90.0
1539,A4,78.833,0.25,127,90.0
1540,F#4,79.0,0.25,127,90.0
1541,F#3,79.0,0.25,127,90.0
1542,A4,79.083,0.25,127,90.0
1543,F#2,79.083,0.25,127,90.0
1544,G#3,79.24,23/200,127,90.0
1545,A4,79.333,0.25,127,90.0
1546,C2,79.333,0.25,127,90.0
1547,G#3,79.51,0.109,127,90.0
1548,A4,79.583,1/100,127,90.0
1549,F#2,79.583,1/100,127,90.0
1550,B1,79.75,0.25,120,90.0
1551,C#3,79.75,0.25,120,90.0
1552,A3,79.75,0.25,100,90.0
1553,A4,79.75,0.25,100,90.0
1554,A3,79.75,0.25,100,90.0
1555,A4,79.75,0.25,100,90.0
1556,G#3,79.758,99/1000,127,90.0
1557,A4,79.833,6/25,127,90.0
1558,F#2,79.833,6/25,127,90.0
1559,G#3,80.0,0.32,127,90.0
1560,B1,80.0,0.25,120,90.0
1561,C#3,80.0,0.25,120,90.0
1562,A3,80.0,83/1000,100,90.0
1563,A4,80.0,83/1000,100,90.0
1564,A3,80.0,83/1000,100,90.0
1565,A4,80.0,83/1000,100,90.0
1566,A4,80.073,0.25,127,90.0
1567,A4,80.323,0.25,127,90.0
1568,C2,80.323,0.25,127,90.0
1569,F#2,80.323,0.25,127,90.0
1570,G#3,80.482,0.344,127,90.0
1571,C#2,80.5,0.5,120,90.0
1572,C#3,80.5,0.5,120,90.0
1573,G#3,80.5,333/1000,100,90.0
1574,G#4,80.5,333/1000,100,90.0
1575,G#3,80.5,333/1000,100,90.0
1576,G#4,80.5,333/1000,100,90.0
1577,A4,80.573,0.25,127,90.0
1578,A4,80.823,0.25,127,90.0
1579,D2,80.823,0.25,127,90.0
1580,F#2,80.823,0.25,127,90.0
1581,F#4,81.0,0.25,127,90.0
1582,F#3,81.0,0.25,127,90.0
1583,G#3,81.003,247/1000,127,90.0
1584,A4,81.073,0.25,127,90.0
1585,A4,81.323,0.25,127,90.0
1586,F#2,81.323,0.25,127,90.0
1587,G#3,81.516,331/1000,127,90.0
1588,A4,81.573,0.25,127,90.0
1589,C2,81.573,0.25,127,90.0
1590,A4,81.823,0.25,127,90.0
1591,F#2,81.823,0.25,127,90.0
1592,G#3,81.997,0.141,127,90.0
1593,A4,82.073,0.25,127,90.0
1594,G#3,82.258,89/1000,127,90.0
1595,A4,82.323,0.25,127,90.0
1596,C2,82.323,0.25,127,90.0
1597,F#2,82.323,0.25,127,90.0
1598,G#3,82.495,27/200,127,90.0
1599,A4,82.573,0.25,127,90.0
1600,G#3,82.734,0.117,127,90.0
1601,A4,82.823,0.25,127,90.0
1602,D2,82.823,0.25,127,90.0
1603,F#2,82.823,0.25,127,90.0
1604,G#3,82.995,3/25,127,90.0
1605,F#3,83.0,0.25,127,90.0
1606,F#4,83.0,0.25,127,90.0
1607,A4,83.073,0.25,127,90.0
1608,G#3,83.24,14/125,127,90.0
1609,A4,83.323,0.25,127,90.0
1610,F#2,83.323,0.25,127,90.0
1611,G#3,83.513,0.109,127,90.0
1612,A4,83.573,0.25,127,90.0
1613,C2,83.573,0.25,127,90.0
1614,E2,83.75,0.25,120,90.0
1615,C#3,83.75,0.25,120,90.0
1616,G#3,83.75,0.25,100,90.0
1617,G#4,83.75,0.25,100,90.0
1618,G#3,83.75,0.25,100,90.0
1619,G#4,83.75,0.25,100,90.0
1620,G#3,83.768,99/1000,127,90.0
1621,A4,83.823,1/100,127,90.0
1622,F#2,83.823,1/100,127,90.0
1623,E2,84.0,0.25,120,90.0
1624,C#3,84.0,0.25,120,90.0
1625,G#3,84.0,83/1000,100,90.0
1626,G#4,84.0,83/1000,100,90.0
1627,G#3,84.0,83/1000,100,90.0
1628,G#4,84.0,83/1000,100,90.0
1629,G#3,84.021,27/200,127,90.0
1630,A4,84.073,6/25,127,90.0
1631,F#2,84.073,6/25,127,90.0
1632,G#3,84.271,13/125,127,90.0
1633,A4,84.312,0.25,127,90.0
1634,E-2,84.5,0.5,120,90.0
1635,C#3,84.5,0.5,120,90.0
1636,A3,84.5,333/1000,100,90.0
1637,A4,84.5,333/1000,100,90.0
1638,A3,84.5,333/1000,100,90.0
1639,A4,84.5,333/1000,100,90.0
1640,G#3,84.508,0.094,127,90.0
1641,A4,84.562,0.25,127,90.0
1642,C2,84.562,0.25,127,90.0
1643,F#2,84.562,0.25,127,90.0
1644,G#3,84.737,0.109,127,90.0
1645,A4,84.812,0.25,127,90.0
1646,G#3,84.995,16/125,127,90.0
1647,F#3,85.0,0.25,127,90.0
1648,F#4,85.0,0.25,127,90.0
1649,A4,85.062,0.25,127,90.0
1650,D2,85.062,0.25,127,90.0
1651,F#2,85.062,0.25,127,90.0
1652,G#3,85.26,61/500,127,90.0
1653,A4,85.312,0.25,127,90.0
1654,G#3,85.534,143/500,127,90.0
1655,A4,85.562,0.25,127,90.0
1656,F#2,85.562,0.25,127,90.0
1657,F#2,85.75,0.5,120,90.0
1658,C#3,85.75,0.5,120,90.0
1659,F#4,85.75,333/1000,100,90.0
1660,F#3,85.75,333/1000,100,90.0
1661,F#4,85.75,333/1000,100,90.0
1662,F#3,85.75,333/1000,100,90.0
1663,A4,85.812,0.25,127,90.0
1664,C2,85.812,0.25,127,90.0
1665,G#3,86.003,0.297,127,90.0
1666,A4,86.062,0.25,127,90.0
1667,F#2,86.062,0.25,127,90.0
1668,A4,86.312,0.25,127,90.0
1669,E2,86.5,0.5,120,90.0
1670,C#3,86.5,0.5,120,90.0
1671,G#3,86.5,333/1000,100,90.0
1672,G#4,86.5,333/1000,100,90.0
1673,G#3,86.5,333/1000,100,90.0
1674,G#4,86.5,333/1000,100,90.0
1675,G#3,86.508,0.109,127,90.0
1676,A4,86.562,0.25,127,90.0
1677,C2,86.562,0.25,127,90.0
1678,F#2,86.562,0.25,127,90.0
1679,G#3,86.747,107/1000,127,90.0
1680,A4,86.812,0.25,127,90.0
1681,F#4,87.0,0.25,127,90.0
1682,F#3,87.0,0.25,127,90.0
1683,G#3,87.026,0.227,127,90.0
1684,A4,87.062,0.25,127,90.0
1685,D2,87.062,0.25,127,90.0
1686,F#2,87.062,0.25,127,90.0
1687,A4,87.312,0.25,127,90.0
1688,G#3,87.495,16/125,127,90.0
1689,A4,87.562,0.25,127,90.0
1690,F#2,87.562,0.25,127,90.0
1691,G#3,87.745,0.094,127,90.0
1692,B1,87.75,0.25,120,90.0
1693,A4,87.75,0.25,120,90.0
1694,C#5,87.75,0.25,100,90.0
1695,A5,87.75,0.25,100,90.0
1696,A3,87.75,0.25,100,90.0
1697,A4,87.75,0.25,100,90.0
1698,A3,87.75,0.25,100,90.0
1699,A4,87.75,0.25,100,90.0
1700,A4,87.812,0.25,127,90.0
1701,C2,87.812,0.25,127,90.0
1702,B1,88.0,0.25,120,90.0
1703,A4,88.0,0.25,120,90.0
1704,C#5,88.0,83/1000,100,90.0
1705,A5,88.0,83/1000,100,90.0
1706,A3,88.0,83/1000,100,90.0
1707,A4,88.0,83/1000,100,90.0
1708,A3,88.0,83/1000,100,90.0
1709,A4,88.0,83/1000,100,90.0
1710,G#3,88.018,307/1000,127,90.0
1711,A4,88.062,1/100,127,90.0
1712,F#2,88.062,1/100,127,90.0
1713,A4,88.312,6/25,127,90.0
1714,F#2,88.312,6/25,127,90.0
1715,C#2,88.5,0.5,120,90.0
1716,G#4,88.5,0.5,120,90.0
1717,G#5,88.5,333/1000,100,90.0
1718,C#5,88.5,333/1000,100,90.0
1719,G#3,88.5,333/1000,100,90.0
1720,G#4,88.5,333/1000,100,90.0
1721,G#3,88.5,333/1000,100,90.0
1722,G#4,88.5,333/1000,100,90.0
1723,G#3,88.503,14/125,127,90.0
1724,A4,88.552,0.25,127,90.0
1725,G#3,88.747,13/125,127,90.0
1726,A4,88.802,0.25,127,90.0
1727,C2,88.802,0.25,127,90.0
1728,F#2,88.802,0.25,127,90.0
1729,F#4,89.0,0.25,127,90.0
1730,F#3,89.0,0.25,127,90.0
1731,G#3,89.013,23/200,127,90.0
1732,A4,89.052,0.25,127,90.0
1733,G#3,89.26,99/1000,127,90.0
1734,A4,89.302,0.25,127,90.0
1735,D2,89.302,0.25,127,90.0
1736,F#2,89.302,0.25,127,90.0
1737,G#3,89.516,14/125,127,90.0
1738,A4,89.552,0.25,127,90.0
1739,G#3,89.766,0.07,127,90.0
1740,A4,89.802,0.25,127,90.0
1741,F#2,89.802,0.25,127,90.0
1742,G#3,90.029,143/1000,127,90.0
1743,A4,90.052,0.25,127,90.0
1744,C2,90.052,0.25,127,90.0
1745,G#3,90.279,26/125,127,90.0
1746,A4,90.302,0.25,127,90.0
1747,F#2,90.302,0.25,127,90.0
1748,A4,90.552,0.25,127,90.0
1749,G#3,90.753,0.242,127,90.0
1750,A4,90.802,0.25,127,90.0
1751,C2,90.802,0.25,127,90.0
1752,F#2,90.802,0.25,127,90.0
1753,F#4,91.0,0.25,127,90.0
1754,F#3,91.0,0.25,127,90.0
1755,A4,91.052,0.25,127,90.0
1756,A4,91.302,0.25,127,90.0
1757,D2,91.302,0.25,127,90.0
1758,F#2,91.302,0.25,127,90.0
1759,A4,91.552,0.25,127,90.0
1760,G#3,91.578,3/25,127,90.0
1761,E2,91.75,0.25,120,90.0
1762,G#4,91.75,0.25,120,90.0
1763,G#5,91.75,0.25,100,90.0
1764,C#5,91.75,0.25,100,90.0
1765,G#3,91.75,0.25,100,90.0
1766,G#4,91.75,0.25,100,90.0
1767,G#3,91.75,0.25,100,90.0
1768,G#4,91.75,0.25,100,90.0
1769,G#3,91.781,0.219,127,90.0
1770,A4,91.802,0.25,127,90.0
1771,F#2,91.802,0.25,127,90.0
1772,G#3,92.0,0.016,127,90.0
1773,E2,92.0,0.25,120,90.0
1774,G#5,92.0,83/1000,100,90.0
1775,C#5,92.0,83/1000,100,90.0
1776,G#3,92.0,83/1000,100,90.0
1777,G#4,92.0,83/1000,100,90.0
1778,G#3,92.0,83/1000,100,90.0
1779,G#4,92.0,83/1000,100,90.0
1780,A4,92.052,0.25,127,90.0
1781,C2,92.052,0.25,127,90.0
1782,G#3,92.276,0.055,127,90.0
1783,A4,92.302,1/100,127,90.0
1784,F#2,92.302,1/100,127,90.0
1785,G#3,92.43,83/1000,127,90.0
1786,E-2,92.5,0.5,120,90.0
1787,A4,92.5,0.25,120,90.0
1788,C#5,92.5,333/1000,100,90.0
1789,A5,92.5,333/1000,100,90.0
1790,A4,92.5,333/1000,100,90.0
1791,A3,92.5,333/1000,100,90.0
1792,A4,92.5,333/1000,100,90.0
1793,A3,92.5,333/1000,100,90.0
1794,A4,92.552,6/25,127,90.0
1795,F#2,92.552,6/25,127,90.0
1796,G#3,92.578,29/125,127,90.0
1797,A4,92.792,0.25,127,90.0
1798,F#4,93.0,0.25,127,90.0
1799,F#3,93.0,0.25,127,90.0
1800,G#3,93.008,13/125,127,90.0
1801,A4,93.042,0.25,127,90.0
1802,C2,93.042,0.25,127,90.0
1803,F#2,93.042,0.25,127,90.0
1804,G#3,93.237,13/125,127,90.0
1805,A4,93.292,0.25,127,90.0
1806,G#3,93.5,61/500,127,90.0
1807,A4,93.542,0.25,127,90.0
1808,D2,93.542,0.25,127,90.0
1809,F#2,93.542,0.25,127,90.0
1810,G#3,93.74,23/200,127,90.0
1811,F#2,93.75,0.5,120,90.0
1812,F#4,93.75,0.25,120,90.0
1813,C#5,93.75,333/1000,100,90.0
1814,F#5,93.75,333/1000,100,90.0
1815,F#4,93.75,333/1000,100,90.0
1816,F#3,93.75,333/1000,100,90.0
1817,F#4,93.75,333/1000,100,90.0
1818,F#3,93.75,333/1000,100,90.0
1819,A4,93.792,0.25,127,90.0
1820,G#3,94.0,16/125,127,90.0
1821,A4,94.042,0.25,127,90.0
1822,F#2,94.042,0.25,127,90.0
1823,G#3,94.247,0.102,127,90.0
1824,A4,94.292,0.25,127,90.0
1825,C2,94.292,0.25,127,90.0
1826,G#3,94.5,0.086,127,90.0
1827,E2,94.5,0.5,120,90.0
1828,G#4,94.5,0.25,120,90.0
1829,C#5,94.5,333/1000,100,90.0
1830,G#5,94.5,333/1000,100,90.0
1831,G#3,94.5,333/1000,100,90.0
1832,G#4,94.5,333/1000,100,90.0
1833,G#3,94.5,333/1000,100,90.0
1834,G#4,94.5,333/1000,100,90.0
1835,A4,94.542,0.25,127,90.0
1836,F#2,94.542,0.25,127,90.0
1837,G#3,94.74,26/125,127,90.0
1838,A4,94.792,0.25,127,90.0
1839,F#4,95.0,0.25,127,90.0
1840,F#3,95.0,0.25,127,90.0
1841,A4,95.042,0.25,127,90.0
1842,C2,95.042,0.25,127,90.0
1843,F#2,95.042,0.25,127,90.0
1844,A4,95.292,0.25,127,90.0
1845,G#3,95.513,107/1000,127,90.0
1846,A4,95.542,0.25,127,90.0
1847,D2,95.542,0.25,127,90.0
1848,F#2,95.542,0.25,127,90.0
1849,B1,95.75,0.25,120,90.0
1850,A4,95.75,0.25,120,90.0
1851,C#3,95.75,0.25,120,90.0
1852,A5,95.75,0.25,100,90.0
1853,C#5,95.75,0.25,100,90.0
1854,A3,95.75,0.25,100,90.0
1855,A4,95.75,0.25,100,90.0
1856,A3,95.75,0.25,100,90.0
1857,A4,95.75,0.25,100,90.0
1858,G#3,95.753,23/200,127,90.0
1859,A4,95.792,0.25,127,90.0
1860,B1,96.0,0.25,120,90.0
1861,C#3,96.0,0.25,120,90.0
1862,A5,96.0,83/1000,100,90.0
1863,C#5,96.0,83/1000,100,90.0
1864,A3,96.0,83/1000,100,90.0
1865,A4,96.0,83/1000,100,90.0
1866,A3,96.0,83/1000,100,90.0
1867,A4,96.0,83/1000,100,90.0
1868,G#3,96.008,221/1000,127,90.0
1869,A4,96.042,0.25,127,90.0
1870,F#2,96.042,0.25,127,90.0
1871,C#3,96.25,0.25,120,90.0
1872,A4,96.292,0.25,127,90.0
1873,C2,96.292,0.25,127,90.0
1874,C#2,96.5,0.5,120,90.0
1875,G#4,96.5,0.25,120,90.0
1876,C#3,96.5,0.25,120,90.0
1877,C#5,96.5,333/1000,100,90.0
1878,G#5,96.5,333/1000,100,90.0
1879,G#3,96.5,333/1000,100,90.0
1880,G#4,96.5,333/1000,100,90.0
1881,G#3,96.5,333/1000,100,90.0
1882,G#4,96.5,333/1000,100,90.0
1883,G#3,96.503,17/500,127,90.0
1884,A3,96.503,17/500,127,90.0
1885,A4,96.542,1/100,127,90.0
1886,F#2,96.542,1/100,127,90.0
1887,C#3,96.75,0.25,120,90.0
1888,G#3,96.766,81/1000,127,90.0
1889,A4,96.792,6/25,127,90.0
1890,F#2,96.792,6/25,127,90.0
1891,C#3,97.0,0.25,120,90.0
1892,F#4,97.0,0.25,127,90.0
1893,F#3,97.0,0.25,127,90.0
1894,G#3,97.008,83/1000,127,90.0
1895,A4,97.031,0.25,127,90.0
1896,G#3,97.237,0.086,127,90.0
1897,C#3,97.25,0.25,120,90.0
1898,A4,97.281,0.25,127,90.0
1899,C2,97.281,0.25,127,90.0
1900,F#2,97.281,0.25,127,90.0
1901,G#3,97.495,81/1000,127,90.0
1902,C#3,97.5,0.25,120,90.0
1903,A4,97.531,0.25,127,90.0
1904,G#3,97.734,0.078,127,90.0
1905,C#3,97.75,0.25,120,90.0
1906,A4,97.781,0.25,127,90.0
1907,D2,97.781,0.25,127,90.0
1908,F#2,97.781,0.25,127,90.0
1909,G#3,97.977,81/1000,127,90.0
1910,C#3,98.0,0.25,120,90.0
1911,A4,98.031,0.25,127,90.0
1912,G#3,98.216,83/1000,127,90.0
1913,C#3,98.25,0.25,120,90.0
1914,A4,98.281,0.25,127,90.0
1915,F#2,98.281,0.25,127,90.0
1916,G#3,98.471,19/250,127,90.0
1917,C#3,98.5,0.25,120,90.0
1918,A4,98.531,0.25,127,90.0
1919,C2,98.531,0.25,127,90.0
1920,G#3,98.74,12/125,127,90.0
1921,C#3,98.75,0.25,120,90.0
1922,A4,98.781,0.25,127,90.0
1923,F#2,98.781,0.25,127,90.0
1924,C#3,99.0,0.25,120,90.0
1925,F#4,99.0,0.25,127,90.0
1926,F#3,99.0,0.25,127,90.0
1927,A4,99.031,0.25,127,90.0
1928,G#3,99.242,83/1000,127,90.0
1929,C#3,99.25,0.25,120,90.0
1930,A4,99.281,0.25,127,90.0
1931,C2,99.281,0.25,127,90.0
1932,F#2,99.281,0.25,127,90.0
1933,C#3,99.5,0.25,120,90.0
1934,A4,99.531,0.25,127,90.0
1935,G#3,99.547,0.102,127,90.0
1936,E2,99.75,0.25,120,90.0
1937,G#4,99.75,0.25,120,90.0
1938,C#3,99.75,0.25,120,90.0
1939,G#5,99.75,0.25,100,90.0
1940,C#5,99.75,0.25,100,90.0
1941,G#3,99.75,0.25,100,90.0
1942,G#4,99.75,0.25,100,90.0
1943,G#3,99.75,0.25,100,90.0
1944,G#4,99.75,0.25,100,90.0
1945,A4,99.781,0.25,127,90.0
1946,D2,99.781,0.25,127,90.0
1947,F#2,99.781,0.25,127,90.0
1948,G#3,99.997,3/1000,127,90.0
1949,G#3,100.0,0.078,127,90.0
1950,E2,100.0,0.25,120,90.0
1951,C#3,100.0,0.25,120,90.0
1952,G#5,100.0,83/1000,100,90.0
1953,C#5,100.0,83/1000,100,90.0
1954,G#3,100.0,83/1000,100,90.0
1955,G#4,100.0,83/1000,100,90.0
1956,G#3,100.0,83/1000,100,90.0
1957,G#4,100.0,83/1000,100,90.0
1958,A4,100.031,0.25,127,90.0
1959,G#3,100.25,81/1000,127,90.0
1960,C#3,100.25,0.25,120,90.0
1961,A4,100.281,0.25,127,90.0
1962,F#2,100.281,0.25,127,90.0
1963,E-2,100.5,0.5,120,90.0
1964,A4,100.5,0.25,120,90.0
1965,C#3,100.5,0.25,120,90.0
1966,C#5,100.5,333/1000,100,90.0
1967,A5,100.5,333/1000,100,90.0
1968,A4,100.5,333/1000,100,90.0
1969,A3,100.5,333/1000,100,90.0
1970,A4,100.5,333/1000,100,90.0
1971,A3,100.5,333/1000,100,90.0
1972,G#3,100.513,0.078,127,90.0
1973,A4,100.531,0.25,127,90.0
1974,C2,100.531,0.25,127,90.0
1975,G#3,100.75,0.078,127,90.0
1976,C#3,100.75,0.25,120,90.0
1977,A4,100.781,1/100,127,90.0
1978,F#2,100.781,1/100,127,90.0
1979,C#3,101.0,0.25,120,90.0
1980,F#4,101.0,0.25,127,90.0
1981,F#3,101.0,0.25,127,90.0
1982,G#3,101.003,0.078,127,90.0
1983,A4,101.031,6/25,127,90.0
1984,F#2,101.031,6/25,127,90.0
1985,G#3,101.245,0.078,127,90.0
1986,C#3,101.25,0.25,120,90.0
1987,A4,101.271,0.25,127,90.0
1988,C#3,101.5,0.25,120,90.0
1989,G#3,101.505,19/250,127,90.0
1990,A4,101.521,0.25,127,90.0
1991,C2,101.521,0.25,127,90.0
1992,F#2,101.521,0.25,127,90.0
1993,G#3,101.75,0.086,127,90.0
1994,F#2,101.75,0.5,120,90.0
1995,F#4,101.75,0.25,120,90.0
1996,C#3,101.75,0.25,120,90.0
1997,F#5,101.75,333/1000,100,90.0
1998,C#5,101.75,333/1000,100,90.0
1999,F#3,101.75,333/1000,100,90.0
2000,F#4,101.75,333/1000,100,90.0
2001,F#3,101.75,333/1000,100,90.0
2002,F#4,101.75,333/1000,100,90.0
2003,A4,101.771,0.25,127,90.0
2004,C#3,102.0,0.25,120,90.0
2005,G#3,102.005,0.086,127,90.0
2006,A4,102.021,0.25,127,90.0
2007,D2,102.021,0.25,127,90.0
2008,F#2,102.021,0.25,127,90.0
2009,C#3,102.25,0.25,120,90.0
2010,A4,102.271,0.25,127,90.0
2011,G#3,102.273,23/200,127,90.0
2012,E2,102.5,0.5,120,90.0
2013,G#4,102.5,0.25,120,90.0
2014,C#3,102.5,0.25,120,90.0
2015,G#5,102.5,333/1000,100,90.0
2016,C#5,102.5,333/1000,100,90.0
2017,G#3,102.5,333/1000,100,90.0
2018,G#4,102.5,333/1000,100,90.0
2019,G#3,102.5,333/1000,100,90.0
2020,G#4,102.5,333/1000,100,90.0
2021,A4,102.521,0.25,127,90.0
2022,F#2,102.521,0.25,127,90.0
2023,C#3,102.75,0.25,120,90.0
2024,A4,102.771,0.25,127,90.0
2025,C2,102.771,0.25,127,90.0
2026,G#3,102.784,12/125,127,90.0
2027,C#3,103.0,0.25,120,90.0
2028,F#3,103.0,0.25,127,90.0
2029,F#4,103.0,0.25,127,90.0
2030,A4,103.021,0.25,127,90.0
2031,F#2,103.021,0.25,127,90.0
2032,C#3,103.25,0.25,120,90.0
2033,A4,103.271,0.25,127,90.0
2034,G#3,103.315,83/1000,127,90.0
2035,C#3,103.5,0.25,120,90.0
2036,A4,103.521,0.25,127,90.0
2037,C2,103.521,0.25,127,90.0
2038,F#2,103.521,0.25,127,90.0
2039,G#3,103.591,0.078,127,90.0
2040,B1,103.75,0.25,120,90.0
2041,A4,103.75,0.25,120,90.0
2042,C#3,103.75,0.25,120,90.0
2043,C#5,103.75,0.25,100,90.0
2044,A5,103.75,0.25,100,90.0
2045,A3,103.75,0.25,100,90.0
2046,A4,103.75,0.25,100,90.0
2047,A3,103.75,0.25,100,90.0
2048,A4,103.75,0.25,100,90.0
2049,A4,103.771,0.25,127,90.0
2050,G#3,103.828,0.086,127,90.0
2051,B1,104.0,0.25,120,90.0
2052,C#3,104.0,0.25,120,90.0
2053,C#5,104.0,83/1000,100,90.0
2054,A5,104.0,83/1000,100,90.0
2055,A3,104.0,83/1000,100,90.0
2056,A4,104.0,83/1000,100,90.0
2057,A3,104.0,83/1000,100,90.0
2058,A4,104.0,83/1000,100,90.0
2059,A4,104.021,0.25,127,90.0
2060,D2,104.021,0.25,127,90.0
2061,F#2,104.021,0.25,127,90.0
2062,G#3,104.078,0.086,127,90.0
2063,C#3,104.25,0.25,120,90.0
2064,A4,104.271,0.25,127,90.0
2065,G#3,104.312,83/1000,127,90.0
2066,C#2,104.5,0.5,120,90.0
2067,G#4,104.5,0.25,120,90.0
2068,C#3,104.5,0.25,120,90.0
2069,C#5,104.5,333/1000,100,90.0
2070,G#5,104.5,333/1000,100,90.0
2071,G#3,104.5,333/1000,100,90.0
2072,G#4,104.5,333/1000,100,90.0
2073,G#3,104.5,333/1000,100,90.0
2074,G#4,104.5,333/1000,100,90.0
2075,A4,104.521,0.25,127,90.0
2076,F#2,104.521,0.25,127,90.0
2077,G#3,104.542,89/1000,127,90.0
2078,C#3,104.75,0.25,120,90.0
2079,A4,104.771,0.25,127,90.0
2080,C2,104.771,0.25,127,90.0
2081,G#3,104.786,0.086,127,90.0
2082,C#3,105.0,0.25,120,90.0
2083,F#4,105.0,0.25,127,90.0
2084,F#3,105.0,0.25,127,90.0
2085,A4,105.021,1/100,127,90.0
2086,F#2,105.021,1/100,127,90.0
2087,G#3,105.214,13/125,127,90.0
2088,C#3,105.25,0.25,120,90.0
2089,A4,105.271,6/25,127,90.0
2090,F#2,105.271,6/25,127,90.0
2091,C#3,105.5,0.25,120,90.0
2092,A4,105.51,0.25,127,90.0
2093,G#3,105.523,81/1000,127,90.0
2094,C#3,105.75,0.25,120,90.0
2095,A4,105.76,0.25,127,90.0
2096,C2,105.76,0.25,127,90.0
2097,F#2,105.76,0.25,127,90.0
2098,G#3,105.779,19/250,127,90.0
2099,C#3,106.0,0.25,120,90.0
2100,A4,106.01,0.25,127,90.0
2101,G#3,106.029,83/1000,127,90.0
2102,C#3,106.25,0.25,120,90.0
2103,A4,106.26,0.25,127,90.0
2104,D2,106.26,0.25,127,90.0
2105,F#2,106.26,0.25,127,90.0
2106,G#3,106.268,81/1000,127,90.0
2107,C#3,106.5,0.25,120,90.0
2108,A4,106.51,0.25,127,90.0
2109,C#3,106.75,0.25,120,90.0
2110,A4,106.76,0.25,127,90.0
2111,F#2,106.76,0.25,127,90.0
2112,G#3,106.766,0.094,127,90.0
2113,C#3,107.0,0.25,120,90.0
2114,F#4,107.0,0.25,127,90.0
2115,F#3,107.0,0.25,127,90.0
2116,A4,107.01,0.25,127,90.0
2117,C2,107.01,0.25,127,90.0
2118,C#3,107.25,0.25,120,90.0
2119,A4,107.26,0.25,127,90.0
2120,F#2,107.26,0.25,127,90.0
2121,G#3,107.286,91/1000,127,90.0
2122,C#3,107.5,0.25,120,90.0
2123,A4,107.51,0.25,127,90.0
2124,G#3,107.552,81/1000,127,90.0
2125,E2,107.75,0.25,120,90.0
2126,G#4,107.75,0.25,120,90.0
2127,C#3,107.75,0.25,120,90.0
2128,G#5,107.75,0.25,100,90.0
2129,C#5,107.75,0.25,100,90.0
2130,G#4,107.75,0.25,100,90.0
2131,G#3,107.75,0.25,100,90.0
2132,G#4,107.75,0.25,100,90.0
2133,G#3,107.75,0.25,100,90.0
2134,A4,107.76,0.25,127,90.0
2135,C2,107.76,0.25,127,90.0
2136,F#2,107.76,0.25,127,90.0
2137,G#3,107.799,0.078,127,90.0
2138,E2,108.0,0.25,120,90.0
2139,C#3,108.0,0.25,120,90.0
2140,G#5,108.0,83/1000,100,90.0
2141,C#5,108.0,83/1000,100,90.0
2142,G#4,108.0,83/1000,100,90.0
2143,G#3,108.0,83/1000,100,90.0
2144,G#4,108.0,83/1000,100,90.0
2145,G#3,108.0,83/1000,100,90.0
2146,A4,108.01,0.25,127,90.0
2147,G#3,108.06,99/500,127,90.0
2148,C#3,108.25,0.25,120,90.0
2149,A4,108.26,0.25,127,90.0
2150,D2,108.26,0.25,127,90.0
2151,F#2,108.26,0.25,127,90.0
2152,E-2,108.5,0.5,120,90.0
2153,A4,108.5,0.25,120,90.0
2154,C#3,108.5,0.25,120,90.0
2155,A5,108.5,333/1000,100,90.0
2156,C#5,108.5,333/1000,100,90.0
2157,A4,108.5,333/1000,100,90.0
2158,A3,108.5,333/1000,100,90.0
2159,A4,108.5,333/1000,100,90.0
2160,A3,108.5,333/1000,100,90.0
2161,A4,108.51,0.25,127,90.0
2162,G#3,108.531,89/1000,127,90.0
2163,C#3,108.75,0.25,120,90.0
2164,A4,108.76,0.25,127,90.0
2165,F#2,108.76,0.25,127,90.0
2166,G#3,108.789,0.078,127,90.0
2167,C#3,109.0,0.25,120,90.0
2168,F#4,109.0,0.25,127,90.0
2169,F#3,109.0,0.25,127,90.0
2170,A4,109.01,0.25,127,90.0
2171,C2,109.01,0.25,127,90.0
2172,G#3,109.029,0.086,127,90.0
2173,C#3,109.25,0.25,120,90.0
2174,A4,109.26,1/100,127,90.0
2175,F#2,109.26,1/100,127,90.0
2176,G#3,109.286,83/1000,127,90.0
2177,C#3,109.5,0.25,120,90.0
2178,A4,109.51,6/25,127,90.0
2179,F#2,109.51,6/25,127,90.0
2180,G#3,109.549,12/125,127,90.0
2181,F#2,109.75,0.5,120,90.0
2182,F#4,109.75,0.25,120,90.0
2183,C#3,109.75,0.25,120,90.0
2184,A4,109.75,0.25,127,90.0
2185,C#5,109.75,333/1000,100,90.0
2186,F#5,109.75,333/1000,100,90.0
2187,F#3,109.75,333/1000,100,90.0
2188,F#4,109.75,333/1000,100,90.0
2189,F#3,109.75,333/1000,100,90.0
2190,F#4,109.75,333/1000,100,90.0
2191,C#3,110.0,0.25,120,90.0
2192,A4,110.0,0.25,127,90.0
2193,C2,110.0,0.25,127,90.0
2194,F#2,110.0,0.25,127,90.0
2195,G#3,110.031,81/1000,127,90.0
2196,C#3,110.25,0.25,120,90.0
2197,A4,110.25,0.25,127,90.0
2198,G#3,110.273,0.086,127,90.0
2199,E2,110.5,0.5,120,90.0
2200,G#4,110.5,0.25,120,90.0
2201,C#3,110.5,0.25,120,90.0
2202,C#5,110.5,333/1000,100,90.0
2203,G#5,110.5,333/1000,100,90.0
2204,G#3,110.5,333/1000,100,90.0
2205,G#4,110.5,333/1000,100,90.0
2206,G#3,110.5,333/1000,100,90.0
2207,G#4,110.5,333/1000,100,90.0
2208,A4,110.5,0.25,127,90.0
2209,D2,110.5,0.25,127,90.0
2210,F#2,110.5,0.25,127,90.0
2211,G#3,110.523,91/1000,127,90.0
2212,C#3,110.75,0.25,120,90.0
2213,A4,110.75,0.25,127,90.0
2214,G#3,110.81,13/125,127,90.0
2215,C#3,111.0,0.25,120,90.0
2216,F#4,111.0,0.25,127,90.0
2217,F#3,111.0,0.25,127,90.0
2218,A4,111.0,0.25,127,90.0
2219,F#2,111.0,0.25,127,90.0
2220,C#3,111.25,0.25,120,90.0
2221,A4,111.25,0.25,127,90.0
2222,C2,111.25,0.25,127,90.0
2223,G#3,111.284,91/1000,127,90.0
2224,C#3,111.5,0.25,120,90.0
2225,A4,111.5,0.25,127,90.0
2226,F#2,111.5,0.25,127,90.0
2227,G#3,111.591,0.094,127,90.0
2228,B2,111.75,0.25,115,90.0
2229,B1,111.75,0.25,120,90.0
2230,B3,111.75,0.25,120,90.0
2231,C#3,111.75,0.25,120,90.0
2232,A4,111.75,0.25,127,90.0
2233,B2,111.75,0.25,50,90.0
2234,A4,111.75,0.25,50,90.0
2235,A3,111.75,0.25,50,90.0
2236,B3,111.75,0.25,50,90.0
2237,B3,111.75,0.25,100,90.0
2238,A4,111.75,0.25,100,90.0
2239,A3,111.75,0.25,100,90.0
2240,B2,111.75,0.25,100,90.0
2241,B3,111.75,0.25,100,90.0
2242,A4,111.75,0.25,100,90.0
2243,A3,111.75,0.25,100,90.0
2244,B2,111.75,0.25,100,90.0
2245,G#3,111.831,107/1000,127,90.0
2246,B2,112.0,83/1000,115,90.0
2247,B1,112.0,0.25,120,90.0
2248,C#3,112.0,0.25,120,90.0
2249,B2,112.0,83/1000,50,90.0
2250,A4,112.0,83/1000,50,90.0
2251,A3,112.0,83/1000,50,90.0
2252,B3,112.0,83/1000,50,90.0
2253,B3,112.0,83/1000,100,90.0
2254,A4,112.0,83/1000,100,90.0
2255,A3,112.0,83/1000,100,90.0
2256,B2,112.0,83/1000,100,90.0
2257,B3,112.0,83/1000,100,90.0
2258,A4,112.0,83/1000,100,90.0
2259,A3,112.0,83/1000,100,90.0
2260,B2,112.0,83/1000,100,90.0
2261,A4,112.0,0.25,127,90.0
2262,C2,112.0,0.25,127,90.0
2263,F#2,112.0,0.25,127,90.0
2264,G#3,112.081,107/1000,127,90.0
2265,A4,112.25,0.25,127,90.0
2266,G#3,112.398,0.094,127,90.0
2267,C#3,112.5,333/1000,115,90.0
2268,C#2,112.5,0.5,120,90.0
2269,C#4,112.5,0.25,120,90.0
2270,C#3,112.5,0.5,120,90.0
2271,C#4,112.5,333/1000,50,90.0
2272,C#3,112.5,333/1000,50,90.0
2273,G#4,112.5,333/1000,50,90.0
2274,G#3,112.5,333/1000,50,90.0
2275,G#4,112.5,333/1000,100,90.0
2276,C#4,112.5,333/1000,100,90.0
2277,C#3,112.5,333/1000,100,90.0
2278,G#3,112.5,333/1000,100,90.0
2279,G#4,112.5,333/1000,100,90.0
2280,C#4,112.5,333/1000,100,90.0
2281,C#3,112.5,333/1000,100,90.0
2282,G#3,112.5,333/1000,100,90.0
2283,A4,112.5,0.25,127,90.0
2284,D2,112.5,0.25,127,90.0
2285,F#2,112.5,0.25,127,90.0
2286,G#3,112.716,91/1000,127,90.0
2287,A4,112.75,0.25,127,90.0
2288,F#4,113.0,0.25,127,90.0
2289,F#3,113.0,0.25,127,90.0
2290,A4,113.0,0.25,127,90.0
2291,F#2,113.0,0.25,127,90.0
2292,G#3,113.044,13/125,127,90.0
2293,A4,113.25,0.25,127,90.0
2294,C2,113.25,0.25,127,90.0
2295,A4,113.5,1/100,127,90.0
2296,F#2,113.5,1/100,127,90.0
2297,G#3,113.69,83/1000,127,90.0
2298,A4,113.75,6/25,127,90.0
2299,F#2,113.75,6/25,127,90.0
2300,A4,113.99,0.25,127,90.0
2301,G#3,114.008,0.086,127,90.0
2302,A4,114.24,0.25,127,90.0
2303,C2,114.24,0.25,127,90.0
2304,F#2,114.24,0.25,127,90.0
2305,G#3,114.268,0.078,127,90.0
2306,A4,114.49,0.25,127,90.0
2307,G#3,114.51,83/1000,127,90.0
2308,A4,114.74,0.25,127,90.0
2309,D2,114.74,0.25,127,90.0
2310,F#2,114.74,0.25,127,90.0
2311,G#3,114.776,81/1000,127,90.0
2312,A4,114.99,0.25,127,90.0
2313,F#4,115.0,0.25,127,90.0
2314,F#3,115.0,0.25,127,90.0
2315,G#3,115.055,0.109,127,90.0
2316,A4,115.24,0.25,127,90.0
2317,F#2,115.24,0.25,127,90.0
2318,A4,115.49,0.25,127,90.0
2319,C2,115.49,0.25,127,90.0
2320,G#3,115.521,83/1000,127,90.0
2321,A4,115.74,0.25,127,90.0
2322,F#2,115.74,0.25,127,90.0
2323,E2,115.75,0.25,120,90.0
2324,C#3,115.75,0.25,120,90.0
2325,G#3,115.75,0.25,100,90.0
2326,G#4,115.75,0.25,100,90.0
2327,G#3,115.75,0.25,100,90.0
2328,G#4,115.75,0.25,100,90.0
2329,G#3,115.773,83/1000,127,90.0
2330,A4,115.99,0.25,127,90.0
2331,E2,116.0,0.25,120,90.0
2332,C#3,116.0,0.25,120,90.0
2333,G#3,116.0,83/1000,100,90.0
2334,G#4,116.0,83/1000,100,90.0
2335,G#3,116.0,83/1000,100,90.0
2336,G#4,116.0,83/1000,100,90.0
2337,G#3,116.036,23/200,127,90.0
2338,A4,116.24,0.25,127,90.0
2339,C2,116.24,0.25,127,90.0
2340,F#2,116.24,0.25,127,90.0
2341,A4,116.49,0.25,127,90.0
2342,E-2,116.5,0.5,120,90.0
2343,C#3,116.5,0.5,120,90.0
2344,A3,116.5,333/1000,100,90.0
2345,A4,116.5,333/1000,100,90.0
2346,A3,116.5,333/1000,100,90.0
2347,A4,116.5,333/1000,100,90.0
2348,G#3,116.521,0.086,127,90.0
2349,A4,116.74,0.25,127,90.0
2350,D2,116.74,0.25,127,90.0
2351,F#2,116.74,0.25,127,90.0
2352,G#3,116.768,0.086,127,90.0
2353,A4,116.99,0.25,127,90.0
2354,F#4,117.0,0.25,127,90.0
2355,F#3,117.0,0.25,127,90.0
2356,G#3,117.065,0.125,127,90.0
2357,A4,117.24,0.25,127,90.0
2358,F#2,117.24,0.25,127,90.0
2359,A4,117.49,0.25,127,90.0
2360,C2,117.49,0.25,127,90.0
2361,G#3,117.521,83/1000,127,90.0
2362,A4,117.74,1/100,127,90.0
2363,F#2,117.74,1/100,127,90.0
2364,F#2,117.75,0.5,120,90.0
2365,C#3,117.75,0.5,120,90.0
2366,F#3,117.75,333/1000,100,90.0
2367,F#4,117.75,333/1000,100,90.0
2368,F#3,117.75,333/1000,100,90.0
2369,F#4,117.75,333/1000,100,90.0
2370,G#3,117.779,0.078,127,90.0
2371,A4,117.99,6/25,127,90.0
2372,F#2,117.99,6/25,127,90.0
2373,G#3,118.023,19/250,127,90.0
2374,A4,118.229,0.25,127,90.0
2375,G#3,118.273,81/1000,127,90.0
2376,A4,118.479,0.25,127,90.0
2377,C2,118.479,0.25,127,90.0
2378,F#2,118.479,0.25,127,90.0
2379,E2,118.5,0.5,120,90.0
2380,C#3,118.5,0.5,120,90.0
2381,G#4,118.5,333/1000,100,90.0
2382,G#3,118.5,333/1000,100,90.0
2383,G#4,118.5,333/1000,100,90.0
2384,G#3,118.5,333/1000,100,90.0
2385,G#3,118.521,0.086,127,90.0
2386,A4,118.729,0.25,127,90.0
2387,G#3,118.799,14/125,127,90.0
2388,A4,118.979,0.25,127,90.0
2389,D2,118.979,0.25,127,90.0
2390,F#2,118.979,0.25,127,90.0
2391,F#4,119.0,0.25,127,90.0
2392,F#3,119.0,0.25,127,90.0
2393,A4,119.229,0.25,127,90.0
2394,G#3,119.318,81/1000,127,90.0
2395,A4,119.479,0.25,127,90.0
2396,F#2,119.479,0.25,127,90.0
2397,G#3,119.586,81/1000,127,90.0
2398,A4,119.729,0.25,127,90.0
2399,C2,119.729,0.25,127,90.0
2400,B1,119.75,0.25,120,90.0
2401,C#3,119.75,0.25,120,90.0
2402,A3,119.75,0.25,100,90.0
2403,A4,119.75,0.25,100,90.0
2404,A3,119.75,0.25,100,90.0
2405,A4,119.75,0.25,100,90.0
2406,G#3,119.815,81/1000,127,90.0
2407,A4,119.979,0.25,127,90.0
2408,F#2,119.979,0.25,127,90.0
2409,B1,120.0,0.25,120,90.0
2410,C#3,120.0,0.25,120,90.0
2411,A3,120.0,83/1000,100,90.0
2412,A4,120.0,83/1000,100,90.0
2413,A3,120.0,83/1000,100,90.0
2414,A4,120.0,83/1000,100,90.0
2415,G#3,120.034,83/1000,127,90.0
2416,A4,120.229,0.25,127,90.0
2417,G#3,120.268,81/1000,127,90.0
2418,A4,120.479,0.25,127,90.0
2419,C2,120.479,0.25,127,90.0
2420,F#2,120.479,0.25,127,90.0
2421,C#2,120.5,0.5,120,90.0
2422,C#3,120.5,0.5,120,90.0
2423,G#3,120.5,333/1000,100,90.0
2424,G#4,120.5,333/1000,100,90.0
2425,G#3,120.5,333/1000,100,90.0
2426,G#4,120.5,333/1000,100,90.0
2427,G#3,120.523,0.086,127,90.0
2428,A4,120.729,0.25,127,90.0
2429,G#3,120.794,81/1000,127,90.0
2430,A4,120.979,0.25,127,90.0
2431,D2,120.979,0.25,127,90.0
2432,F#2,120.979,0.25,127,90.0
2433,F#3,121.0,0.25,127,90.0
2434,F#4,121.0,0.25,127,90.0
2435,G#3,121.039,81/1000,127,90.0
2436,A4,121.229,0.25,127,90.0
2437,G#3,121.297,0.109,127,90.0
2438,A4,121.479,0.25,127,90.0
2439,F#2,121.479,0.25,127,90.0
2440,A4,121.729,0.25,127,90.0
2441,C2,121.729,0.25,127,90.0
2442,G#3,121.763,81/1000,127,90.0
2443,A4,121.979,1/100,127,90.0
2444,F#2,121.979,1/100,127,90.0
2445,G#3,122.013,91/1000,127,90.0
2446,A4,122.229,6/25,127,90.0
2447,F#2,122.229,6/25,127,90.0
2448,G#3,122.284,81/1000,127,90.0
2449,A4,122.469,0.25,127,90.0
2450,G#3,122.529,83/1000,127,90.0
2451,A4,122.719,0.25,127,90.0
2452,C2,122.719,0.25,127,90.0
2453,F#2,122.719,0.25,127,90.0
2454,G#3,122.799,16/125,127,90.0
2455,A4,122.969,0.25,127,90.0
2456,F#3,123.0,0.25,127,90.0
2457,F#4,123.0,0.25,127,90.0
2458,A4,123.219,0.25,127,90.0
2459,D2,123.219,0.25,127,90.0
2460,F#2,123.219,0.25,127,90.0
2461,G#3,123.289,89/1000,127,90.0
2462,A4,123.469,0.25,127,90.0
2463,G#3,123.568,0.102,127,90.0
2464,A4,123.719,0.25,127,90.0
2465,F#2,123.719,0.25,127,90.0
2466,E2,123.75,0.25,120,90.0
2467,C#3,123.75,0.25,120,90.0
2468,G#3,123.75,0.25,100,90.0
2469,G#4,123.75,0.25,100,90.0
2470,G#3,123.75,0.25,100,90.0
2471,G#4,123.75,0.25,100,90.0
2472,A4,123.969,0.25,127,90.0
2473,C2,123.969,0.25,127,90.0
2474,G#3,123.977,0.023,127,90.0
2475,G#3,124.0,13/200,127,90.0
2476,E2,124.0,0.25,120,90.0
2477,C#3,124.0,0.25,120,90.0
2478,G#3,124.0,83/1000,100,90.0
2479,G#4,124.0,83/1000,100,90.0
2480,G#3,124.0,83/1000,100,90.0
2481,G#4,124.0,83/1000,100,90.0
2482,A4,124.219,0.25,127,90.0
2483,F#2,124.219,0.25,127,90.0
2484,G#3,124.258,81/1000,127,90.0
2485,A4,124.469,0.25,127,90.0
2486,E-2,124.5,0.5,120,90.0
2487,C#3,124.5,0.5,120,90.0
2488,A3,124.5,333/1000,100,90.0
2489,A4,124.5,333/1000,100,90.0
2490,A3,124.5,333/1000,100,90.0
2491,A4,124.5,333/1000,100,90.0
2492,G#3,124.521,81/1000,127,90.0
2493,A4,124.719,0.25,127,90.0
2494,C2,124.719,0.25,127,90.0
2495,F#2,124.719,0.25,127,90.0
2496,G#3,124.768,83/1000,127,90.0
2497,A4,124.969,0.25,127,90.0
2498,F#4,125.0,0.25,127,90.0
2499,F#3,125.0,0.25,127,90.0
2500,G#3,125.036,99/1000,127,90.0
2501,A4,125.219,0.25,127,90.0
2502,D2,125.219,0.25,127,90.0
2503,F#2,125.219,0.25,127,90.0
2504,A4,125.469,0.25,127,90.0
2505,G#3,125.513,81/1000,127,90.0
2506,A4,125.719,0.25,127,90.0
2507,F#2,125.719,0.25,127,90.0
2508,F#2,125.75,0.5,120,90.0
2509,F#4,125.75,333/1000,100,90.0
2510,F#3,125.75,333/1000,100,90.0
2511,F#4,125.75,333/1000,100,90.0
2512,F#3,125.75,333/1000,100,90.0
2513,G#3,125.766,19/250,127,90.0
2514,A4,125.969,0.25,127,90.0
2515,C2,125.969,0.25,127,90.0
2516,G#3,126.018,83/1000,127,90.0
2517,A4,126.219,1/100,127,90.0
2518,F#2,126.219,1/100,127,90.0
2519,G#3,126.266,81/1000,127,90.0
2520,A4,126.469,6/25,127,90.0
2521,F#2,126.469,6/25,127,90.0
2522,E2,126.5,0.5,120,90.0
2523,G#4,126.5,333/1000,100,90.0
2524,G#3,126.5,333/1000,100,90.0
2525,G#4,126.5,333/1000,100,90.0
2526,G#3,126.5,333/1000,100,90.0
2527,G#3,126.516,83/1000,127,90.0
2528,A4,126.708,0.25,127,90.0
2529,G#3,126.766,81/1000,127,90.0
2530,A4,126.958,0.25,127,90.0
2531,C2,126.958,0.25,127,90.0
2532,F#2,126.958,0.25,127,90.0
2533,F#4,127.0,0.25,127,90.0
2534,F#3,127.0,0.25,127,90.0
2535,G#3,127.052,13/125,127,90.0
2536,A4,127.208,0.25,127,90.0
2537,G#3,127.286,13/125,127,90.0
2538,A4,127.458,0.25,127,90.0
2539,D2,127.458,0.25,127,90.0
2540,F#2,127.458,0.25,127,90.0
2541,G#3,127.534,14/125,127,90.0
2542,A4,127.708,0.25,127,90.0
2543,B1,127.75,0.25,120,90.0
2544,A4,127.75,0.25,120,90.0
2545,C#3,127.75,0.25,120,90.0
2546,C#5,127.75,0.25,100,90.0
2547,A5,127.75,0.25,100,90.0
2548,A3,127.75,0.25,100,90.0
2549,A4,127.75,0.25,100,90.0
2550,A3,127.75,0.25,100,90.0
2551,A4,127.75,0.25,100,90.0
2552,G#3,127.766,12/125,127,90.0
2553,A4,127.958,0.25,127,90.0
2554,F#2,127.958,0.25,127,90.0
2555,B1,128.0,0.25,120,90.0
2556,A4,128.0,0.25,120,90.0
2557,C#3,128.0,0.25,120,90.0
2558,C#5,128.0,83/1000,100,90.0
2559,A5,128.0,83/1000,100,90.0
2560,A3,128.0,83/1000,100,90.0
2561,A4,128.0,83/1000,100,90.0
2562,A3,128.0,83/1000,100,90.0
2563,A4,128.0,83/1000,100,90.0
2564,G#3,128.023,0.383,127,90.0
2565,A4,128.208,0.25,127,90.0
2566,C2,128.208,0.25,127,90.0
2567,C#3,128.25,0.25,120,90.0
2568,A4,128.458,0.25,127,90.0
2569,F#2,128.458,0.25,127,90.0
2570,C#2,128.5,0.5,120,90.0
2571,G#4,128.5,0.5,120,90.0
2572,C#3,128.5,0.25,120,90.0
2573,G#5,128.5,333/1000,100,90.0
2574,C#5,128.5,333/1000,100,90.0
2575,G#3,128.5,333/1000,100,90.0
2576,G#4,128.5,333/1000,100,90.0
2577,G#3,128.5,333/1000,100,90.0
2578,G#4,128.5,333/1000,100,90.0
2579,A4,128.708,0.25,127,90.0
2580,C#3,128.75,0.25,120,90.0
2581,A4,128.958,0.25,127,90.0
2582,C2,128.958,0.25,127,90.0
2583,F#2,128.958,0.25,127,90.0
2584,C#3,129.0,0.25,120,90.0
2585,F#4,129.0,0.25,127,90.0
2586,F#3,129.0,0.25,127,90.0
2587,G#3,129.036,107/1000,127,90.0
2588,A4,129.208,0.25,127,90.0
2589,C#3,129.25,0.25,120,90.0
2590,G#3,129.281,13/125,127,90.0
2591,A4,129.458,0.25,127,90.0
2592,D2,129.458,0.25,127,90.0
2593,F#2,129.458,0.25,127,90.0
2594,C#3,129.5,0.25,120,90.0
2595,G#3,129.526,91/1000,127,90.0
2596,A4,129.708,0.25,127,90.0
2597,C#3,129.75,0.25,120,90.0
2598,G#3,129.76,99/1000,127,90.0
2599,A4,129.958,0.25,127,90.0
2600,F#2,129.958,0.25,127,90.0
2601,C#3,130.0,0.25,120,90.0
2602,G#3,130.047,299/1000,127,90.0
2603,A4,130.208,0.25,127,90.0
2604,C2,130.208,0.25,127,90.0
2605,C#3,130.25,0.25,120,90.0
2606,A4,130.458,1/100,127,90.0
2607,F#2,130.458,1/100,127,90.0
2608,C#3,130.5,0.25,120,90.0
2609,G#3,130.536,14/125,127,90.0
2610,A4,130.708,6/25,127,90.0
2611,F#2,130.708,6/25,127,90.0
2612,C#3,130.75,0.25,120,90.0
2613,G#3,130.789,323/1000,127,90.0
2614,A4,130.948,0.25,127,90.0
2615,C#3,131.0,0.25,120,90.0
2616,F#4,131.0,0.25,127,90.0
2617,F#3,131.0,0.25,127,90.0
2618,A4,131.198,0.25,127,90.0
2619,C2,131.198,0.25,127,90.0
2620,F#2,131.198,0.25,127,90.0
2621,C#3,131.25,0.25,120,90.0
2622,G#3,131.271,27/200,127,90.0
2623,A4,131.448,0.25,127,90.0
2624,C#3,131.5,0.25,120,90.0
2625,G#3,131.534,107/1000,127,90.0
2626,A4,131.698,0.25,127,90.0
2627,D2,131.698,0.25,127,90.0
2628,F#2,131.698,0.25,127,90.0
2629,E2,131.75,0.25,120,90.0
2630,G#4,131.75,0.25,120,90.0
2631,C#3,131.75,0.25,120,90.0
2632,G#5,131.75,0.25,100,90.0
2633,C#5,131.75,0.25,100,90.0
2634,G#3,131.75,0.25,100,90.0
2635,G#4,131.75,0.25,100,90.0
2636,G#3,131.75,0.25,100,90.0
2637,G#4,131.75,0.25,100,90.0
2638,G#3,131.781,0.094,127,90.0
2639,A4,131.948,0.25,127,90.0
2640,E2,132.0,0.25,120,90.0
2641,C#3,132.0,0.25,120,90.0
2642,G#5,132.0,83/1000,100,90.0
2643,C#5,132.0,83/1000,100,90.0
2644,G#3,132.0,83/1000,100,90.0
2645,G#4,132.0,83/1000,100,90.0
2646,G#3,132.0,83/1000,100,90.0
2647,G#4,132.0,83/1000,100,90.0
2648,G#3,132.042,163/500,127,90.0
2649,A4,132.198,0.25,127,90.0
2650,F#2,132.198,0.25,127,90.0
2651,C#3,132.25,0.25,120,90.0
2652,A4,132.448,0.25,127,90.0
2653,C2,132.448,0.25,127,90.0
2654,E-2,132.5,0.5,120,90.0
2655,A4,132.5,0.25,120,90.0
2656,C#3,132.5,0.25,120,90.0
2657,C#5,132.5,333/1000,100,90.0
2658,A5,132.5,333/1000,100,90.0
2659,A4,132.5,333/1000,100,90.0
2660,A3,132.5,333/1000,100,90.0
2661,A4,132.5,333/1000,100,90.0
2662,A3,132.5,333/1000,100,90.0
2663,G#3,132.552,0.102,127,90.0
2664,A4,132.698,0.25,127,90.0
2665,F#2,132.698,0.25,127,90.0
2666,C#3,132.75,0.25,120,90.0
2667,G#3,132.807,151/500,127,90.0
2668,A4,132.948,0.25,127,90.0
2669,C#3,133.0,0.25,120,90.0
2670,F#4,133.0,0.25,127,90.0
2671,F#3,133.0,0.25,127,90.0
2672,A4,133.198,0.25,127,90.0
2673,C2,133.198,0.25,127,90.0
2674,F#2,133.198,0.25,127,90.0
2675,C#3,133.25,0.25,120,90.0
2676,G#3,133.286,99/1000,127,90.0
2677,A4,133.448,0.25,127,90.0
2678,C#3,133.5,0.25,120,90.0
2679,G#3,133.56,83/1000,127,90.0
2680,A4,133.698,0.25,127,90.0
2681,D2,133.698,0.25,127,90.0
2682,F#2,133.698,0.25,127,90.0
2683,F#2,133.75,0.5,120,90.0
2684,F#4,133.75,0.25,120,90.0
2685,C#3,133.75,0.25,120,90.0
2686,C#5,133.75,333/1000,100,90.0
2687,F#5,133.75,333/1000,100,90.0
2688,F#4,133.75,333/1000,100,90.0
2689,F#3,133.75,333/1000,100,90.0
2690,F#4,133.75,333/1000,100,90.0
2691,F#3,133.75,333/1000,100,90.0
2692,G#3,133.797,0.094,127,90.0
2693,A4,133.948,0.25,127,90.0
2694,C#3,134.0,0.25,120,90.0
2695,G#3,134.052,189/500,127,90.0
2696,A4,134.198,0.25,127,90.0
2697,F#2,134.198,0.25,127,90.0
2698,C#3,134.25,0.25,120,90.0
2699,A4,134.448,0.25,127,90.0
2700,C2,134.448,0.25,127,90.0
2701,E2,134.5,0.5,120,90.0
2702,G#4,134.5,0.25,120,90.0
2703,C#3,134.5,0.25,120,90.0
2704,C#5,134.5,333/1000,100,90.0
2705,G#5,134.5,333/1000,100,90.0
2706,G#3,134.5,333/1000,100,90.0
2707,G#4,134.5,333/1000,100,90.0
2708,G#3,134.5,333/1000,100,90.0
2709,G#4,134.5,333/1000,100,90.0
2710,A4,134.698,1/100,127,90.0
2711,F#2,134.698,1/100,127,90.0
2712,G#3,134.747,99/1000,127,90.0
2713,C#3,134.75,0.25,120,90.0
2714,A4,134.948,6/25,127,90.0
2715,F#2,134.948,6/25,127,90.0
2716,C#3,135.0,0.25,120,90.0
2717,F#4,135.0,0.25,127,90.0
2718,F#3,135.0,0.25,127,90.0
2719,G#3,135.026,13/125,127,90.0
2720,A4,135.188,0.25,127,90.0
2721,C#3,135.25,0.25,120,90.0
2722,G#3,135.268,0.102,127,90.0
2723,A4,135.438,0.25,127,90.0
2724,C2,135.438,0.25,127,90.0
2725,F#2,135.438,0.25,127,90.0
2726,C#3,135.5,0.25,120,90.0
2727,G#3,135.526,0.102,127,90.0
2728,A4,135.688,0.25,127,90.0
2729,B1,135.75,0.25,120,90.0
2730,A4,135.75,0.25,120,90.0
2731,C#3,135.75,0.25,120,90.0
2732,A5,135.75,0.25,100,90.0
2733,C#5,135.75,0.25,100,90.0
2734,A3,135.75,0.25,100,90.0
2735,A4,135.75,0.25,100,90.0
2736,A3,135.75,0.25,100,90.0
2737,A4,135.75,0.25,100,90.0
2738,G#3,135.779,0.086,127,90.0
2739,A4,135.938,0.25,127,90.0
2740,D2,135.938,0.25,127,90.0
2741,F#2,135.938,0.25,127,90.0
2742,B1,136.0,0.25,120,90.0
2743,A4,136.0,0.25,120,90.0
2744,C#3,136.0,0.25,120,90.0
2745,A5,136.0,83/1000,100,90.0
2746,C#5,136.0,83/1000,100,90.0
2747,A3,136.0,83/1000,100,90.0
2748,A4,136.0,83/1000,100,90.0
2749,A3,136.0,83/1000,100,90.0
2750,A4,136.0,83/1000,100,90.0
2751,G#3,136.039,0.195,127,90.0
2752,A4,136.188,0.25,127,90.0
2753,C#3,136.25,0.25,120,90.0
2754,A4,136.438,0.25,127,90.0
2755,F#2,136.438,0.25,127,90.0
2756,G#3,136.5,83/1000,127,90.0
2757,C#2,136.5,0.5,120,90.0
2758,G#4,136.5,0.25,120,90.0
2759,C#3,136.5,0.25,120,90.0
2760,C#5,136.5,333/1000,100,90.0
2761,G#5,136.5,333/1000,100,90.0
2762,G#3,136.5,333/1000,100,90.0
2763,G#4,136.5,333/1000,100,90.0
2764,G#3,136.5,333/1000,100,90.0
2765,G#4,136.5,333/1000,100,90.0
2766,A4,136.688,0.25,127,90.0
2767,C2,136.688,0.25,127,90.0
2768,G#3,136.75,0.102,127,90.0
2769,C#3,136.75,0.25,120,90.0
2770,A4,136.938,0.25,127,90.0
2771,F#2,136.938,0.25,127,90.0
2772,C#3,137.0,0.25,120,90.0
2773,F#4,137.0,0.25,127,90.0
2774,F#3,137.0,0.25,127,90.0
2775,G#3,137.013,3/25,127,90.0
2776,A4,137.188,0.25,127,90.0
2777,C#3,137.25,0.25,120,90.0
2778,G#3,137.268,99/1000,127,90.0
2779,A4,137.438,0.25,127,90.0
2780,C2,137.438,0.25,127,90.0
2781,F#2,137.438,0.25,127,90.0
2782,C#3,137.5,0.25,120,90.0
2783,G#3,137.518,99/1000,127,90.0
2784,A4,137.688,0.25,127,90.0
2785,C#3,137.75,0.25,120,90.0
2786,G#3,137.779,0.109,127,90.0
2787,A4,137.938,0.25,127,90.0
2788,D2,137.938,0.25,127,90.0
2789,F#2,137.938,0.25,127,90.0
2790,C#3,138.0,0.25,120,90.0
2791,G#3,138.049,159/500,127,90.0
2792,A4,138.188,0.25,127,90.0
2793,C#3,138.25,0.25,120,90.0
2794,A4,138.438,0.25,127,90.0
2795,F#2,138.438,0.25,127,90.0
2796,C#3,138.5,0.25,120,90.0
2797,G#3,138.523,0.125,127,90.0
2798,A4,138.688,0.25,127,90.0
2799,C2,138.688,0.25,127,90.0
2800,C#3,138.75,0.25,120,90.0
2801,G#3,138.799,71/250,127,90.0
2802,A4,138.938,1/100,127,90.0
2803,F#2,138.938,1/100,127,90.0
2804,C#3,139.0,0.25,120,90.0
2805,F#4,139.0,0.25,127,90.0
2806,F#3,139.0,0.25,127,90.0
2807,A4,139.188,6/25,127,90.0
2808,F#2,139.188,6/25,127,90.0
2809,G#3,139.245,99/1000,127,90.0
2810,C#3,139.25,0.25,120,90.0
2811,A4,139.427,0.25,127,90.0
2812,C#3,139.5,0.25,120,90.0
2813,G#3,139.518,99/1000,127,90.0
2814,A4,139.677,0.25,127,90.0
2815,C2,139.677,0.25,127,90.0
2816,F#2,139.677,0.25,127,90.0
2817,E2,139.75,0.25,120,90.0
2818,G#4,139.75,0.25,120,90.0
2819,C#3,139.75,0.25,120,90.0
2820,G#5,139.75,0.25,100,90.0
2821,C#5,139.75,0.25,100,90.0
2822,G#3,139.75,0.25,100,90.0
2823,G#4,139.75,0.25,100,90.0
2824,G#3,139.75,0.25,100,90.0
2825,G#4,139.75,0.25,100,90.0
2826,G#3,139.771,0.094,127,90.0
2827,A4,139.927,0.25,127,90.0
2828,E2,140.0,0.25,120,90.0
2829,C#3,140.0,0.25,120,90.0
2830,G#5,140.0,83/1000,100,90.0
2831,C#5,140.0,83/1000,100,90.0
2832,G#3,140.0,83/1000,100,90.0
2833,G#4,140.0,83/1000,100,90.0
2834,G#3,140.0,83/1000,100,90.0
2835,G#4,140.0,83/1000,100,90.0
2836,G#3,140.031,163/500,127,90.0
2837,A4,140.177,0.25,127,90.0
2838,D2,140.177,0.25,127,90.0
2839,F#2,140.177,0.25,127,90.0
2840,C#3,140.25,0.25,120,90.0
2841,A4,140.427,0.25,127,90.0
2842,E-2,140.5,0.5,120,90.0
2843,A4,140.5,0.25,120,90.0
2844,C#3,140.5,0.25,120,90.0
2845,C#5,140.5,333/1000,100,90.0
2846,A5,140.5,333/1000,100,90.0
2847,A4,140.5,333/1000,100,90.0
2848,A3,140.5,333/1000,100,90.0
2849,A4,140.5,333/1000,100,90.0
2850,A3,140.5,333/1000,100,90.0
2851,G#3,140.536,91/1000,127,90.0
2852,A4,140.677,0.25,127,90.0
2853,F#2,140.677,0.25,127,90.0
2854,C#3,140.75,0.25,120,90.0
2855,G#3,140.799,307/1000,127,90.0
2856,A4,140.927,0.25,127,90.0
2857,C2,140.927,0.25,127,90.0
2858,C#3,141.0,0.25,120,90.0
2859,F#3,141.0,0.25,127,90.0
2860,F#4,141.0,0.25,127,90.0
2861,A4,141.177,0.25,127,90.0
2862,F#2,141.177,0.25,127,90.0
2863,C#3,141.25,0.25,120,90.0
2864,G#3,141.315,107/1000,127,90.0
2865,A4,141.427,0.25,127,90.0
2866,C#3,141.5,0.25,120,90.0
2867,G#3,141.56,107/1000,127,90.0
2868,A4,141.677,0.25,127,90.0
2869,C2,141.677,0.25,127,90.0
2870,F#2,141.677,0.25,127,90.0
2871,F#2,141.75,0.5,120,90.0
2872,F#4,141.75,0.25,120,90.0
2873,C#3,141.75,0.25,120,90.0
2874,F#5,141.75,333/1000,100,90.0
2875,C#5,141.75,333/1000,100,90.0
2876,F#3,141.75,333/1000,100,90.0
2877,F#4,141.75,333/1000,100,90.0
2878,F#3,141.75,333/1000,100,90.0
2879,F#4,141.75,333/1000,100,90.0
2880,G#3,141.799,12/125,127,90.0
2881,A4,141.927,0.25,127,90.0
2882,C#3,142.0,0.25,120,90.0
2883,G#3,142.039,0.297,127,90.0
2884,A4,142.177,0.25,127,90.0
2885,D2,142.177,0.25,127,90.0
2886,F#2,142.177,0.25,127,90.0
2887,C#3,142.25,0.25,120,90.0
2888,A4,142.427,0.25,127,90.0
2889,E2,142.5,0.5,120,90.0
2890,G#4,142.5,0.25,120,90.0
2891,C#3,142.5,0.25,120,90.0
2892,G#5,142.5,333/1000,100,90.0
2893,C#5,142.5,333/1000,100,90.0
2894,G#3,142.5,333/1000,100,90.0
2895,G#4,142.5,333/1000,100,90.0
2896,G#3,142.5,333/1000,100,90.0
2897,G#4,142.5,333/1000,100,90.0
2898,A4,142.677,0.25,127,90.0
2899,F#2,142.677,0.25,127,90.0
2900,C#3,142.75,0.25,120,90.0
2901,G#3,142.792,12/125,127,90.0
2902,A4,142.927,0.25,127,90.0
2903,C2,142.927,0.25,127,90.0
2904,C#3,143.0,0.25,120,90.0
2905,F#4,143.0,0.25,127,90.0
2906,F#3,143.0,0.25,127,90.0
2907,G#3,143.039,14/125,127,90.0
2908,A4,143.177,1/100,127,90.0
2909,F#2,143.177,1/100,127,90.0
2910,C#3,143.25,0.25,120,90.0
2911,G#3,143.289,107/1000,127,90.0
2912,A4,143.427,6/25,127,90.0
2913,F#2,143.427,6/25,127,90.0
2914,C#3,143.5,0.25,120,90.0
2915,G#3,143.542,13/125,127,90.0
2916,A4,143.667,0.25,127,90.0
2917,B1,143.75,0.25,120,90.0
2918,A4,143.75,0.25,120,90.0
2919,C#3,143.75,0.25,120,90.0
2920,C#5,143.75,0.25,100,90.0
2921,A5,143.75,0.25,100,90.0
2922,A3,143.75,0.25,100,90.0
2923,A4,143.75,0.25,100,90.0
2924,A3,143.75,0.25,100,90.0
2925,A4,143.75,0.25,100,90.0
2926,G#3,143.792,0.102,127,90.0
2927,A4,143.917,0.25,127,90.0
2928,C2,143.917,0.25,127,90.0
2929,F#2,143.917,0.25,127,90.0
2930,B1,144.0,0.25,120,90.0
2931,C#3,144.0,0.25,120,90.0
2932,C#5,144.0,83/1000,100,90.0
2933,A5,144.0,83/1000,100,90.0
2934,A3,144.0,83/1000,100,90.0
2935,A4,144.0,83/1000,100,90.0
2936,A3,144.0,83/1000,100,90.0
2937,A4,144.0,83/1000,100,90.0
2938,G#3,144.047,159/500,127,90.0
2939,A4,144.167,0.25,127,90.0
2940,C#3,144.25,0.25,120,90.0
2941,A4,144.417,0.25,127,90.0
2942,D2,144.417,0.25,127,90.0
2943,F#2,144.417,0.25,127,90.0
2944,C#2,144.5,0.5,120,90.0
2945,G#4,144.5,0.25,120,90.0
2946,C#3,144.5,0.25,120,90.0
2947,C#5,144.5,333/1000,100,90.0
2948,G#5,144.5,333/1000,100,90.0
2949,G#3,144.5,333/1000,100,90.0
2950,G#4,144.5,333/1000,100,90.0
2951,G#3,144.5,333/1000,100,90.0
2952,G#4,144.5,333/1000,100,90.0
2953,A4,144.667,0.25,127,90.0
2954,C#3,144.75,0.25,120,90.0
2955,A4,144.917,0.25,127,90.0
2956,F#2,144.917,0.25,127,90.0
2957,G#3,144.987,99/1000,127,90.0
2958,C#3,145.0,0.25,120,90.0
2959,F#4,145.0,0.25,127,90.0
2960,F#3,145.0,0.25,127,90.0
2961,A4,145.167,0.25,127,90.0
2962,C2,145.167,0.25,127,90.0
2963,G#3,145.234,99/1000,127,90.0
2964,C#3,145.25,0.25,120,90.0
2965,A4,145.417,0.25,127,90.0
2966,F#2,145.417,0.25,127,90.0
2967,C#3,145.5,0.25,120,90.0
2968,G#3,145.505,0.094,127,90.0
2969,A4,145.667,0.25,127,90.0
2970,C#3,145.75,0.25,120,90.0
2971,G#3,145.763,12/125,127,90.0
2972,A4,145.917,0.25,127,90.0
2973,C2,145.917,0.25,127,90.0
2974,F#2,145.917,0.25,127,90.0
2975,C#3,146.0,0.25,120,90.0
2976,G#3,146.026,349/1000,127,90.0
2977,A4,146.167,0.25,127,90.0
2978,C#3,146.25,0.25,120,90.0
2979,A4,146.417,0.25,127,90.0
2980,D2,146.417,0.25,127,90.0
2981,F#2,146.417,0.25,127,90.0
2982,C#3,146.5,0.25,120,90.0
2983,G#3,146.529,0.125,127,90.0
2984,A4,146.667,0.25,127,90.0
2985,C#3,146.75,0.25,120,90.0
2986,G#3,146.789,0.32,127,90.0
2987,A4,146.917,0.25,127,90.0
2988,F#2,146.917,0.25,127,90.0
2989,C#3,147.0,0.25,120,90.0
2990,F#4,147.0,0.25,127,90.0
2991,F#3,147.0,0.25,127,90.0
2992,A4,147.167,0.25,127,90.0
2993,C2,147.167,0.25,127,90.0
2994,C#3,147.25,0.25,120,90.0
2995,G#3,147.273,0.117,127,90.0
2996,A4,147.417,1/100,127,90.0
2997,F#2,147.417,1/100,127,90.0
2998,C#3,147.5,0.25,120,90.0
2999,G#3,147.544,23/200,127,90.0
3000,A4,147.667,6/25,127,90.0
3001,F#2,147.667,6/25,127,90.0
3002,E2,147.75,0.25,120,90.0
3003,G#4,147.75,0.25,120,90.0
3004,C#3,147.75,0.25,120,90.0
3005,G#5,147.75,0.25,100,90.0
3006,C#5,147.75,0.25,100,90.0
3007,G#4,147.75,0.25,100,90.0
3008,G#3,147.75,0.25,100,90.0
3009,G#4,147.75,0.25,100,90.0
3010,G#3,147.75,0.25,100,90.0
3011,G#3,147.794,13/125,127,90.0
3012,A4,147.906,0.25,127,90.0
3013,E2,148.0,0.25,120,90.0
3014,C#3,148.0,0.25,120,90.0
3015,G#5,148.0,83/1000,100,90.0
3016,C#5,148.0,83/1000,100,90.0
3017,G#4,148.0,83/1000,100,90.0
3018,G#3,148.0,83/1000,100,90.0
3019,G#4,148.0,83/1000,100,90.0
3020,G#3,148.0,83/1000,100,90.0
3021,G#3,148.049,181/500,127,90.0
3022,A4,148.156,0.25,127,90.0
3023,C2,148.156,0.25,127,90.0
3024,F#2,148.156,0.25,127,90.0
3025,C#3,148.25,0.25,120,90.0
3026,A4,148.406,0.25,127,90.0
3027,E-2,148.5,0.5,120,90.0
3028,A4,148.5,0.25,120,90.0
3029,C#3,148.5,0.25,120,90.0
3030,A5,148.5,333/1000,100,90.0
3031,C#5,148.5,333/1000,100,90.0
3032,A4,148.5,333/1000,100,90.0
3033,A3,148.5,333/1000,100,90.0
3034,A4,148.5,333/1000,100,90.0
3035,A3,148.5,333/1000,100,90.0
3036,G#3,148.578,0.094,127,90.0
3037,A4,148.656,0.25,127,90.0
3038,D2,148.656,0.25,127,90.0
3039,F#2,148.656,0.25,127,90.0
3040,C#3,148.75,0.25,120,90.0
3041,G#3,148.836,0.305,127,90.0
3042,A4,148.906,0.25,127,90.0
3043,C#3,149.0,0.25,120,90.0
3044,F#4,149.0,0.25,127,90.0
3045,F#3,149.0,0.25,127,90.0
3046,A4,149.156,0.25,127,90.0
3047,F#2,149.156,0.25,127,90.0
3048,C#3,149.25,0.25,120,90.0
3049,G#3,149.336,12/125,127,90.0
3050,A4,149.406,0.25,127,90.0
3051,C2,149.406,0.25,127,90.0
3052,C#3,149.5,0.25,120,90.0
3053,G#3,149.578,0.102,127,90.0
3054,A4,149.656,0.25,127,90.0
3055,F#2,149.656,0.25,127,90.0
3056,F#2,149.75,0.5,120,90.0
3057,F#4,149.75,0.25,120,90.0
3058,C#3,149.75,0.25,120,90.0
3059,C#5,149.75,333/1000,100,90.0
3060,F#5,149.75,333/1000,100,90.0
3061,F#3,149.75,333/1000,100,90.0
3062,F#4,149.75,333/1000,100,90.0
3063,F#3,149.75,333/1000,100,90.0
3064,F#4,149.75,333/1000,100,90.0
3065,G#3,149.815,0.102,127,90.0
3066,A4,149.906,0.25,127,90.0
3067,C#3,150.0,0.25,120,90.0
3068,G#3,150.068,189/500,127,90.0
3069,A4,150.156,0.25,127,90.0
3070,C2,150.156,0.25,127,90.0
3071,F#2,150.156,0.25,127,90.0
3072,C#3,150.25,0.25,120,90.0
3073,A4,150.406,0.25,127,90.0
3074,E2,150.5,0.5,120,90.0
3075,G#4,150.5,0.25,120,90.0
3076,C#3,150.5,0.25,120,90.0
3077,C#5,150.5,333/1000,100,90.0
3078,G#5,150.5,333/1000,100,90.0
3079,G#3,150.5,333/1000,100,90.0
3080,G#4,150.5,333/1000,100,90.0
3081,G#3,150.5,333/1000,100,90.0
3082,G#4,150.5,333/1000,100,90.0
3083,A4,150.656,0.25,127,90.0
3084,D2,150.656,0.25,127,90.0
3085,F#2,150.656,0.25,127,90.0
3086,C#3,150.75,0.25,120,90.0
3087,G#3,150.799,107/1000,127,90.0
3088,A4,150.906,0.25,127,90.0
3089,C#3,151.0,0.25,120,90.0
3090,F#4,151.0,0.25,127,90.0
3091,F#3,151.0,0.25,127,90.0
3092,G#3,151.049,12/125,127,90.0
3093,A4,151.156,0.25,127,90.0
3094,F#2,151.156,0.25,127,90.0
3095,C#3,151.25,0.25,120,90.0
3096,G#3,151.302,0.094,127,90.0
3097,A4,151.406,0.25,127,90.0
3098,C2,151.406,0.25,127,90.0
3099,C#3,151.5,0.25,120,90.0
3100,G#3,151.542,99/1000,127,90.0
3101,A4,151.656,1/100,127,90.0
3102,F#2,151.656,1/100,127,90.0
3103,B1,151.75,0.25,120,90.0
3104,A4,151.75,0.25,120,90.0
3105,C#3,151.75,0.25,120,90.0
3106,C#5,151.75,0.25,100,90.0
3107,A5,151.75,0.25,100,90.0
3108,A3,151.75,0.25,100,90.0
3109,A4,151.75,0.25,100,90.0
3110,A3,151.75,0.25,100,90.0
3111,A4,151.75,0.25,100,90.0
3112,G#3,151.781,12/125,127,90.0
3113,A4,151.906,6/25,127,90.0
3114,F#2,151.906,6/25,127,90.0
3115,B1,152.0,0.25,120,90.0
3116,C#3,152.0,0.25,120,90.0
3117,C#5,152.0,83/1000,100,90.0
3118,A5,152.0,83/1000,100,90.0
3119,A3,152.0,83/1000,100,90.0
3120,A4,152.0,83/1000,100,90.0
3121,A3,152.0,83/1000,100,90.0
3122,A4,152.0,83/1000,100,90.0
3123,G#3,152.034,229/1000,127,90.0
3124,A4,152.146,0.25,127,90.0
3125,C#3,152.25,0.25,120,90.0
3126,A4,152.396,0.25,127,90.0
3127,C2,152.396,0.25,127,90.0
3128,F#2,152.396,0.25,127,90.0
3129,C#2,152.5,0.5,120,90.0
3130,G#4,152.5,0.25,120,90.0
3131,C#3,152.5,0.25,120,90.0
3132,G#5,152.5,333/1000,100,90.0
3133,C#5,152.5,333/1000,100,90.0
3134,G#3,152.5,333/1000,100,90.0
3135,G#4,152.5,333/1000,100,90.0
3136,G#3,152.5,333/1000,100,90.0
3137,G#4,152.5,333/1000,100,90.0
3138,G#3,152.557,13/125,127,90.0
3139,A4,152.646,0.25,127,90.0
3140,C#3,152.75,0.25,120,90.0
3141,G#3,152.802,12/125,127,90.0
3142,A4,152.896,0.25,127,90.0
3143,D2,152.896,0.25,127,90.0
3144,F#2,152.896,0.25,127,90.0
3145,C#3,153.0,0.25,120,90.0
3146,F#4,153.0,0.25,127,90.0
3147,F#3,153.0,0.25,127,90.0
3148,G#3,153.036,0.094,127,90.0
3149,A4,153.146,0.25,127,90.0
3150,C#3,153.25,0.25,120,90.0
3151,G#3,153.268,12/125,127,90.0
3152,A4,153.396,0.25,127,90.0
3153,F#2,153.396,0.25,127,90.0
3154,C#3,153.5,0.25,120,90.0
3155,G#3,153.534,13/125,127,90.0
3156,A4,153.646,0.25,127,90.0
3157,C2,153.646,0.25,127,90.0
3158,C#3,153.75,0.25,120,90.0
3159,G#3,153.792,99/1000,127,90.0
3160,A4,153.896,0.25,127,90.0
3161,F#2,153.896,0.25,127,90.0
3162,C#3,154.0,0.25,120,90.0
3163,G#3,154.055,73/250,127,90.0
3164,A4,154.146,0.25,127,90.0
3165,C#3,154.25,0.25,120,90.0
3166,A4,154.396,0.25,127,90.0
3167,C2,154.396,0.25,127,90.0
3168,F#2,154.396,0.25,127,90.0
3169,C#3,154.5,0.25,120,90.0
3170,G#3,154.529,23/200,127,90.0
3171,A4,154.646,0.25,127,90.0
3172,C#3,154.75,0.25,120,90.0
3173,G#3,154.805,73/250,127,90.0
3174,A4,154.896,0.25,127,90.0
3175,D2,154.896,0.25,127,90.0
3176,F#2,154.896,0.25,127,90.0
3177,C#3,155.0,0.25,120,90.0
3178,F#4,155.0,0.25,127,90.0
3179,F#3,155.0,0.25,127,90.0
3180,A4,155.146,0.25,127,90.0
3181,C#3,155.25,0.25,120,90.0
3182,G#3,155.271,16/125,127,90.0
3183,A4,155.396,0.25,127,90.0
3184,F#2,155.396,0.25,127,90.0
3185,C#3,155.5,0.25,120,90.0
3186,G#3,155.544,14/125,127,90.0
3187,A4,155.646,0.25,127,90.0
3188,C2,155.646,0.25,127,90.0
3189,E2,155.75,0.25,120,90.0
3190,G#4,155.75,0.25,120,90.0
3191,C#3,155.75,0.25,120,90.0
3192,C#5,155.75,0.25,100,90.0
3193,G#5,155.75,0.25,100,90.0
3194,G#4,155.75,0.25,100,90.0
3195,G#3,155.75,0.25,100,90.0
3196,G#4,155.75,0.25,100,90.0
3197,G#3,155.75,0.25,100,90.0
3198,G#3,155.81,107/1000,127,90.0
3199,A4,155.896,1/100,127,90.0
3200,F#2,155.896,1/100,127,90.0
3201,E2,156.0,0.25,120,90.0
3202,C#3,156.0,0.25,120,90.0
3203,C#5,156.0,83/1000,100,90.0
3204,G#5,156.0,83/1000,100,90.0
3205,G#4,156.0,83/1000,100,90.0
3206,G#3,156.0,83/1000,100,90.0
3207,G#4,156.0,83/1000,100,90.0
3208,G#3,156.0,83/1000,100,90.0
3209,G#3,156.052,63/200,127,90.0
3210,A4,156.146,6/25,127,90.0
3211,F#2,156.146,6/25,127,90.0
3212,C#3,156.25,0.25,120,90.0
3213,A4,156.385,0.25,127,90.0
3214,E-2,156.5,0.5,120,90.0
3215,A4,156.5,0.25,120,90.0
3216,C#3,156.5,0.25,120,90.0
3217,A5,156.5,333/1000,100,90.0
3218,C#5,156.5,333/1000,100,90.0
3219,A3,156.5,333/1000,100,90.0
3220,A4,156.5,333/1000,100,90.0
3221,A3,156.5,333/1000,100,90.0
3222,A4,156.5,333/1000,100,90.0
3223,G#3,156.562,99/1000,127,90.0
3224,A4,156.635,0.25,127,90.0
3225,C2,156.635,0.25,127,90.0
3226,F#2,156.635,0.25,127,90.0
3227,C#3,156.75,0.25,120,90.0
3228,G#3,156.812,163/500,127,90.0
3229,A4,156.885,0.25,127,90.0
3230,C#3,157.0,0.25,120,90.0
3231,F#4,157.0,0.25,127,90.0
3232,F#3,157.0,0.25,127,90.0
3233,A4,157.135,0.25,127,90.0
3234,D2,157.135,0.25,127,90.0
3235,F#2,157.135,0.25,127,90.0
3236,C#3,157.25,0.25,120,90.0
3237,G#3,157.294,0.094,127,90.0
3238,A4,157.385,0.25,127,90.0
3239,C#3,157.5,0.25,120,90.0
3240,G#3,157.547,61/500,127,90.0
3241,A4,157.635,0.25,127,90.0
3242,F#2,157.635,0.25,127,90.0
3243,F#2,157.75,0.5,120,90.0
3244,F#4,157.75,0.25,120,90.0
3245,C#3,157.75,0.25,120,90.0
3246,C#5,157.75,333/1000,100,90.0
3247,F#5,157.75,333/1000,100,90.0
3248,F#3,157.75,333/1000,100,90.0
3249,F#4,157.75,333/1000,100,90.0
3250,F#3,157.75,333/1000,100,90.0
3251,F#4,157.75,333/1000,100,90.0
3252,G#3,157.797,13/125,127,90.0
3253,A4,157.885,0.25,127,90.0
3254,C2,157.885,0.25,127,90.0
3255,C#3,158.0,0.25,120,90.0
3256,G#3,158.029,0.312,127,90.0
3257,A4,158.135,0.25,127,90.0
3258,F#2,158.135,0.25,127,90.0
3259,C#3,158.25,0.25,120,90.0
3260,A4,158.385,0.25,127,90.0
3261,E2,158.5,0.5,120,90.0
3262,G#4,158.5,0.25,120,90.0
3263,C#3,158.5,0.25,120,90.0
3264,G#5,158.5,333/1000,100,90.0
3265,C#5,158.5,333/1000,100,90.0
3266,G#3,158.5,333/1000,100,90.0
3267,G#4,158.5,333/1000,100,90.0
3268,G#3,158.5,333/1000,100,90.0
3269,G#4,158.5,333/1000,100,90.0
3270,A4,158.635,0.25,127,90.0
3271,C2,158.635,0.25,127,90.0
3272,F#2,158.635,0.25,127,90.0
3273,C#3,158.75,0.25,120,90.0
3274,A4,158.885,0.25,127,90.0
3275,C#3,159.0,0.25,120,90.0
3276,F#3,159.0,0.25,127,90.0
3277,F#4,159.0,0.25,127,90.0
3278,A4,159.135,0.25,127,90.0
3279,D2,159.135,0.25,127,90.0
3280,F#2,159.135,0.25,127,90.0
3281,C#3,159.25,0.25,120,90.0
3282,A4,159.385,0.25,127,90.0
3283,C#3,159.5,0.25,120,90.0
3284,A4,159.635,0.25,127,90.0
3285,F#2,159.635,0.25,127,90.0
3286,C#3,159.745,51/200,72,90.0
3287,C#4,159.745,51/200,72,90.0
3288,B2,159.75,0.25,115,90.0
3289,B1,159.75,0.25,120,90.0
3290,B3,159.75,0.25,120,90.0
3291,C#3,159.75,0.25,120,90.0
3292,B2,159.75,0.25,50,90.0
3293,A4,159.75,0.25,50,90.0
3294,A3,159.75,0.25,50,90.0
3295,B3,159.75,0.25,50,90.0
3296,B3,159.75,0.25,100,90.0
3297,A4,159.75,0.25,100,90.0
3298,A3,159.75,0.25,100,90.0
3299,B2,159.75,0.25,100,90.0
3300,C#2,159.857,143/1000,75,90.0
3301,A4,159.885,0.25,127,90.0
3302,C2,159.885,0.25,127,90.0
3303,B2,160.0,83/1000,115,90.0
3304,B1,160.0,0.25,120,90.0
3305,C#3,160.0,0.25,120,90.0
3306,C#2,160.0,4.0,75,90.0
3307,B2,160.0,83/1000,50,90.0
3308,A4,160.0,83/1000,50,90.0
3309,A3,160.0,83/1000,50,90.0
3310,B3,160.0,83/1000,50,90.0
3311,B3,160.0,83/1000,100,90.0
3312,A4,160.0,83/1000,100,90.0
3313,A3,160.0,83/1000,100,90.0
3314,B2,160.0,83/1000,100,90.0
3315,C#3,160.0,1857/500,72,90.0
3316,C#4,160.0,1857/500,72,90.0
3317,C#3,160.026,1987/500,93,90.0
3318,A4,160.135,1/100,127,90.0
3319,F#2,160.135,1/100,127,90.0
3320,A4,160.385,6/25,127,90.0
3321,F#2,160.385,6/25,127,90.0
3322,G#3,160.484,307/1000,127,90.0
3323,C#3,160.5,333/1000,115,90.0
3324,C#2,160.5,0.5,120,90.0
3325,C#4,160.5,0.25,120,90.0
3326,C#3,160.5,0.5,120,90.0
3327,C#4,160.5,333/1000,50,90.0
3328,C#3,160.5,333/1000,50,90.0
3329,G#4,160.5,333/1000,50,90.0
3330,G#3,160.5,333/1000,50,90.0
3331,G#4,160.5,333/1000,100,90.0
3332,C#4,160.5,333/1000,100,90.0
3333,C#3,160.5,333/1000,100,90.0
3334,G#3,160.5,333/1000,100,90.0
3335,A4,160.625,0.25,127,90.0
3336,A4,160.875,0.25,127,90.0
3337,C2,160.875,0.25,127,90.0
3338,F#2,160.875,0.25,127,90.0
3339,F#3,161.0,0.25,127,90.0
3340,F#4,161.0,0.25,127,90.0
3341,C#3,161.044,0.211,127,90.0
3342,A4,161.125,0.25,127,90.0
3343,A4,161.375,0.25,127,90.0
3344,D2,161.375,0.25,127,90.0
3345,F#2,161.375,0.25,127,90.0
3346,G#3,161.497,0.258,127,90.0
3347,A4,161.625,0.25,127,90.0
3348,A4,161.875,0.25,127,90.0
3349,F#2,161.875,0.25,127,90.0
3350,C#3,162.01,49/200,127,90.0
3351,A4,162.125,0.25,127,90.0
3352,C2,162.125,0.25,127,90.0
3353,A4,162.375,0.25,127,90.0
3354,F#2,162.375,0.25,127,90.0
3355,C#3,162.505,69/250,127,90.0
3356,A4,162.625,0.25,127,90.0
3357,A4,162.875,0.25,127,90.0
3358,C2,162.875,0.25,127,90.0
3359,F#2,162.875,0.25,127,90.0
3360,C#3,162.977,401/1000,127,90.0
3361,F#4,163.0,0.25,127,90.0
3362,F#3,163.0,0.25,127,90.0
3363,A4,163.125,0.25,127,90.0
3364,A4,163.375,0.25,127,90.0
3365,D2,163.375,0.25,127,90.0
3366,F#2,163.375,0.25,127,90.0
3367,E3,163.487,37/200,127,90.0
3368,A4,163.625,0.25,127,90.0
3369,G#3,163.747,253/1000,127,90.0
3370,E2,163.75,0.25,120,90.0
3371,C#3,163.75,0.25,120,90.0
3372,G#3,163.75,0.25,100,90.0
3373,G#4,163.75,0.25,100,90.0
3374,E-3,163.758,0.242,82,90.0
3375,E-4,163.758,0.242,82,90.0
3376,A4,163.875,0.25,127,90.0
3377,F#2,163.875,0.25,127,90.0
3378,E-3,163.979,21/1000,89,90.0
3379,G#3,164.0,13/250,127,90.0
3380,E2,164.0,0.25,120,90.0
3381,C#3,164.0,0.25,120,90.0
3382,C#2,164.0,4.0,75,90.0
3383,E-3,164.0,4.0,89,90.0
3384,G#3,164.0,83/1000,100,90.0
3385,G#4,164.0,83/1000,100,90.0
3386,E-3,164.0,3.734,82,90.0
3387,E-4,164.0,3.734,82,90.0
3388,A4,164.125,0.25,127,90.0
3389,C2,164.125,0.25,127,90.0
3390,A4,164.375,1/100,127,90.0
3391,F#2,164.375,1/100,127,90.0
3392,G#3,164.5,299/1000,127,90.0
3393,E-2,164.5,0.5,120,90.0
3394,C#3,164.5,0.5,120,90.0
3395,A3,164.5,333/1000,100,90.0
3396,A4,164.5,333/1000,100,90.0
3397,A4,164.625,6/25,127,90.0
3398,F#2,164.625,6/25,127,90.0
3399,A4,164.865,0.25,127,90.0
3400,F#4,165.0,0.25,127,90.0
3401,F#3,165.0,0.25,127,90.0
3402,C#3,165.029,221/1000,127,90.0
3403,A4,165.115,0.25,127,90.0
3404,C2,165.115,0.25,127,90.0
3405,F#2,165.115,0.25,127,90.0
3406,A4,165.365,0.25,127,90.0
3407,C#3,165.492,69/250,127,90.0
3408,A4,165.615,0.25,127,90.0
3409,D2,165.615,0.25,127,90.0
3410,F#2,165.615,0.25,127,90.0
3411,F#2,165.75,0.5,120,90.0
3412,C#3,165.75,0.5,120,90.0
3413,F#3,165.75,333/1000,100,90.0
3414,F#4,165.75,333/1000,100,90.0
3415,A4,165.865,0.25,127,90.0
3416,C#3,166.008,253/1000,127,90.0
3417,A4,166.115,0.25,127,90.0
3418,F#2,166.115,0.25,127,90.0
3419,A4,166.365,0.25,127,90.0
3420,C2,166.365,0.25,127,90.0
3421,C#3,166.49,0.234,127,90.0
3422,E2,166.5,0.5,120,90.0
3423,C#3,166.5,0.5,120,90.0
3424,G#4,166.5,333/1000,100,90.0
3425,G#3,166.5,333/1000,100,90.0
3426,A4,166.615,0.25,127,90.0
3427,F#2,166.615,0.25,127,90.0
3428,A4,166.865,0.25,127,90.0
3429,C#3,166.964,143/500,127,90.0
3430,F#4,167.0,0.25,127,90.0
3431,F#3,167.0,0.25,127,90.0
3432,A4,167.115,0.25,127,90.0
3433,C2,167.115,0.25,127,90.0
3434,F#2,167.115,0.25,127,90.0
3435,A4,167.365,0.25,127,90.0
3436,E3,167.49,0.18,127,90.0
3437,A4,167.615,0.25,127,90.0
3438,D2,167.615,0.25,127,90.0
3439,F#2,167.615,0.25,127,90.0
3440,G#3,167.75,0.25,127,90.0
3441,B1,167.75,0.25,120,90.0
3442,C#3,167.75,0.25,120,90.0
3443,A3,167.75,0.25,100,90.0
3444,A4,167.75,0.25,100,90.0
3445,E4,167.802,99/500,67,90.0
3446,E3,167.802,99/500,67,90.0
3447,A4,167.865,0.25,127,90.0
3448,G#3,168.0,13/200,127,90.0
3449,B1,168.0,0.25,120,90.0
3450,C#3,168.0,0.25,120,90.0
3451,C#2,168.0,4.0,75,90.0
3452,E-3,168.0,23/200,89,90.0
3453,A3,168.0,83/1000,100,90.0
3454,A4,168.0,83/1000,100,90.0
3455,E4,168.0,3.602,67,90.0
3456,E3,168.0,3.602,67,90.0
3457,E3,168.083,3917/1000,76,90.0
3458,A4,168.115,0.25,127,90.0
3459,F#2,168.115,0.25,127,90.0
3460,C2,168.375,0.25,127,90.0
3461,G#3,168.451,237/1000,127,90.0
3462,C#2,168.5,0.5,120,90.0
3463,C#3,168.5,0.5,120,90.0
3464,G#3,168.5,333/1000,100,90.0
3465,G#4,168.5,333/1000,100,90.0
3466,A4,168.615,1/100,127,90.0
3467,F#2,168.615,1/100,127,90.0
3468,A4,168.625,6/25,127,90.0
3469,F#2,168.625,6/25,127,90.0
3470,A4,168.865,0.25,127,90.0
3471,F#4,169.0,0.25,127,90.0
3472,F#3,169.0,0.25,127,90.0
3473,C#3,169.003,0.211,127,90.0
3474,A4,169.115,0.25,127,90.0
3475,C2,169.115,0.25,127,90.0
3476,F#2,169.115,0.25,127,90.0
3477,A4,169.365,0.25,127,90.0
3478,G#3,169.5,28/125,127,90.0
3479,A4,169.615,0.25,127,90.0
3480,D2,169.615,0.25,127,90.0
3481,F#2,169.615,0.25,127,90.0
3482,A4,169.865,0.25,127,90.0
3483,C#3,169.995,27/125,127,90.0
3484,A4,170.115,0.25,127,90.0
3485,F#2,170.115,0.25,127,90.0
3486,A4,170.365,0.25,127,90.0
3487,C2,170.365,0.25,127,90.0
3488,G#3,170.487,177/1000,127,90.0
3489,A4,170.615,0.25,127,90.0
3490,F#2,170.615,0.25,127,90.0
3491,A4,170.865,0.25,127,90.0
3492,F#4,171.0,0.25,127,90.0
3493,F#3,171.0,0.25,127,90.0
3494,C#3,171.018,0.227,127,90.0
3495,A4,171.115,0.25,127,90.0
3496,C2,171.115,0.25,127,90.0
3497,F#2,171.115,0.25,127,90.0
3498,A4,171.365,0.25,127,90.0
3499,G#3,171.534,0.172,127,90.0
3500,A4,171.615,0.25,127,90.0
3501,D2,171.615,0.25,127,90.0
3502,F#2,171.615,0.25,127,90.0
3503,F#4,171.716,71/250,85,90.0
3504,F#3,171.716,71/250,85,90.0
3505,E2,171.75,0.25,120,90.0
3506,C#3,171.75,0.25,120,90.0
3507,G#3,171.75,0.25,100,90.0
3508,G#4,171.75,0.25,100,90.0
3509,A4,171.865,0.25,127,90.0
3510,E2,172.0,0.25,120,90.0
3511,C#3,172.0,0.25,120,90.0
3512,C#2,172.0,3.875,75,90.0
3513,E3,172.0,23/200,76,90.0
3514,G#3,172.0,83/1000,100,90.0
3515,G#4,172.0,83/1000,100,90.0
3516,F#4,172.0,511/250,85,90.0
3517,F#3,172.0,511/250,85,90.0
3518,C#3,172.01,51/200,127,90.0
3519,F#3,172.049,983/500,81,90.0
3520,A4,172.115,0.25,127,90.0
3521,F#2,172.115,0.25,127,90.0
3522,A4,172.365,0.25,127,90.0
3523,C2,172.365,0.25,127,90.0
3524,E-2,172.5,0.5,120,90.0
3525,C#3,172.5,0.5,120,90.0
3526,A3,172.5,333/1000,100,90.0
3527,A4,172.5,333/1000,100,90.0
3528,G#3,172.508,0.258,127,90.0
3529,A4,172.615,1/100,127,90.0
3530,F#2,172.615,1/100,127,90.0
3531,A4,172.865,6/25,127,90.0
3532,F#2,172.865,6/25,127,90.0
3533,E3,172.984,91/500,127,90.0
3534,F#4,173.0,0.25,127,90.0
3535,F#3,173.0,0.25,127,90.0
3536,A4,173.104,0.25,127,90.0
3537,E3,173.294,159/1000,127,90.0
3538,A4,173.354,0.25,127,90.0
3539,C2,173.354,0.25,127,90.0
3540,F#2,173.354,0.25,127,90.0
3541,G#3,173.542,193/1000,127,90.0
3542,A4,173.604,0.25,127,90.0
3543,F#2,173.75,0.5,120,90.0
3544,F#4,173.75,333/1000,100,90.0
3545,F#3,173.75,333/1000,100,90.0
3546,E3,173.815,77/500,127,90.0
3547,A4,173.854,0.25,127,90.0
3548,D2,173.854,0.25,127,90.0
3549,F#2,173.854,0.25,127,90.0
3550,G#3,173.974,2.0,81,90.0
3551,G#3,174.044,431/250,72,90.0
3552,G#4,174.044,431/250,72,90.0
3553,G#3,174.062,263/1000,127,90.0
3554,A4,174.104,0.25,127,90.0
3555,A4,174.354,0.25,127,90.0
3556,F#2,174.354,0.25,127,90.0
3557,E2,174.5,0.5,120,90.0
3558,G#4,174.5,333/1000,100,90.0
3559,G#3,174.5,333/1000,100,90.0
3560,C#3,174.508,3/25,127,90.0
3561,A4,174.604,0.25,127,90.0
3562,C2,174.604,0.25,127,90.0
3563,C#3,174.766,0.133,127,90.0
3564,A4,174.854,0.25,127,90.0
3565,F#2,174.854,0.25,127,90.0
3566,F#4,175.0,0.25,127,90.0
3567,F#3,175.0,0.25,127,90.0
3568,E3,175.042,0.172,127,90.0
3569,A4,175.104,0.25,127,90.0
3570,G#3,175.341,0.203,127,90.0
3571,A4,175.354,0.25,127,90.0
3572,C2,175.354,0.25,127,90.0
3573,F#2,175.354,0.25,127,90.0
3574,A4,175.604,0.25,127,90.0
3575,B2,175.75,0.25,115,90.0
3576,B1,175.75,0.25,120,90.0
3577,C#3,175.75,0.25,120,90.0
3578,B2,175.75,0.25,50,90.0
3579,A4,175.75,0.25,50,90.0
3580,A3,175.75,0.25,50,90.0
3581,B3,175.75,0.25,50,90.0
3582,B3,175.75,0.25,100,90.0
3583,A4,175.75,0.25,100,90.0
3584,A3,175.75,0.25,100,90.0
3585,B2,175.75,0.25,100,90.0
3586,B3,175.75,0.25,100,90.0
3587,A4,175.75,0.25,100,90.0
3588,A3,175.75,0.25,100,90.0
3589,B2,175.75,0.25,100,90.0
3590,C#3,175.766,0.234,127,90.0
3591,A4,175.854,0.25,127,90.0
3592,D2,175.854,0.25,127,90.0
3593,F#2,175.854,0.25,127,90.0
3594,C#3,176.0,21/1000,127,90.0
3595,B2,176.0,83/1000,115,90.0
3596,B1,176.0,0.25,120,90.0
3597,C#3,176.0,0.25,120,90.0
3598,B2,176.0,83/1000,50,90.0
3599,A4,176.0,83/1000,50,90.0
3600,A3,176.0,83/1000,50,90.0
3601,B3,176.0,83/1000,50,90.0
3602,B3,176.0,83/1000,100,90.0
3603,A4,176.0,83/1000,100,90.0
3604,A3,176.0,83/1000,100,90.0
3605,B2,176.0,83/1000,100,90.0
3606,B3,176.083,83/1000,100,90.0
3607,A4,176.083,83/1000,100,90.0
3608,A3,176.083,83/1000,100,90.0
3609,B2,176.083,83/1000,100,90.0
3610,A4,176.104,0.25,127,90.0
3611,G#3,176.289,89/1000,127,90.0
3612,A4,176.354,0.25,127,90.0
3613,F#2,176.354,0.25,127,90.0
3614,C#3,176.5,333/1000,115,90.0
3615,C#2,176.5,0.5,120,90.0
3616,C#3,176.5,0.5,120,90.0
3617,C#4,176.5,333/1000,50,90.0
3618,C#3,176.5,333/1000,50,90.0
3619,G#4,176.5,333/1000,50,90.0
3620,G#3,176.5,333/1000,50,90.0
3621,G#4,176.5,333/1000,100,90.0
3622,C#4,176.5,333/1000,100,90.0
3623,C#3,176.5,333/1000,100,90.0
3624,G#3,176.5,333/1000,100,90.0
3625,G#3,176.539,81/1000,127,90.0
3626,G#4,176.583,333/1000,100,90.0
3627,C#4,176.583,333/1000,100,90.0
3628,C#3,176.583,333/1000,100,90.0
3629,G#3,176.583,333/1000,100,90.0
3630,A4,176.604,0.25,127,90.0
3631,C2,176.604,0.25,127,90.0
3632,G#3,176.781,0.086,127,90.0
3633,A4,176.854,1/100,127,90.0
3634,F#2,176.854,1/100,127,90.0
3635,F#4,177.0,0.25,127,90.0
3636,F#3,177.0,0.25,127,90.0
3637,G#3,177.052,91/1000,127,90.0
3638,A4,177.104,6/25,127,90.0
3639,F#2,177.104,6/25,127,90.0
3640,G#3,177.299,14/125,127,90.0
3641,A4,177.344,0.25,127,90.0
3642,A4,177.594,0.25,127,90.0
3643,C2,177.594,0.25,127,90.0
3644,F#2,177.594,0.25,127,90.0
3645,G#3,177.773,91/1000,127,90.0
3646,A4,177.844,0.25,127,90.0
3647,G#3,178.029,0.086,127,90.0
3648,A4,178.094,0.25,127,90.0
3649,D2,178.094,0.25,127,90.0
3650,F#2,178.094,0.25,127,90.0
3651,G#3,178.268,81/1000,127,90.0
3652,A4,178.344,0.25,127,90.0
3653,G#3,178.5,91/1000,127,90.0
3654,A4,178.594,0.25,127,90.0
3655,F#2,178.594,0.25,127,90.0
3656,G#3,178.76,12/125,127,90.0
3657,A4,178.844,0.25,127,90.0
3658,C2,178.844,0.25,127,90.0
3659,G#3,179.0,0.117,127,90.0
3660,F#3,179.0,0.25,127,90.0
3661,F#4,179.0,0.25,127,90.0
3662,A4,179.094,0.25,127,90.0
3663,F#2,179.094,0.25,127,90.0
3664,G#3,179.258,73/500,127,90.0
3665,A4,179.344,0.25,127,90.0
3666,A4,179.594,0.25,127,90.0
3667,C2,179.594,0.25,127,90.0
3668,F#2,179.594,0.25,127,90.0
3669,G#3,179.729,23/200,127,90.0
3670,E2,179.75,0.25,120,90.0
3671,C#3,179.75,0.25,120,90.0
3672,G#3,179.75,0.25,100,90.0
3673,G#4,179.75,0.25,100,90.0
3674,G#3,179.833,0.25,100,90.0
3675,G#4,179.833,0.25,100,90.0
3676,A4,179.844,0.25,127,90.0
3677,E2,180.0,0.25,120,90.0
3678,C#3,180.0,0.25,120,90.0
3679,G#3,180.0,83/1000,100,90.0
3680,G#4,180.0,83/1000,100,90.0
3681,G#3,180.008,161/1000,127,90.0
3682,G#3,180.083,83/1000,100,90.0
3683,G#4,180.083,83/1000,100,90.0
3684,A4,180.094,0.25,127,90.0
3685,D2,180.094,0.25,127,90.0
3686,F#2,180.094,0.25,127,90.0
3687,A4,180.344,0.25,127,90.0
3688,E-2,180.5,0.5,120,90.0
3689,C#3,180.5,0.5,120,90.0
3690,A3,180.5,333/1000,100,90.0
3691,A4,180.5,333/1000,100,90.0
3692,A3,180.583,333/1000,100,90.0
3693,A4,180.583,333/1000,100,90.0
3694,A4,180.594,0.25,127,90.0
3695,F#2,180.594,0.25,127,90.0
3696,G#3,180.745,13/125,127,90.0
3697,A4,180.844,0.25,127,90.0
3698,C2,180.844,0.25,127,90.0
3699,F#4,181.0,0.25,127,90.0
3700,F#3,181.0,0.25,127,90.0
3701,G#3,181.013,13/125,127,90.0
3702,A4,181.094,1/100,127,90.0
3703,F#2,181.094,1/100,127,90.0
3704,G#3,181.263,91/1000,127,90.0
3705,A4,181.344,6/25,127,90.0
3706,F#2,181.344,6/25,127,90.0
3707,G#3,181.521,12/125,127,90.0
3708,A4,181.583,0.25,127,90.0
3709,F#2,181.75,0.5,120,90.0
3710,C#3,181.75,0.5,120,90.0
3711,F#3,181.75,333/1000,100,90.0
3712,F#4,181.75,333/1000,100,90.0
3713,G#3,181.766,0.094,127,90.0
3714,F#3,181.833,333/1000,100,90.0
3715,F#4,181.833,333/1000,100,90.0
3716,A4,181.833,0.25,127,90.0
3717,C2,181.833,0.25,127,90.0
3718,F#2,181.833,0.25,127,90.0
3719,G#3,182.0,0.094,127,90.0
3720,A4,182.083,0.25,127,90.0
3721,G#3,182.24,0.102,127,90.0
3722,A4,182.333,0.25,127,90.0
3723,D2,182.333,0.25,127,90.0
3724,F#2,182.333,0.25,127,90.0
3725,G#3,182.487,107/1000,127,90.0
3726,E2,182.5,0.5,120,90.0
3727,C#3,182.5,0.5,120,90.0
3728,G#4,182.5,333/1000,100,90.0
3729,G#3,182.5,333/1000,100,90.0
3730,A4,182.583,0.25,127,90.0
3731,G#4,182.583,333/1000,100,90.0
3732,G#3,182.583,333/1000,100,90.0
3733,G#3,182.745,14/125,127,90.0
3734,A4,182.833,0.25,127,90.0
3735,F#2,182.833,0.25,127,90.0
3736,G#3,182.992,16/125,127,90.0
3737,F#4,183.0,0.25,127,90.0
3738,F#3,183.0,0.25,127,90.0
3739,A4,183.083,0.25,127,90.0
3740,C2,183.083,0.25,127,90.0
3741,A4,183.333,0.25,127,90.0
3742,F#2,183.333,0.25,127,90.0
3743,G#3,183.521,14/125,127,90.0
3744,A4,183.583,0.25,127,90.0
3745,B1,183.75,0.25,120,90.0
3746,C#3,183.75,0.25,120,90.0
3747,A3,183.75,0.25,100,90.0
3748,A4,183.75,0.25,100,90.0
3749,G#3,183.779,23/200,127,90.0
3750,A3,183.833,0.25,100,90.0
3751,A4,183.833,0.25,100,90.0
3752,A4,183.833,0.25,127,90.0
3753,C2,183.833,0.25,127,90.0
3754,F#2,183.833,0.25,127,90.0
3755,B1,184.0,0.25,120,90.0
3756,C#3,184.0,0.25,120,90.0
3757,A3,184.0,83/1000,100,90.0
3758,A4,184.0,83/1000,100,90.0
3759,G#3,184.044,0.141,127,90.0
3760,A4,184.083,0.25,127,90.0
3761,A3,184.083,83/1000,100,90.0
3762,A4,184.083,83/1000,100,90.0
3763,A4,184.333,0.25,127,90.0
3764,D2,184.333,0.25,127,90.0
3765,F#2,184.333,0.25,127,90.0
3766,G#3,184.471,107/1000,127,90.0
3767,C#2,184.5,0.5,120,90.0
3768,C#3,184.5,0.5,120,90.0
3769,G#3,184.5,333/1000,100,90.0
3770,G#4,184.5,333/1000,100,90.0
3771,A4,184.583,0.25,127,90.0
3772,G#3,184.583,333/1000,100,90.0
3773,G#4,184.583,333/1000,100,90.0
3774,G#3,184.742,14/125,127,90.0
3775,A4,184.833,0.25,127,90.0
3776,F#2,184.833,0.25,127,90.0
3777,F#4,185.0,0.25,127,90.0
3778,F#3,185.0,0.25,127,90.0
3779,G#3,185.016,151/1000,127,90.0
3780,A4,185.083,0.25,127,90.0
3781,C2,185.083,0.25,127,90.0
3782,A4,185.333,1/100,127,90.0
3783,F#2,185.333,1/100,127,90.0
3784,G#3,185.482,99/1000,127,90.0
3785,A4,185.583,6/25,127,90.0
3786,F#2,185.583,6/25,127,90.0
3787,G#3,185.745,13/125,127,90.0
3788,A4,185.823,0.25,127,90.0
3789,G#3,186.0,13/125,127,90.0
3790,A4,186.073,0.25,127,90.0
3791,C2,186.073,0.25,127,90.0
3792,F#2,186.073,0.25,127,90.0
3793,G#3,186.253,107/1000,127,90.0
3794,A4,186.323,0.25,127,90.0
3795,G#3,186.531,0.148,127,90.0
3796,A4,186.573,0.25,127,90.0
3797,D2,186.573,0.25,127,90.0
3798,F#2,186.573,0.25,127,90.0
3799,A4,186.823,0.25,127,90.0
3800,G#3,187.0,0.164,127,90.0
3801,F#4,187.0,0.25,127,90.0
3802,F#3,187.0,0.25,127,90.0
3803,A4,187.073,0.25,127,90.0
3804,F#2,187.073,0.25,127,90.0
3805,A4,187.323,0.25,127,90.0
3806,C2,187.323,0.25,127,90.0
3807,G#3,187.513,73/500,127,90.0
3808,A4,187.573,0.25,127,90.0
3809,F#2,187.573,0.25,127,90.0
3810,E2,187.75,0.25,120,90.0
3811,C#3,187.75,0.25,120,90.0
3812,G#3,187.75,0.25,100,90.0
3813,G#4,187.75,0.25,100,90.0
3814,A4,187.823,0.25,127,90.0
3815,G#3,187.833,0.25,100,90.0
3816,G#4,187.833,0.25,100,90.0
3817,G#3,187.995,1/200,127,90.0
3818,G#3,188.0,12/125,127,90.0
3819,E2,188.0,0.25,120,90.0
3820,C#3,188.0,0.25,120,90.0
3821,G#3,188.0,83/1000,100,90.0
3822,G#4,188.0,83/1000,100,90.0
3823,A4,188.073,0.25,127,90.0
3824,C2,188.073,0.25,127,90.0
3825,F#2,188.073,0.25,127,90.0
3826,G#3,188.083,83/1000,100,90.0
3827,G#4,188.083,83/1000,100,90.0
3828,G#3,188.276,0.102,127,90.0
3829,A4,188.323,0.25,127,90.0
3830,E-2,188.5,0.5,120,90.0
3831,C#3,188.5,0.5,120,90.0
3832,A3,188.5,333/1000,100,90.0
3833,A4,188.5,333/1000,100,90.0
3834,G#3,188.521,161/1000,127,90.0
3835,A4,188.573,0.25,127,90.0
3836,D2,188.573,0.25,127,90.0
3837,F#2,188.573,0.25,127,90.0
3838,A3,188.583,333/1000,100,90.0
3839,A4,188.583,333/1000,100,90.0
3840,A4,188.823,0.25,127,90.0
3841,F#4,189.0,0.25,127,90.0
3842,F#3,189.0,0.25,127,90.0
3843,G#3,189.008,99/1000,127,90.0
3844,A4,189.073,0.25,127,90.0
3845,F#2,189.073,0.25,127,90.0
3846,G#3,189.245,0.109,127,90.0
3847,A4,189.323,0.25,127,90.0
3848,C2,189.323,0.25,127,90.0
3849,G#3,189.529,107/1000,127,90.0
3850,A4,189.573,1/100,127,90.0
3851,F#2,189.573,1/100,127,90.0
3852,F#2,189.75,0.5,120,90.0
3853,F#4,189.75,333/1000,100,90.0
3854,F#3,189.75,333/1000,100,90.0
3855,G#3,189.779,0.109,127,90.0
3856,A4,189.823,6/25,127,90.0
3857,F#2,189.823,6/25,127,90.0
3858,F#4,189.833,333/1000,100,90.0
3859,F#3,189.833,333/1000,100,90.0
3860,G#3,190.034,99/1000,127,90.0
3861,A4,190.062,0.25,127,90.0
3862,G#3,190.266,14/125,127,90.0
3863,A4,190.312,0.25,127,90.0
3864,C2,190.312,0.25,127,90.0
3865,F#2,190.312,0.25,127,90.0
3866,E2,190.5,0.5,120,90.0
3867,G#4,190.5,333/1000,100,90.0
3868,G#3,190.5,333/1000,100,90.0
3869,G#3,190.536,103/500,127,90.0
3870,A4,190.562,0.25,127,90.0
3871,G#4,190.583,333/1000,100,90.0
3872,G#3,190.583,333/1000,100,90.0
3873,A4,190.812,0.25,127,90.0
3874,D2,190.812,0.25,127,90.0
3875,F#2,190.812,0.25,127,90.0
3876,G#3,190.982,143/500,127,90.0
3877,F#4,191.0,0.25,127,90.0
3878,F#3,191.0,0.25,127,90.0
3879,A4,191.062,0.25,127,90.0
3880,A4,191.312,0.25,127,90.0
3881,F#2,191.312,0.25,127,90.0
3882,G#3,191.516,0.117,127,90.0
3883,A4,191.562,0.25,127,90.0
3884,C2,191.562,0.25,127,90.0
3885,B1,191.75,0.25,120,90.0
3886,A4,191.75,0.25,120,90.0
3887,C#5,191.75,0.25,100,90.0
3888,A5,191.75,0.25,100,90.0
3889,A3,191.75,0.25,100,90.0
3890,A4,191.75,0.25,100,90.0
3891,G#3,191.771,23/200,127,90.0
3892,A4,191.812,0.25,127,90.0
3893,F#2,191.812,0.25,127,90.0
3894,A3,191.833,0.25,100,90.0
3895,A4,191.833,0.25,100,90.0
3896,B1,192.0,0.25,120,90.0
3897,A4,192.0,0.25,120,90.0
3898,C#5,192.0,83/1000,100,90.0
3899,A5,192.0,83/1000,100,90.0
3900,A3,192.0,83/1000,100,90.0
3901,A4,192.0,83/1000,100,90.0
3902,G#3,192.057,0.164,127,90.0
3903,A4,192.062,0.25,127,90.0
3904,A3,192.083,83/1000,100,90.0
3905,A4,192.083,83/1000,100,90.0
3906,A4,192.312,0.25,127,90.0
3907,C2,192.312,0.25,127,90.0
3908,F#2,192.312,0.25,127,90.0
3909,C#2,192.5,0.5,120,90.0
3910,G#4,192.5,0.5,120,90.0
3911,G#5,192.5,333/1000,100,90.0
3912,C#5,192.5,333/1000,100,90.0
3913,G#3,192.5,333/1000,100,90.0
3914,G#4,192.5,333/1000,100,90.0
3915,G#3,192.518,13/125,127,90.0
3916,A4,192.562,0.25,127,90.0
3917,G#3,192.583,333/1000,100,90.0
3918,G#4,192.583,333/1000,100,90.0
3919,G#3,192.766,23/200,127,90.0
3920,A4,192.812,0.25,127,90.0
3921,D2,192.812,0.25,127,90.0
3922,F#2,192.812,0.25,127,90.0
3923,F#4,193.0,0.25,127,90.0
3924,F#3,193.0,0.25,127,90.0
3925,G#3,193.034,107/1000,127,90.0
3926,A4,193.062,0.25,127,90.0
3927,G#3,193.292,13/125,127,90.0
3928,A4,193.312,0.25,127,90.0
3929,F#2,193.312,0.25,127,90.0
3930,G#3,193.552,0.109,127,90.0
3931,A4,193.562,0.25,127,90.0
3932,C2,193.562,0.25,127,90.0
3933,G#3,193.807,107/1000,127,90.0
3934,A4,193.812,1/100,127,90.0
3935,F#2,193.812,1/100,127,90.0
3936,G#3,194.057,0.172,127,90.0
3937,A4,194.062,6/25,127,90.0
3938,F#2,194.062,6/25,127,90.0
3939,A4,194.302,0.25,127,90.0
3940,G#3,194.5,12/125,127,90.0
3941,A4,194.552,0.25,127,90.0
3942,C2,194.552,0.25,127,90.0
3943,F#2,194.552,0.25,127,90.0
3944,G#3,194.755,67/250,127,90.0
3945,A4,194.802,0.25,127,90.0
3946,F#4,195.0,0.25,127,90.0
3947,F#3,195.0,0.25,127,90.0
3948,A4,195.052,0.25,127,90.0
3949,D2,195.052,0.25,127,90.0
3950,F#2,195.052,0.25,127,90.0
3951,G#3,195.24,14/125,127,90.0
3952,A4,195.302,0.25,127,90.0
3953,G#3,195.503,23/200,127,90.0
3954,A4,195.552,0.25,127,90.0
3955,F#2,195.552,0.25,127,90.0
3956,E2,195.75,0.25,120,90.0
3957,G#4,195.75,0.25,120,90.0
3958,G#5,195.75,0.25,100,90.0
3959,C#5,195.75,0.25,100,90.0
3960,G#3,195.75,0.25,100,90.0
3961,G#4,195.75,0.25,100,90.0
3962,G#3,195.76,177/1000,127,90.0
3963,A4,195.802,0.25,127,90.0
3964,C2,195.802,0.25,127,90.0
3965,G#3,195.833,0.25,100,90.0
3966,G#4,195.833,0.25,100,90.0
3967,E2,196.0,0.25,120,90.0
3968,G#5,196.0,83/1000,100,90.0
3969,C#5,196.0,83/1000,100,90.0
3970,G#3,196.0,83/1000,100,90.0
3971,G#4,196.0,83/1000,100,90.0
3972,G#3,196.049,0.266,127,90.0
3973,A4,196.052,0.25,127,90.0
3974,F#2,196.052,0.25,127,90.0
3975,G#3,196.083,83/1000,100,90.0
3976,G#4,196.083,83/1000,100,90.0
3977,A4,196.302,0.25,127,90.0
3978,G#3,196.497,16/125,127,90.0
3979,E-2,196.5,0.5,120,90.0
3980,A4,196.5,0.25,120,90.0
3981,C#5,196.5,333/1000,100,90.0
3982,A5,196.5,333/1000,100,90.0
3983,A4,196.5,333/1000,100,90.0
3984,A3,196.5,333/1000,100,90.0
3985,A4,196.552,0.25,127,90.0
3986,C2,196.552,0.25,127,90.0
3987,F#2,196.552,0.25,127,90.0
3988,A4,196.583,333/1000,100,90.0
3989,A3,196.583,333/1000,100,90.0
3990,G#3,196.789,23/200,127,90.0
3991,A4,196.802,0.25,127,90.0
3992,F#3,197.0,0.25,127,90.0
3993,F#4,197.0,0.25,127,90.0
3994,G#3,197.036,0.227,127,90.0
3995,A4,197.052,0.25,127,90.0
3996,D2,197.052,0.25,127,90.0
3997,F#2,197.052,0.25,127,90.0
3998,A4,197.302,0.25,127,90.0
3999,G#3,197.531,23/200,127,90.0
4000,A4,197.552,0.25,127,90.0
4001,F#2,197.552,0.25,127,90.0
4002,F#2,197.75,0.5,120,90.0
4003,F#4,197.75,0.25,120,90.0
4004,C#5,197.75,333/1000,100,90.0
4005,F#5,197.75,333/1000,100,90.0
4006,F#4,197.75,333/1000,100,90.0
4007,F#3,197.75,333/1000,100,90.0
4008,G#3,197.792,0.117,127,90.0
4009,A4,197.802,0.25,127,90.0
4010,C2,197.802,0.25,127,90.0
4011,F#4,197.833,333/1000,100,90.0
4012,F#3,197.833,333/1000,100,90.0
4013,G#3,198.049,279/1000,127,90.0
4014,A4,198.052,1/100,127,90.0
4015,F#2,198.052,1/100,127,90.0
4016,A4,198.302,6/25,127,90.0
4017,F#2,198.302,6/25,127,90.0
4018,E2,198.5,0.5,120,90.0
4019,G#4,198.5,0.25,120,90.0
4020,C#5,198.5,333/1000,100,90.0
4021,G#5,198.5,333/1000,100,90.0
4022,G#3,198.5,333/1000,100,90.0
4023,G#4,198.5,333/1000,100,90.0
4024,G#3,198.51,107/1000,127,90.0
4025,A4,198.542,0.25,127,90.0
4026,G#3,198.583,333/1000,100,90.0
4027,G#4,198.583,333/1000,100,90.0
4028,G#3,198.755,0.219,127,90.0
4029,A4,198.792,0.25,127,90.0
4030,C2,198.792,0.25,127,90.0
4031,F#2,198.792,0.25,127,90.0
4032,F#3,199.0,0.25,127,90.0
4033,F#4,199.0,0.25,127,90.0
4034,A4,199.042,0.25,127,90.0
4035,A4,199.292,0.25,127,90.0
4036,D2,199.292,0.25,127,90.0
4037,F#2,199.292,0.25,127,90.0
4038,G#3,199.497,0.086,127,90.0
4039,A4,199.542,0.25,127,90.0
4040,B1,199.75,0.25,120,90.0
4041,A4,199.75,0.25,120,90.0
4042,A5,199.75,0.25,100,90.0
4043,C#5,199.75,0.25,100,90.0
4044,A3,199.75,0.25,100,90.0
4045,A4,199.75,0.25,100,90.0
4046,G#3,199.784,0.078,127,90.0
4047,A4,199.792,0.25,127,90.0
4048,F#2,199.792,0.25,127,90.0
4049,A3,199.833,0.25,100,90.0
4050,A4,199.833,0.25,100,90.0
4051,B1,200.0,0.25,120,90.0
4052,A5,200.0,83/1000,100,90.0
4053,C#5,200.0,83/1000,100,90.0
4054,A3,200.0,83/1000,100,90.0
4055,A4,200.0,83/1000,100,90.0
4056,G#3,200.036,61/500,127,90.0
4057,A4,200.042,0.25,127,90.0
4058,C2,200.042,0.25,127,90.0
4059,A3,200.083,83/1000,100,90.0
4060,A4,200.083,83/1000,100,90.0
4061,A4,200.292,0.25,127,90.0
4062,F#2,200.292,0.25,127,90.0
4063,C#2,200.5,0.5,120,90.0
4064,G#4,200.5,0.25,120,90.0
4065,C#5,200.5,333/1000,100,90.0
4066,G#5,200.5,333/1000,100,90.0
4067,G#3,200.5,333/1000,100,90.0
4068,G#4,200.5,333/1000,100,90.0
4069,G#3,200.516,0.102,127,90.0
4070,A4,200.542,0.25,127,90.0
4071,G#3,200.583,333/1000,100,90.0
4072,G#4,200.583,333/1000,100,90.0
4073,A4,200.792,0.25,127,90.0
4074,C2,200.792,0.25,127,90.0
4075,F#2,200.792,0.25,127,90.0
4076,F#4,201.0,0.25,127,90.0
4077,F#3,201.0,0.25,127,90.0
4078,G#3,201.008,0.164,127,90.0
4079,A4,201.042,0.25,127,90.0
4080,A4,201.292,0.25,127,90.0
4081,D2,201.292,0.25,127,90.0
4082,F#2,201.292,0.25,127,90.0
4083,G#3,201.505,0.234,127,90.0
4084,A4,201.542,0.25,127,90.0
4085,A4,201.792,0.25,127,90.0
4086,F#2,201.792,0.25,127,90.0
4087,A4,202.042,0.25,127,90.0
4088,C2,202.042,0.25,127,90.0
4089,G#3,202.229,0.094,127,90.0
4090,A4,202.292,1/100,127,90.0
4091,F#2,202.292,1/100,127,90.0
4092,G#3,202.487,0.109,127,90.0
4093,A4,202.542,6/25,127,90.0
4094,F#2,202.542,6/25,127,90.0
4095,G#3,202.747,0.102,127,90.0
4096,A4,202.781,0.25,127,90.0
4097,F#4,203.0,0.25,127,90.0
4098,F#3,203.0,0.25,127,90.0
4099,G#3,203.005,161/1000,127,90.0
4100,A4,203.031,0.25,127,90.0
4101,C2,203.031,0.25,127,90.0
4102,F#2,203.031,0.25,127,90.0
4103,A4,203.281,0.25,127,90.0
4104,G#3,203.526,12/125,127,90.0
4105,A4,203.531,0.25,127,90.0
4106,D2,203.531,0.25,127,90.0
4107,F#2,203.531,0.25,127,90.0
4108,E2,203.75,0.25,120,90.0
4109,G#4,203.75,0.25,120,90.0
4110,G#5,203.75,0.25,100,90.0
4111,C#5,203.75,0.25,100,90.0
4112,G#3,203.75,0.25,100,90.0
4113,G#4,203.75,0.25,100,90.0
4114,G#3,203.773,12/125,127,90.0
4115,A4,203.781,0.25,127,90.0
4116,G#3,203.833,0.25,100,90.0
4117,G#4,203.833,0.25,100,90.0
4118,E2,204.0,0.25,120,90.0
4119,G#5,204.0,83/1000,100,90.0
4120,C#5,204.0,83/1000,100,90.0
4121,G#3,204.0,83/1000,100,90.0
4122,G#4,204.0,83/1000,100,90.0
4123,G#3,204.023,12/125,127,90.0
4124,A4,204.031,0.25,127,90.0
4125,F#2,204.031,0.25,127,90.0
4126,G#3,204.083,83/1000,100,90.0
4127,G#4,204.083,83/1000,100,90.0
4128,G#3,204.271,91/1000,127,90.0
4129,A4,204.281,0.25,127,90.0
4130,C2,204.281,0.25,127,90.0
4131,E-2,204.5,0.5,120,90.0
4132,A4,204.5,0.25,120,90.0
4133,C#5,204.5,333/1000,100,90.0
4134,A5,204.5,333/1000,100,90.0
4135,A4,204.5,333/1000,100,90.0
4136,A3,204.5,333/1000,100,90.0
4137,G#3,204.516,61/500,127,90.0
4138,A4,204.531,0.25,127,90.0
4139,F#2,204.531,0.25,127,90.0
4140,A4,204.583,333/1000,100,90.0
4141,A3,204.583,333/1000,100,90.0
4142,A4,204.781,0.25,127,90.0
4143,F#4,205.0,0.25,127,90.0
4144,F#3,205.0,0.25,127,90.0
4145,G#3,205.021,91/1000,127,90.0
4146,A4,205.031,0.25,127,90.0
4147,C2,205.031,0.25,127,90.0
4148,F#2,205.031,0.25,127,90.0
4149,G#3,205.263,99/1000,127,90.0
4150,A4,205.281,0.25,127,90.0
4151,G#3,205.518,99/1000,127,90.0
4152,A4,205.531,0.25,127,90.0
4153,D2,205.531,0.25,127,90.0
4154,F#2,205.531,0.25,127,90.0
4155,F#2,205.75,0.5,120,90.0
4156,F#4,205.75,0.25,120,90.0
4157,F#5,205.75,333/1000,100,90.0
4158,C#5,205.75,333/1000,100,90.0
4159,F#3,205.75,333/1000,100,90.0
4160,F#4,205.75,333/1000,100,90.0
4161,G#3,205.763,0.094,127,90.0
4162,A4,205.781,0.25,127,90.0
4163,F#3,205.833,333/1000,100,90.0
4164,F#4,205.833,333/1000,100,90.0
4165,G#3,206.01,12/125,127,90.0
4166,A4,206.031,0.25,127,90.0
4167,F#2,206.031,0.25,127,90.0
4168,G#3,206.25,0.086,127,90.0
4169,A4,206.281,0.25,127,90.0
4170,C2,206.281,0.25,127,90.0
4171,G#3,206.482,0.094,127,90.0
4172,E2,206.5,0.5,120,90.0
4173,G#4,206.5,0.25,120,90.0
4174,G#5,206.5,333/1000,100,90.0
4175,C#5,206.5,333/1000,100,90.0
4176,G#3,206.5,333/1000,100,90.0
4177,G#4,206.5,333/1000,100,90.0
4178,A4,206.531,1/100,127,90.0
4179,F#2,206.531,1/100,127,90.0
4180,G#3,206.583,333/1000,100,90.0
4181,G#4,206.583,333/1000,100,90.0
4182,G#3,206.75,0.141,127,90.0
4183,A4,206.781,6/25,127,90.0
4184,F#2,206.781,6/25,127,90.0
4185,F#4,207.0,0.25,127,90.0
4186,F#3,207.0,0.25,127,90.0
4187,A4,207.021,0.25,127,90.0
4188,A4,207.271,0.25,127,90.0
4189,C2,207.271,0.25,127,90.0
4190,F#2,207.271,0.25,127,90.0
4191,G#3,207.294,99/1000,127,90.0
4192,A4,207.521,0.25,127,90.0
4193,G#3,207.539,23/200,127,90.0
4194,B2,207.75,0.25,115,90.0
4195,B1,207.75,0.25,120,90.0
4196,B3,207.75,0.25,120,90.0
4197,C#3,207.75,0.25,120,90.0
4198,B2,207.75,0.25,50,90.0
4199,A4,207.75,0.25,50,90.0
4200,A3,207.75,0.25,50,90.0
4201,B3,207.75,0.25,50,90.0
4202,B3,207.75,0.25,100,90.0
4203,A4,207.75,0.25,100,90.0
4204,A3,207.75,0.25,100,90.0
4205,B2,207.75,0.25,100,90.0
4206,A4,207.771,0.25,127,90.0
4207,D2,207.771,0.25,127,90.0
4208,F#2,207.771,0.25,127,90.0
4209,G#3,207.805,0.109,127,90.0
4210,B3,207.833,0.25,100,90.0
4211,A4,207.833,0.25,100,90.0
4212,A3,207.833,0.25,100,90.0
4213,B2,207.833,0.25,100,90.0
4214,B2,208.0,83/1000,115,90.0
4215,B1,208.0,0.25,120,90.0
4216,C#3,208.0,0.25,120,90.0
4217,B2,208.0,83/1000,50,90.0
4218,A4,208.0,83/1000,50,90.0
4219,A3,208.0,83/1000,50,90.0
4220,B3,208.0,83/1000,50,90.0
4221,B3,208.0,83/1000,100,90.0
4222,A4,208.0,83/1000,100,90.0
4223,A3,208.0,83/1000,100,90.0
4224,B2,208.0,83/1000,100,90.0
4225,A4,208.021,0.25,127,90.0
4226,G#3,208.047,89/1000,127,90.0
4227,B3,208.083,83/1000,100,90.0
4228,A4,208.083,83/1000,100,90.0
4229,A3,208.083,83/1000,100,90.0
4230,B2,208.083,83/1000,100,90.0
4231,A4,208.271,0.25,127,90.0
4232,F#2,208.271,0.25,127,90.0
4233,G#3,208.281,0.086,127,90.0
4234,C#3,208.5,333/1000,115,90.0
4235,C#2,208.5,0.5,120,90.0
4236,C#4,208.5,0.25,120,90.0
4237,C#3,208.5,0.5,120,90.0
4238,C#4,208.5,333/1000,50,90.0
4239,C#3,208.5,333/1000,50,90.0
4240,G#4,208.5,333/1000,50,90.0
4241,G#3,208.5,333/1000,50,90.0
4242,G#4,208.5,333/1000,100,90.0
4243,C#4,208.5,333/1000,100,90.0
4244,C#3,208.5,333/1000,100,90.0
4245,G#3,208.5,333/1000,100,90.0
4246,A4,208.521,0.25,127,90.0
4247,C2,208.521,0.25,127,90.0
4248,G#3,208.534,0.156,127,90.0
4249,G#4,208.583,333/1000,100,90.0
4250,C#4,208.583,333/1000,100,90.0
4251,C#3,208.583,333/1000,100,90.0
4252,G#3,208.583,333/1000,100,90.0
4253,A4,208.771,0.25,127,90.0
4254,F#2,208.771,0.25,127,90.0
4255,F#4,209.0,0.25,127,90.0
4256,F#3,209.0,0.25,127,90.0
4257,G#3,209.008,12/125,127,90.0
4258,A4,209.021,0.25,127,90.0
4259,G#3,209.258,81/1000,127,90.0
4260,A4,209.271,0.25,127,90.0
4261,C2,209.271,0.25,127,90.0
4262,F#2,209.271,0.25,127,90.0
4263,G#3,209.518,0.086,127,90.0
4264,A4,209.521,0.25,127,90.0
4265,G#3,209.768,0.094,127,90.0
4266,A4,209.771,0.25,127,90.0
4267,D2,209.771,0.25,127,90.0
4268,F#2,209.771,0.25,127,90.0
4269,A4,210.021,0.25,127,90.0
4270,G#3,210.023,169/1000,127,90.0
4271,A4,210.271,0.25,127,90.0
4272,F#2,210.271,0.25,127,90.0
4273,G#3,210.484,13/125,127,90.0
4274,A4,210.521,0.25,127,90.0
4275,C2,210.521,0.25,127,90.0
4276,G#3,210.732,99/1000,127,90.0
4277,A4,210.771,1/100,127,90.0
4278,F#2,210.771,1/100,127,90.0
4279,F#4,211.0,0.25,127,90.0
4280,F#3,211.0,0.25,127,90.0
4281,G#3,211.005,201/1000,127,90.0
4282,A4,211.021,6/25,127,90.0
4283,F#2,211.021,6/25,127,90.0
4284,A4,211.26,0.25,127,90.0
4285,G#3,211.466,91/500,127,90.0
4286,A4,211.51,0.25,127,90.0
4287,C2,211.51,0.25,127,90.0
4288,F#2,211.51,0.25,127,90.0
4289,E2,211.75,0.25,120,90.0
4290,C#3,211.75,0.25,120,90.0
4291,G#3,211.75,0.25,100,90.0
4292,G#4,211.75,0.25,100,90.0
4293,A4,211.76,0.25,127,90.0
4294,G#3,211.833,0.25,100,90.0
4295,G#4,211.833,0.25,100,90.0
4296,E2,212.0,0.25,120,90.0
4297,C#3,212.0,0.25,120,90.0
4298,G#3,212.0,83/1000,100,90.0
4299,G#4,212.0,83/1000,100,90.0
4300,A4,212.01,0.25,127,90.0
4301,D2,212.01,0.25,127,90.0
4302,F#2,212.01,0.25,127,90.0
4303,G#3,212.018,99/1000,127,90.0
4304,G#3,212.083,83/1000,100,90.0
4305,G#4,212.083,83/1000,100,90.0
4306,G#3,212.25,107/1000,127,90.0
4307,A4,212.26,0.25,127,90.0
4308,E-2,212.5,0.5,120,90.0
4309,C#3,212.5,0.5,120,90.0
4310,A3,212.5,333/1000,100,90.0
4311,A4,212.5,333/1000,100,90.0
4312,A4,212.51,0.25,127,90.0
4313,F#2,212.51,0.25,127,90.0
4314,G#3,212.523,0.102,127,90.0
4315,A3,212.583,333/1000,100,90.0
4316,A4,212.583,333/1000,100,90.0
4317,A4,212.76,0.25,127,90.0
4318,C2,212.76,0.25,127,90.0
4319,G#3,212.779,99/1000,127,90.0
4320,F#4,213.0,0.25,127,90.0
4321,F#3,213.0,0.25,127,90.0
4322,A4,213.01,0.25,127,90.0
4323,F#2,213.01,0.25,127,90.0
4324,G#3,213.039,0.094,127,90.0
4325,A4,213.26,0.25,127,90.0
4326,G#3,213.292,0.094,127,90.0
4327,A4,213.51,0.25,127,90.0
4328,C2,213.51,0.25,127,90.0
4329,F#2,213.51,0.25,127,90.0
4330,G#3,213.534,0.133,127,90.0
4331,F#2,213.75,0.5,120,90.0
4332,C#3,213.75,0.5,120,90.0
4333,F#3,213.75,333/1000,100,90.0
4334,F#4,213.75,333/1000,100,90.0
4335,A4,213.76,0.25,127,90.0
4336,F#3,213.833,333/1000,100,90.0
4337,F#4,213.833,333/1000,100,90.0
4338,G#3,214.0,107/1000,127,90.0
4339,A4,214.01,0.25,127,90.0
4340,D2,214.01,0.25,127,90.0
4341,F#2,214.01,0.25,127,90.0
4342,A4,214.26,0.25,127,90.0
4343,G#3,214.268,0.094,127,90.0
4344,E2,214.5,0.5,120,90.0
4345,C#3,214.5,0.5,120,90.0
4346,G#4,214.5,333/1000,100,90.0
4347,G#3,214.5,333/1000,100,90.0
4348,A4,214.51,0.25,127,90.0
4349,F#2,214.51,0.25,127,90.0
4350,G#3,214.521,99/1000,127,90.0
4351,G#4,214.583,333/1000,100,90.0
4352,G#3,214.583,333/1000,100,90.0
4353,A4,214.76,0.25,127,90.0
4354,C2,214.76,0.25,127,90.0
4355,G#3,214.768,12/125,127,90.0
4356,F#4,215.0,0.25,127,90.0
4357,F#3,215.0,0.25,127,90.0
4358,A4,215.01,1/100,127,90.0
4359,F#2,215.01,1/100,127,90.0
4360,G#3,215.039,193/1000,127,90.0
4361,A4,215.26,6/25,127,90.0
4362,F#2,215.26,6/25,127,90.0
4363,G#3,215.471,0.164,127,90.0
4364,A4,215.5,0.25,127,90.0
4365,B1,215.75,0.25,120,90.0
4366,C#3,215.75,0.25,120,90.0
4367,A3,215.75,0.25,100,90.0
4368,A4,215.75,0.25,100,90.0
4369,A4,215.75,0.25,127,90.0
4370,C2,215.75,0.25,127,90.0
4371,F#2,215.75,0.25,127,90.0
4372,A3,215.833,0.25,100,90.0
4373,A4,215.833,0.25,100,90.0
4374,B1,216.0,0.25,120,90.0
4375,C#3,216.0,0.25,120,90.0
4376,A4,216.0,0.25,127,90.0
4377,A3,216.0,83/1000,100,90.0
4378,A4,216.0,83/1000,100,90.0
4379,A3,216.083,83/1000,100,90.0
4380,A4,216.083,83/1000,100,90.0
4381,A4,216.25,0.25,127,90.0
4382,D2,216.25,0.25,127,90.0
4383,F#2,216.25,0.25,127,90.0
4384,G#3,216.286,0.094,127,90.0
4385,C#2,216.5,0.5,120,90.0
4386,C#3,216.5,0.5,120,90.0
4387,A4,216.5,0.25,127,90.0
4388,G#3,216.5,333/1000,100,90.0
4389,G#4,216.5,333/1000,100,90.0
4390,G#3,216.539,13/125,127,90.0
4391,G#3,216.583,333/1000,100,90.0
4392,G#4,216.583,333/1000,100,90.0
4393,A4,216.75,0.25,127,90.0
4394,F#2,216.75,0.25,127,90.0
4395,G#3,216.779,13/125,127,90.0
4396,F#3,217.0,0.25,127,90.0
4397,F#4,217.0,0.25,127,90.0
4398,A4,217.0,0.25,127,90.0
4399,C2,217.0,0.25,127,90.0
4400,G#3,217.036,23/200,127,90.0
4401,A4,217.25,0.25,127,90.0
4402,F#2,217.25,0.25,127,90.0
4403,G#3,217.284,12/125,127,90.0
4404,A4,217.5,0.25,127,90.0
4405,G#3,217.526,0.102,127,90.0
4406,A4,217.75,0.25,127,90.0
4407,C2,217.75,0.25,127,90.0
4408,F#2,217.75,0.25,127,90.0
4409,G#3,217.771,107/1000,127,90.0
4410,A4,218.0,0.25,127,90.0
4411,G#3,218.034,0.156,127,90.0
4412,A4,218.25,0.25,127,90.0
4413,D2,218.25,0.25,127,90.0
4414,F#2,218.25,0.25,127,90.0
4415,A4,218.5,0.25,127,90.0
4416,G#3,218.508,107/1000,127,90.0
4417,A4,218.75,0.25,127,90.0
4418,F#2,218.75,0.25,127,90.0
4419,G#3,218.766,14/125,127,90.0
4420,F#4,219.0,0.25,127,90.0
4421,F#3,219.0,0.25,127,90.0
4422,A4,219.0,0.25,127,90.0
4423,C2,219.0,0.25,127,90.0
4424,G#3,219.023,0.109,127,90.0
4425,A4,219.25,1/100,127,90.0
4426,F#2,219.25,1/100,127,90.0
4427,G#3,219.266,91/1000,127,90.0
4428,A4,219.5,6/25,127,90.0
4429,F#2,219.5,6/25,127,90.0
4430,G#3,219.505,12/125,127,90.0
4431,A4,219.74,0.25,127,90.0
4432,E2,219.75,0.25,120,90.0
4433,C#3,219.75,0.25,120,90.0
4434,G#3,219.75,0.25,100,90.0
4435,G#4,219.75,0.25,100,90.0
4436,G#3,219.773,0.164,127,90.0
4437,G#3,219.833,0.25,100,90.0
4438,G#4,219.833,0.25,100,90.0
4439,A4,219.99,0.25,127,90.0
4440,C2,219.99,0.25,127,90.0
4441,F#2,219.99,0.25,127,90.0
4442,E2,220.0,0.25,120,90.0
4443,C#3,220.0,0.25,120,90.0
4444,G#3,220.0,83/1000,100,90.0
4445,G#4,220.0,83/1000,100,90.0
4446,G#3,220.083,83/1000,100,90.0
4447,G#4,220.083,83/1000,100,90.0
4448,A4,220.24,0.25,127,90.0
4449,G#3,220.49,0.109,127,90.0
4450,A4,220.49,0.25,127,90.0
4451,D2,220.49,0.25,127,90.0
4452,F#2,220.49,0.25,127,90.0
4453,E-2,220.5,0.5,120,90.0
4454,C#3,220.5,0.5,120,90.0
4455,A3,220.5,333/1000,100,90.0
4456,A4,220.5,333/1000,100,90.0
4457,A3,220.583,333/1000,100,90.0
4458,A4,220.583,333/1000,100,90.0
4459,A4,220.74,0.25,127,90.0
4460,G#3,220.76,151/1000,127,90.0
4461,A4,220.99,0.25,127,90.0
4462,F#2,220.99,0.25,127,90.0
4463,F#4,221.0,0.25,127,90.0
4464,F#3,221.0,0.25,127,90.0
4465,A4,221.24,0.25,127,90.0
4466,C2,221.24,0.25,127,90.0
4467,G#3,221.276,23/200,127,90.0
4468,A4,221.49,0.25,127,90.0
4469,F#2,221.49,0.25,127,90.0
4470,A4,221.74,0.25,127,90.0
4471,F#2,221.75,0.5,120,90.0
4472,F#4,221.75,333/1000,100,90.0
4473,F#3,221.75,333/1000,100,90.0
4474,G#3,221.768,0.094,127,90.0
4475,F#4,221.833,333/1000,100,90.0
4476,F#3,221.833,333/1000,100,90.0
4477,A4,221.99,0.25,127,90.0
4478,C2,221.99,0.25,127,90.0
4479,F#2,221.99,0.25,127,90.0
4480,G#3,222.016,161/1000,127,90.0
4481,A4,222.24,0.25,127,90.0
4482,A4,222.49,0.25,127,90.0
4483,D2,222.49,0.25,127,90.0
4484,F#2,222.49,0.25,127,90.0
4485,E2,222.5,0.5,120,90.0
4486,G#4,222.5,333/1000,100,90.0
4487,G#3,222.5,333/1000,100,90.0
4488,G#4,222.583,333/1000,100,90.0
4489,G#3,222.583,333/1000,100,90.0
4490,A4,222.74,0.25,127,90.0
4491,G#3,222.974,13/125,127,90.0
4492,A4,222.99,0.25,127,90.0
4493,F#2,222.99,0.25,127,90.0
4494,F#4,223.0,0.25,127,90.0
4495,F#3,223.0,0.25,127,90.0
4496,G#3,223.208,13/125,127,90.0
4497,A4,223.24,0.25,127,90.0
4498,C2,223.24,0.25,127,90.0
4499,G#3,223.456,14/125,127,90.0
4500,A4,223.49,1/100,127,90.0
4501,F#2,223.49,1/100,127,90.0
4502,G#3,223.688,12/125,127,90.0
4503,A4,223.74,6/25,127,90.0
4504,F#2,223.74,6/25,127,90.0
4505,B1,223.75,0.25,120,90.0
4506,A4,223.75,0.25,120,90.0
4507,C#3,223.75,0.25,120,90.0
4508,C#5,223.75,0.25,100,90.0
4509,A5,223.75,0.25,100,90.0
4510,A3,223.75,0.25,100,90.0
4511,A4,223.75,0.25,100,90.0
4512,A3,223.833,0.25,100,90.0
4513,A4,223.833,0.25,100,90.0
4514,G#3,223.945,0.055,127,90.0
4515,A4,223.979,0.25,127,90.0
4516,G#3,224.0,0.328,127,90.0
4517,B1,224.0,0.25,120,90.0
4518,A4,224.0,0.25,120,90.0
4519,C#3,224.0,0.25,120,90.0
4520,C#5,224.0,83/1000,100,90.0
4521,A5,224.0,83/1000,100,90.0
4522,A3,224.0,83/1000,100,90.0
4523,A4,224.0,83/1000,100,90.0
4524,A3,224.083,83/1000,100,90.0
4525,A4,224.083,83/1000,100,90.0
4526,A4,224.229,0.25,127,90.0
4527,C2,224.229,0.25,127,90.0
4528,F#2,224.229,0.25,127,90.0
4529,C#3,224.25,0.25,120,90.0
4530,A4,224.479,0.25,127,90.0
4531,C#2,224.5,0.5,120,90.0
4532,G#4,224.5,0.5,120,90.0
4533,C#3,224.5,0.25,120,90.0
4534,G#5,224.5,333/1000,100,90.0
4535,C#5,224.5,333/1000,100,90.0
4536,G#3,224.5,333/1000,100,90.0
4537,G#4,224.5,333/1000,100,90.0
4538,G#3,224.583,333/1000,100,90.0
4539,G#4,224.583,333/1000,100,90.0
4540,A4,224.729,0.25,127,90.0
4541,D2,224.729,0.25,127,90.0
4542,F#2,224.729,0.25,127,90.0
4543,C#3,224.75,0.25,120,90.0
4544,G#3,224.958,107/1000,127,90.0
4545,A4,224.979,0.25,127,90.0
4546,C#3,225.0,0.25,120,90.0
4547,F#4,225.0,0.25,127,90.0
4548,F#3,225.0,0.25,127,90.0
4549,G#3,225.203,13/125,127,90.0
4550,A4,225.229,0.25,127,90.0
4551,F#2,225.229,0.25,127,90.0
4552,C#3,225.25,0.25,120,90.0
4553,G#3,225.448,91/1000,127,90.0
4554,A4,225.479,0.25,127,90.0
4555,C2,225.479,0.25,127,90.0
4556,C#3,225.5,0.25,120,90.0
4557,G#3,225.682,99/1000,127,90.0
4558,A4,225.729,0.25,127,90.0
4559,F#2,225.729,0.25,127,90.0
4560,C#3,225.75,0.25,120,90.0
4561,G#3,225.969,299/1000,127,90.0
4562,A4,225.979,0.25,127,90.0
4563,C#3,226.0,0.25,120,90.0
4564,A4,226.229,0.25,127,90.0
4565,C2,226.229,0.25,127,90.0
4566,F#2,226.229,0.25,127,90.0
4567,C#3,226.25,0.25,120,90.0
4568,G#3,226.458,14/125,127,90.0
4569,A4,226.479,0.25,127,90.0
4570,C#3,226.5,0.25,120,90.0
4571,G#3,226.711,323/1000,127,90.0
4572,A4,226.729,0.25,127,90.0
4573,D2,226.729,0.25,127,90.0
4574,F#2,226.729,0.25,127,90.0
4575,C#3,226.75,0.25,120,90.0
4576,A4,226.979,0.25,127,90.0
4577,C#3,227.0,0.25,120,90.0
4578,F#4,227.0,0.25,127,90.0
4579,F#3,227.0,0.25,127,90.0
4580,G#3,227.193,27/200,127,90.0
4581,A4,227.229,0.25,127,90.0
4582,F#2,227.229,0.25,127,90.0
4583,C#3,227.25,0.25,120,90.0
4584,G#3,227.456,107/1000,127,90.0
4585,A4,227.479,0.25,127,90.0
4586,C2,227.479,0.25,127,90.0
4587,C#3,227.5,0.25,120,90.0
4588,G#3,227.703,0.094,127,90.0
4589,A4,227.729,1/100,127,90.0
4590,F#2,227.729,1/100,127,90.0
4591,E2,227.75,0.25,120,90.0
4592,G#4,227.75,0.25,120,90.0
4593,C#3,227.75,0.25,120,90.0
4594,G#5,227.75,0.25,100,90.0
4595,C#5,227.75,0.25,100,90.0
4596,G#3,227.75,0.25,100,90.0
4597,G#4,227.75,0.25,100,90.0
4598,G#3,227.833,0.25,100,90.0
4599,G#4,227.833,0.25,100,90.0
4600,G#3,227.964,9/250,127,90.0
4601,A4,227.979,6/25,127,90.0
4602,F#2,227.979,6/25,127,90.0
4603,G#3,228.0,0.289,127,90.0
4604,E2,228.0,0.25,120,90.0
4605,C#3,228.0,0.25,120,90.0
4606,G#5,228.0,83/1000,100,90.0
4607,C#5,228.0,83/1000,100,90.0
4608,G#3,228.0,83/1000,100,90.0
4609,G#4,228.0,83/1000,100,90.0
4610,G#3,228.083,83/1000,100,90.0
4611,G#4,228.083,83/1000,100,90.0
4612,A4,228.219,0.25,127,90.0
4613,C#3,228.25,0.25,120,90.0
4614,A4,228.469,0.25,127,90.0
4615,C2,228.469,0.25,127,90.0
4616,F#2,228.469,0.25,127,90.0
4617,G#3,228.474,0.102,127,90.0
4618,E-2,228.5,0.5,120,90.0
4619,A4,228.5,0.25,120,90.0
4620,C#3,228.5,0.25,120,90.0
4621,C#5,228.5,333/1000,100,90.0
4622,A5,228.5,333/1000,100,90.0
4623,A4,228.5,333/1000,100,90.0
4624,A3,228.5,333/1000,100,90.0
4625,A4,228.583,333/1000,100,90.0
4626,A3,228.583,333/1000,100,90.0
4627,A4,228.719,0.25,127,90.0
4628,G#3,228.729,151/500,127,90.0
4629,C#3,228.75,0.25,120,90.0
4630,A4,228.969,0.25,127,90.0
4631,D2,228.969,0.25,127,90.0
4632,F#2,228.969,0.25,127,90.0
4633,C#3,229.0,0.25,120,90.0
4634,F#4,229.0,0.25,127,90.0
4635,F#3,229.0,0.25,127,90.0
4636,G#3,229.208,99/1000,127,90.0
4637,A4,229.219,0.25,127,90.0
4638,C#3,229.25,0.25,120,90.0
4639,A4,229.469,0.25,127,90.0
4640,F#2,229.469,0.25,127,90.0
4641,G#3,229.482,83/1000,127,90.0
4642,C#3,229.5,0.25,120,90.0
4643,G#3,229.719,0.094,127,90.0
4644,A4,229.719,0.25,127,90.0
4645,C2,229.719,0.25,127,90.0
4646,F#2,229.75,0.5,120,90.0
4647,F#4,229.75,0.25,120,90.0
4648,C#3,229.75,0.25,120,90.0
4649,C#5,229.75,333/1000,100,90.0
4650,F#5,229.75,333/1000,100,90.0
4651,F#4,229.75,333/1000,100,90.0
4652,F#3,229.75,333/1000,100,90.0
4653,F#4,229.833,333/1000,100,90.0
4654,F#3,229.833,333/1000,100,90.0
4655,A4,229.969,0.25,127,90.0
4656,F#2,229.969,0.25,127,90.0
4657,G#3,229.974,189/500,127,90.0
4658,C#3,230.0,0.25,120,90.0
4659,A4,230.219,0.25,127,90.0
4660,C#3,230.25,0.25,120,90.0
4661,A4,230.469,0.25,127,90.0
4662,C2,230.469,0.25,127,90.0
4663,F#2,230.469,0.25,127,90.0
4664,E2,230.5,0.5,120,90.0
4665,G#4,230.5,0.25,120,90.0
4666,C#3,230.5,0.25,120,90.0
4667,C#5,230.5,333/1000,100,90.0
4668,G#5,230.5,333/1000,100,90.0
4669,G#3,230.5,333/1000,100,90.0
4670,G#4,230.5,333/1000,100,90.0
4671,G#3,230.583,333/1000,100,90.0
4672,G#4,230.583,333/1000,100,90.0
4673,G#3,230.669,99/1000,127,90.0
4674,A4,230.719,0.25,127,90.0
4675,C#3,230.75,0.25,120,90.0
4676,G#3,230.948,13/125,127,90.0
4677,A4,230.969,0.25,127,90.0
4678,D2,230.969,0.25,127,90.0
4679,F#2,230.969,0.25,127,90.0
4680,C#3,231.0,0.25,120,90.0
4681,F#4,231.0,0.25,127,90.0
4682,F#3,231.0,0.25,127,90.0
4683,G#3,231.19,0.102,127,90.0
4684,A4,231.219,0.25,127,90.0
4685,C#3,231.25,0.25,120,90.0
4686,G#3,231.448,0.102,127,90.0
4687,A4,231.469,0.25,127,90.0
4688,F#2,231.469,0.25,127,90.0
4689,C#3,231.5,0.25,120,90.0
4690,G#3,231.701,0.086,127,90.0
4691,A4,231.719,0.25,127,90.0
4692,C2,231.719,0.25,127,90.0
4693,B1,231.75,0.25,120,90.0
4694,A4,231.75,0.25,120,90.0
4695,C#3,231.75,0.25,120,90.0
4696,A5,231.75,0.25,100,90.0
4697,C#5,231.75,0.25,100,90.0
4698,A3,231.75,0.25,100,90.0
4699,A4,231.75,0.25,100,90.0
4700,A3,231.833,0.25,100,90.0
4701,A4,231.833,0.25,100,90.0
4702,G#3,231.961,0.039,127,90.0
4703,A4,231.969,1/100,127,90.0
4704,F#2,231.969,1/100,127,90.0
4705,G#3,232.0,0.156,127,90.0
4706,B1,232.0,0.25,120,90.0
4707,A4,232.0,0.25,120,90.0
4708,C#3,232.0,0.25,120,90.0
4709,A5,232.0,83/1000,100,90.0
4710,C#5,232.0,83/1000,100,90.0
4711,A3,232.0,83/1000,100,90.0
4712,A4,232.0,83/1000,100,90.0
4713,A3,232.083,83/1000,100,90.0
4714,A4,232.083,83/1000,100,90.0
4715,A4,232.219,6/25,127,90.0
4716,F#2,232.219,6/25,127,90.0
4717,C#3,232.25,0.25,120,90.0
4718,G#3,232.422,83/1000,127,90.0
4719,A4,232.458,0.25,127,90.0
4720,C#2,232.5,0.5,120,90.0
4721,G#4,232.5,0.25,120,90.0
4722,C#3,232.5,0.25,120,90.0
4723,C#5,232.5,333/1000,100,90.0
4724,G#5,232.5,333/1000,100,90.0
4725,G#3,232.5,333/1000,100,90.0
4726,G#4,232.5,333/1000,100,90.0
4727,G#3,232.583,333/1000,100,90.0
4728,G#4,232.583,333/1000,100,90.0
4729,G#3,232.672,0.102,127,90.0
4730,A4,232.708,0.25,127,90.0
4731,C2,232.708,0.25,127,90.0
4732,F#2,232.708,0.25,127,90.0
4733,C#3,232.75,0.25,120,90.0
4734,G#3,232.935,3/25,127,90.0
4735,A4,232.958,0.25,127,90.0
4736,C#3,233.0,0.25,120,90.0
4737,F#4,233.0,0.25,127,90.0
4738,F#3,233.0,0.25,127,90.0
4739,G#3,233.19,99/1000,127,90.0
4740,A4,233.208,0.25,127,90.0
4741,D2,233.208,0.25,127,90.0
4742,F#2,233.208,0.25,127,90.0
4743,C#3,233.25,0.25,120,90.0
4744,G#3,233.44,99/1000,127,90.0
4745,A4,233.458,0.25,127,90.0
4746,C#3,233.5,0.25,120,90.0
4747,G#3,233.701,0.109,127,90.0
4748,A4,233.708,0.25,127,90.0
4749,F#2,233.708,0.25,127,90.0
4750,C#3,233.75,0.25,120,90.0
4751,A4,233.958,0.25,127,90.0
4752,C2,233.958,0.25,127,90.0
4753,G#3,233.971,159/500,127,90.0
4754,C#3,234.0,0.25,120,90.0
4755,A4,234.208,0.25,127,90.0
4756,F#2,234.208,0.25,127,90.0
4757,C#3,234.25,0.25,120,90.0
4758,G#3,234.445,0.125,127,90.0
4759,A4,234.458,0.25,127,90.0
4760,C#3,234.5,0.25,120,90.0
4761,A4,234.708,0.25,127,90.0
4762,C2,234.708,0.25,127,90.0
4763,F#2,234.708,0.25,127,90.0
4764,G#3,234.721,71/250,127,90.0
4765,C#3,234.75,0.25,120,90.0
4766,A4,234.958,0.25,127,90.0
4767,C#3,235.0,0.25,120,90.0
4768,F#3,235.0,0.25,127,90.0
4769,F#4,235.0,0.25,127,90.0
4770,G#3,235.167,99/1000,127,90.0
4771,A4,235.208,0.25,127,90.0
4772,D2,235.208,0.25,127,90.0
4773,F#2,235.208,0.25,127,90.0
4774,C#3,235.25,0.25,120,90.0
4775,G#3,235.44,99/1000,127,90.0
4776,A4,235.458,0.25,127,90.0
4777,C#3,235.5,0.25,120,90.0
4778,G#3,235.693,0.094,127,90.0
4779,A4,235.708,0.25,127,90.0
4780,F#2,235.708,0.25,127,90.0
4781,E2,235.75,0.25,120,90.0
4782,G#4,235.75,0.25,120,90.0
4783,C#3,235.75,0.25,120,90.0
4784,G#5,235.75,0.25,100,90.0
4785,C#5,235.75,0.25,100,90.0
4786,G#3,235.75,0.25,100,90.0
4787,G#4,235.75,0.25,100,90.0
4788,G#3,235.833,0.25,100,90.0
4789,G#4,235.833,0.25,100,90.0
4790,G#3,235.953,0.047,127,90.0
4791,A4,235.958,0.25,127,90.0
4792,C2,235.958,0.25,127,90.0
4793,G#3,236.0,279/1000,127,90.0
4794,E2,236.0,0.25,120,90.0
4795,C#3,236.0,0.25,120,90.0
4796,G#5,236.0,83/1000,100,90.0
4797,C#5,236.0,83/1000,100,90.0
4798,G#3,236.0,83/1000,100,90.0
4799,G#4,236.0,83/1000,100,90.0
4800,G#3,236.083,83/1000,100,90.0
4801,G#4,236.083,83/1000,100,90.0
4802,A4,236.208,1/100,127,90.0
4803,F#2,236.208,1/100,127,90.0
4804,C#3,236.25,0.25,120,90.0
4805,G#3,236.458,91/1000,127,90.0
4806,A4,236.458,6/25,127,90.0
4807,F#2,236.458,6/25,127,90.0
4808,E-2,236.5,0.5,120,90.0
4809,A4,236.5,0.25,120,90.0
4810,C#3,236.5,0.25,120,90.0
4811,C#5,236.5,333/1000,100,90.0
4812,A5,236.5,333/1000,100,90.0
4813,A4,236.5,333/1000,100,90.0
4814,A3,236.5,333/1000,100,90.0
4815,A4,236.583,333/1000,100,90.0
4816,A3,236.583,333/1000,100,90.0
4817,A4,236.698,0.25,127,90.0
4818,G#3,236.721,307/1000,127,90.0
4819,C#3,236.75,0.25,120,90.0
4820,A4,236.948,0.25,127,90.0
4821,C2,236.948,0.25,127,90.0
4822,F#2,236.948,0.25,127,90.0
4823,C#3,237.0,0.25,120,90.0
4824,F#3,237.0,0.25,127,90.0
4825,F#4,237.0,0.25,127,90.0
4826,A4,237.198,0.25,127,90.0
4827,G#3,237.237,107/1000,127,90.0
4828,C#3,237.25,0.25,120,90.0
4829,A4,237.448,0.25,127,90.0
4830,D2,237.448,0.25,127,90.0
4831,F#2,237.448,0.25,127,90.0
4832,G#3,237.482,107/1000,127,90.0
4833,C#3,237.5,0.25,120,90.0
4834,A4,237.698,0.25,127,90.0
4835,G#3,237.721,12/125,127,90.0
4836,F#2,237.75,0.5,120,90.0
4837,F#4,237.75,0.25,120,90.0
4838,C#3,237.75,0.25,120,90.0
4839,F#5,237.75,333/1000,100,90.0
4840,C#5,237.75,333/1000,100,90.0
4841,F#3,237.75,333/1000,100,90.0
4842,F#4,237.75,333/1000,100,90.0
4843,F#3,237.833,333/1000,100,90.0
4844,F#4,237.833,333/1000,100,90.0
4845,A4,237.948,0.25,127,90.0
4846,F#2,237.948,0.25,127,90.0
4847,G#3,237.961,0.297,127,90.0
4848,C#3,238.0,0.25,120,90.0
4849,A4,238.198,0.25,127,90.0
4850,C2,238.198,0.25,127,90.0
4851,C#3,238.25,0.25,120,90.0
4852,A4,238.448,0.25,127,90.0
4853,F#2,238.448,0.25,127,90.0
4854,E2,238.5,0.5,120,90.0
4855,G#4,238.5,0.25,120,90.0
4856,C#3,238.5,0.25,120,90.0
4857,G#5,238.5,333/1000,100,90.0
4858,C#5,238.5,333/1000,100,90.0
4859,G#3,238.5,333/1000,100,90.0
4860,G#4,238.5,333/1000,100,90.0
4861,G#3,238.583,333/1000,100,90.0
4862,G#4,238.583,333/1000,100,90.0
4863,A4,238.698,0.25,127,90.0
4864,G#3,238.714,12/125,127,90.0
4865,C#3,238.75,0.25,120,90.0
4866,A4,238.948,0.25,127,90.0
4867,C2,238.948,0.25,127,90.0
4868,F#2,238.948,0.25,127,90.0
4869,G#3,238.961,14/125,127,90.0
4870,C#3,239.0,0.25,120,90.0
4871,F#4,239.0,0.25,127,90.0
4872,F#3,239.0,0.25,127,90.0
4873,A4,239.198,0.25,127,90.0
4874,G#3,239.211,107/1000,127,90.0
4875,C#3,239.25,0.25,120,90.0
4876,A4,239.448,0.25,127,90.0
4877,D2,239.448,0.25,127,90.0
4878,F#2,239.448,0.25,127,90.0
4879,G#3,239.464,13/125,127,90.0
4880,C#3,239.5,0.25,120,90.0
4881,A4,239.698,0.25,127,90.0
4882,G#3,239.714,0.102,127,90.0
4883,B1,239.75,0.25,120,90.0
4884,A4,239.75,0.25,120,90.0
4885,C#3,239.75,0.25,120,90.0
4886,C#5,239.75,0.25,100,90.0
4887,A5,239.75,0.25,100,90.0
4888,A3,239.75,0.25,100,90.0
4889,A4,239.75,0.25,100,90.0
4890,A3,239.833,0.25,100,90.0
4891,A4,239.833,0.25,100,90.0
4892,A4,239.948,0.25,127,90.0
4893,F#2,239.948,0.25,127,90.0
4894,G#3,239.969,0.031,127,90.0
4895,G#3,240.0,143/500,127,90.0
4896,B1,240.0,0.25,120,90.0
4897,C#3,240.0,0.25,120,90.0
4898,C#5,240.0,83/1000,100,90.0
4899,A5,240.0,83/1000,100,90.0
4900,A3,240.0,83/1000,100,90.0
4901,A4,240.0,83/1000,100,90.0
4902,A3,240.083,83/1000,100,90.0
4903,A4,240.083,83/1000,100,90.0
4904,A4,240.198,0.25,127,90.0
4905,C2,240.198,0.25,127,90.0
4906,C#3,240.25,0.25,120,90.0
4907,A4,240.448,1/100,127,90.0
4908,F#2,240.448,1/100,127,90.0
4909,C#2,240.5,0.5,120,90.0
4910,G#4,240.5,0.25,120,90.0
4911,C#3,240.5,0.25,120,90.0
4912,C#5,240.5,333/1000,100,90.0
4913,G#5,240.5,333/1000,100,90.0
4914,G#3,240.5,333/1000,100,90.0
4915,G#4,240.5,333/1000,100,90.0
4916,G#3,240.583,333/1000,100,90.0
4917,G#4,240.583,333/1000,100,90.0
4918,A4,240.698,6/25,127,90.0
4919,F#2,240.698,6/25,127,90.0
4920,C#3,240.75,0.25,120,90.0
4921,G#3,240.909,99/1000,127,90.0
4922,A4,240.938,0.25,127,90.0
4923,C#3,241.0,0.25,120,90.0
4924,F#4,241.0,0.25,127,90.0
4925,F#3,241.0,0.25,127,90.0
4926,G#3,241.156,99/1000,127,90.0
4927,A4,241.188,0.25,127,90.0
4928,C2,241.188,0.25,127,90.0
4929,F#2,241.188,0.25,127,90.0
4930,C#3,241.25,0.25,120,90.0
4931,G#3,241.427,0.094,127,90.0
4932,A4,241.438,0.25,127,90.0
4933,C#3,241.5,0.25,120,90.0
4934,G#3,241.685,12/125,127,90.0
4935,A4,241.688,0.25,127,90.0
4936,D2,241.688,0.25,127,90.0
4937,F#2,241.688,0.25,127,90.0
4938,C#3,241.75,0.25,120,90.0
4939,A4,241.938,0.25,127,90.0
4940,G#3,241.948,349/1000,127,90.0
4941,C#3,242.0,0.25,120,90.0
4942,A4,242.188,0.25,127,90.0
4943,F#2,242.188,0.25,127,90.0
4944,C#3,242.25,0.25,120,90.0
4945,A4,242.438,0.25,127,90.0
4946,C2,242.438,0.25,127,90.0
4947,G#3,242.451,0.125,127,90.0
4948,C#3,242.5,0.25,120,90.0
4949,A4,242.688,0.25,127,90.0
4950,F#2,242.688,0.25,127,90.0
4951,G#3,242.711,0.32,127,90.0
4952,C#3,242.75,0.25,120,90.0
4953,A4,242.938,0.25,127,90.0
4954,C#3,243.0,0.25,120,90.0
4955,F#4,243.0,0.25,127,90.0
4956,F#3,243.0,0.25,127,90.0
4957,A4,243.188,0.25,127,90.0
4958,C2,243.188,0.25,127,90.0
4959,F#2,243.188,0.25,127,90.0
4960,G#3,243.195,0.117,127,90.0
4961,C#3,243.25,0.25,120,90.0
4962,A4,243.438,0.25,127,90.0
4963,G#3,243.466,23/200,127,90.0
4964,C#3,243.5,0.25,120,90.0
4965,A4,243.688,0.25,127,90.0
4966,D2,243.688,0.25,127,90.0
4967,F#2,243.688,0.25,127,90.0
4968,G#3,243.716,13/125,127,90.0
4969,E2,243.75,0.25,120,90.0
4970,G#4,243.75,0.25,120,90.0
4971,C#3,243.75,0.25,120,90.0
4972,G#5,243.75,0.25,100,90.0
4973,C#5,243.75,0.25,100,90.0
4974,G#4,243.75,0.25,100,90.0
4975,G#3,243.75,0.25,100,90.0
4976,G#4,243.833,0.25,100,90.0
4977,G#3,243.833,0.25,100,90.0
4978,A4,243.938,0.25,127,90.0
4979,G#3,243.971,29/1000,127,90.0
4980,G#3,244.0,333/1000,127,90.0
4981,E2,244.0,0.25,120,90.0
4982,C#3,244.0,0.25,120,90.0
4983,G#5,244.0,83/1000,100,90.0
4984,C#5,244.0,83/1000,100,90.0
4985,G#4,244.0,83/1000,100,90.0
4986,G#3,244.0,83/1000,100,90.0
4987,G#4,244.083,83/1000,100,90.0
4988,G#3,244.083,83/1000,100,90.0
4989,A4,244.188,0.25,127,90.0
4990,F#2,244.188,0.25,127,90.0
4991,C#3,244.25,0.25,120,90.0
4992,A4,244.438,0.25,127,90.0
4993,C2,244.438,0.25,127,90.0
4994,G#3,244.5,0.094,127,90.0
4995,E-2,244.5,0.5,120,90.0
4996,A4,244.5,0.25,120,90.0
4997,C#3,244.5,0.25,120,90.0
4998,A5,244.5,333/1000,100,90.0
4999,C#5,244.5,333/1000,100,90.0
5000,A4,244.5,333/1000,100,90.0
5001,A3,244.5,333/1000,100,90.0
5002,A4,244.583,333/1000,100,90.0
5003,A3,244.583,333/1000,100,90.0
5004,A4,244.688,1/100,127,90.0
5005,F#2,244.688,1/100,127,90.0
5006,C#3,244.75,0.25,120,90.0
5007,G#3,244.758,0.305,127,90.0
5008,A4,244.938,6/25,127,90.0
5009,F#2,244.938,6/25,127,90.0
5010,C#3,245.0,0.25,120,90.0
5011,F#4,245.0,0.25,127,90.0
5012,F#3,245.0,0.25,127,90.0
5013,A4,245.177,0.25,127,90.0
5014,C#3,245.25,0.25,120,90.0
5015,G#3,245.258,12/125,127,90.0
5016,A4,245.427,0.25,127,90.0
5017,C2,245.427,0.25,127,90.0
5018,F#2,245.427,0.25,127,90.0
5019,G#3,245.5,0.102,127,90.0
5020,C#3,245.5,0.25,120,90.0
5021,A4,245.677,0.25,127,90.0
5022,G#3,245.737,0.102,127,90.0
5023,F#2,245.75,0.5,120,90.0
5024,F#4,245.75,0.25,120,90.0
5025,C#3,245.75,0.25,120,90.0
5026,C#5,245.75,333/1000,100,90.0
5027,F#5,245.75,333/1000,100,90.0
5028,F#3,245.75,333/1000,100,90.0
5029,F#4,245.75,333/1000,100,90.0
5030,F#3,245.833,333/1000,100,90.0
5031,F#4,245.833,333/1000,100,90.0
5032,A4,245.927,0.25,127,90.0
5033,D2,245.927,0.25,127,90.0
5034,F#2,245.927,0.25,127,90.0
5035,G#3,245.99,189/500,127,90.0
5036,C#3,246.0,0.25,120,90.0
5037,A4,246.177,0.25,127,90.0
5038,C#3,246.25,0.25,120,90.0
5039,A4,246.427,0.25,127,90.0
5040,F#2,246.427,0.25,127,90.0
5041,E2,246.5,0.5,120,90.0
5042,G#4,246.5,0.25,120,90.0
5043,C#3,246.5,0.25,120,90.0
5044,C#5,246.5,333/1000,100,90.0
5045,G#5,246.5,333/1000,100,90.0
5046,G#3,246.5,333/1000,100,90.0
5047,G#4,246.5,333/1000,100,90.0
5048,G#3,246.583,333/1000,100,90.0
5049,G#4,246.583,333/1000,100,90.0
5050,A4,246.677,0.25,127,90.0
5051,C2,246.677,0.25,127,90.0
5052,G#3,246.721,107/1000,127,90.0
5053,C#3,246.75,0.25,120,90.0
5054,A4,246.927,0.25,127,90.0
5055,F#2,246.927,0.25,127,90.0
5056,G#3,246.971,12/125,127,90.0
5057,C#3,247.0,0.25,120,90.0
5058,F#4,247.0,0.25,127,90.0
5059,F#3,247.0,0.25,127,90.0
5060,A4,247.177,0.25,127,90.0
5061,G#3,247.224,0.094,127,90.0
5062,C#3,247.25,0.25,120,90.0
5063,A4,247.427,0.25,127,90.0
5064,C2,247.427,0.25,127,90.0
5065,F#2,247.427,0.25,127,90.0
5066,G#3,247.464,99/1000,127,90.0
5067,C#3,247.5,0.25,108,90.0
5068,E3,247.5,0.25,108,90.0
5069,A4,247.677,0.25,127,90.0
5070,G#3,247.703,12/125,127,90.0
5071,B1,247.75,0.25,120,90.0
5072,A4,247.75,0.25,120,90.0
5073,C#5,247.75,0.25,100,90.0
5074,A5,247.75,0.25,100,90.0
5075,C#3,247.75,0.25,119,90.0
5076,C#3,247.75,0.25,119,90.0
5077,A3,247.75,0.25,100,90.0
5078,A4,247.75,0.25,100,90.0
5079,A3,247.833,0.25,100,90.0
5080,A4,247.833,0.25,100,90.0
5081,A4,247.927,0.25,127,90.0
5082,D2,247.927,0.25,127,90.0
5083,F#2,247.927,0.25,127,90.0
5084,G#3,247.956,11/250,127,90.0
5085,G#3,248.0,37/200,127,90.0
5086,B1,248.0,0.25,120,90.0
5087,C#5,248.0,83/1000,100,90.0
5088,A5,248.0,83/1000,100,90.0
5089,C#3,248.0,0.25,110,90.0
5090,E3,248.0,0.25,110,90.0
5091,A3,248.0,83/1000,100,90.0
5092,A4,248.0,83/1000,100,90.0
5093,A3,248.083,83/1000,100,90.0
5094,A4,248.083,83/1000,100,90.0
5095,A4,248.177,0.25,127,90.0
5096,C#3,248.25,0.25,112,90.0
5097,C#3,248.25,0.25,112,90.0
5098,A4,248.427,0.25,127,90.0
5099,F#2,248.427,0.25,127,90.0
5100,G#3,248.479,13/125,127,90.0
5101,C#2,248.5,0.5,120,90.0
5102,G#4,248.5,0.25,120,90.0
5103,C#3,248.5,0.25,120,90.0
5104,G#5,248.5,333/1000,100,90.0
5105,C#5,248.5,333/1000,100,90.0
5106,G#3,248.5,333/1000,100,90.0
5107,G#4,248.5,333/1000,100,90.0
5108,G#3,248.583,333/1000,100,90.0
5109,G#4,248.583,333/1000,100,90.0
5110,A4,248.677,0.25,127,90.0
5111,C2,248.677,0.25,127,90.0
5112,G#3,248.724,12/125,127,90.0
5113,C#3,248.75,0.25,120,90.0
5114,A4,248.927,1/100,127,90.0
5115,F#2,248.927,1/100,127,90.0
5116,G#3,248.958,0.094,127,90.0
5117,C#3,249.0,0.25,120,90.0
5118,F#4,249.0,0.25,127,90.0
5119,F#3,249.0,0.25,127,90.0
5120,A4,249.177,6/25,127,90.0
5121,F#2,249.177,6/25,127,90.0
5122,G#3,249.19,12/125,127,90.0
5123,C#3,249.25,0.25,120,90.0
5124,A4,249.417,0.25,127,90.0
5125,G#3,249.456,13/125,127,90.0
5126,C#3,249.5,0.25,120,90.0
5127,A4,249.667,0.25,127,90.0
5128,C2,249.667,0.25,127,90.0
5129,F#2,249.667,0.25,127,90.0
5130,G#3,249.714,99/1000,127,90.0
5131,C#3,249.75,0.25,120,90.0
5132,A4,249.917,0.25,127,90.0
5133,G#3,249.977,73/250,127,90.0
5134,C#3,250.0,0.25,120,90.0
5135,A4,250.167,0.25,127,90.0
5136,D2,250.167,0.25,127,90.0
5137,F#2,250.167,0.25,127,90.0
5138,C#3,250.25,0.25,120,90.0
5139,A4,250.417,0.25,127,90.0
5140,G#3,250.451,23/200,127,90.0
5141,C#3,250.5,0.25,120,90.0
5142,A4,250.667,0.25,127,90.0
5143,F#2,250.667,0.25,127,90.0
5144,G#3,250.727,73/250,127,90.0
5145,C#3,250.75,0.25,120,90.0
5146,A4,250.917,0.25,127,90.0
5147,C2,250.917,0.25,127,90.0
5148,C#3,251.0,0.25,120,90.0
5149,F#4,251.0,0.25,127,90.0
5150,F#3,251.0,0.25,127,90.0
5151,A4,251.167,0.25,127,90.0
5152,F#2,251.167,0.25,127,90.0
5153,G#3,251.193,16/125,127,90.0
5154,C#3,251.25,0.25,120,90.0
5155,A4,251.417,0.25,127,90.0
5156,G#3,251.466,14/125,127,90.0
5157,C#3,251.5,0.25,120,90.0
5158,A4,251.667,0.25,127,90.0
5159,C2,251.667,0.25,127,90.0
5160,F#2,251.667,0.25,127,90.0
5161,G#3,251.732,107/1000,127,90.0
5162,E2,251.75,0.25,120,90.0
5163,G#4,251.75,0.25,120,90.0
5164,C#3,251.75,0.25,120,90.0
5165,C#5,251.75,0.25,100,90.0
5166,G#5,251.75,0.25,100,90.0
5167,G#4,251.75,0.25,100,90.0
5168,G#3,251.75,0.25,100,90.0
5169,G#4,251.833,0.25,100,90.0
5170,G#3,251.833,0.25,100,90.0
5171,A4,251.917,0.25,127,90.0
5172,G#3,251.974,13/500,127,90.0
5173,G#3,252.0,0.289,127,90.0
5174,E2,252.0,0.25,120,90.0
5175,C#3,252.0,0.25,120,90.0
5176,C#5,252.0,83/1000,100,90.0
5177,G#5,252.0,83/1000,100,90.0
5178,G#4,252.0,83/1000,100,90.0
5179,G#3,252.0,83/1000,100,90.0
5180,G#4,252.083,83/1000,100,90.0
5181,G#3,252.083,83/1000,100,90.0
5182,A4,252.167,0.25,127,90.0
5183,D2,252.167,0.25,127,90.0
5184,F#2,252.167,0.25,127,90.0
5185,C#3,252.25,0.25,120,90.0
5186,A4,252.417,0.25,127,90.0
5187,G#3,252.484,99/1000,127,90.0
5188,E-2,252.5,0.5,120,90.0
5189,A4,252.5,0.25,120,90.0
5190,C#3,252.5,0.25,120,90.0
5191,A5,252.5,333/1000,100,90.0
5192,C#5,252.5,333/1000,100,90.0
5193,A3,252.5,333/1000,100,90.0
5194,A4,252.5,333/1000,100,90.0
5195,A3,252.583,333/1000,100,90.0
5196,A4,252.583,333/1000,100,90.0
5197,A4,252.667,0.25,127,90.0
5198,F#2,252.667,0.25,127,90.0
5199,G#3,252.734,163/500,127,90.0
5200,C#3,252.75,0.25,120,90.0
5201,A4,252.917,0.25,127,90.0
5202,C2,252.917,0.25,127,90.0
5203,C#3,253.0,0.25,120,90.0
5204,F#4,253.0,0.25,127,90.0
5205,F#3,253.0,0.25,127,90.0
5206,A4,253.167,1/100,127,90.0
5207,F#2,253.167,1/100,127,90.0
5208,G#3,253.216,0.094,127,90.0
5209,C#3,253.25,0.25,120,90.0
5210,A4,253.417,6/25,127,90.0
5211,F#2,253.417,6/25,127,90.0
5212,G#3,253.469,61/500,127,90.0
5213,C#3,253.5,0.25,120,90.0
5214,A4,253.656,0.25,127,90.0
5215,G#3,253.719,13/125,127,90.0
5216,F#2,253.75,0.5,120,90.0
5217,F#4,253.75,0.25,120,90.0
5218,C#3,253.75,0.25,120,90.0
5219,C#5,253.75,333/1000,100,90.0
5220,F#5,253.75,333/1000,100,90.0
5221,F#3,253.75,333/1000,100,90.0
5222,F#4,253.75,333/1000,100,90.0
5223,F#3,253.833,333/1000,100,90.0
5224,F#4,253.833,333/1000,100,90.0
5225,A4,253.906,0.25,127,90.0
5226,C2,253.906,0.25,127,90.0
5227,F#2,253.906,0.25,127,90.0
5228,G#3,253.951,0.312,127,90.0
5229,C#3,254.0,0.25,120,90.0
5230,A4,254.156,0.25,127,90.0
5231,C#3,254.25,0.25,120,90.0
5232,A4,254.406,0.25,127,90.0
5233,D2,254.406,0.25,127,90.0
5234,F#2,254.406,0.25,127,90.0
5235,E2,254.5,0.5,120,90.0
5236,G#4,254.5,0.25,120,90.0
5237,C#3,254.5,0.25,120,90.0
5238,G#5,254.5,333/1000,100,90.0
5239,C#5,254.5,333/1000,100,90.0
5240,G#3,254.5,333/1000,100,90.0
5241,G#4,254.5,333/1000,100,90.0
5242,G#3,254.583,333/1000,100,90.0
5243,G#4,254.583,333/1000,100,90.0
5244,A4,254.656,0.25,127,90.0
5245,C#3,254.75,0.25,120,90.0
5246,A4,254.906,0.25,127,90.0
5247,F#2,254.906,0.25,127,90.0
5248,C#3,255.0,0.25,120,90.0
5249,F#3,255.0,0.25,127,90.0
5250,F#4,255.0,0.25,127,90.0
5251,A4,255.156,0.25,127,90.0
5252,C2,255.156,0.25,127,90.0
5253,C#3,255.25,0.25,120,90.0
5254,A4,255.406,0.25,127,90.0
5255,F#2,255.406,0.25,127,90.0
5256,C#3,255.5,0.25,120,90.0
5257,A4,255.656,0.25,127,90.0
5258,B2,255.75,0.25,115,90.0
5259,B1,255.75,0.25,120,90.0
5260,B3,255.75,0.25,120,90.0
5261,C#3,255.75,0.25,120,90.0
5262,B2,255.75,0.25,50,90.0
5263,A4,255.75,0.25,50,90.0
5264,A3,255.75,0.25,50,90.0
5265,B3,255.75,0.25,50,90.0
5266,B3,255.75,0.25,100,90.0
5267,A4,255.75,0.25,100,90.0
5268,A3,255.75,0.25,100,90.0
5269,B2,255.75,0.25,100,90.0
5270,B3,255.833,0.25,100,90.0
5271,A4,255.833,0.25,100,90.0
5272,A3,255.833,0.25,100,90.0
5273,B2,255.833,0.25,100,90.0
5274,A4,255.906,0.25,127,90.0
5275,C2,255.906,0.25,127,90.0
5276,F#2,255.906,0.25,127,90.0
5277,B2,256.0,83/1000,115,90.0
5278,B1,256.0,0.25,120,90.0
5279,C#3,256.0,0.25,101,90.0
5280,C#3,256.0,0.25,120,90.0
5281,B2,256.0,83/1000,50,90.0
5282,A4,256.0,83/1000,50,90.0
5283,A3,256.0,83/1000,50,90.0
5284,B3,256.0,83/1000,50,90.0
5285,B3,256.0,83/1000,100,90.0
5286,A4,256.0,83/1000,100,90.0
5287,A3,256.0,83/1000,100,90.0
5288,B2,256.0,83/1000,100,90.0
5289,B3,256.083,83/1000,100,90.0
5290,A4,256.083,83/1000,100,90.0
5291,A3,256.083,83/1000,100,90.0
5292,B2,256.083,83/1000,100,90.0
5293,A4,256.156,0.25,127,90.0
5294,C#3,256.25,0.25,104,90.0
5295,A4,256.406,0.25,127,90.0
5296,D2,256.406,0.25,127,90.0
5297,F#2,256.406,0.25,127,90.0
5298,C#3,256.5,333/1000,115,90.0
5299,C#2,256.5,0.5,120,90.0
5300,C#4,256.5,0.25,120,90.0
5301,C#3,256.5,0.25,120,90.0
5302,C#3,256.5,0.5,96,90.0
5303,C#4,256.5,333/1000,50,90.0
5304,C#3,256.5,333/1000,50,90.0
5305,G#4,256.5,333/1000,50,90.0
5306,G#3,256.5,333/1000,50,90.0
5307,G#4,256.5,333/1000,100,90.0
5308,C#4,256.5,333/1000,100,90.0
5309,C#3,256.5,333/1000,100,90.0
5310,G#3,256.5,333/1000,100,90.0
5311,G#4,256.583,333/1000,100,90.0
5312,C#4,256.583,333/1000,100,90.0
5313,C#3,256.583,333/1000,100,90.0
5314,G#3,256.583,333/1000,100,90.0
5315,A4,256.656,0.25,127,90.0
5316,C#3,256.75,0.25,95,90.0
5317,A4,256.906,0.25,127,90.0
5318,F#2,256.906,0.25,127,90.0
5319,C#3,257.0,0.25,113,90.0
5320,F#4,257.0,0.25,127,90.0
5321,F#3,257.0,0.25,127,90.0
5322,A4,257.156,0.25,127,90.0
5323,C2,257.156,0.25,127,90.0
5324,C#3,257.25,0.25,102,90.0
5325,A4,257.406,1/100,127,90.0
5326,F#2,257.406,1/100,127,90.0
5327,C#3,257.5,0.25,90,90.0
5328,A4,257.656,6/25,127,90.0
5329,F#2,257.656,6/25,127,90.0
5330,C#3,257.75,0.25,53,90.0
5331,A4,257.896,0.25,127,90.0
5332,C#3,258.0,0.25,101,90.0
5333,A4,258.146,0.25,127,90.0
5334,C2,258.146,0.25,127,90.0
5335,F#2,258.146,0.25,127,90.0
5336,C#3,258.25,0.25,99,90.0
5337,A4,258.396,0.25,127,90.0
5338,C#3,258.5,0.25,105,90.0
5339,A4,258.646,0.25,127,90.0
5340,D2,258.646,0.25,127,90.0
5341,F#2,258.646,0.25,127,90.0
5342,C#3,258.75,0.25,104,90.0
5343,A4,258.896,0.25,127,90.0
5344,C#3,259.0,0.25,109,90.0
5345,F#4,259.0,0.25,127,90.0
5346,F#3,259.0,0.25,127,90.0
5347,A4,259.146,0.25,127,90.0
5348,F#2,259.146,0.25,127,90.0
5349,C#3,259.25,0.25,97,90.0
5350,A4,259.396,0.25,127,90.0
5351,C2,259.396,0.25,127,90.0
5352,C#3,259.5,0.25,92,90.0
5353,A4,259.646,0.25,127,90.0
5354,F#2,259.646,0.25,127,90.0
5355,E2,259.75,0.25,120,90.0
5356,C#3,259.75,0.25,120,90.0
5357,C#3,259.75,0.25,104,90.0
5358,G#3,259.75,0.25,100,90.0
5359,G#4,259.75,0.25,100,90.0
5360,G#3,259.833,0.25,100,90.0
5361,G#4,259.833,0.25,100,90.0
5362,A4,259.896,0.25,127,90.0
5363,E2,260.0,0.25,120,90.0
5364,C#3,260.0,0.25,79,90.0
5365,C#3,260.0,0.25,104,90.0
5366,G#3,260.0,83/1000,100,90.0
5367,G#4,260.0,83/1000,100,90.0
5368,G#3,260.083,83/1000,100,90.0
5369,G#4,260.083,83/1000,100,90.0
5370,A4,260.146,0.25,127,90.0
5371,C2,260.146,0.25,127,90.0
5372,F#2,260.146,0.25,127,90.0
5373,C#3,260.25,0.25,87,90.0
5374,A4,260.396,0.25,127,90.0
5375,E-2,260.5,0.5,120,90.0
5376,C#3,260.5,0.25,120,90.0
5377,C#3,260.5,0.5,101,90.0
5378,A3,260.5,333/1000,100,90.0
5379,A4,260.5,333/1000,100,90.0
5380,A3,260.583,333/1000,100,90.0
5381,A4,260.583,333/1000,100,90.0
5382,A4,260.646,0.25,127,90.0
5383,D2,260.646,0.25,127,90.0
5384,F#2,260.646,0.25,127,90.0
5385,C#3,260.75,0.25,88,90.0
5386,A4,260.896,0.25,127,90.0
5387,C#3,261.0,0.25,95,90.0
5388,F#4,261.0,0.25,127,90.0
5389,F#3,261.0,0.25,127,90.0
5390,A4,261.146,0.25,127,90.0
5391,F#2,261.146,0.25,127,90.0
5392,C#3,261.25,0.25,90,90.0
5393,A4,261.396,0.25,127,90.0
5394,C2,261.396,0.25,127,90.0
5395,C#3,261.5,0.25,97,90.0
5396,A4,261.646,1/100,127,90.0
5397,F#2,261.646,1/100,127,90.0
5398,F#2,261.75,0.5,120,90.0
5399,C#3,261.75,0.25,120,90.0
5400,C#3,261.75,0.5,102,90.0
5401,F#3,261.75,333/1000,100,90.0
5402,F#4,261.75,333/1000,100,90.0
5403,F#3,261.833,333/1000,100,90.0
5404,F#4,261.833,333/1000,100,90.0
5405,A4,261.896,6/25,127,90.0
5406,F#2,261.896,6/25,127,90.0
5407,C#3,262.0,0.25,84,90.0
5408,A4,262.135,0.25,127,90.0
5409,C#3,262.25,0.25,83,90.0
5410,A4,262.385,0.25,127,90.0
5411,C2,262.385,0.25,127,90.0
5412,F#2,262.385,0.25,127,90.0
5413,E2,262.5,0.5,120,90.0
5414,C#3,262.5,0.25,120,90.0
5415,C#3,262.5,0.5,90,90.0
5416,G#4,262.5,333/1000,100,90.0
5417,G#3,262.5,333/1000,100,90.0
5418,G#4,262.583,333/1000,100,90.0
5419,G#3,262.583,333/1000,100,90.0
5420,A4,262.635,0.25,127,90.0
5421,C#3,262.75,0.25,81,90.0
5422,A4,262.885,0.25,127,90.0
5423,D2,262.885,0.25,127,90.0
5424,F#2,262.885,0.25,127,90.0
5425,C#3,263.0,0.25,77,90.0
5426,F#4,263.0,0.25,127,90.0
5427,F#3,263.0,0.25,127,90.0
5428,A4,263.135,0.25,127,90.0
5429,C#3,263.25,0.25,93,90.0
5430,A4,263.385,0.25,127,90.0
5431,F#2,263.385,0.25,127,90.0
5432,C#3,263.5,0.25,81,90.0
5433,E3,263.5,0.25,81,90.0
5434,A4,263.635,0.25,127,90.0
5435,C2,263.635,0.25,127,90.0
5436,B1,263.75,0.25,120,90.0
5437,C#3,263.75,0.25,85,90.0
5438,C#3,263.75,0.25,100,90.0
5439,C#3,263.75,0.25,100,90.0
5440,A3,263.75,0.25,100,90.0
5441,A4,263.75,0.25,100,90.0
5442,A3,263.833,0.25,100,90.0
5443,A4,263.833,0.25,100,90.0
5444,A4,263.885,0.25,127,90.0
5445,F#2,263.885,0.25,127,90.0
5446,B1,264.0,0.25,120,90.0
5447,C#3,264.0,0.25,85,90.0
5448,C#3,264.0,0.25,88,90.0
5449,E3,264.0,0.25,88,90.0
5450,A3,264.0,83/1000,100,90.0
5451,A4,264.0,83/1000,100,90.0
5452,A3,264.083,83/1000,100,90.0
5453,A4,264.083,83/1000,100,90.0
5454,A4,264.135,0.25,127,90.0
5455,C#3,264.25,0.25,76,90.0
5456,C#3,264.25,0.25,76,90.0
5457,A4,264.385,0.25,127,90.0
5458,C2,264.385,0.25,127,90.0
5459,F#2,264.385,0.25,127,90.0
5460,C#2,264.5,0.5,120,90.0
5461,C#3,264.5,0.25,120,90.0
5462,C#3,264.5,0.5,83,90.0
5463,G#3,264.5,333/1000,100,90.0
5464,G#4,264.5,333/1000,100,90.0
5465,G#3,264.583,333/1000,100,90.0
5466,G#4,264.583,333/1000,100,90.0
5467,A4,264.635,0.25,127,90.0
5468,C#3,264.75,0.25,68,90.0
5469,A4,264.885,0.25,127,90.0
5470,D2,264.885,0.25,127,90.0
5471,F#2,264.885,0.25,127,90.0
5472,C#3,265.0,0.25,67,90.0
5473,F#4,265.0,0.25,127,90.0
5474,F#3,265.0,0.25,127,90.0
5475,A4,265.135,0.25,127,90.0
5476,C#3,265.25,0.25,79,90.0
5477,A4,265.385,0.25,127,90.0
5478,F#2,265.385,0.25,127,90.0
5479,C#3,265.5,0.25,61,90.0
5480,A4,265.635,0.25,127,90.0
5481,C2,265.635,0.25,127,90.0
5482,C#3,265.75,0.25,65,90.0
5483,A4,265.885,1/100,127,90.0
5484,F#2,265.885,1/100,127,90.0
5485,C#3,266.0,0.25,77,90.0
5486,A4,266.135,6/25,127,90.0
5487,F#2,266.135,6/25,127,90.0
5488,C#3,266.25,0.25,78,90.0
5489,A4,266.375,0.25,127,90.0
5490,C#3,266.5,0.25,74,90.0
5491,A4,266.625,0.25,127,90.0
5492,C2,266.625,0.25,127,90.0
5493,F#2,266.625,0.25,127,90.0
5494,C#3,266.75,0.25,69,90.0
5495,A4,266.875,0.25,127,90.0
5496,C#3,267.0,0.25,79,90.0
5497,F#4,267.0,0.25,127,90.0
5498,F#3,267.0,0.25,127,90.0
5499,A4,267.125,0.25,127,90.0
5500,D2,267.125,0.25,127,90.0
5501,F#2,267.125,0.25,127,90.0
5502,C#3,267.25,0.25,82,90.0
5503,A4,267.375,0.25,127,90.0
5504,C#3,267.5,0.25,78,90.0
5505,A4,267.625,0.25,127,90.0
5506,F#2,267.625,0.25,127,90.0
5507,E2,267.75,0.25,120,90.0
5508,C#3,267.75,0.25,120,90.0
5509,C#3,267.75,0.25,68,90.0
5510,G#3,267.75,0.25,100,90.0
5511,G#4,267.75,0.25,100,90.0
5512,G#3,267.833,0.25,100,90.0
5513,G#4,267.833,0.25,100,90.0
5514,A4,267.875,0.25,127,90.0
5515,C2,267.875,0.25,127,90.0
5516,E2,268.0,0.25,120,90.0
5517,C#3,268.0,0.25,111,90.0
5518,C#3,268.0,0.25,68,90.0
5519,G#3,268.0,83/1000,100,90.0
5520,G#4,268.0,83/1000,100,90.0
5521,G#3,268.083,83/1000,100,90.0
5522,G#4,268.083,83/1000,100,90.0
5523,A4,268.125,0.25,127,90.0
5524,F#2,268.125,0.25,127,90.0
5525,C#3,268.25,0.25,105,90.0
5526,A4,268.375,0.25,127,90.0
5527,E-2,268.5,0.5,120,90.0
5528,C#3,268.5,0.25,120,90.0
5529,C#3,268.5,0.5,107,90.0
5530,A3,268.5,333/1000,100,90.0
5531,A4,268.5,333/1000,100,90.0
5532,A3,268.583,333/1000,100,90.0
5533,A4,268.583,333/1000,100,90.0
5534,A4,268.625,0.25,127,90.0
5535,C2,268.625,0.25,127,90.0
5536,F#2,268.625,0.25,127,90.0
5537,C#3,268.75,0.25,89,90.0
5538,A4,268.875,0.25,127,90.0
5539,C#3,269.0,0.25,92,90.0
5540,F#4,269.0,0.25,127,90.0
5541,F#3,269.0,0.25,127,90.0
5542,A4,269.125,0.25,127,90.0
5543,D2,269.125,0.25,127,90.0
5544,F#2,269.125,0.25,127,90.0
5545,C#3,269.25,0.25,96,90.0
5546,A4,269.375,0.25,127,90.0
5547,C#3,269.5,0.25,101,90.0
5548,A4,269.625,0.25,127,90.0
5549,F#2,269.625,0.25,127,90.0
5550,F#2,269.75,0.5,120,90.0
5551,C#3,269.75,0.25,102,90.0
5552,F#4,269.75,333/1000,100,90.0
5553,F#3,269.75,333/1000,100,90.0
5554,F#4,269.833,333/1000,100,90.0
5555,F#3,269.833,333/1000,100,90.0
5556,C2,269.885,0.25,127,90.0
5557,C#3,270.0,0.25,95,90.0
5558,A4,270.125,1/100,127,90.0
5559,F#2,270.125,1/100,127,90.0
5560,A4,270.135,6/25,127,90.0
5561,F#2,270.135,6/25,127,90.0
5562,C#3,270.25,0.25,72,90.0
5563,A4,270.375,0.25,127,90.0
5564,E2,270.5,0.5,120,90.0
5565,C#3,270.5,0.25,99,90.0
5566,G#4,270.5,333/1000,100,90.0
5567,G#3,270.5,333/1000,100,90.0
5568,G#4,270.583,333/1000,100,90.0
5569,G#3,270.583,333/1000,100,90.0
5570,A4,270.625,0.25,127,90.0
5571,C2,270.625,0.25,127,90.0
5572,F#2,270.625,0.25,127,90.0
5573,C#3,270.75,0.25,97,90.0
5574,A4,270.875,0.25,127,90.0
5575,C#3,271.0,0.25,82,90.0
5576,F#4,271.0,0.25,127,90.0
5577,F#3,271.0,0.25,127,90.0
5578,A4,271.125,0.25,127,90.0
5579,D2,271.125,0.25,127,90.0
5580,F#2,271.125,0.25,127,90.0
5581,C#3,271.25,0.25,68,90.0
5582,A4,271.375,0.25,127,90.0
5583,E3,271.5,0.25,95,90.0
5584,A4,271.625,0.25,127,90.0
5585,F#2,271.625,0.25,127,90.0
5586,B1,271.75,0.25,120,90.0
5587,A4,271.75,0.25,120,90.0
5588,C#5,271.75,0.25,100,90.0
5589,A5,271.75,0.25,100,90.0
5590,C#3,271.75,0.25,117,90.0
5591,C#3,271.75,0.25,117,90.0
5592,A3,271.75,0.25,100,90.0
5593,A4,271.75,0.25,100,90.0
5594,A3,271.833,0.25,100,90.0
5595,A4,271.833,0.25,100,90.0
5596,A4,271.875,0.25,127,90.0
5597,C2,271.875,0.25,127,90.0
5598,B1,272.0,0.25,120,90.0
5599,A4,272.0,0.25,120,90.0
5600,C#5,272.0,83/1000,100,90.0
5601,A5,272.0,83/1000,100,90.0
5602,C#3,272.0,0.25,110,90.0
5603,E3,272.0,0.25,110,90.0
5604,A3,272.0,83/1000,100,90.0
5605,A4,272.0,83/1000,100,90.0
5606,A3,272.083,83/1000,100,90.0
5607,A4,272.083,83/1000,100,90.0
5608,A4,272.125,0.25,127,90.0
5609,F#2,272.125,0.25,127,90.0
5610,C#3,272.25,0.25,116,90.0
5611,C#3,272.25,0.25,116,90.0
5612,A4,272.375,0.25,127,90.0
5613,C#2,272.5,0.5,120,90.0
5614,G#4,272.5,0.5,120,90.0
5615,G#5,272.5,333/1000,100,90.0
5616,C#5,272.5,333/1000,100,90.0
5617,C#3,272.5,0.25,116,90.0
5618,C#3,272.5,0.25,116,90.0
5619,G#3,272.5,333/1000,100,90.0
5620,G#4,272.5,333/1000,100,90.0
5621,G#3,272.583,333/1000,100,90.0
5622,G#4,272.583,333/1000,100,90.0
5623,A4,272.625,0.25,127,90.0
5624,C2,272.625,0.25,127,90.0
5625,F#2,272.625,0.25,127,90.0
5626,C#3,272.75,0.25,104,90.0
5627,C#3,272.75,0.25,104,90.0
5628,A4,272.875,0.25,127,90.0
5629,C#3,273.0,0.25,110,90.0
5630,C#3,273.0,0.25,110,90.0
5631,F#3,273.0,0.25,127,90.0
5632,F#4,273.0,0.25,127,90.0
5633,A4,273.125,0.25,127,90.0
5634,D2,273.125,0.25,127,90.0
5635,F#2,273.125,0.25,127,90.0
5636,C#3,273.25,0.25,104,90.0
5637,C#3,273.25,0.25,104,90.0
5638,A4,273.375,0.25,127,90.0
5639,C#3,273.5,0.25,108,90.0
5640,C#3,273.5,0.25,108,90.0
5641,A4,273.625,0.25,127,90.0
5642,F#2,273.625,0.25,127,90.0
5643,C#3,273.75,0.25,112,90.0
5644,C#3,273.75,0.25,112,90.0
5645,A4,273.875,0.25,127,90.0
5646,C2,273.875,0.25,127,90.0
5647,C#3,274.0,0.25,110,90.0
5648,C#3,274.0,0.25,110,90.0
5649,A4,274.125,1/100,127,90.0
5650,F#2,274.125,1/100,127,90.0
5651,C#3,274.25,0.25,106,90.0
5652,C#3,274.25,0.25,106,90.0
5653,A4,274.375,6/25,127,90.0
5654,F#2,274.375,6/25,127,90.0
5655,C#3,274.5,0.25,112,90.0
5656,C#3,274.5,0.25,112,90.0
5657,A4,274.615,0.25,127,90.0
5658,C#3,274.75,0.25,111,90.0
5659,C#3,274.75,0.25,111,90.0
5660,A4,274.865,0.25,127,90.0
5661,C2,274.865,0.25,127,90.0
5662,F#2,274.865,0.25,127,90.0
5663,C#3,275.0,0.25,116,90.0
5664,C#3,275.0,0.25,116,90.0
5665,F#3,275.0,0.25,127,90.0
5666,F#4,275.0,0.25,127,90.0
5667,A4,275.115,0.25,127,90.0
5668,C#3,275.25,0.25,108,90.0
5669,C#3,275.25,0.25,108,90.0
5670,A4,275.365,0.25,127,90.0
5671,D2,275.365,0.25,127,90.0
5672,F#2,275.365,0.25,127,90.0
5673,C#3,275.5,0.25,110,90.0
5674,C#3,275.5,0.25,110,90.0
5675,A4,275.615,0.25,127,90.0
5676,E2,275.75,0.25,120,90.0
5677,G#4,275.75,0.25,120,90.0
5678,G#5,275.75,0.25,100,90.0
5679,C#5,275.75,0.25,100,90.0
5680,C#3,275.75,0.25,110,90.0
5681,C#3,275.75,0.25,110,90.0
5682,G#3,275.75,0.25,100,90.0
5683,G#4,275.75,0.25,100,90.0
5684,G#3,275.833,0.25,100,90.0
5685,G#4,275.833,0.25,100,90.0
5686,A4,275.865,0.25,127,90.0
5687,F#2,275.865,0.25,127,90.0
5688,E2,276.0,0.25,120,90.0
5689,G#5,276.0,83/1000,100,90.0
5690,C#5,276.0,83/1000,100,90.0
5691,C#3,276.0,0.25,106,90.0
5692,C#3,276.0,0.25,106,90.0
5693,G#3,276.0,83/1000,100,90.0
5694,G#4,276.0,83/1000,100,90.0
5695,G#3,276.083,83/1000,100,90.0
5696,G#4,276.083,83/1000,100,90.0
5697,A4,276.115,0.25,127,90.0
5698,C2,276.115,0.25,127,90.0
5699,C#3,276.25,0.25,104,90.0
5700,C#3,276.25,0.25,104,90.0
5701,A4,276.365,0.25,127,90.0
5702,F#2,276.365,0.25,127,90.0
5703,E-2,276.5,0.5,120,90.0
5704,A4,276.5,0.25,120,90.0
5705,C#5,276.5,333/1000,100,90.0
5706,A5,276.5,333/1000,100,90.0
5707,C#3,276.5,0.25,110,90.0
5708,C#3,276.5,0.25,110,90.0
5709,A4,276.5,333/1000,100,90.0
5710,A3,276.5,333/1000,100,90.0
5711,A4,276.583,333/1000,100,90.0
5712,A3,276.583,333/1000,100,90.0
5713,A4,276.615,0.25,127,90.0
5714,C#3,276.75,0.25,108,90.0
5715,C#3,276.75,0.25,108,90.0
5716,A4,276.865,0.25,127,90.0
5717,C2,276.865,0.25,127,90.0
5718,F#2,276.865,0.25,127,90.0
5719,C#3,277.0,0.25,106,90.0
5720,C#3,277.0,0.25,106,90.0
5721,F#4,277.0,0.25,127,90.0
5722,F#3,277.0,0.25,127,90.0
5723,A4,277.115,0.25,127,90.0
5724,C#3,277.25,0.25,106,90.0
5725,C#3,277.25,0.25,106,90.0
5726,A4,277.365,0.25,127,90.0
5727,D2,277.365,0.25,127,90.0
5728,F#2,277.365,0.25,127,90.0
5729,C#3,277.5,0.25,106,90.0
5730,C#3,277.5,0.25,106,90.0
5731,A4,277.615,0.25,127,90.0
5732,F#2,277.75,0.5,120,90.0
5733,F#4,277.75,0.25,120,90.0
5734,C#5,277.75,333/1000,100,90.0
5735,F#5,277.75,333/1000,100,90.0
5736,C#3,277.75,0.25,104,90.0
5737,C#3,277.75,0.25,104,90.0
5738,F#4,277.75,333/1000,100,90.0
5739,F#3,277.75,333/1000,100,90.0
5740,F#4,277.833,333/1000,100,90.0
5741,F#3,277.833,333/1000,100,90.0
5742,A4,277.865,0.25,127,90.0
5743,F#2,277.865,0.25,127,90.0
5744,C#3,278.0,0.25,101,90.0
5745,C#3,278.0,0.25,101,90.0
5746,A4,278.115,0.25,127,90.0
5747,C2,278.115,0.25,127,90.0
5748,C#3,278.25,0.25,102,90.0
5749,C#3,278.25,0.25,102,90.0
5750,A4,278.365,1/100,127,90.0
5751,F#2,278.365,1/100,127,90.0
5752,E2,278.5,0.5,120,90.0
5753,G#4,278.5,0.25,120,90.0
5754,C#5,278.5,333/1000,100,90.0
5755,G#5,278.5,333/1000,100,90.0
5756,C#3,278.5,0.25,102,90.0
5757,C#3,278.5,0.25,102,90.0
5758,G#3,278.5,333/1000,100,90.0
5759,G#4,278.5,333/1000,100,90.0
5760,G#3,278.583,333/1000,100,90.0
5761,G#4,278.583,333/1000,100,90.0
5762,A4,278.615,6/25,127,90.0
5763,F#2,278.615,6/25,127,90.0
5764,C#3,278.75,0.25,91,90.0
5765,C#3,278.75,0.25,91,90.0
5766,A4,278.854,0.25,127,90.0
5767,C#3,279.0,0.25,108,90.0
5768,C#3,279.0,0.25,108,90.0
5769,F#4,279.0,0.25,127,90.0
5770,F#3,279.0,0.25,127,90.0
5771,A4,279.104,0.25,127,90.0
5772,C2,279.104,0.25,127,90.0
5773,F#2,279.104,0.25,127,90.0
5774,C#3,279.25,0.25,102,90.0
5775,C#3,279.25,0.25,102,90.0
5776,A4,279.354,0.25,127,90.0
5777,C#3,279.5,0.25,110,90.0
5778,E3,279.5,0.25,110,90.0
5779,A4,279.604,0.25,127,90.0
5780,D2,279.604,0.25,127,90.0
5781,F#2,279.604,0.25,127,90.0
5782,B1,279.75,0.25,120,90.0
5783,A4,279.75,0.25,120,90.0
5784,A5,279.75,0.25,100,90.0
5785,C#5,279.75,0.25,100,90.0
5786,C#3,279.75,0.25,119,90.0
5787,C#3,279.75,0.25,119,90.0
5788,A3,279.75,0.25,100,90.0
5789,A4,279.75,0.25,100,90.0
5790,A3,279.833,0.25,100,90.0
5791,A4,279.833,0.25,100,90.0
5792,A4,279.854,0.25,127,90.0
5793,B1,280.0,0.25,120,90.0
5794,A5,280.0,83/1000,100,90.0
5795,C#5,280.0,83/1000,100,90.0
5796,C#3,280.0,0.25,114,90.0
5797,E3,280.0,0.25,114,90.0
5798,A3,280.0,83/1000,100,90.0
5799,A4,280.0,83/1000,100,90.0
5800,A3,280.083,83/1000,100,90.0
5801,A4,280.083,83/1000,100,90.0
5802,A4,280.104,0.25,127,90.0
5803,F#2,280.104,0.25,127,90.0
5804,C#3,280.25,0.25,112,90.0
5805,C#3,280.25,0.25,112,90.0
5806,A4,280.354,0.25,127,90.0
5807,C2,280.354,0.25,127,90.0
5808,C#2,280.5,0.5,120,90.0
5809,G#4,280.5,0.25,120,90.0
5810,C#5,280.5,333/1000,100,90.0
5811,G#5,280.5,333/1000,100,90.0
5812,C#3,280.5,0.25,112,90.0
5813,C#3,280.5,0.25,112,90.0
5814,G#3,280.5,333/1000,100,90.0
5815,G#4,280.5,333/1000,100,90.0
5816,G#3,280.583,333/1000,100,90.0
5817,G#4,280.583,333/1000,100,90.0
5818,A4,280.604,0.25,127,90.0
5819,F#2,280.604,0.25,127,90.0
5820,C#3,280.75,0.25,106,90.0
5821,C#3,280.75,0.25,106,90.0
5822,A4,280.854,0.25,127,90.0
5823,C#3,281.0,0.25,104,90.0
5824,C#3,281.0,0.25,104,90.0
5825,F#4,281.0,0.25,127,90.0
5826,F#3,281.0,0.25,127,90.0
5827,A4,281.104,0.25,127,90.0
5828,C2,281.104,0.25,127,90.0
5829,F#2,281.104,0.25,127,90.0
5830,C#3,281.25,0.25,111,90.0
5831,C#3,281.25,0.25,111,90.0
5832,A4,281.354,0.25,127,90.0
5833,C#3,281.5,0.25,106,90.0
5834,C#3,281.5,0.25,106,90.0
5835,A4,281.604,0.25,127,90.0
5836,D2,281.604,0.25,127,90.0
5837,F#2,281.604,0.25,127,90.0
5838,C#3,281.75,0.25,102,90.0
5839,C#3,281.75,0.25,102,90.0
5840,A4,281.854,0.25,127,90.0
5841,C#3,282.0,0.25,110,90.0
5842,C#3,282.0,0.25,110,90.0
5843,A4,282.104,0.25,127,90.0
5844,F#2,282.104,0.25,127,90.0
5845,C#3,282.25,0.25,102,90.0
5846,C#3,282.25,0.25,102,90.0
5847,A4,282.354,0.25,127,90.0
5848,C2,282.354,0.25,127,90.0
5849,C#3,282.5,0.25,116,90.0
5850,C#3,282.5,0.25,116,90.0
5851,A4,282.604,1/100,127,90.0
5852,F#2,282.604,1/100,127,90.0
5853,C#3,282.75,0.25,104,90.0
5854,C#3,282.75,0.25,104,90.0
5855,A4,282.854,6/25,127,90.0
5856,F#2,282.854,6/25,127,90.0
5857,C#3,283.0,0.25,117,90.0
5858,C#3,283.0,0.25,117,90.0
5859,F#4,283.0,0.25,127,90.0
5860,F#3,283.0,0.25,127,90.0
5861,A4,283.094,0.25,127,90.0
5862,C#3,283.25,0.25,101,90.0
5863,C#3,283.25,0.25,101,90.0
5864,A4,283.344,0.25,127,90.0
5865,C2,283.344,0.25,127,90.0
5866,F#2,283.344,0.25,127,90.0
5867,C#3,283.5,0.25,116,90.0
5868,C#3,283.5,0.25,116,90.0
5869,A4,283.594,0.25,127,90.0
5870,E2,283.75,0.25,120,90.0
5871,G#4,283.75,0.25,120,90.0
5872,G#5,283.75,0.25,100,90.0
5873,C#5,283.75,0.25,100,90.0
5874,C#3,283.75,0.25,112,90.0
5875,C#3,283.75,0.25,112,90.0
5876,G#3,283.75,0.25,100,90.0
5877,G#4,283.75,0.25,100,90.0
5878,G#3,283.833,0.25,100,90.0
5879,G#4,283.833,0.25,100,90.0
5880,A4,283.844,0.25,127,90.0
5881,D2,283.844,0.25,127,90.0
5882,F#2,283.844,0.25,127,90.0
5883,E2,284.0,0.25,120,90.0
5884,G#5,284.0,83/1000,100,90.0
5885,C#5,284.0,83/1000,100,90.0
5886,C#3,284.0,0.25,108,90.0
5887,C#3,284.0,0.25,108,90.0
5888,G#3,284.0,83/1000,100,90.0
5889,G#4,284.0,83/1000,100,90.0
5890,G#3,284.083,83/1000,100,90.0
5891,G#4,284.083,83/1000,100,90.0
5892,A4,284.094,0.25,127,90.0
5893,C#3,284.25,0.25,100,90.0
5894,C#3,284.25,0.25,100,90.0
5895,A4,284.344,0.25,127,90.0
5896,F#2,284.344,0.25,127,90.0
5897,E-2,284.5,0.5,120,90.0
5898,A4,284.5,0.25,120,90.0
5899,C#5,284.5,333/1000,100,90.0
5900,A5,284.5,333/1000,100,90.0
5901,C#3,284.5,0.25,111,90.0
5902,C#3,284.5,0.25,111,90.0
5903,A4,284.5,333/1000,100,90.0
5904,A3,284.5,333/1000,100,90.0
5905,A4,284.583,333/1000,100,90.0
5906,A3,284.583,333/1000,100,90.0
5907,A4,284.594,0.25,127,90.0
5908,C2,284.594,0.25,127,90.0
5909,C#3,284.75,0.25,110,90.0
5910,C#3,284.75,0.25,110,90.0
5911,A4,284.844,0.25,127,90.0
5912,F#2,284.844,0.25,127,90.0
5913,C#3,285.0,0.25,114,90.0
5914,C#3,285.0,0.25,114,90.0
5915,F#4,285.0,0.25,127,90.0
5916,F#3,285.0,0.25,127,90.0
5917,A4,285.094,0.25,127,90.0
5918,C#3,285.25,0.25,110,90.0
5919,C#3,285.25,0.25,110,90.0
5920,A4,285.344,0.25,127,90.0
5921,C2,285.344,0.25,127,90.0
5922,F#2,285.344,0.25,127,90.0
5923,C#3,285.5,0.25,110,90.0
5924,C#3,285.5,0.25,110,90.0
5925,A4,285.594,0.25,127,90.0
5926,F#2,285.75,0.5,120,90.0
5927,F#4,285.75,0.25,120,90.0
5928,F#5,285.75,333/1000,100,90.0
5929,C#5,285.75,333/1000,100,90.0
5930,C#3,285.75,0.25,116,90.0
5931,C#3,285.75,0.25,116,90.0
5932,F#3,285.75,333/1000,100,90.0
5933,F#4,285.75,333/1000,100,90.0
5934,F#3,285.833,333/1000,100,90.0
5935,F#4,285.833,333/1000,100,90.0
5936,A4,285.844,0.25,127,90.0
5937,D2,285.844,0.25,127,90.0
5938,F#2,285.844,0.25,127,90.0
5939,C#3,286.0,0.25,114,90.0
5940,C#3,286.0,0.25,114,90.0
5941,A4,286.094,0.25,127,90.0
5942,C#3,286.25,0.25,99,90.0
5943,C#3,286.25,0.25,99,90.0
5944,A4,286.344,0.25,127,90.0
5945,F#2,286.344,0.25,127,90.0
5946,E2,286.5,0.5,120,90.0
5947,G#4,286.5,0.25,120,90.0
5948,G#5,286.5,333/1000,100,90.0
5949,C#5,286.5,333/1000,100,90.0
5950,C#3,286.5,0.25,106,90.0
5951,C#3,286.5,0.25,106,90.0
5952,G#3,286.5,333/1000,100,90.0
5953,G#4,286.5,333/1000,100,90.0
5954,G#3,286.583,333/1000,100,90.0
5955,G#4,286.583,333/1000,100,90.0
5956,A4,286.594,0.25,127,90.0
5957,C2,286.594,0.25,127,90.0
5958,C#3,286.75,0.25,110,90.0
5959,C#3,286.75,0.25,110,90.0
5960,A4,286.844,1/100,127,90.0
5961,F#2,286.844,1/100,127,90.0
5962,C#3,287.0,0.25,116,90.0
5963,C#3,287.0,0.25,116,90.0
5964,F#4,287.0,0.25,127,90.0
5965,F#3,287.0,0.25,127,90.0
5966,A4,287.094,6/25,127,90.0
5967,F#2,287.094,6/25,127,90.0
5968,C#3,287.25,0.25,117,90.0
5969,C#3,287.25,0.25,117,90.0
5970,A4,287.333,0.25,127,90.0
5971,C#3,287.5,0.25,116,90.0
5972,E3,287.5,0.25,116,90.0
5973,A4,287.583,0.25,127,90.0
5974,C2,287.583,0.25,127,90.0
5975,F#2,287.583,0.25,127,90.0
5976,B2,287.75,0.25,115,90.0
5977,B1,287.75,0.25,120,90.0
5978,B3,287.75,0.25,120,90.0
5979,C#3,287.75,0.25,120,90.0
5980,C#3,287.75,0.25,118,90.0
5981,B2,287.75,0.25,50,90.0
5982,A4,287.75,0.25,50,90.0
5983,A3,287.75,0.25,50,90.0
5984,B3,287.75,0.25,50,90.0
5985,B3,287.75,0.25,100,90.0
5986,A4,287.75,0.25,100,90.0
5987,A3,287.75,0.25,100,90.0
5988,B2,287.75,0.25,100,90.0
5989,A4,287.833,0.25,127,90.0
5990,B3,287.833,0.25,100,90.0
5991,A4,287.833,0.25,100,90.0
5992,A3,287.833,0.25,100,90.0
5993,B2,287.833,0.25,100,90.0
5994,B2,288.0,83/1000,115,90.0
5995,B1,288.0,0.25,120,90.0
5996,E3,288.0,0.25,107,90.0
5997,C#3,288.0,0.25,118,90.0
5998,B2,288.0,83/1000,50,90.0
5999,A4,288.0,83/1000,50,90.0
6000,A3,288.0,83/1000,50,90.0
6001,B3,288.0,83/1000,50,90.0
6002,B3,288.0,83/1000,100,90.0
6003,A4,288.0,83/1000,100,90.0
6004,A3,288.0,83/1000,100,90.0
6005,B2,288.0,83/1000,100,90.0
6006,B3,288.083,83/1000,100,90.0
6007,A4,288.083,83/1000,100,90.0
6008,A3,288.083,83/1000,100,90.0
6009,B2,288.083,83/1000,100,90.0
6010,A4,288.083,0.25,127,90.0
6011,D2,288.083,0.25,127,90.0
6012,F#2,288.083,0.25,127,90.0
6013,C#3,288.25,0.25,125,90.0
6014,A4,288.333,0.25,127,90.0
6015,C#3,288.5,333/1000,115,90.0
6016,C#2,288.5,0.5,120,90.0
6017,C#4,288.5,0.25,120,90.0
6018,C#3,288.5,0.25,120,90.0
6019,C#3,288.5,0.5,105,90.0
6020,C#4,288.5,333/1000,50,90.0
6021,C#3,288.5,333/1000,50,90.0
6022,G#4,288.5,333/1000,50,90.0
6023,G#3,288.5,333/1000,50,90.0
6024,G#4,288.5,333/1000,100,90.0
6025,C#4,288.5,333/1000,100,90.0
6026,C#3,288.5,333/1000,100,90.0
6027,G#3,288.5,333/1000,100,90.0
6028,G#4,288.583,333/1000,100,90.0
6029,C#4,288.583,333/1000,100,90.0
6030,C#3,288.583,333/1000,100,90.0
6031,G#3,288.583,333/1000,100,90.0
6032,A4,288.583,0.25,127,90.0
6033,F#2,288.583,0.25,127,90.0
6034,C#3,288.75,0.25,92,90.0
6035,A4,288.833,0.25,127,90.0
6036,C2,288.833,0.25,127,90.0
6037,C#3,289.0,0.25,97,90.0
6038,F#4,289.0,0.25,127,90.0
6039,F#3,289.0,0.25,127,90.0
6040,A4,289.083,0.25,127,90.0
6041,F#2,289.083,0.25,127,90.0
6042,C#3,289.25,0.25,83,90.0
6043,A4,289.333,0.25,127,90.0
6044,C#3,289.5,0.25,92,90.0
6045,A4,289.583,0.25,127,90.0
6046,C2,289.583,0.25,127,90.0
6047,F#2,289.583,0.25,127,90.0
6048,C#3,289.75,0.25,73,90.0
6049,A4,289.833,0.25,127,90.0
6050,C#3,290.0,0.25,79,90.0
6051,A4,290.083,0.25,127,90.0
6052,D2,290.083,0.25,127,90.0
6053,F#2,290.083,0.25,127,90.0
6054,C#3,290.25,0.25,73,90.0
6055,A4,290.333,0.25,127,90.0
6056,C#3,290.5,0.25,83,90.0
6057,A4,290.583,0.25,127,90.0
6058,F#2,290.583,0.25,127,90.0
6059,C#3,290.75,0.25,101,90.0
6060,A4,290.833,0.25,127,90.0
6061,C2,290.833,0.25,127,90.0
6062,C#3,291.0,0.25,99,90.0
6063,F#4,291.0,0.25,127,90.0
6064,F#3,291.0,0.25,127,90.0
6065,A4,291.083,1/100,127,90.0
6066,F#2,291.083,1/100,127,90.0
6067,C#3,291.25,0.25,88,90.0
6068,A4,291.333,6/25,127,90.0
6069,F#2,291.333,6/25,127,90.0
6070,C#3,291.5,0.25,84,90.0
6071,A4,291.573,0.25,127,90.0
6072,E2,291.75,0.25,120,90.0
6073,C#3,291.75,0.25,120,90.0
6074,C#3,291.75,0.25,107,90.0
6075,G#3,291.75,0.25,100,90.0
6076,G#4,291.75,0.25,100,90.0
6077,A4,291.823,0.25,127,90.0
6078,C2,291.823,0.25,127,90.0
6079,F#2,291.823,0.25,127,90.0
6080,G#3,291.833,0.25,100,90.0
6081,G#4,291.833,0.25,100,90.0
6082,E2,292.0,0.25,120,90.0
6083,C#3,292.0,0.25,104,90.0
6084,C#3,292.0,0.25,107,90.0
6085,G#3,292.0,83/1000,100,90.0
6086,G#4,292.0,83/1000,100,90.0
6087,A4,292.073,0.25,127,90.0
6088,G#3,292.083,83/1000,100,90.0
6089,G#4,292.083,83/1000,100,90.0
6090,C#3,292.25,0.25,101,90.0
6091,A4,292.323,0.25,127,90.0
6092,D2,292.323,0.25,127,90.0
6093,F#2,292.323,0.25,127,90.0
6094,E-2,292.5,0.5,120,90.0
6095,C#3,292.5,0.25,120,90.0
6096,C#3,292.5,0.5,104,90.0
6097,A3,292.5,333/1000,100,90.0
6098,A4,292.5,333/1000,100,90.0
6099,A4,292.573,0.25,127,90.0
6100,A3,292.583,333/1000,100,90.0
6101,A4,292.583,333/1000,100,90.0
6102,C#3,292.75,0.25,109,90.0
6103,A4,292.823,0.25,127,90.0
6104,F#2,292.823,0.25,127,90.0
6105,C#3,293.0,0.25,102,90.0
6106,F#3,293.0,0.25,127,90.0
6107,F#4,293.0,0.25,127,90.0
6108,A4,293.073,0.25,127,90.0
6109,C2,293.073,0.25,127,90.0
6110,C#3,293.25,0.25,105,90.0
6111,A4,293.323,0.25,127,90.0
6112,F#2,293.323,0.25,127,90.0
6113,C#3,293.5,0.25,111,90.0
6114,A4,293.573,0.25,127,90.0
6115,F#2,293.75,0.5,120,90.0
6116,C#3,293.75,0.25,120,90.0
6117,C#3,293.75,0.5,111,90.0
6118,F#3,293.75,333/1000,100,90.0
6119,F#4,293.75,333/1000,100,90.0
6120,A4,293.823,0.25,127,90.0
6121,C2,293.823,0.25,127,90.0
6122,F#2,293.823,0.25,127,90.0
6123,F#3,293.833,333/1000,100,90.0
6124,F#4,293.833,333/1000,100,90.0
6125,C#3,294.0,0.25,116,90.0
6126,A4,294.073,0.25,127,90.0
6127,C#3,294.25,0.25,105,90.0
6128,A4,294.323,0.25,127,90.0
6129,D2,294.323,0.25,127,90.0
6130,F#2,294.323,0.25,127,90.0
6131,E2,294.5,0.5,120,90.0
6132,C#3,294.5,0.25,120,90.0
6133,C#3,294.5,0.5,116,90.0
6134,G#4,294.5,333/1000,100,90.0
6135,G#3,294.5,333/1000,100,90.0
6136,A4,294.573,0.25,127,90.0
6137,G#4,294.583,333/1000,100,90.0
6138,G#3,294.583,333/1000,100,90.0
6139,C#3,294.75,0.25,111,90.0
6140,A4,294.823,0.25,127,90.0
6141,F#2,294.823,0.25,127,90.0
6142,C#3,295.0,0.25,113,90.0
6143,F#4,295.0,0.25,127,90.0
6144,F#3,295.0,0.25,127,90.0
6145,A4,295.073,0.25,127,90.0
6146,C2,295.073,0.25,127,90.0
6147,C#3,295.25,0.25,105,90.0
6148,A4,295.323,1/100,127,90.0
6149,F#2,295.323,1/100,127,90.0
6150,E3,295.5,0.25,116,90.0
6151,A4,295.573,6/25,127,90.0
6152,F#2,295.573,6/25,127,90.0
6153,B1,295.75,0.25,120,90.0
6154,C#3,295.75,0.25,120,90.0
6155,C#3,295.75,0.25,121,90.0
6156,A3,295.75,0.25,100,90.0
6157,A4,295.75,0.25,100,90.0
6158,A4,295.812,0.25,127,90.0
6159,A3,295.833,0.25,100,90.0
6160,A4,295.833,0.25,100,90.0
6161,B1,296.0,0.25,120,90.0
6162,E3,296.0,0.25,113,90.0
6163,C#3,296.0,0.25,121,90.0
6164,A3,296.0,83/1000,100,90.0
6165,A4,296.0,83/1000,100,90.0
6166,A4,296.062,0.25,127,90.0
6167,C2,296.062,0.25,127,90.0
6168,F#2,296.062,0.25,127,90.0
6169,A3,296.083,83/1000,100,90.0
6170,A4,296.083,83/1000,100,90.0
6171,C#3,296.25,0.25,123,90.0
6172,A4,296.312,0.25,127,90.0
6173,C#2,296.5,0.5,120,90.0
6174,C#3,296.5,0.25,120,90.0
6175,C#3,296.5,0.5,88,90.0
6176,G#3,296.5,333/1000,100,90.0
6177,G#4,296.5,333/1000,100,90.0
6178,A4,296.562,0.25,127,90.0
6179,D2,296.562,0.25,127,90.0
6180,F#2,296.562,0.25,127,90.0
6181,G#3,296.583,333/1000,100,90.0
6182,G#4,296.583,333/1000,100,90.0
6183,C#3,296.75,0.25,96,90.0
6184,A4,296.812,0.25,127,90.0
6185,C#3,297.0,0.25,111,90.0
6186,F#4,297.0,0.25,127,90.0
6187,F#3,297.0,0.25,127,90.0
6188,A4,297.062,0.25,127,90.0
6189,F#2,297.062,0.25,127,90.0
6190,C#3,297.25,0.25,107,90.0
6191,A4,297.312,0.25,127,90.0
6192,C2,297.312,0.25,127,90.0
6193,C#3,297.5,0.25,101,90.0
6194,A4,297.562,0.25,127,90.0
6195,F#2,297.562,0.25,127,90.0
6196,C#3,297.75,0.25,87,90.0
6197,A4,297.812,0.25,127,90.0
6198,C#3,298.0,0.25,99,90.0
6199,A4,298.062,0.25,127,90.0
6200,C2,298.062,0.25,127,90.0
6201,F#2,298.062,0.25,127,90.0
6202,C#3,298.25,0.25,85,90.0
6203,A4,298.312,0.25,127,90.0
6204,C#3,298.5,0.25,105,90.0
6205,A4,298.562,0.25,127,90.0
6206,D2,298.562,0.25,127,90.0
6207,F#2,298.562,0.25,127,90.0
6208,C#3,298.75,0.25,101,90.0
6209,A4,298.812,0.25,127,90.0
6210,C#3,299.0,0.25,113,90.0
6211,F#4,299.0,0.25,127,90.0
6212,F#3,299.0,0.25,127,90.0
6213,A4,299.062,0.25,127,90.0
6214,F#2,299.062,0.25,127,90.0
6215,C#3,299.25,0.25,104,90.0
6216,A4,299.312,0.25,127,90.0
6217,C2,299.312,0.25,127,90.0
6218,C#3,299.5,0.25,109,90.0
6219,A4,299.562,1/100,127,90.0
6220,F#2,299.562,1/100,127,90.0
6221,E2,299.75,0.25,120,90.0
6222,C#3,299.75,0.25,120,90.0
6223,C#3,299.75,0.25,118,90.0
6224,G#3,299.75,0.25,100,90.0
6225,G#4,299.75,0.25,100,90.0
6226,A4,299.812,6/25,127,90.0
6227,F#2,299.812,6/25,127,90.0
6228,G#3,299.833,0.25,100,90.0
6229,G#4,299.833,0.25,100,90.0
6230,E2,300.0,0.25,120,90.0
6231,C#3,300.0,0.25,109,90.0
6232,C#3,300.0,0.25,118,90.0
6233,G#3,300.0,83/1000,100,90.0
6234,G#4,300.0,83/1000,100,90.0
6235,A4,300.052,0.25,127,90.0
6236,G#3,300.083,83/1000,100,90.0
6237,G#4,300.083,83/1000,100,90.0
6238,C#3,300.25,0.25,107,90.0
6239,A4,300.302,0.25,127,90.0
6240,C2,300.302,0.25,127,90.0
6241,F#2,300.302,0.25,127,90.0
6242,E-2,300.5,0.5,120,90.0
6243,C#3,300.5,0.25,120,90.0
6244,C#3,300.5,0.5,113,90.0
6245,A3,300.5,333/1000,100,90.0
6246,A4,300.5,333/1000,100,90.0
6247,A4,300.552,0.25,127,90.0
6248,A3,300.583,333/1000,100,90.0
6249,A4,300.583,333/1000,100,90.0
6250,C#3,300.75,0.25,104,90.0
6251,A4,300.802,0.25,127,90.0
6252,D2,300.802,0.25,127,90.0
6253,F#2,300.802,0.25,127,90.0
6254,C#3,301.0,0.25,111,90.0
6255,F#4,301.0,0.25,127,90.0
6256,F#3,301.0,0.25,127,90.0
6257,A4,301.052,0.25,127,90.0
6258,C#3,301.25,0.25,102,90.0
6259,A4,301.302,0.25,127,90.0
6260,F#2,301.302,0.25,127,90.0
6261,C#3,301.5,0.25,113,90.0
6262,A4,301.552,0.25,127,90.0
6263,C2,301.552,0.25,127,90.0
6264,F#2,301.75,0.5,120,90.0
6265,C#3,301.75,0.25,120,90.0
6266,C#3,301.75,0.5,113,90.0
6267,F#3,301.75,333/1000,100,90.0
6268,F#4,301.75,333/1000,100,90.0
6269,A4,301.802,0.25,127,90.0
6270,F#2,301.802,0.25,127,90.0
6271,F#3,301.833,333/1000,100,90.0
6272,F#4,301.833,333/1000,100,90.0
6273,C#3,302.0,0.25,104,90.0
6274,A4,302.052,0.25,127,90.0
6275,C#3,302.25,0.25,105,90.0
6276,A4,302.302,0.25,127,90.0
6277,C2,302.302,0.25,127,90.0
6278,F#2,302.302,0.25,127,90.0
6279,E2,302.5,0.5,120,90.0
6280,C#3,302.5,0.25,120,90.0
6281,C#3,302.5,0.5,114,90.0
6282,G#4,302.5,333/1000,100,90.0
6283,G#3,302.5,333/1000,100,90.0
6284,A4,302.552,0.25,127,90.0
6285,G#4,302.583,333/1000,100,90.0
6286,G#3,302.583,333/1000,100,90.0
6287,C#3,302.75,0.25,101,90.0
6288,A4,302.802,0.25,127,90.0
6289,D2,302.802,0.25,127,90.0
6290,F#2,302.802,0.25,127,90.0
6291,C#3,303.0,0.25,97,90.0
6292,F#4,303.0,0.25,127,90.0
6293,F#3,303.0,0.25,127,90.0
6294,A4,303.052,0.25,127,90.0
6295,C#3,303.25,0.25,48,90.0
6296,A4,303.302,0.25,127,90.0
6297,F#2,303.302,0.25,127,90.0
6298,E3,303.5,0.25,107,90.0
6299,A4,303.552,0.25,127,90.0
6300,C2,303.552,0.25,127,90.0
6301,B1,303.75,0.25,120,90.0
6302,C#3,303.75,0.25,120,90.0
6303,C#3,303.75,0.25,127,90.0
6304,A3,303.75,0.25,100,90.0
6305,A4,303.75,0.25,100,90.0
6306,A4,303.802,1/100,127,90.0
6307,F#2,303.802,1/100,127,90.0
6308,A3,303.833,0.25,100,90.0
6309,A4,303.833,0.25,100,90.0
6310,B1,304.0,0.25,120,90.0
6311,E3,304.0,0.25,104,90.0
6312,C#3,304.0,0.25,127,90.0
6313,A3,304.0,83/1000,100,90.0
6314,A4,304.0,83/1000,100,90.0
6315,A4,304.052,6/25,127,90.0
6316,F#2,304.052,6/25,127,90.0
6317,A3,304.083,83/1000,100,90.0
6318,A4,304.083,83/1000,100,90.0
6319,C#3,304.25,0.25,127,90.0
6320,A4,304.292,0.25,127,90.0
6321,C#2,304.5,0.5,120,90.0
6322,C#3,304.5,0.25,120,90.0
6323,C#3,304.5,0.5,99,90.0
6324,G#3,304.5,333/1000,100,90.0
6325,G#4,304.5,333/1000,100,90.0
6326,A4,304.542,0.25,127,90.0
6327,C2,304.542,0.25,127,90.0
6328,F#2,304.542,0.25,127,90.0
6329,G#3,304.583,333/1000,100,90.0
6330,G#4,304.583,333/1000,100,90.0
6331,C#3,304.75,0.25,84,90.0
6332,A4,304.792,0.25,127,90.0
6333,C#3,305.0,0.25,113,90.0
6334,F#4,305.0,0.25,127,90.0
6335,F#3,305.0,0.25,127,90.0
6336,A4,305.042,0.25,127,90.0
6337,D2,305.042,0.25,127,90.0
6338,F#2,305.042,0.25,127,90.0
6339,C#3,305.25,0.25,105,90.0
6340,A4,305.292,0.25,127,90.0
6341,C#3,305.5,0.25,107,90.0
6342,A4,305.542,0.25,127,90.0
6343,F#2,305.542,0.25,127,90.0
6344,C#3,305.75,0.25,101,90.0
6345,A4,305.792,0.25,127,90.0
6346,C2,305.792,0.25,127,90.0
6347,C#3,306.0,0.25,92,90.0
6348,A4,306.042,0.25,127,90.0
6349,F#2,306.042,0.25,127,90.0
6350,C#3,306.25,0.25,105,90.0
6351,A4,306.292,0.25,127,90.0
6352,C#3,306.5,0.25,107,90.0
6353,A4,306.542,0.25,127,90.0
6354,C2,306.542,0.25,127,90.0
6355,F#2,306.542,0.25,127,90.0
6356,C#3,306.75,0.25,104,90.0
6357,A4,306.792,0.25,127,90.0
6358,C#3,307.0,0.25,111,90.0
6359,F#4,307.0,0.25,127,90.0
6360,F#3,307.0,0.25,127,90.0
6361,A4,307.042,0.25,127,90.0
6362,D2,307.042,0.25,127,90.0
6363,F#2,307.042,0.25,127,90.0
6364,C#3,307.25,0.25,104,90.0
6365,A4,307.292,0.25,127,90.0
6366,C#3,307.5,0.25,96,90.0
6367,A4,307.542,0.25,127,90.0
6368,F#2,307.542,0.25,127,90.0
6369,E2,307.75,0.25,120,90.0
6370,C#3,307.75,0.25,120,90.0
6371,C#3,307.75,0.25,125,90.0
6372,G#3,307.75,0.25,100,90.0
6373,G#4,307.75,0.25,100,90.0
6374,A4,307.792,0.25,127,90.0
6375,C2,307.792,0.25,127,90.0
6376,G#3,307.833,0.25,100,90.0
6377,G#4,307.833,0.25,100,90.0
6378,E2,308.0,0.25,120,90.0
6379,C#3,308.0,0.25,101,90.0
6380,C#3,308.0,0.25,125,90.0
6381,G#3,308.0,83/1000,100,90.0
6382,G#4,308.0,83/1000,100,90.0
6383,A4,308.042,1/100,127,90.0
6384,F#2,308.042,1/100,127,90.0
6385,G#3,308.083,83/1000,100,90.0
6386,G#4,308.083,83/1000,100,90.0
6387,C#3,308.25,0.25,113,90.0
6388,A4,308.292,6/25,127,90.0
6389,F#2,308.292,6/25,127,90.0
6390,E-2,308.5,0.5,120,90.0
6391,C#3,308.5,0.25,120,90.0
6392,C#3,308.5,0.5,113,90.0
6393,A3,308.5,333/1000,100,90.0
6394,A4,308.5,333/1000,100,90.0
6395,A4,308.531,0.25,127,90.0
6396,A3,308.583,333/1000,100,90.0
6397,A4,308.583,333/1000,100,90.0
6398,C#3,308.75,0.25,113,90.0
6399,A4,308.781,0.25,127,90.0
6400,C2,308.781,0.25,127,90.0
6401,F#2,308.781,0.25,127,90.0
6402,C#3,309.0,0.25,114,90.0
6403,F#4,309.0,0.25,127,90.0
6404,F#3,309.0,0.25,127,90.0
6405,A4,309.031,0.25,127,90.0
6406,C#3,309.25,0.25,116,90.0
6407,A4,309.281,0.25,127,90.0
6408,D2,309.281,0.25,127,90.0
6409,F#2,309.281,0.25,127,90.0
6410,C#3,309.5,0.25,113,90.0
6411,A4,309.531,0.25,127,90.0
6412,F#2,309.75,0.5,120,90.0
6413,C#3,309.75,0.25,120,90.0
6414,C#3,309.75,0.5,107,90.0
6415,F#3,309.75,333/1000,100,90.0
6416,F#4,309.75,333/1000,100,90.0
6417,A4,309.781,0.25,127,90.0
6418,F#2,309.781,0.25,127,90.0
6419,F#3,309.833,333/1000,100,90.0
6420,F#4,309.833,333/1000,100,90.0
6421,C#3,310.0,0.25,105,90.0
6422,A4,310.031,0.25,127,90.0
6423,C2,310.031,0.25,127,90.0
6424,C#3,310.25,0.25,107,90.0
6425,A4,310.281,0.25,127,90.0
6426,F#2,310.281,0.25,127,90.0
6427,E2,310.5,0.5,120,90.0
6428,C#3,310.5,0.25,120,90.0
6429,C#3,310.5,0.5,109,90.0
6430,G#4,310.5,333/1000,100,90.0
6431,G#3,310.5,333/1000,100,90.0
6432,A4,310.531,0.25,127,90.0
6433,G#4,310.583,333/1000,100,90.0
6434,G#3,310.583,333/1000,100,90.0
6435,C#3,310.75,0.25,85,90.0
6436,A4,310.781,0.25,127,90.0
6437,C2,310.781,0.25,127,90.0
6438,F#2,310.781,0.25,127,90.0
6439,C#3,311.0,0.25,113,90.0
6440,F#3,311.0,0.25,127,90.0
6441,F#4,311.0,0.25,127,90.0
6442,A4,311.031,0.25,127,90.0
6443,C#3,311.25,0.25,90,90.0
6444,A4,311.281,0.25,127,90.0
6445,D2,311.281,0.25,127,90.0
6446,F#2,311.281,0.25,127,90.0
6447,E3,311.5,0.25,111,90.0
6448,A4,311.531,0.25,127,90.0
6449,B2,311.75,0.25,115,90.0
6450,B1,311.75,0.25,120,90.0
6451,B3,311.75,0.25,120,90.0
6452,C#3,311.75,0.25,120,90.0
6453,C#3,311.75,0.25,105,90.0
6454,B2,311.75,0.25,50,90.0
6455,A4,311.75,0.25,50,90.0
6456,A3,311.75,0.25,50,90.0
6457,B3,311.75,0.25,50,90.0
6458,A3,311.75,0.25,100,90.0
6459,B2,311.75,0.25,100,90.0
6460,B3,311.75,0.25,100,90.0
6461,A4,311.75,0.25,100,90.0
6462,A4,311.781,0.25,127,90.0
6463,F#2,311.781,0.25,127,90.0
6464,A3,311.833,0.25,100,90.0
6465,B2,311.833,0.25,100,90.0
6466,B3,311.833,0.25,100,90.0
6467,A4,311.833,0.25,100,90.0
6468,B2,312.0,83/1000,115,90.0
6469,B1,312.0,0.25,120,90.0
6470,E3,312.0,0.25,105,90.0
6471,C#3,312.0,0.25,105,90.0
6472,B2,312.0,83/1000,50,90.0
6473,A4,312.0,83/1000,50,90.0
6474,A3,312.0,83/1000,50,90.0
6475,B3,312.0,83/1000,50,90.0
6476,A3,312.0,83/1000,100,90.0
6477,B2,312.0,83/1000,100,90.0
6478,B3,312.0,83/1000,100,90.0
6479,A4,312.0,83/1000,100,90.0
6480,A4,312.031,0.25,127,90.0
6481,C2,312.031,0.25,127,90.0
6482,A3,312.083,83/1000,100,90.0
6483,B2,312.083,83/1000,100,90.0
6484,B3,312.083,83/1000,100,90.0
6485,A4,312.083,83/1000,100,90.0
6486,C#3,312.25,0.25,114,90.0
6487,A4,312.281,1/100,127,90.0
6488,F#2,312.281,1/100,127,90.0
6489,C#3,312.5,333/1000,115,90.0
6490,C#2,312.5,0.5,120,90.0
6491,C#4,312.5,0.25,120,90.0
6492,C#3,312.5,0.5,120,90.0
6493,C#4,312.5,333/1000,50,90.0
6494,C#3,312.5,333/1000,50,90.0
6495,G#4,312.5,333/1000,50,90.0
6496,G#3,312.5,333/1000,50,90.0
6497,C#3,312.5,333/1000,100,90.0
6498,G#3,312.5,333/1000,100,90.0
6499,G#4,312.5,333/1000,100,90.0
6500,C#4,312.5,333/1000,100,90.0
6501,A4,312.531,6/25,127,90.0
6502,F#2,312.531,6/25,127,90.0
6503,C#3,312.583,333/1000,100,90.0
6504,G#3,312.583,333/1000,100,90.0
6505,G#4,312.583,333/1000,100,90.0
6506,C#4,312.583,333/1000,100,90.0
6507,A4,312.771,0.25,127,90.0
6508,A4,313.021,0.25,127,90.0
6509,C2,313.021,0.25,127,90.0
6510,F#2,313.021,0.25,127,90.0
6511,A4,313.271,0.25,127,90.0
6512,A4,313.521,0.25,127,90.0
6513,D2,313.521,0.25,127,90.0
6514,F#2,313.521,0.25,127,90.0
6515,A4,313.771,0.25,127,90.0
6516,A4,314.021,0.25,127,90.0
6517,F#2,314.021,0.25,127,90.0
6518,A4,314.271,0.25,127,90.0
6519,C2,314.271,0.25,127,90.0
6520,A4,314.521,0.25,127,90.0
6521,F#2,314.521,0.25,127,90.0
6522,A4,314.771,0.25,127,90.0
6523,A4,315.021,0.25,127,90.0
6524,C2,315.021,0.25,127,90.0
6525,F#2,315.021,0.25,127,90.0
6526,A4,315.271,0.25,127,90.0
6527,A4,315.521,0.25,127,90.0
6528,D2,315.521,0.25,127,90.0
6529,F#2,315.521,0.25,127,90.0
6530,A4,315.771,0.25,127,90.0
6531,A4,316.021,0.25,127,90.0
6532,F#2,316.021,0.25,127,90.0
6533,A4,316.271,0.25,127,90.0
6534,C2,316.271,0.25,127,90.0
6535,A4,316.521,1/100,127,90.0
6536,F#2,316.521,1/100,127,90.0
6537,A4,316.771,6/25,127,90.0
6538,F#2,316.771,6/25,127,90.0
6539,A4,317.01,0.25,127,90.0
6540,A4,317.26,0.25,127,90.0
6541,C2,317.26,0.25,127,90.0
6542,F#2,317.26,0.25,127,90.0
6543,A4,317.51,0.25,127,90.0
6544,A4,317.76,0.25,127,90.0
6545,D2,317.76,0.25,127,90.0
6546,F#2,317.76,0.25,127,90.0
6547,A4,318.01,0.25,127,90.0
6548,A4,318.26,0.25,127,90.0
6549,F#2,318.26,0.25,127,90.0
6550,A4,318.51,0.25,127,90.0
6551,C2,318.51,0.25,127,90.0
6552,A4,318.76,0.25,127,90.0
6553,F#2,318.76,0.25,127,90.0
6554,A4,319.01,0.25,127,90.0
6555,A4,319.26,0.25,127,90.0
6556,C2,319.26,0.25,127,90.0
6557,F#2,319.26,0.25,127,90.0
6558,A4,319.51,0.25,127,90.0
6559,A4,319.76,0.25,127,90.0
6560,D2,319.76,0.25,127,90.0
6561,F#2,319.76,0.25,127,90.0
6562,A4,320.01,0.25,127,90.0
6563,A4,320.26,0.25,127,90.0
6564,F#2,320.26,0.25,127,90.0
6565,A4,320.51,0.25,127,90.0
6566,C2,320.51,0.25,127,90.0
6567,A4,320.76,1/100,127,90.0
6568,F#2,320.76,1/100,127,90.0
6569,A4,321.01,6/25,127,90.0
6570,F#2,321.01,6/25,127,90.0
6571,A4,321.25,0.25,127,90.0
6572,A4,321.5,0.25,127,90.0
6573,C2,321.5,0.25,127,90.0
6574,F#2,321.5,0.25,127,90.0
6575,A4,321.75,0.25,127,90.0
6576,A4,322.0,0.25,127,90.0
6577,D2,322.0,0.25,127,90.0
6578,F#2,322.0,0.25,127,90.0
6579,A4,322.25,0.25,127,90.0
6580,A4,322.5,0.25,127,90.0
6581,F#2,322.5,0.25,127,90.0
6582,A4,322.75,0.25,127,90.0
6583,C2,322.75,0.25,127,90.0
6584,A4,323.0,0.25,127,90.0
6585,F#2,323.0,0.25,127,90.0
6586,A4,323.25,0.25,127,90.0
6587,A4,323.5,0.25,127,90.0
6588,C2,323.5,0.25,127,90.0
6589,F#2,323.5,0.25,127,90.0
6590,A4,323.75,0.25,127,90.0
6591,A4,324.0,0.25,127,90.0
6592,D2,324.0,0.25,127,90.0
6593,F#2,324.0,0.25,127,90.0
6594,A4,324.25,0.25,127,90.0
6595,A4,324.5,0.25,127,90.0
6596,F#2,324.5,0.25,127,90.0
6597,A4,324.75,0.25,127,90.0
6598,C2,324.75,0.25,127,90.0
6599,A4,325.0,1/100,127,90.0
6600,F#2,325.0,1/100,127,90.0
6601,A4,325.25,6/25,127,90.0
6602,F#2,325.25,6/25,127,90.0
6603,A4,325.49,0.25,127,90.0
6604,A4,325.74,0.25,127,90.0
6605,C2,325.74,0.25,127,90.0
6606,F#2,325.74,0.25,127,90.0
6607,A4,325.99,0.25,127,90.0
6608,A4,326.24,0.25,127,90.0
6609,D2,326.24,0.25,127,90.0
6610,F#2,326.24,0.25,127,90.0
6611,A4,326.49,0.25,127,90.0
6612,A4,326.74,0.25,127,90.0
6613,F#2,326.74,0.25,127,90.0
6614,A4,326.99,0.25,127,90.0
6615,C2,326.99,0.25,127,90.0
6616,A4,327.24,0.25,127,90.0
6617,F#2,327.24,0.25,127,90.0
6618,A4,327.49,0.25,127,90.0
6619,A4,327.74,0.25,127,90.0
6620,C2,327.74,0.25,127,90.0
6621,F#2,327.74,0.25,127,90.0
6622,A4,327.99,0.25,127,90.0
6623,A4,328.24,0.25,127,90.0
6624,D2,328.24,0.25,127,90.0
6625,F#2,328.24,0.25,127,90.0
6626,A4,328.49,0.25,127,90.0
6627,A4,328.74,0.25,127,90.0
6628,F#2,328.74,0.25,127,90.0
6629,A4,328.99,0.25,127,90.0
6630,C2,328.99,0.25,127,90.0
6631,A4,329.24,1/100,127,90.0
6632,F#2,329.24,1/100,127,90.0
6633,A4,329.49,6/25,127,90.0
6634,F#2,329.49,6/25,127,90.0
6635,A4,329.729,0.25,127,90.0
6636,A4,329.979,0.25,127,90.0
6637,C2,329.979,0.25,127,90.0
6638,F#2,329.979,0.25,127,90.0
6639,A4,330.229,0.25,127,90.0
