,note_name,start_time,duration,velocity,tempo
0,C6,0.01,0.493,54,70.0
1,D6,0.533,0.466,49,70.0
2,F4,0.863,2.147,42,70.0
3,G5,0.904,1.115,42,70.0
4,C5,0.946,2.064,42,70.0
5,E6,1.029,0.99,56,70.0
6,F5,1.029,1.981,56,70.0
7,G6,2.021,0.99,52,70.0
8,G5,3.012,0.988,48,70.0
9,D6,3.012,0.988,48,70.0
10,G4,3.012,0.988,48,70.0
11,D5,3.012,0.988,48,70.0
12,G5,4.0,1.028,48,70.0
13,D6,4.0,1.028,48,70.0
14,G4,4.0,1.028,48,70.0
15,D5,4.0,1.028,48,70.0
16,C6,5.029,0.99,50,70.0
17,C4,5.029,0.463,50,70.0
18,G4,5.522,0.468,49,70.0
19,G5,6.021,0.468,51,70.0
20,C6,6.021,0.468,51,70.0
21,D5,6.021,0.468,51,70.0
22,D6,6.519,0.492,49,70.0
23,E5,6.519,1.481,49,70.0
24,D6,7.012,0.987,50,70.0
25,E5,8.0,1.028,49,70.0
26,C6,8.004,0.499,54,70.0
27,D6,8.533,0.466,49,70.0
28,F3,9.029,0.463,50,70.0
29,C6,9.029,0.99,49,70.0
30,E6,9.029,0.99,49,70.0
31,C4,9.522,0.468,49,70.0
32,G6,10.021,0.468,52,70.0
33,A4,10.021,0.99,52,70.0
34,A6,10.519,0.463,49,70.0
35,G3,11.012,0.463,50,70.0
36,D6,11.012,0.987,49,70.0
37,G6,11.012,0.987,49,70.0
38,D4,11.505,0.465,49,70.0
39,G5,12.004,1.024,53,70.0
40,D6,12.004,1.024,53,70.0
41,B4,12.004,1.024,53,70.0
42,C3,13.029,0.463,50,70.0
43,G5,13.029,0.99,50,70.0
44,D6,13.029,0.99,50,70.0
45,G3,13.522,0.468,49,70.0
46,B5,14.021,0.468,52,70.0
47,D6,14.021,0.468,52,70.0
48,D4,14.021,0.468,52,70.0
49,E6,14.519,0.463,49,70.0
50,E4,14.519,0.463,49,70.0
51,G4,15.012,0.988,50,70.0
52,C6,15.012,0.987,49,70.0
53,E6,15.012,0.987,49,70.0
54,G4,16.0,1.028,50,70.0
55,C6,16.004,0.499,67,70.0
56,D6,16.533,0.466,62,70.0
57,F3,17.029,0.463,63,70.0
58,C6,17.029,0.99,62,70.0
59,E6,17.029,0.99,62,70.0
60,C4,17.522,0.468,62,70.0
61,A4,18.021,0.99,65,70.0
62,C6,18.021,0.497,64,70.0
63,G6,18.021,0.497,64,70.0
64,A6,18.519,0.463,62,70.0
65,G3,19.012,0.463,63,70.0
66,B5,19.012,0.988,60,70.0
67,D6,19.012,0.988,60,70.0
68,D4,19.505,0.465,62,70.0
69,B5,20.0,1.028,60,70.0
70,D6,20.0,1.028,60,70.0
71,B4,20.004,1.024,67,70.0
72,A3,21.029,0.463,63,70.0
73,G5,21.029,0.99,62,70.0
74,C6,21.029,0.99,62,70.0
75,E4,21.522,0.468,62,70.0
76,G5,22.021,0.468,63,70.0
77,C6,22.021,0.468,63,70.0
78,B4,22.021,0.468,63,70.0
79,D6,22.519,0.463,62,70.0
80,E4,22.519,0.463,62,70.0
81,E6,23.012,0.463,63,70.0
82,C5,23.012,0.463,63,70.0
83,D6,23.505,0.465,62,70.0
84,E4,23.505,0.465,62,70.0
85,G5,24.004,0.499,66,70.0
86,C6,24.004,0.499,66,70.0
87,B4,24.004,0.499,66,70.0
88,B5,24.533,0.466,62,70.0
89,E4,24.533,0.466,62,70.0
90,F3,25.029,0.463,63,70.0
91,F5,25.029,0.99,62,70.0
92,A5,25.029,0.99,62,70.0
93,C4,25.522,0.468,62,70.0
94,B5,26.021,0.468,65,70.0
95,A4,26.021,0.99,65,70.0
96,C6,26.519,0.463,62,70.0
97,D5,26.846,0.987,55,70.0
98,G3,26.846,1.153,55,70.0
99,G5,26.929,1.07,55,70.0
100,D4,26.929,1.07,55,70.0
101,D6,27.012,0.821,69,70.0
102,G4,27.012,0.821,69,70.0
103,B5,28.004,0.858,67,70.0
104,D4,28.004,1.024,67,70.0
105,G5,29.029,2.971,59,70.0
106,B5,29.029,2.971,59,70.0
107,E3,29.029,0.99,62,70.0
108,B3,29.029,0.99,62,70.0
109,B3,30.021,0.468,65,70.0
110,E3,30.519,0.463,62,70.0
111,C4,31.012,0.463,63,70.0
112,E3,31.505,0.465,62,70.0
113,G5,32.0,1.028,59,70.0
114,B5,32.0,1.028,59,70.0
115,B3,32.004,0.499,67,70.0
116,E3,32.533,0.466,62,70.0
117,A2,33.029,0.463,63,70.0
118,E3,33.522,0.468,62,70.0
119,B3,34.021,0.468,65,70.0
120,E3,34.519,0.363,62,70.0
121,C4,35.012,0.821,63,70.0
122,C5,36.004,0.499,67,70.0
123,D5,36.533,0.466,62,70.0
124,G4,37.029,0.99,62,70.0
125,E5,37.029,0.99,62,70.0
126,C2,37.029,0.99,62,70.0
127,E3,37.029,0.99,62,70.0
128,G4,38.021,0.99,64,70.0
129,G5,38.021,0.99,64,70.0
130,C4,38.021,0.99,64,70.0
131,E4,38.021,0.99,64,70.0
132,G4,39.012,0.988,62,70.0
133,D5,39.012,0.988,62,70.0
134,G2,39.012,0.987,62,70.0
135,B3,39.012,0.987,62,70.0
136,G4,40.0,1.028,62,70.0
137,D5,40.0,1.028,62,70.0
138,G3,40.004,1.024,64,70.0
139,B3,40.004,1.024,64,70.0
140,D4,40.004,1.024,64,70.0
141,G4,41.029,0.99,62,70.0
142,C5,41.029,0.99,62,70.0
143,C3,41.029,0.99,62,70.0
144,G4,42.021,0.497,62,70.0
145,C5,42.021,0.497,62,70.0
146,C4,42.021,0.99,64,70.0
147,D4,42.021,0.99,64,70.0
148,D5,42.519,0.492,62,70.0
149,G4,43.012,0.987,62,70.0
150,D5,43.012,0.987,62,70.0
151,C4,43.012,0.987,62,70.0
152,E4,43.012,0.987,62,70.0
153,C5,44.004,0.499,67,70.0
154,B2,44.004,1.024,67,70.0
155,D5,44.533,0.466,62,70.0
156,G4,45.029,0.99,60,70.0
157,C5,45.029,0.99,60,70.0
158,E5,45.029,0.99,60,70.0
159,C2,45.029,0.99,60,70.0
160,G4,46.021,0.497,62,70.0
161,C5,46.021,0.497,62,70.0
162,G5,46.021,0.497,62,70.0
163,G3,46.021,0.99,64,70.0
164,C4,46.021,0.99,64,70.0
165,A5,46.519,0.463,62,70.0
166,G4,47.012,0.987,61,70.0
167,B4,47.012,0.987,61,70.0
168,G5,47.012,0.987,61,70.0
169,G2,47.012,0.987,61,70.0
170,B3,47.012,0.987,61,70.0
171,G4,48.004,1.024,65,70.0
172,D5,48.004,1.024,65,70.0
173,G3,48.004,1.024,65,70.0
174,B3,48.004,1.024,65,70.0
175,D4,48.004,1.024,65,70.0
176,G4,49.029,0.99,60,70.0
177,D5,49.029,0.99,60,70.0
178,C2,49.029,0.99,60,70.0
179,G4,50.021,0.497,62,70.0
180,D5,50.021,0.497,62,70.0
181,G3,50.021,0.99,62,70.0
182,C4,50.021,0.99,62,70.0
183,D4,50.021,0.99,62,70.0
184,E5,50.519,0.492,62,70.0
185,G4,51.012,0.987,61,70.0
186,E5,51.012,0.987,61,70.0
187,G3,51.012,0.987,61,70.0
188,C4,51.012,0.987,61,70.0
189,E4,51.012,0.987,61,70.0
190,D3,52.004,1.024,67,70.0
191,G4,52.004,0.528,66,70.0
192,C5,52.004,0.528,66,70.0
193,D5,52.533,0.466,62,70.0
194,G4,53.029,0.99,60,70.0
195,C5,53.029,0.99,60,70.0
196,E5,53.029,0.99,60,70.0
197,C2,53.029,0.99,60,70.0
198,G4,54.021,0.99,63,70.0
199,C5,54.021,0.99,63,70.0
200,G5,54.021,0.99,63,70.0
201,G3,54.021,0.99,63,70.0
202,C4,54.021,0.99,63,70.0
203,G4,55.012,0.988,60,70.0
204,B4,55.012,0.988,60,70.0
205,D5,55.012,0.988,60,70.0
206,G2,55.012,0.987,62,70.0
207,B3,55.012,0.987,62,70.0
208,G4,56.0,1.028,60,70.0
209,B4,56.0,1.028,60,70.0
210,D5,56.0,1.028,60,70.0
211,G3,56.004,1.024,64,70.0
212,B3,56.004,1.024,64,70.0
213,D4,56.004,1.024,64,70.0
214,G4,57.029,0.99,62,70.0
215,C5,57.029,0.99,62,70.0
216,A2,57.029,0.99,62,70.0
217,G4,58.021,0.497,62,70.0
218,C5,58.021,0.497,62,70.0
219,C4,58.021,0.99,62,70.0
220,E4,58.021,0.99,62,70.0
221,D5,58.519,0.463,62,70.0
222,G4,59.012,0.492,62,70.0
223,E5,59.012,0.492,62,70.0
224,A3,59.012,0.987,64,70.0
225,C4,59.012,0.987,64,70.0
226,E4,59.012,0.987,64,70.0
227,D5,59.505,0.465,62,70.0
228,G4,60.004,0.528,66,70.0
229,C5,60.004,0.528,66,70.0
230,G3,60.004,1.024,68,70.0
231,E4,60.004,1.024,68,70.0
232,B4,60.533,0.466,62,70.0
233,C4,61.029,0.99,62,70.0
234,A4,61.029,0.99,62,70.0
235,F2,61.029,0.99,62,70.0
236,B4,62.021,0.468,65,70.0
237,F3,62.021,0.99,62,70.0
238,A3,62.021,0.99,62,70.0
239,C4,62.021,0.99,62,70.0
240,C5,62.519,0.463,62,70.0
241,D4,62.846,1.153,55,70.0
242,G2,62.846,1.154,55,70.0
243,G4,62.929,1.07,55,70.0
244,D3,62.929,1.071,55,70.0
245,B4,63.012,0.987,69,70.0
246,B3,63.012,0.988,69,70.0
247,B3,64.0,1.028,69,70.0
248,G2,64.0,1.028,55,70.0
249,D3,64.0,1.028,55,70.0
250,G4,64.004,1.024,67,70.0
251,A2,65.029,1.488,63,70.0
252,D4,65.029,0.99,60,70.0
253,G4,65.029,0.99,60,70.0
254,B4,65.029,0.99,60,70.0
255,B3,66.021,0.99,64,70.0
256,C4,66.021,0.99,64,70.0
257,E3,66.519,1.48,62,70.0
258,B3,67.012,0.987,62,70.0
259,C4,67.012,0.987,62,70.0
260,A2,68.004,0.499,67,70.0
261,C4,68.004,1.024,64,70.0
262,E4,68.004,1.024,64,70.0
263,B4,68.004,1.024,64,70.0
264,E3,68.533,0.959,63,70.0
265,C4,69.029,0.99,61,70.0
266,D4,69.029,0.99,61,70.0
267,G4,69.029,0.99,61,70.0
268,A3,69.522,0.468,66,70.0
269,A2,70.021,0.468,68,70.0
270,C4,70.021,0.99,67,70.0
271,D4,70.021,0.99,67,70.0
272,E3,70.519,0.956,69,70.0
273,C4,71.012,0.987,68,70.0
274,D4,71.012,0.987,68,70.0
275,A3,71.505,0.495,73,70.0
276,A3,72.0,0.532,73,70.0
277,C4,72.004,1.024,79,70.0
278,D4,72.004,1.024,79,70.0
279,A3,72.533,0.228,75,70.0
280,G3,72.776,0.237,75,70.0
281,E-4,72.842,0.65,68,70.0
282,G4,72.904,0.617,68,70.0
283,B-4,72.967,0.555,68,70.0
284,E-5,73.029,0.463,79,70.0
285,G#2,73.029,0.463,79,70.0
286,G4,73.522,0.468,75,70.0
287,E-3,73.522,0.468,75,70.0
288,F4,74.021,0.99,78,70.0
289,G#3,74.021,0.468,78,70.0
290,E-3,74.519,0.463,75,70.0
291,E-4,75.012,0.987,76,70.0
292,G#3,75.012,0.463,76,70.0
293,E-3,75.505,0.465,75,70.0
294,G#3,76.004,0.499,80,70.0
295,G4,76.004,1.024,77,70.0
296,B-4,76.004,1.024,77,70.0
297,G5,76.004,1.024,77,70.0
298,E-3,76.533,0.466,75,70.0
299,F4,77.029,0.99,73,70.0
300,B-4,77.029,0.99,73,70.0
301,F5,77.029,0.99,73,70.0
302,B-1,77.029,0.492,74,70.0
303,B-2,77.029,0.492,74,70.0
304,F3,77.522,0.468,75,70.0
305,F4,78.021,0.99,78,70.0
306,B-3,78.021,0.468,78,70.0
307,F3,78.519,0.492,75,70.0
308,F3,79.012,0.463,76,70.0
309,D4,79.012,0.331,73,70.0
310,G4,79.012,0.331,73,70.0
311,D5,79.012,0.331,73,70.0
312,E-4,79.344,0.321,74,70.0
313,E-5,79.344,0.321,74,70.0
314,E-3,79.505,0.465,75,70.0
315,F4,79.666,0.333,74,70.0
316,F5,79.666,0.333,74,70.0
317,D3,80.004,0.499,80,70.0
318,E-4,80.004,0.366,79,70.0
319,E-5,80.004,0.366,79,70.0
320,D4,80.371,0.323,74,70.0
321,D5,80.371,0.323,74,70.0
322,E-3,80.533,0.466,75,70.0
323,B-3,80.695,0.333,74,70.0
324,B-4,80.695,0.333,74,70.0
325,C4,81.029,0.99,73,70.0
326,E-4,81.029,0.99,73,70.0
327,C5,81.029,0.99,73,70.0
328,G#1,81.029,0.492,74,70.0
329,G#2,81.029,0.492,74,70.0
330,E-3,81.522,0.468,75,70.0
331,G#3,82.021,0.468,78,70.0
332,C4,82.021,0.99,77,70.0
333,F4,82.021,0.99,77,70.0
334,E-3,82.519,0.463,75,70.0
335,G#2,83.012,0.463,76,70.0
336,E-4,83.012,0.987,75,70.0
337,G4,83.012,0.987,75,70.0
338,E-3,83.505,0.494,75,70.0
339,E-3,84.004,0.499,80,70.0
340,G4,84.004,1.024,77,70.0
341,B-4,84.004,1.024,77,70.0
342,G5,84.004,1.024,77,70.0
343,F3,84.533,0.466,75,70.0
344,B-4,85.029,0.99,73,70.0
345,D5,85.029,0.99,73,70.0
346,B-5,85.029,0.99,73,70.0
347,B-1,85.029,0.492,74,70.0
348,B-2,85.029,0.492,74,70.0
349,F3,85.522,0.468,75,70.0
350,B-4,86.021,0.99,78,70.0
351,B-3,86.021,0.468,78,70.0
352,F3,86.519,0.463,75,70.0
353,B-4,87.012,0.312,76,70.0
354,B-2,87.012,0.987,76,70.0
355,C5,87.344,0.302,75,70.0
356,D5,87.666,0.313,75,70.0
357,E-5,88.004,0.194,80,70.0
358,B-3,88.004,0.499,80,70.0
359,F5,88.209,0.151,75,70.0
360,G5,88.371,0.151,75,70.0
361,G#5,88.533,0.151,75,70.0
362,F3,88.533,0.466,75,70.0
363,B-5,88.695,0.151,75,70.0
364,C6,88.857,0.161,75,70.0
365,E-6,89.029,1.981,76,70.0
366,F2,89.029,0.463,76,70.0
367,C3,89.522,0.468,75,70.0
368,F3,90.021,0.468,78,70.0
369,G#3,90.519,0.463,75,70.0
370,G5,90.846,0.478,68,70.0
371,C6,90.929,0.414,68,70.0
372,G6,91.012,0.312,79,70.0
373,F2,91.012,0.312,79,70.0
374,E-6,91.344,0.302,75,70.0
375,C3,91.344,0.302,75,70.0
376,C6,91.666,0.313,75,70.0
377,F3,91.666,0.313,75,70.0
378,G5,92.004,0.347,80,70.0
379,G#3,92.004,0.347,80,70.0
380,E-5,92.371,0.304,75,70.0
381,F3,92.371,0.304,75,70.0
382,C5,92.695,0.313,75,70.0
383,C3,92.695,0.313,75,70.0
384,G#4,93.029,0.99,76,70.0
385,G#2,93.029,0.463,76,70.0
386,E-3,93.522,0.468,75,70.0
387,G#3,94.021,0.468,78,70.0
388,G4,94.021,0.99,74,70.0
389,C5,94.021,0.99,74,70.0
390,E-5,94.021,0.99,74,70.0
391,G5,94.021,0.99,74,70.0
392,E-3,94.519,0.463,75,70.0
393,G#3,95.012,0.463,76,70.0
394,G4,95.012,0.987,73,70.0
395,B-4,95.012,0.987,73,70.0
396,E-5,95.012,0.987,73,70.0
397,E-3,95.505,0.465,75,70.0
398,E-4,96.004,0.499,80,70.0
399,G#2,96.004,0.499,80,70.0
400,G4,96.533,0.466,75,70.0
401,G2,96.533,0.466,75,70.0
402,F2,97.029,0.463,76,70.0
403,E-4,97.029,0.99,75,70.0
404,B-4,97.029,0.99,75,70.0
405,F3,97.522,0.468,75,70.0
406,B-4,98.021,0.99,76,70.0
407,E-5,98.021,0.99,76,70.0
408,B-5,98.021,0.99,76,70.0
409,B-2,98.021,0.99,76,70.0
410,F4,99.012,0.987,74,70.0
411,B-4,99.012,0.987,74,70.0
412,F5,99.012,0.987,74,70.0
413,F2,99.012,0.987,74,70.0
414,E-4,100.004,1.024,76,70.0
415,G4,100.004,1.024,76,70.0
416,B-4,100.004,1.024,76,70.0
417,E-5,100.004,1.024,76,70.0
418,E-2,100.004,1.024,76,70.0
419,D4,101.029,1.981,73,70.0
420,G4,101.029,1.981,73,70.0
421,D5,101.029,1.981,73,70.0
422,B-1,101.029,0.492,72,70.0
423,B-2,101.029,0.492,72,70.0
424,B-1,101.522,0.497,71,70.0
425,B-2,101.522,0.497,71,70.0
426,B-1,102.021,0.497,74,70.0
427,B-2,102.021,0.497,74,70.0
428,B-1,102.519,0.492,71,70.0
429,B-2,102.519,0.492,71,70.0
430,B-1,103.012,0.388,74,70.0
431,B-2,103.012,0.388,74,70.0
432,E-4,104.004,0.528,92,70.0
433,E-5,104.004,0.528,92,70.0
434,F4,104.533,0.495,87,70.0
435,F5,104.533,0.495,87,70.0
436,G4,105.029,0.99,85,70.0
437,C5,105.029,0.99,85,70.0
438,E-5,105.029,0.99,85,70.0
439,G5,105.029,0.99,85,70.0
440,G#1,105.029,0.99,85,70.0
441,G#2,105.029,0.99,85,70.0
442,B-4,106.021,0.99,88,70.0
443,E-5,106.021,0.99,88,70.0
444,B-5,106.021,0.99,88,70.0
445,G#2,106.021,0.99,88,70.0
446,E-3,106.021,0.99,88,70.0
447,G#3,106.021,0.99,88,70.0
448,F4,107.012,0.987,86,70.0
449,B-4,107.012,0.987,86,70.0
450,F5,107.012,0.987,86,70.0
451,B-1,107.012,0.987,86,70.0
452,B-2,107.012,0.987,86,70.0
453,F4,108.004,1.024,91,70.0
454,B-4,108.004,1.024,91,70.0
455,B-2,108.004,1.024,91,70.0
456,F3,108.004,1.024,91,70.0
457,B-3,108.004,1.024,91,70.0
458,E-4,109.029,0.99,86,70.0
459,G4,109.029,0.99,86,70.0
460,E-5,109.029,0.99,86,70.0
461,E-2,109.029,0.99,86,70.0
462,E-3,109.029,0.99,86,70.0
463,E-4,110.021,0.497,88,70.0
464,G4,110.021,0.497,88,70.0
465,E-5,110.021,0.497,88,70.0
466,E-2,110.021,0.99,87,70.0
467,B-2,110.021,0.99,87,70.0
468,E-3,110.021,0.99,87,70.0
469,F4,110.519,0.492,87,70.0
470,F5,110.519,0.492,87,70.0
471,F4,111.012,0.388,86,70.0
472,B-4,111.012,0.388,86,70.0
473,F5,111.012,0.388,86,70.0
474,D2,111.012,0.388,86,70.0
475,D3,111.012,0.388,86,70.0
476,E-4,112.004,0.528,92,70.0
477,E-5,112.004,0.528,92,70.0
478,B-1,112.004,1.024,91,70.0
479,B-2,112.004,1.024,91,70.0
480,F4,112.533,0.495,87,70.0
481,F5,112.533,0.495,87,70.0
482,G4,113.029,0.99,86,70.0
483,C5,113.029,0.99,86,70.0
484,G5,113.029,0.99,86,70.0
485,G#1,113.029,0.99,86,70.0
486,G#2,113.029,0.99,86,70.0
487,B-4,114.021,0.497,88,70.0
488,D5,114.021,0.497,88,70.0
489,B-5,114.021,0.497,88,70.0
490,G#2,114.021,0.99,88,70.0
491,E-3,114.021,0.99,88,70.0
492,G#3,114.021,0.99,88,70.0
493,C5,114.519,0.492,87,70.0
494,C6,114.519,0.492,87,70.0
495,B-4,115.012,0.987,86,70.0
496,D5,115.012,0.987,86,70.0
497,B-5,115.012,0.987,86,70.0
498,B-1,115.012,0.987,86,70.0
499,B-2,115.012,0.987,86,70.0
500,F4,116.004,1.024,90,70.0
501,B-4,116.004,1.024,90,70.0
502,F5,116.004,1.024,90,70.0
503,B-2,116.004,1.024,90,70.0
504,F3,116.004,1.024,90,70.0
505,B-3,116.004,1.024,90,70.0
506,G4,117.029,0.99,87,70.0
507,B-4,117.029,0.99,87,70.0
508,F5,117.029,0.99,87,70.0
509,E-2,117.029,0.99,87,70.0
510,E-3,117.029,0.99,87,70.0
511,F4,118.021,0.497,88,70.0
512,B-4,118.021,0.497,88,70.0
513,F5,118.021,0.497,88,70.0
514,E-2,118.021,0.99,87,70.0
515,B-2,118.021,0.99,87,70.0
516,E-3,118.021,0.99,87,70.0
517,G4,118.519,0.492,87,70.0
518,G5,118.519,0.492,87,70.0
519,G4,119.012,0.492,86,70.0
520,G5,119.012,0.492,86,70.0
521,D2,119.012,0.987,88,70.0
522,D3,119.012,0.987,88,70.0
523,B-4,119.505,0.494,88,70.0
524,F4,120.004,0.528,90,70.0
525,B-4,120.004,0.528,90,70.0
526,E-5,120.004,0.528,90,70.0
527,B-1,120.004,1.024,91,70.0
528,B-2,120.004,1.024,91,70.0
529,F4,120.533,0.495,87,70.0
530,F5,120.533,0.495,87,70.0
531,G4,121.029,0.99,86,70.0
532,C5,121.029,0.99,86,70.0
533,G5,121.029,0.99,86,70.0
534,G#1,121.029,0.99,86,70.0
535,G#2,121.029,0.99,86,70.0
536,B-4,122.021,0.99,88,70.0
537,E-5,122.021,0.99,88,70.0
538,B-5,122.021,0.99,88,70.0
539,G#2,122.021,0.99,88,70.0
540,E-3,122.021,0.99,88,70.0
541,G#3,122.021,0.99,88,70.0
542,F4,123.012,0.987,86,70.0
543,B-4,123.012,0.987,86,70.0
544,F5,123.012,0.987,86,70.0
545,B-1,123.012,0.987,86,70.0
546,B-2,123.012,0.987,86,70.0
547,F4,124.004,1.024,91,70.0
548,B-4,124.004,1.024,91,70.0
549,B-2,124.004,1.024,91,70.0
550,F3,124.004,1.024,91,70.0
551,B-3,124.004,1.024,91,70.0
552,E-4,125.029,0.99,86,70.0
553,G4,125.029,0.99,86,70.0
554,E-5,125.029,0.99,86,70.0
555,C2,125.029,0.99,86,70.0
556,C3,125.029,0.99,86,70.0
557,E-4,126.021,0.497,88,70.0
558,G4,126.021,0.497,88,70.0
559,E-5,126.021,0.497,88,70.0
560,C2,126.021,0.99,89,70.0
561,C3,126.021,0.99,89,70.0
562,F4,126.519,0.492,87,70.0
563,F5,126.519,0.492,87,70.0
564,G4,127.012,0.492,86,70.0
565,C5,127.012,0.492,86,70.0
566,G5,127.012,0.492,86,70.0
567,B-1,127.012,0.987,87,70.0
568,B-2,127.012,0.987,87,70.0
569,F4,127.505,0.494,87,70.0
570,F5,127.505,0.494,87,70.0
571,E-4,128.004,0.528,90,70.0
572,G4,128.004,0.528,90,70.0
573,E-5,128.004,0.528,90,70.0
574,B-1,128.004,1.024,91,70.0
575,B-2,128.004,1.024,91,70.0
576,D4,128.533,0.495,87,70.0
577,D5,128.533,0.495,87,70.0
578,C4,129.029,0.99,86,70.0
579,E-4,129.029,0.99,86,70.0
580,C5,129.029,0.99,86,70.0
581,G#1,129.029,0.99,86,70.0
582,G#2,129.029,0.99,86,70.0
583,D4,130.021,0.497,90,70.0
584,D5,130.021,0.497,90,70.0
585,G#2,130.021,0.99,88,70.0
586,E-3,130.021,0.99,88,70.0
587,G#3,130.021,0.99,88,70.0
588,E-4,130.519,0.492,87,70.0
589,E-5,130.519,0.492,87,70.0
590,D4,131.012,0.987,86,70.0
591,G4,131.012,0.987,86,70.0
592,D5,131.012,0.987,86,70.0
593,B-1,131.012,0.987,86,70.0
594,B-2,131.012,0.987,86,70.0
595,E-4,132.004,1.024,78,70.0
596,B-4,132.004,1.024,78,70.0
597,B-2,132.004,1.024,78,70.0
598,F3,132.004,1.024,78,70.0
599,B-3,132.004,1.024,78,70.0
600,C3,133.029,1.488,76,70.0
601,E-4,133.029,0.99,72,70.0
602,G4,133.029,0.99,72,70.0
603,B-4,133.029,0.99,72,70.0
604,D5,133.029,0.99,72,70.0
605,C4,134.021,0.99,75,70.0
606,D4,134.021,0.99,75,70.0
607,E-4,134.021,0.99,75,70.0
608,G3,134.519,1.48,75,70.0
609,C4,135.012,0.987,71,70.0
610,D4,135.012,0.987,71,70.0
611,E-4,135.012,0.987,71,70.0
612,C4,136.004,1.73,72,70.0
613,D4,136.004,2.016,77,70.0
614,E-4,136.004,2.016,77,70.0
615,C3,136.004,1.024,79,70.0
616,G3,136.004,1.024,79,70.0
617,C4,137.281,0.738,49,70.0
618,D4,137.765,0.255,49,70.0
619,E-4,138.021,0.241,52,70.0
620,G4,138.277,0.226,49,70.0
621,C5,138.519,0.227,49,70.0
622,D5,138.761,0.235,49,70.0
623,E-5,139.012,0.235,50,70.0
624,B-5,139.263,0.227,49,70.0
625,D6,139.505,0.227,49,70.0
626,E-6,139.747,0.237,49,70.0
627,B-6,140.004,3.995,49,70.0
