,note_name,start_time,duration,velocity,tempo
0,B-4,2.5,0.5,36,70.99
1,E-2,2.5,0.5,25,70.99
2,E-4,3.0,1.0,32,70.99
3,E-5,3.0,1.0,32,70.99
4,E-3,3.0,1.0,19,70.99
5,G3,3.0,1.0,19,70.99
6,D5,3.5,0.5,36,70.99
7,E-4,4.0,0.5,26,70.99
8,E-5,4.0,0.5,26,70.99
9,C5,4.0,0.5,26,70.99
10,E-3,4.0,0.5,19,70.99
11,G3,4.0,0.5,19,70.99
12,E-4,4.5,1.0,29,70.99
13,E-5,4.5,1.0,29,70.99
14,B-4,4.5,1.0,29,70.99
15,E-3,4.5,1.0,21,70.99
16,G3,4.5,1.0,21,70.99
17,G#4,5.5,0.25,33,70.99
18,E-2,5.5,0.5,23,70.99
19,E-4,5.5,0.5,23,70.99
20,E-5,5.5,0.5,23,70.99
21,G4,5.75,0.25,31,70.99
22,E-5,6.0,1.0,28,70.99
23,F4,6.0,0.5,36,70.99
24,E-3,6.0,1.0,23,70.99
25,G3,6.0,1.0,23,70.99
26,E-4,6.5,0.5,32,70.99
27,E-5,7.0,0.5,30,70.99
28,G4,7.0,0.5,30,70.99
29,E-3,7.0,0.5,20,70.99
30,G3,7.0,0.5,20,70.99
31,E-4,7.5,1.0,25,70.99
32,E-5,7.5,1.0,25,70.99
33,B-4,7.5,1.0,25,70.99
34,E-3,7.5,1.0,18,70.99
35,G3,7.5,1.0,18,70.99
36,C5,8.5,0.25,33,70.99
37,G1,8.5,0.5,23,70.99
38,E-4,8.5,0.5,23,70.99
39,E-5,8.5,0.5,23,70.99
40,D5,8.75,0.25,31,70.99
41,E-4,9.0,1.0,32,70.99
42,E-5,9.0,1.0,32,70.99
43,G2,9.0,1.0,18,70.99
44,E-3,9.0,1.0,18,70.99
45,G3,9.0,1.0,18,70.99
46,D5,9.5,0.5,36,70.99
47,E-4,10.0,0.5,26,70.99
48,E-5,10.0,0.5,26,70.99
49,C5,10.0,0.5,26,70.99
50,G2,10.0,0.5,18,70.99
51,E-3,10.0,0.5,18,70.99
52,G3,10.0,0.5,18,70.99
53,E-4,10.5,1.0,29,70.99
54,E-5,10.5,1.0,29,70.99
55,B-4,10.5,1.0,29,70.99
56,G2,10.5,1.0,20,70.99
57,E-3,10.5,1.0,20,70.99
58,G3,10.5,1.0,20,70.99
59,G#4,11.5,0.25,33,70.99
60,B-1,11.5,0.5,23,70.99
61,E-4,11.5,0.5,23,70.99
62,E-5,11.5,0.5,23,70.99
63,G4,11.75,0.25,31,70.99
64,E-5,12.0,1.0,28,70.99
65,B-4,12.0,0.5,36,70.99
66,B-2,12.0,1.0,23,70.99
67,G3,12.0,1.0,23,70.99
68,E-4,12.5,0.5,32,70.99
69,G4,12.875,0.125,25,70.99
70,D5,13.0,0.5,26,70.99
71,F4,13.0,0.5,26,70.99
72,B-2,13.0,0.5,18,70.99
73,G#3,13.0,0.5,18,70.99
74,E-4,13.5,0.75,20,70.99
75,E-5,13.5,1.0,20,70.99
76,E-3,13.5,1.0,16,70.99
77,G3,13.5,1.0,16,70.99
78,G4,14.25,0.25,20,70.99
79,B-4,14.5,0.25,23,70.99
80,E-2,14.5,0.5,23,70.99
81,G5,14.75,0.25,23,70.99
82,F5,15.0,0.5,40,70.99
83,G#5,15.0,1.0,24,70.99
84,G#4,15.0,1.0,24,70.99
85,E-3,15.0,1.0,19,70.99
86,C4,15.0,1.0,19,70.99
87,C5,15.5,0.5,30,70.99
88,D5,16.0,0.5,26,70.99
89,F4,16.0,0.5,26,70.99
90,F5,16.0,0.5,26,70.99
91,E-3,16.0,0.5,19,70.99
92,G#3,16.0,0.5,19,70.99
93,G4,16.5,1.0,29,70.99
94,G5,16.5,1.0,29,70.99
95,B-4,16.5,1.0,29,70.99
96,E-3,16.5,1.0,21,70.99
97,B-3,16.5,1.0,21,70.99
98,E-5,17.25,0.25,23,70.99
99,G5,17.5,0.25,34,70.99
100,E-2,17.5,0.5,23,70.99
101,B-4,17.5,0.5,24,70.99
102,B-5,17.5,0.5,24,70.99
103,E-5,17.75,0.25,35,70.99
104,F5,18.0,0.5,40,70.99
105,G#5,18.0,1.0,24,70.99
106,G#4,18.0,1.0,24,70.99
107,E-3,18.0,1.0,19,70.99
108,C4,18.0,1.0,19,70.99
109,C5,18.5,0.5,33,70.99
110,D5,19.0,0.5,26,70.99
111,F4,19.0,0.5,26,70.99
112,F5,19.0,0.5,26,70.99
113,E-3,19.0,0.5,19,70.99
114,G#3,19.0,0.5,19,70.99
115,E-5,19.5,0.5,40,70.99
116,G4,19.5,1.0,23,70.99
117,G5,19.5,1.0,23,70.99
118,E-3,19.5,1.0,19,70.99
119,B-3,19.5,1.0,19,70.99
120,B-4,20.0,0.5,36,70.99
121,E-5,20.5,0.5,32,70.99
122,C5,20.5,0.5,32,70.99
123,G4,20.5,0.5,32,70.99
124,E-2,20.5,0.5,29,70.99
125,E-3,20.5,0.5,29,70.99
126,F5,21.0,1.0,39,70.99
127,D5,21.0,1.0,39,70.99
128,F4,21.0,1.0,39,70.99
129,B-3,21.0,0.5,28,70.99
130,B-2,21.0,0.5,28,70.99
131,A3,21.5,0.5,32,70.99
132,A2,21.5,0.5,32,70.99
133,B-5,22.0,1.0,48,70.99
134,D5,22.0,1.0,48,70.99
135,B-4,22.0,1.0,48,70.99
136,G3,22.0,0.5,36,70.99
137,G2,22.0,0.5,36,70.99
138,F3,22.5,1.0,36,70.99
139,F2,22.5,1.0,36,70.99
140,D5,23.0,0.5,46,70.99
141,B-4,23.0,0.5,46,70.99
142,B-4,23.5,0.5,45,70.99
143,F5,23.5,0.5,45,70.99
144,A5,23.5,0.5,45,70.99
145,E-3,23.5,0.25,39,70.99
146,E-2,23.5,0.25,39,70.99
147,D2,23.75,0.25,40,70.99
148,D3,23.75,0.25,40,70.99
149,B-4,24.0,0.5,44,70.99
150,E-5,24.0,0.5,44,70.99
151,G5,24.0,0.5,44,70.99
152,F3,24.0,1.0,38,70.99
153,F2,24.0,1.0,38,70.99
154,F5,24.5,0.5,38,70.99
155,D5,24.5,0.5,38,70.99
156,A4,24.5,0.5,38,70.99
157,E-5,25.0,0.25,30,70.99
158,C5,25.0,0.25,30,70.99
159,G4,25.0,0.25,30,70.99
160,B-2,25.0,0.5,21,70.99
161,B-1,25.0,0.5,21,70.99
162,F4,25.25,0.156,27,70.99
163,B-4,25.25,0.156,27,70.99
164,D5,25.25,0.156,27,70.99
165,E-4,25.406,0.594,20,70.99
166,G#4,25.438,1.062,24,70.99
167,C5,25.469,0.5,30,70.99
168,F5,25.469,0.5,30,70.99
169,B-2,25.5,1.0,24,70.99
170,B-1,25.5,1.0,24,70.99
171,B-4,26.0,0.5,30,70.99
172,D4,26.0,0.5,30,70.99
173,C5,26.5,0.25,27,70.99
174,E-4,26.5,0.25,27,70.99
175,C4,26.5,0.25,27,70.99
176,G#3,26.5,0.375,21,70.99
177,B-2,26.5,0.375,21,70.99
178,B-4,26.75,0.25,27,70.99
179,F4,26.75,0.25,27,70.99
180,D4,26.75,0.25,27,70.99
181,E-2,26.875,0.125,19,70.99
182,G3,27.0,1.0,19,70.99
183,E-2,27.0,1.0,19,70.99
184,E-4,27.0,1.0,32,70.99
185,E-5,27.0,1.0,32,70.99
186,D5,27.5,0.5,34,70.99
187,E-4,28.0,0.5,26,70.99
188,E-5,28.0,0.5,26,70.99
189,C5,28.0,0.5,26,70.99
190,E-3,28.0,0.5,19,70.99
191,G3,28.0,0.5,19,70.99
192,E-4,28.5,1.0,29,70.99
193,E-5,28.5,1.0,29,70.99
194,B-4,28.5,1.0,29,70.99
195,E-3,28.5,1.0,21,70.99
196,G3,28.5,1.0,21,70.99
197,G#4,29.5,0.25,33,70.99
198,E-2,29.5,0.5,23,70.99
199,E-4,29.5,0.5,23,70.99
200,E-5,29.5,0.5,23,70.99
201,G4,29.75,0.25,31,70.99
202,E-5,30.0,1.0,28,70.99
203,F4,30.0,0.5,36,70.99
204,E-3,30.0,1.0,23,70.99
205,G3,30.0,1.0,23,70.99
206,E-4,30.5,0.5,32,70.99
207,E-5,31.0,0.5,30,70.99
208,G4,31.0,0.5,30,70.99
209,E-3,31.0,0.5,20,70.99
210,G3,31.0,0.5,20,70.99
211,E-4,31.5,1.0,25,70.99
212,E-5,31.5,1.0,25,70.99
213,B-4,31.5,1.0,25,70.99
214,E-3,31.5,1.0,18,70.99
215,G3,31.5,1.0,18,70.99
216,C5,32.5,0.25,33,70.99
217,C2,32.5,0.5,23,70.99
218,E-4,32.5,0.5,23,70.99
219,E-5,32.5,0.5,23,70.99
220,D5,32.75,0.25,31,70.99
221,E-4,33.0,1.0,32,70.99
222,E-5,33.0,1.0,32,70.99
223,C3,33.0,1.0,18,70.99
224,G3,33.0,1.0,18,70.99
225,D5,33.5,0.5,33,70.99
226,E-4,34.0,0.5,26,70.99
227,E-5,34.0,0.5,26,70.99
228,C5,34.0,0.5,26,70.99
229,C3,34.0,0.5,18,70.99
230,G3,34.0,0.5,18,70.99
231,E-4,34.5,1.0,29,70.99
232,E-5,34.5,1.0,29,70.99
233,B-4,34.5,1.0,29,70.99
234,C3,34.5,1.0,19,70.99
235,G3,34.5,1.0,19,70.99
236,A4,35.5,0.25,33,70.99
237,F2,35.5,0.5,23,70.99
238,E-4,35.5,0.5,23,70.99
239,E-5,35.5,0.5,23,70.99
240,G4,35.75,0.25,31,70.99
241,A4,36.0,0.5,36,70.99
242,F4,36.0,1.0,26,70.99
243,E-5,36.0,1.0,26,70.99
244,F3,36.0,1.0,23,70.99
245,C4,36.0,1.0,23,70.99
246,B-4,36.5,0.5,32,70.99
247,F4,37.0,0.5,26,70.99
248,E-5,37.0,0.5,26,70.99
249,C5,37.0,0.5,26,70.99
250,F3,37.0,0.5,20,70.99
251,A3,37.0,0.5,20,70.99
252,F5,37.5,1.0,26,70.99
253,E-5,37.5,0.75,31,70.99
254,B-4,37.5,0.75,31,70.99
255,F4,37.5,0.75,31,70.99
256,B-2,37.5,1.0,20,70.99
257,B-3,37.5,1.0,20,70.99
258,D5,38.25,0.25,35,70.99
259,B-5,38.5,0.5,38,70.99
260,C5,38.5,0.25,29,70.99
261,D4,38.5,0.375,17,70.99
262,B-3,38.5,0.375,17,70.99
263,G#4,38.5,0.375,17,70.99
264,B-4,38.75,0.25,23,70.99
265,E-3,38.875,0.125,19,70.99
266,B-3,38.938,0.062,19,70.99
267,G4,39.0,0.875,19,70.99
268,E-3,39.0,0.875,19,70.99
269,B-3,39.0,0.875,19,70.99
270,E-5,39.0,1.0,32,70.99
271,E-6,39.0,1.0,32,70.99
272,D6,39.5,0.5,36,70.99
273,E-3,39.875,1.125,19,70.99
274,B-3,39.938,1.062,19,70.99
275,E-6,40.0,1.0,23,70.99
276,G4,40.0,1.0,19,70.99
277,E-5,40.0,0.5,28,70.99
278,C6,40.0,0.5,28,70.99
279,D5,40.5,0.5,37,70.99
280,B-5,40.5,0.5,37,70.99
281,E-5,41.0,1.0,23,70.99
282,C5,41.0,0.5,33,70.99
283,G#5,41.0,0.5,33,70.99
284,E-3,41.0,1.0,18,70.99
285,B-3,41.0,1.0,18,70.99
286,B-4,41.5,0.5,28,70.99
287,G5,41.5,0.5,28,70.99
288,G#4,42.0,0.5,27,70.99
289,E-5,42.0,0.5,27,70.99
290,F5,42.0,0.5,27,70.99
291,E-3,42.0,1.0,18,70.99
292,B-3,42.0,1.0,18,70.99
293,G4,42.5,0.25,24,70.99
294,E-5,42.5,0.5,29,70.99
295,F4,42.75,0.25,20,70.99
296,E-4,43.0,0.25,19,70.99
297,C5,43.0,0.5,27,70.99
298,E-3,43.0,1.0,18,70.99
299,G3,43.0,1.0,18,70.99
300,G4,43.25,0.25,22,70.99
301,B-4,43.556,1.0,32,70.99
302,G2,44.0,1.0,17,70.99
303,E-3,44.0,1.0,17,70.99
304,G3,44.0,1.0,17,70.99
305,E-4,44.5,0.5,23,70.99
306,C5,44.5,0.25,33,70.99
307,D5,44.75,0.25,31,70.99
308,E-4,45.0,1.0,32,70.99
309,E-5,45.0,1.0,32,70.99
310,A2,45.0,1.0,18,70.99
311,E-3,45.0,1.0,18,70.99
312,G3,45.0,1.0,18,70.99
313,D5,45.5,0.5,35,70.99
314,E-4,46.0,0.5,26,70.99
315,E-5,46.0,0.5,26,70.99
316,C5,46.0,0.5,26,70.99
317,B-2,46.0,1.0,18,70.99
318,E-3,46.0,1.0,18,70.99
319,G3,46.0,1.0,18,70.99
320,B-4,46.5,1.0,37,70.99
321,E-4,47.0,1.0,23,70.99
322,E-5,47.0,1.0,23,70.99
323,C3,47.0,1.0,20,70.99
324,E-3,47.0,1.0,20,70.99
325,G3,47.0,1.0,20,70.99
326,G#4,47.5,0.25,33,70.99
327,G4,47.75,0.25,31,70.99
328,E-5,48.0,1.0,28,70.99
329,B-4,48.0,0.5,36,70.99
330,B-2,48.0,1.0,23,70.99
331,G3,48.0,1.0,23,70.99
332,E-4,48.5,0.5,32,70.99
333,G4,48.875,0.125,25,70.99
334,D5,49.0,0.5,26,70.99
335,F4,49.0,0.5,26,70.99
336,B-2,49.0,0.5,18,70.99
337,G#3,49.0,0.5,18,70.99
338,E-4,49.5,1.0,20,70.99
339,E-5,49.5,1.0,20,70.99
340,E-3,49.5,1.0,16,70.99
341,G3,49.5,1.0,16,70.99
342,E5,50.5,0.25,30,70.99
343,E4,50.5,0.25,30,70.99
344,E2,50.5,0.25,21,70.99
345,E3,50.5,0.25,21,70.99
346,F#5,50.75,0.25,33,70.99
347,F#4,50.75,0.25,33,70.99
348,F#2,50.75,0.25,23,70.99
349,F#3,50.75,0.25,23,70.99
350,G#4,51.0,0.5,37,70.99
351,G#5,51.0,0.5,37,70.99
352,G#2,51.0,0.5,26,70.99
353,G#3,51.0,0.5,26,70.99
354,F#5,51.5,0.5,32,70.99
355,F#4,51.5,0.5,32,70.99
356,F#2,51.5,0.5,22,70.99
357,F#3,51.5,0.5,22,70.99
358,E5,52.0,0.5,23,70.99
359,E4,52.0,0.5,23,70.99
360,E2,52.0,0.5,16,70.99
361,E3,52.0,0.5,16,70.99
362,E-5,52.5,1.0,23,70.99
363,E-4,52.5,1.0,23,70.99
364,E-2,52.5,1.0,16,70.99
365,E-3,52.5,1.0,16,70.99
366,E-4,53.5,0.5,24,70.99
367,C#4,53.5,0.5,24,70.99
368,E-3,53.5,0.5,24,70.99
369,C#2,53.5,0.25,21,70.99
370,C#3,53.5,0.25,21,70.99
371,B1,53.75,0.25,23,70.99
372,B2,53.75,0.25,23,70.99
373,E-3,54.0,1.0,29,70.99
374,B3,54.0,1.0,29,70.99
375,E-4,54.0,1.0,29,70.99
376,B-1,54.0,0.5,26,70.99
377,B-2,54.0,0.5,26,70.99
378,G#1,54.5,0.5,22,70.99
379,G#2,54.5,0.5,22,70.99
380,E-4,55.0,0.5,20,70.99
381,G#3,55.0,0.5,20,70.99
382,E-3,55.0,0.5,20,70.99
383,B1,55.0,0.5,18,70.99
384,B2,55.0,0.5,18,70.99
385,E-2,55.5,1.0,17,70.99
386,E-4,55.5,1.0,21,70.99
387,E-3,55.5,1.0,21,70.99
388,E5,56.5,0.25,30,70.99
389,E4,56.5,0.25,30,70.99
390,E-3,56.5,0.5,21,70.99
391,C#4,56.5,0.5,21,70.99
392,F#5,56.75,0.25,33,70.99
393,F#4,56.75,0.25,33,70.99
394,G#4,57.0,0.5,37,70.99
395,G#5,57.0,0.5,37,70.99
396,E-3,57.0,1.0,26,70.99
397,B3,57.0,1.0,26,70.99
398,F#4,57.5,0.5,33,70.99
399,F#5,57.5,0.5,33,70.99
400,E5,58.0,0.5,23,70.99
401,E4,58.0,0.5,23,70.99
402,E-3,58.0,0.5,16,70.99
403,G#3,58.0,0.5,16,70.99
404,E-5,58.5,1.0,23,70.99
405,E-4,58.5,1.0,23,70.99
406,E-3,58.5,1.0,16,70.99
407,E-4,58.5,1.0,16,70.99
408,E5,59.5,0.25,30,70.99
409,E4,59.5,0.25,30,70.99
410,C#2,59.5,0.5,21,70.99
411,C#3,59.5,0.5,21,70.99
412,E-5,59.75,0.25,32,70.99
413,F#5,59.75,0.25,32,70.99
414,F#4,59.75,0.25,32,70.99
415,E5,60.0,0.5,36,70.99
416,G#4,60.0,0.5,36,70.99
417,G#5,60.0,0.5,36,70.99
418,B-1,60.0,1.0,26,70.99
419,B-2,60.0,1.0,26,70.99
420,E-5,60.5,0.5,31,70.99
421,F#5,60.5,0.5,31,70.99
422,F#4,60.5,0.5,31,70.99
423,C#5,61.0,0.5,22,70.99
424,E5,61.0,0.5,22,70.99
425,E4,61.0,0.5,22,70.99
426,G1,61.0,1.0,16,70.99
427,G2,61.0,1.0,16,70.99
428,E-5,61.5,0.5,18,70.99
429,E-4,61.5,0.5,18,70.99
430,B4,61.5,0.5,18,70.99
431,B-4,62.0,0.5,16,70.99
432,C#5,62.0,0.5,16,70.99
433,C#4,62.0,0.5,16,70.99
434,G#1,62.0,1.0,12,70.99
435,G#2,62.0,1.0,12,70.99
436,B3,62.5,0.5,14,70.99
437,B4,62.5,0.5,14,70.99
438,G#4,62.5,0.5,14,70.99
439,B-1,63.0,0.25,16,70.99
440,B-2,63.25,0.25,16,70.99
441,F#4,63.5,1.0,23,70.99
442,B-4,63.5,0.5,27,70.99
443,E-3,63.5,0.25,15,70.99
444,F#3,63.75,0.25,16,70.99
445,B-3,64.0,0.25,17,70.99
446,G#4,64.5,1.0,26,70.99
447,B4,64.5,0.5,31,70.99
448,B-1,64.5,0.25,19,70.99
449,B-2,64.75,0.25,19,70.99
450,B3,65.0,0.25,18,70.99
451,F3,65.0,0.25,17,70.99
452,G#3,65.25,0.25,17,70.99
453,F4,65.5,0.5,26,70.99
454,G#4,65.5,0.5,26,70.99
455,G#3,66.0,0.25,16,70.99
456,B-1,66.0,0.25,16,70.99
457,B-2,66.25,0.25,16,70.99
458,F5,66.5,0.5,23,70.99
459,G#5,66.5,1.0,27,70.99
460,D3,66.5,0.25,15,70.99
461,F3,66.75,0.25,16,70.99
462,G#4,67.0,0.25,17,70.99
463,F#5,67.5,0.5,26,70.99
464,B-5,67.5,1.0,31,70.99
465,B-1,67.5,0.25,19,70.99
466,B-2,67.75,0.25,19,70.99
467,B-4,68.0,0.25,18,70.99
468,E-3,68.0,0.25,17,70.99
469,F#3,68.25,0.25,17,70.99
470,E-5,68.5,0.5,26,70.99
471,F#5,68.5,0.5,26,70.99
472,F#4,69.0,0.25,18,70.99
473,B-1,69.0,0.25,18,70.99
474,B-2,69.25,0.25,16,70.99
475,E-4,69.5,1.0,21,70.99
476,F#4,69.5,0.5,26,70.99
477,B2,69.5,0.25,14,70.99
478,E-3,69.75,0.25,14,70.99
479,F#3,70.0,0.25,15,70.99
480,B3,70.5,1.0,21,70.99
481,G#1,70.5,0.25,16,70.99
482,E-4,70.5,0.5,24,70.99
483,F4,70.5,0.5,24,70.99
484,G#2,70.75,0.25,16,70.99
485,F3,71.0,0.25,16,70.99
486,B2,71.0,0.25,15,70.99
487,E-3,71.25,0.25,15,70.99
488,B3,71.5,0.5,23,70.99
489,E-4,71.5,0.5,23,70.99
490,F4,71.5,0.5,23,70.99
491,G#1,72.0,0.25,18,70.99
492,G#2,72.25,0.25,18,70.99
493,F5,72.5,1.0,29,70.99
494,B-2,72.5,0.25,16,70.99
495,B-4,72.5,0.5,24,70.99
496,C#5,72.5,0.5,24,70.99
497,C#3,72.75,0.25,16,70.99
498,F4,73.0,0.25,17,70.99
499,E-5,73.5,1.0,29,70.99
500,F#1,73.5,0.25,18,70.99
501,B-4,73.5,0.5,24,70.99
502,C#5,73.5,0.5,24,70.99
503,F#2,73.75,0.25,18,70.99
504,E-4,74.0,0.25,18,70.99
505,B-2,74.0,0.25,17,70.99
506,C#3,74.25,0.25,17,70.99
507,B-4,74.5,0.5,26,70.99
508,C#5,74.5,0.5,26,70.99
509,E-5,74.5,0.5,26,70.99
510,F#1,75.0,0.25,14,70.99
511,F#2,75.25,0.25,14,70.99
512,E4,75.5,1.0,25,70.99
513,B-2,75.5,0.25,13,70.99
514,B-3,75.5,0.5,20,70.99
515,C4,75.5,0.5,20,70.99
516,C3,75.75,0.25,14,70.99
517,E3,76.0,0.5,15,70.99
518,F4,76.5,1.0,29,70.99
519,F1,76.5,0.25,18,70.99
520,B-3,76.5,0.5,24,70.99
521,C4,76.5,0.5,24,70.99
522,F2,76.75,0.25,17,70.99
523,F3,77.0,0.5,16,70.99
524,B-2,77.0,0.25,15,70.99
525,C3,77.25,0.25,15,70.99
526,B-3,77.5,0.5,22,70.99
527,C4,77.5,0.5,22,70.99
528,F4,78.0,1.5,22,70.99
529,A4,78.0,1.5,22,70.99
530,F5,78.0,1.5,22,70.99
531,E-5,78.0,1.5,22,70.99
532,F2,78.0,1.5,18,70.99
533,A2,78.0,1.5,18,70.99
534,F3,78.0,1.5,18,70.99
535,E-3,78.0,1.5,18,70.99
536,C#5,78.5,0.5,21,70.99
537,C#3,78.5,0.5,17,70.99
538,C5,79.0,0.5,21,70.99
539,C3,79.0,0.5,17,70.99
540,E-5,79.5,1.0,21,70.99
541,E-3,79.5,1.0,17,70.99
542,F4,79.5,1.5,22,70.99
543,B-4,79.5,1.5,22,70.99
544,F5,79.5,1.5,22,70.99
545,F2,79.5,1.5,18,70.99
546,B-2,79.5,1.5,18,70.99
547,F3,79.5,1.5,18,70.99
548,C#5,80.5,0.5,19,70.99
549,C#3,80.5,0.5,16,70.99
550,F#1,81.0,0.25,32,70.99
551,F#2,81.25,0.25,20,70.99
552,E4,81.5,1.0,40,70.99
553,B-2,81.5,0.25,19,70.99
554,B-3,81.5,0.5,31,70.99
555,C4,81.5,0.5,31,70.99
556,C3,81.75,0.25,20,70.99
557,E3,82.0,0.5,23,70.99
558,B-3,82.5,0.5,36,70.99
559,C1,82.5,0.25,38,70.99
560,E-4,82.5,1.0,41,70.99
561,F#4,82.5,1.0,41,70.99
562,C2,82.75,0.25,27,70.99
563,F#3,83.0,0.5,24,70.99
564,E-2,83.0,0.25,23,70.99
565,B-2,83.25,0.25,23,70.99
566,F#3,83.5,0.5,34,70.99
567,E-3,83.5,0.5,34,70.99
568,C4,83.5,0.5,34,70.99
569,F4,84.0,1.5,22,70.99
570,A4,84.0,1.5,22,70.99
571,F5,84.0,1.5,22,70.99
572,E-5,84.0,1.5,22,70.99
573,F2,84.0,1.5,18,70.99
574,A2,84.0,1.5,18,70.99
575,F3,84.0,1.5,18,70.99
576,E-3,84.0,1.5,18,70.99
577,C#5,84.5,0.5,21,70.99
578,C#3,84.5,0.5,17,70.99
579,C5,85.0,0.5,21,70.99
580,C3,85.0,0.5,17,70.99
581,G#4,85.5,0.5,20,70.99
582,G#5,85.5,0.5,20,70.99
583,B-4,85.5,1.5,18,70.99
584,D5,85.5,1.5,18,70.99
585,G#2,85.5,0.5,16,70.99
586,G#3,85.5,0.5,16,70.99
587,B-2,85.5,1.5,15,70.99
588,D3,85.5,1.5,15,70.99
589,F#4,86.0,0.5,16,70.99
590,F#5,86.0,0.5,16,70.99
591,F#2,86.0,0.5,12,70.99
592,F#3,86.0,0.5,12,70.99
593,F4,86.5,0.5,14,70.99
594,F5,86.5,0.5,14,70.99
595,F2,86.5,0.5,12,70.99
596,F3,86.5,0.5,12,70.99
597,E-2,87.0,0.25,18,70.99
598,B-2,87.25,0.25,18,70.99
599,F#4,87.5,1.0,26,70.99
600,B-4,87.5,0.5,31,70.99
601,E-3,87.5,0.25,17,70.99
602,F#3,87.75,0.25,18,70.99
603,B-3,88.0,0.25,19,70.99
604,G#4,88.5,1.0,29,70.99
605,B4,88.5,0.5,35,70.99
606,G#1,88.5,0.25,21,70.99
607,G#2,88.75,0.25,21,70.99
608,B3,89.0,0.25,20,70.99
609,B2,89.0,0.25,19,70.99
610,E3,89.25,0.25,19,70.99
611,E4,89.5,0.5,29,70.99
612,G#4,89.5,0.5,29,70.99
613,G#3,90.0,0.25,18,70.99
614,B-1,90.0,0.25,18,70.99
615,B-2,90.25,0.25,18,70.99
616,B-4,90.5,0.5,26,70.99
617,C#3,90.5,0.25,17,70.99
618,C#5,90.5,1.0,28,70.99
619,E5,90.5,1.0,28,70.99
620,G#5,90.5,1.0,28,70.99
621,E3,90.75,0.25,18,70.99
622,G#4,91.0,0.25,19,70.99
623,C#5,91.5,0.5,29,70.99
624,E-2,91.5,0.25,21,70.99
625,G5,91.5,1.0,32,70.99
626,B-5,91.5,1.0,32,70.99
627,B-2,91.75,0.25,21,70.99
628,B-4,92.0,0.25,20,70.99
629,E-3,92.0,0.25,19,70.99
630,G3,92.25,0.25,19,70.99
631,C#4,92.5,0.5,28,70.99
632,B-4,92.5,0.5,28,70.99
633,C#5,92.5,0.5,28,70.99
634,G#1,93.0,0.25,20,70.99
635,E-2,93.25,0.25,18,70.99
636,C4,93.5,0.5,24,70.99
637,G#2,93.5,0.25,16,70.99
638,E-4,93.5,1.0,26,70.99
639,F#4,93.5,1.0,26,70.99
640,C3,93.75,0.25,16,70.99
641,F#3,94.0,0.25,17,70.99
642,B3,94.5,0.5,24,70.99
643,G#1,94.5,0.25,18,70.99
644,E-4,94.5,1.0,26,70.99
645,F#4,94.5,1.0,26,70.99
646,E-2,94.75,0.25,18,70.99
647,F#3,95.0,0.25,18,70.99
648,G#2,95.0,0.25,17,70.99
649,B2,95.25,0.25,17,70.99
650,B3,95.5,0.5,26,70.99
651,E-4,95.5,0.5,26,70.99
652,E4,95.5,0.5,26,70.99
653,B-1,96.0,0.25,20,70.99
654,B-2,96.25,0.25,20,70.99
655,B-4,96.5,0.5,27,70.99
656,C#3,96.5,0.25,18,70.99
657,E5,96.5,1.0,29,70.99
658,C#5,96.5,1.0,29,70.99
659,G#5,96.5,1.0,29,70.99
660,E3,96.75,0.25,18,70.99
661,G#4,97.0,0.25,19,70.99
662,B-4,97.5,0.5,27,70.99
663,G1,97.5,0.25,20,70.99
664,C#5,97.5,1.0,30,70.99
665,E5,97.5,1.0,30,70.99
666,G2,97.75,0.25,20,70.99
667,E4,98.0,0.25,20,70.99
668,B-2,98.0,0.25,19,70.99
669,E-3,98.25,0.25,19,70.99
670,B-4,98.5,0.5,29,70.99
671,C#5,98.5,0.5,29,70.99
672,E-5,98.5,0.5,29,70.99
673,G#1,99.0,0.25,16,70.99
674,E-2,99.25,0.25,16,70.99
675,B3,99.5,0.5,23,70.99
676,D4,99.5,1.0,28,70.99
677,G#2,99.5,0.25,14,70.99
678,B2,99.75,0.25,16,70.99
679,F3,100.0,0.5,17,70.99
680,B-3,100.5,0.5,27,70.99
681,E-4,100.5,1.0,33,70.99
682,F#1,100.5,0.25,20,70.99
683,E-2,100.75,0.25,19,70.99
684,E-3,101.0,0.5,18,70.99
685,F#2,101.0,0.25,17,70.99
686,B-2,101.25,0.25,17,70.99
687,F#3,101.5,0.5,26,70.99
688,B-3,101.5,0.5,26,70.99
689,B-3,102.0,1.5,22,70.99
690,D4,102.0,1.5,22,70.99
691,B-4,102.0,1.5,22,70.99
692,G#4,102.0,1.5,22,70.99
693,B-2,102.0,1.5,18,70.99
694,G#3,102.0,1.5,18,70.99
695,D3,102.0,1.5,18,70.99
696,F#4,102.5,0.5,21,70.99
697,F#3,102.5,0.5,17,70.99
698,F4,103.0,0.5,21,70.99
699,F3,103.0,0.5,17,70.99
700,G#4,103.5,1.0,21,70.99
701,G#3,103.5,1.0,17,70.99
702,B-3,103.5,1.5,22,70.99
703,E-4,103.5,1.5,22,70.99
704,B-4,103.5,1.5,22,70.99
705,B-2,103.5,1.5,19,70.99
706,E-3,103.5,1.5,19,70.99
707,F#4,104.5,0.5,19,70.99
708,F#3,104.5,0.5,16,70.99
709,G#1,105.0,0.25,27,70.99
710,G#2,105.25,0.25,18,70.99
711,G#4,105.5,0.5,27,70.99
712,B2,105.5,0.25,17,70.99
713,B4,105.5,1.0,30,70.99
714,E5,105.5,1.0,30,70.99
715,E3,105.75,0.25,18,70.99
716,E4,106.0,0.5,19,70.99
717,F#4,106.5,0.5,29,70.99
718,B-1,106.5,0.25,26,70.99
719,B-4,106.5,1.0,32,70.99
720,E-5,106.5,1.0,32,70.99
721,F#2,106.75,0.25,21,70.99
722,E-4,107.0,0.5,19,70.99
723,B-2,107.0,0.25,18,70.99
724,E-3,107.25,0.25,17,70.99
725,F#4,107.5,0.5,26,70.99
726,B-4,107.5,0.5,26,70.99
727,G#2,108.0,1.0,17,70.99
728,B-2,108.0,1.5,21,70.99
729,D3,108.0,1.5,22,70.99
730,B-3,108.0,1.5,22,70.99
731,G#3,108.0,1.5,22,70.99
732,F#2,109.0,1.0,17,70.99
733,B-2,109.5,1.5,17,70.99
734,D3,109.5,1.5,22,70.99
735,G#3,109.5,1.5,22,70.99
736,B-3,109.5,1.5,22,70.99
737,F2,110.0,1.0,17,70.99
738,C#4,111.0,1.0,17,70.99
739,C#3,111.0,1.0,14,70.99
740,E-2,111.0,1.5,17,70.99
741,E-3,111.0,1.5,22,70.99
742,G3,111.0,1.5,22,70.99
743,E-4,111.0,1.5,22,70.99
744,B3,112.0,1.0,16,70.99
745,B2,112.0,1.0,13,70.99
746,E-2,112.5,1.5,15,70.99
747,E-4,112.5,1.5,20,70.99
748,G3,112.5,1.5,20,70.99
749,E-3,112.5,1.5,20,70.99
750,B-3,113.0,0.312,15,70.99
751,B-2,113.0,0.312,12,70.99
752,E-2,113.875,0.125,17,70.99
753,B-2,113.938,0.062,17,70.99
754,G3,114.0,1.0,17,70.99
755,E-2,114.0,1.0,17,70.99
756,B-2,114.0,1.0,17,70.99
757,G4,114.0,1.0,28,70.99
758,E-4,114.0,1.0,28,70.99
759,E-5,114.0,1.0,28,70.99
760,D4,114.5,0.5,28,70.99
761,D5,114.5,0.5,28,70.99
762,E-6,115.0,0.5,25,70.99
763,G5,115.0,0.5,25,70.99
764,C4,115.0,0.5,25,70.99
765,E-4,115.0,0.5,25,70.99
766,E-5,115.0,0.5,25,70.99
767,C5,115.0,0.5,25,70.99
768,E-6,115.5,1.0,27,70.99
769,G5,115.5,1.0,27,70.99
770,B-3,115.5,1.0,27,70.99
771,E-4,115.5,1.0,27,70.99
772,E-5,115.5,1.0,27,70.99
773,B-4,115.5,1.0,27,70.99
774,G#3,116.5,0.25,26,70.99
775,E-4,116.5,0.25,26,70.99
776,G#4,116.5,0.25,26,70.99
777,B-2,116.5,0.5,23,70.99
778,E-2,116.5,0.5,23,70.99
779,G3,116.75,0.25,26,70.99
780,G4,116.75,0.25,26,70.99
781,G3,117.0,1.0,28,70.99
782,F4,117.0,0.5,36,70.99
783,E-2,117.0,0.5,23,70.99
784,B-2,117.0,0.5,23,70.99
785,F3,117.0,0.5,23,70.99
786,E-4,117.5,0.5,32,70.99
787,E-3,117.5,0.5,23,70.99
788,E-6,118.0,0.5,32,70.99
789,G5,118.0,0.5,32,70.99
790,G3,118.0,0.5,32,70.99
791,E-4,118.0,0.5,32,70.99
792,E-5,118.0,0.5,32,70.99
793,G4,118.0,0.5,32,70.99
794,E-6,118.5,1.0,29,70.99
795,G5,118.5,1.0,29,70.99
796,B-3,118.5,1.0,29,70.99
797,E-4,118.5,1.0,29,70.99
798,E-5,118.5,1.0,29,70.99
799,B-4,118.5,1.0,29,70.99
800,C4,119.5,0.25,38,70.99
801,C5,119.5,0.25,38,70.99
802,G2,119.5,0.5,24,70.99
803,E-3,119.5,0.5,24,70.99
804,D4,119.75,0.25,36,70.99
805,D5,119.75,0.25,36,70.99
806,B-4,120.0,0.5,35,70.99
807,E-4,120.0,0.5,35,70.99
808,E-5,120.0,0.5,35,70.99
809,G2,120.0,1.0,20,70.99
810,E-3,120.0,1.0,20,70.99
811,D4,120.5,0.5,31,70.99
812,D5,120.5,0.5,31,70.99
813,E-6,121.0,0.5,30,70.99
814,G5,121.0,0.5,30,70.99
815,C4,121.0,0.5,30,70.99
816,E-4,121.0,0.5,30,70.99
817,E-5,121.0,0.5,30,70.99
818,C5,121.0,0.5,30,70.99
819,E-6,121.5,1.0,33,70.99
820,G5,121.5,1.0,33,70.99
821,B-3,121.5,1.0,33,70.99
822,E-4,121.5,1.0,33,70.99
823,E-5,121.5,1.0,33,70.99
824,B-4,121.5,1.0,33,70.99
825,G#3,122.5,0.25,30,70.99
826,E-4,122.5,0.25,30,70.99
827,G#4,122.5,0.25,30,70.99
828,B-1,122.5,0.5,24,70.99
829,B-2,122.5,0.5,24,70.99
830,G3,122.75,0.25,30,70.99
831,G4,122.75,0.25,30,70.99
832,B-3,123.0,1.0,32,70.99
833,B-4,123.0,0.5,41,70.99
834,E-3,123.0,1.0,26,70.99
835,B-2,123.0,1.0,26,70.99
836,G3,123.0,1.0,26,70.99
837,E-4,123.5,0.5,36,70.99
838,G4,123.875,0.125,28,70.99
839,G#3,124.0,0.5,28,70.99
840,D4,124.0,0.5,28,70.99
841,F4,124.0,0.5,28,70.99
842,B-1,124.0,0.5,20,70.99
843,B-2,124.0,0.5,20,70.99
844,E-4,124.5,0.75,23,70.99
845,G3,124.5,1.0,23,70.99
846,E-2,124.5,1.0,18,70.99
847,B-2,124.5,1.0,18,70.99
848,G4,125.25,0.25,23,70.99
849,G4,125.5,0.5,23,70.99
850,B-4,125.5,0.25,26,70.99
851,E-2,125.5,0.5,26,70.99
852,G5,125.75,0.25,26,70.99
853,F5,126.0,0.5,46,70.99
854,G#5,126.0,1.0,28,70.99
855,G#4,126.0,1.0,28,70.99
856,E-3,126.0,1.0,21,70.99
857,C4,126.0,1.0,21,70.99
858,C5,126.5,0.5,37,70.99
859,D5,127.0,0.5,30,70.99
860,F4,127.0,0.5,30,70.99
861,F5,127.0,0.5,30,70.99
862,E-3,127.0,0.5,21,70.99
863,G#3,127.0,0.5,21,70.99
864,G4,127.5,1.0,33,70.99
865,G5,127.5,1.0,33,70.99
866,B-4,127.5,1.0,33,70.99
867,E-3,127.5,1.0,24,70.99
868,B-3,127.5,1.0,24,70.99
869,E-5,128.25,0.25,26,70.99
870,G5,128.5,0.25,39,70.99
871,E-2,128.5,0.5,26,70.99
872,B-4,128.5,0.5,28,70.99
873,B-5,128.5,0.5,28,70.99
874,E-5,128.75,0.25,37,70.99
875,F5,129.0,0.25,46,70.99
876,G#5,129.0,1.0,28,70.99
877,G#4,129.0,1.0,28,70.99
878,E-3,129.0,1.0,21,70.99
879,C4,129.0,1.0,21,70.99
880,E-5,129.25,0.25,37,70.99
881,F5,129.5,0.25,41,70.99
882,C5,129.75,0.25,34,70.99
883,E-5,130.0,0.25,37,70.99
884,F4,130.0,0.5,26,70.99
885,F5,130.0,0.5,26,70.99
886,E-3,130.0,0.5,21,70.99
887,G#3,130.0,0.5,21,70.99
888,D5,130.25,0.25,33,70.99
889,E-5,130.5,0.25,46,70.99
890,G4,130.5,1.0,26,70.99
891,G5,130.5,1.0,26,70.99
892,E-3,130.5,1.0,21,70.99
893,B-3,130.5,1.0,21,70.99
894,D5,130.75,0.25,41,70.99
895,E-5,131.0,0.25,41,70.99
896,B-4,131.25,0.25,36,70.99
897,C5,131.5,0.25,47,70.99
898,E-5,131.5,0.5,33,70.99
899,G4,131.5,0.5,33,70.99
900,E-2,131.5,0.5,35,70.99
901,E-3,131.5,0.5,35,70.99
902,B-4,131.75,0.25,43,70.99
903,D5,132.0,0.25,49,70.99
904,F5,132.0,1.0,39,70.99
905,F4,132.0,1.0,39,70.99
906,B-3,132.0,0.5,30,70.99
907,B-2,132.0,0.5,30,70.99
908,C5,132.25,0.25,44,70.99
909,D5,132.5,0.25,50,70.99
910,A3,132.5,0.5,34,70.99
911,A2,132.5,0.5,34,70.99
912,B-4,132.75,0.25,43,70.99
913,C5,133.0,0.25,48,70.99
914,E-5,133.0,0.5,52,70.99
915,E-4,133.0,0.5,52,70.99
916,B-2,133.0,0.5,36,70.99
917,G3,133.0,0.5,36,70.99
918,G2,133.0,0.5,36,70.99
919,B-4,133.25,0.25,46,70.99
920,D5,133.5,0.25,57,70.99
921,F4,133.5,1.0,49,70.99
922,F5,133.5,1.0,49,70.99
923,B-2,133.5,1.0,46,70.99
924,F3,133.5,1.0,46,70.99
925,F2,133.5,1.0,46,70.99
926,C5,133.75,0.25,55,70.99
927,D5,134.0,0.25,61,70.99
928,B-4,134.25,0.25,55,70.99
929,A4,134.5,0.25,53,70.99
930,A5,134.5,0.5,62,70.99
931,F5,134.5,0.5,62,70.99
932,E-3,134.5,0.25,43,70.99
933,E-2,134.5,0.25,43,70.99
934,B-4,134.75,0.25,46,70.99
935,D2,134.75,0.25,44,70.99
936,D3,134.75,0.25,44,70.99
937,B-4,135.0,0.25,51,70.99
938,E-5,135.0,0.5,56,70.99
939,G5,135.0,0.5,56,70.99
940,F3,135.0,1.0,47,70.99
941,F2,135.0,1.0,47,70.99
942,G4,135.25,0.25,49,70.99
943,A4,135.5,0.25,46,70.99
944,F5,135.5,0.5,50,70.99
945,D5,135.5,0.5,50,70.99
946,G4,135.75,0.25,38,70.99
947,C5,136.0,0.25,40,70.99
948,G4,136.0,0.25,40,70.99
949,E-5,136.0,0.25,40,70.99
950,B-2,136.0,0.5,28,70.99
951,B-1,136.0,0.5,28,70.99
952,B-4,136.25,0.25,34,70.99
953,F4,136.25,0.25,34,70.99
954,D5,136.25,0.25,34,70.99
955,G#4,136.5,1.0,29,70.99
956,E-4,136.5,0.25,25,70.99
957,C5,136.5,0.5,42,70.99
958,B-2,136.5,1.0,30,70.99
959,B-1,136.5,1.0,30,70.99
960,C4,136.75,0.25,33,70.99
961,D4,137.0,0.25,32,70.99
962,G4,137.0,0.5,35,70.99
963,B-4,137.0,0.5,35,70.99
964,B-3,137.25,0.25,27,70.99
965,B-4,137.5,0.5,33,70.99
966,B-2,137.5,0.375,20,70.99
967,E-4,137.5,0.25,29,70.99
968,G#4,137.5,0.25,29,70.99
969,C4,137.5,0.25,29,70.99
970,G#3,137.75,0.125,24,70.99
971,D4,137.75,0.25,27,70.99
972,F4,137.75,0.25,27,70.99
973,E-2,137.875,0.125,20,70.99
974,G3,138.0,1.0,19,70.99
975,E-2,138.0,1.0,20,70.99
976,E-4,138.0,1.0,32,70.99
977,E-5,138.0,1.0,32,70.99
978,D5,138.5,0.5,36,70.99
979,E-4,139.0,0.5,26,70.99
980,E-5,139.0,0.5,26,70.99
981,C5,139.0,0.5,26,70.99
982,E-3,139.0,0.5,19,70.99
983,G3,139.0,0.5,19,70.99
984,E-4,139.5,1.0,29,70.99
985,E-5,139.5,1.0,29,70.99
986,B-4,139.5,1.0,29,70.99
987,E-3,139.5,1.0,21,70.99
988,G3,139.5,1.0,21,70.99
989,G#4,140.5,0.25,33,70.99
990,E-2,140.5,0.5,23,70.99
991,E-4,140.5,0.5,23,70.99
992,E-5,140.5,0.5,23,70.99
993,G4,140.75,0.25,31,70.99
994,E-5,141.0,1.0,28,70.99
995,F4,141.0,0.5,36,70.99
996,E-3,141.0,1.0,23,70.99
997,G3,141.0,1.0,23,70.99
998,E-4,141.5,0.5,32,70.99
999,E-5,142.0,0.5,30,70.99
1000,G4,142.0,0.5,30,70.99
1001,E-3,142.0,0.5,20,70.99
1002,G3,142.0,0.5,20,70.99
1003,E-4,142.5,1.0,25,70.99
1004,E-5,142.5,1.0,25,70.99
1005,B-4,142.5,1.0,25,70.99
1006,E-3,142.5,1.0,18,70.99
1007,G3,142.5,1.0,18,70.99
1008,C5,143.5,0.25,33,70.99
1009,C2,143.5,0.5,23,70.99
1010,E-4,143.5,0.5,23,70.99
1011,E-5,143.5,0.5,23,70.99
1012,D5,143.75,0.25,31,70.99
1013,E-4,144.0,1.0,32,70.99
1014,E-5,144.0,1.0,32,70.99
1015,C3,144.0,1.0,18,70.99
1016,G3,144.0,1.0,18,70.99
1017,D5,144.5,0.5,36,70.99
1018,E-4,145.0,0.5,26,70.99
1019,E-5,145.0,0.5,26,70.99
1020,C5,145.0,0.5,26,70.99
1021,C3,145.0,0.5,18,70.99
1022,G3,145.0,0.5,18,70.99
1023,E-4,145.5,1.0,29,70.99
1024,E-5,145.5,1.0,29,70.99
1025,B-4,145.5,1.0,29,70.99
1026,C3,145.5,1.0,19,70.99
1027,G3,145.5,1.0,19,70.99
1028,A4,146.5,0.25,33,70.99
1029,D2,146.5,0.5,23,70.99
1030,E-4,146.5,0.5,23,70.99
1031,E-5,146.5,0.5,23,70.99
1032,G4,146.75,0.25,31,70.99
1033,A4,147.0,0.5,36,70.99
1034,E-4,147.0,1.0,24,70.99
1035,E-5,147.0,1.0,24,70.99
1036,D3,147.0,1.0,22,70.99
1037,F#3,147.0,1.0,22,70.99
1038,C4,147.0,1.0,22,70.99
1039,B-4,147.5,0.5,32,70.99
1040,D4,148.0,0.5,26,70.99
1041,D5,148.0,0.5,26,70.99
1042,C5,148.0,0.5,26,70.99
1043,D3,148.0,0.5,20,70.99
1044,F#3,148.0,0.5,20,70.99
1045,A3,148.0,0.5,20,70.99
1046,D5,148.5,1.0,26,70.99
1047,B-4,148.5,0.75,26,70.99
1048,D4,148.5,0.75,26,70.99
1049,B-2,148.5,1.0,20,70.99
1050,B-3,148.5,1.0,20,70.99
1051,D5,149.25,0.25,24,70.99
1052,B-5,149.5,0.5,41,70.99
1053,C5,149.5,0.25,23,70.99
1054,D4,149.5,0.375,17,70.99
1055,B-3,149.5,0.375,17,70.99
1056,G#4,149.5,0.375,17,70.99
1057,B-4,149.75,0.25,32,70.99
1058,E-3,149.875,0.125,19,70.99
1059,B-3,149.938,0.062,19,70.99
1060,E-5,150.0,1.0,23,70.99
1061,E-6,150.0,0.75,44,70.99
1062,G4,150.0,0.875,19,70.99
1063,E-3,150.0,0.875,19,70.99
1064,B-3,150.0,0.875,19,70.99
1065,D6,150.75,0.25,39,70.99
1066,E-3,150.875,0.5,19,70.99
1067,B-3,150.938,0.438,19,70.99
1068,E-6,151.0,0.25,31,70.99
1069,E-5,151.0,0.75,31,70.99
1070,G4,151.0,0.375,19,70.99
1071,C6,151.25,0.25,36,70.99
1072,E-3,151.375,1.125,19,70.99
1073,B-3,151.438,1.062,19,70.99
1074,E-6,151.5,0.25,34,70.99
1075,G4,151.5,1.0,19,70.99
1076,D5,151.75,0.25,34,70.99
1077,B-5,151.75,0.5,44,70.99
1078,E-5,152.0,0.25,23,70.99
1079,C5,152.25,0.25,30,70.99
1080,G#5,152.25,0.5,39,70.99
1081,E-5,152.5,0.25,26,70.99
1082,E-3,152.5,0.5,18,70.99
1083,B-3,152.5,0.5,18,70.99
1084,B-4,152.75,0.25,26,70.99
1085,G5,152.75,0.25,37,70.99
1086,F5,153.0,0.25,36,70.99
1087,B-4,153.0,0.25,26,70.99
1088,E-3,153.0,0.875,18,70.99
1089,B-3,153.0,0.875,18,70.99
1090,G#4,153.25,0.5,24,70.99
1091,D5,153.25,0.25,36,70.99
1092,E-5,153.5,0.25,37,70.99
1093,G4,153.75,0.25,34,70.99
1094,G5,153.75,0.25,34,70.99
1095,E-3,153.875,0.5,16,70.99
1096,G#3,153.938,0.438,19,70.99
1097,B-5,154.0,1.25,39,70.99
1098,F4,154.0,0.25,26,70.99
1099,D4,154.25,0.25,30,70.99
1100,E-3,154.375,1.125,16,70.99
1101,G3,154.438,1.062,19,70.99
1102,E-4,154.5,0.25,28,70.99
1103,G4,154.75,0.25,33,70.99
1104,B-4,155.0,0.5,44,70.99
1105,C5,155.25,0.25,47,70.99
1106,D5,155.5,0.25,49,70.99
1107,G2,155.5,0.5,25,70.99
1108,E-3,155.5,0.5,26,70.99
1109,G3,155.5,0.5,26,70.99
1110,F5,155.75,0.25,46,70.99
1111,A2,156.0,1.0,20,70.99
1112,E-4,156.0,1.0,40,70.99
1113,E-5,156.0,1.0,40,70.99
1114,E-3,156.0,1.0,26,70.99
1115,G3,156.0,1.0,26,70.99
1116,D5,156.5,0.5,42,70.99
1117,E-4,157.0,0.5,29,70.99
1118,E-5,157.0,0.5,29,70.99
1119,C5,157.0,0.5,29,70.99
1120,B-2,157.0,1.0,20,70.99
1121,E-3,157.0,1.0,20,70.99
1122,G3,157.0,1.0,20,70.99
1123,B-4,157.5,1.0,38,70.99
1124,E-4,158.0,1.0,23,70.99
1125,E-5,158.0,1.0,23,70.99
1126,C3,158.0,1.0,20,70.99
1127,E-3,158.0,1.0,20,70.99
1128,G3,158.0,1.0,20,70.99
1129,G#4,158.5,0.25,33,70.99
1130,G4,158.75,0.25,31,70.99
1131,E-5,159.0,1.0,28,70.99
1132,B-4,159.0,0.5,36,70.99
1133,B-2,159.0,1.0,23,70.99
1134,G3,159.0,1.0,23,70.99
1135,E-4,159.5,0.5,32,70.99
1136,G4,160.0,0.25,25,70.99
1137,D5,160.0,1.375,21,70.99
1138,B-2,160.0,1.375,18,70.99
1139,G#3,160.0,1.375,18,70.99
1140,F4,160.25,1.125,32,70.99
1141,G#2,161.375,0.625,22,70.99
1142,E-3,161.438,0.562,22,70.99
1143,C5,161.5,0.5,31,70.99
1144,C4,161.5,0.5,27,70.99
1145,E-4,161.5,0.5,35,70.99
1146,E-5,161.5,0.5,35,70.99
1147,B-4,162.0,1.0,21,70.99
1148,G#2,162.0,1.0,22,70.99
1149,E-3,162.0,1.0,22,70.99
1150,C4,162.0,1.0,27,70.99
1151,E-4,162.0,1.0,35,70.99
1152,E-5,162.0,1.0,35,70.99
1153,A4,163.0,0.5,21,70.99
1154,E-4,163.0,1.5,23,70.99
1155,E-5,163.0,1.5,23,70.99
1156,C3,163.0,1.5,16,70.99
1157,E-3,163.0,1.5,16,70.99
1158,G#4,163.5,1.0,17,70.99
1159,E-5,164.5,0.5,17,70.99
1160,E-4,164.5,0.5,18,70.99
1161,G4,164.5,0.5,18,70.99
1162,B-2,164.5,0.5,14,70.99
1163,G3,164.5,0.5,14,70.99
1164,B-4,165.0,0.5,21,70.99
1165,E-5,165.0,1.0,17,70.99
1166,B-2,165.0,1.0,14,70.99
1167,G3,165.0,1.0,14,70.99
1168,E-4,165.5,0.5,21,70.99
1169,D5,166.0,2.0,17,70.99
1170,G4,166.0,0.25,19,70.99
1171,B-2,166.0,2.0,14,70.99
1172,G#3,166.0,2.0,14,70.99
1173,F4,166.25,1.5,18,70.99
1174,E-4,167.75,0.25,17,70.99
1175,E-4,168.0,1.0,22,70.99
1176,E-5,168.0,1.0,22,70.99
1177,E-3,168.0,1.0,15,70.99
1178,G3,168.0,1.0,15,70.99
1179,B-2,169.5,1.0,14,70.99
1180,G3,169.5,1.0,14,70.99
1181,B-3,169.5,1.0,14,70.99
1182,E-1,169.5,1.0,11,70.99
1183,E-2,169.5,1.0,11,70.99
1184,G4,171.0,1.5,23,70.99
1185,E-5,171.0,1.5,23,70.99
1186,G5,171.0,1.5,23,70.99
1187,E-3,171.0,1.5,12,70.99
1188,G3,171.0,1.5,12,70.99
1189,E-4,171.0,1.5,12,70.99
