,note_name,start_time,duration,velocity,tempo
0,C#3,0.0,0.5,127,80.0
1,C#2,0.0,3.0,127,80.0
2,F#2,0.0,167/1000,127,80.0
3,B1,0.0,167/1000,127,80.0
4,C#4,0.0,3.0,127,80.0
5,G#3,0.0,3.0,127,80.0
6,F#2,0.167,167/1000,127,80.0
7,F#2,0.333,167/1000,127,80.0
8,C#4,0.5,0.5,127,80.0
9,C#4,0.5,0.5,127,80.0
10,F#2,0.5,0.25,127,80.0
11,C#5,0.5,0.5,127,80.0
12,C#4,0.5,0.5,127,80.0
13,F#2,0.75,0.25,127,80.0
14,E4,1.0,0.5,127,80.0
15,E4,1.0,0.5,127,80.0
16,B-2,1.0,0.5,127,80.0
17,E5,1.0,0.5,127,80.0
18,E4,1.0,0.5,127,80.0
19,G4,1.5,0.5,127,80.0
20,G4,1.5,0.5,127,80.0
21,F#2,1.5,0.5,127,80.0
22,G5,1.5,0.5,127,80.0
23,G4,1.5,0.5,127,80.0
24,E-5,2.0,0.5,127,80.0
25,E-5,2.0,0.5,127,80.0
26,F#2,2.0,0.5,127,80.0
27,E-6,2.0,0.5,127,80.0
28,E-5,2.0,0.5,127,80.0
29,B-4,2.5,0.5,127,80.0
30,B-4,2.5,0.5,127,80.0
31,F#2,2.5,0.5,127,80.0
32,B-5,2.5,0.5,127,80.0
33,B-4,2.5,0.5,127,80.0
34,C5,3.0,3.0,127,80.0
35,C5,3.0,3.0,127,80.0
36,C3,3.0,3.0,127,80.0
37,F#2,3.0,0.5,127,80.0
38,C6,3.0,3.0,127,80.0
39,C5,3.0,3.0,127,80.0
40,E-4,3.0,0.125,127,80.0
41,G#3,3.0,0.125,127,80.0
42,E-4,3.125,0.125,127,80.0
43,G#3,3.125,0.125,127,80.0
44,E-4,3.25,0.125,127,80.0
45,G#3,3.25,0.125,127,80.0
46,E-4,3.375,0.125,127,80.0
47,G#3,3.375,0.125,127,80.0
48,F#2,3.5,0.5,127,80.0
49,E-4,3.5,0.125,127,80.0
50,G#3,3.5,0.125,127,80.0
51,E-4,3.625,0.125,127,80.0
52,G#3,3.625,0.125,127,80.0
53,E-4,3.75,0.125,127,80.0
54,G#3,3.75,0.125,127,80.0
55,E-4,3.875,0.125,127,80.0
56,G#3,3.875,0.125,127,80.0
57,F#2,4.0,0.5,127,80.0
58,E-4,4.0,0.125,127,80.0
59,G#3,4.0,0.125,127,80.0
60,E-4,4.125,0.125,127,80.0
61,G#3,4.125,0.125,127,80.0
62,E-4,4.25,0.125,127,80.0
63,G#3,4.25,0.125,127,80.0
64,E-4,4.375,0.125,127,80.0
65,G#3,4.375,0.125,127,80.0
66,F#2,4.5,0.5,127,80.0
67,C#5,4.5,167/1000,127,80.0
68,E-4,4.5,0.125,127,80.0
69,G#3,4.5,0.125,127,80.0
70,E-4,4.625,0.125,127,80.0
71,G#3,4.625,0.125,127,80.0
72,E5,4.667,167/1000,127,80.0
73,E-4,4.75,0.125,127,80.0
74,G#3,4.75,0.125,127,80.0
75,F#5,4.833,167/1000,127,80.0
76,E-4,4.875,0.125,127,80.0
77,G#3,4.875,0.125,127,80.0
78,C#6,5.0,0.25,127,80.0
79,F#2,5.0,0.5,127,80.0
80,B1,5.0,0.5,127,80.0
81,E-4,5.0,0.125,127,80.0
82,G#3,5.0,0.125,127,80.0
83,E-4,5.125,0.125,127,80.0
84,G#3,5.125,0.125,127,80.0
85,F#5,5.25,0.25,127,80.0
86,E-4,5.25,0.125,127,80.0
87,G#3,5.25,0.125,127,80.0
88,E-4,5.375,0.125,127,80.0
89,G#3,5.375,0.125,127,80.0
90,B-2,5.5,0.25,127,80.0
91,A5,5.5,0.25,127,80.0
92,E-4,5.5,0.125,127,80.0
93,G#3,5.5,0.125,127,80.0
94,E-4,5.625,0.125,127,80.0
95,G#3,5.625,0.125,127,80.0
96,G#2,5.75,0.25,127,80.0
97,E5,5.75,0.25,127,80.0
98,E-4,5.75,0.125,127,80.0
99,G#3,5.75,0.125,127,80.0
100,E-4,5.875,31/250,127,80.0
101,G#3,5.875,31/250,127,80.0
102,C#3,6.0,0.5,127,80.0
103,C#2,6.0,3.0,127,80.0
104,C#5,6.0,2.0,127,80.0
105,F#2,6.0,0.5,127,80.0
106,B1,6.0,0.5,127,80.0
107,C#4,6.0,3.0,127,80.0
108,G#3,6.0,3.0,127,80.0
109,C#4,6.5,0.5,127,80.0
110,C#4,6.5,0.5,127,80.0
111,F#2,6.5,167/1000,127,80.0
112,C#5,6.5,0.5,127,80.0
113,C#4,6.5,0.5,127,80.0
114,F#2,6.667,167/1000,127,80.0
115,F#2,6.833,167/1000,127,80.0
116,E4,7.0,0.5,127,80.0
117,E4,7.0,0.5,127,80.0
118,B-2,7.0,0.5,127,80.0
119,E5,7.0,0.5,127,80.0
120,E4,7.0,0.5,127,80.0
121,G4,7.5,0.5,127,80.0
122,G4,7.5,0.5,127,80.0
123,F#2,7.5,0.5,127,80.0
124,G5,7.5,0.5,127,80.0
125,G4,7.5,0.5,127,80.0
126,E-5,8.0,0.5,127,80.0
127,E-5,8.0,0.5,127,80.0
128,F#2,8.0,0.5,127,80.0
129,E-6,8.0,0.5,127,80.0
130,E-5,8.0,0.5,127,80.0
131,B-4,8.5,0.5,127,80.0
132,B-4,8.5,0.5,127,80.0
133,F#2,8.5,0.5,127,80.0
134,B-5,8.5,0.5,127,80.0
135,B-4,8.5,0.5,127,80.0
136,C5,9.0,3.0,127,80.0
137,C5,9.0,3.0,127,80.0
138,C3,9.0,3.0,127,80.0
139,F#2,9.0,0.5,127,80.0
140,C6,9.0,3.0,127,80.0
141,C5,9.0,3.0,127,80.0
142,E-4,9.0,0.125,127,80.0
143,G#3,9.0,0.125,127,80.0
144,E-4,9.125,0.125,127,80.0
145,G#3,9.125,0.125,127,80.0
146,E-4,9.25,0.125,127,80.0
147,G#3,9.25,0.125,127,80.0
148,E-4,9.375,0.125,127,80.0
149,G#3,9.375,0.125,127,80.0
150,F#2,9.5,0.5,127,80.0
151,E-4,9.5,0.125,127,80.0
152,G#3,9.5,0.125,127,80.0
153,E-4,9.625,0.125,127,80.0
154,G#3,9.625,0.125,127,80.0
155,E-4,9.75,0.125,127,80.0
156,G#3,9.75,0.125,127,80.0
157,E-4,9.875,0.125,127,80.0
158,G#3,9.875,0.125,127,80.0
159,F#2,10.0,0.5,127,80.0
160,E-4,10.0,0.125,127,80.0
161,G#3,10.0,0.125,127,80.0
162,E-4,10.125,0.125,127,80.0
163,G#3,10.125,0.125,127,80.0
164,E-4,10.25,0.125,127,80.0
165,G#3,10.25,0.125,127,80.0
166,E-4,10.375,0.125,127,80.0
167,G#3,10.375,0.125,127,80.0
168,B-2,10.5,0.5,127,80.0
169,C#5,10.5,167/1000,127,80.0
170,E-4,10.5,0.125,127,80.0
171,G#3,10.5,0.125,127,80.0
172,E-4,10.625,0.125,127,80.0
173,G#3,10.625,0.125,127,80.0
174,E5,10.667,167/1000,127,80.0
175,E-4,10.75,0.125,127,80.0
176,G#3,10.75,0.125,127,80.0
177,F#5,10.833,167/1000,127,80.0
178,E-4,10.875,0.125,127,80.0
179,G#3,10.875,0.125,127,80.0
180,C#6,11.0,0.25,127,80.0
181,B-2,11.0,0.25,127,80.0
182,B1,11.0,0.25,127,80.0
183,E-4,11.0,0.125,127,80.0
184,G#3,11.0,0.125,127,80.0
185,E-4,11.125,0.125,127,80.0
186,G#3,11.125,0.125,127,80.0
187,G#2,11.25,0.25,127,80.0
188,F#5,11.25,0.25,127,80.0
189,E-4,11.25,0.125,127,80.0
190,G#3,11.25,0.125,127,80.0
191,E-4,11.375,0.125,127,80.0
192,G#3,11.375,0.125,127,80.0
193,F#2,11.5,0.25,127,80.0
194,A5,11.5,0.25,127,80.0
195,E-4,11.5,0.125,127,80.0
196,G#3,11.5,0.125,127,80.0
197,E-4,11.625,0.125,127,80.0
198,G#3,11.625,0.125,127,80.0
199,B-2,11.75,0.25,127,80.0
200,E5,11.75,0.25,127,80.0
201,E-4,11.75,0.125,127,80.0
202,G#3,11.75,0.125,127,80.0
203,E-4,11.875,31/250,127,80.0
204,G#3,11.875,31/250,127,80.0
205,C3,12.0,0.5,127,80.0
206,C2,12.0,3.0,127,80.0
207,C5,12.0,2.0,127,80.0
208,G#2,12.0,0.5,127,80.0
209,B1,12.0,0.5,127,80.0
210,C4,12.0,3.0,127,80.0
211,G3,12.0,3.0,127,80.0
212,C4,12.5,0.5,127,80.0
213,C4,12.5,0.5,127,80.0
214,F#2,12.5,0.5,127,80.0
215,C5,12.5,0.5,127,80.0
216,C4,12.5,0.5,127,80.0
217,E-4,13.0,0.5,127,80.0
218,E-4,13.0,0.5,127,80.0
219,F#2,13.0,0.5,127,80.0
220,E-5,13.0,0.5,127,80.0
221,E-4,13.0,0.5,127,80.0
222,B-4,13.5,0.5,127,80.0
223,B-4,13.5,0.5,127,80.0
224,F#2,13.5,0.5,127,80.0
225,B-5,13.5,0.5,127,80.0
226,B-4,13.5,0.5,127,80.0
227,F5,14.0,0.5,127,80.0
228,F5,14.0,0.5,127,80.0
229,F#2,14.0,0.5,127,80.0
230,F6,14.0,0.5,127,80.0
231,F5,14.0,0.5,127,80.0
232,F#4,14.5,0.5,127,80.0
233,F#4,14.5,0.5,127,80.0
234,F#2,14.5,167/1000,127,80.0
235,F#5,14.5,0.5,127,80.0
236,F#4,14.5,0.5,127,80.0
237,F#2,14.667,167/1000,127,80.0
238,B-2,14.833,167/1000,127,80.0
239,D5,15.0,3.0,127,80.0
240,D5,15.0,3.0,127,80.0
241,C3,15.0,3.0,127,80.0
242,G#2,15.0,0.5,127,80.0
243,D6,15.0,3.0,127,80.0
244,D5,15.0,3.0,127,80.0
245,D4,15.0,0.125,127,80.0
246,G3,15.0,0.125,127,80.0
247,D4,15.125,0.125,127,80.0
248,G3,15.125,0.125,127,80.0
249,D4,15.25,0.125,127,80.0
250,G3,15.25,0.125,127,80.0
251,D4,15.375,0.125,127,80.0
252,G3,15.375,0.125,127,80.0
253,F#2,15.5,0.25,127,80.0
254,D4,15.5,0.125,127,80.0
255,G3,15.5,0.125,127,80.0
256,D4,15.625,0.125,127,80.0
257,G3,15.625,0.125,127,80.0
258,F#2,15.75,583/1000,127,80.0
259,D4,15.75,0.125,127,80.0
260,G3,15.75,0.125,127,80.0
261,D4,15.875,0.125,127,80.0
262,G3,15.875,0.125,127,80.0
263,C5,16.0,167/1000,127,80.0
264,D4,16.0,0.125,127,80.0
265,G3,16.0,0.125,127,80.0
266,D4,16.125,0.125,127,80.0
267,G3,16.125,0.125,127,80.0
268,E-5,16.167,167/1000,127,80.0
269,D4,16.25,0.125,127,80.0
270,G3,16.25,0.125,127,80.0
271,F#2,16.333,333/1000,127,80.0
272,F5,16.333,167/1000,127,80.0
273,D4,16.375,0.125,127,80.0
274,G3,16.375,0.125,127,80.0
275,C6,16.5,167/1000,127,80.0
276,D4,16.5,0.125,127,80.0
277,G3,16.5,0.125,127,80.0
278,D4,16.625,0.125,127,80.0
279,G3,16.625,0.125,127,80.0
280,F#2,16.667,167/1000,127,80.0
281,E-6,16.667,167/1000,127,80.0
282,D4,16.75,0.125,127,80.0
283,G3,16.75,0.125,127,80.0
284,B-2,16.833,167/1000,127,80.0
285,F6,16.833,167/1000,127,80.0
286,D4,16.875,0.125,127,80.0
287,G3,16.875,0.125,127,80.0
288,E-6,17.0,0.25,127,80.0
289,G#2,17.0,0.5,127,80.0
290,B1,17.0,0.5,127,80.0
291,D4,17.0,0.125,127,80.0
292,G3,17.0,0.125,127,80.0
293,D4,17.125,0.125,127,80.0
294,G3,17.125,0.125,127,80.0
295,C6,17.25,0.25,127,80.0
296,D4,17.25,0.125,127,80.0
297,G3,17.25,0.125,127,80.0
298,D4,17.375,0.125,127,80.0
299,G3,17.375,0.125,127,80.0
300,F#2,17.5,0.25,127,80.0
301,F5,17.5,0.25,127,80.0
302,D4,17.5,0.125,127,80.0
303,G3,17.5,0.125,127,80.0
304,D4,17.625,0.125,127,80.0
305,G3,17.625,0.125,127,80.0
306,F#2,17.75,0.25,127,80.0
307,E-5,17.75,0.25,127,80.0
308,D4,17.75,0.125,127,80.0
309,G3,17.75,0.125,127,80.0
310,D4,17.875,31/250,127,80.0
311,G3,17.875,31/250,127,80.0
312,C3,18.0,0.5,127,80.0
313,C2,18.0,3.0,127,80.0
314,C5,18.0,2.0,127,80.0
315,F#2,18.0,0.5,127,80.0
316,B1,18.0,0.5,127,80.0
317,C4,18.0,3.0,127,80.0
318,G3,18.0,3.0,127,80.0
319,C4,18.5,0.5,127,80.0
320,C4,18.5,0.5,127,80.0
321,F#2,18.5,0.5,127,80.0
322,C5,18.5,0.5,127,80.0
323,C4,18.5,0.5,127,80.0
324,E-4,19.0,0.5,127,80.0
325,E-4,19.0,0.5,127,80.0
326,B-2,19.0,0.5,127,80.0
327,E-5,19.0,0.5,127,80.0
328,E-4,19.0,0.5,127,80.0
329,B-4,19.5,0.5,127,80.0
330,B-4,19.5,0.5,127,80.0
331,F#2,19.5,0.5,127,80.0
332,B-5,19.5,0.5,127,80.0
333,B-4,19.5,0.5,127,80.0
334,F5,20.0,0.5,127,80.0
335,F5,20.0,0.5,127,80.0
336,F#2,20.0,0.5,127,80.0
337,F6,20.0,0.5,127,80.0
338,F5,20.0,0.5,127,80.0
339,F#4,20.5,0.5,127,80.0
340,F#4,20.5,0.5,127,80.0
341,F#2,20.5,0.5,127,80.0
342,F#5,20.5,0.5,127,80.0
343,F#4,20.5,0.5,127,80.0
344,D5,21.0,3.0,127,80.0
345,D5,21.0,3.0,127,80.0
346,C3,21.0,3.0,127,80.0
347,F#2,21.0,0.5,127,80.0
348,D6,21.0,3.0,127,80.0
349,D5,21.0,3.0,127,80.0
350,D4,21.0,0.125,127,80.0
351,G3,21.0,0.125,127,80.0
352,D4,21.125,0.125,127,80.0
353,G3,21.125,0.125,127,80.0
354,D4,21.25,0.125,127,80.0
355,G3,21.25,0.125,127,80.0
356,D4,21.375,0.125,127,80.0
357,G3,21.375,0.125,127,80.0
358,F#2,21.5,0.5,127,80.0
359,D4,21.5,0.125,127,80.0
360,G3,21.5,0.125,127,80.0
361,D4,21.625,0.125,127,80.0
362,G3,21.625,0.125,127,80.0
363,D4,21.75,0.125,127,80.0
364,G3,21.75,0.125,127,80.0
365,D4,21.875,0.125,127,80.0
366,G3,21.875,0.125,127,80.0
367,F#2,22.0,0.5,127,80.0
368,C5,22.0,167/1000,127,80.0
369,D4,22.0,0.125,127,80.0
370,G3,22.0,0.125,127,80.0
371,D4,22.125,0.125,127,80.0
372,G3,22.125,0.125,127,80.0
373,E-5,22.167,167/1000,127,80.0
374,D4,22.25,0.125,127,80.0
375,G3,22.25,0.125,127,80.0
376,F5,22.333,167/1000,127,80.0
377,D4,22.375,0.125,127,80.0
378,G3,22.375,0.125,127,80.0
379,F#2,22.5,167/1000,127,80.0
380,C6,22.5,0.25,127,80.0
381,D4,22.5,0.125,127,80.0
382,G3,22.5,0.125,127,80.0
383,D4,22.625,0.125,127,80.0
384,G3,22.625,0.125,127,80.0
385,B-2,22.667,167/1000,127,80.0
386,E-6,22.75,0.25,127,80.0
387,D4,22.75,0.125,127,80.0
388,G3,22.75,0.125,127,80.0
389,G#2,22.833,167/1000,127,80.0
390,D4,22.875,0.125,127,80.0
391,G3,22.875,0.125,127,80.0
392,B1,23.0,0.25,127,80.0
393,F6,23.0,0.25,127,80.0
394,D4,23.0,0.125,127,80.0
395,G3,23.0,0.125,127,80.0
396,D4,23.125,0.125,127,80.0
397,G3,23.125,0.125,127,80.0
398,F#2,23.25,0.25,127,80.0
399,E-6,23.25,0.25,127,80.0
400,D4,23.25,0.125,127,80.0
401,G3,23.25,0.125,127,80.0
402,D4,23.375,0.125,127,80.0
403,G3,23.375,0.125,127,80.0
404,F#2,23.5,167/1000,127,80.0
405,C6,23.5,0.25,127,80.0
406,D4,23.5,0.125,127,80.0
407,G3,23.5,0.125,127,80.0
408,D4,23.625,0.125,127,80.0
409,G3,23.625,0.125,127,80.0
410,F#2,23.667,167/1000,127,80.0
411,F5,23.75,0.25,127,80.0
412,D4,23.75,0.125,127,80.0
413,G3,23.75,0.125,127,80.0
414,B-2,23.833,167/1000,127,80.0
415,D4,23.875,31/250,127,80.0
416,G3,23.875,31/250,127,80.0
417,B2,24.0,0.5,127,80.0
418,B1,24.0,3.0,127,80.0
419,B4,24.0,2.0,127,80.0
420,G#2,24.0,0.5,127,80.0
421,B1,24.0,0.5,127,80.0
422,B3,24.0,3.0,127,80.0
423,F#3,24.0,3.0,127,80.0
424,B3,24.5,0.5,127,80.0
425,B3,24.5,0.5,127,80.0
426,F#2,24.5,0.5,127,80.0
427,B4,24.5,0.5,127,80.0
428,B3,24.5,0.5,127,80.0
429,D4,25.0,0.5,127,80.0
430,D4,25.0,0.5,127,80.0
431,F#2,25.0,0.5,127,80.0
432,D5,25.0,0.5,127,80.0
433,D4,25.0,0.5,127,80.0
434,F#5,25.5,0.5,127,80.0
435,F#5,25.5,1.0,127,80.0
436,F#2,25.5,0.5,127,80.0
437,F#6,25.5,0.5,127,80.0
438,F#5,25.5,0.5,127,80.0
439,G4,26.0,0.5,127,80.0
440,G4,26.0,0.5,127,80.0
441,F#2,26.0,0.5,127,80.0
442,G5,26.0,0.5,127,80.0
443,G4,26.0,0.5,127,80.0
444,D5,26.5,0.5,127,80.0
445,D5,26.5,0.5,127,80.0
446,F#2,26.5,167/1000,127,80.0
447,D6,26.5,0.5,127,80.0
448,D5,26.5,0.5,127,80.0
449,F#2,26.667,167/1000,127,80.0
450,F#2,26.833,167/1000,127,80.0
451,C#5,27.0,3.0,127,80.0
452,C#5,27.0,3.0,127,80.0
453,B2,27.0,3.0,127,80.0
454,B-2,27.0,0.5,127,80.0
455,C#6,27.0,3.0,127,80.0
456,C#5,27.0,3.0,127,80.0
457,C#4,27.0,0.125,127,80.0
458,F#3,27.0,0.125,127,80.0
459,C#4,27.125,0.125,127,80.0
460,F#3,27.125,0.125,127,80.0
461,C#4,27.25,0.125,127,80.0
462,F#3,27.25,0.125,127,80.0
463,C#4,27.375,0.125,127,80.0
464,F#3,27.375,0.125,127,80.0
465,F#2,27.5,0.5,127,80.0
466,C#4,27.5,0.125,127,80.0
467,F#3,27.5,0.125,127,80.0
468,C#4,27.625,0.125,127,80.0
469,F#3,27.625,0.125,127,80.0
470,C#4,27.75,0.125,127,80.0
471,F#3,27.75,0.125,127,80.0
472,C#4,27.875,0.125,127,80.0
473,F#3,27.875,0.125,127,80.0
474,F#2,28.0,0.5,127,80.0
475,B4,28.0,167/1000,127,80.0
476,C#4,28.0,0.125,127,80.0
477,F#3,28.0,0.125,127,80.0
478,C#4,28.125,0.125,127,80.0
479,F#3,28.125,0.125,127,80.0
480,F5,28.167,167/1000,127,80.0
481,C#4,28.25,0.125,127,80.0
482,F#3,28.25,0.125,127,80.0
483,B5,28.333,167/1000,127,80.0
484,C#4,28.375,0.125,127,80.0
485,F#3,28.375,0.125,127,80.0
486,F#2,28.5,0.25,127,80.0
487,F6,28.5,0.25,127,80.0
488,C#4,28.5,0.125,127,80.0
489,F#3,28.5,0.125,127,80.0
490,C#4,28.625,0.125,127,80.0
491,F#3,28.625,0.125,127,80.0
492,F#2,28.75,0.25,127,80.0
493,C#6,28.75,0.25,127,80.0
494,C#4,28.75,0.125,127,80.0
495,F#3,28.75,0.125,127,80.0
496,C#4,28.875,0.125,127,80.0
497,F#3,28.875,0.125,127,80.0
498,F#2,29.0,167/1000,127,80.0
499,B5,29.0,0.25,127,80.0
500,C#4,29.0,0.125,127,80.0
501,F#3,29.0,0.125,127,80.0
502,C#4,29.125,0.125,127,80.0
503,F#3,29.125,0.125,127,80.0
504,B-2,29.167,167/1000,127,80.0
505,F5,29.25,0.25,127,80.0
506,C#4,29.25,0.125,127,80.0
507,F#3,29.25,0.125,127,80.0
508,G#2,29.333,167/1000,127,80.0
509,C#4,29.375,0.125,127,80.0
510,F#3,29.375,0.125,127,80.0
511,F#2,29.5,167/1000,127,80.0
512,F6,29.5,0.25,127,80.0
513,C#4,29.5,0.125,127,80.0
514,F#3,29.5,0.125,127,80.0
515,C#4,29.625,0.125,127,80.0
516,F#3,29.625,0.125,127,80.0
517,F#2,29.667,167/1000,127,80.0
518,B5,29.75,0.25,127,80.0
519,C#4,29.75,0.125,127,80.0
520,F#3,29.75,0.125,127,80.0
521,F#2,29.833,167/1000,127,80.0
522,C#4,29.875,31/250,127,80.0
523,F#3,29.875,31/250,127,80.0
524,B2,30.0,0.5,127,80.0
525,B1,30.0,3.0,127,80.0
526,B1,30.0,0.5,127,80.0
527,B4,30.0,2.0,127,80.0
528,B3,30.0,3.0,127,80.0
529,F#3,30.0,3.0,127,80.0
530,B3,30.5,0.5,127,80.0
531,B3,30.5,0.5,127,80.0
532,B-2,30.5,0.5,127,80.0
533,B4,30.5,0.5,127,80.0
534,B3,30.5,0.5,127,80.0
535,D4,31.0,0.5,127,80.0
536,D4,31.0,0.5,127,80.0
537,F#2,31.0,0.5,127,80.0
538,D5,31.0,0.5,127,80.0
539,D4,31.0,0.5,127,80.0
540,F#5,31.5,0.5,127,80.0
541,F#5,31.5,1.0,127,80.0
542,F#2,31.5,0.5,127,80.0
543,F#6,31.5,0.5,127,80.0
544,F#5,31.5,0.5,127,80.0
545,G4,32.0,0.5,127,80.0
546,G4,32.0,0.5,127,80.0
547,F#2,32.0,0.25,127,80.0
548,G5,32.0,0.5,127,80.0
549,G4,32.0,0.5,127,80.0
550,B-2,32.25,0.5,127,80.0
551,D5,32.5,0.5,127,80.0
552,D5,32.5,0.5,127,80.0
553,D6,32.5,0.5,127,80.0
554,D5,32.5,0.5,127,80.0
555,F#2,32.75,0.25,127,80.0
556,C#5,33.0,3.0,127,80.0
557,C#5,33.0,3.0,127,80.0
558,B2,33.0,3.0,127,80.0
559,F#2,33.0,0.5,127,80.0
560,C#6,33.0,3.0,127,80.0
561,C#5,33.0,3.0,127,80.0
562,C#4,33.0,0.125,127,80.0
563,F#3,33.0,0.125,127,80.0
564,C#4,33.125,0.125,127,80.0
565,F#3,33.125,0.125,127,80.0
566,C#4,33.25,0.125,127,80.0
567,F#3,33.25,0.125,127,80.0
568,C#4,33.375,0.125,127,80.0
569,F#3,33.375,0.125,127,80.0
570,F#2,33.5,167/1000,127,80.0
571,C#4,33.5,0.125,127,80.0
572,F#3,33.5,0.125,127,80.0
573,C#4,33.625,0.125,127,80.0
574,F#3,33.625,0.125,127,80.0
575,F#2,33.667,167/1000,127,80.0
576,C#4,33.75,0.125,127,80.0
577,F#3,33.75,0.125,127,80.0
578,F#2,33.833,167/1000,127,80.0
579,C#4,33.875,0.125,127,80.0
580,F#3,33.875,0.125,127,80.0
581,B-2,34.0,0.5,127,80.0
582,B4,34.0,167/1000,127,80.0
583,C#4,34.0,0.125,127,80.0
584,F#3,34.0,0.125,127,80.0
585,C#4,34.125,0.125,127,80.0
586,F#3,34.125,0.125,127,80.0
587,F5,34.167,167/1000,127,80.0
588,C#4,34.25,0.125,127,80.0
589,F#3,34.25,0.125,127,80.0
590,B5,34.333,167/1000,127,80.0
591,C#4,34.375,0.125,127,80.0
592,F#3,34.375,0.125,127,80.0
593,F#2,34.5,0.5,127,80.0
594,C#6,34.5,167/1000,127,80.0
595,C#4,34.5,0.125,127,80.0
596,F#3,34.5,0.125,127,80.0
597,C#4,34.625,0.125,127,80.0
598,F#3,34.625,0.125,127,80.0
599,F6,34.667,167/1000,127,80.0
600,C#4,34.75,0.125,127,80.0
601,F#3,34.75,0.125,127,80.0
602,C#6,34.833,167/1000,127,80.0
603,C#4,34.875,0.125,127,80.0
604,F#3,34.875,0.125,127,80.0
605,B5,35.0,0.25,127,80.0
606,F#2,35.0,167/1000,127,80.0
607,B1,35.0,167/1000,127,80.0
608,C#4,35.0,0.125,127,80.0
609,F#3,35.0,0.125,127,80.0
610,C#4,35.125,0.125,127,80.0
611,F#3,35.125,0.125,127,80.0
612,F#2,35.167,167/1000,127,80.0
613,C#5,35.25,0.25,127,80.0
614,C#4,35.25,0.125,127,80.0
615,F#3,35.25,0.125,127,80.0
616,F#2,35.333,167/1000,127,80.0
617,C#4,35.375,0.125,127,80.0
618,F#3,35.375,0.125,127,80.0
619,F#2,35.5,167/1000,127,80.0
620,C#6,35.5,0.25,127,80.0
621,C#4,35.5,0.125,127,80.0
622,F#3,35.5,0.125,127,80.0
623,C#4,35.625,0.125,127,80.0
624,F#3,35.625,0.125,127,80.0
625,F#2,35.667,167/1000,127,80.0
626,F5,35.75,0.25,127,80.0
627,C#4,35.75,0.125,127,80.0
628,F#3,35.75,0.125,127,80.0
629,F#2,35.833,167/1000,127,80.0
630,C#4,35.875,31/250,127,80.0
631,F#3,35.875,31/250,127,80.0
632,B-2,36.0,0.5,127,80.0
633,B-1,36.0,3.0,127,80.0
634,B-4,36.0,2.0,127,80.0
635,B-2,36.0,0.5,127,80.0
636,B1,36.0,0.5,127,80.0
637,B-3,36.0,3.0,127,80.0
638,F3,36.0,3.0,127,80.0
639,B-3,36.5,0.5,127,80.0
640,B-3,36.5,0.5,127,80.0
641,F#2,36.5,0.5,127,80.0
642,B-4,36.5,0.5,127,80.0
643,B-3,36.5,0.5,127,80.0
644,C#4,37.0,0.5,127,80.0
645,C#4,37.0,0.5,127,80.0
646,F#2,37.0,0.5,127,80.0
647,C#5,37.0,0.5,127,80.0
648,C#4,37.0,0.5,127,80.0
649,A4,37.5,0.5,127,80.0
650,A4,37.5,1.0,127,80.0
651,F#2,37.5,0.25,127,80.0
652,A5,37.5,0.5,127,80.0
653,A4,37.5,0.5,127,80.0
654,F#2,37.75,0.25,127,80.0
655,G#5,38.0,0.5,127,80.0
656,G#5,38.0,0.5,127,80.0
657,B-2,38.0,0.5,127,80.0
658,G#6,38.0,0.5,127,80.0
659,G#5,38.0,0.5,127,80.0
660,F5,38.5,0.5,127,80.0
661,F5,38.5,0.5,127,80.0
662,F#2,38.5,0.25,127,80.0
663,F6,38.5,0.5,127,80.0
664,F5,38.5,0.5,127,80.0
665,B-2,38.75,0.25,127,80.0
666,E-5,39.0,3.0,127,80.0
667,E-5,39.0,3.0,127,80.0
668,B-2,39.0,3.0,127,80.0
669,G#2,39.0,0.5,127,80.0
670,E-6,39.0,3.0,127,80.0
671,E-5,39.0,3.0,127,80.0
672,C4,39.0,0.125,127,80.0
673,F3,39.0,0.125,127,80.0
674,C4,39.125,0.125,127,80.0
675,F3,39.125,0.125,127,80.0
676,C4,39.25,0.125,127,80.0
677,F3,39.25,0.125,127,80.0
678,C4,39.375,0.125,127,80.0
679,F3,39.375,0.125,127,80.0
680,F#2,39.5,0.5,127,80.0
681,C4,39.5,0.125,127,80.0
682,F3,39.5,0.125,127,80.0
683,C4,39.625,0.125,127,80.0
684,F3,39.625,0.125,127,80.0
685,C4,39.75,0.125,127,80.0
686,F3,39.75,0.125,127,80.0
687,C4,39.875,0.125,127,80.0
688,F3,39.875,0.125,127,80.0
689,F#2,40.0,0.5,127,80.0
690,B-4,40.0,0.125,127,80.0
691,C4,40.0,0.125,127,80.0
692,F3,40.0,0.125,127,80.0
693,E5,40.125,0.125,127,80.0
694,C4,40.125,0.125,127,80.0
695,F3,40.125,0.125,127,80.0
696,B-5,40.25,0.125,127,80.0
697,C4,40.25,0.125,127,80.0
698,F3,40.25,0.125,127,80.0
699,C6,40.375,0.125,127,80.0
700,C4,40.375,0.125,127,80.0
701,F3,40.375,0.125,127,80.0
702,F#2,40.5,0.5,127,80.0
703,F6,40.5,0.25,127,80.0
704,C4,40.5,0.125,127,80.0
705,F3,40.5,0.125,127,80.0
706,C4,40.625,0.125,127,80.0
707,F3,40.625,0.125,127,80.0
708,E-6,40.75,0.25,127,80.0
709,C4,40.75,0.125,127,80.0
710,F3,40.75,0.125,127,80.0
711,C4,40.875,0.125,127,80.0
712,F3,40.875,0.125,127,80.0
713,C6,41.0,0.25,127,80.0
714,F#2,41.0,0.25,127,80.0
715,B1,41.0,0.25,127,80.0
716,C4,41.0,0.125,127,80.0
717,F3,41.0,0.125,127,80.0
718,C4,41.125,0.125,127,80.0
719,F3,41.125,0.125,127,80.0
720,F#2,41.25,0.25,127,80.0
721,B-5,41.25,0.25,127,80.0
722,C4,41.25,0.125,127,80.0
723,F3,41.25,0.125,127,80.0
724,C4,41.375,0.125,127,80.0
725,F3,41.375,0.125,127,80.0
726,F#2,41.5,167/1000,127,80.0
727,E-6,41.5,0.25,127,80.0
728,C4,41.5,0.125,127,80.0
729,F3,41.5,0.125,127,80.0
730,C4,41.625,0.125,127,80.0
731,F3,41.625,0.125,127,80.0
732,F#2,41.667,167/1000,127,80.0
733,B-5,41.75,0.25,127,80.0
734,C4,41.75,0.125,127,80.0
735,F3,41.75,0.125,127,80.0
736,F#2,41.833,167/1000,127,80.0
737,C4,41.875,31/250,127,80.0
738,F3,41.875,31/250,127,80.0
739,B-2,42.0,0.5,127,80.0
740,B-1,42.0,3.0,127,80.0
741,B-4,42.0,2.0,127,80.0
742,B-2,42.0,0.5,127,80.0
743,B1,42.0,0.5,127,80.0
744,B-3,42.0,3.0,127,80.0
745,F3,42.0,3.0,127,80.0
746,B-3,42.5,0.5,127,80.0
747,B-3,42.5,0.5,127,80.0
748,F#2,42.5,0.5,127,80.0
749,B-4,42.5,0.5,127,80.0
750,B-3,42.5,0.5,127,80.0
751,C#4,43.0,0.5,127,80.0
752,C#4,43.0,0.5,127,80.0
753,F#2,43.0,0.5,127,80.0
754,C#5,43.0,0.5,127,80.0
755,C#4,43.0,0.5,127,80.0
756,A4,43.5,0.5,127,80.0
757,A4,43.5,1.0,127,80.0
758,F#2,43.5,0.25,127,80.0
759,A5,43.5,0.5,127,80.0
760,A4,43.5,0.5,127,80.0
761,F#2,43.75,0.25,127,80.0
762,G#5,44.0,0.5,127,80.0
763,G#5,44.0,0.5,127,80.0
764,B-2,44.0,0.5,127,80.0
765,G#6,44.0,0.5,127,80.0
766,G#5,44.0,0.5,127,80.0
767,F5,44.5,0.5,127,80.0
768,F5,44.5,0.5,127,80.0
769,F#2,44.5,0.25,127,80.0
770,F6,44.5,0.5,127,80.0
771,F5,44.5,0.5,127,80.0
772,F#2,44.75,0.25,127,80.0
773,E-5,45.0,3.0,127,80.0
774,E-5,45.0,3.0,127,80.0
775,B-2,45.0,3.0,127,80.0
776,E-6,45.0,3.0,127,80.0
777,E-5,45.0,3.0,127,80.0
778,F#2,45.0,0.5,127,80.0
779,B1,45.0,0.5,127,80.0
780,C4,45.0,0.125,127,80.0
781,F3,45.0,0.125,127,80.0
782,C4,45.125,0.125,127,80.0
783,F3,45.125,0.125,127,80.0
784,C4,45.25,0.125,127,80.0
785,F3,45.25,0.125,127,80.0
786,C4,45.375,0.125,127,80.0
787,F3,45.375,0.125,127,80.0
788,F#2,45.5,0.5,127,80.0
789,C4,45.5,0.125,127,80.0
790,F3,45.5,0.125,127,80.0
791,C4,45.625,0.125,127,80.0
792,F3,45.625,0.125,127,80.0
793,C4,45.75,0.125,127,80.0
794,F3,45.75,0.125,127,80.0
795,C4,45.875,0.125,127,80.0
796,F3,45.875,0.125,127,80.0
797,B-2,46.0,0.5,127,80.0
798,B1,46.0,0.5,127,80.0
799,C4,46.0,0.125,127,80.0
800,F3,46.0,0.125,127,80.0
801,C6,46.0,2.0,127,80.0
802,E5,46.0,2.0,127,80.0
803,B-4,46.0,2.0,127,80.0
804,C4,46.125,0.125,127,80.0
805,F3,46.125,0.125,127,80.0
806,C4,46.25,0.125,127,80.0
807,F3,46.25,0.125,127,80.0
808,C4,46.375,0.125,127,80.0
809,F3,46.375,0.125,127,80.0
810,B-2,46.5,0.25,127,80.0
811,C4,46.5,0.125,127,80.0
812,F3,46.5,0.125,127,80.0
813,C4,46.625,0.125,127,80.0
814,F3,46.625,0.125,127,80.0
815,D2,46.75,0.125,127,80.0
816,C4,46.75,0.125,127,80.0
817,F3,46.75,0.125,127,80.0
818,D2,46.875,0.125,127,80.0
819,C4,46.875,0.125,127,80.0
820,F3,46.875,0.125,127,80.0
821,B-2,47.0,0.25,127,80.0
822,D2,47.0,0.25,127,80.0
823,C4,47.0,0.125,127,80.0
824,F3,47.0,0.125,127,80.0
825,C4,47.125,0.125,127,80.0
826,F3,47.125,0.125,127,80.0
827,D2,47.25,0.25,127,80.0
828,C4,47.25,0.125,127,80.0
829,F3,47.25,0.125,127,80.0
830,C4,47.375,0.125,127,80.0
831,F3,47.375,0.125,127,80.0
832,B-2,47.5,0.25,127,80.0
833,D2,47.5,0.25,127,80.0
834,C4,47.5,0.125,127,80.0
835,F3,47.5,0.125,127,80.0
836,C4,47.625,0.125,127,80.0
837,F3,47.625,0.125,127,80.0
838,D2,47.75,0.25,127,80.0
839,C4,47.75,0.125,127,80.0
840,F3,47.75,0.125,127,80.0
841,C4,47.875,31/250,127,80.0
842,F3,47.875,31/250,127,80.0
843,B-2,48.0,1.0,127,80.0
844,B-2,48.0,3.0,127,80.0
845,B-1,48.0,2333/1000,127,80.0
846,E-3,48.0,0.5,127,80.0
847,C#3,48.0,0.5,127,80.0
848,B1,48.0,0.5,127,80.0
849,B-3,48.0,1.0,127,80.0
850,F3,48.0,1.0,127,80.0
851,E-3,48.5,0.25,127,80.0
852,B1,48.75,0.25,127,80.0
853,C#5,49.0,0.5,127,80.0
854,C#5,49.0,0.5,127,80.0
855,C#5,49.0,0.5,127,80.0
856,C#5,49.0,1.0,127,80.0
857,C#5,49.0,0.5,127,80.0
858,E4,49.0,0.5,127,80.0
859,C#4,49.0,0.5,127,80.0
860,B-3,49.0,0.5,127,80.0
861,F3,49.0,0.5,127,80.0
862,D2,49.0,0.5,127,80.0
863,B-3,49.0,0.5,127,80.0
864,F3,49.0,0.5,127,80.0
865,E-3,49.5,0.25,127,80.0
866,B1,49.75,0.25,127,80.0
867,C#5,50.0,167/1000,127,80.0
868,C#5,50.0,167/1000,127,80.0
869,C#5,50.0,167/1000,127,80.0
870,C#5,50.0,167/1000,127,80.0
871,E4,50.0,333/1000,127,80.0
872,C#4,50.0,333/1000,127,80.0
873,B-3,50.0,333/1000,127,80.0
874,F3,50.0,333/1000,127,80.0
875,D2,50.0,333/1000,127,80.0
876,B-3,50.0,167/1000,127,80.0
877,F3,50.0,167/1000,127,80.0
878,C#5,50.333,167/1000,127,80.0
879,C#5,50.333,333/1000,127,80.0
880,C#5,50.333,167/1000,127,80.0
881,C#3,50.333,333/1000,127,80.0
882,C#5,50.333,167/1000,127,80.0
883,C#5,50.333,167/1000,127,80.0
884,C#6,50.333,333/1000,127,80.0
885,E-3,50.333,333/1000,127,80.0
886,D3,50.333,333/1000,127,80.0
887,D2,50.333,333/1000,127,80.0
888,B-3,50.333,167/1000,127,80.0
889,F3,50.333,167/1000,127,80.0
890,B4,50.667,167/1000,127,80.0
891,B4,50.667,333/1000,127,80.0
892,B4,50.667,167/1000,127,80.0
893,B2,50.667,333/1000,127,80.0
894,B4,50.667,167/1000,127,80.0
895,F3,50.667,167/1000,127,80.0
896,B4,50.667,167/1000,127,80.0
897,B5,50.667,333/1000,127,80.0
898,C#3,50.667,333/1000,127,80.0
899,B1,50.667,333/1000,127,80.0
900,C#5,51.0,1.5,127,80.0
901,B-2,51.0,1.5,127,80.0
902,C#5,51.0,1.5,127,80.0
903,C#3,51.0,1.5,127,80.0
904,C#5,51.0,1.5,127,80.0
905,C#5,51.0,0.125,127,80.0
906,C#6,51.0,1.5,127,80.0
907,C#5,51.0,1.5,127,80.0
908,E4,51.0,1.5,127,80.0
909,C#4,51.0,1.5,127,80.0
910,B-3,51.0,1.5,127,80.0
911,E-3,51.0,0.5,127,80.0
912,C#3,51.0,0.5,127,80.0
913,B1,51.0,0.5,127,80.0
914,B-3,51.0,0.125,127,80.0
915,F3,51.0,0.125,127,80.0
916,C#5,51.125,0.125,127,80.0
917,B-3,51.125,0.125,127,80.0
918,F3,51.125,0.125,127,80.0
919,C#5,51.25,0.125,127,80.0
920,B-3,51.25,0.125,127,80.0
921,F3,51.25,0.125,127,80.0
922,C#5,51.375,0.125,127,80.0
923,B-3,51.375,0.125,127,80.0
924,F3,51.375,0.125,127,80.0
925,E-3,51.5,0.5,127,80.0
926,C#5,51.5,0.125,127,80.0
927,B-3,51.5,0.125,127,80.0
928,F3,51.5,0.125,127,80.0
929,C#5,51.625,0.125,127,80.0
930,B-3,51.625,0.125,127,80.0
931,F3,51.625,0.125,127,80.0
932,C#5,51.75,0.125,127,80.0
933,B-3,51.75,0.125,127,80.0
934,F3,51.75,0.125,127,80.0
935,C#5,51.875,0.125,127,80.0
936,B-3,51.875,0.125,127,80.0
937,F3,51.875,0.125,127,80.0
938,E-3,52.0,0.25,127,80.0
939,C#5,52.0,0.125,127,80.0
940,B-3,52.0,0.125,127,80.0
941,F3,52.0,0.125,127,80.0
942,C#5,52.125,0.125,127,80.0
943,B-3,52.125,0.125,127,80.0
944,F3,52.125,0.125,127,80.0
945,D2,52.25,0.25,127,80.0
946,C#5,52.25,0.125,127,80.0
947,B-3,52.25,0.125,127,80.0
948,F3,52.25,0.125,127,80.0
949,C#5,52.375,31/250,127,80.0
950,B-3,52.375,0.125,127,80.0
951,F3,52.375,0.125,127,80.0
952,A4,52.5,1.0,127,80.0
953,A4,52.5,1.0,127,80.0
954,A4,52.5,1.0,127,80.0
955,A2,52.5,1.0,127,80.0
956,E-3,52.5,0.25,127,80.0
957,A4,52.5,1.0,127,80.0
958,A4,52.5,0.125,127,80.0
959,A5,52.5,1.0,127,80.0
960,B-3,52.5,0.125,127,80.0
961,F3,52.5,0.125,127,80.0
962,A4,52.625,0.125,127,80.0
963,B-3,52.625,0.125,127,80.0
964,F3,52.625,0.125,127,80.0
965,B2,52.75,0.25,127,80.0
966,A4,52.75,0.125,127,80.0
967,B-3,52.75,0.125,127,80.0
968,F3,52.75,0.125,127,80.0
969,A4,52.875,0.125,127,80.0
970,B-3,52.875,0.125,127,80.0
971,F3,52.875,0.125,127,80.0
972,A4,53.0,0.125,127,80.0
973,E-3,53.0,0.25,127,80.0
974,B2,53.0,0.25,127,80.0
975,A2,53.0,0.25,127,80.0
976,B-3,53.0,0.125,127,80.0
977,F3,53.0,0.125,127,80.0
978,A4,53.125,0.125,127,80.0
979,B-3,53.125,0.125,127,80.0
980,F3,53.125,0.125,127,80.0
981,A4,53.25,0.125,127,80.0
982,B-2,53.25,0.25,127,80.0
983,G2,53.25,0.25,127,80.0
984,B-3,53.25,0.125,127,80.0
985,F3,53.25,0.125,127,80.0
986,A4,53.375,31/250,127,80.0
987,B-3,53.375,0.125,127,80.0
988,F3,53.375,0.125,127,80.0
989,G4,53.5,0.5,127,80.0
990,G4,53.5,0.5,127,80.0
991,G4,53.5,0.5,127,80.0
992,G2,53.5,0.5,127,80.0
993,F2,53.5,0.25,127,80.0
994,G4,53.5,0.5,127,80.0
995,G4,53.5,0.125,127,80.0
996,G5,53.5,0.5,127,80.0
997,B-3,53.5,0.125,127,80.0
998,F3,53.5,0.125,127,80.0
999,G4,53.625,0.125,127,80.0
1000,B-3,53.625,0.125,127,80.0
1001,F3,53.625,0.125,127,80.0
1002,F2,53.75,0.25,127,80.0
1003,G4,53.75,0.125,127,80.0
1004,B-3,53.75,0.125,127,80.0
1005,F3,53.75,0.125,127,80.0
1006,G4,53.875,31/250,127,80.0
1007,B-3,53.875,31/250,127,80.0
1008,F3,53.875,31/250,127,80.0
1009,B-2,54.0,3.0,127,80.0
1010,B-2,54.0,3.0,127,80.0
1011,B-3,54.0,1.0,127,80.0
1012,B-1,54.0,1.0,127,80.0
1013,F3,54.0,0.25,127,80.0
1014,B3,54.0,0.5,127,80.0
1015,A3,54.0,0.5,127,80.0
1016,B1,54.0,0.5,127,80.0
1017,B3,54.5,0.25,127,80.0
1018,F3,54.5,0.25,127,80.0
1019,B1,54.75,0.25,127,80.0
1020,C#5,55.0,2.0,127,80.0
1021,B-2,55.0,2.0,127,80.0
1022,C#5,55.0,0.125,127,80.0
1023,C#6,55.0,2.0,127,80.0
1024,E4,55.0,2.0,127,80.0
1025,C#4,55.0,2.0,127,80.0
1026,B-3,55.0,2.0,127,80.0
1027,F3,55.0,0.5,127,80.0
1028,G3,55.0,0.5,127,80.0
1029,D2,55.0,0.5,127,80.0
1030,B-3,55.0,0.125,127,80.0
1031,F3,55.0,0.125,127,80.0
1032,C#5,55.125,0.125,127,80.0
1033,B-3,55.125,0.125,127,80.0
1034,F3,55.125,0.125,127,80.0
1035,C#5,55.25,0.125,127,80.0
1036,B-3,55.25,0.125,127,80.0
1037,F3,55.25,0.125,127,80.0
1038,C#5,55.375,0.125,127,80.0
1039,B-3,55.375,0.125,127,80.0
1040,F3,55.375,0.125,127,80.0
1041,F3,55.5,0.5,127,80.0
1042,C#5,55.5,0.125,127,80.0
1043,B-3,55.5,0.125,127,80.0
1044,F3,55.5,0.125,127,80.0
1045,C#5,55.625,0.125,127,80.0
1046,B-3,55.625,0.125,127,80.0
1047,F3,55.625,0.125,127,80.0
1048,C#5,55.75,0.125,127,80.0
1049,B-3,55.75,0.125,127,80.0
1050,F3,55.75,0.125,127,80.0
1051,C#5,55.875,0.125,127,80.0
1052,B-3,55.875,0.125,127,80.0
1053,F3,55.875,0.125,127,80.0
1054,F3,56.0,0.5,127,80.0
1055,C#5,56.0,0.125,127,80.0
1056,B-3,56.0,0.125,127,80.0
1057,F3,56.0,0.125,127,80.0
1058,C#5,56.125,0.125,127,80.0
1059,B-3,56.125,0.125,127,80.0
1060,F3,56.125,0.125,127,80.0
1061,C#5,56.25,0.125,127,80.0
1062,B-3,56.25,0.125,127,80.0
1063,F3,56.25,0.125,127,80.0
1064,C#5,56.375,0.125,127,80.0
1065,B-3,56.375,0.125,127,80.0
1066,F3,56.375,0.125,127,80.0
1067,F3,56.5,0.25,127,80.0
1068,C#5,56.5,0.125,127,80.0
1069,B-3,56.5,0.125,127,80.0
1070,F3,56.5,0.125,127,80.0
1071,C#5,56.625,0.125,127,80.0
1072,B-3,56.625,0.125,127,80.0
1073,F3,56.625,0.125,127,80.0
1074,B1,56.75,0.25,127,80.0
1075,C#5,56.75,0.125,127,80.0
1076,B-3,56.75,0.125,127,80.0
1077,F3,56.75,0.125,127,80.0
1078,C#5,56.875,31/250,127,80.0
1079,B-3,56.875,31/250,127,80.0
1080,F3,56.875,31/250,127,80.0
1081,C#5,57.0,167/1000,127,80.0
1082,C#5,57.0,333/1000,127,80.0
1083,B-2,57.0,333/1000,127,80.0
1084,C#5,57.0,333/1000,127,80.0
1085,C#3,57.0,333/1000,127,80.0
1086,C#5,57.0,167/1000,127,80.0
1087,C#5,57.0,167/1000,127,80.0
1088,C#6,57.0,333/1000,127,80.0
1089,E4,57.0,333/1000,127,80.0
1090,C#4,57.0,333/1000,127,80.0
1091,B-3,57.0,333/1000,127,80.0
1092,F2,57.0,333/1000,127,80.0
1093,D2,57.0,333/1000,127,80.0
1094,B-3,57.0,167/1000,127,80.0
1095,F3,57.0,167/1000,127,80.0
1096,B4,57.333,167/1000,127,80.0
1097,B4,57.333,333/1000,127,80.0
1098,B4,57.333,333/1000,127,80.0
1099,B2,57.333,333/1000,127,80.0
1100,B4,57.333,167/1000,127,80.0
1101,B4,57.333,167/1000,127,80.0
1102,B5,57.333,333/1000,127,80.0
1103,E-3,57.333,333/1000,127,80.0
1104,A2,57.333,333/1000,127,80.0
1105,B-3,57.333,167/1000,127,80.0
1106,F3,57.333,167/1000,127,80.0
1107,C#5,57.667,2333/1000,127,80.0
1108,C#5,57.667,1333/1000,127,80.0
1109,C#5,57.667,2333/1000,127,80.0
1110,C#3,57.667,2333/1000,127,80.0
1111,C#5,57.667,0.125,127,80.0
1112,C#5,57.667,0.125,127,80.0
1113,C#6,57.667,2333/1000,127,80.0
1114,E-3,57.667,333/1000,127,80.0
1115,C#3,57.667,333/1000,127,80.0
1116,B1,57.667,333/1000,127,80.0
1117,B-3,57.667,167/1000,127,80.0
1118,F3,57.667,167/1000,127,80.0
1119,C#5,57.792,0.125,127,80.0
1120,C#5,57.792,0.125,127,80.0
1121,C#5,57.917,0.125,127,80.0
1122,C#5,57.917,0.125,127,80.0
1123,E-3,58.0,0.25,127,80.0
1124,B-3,58.0,0.125,127,80.0
1125,F3,58.0,0.125,127,80.0
1126,C#5,58.042,0.125,127,80.0
1127,C#5,58.042,0.125,127,80.0
1128,B-3,58.125,0.125,127,80.0
1129,F3,58.125,0.125,127,80.0
1130,C#5,58.167,0.125,127,80.0
1131,C#5,58.167,0.125,127,80.0
1132,B1,58.25,0.25,127,80.0
1133,B-3,58.25,0.125,127,80.0
1134,F3,58.25,0.125,127,80.0
1135,C#5,58.292,0.125,127,80.0
1136,C#5,58.292,0.125,127,80.0
1137,B-3,58.375,0.125,127,80.0
1138,F3,58.375,0.125,127,80.0
1139,C#5,58.417,0.125,127,80.0
1140,C#5,58.417,0.125,127,80.0
1141,E-3,58.5,0.25,127,80.0
1142,B-3,58.5,0.125,127,80.0
1143,F3,58.5,0.125,127,80.0
1144,C#5,58.542,0.125,127,80.0
1145,C#5,58.542,0.125,127,80.0
1146,B-3,58.625,0.125,127,80.0
1147,F3,58.625,0.125,127,80.0
1148,C#5,58.667,0.125,127,80.0
1149,C#5,58.667,0.125,127,80.0
1150,D2,58.75,0.25,127,80.0
1151,B-3,58.75,0.125,127,80.0
1152,F3,58.75,0.125,127,80.0
1153,C#5,58.792,0.125,127,80.0
1154,C#5,58.792,0.125,127,80.0
1155,B-3,58.875,0.125,127,80.0
1156,F3,58.875,0.125,127,80.0
1157,C#5,58.917,0.125,127,80.0
1158,C#5,58.917,0.125,127,80.0
1159,B2,59.0,167/1000,127,80.0
1160,E4,59.0,1.0,127,80.0
1161,C#4,59.0,1.0,127,80.0
1162,B-3,59.0,1.0,127,80.0
1163,B-3,59.0,0.125,127,80.0
1164,F3,59.0,0.125,127,80.0
1165,C#5,59.042,0.125,127,80.0
1166,C#5,59.042,0.125,127,80.0
1167,B-3,59.125,0.125,127,80.0
1168,F3,59.125,0.125,127,80.0
1169,C#5,59.167,0.125,127,80.0
1170,C#5,59.167,0.125,127,80.0
1171,A2,59.167,167/1000,127,80.0
1172,G2,59.167,167/1000,127,80.0
1173,B-3,59.25,0.125,127,80.0
1174,F3,59.25,0.125,127,80.0
1175,C#5,59.292,0.125,127,80.0
1176,C#5,59.292,0.125,127,80.0
1177,A2,59.333,167/1000,127,80.0
1178,B-3,59.375,0.125,127,80.0
1179,F3,59.375,0.125,127,80.0
1180,C#5,59.417,0.125,127,80.0
1181,C#5,59.417,0.125,127,80.0
1182,F2,59.5,167/1000,127,80.0
1183,D2,59.5,167/1000,127,80.0
1184,B-3,59.5,0.125,127,80.0
1185,F3,59.5,0.125,127,80.0
1186,C#5,59.542,0.125,127,80.0
1187,C#5,59.542,0.125,127,80.0
1188,B-3,59.625,0.125,127,80.0
1189,F3,59.625,0.125,127,80.0
1190,C#5,59.667,0.125,127,80.0
1191,C#5,59.667,0.125,127,80.0
1192,F2,59.667,167/1000,127,80.0
1193,D2,59.667,167/1000,127,80.0
1194,B-3,59.75,0.125,127,80.0
1195,F3,59.75,0.125,127,80.0
1196,C#5,59.792,0.125,127,80.0
1197,C#5,59.792,0.125,127,80.0
1198,F2,59.833,167/1000,127,80.0
1199,D2,59.833,167/1000,127,80.0
1200,B1,59.833,167/1000,127,80.0
1201,B-3,59.875,31/250,127,80.0
1202,F3,59.875,31/250,127,80.0
1203,C#5,59.917,41/500,127,80.0
1204,C#5,59.917,41/500,127,80.0
1205,A2,60.0,1.0,127,80.0
1206,A2,60.0,3.0,127,80.0
1207,A3,60.0,1.0,127,80.0
1208,A1,60.0,1.0,127,80.0
1209,E-3,60.0,0.5,127,80.0
1210,C#3,60.0,0.5,127,80.0
1211,B1,60.0,0.5,127,80.0
1212,A3,60.0,0.5,127,80.0
1213,E3,60.0,0.5,127,80.0
1214,E-3,60.5,0.25,127,80.0
1215,E3,60.5,0.5,127,80.0
1216,B1,60.75,0.25,127,80.0
1217,G4,61.0,0.5,127,80.0
1218,G4,61.0,0.5,127,80.0
1219,A2,61.0,0.5,127,80.0
1220,G4,61.0,0.5,127,80.0
1221,G5,61.0,0.5,127,80.0
1222,G4,61.0,0.5,127,80.0
1223,G4,61.0,0.5,127,80.0
1224,E4,61.0,0.5,127,80.0
1225,C4,61.0,0.5,127,80.0
1226,G4,61.0,0.5,127,80.0
1227,F3,61.0,0.5,127,80.0
1228,D2,61.0,0.5,127,80.0
1229,A3,61.0,0.125,127,80.0
1230,E3,61.0,0.125,127,80.0
1231,A3,61.125,0.125,127,80.0
1232,E3,61.125,0.125,127,80.0
1233,A3,61.25,0.125,127,80.0
1234,E3,61.25,0.125,127,80.0
1235,A3,61.375,0.125,127,80.0
1236,E3,61.375,0.125,127,80.0
1237,E-3,61.5,0.25,127,80.0
1238,A3,61.5,0.125,127,80.0
1239,E3,61.5,0.125,127,80.0
1240,A3,61.625,0.125,127,80.0
1241,E3,61.625,0.125,127,80.0
1242,B1,61.75,0.25,127,80.0
1243,A3,61.75,0.125,127,80.0
1244,E3,61.75,0.125,127,80.0
1245,A3,61.875,0.125,127,80.0
1246,E3,61.875,0.125,127,80.0
1247,G4,62.0,0.5,127,80.0
1248,G4,62.0,0.5,127,80.0
1249,A2,62.0,0.5,127,80.0
1250,G4,62.0,0.5,127,80.0
1251,G5,62.0,0.5,127,80.0
1252,G4,62.0,0.5,127,80.0
1253,G4,62.0,0.5,127,80.0
1254,E4,62.0,0.5,127,80.0
1255,C4,62.0,0.5,127,80.0
1256,G4,62.0,0.5,127,80.0
1257,F3,62.0,0.5,127,80.0
1258,D2,62.0,0.5,127,80.0
1259,A3,62.0,0.125,127,80.0
1260,E3,62.0,0.125,127,80.0
1261,A3,62.125,0.125,127,80.0
1262,E3,62.125,0.125,127,80.0
1263,A3,62.25,0.125,127,80.0
1264,E3,62.25,0.125,127,80.0
1265,A3,62.375,0.125,127,80.0
1266,E3,62.375,0.125,127,80.0
1267,E-3,62.5,0.25,127,80.0
1268,A3,62.5,0.125,127,80.0
1269,E3,62.5,0.125,127,80.0
1270,A3,62.625,0.125,127,80.0
1271,E3,62.625,0.125,127,80.0
1272,B1,62.75,0.25,127,80.0
1273,A3,62.75,0.125,127,80.0
1274,E3,62.75,0.125,127,80.0
1275,A3,62.875,31/250,127,80.0
1276,E3,62.875,31/250,127,80.0
1277,G4,63.0,3.0,127,80.0
1278,A2,63.0,3.0,127,80.0
1279,G4,63.0,3.0,127,80.0
1280,A2,63.0,1.75,127,80.0
1281,G4,63.0,0.125,127,80.0
1282,G5,63.0,0.125,127,80.0
1283,G4,63.0,3.0,127,80.0
1284,G4,63.0,3.0,127,80.0
1285,E4,63.0,3.0,127,80.0
1286,C4,63.0,3.0,127,80.0
1287,G4,63.0,3.0,127,80.0
1288,F3,63.0,0.5,127,80.0
1289,G3,63.0,0.5,127,80.0
1290,B1,63.0,0.5,127,80.0
1291,A3,63.0,0.125,127,80.0
1292,E3,63.0,0.125,127,80.0
1293,G4,63.125,0.125,127,80.0
1294,G5,63.125,0.125,127,80.0
1295,A3,63.125,0.125,127,80.0
1296,E3,63.125,0.125,127,80.0
1297,G4,63.25,0.125,127,80.0
1298,G5,63.25,0.125,127,80.0
1299,A3,63.25,0.125,127,80.0
1300,E3,63.25,0.125,127,80.0
1301,G4,63.375,0.125,127,80.0
1302,G5,63.375,0.125,127,80.0
1303,A3,63.375,0.125,127,80.0
1304,E3,63.375,0.125,127,80.0
1305,E-3,63.5,0.5,127,80.0
1306,G4,63.5,0.125,127,80.0
1307,G5,63.5,0.125,127,80.0
1308,A3,63.5,0.125,127,80.0
1309,E3,63.5,0.125,127,80.0
1310,G4,63.625,0.125,127,80.0
1311,G5,63.625,0.125,127,80.0
1312,A3,63.625,0.125,127,80.0
1313,E3,63.625,0.125,127,80.0
1314,G4,63.75,0.125,127,80.0
1315,G5,63.75,0.125,127,80.0
1316,A3,63.75,0.125,127,80.0
1317,E3,63.75,0.125,127,80.0
1318,G4,63.875,0.125,127,80.0
1319,G5,63.875,0.125,127,80.0
1320,A3,63.875,0.125,127,80.0
1321,E3,63.875,0.125,127,80.0
1322,E-3,64.0,0.25,127,80.0
1323,G4,64.0,0.125,127,80.0
1324,G5,64.0,0.125,127,80.0
1325,A3,64.0,0.125,127,80.0
1326,E3,64.0,0.125,127,80.0
1327,G4,64.125,0.125,127,80.0
1328,G5,64.125,0.125,127,80.0
1329,A3,64.125,0.125,127,80.0
1330,E3,64.125,0.125,127,80.0
1331,B1,64.25,0.25,127,80.0
1332,G4,64.25,0.125,127,80.0
1333,G5,64.25,0.125,127,80.0
1334,A3,64.25,0.125,127,80.0
1335,E3,64.25,0.125,127,80.0
1336,G4,64.375,0.125,127,80.0
1337,G5,64.375,0.125,127,80.0
1338,A3,64.375,0.125,127,80.0
1339,E3,64.375,0.125,127,80.0
1340,D2,64.5,0.25,127,80.0
1341,G4,64.5,0.125,127,80.0
1342,G5,64.5,0.125,127,80.0
1343,A3,64.5,0.125,127,80.0
1344,E3,64.5,0.125,127,80.0
1345,G4,64.625,0.125,127,80.0
1346,G5,64.625,0.125,127,80.0
1347,A3,64.625,0.125,127,80.0
1348,E3,64.625,0.125,127,80.0
1349,D2,64.75,0.25,127,80.0
1350,E-3,64.75,0.25,127,80.0
1351,G4,64.75,0.125,127,80.0
1352,G5,64.75,0.125,127,80.0
1353,A3,64.75,0.125,127,80.0
1354,E3,64.75,0.125,127,80.0
1355,G4,64.875,0.125,127,80.0
1356,G5,64.875,31/250,127,80.0
1357,A3,64.875,0.125,127,80.0
1358,E3,64.875,0.125,127,80.0
1359,A2,65.0,0.25,127,80.0
1360,B2,65.0,0.125,127,80.0
1361,G4,65.0,0.125,127,80.0
1362,F5,65.0,0.125,127,80.0
1363,A3,65.0,0.125,127,80.0
1364,E3,65.0,0.125,127,80.0
1365,G4,65.125,0.125,127,80.0
1366,G5,65.125,0.125,127,80.0
1367,C3,65.125,0.125,127,80.0
1368,B2,65.125,0.125,127,80.0
1369,A3,65.125,0.125,127,80.0
1370,E3,65.125,0.125,127,80.0
1371,G2,65.25,0.25,127,80.0
1372,G4,65.25,0.125,127,80.0
1373,D5,65.25,0.125,127,80.0
1374,B2,65.25,0.25,127,80.0
1375,A2,65.25,0.25,127,80.0
1376,A3,65.25,0.125,127,80.0
1377,E3,65.25,0.125,127,80.0
1378,G4,65.375,0.125,127,80.0
1379,C5,65.375,0.125,127,80.0
1380,A3,65.375,0.125,127,80.0
1381,E3,65.375,0.125,127,80.0
1382,E2,65.5,0.25,127,80.0
1383,G4,65.5,0.125,127,80.0
1384,D5,65.5,0.125,127,80.0
1385,A2,65.5,0.25,127,80.0
1386,G2,65.5,0.25,127,80.0
1387,A3,65.5,0.125,127,80.0
1388,E3,65.5,0.125,127,80.0
1389,G4,65.625,0.125,127,80.0
1390,C5,65.625,0.125,127,80.0
1391,A3,65.625,0.125,127,80.0
1392,E3,65.625,0.125,127,80.0
1393,D2,65.75,0.25,127,80.0
1394,G4,65.75,0.125,127,80.0
1395,B-4,65.75,0.125,127,80.0
1396,G2,65.75,0.25,127,80.0
1397,F2,65.75,0.25,127,80.0
1398,A3,65.75,0.125,127,80.0
1399,E3,65.75,0.125,127,80.0
1400,G4,65.875,31/250,127,80.0
1401,C5,65.875,0.125,127,80.0
1402,A3,65.875,31/250,127,80.0
1403,E3,65.875,31/250,127,80.0
1404,G4,66.0,0.5,127,80.0
1405,A2,66.0,3.0,127,80.0
1406,A3,66.0,1.0,127,80.0
1407,A1,66.0,1.0,127,80.0
1408,G4,66.0,0.5,127,80.0
1409,G4,66.0,0.125,127,80.0
1410,B3,66.0,0.5,127,80.0
1411,A3,66.0,0.5,127,80.0
1412,B1,66.0,0.5,127,80.0
1413,A3,66.0,1.0,127,80.0
1414,E3,66.0,1.0,127,80.0
1415,G4,66.125,0.125,127,80.0
1416,G4,66.25,0.125,127,80.0
1417,G4,66.375,0.125,127,80.0
1418,B3,66.5,0.25,127,80.0
1419,G4,66.5,0.125,127,80.0
1420,G4,66.625,0.125,127,80.0
1421,B1,66.75,0.25,127,80.0
1422,G4,66.75,0.125,127,80.0
1423,G4,66.875,31/250,127,80.0
1424,G4,67.0,1.5,127,80.0
1425,G4,67.0,2.0,127,80.0
1426,A2,67.0,2.0,127,80.0
1427,G4,67.0,1.5,127,80.0
1428,G5,67.0,0.125,127,80.0
1429,G4,67.0,1.0,127,80.0
1430,G4,67.0,2.0,127,80.0
1431,E4,67.0,2.0,127,80.0
1432,C4,67.0,2.0,127,80.0
1433,G4,67.0,2.0,127,80.0
1434,B3,67.0,0.5,127,80.0
1435,A3,67.0,0.5,127,80.0
1436,D2,67.0,0.5,127,80.0
1437,A3,67.0,0.125,127,80.0
1438,E3,67.0,0.125,127,80.0
1439,G5,67.125,0.125,127,80.0
1440,A3,67.125,0.125,127,80.0
1441,E3,67.125,0.125,127,80.0
1442,G5,67.25,0.125,127,80.0
1443,A3,67.25,0.125,127,80.0
1444,E3,67.25,0.125,127,80.0
1445,G5,67.375,0.125,127,80.0
1446,A3,67.375,0.125,127,80.0
1447,E3,67.375,0.125,127,80.0
1448,B3,67.5,0.5,127,80.0
1449,G5,67.5,0.125,127,80.0
1450,A3,67.5,0.125,127,80.0
1451,E3,67.5,0.125,127,80.0
1452,G5,67.625,0.125,127,80.0
1453,A3,67.625,0.125,127,80.0
1454,E3,67.625,0.125,127,80.0
1455,G5,67.75,0.125,127,80.0
1456,A3,67.75,0.125,127,80.0
1457,E3,67.75,0.125,127,80.0
1458,G5,67.875,0.125,127,80.0
1459,A3,67.875,0.125,127,80.0
1460,E3,67.875,0.125,127,80.0
1461,B3,68.0,0.5,127,80.0
1462,G5,68.0,0.125,127,80.0
1463,A3,68.0,0.125,127,80.0
1464,E3,68.0,0.125,127,80.0
1465,G5,68.125,0.125,127,80.0
1466,A3,68.125,0.125,127,80.0
1467,E3,68.125,0.125,127,80.0
1468,G5,68.25,0.125,127,80.0
1469,A3,68.25,0.125,127,80.0
1470,E3,68.25,0.125,127,80.0
1471,G5,68.375,0.125,127,80.0
1472,A3,68.375,0.125,127,80.0
1473,E3,68.375,0.125,127,80.0
1474,G4,68.5,0.25,127,80.0
1475,B3,68.5,0.25,127,80.0
1476,G4,68.5,0.25,127,80.0
1477,G5,68.5,0.125,127,80.0
1478,A3,68.5,0.125,127,80.0
1479,E3,68.5,0.125,127,80.0
1480,G5,68.625,0.125,127,80.0
1481,A3,68.625,0.125,127,80.0
1482,E3,68.625,0.125,127,80.0
1483,G4,68.75,0.25,127,80.0
1484,D2,68.75,0.125,127,80.0
1485,G4,68.75,0.25,127,80.0
1486,G5,68.75,0.125,127,80.0
1487,A3,68.75,0.125,127,80.0
1488,E3,68.75,0.125,127,80.0
1489,D2,68.875,0.125,127,80.0
1490,G5,68.875,31/250,127,80.0
1491,A3,68.875,31/250,127,80.0
1492,E3,68.875,31/250,127,80.0
1493,G4,69.0,167/1000,127,80.0
1494,A2,69.0,333/1000,127,80.0
1495,G4,69.0,167/1000,127,80.0
1496,A2,69.0,333/1000,127,80.0
1497,D2,69.0,333/1000,127,80.0
1498,G4,69.0,167/1000,127,80.0
1499,A3,69.0,167/1000,127,80.0
1500,G5,69.0,167/1000,127,80.0
1501,G4,69.0,167/1000,127,80.0
1502,G4,69.0,333/1000,127,80.0
1503,E4,69.0,333/1000,127,80.0
1504,C4,69.0,333/1000,127,80.0
1505,G4,69.0,333/1000,127,80.0
1506,G4,69.333,167/1000,127,80.0
1507,G4,69.333,167/1000,127,80.0
1508,A2,69.333,333/1000,127,80.0
1509,G4,69.333,167/1000,127,80.0
1510,E3,69.333,167/1000,127,80.0
1511,G5,69.333,167/1000,127,80.0
1512,G4,69.333,167/1000,127,80.0
1513,G4,69.333,333/1000,127,80.0
1514,E4,69.333,333/1000,127,80.0
1515,C4,69.333,333/1000,127,80.0
1516,G4,69.333,333/1000,127,80.0
1517,E-3,69.333,333/1000,127,80.0
1518,C#3,69.333,333/1000,127,80.0
1519,B1,69.333,333/1000,127,80.0
1520,D4,69.667,167/1000,127,80.0
1521,D4,69.667,167/1000,127,80.0
1522,D2,69.667,333/1000,127,80.0
1523,D4,69.667,167/1000,127,80.0
1524,E3,69.667,167/1000,127,80.0
1525,D5,69.667,167/1000,127,80.0
1526,D4,69.667,167/1000,127,80.0
1527,G4,69.667,333/1000,127,80.0
1528,E4,69.667,333/1000,127,80.0
1529,C4,69.667,333/1000,127,80.0
1530,D4,69.667,333/1000,127,80.0
1531,C#3,69.667,333/1000,127,80.0
1532,B1,69.667,333/1000,127,80.0
1533,G4,70.0,2.0,127,80.0
1534,G4,70.0,2.0,127,80.0
1535,A2,70.0,2.0,127,80.0
1536,G4,70.0,2.0,127,80.0
1537,G5,70.0,0.125,127,80.0
1538,G4,70.0,2.0,127,80.0
1539,G4,70.0,2.0,127,80.0
1540,E4,70.0,2.0,127,80.0
1541,C4,70.0,2.0,127,80.0
1542,G4,70.0,2.0,127,80.0
1543,C#3,70.0,0.75,127,80.0
1544,B1,70.0,0.75,127,80.0
1545,A3,70.0,0.125,127,80.0
1546,E3,70.0,0.125,127,80.0
1547,G5,70.125,0.125,127,80.0
1548,A3,70.125,0.125,127,80.0
1549,E3,70.125,0.125,127,80.0
1550,G5,70.25,0.125,127,80.0
1551,A3,70.25,0.125,127,80.0
1552,E3,70.25,0.125,127,80.0
1553,G5,70.375,0.125,127,80.0
1554,A3,70.375,0.125,127,80.0
1555,E3,70.375,0.125,127,80.0
1556,G5,70.5,0.125,127,80.0
1557,A3,70.5,0.125,127,80.0
1558,E3,70.5,0.125,127,80.0
1559,G5,70.625,0.125,127,80.0
1560,A3,70.625,0.125,127,80.0
1561,E3,70.625,0.125,127,80.0
1562,D2,70.75,0.25,127,80.0
1563,G5,70.75,0.125,127,80.0
1564,A3,70.75,0.125,127,80.0
1565,E3,70.75,0.125,127,80.0
1566,G5,70.875,0.125,127,80.0
1567,A3,70.875,0.125,127,80.0
1568,E3,70.875,0.125,127,80.0
1569,C3,71.0,0.25,127,80.0
1570,G5,71.0,0.125,127,80.0
1571,A3,71.0,0.125,127,80.0
1572,E3,71.0,0.125,127,80.0
1573,G5,71.125,0.125,127,80.0
1574,A3,71.125,0.125,127,80.0
1575,E3,71.125,0.125,127,80.0
1576,G5,71.25,0.125,127,80.0
1577,B2,71.25,0.25,127,80.0
1578,A2,71.25,0.25,127,80.0
1579,A3,71.25,0.125,127,80.0
1580,E3,71.25,0.125,127,80.0
1581,G5,71.375,0.125,127,80.0
1582,A3,71.375,0.125,127,80.0
1583,E3,71.375,0.125,127,80.0
1584,G5,71.5,0.125,127,80.0
1585,G2,71.5,0.25,127,80.0
1586,F2,71.5,0.25,127,80.0
1587,A3,71.5,0.125,127,80.0
1588,E3,71.5,0.125,127,80.0
1589,G5,71.625,0.125,127,80.0
1590,A3,71.625,0.125,127,80.0
1591,E3,71.625,0.125,127,80.0
1592,F2,71.75,0.25,127,80.0
1593,G5,71.75,0.125,127,80.0
1594,A3,71.75,0.125,127,80.0
1595,E3,71.75,0.125,127,80.0
1596,G5,71.875,31/250,127,80.0
1597,A3,71.875,31/250,127,80.0
1598,E3,71.875,31/250,127,80.0
1599,G#2,72.0,1.0,127,80.0
1600,G#2,72.0,3.0,127,80.0
1601,G#3,72.0,0.25,127,80.0
1602,G#1,72.0,1.0,127,80.0
1603,A3,72.0,0.5,127,80.0
1604,G3,72.0,0.5,127,80.0
1605,B1,72.0,0.5,127,80.0
1606,G#3,72.0,0.125,127,80.0
1607,E-3,72.0,0.125,127,80.0
1608,G#3,72.125,0.125,127,80.0
1609,E-3,72.125,0.125,127,80.0
1610,G#3,72.25,0.75,127,80.0
1611,G#3,72.25,0.125,127,80.0
1612,E-3,72.25,0.125,127,80.0
1613,G#3,72.375,0.125,127,80.0
1614,E-3,72.375,0.125,127,80.0
1615,E-3,72.5,0.25,127,80.0
1616,G#3,72.5,0.125,127,80.0
1617,E-3,72.5,0.125,127,80.0
1618,G#3,72.625,0.125,127,80.0
1619,E-3,72.625,0.125,127,80.0
1620,B1,72.75,0.25,127,80.0
1621,G#3,72.75,0.125,127,80.0
1622,E-3,72.75,0.125,127,80.0
1623,G#3,72.875,31/250,127,80.0
1624,E-3,72.875,31/250,127,80.0
1625,B-4,73.0,0.5,127,80.0
1626,B-4,73.0,0.5,127,80.0
1627,G#2,73.0,0.5,127,80.0
1628,B-4,73.0,0.5,127,80.0
1629,B-5,73.0,0.125,127,80.0
1630,B-4,73.0,0.5,127,80.0
1631,B-4,73.0,0.5,127,80.0
1632,F#4,73.0,0.5,127,80.0
1633,E-4,73.0,0.5,127,80.0
1634,A4,73.0,0.5,127,80.0
1635,F3,73.0,0.5,127,80.0
1636,D2,73.0,0.5,127,80.0
1637,G#3,73.0,0.5,127,80.0
1638,E-3,73.0,0.5,127,80.0
1639,B-5,73.125,0.125,127,80.0
1640,B-5,73.25,0.125,127,80.0
1641,B-5,73.375,0.125,127,80.0
1642,E-3,73.5,0.25,127,80.0
1643,B-5,73.5,0.125,127,80.0
1644,B-5,73.625,0.125,127,80.0
1645,B1,73.75,0.25,127,80.0
1646,B-5,73.75,0.125,127,80.0
1647,B-5,73.875,31/250,127,80.0
1648,B-4,74.0,0.5,127,80.0
1649,B-4,74.0,0.5,127,80.0
1650,G#2,74.0,0.5,127,80.0
1651,B-4,74.0,0.5,127,80.0
1652,B-5,74.0,0.125,127,80.0
1653,B-4,74.0,0.5,127,80.0
1654,B-4,74.0,0.5,127,80.0
1655,F#4,74.0,0.5,127,80.0
1656,E-4,74.0,0.5,127,80.0
1657,A4,74.0,0.5,127,80.0
1658,F3,74.0,0.5,127,80.0
1659,D2,74.0,0.5,127,80.0
1660,G#3,74.0,0.25,127,80.0
1661,E-3,74.0,0.25,127,80.0
1662,B-5,74.125,0.125,127,80.0
1663,B-5,74.25,0.125,127,80.0
1664,B-5,74.375,0.125,127,80.0
1665,E-3,74.5,0.25,127,80.0
1666,B-5,74.5,0.125,127,80.0
1667,G#3,74.5,0.25,127,80.0
1668,E-3,74.5,0.25,127,80.0
1669,B-5,74.625,0.125,127,80.0
1670,B1,74.75,0.25,127,80.0
1671,B-5,74.75,0.125,127,80.0
1672,G#3,74.75,0.25,127,80.0
1673,E-3,74.75,0.25,127,80.0
1674,B-5,74.875,31/250,127,80.0
1675,B-4,75.0,0.25,127,80.0
1676,G#2,75.0,0.5,127,80.0
1677,B-4,75.0,0.25,127,80.0
1678,G#2,75.0,0.5,127,80.0
1679,B-4,75.0,0.25,127,80.0
1680,B-5,75.0,0.125,127,80.0
1681,B-4,75.0,3.0,127,80.0
1682,B-4,75.0,0.5,127,80.0
1683,F#4,75.0,0.5,127,80.0
1684,E-4,75.0,0.5,127,80.0
1685,A4,75.0,0.5,127,80.0
1686,E-3,75.0,0.5,127,80.0
1687,C#3,75.0,0.5,127,80.0
1688,B1,75.0,0.5,127,80.0
1689,G#3,75.0,0.125,127,80.0
1690,E-3,75.0,0.125,127,80.0
1691,B-5,75.125,0.125,127,80.0
1692,G#3,75.125,0.125,127,80.0
1693,E-3,75.125,0.125,127,80.0
1694,B-5,75.25,0.125,127,80.0
1695,G#3,75.25,0.125,127,80.0
1696,E-3,75.25,0.125,127,80.0
1697,B-5,75.375,0.125,127,80.0
1698,G#3,75.375,0.125,127,80.0
1699,E-3,75.375,0.125,127,80.0
1700,B-4,75.5,0.5,127,80.0
1701,B-4,75.5,0.5,127,80.0
1702,B-4,75.5,0.5,127,80.0
1703,B-2,75.5,0.5,127,80.0
1704,B-4,75.5,0.125,127,80.0
1705,B-5,75.5,0.125,127,80.0
1706,B-5,75.5,0.5,127,80.0
1707,E-3,75.5,0.5,127,80.0
1708,B1,75.5,0.5,127,80.0
1709,G#3,75.5,0.125,127,80.0
1710,E-3,75.5,0.125,127,80.0
1711,B-4,75.625,0.125,127,80.0
1712,B-5,75.625,0.125,127,80.0
1713,G#3,75.625,0.125,127,80.0
1714,E-3,75.625,0.125,127,80.0
1715,B-4,75.75,0.125,127,80.0
1716,B-5,75.75,0.125,127,80.0
1717,G#3,75.75,0.125,127,80.0
1718,E-3,75.75,0.125,127,80.0
1719,B-4,75.875,31/250,127,80.0
1720,B-5,75.875,0.125,127,80.0
1721,G#3,75.875,0.125,127,80.0
1722,E-3,75.875,0.125,127,80.0
1723,F#4,76.0,0.5,127,80.0
1724,F#4,76.0,0.5,127,80.0
1725,F#4,76.0,0.5,127,80.0
1726,F#2,76.0,0.5,127,80.0
1727,F#4,76.0,0.125,127,80.0
1728,B-5,76.0,0.125,127,80.0
1729,F#5,76.0,0.5,127,80.0
1730,E-3,76.0,0.25,127,80.0
1731,D2,76.0,0.25,127,80.0
1732,G#3,76.0,0.125,127,80.0
1733,E-3,76.0,0.125,127,80.0
1734,F#4,76.125,0.125,127,80.0
1735,B-5,76.125,0.125,127,80.0
1736,G#3,76.125,0.125,127,80.0
1737,E-3,76.125,0.125,127,80.0
1738,D2,76.25,0.25,127,80.0
1739,F#4,76.25,0.125,127,80.0
1740,B-5,76.25,0.125,127,80.0
1741,G#3,76.25,0.125,127,80.0
1742,E-3,76.25,0.125,127,80.0
1743,F#4,76.375,31/250,127,80.0
1744,B-5,76.375,0.125,127,80.0
1745,G#3,76.375,0.125,127,80.0
1746,E-3,76.375,0.125,127,80.0
1747,G#4,76.5,0.5,127,80.0
1748,G#4,76.5,0.25,127,80.0
1749,G#4,76.5,0.5,127,80.0
1750,G#2,76.5,0.5,127,80.0
1751,E-3,76.5,0.25,127,80.0
1752,G#4,76.5,0.125,127,80.0
1753,B-5,76.5,0.125,127,80.0
1754,G#5,76.5,0.5,127,80.0
1755,G#3,76.5,0.125,127,80.0
1756,E-3,76.5,0.125,127,80.0
1757,G#4,76.625,0.125,127,80.0
1758,B-5,76.625,0.125,127,80.0
1759,G#3,76.625,0.125,127,80.0
1760,E-3,76.625,0.125,127,80.0
1761,B1,76.75,0.25,127,80.0
1762,G#4,76.75,0.125,127,80.0
1763,B-5,76.75,0.125,127,80.0
1764,G#3,76.75,0.125,127,80.0
1765,E-3,76.75,0.125,127,80.0
1766,G#4,76.875,31/250,127,80.0
1767,B-5,76.875,0.125,127,80.0
1768,G#3,76.875,0.125,127,80.0
1769,E-3,76.875,0.125,127,80.0
1770,E-4,77.0,0.5,127,80.0
1771,E-4,77.0,0.25,127,80.0
1772,E-4,77.0,0.5,127,80.0
1773,E-2,77.0,0.5,127,80.0
1774,E-4,77.0,0.125,127,80.0
1775,B-5,77.0,0.125,127,80.0
1776,E-5,77.0,0.5,127,80.0
1777,E-3,77.0,0.25,127,80.0
1778,F2,77.0,0.25,127,80.0
1779,D2,77.0,0.25,127,80.0
1780,G#3,77.0,0.125,127,80.0
1781,E-3,77.0,0.125,127,80.0
1782,E-4,77.125,0.125,127,80.0
1783,B-5,77.125,0.125,127,80.0
1784,G#3,77.125,0.125,127,80.0
1785,E-3,77.125,0.125,127,80.0
1786,D2,77.25,0.25,127,80.0
1787,E-4,77.25,0.125,127,80.0
1788,B-5,77.25,0.125,127,80.0
1789,G#3,77.25,0.125,127,80.0
1790,E-3,77.25,0.125,127,80.0
1791,E-4,77.375,31/250,127,80.0
1792,B-5,77.375,0.125,127,80.0
1793,G#3,77.375,0.125,127,80.0
1794,E-3,77.375,0.125,127,80.0
1795,G#3,77.5,0.5,127,80.0
1796,G#3,77.5,0.25,127,80.0
1797,G#3,77.5,0.5,127,80.0
1798,G#1,77.5,0.5,127,80.0
1799,E-3,77.5,0.25,127,80.0
1800,G#3,77.5,0.125,127,80.0
1801,B-5,77.5,0.125,127,80.0
1802,G#4,77.5,0.5,127,80.0
1803,G#3,77.5,0.125,127,80.0
1804,E-3,77.5,0.125,127,80.0
1805,G#3,77.625,0.125,127,80.0
1806,B-5,77.625,0.125,127,80.0
1807,G#3,77.625,0.125,127,80.0
1808,E-3,77.625,0.125,127,80.0
1809,B1,77.75,0.25,127,80.0
1810,G#3,77.75,0.125,127,80.0
1811,B-5,77.75,0.125,127,80.0
1812,G#3,77.75,0.125,127,80.0
1813,E-3,77.75,0.125,127,80.0
1814,G#3,77.875,31/250,127,80.0
1815,B-5,77.875,31/250,127,80.0
1816,G#3,77.875,31/250,127,80.0
1817,E-3,77.875,31/250,127,80.0
1818,G#2,78.0,1.0,127,80.0
1819,C4,78.0,1.0,127,80.0
1820,G#2,78.0,3.0,127,80.0
1821,C#4,78.0,1.0,127,80.0
1822,C#2,78.0,1.0,127,80.0
1823,C#4,78.0,0.125,127,80.0
1824,C#5,78.0,1.0,127,80.0
1825,E-3,78.0,0.5,127,80.0
1826,C#3,78.0,0.5,127,80.0
1827,B1,78.0,0.5,127,80.0
1828,E-4,78.0,0.125,127,80.0
1829,G#3,78.0,0.125,127,80.0
1830,C#4,78.125,0.125,127,80.0
1831,E-4,78.125,0.125,127,80.0
1832,G#3,78.125,0.125,127,80.0
1833,C#4,78.25,0.125,127,80.0
1834,E-4,78.25,0.125,127,80.0
1835,G#3,78.25,0.125,127,80.0
1836,C#4,78.375,0.125,127,80.0
1837,E-4,78.375,0.125,127,80.0
1838,G#3,78.375,0.125,127,80.0
1839,E-3,78.5,0.25,127,80.0
1840,C#4,78.5,0.125,127,80.0
1841,E-4,78.5,0.125,127,80.0
1842,G#3,78.5,0.125,127,80.0
1843,C#4,78.625,0.125,127,80.0
1844,E-4,78.625,0.125,127,80.0
1845,G#3,78.625,0.125,127,80.0
1846,B1,78.75,0.25,127,80.0
1847,C#4,78.75,0.125,127,80.0
1848,E-4,78.75,0.125,127,80.0
1849,G#3,78.75,0.125,127,80.0
1850,C#4,78.875,31/250,127,80.0
1851,E-4,78.875,0.125,127,80.0
1852,G#3,78.875,0.125,127,80.0
1853,B4,79.0,1.5,127,80.0
1854,B4,79.0,1.5,127,80.0
1855,F#4,79.0,2.0,127,80.0
1856,B4,79.0,1.5,127,80.0
1857,B2,79.0,1.5,127,80.0
1858,B4,79.0,0.125,127,80.0
1859,B-5,79.0,0.125,127,80.0
1860,B5,79.0,1.5,127,80.0
1861,B-4,79.0,2.0,127,80.0
1862,E-4,79.0,2.0,127,80.0
1863,B4,79.0,2.0,127,80.0
1864,E-3,79.0,0.5,127,80.0
1865,D2,79.0,0.5,127,80.0
1866,E-4,79.0,0.125,127,80.0
1867,G#3,79.0,0.125,127,80.0
1868,B4,79.125,0.125,127,80.0
1869,B-5,79.125,0.125,127,80.0
1870,E-4,79.125,0.125,127,80.0
1871,G#3,79.125,0.125,127,80.0
1872,B4,79.25,0.125,127,80.0
1873,B-5,79.25,0.125,127,80.0
1874,E-4,79.25,0.125,127,80.0
1875,G#3,79.25,0.125,127,80.0
1876,B4,79.375,0.125,127,80.0
1877,B-5,79.375,0.125,127,80.0
1878,E-4,79.375,0.125,127,80.0
1879,G#3,79.375,0.125,127,80.0
1880,E-3,79.5,0.5,127,80.0
1881,B4,79.5,0.125,127,80.0
1882,B-5,79.5,0.125,127,80.0
1883,E-4,79.5,0.125,127,80.0
1884,G#3,79.5,0.125,127,80.0
1885,B4,79.625,0.125,127,80.0
1886,B-5,79.625,0.125,127,80.0
1887,E-4,79.625,0.125,127,80.0
1888,G#3,79.625,0.125,127,80.0
1889,B4,79.75,0.125,127,80.0
1890,B-5,79.75,0.125,127,80.0
1891,E-4,79.75,0.125,127,80.0
1892,G#3,79.75,0.125,127,80.0
1893,B4,79.875,0.125,127,80.0
1894,B-5,79.875,0.125,127,80.0
1895,E-4,79.875,0.125,127,80.0
1896,G#3,79.875,0.125,127,80.0
1897,E-3,80.0,167/1000,127,80.0
1898,B4,80.0,0.125,127,80.0
1899,B-5,80.0,0.125,127,80.0
1900,E-4,80.0,0.125,127,80.0
1901,G#3,80.0,0.125,127,80.0
1902,B4,80.125,0.125,127,80.0
1903,B-5,80.125,0.125,127,80.0
1904,E-4,80.125,0.125,127,80.0
1905,G#3,80.125,0.125,127,80.0
1906,C3,80.167,167/1000,127,80.0
1907,B2,80.167,167/1000,127,80.0
1908,B4,80.25,0.125,127,80.0
1909,B-5,80.25,0.125,127,80.0
1910,E-4,80.25,0.125,127,80.0
1911,G#3,80.25,0.125,127,80.0
1912,C3,80.333,167/1000,127,80.0
1913,B2,80.333,167/1000,127,80.0
1914,B4,80.375,31/250,127,80.0
1915,B-5,80.375,0.125,127,80.0
1916,E-4,80.375,0.125,127,80.0
1917,G#3,80.375,0.125,127,80.0
1918,F#4,80.5,0.5,127,80.0
1919,F#4,80.5,0.5,127,80.0
1920,F#4,80.5,0.5,127,80.0
1921,F#2,80.5,0.5,127,80.0
1922,F#4,80.5,0.125,127,80.0
1923,B-5,80.5,0.125,127,80.0
1924,F#5,80.5,0.5,127,80.0
1925,G2,80.5,0.25,127,80.0
1926,F2,80.5,0.25,127,80.0
1927,E-4,80.5,0.125,127,80.0
1928,G#3,80.5,0.125,127,80.0
1929,F#4,80.625,0.125,127,80.0
1930,B-5,80.625,0.125,127,80.0
1931,E-4,80.625,0.125,127,80.0
1932,G#3,80.625,0.125,127,80.0
1933,F2,80.75,0.25,127,80.0
1934,F#4,80.75,0.125,127,80.0
1935,B-5,80.75,0.125,127,80.0
1936,E-4,80.75,0.125,127,80.0
1937,G#3,80.75,0.125,127,80.0
1938,F#4,80.875,31/250,127,80.0
1939,B-5,80.875,31/250,127,80.0
1940,E-4,80.875,0.125,127,80.0
1941,G#3,80.875,0.125,127,80.0
1942,G#4,81.0,3.0,127,80.0
1943,G#4,81.0,2.0,127,80.0
1944,F#4,81.0,2.0,127,80.0
1945,G#2,81.0,2.0,127,80.0
1946,G#4,81.0,3.0,127,80.0
1947,G#2,81.0,2.25,127,80.0
1948,G#4,81.0,0.125,127,80.0
1949,B-5,81.0,0.125,127,80.0
1950,G#5,81.0,3.0,127,80.0
1951,E-4,81.0,2.0,127,80.0
1952,B4,81.0,2.0,127,80.0
1953,E-3,81.0,0.5,127,80.0
1954,C#3,81.0,0.5,127,80.0
1955,B1,81.0,0.5,127,80.0
1956,E-4,81.0,0.125,127,80.0
1957,G#3,81.0,0.125,127,80.0
1958,G#4,81.125,0.125,127,80.0
1959,B-5,81.125,0.125,127,80.0
1960,E-4,81.125,0.125,127,80.0
1961,G#3,81.125,0.125,127,80.0
1962,G#4,81.25,0.125,127,80.0
1963,B-5,81.25,0.125,127,80.0
1964,E-4,81.25,0.125,127,80.0
1965,G#3,81.25,0.125,127,80.0
1966,G#4,81.375,0.125,127,80.0
1967,B-5,81.375,0.125,127,80.0
1968,E-4,81.375,0.125,127,80.0
1969,G#3,81.375,0.125,127,80.0
1970,G#4,81.5,0.125,127,80.0
1971,B-5,81.5,0.125,127,80.0
1972,E-3,81.5,0.25,127,80.0
1973,D2,81.5,0.25,127,80.0
1974,E-4,81.5,0.125,127,80.0
1975,G#3,81.5,0.125,127,80.0
1976,G#4,81.625,0.125,127,80.0
1977,B-5,81.625,0.125,127,80.0
1978,E-4,81.625,0.125,127,80.0
1979,G#3,81.625,0.125,127,80.0
1980,G#4,81.75,0.125,127,80.0
1981,B-5,81.75,0.125,127,80.0
1982,E-3,81.75,0.25,127,80.0
1983,D3,81.75,0.25,127,80.0
1984,E-4,81.75,0.125,127,80.0
1985,G#3,81.75,0.125,127,80.0
1986,G#4,81.875,0.125,127,80.0
1987,B-5,81.875,0.125,127,80.0
1988,E-4,81.875,0.125,127,80.0
1989,G#3,81.875,0.125,127,80.0
1990,D2,82.0,0.125,127,80.0
1991,G#4,82.0,0.125,127,80.0
1992,B-5,82.0,0.125,127,80.0
1993,E-4,82.0,0.125,127,80.0
1994,G#3,82.0,0.125,127,80.0
1995,G#4,82.125,0.125,127,80.0
1996,B-5,82.125,0.125,127,80.0
1997,A2,82.125,0.125,127,80.0
1998,G2,82.125,0.125,127,80.0
1999,E-4,82.125,0.125,127,80.0
2000,G#3,82.125,0.125,127,80.0
2001,G#4,82.25,0.125,127,80.0
2002,B-5,82.25,0.125,127,80.0
2003,A2,82.25,0.25,127,80.0
2004,G2,82.25,0.25,127,80.0
2005,E-4,82.25,0.125,127,80.0
2006,G#3,82.25,0.125,127,80.0
2007,G#4,82.375,0.125,127,80.0
2008,B-5,82.375,0.125,127,80.0
2009,E-4,82.375,0.125,127,80.0
2010,G#3,82.375,0.125,127,80.0
2011,G#4,82.5,0.125,127,80.0
2012,B-5,82.5,0.125,127,80.0
2013,A2,82.5,0.25,127,80.0
2014,G2,82.5,0.25,127,80.0
2015,E-4,82.5,0.125,127,80.0
2016,G#3,82.5,0.125,127,80.0
2017,G#4,82.625,0.125,127,80.0
2018,B-5,82.625,0.125,127,80.0
2019,E-4,82.625,0.125,127,80.0
2020,G#3,82.625,0.125,127,80.0
2021,D2,82.75,0.125,127,80.0
2022,G#4,82.75,0.125,127,80.0
2023,B-5,82.75,0.125,127,80.0
2024,E-4,82.75,0.125,127,80.0
2025,G#3,82.75,0.125,127,80.0
2026,G#4,82.875,0.125,127,80.0
2027,B-5,82.875,0.125,127,80.0
2028,F2,82.875,0.125,127,80.0
2029,D2,82.875,0.125,127,80.0
2030,E-4,82.875,0.125,127,80.0
2031,G#3,82.875,0.125,127,80.0
2032,G2,83.0,167/1000,127,80.0
2033,G#4,83.0,0.125,127,80.0
2034,B-5,83.0,0.125,127,80.0
2035,B4,83.0,1.0,127,80.0
2036,F#4,83.0,1.0,127,80.0
2037,E-4,83.0,1.0,127,80.0
2038,E-4,83.0,0.125,127,80.0
2039,G#3,83.0,0.125,127,80.0
2040,G#4,83.125,0.125,127,80.0
2041,B-5,83.125,0.125,127,80.0
2042,E-4,83.125,0.125,127,80.0
2043,G#3,83.125,0.125,127,80.0
2044,C3,83.167,167/1000,127,80.0
2045,C#2,83.25,0.25,127,80.0
2046,G#4,83.25,0.125,127,80.0
2047,B-5,83.25,0.125,127,80.0
2048,E-4,83.25,0.125,127,80.0
2049,G#3,83.25,0.125,127,80.0
2050,F2,83.333,167/1000,127,80.0
2051,G#4,83.375,0.125,127,80.0
2052,B-5,83.375,0.125,127,80.0
2053,E-4,83.375,0.125,127,80.0
2054,G#3,83.375,0.125,127,80.0
2055,E-2,83.5,0.5,127,80.0
2056,G#4,83.5,0.125,127,80.0
2057,B-5,83.5,0.125,127,80.0
2058,A2,83.5,0.25,127,80.0
2059,G2,83.5,0.25,127,80.0
2060,E-4,83.5,0.125,127,80.0
2061,G#3,83.5,0.125,127,80.0
2062,G#4,83.625,0.125,127,80.0
2063,B-5,83.625,0.125,127,80.0
2064,E-4,83.625,0.125,127,80.0
2065,G#3,83.625,0.125,127,80.0
2066,F2,83.75,0.25,127,80.0
2067,G#4,83.75,0.125,127,80.0
2068,B-5,83.75,0.125,127,80.0
2069,E-4,83.75,0.125,127,80.0
2070,G#3,83.75,0.125,127,80.0
2071,G#4,83.875,31/250,127,80.0
2072,B-5,83.875,31/250,127,80.0
2073,E-4,83.875,31/250,127,80.0
2074,G#3,83.875,31/250,127,80.0
2075,G2,84.0,1.0,127,80.0
2076,G2,84.0,3.0,127,80.0
2077,G3,84.0,1.0,127,80.0
2078,G1,84.0,1.0,127,80.0
2079,B3,84.0,0.5,127,80.0
2080,A3,84.0,0.5,127,80.0
2081,B1,84.0,0.5,127,80.0
2082,D4,84.0,0.125,127,80.0
2083,G3,84.0,0.125,127,80.0
2084,D4,84.125,0.125,127,80.0
2085,G3,84.125,0.125,127,80.0
2086,D4,84.25,0.125,127,80.0
2087,G3,84.25,0.125,127,80.0
2088,D4,84.375,0.125,127,80.0
2089,G3,84.375,0.125,127,80.0
2090,B3,84.5,0.25,127,80.0
2091,D4,84.5,0.125,127,80.0
2092,G3,84.5,0.125,127,80.0
2093,D4,84.625,0.125,127,80.0
2094,G3,84.625,0.125,127,80.0
2095,B1,84.75,0.25,127,80.0
2096,D4,84.75,0.125,127,80.0
2097,G3,84.75,0.125,127,80.0
2098,D4,84.875,31/250,127,80.0
2099,G3,84.875,31/250,127,80.0
2100,G4,85.0,0.5,127,80.0
2101,G4,85.0,0.5,127,80.0
2102,G4,85.0,0.5,127,80.0
2103,G2,85.0,0.5,127,80.0
2104,G4,85.0,0.5,127,80.0
2105,G5,85.0,0.5,127,80.0
2106,G5,85.0,1.0,127,80.0
2107,G4,85.0,0.5,127,80.0
2108,D4,85.0,1.0,127,80.0
2109,B-3,85.0,1.0,127,80.0
2110,G4,85.0,1.0,127,80.0
2111,F3,85.0,0.5,127,80.0
2112,D2,85.0,0.5,127,80.0
2113,D4,85.0,0.25,127,80.0
2114,G3,85.0,0.25,127,80.0
2115,F3,85.5,0.25,127,80.0
2116,D4,85.5,0.25,127,80.0
2117,G3,85.5,0.25,127,80.0
2118,B1,85.75,0.25,127,80.0
2119,D4,85.75,0.25,127,80.0
2120,G3,85.75,0.25,127,80.0
2121,G4,86.0,0.5,127,80.0
2122,G4,86.0,0.5,127,80.0
2123,G2,86.0,0.5,127,80.0
2124,G4,86.0,0.5,127,80.0
2125,G5,86.0,0.5,127,80.0
2126,G5,86.0,1.0,127,80.0
2127,G4,86.0,0.5,127,80.0
2128,G4,86.0,0.5,127,80.0
2129,D4,86.0,0.5,127,80.0
2130,B-3,86.0,0.5,127,80.0
2131,G4,86.0,0.5,127,80.0
2132,F3,86.0,0.5,127,80.0
2133,D2,86.0,0.5,127,80.0
2134,D4,86.0,0.25,127,80.0
2135,G3,86.0,0.25,127,80.0
2136,F3,86.5,0.25,127,80.0
2137,D4,86.5,0.25,127,80.0
2138,G3,86.5,0.25,127,80.0
2139,B1,86.75,0.25,127,80.0
2140,D4,86.75,0.25,127,80.0
2141,G3,86.75,0.25,127,80.0
2142,G4,87.0,3.0,127,80.0
2143,G2,87.0,3.0,127,80.0
2144,G4,87.0,3.0,127,80.0
2145,G2,87.0,1.5,127,80.0
2146,G4,87.0,0.125,127,80.0
2147,G5,87.0,0.125,127,80.0
2148,G5,87.0,3.0,127,80.0
2149,G4,87.0,3.0,127,80.0
2150,G5,87.0,3.0,127,80.0
2151,G4,87.0,3.0,127,80.0
2152,D4,87.0,3.0,127,80.0
2153,B-3,87.0,3.0,127,80.0
2154,F3,87.0,0.5,127,80.0
2155,B1,87.0,0.5,127,80.0
2156,D4,87.0,0.125,127,80.0
2157,G3,87.0,0.125,127,80.0
2158,G4,87.125,0.125,127,80.0
2159,G5,87.125,0.125,127,80.0
2160,D4,87.125,0.125,127,80.0
2161,G3,87.125,0.125,127,80.0
2162,G4,87.25,0.125,127,80.0
2163,G5,87.25,0.125,127,80.0
2164,D4,87.25,0.125,127,80.0
2165,G3,87.25,0.125,127,80.0
2166,G4,87.375,0.125,127,80.0
2167,G5,87.375,0.125,127,80.0
2168,D4,87.375,0.125,127,80.0
2169,G3,87.375,0.125,127,80.0
2170,F3,87.5,0.5,127,80.0
2171,G4,87.5,0.125,127,80.0
2172,G5,87.5,0.125,127,80.0
2173,D4,87.5,0.125,127,80.0
2174,G3,87.5,0.125,127,80.0
2175,G4,87.625,0.125,127,80.0
2176,G5,87.625,0.125,127,80.0
2177,D4,87.625,0.125,127,80.0
2178,G3,87.625,0.125,127,80.0
2179,G4,87.75,0.125,127,80.0
2180,G5,87.75,0.125,127,80.0
2181,D4,87.75,0.125,127,80.0
2182,G3,87.75,0.125,127,80.0
2183,G4,87.875,0.125,127,80.0
2184,G5,87.875,0.125,127,80.0
2185,D4,87.875,0.125,127,80.0
2186,G3,87.875,0.125,127,80.0
2187,F3,88.0,0.25,127,80.0
2188,G4,88.0,0.125,127,80.0
2189,G5,88.0,0.125,127,80.0
2190,D4,88.0,0.125,127,80.0
2191,G3,88.0,0.125,127,80.0
2192,G4,88.125,0.125,127,80.0
2193,G5,88.125,0.125,127,80.0
2194,D4,88.125,0.125,127,80.0
2195,G3,88.125,0.125,127,80.0
2196,B1,88.25,0.25,127,80.0
2197,G4,88.25,0.125,127,80.0
2198,G5,88.25,0.125,127,80.0
2199,D4,88.25,0.125,127,80.0
2200,G3,88.25,0.125,127,80.0
2201,G4,88.375,0.125,127,80.0
2202,G5,88.375,0.125,127,80.0
2203,D4,88.375,0.125,127,80.0
2204,G3,88.375,0.125,127,80.0
2205,D2,88.5,0.25,127,80.0
2206,G4,88.5,0.125,127,80.0
2207,G5,88.5,0.125,127,80.0
2208,F3,88.5,0.375,127,80.0
2209,D2,88.5,0.375,127,80.0
2210,D4,88.5,0.125,127,80.0
2211,G3,88.5,0.125,127,80.0
2212,G4,88.625,0.125,127,80.0
2213,G5,88.625,0.125,127,80.0
2214,D4,88.625,0.125,127,80.0
2215,G3,88.625,0.125,127,80.0
2216,F2,88.75,0.25,127,80.0
2217,G4,88.75,0.125,127,80.0
2218,G5,88.75,0.125,127,80.0
2219,D4,88.75,0.125,127,80.0
2220,G3,88.75,0.125,127,80.0
2221,B2,88.875,0.125,127,80.0
2222,G4,88.875,0.125,127,80.0
2223,G5,88.875,31/250,127,80.0
2224,D4,88.875,0.125,127,80.0
2225,G3,88.875,0.125,127,80.0
2226,G2,89.0,0.25,127,80.0
2227,G4,89.0,0.125,127,80.0
2228,G5,89.0,0.125,127,80.0
2229,F3,89.0,167/1000,127,80.0
2230,C3,89.0,167/1000,127,80.0
2231,D4,89.0,0.125,127,80.0
2232,G3,89.0,0.125,127,80.0
2233,G4,89.125,0.125,127,80.0
2234,F5,89.125,0.125,127,80.0
2235,D4,89.125,0.125,127,80.0
2236,G3,89.125,0.125,127,80.0
2237,A2,89.167,167/1000,127,80.0
2238,G2,89.167,167/1000,127,80.0
2239,F2,89.25,0.25,127,80.0
2240,G4,89.25,0.125,127,80.0
2241,G5,89.25,0.125,127,80.0
2242,D4,89.25,0.125,127,80.0
2243,G3,89.25,0.125,127,80.0
2244,G2,89.333,167/1000,127,80.0
2245,G4,89.375,0.125,127,80.0
2246,D5,89.375,0.125,127,80.0
2247,D4,89.375,0.125,127,80.0
2248,G3,89.375,0.125,127,80.0
2249,D2,89.5,0.25,127,80.0
2250,F2,89.5,0.125,127,80.0
2251,G4,89.5,0.125,127,80.0
2252,C5,89.5,0.125,127,80.0
2253,D4,89.5,0.125,127,80.0
2254,G3,89.5,0.125,127,80.0
2255,F2,89.625,0.125,127,80.0
2256,G4,89.625,0.125,127,80.0
2257,D5,89.625,0.125,127,80.0
2258,D4,89.625,0.125,127,80.0
2259,G3,89.625,0.125,127,80.0
2260,C2,89.75,0.25,127,80.0
2261,D2,89.75,0.125,127,80.0
2262,G4,89.75,0.125,127,80.0
2263,B-4,89.75,0.125,127,80.0
2264,D4,89.75,0.125,127,80.0
2265,G3,89.75,0.125,127,80.0
2266,D2,89.875,0.125,127,80.0
2267,G4,89.875,31/250,127,80.0
2268,C5,89.875,0.125,127,80.0
2269,D4,89.875,31/250,127,80.0
2270,G3,89.875,31/250,127,80.0
2271,G4,90.0,0.5,127,80.0
2272,G2,90.0,3.0,127,80.0
2273,G4,90.0,0.5,127,80.0
2274,G1,90.0,1.0,127,80.0
2275,G4,90.0,0.5,127,80.0
2276,D4,90.0,0.25,127,80.0
2277,G4,90.0,0.125,127,80.0
2278,E-3,90.0,0.5,127,80.0
2279,C#3,90.0,0.5,127,80.0
2280,B1,90.0,0.5,127,80.0
2281,G4,90.125,0.125,127,80.0
2282,G4,90.25,0.125,127,80.0
2283,G4,90.375,0.125,127,80.0
2284,E-3,90.5,0.25,127,80.0
2285,G3,90.5,0.25,127,80.0
2286,G4,90.5,0.125,127,80.0
2287,G4,90.625,0.125,127,80.0
2288,B1,90.75,0.25,127,80.0
2289,G4,90.75,0.125,127,80.0
2290,G4,90.875,31/250,127,80.0
2291,G4,91.0,2.0,127,80.0
2292,G4,91.0,2.0,127,80.0
2293,G2,91.0,2.0,127,80.0
2294,G4,91.0,0.125,127,80.0
2295,G5,91.0,0.125,127,80.0
2296,G5,91.0,2.0,127,80.0
2297,G4,91.0,2.0,127,80.0
2298,G4,91.0,2.0,127,80.0
2299,D4,91.0,2.0,127,80.0
2300,B-3,91.0,2.0,127,80.0
2301,G4,91.0,2.0,127,80.0
2302,E-3,91.0,0.5,127,80.0
2303,C#3,91.0,0.5,127,80.0
2304,D3,91.0,0.5,127,80.0
2305,D2,91.0,0.5,127,80.0
2306,D4,91.0,0.125,127,80.0
2307,G3,91.0,0.125,127,80.0
2308,G4,91.125,0.125,127,80.0
2309,G5,91.125,0.125,127,80.0
2310,D4,91.125,0.125,127,80.0
2311,G3,91.125,0.125,127,80.0
2312,G4,91.25,0.125,127,80.0
2313,G5,91.25,0.125,127,80.0
2314,D4,91.25,0.125,127,80.0
2315,G3,91.25,0.125,127,80.0
2316,G4,91.375,0.125,127,80.0
2317,G5,91.375,0.125,127,80.0
2318,D4,91.375,0.125,127,80.0
2319,G3,91.375,0.125,127,80.0
2320,E-3,91.5,0.5,127,80.0
2321,G4,91.5,0.125,127,80.0
2322,G5,91.5,0.125,127,80.0
2323,D4,91.5,0.125,127,80.0
2324,G3,91.5,0.125,127,80.0
2325,G4,91.625,0.125,127,80.0
2326,G5,91.625,0.125,127,80.0
2327,D4,91.625,0.125,127,80.0
2328,G3,91.625,0.125,127,80.0
2329,G4,91.75,0.125,127,80.0
2330,G5,91.75,0.125,127,80.0
2331,D4,91.75,0.125,127,80.0
2332,G3,91.75,0.125,127,80.0
2333,G4,91.875,0.125,127,80.0
2334,G5,91.875,0.125,127,80.0
2335,D4,91.875,0.125,127,80.0
2336,G3,91.875,0.125,127,80.0
2337,E-3,92.0,0.5,127,80.0
2338,G4,92.0,0.125,127,80.0
2339,G5,92.0,0.125,127,80.0
2340,D4,92.0,0.125,127,80.0
2341,G3,92.0,0.125,127,80.0
2342,G4,92.125,0.125,127,80.0
2343,G5,92.125,0.125,127,80.0
2344,D4,92.125,0.125,127,80.0
2345,G3,92.125,0.125,127,80.0
2346,G4,92.25,0.125,127,80.0
2347,G5,92.25,0.125,127,80.0
2348,D4,92.25,0.125,127,80.0
2349,G3,92.25,0.125,127,80.0
2350,G4,92.375,0.125,127,80.0
2351,G5,92.375,0.125,127,80.0
2352,D4,92.375,0.125,127,80.0
2353,G3,92.375,0.125,127,80.0
2354,E-3,92.5,0.25,127,80.0
2355,G4,92.5,0.125,127,80.0
2356,G5,92.5,0.125,127,80.0
2357,D4,92.5,0.125,127,80.0
2358,G3,92.5,0.125,127,80.0
2359,G4,92.625,0.125,127,80.0
2360,G5,92.625,0.125,127,80.0
2361,D4,92.625,0.125,127,80.0
2362,G3,92.625,0.125,127,80.0
2363,D2,92.75,0.125,127,80.0
2364,G4,92.75,0.125,127,80.0
2365,G5,92.75,0.125,127,80.0
2366,D4,92.75,0.125,127,80.0
2367,G3,92.75,0.125,127,80.0
2368,D2,92.875,0.125,127,80.0
2369,G4,92.875,31/250,127,80.0
2370,G5,92.875,31/250,127,80.0
2371,D4,92.875,31/250,127,80.0
2372,G3,92.875,31/250,127,80.0
2373,G4,93.0,167/1000,127,80.0
2374,G2,93.0,333/1000,127,80.0
2375,G4,93.0,167/1000,127,80.0
2376,G2,93.0,333/1000,127,80.0
2377,D2,93.0,333/1000,127,80.0
2378,G4,93.0,167/1000,127,80.0
2379,G3,93.0,167/1000,127,80.0
2380,G5,93.0,167/1000,127,80.0
2381,G5,93.0,333/1000,127,80.0
2382,G4,93.0,167/1000,127,80.0
2383,G4,93.0,333/1000,127,80.0
2384,D4,93.0,333/1000,127,80.0
2385,B-3,93.0,333/1000,127,80.0
2386,G4,93.0,333/1000,127,80.0
2387,G4,93.333,167/1000,127,80.0
2388,G4,93.333,167/1000,127,80.0
2389,G2,93.333,333/1000,127,80.0
2390,G4,93.333,167/1000,127,80.0
2391,G5,93.333,167/1000,127,80.0
2392,G5,93.333,333/1000,127,80.0
2393,G4,93.333,167/1000,127,80.0
2394,G4,93.333,333/1000,127,80.0
2395,D4,93.333,333/1000,127,80.0
2396,B-3,93.333,333/1000,127,80.0
2397,G4,93.333,333/1000,127,80.0
2398,E-3,93.333,333/1000,127,80.0
2399,C#3,93.333,333/1000,127,80.0
2400,B1,93.333,333/1000,127,80.0
2401,D4,93.333,167/1000,127,80.0
2402,G3,93.333,167/1000,127,80.0
2403,D4,93.667,167/1000,127,80.0
2404,D4,93.667,333/1000,127,80.0
2405,D4,93.667,167/1000,127,80.0
2406,D2,93.667,333/1000,127,80.0
2407,D4,93.667,167/1000,127,80.0
2408,G3,93.667,167/1000,127,80.0
2409,D5,93.667,167/1000,127,80.0
2410,D5,93.667,333/1000,127,80.0
2411,D4,93.667,167/1000,127,80.0
2412,B3,93.667,333/1000,127,80.0
2413,A3,93.667,333/1000,127,80.0
2414,B1,93.667,333/1000,127,80.0
2415,G4,94.0,2.0,127,80.0
2416,G4,94.0,2.0,127,80.0
2417,G2,94.0,2.0,127,80.0
2418,G4,94.0,0.125,127,80.0
2419,G5,94.0,0.125,127,80.0
2420,G5,94.0,2.0,127,80.0
2421,G4,94.0,2.0,127,80.0
2422,G4,94.0,2.0,127,80.0
2423,D4,94.0,2.0,127,80.0
2424,B-3,94.0,2.0,127,80.0
2425,G4,94.0,2.0,127,80.0
2426,B3,94.0,0.5,127,80.0
2427,C#3,94.0,0.5,127,80.0
2428,B1,94.0,0.5,127,80.0
2429,D4,94.0,0.125,127,80.0
2430,G3,94.0,0.125,127,80.0
2431,G4,94.125,0.125,127,80.0
2432,G5,94.125,0.125,127,80.0
2433,D4,94.125,0.125,127,80.0
2434,G3,94.125,0.125,127,80.0
2435,G4,94.25,0.125,127,80.0
2436,G5,94.25,0.125,127,80.0
2437,D4,94.25,0.125,127,80.0
2438,G3,94.25,0.125,127,80.0
2439,G4,94.375,0.125,127,80.0
2440,G5,94.375,0.125,127,80.0
2441,D4,94.375,0.125,127,80.0
2442,G3,94.375,0.125,127,80.0
2443,G4,94.5,0.125,127,80.0
2444,G5,94.5,0.125,127,80.0
2445,B3,94.5,0.25,127,80.0
2446,G3,94.5,0.25,127,80.0
2447,D4,94.5,0.125,127,80.0
2448,G3,94.5,0.125,127,80.0
2449,G4,94.625,0.125,127,80.0
2450,G5,94.625,0.125,127,80.0
2451,D4,94.625,0.125,127,80.0
2452,G3,94.625,0.125,127,80.0
2453,D2,94.75,0.125,127,80.0
2454,G4,94.75,0.125,127,80.0
2455,G5,94.75,0.125,127,80.0
2456,D4,94.75,0.125,127,80.0
2457,G3,94.75,0.125,127,80.0
2458,G4,94.875,0.125,127,80.0
2459,G5,94.875,0.125,127,80.0
2460,F2,94.875,0.125,127,80.0
2461,D2,94.875,0.125,127,80.0
2462,D4,94.875,0.125,127,80.0
2463,G3,94.875,0.125,127,80.0
2464,D2,95.0,0.25,127,80.0
2465,G4,95.0,0.125,127,80.0
2466,G5,95.0,0.125,127,80.0
2467,D4,95.0,0.125,127,80.0
2468,G3,95.0,0.125,127,80.0
2469,G4,95.125,0.125,127,80.0
2470,G5,95.125,0.125,127,80.0
2471,D4,95.125,0.125,127,80.0
2472,G3,95.125,0.125,127,80.0
2473,G4,95.25,0.125,127,80.0
2474,G5,95.25,0.125,127,80.0
2475,C3,95.25,0.25,127,80.0
2476,B2,95.25,0.25,127,80.0
2477,D4,95.25,0.125,127,80.0
2478,G3,95.25,0.125,127,80.0
2479,G4,95.375,0.125,127,80.0
2480,G5,95.375,0.125,127,80.0
2481,D4,95.375,0.125,127,80.0
2482,G3,95.375,0.125,127,80.0
2483,G2,95.5,0.25,127,80.0
2484,G4,95.5,0.125,127,80.0
2485,G5,95.5,0.125,127,80.0
2486,D4,95.5,0.125,127,80.0
2487,G3,95.5,0.125,127,80.0
2488,G4,95.625,0.125,127,80.0
2489,G5,95.625,0.125,127,80.0
2490,D4,95.625,0.125,127,80.0
2491,G3,95.625,0.125,127,80.0
2492,G4,95.75,0.125,127,80.0
2493,G5,95.75,0.125,127,80.0
2494,G2,95.75,0.25,127,80.0
2495,F2,95.75,0.25,127,80.0
2496,D4,95.75,0.125,127,80.0
2497,G3,95.75,0.125,127,80.0
2498,G4,95.875,31/250,127,80.0
2499,G5,95.875,31/250,127,80.0
2500,D4,95.875,31/250,127,80.0
2501,G3,95.875,31/250,127,80.0
2502,F#3,96.0,2.0,127,80.0
2503,F#2,96.0,3.0,127,80.0
2504,F#4,96.0,2.0,127,80.0
2505,F#3,96.0,2.0,127,80.0
2506,G#2,96.0,1.0,127,80.0
2507,C#3,96.0,1.0,127,80.0
2508,B1,96.0,1.0,127,80.0
2509,F#4,96.0,0.125,127,80.0
2510,C#4,96.0,0.125,127,80.0
2511,F#4,96.0,3.0,127,80.0
2512,F#3,96.0,3.0,127,80.0
2513,F#4,96.125,0.125,127,80.0
2514,C#4,96.125,0.125,127,80.0
2515,F#4,96.25,0.125,127,80.0
2516,C#4,96.25,0.125,127,80.0
2517,F#4,96.375,0.125,127,80.0
2518,C#4,96.375,0.125,127,80.0
2519,F#4,96.5,0.125,127,80.0
2520,C#4,96.5,0.125,127,80.0
2521,F#4,96.625,0.125,127,80.0
2522,C#4,96.625,0.125,127,80.0
2523,F#4,96.75,0.125,127,80.0
2524,C#4,96.75,0.125,127,80.0
2525,F#4,96.875,0.125,127,80.0
2526,C#4,96.875,0.125,127,80.0
2527,G#2,97.0,1.0,127,80.0
2528,F#4,97.0,0.125,127,80.0
2529,C#4,97.0,0.125,127,80.0
2530,F#4,97.125,0.125,127,80.0
2531,C#4,97.125,0.125,127,80.0
2532,F#4,97.25,0.125,127,80.0
2533,C#4,97.25,0.125,127,80.0
2534,F#4,97.375,0.125,127,80.0
2535,C#4,97.375,0.125,127,80.0
2536,F#4,97.5,0.125,127,80.0
2537,C#4,97.5,0.125,127,80.0
2538,F#4,97.625,0.125,127,80.0
2539,C#4,97.625,0.125,127,80.0
2540,F#4,97.75,0.125,127,80.0
2541,C#4,97.75,0.125,127,80.0
2542,F#4,97.875,0.125,127,80.0
2543,C#4,97.875,0.125,127,80.0
2544,G#2,98.0,0.25,127,80.0
2545,F#4,98.0,0.125,127,80.0
2546,C#4,98.0,0.125,127,80.0
2547,F#4,98.125,0.125,127,80.0
2548,C#4,98.125,0.125,127,80.0
2549,C4,98.25,0.25,127,80.0
2550,C5,98.25,0.25,127,80.0
2551,C4,98.25,0.25,127,80.0
2552,C3,98.25,0.25,127,80.0
2553,C6,98.25,0.25,127,80.0
2554,C5,98.25,0.25,127,80.0
2555,F#4,98.25,0.125,127,80.0
2556,C#4,98.25,0.125,127,80.0
2557,F#4,98.375,0.125,127,80.0
2558,C#4,98.375,0.125,127,80.0
2559,A3,98.5,0.25,127,80.0
2560,A4,98.5,0.25,127,80.0
2561,A3,98.5,0.25,127,80.0
2562,A2,98.5,0.25,127,80.0
2563,A5,98.5,0.25,127,80.0
2564,A4,98.5,0.25,127,80.0
2565,F#4,98.5,0.125,127,80.0
2566,C#4,98.5,0.125,127,80.0
2567,F#4,98.625,0.125,127,80.0
2568,C#4,98.625,0.125,127,80.0
2569,B3,98.75,0.25,127,80.0
2570,B4,98.75,0.25,127,80.0
2571,B3,98.75,0.25,127,80.0
2572,B2,98.75,0.25,127,80.0
2573,B5,98.75,0.25,127,80.0
2574,B4,98.75,0.25,127,80.0
2575,F#4,98.75,0.125,127,80.0
2576,C#4,98.75,0.125,127,80.0
2577,F#4,98.875,0.125,127,80.0
2578,C#4,98.875,0.125,127,80.0
2579,G#3,99.0,1/5,127,80.0
2580,G#4,99.0,1/5,127,80.0
2581,G#3,99.0,1/5,127,80.0
2582,F#2,99.0,3.0,127,80.0
2583,G#2,99.0,1/5,127,80.0
2584,G#5,99.0,1/5,127,80.0
2585,G#4,99.0,1/5,127,80.0
2586,F#4,99.0,0.125,127,80.0
2587,C#4,99.0,0.125,127,80.0
2588,F#4,99.125,0.125,127,80.0
2589,C#4,99.125,0.125,127,80.0
2590,C4,99.2,1/5,127,80.0
2591,C5,99.2,1/5,127,80.0
2592,C4,99.2,1/5,127,80.0
2593,B-2,99.2,1/5,127,80.0
2594,C6,99.2,1/5,127,80.0
2595,C5,99.2,1/5,127,80.0
2596,F#4,99.25,0.125,127,80.0
2597,C#4,99.25,0.125,127,80.0
2598,F#4,99.375,0.125,127,80.0
2599,C#4,99.375,0.125,127,80.0
2600,E4,99.4,1/5,127,80.0
2601,E5,99.4,1/5,127,80.0
2602,E4,99.4,1/5,127,80.0
2603,B1,99.4,1/5,127,80.0
2604,E6,99.4,1/5,127,80.0
2605,E5,99.4,1/5,127,80.0
2606,F#4,99.5,0.125,127,80.0
2607,C#4,99.5,0.125,127,80.0
2608,E4,99.6,1/5,127,80.0
2609,E5,99.6,1/5,127,80.0
2610,E4,99.6,1/5,127,80.0
2611,F#2,99.6,1/5,127,80.0
2612,E6,99.6,1/5,127,80.0
2613,E5,99.6,1/5,127,80.0
2614,F#4,99.625,0.125,127,80.0
2615,C#4,99.625,0.125,127,80.0
2616,F#4,99.75,0.125,127,80.0
2617,C#4,99.75,0.125,127,80.0
2618,G#4,99.8,1/5,127,80.0
2619,G#5,99.8,1/5,127,80.0
2620,G#4,99.8,1/5,127,80.0
2621,C3,99.8,1/5,127,80.0
2622,G#6,99.8,1/5,127,80.0
2623,G#5,99.8,1/5,127,80.0
2624,F#4,99.875,0.125,127,80.0
2625,C#4,99.875,0.125,127,80.0
2626,F#4,100.0,1/5,127,80.0
2627,F#5,100.0,1/5,127,80.0
2628,F#4,100.0,1/5,127,80.0
2629,F#6,100.0,1/5,127,80.0
2630,F#5,100.0,1/5,127,80.0
2631,B3,100.0,1/5,127,80.0
2632,F2,100.0,1/5,127,80.0
2633,F#4,100.0,0.125,127,80.0
2634,C#4,100.0,0.125,127,80.0
2635,F#4,100.125,0.125,127,80.0
2636,C#4,100.125,0.125,127,80.0
2637,B4,100.2,1/5,127,80.0
2638,B5,100.2,1/5,127,80.0
2639,B4,100.2,1/5,127,80.0
2640,G2,100.2,1/5,127,80.0
2641,B6,100.2,1/5,127,80.0
2642,B5,100.2,1/5,127,80.0
2643,F#4,100.25,0.125,127,80.0
2644,C#4,100.25,0.125,127,80.0
2645,F#4,100.375,0.125,127,80.0
2646,C#4,100.375,0.125,127,80.0
2647,C4,100.4,1/5,127,80.0
2648,C5,100.4,1/5,127,80.0
2649,C4,100.4,1/5,127,80.0
2650,C6,100.4,1/5,127,80.0
2651,C5,100.4,1/5,127,80.0
2652,E-3,100.4,1/5,127,80.0
2653,C3,100.4,1/5,127,80.0
2654,F#4,100.5,0.125,127,80.0
2655,C#4,100.5,0.125,127,80.0
2656,G#3,100.6,1/5,127,80.0
2657,G#4,100.6,1/5,127,80.0
2658,G#3,100.6,1/5,127,80.0
2659,G#2,100.6,1/5,127,80.0
2660,G#5,100.6,1/5,127,80.0
2661,G#4,100.6,1/5,127,80.0
2662,F#4,100.625,0.125,127,80.0
2663,C#4,100.625,0.125,127,80.0
2664,F#4,100.75,0.125,127,80.0
2665,C#4,100.75,0.125,127,80.0
2666,C4,100.8,1/5,127,80.0
2667,C5,100.8,1/5,127,80.0
2668,C4,100.8,1/5,127,80.0
2669,E3,100.8,1/5,127,80.0
2670,C6,100.8,1/5,127,80.0
2671,C5,100.8,1/5,127,80.0
2672,F#4,100.875,0.125,127,80.0
2673,C#4,100.875,0.125,127,80.0
2674,G#4,101.0,0.25,127,80.0
2675,G#5,101.0,0.25,127,80.0
2676,G#4,101.0,0.25,127,80.0
2677,D2,101.0,1/5,127,80.0
2678,G#6,101.0,0.25,127,80.0
2679,G#5,101.0,0.25,127,80.0
2680,F#4,101.0,0.125,127,80.0
2681,C#4,101.0,0.125,127,80.0
2682,F#4,101.125,0.125,127,80.0
2683,C#4,101.125,0.125,127,80.0
2684,E-3,101.2,1/5,127,80.0
2685,C3,101.2,1/5,127,80.0
2686,B4,101.25,0.25,127,80.0
2687,B5,101.25,0.25,127,80.0
2688,B4,101.25,0.25,127,80.0
2689,B6,101.25,0.25,127,80.0
2690,B5,101.25,0.25,127,80.0
2691,F#4,101.25,0.125,127,80.0
2692,C#4,101.25,0.125,127,80.0
2693,F#4,101.375,0.125,127,80.0
2694,C#4,101.375,0.125,127,80.0
2695,B1,101.4,1/5,127,80.0
2696,F#4,101.5,0.25,127,80.0
2697,F#5,101.5,0.25,127,80.0
2698,F#4,101.5,0.25,127,80.0
2699,F#6,101.5,0.25,127,80.0
2700,F#5,101.5,0.25,127,80.0
2701,F#4,101.5,0.125,127,80.0
2702,C#4,101.5,0.125,127,80.0
2703,G2,101.6,1/5,127,80.0
2704,F#4,101.625,0.125,127,80.0
2705,C#4,101.625,0.125,127,80.0
2706,B4,101.75,0.25,127,80.0
2707,B5,101.75,0.25,127,80.0
2708,B4,101.75,0.25,127,80.0
2709,B6,101.75,0.25,127,80.0
2710,B5,101.75,0.25,127,80.0
2711,F#4,101.75,0.125,127,80.0
2712,C#4,101.75,0.125,127,80.0
2713,D2,101.8,1/5,127,80.0
2714,F#4,101.875,0.125,127,80.0
2715,C#4,101.875,0.125,127,80.0
2716,B4,102.0,1/5,127,80.0
2717,B5,102.0,1/5,127,80.0
2718,B4,102.0,1/5,127,80.0
2719,F#2,102.0,2.0,127,80.0
2720,D2,102.0,1/5,127,80.0
2721,B6,102.0,1/5,127,80.0
2722,B5,102.0,1/5,127,80.0
2723,F#4,102.0,0.125,127,80.0
2724,C#4,102.0,0.125,127,80.0
2725,F#4,102.125,0.125,127,80.0
2726,C#4,102.125,0.125,127,80.0
2727,C#4,102.2,1/5,127,80.0
2728,C#5,102.2,1/5,127,80.0
2729,C#4,102.2,1/5,127,80.0
2730,B1,102.2,1/5,127,80.0
2731,C#6,102.2,1/5,127,80.0
2732,C#5,102.2,1/5,127,80.0
2733,F#4,102.25,0.125,127,80.0
2734,C#4,102.25,0.125,127,80.0
2735,F#4,102.375,0.125,127,80.0
2736,C#4,102.375,0.125,127,80.0
2737,C#4,102.4,1/5,127,80.0
2738,C#5,102.4,1/5,127,80.0
2739,C#4,102.4,1/5,127,80.0
2740,F#2,102.4,1/5,127,80.0
2741,C#6,102.4,1/5,127,80.0
2742,C#5,102.4,1/5,127,80.0
2743,F#4,102.5,0.125,127,80.0
2744,C#4,102.5,0.125,127,80.0
2745,F#4,102.6,1/5,127,80.0
2746,F#5,102.6,1/5,127,80.0
2747,F#4,102.6,1/5,127,80.0
2748,D2,102.6,1/5,127,80.0
2749,F#6,102.6,1/5,127,80.0
2750,F#5,102.6,1/5,127,80.0
2751,F#4,102.625,0.125,127,80.0
2752,C#4,102.625,0.125,127,80.0
2753,F#4,102.75,0.125,127,80.0
2754,C#4,102.75,0.125,127,80.0
2755,F#4,102.8,1/5,127,80.0
2756,F#5,102.8,1/5,127,80.0
2757,F#4,102.8,1/5,127,80.0
2758,B-2,102.8,1/5,127,80.0
2759,F#6,102.8,1/5,127,80.0
2760,F#5,102.8,1/5,127,80.0
2761,F#4,102.875,0.125,127,80.0
2762,C#4,102.875,0.125,127,80.0
2763,F#4,103.0,1.5,127,80.0
2764,F#5,103.0,1.5,127,80.0
2765,F#4,103.0,2.0,127,80.0
2766,F#6,103.0,0.125,127,80.0
2767,F#5,103.0,1.5,127,80.0
2768,E-3,103.0,1.0,127,80.0
2769,B1,103.0,1.0,127,80.0
2770,F#4,103.0,0.125,127,80.0
2771,C#4,103.0,0.125,127,80.0
2772,F#6,103.125,0.125,127,80.0
2773,F#4,103.125,0.125,127,80.0
2774,C#4,103.125,0.125,127,80.0
2775,F#6,103.25,0.125,127,80.0
2776,F#4,103.25,0.125,127,80.0
2777,C#4,103.25,0.125,127,80.0
2778,F#6,103.375,0.125,127,80.0
2779,F#4,103.375,0.125,127,80.0
2780,C#4,103.375,0.125,127,80.0
2781,F#6,103.5,0.125,127,80.0
2782,F#4,103.5,0.125,127,80.0
2783,C#4,103.5,0.125,127,80.0
2784,F#6,103.625,0.125,127,80.0
2785,F#4,103.625,0.125,127,80.0
2786,C#4,103.625,0.125,127,80.0
2787,F#6,103.75,0.125,127,80.0
2788,F#4,103.75,0.125,127,80.0
2789,C#4,103.75,0.125,127,80.0
2790,F#6,103.875,0.125,127,80.0
2791,F#4,103.875,0.125,127,80.0
2792,C#4,103.875,0.125,127,80.0
2793,F#6,104.0,0.125,127,80.0
2794,E-3,104.0,0.5,127,80.0
2795,G#2,104.0,0.5,127,80.0
2796,F#4,104.0,0.125,127,80.0
2797,C#4,104.0,0.125,127,80.0
2798,F#4,104.0,3.0,127,80.0
2799,F#3,104.0,3.0,127,80.0
2800,F#6,104.125,0.125,127,80.0
2801,F#4,104.125,0.125,127,80.0
2802,C#4,104.125,0.125,127,80.0
2803,F#6,104.25,0.125,127,80.0
2804,F#4,104.25,0.125,127,80.0
2805,C#4,104.25,0.125,127,80.0
2806,F#6,104.375,0.125,127,80.0
2807,F#4,104.375,0.125,127,80.0
2808,C#4,104.375,0.125,127,80.0
2809,G#2,104.5,0.5,127,80.0
2810,G#1,104.5,0.5,127,80.0
2811,F#6,104.5,0.125,127,80.0
2812,G#3,104.5,0.5,127,80.0
2813,G#2,104.5,0.5,127,80.0
2814,E-3,104.5,0.5,127,80.0
2815,B1,104.5,0.5,127,80.0
2816,F#4,104.5,0.125,127,80.0
2817,C#4,104.5,0.125,127,80.0
2818,F#6,104.625,0.125,127,80.0
2819,F#4,104.625,0.125,127,80.0
2820,C#4,104.625,0.125,127,80.0
2821,F#6,104.75,0.125,127,80.0
2822,F#4,104.75,0.125,127,80.0
2823,C#4,104.75,0.125,127,80.0
2824,F#6,104.875,0.125,127,80.0
2825,F#4,104.875,0.125,127,80.0
2826,C#4,104.875,0.125,127,80.0
2827,G#2,105.0,0.5,127,80.0
2828,F#4,105.0,3.0,127,80.0
2829,G#1,105.0,0.5,127,80.0
2830,F#6,105.0,0.125,127,80.0
2831,G#3,105.0,0.5,127,80.0
2832,G#2,105.0,0.5,127,80.0
2833,E-3,105.0,0.5,127,80.0
2834,B1,105.0,0.5,127,80.0
2835,F#4,105.0,0.125,127,80.0
2836,C#4,105.0,0.125,127,80.0
2837,F#6,105.125,0.125,127,80.0
2838,F#4,105.125,0.125,127,80.0
2839,C#4,105.125,0.125,127,80.0
2840,F#6,105.25,0.125,127,80.0
2841,F#4,105.25,0.125,127,80.0
2842,C#4,105.25,0.125,127,80.0
2843,F#6,105.375,0.125,127,80.0
2844,F#4,105.375,0.125,127,80.0
2845,C#4,105.375,0.125,127,80.0
2846,A2,105.5,0.5,127,80.0
2847,A1,105.5,0.5,127,80.0
2848,E-3,105.5,0.25,127,80.0
2849,F#6,105.5,0.125,127,80.0
2850,A3,105.5,0.5,127,80.0
2851,A2,105.5,0.5,127,80.0
2852,F#4,105.5,0.125,127,80.0
2853,C#4,105.5,0.125,127,80.0
2854,F#6,105.625,0.125,127,80.0
2855,F#4,105.625,0.125,127,80.0
2856,C#4,105.625,0.125,127,80.0
2857,B1,105.75,0.25,127,80.0
2858,F#6,105.75,0.125,127,80.0
2859,F#4,105.75,0.125,127,80.0
2860,C#4,105.75,0.125,127,80.0
2861,F#6,105.875,0.125,127,80.0
2862,F#4,105.875,0.125,127,80.0
2863,C#4,105.875,0.125,127,80.0
2864,A2,106.0,0.5,127,80.0
2865,A1,106.0,0.5,127,80.0
2866,F#6,106.0,0.125,127,80.0
2867,A3,106.0,0.5,127,80.0
2868,A2,106.0,0.5,127,80.0
2869,E-3,106.0,0.5,127,80.0
2870,D2,106.0,0.5,127,80.0
2871,F#4,106.0,0.125,127,80.0
2872,C#4,106.0,0.125,127,80.0
2873,F#6,106.125,0.125,127,80.0
2874,F#4,106.125,0.125,127,80.0
2875,C#4,106.125,0.125,127,80.0
2876,F#6,106.25,0.125,127,80.0
2877,F#4,106.25,0.125,127,80.0
2878,C#4,106.25,0.125,127,80.0
2879,F#6,106.375,0.125,127,80.0
2880,F#4,106.375,0.125,127,80.0
2881,C#4,106.375,0.125,127,80.0
2882,B2,106.5,0.5,127,80.0
2883,B1,106.5,0.5,127,80.0
2884,E-3,106.5,0.25,127,80.0
2885,F#6,106.5,0.125,127,80.0
2886,B3,106.5,0.5,127,80.0
2887,B2,106.5,0.5,127,80.0
2888,F#4,106.5,0.125,127,80.0
2889,C#4,106.5,0.125,127,80.0
2890,F#6,106.625,0.125,127,80.0
2891,F#4,106.625,0.125,127,80.0
2892,C#4,106.625,0.125,127,80.0
2893,F#6,106.75,0.125,127,80.0
2894,B2,106.75,0.25,127,80.0
2895,A2,106.75,0.25,127,80.0
2896,F#4,106.75,0.125,127,80.0
2897,C#4,106.75,0.125,127,80.0
2898,F#6,106.875,0.125,127,80.0
2899,F#4,106.875,0.125,127,80.0
2900,C#4,106.875,0.125,127,80.0
2901,C#3,107.0,0.5,127,80.0
2902,C#2,107.0,0.5,127,80.0
2903,F#6,107.0,0.125,127,80.0
2904,C#4,107.0,0.5,127,80.0
2905,C#3,107.0,0.5,127,80.0
2906,A2,107.0,0.25,127,80.0
2907,F2,107.0,0.25,127,80.0
2908,F#4,107.0,0.125,127,80.0
2909,C#4,107.0,0.125,127,80.0
2910,F#6,107.125,0.125,127,80.0
2911,F#4,107.125,0.125,127,80.0
2912,C#4,107.125,0.125,127,80.0
2913,F#6,107.25,0.125,127,80.0
2914,G2,107.25,0.25,127,80.0
2915,D2,107.25,0.25,127,80.0
2916,F#4,107.25,0.125,127,80.0
2917,C#4,107.25,0.125,127,80.0
2918,F#6,107.375,0.125,127,80.0
2919,F#4,107.375,0.125,127,80.0
2920,C#4,107.375,0.125,127,80.0
2921,F#3,107.5,0.5,127,80.0
2922,F#2,107.5,0.5,127,80.0
2923,D2,107.5,0.25,127,80.0
2924,F#6,107.5,0.125,127,80.0
2925,F#4,107.5,0.5,127,80.0
2926,F#3,107.5,0.5,127,80.0
2927,F#4,107.5,0.125,127,80.0
2928,C#4,107.5,0.125,127,80.0
2929,F#6,107.625,0.125,127,80.0
2930,F#4,107.625,0.125,127,80.0
2931,C#4,107.625,0.125,127,80.0
2932,D2,107.75,0.25,127,80.0
2933,F#6,107.75,0.125,127,80.0
2934,F#4,107.75,0.125,127,80.0
2935,C#4,107.75,0.125,127,80.0
2936,F#6,107.875,31/250,127,80.0
2937,F#4,107.875,31/250,127,80.0
2938,C#4,107.875,31/250,127,80.0
2939,F3,108.0,1.0,127,80.0
2940,F2,108.0,3.0,127,80.0
2941,F4,108.0,2.0,127,80.0
2942,F3,108.0,2.0,127,80.0
2943,G#2,108.0,1.0,127,80.0
2944,C#3,108.0,1.0,127,80.0
2945,B1,108.0,1.0,127,80.0
2946,F4,108.0,0.125,127,80.0
2947,B3,108.0,0.125,127,80.0
2948,F4,108.125,0.125,127,80.0
2949,B3,108.125,0.125,127,80.0
2950,F4,108.25,0.125,127,80.0
2951,B3,108.25,0.125,127,80.0
2952,F4,108.375,0.125,127,80.0
2953,B3,108.375,0.125,127,80.0
2954,F4,108.5,0.125,127,80.0
2955,B3,108.5,0.125,127,80.0
2956,F4,108.625,0.125,127,80.0
2957,B3,108.625,0.125,127,80.0
2958,F4,108.75,0.125,127,80.0
2959,B3,108.75,0.125,127,80.0
2960,F4,108.875,0.125,127,80.0
2961,B3,108.875,0.125,127,80.0
2962,B3,109.0,1333/1000,127,80.0
2963,B4,109.0,1333/1000,127,80.0
2964,B3,109.0,1333/1000,127,80.0
2965,B5,109.0,1333/1000,127,80.0
2966,B4,109.0,1333/1000,127,80.0
2967,G#2,109.0,1.0,127,80.0
2968,D2,109.0,1.0,127,80.0
2969,F4,109.0,0.125,127,80.0
2970,B3,109.0,0.125,127,80.0
2971,F#4,109.0,2.0,127,80.0
2972,F#3,109.0,2.0,127,80.0
2973,F4,109.125,0.125,127,80.0
2974,B3,109.125,0.125,127,80.0
2975,F4,109.25,0.125,127,80.0
2976,B3,109.25,0.125,127,80.0
2977,F4,109.375,0.125,127,80.0
2978,B3,109.375,0.125,127,80.0
2979,F4,109.5,0.125,127,80.0
2980,B3,109.5,0.125,127,80.0
2981,F4,109.625,0.125,127,80.0
2982,B3,109.625,0.125,127,80.0
2983,F4,109.75,0.125,127,80.0
2984,B3,109.75,0.125,127,80.0
2985,F4,109.875,0.125,127,80.0
2986,B3,109.875,0.125,127,80.0
2987,G#2,110.0,333/1000,127,80.0
2988,F4,110.0,0.125,127,80.0
2989,B3,110.0,0.125,127,80.0
2990,F4,110.125,0.125,127,80.0
2991,B3,110.125,0.125,127,80.0
2992,F4,110.25,0.125,127,80.0
2993,B3,110.25,0.125,127,80.0
2994,A3,110.333,333/1000,127,80.0
2995,A4,110.333,333/1000,127,80.0
2996,A3,110.333,333/1000,127,80.0
2997,A2,110.333,333/1000,127,80.0
2998,A5,110.333,333/1000,127,80.0
2999,A4,110.333,333/1000,127,80.0
3000,F4,110.375,0.125,127,80.0
3001,B3,110.375,0.125,127,80.0
3002,F4,110.5,0.125,127,80.0
3003,B3,110.5,0.125,127,80.0
3004,F4,110.625,0.125,127,80.0
3005,B3,110.625,0.125,127,80.0
3006,C4,110.667,333/1000,127,80.0
3007,C5,110.667,333/1000,127,80.0
3008,C4,110.667,333/1000,127,80.0
3009,D2,110.667,333/1000,127,80.0
3010,C6,110.667,333/1000,127,80.0
3011,C5,110.667,333/1000,127,80.0
3012,F4,110.75,0.125,127,80.0
3013,B3,110.75,0.125,127,80.0
3014,F4,110.875,0.125,127,80.0
3015,B3,110.875,0.125,127,80.0
3016,G#3,111.0,1/5,127,80.0
3017,G#4,111.0,1/5,127,80.0
3018,G#3,111.0,1/5,127,80.0
3019,F2,111.0,3.0,127,80.0
3020,F#2,111.0,1/5,127,80.0
3021,G#5,111.0,1/5,127,80.0
3022,G#4,111.0,1/5,127,80.0
3023,F4,111.0,0.125,127,80.0
3024,B3,111.0,0.125,127,80.0
3025,F4,111.125,0.125,127,80.0
3026,B3,111.125,0.125,127,80.0
3027,F#3,111.2,1/5,127,80.0
3028,F#4,111.2,1/5,127,80.0
3029,F#3,111.2,1/5,127,80.0
3030,B-2,111.2,1/5,127,80.0
3031,F#5,111.2,1/5,127,80.0
3032,F#4,111.2,1/5,127,80.0
3033,F4,111.25,0.125,127,80.0
3034,B3,111.25,0.125,127,80.0
3035,F4,111.375,0.125,127,80.0
3036,B3,111.375,0.125,127,80.0
3037,F4,111.4,1/5,127,80.0
3038,F5,111.4,1/5,127,80.0
3039,F4,111.4,1/5,127,80.0
3040,G#2,111.4,1/5,127,80.0
3041,F6,111.4,1/5,127,80.0
3042,F5,111.4,1/5,127,80.0
3043,F4,111.5,0.125,127,80.0
3044,B3,111.5,0.125,127,80.0
3045,G#3,111.5,0.5,127,80.0
3046,G#2,111.5,0.5,127,80.0
3047,E4,111.6,1/5,127,80.0
3048,E5,111.6,1/5,127,80.0
3049,E4,111.6,1/5,127,80.0
3050,D2,111.6,1/5,127,80.0
3051,E6,111.6,1/5,127,80.0
3052,E5,111.6,1/5,127,80.0
3053,F4,111.625,0.125,127,80.0
3054,B3,111.625,0.125,127,80.0
3055,F4,111.75,0.125,127,80.0
3056,B3,111.75,0.125,127,80.0
3057,E4,111.8,1/5,127,80.0
3058,E5,111.8,1/5,127,80.0
3059,E4,111.8,1/5,127,80.0
3060,B1,111.8,1/5,127,80.0
3061,E6,111.8,1/5,127,80.0
3062,E5,111.8,1/5,127,80.0
3063,F4,111.875,0.125,127,80.0
3064,B3,111.875,0.125,127,80.0
3065,E-5,112.0,181/1000,127,80.0
3066,E-6,112.0,181/1000,127,80.0
3067,E-5,112.0,181/1000,127,80.0
3068,B2,112.0,181/1000,127,80.0
3069,E-7,112.0,181/1000,127,80.0
3070,E-6,112.0,181/1000,127,80.0
3071,F4,112.0,0.125,127,80.0
3072,B3,112.0,0.125,127,80.0
3073,G#3,112.0,0.5,127,80.0
3074,G#2,112.0,0.5,127,80.0
3075,F4,112.125,0.125,127,80.0
3076,B3,112.125,0.125,127,80.0
3077,C#5,112.181,181/1000,127,80.0
3078,C#6,112.181,181/1000,127,80.0
3079,C#5,112.181,181/1000,127,80.0
3080,G2,112.181,181/1000,127,80.0
3081,C#7,112.181,181/1000,127,80.0
3082,C#6,112.181,181/1000,127,80.0
3083,F4,112.25,0.125,127,80.0
3084,B3,112.25,0.125,127,80.0
3085,B-4,112.362,181/1000,127,80.0
3086,B-5,112.362,181/1000,127,80.0
3087,B-4,112.362,181/1000,127,80.0
3088,D2,112.362,181/1000,127,80.0
3089,B-6,112.362,181/1000,127,80.0
3090,B-5,112.362,181/1000,127,80.0
3091,F4,112.375,0.125,127,80.0
3092,B3,112.375,0.125,127,80.0
3093,F4,112.5,0.125,127,80.0
3094,B3,112.5,0.125,127,80.0
3095,A3,112.5,0.5,127,80.0
3096,A2,112.5,0.5,127,80.0
3097,B-4,112.544,181/1000,127,80.0
3098,B-5,112.544,181/1000,127,80.0
3099,B-4,112.544,181/1000,127,80.0
3100,G2,112.544,181/1000,127,80.0
3101,B-6,112.544,181/1000,127,80.0
3102,B-5,112.544,181/1000,127,80.0
3103,F4,112.625,0.125,127,80.0
3104,B3,112.625,0.125,127,80.0
3105,E-5,112.725,181/1000,127,80.0
3106,E-6,112.725,181/1000,127,80.0
3107,E-5,112.725,181/1000,127,80.0
3108,B2,112.725,181/1000,127,80.0
3109,E-7,112.725,181/1000,127,80.0
3110,E-6,112.725,181/1000,127,80.0
3111,F4,112.75,0.125,127,80.0
3112,B3,112.75,0.125,127,80.0
3113,F4,112.875,0.125,127,80.0
3114,B3,112.875,0.125,127,80.0
3115,G#4,112.906,181/1000,127,80.0
3116,G#5,112.906,181/1000,127,80.0
3117,G#4,112.906,181/1000,127,80.0
3118,B1,112.906,181/1000,127,80.0
3119,G#6,112.906,181/1000,127,80.0
3120,G#5,112.906,181/1000,127,80.0
3121,F4,113.0,0.125,127,80.0
3122,B3,113.0,0.125,127,80.0
3123,A3,113.0,0.5,127,80.0
3124,A2,113.0,0.5,127,80.0
3125,C#5,113.088,181/1000,127,80.0
3126,C#6,113.088,181/1000,127,80.0
3127,C#5,113.088,181/1000,127,80.0
3128,C#7,113.088,181/1000,127,80.0
3129,C#6,113.088,181/1000,127,80.0
3130,E-3,113.088,181/1000,127,80.0
3131,D2,113.088,181/1000,127,80.0
3132,F4,113.125,0.125,127,80.0
3133,B3,113.125,0.125,127,80.0
3134,F4,113.25,0.125,127,80.0
3135,B3,113.25,0.125,127,80.0
3136,B-4,113.269,181/1000,127,80.0
3137,B-5,113.269,181/1000,127,80.0
3138,B-4,113.269,181/1000,127,80.0
3139,B-6,113.269,181/1000,127,80.0
3140,B-5,113.269,181/1000,127,80.0
3141,F3,113.269,181/1000,127,80.0
3142,D2,113.269,181/1000,127,80.0
3143,F4,113.375,0.125,127,80.0
3144,B3,113.375,0.125,127,80.0
3145,B-4,113.45,181/1000,127,80.0
3146,B-5,113.45,181/1000,127,80.0
3147,B-4,113.45,181/1000,127,80.0
3148,B-6,113.45,181/1000,127,80.0
3149,B-5,113.45,181/1000,127,80.0
3150,E-3,113.45,181/1000,127,80.0
3151,G2,113.45,181/1000,127,80.0
3152,F4,113.5,0.125,127,80.0
3153,B3,113.5,0.125,127,80.0
3154,B3,113.5,0.5,127,80.0
3155,B2,113.5,0.5,127,80.0
3156,F4,113.625,0.125,127,80.0
3157,B3,113.625,0.125,127,80.0
3158,E-5,113.631,181/1000,127,80.0
3159,E-6,113.631,181/1000,127,80.0
3160,E-5,113.631,181/1000,127,80.0
3161,B-2,113.631,181/1000,127,80.0
3162,E-7,113.631,181/1000,127,80.0
3163,E-6,113.631,181/1000,127,80.0
3164,F4,113.75,0.125,127,80.0
3165,B3,113.75,0.125,127,80.0
3166,G#4,113.812,181/1000,127,80.0
3167,G#5,113.812,181/1000,127,80.0
3168,G#4,113.812,181/1000,127,80.0
3169,G#2,113.812,181/1000,127,80.0
3170,G#6,113.812,181/1000,127,80.0
3171,G#5,113.812,181/1000,127,80.0
3172,F4,113.875,0.125,127,80.0
3173,B3,113.875,0.125,127,80.0
3174,E5,114.0,1/5,127,80.0
3175,E6,114.0,1/5,127,80.0
3176,E5,114.0,1/5,127,80.0
3177,F2,114.0,2.0,127,80.0
3178,E7,114.0,1/5,127,80.0
3179,E6,114.0,1/5,127,80.0
3180,F3,114.0,1/5,127,80.0
3181,C3,114.0,1/5,127,80.0
3182,F4,114.0,0.125,127,80.0
3183,B3,114.0,0.125,127,80.0
3184,C#4,114.0,0.5,127,80.0
3185,C#3,114.0,0.5,127,80.0
3186,F4,114.125,0.125,127,80.0
3187,B3,114.125,0.125,127,80.0
3188,E-5,114.2,1/5,127,80.0
3189,E-6,114.2,1/5,127,80.0
3190,E-5,114.2,1/5,127,80.0
3191,B1,114.2,1/5,127,80.0
3192,E-7,114.2,1/5,127,80.0
3193,E-6,114.2,1/5,127,80.0
3194,F4,114.25,0.125,127,80.0
3195,B3,114.25,0.125,127,80.0
3196,F4,114.375,0.125,127,80.0
3197,B3,114.375,0.125,127,80.0
3198,E-5,114.4,1/5,127,80.0
3199,E-6,114.4,1/5,127,80.0
3200,E-5,114.4,1/5,127,80.0
3201,E-7,114.4,1/5,127,80.0
3202,E-6,114.4,1/5,127,80.0
3203,F3,114.4,1/5,127,80.0
3204,F2,114.4,1/5,127,80.0
3205,F4,114.5,0.125,127,80.0
3206,B3,114.5,0.125,127,80.0
3207,F#4,114.5,0.5,127,80.0
3208,F#3,114.5,0.5,127,80.0
3209,G5,114.6,1/5,127,80.0
3210,G6,114.6,1/5,127,80.0
3211,G5,114.6,1/5,127,80.0
3212,D2,114.6,1/5,127,80.0
3213,G7,114.6,1/5,127,80.0
3214,G6,114.6,1/5,127,80.0
3215,F4,114.625,0.125,127,80.0
3216,B3,114.625,0.125,127,80.0
3217,F4,114.75,0.125,127,80.0
3218,B3,114.75,0.125,127,80.0
3219,G#4,114.8,1/5,127,80.0
3220,G#5,114.8,1/5,127,80.0
3221,G#4,114.8,1/5,127,80.0
3222,D2,114.8,1/5,127,80.0
3223,G#6,114.8,1/5,127,80.0
3224,G#5,114.8,1/5,127,80.0
3225,F4,114.875,0.125,127,80.0
3226,B3,114.875,0.125,127,80.0
3227,F#5,115.0,1.5,127,80.0
3228,F#6,115.0,1.5,127,80.0
3229,F#5,115.0,2.0,127,80.0
3230,F#7,115.0,0.125,127,80.0
3231,F#6,115.0,2.0,127,80.0
3232,C#3,115.0,1.0,127,80.0
3233,B1,115.0,1.0,127,80.0
3234,F4,115.0,0.125,127,80.0
3235,B3,115.0,0.125,127,80.0
3236,F4,115.0,3.0,127,80.0
3237,F3,115.0,3.0,127,80.0
3238,F#7,115.125,0.125,127,80.0
3239,F4,115.125,0.125,127,80.0
3240,B3,115.125,0.125,127,80.0
3241,F#7,115.25,0.125,127,80.0
3242,F4,115.25,0.125,127,80.0
3243,B3,115.25,0.125,127,80.0
3244,F#7,115.375,0.125,127,80.0
3245,F4,115.375,0.125,127,80.0
3246,B3,115.375,0.125,127,80.0
3247,F#7,115.5,0.125,127,80.0
3248,F4,115.5,0.125,127,80.0
3249,B3,115.5,0.125,127,80.0
3250,F#7,115.625,0.125,127,80.0
3251,F4,115.625,0.125,127,80.0
3252,B3,115.625,0.125,127,80.0
3253,F#7,115.75,0.125,127,80.0
3254,F4,115.75,0.125,127,80.0
3255,B3,115.75,0.125,127,80.0
3256,F#7,115.875,0.125,127,80.0
3257,F4,115.875,0.125,127,80.0
3258,B3,115.875,0.125,127,80.0
3259,F#7,116.0,0.125,127,80.0
3260,E-3,116.0,0.5,127,80.0
3261,G#2,116.0,0.5,127,80.0
3262,F4,116.0,0.125,127,80.0
3263,B3,116.0,0.125,127,80.0
3264,F#7,116.125,0.125,127,80.0
3265,F4,116.125,0.125,127,80.0
3266,B3,116.125,0.125,127,80.0
3267,F#7,116.25,0.125,127,80.0
3268,F4,116.25,0.125,127,80.0
3269,B3,116.25,0.125,127,80.0
3270,F#7,116.375,0.125,127,80.0
3271,F4,116.375,0.125,127,80.0
3272,B3,116.375,0.125,127,80.0
3273,G#2,116.5,0.5,127,80.0
3274,G#1,116.5,0.5,127,80.0
3275,D2,116.5,0.5,127,80.0
3276,F#7,116.5,0.125,127,80.0
3277,G#3,116.5,0.5,127,80.0
3278,G#2,116.5,0.5,127,80.0
3279,F4,116.5,0.125,127,80.0
3280,B3,116.5,0.125,127,80.0
3281,F#7,116.625,0.125,127,80.0
3282,F4,116.625,0.125,127,80.0
3283,B3,116.625,0.125,127,80.0
3284,F#7,116.75,0.125,127,80.0
3285,F4,116.75,0.125,127,80.0
3286,B3,116.75,0.125,127,80.0
3287,F#7,116.875,0.125,127,80.0
3288,F4,116.875,0.125,127,80.0
3289,B3,116.875,0.125,127,80.0
3290,G#2,117.0,0.5,127,80.0
3291,F#5,117.0,3.0,127,80.0
3292,G#1,117.0,0.5,127,80.0
3293,F#7,117.0,0.125,127,80.0
3294,G#3,117.0,0.5,127,80.0
3295,G#2,117.0,0.5,127,80.0
3296,E-3,117.0,0.25,127,80.0
3297,G#2,117.0,0.25,127,80.0
3298,D2,117.0,0.25,127,80.0
3299,F4,117.0,0.125,127,80.0
3300,B3,117.0,0.125,127,80.0
3301,F#7,117.125,0.125,127,80.0
3302,F4,117.125,0.125,127,80.0
3303,B3,117.125,0.125,127,80.0
3304,D2,117.25,0.25,127,80.0
3305,F#7,117.25,0.125,127,80.0
3306,F4,117.25,0.125,127,80.0
3307,B3,117.25,0.125,127,80.0
3308,F#7,117.375,0.125,127,80.0
3309,F4,117.375,0.125,127,80.0
3310,B3,117.375,0.125,127,80.0
3311,A2,117.5,0.5,127,80.0
3312,A1,117.5,0.5,127,80.0
3313,E-3,117.5,0.25,127,80.0
3314,F#7,117.5,0.125,127,80.0
3315,A3,117.5,0.5,127,80.0
3316,A2,117.5,0.5,127,80.0
3317,F4,117.5,0.125,127,80.0
3318,B3,117.5,0.125,127,80.0
3319,F#7,117.625,0.125,127,80.0
3320,F4,117.625,0.125,127,80.0
3321,B3,117.625,0.125,127,80.0
3322,B1,117.75,0.25,127,80.0
3323,F#7,117.75,0.125,127,80.0
3324,F4,117.75,0.125,127,80.0
3325,B3,117.75,0.125,127,80.0
3326,F#7,117.875,0.125,127,80.0
3327,F4,117.875,0.125,127,80.0
3328,B3,117.875,0.125,127,80.0
3329,B2,118.0,0.5,127,80.0
3330,B1,118.0,0.5,127,80.0
3331,F#7,118.0,0.125,127,80.0
3332,B3,118.0,0.5,127,80.0
3333,B2,118.0,0.5,127,80.0
3334,E-3,118.0,0.25,127,80.0
3335,G#2,118.0,0.25,127,80.0
3336,F4,118.0,0.125,127,80.0
3337,B3,118.0,0.125,127,80.0
3338,F#7,118.125,0.125,127,80.0
3339,F4,118.125,0.125,127,80.0
3340,B3,118.125,0.125,127,80.0
3341,D2,118.25,0.25,127,80.0
3342,F#7,118.25,0.125,127,80.0
3343,F4,118.25,0.125,127,80.0
3344,B3,118.25,0.125,127,80.0
3345,F#7,118.375,0.125,127,80.0
3346,F4,118.375,0.125,127,80.0
3347,B3,118.375,0.125,127,80.0
3348,C#3,118.5,0.5,127,80.0
3349,C#2,118.5,0.5,127,80.0
3350,E-3,118.5,0.25,127,80.0
3351,F#7,118.5,0.125,127,80.0
3352,C#4,118.5,0.5,127,80.0
3353,C#3,118.5,0.5,127,80.0
3354,F4,118.5,0.125,127,80.0
3355,B3,118.5,0.125,127,80.0
3356,F#7,118.625,0.125,127,80.0
3357,F4,118.625,0.125,127,80.0
3358,B3,118.625,0.125,127,80.0
3359,F#7,118.75,0.125,127,80.0
3360,C#3,118.75,0.25,127,80.0
3361,B2,118.75,0.25,127,80.0
3362,A2,118.75,0.25,127,80.0
3363,F4,118.75,0.125,127,80.0
3364,B3,118.75,0.125,127,80.0
3365,F#7,118.875,0.125,127,80.0
3366,F4,118.875,0.125,127,80.0
3367,B3,118.875,0.125,127,80.0
3368,E-3,119.0,0.5,127,80.0
3369,E-2,119.0,0.5,127,80.0
3370,F#7,119.0,0.125,127,80.0
3371,E-4,119.0,0.5,127,80.0
3372,E-3,119.0,0.5,127,80.0
3373,G2,119.0,0.25,127,80.0
3374,F2,119.0,0.25,127,80.0
3375,F4,119.0,0.125,127,80.0
3376,B3,119.0,0.125,127,80.0
3377,F#7,119.125,0.125,127,80.0
3378,F4,119.125,0.125,127,80.0
3379,B3,119.125,0.125,127,80.0
3380,F#7,119.25,0.125,127,80.0
3381,G2,119.25,0.25,127,80.0
3382,F2,119.25,0.25,127,80.0
3383,F4,119.25,0.125,127,80.0
3384,B3,119.25,0.125,127,80.0
3385,F#7,119.375,0.125,127,80.0
3386,F4,119.375,0.125,127,80.0
3387,B3,119.375,0.125,127,80.0
3388,D3,119.5,0.5,127,80.0
3389,D2,119.5,0.5,127,80.0
3390,D2,119.5,0.25,127,80.0
3391,F#7,119.5,0.125,127,80.0
3392,D4,119.5,0.5,127,80.0
3393,D3,119.5,0.5,127,80.0
3394,F4,119.5,0.125,127,80.0
3395,B3,119.5,0.125,127,80.0
3396,F#7,119.625,0.125,127,80.0
3397,F4,119.625,0.125,127,80.0
3398,B3,119.625,0.125,127,80.0
3399,F#7,119.75,0.125,127,80.0
3400,E3,119.75,0.25,127,80.0
3401,D2,119.75,0.25,127,80.0
3402,F4,119.75,0.125,127,80.0
3403,B3,119.75,0.125,127,80.0
3404,F#7,119.875,31/250,127,80.0
3405,F4,119.875,31/250,127,80.0
3406,B3,119.875,31/250,127,80.0
3407,E3,120.0,3.0,127,80.0
3408,E2,120.0,3.0,127,80.0
3409,E4,120.0,3.0,127,80.0
3410,E3,120.0,3.0,127,80.0
3411,B3,120.0,1.0,127,80.0
3412,A3,120.0,1.0,127,80.0
3413,G#2,120.0,1.0,127,80.0
3414,B1,120.0,1.0,127,80.0
3415,E4,120.0,0.125,127,80.0
3416,G3,120.0,0.125,127,80.0
3417,E4,120.125,0.125,127,80.0
3418,G3,120.125,0.125,127,80.0
3419,E4,120.25,0.125,127,80.0
3420,G3,120.25,0.125,127,80.0
3421,E4,120.375,0.125,127,80.0
3422,G3,120.375,0.125,127,80.0
3423,E4,120.5,0.125,127,80.0
3424,G3,120.5,0.125,127,80.0
3425,E4,120.625,0.125,127,80.0
3426,G3,120.625,0.125,127,80.0
3427,E4,120.75,0.125,127,80.0
3428,G3,120.75,0.125,127,80.0
3429,E4,120.875,0.125,127,80.0
3430,G3,120.875,0.125,127,80.0
3431,G#2,121.0,1.0,127,80.0
3432,E4,121.0,0.125,127,80.0
3433,G3,121.0,0.125,127,80.0
3434,E4,121.125,0.125,127,80.0
3435,G3,121.125,0.125,127,80.0
3436,E4,121.25,0.125,127,80.0
3437,G3,121.25,0.125,127,80.0
3438,E4,121.375,0.125,127,80.0
3439,G3,121.375,0.125,127,80.0
3440,E4,121.5,0.125,127,80.0
3441,G3,121.5,0.125,127,80.0
3442,E4,121.625,0.125,127,80.0
3443,G3,121.625,0.125,127,80.0
3444,E4,121.75,0.125,127,80.0
3445,G3,121.75,0.125,127,80.0
3446,E4,121.875,0.125,127,80.0
3447,G3,121.875,0.125,127,80.0
3448,G#2,122.0,1.0,127,80.0
3449,E4,122.0,0.125,127,80.0
3450,G3,122.0,0.125,127,80.0
3451,E4,122.125,0.125,127,80.0
3452,G3,122.125,0.125,127,80.0
3453,E4,122.25,0.125,127,80.0
3454,G3,122.25,0.125,127,80.0
3455,E4,122.375,0.125,127,80.0
3456,G3,122.375,0.125,127,80.0
3457,E4,122.5,0.125,127,80.0
3458,G3,122.5,0.125,127,80.0
3459,E4,122.625,0.125,127,80.0
3460,G3,122.625,0.125,127,80.0
3461,E4,122.75,0.125,127,80.0
3462,G3,122.75,0.125,127,80.0
3463,E4,122.875,0.125,127,80.0
3464,G3,122.875,0.125,127,80.0
3465,B3,123.0,34/125,127,80.0
3466,B4,123.0,34/125,127,80.0
3467,B3,123.0,34/125,127,80.0
3468,E2,123.0,3.0,127,80.0
3469,B5,123.0,34/125,127,80.0
3470,B4,123.0,34/125,127,80.0
3471,G#2,123.0,34/125,127,80.0
3472,B2,123.0,34/125,127,80.0
3473,E4,123.0,0.125,127,80.0
3474,G3,123.0,0.125,127,80.0
3475,F4,123.0,3.0,127,80.0
3476,F3,123.0,3.0,127,80.0
3477,E4,123.125,0.125,127,80.0
3478,G3,123.125,0.125,127,80.0
3479,E4,123.25,0.125,127,80.0
3480,G3,123.25,0.125,127,80.0
3481,A3,123.272,34/125,127,80.0
3482,A4,123.272,34/125,127,80.0
3483,A3,123.272,34/125,127,80.0
3484,A2,123.272,34/125,127,80.0
3485,A5,123.272,34/125,127,80.0
3486,A4,123.272,34/125,127,80.0
3487,E4,123.375,0.125,127,80.0
3488,G3,123.375,0.125,127,80.0
3489,E4,123.5,0.125,127,80.0
3490,G3,123.5,0.125,127,80.0
3491,A3,123.544,34/125,127,80.0
3492,A4,123.544,34/125,127,80.0
3493,A3,123.544,34/125,127,80.0
3494,A2,123.544,34/125,127,80.0
3495,A5,123.544,34/125,127,80.0
3496,A4,123.544,34/125,127,80.0
3497,E4,123.625,0.125,127,80.0
3498,G3,123.625,0.125,127,80.0
3499,E4,123.75,0.125,127,80.0
3500,G3,123.75,0.125,127,80.0
3501,D4,123.816,34/125,127,80.0
3502,D5,123.816,34/125,127,80.0
3503,D4,123.816,34/125,127,80.0
3504,F2,123.816,34/125,127,80.0
3505,D6,123.816,34/125,127,80.0
3506,D5,123.816,34/125,127,80.0
3507,E4,123.875,0.125,127,80.0
3508,G3,123.875,0.125,127,80.0
3509,E4,124.0,0.125,127,80.0
3510,G3,124.0,0.125,127,80.0
3511,C#4,124.088,34/125,127,80.0
3512,C#5,124.088,34/125,127,80.0
3513,C#4,124.088,34/125,127,80.0
3514,D2,124.088,34/125,127,80.0
3515,C#6,124.088,34/125,127,80.0
3516,C#5,124.088,34/125,127,80.0
3517,E4,124.125,0.125,127,80.0
3518,G3,124.125,0.125,127,80.0
3519,E4,124.25,0.125,127,80.0
3520,G3,124.25,0.125,127,80.0
3521,C#4,124.359,34/125,127,80.0
3522,C#5,124.359,34/125,127,80.0
3523,C#4,124.359,34/125,127,80.0
3524,A2,124.359,34/125,127,80.0
3525,C#6,124.359,34/125,127,80.0
3526,C#5,124.359,34/125,127,80.0
3527,E4,124.375,0.125,127,80.0
3528,G3,124.375,0.125,127,80.0
3529,E4,124.5,0.125,127,80.0
3530,G3,124.5,0.125,127,80.0
3531,E4,124.625,0.125,127,80.0
3532,G3,124.625,0.125,127,80.0
3533,B3,124.631,34/125,127,80.0
3534,B4,124.631,34/125,127,80.0
3535,B3,124.631,34/125,127,80.0
3536,G2,124.631,34/125,127,80.0
3537,B5,124.631,34/125,127,80.0
3538,B4,124.631,34/125,127,80.0
3539,E4,124.75,0.125,127,80.0
3540,G3,124.75,0.125,127,80.0
3541,E4,124.875,0.125,127,80.0
3542,G3,124.875,0.125,127,80.0
3543,B3,124.903,34/125,127,80.0
3544,B4,124.903,34/125,127,80.0
3545,B3,124.903,34/125,127,80.0
3546,D2,124.903,34/125,127,80.0
3547,B5,124.903,34/125,127,80.0
3548,B4,124.903,34/125,127,80.0
3549,E4,125.0,0.125,127,80.0
3550,G3,125.0,0.125,127,80.0
3551,E4,125.125,0.125,127,80.0
3552,G3,125.125,0.125,127,80.0
3553,C#4,125.175,34/125,127,80.0
3554,C#5,125.175,34/125,127,80.0
3555,C#4,125.175,34/125,127,80.0
3556,B1,125.175,34/125,127,80.0
3557,C#6,125.175,34/125,127,80.0
3558,C#5,125.175,34/125,127,80.0
3559,E4,125.25,0.125,127,80.0
3560,G3,125.25,0.125,127,80.0
3561,E4,125.375,0.125,127,80.0
3562,G3,125.375,0.125,127,80.0
3563,F#3,125.447,34/125,127,80.0
3564,F#4,125.447,34/125,127,80.0
3565,F#3,125.447,34/125,127,80.0
3566,B1,125.447,34/125,127,80.0
3567,F#5,125.447,34/125,127,80.0
3568,F#4,125.447,34/125,127,80.0
3569,E4,125.5,0.125,127,80.0
3570,G3,125.5,0.125,127,80.0
3571,E4,125.625,0.125,127,80.0
3572,G3,125.625,0.125,127,80.0
3573,D3,125.719,34/125,127,80.0
3574,D4,125.719,34/125,127,80.0
3575,D3,125.719,34/125,127,80.0
3576,F2,125.719,34/125,127,80.0
3577,D5,125.719,34/125,127,80.0
3578,D4,125.719,34/125,127,80.0
3579,E4,125.75,0.125,127,80.0
3580,G3,125.75,0.125,127,80.0
3581,E4,125.875,0.125,127,80.0
3582,G3,125.875,0.125,127,80.0
3583,B-3,126.0,1/5,127,80.0
3584,B-4,126.0,1/5,127,80.0
3585,B-3,126.0,1/5,127,80.0
3586,E2,126.0,2.0,127,80.0
3587,B2,126.0,1/5,127,80.0
3588,B-5,126.0,1/5,127,80.0
3589,B-4,126.0,1/5,127,80.0
3590,E4,126.0,0.125,127,80.0
3591,G3,126.0,0.125,127,80.0
3592,E4,126.125,0.125,127,80.0
3593,G3,126.125,0.125,127,80.0
3594,C#4,126.2,1/5,127,80.0
3595,C#5,126.2,1/5,127,80.0
3596,C#4,126.2,1/5,127,80.0
3597,A2,126.2,1/5,127,80.0
3598,C#6,126.2,1/5,127,80.0
3599,C#5,126.2,1/5,127,80.0
3600,E4,126.25,0.125,127,80.0
3601,G3,126.25,0.125,127,80.0
3602,E4,126.375,0.125,127,80.0
3603,G3,126.375,0.125,127,80.0
3604,C#4,126.4,1/5,127,80.0
3605,C#5,126.4,1/5,127,80.0
3606,C#4,126.4,1/5,127,80.0
3607,B1,126.4,1/5,127,80.0
3608,C#6,126.4,1/5,127,80.0
3609,C#5,126.4,1/5,127,80.0
3610,E4,126.5,0.125,127,80.0
3611,G3,126.5,0.125,127,80.0
3612,A3,126.6,1/5,127,80.0
3613,A4,126.6,1/5,127,80.0
3614,A3,126.6,1/5,127,80.0
3615,D2,126.6,1/5,127,80.0
3616,A5,126.6,1/5,127,80.0
3617,A4,126.6,1/5,127,80.0
3618,E4,126.625,0.125,127,80.0
3619,G3,126.625,0.125,127,80.0
3620,E4,126.75,0.125,127,80.0
3621,G3,126.75,0.125,127,80.0
3622,A4,126.8,1/5,127,80.0
3623,A5,126.8,1/5,127,80.0
3624,A4,126.8,1/5,127,80.0
3625,B1,126.8,1/5,127,80.0
3626,A6,126.8,1/5,127,80.0
3627,A5,126.8,1/5,127,80.0
3628,E4,126.875,0.125,127,80.0
3629,G3,126.875,0.125,127,80.0
3630,E4,127.0,1/5,127,80.0
3631,E5,127.0,1/5,127,80.0
3632,E4,127.0,1/5,127,80.0
3633,B2,127.0,1/5,127,80.0
3634,E6,127.0,1/5,127,80.0
3635,E5,127.0,1/5,127,80.0
3636,E4,127.0,0.125,127,80.0
3637,G3,127.0,0.125,127,80.0
3638,E4,127.125,0.125,127,80.0
3639,G3,127.125,0.125,127,80.0
3640,F#4,127.2,1/5,127,80.0
3641,F#5,127.2,1/5,127,80.0
3642,F#4,127.2,1/5,127,80.0
3643,G2,127.2,1/5,127,80.0
3644,F#6,127.2,1/5,127,80.0
3645,F#5,127.2,1/5,127,80.0
3646,E4,127.25,0.125,127,80.0
3647,G3,127.25,0.125,127,80.0
3648,E4,127.375,0.125,127,80.0
3649,G3,127.375,0.125,127,80.0
3650,F#4,127.4,1/5,127,80.0
3651,F#5,127.4,1/5,127,80.0
3652,F#4,127.4,1/5,127,80.0
3653,D2,127.4,1/5,127,80.0
3654,F#6,127.4,1/5,127,80.0
3655,F#5,127.4,1/5,127,80.0
3656,E4,127.5,0.125,127,80.0
3657,G3,127.5,0.125,127,80.0
3658,G3,127.6,1/5,127,80.0
3659,G4,127.6,1/5,127,80.0
3660,G3,127.6,1/5,127,80.0
3661,G2,127.6,1/5,127,80.0
3662,G5,127.6,1/5,127,80.0
3663,G4,127.6,1/5,127,80.0
3664,E4,127.625,0.125,127,80.0
3665,G3,127.625,0.125,127,80.0
3666,E4,127.75,0.125,127,80.0
3667,G3,127.75,0.125,127,80.0
3668,D4,127.8,1/5,127,80.0
3669,D5,127.8,1/5,127,80.0
3670,D4,127.8,1/5,127,80.0
3671,G#2,127.8,1/5,127,80.0
3672,D6,127.8,1/5,127,80.0
3673,D5,127.8,1/5,127,80.0
3674,E4,127.875,0.125,127,80.0
3675,G3,127.875,0.125,127,80.0
3676,C#4,128.0,1/5,127,80.0
3677,C#5,128.0,1/5,127,80.0
3678,C#4,128.0,1/5,127,80.0
3679,B-2,128.0,1/5,127,80.0
3680,C#6,128.0,1/5,127,80.0
3681,C#5,128.0,1/5,127,80.0
3682,E4,128.0,0.125,127,80.0
3683,G3,128.0,0.125,127,80.0
3684,F4,128.0,2.0,127,80.0
3685,F3,128.0,2.0,127,80.0
3686,E4,128.125,0.125,127,80.0
3687,G3,128.125,0.125,127,80.0
3688,E-3,128.2,1/5,127,80.0
3689,E-4,128.2,1/5,127,80.0
3690,E-3,128.2,1/5,127,80.0
3691,B1,128.2,1/5,127,80.0
3692,E-5,128.2,1/5,127,80.0
3693,E-4,128.2,1/5,127,80.0
3694,E4,128.25,0.125,127,80.0
3695,G3,128.25,0.125,127,80.0
3696,E4,128.375,0.125,127,80.0
3697,G3,128.375,0.125,127,80.0
3698,B-3,128.4,1/5,127,80.0
3699,B-4,128.4,1/10,127,80.0
3700,B-3,128.4,1/5,127,80.0
3701,F2,128.4,1/5,127,80.0
3702,B-5,128.4,1/5,127,80.0
3703,B-4,128.4,1/5,127,80.0
3704,E2,128.5,0.5,127,80.0
3705,E4,128.5,1/10,127,80.0
3706,E3,128.5,1/10,127,80.0
3707,E4,128.5,0.125,127,80.0
3708,G3,128.5,0.125,127,80.0
3709,B3,128.6,1/5,127,80.0
3710,B4,128.6,1/5,127,80.0
3711,B3,128.6,1/5,127,80.0
3712,B2,128.6,1/5,127,80.0
3713,B5,128.6,1/5,127,80.0
3714,B4,128.6,1/5,127,80.0
3715,E4,128.625,0.125,127,80.0
3716,G3,128.625,0.125,127,80.0
3717,E4,128.75,0.125,127,80.0
3718,G3,128.75,0.125,127,80.0
3719,A3,128.8,1/5,127,80.0
3720,A4,128.8,1/5,127,80.0
3721,A3,128.8,1/5,127,80.0
3722,D2,128.8,1/5,127,80.0
3723,A5,128.8,1/5,127,80.0
3724,A4,128.8,1/5,127,80.0
3725,E4,128.875,0.125,127,80.0
3726,G3,128.875,0.125,127,80.0
3727,A4,129.0,3.0,127,80.0
3728,E2,129.0,0.5,127,80.0
3729,A6,129.0,0.125,127,80.0
3730,A5,129.0,3.0,127,80.0
3731,A4,129.0,0.5,127,80.0
3732,E3,129.0,0.5,127,80.0
3733,A5,129.0,0.5,127,80.0
3734,E4,129.0,0.5,127,80.0
3735,E3,129.0,0.5,127,80.0
3736,C#3,129.0,1.0,127,80.0
3737,B1,129.0,1.0,127,80.0
3738,E4,129.0,0.125,127,80.0
3739,G3,129.0,0.125,127,80.0
3740,A6,129.125,0.125,127,80.0
3741,E4,129.125,0.125,127,80.0
3742,G3,129.125,0.125,127,80.0
3743,A6,129.25,0.125,127,80.0
3744,E4,129.25,0.125,127,80.0
3745,G3,129.25,0.125,127,80.0
3746,A6,129.375,0.125,127,80.0
3747,E4,129.375,0.125,127,80.0
3748,G3,129.375,0.125,127,80.0
3749,D3,129.5,0.5,127,80.0
3750,D2,129.5,0.5,127,80.0
3751,A6,129.5,0.125,127,80.0
3752,D4,129.5,0.5,127,80.0
3753,D3,129.5,0.5,127,80.0
3754,E4,129.5,0.125,127,80.0
3755,G3,129.5,0.125,127,80.0
3756,A6,129.625,0.125,127,80.0
3757,E4,129.625,0.125,127,80.0
3758,G3,129.625,0.125,127,80.0
3759,A6,129.75,0.125,127,80.0
3760,E4,129.75,0.125,127,80.0
3761,G3,129.75,0.125,127,80.0
3762,A6,129.875,0.125,127,80.0
3763,E4,129.875,0.125,127,80.0
3764,G3,129.875,0.125,127,80.0
3765,D3,130.0,0.5,127,80.0
3766,D2,130.0,0.5,127,80.0
3767,E-3,130.0,0.25,127,80.0
3768,A6,130.0,0.125,127,80.0
3769,D4,130.0,0.5,127,80.0
3770,D3,130.0,0.5,127,80.0
3771,E4,130.0,0.125,127,80.0
3772,G3,130.0,0.125,127,80.0
3773,A6,130.125,0.125,127,80.0
3774,E4,130.125,0.125,127,80.0
3775,G3,130.125,0.125,127,80.0
3776,B1,130.25,0.25,127,80.0
3777,A6,130.25,0.125,127,80.0
3778,E4,130.25,0.125,127,80.0
3779,G3,130.25,0.125,127,80.0
3780,A6,130.375,0.125,127,80.0
3781,E4,130.375,0.125,127,80.0
3782,G3,130.375,0.125,127,80.0
3783,C#3,130.5,0.5,127,80.0
3784,C#2,130.5,0.5,127,80.0
3785,A6,130.5,0.125,127,80.0
3786,C#4,130.5,0.5,127,80.0
3787,C#3,130.5,0.5,127,80.0
3788,E-3,130.5,0.5,127,80.0
3789,D2,130.5,0.5,127,80.0
3790,E4,130.5,0.125,127,80.0
3791,G3,130.5,0.125,127,80.0
3792,G#3,130.5,0.5,127,80.0
3793,G#2,130.5,0.5,127,80.0
3794,A6,130.625,0.125,127,80.0
3795,E4,130.625,0.125,127,80.0
3796,G3,130.625,0.125,127,80.0
3797,A6,130.75,0.125,127,80.0
3798,E4,130.75,0.125,127,80.0
3799,G3,130.75,0.125,127,80.0
3800,A6,130.875,0.125,127,80.0
3801,E4,130.875,0.125,127,80.0
3802,G3,130.875,0.125,127,80.0
3803,C#3,131.0,0.5,127,80.0
3804,C#2,131.0,0.5,127,80.0
3805,E-3,131.0,0.25,127,80.0
3806,A6,131.0,0.125,127,80.0
3807,C#4,131.0,0.5,127,80.0
3808,C#3,131.0,0.5,127,80.0
3809,E4,131.0,0.125,127,80.0
3810,G3,131.0,0.125,127,80.0
3811,G#3,131.0,0.5,127,80.0
3812,G#2,131.0,0.5,127,80.0
3813,A6,131.125,0.125,127,80.0
3814,E4,131.125,0.125,127,80.0
3815,G3,131.125,0.125,127,80.0
3816,D2,131.25,0.25,127,80.0
3817,A6,131.25,0.125,127,80.0
3818,E4,131.25,0.125,127,80.0
3819,G3,131.25,0.125,127,80.0
3820,A6,131.375,0.125,127,80.0
3821,E4,131.375,0.125,127,80.0
3822,G3,131.375,0.125,127,80.0
3823,F#2,131.5,0.5,127,80.0
3824,F#1,131.5,0.5,127,80.0
3825,E-3,131.5,0.25,127,80.0
3826,A6,131.5,0.125,127,80.0
3827,F#3,131.5,0.5,127,80.0
3828,F#2,131.5,0.5,127,80.0
3829,E4,131.5,0.125,127,80.0
3830,G3,131.5,0.125,127,80.0
3831,A3,131.5,0.5,127,80.0
3832,A2,131.5,0.5,127,80.0
3833,A6,131.625,0.125,127,80.0
3834,E4,131.625,0.125,127,80.0
3835,G3,131.625,0.125,127,80.0
3836,D2,131.75,0.25,127,80.0
3837,A6,131.75,0.125,127,80.0
3838,E4,131.75,0.125,127,80.0
3839,G3,131.75,0.125,127,80.0
3840,A6,131.875,31/250,127,80.0
3841,E4,131.875,31/250,127,80.0
3842,G3,131.875,31/250,127,80.0
3843,G2,132.0,2.0,127,80.0
3844,G1,132.0,3.0,127,80.0
3845,G3,132.0,2.0,127,80.0
3846,G2,132.0,2.0,127,80.0
3847,B3,132.0,1.0,127,80.0
3848,A3,132.0,1.0,127,80.0
3849,G#2,132.0,1.0,127,80.0
3850,B1,132.0,1.0,127,80.0
3851,C#4,132.0,0.125,127,80.0
3852,G3,132.0,0.125,127,80.0
3853,B3,132.0,0.5,127,80.0
3854,B2,132.0,0.5,127,80.0
3855,C#4,132.125,0.125,127,80.0
3856,G3,132.125,0.125,127,80.0
3857,C#4,132.25,0.125,127,80.0
3858,G3,132.25,0.125,127,80.0
3859,C#4,132.375,0.125,127,80.0
3860,G3,132.375,0.125,127,80.0
3861,C#4,132.5,0.125,127,80.0
3862,G3,132.5,0.125,127,80.0
3863,C#4,132.5,0.5,127,80.0
3864,C#3,132.5,0.5,127,80.0
3865,C#4,132.625,0.125,127,80.0
3866,G3,132.625,0.125,127,80.0
3867,C#4,132.75,0.125,127,80.0
3868,G3,132.75,0.125,127,80.0
3869,C#4,132.875,0.125,127,80.0
3870,G3,132.875,0.125,127,80.0
3871,G#2,133.0,1.0,127,80.0
3872,C#4,133.0,0.125,127,80.0
3873,G3,133.0,0.125,127,80.0
3874,E-4,133.0,0.5,127,80.0
3875,E-3,133.0,0.5,127,80.0
3876,C#4,133.125,0.125,127,80.0
3877,G3,133.125,0.125,127,80.0
3878,C#4,133.25,0.125,127,80.0
3879,G3,133.25,0.125,127,80.0
3880,C#4,133.375,0.125,127,80.0
3881,G3,133.375,0.125,127,80.0
3882,C#4,133.5,0.125,127,80.0
3883,G3,133.5,0.125,127,80.0
3884,D4,133.5,0.5,127,80.0
3885,D3,133.5,0.5,127,80.0
3886,C#4,133.625,0.125,127,80.0
3887,G3,133.625,0.125,127,80.0
3888,C#4,133.75,0.125,127,80.0
3889,G3,133.75,0.125,127,80.0
3890,C#4,133.875,31/250,127,80.0
3891,G3,133.875,31/250,127,80.0
3892,B4,134.0,143/1000,127,80.0
3893,B4,134.0,143/1000,127,80.0
3894,B4,134.0,143/1000,127,80.0
3895,B2,134.0,143/1000,127,80.0
3896,B5,134.0,143/1000,127,80.0
3897,B5,134.0,143/1000,127,80.0
3898,B4,134.0,143/1000,127,80.0
3899,E4,134.0,3.0,127,80.0
3900,E3,134.0,3.0,127,80.0
3901,B-4,134.143,143/1000,127,80.0
3902,B-4,134.143,143/1000,127,80.0
3903,B-4,134.143,143/1000,127,80.0
3904,B-2,134.143,143/1000,127,80.0
3905,B-5,134.143,143/1000,127,80.0
3906,B-5,134.143,143/1000,127,80.0
3907,B-4,134.143,143/1000,127,80.0
3908,G4,134.285,143/1000,127,80.0
3909,G4,134.285,143/1000,127,80.0
3910,G4,134.285,143/1000,127,80.0
3911,F#2,134.285,143/1000,127,80.0
3912,G5,134.285,143/1000,127,80.0
3913,G5,134.285,143/1000,127,80.0
3914,G4,134.285,143/1000,127,80.0
3915,F#4,134.428,143/1000,127,80.0
3916,F#4,134.428,143/1000,127,80.0
3917,F#4,134.428,143/1000,127,80.0
3918,B1,134.428,143/1000,127,80.0
3919,F#5,134.428,143/1000,127,80.0
3920,F#5,134.428,143/1000,127,80.0
3921,F#4,134.428,143/1000,127,80.0
3922,G4,134.571,143/1000,127,80.0
3923,G4,134.571,143/1000,127,80.0
3924,G4,134.571,143/1000,127,80.0
3925,D2,134.571,143/1000,127,80.0
3926,G5,134.571,143/1000,127,80.0
3927,G5,134.571,143/1000,127,80.0
3928,G4,134.571,143/1000,127,80.0
3929,B-4,134.714,143/1000,127,80.0
3930,B-4,134.714,143/1000,127,80.0
3931,B-4,134.714,143/1000,127,80.0
3932,A2,134.714,143/1000,127,80.0
3933,B-5,134.714,143/1000,127,80.0
3934,B-5,134.714,143/1000,127,80.0
3935,B-4,134.714,143/1000,127,80.0
3936,B4,134.856,143/1000,127,80.0
3937,B4,134.856,143/1000,127,80.0
3938,B4,134.856,143/1000,127,80.0
3939,C3,134.856,143/1000,127,80.0
3940,B5,134.856,143/1000,127,80.0
3941,B5,134.856,143/1000,127,80.0
3942,B4,134.856,143/1000,127,80.0
3943,C#5,135.0,3/10,127,80.0
3944,C#5,135.0,3/10,127,80.0
3945,C#5,135.0,3/10,127,80.0
3946,G1,135.0,3.0,127,80.0
3947,B1,135.0,3/10,127,80.0
3948,C#6,135.0,3/10,127,80.0
3949,C#6,135.0,3/10,127,80.0
3950,C#5,135.0,3/10,127,80.0
3951,E5,135.3,3/10,127,80.0
3952,E5,135.3,3/10,127,80.0
3953,E5,135.3,3/10,127,80.0
3954,G2,135.3,3/10,127,80.0
3955,E6,135.3,3/10,127,80.0
3956,E6,135.3,3/10,127,80.0
3957,E5,135.3,3/10,127,80.0
3958,C5,135.6,3/10,127,80.0
3959,C5,135.6,3/10,127,80.0
3960,C5,135.6,3/10,127,80.0
3961,B1,135.6,3/10,127,80.0
3962,C6,135.6,3/10,127,80.0
3963,C6,135.6,3/10,127,80.0
3964,C5,135.6,3/10,127,80.0
3965,B4,135.9,3/10,127,80.0
3966,B4,135.9,3/10,127,80.0
3967,B4,135.9,3/10,127,80.0
3968,D2,135.9,3/10,127,80.0
3969,B5,135.9,3/10,127,80.0
3970,B5,135.9,3/10,127,80.0
3971,B4,135.9,3/10,127,80.0
3972,G4,136.2,3/10,127,80.0
3973,G4,136.2,3/10,127,80.0
3974,G4,136.2,3/10,127,80.0
3975,G2,136.2,3/10,127,80.0
3976,G5,136.2,3/10,127,80.0
3977,G5,136.2,3/10,127,80.0
3978,G4,136.2,3/10,127,80.0
3979,F#5,136.5,3/10,127,80.0
3980,F#5,136.5,3/10,127,80.0
3981,F#5,136.5,3/10,127,80.0
3982,D2,136.5,3/10,127,80.0
3983,F#6,136.5,3/10,127,80.0
3984,F#6,136.5,3/10,127,80.0
3985,F#5,136.5,3/10,127,80.0
3986,C#5,136.8,3/10,127,80.0
3987,C#5,136.8,3/10,127,80.0
3988,C#5,136.8,3/10,127,80.0
3989,B-2,136.8,3/10,127,80.0
3990,C#6,136.8,3/10,127,80.0
3991,C#6,136.8,3/10,127,80.0
3992,C#5,136.8,3/10,127,80.0
3993,C5,137.1,3/10,127,80.0
3994,C5,137.1,3/10,127,80.0
3995,C5,137.1,3/10,127,80.0
3996,G2,137.1,3/10,127,80.0
3997,C6,137.1,3/10,127,80.0
3998,C6,137.1,3/10,127,80.0
3999,C5,137.1,3/10,127,80.0
4000,E5,137.4,3/10,127,80.0
4001,E5,137.4,3/10,127,80.0
4002,E5,137.4,3/10,127,80.0
4003,D2,137.4,3/10,127,80.0
4004,E6,137.4,3/10,127,80.0
4005,E6,137.4,3/10,127,80.0
4006,E5,137.4,3/10,127,80.0
4007,C5,137.7,3/10,127,80.0
4008,C5,137.7,3/10,127,80.0
4009,C5,137.7,3/10,127,80.0
4010,B2,137.7,3/10,127,80.0
4011,C6,137.7,3/10,127,80.0
4012,C6,137.7,3/10,127,80.0
4013,C5,137.7,3/10,127,80.0
4014,B4,138.0,0.25,127,80.0
4015,B4,138.0,0.25,127,80.0
4016,B4,138.0,0.25,127,80.0
4017,G1,138.0,2.0,127,80.0
4018,D2,138.0,0.25,127,80.0
4019,B5,138.0,0.25,127,80.0
4020,B5,138.0,0.25,127,80.0
4021,B4,138.0,0.25,127,80.0
4022,B-4,138.25,0.25,127,80.0
4023,B-4,138.25,0.25,127,80.0
4024,B-4,138.25,0.25,127,80.0
4025,B1,138.25,0.25,127,80.0
4026,B-5,138.25,0.25,127,80.0
4027,B-5,138.25,0.25,127,80.0
4028,B-4,138.25,0.25,127,80.0
4029,B-4,138.5,0.25,127,80.0
4030,B-4,138.5,0.25,127,80.0
4031,B-4,138.5,0.25,127,80.0
4032,B1,138.5,0.25,127,80.0
4033,B-5,138.5,0.25,127,80.0
4034,B-5,138.5,0.25,127,80.0
4035,B-4,138.5,0.25,127,80.0
4036,F#5,138.75,0.25,127,80.0
4037,F#5,138.75,0.25,127,80.0
4038,F#5,138.75,0.25,127,80.0
4039,D2,138.75,0.25,127,80.0
4040,F#6,138.75,0.25,127,80.0
4041,F#6,138.75,0.25,127,80.0
4042,F#5,138.75,0.25,127,80.0
4043,F#4,139.0,333/1000,127,80.0
4044,F#4,139.0,333/1000,127,80.0
4045,F#4,139.0,333/1000,127,80.0
4046,G2,139.0,333/1000,127,80.0
4047,F#5,139.0,333/1000,127,80.0
4048,F#5,139.0,333/1000,127,80.0
4049,F#4,139.0,333/1000,127,80.0
4050,E4,139.333,333/1000,127,80.0
4051,E4,139.333,333/1000,127,80.0
4052,E4,139.333,333/1000,127,80.0
4053,F2,139.333,333/1000,127,80.0
4054,E5,139.333,333/1000,127,80.0
4055,E5,139.333,333/1000,127,80.0
4056,E4,139.333,333/1000,127,80.0
4057,B-4,139.667,333/1000,127,80.0
4058,B-4,139.667,333/1000,127,80.0
4059,B-4,139.667,333/1000,127,80.0
4060,B2,139.667,333/1000,127,80.0
4061,B-5,139.667,333/1000,127,80.0
4062,B-5,139.667,333/1000,127,80.0
4063,B-4,139.667,333/1000,127,80.0
4064,C5,140.0,0.25,127,80.0
4065,C5,140.0,0.25,127,80.0
4066,C5,140.0,0.25,127,80.0
4067,B1,140.0,0.25,127,80.0
4068,C6,140.0,0.25,127,80.0
4069,C6,140.0,0.25,127,80.0
4070,C5,140.0,0.25,127,80.0
4071,E5,140.25,0.125,127,80.0
4072,E5,140.25,0.125,127,80.0
4073,E5,140.25,0.125,127,80.0
4074,D2,140.25,0.125,127,80.0
4075,E6,140.25,0.125,127,80.0
4076,E6,140.25,0.125,127,80.0
4077,E5,140.25,0.125,127,80.0
4078,C#5,140.375,0.625,127,80.0
4079,C#5,140.375,0.625,127,80.0
4080,C#5,140.375,0.625,127,80.0
4081,D2,140.375,0.125,127,80.0
4082,C#6,140.375,0.125,127,80.0
4083,C#6,140.375,0.625,127,80.0
4084,C#5,140.375,0.625,127,80.0
4085,C#3,140.5,0.5,127,80.0
4086,C#2,140.5,0.5,127,80.0
4087,C#6,140.5,0.125,127,80.0
4088,C#4,140.5,0.5,127,80.0
4089,C#3,140.5,0.5,127,80.0
4090,E-3,140.5,0.5,127,80.0
4091,C#3,140.5,0.5,127,80.0
4092,B1,140.5,0.5,127,80.0
4093,C#6,140.625,0.125,127,80.0
4094,C#6,140.75,0.125,127,80.0
4095,C#6,140.875,0.125,127,80.0
4096,B2,141.0,0.5,127,80.0
4097,C#5,141.0,3.0,127,80.0
4098,B1,141.0,0.5,127,80.0
4099,C#6,141.0,0.125,127,80.0
4100,B3,141.0,0.5,127,80.0
4101,B2,141.0,0.5,127,80.0
4102,E-3,141.0,0.5,127,80.0
4103,D2,141.0,0.5,127,80.0
4104,C#6,141.125,0.125,127,80.0
4105,C#6,141.25,0.125,127,80.0
4106,C#6,141.375,0.125,127,80.0
4107,B-2,141.5,0.5,127,80.0
4108,B-1,141.5,0.5,127,80.0
4109,E-3,141.5,0.25,127,80.0
4110,C#6,141.5,0.125,127,80.0
4111,B-3,141.5,0.5,127,80.0
4112,B-2,141.5,0.5,127,80.0
4113,C#6,141.625,0.125,127,80.0
4114,D2,141.75,0.25,127,80.0
4115,C#6,141.75,0.125,127,80.0
4116,C#6,141.875,0.125,127,80.0
4117,G2,142.0,0.5,127,80.0
4118,G1,142.0,0.5,127,80.0
4119,E-3,142.0,0.25,127,80.0
4120,C#6,142.0,0.125,127,80.0
4121,G3,142.0,0.5,127,80.0
4122,G2,142.0,0.5,127,80.0
4123,E4,142.0,3.0,127,80.0
4124,E3,142.0,3.0,127,80.0
4125,C#6,142.125,0.125,127,80.0
4126,A2,142.25,0.25,127,80.0
4127,C#6,142.25,0.125,127,80.0
4128,C#6,142.375,0.125,127,80.0
4129,E2,142.5,0.5,127,80.0
4130,E-1,142.5,0.5,127,80.0
4131,C#6,142.5,0.125,127,80.0
4132,E3,142.5,0.5,127,80.0
4133,E2,142.5,0.5,127,80.0
4134,A2,142.5,0.25,127,80.0
4135,F2,142.5,0.25,127,80.0
4136,C#6,142.625,0.125,127,80.0
4137,C#6,142.75,0.125,127,80.0
4138,F2,142.75,0.25,127,80.0
4139,D2,142.75,0.25,127,80.0
4140,C#6,142.875,0.125,127,80.0
4141,F#2,143.0,0.5,127,80.0
4142,F#1,143.0,0.5,127,80.0
4143,D2,143.0,0.25,127,80.0
4144,C#6,143.0,0.125,127,80.0
4145,F#3,143.0,0.5,127,80.0
4146,F#2,143.0,0.5,127,80.0
4147,C#6,143.125,0.125,127,80.0
4148,C#6,143.25,0.125,127,80.0
4149,F2,143.25,0.25,127,80.0
4150,D2,143.25,0.25,127,80.0
4151,C#6,143.375,0.125,127,80.0
4152,B-2,143.5,0.5,127,80.0
4153,B-1,143.5,0.5,127,80.0
4154,C#6,143.5,0.125,127,80.0
4155,B-3,143.5,0.5,127,80.0
4156,B-2,143.5,0.5,127,80.0
4157,G#2,143.5,0.25,127,80.0
4158,B1,143.5,0.25,127,80.0
4159,C#6,143.625,0.125,127,80.0
4160,B-2,143.75,0.25,127,80.0
4161,C#6,143.75,0.125,127,80.0
4162,C#6,143.875,31/250,127,80.0
4163,B1,144.0,2.5,127,80.0
4164,B4,144.0,1.0,127,80.0
4165,F#4,144.0,1.0,127,80.0
4166,D4,144.0,1.0,127,80.0
4167,B3,144.0,1.0,127,80.0
4168,B2,144.0,1.0,127,80.0
4169,E-3,144.0,0.5,127,80.0
4170,C#3,144.0,0.5,127,80.0
4171,B1,144.0,0.5,127,80.0
4172,E-3,144.5,0.5,127,80.0
4173,B4,144.75,0.125,127,80.0
4174,B4,144.75,0.125,127,80.0
4175,B4,144.75,0.125,127,80.0
4176,B5,144.75,0.125,127,80.0
4177,B5,144.75,0.125,127,80.0
4178,C#5,144.875,0.125,102,80.0
4179,C#5,144.875,0.125,102,80.0
4180,C#5,144.875,0.125,102,80.0
4181,C#6,144.875,0.125,102,80.0
4182,C#6,144.875,0.125,102,80.0
4183,D5,145.0,0.5,102,80.0
4184,D5,145.0,0.5,102,80.0
4185,E-3,145.0,0.5,127,80.0
4186,D5,145.0,0.5,102,80.0
4187,D6,145.0,0.5,102,80.0
4188,D6,145.0,0.5,102,80.0
4189,B3,145.25,0.25,127,80.0
4190,B2,145.25,0.75,127,80.0
4191,E-3,145.5,0.25,127,80.0
4192,D4,145.5,0.25,127,80.0
4193,B3,145.5,0.25,127,80.0
4194,C#5,145.75,0.25,127,80.0
4195,C#5,145.75,0.25,127,80.0
4196,B1,145.75,0.25,127,80.0
4197,C#5,145.75,0.25,127,80.0
4198,C#6,145.75,0.25,127,80.0
4199,C#6,145.75,0.25,127,80.0
4200,D5,146.0,1.0,102,80.0
4201,B2,146.0,0.5,127,80.0
4202,D5,146.0,1.0,102,80.0
4203,D5,146.0,0.125,102,80.0
4204,D6,146.0,0.125,102,80.0
4205,D6,146.0,1.0,102,80.0
4206,B4,146.0,0.75,127,80.0
4207,F#4,146.0,0.75,127,80.0
4208,D4,146.0,0.75,127,80.0
4209,B3,146.0,0.75,127,80.0
4210,E-3,146.0,0.5,127,80.0
4211,D2,146.0,0.5,127,80.0
4212,D5,146.125,0.125,102,80.0
4213,D6,146.125,0.125,102,80.0
4214,D5,146.25,0.125,102,80.0
4215,D6,146.25,0.125,102,80.0
4216,D5,146.375,0.125,102,80.0
4217,D6,146.375,0.125,102,80.0
4218,B2,146.5,0.5,127,80.0
4219,F#1,146.5,0.5,127,80.0
4220,E-3,146.5,0.25,127,80.0
4221,D5,146.5,0.125,102,80.0
4222,D6,146.5,0.125,102,80.0
4223,D5,146.625,0.125,102,80.0
4224,D6,146.625,0.125,102,80.0
4225,B3,146.75,0.25,127,80.0
4226,B1,146.75,0.25,127,80.0
4227,D5,146.75,0.125,102,80.0
4228,D6,146.75,0.125,102,80.0
4229,D5,146.875,31/250,102,80.0
4230,D6,146.875,31/250,102,80.0
4231,B1,147.0,1.0,127,80.0
4232,B4,147.0,1.0,127,80.0
4233,F#4,147.0,1.0,127,80.0
4234,D4,147.0,1.0,127,80.0
4235,B3,147.0,1.0,127,80.0
4236,B2,147.0,1.0,127,80.0
4237,E-3,147.0,0.5,127,80.0
4238,C#3,147.0,0.5,127,80.0
4239,B1,147.0,0.5,127,80.0
4240,E4,147.0,2.0,127,80.0
4241,E3,147.0,2.0,127,80.0
4242,E-3,147.5,0.25,127,80.0
4243,B4,147.75,0.125,127,80.0
4244,B4,147.75,0.125,127,80.0
4245,B1,147.75,0.25,127,80.0
4246,B4,147.75,0.125,127,80.0
4247,B5,147.75,0.125,127,80.0
4248,B5,147.75,0.125,127,80.0
4249,C#5,147.875,0.125,102,80.0
4250,C#5,147.875,0.125,102,80.0
4251,C#5,147.875,0.125,102,80.0
4252,C#6,147.875,0.125,102,80.0
4253,C#6,147.875,0.125,102,80.0
4254,D5,148.0,0.5,102,80.0
4255,D5,148.0,0.5,102,80.0
4256,C#2,148.0,1.0,127,80.0
4257,D5,148.0,0.5,102,80.0
4258,D6,148.0,0.5,102,80.0
4259,D6,148.0,0.5,102,80.0
4260,B4,148.0,1.0,127,80.0
4261,F#4,148.0,1.0,127,80.0
4262,C#4,148.0,1.0,127,80.0
4263,C#3,148.0,1.0,127,80.0
4264,E-3,148.0,0.5,127,80.0
4265,B1,148.0,0.5,127,80.0
4266,E-3,148.5,0.5,127,80.0
4267,D2,148.5,0.5,127,80.0
4268,C#5,148.75,0.25,127,80.0
4269,C#5,148.75,0.25,127,80.0
4270,C#5,148.75,0.25,127,80.0
4271,C#6,148.75,0.25,127,80.0
4272,C#6,148.75,0.25,127,80.0
4273,D5,149.0,1.0,102,80.0
4274,D5,149.0,1.0,102,80.0
4275,D2,149.0,1.0,127,80.0
4276,E-3,149.0,0.125,127,80.0
4277,D5,149.0,0.125,102,80.0
4278,D6,149.0,0.125,102,80.0
4279,D6,149.0,1.0,102,80.0
4280,C5,149.0,1.0,114,80.0
4281,B4,149.0,1.0,114,80.0
4282,F#4,149.0,1.0,114,80.0
4283,D4,149.0,1.0,114,80.0
4284,D3,149.0,1.0,114,80.0
4285,A2,149.125,0.125,127,80.0
4286,D5,149.125,0.125,102,80.0
4287,D6,149.125,0.125,102,80.0
4288,B2,149.25,0.125,127,80.0
4289,D5,149.25,0.125,102,80.0
4290,D6,149.25,0.125,102,80.0
4291,A2,149.375,0.125,127,80.0
4292,D5,149.375,0.125,102,80.0
4293,D6,149.375,0.125,102,80.0
4294,F2,149.5,167/1000,127,80.0
4295,D5,149.5,0.125,102,80.0
4296,D6,149.5,0.125,102,80.0
4297,E4,149.5,0.5,127,80.0
4298,E3,149.5,0.5,127,80.0
4299,D5,149.625,0.125,102,80.0
4300,D6,149.625,0.125,102,80.0
4301,D2,149.667,167/1000,127,80.0
4302,D5,149.75,0.125,102,80.0
4303,D6,149.75,0.125,102,80.0
4304,F2,149.833,167/1000,127,80.0
4305,D2,149.833,167/1000,127,80.0
4306,D5,149.875,31/250,102,80.0
4307,D6,149.875,31/250,102,80.0
4308,B-1,150.0,3.0,127,80.0
4309,B4,150.0,0.75,106,80.0
4310,B-4,150.0,0.75,106,80.0
4311,C#4,150.0,0.75,106,80.0
4312,F#4,150.0,2.0,127,80.0
4313,B-3,150.0,2.0,127,80.0
4314,B-2,150.0,2.0,127,80.0
4315,B3,150.0,0.5,127,80.0
4316,A3,150.0,0.5,127,80.0
4317,B1,150.0,0.5,127,80.0
4318,E4,150.0,0.5,127,80.0
4319,E3,150.0,0.5,127,80.0
4320,B3,150.5,0.5,127,80.0
4321,D4,150.5,0.5,127,80.0
4322,D3,150.5,0.5,127,80.0
4323,B4,150.75,0.125,127,80.0
4324,C#4,150.75,1.25,127,80.0
4325,B4,150.75,0.125,127,80.0
4326,B4,150.75,0.125,127,80.0
4327,B5,150.75,0.125,127,80.0
4328,B5,150.75,0.125,127,80.0
4329,C#5,150.875,0.125,102,80.0
4330,C#5,150.875,0.125,102,80.0
4331,C#5,150.875,0.125,102,80.0
4332,C#6,150.875,0.125,102,80.0
4333,C#6,150.875,0.125,102,80.0
4334,D5,151.0,0.5,102,80.0
4335,B-4,151.0,1.0,127,80.0
4336,D5,151.0,0.5,102,80.0
4337,B3,151.0,0.5,127,80.0
4338,D5,151.0,0.5,102,80.0
4339,D6,151.0,0.5,102,80.0
4340,D6,151.0,0.5,102,80.0
4341,D4,151.0,0.5,127,80.0
4342,D3,151.0,0.5,127,80.0
4343,B3,151.5,0.25,127,80.0
4344,C#4,151.5,0.5,127,80.0
4345,C#3,151.5,0.5,127,80.0
4346,B4,151.75,0.25,127,80.0
4347,B4,151.75,0.25,127,80.0
4348,B1,151.75,0.25,127,80.0
4349,B4,151.75,0.25,127,80.0
4350,B5,151.75,0.25,127,80.0
4351,B5,151.75,0.25,127,80.0
4352,C#5,152.0,1.0,102,80.0
4353,C#5,152.0,1.0,102,80.0
4354,C#5,152.0,0.125,102,80.0
4355,C#6,152.0,0.125,102,80.0
4356,C#6,152.0,1.0,102,80.0
4357,B-4,152.0,1.0,127,80.0
4358,F#4,152.0,1.0,127,80.0
4359,B-2,152.0,1.0,127,80.0
4360,C#4,152.0,0.75,127,80.0
4361,B-3,152.0,0.75,127,80.0
4362,B3,152.0,0.5,127,80.0
4363,D2,152.0,0.5,127,80.0
4364,C#4,152.0,0.5,127,80.0
4365,C#3,152.0,0.5,127,80.0
4366,C#5,152.125,0.125,102,80.0
4367,C#6,152.125,0.125,102,80.0
4368,C#5,152.25,0.125,102,80.0
4369,C#6,152.25,0.125,102,80.0
4370,C#5,152.375,0.125,102,80.0
4371,C#6,152.375,0.125,102,80.0
4372,B3,152.5,0.25,127,80.0
4373,C#5,152.5,0.125,102,80.0
4374,C#6,152.5,0.125,102,80.0
4375,F#3,152.5,0.5,127,80.0
4376,F#2,152.5,0.5,127,80.0
4377,C#5,152.625,0.125,102,80.0
4378,C#6,152.625,0.125,102,80.0
4379,B1,152.75,0.25,127,80.0
4380,C#5,152.75,0.125,102,80.0
4381,C#6,152.75,0.125,102,80.0
4382,C#4,152.75,0.25,127,80.0
4383,B-3,152.75,0.25,127,80.0
4384,C#5,152.875,31/250,102,80.0
4385,C#6,152.875,31/250,102,80.0
4386,F#4,153.0,0.25,127,80.0
4387,B-2,153.0,1.5,127,80.0
4388,B-1,153.0,1.0,127,80.0
4389,E-3,153.0,0.5,127,80.0
4390,D2,153.0,0.5,127,80.0
4391,G3,153.0,3.0,127,80.0
4392,G2,153.0,3.0,127,80.0
4393,A4,153.25,0.25,127,80.0
4394,B-3,153.25,0.25,127,80.0
4395,A4,153.25,0.25,127,80.0
4396,A4,153.25,0.25,127,80.0
4397,A5,153.25,0.25,127,80.0
4398,A5,153.25,0.25,127,80.0
4399,F#4,153.5,0.25,127,80.0
4400,C#4,153.5,0.25,127,80.0
4401,F#4,153.5,0.25,127,80.0
4402,F#4,153.5,0.25,127,80.0
4403,F#5,153.5,0.25,127,80.0
4404,F#5,153.5,0.25,127,80.0
4405,E-3,153.5,0.5,127,80.0
4406,D2,153.5,0.5,127,80.0
4407,A4,153.75,0.25,127,80.0
4408,F#4,153.75,0.25,127,80.0
4409,A4,153.75,0.25,127,80.0
4410,A4,153.75,0.25,127,80.0
4411,A5,153.75,0.25,127,80.0
4412,A5,153.75,0.25,127,80.0
4413,E5,154.0,0.75,127,80.0
4414,E5,154.0,0.75,127,80.0
4415,E-3,154.0,0.25,127,80.0
4416,E5,154.0,0.125,127,80.0
4417,E6,154.0,0.125,127,80.0
4418,E6,154.0,0.75,127,80.0
4419,B-4,154.0,0.75,127,80.0
4420,F#4,154.0,0.75,127,80.0
4421,C#4,154.0,0.75,127,80.0
4422,B-3,154.0,0.75,127,80.0
4423,E5,154.125,0.125,127,80.0
4424,E6,154.125,0.125,127,80.0
4425,E5,154.25,0.125,127,80.0
4426,E6,154.25,0.125,127,80.0
4427,C3,154.25,0.25,127,80.0
4428,B2,154.25,0.25,127,80.0
4429,E5,154.375,0.125,127,80.0
4430,E6,154.375,0.125,127,80.0
4431,B-2,154.5,0.5,127,80.0
4432,F#1,154.5,0.5,127,80.0
4433,E-3,154.5,0.25,127,80.0
4434,E5,154.5,0.125,127,80.0
4435,E6,154.5,0.125,127,80.0
4436,E5,154.625,31/250,127,80.0
4437,E6,154.625,31/250,127,80.0
4438,B-4,154.75,0.125,127,80.0
4439,B-4,154.75,0.125,127,80.0
4440,A2,154.75,0.125,127,80.0
4441,B-4,154.75,0.125,127,80.0
4442,B-5,154.75,0.125,127,80.0
4443,B-5,154.75,0.125,127,80.0
4444,B-4,154.75,0.75,127,80.0
4445,F#4,154.75,0.75,127,80.0
4446,C#4,154.75,0.75,127,80.0
4447,B-3,154.75,0.75,127,80.0
4448,E5,154.875,0.125,127,80.0
4449,E5,154.875,0.125,127,80.0
4450,C3,154.875,0.125,127,80.0
4451,E5,154.875,0.125,127,80.0
4452,E6,154.875,0.125,127,80.0
4453,E6,154.875,0.125,127,80.0
4454,C#5,155.0,1.0,127,80.0
4455,B-2,155.0,0.5,127,80.0
4456,C#5,155.0,1.0,127,80.0
4457,E1,155.0,0.5,127,80.0
4458,F2,155.0,167/1000,127,80.0
4459,C#5,155.0,0.125,127,80.0
4460,C#6,155.0,0.125,127,80.0
4461,C#6,155.0,1.0,127,80.0
4462,C#5,155.125,0.125,127,80.0
4463,C#6,155.125,0.125,127,80.0
4464,D2,155.167,167/1000,127,80.0
4465,C#5,155.25,0.125,127,80.0
4466,C#6,155.25,0.125,127,80.0
4467,D2,155.333,167/1000,127,80.0
4468,C#5,155.375,0.125,127,80.0
4469,C#6,155.375,0.125,127,80.0
4470,F#1,155.5,0.5,127,80.0
4471,D2,155.5,167/1000,127,80.0
4472,C#5,155.5,0.125,127,80.0
4473,C#6,155.5,0.125,127,80.0
4474,B-4,155.5,0.5,127,80.0
4475,F#4,155.5,0.5,127,80.0
4476,C#4,155.5,0.5,127,80.0
4477,B-3,155.5,0.5,127,80.0
4478,B-2,155.5,0.5,127,80.0
4479,C#5,155.625,0.125,127,80.0
4480,C#6,155.625,0.125,127,80.0
4481,D2,155.667,167/1000,127,80.0
4482,C#5,155.75,0.125,127,80.0
4483,C#6,155.75,0.125,127,80.0
4484,D2,155.833,167/1000,127,80.0
4485,C#5,155.875,31/250,127,80.0
4486,C#6,155.875,31/250,127,80.0
4487,B1,156.0,2.5,127,80.0
4488,B4,156.0,1.0,127,80.0
4489,F#4,156.0,1.0,127,80.0
4490,D4,156.0,1.0,127,80.0
4491,B3,156.0,1.0,127,80.0
4492,B2,156.0,1.0,127,80.0
4493,E-3,156.0,0.5,127,80.0
4494,B1,156.0,0.5,127,80.0
4495,E-3,156.5,0.5,127,80.0
4496,B4,156.75,0.125,127,80.0
4497,B4,156.75,0.125,127,80.0
4498,B4,156.75,0.125,127,80.0
4499,B5,156.75,0.125,127,80.0
4500,B5,156.75,0.125,127,80.0
4501,C#5,156.875,0.125,102,80.0
4502,C#5,156.875,0.125,102,80.0
4503,C#5,156.875,0.125,102,80.0
4504,C#6,156.875,0.125,102,80.0
4505,C#6,156.875,0.125,102,80.0
4506,D5,157.0,0.5,102,80.0
4507,D5,157.0,0.5,102,80.0
4508,E-3,157.0,0.25,127,80.0
4509,D5,157.0,0.5,102,80.0
4510,D6,157.0,0.5,102,80.0
4511,D6,157.0,0.5,102,80.0
4512,B3,157.25,0.25,127,80.0
4513,B2,157.25,0.75,127,80.0
4514,B1,157.25,0.25,127,80.0
4515,E-3,157.5,0.25,127,80.0
4516,D4,157.5,0.25,127,80.0
4517,B3,157.5,0.25,127,80.0
4518,C#5,157.75,0.25,127,80.0
4519,C#5,157.75,0.25,127,80.0
4520,B1,157.75,0.25,127,80.0
4521,C#5,157.75,0.25,127,80.0
4522,C#6,157.75,0.25,127,80.0
4523,C#6,157.75,0.25,127,80.0
4524,D5,158.0,1.0,102,80.0
4525,B2,158.0,0.5,127,80.0
4526,D5,158.0,1.0,102,80.0
4527,D5,158.0,0.125,102,80.0
4528,D6,158.0,0.125,102,80.0
4529,D6,158.0,1.0,102,80.0
4530,B4,158.0,0.75,127,80.0
4531,F#4,158.0,0.75,127,80.0
4532,D4,158.0,0.75,127,80.0
4533,B3,158.0,0.75,127,80.0
4534,F3,158.0,0.25,127,80.0
4535,D2,158.0,0.25,127,80.0
4536,D5,158.125,0.125,102,80.0
4537,D6,158.125,0.125,102,80.0
4538,E-3,158.25,0.25,127,80.0
4539,D5,158.25,0.125,102,80.0
4540,D6,158.25,0.125,102,80.0
4541,D5,158.375,0.125,102,80.0
4542,D6,158.375,0.125,102,80.0
4543,B2,158.5,0.5,127,80.0
4544,F#1,158.5,0.5,127,80.0
4545,E-3,158.5,0.25,127,80.0
4546,D5,158.5,0.125,102,80.0
4547,D6,158.5,0.125,102,80.0
4548,D5,158.625,0.125,102,80.0
4549,D6,158.625,0.125,102,80.0
4550,B3,158.75,0.25,127,80.0
4551,B1,158.75,0.25,127,80.0
4552,D5,158.75,0.125,102,80.0
4553,D6,158.75,0.125,102,80.0
4554,D5,158.875,31/250,102,80.0
4555,D6,158.875,31/250,102,80.0
4556,B1,159.0,1.0,127,80.0
4557,B4,159.0,1.0,127,80.0
4558,F#4,159.0,1.0,127,80.0
4559,D4,159.0,1.0,127,80.0
4560,B3,159.0,1.0,127,80.0
4561,B2,159.0,1.0,127,80.0
4562,E-3,159.0,0.25,127,80.0
4563,B1,159.0,0.25,127,80.0
4564,E-3,159.25,0.25,127,80.0
4565,F3,159.5,0.25,127,80.0
4566,B4,159.75,0.125,127,80.0
4567,B4,159.75,0.125,127,80.0
4568,B1,159.75,0.25,127,80.0
4569,B4,159.75,0.125,127,80.0
4570,B5,159.75,0.125,127,80.0
4571,B5,159.75,0.125,127,80.0
4572,C#5,159.875,0.125,102,80.0
4573,C#5,159.875,0.125,102,80.0
4574,C#5,159.875,0.125,102,80.0
4575,C#6,159.875,0.125,102,80.0
4576,C#6,159.875,0.125,102,80.0
4577,D5,160.0,0.5,102,80.0
4578,D5,160.0,0.5,102,80.0
4579,C#2,160.0,1.0,127,80.0
4580,D5,160.0,0.5,102,80.0
4581,D6,160.0,0.5,102,80.0
4582,D6,160.0,0.5,102,80.0
4583,B4,160.0,1.0,127,80.0
4584,F#4,160.0,1.0,127,80.0
4585,C#4,160.0,1.0,127,80.0
4586,C#3,160.0,1.0,127,80.0
4587,E-3,160.0,0.25,127,80.0
4588,D2,160.0,0.25,127,80.0
4589,E-3,160.25,0.25,127,80.0
4590,F3,160.5,0.25,127,80.0
4591,C#5,160.75,0.25,127,80.0
4592,C#5,160.75,0.25,127,80.0
4593,B1,160.75,0.25,127,80.0
4594,C#5,160.75,0.25,127,80.0
4595,C#6,160.75,0.25,127,80.0
4596,C#6,160.75,0.25,127,80.0
4597,D5,161.0,1.0,102,80.0
4598,D5,161.0,1.0,102,80.0
4599,D2,161.0,1.0,127,80.0
4600,E-3,161.0,0.25,127,80.0
4601,D5,161.0,0.125,102,80.0
4602,D6,161.0,0.125,102,80.0
4603,D6,161.0,1.0,102,80.0
4604,C5,161.0,1.0,114,80.0
4605,B4,161.0,1.0,114,80.0
4606,F#4,161.0,1.0,114,80.0
4607,D4,161.0,1.0,114,80.0
4608,D3,161.0,1.0,114,80.0
4609,G3,161.0,3.0,127,80.0
4610,G2,161.0,3.0,127,80.0
4611,D5,161.125,0.125,102,80.0
4612,D6,161.125,0.125,102,80.0
4613,D2,161.25,0.25,127,80.0
4614,D5,161.25,0.125,102,80.0
4615,D6,161.25,0.125,102,80.0
4616,D5,161.375,0.125,102,80.0
4617,D6,161.375,0.125,102,80.0
4618,F3,161.5,0.25,127,80.0
4619,D5,161.5,0.125,102,80.0
4620,D6,161.5,0.125,102,80.0
4621,D5,161.625,0.125,102,80.0
4622,D6,161.625,0.125,102,80.0
4623,D2,161.75,0.25,127,80.0
4624,D5,161.75,0.125,102,80.0
4625,D6,161.75,0.125,102,80.0
4626,D5,161.875,31/250,102,80.0
4627,D6,161.875,31/250,102,80.0
4628,B-1,162.0,3.0,127,80.0
4629,B4,162.0,0.75,106,80.0
4630,B-4,162.0,0.75,106,80.0
4631,C#4,162.0,0.75,106,80.0
4632,F#4,162.0,2.0,127,80.0
4633,B-3,162.0,2.0,127,80.0
4634,B-2,162.0,2.0,127,80.0
4635,E-3,162.0,0.5,127,80.0
4636,C#3,162.0,0.5,127,80.0
4637,B1,162.0,0.5,127,80.0
4638,E-3,162.5,0.5,127,80.0
4639,B4,162.75,0.125,127,80.0
4640,C#4,162.75,1.25,127,80.0
4641,B4,162.75,0.125,127,80.0
4642,B4,162.75,0.125,127,80.0
4643,B5,162.75,0.125,127,80.0
4644,B5,162.75,0.125,127,80.0
4645,C#5,162.875,0.125,102,80.0
4646,C#5,162.875,0.125,102,80.0
4647,C#5,162.875,0.125,102,80.0
4648,C#6,162.875,0.125,102,80.0
4649,C#6,162.875,0.125,102,80.0
4650,D5,163.0,0.5,102,80.0
4651,B-4,163.0,1.0,127,80.0
4652,D5,163.0,0.5,102,80.0
4653,E-3,163.0,0.25,127,80.0
4654,D5,163.0,0.5,102,80.0
4655,D6,163.0,0.5,102,80.0
4656,D6,163.0,0.5,102,80.0
4657,B1,163.25,0.25,127,80.0
4658,E-3,163.5,0.5,127,80.0
4659,D2,163.5,0.5,127,80.0
4660,B4,163.75,0.25,127,80.0
4661,B4,163.75,0.25,127,80.0
4662,B4,163.75,0.25,127,80.0
4663,B5,163.75,0.25,127,80.0
4664,B5,163.75,0.25,127,80.0
4665,C#5,164.0,1.0,102,80.0
4666,C#5,164.0,1.0,102,80.0
4667,E-3,164.0,0.5,127,80.0
4668,C#5,164.0,0.125,102,80.0
4669,C#6,164.0,0.125,102,80.0
4670,C#6,164.0,1.0,102,80.0
4671,B-4,164.0,1.0,127,80.0
4672,F#4,164.0,1.0,127,80.0
4673,B-2,164.0,1.0,127,80.0
4674,C#4,164.0,0.75,127,80.0
4675,B-3,164.0,0.75,127,80.0
4676,C#5,164.125,0.125,102,80.0
4677,C#6,164.125,0.125,102,80.0
4678,C#5,164.25,0.125,102,80.0
4679,C#6,164.25,0.125,102,80.0
4680,C#5,164.375,0.125,102,80.0
4681,C#6,164.375,0.125,102,80.0
4682,E-3,164.5,0.25,127,80.0
4683,C#5,164.5,0.125,102,80.0
4684,C#6,164.5,0.125,102,80.0
4685,C#5,164.625,0.125,102,80.0
4686,C#6,164.625,0.125,102,80.0
4687,B1,164.75,0.25,127,80.0
4688,C#5,164.75,0.125,102,80.0
4689,C#6,164.75,0.125,102,80.0
4690,C#4,164.75,0.25,127,80.0
4691,B-3,164.75,0.25,127,80.0
4692,C#5,164.875,31/250,102,80.0
4693,C#6,164.875,31/250,102,80.0
4694,F#4,165.0,0.25,127,80.0
4695,B-2,165.0,1.5,127,80.0
4696,B-1,165.0,1.0,127,80.0
4697,D2,165.0,333/1000,127,80.0
4698,A4,165.25,0.25,127,80.0
4699,B-3,165.25,0.25,127,80.0
4700,A4,165.25,0.25,127,80.0
4701,A4,165.25,0.25,127,80.0
4702,A5,165.25,0.25,127,80.0
4703,A5,165.25,0.25,127,80.0
4704,D2,165.333,333/1000,127,80.0
4705,F#4,165.5,0.25,127,80.0
4706,C#4,165.5,0.25,127,80.0
4707,F#4,165.5,0.25,127,80.0
4708,F#4,165.5,0.25,127,80.0
4709,F#5,165.5,0.25,127,80.0
4710,F#5,165.5,0.25,127,80.0
4711,D2,165.667,167/1000,127,80.0
4712,A4,165.75,0.25,127,80.0
4713,F#4,165.75,0.25,127,80.0
4714,A4,165.75,0.25,127,80.0
4715,A4,165.75,0.25,127,80.0
4716,A5,165.75,0.25,127,80.0
4717,A5,165.75,0.25,127,80.0
4718,D2,165.833,167/1000,127,80.0
4719,E5,166.0,0.75,127,80.0
4720,E5,166.0,0.75,127,80.0
4721,D2,166.0,167/1000,127,80.0
4722,E5,166.0,0.125,127,80.0
4723,E6,166.0,0.125,127,80.0
4724,E6,166.0,0.75,127,80.0
4725,B-4,166.0,0.75,127,80.0
4726,F#4,166.0,0.75,127,80.0
4727,C#4,166.0,0.75,127,80.0
4728,B-3,166.0,0.75,127,80.0
4729,G3,166.0,2.0,127,80.0
4730,G2,166.0,2.0,127,80.0
4731,E5,166.125,0.125,127,80.0
4732,E6,166.125,0.125,127,80.0
4733,D2,166.167,333/1000,127,80.0
4734,E5,166.25,0.125,127,80.0
4735,E6,166.25,0.125,127,80.0
4736,E5,166.375,0.125,127,80.0
4737,E6,166.375,0.125,127,80.0
4738,B-2,166.5,0.5,127,80.0
4739,F#1,166.5,0.5,127,80.0
4740,E5,166.5,0.125,127,80.0
4741,E6,166.5,0.125,127,80.0
4742,C#3,166.5,0.5,127,80.0
4743,B1,166.5,0.5,127,80.0
4744,E5,166.625,31/250,127,80.0
4745,E6,166.625,31/250,127,80.0
4746,B-4,166.75,0.125,127,80.0
4747,B-4,166.75,0.125,127,80.0
4748,B-4,166.75,0.125,127,80.0
4749,B-5,166.75,0.125,127,80.0
4750,B-5,166.75,0.125,127,80.0
4751,B-4,166.75,0.75,127,80.0
4752,F#4,166.75,0.75,127,80.0
4753,C#4,166.75,0.75,127,80.0
4754,B-3,166.75,0.75,127,80.0
4755,E5,166.875,0.125,127,80.0
4756,E5,166.875,0.125,127,80.0
4757,E5,166.875,0.125,127,80.0
4758,E6,166.875,0.125,127,80.0
4759,E6,166.875,0.125,127,80.0
4760,C#5,167.0,1.0,127,80.0
4761,B-2,167.0,0.5,127,80.0
4762,C#5,167.0,1.0,127,80.0
4763,E1,167.0,0.5,127,80.0
4764,C#5,167.0,0.125,127,80.0
4765,C#6,167.0,0.125,127,80.0
4766,C#6,167.0,1.0,127,80.0
4767,C#3,167.0,0.25,127,80.0
4768,B1,167.0,0.25,127,80.0
4769,C#5,167.125,0.125,127,80.0
4770,C#6,167.125,0.125,127,80.0
4771,D2,167.25,0.25,127,80.0
4772,C#5,167.25,0.125,127,80.0
4773,C#6,167.25,0.125,127,80.0
4774,C#5,167.375,0.125,127,80.0
4775,C#6,167.375,0.125,127,80.0
4776,F#1,167.5,0.5,127,80.0
4777,B3,167.5,0.25,127,80.0
4778,C#5,167.5,0.125,127,80.0
4779,C#6,167.5,0.125,127,80.0
4780,B-4,167.5,0.5,127,80.0
4781,F#4,167.5,0.5,127,80.0
4782,C#4,167.5,0.5,127,80.0
4783,B-3,167.5,0.5,127,80.0
4784,B-2,167.5,0.5,127,80.0
4785,C#5,167.625,0.125,127,80.0
4786,C#6,167.625,0.125,127,80.0
4787,D2,167.75,0.25,127,80.0
4788,C#5,167.75,0.125,127,80.0
4789,C#6,167.75,0.125,127,80.0
4790,C#5,167.875,31/250,127,80.0
4791,C#6,167.875,31/250,127,80.0
4792,B1,168.0,2.75,127,80.0
4793,B4,168.0,1.0,127,80.0
4794,F#4,168.0,1.0,127,80.0
4795,D4,168.0,1.0,127,80.0
4796,B3,168.0,1.0,127,80.0
4797,B2,168.0,1.0,127,80.0
4798,B3,168.0,0.5,127,80.0
4799,A3,168.0,0.5,127,80.0
4800,B1,168.0,0.5,127,80.0
4801,B3,168.5,0.5,127,80.0
4802,C#4,168.5,0.5,127,80.0
4803,C#3,168.5,0.5,127,80.0
4804,B4,168.75,0.125,127,80.0
4805,B4,168.75,0.125,127,80.0
4806,B4,168.75,0.125,127,80.0
4807,B5,168.75,0.125,127,80.0
4808,B5,168.75,0.125,127,80.0
4809,C#5,168.875,0.125,102,80.0
4810,C#5,168.875,0.125,102,80.0
4811,C#5,168.875,0.125,102,80.0
4812,C#6,168.875,0.125,102,80.0
4813,C#6,168.875,0.125,102,80.0
4814,D5,169.0,0.5,102,80.0
4815,D5,169.0,0.5,102,80.0
4816,B3,169.0,0.25,127,80.0
4817,D5,169.0,0.5,102,80.0
4818,D6,169.0,0.5,102,80.0
4819,D6,169.0,0.5,102,80.0
4820,B3,169.0,0.5,127,80.0
4821,B2,169.0,0.5,127,80.0
4822,B3,169.25,0.25,127,80.0
4823,B2,169.25,0.75,127,80.0
4824,B1,169.25,0.25,127,80.0
4825,D2,169.5,0.25,127,80.0
4826,D4,169.5,0.25,127,80.0
4827,B3,169.5,0.25,127,80.0
4828,B-3,169.5,0.5,127,80.0
4829,B-2,169.5,0.5,127,80.0
4830,C#5,169.75,0.25,127,80.0
4831,C#5,169.75,0.25,127,80.0
4832,F3,169.75,0.25,127,80.0
4833,C#5,169.75,0.25,127,80.0
4834,C#6,169.75,0.25,127,80.0
4835,C#6,169.75,0.25,127,80.0
4836,D5,170.0,1.0,102,80.0
4837,B2,170.0,0.5,127,80.0
4838,D5,170.0,1.0,102,80.0
4839,D5,170.0,0.125,102,80.0
4840,D6,170.0,0.125,102,80.0
4841,D6,170.0,1.0,102,80.0
4842,B4,170.0,0.75,127,80.0
4843,F#4,170.0,0.75,127,80.0
4844,D4,170.0,0.75,127,80.0
4845,B3,170.0,0.75,127,80.0
4846,B3,170.0,0.25,127,80.0
4847,A3,170.0,0.25,127,80.0
4848,G3,170.0,0.5,127,80.0
4849,G2,170.0,0.5,127,80.0
4850,D5,170.125,0.125,102,80.0
4851,D6,170.125,0.125,102,80.0
4852,D2,170.25,0.25,127,80.0
4853,D5,170.25,0.125,102,80.0
4854,D6,170.25,0.125,102,80.0
4855,D5,170.375,0.125,102,80.0
4856,D6,170.375,0.125,102,80.0
4857,B2,170.5,0.5,127,80.0
4858,F3,170.5,0.25,127,80.0
4859,D5,170.5,0.125,102,80.0
4860,E-3,170.5,0.5,127,80.0
4861,D6,170.5,0.125,102,80.0
4862,D5,170.625,0.125,102,80.0
4863,D6,170.625,0.125,102,80.0
4864,B3,170.75,0.25,127,80.0
4865,F#1,170.75,0.25,127,80.0
4866,B3,170.75,0.25,127,80.0
4867,D5,170.75,0.125,102,80.0
4868,D6,170.75,0.125,102,80.0
4869,D5,170.875,31/250,102,80.0
4870,D6,170.875,31/250,102,80.0
4871,B1,171.0,1.0,127,80.0
4872,B4,171.0,1.0,127,80.0
4873,F#4,171.0,1.0,127,80.0
4874,D4,171.0,1.0,127,80.0
4875,B3,171.0,1.0,127,80.0
4876,B2,171.0,1.0,127,80.0
4877,A3,171.0,0.25,127,80.0
4878,C3,171.0,0.25,127,80.0
4879,B2,171.0,0.25,127,80.0
4880,F#3,171.0,0.5,127,80.0
4881,F#2,171.0,0.5,127,80.0
4882,F3,171.25,0.25,127,80.0
4883,F3,171.5,0.25,127,80.0
4884,B-3,171.5,0.5,127,80.0
4885,B-2,171.5,0.5,127,80.0
4886,B4,171.75,0.125,127,80.0
4887,B4,171.75,0.125,127,80.0
4888,B4,171.75,0.125,127,80.0
4889,B5,171.75,0.125,127,80.0
4890,B5,171.75,0.125,127,80.0
4891,C3,171.75,0.25,127,80.0
4892,B2,171.75,0.25,127,80.0
4893,C#5,171.875,0.125,102,80.0
4894,C#5,171.875,0.125,102,80.0
4895,C#5,171.875,0.125,102,80.0
4896,C#6,171.875,0.125,102,80.0
4897,C#6,171.875,0.125,102,80.0
4898,D5,172.0,0.5,102,80.0
4899,D5,172.0,0.5,102,80.0
4900,C#2,172.0,1.0,127,80.0
4901,D3,172.0,0.125,127,80.0
4902,D5,172.0,0.5,102,80.0
4903,D6,172.0,0.5,102,80.0
4904,D6,172.0,0.5,102,80.0
4905,B4,172.0,1.0,127,80.0
4906,F#4,172.0,1.0,127,80.0
4907,C#4,172.0,1.0,127,80.0
4908,C#3,172.0,1.0,127,80.0
4909,D4,172.0,0.125,127,80.0
4910,B3,172.0,0.125,127,80.0
4911,C3,172.125,0.125,127,80.0
4912,D4,172.125,0.125,127,80.0
4913,B3,172.125,0.125,127,80.0
4914,A2,172.25,0.125,127,80.0
4915,D4,172.25,0.125,127,80.0
4916,B3,172.25,0.125,127,80.0
4917,G2,172.375,0.125,127,80.0
4918,D4,172.375,0.125,127,80.0
4919,B3,172.375,0.125,127,80.0
4920,G2,172.5,167/1000,127,80.0
4921,D2,172.5,167/1000,127,80.0
4922,D4,172.5,0.125,127,80.0
4923,B3,172.5,0.125,127,80.0
4924,D4,172.625,0.125,127,80.0
4925,B3,172.625,0.125,127,80.0
4926,B1,172.667,167/1000,127,80.0
4927,C#5,172.75,0.25,127,80.0
4928,C#5,172.75,0.25,127,80.0
4929,C#5,172.75,0.25,127,80.0
4930,C#6,172.75,0.25,127,80.0
4931,C#6,172.75,0.25,127,80.0
4932,D4,172.75,0.125,127,80.0
4933,B3,172.75,0.125,127,80.0
4934,D2,172.833,167/1000,127,80.0
4935,D4,172.875,0.125,127,80.0
4936,B3,172.875,0.125,127,80.0
4937,D5,173.0,1.0,102,80.0
4938,D5,173.0,1.0,102,80.0
4939,D2,173.0,1.0,127,80.0
4940,D5,173.0,0.125,102,80.0
4941,D6,173.0,0.125,102,80.0
4942,D6,173.0,1.0,102,80.0
4943,C5,173.0,1.0,114,80.0
4944,B4,173.0,1.0,114,80.0
4945,F#4,173.0,1.0,114,80.0
4946,D4,173.0,1.0,114,80.0
4947,D3,173.0,1.0,114,80.0
4948,E-3,173.0,333/1000,127,80.0
4949,C#3,173.0,333/1000,127,80.0
4950,D4,173.0,0.125,127,80.0
4951,B3,173.0,0.125,127,80.0
4952,D5,173.125,0.125,102,80.0
4953,D6,173.125,0.125,102,80.0
4954,D4,173.125,0.125,127,80.0
4955,B3,173.125,0.125,127,80.0
4956,D5,173.25,0.125,102,80.0
4957,D6,173.25,0.125,102,80.0
4958,D4,173.25,0.125,127,80.0
4959,B3,173.25,0.125,127,80.0
4960,E-3,173.333,333/1000,127,80.0
4961,C#3,173.333,333/1000,127,80.0
4962,D5,173.375,0.125,102,80.0
4963,D6,173.375,0.125,102,80.0
4964,D4,173.375,0.125,127,80.0
4965,B3,173.375,0.125,127,80.0
4966,D5,173.5,0.125,102,80.0
4967,D6,173.5,0.125,102,80.0
4968,D4,173.5,0.125,127,80.0
4969,B3,173.5,0.125,127,80.0
4970,D5,173.625,0.125,102,80.0
4971,D6,173.625,0.125,102,80.0
4972,D4,173.625,0.125,127,80.0
4973,B3,173.625,0.125,127,80.0
4974,E-3,173.667,333/1000,127,80.0
4975,C#3,173.667,333/1000,127,80.0
4976,D2,173.667,333/1000,127,80.0
4977,D5,173.75,0.125,102,80.0
4978,D6,173.75,0.125,102,80.0
4979,D4,173.75,0.125,127,80.0
4980,B3,173.75,0.125,127,80.0
4981,D5,173.875,31/250,102,80.0
4982,D6,173.875,31/250,102,80.0
4983,D4,173.875,0.125,127,80.0
4984,B3,173.875,0.125,127,80.0
4985,B-1,174.0,3.0,127,80.0
4986,B4,174.0,0.75,106,80.0
4987,B-4,174.0,0.75,106,80.0
4988,C#4,174.0,0.75,106,80.0
4989,F#4,174.0,2.0,127,80.0
4990,B-3,174.0,2.0,127,80.0
4991,B-2,174.0,2.0,127,80.0
4992,F3,174.0,0.5,127,80.0
4993,C#3,174.0,0.5,127,80.0
4994,B1,174.0,0.5,127,80.0
4995,D4,174.0,0.125,127,80.0
4996,B3,174.0,0.125,127,80.0
4997,D4,174.125,0.125,127,80.0
4998,B3,174.125,0.125,127,80.0
4999,D4,174.25,0.125,127,80.0
5000,B3,174.25,0.125,127,80.0
5001,D4,174.375,0.125,127,80.0
5002,B3,174.375,0.125,127,80.0
5003,F3,174.5,0.25,127,80.0
5004,D4,174.5,0.125,127,80.0
5005,B3,174.5,0.125,127,80.0
5006,D4,174.625,0.125,127,80.0
5007,B3,174.625,0.125,127,80.0
5008,B4,174.75,0.125,127,80.0
5009,C#4,174.75,1.25,127,80.0
5010,B4,174.75,0.125,127,80.0
5011,B1,174.75,0.25,127,80.0
5012,B4,174.75,0.125,127,80.0
5013,B5,174.75,0.125,127,80.0
5014,B5,174.75,0.125,127,80.0
5015,D4,174.75,0.125,127,80.0
5016,B3,174.75,0.125,127,80.0
5017,C#5,174.875,0.125,102,80.0
5018,C#5,174.875,0.125,102,80.0
5019,C#5,174.875,0.125,102,80.0
5020,C#6,174.875,0.125,102,80.0
5021,C#6,174.875,0.125,102,80.0
5022,D4,174.875,0.125,127,80.0
5023,B3,174.875,0.125,127,80.0
5024,D5,175.0,0.5,102,80.0
5025,B-4,175.0,1.0,127,80.0
5026,D5,175.0,0.5,102,80.0
5027,E-3,175.0,0.25,127,80.0
5028,D5,175.0,0.5,102,80.0
5029,D6,175.0,0.5,102,80.0
5030,D6,175.0,0.5,102,80.0
5031,D4,175.0,0.125,127,80.0
5032,B3,175.0,0.125,127,80.0
5033,D4,175.125,0.125,127,80.0
5034,B3,175.125,0.125,127,80.0
5035,B1,175.25,0.25,127,80.0
5036,D4,175.25,0.125,127,80.0
5037,B3,175.25,0.125,127,80.0
5038,D4,175.375,0.125,127,80.0
5039,B3,175.375,0.125,127,80.0
5040,E-3,175.5,0.25,127,80.0
5041,D4,175.5,0.125,127,80.0
5042,B3,175.5,0.125,127,80.0
5043,D4,175.625,0.125,127,80.0
5044,B3,175.625,0.125,127,80.0
5045,B4,175.75,0.25,127,80.0
5046,B4,175.75,0.25,127,80.0
5047,B1,175.75,0.25,127,80.0
5048,B4,175.75,0.25,127,80.0
5049,B5,175.75,0.25,127,80.0
5050,B5,175.75,0.25,127,80.0
5051,D4,175.75,0.125,127,80.0
5052,B3,175.75,0.125,127,80.0
5053,D4,175.875,31/250,127,80.0
5054,B3,175.875,31/250,127,80.0
5055,C#5,176.0,1.0,102,80.0
5056,C#5,176.0,1.0,102,80.0
5057,C#5,176.0,0.125,102,80.0
5058,C#6,176.0,0.125,102,80.0
5059,C#6,176.0,1.0,102,80.0
5060,B-4,176.0,1.0,127,80.0
5061,F#4,176.0,1.0,127,80.0
5062,B-2,176.0,1.0,127,80.0
5063,C#4,176.0,0.75,127,80.0
5064,B-3,176.0,0.75,127,80.0
5065,F3,176.0,0.25,127,80.0
5066,D2,176.0,0.25,127,80.0
5067,E4,176.0,0.125,127,80.0
5068,C#4,176.0,0.125,127,80.0
5069,C#5,176.125,0.125,102,80.0
5070,C#6,176.125,0.125,102,80.0
5071,E4,176.125,0.125,127,80.0
5072,C#4,176.125,0.125,127,80.0
5073,E-3,176.25,0.25,127,80.0
5074,C#5,176.25,0.125,102,80.0
5075,C#6,176.25,0.125,102,80.0
5076,E4,176.25,0.125,127,80.0
5077,C#4,176.25,0.125,127,80.0
5078,C#5,176.375,0.125,102,80.0
5079,C#6,176.375,0.125,102,80.0
5080,E4,176.375,0.125,127,80.0
5081,C#4,176.375,0.125,127,80.0
5082,F3,176.5,0.25,127,80.0
5083,C#5,176.5,0.125,102,80.0
5084,C#6,176.5,0.125,102,80.0
5085,E4,176.5,0.125,127,80.0
5086,C#4,176.5,0.125,127,80.0
5087,C#5,176.625,0.125,102,80.0
5088,C#6,176.625,0.125,102,80.0
5089,E4,176.625,0.125,127,80.0
5090,C#4,176.625,0.125,127,80.0
5091,B1,176.75,0.25,127,80.0
5092,C#5,176.75,0.125,102,80.0
5093,C#6,176.75,0.125,102,80.0
5094,C#4,176.75,0.25,127,80.0
5095,B-3,176.75,0.25,127,80.0
5096,E4,176.75,0.125,127,80.0
5097,C#4,176.75,0.125,127,80.0
5098,C#5,176.875,31/250,102,80.0
5099,C#6,176.875,31/250,102,80.0
5100,E4,176.875,31/250,127,80.0
5101,C#4,176.875,31/250,127,80.0
5102,F#4,177.0,0.25,127,80.0
5103,B-2,177.0,1.5,127,80.0
5104,B-1,177.0,1.0,127,80.0
5105,E-3,177.0,0.25,127,80.0
5106,B1,177.0,0.25,127,80.0
5107,F#4,177.0,0.125,127,80.0
5108,D4,177.0,0.125,127,80.0
5109,F#4,177.125,0.125,127,80.0
5110,D4,177.125,0.125,127,80.0
5111,A4,177.25,0.25,127,80.0
5112,B-3,177.25,0.25,127,80.0
5113,A4,177.25,0.25,127,80.0
5114,E-3,177.25,0.25,127,80.0
5115,A4,177.25,0.25,127,80.0
5116,A5,177.25,0.25,127,80.0
5117,A5,177.25,0.25,127,80.0
5118,F#4,177.25,0.125,127,80.0
5119,D4,177.25,0.125,127,80.0
5120,F#4,177.375,0.125,127,80.0
5121,D4,177.375,0.125,127,80.0
5122,F#4,177.5,0.25,127,80.0
5123,C#4,177.5,0.25,127,80.0
5124,F#4,177.5,0.25,127,80.0
5125,F3,177.5,0.25,127,80.0
5126,F#4,177.5,0.25,127,80.0
5127,F#5,177.5,0.25,127,80.0
5128,F#5,177.5,0.25,127,80.0
5129,F#4,177.5,0.125,127,80.0
5130,D4,177.5,0.125,127,80.0
5131,F#4,177.625,0.125,127,80.0
5132,D4,177.625,0.125,127,80.0
5133,A4,177.75,0.25,127,80.0
5134,F#4,177.75,0.25,127,80.0
5135,A4,177.75,0.25,127,80.0
5136,B1,177.75,0.25,127,80.0
5137,A4,177.75,0.25,127,80.0
5138,A5,177.75,0.25,127,80.0
5139,A5,177.75,0.25,127,80.0
5140,F#4,177.75,0.125,127,80.0
5141,D4,177.75,0.125,127,80.0
5142,F#4,177.875,31/250,127,80.0
5143,D4,177.875,31/250,127,80.0
5144,E5,178.0,0.75,127,80.0
5145,E5,178.0,0.75,127,80.0
5146,E5,178.0,0.125,127,80.0
5147,E6,178.0,0.125,127,80.0
5148,E6,178.0,0.75,127,80.0
5149,B-4,178.0,0.75,127,80.0
5150,F#4,178.0,0.75,127,80.0
5151,C#4,178.0,0.75,127,80.0
5152,B-3,178.0,0.75,127,80.0
5153,E-3,178.0,0.25,127,80.0
5154,D2,178.0,0.25,127,80.0
5155,C#4,178.0,0.125,127,80.0
5156,B-3,178.0,0.125,127,80.0
5157,E5,178.125,0.125,127,80.0
5158,E6,178.125,0.125,127,80.0
5159,C#4,178.125,0.125,127,80.0
5160,B-3,178.125,0.125,127,80.0
5161,E-3,178.25,0.25,127,80.0
5162,E5,178.25,0.125,127,80.0
5163,E6,178.25,0.125,127,80.0
5164,C#4,178.25,0.125,127,80.0
5165,B-3,178.25,0.125,127,80.0
5166,E5,178.375,0.125,127,80.0
5167,E6,178.375,0.125,127,80.0
5168,C#4,178.375,0.125,127,80.0
5169,B-3,178.375,0.125,127,80.0
5170,B-2,178.5,0.5,127,80.0
5171,E-3,178.5,0.25,127,80.0
5172,E5,178.5,0.125,127,80.0
5173,E6,178.5,0.125,127,80.0
5174,C#4,178.5,0.125,127,80.0
5175,B-3,178.5,0.125,127,80.0
5176,E5,178.625,31/250,127,80.0
5177,E6,178.625,31/250,127,80.0
5178,C#4,178.625,0.125,127,80.0
5179,B-3,178.625,0.125,127,80.0
5180,B-4,178.75,0.125,127,80.0
5181,B-4,178.75,0.125,127,80.0
5182,D2,178.75,0.125,127,80.0
5183,B-4,178.75,0.125,127,80.0
5184,B-5,178.75,0.125,127,80.0
5185,B-5,178.75,0.125,127,80.0
5186,B-4,178.75,0.75,127,80.0
5187,F#4,178.75,0.75,127,80.0
5188,C#4,178.75,0.75,127,80.0
5189,B-3,178.75,0.75,127,80.0
5190,C#4,178.75,0.125,127,80.0
5191,B-3,178.75,0.125,127,80.0
5192,E5,178.875,0.125,127,80.0
5193,E5,178.875,0.125,127,80.0
5194,D2,178.875,0.125,127,80.0
5195,E5,178.875,0.125,127,80.0
5196,E6,178.875,0.125,127,80.0
5197,E6,178.875,0.125,127,80.0
5198,C#4,178.875,0.125,127,80.0
5199,B-3,178.875,0.125,127,80.0
5200,C#5,179.0,1.0,127,80.0
5201,B-2,179.0,0.5,127,80.0
5202,C#5,179.0,1.0,127,80.0
5203,D2,179.0,0.25,127,80.0
5204,C#5,179.0,0.125,127,80.0
5205,C#6,179.0,0.125,127,80.0
5206,C#6,179.0,1.0,127,80.0
5207,C#4,179.0,0.125,127,80.0
5208,B-3,179.0,0.125,127,80.0
5209,C#5,179.125,0.125,127,80.0
5210,C#6,179.125,0.125,127,80.0
5211,C#4,179.125,0.125,127,80.0
5212,B-3,179.125,0.125,127,80.0
5213,B2,179.25,0.25,127,80.0
5214,C#5,179.25,0.125,127,80.0
5215,C#6,179.25,0.125,127,80.0
5216,C#4,179.25,0.125,127,80.0
5217,B-3,179.25,0.125,127,80.0
5218,C#5,179.375,0.125,127,80.0
5219,C#6,179.375,0.125,127,80.0
5220,C#4,179.375,0.125,127,80.0
5221,B-3,179.375,0.125,127,80.0
5222,E1,179.5,0.5,127,80.0
5223,C#5,179.5,0.125,127,80.0
5224,C#6,179.5,0.125,127,80.0
5225,B-4,179.5,0.5,127,80.0
5226,F#4,179.5,0.5,127,80.0
5227,C#4,179.5,0.5,127,80.0
5228,B-3,179.5,0.5,127,80.0
5229,B-2,179.5,0.5,127,80.0
5230,G2,179.5,167/1000,127,80.0
5231,F2,179.5,167/1000,127,80.0
5232,C#4,179.5,0.125,127,80.0
5233,B-3,179.5,0.125,127,80.0
5234,C#5,179.625,0.125,127,80.0
5235,C#6,179.625,0.125,127,80.0
5236,C#4,179.625,0.125,127,80.0
5237,B-3,179.625,0.125,127,80.0
5238,G2,179.667,167/1000,127,80.0
5239,F2,179.667,167/1000,127,80.0
5240,C#5,179.75,0.125,127,80.0
5241,C#6,179.75,0.125,127,80.0
5242,C#4,179.75,0.125,127,80.0
5243,B-3,179.75,0.125,127,80.0
5244,D2,179.833,167/1000,127,80.0
5245,C#5,179.875,31/250,127,80.0
5246,C#6,179.875,31/250,127,80.0
5247,C#4,179.875,0.125,127,80.0
5248,B-3,179.875,0.125,127,80.0
5249,B1,180.0,1.5,127,80.0
5250,B4,180.0,1.0,127,80.0
5251,F#4,180.0,1.0,127,80.0
5252,D4,180.0,1.0,127,80.0
5253,B3,180.0,1.0,127,80.0
5254,B2,180.0,1.0,127,80.0
5255,E-3,180.0,0.5,127,80.0
5256,E3,180.0,0.5,127,80.0
5257,B1,180.0,0.5,127,80.0
5258,C#4,180.0,0.125,127,80.0
5259,B-3,180.0,0.125,127,80.0
5260,C#4,180.125,0.125,127,80.0
5261,B-3,180.125,0.125,127,80.0
5262,C#4,180.25,0.125,127,80.0
5263,B-3,180.25,0.125,127,80.0
5264,C#4,180.375,0.125,127,80.0
5265,B-3,180.375,0.125,127,80.0
5266,E-3,180.5,0.25,127,80.0
5267,C#4,180.5,0.125,127,80.0
5268,B-3,180.5,0.125,127,80.0
5269,C#4,180.625,0.125,127,80.0
5270,B-3,180.625,0.125,127,80.0
5271,B4,180.75,0.125,127,80.0
5272,B4,180.75,0.125,127,80.0
5273,B1,180.75,0.25,127,80.0
5274,B4,180.75,0.125,127,80.0
5275,B5,180.75,0.125,127,80.0
5276,B5,180.75,0.125,127,80.0
5277,C#4,180.75,0.125,127,80.0
5278,B-3,180.75,0.125,127,80.0
5279,C#5,180.875,0.125,102,80.0
5280,C#5,180.875,0.125,102,80.0
5281,C#5,180.875,0.125,102,80.0
5282,C#6,180.875,0.125,102,80.0
5283,C#6,180.875,0.125,102,80.0
5284,C#4,180.875,0.125,127,80.0
5285,B-3,180.875,0.125,127,80.0
5286,D5,181.0,0.5,102,80.0
5287,D5,181.0,0.5,102,80.0
5288,E-3,181.0,0.25,127,80.0
5289,D5,181.0,0.5,102,80.0
5290,D6,181.0,0.5,102,80.0
5291,D6,181.0,0.5,102,80.0
5292,C#4,181.0,0.125,127,80.0
5293,B-3,181.0,0.125,127,80.0
5294,C#4,181.125,0.125,127,80.0
5295,B-3,181.125,0.125,127,80.0
5296,B3,181.25,0.25,127,80.0
5297,B2,181.25,0.75,127,80.0
5298,B1,181.25,0.25,127,80.0
5299,C#4,181.25,0.125,127,80.0
5300,B-3,181.25,0.125,127,80.0
5301,C#4,181.375,0.125,127,80.0
5302,B-3,181.375,0.125,127,80.0
5303,F#2,181.5,0.25,127,80.0
5304,E-3,181.5,0.25,127,80.0
5305,D4,181.5,0.25,127,80.0
5306,B3,181.5,0.25,127,80.0
5307,C#4,181.5,0.125,127,80.0
5308,B-3,181.5,0.125,127,80.0
5309,C#4,181.625,0.125,127,80.0
5310,B-3,181.625,0.125,127,80.0
5311,C#5,181.75,0.25,127,80.0
5312,C#5,181.75,0.25,127,80.0
5313,E2,181.75,0.25,127,80.0
5314,B1,181.75,0.25,127,80.0
5315,C#5,181.75,0.25,127,80.0
5316,C#6,181.75,0.25,127,80.0
5317,C#6,181.75,0.25,127,80.0
5318,C#4,181.75,0.125,127,80.0
5319,B-3,181.75,0.125,127,80.0
5320,C#4,181.875,0.125,127,80.0
5321,B-3,181.875,0.125,127,80.0
5322,D5,182.0,1.0,102,80.0
5323,B2,182.0,0.5,127,80.0
5324,D5,182.0,1.0,102,80.0
5325,D2,182.0,0.25,127,80.0
5326,D5,182.0,0.125,102,80.0
5327,D6,182.0,0.125,102,80.0
5328,D6,182.0,1.0,102,80.0
5329,B4,182.0,0.75,127,80.0
5330,F#4,182.0,0.75,127,80.0
5331,D4,182.0,0.75,127,80.0
5332,B3,182.0,0.75,127,80.0
5333,F3,182.0,0.25,127,80.0
5334,D2,182.0,0.25,127,80.0
5335,C#4,182.0,0.125,127,80.0
5336,B-3,182.0,0.125,127,80.0
5337,D5,182.125,0.125,102,80.0
5338,D6,182.125,0.125,102,80.0
5339,C#4,182.125,0.125,127,80.0
5340,B-3,182.125,0.125,127,80.0
5341,B1,182.25,0.25,127,80.0
5342,E-3,182.25,0.25,127,80.0
5343,D5,182.25,0.125,102,80.0
5344,D6,182.25,0.125,102,80.0
5345,C#4,182.25,0.125,127,80.0
5346,B-3,182.25,0.125,127,80.0
5347,D5,182.375,0.125,102,80.0
5348,D6,182.375,0.125,102,80.0
5349,C#4,182.375,0.125,127,80.0
5350,B-3,182.375,0.125,127,80.0
5351,B2,182.5,0.5,127,80.0
5352,G1,182.5,0.25,127,80.0
5353,E-3,182.5,0.25,127,80.0
5354,D5,182.5,0.125,102,80.0
5355,D6,182.5,0.125,102,80.0
5356,C#4,182.5,0.125,127,80.0
5357,B-3,182.5,0.125,127,80.0
5358,D5,182.625,0.125,102,80.0
5359,D6,182.625,0.125,102,80.0
5360,C#4,182.625,0.125,127,80.0
5361,B-3,182.625,0.125,127,80.0
5362,B3,182.75,0.25,127,80.0
5363,B-1,182.75,0.25,127,80.0
5364,B1,182.75,0.25,127,80.0
5365,D5,182.75,0.125,102,80.0
5366,D6,182.75,0.125,102,80.0
5367,C#4,182.75,0.125,127,80.0
5368,B-3,182.75,0.125,127,80.0
5369,D5,182.875,31/250,102,80.0
5370,D6,182.875,31/250,102,80.0
5371,C#4,182.875,0.125,127,80.0
5372,B-3,182.875,0.125,127,80.0
5373,B1,183.0,1.0,127,80.0
5374,B4,183.0,1.0,127,80.0
5375,F#4,183.0,1.0,127,80.0
5376,D4,183.0,1.0,127,80.0
5377,B3,183.0,1.0,127,80.0
5378,B2,183.0,1.0,127,80.0
5379,E-3,183.0,0.25,127,80.0
5380,B1,183.0,0.25,127,80.0
5381,C#4,183.0,0.125,127,80.0
5382,B-3,183.0,0.125,127,80.0
5383,C#4,183.125,0.125,127,80.0
5384,B-3,183.125,0.125,127,80.0
5385,E-3,183.25,0.25,127,80.0
5386,C#4,183.25,0.125,127,80.0
5387,B-3,183.25,0.125,127,80.0
5388,C#4,183.375,0.125,127,80.0
5389,B-3,183.375,0.125,127,80.0
5390,F3,183.5,0.25,127,80.0
5391,C#4,183.5,0.125,127,80.0
5392,B-3,183.5,0.125,127,80.0
5393,C#4,183.625,0.125,127,80.0
5394,B-3,183.625,0.125,127,80.0
5395,B4,183.75,0.125,127,80.0
5396,B4,183.75,0.125,127,80.0
5397,B1,183.75,0.25,127,80.0
5398,B4,183.75,0.125,127,80.0
5399,B5,183.75,0.125,127,80.0
5400,B5,183.75,0.125,127,80.0
5401,C#4,183.75,0.125,127,80.0
5402,B-3,183.75,0.125,127,80.0
5403,C#5,183.875,0.125,102,80.0
5404,C#5,183.875,0.125,102,80.0
5405,C#5,183.875,0.125,102,80.0
5406,C#6,183.875,0.125,102,80.0
5407,C#6,183.875,0.125,102,80.0
5408,C#4,183.875,31/250,127,80.0
5409,B-3,183.875,31/250,127,80.0
5410,D5,184.0,0.5,102,80.0
5411,D5,184.0,0.5,102,80.0
5412,C#2,184.0,1.0,127,80.0
5413,D5,184.0,0.5,102,80.0
5414,D6,184.0,0.5,102,80.0
5415,D6,184.0,0.5,102,80.0
5416,B4,184.0,1.0,127,80.0
5417,F#4,184.0,1.0,127,80.0
5418,C#4,184.0,1.0,127,80.0
5419,C#3,184.0,1.0,127,80.0
5420,E-3,184.0,0.25,127,80.0
5421,D2,184.0,0.25,127,80.0
5422,D4,184.0,0.125,127,80.0
5423,B3,184.0,0.125,127,80.0
5424,D4,184.125,0.125,127,80.0
5425,B3,184.125,0.125,127,80.0
5426,E-3,184.25,0.25,127,80.0
5427,D4,184.25,0.125,127,80.0
5428,B3,184.25,0.125,127,80.0
5429,D4,184.375,0.125,127,80.0
5430,B3,184.375,0.125,127,80.0
5431,B3,184.5,0.25,127,80.0
5432,D4,184.5,0.125,127,80.0
5433,B3,184.5,0.125,127,80.0
5434,D4,184.625,0.125,127,80.0
5435,B3,184.625,0.125,127,80.0
5436,C#5,184.75,0.25,127,80.0
5437,C#5,184.75,0.25,127,80.0
5438,B1,184.75,0.25,127,80.0
5439,C#5,184.75,0.25,127,80.0
5440,C#6,184.75,0.25,127,80.0
5441,C#6,184.75,0.25,127,80.0
5442,D4,184.75,0.125,127,80.0
5443,B3,184.75,0.125,127,80.0
5444,D4,184.875,0.125,127,80.0
5445,B3,184.875,0.125,127,80.0
5446,D5,185.0,1.0,102,80.0
5447,D5,185.0,1.0,102,80.0
5448,D2,185.0,1.0,127,80.0
5449,E-3,185.0,0.25,127,80.0
5450,D5,185.0,0.125,102,80.0
5451,D6,185.0,0.125,102,80.0
5452,D6,185.0,1.0,102,80.0
5453,C5,185.0,1.0,114,80.0
5454,B4,185.0,1.0,114,80.0
5455,F#4,185.0,1.0,114,80.0
5456,D4,185.0,1.0,114,80.0
5457,D3,185.0,1.0,114,80.0
5458,D4,185.0,0.125,127,80.0
5459,B3,185.0,0.125,127,80.0
5460,D5,185.125,0.125,102,80.0
5461,D6,185.125,0.125,102,80.0
5462,D4,185.125,0.125,127,80.0
5463,B3,185.125,0.125,127,80.0
5464,E-3,185.25,0.25,127,80.0
5465,D5,185.25,0.125,102,80.0
5466,D6,185.25,0.125,102,80.0
5467,D4,185.25,0.125,127,80.0
5468,B3,185.25,0.125,127,80.0
5469,D5,185.375,0.125,102,80.0
5470,D6,185.375,0.125,102,80.0
5471,D4,185.375,0.125,127,80.0
5472,B3,185.375,0.125,127,80.0
5473,B3,185.5,0.25,127,80.0
5474,D5,185.5,0.125,102,80.0
5475,D6,185.5,0.125,102,80.0
5476,D4,185.5,0.125,127,80.0
5477,B3,185.5,0.125,127,80.0
5478,D5,185.625,0.125,102,80.0
5479,D6,185.625,0.125,102,80.0
5480,D4,185.625,0.125,127,80.0
5481,B3,185.625,0.125,127,80.0
5482,D5,185.75,0.125,102,80.0
5483,D6,185.75,0.125,102,80.0
5484,E-3,185.75,0.25,127,80.0
5485,B1,185.75,0.25,127,80.0
5486,D4,185.75,0.125,127,80.0
5487,B3,185.75,0.125,127,80.0
5488,D5,185.875,31/250,102,80.0
5489,D6,185.875,31/250,102,80.0
5490,D4,185.875,0.125,127,80.0
5491,B3,185.875,0.125,127,80.0
5492,B-1,186.0,3.0,127,80.0
5493,B4,186.0,0.75,106,80.0
5494,B-4,186.0,0.75,106,80.0
5495,C#4,186.0,0.75,106,80.0
5496,F#4,186.0,2.0,127,80.0
5497,B-3,186.0,2.0,127,80.0
5498,B-2,186.0,2.0,127,80.0
5499,B3,186.0,0.5,127,80.0
5500,A3,186.0,0.5,127,80.0
5501,B1,186.0,0.5,127,80.0
5502,D4,186.0,0.125,127,80.0
5503,B3,186.0,0.125,127,80.0
5504,D4,186.125,0.125,127,80.0
5505,B3,186.125,0.125,127,80.0
5506,D4,186.25,0.125,127,80.0
5507,B3,186.25,0.125,127,80.0
5508,D4,186.375,0.125,127,80.0
5509,B3,186.375,0.125,127,80.0
5510,B3,186.5,0.25,127,80.0
5511,D4,186.5,0.125,127,80.0
5512,B3,186.5,0.125,127,80.0
5513,D4,186.625,0.125,127,80.0
5514,B3,186.625,0.125,127,80.0
5515,B4,186.75,0.125,127,80.0
5516,C#4,186.75,1.25,127,80.0
5517,B4,186.75,0.125,127,80.0
5518,B1,186.75,0.25,127,80.0
5519,B4,186.75,0.125,127,80.0
5520,B5,186.75,0.125,127,80.0
5521,B5,186.75,0.125,127,80.0
5522,D4,186.75,0.125,127,80.0
5523,B3,186.75,0.125,127,80.0
5524,C#5,186.875,0.125,102,80.0
5525,C#5,186.875,0.125,102,80.0
5526,C#5,186.875,0.125,102,80.0
5527,C#6,186.875,0.125,102,80.0
5528,C#6,186.875,0.125,102,80.0
5529,D4,186.875,0.125,127,80.0
5530,B3,186.875,0.125,127,80.0
5531,D5,187.0,0.5,102,80.0
5532,B-4,187.0,1.0,127,80.0
5533,D5,187.0,0.5,102,80.0
5534,B3,187.0,0.5,127,80.0
5535,D5,187.0,0.5,102,80.0
5536,D6,187.0,0.5,102,80.0
5537,D6,187.0,0.5,102,80.0
5538,D4,187.0,0.125,127,80.0
5539,B3,187.0,0.125,127,80.0
5540,D4,187.125,0.125,127,80.0
5541,B3,187.125,0.125,127,80.0
5542,D4,187.25,0.125,127,80.0
5543,B3,187.25,0.125,127,80.0
5544,D4,187.375,0.125,127,80.0
5545,B3,187.375,0.125,127,80.0
5546,B3,187.5,0.5,127,80.0
5547,D4,187.5,0.125,127,80.0
5548,B3,187.5,0.125,127,80.0
5549,D4,187.625,0.125,127,80.0
5550,B3,187.625,0.125,127,80.0
5551,B4,187.75,0.25,127,80.0
5552,B4,187.75,0.25,127,80.0
5553,B4,187.75,0.25,127,80.0
5554,B5,187.75,0.25,127,80.0
5555,B5,187.75,0.25,127,80.0
5556,D4,187.75,0.125,127,80.0
5557,B3,187.75,0.125,127,80.0
5558,D4,187.875,31/250,127,80.0
5559,B3,187.875,31/250,127,80.0
5560,C#5,188.0,1.0,102,80.0
5561,C#5,188.0,1.0,102,80.0
5562,C#5,188.0,0.125,102,80.0
5563,C#6,188.0,0.125,102,80.0
5564,C#6,188.0,1.0,102,80.0
5565,B-4,188.0,1.0,127,80.0
5566,F#4,188.0,1.0,127,80.0
5567,B-2,188.0,1.0,127,80.0
5568,C#4,188.0,0.75,127,80.0
5569,B-3,188.0,0.75,127,80.0
5570,F3,188.0,0.5,127,80.0
5571,D2,188.0,0.5,127,80.0
5572,E4,188.0,0.125,127,80.0
5573,C#4,188.0,0.125,127,80.0
5574,C#5,188.125,0.125,102,80.0
5575,C#6,188.125,0.125,102,80.0
5576,E4,188.125,0.125,127,80.0
5577,C#4,188.125,0.125,127,80.0
5578,C#5,188.25,0.125,102,80.0
5579,C#6,188.25,0.125,102,80.0
5580,E4,188.25,0.125,127,80.0
5581,C#4,188.25,0.125,127,80.0
5582,C#5,188.375,0.125,102,80.0
5583,C#6,188.375,0.125,102,80.0
5584,E4,188.375,0.125,127,80.0
5585,C#4,188.375,0.125,127,80.0
5586,F3,188.5,0.25,127,80.0
5587,C#5,188.5,0.125,102,80.0
5588,C#6,188.5,0.125,102,80.0
5589,E4,188.5,0.125,127,80.0
5590,C#4,188.5,0.125,127,80.0
5591,C#5,188.625,0.125,102,80.0
5592,C#6,188.625,0.125,102,80.0
5593,E4,188.625,0.125,127,80.0
5594,C#4,188.625,0.125,127,80.0
5595,B1,188.75,0.25,127,80.0
5596,C#5,188.75,0.125,102,80.0
5597,C#6,188.75,0.125,102,80.0
5598,C#4,188.75,0.25,127,80.0
5599,B-3,188.75,0.25,127,80.0
5600,E4,188.75,0.125,127,80.0
5601,C#4,188.75,0.125,127,80.0
5602,C#5,188.875,31/250,102,80.0
5603,C#6,188.875,31/250,102,80.0
5604,E4,188.875,31/250,127,80.0
5605,C#4,188.875,31/250,127,80.0
5606,F#4,189.0,0.25,127,80.0
5607,B-2,189.0,1.5,127,80.0
5608,B-1,189.0,1.0,127,80.0
5609,B3,189.0,333/1000,127,80.0
5610,A3,189.0,333/1000,127,80.0
5611,F#4,189.0,0.125,127,80.0
5612,D4,189.0,0.125,127,80.0
5613,F#4,189.125,0.125,127,80.0
5614,D4,189.125,0.125,127,80.0
5615,A4,189.25,0.25,127,80.0
5616,B-3,189.25,0.25,127,80.0
5617,A4,189.25,0.25,127,80.0
5618,A4,189.25,0.25,127,80.0
5619,A5,189.25,0.25,127,80.0
5620,A5,189.25,0.25,127,80.0
5621,F#4,189.25,0.125,127,80.0
5622,D4,189.25,0.125,127,80.0
5623,F3,189.333,333/1000,127,80.0
5624,B1,189.333,333/1000,127,80.0
5625,F#4,189.375,0.125,127,80.0
5626,D4,189.375,0.125,127,80.0
5627,F#4,189.5,0.25,127,80.0
5628,C#4,189.5,0.25,127,80.0
5629,F#4,189.5,0.25,127,80.0
5630,F#4,189.5,0.25,127,80.0
5631,F#5,189.5,0.25,127,80.0
5632,F#5,189.5,0.25,127,80.0
5633,F#4,189.5,0.125,127,80.0
5634,D4,189.5,0.125,127,80.0
5635,F#4,189.625,0.125,127,80.0
5636,D4,189.625,0.125,127,80.0
5637,B3,189.667,333/1000,127,80.0
5638,A3,189.667,333/1000,127,80.0
5639,B1,189.667,333/1000,127,80.0
5640,A4,189.75,0.25,127,80.0
5641,F#4,189.75,0.25,127,80.0
5642,A4,189.75,0.25,127,80.0
5643,A4,189.75,0.25,127,80.0
5644,A5,189.75,0.25,127,80.0
5645,A5,189.75,0.25,127,80.0
5646,F#4,189.75,0.125,127,80.0
5647,D4,189.75,0.125,127,80.0
5648,F#4,189.875,31/250,127,80.0
5649,D4,189.875,31/250,127,80.0
5650,E5,190.0,0.75,127,80.0
5651,E5,190.0,0.75,127,80.0
5652,E5,190.0,0.125,127,80.0
5653,E6,190.0,0.125,127,80.0
5654,E6,190.0,0.75,127,80.0
5655,B-4,190.0,0.75,127,80.0
5656,F#4,190.0,0.75,127,80.0
5657,C#4,190.0,0.75,127,80.0
5658,B-3,190.0,0.75,127,80.0
5659,B3,190.0,0.5,127,80.0
5660,A3,190.0,0.5,127,80.0
5661,B1,190.0,0.5,127,80.0
5662,C#4,190.0,0.125,127,80.0
5663,B-3,190.0,0.125,127,80.0
5664,E5,190.125,0.125,127,80.0
5665,E6,190.125,0.125,127,80.0
5666,C#4,190.125,0.125,127,80.0
5667,B-3,190.125,0.125,127,80.0
5668,E5,190.25,0.125,127,80.0
5669,E6,190.25,0.125,127,80.0
5670,C#4,190.25,0.125,127,80.0
5671,B-3,190.25,0.125,127,80.0
5672,E5,190.375,0.125,127,80.0
5673,E6,190.375,0.125,127,80.0
5674,C#4,190.375,0.125,127,80.0
5675,B-3,190.375,0.125,127,80.0
5676,B-2,190.5,0.5,127,80.0
5677,F#1,190.5,0.5,127,80.0
5678,F3,190.5,0.375,127,80.0
5679,E5,190.5,0.125,127,80.0
5680,E6,190.5,0.125,127,80.0
5681,C#4,190.5,0.125,127,80.0
5682,B-3,190.5,0.125,127,80.0
5683,E5,190.625,31/250,127,80.0
5684,E6,190.625,31/250,127,80.0
5685,C#4,190.625,0.125,127,80.0
5686,B-3,190.625,0.125,127,80.0
5687,B-4,190.75,0.125,127,80.0
5688,B-4,190.75,0.125,127,80.0
5689,B-4,190.75,0.125,127,80.0
5690,B-5,190.75,0.125,127,80.0
5691,B-5,190.75,0.125,127,80.0
5692,B-4,190.75,0.75,127,80.0
5693,F#4,190.75,0.75,127,80.0
5694,C#4,190.75,0.75,127,80.0
5695,B-3,190.75,0.75,127,80.0
5696,C#4,190.75,0.125,127,80.0
5697,B-3,190.75,0.125,127,80.0
5698,E5,190.875,0.125,127,80.0
5699,E5,190.875,0.125,127,80.0
5700,E5,190.875,0.125,127,80.0
5701,E6,190.875,0.125,127,80.0
5702,E6,190.875,0.125,127,80.0
5703,C3,190.875,0.125,127,80.0
5704,B2,190.875,0.125,127,80.0
5705,C#4,190.875,0.125,127,80.0
5706,B-3,190.875,0.125,127,80.0
5707,C#5,191.0,1.0,127,80.0
5708,B-2,191.0,0.5,127,80.0
5709,C#5,191.0,1.0,127,80.0
5710,E1,191.0,0.5,127,80.0
5711,C3,191.0,0.25,127,80.0
5712,C#5,191.0,0.125,127,80.0
5713,C#6,191.0,0.125,127,80.0
5714,C#6,191.0,1.0,127,80.0
5715,C#4,191.0,0.125,127,80.0
5716,B-3,191.0,0.125,127,80.0
5717,C#5,191.125,0.125,127,80.0
5718,C#6,191.125,0.125,127,80.0
5719,C#4,191.125,0.125,127,80.0
5720,B-3,191.125,0.125,127,80.0
5721,C#5,191.25,0.125,127,80.0
5722,C#6,191.25,0.125,127,80.0
5723,A2,191.25,0.25,127,80.0
5724,G2,191.25,0.25,127,80.0
5725,C#4,191.25,0.125,127,80.0
5726,B-3,191.25,0.125,127,80.0
5727,C#5,191.375,0.125,127,80.0
5728,C#6,191.375,0.125,127,80.0
5729,C#4,191.375,0.125,127,80.0
5730,B-3,191.375,0.125,127,80.0
5731,F#1,191.5,0.5,127,80.0
5732,D2,191.5,167/1000,127,80.0
5733,C#5,191.5,0.125,127,80.0
5734,C#6,191.5,0.125,127,80.0
5735,B-4,191.5,0.5,127,80.0
5736,F#4,191.5,0.5,127,80.0
5737,C#4,191.5,0.5,127,80.0
5738,B-3,191.5,0.5,127,80.0
5739,B-2,191.5,0.5,127,80.0
5740,C#4,191.5,0.125,127,80.0
5741,B-3,191.5,0.125,127,80.0
5742,C#5,191.625,0.125,127,80.0
5743,C#6,191.625,0.125,127,80.0
5744,C#4,191.625,0.125,127,80.0
5745,B-3,191.625,0.125,127,80.0
5746,D2,191.667,167/1000,127,80.0
5747,C#5,191.75,0.125,127,80.0
5748,C#6,191.75,0.125,127,80.0
5749,C#4,191.75,0.125,127,80.0
5750,B-3,191.75,0.125,127,80.0
5751,D2,191.833,167/1000,127,80.0
5752,C#5,191.875,31/250,127,80.0
5753,C#6,191.875,31/250,127,80.0
5754,C#4,191.875,0.125,127,80.0
5755,B-3,191.875,0.125,127,80.0
5756,G#3,192.0,0.25,127,80.0
5757,G#1,192.0,4.0,127,80.0
5758,G#4,192.0,0.25,127,80.0
5759,G#4,192.0,4.0,127,80.0
5760,E-5,192.0,4.0,127,80.0
5761,G#4,192.0,4.0,127,80.0
5762,E-4,192.0,4.0,127,80.0
5763,C#3,192.0,4.0,127,80.0
5764,B1,192.0,4.0,127,80.0
5765,D5,192.0,4.0,127,80.0
5766,G#4,192.0,4.0,127,80.0
5767,G#3,192.0,4.0,127,80.0
5768,C#4,192.0,0.125,127,80.0
5769,B-3,192.0,0.125,127,80.0
5770,G#5,192.0,4.0,127,80.0
5771,G#4,192.0,4.0,127,80.0
5772,C#4,192.125,0.125,127,80.0
5773,B-3,192.125,0.125,127,80.0
5774,D4,192.25,0.25,127,80.0
5775,D5,192.25,0.25,127,80.0
5776,C#4,192.25,0.125,127,80.0
5777,B-3,192.25,0.125,127,80.0
5778,C#4,192.375,0.125,127,80.0
5779,B-3,192.375,0.125,127,80.0
5780,G4,192.5,0.25,127,80.0
5781,G5,192.5,0.25,127,80.0
5782,C#4,192.5,0.125,127,80.0
5783,B-3,192.5,0.125,127,80.0
5784,C#4,192.625,0.125,127,80.0
5785,B-3,192.625,0.125,127,80.0
5786,G#3,192.75,0.25,127,80.0
5787,G#4,192.75,0.25,127,80.0
5788,C#4,192.75,0.125,127,80.0
5789,B-3,192.75,0.125,127,80.0
5790,C#4,192.875,0.125,127,80.0
5791,B-3,192.875,0.125,127,80.0
5792,C5,193.0,0.25,127,80.0
5793,C6,193.0,0.25,127,80.0
5794,C#4,193.0,0.125,127,80.0
5795,B-3,193.0,0.125,127,80.0
5796,C#4,193.125,0.125,127,80.0
5797,B-3,193.125,0.125,127,80.0
5798,D5,193.25,0.25,127,80.0
5799,D6,193.25,0.25,127,80.0
5800,C#4,193.25,0.125,127,80.0
5801,B-3,193.25,0.125,127,80.0
5802,C#4,193.375,0.125,127,80.0
5803,B-3,193.375,0.125,127,80.0
5804,G5,193.5,0.25,127,80.0
5805,G6,193.5,0.25,127,80.0
5806,C#4,193.5,0.125,127,80.0
5807,B-3,193.5,0.125,127,80.0
5808,C#4,193.625,0.125,127,80.0
5809,B-3,193.625,0.125,127,80.0
5810,G#4,193.75,0.25,127,80.0
5811,G#5,193.75,0.25,127,80.0
5812,C#4,193.75,0.125,127,80.0
5813,B-3,193.75,0.125,127,80.0
5814,C#4,193.875,0.125,127,80.0
5815,B-3,193.875,0.125,127,80.0
5816,C6,194.0,0.25,127,80.0
5817,C7,194.0,0.25,127,80.0
5818,G#3,194.0,1.0,127,80.0
5819,C#4,194.0,0.125,127,80.0
5820,B-3,194.0,0.125,127,80.0
5821,C#4,194.125,0.125,127,80.0
5822,B-3,194.125,0.125,127,80.0
5823,G#4,194.25,0.25,127,80.0
5824,G#5,194.25,0.25,127,80.0
5825,C#4,194.25,0.125,127,80.0
5826,B-3,194.25,0.125,127,80.0
5827,C#4,194.375,0.125,127,80.0
5828,B-3,194.375,0.125,127,80.0
5829,G5,194.5,0.25,127,80.0
5830,G6,194.5,0.25,127,80.0
5831,C#4,194.5,0.125,127,80.0
5832,B-3,194.5,0.125,127,80.0
5833,C#4,194.625,0.125,127,80.0
5834,B-3,194.625,0.125,127,80.0
5835,D5,194.75,0.25,127,80.0
5836,D6,194.75,0.25,127,80.0
5837,C#4,194.75,0.125,127,80.0
5838,B-3,194.75,0.125,127,80.0
5839,C#4,194.875,0.125,127,80.0
5840,B-3,194.875,0.125,127,80.0
5841,C5,195.0,0.25,127,80.0
5842,C6,195.0,0.25,127,80.0
5843,G#4,195.0,0.5,127,80.0
5844,C#4,195.0,0.125,127,80.0
5845,B-3,195.0,0.125,127,80.0
5846,C#4,195.125,0.125,127,80.0
5847,B-3,195.125,0.125,127,80.0
5848,G#3,195.25,0.25,127,80.0
5849,G#4,195.25,0.25,127,80.0
5850,C#4,195.25,0.125,127,80.0
5851,B-3,195.25,0.125,127,80.0
5852,C#4,195.375,0.125,127,80.0
5853,B-3,195.375,0.125,127,80.0
5854,G4,195.5,0.25,127,80.0
5855,G5,195.5,0.25,127,80.0
5856,D5,195.5,0.5,127,80.0
5857,C#4,195.5,0.125,127,80.0
5858,B-3,195.5,0.125,127,80.0
5859,C#4,195.625,0.125,127,80.0
5860,B-3,195.625,0.125,127,80.0
5861,D4,195.75,0.25,127,80.0
5862,D5,195.75,0.25,127,80.0
5863,C#4,195.75,0.125,127,80.0
5864,B-3,195.75,0.125,127,80.0
5865,C#4,195.875,31/250,127,80.0
5866,B-3,195.875,31/250,127,80.0
5867,G#3,196.0,0.25,127,80.0
5868,G#1,196.0,4.0,127,80.0
5869,G#4,196.0,0.25,127,80.0
5870,E-5,196.0,1.0,127,80.0
5871,D4,196.0,0.125,127,80.0
5872,B3,196.0,0.125,127,80.0
5873,D4,196.125,0.125,127,80.0
5874,B3,196.125,0.125,127,80.0
5875,D4,196.25,0.25,127,80.0
5876,D5,196.25,0.25,127,80.0
5877,D4,196.25,0.125,127,80.0
5878,B3,196.25,0.125,127,80.0
5879,D4,196.375,0.125,127,80.0
5880,B3,196.375,0.125,127,80.0
5881,G4,196.5,0.25,127,80.0
5882,G5,196.5,0.25,127,80.0
5883,D4,196.5,0.125,127,80.0
5884,B3,196.5,0.125,127,80.0
5885,D4,196.625,0.125,127,80.0
5886,B3,196.625,0.125,127,80.0
5887,G#3,196.75,0.25,127,80.0
5888,G#4,196.75,0.25,127,80.0
5889,D4,196.75,0.125,127,80.0
5890,B3,196.75,0.125,127,80.0
5891,D4,196.875,0.125,127,80.0
5892,B3,196.875,0.125,127,80.0
5893,C5,197.0,0.25,127,80.0
5894,C6,197.0,0.25,127,80.0
5895,G#5,197.0,1.0,127,80.0
5896,D4,197.0,0.125,127,80.0
5897,B3,197.0,0.125,127,80.0
5898,D4,197.125,0.125,127,80.0
5899,B3,197.125,0.125,127,80.0
5900,D5,197.25,0.25,127,80.0
5901,D6,197.25,0.25,127,80.0
5902,D4,197.25,0.125,127,80.0
5903,B3,197.25,0.125,127,80.0
5904,D4,197.375,0.125,127,80.0
5905,B3,197.375,0.125,127,80.0
5906,G5,197.5,0.25,127,80.0
5907,G6,197.5,0.25,127,80.0
5908,D4,197.5,0.125,127,80.0
5909,B3,197.5,0.125,127,80.0
5910,D4,197.625,0.125,127,80.0
5911,B3,197.625,0.125,127,80.0
5912,G#4,197.75,0.25,127,80.0
5913,G#5,197.75,0.25,127,80.0
5914,D4,197.75,0.125,127,80.0
5915,B3,197.75,0.125,127,80.0
5916,D4,197.875,0.125,127,80.0
5917,B3,197.875,0.125,127,80.0
5918,C6,198.0,0.25,127,80.0
5919,C7,198.0,0.25,127,80.0
5920,D4,198.0,0.125,127,80.0
5921,B3,198.0,0.125,127,80.0
5922,D4,198.125,0.125,127,80.0
5923,B3,198.125,0.125,127,80.0
5924,G#4,198.25,0.25,127,80.0
5925,G#5,198.25,0.25,127,80.0
5926,D4,198.25,0.125,127,80.0
5927,B3,198.25,0.125,127,80.0
5928,D4,198.375,0.125,127,80.0
5929,B3,198.375,0.125,127,80.0
5930,G5,198.5,0.25,127,80.0
5931,G6,198.5,0.25,127,80.0
5932,G#4,198.5,0.5,127,80.0
5933,D4,198.5,0.125,127,80.0
5934,B3,198.5,0.125,127,80.0
5935,D4,198.625,0.125,127,80.0
5936,B3,198.625,0.125,127,80.0
5937,D5,198.75,0.25,127,80.0
5938,D6,198.75,0.25,127,80.0
5939,D4,198.75,0.125,127,80.0
5940,B3,198.75,0.125,127,80.0
5941,D4,198.875,0.125,127,80.0
5942,B3,198.875,0.125,127,80.0
5943,C5,199.0,0.25,127,80.0
5944,C6,199.0,0.25,127,80.0
5945,D5,199.0,0.25,127,80.0
5946,D4,199.0,0.125,127,80.0
5947,B3,199.0,0.125,127,80.0
5948,D4,199.125,0.125,127,80.0
5949,B3,199.125,0.125,127,80.0
5950,G#3,199.25,0.25,127,80.0
5951,G#4,199.25,0.25,127,80.0
5952,E-5,199.25,0.25,127,80.0
5953,D4,199.25,0.125,127,80.0
5954,B3,199.25,0.125,127,80.0
5955,D4,199.375,0.125,127,80.0
5956,B3,199.375,0.125,127,80.0
5957,G4,199.5,0.25,127,80.0
5958,G5,199.5,0.25,127,80.0
5959,G#5,199.5,0.25,127,80.0
5960,D4,199.5,0.125,127,80.0
5961,B3,199.5,0.125,127,80.0
5962,D4,199.625,0.125,127,80.0
5963,B3,199.625,0.125,127,80.0
5964,D4,199.75,0.25,127,80.0
5965,D5,199.75,0.25,127,80.0
5966,B-5,199.75,0.25,127,80.0
5967,D4,199.75,0.125,127,80.0
5968,B3,199.75,0.125,127,80.0
5969,D4,199.875,31/250,127,80.0
5970,B3,199.875,31/250,127,80.0
5971,F3,200.0,0.25,127,80.0
5972,F1,200.0,4.0,127,80.0
5973,F4,200.0,0.25,127,80.0
5974,F4,200.0,4.0,127,80.0
5975,G#5,200.0,0.5,127,80.0
5976,E4,200.0,0.125,127,80.0
5977,C#4,200.0,0.125,127,80.0
5978,E4,200.125,0.125,127,80.0
5979,C#4,200.125,0.125,127,80.0
5980,C4,200.25,0.25,127,80.0
5981,C5,200.25,0.25,127,80.0
5982,E4,200.25,0.125,127,80.0
5983,C#4,200.25,0.125,127,80.0
5984,E4,200.375,0.125,127,80.0
5985,C#4,200.375,0.125,127,80.0
5986,D4,200.5,0.25,127,80.0
5987,D5,200.5,0.25,127,80.0
5988,F5,200.5,0.5,127,80.0
5989,E4,200.5,0.125,127,80.0
5990,C#4,200.5,0.125,127,80.0
5991,E4,200.625,0.125,127,80.0
5992,C#4,200.625,0.125,127,80.0
5993,E-4,200.75,0.25,127,80.0
5994,E-5,200.75,0.25,127,80.0
5995,E4,200.75,0.125,127,80.0
5996,C#4,200.75,0.125,127,80.0
5997,E4,200.875,31/250,127,80.0
5998,C#4,200.875,31/250,127,80.0
5999,F3,201.0,0.25,127,80.0
6000,F4,201.0,0.25,127,80.0
6001,F4,201.0,1.5,127,80.0
6002,F#4,201.0,0.125,127,80.0
6003,D4,201.0,0.125,127,80.0
6004,F#4,201.125,0.125,127,80.0
6005,D4,201.125,0.125,127,80.0
6006,C5,201.25,0.25,127,80.0
6007,C6,201.25,0.25,127,80.0
6008,F#4,201.25,0.125,127,80.0
6009,D4,201.25,0.125,127,80.0
6010,F#4,201.375,0.125,127,80.0
6011,D4,201.375,0.125,127,80.0
6012,D5,201.5,0.25,127,80.0
6013,D6,201.5,0.25,127,80.0
6014,F#4,201.5,0.125,127,80.0
6015,D4,201.5,0.125,127,80.0
6016,F#4,201.625,0.125,127,80.0
6017,D4,201.625,0.125,127,80.0
6018,E-5,201.75,0.25,127,80.0
6019,E-6,201.75,0.25,127,80.0
6020,F#4,201.75,0.125,127,80.0
6021,D4,201.75,0.125,127,80.0
6022,F#4,201.875,31/250,127,80.0
6023,D4,201.875,31/250,127,80.0
6024,F4,202.0,0.25,127,80.0
6025,F5,202.0,0.25,127,80.0
6026,C#4,202.0,0.125,127,80.0
6027,B-3,202.0,0.125,127,80.0
6028,C#4,202.125,0.125,127,80.0
6029,B-3,202.125,0.125,127,80.0
6030,C6,202.25,0.25,127,80.0
6031,C7,202.25,0.25,127,80.0
6032,C#4,202.25,0.125,127,80.0
6033,B-3,202.25,0.125,127,80.0
6034,C#4,202.375,0.125,127,80.0
6035,B-3,202.375,0.125,127,80.0
6036,F4,202.5,0.25,127,80.0
6037,F5,202.5,0.25,127,80.0
6038,F4,202.5,0.125,127,80.0
6039,C#4,202.5,0.125,127,80.0
6040,B-3,202.5,0.125,127,80.0
6041,C5,202.625,0.125,127,80.0
6042,C#4,202.625,0.125,127,80.0
6043,B-3,202.625,0.125,127,80.0
6044,E-5,202.75,0.25,127,80.0
6045,E-6,202.75,0.25,127,80.0
6046,F5,202.75,0.125,127,80.0
6047,C#4,202.75,0.125,127,80.0
6048,B-3,202.75,0.125,127,80.0
6049,C6,202.875,0.125,127,80.0
6050,C#4,202.875,0.125,127,80.0
6051,B-3,202.875,0.125,127,80.0
6052,D5,203.0,0.25,127,80.0
6053,D6,203.0,0.25,127,80.0
6054,C#4,203.0,0.125,127,80.0
6055,B-3,203.0,0.125,127,80.0
6056,C#4,203.125,0.125,127,80.0
6057,B-3,203.125,0.125,127,80.0
6058,C5,203.25,0.25,127,80.0
6059,C6,203.25,0.25,127,80.0
6060,C#4,203.25,0.125,127,80.0
6061,B-3,203.25,0.125,127,80.0
6062,C#4,203.375,0.125,127,80.0
6063,B-3,203.375,0.125,127,80.0
6064,F3,203.5,0.25,127,80.0
6065,F4,203.5,0.25,127,80.0
6066,F4,203.5,0.125,127,80.0
6067,C#4,203.5,0.125,127,80.0
6068,B-3,203.5,0.125,127,80.0
6069,C5,203.625,0.125,127,80.0
6070,C#4,203.625,0.125,127,80.0
6071,B-3,203.625,0.125,127,80.0
6072,E-4,203.75,0.25,127,80.0
6073,E-5,203.75,0.25,127,80.0
6074,F5,203.75,0.125,127,80.0
6075,C#4,203.75,0.125,127,80.0
6076,B-3,203.75,0.125,127,80.0
6077,B-5,203.875,0.125,127,80.0
6078,C#4,203.875,0.125,127,80.0
6079,B-3,203.875,0.125,127,80.0
6080,D4,204.0,0.25,127,80.0
6081,F1,204.0,4.0,127,80.0
6082,D5,204.0,0.25,127,80.0
6083,C#4,204.0,0.125,127,80.0
6084,B-3,204.0,0.125,127,80.0
6085,C#4,204.125,0.125,127,80.0
6086,B-3,204.125,0.125,127,80.0
6087,C4,204.25,0.25,127,80.0
6088,C5,204.25,0.25,127,80.0
6089,C#4,204.25,0.125,127,80.0
6090,B-3,204.25,0.125,127,80.0
6091,C#4,204.375,0.125,127,80.0
6092,B-3,204.375,0.125,127,80.0
6093,F3,204.5,0.25,127,80.0
6094,F4,204.5,0.25,127,80.0
6095,C#4,204.5,0.125,127,80.0
6096,B-3,204.5,0.125,127,80.0
6097,C#4,204.625,0.125,127,80.0
6098,B-3,204.625,0.125,127,80.0
6099,C4,204.75,0.25,127,80.0
6100,C5,204.75,0.25,127,80.0
6101,C#4,204.75,0.125,127,80.0
6102,B-3,204.75,0.125,127,80.0
6103,C#4,204.875,0.125,127,80.0
6104,B-3,204.875,0.125,127,80.0
6105,D4,205.0,0.25,127,80.0
6106,D5,205.0,0.25,127,80.0
6107,B-5,205.0,1.0,127,80.0
6108,C#4,205.0,0.125,127,80.0
6109,B-3,205.0,0.125,127,80.0
6110,C#4,205.125,0.125,127,80.0
6111,B-3,205.125,0.125,127,80.0
6112,E-4,205.25,0.25,127,80.0
6113,E-5,205.25,0.25,127,80.0
6114,C#4,205.25,0.125,127,80.0
6115,B-3,205.25,0.125,127,80.0
6116,C#4,205.375,0.125,127,80.0
6117,B-3,205.375,0.125,127,80.0
6118,F3,205.5,0.25,127,80.0
6119,F4,205.5,0.25,127,80.0
6120,C#4,205.5,0.125,127,80.0
6121,B-3,205.5,0.125,127,80.0
6122,C#4,205.625,0.125,127,80.0
6123,B-3,205.625,0.125,127,80.0
6124,C5,205.75,0.25,127,80.0
6125,C6,205.75,0.25,127,80.0
6126,C#4,205.75,0.125,127,80.0
6127,B-3,205.75,0.125,127,80.0
6128,C#4,205.875,0.125,127,80.0
6129,B-3,205.875,0.125,127,80.0
6130,D5,206.0,0.25,127,80.0
6131,D6,206.0,0.25,127,80.0
6132,G#5,206.0,0.5,127,80.0
6133,C#4,206.0,0.125,127,80.0
6134,B-3,206.0,0.125,127,80.0
6135,C#4,206.125,0.125,127,80.0
6136,B-3,206.125,0.125,127,80.0
6137,E-5,206.25,0.25,127,80.0
6138,E-6,206.25,0.25,127,80.0
6139,C#4,206.25,0.125,127,80.0
6140,B-3,206.25,0.125,127,80.0
6141,C#4,206.375,0.125,127,80.0
6142,B-3,206.375,0.125,127,80.0
6143,F4,206.5,0.25,127,80.0
6144,F5,206.5,0.25,127,80.0
6145,F4,206.5,0.125,127,80.0
6146,C#4,206.5,0.125,127,80.0
6147,B-3,206.5,0.125,127,80.0
6148,G#4,206.625,0.125,127,80.0
6149,C#4,206.625,0.125,127,80.0
6150,B-3,206.625,0.125,127,80.0
6151,C6,206.75,0.25,127,80.0
6152,C7,206.75,0.25,127,80.0
6153,C5,206.75,0.125,127,80.0
6154,C#4,206.75,0.125,127,80.0
6155,B-3,206.75,0.125,127,80.0
6156,F5,206.875,0.125,127,80.0
6157,C#4,206.875,0.125,127,80.0
6158,B-3,206.875,0.125,127,80.0
6159,F4,207.0,0.25,127,80.0
6160,F5,207.0,0.25,127,80.0
6161,G#5,207.0,0.75,127,80.0
6162,C#4,207.0,0.125,127,80.0
6163,B-3,207.0,0.125,127,80.0
6164,C#4,207.125,0.125,127,80.0
6165,B-3,207.125,0.125,127,80.0
6166,E-5,207.25,0.25,127,80.0
6167,E-6,207.25,0.25,127,80.0
6168,C#4,207.25,0.125,127,80.0
6169,B-3,207.25,0.125,127,80.0
6170,C#4,207.375,0.125,127,80.0
6171,B-3,207.375,0.125,127,80.0
6172,D5,207.5,0.25,127,80.0
6173,D6,207.5,0.25,127,80.0
6174,C#4,207.5,0.125,127,80.0
6175,B-3,207.5,0.125,127,80.0
6176,C#4,207.625,0.125,127,80.0
6177,B-3,207.625,0.125,127,80.0
6178,C5,207.75,0.25,127,80.0
6179,C6,207.75,0.25,127,80.0
6180,G#4,207.75,0.125,127,80.0
6181,C#4,207.75,0.125,127,80.0
6182,B-3,207.75,0.125,127,80.0
6183,D5,207.875,0.125,127,80.0
6184,C#4,207.875,31/250,127,80.0
6185,B-3,207.875,31/250,127,80.0
6186,G#3,208.0,0.25,127,80.0
6187,G#1,208.0,4.0,127,80.0
6188,G#4,208.0,0.25,127,80.0
6189,G#4,208.0,4.0,127,80.0
6190,G#5,208.0,0.5,127,80.0
6191,A3,208.0,4.0,127,80.0
6192,B1,208.0,4.0,127,80.0
6193,D4,208.0,0.125,127,80.0
6194,B3,208.0,0.125,127,80.0
6195,D4,208.125,0.125,127,80.0
6196,B3,208.125,0.125,127,80.0
6197,D4,208.25,0.25,127,80.0
6198,D5,208.25,0.25,127,80.0
6199,D4,208.25,0.125,127,80.0
6200,B3,208.25,0.125,127,80.0
6201,D4,208.375,0.125,127,80.0
6202,B3,208.375,0.125,127,80.0
6203,G4,208.5,0.25,127,80.0
6204,G5,208.5,0.25,127,80.0
6205,G#5,208.5,0.25,127,80.0
6206,D4,208.5,0.125,127,80.0
6207,B3,208.5,0.125,127,80.0
6208,D4,208.625,0.125,127,80.0
6209,B3,208.625,0.125,127,80.0
6210,G#3,208.75,0.25,127,80.0
6211,G#4,208.75,0.25,127,80.0
6212,E-5,208.75,0.25,127,80.0
6213,D4,208.75,0.125,127,80.0
6214,B3,208.75,0.125,127,80.0
6215,D4,208.875,0.125,127,80.0
6216,B3,208.875,0.125,127,80.0
6217,C5,209.0,0.25,127,80.0
6218,C6,209.0,0.25,127,80.0
6219,D4,209.0,0.125,127,80.0
6220,B3,209.0,0.125,127,80.0
6221,D4,209.125,0.125,127,80.0
6222,B3,209.125,0.125,127,80.0
6223,D5,209.25,0.25,127,80.0
6224,D6,209.25,0.25,127,80.0
6225,D5,209.25,0.25,127,80.0
6226,D4,209.25,0.125,127,80.0
6227,B3,209.25,0.125,127,80.0
6228,D4,209.375,0.125,127,80.0
6229,B3,209.375,0.125,127,80.0
6230,G5,209.5,0.25,127,80.0
6231,G6,209.5,0.25,127,80.0
6232,E-5,209.5,0.25,127,80.0
6233,D4,209.5,0.125,127,80.0
6234,B3,209.5,0.125,127,80.0
6235,D4,209.625,0.125,127,80.0
6236,B3,209.625,0.125,127,80.0
6237,G#4,209.75,0.25,127,80.0
6238,G#5,209.75,0.25,127,80.0
6239,D4,209.75,0.125,127,80.0
6240,B3,209.75,0.125,127,80.0
6241,D4,209.875,0.125,127,80.0
6242,B3,209.875,0.125,127,80.0
6243,C6,210.0,0.25,127,80.0
6244,C7,210.0,0.25,127,80.0
6245,C5,210.0,1.0,127,80.0
6246,D4,210.0,0.125,127,80.0
6247,B3,210.0,0.125,127,80.0
6248,D4,210.125,0.125,127,80.0
6249,B3,210.125,0.125,127,80.0
6250,G#4,210.25,0.25,127,80.0
6251,G#5,210.25,0.25,127,80.0
6252,D4,210.25,0.125,127,80.0
6253,B3,210.25,0.125,127,80.0
6254,D4,210.375,0.125,127,80.0
6255,B3,210.375,0.125,127,80.0
6256,G5,210.5,0.25,127,80.0
6257,G6,210.5,0.25,127,80.0
6258,D4,210.5,0.125,127,80.0
6259,B3,210.5,0.125,127,80.0
6260,D4,210.625,0.125,127,80.0
6261,B3,210.625,0.125,127,80.0
6262,D5,210.75,0.25,127,80.0
6263,D6,210.75,0.25,127,80.0
6264,D4,210.75,0.125,127,80.0
6265,B3,210.75,0.125,127,80.0
6266,D4,210.875,0.125,127,80.0
6267,B3,210.875,0.125,127,80.0
6268,C5,211.0,0.25,127,80.0
6269,C6,211.0,0.25,127,80.0
6270,C5,211.0,0.5,127,80.0
6271,D4,211.0,0.125,127,80.0
6272,B3,211.0,0.125,127,80.0
6273,D4,211.125,0.125,127,80.0
6274,B3,211.125,0.125,127,80.0
6275,G#3,211.25,0.25,127,80.0
6276,G#4,211.25,0.25,127,80.0
6277,D4,211.25,0.125,127,80.0
6278,B3,211.25,0.125,127,80.0
6279,D4,211.375,0.125,127,80.0
6280,B3,211.375,0.125,127,80.0
6281,G4,211.5,0.25,127,80.0
6282,G5,211.5,0.25,127,80.0
6283,E-5,211.5,0.5,127,80.0
6284,D4,211.5,0.125,127,80.0
6285,B3,211.5,0.125,127,80.0
6286,D4,211.625,0.125,127,80.0
6287,B3,211.625,0.125,127,80.0
6288,D4,211.75,0.25,127,80.0
6289,D5,211.75,0.25,127,80.0
6290,D4,211.75,0.125,127,80.0
6291,B3,211.75,0.125,127,80.0
6292,D4,211.875,31/250,127,80.0
6293,B3,211.875,31/250,127,80.0
6294,G#3,212.0,0.25,127,80.0
6295,G#1,212.0,4.0,127,80.0
6296,G#4,212.0,0.25,127,80.0
6297,D5,212.0,0.5,127,80.0
6298,E4,212.0,0.125,127,80.0
6299,C#4,212.0,0.125,127,80.0
6300,E4,212.125,0.125,127,80.0
6301,C#4,212.125,0.125,127,80.0
6302,D4,212.25,0.25,127,80.0
6303,D5,212.25,0.25,127,80.0
6304,E4,212.25,0.125,127,80.0
6305,C#4,212.25,0.125,127,80.0
6306,E4,212.375,0.125,127,80.0
6307,C#4,212.375,0.125,127,80.0
6308,G4,212.5,0.25,127,80.0
6309,G5,212.5,0.25,127,80.0
6310,G#4,212.5,0.25,127,80.0
6311,E4,212.5,0.125,127,80.0
6312,C#4,212.5,0.125,127,80.0
6313,E4,212.625,0.125,127,80.0
6314,C#4,212.625,0.125,127,80.0
6315,G#3,212.75,0.25,127,80.0
6316,G#4,212.75,0.25,127,80.0
6317,G#3,212.75,0.75,127,80.0
6318,E4,212.75,0.125,127,80.0
6319,C#4,212.75,0.125,127,80.0
6320,E4,212.875,31/250,127,80.0
6321,C#4,212.875,31/250,127,80.0
6322,C5,213.0,0.25,127,80.0
6323,C6,213.0,0.25,127,80.0
6324,F#4,213.0,0.125,127,80.0
6325,D4,213.0,0.125,127,80.0
6326,F#4,213.125,0.125,127,80.0
6327,D4,213.125,0.125,127,80.0
6328,D5,213.25,0.25,127,80.0
6329,D6,213.25,0.25,127,80.0
6330,F#4,213.25,0.125,127,80.0
6331,D4,213.25,0.125,127,80.0
6332,F#4,213.375,0.125,127,80.0
6333,D4,213.375,0.125,127,80.0
6334,G5,213.5,0.25,127,80.0
6335,G6,213.5,0.25,127,80.0
6336,G#4,213.5,0.25,127,80.0
6337,F#4,213.5,0.125,127,80.0
6338,D4,213.5,0.125,127,80.0
6339,F#4,213.625,0.125,127,80.0
6340,D4,213.625,0.125,127,80.0
6341,G#4,213.75,0.25,127,80.0
6342,G#5,213.75,0.25,127,80.0
6343,D5,213.75,0.25,127,80.0
6344,F#4,213.75,0.125,127,80.0
6345,D4,213.75,0.125,127,80.0
6346,F#4,213.875,31/250,127,80.0
6347,D4,213.875,31/250,127,80.0
6348,C6,214.0,0.25,127,80.0
6349,C7,214.0,0.25,127,80.0
6350,E-5,214.0,0.25,127,80.0
6351,C#4,214.0,0.125,127,80.0
6352,B-3,214.0,0.125,127,80.0
6353,C#4,214.125,0.125,127,80.0
6354,B-3,214.125,0.125,127,80.0
6355,G#4,214.25,0.25,127,80.0
6356,G#5,214.25,0.25,127,80.0
6357,D5,214.25,0.25,127,80.0
6358,C#4,214.25,0.125,127,80.0
6359,B-3,214.25,0.125,127,80.0
6360,C#4,214.375,0.125,127,80.0
6361,B-3,214.375,0.125,127,80.0
6362,G5,214.5,0.25,127,80.0
6363,G6,214.5,0.25,127,80.0
6364,G#4,214.5,0.25,127,80.0
6365,C#4,214.5,0.125,127,80.0
6366,B-3,214.5,0.125,127,80.0
6367,C#4,214.625,0.125,127,80.0
6368,B-3,214.625,0.125,127,80.0
6369,D5,214.75,0.25,127,80.0
6370,D6,214.75,0.25,127,80.0
6371,D4,214.75,0.25,127,80.0
6372,C#4,214.75,0.125,127,80.0
6373,B-3,214.75,0.125,127,80.0
6374,C#4,214.875,0.125,127,80.0
6375,B-3,214.875,0.125,127,80.0
6376,C5,215.0,0.25,127,80.0
6377,C6,215.0,0.25,127,80.0
6378,E-4,215.0,0.25,127,80.0
6379,C#4,215.0,0.125,127,80.0
6380,B-3,215.0,0.125,127,80.0
6381,C#4,215.125,0.125,127,80.0
6382,B-3,215.125,0.125,127,80.0
6383,G#3,215.25,0.25,127,80.0
6384,G#4,215.25,0.25,127,80.0
6385,B-4,215.25,0.25,127,80.0
6386,C#4,215.25,0.125,127,80.0
6387,B-3,215.25,0.125,127,80.0
6388,C#4,215.375,0.125,127,80.0
6389,B-3,215.375,0.125,127,80.0
6390,G4,215.5,0.25,127,80.0
6391,G5,215.5,0.25,127,80.0
6392,G#4,215.5,0.25,127,80.0
6393,C#4,215.5,0.125,127,80.0
6394,B-3,215.5,0.125,127,80.0
6395,C#4,215.625,0.125,127,80.0
6396,B-3,215.625,0.125,127,80.0
6397,D4,215.75,0.25,127,80.0
6398,D5,215.75,0.25,127,80.0
6399,D5,215.75,0.25,127,80.0
6400,C#4,215.75,0.125,127,80.0
6401,B-3,215.75,0.125,127,80.0
6402,C#4,215.875,0.125,127,80.0
6403,B-3,215.875,0.125,127,80.0
6404,F3,216.0,0.25,127,80.0
6405,F1,216.0,3.25,127,80.0
6406,F4,216.0,0.25,127,80.0
6407,F4,216.0,4.0,127,80.0
6408,F4,216.0,0.25,127,80.0
6409,C#4,216.0,0.125,127,80.0
6410,B-3,216.0,0.125,127,80.0
6411,C#4,216.125,0.125,127,80.0
6412,B-3,216.125,0.125,127,80.0
6413,C4,216.25,0.25,127,80.0
6414,C5,216.25,0.25,127,80.0
6415,F3,216.25,0.5,127,80.0
6416,C#4,216.25,0.125,127,80.0
6417,B-3,216.25,0.125,127,80.0
6418,C#4,216.375,0.125,127,80.0
6419,B-3,216.375,0.125,127,80.0
6420,D4,216.5,0.25,127,80.0
6421,D5,216.5,0.25,127,80.0
6422,C#4,216.5,0.125,127,80.0
6423,B-3,216.5,0.125,127,80.0
6424,C#4,216.625,0.125,127,80.0
6425,B-3,216.625,0.125,127,80.0
6426,E-4,216.75,0.25,127,80.0
6427,E-5,216.75,0.25,127,80.0
6428,F4,216.75,0.25,127,80.0
6429,C#4,216.75,0.125,127,80.0
6430,B-3,216.75,0.125,127,80.0
6431,C#4,216.875,0.125,127,80.0
6432,B-3,216.875,0.125,127,80.0
6433,F3,217.0,0.25,127,80.0
6434,F4,217.0,0.25,127,80.0
6435,C5,217.0,0.25,127,80.0
6436,C#4,217.0,0.125,127,80.0
6437,B-3,217.0,0.125,127,80.0
6438,C#4,217.125,0.125,127,80.0
6439,B-3,217.125,0.125,127,80.0
6440,C5,217.25,0.25,127,80.0
6441,C6,217.25,0.25,127,80.0
6442,F5,217.25,0.25,127,80.0
6443,C#4,217.25,0.125,127,80.0
6444,B-3,217.25,0.125,127,80.0
6445,C#4,217.375,0.125,127,80.0
6446,B-3,217.375,0.125,127,80.0
6447,D5,217.5,0.25,127,80.0
6448,D6,217.5,0.25,127,80.0
6449,C4,217.5,0.25,127,80.0
6450,C#4,217.5,0.125,127,80.0
6451,B-3,217.5,0.125,127,80.0
6452,C#4,217.625,0.125,127,80.0
6453,B-3,217.625,0.125,127,80.0
6454,E-5,217.75,0.25,127,80.0
6455,E-6,217.75,0.25,127,80.0
6456,G#4,217.75,0.25,127,80.0
6457,C#4,217.75,0.125,127,80.0
6458,B-3,217.75,0.125,127,80.0
6459,C#4,217.875,0.125,127,80.0
6460,B-3,217.875,0.125,127,80.0
6461,F4,218.0,0.25,127,80.0
6462,F5,218.0,0.25,127,80.0
6463,E-5,218.0,0.25,127,80.0
6464,C#4,218.0,0.125,127,80.0
6465,B-3,218.0,0.125,127,80.0
6466,C#4,218.125,0.125,127,80.0
6467,B-3,218.125,0.125,127,80.0
6468,C6,218.25,0.25,127,80.0
6469,C7,218.25,0.25,127,80.0
6470,G#5,218.25,1.25,127,80.0
6471,C#4,218.25,0.125,127,80.0
6472,B-3,218.25,0.125,127,80.0
6473,C#4,218.375,0.125,127,80.0
6474,B-3,218.375,0.125,127,80.0
6475,F4,218.5,0.25,127,80.0
6476,F5,218.5,0.25,127,80.0
6477,C#4,218.5,0.125,127,80.0
6478,B-3,218.5,0.125,127,80.0
6479,C#4,218.625,0.125,127,80.0
6480,B-3,218.625,0.125,127,80.0
6481,E-5,218.75,0.25,127,80.0
6482,E-6,218.75,0.25,127,80.0
6483,C#4,218.75,0.125,127,80.0
6484,B-3,218.75,0.125,127,80.0
6485,C#4,218.875,0.125,127,80.0
6486,B-3,218.875,0.125,127,80.0
6487,D5,219.0,0.25,127,80.0
6488,D6,219.0,0.25,127,80.0
6489,C#4,219.0,0.125,127,80.0
6490,B-3,219.0,0.125,127,80.0
6491,C#4,219.125,0.125,127,80.0
6492,B-3,219.125,0.125,127,80.0
6493,C5,219.25,0.25,127,80.0
6494,F2,219.25,0.25,127,80.0
6495,C6,219.25,0.25,127,80.0
6496,C#4,219.25,0.125,127,80.0
6497,B-3,219.25,0.125,127,80.0
6498,C#4,219.375,0.125,127,80.0
6499,B-3,219.375,0.125,127,80.0
6500,F3,219.5,0.25,127,80.0
6501,G#2,219.5,0.25,127,80.0
6502,F4,219.5,0.25,127,80.0
6503,F3,219.5,0.5,127,80.0
6504,C#4,219.5,0.125,127,80.0
6505,B-3,219.5,0.125,127,80.0
6506,C#4,219.625,0.125,127,80.0
6507,B-3,219.625,0.125,127,80.0
6508,E-4,219.75,0.25,127,80.0
6509,E-5,219.75,0.25,127,80.0
6510,C4,219.75,0.25,127,80.0
6511,C#4,219.75,0.125,127,80.0
6512,B-3,219.75,0.125,127,80.0
6513,C#4,219.875,31/250,127,80.0
6514,B-3,219.875,31/250,127,80.0
6515,D4,220.0,0.25,127,80.0
6516,G#2,220.0,1.5,127,80.0
6517,D5,220.0,0.25,127,80.0
6518,F3,220.0,0.75,127,80.0
6519,C4,220.0,0.75,127,80.0
6520,C4,220.0,0.125,127,80.0
6521,G#3,220.0,0.125,127,80.0
6522,C4,220.125,0.125,127,80.0
6523,G#3,220.125,0.125,127,80.0
6524,C4,220.25,0.25,127,80.0
6525,C5,220.25,0.25,127,80.0
6526,C4,220.25,0.125,127,80.0
6527,G#3,220.25,0.125,127,80.0
6528,C4,220.375,0.125,127,80.0
6529,G#3,220.375,0.125,127,80.0
6530,F3,220.5,0.25,127,80.0
6531,F4,220.5,0.25,127,80.0
6532,C4,220.5,0.125,127,80.0
6533,G#3,220.5,0.125,127,80.0
6534,C4,220.625,0.125,127,80.0
6535,G#3,220.625,0.125,127,80.0
6536,C4,220.75,0.25,127,80.0
6537,C5,220.75,0.25,127,80.0
6538,F3,220.75,0.25,127,80.0
6539,C4,220.75,0.125,127,80.0
6540,G#3,220.75,0.125,127,80.0
6541,C4,220.875,0.125,127,80.0
6542,G#3,220.875,0.125,127,80.0
6543,D4,221.0,0.25,127,80.0
6544,D5,221.0,0.25,127,80.0
6545,C4,221.0,0.25,127,80.0
6546,C4,221.0,0.125,127,80.0
6547,G#3,221.0,0.125,127,80.0
6548,C4,221.125,0.125,127,80.0
6549,G#3,221.125,0.125,127,80.0
6550,E-4,221.25,0.25,127,80.0
6551,E-5,221.25,0.25,127,80.0
6552,B-4,221.25,0.25,127,80.0
6553,C4,221.25,0.125,127,80.0
6554,G#3,221.25,0.125,127,80.0
6555,C4,221.375,0.125,127,80.0
6556,G#3,221.375,0.125,127,80.0
6557,F3,221.5,0.25,127,80.0
6558,F4,221.5,0.25,127,80.0
6559,E-5,221.5,0.25,127,80.0
6560,C4,221.5,0.125,127,80.0
6561,G#3,221.5,0.125,127,80.0
6562,C4,221.625,0.125,127,80.0
6563,G#3,221.625,0.125,127,80.0
6564,C5,221.75,0.25,127,80.0
6565,B-2,221.75,1.75,127,80.0
6566,C6,221.75,0.25,127,80.0
6567,G#5,221.75,0.25,127,80.0
6568,C4,221.75,0.125,127,80.0
6569,G#3,221.75,0.125,127,80.0
6570,C4,221.875,0.125,127,80.0
6571,G#3,221.875,0.125,127,80.0
6572,D5,222.0,0.25,127,80.0
6573,D6,222.0,0.25,127,80.0
6574,B-5,222.0,0.5,127,80.0
6575,C#3,222.0,0.125,127,80.0
6576,A3,222.0,0.125,127,80.0
6577,C4,222.0,0.125,127,80.0
6578,G#3,222.0,0.125,127,80.0
6579,C#3,222.125,0.125,127,80.0
6580,A3,222.125,0.125,127,80.0
6581,C4,222.125,0.125,127,80.0
6582,G#3,222.125,0.125,127,80.0
6583,E-5,222.25,0.25,127,80.0
6584,E-6,222.25,0.25,127,80.0
6585,C#3,222.25,0.125,127,80.0
6586,A3,222.25,0.125,127,80.0
6587,C4,222.25,0.125,127,80.0
6588,G#3,222.25,0.125,127,80.0
6589,C#3,222.375,0.125,127,80.0
6590,A3,222.375,0.125,127,80.0
6591,C4,222.375,0.125,127,80.0
6592,G#3,222.375,0.125,127,80.0
6593,F4,222.5,0.25,127,80.0
6594,F5,222.5,0.25,127,80.0
6595,G#5,222.5,0.5,127,80.0
6596,C#3,222.5,0.125,127,80.0
6597,A3,222.5,0.125,127,80.0
6598,C4,222.5,0.125,127,80.0
6599,G#3,222.5,0.125,127,80.0
6600,C#3,222.625,0.125,127,80.0
6601,A3,222.625,0.125,127,80.0
6602,C4,222.625,0.125,127,80.0
6603,G#3,222.625,0.125,127,80.0
6604,C6,222.75,0.25,127,80.0
6605,C7,222.75,0.25,127,80.0
6606,C#3,222.75,0.125,127,80.0
6607,A3,222.75,0.125,127,80.0
6608,C4,222.75,0.125,127,80.0
6609,G#3,222.75,0.125,127,80.0
6610,C#3,222.875,0.125,127,80.0
6611,A3,222.875,0.125,127,80.0
6612,C4,222.875,0.125,127,80.0
6613,G#3,222.875,0.125,127,80.0
6614,F4,223.0,0.25,127,80.0
6615,F5,223.0,0.25,127,80.0
6616,E-5,223.0,0.25,127,80.0
6617,C#3,223.0,0.125,127,80.0
6618,A3,223.0,0.125,127,80.0
6619,C4,223.0,0.125,127,80.0
6620,G#3,223.0,0.125,127,80.0
6621,C#3,223.125,0.125,127,80.0
6622,A3,223.125,0.125,127,80.0
6623,C4,223.125,0.125,127,80.0
6624,G#3,223.125,0.125,127,80.0
6625,E-5,223.25,0.25,127,80.0
6626,E-6,223.25,0.25,127,80.0
6627,G#5,223.25,0.25,127,80.0
6628,C#3,223.25,0.125,127,80.0
6629,A3,223.25,0.125,127,80.0
6630,C4,223.25,0.125,127,80.0
6631,G#3,223.25,0.125,127,80.0
6632,C#3,223.375,0.125,127,80.0
6633,A3,223.375,0.125,127,80.0
6634,C4,223.375,0.125,127,80.0
6635,G#3,223.375,0.125,127,80.0
6636,D5,223.5,0.25,127,80.0
6637,F2,223.5,0.5,127,80.0
6638,D6,223.5,0.25,127,80.0
6639,B-4,223.5,0.5,127,80.0
6640,C#3,223.5,0.125,127,80.0
6641,A3,223.5,0.125,127,80.0
6642,C4,223.5,0.125,127,80.0
6643,G#3,223.5,0.125,127,80.0
6644,C#3,223.625,0.125,127,80.0
6645,A3,223.625,0.125,127,80.0
6646,C4,223.625,0.125,127,80.0
6647,G#3,223.625,0.125,127,80.0
6648,C5,223.75,0.25,127,80.0
6649,C6,223.75,0.25,127,80.0
6650,C#3,223.75,0.125,127,80.0
6651,A3,223.75,0.125,127,80.0
6652,C4,223.75,0.125,127,80.0
6653,G#3,223.75,0.125,127,80.0
6654,C#3,223.875,31/250,127,80.0
6655,A3,223.875,31/250,127,80.0
6656,C4,223.875,0.125,127,80.0
6657,G#3,223.875,0.125,127,80.0
6658,G#3,224.0,0.25,127,80.0
6659,G#3,224.0,0.25,127,80.0
6660,G#2,224.0,4.0,127,80.0
6661,G#4,224.0,0.25,127,80.0
6662,G#3,224.0,0.25,127,80.0
6663,G#4,224.0,0.25,127,80.0
6664,G#4,224.0,4.0,127,80.0
6665,G#3,224.0,1.0,127,80.0
6666,C#3,224.0,4.0,127,80.0
6667,A3,224.0,4.0,127,80.0
6668,C4,224.0,0.125,127,80.0
6669,G#3,224.0,0.125,127,80.0
6670,C4,224.125,0.125,127,80.0
6671,G#3,224.125,0.125,127,80.0
6672,D4,224.25,0.25,127,80.0
6673,D4,224.25,0.25,127,80.0
6674,D5,224.25,0.25,127,80.0
6675,D4,224.25,0.25,127,80.0
6676,D5,224.25,0.25,127,80.0
6677,C4,224.25,0.125,127,80.0
6678,G#3,224.25,0.125,127,80.0
6679,C4,224.375,0.125,127,80.0
6680,G#3,224.375,0.125,127,80.0
6681,G4,224.5,0.25,127,80.0
6682,G4,224.5,0.25,127,80.0
6683,G5,224.5,0.25,127,80.0
6684,G4,224.5,0.25,127,80.0
6685,G5,224.5,0.25,127,80.0
6686,C4,224.5,0.125,127,80.0
6687,G#3,224.5,0.125,127,80.0
6688,C4,224.625,0.125,127,80.0
6689,G#3,224.625,0.125,127,80.0
6690,G#3,224.75,0.25,127,80.0
6691,G#3,224.75,0.25,127,80.0
6692,G#4,224.75,0.25,127,80.0
6693,G#3,224.75,0.25,127,80.0
6694,G#4,224.75,0.25,127,80.0
6695,C4,224.75,0.125,127,80.0
6696,G#3,224.75,0.125,127,80.0
6697,C4,224.875,0.125,127,80.0
6698,G#3,224.875,0.125,127,80.0
6699,C5,225.0,0.25,127,80.0
6700,C5,225.0,0.25,127,80.0
6701,C6,225.0,0.25,127,80.0
6702,C5,225.0,0.25,127,80.0
6703,C6,225.0,0.25,127,80.0
6704,G#4,225.0,0.5,127,80.0
6705,C4,225.0,0.125,127,80.0
6706,G#3,225.0,0.125,127,80.0
6707,C4,225.125,0.125,127,80.0
6708,G#3,225.125,0.125,127,80.0
6709,D5,225.25,0.25,127,80.0
6710,D5,225.25,0.25,127,80.0
6711,D6,225.25,0.25,127,80.0
6712,D5,225.25,0.25,127,80.0
6713,D6,225.25,0.25,127,80.0
6714,C4,225.25,0.125,127,80.0
6715,G#3,225.25,0.125,127,80.0
6716,C4,225.375,0.125,127,80.0
6717,G#3,225.375,0.125,127,80.0
6718,G5,225.5,0.25,127,80.0
6719,G5,225.5,0.25,127,80.0
6720,G6,225.5,0.25,127,80.0
6721,G5,225.5,0.25,127,80.0
6722,G6,225.5,0.25,127,80.0
6723,E-5,225.5,1.0,127,80.0
6724,C4,225.5,0.125,127,80.0
6725,G#3,225.5,0.125,127,80.0
6726,C4,225.625,0.125,127,80.0
6727,G#3,225.625,0.125,127,80.0
6728,G#4,225.75,0.25,127,80.0
6729,G#4,225.75,0.25,127,80.0
6730,G#5,225.75,0.25,127,80.0
6731,G#4,225.75,0.25,127,80.0
6732,G#5,225.75,0.25,127,80.0
6733,C4,225.75,0.125,127,80.0
6734,G#3,225.75,0.125,127,80.0
6735,C4,225.875,31/250,127,80.0
6736,G#3,225.875,31/250,127,80.0
6737,C6,226.0,0.25,127,80.0
6738,C6,226.0,0.25,127,80.0
6739,C7,226.0,0.25,127,80.0
6740,C6,226.0,0.25,127,80.0
6741,C7,226.0,0.25,127,80.0
6742,E-4,226.0,0.125,127,80.0
6743,B-3,226.0,0.125,127,80.0
6744,E-4,226.125,0.125,127,80.0
6745,B-3,226.125,0.125,127,80.0
6746,G#4,226.25,0.25,127,80.0
6747,G#4,226.25,0.25,127,80.0
6748,G#5,226.25,0.25,127,80.0
6749,G#4,226.25,0.25,127,80.0
6750,G#5,226.25,0.25,127,80.0
6751,E-4,226.25,0.125,127,80.0
6752,B-3,226.25,0.125,127,80.0
6753,E-4,226.375,0.125,127,80.0
6754,B-3,226.375,0.125,127,80.0
6755,G5,226.5,0.25,127,80.0
6756,G5,226.5,0.25,127,80.0
6757,G6,226.5,0.25,127,80.0
6758,G5,226.5,0.25,127,80.0
6759,G6,226.5,0.25,127,80.0
6760,G#5,226.5,0.5,127,80.0
6761,E-4,226.5,0.125,127,80.0
6762,B-3,226.5,0.125,127,80.0
6763,E-4,226.625,0.125,127,80.0
6764,B-3,226.625,0.125,127,80.0
6765,D5,226.75,0.25,127,80.0
6766,D5,226.75,0.25,127,80.0
6767,D6,226.75,0.25,127,80.0
6768,D5,226.75,0.25,127,80.0
6769,D6,226.75,0.25,127,80.0
6770,E-4,226.75,0.125,127,80.0
6771,B-3,226.75,0.125,127,80.0
6772,E-4,226.875,31/250,127,80.0
6773,B-3,226.875,31/250,127,80.0
6774,C5,227.0,0.25,127,80.0
6775,C5,227.0,0.25,127,80.0
6776,C6,227.0,0.25,127,80.0
6777,C5,227.0,0.25,127,80.0
6778,C6,227.0,0.25,127,80.0
6779,E-6,227.0,1.0,127,80.0
6780,C4,227.0,0.125,127,80.0
6781,G#3,227.0,0.125,127,80.0
6782,C4,227.125,0.125,127,80.0
6783,G#3,227.125,0.125,127,80.0
6784,G#3,227.25,0.25,127,80.0
6785,G#3,227.25,0.25,127,80.0
6786,G#4,227.25,0.25,127,80.0
6787,G#3,227.25,0.25,127,80.0
6788,G#4,227.25,0.25,127,80.0
6789,C4,227.25,0.125,127,80.0
6790,G#3,227.25,0.125,127,80.0
6791,C4,227.375,0.125,127,80.0
6792,G#3,227.375,0.125,127,80.0
6793,G4,227.5,0.25,127,80.0
6794,G4,227.5,0.25,127,80.0
6795,G5,227.5,0.25,127,80.0
6796,G4,227.5,0.25,127,80.0
6797,G5,227.5,0.25,127,80.0
6798,C4,227.5,0.125,127,80.0
6799,G#3,227.5,0.125,127,80.0
6800,C4,227.625,0.125,127,80.0
6801,G#3,227.625,0.125,127,80.0
6802,D4,227.75,0.25,127,80.0
6803,D4,227.75,0.25,127,80.0
6804,D5,227.75,0.25,127,80.0
6805,D4,227.75,0.25,127,80.0
6806,D5,227.75,0.25,127,80.0
6807,C4,227.75,0.125,127,80.0
6808,G#3,227.75,0.125,127,80.0
6809,C4,227.875,31/250,127,80.0
6810,G#3,227.875,31/250,127,80.0
6811,G#3,228.0,0.25,127,80.0
6812,G#3,228.0,0.25,127,80.0
6813,G#2,228.0,2.0,127,80.0
6814,G#4,228.0,0.25,127,80.0
6815,G#3,228.0,0.25,127,80.0
6816,G#4,228.0,0.25,127,80.0
6817,G#3,228.0,0.125,127,80.0
6818,F3,228.0,0.125,127,80.0
6819,G#3,228.125,0.125,127,80.0
6820,F3,228.125,0.125,127,80.0
6821,D4,228.25,0.25,127,80.0
6822,D4,228.25,0.25,127,80.0
6823,D5,228.25,0.25,127,80.0
6824,D4,228.25,0.25,127,80.0
6825,D5,228.25,0.25,127,80.0
6826,G#3,228.25,0.125,127,80.0
6827,F3,228.25,0.125,127,80.0
6828,G#3,228.375,0.125,127,80.0
6829,F3,228.375,0.125,127,80.0
6830,G4,228.5,0.25,127,80.0
6831,G4,228.5,0.25,127,80.0
6832,G5,228.5,0.25,127,80.0
6833,G4,228.5,0.25,127,80.0
6834,G5,228.5,0.25,127,80.0
6835,G#3,228.5,0.5,127,80.0
6836,G#3,228.5,0.125,127,80.0
6837,F3,228.5,0.125,127,80.0
6838,G#3,228.625,0.125,127,80.0
6839,F3,228.625,0.125,127,80.0
6840,G#3,228.75,0.25,127,80.0
6841,G#3,228.75,0.25,127,80.0
6842,G#4,228.75,0.25,127,80.0
6843,G#3,228.75,0.25,127,80.0
6844,G#4,228.75,0.25,127,80.0
6845,G#3,228.75,0.125,127,80.0
6846,F3,228.75,0.125,127,80.0
6847,G#3,228.875,0.125,127,80.0
6848,F3,228.875,0.125,127,80.0
6849,C5,229.0,0.25,127,80.0
6850,C5,229.0,0.25,127,80.0
6851,C6,229.0,0.25,127,80.0
6852,C5,229.0,0.25,127,80.0
6853,C6,229.0,0.25,127,80.0
6854,G#4,229.0,0.5,127,80.0
6855,G#3,229.0,0.125,127,80.0
6856,F3,229.0,0.125,127,80.0
6857,G#3,229.125,0.125,127,80.0
6858,F3,229.125,0.125,127,80.0
6859,D5,229.25,0.25,127,80.0
6860,D5,229.25,0.25,127,80.0
6861,D6,229.25,0.25,127,80.0
6862,D5,229.25,0.25,127,80.0
6863,D6,229.25,0.25,127,80.0
6864,G#3,229.25,0.125,127,80.0
6865,F3,229.25,0.125,127,80.0
6866,G#3,229.375,0.125,127,80.0
6867,F3,229.375,0.125,127,80.0
6868,G5,229.5,0.25,127,80.0
6869,G5,229.5,0.25,127,80.0
6870,G6,229.5,0.25,127,80.0
6871,G5,229.5,0.25,127,80.0
6872,G6,229.5,0.25,127,80.0
6873,E-5,229.5,1.0,127,80.0
6874,G#3,229.5,0.125,127,80.0
6875,F3,229.5,0.125,127,80.0
6876,G#3,229.625,0.125,127,80.0
6877,F3,229.625,0.125,127,80.0
6878,G#4,229.75,0.25,127,80.0
6879,G#4,229.75,0.25,127,80.0
6880,G#5,229.75,0.25,127,80.0
6881,G#4,229.75,0.25,127,80.0
6882,G#5,229.75,0.25,127,80.0
6883,G#3,229.75,0.125,127,80.0
6884,F3,229.75,0.125,127,80.0
6885,G#3,229.875,0.125,127,80.0
6886,F3,229.875,0.125,127,80.0
6887,C6,230.0,0.25,127,80.0
6888,C6,230.0,0.25,127,80.0
6889,G#2,230.0,2.0,127,80.0
6890,C7,230.0,0.25,127,80.0
6891,C6,230.0,0.25,127,80.0
6892,C7,230.0,0.25,127,80.0
6893,G#3,230.0,0.125,127,80.0
6894,F3,230.0,0.125,127,80.0
6895,G#3,230.125,0.125,127,80.0
6896,F3,230.125,0.125,127,80.0
6897,G#4,230.25,0.25,127,80.0
6898,G#4,230.25,0.25,127,80.0
6899,G#5,230.25,0.25,127,80.0
6900,G#4,230.25,0.25,127,80.0
6901,G#5,230.25,0.25,127,80.0
6902,G#3,230.25,0.125,127,80.0
6903,F3,230.25,0.125,127,80.0
6904,G#3,230.375,0.125,127,80.0
6905,F3,230.375,0.125,127,80.0
6906,G5,230.5,0.25,127,80.0
6907,G5,230.5,0.25,127,80.0
6908,G6,230.5,0.25,127,80.0
6909,G5,230.5,0.25,127,80.0
6910,G6,230.5,0.25,127,80.0
6911,G#5,230.5,0.5,127,80.0
6912,G#3,230.5,0.125,127,80.0
6913,F3,230.5,0.125,127,80.0
6914,G#3,230.625,0.125,127,80.0
6915,F3,230.625,0.125,127,80.0
6916,D5,230.75,0.25,127,80.0
6917,D5,230.75,0.25,127,80.0
6918,D6,230.75,0.25,127,80.0
6919,D5,230.75,0.25,127,80.0
6920,D6,230.75,0.25,127,80.0
6921,G#3,230.75,0.125,127,80.0
6922,F3,230.75,0.125,127,80.0
6923,G#3,230.875,0.125,127,80.0
6924,F3,230.875,0.125,127,80.0
6925,C5,231.0,0.25,127,80.0
6926,C5,231.0,0.25,127,80.0
6927,C6,231.0,0.25,127,80.0
6928,C5,231.0,0.25,127,80.0
6929,C6,231.0,0.25,127,80.0
6930,E-6,231.0,0.5,127,80.0
6931,G#3,231.0,0.125,127,80.0
6932,F3,231.0,0.125,127,80.0
6933,G#3,231.125,0.125,127,80.0
6934,F3,231.125,0.125,127,80.0
6935,G#3,231.25,0.25,127,80.0
6936,G#3,231.25,0.25,127,80.0
6937,G#4,231.25,0.25,127,80.0
6938,G#3,231.25,0.25,127,80.0
6939,G#4,231.25,0.25,127,80.0
6940,G#3,231.25,0.125,127,80.0
6941,F3,231.25,0.125,127,80.0
6942,G#3,231.375,0.125,127,80.0
6943,F3,231.375,0.125,127,80.0
6944,G4,231.5,0.25,127,80.0
6945,G4,231.5,0.25,127,80.0
6946,G5,231.5,0.25,127,80.0
6947,G4,231.5,0.25,127,80.0
6948,G5,231.5,0.25,127,80.0
6949,E-5,231.5,0.5,127,80.0
6950,G#3,231.5,0.125,127,80.0
6951,F3,231.5,0.125,127,80.0
6952,G#3,231.625,0.125,127,80.0
6953,F3,231.625,0.125,127,80.0
6954,D4,231.75,0.25,127,80.0
6955,D4,231.75,0.25,127,80.0
6956,D5,231.75,0.25,127,80.0
6957,D4,231.75,0.25,127,80.0
6958,D5,231.75,0.25,127,80.0
6959,G#3,231.75,0.125,127,80.0
6960,F3,231.75,0.125,127,80.0
6961,G#3,231.875,0.125,127,80.0
6962,F3,231.875,0.125,127,80.0
6963,F3,232.0,0.25,127,80.0
6964,F3,232.0,0.25,127,80.0
6965,F2,232.0,4.0,127,80.0
6966,F4,232.0,0.25,127,80.0
6967,F3,232.0,0.25,127,80.0
6968,F4,232.0,0.25,127,80.0
6969,F3,232.0,0.5,127,80.0
6970,G#3,232.0,0.125,127,80.0
6971,F3,232.0,0.125,127,80.0
6972,G#3,232.125,0.125,127,80.0
6973,F3,232.125,0.125,127,80.0
6974,C4,232.25,0.25,127,80.0
6975,C4,232.25,0.25,127,80.0
6976,C5,232.25,0.25,127,80.0
6977,C4,232.25,0.25,127,80.0
6978,C5,232.25,0.25,127,80.0
6979,G#3,232.25,0.125,127,80.0
6980,F3,232.25,0.125,127,80.0
6981,G#3,232.375,0.125,127,80.0
6982,F3,232.375,0.125,127,80.0
6983,D4,232.5,0.25,127,80.0
6984,D4,232.5,0.25,127,80.0
6985,D5,232.5,0.25,127,80.0
6986,D4,232.5,0.25,127,80.0
6987,D5,232.5,0.25,127,80.0
6988,F4,232.5,0.5,127,80.0
6989,G#3,232.5,0.125,127,80.0
6990,F3,232.5,0.125,127,80.0
6991,G#3,232.625,0.125,127,80.0
6992,F3,232.625,0.125,127,80.0
6993,E-4,232.75,0.25,127,80.0
6994,E-4,232.75,0.25,127,80.0
6995,E-5,232.75,0.25,127,80.0
6996,E-4,232.75,0.25,127,80.0
6997,E-5,232.75,0.25,127,80.0
6998,G#3,232.75,0.125,127,80.0
6999,F3,232.75,0.125,127,80.0
7000,G#3,232.875,0.125,127,80.0
7001,F3,232.875,0.125,127,80.0
7002,F3,233.0,0.25,127,80.0
7003,F3,233.0,0.25,127,80.0
7004,F4,233.0,0.25,127,80.0
7005,F3,233.0,0.25,127,80.0
7006,F4,233.0,0.25,127,80.0
7007,G#4,233.0,0.5,127,80.0
7008,G#3,233.0,0.125,127,80.0
7009,F3,233.0,0.125,127,80.0
7010,G#3,233.125,0.125,127,80.0
7011,F3,233.125,0.125,127,80.0
7012,C5,233.25,0.25,127,80.0
7013,C5,233.25,0.25,127,80.0
7014,C6,233.25,0.25,127,80.0
7015,C5,233.25,0.25,127,80.0
7016,C6,233.25,0.25,127,80.0
7017,G#3,233.25,0.125,127,80.0
7018,F3,233.25,0.125,127,80.0
7019,G#3,233.375,0.125,127,80.0
7020,F3,233.375,0.125,127,80.0
7021,D5,233.5,0.25,127,80.0
7022,D5,233.5,0.25,127,80.0
7023,D6,233.5,0.25,127,80.0
7024,D5,233.5,0.25,127,80.0
7025,D6,233.5,0.25,127,80.0
7026,C5,233.5,1.0,127,80.0
7027,G#3,233.5,0.125,127,80.0
7028,F3,233.5,0.125,127,80.0
7029,G#3,233.625,0.125,127,80.0
7030,F3,233.625,0.125,127,80.0
7031,E-5,233.75,0.25,127,80.0
7032,E-5,233.75,0.25,127,80.0
7033,E-6,233.75,0.25,127,80.0
7034,E-5,233.75,0.25,127,80.0
7035,E-6,233.75,0.25,127,80.0
7036,G#3,233.75,0.125,127,80.0
7037,F3,233.75,0.125,127,80.0
7038,G#3,233.875,31/250,127,80.0
7039,F3,233.875,31/250,127,80.0
7040,F4,234.0,0.25,127,80.0
7041,F4,234.0,0.25,127,80.0
7042,F5,234.0,0.25,127,80.0
7043,F4,234.0,0.25,127,80.0
7044,F5,234.0,0.25,127,80.0
7045,G3,234.0,0.125,127,80.0
7046,E-3,234.0,0.125,127,80.0
7047,G3,234.125,0.125,127,80.0
7048,E-3,234.125,0.125,127,80.0
7049,C6,234.25,0.25,127,80.0
7050,C6,234.25,0.25,127,80.0
7051,C7,234.25,0.25,127,80.0
7052,C6,234.25,0.25,127,80.0
7053,C7,234.25,0.25,127,80.0
7054,G3,234.25,0.125,127,80.0
7055,E-3,234.25,0.125,127,80.0
7056,G3,234.375,0.125,127,80.0
7057,E-3,234.375,0.125,127,80.0
7058,F4,234.5,0.25,127,80.0
7059,F4,234.5,0.25,127,80.0
7060,F5,234.5,0.25,127,80.0
7061,F4,234.5,0.25,127,80.0
7062,F5,234.5,0.25,127,80.0
7063,F5,234.5,0.5,127,80.0
7064,G3,234.5,0.125,127,80.0
7065,E-3,234.5,0.125,127,80.0
7066,G3,234.625,0.125,127,80.0
7067,E-3,234.625,0.125,127,80.0
7068,E-5,234.75,0.25,127,80.0
7069,E-5,234.75,0.25,127,80.0
7070,E-6,234.75,0.25,127,80.0
7071,E-5,234.75,0.25,127,80.0
7072,E-6,234.75,0.25,127,80.0
7073,G3,234.75,0.125,127,80.0
7074,E-3,234.75,0.125,127,80.0
7075,G3,234.875,31/250,127,80.0
7076,E-3,234.875,31/250,127,80.0
7077,D5,235.0,0.25,127,80.0
7078,D5,235.0,0.25,127,80.0
7079,F3,235.0,1.0,127,80.0
7080,D6,235.0,0.25,127,80.0
7081,D5,235.0,0.25,127,80.0
7082,D6,235.0,0.25,127,80.0
7083,C6,235.0,1.0,127,80.0
7084,G#3,235.0,0.125,127,80.0
7085,F3,235.0,0.125,127,80.0
7086,G#3,235.125,0.125,127,80.0
7087,F3,235.125,0.125,127,80.0
7088,C5,235.25,0.25,127,80.0
7089,C5,235.25,0.25,127,80.0
7090,C6,235.25,0.25,127,80.0
7091,C5,235.25,0.25,127,80.0
7092,C6,235.25,0.25,127,80.0
7093,G#3,235.25,0.125,127,80.0
7094,F3,235.25,0.125,127,80.0
7095,G#3,235.375,0.125,127,80.0
7096,F3,235.375,0.125,127,80.0
7097,F3,235.5,0.25,127,80.0
7098,F3,235.5,0.25,127,80.0
7099,F4,235.5,0.25,127,80.0
7100,F3,235.5,0.25,127,80.0
7101,F4,235.5,0.25,127,80.0
7102,G#3,235.5,0.125,127,80.0
7103,F3,235.5,0.125,127,80.0
7104,G#3,235.625,0.125,127,80.0
7105,F3,235.625,0.125,127,80.0
7106,E-4,235.75,0.25,127,80.0
7107,E-4,235.75,0.25,127,80.0
7108,E-5,235.75,0.25,127,80.0
7109,E-4,235.75,0.25,127,80.0
7110,E-5,235.75,0.25,127,80.0
7111,G#3,235.75,0.125,127,80.0
7112,F3,235.75,0.125,127,80.0
7113,G#3,235.875,31/250,127,80.0
7114,F3,235.875,31/250,127,80.0
7115,D4,236.0,0.25,127,80.0
7116,D4,236.0,0.25,127,80.0
7117,F2,236.0,2.0,127,80.0
7118,F3,236.0,2.0,127,80.0
7119,D5,236.0,0.25,127,80.0
7120,D4,236.0,0.25,127,80.0
7121,D5,236.0,0.25,127,80.0
7122,F3,236.0,0.5,127,80.0
7123,C4,236.0,0.125,127,80.0
7124,G#3,236.0,0.125,127,80.0
7125,C4,236.125,0.125,127,80.0
7126,G#3,236.125,0.125,127,80.0
7127,C4,236.25,0.25,127,80.0
7128,C4,236.25,0.25,127,80.0
7129,C5,236.25,0.25,127,80.0
7130,C4,236.25,0.25,127,80.0
7131,C5,236.25,0.25,127,80.0
7132,C4,236.25,0.125,127,80.0
7133,G#3,236.25,0.125,127,80.0
7134,C4,236.375,0.125,127,80.0
7135,G#3,236.375,0.125,127,80.0
7136,F3,236.5,0.25,127,80.0
7137,F3,236.5,0.25,127,80.0
7138,F4,236.5,0.25,127,80.0
7139,F3,236.5,0.25,127,80.0
7140,F4,236.5,0.25,127,80.0
7141,F4,236.5,0.5,127,80.0
7142,C4,236.5,0.125,127,80.0
7143,G#3,236.5,0.125,127,80.0
7144,C4,236.625,0.125,127,80.0
7145,G#3,236.625,0.125,127,80.0
7146,C4,236.75,0.25,127,80.0
7147,C4,236.75,0.25,127,80.0
7148,C5,236.75,0.25,127,80.0
7149,C4,236.75,0.25,127,80.0
7150,C5,236.75,0.25,127,80.0
7151,C4,236.75,0.125,127,80.0
7152,G#3,236.75,0.125,127,80.0
7153,C4,236.875,0.125,127,80.0
7154,G#3,236.875,0.125,127,80.0
7155,D4,237.0,0.25,127,80.0
7156,D4,237.0,0.25,127,80.0
7157,D5,237.0,0.25,127,80.0
7158,D4,237.0,0.25,127,80.0
7159,D5,237.0,0.25,127,80.0
7160,G#4,237.0,0.5,127,80.0
7161,C4,237.0,0.125,127,80.0
7162,G#3,237.0,0.125,127,80.0
7163,C4,237.125,0.125,127,80.0
7164,G#3,237.125,0.125,127,80.0
7165,E-4,237.25,0.25,127,80.0
7166,E-4,237.25,0.25,127,80.0
7167,E-5,237.25,0.25,127,80.0
7168,E-4,237.25,0.25,127,80.0
7169,E-5,237.25,0.25,127,80.0
7170,C4,237.25,0.125,127,80.0
7171,G#3,237.25,0.125,127,80.0
7172,C4,237.375,0.125,127,80.0
7173,G#3,237.375,0.125,127,80.0
7174,F3,237.5,0.25,127,80.0
7175,F3,237.5,0.25,127,80.0
7176,F4,237.5,0.25,127,80.0
7177,F3,237.5,0.25,127,80.0
7178,F4,237.5,0.25,127,80.0
7179,C5,237.5,1.0,127,80.0
7180,C4,237.5,0.125,127,80.0
7181,G#3,237.5,0.125,127,80.0
7182,C4,237.625,0.125,127,80.0
7183,G#3,237.625,0.125,127,80.0
7184,C5,237.75,0.25,127,80.0
7185,C5,237.75,0.25,127,80.0
7186,C6,237.75,0.25,127,80.0
7187,C5,237.75,0.25,127,80.0
7188,C6,237.75,0.25,127,80.0
7189,C4,237.75,0.125,127,80.0
7190,G#3,237.75,0.125,127,80.0
7191,C4,237.875,0.125,127,80.0
7192,G#3,237.875,0.125,127,80.0
7193,D5,238.0,0.25,127,80.0
7194,D5,238.0,0.25,127,80.0
7195,E-2,238.0,1.0,127,80.0
7196,D6,238.0,0.25,127,80.0
7197,D5,238.0,0.25,127,80.0
7198,D6,238.0,0.25,127,80.0
7199,C#3,238.0,0.125,127,80.0
7200,A3,238.0,0.125,127,80.0
7201,C4,238.0,0.125,127,80.0
7202,G#3,238.0,0.125,127,80.0
7203,C#3,238.125,0.125,127,80.0
7204,A3,238.125,0.125,127,80.0
7205,C4,238.125,0.125,127,80.0
7206,G#3,238.125,0.125,127,80.0
7207,E-5,238.25,0.25,127,80.0
7208,E-5,238.25,0.25,127,80.0
7209,E-6,238.25,0.25,127,80.0
7210,E-5,238.25,0.25,127,80.0
7211,E-6,238.25,0.25,127,80.0
7212,C#3,238.25,0.125,127,80.0
7213,A3,238.25,0.125,127,80.0
7214,C4,238.25,0.125,127,80.0
7215,G#3,238.25,0.125,127,80.0
7216,C#3,238.375,0.125,127,80.0
7217,A3,238.375,0.125,127,80.0
7218,C4,238.375,0.125,127,80.0
7219,G#3,238.375,0.125,127,80.0
7220,F4,238.5,0.25,127,80.0
7221,F4,238.5,0.25,127,80.0
7222,F5,238.5,0.25,127,80.0
7223,F4,238.5,0.25,127,80.0
7224,F5,238.5,0.25,127,80.0
7225,F5,238.5,0.5,127,80.0
7226,C#3,238.5,0.125,127,80.0
7227,A3,238.5,0.125,127,80.0
7228,C4,238.5,0.125,127,80.0
7229,G#3,238.5,0.125,127,80.0
7230,C#3,238.625,0.125,127,80.0
7231,A3,238.625,0.125,127,80.0
7232,C4,238.625,0.125,127,80.0
7233,G#3,238.625,0.125,127,80.0
7234,C6,238.75,0.25,127,80.0
7235,C6,238.75,0.25,127,80.0
7236,C7,238.75,0.25,127,80.0
7237,C6,238.75,0.25,127,80.0
7238,C7,238.75,0.25,127,80.0
7239,C#3,238.75,0.125,127,80.0
7240,A3,238.75,0.125,127,80.0
7241,C4,238.75,0.125,127,80.0
7242,G#3,238.75,0.125,127,80.0
7243,C#3,238.875,0.125,127,80.0
7244,A3,238.875,0.125,127,80.0
7245,C4,238.875,0.125,127,80.0
7246,G#3,238.875,0.125,127,80.0
7247,F4,239.0,0.25,127,80.0
7248,F4,239.0,0.25,127,80.0
7249,F2,239.0,1.0,127,80.0
7250,F5,239.0,0.25,127,80.0
7251,F4,239.0,0.25,127,80.0
7252,F5,239.0,0.25,127,80.0
7253,C6,239.0,1.0,127,80.0
7254,C#3,239.0,0.125,127,80.0
7255,A3,239.0,0.125,127,80.0
7256,C4,239.0,0.125,127,80.0
7257,G#3,239.0,0.125,127,80.0
7258,C#3,239.125,0.125,127,80.0
7259,A3,239.125,0.125,127,80.0
7260,C4,239.125,0.125,127,80.0
7261,G#3,239.125,0.125,127,80.0
7262,E-5,239.25,0.25,127,80.0
7263,E-5,239.25,0.25,127,80.0
7264,E-6,239.25,0.25,127,80.0
7265,E-5,239.25,0.25,127,80.0
7266,E-6,239.25,0.25,127,80.0
7267,C#3,239.25,0.125,127,80.0
7268,A3,239.25,0.125,127,80.0
7269,C4,239.25,0.125,127,80.0
7270,G#3,239.25,0.125,127,80.0
7271,C#3,239.375,0.125,127,80.0
7272,A3,239.375,0.125,127,80.0
7273,C4,239.375,0.125,127,80.0
7274,G#3,239.375,0.125,127,80.0
7275,D5,239.5,0.25,127,80.0
7276,D5,239.5,0.25,127,80.0
7277,D6,239.5,0.25,127,80.0
7278,D5,239.5,0.25,127,80.0
7279,D6,239.5,0.25,127,80.0
7280,C#3,239.5,0.125,127,80.0
7281,A3,239.5,0.125,127,80.0
7282,C4,239.5,0.125,127,80.0
7283,G#3,239.5,0.125,127,80.0
7284,C#3,239.625,0.125,127,80.0
7285,A3,239.625,0.125,127,80.0
7286,C4,239.625,0.125,127,80.0
7287,G#3,239.625,0.125,127,80.0
7288,C5,239.75,0.25,127,80.0
7289,C5,239.75,0.25,127,80.0
7290,C6,239.75,0.25,127,80.0
7291,C5,239.75,0.25,127,80.0
7292,C6,239.75,0.25,127,80.0
7293,C#3,239.75,0.125,127,80.0
7294,A3,239.75,0.125,127,80.0
7295,C4,239.75,0.125,127,80.0
7296,G#3,239.75,0.125,127,80.0
7297,C#3,239.875,31/250,127,80.0
7298,A3,239.875,31/250,127,80.0
7299,C4,239.875,0.125,127,80.0
7300,G#3,239.875,0.125,127,80.0
7301,G#3,240.0,0.25,127,80.0
7302,G#3,240.0,0.25,127,80.0
7303,G#2,240.0,4.0,127,80.0
7304,G#4,240.0,0.25,127,80.0
7305,G#3,240.0,0.25,127,80.0
7306,G#4,240.0,0.25,127,80.0
7307,G#3,240.0,0.5,127,80.0
7308,C#3,240.0,4.0,127,80.0
7309,A3,240.0,4.0,127,80.0
7310,C4,240.0,0.125,127,80.0
7311,G#3,240.0,0.125,127,80.0
7312,C4,240.125,0.125,127,80.0
7313,G#3,240.125,0.125,127,80.0
7314,D4,240.25,0.25,127,80.0
7315,D4,240.25,0.25,127,80.0
7316,D5,240.25,0.25,127,80.0
7317,D4,240.25,0.25,127,80.0
7318,D5,240.25,0.25,127,80.0
7319,C4,240.25,0.125,127,80.0
7320,G#3,240.25,0.125,127,80.0
7321,C4,240.375,0.125,127,80.0
7322,G#3,240.375,0.125,127,80.0
7323,G4,240.5,0.25,127,80.0
7324,G4,240.5,0.25,127,80.0
7325,G5,240.5,0.25,127,80.0
7326,G4,240.5,0.25,127,80.0
7327,G5,240.5,0.25,127,80.0
7328,G#4,240.5,0.5,127,80.0
7329,C4,240.5,0.125,127,80.0
7330,G#3,240.5,0.125,127,80.0
7331,C4,240.625,0.125,127,80.0
7332,G#3,240.625,0.125,127,80.0
7333,G#3,240.75,0.25,127,80.0
7334,G#3,240.75,0.25,127,80.0
7335,G#4,240.75,0.25,127,80.0
7336,G#3,240.75,0.25,127,80.0
7337,G#4,240.75,0.25,127,80.0
7338,C4,240.75,0.125,127,80.0
7339,G#3,240.75,0.125,127,80.0
7340,C4,240.875,0.125,127,80.0
7341,G#3,240.875,0.125,127,80.0
7342,C5,241.0,0.25,127,80.0
7343,C5,241.0,0.25,127,80.0
7344,C6,241.0,0.25,127,80.0
7345,C5,241.0,0.25,127,80.0
7346,C6,241.0,0.25,127,80.0
7347,E-5,241.0,0.5,127,80.0
7348,C4,241.0,0.125,127,80.0
7349,G#3,241.0,0.125,127,80.0
7350,C4,241.125,0.125,127,80.0
7351,G#3,241.125,0.125,127,80.0
7352,D5,241.25,0.25,127,80.0
7353,D5,241.25,0.25,127,80.0
7354,D6,241.25,0.25,127,80.0
7355,D5,241.25,0.25,127,80.0
7356,D6,241.25,0.25,127,80.0
7357,C4,241.25,0.125,127,80.0
7358,G#3,241.25,0.125,127,80.0
7359,C4,241.375,0.125,127,80.0
7360,G#3,241.375,0.125,127,80.0
7361,G5,241.5,0.25,127,80.0
7362,G5,241.5,0.25,127,80.0
7363,G6,241.5,0.25,127,80.0
7364,G5,241.5,0.25,127,80.0
7365,G6,241.5,0.25,127,80.0
7366,G#5,241.5,1.0,127,80.0
7367,C4,241.5,0.125,127,80.0
7368,G#3,241.5,0.125,127,80.0
7369,C4,241.625,0.125,127,80.0
7370,G#3,241.625,0.125,127,80.0
7371,G#4,241.75,0.25,127,80.0
7372,G#4,241.75,0.25,127,80.0
7373,G#5,241.75,0.25,127,80.0
7374,G#4,241.75,0.25,127,80.0
7375,G#5,241.75,0.25,127,80.0
7376,C4,241.75,0.125,127,80.0
7377,G#3,241.75,0.125,127,80.0
7378,C4,241.875,31/250,127,80.0
7379,G#3,241.875,31/250,127,80.0
7380,C6,242.0,0.25,127,80.0
7381,C6,242.0,0.25,127,80.0
7382,C7,242.0,0.25,127,80.0
7383,C6,242.0,0.25,127,80.0
7384,C7,242.0,0.25,127,80.0
7385,E-4,242.0,0.125,127,80.0
7386,B-3,242.0,0.125,127,80.0
7387,E-4,242.125,0.125,127,80.0
7388,B-3,242.125,0.125,127,80.0
7389,G#4,242.25,0.25,127,80.0
7390,G#4,242.25,0.25,127,80.0
7391,G#5,242.25,0.25,127,80.0
7392,G#4,242.25,0.25,127,80.0
7393,G#5,242.25,0.25,127,80.0
7394,E-4,242.25,0.125,127,80.0
7395,B-3,242.25,0.125,127,80.0
7396,E-4,242.375,0.125,127,80.0
7397,B-3,242.375,0.125,127,80.0
7398,G5,242.5,0.25,127,80.0
7399,G5,242.5,0.25,127,80.0
7400,G6,242.5,0.25,127,80.0
7401,G5,242.5,0.25,127,80.0
7402,G6,242.5,0.25,127,80.0
7403,E-6,242.5,1.0,127,80.0
7404,E-4,242.5,0.125,127,80.0
7405,B-3,242.5,0.125,127,80.0
7406,E-4,242.625,0.125,127,80.0
7407,B-3,242.625,0.125,127,80.0
7408,D5,242.75,0.25,127,80.0
7409,D5,242.75,0.25,127,80.0
7410,D6,242.75,0.25,127,80.0
7411,D5,242.75,0.25,127,80.0
7412,D6,242.75,0.25,127,80.0
7413,E-4,242.75,0.125,127,80.0
7414,B-3,242.75,0.125,127,80.0
7415,E-4,242.875,31/250,127,80.0
7416,B-3,242.875,31/250,127,80.0
7417,C5,243.0,0.25,127,80.0
7418,C5,243.0,0.25,127,80.0
7419,C6,243.0,0.25,127,80.0
7420,C5,243.0,0.25,127,80.0
7421,C6,243.0,0.25,127,80.0
7422,C4,243.0,0.125,127,80.0
7423,G#3,243.0,0.125,127,80.0
7424,C4,243.125,0.125,127,80.0
7425,G#3,243.125,0.125,127,80.0
7426,G#3,243.25,0.25,127,80.0
7427,G#3,243.25,0.25,127,80.0
7428,G#4,243.25,0.25,127,80.0
7429,G#3,243.25,0.25,127,80.0
7430,G#4,243.25,0.25,127,80.0
7431,C4,243.25,0.125,127,80.0
7432,G#3,243.25,0.125,127,80.0
7433,C4,243.375,0.125,127,80.0
7434,G#3,243.375,0.125,127,80.0
7435,G4,243.5,0.25,127,80.0
7436,G4,243.5,0.25,127,80.0
7437,G5,243.5,0.25,127,80.0
7438,G4,243.5,0.25,127,80.0
7439,G5,243.5,0.25,127,80.0
7440,D6,243.5,0.5,127,80.0
7441,C4,243.5,0.125,127,80.0
7442,G#3,243.5,0.125,127,80.0
7443,C4,243.625,0.125,127,80.0
7444,G#3,243.625,0.125,127,80.0
7445,D4,243.75,0.25,127,80.0
7446,D4,243.75,0.25,127,80.0
7447,D5,243.75,0.25,127,80.0
7448,D4,243.75,0.25,127,80.0
7449,D5,243.75,0.25,127,80.0
7450,C4,243.75,0.125,127,80.0
7451,G#3,243.75,0.125,127,80.0
7452,C4,243.875,31/250,127,80.0
7453,G#3,243.875,31/250,127,80.0
7454,G#3,244.0,0.25,127,80.0
7455,G#3,244.0,0.25,127,80.0
7456,G#2,244.0,0.5,127,80.0
7457,G#4,244.0,0.25,127,80.0
7458,G#3,244.0,0.25,127,80.0
7459,G#4,244.0,0.25,127,80.0
7460,G#3,244.0,0.5,127,80.0
7461,G#3,244.0,0.125,127,80.0
7462,F3,244.0,0.125,127,80.0
7463,G#3,244.125,0.125,127,80.0
7464,F3,244.125,0.125,127,80.0
7465,D4,244.25,0.25,127,80.0
7466,D4,244.25,0.25,127,80.0
7467,D5,244.25,0.25,127,80.0
7468,D4,244.25,0.25,127,80.0
7469,D5,244.25,0.25,127,80.0
7470,G#3,244.25,0.125,127,80.0
7471,F3,244.25,0.125,127,80.0
7472,G#3,244.375,0.125,127,80.0
7473,F3,244.375,0.125,127,80.0
7474,G4,244.5,0.25,127,80.0
7475,G4,244.5,0.25,127,80.0
7476,G#3,244.5,3.5,127,80.0
7477,G5,244.5,0.25,127,80.0
7478,G4,244.5,0.25,127,80.0
7479,G5,244.5,0.25,127,80.0
7480,G#4,244.5,0.5,127,80.0
7481,G#3,244.5,0.125,127,80.0
7482,F3,244.5,0.125,127,80.0
7483,G#3,244.625,0.125,127,80.0
7484,F3,244.625,0.125,127,80.0
7485,G#3,244.75,0.25,127,80.0
7486,G#3,244.75,0.25,127,80.0
7487,G#4,244.75,0.25,127,80.0
7488,G#3,244.75,0.25,127,80.0
7489,G#4,244.75,0.25,127,80.0
7490,G#3,244.75,0.125,127,80.0
7491,F3,244.75,0.125,127,80.0
7492,G#3,244.875,0.125,127,80.0
7493,F3,244.875,0.125,127,80.0
7494,C5,245.0,0.25,127,80.0
7495,C5,245.0,0.25,127,80.0
7496,C6,245.0,0.25,127,80.0
7497,C5,245.0,0.25,127,80.0
7498,C6,245.0,0.25,127,80.0
7499,E-5,245.0,0.5,127,80.0
7500,G#3,245.0,0.125,127,80.0
7501,F3,245.0,0.125,127,80.0
7502,G#3,245.125,0.125,127,80.0
7503,F3,245.125,0.125,127,80.0
7504,D5,245.25,0.25,127,80.0
7505,D5,245.25,0.25,127,80.0
7506,D6,245.25,0.25,127,80.0
7507,D5,245.25,0.25,127,80.0
7508,D6,245.25,0.25,127,80.0
7509,G#3,245.25,0.125,127,80.0
7510,F3,245.25,0.125,127,80.0
7511,G#3,245.375,0.125,127,80.0
7512,F3,245.375,0.125,127,80.0
7513,G5,245.5,0.25,127,80.0
7514,G5,245.5,0.25,127,80.0
7515,G6,245.5,0.25,127,80.0
7516,G5,245.5,0.25,127,80.0
7517,G6,245.5,0.25,127,80.0
7518,B-5,245.5,0.5,127,80.0
7519,G#3,245.5,0.125,127,80.0
7520,F3,245.5,0.125,127,80.0
7521,G#3,245.625,0.125,127,80.0
7522,F3,245.625,0.125,127,80.0
7523,G#4,245.75,0.25,127,80.0
7524,G#4,245.75,0.25,127,80.0
7525,G#5,245.75,0.25,127,80.0
7526,G#4,245.75,0.25,127,80.0
7527,G#5,245.75,0.25,127,80.0
7528,G#3,245.75,0.125,127,80.0
7529,F3,245.75,0.125,127,80.0
7530,G#3,245.875,0.125,127,80.0
7531,F3,245.875,0.125,127,80.0
7532,C6,246.0,0.25,127,80.0
7533,C6,246.0,0.25,127,80.0
7534,C7,246.0,0.25,127,80.0
7535,C6,246.0,0.25,127,80.0
7536,C7,246.0,0.25,127,80.0
7537,E-6,246.0,0.5,127,80.0
7538,G#3,246.0,0.125,127,80.0
7539,F3,246.0,0.125,127,80.0
7540,G#3,246.125,0.125,127,80.0
7541,F3,246.125,0.125,127,80.0
7542,G#4,246.25,0.25,127,80.0
7543,G#4,246.25,0.25,127,80.0
7544,G#5,246.25,0.25,127,80.0
7545,G#4,246.25,0.25,127,80.0
7546,G#5,246.25,0.25,127,80.0
7547,G#3,246.25,0.125,127,80.0
7548,F3,246.25,0.125,127,80.0
7549,G#3,246.375,0.125,127,80.0
7550,F3,246.375,0.125,127,80.0
7551,G5,246.5,0.25,127,80.0
7552,G5,246.5,0.25,127,80.0
7553,G6,246.5,0.25,127,80.0
7554,G5,246.5,0.25,127,80.0
7555,G6,246.5,0.25,127,80.0
7556,B-5,246.5,0.5,127,80.0
7557,G#3,246.5,0.125,127,80.0
7558,F3,246.5,0.125,127,80.0
7559,G#3,246.625,0.125,127,80.0
7560,F3,246.625,0.125,127,80.0
7561,D5,246.75,0.25,127,80.0
7562,D5,246.75,0.25,127,80.0
7563,D6,246.75,0.25,127,80.0
7564,D5,246.75,0.25,127,80.0
7565,D6,246.75,0.25,127,80.0
7566,G#3,246.75,0.125,127,80.0
7567,F3,246.75,0.125,127,80.0
7568,G#3,246.875,0.125,127,80.0
7569,F3,246.875,0.125,127,80.0
7570,C5,247.0,0.25,127,80.0
7571,C5,247.0,0.25,127,80.0
7572,C6,247.0,0.25,127,80.0
7573,C5,247.0,0.25,127,80.0
7574,C6,247.0,0.25,127,80.0
7575,E-5,247.0,0.5,127,80.0
7576,G#3,247.0,0.125,127,80.0
7577,F3,247.0,0.125,127,80.0
7578,G#3,247.125,0.125,127,80.0
7579,F3,247.125,0.125,127,80.0
7580,G#3,247.25,0.25,127,80.0
7581,G#3,247.25,0.25,127,80.0
7582,G#4,247.25,0.25,127,80.0
7583,G#3,247.25,0.25,127,80.0
7584,G#4,247.25,0.25,127,80.0
7585,G#3,247.25,0.125,127,80.0
7586,F3,247.25,0.125,127,80.0
7587,G#3,247.375,0.125,127,80.0
7588,F3,247.375,0.125,127,80.0
7589,G4,247.5,0.25,127,80.0
7590,G4,247.5,0.25,127,80.0
7591,G5,247.5,0.25,127,80.0
7592,G4,247.5,0.25,127,80.0
7593,G5,247.5,0.25,127,80.0
7594,B-5,247.5,0.5,127,80.0
7595,G#3,247.5,0.125,127,80.0
7596,F3,247.5,0.125,127,80.0
7597,G#3,247.625,0.125,127,80.0
7598,F3,247.625,0.125,127,80.0
7599,D4,247.75,0.25,127,80.0
7600,D4,247.75,0.25,127,80.0
7601,D5,247.75,0.25,127,80.0
7602,D4,247.75,0.25,127,80.0
7603,D5,247.75,0.25,127,80.0
7604,G#3,247.75,0.125,127,80.0
7605,F3,247.75,0.125,127,80.0
7606,G#3,247.875,0.125,127,80.0
7607,F3,247.875,0.125,127,80.0
7608,F3,248.0,0.25,127,80.0
7609,F3,248.0,0.25,127,80.0
7610,F2,248.0,4.0,127,80.0
7611,F4,248.0,0.25,127,80.0
7612,F3,248.0,0.25,127,80.0
7613,F4,248.0,0.25,127,80.0
7614,F3,248.0,0.5,127,80.0
7615,G#3,248.0,0.125,127,80.0
7616,F3,248.0,0.125,127,80.0
7617,G#3,248.125,0.125,127,80.0
7618,F3,248.125,0.125,127,80.0
7619,C4,248.25,0.25,127,80.0
7620,C4,248.25,0.25,127,80.0
7621,C5,248.25,0.25,127,80.0
7622,C4,248.25,0.25,127,80.0
7623,C5,248.25,0.25,127,80.0
7624,G#3,248.25,0.125,127,80.0
7625,F3,248.25,0.125,127,80.0
7626,G#3,248.375,0.125,127,80.0
7627,F3,248.375,0.125,127,80.0
7628,D4,248.5,0.25,127,80.0
7629,D4,248.5,0.25,127,80.0
7630,D5,248.5,0.25,127,80.0
7631,D4,248.5,0.25,127,80.0
7632,D5,248.5,0.25,127,80.0
7633,F4,248.5,0.5,127,80.0
7634,G#3,248.5,0.125,127,80.0
7635,F3,248.5,0.125,127,80.0
7636,G#3,248.625,0.125,127,80.0
7637,F3,248.625,0.125,127,80.0
7638,E-4,248.75,0.25,127,80.0
7639,E-4,248.75,0.25,127,80.0
7640,E-5,248.75,0.25,127,80.0
7641,E-4,248.75,0.25,127,80.0
7642,E-5,248.75,0.25,127,80.0
7643,G#3,248.75,0.125,127,80.0
7644,F3,248.75,0.125,127,80.0
7645,G#3,248.875,0.125,127,80.0
7646,F3,248.875,0.125,127,80.0
7647,F3,249.0,0.25,127,80.0
7648,F3,249.0,0.25,127,80.0
7649,F4,249.0,0.25,127,80.0
7650,F3,249.0,0.25,127,80.0
7651,F4,249.0,0.25,127,80.0
7652,B-4,249.0,0.5,127,80.0
7653,G#3,249.0,0.125,127,80.0
7654,F3,249.0,0.125,127,80.0
7655,G#3,249.125,0.125,127,80.0
7656,F3,249.125,0.125,127,80.0
7657,C5,249.25,0.25,127,80.0
7658,C5,249.25,0.25,127,80.0
7659,C6,249.25,0.25,127,80.0
7660,C5,249.25,0.25,127,80.0
7661,C6,249.25,0.25,127,80.0
7662,G#3,249.25,0.125,127,80.0
7663,F3,249.25,0.125,127,80.0
7664,G#3,249.375,0.125,127,80.0
7665,F3,249.375,0.125,127,80.0
7666,D5,249.5,0.25,127,80.0
7667,D5,249.5,0.25,127,80.0
7668,D6,249.5,0.25,127,80.0
7669,D5,249.5,0.25,127,80.0
7670,D6,249.5,0.25,127,80.0
7671,E-5,249.5,0.5,127,80.0
7672,G#3,249.5,0.125,127,80.0
7673,F3,249.5,0.125,127,80.0
7674,G#3,249.625,0.125,127,80.0
7675,F3,249.625,0.125,127,80.0
7676,E-5,249.75,0.25,127,80.0
7677,E-5,249.75,0.25,127,80.0
7678,E-6,249.75,0.25,127,80.0
7679,E-5,249.75,0.25,127,80.0
7680,E-6,249.75,0.25,127,80.0
7681,G#3,249.75,0.125,127,80.0
7682,F3,249.75,0.125,127,80.0
7683,G#3,249.875,31/250,127,80.0
7684,F3,249.875,31/250,127,80.0
7685,F4,250.0,0.25,127,80.0
7686,F4,250.0,0.25,127,80.0
7687,F5,250.0,0.25,127,80.0
7688,F4,250.0,0.25,127,80.0
7689,F5,250.0,0.25,127,80.0
7690,C6,250.0,1.0,127,80.0
7691,G3,250.0,0.125,127,80.0
7692,E-3,250.0,0.125,127,80.0
7693,G3,250.125,0.125,127,80.0
7694,E-3,250.125,0.125,127,80.0
7695,C6,250.25,0.25,127,80.0
7696,C6,250.25,0.25,127,80.0
7697,C7,250.25,0.25,127,80.0
7698,C6,250.25,0.25,127,80.0
7699,C7,250.25,0.25,127,80.0
7700,G3,250.25,0.125,127,80.0
7701,E-3,250.25,0.125,127,80.0
7702,G3,250.375,0.125,127,80.0
7703,E-3,250.375,0.125,127,80.0
7704,F4,250.5,0.25,127,80.0
7705,F4,250.5,0.25,127,80.0
7706,F5,250.5,0.25,127,80.0
7707,F4,250.5,0.25,127,80.0
7708,F5,250.5,0.25,127,80.0
7709,G3,250.5,0.125,127,80.0
7710,E-3,250.5,0.125,127,80.0
7711,G3,250.625,0.125,127,80.0
7712,E-3,250.625,0.125,127,80.0
7713,E-5,250.75,0.25,127,80.0
7714,E-5,250.75,0.25,127,80.0
7715,E-6,250.75,0.25,127,80.0
7716,E-5,250.75,0.25,127,80.0
7717,E-6,250.75,0.25,127,80.0
7718,G3,250.75,0.125,127,80.0
7719,E-3,250.75,0.125,127,80.0
7720,G3,250.875,31/250,127,80.0
7721,E-3,250.875,31/250,127,80.0
7722,D5,251.0,0.25,127,80.0
7723,D5,251.0,0.25,127,80.0
7724,D6,251.0,0.25,127,80.0
7725,D5,251.0,0.25,127,80.0
7726,D6,251.0,0.25,127,80.0
7727,G#5,251.0,1.0,127,80.0
7728,G#3,251.0,0.125,127,80.0
7729,F3,251.0,0.125,127,80.0
7730,G#3,251.125,0.125,127,80.0
7731,F3,251.125,0.125,127,80.0
7732,C5,251.25,0.25,127,80.0
7733,C5,251.25,0.25,127,80.0
7734,C6,251.25,0.25,127,80.0
7735,C5,251.25,0.25,127,80.0
7736,C6,251.25,0.25,127,80.0
7737,G#3,251.25,0.125,127,80.0
7738,F3,251.25,0.125,127,80.0
7739,G#3,251.375,0.125,127,80.0
7740,F3,251.375,0.125,127,80.0
7741,F3,251.5,0.25,127,80.0
7742,F3,251.5,0.25,127,80.0
7743,F4,251.5,0.25,127,80.0
7744,F3,251.5,0.25,127,80.0
7745,F4,251.5,0.25,127,80.0
7746,G#3,251.5,0.125,127,80.0
7747,F3,251.5,0.125,127,80.0
7748,G#3,251.625,0.125,127,80.0
7749,F3,251.625,0.125,127,80.0
7750,E-4,251.75,0.25,127,80.0
7751,E-4,251.75,0.25,127,80.0
7752,E-3,251.75,0.125,127,80.0
7753,E-5,251.75,0.25,127,80.0
7754,E-4,251.75,0.25,127,80.0
7755,E-5,251.75,0.25,127,80.0
7756,G#3,251.75,0.125,127,80.0
7757,F3,251.75,0.125,127,80.0
7758,F3,251.875,0.125,127,80.0
7759,G#3,251.875,31/250,127,80.0
7760,F3,251.875,31/250,127,80.0
7761,D4,252.0,0.25,127,80.0
7762,D4,252.0,0.25,127,80.0
7763,F2,252.0,4.0,127,80.0
7764,E-3,252.0,0.25,127,80.0
7765,D5,252.0,0.25,127,80.0
7766,D4,252.0,0.25,127,80.0
7767,D5,252.0,0.25,127,80.0
7768,C4,252.0,0.125,127,80.0
7769,G#3,252.0,0.125,127,80.0
7770,C4,252.125,0.125,127,80.0
7771,G#3,252.125,0.125,127,80.0
7772,C4,252.25,0.25,127,80.0
7773,C4,252.25,0.25,127,80.0
7774,F3,252.25,0.25,127,80.0
7775,C5,252.25,0.25,127,80.0
7776,C4,252.25,0.25,127,80.0
7777,C5,252.25,0.25,127,80.0
7778,C4,252.25,0.125,127,80.0
7779,G#3,252.25,0.125,127,80.0
7780,C4,252.375,0.125,127,80.0
7781,G#3,252.375,0.125,127,80.0
7782,F3,252.5,0.25,127,80.0
7783,F3,252.5,0.25,127,80.0
7784,E-3,252.5,0.25,127,80.0
7785,F4,252.5,0.25,127,80.0
7786,F3,252.5,0.25,127,80.0
7787,F4,252.5,0.25,127,80.0
7788,F3,252.5,0.5,127,80.0
7789,C4,252.5,0.125,127,80.0
7790,G#3,252.5,0.125,127,80.0
7791,C4,252.625,0.125,127,80.0
7792,G#3,252.625,0.125,127,80.0
7793,C4,252.75,0.25,127,80.0
7794,C4,252.75,0.25,127,80.0
7795,F3,252.75,0.25,127,80.0
7796,C5,252.75,0.25,127,80.0
7797,C4,252.75,0.25,127,80.0
7798,C5,252.75,0.25,127,80.0
7799,C4,252.75,0.125,127,80.0
7800,G#3,252.75,0.125,127,80.0
7801,C4,252.875,0.125,127,80.0
7802,G#3,252.875,0.125,127,80.0
7803,D4,253.0,0.25,127,80.0
7804,D4,253.0,0.25,127,80.0
7805,F3,253.0,3.0,127,80.0
7806,E-3,253.0,0.5,127,80.0
7807,D5,253.0,0.25,127,80.0
7808,D4,253.0,0.25,127,80.0
7809,D5,253.0,0.25,127,80.0
7810,F4,253.0,0.5,127,80.0
7811,C4,253.0,0.125,127,80.0
7812,G#3,253.0,0.125,127,80.0
7813,C4,253.125,0.125,127,80.0
7814,G#3,253.125,0.125,127,80.0
7815,E-4,253.25,0.25,127,80.0
7816,E-4,253.25,0.25,127,80.0
7817,E-5,253.25,0.25,127,80.0
7818,E-4,253.25,0.25,127,80.0
7819,E-5,253.25,0.25,127,80.0
7820,C4,253.25,0.125,127,80.0
7821,G#3,253.25,0.125,127,80.0
7822,C4,253.375,0.125,127,80.0
7823,G#3,253.375,0.125,127,80.0
7824,F3,253.5,0.25,127,80.0
7825,F3,253.5,0.25,127,80.0
7826,E-3,253.5,0.5,127,80.0
7827,F4,253.5,0.25,127,80.0
7828,F3,253.5,0.25,127,80.0
7829,F4,253.5,0.25,127,80.0
7830,B-4,253.5,1.0,127,80.0
7831,C4,253.5,0.125,127,80.0
7832,G#3,253.5,0.125,127,80.0
7833,C4,253.625,0.125,127,80.0
7834,G#3,253.625,0.125,127,80.0
7835,C5,253.75,0.25,127,80.0
7836,C5,253.75,0.25,127,80.0
7837,C6,253.75,0.25,127,80.0
7838,C5,253.75,0.25,127,80.0
7839,C6,253.75,0.25,127,80.0
7840,C4,253.75,0.125,127,80.0
7841,G#3,253.75,0.125,127,80.0
7842,C4,253.875,0.125,127,80.0
7843,G#3,253.875,0.125,127,80.0
7844,D5,254.0,0.25,127,80.0
7845,D5,254.0,0.25,127,80.0
7846,D6,254.0,0.25,127,80.0
7847,D5,254.0,0.25,127,80.0
7848,D6,254.0,0.25,127,80.0
7849,C4,254.0,0.125,127,80.0
7850,G#3,254.0,0.125,127,80.0
7851,C4,254.125,0.125,127,80.0
7852,G#3,254.125,0.125,127,80.0
7853,E-5,254.25,0.25,127,80.0
7854,E-5,254.25,0.25,127,80.0
7855,E-6,254.25,0.25,127,80.0
7856,E-5,254.25,0.25,127,80.0
7857,E-6,254.25,0.25,127,80.0
7858,F3,254.25,0.5,127,80.0
7859,D2,254.25,0.5,127,80.0
7860,C4,254.25,0.125,127,80.0
7861,G#3,254.25,0.125,127,80.0
7862,C4,254.375,0.125,127,80.0
7863,G#3,254.375,0.125,127,80.0
7864,F4,254.5,0.25,127,80.0
7865,F4,254.5,0.25,127,80.0
7866,F5,254.5,0.25,127,80.0
7867,F4,254.5,0.25,127,80.0
7868,F5,254.5,0.25,127,80.0
7869,C6,254.5,0.5,127,80.0
7870,C4,254.5,0.125,127,80.0
7871,G#3,254.5,0.125,127,80.0
7872,C4,254.625,0.125,127,80.0
7873,G#3,254.625,0.125,127,80.0
7874,C6,254.75,0.25,127,80.0
7875,C6,254.75,0.25,127,80.0
7876,B2,254.75,0.25,127,80.0
7877,C7,254.75,0.25,127,80.0
7878,C6,254.75,0.25,127,80.0
7879,C7,254.75,0.25,127,80.0
7880,C4,254.75,0.125,127,80.0
7881,G#3,254.75,0.125,127,80.0
7882,C4,254.875,0.125,127,80.0
7883,G#3,254.875,0.125,127,80.0
7884,F4,255.0,0.25,127,80.0
7885,F4,255.0,0.25,127,80.0
7886,F5,255.0,0.25,127,80.0
7887,F4,255.0,0.25,127,80.0
7888,F5,255.0,0.25,127,80.0
7889,G#5,255.0,1.0,127,80.0
7890,C4,255.0,0.125,127,80.0
7891,G#3,255.0,0.125,127,80.0
7892,C4,255.125,0.125,127,80.0
7893,G#3,255.125,0.125,127,80.0
7894,E-5,255.25,0.25,127,80.0
7895,E-5,255.25,0.25,127,80.0
7896,E-6,255.25,0.25,127,80.0
7897,E-5,255.25,0.25,127,80.0
7898,E-6,255.25,0.25,127,80.0
7899,E-3,255.25,0.25,127,80.0
7900,A2,255.25,0.25,127,80.0
7901,G2,255.25,0.25,127,80.0
7902,C4,255.25,0.125,127,80.0
7903,G#3,255.25,0.125,127,80.0
7904,C4,255.375,0.125,127,80.0
7905,G#3,255.375,0.125,127,80.0
7906,D5,255.5,0.25,127,80.0
7907,D5,255.5,0.25,127,80.0
7908,D6,255.5,0.25,127,80.0
7909,D5,255.5,0.25,127,80.0
7910,D6,255.5,0.25,127,80.0
7911,C#3,255.5,0.25,127,80.0
7912,G2,255.5,0.25,127,80.0
7913,C4,255.5,0.125,127,80.0
7914,G#3,255.5,0.125,127,80.0
7915,C4,255.625,0.125,127,80.0
7916,G#3,255.625,0.125,127,80.0
7917,C5,255.75,0.25,127,80.0
7918,C5,255.75,0.25,127,80.0
7919,C6,255.75,0.25,127,80.0
7920,C5,255.75,0.25,127,80.0
7921,C6,255.75,0.25,127,80.0
7922,C#3,255.75,0.25,127,80.0
7923,F2,255.75,0.25,127,80.0
7924,C4,255.75,0.125,127,80.0
7925,G#3,255.75,0.125,127,80.0
7926,C4,255.875,0.125,127,80.0
7927,G#3,255.875,0.125,127,80.0
7928,G#3,256.0,0.25,127,80.0
7929,G1,256.0,0.25,127,80.0
7930,G#4,256.0,0.25,127,80.0
7931,G#3,256.0,0.25,127,80.0
7932,G#4,256.0,0.25,127,80.0
7933,G#3,256.0,1.0,127,80.0
7934,G3,256.0,0.25,127,80.0
7935,D3,256.0,0.25,127,80.0
7936,G2,256.0,0.25,127,80.0
7937,E-3,256.0,0.25,127,80.0
7938,C#3,256.0,0.25,127,80.0
7939,B1,256.0,0.25,127,80.0
7940,C4,256.0,0.125,127,80.0
7941,G#3,256.0,0.125,127,80.0
7942,C4,256.125,0.125,127,80.0
7943,G#3,256.125,0.125,127,80.0
7944,D4,256.25,0.25,127,80.0
7945,G#1,256.25,0.25,127,80.0
7946,D5,256.25,0.25,127,80.0
7947,D4,256.25,0.25,127,80.0
7948,D5,256.25,0.25,127,80.0
7949,G#3,256.25,0.25,127,80.0
7950,E-3,256.25,0.25,127,80.0
7951,G#2,256.25,0.25,127,80.0
7952,E-3,256.25,0.5,127,80.0
7953,C#3,256.25,0.5,127,80.0
7954,B1,256.25,0.5,127,80.0
7955,C4,256.25,0.125,127,80.0
7956,G#3,256.25,0.125,127,80.0
7957,C4,256.375,0.125,127,80.0
7958,G#3,256.375,0.125,127,80.0
7959,G4,256.5,0.25,127,80.0
7960,G5,256.5,0.25,127,80.0
7961,G4,256.5,0.25,127,80.0
7962,G5,256.5,0.25,127,80.0
7963,C4,256.5,0.125,127,80.0
7964,G#3,256.5,0.125,127,80.0
7965,C4,256.625,0.125,127,80.0
7966,G#3,256.625,0.125,127,80.0
7967,G#3,256.75,0.25,127,80.0
7968,E-3,256.75,0.5,127,80.0
7969,G#4,256.75,0.25,127,80.0
7970,G#3,256.75,0.25,127,80.0
7971,G#4,256.75,0.25,127,80.0
7972,C4,256.75,0.125,127,80.0
7973,G#3,256.75,0.125,127,80.0
7974,C4,256.875,0.125,127,80.0
7975,G#3,256.875,0.125,127,80.0
7976,C5,257.0,0.25,127,80.0
7977,C6,257.0,0.25,127,80.0
7978,C5,257.0,0.25,127,80.0
7979,C6,257.0,0.25,127,80.0
7980,G#4,257.0,0.5,127,80.0
7981,C4,257.0,0.125,127,80.0
7982,G#3,257.0,0.125,127,80.0
7983,C4,257.125,0.125,127,80.0
7984,G#3,257.125,0.125,127,80.0
7985,D5,257.25,0.25,127,80.0
7986,E-3,257.25,0.5,127,80.0
7987,D6,257.25,0.25,127,80.0
7988,D5,257.25,0.25,127,80.0
7989,D6,257.25,0.25,127,80.0
7990,C4,257.25,0.125,127,80.0
7991,G#3,257.25,0.125,127,80.0
7992,C4,257.375,0.125,127,80.0
7993,G#3,257.375,0.125,127,80.0
7994,G5,257.5,0.25,127,80.0
7995,G6,257.5,0.25,127,80.0
7996,G5,257.5,0.25,127,80.0
7997,G6,257.5,0.25,127,80.0
7998,E-5,257.5,1.0,127,80.0
7999,C4,257.5,0.125,127,80.0
8000,G#3,257.5,0.125,127,80.0
8001,C4,257.625,0.125,127,80.0
8002,G#3,257.625,0.125,127,80.0
8003,G#4,257.75,0.25,127,80.0
8004,E-3,257.75,0.25,127,80.0
8005,G#5,257.75,0.25,127,80.0
8006,G#4,257.75,0.25,127,80.0
8007,G#5,257.75,0.25,127,80.0
8008,C4,257.75,0.125,127,80.0
8009,G#3,257.75,0.125,127,80.0
8010,C4,257.875,31/250,127,80.0
8011,G#3,257.875,31/250,127,80.0
8012,C6,258.0,0.25,127,80.0
8013,C7,258.0,0.25,127,80.0
8014,C6,258.0,0.25,127,80.0
8015,C7,258.0,0.25,127,80.0
8016,E-3,258.0,0.5,127,80.0
8017,D2,258.0,0.5,127,80.0
8018,E-4,258.0,0.125,127,80.0
8019,B-3,258.0,0.125,127,80.0
8020,E-4,258.125,0.125,127,80.0
8021,B-3,258.125,0.125,127,80.0
8022,G#4,258.25,0.25,127,80.0
8023,G#5,258.25,0.25,127,80.0
8024,G#4,258.25,0.25,127,80.0
8025,G#5,258.25,0.25,127,80.0
8026,E-4,258.25,0.125,127,80.0
8027,B-3,258.25,0.125,127,80.0
8028,E-4,258.375,0.125,127,80.0
8029,B-3,258.375,0.125,127,80.0
8030,G5,258.5,0.25,127,80.0
8031,E-3,258.5,0.5,127,80.0
8032,G6,258.5,0.25,127,80.0
8033,G5,258.5,0.25,127,80.0
8034,G6,258.5,0.25,127,80.0
8035,G#5,258.5,0.5,127,80.0
8036,E-4,258.5,0.125,127,80.0
8037,B-3,258.5,0.125,127,80.0
8038,E-4,258.625,0.125,127,80.0
8039,B-3,258.625,0.125,127,80.0
8040,D5,258.75,0.25,127,80.0
8041,D6,258.75,0.25,127,80.0
8042,D5,258.75,0.25,127,80.0
8043,D6,258.75,0.25,127,80.0
8044,E-4,258.75,0.125,127,80.0
8045,B-3,258.75,0.125,127,80.0
8046,E-4,258.875,31/250,127,80.0
8047,B-3,258.875,31/250,127,80.0
8048,C5,259.0,0.25,127,80.0
8049,E-3,259.0,0.25,127,80.0
8050,C6,259.0,0.25,127,80.0
8051,C5,259.0,0.25,127,80.0
8052,C6,259.0,0.25,127,80.0
8053,E-6,259.0,1.0,127,80.0
8054,C4,259.0,0.125,127,80.0
8055,G#3,259.0,0.125,127,80.0
8056,C4,259.125,0.125,127,80.0
8057,G#3,259.125,0.125,127,80.0
8058,G#3,259.25,0.25,127,80.0
8059,B1,259.25,0.25,127,80.0
8060,G#4,259.25,0.25,127,80.0
8061,G#3,259.25,0.25,127,80.0
8062,G#4,259.25,0.25,127,80.0
8063,C4,259.25,0.125,127,80.0
8064,G#3,259.25,0.125,127,80.0
8065,C4,259.375,0.125,127,80.0
8066,G#3,259.375,0.125,127,80.0
8067,G4,259.5,0.25,127,80.0
8068,E-3,259.5,0.25,127,80.0
8069,G5,259.5,0.25,127,80.0
8070,G4,259.5,0.25,127,80.0
8071,G5,259.5,0.25,127,80.0
8072,C4,259.5,0.125,127,80.0
8073,G#3,259.5,0.125,127,80.0
8074,C4,259.625,0.125,127,80.0
8075,G#3,259.625,0.125,127,80.0
8076,D4,259.75,0.25,127,80.0
8077,B1,259.75,0.25,127,80.0
8078,D5,259.75,0.25,127,80.0
8079,D4,259.75,0.25,127,80.0
8080,D5,259.75,0.25,127,80.0
8081,C4,259.75,0.125,127,80.0
8082,G#3,259.75,0.125,127,80.0
8083,C4,259.875,31/250,127,80.0
8084,G#3,259.875,31/250,127,80.0
8085,G#3,260.0,0.25,127,80.0
8086,G#1,260.0,0.25,127,80.0
8087,G#4,260.0,0.25,127,80.0
8088,G#3,260.0,0.25,127,80.0
8089,G#4,260.0,0.25,127,80.0
8090,G#3,260.0,0.25,127,80.0
8091,E-3,260.0,0.25,127,80.0
8092,G#2,260.0,0.25,127,80.0
8093,E-3,260.0,0.25,127,80.0
8094,B1,260.0,0.25,127,80.0
8095,G#3,260.0,0.125,127,80.0
8096,F3,260.0,0.125,127,80.0
8097,G#3,260.125,0.125,127,80.0
8098,F3,260.125,0.125,127,80.0
8099,D4,260.25,0.25,127,80.0
8100,G1,260.25,0.25,127,80.0
8101,B1,260.25,0.25,127,80.0
8102,D5,260.25,0.25,127,80.0
8103,D4,260.25,0.25,127,80.0
8104,D5,260.25,0.25,127,80.0
8105,G3,260.25,0.25,127,80.0
8106,D3,260.25,0.25,127,80.0
8107,G2,260.25,0.25,127,80.0
8108,G#3,260.25,0.125,127,80.0
8109,F3,260.25,0.125,127,80.0
8110,G#3,260.375,0.125,127,80.0
8111,F3,260.375,0.125,127,80.0
8112,G4,260.5,0.25,127,80.0
8113,E-3,260.5,0.5,127,80.0
8114,G5,260.5,0.25,127,80.0
8115,G4,260.5,0.25,127,80.0
8116,G5,260.5,0.25,127,80.0
8117,G#3,260.5,0.5,127,80.0
8118,G#3,260.5,0.125,127,80.0
8119,F3,260.5,0.125,127,80.0
8120,G#3,260.625,0.125,127,80.0
8121,F3,260.625,0.125,127,80.0
8122,G#3,260.75,0.25,127,80.0
8123,G#4,260.75,0.25,127,80.0
8124,G#3,260.75,0.25,127,80.0
8125,G#4,260.75,0.25,127,80.0
8126,G#3,260.75,0.125,127,80.0
8127,F3,260.75,0.125,127,80.0
8128,G#3,260.875,0.125,127,80.0
8129,F3,260.875,0.125,127,80.0
8130,C5,261.0,0.25,127,80.0
8131,E-3,261.0,0.5,127,80.0
8132,C6,261.0,0.25,127,80.0
8133,C5,261.0,0.25,127,80.0
8134,C6,261.0,0.25,127,80.0
8135,G#4,261.0,0.5,127,80.0
8136,G#3,261.0,0.125,127,80.0
8137,F3,261.0,0.125,127,80.0
8138,G#3,261.125,0.125,127,80.0
8139,F3,261.125,0.125,127,80.0
8140,D5,261.25,0.25,127,80.0
8141,D6,261.25,0.25,127,80.0
8142,D5,261.25,0.25,127,80.0
8143,D6,261.25,0.25,127,80.0
8144,G#3,261.25,0.125,127,80.0
8145,F3,261.25,0.125,127,80.0
8146,G#3,261.375,0.125,127,80.0
8147,F3,261.375,0.125,127,80.0
8148,G5,261.5,0.25,127,80.0
8149,E-3,261.5,0.5,127,80.0
8150,G6,261.5,0.25,127,80.0
8151,G5,261.5,0.25,127,80.0
8152,G6,261.5,0.25,127,80.0
8153,E-5,261.5,1.0,127,80.0
8154,G#3,261.5,0.125,127,80.0
8155,F3,261.5,0.125,127,80.0
8156,G#3,261.625,0.125,127,80.0
8157,F3,261.625,0.125,127,80.0
8158,G#4,261.75,0.25,127,80.0
8159,G#5,261.75,0.25,127,80.0
8160,G#4,261.75,0.25,127,80.0
8161,G#5,261.75,0.25,127,80.0
8162,G#3,261.75,0.125,127,80.0
8163,F3,261.75,0.125,127,80.0
8164,G#3,261.875,0.125,127,80.0
8165,F3,261.875,0.125,127,80.0
8166,C6,262.0,0.25,127,80.0
8167,G1,262.0,0.25,127,80.0
8168,C7,262.0,0.25,127,80.0
8169,C6,262.0,0.25,127,80.0
8170,C7,262.0,0.25,127,80.0
8171,G3,262.0,0.25,127,80.0
8172,D3,262.0,0.25,127,80.0
8173,G2,262.0,0.25,127,80.0
8174,E-3,262.0,0.5,127,80.0
8175,D2,262.0,0.5,127,80.0
8176,G#3,262.0,0.125,127,80.0
8177,F3,262.0,0.125,127,80.0
8178,G#3,262.125,0.125,127,80.0
8179,F3,262.125,0.125,127,80.0
8180,G#4,262.25,0.25,127,80.0
8181,G#5,262.25,0.25,127,80.0
8182,G#4,262.25,0.25,127,80.0
8183,G#5,262.25,0.25,127,80.0
8184,G#3,262.25,0.125,127,80.0
8185,F3,262.25,0.125,127,80.0
8186,G#3,262.375,0.125,127,80.0
8187,F3,262.375,0.125,127,80.0
8188,G5,262.5,0.25,127,80.0
8189,E-3,262.5,0.5,127,80.0
8190,G6,262.5,0.25,127,80.0
8191,G5,262.5,0.25,127,80.0
8192,G6,262.5,0.25,127,80.0
8193,G#5,262.5,0.5,127,80.0
8194,G#3,262.5,0.125,127,80.0
8195,F3,262.5,0.125,127,80.0
8196,G#3,262.625,0.125,127,80.0
8197,F3,262.625,0.125,127,80.0
8198,D5,262.75,0.25,127,80.0
8199,D6,262.75,0.25,127,80.0
8200,D5,262.75,0.25,127,80.0
8201,D6,262.75,0.25,127,80.0
8202,G#3,262.75,0.125,127,80.0
8203,F3,262.75,0.125,127,80.0
8204,G#3,262.875,0.125,127,80.0
8205,F3,262.875,0.125,127,80.0
8206,C5,263.0,0.25,127,80.0
8207,G#1,263.0,0.25,127,80.0
8208,E-3,263.0,0.25,127,80.0
8209,C6,263.0,0.25,127,80.0
8210,C5,263.0,0.25,127,80.0
8211,C6,263.0,0.25,127,80.0
8212,E-6,263.0,0.5,127,80.0
8213,G#3,263.0,0.25,127,80.0
8214,E-3,263.0,0.25,127,80.0
8215,G#2,263.0,0.25,127,80.0
8216,G#3,263.0,0.125,127,80.0
8217,F3,263.0,0.125,127,80.0
8218,G#3,263.125,0.125,127,80.0
8219,F3,263.125,0.125,127,80.0
8220,G#3,263.25,0.25,127,80.0
8221,D2,263.25,0.25,127,80.0
8222,G#4,263.25,0.25,127,80.0
8223,G#3,263.25,0.25,127,80.0
8224,G#4,263.25,0.25,127,80.0
8225,G#3,263.25,0.125,127,80.0
8226,F3,263.25,0.125,127,80.0
8227,G#3,263.375,0.125,127,80.0
8228,F3,263.375,0.125,127,80.0
8229,G4,263.5,0.25,127,80.0
8230,E-3,263.5,0.25,127,80.0
8231,G5,263.5,0.25,127,80.0
8232,G4,263.5,0.25,127,80.0
8233,G5,263.5,0.25,127,80.0
8234,E-5,263.5,0.5,127,80.0
8235,G#3,263.5,0.125,127,80.0
8236,F3,263.5,0.125,127,80.0
8237,G#3,263.625,0.125,127,80.0
8238,F3,263.625,0.125,127,80.0
8239,D4,263.75,0.25,127,80.0
8240,B1,263.75,0.25,127,80.0
8241,D5,263.75,0.25,127,80.0
8242,D4,263.75,0.25,127,80.0
8243,D5,263.75,0.25,127,80.0
8244,G#3,263.75,0.125,127,80.0
8245,F3,263.75,0.125,127,80.0
8246,G#3,263.875,0.125,127,80.0
8247,F3,263.875,0.125,127,80.0
8248,F3,264.0,0.25,127,80.0
8249,F4,264.0,0.25,127,80.0
8250,F3,264.0,0.25,127,80.0
8251,F4,264.0,0.25,127,80.0
8252,F3,264.0,0.5,127,80.0
8253,D3,264.0,4.0,127,80.0
8254,A2,264.0,4.0,127,80.0
8255,D2,264.0,4.0,127,80.0
8256,D1,264.0,4.0,127,80.0
8257,F3,264.0,0.5,127,80.0
8258,B1,264.0,0.5,127,80.0
8259,G#3,264.0,0.125,127,80.0
8260,F3,264.0,0.125,127,80.0
8261,G#3,264.125,0.125,127,80.0
8262,F3,264.125,0.125,127,80.0
8263,C4,264.25,0.25,127,80.0
8264,C5,264.25,0.25,127,80.0
8265,C4,264.25,0.25,127,80.0
8266,C5,264.25,0.25,127,80.0
8267,G#3,264.25,0.125,127,80.0
8268,F3,264.25,0.125,127,80.0
8269,G#3,264.375,0.125,127,80.0
8270,F3,264.375,0.125,127,80.0
8271,D4,264.5,0.25,127,80.0
8272,F3,264.5,0.5,127,80.0
8273,D5,264.5,0.25,127,80.0
8274,D4,264.5,0.25,127,80.0
8275,D5,264.5,0.25,127,80.0
8276,F4,264.5,0.5,127,80.0
8277,G#3,264.5,0.125,127,80.0
8278,F3,264.5,0.125,127,80.0
8279,G#3,264.625,0.125,127,80.0
8280,F3,264.625,0.125,127,80.0
8281,E-4,264.75,0.25,127,80.0
8282,E-5,264.75,0.25,127,80.0
8283,E-4,264.75,0.25,127,80.0
8284,E-5,264.75,0.25,127,80.0
8285,G#3,264.75,0.125,127,80.0
8286,F3,264.75,0.125,127,80.0
8287,G#3,264.875,0.125,127,80.0
8288,F3,264.875,0.125,127,80.0
8289,F3,265.0,0.25,127,80.0
8290,F3,265.0,0.5,127,80.0
8291,F4,265.0,0.25,127,80.0
8292,F3,265.0,0.25,127,80.0
8293,F4,265.0,0.25,127,80.0
8294,G#4,265.0,0.5,127,80.0
8295,G#3,265.0,0.125,127,80.0
8296,F3,265.0,0.125,127,80.0
8297,G#3,265.125,0.125,127,80.0
8298,F3,265.125,0.125,127,80.0
8299,C5,265.25,0.25,127,80.0
8300,C6,265.25,0.25,127,80.0
8301,C5,265.25,0.25,127,80.0
8302,C6,265.25,0.25,127,80.0
8303,G#3,265.25,0.125,127,80.0
8304,F3,265.25,0.125,127,80.0
8305,G#3,265.375,0.125,127,80.0
8306,F3,265.375,0.125,127,80.0
8307,D5,265.5,0.25,127,80.0
8308,F3,265.5,0.25,127,80.0
8309,D6,265.5,0.25,127,80.0
8310,D5,265.5,0.25,127,80.0
8311,D6,265.5,0.25,127,80.0
8312,C5,265.5,1.0,127,80.0
8313,G#3,265.5,0.125,127,80.0
8314,F3,265.5,0.125,127,80.0
8315,G#3,265.625,0.125,127,80.0
8316,F3,265.625,0.125,127,80.0
8317,E-5,265.75,0.25,127,80.0
8318,B1,265.75,0.25,127,80.0
8319,E-6,265.75,0.25,127,80.0
8320,E-5,265.75,0.25,127,80.0
8321,E-6,265.75,0.25,127,80.0
8322,G#3,265.75,0.125,127,80.0
8323,F3,265.75,0.125,127,80.0
8324,G#3,265.875,31/250,127,80.0
8325,F3,265.875,31/250,127,80.0
8326,F4,266.0,0.25,127,80.0
8327,F5,266.0,0.25,127,80.0
8328,F4,266.0,0.25,127,80.0
8329,F5,266.0,0.25,127,80.0
8330,F3,266.0,0.5,127,80.0
8331,D2,266.0,0.5,127,80.0
8332,G3,266.0,0.125,127,80.0
8333,E-3,266.0,0.125,127,80.0
8334,G3,266.125,0.125,127,80.0
8335,E-3,266.125,0.125,127,80.0
8336,C6,266.25,0.25,127,80.0
8337,C7,266.25,0.25,127,80.0
8338,C6,266.25,0.25,127,80.0
8339,C7,266.25,0.25,127,80.0
8340,G3,266.25,0.125,127,80.0
8341,E-3,266.25,0.125,127,80.0
8342,G3,266.375,0.125,127,80.0
8343,E-3,266.375,0.125,127,80.0
8344,F4,266.5,0.25,127,80.0
8345,F3,266.5,0.5,127,80.0
8346,F5,266.5,0.25,127,80.0
8347,F4,266.5,0.25,127,80.0
8348,F5,266.5,0.25,127,80.0
8349,F5,266.5,0.5,127,80.0
8350,G3,266.5,0.125,127,80.0
8351,E-3,266.5,0.125,127,80.0
8352,G3,266.625,0.125,127,80.0
8353,E-3,266.625,0.125,127,80.0
8354,E-5,266.75,0.25,127,80.0
8355,E-6,266.75,0.25,127,80.0
8356,E-5,266.75,0.25,127,80.0
8357,E-6,266.75,0.25,127,80.0
8358,G3,266.75,0.125,127,80.0
8359,E-3,266.75,0.125,127,80.0
8360,G3,266.875,31/250,127,80.0
8361,E-3,266.875,31/250,127,80.0
8362,D5,267.0,0.25,127,80.0
8363,F3,267.0,0.25,127,80.0
8364,D6,267.0,0.25,127,80.0
8365,D5,267.0,0.25,127,80.0
8366,D6,267.0,0.25,127,80.0
8367,C6,267.0,1.0,127,80.0
8368,G#3,267.0,0.125,127,80.0
8369,F3,267.0,0.125,127,80.0
8370,G#3,267.125,0.125,127,80.0
8371,F3,267.125,0.125,127,80.0
8372,C5,267.25,0.25,127,80.0
8373,E-3,267.25,0.25,127,80.0
8374,C6,267.25,0.25,127,80.0
8375,C5,267.25,0.25,127,80.0
8376,C6,267.25,0.25,127,80.0
8377,G#3,267.25,0.125,127,80.0
8378,F3,267.25,0.125,127,80.0
8379,G#3,267.375,0.125,127,80.0
8380,F3,267.375,0.125,127,80.0
8381,F3,267.5,0.25,127,80.0
8382,F3,267.5,0.25,127,80.0
8383,F4,267.5,0.25,127,80.0
8384,F3,267.5,0.25,127,80.0
8385,F4,267.5,0.25,127,80.0
8386,G#3,267.5,0.125,127,80.0
8387,F3,267.5,0.125,127,80.0
8388,G#3,267.625,0.125,127,80.0
8389,F3,267.625,0.125,127,80.0
8390,E-4,267.75,0.25,127,80.0
8391,E-3,267.75,0.25,127,80.0
8392,E-5,267.75,0.25,127,80.0
8393,E-4,267.75,0.25,127,80.0
8394,E-5,267.75,0.25,127,80.0
8395,G#3,267.75,0.125,127,80.0
8396,F3,267.75,0.125,127,80.0
8397,G#3,267.875,31/250,127,80.0
8398,F3,267.875,31/250,127,80.0
8399,D4,268.0,0.25,127,80.0
8400,D2,268.0,0.25,127,80.0
8401,D5,268.0,0.25,127,80.0
8402,D4,268.0,0.25,127,80.0
8403,D5,268.0,0.25,127,80.0
8404,F3,268.0,0.5,127,80.0
8405,D3,268.0,0.25,127,80.0
8406,A2,268.0,0.25,127,80.0
8407,E-3,268.0,0.25,127,80.0
8408,B1,268.0,0.25,127,80.0
8409,C4,268.0,0.125,127,80.0
8410,G#3,268.0,0.125,127,80.0
8411,C4,268.125,0.125,127,80.0
8412,G#3,268.125,0.125,127,80.0
8413,C4,268.25,0.25,127,80.0
8414,E-2,268.25,0.25,127,80.0
8415,E-3,268.25,0.25,127,80.0
8416,C5,268.25,0.25,127,80.0
8417,C4,268.25,0.25,127,80.0
8418,C5,268.25,0.25,127,80.0
8419,E-3,268.25,0.25,127,80.0
8420,B-2,268.25,0.25,127,80.0
8421,C4,268.25,0.125,127,80.0
8422,G#3,268.25,0.125,127,80.0
8423,C4,268.375,0.125,127,80.0
8424,G#3,268.375,0.125,127,80.0
8425,F3,268.5,0.25,127,80.0
8426,F3,268.5,0.25,127,80.0
8427,F4,268.5,0.25,127,80.0
8428,F3,268.5,0.25,127,80.0
8429,F4,268.5,0.25,127,80.0
8430,F4,268.5,0.5,127,80.0
8431,C4,268.5,0.125,127,80.0
8432,G#3,268.5,0.125,127,80.0
8433,C4,268.625,0.125,127,80.0
8434,G#3,268.625,0.125,127,80.0
8435,C4,268.75,0.25,127,80.0
8436,B1,268.75,0.25,127,80.0
8437,C5,268.75,0.25,127,80.0
8438,C4,268.75,0.25,127,80.0
8439,C5,268.75,0.25,127,80.0
8440,C4,268.75,0.125,127,80.0
8441,G#3,268.75,0.125,127,80.0
8442,C4,268.875,0.125,127,80.0
8443,G#3,268.875,0.125,127,80.0
8444,D4,269.0,0.25,127,80.0
8445,E-3,269.0,0.25,127,80.0
8446,D5,269.0,0.25,127,80.0
8447,D4,269.0,0.25,127,80.0
8448,D5,269.0,0.25,127,80.0
8449,G#4,269.0,0.5,127,80.0
8450,C4,269.0,0.125,127,80.0
8451,G#3,269.0,0.125,127,80.0
8452,C4,269.125,0.125,127,80.0
8453,G#3,269.125,0.125,127,80.0
8454,E-4,269.25,0.25,127,80.0
8455,E-3,269.25,0.25,127,80.0
8456,E-5,269.25,0.25,127,80.0
8457,E-4,269.25,0.25,127,80.0
8458,E-5,269.25,0.25,127,80.0
8459,C4,269.25,0.125,127,80.0
8460,G#3,269.25,0.125,127,80.0
8461,C4,269.375,0.125,127,80.0
8462,G#3,269.375,0.125,127,80.0
8463,F3,269.5,0.25,127,80.0
8464,F4,269.5,0.25,127,80.0
8465,F3,269.5,0.25,127,80.0
8466,F4,269.5,0.25,127,80.0
8467,C5,269.5,1.0,127,80.0
8468,E-3,269.5,0.5,127,80.0
8469,B1,269.5,0.5,127,80.0
8470,C4,269.5,0.125,127,80.0
8471,G#3,269.5,0.125,127,80.0
8472,C4,269.625,0.125,127,80.0
8473,G#3,269.625,0.125,127,80.0
8474,C5,269.75,0.25,127,80.0
8475,C6,269.75,0.25,127,80.0
8476,C5,269.75,0.25,127,80.0
8477,C6,269.75,0.25,127,80.0
8478,C4,269.75,0.125,127,80.0
8479,G#3,269.75,0.125,127,80.0
8480,C4,269.875,0.125,127,80.0
8481,G#3,269.875,0.125,127,80.0
8482,D5,270.0,0.25,127,80.0
8483,E-2,270.0,0.25,127,80.0
8484,E-3,270.0,0.25,127,80.0
8485,D6,270.0,0.25,127,80.0
8486,D5,270.0,0.25,127,80.0
8487,D6,270.0,0.25,127,80.0
8488,E-3,270.0,0.25,127,80.0
8489,B-2,270.0,0.25,127,80.0
8490,C4,270.0,0.125,127,80.0
8491,G#3,270.0,0.125,127,80.0
8492,C4,270.125,0.125,127,80.0
8493,G#3,270.125,0.125,127,80.0
8494,E-5,270.25,0.25,127,80.0
8495,D2,270.25,0.25,127,80.0
8496,D2,270.25,0.25,127,80.0
8497,E-6,270.25,0.25,127,80.0
8498,E-5,270.25,0.25,127,80.0
8499,E-6,270.25,0.25,127,80.0
8500,D3,270.25,0.25,127,80.0
8501,A2,270.25,0.25,127,80.0
8502,C4,270.25,0.125,127,80.0
8503,G#3,270.25,0.125,127,80.0
8504,C4,270.375,0.125,127,80.0
8505,G#3,270.375,0.125,127,80.0
8506,F4,270.5,0.25,127,80.0
8507,E-3,270.5,0.25,127,80.0
8508,F5,270.5,0.25,127,80.0
8509,F4,270.5,0.25,127,80.0
8510,F5,270.5,0.25,127,80.0
8511,F5,270.5,0.5,127,80.0
8512,C4,270.5,0.125,127,80.0
8513,G#3,270.5,0.125,127,80.0
8514,C4,270.625,0.125,127,80.0
8515,G#3,270.625,0.125,127,80.0
8516,C6,270.75,0.25,127,80.0
8517,B2,270.75,0.25,127,80.0
8518,C7,270.75,0.25,127,80.0
8519,C6,270.75,0.25,127,80.0
8520,C7,270.75,0.25,127,80.0
8521,C4,270.75,0.125,127,80.0
8522,G#3,270.75,0.125,127,80.0
8523,C4,270.875,0.125,127,80.0
8524,G#3,270.875,0.125,127,80.0
8525,F4,271.0,0.25,127,80.0
8526,D2,271.0,0.25,127,80.0
8527,E-3,271.0,0.25,127,80.0
8528,F5,271.0,0.25,127,80.0
8529,F4,271.0,0.25,127,80.0
8530,F5,271.0,0.25,127,80.0
8531,C6,271.0,1.0,127,80.0
8532,D3,271.0,0.25,127,80.0
8533,A2,271.0,0.25,127,80.0
8534,C4,271.0,0.125,127,80.0
8535,G#3,271.0,0.125,127,80.0
8536,C4,271.125,0.125,127,80.0
8537,G#3,271.125,0.125,127,80.0
8538,E-5,271.25,0.25,127,80.0
8539,E-2,271.25,0.25,127,80.0
8540,E-6,271.25,0.25,127,80.0
8541,E-5,271.25,0.25,127,80.0
8542,E-6,271.25,0.25,127,80.0
8543,E-3,271.25,0.25,127,80.0
8544,B-2,271.25,0.25,127,80.0
8545,A2,271.25,0.25,127,80.0
8546,G2,271.25,0.25,127,80.0
8547,C4,271.25,0.125,127,80.0
8548,G#3,271.25,0.125,127,80.0
8549,C4,271.375,0.125,127,80.0
8550,G#3,271.375,0.125,127,80.0
8551,D5,271.5,0.25,127,80.0
8552,E-3,271.5,0.25,127,80.0
8553,D6,271.5,0.25,127,80.0
8554,D5,271.5,0.25,127,80.0
8555,D6,271.5,0.25,127,80.0
8556,C4,271.5,0.125,127,80.0
8557,G#3,271.5,0.125,127,80.0
8558,C4,271.625,0.125,127,80.0
8559,G#3,271.625,0.125,127,80.0
8560,C5,271.75,0.25,127,80.0
8561,F2,271.75,0.25,127,80.0
8562,C6,271.75,0.25,127,80.0
8563,C5,271.75,0.25,127,80.0
8564,C6,271.75,0.25,127,80.0
8565,C4,271.75,0.125,127,80.0
8566,G#3,271.75,0.125,127,80.0
8567,C4,271.875,0.125,127,80.0
8568,G#3,271.875,0.125,127,80.0
8569,G#3,272.0,0.25,127,80.0
8570,G1,272.0,0.25,127,80.0
8571,G#4,272.0,0.25,127,80.0
8572,G#3,272.0,0.25,127,80.0
8573,G#4,272.0,0.25,127,80.0
8574,G#3,272.0,0.5,127,80.0
8575,G3,272.0,0.25,127,80.0
8576,D3,272.0,0.25,127,80.0
8577,G2,272.0,0.25,127,80.0
8578,B3,272.0,0.25,127,80.0
8579,A3,272.0,0.25,127,80.0
8580,B1,272.0,0.25,127,80.0
8581,C4,272.0,0.125,127,80.0
8582,G#3,272.0,0.125,127,80.0
8583,C4,272.125,0.125,127,80.0
8584,G#3,272.125,0.125,127,80.0
8585,D4,272.25,0.25,127,80.0
8586,G#1,272.25,0.25,127,80.0
8587,D5,272.25,0.25,127,80.0
8588,D4,272.25,0.25,127,80.0
8589,D5,272.25,0.25,127,80.0
8590,G#3,272.25,0.25,127,80.0
8591,E-3,272.25,0.25,127,80.0
8592,G#2,272.25,0.25,127,80.0
8593,B3,272.25,0.5,127,80.0
8594,A3,272.25,0.5,127,80.0
8595,B1,272.25,0.5,127,80.0
8596,C4,272.25,0.125,127,80.0
8597,G#3,272.25,0.125,127,80.0
8598,C4,272.375,0.125,127,80.0
8599,G#3,272.375,0.125,127,80.0
8600,G4,272.5,0.25,127,80.0
8601,G5,272.5,0.25,127,80.0
8602,G4,272.5,0.25,127,80.0
8603,G5,272.5,0.25,127,80.0
8604,G#4,272.5,0.5,127,80.0
8605,C4,272.5,0.125,127,80.0
8606,G#3,272.5,0.125,127,80.0
8607,C4,272.625,0.125,127,80.0
8608,G#3,272.625,0.125,127,80.0
8609,G#3,272.75,0.25,127,80.0
8610,B3,272.75,0.5,127,80.0
8611,G#4,272.75,0.25,127,80.0
8612,G#3,272.75,0.25,127,80.0
8613,G#4,272.75,0.25,127,80.0
8614,C4,272.75,0.125,127,80.0
8615,G#3,272.75,0.125,127,80.0
8616,C4,272.875,0.125,127,80.0
8617,G#3,272.875,0.125,127,80.0
8618,C5,273.0,0.25,127,80.0
8619,C6,273.0,0.25,127,80.0
8620,C5,273.0,0.25,127,80.0
8621,C6,273.0,0.25,127,80.0
8622,E-5,273.0,0.5,127,80.0
8623,C4,273.0,0.125,127,80.0
8624,G#3,273.0,0.125,127,80.0
8625,C4,273.125,0.125,127,80.0
8626,G#3,273.125,0.125,127,80.0
8627,D5,273.25,0.25,127,80.0
8628,B3,273.25,0.5,127,80.0
8629,D6,273.25,0.25,127,80.0
8630,D5,273.25,0.25,127,80.0
8631,D6,273.25,0.25,127,80.0
8632,C4,273.25,0.125,127,80.0
8633,G#3,273.25,0.125,127,80.0
8634,C4,273.375,0.125,127,80.0
8635,G#3,273.375,0.125,127,80.0
8636,G5,273.5,0.25,127,80.0
8637,G6,273.5,0.25,127,80.0
8638,G5,273.5,0.25,127,80.0
8639,G6,273.5,0.25,127,80.0
8640,G#5,273.5,1.0,127,80.0
8641,C4,273.5,0.125,127,80.0
8642,G#3,273.5,0.125,127,80.0
8643,C4,273.625,0.125,127,80.0
8644,G#3,273.625,0.125,127,80.0
8645,G#4,273.75,0.25,127,80.0
8646,B3,273.75,0.25,127,80.0
8647,G#5,273.75,0.25,127,80.0
8648,G#4,273.75,0.25,127,80.0
8649,G#5,273.75,0.25,127,80.0
8650,C4,273.75,0.125,127,80.0
8651,G#3,273.75,0.125,127,80.0
8652,C4,273.875,31/250,127,80.0
8653,G#3,273.875,31/250,127,80.0
8654,C6,274.0,0.25,127,80.0
8655,C7,274.0,0.25,127,80.0
8656,C6,274.0,0.25,127,80.0
8657,C7,274.0,0.25,127,80.0
8658,B3,274.0,0.5,127,80.0
8659,D2,274.0,0.5,127,80.0
8660,E-4,274.0,0.125,127,80.0
8661,B-3,274.0,0.125,127,80.0
8662,E-4,274.125,0.125,127,80.0
8663,B-3,274.125,0.125,127,80.0
8664,G#4,274.25,0.25,127,80.0
8665,G#5,274.25,0.25,127,80.0
8666,G#4,274.25,0.25,127,80.0
8667,G#5,274.25,0.25,127,80.0
8668,E-4,274.25,0.125,127,80.0
8669,B-3,274.25,0.125,127,80.0
8670,E-4,274.375,0.125,127,80.0
8671,B-3,274.375,0.125,127,80.0
8672,G5,274.5,0.25,127,80.0
8673,B3,274.5,0.5,127,80.0
8674,G6,274.5,0.25,127,80.0
8675,G5,274.5,0.25,127,80.0
8676,G6,274.5,0.25,127,80.0
8677,E-6,274.5,1.0,127,80.0
8678,E-4,274.5,0.125,127,80.0
8679,B-3,274.5,0.125,127,80.0
8680,E-4,274.625,0.125,127,80.0
8681,B-3,274.625,0.125,127,80.0
8682,D5,274.75,0.25,127,80.0
8683,D6,274.75,0.25,127,80.0
8684,D5,274.75,0.25,127,80.0
8685,D6,274.75,0.25,127,80.0
8686,E-4,274.75,0.125,127,80.0
8687,B-3,274.75,0.125,127,80.0
8688,E-4,274.875,31/250,127,80.0
8689,B-3,274.875,31/250,127,80.0
8690,C5,275.0,0.25,127,80.0
8691,B3,275.0,0.25,127,80.0
8692,C6,275.0,0.25,127,80.0
8693,C5,275.0,0.25,127,80.0
8694,C6,275.0,0.25,127,80.0
8695,C4,275.0,0.125,127,80.0
8696,G#3,275.0,0.125,127,80.0
8697,C4,275.125,0.125,127,80.0
8698,G#3,275.125,0.125,127,80.0
8699,G#3,275.25,0.25,127,80.0
8700,B1,275.25,0.25,127,80.0
8701,G#4,275.25,0.25,127,80.0
8702,G#3,275.25,0.25,127,80.0
8703,G#4,275.25,0.25,127,80.0
8704,C4,275.25,0.125,127,80.0
8705,G#3,275.25,0.125,127,80.0
8706,C4,275.375,0.125,127,80.0
8707,G#3,275.375,0.125,127,80.0
8708,G4,275.5,0.25,127,80.0
8709,B3,275.5,0.25,127,80.0
8710,G5,275.5,0.25,127,80.0
8711,G4,275.5,0.25,127,80.0
8712,G5,275.5,0.25,127,80.0
8713,D6,275.5,0.5,127,80.0
8714,C4,275.5,0.125,127,80.0
8715,G#3,275.5,0.125,127,80.0
8716,C4,275.625,0.125,127,80.0
8717,G#3,275.625,0.125,127,80.0
8718,D4,275.75,0.25,127,80.0
8719,B1,275.75,0.25,127,80.0
8720,D5,275.75,0.25,127,80.0
8721,D4,275.75,0.25,127,80.0
8722,D5,275.75,0.25,127,80.0
8723,C4,275.75,0.125,127,80.0
8724,G#3,275.75,0.125,127,80.0
8725,C4,275.875,31/250,127,80.0
8726,G#3,275.875,31/250,127,80.0
8727,G#3,276.0,0.25,127,80.0
8728,G#1,276.0,0.25,127,80.0
8729,G#4,276.0,0.25,127,80.0
8730,G#3,276.0,0.25,127,80.0
8731,G#4,276.0,0.25,127,80.0
8732,G#3,276.0,0.5,127,80.0
8733,G#3,276.0,0.25,127,80.0
8734,E-3,276.0,0.25,127,80.0
8735,G#2,276.0,0.25,127,80.0
8736,B3,276.0,0.25,127,80.0
8737,B1,276.0,0.25,127,80.0
8738,G#3,276.0,0.125,127,80.0
8739,F3,276.0,0.125,127,80.0
8740,G#3,276.125,0.125,127,80.0
8741,F3,276.125,0.125,127,80.0
8742,D4,276.25,0.25,127,80.0
8743,G1,276.25,0.25,127,80.0
8744,B3,276.25,0.25,127,80.0
8745,D5,276.25,0.25,127,80.0
8746,D4,276.25,0.25,127,80.0
8747,D5,276.25,0.25,127,80.0
8748,G3,276.25,0.25,127,80.0
8749,D3,276.25,0.25,127,80.0
8750,G2,276.25,0.25,127,80.0
8751,G#3,276.25,0.125,127,80.0
8752,F3,276.25,0.125,127,80.0
8753,G#3,276.375,0.125,127,80.0
8754,F3,276.375,0.125,127,80.0
8755,G4,276.5,0.25,127,80.0
8756,B3,276.5,0.5,127,80.0
8757,G5,276.5,0.25,127,80.0
8758,G4,276.5,0.25,127,80.0
8759,G5,276.5,0.25,127,80.0
8760,G#4,276.5,0.5,127,80.0
8761,G#3,276.5,0.125,127,80.0
8762,F3,276.5,0.125,127,80.0
8763,G#3,276.625,0.125,127,80.0
8764,F3,276.625,0.125,127,80.0
8765,G#3,276.75,0.25,127,80.0
8766,G#4,276.75,0.25,127,80.0
8767,G#3,276.75,0.25,127,80.0
8768,G#4,276.75,0.25,127,80.0
8769,G#3,276.75,0.125,127,80.0
8770,F3,276.75,0.125,127,80.0
8771,G#3,276.875,0.125,127,80.0
8772,F3,276.875,0.125,127,80.0
8773,C5,277.0,0.25,127,80.0
8774,B3,277.0,0.5,127,80.0
8775,C6,277.0,0.25,127,80.0
8776,C5,277.0,0.25,127,80.0
8777,C6,277.0,0.25,127,80.0
8778,E-5,277.0,0.5,127,80.0
8779,G#3,277.0,0.125,127,80.0
8780,F3,277.0,0.125,127,80.0
8781,G#3,277.125,0.125,127,80.0
8782,F3,277.125,0.125,127,80.0
8783,D5,277.25,0.25,127,80.0
8784,D6,277.25,0.25,127,80.0
8785,D5,277.25,0.25,127,80.0
8786,D6,277.25,0.25,127,80.0
8787,G#3,277.25,0.125,127,80.0
8788,F3,277.25,0.125,127,80.0
8789,G#3,277.375,0.125,127,80.0
8790,F3,277.375,0.125,127,80.0
8791,G5,277.5,0.25,127,80.0
8792,B3,277.5,0.25,127,80.0
8793,G6,277.5,0.25,127,80.0
8794,G5,277.5,0.25,127,80.0
8795,G6,277.5,0.25,127,80.0
8796,B-5,277.5,0.5,127,80.0
8797,G#3,277.5,0.125,127,80.0
8798,F3,277.5,0.125,127,80.0
8799,G#3,277.625,0.125,127,80.0
8800,F3,277.625,0.125,127,80.0
8801,G#4,277.75,0.25,127,80.0
8802,B1,277.75,0.25,127,80.0
8803,G#5,277.75,0.25,127,80.0
8804,G#4,277.75,0.25,127,80.0
8805,G#5,277.75,0.25,127,80.0
8806,G#3,277.75,0.125,127,80.0
8807,F3,277.75,0.125,127,80.0
8808,G#3,277.875,0.125,127,80.0
8809,F3,277.875,0.125,127,80.0
8810,C6,278.0,0.25,127,80.0
8811,G1,278.0,0.25,127,80.0
8812,C7,278.0,0.25,127,80.0
8813,C6,278.0,0.25,127,80.0
8814,C7,278.0,0.25,127,80.0
8815,E-6,278.0,0.5,127,80.0
8816,G3,278.0,0.25,127,80.0
8817,D3,278.0,0.25,127,80.0
8818,G2,278.0,0.25,127,80.0
8819,B3,278.0,0.5,127,80.0
8820,D2,278.0,0.5,127,80.0
8821,G#3,278.0,0.125,127,80.0
8822,F3,278.0,0.125,127,80.0
8823,G#3,278.125,0.125,127,80.0
8824,F3,278.125,0.125,127,80.0
8825,G#4,278.25,0.25,127,80.0
8826,G#5,278.25,0.25,127,80.0
8827,G#4,278.25,0.25,127,80.0
8828,G#5,278.25,0.25,127,80.0
8829,G#3,278.25,0.125,127,80.0
8830,F3,278.25,0.125,127,80.0
8831,G#3,278.375,0.125,127,80.0
8832,F3,278.375,0.125,127,80.0
8833,G5,278.5,0.25,127,80.0
8834,B3,278.5,0.5,127,80.0
8835,G6,278.5,0.25,127,80.0
8836,G5,278.5,0.25,127,80.0
8837,G6,278.5,0.25,127,80.0
8838,B-5,278.5,0.5,127,80.0
8839,G#3,278.5,0.125,127,80.0
8840,F3,278.5,0.125,127,80.0
8841,G#3,278.625,0.125,127,80.0
8842,F3,278.625,0.125,127,80.0
8843,D5,278.75,0.25,127,80.0
8844,D6,278.75,0.25,127,80.0
8845,D5,278.75,0.25,127,80.0
8846,D6,278.75,0.25,127,80.0
8847,G#3,278.75,0.125,127,80.0
8848,F3,278.75,0.125,127,80.0
8849,G#3,278.875,0.125,127,80.0
8850,F3,278.875,0.125,127,80.0
8851,C5,279.0,0.25,127,80.0
8852,G#1,279.0,0.25,127,80.0
8853,B3,279.0,0.25,127,80.0
8854,C6,279.0,0.25,127,80.0
8855,C5,279.0,0.25,127,80.0
8856,C6,279.0,0.25,127,80.0
8857,E-5,279.0,0.5,127,80.0
8858,G#3,279.0,0.25,127,80.0
8859,E-3,279.0,0.25,127,80.0
8860,G#2,279.0,0.25,127,80.0
8861,G#3,279.0,0.125,127,80.0
8862,F3,279.0,0.125,127,80.0
8863,G#3,279.125,0.125,127,80.0
8864,F3,279.125,0.125,127,80.0
8865,G#3,279.25,0.25,127,80.0
8866,G2,279.25,0.25,127,80.0
8867,G#4,279.25,0.25,127,80.0
8868,G#3,279.25,0.25,127,80.0
8869,G#4,279.25,0.25,127,80.0
8870,G#3,279.25,0.125,127,80.0
8871,F3,279.25,0.125,127,80.0
8872,G#3,279.375,0.125,127,80.0
8873,F3,279.375,0.125,127,80.0
8874,G4,279.5,0.25,127,80.0
8875,B3,279.5,0.25,127,80.0
8876,G5,279.5,0.25,127,80.0
8877,G4,279.5,0.25,127,80.0
8878,G5,279.5,0.25,127,80.0
8879,B-5,279.5,0.5,127,80.0
8880,G#3,279.5,0.125,127,80.0
8881,F3,279.5,0.125,127,80.0
8882,G#3,279.625,0.125,127,80.0
8883,F3,279.625,0.125,127,80.0
8884,D4,279.75,0.25,127,80.0
8885,F2,279.75,0.25,127,80.0
8886,D5,279.75,0.25,127,80.0
8887,D4,279.75,0.25,127,80.0
8888,D5,279.75,0.25,127,80.0
8889,G#3,279.75,0.125,127,80.0
8890,F3,279.75,0.125,127,80.0
8891,G#3,279.875,0.125,127,80.0
8892,F3,279.875,0.125,127,80.0
8893,F3,280.0,0.25,127,80.0
8894,F4,280.0,0.25,127,80.0
8895,F3,280.0,0.25,127,80.0
8896,F4,280.0,0.25,127,80.0
8897,F3,280.0,0.5,127,80.0
8898,D3,280.0,4.0,127,80.0
8899,A2,280.0,4.0,127,80.0
8900,D2,280.0,4.0,127,80.0
8901,D1,280.0,4.0,127,80.0
8902,B3,280.0,0.5,127,80.0
8903,A3,280.0,0.5,127,80.0
8904,B1,280.0,0.5,127,80.0
8905,G#3,280.0,0.125,127,80.0
8906,F3,280.0,0.125,127,80.0
8907,G#3,280.125,0.125,127,80.0
8908,F3,280.125,0.125,127,80.0
8909,C4,280.25,0.25,127,80.0
8910,C5,280.25,0.25,127,80.0
8911,C4,280.25,0.25,127,80.0
8912,C5,280.25,0.25,127,80.0
8913,G#3,280.25,0.125,127,80.0
8914,F3,280.25,0.125,127,80.0
8915,G#3,280.375,0.125,127,80.0
8916,F3,280.375,0.125,127,80.0
8917,D4,280.5,0.25,127,80.0
8918,B3,280.5,0.5,127,80.0
8919,D5,280.5,0.25,127,80.0
8920,D4,280.5,0.25,127,80.0
8921,D5,280.5,0.25,127,80.0
8922,F4,280.5,0.5,127,80.0
8923,G#3,280.5,0.125,127,80.0
8924,F3,280.5,0.125,127,80.0
8925,G#3,280.625,0.125,127,80.0
8926,F3,280.625,0.125,127,80.0
8927,E-4,280.75,0.25,127,80.0
8928,E-5,280.75,0.25,127,80.0
8929,E-4,280.75,0.25,127,80.0
8930,E-5,280.75,0.25,127,80.0
8931,G#3,280.75,0.125,127,80.0
8932,F3,280.75,0.125,127,80.0
8933,G#3,280.875,0.125,127,80.0
8934,F3,280.875,0.125,127,80.0
8935,F3,281.0,0.25,127,80.0
8936,B3,281.0,0.5,127,80.0
8937,F4,281.0,0.25,127,80.0
8938,F3,281.0,0.25,127,80.0
8939,F4,281.0,0.25,127,80.0
8940,B-4,281.0,0.5,127,80.0
8941,G#3,281.0,0.125,127,80.0
8942,F3,281.0,0.125,127,80.0
8943,G#3,281.125,0.125,127,80.0
8944,F3,281.125,0.125,127,80.0
8945,C5,281.25,0.25,127,80.0
8946,C6,281.25,0.25,127,80.0
8947,C5,281.25,0.25,127,80.0
8948,C6,281.25,0.25,127,80.0
8949,G#3,281.25,0.125,127,80.0
8950,F3,281.25,0.125,127,80.0
8951,G#3,281.375,0.125,127,80.0
8952,F3,281.375,0.125,127,80.0
8953,D5,281.5,0.25,127,80.0
8954,B3,281.5,0.25,127,80.0
8955,D6,281.5,0.25,127,80.0
8956,D5,281.5,0.25,127,80.0
8957,D6,281.5,0.25,127,80.0
8958,E-5,281.5,0.5,127,80.0
8959,G#3,281.5,0.125,127,80.0
8960,F3,281.5,0.125,127,80.0
8961,G#3,281.625,0.125,127,80.0
8962,F3,281.625,0.125,127,80.0
8963,E-5,281.75,0.25,127,80.0
8964,B1,281.75,0.25,127,80.0
8965,E-6,281.75,0.25,127,80.0
8966,E-5,281.75,0.25,127,80.0
8967,E-6,281.75,0.25,127,80.0
8968,G#3,281.75,0.125,127,80.0
8969,F3,281.75,0.125,127,80.0
8970,G#3,281.875,31/250,127,80.0
8971,F3,281.875,31/250,127,80.0
8972,F4,282.0,0.25,127,80.0
8973,F5,282.0,0.25,127,80.0
8974,F4,282.0,0.25,127,80.0
8975,F5,282.0,0.25,127,80.0
8976,C6,282.0,1.0,127,80.0
8977,B3,282.0,0.5,127,80.0
8978,D2,282.0,0.5,127,80.0
8979,G3,282.0,0.125,127,80.0
8980,E-3,282.0,0.125,127,80.0
8981,G3,282.125,0.125,127,80.0
8982,E-3,282.125,0.125,127,80.0
8983,C6,282.25,0.25,127,80.0
8984,C7,282.25,0.25,127,80.0
8985,C6,282.25,0.25,127,80.0
8986,C7,282.25,0.25,127,80.0
8987,G3,282.25,0.125,127,80.0
8988,E-3,282.25,0.125,127,80.0
8989,G3,282.375,0.125,127,80.0
8990,E-3,282.375,0.125,127,80.0
8991,F4,282.5,0.25,127,80.0
8992,B3,282.5,0.5,127,80.0
8993,F5,282.5,0.25,127,80.0
8994,F4,282.5,0.25,127,80.0
8995,F5,282.5,0.25,127,80.0
8996,G3,282.5,0.125,127,80.0
8997,E-3,282.5,0.125,127,80.0
8998,G3,282.625,0.125,127,80.0
8999,E-3,282.625,0.125,127,80.0
9000,E-5,282.75,0.25,127,80.0
9001,E-6,282.75,0.25,127,80.0
9002,E-5,282.75,0.25,127,80.0
9003,E-6,282.75,0.25,127,80.0
9004,G3,282.75,0.125,127,80.0
9005,E-3,282.75,0.125,127,80.0
9006,G3,282.875,31/250,127,80.0
9007,E-3,282.875,31/250,127,80.0
9008,D5,283.0,0.25,127,80.0
9009,B3,283.0,0.5,127,80.0
9010,D6,283.0,0.25,127,80.0
9011,D5,283.0,0.25,127,80.0
9012,D6,283.0,0.25,127,80.0
9013,G#5,283.0,1.0,127,80.0
9014,G#3,283.0,0.125,127,80.0
9015,F3,283.0,0.125,127,80.0
9016,G#3,283.125,0.125,127,80.0
9017,F3,283.125,0.125,127,80.0
9018,C5,283.25,0.25,127,80.0
9019,C6,283.25,0.25,127,80.0
9020,C5,283.25,0.25,127,80.0
9021,C6,283.25,0.25,127,80.0
9022,G#3,283.25,0.125,127,80.0
9023,F3,283.25,0.125,127,80.0
9024,G#3,283.375,0.125,127,80.0
9025,F3,283.375,0.125,127,80.0
9026,F3,283.5,0.25,127,80.0
9027,B3,283.5,0.25,127,80.0
9028,F4,283.5,0.25,127,80.0
9029,F3,283.5,0.25,127,80.0
9030,F4,283.5,0.25,127,80.0
9031,G#3,283.5,0.125,127,80.0
9032,F3,283.5,0.125,127,80.0
9033,G#3,283.625,0.125,127,80.0
9034,F3,283.625,0.125,127,80.0
9035,E-4,283.75,0.25,127,80.0
9036,B1,283.75,0.25,127,80.0
9037,E-5,283.75,0.25,127,80.0
9038,E-4,283.75,0.25,127,80.0
9039,E-5,283.75,0.25,127,80.0
9040,G#3,283.75,0.125,127,80.0
9041,F3,283.75,0.125,127,80.0
9042,G#3,283.875,31/250,127,80.0
9043,F3,283.875,31/250,127,80.0
9044,D4,284.0,0.25,127,80.0
9045,D2,284.0,0.25,127,80.0
9046,D5,284.0,0.25,127,80.0
9047,D4,284.0,0.25,127,80.0
9048,D5,284.0,0.25,127,80.0
9049,D3,284.0,0.25,127,80.0
9050,A2,284.0,0.25,127,80.0
9051,B3,284.0,0.25,127,80.0
9052,D2,284.0,0.25,127,80.0
9053,G4,284.0,0.25,127,80.0
9054,D4,284.0,0.25,127,80.0
9055,G3,284.0,0.25,127,80.0
9056,C4,284.25,0.25,127,80.0
9057,E-2,284.25,0.25,127,80.0
9058,C5,284.25,0.25,127,80.0
9059,C4,284.25,0.25,127,80.0
9060,C5,284.25,0.25,127,80.0
9061,E-3,284.25,0.25,127,80.0
9062,B-2,284.25,0.25,127,80.0
9063,B3,284.25,0.5,127,80.0
9064,A3,284.25,0.5,127,80.0
9065,B1,284.25,0.5,127,80.0
9066,G#4,284.25,0.25,127,80.0
9067,E-4,284.25,0.25,127,80.0
9068,G#3,284.25,0.25,127,80.0
9069,F3,284.5,0.25,127,80.0
9070,F4,284.5,0.25,127,80.0
9071,F3,284.5,0.25,127,80.0
9072,F4,284.5,0.25,127,80.0
9073,F3,284.5,0.5,127,80.0
9074,C4,284.75,0.25,127,80.0
9075,C5,284.75,0.25,127,80.0
9076,C4,284.75,0.25,127,80.0
9077,C5,284.75,0.25,127,80.0
9078,B3,284.75,0.5,127,80.0
9079,A3,284.75,0.5,127,80.0
9080,B1,284.75,0.5,127,80.0
9081,D4,285.0,0.25,127,80.0
9082,D5,285.0,0.25,127,80.0
9083,D4,285.0,0.25,127,80.0
9084,D5,285.0,0.25,127,80.0
9085,F4,285.0,0.5,127,80.0
9086,E-4,285.25,0.25,127,80.0
9087,D2,285.25,0.25,127,80.0
9088,E-5,285.25,0.25,127,80.0
9089,E-4,285.25,0.25,127,80.0
9090,E-5,285.25,0.25,127,80.0
9091,F3,285.5,0.25,127,80.0
9092,F4,285.5,0.25,127,80.0
9093,F3,285.5,0.25,127,80.0
9094,F4,285.5,0.25,127,80.0
9095,B-4,285.5,1.0,127,80.0
9096,E-3,285.5,0.25,127,80.0
9097,C#3,285.5,0.25,127,80.0
9098,C5,285.75,0.25,127,80.0
9099,C6,285.75,0.25,127,80.0
9100,C5,285.75,0.25,127,80.0
9101,C6,285.75,0.25,127,80.0
9102,C3,285.75,0.25,127,80.0
9103,B2,285.75,0.25,127,80.0
9104,D5,286.0,0.25,127,80.0
9105,E-2,286.0,0.25,127,80.0
9106,E-3,286.0,0.25,127,80.0
9107,D6,286.0,0.25,127,80.0
9108,D5,286.0,0.25,127,80.0
9109,D6,286.0,0.25,127,80.0
9110,E-3,286.0,0.25,127,80.0
9111,B-2,286.0,0.25,127,80.0
9112,E-5,286.25,0.25,127,80.0
9113,D2,286.25,0.25,127,80.0
9114,E-6,286.25,0.25,127,80.0
9115,E-5,286.25,0.25,127,80.0
9116,E-6,286.25,0.25,127,80.0
9117,D3,286.25,0.25,127,80.0
9118,A2,286.25,0.25,127,80.0
9119,C3,286.25,0.25,127,80.0
9120,B2,286.25,0.25,127,80.0
9121,F4,286.5,0.25,127,80.0
9122,F5,286.5,0.25,127,80.0
9123,F4,286.5,0.25,127,80.0
9124,F5,286.5,0.25,127,80.0
9125,C6,286.5,0.5,127,80.0
9126,D3,286.5,0.25,127,80.0
9127,C3,286.5,0.25,127,80.0
9128,C6,286.75,0.25,127,80.0
9129,C7,286.75,0.25,127,80.0
9130,C6,286.75,0.25,127,80.0
9131,C7,286.75,0.25,127,80.0
9132,B2,286.75,0.25,127,80.0
9133,A2,286.75,0.25,127,80.0
9134,F4,287.0,0.25,127,80.0
9135,D2,287.0,0.25,127,80.0
9136,D2,287.0,0.125,127,80.0
9137,F5,287.0,0.25,127,80.0
9138,F4,287.0,0.25,127,80.0
9139,F5,287.0,0.25,127,80.0
9140,G#5,287.0,1.0,127,80.0
9141,D3,287.0,0.25,127,80.0
9142,A2,287.0,0.25,127,80.0
9143,D2,287.125,0.125,127,80.0
9144,E-5,287.25,0.25,127,80.0
9145,E-2,287.25,0.25,127,80.0
9146,E-6,287.25,0.25,127,80.0
9147,E-5,287.25,0.25,127,80.0
9148,E-6,287.25,0.25,127,80.0
9149,E-3,287.25,0.25,127,80.0
9150,B-2,287.25,0.25,127,80.0
9151,F2,287.25,0.25,127,80.0
9152,D2,287.25,0.25,127,80.0
9153,D5,287.5,0.25,127,80.0
9154,B2,287.5,0.25,127,80.0
9155,D6,287.5,0.25,127,80.0
9156,D5,287.5,0.25,127,80.0
9157,D6,287.5,0.25,127,80.0
9158,C5,287.75,0.25,127,80.0
9159,D2,287.75,0.25,127,80.0
9160,C6,287.75,0.25,127,80.0
9161,C5,287.75,0.25,127,80.0
9162,C6,287.75,0.25,127,80.0
9163,G#3,288.0,0.25,127,80.0
9164,G1,288.0,0.25,127,80.0
9165,G#4,288.0,0.25,127,80.0
9166,G#4,288.0,0.25,127,80.0
9167,G3,288.0,0.25,127,80.0
9168,D3,288.0,0.25,127,80.0
9169,G2,288.0,0.25,127,80.0
9170,G4,288.0,0.25,127,80.0
9171,D4,288.0,0.25,127,80.0
9172,G3,288.0,0.25,127,80.0
9173,E-3,288.0,0.25,127,80.0
9174,C#3,288.0,0.25,127,80.0
9175,B1,288.0,0.25,127,80.0
9176,G4,288.0,0.25,127,80.0
9177,D4,288.0,0.25,127,80.0
9178,G3,288.0,0.25,127,80.0
9179,G#4,288.0,0.25,127,80.0
9180,E-4,288.0,0.25,127,80.0
9181,G#3,288.0,0.25,127,80.0
9182,G5,288.0,0.25,127,80.0
9183,D5,288.0,0.25,127,80.0
9184,G4,288.0,0.25,127,80.0
9185,G4,288.0,0.25,127,80.0
9186,D4,288.0,0.25,127,80.0
9187,G3,288.0,0.25,127,80.0
9188,D4,288.25,0.25,127,80.0
9189,G#1,288.25,0.25,127,80.0
9190,D5,288.25,0.25,127,80.0
9191,D5,288.25,0.25,127,80.0
9192,G#3,288.25,0.25,127,80.0
9193,E-3,288.25,0.25,127,80.0
9194,G#2,288.25,0.25,127,80.0
9195,G#4,288.25,0.25,127,80.0
9196,E-4,288.25,0.25,127,80.0
9197,G#3,288.25,0.25,127,80.0
9198,E-3,288.25,0.5,127,80.0
9199,C#3,288.25,0.5,127,80.0
9200,B1,288.25,0.5,127,80.0
9201,G#4,288.25,0.25,127,80.0
9202,E-4,288.25,0.25,127,80.0
9203,G#3,288.25,0.25,127,80.0
9204,G4,288.25,0.25,127,80.0
9205,D4,288.25,0.25,127,80.0
9206,G3,288.25,0.25,127,80.0
9207,G#5,288.25,0.25,127,80.0
9208,E-5,288.25,0.25,127,80.0
9209,G#4,288.25,0.25,127,80.0
9210,G#4,288.25,0.25,127,80.0
9211,E-4,288.25,0.25,127,80.0
9212,G#3,288.25,0.25,127,80.0
9213,G4,288.5,0.25,127,80.0
9214,G5,288.5,0.25,127,80.0
9215,G5,288.5,0.25,127,80.0
9216,G#3,288.75,0.25,127,80.0
9217,G#4,288.75,0.25,127,80.0
9218,G#4,288.75,0.25,127,80.0
9219,E-3,288.75,0.25,127,80.0
9220,B1,288.75,0.25,127,80.0
9221,C5,289.0,0.25,127,80.0
9222,C6,289.0,0.25,127,80.0
9223,C6,289.0,0.25,127,80.0
9224,E-3,289.0,0.25,127,80.0
9225,D2,289.0,0.25,127,80.0
9226,D5,289.25,0.25,127,80.0
9227,E-3,289.25,0.25,127,80.0
9228,D6,289.25,0.25,127,80.0
9229,D6,289.25,0.25,127,80.0
9230,G5,289.5,0.25,127,80.0
9231,E-3,289.5,0.25,127,80.0
9232,G6,289.5,0.25,127,80.0
9233,G6,289.5,0.25,127,80.0
9234,G#4,289.75,0.25,127,80.0
9235,G#5,289.75,0.25,127,80.0
9236,G#5,289.75,0.25,127,80.0
9237,E-3,289.75,0.5,127,80.0
9238,B1,289.75,0.5,127,80.0
9239,C6,290.0,0.25,127,80.0
9240,C7,290.0,0.25,127,80.0
9241,C7,290.0,0.25,127,80.0
9242,G4,290.0,0.25,127,80.0
9243,D4,290.0,0.25,127,80.0
9244,G3,290.0,0.25,127,80.0
9245,G#4,290.25,0.25,127,80.0
9246,E-3,290.25,0.25,127,80.0
9247,G#5,290.25,0.25,127,80.0
9248,G#5,290.25,0.25,127,80.0
9249,G5,290.5,0.25,127,80.0
9250,G6,290.5,0.25,127,80.0
9251,G6,290.5,0.25,127,80.0
9252,E-3,290.5,0.5,127,80.0
9253,B1,290.5,0.5,127,80.0
9254,D5,290.75,0.25,127,80.0
9255,D6,290.75,0.25,127,80.0
9256,D6,290.75,0.25,127,80.0
9257,C5,291.0,0.25,127,80.0
9258,C6,291.0,0.25,127,80.0
9259,C6,291.0,0.25,127,80.0
9260,E-3,291.0,0.25,127,80.0
9261,D2,291.0,0.25,127,80.0
9262,G#4,291.0,0.25,127,80.0
9263,E-4,291.0,0.25,127,80.0
9264,G#3,291.0,0.25,127,80.0
9265,G#3,291.25,0.25,127,80.0
9266,E-3,291.25,0.25,127,80.0
9267,G#4,291.25,0.25,127,80.0
9268,G#4,291.25,0.25,127,80.0
9269,G4,291.5,0.25,127,80.0
9270,E-3,291.5,0.25,127,80.0
9271,G5,291.5,0.25,127,80.0
9272,G5,291.5,0.25,127,80.0
9273,D4,291.75,0.25,127,80.0
9274,E-3,291.75,0.25,127,80.0
9275,D5,291.75,0.25,127,80.0
9276,D5,291.75,0.25,127,80.0
9277,G#3,292.0,0.25,127,80.0
9278,G#1,292.0,0.25,127,80.0
9279,G#4,292.0,0.25,127,80.0
9280,G#4,292.0,0.25,127,80.0
9281,G#3,292.0,0.25,127,80.0
9282,E-3,292.0,0.25,127,80.0
9283,G#2,292.0,0.25,127,80.0
9284,G#4,292.0,0.25,127,80.0
9285,E-4,292.0,0.25,127,80.0
9286,G#3,292.0,0.25,127,80.0
9287,E-3,292.0,0.25,127,80.0
9288,B1,292.0,0.25,127,80.0
9289,G#4,292.0,0.25,127,80.0
9290,E-4,292.0,0.25,127,80.0
9291,G#3,292.0,0.25,127,80.0
9292,D4,292.0,0.125,127,80.0
9293,A3,292.0,0.125,127,80.0
9294,G#5,292.0,0.25,127,80.0
9295,E-5,292.0,0.25,127,80.0
9296,G#4,292.0,0.25,127,80.0
9297,G#4,292.0,0.25,127,80.0
9298,E-4,292.0,0.25,127,80.0
9299,G#3,292.0,0.25,127,80.0
9300,D4,292.125,0.125,127,80.0
9301,A3,292.125,0.125,127,80.0
9302,D4,292.25,0.25,127,80.0
9303,G1,292.25,0.25,127,80.0
9304,D5,292.25,0.25,127,80.0
9305,D5,292.25,0.25,127,80.0
9306,G3,292.25,0.25,127,80.0
9307,D3,292.25,0.25,127,80.0
9308,G2,292.25,0.25,127,80.0
9309,G4,292.25,0.25,127,80.0
9310,D4,292.25,0.25,127,80.0
9311,G3,292.25,0.25,127,80.0
9312,E-3,292.25,0.5,127,80.0
9313,B1,292.25,0.5,127,80.0
9314,G4,292.25,0.25,127,80.0
9315,D4,292.25,0.25,127,80.0
9316,G3,292.25,0.25,127,80.0
9317,D4,292.25,0.125,127,80.0
9318,A3,292.25,0.125,127,80.0
9319,G5,292.25,0.25,127,80.0
9320,D5,292.25,0.25,127,80.0
9321,G4,292.25,0.25,127,80.0
9322,G4,292.25,0.25,127,80.0
9323,D4,292.25,0.25,127,80.0
9324,G3,292.25,0.25,127,80.0
9325,D4,292.375,0.125,127,80.0
9326,A3,292.375,0.125,127,80.0
9327,G4,292.5,0.25,127,80.0
9328,G5,292.5,0.25,127,80.0
9329,G5,292.5,0.25,127,80.0
9330,D4,292.5,0.125,127,80.0
9331,A3,292.5,0.125,127,80.0
9332,D4,292.625,0.125,127,80.0
9333,A3,292.625,0.125,127,80.0
9334,G#3,292.75,0.25,127,80.0
9335,G#4,292.75,0.25,127,80.0
9336,G#4,292.75,0.25,127,80.0
9337,E-3,292.75,0.25,127,80.0
9338,B1,292.75,0.25,127,80.0
9339,D4,292.75,0.125,127,80.0
9340,A3,292.75,0.125,127,80.0
9341,D4,292.875,0.125,127,80.0
9342,A3,292.875,0.125,127,80.0
9343,C5,293.0,0.25,127,80.0
9344,E-3,293.0,0.25,127,80.0
9345,C6,293.0,0.25,127,80.0
9346,C6,293.0,0.25,127,80.0
9347,D4,293.0,0.125,127,80.0
9348,A3,293.0,0.125,127,80.0
9349,D4,293.125,0.125,127,80.0
9350,A3,293.125,0.125,127,80.0
9351,D5,293.25,0.25,127,80.0
9352,E-3,293.25,0.25,127,80.0
9353,D6,293.25,0.25,127,80.0
9354,D6,293.25,0.25,127,80.0
9355,D4,293.25,0.125,127,80.0
9356,A3,293.25,0.125,127,80.0
9357,D4,293.375,0.125,127,80.0
9358,A3,293.375,0.125,127,80.0
9359,G5,293.5,0.25,127,80.0
9360,G6,293.5,0.25,127,80.0
9361,G6,293.5,0.25,127,80.0
9362,E-3,293.5,0.25,127,80.0
9363,D2,293.5,0.25,127,80.0
9364,D4,293.5,0.125,127,80.0
9365,A3,293.5,0.125,127,80.0
9366,D4,293.625,0.125,127,80.0
9367,A3,293.625,0.125,127,80.0
9368,G#4,293.75,0.25,127,80.0
9369,E-3,293.75,0.25,127,80.0
9370,G#5,293.75,0.25,127,80.0
9371,G#5,293.75,0.25,127,80.0
9372,D4,293.75,0.125,127,80.0
9373,A3,293.75,0.125,127,80.0
9374,D4,293.875,0.125,127,80.0
9375,A3,293.875,0.125,127,80.0
9376,C6,294.0,0.25,127,80.0
9377,G1,294.0,0.25,127,80.0
9378,C7,294.0,0.25,127,80.0
9379,C7,294.0,0.25,127,80.0
9380,G3,294.0,0.25,127,80.0
9381,D3,294.0,0.25,127,80.0
9382,G2,294.0,0.25,127,80.0
9383,G4,294.0,0.25,127,80.0
9384,D4,294.0,0.25,127,80.0
9385,G3,294.0,0.25,127,80.0
9386,E-3,294.0,0.25,127,80.0
9387,B1,294.0,0.25,127,80.0
9388,G4,294.0,0.25,127,80.0
9389,D4,294.0,0.25,127,80.0
9390,G3,294.0,0.25,127,80.0
9391,D4,294.0,0.125,127,80.0
9392,A3,294.0,0.125,127,80.0
9393,G5,294.0,0.25,127,80.0
9394,D5,294.0,0.25,127,80.0
9395,G4,294.0,0.25,127,80.0
9396,G4,294.0,0.25,127,80.0
9397,D4,294.0,0.25,127,80.0
9398,G3,294.0,0.25,127,80.0
9399,D4,294.125,0.125,127,80.0
9400,A3,294.125,0.125,127,80.0
9401,G#4,294.25,0.25,127,80.0
9402,E-3,294.25,0.25,127,80.0
9403,G#5,294.25,0.25,127,80.0
9404,G#5,294.25,0.25,127,80.0
9405,D4,294.25,0.125,127,80.0
9406,A3,294.25,0.125,127,80.0
9407,D4,294.375,0.125,127,80.0
9408,A3,294.375,0.125,127,80.0
9409,G5,294.5,0.25,127,80.0
9410,G6,294.5,0.25,127,80.0
9411,G6,294.5,0.25,127,80.0
9412,E-3,294.5,0.25,127,80.0
9413,D2,294.5,0.25,127,80.0
9414,D4,294.5,0.125,127,80.0
9415,A3,294.5,0.125,127,80.0
9416,D4,294.625,0.125,127,80.0
9417,A3,294.625,0.125,127,80.0
9418,D5,294.75,0.25,127,80.0
9419,D6,294.75,0.25,127,80.0
9420,D6,294.75,0.25,127,80.0
9421,C3,294.75,0.125,127,80.0
9422,B2,294.75,0.125,127,80.0
9423,D4,294.75,0.125,127,80.0
9424,A3,294.75,0.125,127,80.0
9425,C3,294.875,0.125,127,80.0
9426,D4,294.875,0.125,127,80.0
9427,A3,294.875,0.125,127,80.0
9428,C5,295.0,0.25,127,80.0
9429,G#1,295.0,0.25,127,80.0
9430,C6,295.0,0.25,127,80.0
9431,C6,295.0,0.25,127,80.0
9432,G#3,295.0,0.25,127,80.0
9433,E-3,295.0,0.25,127,80.0
9434,G#2,295.0,0.25,127,80.0
9435,G#4,295.0,0.25,127,80.0
9436,E-4,295.0,0.25,127,80.0
9437,G#3,295.0,0.25,127,80.0
9438,B2,295.0,0.25,127,80.0
9439,A2,295.0,0.25,127,80.0
9440,G#4,295.0,0.25,127,80.0
9441,E-4,295.0,0.25,127,80.0
9442,G#3,295.0,0.25,127,80.0
9443,D4,295.0,0.125,127,80.0
9444,A3,295.0,0.125,127,80.0
9445,G#5,295.0,0.25,127,80.0
9446,E-5,295.0,0.25,127,80.0
9447,G#4,295.0,0.25,127,80.0
9448,G#4,295.0,0.25,127,80.0
9449,E-4,295.0,0.25,127,80.0
9450,G#3,295.0,0.25,127,80.0
9451,D4,295.125,0.125,127,80.0
9452,A3,295.125,0.125,127,80.0
9453,G#3,295.25,0.25,127,80.0
9454,G#4,295.25,0.25,127,80.0
9455,G#4,295.25,0.25,127,80.0
9456,B2,295.25,0.25,127,80.0
9457,G2,295.25,0.25,127,80.0
9458,D4,295.25,0.125,127,80.0
9459,A3,295.25,0.125,127,80.0
9460,D4,295.375,0.125,127,80.0
9461,A3,295.375,0.125,127,80.0
9462,G4,295.5,0.25,127,80.0
9463,G5,295.5,0.25,127,80.0
9464,G5,295.5,0.25,127,80.0
9465,G2,295.5,0.25,127,80.0
9466,F2,295.5,0.25,127,80.0
9467,D4,295.5,0.125,127,80.0
9468,A3,295.5,0.125,127,80.0
9469,D4,295.625,0.125,127,80.0
9470,A3,295.625,0.125,127,80.0
9471,D4,295.75,0.25,127,80.0
9472,F2,295.75,0.25,127,80.0
9473,D5,295.75,0.25,127,80.0
9474,D5,295.75,0.25,127,80.0
9475,D4,295.75,0.125,127,80.0
9476,A3,295.75,0.125,127,80.0
9477,D4,295.875,31/250,127,80.0
9478,A3,295.875,31/250,127,80.0
9479,F3,296.0,0.25,127,80.0
9480,F4,296.0,0.25,127,80.0
9481,F4,296.0,0.25,127,80.0
9482,D3,296.0,4.0,127,80.0
9483,A2,296.0,4.0,127,80.0
9484,D4,296.0,4.0,127,80.0
9485,A3,296.0,4.0,127,80.0
9486,D2,296.0,4.0,127,80.0
9487,D1,296.0,4.0,127,80.0
9488,B3,296.0,0.5,127,80.0
9489,A3,296.0,0.5,127,80.0
9490,B1,296.0,0.5,127,80.0
9491,D4,296.0,4.0,127,80.0
9492,A3,296.0,4.0,127,80.0
9493,D4,296.0,0.25,127,80.0
9494,A3,296.0,0.25,127,80.0
9495,D5,296.0,0.125,127,80.0
9496,A4,296.0,0.125,127,80.0
9497,D4,296.0,4.0,127,80.0
9498,A3,296.0,4.0,127,80.0
9499,D5,296.125,0.125,127,80.0
9500,A4,296.125,0.125,127,80.0
9501,C4,296.25,0.25,127,80.0
9502,C5,296.25,0.25,127,80.0
9503,C5,296.25,0.25,127,80.0
9504,E-4,296.25,0.25,127,80.0
9505,B-3,296.25,0.25,127,80.0
9506,D5,296.25,0.125,127,80.0
9507,A4,296.25,0.125,127,80.0
9508,D5,296.375,0.125,127,80.0
9509,A4,296.375,0.125,127,80.0
9510,D4,296.5,0.25,127,80.0
9511,B3,296.5,0.25,127,80.0
9512,D5,296.5,0.25,127,80.0
9513,D5,296.5,0.25,127,80.0
9514,D5,296.5,0.125,127,80.0
9515,A4,296.5,0.125,127,80.0
9516,D5,296.625,0.125,127,80.0
9517,A4,296.625,0.125,127,80.0
9518,E-4,296.75,0.25,127,80.0
9519,B1,296.75,0.25,127,80.0
9520,E-5,296.75,0.25,127,80.0
9521,E-5,296.75,0.25,127,80.0
9522,D5,296.75,0.125,127,80.0
9523,A4,296.75,0.125,127,80.0
9524,D5,296.875,0.125,127,80.0
9525,A4,296.875,0.125,127,80.0
9526,F3,297.0,0.25,127,80.0
9527,F4,297.0,0.25,127,80.0
9528,F4,297.0,0.25,127,80.0
9529,F3,297.0,0.25,127,80.0
9530,D2,297.0,0.25,127,80.0
9531,D5,297.0,0.125,127,80.0
9532,A4,297.0,0.125,127,80.0
9533,D5,297.125,0.125,127,80.0
9534,A4,297.125,0.125,127,80.0
9535,C5,297.25,0.25,127,80.0
9536,F3,297.25,0.25,127,80.0
9537,C6,297.25,0.25,127,80.0
9538,C6,297.25,0.25,127,80.0
9539,D5,297.25,0.125,127,80.0
9540,A4,297.25,0.125,127,80.0
9541,D5,297.375,0.125,127,80.0
9542,A4,297.375,0.125,127,80.0
9543,D5,297.5,0.25,127,80.0
9544,B3,297.5,0.25,127,80.0
9545,D6,297.5,0.25,127,80.0
9546,D6,297.5,0.25,127,80.0
9547,D5,297.5,0.125,127,80.0
9548,A4,297.5,0.125,127,80.0
9549,D5,297.625,0.125,127,80.0
9550,A4,297.625,0.125,127,80.0
9551,E-5,297.75,0.25,127,80.0
9552,B1,297.75,0.25,127,80.0
9553,E-6,297.75,0.25,127,80.0
9554,E-6,297.75,0.25,127,80.0
9555,D5,297.75,0.125,127,80.0
9556,A4,297.75,0.125,127,80.0
9557,D5,297.875,0.125,127,80.0
9558,A4,297.875,0.125,127,80.0
9559,F4,298.0,0.25,127,80.0
9560,F5,298.0,0.25,127,80.0
9561,F5,298.0,0.25,127,80.0
9562,F3,298.0,0.25,127,80.0
9563,B1,298.0,0.25,127,80.0
9564,E-4,298.0,0.25,127,80.0
9565,B-3,298.0,0.25,127,80.0
9566,D5,298.0,0.125,127,80.0
9567,A4,298.0,0.125,127,80.0
9568,D5,298.125,0.125,127,80.0
9569,A4,298.125,0.125,127,80.0
9570,C6,298.25,0.25,127,80.0
9571,F3,298.25,0.25,127,80.0
9572,C7,298.25,0.25,127,80.0
9573,C7,298.25,0.25,127,80.0
9574,D4,298.25,0.25,127,80.0
9575,A3,298.25,0.25,127,80.0
9576,D5,298.25,0.125,127,80.0
9577,A4,298.25,0.125,127,80.0
9578,D5,298.375,0.125,127,80.0
9579,A4,298.375,0.125,127,80.0
9580,F4,298.5,0.25,127,80.0
9581,B3,298.5,0.25,127,80.0
9582,F5,298.5,0.25,127,80.0
9583,F5,298.5,0.25,127,80.0
9584,D5,298.5,0.125,127,80.0
9585,A4,298.5,0.125,127,80.0
9586,D5,298.625,0.125,127,80.0
9587,A4,298.625,0.125,127,80.0
9588,E-5,298.75,0.25,127,80.0
9589,B1,298.75,0.25,127,80.0
9590,E-6,298.75,0.25,127,80.0
9591,E-6,298.75,0.25,127,80.0
9592,D5,298.75,0.125,127,80.0
9593,A4,298.75,0.125,127,80.0
9594,D5,298.875,0.125,127,80.0
9595,A4,298.875,0.125,127,80.0
9596,D5,299.0,0.25,127,80.0
9597,D6,299.0,0.25,127,80.0
9598,D6,299.0,0.25,127,80.0
9599,F3,299.0,0.25,127,80.0
9600,D2,299.0,0.25,127,80.0
9601,D4,299.0,0.25,127,80.0
9602,A3,299.0,0.25,127,80.0
9603,D5,299.0,0.125,127,80.0
9604,A4,299.0,0.125,127,80.0
9605,D5,299.125,0.125,127,80.0
9606,A4,299.125,0.125,127,80.0
9607,C5,299.25,0.25,127,80.0
9608,F3,299.25,0.25,127,80.0
9609,C6,299.25,0.25,127,80.0
9610,C6,299.25,0.25,127,80.0
9611,E-4,299.25,0.25,127,80.0
9612,B-3,299.25,0.25,127,80.0
9613,D5,299.25,0.125,127,80.0
9614,A4,299.25,0.125,127,80.0
9615,D5,299.375,0.125,127,80.0
9616,A4,299.375,0.125,127,80.0
9617,F3,299.5,0.25,127,80.0
9618,B3,299.5,0.25,127,80.0
9619,F4,299.5,0.25,127,80.0
9620,F4,299.5,0.25,127,80.0
9621,D5,299.5,0.125,127,80.0
9622,A4,299.5,0.125,127,80.0
9623,D5,299.625,0.125,127,80.0
9624,A4,299.625,0.125,127,80.0
9625,E-4,299.75,0.25,127,80.0
9626,B1,299.75,0.25,127,80.0
9627,E-5,299.75,0.25,127,80.0
9628,E-5,299.75,0.25,127,80.0
9629,D5,299.75,0.125,127,80.0
9630,A4,299.75,0.125,127,80.0
9631,D5,299.875,31/250,127,80.0
9632,A4,299.875,31/250,127,80.0
9633,D4,300.0,0.25,127,80.0
9634,D2,300.0,0.25,127,80.0
9635,D5,300.0,0.25,127,80.0
9636,D5,300.0,0.25,127,80.0
9637,D3,300.0,0.25,127,80.0
9638,A2,300.0,0.25,127,80.0
9639,D4,300.0,0.25,127,80.0
9640,A3,300.0,0.25,127,80.0
9641,F3,300.0,0.25,127,80.0
9642,D2,300.0,0.25,127,80.0
9643,D4,300.0,0.25,127,80.0
9644,A3,300.0,0.25,127,80.0
9645,G4,300.0,0.25,127,80.0
9646,D4,300.0,0.25,127,80.0
9647,G3,300.0,0.25,127,80.0
9648,D5,300.0,0.25,127,80.0
9649,A4,300.0,0.25,127,80.0
9650,D4,300.0,0.25,127,80.0
9651,A3,300.0,0.25,127,80.0
9652,C4,300.25,0.25,127,80.0
9653,E-2,300.25,0.25,127,80.0
9654,C5,300.25,0.25,127,80.0
9655,C5,300.25,0.25,127,80.0
9656,E-3,300.25,0.25,127,80.0
9657,B-2,300.25,0.25,127,80.0
9658,E-4,300.25,0.25,127,80.0
9659,B-3,300.25,0.25,127,80.0
9660,B3,300.25,0.5,127,80.0
9661,A3,300.25,0.5,127,80.0
9662,B1,300.25,0.5,127,80.0
9663,E-4,300.25,0.25,127,80.0
9664,B-3,300.25,0.25,127,80.0
9665,G#4,300.25,0.25,127,80.0
9666,E-4,300.25,0.25,127,80.0
9667,G#3,300.25,0.25,127,80.0
9668,E-5,300.25,0.25,127,80.0
9669,B-4,300.25,0.25,127,80.0
9670,E-4,300.25,0.25,127,80.0
9671,B-3,300.25,0.25,127,80.0
9672,F3,300.5,0.25,127,80.0
9673,F4,300.5,0.25,127,80.0
9674,F4,300.5,0.25,127,80.0
9675,C4,300.75,0.25,127,80.0
9676,C5,300.75,0.25,127,80.0
9677,C5,300.75,0.25,127,80.0
9678,B3,300.75,0.5,127,80.0
9679,A3,300.75,0.5,127,80.0
9680,B1,300.75,0.5,127,80.0
9681,D4,301.0,0.25,127,80.0
9682,D5,301.0,0.25,127,80.0
9683,D5,301.0,0.25,127,80.0
9684,E-4,301.25,0.25,127,80.0
9685,D2,301.25,0.25,127,80.0
9686,E-5,301.25,0.25,127,80.0
9687,E-5,301.25,0.25,127,80.0
9688,F3,301.5,0.25,127,80.0
9689,F3,301.5,0.25,127,80.0
9690,F4,301.5,0.25,127,80.0
9691,F4,301.5,0.25,127,80.0
9692,C5,301.75,0.25,127,80.0
9693,C3,301.75,0.25,127,80.0
9694,C6,301.75,0.25,127,80.0
9695,C6,301.75,0.25,127,80.0
9696,D5,302.0,0.25,127,80.0
9697,E-2,302.0,0.25,127,80.0
9698,C3,302.0,167/1000,127,80.0
9699,D6,302.0,0.25,127,80.0
9700,D6,302.0,0.25,127,80.0
9701,E-3,302.0,0.25,127,80.0
9702,B-2,302.0,0.25,127,80.0
9703,E-4,302.0,0.25,127,80.0
9704,B-3,302.0,0.25,127,80.0
9705,E-4,302.0,0.25,127,80.0
9706,B-3,302.0,0.25,127,80.0
9707,E-5,302.0,0.25,127,80.0
9708,B-4,302.0,0.25,127,80.0
9709,E-4,302.0,0.25,127,80.0
9710,B-3,302.0,0.25,127,80.0
9711,F2,302.167,167/1000,127,80.0
9712,D2,302.167,167/1000,127,80.0
9713,E-5,302.25,0.25,127,80.0
9714,D2,302.25,0.25,127,80.0
9715,E-6,302.25,0.25,127,80.0
9716,E-6,302.25,0.25,127,80.0
9717,D3,302.25,0.25,127,80.0
9718,A2,302.25,0.25,127,80.0
9719,D4,302.25,0.25,127,80.0
9720,A3,302.25,0.25,127,80.0
9721,D4,302.25,0.25,127,80.0
9722,A3,302.25,0.25,127,80.0
9723,D5,302.25,0.25,127,80.0
9724,A4,302.25,0.25,127,80.0
9725,D4,302.25,0.25,127,80.0
9726,A3,302.25,0.25,127,80.0
9727,F2,302.333,167/1000,127,80.0
9728,F4,302.5,0.25,127,80.0
9729,D2,302.5,0.25,127,80.0
9730,F5,302.5,0.25,127,80.0
9731,F5,302.5,0.25,127,80.0
9732,C6,302.75,0.25,127,80.0
9733,D2,302.75,0.125,127,80.0
9734,C7,302.75,0.25,127,80.0
9735,C7,302.75,0.25,127,80.0
9736,D2,302.875,0.125,127,80.0
9737,F4,303.0,0.25,127,80.0
9738,D2,303.0,0.25,127,80.0
9739,F5,303.0,0.25,127,80.0
9740,F5,303.0,0.25,127,80.0
9741,D3,303.0,0.25,127,80.0
9742,A2,303.0,0.25,127,80.0
9743,D4,303.0,0.25,127,80.0
9744,A3,303.0,0.25,127,80.0
9745,E-3,303.0,333/1000,127,80.0
9746,C#3,303.0,333/1000,127,80.0
9747,D2,303.0,333/1000,127,80.0
9748,D4,303.0,0.25,127,80.0
9749,A3,303.0,0.25,127,80.0
9750,D5,303.0,0.25,127,80.0
9751,A4,303.0,0.25,127,80.0
9752,D4,303.0,0.25,127,80.0
9753,A3,303.0,0.25,127,80.0
9754,E-5,303.25,0.25,127,80.0
9755,E-2,303.25,0.25,127,80.0
9756,E-6,303.25,0.25,127,80.0
9757,E-6,303.25,0.25,127,80.0
9758,E-3,303.25,0.25,127,80.0
9759,B-2,303.25,0.25,127,80.0
9760,E-4,303.25,0.25,127,80.0
9761,B-3,303.25,0.25,127,80.0
9762,E-4,303.25,0.25,127,80.0
9763,B-3,303.25,0.25,127,80.0
9764,E-5,303.25,0.25,127,80.0
9765,B-4,303.25,0.25,127,80.0
9766,E-4,303.25,0.25,127,80.0
9767,B-3,303.25,0.25,127,80.0
9768,E-3,303.333,333/1000,127,80.0
9769,C#3,303.333,333/1000,127,80.0
9770,B1,303.333,333/1000,127,80.0
9771,D5,303.5,0.25,127,80.0
9772,D6,303.5,0.25,127,80.0
9773,D6,303.5,0.25,127,80.0
9774,E-3,303.667,333/1000,127,80.0
9775,C#3,303.667,333/1000,127,80.0
9776,B1,303.667,333/1000,127,80.0
9777,C5,303.75,0.25,127,80.0
9778,C6,303.75,0.25,127,80.0
9779,C6,303.75,0.25,127,80.0
9780,G#3,304.0,0.25,127,80.0
9781,G1,304.0,0.25,127,80.0
9782,G#4,304.0,0.25,127,80.0
9783,G#4,304.0,0.25,127,80.0
9784,G3,304.0,0.25,127,80.0
9785,D3,304.0,0.25,127,80.0
9786,G2,304.0,0.25,127,80.0
9787,G4,304.0,0.25,127,80.0
9788,D4,304.0,0.25,127,80.0
9789,G3,304.0,0.25,127,80.0
9790,E-3,304.0,0.5,127,80.0
9791,B1,304.0,0.5,127,80.0
9792,G4,304.0,0.25,127,80.0
9793,D4,304.0,0.25,127,80.0
9794,G3,304.0,0.25,127,80.0
9795,G#4,304.0,0.25,127,80.0
9796,E-4,304.0,0.25,127,80.0
9797,G#3,304.0,0.25,127,80.0
9798,G5,304.0,0.25,127,80.0
9799,D5,304.0,0.25,127,80.0
9800,G4,304.0,0.25,127,80.0
9801,G4,304.0,0.25,127,80.0
9802,D4,304.0,0.25,127,80.0
9803,G3,304.0,0.25,127,80.0
9804,D4,304.25,0.25,127,80.0
9805,G#1,304.25,0.25,127,80.0
9806,D5,304.25,0.25,127,80.0
9807,D5,304.25,0.25,127,80.0
9808,G#3,304.25,0.25,127,80.0
9809,E-3,304.25,0.25,127,80.0
9810,G#2,304.25,0.25,127,80.0
9811,G#4,304.25,0.25,127,80.0
9812,E-4,304.25,0.25,127,80.0
9813,G#3,304.25,0.25,127,80.0
9814,G#4,304.25,0.25,127,80.0
9815,E-4,304.25,0.25,127,80.0
9816,G#3,304.25,0.25,127,80.0
9817,G4,304.25,0.25,127,80.0
9818,D4,304.25,0.25,127,80.0
9819,G3,304.25,0.25,127,80.0
9820,G#5,304.25,0.25,127,80.0
9821,E-5,304.25,0.25,127,80.0
9822,G#4,304.25,0.25,127,80.0
9823,G#4,304.25,0.25,127,80.0
9824,E-4,304.25,0.25,127,80.0
9825,G#3,304.25,0.25,127,80.0
9826,G4,304.5,0.25,127,80.0
9827,E-3,304.5,0.25,127,80.0
9828,G5,304.5,0.25,127,80.0
9829,G5,304.5,0.25,127,80.0
9830,G#3,304.75,0.25,127,80.0
9831,B1,304.75,0.25,127,80.0
9832,G#4,304.75,0.25,127,80.0
9833,G#4,304.75,0.25,127,80.0
9834,C5,305.0,0.25,127,80.0
9835,C6,305.0,0.25,127,80.0
9836,C6,305.0,0.25,127,80.0
9837,E-3,305.0,0.5,127,80.0
9838,D2,305.0,0.5,127,80.0
9839,D5,305.25,0.25,127,80.0
9840,D6,305.25,0.25,127,80.0
9841,D6,305.25,0.25,127,80.0
9842,G5,305.5,0.25,127,80.0
9843,E-3,305.5,0.25,127,80.0
9844,G6,305.5,0.25,127,80.0
9845,G6,305.5,0.25,127,80.0
9846,G#4,305.75,0.25,127,80.0
9847,D2,305.75,0.25,127,80.0
9848,G#5,305.75,0.25,127,80.0
9849,G#5,305.75,0.25,127,80.0
9850,C6,306.0,0.25,127,80.0
9851,E-3,306.0,167/1000,127,80.0
9852,C7,306.0,0.25,127,80.0
9853,C7,306.0,0.25,127,80.0
9854,G4,306.0,0.25,127,80.0
9855,D4,306.0,0.25,127,80.0
9856,G3,306.0,0.25,127,80.0
9857,C3,306.167,167/1000,127,80.0
9858,G#4,306.25,0.25,127,80.0
9859,G#5,306.25,0.25,127,80.0
9860,G#5,306.25,0.25,127,80.0
9861,D3,306.333,167/1000,127,80.0
9862,G5,306.5,0.25,127,80.0
9863,B2,306.5,167/1000,127,80.0
9864,G6,306.5,0.25,127,80.0
9865,G6,306.5,0.25,127,80.0
9866,C3,306.667,167/1000,127,80.0
9867,B2,306.667,167/1000,127,80.0
9868,D5,306.75,0.25,127,80.0
9869,D6,306.75,0.25,127,80.0
9870,D6,306.75,0.25,127,80.0
9871,G2,306.833,167/1000,127,80.0
9872,C5,307.0,0.25,127,80.0
9873,C6,307.0,0.25,127,80.0
9874,C6,307.0,0.25,127,80.0
9875,G2,307.0,333/1000,127,80.0
9876,F2,307.0,333/1000,127,80.0
9877,G#4,307.0,0.25,127,80.0
9878,E-4,307.0,0.25,127,80.0
9879,G#3,307.0,0.25,127,80.0
9880,G#3,307.25,0.25,127,80.0
9881,G#4,307.25,0.25,127,80.0
9882,G#4,307.25,0.25,127,80.0
9883,D2,307.333,333/1000,127,80.0
9884,G4,307.5,0.25,127,80.0
9885,G5,307.5,0.25,127,80.0
9886,G5,307.5,0.25,127,80.0
9887,D2,307.667,333/1000,127,80.0
9888,D4,307.75,0.25,127,80.0
9889,D5,307.75,0.25,127,80.0
9890,D5,307.75,0.25,127,80.0
9891,G#3,308.0,0.25,127,80.0
9892,G#1,308.0,0.25,127,80.0
9893,G#4,308.0,0.25,127,80.0
9894,G#4,308.0,0.25,127,80.0
9895,G#3,308.0,0.25,127,80.0
9896,E-3,308.0,0.25,127,80.0
9897,G#2,308.0,0.25,127,80.0
9898,G#4,308.0,0.25,127,80.0
9899,E-4,308.0,0.25,127,80.0
9900,G#3,308.0,0.25,127,80.0
9901,E-3,308.0,0.25,127,80.0
9902,C#3,308.0,0.25,127,80.0
9903,B1,308.0,0.25,127,80.0
9904,G#4,308.0,0.25,127,80.0
9905,E-4,308.0,0.25,127,80.0
9906,G#3,308.0,0.25,127,80.0
9907,D4,308.0,0.125,127,80.0
9908,A3,308.0,0.125,127,80.0
9909,G#5,308.0,0.25,127,80.0
9910,E-5,308.0,0.25,127,80.0
9911,G#4,308.0,0.25,127,80.0
9912,G#4,308.0,0.25,127,80.0
9913,E-4,308.0,0.25,127,80.0
9914,G#3,308.0,0.25,127,80.0
9915,D4,308.125,0.125,127,80.0
9916,A3,308.125,0.125,127,80.0
9917,D4,308.25,0.25,127,80.0
9918,G1,308.25,0.25,127,80.0
9919,D5,308.25,0.25,127,80.0
9920,D5,308.25,0.25,127,80.0
9921,G3,308.25,0.25,127,80.0
9922,D3,308.25,0.25,127,80.0
9923,G2,308.25,0.25,127,80.0
9924,G4,308.25,0.25,127,80.0
9925,D4,308.25,0.25,127,80.0
9926,G3,308.25,0.25,127,80.0
9927,E-3,308.25,0.5,127,80.0
9928,C#3,308.25,0.5,127,80.0
9929,B1,308.25,0.5,127,80.0
9930,G4,308.25,0.25,127,80.0
9931,D4,308.25,0.25,127,80.0
9932,G3,308.25,0.25,127,80.0
9933,D4,308.25,0.125,127,80.0
9934,A3,308.25,0.125,127,80.0
9935,G5,308.25,0.25,127,80.0
9936,D5,308.25,0.25,127,80.0
9937,G4,308.25,0.25,127,80.0
9938,G4,308.25,0.25,127,80.0
9939,D4,308.25,0.25,127,80.0
9940,G3,308.25,0.25,127,80.0
9941,D4,308.375,0.125,127,80.0
9942,A3,308.375,0.125,127,80.0
9943,G4,308.5,0.25,127,80.0
9944,G5,308.5,0.25,127,80.0
9945,G5,308.5,0.25,127,80.0
9946,D4,308.5,0.125,127,80.0
9947,A3,308.5,0.125,127,80.0
9948,D4,308.625,0.125,127,80.0
9949,A3,308.625,0.125,127,80.0
9950,G#3,308.75,0.25,127,80.0
9951,E-3,308.75,0.25,127,80.0
9952,G#4,308.75,0.25,127,80.0
9953,G#4,308.75,0.25,127,80.0
9954,D4,308.75,0.125,127,80.0
9955,A3,308.75,0.125,127,80.0
9956,D4,308.875,0.125,127,80.0
9957,A3,308.875,0.125,127,80.0
9958,C5,309.0,0.25,127,80.0
9959,C6,309.0,0.25,127,80.0
9960,C6,309.0,0.25,127,80.0
9961,E-3,309.0,0.5,127,80.0
9962,B1,309.0,0.5,127,80.0
9963,D4,309.0,0.125,127,80.0
9964,A3,309.0,0.125,127,80.0
9965,D4,309.125,0.125,127,80.0
9966,A3,309.125,0.125,127,80.0
9967,D5,309.25,0.25,127,80.0
9968,D6,309.25,0.25,127,80.0
9969,D6,309.25,0.25,127,80.0
9970,D4,309.25,0.125,127,80.0
9971,A3,309.25,0.125,127,80.0
9972,D4,309.375,0.125,127,80.0
9973,A3,309.375,0.125,127,80.0
9974,G5,309.5,0.25,127,80.0
9975,G6,309.5,0.25,127,80.0
9976,G6,309.5,0.25,127,80.0
9977,E-3,309.5,0.25,127,80.0
9978,D2,309.5,0.25,127,80.0
9979,D4,309.5,0.125,127,80.0
9980,A3,309.5,0.125,127,80.0
9981,D4,309.625,0.125,127,80.0
9982,A3,309.625,0.125,127,80.0
9983,G#4,309.75,0.25,127,80.0
9984,E-3,309.75,0.25,127,80.0
9985,G#5,309.75,0.25,127,80.0
9986,G#5,309.75,0.25,127,80.0
9987,D4,309.75,0.125,127,80.0
9988,A3,309.75,0.125,127,80.0
9989,D4,309.875,0.125,127,80.0
9990,A3,309.875,0.125,127,80.0
9991,C6,310.0,0.25,127,80.0
9992,G1,310.0,0.25,127,80.0
9993,C7,310.0,0.25,127,80.0
9994,C7,310.0,0.25,127,80.0
9995,G3,310.0,0.25,127,80.0
9996,D3,310.0,0.25,127,80.0
9997,G2,310.0,0.25,127,80.0
9998,G4,310.0,0.25,127,80.0
9999,D4,310.0,0.25,127,80.0
10000,G3,310.0,0.25,127,80.0
10001,E-3,310.0,0.25,127,80.0
10002,C#3,310.0,0.25,127,80.0
10003,B1,310.0,0.25,127,80.0
10004,G4,310.0,0.25,127,80.0
10005,D4,310.0,0.25,127,80.0
10006,G3,310.0,0.25,127,80.0
10007,D4,310.0,0.125,127,80.0
10008,A3,310.0,0.125,127,80.0
10009,G5,310.0,0.25,127,80.0
10010,D5,310.0,0.25,127,80.0
10011,G4,310.0,0.25,127,80.0
10012,G4,310.0,0.25,127,80.0
10013,D4,310.0,0.25,127,80.0
10014,G3,310.0,0.25,127,80.0
10015,D4,310.125,0.125,127,80.0
10016,A3,310.125,0.125,127,80.0
10017,G#4,310.25,0.25,127,80.0
10018,D2,310.25,0.25,127,80.0
10019,G#5,310.25,0.25,127,80.0
10020,G#5,310.25,0.25,127,80.0
10021,D4,310.25,0.125,127,80.0
10022,A3,310.25,0.125,127,80.0
10023,D4,310.375,0.125,127,80.0
10024,A3,310.375,0.125,127,80.0
10025,G5,310.5,0.25,127,80.0
10026,E-3,310.5,0.25,127,80.0
10027,G6,310.5,0.25,127,80.0
10028,G6,310.5,0.25,127,80.0
10029,D4,310.5,0.125,127,80.0
10030,A3,310.5,0.125,127,80.0
10031,D4,310.625,0.125,127,80.0
10032,A3,310.625,0.125,127,80.0
10033,D5,310.75,0.25,127,80.0
10034,D6,310.75,0.25,127,80.0
10035,D6,310.75,0.25,127,80.0
10036,C3,310.75,0.25,127,80.0
10037,B2,310.75,0.25,127,80.0
10038,D4,310.75,0.125,127,80.0
10039,A3,310.75,0.125,127,80.0
10040,D4,310.875,0.125,127,80.0
10041,A3,310.875,0.125,127,80.0
10042,C5,311.0,0.25,127,80.0
10043,G#1,311.0,0.25,127,80.0
10044,C6,311.0,0.25,127,80.0
10045,C6,311.0,0.25,127,80.0
10046,G#3,311.0,0.25,127,80.0
10047,E-3,311.0,0.25,127,80.0
10048,G#2,311.0,0.25,127,80.0
10049,G#4,311.0,0.25,127,80.0
10050,E-4,311.0,0.25,127,80.0
10051,G#3,311.0,0.25,127,80.0
10052,E-3,311.0,0.375,127,80.0
10053,C3,311.0,0.375,127,80.0
10054,G#4,311.0,0.25,127,80.0
10055,E-4,311.0,0.25,127,80.0
10056,G#3,311.0,0.25,127,80.0
10057,D4,311.0,0.125,127,80.0
10058,A3,311.0,0.125,127,80.0
10059,G#5,311.0,0.25,127,80.0
10060,E-5,311.0,0.25,127,80.0
10061,G#4,311.0,0.25,127,80.0
10062,G#4,311.0,0.25,127,80.0
10063,E-4,311.0,0.25,127,80.0
10064,G#3,311.0,0.25,127,80.0
10065,D4,311.125,0.125,127,80.0
10066,A3,311.125,0.125,127,80.0
10067,G#3,311.25,0.25,127,80.0
10068,G#4,311.25,0.25,127,80.0
10069,G#4,311.25,0.25,127,80.0
10070,D4,311.25,0.125,127,80.0
10071,A3,311.25,0.125,127,80.0
10072,A2,311.375,0.125,127,80.0
10073,G2,311.375,0.125,127,80.0
10074,D4,311.375,0.125,127,80.0
10075,A3,311.375,0.125,127,80.0
10076,G4,311.5,0.25,127,80.0
10077,G5,311.5,0.25,127,80.0
10078,G5,311.5,0.25,127,80.0
10079,E-3,311.5,0.125,127,80.0
10080,B2,311.5,0.125,127,80.0
10081,A2,311.5,0.125,127,80.0
10082,D4,311.5,0.125,127,80.0
10083,A3,311.5,0.125,127,80.0
10084,G2,311.625,0.125,127,80.0
10085,F2,311.625,0.125,127,80.0
10086,D4,311.625,0.125,127,80.0
10087,A3,311.625,0.125,127,80.0
10088,D4,311.75,0.25,127,80.0
10089,G2,311.75,0.125,127,80.0
10090,D5,311.75,0.25,127,80.0
10091,D5,311.75,0.25,127,80.0
10092,D4,311.75,0.125,127,80.0
10093,A3,311.75,0.125,127,80.0
10094,F2,311.875,0.125,127,80.0
10095,D2,311.875,0.125,127,80.0
10096,D4,311.875,31/250,127,80.0
10097,A3,311.875,31/250,127,80.0
10098,F3,312.0,0.25,127,80.0
10099,F4,312.0,0.25,127,80.0
10100,F4,312.0,0.25,127,80.0
10101,D3,312.0,4.0,127,80.0
10102,A2,312.0,4.0,127,80.0
10103,D4,312.0,4.0,127,80.0
10104,A3,312.0,4.0,127,80.0
10105,D2,312.0,4.0,127,80.0
10106,D1,312.0,4.0,127,80.0
10107,B3,312.0,0.5,127,80.0
10108,A3,312.0,0.5,127,80.0
10109,B1,312.0,0.5,127,80.0
10110,D4,312.0,4.0,127,80.0
10111,A3,312.0,4.0,127,80.0
10112,D4,312.0,0.25,127,80.0
10113,A3,312.0,0.25,127,80.0
10114,D5,312.0,0.125,127,80.0
10115,A4,312.0,0.125,127,80.0
10116,D4,312.0,4.0,127,80.0
10117,A3,312.0,4.0,127,80.0
10118,D5,312.125,0.125,127,80.0
10119,A4,312.125,0.125,127,80.0
10120,C4,312.25,0.25,127,80.0
10121,C5,312.25,0.25,127,80.0
10122,C5,312.25,0.25,127,80.0
10123,E-4,312.25,0.25,127,80.0
10124,B-3,312.25,0.25,127,80.0
10125,D5,312.25,0.125,127,80.0
10126,A4,312.25,0.125,127,80.0
10127,D5,312.375,0.125,127,80.0
10128,A4,312.375,0.125,127,80.0
10129,D4,312.5,0.25,127,80.0
10130,B3,312.5,0.25,127,80.0
10131,D5,312.5,0.25,127,80.0
10132,D5,312.5,0.25,127,80.0
10133,D5,312.5,0.125,127,80.0
10134,A4,312.5,0.125,127,80.0
10135,D5,312.625,0.125,127,80.0
10136,A4,312.625,0.125,127,80.0
10137,E-4,312.75,0.25,127,80.0
10138,B1,312.75,0.25,127,80.0
10139,E-5,312.75,0.25,127,80.0
10140,E-5,312.75,0.25,127,80.0
10141,D5,312.75,0.125,127,80.0
10142,A4,312.75,0.125,127,80.0
10143,D5,312.875,0.125,127,80.0
10144,A4,312.875,0.125,127,80.0
10145,F3,313.0,0.25,127,80.0
10146,F4,313.0,0.25,127,80.0
10147,F4,313.0,0.25,127,80.0
10148,B3,313.0,0.25,127,80.0
10149,D2,313.0,0.25,127,80.0
10150,D5,313.0,0.125,127,80.0
10151,A4,313.0,0.125,127,80.0
10152,D5,313.125,0.125,127,80.0
10153,A4,313.125,0.125,127,80.0
10154,C5,313.25,0.25,127,80.0
10155,B3,313.25,0.25,127,80.0
10156,C6,313.25,0.25,127,80.0
10157,C6,313.25,0.25,127,80.0
10158,D5,313.25,0.125,127,80.0
10159,A4,313.25,0.125,127,80.0
10160,D5,313.375,0.125,127,80.0
10161,A4,313.375,0.125,127,80.0
10162,D5,313.5,0.25,127,80.0
10163,F3,313.5,0.25,127,80.0
10164,D6,313.5,0.25,127,80.0
10165,D6,313.5,0.25,127,80.0
10166,D5,313.5,0.125,127,80.0
10167,A4,313.5,0.125,127,80.0
10168,D5,313.625,0.125,127,80.0
10169,A4,313.625,0.125,127,80.0
10170,E-5,313.75,0.25,127,80.0
10171,B1,313.75,0.25,127,80.0
10172,E-6,313.75,0.25,127,80.0
10173,E-6,313.75,0.25,127,80.0
10174,D5,313.75,0.125,127,80.0
10175,A4,313.75,0.125,127,80.0
10176,D5,313.875,0.125,127,80.0
10177,A4,313.875,0.125,127,80.0
10178,F4,314.0,0.25,127,80.0
10179,F5,314.0,0.25,127,80.0
10180,F5,314.0,0.25,127,80.0
10181,F3,314.0,0.25,127,80.0
10182,B1,314.0,0.25,127,80.0
10183,E-4,314.0,0.25,127,80.0
10184,B-3,314.0,0.25,127,80.0
10185,D5,314.0,0.125,127,80.0
10186,A4,314.0,0.125,127,80.0
10187,D5,314.125,0.125,127,80.0
10188,A4,314.125,0.125,127,80.0
10189,C6,314.25,0.25,127,80.0
10190,F3,314.25,0.25,127,80.0
10191,C7,314.25,0.25,127,80.0
10192,C7,314.25,0.25,127,80.0
10193,D4,314.25,0.25,127,80.0
10194,A3,314.25,0.25,127,80.0
10195,D5,314.25,0.125,127,80.0
10196,A4,314.25,0.125,127,80.0
10197,D5,314.375,0.125,127,80.0
10198,A4,314.375,0.125,127,80.0
10199,F4,314.5,0.25,127,80.0
10200,B3,314.5,0.25,127,80.0
10201,F5,314.5,0.25,127,80.0
10202,F5,314.5,0.25,127,80.0
10203,D5,314.5,0.125,127,80.0
10204,A4,314.5,0.125,127,80.0
10205,D5,314.625,0.125,127,80.0
10206,A4,314.625,0.125,127,80.0
10207,E-5,314.75,0.25,127,80.0
10208,B1,314.75,0.25,127,80.0
10209,E-6,314.75,0.25,127,80.0
10210,E-6,314.75,0.25,127,80.0
10211,D5,314.75,0.125,127,80.0
10212,A4,314.75,0.125,127,80.0
10213,D5,314.875,0.125,127,80.0
10214,A4,314.875,0.125,127,80.0
10215,D5,315.0,0.25,127,80.0
10216,D6,315.0,0.25,127,80.0
10217,D6,315.0,0.25,127,80.0
10218,F3,315.0,0.25,127,80.0
10219,D2,315.0,0.25,127,80.0
10220,D4,315.0,0.25,127,80.0
10221,A3,315.0,0.25,127,80.0
10222,D5,315.0,0.125,127,80.0
10223,A4,315.0,0.125,127,80.0
10224,D5,315.125,0.125,127,80.0
10225,A4,315.125,0.125,127,80.0
10226,C5,315.25,0.25,127,80.0
10227,F3,315.25,0.25,127,80.0
10228,C6,315.25,0.25,127,80.0
10229,C6,315.25,0.25,127,80.0
10230,E-4,315.25,0.25,127,80.0
10231,B-3,315.25,0.25,127,80.0
10232,D5,315.25,0.125,127,80.0
10233,A4,315.25,0.125,127,80.0
10234,D5,315.375,0.125,127,80.0
10235,A4,315.375,0.125,127,80.0
10236,F3,315.5,0.25,127,80.0
10237,B3,315.5,0.25,127,80.0
10238,F4,315.5,0.25,127,80.0
10239,F4,315.5,0.25,127,80.0
10240,D5,315.5,0.125,127,80.0
10241,A4,315.5,0.125,127,80.0
10242,D5,315.625,0.125,127,80.0
10243,A4,315.625,0.125,127,80.0
10244,E-4,315.75,0.25,127,80.0
10245,B1,315.75,0.25,127,80.0
10246,E-5,315.75,0.25,127,80.0
10247,E-5,315.75,0.25,127,80.0
10248,D5,315.75,0.125,127,80.0
10249,A4,315.75,0.125,127,80.0
10250,D5,315.875,31/250,127,80.0
10251,A4,315.875,31/250,127,80.0
10252,D4,316.0,0.25,127,80.0
10253,D2,316.0,0.25,127,80.0
10254,D5,316.0,0.25,127,80.0
10255,D5,316.0,0.25,127,80.0
10256,D3,316.0,0.25,127,80.0
10257,A2,316.0,0.25,127,80.0
10258,D4,316.0,0.25,127,80.0
10259,A3,316.0,0.25,127,80.0
10260,G3,316.0,333/1000,127,80.0
10261,B1,316.0,333/1000,127,80.0
10262,D4,316.0,0.25,127,80.0
10263,A3,316.0,0.25,127,80.0
10264,G4,316.0,0.25,127,80.0
10265,D4,316.0,0.25,127,80.0
10266,G3,316.0,0.25,127,80.0
10267,D5,316.0,0.25,127,80.0
10268,A4,316.0,0.25,127,80.0
10269,D4,316.0,0.25,127,80.0
10270,A3,316.0,0.25,127,80.0
10271,C4,316.25,0.25,127,80.0
10272,E-2,316.25,0.25,127,80.0
10273,C5,316.25,0.25,127,80.0
10274,C5,316.25,0.25,127,80.0
10275,E-3,316.25,0.25,127,80.0
10276,B-2,316.25,0.25,127,80.0
10277,E-4,316.25,0.25,127,80.0
10278,B-3,316.25,0.25,127,80.0
10279,E-4,316.25,0.25,127,80.0
10280,B-3,316.25,0.25,127,80.0
10281,G#4,316.25,0.25,127,80.0
10282,E-4,316.25,0.25,127,80.0
10283,G#3,316.25,0.25,127,80.0
10284,E-5,316.25,0.25,127,80.0
10285,B-4,316.25,0.25,127,80.0
10286,E-4,316.25,0.25,127,80.0
10287,B-3,316.25,0.25,127,80.0
10288,G3,316.333,333/1000,127,80.0
10289,B1,316.333,333/1000,127,80.0
10290,F3,316.5,0.25,127,80.0
10291,F4,316.5,0.25,127,80.0
10292,F4,316.5,0.25,127,80.0
10293,B3,316.667,583/1000,127,80.0
10294,A3,316.667,583/1000,127,80.0
10295,B1,316.667,583/1000,127,80.0
10296,C4,316.75,0.25,127,80.0
10297,C5,316.75,0.25,127,80.0
10298,C5,316.75,0.25,127,80.0
10299,D4,317.0,0.25,127,80.0
10300,D5,317.0,0.25,127,80.0
10301,D5,317.0,0.25,127,80.0
10302,E-4,317.25,0.25,127,80.0
10303,B1,317.25,0.25,127,80.0
10304,E-5,317.25,0.25,127,80.0
10305,E-5,317.25,0.25,127,80.0
10306,F3,317.5,0.25,127,80.0
10307,F4,317.5,0.25,127,80.0
10308,F4,317.5,0.25,127,80.0
10309,B3,317.5,0.25,127,80.0
10310,A3,317.5,0.25,127,80.0
10311,C5,317.75,0.25,127,80.0
10312,C6,317.75,0.25,127,80.0
10313,C6,317.75,0.25,127,80.0
10314,D3,317.75,0.125,127,80.0
10315,C3,317.75,0.125,127,80.0
10316,D3,317.875,0.125,127,80.0
10317,D5,318.0,0.25,127,80.0
10318,E-2,318.0,0.25,127,80.0
10319,D6,318.0,0.25,127,80.0
10320,D6,318.0,0.25,127,80.0
10321,E-3,318.0,0.25,127,80.0
10322,B-2,318.0,0.25,127,80.0
10323,E-4,318.0,0.25,127,80.0
10324,B-3,318.0,0.25,127,80.0
10325,C3,318.0,0.25,127,80.0
10326,B2,318.0,0.25,127,80.0
10327,E-4,318.0,0.25,127,80.0
10328,B-3,318.0,0.25,127,80.0
10329,E-5,318.0,0.25,127,80.0
10330,B-4,318.0,0.25,127,80.0
10331,E-4,318.0,0.25,127,80.0
10332,B-3,318.0,0.25,127,80.0
10333,E-5,318.25,0.25,127,80.0
10334,D2,318.25,0.25,127,80.0
10335,C3,318.25,0.125,127,80.0
10336,E-6,318.25,0.25,127,80.0
10337,E-6,318.25,0.25,127,80.0
10338,D3,318.25,0.25,127,80.0
10339,A2,318.25,0.25,127,80.0
10340,D4,318.25,0.25,127,80.0
10341,A3,318.25,0.25,127,80.0
10342,D4,318.25,0.25,127,80.0
10343,A3,318.25,0.25,127,80.0
10344,D5,318.25,0.25,127,80.0
10345,A4,318.25,0.25,127,80.0
10346,D4,318.25,0.25,127,80.0
10347,A3,318.25,0.25,127,80.0
10348,D2,318.375,0.125,127,80.0
10349,F4,318.5,0.25,127,80.0
10350,F5,318.5,0.25,127,80.0
10351,F5,318.5,0.25,127,80.0
10352,C#3,318.5,0.25,127,80.0
10353,D2,318.5,0.25,127,80.0
10354,C6,318.75,0.25,127,80.0
10355,D2,318.75,0.125,127,80.0
10356,C7,318.75,0.25,127,80.0
10357,C7,318.75,0.25,127,80.0
10358,B2,318.875,0.125,127,80.0
10359,F4,319.0,0.25,127,80.0
10360,D2,319.0,0.25,127,80.0
10361,F5,319.0,0.25,127,80.0
10362,F5,319.0,0.25,127,80.0
10363,D3,319.0,0.25,127,80.0
10364,A2,319.0,0.25,127,80.0
10365,D4,319.0,0.25,127,80.0
10366,A3,319.0,0.25,127,80.0
10367,A2,319.0,0.25,127,80.0
10368,G2,319.0,0.25,127,80.0
10369,D4,319.0,0.25,127,80.0
10370,A3,319.0,0.25,127,80.0
10371,D5,319.0,0.25,127,80.0
10372,A4,319.0,0.25,127,80.0
10373,D4,319.0,0.25,127,80.0
10374,A3,319.0,0.25,127,80.0
10375,E-5,319.25,0.25,127,80.0
10376,E-2,319.25,0.25,127,80.0
10377,B2,319.25,0.125,127,80.0
10378,E-6,319.25,0.25,127,80.0
10379,E-6,319.25,0.25,127,80.0
10380,E-3,319.25,0.25,127,80.0
10381,B-2,319.25,0.25,127,80.0
10382,E-4,319.25,0.25,127,80.0
10383,B-3,319.25,0.25,127,80.0
10384,E-4,319.25,0.25,127,80.0
10385,B-3,319.25,0.25,127,80.0
10386,E-5,319.25,0.25,127,80.0
10387,B-4,319.25,0.25,127,80.0
10388,E-4,319.25,0.25,127,80.0
10389,B-3,319.25,0.25,127,80.0
10390,G2,319.375,0.125,127,80.0
10391,F2,319.375,0.125,127,80.0
10392,D5,319.5,0.25,127,80.0
10393,D6,319.5,0.25,127,80.0
10394,D6,319.5,0.25,127,80.0
10395,C#3,319.5,0.375,127,80.0
10396,D2,319.5,0.375,127,80.0
10397,C5,319.75,0.25,127,80.0
10398,C6,319.75,0.25,127,80.0
10399,C6,319.75,0.25,127,80.0
10400,F2,319.875,0.125,127,80.0
10401,D2,319.875,0.125,127,80.0
10402,G#3,320.0,0.25,127,80.0
10403,G1,320.0,0.25,127,80.0
10404,G#4,320.0,0.25,127,80.0
10405,G#4,320.0,0.25,127,80.0
10406,G3,320.0,0.25,127,80.0
10407,D3,320.0,0.25,127,80.0
10408,G2,320.0,0.25,127,80.0
10409,G4,320.0,0.25,127,80.0
10410,D4,320.0,0.25,127,80.0
10411,G3,320.0,0.25,127,80.0
10412,B3,320.0,0.25,127,80.0
10413,A3,320.0,0.25,127,80.0
10414,B1,320.0,0.25,127,80.0
10415,G4,320.0,0.25,127,80.0
10416,D4,320.0,0.25,127,80.0
10417,G3,320.0,0.25,127,80.0
10418,G#4,320.0,0.25,127,80.0
10419,E-4,320.0,0.25,127,80.0
10420,G#3,320.0,0.25,127,80.0
10421,G5,320.0,0.25,127,80.0
10422,D5,320.0,0.25,127,80.0
10423,G4,320.0,0.25,127,80.0
10424,G4,320.0,0.25,127,80.0
10425,D4,320.0,0.25,127,80.0
10426,G3,320.0,0.25,127,80.0
10427,D4,320.25,0.25,127,80.0
10428,G#1,320.25,0.25,127,80.0
10429,D5,320.25,0.25,127,80.0
10430,D5,320.25,0.25,127,80.0
10431,G#3,320.25,0.25,127,80.0
10432,E-3,320.25,0.25,127,80.0
10433,G#2,320.25,0.25,127,80.0
10434,G#4,320.25,0.25,127,80.0
10435,E-4,320.25,0.25,127,80.0
10436,G#3,320.25,0.25,127,80.0
10437,B3,320.25,0.5,127,80.0
10438,A3,320.25,0.5,127,80.0
10439,B1,320.25,0.5,127,80.0
10440,G#4,320.25,0.25,127,80.0
10441,E-4,320.25,0.25,127,80.0
10442,G#3,320.25,0.25,127,80.0
10443,G4,320.25,0.25,127,80.0
10444,D4,320.25,0.25,127,80.0
10445,G3,320.25,0.25,127,80.0
10446,G#5,320.25,0.25,127,80.0
10447,E-5,320.25,0.25,127,80.0
10448,G#4,320.25,0.25,127,80.0
10449,G#4,320.25,0.25,127,80.0
10450,E-4,320.25,0.25,127,80.0
10451,G#3,320.25,0.25,127,80.0
10452,G4,320.5,0.25,127,80.0
10453,G5,320.5,0.25,127,80.0
10454,G5,320.5,0.25,127,80.0
10455,G#3,320.75,0.25,127,80.0
10456,G#4,320.75,0.25,127,80.0
10457,G#4,320.75,0.25,127,80.0
10458,B3,320.75,0.5,127,80.0
10459,B1,320.75,0.5,127,80.0
10460,C5,321.0,0.25,127,80.0
10461,C6,321.0,0.25,127,80.0
10462,C6,321.0,0.25,127,80.0
10463,D5,321.25,0.25,127,80.0
10464,D2,321.25,0.25,127,80.0
10465,D6,321.25,0.25,127,80.0
10466,D6,321.25,0.25,127,80.0
10467,G5,321.5,0.25,127,80.0
10468,G6,321.5,0.25,127,80.0
10469,G6,321.5,0.25,127,80.0
10470,B3,321.5,0.125,127,80.0
10471,A3,321.5,0.125,127,80.0
10472,C3,321.625,0.125,127,80.0
10473,G#4,321.75,0.25,127,80.0
10474,G#5,321.75,0.25,127,80.0
10475,G#5,321.75,0.25,127,80.0
10476,B3,321.75,0.25,127,80.0
10477,A3,321.75,0.25,127,80.0
10478,C6,322.0,0.25,127,80.0
10479,C7,322.0,0.25,127,80.0
10480,C7,322.0,0.25,127,80.0
10481,D3,322.0,167/1000,127,80.0
10482,C3,322.0,167/1000,127,80.0
10483,G4,322.0,0.25,127,80.0
10484,D4,322.0,0.25,127,80.0
10485,G3,322.0,0.25,127,80.0
10486,D3,322.167,167/1000,127,80.0
10487,C3,322.167,167/1000,127,80.0
10488,G#4,322.25,0.25,127,80.0
10489,G#5,322.25,0.25,127,80.0
10490,G#5,322.25,0.25,127,80.0
10491,C3,322.333,167/1000,127,80.0
10492,B2,322.333,167/1000,127,80.0
10493,G5,322.5,0.25,127,80.0
10494,G6,322.5,0.25,127,80.0
10495,G6,322.5,0.25,127,80.0
10496,C3,322.5,167/1000,127,80.0
10497,B2,322.5,167/1000,127,80.0
10498,G2,322.667,167/1000,127,80.0
10499,D5,322.75,0.25,127,80.0
10500,D6,322.75,0.25,127,80.0
10501,D6,322.75,0.25,127,80.0
10502,A2,322.833,167/1000,127,80.0
10503,G2,322.833,167/1000,127,80.0
10504,C5,323.0,0.25,127,80.0
10505,D2,323.0,167/1000,127,80.0
10506,C6,323.0,0.25,127,80.0
10507,C6,323.0,0.25,127,80.0
10508,G#4,323.0,0.25,127,80.0
10509,E-4,323.0,0.25,127,80.0
10510,G#3,323.0,0.25,127,80.0
10511,D2,323.167,167/1000,127,80.0
10512,G#3,323.25,0.25,127,80.0
10513,G#4,323.25,0.25,127,80.0
10514,G#4,323.25,0.25,127,80.0
10515,D2,323.333,167/1000,127,80.0
10516,G4,323.5,0.25,127,80.0
10517,B2,323.5,167/1000,127,80.0
10518,G5,323.5,0.25,127,80.0
10519,G5,323.5,0.25,127,80.0
10520,G2,323.667,167/1000,127,80.0
10521,F2,323.667,167/1000,127,80.0
10522,D4,323.75,0.25,127,80.0
10523,D5,323.75,0.25,127,80.0
10524,D5,323.75,0.25,127,80.0
10525,G2,323.833,167/1000,127,80.0
10526,G#3,324.0,0.25,127,80.0
10527,G#1,324.0,0.25,127,80.0
10528,G#4,324.0,0.25,127,80.0
10529,G#4,324.0,0.25,127,80.0
10530,G#3,324.0,0.25,127,80.0
10531,E-3,324.0,0.25,127,80.0
10532,G#2,324.0,0.25,127,80.0
10533,G#4,324.0,0.25,127,80.0
10534,E-4,324.0,0.25,127,80.0
10535,G#3,324.0,0.25,127,80.0
10536,C#3,324.0,0.25,127,80.0
10537,B1,324.0,0.25,127,80.0
10538,G#4,324.0,0.25,127,80.0
10539,E-4,324.0,0.25,127,80.0
10540,G#3,324.0,0.25,127,80.0
10541,D4,324.0,0.125,127,80.0
10542,A3,324.0,0.125,127,80.0
10543,G#5,324.0,0.25,127,80.0
10544,E-5,324.0,0.25,127,80.0
10545,G#4,324.0,0.25,127,80.0
10546,G#4,324.0,0.25,127,80.0
10547,E-4,324.0,0.25,127,80.0
10548,G#3,324.0,0.25,127,80.0
10549,D4,324.125,0.125,127,80.0
10550,A3,324.125,0.125,127,80.0
10551,D4,324.25,0.25,127,80.0
10552,G1,324.25,0.25,127,80.0
10553,D5,324.25,0.25,127,80.0
10554,D5,324.25,0.25,127,80.0
10555,G3,324.25,0.25,127,80.0
10556,D3,324.25,0.25,127,80.0
10557,G2,324.25,0.25,127,80.0
10558,G4,324.25,0.25,127,80.0
10559,D4,324.25,0.25,127,80.0
10560,G3,324.25,0.25,127,80.0
10561,E-3,324.25,0.5,127,80.0
10562,C#3,324.25,0.5,127,80.0
10563,D2,324.25,0.5,127,80.0
10564,B1,324.25,0.5,127,80.0
10565,G4,324.25,0.25,127,80.0
10566,D4,324.25,0.25,127,80.0
10567,G3,324.25,0.25,127,80.0
10568,D4,324.25,0.125,127,80.0
10569,A3,324.25,0.125,127,80.0
10570,G5,324.25,0.25,127,80.0
10571,D5,324.25,0.25,127,80.0
10572,G4,324.25,0.25,127,80.0
10573,G4,324.25,0.25,127,80.0
10574,D4,324.25,0.25,127,80.0
10575,G3,324.25,0.25,127,80.0
10576,D4,324.375,0.125,127,80.0
10577,A3,324.375,0.125,127,80.0
10578,G4,324.5,0.25,127,80.0
10579,G5,324.5,0.25,127,80.0
10580,G5,324.5,0.25,127,80.0
10581,D4,324.5,0.125,127,80.0
10582,A3,324.5,0.125,127,80.0
10583,D4,324.625,0.125,127,80.0
10584,A3,324.625,0.125,127,80.0
10585,G#3,324.75,0.25,127,80.0
10586,G#4,324.75,0.25,127,80.0
10587,G#4,324.75,0.25,127,80.0
10588,E-3,324.75,0.5,127,80.0
10589,B1,324.75,0.5,127,80.0
10590,D4,324.75,0.125,127,80.0
10591,A3,324.75,0.125,127,80.0
10592,D4,324.875,0.125,127,80.0
10593,A3,324.875,0.125,127,80.0
10594,C5,325.0,0.25,127,80.0
10595,C6,325.0,0.25,127,80.0
10596,C6,325.0,0.25,127,80.0
10597,D4,325.0,0.125,127,80.0
10598,A3,325.0,0.125,127,80.0
10599,D4,325.125,0.125,127,80.0
10600,A3,325.125,0.125,127,80.0
10601,D5,325.25,0.25,127,80.0
10602,D2,325.25,0.25,127,80.0
10603,D6,325.25,0.25,127,80.0
10604,D6,325.25,0.25,127,80.0
10605,D4,325.25,0.125,127,80.0
10606,A3,325.25,0.125,127,80.0
10607,D4,325.375,0.125,127,80.0
10608,A3,325.375,0.125,127,80.0
10609,G5,325.5,0.25,127,80.0
10610,E-3,325.5,0.25,127,80.0
10611,G6,325.5,0.25,127,80.0
10612,G6,325.5,0.25,127,80.0
10613,D4,325.5,0.125,127,80.0
10614,A3,325.5,0.125,127,80.0
10615,D4,325.625,0.125,127,80.0
10616,A3,325.625,0.125,127,80.0
10617,G#4,325.75,0.25,127,80.0
10618,D2,325.75,0.25,127,80.0
10619,G#5,325.75,0.25,127,80.0
10620,G#5,325.75,0.25,127,80.0
10621,D4,325.75,0.125,127,80.0
10622,A3,325.75,0.125,127,80.0
10623,D4,325.875,0.125,127,80.0
10624,A3,325.875,0.125,127,80.0
10625,C6,326.0,0.25,127,80.0
10626,G1,326.0,0.25,127,80.0
10627,C7,326.0,0.25,127,80.0
10628,C7,326.0,0.25,127,80.0
10629,G3,326.0,0.25,127,80.0
10630,D3,326.0,0.25,127,80.0
10631,G2,326.0,0.25,127,80.0
10632,G4,326.0,0.25,127,80.0
10633,D4,326.0,0.25,127,80.0
10634,G3,326.0,0.25,127,80.0
10635,E-3,326.0,0.25,127,80.0
10636,C#3,326.0,0.25,127,80.0
10637,B1,326.0,0.25,127,80.0
10638,G4,326.0,0.25,127,80.0
10639,D4,326.0,0.25,127,80.0
10640,G3,326.0,0.25,127,80.0
10641,D4,326.0,0.125,127,80.0
10642,A3,326.0,0.125,127,80.0
10643,G5,326.0,0.25,127,80.0
10644,D5,326.0,0.25,127,80.0
10645,G4,326.0,0.25,127,80.0
10646,G4,326.0,0.25,127,80.0
10647,D4,326.0,0.25,127,80.0
10648,G3,326.0,0.25,127,80.0
10649,D4,326.125,0.125,127,80.0
10650,A3,326.125,0.125,127,80.0
10651,G#4,326.25,0.25,127,80.0
10652,G#5,326.25,0.25,127,80.0
10653,G#5,326.25,0.25,127,80.0
10654,F2,326.25,0.25,127,80.0
10655,D2,326.25,0.25,127,80.0
10656,D4,326.25,0.125,127,80.0
10657,A3,326.25,0.125,127,80.0
10658,D4,326.375,0.125,127,80.0
10659,A3,326.375,0.125,127,80.0
10660,G5,326.5,0.25,127,80.0
10661,E-3,326.5,0.25,127,80.0
10662,G6,326.5,0.25,127,80.0
10663,G6,326.5,0.25,127,80.0
10664,D4,326.5,0.125,127,80.0
10665,A3,326.5,0.125,127,80.0
10666,D4,326.625,0.125,127,80.0
10667,A3,326.625,0.125,127,80.0
10668,D5,326.75,0.25,127,80.0
10669,D6,326.75,0.25,127,80.0
10670,D6,326.75,0.25,127,80.0
10671,C3,326.75,0.25,127,80.0
10672,B2,326.75,0.25,127,80.0
10673,D4,326.75,0.125,127,80.0
10674,A3,326.75,0.125,127,80.0
10675,D4,326.875,0.125,127,80.0
10676,A3,326.875,0.125,127,80.0
10677,C5,327.0,0.25,127,80.0
10678,G#1,327.0,0.25,127,80.0
10679,C6,327.0,0.25,127,80.0
10680,C6,327.0,0.25,127,80.0
10681,G#3,327.0,0.25,127,80.0
10682,E-3,327.0,0.25,127,80.0
10683,G#2,327.0,0.25,127,80.0
10684,G#4,327.0,0.25,127,80.0
10685,E-4,327.0,0.25,127,80.0
10686,G#3,327.0,0.25,127,80.0
10687,E-3,327.0,0.25,127,80.0
10688,C#3,327.0,0.25,127,80.0
10689,B2,327.0,0.25,127,80.0
10690,G#4,327.0,0.25,127,80.0
10691,E-4,327.0,0.25,127,80.0
10692,G#3,327.0,0.25,127,80.0
10693,D4,327.0,0.125,127,80.0
10694,A3,327.0,0.125,127,80.0
10695,G#5,327.0,0.25,127,80.0
10696,E-5,327.0,0.25,127,80.0
10697,G#4,327.0,0.25,127,80.0
10698,G#4,327.0,0.25,127,80.0
10699,E-4,327.0,0.25,127,80.0
10700,G#3,327.0,0.25,127,80.0
10701,D4,327.125,0.125,127,80.0
10702,A3,327.125,0.125,127,80.0
10703,G#3,327.25,0.25,127,80.0
10704,G2,327.25,0.125,127,80.0
10705,G#4,327.25,0.25,127,80.0
10706,G#4,327.25,0.25,127,80.0
10707,D4,327.25,0.125,127,80.0
10708,A3,327.25,0.125,127,80.0
10709,A2,327.375,0.125,127,80.0
10710,D4,327.375,0.125,127,80.0
10711,A3,327.375,0.125,127,80.0
10712,G4,327.5,0.25,127,80.0
10713,G5,327.5,0.25,127,80.0
10714,G5,327.5,0.25,127,80.0
10715,G2,327.5,0.25,127,80.0
10716,F2,327.5,0.25,127,80.0
10717,D4,327.5,0.125,127,80.0
10718,A3,327.5,0.125,127,80.0
10719,D4,327.625,0.125,127,80.0
10720,A3,327.625,0.125,127,80.0
10721,D4,327.75,0.25,127,80.0
10722,D5,327.75,0.25,127,80.0
10723,D5,327.75,0.25,127,80.0
10724,E-3,327.75,0.125,127,80.0
10725,C#3,327.75,0.125,127,80.0
10726,D4,327.75,0.125,127,80.0
10727,A3,327.75,0.125,127,80.0
10728,D2,327.875,0.125,127,80.0
10729,D4,327.875,31/250,127,80.0
10730,A3,327.875,31/250,127,80.0
10731,F3,328.0,0.25,127,80.0
10732,F4,328.0,0.25,127,80.0
10733,F4,328.0,0.25,127,80.0
10734,D3,328.0,4.0,127,80.0
10735,A2,328.0,4.0,127,80.0
10736,D4,328.0,4.0,127,80.0
10737,A3,328.0,4.0,127,80.0
10738,D2,328.0,4.0,127,80.0
10739,D1,328.0,4.0,127,80.0
10740,A3,328.0,0.5,127,80.0
10741,D2,328.0,0.5,127,80.0
10742,B1,328.0,0.5,127,80.0
10743,D4,328.0,4.0,127,80.0
10744,A3,328.0,4.0,127,80.0
10745,D4,328.0,0.25,127,80.0
10746,A3,328.0,0.25,127,80.0
10747,D5,328.0,0.125,127,80.0
10748,A4,328.0,0.125,127,80.0
10749,D4,328.0,4.0,127,80.0
10750,A3,328.0,4.0,127,80.0
10751,D5,328.125,0.125,127,80.0
10752,A4,328.125,0.125,127,80.0
10753,C4,328.25,0.25,127,80.0
10754,C5,328.25,0.25,127,80.0
10755,C5,328.25,0.25,127,80.0
10756,E-4,328.25,0.25,127,80.0
10757,B-3,328.25,0.25,127,80.0
10758,D5,328.25,0.125,127,80.0
10759,A4,328.25,0.125,127,80.0
10760,D5,328.375,0.125,127,80.0
10761,A4,328.375,0.125,127,80.0
10762,D4,328.5,0.25,127,80.0
10763,B3,328.5,0.25,127,80.0
10764,D5,328.5,0.25,127,80.0
10765,D5,328.5,0.25,127,80.0
10766,D5,328.5,0.125,127,80.0
10767,A4,328.5,0.125,127,80.0
10768,D5,328.625,0.125,127,80.0
10769,A4,328.625,0.125,127,80.0
10770,E-4,328.75,0.25,127,80.0
10771,B1,328.75,0.25,127,80.0
10772,E-5,328.75,0.25,127,80.0
10773,E-5,328.75,0.25,127,80.0
10774,D5,328.75,0.125,127,80.0
10775,A4,328.75,0.125,127,80.0
10776,D5,328.875,0.125,127,80.0
10777,A4,328.875,0.125,127,80.0
10778,F3,329.0,0.25,127,80.0
10779,F4,329.0,0.25,127,80.0
10780,F4,329.0,0.25,127,80.0
10781,F3,329.0,0.25,127,80.0
10782,D2,329.0,0.25,127,80.0
10783,D5,329.0,0.125,127,80.0
10784,A4,329.0,0.125,127,80.0
10785,D5,329.125,0.125,127,80.0
10786,A4,329.125,0.125,127,80.0
10787,C5,329.25,0.25,127,80.0
10788,F3,329.25,0.25,127,80.0
10789,C6,329.25,0.25,127,80.0
10790,C6,329.25,0.25,127,80.0
10791,D5,329.25,0.125,127,80.0
10792,A4,329.25,0.125,127,80.0
10793,D5,329.375,0.125,127,80.0
10794,A4,329.375,0.125,127,80.0
10795,D5,329.5,0.25,127,80.0
10796,B3,329.5,0.25,127,80.0
10797,D6,329.5,0.25,127,80.0
10798,D6,329.5,0.25,127,80.0
10799,D5,329.5,0.125,127,80.0
10800,A4,329.5,0.125,127,80.0
10801,D5,329.625,0.125,127,80.0
10802,A4,329.625,0.125,127,80.0
10803,E-5,329.75,0.25,127,80.0
10804,B1,329.75,0.25,127,80.0
10805,E-6,329.75,0.25,127,80.0
10806,E-6,329.75,0.25,127,80.0
10807,D5,329.75,0.125,127,80.0
10808,A4,329.75,0.125,127,80.0
10809,D5,329.875,0.125,127,80.0
10810,A4,329.875,0.125,127,80.0
10811,F4,330.0,0.25,127,80.0
10812,F5,330.0,0.25,127,80.0
10813,F5,330.0,0.25,127,80.0
10814,F3,330.0,0.25,127,80.0
10815,B1,330.0,0.25,127,80.0
10816,E-4,330.0,0.25,127,80.0
10817,B-3,330.0,0.25,127,80.0
10818,D5,330.0,0.125,127,80.0
10819,A4,330.0,0.125,127,80.0
10820,D5,330.125,0.125,127,80.0
10821,A4,330.125,0.125,127,80.0
10822,C6,330.25,0.25,127,80.0
10823,F3,330.25,0.25,127,80.0
10824,C7,330.25,0.25,127,80.0
10825,C7,330.25,0.25,127,80.0
10826,D4,330.25,0.25,127,80.0
10827,A3,330.25,0.25,127,80.0
10828,D5,330.25,0.125,127,80.0
10829,A4,330.25,0.125,127,80.0
10830,D5,330.375,0.125,127,80.0
10831,A4,330.375,0.125,127,80.0
10832,F4,330.5,0.25,127,80.0
10833,B3,330.5,0.25,127,80.0
10834,F5,330.5,0.25,127,80.0
10835,F5,330.5,0.25,127,80.0
10836,D5,330.5,0.125,127,80.0
10837,A4,330.5,0.125,127,80.0
10838,D5,330.625,0.125,127,80.0
10839,A4,330.625,0.125,127,80.0
10840,E-5,330.75,0.25,127,80.0
10841,B1,330.75,0.25,127,80.0
10842,E-6,330.75,0.25,127,80.0
10843,E-6,330.75,0.25,127,80.0
10844,D5,330.75,0.125,127,80.0
10845,A4,330.75,0.125,127,80.0
10846,D5,330.875,0.125,127,80.0
10847,A4,330.875,0.125,127,80.0
10848,D5,331.0,0.25,127,80.0
10849,D6,331.0,0.25,127,80.0
10850,D6,331.0,0.25,127,80.0
10851,F3,331.0,0.25,127,80.0
10852,D2,331.0,0.25,127,80.0
10853,D4,331.0,0.25,127,80.0
10854,A3,331.0,0.25,127,80.0
10855,D5,331.0,0.125,127,80.0
10856,A4,331.0,0.125,127,80.0
10857,D5,331.125,0.125,127,80.0
10858,A4,331.125,0.125,127,80.0
10859,C5,331.25,0.25,127,80.0
10860,F3,331.25,0.25,127,80.0
10861,C6,331.25,0.25,127,80.0
10862,C6,331.25,0.25,127,80.0
10863,E-4,331.25,0.25,127,80.0
10864,B-3,331.25,0.25,127,80.0
10865,D5,331.25,0.125,127,80.0
10866,A4,331.25,0.125,127,80.0
10867,D5,331.375,0.125,127,80.0
10868,A4,331.375,0.125,127,80.0
10869,F3,331.5,0.25,127,80.0
10870,B3,331.5,0.25,127,80.0
10871,F4,331.5,0.25,127,80.0
10872,F4,331.5,0.25,127,80.0
10873,D5,331.5,0.125,127,80.0
10874,A4,331.5,0.125,127,80.0
10875,D5,331.625,0.125,127,80.0
10876,A4,331.625,0.125,127,80.0
10877,E-4,331.75,0.25,127,80.0
10878,B1,331.75,0.25,127,80.0
10879,E-5,331.75,0.25,127,80.0
10880,E-5,331.75,0.25,127,80.0
10881,D5,331.75,0.125,127,80.0
10882,A4,331.75,0.125,127,80.0
10883,D5,331.875,31/250,127,80.0
10884,A4,331.875,31/250,127,80.0
10885,D4,332.0,0.25,127,80.0
10886,D2,332.0,0.25,127,80.0
10887,D5,332.0,0.25,127,80.0
10888,D5,332.0,0.25,127,80.0
10889,D3,332.0,0.25,127,80.0
10890,A2,332.0,0.25,127,80.0
10891,D4,332.0,0.25,127,80.0
10892,A3,332.0,0.25,127,80.0
10893,A3,332.0,0.25,127,80.0
10894,D2,332.0,0.25,127,80.0
10895,D4,332.0,0.25,127,80.0
10896,A3,332.0,0.25,127,80.0
10897,G4,332.0,0.25,127,80.0
10898,D4,332.0,0.25,127,80.0
10899,G3,332.0,0.25,127,80.0
10900,D5,332.0,0.25,127,80.0
10901,A4,332.0,0.25,127,80.0
10902,D4,332.0,0.25,127,80.0
10903,A3,332.0,0.25,127,80.0
10904,C4,332.25,0.25,127,80.0
10905,E-2,332.25,0.25,127,80.0
10906,D2,332.25,167/1000,127,80.0
10907,C5,332.25,0.25,127,80.0
10908,C5,332.25,0.25,127,80.0
10909,E-3,332.25,0.25,127,80.0
10910,B-2,332.25,0.25,127,80.0
10911,E-4,332.25,0.25,127,80.0
10912,B-3,332.25,0.25,127,80.0
10913,E-4,332.25,0.25,127,80.0
10914,B-3,332.25,0.25,127,80.0
10915,G#4,332.25,0.25,127,80.0
10916,E-4,332.25,0.25,127,80.0
10917,G#3,332.25,0.25,127,80.0
10918,E-5,332.25,0.25,127,80.0
10919,B-4,332.25,0.25,127,80.0
10920,E-4,332.25,0.25,127,80.0
10921,B-3,332.25,0.25,127,80.0
10922,D2,332.417,167/1000,127,80.0
10923,F3,332.5,0.25,127,80.0
10924,F4,332.5,0.25,127,80.0
10925,F4,332.5,0.25,127,80.0
10926,D2,332.583,167/1000,127,80.0
10927,C4,332.75,0.25,127,80.0
10928,C5,332.75,0.25,127,80.0
10929,C5,332.75,0.25,127,80.0
10930,C3,332.75,0.25,127,80.0
10931,B2,332.75,0.25,127,80.0
10932,B1,332.75,0.25,127,80.0
10933,D4,333.0,0.25,127,80.0
10934,D5,333.0,0.25,127,80.0
10935,D5,333.0,0.25,127,80.0
10936,E-3,333.0,0.25,127,80.0
10937,C#3,333.0,0.25,127,80.0
10938,B1,333.0,0.25,127,80.0
10939,E-4,333.25,0.25,127,80.0
10940,E-5,333.25,0.25,127,80.0
10941,E-5,333.25,0.25,127,80.0
10942,E-3,333.25,0.25,127,80.0
10943,C#3,333.25,0.25,127,80.0
10944,B1,333.25,0.25,127,80.0
10945,F3,333.5,0.25,127,80.0
10946,F4,333.5,0.25,127,80.0
10947,F4,333.5,0.25,127,80.0
10948,E-3,333.5,0.25,127,80.0
10949,C#3,333.5,0.25,127,80.0
10950,B1,333.5,0.25,127,80.0
10951,C5,333.75,0.25,127,80.0
10952,C6,333.75,0.25,127,80.0
10953,C6,333.75,0.25,127,80.0
10954,E-3,333.75,0.25,127,80.0
10955,C#3,333.75,0.25,127,80.0
10956,B1,333.75,0.25,127,80.0
10957,D5,334.0,0.25,127,80.0
10958,E-2,334.0,0.25,127,80.0
10959,D6,334.0,0.25,127,80.0
10960,D6,334.0,0.25,127,80.0
10961,E-3,334.0,0.25,127,80.0
10962,B-2,334.0,0.25,127,80.0
10963,E-4,334.0,0.25,127,80.0
10964,B-3,334.0,0.25,127,80.0
10965,E-3,334.0,0.25,127,80.0
10966,C#3,334.0,0.25,127,80.0
10967,B1,334.0,0.25,127,80.0
10968,E-4,334.0,0.25,127,80.0
10969,B-3,334.0,0.25,127,80.0
10970,E-5,334.0,0.25,127,80.0
10971,B-4,334.0,0.25,127,80.0
10972,E-4,334.0,0.25,127,80.0
10973,B-3,334.0,0.25,127,80.0
10974,E-5,334.25,0.25,127,80.0
10975,D2,334.25,0.25,127,80.0
10976,D2,334.25,0.25,127,80.0
10977,E-6,334.25,0.25,127,80.0
10978,E-6,334.25,0.25,127,80.0
10979,D3,334.25,0.25,127,80.0
10980,A2,334.25,0.25,127,80.0
10981,D4,334.25,0.25,127,80.0
10982,A3,334.25,0.25,127,80.0
10983,D4,334.25,0.25,127,80.0
10984,A3,334.25,0.25,127,80.0
10985,D5,334.25,0.25,127,80.0
10986,A4,334.25,0.25,127,80.0
10987,D4,334.25,0.25,127,80.0
10988,A3,334.25,0.25,127,80.0
10989,F4,334.5,0.25,127,80.0
10990,F5,334.5,0.25,127,80.0
10991,F5,334.5,0.25,127,80.0
10992,E-3,334.5,0.25,127,80.0
10993,C#3,334.5,0.25,127,80.0
10994,C6,334.75,0.25,127,80.0
10995,C7,334.75,0.25,127,80.0
10996,C7,334.75,0.25,127,80.0
10997,C3,334.75,0.25,127,80.0
10998,B2,334.75,0.25,127,80.0
10999,F4,335.0,0.25,127,80.0
11000,D2,335.0,0.25,127,80.0
11001,B2,335.0,0.125,127,80.0
11002,F5,335.0,0.25,127,80.0
11003,F5,335.0,0.25,127,80.0
11004,D3,335.0,0.25,127,80.0
11005,A2,335.0,0.25,127,80.0
11006,D4,335.0,0.25,127,80.0
11007,A3,335.0,0.25,127,80.0
11008,D4,335.0,0.25,127,80.0
11009,A3,335.0,0.25,127,80.0
11010,D5,335.0,0.25,127,80.0
11011,A4,335.0,0.25,127,80.0
11012,D4,335.0,0.25,127,80.0
11013,A3,335.0,0.25,127,80.0
11014,B2,335.125,0.125,127,80.0
11015,E-5,335.25,0.25,127,80.0
11016,E-2,335.25,0.25,127,80.0
11017,A2,335.25,0.125,127,80.0
11018,E-6,335.25,0.25,127,80.0
11019,E-6,335.25,0.25,127,80.0
11020,E-3,335.25,0.25,127,80.0
11021,B-2,335.25,0.25,127,80.0
11022,E-4,335.25,0.25,127,80.0
11023,B-3,335.25,0.25,127,80.0
11024,E-4,335.25,0.25,127,80.0
11025,B-3,335.25,0.25,127,80.0
11026,E-5,335.25,0.25,127,80.0
11027,B-4,335.25,0.25,127,80.0
11028,E-4,335.25,0.25,127,80.0
11029,B-3,335.25,0.25,127,80.0
11030,A2,335.375,0.125,127,80.0
11031,D5,335.5,0.25,127,80.0
11032,G2,335.5,0.125,127,80.0
11033,D6,335.5,0.25,127,80.0
11034,D6,335.5,0.25,127,80.0
11035,G2,335.625,0.125,127,80.0
11036,C5,335.75,0.25,127,80.0
11037,F2,335.75,0.125,127,80.0
11038,C6,335.75,0.25,127,80.0
11039,C6,335.75,0.25,127,80.0
11040,F2,335.875,0.125,127,80.0
11041,G#3,336.0,0.25,127,80.0
11042,G1,336.0,0.25,127,80.0
11043,G#4,336.0,0.25,127,80.0
11044,G#4,336.0,0.25,127,80.0
11045,G3,336.0,0.25,127,80.0
11046,D3,336.0,0.25,127,80.0
11047,G2,336.0,0.25,127,80.0
11048,G4,336.0,0.25,127,80.0
11049,D4,336.0,0.25,127,80.0
11050,G3,336.0,0.25,127,80.0
11051,E-3,336.0,0.25,127,80.0
11052,C#3,336.0,0.25,127,80.0
11053,B1,336.0,0.25,127,80.0
11054,G4,336.0,0.25,127,80.0
11055,D4,336.0,0.25,127,80.0
11056,G3,336.0,0.25,127,80.0
11057,G#4,336.0,0.25,127,80.0
11058,E-4,336.0,0.25,127,80.0
11059,G#3,336.0,0.25,127,80.0
11060,G5,336.0,0.25,127,80.0
11061,D5,336.0,0.25,127,80.0
11062,G4,336.0,0.25,127,80.0
11063,G4,336.0,0.25,127,80.0
11064,D4,336.0,0.25,127,80.0
11065,G3,336.0,0.25,127,80.0
11066,D4,336.25,0.25,127,80.0
11067,G#1,336.25,0.25,127,80.0
11068,D5,336.25,0.25,127,80.0
11069,D5,336.25,0.25,127,80.0
11070,G#3,336.25,0.25,127,80.0
11071,E-3,336.25,0.25,127,80.0
11072,G#2,336.25,0.25,127,80.0
11073,G#4,336.25,0.25,127,80.0
11074,E-4,336.25,0.25,127,80.0
11075,G#3,336.25,0.25,127,80.0
11076,E-3,336.25,0.5,127,80.0
11077,C#3,336.25,0.5,127,80.0
11078,B1,336.25,0.5,127,80.0
11079,G#4,336.25,0.25,127,80.0
11080,E-4,336.25,0.25,127,80.0
11081,G#3,336.25,0.25,127,80.0
11082,G4,336.25,0.25,127,80.0
11083,D4,336.25,0.25,127,80.0
11084,G3,336.25,0.25,127,80.0
11085,G#5,336.25,0.25,127,80.0
11086,E-5,336.25,0.25,127,80.0
11087,G#4,336.25,0.25,127,80.0
11088,G#4,336.25,0.25,127,80.0
11089,E-4,336.25,0.25,127,80.0
11090,G#3,336.25,0.25,127,80.0
11091,G4,336.5,0.25,127,80.0
11092,G5,336.5,0.25,127,80.0
11093,G5,336.5,0.25,127,80.0
11094,G#3,336.75,0.25,127,80.0
11095,G#4,336.75,0.25,127,80.0
11096,G#4,336.75,0.25,127,80.0
11097,E-3,336.75,0.5,127,80.0
11098,B1,336.75,0.5,127,80.0
11099,C5,337.0,0.25,127,80.0
11100,C6,337.0,0.25,127,80.0
11101,C6,337.0,0.25,127,80.0
11102,D5,337.25,0.25,127,80.0
11103,D2,337.25,0.25,127,80.0
11104,D6,337.25,0.25,127,80.0
11105,D6,337.25,0.25,127,80.0
11106,G5,337.5,0.25,127,80.0
11107,G6,337.5,0.25,127,80.0
11108,G6,337.5,0.25,127,80.0
11109,E-3,337.5,0.25,127,80.0
11110,D2,337.5,0.25,127,80.0
11111,G#4,337.75,0.25,127,80.0
11112,E-3,337.75,0.25,127,80.0
11113,G#5,337.75,0.25,127,80.0
11114,G#5,337.75,0.25,127,80.0
11115,C6,338.0,0.25,127,80.0
11116,C7,338.0,0.25,127,80.0
11117,C7,338.0,0.25,127,80.0
11118,D3,338.0,167/1000,127,80.0
11119,C3,338.0,167/1000,127,80.0
11120,G4,338.0,0.25,127,80.0
11121,D4,338.0,0.25,127,80.0
11122,G3,338.0,0.25,127,80.0
11123,D3,338.167,167/1000,127,80.0
11124,G#4,338.25,0.25,127,80.0
11125,G#5,338.25,0.25,127,80.0
11126,G#5,338.25,0.25,127,80.0
11127,C3,338.333,167/1000,127,80.0
11128,B2,338.333,167/1000,127,80.0
11129,G5,338.5,0.25,127,80.0
11130,G6,338.5,0.25,127,80.0
11131,G6,338.5,0.25,127,80.0
11132,D3,338.5,167/1000,127,80.0
11133,C3,338.5,167/1000,127,80.0
11134,B2,338.667,167/1000,127,80.0
11135,A2,338.667,167/1000,127,80.0
11136,D5,338.75,0.25,127,80.0
11137,D6,338.75,0.25,127,80.0
11138,D6,338.75,0.25,127,80.0
11139,B2,338.833,167/1000,127,80.0
11140,C5,339.0,0.25,127,80.0
11141,C6,339.0,0.25,127,80.0
11142,C6,339.0,0.25,127,80.0
11143,G2,339.0,333/1000,127,80.0
11144,F2,339.0,333/1000,127,80.0
11145,G#4,339.0,0.25,127,80.0
11146,E-4,339.0,0.25,127,80.0
11147,G#3,339.0,0.25,127,80.0
11148,G#3,339.25,0.25,127,80.0
11149,G#4,339.25,0.25,127,80.0
11150,G#4,339.25,0.25,127,80.0
11151,G2,339.333,333/1000,127,80.0
11152,F2,339.333,333/1000,127,80.0
11153,G4,339.5,0.25,127,80.0
11154,G5,339.5,0.25,127,80.0
11155,G5,339.5,0.25,127,80.0
11156,F2,339.667,333/1000,127,80.0
11157,D4,339.75,0.25,127,80.0
11158,D5,339.75,0.25,127,80.0
11159,D5,339.75,0.25,127,80.0
11160,G#3,340.0,0.25,127,80.0
11161,G#1,340.0,0.25,127,80.0
11162,G#4,340.0,0.25,127,80.0
11163,G#4,340.0,0.25,127,80.0
11164,G#3,340.0,0.25,127,80.0
11165,E-3,340.0,0.25,127,80.0
11166,G#2,340.0,0.25,127,80.0
11167,G#4,340.0,0.25,127,80.0
11168,E-4,340.0,0.25,127,80.0
11169,G#3,340.0,0.25,127,80.0
11170,E-3,340.0,0.25,127,80.0
11171,C#3,340.0,0.25,127,80.0
11172,B1,340.0,0.25,127,80.0
11173,G#4,340.0,0.25,127,80.0
11174,E-4,340.0,0.25,127,80.0
11175,G#3,340.0,0.25,127,80.0
11176,D4,340.0,0.125,127,80.0
11177,A3,340.0,0.125,127,80.0
11178,G#5,340.0,0.25,127,80.0
11179,E-5,340.0,0.25,127,80.0
11180,G#4,340.0,0.25,127,80.0
11181,G#4,340.0,0.25,127,80.0
11182,E-4,340.0,0.25,127,80.0
11183,G#3,340.0,0.25,127,80.0
11184,D4,340.125,0.125,127,80.0
11185,A3,340.125,0.125,127,80.0
11186,D4,340.25,0.25,127,80.0
11187,G1,340.25,0.25,127,80.0
11188,D5,340.25,0.25,127,80.0
11189,D5,340.25,0.25,127,80.0
11190,G3,340.25,0.25,127,80.0
11191,D3,340.25,0.25,127,80.0
11192,G2,340.25,0.25,127,80.0
11193,G4,340.25,0.25,127,80.0
11194,D4,340.25,0.25,127,80.0
11195,G3,340.25,0.25,127,80.0
11196,E-3,340.25,0.5,127,80.0
11197,C#3,340.25,0.5,127,80.0
11198,B1,340.25,0.5,127,80.0
11199,G4,340.25,0.25,127,80.0
11200,D4,340.25,0.25,127,80.0
11201,G3,340.25,0.25,127,80.0
11202,D4,340.25,0.125,127,80.0
11203,A3,340.25,0.125,127,80.0
11204,G5,340.25,0.25,127,80.0
11205,D5,340.25,0.25,127,80.0
11206,G4,340.25,0.25,127,80.0
11207,G4,340.25,0.25,127,80.0
11208,D4,340.25,0.25,127,80.0
11209,G3,340.25,0.25,127,80.0
11210,D4,340.375,0.125,127,80.0
11211,A3,340.375,0.125,127,80.0
11212,G4,340.5,0.25,127,80.0
11213,G5,340.5,0.25,127,80.0
11214,G5,340.5,0.25,127,80.0
11215,D4,340.5,0.125,127,80.0
11216,A3,340.5,0.125,127,80.0
11217,D4,340.625,0.125,127,80.0
11218,A3,340.625,0.125,127,80.0
11219,G#3,340.75,0.25,127,80.0
11220,G#4,340.75,0.25,127,80.0
11221,G#4,340.75,0.25,127,80.0
11222,E-3,340.75,0.5,127,80.0
11223,B1,340.75,0.5,127,80.0
11224,D4,340.75,0.125,127,80.0
11225,A3,340.75,0.125,127,80.0
11226,D4,340.875,0.125,127,80.0
11227,A3,340.875,0.125,127,80.0
11228,C5,341.0,0.25,127,80.0
11229,C6,341.0,0.25,127,80.0
11230,C6,341.0,0.25,127,80.0
11231,D4,341.0,0.125,127,80.0
11232,A3,341.0,0.125,127,80.0
11233,D4,341.125,0.125,127,80.0
11234,A3,341.125,0.125,127,80.0
11235,D5,341.25,0.25,127,80.0
11236,D2,341.25,0.25,127,80.0
11237,D6,341.25,0.25,127,80.0
11238,D6,341.25,0.25,127,80.0
11239,D4,341.25,0.125,127,80.0
11240,A3,341.25,0.125,127,80.0
11241,D4,341.375,0.125,127,80.0
11242,A3,341.375,0.125,127,80.0
11243,G5,341.5,0.25,127,80.0
11244,F3,341.5,0.25,127,80.0
11245,G6,341.5,0.25,127,80.0
11246,G6,341.5,0.25,127,80.0
11247,D4,341.5,0.125,127,80.0
11248,A3,341.5,0.125,127,80.0
11249,D4,341.625,0.125,127,80.0
11250,A3,341.625,0.125,127,80.0
11251,G#4,341.75,0.25,127,80.0
11252,B1,341.75,0.25,127,80.0
11253,G#5,341.75,0.25,127,80.0
11254,G#5,341.75,0.25,127,80.0
11255,D4,341.75,0.125,127,80.0
11256,A3,341.75,0.125,127,80.0
11257,D4,341.875,0.125,127,80.0
11258,A3,341.875,0.125,127,80.0
11259,C6,342.0,0.25,127,80.0
11260,G1,342.0,0.25,127,80.0
11261,C7,342.0,0.25,127,80.0
11262,C7,342.0,0.25,127,80.0
11263,G3,342.0,0.25,127,80.0
11264,D3,342.0,0.25,127,80.0
11265,G2,342.0,0.25,127,80.0
11266,G4,342.0,0.25,127,80.0
11267,D4,342.0,0.25,127,80.0
11268,G3,342.0,0.25,127,80.0
11269,F3,342.0,0.25,127,80.0
11270,E3,342.0,0.25,127,80.0
11271,B1,342.0,0.25,127,80.0
11272,G4,342.0,0.25,127,80.0
11273,D4,342.0,0.25,127,80.0
11274,G3,342.0,0.25,127,80.0
11275,D4,342.0,0.125,127,80.0
11276,A3,342.0,0.125,127,80.0
11277,G5,342.0,0.25,127,80.0
11278,D5,342.0,0.25,127,80.0
11279,G4,342.0,0.25,127,80.0
11280,G4,342.0,0.25,127,80.0
11281,D4,342.0,0.25,127,80.0
11282,G3,342.0,0.25,127,80.0
11283,D4,342.125,0.125,127,80.0
11284,A3,342.125,0.125,127,80.0
11285,G#4,342.25,0.25,127,80.0
11286,D2,342.25,0.25,127,80.0
11287,G#5,342.25,0.25,127,80.0
11288,G#5,342.25,0.25,127,80.0
11289,D4,342.25,0.125,127,80.0
11290,A3,342.25,0.125,127,80.0
11291,D4,342.375,0.125,127,80.0
11292,A3,342.375,0.125,127,80.0
11293,G5,342.5,0.25,127,80.0
11294,G6,342.5,0.25,127,80.0
11295,G6,342.5,0.25,127,80.0
11296,F3,342.5,0.25,127,80.0
11297,E3,342.5,0.25,127,80.0
11298,D4,342.5,0.125,127,80.0
11299,A3,342.5,0.125,127,80.0
11300,D4,342.625,0.125,127,80.0
11301,A3,342.625,0.125,127,80.0
11302,D5,342.75,0.25,127,80.0
11303,E-3,342.75,0.25,127,80.0
11304,D6,342.75,0.25,127,80.0
11305,D6,342.75,0.25,127,80.0
11306,D4,342.75,0.125,127,80.0
11307,A3,342.75,0.125,127,80.0
11308,D4,342.875,0.125,127,80.0
11309,A3,342.875,0.125,127,80.0
11310,C5,343.0,0.25,127,80.0
11311,G#1,343.0,0.25,127,80.0
11312,C6,343.0,0.25,127,80.0
11313,C6,343.0,0.25,127,80.0
11314,G#3,343.0,0.25,127,80.0
11315,E-3,343.0,0.25,127,80.0
11316,G#2,343.0,0.25,127,80.0
11317,G#4,343.0,0.25,127,80.0
11318,E-4,343.0,0.25,127,80.0
11319,G#3,343.0,0.25,127,80.0
11320,B3,343.0,0.25,127,80.0
11321,A3,343.0,0.25,127,80.0
11322,G#4,343.0,0.25,127,80.0
11323,E-4,343.0,0.25,127,80.0
11324,G#3,343.0,0.25,127,80.0
11325,D4,343.0,0.125,127,80.0
11326,A3,343.0,0.125,127,80.0
11327,G#5,343.0,0.25,127,80.0
11328,E-5,343.0,0.25,127,80.0
11329,G#4,343.0,0.25,127,80.0
11330,G#4,343.0,0.25,127,80.0
11331,E-4,343.0,0.25,127,80.0
11332,G#3,343.0,0.25,127,80.0
11333,D4,343.125,0.125,127,80.0
11334,A3,343.125,0.125,127,80.0
11335,G#3,343.25,0.25,127,80.0
11336,G2,343.25,0.25,127,80.0
11337,G#4,343.25,0.25,127,80.0
11338,G#4,343.25,0.25,127,80.0
11339,D4,343.25,0.125,127,80.0
11340,A3,343.25,0.125,127,80.0
11341,D4,343.375,0.125,127,80.0
11342,A3,343.375,0.125,127,80.0
11343,G4,343.5,0.25,127,80.0
11344,G5,343.5,0.25,127,80.0
11345,G5,343.5,0.25,127,80.0
11346,B3,343.5,0.25,127,80.0
11347,A3,343.5,0.25,127,80.0
11348,D4,343.5,0.125,127,80.0
11349,A3,343.5,0.125,127,80.0
11350,D4,343.625,0.125,127,80.0
11351,A3,343.625,0.125,127,80.0
11352,D4,343.75,0.25,127,80.0
11353,D5,343.75,0.25,127,80.0
11354,D5,343.75,0.25,127,80.0
11355,F2,343.75,0.25,127,80.0
11356,D2,343.75,0.25,127,80.0
11357,D4,343.75,0.125,127,80.0
11358,A3,343.75,0.125,127,80.0
11359,D4,343.875,31/250,127,80.0
11360,A3,343.875,31/250,127,80.0
11361,F3,344.0,0.25,127,80.0
11362,F4,344.0,0.25,127,80.0
11363,F4,344.0,0.25,127,80.0
11364,D3,344.0,4.0,127,80.0
11365,A2,344.0,4.0,127,80.0
11366,D4,344.0,4.0,127,80.0
11367,A3,344.0,4.0,127,80.0
11368,D2,344.0,4.0,127,80.0
11369,D1,344.0,4.0,127,80.0
11370,B3,344.0,0.5,127,80.0
11371,A3,344.0,0.5,127,80.0
11372,B1,344.0,0.5,127,80.0
11373,D4,344.0,4.0,127,80.0
11374,A3,344.0,4.0,127,80.0
11375,D4,344.0,0.25,127,80.0
11376,A3,344.0,0.25,127,80.0
11377,D5,344.0,0.125,127,80.0
11378,A4,344.0,0.125,127,80.0
11379,D4,344.0,4.0,127,80.0
11380,A3,344.0,4.0,127,80.0
11381,D5,344.125,0.125,127,80.0
11382,A4,344.125,0.125,127,80.0
11383,C4,344.25,0.25,127,80.0
11384,C5,344.25,0.25,127,80.0
11385,C5,344.25,0.25,127,80.0
11386,E-4,344.25,0.25,127,80.0
11387,B-3,344.25,0.25,127,80.0
11388,D5,344.25,0.125,127,80.0
11389,A4,344.25,0.125,127,80.0
11390,D5,344.375,0.125,127,80.0
11391,A4,344.375,0.125,127,80.0
11392,D4,344.5,0.25,127,80.0
11393,B3,344.5,0.25,127,80.0
11394,D5,344.5,0.25,127,80.0
11395,D5,344.5,0.25,127,80.0
11396,D5,344.5,0.125,127,80.0
11397,A4,344.5,0.125,127,80.0
11398,D5,344.625,0.125,127,80.0
11399,A4,344.625,0.125,127,80.0
11400,E-4,344.75,0.25,127,80.0
11401,B1,344.75,0.25,127,80.0
11402,E-5,344.75,0.25,127,80.0
11403,E-5,344.75,0.25,127,80.0
11404,D5,344.75,0.125,127,80.0
11405,A4,344.75,0.125,127,80.0
11406,D5,344.875,0.125,127,80.0
11407,A4,344.875,0.125,127,80.0
11408,F3,345.0,0.25,127,80.0
11409,F4,345.0,0.25,127,80.0
11410,F4,345.0,0.25,127,80.0
11411,B3,345.0,0.5,127,80.0
11412,D2,345.0,0.5,127,80.0
11413,D5,345.0,0.125,127,80.0
11414,A4,345.0,0.125,127,80.0
11415,D5,345.125,0.125,127,80.0
11416,A4,345.125,0.125,127,80.0
11417,C5,345.25,0.25,127,80.0
11418,C6,345.25,0.25,127,80.0
11419,C6,345.25,0.25,127,80.0
11420,D5,345.25,0.125,127,80.0
11421,A4,345.25,0.125,127,80.0
11422,D5,345.375,0.125,127,80.0
11423,A4,345.375,0.125,127,80.0
11424,D5,345.5,0.25,127,80.0
11425,B3,345.5,0.25,127,80.0
11426,D6,345.5,0.25,127,80.0
11427,D6,345.5,0.25,127,80.0
11428,D5,345.5,0.125,127,80.0
11429,A4,345.5,0.125,127,80.0
11430,D5,345.625,0.125,127,80.0
11431,A4,345.625,0.125,127,80.0
11432,E-5,345.75,0.25,127,80.0
11433,B1,345.75,0.25,127,80.0
11434,E-6,345.75,0.25,127,80.0
11435,E-6,345.75,0.25,127,80.0
11436,D5,345.75,0.125,127,80.0
11437,A4,345.75,0.125,127,80.0
11438,D5,345.875,0.125,127,80.0
11439,A4,345.875,0.125,127,80.0
11440,F4,346.0,0.25,127,80.0
11441,B3,346.0,0.25,127,80.0
11442,F5,346.0,0.25,127,80.0
11443,F5,346.0,0.25,127,80.0
11444,E-4,346.0,0.25,127,80.0
11445,B-3,346.0,0.25,127,80.0
11446,D5,346.0,0.125,127,80.0
11447,A4,346.0,0.125,127,80.0
11448,D5,346.125,0.125,127,80.0
11449,A4,346.125,0.125,127,80.0
11450,C6,346.25,0.25,127,80.0
11451,B1,346.25,0.25,127,80.0
11452,C7,346.25,0.25,127,80.0
11453,C7,346.25,0.25,127,80.0
11454,D4,346.25,0.25,127,80.0
11455,A3,346.25,0.25,127,80.0
11456,D5,346.25,0.125,127,80.0
11457,A4,346.25,0.125,127,80.0
11458,D5,346.375,0.125,127,80.0
11459,A4,346.375,0.125,127,80.0
11460,F4,346.5,0.25,127,80.0
11461,B3,346.5,0.25,127,80.0
11462,F5,346.5,0.25,127,80.0
11463,F5,346.5,0.25,127,80.0
11464,D5,346.5,0.125,127,80.0
11465,A4,346.5,0.125,127,80.0
11466,D5,346.625,0.125,127,80.0
11467,A4,346.625,0.125,127,80.0
11468,E-5,346.75,0.25,127,80.0
11469,B1,346.75,0.25,127,80.0
11470,E-6,346.75,0.25,127,80.0
11471,E-6,346.75,0.25,127,80.0
11472,D5,346.75,0.125,127,80.0
11473,A4,346.75,0.125,127,80.0
11474,D5,346.875,0.125,127,80.0
11475,A4,346.875,0.125,127,80.0
11476,D5,347.0,0.25,127,80.0
11477,D6,347.0,0.25,127,80.0
11478,D6,347.0,0.25,127,80.0
11479,B3,347.0,0.5,127,80.0
11480,D2,347.0,0.5,127,80.0
11481,D4,347.0,0.25,127,80.0
11482,A3,347.0,0.25,127,80.0
11483,D5,347.0,0.125,127,80.0
11484,A4,347.0,0.125,127,80.0
11485,D5,347.125,0.125,127,80.0
11486,A4,347.125,0.125,127,80.0
11487,C5,347.25,0.25,127,80.0
11488,C6,347.25,0.25,127,80.0
11489,C6,347.25,0.25,127,80.0
11490,E-4,347.25,0.25,127,80.0
11491,B-3,347.25,0.25,127,80.0
11492,D5,347.25,0.125,127,80.0
11493,A4,347.25,0.125,127,80.0
11494,D5,347.375,0.125,127,80.0
11495,A4,347.375,0.125,127,80.0
11496,F3,347.5,0.25,127,80.0
11497,B3,347.5,0.25,127,80.0
11498,F4,347.5,0.25,127,80.0
11499,F4,347.5,0.25,127,80.0
11500,D5,347.5,0.125,127,80.0
11501,A4,347.5,0.125,127,80.0
11502,D5,347.625,0.125,127,80.0
11503,A4,347.625,0.125,127,80.0
11504,E-4,347.75,0.25,127,80.0
11505,B1,347.75,0.25,127,80.0
11506,E-5,347.75,0.25,127,80.0
11507,E-5,347.75,0.25,127,80.0
11508,D5,347.75,0.125,127,80.0
11509,A4,347.75,0.125,127,80.0
11510,D5,347.875,31/250,127,80.0
11511,A4,347.875,31/250,127,80.0
11512,D4,348.0,0.25,127,80.0
11513,D2,348.0,0.25,127,80.0
11514,D5,348.0,0.25,127,80.0
11515,D5,348.0,0.25,127,80.0
11516,D3,348.0,0.25,127,80.0
11517,A2,348.0,0.25,127,80.0
11518,D4,348.0,0.25,127,80.0
11519,A3,348.0,0.25,127,80.0
11520,A3,348.0,0.25,127,80.0
11521,D2,348.0,0.25,127,80.0
11522,D4,348.0,0.25,127,80.0
11523,A3,348.0,0.25,127,80.0
11524,G4,348.0,0.25,127,80.0
11525,D4,348.0,0.25,127,80.0
11526,G3,348.0,0.25,127,80.0
11527,D5,348.0,0.25,127,80.0
11528,A4,348.0,0.25,127,80.0
11529,D4,348.0,0.25,127,80.0
11530,A3,348.0,0.25,127,80.0
11531,C4,348.25,0.25,127,80.0
11532,E-2,348.25,0.25,127,80.0
11533,C5,348.25,0.25,127,80.0
11534,C5,348.25,0.25,127,80.0
11535,E-3,348.25,0.25,127,80.0
11536,B-2,348.25,0.25,127,80.0
11537,E-4,348.25,0.25,127,80.0
11538,B-3,348.25,0.25,127,80.0
11539,A3,348.25,0.5,127,80.0
11540,D2,348.25,0.5,127,80.0
11541,E-4,348.25,0.25,127,80.0
11542,B-3,348.25,0.25,127,80.0
11543,G#4,348.25,0.25,127,80.0
11544,E-4,348.25,0.25,127,80.0
11545,G#3,348.25,0.25,127,80.0
11546,E-5,348.25,0.25,127,80.0
11547,B-4,348.25,0.25,127,80.0
11548,E-4,348.25,0.25,127,80.0
11549,B-3,348.25,0.25,127,80.0
11550,F3,348.5,0.25,127,80.0
11551,F4,348.5,0.25,127,80.0
11552,F4,348.5,0.25,127,80.0
11553,C4,348.75,0.25,127,80.0
11554,C5,348.75,0.25,127,80.0
11555,C5,348.75,0.25,127,80.0
11556,A3,348.75,0.375,127,80.0
11557,D2,348.75,0.375,127,80.0
11558,D4,349.0,0.25,127,80.0
11559,D5,349.0,0.25,127,80.0
11560,D5,349.0,0.25,127,80.0
11561,D3,349.125,0.125,127,80.0
11562,C3,349.125,0.125,127,80.0
11563,E-4,349.25,0.25,127,80.0
11564,D3,349.25,0.125,127,80.0
11565,E-5,349.25,0.25,127,80.0
11566,E-5,349.25,0.25,127,80.0
11567,C3,349.375,0.25,127,80.0
11568,B2,349.375,0.25,127,80.0
11569,F3,349.5,0.25,127,80.0
11570,F4,349.5,0.25,127,80.0
11571,F4,349.5,0.25,127,80.0
11572,C3,349.625,0.125,127,80.0
11573,B2,349.625,0.125,127,80.0
11574,C5,349.75,0.25,127,80.0
11575,C6,349.75,0.25,127,80.0
11576,C6,349.75,0.25,127,80.0
11577,F2,349.75,0.125,127,80.0
11578,D2,349.75,0.125,127,80.0
11579,C3,349.875,0.125,127,80.0
11580,D5,350.0,0.25,127,80.0
11581,E-2,350.0,0.25,127,80.0
11582,C#3,350.0,0.25,127,80.0
11583,D6,350.0,0.25,127,80.0
11584,D6,350.0,0.25,127,80.0
11585,E-3,350.0,0.25,127,80.0
11586,B-2,350.0,0.25,127,80.0
11587,E-4,350.0,0.25,127,80.0
11588,B-3,350.0,0.25,127,80.0
11589,E-4,350.0,0.25,127,80.0
11590,B-3,350.0,0.25,127,80.0
11591,E-5,350.0,0.25,127,80.0
11592,B-4,350.0,0.25,127,80.0
11593,E-4,350.0,0.25,127,80.0
11594,B-3,350.0,0.25,127,80.0
11595,E-5,350.25,0.25,127,80.0
11596,D2,350.25,0.25,127,80.0
11597,D2,350.25,0.125,127,80.0
11598,E-6,350.25,0.25,127,80.0
11599,E-6,350.25,0.25,127,80.0
11600,D3,350.25,0.25,127,80.0
11601,A2,350.25,0.25,127,80.0
11602,D4,350.25,0.25,127,80.0
11603,A3,350.25,0.25,127,80.0
11604,D4,350.25,0.25,127,80.0
11605,A3,350.25,0.25,127,80.0
11606,D5,350.25,0.25,127,80.0
11607,A4,350.25,0.25,127,80.0
11608,D4,350.25,0.25,127,80.0
11609,A3,350.25,0.25,127,80.0
11610,D2,350.375,0.125,127,80.0
11611,F4,350.5,0.25,127,80.0
11612,D2,350.5,0.25,127,80.0
11613,F5,350.5,0.25,127,80.0
11614,F5,350.5,0.25,127,80.0
11615,C6,350.75,0.25,127,80.0
11616,C7,350.75,0.25,127,80.0
11617,C7,350.75,0.25,127,80.0
11618,F2,350.75,0.125,127,80.0
11619,D2,350.75,0.125,127,80.0
11620,D2,350.875,0.125,127,80.0
11621,B1,350.875,0.125,127,80.0
11622,F4,351.0,0.25,127,80.0
11623,D2,351.0,0.25,127,80.0
11624,B1,351.0,0.125,127,80.0
11625,F5,351.0,0.25,127,80.0
11626,F5,351.0,0.25,127,80.0
11627,D3,351.0,0.25,127,80.0
11628,A2,351.0,0.25,127,80.0
11629,D4,351.0,0.25,127,80.0
11630,A3,351.0,0.25,127,80.0
11631,D4,351.0,0.25,127,80.0
11632,A3,351.0,0.25,127,80.0
11633,D5,351.0,0.25,127,80.0
11634,A4,351.0,0.25,127,80.0
11635,D4,351.0,0.25,127,80.0
11636,A3,351.0,0.25,127,80.0
11637,B1,351.125,0.125,127,80.0
11638,E-5,351.25,0.25,127,80.0
11639,E-2,351.25,0.25,127,80.0
11640,B1,351.25,0.125,127,80.0
11641,E-6,351.25,0.25,127,80.0
11642,E-6,351.25,0.25,127,80.0
11643,E-3,351.25,0.25,127,80.0
11644,B-2,351.25,0.25,127,80.0
11645,E-4,351.25,0.25,127,80.0
11646,B-3,351.25,0.25,127,80.0
11647,E-4,351.25,0.25,127,80.0
11648,B-3,351.25,0.25,127,80.0
11649,E-5,351.25,0.25,127,80.0
11650,B-4,351.25,0.25,127,80.0
11651,E-4,351.25,0.25,127,80.0
11652,B-3,351.25,0.25,127,80.0
11653,B1,351.375,0.125,127,80.0
11654,D5,351.5,0.25,127,80.0
11655,D2,351.5,0.125,127,80.0
11656,D6,351.5,0.25,127,80.0
11657,D6,351.5,0.25,127,80.0
11658,B1,351.625,0.125,127,80.0
11659,C5,351.75,0.25,127,80.0
11660,B1,351.75,0.125,127,80.0
11661,C6,351.75,0.25,127,80.0
11662,C6,351.75,0.25,127,80.0
11663,B1,351.875,0.125,127,80.0
11664,G#3,352.0,0.25,127,80.0
11665,G1,352.0,0.25,127,80.0
11666,G#4,352.0,0.25,127,80.0
11667,G#4,352.0,0.25,127,80.0
11668,G3,352.0,0.25,127,80.0
11669,D3,352.0,0.25,127,80.0
11670,G2,352.0,0.25,127,80.0
11671,G4,352.0,0.25,127,80.0
11672,D4,352.0,0.25,127,80.0
11673,G3,352.0,0.25,127,80.0
11674,E-3,352.0,0.25,127,80.0
11675,C#3,352.0,0.25,127,80.0
11676,B1,352.0,0.25,127,80.0
11677,G4,352.0,0.25,127,80.0
11678,D4,352.0,0.25,127,80.0
11679,G3,352.0,0.25,127,80.0
11680,G#4,352.0,0.25,127,80.0
11681,E-4,352.0,0.25,127,80.0
11682,G#3,352.0,0.25,127,80.0
11683,G5,352.0,0.25,127,80.0
11684,D5,352.0,0.25,127,80.0
11685,G4,352.0,0.25,127,80.0
11686,G4,352.0,0.25,127,80.0
11687,D4,352.0,0.25,127,80.0
11688,G3,352.0,0.25,127,80.0
11689,D4,352.25,0.25,127,80.0
11690,G#1,352.25,0.25,127,80.0
11691,D5,352.25,0.25,127,80.0
11692,D5,352.25,0.25,127,80.0
11693,G#3,352.25,0.25,127,80.0
11694,E-3,352.25,0.25,127,80.0
11695,G#2,352.25,0.25,127,80.0
11696,G#4,352.25,0.25,127,80.0
11697,E-4,352.25,0.25,127,80.0
11698,G#3,352.25,0.25,127,80.0
11699,E-3,352.25,0.5,127,80.0
11700,C#3,352.25,0.5,127,80.0
11701,B1,352.25,0.5,127,80.0
11702,G#4,352.25,0.25,127,80.0
11703,E-4,352.25,0.25,127,80.0
11704,G#3,352.25,0.25,127,80.0
11705,G4,352.25,0.25,127,80.0
11706,D4,352.25,0.25,127,80.0
11707,G3,352.25,0.25,127,80.0
11708,G#5,352.25,0.25,127,80.0
11709,E-5,352.25,0.25,127,80.0
11710,G#4,352.25,0.25,127,80.0
11711,G#4,352.25,0.25,127,80.0
11712,E-4,352.25,0.25,127,80.0
11713,G#3,352.25,0.25,127,80.0
11714,G4,352.5,0.25,127,80.0
11715,G5,352.5,0.25,127,80.0
11716,G5,352.5,0.25,127,80.0
11717,G#3,352.75,0.25,127,80.0
11718,G#4,352.75,0.25,127,80.0
11719,G#4,352.75,0.25,127,80.0
11720,E-3,352.75,0.5,127,80.0
11721,B1,352.75,0.5,127,80.0
11722,C5,353.0,0.25,127,80.0
11723,C6,353.0,0.25,127,80.0
11724,C6,353.0,0.25,127,80.0
11725,D5,353.25,0.25,127,80.0
11726,D2,353.25,0.125,127,80.0
11727,D6,353.25,0.25,127,80.0
11728,D6,353.25,0.25,127,80.0
11729,D2,353.375,0.125,127,80.0
11730,G5,353.5,0.25,127,80.0
11731,D2,353.5,0.125,127,80.0
11732,G6,353.5,0.25,127,80.0
11733,G6,353.5,0.25,127,80.0
11734,D2,353.625,0.125,127,80.0
11735,G#4,353.75,0.25,127,80.0
11736,G2,353.75,0.125,127,80.0
11737,G#5,353.75,0.25,127,80.0
11738,G#5,353.75,0.25,127,80.0
11739,G2,353.875,0.125,127,80.0
11740,C6,354.0,0.25,127,80.0
11741,A2,354.0,0.125,127,80.0
11742,C7,354.0,0.25,127,80.0
11743,C7,354.0,0.25,127,80.0
11744,G4,354.0,0.25,127,80.0
11745,D4,354.0,0.25,127,80.0
11746,G3,354.0,0.25,127,80.0
11747,B1,354.125,0.125,127,80.0
11748,G#4,354.25,0.25,127,80.0
11749,F2,354.25,0.125,127,80.0
11750,G#5,354.25,0.25,127,80.0
11751,G#5,354.25,0.25,127,80.0
11752,B1,354.375,0.125,127,80.0
11753,G5,354.5,0.25,127,80.0
11754,G6,354.5,0.25,127,80.0
11755,G6,354.5,0.25,127,80.0
11756,F2,354.5,0.125,127,80.0
11757,B1,354.5,0.125,127,80.0
11758,B1,354.625,0.125,127,80.0
11759,D5,354.75,0.25,127,80.0
11760,D6,354.75,0.25,127,80.0
11761,D6,354.75,0.25,127,80.0
11762,F2,354.75,0.125,127,80.0
11763,B1,354.75,0.125,127,80.0
11764,B1,354.875,0.125,127,80.0
11765,C5,355.0,0.25,127,80.0
11766,D2,355.0,0.125,127,80.0
11767,C6,355.0,0.25,127,80.0
11768,C6,355.0,0.25,127,80.0
11769,G#4,355.0,0.25,127,80.0
11770,E-4,355.0,0.25,127,80.0
11771,G#3,355.0,0.25,127,80.0
11772,B1,355.125,0.125,127,80.0
11773,G#3,355.25,0.25,127,80.0
11774,D2,355.25,0.125,127,80.0
11775,G#4,355.25,0.25,127,80.0
11776,G#4,355.25,0.25,127,80.0
11777,B1,355.375,0.125,127,80.0
11778,G4,355.5,0.25,127,80.0
11779,B1,355.5,0.125,127,80.0
11780,G5,355.5,0.25,127,80.0
11781,G5,355.5,0.25,127,80.0
11782,D2,355.625,0.125,127,80.0
11783,D4,355.75,0.25,127,80.0
11784,B1,355.75,0.125,127,80.0
11785,D5,355.75,0.25,127,80.0
11786,D5,355.75,0.25,127,80.0
11787,B1,355.875,0.125,127,80.0
11788,G#3,356.0,0.25,127,80.0
11789,G#1,356.0,0.25,127,80.0
11790,G#4,356.0,0.25,127,80.0
11791,G#4,356.0,0.25,127,80.0
11792,G#3,356.0,0.25,127,80.0
11793,E-3,356.0,0.25,127,80.0
11794,G#2,356.0,0.25,127,80.0
11795,G#4,356.0,0.25,127,80.0
11796,E-4,356.0,0.25,127,80.0
11797,G#3,356.0,0.25,127,80.0
11798,E-3,356.0,0.25,127,80.0
11799,C#3,356.0,0.25,127,80.0
11800,B1,356.0,0.25,127,80.0
11801,G#4,356.0,0.25,127,80.0
11802,E-4,356.0,0.25,127,80.0
11803,G#3,356.0,0.25,127,80.0
11804,D4,356.0,0.125,127,80.0
11805,A3,356.0,0.125,127,80.0
11806,G#5,356.0,0.25,127,80.0
11807,E-5,356.0,0.25,127,80.0
11808,G#4,356.0,0.25,127,80.0
11809,G#4,356.0,0.25,127,80.0
11810,E-4,356.0,0.25,127,80.0
11811,G#3,356.0,0.25,127,80.0
11812,D4,356.125,0.125,127,80.0
11813,A3,356.125,0.125,127,80.0
11814,D4,356.25,0.25,127,80.0
11815,G1,356.25,0.25,127,80.0
11816,D5,356.25,0.25,127,80.0
11817,D5,356.25,0.25,127,80.0
11818,G3,356.25,0.25,127,80.0
11819,D3,356.25,0.25,127,80.0
11820,G2,356.25,0.25,127,80.0
11821,G4,356.25,0.25,127,80.0
11822,D4,356.25,0.25,127,80.0
11823,G3,356.25,0.25,127,80.0
11824,E-3,356.25,0.5,127,80.0
11825,C#3,356.25,0.5,127,80.0
11826,B1,356.25,0.5,127,80.0
11827,G4,356.25,0.25,127,80.0
11828,D4,356.25,0.25,127,80.0
11829,G3,356.25,0.25,127,80.0
11830,D4,356.25,0.125,127,80.0
11831,A3,356.25,0.125,127,80.0
11832,G5,356.25,0.25,127,80.0
11833,D5,356.25,0.25,127,80.0
11834,G4,356.25,0.25,127,80.0
11835,G4,356.25,0.25,127,80.0
11836,D4,356.25,0.25,127,80.0
11837,G3,356.25,0.25,127,80.0
11838,D4,356.375,0.125,127,80.0
11839,A3,356.375,0.125,127,80.0
11840,G4,356.5,0.25,127,80.0
11841,G5,356.5,0.25,127,80.0
11842,G5,356.5,0.25,127,80.0
11843,D4,356.5,0.125,127,80.0
11844,A3,356.5,0.125,127,80.0
11845,D4,356.625,0.125,127,80.0
11846,A3,356.625,0.125,127,80.0
11847,G#3,356.75,0.25,127,80.0
11848,G#4,356.75,0.25,127,80.0
11849,G#4,356.75,0.25,127,80.0
11850,E-3,356.75,0.5,127,80.0
11851,B1,356.75,0.5,127,80.0
11852,D4,356.75,0.125,127,80.0
11853,A3,356.75,0.125,127,80.0
11854,D4,356.875,0.125,127,80.0
11855,A3,356.875,0.125,127,80.0
11856,C5,357.0,0.25,127,80.0
11857,C6,357.0,0.25,127,80.0
11858,C6,357.0,0.25,127,80.0
11859,D4,357.0,0.125,127,80.0
11860,A3,357.0,0.125,127,80.0
11861,D4,357.125,0.125,127,80.0
11862,A3,357.125,0.125,127,80.0
11863,D5,357.25,0.25,127,80.0
11864,D2,357.25,0.25,127,80.0
11865,D6,357.25,0.25,127,80.0
11866,D6,357.25,0.25,127,80.0
11867,D4,357.25,0.125,127,80.0
11868,A3,357.25,0.125,127,80.0
11869,D4,357.375,0.125,127,80.0
11870,A3,357.375,0.125,127,80.0
11871,G5,357.5,0.25,127,80.0
11872,E-3,357.5,0.25,127,80.0
11873,G6,357.5,0.25,127,80.0
11874,G6,357.5,0.25,127,80.0
11875,D4,357.5,0.125,127,80.0
11876,A3,357.5,0.125,127,80.0
11877,D4,357.625,0.125,127,80.0
11878,A3,357.625,0.125,127,80.0
11879,G#4,357.75,0.25,127,80.0
11880,G#5,357.75,0.25,127,80.0
11881,G#5,357.75,0.25,127,80.0
11882,E-3,357.75,0.25,127,80.0
11883,D2,357.75,0.25,127,80.0
11884,D4,357.75,0.125,127,80.0
11885,A3,357.75,0.125,127,80.0
11886,D4,357.875,0.125,127,80.0
11887,A3,357.875,0.125,127,80.0
11888,C6,358.0,0.25,127,80.0
11889,G1,358.0,0.25,127,80.0
11890,B2,358.0,167/1000,127,80.0
11891,C7,358.0,0.25,127,80.0
11892,C7,358.0,0.25,127,80.0
11893,G3,358.0,0.25,127,80.0
11894,D3,358.0,0.25,127,80.0
11895,G2,358.0,0.25,127,80.0
11896,G4,358.0,0.25,127,80.0
11897,D4,358.0,0.25,127,80.0
11898,G3,358.0,0.25,127,80.0
11899,G4,358.0,0.25,127,80.0
11900,D4,358.0,0.25,127,80.0
11901,G3,358.0,0.25,127,80.0
11902,D4,358.0,0.125,127,80.0
11903,A3,358.0,0.125,127,80.0
11904,G5,358.0,0.25,127,80.0
11905,D5,358.0,0.25,127,80.0
11906,G4,358.0,0.25,127,80.0
11907,G4,358.0,0.25,127,80.0
11908,D4,358.0,0.25,127,80.0
11909,G3,358.0,0.25,127,80.0
11910,D4,358.125,0.125,127,80.0
11911,A3,358.125,0.125,127,80.0
11912,C3,358.167,167/1000,127,80.0
11913,G#4,358.25,0.25,127,80.0
11914,G#5,358.25,0.25,127,80.0
11915,G#5,358.25,0.25,127,80.0
11916,D4,358.25,0.125,127,80.0
11917,A3,358.25,0.125,127,80.0
11918,B2,358.333,167/1000,127,80.0
11919,D4,358.375,0.125,127,80.0
11920,A3,358.375,0.125,127,80.0
11921,G5,358.5,0.25,127,80.0
11922,G6,358.5,0.25,127,80.0
11923,G6,358.5,0.25,127,80.0
11924,C3,358.5,167/1000,127,80.0
11925,B2,358.5,167/1000,127,80.0
11926,D4,358.5,0.125,127,80.0
11927,A3,358.5,0.125,127,80.0
11928,D4,358.625,0.125,127,80.0
11929,A3,358.625,0.125,127,80.0
11930,A2,358.667,167/1000,127,80.0
11931,G2,358.667,167/1000,127,80.0
11932,D5,358.75,0.25,127,80.0
11933,D6,358.75,0.25,127,80.0
11934,D6,358.75,0.25,127,80.0
11935,D4,358.75,0.125,127,80.0
11936,A3,358.75,0.125,127,80.0
11937,A2,358.833,167/1000,127,80.0
11938,D4,358.875,0.125,127,80.0
11939,A3,358.875,0.125,127,80.0
11940,C5,359.0,0.25,127,80.0
11941,G#1,359.0,0.25,127,80.0
11942,C6,359.0,0.25,127,80.0
11943,C6,359.0,0.25,127,80.0
11944,G#3,359.0,0.25,127,80.0
11945,E-3,359.0,0.25,127,80.0
11946,G#2,359.0,0.25,127,80.0
11947,G#4,359.0,0.25,127,80.0
11948,E-4,359.0,0.25,127,80.0
11949,G#3,359.0,0.25,127,80.0
11950,C#3,359.0,333/1000,127,80.0
11951,F2,359.0,333/1000,127,80.0
11952,G#4,359.0,0.25,127,80.0
11953,E-4,359.0,0.25,127,80.0
11954,G#3,359.0,0.25,127,80.0
11955,D4,359.0,0.125,127,80.0
11956,A3,359.0,0.125,127,80.0
11957,G#5,359.0,0.25,127,80.0
11958,E-5,359.0,0.25,127,80.0
11959,G#4,359.0,0.25,127,80.0
11960,G#4,359.0,0.25,127,80.0
11961,E-4,359.0,0.25,127,80.0
11962,G#3,359.0,0.25,127,80.0
11963,D4,359.125,0.125,127,80.0
11964,A3,359.125,0.125,127,80.0
11965,G#3,359.25,0.25,127,80.0
11966,G#4,359.25,0.25,127,80.0
11967,G#4,359.25,0.25,127,80.0
11968,D4,359.25,0.125,127,80.0
11969,A3,359.25,0.125,127,80.0
11970,C#3,359.333,333/1000,127,80.0
11971,D2,359.333,333/1000,127,80.0
11972,D4,359.375,0.125,127,80.0
11973,A3,359.375,0.125,127,80.0
11974,G4,359.5,0.25,127,80.0
11975,G5,359.5,0.25,127,80.0
11976,G5,359.5,0.25,127,80.0
11977,D4,359.5,0.125,127,80.0
11978,A3,359.5,0.125,127,80.0
11979,D4,359.625,0.125,127,80.0
11980,A3,359.625,0.125,127,80.0
11981,C#3,359.667,333/1000,127,80.0
11982,D2,359.667,333/1000,127,80.0
11983,D4,359.75,0.25,127,80.0
11984,D5,359.75,0.25,127,80.0
11985,D5,359.75,0.25,127,80.0
11986,D4,359.75,0.125,127,80.0
11987,A3,359.75,0.125,127,80.0
11988,D4,359.875,31/250,127,80.0
11989,A3,359.875,31/250,127,80.0
11990,F3,360.0,0.25,127,80.0
11991,F4,360.0,0.25,127,80.0
11992,F4,360.0,0.25,127,80.0
11993,D3,360.0,4.0,127,80.0
11994,A2,360.0,4.0,127,80.0
11995,D4,360.0,4.0,127,80.0
11996,A3,360.0,4.0,127,80.0
11997,D2,360.0,4.0,127,80.0
11998,D1,360.0,4.0,127,80.0
11999,B3,360.0,0.5,127,80.0
12000,A3,360.0,0.5,127,80.0
12001,B1,360.0,0.5,127,80.0
12002,D4,360.0,4.0,127,80.0
12003,A3,360.0,4.0,127,80.0
12004,D4,360.0,0.25,127,80.0
12005,A3,360.0,0.25,127,80.0
12006,D5,360.0,0.125,127,80.0
12007,A4,360.0,0.125,127,80.0
12008,D4,360.0,4.0,127,80.0
12009,A3,360.0,4.0,127,80.0
12010,D5,360.125,0.125,127,80.0
12011,A4,360.125,0.125,127,80.0
12012,C4,360.25,0.25,127,80.0
12013,C5,360.25,0.25,127,80.0
12014,C5,360.25,0.25,127,80.0
12015,E-4,360.25,0.25,127,80.0
12016,B-3,360.25,0.25,127,80.0
12017,D5,360.25,0.125,127,80.0
12018,A4,360.25,0.125,127,80.0
12019,D5,360.375,0.125,127,80.0
12020,A4,360.375,0.125,127,80.0
12021,D4,360.5,0.25,127,80.0
12022,B3,360.5,0.25,127,80.0
12023,D5,360.5,0.25,127,80.0
12024,D5,360.5,0.25,127,80.0
12025,D5,360.5,0.125,127,80.0
12026,A4,360.5,0.125,127,80.0
12027,D5,360.625,0.125,127,80.0
12028,A4,360.625,0.125,127,80.0
12029,E-4,360.75,0.25,127,80.0
12030,B1,360.75,0.25,127,80.0
12031,E-5,360.75,0.25,127,80.0
12032,E-5,360.75,0.25,127,80.0
12033,D5,360.75,0.125,127,80.0
12034,A4,360.75,0.125,127,80.0
12035,D5,360.875,0.125,127,80.0
12036,A4,360.875,0.125,127,80.0
12037,F3,361.0,0.25,127,80.0
12038,F4,361.0,0.25,127,80.0
12039,F4,361.0,0.25,127,80.0
12040,F3,361.0,0.25,127,80.0
12041,D2,361.0,0.25,127,80.0
12042,D5,361.0,0.125,127,80.0
12043,A4,361.0,0.125,127,80.0
12044,D5,361.125,0.125,127,80.0
12045,A4,361.125,0.125,127,80.0
12046,C5,361.25,0.25,127,80.0
12047,F3,361.25,0.25,127,80.0
12048,C6,361.25,0.25,127,80.0
12049,C6,361.25,0.25,127,80.0
12050,D5,361.25,0.125,127,80.0
12051,A4,361.25,0.125,127,80.0
12052,D5,361.375,0.125,127,80.0
12053,A4,361.375,0.125,127,80.0
12054,D5,361.5,0.25,127,80.0
12055,B3,361.5,0.25,127,80.0
12056,D6,361.5,0.25,127,80.0
12057,D6,361.5,0.25,127,80.0
12058,D5,361.5,0.125,127,80.0
12059,A4,361.5,0.125,127,80.0
12060,D5,361.625,0.125,127,80.0
12061,A4,361.625,0.125,127,80.0
12062,E-5,361.75,0.25,127,80.0
12063,B1,361.75,0.25,127,80.0
12064,E-6,361.75,0.25,127,80.0
12065,E-6,361.75,0.25,127,80.0
12066,D5,361.75,0.125,127,80.0
12067,A4,361.75,0.125,127,80.0
12068,D5,361.875,0.125,127,80.0
12069,A4,361.875,0.125,127,80.0
12070,F4,362.0,0.25,127,80.0
12071,B1,362.0,0.5,127,80.0
12072,F5,362.0,0.25,127,80.0
12073,F5,362.0,0.25,127,80.0
12074,E-4,362.0,0.25,127,80.0
12075,B-3,362.0,0.25,127,80.0
12076,D5,362.0,0.125,127,80.0
12077,A4,362.0,0.125,127,80.0
12078,D5,362.125,0.125,127,80.0
12079,A4,362.125,0.125,127,80.0
12080,C6,362.25,0.25,127,80.0
12081,C7,362.25,0.25,127,80.0
12082,C7,362.25,0.25,127,80.0
12083,D4,362.25,0.25,127,80.0
12084,A3,362.25,0.25,127,80.0
12085,D5,362.25,0.125,127,80.0
12086,A4,362.25,0.125,127,80.0
12087,D5,362.375,0.125,127,80.0
12088,A4,362.375,0.125,127,80.0
12089,F4,362.5,0.25,127,80.0
12090,B3,362.5,0.25,127,80.0
12091,F5,362.5,0.25,127,80.0
12092,F5,362.5,0.25,127,80.0
12093,D5,362.5,0.125,127,80.0
12094,A4,362.5,0.125,127,80.0
12095,D5,362.625,0.125,127,80.0
12096,A4,362.625,0.125,127,80.0
12097,E-5,362.75,0.25,127,80.0
12098,B1,362.75,0.25,127,80.0
12099,E-6,362.75,0.25,127,80.0
12100,E-6,362.75,0.25,127,80.0
12101,D5,362.75,0.125,127,80.0
12102,A4,362.75,0.125,127,80.0
12103,D5,362.875,0.125,127,80.0
12104,A4,362.875,0.125,127,80.0
12105,D5,363.0,0.25,127,80.0
12106,D6,363.0,0.25,127,80.0
12107,D6,363.0,0.25,127,80.0
12108,A3,363.0,0.5,127,80.0
12109,D2,363.0,0.5,127,80.0
12110,D4,363.0,0.25,127,80.0
12111,A3,363.0,0.25,127,80.0
12112,D5,363.0,0.125,127,80.0
12113,A4,363.0,0.125,127,80.0
12114,D5,363.125,0.125,127,80.0
12115,A4,363.125,0.125,127,80.0
12116,C5,363.25,0.25,127,80.0
12117,C6,363.25,0.25,127,80.0
12118,C6,363.25,0.25,127,80.0
12119,E-4,363.25,0.25,127,80.0
12120,B-3,363.25,0.25,127,80.0
12121,D5,363.25,0.125,127,80.0
12122,A4,363.25,0.125,127,80.0
12123,D5,363.375,0.125,127,80.0
12124,A4,363.375,0.125,127,80.0
12125,F3,363.5,0.25,127,80.0
12126,A3,363.5,0.25,127,80.0
12127,F4,363.5,0.25,127,80.0
12128,F4,363.5,0.25,127,80.0
12129,D5,363.5,0.125,127,80.0
12130,A4,363.5,0.125,127,80.0
12131,D5,363.625,0.125,127,80.0
12132,A4,363.625,0.125,127,80.0
12133,E-4,363.75,0.25,127,80.0
12134,B1,363.75,0.25,127,80.0
12135,E-5,363.75,0.25,127,80.0
12136,E-5,363.75,0.25,127,80.0
12137,D5,363.75,0.125,127,80.0
12138,A4,363.75,0.125,127,80.0
12139,D5,363.875,31/250,127,80.0
12140,A4,363.875,31/250,127,80.0
12141,D4,364.0,0.25,127,80.0
12142,D2,364.0,0.25,127,80.0
12143,D5,364.0,0.25,127,80.0
12144,D5,364.0,0.25,127,80.0
12145,D3,364.0,0.25,127,80.0
12146,A2,364.0,0.25,127,80.0
12147,D4,364.0,0.25,127,80.0
12148,A3,364.0,0.25,127,80.0
12149,B3,364.0,0.25,127,80.0
12150,A3,364.0,0.25,127,80.0
12151,B1,364.0,0.25,127,80.0
12152,D4,364.0,0.25,127,80.0
12153,A3,364.0,0.25,127,80.0
12154,G4,364.0,0.25,127,80.0
12155,D4,364.0,0.25,127,80.0
12156,G3,364.0,0.25,127,80.0
12157,D5,364.0,0.25,127,80.0
12158,A4,364.0,0.25,127,80.0
12159,D4,364.0,0.25,127,80.0
12160,A3,364.0,0.25,127,80.0
12161,C4,364.25,0.25,127,80.0
12162,E-2,364.25,0.25,127,80.0
12163,C5,364.25,0.25,127,80.0
12164,C5,364.25,0.25,127,80.0
12165,E-3,364.25,0.25,127,80.0
12166,B-2,364.25,0.25,127,80.0
12167,E-4,364.25,0.25,127,80.0
12168,B-3,364.25,0.25,127,80.0
12169,B3,364.25,0.5,127,80.0
12170,A3,364.25,0.5,127,80.0
12171,B1,364.25,0.5,127,80.0
12172,E-4,364.25,0.25,127,80.0
12173,B-3,364.25,0.25,127,80.0
12174,G#4,364.25,0.25,127,80.0
12175,E-4,364.25,0.25,127,80.0
12176,G#3,364.25,0.25,127,80.0
12177,E-5,364.25,0.25,127,80.0
12178,B-4,364.25,0.25,127,80.0
12179,E-4,364.25,0.25,127,80.0
12180,B-3,364.25,0.25,127,80.0
12181,F3,364.5,0.25,127,80.0
12182,F4,364.5,0.25,127,80.0
12183,F4,364.5,0.25,127,80.0
12184,C4,364.75,0.25,127,80.0
12185,C5,364.75,0.25,127,80.0
12186,C5,364.75,0.25,127,80.0
12187,B3,364.75,0.5,127,80.0
12188,A3,364.75,0.5,127,80.0
12189,B1,364.75,0.5,127,80.0
12190,D4,365.0,0.25,127,80.0
12191,D5,365.0,0.25,127,80.0
12192,D5,365.0,0.25,127,80.0
12193,E-4,365.25,0.25,127,80.0
12194,E-5,365.25,0.25,127,80.0
12195,E-5,365.25,0.25,127,80.0
12196,C#3,365.25,0.5,127,80.0
12197,A2,365.25,0.5,127,80.0
12198,F3,365.5,0.25,127,80.0
12199,F4,365.5,0.25,127,80.0
12200,F4,365.5,0.25,127,80.0
12201,C5,365.75,0.25,127,80.0
12202,C6,365.75,0.25,127,80.0
12203,C6,365.75,0.25,127,80.0
12204,C#3,365.75,0.5,127,80.0
12205,C3,365.75,0.5,127,80.0
12206,D5,366.0,0.25,127,80.0
12207,E-2,366.0,0.25,127,80.0
12208,D6,366.0,0.25,127,80.0
12209,D6,366.0,0.25,127,80.0
12210,E-3,366.0,0.25,127,80.0
12211,B-2,366.0,0.25,127,80.0
12212,E-4,366.0,0.25,127,80.0
12213,B-3,366.0,0.25,127,80.0
12214,E-4,366.0,0.25,127,80.0
12215,B-3,366.0,0.25,127,80.0
12216,E-5,366.0,0.25,127,80.0
12217,B-4,366.0,0.25,127,80.0
12218,E-4,366.0,0.25,127,80.0
12219,B-3,366.0,0.25,127,80.0
12220,E-5,366.25,0.25,127,80.0
12221,D2,366.25,0.25,127,80.0
12222,C3,366.25,0.25,127,80.0
12223,E-6,366.25,0.25,127,80.0
12224,E-6,366.25,0.25,127,80.0
12225,D3,366.25,0.25,127,80.0
12226,A2,366.25,0.25,127,80.0
12227,D4,366.25,0.25,127,80.0
12228,A3,366.25,0.25,127,80.0
12229,D4,366.25,0.25,127,80.0
12230,A3,366.25,0.25,127,80.0
12231,D5,366.25,0.25,127,80.0
12232,A4,366.25,0.25,127,80.0
12233,D4,366.25,0.25,127,80.0
12234,A3,366.25,0.25,127,80.0
12235,F4,366.5,0.25,127,80.0
12236,B2,366.5,0.25,127,80.0
12237,F5,366.5,0.25,127,80.0
12238,F5,366.5,0.25,127,80.0
12239,C6,366.75,0.25,127,80.0
12240,C7,366.75,0.25,127,80.0
12241,C7,366.75,0.25,127,80.0
12242,B2,366.75,0.25,127,80.0
12243,G2,366.75,0.25,127,80.0
12244,F4,367.0,0.25,127,80.0
12245,D2,367.0,0.25,127,80.0
12246,F5,367.0,0.25,127,80.0
12247,F5,367.0,0.25,127,80.0
12248,D3,367.0,0.25,127,80.0
12249,A2,367.0,0.25,127,80.0
12250,D4,367.0,0.25,127,80.0
12251,A3,367.0,0.25,127,80.0
12252,A2,367.0,0.25,127,80.0
12253,G2,367.0,0.25,127,80.0
12254,D4,367.0,0.25,127,80.0
12255,A3,367.0,0.25,127,80.0
12256,D5,367.0,0.25,127,80.0
12257,A4,367.0,0.25,127,80.0
12258,D4,367.0,0.25,127,80.0
12259,A3,367.0,0.25,127,80.0
12260,E-5,367.25,0.25,127,80.0
12261,E-2,367.25,0.25,127,80.0
12262,D2,367.25,0.25,127,80.0
12263,E-6,367.25,0.25,127,80.0
12264,E-6,367.25,0.25,127,80.0
12265,E-3,367.25,0.25,127,80.0
12266,B-2,367.25,0.25,127,80.0
12267,E-4,367.25,0.25,127,80.0
12268,B-3,367.25,0.25,127,80.0
12269,E-4,367.25,0.25,127,80.0
12270,B-3,367.25,0.25,127,80.0
12271,E-5,367.25,0.25,127,80.0
12272,B-4,367.25,0.25,127,80.0
12273,E-4,367.25,0.25,127,80.0
12274,B-3,367.25,0.25,127,80.0
12275,D5,367.5,0.25,127,80.0
12276,D2,367.5,0.25,127,80.0
12277,D6,367.5,0.25,127,80.0
12278,D6,367.5,0.25,127,80.0
12279,C5,367.75,0.25,127,80.0
12280,C6,367.75,0.25,127,80.0
12281,C6,367.75,0.25,127,80.0
12282,C#3,367.75,0.25,127,80.0
12283,D2,367.75,0.25,127,80.0
12284,G#3,368.0,0.25,127,80.0
12285,G1,368.0,0.25,127,80.0
12286,G#4,368.0,0.25,127,80.0
12287,G#4,368.0,0.25,127,80.0
12288,G3,368.0,0.25,127,80.0
12289,D3,368.0,0.25,127,80.0
12290,G2,368.0,0.25,127,80.0
12291,G4,368.0,0.25,127,80.0
12292,D4,368.0,0.25,127,80.0
12293,G3,368.0,0.25,127,80.0
12294,E-3,368.0,0.5,127,80.0
12295,C#3,368.0,0.5,127,80.0
12296,B1,368.0,0.5,127,80.0
12297,G4,368.0,0.25,127,80.0
12298,D4,368.0,0.25,127,80.0
12299,G3,368.0,0.25,127,80.0
12300,G#4,368.0,0.25,127,80.0
12301,E-4,368.0,0.25,127,80.0
12302,G#3,368.0,0.25,127,80.0
12303,G5,368.0,0.25,127,80.0
12304,D5,368.0,0.25,127,80.0
12305,G4,368.0,0.25,127,80.0
12306,G4,368.0,0.25,127,80.0
12307,D4,368.0,0.25,127,80.0
12308,G3,368.0,0.25,127,80.0
12309,D4,368.25,0.25,127,80.0
12310,G#1,368.25,0.25,127,80.0
12311,D5,368.25,0.25,127,80.0
12312,D5,368.25,0.25,127,80.0
12313,G#3,368.25,0.25,127,80.0
12314,E-3,368.25,0.25,127,80.0
12315,G#2,368.25,0.25,127,80.0
12316,G#4,368.25,0.25,127,80.0
12317,E-4,368.25,0.25,127,80.0
12318,G#3,368.25,0.25,127,80.0
12319,G#4,368.25,0.25,127,80.0
12320,E-4,368.25,0.25,127,80.0
12321,G#3,368.25,0.25,127,80.0
12322,G4,368.25,0.25,127,80.0
12323,D4,368.25,0.25,127,80.0
12324,G3,368.25,0.25,127,80.0
12325,G#5,368.25,0.25,127,80.0
12326,E-5,368.25,0.25,127,80.0
12327,G#4,368.25,0.25,127,80.0
12328,G#4,368.25,0.25,127,80.0
12329,E-4,368.25,0.25,127,80.0
12330,G#3,368.25,0.25,127,80.0
12331,G4,368.5,0.25,127,80.0
12332,G5,368.5,0.25,127,80.0
12333,G5,368.5,0.25,127,80.0
12334,E-3,368.5,0.5,127,80.0
12335,B1,368.5,0.5,127,80.0
12336,G#3,368.75,0.25,127,80.0
12337,G#4,368.75,0.25,127,80.0
12338,G#4,368.75,0.25,127,80.0
12339,C5,369.0,0.25,127,80.0
12340,C6,369.0,0.25,127,80.0
12341,C6,369.0,0.25,127,80.0
12342,E-3,369.0,0.25,127,80.0
12343,D2,369.0,0.25,127,80.0
12344,D5,369.25,0.25,127,80.0
12345,E-3,369.25,0.25,127,80.0
12346,D6,369.25,0.25,127,80.0
12347,D6,369.25,0.25,127,80.0
12348,G5,369.5,0.25,127,80.0
12349,B1,369.5,0.25,127,80.0
12350,G6,369.5,0.25,127,80.0
12351,G6,369.5,0.25,127,80.0
12352,G#4,369.75,0.25,127,80.0
12353,C3,369.75,0.125,127,80.0
12354,G#5,369.75,0.25,127,80.0
12355,G#5,369.75,0.25,127,80.0
12356,B2,369.875,0.125,127,80.0
12357,C6,370.0,0.25,127,80.0
12358,C3,370.0,167/1000,127,80.0
12359,C7,370.0,0.25,127,80.0
12360,C7,370.0,0.25,127,80.0
12361,G4,370.0,0.25,127,80.0
12362,D4,370.0,0.25,127,80.0
12363,G3,370.0,0.25,127,80.0
12364,A2,370.167,167/1000,127,80.0
12365,G2,370.167,167/1000,127,80.0
12366,G#4,370.25,0.25,127,80.0
12367,G#5,370.25,0.25,127,80.0
12368,G#5,370.25,0.25,127,80.0
12369,A2,370.333,167/1000,127,80.0
12370,G2,370.333,167/1000,127,80.0
12371,G5,370.5,0.25,127,80.0
12372,G6,370.5,0.25,127,80.0
12373,G6,370.5,0.25,127,80.0
12374,F2,370.5,167/1000,127,80.0
12375,D2,370.5,167/1000,127,80.0
12376,F2,370.667,167/1000,127,80.0
12377,D2,370.667,167/1000,127,80.0
12378,D5,370.75,0.25,127,80.0
12379,D6,370.75,0.25,127,80.0
12380,D6,370.75,0.25,127,80.0
12381,D2,370.833,167/1000,127,80.0
12382,C5,371.0,0.25,127,80.0
12383,D2,371.0,167/1000,127,80.0
12384,C6,371.0,0.25,127,80.0
12385,C6,371.0,0.25,127,80.0
12386,G#4,371.0,0.25,127,80.0
12387,E-4,371.0,0.25,127,80.0
12388,G#3,371.0,0.25,127,80.0
12389,D2,371.167,167/1000,127,80.0
12390,G#3,371.25,0.25,127,80.0
12391,G#4,371.25,0.25,127,80.0
12392,G#4,371.25,0.25,127,80.0
12393,D3,371.333,167/1000,127,80.0
12394,C3,371.333,167/1000,127,80.0
12395,G4,371.5,0.25,127,80.0
12396,D2,371.5,0.25,127,80.0
12397,G5,371.5,0.25,127,80.0
12398,G5,371.5,0.25,127,80.0
12399,D4,371.75,0.25,127,80.0
12400,D5,371.75,0.25,127,80.0
12401,D5,371.75,0.25,127,80.0
12402,E-3,371.75,0.25,127,80.0
12403,C#3,371.75,0.25,127,80.0
12404,G#3,372.0,0.25,127,80.0
12405,G#1,372.0,0.25,127,80.0
12406,G#4,372.0,0.25,127,80.0
12407,G#4,372.0,0.25,127,80.0
12408,G#3,372.0,0.25,127,80.0
12409,E-3,372.0,0.25,127,80.0
12410,G#2,372.0,0.25,127,80.0
12411,G#4,372.0,0.25,127,80.0
12412,E-4,372.0,0.25,127,80.0
12413,G#3,372.0,0.25,127,80.0
12414,E-3,372.0,0.25,127,80.0
12415,C#3,372.0,0.25,127,80.0
12416,B1,372.0,0.25,127,80.0
12417,G#4,372.0,0.25,127,80.0
12418,E-4,372.0,0.25,127,80.0
12419,G#3,372.0,0.25,127,80.0
12420,D4,372.0,0.125,127,80.0
12421,A3,372.0,0.125,127,80.0
12422,G#5,372.0,0.25,127,80.0
12423,E-5,372.0,0.25,127,80.0
12424,G#4,372.0,0.25,127,80.0
12425,G#4,372.0,0.25,127,80.0
12426,E-4,372.0,0.25,127,80.0
12427,G#3,372.0,0.25,127,80.0
12428,D4,372.125,0.125,127,80.0
12429,A3,372.125,0.125,127,80.0
12430,D4,372.25,0.25,127,80.0
12431,G1,372.25,0.25,127,80.0
12432,D5,372.25,0.25,127,80.0
12433,D5,372.25,0.25,127,80.0
12434,G3,372.25,0.25,127,80.0
12435,D3,372.25,0.25,127,80.0
12436,G2,372.25,0.25,127,80.0
12437,G4,372.25,0.25,127,80.0
12438,D4,372.25,0.25,127,80.0
12439,G3,372.25,0.25,127,80.0
12440,A3,372.25,0.5,127,80.0
12441,D3,372.25,0.5,127,80.0
12442,B1,372.25,0.5,127,80.0
12443,G4,372.25,0.25,127,80.0
12444,D4,372.25,0.25,127,80.0
12445,G3,372.25,0.25,127,80.0
12446,D4,372.25,0.125,127,80.0
12447,A3,372.25,0.125,127,80.0
12448,G5,372.25,0.25,127,80.0
12449,D5,372.25,0.25,127,80.0
12450,G4,372.25,0.25,127,80.0
12451,G4,372.25,0.25,127,80.0
12452,D4,372.25,0.25,127,80.0
12453,G3,372.25,0.25,127,80.0
12454,D4,372.375,0.125,127,80.0
12455,A3,372.375,0.125,127,80.0
12456,G4,372.5,0.25,127,80.0
12457,G5,372.5,0.25,127,80.0
12458,G5,372.5,0.25,127,80.0
12459,D4,372.5,0.125,127,80.0
12460,A3,372.5,0.125,127,80.0
12461,D4,372.625,0.125,127,80.0
12462,A3,372.625,0.125,127,80.0
12463,G#3,372.75,0.25,127,80.0
12464,B1,372.75,0.25,127,80.0
12465,G#4,372.75,0.25,127,80.0
12466,G#4,372.75,0.25,127,80.0
12467,D4,372.75,0.125,127,80.0
12468,A3,372.75,0.125,127,80.0
12469,D4,372.875,0.125,127,80.0
12470,A3,372.875,0.125,127,80.0
12471,C5,373.0,0.25,127,80.0
12472,E-3,373.0,0.25,127,80.0
12473,C6,373.0,0.25,127,80.0
12474,C6,373.0,0.25,127,80.0
12475,D4,373.0,0.125,127,80.0
12476,A3,373.0,0.125,127,80.0
12477,D4,373.125,0.125,127,80.0
12478,A3,373.125,0.125,127,80.0
12479,D5,373.25,0.25,127,80.0
12480,B1,373.25,0.25,127,80.0
12481,D6,373.25,0.25,127,80.0
12482,D6,373.25,0.25,127,80.0
12483,D4,373.25,0.125,127,80.0
12484,A3,373.25,0.125,127,80.0
12485,D4,373.375,0.125,127,80.0
12486,A3,373.375,0.125,127,80.0
12487,G5,373.5,0.25,127,80.0
12488,G6,373.5,0.25,127,80.0
12489,G6,373.5,0.25,127,80.0
12490,A3,373.5,0.25,127,80.0
12491,D2,373.5,0.25,127,80.0
12492,D4,373.5,0.125,127,80.0
12493,A3,373.5,0.125,127,80.0
12494,D4,373.625,0.125,127,80.0
12495,A3,373.625,0.125,127,80.0
12496,G#4,373.75,0.25,127,80.0
12497,G#5,373.75,0.25,127,80.0
12498,G#5,373.75,0.25,127,80.0
12499,F3,373.75,0.25,127,80.0
12500,A3,373.75,0.25,127,80.0
12501,D4,373.75,0.125,127,80.0
12502,A3,373.75,0.125,127,80.0
12503,D4,373.875,0.125,127,80.0
12504,A3,373.875,0.125,127,80.0
12505,C6,374.0,0.25,127,80.0
12506,G1,374.0,0.25,127,80.0
12507,F3,374.0,0.25,127,80.0
12508,C7,374.0,0.25,127,80.0
12509,C7,374.0,0.25,127,80.0
12510,G3,374.0,0.25,127,80.0
12511,D3,374.0,0.25,127,80.0
12512,G2,374.0,0.25,127,80.0
12513,G4,374.0,0.25,127,80.0
12514,D4,374.0,0.25,127,80.0
12515,G3,374.0,0.25,127,80.0
12516,G4,374.0,0.25,127,80.0
12517,D4,374.0,0.25,127,80.0
12518,G3,374.0,0.25,127,80.0
12519,D4,374.0,0.125,127,80.0
12520,A3,374.0,0.125,127,80.0
12521,G5,374.0,0.25,127,80.0
12522,D5,374.0,0.25,127,80.0
12523,G4,374.0,0.25,127,80.0
12524,G4,374.0,0.25,127,80.0
12525,D4,374.0,0.25,127,80.0
12526,G3,374.0,0.25,127,80.0
12527,D4,374.125,0.125,127,80.0
12528,A3,374.125,0.125,127,80.0
12529,G#4,374.25,0.25,127,80.0
12530,G#5,374.25,0.25,127,80.0
12531,G#5,374.25,0.25,127,80.0
12532,D3,374.25,0.25,127,80.0
12533,C3,374.25,0.25,127,80.0
12534,D4,374.25,0.125,127,80.0
12535,A3,374.25,0.125,127,80.0
12536,D4,374.375,0.125,127,80.0
12537,A3,374.375,0.125,127,80.0
12538,G5,374.5,0.25,127,80.0
12539,F3,374.5,0.25,127,80.0
12540,G6,374.5,0.25,127,80.0
12541,G6,374.5,0.25,127,80.0
12542,D4,374.5,0.125,127,80.0
12543,A3,374.5,0.125,127,80.0
12544,D4,374.625,0.125,127,80.0
12545,A3,374.625,0.125,127,80.0
12546,D5,374.75,0.25,127,80.0
12547,D6,374.75,0.25,127,80.0
12548,D6,374.75,0.25,127,80.0
12549,C3,374.75,0.25,127,80.0
12550,B2,374.75,0.25,127,80.0
12551,D4,374.75,0.125,127,80.0
12552,A3,374.75,0.125,127,80.0
12553,D4,374.875,0.125,127,80.0
12554,A3,374.875,0.125,127,80.0
12555,C5,375.0,0.25,127,80.0
12556,G#1,375.0,0.25,127,80.0
12557,C6,375.0,0.25,127,80.0
12558,C6,375.0,0.25,127,80.0
12559,G#3,375.0,0.25,127,80.0
12560,E-3,375.0,0.25,127,80.0
12561,G#2,375.0,0.25,127,80.0
12562,G#4,375.0,0.25,127,80.0
12563,E-4,375.0,0.25,127,80.0
12564,G#3,375.0,0.25,127,80.0
12565,A2,375.0,167/1000,127,80.0
12566,G2,375.0,167/1000,127,80.0
12567,G#4,375.0,0.25,127,80.0
12568,E-4,375.0,0.25,127,80.0
12569,G#3,375.0,0.25,127,80.0
12570,D4,375.0,0.125,127,80.0
12571,A3,375.0,0.125,127,80.0
12572,G#5,375.0,0.25,127,80.0
12573,E-5,375.0,0.25,127,80.0
12574,G#4,375.0,0.25,127,80.0
12575,G#4,375.0,0.25,127,80.0
12576,E-4,375.0,0.25,127,80.0
12577,G#3,375.0,0.25,127,80.0
12578,D4,375.125,0.125,127,80.0
12579,A3,375.125,0.125,127,80.0
12580,A2,375.167,167/1000,127,80.0
12581,G#3,375.25,0.25,127,80.0
12582,G#4,375.25,0.25,127,80.0
12583,G#4,375.25,0.25,127,80.0
12584,D4,375.25,0.125,127,80.0
12585,A3,375.25,0.125,127,80.0
12586,G2,375.333,167/1000,127,80.0
12587,F2,375.333,167/1000,127,80.0
12588,D4,375.375,0.125,127,80.0
12589,A3,375.375,0.125,127,80.0
12590,G4,375.5,0.25,127,80.0
12591,G5,375.5,0.25,127,80.0
12592,G5,375.5,0.25,127,80.0
12593,G2,375.5,167/1000,127,80.0
12594,F2,375.5,167/1000,127,80.0
12595,D4,375.5,0.125,127,80.0
12596,A3,375.5,0.125,127,80.0
12597,D4,375.625,0.125,127,80.0
12598,A3,375.625,0.125,127,80.0
12599,D2,375.667,167/1000,127,80.0
12600,D4,375.75,0.25,127,80.0
12601,D5,375.75,0.25,127,80.0
12602,D5,375.75,0.25,127,80.0
12603,D4,375.75,0.125,127,80.0
12604,A3,375.75,0.125,127,80.0
12605,D2,375.833,167/1000,127,80.0
12606,D4,375.875,31/250,127,80.0
12607,A3,375.875,31/250,127,80.0
12608,F3,376.0,0.25,127,80.0
12609,F4,376.0,0.25,127,80.0
12610,F4,376.0,0.25,127,80.0
12611,D3,376.0,4.0,127,80.0
12612,A2,376.0,4.0,127,80.0
12613,D4,376.0,4.0,127,80.0
12614,A3,376.0,4.0,127,80.0
12615,D2,376.0,4.0,127,80.0
12616,D1,376.0,4.0,127,80.0
12617,E-3,376.0,0.5,127,80.0
12618,C#3,376.0,0.5,127,80.0
12619,B1,376.0,0.5,127,80.0
12620,D4,376.0,4.0,127,80.0
12621,A3,376.0,4.0,127,80.0
12622,D4,376.0,0.25,127,80.0
12623,A3,376.0,0.25,127,80.0
12624,D5,376.0,0.125,127,80.0
12625,A4,376.0,0.125,127,80.0
12626,D4,376.0,4.0,127,80.0
12627,A3,376.0,4.0,127,80.0
12628,D5,376.125,0.125,127,80.0
12629,A4,376.125,0.125,127,80.0
12630,C4,376.25,0.25,127,80.0
12631,C5,376.25,0.25,127,80.0
12632,C5,376.25,0.25,127,80.0
12633,E-4,376.25,0.25,127,80.0
12634,B-3,376.25,0.25,127,80.0
12635,D5,376.25,0.125,127,80.0
12636,A4,376.25,0.125,127,80.0
12637,D5,376.375,0.125,127,80.0
12638,A4,376.375,0.125,127,80.0
12639,D4,376.5,0.25,127,80.0
12640,E-3,376.5,0.25,127,80.0
12641,D5,376.5,0.25,127,80.0
12642,D5,376.5,0.25,127,80.0
12643,D5,376.5,0.125,127,80.0
12644,A4,376.5,0.125,127,80.0
12645,D5,376.625,0.125,127,80.0
12646,A4,376.625,0.125,127,80.0
12647,E-4,376.75,0.25,127,80.0
12648,B1,376.75,0.25,127,80.0
12649,E-5,376.75,0.25,127,80.0
12650,E-5,376.75,0.25,127,80.0
12651,D5,376.75,0.125,127,80.0
12652,A4,376.75,0.125,127,80.0
12653,D5,376.875,0.125,127,80.0
12654,A4,376.875,0.125,127,80.0
12655,F3,377.0,0.25,127,80.0
12656,F4,377.0,0.25,127,80.0
12657,F4,377.0,0.25,127,80.0
12658,E-3,377.0,0.25,127,80.0
12659,D2,377.0,0.25,127,80.0
12660,D5,377.0,0.125,127,80.0
12661,A4,377.0,0.125,127,80.0
12662,D5,377.125,0.125,127,80.0
12663,A4,377.125,0.125,127,80.0
12664,C5,377.25,0.25,127,80.0
12665,E-3,377.25,0.25,127,80.0
12666,C6,377.25,0.25,127,80.0
12667,C6,377.25,0.25,127,80.0
12668,D5,377.25,0.125,127,80.0
12669,A4,377.25,0.125,127,80.0
12670,D5,377.375,0.125,127,80.0
12671,A4,377.375,0.125,127,80.0
12672,D5,377.5,0.25,127,80.0
12673,F3,377.5,0.25,127,80.0
12674,D6,377.5,0.25,127,80.0
12675,D6,377.5,0.25,127,80.0
12676,D5,377.5,0.125,127,80.0
12677,A4,377.5,0.125,127,80.0
12678,D5,377.625,0.125,127,80.0
12679,A4,377.625,0.125,127,80.0
12680,E-5,377.75,0.25,127,80.0
12681,B1,377.75,0.25,127,80.0
12682,E-6,377.75,0.25,127,80.0
12683,E-6,377.75,0.25,127,80.0
12684,D5,377.75,0.125,127,80.0
12685,A4,377.75,0.125,127,80.0
12686,D5,377.875,0.125,127,80.0
12687,A4,377.875,0.125,127,80.0
12688,F4,378.0,0.25,127,80.0
12689,F5,378.0,0.25,127,80.0
12690,F5,378.0,0.25,127,80.0
12691,E-3,378.0,0.25,127,80.0
12692,B1,378.0,0.25,127,80.0
12693,E-4,378.0,0.25,127,80.0
12694,B-3,378.0,0.25,127,80.0
12695,D5,378.0,0.125,127,80.0
12696,A4,378.0,0.125,127,80.0
12697,D5,378.125,0.125,127,80.0
12698,A4,378.125,0.125,127,80.0
12699,C6,378.25,0.25,127,80.0
12700,E-3,378.25,0.25,127,80.0
12701,C7,378.25,0.25,127,80.0
12702,C7,378.25,0.25,127,80.0
12703,D4,378.25,0.25,127,80.0
12704,A3,378.25,0.25,127,80.0
12705,D5,378.25,0.125,127,80.0
12706,A4,378.25,0.125,127,80.0
12707,D5,378.375,0.125,127,80.0
12708,A4,378.375,0.125,127,80.0
12709,F4,378.5,0.25,127,80.0
12710,F3,378.5,0.25,127,80.0
12711,F5,378.5,0.25,127,80.0
12712,F5,378.5,0.25,127,80.0
12713,D5,378.5,0.125,127,80.0
12714,A4,378.5,0.125,127,80.0
12715,D5,378.625,0.125,127,80.0
12716,A4,378.625,0.125,127,80.0
12717,E-5,378.75,0.25,127,80.0
12718,B1,378.75,0.25,127,80.0
12719,E-6,378.75,0.25,127,80.0
12720,E-6,378.75,0.25,127,80.0
12721,D5,378.75,0.125,127,80.0
12722,A4,378.75,0.125,127,80.0
12723,D5,378.875,0.125,127,80.0
12724,A4,378.875,0.125,127,80.0
12725,D5,379.0,0.25,127,80.0
12726,D6,379.0,0.25,127,80.0
12727,D6,379.0,0.25,127,80.0
12728,E-3,379.0,0.25,127,80.0
12729,D2,379.0,0.25,127,80.0
12730,D4,379.0,0.25,127,80.0
12731,A3,379.0,0.25,127,80.0
12732,D5,379.0,0.125,127,80.0
12733,A4,379.0,0.125,127,80.0
12734,D5,379.125,0.125,127,80.0
12735,A4,379.125,0.125,127,80.0
12736,C5,379.25,0.25,127,80.0
12737,E-3,379.25,0.25,127,80.0
12738,C6,379.25,0.25,127,80.0
12739,C6,379.25,0.25,127,80.0
12740,E-4,379.25,0.25,127,80.0
12741,B-3,379.25,0.25,127,80.0
12742,D5,379.25,0.125,127,80.0
12743,A4,379.25,0.125,127,80.0
12744,D5,379.375,0.125,127,80.0
12745,A4,379.375,0.125,127,80.0
12746,F3,379.5,0.25,127,80.0
12747,F3,379.5,0.25,127,80.0
12748,F4,379.5,0.25,127,80.0
12749,F4,379.5,0.25,127,80.0
12750,D5,379.5,0.125,127,80.0
12751,A4,379.5,0.125,127,80.0
12752,D5,379.625,0.125,127,80.0
12753,A4,379.625,0.125,127,80.0
12754,E-4,379.75,0.25,127,80.0
12755,B1,379.75,0.25,127,80.0
12756,E-5,379.75,0.25,127,80.0
12757,E-5,379.75,0.25,127,80.0
12758,D5,379.75,0.125,127,80.0
12759,A4,379.75,0.125,127,80.0
12760,D5,379.875,31/250,127,80.0
12761,A4,379.875,31/250,127,80.0
12762,D4,380.0,0.25,127,80.0
12763,D2,380.0,0.25,127,80.0
12764,D5,380.0,0.25,127,80.0
12765,D5,380.0,0.25,127,80.0
12766,D3,380.0,0.25,127,80.0
12767,A2,380.0,0.25,127,80.0
12768,D4,380.0,0.25,127,80.0
12769,A3,380.0,0.25,127,80.0
12770,F3,380.0,0.25,127,80.0
12771,B1,380.0,0.25,127,80.0
12772,D4,380.0,0.25,127,80.0
12773,A3,380.0,0.25,127,80.0
12774,G4,380.0,0.25,127,80.0
12775,D4,380.0,0.25,127,80.0
12776,G3,380.0,0.25,127,80.0
12777,D5,380.0,0.25,127,80.0
12778,A4,380.0,0.25,127,80.0
12779,D4,380.0,0.25,127,80.0
12780,A3,380.0,0.25,127,80.0
12781,C4,380.25,0.25,127,80.0
12782,E-2,380.25,0.25,127,80.0
12783,C5,380.25,0.25,127,80.0
12784,C5,380.25,0.25,127,80.0
12785,E-3,380.25,0.25,127,80.0
12786,B-2,380.25,0.25,127,80.0
12787,E-4,380.25,0.25,127,80.0
12788,B-3,380.25,0.25,127,80.0
12789,F3,380.25,0.25,127,80.0
12790,B1,380.25,0.25,127,80.0
12791,E-4,380.25,0.25,127,80.0
12792,B-3,380.25,0.25,127,80.0
12793,G#4,380.25,0.25,127,80.0
12794,E-4,380.25,0.25,127,80.0
12795,G#3,380.25,0.25,127,80.0
12796,E-5,380.25,0.25,127,80.0
12797,B-4,380.25,0.25,127,80.0
12798,E-4,380.25,0.25,127,80.0
12799,B-3,380.25,0.25,127,80.0
12800,F3,380.5,0.25,127,80.0
12801,F4,380.5,0.25,127,80.0
12802,F4,380.5,0.25,127,80.0
12803,F3,380.5,0.25,127,80.0
12804,B1,380.5,0.25,127,80.0
12805,C4,380.75,0.25,127,80.0
12806,C5,380.75,0.25,127,80.0
12807,C5,380.75,0.25,127,80.0
12808,F3,380.75,0.25,127,80.0
12809,B1,380.75,0.25,127,80.0
12810,D4,381.0,0.25,127,80.0
12811,D5,381.0,0.25,127,80.0
12812,D5,381.0,0.25,127,80.0
12813,F3,381.0,0.25,127,80.0
12814,B1,381.0,0.25,127,80.0
12815,E-4,381.25,0.25,127,80.0
12816,E-5,381.25,0.25,127,80.0
12817,E-5,381.25,0.25,127,80.0
12818,F3,381.25,0.25,127,80.0
12819,B1,381.25,0.25,127,80.0
12820,F3,381.5,0.25,127,80.0
12821,F4,381.5,0.25,127,80.0
12822,F4,381.5,0.25,127,80.0
12823,F3,381.5,0.25,127,80.0
12824,B1,381.5,0.25,127,80.0
12825,C5,381.75,0.25,127,80.0
12826,C6,381.75,0.25,127,80.0
12827,C6,381.75,0.25,127,80.0
12828,F3,381.75,0.25,127,80.0
12829,B1,381.75,0.25,127,80.0
12830,D5,382.0,0.25,127,80.0
12831,E-2,382.0,0.25,127,80.0
12832,D6,382.0,0.25,127,80.0
12833,D6,382.0,0.25,127,80.0
12834,E-3,382.0,0.25,127,80.0
12835,B-2,382.0,0.25,127,80.0
12836,E-4,382.0,0.25,127,80.0
12837,B-3,382.0,0.25,127,80.0
12838,F3,382.0,0.25,127,80.0
12839,B1,382.0,0.25,127,80.0
12840,E-4,382.0,0.25,127,80.0
12841,B-3,382.0,0.25,127,80.0
12842,E-5,382.0,0.25,127,80.0
12843,B-4,382.0,0.25,127,80.0
12844,E-4,382.0,0.25,127,80.0
12845,B-3,382.0,0.25,127,80.0
12846,E-5,382.25,0.25,127,80.0
12847,D2,382.25,0.25,127,80.0
12848,E-6,382.25,0.25,127,80.0
12849,E-6,382.25,0.25,127,80.0
12850,D3,382.25,0.25,127,80.0
12851,A2,382.25,0.25,127,80.0
12852,D4,382.25,0.25,127,80.0
12853,A3,382.25,0.25,127,80.0
12854,A3,382.25,0.5,127,80.0
12855,D2,382.25,0.5,127,80.0
12856,D4,382.25,0.25,127,80.0
12857,A3,382.25,0.25,127,80.0
12858,D5,382.25,0.25,127,80.0
12859,A4,382.25,0.25,127,80.0
12860,D4,382.25,0.25,127,80.0
12861,A3,382.25,0.25,127,80.0
12862,F4,382.5,0.25,127,80.0
12863,F5,382.5,0.25,127,80.0
12864,F5,382.5,0.25,127,80.0
12865,C6,382.75,0.25,127,80.0
12866,C7,382.75,0.25,127,80.0
12867,C7,382.75,0.25,127,80.0
12868,A3,382.75,0.5,127,80.0
12869,D2,382.75,0.5,127,80.0
12870,F4,383.0,0.25,127,80.0
12871,D2,383.0,0.25,127,80.0
12872,F5,383.0,0.25,127,80.0
12873,F5,383.0,0.25,127,80.0
12874,D3,383.0,0.25,127,80.0
12875,A2,383.0,0.25,127,80.0
12876,D4,383.0,0.25,127,80.0
12877,A3,383.0,0.25,127,80.0
12878,D4,383.0,0.25,127,80.0
12879,A3,383.0,0.25,127,80.0
12880,D5,383.0,0.25,127,80.0
12881,A4,383.0,0.25,127,80.0
12882,D4,383.0,0.25,127,80.0
12883,A3,383.0,0.25,127,80.0
12884,E-5,383.25,0.25,127,80.0
12885,E-2,383.25,0.25,127,80.0
12886,E-6,383.25,0.25,127,80.0
12887,E-6,383.25,0.25,127,80.0
12888,E-3,383.25,0.25,127,80.0
12889,B-2,383.25,0.25,127,80.0
12890,E-4,383.25,0.25,127,80.0
12891,B-3,383.25,0.25,127,80.0
12892,A3,383.25,0.5,127,80.0
12893,D2,383.25,0.5,127,80.0
12894,E-4,383.25,0.25,127,80.0
12895,B-3,383.25,0.25,127,80.0
12896,E-5,383.25,0.25,127,80.0
12897,B-4,383.25,0.25,127,80.0
12898,E-4,383.25,0.25,127,80.0
12899,B-3,383.25,0.25,127,80.0
12900,D5,383.5,0.25,127,80.0
12901,D6,383.5,0.25,127,80.0
12902,D6,383.5,0.25,127,80.0
12903,C5,383.75,0.25,127,80.0
12904,C6,383.75,0.25,127,80.0
12905,C6,383.75,0.25,127,80.0
12906,A3,383.75,0.25,127,80.0
12907,B1,383.75,0.25,127,80.0
12908,G#3,384.0,0.25,127,80.0
12909,G1,384.0,0.25,127,80.0
12910,G#4,384.0,0.25,127,80.0
12911,G#4,384.0,0.25,127,80.0
12912,G3,384.0,0.25,127,80.0
12913,D3,384.0,0.25,127,80.0
12914,G2,384.0,0.25,127,80.0
12915,G4,384.0,0.25,127,80.0
12916,D4,384.0,0.25,127,80.0
12917,G3,384.0,0.25,127,80.0
12918,E-3,384.0,0.5,127,80.0
12919,C#3,384.0,0.5,127,80.0
12920,B1,384.0,0.5,127,80.0
12921,G4,384.0,0.25,127,80.0
12922,D4,384.0,0.25,127,80.0
12923,G3,384.0,0.25,127,80.0
12924,G#4,384.0,0.25,127,80.0
12925,E-4,384.0,0.25,127,80.0
12926,G#3,384.0,0.25,127,80.0
12927,G5,384.0,0.25,127,80.0
12928,D5,384.0,0.25,127,80.0
12929,G4,384.0,0.25,127,80.0
12930,G4,384.0,0.25,127,80.0
12931,D4,384.0,0.25,127,80.0
12932,G3,384.0,0.25,127,80.0
12933,D4,384.25,0.25,127,80.0
12934,G#1,384.25,0.25,127,80.0
12935,D5,384.25,0.25,127,80.0
12936,D5,384.25,0.25,127,80.0
12937,G#3,384.25,0.25,127,80.0
12938,E-3,384.25,0.25,127,80.0
12939,G#2,384.25,0.25,127,80.0
12940,G#4,384.25,0.25,127,80.0
12941,E-4,384.25,0.25,127,80.0
12942,G#3,384.25,0.25,127,80.0
12943,G#4,384.25,0.25,127,80.0
12944,E-4,384.25,0.25,127,80.0
12945,G#3,384.25,0.25,127,80.0
12946,G4,384.25,0.25,127,80.0
12947,D4,384.25,0.25,127,80.0
12948,G3,384.25,0.25,127,80.0
12949,G#5,384.25,0.25,127,80.0
12950,E-5,384.25,0.25,127,80.0
12951,G#4,384.25,0.25,127,80.0
12952,G#4,384.25,0.25,127,80.0
12953,E-4,384.25,0.25,127,80.0
12954,G#3,384.25,0.25,127,80.0
12955,G4,384.5,0.25,127,80.0
12956,G5,384.5,0.25,127,80.0
12957,G5,384.5,0.25,127,80.0
12958,E-3,384.5,0.25,127,80.0
12959,C#3,384.5,0.25,127,80.0
12960,G#3,384.75,0.25,127,80.0
12961,B1,384.75,0.25,127,80.0
12962,G#4,384.75,0.25,127,80.0
12963,G#4,384.75,0.25,127,80.0
12964,C5,385.0,0.25,127,80.0
12965,E-3,385.0,0.25,127,80.0
12966,C6,385.0,0.25,127,80.0
12967,C6,385.0,0.25,127,80.0
12968,D5,385.25,0.25,127,80.0
12969,B1,385.25,0.25,127,80.0
12970,D6,385.25,0.25,127,80.0
12971,D6,385.25,0.25,127,80.0
12972,G5,385.5,0.25,127,80.0
12973,G6,385.5,0.25,127,80.0
12974,G6,385.5,0.25,127,80.0
12975,E-3,385.5,0.5,127,80.0
12976,D2,385.5,0.5,127,80.0
12977,G#4,385.75,0.25,127,80.0
12978,G#5,385.75,0.25,127,80.0
12979,G#5,385.75,0.25,127,80.0
12980,C6,386.0,0.25,127,80.0
12981,E-3,386.0,333/1000,127,80.0
12982,C7,386.0,0.25,127,80.0
12983,C7,386.0,0.25,127,80.0
12984,G4,386.0,0.25,127,80.0
12985,D4,386.0,0.25,127,80.0
12986,G3,386.0,0.25,127,80.0
12987,G#4,386.25,0.25,127,80.0
12988,G#5,386.25,0.25,127,80.0
12989,G#5,386.25,0.25,127,80.0
12990,D3,386.333,167/1000,127,80.0
12991,C3,386.333,167/1000,127,80.0
12992,G5,386.5,0.25,127,80.0
12993,E-3,386.5,167/1000,127,80.0
12994,G6,386.5,0.25,127,80.0
12995,G6,386.5,0.25,127,80.0
12996,D2,386.667,167/1000,127,80.0
12997,D5,386.75,0.25,127,80.0
12998,D6,386.75,0.25,127,80.0
12999,D6,386.75,0.25,127,80.0
13000,E-3,386.833,167/1000,127,80.0
13001,C5,387.0,0.25,127,80.0
13002,C6,387.0,0.25,127,80.0
13003,C6,387.0,0.25,127,80.0
13004,C3,387.0,167/1000,127,80.0
13005,B2,387.0,167/1000,127,80.0
13006,G#4,387.0,0.25,127,80.0
13007,E-4,387.0,0.25,127,80.0
13008,G#3,387.0,0.25,127,80.0
13009,C3,387.167,167/1000,127,80.0
13010,B2,387.167,167/1000,127,80.0
13011,G#3,387.25,0.25,127,80.0
13012,G#4,387.25,0.25,127,80.0
13013,G#4,387.25,0.25,127,80.0
13014,G2,387.333,167/1000,127,80.0
13015,G4,387.5,0.25,127,80.0
13016,G5,387.5,0.25,127,80.0
13017,G5,387.5,0.25,127,80.0
13018,A2,387.5,167/1000,127,80.0
13019,G2,387.5,167/1000,127,80.0
13020,D2,387.667,167/1000,127,80.0
13021,D4,387.75,0.25,127,80.0
13022,D5,387.75,0.25,127,80.0
13023,D5,387.75,0.25,127,80.0
13024,E-3,387.833,167/1000,127,80.0
13025,C#3,387.833,167/1000,127,80.0
13026,G#3,388.0,0.25,127,80.0
13027,G#1,388.0,0.25,127,80.0
13028,G#4,388.0,0.25,127,80.0
13029,G#4,388.0,0.25,127,80.0
13030,G#3,388.0,0.25,127,80.0
13031,E-3,388.0,0.25,127,80.0
13032,G#2,388.0,0.25,127,80.0
13033,G#4,388.0,0.25,127,80.0
13034,E-4,388.0,0.25,127,80.0
13035,G#3,388.0,0.25,127,80.0
13036,E-3,388.0,0.5,127,80.0
13037,C#3,388.0,0.5,127,80.0
13038,B1,388.0,0.5,127,80.0
13039,G#4,388.0,0.25,127,80.0
13040,E-4,388.0,0.25,127,80.0
13041,G#3,388.0,0.25,127,80.0
13042,D4,388.0,0.125,127,80.0
13043,A3,388.0,0.125,127,80.0
13044,G#5,388.0,0.25,127,80.0
13045,E-5,388.0,0.25,127,80.0
13046,G#4,388.0,0.25,127,80.0
13047,G#4,388.0,0.25,127,80.0
13048,E-4,388.0,0.25,127,80.0
13049,G#3,388.0,0.25,127,80.0
13050,D4,388.125,0.125,127,80.0
13051,A3,388.125,0.125,127,80.0
13052,D4,388.25,0.25,127,80.0
13053,G1,388.25,0.25,127,80.0
13054,D5,388.25,0.25,127,80.0
13055,D5,388.25,0.25,127,80.0
13056,G3,388.25,0.25,127,80.0
13057,D3,388.25,0.25,127,80.0
13058,G2,388.25,0.25,127,80.0
13059,G4,388.25,0.25,127,80.0
13060,D4,388.25,0.25,127,80.0
13061,G3,388.25,0.25,127,80.0
13062,G4,388.25,0.25,127,80.0
13063,D4,388.25,0.25,127,80.0
13064,G3,388.25,0.25,127,80.0
13065,D4,388.25,0.125,127,80.0
13066,A3,388.25,0.125,127,80.0
13067,G5,388.25,0.25,127,80.0
13068,D5,388.25,0.25,127,80.0
13069,G4,388.25,0.25,127,80.0
13070,G4,388.25,0.25,127,80.0
13071,D4,388.25,0.25,127,80.0
13072,G3,388.25,0.25,127,80.0
13073,D4,388.375,0.125,127,80.0
13074,A3,388.375,0.125,127,80.0
13075,G4,388.5,0.25,127,80.0
13076,E-3,388.5,0.25,127,80.0
13077,G5,388.5,0.25,127,80.0
13078,G5,388.5,0.25,127,80.0
13079,D4,388.5,0.125,127,80.0
13080,A3,388.5,0.125,127,80.0
13081,D4,388.625,0.125,127,80.0
13082,A3,388.625,0.125,127,80.0
13083,G#3,388.75,0.25,127,80.0
13084,B1,388.75,0.25,127,80.0
13085,G#4,388.75,0.25,127,80.0
13086,G#4,388.75,0.25,127,80.0
13087,D4,388.75,0.125,127,80.0
13088,A3,388.75,0.125,127,80.0
13089,D4,388.875,0.125,127,80.0
13090,A3,388.875,0.125,127,80.0
13091,C5,389.0,0.25,127,80.0
13092,E-3,389.0,0.25,127,80.0
13093,C6,389.0,0.25,127,80.0
13094,C6,389.0,0.25,127,80.0
13095,D4,389.0,0.125,127,80.0
13096,A3,389.0,0.125,127,80.0
13097,D4,389.125,0.125,127,80.0
13098,A3,389.125,0.125,127,80.0
13099,D5,389.25,0.25,127,80.0
13100,B1,389.25,0.25,127,80.0
13101,D6,389.25,0.25,127,80.0
13102,D6,389.25,0.25,127,80.0
13103,D4,389.25,0.125,127,80.0
13104,A3,389.25,0.125,127,80.0
13105,D4,389.375,0.125,127,80.0
13106,A3,389.375,0.125,127,80.0
13107,G5,389.5,0.25,127,80.0
13108,G6,389.5,0.25,127,80.0
13109,G6,389.5,0.25,127,80.0
13110,A3,389.5,0.5,127,80.0
13111,D2,389.5,0.5,127,80.0
13112,D4,389.5,0.125,127,80.0
13113,A3,389.5,0.125,127,80.0
13114,D4,389.625,0.125,127,80.0
13115,A3,389.625,0.125,127,80.0
13116,G#4,389.75,0.25,127,80.0
13117,G#5,389.75,0.25,127,80.0
13118,G#5,389.75,0.25,127,80.0
13119,D4,389.75,0.125,127,80.0
13120,A3,389.75,0.125,127,80.0
13121,D4,389.875,0.125,127,80.0
13122,A3,389.875,0.125,127,80.0
13123,C6,390.0,0.25,127,80.0
13124,G1,390.0,0.25,127,80.0
13125,A3,390.0,0.5,127,80.0
13126,C7,390.0,0.25,127,80.0
13127,C7,390.0,0.25,127,80.0
13128,G3,390.0,0.25,127,80.0
13129,D3,390.0,0.25,127,80.0
13130,G2,390.0,0.25,127,80.0
13131,G4,390.0,0.25,127,80.0
13132,D4,390.0,0.25,127,80.0
13133,G3,390.0,0.25,127,80.0
13134,G4,390.0,0.25,127,80.0
13135,D4,390.0,0.25,127,80.0
13136,G3,390.0,0.25,127,80.0
13137,D4,390.0,0.125,127,80.0
13138,A3,390.0,0.125,127,80.0
13139,G5,390.0,0.25,127,80.0
13140,D5,390.0,0.25,127,80.0
13141,G4,390.0,0.25,127,80.0
13142,G4,390.0,0.25,127,80.0
13143,D4,390.0,0.25,127,80.0
13144,G3,390.0,0.25,127,80.0
13145,D4,390.125,0.125,127,80.0
13146,A3,390.125,0.125,127,80.0
13147,G#4,390.25,0.25,127,80.0
13148,G#5,390.25,0.25,127,80.0
13149,G#5,390.25,0.25,127,80.0
13150,D4,390.25,0.125,127,80.0
13151,A3,390.25,0.125,127,80.0
13152,D4,390.375,0.125,127,80.0
13153,A3,390.375,0.125,127,80.0
13154,G5,390.5,0.25,127,80.0
13155,D3,390.5,0.125,127,80.0
13156,G6,390.5,0.25,127,80.0
13157,G6,390.5,0.25,127,80.0
13158,D4,390.5,0.125,127,80.0
13159,A3,390.5,0.125,127,80.0
13160,D3,390.625,0.125,127,80.0
13161,D4,390.625,0.125,127,80.0
13162,A3,390.625,0.125,127,80.0
13163,D5,390.75,0.25,127,80.0
13164,D6,390.75,0.25,127,80.0
13165,D6,390.75,0.25,127,80.0
13166,B2,390.75,0.125,127,80.0
13167,A2,390.75,0.125,127,80.0
13168,D4,390.75,0.125,127,80.0
13169,A3,390.75,0.125,127,80.0
13170,B2,390.875,0.125,127,80.0
13171,D4,390.875,0.125,127,80.0
13172,A3,390.875,0.125,127,80.0
13173,C5,391.0,0.25,127,80.0
13174,G#1,391.0,0.25,127,80.0
13175,C6,391.0,0.25,127,80.0
13176,C6,391.0,0.25,127,80.0
13177,G#3,391.0,0.25,127,80.0
13178,E-3,391.0,0.25,127,80.0
13179,G#2,391.0,0.25,127,80.0
13180,G#4,391.0,0.25,127,80.0
13181,E-4,391.0,0.25,127,80.0
13182,G#3,391.0,0.25,127,80.0
13183,F2,391.0,0.25,127,80.0
13184,D2,391.0,0.25,127,80.0
13185,G#4,391.0,0.25,127,80.0
13186,E-4,391.0,0.25,127,80.0
13187,G#3,391.0,0.25,127,80.0
13188,D4,391.0,0.125,127,80.0
13189,A3,391.0,0.125,127,80.0
13190,G#5,391.0,0.25,127,80.0
13191,E-5,391.0,0.25,127,80.0
13192,G#4,391.0,0.25,127,80.0
13193,G#4,391.0,0.25,127,80.0
13194,E-4,391.0,0.25,127,80.0
13195,G#3,391.0,0.25,127,80.0
13196,D4,391.125,0.125,127,80.0
13197,A3,391.125,0.125,127,80.0
13198,G#3,391.25,0.25,127,80.0
13199,G#4,391.25,0.25,127,80.0
13200,G#4,391.25,0.25,127,80.0
13201,A2,391.25,0.25,127,80.0
13202,G2,391.25,0.25,127,80.0
13203,D4,391.25,0.125,127,80.0
13204,A3,391.25,0.125,127,80.0
13205,D4,391.375,0.125,127,80.0
13206,A3,391.375,0.125,127,80.0
13207,G4,391.5,0.25,127,80.0
13208,D2,391.5,0.25,127,80.0
13209,G5,391.5,0.25,127,80.0
13210,G5,391.5,0.25,127,80.0
13211,D4,391.5,0.125,127,80.0
13212,A3,391.5,0.125,127,80.0
13213,D4,391.625,0.125,127,80.0
13214,A3,391.625,0.125,127,80.0
13215,D4,391.75,0.25,127,80.0
13216,D5,391.75,0.25,127,80.0
13217,D5,391.75,0.25,127,80.0
13218,E-3,391.75,0.25,127,80.0
13219,C#3,391.75,0.25,127,80.0
13220,D4,391.75,0.125,127,80.0
13221,A3,391.75,0.125,127,80.0
13222,D4,391.875,31/250,127,80.0
13223,A3,391.875,31/250,127,80.0
13224,F3,392.0,0.25,127,80.0
13225,F4,392.0,0.25,127,80.0
13226,F4,392.0,0.25,127,80.0
13227,D3,392.0,4.0,127,80.0
13228,A2,392.0,4.0,127,80.0
13229,D4,392.0,4.0,127,80.0
13230,A3,392.0,4.0,127,80.0
13231,D2,392.0,4.0,127,80.0
13232,D1,392.0,4.0,127,80.0
13233,E-3,392.0,0.5,127,80.0
13234,C#3,392.0,0.5,127,80.0
13235,B1,392.0,0.5,127,80.0
13236,D4,392.0,4.0,127,80.0
13237,A3,392.0,4.0,127,80.0
13238,D4,392.0,0.25,127,80.0
13239,A3,392.0,0.25,127,80.0
13240,D5,392.0,0.125,127,80.0
13241,A4,392.0,0.125,127,80.0
13242,D4,392.0,4.0,127,80.0
13243,A3,392.0,4.0,127,80.0
13244,D5,392.125,0.125,127,80.0
13245,A4,392.125,0.125,127,80.0
13246,C4,392.25,0.25,127,80.0
13247,C5,392.25,0.25,127,80.0
13248,C5,392.25,0.25,127,80.0
13249,E-4,392.25,0.25,127,80.0
13250,B-3,392.25,0.25,127,80.0
13251,D5,392.25,0.125,127,80.0
13252,A4,392.25,0.125,127,80.0
13253,D5,392.375,0.125,127,80.0
13254,A4,392.375,0.125,127,80.0
13255,D4,392.5,0.25,127,80.0
13256,E-3,392.5,0.25,127,80.0
13257,D5,392.5,0.25,127,80.0
13258,D5,392.5,0.25,127,80.0
13259,D5,392.5,0.125,127,80.0
13260,A4,392.5,0.125,127,80.0
13261,D5,392.625,0.125,127,80.0
13262,A4,392.625,0.125,127,80.0
13263,E-4,392.75,0.25,127,80.0
13264,B1,392.75,0.25,127,80.0
13265,E-5,392.75,0.25,127,80.0
13266,E-5,392.75,0.25,127,80.0
13267,D5,392.75,0.125,127,80.0
13268,A4,392.75,0.125,127,80.0
13269,D5,392.875,0.125,127,80.0
13270,A4,392.875,0.125,127,80.0
13271,F3,393.0,0.25,127,80.0
13272,F4,393.0,0.25,127,80.0
13273,F4,393.0,0.25,127,80.0
13274,E-3,393.0,0.5,127,80.0
13275,D2,393.0,0.5,127,80.0
13276,D5,393.0,0.125,127,80.0
13277,A4,393.0,0.125,127,80.0
13278,D5,393.125,0.125,127,80.0
13279,A4,393.125,0.125,127,80.0
13280,C5,393.25,0.25,127,80.0
13281,C6,393.25,0.25,127,80.0
13282,C6,393.25,0.25,127,80.0
13283,D5,393.25,0.125,127,80.0
13284,A4,393.25,0.125,127,80.0
13285,D5,393.375,0.125,127,80.0
13286,A4,393.375,0.125,127,80.0
13287,D5,393.5,0.25,127,80.0
13288,B3,393.5,0.25,127,80.0
13289,D6,393.5,0.25,127,80.0
13290,D6,393.5,0.25,127,80.0
13291,D5,393.5,0.125,127,80.0
13292,A4,393.5,0.125,127,80.0
13293,D5,393.625,0.125,127,80.0
13294,A4,393.625,0.125,127,80.0
13295,E-5,393.75,0.25,127,80.0
13296,E-6,393.75,0.25,127,80.0
13297,E-6,393.75,0.25,127,80.0
13298,B2,393.75,0.25,127,80.0
13299,A2,393.75,0.25,127,80.0
13300,D5,393.75,0.125,127,80.0
13301,A4,393.75,0.125,127,80.0
13302,D5,393.875,0.125,127,80.0
13303,A4,393.875,0.125,127,80.0
13304,F4,394.0,0.25,127,80.0
13305,B3,394.0,0.25,127,80.0
13306,F5,394.0,0.25,127,80.0
13307,F5,394.0,0.25,127,80.0
13308,E-4,394.0,0.25,127,80.0
13309,B-3,394.0,0.25,127,80.0
13310,D5,394.0,0.125,127,80.0
13311,A4,394.0,0.125,127,80.0
13312,D5,394.125,0.125,127,80.0
13313,A4,394.125,0.125,127,80.0
13314,C6,394.25,0.25,127,80.0
13315,D2,394.25,0.25,127,80.0
13316,C7,394.25,0.25,127,80.0
13317,C7,394.25,0.25,127,80.0
13318,D4,394.25,0.25,127,80.0
13319,A3,394.25,0.25,127,80.0
13320,D5,394.25,0.125,127,80.0
13321,A4,394.25,0.125,127,80.0
13322,D5,394.375,0.125,127,80.0
13323,A4,394.375,0.125,127,80.0
13324,F4,394.5,0.25,127,80.0
13325,B2,394.5,0.25,127,80.0
13326,F5,394.5,0.25,127,80.0
13327,F5,394.5,0.25,127,80.0
13328,D5,394.5,0.125,127,80.0
13329,A4,394.5,0.125,127,80.0
13330,D5,394.625,0.125,127,80.0
13331,A4,394.625,0.125,127,80.0
13332,E-5,394.75,0.25,127,80.0
13333,B1,394.75,0.25,127,80.0
13334,E-6,394.75,0.25,127,80.0
13335,E-6,394.75,0.25,127,80.0
13336,D5,394.75,0.125,127,80.0
13337,A4,394.75,0.125,127,80.0
13338,D5,394.875,0.125,127,80.0
13339,A4,394.875,0.125,127,80.0
13340,D5,395.0,0.25,127,80.0
13341,D6,395.0,0.25,127,80.0
13342,D6,395.0,0.25,127,80.0
13343,E-3,395.0,0.5,127,80.0
13344,C#3,395.0,0.5,127,80.0
13345,B1,395.0,0.5,127,80.0
13346,D4,395.0,0.25,127,80.0
13347,A3,395.0,0.25,127,80.0
13348,D5,395.0,0.125,127,80.0
13349,A4,395.0,0.125,127,80.0
13350,D5,395.125,0.125,127,80.0
13351,A4,395.125,0.125,127,80.0
13352,C5,395.25,0.25,127,80.0
13353,C6,395.25,0.25,127,80.0
13354,C6,395.25,0.25,127,80.0
13355,E-4,395.25,0.25,127,80.0
13356,B-3,395.25,0.25,127,80.0
13357,D5,395.25,0.125,127,80.0
13358,A4,395.25,0.125,127,80.0
13359,D5,395.375,0.125,127,80.0
13360,A4,395.375,0.125,127,80.0
13361,F3,395.5,0.25,127,80.0
13362,F4,395.5,0.25,127,80.0
13363,F4,395.5,0.25,127,80.0
13364,C#3,395.5,0.5,127,80.0
13365,D2,395.5,0.5,127,80.0
13366,B1,395.5,0.5,127,80.0
13367,D5,395.5,0.125,127,80.0
13368,A4,395.5,0.125,127,80.0
13369,D5,395.625,0.125,127,80.0
13370,A4,395.625,0.125,127,80.0
13371,E-4,395.75,0.25,127,80.0
13372,E-5,395.75,0.25,127,80.0
13373,E-5,395.75,0.25,127,80.0
13374,D5,395.75,0.125,127,80.0
13375,A4,395.75,0.125,127,80.0
13376,D5,395.875,31/250,127,80.0
13377,A4,395.875,31/250,127,80.0
13378,D4,396.0,0.25,127,80.0
13379,D2,396.0,0.25,127,80.0
13380,D2,396.0,0.25,127,80.0
13381,D5,396.0,0.25,127,80.0
13382,D5,396.0,0.25,127,80.0
13383,D3,396.0,0.25,127,80.0
13384,A2,396.0,0.25,127,80.0
13385,D4,396.0,0.25,127,80.0
13386,A3,396.0,0.25,127,80.0
13387,D4,396.0,0.25,127,80.0
13388,A3,396.0,0.25,127,80.0
13389,G4,396.0,0.25,127,80.0
13390,D4,396.0,0.25,127,80.0
13391,G3,396.0,0.25,127,80.0
13392,D5,396.0,0.25,127,80.0
13393,A4,396.0,0.25,127,80.0
13394,D4,396.0,0.25,127,80.0
13395,A3,396.0,0.25,127,80.0
13396,C4,396.25,0.25,127,80.0
13397,E-2,396.25,0.25,127,80.0
13398,D2,396.25,0.125,127,80.0
13399,C5,396.25,0.25,127,80.0
13400,C5,396.25,0.25,127,80.0
13401,E-3,396.25,0.25,127,80.0
13402,B-2,396.25,0.25,127,80.0
13403,E-4,396.25,0.25,127,80.0
13404,B-3,396.25,0.25,127,80.0
13405,E-4,396.25,0.25,127,80.0
13406,B-3,396.25,0.25,127,80.0
13407,G#4,396.25,0.25,127,80.0
13408,E-4,396.25,0.25,127,80.0
13409,G#3,396.25,0.25,127,80.0
13410,E-5,396.25,0.25,127,80.0
13411,B-4,396.25,0.25,127,80.0
13412,E-4,396.25,0.25,127,80.0
13413,B-3,396.25,0.25,127,80.0
13414,D2,396.375,0.125,127,80.0
13415,F3,396.5,0.25,127,80.0
13416,F4,396.5,0.25,127,80.0
13417,F4,396.5,0.25,127,80.0
13418,F2,396.5,0.25,127,80.0
13419,D2,396.5,0.25,127,80.0
13420,C4,396.75,0.25,127,80.0
13421,B1,396.75,0.125,127,80.0
13422,C5,396.75,0.25,127,80.0
13423,C5,396.75,0.25,127,80.0
13424,B1,396.875,0.125,127,80.0
13425,D4,397.0,0.25,127,80.0
13426,B1,397.0,0.125,127,80.0
13427,D5,397.0,0.25,127,80.0
13428,D5,397.0,0.25,127,80.0
13429,D2,397.125,0.125,127,80.0
13430,E-4,397.25,0.25,127,80.0
13431,B1,397.25,0.125,127,80.0
13432,E-5,397.25,0.25,127,80.0
13433,E-5,397.25,0.25,127,80.0
13434,F2,397.375,0.25,127,80.0
13435,D2,397.375,0.25,127,80.0
13436,F3,397.5,0.25,127,80.0
13437,F4,397.5,0.25,127,80.0
13438,F4,397.5,0.25,127,80.0
13439,D2,397.625,0.125,127,80.0
13440,C5,397.75,0.25,127,80.0
13441,B2,397.75,0.125,127,80.0
13442,C6,397.75,0.25,127,80.0
13443,C6,397.75,0.25,127,80.0
13444,D2,397.875,0.125,127,80.0
13445,D5,398.0,0.25,127,80.0
13446,E-2,398.0,0.25,127,80.0
13447,C3,398.0,167/1000,127,80.0
13448,D6,398.0,0.25,127,80.0
13449,D6,398.0,0.25,127,80.0
13450,E-3,398.0,0.25,127,80.0
13451,B-2,398.0,0.25,127,80.0
13452,E-4,398.0,0.25,127,80.0
13453,B-3,398.0,0.25,127,80.0
13454,E-4,398.0,0.25,127,80.0
13455,B-3,398.0,0.25,127,80.0
13456,E-5,398.0,0.25,127,80.0
13457,B-4,398.0,0.25,127,80.0
13458,E-4,398.0,0.25,127,80.0
13459,B-3,398.0,0.25,127,80.0
13460,B2,398.167,167/1000,127,80.0
13461,E-5,398.25,0.25,127,80.0
13462,D2,398.25,0.25,127,80.0
13463,E-6,398.25,0.25,127,80.0
13464,E-6,398.25,0.25,127,80.0
13465,D3,398.25,0.25,127,80.0
13466,A2,398.25,0.25,127,80.0
13467,D4,398.25,0.25,127,80.0
13468,A3,398.25,0.25,127,80.0
13469,D4,398.25,0.25,127,80.0
13470,A3,398.25,0.25,127,80.0
13471,D5,398.25,0.25,127,80.0
13472,A4,398.25,0.25,127,80.0
13473,D4,398.25,0.25,127,80.0
13474,A3,398.25,0.25,127,80.0
13475,D3,398.333,83/1000,127,80.0
13476,C3,398.333,83/1000,127,80.0
13477,C3,398.417,83/1000,127,80.0
13478,B2,398.417,83/1000,127,80.0
13479,F4,398.5,0.25,127,80.0
13480,C3,398.5,167/1000,127,80.0
13481,F5,398.5,0.25,127,80.0
13482,F5,398.5,0.25,127,80.0
13483,B2,398.667,167/1000,127,80.0
13484,A2,398.667,167/1000,127,80.0
13485,C6,398.75,0.25,127,80.0
13486,C7,398.75,0.25,127,80.0
13487,C7,398.75,0.25,127,80.0
13488,B2,398.833,167/1000,127,80.0
13489,F4,399.0,0.25,127,80.0
13490,D2,399.0,0.25,127,80.0
13491,F5,399.0,0.25,127,80.0
13492,F5,399.0,0.25,127,80.0
13493,D3,399.0,0.25,127,80.0
13494,A2,399.0,0.25,127,80.0
13495,D4,399.0,0.25,127,80.0
13496,A3,399.0,0.25,127,80.0
13497,A2,399.0,0.125,127,80.0
13498,G2,399.0,0.125,127,80.0
13499,D4,399.0,0.25,127,80.0
13500,A3,399.0,0.25,127,80.0
13501,D5,399.0,0.25,127,80.0
13502,A4,399.0,0.25,127,80.0
13503,D4,399.0,0.25,127,80.0
13504,A3,399.0,0.25,127,80.0
13505,A2,399.125,0.125,127,80.0
13506,E-5,399.25,0.25,127,80.0
13507,E-2,399.25,0.25,127,80.0
13508,E-6,399.25,0.25,127,80.0
13509,E-6,399.25,0.25,127,80.0
13510,E-3,399.25,0.25,127,80.0
13511,B-2,399.25,0.25,127,80.0
13512,E-4,399.25,0.25,127,80.0
13513,B-3,399.25,0.25,127,80.0
13514,G2,399.25,0.125,127,80.0
13515,F2,399.25,0.125,127,80.0
13516,E-4,399.25,0.25,127,80.0
13517,B-3,399.25,0.25,127,80.0
13518,E-5,399.25,0.25,127,80.0
13519,B-4,399.25,0.25,127,80.0
13520,E-4,399.25,0.25,127,80.0
13521,B-3,399.25,0.25,127,80.0
13522,G2,399.375,0.125,127,80.0
13523,D5,399.5,0.25,127,80.0
13524,F2,399.5,0.125,127,80.0
13525,D6,399.5,0.25,127,80.0
13526,D6,399.5,0.25,127,80.0
13527,G2,399.625,0.125,127,80.0
13528,F2,399.625,0.125,127,80.0
13529,C5,399.75,0.25,127,80.0
13530,D2,399.75,0.25,127,80.0
13531,C6,399.75,0.25,127,80.0
13532,C6,399.75,0.25,127,80.0
13533,G#3,400.0,0.25,127,80.0
13534,G1,400.0,0.25,127,80.0
13535,G#4,400.0,0.25,127,80.0
13536,G#4,400.0,0.25,127,80.0
13537,G3,400.0,0.25,127,80.0
13538,D3,400.0,0.25,127,80.0
13539,G2,400.0,0.25,127,80.0
13540,G4,400.0,0.25,127,80.0
13541,D4,400.0,0.25,127,80.0
13542,G3,400.0,0.25,127,80.0
13543,E-3,400.0,0.25,127,80.0
13544,C#3,400.0,0.25,127,80.0
13545,B1,400.0,0.25,127,80.0
13546,G4,400.0,0.25,127,80.0
13547,D4,400.0,0.25,127,80.0
13548,G3,400.0,0.25,127,80.0
13549,G#4,400.0,0.25,127,80.0
13550,E-4,400.0,0.25,127,80.0
13551,G#3,400.0,0.25,127,80.0
13552,G5,400.0,0.25,127,80.0
13553,D5,400.0,0.25,127,80.0
13554,G4,400.0,0.25,127,80.0
13555,G4,400.0,0.25,127,80.0
13556,D4,400.0,0.25,127,80.0
13557,G3,400.0,0.25,127,80.0
13558,D4,400.25,0.25,127,80.0
13559,G#1,400.25,0.25,127,80.0
13560,D5,400.25,0.25,127,80.0
13561,D5,400.25,0.25,127,80.0
13562,G#3,400.25,0.25,127,80.0
13563,E-3,400.25,0.25,127,80.0
13564,G#2,400.25,0.25,127,80.0
13565,G#4,400.25,0.25,127,80.0
13566,E-4,400.25,0.25,127,80.0
13567,G#3,400.25,0.25,127,80.0
13568,E-3,400.25,0.5,127,80.0
13569,C#3,400.25,0.5,127,80.0
13570,B1,400.25,0.5,127,80.0
13571,G#4,400.25,0.25,127,80.0
13572,E-4,400.25,0.25,127,80.0
13573,G#3,400.25,0.25,127,80.0
13574,G4,400.25,0.25,127,80.0
13575,D4,400.25,0.25,127,80.0
13576,G3,400.25,0.25,127,80.0
13577,G#5,400.25,0.25,127,80.0
13578,E-5,400.25,0.25,127,80.0
13579,G#4,400.25,0.25,127,80.0
13580,G#4,400.25,0.25,127,80.0
13581,E-4,400.25,0.25,127,80.0
13582,G#3,400.25,0.25,127,80.0
13583,G4,400.5,0.25,127,80.0
13584,G5,400.5,0.25,127,80.0
13585,G5,400.5,0.25,127,80.0
13586,G#3,400.75,0.25,127,80.0
13587,G#4,400.75,0.25,127,80.0
13588,G#4,400.75,0.25,127,80.0
13589,E-3,400.75,0.5,127,80.0
13590,B1,400.75,0.5,127,80.0
13591,C5,401.0,0.25,127,80.0
13592,C6,401.0,0.25,127,80.0
13593,C6,401.0,0.25,127,80.0
13594,D5,401.25,0.25,127,80.0
13595,B1,401.25,0.25,127,80.0
13596,D6,401.25,0.25,127,80.0
13597,D6,401.25,0.25,127,80.0
13598,G5,401.5,0.25,127,80.0
13599,G6,401.5,0.25,127,80.0
13600,G6,401.5,0.25,127,80.0
13601,A3,401.5,0.25,127,80.0
13602,D2,401.5,0.25,127,80.0
13603,G#4,401.75,0.25,127,80.0
13604,D2,401.75,0.25,127,80.0
13605,G#5,401.75,0.25,127,80.0
13606,G#5,401.75,0.25,127,80.0
13607,C6,402.0,0.25,127,80.0
13608,C7,402.0,0.25,127,80.0
13609,C7,402.0,0.25,127,80.0
13610,E-3,402.0,333/1000,127,80.0
13611,D2,402.0,333/1000,127,80.0
13612,G4,402.0,0.25,127,80.0
13613,D4,402.0,0.25,127,80.0
13614,G3,402.0,0.25,127,80.0
13615,G#4,402.25,0.25,127,80.0
13616,G#5,402.25,0.25,127,80.0
13617,G#5,402.25,0.25,127,80.0
13618,E-3,402.333,333/1000,127,80.0
13619,D2,402.333,333/1000,127,80.0
13620,G5,402.5,0.25,127,80.0
13621,G6,402.5,0.25,127,80.0
13622,G6,402.5,0.25,127,80.0
13623,E-3,402.667,333/1000,127,80.0
13624,D2,402.667,333/1000,127,80.0
13625,D5,402.75,0.25,127,80.0
13626,D6,402.75,0.25,127,80.0
13627,D6,402.75,0.25,127,80.0
13628,C5,403.0,0.25,127,80.0
13629,C6,403.0,0.25,127,80.0
13630,C6,403.0,0.25,127,80.0
13631,E-3,403.0,333/1000,127,80.0
13632,D2,403.0,333/1000,127,80.0
13633,G#4,403.0,0.25,127,80.0
13634,E-4,403.0,0.25,127,80.0
13635,G#3,403.0,0.25,127,80.0
13636,G#3,403.25,0.25,127,80.0
13637,G#4,403.25,0.25,127,80.0
13638,G#4,403.25,0.25,127,80.0
13639,E-3,403.333,333/1000,127,80.0
13640,D2,403.333,333/1000,127,80.0
13641,G4,403.5,0.25,127,80.0
13642,G5,403.5,0.25,127,80.0
13643,G5,403.5,0.25,127,80.0
13644,E-3,403.667,333/1000,127,80.0
13645,D2,403.667,333/1000,127,80.0
13646,D4,403.75,0.25,127,80.0
13647,D5,403.75,0.25,127,80.0
13648,D5,403.75,0.25,127,80.0
13649,G#3,404.0,0.25,127,80.0
13650,G#1,404.0,0.25,127,80.0
13651,G#4,404.0,0.25,127,80.0
13652,G#4,404.0,0.25,127,80.0
13653,G#3,404.0,0.25,127,80.0
13654,E-3,404.0,0.25,127,80.0
13655,G#2,404.0,0.25,127,80.0
13656,G#4,404.0,0.25,127,80.0
13657,E-4,404.0,0.25,127,80.0
13658,G#3,404.0,0.25,127,80.0
13659,E-3,404.0,0.25,127,80.0
13660,C#3,404.0,0.25,127,80.0
13661,B1,404.0,0.25,127,80.0
13662,G#4,404.0,0.25,127,80.0
13663,E-4,404.0,0.25,127,80.0
13664,G#3,404.0,0.25,127,80.0
13665,D4,404.0,0.125,127,80.0
13666,A3,404.0,0.125,127,80.0
13667,G#5,404.0,0.25,127,80.0
13668,E-5,404.0,0.25,127,80.0
13669,G#4,404.0,0.25,127,80.0
13670,G#4,404.0,0.25,127,80.0
13671,E-4,404.0,0.25,127,80.0
13672,G#3,404.0,0.25,127,80.0
13673,D4,404.125,0.125,127,80.0
13674,A3,404.125,0.125,127,80.0
13675,D4,404.25,0.25,127,80.0
13676,G1,404.25,0.25,127,80.0
13677,D5,404.25,0.25,127,80.0
13678,D5,404.25,0.25,127,80.0
13679,G3,404.25,0.25,127,80.0
13680,D3,404.25,0.25,127,80.0
13681,G2,404.25,0.25,127,80.0
13682,G4,404.25,0.25,127,80.0
13683,D4,404.25,0.25,127,80.0
13684,G3,404.25,0.25,127,80.0
13685,E-3,404.25,0.5,127,80.0
13686,B1,404.25,0.5,127,80.0
13687,G4,404.25,0.25,127,80.0
13688,D4,404.25,0.25,127,80.0
13689,G3,404.25,0.25,127,80.0
13690,D4,404.25,0.125,127,80.0
13691,A3,404.25,0.125,127,80.0
13692,G5,404.25,0.25,127,80.0
13693,D5,404.25,0.25,127,80.0
13694,G4,404.25,0.25,127,80.0
13695,G4,404.25,0.25,127,80.0
13696,D4,404.25,0.25,127,80.0
13697,G3,404.25,0.25,127,80.0
13698,D4,404.375,0.125,127,80.0
13699,A3,404.375,0.125,127,80.0
13700,G4,404.5,0.25,127,80.0
13701,G5,404.5,0.25,127,80.0
13702,G5,404.5,0.25,127,80.0
13703,D4,404.5,0.125,127,80.0
13704,A3,404.5,0.125,127,80.0
13705,D4,404.625,0.125,127,80.0
13706,A3,404.625,0.125,127,80.0
13707,G#3,404.75,0.25,127,80.0
13708,G#4,404.75,0.25,127,80.0
13709,G#4,404.75,0.25,127,80.0
13710,E-3,404.75,0.5,127,80.0
13711,B1,404.75,0.5,127,80.0
13712,D4,404.75,0.125,127,80.0
13713,A3,404.75,0.125,127,80.0
13714,D4,404.875,0.125,127,80.0
13715,A3,404.875,0.125,127,80.0
13716,C5,405.0,0.25,127,80.0
13717,C6,405.0,0.25,127,80.0
13718,C6,405.0,0.25,127,80.0
13719,D4,405.0,0.125,127,80.0
13720,A3,405.0,0.125,127,80.0
13721,D4,405.125,0.125,127,80.0
13722,A3,405.125,0.125,127,80.0
13723,D5,405.25,0.25,127,80.0
13724,D2,405.25,0.25,127,80.0
13725,D6,405.25,0.25,127,80.0
13726,D6,405.25,0.25,127,80.0
13727,D4,405.25,0.125,127,80.0
13728,A3,405.25,0.125,127,80.0
13729,D4,405.375,0.125,127,80.0
13730,A3,405.375,0.125,127,80.0
13731,G5,405.5,0.25,127,80.0
13732,E-3,405.5,0.25,127,80.0
13733,G6,405.5,0.25,127,80.0
13734,G6,405.5,0.25,127,80.0
13735,D4,405.5,0.125,127,80.0
13736,A3,405.5,0.125,127,80.0
13737,D4,405.625,0.125,127,80.0
13738,A3,405.625,0.125,127,80.0
13739,G#4,405.75,0.25,127,80.0
13740,B1,405.75,0.25,127,80.0
13741,G#5,405.75,0.25,127,80.0
13742,G#5,405.75,0.25,127,80.0
13743,D4,405.75,0.125,127,80.0
13744,A3,405.75,0.125,127,80.0
13745,D4,405.875,0.125,127,80.0
13746,A3,405.875,0.125,127,80.0
13747,C6,406.0,0.25,127,80.0
13748,G1,406.0,0.25,127,80.0
13749,D2,406.0,0.125,127,80.0
13750,C7,406.0,0.25,127,80.0
13751,C7,406.0,0.25,127,80.0
13752,G3,406.0,0.25,127,80.0
13753,D3,406.0,0.25,127,80.0
13754,G2,406.0,0.25,127,80.0
13755,G4,406.0,0.25,127,80.0
13756,D4,406.0,0.25,127,80.0
13757,G3,406.0,0.25,127,80.0
13758,G4,406.0,0.25,127,80.0
13759,D4,406.0,0.25,127,80.0
13760,G3,406.0,0.25,127,80.0
13761,D4,406.0,0.125,127,80.0
13762,A3,406.0,0.125,127,80.0
13763,G5,406.0,0.25,127,80.0
13764,D5,406.0,0.25,127,80.0
13765,G4,406.0,0.25,127,80.0
13766,G4,406.0,0.25,127,80.0
13767,D4,406.0,0.25,127,80.0
13768,G3,406.0,0.25,127,80.0
13769,B1,406.125,0.125,127,80.0
13770,D4,406.125,0.125,127,80.0
13771,A3,406.125,0.125,127,80.0
13772,G#4,406.25,0.25,127,80.0
13773,D2,406.25,0.125,127,80.0
13774,G#5,406.25,0.25,127,80.0
13775,G#5,406.25,0.25,127,80.0
13776,D4,406.25,0.125,127,80.0
13777,A3,406.25,0.125,127,80.0
13778,B1,406.375,0.125,127,80.0
13779,D4,406.375,0.125,127,80.0
13780,A3,406.375,0.125,127,80.0
13781,G5,406.5,0.25,127,80.0
13782,B1,406.5,167/1000,127,80.0
13783,G6,406.5,0.25,127,80.0
13784,G6,406.5,0.25,127,80.0
13785,D4,406.5,0.125,127,80.0
13786,A3,406.5,0.125,127,80.0
13787,D4,406.625,0.125,127,80.0
13788,A3,406.625,0.125,127,80.0
13789,B1,406.667,167/1000,127,80.0
13790,D5,406.75,0.25,127,80.0
13791,D6,406.75,0.25,127,80.0
13792,D6,406.75,0.25,127,80.0
13793,D4,406.75,0.125,127,80.0
13794,A3,406.75,0.125,127,80.0
13795,D2,406.833,167/1000,127,80.0
13796,D4,406.875,0.125,127,80.0
13797,A3,406.875,0.125,127,80.0
13798,C5,407.0,0.25,127,80.0
13799,G#1,407.0,0.25,127,80.0
13800,B1,407.0,0.125,127,80.0
13801,C6,407.0,0.25,127,80.0
13802,C6,407.0,0.25,127,80.0
13803,G#3,407.0,0.25,127,80.0
13804,E-3,407.0,0.25,127,80.0
13805,G#2,407.0,0.25,127,80.0
13806,G#4,407.0,0.25,127,80.0
13807,E-4,407.0,0.25,127,80.0
13808,G#3,407.0,0.25,127,80.0
13809,G#4,407.0,0.25,127,80.0
13810,E-4,407.0,0.25,127,80.0
13811,G#3,407.0,0.25,127,80.0
13812,D4,407.0,0.125,127,80.0
13813,A3,407.0,0.125,127,80.0
13814,G#5,407.0,0.25,127,80.0
13815,E-5,407.0,0.25,127,80.0
13816,G#4,407.0,0.25,127,80.0
13817,G#4,407.0,0.25,127,80.0
13818,E-4,407.0,0.25,127,80.0
13819,G#3,407.0,0.25,127,80.0
13820,B1,407.125,0.125,127,80.0
13821,D4,407.125,0.125,127,80.0
13822,A3,407.125,0.125,127,80.0
13823,G#3,407.25,0.25,127,80.0
13824,B1,407.25,0.125,127,80.0
13825,G#4,407.25,0.25,127,80.0
13826,G#4,407.25,0.25,127,80.0
13827,D4,407.25,0.125,127,80.0
13828,A3,407.25,0.125,127,80.0
13829,D2,407.375,0.125,127,80.0
13830,D4,407.375,0.125,127,80.0
13831,A3,407.375,0.125,127,80.0
13832,G4,407.5,0.25,127,80.0
13833,B1,407.5,0.125,127,80.0
13834,G5,407.5,0.25,127,80.0
13835,G5,407.5,0.25,127,80.0
13836,D4,407.5,0.125,127,80.0
13837,A3,407.5,0.125,127,80.0
13838,B1,407.625,0.125,127,80.0
13839,D4,407.625,0.125,127,80.0
13840,A3,407.625,0.125,127,80.0
13841,D4,407.75,0.25,127,80.0
13842,B1,407.75,0.125,127,80.0
13843,D5,407.75,0.25,127,80.0
13844,D5,407.75,0.25,127,80.0
13845,D4,407.75,0.125,127,80.0
13846,A3,407.75,0.125,127,80.0
13847,D2,407.875,0.125,127,80.0
13848,D4,407.875,31/250,127,80.0
13849,A3,407.875,31/250,127,80.0
13850,F3,408.0,0.25,127,80.0
13851,F4,408.0,0.25,127,80.0
13852,F4,408.0,0.25,127,80.0
13853,D3,408.0,4.0,127,80.0
13854,A2,408.0,4.0,127,80.0
13855,D4,408.0,4.0,127,80.0
13856,A3,408.0,4.0,127,80.0
13857,D2,408.0,4.0,127,80.0
13858,D1,408.0,4.0,127,80.0
13859,E-3,408.0,0.25,127,80.0
13860,C#3,408.0,0.25,127,80.0
13861,B1,408.0,0.25,127,80.0
13862,D4,408.0,4.0,127,80.0
13863,A3,408.0,4.0,127,80.0
13864,D4,408.0,0.25,127,80.0
13865,A3,408.0,0.25,127,80.0
13866,D5,408.0,0.125,127,80.0
13867,A4,408.0,0.125,127,80.0
13868,D4,408.0,4.0,127,80.0
13869,A3,408.0,4.0,127,80.0
13870,D5,408.125,0.125,127,80.0
13871,A4,408.125,0.125,127,80.0
13872,C4,408.25,0.25,127,80.0
13873,B1,408.25,0.25,127,80.0
13874,C5,408.25,0.25,127,80.0
13875,C5,408.25,0.25,127,80.0
13876,E-4,408.25,0.25,127,80.0
13877,B-3,408.25,0.25,127,80.0
13878,D5,408.25,0.125,127,80.0
13879,A4,408.25,0.125,127,80.0
13880,D5,408.375,0.125,127,80.0
13881,A4,408.375,0.125,127,80.0
13882,D4,408.5,0.25,127,80.0
13883,E-3,408.5,0.25,127,80.0
13884,D5,408.5,0.25,127,80.0
13885,D5,408.5,0.25,127,80.0
13886,D5,408.5,0.125,127,80.0
13887,A4,408.5,0.125,127,80.0
13888,D5,408.625,0.125,127,80.0
13889,A4,408.625,0.125,127,80.0
13890,E-4,408.75,0.25,127,80.0
13891,B1,408.75,0.25,127,80.0
13892,E-5,408.75,0.25,127,80.0
13893,E-5,408.75,0.25,127,80.0
13894,D5,408.75,0.125,127,80.0
13895,A4,408.75,0.125,127,80.0
13896,D5,408.875,0.125,127,80.0
13897,A4,408.875,0.125,127,80.0
13898,F3,409.0,0.25,127,80.0
13899,F4,409.0,0.25,127,80.0
13900,F4,409.0,0.25,127,80.0
13901,E-3,409.0,0.25,127,80.0
13902,D2,409.0,0.25,127,80.0
13903,D5,409.0,0.125,127,80.0
13904,A4,409.0,0.125,127,80.0
13905,D5,409.125,0.125,127,80.0
13906,A4,409.125,0.125,127,80.0
13907,C5,409.25,0.25,127,80.0
13908,F3,409.25,0.125,127,80.0
13909,C6,409.25,0.25,127,80.0
13910,C6,409.25,0.25,127,80.0
13911,D5,409.25,0.125,127,80.0
13912,A4,409.25,0.125,127,80.0
13913,E-3,409.375,0.125,127,80.0
13914,D5,409.375,0.125,127,80.0
13915,A4,409.375,0.125,127,80.0
13916,D5,409.5,0.25,127,80.0
13917,F3,409.5,0.25,127,80.0
13918,D6,409.5,0.25,127,80.0
13919,D6,409.5,0.25,127,80.0
13920,D5,409.5,0.125,127,80.0
13921,A4,409.5,0.125,127,80.0
13922,D5,409.625,0.125,127,80.0
13923,A4,409.625,0.125,127,80.0
13924,E-5,409.75,0.25,127,80.0
13925,E-6,409.75,0.25,127,80.0
13926,E-6,409.75,0.25,127,80.0
13927,E-3,409.75,0.25,127,80.0
13928,B1,409.75,0.25,127,80.0
13929,D5,409.75,0.125,127,80.0
13930,A4,409.75,0.125,127,80.0
13931,D5,409.875,0.125,127,80.0
13932,A4,409.875,0.125,127,80.0
13933,F4,410.0,0.25,127,80.0
13934,E-3,410.0,0.25,127,80.0
13935,F5,410.0,0.25,127,80.0
13936,F5,410.0,0.25,127,80.0
13937,E-4,410.0,0.25,127,80.0
13938,B-3,410.0,0.25,127,80.0
13939,D5,410.0,0.125,127,80.0
13940,A4,410.0,0.125,127,80.0
13941,D5,410.125,0.125,127,80.0
13942,A4,410.125,0.125,127,80.0
13943,C6,410.25,0.25,127,80.0
13944,F3,410.25,0.125,127,80.0
13945,C7,410.25,0.25,127,80.0
13946,C7,410.25,0.25,127,80.0
13947,D4,410.25,0.25,127,80.0
13948,A3,410.25,0.25,127,80.0
13949,D5,410.25,0.125,127,80.0
13950,A4,410.25,0.125,127,80.0
13951,E-3,410.375,0.125,127,80.0
13952,D5,410.375,0.125,127,80.0
13953,A4,410.375,0.125,127,80.0
13954,F4,410.5,0.25,127,80.0
13955,F5,410.5,0.25,127,80.0
13956,F5,410.5,0.25,127,80.0
13957,E-3,410.5,0.375,127,80.0
13958,B1,410.5,0.375,127,80.0
13959,D5,410.5,0.125,127,80.0
13960,A4,410.5,0.125,127,80.0
13961,D5,410.625,0.125,127,80.0
13962,A4,410.625,0.125,127,80.0
13963,E-5,410.75,0.25,127,80.0
13964,E-6,410.75,0.25,127,80.0
13965,E-6,410.75,0.25,127,80.0
13966,D5,410.75,0.125,127,80.0
13967,A4,410.75,0.125,127,80.0
13968,E-3,410.875,0.125,127,80.0
13969,D5,410.875,0.125,127,80.0
13970,A4,410.875,0.125,127,80.0
13971,D5,411.0,0.25,127,80.0
13972,D6,411.0,0.25,127,80.0
13973,D6,411.0,0.25,127,80.0
13974,F3,411.0,0.25,127,80.0
13975,D2,411.0,0.25,127,80.0
13976,D4,411.0,0.25,127,80.0
13977,A3,411.0,0.25,127,80.0
13978,D5,411.0,0.125,127,80.0
13979,A4,411.0,0.125,127,80.0
13980,D5,411.125,0.125,127,80.0
13981,A4,411.125,0.125,127,80.0
13982,C5,411.25,0.25,127,80.0
13983,E-3,411.25,0.125,127,80.0
13984,C6,411.25,0.25,127,80.0
13985,C6,411.25,0.25,127,80.0
13986,E-4,411.25,0.25,127,80.0
13987,B-3,411.25,0.25,127,80.0
13988,D5,411.25,0.125,127,80.0
13989,A4,411.25,0.125,127,80.0
13990,F3,411.375,0.125,127,80.0
13991,D5,411.375,0.125,127,80.0
13992,A4,411.375,0.125,127,80.0
13993,F3,411.5,0.25,127,80.0
13994,E-3,411.5,0.25,127,80.0
13995,F4,411.5,0.25,127,80.0
13996,F4,411.5,0.25,127,80.0
13997,D5,411.5,0.125,127,80.0
13998,A4,411.5,0.125,127,80.0
13999,D5,411.625,0.125,127,80.0
14000,A4,411.625,0.125,127,80.0
14001,E-4,411.75,0.25,127,80.0
14002,E-5,411.75,0.25,127,80.0
14003,E-5,411.75,0.25,127,80.0
14004,E-3,411.75,0.25,127,80.0
14005,B1,411.75,0.25,127,80.0
14006,D5,411.75,0.125,127,80.0
14007,A4,411.75,0.125,127,80.0
14008,D5,411.875,31/250,127,80.0
14009,A4,411.875,31/250,127,80.0
14010,D4,412.0,0.25,127,80.0
14011,D2,412.0,0.25,127,80.0
14012,E-3,412.0,0.25,127,80.0
14013,D5,412.0,0.25,127,80.0
14014,D5,412.0,0.25,127,80.0
14015,D3,412.0,0.25,127,80.0
14016,A2,412.0,0.25,127,80.0
14017,D4,412.0,0.25,127,80.0
14018,A3,412.0,0.25,127,80.0
14019,D4,412.0,0.25,127,80.0
14020,A3,412.0,0.25,127,80.0
14021,G4,412.0,0.25,127,80.0
14022,D4,412.0,0.25,127,80.0
14023,G3,412.0,0.25,127,80.0
14024,D5,412.0,0.25,127,80.0
14025,A4,412.0,0.25,127,80.0
14026,D4,412.0,0.25,127,80.0
14027,A3,412.0,0.25,127,80.0
14028,C4,412.25,0.25,127,80.0
14029,E-2,412.25,0.25,127,80.0
14030,F3,412.25,0.25,127,80.0
14031,C5,412.25,0.25,127,80.0
14032,C5,412.25,0.25,127,80.0
14033,E-3,412.25,0.25,127,80.0
14034,B-2,412.25,0.25,127,80.0
14035,E-4,412.25,0.25,127,80.0
14036,B-3,412.25,0.25,127,80.0
14037,E-4,412.25,0.25,127,80.0
14038,B-3,412.25,0.25,127,80.0
14039,G#4,412.25,0.25,127,80.0
14040,E-4,412.25,0.25,127,80.0
14041,G#3,412.25,0.25,127,80.0
14042,E-5,412.25,0.25,127,80.0
14043,B-4,412.25,0.25,127,80.0
14044,E-4,412.25,0.25,127,80.0
14045,B-3,412.25,0.25,127,80.0
14046,F3,412.5,0.25,127,80.0
14047,F4,412.5,0.25,127,80.0
14048,F4,412.5,0.25,127,80.0
14049,E-3,412.5,0.25,127,80.0
14050,B1,412.5,0.25,127,80.0
14051,C4,412.75,0.25,127,80.0
14052,E-3,412.75,0.25,127,80.0
14053,C5,412.75,0.25,127,80.0
14054,C5,412.75,0.25,127,80.0
14055,D4,413.0,0.25,127,80.0
14056,D5,413.0,0.25,127,80.0
14057,D5,413.0,0.25,127,80.0
14058,F3,413.0,0.25,127,80.0
14059,D2,413.0,0.25,127,80.0
14060,E-4,413.25,0.25,127,80.0
14061,E-3,413.25,0.25,127,80.0
14062,E-5,413.25,0.25,127,80.0
14063,E-5,413.25,0.25,127,80.0
14064,F3,413.5,0.25,127,80.0
14065,F4,413.5,0.25,127,80.0
14066,F4,413.5,0.25,127,80.0
14067,F3,413.5,0.25,127,80.0
14068,B1,413.5,0.25,127,80.0
14069,C5,413.75,0.25,127,80.0
14070,E-3,413.75,0.25,127,80.0
14071,C6,413.75,0.25,127,80.0
14072,C6,413.75,0.25,127,80.0
14073,D5,414.0,0.25,127,80.0
14074,E-2,414.0,0.25,127,80.0
14075,D6,414.0,0.25,127,80.0
14076,D6,414.0,0.25,127,80.0
14077,E-3,414.0,0.25,127,80.0
14078,B-2,414.0,0.25,127,80.0
14079,E-4,414.0,0.25,127,80.0
14080,B-3,414.0,0.25,127,80.0
14081,F3,414.0,0.25,127,80.0
14082,B1,414.0,0.25,127,80.0
14083,E-4,414.0,0.25,127,80.0
14084,B-3,414.0,0.25,127,80.0
14085,E-5,414.0,0.25,127,80.0
14086,B-4,414.0,0.25,127,80.0
14087,E-4,414.0,0.25,127,80.0
14088,B-3,414.0,0.25,127,80.0
14089,E-5,414.25,0.25,127,80.0
14090,D2,414.25,0.25,127,80.0
14091,D2,414.25,0.25,127,80.0
14092,E-6,414.25,0.25,127,80.0
14093,E-6,414.25,0.25,127,80.0
14094,D3,414.25,0.25,127,80.0
14095,A2,414.25,0.25,127,80.0
14096,D4,414.25,0.25,127,80.0
14097,A3,414.25,0.25,127,80.0
14098,D4,414.25,0.25,127,80.0
14099,A3,414.25,0.25,127,80.0
14100,D5,414.25,0.25,127,80.0
14101,A4,414.25,0.25,127,80.0
14102,D4,414.25,0.25,127,80.0
14103,A3,414.25,0.25,127,80.0
14104,F4,414.5,0.25,127,80.0
14105,F5,414.5,0.25,127,80.0
14106,F5,414.5,0.25,127,80.0
14107,E-3,414.5,0.25,127,80.0
14108,A3,414.5,0.25,127,80.0
14109,C6,414.75,0.25,127,80.0
14110,C7,414.75,0.25,127,80.0
14111,C7,414.75,0.25,127,80.0
14112,C3,414.75,0.25,127,80.0
14113,B2,414.75,0.25,127,80.0
14114,F4,415.0,0.25,127,80.0
14115,D2,415.0,0.25,127,80.0
14116,F5,415.0,0.25,127,80.0
14117,F5,415.0,0.25,127,80.0
14118,D3,415.0,0.25,127,80.0
14119,A2,415.0,0.25,127,80.0
14120,D4,415.0,0.25,127,80.0
14121,A3,415.0,0.25,127,80.0
14122,E-3,415.0,167/1000,127,80.0
14123,A3,415.0,167/1000,127,80.0
14124,D4,415.0,0.25,127,80.0
14125,A3,415.0,0.25,127,80.0
14126,D5,415.0,0.25,127,80.0
14127,A4,415.0,0.25,127,80.0
14128,D4,415.0,0.25,127,80.0
14129,A3,415.0,0.25,127,80.0
14130,A2,415.167,167/1000,127,80.0
14131,G2,415.167,167/1000,127,80.0
14132,E-5,415.25,0.25,127,80.0
14133,E-2,415.25,0.25,127,80.0
14134,E-6,415.25,0.25,127,80.0
14135,E-6,415.25,0.25,127,80.0
14136,E-3,415.25,0.25,127,80.0
14137,B-2,415.25,0.25,127,80.0
14138,E-4,415.25,0.25,127,80.0
14139,B-3,415.25,0.25,127,80.0
14140,E-4,415.25,0.25,127,80.0
14141,B-3,415.25,0.25,127,80.0
14142,E-5,415.25,0.25,127,80.0
14143,B-4,415.25,0.25,127,80.0
14144,E-4,415.25,0.25,127,80.0
14145,B-3,415.25,0.25,127,80.0
14146,E-3,415.333,167/1000,127,80.0
14147,B2,415.333,167/1000,127,80.0
14148,D5,415.5,0.25,127,80.0
14149,F2,415.5,167/1000,127,80.0
14150,D6,415.5,0.25,127,80.0
14151,D6,415.5,0.25,127,80.0
14152,C3,415.667,167/1000,127,80.0
14153,A2,415.667,167/1000,127,80.0
14154,C5,415.75,0.25,127,80.0
14155,C6,415.75,0.25,127,80.0
14156,C6,415.75,0.25,127,80.0
14157,D2,415.833,167/1000,127,80.0
14158,G#3,416.0,0.25,127,80.0
14159,G1,416.0,0.25,127,80.0
14160,G#4,416.0,0.25,127,80.0
14161,G#4,416.0,0.25,127,80.0
14162,G3,416.0,0.25,127,80.0
14163,D3,416.0,0.25,127,80.0
14164,G2,416.0,0.25,127,80.0
14165,G4,416.0,0.25,127,80.0
14166,D4,416.0,0.25,127,80.0
14167,G3,416.0,0.25,127,80.0
14168,A3,416.0,0.5,127,80.0
14169,B1,416.0,0.5,127,80.0
14170,G4,416.0,0.25,127,80.0
14171,D4,416.0,0.25,127,80.0
14172,G3,416.0,0.25,127,80.0
14173,G#4,416.0,0.25,127,80.0
14174,E-4,416.0,0.25,127,80.0
14175,G#3,416.0,0.25,127,80.0
14176,G5,416.0,0.25,127,80.0
14177,D5,416.0,0.25,127,80.0
14178,G4,416.0,0.25,127,80.0
14179,G4,416.0,0.25,127,80.0
14180,D4,416.0,0.25,127,80.0
14181,G3,416.0,0.25,127,80.0
14182,D4,416.25,0.25,127,80.0
14183,G#1,416.25,0.25,127,80.0
14184,D5,416.25,0.25,127,80.0
14185,D5,416.25,0.25,127,80.0
14186,G#3,416.25,0.25,127,80.0
14187,E-3,416.25,0.25,127,80.0
14188,G#2,416.25,0.25,127,80.0
14189,G#4,416.25,0.25,127,80.0
14190,E-4,416.25,0.25,127,80.0
14191,G#3,416.25,0.25,127,80.0
14192,G#4,416.25,0.25,127,80.0
14193,E-4,416.25,0.25,127,80.0
14194,G#3,416.25,0.25,127,80.0
14195,G4,416.25,0.25,127,80.0
14196,D4,416.25,0.25,127,80.0
14197,G3,416.25,0.25,127,80.0
14198,G#5,416.25,0.25,127,80.0
14199,E-5,416.25,0.25,127,80.0
14200,G#4,416.25,0.25,127,80.0
14201,G#4,416.25,0.25,127,80.0
14202,E-4,416.25,0.25,127,80.0
14203,G#3,416.25,0.25,127,80.0
14204,G4,416.5,0.25,127,80.0
14205,A3,416.5,0.25,127,80.0
14206,G5,416.5,0.25,127,80.0
14207,G5,416.5,0.25,127,80.0
14208,G#3,416.75,0.25,127,80.0
14209,B1,416.75,0.25,127,80.0
14210,G#4,416.75,0.25,127,80.0
14211,G#4,416.75,0.25,127,80.0
14212,C5,417.0,0.25,127,80.0
14213,A3,417.0,167/1000,127,80.0
14214,C6,417.0,0.25,127,80.0
14215,C6,417.0,0.25,127,80.0
14216,D2,417.167,167/1000,127,80.0
14217,D5,417.25,0.25,127,80.0
14218,D6,417.25,0.25,127,80.0
14219,D6,417.25,0.25,127,80.0
14220,A3,417.333,167/1000,127,80.0
14221,G5,417.5,0.25,127,80.0
14222,G6,417.5,0.25,127,80.0
14223,G6,417.5,0.25,127,80.0
14224,D3,417.5,167/1000,127,80.0
14225,C3,417.5,167/1000,127,80.0
14226,A3,417.667,167/1000,127,80.0
14227,G#4,417.75,0.25,127,80.0
14228,G#5,417.75,0.25,127,80.0
14229,G#5,417.75,0.25,127,80.0
14230,B2,417.833,167/1000,127,80.0
14231,C6,418.0,0.25,127,80.0
14232,C7,418.0,0.25,127,80.0
14233,C7,418.0,0.25,127,80.0
14234,B3,418.0,0.375,127,80.0
14235,A3,418.0,0.375,127,80.0
14236,G4,418.0,0.25,127,80.0
14237,D4,418.0,0.25,127,80.0
14238,G3,418.0,0.25,127,80.0
14239,G#4,418.25,0.25,127,80.0
14240,G#5,418.25,0.25,127,80.0
14241,G#5,418.25,0.25,127,80.0
14242,F3,418.375,0.125,127,80.0
14243,D2,418.375,0.125,127,80.0
14244,G5,418.5,0.25,127,80.0
14245,G6,418.5,0.25,127,80.0
14246,G6,418.5,0.25,127,80.0
14247,B3,418.5,0.125,127,80.0
14248,D2,418.5,0.125,127,80.0
14249,F3,418.625,0.375,127,80.0
14250,D5,418.75,0.25,127,80.0
14251,D6,418.75,0.25,127,80.0
14252,D6,418.75,0.25,127,80.0
14253,C5,419.0,0.25,127,80.0
14254,C6,419.0,0.25,127,80.0
14255,C6,419.0,0.25,127,80.0
14256,A3,419.0,333/1000,127,80.0
14257,D2,419.0,333/1000,127,80.0
14258,G#4,419.0,0.25,127,80.0
14259,E-4,419.0,0.25,127,80.0
14260,G#3,419.0,0.25,127,80.0
14261,G#3,419.25,0.25,127,80.0
14262,G#4,419.25,0.25,127,80.0
14263,G#4,419.25,0.25,127,80.0
14264,C#3,419.333,333/1000,127,80.0
14265,D2,419.333,333/1000,127,80.0
14266,B1,419.333,333/1000,127,80.0
14267,G4,419.5,0.25,127,80.0
14268,G5,419.5,0.25,127,80.0
14269,G5,419.5,0.25,127,80.0
14270,C#3,419.667,333/1000,127,80.0
14271,B1,419.667,333/1000,127,80.0
14272,D4,419.75,0.25,127,80.0
14273,D5,419.75,0.25,127,80.0
14274,D5,419.75,0.25,127,80.0
14275,G#3,420.0,0.25,127,80.0
14276,G#1,420.0,0.25,127,80.0
14277,G#4,420.0,0.25,127,80.0
14278,G#4,420.0,0.25,127,80.0
14279,G#3,420.0,0.25,127,80.0
14280,E-3,420.0,0.25,127,80.0
14281,G#2,420.0,0.25,127,80.0
14282,G#4,420.0,0.25,127,80.0
14283,E-4,420.0,0.25,127,80.0
14284,G#3,420.0,0.25,127,80.0
14285,E-3,420.0,0.5,127,80.0
14286,B1,420.0,0.5,127,80.0
14287,G#4,420.0,0.25,127,80.0
14288,E-4,420.0,0.25,127,80.0
14289,G#3,420.0,0.25,127,80.0
14290,D4,420.0,0.125,127,80.0
14291,A3,420.0,0.125,127,80.0
14292,G#5,420.0,0.25,127,80.0
14293,E-5,420.0,0.25,127,80.0
14294,G#4,420.0,0.25,127,80.0
14295,G#4,420.0,0.25,127,80.0
14296,E-4,420.0,0.25,127,80.0
14297,G#3,420.0,0.25,127,80.0
14298,D4,420.125,0.125,127,80.0
14299,A3,420.125,0.125,127,80.0
14300,D4,420.25,0.25,127,80.0
14301,G1,420.25,0.25,127,80.0
14302,D5,420.25,0.25,127,80.0
14303,D5,420.25,0.25,127,80.0
14304,G3,420.25,0.25,127,80.0
14305,D3,420.25,0.25,127,80.0
14306,G2,420.25,0.25,127,80.0
14307,G4,420.25,0.25,127,80.0
14308,D4,420.25,0.25,127,80.0
14309,G3,420.25,0.25,127,80.0
14310,G4,420.25,0.25,127,80.0
14311,D4,420.25,0.25,127,80.0
14312,G3,420.25,0.25,127,80.0
14313,D4,420.25,0.125,127,80.0
14314,A3,420.25,0.125,127,80.0
14315,G5,420.25,0.25,127,80.0
14316,D5,420.25,0.25,127,80.0
14317,G4,420.25,0.25,127,80.0
14318,G4,420.25,0.25,127,80.0
14319,D4,420.25,0.25,127,80.0
14320,G3,420.25,0.25,127,80.0
14321,D4,420.375,0.125,127,80.0
14322,A3,420.375,0.125,127,80.0
14323,G4,420.5,0.25,127,80.0
14324,E-3,420.5,0.25,127,80.0
14325,G5,420.5,0.25,127,80.0
14326,G5,420.5,0.25,127,80.0
14327,D4,420.5,0.125,127,80.0
14328,A3,420.5,0.125,127,80.0
14329,D4,420.625,0.125,127,80.0
14330,A3,420.625,0.125,127,80.0
14331,G#3,420.75,0.25,127,80.0
14332,B1,420.75,0.25,127,80.0
14333,G#4,420.75,0.25,127,80.0
14334,G#4,420.75,0.25,127,80.0
14335,D4,420.75,0.125,127,80.0
14336,A3,420.75,0.125,127,80.0
14337,D4,420.875,0.125,127,80.0
14338,A3,420.875,0.125,127,80.0
14339,C5,421.0,0.25,127,80.0
14340,E-3,421.0,0.25,127,80.0
14341,C6,421.0,0.25,127,80.0
14342,C6,421.0,0.25,127,80.0
14343,D4,421.0,0.125,127,80.0
14344,A3,421.0,0.125,127,80.0
14345,D4,421.125,0.125,127,80.0
14346,A3,421.125,0.125,127,80.0
14347,D5,421.25,0.25,127,80.0
14348,B1,421.25,0.25,127,80.0
14349,D6,421.25,0.25,127,80.0
14350,D6,421.25,0.25,127,80.0
14351,D4,421.25,0.125,127,80.0
14352,A3,421.25,0.125,127,80.0
14353,D4,421.375,0.125,127,80.0
14354,A3,421.375,0.125,127,80.0
14355,G5,421.5,0.25,127,80.0
14356,G6,421.5,0.25,127,80.0
14357,G6,421.5,0.25,127,80.0
14358,E-3,421.5,0.5,127,80.0
14359,D2,421.5,0.5,127,80.0
14360,D4,421.5,0.125,127,80.0
14361,A3,421.5,0.125,127,80.0
14362,D4,421.625,0.125,127,80.0
14363,A3,421.625,0.125,127,80.0
14364,G#4,421.75,0.25,127,80.0
14365,G#5,421.75,0.25,127,80.0
14366,G#5,421.75,0.25,127,80.0
14367,D4,421.75,0.125,127,80.0
14368,A3,421.75,0.125,127,80.0
14369,D4,421.875,0.125,127,80.0
14370,A3,421.875,0.125,127,80.0
14371,C6,422.0,0.25,127,80.0
14372,G1,422.0,0.25,127,80.0
14373,E-3,422.0,167/1000,127,80.0
14374,C7,422.0,0.25,127,80.0
14375,C7,422.0,0.25,127,80.0
14376,G3,422.0,0.25,127,80.0
14377,D3,422.0,0.25,127,80.0
14378,G2,422.0,0.25,127,80.0
14379,G4,422.0,0.25,127,80.0
14380,D4,422.0,0.25,127,80.0
14381,G3,422.0,0.25,127,80.0
14382,G4,422.0,0.25,127,80.0
14383,D4,422.0,0.25,127,80.0
14384,G3,422.0,0.25,127,80.0
14385,D4,422.0,0.125,127,80.0
14386,A3,422.0,0.125,127,80.0
14387,G5,422.0,0.25,127,80.0
14388,D5,422.0,0.25,127,80.0
14389,G4,422.0,0.25,127,80.0
14390,G4,422.0,0.25,127,80.0
14391,D4,422.0,0.25,127,80.0
14392,G3,422.0,0.25,127,80.0
14393,D4,422.125,0.125,127,80.0
14394,A3,422.125,0.125,127,80.0
14395,D3,422.167,167/1000,127,80.0
14396,C3,422.167,167/1000,127,80.0
14397,G#4,422.25,0.25,127,80.0
14398,G#5,422.25,0.25,127,80.0
14399,G#5,422.25,0.25,127,80.0
14400,D4,422.25,0.125,127,80.0
14401,A3,422.25,0.125,127,80.0
14402,D3,422.333,167/1000,127,80.0
14403,D4,422.375,0.125,127,80.0
14404,A3,422.375,0.125,127,80.0
14405,G5,422.5,0.25,127,80.0
14406,G6,422.5,0.25,127,80.0
14407,G6,422.5,0.25,127,80.0
14408,C3,422.5,167/1000,127,80.0
14409,B2,422.5,167/1000,127,80.0
14410,D4,422.5,0.125,127,80.0
14411,A3,422.5,0.125,127,80.0
14412,D4,422.625,0.125,127,80.0
14413,A3,422.625,0.125,127,80.0
14414,C3,422.667,167/1000,127,80.0
14415,D5,422.75,0.25,127,80.0
14416,D6,422.75,0.25,127,80.0
14417,D6,422.75,0.25,127,80.0
14418,D4,422.75,0.125,127,80.0
14419,A3,422.75,0.125,127,80.0
14420,A2,422.833,167/1000,127,80.0
14421,D4,422.875,0.125,127,80.0
14422,A3,422.875,0.125,127,80.0
14423,C5,423.0,0.25,127,80.0
14424,G#1,423.0,0.25,127,80.0
14425,C6,423.0,0.25,127,80.0
14426,C6,423.0,0.25,127,80.0
14427,G#3,423.0,0.25,127,80.0
14428,E-3,423.0,0.25,127,80.0
14429,G#2,423.0,0.25,127,80.0
14430,G#4,423.0,0.25,127,80.0
14431,E-4,423.0,0.25,127,80.0
14432,G#3,423.0,0.25,127,80.0
14433,A3,423.0,333/1000,127,80.0
14434,B2,423.0,333/1000,127,80.0
14435,B1,423.0,333/1000,127,80.0
14436,G#4,423.0,0.25,127,80.0
14437,E-4,423.0,0.25,127,80.0
14438,G#3,423.0,0.25,127,80.0
14439,D4,423.0,0.125,127,80.0
14440,A3,423.0,0.125,127,80.0
14441,G#5,423.0,0.25,127,80.0
14442,E-5,423.0,0.25,127,80.0
14443,G#4,423.0,0.25,127,80.0
14444,G#4,423.0,0.25,127,80.0
14445,E-4,423.0,0.25,127,80.0
14446,G#3,423.0,0.25,127,80.0
14447,D4,423.125,0.125,127,80.0
14448,A3,423.125,0.125,127,80.0
14449,G#3,423.25,0.25,127,80.0
14450,G#4,423.25,0.25,127,80.0
14451,G#4,423.25,0.25,127,80.0
14452,D4,423.25,0.125,127,80.0
14453,A3,423.25,0.125,127,80.0
14454,C#3,423.333,333/1000,127,80.0
14455,D2,423.333,333/1000,127,80.0
14456,D4,423.375,0.125,127,80.0
14457,A3,423.375,0.125,127,80.0
14458,G4,423.5,0.25,127,80.0
14459,G5,423.5,0.25,127,80.0
14460,G5,423.5,0.25,127,80.0
14461,D4,423.5,0.125,127,80.0
14462,A3,423.5,0.125,127,80.0
14463,D4,423.625,0.125,127,80.0
14464,A3,423.625,0.125,127,80.0
14465,C#3,423.667,333/1000,127,80.0
14466,D2,423.667,333/1000,127,80.0
14467,D4,423.75,0.25,127,80.0
14468,D5,423.75,0.25,127,80.0
14469,D5,423.75,0.25,127,80.0
14470,D4,423.75,0.125,127,80.0
14471,A3,423.75,0.125,127,80.0
14472,D4,423.875,31/250,127,80.0
14473,A3,423.875,31/250,127,80.0
14474,F3,424.0,0.25,127,80.0
14475,F4,424.0,0.25,127,80.0
14476,F4,424.0,0.25,127,80.0
14477,D3,424.0,4.0,127,80.0
14478,A2,424.0,4.0,127,80.0
14479,D4,424.0,4.0,127,80.0
14480,A3,424.0,4.0,127,80.0
14481,D2,424.0,4.0,127,80.0
14482,D1,424.0,4.0,127,80.0
14483,B3,424.0,0.5,127,80.0
14484,A3,424.0,0.5,127,80.0
14485,B1,424.0,0.5,127,80.0
14486,D4,424.0,4.0,127,80.0
14487,A3,424.0,4.0,127,80.0
14488,D4,424.0,0.25,127,80.0
14489,A3,424.0,0.25,127,80.0
14490,D5,424.0,0.125,127,80.0
14491,A4,424.0,0.125,127,80.0
14492,D4,424.0,4.0,127,80.0
14493,A3,424.0,4.0,127,80.0
14494,D5,424.125,0.125,127,80.0
14495,A4,424.125,0.125,127,80.0
14496,C4,424.25,0.25,127,80.0
14497,C5,424.25,0.25,127,80.0
14498,C5,424.25,0.25,127,80.0
14499,E-4,424.25,0.25,127,80.0
14500,B-3,424.25,0.25,127,80.0
14501,D5,424.25,0.125,127,80.0
14502,A4,424.25,0.125,127,80.0
14503,D5,424.375,0.125,127,80.0
14504,A4,424.375,0.125,127,80.0
14505,D4,424.5,0.25,127,80.0
14506,B3,424.5,0.25,127,80.0
14507,D5,424.5,0.25,127,80.0
14508,D5,424.5,0.25,127,80.0
14509,D5,424.5,0.125,127,80.0
14510,A4,424.5,0.125,127,80.0
14511,D5,424.625,0.125,127,80.0
14512,A4,424.625,0.125,127,80.0
14513,E-4,424.75,0.25,127,80.0
14514,B1,424.75,0.25,127,80.0
14515,E-5,424.75,0.25,127,80.0
14516,E-5,424.75,0.25,127,80.0
14517,D5,424.75,0.125,127,80.0
14518,A4,424.75,0.125,127,80.0
14519,D5,424.875,0.125,127,80.0
14520,A4,424.875,0.125,127,80.0
14521,F3,425.0,0.25,127,80.0
14522,F4,425.0,0.25,127,80.0
14523,F4,425.0,0.25,127,80.0
14524,F3,425.0,0.25,127,80.0
14525,D2,425.0,0.25,127,80.0
14526,D5,425.0,0.125,127,80.0
14527,A4,425.0,0.125,127,80.0
14528,D5,425.125,0.125,127,80.0
14529,A4,425.125,0.125,127,80.0
14530,C5,425.25,0.25,127,80.0
14531,F3,425.25,0.25,127,80.0
14532,C6,425.25,0.25,127,80.0
14533,C6,425.25,0.25,127,80.0
14534,D5,425.25,0.125,127,80.0
14535,A4,425.25,0.125,127,80.0
14536,D5,425.375,0.125,127,80.0
14537,A4,425.375,0.125,127,80.0
14538,D5,425.5,0.25,127,80.0
14539,B3,425.5,0.25,127,80.0
14540,D6,425.5,0.25,127,80.0
14541,D6,425.5,0.25,127,80.0
14542,D5,425.5,0.125,127,80.0
14543,A4,425.5,0.125,127,80.0
14544,D5,425.625,0.125,127,80.0
14545,A4,425.625,0.125,127,80.0
14546,E-5,425.75,0.25,127,80.0
14547,B1,425.75,0.25,127,80.0
14548,E-6,425.75,0.25,127,80.0
14549,E-6,425.75,0.25,127,80.0
14550,D5,425.75,0.125,127,80.0
14551,A4,425.75,0.125,127,80.0
14552,D5,425.875,0.125,127,80.0
14553,A4,425.875,0.125,127,80.0
14554,F4,426.0,0.25,127,80.0
14555,F3,426.0,0.25,127,80.0
14556,F5,426.0,0.25,127,80.0
14557,F5,426.0,0.25,127,80.0
14558,E-4,426.0,0.25,127,80.0
14559,B-3,426.0,0.25,127,80.0
14560,D5,426.0,0.125,127,80.0
14561,A4,426.0,0.125,127,80.0
14562,D5,426.125,0.125,127,80.0
14563,A4,426.125,0.125,127,80.0
14564,C6,426.25,0.25,127,80.0
14565,B1,426.25,0.25,127,80.0
14566,C7,426.25,0.25,127,80.0
14567,C7,426.25,0.25,127,80.0
14568,D4,426.25,0.25,127,80.0
14569,A3,426.25,0.25,127,80.0
14570,D5,426.25,0.125,127,80.0
14571,A4,426.25,0.125,127,80.0
14572,D5,426.375,0.125,127,80.0
14573,A4,426.375,0.125,127,80.0
14574,F4,426.5,0.25,127,80.0
14575,F3,426.5,0.25,127,80.0
14576,F5,426.5,0.25,127,80.0
14577,F5,426.5,0.25,127,80.0
14578,D5,426.5,0.125,127,80.0
14579,A4,426.5,0.125,127,80.0
14580,D5,426.625,0.125,127,80.0
14581,A4,426.625,0.125,127,80.0
14582,E-5,426.75,0.25,127,80.0
14583,B1,426.75,0.25,127,80.0
14584,E-6,426.75,0.25,127,80.0
14585,E-6,426.75,0.25,127,80.0
14586,D5,426.75,0.125,127,80.0
14587,A4,426.75,0.125,127,80.0
14588,D5,426.875,0.125,127,80.0
14589,A4,426.875,0.125,127,80.0
14590,D5,427.0,0.25,127,80.0
14591,D6,427.0,0.25,127,80.0
14592,D6,427.0,0.25,127,80.0
14593,A3,427.0,0.25,127,80.0
14594,D2,427.0,0.25,127,80.0
14595,D4,427.0,0.25,127,80.0
14596,A3,427.0,0.25,127,80.0
14597,D5,427.0,0.125,127,80.0
14598,A4,427.0,0.125,127,80.0
14599,D5,427.125,0.125,127,80.0
14600,A4,427.125,0.125,127,80.0
14601,C5,427.25,0.25,127,80.0
14602,F3,427.25,0.25,127,80.0
14603,C6,427.25,0.25,127,80.0
14604,C6,427.25,0.25,127,80.0
14605,E-4,427.25,0.25,127,80.0
14606,B-3,427.25,0.25,127,80.0
14607,D5,427.25,0.125,127,80.0
14608,A4,427.25,0.125,127,80.0
14609,D5,427.375,0.125,127,80.0
14610,A4,427.375,0.125,127,80.0
14611,F3,427.5,0.25,127,80.0
14612,F3,427.5,0.25,127,80.0
14613,F4,427.5,0.25,127,80.0
14614,F4,427.5,0.25,127,80.0
14615,D5,427.5,0.125,127,80.0
14616,A4,427.5,0.125,127,80.0
14617,D5,427.625,0.125,127,80.0
14618,A4,427.625,0.125,127,80.0
14619,E-4,427.75,0.25,127,80.0
14620,B1,427.75,0.25,127,80.0
14621,E-5,427.75,0.25,127,80.0
14622,E-5,427.75,0.25,127,80.0
14623,D5,427.75,0.125,127,80.0
14624,A4,427.75,0.125,127,80.0
14625,D5,427.875,31/250,127,80.0
14626,A4,427.875,31/250,127,80.0
14627,D4,428.0,0.25,127,80.0
14628,D2,428.0,0.25,127,80.0
14629,D5,428.0,0.25,127,80.0
14630,D5,428.0,0.25,127,80.0
14631,D3,428.0,0.25,127,80.0
14632,A2,428.0,0.25,127,80.0
14633,D4,428.0,0.25,127,80.0
14634,A3,428.0,0.25,127,80.0
14635,B3,428.0,0.25,127,80.0
14636,A3,428.0,0.25,127,80.0
14637,B1,428.0,0.25,127,80.0
14638,D4,428.0,0.25,127,80.0
14639,A3,428.0,0.25,127,80.0
14640,G4,428.0,0.25,127,80.0
14641,D4,428.0,0.25,127,80.0
14642,G3,428.0,0.25,127,80.0
14643,D5,428.0,0.25,127,80.0
14644,A4,428.0,0.25,127,80.0
14645,D4,428.0,0.25,127,80.0
14646,A3,428.0,0.25,127,80.0
14647,C4,428.25,0.25,127,80.0
14648,E-2,428.25,0.25,127,80.0
14649,C5,428.25,0.25,127,80.0
14650,C5,428.25,0.25,127,80.0
14651,E-3,428.25,0.25,127,80.0
14652,B-2,428.25,0.25,127,80.0
14653,E-4,428.25,0.25,127,80.0
14654,B-3,428.25,0.25,127,80.0
14655,B3,428.25,0.5,127,80.0
14656,A3,428.25,0.5,127,80.0
14657,B1,428.25,0.5,127,80.0
14658,E-4,428.25,0.25,127,80.0
14659,B-3,428.25,0.25,127,80.0
14660,G#4,428.25,0.25,127,80.0
14661,E-4,428.25,0.25,127,80.0
14662,G#3,428.25,0.25,127,80.0
14663,E-5,428.25,0.25,127,80.0
14664,B-4,428.25,0.25,127,80.0
14665,E-4,428.25,0.25,127,80.0
14666,B-3,428.25,0.25,127,80.0
14667,F3,428.5,0.25,127,80.0
14668,F4,428.5,0.25,127,80.0
14669,F4,428.5,0.25,127,80.0
14670,C4,428.75,0.25,127,80.0
14671,C5,428.75,0.25,127,80.0
14672,C5,428.75,0.25,127,80.0
14673,F3,428.75,0.5,127,80.0
14674,B1,428.75,0.5,127,80.0
14675,D4,429.0,0.25,127,80.0
14676,D5,429.0,0.25,127,80.0
14677,D5,429.0,0.25,127,80.0
14678,E-4,429.25,0.25,127,80.0
14679,D2,429.25,0.25,127,80.0
14680,E-5,429.25,0.25,127,80.0
14681,E-5,429.25,0.25,127,80.0
14682,F3,429.5,0.25,127,80.0
14683,F4,429.5,0.25,127,80.0
14684,F4,429.5,0.25,127,80.0
14685,B3,429.5,0.25,127,80.0
14686,A3,429.5,0.25,127,80.0
14687,C5,429.75,0.25,127,80.0
14688,C6,429.75,0.25,127,80.0
14689,C6,429.75,0.25,127,80.0
14690,D3,429.75,0.25,127,80.0
14691,C3,429.75,0.25,127,80.0
14692,D5,430.0,0.25,127,80.0
14693,E-2,430.0,0.25,127,80.0
14694,D6,430.0,0.25,127,80.0
14695,D6,430.0,0.25,127,80.0
14696,E-3,430.0,0.25,127,80.0
14697,B-2,430.0,0.25,127,80.0
14698,E-4,430.0,0.25,127,80.0
14699,B-3,430.0,0.25,127,80.0
14700,B3,430.0,0.25,127,80.0
14701,A3,430.0,0.25,127,80.0
14702,E-4,430.0,0.25,127,80.0
14703,B-3,430.0,0.25,127,80.0
14704,E-5,430.0,0.25,127,80.0
14705,B-4,430.0,0.25,127,80.0
14706,E-4,430.0,0.25,127,80.0
14707,B-3,430.0,0.25,127,80.0
14708,E-5,430.25,0.25,127,80.0
14709,D2,430.25,0.25,127,80.0
14710,A2,430.25,0.125,127,80.0
14711,E-6,430.25,0.25,127,80.0
14712,E-6,430.25,0.25,127,80.0
14713,D3,430.25,0.25,127,80.0
14714,A2,430.25,0.25,127,80.0
14715,D4,430.25,0.25,127,80.0
14716,A3,430.25,0.25,127,80.0
14717,D4,430.25,0.25,127,80.0
14718,A3,430.25,0.25,127,80.0
14719,D5,430.25,0.25,127,80.0
14720,A4,430.25,0.25,127,80.0
14721,D4,430.25,0.25,127,80.0
14722,A3,430.25,0.25,127,80.0
14723,C3,430.375,0.125,127,80.0
14724,F4,430.5,0.25,127,80.0
14725,F5,430.5,0.25,127,80.0
14726,F5,430.5,0.25,127,80.0
14727,A2,430.5,0.25,127,80.0
14728,G2,430.5,0.25,127,80.0
14729,C6,430.75,0.25,127,80.0
14730,A2,430.75,0.125,127,80.0
14731,C7,430.75,0.25,127,80.0
14732,C7,430.75,0.25,127,80.0
14733,G2,430.875,0.125,127,80.0
14734,F2,430.875,0.125,127,80.0
14735,F4,431.0,0.25,127,80.0
14736,D2,431.0,0.25,127,80.0
14737,F5,431.0,0.25,127,80.0
14738,F5,431.0,0.25,127,80.0
14739,D3,431.0,0.25,127,80.0
14740,A2,431.0,0.25,127,80.0
14741,D4,431.0,0.25,127,80.0
14742,A3,431.0,0.25,127,80.0
14743,G2,431.0,0.25,127,80.0
14744,F2,431.0,0.25,127,80.0
14745,D4,431.0,0.25,127,80.0
14746,A3,431.0,0.25,127,80.0
14747,D5,431.0,0.25,127,80.0
14748,A4,431.0,0.25,127,80.0
14749,D4,431.0,0.25,127,80.0
14750,A3,431.0,0.25,127,80.0
14751,E-5,431.25,0.25,127,80.0
14752,E-2,431.25,0.25,127,80.0
14753,D2,431.25,0.125,127,80.0
14754,E-6,431.25,0.25,127,80.0
14755,E-6,431.25,0.25,127,80.0
14756,E-3,431.25,0.25,127,80.0
14757,B-2,431.25,0.25,127,80.0
14758,E-4,431.25,0.25,127,80.0
14759,B-3,431.25,0.25,127,80.0
14760,E-4,431.25,0.25,127,80.0
14761,B-3,431.25,0.25,127,80.0
14762,E-5,431.25,0.25,127,80.0
14763,B-4,431.25,0.25,127,80.0
14764,E-4,431.25,0.25,127,80.0
14765,B-3,431.25,0.25,127,80.0
14766,D2,431.375,0.125,127,80.0
14767,D5,431.5,0.25,127,80.0
14768,D2,431.5,0.25,127,80.0
14769,D6,431.5,0.25,127,80.0
14770,D6,431.5,0.25,127,80.0
14771,C5,431.75,0.25,127,80.0
14772,D2,431.75,0.125,127,80.0
14773,C6,431.75,0.25,127,80.0
14774,C6,431.75,0.25,127,80.0
14775,D2,431.875,0.125,127,80.0
14776,G#3,432.0,0.25,127,80.0
14777,G1,432.0,0.25,127,80.0
14778,G#4,432.0,0.25,127,80.0
14779,G#4,432.0,0.25,127,80.0
14780,G3,432.0,0.25,127,80.0
14781,D3,432.0,0.25,127,80.0
14782,G2,432.0,0.25,127,80.0
14783,G4,432.0,0.25,127,80.0
14784,D4,432.0,0.25,127,80.0
14785,G3,432.0,0.25,127,80.0
14786,E-3,432.0,0.5,127,80.0
14787,C#3,432.0,0.5,127,80.0
14788,B1,432.0,0.5,127,80.0
14789,G4,432.0,0.25,127,80.0
14790,D4,432.0,0.25,127,80.0
14791,G3,432.0,0.25,127,80.0
14792,G#4,432.0,0.25,127,80.0
14793,E-4,432.0,0.25,127,80.0
14794,G#3,432.0,0.25,127,80.0
14795,G5,432.0,0.25,127,80.0
14796,D5,432.0,0.25,127,80.0
14797,G4,432.0,0.25,127,80.0
14798,G4,432.0,0.25,127,80.0
14799,D4,432.0,0.25,127,80.0
14800,G3,432.0,0.25,127,80.0
14801,D4,432.25,0.25,127,80.0
14802,G#1,432.25,0.25,127,80.0
14803,D5,432.25,0.25,127,80.0
14804,D5,432.25,0.25,127,80.0
14805,G#3,432.25,0.25,127,80.0
14806,E-3,432.25,0.25,127,80.0
14807,G#2,432.25,0.25,127,80.0
14808,G#4,432.25,0.25,127,80.0
14809,E-4,432.25,0.25,127,80.0
14810,G#3,432.25,0.25,127,80.0
14811,G#4,432.25,0.25,127,80.0
14812,E-4,432.25,0.25,127,80.0
14813,G#3,432.25,0.25,127,80.0
14814,G4,432.25,0.25,127,80.0
14815,D4,432.25,0.25,127,80.0
14816,G3,432.25,0.25,127,80.0
14817,G#5,432.25,0.25,127,80.0
14818,E-5,432.25,0.25,127,80.0
14819,G#4,432.25,0.25,127,80.0
14820,G#4,432.25,0.25,127,80.0
14821,E-4,432.25,0.25,127,80.0
14822,G#3,432.25,0.25,127,80.0
14823,G4,432.5,0.25,127,80.0
14824,E-3,432.5,0.25,127,80.0
14825,G5,432.5,0.25,127,80.0
14826,G5,432.5,0.25,127,80.0
14827,G#3,432.75,0.25,127,80.0
14828,B1,432.75,0.25,127,80.0
14829,G#4,432.75,0.25,127,80.0
14830,G#4,432.75,0.25,127,80.0
14831,C5,433.0,0.25,127,80.0
14832,C6,433.0,0.25,127,80.0
14833,C6,433.0,0.25,127,80.0
14834,F3,433.0,0.25,127,80.0
14835,D2,433.0,0.25,127,80.0
14836,D5,433.25,0.25,127,80.0
14837,F3,433.25,0.25,127,80.0
14838,D6,433.25,0.25,127,80.0
14839,D6,433.25,0.25,127,80.0
14840,G5,433.5,0.25,127,80.0
14841,B3,433.5,0.25,127,80.0
14842,G6,433.5,0.25,127,80.0
14843,G6,433.5,0.25,127,80.0
14844,G#4,433.75,0.25,127,80.0
14845,B1,433.75,0.25,127,80.0
14846,G#5,433.75,0.25,127,80.0
14847,G#5,433.75,0.25,127,80.0
14848,C6,434.0,0.25,127,80.0
14849,F3,434.0,0.25,127,80.0
14850,C7,434.0,0.25,127,80.0
14851,C7,434.0,0.25,127,80.0
14852,G4,434.0,0.25,127,80.0
14853,D4,434.0,0.25,127,80.0
14854,G3,434.0,0.25,127,80.0
14855,G#4,434.25,0.25,127,80.0
14856,F3,434.25,0.25,127,80.0
14857,G#5,434.25,0.25,127,80.0
14858,G#5,434.25,0.25,127,80.0
14859,G5,434.5,0.25,127,80.0
14860,B3,434.5,0.25,127,80.0
14861,G6,434.5,0.25,127,80.0
14862,G6,434.5,0.25,127,80.0
14863,D5,434.75,0.25,127,80.0
14864,B1,434.75,0.25,127,80.0
14865,D6,434.75,0.25,127,80.0
14866,D6,434.75,0.25,127,80.0
14867,C5,435.0,0.25,127,80.0
14868,C6,435.0,0.25,127,80.0
14869,C6,435.0,0.25,127,80.0
14870,F3,435.0,0.25,127,80.0
14871,D2,435.0,0.25,127,80.0
14872,G#4,435.0,0.25,127,80.0
14873,E-4,435.0,0.25,127,80.0
14874,G#3,435.0,0.25,127,80.0
14875,G#3,435.25,0.25,127,80.0
14876,F3,435.25,0.25,127,80.0
14877,G#4,435.25,0.25,127,80.0
14878,G#4,435.25,0.25,127,80.0
14879,G4,435.5,0.25,127,80.0
14880,B3,435.5,0.25,127,80.0
14881,G5,435.5,0.25,127,80.0
14882,G5,435.5,0.25,127,80.0
14883,D4,435.75,0.25,127,80.0
14884,B1,435.75,0.25,127,80.0
14885,D5,435.75,0.25,127,80.0
14886,D5,435.75,0.25,127,80.0
14887,G#3,436.0,0.25,127,80.0
14888,G#1,436.0,0.25,127,80.0
14889,F3,436.0,0.25,127,80.0
14890,G#4,436.0,0.25,127,80.0
14891,G#4,436.0,0.25,127,80.0
14892,G#3,436.0,0.25,127,80.0
14893,E-3,436.0,0.25,127,80.0
14894,G#2,436.0,0.25,127,80.0
14895,G#4,436.0,0.25,127,80.0
14896,E-4,436.0,0.25,127,80.0
14897,G#3,436.0,0.25,127,80.0
14898,G#4,436.0,0.25,127,80.0
14899,E-4,436.0,0.25,127,80.0
14900,G#3,436.0,0.25,127,80.0
14901,D4,436.0,0.125,127,80.0
14902,A3,436.0,0.125,127,80.0
14903,G#5,436.0,0.25,127,80.0
14904,E-5,436.0,0.25,127,80.0
14905,G#4,436.0,0.25,127,80.0
14906,G#4,436.0,0.25,127,80.0
14907,E-4,436.0,0.25,127,80.0
14908,G#3,436.0,0.25,127,80.0
14909,D4,436.125,0.125,127,80.0
14910,A3,436.125,0.125,127,80.0
14911,D4,436.25,0.25,127,80.0
14912,G1,436.25,0.25,127,80.0
14913,F3,436.25,0.25,127,80.0
14914,D5,436.25,0.25,127,80.0
14915,D5,436.25,0.25,127,80.0
14916,G3,436.25,0.25,127,80.0
14917,D3,436.25,0.25,127,80.0
14918,G2,436.25,0.25,127,80.0
14919,G4,436.25,0.25,127,80.0
14920,D4,436.25,0.25,127,80.0
14921,G3,436.25,0.25,127,80.0
14922,G4,436.25,0.25,127,80.0
14923,D4,436.25,0.25,127,80.0
14924,G3,436.25,0.25,127,80.0
14925,D4,436.25,0.125,127,80.0
14926,A3,436.25,0.125,127,80.0
14927,G5,436.25,0.25,127,80.0
14928,D5,436.25,0.25,127,80.0
14929,G4,436.25,0.25,127,80.0
14930,G4,436.25,0.25,127,80.0
14931,D4,436.25,0.25,127,80.0
14932,G3,436.25,0.25,127,80.0
14933,D4,436.375,0.125,127,80.0
14934,A3,436.375,0.125,127,80.0
14935,G4,436.5,0.25,127,80.0
14936,G5,436.5,0.25,127,80.0
14937,G5,436.5,0.25,127,80.0
14938,B3,436.5,0.5,127,80.0
14939,B1,436.5,0.5,127,80.0
14940,D4,436.5,0.125,127,80.0
14941,A3,436.5,0.125,127,80.0
14942,D4,436.625,0.125,127,80.0
14943,A3,436.625,0.125,127,80.0
14944,G#3,436.75,0.25,127,80.0
14945,G#4,436.75,0.25,127,80.0
14946,G#4,436.75,0.25,127,80.0
14947,D4,436.75,0.125,127,80.0
14948,A3,436.75,0.125,127,80.0
14949,D4,436.875,0.125,127,80.0
14950,A3,436.875,0.125,127,80.0
14951,C5,437.0,0.25,127,80.0
14952,C6,437.0,0.25,127,80.0
14953,C6,437.0,0.25,127,80.0
14954,F3,437.0,0.25,127,80.0
14955,D2,437.0,0.25,127,80.0
14956,D4,437.0,0.125,127,80.0
14957,A3,437.0,0.125,127,80.0
14958,D4,437.125,0.125,127,80.0
14959,A3,437.125,0.125,127,80.0
14960,D5,437.25,0.25,127,80.0
14961,F3,437.25,0.25,127,80.0
14962,D6,437.25,0.25,127,80.0
14963,D6,437.25,0.25,127,80.0
14964,D4,437.25,0.125,127,80.0
14965,A3,437.25,0.125,127,80.0
14966,D4,437.375,0.125,127,80.0
14967,A3,437.375,0.125,127,80.0
14968,G5,437.5,0.25,127,80.0
14969,B3,437.5,0.25,127,80.0
14970,G6,437.5,0.25,127,80.0
14971,G6,437.5,0.25,127,80.0
14972,D4,437.5,0.125,127,80.0
14973,A3,437.5,0.125,127,80.0
14974,D4,437.625,0.125,127,80.0
14975,A3,437.625,0.125,127,80.0
14976,G#4,437.75,0.25,127,80.0
14977,B1,437.75,0.25,127,80.0
14978,G#5,437.75,0.25,127,80.0
14979,G#5,437.75,0.25,127,80.0
14980,D4,437.75,0.125,127,80.0
14981,A3,437.75,0.125,127,80.0
14982,D4,437.875,0.125,127,80.0
14983,A3,437.875,0.125,127,80.0
14984,C6,438.0,0.25,127,80.0
14985,G1,438.0,0.25,127,80.0
14986,F3,438.0,0.25,127,80.0
14987,C7,438.0,0.25,127,80.0
14988,C7,438.0,0.25,127,80.0
14989,G3,438.0,0.25,127,80.0
14990,D3,438.0,0.25,127,80.0
14991,G2,438.0,0.25,127,80.0
14992,G4,438.0,0.25,127,80.0
14993,D4,438.0,0.25,127,80.0
14994,G3,438.0,0.25,127,80.0
14995,G4,438.0,0.25,127,80.0
14996,D4,438.0,0.25,127,80.0
14997,G3,438.0,0.25,127,80.0
14998,D4,438.0,0.125,127,80.0
14999,A3,438.0,0.125,127,80.0
15000,G5,438.0,0.25,127,80.0
15001,D5,438.0,0.25,127,80.0
15002,G4,438.0,0.25,127,80.0
15003,G4,438.0,0.25,127,80.0
15004,D4,438.0,0.25,127,80.0
15005,G3,438.0,0.25,127,80.0
15006,D4,438.125,0.125,127,80.0
15007,A3,438.125,0.125,127,80.0
15008,G#4,438.25,0.25,127,80.0
15009,F3,438.25,0.25,127,80.0
15010,G#5,438.25,0.25,127,80.0
15011,G#5,438.25,0.25,127,80.0
15012,D4,438.25,0.125,127,80.0
15013,A3,438.25,0.125,127,80.0
15014,D4,438.375,0.125,127,80.0
15015,A3,438.375,0.125,127,80.0
15016,G5,438.5,0.25,127,80.0
15017,G6,438.5,0.25,127,80.0
15018,G6,438.5,0.25,127,80.0
15019,B3,438.5,0.5,127,80.0
15020,B1,438.5,0.5,127,80.0
15021,D4,438.5,0.125,127,80.0
15022,A3,438.5,0.125,127,80.0
15023,D4,438.625,0.125,127,80.0
15024,A3,438.625,0.125,127,80.0
15025,D5,438.75,0.25,127,80.0
15026,D6,438.75,0.25,127,80.0
15027,D6,438.75,0.25,127,80.0
15028,D4,438.75,0.125,127,80.0
15029,A3,438.75,0.125,127,80.0
15030,D4,438.875,0.125,127,80.0
15031,A3,438.875,0.125,127,80.0
15032,C5,439.0,0.25,127,80.0
15033,G#1,439.0,0.25,127,80.0
15034,C6,439.0,0.25,127,80.0
15035,C6,439.0,0.25,127,80.0
15036,G#3,439.0,0.25,127,80.0
15037,E-3,439.0,0.25,127,80.0
15038,G#2,439.0,0.25,127,80.0
15039,G#4,439.0,0.25,127,80.0
15040,E-4,439.0,0.25,127,80.0
15041,G#3,439.0,0.25,127,80.0
15042,F3,439.0,0.25,127,80.0
15043,D2,439.0,0.25,127,80.0
15044,G#4,439.0,0.25,127,80.0
15045,E-4,439.0,0.25,127,80.0
15046,G#3,439.0,0.25,127,80.0
15047,D4,439.0,0.125,127,80.0
15048,A3,439.0,0.125,127,80.0
15049,G#5,439.0,0.25,127,80.0
15050,E-5,439.0,0.25,127,80.0
15051,G#4,439.0,0.25,127,80.0
15052,G#4,439.0,0.25,127,80.0
15053,E-4,439.0,0.25,127,80.0
15054,G#3,439.0,0.25,127,80.0
15055,D4,439.125,0.125,127,80.0
15056,A3,439.125,0.125,127,80.0
15057,G#3,439.25,0.25,127,80.0
15058,F3,439.25,0.25,127,80.0
15059,G#4,439.25,0.25,127,80.0
15060,G#4,439.25,0.25,127,80.0
15061,D4,439.25,0.125,127,80.0
15062,A3,439.25,0.125,127,80.0
15063,D4,439.375,0.125,127,80.0
15064,A3,439.375,0.125,127,80.0
15065,G4,439.5,0.25,127,80.0
15066,B3,439.5,0.25,127,80.0
15067,G5,439.5,0.25,127,80.0
15068,G5,439.5,0.25,127,80.0
15069,D4,439.5,0.125,127,80.0
15070,A3,439.5,0.125,127,80.0
15071,D4,439.625,0.125,127,80.0
15072,A3,439.625,0.125,127,80.0
15073,D4,439.75,0.25,127,80.0
15074,B1,439.75,0.25,127,80.0
15075,D5,439.75,0.25,127,80.0
15076,D5,439.75,0.25,127,80.0
15077,D4,439.75,0.125,127,80.0
15078,A3,439.75,0.125,127,80.0
15079,D4,439.875,31/250,127,80.0
15080,A3,439.875,31/250,127,80.0
15081,F3,440.0,0.25,127,80.0
15082,F4,440.0,0.25,127,80.0
15083,F4,440.0,0.25,127,80.0
15084,D3,440.0,4.0,127,80.0
15085,A2,440.0,4.0,127,80.0
15086,D4,440.0,4.0,127,80.0
15087,A3,440.0,4.0,127,80.0
15088,D2,440.0,4.0,127,80.0
15089,D1,440.0,4.0,127,80.0
15090,F3,440.0,0.5,127,80.0
15091,B1,440.0,0.5,127,80.0
15092,D4,440.0,4.0,127,80.0
15093,A3,440.0,4.0,127,80.0
15094,D4,440.0,0.25,127,80.0
15095,A3,440.0,0.25,127,80.0
15096,D5,440.0,0.125,127,80.0
15097,A4,440.0,0.125,127,80.0
15098,D4,440.0,4.0,127,80.0
15099,A3,440.0,4.0,127,80.0
15100,D5,440.125,0.125,127,80.0
15101,A4,440.125,0.125,127,80.0
15102,C4,440.25,0.25,127,80.0
15103,C5,440.25,0.25,127,80.0
15104,C5,440.25,0.25,127,80.0
15105,E-4,440.25,0.25,127,80.0
15106,B-3,440.25,0.25,127,80.0
15107,D5,440.25,0.125,127,80.0
15108,A4,440.25,0.125,127,80.0
15109,D5,440.375,0.125,127,80.0
15110,A4,440.375,0.125,127,80.0
15111,D4,440.5,0.25,127,80.0
15112,B3,440.5,0.25,127,80.0
15113,D5,440.5,0.25,127,80.0
15114,D5,440.5,0.25,127,80.0
15115,D5,440.5,0.125,127,80.0
15116,A4,440.5,0.125,127,80.0
15117,D5,440.625,0.125,127,80.0
15118,A4,440.625,0.125,127,80.0
15119,E-4,440.75,0.25,127,80.0
15120,B1,440.75,0.25,127,80.0
15121,E-5,440.75,0.25,127,80.0
15122,E-5,440.75,0.25,127,80.0
15123,D5,440.75,0.125,127,80.0
15124,A4,440.75,0.125,127,80.0
15125,D5,440.875,0.125,127,80.0
15126,A4,440.875,0.125,127,80.0
15127,F3,441.0,0.25,127,80.0
15128,F4,441.0,0.25,127,80.0
15129,F4,441.0,0.25,127,80.0
15130,F3,441.0,0.5,127,80.0
15131,D2,441.0,0.5,127,80.0
15132,D5,441.0,0.125,127,80.0
15133,A4,441.0,0.125,127,80.0
15134,D5,441.125,0.125,127,80.0
15135,A4,441.125,0.125,127,80.0
15136,C5,441.25,0.25,127,80.0
15137,C6,441.25,0.25,127,80.0
15138,C6,441.25,0.25,127,80.0
15139,D5,441.25,0.125,127,80.0
15140,A4,441.25,0.125,127,80.0
15141,D5,441.375,0.125,127,80.0
15142,A4,441.375,0.125,127,80.0
15143,D5,441.5,0.25,127,80.0
15144,B3,441.5,0.25,127,80.0
15145,D6,441.5,0.25,127,80.0
15146,D6,441.5,0.25,127,80.0
15147,D5,441.5,0.125,127,80.0
15148,A4,441.5,0.125,127,80.0
15149,D5,441.625,0.125,127,80.0
15150,A4,441.625,0.125,127,80.0
15151,E-5,441.75,0.25,127,80.0
15152,B1,441.75,0.25,127,80.0
15153,E-6,441.75,0.25,127,80.0
15154,E-6,441.75,0.25,127,80.0
15155,D5,441.75,0.125,127,80.0
15156,A4,441.75,0.125,127,80.0
15157,D5,441.875,0.125,127,80.0
15158,A4,441.875,0.125,127,80.0
15159,F4,442.0,0.25,127,80.0
15160,F3,442.0,0.25,127,80.0
15161,F5,442.0,0.25,127,80.0
15162,F5,442.0,0.25,127,80.0
15163,E-4,442.0,0.25,127,80.0
15164,B-3,442.0,0.25,127,80.0
15165,D5,442.0,0.125,127,80.0
15166,A4,442.0,0.125,127,80.0
15167,D5,442.125,0.125,127,80.0
15168,A4,442.125,0.125,127,80.0
15169,C6,442.25,0.25,127,80.0
15170,F3,442.25,0.25,127,80.0
15171,C7,442.25,0.25,127,80.0
15172,C7,442.25,0.25,127,80.0
15173,D4,442.25,0.25,127,80.0
15174,A3,442.25,0.25,127,80.0
15175,D5,442.25,0.125,127,80.0
15176,A4,442.25,0.125,127,80.0
15177,D5,442.375,0.125,127,80.0
15178,A4,442.375,0.125,127,80.0
15179,F4,442.5,0.25,127,80.0
15180,F5,442.5,0.25,127,80.0
15181,F5,442.5,0.25,127,80.0
15182,B3,442.5,0.5,127,80.0
15183,B1,442.5,0.5,127,80.0
15184,D5,442.5,0.125,127,80.0
15185,A4,442.5,0.125,127,80.0
15186,D5,442.625,0.125,127,80.0
15187,A4,442.625,0.125,127,80.0
15188,E-5,442.75,0.25,127,80.0
15189,E-6,442.75,0.25,127,80.0
15190,E-6,442.75,0.25,127,80.0
15191,D5,442.75,0.125,127,80.0
15192,A4,442.75,0.125,127,80.0
15193,D5,442.875,0.125,127,80.0
15194,A4,442.875,0.125,127,80.0
15195,D5,443.0,0.25,127,80.0
15196,D6,443.0,0.25,127,80.0
15197,D6,443.0,0.25,127,80.0
15198,F3,443.0,0.25,127,80.0
15199,D2,443.0,0.25,127,80.0
15200,D4,443.0,0.25,127,80.0
15201,A3,443.0,0.25,127,80.0
15202,D5,443.0,0.125,127,80.0
15203,A4,443.0,0.125,127,80.0
15204,D5,443.125,0.125,127,80.0
15205,A4,443.125,0.125,127,80.0
15206,C5,443.25,0.25,127,80.0
15207,F3,443.25,0.25,127,80.0
15208,C6,443.25,0.25,127,80.0
15209,C6,443.25,0.25,127,80.0
15210,E-4,443.25,0.25,127,80.0
15211,B-3,443.25,0.25,127,80.0
15212,D5,443.25,0.125,127,80.0
15213,A4,443.25,0.125,127,80.0
15214,D5,443.375,0.125,127,80.0
15215,A4,443.375,0.125,127,80.0
15216,F3,443.5,0.25,127,80.0
15217,B3,443.5,0.25,127,80.0
15218,F4,443.5,0.25,127,80.0
15219,F4,443.5,0.25,127,80.0
15220,D5,443.5,0.125,127,80.0
15221,A4,443.5,0.125,127,80.0
15222,D5,443.625,0.125,127,80.0
15223,A4,443.625,0.125,127,80.0
15224,E-4,443.75,0.25,127,80.0
15225,B1,443.75,0.25,127,80.0
15226,E-5,443.75,0.25,127,80.0
15227,E-5,443.75,0.25,127,80.0
15228,D5,443.75,0.125,127,80.0
15229,A4,443.75,0.125,127,80.0
15230,D5,443.875,31/250,127,80.0
15231,A4,443.875,31/250,127,80.0
15232,D4,444.0,0.25,127,80.0
15233,D2,444.0,0.25,127,80.0
15234,D5,444.0,0.25,127,80.0
15235,D5,444.0,0.25,127,80.0
15236,D3,444.0,0.25,127,80.0
15237,A2,444.0,0.25,127,80.0
15238,D4,444.0,0.25,127,80.0
15239,A3,444.0,0.25,127,80.0
15240,F3,444.0,0.25,127,80.0
15241,B1,444.0,0.25,127,80.0
15242,D4,444.0,0.25,127,80.0
15243,A3,444.0,0.25,127,80.0
15244,G4,444.0,0.25,127,80.0
15245,D4,444.0,0.25,127,80.0
15246,G3,444.0,0.25,127,80.0
15247,D5,444.0,0.25,127,80.0
15248,A4,444.0,0.25,127,80.0
15249,D4,444.0,0.25,127,80.0
15250,A3,444.0,0.25,127,80.0
15251,C4,444.25,0.25,127,80.0
15252,E-2,444.25,0.25,127,80.0
15253,C5,444.25,0.25,127,80.0
15254,C5,444.25,0.25,127,80.0
15255,E-3,444.25,0.25,127,80.0
15256,B-2,444.25,0.25,127,80.0
15257,E-4,444.25,0.25,127,80.0
15258,B-3,444.25,0.25,127,80.0
15259,B3,444.25,0.5,127,80.0
15260,D2,444.25,0.5,127,80.0
15261,E-4,444.25,0.25,127,80.0
15262,B-3,444.25,0.25,127,80.0
15263,G#4,444.25,0.25,127,80.0
15264,E-4,444.25,0.25,127,80.0
15265,G#3,444.25,0.25,127,80.0
15266,E-5,444.25,0.25,127,80.0
15267,B-4,444.25,0.25,127,80.0
15268,E-4,444.25,0.25,127,80.0
15269,B-3,444.25,0.25,127,80.0
15270,F3,444.5,0.25,127,80.0
15271,F4,444.5,0.25,127,80.0
15272,F4,444.5,0.25,127,80.0
15273,C4,444.75,0.25,127,80.0
15274,F3,444.75,0.5,127,80.0
15275,C5,444.75,0.25,127,80.0
15276,C5,444.75,0.25,127,80.0
15277,D4,445.0,0.25,127,80.0
15278,D5,445.0,0.25,127,80.0
15279,D5,445.0,0.25,127,80.0
15280,E-4,445.25,0.25,127,80.0
15281,F3,445.25,0.25,127,80.0
15282,E-5,445.25,0.25,127,80.0
15283,E-5,445.25,0.25,127,80.0
15284,F3,445.5,0.25,127,80.0
15285,B1,445.5,0.25,127,80.0
15286,F4,445.5,0.25,127,80.0
15287,F4,445.5,0.25,127,80.0
15288,C5,445.75,0.25,127,80.0
15289,F3,445.75,0.25,127,80.0
15290,C6,445.75,0.25,127,80.0
15291,C6,445.75,0.25,127,80.0
15292,D5,446.0,0.25,127,80.0
15293,E-2,446.0,0.25,127,80.0
15294,D2,446.0,0.25,127,80.0
15295,D6,446.0,0.25,127,80.0
15296,D6,446.0,0.25,127,80.0
15297,E-3,446.0,0.25,127,80.0
15298,B-2,446.0,0.25,127,80.0
15299,E-4,446.0,0.25,127,80.0
15300,B-3,446.0,0.25,127,80.0
15301,E-4,446.0,0.25,127,80.0
15302,B-3,446.0,0.25,127,80.0
15303,E-5,446.0,0.25,127,80.0
15304,B-4,446.0,0.25,127,80.0
15305,E-4,446.0,0.25,127,80.0
15306,B-3,446.0,0.25,127,80.0
15307,E-5,446.25,0.25,127,80.0
15308,D2,446.25,0.25,127,80.0
15309,E-6,446.25,0.25,127,80.0
15310,E-6,446.25,0.25,127,80.0
15311,D3,446.25,0.25,127,80.0
15312,A2,446.25,0.25,127,80.0
15313,D4,446.25,0.25,127,80.0
15314,A3,446.25,0.25,127,80.0
15315,A2,446.25,0.25,127,80.0
15316,B1,446.25,0.25,127,80.0
15317,D4,446.25,0.25,127,80.0
15318,A3,446.25,0.25,127,80.0
15319,D5,446.25,0.25,127,80.0
15320,A4,446.25,0.25,127,80.0
15321,D4,446.25,0.25,127,80.0
15322,A3,446.25,0.25,127,80.0
15323,F4,446.5,0.25,127,80.0
15324,F#2,446.5,0.25,127,80.0
15325,F5,446.5,0.25,127,80.0
15326,F5,446.5,0.25,127,80.0
15327,C6,446.75,0.25,127,80.0
15328,C7,446.75,0.25,127,80.0
15329,C7,446.75,0.25,127,80.0
15330,A2,446.75,0.25,127,80.0
15331,B1,446.75,0.25,127,80.0
15332,F4,447.0,0.25,127,80.0
15333,D2,447.0,0.25,127,80.0
15334,F#2,447.0,0.25,127,80.0
15335,F5,447.0,0.25,127,80.0
15336,F5,447.0,0.25,127,80.0
15337,D3,447.0,0.25,127,80.0
15338,A2,447.0,0.25,127,80.0
15339,D4,447.0,0.25,127,80.0
15340,A3,447.0,0.25,127,80.0
15341,D4,447.0,0.25,127,80.0
15342,A3,447.0,0.25,127,80.0
15343,D5,447.0,0.25,127,80.0
15344,A4,447.0,0.25,127,80.0
15345,D4,447.0,0.25,127,80.0
15346,A3,447.0,0.25,127,80.0
15347,E-5,447.25,0.25,127,80.0
15348,E-2,447.25,0.25,127,80.0
15349,E-6,447.25,0.25,127,80.0
15350,E-6,447.25,0.25,127,80.0
15351,E-3,447.25,0.25,127,80.0
15352,B-2,447.25,0.25,127,80.0
15353,E-4,447.25,0.25,127,80.0
15354,B-3,447.25,0.25,127,80.0
15355,C#3,447.25,0.5,127,80.0
15356,D2,447.25,0.5,127,80.0
15357,E-4,447.25,0.25,127,80.0
15358,B-3,447.25,0.25,127,80.0
15359,E-5,447.25,0.25,127,80.0
15360,B-4,447.25,0.25,127,80.0
15361,E-4,447.25,0.25,127,80.0
15362,B-3,447.25,0.25,127,80.0
15363,D5,447.5,0.25,127,80.0
15364,D6,447.5,0.25,127,80.0
15365,D6,447.5,0.25,127,80.0
15366,C5,447.75,0.25,127,80.0
15367,B1,447.75,0.25,127,80.0
15368,C6,447.75,0.25,127,80.0
15369,C6,447.75,0.25,127,80.0
15370,G#3,448.0,0.25,127,80.0
15371,G1,448.0,0.25,127,80.0
15372,G#4,448.0,0.25,127,80.0
15373,G#4,448.0,0.25,127,80.0
15374,G3,448.0,0.25,127,80.0
15375,D3,448.0,0.25,127,80.0
15376,G2,448.0,0.25,127,80.0
15377,G4,448.0,0.25,127,80.0
15378,D4,448.0,0.25,127,80.0
15379,G3,448.0,0.25,127,80.0
15380,B3,448.0,0.5,127,80.0
15381,A3,448.0,0.5,127,80.0
15382,B1,448.0,0.5,127,80.0
15383,G4,448.0,0.25,127,80.0
15384,D4,448.0,0.25,127,80.0
15385,G3,448.0,0.25,127,80.0
15386,G#4,448.0,0.25,127,80.0
15387,E-4,448.0,0.25,127,80.0
15388,G#3,448.0,0.25,127,80.0
15389,G5,448.0,0.25,127,80.0
15390,D5,448.0,0.25,127,80.0
15391,G4,448.0,0.25,127,80.0
15392,G4,448.0,0.25,127,80.0
15393,D4,448.0,0.25,127,80.0
15394,G3,448.0,0.25,127,80.0
15395,D4,448.25,0.25,127,80.0
15396,G#1,448.25,0.25,127,80.0
15397,D5,448.25,0.25,127,80.0
15398,D5,448.25,0.25,127,80.0
15399,G#3,448.25,0.25,127,80.0
15400,E-3,448.25,0.25,127,80.0
15401,G#2,448.25,0.25,127,80.0
15402,G#4,448.25,0.25,127,80.0
15403,E-4,448.25,0.25,127,80.0
15404,G#3,448.25,0.25,127,80.0
15405,G#4,448.25,0.25,127,80.0
15406,E-4,448.25,0.25,127,80.0
15407,G#3,448.25,0.25,127,80.0
15408,G4,448.25,0.25,127,80.0
15409,D4,448.25,0.25,127,80.0
15410,G3,448.25,0.25,127,80.0
15411,G#5,448.25,0.25,127,80.0
15412,E-5,448.25,0.25,127,80.0
15413,G#4,448.25,0.25,127,80.0
15414,G#4,448.25,0.25,127,80.0
15415,E-4,448.25,0.25,127,80.0
15416,G#3,448.25,0.25,127,80.0
15417,G4,448.5,0.25,127,80.0
15418,B3,448.5,0.25,127,80.0
15419,G5,448.5,0.25,127,80.0
15420,G5,448.5,0.25,127,80.0
15421,G#3,448.75,0.25,127,80.0
15422,B1,448.75,0.25,127,80.0
15423,G#4,448.75,0.25,127,80.0
15424,G#4,448.75,0.25,127,80.0
15425,C5,449.0,0.25,127,80.0
15426,C6,449.0,0.25,127,80.0
15427,C6,449.0,0.25,127,80.0
15428,B3,449.0,0.5,127,80.0
15429,D2,449.0,0.5,127,80.0
15430,D5,449.25,0.25,127,80.0
15431,D6,449.25,0.25,127,80.0
15432,D6,449.25,0.25,127,80.0
15433,G5,449.5,0.25,127,80.0
15434,B3,449.5,0.25,127,80.0
15435,G6,449.5,0.25,127,80.0
15436,G6,449.5,0.25,127,80.0
15437,G#4,449.75,0.25,127,80.0
15438,B1,449.75,0.25,127,80.0
15439,G#5,449.75,0.25,127,80.0
15440,G#5,449.75,0.25,127,80.0
15441,C6,450.0,0.25,127,80.0
15442,C7,450.0,0.25,127,80.0
15443,C7,450.0,0.25,127,80.0
15444,B3,450.0,0.5,127,80.0
15445,B1,450.0,0.5,127,80.0
15446,G4,450.0,0.25,127,80.0
15447,D4,450.0,0.25,127,80.0
15448,G3,450.0,0.25,127,80.0
15449,G#4,450.25,0.25,127,80.0
15450,G#5,450.25,0.25,127,80.0
15451,G#5,450.25,0.25,127,80.0
15452,G5,450.5,0.25,127,80.0
15453,B3,450.5,0.25,127,80.0
15454,G6,450.5,0.25,127,80.0
15455,G6,450.5,0.25,127,80.0
15456,D5,450.75,0.25,127,80.0
15457,B1,450.75,0.25,127,80.0
15458,D6,450.75,0.25,127,80.0
15459,D6,450.75,0.25,127,80.0
15460,C5,451.0,0.25,127,80.0
15461,C6,451.0,0.25,127,80.0
15462,C6,451.0,0.25,127,80.0
15463,B3,451.0,0.5,127,80.0
15464,D2,451.0,0.5,127,80.0
15465,G#4,451.0,0.25,127,80.0
15466,E-4,451.0,0.25,127,80.0
15467,G#3,451.0,0.25,127,80.0
15468,G#3,451.25,0.25,127,80.0
15469,G#4,451.25,0.25,127,80.0
15470,G#4,451.25,0.25,127,80.0
15471,G4,451.5,0.25,127,80.0
15472,B3,451.5,0.25,127,80.0
15473,G5,451.5,0.25,127,80.0
15474,G5,451.5,0.25,127,80.0
15475,D4,451.75,0.25,127,80.0
15476,B1,451.75,0.25,127,80.0
15477,D5,451.75,0.25,127,80.0
15478,D5,451.75,0.25,127,80.0
15479,G#3,452.0,0.25,127,80.0
15480,G#1,452.0,0.25,127,80.0
15481,G#4,452.0,0.25,127,80.0
15482,G#4,452.0,0.25,127,80.0
15483,G#3,452.0,0.25,127,80.0
15484,E-3,452.0,0.25,127,80.0
15485,G#2,452.0,0.25,127,80.0
15486,G#4,452.0,0.25,127,80.0
15487,E-4,452.0,0.25,127,80.0
15488,G#3,452.0,0.25,127,80.0
15489,B3,452.0,0.5,127,80.0
15490,B1,452.0,0.5,127,80.0
15491,G#4,452.0,0.25,127,80.0
15492,E-4,452.0,0.25,127,80.0
15493,G#3,452.0,0.25,127,80.0
15494,D4,452.0,0.125,127,80.0
15495,A3,452.0,0.125,127,80.0
15496,G#5,452.0,0.25,127,80.0
15497,E-5,452.0,0.25,127,80.0
15498,G#4,452.0,0.25,127,80.0
15499,G#4,452.0,0.25,127,80.0
15500,E-4,452.0,0.25,127,80.0
15501,G#3,452.0,0.25,127,80.0
15502,D4,452.125,0.125,127,80.0
15503,A3,452.125,0.125,127,80.0
15504,D4,452.25,0.25,127,80.0
15505,G1,452.25,0.25,127,80.0
15506,D5,452.25,0.25,127,80.0
15507,D5,452.25,0.25,127,80.0
15508,G3,452.25,0.25,127,80.0
15509,D3,452.25,0.25,127,80.0
15510,G2,452.25,0.25,127,80.0
15511,G4,452.25,0.25,127,80.0
15512,D4,452.25,0.25,127,80.0
15513,G3,452.25,0.25,127,80.0
15514,G4,452.25,0.25,127,80.0
15515,D4,452.25,0.25,127,80.0
15516,G3,452.25,0.25,127,80.0
15517,D4,452.25,0.125,127,80.0
15518,A3,452.25,0.125,127,80.0
15519,G5,452.25,0.25,127,80.0
15520,D5,452.25,0.25,127,80.0
15521,G4,452.25,0.25,127,80.0
15522,G4,452.25,0.25,127,80.0
15523,D4,452.25,0.25,127,80.0
15524,G3,452.25,0.25,127,80.0
15525,D4,452.375,0.125,127,80.0
15526,A3,452.375,0.125,127,80.0
15527,G4,452.5,0.25,127,80.0
15528,B3,452.5,0.25,127,80.0
15529,G5,452.5,0.25,127,80.0
15530,G5,452.5,0.25,127,80.0
15531,D4,452.5,0.125,127,80.0
15532,A3,452.5,0.125,127,80.0
15533,D4,452.625,0.125,127,80.0
15534,A3,452.625,0.125,127,80.0
15535,G#3,452.75,0.25,127,80.0
15536,B1,452.75,0.25,127,80.0
15537,G#4,452.75,0.25,127,80.0
15538,G#4,452.75,0.25,127,80.0
15539,D4,452.75,0.125,127,80.0
15540,A3,452.75,0.125,127,80.0
15541,D4,452.875,0.125,127,80.0
15542,A3,452.875,0.125,127,80.0
15543,C5,453.0,0.25,127,80.0
15544,C6,453.0,0.25,127,80.0
15545,C6,453.0,0.25,127,80.0
15546,B3,453.0,0.5,127,80.0
15547,D2,453.0,0.5,127,80.0
15548,D4,453.0,0.125,127,80.0
15549,A3,453.0,0.125,127,80.0
15550,D4,453.125,0.125,127,80.0
15551,A3,453.125,0.125,127,80.0
15552,D5,453.25,0.25,127,80.0
15553,D6,453.25,0.25,127,80.0
15554,D6,453.25,0.25,127,80.0
15555,D4,453.25,0.125,127,80.0
15556,A3,453.25,0.125,127,80.0
15557,D4,453.375,0.125,127,80.0
15558,A3,453.375,0.125,127,80.0
15559,G5,453.5,0.25,127,80.0
15560,B3,453.5,0.25,127,80.0
15561,G6,453.5,0.25,127,80.0
15562,G6,453.5,0.25,127,80.0
15563,D4,453.5,0.125,127,80.0
15564,A3,453.5,0.125,127,80.0
15565,D4,453.625,0.125,127,80.0
15566,A3,453.625,0.125,127,80.0
15567,G#4,453.75,0.25,127,80.0
15568,B1,453.75,0.25,127,80.0
15569,G#5,453.75,0.25,127,80.0
15570,G#5,453.75,0.25,127,80.0
15571,D4,453.75,0.125,127,80.0
15572,A3,453.75,0.125,127,80.0
15573,D4,453.875,0.125,127,80.0
15574,A3,453.875,0.125,127,80.0
15575,C6,454.0,0.25,127,80.0
15576,G1,454.0,0.25,127,80.0
15577,C7,454.0,0.25,127,80.0
15578,C7,454.0,0.25,127,80.0
15579,G3,454.0,0.25,127,80.0
15580,D3,454.0,0.25,127,80.0
15581,G2,454.0,0.25,127,80.0
15582,G4,454.0,0.25,127,80.0
15583,D4,454.0,0.25,127,80.0
15584,G3,454.0,0.25,127,80.0
15585,B3,454.0,0.25,127,80.0
15586,B1,454.0,0.25,127,80.0
15587,G4,454.0,0.25,127,80.0
15588,D4,454.0,0.25,127,80.0
15589,G3,454.0,0.25,127,80.0
15590,D4,454.0,0.125,127,80.0
15591,A3,454.0,0.125,127,80.0
15592,G5,454.0,0.25,127,80.0
15593,D5,454.0,0.25,127,80.0
15594,G4,454.0,0.25,127,80.0
15595,G4,454.0,0.25,127,80.0
15596,D4,454.0,0.25,127,80.0
15597,G3,454.0,0.25,127,80.0
15598,D4,454.125,0.125,127,80.0
15599,A3,454.125,0.125,127,80.0
15600,G#4,454.25,0.25,127,80.0
15601,B3,454.25,0.25,127,80.0
15602,G#5,454.25,0.25,127,80.0
15603,G#5,454.25,0.25,127,80.0
15604,D4,454.25,0.125,127,80.0
15605,A3,454.25,0.125,127,80.0
15606,D4,454.375,0.125,127,80.0
15607,A3,454.375,0.125,127,80.0
15608,G5,454.5,0.25,127,80.0
15609,B3,454.5,0.25,127,80.0
15610,G6,454.5,0.25,127,80.0
15611,G6,454.5,0.25,127,80.0
15612,D4,454.5,0.125,127,80.0
15613,A3,454.5,0.125,127,80.0
15614,D4,454.625,0.125,127,80.0
15615,A3,454.625,0.125,127,80.0
15616,D5,454.75,0.25,127,80.0
15617,B1,454.75,0.25,127,80.0
15618,D6,454.75,0.25,127,80.0
15619,D6,454.75,0.25,127,80.0
15620,D4,454.75,0.125,127,80.0
15621,A3,454.75,0.125,127,80.0
15622,D4,454.875,0.125,127,80.0
15623,A3,454.875,0.125,127,80.0
15624,C5,455.0,0.25,127,80.0
15625,G#1,455.0,0.25,127,80.0
15626,C6,455.0,0.25,127,80.0
15627,C6,455.0,0.25,127,80.0
15628,G#3,455.0,0.25,127,80.0
15629,E-3,455.0,0.25,127,80.0
15630,G#2,455.0,0.25,127,80.0
15631,G#4,455.0,0.25,127,80.0
15632,E-4,455.0,0.25,127,80.0
15633,G#3,455.0,0.25,127,80.0
15634,B3,455.0,0.25,127,80.0
15635,D2,455.0,0.25,127,80.0
15636,G#4,455.0,0.25,127,80.0
15637,E-4,455.0,0.25,127,80.0
15638,G#3,455.0,0.25,127,80.0
15639,D4,455.0,0.125,127,80.0
15640,A3,455.0,0.125,127,80.0
15641,G#5,455.0,0.25,127,80.0
15642,E-5,455.0,0.25,127,80.0
15643,G#4,455.0,0.25,127,80.0
15644,G#4,455.0,0.25,127,80.0
15645,E-4,455.0,0.25,127,80.0
15646,G#3,455.0,0.25,127,80.0
15647,D4,455.125,0.125,127,80.0
15648,A3,455.125,0.125,127,80.0
15649,G#3,455.25,0.25,127,80.0
15650,B3,455.25,0.25,127,80.0
15651,G#4,455.25,0.25,127,80.0
15652,G#4,455.25,0.25,127,80.0
15653,D4,455.25,0.125,127,80.0
15654,A3,455.25,0.125,127,80.0
15655,D4,455.375,0.125,127,80.0
15656,A3,455.375,0.125,127,80.0
15657,G4,455.5,0.25,127,80.0
15658,B3,455.5,0.25,127,80.0
15659,G5,455.5,0.25,127,80.0
15660,G5,455.5,0.25,127,80.0
15661,D4,455.5,0.125,127,80.0
15662,A3,455.5,0.125,127,80.0
15663,D4,455.625,0.125,127,80.0
15664,A3,455.625,0.125,127,80.0
15665,D4,455.75,0.25,127,80.0
15666,B1,455.75,0.25,127,80.0
15667,D5,455.75,0.25,127,80.0
15668,D5,455.75,0.25,127,80.0
15669,D4,455.75,0.125,127,80.0
15670,A3,455.75,0.125,127,80.0
15671,D4,455.875,31/250,127,80.0
15672,A3,455.875,31/250,127,80.0
15673,F3,456.0,0.25,127,80.0
15674,F4,456.0,0.25,127,80.0
15675,F4,456.0,0.25,127,80.0
15676,D3,456.0,4.0,127,80.0
15677,A2,456.0,4.0,127,80.0
15678,D4,456.0,4.0,127,80.0
15679,A3,456.0,4.0,127,80.0
15680,D2,456.0,4.0,127,80.0
15681,D1,456.0,4.0,127,80.0
15682,B3,456.0,0.5,127,80.0
15683,B1,456.0,0.5,127,80.0
15684,D4,456.0,4.0,127,80.0
15685,A3,456.0,4.0,127,80.0
15686,D4,456.0,0.25,127,80.0
15687,A3,456.0,0.25,127,80.0
15688,D5,456.0,0.125,127,80.0
15689,A4,456.0,0.125,127,80.0
15690,D4,456.0,4.0,127,80.0
15691,A3,456.0,4.0,127,80.0
15692,D5,456.125,0.125,127,80.0
15693,A4,456.125,0.125,127,80.0
15694,C4,456.25,0.25,127,80.0
15695,C5,456.25,0.25,127,80.0
15696,C5,456.25,0.25,127,80.0
15697,E-4,456.25,0.25,127,80.0
15698,B-3,456.25,0.25,127,80.0
15699,D5,456.25,0.125,127,80.0
15700,A4,456.25,0.125,127,80.0
15701,D5,456.375,0.125,127,80.0
15702,A4,456.375,0.125,127,80.0
15703,D4,456.5,0.25,127,80.0
15704,B3,456.5,0.25,127,80.0
15705,D5,456.5,0.25,127,80.0
15706,D5,456.5,0.25,127,80.0
15707,D5,456.5,0.125,127,80.0
15708,A4,456.5,0.125,127,80.0
15709,D5,456.625,0.125,127,80.0
15710,A4,456.625,0.125,127,80.0
15711,E-4,456.75,0.25,127,80.0
15712,B1,456.75,0.25,127,80.0
15713,E-5,456.75,0.25,127,80.0
15714,E-5,456.75,0.25,127,80.0
15715,D5,456.75,0.125,127,80.0
15716,A4,456.75,0.125,127,80.0
15717,D5,456.875,0.125,127,80.0
15718,A4,456.875,0.125,127,80.0
15719,F3,457.0,0.25,127,80.0
15720,F4,457.0,0.25,127,80.0
15721,F4,457.0,0.25,127,80.0
15722,B3,457.0,0.25,127,80.0
15723,D2,457.0,0.25,127,80.0
15724,D5,457.0,0.125,127,80.0
15725,A4,457.0,0.125,127,80.0
15726,D5,457.125,0.125,127,80.0
15727,A4,457.125,0.125,127,80.0
15728,C5,457.25,0.25,127,80.0
15729,B3,457.25,0.25,127,80.0
15730,C6,457.25,0.25,127,80.0
15731,C6,457.25,0.25,127,80.0
15732,D5,457.25,0.125,127,80.0
15733,A4,457.25,0.125,127,80.0
15734,D5,457.375,0.125,127,80.0
15735,A4,457.375,0.125,127,80.0
15736,D5,457.5,0.25,127,80.0
15737,B3,457.5,0.25,127,80.0
15738,D6,457.5,0.25,127,80.0
15739,D6,457.5,0.25,127,80.0
15740,D5,457.5,0.125,127,80.0
15741,A4,457.5,0.125,127,80.0
15742,D5,457.625,0.125,127,80.0
15743,A4,457.625,0.125,127,80.0
15744,E-5,457.75,0.25,127,80.0
15745,B1,457.75,0.25,127,80.0
15746,E-6,457.75,0.25,127,80.0
15747,E-6,457.75,0.25,127,80.0
15748,D5,457.75,0.125,127,80.0
15749,A4,457.75,0.125,127,80.0
15750,D5,457.875,0.125,127,80.0
15751,A4,457.875,0.125,127,80.0
15752,F4,458.0,0.25,127,80.0
15753,F5,458.0,0.25,127,80.0
15754,F5,458.0,0.25,127,80.0
15755,B3,458.0,0.5,127,80.0
15756,B1,458.0,0.5,127,80.0
15757,E-4,458.0,0.25,127,80.0
15758,B-3,458.0,0.25,127,80.0
15759,D5,458.0,0.125,127,80.0
15760,A4,458.0,0.125,127,80.0
15761,D5,458.125,0.125,127,80.0
15762,A4,458.125,0.125,127,80.0
15763,C6,458.25,0.25,127,80.0
15764,C7,458.25,0.25,127,80.0
15765,C7,458.25,0.25,127,80.0
15766,D4,458.25,0.25,127,80.0
15767,A3,458.25,0.25,127,80.0
15768,D5,458.25,0.125,127,80.0
15769,A4,458.25,0.125,127,80.0
15770,D5,458.375,0.125,127,80.0
15771,A4,458.375,0.125,127,80.0
15772,F4,458.5,0.25,127,80.0
15773,B3,458.5,0.25,127,80.0
15774,F5,458.5,0.25,127,80.0
15775,F5,458.5,0.25,127,80.0
15776,D5,458.5,0.125,127,80.0
15777,A4,458.5,0.125,127,80.0
15778,D5,458.625,0.125,127,80.0
15779,A4,458.625,0.125,127,80.0
15780,E-5,458.75,0.25,127,80.0
15781,B1,458.75,0.25,127,80.0
15782,E-6,458.75,0.25,127,80.0
15783,E-6,458.75,0.25,127,80.0
15784,D5,458.75,0.125,127,80.0
15785,A4,458.75,0.125,127,80.0
15786,D5,458.875,0.125,127,80.0
15787,A4,458.875,0.125,127,80.0
15788,D5,459.0,0.25,127,80.0
15789,D6,459.0,0.25,127,80.0
15790,D6,459.0,0.25,127,80.0
15791,B3,459.0,0.5,127,80.0
15792,D2,459.0,0.5,127,80.0
15793,D4,459.0,0.25,127,80.0
15794,A3,459.0,0.25,127,80.0
15795,D5,459.0,0.125,127,80.0
15796,A4,459.0,0.125,127,80.0
15797,D5,459.125,0.125,127,80.0
15798,A4,459.125,0.125,127,80.0
15799,C5,459.25,0.25,127,80.0
15800,C6,459.25,0.25,127,80.0
15801,C6,459.25,0.25,127,80.0
15802,E-4,459.25,0.25,127,80.0
15803,B-3,459.25,0.25,127,80.0
15804,D5,459.25,0.125,127,80.0
15805,A4,459.25,0.125,127,80.0
15806,D5,459.375,0.125,127,80.0
15807,A4,459.375,0.125,127,80.0
15808,F3,459.5,0.25,127,80.0
15809,B3,459.5,0.5,127,80.0
15810,F4,459.5,0.25,127,80.0
15811,F4,459.5,0.25,127,80.0
15812,D5,459.5,0.125,127,80.0
15813,A4,459.5,0.125,127,80.0
15814,D5,459.625,0.125,127,80.0
15815,A4,459.625,0.125,127,80.0
15816,E-4,459.75,0.25,127,80.0
15817,E-5,459.75,0.25,127,80.0
15818,E-5,459.75,0.25,127,80.0
15819,D5,459.75,0.125,127,80.0
15820,A4,459.75,0.125,127,80.0
15821,D5,459.875,31/250,127,80.0
15822,A4,459.875,31/250,127,80.0
15823,D4,460.0,0.25,127,80.0
15824,D2,460.0,0.25,127,80.0
15825,D5,460.0,0.25,127,80.0
15826,D5,460.0,0.25,127,80.0
15827,D3,460.0,0.25,127,80.0
15828,A2,460.0,0.25,127,80.0
15829,D4,460.0,0.25,127,80.0
15830,A3,460.0,0.25,127,80.0
15831,B3,460.0,0.5,127,80.0
15832,B1,460.0,0.5,127,80.0
15833,D4,460.0,0.25,127,80.0
15834,A3,460.0,0.25,127,80.0
15835,G4,460.0,0.25,127,80.0
15836,D4,460.0,0.25,127,80.0
15837,G3,460.0,0.25,127,80.0
15838,D5,460.0,0.25,127,80.0
15839,A4,460.0,0.25,127,80.0
15840,D4,460.0,0.25,127,80.0
15841,A3,460.0,0.25,127,80.0
15842,C4,460.25,0.25,127,80.0
15843,E-2,460.25,0.25,127,80.0
15844,C5,460.25,0.25,127,80.0
15845,C5,460.25,0.25,127,80.0
15846,E-3,460.25,0.25,127,80.0
15847,B-2,460.25,0.25,127,80.0
15848,E-4,460.25,0.25,127,80.0
15849,B-3,460.25,0.25,127,80.0
15850,E-4,460.25,0.25,127,80.0
15851,B-3,460.25,0.25,127,80.0
15852,G#4,460.25,0.25,127,80.0
15853,E-4,460.25,0.25,127,80.0
15854,G#3,460.25,0.25,127,80.0
15855,E-5,460.25,0.25,127,80.0
15856,B-4,460.25,0.25,127,80.0
15857,E-4,460.25,0.25,127,80.0
15858,B-3,460.25,0.25,127,80.0
15859,F3,460.5,0.25,127,80.0
15860,F4,460.5,0.25,127,80.0
15861,F4,460.5,0.25,127,80.0
15862,A3,460.5,0.5,127,80.0
15863,D2,460.5,0.5,127,80.0
15864,C4,460.75,0.25,127,80.0
15865,C5,460.75,0.25,127,80.0
15866,C5,460.75,0.25,127,80.0
15867,D4,461.0,0.25,127,80.0
15868,B3,461.0,0.25,127,80.0
15869,D5,461.0,0.25,127,80.0
15870,D5,461.0,0.25,127,80.0
15871,E-4,461.25,0.25,127,80.0
15872,E-5,461.25,0.25,127,80.0
15873,E-5,461.25,0.25,127,80.0
15874,D3,461.25,0.25,127,80.0
15875,C3,461.25,0.25,127,80.0
15876,F3,461.5,0.25,127,80.0
15877,F4,461.5,0.25,127,80.0
15878,F4,461.5,0.25,127,80.0
15879,E-3,461.5,0.25,127,80.0
15880,A3,461.5,0.25,127,80.0
15881,C5,461.75,0.25,127,80.0
15882,C6,461.75,0.25,127,80.0
15883,C6,461.75,0.25,127,80.0
15884,A3,461.75,0.25,127,80.0
15885,B2,461.75,0.25,127,80.0
15886,D5,462.0,0.25,127,80.0
15887,E-2,462.0,0.25,127,80.0
15888,D6,462.0,0.25,127,80.0
15889,D6,462.0,0.25,127,80.0
15890,E-3,462.0,0.25,127,80.0
15891,B-2,462.0,0.25,127,80.0
15892,E-4,462.0,0.25,127,80.0
15893,B-3,462.0,0.25,127,80.0
15894,A2,462.0,167/1000,127,80.0
15895,G2,462.0,167/1000,127,80.0
15896,E-4,462.0,0.25,127,80.0
15897,B-3,462.0,0.25,127,80.0
15898,E-5,462.0,0.25,127,80.0
15899,B-4,462.0,0.25,127,80.0
15900,E-4,462.0,0.25,127,80.0
15901,B-3,462.0,0.25,127,80.0
15902,D3,462.167,167/1000,127,80.0
15903,C3,462.167,167/1000,127,80.0
15904,E-5,462.25,0.25,127,80.0
15905,D2,462.25,0.25,127,80.0
15906,E-6,462.25,0.25,127,80.0
15907,E-6,462.25,0.25,127,80.0
15908,D3,462.25,0.25,127,80.0
15909,A2,462.25,0.25,127,80.0
15910,D4,462.25,0.25,127,80.0
15911,A3,462.25,0.25,127,80.0
15912,D4,462.25,0.25,127,80.0
15913,A3,462.25,0.25,127,80.0
15914,D5,462.25,0.25,127,80.0
15915,A4,462.25,0.25,127,80.0
15916,D4,462.25,0.25,127,80.0
15917,A3,462.25,0.25,127,80.0
15918,A2,462.333,167/1000,127,80.0
15919,F4,462.5,0.25,127,80.0
15920,F5,462.5,0.25,127,80.0
15921,F5,462.5,0.25,127,80.0
15922,A2,462.5,167/1000,127,80.0
15923,G2,462.5,167/1000,127,80.0
15924,F2,462.667,167/1000,127,80.0
15925,D2,462.667,167/1000,127,80.0
15926,C6,462.75,0.25,127,80.0
15927,C7,462.75,0.25,127,80.0
15928,C7,462.75,0.25,127,80.0
15929,D2,462.833,167/1000,127,80.0
15930,F4,463.0,0.25,127,80.0
15931,D2,463.0,0.25,127,80.0
15932,D2,463.0,167/1000,127,80.0
15933,F5,463.0,0.25,127,80.0
15934,F5,463.0,0.25,127,80.0
15935,D3,463.0,0.25,127,80.0
15936,A2,463.0,0.25,127,80.0
15937,D4,463.0,0.25,127,80.0
15938,A3,463.0,0.25,127,80.0
15939,D4,463.0,0.25,127,80.0
15940,A3,463.0,0.25,127,80.0
15941,D5,463.0,0.25,127,80.0
15942,A4,463.0,0.25,127,80.0
15943,D4,463.0,0.25,127,80.0
15944,A3,463.0,0.25,127,80.0
15945,D2,463.167,167/1000,127,80.0
15946,E-5,463.25,0.25,127,80.0
15947,E-2,463.25,0.25,127,80.0
15948,E-6,463.25,0.25,127,80.0
15949,E-6,463.25,0.25,127,80.0
15950,E-3,463.25,0.25,127,80.0
15951,B-2,463.25,0.25,127,80.0
15952,E-4,463.25,0.25,127,80.0
15953,B-3,463.25,0.25,127,80.0
15954,E-4,463.25,0.25,127,80.0
15955,B-3,463.25,0.25,127,80.0
15956,E-5,463.25,0.25,127,80.0
15957,B-4,463.25,0.25,127,80.0
15958,E-4,463.25,0.25,127,80.0
15959,B-3,463.25,0.25,127,80.0
15960,D2,463.333,167/1000,127,80.0
15961,D5,463.5,0.25,127,80.0
15962,D6,463.5,0.25,127,80.0
15963,D6,463.5,0.25,127,80.0
15964,C#3,463.5,0.5,127,80.0
15965,B1,463.5,0.5,127,80.0
15966,C5,463.75,0.25,127,80.0
15967,C6,463.75,0.25,127,80.0
15968,C6,463.75,0.25,127,80.0
15969,B1,464.0,2.5,127,80.0
15970,B4,464.0,1.0,127,80.0
15971,F#4,464.0,1.0,127,80.0
15972,D4,464.0,1.0,127,80.0
15973,B3,464.0,1.0,127,80.0
15974,B2,464.0,1.0,127,80.0
15975,E-3,464.0,0.5,127,80.0
15976,C#3,464.0,0.5,127,80.0
15977,B1,464.0,0.5,127,80.0
15978,G#4,464.0,0.25,127,80.0
15979,E-4,464.0,0.25,127,80.0
15980,G#3,464.0,0.25,127,80.0
15981,G4,464.25,0.25,127,80.0
15982,D4,464.25,0.25,127,80.0
15983,G3,464.25,0.25,127,80.0
15984,E-3,464.5,0.5,127,80.0
15985,B4,464.75,0.125,127,80.0
15986,B4,464.75,0.125,127,80.0
15987,B4,464.75,0.125,127,80.0
15988,B5,464.75,0.125,127,80.0
15989,B5,464.75,0.125,127,80.0
15990,C#5,464.875,0.125,102,80.0
15991,C#5,464.875,0.125,102,80.0
15992,C#5,464.875,0.125,102,80.0
15993,C#6,464.875,0.125,102,80.0
15994,C#6,464.875,0.125,102,80.0
15995,D5,465.0,0.5,102,80.0
15996,D5,465.0,0.5,102,80.0
15997,E-3,465.0,0.5,127,80.0
15998,D5,465.0,0.5,102,80.0
15999,D6,465.0,0.5,102,80.0
16000,D6,465.0,0.5,102,80.0
16001,B3,465.25,0.25,127,80.0
16002,B2,465.25,0.75,127,80.0
16003,E-3,465.5,0.25,127,80.0
16004,D4,465.5,0.25,127,80.0
16005,B3,465.5,0.25,127,80.0
16006,C#5,465.75,0.25,127,80.0
16007,C#5,465.75,0.25,127,80.0
16008,B1,465.75,0.25,127,80.0
16009,C#5,465.75,0.25,127,80.0
16010,C#6,465.75,0.25,127,80.0
16011,C#6,465.75,0.25,127,80.0
16012,D5,466.0,1.0,102,80.0
16013,B2,466.0,0.5,127,80.0
16014,D5,466.0,1.0,102,80.0
16015,D5,466.0,0.125,102,80.0
16016,D6,466.0,0.125,102,80.0
16017,D6,466.0,1.0,102,80.0
16018,B4,466.0,0.75,127,80.0
16019,F#4,466.0,0.75,127,80.0
16020,D4,466.0,0.75,127,80.0
16021,B3,466.0,0.75,127,80.0
16022,E-3,466.0,0.5,127,80.0
16023,D2,466.0,0.5,127,80.0
16024,G4,466.0,0.25,127,80.0
16025,D4,466.0,0.25,127,80.0
16026,G3,466.0,0.25,127,80.0
16027,D5,466.125,0.125,102,80.0
16028,D6,466.125,0.125,102,80.0
16029,D5,466.25,0.125,102,80.0
16030,D6,466.25,0.125,102,80.0
16031,D5,466.375,0.125,102,80.0
16032,D6,466.375,0.125,102,80.0
16033,B2,466.5,0.5,127,80.0
16034,F#1,466.5,0.5,127,80.0
16035,E-3,466.5,0.25,127,80.0
16036,D5,466.5,0.125,102,80.0
16037,D6,466.5,0.125,102,80.0
16038,D5,466.625,0.125,102,80.0
16039,D6,466.625,0.125,102,80.0
16040,B3,466.75,0.25,127,80.0
16041,B1,466.75,0.25,127,80.0
16042,D5,466.75,0.125,102,80.0
16043,D6,466.75,0.125,102,80.0
16044,D5,466.875,31/250,102,80.0
16045,D6,466.875,31/250,102,80.0
16046,B1,467.0,1.0,127,80.0
16047,B4,467.0,1.0,127,80.0
16048,F#4,467.0,1.0,127,80.0
16049,D4,467.0,1.0,127,80.0
16050,B3,467.0,1.0,127,80.0
16051,B2,467.0,1.0,127,80.0
16052,E-3,467.0,0.5,127,80.0
16053,C#3,467.0,0.5,127,80.0
16054,B1,467.0,0.5,127,80.0
16055,G#4,467.0,0.25,127,80.0
16056,E-4,467.0,0.25,127,80.0
16057,G#3,467.0,0.25,127,80.0
16058,E-3,467.5,0.25,127,80.0
16059,B4,467.75,0.125,127,80.0
16060,B4,467.75,0.125,127,80.0
16061,B1,467.75,0.25,127,80.0
16062,B4,467.75,0.125,127,80.0
16063,B5,467.75,0.125,127,80.0
16064,B5,467.75,0.125,127,80.0
16065,C#5,467.875,0.125,102,80.0
16066,C#5,467.875,0.125,102,80.0
16067,C#5,467.875,0.125,102,80.0
16068,C#6,467.875,0.125,102,80.0
16069,C#6,467.875,0.125,102,80.0
16070,D5,468.0,0.5,102,80.0
16071,D5,468.0,0.5,102,80.0
16072,C#2,468.0,1.0,127,80.0
16073,D5,468.0,0.5,102,80.0
16074,D6,468.0,0.5,102,80.0
16075,D6,468.0,0.5,102,80.0
16076,B4,468.0,1.0,127,80.0
16077,F#4,468.0,1.0,127,80.0
16078,C#4,468.0,1.0,127,80.0
16079,C#3,468.0,1.0,127,80.0
16080,E-3,468.0,0.5,127,80.0
16081,B1,468.0,0.5,127,80.0
16082,D4,468.0,0.125,127,80.0
16083,A3,468.0,0.125,127,80.0
16084,D4,468.125,0.125,127,80.0
16085,A3,468.125,0.125,127,80.0
16086,D4,468.25,0.125,127,80.0
16087,A3,468.25,0.125,127,80.0
16088,D4,468.375,0.125,127,80.0
16089,A3,468.375,0.125,127,80.0
16090,E-3,468.5,0.5,127,80.0
16091,D2,468.5,0.5,127,80.0
16092,D4,468.5,0.125,127,80.0
16093,A3,468.5,0.125,127,80.0
16094,D4,468.625,0.125,127,80.0
16095,A3,468.625,0.125,127,80.0
16096,C#5,468.75,0.25,127,80.0
16097,C#5,468.75,0.25,127,80.0
16098,C#5,468.75,0.25,127,80.0
16099,C#6,468.75,0.25,127,80.0
16100,C#6,468.75,0.25,127,80.0
16101,D4,468.75,0.125,127,80.0
16102,A3,468.75,0.125,127,80.0
16103,D4,468.875,0.125,127,80.0
16104,A3,468.875,0.125,127,80.0
16105,D5,469.0,1.0,102,80.0
16106,D5,469.0,1.0,102,80.0
16107,D2,469.0,1.0,127,80.0
16108,E-3,469.0,0.125,127,80.0
16109,D5,469.0,0.125,102,80.0
16110,D6,469.0,0.125,102,80.0
16111,D6,469.0,1.0,102,80.0
16112,C5,469.0,1.0,114,80.0
16113,B4,469.0,1.0,114,80.0
16114,F#4,469.0,1.0,114,80.0
16115,D4,469.0,1.0,114,80.0
16116,D3,469.0,1.0,114,80.0
16117,D4,469.0,0.125,127,80.0
16118,A3,469.0,0.125,127,80.0
16119,A2,469.125,0.125,127,80.0
16120,D5,469.125,0.125,102,80.0
16121,D6,469.125,0.125,102,80.0
16122,D4,469.125,0.125,127,80.0
16123,A3,469.125,0.125,127,80.0
16124,B2,469.25,0.125,127,80.0
16125,D5,469.25,0.125,102,80.0
16126,D6,469.25,0.125,102,80.0
16127,D4,469.25,0.125,127,80.0
16128,A3,469.25,0.125,127,80.0
16129,A2,469.375,0.125,127,80.0
16130,D5,469.375,0.125,102,80.0
16131,D6,469.375,0.125,102,80.0
16132,D4,469.375,0.125,127,80.0
16133,A3,469.375,0.125,127,80.0
16134,F2,469.5,167/1000,127,80.0
16135,D5,469.5,0.125,102,80.0
16136,D6,469.5,0.125,102,80.0
16137,D4,469.5,0.125,127,80.0
16138,A3,469.5,0.125,127,80.0
16139,D5,469.625,0.125,102,80.0
16140,D6,469.625,0.125,102,80.0
16141,D4,469.625,0.125,127,80.0
16142,A3,469.625,0.125,127,80.0
16143,D2,469.667,167/1000,127,80.0
16144,D5,469.75,0.125,102,80.0
16145,D6,469.75,0.125,102,80.0
16146,D4,469.75,0.125,127,80.0
16147,A3,469.75,0.125,127,80.0
16148,F2,469.833,167/1000,127,80.0
16149,D2,469.833,167/1000,127,80.0
16150,D5,469.875,31/250,102,80.0
16151,D6,469.875,31/250,102,80.0
16152,D4,469.875,0.125,127,80.0
16153,A3,469.875,0.125,127,80.0
16154,B-1,470.0,3.0,127,80.0
16155,B4,470.0,0.75,106,80.0
16156,B-4,470.0,0.75,106,80.0
16157,C#4,470.0,0.75,106,80.0
16158,F#4,470.0,2.0,127,80.0
16159,B-3,470.0,2.0,127,80.0
16160,B-2,470.0,2.0,127,80.0
16161,B3,470.0,0.5,127,80.0
16162,A3,470.0,0.5,127,80.0
16163,B1,470.0,0.5,127,80.0
16164,D4,470.0,0.125,127,80.0
16165,A3,470.0,0.125,127,80.0
16166,D4,470.125,0.125,127,80.0
16167,A3,470.125,0.125,127,80.0
16168,D4,470.25,0.125,127,80.0
16169,A3,470.25,0.125,127,80.0
16170,D4,470.375,0.125,127,80.0
16171,A3,470.375,0.125,127,80.0
16172,B3,470.5,0.5,127,80.0
16173,D4,470.5,0.125,127,80.0
16174,A3,470.5,0.125,127,80.0
16175,D4,470.625,0.125,127,80.0
16176,A3,470.625,0.125,127,80.0
16177,B4,470.75,0.125,127,80.0
16178,C#4,470.75,1.25,127,80.0
16179,B4,470.75,0.125,127,80.0
16180,B4,470.75,0.125,127,80.0
16181,B5,470.75,0.125,127,80.0
16182,B5,470.75,0.125,127,80.0
16183,D4,470.75,0.125,127,80.0
16184,A3,470.75,0.125,127,80.0
16185,C#5,470.875,0.125,102,80.0
16186,C#5,470.875,0.125,102,80.0
16187,C#5,470.875,0.125,102,80.0
16188,C#6,470.875,0.125,102,80.0
16189,C#6,470.875,0.125,102,80.0
16190,D4,470.875,0.125,127,80.0
16191,A3,470.875,0.125,127,80.0
16192,D5,471.0,0.5,102,80.0
16193,B-4,471.0,1.0,127,80.0
16194,D5,471.0,0.5,102,80.0
16195,B3,471.0,0.5,127,80.0
16196,D5,471.0,0.5,102,80.0
16197,D6,471.0,0.5,102,80.0
16198,D6,471.0,0.5,102,80.0
16199,D4,471.0,0.125,127,80.0
16200,A3,471.0,0.125,127,80.0
16201,D4,471.125,0.125,127,80.0
16202,A3,471.125,0.125,127,80.0
16203,D4,471.25,0.125,127,80.0
16204,A3,471.25,0.125,127,80.0
16205,D4,471.375,0.125,127,80.0
16206,A3,471.375,0.125,127,80.0
16207,B3,471.5,0.25,127,80.0
16208,D4,471.5,0.125,127,80.0
16209,A3,471.5,0.125,127,80.0
16210,D4,471.625,0.125,127,80.0
16211,A3,471.625,0.125,127,80.0
16212,B4,471.75,0.25,127,80.0
16213,B4,471.75,0.25,127,80.0
16214,B1,471.75,0.25,127,80.0
16215,B4,471.75,0.25,127,80.0
16216,B5,471.75,0.25,127,80.0
16217,B5,471.75,0.25,127,80.0
16218,D4,471.75,0.125,127,80.0
16219,A3,471.75,0.125,127,80.0
16220,D4,471.875,31/250,127,80.0
16221,A3,471.875,31/250,127,80.0
16222,C#5,472.0,1.0,102,80.0
16223,C#5,472.0,1.0,102,80.0
16224,C#5,472.0,0.125,102,80.0
16225,C#6,472.0,0.125,102,80.0
16226,C#6,472.0,1.0,102,80.0
16227,B-4,472.0,1.0,127,80.0
16228,F#4,472.0,1.0,127,80.0
16229,B-2,472.0,1.0,127,80.0
16230,C#4,472.0,0.75,127,80.0
16231,B-3,472.0,0.75,127,80.0
16232,B3,472.0,0.5,127,80.0
16233,D2,472.0,0.5,127,80.0
16234,D4,472.0,0.25,127,80.0
16235,A3,472.0,0.25,127,80.0
16236,C#5,472.125,0.125,102,80.0
16237,C#6,472.125,0.125,102,80.0
16238,C#5,472.25,0.125,102,80.0
16239,C#6,472.25,0.125,102,80.0
16240,E-4,472.25,0.25,127,80.0
16241,B-3,472.25,0.25,127,80.0
16242,C#5,472.375,0.125,102,80.0
16243,C#6,472.375,0.125,102,80.0
16244,B3,472.5,0.25,127,80.0
16245,C#5,472.5,0.125,102,80.0
16246,C#6,472.5,0.125,102,80.0
16247,C#5,472.625,0.125,102,80.0
16248,C#6,472.625,0.125,102,80.0
16249,B1,472.75,0.25,127,80.0
16250,C#5,472.75,0.125,102,80.0
16251,C#6,472.75,0.125,102,80.0
16252,C#4,472.75,0.25,127,80.0
16253,B-3,472.75,0.25,127,80.0
16254,C#5,472.875,31/250,102,80.0
16255,C#6,472.875,31/250,102,80.0
16256,F#4,473.0,0.25,127,80.0
16257,B-2,473.0,1.5,127,80.0
16258,B-1,473.0,1.0,127,80.0
16259,E-3,473.0,0.5,127,80.0
16260,D2,473.0,0.5,127,80.0
16261,A4,473.25,0.25,127,80.0
16262,B-3,473.25,0.25,127,80.0
16263,A4,473.25,0.25,127,80.0
16264,A4,473.25,0.25,127,80.0
16265,A5,473.25,0.25,127,80.0
16266,A5,473.25,0.25,127,80.0
16267,F#4,473.5,0.25,127,80.0
16268,C#4,473.5,0.25,127,80.0
16269,F#4,473.5,0.25,127,80.0
16270,F#4,473.5,0.25,127,80.0
16271,F#5,473.5,0.25,127,80.0
16272,F#5,473.5,0.25,127,80.0
16273,E-3,473.5,0.5,127,80.0
16274,D2,473.5,0.5,127,80.0
16275,A4,473.75,0.25,127,80.0
16276,F#4,473.75,0.25,127,80.0
16277,A4,473.75,0.25,127,80.0
16278,A4,473.75,0.25,127,80.0
16279,A5,473.75,0.25,127,80.0
16280,A5,473.75,0.25,127,80.0
16281,E5,474.0,0.75,127,80.0
16282,E5,474.0,0.75,127,80.0
16283,E-3,474.0,0.25,127,80.0
16284,E5,474.0,0.125,127,80.0
16285,E6,474.0,0.125,127,80.0
16286,E6,474.0,0.75,127,80.0
16287,B-4,474.0,0.75,127,80.0
16288,F#4,474.0,0.75,127,80.0
16289,C#4,474.0,0.75,127,80.0
16290,B-3,474.0,0.75,127,80.0
16291,E-4,474.0,0.25,127,80.0
16292,B-3,474.0,0.25,127,80.0
16293,E5,474.125,0.125,127,80.0
16294,E6,474.125,0.125,127,80.0
16295,E5,474.25,0.125,127,80.0
16296,E6,474.25,0.125,127,80.0
16297,C3,474.25,0.25,127,80.0
16298,B2,474.25,0.25,127,80.0
16299,D4,474.25,0.25,127,80.0
16300,A3,474.25,0.25,127,80.0
16301,E5,474.375,0.125,127,80.0
16302,E6,474.375,0.125,127,80.0
16303,B-2,474.5,0.5,127,80.0
16304,F#1,474.5,0.5,127,80.0
16305,E-3,474.5,0.25,127,80.0
16306,E5,474.5,0.125,127,80.0
16307,E6,474.5,0.125,127,80.0
16308,E5,474.625,31/250,127,80.0
16309,E6,474.625,31/250,127,80.0
16310,B-4,474.75,0.125,127,80.0
16311,B-4,474.75,0.125,127,80.0
16312,A2,474.75,0.125,127,80.0
16313,B-4,474.75,0.125,127,80.0
16314,B-5,474.75,0.125,127,80.0
16315,B-5,474.75,0.125,127,80.0
16316,B-4,474.75,0.75,127,80.0
16317,F#4,474.75,0.75,127,80.0
16318,C#4,474.75,0.75,127,80.0
16319,B-3,474.75,0.75,127,80.0
16320,E5,474.875,0.125,127,80.0
16321,E5,474.875,0.125,127,80.0
16322,C3,474.875,0.125,127,80.0
16323,E5,474.875,0.125,127,80.0
16324,E6,474.875,0.125,127,80.0
16325,E6,474.875,0.125,127,80.0
16326,C#5,475.0,1.0,127,80.0
16327,B-2,475.0,0.5,127,80.0
16328,C#5,475.0,1.0,127,80.0
16329,E1,475.0,0.5,127,80.0
16330,F2,475.0,167/1000,127,80.0
16331,C#5,475.0,0.125,127,80.0
16332,C#6,475.0,0.125,127,80.0
16333,C#6,475.0,1.0,127,80.0
16334,D4,475.0,0.25,127,80.0
16335,A3,475.0,0.25,127,80.0
16336,C#5,475.125,0.125,127,80.0
16337,C#6,475.125,0.125,127,80.0
16338,D2,475.167,167/1000,127,80.0
16339,C#5,475.25,0.125,127,80.0
16340,C#6,475.25,0.125,127,80.0
16341,E-4,475.25,0.25,127,80.0
16342,B-3,475.25,0.25,127,80.0
16343,D2,475.333,167/1000,127,80.0
16344,C#5,475.375,0.125,127,80.0
16345,C#6,475.375,0.125,127,80.0
16346,F#1,475.5,0.5,127,80.0
16347,D2,475.5,167/1000,127,80.0
16348,C#5,475.5,0.125,127,80.0
16349,C#6,475.5,0.125,127,80.0
16350,B-4,475.5,0.5,127,80.0
16351,F#4,475.5,0.5,127,80.0
16352,C#4,475.5,0.5,127,80.0
16353,B-3,475.5,0.5,127,80.0
16354,B-2,475.5,0.5,127,80.0
16355,C#5,475.625,0.125,127,80.0
16356,C#6,475.625,0.125,127,80.0
16357,D2,475.667,167/1000,127,80.0
16358,C#5,475.75,0.125,127,80.0
16359,C#6,475.75,0.125,127,80.0
16360,D2,475.833,167/1000,127,80.0
16361,C#5,475.875,31/250,127,80.0
16362,C#6,475.875,31/250,127,80.0
16363,B1,476.0,2.5,127,80.0
16364,B4,476.0,1.0,127,80.0
16365,F#4,476.0,1.0,127,80.0
16366,D4,476.0,1.0,127,80.0
16367,B3,476.0,1.0,127,80.0
16368,B2,476.0,1.0,127,80.0
16369,E-3,476.0,0.5,127,80.0
16370,B1,476.0,0.5,127,80.0
16371,G4,476.0,0.25,127,80.0
16372,D4,476.0,0.25,127,80.0
16373,G3,476.0,0.25,127,80.0
16374,G#4,476.25,0.25,127,80.0
16375,E-4,476.25,0.25,127,80.0
16376,G#3,476.25,0.25,127,80.0
16377,E-3,476.5,0.5,127,80.0
16378,B4,476.75,0.125,127,80.0
16379,B4,476.75,0.125,127,80.0
16380,B4,476.75,0.125,127,80.0
16381,B5,476.75,0.125,127,80.0
16382,B5,476.75,0.125,127,80.0
16383,C#5,476.875,0.125,102,80.0
16384,C#5,476.875,0.125,102,80.0
16385,C#5,476.875,0.125,102,80.0
16386,C#6,476.875,0.125,102,80.0
16387,C#6,476.875,0.125,102,80.0
16388,D5,477.0,0.5,102,80.0
16389,D5,477.0,0.5,102,80.0
16390,E-3,477.0,0.25,127,80.0
16391,D5,477.0,0.5,102,80.0
16392,D6,477.0,0.5,102,80.0
16393,D6,477.0,0.5,102,80.0
16394,B3,477.25,0.25,127,80.0
16395,B2,477.25,0.75,127,80.0
16396,B1,477.25,0.25,127,80.0
16397,E-3,477.5,0.25,127,80.0
16398,D4,477.5,0.25,127,80.0
16399,B3,477.5,0.25,127,80.0
16400,C#5,477.75,0.25,127,80.0
16401,C#5,477.75,0.25,127,80.0
16402,B1,477.75,0.25,127,80.0
16403,C#5,477.75,0.25,127,80.0
16404,C#6,477.75,0.25,127,80.0
16405,C#6,477.75,0.25,127,80.0
16406,D5,478.0,1.0,102,80.0
16407,B2,478.0,0.5,127,80.0
16408,D5,478.0,1.0,102,80.0
16409,D5,478.0,0.125,102,80.0
16410,D6,478.0,0.125,102,80.0
16411,D6,478.0,1.0,102,80.0
16412,B4,478.0,0.75,127,80.0
16413,F#4,478.0,0.75,127,80.0
16414,D4,478.0,0.75,127,80.0
16415,B3,478.0,0.75,127,80.0
16416,F3,478.0,0.25,127,80.0
16417,D2,478.0,0.25,127,80.0
16418,D5,478.125,0.125,102,80.0
16419,D6,478.125,0.125,102,80.0
16420,E-3,478.25,0.25,127,80.0
16421,D5,478.25,0.125,102,80.0
16422,D6,478.25,0.125,102,80.0
16423,D5,478.375,0.125,102,80.0
16424,D6,478.375,0.125,102,80.0
16425,B2,478.5,0.5,127,80.0
16426,F#1,478.5,0.5,127,80.0
16427,E-3,478.5,0.25,127,80.0
16428,D5,478.5,0.125,102,80.0
16429,D6,478.5,0.125,102,80.0
16430,D5,478.625,0.125,102,80.0
16431,D6,478.625,0.125,102,80.0
16432,B3,478.75,0.25,127,80.0
16433,B1,478.75,0.25,127,80.0
16434,D5,478.75,0.125,102,80.0
16435,D6,478.75,0.125,102,80.0
16436,D5,478.875,31/250,102,80.0
16437,D6,478.875,31/250,102,80.0
16438,B1,479.0,1.0,127,80.0
16439,B4,479.0,1.0,127,80.0
16440,F#4,479.0,1.0,127,80.0
16441,D4,479.0,1.0,127,80.0
16442,B3,479.0,1.0,127,80.0
16443,B2,479.0,1.0,127,80.0
16444,E-3,479.0,0.25,127,80.0
16445,B1,479.0,0.25,127,80.0
16446,E-3,479.25,0.25,127,80.0
16447,F3,479.5,0.25,127,80.0
16448,B4,479.75,0.125,127,80.0
16449,B4,479.75,0.125,127,80.0
16450,B1,479.75,0.25,127,80.0
16451,B4,479.75,0.125,127,80.0
16452,B5,479.75,0.125,127,80.0
16453,B5,479.75,0.125,127,80.0
16454,C#5,479.875,0.125,102,80.0
16455,C#5,479.875,0.125,102,80.0
16456,C#5,479.875,0.125,102,80.0
16457,C#6,479.875,0.125,102,80.0
16458,C#6,479.875,0.125,102,80.0
16459,D5,480.0,0.5,102,80.0
16460,D5,480.0,0.5,102,80.0
16461,C#2,480.0,1.0,127,80.0
16462,D5,480.0,0.5,102,80.0
16463,D6,480.0,0.5,102,80.0
16464,D6,480.0,0.5,102,80.0
16465,B4,480.0,1.0,127,80.0
16466,F#4,480.0,1.0,127,80.0
16467,C#4,480.0,1.0,127,80.0
16468,C#3,480.0,1.0,127,80.0
16469,E-3,480.0,0.25,127,80.0
16470,D2,480.0,0.25,127,80.0
16471,G#4,480.0,0.25,127,80.0
16472,E-4,480.0,0.25,127,80.0
16473,G#3,480.0,0.25,127,80.0
16474,E-3,480.25,0.25,127,80.0
16475,G4,480.25,0.25,127,80.0
16476,D4,480.25,0.25,127,80.0
16477,G3,480.25,0.25,127,80.0
16478,F3,480.5,0.25,127,80.0
16479,C#5,480.75,0.25,127,80.0
16480,C#5,480.75,0.25,127,80.0
16481,B1,480.75,0.25,127,80.0
16482,C#5,480.75,0.25,127,80.0
16483,C#6,480.75,0.25,127,80.0
16484,C#6,480.75,0.25,127,80.0
16485,D5,481.0,1.0,102,80.0
16486,D5,481.0,1.0,102,80.0
16487,D2,481.0,1.0,127,80.0
16488,E-3,481.0,0.25,127,80.0
16489,D5,481.0,0.125,102,80.0
16490,D6,481.0,0.125,102,80.0
16491,D6,481.0,1.0,102,80.0
16492,C5,481.0,1.0,114,80.0
16493,B4,481.0,1.0,114,80.0
16494,F#4,481.0,1.0,114,80.0
16495,D4,481.0,1.0,114,80.0
16496,D3,481.0,1.0,114,80.0
16497,D5,481.125,0.125,102,80.0
16498,D6,481.125,0.125,102,80.0
16499,D2,481.25,0.25,127,80.0
16500,D5,481.25,0.125,102,80.0
16501,D6,481.25,0.125,102,80.0
16502,D5,481.375,0.125,102,80.0
16503,D6,481.375,0.125,102,80.0
16504,F3,481.5,0.25,127,80.0
16505,D5,481.5,0.125,102,80.0
16506,D6,481.5,0.125,102,80.0
16507,D5,481.625,0.125,102,80.0
16508,D6,481.625,0.125,102,80.0
16509,D2,481.75,0.25,127,80.0
16510,D5,481.75,0.125,102,80.0
16511,D6,481.75,0.125,102,80.0
16512,D5,481.875,31/250,102,80.0
16513,D6,481.875,31/250,102,80.0
16514,B-1,482.0,3.0,127,80.0
16515,B4,482.0,0.75,106,80.0
16516,B-4,482.0,0.75,106,80.0
16517,C#4,482.0,0.75,106,80.0
16518,F#4,482.0,2.0,127,80.0
16519,B-3,482.0,2.0,127,80.0
16520,B-2,482.0,2.0,127,80.0
16521,E-3,482.0,0.5,127,80.0
16522,C#3,482.0,0.5,127,80.0
16523,B1,482.0,0.5,127,80.0
16524,G4,482.0,0.25,127,80.0
16525,D4,482.0,0.25,127,80.0
16526,G3,482.0,0.25,127,80.0
16527,E-3,482.5,0.5,127,80.0
16528,B4,482.75,0.125,127,80.0
16529,C#4,482.75,1.25,127,80.0
16530,B4,482.75,0.125,127,80.0
16531,B4,482.75,0.125,127,80.0
16532,B5,482.75,0.125,127,80.0
16533,B5,482.75,0.125,127,80.0
16534,C#5,482.875,0.125,102,80.0
16535,C#5,482.875,0.125,102,80.0
16536,C#5,482.875,0.125,102,80.0
16537,C#6,482.875,0.125,102,80.0
16538,C#6,482.875,0.125,102,80.0
16539,D5,483.0,0.5,102,80.0
16540,B-4,483.0,1.0,127,80.0
16541,D5,483.0,0.5,102,80.0
16542,E-3,483.0,0.25,127,80.0
16543,D5,483.0,0.5,102,80.0
16544,D6,483.0,0.5,102,80.0
16545,D6,483.0,0.5,102,80.0
16546,G#4,483.0,0.25,127,80.0
16547,E-4,483.0,0.25,127,80.0
16548,G#3,483.0,0.25,127,80.0
16549,B1,483.25,0.25,127,80.0
16550,E-3,483.5,0.5,127,80.0
16551,D2,483.5,0.5,127,80.0
16552,B4,483.75,0.25,127,80.0
16553,B4,483.75,0.25,127,80.0
16554,B4,483.75,0.25,127,80.0
16555,B5,483.75,0.25,127,80.0
16556,B5,483.75,0.25,127,80.0
16557,C#5,484.0,1.0,102,80.0
16558,C#5,484.0,1.0,102,80.0
16559,E-3,484.0,0.5,127,80.0
16560,C#5,484.0,0.125,102,80.0
16561,C#6,484.0,0.125,102,80.0
16562,C#6,484.0,1.0,102,80.0
16563,B-4,484.0,1.0,127,80.0
16564,F#4,484.0,1.0,127,80.0
16565,B-2,484.0,1.0,127,80.0
16566,C#4,484.0,0.75,127,80.0
16567,B-3,484.0,0.75,127,80.0
16568,D4,484.0,0.125,127,80.0
16569,A3,484.0,0.125,127,80.0
16570,C#5,484.125,0.125,102,80.0
16571,C#6,484.125,0.125,102,80.0
16572,D4,484.125,0.125,127,80.0
16573,A3,484.125,0.125,127,80.0
16574,C#5,484.25,0.125,102,80.0
16575,C#6,484.25,0.125,102,80.0
16576,D4,484.25,0.125,127,80.0
16577,A3,484.25,0.125,127,80.0
16578,C#5,484.375,0.125,102,80.0
16579,C#6,484.375,0.125,102,80.0
16580,D4,484.375,0.125,127,80.0
16581,A3,484.375,0.125,127,80.0
16582,E-3,484.5,0.25,127,80.0
16583,C#5,484.5,0.125,102,80.0
16584,C#6,484.5,0.125,102,80.0
16585,D4,484.5,0.125,127,80.0
16586,A3,484.5,0.125,127,80.0
16587,C#5,484.625,0.125,102,80.0
16588,C#6,484.625,0.125,102,80.0
16589,D4,484.625,0.125,127,80.0
16590,A3,484.625,0.125,127,80.0
16591,B1,484.75,0.25,127,80.0
16592,C#5,484.75,0.125,102,80.0
16593,C#6,484.75,0.125,102,80.0
16594,C#4,484.75,0.25,127,80.0
16595,B-3,484.75,0.25,127,80.0
16596,D4,484.75,0.125,127,80.0
16597,A3,484.75,0.125,127,80.0
16598,C#5,484.875,31/250,102,80.0
16599,C#6,484.875,31/250,102,80.0
16600,D4,484.875,0.125,127,80.0
16601,A3,484.875,0.125,127,80.0
16602,F#4,485.0,0.25,127,80.0
16603,B-2,485.0,1.5,127,80.0
16604,B-1,485.0,1.0,127,80.0
16605,D2,485.0,333/1000,127,80.0
16606,D4,485.0,0.125,127,80.0
16607,A3,485.0,0.125,127,80.0
16608,D4,485.125,0.125,127,80.0
16609,A3,485.125,0.125,127,80.0
16610,A4,485.25,0.25,127,80.0
16611,B-3,485.25,0.25,127,80.0
16612,A4,485.25,0.25,127,80.0
16613,A4,485.25,0.25,127,80.0
16614,A5,485.25,0.25,127,80.0
16615,A5,485.25,0.25,127,80.0
16616,D4,485.25,0.125,127,80.0
16617,A3,485.25,0.125,127,80.0
16618,D2,485.333,333/1000,127,80.0
16619,D4,485.375,0.125,127,80.0
16620,A3,485.375,0.125,127,80.0
16621,F#4,485.5,0.25,127,80.0
16622,C#4,485.5,0.25,127,80.0
16623,F#4,485.5,0.25,127,80.0
16624,F#4,485.5,0.25,127,80.0
16625,F#5,485.5,0.25,127,80.0
16626,F#5,485.5,0.25,127,80.0
16627,D4,485.5,0.125,127,80.0
16628,A3,485.5,0.125,127,80.0
16629,D4,485.625,0.125,127,80.0
16630,A3,485.625,0.125,127,80.0
16631,D2,485.667,167/1000,127,80.0
16632,A4,485.75,0.25,127,80.0
16633,F#4,485.75,0.25,127,80.0
16634,A4,485.75,0.25,127,80.0
16635,A4,485.75,0.25,127,80.0
16636,A5,485.75,0.25,127,80.0
16637,A5,485.75,0.25,127,80.0
16638,D4,485.75,0.125,127,80.0
16639,A3,485.75,0.125,127,80.0
16640,D2,485.833,167/1000,127,80.0
16641,D4,485.875,0.125,127,80.0
16642,A3,485.875,0.125,127,80.0
16643,E5,486.0,0.75,127,80.0
16644,E5,486.0,0.75,127,80.0
16645,D2,486.0,167/1000,127,80.0
16646,E5,486.0,0.125,127,80.0
16647,E6,486.0,0.125,127,80.0
16648,E6,486.0,0.75,127,80.0
16649,B-4,486.0,0.75,127,80.0
16650,F#4,486.0,0.75,127,80.0
16651,C#4,486.0,0.75,127,80.0
16652,B-3,486.0,0.75,127,80.0
16653,D4,486.0,0.125,127,80.0
16654,A3,486.0,0.125,127,80.0
16655,E5,486.125,0.125,127,80.0
16656,E6,486.125,0.125,127,80.0
16657,D4,486.125,0.125,127,80.0
16658,A3,486.125,0.125,127,80.0
16659,D2,486.167,333/1000,127,80.0
16660,E5,486.25,0.125,127,80.0
16661,E6,486.25,0.125,127,80.0
16662,D4,486.25,0.125,127,80.0
16663,A3,486.25,0.125,127,80.0
16664,E5,486.375,0.125,127,80.0
16665,E6,486.375,0.125,127,80.0
16666,D4,486.375,0.125,127,80.0
16667,A3,486.375,0.125,127,80.0
16668,B-2,486.5,0.5,127,80.0
16669,F#1,486.5,0.5,127,80.0
16670,E5,486.5,0.125,127,80.0
16671,E6,486.5,0.125,127,80.0
16672,C#3,486.5,0.5,127,80.0
16673,B1,486.5,0.5,127,80.0
16674,D4,486.5,0.125,127,80.0
16675,A3,486.5,0.125,127,80.0
16676,E5,486.625,31/250,127,80.0
16677,E6,486.625,31/250,127,80.0
16678,D4,486.625,0.125,127,80.0
16679,A3,486.625,0.125,127,80.0
16680,B-4,486.75,0.125,127,80.0
16681,B-4,486.75,0.125,127,80.0
16682,B-4,486.75,0.125,127,80.0
16683,B-5,486.75,0.125,127,80.0
16684,B-5,486.75,0.125,127,80.0
16685,B-4,486.75,0.75,127,80.0
16686,F#4,486.75,0.75,127,80.0
16687,C#4,486.75,0.75,127,80.0
16688,B-3,486.75,0.75,127,80.0
16689,D4,486.75,0.125,127,80.0
16690,A3,486.75,0.125,127,80.0
16691,E5,486.875,0.125,127,80.0
16692,E5,486.875,0.125,127,80.0
16693,E5,486.875,0.125,127,80.0
16694,E6,486.875,0.125,127,80.0
16695,E6,486.875,0.125,127,80.0
16696,D4,486.875,0.125,127,80.0
16697,A3,486.875,0.125,127,80.0
16698,C#5,487.0,1.0,127,80.0
16699,B-2,487.0,0.5,127,80.0
16700,C#5,487.0,1.0,127,80.0
16701,E1,487.0,0.5,127,80.0
16702,C#5,487.0,0.125,127,80.0
16703,C#6,487.0,0.125,127,80.0
16704,C#6,487.0,1.0,127,80.0
16705,C#3,487.0,0.25,127,80.0
16706,B1,487.0,0.25,127,80.0
16707,D4,487.0,0.125,127,80.0
16708,A3,487.0,0.125,127,80.0
16709,C#5,487.125,0.125,127,80.0
16710,C#6,487.125,0.125,127,80.0
16711,D4,487.125,0.125,127,80.0
16712,A3,487.125,0.125,127,80.0
16713,D2,487.25,0.25,127,80.0
16714,C#5,487.25,0.125,127,80.0
16715,C#6,487.25,0.125,127,80.0
16716,D4,487.25,0.125,127,80.0
16717,A3,487.25,0.125,127,80.0
16718,C#5,487.375,0.125,127,80.0
16719,C#6,487.375,0.125,127,80.0
16720,D4,487.375,0.125,127,80.0
16721,A3,487.375,0.125,127,80.0
16722,F#1,487.5,0.5,127,80.0
16723,B3,487.5,0.25,127,80.0
16724,C#5,487.5,0.125,127,80.0
16725,C#6,487.5,0.125,127,80.0
16726,B-4,487.5,0.5,127,80.0
16727,F#4,487.5,0.5,127,80.0
16728,C#4,487.5,0.5,127,80.0
16729,B-3,487.5,0.5,127,80.0
16730,B-2,487.5,0.5,127,80.0
16731,D4,487.5,0.125,127,80.0
16732,A3,487.5,0.125,127,80.0
16733,C#5,487.625,0.125,127,80.0
16734,C#6,487.625,0.125,127,80.0
16735,D4,487.625,0.125,127,80.0
16736,A3,487.625,0.125,127,80.0
16737,D2,487.75,0.25,127,80.0
16738,C#5,487.75,0.125,127,80.0
16739,C#6,487.75,0.125,127,80.0
16740,D4,487.75,0.125,127,80.0
16741,A3,487.75,0.125,127,80.0
16742,C#5,487.875,31/250,127,80.0
16743,C#6,487.875,31/250,127,80.0
16744,D4,487.875,31/250,127,80.0
16745,A3,487.875,31/250,127,80.0
16746,B1,488.0,2.75,127,80.0
16747,B4,488.0,1.0,127,80.0
16748,F#4,488.0,1.0,127,80.0
16749,D4,488.0,1.0,127,80.0
16750,B3,488.0,1.0,127,80.0
16751,B2,488.0,1.0,127,80.0
16752,B3,488.0,0.5,127,80.0
16753,A3,488.0,0.5,127,80.0
16754,B1,488.0,0.5,127,80.0
16755,D4,488.0,0.25,127,80.0
16756,A3,488.0,0.25,127,80.0
16757,E-4,488.25,0.25,127,80.0
16758,B-3,488.25,0.25,127,80.0
16759,B3,488.5,0.5,127,80.0
16760,B4,488.75,0.125,127,80.0
16761,B4,488.75,0.125,127,80.0
16762,B4,488.75,0.125,127,80.0
16763,B5,488.75,0.125,127,80.0
16764,B5,488.75,0.125,127,80.0
16765,C#5,488.875,0.125,102,80.0
16766,C#5,488.875,0.125,102,80.0
16767,C#5,488.875,0.125,102,80.0
16768,C#6,488.875,0.125,102,80.0
16769,C#6,488.875,0.125,102,80.0
16770,D5,489.0,0.5,102,80.0
16771,D5,489.0,0.5,102,80.0
16772,B3,489.0,0.25,127,80.0
16773,D5,489.0,0.5,102,80.0
16774,D6,489.0,0.5,102,80.0
16775,D6,489.0,0.5,102,80.0
16776,B3,489.25,0.25,127,80.0
16777,B2,489.25,0.75,127,80.0
16778,B1,489.25,0.25,127,80.0
16779,D2,489.5,0.25,127,80.0
16780,D4,489.5,0.25,127,80.0
16781,B3,489.5,0.25,127,80.0
16782,C#5,489.75,0.25,127,80.0
16783,C#5,489.75,0.25,127,80.0
16784,F3,489.75,0.25,127,80.0
16785,C#5,489.75,0.25,127,80.0
16786,C#6,489.75,0.25,127,80.0
16787,C#6,489.75,0.25,127,80.0
16788,D5,490.0,1.0,102,80.0
16789,B2,490.0,0.5,127,80.0
16790,D5,490.0,1.0,102,80.0
16791,D5,490.0,0.125,102,80.0
16792,D6,490.0,0.125,102,80.0
16793,D6,490.0,1.0,102,80.0
16794,B4,490.0,0.75,127,80.0
16795,F#4,490.0,0.75,127,80.0
16796,D4,490.0,0.75,127,80.0
16797,B3,490.0,0.75,127,80.0
16798,B3,490.0,0.25,127,80.0
16799,A3,490.0,0.25,127,80.0
16800,E-4,490.0,0.25,127,80.0
16801,B-3,490.0,0.25,127,80.0
16802,D5,490.125,0.125,102,80.0
16803,D6,490.125,0.125,102,80.0
16804,D2,490.25,0.25,127,80.0
16805,D5,490.25,0.125,102,80.0
16806,D6,490.25,0.125,102,80.0
16807,D4,490.25,0.25,127,80.0
16808,A3,490.25,0.25,127,80.0
16809,D5,490.375,0.125,102,80.0
16810,D6,490.375,0.125,102,80.0
16811,B2,490.5,0.5,127,80.0
16812,F3,490.5,0.25,127,80.0
16813,D5,490.5,0.125,102,80.0
16814,D6,490.5,0.125,102,80.0
16815,D5,490.625,0.125,102,80.0
16816,D6,490.625,0.125,102,80.0
16817,B3,490.75,0.25,127,80.0
16818,F#1,490.75,0.25,127,80.0
16819,B3,490.75,0.25,127,80.0
16820,D5,490.75,0.125,102,80.0
16821,D6,490.75,0.125,102,80.0
16822,D5,490.875,31/250,102,80.0
16823,D6,490.875,31/250,102,80.0
16824,B1,491.0,1.0,127,80.0
16825,B4,491.0,1.0,127,80.0
16826,F#4,491.0,1.0,127,80.0
16827,D4,491.0,1.0,127,80.0
16828,B3,491.0,1.0,127,80.0
16829,B2,491.0,1.0,127,80.0
16830,A3,491.0,0.25,127,80.0
16831,C3,491.0,0.25,127,80.0
16832,B2,491.0,0.25,127,80.0
16833,D4,491.0,0.25,127,80.0
16834,A3,491.0,0.25,127,80.0
16835,F3,491.25,0.25,127,80.0
16836,E-4,491.25,0.25,127,80.0
16837,B-3,491.25,0.25,127,80.0
16838,F3,491.5,0.25,127,80.0
16839,B4,491.75,0.125,127,80.0
16840,B4,491.75,0.125,127,80.0
16841,B4,491.75,0.125,127,80.0
16842,B5,491.75,0.125,127,80.0
16843,B5,491.75,0.125,127,80.0
16844,C3,491.75,0.25,127,80.0
16845,B2,491.75,0.25,127,80.0
16846,C#5,491.875,0.125,102,80.0
16847,C#5,491.875,0.125,102,80.0
16848,C#5,491.875,0.125,102,80.0
16849,C#6,491.875,0.125,102,80.0
16850,C#6,491.875,0.125,102,80.0
16851,D5,492.0,0.5,102,80.0
16852,D5,492.0,0.5,102,80.0
16853,C#2,492.0,1.0,127,80.0
16854,D3,492.0,0.125,127,80.0
16855,D5,492.0,0.5,102,80.0
16856,D6,492.0,0.5,102,80.0
16857,D6,492.0,0.5,102,80.0
16858,B4,492.0,1.0,127,80.0
16859,F#4,492.0,1.0,127,80.0
16860,C#4,492.0,1.0,127,80.0
16861,C#3,492.0,1.0,127,80.0
16862,D4,492.0,0.125,127,80.0
16863,B3,492.0,0.125,127,80.0
16864,C3,492.125,0.125,127,80.0
16865,D4,492.125,0.125,127,80.0
16866,B3,492.125,0.125,127,80.0
16867,A2,492.25,0.125,127,80.0
16868,D4,492.25,0.125,127,80.0
16869,B3,492.25,0.125,127,80.0
16870,G2,492.375,0.125,127,80.0
16871,D4,492.375,0.125,127,80.0
16872,B3,492.375,0.125,127,80.0
16873,G2,492.5,167/1000,127,80.0
16874,D2,492.5,167/1000,127,80.0
16875,D4,492.5,0.125,127,80.0
16876,B3,492.5,0.125,127,80.0
16877,D4,492.625,0.125,127,80.0
16878,B3,492.625,0.125,127,80.0
16879,B1,492.667,167/1000,127,80.0
16880,C#5,492.75,0.25,127,80.0
16881,C#5,492.75,0.25,127,80.0
16882,C#5,492.75,0.25,127,80.0
16883,C#6,492.75,0.25,127,80.0
16884,C#6,492.75,0.25,127,80.0
16885,D4,492.75,0.125,127,80.0
16886,B3,492.75,0.125,127,80.0
16887,D2,492.833,167/1000,127,80.0
16888,D4,492.875,0.125,127,80.0
16889,B3,492.875,0.125,127,80.0
16890,D5,493.0,1.0,102,80.0
16891,D5,493.0,1.0,102,80.0
16892,D2,493.0,1.0,127,80.0
16893,D5,493.0,0.125,102,80.0
16894,D6,493.0,0.125,102,80.0
16895,D6,493.0,1.0,102,80.0
16896,C5,493.0,1.0,114,80.0
16897,B4,493.0,1.0,114,80.0
16898,F#4,493.0,1.0,114,80.0
16899,D4,493.0,1.0,114,80.0
16900,D3,493.0,1.0,114,80.0
16901,E-3,493.0,333/1000,127,80.0
16902,C#3,493.0,333/1000,127,80.0
16903,D4,493.0,0.125,127,80.0
16904,B3,493.0,0.125,127,80.0
16905,D5,493.125,0.125,102,80.0
16906,D6,493.125,0.125,102,80.0
16907,D4,493.125,0.125,127,80.0
16908,B3,493.125,0.125,127,80.0
16909,D5,493.25,0.125,102,80.0
16910,D6,493.25,0.125,102,80.0
16911,D4,493.25,0.125,127,80.0
16912,B3,493.25,0.125,127,80.0
16913,E-3,493.333,333/1000,127,80.0
16914,C#3,493.333,333/1000,127,80.0
16915,D5,493.375,0.125,102,80.0
16916,D6,493.375,0.125,102,80.0
16917,D4,493.375,0.125,127,80.0
16918,B3,493.375,0.125,127,80.0
16919,D5,493.5,0.125,102,80.0
16920,D6,493.5,0.125,102,80.0
16921,D4,493.5,0.125,127,80.0
16922,B3,493.5,0.125,127,80.0
16923,D5,493.625,0.125,102,80.0
16924,D6,493.625,0.125,102,80.0
16925,D4,493.625,0.125,127,80.0
16926,B3,493.625,0.125,127,80.0
16927,E-3,493.667,333/1000,127,80.0
16928,C#3,493.667,333/1000,127,80.0
16929,D2,493.667,333/1000,127,80.0
16930,D5,493.75,0.125,102,80.0
16931,D6,493.75,0.125,102,80.0
16932,D4,493.75,0.125,127,80.0
16933,B3,493.75,0.125,127,80.0
16934,D5,493.875,31/250,102,80.0
16935,D6,493.875,31/250,102,80.0
16936,D4,493.875,0.125,127,80.0
16937,B3,493.875,0.125,127,80.0
16938,B-1,494.0,3.0,127,80.0
16939,B4,494.0,0.75,106,80.0
16940,B-4,494.0,0.75,106,80.0
16941,C#4,494.0,0.75,106,80.0
16942,F#4,494.0,2.0,127,80.0
16943,B-3,494.0,2.0,127,80.0
16944,B-2,494.0,2.0,127,80.0
16945,F3,494.0,0.5,127,80.0
16946,C#3,494.0,0.5,127,80.0
16947,B1,494.0,0.5,127,80.0
16948,D4,494.0,0.125,127,80.0
16949,B3,494.0,0.125,127,80.0
16950,D4,494.125,0.125,127,80.0
16951,B3,494.125,0.125,127,80.0
16952,D4,494.25,0.125,127,80.0
16953,B3,494.25,0.125,127,80.0
16954,D4,494.375,0.125,127,80.0
16955,B3,494.375,0.125,127,80.0
16956,F3,494.5,0.25,127,80.0
16957,D4,494.5,0.125,127,80.0
16958,B3,494.5,0.125,127,80.0
16959,D4,494.625,0.125,127,80.0
16960,B3,494.625,0.125,127,80.0
16961,B4,494.75,0.125,127,80.0
16962,C#4,494.75,1.25,127,80.0
16963,B4,494.75,0.125,127,80.0
16964,B1,494.75,0.25,127,80.0
16965,B4,494.75,0.125,127,80.0
16966,B5,494.75,0.125,127,80.0
16967,B5,494.75,0.125,127,80.0
16968,D4,494.75,0.125,127,80.0
16969,B3,494.75,0.125,127,80.0
16970,C#5,494.875,0.125,102,80.0
16971,C#5,494.875,0.125,102,80.0
16972,C#5,494.875,0.125,102,80.0
16973,C#6,494.875,0.125,102,80.0
16974,C#6,494.875,0.125,102,80.0
16975,D4,494.875,0.125,127,80.0
16976,B3,494.875,0.125,127,80.0
16977,D5,495.0,0.5,102,80.0
16978,B-4,495.0,1.0,127,80.0
16979,D5,495.0,0.5,102,80.0
16980,E-3,495.0,0.25,127,80.0
16981,D5,495.0,0.5,102,80.0
16982,D6,495.0,0.5,102,80.0
16983,D6,495.0,0.5,102,80.0
16984,D4,495.0,0.125,127,80.0
16985,B3,495.0,0.125,127,80.0
16986,D4,495.125,0.125,127,80.0
16987,B3,495.125,0.125,127,80.0
16988,B1,495.25,0.25,127,80.0
16989,D4,495.25,0.125,127,80.0
16990,B3,495.25,0.125,127,80.0
16991,D4,495.375,0.125,127,80.0
16992,B3,495.375,0.125,127,80.0
16993,E-3,495.5,0.25,127,80.0
16994,D4,495.5,0.125,127,80.0
16995,B3,495.5,0.125,127,80.0
16996,D4,495.625,0.125,127,80.0
16997,B3,495.625,0.125,127,80.0
16998,B4,495.75,0.25,127,80.0
16999,B4,495.75,0.25,127,80.0
17000,B1,495.75,0.25,127,80.0
17001,B4,495.75,0.25,127,80.0
17002,B5,495.75,0.25,127,80.0
17003,B5,495.75,0.25,127,80.0
17004,D4,495.75,0.125,127,80.0
17005,B3,495.75,0.125,127,80.0
17006,D4,495.875,31/250,127,80.0
17007,B3,495.875,31/250,127,80.0
17008,C#5,496.0,1.0,102,80.0
17009,C#5,496.0,1.0,102,80.0
17010,C#5,496.0,0.125,102,80.0
17011,C#6,496.0,0.125,102,80.0
17012,C#6,496.0,1.0,102,80.0
17013,B-4,496.0,1.0,127,80.0
17014,F#4,496.0,1.0,127,80.0
17015,B-2,496.0,1.0,127,80.0
17016,C#4,496.0,0.75,127,80.0
17017,B-3,496.0,0.75,127,80.0
17018,F3,496.0,0.25,127,80.0
17019,D2,496.0,0.25,127,80.0
17020,E4,496.0,0.125,127,80.0
17021,C#4,496.0,0.125,127,80.0
17022,C#5,496.125,0.125,102,80.0
17023,C#6,496.125,0.125,102,80.0
17024,E4,496.125,0.125,127,80.0
17025,C#4,496.125,0.125,127,80.0
17026,E-3,496.25,0.25,127,80.0
17027,C#5,496.25,0.125,102,80.0
17028,C#6,496.25,0.125,102,80.0
17029,E4,496.25,0.125,127,80.0
17030,C#4,496.25,0.125,127,80.0
17031,C#5,496.375,0.125,102,80.0
17032,C#6,496.375,0.125,102,80.0
17033,E4,496.375,0.125,127,80.0
17034,C#4,496.375,0.125,127,80.0
17035,F3,496.5,0.25,127,80.0
17036,C#5,496.5,0.125,102,80.0
17037,C#6,496.5,0.125,102,80.0
17038,E4,496.5,0.125,127,80.0
17039,C#4,496.5,0.125,127,80.0
17040,C#5,496.625,0.125,102,80.0
17041,C#6,496.625,0.125,102,80.0
17042,E4,496.625,0.125,127,80.0
17043,C#4,496.625,0.125,127,80.0
17044,B1,496.75,0.25,127,80.0
17045,C#5,496.75,0.125,102,80.0
17046,C#6,496.75,0.125,102,80.0
17047,C#4,496.75,0.25,127,80.0
17048,B-3,496.75,0.25,127,80.0
17049,E4,496.75,0.125,127,80.0
17050,C#4,496.75,0.125,127,80.0
17051,C#5,496.875,31/250,102,80.0
17052,C#6,496.875,31/250,102,80.0
17053,E4,496.875,31/250,127,80.0
17054,C#4,496.875,31/250,127,80.0
17055,F#4,497.0,0.25,127,80.0
17056,B-2,497.0,1.5,127,80.0
17057,B-1,497.0,1.0,127,80.0
17058,E-3,497.0,0.25,127,80.0
17059,B1,497.0,0.25,127,80.0
17060,F#4,497.0,0.125,127,80.0
17061,D4,497.0,0.125,127,80.0
17062,F#4,497.125,0.125,127,80.0
17063,D4,497.125,0.125,127,80.0
17064,A4,497.25,0.25,127,80.0
17065,B-3,497.25,0.25,127,80.0
17066,A4,497.25,0.25,127,80.0
17067,E-3,497.25,0.25,127,80.0
17068,A4,497.25,0.25,127,80.0
17069,A5,497.25,0.25,127,80.0
17070,A5,497.25,0.25,127,80.0
17071,F#4,497.25,0.125,127,80.0
17072,D4,497.25,0.125,127,80.0
17073,F#4,497.375,0.125,127,80.0
17074,D4,497.375,0.125,127,80.0
17075,F#4,497.5,0.25,127,80.0
17076,C#4,497.5,0.25,127,80.0
17077,F#4,497.5,0.25,127,80.0
17078,F3,497.5,0.25,127,80.0
17079,F#4,497.5,0.25,127,80.0
17080,F#5,497.5,0.25,127,80.0
17081,F#5,497.5,0.25,127,80.0
17082,F#4,497.5,0.125,127,80.0
17083,D4,497.5,0.125,127,80.0
17084,F#4,497.625,0.125,127,80.0
17085,D4,497.625,0.125,127,80.0
17086,A4,497.75,0.25,127,80.0
17087,F#4,497.75,0.25,127,80.0
17088,A4,497.75,0.25,127,80.0
17089,B1,497.75,0.25,127,80.0
17090,A4,497.75,0.25,127,80.0
17091,A5,497.75,0.25,127,80.0
17092,A5,497.75,0.25,127,80.0
17093,F#4,497.75,0.125,127,80.0
17094,D4,497.75,0.125,127,80.0
17095,F#4,497.875,31/250,127,80.0
17096,D4,497.875,31/250,127,80.0
17097,E5,498.0,0.75,127,80.0
17098,E5,498.0,0.75,127,80.0
17099,E5,498.0,0.125,127,80.0
17100,E6,498.0,0.125,127,80.0
17101,E6,498.0,0.75,127,80.0
17102,B-4,498.0,0.75,127,80.0
17103,F#4,498.0,0.75,127,80.0
17104,C#4,498.0,0.75,127,80.0
17105,B-3,498.0,0.75,127,80.0
17106,E-3,498.0,0.25,127,80.0
17107,D2,498.0,0.25,127,80.0
17108,C#4,498.0,0.125,127,80.0
17109,B-3,498.0,0.125,127,80.0
17110,E5,498.125,0.125,127,80.0
17111,E6,498.125,0.125,127,80.0
17112,C#4,498.125,0.125,127,80.0
17113,B-3,498.125,0.125,127,80.0
17114,E-3,498.25,0.25,127,80.0
17115,E5,498.25,0.125,127,80.0
17116,E6,498.25,0.125,127,80.0
17117,C#4,498.25,0.125,127,80.0
17118,B-3,498.25,0.125,127,80.0
17119,E5,498.375,0.125,127,80.0
17120,E6,498.375,0.125,127,80.0
17121,C#4,498.375,0.125,127,80.0
17122,B-3,498.375,0.125,127,80.0
17123,B-2,498.5,0.5,127,80.0
17124,E-3,498.5,0.25,127,80.0
17125,E5,498.5,0.125,127,80.0
17126,E6,498.5,0.125,127,80.0
17127,C#4,498.5,0.125,127,80.0
17128,B-3,498.5,0.125,127,80.0
17129,E5,498.625,31/250,127,80.0
17130,E6,498.625,31/250,127,80.0
17131,C#4,498.625,0.125,127,80.0
17132,B-3,498.625,0.125,127,80.0
17133,B-4,498.75,0.125,127,80.0
17134,B-4,498.75,0.125,127,80.0
17135,D2,498.75,0.125,127,80.0
17136,B-4,498.75,0.125,127,80.0
17137,B-5,498.75,0.125,127,80.0
17138,B-5,498.75,0.125,127,80.0
17139,B-4,498.75,0.75,127,80.0
17140,F#4,498.75,0.75,127,80.0
17141,C#4,498.75,0.75,127,80.0
17142,B-3,498.75,0.75,127,80.0
17143,C#4,498.75,0.125,127,80.0
17144,B-3,498.75,0.125,127,80.0
17145,E5,498.875,0.125,127,80.0
17146,E5,498.875,0.125,127,80.0
17147,D2,498.875,0.125,127,80.0
17148,E5,498.875,0.125,127,80.0
17149,E6,498.875,0.125,127,80.0
17150,E6,498.875,0.125,127,80.0
17151,C#4,498.875,0.125,127,80.0
17152,B-3,498.875,0.125,127,80.0
17153,C#5,499.0,1.0,127,80.0
17154,B-2,499.0,0.5,127,80.0
17155,C#5,499.0,1.0,127,80.0
17156,D2,499.0,0.25,127,80.0
17157,C#5,499.0,0.125,127,80.0
17158,C#6,499.0,0.125,127,80.0
17159,C#6,499.0,1.0,127,80.0
17160,C#4,499.0,0.125,127,80.0
17161,B-3,499.0,0.125,127,80.0
17162,C#5,499.125,0.125,127,80.0
17163,C#6,499.125,0.125,127,80.0
17164,C#4,499.125,0.125,127,80.0
17165,B-3,499.125,0.125,127,80.0
17166,B2,499.25,0.25,127,80.0
17167,C#5,499.25,0.125,127,80.0
17168,C#6,499.25,0.125,127,80.0
17169,C#4,499.25,0.125,127,80.0
17170,B-3,499.25,0.125,127,80.0
17171,C#5,499.375,0.125,127,80.0
17172,C#6,499.375,0.125,127,80.0
17173,C#4,499.375,0.125,127,80.0
17174,B-3,499.375,0.125,127,80.0
17175,E1,499.5,0.5,127,80.0
17176,C#5,499.5,0.125,127,80.0
17177,C#6,499.5,0.125,127,80.0
17178,B-4,499.5,0.5,127,80.0
17179,F#4,499.5,0.5,127,80.0
17180,C#4,499.5,0.5,127,80.0
17181,B-3,499.5,0.5,127,80.0
17182,B-2,499.5,0.5,127,80.0
17183,G2,499.5,167/1000,127,80.0
17184,F2,499.5,167/1000,127,80.0
17185,C#4,499.5,0.125,127,80.0
17186,B-3,499.5,0.125,127,80.0
17187,C#5,499.625,0.125,127,80.0
17188,C#6,499.625,0.125,127,80.0
17189,C#4,499.625,0.125,127,80.0
17190,B-3,499.625,0.125,127,80.0
17191,G2,499.667,167/1000,127,80.0
17192,F2,499.667,167/1000,127,80.0
17193,C#5,499.75,0.125,127,80.0
17194,C#6,499.75,0.125,127,80.0
17195,C#4,499.75,0.125,127,80.0
17196,B-3,499.75,0.125,127,80.0
17197,D2,499.833,167/1000,127,80.0
17198,C#5,499.875,31/250,127,80.0
17199,C#6,499.875,31/250,127,80.0
17200,C#4,499.875,0.125,127,80.0
17201,B-3,499.875,0.125,127,80.0
17202,B1,500.0,1.5,127,80.0
17203,B4,500.0,1.0,127,80.0
17204,F#4,500.0,1.0,127,80.0
17205,D4,500.0,1.0,127,80.0
17206,B3,500.0,1.0,127,80.0
17207,B2,500.0,1.0,127,80.0
17208,E-3,500.0,0.5,127,80.0
17209,E3,500.0,0.5,127,80.0
17210,B1,500.0,0.5,127,80.0
17211,C#4,500.0,0.125,127,80.0
17212,B-3,500.0,0.125,127,80.0
17213,C#4,500.125,0.125,127,80.0
17214,B-3,500.125,0.125,127,80.0
17215,C#4,500.25,0.125,127,80.0
17216,B-3,500.25,0.125,127,80.0
17217,C#4,500.375,0.125,127,80.0
17218,B-3,500.375,0.125,127,80.0
17219,E-3,500.5,0.25,127,80.0
17220,C#4,500.5,0.125,127,80.0
17221,B-3,500.5,0.125,127,80.0
17222,C#4,500.625,0.125,127,80.0
17223,B-3,500.625,0.125,127,80.0
17224,B4,500.75,0.125,127,80.0
17225,B4,500.75,0.125,127,80.0
17226,B1,500.75,0.25,127,80.0
17227,B4,500.75,0.125,127,80.0
17228,B5,500.75,0.125,127,80.0
17229,B5,500.75,0.125,127,80.0
17230,C#4,500.75,0.125,127,80.0
17231,B-3,500.75,0.125,127,80.0
17232,C#5,500.875,0.125,102,80.0
17233,C#5,500.875,0.125,102,80.0
17234,C#5,500.875,0.125,102,80.0
17235,C#6,500.875,0.125,102,80.0
17236,C#6,500.875,0.125,102,80.0
17237,C#4,500.875,0.125,127,80.0
17238,B-3,500.875,0.125,127,80.0
17239,D5,501.0,0.5,102,80.0
17240,D5,501.0,0.5,102,80.0
17241,E-3,501.0,0.25,127,80.0
17242,D5,501.0,0.5,102,80.0
17243,D6,501.0,0.5,102,80.0
17244,D6,501.0,0.5,102,80.0
17245,C#4,501.0,0.125,127,80.0
17246,B-3,501.0,0.125,127,80.0
17247,C#4,501.125,0.125,127,80.0
17248,B-3,501.125,0.125,127,80.0
17249,B3,501.25,0.25,127,80.0
17250,B2,501.25,0.75,127,80.0
17251,B1,501.25,0.25,127,80.0
17252,C#4,501.25,0.125,127,80.0
17253,B-3,501.25,0.125,127,80.0
17254,C#4,501.375,0.125,127,80.0
17255,B-3,501.375,0.125,127,80.0
17256,F#2,501.5,0.25,127,80.0
17257,E-3,501.5,0.25,127,80.0
17258,D4,501.5,0.25,127,80.0
17259,B3,501.5,0.25,127,80.0
17260,C#4,501.5,0.125,127,80.0
17261,B-3,501.5,0.125,127,80.0
17262,C#4,501.625,0.125,127,80.0
17263,B-3,501.625,0.125,127,80.0
17264,C#5,501.75,0.25,127,80.0
17265,C#5,501.75,0.25,127,80.0
17266,E2,501.75,0.25,127,80.0
17267,B1,501.75,0.25,127,80.0
17268,C#5,501.75,0.25,127,80.0
17269,C#6,501.75,0.25,127,80.0
17270,C#6,501.75,0.25,127,80.0
17271,C#4,501.75,0.125,127,80.0
17272,B-3,501.75,0.125,127,80.0
17273,C#4,501.875,0.125,127,80.0
17274,B-3,501.875,0.125,127,80.0
17275,D5,502.0,1.0,102,80.0
17276,B2,502.0,0.5,127,80.0
17277,D5,502.0,1.0,102,80.0
17278,D2,502.0,0.25,127,80.0
17279,D5,502.0,0.125,102,80.0
17280,D6,502.0,0.125,102,80.0
17281,D6,502.0,1.0,102,80.0
17282,B4,502.0,0.75,127,80.0
17283,F#4,502.0,0.75,127,80.0
17284,D4,502.0,0.75,127,80.0
17285,B3,502.0,0.75,127,80.0
17286,F3,502.0,0.25,127,80.0
17287,D2,502.0,0.25,127,80.0
17288,C#4,502.0,0.125,127,80.0
17289,B-3,502.0,0.125,127,80.0
17290,D5,502.125,0.125,102,80.0
17291,D6,502.125,0.125,102,80.0
17292,C#4,502.125,0.125,127,80.0
17293,B-3,502.125,0.125,127,80.0
17294,B1,502.25,0.25,127,80.0
17295,E-3,502.25,0.25,127,80.0
17296,D5,502.25,0.125,102,80.0
17297,D6,502.25,0.125,102,80.0
17298,C#4,502.25,0.125,127,80.0
17299,B-3,502.25,0.125,127,80.0
17300,D5,502.375,0.125,102,80.0
17301,D6,502.375,0.125,102,80.0
17302,C#4,502.375,0.125,127,80.0
17303,B-3,502.375,0.125,127,80.0
17304,B2,502.5,0.5,127,80.0
17305,G1,502.5,0.25,127,80.0
17306,E-3,502.5,0.25,127,80.0
17307,D5,502.5,0.125,102,80.0
17308,D6,502.5,0.125,102,80.0
17309,C#4,502.5,0.125,127,80.0
17310,B-3,502.5,0.125,127,80.0
17311,D5,502.625,0.125,102,80.0
17312,D6,502.625,0.125,102,80.0
17313,C#4,502.625,0.125,127,80.0
17314,B-3,502.625,0.125,127,80.0
17315,B3,502.75,0.25,127,80.0
17316,B-1,502.75,0.25,127,80.0
17317,B1,502.75,0.25,127,80.0
17318,D5,502.75,0.125,102,80.0
17319,D6,502.75,0.125,102,80.0
17320,C#4,502.75,0.125,127,80.0
17321,B-3,502.75,0.125,127,80.0
17322,D5,502.875,31/250,102,80.0
17323,D6,502.875,31/250,102,80.0
17324,C#4,502.875,0.125,127,80.0
17325,B-3,502.875,0.125,127,80.0
17326,B1,503.0,1.0,127,80.0
17327,B4,503.0,1.0,127,80.0
17328,F#4,503.0,1.0,127,80.0
17329,D4,503.0,1.0,127,80.0
17330,B3,503.0,1.0,127,80.0
17331,B2,503.0,1.0,127,80.0
17332,E-3,503.0,0.25,127,80.0
17333,B1,503.0,0.25,127,80.0
17334,C#4,503.0,0.125,127,80.0
17335,B-3,503.0,0.125,127,80.0
17336,C#4,503.125,0.125,127,80.0
17337,B-3,503.125,0.125,127,80.0
17338,E-3,503.25,0.25,127,80.0
17339,C#4,503.25,0.125,127,80.0
17340,B-3,503.25,0.125,127,80.0
17341,C#4,503.375,0.125,127,80.0
17342,B-3,503.375,0.125,127,80.0
17343,F3,503.5,0.25,127,80.0
17344,C#4,503.5,0.125,127,80.0
17345,B-3,503.5,0.125,127,80.0
17346,C#4,503.625,0.125,127,80.0
17347,B-3,503.625,0.125,127,80.0
17348,B4,503.75,0.125,127,80.0
17349,B4,503.75,0.125,127,80.0
17350,B1,503.75,0.25,127,80.0
17351,B4,503.75,0.125,127,80.0
17352,B5,503.75,0.125,127,80.0
17353,B5,503.75,0.125,127,80.0
17354,C#4,503.75,0.125,127,80.0
17355,B-3,503.75,0.125,127,80.0
17356,C#5,503.875,0.125,102,80.0
17357,C#5,503.875,0.125,102,80.0
17358,C#5,503.875,0.125,102,80.0
17359,C#6,503.875,0.125,102,80.0
17360,C#6,503.875,0.125,102,80.0
17361,C#4,503.875,31/250,127,80.0
17362,B-3,503.875,31/250,127,80.0
17363,D5,504.0,0.5,102,80.0
17364,D5,504.0,0.5,102,80.0
17365,C#2,504.0,1.0,127,80.0
17366,D5,504.0,0.5,102,80.0
17367,D6,504.0,0.5,102,80.0
17368,D6,504.0,0.5,102,80.0
17369,B4,504.0,1.0,127,80.0
17370,F#4,504.0,1.0,127,80.0
17371,C#4,504.0,1.0,127,80.0
17372,C#3,504.0,1.0,127,80.0
17373,E-3,504.0,0.25,127,80.0
17374,D2,504.0,0.25,127,80.0
17375,D4,504.0,0.125,127,80.0
17376,B3,504.0,0.125,127,80.0
17377,D4,504.125,0.125,127,80.0
17378,B3,504.125,0.125,127,80.0
17379,E-3,504.25,0.25,127,80.0
17380,D4,504.25,0.125,127,80.0
17381,B3,504.25,0.125,127,80.0
17382,D4,504.375,0.125,127,80.0
17383,B3,504.375,0.125,127,80.0
17384,B3,504.5,0.25,127,80.0
17385,D4,504.5,0.125,127,80.0
17386,B3,504.5,0.125,127,80.0
17387,D4,504.625,0.125,127,80.0
17388,B3,504.625,0.125,127,80.0
17389,C#5,504.75,0.25,127,80.0
17390,C#5,504.75,0.25,127,80.0
17391,B1,504.75,0.25,127,80.0
17392,C#5,504.75,0.25,127,80.0
17393,C#6,504.75,0.25,127,80.0
17394,C#6,504.75,0.25,127,80.0
17395,D4,504.75,0.125,127,80.0
17396,B3,504.75,0.125,127,80.0
17397,D4,504.875,0.125,127,80.0
17398,B3,504.875,0.125,127,80.0
17399,D5,505.0,1.0,102,80.0
17400,D5,505.0,1.0,102,80.0
17401,D2,505.0,1.0,127,80.0
17402,E-3,505.0,0.25,127,80.0
17403,D5,505.0,0.125,102,80.0
17404,D6,505.0,0.125,102,80.0
17405,D6,505.0,1.0,102,80.0
17406,C5,505.0,1.0,114,80.0
17407,B4,505.0,1.0,114,80.0
17408,F#4,505.0,1.0,114,80.0
17409,D4,505.0,1.0,114,80.0
17410,D3,505.0,1.0,114,80.0
17411,D4,505.0,0.125,127,80.0
17412,B3,505.0,0.125,127,80.0
17413,D5,505.125,0.125,102,80.0
17414,D6,505.125,0.125,102,80.0
17415,D4,505.125,0.125,127,80.0
17416,B3,505.125,0.125,127,80.0
17417,E-3,505.25,0.25,127,80.0
17418,D5,505.25,0.125,102,80.0
17419,D6,505.25,0.125,102,80.0
17420,D4,505.25,0.125,127,80.0
17421,B3,505.25,0.125,127,80.0
17422,D5,505.375,0.125,102,80.0
17423,D6,505.375,0.125,102,80.0
17424,D4,505.375,0.125,127,80.0
17425,B3,505.375,0.125,127,80.0
17426,B3,505.5,0.25,127,80.0
17427,D5,505.5,0.125,102,80.0
17428,D6,505.5,0.125,102,80.0
17429,D4,505.5,0.125,127,80.0
17430,B3,505.5,0.125,127,80.0
17431,D5,505.625,0.125,102,80.0
17432,D6,505.625,0.125,102,80.0
17433,D4,505.625,0.125,127,80.0
17434,B3,505.625,0.125,127,80.0
17435,D5,505.75,0.125,102,80.0
17436,D6,505.75,0.125,102,80.0
17437,E-3,505.75,0.25,127,80.0
17438,B1,505.75,0.25,127,80.0
17439,D4,505.75,0.125,127,80.0
17440,B3,505.75,0.125,127,80.0
17441,D5,505.875,31/250,102,80.0
17442,D6,505.875,31/250,102,80.0
17443,D4,505.875,0.125,127,80.0
17444,B3,505.875,0.125,127,80.0
17445,B-1,506.0,3.0,127,80.0
17446,B4,506.0,0.75,106,80.0
17447,B-4,506.0,0.75,106,80.0
17448,C#4,506.0,0.75,106,80.0
17449,F#4,506.0,2.0,127,80.0
17450,B-3,506.0,2.0,127,80.0
17451,B-2,506.0,2.0,127,80.0
17452,B3,506.0,0.5,127,80.0
17453,A3,506.0,0.5,127,80.0
17454,B1,506.0,0.5,127,80.0
17455,D4,506.0,0.125,127,80.0
17456,B3,506.0,0.125,127,80.0
17457,D4,506.125,0.125,127,80.0
17458,B3,506.125,0.125,127,80.0
17459,D4,506.25,0.125,127,80.0
17460,B3,506.25,0.125,127,80.0
17461,D4,506.375,0.125,127,80.0
17462,B3,506.375,0.125,127,80.0
17463,B3,506.5,0.25,127,80.0
17464,D4,506.5,0.125,127,80.0
17465,B3,506.5,0.125,127,80.0
17466,D4,506.625,0.125,127,80.0
17467,B3,506.625,0.125,127,80.0
17468,B4,506.75,0.125,127,80.0
17469,C#4,506.75,1.25,127,80.0
17470,B4,506.75,0.125,127,80.0
17471,B1,506.75,0.25,127,80.0
17472,B4,506.75,0.125,127,80.0
17473,B5,506.75,0.125,127,80.0
17474,B5,506.75,0.125,127,80.0
17475,D4,506.75,0.125,127,80.0
17476,B3,506.75,0.125,127,80.0
17477,C#5,506.875,0.125,102,80.0
17478,C#5,506.875,0.125,102,80.0
17479,C#5,506.875,0.125,102,80.0
17480,C#6,506.875,0.125,102,80.0
17481,C#6,506.875,0.125,102,80.0
17482,D4,506.875,0.125,127,80.0
17483,B3,506.875,0.125,127,80.0
17484,D5,507.0,0.5,102,80.0
17485,B-4,507.0,1.0,127,80.0
17486,D5,507.0,0.5,102,80.0
17487,B3,507.0,0.5,127,80.0
17488,D5,507.0,0.5,102,80.0
17489,D6,507.0,0.5,102,80.0
17490,D6,507.0,0.5,102,80.0
17491,D4,507.0,0.125,127,80.0
17492,B3,507.0,0.125,127,80.0
17493,D4,507.125,0.125,127,80.0
17494,B3,507.125,0.125,127,80.0
17495,D4,507.25,0.125,127,80.0
17496,B3,507.25,0.125,127,80.0
17497,D4,507.375,0.125,127,80.0
17498,B3,507.375,0.125,127,80.0
17499,B3,507.5,0.5,127,80.0
17500,D4,507.5,0.125,127,80.0
17501,B3,507.5,0.125,127,80.0
17502,D4,507.625,0.125,127,80.0
17503,B3,507.625,0.125,127,80.0
17504,B4,507.75,0.25,127,80.0
17505,B4,507.75,0.25,127,80.0
17506,B4,507.75,0.25,127,80.0
17507,B5,507.75,0.25,127,80.0
17508,B5,507.75,0.25,127,80.0
17509,D4,507.75,0.125,127,80.0
17510,B3,507.75,0.125,127,80.0
17511,D4,507.875,31/250,127,80.0
17512,B3,507.875,31/250,127,80.0
17513,C#5,508.0,1.0,102,80.0
17514,C#5,508.0,1.0,102,80.0
17515,C#5,508.0,0.125,102,80.0
17516,C#6,508.0,0.125,102,80.0
17517,C#6,508.0,1.0,102,80.0
17518,B-4,508.0,1.0,127,80.0
17519,F#4,508.0,1.0,127,80.0
17520,B-2,508.0,1.0,127,80.0
17521,C#4,508.0,0.75,127,80.0
17522,B-3,508.0,0.75,127,80.0
17523,F3,508.0,0.5,127,80.0
17524,D2,508.0,0.5,127,80.0
17525,E4,508.0,0.125,127,80.0
17526,C#4,508.0,0.125,127,80.0
17527,C#5,508.125,0.125,102,80.0
17528,C#6,508.125,0.125,102,80.0
17529,E4,508.125,0.125,127,80.0
17530,C#4,508.125,0.125,127,80.0
17531,C#5,508.25,0.125,102,80.0
17532,C#6,508.25,0.125,102,80.0
17533,E4,508.25,0.125,127,80.0
17534,C#4,508.25,0.125,127,80.0
17535,C#5,508.375,0.125,102,80.0
17536,C#6,508.375,0.125,102,80.0
17537,E4,508.375,0.125,127,80.0
17538,C#4,508.375,0.125,127,80.0
17539,F3,508.5,0.25,127,80.0
17540,C#5,508.5,0.125,102,80.0
17541,C#6,508.5,0.125,102,80.0
17542,E4,508.5,0.125,127,80.0
17543,C#4,508.5,0.125,127,80.0
17544,C#5,508.625,0.125,102,80.0
17545,C#6,508.625,0.125,102,80.0
17546,E4,508.625,0.125,127,80.0
17547,C#4,508.625,0.125,127,80.0
17548,B1,508.75,0.25,127,80.0
17549,C#5,508.75,0.125,102,80.0
17550,C#6,508.75,0.125,102,80.0
17551,C#4,508.75,0.25,127,80.0
17552,B-3,508.75,0.25,127,80.0
17553,E4,508.75,0.125,127,80.0
17554,C#4,508.75,0.125,127,80.0
17555,C#5,508.875,31/250,102,80.0
17556,C#6,508.875,31/250,102,80.0
17557,E4,508.875,31/250,127,80.0
17558,C#4,508.875,31/250,127,80.0
17559,F#4,509.0,0.25,127,80.0
17560,B-2,509.0,1.5,127,80.0
17561,B-1,509.0,1.0,127,80.0
17562,B3,509.0,333/1000,127,80.0
17563,A3,509.0,333/1000,127,80.0
17564,F#4,509.0,0.125,127,80.0
17565,D4,509.0,0.125,127,80.0
17566,F#4,509.125,0.125,127,80.0
17567,D4,509.125,0.125,127,80.0
17568,A4,509.25,0.25,127,80.0
17569,B-3,509.25,0.25,127,80.0
17570,A4,509.25,0.25,127,80.0
17571,A4,509.25,0.25,127,80.0
17572,A5,509.25,0.25,127,80.0
17573,A5,509.25,0.25,127,80.0
17574,F#4,509.25,0.125,127,80.0
17575,D4,509.25,0.125,127,80.0
17576,F3,509.333,333/1000,127,80.0
17577,B1,509.333,333/1000,127,80.0
17578,F#4,509.375,0.125,127,80.0
17579,D4,509.375,0.125,127,80.0
17580,F#4,509.5,0.25,127,80.0
17581,C#4,509.5,0.25,127,80.0
17582,F#4,509.5,0.25,127,80.0
17583,F#4,509.5,0.25,127,80.0
17584,F#5,509.5,0.25,127,80.0
17585,F#5,509.5,0.25,127,80.0
17586,F#4,509.5,0.125,127,80.0
17587,D4,509.5,0.125,127,80.0
17588,F#4,509.625,0.125,127,80.0
17589,D4,509.625,0.125,127,80.0
17590,B3,509.667,333/1000,127,80.0
17591,A3,509.667,333/1000,127,80.0
17592,B1,509.667,333/1000,127,80.0
17593,A4,509.75,0.25,127,80.0
17594,F#4,509.75,0.25,127,80.0
17595,A4,509.75,0.25,127,80.0
17596,A4,509.75,0.25,127,80.0
17597,A5,509.75,0.25,127,80.0
17598,A5,509.75,0.25,127,80.0
17599,F#4,509.75,0.125,127,80.0
17600,D4,509.75,0.125,127,80.0
17601,F#4,509.875,31/250,127,80.0
17602,D4,509.875,31/250,127,80.0
17603,E5,510.0,0.75,127,80.0
17604,E5,510.0,0.75,127,80.0
17605,E5,510.0,0.125,127,80.0
17606,E6,510.0,0.125,127,80.0
17607,E6,510.0,0.75,127,80.0
17608,B-4,510.0,0.75,127,80.0
17609,F#4,510.0,0.75,127,80.0
17610,C#4,510.0,0.75,127,80.0
17611,B-3,510.0,0.75,127,80.0
17612,B3,510.0,0.5,127,80.0
17613,A3,510.0,0.5,127,80.0
17614,B1,510.0,0.5,127,80.0
17615,C#4,510.0,0.125,127,80.0
17616,B-3,510.0,0.125,127,80.0
17617,E5,510.125,0.125,127,80.0
17618,E6,510.125,0.125,127,80.0
17619,C#4,510.125,0.125,127,80.0
17620,B-3,510.125,0.125,127,80.0
17621,E5,510.25,0.125,127,80.0
17622,E6,510.25,0.125,127,80.0
17623,C#4,510.25,0.125,127,80.0
17624,B-3,510.25,0.125,127,80.0
17625,E5,510.375,0.125,127,80.0
17626,E6,510.375,0.125,127,80.0
17627,C#4,510.375,0.125,127,80.0
17628,B-3,510.375,0.125,127,80.0
17629,B-2,510.5,0.5,127,80.0
17630,F#1,510.5,0.5,127,80.0
17631,F3,510.5,0.375,127,80.0
17632,E5,510.5,0.125,127,80.0
17633,E6,510.5,0.125,127,80.0
17634,C#4,510.5,0.125,127,80.0
17635,B-3,510.5,0.125,127,80.0
17636,E5,510.625,31/250,127,80.0
17637,E6,510.625,31/250,127,80.0
17638,C#4,510.625,0.125,127,80.0
17639,B-3,510.625,0.125,127,80.0
17640,B-4,510.75,0.125,127,80.0
17641,B-4,510.75,0.125,127,80.0
17642,B-4,510.75,0.125,127,80.0
17643,B-5,510.75,0.125,127,80.0
17644,B-5,510.75,0.125,127,80.0
17645,B-4,510.75,0.75,127,80.0
17646,F#4,510.75,0.75,127,80.0
17647,C#4,510.75,0.75,127,80.0
17648,B-3,510.75,0.75,127,80.0
17649,C#4,510.75,0.125,127,80.0
17650,B-3,510.75,0.125,127,80.0
17651,E5,510.875,0.125,127,80.0
17652,E5,510.875,0.125,127,80.0
17653,E5,510.875,0.125,127,80.0
17654,E6,510.875,0.125,127,80.0
17655,E6,510.875,0.125,127,80.0
17656,C3,510.875,0.125,127,80.0
17657,B2,510.875,0.125,127,80.0
17658,C#4,510.875,0.125,127,80.0
17659,B-3,510.875,0.125,127,80.0
17660,C#5,511.0,1.0,127,80.0
17661,B-2,511.0,0.5,127,80.0
17662,C#5,511.0,1.0,127,80.0
17663,E1,511.0,0.5,127,80.0
17664,C3,511.0,0.25,127,80.0
17665,C#5,511.0,0.125,127,80.0
17666,C#6,511.0,0.125,127,80.0
17667,C#6,511.0,1.0,127,80.0
17668,C#4,511.0,0.125,127,80.0
17669,B-3,511.0,0.125,127,80.0
17670,C#5,511.125,0.125,127,80.0
17671,C#6,511.125,0.125,127,80.0
17672,C#4,511.125,0.125,127,80.0
17673,B-3,511.125,0.125,127,80.0
17674,C#5,511.25,0.125,127,80.0
17675,C#6,511.25,0.125,127,80.0
17676,A2,511.25,0.25,127,80.0
17677,G2,511.25,0.25,127,80.0
17678,C#4,511.25,0.125,127,80.0
17679,B-3,511.25,0.125,127,80.0
17680,C#5,511.375,0.125,127,80.0
17681,C#6,511.375,0.125,127,80.0
17682,C#4,511.375,0.125,127,80.0
17683,B-3,511.375,0.125,127,80.0
17684,F#1,511.5,0.5,127,80.0
17685,D2,511.5,167/1000,127,80.0
17686,C#5,511.5,0.125,127,80.0
17687,C#6,511.5,0.125,127,80.0
17688,B-4,511.5,0.5,127,80.0
17689,F#4,511.5,0.5,127,80.0
17690,C#4,511.5,0.5,127,80.0
17691,B-3,511.5,0.5,127,80.0
17692,B-2,511.5,0.5,127,80.0
17693,C#4,511.5,0.125,127,80.0
17694,B-3,511.5,0.125,127,80.0
17695,C#5,511.625,0.125,127,80.0
17696,C#6,511.625,0.125,127,80.0
17697,C#4,511.625,0.125,127,80.0
17698,B-3,511.625,0.125,127,80.0
17699,D2,511.667,167/1000,127,80.0
17700,C#5,511.75,0.125,127,80.0
17701,C#6,511.75,0.125,127,80.0
17702,C#4,511.75,0.125,127,80.0
17703,B-3,511.75,0.125,127,80.0
17704,D2,511.833,167/1000,127,80.0
17705,C#5,511.875,31/250,127,80.0
17706,C#6,511.875,31/250,127,80.0
17707,C#4,511.875,0.125,127,80.0
17708,B-3,511.875,0.125,127,80.0
17709,B1,512.0,3.0,127,80.0
17710,C#3,512.0,0.5,127,80.0
17711,B1,512.0,0.5,127,80.0
17712,C#4,512.0,0.125,127,80.0
17713,B-3,512.0,0.125,127,80.0
17714,C#4,512.125,0.125,127,80.0
17715,B-3,512.125,0.125,127,80.0
17716,C#4,512.25,0.125,127,80.0
17717,B-3,512.25,0.125,127,80.0
17718,C#4,512.375,0.125,127,80.0
17719,B-3,512.375,0.125,127,80.0
17720,F#2,512.5,333/1000,127,80.0
17721,B4,512.5,0.5,127,80.0
17722,B3,512.5,0.5,127,80.0
17723,B4,512.5,0.5,127,80.0
17724,C#4,512.5,0.125,127,80.0
17725,B-3,512.5,0.125,127,80.0
17726,C#4,512.625,0.125,127,80.0
17727,B-3,512.625,0.125,127,80.0
17728,C#4,512.75,0.125,127,80.0
17729,B-3,512.75,0.125,127,80.0
17730,F#2,512.833,167/1000,127,80.0
17731,C#4,512.875,0.125,127,80.0
17732,B-3,512.875,0.125,127,80.0
17733,D2,513.0,0.5,127,80.0
17734,D5,513.0,0.5,127,80.0
17735,D4,513.0,0.5,127,80.0
17736,D5,513.0,0.5,127,80.0
17737,C#4,513.0,0.125,127,80.0
17738,B-3,513.0,0.125,127,80.0
17739,C#4,513.125,0.125,127,80.0
17740,B-3,513.125,0.125,127,80.0
17741,C#4,513.25,0.125,127,80.0
17742,B-3,513.25,0.125,127,80.0
17743,C#4,513.375,0.125,127,80.0
17744,B-3,513.375,0.125,127,80.0
17745,F#2,513.5,333/1000,127,80.0
17746,F5,513.5,0.5,127,80.0
17747,F4,513.5,0.5,127,80.0
17748,F5,513.5,0.5,127,80.0
17749,C#4,513.5,0.125,127,80.0
17750,B-3,513.5,0.125,127,80.0
17751,C#4,513.625,0.125,127,80.0
17752,B-3,513.625,0.125,127,80.0
17753,C#4,513.75,0.125,127,80.0
17754,B-3,513.75,0.125,127,80.0
17755,F#2,513.833,167/1000,127,80.0
17756,C#4,513.875,0.125,127,80.0
17757,B-3,513.875,0.125,127,80.0
17758,C#6,514.0,0.5,127,80.0
17759,C#5,514.0,0.5,127,80.0
17760,C#6,514.0,0.5,127,80.0
17761,C#4,514.0,0.125,127,80.0
17762,B-3,514.0,0.125,127,80.0
17763,C#4,514.125,0.125,127,80.0
17764,B-3,514.125,0.125,127,80.0
17765,C#4,514.25,0.125,127,80.0
17766,B-3,514.25,0.125,127,80.0
17767,B1,514.333,167/1000,127,80.0
17768,C#4,514.375,0.125,127,80.0
17769,B-3,514.375,0.125,127,80.0
17770,F#2,514.5,333/1000,127,80.0
17771,G#5,514.5,0.5,127,80.0
17772,G#4,514.5,0.5,127,80.0
17773,G#5,514.5,0.5,127,80.0
17774,C#4,514.5,0.125,127,80.0
17775,B-3,514.5,0.125,127,80.0
17776,C#4,514.625,0.125,127,80.0
17777,B-3,514.625,0.125,127,80.0
17778,C#4,514.75,0.125,127,80.0
17779,B-3,514.75,0.125,127,80.0
17780,F#2,514.833,167/1000,127,80.0
17781,C#4,514.875,0.125,127,80.0
17782,B-3,514.875,0.125,127,80.0
17783,B1,515.0,3.0,127,80.0
17784,B1,515.0,0.5,127,80.0
17785,B-5,515.0,3.0,127,80.0
17786,B-4,515.0,3.0,127,80.0
17787,B-5,515.0,3.0,127,80.0
17788,C#4,515.0,0.125,127,80.0
17789,B-3,515.0,0.125,127,80.0
17790,C#4,515.125,0.125,127,80.0
17791,B-3,515.125,0.125,127,80.0
17792,C#4,515.25,0.125,127,80.0
17793,B-3,515.25,0.125,127,80.0
17794,C#4,515.375,0.125,127,80.0
17795,B-3,515.375,0.125,127,80.0
17796,F#2,515.5,333/1000,127,80.0
17797,C#4,515.5,0.125,127,80.0
17798,B-3,515.5,0.125,127,80.0
17799,C#4,515.625,0.125,127,80.0
17800,B-3,515.625,0.125,127,80.0
17801,C#4,515.75,0.125,127,80.0
17802,B-3,515.75,0.125,127,80.0
17803,F#2,515.833,167/1000,127,80.0
17804,C#4,515.875,31/250,127,80.0
17805,B-3,515.875,31/250,127,80.0
17806,E5,516.0,1333/1000,127,80.0
17807,E5,516.0,1333/1000,127,80.0
17808,D2,516.0,0.5,127,80.0
17809,E6,516.0,0.125,127,80.0
17810,D4,516.0,0.125,127,80.0
17811,B3,516.0,0.125,127,80.0
17812,E6,516.125,0.125,127,80.0
17813,D4,516.125,0.125,127,80.0
17814,B3,516.125,0.125,127,80.0
17815,E6,516.25,0.125,127,80.0
17816,D4,516.25,0.125,127,80.0
17817,B3,516.25,0.125,127,80.0
17818,E6,516.375,0.125,127,80.0
17819,D4,516.375,0.125,127,80.0
17820,B3,516.375,0.125,127,80.0
17821,F#2,516.5,333/1000,127,80.0
17822,E6,516.5,0.125,127,80.0
17823,D4,516.5,0.125,127,80.0
17824,B3,516.5,0.125,127,80.0
17825,E6,516.625,0.125,127,80.0
17826,D4,516.625,0.125,127,80.0
17827,B3,516.625,0.125,127,80.0
17828,E6,516.75,0.125,127,80.0
17829,D4,516.75,0.125,127,80.0
17830,B3,516.75,0.125,127,80.0
17831,F#2,516.833,167/1000,127,80.0
17832,E6,516.875,31/250,127,80.0
17833,D4,516.875,0.125,127,80.0
17834,B3,516.875,0.125,127,80.0
17835,F#2,517.0,0.5,127,80.0
17836,B1,517.0,0.5,127,80.0
17837,D4,517.0,0.125,127,80.0
17838,B3,517.0,0.125,127,80.0
17839,D4,517.125,0.125,127,80.0
17840,B3,517.125,0.125,127,80.0
17841,D4,517.25,0.125,127,80.0
17842,B3,517.25,0.125,127,80.0
17843,C#5,517.333,333/1000,127,80.0
17844,C#5,517.333,333/1000,127,80.0
17845,C#6,517.333,333/1000,127,80.0
17846,D4,517.375,0.125,127,80.0
17847,B3,517.375,0.125,127,80.0
17848,F#2,517.5,333/1000,127,80.0
17849,D4,517.5,0.125,127,80.0
17850,B3,517.5,0.125,127,80.0
17851,D4,517.625,0.125,127,80.0
17852,B3,517.625,0.125,127,80.0
17853,F4,517.667,333/1000,127,80.0
17854,F4,517.667,333/1000,127,80.0
17855,F5,517.667,333/1000,127,80.0
17856,D4,517.75,0.125,127,80.0
17857,B3,517.75,0.125,127,80.0
17858,F#2,517.833,167/1000,127,80.0
17859,D4,517.875,0.125,127,80.0
17860,B3,517.875,0.125,127,80.0
17861,F5,518.0,0.5,127,80.0
17862,F5,518.0,0.5,127,80.0
17863,B1,518.0,3.0,127,80.0
17864,B1,518.0,0.5,127,80.0
17865,F6,518.0,0.125,127,80.0
17866,D4,518.0,0.125,127,80.0
17867,B3,518.0,0.125,127,80.0
17868,F6,518.125,0.125,127,80.0
17869,D4,518.125,0.125,127,80.0
17870,B3,518.125,0.125,127,80.0
17871,F6,518.25,0.125,127,80.0
17872,D4,518.25,0.125,127,80.0
17873,B3,518.25,0.125,127,80.0
17874,F6,518.375,31/250,127,80.0
17875,D4,518.375,0.125,127,80.0
17876,B3,518.375,0.125,127,80.0
17877,D5,518.5,0.75,127,80.0
17878,D5,518.5,0.75,127,80.0
17879,F#2,518.5,333/1000,127,80.0
17880,B4,518.5,0.5,127,80.0
17881,B3,518.5,0.5,127,80.0
17882,D6,518.5,0.125,127,80.0
17883,B4,518.5,0.5,127,80.0
17884,D4,518.5,0.125,127,80.0
17885,B3,518.5,0.125,127,80.0
17886,D6,518.625,0.125,127,80.0
17887,D4,518.625,0.125,127,80.0
17888,B3,518.625,0.125,127,80.0
17889,D6,518.75,0.125,127,80.0
17890,D4,518.75,0.125,127,80.0
17891,B3,518.75,0.125,127,80.0
17892,F#2,518.833,167/1000,127,80.0
17893,D6,518.875,31/250,127,80.0
17894,D4,518.875,0.125,127,80.0
17895,B3,518.875,0.125,127,80.0
17896,D2,519.0,0.5,127,80.0
17897,D5,519.0,0.5,127,80.0
17898,D4,519.0,0.5,127,80.0
17899,D5,519.0,0.5,127,80.0
17900,D4,519.0,0.125,127,80.0
17901,B3,519.0,0.125,127,80.0
17902,D4,519.125,0.125,127,80.0
17903,B3,519.125,0.125,127,80.0
17904,B4,519.25,0.25,127,80.0
17905,B4,519.25,0.25,127,80.0
17906,B5,519.25,0.25,127,80.0
17907,D4,519.25,0.125,127,80.0
17908,B3,519.25,0.125,127,80.0
17909,D4,519.375,0.125,127,80.0
17910,B3,519.375,0.125,127,80.0
17911,C#5,519.5,0.25,127,80.0
17912,C#5,519.5,0.25,127,80.0
17913,F#2,519.5,333/1000,127,80.0
17914,F5,519.5,0.5,127,80.0
17915,F4,519.5,0.5,127,80.0
17916,C#6,519.5,0.25,127,80.0
17917,F5,519.5,0.5,127,80.0
17918,D4,519.5,0.125,127,80.0
17919,B3,519.5,0.125,127,80.0
17920,D4,519.625,0.125,127,80.0
17921,B3,519.625,0.125,127,80.0
17922,D5,519.75,0.25,127,80.0
17923,D5,519.75,0.25,127,80.0
17924,D6,519.75,0.25,127,80.0
17925,D4,519.75,0.125,127,80.0
17926,B3,519.75,0.125,127,80.0
17927,F#2,519.833,167/1000,127,80.0
17928,D4,519.875,31/250,127,80.0
17929,B3,519.875,31/250,127,80.0
17930,E5,520.0,0.25,127,80.0
17931,E5,520.0,0.25,127,80.0
17932,F#2,520.0,167/1000,127,80.0
17933,C#6,520.0,0.5,127,80.0
17934,C#5,520.0,0.5,127,80.0
17935,E6,520.0,0.25,127,80.0
17936,C#6,520.0,0.5,127,80.0
17937,E4,520.0,0.125,127,80.0
17938,C#4,520.0,0.125,127,80.0
17939,E4,520.125,0.125,127,80.0
17940,C#4,520.125,0.125,127,80.0
17941,D2,520.167,333/1000,127,80.0
17942,F5,520.25,0.25,127,80.0
17943,F5,520.25,0.25,127,80.0
17944,F6,520.25,0.25,127,80.0
17945,E4,520.25,0.125,127,80.0
17946,C#4,520.25,0.125,127,80.0
17947,E4,520.375,0.125,127,80.0
17948,C#4,520.375,0.125,127,80.0
17949,G5,520.5,0.25,127,80.0
17950,G5,520.5,0.25,127,80.0
17951,F#2,520.5,167/1000,127,80.0
17952,G#5,520.5,0.5,127,80.0
17953,G#4,520.5,0.5,127,80.0
17954,G6,520.5,0.25,127,80.0
17955,G#5,520.5,0.5,127,80.0
17956,E4,520.5,0.125,127,80.0
17957,C#4,520.5,0.125,127,80.0
17958,E4,520.625,0.125,127,80.0
17959,C#4,520.625,0.125,127,80.0
17960,D2,520.667,333/1000,127,80.0
17961,A5,520.75,0.25,127,80.0
17962,A5,520.75,0.25,127,80.0
17963,A6,520.75,0.25,127,80.0
17964,E4,520.75,0.125,127,80.0
17965,C#4,520.75,0.125,127,80.0
17966,E4,520.875,31/250,127,80.0
17967,C#4,520.875,31/250,127,80.0
17968,B-5,521.0,0.25,127,80.0
17969,B-5,521.0,0.25,127,80.0
17970,B1,521.0,1.5,127,80.0
17971,B-5,521.0,3.0,127,80.0
17972,B-4,521.0,3.0,127,80.0
17973,B-6,521.0,0.25,127,80.0
17974,B-5,521.0,3.0,127,80.0
17975,B-2,521.0,0.75,127,80.0
17976,B1,521.0,0.75,127,80.0
17977,F#4,521.0,0.125,127,80.0
17978,D4,521.0,0.125,127,80.0
17979,F#4,521.125,0.125,127,80.0
17980,D4,521.125,0.125,127,80.0
17981,F#4,521.25,0.125,127,80.0
17982,D4,521.25,0.125,127,80.0
17983,F#4,521.375,0.125,127,80.0
17984,D4,521.375,0.125,127,80.0
17985,F#4,521.5,0.125,127,80.0
17986,D4,521.5,0.125,127,80.0
17987,F#4,521.625,0.125,127,80.0
17988,D4,521.625,0.125,127,80.0
17989,G#5,521.75,0.125,127,80.0
17990,G#5,521.75,0.125,127,80.0
17991,D2,521.75,0.125,127,80.0
17992,G#6,521.75,0.125,127,80.0
17993,F#4,521.75,0.125,127,80.0
17994,D4,521.75,0.125,127,80.0
17995,E5,521.875,0.125,127,80.0
17996,E5,521.875,0.125,127,80.0
17997,D2,521.875,0.125,127,80.0
17998,E6,521.875,0.125,127,80.0
17999,F#4,521.875,31/250,127,80.0
18000,D4,521.875,31/250,127,80.0
18001,D5,522.0,2.0,127,80.0
18002,D5,522.0,2.0,127,80.0
18003,D6,522.0,0.125,127,80.0
18004,B-2,522.0,1.0,127,80.0
18005,B1,522.0,1.0,127,80.0
18006,C#4,522.0,0.125,127,80.0
18007,B-3,522.0,0.125,127,80.0
18008,D6,522.125,0.125,127,80.0
18009,C#4,522.125,0.125,127,80.0
18010,B-3,522.125,0.125,127,80.0
18011,D6,522.25,0.125,127,80.0
18012,C#4,522.25,0.125,127,80.0
18013,B-3,522.25,0.125,127,80.0
18014,D6,522.375,0.125,127,80.0
18015,C#4,522.375,0.125,127,80.0
18016,B-3,522.375,0.125,127,80.0
18017,F#1,522.5,0.5,127,80.0
18018,D6,522.5,0.125,127,80.0
18019,C#4,522.5,0.125,127,80.0
18020,B-3,522.5,0.125,127,80.0
18021,D6,522.625,0.125,127,80.0
18022,C#4,522.625,0.125,127,80.0
18023,B-3,522.625,0.125,127,80.0
18024,D6,522.75,0.125,127,80.0
18025,C#4,522.75,0.125,127,80.0
18026,B-3,522.75,0.125,127,80.0
18027,D6,522.875,0.125,127,80.0
18028,C#4,522.875,0.125,127,80.0
18029,B-3,522.875,0.125,127,80.0
18030,E1,523.0,0.5,127,80.0
18031,D6,523.0,0.125,127,80.0
18032,B-2,523.0,0.25,127,80.0
18033,B1,523.0,0.25,127,80.0
18034,C#4,523.0,0.125,127,80.0
18035,B-3,523.0,0.125,127,80.0
18036,D6,523.125,0.125,127,80.0
18037,C#4,523.125,0.125,127,80.0
18038,B-3,523.125,0.125,127,80.0
18039,D2,523.25,0.25,127,80.0
18040,D6,523.25,0.125,127,80.0
18041,C#4,523.25,0.125,127,80.0
18042,B-3,523.25,0.125,127,80.0
18043,D6,523.375,0.125,127,80.0
18044,C#4,523.375,0.125,127,80.0
18045,B-3,523.375,0.125,127,80.0
18046,F#1,523.5,0.5,127,80.0
18047,D2,523.5,0.25,127,80.0
18048,D6,523.5,0.125,127,80.0
18049,C#4,523.5,0.125,127,80.0
18050,B-3,523.5,0.125,127,80.0
18051,D6,523.625,0.125,127,80.0
18052,C#4,523.625,0.125,127,80.0
18053,B-3,523.625,0.125,127,80.0
18054,D2,523.75,0.25,127,80.0
18055,D6,523.75,0.125,127,80.0
18056,C#4,523.75,0.125,127,80.0
18057,B-3,523.75,0.125,127,80.0
18058,D6,523.875,0.125,127,80.0
18059,C#4,523.875,0.125,127,80.0
18060,B-3,523.875,0.125,127,80.0
18061,D5,524.0,3.0,127,80.0
18062,D5,524.0,3.0,127,80.0
18063,B1,524.0,3.0,127,80.0
18064,D6,524.0,0.125,127,80.0
18065,C#3,524.0,0.5,127,80.0
18066,B1,524.0,0.5,127,80.0
18067,C#4,524.0,0.125,127,80.0
18068,B-3,524.0,0.125,127,80.0
18069,D6,524.125,0.125,127,80.0
18070,C#4,524.125,0.125,127,80.0
18071,B-3,524.125,0.125,127,80.0
18072,D6,524.25,0.125,127,80.0
18073,C#4,524.25,0.125,127,80.0
18074,B-3,524.25,0.125,127,80.0
18075,D6,524.375,0.125,127,80.0
18076,C#4,524.375,0.125,127,80.0
18077,B-3,524.375,0.125,127,80.0
18078,E-3,524.5,0.5,127,80.0
18079,B4,524.5,0.5,127,80.0
18080,B3,524.5,0.5,127,80.0
18081,D6,524.5,0.125,127,80.0
18082,B4,524.5,0.5,127,80.0
18083,C#4,524.5,0.125,127,80.0
18084,B-3,524.5,0.125,127,80.0
18085,D6,524.625,0.125,127,80.0
18086,C#4,524.625,0.125,127,80.0
18087,B-3,524.625,0.125,127,80.0
18088,D6,524.75,0.125,127,80.0
18089,C#4,524.75,0.125,127,80.0
18090,B-3,524.75,0.125,127,80.0
18091,D6,524.875,0.125,127,80.0
18092,C#4,524.875,0.125,127,80.0
18093,B-3,524.875,0.125,127,80.0
18094,E-3,525.0,0.5,127,80.0
18095,D5,525.0,0.5,127,80.0
18096,D4,525.0,0.5,127,80.0
18097,D6,525.0,0.125,127,80.0
18098,D5,525.0,0.5,127,80.0
18099,C#4,525.0,0.125,127,80.0
18100,B-3,525.0,0.125,127,80.0
18101,D6,525.125,0.125,127,80.0
18102,C#4,525.125,0.125,127,80.0
18103,B-3,525.125,0.125,127,80.0
18104,D6,525.25,0.125,127,80.0
18105,C#4,525.25,0.125,127,80.0
18106,B-3,525.25,0.125,127,80.0
18107,D6,525.375,0.125,127,80.0
18108,C#4,525.375,0.125,127,80.0
18109,B-3,525.375,0.125,127,80.0
18110,E-3,525.5,0.25,127,80.0
18111,F5,525.5,0.5,127,80.0
18112,F4,525.5,0.5,127,80.0
18113,D6,525.5,0.125,127,80.0
18114,F5,525.5,0.5,127,80.0
18115,C#4,525.5,0.125,127,80.0
18116,B-3,525.5,0.125,127,80.0
18117,D6,525.625,0.125,127,80.0
18118,C#4,525.625,0.125,127,80.0
18119,B-3,525.625,0.125,127,80.0
18120,B1,525.75,0.25,127,80.0
18121,D6,525.75,0.125,127,80.0
18122,C#4,525.75,0.125,127,80.0
18123,B-3,525.75,0.125,127,80.0
18124,D6,525.875,0.125,127,80.0
18125,C#4,525.875,0.125,127,80.0
18126,B-3,525.875,0.125,127,80.0
18127,C#6,526.0,0.5,127,80.0
18128,C#5,526.0,0.5,127,80.0
18129,D6,526.0,0.125,127,80.0
18130,C#6,526.0,0.5,127,80.0
18131,E-3,526.0,0.5,127,80.0
18132,D2,526.0,0.5,127,80.0
18133,C#4,526.0,0.125,127,80.0
18134,B-3,526.0,0.125,127,80.0
18135,D6,526.125,0.125,127,80.0
18136,C#4,526.125,0.125,127,80.0
18137,B-3,526.125,0.125,127,80.0
18138,D6,526.25,0.125,127,80.0
18139,C#4,526.25,0.125,127,80.0
18140,B-3,526.25,0.125,127,80.0
18141,D6,526.375,0.125,127,80.0
18142,C#4,526.375,0.125,127,80.0
18143,B-3,526.375,0.125,127,80.0
18144,E-3,526.5,0.25,127,80.0
18145,G#5,526.5,0.5,127,80.0
18146,G#4,526.5,0.5,127,80.0
18147,D6,526.5,0.125,127,80.0
18148,G#5,526.5,0.5,127,80.0
18149,C#4,526.5,0.125,127,80.0
18150,B-3,526.5,0.125,127,80.0
18151,D6,526.625,0.125,127,80.0
18152,C#4,526.625,0.125,127,80.0
18153,B-3,526.625,0.125,127,80.0
18154,B1,526.75,0.25,127,80.0
18155,D6,526.75,0.125,127,80.0
18156,C#4,526.75,0.125,127,80.0
18157,B-3,526.75,0.125,127,80.0
18158,D6,526.875,31/250,127,80.0
18159,C#4,526.875,0.125,127,80.0
18160,B-3,526.875,0.125,127,80.0
18161,B4,527.0,107/250,127,80.0
18162,B4,527.0,107/250,127,80.0
18163,B1,527.0,2333/1000,127,80.0
18164,B-5,527.0,3.0,127,80.0
18165,B-4,527.0,3.0,127,80.0
18166,B5,527.0,107/250,127,80.0
18167,B-5,527.0,3.0,127,80.0
18168,A3,527.0,0.5,127,80.0
18169,B1,527.0,0.5,127,80.0
18170,C#4,527.0,0.125,127,80.0
18171,B-3,527.0,0.125,127,80.0
18172,C#4,527.125,0.125,127,80.0
18173,B-3,527.125,0.125,127,80.0
18174,C#4,527.25,0.125,127,80.0
18175,B-3,527.25,0.125,127,80.0
18176,C#4,527.375,0.125,127,80.0
18177,B-3,527.375,0.125,127,80.0
18178,C#5,527.428,107/250,127,80.0
18179,C#5,527.428,107/250,127,80.0
18180,C#6,527.428,107/250,127,80.0
18181,A3,527.5,0.375,127,80.0
18182,B1,527.5,0.375,127,80.0
18183,C#4,527.5,0.125,127,80.0
18184,B-3,527.5,0.125,127,80.0
18185,C#4,527.625,0.125,127,80.0
18186,B-3,527.625,0.125,127,80.0
18187,C#4,527.75,0.125,127,80.0
18188,B-3,527.75,0.125,127,80.0
18189,D5,527.856,107/250,127,80.0
18190,D5,527.856,107/250,127,80.0
18191,D6,527.856,107/250,127,80.0
18192,F3,527.875,0.375,127,80.0
18193,D2,527.875,0.375,127,80.0
18194,C#4,527.875,31/250,127,80.0
18195,B-3,527.875,31/250,127,80.0
18196,D4,528.0,0.125,127,80.0
18197,B3,528.0,0.125,127,80.0
18198,D4,528.125,0.125,127,80.0
18199,B3,528.125,0.125,127,80.0
18200,F3,528.25,0.5,127,80.0
18201,D4,528.25,0.125,127,80.0
18202,B3,528.25,0.125,127,80.0
18203,E5,528.284,107/250,127,80.0
18204,E5,528.284,107/250,127,80.0
18205,E6,528.284,107/250,127,80.0
18206,D4,528.375,0.125,127,80.0
18207,B3,528.375,0.125,127,80.0
18208,D4,528.5,0.125,127,80.0
18209,B3,528.5,0.125,127,80.0
18210,D4,528.625,0.125,127,80.0
18211,B3,528.625,0.125,127,80.0
18212,F#5,528.712,107/250,127,80.0
18213,F#5,528.712,107/250,127,80.0
18214,F#6,528.712,107/250,127,80.0
18215,F3,528.75,0.25,127,80.0
18216,D4,528.75,0.125,127,80.0
18217,B3,528.75,0.125,127,80.0
18218,D4,528.875,0.125,127,80.0
18219,B3,528.875,0.125,127,80.0
18220,A2,529.0,0.5,127,80.0
18221,D4,529.0,0.125,127,80.0
18222,B3,529.0,0.125,127,80.0
18223,D4,529.125,0.125,127,80.0
18224,B3,529.125,0.125,127,80.0
18225,G#5,529.141,107/250,127,80.0
18226,G#5,529.141,107/250,127,80.0
18227,G#6,529.141,107/250,127,80.0
18228,D4,529.25,0.125,127,80.0
18229,B3,529.25,0.125,127,80.0
18230,F#1,529.333,333/1000,127,80.0
18231,D4,529.375,0.125,127,80.0
18232,B3,529.375,0.125,127,80.0
18233,G2,529.5,0.5,127,80.0
18234,D4,529.5,0.125,127,80.0
18235,B3,529.5,0.125,127,80.0
18236,A5,529.569,107/250,127,80.0
18237,A5,529.569,107/250,127,80.0
18238,A6,529.569,107/250,127,80.0
18239,D4,529.625,0.125,127,80.0
18240,B3,529.625,0.125,127,80.0
18241,A1,529.667,333/1000,127,80.0
18242,D4,529.75,0.125,127,80.0
18243,B3,529.75,0.125,127,80.0
18244,D4,529.875,0.125,127,80.0
18245,B3,529.875,0.125,127,80.0
18246,G5,530.0,1333/1000,127,80.0
18247,G5,530.0,1333/1000,127,80.0
18248,B1,530.0,3.0,127,80.0
18249,G6,530.0,0.125,127,80.0
18250,C#3,530.0,1333/1000,127,80.0
18251,B1,530.0,1333/1000,127,80.0
18252,D4,530.0,0.125,127,80.0
18253,B3,530.0,0.125,127,80.0
18254,G6,530.125,0.125,127,80.0
18255,D4,530.125,0.125,127,80.0
18256,B3,530.125,0.125,127,80.0
18257,G6,530.25,0.125,127,80.0
18258,D4,530.25,0.125,127,80.0
18259,B3,530.25,0.125,127,80.0
18260,G6,530.375,0.125,127,80.0
18261,D4,530.375,0.125,127,80.0
18262,B3,530.375,0.125,127,80.0
18263,B4,530.5,0.5,127,80.0
18264,B3,530.5,0.5,127,80.0
18265,G6,530.5,0.125,127,80.0
18266,B4,530.5,0.5,127,80.0
18267,D4,530.5,0.125,127,80.0
18268,B3,530.5,0.125,127,80.0
18269,G6,530.625,0.125,127,80.0
18270,D4,530.625,0.125,127,80.0
18271,B3,530.625,0.125,127,80.0
18272,G6,530.75,0.125,127,80.0
18273,D4,530.75,0.125,127,80.0
18274,B3,530.75,0.125,127,80.0
18275,G6,530.875,0.125,127,80.0
18276,D4,530.875,0.125,127,80.0
18277,B3,530.875,0.125,127,80.0
18278,D5,531.0,0.5,127,80.0
18279,D4,531.0,0.5,127,80.0
18280,G6,531.0,0.125,127,80.0
18281,D5,531.0,0.5,127,80.0
18282,D4,531.0,0.125,127,80.0
18283,B3,531.0,0.125,127,80.0
18284,G6,531.125,0.125,127,80.0
18285,D4,531.125,0.125,127,80.0
18286,B3,531.125,0.125,127,80.0
18287,G6,531.25,41/500,127,80.0
18288,D4,531.25,0.125,127,80.0
18289,B3,531.25,0.125,127,80.0
18290,G#5,531.333,333/1000,127,80.0
18291,G#5,531.333,333/1000,127,80.0
18292,G#6,531.333,333/1000,127,80.0
18293,E-3,531.333,333/1000,127,80.0
18294,B1,531.333,333/1000,127,80.0
18295,D4,531.375,0.125,127,80.0
18296,B3,531.375,0.125,127,80.0
18297,F5,531.5,0.5,127,80.0
18298,F4,531.5,0.5,127,80.0
18299,F5,531.5,0.5,127,80.0
18300,D4,531.5,0.125,127,80.0
18301,B3,531.5,0.125,127,80.0
18302,D4,531.625,0.125,127,80.0
18303,B3,531.625,0.125,127,80.0
18304,F5,531.667,333/1000,127,80.0
18305,F5,531.667,333/1000,127,80.0
18306,F6,531.667,333/1000,127,80.0
18307,E-3,531.667,333/1000,127,80.0
18308,B1,531.667,333/1000,127,80.0
18309,D4,531.75,0.125,127,80.0
18310,B3,531.75,0.125,127,80.0
18311,D4,531.875,31/250,127,80.0
18312,B3,531.875,31/250,127,80.0
18313,E5,532.0,1.0,127,80.0
18314,E5,532.0,1.0,127,80.0
18315,C#6,532.0,0.5,127,80.0
18316,C#5,532.0,0.5,127,80.0
18317,E6,532.0,0.125,127,80.0
18318,C#6,532.0,0.5,127,80.0
18319,C#3,532.0,0.5,127,80.0
18320,D2,532.0,0.5,127,80.0
18321,E4,532.0,0.125,127,80.0
18322,C#4,532.0,0.125,127,80.0
18323,E6,532.125,0.125,127,80.0
18324,E4,532.125,0.125,127,80.0
18325,C#4,532.125,0.125,127,80.0
18326,E6,532.25,0.125,127,80.0
18327,E4,532.25,0.125,127,80.0
18328,C#4,532.25,0.125,127,80.0
18329,E6,532.375,0.125,127,80.0
18330,E4,532.375,0.125,127,80.0
18331,C#4,532.375,0.125,127,80.0
18332,C#3,532.5,333/1000,127,80.0
18333,G#5,532.5,0.5,127,80.0
18334,G#4,532.5,0.5,127,80.0
18335,E6,532.5,0.125,127,80.0
18336,G#5,532.5,0.5,127,80.0
18337,E4,532.5,0.125,127,80.0
18338,C#4,532.5,0.125,127,80.0
18339,E6,532.625,0.125,127,80.0
18340,E4,532.625,0.125,127,80.0
18341,C#4,532.625,0.125,127,80.0
18342,E6,532.75,0.125,127,80.0
18343,E4,532.75,0.125,127,80.0
18344,C#4,532.75,0.125,127,80.0
18345,D2,532.833,167/1000,127,80.0
18346,E6,532.875,0.125,127,80.0
18347,E4,532.875,31/250,127,80.0
18348,C#4,532.875,31/250,127,80.0
18349,E5,533.0,3.0,127,80.0
18350,E5,533.0,3.0,127,80.0
18351,B1,533.0,3.0,127,80.0
18352,D2,533.0,167/1000,127,80.0
18353,B-5,533.0,3.0,127,80.0
18354,B-4,533.0,3.0,127,80.0
18355,E6,533.0,0.125,127,80.0
18356,B-5,533.0,3.0,127,80.0
18357,F#4,533.0,0.125,127,80.0
18358,D4,533.0,0.125,127,80.0
18359,E6,533.125,0.125,127,80.0
18360,F#4,533.125,0.125,127,80.0
18361,D4,533.125,0.125,127,80.0
18362,D2,533.167,167/1000,127,80.0
18363,E6,533.25,0.125,127,80.0
18364,F#4,533.25,0.125,127,80.0
18365,D4,533.25,0.125,127,80.0
18366,D2,533.333,167/1000,127,80.0
18367,E6,533.375,0.125,127,80.0
18368,F#4,533.375,0.125,127,80.0
18369,D4,533.375,0.125,127,80.0
18370,E6,533.5,0.125,127,80.0
18371,A3,533.5,0.5,127,80.0
18372,B1,533.5,0.5,127,80.0
18373,F#4,533.5,0.125,127,80.0
18374,D4,533.5,0.125,127,80.0
18375,E6,533.625,0.125,127,80.0
18376,F#4,533.625,0.125,127,80.0
18377,D4,533.625,0.125,127,80.0
18378,E6,533.75,0.125,127,80.0
18379,F#4,533.75,0.125,127,80.0
18380,D4,533.75,0.125,127,80.0
18381,E6,533.875,0.125,127,80.0
18382,F#4,533.875,31/250,127,80.0
18383,D4,533.875,31/250,127,80.0
18384,D3,534.0,0.5,127,80.0
18385,E6,534.0,0.125,127,80.0
18386,C#4,534.0,0.125,127,80.0
18387,B-3,534.0,0.125,127,80.0
18388,E6,534.125,0.125,127,80.0
18389,C#4,534.125,0.125,127,80.0
18390,B-3,534.125,0.125,127,80.0
18391,E6,534.25,0.125,127,80.0
18392,C#4,534.25,0.125,127,80.0
18393,B-3,534.25,0.125,127,80.0
18394,E6,534.375,0.125,127,80.0
18395,C#4,534.375,0.125,127,80.0
18396,B-3,534.375,0.125,127,80.0
18397,C3,534.5,0.25,127,80.0
18398,E6,534.5,0.125,127,80.0
18399,C#4,534.5,0.125,127,80.0
18400,B-3,534.5,0.125,127,80.0
18401,E6,534.625,0.125,127,80.0
18402,C#4,534.625,0.125,127,80.0
18403,B-3,534.625,0.125,127,80.0
18404,B2,534.75,0.25,127,80.0
18405,E6,534.75,0.125,127,80.0
18406,C#4,534.75,0.125,127,80.0
18407,B-3,534.75,0.125,127,80.0
18408,E6,534.875,0.125,127,80.0
18409,C#4,534.875,0.125,127,80.0
18410,B-3,534.875,0.125,127,80.0
18411,E6,535.0,0.125,127,80.0
18412,B2,535.0,0.25,127,80.0
18413,A2,535.0,0.25,127,80.0
18414,C#4,535.0,0.125,127,80.0
18415,B-3,535.0,0.125,127,80.0
18416,E6,535.125,0.125,127,80.0
18417,C#4,535.125,0.125,127,80.0
18418,B-3,535.125,0.125,127,80.0
18419,A2,535.25,0.25,127,80.0
18420,E6,535.25,0.125,127,80.0
18421,C#4,535.25,0.125,127,80.0
18422,B-3,535.25,0.125,127,80.0
18423,E6,535.375,0.125,127,80.0
18424,C#4,535.375,0.125,127,80.0
18425,B-3,535.375,0.125,127,80.0
18426,F2,535.5,0.25,127,80.0
18427,E6,535.5,0.125,127,80.0
18428,C#4,535.5,0.125,127,80.0
18429,B-3,535.5,0.125,127,80.0
18430,E6,535.625,0.125,127,80.0
18431,C#4,535.625,0.125,127,80.0
18432,B-3,535.625,0.125,127,80.0
18433,F2,535.75,0.25,127,80.0
18434,E6,535.75,0.125,127,80.0
18435,C#4,535.75,0.125,127,80.0
18436,B-3,535.75,0.125,127,80.0
18437,E6,535.875,31/250,127,80.0
18438,C#4,535.875,0.125,127,80.0
18439,B-3,535.875,0.125,127,80.0
18440,B-1,536.0,3.0,127,80.0
18441,C#3,536.0,0.5,127,80.0
18442,B1,536.0,0.5,127,80.0
18443,C#4,536.0,0.125,127,80.0
18444,B-3,536.0,0.125,127,80.0
18445,C#4,536.125,0.125,127,80.0
18446,B-3,536.125,0.125,127,80.0
18447,C#4,536.25,0.125,127,80.0
18448,B-3,536.25,0.125,127,80.0
18449,C#4,536.375,0.125,127,80.0
18450,B-3,536.375,0.125,127,80.0
18451,E-5,536.5,0.5,127,80.0
18452,E-5,536.5,0.5,127,80.0
18453,E-3,536.5,0.5,127,80.0
18454,B-4,536.5,0.5,127,80.0
18455,B-3,536.5,0.5,127,80.0
18456,E-6,536.5,0.5,127,80.0
18457,B-4,536.5,0.5,127,80.0
18458,C#4,536.5,0.125,127,80.0
18459,B-3,536.5,0.125,127,80.0
18460,C#4,536.625,0.125,127,80.0
18461,B-3,536.625,0.125,127,80.0
18462,C#4,536.75,0.125,127,80.0
18463,B-3,536.75,0.125,127,80.0
18464,C#4,536.875,0.125,127,80.0
18465,B-3,536.875,0.125,127,80.0
18466,C#5,537.0,333/1000,127,80.0
18467,C#5,537.0,333/1000,127,80.0
18468,E-3,537.0,0.5,127,80.0
18469,C#5,537.0,0.5,127,80.0
18470,C#4,537.0,0.5,127,80.0
18471,C#6,537.0,333/1000,127,80.0
18472,C#5,537.0,0.5,127,80.0
18473,C#4,537.0,0.125,127,80.0
18474,B-3,537.0,0.125,127,80.0
18475,C#4,537.125,0.125,127,80.0
18476,B-3,537.125,0.125,127,80.0
18477,C#4,537.25,0.125,127,80.0
18478,B-3,537.25,0.125,127,80.0
18479,C5,537.333,333/1000,127,80.0
18480,C5,537.333,333/1000,127,80.0
18481,C6,537.333,333/1000,127,80.0
18482,C#4,537.375,0.125,127,80.0
18483,B-3,537.375,0.125,127,80.0
18484,E-3,537.5,0.25,127,80.0
18485,G#5,537.5,0.5,127,80.0
18486,G#4,537.5,0.5,127,80.0
18487,G#5,537.5,0.5,127,80.0
18488,C#4,537.5,0.125,127,80.0
18489,B-3,537.5,0.125,127,80.0
18490,C#4,537.625,0.125,127,80.0
18491,B-3,537.625,0.125,127,80.0
18492,B-4,537.667,333/1000,127,80.0
18493,B-4,537.667,333/1000,127,80.0
18494,B-5,537.667,333/1000,127,80.0
18495,B1,537.75,0.25,127,80.0
18496,C#4,537.75,0.125,127,80.0
18497,B-3,537.75,0.125,127,80.0
18498,C#4,537.875,0.125,127,80.0
18499,B-3,537.875,0.125,127,80.0
18500,G#4,538.0,0.5,127,80.0
18501,G#4,538.0,0.5,127,80.0
18502,E-6,538.0,0.5,127,80.0
18503,E-5,538.0,0.5,127,80.0
18504,G#5,538.0,0.5,127,80.0
18505,E-6,538.0,0.5,127,80.0
18506,E-3,538.0,0.5,127,80.0
18507,D2,538.0,0.5,127,80.0
18508,C#4,538.0,0.125,127,80.0
18509,B-3,538.0,0.125,127,80.0
18510,C#4,538.125,0.125,127,80.0
18511,B-3,538.125,0.125,127,80.0
18512,C#4,538.25,0.125,127,80.0
18513,B-3,538.25,0.125,127,80.0
18514,C#4,538.375,0.125,127,80.0
18515,B-3,538.375,0.125,127,80.0
18516,F#4,538.5,0.5,127,80.0
18517,F#4,538.5,0.5,127,80.0
18518,E-3,538.5,0.25,127,80.0
18519,F5,538.5,0.5,127,80.0
18520,F4,538.5,0.5,127,80.0
18521,F#5,538.5,0.5,127,80.0
18522,F5,538.5,0.5,127,80.0
18523,C#4,538.5,0.125,127,80.0
18524,B-3,538.5,0.125,127,80.0
18525,C#4,538.625,0.125,127,80.0
18526,B-3,538.625,0.125,127,80.0
18527,B1,538.75,0.25,127,80.0
18528,C#4,538.75,0.125,127,80.0
18529,B-3,538.75,0.125,127,80.0
18530,C#4,538.875,0.125,127,80.0
18531,B-3,538.875,0.125,127,80.0
18532,F4,539.0,0.5,127,80.0
18533,F4,539.0,0.5,127,80.0
18534,B-1,539.0,2.5,127,80.0
18535,C6,539.0,3.0,127,80.0
18536,C5,539.0,3.0,127,80.0
18537,F5,539.0,0.5,127,80.0
18538,C6,539.0,3.0,127,80.0
18539,E-3,539.0,0.5,127,80.0
18540,B1,539.0,0.5,127,80.0
18541,C#4,539.0,0.125,127,80.0
18542,B-3,539.0,0.125,127,80.0
18543,C#4,539.125,0.125,127,80.0
18544,B-3,539.125,0.125,127,80.0
18545,C#4,539.25,0.125,127,80.0
18546,B-3,539.25,0.125,127,80.0
18547,C#4,539.375,0.125,127,80.0
18548,B-3,539.375,0.125,127,80.0
18549,G4,539.5,0.5,127,80.0
18550,G4,539.5,0.5,127,80.0
18551,G5,539.5,0.5,127,80.0
18552,E-3,539.5,0.5,127,80.0
18553,B1,539.5,0.5,127,80.0
18554,C#4,539.5,0.125,127,80.0
18555,B-3,539.5,0.125,127,80.0
18556,C#4,539.625,0.125,127,80.0
18557,B-3,539.625,0.125,127,80.0
18558,C#4,539.75,0.125,127,80.0
18559,B-3,539.75,0.125,127,80.0
18560,C#4,539.875,31/250,127,80.0
18561,B-3,539.875,31/250,127,80.0
18562,A4,540.0,333/1000,127,80.0
18563,A4,540.0,333/1000,127,80.0
18564,E-3,540.0,0.25,127,80.0
18565,A5,540.0,333/1000,127,80.0
18566,D2,540.25,0.25,127,80.0
18567,B-4,540.333,333/1000,127,80.0
18568,B-4,540.333,333/1000,127,80.0
18569,B-5,540.333,333/1000,127,80.0
18570,E-3,540.5,0.25,127,80.0
18571,C5,540.667,333/1000,127,80.0
18572,C5,540.667,333/1000,127,80.0
18573,C6,540.667,333/1000,127,80.0
18574,F2,540.75,0.25,127,80.0
18575,D2,540.75,0.25,127,80.0
18576,C#5,541.0,0.5,127,80.0
18577,C#5,541.0,0.5,127,80.0
18578,E-3,541.0,0.25,127,80.0
18579,C#6,541.0,0.5,127,80.0
18580,G2,541.25,0.125,127,80.0
18581,A2,541.375,0.125,127,80.0
18582,E-5,541.5,0.5,127,80.0
18583,E-5,541.5,0.5,127,80.0
18584,G#1,541.5,0.5,127,80.0
18585,G2,541.5,0.25,127,80.0
18586,E-6,541.5,0.5,127,80.0
18587,F2,541.75,0.25,127,80.0
18588,E5,542.0,3.0,127,80.0
18589,E5,542.0,3.0,127,80.0
18590,B-1,542.0,3.0,127,80.0
18591,E6,542.0,0.125,127,80.0
18592,C#3,542.0,0.5,127,80.0
18593,B1,542.0,0.5,127,80.0
18594,E6,542.125,0.125,127,80.0
18595,E6,542.25,0.125,127,80.0
18596,E6,542.375,0.125,127,80.0
18597,E-3,542.5,0.5,127,80.0
18598,B-4,542.5,0.5,127,80.0
18599,B-3,542.5,0.5,127,80.0
18600,E6,542.5,0.125,127,80.0
18601,B-4,542.5,0.5,127,80.0
18602,E6,542.625,0.125,127,80.0
18603,E6,542.75,0.125,127,80.0
18604,E6,542.875,0.125,127,80.0
18605,E-3,543.0,0.5,127,80.0
18606,C#5,543.0,0.5,127,80.0
18607,C#4,543.0,0.5,127,80.0
18608,E6,543.0,0.125,127,80.0
18609,C#5,543.0,0.5,127,80.0
18610,E6,543.125,0.125,127,80.0
18611,E6,543.25,0.125,127,80.0
18612,E6,543.375,0.125,127,80.0
18613,E-3,543.5,0.25,127,80.0
18614,G#5,543.5,0.5,127,80.0
18615,G#4,543.5,0.5,127,80.0
18616,E6,543.5,0.125,127,80.0
18617,G#5,543.5,0.5,127,80.0
18618,E6,543.625,0.125,127,80.0
18619,B1,543.75,0.25,127,80.0
18620,E6,543.75,0.125,127,80.0
18621,E6,543.875,0.125,127,80.0
18622,E-6,544.0,0.5,127,80.0
18623,E-5,544.0,0.5,127,80.0
18624,E5,544.0,0.125,127,80.0
18625,E6,544.0,0.125,127,80.0
18626,E-6,544.0,0.5,127,80.0
18627,E-3,544.0,0.5,127,80.0
18628,D2,544.0,0.5,127,80.0
18629,E5,544.125,0.125,127,80.0
18630,E6,544.125,0.125,127,80.0
18631,E5,544.25,0.125,127,80.0
18632,E6,544.25,0.125,127,80.0
18633,E5,544.375,0.125,127,80.0
18634,E6,544.375,0.125,127,80.0
18635,E-3,544.5,0.25,127,80.0
18636,F5,544.5,0.5,127,80.0
18637,F4,544.5,0.5,127,80.0
18638,E5,544.5,0.125,127,80.0
18639,E6,544.5,0.125,127,80.0
18640,F5,544.5,0.5,127,80.0
18641,E5,544.625,0.125,127,80.0
18642,E6,544.625,0.125,127,80.0
18643,B1,544.75,0.25,127,80.0
18644,E5,544.75,0.125,127,80.0
18645,E6,544.75,0.125,127,80.0
18646,E5,544.875,31/250,127,80.0
18647,E6,544.875,31/250,127,80.0
18648,C#5,545.0,2333/1000,127,80.0
18649,C#5,545.0,2333/1000,127,80.0
18650,B-1,545.0,2333/1000,127,80.0
18651,C6,545.0,3.0,127,80.0
18652,C5,545.0,3.0,127,80.0
18653,C#6,545.0,0.125,127,80.0
18654,C6,545.0,3.0,127,80.0
18655,A3,545.0,0.5,127,80.0
18656,B1,545.0,0.5,127,80.0
18657,C#6,545.125,0.125,127,80.0
18658,C#6,545.25,0.125,127,80.0
18659,C#5,545.333,333/1000,127,80.0
18660,C#6,545.375,0.125,127,80.0
18661,B3,545.5,0.5,127,80.0
18662,C#6,545.5,0.125,127,80.0
18663,C#6,545.625,0.125,127,80.0
18664,F4,545.667,333/1000,127,80.0
18665,C#6,545.75,0.125,127,80.0
18666,C#6,545.875,0.125,127,80.0
18667,B3,546.0,0.5,127,80.0
18668,F5,546.0,0.125,127,80.0
18669,C#6,546.0,0.125,127,80.0
18670,F5,546.125,0.125,127,80.0
18671,C#6,546.125,0.125,127,80.0
18672,F5,546.25,0.125,127,80.0
18673,C#6,546.25,0.125,127,80.0
18674,F5,546.375,31/250,127,80.0
18675,C#6,546.375,0.125,127,80.0
18676,B3,546.5,0.25,127,80.0
18677,D5,546.5,0.125,127,80.0
18678,C#6,546.5,0.125,127,80.0
18679,D5,546.625,0.125,127,80.0
18680,C#6,546.625,0.125,127,80.0
18681,B1,546.75,0.25,127,80.0
18682,D5,546.75,0.125,127,80.0
18683,C#6,546.75,0.125,127,80.0
18684,D5,546.875,31/250,127,80.0
18685,C#6,546.875,31/250,127,80.0
18686,D2,547.0,333/1000,127,80.0
18687,B4,547.25,0.25,127,80.0
18688,C5,547.333,333/1000,127,80.0
18689,C5,547.333,333/1000,127,80.0
18690,B-1,547.333,333/1000,127,80.0
18691,C6,547.333,333/1000,127,80.0
18692,A3,547.333,333/1000,127,80.0
18693,D2,547.333,333/1000,127,80.0
18694,C#5,547.5,0.25,127,80.0
18695,B-4,547.667,333/1000,127,80.0
18696,B-4,547.667,333/1000,127,80.0
18697,F1,547.667,333/1000,127,80.0
18698,B-5,547.667,333/1000,127,80.0
18699,C#3,547.667,333/1000,127,80.0
18700,B1,547.667,333/1000,127,80.0
18701,D5,547.75,0.25,127,80.0
18702,C5,548.0,3.0,127,80.0
18703,C5,548.0,3.0,127,80.0
18704,B-1,548.0,3.0,127,80.0
18705,E5,548.0,0.25,127,80.0
18706,C6,548.0,0.125,127,80.0
18707,C#3,548.0,0.5,127,80.0
18708,B1,548.0,0.5,127,80.0
18709,C6,548.125,0.125,127,80.0
18710,F5,548.25,0.25,127,80.0
18711,C6,548.25,0.125,127,80.0
18712,C6,548.375,0.125,127,80.0
18713,E-3,548.5,0.5,127,80.0
18714,B-4,548.5,0.5,127,80.0
18715,B-3,548.5,0.5,127,80.0
18716,G5,548.5,0.25,127,80.0
18717,C6,548.5,0.125,127,80.0
18718,B-4,548.5,0.5,127,80.0
18719,C6,548.625,0.125,127,80.0
18720,A5,548.75,0.25,127,80.0
18721,C6,548.75,0.125,127,80.0
18722,C6,548.875,0.125,127,80.0
18723,E-3,549.0,0.5,127,80.0
18724,C#5,549.0,0.5,127,80.0
18725,C#4,549.0,0.5,127,80.0
18726,B-5,549.0,0.25,127,80.0
18727,C6,549.0,0.125,127,80.0
18728,C#5,549.0,0.5,127,80.0
18729,C6,549.125,0.125,127,80.0
18730,C6,549.25,0.125,127,80.0
18731,C6,549.375,0.125,127,80.0
18732,E-3,549.5,0.25,127,80.0
18733,G#5,549.5,0.5,127,80.0
18734,G#4,549.5,0.5,127,80.0
18735,C6,549.5,0.125,127,80.0
18736,G#5,549.5,0.5,127,80.0
18737,C6,549.625,0.125,127,80.0
18738,B1,549.75,0.25,127,80.0
18739,G#5,549.75,0.125,127,80.0
18740,C6,549.75,0.125,127,80.0
18741,E5,549.875,0.125,127,80.0
18742,C6,549.875,0.125,127,80.0
18743,E-6,550.0,0.5,127,80.0
18744,E-5,550.0,0.5,127,80.0
18745,D5,550.0,0.125,127,80.0
18746,C6,550.0,0.125,127,80.0
18747,E-6,550.0,0.5,127,80.0
18748,E-3,550.0,0.5,127,80.0
18749,D2,550.0,0.5,127,80.0
18750,D5,550.125,0.125,127,80.0
18751,C6,550.125,0.125,127,80.0
18752,D5,550.25,0.125,127,80.0
18753,C6,550.25,0.125,127,80.0
18754,D5,550.375,0.125,127,80.0
18755,C6,550.375,0.125,127,80.0
18756,E-3,550.5,0.5,127,80.0
18757,F5,550.5,0.5,127,80.0
18758,F4,550.5,0.5,127,80.0
18759,D5,550.5,0.125,127,80.0
18760,C6,550.5,0.125,127,80.0
18761,F5,550.5,0.5,127,80.0
18762,D5,550.625,0.125,127,80.0
18763,C6,550.625,0.125,127,80.0
18764,D5,550.75,0.125,127,80.0
18765,C6,550.75,0.125,127,80.0
18766,D5,550.875,0.125,127,80.0
18767,C6,550.875,0.125,127,80.0
18768,C5,551.0,2.25,127,80.0
18769,C5,551.0,2.25,127,80.0
18770,B-1,551.0,2.5,127,80.0
18771,C6,551.0,3.0,127,80.0
18772,C5,551.0,3.0,127,80.0
18773,D5,551.0,0.125,127,80.0
18774,C6,551.0,0.125,127,80.0
18775,C6,551.0,3.0,127,80.0
18776,E-3,551.0,0.5,127,80.0
18777,B1,551.0,0.5,127,80.0
18778,D5,551.125,0.125,127,80.0
18779,C6,551.125,0.125,127,80.0
18780,D5,551.25,0.125,127,80.0
18781,C6,551.25,0.125,127,80.0
18782,D5,551.375,0.125,127,80.0
18783,C6,551.375,0.125,127,80.0
18784,E-3,551.5,0.5,127,80.0
18785,D5,551.5,0.125,127,80.0
18786,C6,551.5,0.125,127,80.0
18787,D5,551.625,0.125,127,80.0
18788,C6,551.625,0.125,127,80.0
18789,D5,551.75,0.125,127,80.0
18790,C6,551.75,0.125,127,80.0
18791,D5,551.875,0.125,127,80.0
18792,C6,551.875,0.125,127,80.0
18793,E-3,552.0,0.5,127,80.0
18794,D5,552.0,0.125,127,80.0
18795,C6,552.0,0.125,127,80.0
18796,D5,552.125,0.125,127,80.0
18797,C6,552.125,0.125,127,80.0
18798,D5,552.25,0.125,127,80.0
18799,C6,552.25,0.125,127,80.0
18800,D5,552.375,0.125,127,80.0
18801,C6,552.375,0.125,127,80.0
18802,E-3,552.5,0.5,127,80.0
18803,D5,552.5,0.125,127,80.0
18804,C6,552.5,0.125,127,80.0
18805,D5,552.625,0.125,127,80.0
18806,C6,552.625,0.125,127,80.0
18807,D5,552.75,0.125,127,80.0
18808,C6,552.75,0.125,127,80.0
18809,D5,552.875,0.125,127,80.0
18810,C6,552.875,0.125,127,80.0
18811,D2,553.0,167/1000,127,80.0
18812,D5,553.0,0.125,127,80.0
18813,C6,553.0,0.125,127,80.0
18814,D5,553.125,0.125,127,80.0
18815,C6,553.125,31/250,127,80.0
18816,E-3,553.167,167/1000,127,80.0
18817,E-5,553.25,0.25,127,80.0
18818,E-5,553.25,0.25,127,80.0
18819,D5,553.25,0.125,127,80.0
18820,E-6,553.25,0.25,127,80.0
18821,D2,553.333,167/1000,127,80.0
18822,D5,553.375,0.125,127,80.0
18823,C#5,553.5,0.25,127,80.0
18824,C#5,553.5,0.25,127,80.0
18825,G#1,553.5,0.5,127,80.0
18826,D2,553.5,167/1000,127,80.0
18827,D5,553.5,0.125,127,80.0
18828,C#6,553.5,0.25,127,80.0
18829,D5,553.625,0.125,127,80.0
18830,D2,553.667,167/1000,127,80.0
18831,A4,553.75,0.25,127,80.0
18832,A4,553.75,0.25,127,80.0
18833,D5,553.75,0.125,127,80.0
18834,A5,553.75,0.25,127,80.0
18835,D2,553.833,167/1000,127,80.0
18836,D5,553.875,0.125,127,80.0
18837,E5,554.0,2.0,127,80.0
18838,E5,554.0,2.0,127,80.0
18839,B-1,554.0,3.0,127,80.0
18840,D5,554.0,0.125,127,80.0
18841,E6,554.0,0.125,127,80.0
18842,E-3,554.0,1.0,127,80.0
18843,C#3,554.0,1.0,127,80.0
18844,B1,554.0,1.0,127,80.0
18845,D5,554.125,0.125,127,80.0
18846,E6,554.125,0.125,127,80.0
18847,D5,554.25,0.125,127,80.0
18848,E6,554.25,0.125,127,80.0
18849,D5,554.375,0.125,127,80.0
18850,E6,554.375,0.125,127,80.0
18851,B-4,554.5,0.5,127,80.0
18852,B-3,554.5,0.5,127,80.0
18853,D5,554.5,0.125,127,80.0
18854,E6,554.5,0.125,127,80.0
18855,B-4,554.5,0.5,127,80.0
18856,D5,554.625,0.125,127,80.0
18857,E6,554.625,0.125,127,80.0
18858,D5,554.75,0.125,127,80.0
18859,E6,554.75,0.125,127,80.0
18860,D5,554.875,31/250,127,80.0
18861,E6,554.875,0.125,127,80.0
18862,E-3,555.0,1.0,127,80.0
18863,C#5,555.0,0.5,127,80.0
18864,C#4,555.0,0.5,127,80.0
18865,B4,555.0,107/250,127,80.0
18866,E6,555.0,0.125,127,80.0
18867,C#5,555.0,0.5,127,80.0
18868,E6,555.125,0.125,127,80.0
18869,E6,555.25,0.125,127,80.0
18870,E6,555.375,0.125,127,80.0
18871,C#5,555.428,107/250,127,80.0
18872,G#5,555.5,0.5,127,80.0
18873,G#4,555.5,0.5,127,80.0
18874,E6,555.5,0.125,127,80.0
18875,G#5,555.5,0.5,127,80.0
18876,E6,555.625,0.125,127,80.0
18877,E6,555.75,0.125,127,80.0
18878,D5,555.856,107/250,127,80.0
18879,E6,555.875,31/250,127,80.0
18880,E-3,556.0,167/1000,127,80.0
18881,E-6,556.0,0.5,127,80.0
18882,E-5,556.0,0.5,127,80.0
18883,E-6,556.0,0.5,127,80.0
18884,D2,556.167,167/1000,127,80.0
18885,F#5,556.2,1/5,127,80.0
18886,F#5,556.2,1/5,127,80.0
18887,F#6,556.2,1/5,127,80.0
18888,E5,556.284,107/250,127,80.0
18889,D2,556.333,167/1000,127,80.0
18890,G#5,556.4,1/5,127,80.0
18891,G#5,556.4,1/5,127,80.0
18892,G#6,556.4,1/5,127,80.0
18893,D2,556.5,167/1000,127,80.0
18894,F5,556.5,0.5,127,80.0
18895,F4,556.5,0.5,127,80.0
18896,F5,556.5,0.5,127,80.0
18897,E-5,556.6,1/5,127,80.0
18898,E-5,556.6,1/5,127,80.0
18899,E-6,556.6,1/5,127,80.0
18900,D2,556.667,167/1000,127,80.0
18901,F#5,556.712,107/250,127,80.0
18902,C#5,556.8,1/5,127,80.0
18903,C#5,556.8,1/5,127,80.0
18904,C#6,556.8,1/5,127,80.0
18905,D2,556.833,167/1000,127,80.0
18906,C5,557.0,333/1000,127,80.0
18907,C5,557.0,333/1000,127,80.0
18908,B-1,557.0,2.0,127,80.0
18909,C6,557.0,3.0,127,80.0
18910,C5,557.0,3.0,127,80.0
18911,C6,557.0,333/1000,127,80.0
18912,C6,557.0,3.0,127,80.0
18913,E-3,557.0,0.75,127,80.0
18914,C#3,557.0,0.75,127,80.0
18915,B1,557.0,0.75,127,80.0
18916,G#5,557.141,107/250,127,80.0
18917,A5,557.569,107/250,127,80.0
18918,C5,557.667,167/1000,127,80.0
18919,C5,557.667,167/1000,127,80.0
18920,C6,557.667,167/1000,127,80.0
18921,B1,557.75,0.125,127,80.0
18922,C#5,557.833,167/1000,102,80.0
18923,C#5,557.833,167/1000,102,80.0
18924,C#6,557.833,167/1000,102,80.0
18925,D2,557.875,0.125,127,80.0
18926,C5,558.0,2.0,102,80.0
18927,C5,558.0,2.0,102,80.0
18928,G5,558.0,0.125,127,80.0
18929,C6,558.0,0.125,102,80.0
18930,A3,558.0,1.0,127,80.0
18931,B1,558.0,1.0,127,80.0
18932,G5,558.125,0.125,127,80.0
18933,C6,558.125,0.125,102,80.0
18934,G5,558.25,0.125,127,80.0
18935,C6,558.25,0.125,102,80.0
18936,G5,558.375,0.125,127,80.0
18937,C6,558.375,0.125,102,80.0
18938,G5,558.5,0.125,127,80.0
18939,C6,558.5,0.125,102,80.0
18940,G5,558.625,0.125,127,80.0
18941,C6,558.625,0.125,102,80.0
18942,G5,558.75,0.125,127,80.0
18943,C6,558.75,0.125,102,80.0
18944,G5,558.875,0.125,127,80.0
18945,C6,558.875,0.125,102,80.0
18946,B-1,559.0,1.0,127,80.0
18947,G5,559.0,0.125,127,80.0
18948,C6,559.0,0.125,102,80.0
18949,G5,559.125,0.125,127,80.0
18950,C6,559.125,0.125,102,80.0
18951,D2,559.25,0.25,127,80.0
18952,G5,559.25,41/500,127,80.0
18953,C6,559.25,0.125,102,80.0
18954,G#5,559.333,333/1000,127,80.0
18955,C6,559.375,0.125,102,80.0
18956,C3,559.5,0.25,127,80.0
18957,C6,559.5,0.125,102,80.0
18958,C6,559.625,0.125,102,80.0
18959,F5,559.667,333/1000,127,80.0
18960,B2,559.75,0.25,127,80.0
18961,C6,559.75,0.125,102,80.0
18962,C6,559.875,0.125,102,80.0
18963,C5,560.0,2.5,102,80.0
18964,C5,560.0,2.5,102,80.0
18965,A1,560.0,3.0,127,80.0
18966,E5,560.0,0.125,127,80.0
18967,C6,560.0,0.125,102,80.0
18968,E-3,560.0,0.5,127,80.0
18969,C#3,560.0,0.5,127,80.0
18970,B1,560.0,0.5,127,80.0
18971,E5,560.125,0.125,127,80.0
18972,C6,560.125,0.125,102,80.0
18973,E5,560.25,0.125,127,80.0
18974,C6,560.25,0.125,102,80.0
18975,E5,560.375,0.125,127,80.0
18976,C6,560.375,0.125,102,80.0
18977,E-3,560.5,0.5,127,80.0
18978,A4,560.5,0.5,127,80.0
18979,A3,560.5,0.5,127,80.0
18980,E5,560.5,0.125,127,80.0
18981,C6,560.5,0.125,102,80.0
18982,A4,560.5,0.5,127,80.0
18983,E5,560.625,0.125,127,80.0
18984,C6,560.625,0.125,102,80.0
18985,E5,560.75,0.125,127,80.0
18986,C6,560.75,0.125,102,80.0
18987,E5,560.875,0.125,127,80.0
18988,C6,560.875,0.125,102,80.0
18989,E-3,561.0,0.5,127,80.0
18990,C5,561.0,0.5,127,80.0
18991,C4,561.0,0.5,127,80.0
18992,E5,561.0,0.125,127,80.0
18993,C6,561.0,0.125,102,80.0
18994,C5,561.0,0.5,127,80.0
18995,E5,561.125,0.125,127,80.0
18996,C6,561.125,0.125,102,80.0
18997,E5,561.25,0.125,127,80.0
18998,C6,561.25,0.125,102,80.0
18999,E5,561.375,0.125,127,80.0
19000,C6,561.375,0.125,102,80.0
19001,E6,561.5,0.5,127,80.0
19002,E5,561.5,0.5,127,80.0
19003,E5,561.5,0.125,127,80.0
19004,C6,561.5,0.125,102,80.0
19005,E6,561.5,0.5,127,80.0
19006,E-3,561.5,0.25,127,80.0
19007,B1,561.5,0.25,127,80.0
19008,E5,561.625,0.125,127,80.0
19009,C6,561.625,0.125,102,80.0
19010,B1,561.75,0.25,127,80.0
19011,E5,561.75,0.125,127,80.0
19012,C6,561.75,0.125,102,80.0
19013,E5,561.875,0.125,127,80.0
19014,C6,561.875,0.125,102,80.0
19015,E-3,562.0,0.5,127,80.0
19016,F5,562.0,0.5,127,80.0
19017,F4,562.0,0.5,127,80.0
19018,E5,562.0,0.125,127,80.0
19019,C6,562.0,0.125,102,80.0
19020,F5,562.0,0.5,127,80.0
19021,E5,562.125,0.125,127,80.0
19022,C6,562.125,0.125,102,80.0
19023,E5,562.25,0.125,127,80.0
19024,C6,562.25,0.125,102,80.0
19025,E5,562.375,0.125,127,80.0
19026,C6,562.375,31/250,102,80.0
19027,B4,562.5,167/1000,127,80.0
19028,B4,562.5,167/1000,127,80.0
19029,B1,562.5,0.25,127,80.0
19030,C6,562.5,0.5,127,80.0
19031,C5,562.5,0.5,127,80.0
19032,E5,562.5,0.125,127,80.0
19033,B5,562.5,167/1000,127,80.0
19034,C6,562.5,0.5,127,80.0
19035,E5,562.625,0.125,127,80.0
19036,B4,562.667,167/1000,127,80.0
19037,B4,562.667,167/1000,127,80.0
19038,B5,562.667,167/1000,127,80.0
19039,E5,562.75,0.125,127,80.0
19040,E-3,562.75,0.25,127,80.0
19041,B1,562.75,0.25,127,80.0
19042,D5,562.833,167/1000,102,80.0
19043,D5,562.833,167/1000,102,80.0
19044,D6,562.833,167/1000,102,80.0
19045,E5,562.875,0.125,127,80.0
19046,A4,563.0,1.5,127,80.0
19047,A4,563.0,1.5,127,80.0
19048,A1,563.0,1.5,127,80.0
19049,B5,563.0,3.0,127,80.0
19050,B4,563.0,3.0,127,80.0
19051,E5,563.0,0.125,127,80.0
19052,A5,563.0,0.125,127,80.0
19053,B5,563.0,3.0,127,80.0
19054,E-3,563.0,0.75,127,80.0
19055,D2,563.0,0.75,127,80.0
19056,E5,563.125,0.125,127,80.0
19057,A5,563.125,0.125,127,80.0
19058,E5,563.25,0.125,127,80.0
19059,A5,563.25,0.125,127,80.0
19060,E5,563.375,0.125,127,80.0
19061,A5,563.375,0.125,127,80.0
19062,E5,563.5,0.125,127,80.0
19063,A5,563.5,0.125,127,80.0
19064,E5,563.625,0.125,127,80.0
19065,A5,563.625,0.125,127,80.0
19066,D2,563.75,0.25,127,80.0
19067,E5,563.75,0.125,127,80.0
19068,A5,563.75,0.125,127,80.0
19069,E5,563.875,31/250,127,80.0
19070,A5,563.875,0.125,127,80.0
19071,E-3,564.0,0.5,127,80.0
19072,A5,564.0,0.125,127,80.0
19073,A5,564.125,0.125,127,80.0
19074,A5,564.25,0.125,127,80.0
19075,A5,564.375,31/250,127,80.0
19076,B4,564.5,1.5,127,80.0
19077,B4,564.5,1.5,127,80.0
19078,B1,564.5,1.5,127,80.0
19079,E-5,564.5,0.5,127,80.0
19080,B5,564.5,0.125,127,80.0
19081,E3,564.5,0.5,127,80.0
19082,D2,564.5,0.5,127,80.0
19083,B5,564.625,0.125,127,80.0
19084,B5,564.75,0.125,127,80.0
19085,B5,564.875,0.125,127,80.0
19086,E-3,565.0,0.5,127,80.0
19087,C#5,565.0,333/1000,127,80.0
19088,B5,565.0,0.125,127,80.0
19089,B5,565.125,0.125,127,80.0
19090,B5,565.25,0.125,127,80.0
19091,C5,565.333,333/1000,127,80.0
19092,B5,565.375,0.125,127,80.0
19093,E-3,565.5,0.5,127,80.0
19094,B5,565.5,0.125,127,80.0
19095,B5,565.625,0.125,127,80.0
19096,B-4,565.667,333/1000,127,80.0
19097,B5,565.75,0.125,127,80.0
19098,B5,565.875,0.125,127,80.0
19099,B4,566.0,3.0,127,80.0
19100,B4,566.0,3.0,127,80.0
19101,A1,566.0,3.0,127,80.0
19102,G#4,566.0,0.5,127,80.0
19103,B5,566.0,0.125,127,80.0
19104,E-3,566.0,0.5,127,80.0
19105,C#3,566.0,0.5,127,80.0
19106,B1,566.0,0.5,127,80.0
19107,B5,566.125,0.125,127,80.0
19108,B5,566.25,0.125,127,80.0
19109,B5,566.375,0.125,127,80.0
19110,E-3,566.5,0.5,127,80.0
19111,A4,566.5,0.5,127,80.0
19112,A3,566.5,0.5,127,80.0
19113,F#4,566.5,0.5,127,80.0
19114,B5,566.5,0.125,127,80.0
19115,A4,566.5,0.5,127,80.0
19116,B5,566.625,0.125,127,80.0
19117,B5,566.75,0.125,127,80.0
19118,B5,566.875,0.125,127,80.0
19119,C5,567.0,0.5,127,80.0
19120,C4,567.0,0.5,127,80.0
19121,F4,567.0,0.5,127,80.0
19122,B5,567.0,0.125,127,80.0
19123,C5,567.0,0.5,127,80.0
19124,E-3,567.0,0.5,127,80.0
19125,B1,567.0,0.5,127,80.0
19126,B5,567.125,0.125,127,80.0
19127,B5,567.25,0.125,127,80.0
19128,B5,567.375,0.125,127,80.0
19129,E-3,567.5,0.5,127,80.0
19130,E6,567.5,0.5,127,80.0
19131,E5,567.5,0.5,127,80.0
19132,G4,567.5,0.5,127,80.0
19133,B5,567.5,0.125,127,80.0
19134,E6,567.5,0.5,127,80.0
19135,B5,567.625,0.125,127,80.0
19136,B5,567.75,0.125,127,80.0
19137,B5,567.875,0.125,127,80.0
19138,E-3,568.0,0.5,127,80.0
19139,F5,568.0,0.5,127,80.0
19140,F4,568.0,0.5,127,80.0
19141,A4,568.0,333/1000,127,80.0
19142,B5,568.0,0.125,127,80.0
19143,F5,568.0,0.5,127,80.0
19144,B5,568.125,0.125,127,80.0
19145,B5,568.25,0.125,127,80.0
19146,B-4,568.333,333/1000,127,80.0
19147,B5,568.375,0.125,127,80.0
19148,E-3,568.5,0.5,127,80.0
19149,C6,568.5,0.5,127,80.0
19150,C5,568.5,0.5,127,80.0
19151,B5,568.5,0.125,127,80.0
19152,C6,568.5,0.5,127,80.0
19153,B5,568.625,0.125,127,80.0
19154,C5,568.667,333/1000,127,80.0
19155,B5,568.75,0.125,127,80.0
19156,B5,568.875,31/250,127,80.0
19157,C5,569.0,0.25,127,80.0
19158,C5,569.0,0.25,127,80.0
19159,A1,569.0,3.0,127,80.0
19160,B5,569.0,3.0,127,80.0
19161,B4,569.0,3.0,127,80.0
19162,C#5,569.0,0.5,127,80.0
19163,C6,569.0,0.25,127,80.0
19164,B5,569.0,3.0,127,80.0
19165,E-3,569.0,0.5,127,80.0
19166,B1,569.0,0.5,127,80.0
19167,B4,569.25,0.25,127,80.0
19168,B4,569.25,0.25,127,80.0
19169,B5,569.25,0.25,127,80.0
19170,B4,569.5,0.25,127,80.0
19171,B4,569.5,0.25,127,80.0
19172,E-5,569.5,0.5,127,80.0
19173,B5,569.5,0.25,127,80.0
19174,E-3,569.5,0.25,127,80.0
19175,B1,569.5,0.25,127,80.0
19176,G4,569.75,0.25,127,80.0
19177,G4,569.75,0.25,127,80.0
19178,B1,569.75,0.25,127,80.0
19179,G5,569.75,0.25,127,80.0
19180,G4,570.0,0.25,127,80.0
19181,G4,570.0,0.25,127,80.0
19182,E5,570.0,0.125,127,80.0
19183,G5,570.0,0.25,127,80.0
19184,E5,570.125,0.125,127,80.0
19185,A4,570.25,0.25,127,80.0
19186,A4,570.25,0.25,127,80.0
19187,B1,570.25,0.25,127,80.0
19188,E5,570.25,0.125,127,80.0
19189,A5,570.25,0.25,127,80.0
19190,E5,570.375,0.125,127,80.0
19191,F4,570.5,0.25,127,80.0
19192,F4,570.5,0.25,127,80.0
19193,E-3,570.5,0.25,127,80.0
19194,E5,570.5,0.125,127,80.0
19195,F5,570.5,0.25,127,80.0
19196,E5,570.625,0.125,127,80.0
19197,E5,570.75,0.25,127,80.0
19198,E5,570.75,0.25,127,80.0
19199,D2,570.75,0.25,127,80.0
19200,E5,570.75,0.125,127,80.0
19201,E6,570.75,0.25,127,80.0
19202,E5,570.875,0.125,127,80.0
19203,D5,571.0,0.25,127,80.0
19204,D5,571.0,0.25,127,80.0
19205,D2,571.0,0.25,127,80.0
19206,E5,571.0,0.125,127,80.0
19207,D6,571.0,0.25,127,80.0
19208,E5,571.125,0.125,127,80.0
19209,A4,571.25,0.25,127,80.0
19210,A4,571.25,0.25,127,80.0
19211,E-3,571.25,0.25,127,80.0
19212,E5,571.25,0.125,127,80.0
19213,A5,571.25,0.25,127,80.0
19214,E5,571.375,0.125,127,80.0
19215,C5,571.5,0.25,127,80.0
19216,C5,571.5,0.25,127,80.0
19217,D2,571.5,0.25,127,80.0
19218,E5,571.5,0.125,127,80.0
19219,C6,571.5,0.25,127,80.0
19220,E5,571.625,0.125,127,80.0
19221,B4,571.75,0.25,127,80.0
19222,B4,571.75,0.25,127,80.0
19223,E-3,571.75,0.25,127,80.0
19224,E5,571.75,0.125,127,80.0
19225,B5,571.75,0.25,127,80.0
19226,E5,571.875,0.125,127,80.0
19227,B4,572.0,1/5,127,80.0
19228,B4,572.0,1/5,127,80.0
19229,A1,572.0,1.0,127,80.0
19230,A2,572.0,1/5,127,80.0
19231,E5,572.0,0.125,127,80.0
19232,B5,572.0,1/5,127,80.0
19233,E5,572.125,0.125,127,80.0
19234,A4,572.2,1/5,127,80.0
19235,A4,572.2,1/5,127,80.0
19236,B2,572.2,1/5,127,80.0
19237,A5,572.2,1/5,127,80.0
19238,E5,572.25,0.125,127,80.0
19239,E5,572.375,0.125,127,80.0
19240,A4,572.4,1/5,127,80.0
19241,A4,572.4,1/5,127,80.0
19242,A2,572.4,1/5,127,80.0
19243,A5,572.4,1/5,127,80.0
19244,A4,572.5,0.5,127,80.0
19245,A3,572.5,0.5,127,80.0
19246,E5,572.5,0.125,127,80.0
19247,A4,572.5,0.5,127,80.0
19248,E4,572.6,1/5,127,80.0
19249,E4,572.6,1/5,127,80.0
19250,B2,572.6,1/5,127,80.0
19251,E5,572.6,1/5,127,80.0
19252,E5,572.625,0.125,127,80.0
19253,E5,572.75,0.125,127,80.0
19254,C5,572.8,1/5,127,80.0
19255,C5,572.8,1/5,127,80.0
19256,G2,572.8,1/5,127,80.0
19257,C6,572.8,1/5,127,80.0
19258,E5,572.875,31/250,127,80.0
19259,B4,573.0,333/1000,127,80.0
19260,B4,573.0,333/1000,127,80.0
19261,A1,573.0,2.0,127,80.0
19262,C5,573.0,0.5,127,80.0
19263,C4,573.0,0.5,127,80.0
19264,C#5,573.0,0.125,127,80.0
19265,B5,573.0,333/1000,127,80.0
19266,C5,573.0,0.5,127,80.0
19267,C#3,573.0,333/1000,127,80.0
19268,F2,573.0,333/1000,127,80.0
19269,C#5,573.125,0.125,127,80.0
19270,C#5,573.25,0.125,127,80.0
19271,C#5,573.375,0.125,127,80.0
19272,E6,573.5,0.5,127,80.0
19273,E5,573.5,0.5,127,80.0
19274,C#5,573.5,0.125,127,80.0
19275,E6,573.5,0.5,127,80.0
19276,C#5,573.625,0.125,127,80.0
19277,B4,573.667,333/1000,127,80.0
19278,B4,573.667,333/1000,127,80.0
19279,B5,573.667,333/1000,127,80.0
19280,C#3,573.667,333/1000,127,80.0
19281,F2,573.667,333/1000,127,80.0
19282,C#5,573.75,0.125,127,80.0
19283,C#5,573.875,0.125,127,80.0
19284,F5,574.0,0.5,127,80.0
19285,F4,574.0,0.5,127,80.0
19286,C#5,574.0,0.125,127,80.0
19287,F5,574.0,0.5,127,80.0
19288,C#5,574.125,0.125,127,80.0
19289,C#5,574.25,0.125,127,80.0
19290,A4,574.333,333/1000,127,80.0
19291,A4,574.333,333/1000,127,80.0
19292,A5,574.333,333/1000,127,80.0
19293,E-3,574.333,333/1000,127,80.0
19294,D2,574.333,333/1000,127,80.0
19295,C#5,574.375,0.125,127,80.0
19296,C6,574.5,0.5,127,80.0
19297,C5,574.5,0.5,127,80.0
19298,C#5,574.5,0.125,127,80.0
19299,C6,574.5,0.5,127,80.0
19300,C#5,574.625,0.125,127,80.0
19301,C#5,574.75,0.125,127,80.0
19302,C#5,574.875,31/250,127,80.0
19303,C5,575.0,333/1000,127,80.0
19304,C5,575.0,333/1000,127,80.0
19305,A1,575.0,0.5,127,80.0
19306,B5,575.0,3.0,127,80.0
19307,B4,575.0,3.0,127,80.0
19308,C6,575.0,333/1000,127,80.0
19309,B5,575.0,3.0,127,80.0
19310,A3,575.0,333/1000,127,80.0
19311,D2,575.0,333/1000,127,80.0
19312,D5,575.333,167/1000,127,80.0
19313,D5,575.333,167/1000,127,80.0
19314,D2,575.333,167/1000,127,80.0
19315,C5,575.333,333/1000,127,80.0
19316,D6,575.333,167/1000,127,80.0
19317,B4,575.5,2.5,127,80.0
19318,B4,575.5,2.5,127,80.0
19319,B1,575.5,1.5,127,80.0
19320,B5,575.5,0.125,127,80.0
19321,A3,575.5,0.5,127,80.0
19322,B1,575.5,0.5,127,80.0
19323,B5,575.625,0.125,127,80.0
19324,B-4,575.667,333/1000,127,80.0
19325,B5,575.75,0.125,127,80.0
19326,B5,575.875,0.125,127,80.0
19327,C5,576.0,0.125,127,80.0
19328,B5,576.0,0.125,127,80.0
19329,C5,576.125,0.125,127,80.0
19330,B5,576.125,0.125,127,80.0
19331,C5,576.25,0.125,127,80.0
19332,B5,576.25,0.125,127,80.0
19333,C5,576.375,0.125,127,80.0
19334,B5,576.375,0.125,127,80.0
19335,B3,576.5,0.5,127,80.0
19336,C5,576.5,0.125,127,80.0
19337,B5,576.5,0.125,127,80.0
19338,C5,576.625,0.125,127,80.0
19339,B5,576.625,0.125,127,80.0
19340,C5,576.75,0.125,127,80.0
19341,B5,576.75,0.125,127,80.0
19342,C5,576.875,0.125,127,80.0
19343,B5,576.875,0.125,127,80.0
19344,D2,577.0,0.5,127,80.0
19345,C5,577.0,0.125,127,80.0
19346,B5,577.0,0.125,127,80.0
19347,C5,577.125,0.125,127,80.0
19348,B5,577.125,0.125,127,80.0
19349,C5,577.25,0.125,127,80.0
19350,B5,577.25,0.125,127,80.0
19351,C5,577.375,0.125,127,80.0
19352,B5,577.375,0.125,127,80.0
19353,F3,577.5,333/1000,127,80.0
19354,C5,577.5,0.125,127,80.0
19355,B5,577.5,0.125,127,80.0
19356,C5,577.625,0.125,127,80.0
19357,B5,577.625,0.125,127,80.0
19358,C5,577.75,0.125,127,80.0
19359,B5,577.75,0.125,127,80.0
19360,F3,577.833,167/1000,127,80.0
19361,C5,577.875,0.125,127,80.0
19362,B5,577.875,0.125,127,80.0
19363,B4,578.0,2.0,127,80.0
19364,B4,578.0,2.0,127,80.0
19365,A1,578.0,3.0,127,80.0
19366,B1,578.0,0.25,127,80.0
19367,C5,578.0,0.125,127,80.0
19368,B5,578.0,0.125,127,80.0
19369,C5,578.125,0.125,127,80.0
19370,B5,578.125,0.125,127,80.0
19371,F3,578.25,0.25,127,80.0
19372,C5,578.25,0.125,127,80.0
19373,B5,578.25,0.125,127,80.0
19374,C5,578.375,0.125,127,80.0
19375,B5,578.375,0.125,127,80.0
19376,F3,578.5,0.25,127,80.0
19377,A4,578.5,0.5,127,80.0
19378,A3,578.5,0.5,127,80.0
19379,C5,578.5,0.125,127,80.0
19380,B5,578.5,0.125,127,80.0
19381,A4,578.5,0.5,127,80.0
19382,C5,578.625,0.125,127,80.0
19383,B5,578.625,0.125,127,80.0
19384,B1,578.75,0.25,127,80.0
19385,C5,578.75,0.125,127,80.0
19386,B5,578.75,0.125,127,80.0
19387,C5,578.875,0.125,127,80.0
19388,B5,578.875,0.125,127,80.0
19389,C5,579.0,0.5,127,80.0
19390,C4,579.0,0.5,127,80.0
19391,C5,579.0,0.125,127,80.0
19392,B5,579.0,0.125,127,80.0
19393,C5,579.0,0.5,127,80.0
19394,C5,579.125,0.125,127,80.0
19395,B5,579.125,0.125,127,80.0
19396,F3,579.2,1/5,127,80.0
19397,C5,579.25,0.125,127,80.0
19398,B5,579.25,0.125,127,80.0
19399,C5,579.375,0.125,127,80.0
19400,B5,579.375,0.125,127,80.0
19401,E6,579.5,0.5,127,80.0
19402,E5,579.5,0.5,127,80.0
19403,C5,579.5,0.125,127,80.0
19404,B5,579.5,0.125,127,80.0
19405,E6,579.5,0.5,127,80.0
19406,C5,579.625,0.125,127,80.0
19407,B5,579.625,0.125,127,80.0
19408,C5,579.75,0.125,127,80.0
19409,B5,579.75,0.125,127,80.0
19410,F3,579.8,1/5,127,80.0
19411,C5,579.875,0.125,127,80.0
19412,B5,579.875,31/250,127,80.0
19413,B1,580.0,1/5,127,80.0
19414,F5,580.0,0.5,127,80.0
19415,F4,580.0,0.5,127,80.0
19416,C5,580.0,0.125,127,80.0
19417,F5,580.0,0.5,127,80.0
19418,C5,580.125,0.125,127,80.0
19419,C5,580.2,1/5,127,80.0
19420,C5,580.2,1/5,127,80.0
19421,D2,580.2,1/5,127,80.0
19422,C6,580.2,1/5,127,80.0
19423,C5,580.25,0.125,127,80.0
19424,C5,580.375,0.125,127,80.0
19425,C5,580.4,1/5,127,80.0
19426,C5,580.4,1/5,127,80.0
19427,D2,580.4,1/5,127,80.0
19428,C6,580.4,1/5,127,80.0
19429,C6,580.5,0.5,127,80.0
19430,C5,580.5,0.5,127,80.0
19431,C5,580.5,0.125,127,80.0
19432,C6,580.5,0.5,127,80.0
19433,D5,580.6,1/5,127,80.0
19434,D5,580.6,1/5,127,80.0
19435,D2,580.6,1/5,127,80.0
19436,D6,580.6,1/5,127,80.0
19437,C5,580.625,0.125,127,80.0
19438,C5,580.75,0.125,127,80.0
19439,A4,580.8,1/5,127,80.0
19440,A4,580.8,1/5,127,80.0
19441,D2,580.8,1/5,127,80.0
19442,A5,580.8,1/5,127,80.0
19443,C5,580.875,0.125,127,80.0
19444,G4,581.0,1.0,127,80.0
19445,G4,581.0,1.0,127,80.0
19446,A1,581.0,3.0,127,80.0
19447,B5,581.0,3.0,127,80.0
19448,B4,581.0,3.0,127,80.0
19449,C5,581.0,0.125,127,80.0
19450,G5,581.0,0.125,127,80.0
19451,B5,581.0,3.0,127,80.0
19452,E-3,581.0,0.5,127,80.0
19453,C#3,581.0,0.5,127,80.0
19454,B1,581.0,0.5,127,80.0
19455,C5,581.125,31/250,127,80.0
19456,G5,581.125,0.125,127,80.0
19457,E-5,581.25,0.25,127,80.0
19458,G5,581.25,0.125,127,80.0
19459,G5,581.375,0.125,127,80.0
19460,E-3,581.5,0.5,127,80.0
19461,C#5,581.5,0.25,127,80.0
19462,G5,581.5,0.125,127,80.0
19463,G5,581.625,0.125,127,80.0
19464,A4,581.75,0.25,127,80.0
19465,G5,581.75,0.125,127,80.0
19466,G5,581.875,31/250,127,80.0
19467,E-3,582.0,2/5,127,80.0
19468,E5,582.0,0.125,127,80.0
19469,E5,582.125,0.125,127,80.0
19470,E5,582.25,0.125,127,80.0
19471,E5,582.375,0.125,127,80.0
19472,E4,582.4,2/5,127,80.0
19473,E4,582.4,2/5,127,80.0
19474,D2,582.4,2/5,127,80.0
19475,E5,582.4,2/5,127,80.0
19476,E5,582.5,0.125,127,80.0
19477,E5,582.625,0.125,127,80.0
19478,E5,582.75,0.125,127,80.0
19479,F4,582.8,367/1000,127,80.0
19480,F4,582.8,367/1000,127,80.0
19481,D2,582.8,367/1000,127,80.0
19482,F5,582.8,367/1000,127,80.0
19483,E5,582.875,0.125,127,80.0
19484,E5,583.0,0.125,127,80.0
19485,E5,583.125,0.125,127,80.0
19486,D4,583.167,167/1000,127,80.0
19487,D4,583.167,167/1000,127,80.0
19488,F2,583.167,167/1000,127,80.0
19489,D5,583.167,167/1000,127,80.0
19490,E5,583.25,0.125,127,80.0
19491,E4,583.333,167/1000,127,80.0
19492,E4,583.333,167/1000,127,80.0
19493,B2,583.333,167/1000,127,80.0
19494,E5,583.333,167/1000,127,80.0
19495,E5,583.375,0.125,127,80.0
19496,F4,583.5,167/1000,127,80.0
19497,F4,583.5,167/1000,127,80.0
19498,G2,583.5,167/1000,127,80.0
19499,E5,583.5,0.125,127,80.0
19500,F5,583.5,167/1000,127,80.0
19501,E5,583.625,0.125,127,80.0
19502,G4,583.667,167/1000,127,80.0
19503,G4,583.667,167/1000,127,80.0
19504,A2,583.667,167/1000,127,80.0
19505,G5,583.667,167/1000,127,80.0
19506,E5,583.75,0.125,127,80.0
19507,A4,583.833,167/1000,127,80.0
19508,A4,583.833,167/1000,127,80.0
19509,F2,583.833,167/1000,127,80.0
19510,A5,583.833,167/1000,127,80.0
19511,E5,583.875,31/250,127,80.0
19512,B-4,584.0,3.0,127,80.0
19513,B-4,584.0,3.0,127,80.0
19514,G#1,584.0,3.0,127,80.0
19515,B-5,584.0,0.125,127,80.0
19516,C#3,584.0,0.5,127,80.0
19517,B1,584.0,0.5,127,80.0
19518,B-5,584.125,0.125,127,80.0
19519,F#5,584.2,1/5,127,80.0
19520,B-5,584.25,0.125,127,80.0
19521,B-5,584.375,0.125,127,80.0
19522,G#5,584.4,1/5,127,80.0
19523,E-3,584.5,0.5,127,80.0
19524,B-4,584.5,0.5,127,80.0
19525,B-3,584.5,0.5,127,80.0
19526,B-5,584.5,0.125,127,80.0
19527,B-4,584.5,0.5,127,80.0
19528,E-5,584.6,1/5,127,80.0
19529,B-5,584.625,0.125,127,80.0
19530,B-5,584.75,0.125,127,80.0
19531,C#5,584.8,1/5,127,80.0
19532,B-5,584.875,0.125,127,80.0
19533,E-3,585.0,0.75,127,80.0
19534,C#5,585.0,0.5,127,80.0
19535,C#4,585.0,0.5,127,80.0
19536,C5,585.0,333/1000,127,80.0
19537,B-5,585.0,0.125,127,80.0
19538,C#5,585.0,0.5,127,80.0
19539,B-5,585.125,0.125,127,80.0
19540,B-5,585.25,0.125,127,80.0
19541,B-5,585.375,0.125,127,80.0
19542,B-5,585.5,0.5,127,80.0
19543,B-4,585.5,0.5,127,80.0
19544,B-5,585.5,0.125,127,80.0
19545,B-5,585.5,0.5,127,80.0
19546,B-5,585.625,0.125,127,80.0
19547,C5,585.667,167/1000,127,80.0
19548,B-5,585.75,0.125,127,80.0
19549,E-3,585.75,0.25,127,80.0
19550,B1,585.75,0.25,127,80.0
19551,C#5,585.833,167/1000,102,80.0
19552,B-5,585.875,0.125,127,80.0
19553,G#6,586.0,0.5,127,80.0
19554,G#5,586.0,0.5,127,80.0
19555,C5,586.0,0.125,102,80.0
19556,B-5,586.0,0.125,127,80.0
19557,G#6,586.0,0.5,127,80.0
19558,E-3,586.0,0.5,127,80.0
19559,D2,586.0,0.5,127,80.0
19560,C5,586.125,0.125,102,80.0
19561,B-5,586.125,0.125,127,80.0
19562,C5,586.25,0.125,102,80.0
19563,B-5,586.25,0.125,127,80.0
19564,C5,586.375,0.125,102,80.0
19565,B-5,586.375,0.125,127,80.0
19566,E-3,586.5,0.25,127,80.0
19567,F6,586.5,0.5,127,80.0
19568,F5,586.5,0.5,127,80.0
19569,C5,586.5,0.125,102,80.0
19570,B-5,586.5,0.125,127,80.0
19571,F6,586.5,0.5,127,80.0
19572,C5,586.625,0.125,102,80.0
19573,B-5,586.625,0.125,127,80.0
19574,B1,586.75,0.25,127,80.0
19575,C5,586.75,0.125,102,80.0
19576,B-5,586.75,0.125,127,80.0
19577,C5,586.875,0.125,102,80.0
19578,B-5,586.875,0.125,127,80.0
19579,B-4,587.0,0.5,127,80.0
19580,B-4,587.0,0.5,127,80.0
19581,G#1,587.0,3.0,127,80.0
19582,E-6,587.0,3.0,127,80.0
19583,E-5,587.0,3.0,127,80.0
19584,C5,587.0,0.125,102,80.0
19585,B-5,587.0,0.125,127,80.0
19586,E-6,587.0,3.0,127,80.0
19587,F3,587.0,0.5,127,80.0
19588,B1,587.0,0.5,127,80.0
19589,C5,587.125,0.125,102,80.0
19590,B-5,587.125,0.125,127,80.0
19591,C5,587.25,0.125,102,80.0
19592,B-5,587.25,0.125,127,80.0
19593,C5,587.375,0.125,102,80.0
19594,B-5,587.375,31/250,127,80.0
19595,C5,587.5,0.5,127,80.0
19596,C5,587.5,0.5,127,80.0
19597,C5,587.5,0.125,102,80.0
19598,C6,587.5,0.5,127,80.0
19599,F3,587.5,0.5,127,80.0
19600,B1,587.5,0.5,127,80.0
19601,C5,587.625,0.125,102,80.0
19602,C5,587.75,0.125,102,80.0
19603,C5,587.875,0.125,102,80.0
19604,C#5,588.0,0.5,127,80.0
19605,C#5,588.0,0.5,127,80.0
19606,F3,588.0,0.5,127,80.0
19607,C5,588.0,0.125,102,80.0
19608,C#6,588.0,0.5,127,80.0
19609,C5,588.125,0.125,102,80.0
19610,C5,588.25,0.125,102,80.0
19611,C5,588.375,0.125,102,80.0
19612,E-5,588.5,0.5,127,80.0
19613,E-5,588.5,0.5,127,80.0
19614,C5,588.5,0.125,102,80.0
19615,E-6,588.5,0.5,127,80.0
19616,F3,588.5,0.5,127,80.0
19617,B2,588.5,0.5,127,80.0
19618,C5,588.625,0.125,102,80.0
19619,C5,588.75,0.125,102,80.0
19620,C5,588.875,0.125,102,80.0
19621,F5,589.0,0.25,127,80.0
19622,F5,589.0,0.25,127,80.0
19623,C5,589.0,0.125,102,80.0
19624,F6,589.0,0.25,127,80.0
19625,F3,589.0,0.25,127,80.0
19626,B2,589.0,0.25,127,80.0
19627,C5,589.125,0.125,102,80.0
19628,F#5,589.25,0.25,127,80.0
19629,F#5,589.25,0.25,127,80.0
19630,A2,589.25,0.25,127,80.0
19631,C5,589.25,0.125,102,80.0
19632,F#6,589.25,0.25,127,80.0
19633,C5,589.375,0.125,102,80.0
19634,G#5,589.5,0.25,127,80.0
19635,G#5,589.5,0.25,127,80.0
19636,G2,589.5,0.25,127,80.0
19637,C5,589.5,0.125,102,80.0
19638,G#6,589.5,0.25,127,80.0
19639,C5,589.625,0.125,102,80.0
19640,B-5,589.75,0.25,127,80.0
19641,B-5,589.75,0.25,127,80.0
19642,F2,589.75,0.25,127,80.0
19643,C5,589.75,0.125,102,80.0
19644,B-6,589.75,0.25,127,80.0
19645,C5,589.875,0.125,102,80.0
19646,B-5,590.0,333/1000,127,80.0
19647,B-5,590.0,333/1000,127,80.0
19648,G#1,590.0,3.0,127,80.0
19649,C5,590.0,0.125,102,80.0
19650,B-6,590.0,333/1000,127,80.0
19651,C#3,590.0,333/1000,127,80.0
19652,B1,590.0,333/1000,127,80.0
19653,C5,590.125,0.125,102,80.0
19654,C5,590.25,0.125,102,80.0
19655,C5,590.375,31/250,102,80.0
19656,B-4,590.5,0.5,127,80.0
19657,B-3,590.5,0.5,127,80.0
19658,B4,590.5,167/1000,127,80.0
19659,B-4,590.5,0.5,127,80.0
19660,G#5,590.667,333/1000,127,80.0
19661,G#5,590.667,333/1000,127,80.0
19662,B4,590.667,167/1000,127,80.0
19663,G#6,590.667,333/1000,127,80.0
19664,C#3,590.667,333/1000,127,80.0
19665,F2,590.667,333/1000,127,80.0
19666,D5,590.833,167/1000,102,80.0
19667,C#5,591.0,0.5,127,80.0
19668,C#4,591.0,0.5,127,80.0
19669,A4,591.0,0.125,127,80.0
19670,C#5,591.0,0.5,127,80.0
19671,A4,591.125,0.125,127,80.0
19672,A4,591.25,0.125,127,80.0
19673,G5,591.333,333/1000,127,80.0
19674,G5,591.333,333/1000,127,80.0
19675,G6,591.333,333/1000,127,80.0
19676,A3,591.333,333/1000,127,80.0
19677,G2,591.333,333/1000,127,80.0
19678,A4,591.375,0.125,127,80.0
19679,B-5,591.5,0.5,127,80.0
19680,B-4,591.5,0.5,127,80.0
19681,A4,591.5,0.125,127,80.0
19682,B-5,591.5,0.5,127,80.0
19683,A4,591.625,0.125,127,80.0
19684,A4,591.75,0.125,127,80.0
19685,A4,591.875,0.125,127,80.0
19686,F5,592.0,1/5,127,80.0
19687,F5,592.0,1/5,127,80.0
19688,C3,592.0,1/5,127,80.0
19689,G#6,592.0,0.5,127,80.0
19690,G#5,592.0,0.5,127,80.0
19691,A4,592.0,0.125,127,80.0
19692,F6,592.0,1/5,127,80.0
19693,G#6,592.0,0.5,127,80.0
19694,A4,592.125,0.125,127,80.0
19695,E-5,592.2,1/5,127,80.0
19696,E-5,592.2,1/5,127,80.0
19697,A2,592.2,1/5,127,80.0
19698,E-6,592.2,1/5,127,80.0
19699,A4,592.25,0.125,127,80.0
19700,A4,592.375,31/250,127,80.0
19701,C#5,592.4,1/5,127,80.0
19702,C#5,592.4,1/5,127,80.0
19703,B2,592.4,1/5,127,80.0
19704,C#6,592.4,1/5,127,80.0
19705,F6,592.5,0.5,127,80.0
19706,F5,592.5,0.5,127,80.0
19707,B4,592.5,0.125,127,80.0
19708,F6,592.5,0.5,127,80.0
19709,B4,592.6,1/5,127,80.0
19710,B4,592.6,1/5,127,80.0
19711,F2,592.6,1/5,127,80.0
19712,B5,592.6,1/5,127,80.0
19713,B4,592.625,0.125,127,80.0
19714,B4,592.75,0.125,127,80.0
19715,B-4,592.8,1/5,127,80.0
19716,B-4,592.8,1/5,127,80.0
19717,A2,592.8,1/5,127,80.0
19718,B-5,592.8,1/5,127,80.0
19719,B4,592.875,0.125,127,80.0
19720,B4,593.0,3.0,127,80.0
19721,B4,593.0,3.0,127,80.0
19722,G#1,593.0,3.0,127,80.0
19723,E-6,593.0,3.0,127,80.0
19724,E-5,593.0,3.0,127,80.0
19725,B4,593.0,0.125,127,80.0
19726,B5,593.0,0.125,127,80.0
19727,E-6,593.0,3.0,127,80.0
19728,C#3,593.0,333/1000,127,80.0
19729,D2,593.0,333/1000,127,80.0
19730,B4,593.125,0.125,127,80.0
19731,B5,593.125,0.125,127,80.0
19732,B4,593.25,0.125,127,80.0
19733,B5,593.25,0.125,127,80.0
19734,B4,593.375,0.125,127,80.0
19735,B5,593.375,0.125,127,80.0
19736,B4,593.5,0.125,127,80.0
19737,B5,593.5,0.125,127,80.0
19738,B4,593.625,0.125,127,80.0
19739,B5,593.625,0.125,127,80.0
19740,D2,593.667,167/1000,127,80.0
19741,B4,593.75,0.125,127,80.0
19742,B5,593.75,0.125,127,80.0
19743,D2,593.833,167/1000,127,80.0
19744,B4,593.875,0.125,127,80.0
19745,B5,593.875,0.125,127,80.0
19746,D2,594.0,0.25,127,80.0
19747,B4,594.0,0.125,127,80.0
19748,B5,594.0,0.125,127,80.0
19749,B4,594.125,0.125,127,80.0
19750,B5,594.125,0.125,127,80.0
19751,D2,594.25,0.25,127,80.0
19752,B4,594.25,0.125,127,80.0
19753,B5,594.25,0.125,127,80.0
19754,B4,594.375,0.125,127,80.0
19755,B5,594.375,0.125,127,80.0
19756,B1,594.5,0.25,127,80.0
19757,B4,594.5,0.125,127,80.0
19758,B5,594.5,0.125,127,80.0
19759,B4,594.625,0.125,127,80.0
19760,B5,594.625,0.125,127,80.0
19761,B1,594.75,0.25,127,80.0
19762,B4,594.75,0.125,127,80.0
19763,B5,594.75,0.125,127,80.0
19764,B4,594.875,0.125,127,80.0
19765,B5,594.875,0.125,127,80.0
19766,D2,595.0,0.25,127,80.0
19767,B4,595.0,0.125,127,80.0
19768,B5,595.0,0.125,127,80.0
19769,B4,595.125,0.125,127,80.0
19770,B5,595.125,0.125,127,80.0
19771,D2,595.25,0.25,127,80.0
19772,B4,595.25,0.125,127,80.0
19773,B5,595.25,0.125,127,80.0
19774,B4,595.375,0.125,127,80.0
19775,B5,595.375,0.125,127,80.0
19776,B-2,595.5,0.25,127,80.0
19777,B4,595.5,0.125,127,80.0
19778,B5,595.5,0.125,127,80.0
19779,B4,595.625,0.125,127,80.0
19780,B5,595.625,0.125,127,80.0
19781,D2,595.75,0.25,127,80.0
19782,B4,595.75,0.125,127,80.0
19783,B5,595.75,0.125,127,80.0
19784,B4,595.875,0.125,127,80.0
19785,B5,595.875,0.125,127,80.0
19786,B4,596.0,0.5,127,80.0
19787,B4,596.0,0.5,127,80.0
19788,G#1,596.0,3.0,127,80.0
19789,B1,596.0,0.5,127,80.0
19790,B4,596.0,0.125,127,80.0
19791,B5,596.0,0.125,127,80.0
19792,B4,596.125,0.125,127,80.0
19793,B5,596.125,0.125,127,80.0
19794,B4,596.25,0.125,127,80.0
19795,B5,596.25,0.125,127,80.0
19796,B4,596.375,0.125,127,80.0
19797,B5,596.375,31/250,127,80.0
19798,B-4,596.5,0.5,127,80.0
19799,B-4,596.5,0.5,127,80.0
19800,E-3,596.5,0.5,127,80.0
19801,B-4,596.5,0.5,127,80.0
19802,B-3,596.5,0.5,127,80.0
19803,B4,596.5,0.125,127,80.0
19804,B-5,596.5,0.5,127,80.0
19805,B-4,596.5,0.5,127,80.0
19806,B4,596.625,0.125,127,80.0
19807,B4,596.75,0.125,127,80.0
19808,B4,596.875,31/250,127,80.0
19809,G#4,597.0,333/1000,127,80.0
19810,G#4,597.0,333/1000,127,80.0
19811,E-3,597.0,0.5,127,80.0
19812,C#5,597.0,0.5,127,80.0
19813,C#4,597.0,0.5,127,80.0
19814,C5,597.0,0.25,127,80.0
19815,G#5,597.0,333/1000,127,80.0
19816,C#5,597.0,0.5,127,80.0
19817,B4,597.25,0.25,127,80.0
19818,G4,597.333,333/1000,127,80.0
19819,G4,597.333,333/1000,127,80.0
19820,G5,597.333,333/1000,127,80.0
19821,E-3,597.5,0.25,127,80.0
19822,B-5,597.5,0.5,127,80.0
19823,B-4,597.5,0.5,127,80.0
19824,B4,597.5,0.25,127,80.0
19825,B-5,597.5,0.5,127,80.0
19826,F4,597.667,333/1000,127,80.0
19827,F4,597.667,333/1000,127,80.0
19828,F5,597.667,333/1000,127,80.0
19829,B1,597.75,0.25,127,80.0
19830,G4,597.75,0.25,127,80.0
19831,E-4,598.0,0.5,127,80.0
19832,E-4,598.0,0.5,127,80.0
19833,G#6,598.0,0.5,127,80.0
19834,G#5,598.0,0.5,127,80.0
19835,G4,598.0,0.25,127,80.0
19836,E-5,598.0,0.5,127,80.0
19837,G#6,598.0,0.5,127,80.0
19838,C#3,598.0,0.5,127,80.0
19839,D2,598.0,0.5,127,80.0
19840,A4,598.25,0.25,127,80.0
19841,C#4,598.5,0.5,127,80.0
19842,C#4,598.5,0.5,127,80.0
19843,B-2,598.5,333/1000,127,80.0
19844,F6,598.5,0.5,127,80.0
19845,F5,598.5,0.5,127,80.0
19846,F4,598.5,0.25,127,80.0
19847,C#5,598.5,0.5,127,80.0
19848,F6,598.5,0.5,127,80.0
19849,E5,598.75,0.25,127,80.0
19850,B1,598.833,167/1000,127,80.0
19851,B3,599.0,0.5,127,80.0
19852,B3,599.0,0.5,127,80.0
19853,G#1,599.0,3.0,127,80.0
19854,E-6,599.0,3.0,127,80.0
19855,E-5,599.0,3.0,127,80.0
19856,D5,599.0,0.25,127,80.0
19857,B4,599.0,0.5,127,80.0
19858,E-6,599.0,3.0,127,80.0
19859,C#3,599.0,0.5,127,80.0
19860,B1,599.0,0.5,127,80.0
19861,A4,599.25,0.25,127,80.0
19862,C#4,599.5,0.5,127,80.0
19863,C#4,599.5,0.5,127,80.0
19864,C5,599.5,0.25,127,80.0
19865,C#5,599.5,0.5,127,80.0
19866,B-2,599.5,0.5,127,80.0
19867,B1,599.5,0.5,127,80.0
19868,B4,599.75,0.25,127,80.0
19869,E-4,600.0,333/1000,127,80.0
19870,E-4,600.0,333/1000,127,80.0
19871,B4,600.0,1/5,127,80.0
19872,E-5,600.0,333/1000,127,80.0
19873,C#3,600.0,333/1000,127,80.0
19874,B1,600.0,333/1000,127,80.0
19875,A4,600.2,1/5,127,80.0
19876,F4,600.333,333/1000,127,80.0
19877,F4,600.333,333/1000,127,80.0
19878,F5,600.333,333/1000,127,80.0
19879,B-2,600.333,333/1000,127,80.0
19880,B1,600.333,333/1000,127,80.0
19881,A4,600.4,1/5,127,80.0
19882,E4,600.6,1/5,127,80.0
19883,G4,600.667,333/1000,127,80.0
19884,G4,600.667,333/1000,127,80.0
19885,G5,600.667,333/1000,127,80.0
19886,C#3,600.667,333/1000,127,80.0
19887,D2,600.667,333/1000,127,80.0
19888,C5,600.8,1/5,127,80.0
19889,G#4,601.0,0.5,127,80.0
19890,G#4,601.0,0.5,127,80.0
19891,B4,601.0,333/1000,127,80.0
19892,G#5,601.0,0.5,127,80.0
19893,C#3,601.0,0.5,127,80.0
19894,D2,601.0,0.5,127,80.0
19895,B-4,601.5,0.5,127,80.0
19896,B-4,601.5,0.5,127,80.0
19897,B-5,601.5,0.5,127,80.0
19898,B-2,601.5,0.5,127,80.0
19899,D2,601.5,0.5,127,80.0
19900,B4,601.667,333/1000,127,80.0
19901,C5,602.0,167/1000,127,80.0
19902,C5,602.0,167/1000,127,80.0
19903,G#1,602.0,3.0,127,80.0
19904,D2,602.0,167/1000,127,80.0
19905,C6,602.0,167/1000,127,80.0
19906,C#5,602.167,167/1000,127,80.0
19907,C#5,602.167,167/1000,127,80.0
19908,D2,602.167,167/1000,127,80.0
19909,C#6,602.167,167/1000,127,80.0
19910,E-5,602.333,167/1000,127,80.0
19911,E-5,602.333,167/1000,127,80.0
19912,D2,602.333,167/1000,127,80.0
19913,A4,602.333,333/1000,127,80.0
19914,E-6,602.333,167/1000,127,80.0
19915,F5,602.5,167/1000,127,80.0
19916,F5,602.5,167/1000,127,80.0
19917,D2,602.5,167/1000,127,80.0
19918,B-4,602.5,0.5,127,80.0
19919,B-3,602.5,0.5,127,80.0
19920,F6,602.5,167/1000,127,80.0
19921,B-4,602.5,0.5,127,80.0
19922,F#5,602.667,167/1000,127,80.0
19923,F#5,602.667,167/1000,127,80.0
19924,D2,602.667,167/1000,127,80.0
19925,F#6,602.667,167/1000,127,80.0
19926,G#5,602.833,167/1000,127,80.0
19927,G#5,602.833,167/1000,127,80.0
19928,D2,602.833,167/1000,127,80.0
19929,G#6,602.833,167/1000,127,80.0
19930,B-5,603.0,2.0,127,80.0
19931,B-5,603.0,2.0,127,80.0
19932,C#5,603.0,0.5,127,80.0
19933,C#4,603.0,0.5,127,80.0
19934,C5,603.0,333/1000,127,80.0
19935,B-6,603.0,0.125,127,80.0
19936,C#5,603.0,0.5,127,80.0
19937,C#3,603.0,1.5,127,80.0
19938,B1,603.0,1.5,127,80.0
19939,B-6,603.125,0.125,127,80.0
19940,B-6,603.25,0.125,127,80.0
19941,D5,603.333,167/1000,127,80.0
19942,B-6,603.375,0.125,127,80.0
19943,B-5,603.5,0.5,127,80.0
19944,B-4,603.5,0.5,127,80.0
19945,B4,603.5,0.125,127,80.0
19946,B-6,603.5,0.125,127,80.0
19947,B-5,603.5,0.5,127,80.0
19948,B4,603.625,0.125,127,80.0
19949,B-6,603.625,0.125,127,80.0
19950,B4,603.75,0.125,127,80.0
19951,B-6,603.75,0.125,127,80.0
19952,B4,603.875,0.125,127,80.0
19953,B-6,603.875,0.125,127,80.0
19954,G#6,604.0,0.5,127,80.0
19955,G#5,604.0,0.5,127,80.0
19956,B4,604.0,0.125,127,80.0
19957,B-6,604.0,0.125,127,80.0
19958,G#6,604.0,0.5,127,80.0
19959,B4,604.125,0.125,127,80.0
19960,B-6,604.125,0.125,127,80.0
19961,B4,604.25,0.125,127,80.0
19962,B-6,604.25,0.125,127,80.0
19963,B4,604.375,0.125,127,80.0
19964,B-6,604.375,0.125,127,80.0
19965,E-3,604.5,167/1000,127,80.0
19966,F6,604.5,0.5,127,80.0
19967,F5,604.5,0.5,127,80.0
19968,B4,604.5,0.125,127,80.0
19969,B-6,604.5,0.125,127,80.0
19970,F6,604.5,0.5,127,80.0
19971,B4,604.625,0.125,127,80.0
19972,B-6,604.625,0.125,127,80.0
19973,E-3,604.667,167/1000,127,80.0
19974,B4,604.75,0.125,127,80.0
19975,B-6,604.75,0.125,127,80.0
19976,E-3,604.833,167/1000,127,80.0
19977,B4,604.875,0.125,127,80.0
19978,B-6,604.875,0.125,127,80.0
19979,B-5,605.0,0.25,127,80.0
19980,B-5,605.0,0.25,127,80.0
19981,G#1,605.0,2.0,127,80.0
19982,E-3,605.0,0.25,127,80.0
19983,E-6,605.0,3.0,127,80.0
19984,E-5,605.0,3.0,127,80.0
19985,B4,605.0,0.125,127,80.0
19986,B-6,605.0,0.125,127,80.0
19987,E-6,605.0,3.0,127,80.0
19988,B4,605.125,0.125,127,80.0
19989,B-6,605.125,31/250,127,80.0
19990,G#5,605.25,0.25,127,80.0
19991,G#5,605.25,0.25,127,80.0
19992,D2,605.25,0.25,127,80.0
19993,B4,605.25,0.125,127,80.0
19994,G#6,605.25,0.25,127,80.0
19995,B4,605.375,0.125,127,80.0
19996,F#5,605.5,0.25,127,80.0
19997,F#5,605.5,0.25,127,80.0
19998,C3,605.5,0.25,127,80.0
19999,B4,605.5,0.125,127,80.0
20000,F#6,605.5,0.25,127,80.0
20001,B4,605.625,0.125,127,80.0
20002,F5,605.75,0.25,127,80.0
20003,F5,605.75,0.25,127,80.0
20004,B2,605.75,0.25,127,80.0
20005,B4,605.75,0.125,127,80.0
20006,F6,605.75,0.25,127,80.0
20007,B4,605.875,0.125,127,80.0
20008,E-5,606.0,333/1000,127,80.0
20009,E-5,606.0,333/1000,127,80.0
20010,A2,606.0,333/1000,127,80.0
20011,B4,606.0,0.125,127,80.0
20012,E-6,606.0,333/1000,127,80.0
20013,B4,606.125,0.125,127,80.0
20014,B4,606.25,0.125,127,80.0
20015,C#5,606.333,333/1000,127,80.0
20016,C#5,606.333,333/1000,127,80.0
20017,G2,606.333,333/1000,127,80.0
20018,C#6,606.333,333/1000,127,80.0
20019,B4,606.375,0.125,127,80.0
20020,B4,606.5,0.125,127,80.0
20021,B4,606.625,0.125,127,80.0
20022,B4,606.667,333/1000,127,80.0
20023,B4,606.667,333/1000,127,80.0
20024,F2,606.667,333/1000,127,80.0
20025,B5,606.667,333/1000,127,80.0
20026,B4,606.75,0.125,127,80.0
20027,B4,606.875,0.125,127,80.0
20028,B4,607.0,0.125,127,80.0
20029,B4,607.0,0.125,127,80.0
20030,B1,607.0,0.5,127,80.0
20031,B4,607.0,0.125,127,80.0
20032,B5,607.0,0.125,127,80.0
20033,C#3,607.0,0.125,127,80.0
20034,D2,607.0,0.125,127,80.0
20035,G#4,607.125,0.125,127,80.0
20036,G#4,607.125,0.125,127,80.0
20037,F2,607.125,0.125,127,80.0
20038,B4,607.125,0.125,127,80.0
20039,G#5,607.125,0.125,127,80.0
20040,B4,607.25,0.125,127,80.0
20041,B4,607.25,0.125,127,80.0
20042,B4,607.25,0.125,127,80.0
20043,B5,607.25,0.125,127,80.0
20044,C#3,607.25,0.25,127,80.0
20045,D2,607.25,0.25,127,80.0
20046,G#4,607.375,0.125,127,80.0
20047,G#4,607.375,0.125,127,80.0
20048,B4,607.375,0.125,127,80.0
20049,G#5,607.375,0.125,127,80.0
20050,G4,607.5,0.5,127,80.0
20051,G4,607.5,0.5,127,80.0
20052,G1,607.5,0.5,127,80.0
20053,B4,607.5,0.125,127,80.0
20054,G5,607.5,0.125,127,80.0
20055,C#3,607.5,0.5,127,80.0
20056,D2,607.5,0.5,127,80.0
20057,B1,607.5,0.5,127,80.0
20058,B4,607.625,0.125,127,80.0
20059,G5,607.625,0.125,127,80.0
20060,B4,607.75,0.125,127,80.0
20061,G5,607.75,0.125,127,80.0
20062,B4,607.875,31/250,127,80.0
20063,G5,607.875,0.125,127,80.0
20064,G4,608.0,3.0,127,80.0
20065,G4,608.0,3.0,127,80.0
20066,G1,608.0,3.0,127,80.0
20067,G5,608.0,0.125,127,80.0
20068,G5,608.125,0.125,127,80.0
20069,C5,608.2,1/5,127,80.0
20070,G5,608.25,0.125,127,80.0
20071,G5,608.375,0.125,127,80.0
20072,C5,608.4,1/5,127,80.0
20073,G5,608.5,0.125,127,80.0
20074,C#3,608.5,0.5,127,80.0
20075,D2,608.5,0.5,127,80.0
20076,B1,608.5,0.5,127,80.0
20077,D5,608.6,1/5,127,80.0
20078,G5,608.625,0.125,127,80.0
20079,G5,608.75,0.125,127,80.0
20080,A4,608.8,1/5,127,80.0
20081,G5,608.875,0.125,127,80.0
20082,E-3,609.0,0.5,127,80.0
20083,G4,609.0,0.125,127,80.0
20084,G5,609.0,0.125,127,80.0
20085,G4,609.125,0.125,127,80.0
20086,G5,609.125,0.125,127,80.0
20087,G4,609.25,0.125,127,80.0
20088,G5,609.25,0.125,127,80.0
20089,G4,609.375,0.125,127,80.0
20090,G5,609.375,0.125,127,80.0
20091,D2,609.5,333/1000,127,80.0
20092,G4,609.5,0.125,127,80.0
20093,G5,609.5,0.125,127,80.0
20094,G4,609.625,0.125,127,80.0
20095,G5,609.625,0.125,127,80.0
20096,G4,609.75,0.125,127,80.0
20097,G5,609.75,0.125,127,80.0
20098,E-3,609.833,333/1000,127,80.0
20099,D2,609.833,333/1000,127,80.0
20100,G4,609.875,31/250,127,80.0
20101,G5,609.875,0.125,127,80.0
20102,G5,610.0,0.125,127,80.0
20103,G5,610.125,0.125,127,80.0
20104,D2,610.167,333/1000,127,80.0
20105,G5,610.25,0.125,127,80.0
20106,G5,610.375,0.125,127,80.0
20107,E4,610.4,2/5,127,80.0
20108,G5,610.5,0.125,127,80.0
20109,E-3,610.5,0.5,127,80.0
20110,C#3,610.5,0.5,127,80.0
20111,G5,610.625,0.125,127,80.0
20112,G5,610.75,0.125,127,80.0
20113,F4,610.8,367/1000,127,80.0
20114,G5,610.875,31/250,127,80.0
20115,B4,611.0,0.25,127,80.0
20116,B4,611.0,0.25,127,80.0
20117,G#1,611.0,3.0,127,80.0
20118,E-3,611.0,0.25,127,80.0
20119,B5,611.0,0.25,127,80.0
20120,B4,611.0,0.25,127,80.0
20121,B5,611.0,0.25,127,80.0
20122,D4,611.167,167/1000,127,80.0
20123,C5,611.25,0.25,127,80.0
20124,C5,611.25,0.25,127,80.0
20125,B2,611.25,0.25,127,80.0
20126,C6,611.25,0.25,127,80.0
20127,C5,611.25,0.25,127,80.0
20128,C6,611.25,0.25,127,80.0
20129,E4,611.333,167/1000,127,80.0
20130,D5,611.5,0.25,127,80.0
20131,D5,611.5,0.25,127,80.0
20132,B2,611.5,0.25,127,80.0
20133,D6,611.5,0.25,127,80.0
20134,D5,611.5,0.25,127,80.0
20135,F4,611.5,167/1000,127,80.0
20136,D6,611.5,0.25,127,80.0
20137,G4,611.667,167/1000,127,80.0
20138,E-5,611.75,0.25,127,80.0
20139,E-5,611.75,0.25,127,80.0
20140,C3,611.75,0.25,127,80.0
20141,E-6,611.75,0.25,127,80.0
20142,E-5,611.75,0.25,127,80.0
20143,E-6,611.75,0.25,127,80.0
20144,A4,611.833,167/1000,127,80.0
20145,F5,612.0,0.25,127,80.0
20146,F5,612.0,0.25,127,80.0
20147,B1,612.0,0.25,127,80.0
20148,F6,612.0,0.25,127,80.0
20149,F5,612.0,0.25,127,80.0
20150,B-4,612.0,0.125,127,80.0
20151,F6,612.0,0.25,127,80.0
20152,B-4,612.125,0.125,127,80.0
20153,G5,612.25,0.25,127,80.0
20154,G5,612.25,0.25,127,80.0
20155,D2,612.25,0.25,127,80.0
20156,G6,612.25,0.25,127,80.0
20157,G5,612.25,0.25,127,80.0
20158,B-4,612.25,0.125,127,80.0
20159,G6,612.25,0.25,127,80.0
20160,B-4,612.375,0.125,127,80.0
20161,G#5,612.5,0.25,127,80.0
20162,G#5,612.5,0.25,127,80.0
20163,G#6,612.5,0.25,127,80.0
20164,G#5,612.5,0.25,127,80.0
20165,B-4,612.5,0.125,127,80.0
20166,G#6,612.5,0.25,127,80.0
20167,F#2,612.5,0.25,127,80.0
20168,B1,612.5,0.25,127,80.0
20169,B-4,612.625,0.125,127,80.0
20170,G5,612.75,0.25,127,80.0
20171,G5,612.75,0.25,127,80.0
20172,D3,612.75,0.25,127,80.0
20173,G6,612.75,0.25,127,80.0
20174,G5,612.75,0.25,127,80.0
20175,B-4,612.75,0.125,127,80.0
20176,G6,612.75,0.25,127,80.0
20177,B-4,612.875,0.125,127,80.0
20178,F5,613.0,0.25,127,80.0
20179,F5,613.0,0.25,127,80.0
20180,E-3,613.0,0.25,127,80.0
20181,F6,613.0,0.25,127,80.0
20182,F5,613.0,0.25,127,80.0
20183,B-4,613.0,0.125,127,80.0
20184,F6,613.0,0.25,127,80.0
20185,B-4,613.125,0.125,127,80.0
20186,E-5,613.25,0.25,127,80.0
20187,E-5,613.25,0.25,127,80.0
20188,D2,613.25,0.25,127,80.0
20189,E-6,613.25,0.25,127,80.0
20190,E-5,613.25,0.25,127,80.0
20191,B-4,613.25,0.125,127,80.0
20192,E-6,613.25,0.25,127,80.0
20193,B-4,613.375,0.125,127,80.0
20194,D5,613.5,0.25,127,80.0
20195,D5,613.5,0.25,127,80.0
20196,C3,613.5,0.25,127,80.0
20197,D6,613.5,0.25,127,80.0
20198,D5,613.5,0.25,127,80.0
20199,B-4,613.5,0.125,127,80.0
20200,D6,613.5,0.25,127,80.0
20201,B-4,613.625,0.125,127,80.0
20202,C5,613.75,0.25,127,80.0
20203,C5,613.75,0.25,127,80.0
20204,D2,613.75,0.25,127,80.0
20205,C6,613.75,0.25,127,80.0
20206,C5,613.75,0.25,127,80.0
20207,B-4,613.75,0.125,127,80.0
20208,C6,613.75,0.25,127,80.0
20209,B-4,613.875,0.125,127,80.0
20210,B4,614.0,3.0,127,80.0
20211,B4,614.0,3.0,127,80.0
20212,B1,614.0,3.0,127,80.0
20213,B1,614.0,0.25,127,80.0
20214,B5,614.0,3.0,127,80.0
20215,B4,614.0,3.0,127,80.0
20216,B-4,614.0,0.125,127,80.0
20217,B5,614.0,0.125,127,80.0
20218,B-4,614.125,0.125,127,80.0
20219,B5,614.125,0.125,127,80.0
20220,D2,614.25,0.25,127,80.0
20221,B-4,614.25,0.125,127,80.0
20222,B5,614.25,0.125,127,80.0
20223,B-4,614.375,0.125,127,80.0
20224,B5,614.375,0.125,127,80.0
20225,B-4,614.5,0.125,127,80.0
20226,B5,614.5,0.125,127,80.0
20227,C#3,614.5,1.0,127,80.0
20228,D2,614.5,1.0,127,80.0
20229,B1,614.5,1.0,127,80.0
20230,B-4,614.625,0.125,127,80.0
20231,B5,614.625,0.125,127,80.0
20232,B-4,614.75,0.125,127,80.0
20233,B5,614.75,0.125,127,80.0
20234,B-4,614.875,0.125,127,80.0
20235,B5,614.875,0.125,127,80.0
20236,B-4,615.0,0.125,127,80.0
20237,B5,615.0,0.125,127,80.0
20238,B-4,615.125,0.125,127,80.0
20239,B5,615.125,0.125,127,80.0
20240,B-4,615.25,0.125,127,80.0
20241,B5,615.25,0.125,127,80.0
20242,B-4,615.375,31/250,127,80.0
20243,B5,615.375,0.125,127,80.0
20244,E-3,615.5,0.75,127,80.0
20245,C5,615.5,0.5,127,80.0
20246,B5,615.5,0.125,127,80.0
20247,B5,615.625,0.125,127,80.0
20248,B5,615.75,0.125,127,80.0
20249,B5,615.875,0.125,127,80.0
20250,C#5,616.0,0.5,127,80.0
20251,B5,616.0,0.125,127,80.0
20252,B5,616.125,0.125,127,80.0
20253,E-3,616.25,0.25,127,80.0
20254,B5,616.25,0.125,127,80.0
20255,B5,616.375,0.125,127,80.0
20256,E-5,616.5,0.5,127,80.0
20257,B5,616.5,0.125,127,80.0
20258,E-3,616.5,0.5,127,80.0
20259,D2,616.5,0.5,127,80.0
20260,B5,616.625,0.125,127,80.0
20261,B5,616.75,0.125,127,80.0
20262,B5,616.875,31/250,127,80.0
20263,B-4,617.0,34/125,127,80.0
20264,B-4,617.0,34/125,127,80.0
20265,G1,617.0,3.0,127,80.0
20266,E-3,617.0,0.5,127,80.0
20267,B-5,617.0,34/125,127,80.0
20268,B-4,617.0,34/125,127,80.0
20269,F5,617.0,0.25,127,80.0
20270,B-5,617.0,34/125,127,80.0
20271,F#5,617.25,0.25,127,80.0
20272,F4,617.272,34/125,127,80.0
20273,F4,617.272,34/125,127,80.0
20274,F5,617.272,34/125,127,80.0
20275,F4,617.272,34/125,127,80.0
20276,F5,617.272,34/125,127,80.0
20277,G#5,617.5,0.25,127,80.0
20278,C#3,617.5,34/125,127,80.0
20279,D2,617.5,34/125,127,80.0
20280,F4,617.544,34/125,127,80.0
20281,F4,617.544,34/125,127,80.0
20282,F5,617.544,34/125,127,80.0
20283,F4,617.544,34/125,127,80.0
20284,F5,617.544,34/125,127,80.0
20285,B-5,617.75,0.25,127,80.0
20286,D2,617.772,34/125,127,80.0
20287,F4,617.816,34/125,127,80.0
20288,F4,617.816,34/125,127,80.0
20289,F5,617.816,34/125,127,80.0
20290,F4,617.816,34/125,127,80.0
20291,F5,617.816,34/125,127,80.0
20292,B-5,618.0,333/1000,127,80.0
20293,B1,618.044,34/125,127,80.0
20294,A4,618.087,34/125,127,80.0
20295,A4,618.087,34/125,127,80.0
20296,A5,618.087,34/125,127,80.0
20297,A4,618.087,34/125,127,80.0
20298,A5,618.087,34/125,127,80.0
20299,B1,618.316,34/125,127,80.0
20300,G4,618.359,34/125,127,80.0
20301,G4,618.359,34/125,127,80.0
20302,G5,618.359,34/125,127,80.0
20303,G4,618.359,34/125,127,80.0
20304,G5,618.359,34/125,127,80.0
20305,D2,618.587,34/125,127,80.0
20306,C5,618.631,34/125,127,80.0
20307,C5,618.631,34/125,127,80.0
20308,C6,618.631,34/125,127,80.0
20309,C5,618.631,34/125,127,80.0
20310,C6,618.631,34/125,127,80.0
20311,G#5,618.667,333/1000,127,80.0
20312,B1,618.859,34/125,127,80.0
20313,C5,618.903,34/125,127,80.0
20314,C5,618.903,34/125,127,80.0
20315,C6,618.903,34/125,127,80.0
20316,C5,618.903,34/125,127,80.0
20317,C6,618.903,34/125,127,80.0
20318,F2,619.131,34/125,127,80.0
20319,C5,619.175,34/125,127,80.0
20320,C5,619.175,34/125,127,80.0
20321,C6,619.175,34/125,127,80.0
20322,C5,619.175,34/125,127,80.0
20323,C6,619.175,34/125,127,80.0
20324,G5,619.333,333/1000,127,80.0
20325,G2,619.403,34/125,127,80.0
20326,F2,619.403,34/125,127,80.0
20327,G4,619.447,34/125,127,80.0
20328,G4,619.447,34/125,127,80.0
20329,G5,619.447,34/125,127,80.0
20330,G4,619.447,34/125,127,80.0
20331,G5,619.447,34/125,127,80.0
20332,G2,619.675,34/125,127,80.0
20333,F2,619.675,34/125,127,80.0
20334,A4,619.719,34/125,127,80.0
20335,A4,619.719,34/125,127,80.0
20336,A5,619.719,34/125,127,80.0
20337,A4,619.719,34/125,127,80.0
20338,A5,619.719,34/125,127,80.0
20339,B2,619.947,34/125,127,80.0
20340,A2,619.947,34/125,127,80.0
20341,A4,620.0,3/10,127,80.0
20342,A4,620.0,3/10,127,80.0
20343,A1,620.0,3/10,127,80.0
20344,A5,620.0,3/10,127,80.0
20345,A4,620.0,3/10,127,80.0
20346,F5,620.0,1/5,127,80.0
20347,A5,620.0,3/10,127,80.0
20348,E-5,620.2,1/5,127,80.0
20349,B2,620.219,34/125,127,80.0
20350,A2,620.219,34/125,127,80.0
20351,C#5,620.4,1/5,127,80.0
20352,A3,620.5,3/5,127,80.0
20353,D2,620.5,3/5,127,80.0
20354,C5,620.6,3/10,127,80.0
20355,C5,620.6,3/10,127,80.0
20356,C2,620.6,3/10,127,80.0
20357,C6,620.6,3/10,127,80.0
20358,C5,620.6,3/10,127,80.0
20359,B4,620.6,1/5,127,80.0
20360,C6,620.6,3/10,127,80.0
20361,B-4,620.8,1/5,127,80.0
20362,B4,621.0,0.125,127,80.0
20363,A3,621.1,3/5,127,80.0
20364,D2,621.1,3/5,127,80.0
20365,B4,621.125,0.125,127,80.0
20366,D5,621.2,3/10,127,80.0
20367,D5,621.2,3/10,127,80.0
20368,D2,621.2,3/10,127,80.0
20369,D6,621.2,3/10,127,80.0
20370,D5,621.2,3/10,127,80.0
20371,D6,621.2,3/10,127,80.0
20372,B4,621.25,0.125,127,80.0
20373,B4,621.375,0.125,127,80.0
20374,B4,621.5,0.125,127,80.0
20375,B4,621.625,0.125,127,80.0
20376,B2,621.7,3/5,127,80.0
20377,B4,621.75,0.125,127,80.0
20378,G4,621.8,3/10,127,80.0
20379,G4,621.8,3/10,127,80.0
20380,G1,621.8,3/10,127,80.0
20381,G5,621.8,3/10,127,80.0
20382,G4,621.8,3/10,127,80.0
20383,G5,621.8,3/10,127,80.0
20384,B4,621.875,0.125,127,80.0
20385,B4,622.0,0.125,127,80.0
20386,B4,622.125,0.125,127,80.0
20387,B4,622.25,0.125,127,80.0
20388,C#3,622.3,3/5,127,80.0
20389,B2,622.3,3/5,127,80.0
20390,B4,622.375,0.125,127,80.0
20391,B-4,622.4,3/10,127,80.0
20392,B-4,622.4,3/10,127,80.0
20393,B-1,622.4,3/10,127,80.0
20394,B-5,622.4,3/10,127,80.0
20395,B-4,622.4,3/10,127,80.0
20396,B-5,622.4,3/10,127,80.0
20397,B4,622.5,0.125,127,80.0
20398,B4,622.625,0.125,127,80.0
20399,B4,622.75,0.125,127,80.0
20400,B4,622.875,0.125,127,80.0
20401,C#3,622.9,3/5,127,80.0
20402,G2,622.9,3/5,127,80.0
20403,A4,623.0,2.0,127,80.0
20404,A4,623.0,2.0,127,80.0
20405,G1,623.0,2.0,127,80.0
20406,A5,623.0,2.0,127,80.0
20407,A4,623.0,2.0,127,80.0
20408,B4,623.0,0.125,127,80.0
20409,A5,623.0,0.125,127,80.0
20410,B4,623.125,0.125,127,80.0
20411,A5,623.125,0.125,127,80.0
20412,B4,623.25,0.125,127,80.0
20413,A5,623.25,0.125,127,80.0
20414,B4,623.375,0.125,127,80.0
20415,A5,623.375,0.125,127,80.0
20416,B4,623.5,0.125,127,80.0
20417,A5,623.5,0.125,127,80.0
20418,A3,623.5,1.0,127,80.0
20419,B1,623.5,1.0,127,80.0
20420,B4,623.625,0.125,127,80.0
20421,A5,623.625,0.125,127,80.0
20422,B4,623.75,0.125,127,80.0
20423,A5,623.75,0.125,127,80.0
20424,B4,623.875,0.125,127,80.0
20425,A5,623.875,0.125,127,80.0
20426,B4,624.0,0.125,127,80.0
20427,A5,624.0,0.125,127,80.0
20428,B4,624.125,0.125,127,80.0
20429,A5,624.125,0.125,127,80.0
20430,B4,624.25,0.125,127,80.0
20431,A5,624.25,0.125,127,80.0
20432,B4,624.375,31/250,127,80.0
20433,A5,624.375,0.125,127,80.0
20434,F3,624.5,0.5,127,80.0
20435,B-4,624.5,0.5,127,80.0
20436,A5,624.5,0.125,127,80.0
20437,A5,624.625,0.125,127,80.0
20438,A5,624.75,0.125,127,80.0
20439,A5,624.875,31/250,127,80.0
20440,D2,625.0,0.5,127,80.0
20441,G#4,625.0,333/1000,127,80.0
20442,B-4,625.167,167/1000,127,80.0
20443,B-4,625.167,167/1000,127,80.0
20444,B-5,625.167,167/1000,127,80.0
20445,B-4,625.167,167/1000,127,80.0
20446,B-5,625.167,167/1000,127,80.0
20447,B-4,625.333,167/1000,127,80.0
20448,B-4,625.333,167/1000,127,80.0
20449,B-5,625.333,167/1000,127,80.0
20450,B-4,625.333,167/1000,127,80.0
20451,G4,625.333,333/1000,127,80.0
20452,B-5,625.333,167/1000,127,80.0
20453,G4,625.5,167/1000,127,80.0
20454,G4,625.5,167/1000,127,80.0
20455,D2,625.5,167/1000,127,80.0
20456,G5,625.5,167/1000,127,80.0
20457,G4,625.5,167/1000,127,80.0
20458,G5,625.5,167/1000,127,80.0
20459,G4,625.667,167/1000,127,80.0
20460,G4,625.667,167/1000,127,80.0
20461,D2,625.667,167/1000,127,80.0
20462,G5,625.667,167/1000,127,80.0
20463,G4,625.667,167/1000,127,80.0
20464,F4,625.667,333/1000,127,80.0
20465,G5,625.667,167/1000,127,80.0
20466,B-4,625.833,167/1000,127,80.0
20467,B-4,625.833,167/1000,127,80.0
20468,D2,625.833,167/1000,127,80.0
20469,B-5,625.833,167/1000,127,80.0
20470,B-4,625.833,167/1000,127,80.0
20471,B-5,625.833,167/1000,127,80.0
20472,A4,626.0,1.25,127,80.0
20473,A4,626.0,1.25,127,80.0
20474,G1,626.0,3.0,127,80.0
20475,D2,626.0,167/1000,127,80.0
20476,A5,626.0,1.25,127,80.0
20477,A4,626.0,1.25,127,80.0
20478,E-4,626.0,0.5,127,80.0
20479,A5,626.0,0.125,127,80.0
20480,A5,626.125,0.125,127,80.0
20481,D2,626.167,167/1000,127,80.0
20482,A5,626.25,0.125,127,80.0
20483,F2,626.333,167/1000,127,80.0
20484,A5,626.375,0.125,127,80.0
20485,C#4,626.5,0.5,127,80.0
20486,A5,626.5,0.125,127,80.0
20487,C#3,626.5,1.0,127,80.0
20488,B1,626.5,1.0,127,80.0
20489,A5,626.625,0.125,127,80.0
20490,A5,626.75,0.125,127,80.0
20491,A5,626.875,0.125,127,80.0
20492,B3,627.0,0.5,127,80.0
20493,A5,627.0,0.125,127,80.0
20494,A5,627.125,31/250,127,80.0
20495,D4,627.25,0.25,127,80.0
20496,D4,627.25,0.25,127,80.0
20497,D5,627.25,0.25,127,80.0
20498,D4,627.25,0.25,127,80.0
20499,D5,627.25,0.25,127,80.0
20500,E4,627.5,0.25,127,80.0
20501,E4,627.5,0.25,127,80.0
20502,E-3,627.5,0.25,127,80.0
20503,E5,627.5,0.25,127,80.0
20504,E4,627.5,0.25,127,80.0
20505,C#4,627.5,0.5,127,80.0
20506,E5,627.5,0.25,127,80.0
20507,F4,627.75,0.25,127,80.0
20508,F4,627.75,0.25,127,80.0
20509,D2,627.75,0.25,127,80.0
20510,F5,627.75,0.25,127,80.0
20511,F4,627.75,0.25,127,80.0
20512,F5,627.75,0.25,127,80.0
20513,G4,628.0,0.25,127,80.0
20514,G4,628.0,0.25,127,80.0
20515,G5,628.0,0.25,127,80.0
20516,G4,628.0,0.25,127,80.0
20517,E-4,628.0,333/1000,127,80.0
20518,G5,628.0,0.25,127,80.0
20519,B2,628.0,0.25,127,80.0
20520,A2,628.0,0.25,127,80.0
20521,A4,628.25,0.25,127,80.0
20522,A4,628.25,0.25,127,80.0
20523,A5,628.25,0.25,127,80.0
20524,A4,628.25,0.25,127,80.0
20525,A5,628.25,0.25,127,80.0
20526,C3,628.25,0.25,127,80.0
20527,B2,628.25,0.25,127,80.0
20528,F4,628.333,333/1000,127,80.0
20529,B-4,628.5,0.25,127,80.0
20530,B-4,628.5,0.25,127,80.0
20531,B-5,628.5,0.25,127,80.0
20532,B-4,628.5,0.25,127,80.0
20533,B-5,628.5,0.25,127,80.0
20534,A2,628.5,0.25,127,80.0
20535,G2,628.5,0.25,127,80.0
20536,G4,628.667,333/1000,127,80.0
20537,C5,628.75,0.25,127,80.0
20538,C5,628.75,0.25,127,80.0
20539,C6,628.75,0.25,127,80.0
20540,C5,628.75,0.25,127,80.0
20541,C6,628.75,0.25,127,80.0
20542,A2,628.75,0.25,127,80.0
20543,G2,628.75,0.25,127,80.0
20544,D5,629.0,1/5,127,80.0
20545,D5,629.0,1/5,127,80.0
20546,G1,629.0,1.0,127,80.0
20547,D6,629.0,1/5,127,80.0
20548,D5,629.0,1/5,127,80.0
20549,G#4,629.0,0.5,127,80.0
20550,D6,629.0,1/5,127,80.0
20551,F2,629.0,0.25,127,80.0
20552,D2,629.0,0.25,127,80.0
20553,E5,629.2,1/5,127,80.0
20554,E5,629.2,1/5,127,80.0
20555,E6,629.2,1/5,127,80.0
20556,E5,629.2,1/5,127,80.0
20557,E6,629.2,1/5,127,80.0
20558,F2,629.25,0.25,127,80.0
20559,D2,629.25,0.25,127,80.0
20560,F5,629.4,1/5,127,80.0
20561,F5,629.4,1/5,127,80.0
20562,F6,629.4,1/5,127,80.0
20563,F5,629.4,1/5,127,80.0
20564,F6,629.4,1/5,127,80.0
20565,D2,629.5,1/5,127,80.0
20566,B-4,629.5,0.5,127,80.0
20567,G5,629.6,1/5,127,80.0
20568,G5,629.6,1/5,127,80.0
20569,G6,629.6,1/5,127,80.0
20570,G5,629.6,1/5,127,80.0
20571,G6,629.6,1/5,127,80.0
20572,D2,629.7,1/5,127,80.0
20573,A5,629.8,1/5,127,80.0
20574,A5,629.8,1/5,127,80.0
20575,A6,629.8,1/5,127,80.0
20576,A5,629.8,1/5,127,80.0
20577,A6,629.8,1/5,127,80.0
20578,D2,629.9,1/5,127,80.0
20579,B5,630.0,2.0,127,80.0
20580,B5,630.0,2.0,127,80.0
20581,F#1,630.0,2.0,127,80.0
20582,B6,630.0,2.0,127,80.0
20583,B5,630.0,2.0,127,80.0
20584,C5,630.0,167/1000,127,80.0
20585,B6,630.0,0.125,127,80.0
20586,D2,630.1,1/5,127,80.0
20587,B6,630.125,0.125,127,80.0
20588,C#5,630.167,167/1000,127,80.0
20589,B6,630.25,0.125,127,80.0
20590,D2,630.3,1/5,127,80.0
20591,E-5,630.333,167/1000,127,80.0
20592,B6,630.375,0.125,127,80.0
20593,F5,630.5,167/1000,127,80.0
20594,B6,630.5,0.125,127,80.0
20595,C#3,630.5,1.0,127,80.0
20596,B1,630.5,1.0,127,80.0
20597,B6,630.625,0.125,127,80.0
20598,F#5,630.667,167/1000,127,80.0
20599,B6,630.75,0.125,127,80.0
20600,G#5,630.833,167/1000,127,80.0
20601,B6,630.875,0.125,127,80.0
20602,B-5,631.0,0.125,127,80.0
20603,B6,631.0,0.125,127,80.0
20604,B-5,631.125,0.125,127,80.0
20605,B6,631.125,0.125,127,80.0
20606,B-5,631.25,0.125,127,80.0
20607,B6,631.25,0.125,127,80.0
20608,B-5,631.375,0.125,127,80.0
20609,B6,631.375,0.125,127,80.0
20610,E-3,631.5,0.5,127,80.0
20611,B-5,631.5,0.125,127,80.0
20612,B6,631.5,0.125,127,80.0
20613,B-5,631.625,0.125,127,80.0
20614,B6,631.625,0.125,127,80.0
20615,B-5,631.75,0.125,127,80.0
20616,B6,631.75,0.125,127,80.0
20617,B-5,631.875,0.125,127,80.0
20618,B6,631.875,0.125,127,80.0
20619,B5,632.0,2.0,127,80.0
20620,B5,632.0,2.0,127,80.0
20621,F#1,632.0,3.0,127,80.0
20622,E-3,632.0,333/1000,127,80.0
20623,B6,632.0,2.0,127,80.0
20624,B5,632.0,2.0,127,80.0
20625,B-5,632.0,0.125,127,80.0
20626,B6,632.0,0.125,127,80.0
20627,B-5,632.125,0.125,127,80.0
20628,B6,632.125,0.125,127,80.0
20629,B-5,632.25,0.125,127,80.0
20630,B6,632.25,0.125,127,80.0
20631,B1,632.333,167/1000,127,80.0
20632,B-5,632.375,0.125,127,80.0
20633,B6,632.375,0.125,127,80.0
20634,B-5,632.5,0.125,127,80.0
20635,B6,632.5,0.125,127,80.0
20636,E-3,632.5,0.25,127,80.0
20637,D2,632.5,0.25,127,80.0
20638,B-5,632.625,0.125,127,80.0
20639,B6,632.625,0.125,127,80.0
20640,E-3,632.75,0.25,127,80.0
20641,B-5,632.75,0.125,127,80.0
20642,B6,632.75,0.125,127,80.0
20643,B-5,632.875,0.125,127,80.0
20644,B6,632.875,0.125,127,80.0
20645,F3,633.0,0.25,127,80.0
20646,B-5,633.0,0.125,127,80.0
20647,B6,633.0,0.125,127,80.0
20648,B-5,633.125,31/250,127,80.0
20649,B6,633.125,0.125,127,80.0
20650,E-3,633.25,0.25,127,80.0
20651,G#5,633.25,0.25,127,80.0
20652,B6,633.25,0.125,127,80.0
20653,B6,633.375,0.125,127,80.0
20654,F#5,633.5,0.25,127,80.0
20655,B6,633.5,0.125,127,80.0
20656,E-3,633.5,0.25,127,80.0
20657,B1,633.5,0.25,127,80.0
20658,B6,633.625,0.125,127,80.0
20659,E-3,633.75,0.25,127,80.0
20660,F5,633.75,0.25,127,80.0
20661,B6,633.75,0.125,127,80.0
20662,B6,633.875,31/250,127,80.0
20663,F3,634.0,0.25,127,80.0
20664,E-5,634.0,333/1000,127,80.0
20665,E-3,634.25,0.25,127,80.0
20666,C#5,634.333,333/1000,127,80.0
20667,E-3,634.5,0.5,127,80.0
20668,B1,634.5,0.5,127,80.0
20669,B4,634.667,333/1000,127,80.0
20670,D2,635.0,167/1000,127,80.0
20671,B4,635.0,0.125,127,80.0
20672,G#4,635.125,0.125,127,80.0
20673,D2,635.167,167/1000,127,80.0
20674,A5,635.2,1/5,127,80.0
20675,A5,635.2,1/5,127,80.0
20676,A2,635.2,1/5,127,80.0
20677,A6,635.2,1/5,127,80.0
20678,A5,635.2,1/5,127,80.0
20679,A6,635.2,1/5,127,80.0
20680,B4,635.25,0.125,127,80.0
20681,D2,635.333,167/1000,127,80.0
20682,G#4,635.375,0.125,127,80.0
20683,B5,635.4,1/5,127,80.0
20684,B5,635.4,1/5,127,80.0
20685,B2,635.4,1/5,127,80.0
20686,B6,635.4,1/5,127,80.0
20687,B5,635.4,1/5,127,80.0
20688,B6,635.4,1/5,127,80.0
20689,D2,635.5,1/5,127,80.0
20690,G4,635.5,0.125,127,80.0
20691,F#5,635.6,1/5,127,80.0
20692,F#5,635.6,1/5,127,80.0
20693,F#2,635.6,1/5,127,80.0
20694,F#6,635.6,1/5,127,80.0
20695,F#5,635.6,1/5,127,80.0
20696,F#6,635.6,1/5,127,80.0
20697,G4,635.625,0.125,127,80.0
20698,D2,635.7,1/5,127,80.0
20699,G4,635.75,0.125,127,80.0
20700,G#5,635.8,1/5,127,80.0
20701,G#5,635.8,1/5,127,80.0
20702,G#2,635.8,1/5,127,80.0
20703,G#6,635.8,1/5,127,80.0
20704,G#5,635.8,1/5,127,80.0
20705,G#6,635.8,1/5,127,80.0
20706,G4,635.875,0.125,127,80.0
20707,D2,635.9,1/5,127,80.0
20708,C#5,636.0,2.0,127,80.0
20709,C#5,636.0,2.0,127,80.0
20710,C#2,636.0,2.0,127,80.0
20711,C#6,636.0,2.0,127,80.0
20712,C#5,636.0,2.0,127,80.0
20713,G4,636.0,0.125,127,80.0
20714,C#6,636.0,0.125,127,80.0
20715,D2,636.1,1/5,127,80.0
20716,G4,636.125,0.125,127,80.0
20717,C#6,636.125,0.125,127,80.0
20718,G4,636.25,0.125,127,80.0
20719,C#6,636.25,0.125,127,80.0
20720,D2,636.3,1/5,127,80.0
20721,G4,636.375,0.125,127,80.0
20722,C#6,636.375,0.125,127,80.0
20723,G4,636.5,0.125,127,80.0
20724,C#6,636.5,0.125,127,80.0
20725,C#3,636.5,1.0,127,80.0
20726,B1,636.5,1.0,127,80.0
20727,G4,636.625,0.125,127,80.0
20728,C#6,636.625,0.125,127,80.0
20729,G4,636.75,0.125,127,80.0
20730,C#6,636.75,0.125,127,80.0
20731,G4,636.875,0.125,127,80.0
20732,C#6,636.875,0.125,127,80.0
20733,G4,637.0,0.125,127,80.0
20734,C#6,637.0,0.125,127,80.0
20735,G4,637.125,0.125,127,80.0
20736,C#6,637.125,0.125,127,80.0
20737,G4,637.25,0.125,127,80.0
20738,C#6,637.25,0.125,127,80.0
20739,G4,637.375,0.125,127,80.0
20740,C#6,637.375,0.125,127,80.0
20741,E-3,637.5,1.0,127,80.0
20742,G4,637.5,0.125,127,80.0
20743,C#6,637.5,0.125,127,80.0
20744,G4,637.625,0.125,127,80.0
20745,C#6,637.625,0.125,127,80.0
20746,G4,637.75,0.125,127,80.0
20747,C#6,637.75,0.125,127,80.0
20748,G4,637.875,0.125,127,80.0
20749,C#6,637.875,31/250,127,80.0
20750,C#6,638.0,0.25,127,80.0
20751,C#6,638.0,0.25,127,80.0
20752,C#3,638.0,0.25,127,80.0
20753,C#7,638.0,0.25,127,80.0
20754,C#6,638.0,0.25,127,80.0
20755,G4,638.0,0.125,127,80.0
20756,C#7,638.0,0.25,127,80.0
20757,G4,638.125,0.125,127,80.0
20758,B5,638.25,0.25,127,80.0
20759,B5,638.25,0.25,127,80.0
20760,B2,638.25,0.25,127,80.0
20761,B6,638.25,0.25,127,80.0
20762,B5,638.25,0.25,127,80.0
20763,G4,638.25,0.125,127,80.0
20764,B6,638.25,0.25,127,80.0
20765,G4,638.375,0.125,127,80.0
20766,A5,638.5,0.25,127,80.0
20767,A5,638.5,0.25,127,80.0
20768,A2,638.5,0.25,127,80.0
20769,E-3,638.5,0.25,127,80.0
20770,A6,638.5,0.25,127,80.0
20771,A5,638.5,0.25,127,80.0
20772,G4,638.5,0.125,127,80.0
20773,A6,638.5,0.25,127,80.0
20774,G4,638.625,0.125,127,80.0
20775,G#5,638.75,0.25,127,80.0
20776,G#5,638.75,0.25,127,80.0
20777,G#2,638.75,0.25,127,80.0
20778,D2,638.75,0.25,127,80.0
20779,G#6,638.75,0.25,127,80.0
20780,G#5,638.75,0.25,127,80.0
20781,G4,638.75,0.125,127,80.0
20782,G#6,638.75,0.25,127,80.0
20783,G4,638.875,31/250,127,80.0
20784,F#5,639.0,0.25,127,80.0
20785,F#5,639.0,0.25,127,80.0
20786,F#2,639.0,0.25,127,80.0
20787,B2,639.0,0.25,127,80.0
20788,F#6,639.0,0.25,127,80.0
20789,F#5,639.0,0.25,127,80.0
20790,B4,639.0,0.25,127,80.0
20791,F#6,639.0,0.25,127,80.0
20792,E5,639.25,0.25,127,80.0
20793,E5,639.25,0.25,127,80.0
20794,E2,639.25,0.25,127,80.0
20795,D3,639.25,0.25,127,80.0
20796,E6,639.25,0.25,127,80.0
20797,E5,639.25,0.25,127,80.0
20798,C5,639.25,0.25,127,80.0
20799,E6,639.25,0.25,127,80.0
20800,E-5,639.5,0.25,127,80.0
20801,E-5,639.5,0.25,127,80.0
20802,E-2,639.5,0.25,127,80.0
20803,A2,639.5,0.25,127,80.0
20804,E-6,639.5,0.25,127,80.0
20805,E-5,639.5,0.25,127,80.0
20806,D5,639.5,0.25,127,80.0
20807,E-6,639.5,0.25,127,80.0
20808,C#5,639.75,0.25,127,80.0
20809,C#5,639.75,0.25,127,80.0
20810,C#2,639.75,0.25,127,80.0
20811,C#6,639.75,0.25,127,80.0
20812,C#5,639.75,0.25,127,80.0
20813,E-5,639.75,0.25,127,80.0
20814,C#6,639.75,0.25,127,80.0
20815,B2,639.75,0.25,127,80.0
20816,A2,639.75,0.25,127,80.0
20817,B4,640.0,0.25,127,80.0
20818,B4,640.0,0.25,127,80.0
20819,B1,640.0,0.25,127,80.0
20820,B5,640.0,0.25,127,80.0
20821,B4,640.0,0.25,127,80.0
20822,F5,640.0,0.25,127,80.0
20823,B5,640.0,0.25,127,80.0
20824,G2,640.0,0.25,127,80.0
20825,F2,640.0,0.25,127,80.0
20826,A4,640.25,0.25,127,80.0
20827,A4,640.25,0.25,127,80.0
20828,A1,640.25,0.25,127,80.0
20829,G2,640.25,0.25,127,80.0
20830,A5,640.25,0.25,127,80.0
20831,A4,640.25,0.25,127,80.0
20832,G5,640.25,0.25,127,80.0
20833,A5,640.25,0.25,127,80.0
20834,G#4,640.5,0.25,127,80.0
20835,G#4,640.5,0.25,127,80.0
20836,G#1,640.5,0.25,127,80.0
20837,G#5,640.5,0.25,127,80.0
20838,G#4,640.5,0.25,127,80.0
20839,G#5,640.5,0.25,127,80.0
20840,G#5,640.5,0.25,127,80.0
20841,F2,640.5,0.25,127,80.0
20842,D2,640.5,0.25,127,80.0
20843,F#4,640.75,0.25,127,80.0
20844,F#4,640.75,0.25,127,80.0
20845,F#1,640.75,0.25,127,80.0
20846,D2,640.75,0.25,127,80.0
20847,F#5,640.75,0.25,127,80.0
20848,F#4,640.75,0.25,127,80.0
20849,G5,640.75,0.25,127,80.0
20850,F#5,640.75,0.25,127,80.0
20851,F4,641.0,2.0,127,80.0
20852,F4,641.0,2.0,127,80.0
20853,F1,641.0,3.0,127,80.0
20854,D2,641.0,0.25,127,80.0
20855,F5,641.0,2.0,127,80.0
20856,F4,641.0,2.0,127,80.0
20857,F5,641.0,0.25,127,80.0
20858,F5,641.0,0.125,127,80.0
20859,F5,641.125,0.125,127,80.0
20860,D2,641.25,0.25,127,80.0
20861,E-5,641.25,0.25,127,80.0
20862,F5,641.25,0.125,127,80.0
20863,F5,641.375,0.125,127,80.0
20864,D5,641.5,0.25,127,80.0
20865,F5,641.5,0.125,127,80.0
20866,E-3,641.5,0.5,127,80.0
20867,C#3,641.5,0.5,127,80.0
20868,B1,641.5,0.5,127,80.0
20869,F5,641.625,0.125,127,80.0
20870,C5,641.75,0.25,127,80.0
20871,F5,641.75,0.125,127,80.0
20872,F5,641.875,0.125,127,80.0
20873,E-3,642.0,0.5,127,80.0
20874,B4,642.0,0.125,127,80.0
20875,F5,642.0,0.125,127,80.0
20876,B4,642.125,0.125,127,80.0
20877,F5,642.125,0.125,127,80.0
20878,B4,642.25,0.125,127,80.0
20879,F5,642.25,0.125,127,80.0
20880,B4,642.375,0.125,127,80.0
20881,F5,642.375,0.125,127,80.0
20882,E-3,642.5,0.5,127,80.0
20883,B4,642.5,0.125,127,80.0
20884,F5,642.5,0.125,127,80.0
20885,B4,642.625,0.125,127,80.0
20886,F5,642.625,0.125,127,80.0
20887,B4,642.75,0.125,127,80.0
20888,F5,642.75,0.125,127,80.0
20889,B4,642.875,0.125,127,80.0
20890,F5,642.875,31/250,127,80.0
20891,E-3,643.0,0.5,127,80.0
20892,B4,643.0,0.125,127,80.0
20893,B4,643.125,0.125,127,80.0
20894,G4,643.25,0.25,127,80.0
20895,G4,643.25,0.25,127,80.0
20896,G5,643.25,0.25,127,80.0
20897,G4,643.25,0.25,127,80.0
20898,B4,643.25,0.125,127,80.0
20899,G5,643.25,0.25,127,80.0
20900,B4,643.375,0.125,127,80.0
20901,G#4,643.5,0.25,127,80.0
20902,G#4,643.5,0.25,127,80.0
20903,D2,643.5,0.25,127,80.0
20904,G#5,643.5,0.25,127,80.0
20905,G#4,643.5,0.25,127,80.0
20906,B4,643.5,0.125,127,80.0
20907,G#5,643.5,0.25,127,80.0
20908,B4,643.625,0.125,127,80.0
20909,B-4,643.75,0.25,127,80.0
20910,B-4,643.75,0.25,127,80.0
20911,E-3,643.75,0.25,127,80.0
20912,B-5,643.75,0.25,127,80.0
20913,B-4,643.75,0.25,127,80.0
20914,B4,643.75,0.125,127,80.0
20915,B-5,643.75,0.25,127,80.0
20916,B4,643.875,0.125,127,80.0
20917,G4,644.0,1.0,127,80.0
20918,G4,644.0,1.0,127,80.0
20919,G1,644.0,1.0,127,80.0
20920,D2,644.0,0.25,127,80.0
20921,G5,644.0,1.0,127,80.0
20922,G4,644.0,1.0,127,80.0
20923,B4,644.0,0.125,127,80.0
20924,G5,644.0,0.125,127,80.0
20925,B4,644.125,0.125,127,80.0
20926,G5,644.125,0.125,127,80.0
20927,D2,644.25,0.25,127,80.0
20928,B4,644.25,0.125,127,80.0
20929,G5,644.25,0.125,127,80.0
20930,B4,644.375,0.125,127,80.0
20931,G5,644.375,0.125,127,80.0
20932,B4,644.5,0.125,127,80.0
20933,G5,644.5,0.125,127,80.0
20934,E-3,644.5,0.5,127,80.0
20935,C#3,644.5,0.5,127,80.0
20936,B1,644.5,0.5,127,80.0
20937,B4,644.625,0.125,127,80.0
20938,G5,644.625,0.125,127,80.0
20939,B4,644.75,0.125,127,80.0
20940,G5,644.75,0.125,127,80.0
20941,B4,644.875,31/250,127,80.0
20942,G5,644.875,31/250,127,80.0
20943,E-3,645.0,0.25,127,80.0
20944,B-4,645.0,34/125,127,80.0
20945,D2,645.25,0.25,127,80.0
20946,F4,645.272,34/125,127,80.0
20947,G4,645.5,1.5,127,80.0
20948,G4,645.5,1.5,127,80.0
20949,G1,645.5,1.5,127,80.0
20950,G5,645.5,1.5,127,80.0
20951,G4,645.5,1.5,127,80.0
20952,G5,645.5,0.125,127,80.0
20953,E-3,645.5,0.5,127,80.0
20954,D2,645.5,0.5,127,80.0
20955,F4,645.544,34/125,127,80.0
20956,G5,645.625,0.125,127,80.0
20957,G5,645.75,0.125,127,80.0
20958,F4,645.816,34/125,127,80.0
20959,G5,645.875,0.125,127,80.0
20960,G5,646.0,0.125,127,80.0
20961,G3,646.0,0.5,127,80.0
20962,B1,646.0,0.5,127,80.0
20963,A4,646.087,34/125,127,80.0
20964,G5,646.125,0.125,127,80.0
20965,G5,646.25,0.125,127,80.0
20966,G4,646.359,34/125,127,80.0
20967,G5,646.375,0.125,127,80.0
20968,E-3,646.5,167/1000,127,80.0
20969,G5,646.5,0.125,127,80.0
20970,G5,646.625,0.125,127,80.0
20971,C5,646.631,34/125,127,80.0
20972,D2,646.667,167/1000,127,80.0
20973,G5,646.75,0.125,127,80.0
20974,E-3,646.833,167/1000,127,80.0
20975,G5,646.875,31/250,127,80.0
20976,C5,646.903,34/125,127,80.0
20977,F1,647.0,1.5,127,80.0
20978,D2,647.0,167/1000,127,80.0
20979,D2,647.167,167/1000,127,80.0
20980,C5,647.175,34/125,127,80.0
20981,E-4,647.25,0.25,127,80.0
20982,E-4,647.25,0.25,127,80.0
20983,E-5,647.25,0.25,127,80.0
20984,E-4,647.25,0.25,127,80.0
20985,E-5,647.25,0.25,127,80.0
20986,D2,647.333,167/1000,127,80.0
20987,G4,647.447,34/125,127,80.0
20988,F#4,647.5,0.25,127,80.0
20989,F#4,647.5,0.25,127,80.0
20990,F#5,647.5,0.25,127,80.0
20991,F#4,647.5,0.25,127,80.0
20992,F#5,647.5,0.25,127,80.0
20993,E-3,647.5,0.25,127,80.0
20994,C#3,647.5,0.25,127,80.0
20995,B1,647.5,0.25,127,80.0
20996,A4,647.719,34/125,127,80.0
20997,B-3,647.75,0.25,127,80.0
20998,B-3,647.75,0.25,127,80.0
20999,B1,647.75,0.25,127,80.0
21000,B-4,647.75,0.25,127,80.0
21001,B-3,647.75,0.25,127,80.0
21002,B-4,647.75,0.25,127,80.0
21003,C4,648.0,0.25,127,80.0
21004,C4,648.0,0.25,127,80.0
21005,E-3,648.0,0.25,127,80.0
21006,C5,648.0,0.25,127,80.0
21007,C4,648.0,0.25,127,80.0
21008,A4,648.0,3/10,127,80.0
21009,C5,648.0,0.25,127,80.0
21010,E4,648.25,0.25,127,80.0
21011,E4,648.25,0.25,127,80.0
21012,B1,648.25,0.25,127,80.0
21013,E5,648.25,0.25,127,80.0
21014,E4,648.25,0.25,127,80.0
21015,E5,648.25,0.25,127,80.0
21016,G#4,648.5,0.25,127,80.0
21017,G#4,648.5,0.25,127,80.0
21018,B-1,648.5,0.5,127,80.0
21019,G#5,648.5,0.25,127,80.0
21020,G#4,648.5,0.25,127,80.0
21021,G#5,648.5,0.25,127,80.0
21022,E3,648.5,0.25,127,80.0
21023,D2,648.5,0.25,127,80.0
21024,C5,648.6,3/10,127,80.0
21025,C4,648.75,0.25,127,80.0
21026,C4,648.75,0.25,127,80.0
21027,E-3,648.75,0.25,127,80.0
21028,C5,648.75,0.25,127,80.0
21029,C4,648.75,0.25,127,80.0
21030,C5,648.75,0.25,127,80.0
21031,F4,649.0,1.0,127,80.0
21032,F4,649.0,1.0,127,80.0
21033,F1,649.0,1.0,127,80.0
21034,F3,649.0,0.25,127,80.0
21035,F5,649.0,1.0,127,80.0
21036,F4,649.0,1.0,127,80.0
21037,F5,649.0,0.125,127,80.0
21038,F5,649.125,0.125,127,80.0
21039,D5,649.2,3/10,127,80.0
21040,B1,649.25,0.25,127,80.0
21041,F5,649.25,0.125,127,80.0
21042,F5,649.375,0.125,127,80.0
21043,F5,649.5,0.125,127,80.0
21044,E-3,649.5,0.5,127,80.0
21045,B1,649.5,0.5,127,80.0
21046,F5,649.625,0.125,127,80.0
21047,F5,649.75,0.125,127,80.0
21048,G4,649.8,3/10,127,80.0
21049,F5,649.875,0.125,127,80.0
21050,F4,650.0,1.0,127,80.0
21051,F4,650.0,1.0,127,80.0
21052,F2,650.0,333/1000,127,80.0
21053,E-3,650.0,0.25,127,80.0
21054,F5,650.0,1.0,127,80.0
21055,F4,650.0,1.0,127,80.0
21056,F5,650.0,0.125,127,80.0
21057,F5,650.125,0.125,127,80.0
21058,D2,650.25,0.25,127,80.0
21059,F5,650.25,0.125,127,80.0
21060,F2,650.333,333/1000,127,80.0
21061,F5,650.375,0.125,127,80.0
21062,B-4,650.4,3/10,127,80.0
21063,E-3,650.5,0.25,127,80.0
21064,F5,650.5,0.125,127,80.0
21065,F5,650.625,0.125,127,80.0
21066,C2,650.667,333/1000,127,80.0
21067,D2,650.75,0.25,127,80.0
21068,F5,650.75,0.125,127,80.0
21069,F5,650.875,31/250,127,80.0
21070,F2,651.0,2.0,127,80.0
21071,E-3,651.0,0.25,127,80.0
21072,A4,651.0,0.125,127,80.0
21073,A4,651.125,0.125,127,80.0
21074,D2,651.25,0.25,127,80.0
21075,A4,651.25,0.125,127,80.0
21076,A4,651.375,0.125,127,80.0
21077,F4,651.5,167/1000,127,80.0
21078,F4,651.5,167/1000,127,80.0
21079,F5,651.5,167/1000,127,80.0
21080,F4,651.5,167/1000,127,80.0
21081,A4,651.5,0.125,127,80.0
21082,F5,651.5,167/1000,127,80.0
21083,E-3,651.5,0.5,127,80.0
21084,D2,651.5,0.5,127,80.0
21085,A4,651.625,0.125,127,80.0
21086,F4,651.667,167/1000,127,80.0
21087,F4,651.667,167/1000,127,80.0
21088,F5,651.667,167/1000,127,80.0
21089,F4,651.667,167/1000,127,80.0
21090,F5,651.667,167/1000,127,80.0
21091,A4,651.75,0.125,127,80.0
21092,F4,651.833,167/1000,127,80.0
21093,F4,651.833,167/1000,127,80.0
21094,F5,651.833,167/1000,127,80.0
21095,F4,651.833,167/1000,127,80.0
21096,F5,651.833,167/1000,127,80.0
21097,A4,651.875,0.125,127,80.0
21098,F4,652.0,0.25,127,80.0
21099,F4,652.0,0.25,127,80.0
21100,F5,652.0,0.25,127,80.0
21101,F4,652.0,0.25,127,80.0
21102,A4,652.0,0.125,127,80.0
21103,F5,652.0,0.25,127,80.0
21104,C#3,652.0,167/1000,127,80.0
21105,D2,652.0,167/1000,127,80.0
21106,A4,652.125,0.125,127,80.0
21107,C#3,652.167,167/1000,127,80.0
21108,D2,652.167,167/1000,127,80.0
21109,F4,652.25,0.25,127,80.0
21110,F4,652.25,0.25,127,80.0
21111,F5,652.25,0.25,127,80.0
21112,F4,652.25,0.25,127,80.0
21113,A4,652.25,0.125,127,80.0
21114,F5,652.25,0.25,127,80.0
21115,C#3,652.333,167/1000,127,80.0
21116,D2,652.333,167/1000,127,80.0
21117,A4,652.375,0.125,127,80.0
21118,F4,652.5,0.25,127,80.0
21119,F4,652.5,0.25,127,80.0
21120,F5,652.5,0.25,127,80.0
21121,F4,652.5,0.25,127,80.0
21122,A4,652.5,0.125,127,80.0
21123,F5,652.5,0.25,127,80.0
21124,C#3,652.5,0.25,127,80.0
21125,D2,652.5,0.25,127,80.0
21126,A4,652.625,0.125,127,80.0
21127,F4,652.75,0.25,127,80.0
21128,F4,652.75,0.25,127,80.0
21129,F5,652.75,0.25,127,80.0
21130,F4,652.75,0.25,127,80.0
21131,A4,652.75,0.125,127,80.0
21132,F5,652.75,0.25,127,80.0
21133,C#3,652.75,0.25,127,80.0
21134,B1,652.75,0.25,127,80.0
21135,A4,652.875,31/250,127,80.0
21136,F4,653.0,1.0,127,80.0
21137,F4,653.0,1.0,127,80.0
21138,E1,653.0,1.5,127,80.0
21139,D2,653.0,0.25,127,80.0
21140,F5,653.0,1.0,127,80.0
21141,F4,653.0,1.0,127,80.0
21142,F5,653.0,0.125,127,80.0
21143,F5,653.125,0.125,127,80.0
21144,B-4,653.167,167/1000,127,80.0
21145,B1,653.25,0.25,127,80.0
21146,F5,653.25,0.125,127,80.0
21147,B-4,653.333,167/1000,127,80.0
21148,F5,653.375,0.125,127,80.0
21149,G4,653.5,167/1000,127,80.0
21150,F5,653.5,0.125,127,80.0
21151,A3,653.5,0.5,127,80.0
21152,B1,653.5,0.5,127,80.0
21153,F5,653.625,0.125,127,80.0
21154,G4,653.667,167/1000,127,80.0
21155,F5,653.75,0.125,127,80.0
21156,B-4,653.833,167/1000,127,80.0
21157,F5,653.875,31/250,127,80.0
21158,E-3,654.0,0.5,127,80.0
21159,A4,654.0,0.125,127,80.0
21160,A4,654.125,0.125,127,80.0
21161,A4,654.25,0.125,127,80.0
21162,A4,654.375,0.125,127,80.0
21163,G4,654.5,0.25,127,80.0
21164,G4,654.5,0.25,127,80.0
21165,E2,654.5,1.5,127,80.0
21166,G5,654.5,0.25,127,80.0
21167,G4,654.5,0.25,127,80.0
21168,A4,654.5,0.125,127,80.0
21169,G5,654.5,0.25,127,80.0
21170,E-3,654.5,0.5,127,80.0
21171,D2,654.5,0.5,127,80.0
21172,A4,654.625,0.125,127,80.0
21173,A4,654.75,0.25,127,80.0
21174,A4,654.75,0.25,127,80.0
21175,A5,654.75,0.25,127,80.0
21176,A4,654.75,0.25,127,80.0
21177,A4,654.75,0.125,127,80.0
21178,A5,654.75,0.25,127,80.0
21179,A4,654.875,0.125,127,80.0
21180,B4,655.0,0.25,127,80.0
21181,B4,655.0,0.25,127,80.0
21182,E-3,655.0,0.25,127,80.0
21183,B5,655.0,0.25,127,80.0
21184,B4,655.0,0.25,127,80.0
21185,A4,655.0,0.125,127,80.0
21186,B5,655.0,0.25,127,80.0
21187,A4,655.125,31/250,127,80.0
21188,C5,655.25,0.25,127,80.0
21189,C5,655.25,0.25,127,80.0
21190,G2,655.25,0.25,127,80.0
21191,C6,655.25,0.25,127,80.0
21192,C5,655.25,0.25,127,80.0
21193,D4,655.25,0.25,127,80.0
21194,C6,655.25,0.25,127,80.0
21195,D5,655.5,0.25,127,80.0
21196,D5,655.5,0.25,127,80.0
21197,D6,655.5,0.25,127,80.0
21198,D5,655.5,0.25,127,80.0
21199,E4,655.5,0.25,127,80.0
21200,D6,655.5,0.25,127,80.0
21201,E-3,655.5,0.25,127,80.0
21202,A2,655.5,0.25,127,80.0
21203,E5,655.75,0.25,127,80.0
21204,E5,655.75,0.25,127,80.0
21205,F3,655.75,0.25,127,80.0
21206,E6,655.75,0.25,127,80.0
21207,E5,655.75,0.25,127,80.0
21208,F4,655.75,0.25,127,80.0
21209,E6,655.75,0.25,127,80.0
21210,E5,656.0,0.25,127,80.0
21211,E5,656.0,0.25,127,80.0
21212,E2,656.0,3.0,127,80.0
21213,A2,656.0,0.25,127,80.0
21214,E6,656.0,0.25,127,80.0
21215,E5,656.0,0.25,127,80.0
21216,G4,656.0,0.25,127,80.0
21217,E6,656.0,0.25,127,80.0
21218,C5,656.25,0.25,127,80.0
21219,C5,656.25,0.25,127,80.0
21220,E-3,656.25,0.25,127,80.0
21221,C6,656.25,0.25,127,80.0
21222,C5,656.25,0.25,127,80.0
21223,A4,656.25,0.25,127,80.0
21224,C6,656.25,0.25,127,80.0
21225,B4,656.5,0.25,127,80.0
21226,B4,656.5,0.25,127,80.0
21227,B5,656.5,0.25,127,80.0
21228,B4,656.5,0.25,127,80.0
21229,B-4,656.5,0.25,127,80.0
21230,B5,656.5,0.25,127,80.0
21231,D3,656.5,0.25,127,80.0
21232,C3,656.5,0.25,127,80.0
21233,G4,656.75,0.25,127,80.0
21234,G4,656.75,0.25,127,80.0
21235,G5,656.75,0.25,127,80.0
21236,G4,656.75,0.25,127,80.0
21237,C5,656.75,0.25,127,80.0
21238,G5,656.75,0.25,127,80.0
21239,F2,656.75,0.25,127,80.0
21240,D2,656.75,0.25,127,80.0
21241,F4,657.0,0.25,127,80.0
21242,F4,657.0,0.25,127,80.0
21243,F5,657.0,0.25,127,80.0
21244,F4,657.0,0.25,127,80.0
21245,D5,657.0,1/5,127,80.0
21246,F5,657.0,0.25,127,80.0
21247,D3,657.0,0.25,127,80.0
21248,C3,657.0,0.25,127,80.0
21249,E5,657.2,1/5,127,80.0
21250,C5,657.25,0.25,127,80.0
21251,C5,657.25,0.25,127,80.0
21252,C6,657.25,0.25,127,80.0
21253,C5,657.25,0.25,127,80.0
21254,C6,657.25,0.25,127,80.0
21255,C3,657.25,0.25,127,80.0
21256,B2,657.25,0.25,127,80.0
21257,F5,657.4,1/5,127,80.0
21258,B4,657.5,0.25,127,80.0
21259,B4,657.5,0.25,127,80.0
21260,B5,657.5,0.25,127,80.0
21261,B4,657.5,0.25,127,80.0
21262,B5,657.5,0.25,127,80.0
21263,C3,657.5,0.25,127,80.0
21264,B2,657.5,0.25,127,80.0
21265,G5,657.6,1/5,127,80.0
21266,G4,657.75,0.25,127,80.0
21267,G4,657.75,0.25,127,80.0
21268,D3,657.75,0.25,127,80.0
21269,G5,657.75,0.25,127,80.0
21270,G4,657.75,0.25,127,80.0
21271,G5,657.75,0.25,127,80.0
21272,A5,657.8,1/5,127,80.0
21273,E4,658.0,1/5,127,80.0
21274,E4,658.0,1/5,127,80.0
21275,E5,658.0,1/5,127,80.0
21276,E4,658.0,1/5,127,80.0
21277,B5,658.0,0.125,127,80.0
21278,E5,658.0,1/5,127,80.0
21279,B2,658.0,0.25,127,80.0
21280,A2,658.0,0.25,127,80.0
21281,B5,658.125,0.125,127,80.0
21282,B3,658.2,1/5,127,80.0
21283,B3,658.2,1/5,127,80.0
21284,B4,658.2,1/5,127,80.0
21285,B3,658.2,1/5,127,80.0
21286,B4,658.2,1/5,127,80.0
21287,B5,658.25,0.125,127,80.0
21288,A2,658.25,0.25,127,80.0
21289,F2,658.25,0.25,127,80.0
21290,B5,658.375,0.125,127,80.0
21291,D4,658.4,1/5,127,80.0
21292,D4,658.4,1/5,127,80.0
21293,D5,658.4,1/5,127,80.0
21294,D4,658.4,1/5,127,80.0
21295,D5,658.4,1/5,127,80.0
21296,E-3,658.5,1/5,127,80.0
21297,B5,658.5,0.125,127,80.0
21298,G4,658.6,1/5,127,80.0
21299,G4,658.6,1/5,127,80.0
21300,G5,658.6,1/5,127,80.0
21301,G4,658.6,1/5,127,80.0
21302,G5,658.6,1/5,127,80.0
21303,B5,658.625,0.125,127,80.0
21304,A2,658.7,1/5,127,80.0
21305,B5,658.75,0.125,127,80.0
21306,E4,658.8,1/5,127,80.0
21307,E4,658.8,1/5,127,80.0
21308,E5,658.8,1/5,127,80.0
21309,E4,658.8,1/5,127,80.0
21310,E5,658.8,1/5,127,80.0
21311,B5,658.875,0.125,127,80.0
21312,F3,658.9,1/5,127,80.0
21313,F#4,659.0,333/1000,127,80.0
21314,F#4,659.0,333/1000,127,80.0
21315,F#1,659.0,333/1000,127,80.0
21316,F#5,659.0,333/1000,127,80.0
21317,F#4,659.0,333/1000,127,80.0
21318,B5,659.0,0.125,127,80.0
21319,F#5,659.0,333/1000,127,80.0
21320,B2,659.1,1/5,127,80.0
21321,A2,659.1,1/5,127,80.0
21322,B5,659.125,0.125,127,80.0
21323,B5,659.25,0.125,127,80.0
21324,E-3,659.3,1/5,127,80.0
21325,B5,659.375,0.125,127,80.0
21326,B5,659.5,0.125,127,80.0
21327,F3,659.5,333/1000,127,80.0
21328,B2,659.5,333/1000,127,80.0
21329,B5,659.625,0.125,127,80.0
21330,F#4,659.667,333/1000,127,80.0
21331,F#4,659.667,333/1000,127,80.0
21332,F#1,659.667,333/1000,127,80.0
21333,F#5,659.667,333/1000,127,80.0
21334,F#4,659.667,333/1000,127,80.0
21335,F#5,659.667,333/1000,127,80.0
21336,B5,659.75,0.125,127,80.0
21337,B5,659.875,0.125,127,80.0
21338,B5,660.0,0.125,127,80.0
21339,B5,660.125,0.125,127,80.0
21340,F3,660.167,333/1000,127,80.0
21341,B2,660.167,333/1000,127,80.0
21342,B5,660.25,0.125,127,80.0
21343,B5,660.375,0.125,127,80.0
21344,F#4,660.4,1/5,127,80.0
21345,F#4,660.4,1/5,127,80.0
21346,F#1,660.4,1/5,127,80.0
21347,F#5,660.4,1/5,127,80.0
21348,F#4,660.4,1/5,127,80.0
21349,F#5,660.4,1/5,127,80.0
21350,B5,660.5,0.125,127,80.0
21351,F#4,660.6,1/5,127,80.0
21352,F#4,660.6,1/5,127,80.0
21353,F#1,660.6,1/5,127,80.0
21354,F#5,660.6,1/5,127,80.0
21355,F#4,660.6,1/5,127,80.0
21356,F#5,660.6,1/5,127,80.0
21357,B5,660.625,0.125,127,80.0
21358,B5,660.75,0.125,127,80.0
21359,F#4,660.8,1/5,127,80.0
21360,F#4,660.8,1/5,127,80.0
21361,F#1,660.8,1/5,127,80.0
21362,F#5,660.8,1/5,127,80.0
21363,F#4,660.8,1/5,127,80.0
21364,F#5,660.8,1/5,127,80.0
21365,B5,660.875,0.125,127,80.0
21366,G2,660.9,1/5,127,80.0
21367,F#4,661.0,1.0,127,80.0
21368,F#4,661.0,1.0,127,80.0
21369,F#1,661.0,0.5,127,80.0
21370,F#5,661.0,1.0,127,80.0
21371,F#4,661.0,1.0,127,80.0
21372,B5,661.0,0.125,127,80.0
21373,F#5,661.0,0.125,127,80.0
21374,G2,661.1,1/5,127,80.0
21375,B5,661.125,0.125,127,80.0
21376,F#5,661.125,0.125,127,80.0
21377,B5,661.25,0.125,127,80.0
21378,F#5,661.25,0.125,127,80.0
21379,G2,661.3,1/5,127,80.0
21380,B5,661.375,0.125,127,80.0
21381,F#5,661.375,0.125,127,80.0
21382,F#1,661.5,0.5,127,80.0
21383,B5,661.5,0.125,127,80.0
21384,F#5,661.5,0.125,127,80.0
21385,A3,661.5,0.5,127,80.0
21386,D2,661.5,0.5,127,80.0
21387,B5,661.625,0.125,127,80.0
21388,F#5,661.625,0.125,127,80.0
21389,B5,661.75,0.125,127,80.0
21390,F#5,661.75,0.125,127,80.0
21391,B5,661.875,31/250,127,80.0
21392,F#5,661.875,0.125,127,80.0
21393,F#4,662.0,3.0,127,80.0
21394,F#4,662.0,3.0,127,80.0
21395,F#1,662.0,0.5,127,80.0
21396,A3,662.0,0.5,127,80.0
21397,F#5,662.0,3.0,127,80.0
21398,F#4,662.0,3.0,127,80.0
21399,F#5,662.0,0.125,127,80.0
21400,F#5,662.125,0.125,127,80.0
21401,F#5,662.25,0.125,127,80.0
21402,F#5,662.375,0.125,127,80.0
21403,G1,662.5,0.5,127,80.0
21404,F3,662.5,0.5,127,80.0
21405,F#5,662.5,0.125,127,80.0
21406,F#5,662.625,0.125,127,80.0
21407,F#5,662.75,0.125,127,80.0
21408,F#5,662.875,0.125,127,80.0
21409,G1,663.0,0.5,127,80.0
21410,F3,663.0,0.25,127,80.0
21411,F#5,663.0,0.125,127,80.0
21412,F#5,663.125,0.125,127,80.0
21413,A5,663.2,1/5,127,80.0
21414,D2,663.25,0.25,127,80.0
21415,F#5,663.25,0.125,127,80.0
21416,F#5,663.375,0.125,127,80.0
21417,B5,663.4,1/5,127,80.0
21418,A1,663.5,0.5,127,80.0
21419,F3,663.5,0.125,127,80.0
21420,F#5,663.5,0.125,127,80.0
21421,F#5,663.6,1/5,127,80.0
21422,B2,663.625,0.125,127,80.0
21423,F#5,663.625,0.125,127,80.0
21424,C3,663.75,0.125,127,80.0
21425,F#5,663.75,0.125,127,80.0
21426,G#5,663.8,1/5,127,80.0
21427,G2,663.875,0.125,127,80.0
21428,F#5,663.875,0.125,127,80.0
21429,B1,664.0,0.5,127,80.0
21430,G2,664.0,0.125,127,80.0
21431,C#5,664.0,0.125,127,80.0
21432,F#5,664.0,0.125,127,80.0
21433,D2,664.125,0.125,127,80.0
21434,C#5,664.125,0.125,127,80.0
21435,F#5,664.125,0.125,127,80.0
21436,D2,664.25,0.125,127,80.0
21437,C#5,664.25,0.125,127,80.0
21438,F#5,664.25,0.125,127,80.0
21439,D2,664.375,0.125,127,80.0
21440,C#5,664.375,0.125,127,80.0
21441,F#5,664.375,0.125,127,80.0
21442,E2,664.5,0.5,127,80.0
21443,C#5,664.5,0.125,127,80.0
21444,F#5,664.5,0.125,127,80.0
21445,B-2,664.5,0.25,127,80.0
21446,B1,664.5,0.25,127,80.0
21447,C#5,664.625,0.125,127,80.0
21448,F#5,664.625,0.125,127,80.0
21449,C#5,664.75,0.125,127,80.0
21450,F#5,664.75,0.125,127,80.0
21451,G#2,664.75,0.25,127,80.0
21452,B1,664.75,0.25,127,80.0
21453,C#5,664.875,0.125,127,80.0
21454,F#5,664.875,31/250,127,80.0
21455,E-2,665.0,3.0,127,80.0
21456,C#5,665.0,0.125,127,80.0
21457,B-2,665.0,0.25,127,80.0
21458,D2,665.0,0.25,127,80.0
21459,C#5,665.125,0.125,127,80.0
21460,C#5,665.25,0.125,127,80.0
21461,G#2,665.25,0.25,127,80.0
21462,B1,665.25,0.25,127,80.0
21463,F#4,665.333,167/1000,127,80.0
21464,F#4,665.333,167/1000,127,80.0
21465,F#5,665.333,167/1000,127,80.0
21466,F#4,665.333,167/1000,127,80.0
21467,F#5,665.333,167/1000,127,80.0
21468,C#5,665.375,0.125,127,80.0
21469,F#4,665.5,167/1000,127,80.0
21470,F#4,665.5,167/1000,127,80.0
21471,F#5,665.5,167/1000,127,80.0
21472,F#4,665.5,167/1000,127,80.0
21473,C#5,665.5,0.125,127,80.0
21474,F#5,665.5,167/1000,127,80.0
21475,C#3,665.5,167/1000,127,80.0
21476,B1,665.5,167/1000,127,80.0
21477,C#5,665.625,0.125,127,80.0
21478,F#4,665.667,167/1000,127,80.0
21479,F#4,665.667,167/1000,127,80.0
21480,F#5,665.667,167/1000,127,80.0
21481,F#4,665.667,167/1000,127,80.0
21482,F#5,665.667,167/1000,127,80.0
21483,C#5,665.75,0.125,127,80.0
21484,F#4,665.833,167/1000,127,80.0
21485,F#4,665.833,167/1000,127,80.0
21486,F#5,665.833,167/1000,127,80.0
21487,F#4,665.833,167/1000,127,80.0
21488,F#5,665.833,167/1000,127,80.0
21489,E-3,665.833,167/1000,127,80.0
21490,B1,665.833,167/1000,127,80.0
21491,C#5,665.875,31/250,127,80.0
21492,F#4,666.0,57/200,127,80.0
21493,F#4,666.0,57/200,127,80.0
21494,F#5,666.0,57/200,127,80.0
21495,F#4,666.0,57/200,127,80.0
21496,C#6,666.0,0.25,127,80.0
21497,F#5,666.0,57/200,127,80.0
21498,E-3,666.167,167/1000,127,80.0
21499,B1,666.167,167/1000,127,80.0
21500,B5,666.25,0.25,127,80.0
21501,G#4,666.285,57/200,127,80.0
21502,G#4,666.285,57/200,127,80.0
21503,G#5,666.285,57/200,127,80.0
21504,G#4,666.285,57/200,127,80.0
21505,G#5,666.285,57/200,127,80.0
21506,E-3,666.333,167/1000,127,80.0
21507,B1,666.333,167/1000,127,80.0
21508,A5,666.5,0.25,127,80.0
21509,E-3,666.5,57/200,127,80.0
21510,B1,666.5,57/200,127,80.0
21511,A4,666.571,57/200,127,80.0
21512,A4,666.571,57/200,127,80.0
21513,A5,666.571,57/200,127,80.0
21514,A4,666.571,57/200,127,80.0
21515,A5,666.571,57/200,127,80.0
21516,G#5,666.75,0.25,127,80.0
21517,E-3,666.785,57/200,127,80.0
21518,B1,666.785,57/200,127,80.0
21519,B4,666.856,57/200,127,80.0
21520,B4,666.856,57/200,127,80.0
21521,B5,666.856,57/200,127,80.0
21522,B4,666.856,57/200,127,80.0
21523,B5,666.856,57/200,127,80.0
21524,F#5,667.0,0.25,127,80.0
21525,E-3,667.071,57/200,127,80.0
21526,B1,667.071,57/200,127,80.0
21527,C5,667.142,57/200,127,80.0
21528,C5,667.142,57/200,127,80.0
21529,C6,667.142,57/200,127,80.0
21530,C5,667.142,57/200,127,80.0
21531,C6,667.142,57/200,127,80.0
21532,E5,667.25,0.25,127,80.0
21533,F3,667.356,57/200,127,80.0
21534,B1,667.356,57/200,127,80.0
21535,D5,667.427,57/200,127,80.0
21536,D5,667.427,57/200,127,80.0
21537,D6,667.427,57/200,127,80.0
21538,D5,667.427,57/200,127,80.0
21539,D6,667.427,57/200,127,80.0
21540,E-5,667.5,0.25,127,80.0
21541,E-3,667.642,57/200,127,80.0
21542,D2,667.642,57/200,127,80.0
21543,E-5,667.712,57/200,127,80.0
21544,E-5,667.712,57/200,127,80.0
21545,E-6,667.712,57/200,127,80.0
21546,E-5,667.712,57/200,127,80.0
21547,E-6,667.712,57/200,127,80.0
21548,C#5,667.75,0.25,127,80.0
21549,F3,667.927,57/200,127,80.0
21550,D2,667.927,57/200,127,80.0
21551,F#5,668.0,1.0,127,80.0
21552,F#5,668.0,1.0,127,80.0
21553,F#2,668.0,1.5,127,80.0
21554,F#6,668.0,1.0,127,80.0
21555,F#5,668.0,1.0,127,80.0
21556,B4,668.0,0.25,127,80.0
21557,F#6,668.0,0.125,127,80.0
21558,F#6,668.125,0.125,127,80.0
21559,E-3,668.212,57/200,127,80.0
21560,D2,668.212,57/200,127,80.0
21561,A4,668.25,0.25,127,80.0
21562,F#6,668.25,0.125,127,80.0
21563,F#6,668.375,0.125,127,80.0
21564,G#4,668.5,0.25,127,80.0
21565,F#6,668.5,0.125,127,80.0
21566,A3,668.5,1.0,127,80.0
21567,D2,668.5,1.0,127,80.0
21568,F#6,668.625,0.125,127,80.0
21569,F#4,668.75,0.25,127,80.0
21570,F#6,668.75,0.125,127,80.0
21571,F#6,668.875,31/250,127,80.0
21572,F4,669.0,0.125,127,80.0
21573,F4,669.125,0.125,127,80.0
21574,D5,669.25,0.25,127,80.0
21575,D5,669.25,0.25,127,80.0
21576,D6,669.25,0.25,127,80.0
21577,D5,669.25,0.25,127,80.0
21578,F4,669.25,0.125,127,80.0
21579,D6,669.25,0.25,127,80.0
21580,F4,669.375,0.125,127,80.0
21581,A4,669.5,0.25,127,80.0
21582,A4,669.5,0.25,127,80.0
21583,A5,669.5,0.25,127,80.0
21584,A4,669.5,0.25,127,80.0
21585,F4,669.5,0.125,127,80.0
21586,A5,669.5,0.25,127,80.0
21587,F4,669.625,0.125,127,80.0
21588,G4,669.75,0.25,127,80.0
21589,G4,669.75,0.25,127,80.0
21590,E-3,669.75,0.25,127,80.0
21591,G5,669.75,0.25,127,80.0
21592,G4,669.75,0.25,127,80.0
21593,F4,669.75,0.125,127,80.0
21594,G5,669.75,0.25,127,80.0
21595,F4,669.875,0.125,127,80.0
21596,D5,670.0,167/1000,127,80.0
21597,D5,670.0,167/1000,127,80.0
21598,A2,670.0,0.25,127,80.0
21599,D6,670.0,167/1000,127,80.0
21600,D5,670.0,167/1000,127,80.0
21601,F4,670.0,0.125,127,80.0
21602,D6,670.0,167/1000,127,80.0
21603,F4,670.125,0.125,127,80.0
21604,E-5,670.167,167/1000,127,80.0
21605,E-5,670.167,167/1000,127,80.0
21606,E-6,670.167,167/1000,127,80.0
21607,E-5,670.167,167/1000,127,80.0
21608,E-6,670.167,167/1000,127,80.0
21609,B2,670.25,83/1000,127,80.0
21610,F4,670.25,0.125,127,80.0
21611,B-4,670.333,167/1000,127,80.0
21612,B-4,670.333,167/1000,127,80.0
21613,F2,670.333,83/1000,127,80.0
21614,B-5,670.333,167/1000,127,80.0
21615,B-4,670.333,167/1000,127,80.0
21616,B-5,670.333,167/1000,127,80.0
21617,F4,670.375,0.125,127,80.0
21618,F2,670.417,83/1000,127,80.0
21619,A4,670.5,0.5,127,80.0
21620,A4,670.5,0.5,127,80.0
21621,A1,670.5,0.5,127,80.0
21622,D2,670.5,167/1000,127,80.0
21623,A5,670.5,0.5,127,80.0
21624,A4,670.5,0.5,127,80.0
21625,F4,670.5,0.125,127,80.0
21626,A5,670.5,0.125,127,80.0
21627,F4,670.625,0.125,127,80.0
21628,A5,670.625,0.125,127,80.0
21629,D2,670.667,167/1000,127,80.0
21630,F4,670.75,0.125,127,80.0
21631,A5,670.75,0.125,127,80.0
21632,D2,670.833,167/1000,127,80.0
21633,F4,670.875,31/250,127,80.0
21634,A5,670.875,0.125,127,80.0
21635,A4,671.0,1.5,127,80.0
21636,A4,671.0,1.5,127,80.0
21637,A1,671.0,1.5,127,80.0
21638,A5,671.0,1.5,127,80.0
21639,A4,671.0,1.5,127,80.0
21640,A5,671.0,0.125,127,80.0
21641,C#3,671.0,0.5,127,80.0
21642,B1,671.0,0.5,127,80.0
21643,A5,671.125,0.125,127,80.0
21644,G4,671.25,0.25,127,80.0
21645,A5,671.25,0.125,127,80.0
21646,A5,671.375,0.125,127,80.0
21647,G#4,671.5,0.25,127,80.0
21648,A5,671.5,0.125,127,80.0
21649,C#3,671.5,0.5,127,80.0
21650,B1,671.5,0.5,127,80.0
21651,A5,671.625,0.125,127,80.0
21652,B-4,671.75,0.25,127,80.0
21653,A5,671.75,0.125,127,80.0
21654,A5,671.875,0.125,127,80.0
21655,D2,672.0,1.0,127,80.0
21656,G4,672.0,0.125,127,80.0
21657,A5,672.0,0.125,127,80.0
21658,G4,672.125,0.125,127,80.0
21659,A5,672.125,0.125,127,80.0
21660,G4,672.25,0.125,127,80.0
21661,A5,672.25,0.125,127,80.0
21662,G4,672.375,0.125,127,80.0
21663,A5,672.375,31/250,127,80.0
21664,G4,672.5,0.125,127,80.0
21665,G4,672.625,0.125,127,80.0
21666,G4,672.667,167/1000,127,80.0
21667,G4,672.667,167/1000,127,80.0
21668,G1,672.667,167/1000,127,80.0
21669,G5,672.667,167/1000,127,80.0
21670,G4,672.667,167/1000,127,80.0
21671,G5,672.667,167/1000,127,80.0
21672,G4,672.75,0.125,127,80.0
21673,B-4,672.833,167/1000,127,80.0
21674,B-4,672.833,167/1000,127,80.0
21675,B-1,672.833,167/1000,127,80.0
21676,B-5,672.833,167/1000,127,80.0
21677,B-4,672.833,167/1000,127,80.0
21678,B-5,672.833,167/1000,127,80.0
21679,G4,672.875,31/250,127,80.0
21680,A4,673.0,1.0,127,80.0
21681,A4,673.0,1.0,127,80.0
21682,A1,673.0,1.0,127,80.0
21683,A5,673.0,1.0,127,80.0
21684,A4,673.0,1.0,127,80.0
21685,A5,673.0,0.125,127,80.0
21686,A5,673.125,0.125,127,80.0
21687,A2,673.167,167/1000,127,80.0
21688,A5,673.25,0.125,127,80.0
21689,A2,673.333,167/1000,127,80.0
21690,A5,673.375,0.125,127,80.0
21691,G4,673.5,0.125,127,80.0
21692,A5,673.5,0.125,127,80.0
21693,A3,673.5,0.5,127,80.0
21694,B1,673.5,0.5,127,80.0
21695,G4,673.625,0.125,127,80.0
21696,A5,673.625,0.125,127,80.0
21697,G4,673.75,0.125,127,80.0
21698,A5,673.75,0.125,127,80.0
21699,G4,673.875,0.125,127,80.0
21700,A5,673.875,0.125,127,80.0
21701,A4,674.0,2.0,127,80.0
21702,A4,674.0,2.0,127,80.0
21703,A1,674.0,0.5,127,80.0
21704,E-3,674.0,0.5,127,80.0
21705,A5,674.0,2.0,127,80.0
21706,A4,674.0,2.0,127,80.0
21707,G4,674.0,0.125,127,80.0
21708,A5,674.0,0.125,127,80.0
21709,G4,674.125,0.125,127,80.0
21710,A5,674.125,0.125,127,80.0
21711,G4,674.25,0.125,127,80.0
21712,A5,674.25,0.125,127,80.0
21713,G4,674.375,0.125,127,80.0
21714,A5,674.375,0.125,127,80.0
21715,F1,674.5,0.5,127,80.0
21716,G4,674.5,0.125,127,80.0
21717,A5,674.5,0.125,127,80.0
21718,E-3,674.5,0.5,127,80.0
21719,D2,674.5,0.5,127,80.0
21720,G4,674.625,0.125,127,80.0
21721,A5,674.625,0.125,127,80.0
21722,G4,674.75,0.125,127,80.0
21723,A5,674.75,0.125,127,80.0
21724,G4,674.875,31/250,127,80.0
21725,A5,674.875,0.125,127,80.0
21726,F1,675.0,0.5,127,80.0
21727,D3,675.0,167/1000,127,80.0
21728,A5,675.0,0.125,127,80.0
21729,A5,675.125,0.125,127,80.0
21730,C3,675.167,167/1000,127,80.0
21731,E-4,675.25,0.25,127,80.0
21732,A5,675.25,0.125,127,80.0
21733,B2,675.333,167/1000,127,80.0
21734,A5,675.375,0.125,127,80.0
21735,G1,675.5,0.5,127,80.0
21736,C3,675.5,0.25,127,80.0
21737,F#4,675.5,0.25,127,80.0
21738,A5,675.5,0.125,127,80.0
21739,A5,675.625,0.125,127,80.0
21740,B2,675.75,0.25,127,80.0
21741,B-3,675.75,0.25,127,80.0
21742,A5,675.75,0.125,127,80.0
21743,A5,675.875,31/250,127,80.0
21744,G1,676.0,0.5,127,80.0
21745,G2,676.0,0.25,127,80.0
21746,C4,676.0,0.25,127,80.0
21747,F2,676.25,0.25,127,80.0
21748,E4,676.25,0.25,127,80.0
21749,G#1,676.5,0.5,127,80.0
21750,G#4,676.5,0.25,127,80.0
21751,G3,676.5,0.5,127,80.0
21752,B1,676.5,0.5,127,80.0
21753,C4,676.75,0.25,127,80.0
21754,B-1,677.0,0.5,127,80.0
21755,D2,677.0,0.25,127,80.0
21756,F4,677.0,0.125,127,80.0
21757,F4,677.125,0.125,127,80.0
21758,B1,677.25,0.25,127,80.0
21759,F4,677.25,0.125,127,80.0
21760,F4,677.375,0.125,127,80.0
21761,G#1,677.5,0.5,127,80.0
21762,G3,677.5,0.5,127,80.0
21763,F4,677.5,0.125,127,80.0
21764,F4,677.625,0.125,127,80.0
21765,F4,677.75,0.125,127,80.0
21766,F4,677.875,0.125,127,80.0
21767,C2,678.0,2.0,127,80.0
21768,F4,678.0,0.125,127,80.0
21769,E-3,678.0,0.5,127,80.0
21770,B1,678.0,0.5,127,80.0
21771,F4,678.125,0.125,127,80.0
21772,F4,678.25,0.125,127,80.0
21773,F4,678.375,0.125,127,80.0
21774,F4,678.5,0.125,127,80.0
21775,C#3,678.5,0.5,127,80.0
21776,B1,678.5,0.5,127,80.0
21777,F4,678.625,0.125,127,80.0
21778,F4,678.75,0.125,127,80.0
21779,F4,678.875,31/250,127,80.0
21780,F4,679.0,143/1000,127,80.0
21781,F4,679.0,143/1000,127,80.0
21782,E-3,679.0,0.5,127,80.0
21783,F5,679.0,143/1000,127,80.0
21784,F4,679.0,143/1000,127,80.0
21785,F5,679.0,143/1000,127,80.0
21786,G4,679.143,143/1000,127,80.0
21787,G4,679.143,143/1000,127,80.0
21788,G5,679.143,143/1000,127,80.0
21789,G4,679.143,143/1000,127,80.0
21790,G5,679.143,143/1000,127,80.0
21791,G4,679.285,143/1000,127,80.0
21792,G4,679.285,143/1000,127,80.0
21793,G5,679.285,143/1000,127,80.0
21794,G4,679.285,143/1000,127,80.0
21795,G5,679.285,143/1000,127,80.0
21796,C5,679.428,143/1000,127,80.0
21797,C5,679.428,143/1000,127,80.0
21798,C6,679.428,143/1000,127,80.0
21799,C5,679.428,143/1000,127,80.0
21800,C6,679.428,143/1000,127,80.0
21801,B1,679.5,143/1000,127,80.0
21802,F4,679.5,167/1000,127,80.0
21803,B-4,679.571,143/1000,127,80.0
21804,B-4,679.571,143/1000,127,80.0
21805,B-5,679.571,143/1000,127,80.0
21806,B-4,679.571,143/1000,127,80.0
21807,B-5,679.571,143/1000,127,80.0
21808,F3,679.643,143/1000,127,80.0
21809,F4,679.667,167/1000,127,80.0
21810,G4,679.714,143/1000,127,80.0
21811,G4,679.714,143/1000,127,80.0
21812,G5,679.714,143/1000,127,80.0
21813,G4,679.714,143/1000,127,80.0
21814,G5,679.714,143/1000,127,80.0
21815,B1,679.785,143/1000,127,80.0
21816,F4,679.833,167/1000,127,80.0
21817,D4,679.856,143/1000,127,80.0
21818,D4,679.856,143/1000,127,80.0
21819,D5,679.856,143/1000,127,80.0
21820,D4,679.856,143/1000,127,80.0
21821,D5,679.856,143/1000,127,80.0
21822,E-3,679.928,143/1000,127,80.0
21823,E4,680.0,1.0,127,80.0
21824,E4,680.0,1.0,127,80.0
21825,C2,680.0,1.0,127,80.0
21826,E5,680.0,1.0,127,80.0
21827,E4,680.0,1.0,127,80.0
21828,F4,680.0,0.25,127,80.0
21829,E5,680.0,0.125,127,80.0
21830,D2,680.071,143/1000,127,80.0
21831,E5,680.125,0.125,127,80.0
21832,F3,680.214,143/1000,127,80.0
21833,F4,680.25,0.25,127,80.0
21834,E5,680.25,0.125,127,80.0
21835,E-3,680.356,143/1000,127,80.0
21836,E5,680.375,0.125,127,80.0
21837,F4,680.5,0.25,127,80.0
21838,E5,680.5,0.125,127,80.0
21839,C#3,680.5,1.0,127,80.0
21840,B1,680.5,1.0,127,80.0
21841,E5,680.625,0.125,127,80.0
21842,F4,680.75,0.25,127,80.0
21843,E5,680.75,0.125,127,80.0
21844,E5,680.875,31/250,127,80.0
21845,F4,681.0,0.125,127,80.0
21846,F4,681.125,0.125,127,80.0
21847,F4,681.25,0.125,127,80.0
21848,F4,681.375,0.125,127,80.0
21849,D2,681.5,1/5,127,80.0
21850,F4,681.5,0.125,127,80.0
21851,G4,681.6,1/5,127,80.0
21852,G4,681.6,1/5,127,80.0
21853,G5,681.6,1/5,127,80.0
21854,G4,681.6,1/5,127,80.0
21855,G5,681.6,1/5,127,80.0
21856,F4,681.625,0.125,127,80.0
21857,F4,681.75,0.125,127,80.0
21858,D5,681.8,1/5,127,80.0
21859,D5,681.8,1/5,127,80.0
21860,D6,681.8,1/5,127,80.0
21861,D5,681.8,1/5,127,80.0
21862,D6,681.8,1/5,127,80.0
21863,F4,681.875,31/250,127,80.0
21864,B4,682.0,1/5,127,80.0
21865,B4,682.0,1/5,127,80.0
21866,B5,682.0,1/5,127,80.0
21867,B4,682.0,1/5,127,80.0
21868,B5,682.0,1/5,127,80.0
21869,F3,682.1,1/5,127,80.0
21870,D2,682.1,1/5,127,80.0
21871,C5,682.2,1/5,127,80.0
21872,C5,682.2,1/5,127,80.0
21873,C6,682.2,1/5,127,80.0
21874,C5,682.2,1/5,127,80.0
21875,C6,682.2,1/5,127,80.0
21876,A2,682.3,1/5,127,80.0
21877,G2,682.3,1/5,127,80.0
21878,E5,682.4,1/5,127,80.0
21879,E5,682.4,1/5,127,80.0
21880,E6,682.4,1/5,127,80.0
21881,E5,682.4,1/5,127,80.0
21882,E6,682.4,1/5,127,80.0
21883,B2,682.5,1/5,127,80.0
21884,G4,682.5,0.25,127,80.0
21885,F5,682.6,1/5,127,80.0
21886,F5,682.6,1/5,127,80.0
21887,F6,682.6,1/5,127,80.0
21888,F5,682.6,1/5,127,80.0
21889,F6,682.6,1/5,127,80.0
21890,B2,682.7,1/5,127,80.0
21891,A4,682.75,0.25,127,80.0
21892,D5,682.8,1/5,127,80.0
21893,D5,682.8,1/5,127,80.0
21894,D6,682.8,1/5,127,80.0
21895,D5,682.8,1/5,127,80.0
21896,D6,682.8,1/5,127,80.0
21897,G2,682.9,1/5,127,80.0
21898,C5,683.0,0.125,127,80.0
21899,C5,683.0,0.125,127,80.0
21900,C6,683.0,0.125,127,80.0
21901,C5,683.0,0.125,127,80.0
21902,B4,683.0,0.25,127,80.0
21903,C6,683.0,0.125,127,80.0
21904,E-3,683.1,1/5,127,80.0
21905,F5,683.125,0.125,127,80.0
21906,F5,683.125,0.125,127,80.0
21907,F6,683.125,0.125,127,80.0
21908,F5,683.125,0.125,127,80.0
21909,F6,683.125,0.125,127,80.0
21910,E5,683.25,0.125,127,80.0
21911,E5,683.25,0.125,127,80.0
21912,E6,683.25,0.125,127,80.0
21913,E5,683.25,0.125,127,80.0
21914,C5,683.25,0.25,127,80.0
21915,E6,683.25,0.125,127,80.0
21916,G2,683.3,1/5,127,80.0
21917,C5,683.375,0.125,127,80.0
21918,C5,683.375,0.125,127,80.0
21919,C6,683.375,0.125,127,80.0
21920,C5,683.375,0.125,127,80.0
21921,C6,683.375,0.125,127,80.0
21922,E5,683.5,2.5,127,80.0
21923,E5,683.5,2.5,127,80.0
21924,E2,683.5,1.0,127,80.0
21925,C3,683.5,0.125,127,80.0
21926,E6,683.5,2.5,127,80.0
21927,E5,683.5,2.5,127,80.0
21928,D5,683.5,0.25,127,80.0
21929,E6,683.5,0.125,127,80.0
21930,B2,683.625,0.125,127,80.0
21931,E6,683.625,0.125,127,80.0
21932,A2,683.75,0.125,127,80.0
21933,E5,683.75,0.25,127,80.0
21934,E6,683.75,0.125,127,80.0
21935,D3,683.875,0.125,127,80.0
21936,E6,683.875,0.125,127,80.0
21937,E5,684.0,0.25,127,80.0
21938,E6,684.0,0.125,127,80.0
21939,C#3,684.0,0.5,127,80.0
21940,D2,684.0,0.5,127,80.0
21941,E6,684.125,0.125,127,80.0
21942,C5,684.25,0.25,127,80.0
21943,E6,684.25,0.125,127,80.0
21944,E6,684.375,0.125,127,80.0
21945,E2,684.5,0.5,127,80.0
21946,E-3,684.5,0.5,127,80.0
21947,B4,684.5,0.25,127,80.0
21948,E6,684.5,0.125,127,80.0
21949,E6,684.625,0.125,127,80.0
21950,G4,684.75,0.25,127,80.0
21951,E6,684.75,0.125,127,80.0
21952,E6,684.875,0.125,127,80.0
21953,E2,685.0,0.5,127,80.0
21954,E-3,685.0,0.25,127,80.0
21955,F4,685.0,0.25,127,80.0
21956,E6,685.0,0.125,127,80.0
21957,E6,685.125,0.125,127,80.0
21958,D2,685.25,0.25,127,80.0
21959,C5,685.25,0.25,127,80.0
21960,E6,685.25,0.125,127,80.0
21961,E6,685.375,0.125,127,80.0
21962,D2,685.5,0.5,127,80.0
21963,B4,685.5,0.25,127,80.0
21964,E6,685.5,0.125,127,80.0
21965,E-3,685.5,0.5,127,80.0
21966,D2,685.5,0.5,127,80.0
21967,E6,685.625,0.125,127,80.0
21968,G4,685.75,0.25,127,80.0
21969,E6,685.75,0.125,127,80.0
21970,E6,685.875,31/250,127,80.0
21971,D2,686.0,0.5,127,80.0
21972,E-3,686.0,0.25,127,80.0
21973,E4,686.0,1/5,127,80.0
21974,B3,686.2,1/5,127,80.0
21975,D2,686.25,0.125,127,80.0
21976,D2,686.375,0.125,127,80.0
21977,D4,686.4,1/5,127,80.0
21978,C2,686.5,0.5,127,80.0
21979,D2,686.5,0.25,127,80.0
21980,G4,686.6,1/5,127,80.0
21981,C3,686.75,0.25,127,80.0
21982,E4,686.8,1/5,127,80.0
21983,A1,687.0,0.5,127,80.0
21984,C3,687.0,0.25,127,80.0
21985,F#4,687.0,333/1000,127,80.0
21986,C3,687.25,0.25,127,80.0
21987,B1,687.5,1.5,127,80.0
21988,F2,687.5,0.25,127,80.0
21989,F#4,687.667,333/1000,127,80.0
21990,F2,687.75,0.25,127,80.0
21991,B1,687.75,0.25,127,80.0
21992,C#3,688.0,0.5,127,80.0
21993,B1,688.0,0.5,127,80.0
21994,F#4,688.4,1/5,127,80.0
21995,E-3,688.5,0.5,127,80.0
21996,F#4,688.6,1/5,127,80.0
21997,F#4,688.8,1/5,127,80.0
21998,E-3,689.0,0.25,127,80.0
21999,F#4,689.0,0.125,127,80.0
22000,F#4,689.125,0.125,127,80.0
22001,B1,689.25,0.25,127,80.0
22002,F#4,689.25,0.125,127,80.0
22003,E5,689.333,333/1000,127,80.0
22004,E5,689.333,333/1000,127,80.0
22005,E2,689.333,333/1000,127,80.0
22006,E6,689.333,333/1000,127,80.0
22007,E5,689.333,333/1000,127,80.0
22008,E6,689.333,333/1000,127,80.0
22009,F#4,689.375,0.125,127,80.0
22010,E-3,689.5,333/1000,127,80.0
22011,F#4,689.5,0.125,127,80.0
22012,F#4,689.625,0.125,127,80.0
22013,E5,689.667,333/1000,127,80.0
22014,E5,689.667,333/1000,127,80.0
22015,E2,689.667,333/1000,127,80.0
22016,E6,689.667,333/1000,127,80.0
22017,E5,689.667,333/1000,127,80.0
22018,E6,689.667,333/1000,127,80.0
22019,F#4,689.75,0.125,127,80.0
22020,F3,689.833,333/1000,127,80.0
22021,D2,689.833,333/1000,127,80.0
22022,F#4,689.875,0.125,127,80.0
22023,E5,690.0,333/1000,127,80.0
22024,E5,690.0,333/1000,127,80.0
22025,E2,690.0,333/1000,127,80.0
22026,E6,690.0,333/1000,127,80.0
22027,E5,690.0,333/1000,127,80.0
22028,F#4,690.0,0.125,127,80.0
22029,E6,690.0,333/1000,127,80.0
22030,F#4,690.125,0.125,127,80.0
22031,E-3,690.167,333/1000,127,80.0
22032,F#4,690.25,0.125,127,80.0
22033,F#4,690.375,0.125,127,80.0
22034,F#4,690.5,0.125,127,80.0
22035,F3,690.5,333/1000,127,80.0
22036,B1,690.5,333/1000,127,80.0
22037,F#4,690.625,0.125,127,80.0
22038,E5,690.667,333/1000,127,80.0
22039,E5,690.667,333/1000,127,80.0
22040,E2,690.667,333/1000,127,80.0
22041,E6,690.667,333/1000,127,80.0
22042,E5,690.667,333/1000,127,80.0
22043,E6,690.667,333/1000,127,80.0
22044,F#4,690.75,0.125,127,80.0
22045,F#4,690.875,0.125,127,80.0
22046,F#4,691.0,0.125,127,80.0
22047,F#4,691.125,0.125,127,80.0
22048,F3,691.167,333/1000,127,80.0
22049,B1,691.167,333/1000,127,80.0
22050,F#4,691.25,0.125,127,80.0
22051,E5,691.333,333/1000,127,80.0
22052,E5,691.333,333/1000,127,80.0
22053,E2,691.333,333/1000,127,80.0
22054,E6,691.333,333/1000,127,80.0
22055,E5,691.333,333/1000,127,80.0
22056,E6,691.333,333/1000,127,80.0
22057,F#4,691.375,0.125,127,80.0
22058,F#4,691.5,0.125,127,80.0
22059,F#4,691.625,0.125,127,80.0
22060,F#4,691.75,0.125,127,80.0
22061,F3,691.833,333/1000,127,80.0
22062,B1,691.833,333/1000,127,80.0
22063,F#4,691.875,0.125,127,80.0
22064,E5,692.0,143/1000,127,80.0
22065,E5,692.0,143/1000,127,80.0
22066,E2,692.0,143/1000,127,80.0
22067,E6,692.0,143/1000,127,80.0
22068,E5,692.0,143/1000,127,80.0
22069,F#4,692.0,0.125,127,80.0
22070,E6,692.0,143/1000,127,80.0
22071,F#4,692.125,0.125,127,80.0
22072,D5,692.143,143/1000,127,80.0
22073,D5,692.143,143/1000,127,80.0
22074,D2,692.143,143/1000,127,80.0
22075,D6,692.143,143/1000,127,80.0
22076,D5,692.143,143/1000,127,80.0
22077,D6,692.143,143/1000,127,80.0
22078,F#4,692.25,0.125,127,80.0
22079,B4,692.285,143/1000,127,80.0
22080,B4,692.285,143/1000,127,80.0
22081,C2,692.285,143/1000,127,80.0
22082,B5,692.285,143/1000,127,80.0
22083,B4,692.285,143/1000,127,80.0
22084,B5,692.285,143/1000,127,80.0
22085,F#4,692.375,0.125,127,80.0
22086,E5,692.428,143/1000,127,80.0
22087,E5,692.428,143/1000,127,80.0
22088,E2,692.428,143/1000,127,80.0
22089,E6,692.428,143/1000,127,80.0
22090,E5,692.428,143/1000,127,80.0
22091,E6,692.428,143/1000,127,80.0
22092,B1,692.5,143/1000,127,80.0
22093,F#4,692.5,0.125,127,80.0
22094,D5,692.571,143/1000,127,80.0
22095,D5,692.571,143/1000,127,80.0
22096,D2,692.571,143/1000,127,80.0
22097,D6,692.571,143/1000,127,80.0
22098,D5,692.571,143/1000,127,80.0
22099,D6,692.571,143/1000,127,80.0
22100,F#4,692.625,0.125,127,80.0
22101,E-3,692.643,143/1000,127,80.0
22102,E5,692.714,143/1000,127,80.0
22103,E5,692.714,143/1000,127,80.0
22104,E2,692.714,143/1000,127,80.0
22105,E6,692.714,143/1000,127,80.0
22106,E5,692.714,143/1000,127,80.0
22107,E6,692.714,143/1000,127,80.0
22108,F#4,692.75,0.125,127,80.0
22109,B1,692.785,143/1000,127,80.0
22110,F5,692.856,143/1000,127,80.0
22111,F5,692.856,143/1000,127,80.0
22112,F2,692.856,143/1000,127,80.0
22113,F6,692.856,143/1000,127,80.0
22114,F5,692.856,143/1000,127,80.0
22115,F6,692.856,143/1000,127,80.0
22116,F#4,692.875,31/250,127,80.0
22117,F3,692.928,143/1000,127,80.0
22118,G#4,692.999,1.0,127,80.0
22119,G#4,692.999,1.0,127,80.0
22120,G#1,692.999,1.0,127,80.0
22121,G#5,692.999,1.0,127,80.0
22122,G#4,692.999,1.0,127,80.0
22123,G#5,692.999,0.125,127,80.0
22124,B1,693.071,143/1000,127,80.0
22125,G#5,693.124,0.125,127,80.0
22126,E-3,693.214,143/1000,127,80.0
22127,G#5,693.249,0.125,127,80.0
22128,F#4,693.333,167/1000,127,80.0
22129,F3,693.356,143/1000,127,80.0
22130,G#5,693.374,0.125,127,80.0
22131,G#5,693.499,0.125,127,80.0
22132,C#3,693.499,1.0,127,80.0
22133,D2,693.499,1.0,127,80.0
22134,F#4,693.5,167/1000,127,80.0
22135,G#5,693.624,0.125,127,80.0
22136,F#4,693.667,167/1000,127,80.0
22137,G#5,693.749,0.125,127,80.0
22138,F#4,693.833,167/1000,127,80.0
22139,G#5,693.874,31/250,127,80.0
22140,F#4,694.0,57/200,127,80.0
22141,G#4,694.285,57/200,127,80.0
22142,E-3,694.499,0.75,127,80.0
22143,A4,694.571,57/200,127,80.0
22144,G#4,694.749,0.125,127,80.0
22145,G#4,694.749,0.125,127,80.0
22146,G#1,694.749,0.125,127,80.0
22147,G#5,694.749,0.125,127,80.0
22148,G#4,694.749,0.125,127,80.0
22149,G#5,694.749,0.125,127,80.0
22150,B4,694.856,57/200,127,80.0
22151,A4,694.874,0.125,127,80.0
22152,A4,694.874,0.125,127,80.0
22153,A1,694.874,0.125,127,80.0
22154,A5,694.874,0.125,127,80.0
22155,A4,694.874,0.125,127,80.0
22156,A5,694.874,0.125,127,80.0
22157,D5,695.0,333/1000,127,80.0
22158,D5,695.0,333/1000,127,80.0
22159,D2,695.0,333/1000,127,80.0
22160,D6,695.0,333/1000,127,80.0
22161,D5,695.0,333/1000,127,80.0
22162,D6,695.0,333/1000,127,80.0
22163,C5,695.142,57/200,127,80.0
22164,D2,695.249,0.125,127,80.0
22165,B4,695.333,333/1000,127,80.0
22166,B4,695.333,333/1000,127,80.0
22167,C2,695.333,333/1000,127,80.0
22168,B5,695.333,333/1000,127,80.0
22169,B4,695.333,333/1000,127,80.0
22170,B5,695.333,333/1000,127,80.0
22171,D2,695.374,0.125,127,80.0
22172,D5,695.427,57/200,127,80.0
22173,D2,695.5,333/1000,127,80.0
22174,C5,695.667,333/1000,127,80.0
22175,C5,695.667,333/1000,127,80.0
22176,C#2,695.667,333/1000,127,80.0
22177,C6,695.667,333/1000,127,80.0
22178,C5,695.667,333/1000,127,80.0
22179,C6,695.667,333/1000,127,80.0
22180,E-5,695.712,57/200,127,80.0
22181,F3,695.833,333/1000,127,80.0
22182,A2,695.833,333/1000,127,80.0
22183,E5,696.0,333/1000,127,80.0
22184,E5,696.0,333/1000,127,80.0
22185,E2,696.0,333/1000,127,80.0
22186,E6,696.0,333/1000,127,80.0
22187,E5,696.0,333/1000,127,80.0
22188,F#5,696.0,0.125,127,80.0
22189,E6,696.0,333/1000,127,80.0
22190,F#5,696.125,0.125,127,80.0
22191,F3,696.167,333/1000,127,80.0
22192,F2,696.167,333/1000,127,80.0
22193,F#5,696.25,0.125,127,80.0
22194,F5,696.333,333/1000,127,80.0
22195,F5,696.333,333/1000,127,80.0
22196,F2,696.333,333/1000,127,80.0
22197,F6,696.333,333/1000,127,80.0
22198,F5,696.333,333/1000,127,80.0
22199,F6,696.333,333/1000,127,80.0
22200,F#5,696.375,0.125,127,80.0
22201,F#5,696.5,0.125,127,80.0
22202,A3,696.5,333/1000,127,80.0
22203,A2,696.5,333/1000,127,80.0
22204,F#5,696.625,0.125,127,80.0
22205,D5,696.667,333/1000,127,80.0
22206,D5,696.667,333/1000,127,80.0
22207,D2,696.667,333/1000,127,80.0
22208,D6,696.667,333/1000,127,80.0
22209,D5,696.667,333/1000,127,80.0
22210,D6,696.667,333/1000,127,80.0
22211,F#5,696.75,0.125,127,80.0
22212,A3,696.833,333/1000,127,80.0
22213,B2,696.833,333/1000,127,80.0
22214,F#5,696.875,31/250,127,80.0
22215,E5,697.0,1.0,127,80.0
22216,E5,697.0,1.0,127,80.0
22217,E2,697.0,0.5,127,80.0
22218,E6,697.0,1.0,127,80.0
22219,E5,697.0,1.0,127,80.0
22220,E6,697.0,0.125,127,80.0
22221,E6,697.125,0.125,127,80.0
22222,A3,697.167,333/1000,127,80.0
22223,A2,697.167,333/1000,127,80.0
22224,D5,697.25,0.25,127,80.0
22225,E6,697.25,0.125,127,80.0
22226,E6,697.375,0.125,127,80.0
22227,F2,697.5,0.5,127,80.0
22228,A4,697.5,0.25,127,80.0
22229,E6,697.5,0.125,127,80.0
22230,A3,697.5,0.5,127,80.0
22231,D2,697.5,0.5,127,80.0
22232,E6,697.625,0.125,127,80.0
22233,G4,697.75,0.25,127,80.0
22234,E6,697.75,0.125,127,80.0
22235,E6,697.875,0.125,127,80.0
22236,E5,698.0,2.0,127,80.0
22237,E5,698.0,2.0,127,80.0
22238,E2,698.0,0.5,127,80.0
22239,D2,698.0,0.5,127,80.0
22240,E6,698.0,2.0,127,80.0
22241,E5,698.0,2.0,127,80.0
22242,D5,698.0,167/1000,127,80.0
22243,E6,698.0,0.125,127,80.0
22244,E6,698.125,0.125,127,80.0
22245,E-5,698.167,167/1000,127,80.0
22246,E6,698.25,0.125,127,80.0
22247,B-4,698.333,167/1000,127,80.0
22248,E6,698.375,0.125,127,80.0
22249,D2,698.5,0.5,127,80.0
22250,A4,698.5,0.125,127,80.0
22251,E6,698.5,0.125,127,80.0
22252,C3,698.5,0.5,127,80.0
22253,B2,698.5,0.5,127,80.0
22254,A4,698.625,0.125,127,80.0
22255,E6,698.625,0.125,127,80.0
22256,A4,698.75,0.125,127,80.0
22257,E6,698.75,0.125,127,80.0
22258,A4,698.875,0.125,127,80.0
22259,E6,698.875,0.125,127,80.0
22260,C2,699.0,0.5,127,80.0
22261,A4,699.0,0.125,127,80.0
22262,E6,699.0,0.125,127,80.0
22263,B2,699.0,0.25,127,80.0
22264,A2,699.0,0.25,127,80.0
22265,A4,699.125,0.125,127,80.0
22266,E6,699.125,0.125,127,80.0
22267,A4,699.25,0.125,127,80.0
22268,E6,699.25,0.125,127,80.0
22269,B2,699.25,0.25,127,80.0
22270,A2,699.25,0.25,127,80.0
22271,A4,699.375,0.125,127,80.0
22272,E6,699.375,0.125,127,80.0
22273,A1,699.5,0.5,127,80.0
22274,G2,699.5,0.25,127,80.0
22275,A4,699.5,0.125,127,80.0
22276,E6,699.5,0.125,127,80.0
22277,A4,699.625,0.125,127,80.0
22278,E6,699.625,0.125,127,80.0
22279,F2,699.75,0.25,127,80.0
22280,A4,699.75,0.125,127,80.0
22281,E6,699.75,0.125,127,80.0
22282,A4,699.875,0.125,127,80.0
22283,E6,699.875,31/250,127,80.0
22284,G#1,700.0,0.5,127,80.0
22285,A4,700.0,0.125,127,80.0
22286,F2,700.0,0.25,127,80.0
22287,D2,700.0,0.25,127,80.0
22288,A4,700.125,0.125,127,80.0
22289,D2,700.25,0.25,127,80.0
22290,A4,700.25,0.125,127,80.0
22291,A4,700.375,31/250,127,80.0
22292,E5,700.5,167/1000,127,80.0
22293,E5,700.5,167/1000,127,80.0
22294,E2,700.5,167/1000,127,80.0
22295,E6,700.5,167/1000,127,80.0
22296,E5,700.5,167/1000,127,80.0
22297,E6,700.5,167/1000,127,80.0
22298,C#3,700.5,0.5,127,80.0
22299,B1,700.5,0.5,127,80.0
22300,F5,700.667,167/1000,127,80.0
22301,F5,700.667,167/1000,127,80.0
22302,F2,700.667,167/1000,127,80.0
22303,F6,700.667,167/1000,127,80.0
22304,F5,700.667,167/1000,127,80.0
22305,G4,700.667,167/1000,127,80.0
22306,F6,700.667,167/1000,127,80.0
22307,E5,700.833,167/1000,127,80.0
22308,E5,700.833,167/1000,127,80.0
22309,E2,700.833,167/1000,127,80.0
22310,E6,700.833,167/1000,127,80.0
22311,E5,700.833,167/1000,127,80.0
22312,B-4,700.833,167/1000,127,80.0
22313,E6,700.833,167/1000,127,80.0
22314,D5,701.0,167/1000,127,80.0
22315,D5,701.0,167/1000,127,80.0
22316,D2,701.0,167/1000,127,80.0
22317,B1,701.0,167/1000,127,80.0
22318,D6,701.0,167/1000,127,80.0
22319,D5,701.0,167/1000,127,80.0
22320,A4,701.0,0.125,127,80.0
22321,D6,701.0,167/1000,127,80.0
22322,A4,701.125,0.125,127,80.0
22323,E5,701.167,167/1000,127,80.0
22324,E5,701.167,167/1000,127,80.0
22325,E2,701.167,167/1000,127,80.0
22326,D2,701.167,167/1000,127,80.0
22327,E6,701.167,167/1000,127,80.0
22328,E5,701.167,167/1000,127,80.0
22329,E6,701.167,167/1000,127,80.0
22330,A4,701.25,0.125,127,80.0
22331,F5,701.333,167/1000,127,80.0
22332,F5,701.333,167/1000,127,80.0
22333,F2,701.333,167/1000,127,80.0
22334,B1,701.333,167/1000,127,80.0
22335,F6,701.333,167/1000,127,80.0
22336,F5,701.333,167/1000,127,80.0
22337,F6,701.333,167/1000,127,80.0
22338,A4,701.375,0.125,127,80.0
22339,G5,701.5,167/1000,127,80.0
22340,G5,701.5,167/1000,127,80.0
22341,G2,701.5,167/1000,127,80.0
22342,D2,701.5,167/1000,127,80.0
22343,G6,701.5,167/1000,127,80.0
22344,G5,701.5,167/1000,127,80.0
22345,A4,701.5,0.125,127,80.0
22346,G6,701.5,167/1000,127,80.0
22347,A4,701.625,0.125,127,80.0
22348,A5,701.667,167/1000,127,80.0
22349,A5,701.667,167/1000,127,80.0
22350,A2,701.667,167/1000,127,80.0
22351,F3,701.667,167/1000,127,80.0
22352,A6,701.667,167/1000,127,80.0
22353,A5,701.667,167/1000,127,80.0
22354,A6,701.667,167/1000,127,80.0
22355,A4,701.75,0.125,127,80.0
22356,E5,701.833,167/1000,127,80.0
22357,E5,701.833,167/1000,127,80.0
22358,E2,701.833,167/1000,127,80.0
22359,B1,701.833,167/1000,127,80.0
22360,E6,701.833,167/1000,127,80.0
22361,E5,701.833,167/1000,127,80.0
22362,E6,701.833,167/1000,127,80.0
22363,A4,701.875,0.125,127,80.0
22364,E5,702.0,167/1000,127,80.0
22365,E5,702.0,167/1000,127,80.0
22366,E2,702.0,167/1000,127,80.0
22367,E-3,702.0,167/1000,127,80.0
22368,E6,702.0,167/1000,127,80.0
22369,E5,702.0,167/1000,127,80.0
22370,A4,702.0,0.125,127,80.0
22371,E6,702.0,167/1000,127,80.0
22372,A4,702.125,0.125,127,80.0
22373,F5,702.167,167/1000,127,80.0
22374,F5,702.167,167/1000,127,80.0
22375,F2,702.167,167/1000,127,80.0
22376,B1,702.167,167/1000,127,80.0
22377,F6,702.167,167/1000,127,80.0
22378,F5,702.167,167/1000,127,80.0
22379,F6,702.167,167/1000,127,80.0
22380,A4,702.25,0.125,127,80.0
22381,G5,702.333,167/1000,127,80.0
22382,G5,702.333,167/1000,127,80.0
22383,G2,702.333,167/1000,127,80.0
22384,F3,702.333,167/1000,127,80.0
22385,G6,702.333,167/1000,127,80.0
22386,G5,702.333,167/1000,127,80.0
22387,G6,702.333,167/1000,127,80.0
22388,A4,702.375,0.125,127,80.0
22389,D5,702.5,167/1000,127,80.0
22390,D5,702.5,167/1000,127,80.0
22391,D2,702.5,167/1000,127,80.0
22392,B1,702.5,167/1000,127,80.0
22393,D6,702.5,167/1000,127,80.0
22394,D5,702.5,167/1000,127,80.0
22395,A4,702.5,0.125,127,80.0
22396,D6,702.5,167/1000,127,80.0
22397,A4,702.625,0.125,127,80.0
22398,E5,702.667,167/1000,127,80.0
22399,E5,702.667,167/1000,127,80.0
22400,E2,702.667,167/1000,127,80.0
22401,E-3,702.667,167/1000,127,80.0
22402,E6,702.667,167/1000,127,80.0
22403,E5,702.667,167/1000,127,80.0
22404,E6,702.667,167/1000,127,80.0
22405,A4,702.75,0.125,127,80.0
22406,F5,702.833,167/1000,127,80.0
22407,F5,702.833,167/1000,127,80.0
22408,F2,702.833,167/1000,127,80.0
22409,D2,702.833,167/1000,127,80.0
22410,F6,702.833,167/1000,127,80.0
22411,F5,702.833,167/1000,127,80.0
22412,F6,702.833,167/1000,127,80.0
22413,A4,702.875,0.125,127,80.0
22414,G5,703.0,167/1000,127,80.0
22415,G5,703.0,167/1000,127,80.0
22416,G2,703.0,167/1000,127,80.0
22417,F3,703.0,167/1000,127,80.0
22418,G6,703.0,167/1000,127,80.0
22419,G5,703.0,167/1000,127,80.0
22420,A4,703.0,0.125,127,80.0
22421,G6,703.0,167/1000,127,80.0
22422,A4,703.125,0.125,127,80.0
22423,A5,703.167,167/1000,127,80.0
22424,A5,703.167,167/1000,127,80.0
22425,A2,703.167,167/1000,127,80.0
22426,B1,703.167,167/1000,127,80.0
22427,A6,703.167,167/1000,127,80.0
22428,A5,703.167,167/1000,127,80.0
22429,A6,703.167,167/1000,127,80.0
22430,A4,703.25,0.125,127,80.0
22431,E5,703.333,167/1000,127,80.0
22432,E5,703.333,167/1000,127,80.0
22433,E2,703.333,167/1000,127,80.0
22434,E-3,703.333,167/1000,127,80.0
22435,E6,703.333,167/1000,127,80.0
22436,E5,703.333,167/1000,127,80.0
22437,E6,703.333,167/1000,127,80.0
22438,A4,703.375,0.125,127,80.0
22439,E5,703.5,167/1000,127,80.0
22440,E5,703.5,167/1000,127,80.0
22441,E2,703.5,167/1000,127,80.0
22442,B1,703.5,167/1000,127,80.0
22443,E6,703.5,167/1000,127,80.0
22444,E5,703.5,167/1000,127,80.0
22445,A4,703.5,0.125,127,80.0
22446,E6,703.5,167/1000,127,80.0
22447,A4,703.625,0.125,127,80.0
22448,F5,703.667,167/1000,127,80.0
22449,F5,703.667,167/1000,127,80.0
22450,F2,703.667,167/1000,127,80.0
22451,F3,703.667,167/1000,127,80.0
22452,F6,703.667,167/1000,127,80.0
22453,F5,703.667,167/1000,127,80.0
22454,F6,703.667,167/1000,127,80.0
22455,A4,703.75,0.125,127,80.0
22456,G5,703.833,167/1000,127,80.0
22457,G5,703.833,167/1000,127,80.0
22458,G2,703.833,167/1000,127,80.0
22459,B1,703.833,167/1000,127,80.0
22460,G6,703.833,167/1000,127,80.0
22461,G5,703.833,167/1000,127,80.0
22462,G6,703.833,167/1000,127,80.0
22463,A4,703.875,31/250,127,80.0
22464,B-5,704.0,0.5,127,80.0
22465,B-5,704.0,0.5,127,80.0
22466,C2,704.0,0.5,127,80.0
22467,D2,704.0,167/1000,127,80.0
22468,B-6,704.0,0.5,127,80.0
22469,B-5,704.0,0.5,127,80.0
22470,B-6,704.0,0.5,127,80.0
22471,B1,704.167,167/1000,127,80.0
22472,E-3,704.333,167/1000,127,80.0
22473,C#3,704.5,1.5,127,80.0
22474,B1,704.5,1.5,127,80.0
22475,A5,705.5,0.5,127,80.0
22476,A5,705.5,0.5,127,80.0
22477,B1,705.5,0.5,127,80.0
22478,A6,705.5,0.5,127,80.0
22479,A5,705.5,0.5,127,80.0
22480,A6,705.5,0.5,127,80.0
22481,A3,706.0,1.0,127,80.0
22482,D2,706.0,1.0,127,80.0
22483,D5,707.0,0.5,127,80.0
22484,D5,707.0,0.5,127,80.0
22485,D2,707.0,1.0,127,80.0
22486,D2,707.0,0.25,127,80.0
22487,D6,707.0,0.5,127,80.0
22488,D5,707.0,0.5,127,80.0
22489,F4,707.0,143/1000,127,80.0
22490,D6,707.0,0.5,127,80.0
22491,G4,707.143,143/1000,127,80.0
22492,D2,707.25,83/1000,127,80.0
22493,G4,707.285,143/1000,127,80.0
22494,D2,707.333,83/1000,127,80.0
22495,D2,707.417,83/1000,127,80.0
22496,C5,707.428,143/1000,127,80.0
22497,E-3,707.5,0.5,127,80.0
22498,B1,707.5,0.5,127,80.0
22499,B-4,707.571,143/1000,127,80.0
22500,G4,707.714,143/1000,127,80.0
22501,D4,707.856,143/1000,127,80.0
22502,A4,708.0,0.5,127,80.0
22503,A4,708.0,0.5,127,80.0
22504,A1,708.0,1.0,127,80.0
22505,E-3,708.0,0.5,127,80.0
22506,A5,708.0,0.5,127,80.0
22507,A4,708.0,0.5,127,80.0
22508,E4,708.0,0.125,127,80.0
22509,A5,708.0,0.5,127,80.0
22510,E4,708.125,0.125,127,80.0
22511,E4,708.25,0.125,127,80.0
22512,E4,708.375,0.125,127,80.0
22513,E4,708.5,0.125,127,80.0
22514,E-3,708.5,0.5,127,80.0
22515,B1,708.5,0.5,127,80.0
22516,E4,708.625,0.125,127,80.0
22517,E4,708.75,0.125,127,80.0
22518,E4,708.875,31/250,127,80.0
22519,D5,709.0,0.5,127,80.0
22520,D5,709.0,0.5,127,80.0
22521,D2,709.0,1.0,127,80.0
22522,E-3,709.0,0.5,127,80.0
22523,D6,709.0,0.5,127,80.0
22524,D5,709.0,0.5,127,80.0
22525,D6,709.0,0.5,127,80.0
22526,F3,709.5,0.5,127,80.0
22527,D2,709.5,0.5,127,80.0
22528,G4,709.6,1/5,127,80.0
22529,D5,709.8,1/5,127,80.0
22530,G5,710.0,0.5,127,80.0
22531,G5,710.0,0.5,127,80.0
22532,G2,710.0,1.0,127,80.0
22533,E-3,710.0,0.5,127,80.0
22534,G6,710.0,0.5,127,80.0
22535,G5,710.0,0.5,127,80.0
22536,B4,710.0,1/5,127,80.0
22537,G6,710.0,0.5,127,80.0
22538,C5,710.2,1/5,127,80.0
22539,E5,710.4,1/5,127,80.0
22540,F3,710.5,0.5,127,80.0
22541,D2,710.5,0.5,127,80.0
22542,F5,710.6,1/5,127,80.0
22543,D5,710.8,1/5,127,80.0
22544,E5,711.0,0.5,127,80.0
22545,E5,711.0,0.5,127,80.0
22546,E2,711.0,1.0,127,80.0
22547,E-3,711.0,0.5,127,80.0
22548,E6,711.0,0.5,127,80.0
22549,E5,711.0,0.5,127,80.0
22550,C5,711.0,0.125,127,80.0
22551,E6,711.0,0.5,127,80.0
22552,F5,711.125,0.125,127,80.0
22553,E5,711.25,0.125,127,80.0
22554,C5,711.375,0.125,127,80.0
22555,E-3,711.5,0.25,127,80.0
22556,E5,711.5,0.125,127,80.0
22557,E5,711.625,0.125,127,80.0
22558,A2,711.75,0.25,127,80.0
22559,E5,711.75,0.125,127,80.0
22560,E5,711.875,0.125,127,80.0
22561,C5,712.0,0.5,127,80.0
22562,C5,712.0,0.5,127,80.0
22563,C2,712.0,1.0,127,80.0
22564,C#3,712.0,0.25,127,80.0
22565,C6,712.0,0.5,127,80.0
22566,C5,712.0,0.5,127,80.0
22567,E5,712.0,0.125,127,80.0
22568,C6,712.0,0.5,127,80.0
22569,E5,712.125,0.125,127,80.0
22570,G2,712.25,0.25,127,80.0
22571,E5,712.25,0.125,127,80.0
22572,E5,712.375,0.125,127,80.0
22573,C#3,712.5,0.25,127,80.0
22574,E5,712.5,0.125,127,80.0
22575,E5,712.625,0.125,127,80.0
22576,F2,712.75,0.25,127,80.0
22577,E5,712.75,0.125,127,80.0
22578,E5,712.875,0.125,127,80.0
22579,A4,713.0,1.5,127,80.0
22580,A4,713.0,1.5,127,80.0
22581,A1,713.0,1.5,127,80.0
22582,C#3,713.0,0.25,127,80.0
22583,A5,713.0,1.5,127,80.0
22584,A4,713.0,1.5,127,80.0
22585,E5,713.0,0.125,127,80.0
22586,A5,713.0,0.125,127,80.0
22587,E5,713.125,0.125,127,80.0
22588,A5,713.125,0.125,127,80.0
22589,F2,713.25,0.25,127,80.0
22590,E5,713.25,0.125,127,80.0
22591,A5,713.25,0.125,127,80.0
22592,E5,713.375,0.125,127,80.0
22593,A5,713.375,0.125,127,80.0
22594,E5,713.5,0.125,127,80.0
22595,A5,713.5,0.125,127,80.0
22596,A3,713.5,0.5,127,80.0
22597,B1,713.5,0.5,127,80.0
22598,E5,713.625,0.125,127,80.0
22599,A5,713.625,0.125,127,80.0
22600,E5,713.75,0.125,127,80.0
22601,A5,713.75,0.125,127,80.0
22602,E5,713.875,31/250,127,80.0
22603,A5,713.875,0.125,127,80.0
22604,F3,714.0,0.25,127,80.0
22605,A5,714.0,0.125,127,80.0
22606,A5,714.125,0.125,127,80.0
22607,B1,714.25,0.25,127,80.0
22608,A5,714.25,0.125,127,80.0
22609,A5,714.375,31/250,127,80.0
22610,E5,714.5,1.5,127,80.0
22611,E5,714.5,1.5,127,80.0
22612,E2,714.5,1.5,127,80.0
22613,F3,714.5,0.25,127,80.0
22614,E6,714.5,1.5,127,80.0
22615,E5,714.5,1.5,127,80.0
22616,E6,714.5,0.125,127,80.0
22617,E6,714.625,0.125,127,80.0
22618,D2,714.75,0.25,127,80.0
22619,E6,714.75,0.125,127,80.0
22620,E6,714.875,0.125,127,80.0
22621,E6,715.0,0.125,127,80.0
22622,A3,715.0,0.5,127,80.0
22623,D2,715.0,0.5,127,80.0
22624,E6,715.125,0.125,127,80.0
22625,E6,715.25,0.125,127,80.0
22626,E6,715.375,0.125,127,80.0
22627,F3,715.5,0.25,127,80.0
22628,E6,715.5,0.125,127,80.0
22629,E6,715.625,0.125,127,80.0
22630,B1,715.75,0.25,127,80.0
22631,E6,715.75,0.125,127,80.0
22632,E6,715.875,31/250,127,80.0
22633,E-5,716.0,0.5,127,80.0
22634,E-5,716.0,0.5,127,80.0
22635,G#1,716.0,1.5,127,80.0
22636,F3,716.0,0.25,127,80.0
22637,E-6,716.0,0.5,127,80.0
22638,E-5,716.0,0.5,127,80.0
22639,E-6,716.0,0.5,127,80.0
22640,B1,716.25,0.25,127,80.0
22641,G#4,716.5,0.5,127,80.0
22642,G#4,716.5,0.5,127,80.0
22643,G#5,716.5,0.5,127,80.0
22644,G#4,716.5,0.5,127,80.0
22645,G#5,716.5,0.5,127,80.0
22646,C#3,716.5,0.5,127,80.0
22647,B1,716.5,0.5,127,80.0
22648,C#4,717.0,0.5,127,80.0
22649,C#4,717.0,0.5,127,80.0
22650,E-3,717.0,0.25,127,80.0
22651,C#5,717.0,0.5,127,80.0
22652,C#4,717.0,0.5,127,80.0
22653,C#5,717.0,0.5,127,80.0
22654,B1,717.25,0.25,127,80.0
22655,E5,717.333,333/1000,127,80.0
22656,C4,717.5,0.5,127,80.0
22657,C4,717.5,0.5,127,80.0
22658,E-1,717.5,0.5,127,80.0
22659,C5,717.5,0.5,127,80.0
22660,C4,717.5,0.5,127,80.0
22661,C5,717.5,0.5,127,80.0
22662,E-3,717.5,0.5,127,80.0
22663,D2,717.5,0.5,127,80.0
22664,E5,717.667,333/1000,127,80.0
22665,C#4,718.0,0.5,127,80.0
22666,C#4,718.0,0.5,127,80.0
22667,G#1,718.0,1.0,127,80.0
22668,E-3,718.0,0.25,127,80.0
22669,C#5,718.0,0.5,127,80.0
22670,C#4,718.0,0.5,127,80.0
22671,E5,718.0,333/1000,127,80.0
22672,C#5,718.0,0.5,127,80.0
22673,B1,718.25,0.25,127,80.0
22674,G#4,718.5,0.5,127,80.0
22675,G#4,718.5,0.5,127,80.0
22676,G#5,718.5,0.5,127,80.0
22677,G#4,718.5,0.5,127,80.0
22678,G#5,718.5,0.5,127,80.0
22679,E-3,718.5,0.5,127,80.0
22680,B1,718.5,0.5,127,80.0
22681,E5,718.667,333/1000,127,80.0
22682,E4,719.0,0.5,127,80.0
22683,E4,719.0,0.5,127,80.0
22684,E-1,719.0,0.5,127,80.0
22685,E-3,719.0,0.25,127,80.0
22686,E5,719.0,0.5,127,80.0
22687,E4,719.0,0.5,127,80.0
22688,E5,719.0,0.5,127,80.0
22689,B1,719.25,0.25,127,80.0
22690,E5,719.333,333/1000,127,80.0
22691,F#4,719.5,0.5,127,80.0
22692,F#4,719.5,0.5,127,80.0
22693,F1,719.5,0.5,127,80.0
22694,D2,719.5,0.5,127,80.0
22695,F#5,719.5,0.5,127,80.0
22696,F#4,719.5,0.5,127,80.0
22697,F#5,719.5,0.5,127,80.0
22698,G4,720.0,0.5,127,80.0
22699,G4,720.0,0.5,127,80.0
22700,C2,720.0,1.0,127,80.0
22701,G5,720.0,0.5,127,80.0
22702,G4,720.0,0.5,127,80.0
22703,E5,720.0,143/1000,127,80.0
22704,G5,720.0,0.5,127,80.0
22705,E-3,720.0,0.5,127,80.0
22706,B1,720.0,0.5,127,80.0
22707,D5,720.143,143/1000,127,80.0
22708,B4,720.285,143/1000,127,80.0
22709,E5,720.428,143/1000,127,80.0
22710,C5,720.5,0.5,127,80.0
22711,C5,720.5,0.5,127,80.0
22712,E-3,720.5,0.25,127,80.0
22713,C6,720.5,0.5,127,80.0
22714,C5,720.5,0.5,127,80.0
22715,C6,720.5,0.5,127,80.0
22716,D5,720.571,143/1000,127,80.0
22717,E5,720.714,143/1000,127,80.0
22718,B1,720.75,0.25,127,80.0
22719,F5,720.856,143/1000,127,80.0
22720,G#4,720.999,0.125,127,80.0
22721,C5,721.0,0.25,127,80.0
22722,C5,721.0,0.25,127,80.0
22723,C2,721.0,0.25,127,80.0
22724,C6,721.0,0.25,127,80.0
22725,C5,721.0,0.25,127,80.0
22726,C6,721.0,0.25,127,80.0
22727,C#3,721.0,0.5,127,80.0
22728,D2,721.0,0.5,127,80.0
22729,G#4,721.124,0.125,127,80.0
22730,G#4,721.249,0.125,127,80.0
22731,G#4,721.374,0.125,127,80.0
22732,G#4,721.499,0.125,127,80.0
22733,C5,721.5,0.25,127,80.0
22734,C5,721.5,0.25,127,80.0
22735,G1,721.5,0.25,127,80.0
22736,C6,721.5,0.25,127,80.0
22737,C5,721.5,0.25,127,80.0
22738,C6,721.5,0.25,127,80.0
22739,C#3,721.5,0.5,127,80.0
22740,D2,721.5,0.5,127,80.0
22741,G#4,721.624,0.125,127,80.0
22742,G#4,721.749,0.125,127,80.0
22743,G#4,721.874,31/250,127,80.0
22744,C5,722.0,4.0,127,80.0
22745,C5,722.0,4.0,127,80.0
22746,C#2,722.0,4.0,127,80.0
22747,C6,722.0,4.0,127,80.0
22748,C5,722.0,4.0,127,80.0
22749,C6,722.0,0.125,127,80.0
22750,A3,722.0,0.5,127,80.0
22751,B1,722.0,0.5,127,80.0
22752,C6,722.125,0.125,127,80.0
22753,C6,722.25,0.125,127,80.0
22754,C6,722.375,0.125,127,80.0
22755,A3,722.5,1.0,127,80.0
22756,C6,722.5,0.125,127,80.0
22757,C6,722.625,0.125,127,80.0
22758,G#4,722.749,0.125,127,80.0
22759,C6,722.75,0.125,127,80.0
22760,A4,722.874,0.125,127,80.0
22761,C6,722.875,0.125,127,80.0
22762,D5,723.0,333/1000,127,80.0
22763,C6,723.0,0.125,127,80.0
22764,C6,723.125,0.125,127,80.0
22765,C6,723.25,0.125,127,80.0
22766,B4,723.333,333/1000,127,80.0
22767,C6,723.375,0.125,127,80.0
22768,C6,723.5,0.125,127,80.0
22769,A3,723.5,0.125,127,80.0
22770,C#3,723.5,0.125,127,80.0
22771,C6,723.625,0.125,127,80.0
22772,A3,723.625,0.125,127,80.0
22773,C#3,723.625,0.125,127,80.0
22774,C5,723.667,333/1000,127,80.0
22775,C6,723.75,0.125,127,80.0
22776,A3,723.75,0.125,127,80.0
22777,C#3,723.75,0.125,127,80.0
22778,C6,723.875,0.125,127,80.0
22779,A3,723.875,0.125,127,80.0
22780,C#3,723.875,0.125,127,80.0
22781,E5,724.0,333/1000,127,80.0
22782,C6,724.0,0.125,127,80.0
22783,A3,724.0,0.125,127,80.0
22784,C#3,724.0,0.125,127,80.0
22785,C6,724.125,0.125,127,80.0
22786,A3,724.125,0.125,127,80.0
22787,C#3,724.125,0.125,127,80.0
22788,C6,724.25,0.125,127,80.0
22789,A3,724.25,0.125,127,80.0
22790,C#3,724.25,0.125,127,80.0
22791,F5,724.333,333/1000,127,80.0
22792,C6,724.375,0.125,127,80.0
22793,A3,724.375,0.125,127,80.0
22794,C#3,724.375,0.125,127,80.0
22795,C6,724.5,0.125,127,80.0
22796,A3,724.5,0.125,127,80.0
22797,C#3,724.5,0.125,127,80.0
22798,C6,724.625,0.125,127,80.0
22799,A3,724.625,0.125,127,80.0
22800,C#3,724.625,0.125,127,80.0
22801,D5,724.667,333/1000,127,80.0
22802,C6,724.75,0.125,127,80.0
22803,A3,724.75,0.125,127,80.0
22804,C#3,724.75,0.125,127,80.0
22805,C6,724.875,0.125,127,80.0
22806,A3,724.875,0.125,127,80.0
22807,C#3,724.875,0.125,127,80.0
22808,E5,725.0,0.125,127,80.0
22809,C6,725.0,0.125,127,80.0
22810,A3,725.0,0.125,127,80.0
22811,C#3,725.0,0.125,127,80.0
22812,E5,725.125,0.125,127,80.0
22813,C6,725.125,0.125,127,80.0
22814,A3,725.125,0.125,127,80.0
22815,C#3,725.125,0.125,127,80.0
22816,E5,725.25,0.125,127,80.0
22817,C6,725.25,0.125,127,80.0
22818,A3,725.25,0.125,127,80.0
22819,C#3,725.25,0.125,127,80.0
22820,E5,725.375,0.125,127,80.0
22821,C6,725.375,0.125,127,80.0
22822,A3,725.375,0.125,127,80.0
22823,C#3,725.375,0.125,127,80.0
22824,E5,725.5,0.125,127,80.0
22825,C6,725.5,0.125,127,80.0
22826,A3,725.5,0.125,127,80.0
22827,C#3,725.5,0.125,127,80.0
22828,E5,725.625,0.125,127,80.0
22829,C6,725.625,0.125,127,80.0
22830,A3,725.625,0.125,127,80.0
22831,C#3,725.625,0.125,127,80.0
22832,E5,725.75,0.125,127,80.0
22833,C6,725.75,0.125,127,80.0
22834,A3,725.75,0.125,127,80.0
22835,C#3,725.75,0.125,127,80.0
22836,E5,725.875,0.125,127,80.0
22837,C6,725.875,31/250,127,80.0
22838,A3,725.875,0.125,127,80.0
22839,C#3,725.875,0.125,127,80.0
22840,E5,726.0,0.125,127,80.0
22841,A3,726.0,0.125,127,80.0
22842,C#3,726.0,0.125,127,80.0
22843,E5,726.125,0.125,127,80.0
22844,A3,726.125,0.125,127,80.0
22845,C#3,726.125,0.125,127,80.0
22846,E5,726.25,0.125,127,80.0
22847,A3,726.25,0.125,127,80.0
22848,C#3,726.25,0.125,127,80.0
22849,E5,726.375,0.125,127,80.0
22850,A3,726.375,31/250,127,80.0
22851,C#3,726.375,31/250,127,80.0
22852,E5,726.5,0.125,127,80.0
22853,E5,726.625,0.125,127,80.0
22854,E5,726.75,0.125,127,80.0
22855,E5,726.875,0.125,127,80.0
22856,E5,727.0,0.125,127,80.0
22857,E5,727.125,0.125,127,80.0
22858,E5,727.25,0.125,127,80.0
22859,E5,727.375,0.125,127,80.0
22860,E5,727.5,0.125,127,80.0
22861,E5,727.625,0.125,127,80.0
22862,E5,727.75,0.125,127,80.0
22863,E5,727.875,31/250,127,80.0
22864,E5,728.5,167/1000,127,80.0
22865,F5,728.667,167/1000,127,80.0
22866,E5,728.833,167/1000,127,80.0
22867,D5,729.0,167/1000,127,80.0
22868,E5,729.167,167/1000,127,80.0
22869,F5,729.333,167/1000,127,80.0
22870,G5,729.5,167/1000,127,80.0
22871,A5,729.667,167/1000,127,80.0
22872,E5,729.833,167/1000,127,80.0
22873,E5,730.0,167/1000,127,80.0
22874,F5,730.167,167/1000,127,80.0
22875,G5,730.333,167/1000,127,80.0
22876,D5,730.5,167/1000,127,80.0
22877,E5,730.667,167/1000,127,80.0
22878,F5,730.833,167/1000,127,80.0
22879,G5,731.0,167/1000,127,80.0
22880,A5,731.167,167/1000,127,80.0
22881,E5,731.333,167/1000,127,80.0
22882,E5,731.5,167/1000,127,80.0
22883,F5,731.667,167/1000,127,80.0
22884,G5,731.833,167/1000,127,80.0
22885,B-5,732.0,0.5,127,80.0
22886,A5,733.5,0.5,127,80.0
22887,D5,735.0,0.5,127,80.0
22888,A4,736.0,0.5,127,80.0
22889,D5,737.0,0.5,127,80.0
22890,G5,738.0,0.5,127,80.0
22891,E5,739.0,0.5,127,80.0
22892,C5,740.0,0.5,127,80.0
22893,A4,741.0,0.125,127,80.0
22894,A4,741.125,0.125,127,80.0
22895,A4,741.25,0.125,127,80.0
22896,A4,741.375,0.125,127,80.0
22897,A4,741.5,0.125,127,80.0
22898,A4,741.625,0.125,127,80.0
22899,A4,741.75,0.125,127,80.0
22900,A4,741.875,0.125,127,80.0
22901,A4,742.0,0.125,127,80.0
22902,A4,742.125,0.125,127,80.0
22903,A4,742.25,0.125,127,80.0
22904,A4,742.375,31/250,127,80.0
22905,E5,742.5,0.125,127,80.0
22906,E5,742.625,0.125,127,80.0
22907,E5,742.75,0.125,127,80.0
22908,E5,742.875,0.125,127,80.0
22909,E5,743.0,0.125,127,80.0
22910,E5,743.125,0.125,127,80.0
22911,E5,743.25,0.125,127,80.0
22912,E5,743.375,0.125,127,80.0
22913,E5,743.5,0.125,127,80.0
22914,E5,743.625,0.125,127,80.0
22915,E5,743.75,0.125,127,80.0
22916,E5,743.875,31/250,127,80.0
22917,E-5,744.0,0.5,127,80.0
22918,G#4,744.5,0.5,127,80.0
22919,C#4,745.0,0.5,127,80.0
22920,C4,745.5,0.5,127,80.0
22921,C#4,746.0,0.5,127,80.0
22922,G#4,746.5,0.5,127,80.0
22923,E4,747.0,0.5,127,80.0
22924,F#4,747.5,0.5,127,80.0
22925,G4,748.0,0.5,127,80.0
22926,C5,748.5,0.5,127,80.0
22927,C5,749.0,0.25,127,80.0
22928,C5,749.5,0.25,127,80.0
22929,C5,750.0,0.125,127,80.0
22930,C5,750.125,0.125,127,80.0
22931,C5,750.25,0.125,127,80.0
22932,C5,750.375,0.125,127,80.0
22933,C5,750.5,0.125,127,80.0
22934,C5,750.625,0.125,127,80.0
22935,C5,750.75,0.125,127,80.0
22936,C5,750.875,0.125,127,80.0
22937,C5,751.0,0.125,127,80.0
22938,C5,751.125,0.125,127,80.0
22939,C5,751.25,0.125,127,80.0
22940,C5,751.375,0.125,127,80.0
22941,C5,751.5,0.125,127,80.0
22942,C5,751.625,0.125,127,80.0
22943,C5,751.75,0.125,127,80.0
22944,C5,751.875,0.125,127,80.0
22945,C5,752.0,0.125,127,80.0
22946,C5,752.125,0.125,127,80.0
22947,C5,752.25,0.125,127,80.0
22948,C5,752.375,0.125,127,80.0
22949,C5,752.5,0.125,127,80.0
22950,C5,752.625,0.125,127,80.0
22951,C5,752.75,0.125,127,80.0
22952,C5,752.875,0.125,127,80.0
22953,C5,753.0,0.125,127,80.0
22954,C5,753.125,0.125,127,80.0
22955,C5,753.25,0.125,127,80.0
22956,C5,753.375,0.125,127,80.0
22957,C5,753.5,0.125,127,80.0
22958,C5,753.625,0.125,127,80.0
22959,C5,753.75,0.125,127,80.0
22960,C5,753.875,31/250,127,80.0
