,note_name,start_time,duration,velocity,tempo
0,C#2,0.0,0.125,50,100.0
1,C#2,1.0,0.125,50,100.0
2,E2,2.0,0.125,12,100.0
3,E2,2.167,0.125,18,100.0
4,E2,2.333,0.125,33,100.0
5,E2,2.5,0.125,80,100.0
6,E2,2.833,0.125,86,100.0
7,E2,3.0,0.125,100,100.0
8,A2,3.333,0.125,72,100.0
9,E-3,3.833,0.125,87,100.0
10,C2,3.833,0.125,87,100.0
11,F1,4.0,77/250,80,100.0
12,F3,4.0,77/250,104,100.0
13,A3,4.0,0.125,83,100.0
14,C2,4.0,0.125,83,100.0
15,E-3,4.0,0.125,83,100.0
16,F2,4.308,1/5,80,100.0
17,F4,4.308,1/5,104,100.0
18,B1,4.5,2/5,80,100.0
19,B3,4.5,0.5,104,100.0
20,B-1,5.0,2/5,80,100.0
21,B-3,5.0,0.5,104,100.0
22,E2,5.0,0.125,100,100.0
23,E-3,5.0,0.125,100,100.0
24,G#1,5.5,2/5,80,100.0
25,G#3,5.5,0.5,104,100.0
26,F1,6.0,417/1000,80,100.0
27,F3,6.0,417/1000,104,100.0
28,C2,6.0,0.125,100,100.0
29,E-3,6.0,0.125,100,100.0
30,F1,6.808,1/5,80,100.0
31,F3,6.808,1/5,104,100.0
32,C2,6.808,0.125,55,100.0
33,E-3,6.808,0.125,55,100.0
34,E2,7.0,0.125,100,100.0
35,E-3,7.0,0.125,100,100.0
36,C2,7.833,0.125,78,100.0
37,E-3,7.833,0.125,78,100.0
38,E2,8.333,0.125,28,100.0
39,E-3,8.5,0.125,50,100.0
40,E2,8.833,0.125,27,100.0
41,E2,9.0,0.125,100,100.0
42,E-3,9.0,0.125,100,100.0
43,E-3,9.5,0.125,26,100.0
44,E2,9.833,0.125,27,100.0
45,E-3,10.0,0.125,100,100.0
46,E2,10.333,0.125,27,100.0
47,E-3,10.5,0.125,27,100.0
48,E-3,10.833,0.125,31,100.0
49,E2,10.833,0.125,31,100.0
50,E2,11.0,0.125,100,100.0
51,E-3,11.5,0.125,50,100.0
52,F1,12.0,77/250,80,100.0
53,F3,12.0,77/250,104,100.0
54,C2,12.0,0.125,100,100.0
55,E-3,12.0,0.125,100,100.0
56,F2,12.308,1/5,80,100.0
57,F4,12.308,1/5,104,100.0
58,B1,12.5,2/5,80,100.0
59,B3,12.5,0.5,104,100.0
60,B-1,13.0,2/5,80,100.0
61,B-3,13.0,0.5,104,100.0
62,E2,13.0,0.125,100,100.0
63,E-3,13.0,0.125,100,100.0
64,G#1,13.5,2/5,80,100.0
65,G#3,13.5,0.5,104,100.0
66,E-3,14.0,0.125,80,100.0
67,C2,14.0,0.125,80,100.0
68,C2,14.5,0.125,100,100.0
69,F1,14.5,0.375,80,100.0
70,F3,14.5,0.375,104,100.0
71,E-3,14.833,0.125,43,100.0
72,E-3,15.0,0.125,100,100.0
73,E2,15.5,0.125,100,100.0
74,E-3,15.833,0.125,80,100.0
75,E2,16.333,0.125,36,100.0
76,E-3,16.5,0.125,62,100.0
77,C2,16.5,0.125,62,100.0
78,E2,16.833,0.125,34,100.0
79,E-3,17.0,0.125,100,100.0
80,E-3,17.5,0.125,70,100.0
81,E2,17.5,0.125,70,100.0
82,E-3,18.0,0.125,100,100.0
83,E2,18.333,0.125,35,100.0
84,C2,18.5,0.125,53,100.0
85,E-3,18.5,0.125,53,100.0
86,E2,18.5,0.125,53,100.0
87,E-3,18.833,0.125,44,100.0
88,E2,19.0,0.125,100,100.0
89,E2,19.333,0.125,37,100.0
90,E-3,19.5,0.125,44,100.0
91,C2,19.833,0.125,48,100.0
92,F1,20.0,77/250,80,100.0
93,F3,20.0,77/250,104,100.0
94,A3,20.0,0.125,83,100.0
95,C2,20.0,0.125,83,100.0
96,E-3,20.0,0.125,83,100.0
97,F2,20.308,1/5,80,100.0
98,F4,20.308,1/5,104,100.0
99,B1,20.5,2/5,80,100.0
100,B3,20.5,0.5,104,100.0
101,B-1,21.0,2/5,80,100.0
102,B-3,21.0,0.5,104,100.0
103,E2,21.0,0.125,100,100.0
104,E-3,21.0,0.125,100,100.0
105,G#1,21.5,2/5,80,100.0
106,G#3,21.5,0.5,104,100.0
107,F1,22.0,417/1000,80,100.0
108,F3,22.0,417/1000,104,100.0
109,C2,22.0,0.125,100,100.0
110,E-3,22.0,0.125,100,100.0
111,F1,22.808,1/5,80,100.0
112,F3,22.808,1/5,104,100.0
113,C2,22.808,0.125,55,100.0
114,E-3,22.808,0.125,55,100.0
115,E2,23.0,0.125,100,100.0
116,E-3,23.0,0.125,100,100.0
117,C2,23.833,0.125,78,100.0
118,E-3,23.833,0.125,78,100.0
119,E2,24.333,0.125,33,100.0
120,E-3,24.5,0.125,50,100.0
121,E2,24.833,0.125,34,100.0
122,E2,25.0,0.125,100,100.0
123,E-3,25.0,0.125,100,100.0
124,E-3,25.5,0.125,35,100.0
125,E2,25.833,0.125,35,100.0
126,E-3,26.0,0.125,100,100.0
127,E2,26.333,0.125,37,100.0
128,E-3,26.5,0.125,36,100.0
129,E-3,26.833,0.125,45,100.0
130,E2,26.833,0.125,45,100.0
131,E2,27.0,0.125,100,100.0
132,E-3,27.5,0.125,46,100.0
133,F1,28.0,77/250,80,100.0
134,F3,28.0,77/250,104,100.0
135,C2,28.0,0.125,100,100.0
136,E-3,28.0,0.125,100,100.0
137,F2,28.308,1/5,80,100.0
138,F4,28.308,1/5,104,100.0
139,B1,28.5,2/5,80,100.0
140,B3,28.5,0.5,104,100.0
141,B-1,29.0,2/5,80,100.0
142,B-3,29.0,0.5,104,100.0
143,E2,29.0,0.125,100,100.0
144,E-3,29.0,0.125,100,100.0
145,G#1,29.5,2/5,80,100.0
146,G#3,29.5,0.5,104,100.0
147,E-3,30.0,0.125,80,100.0
148,C2,30.0,0.125,80,100.0
149,C2,30.5,0.125,100,100.0
150,F1,30.5,2/5,80,100.0
151,F3,30.5,2/5,104,100.0
152,E-3,30.833,0.125,50,100.0
153,E-3,31.0,0.125,100,100.0
154,E2,31.5,0.125,100,100.0
155,G1,32.5,12/5,80,100.0
156,E2,32.5,0.125,58,100.0
157,A3,32.5,0.125,58,100.0
158,C2,32.5,0.125,58,100.0
159,B3,32.5,2.5,104,100.0
160,B-4,32.5,2.5,104,100.0
161,F4,32.5,2.5,104,100.0
162,G3,32.5,2.5,104,100.0
163,E-3,33.5,0.125,40,100.0
164,E2,34.0,0.125,13,100.0
165,E2,34.167,0.125,33,100.0
166,E2,34.333,0.125,30,100.0
167,E2,34.5,0.125,80,100.0
168,E2,34.833,0.125,89,100.0
169,E2,35.0,0.125,100,100.0
170,F#4,35.308,24/125,68,100.0
171,F#4,35.308,24/125,104,100.0
172,A2,35.333,0.125,59,100.0
173,E-4,35.5,167/1000,68,100.0
174,E-4,35.5,167/1000,104,100.0
175,C4,35.667,167/1000,68,100.0
176,C4,35.667,167/1000,104,100.0
177,G3,35.833,133/1000,68,100.0
178,G3,35.833,167/1000,104,100.0
179,E-3,35.833,0.125,56,100.0
180,C2,35.833,0.125,56,100.0
181,C2,36.0,1.0,100,100.0
182,B3,36.0,333/1000,68,100.0
183,B3,36.0,333/1000,104,100.0
184,C2,36.0,0.125,75,100.0
185,G3,36.0,0.125,75,100.0
186,C4,36.333,1/5,68,100.0
187,C4,36.333,1/5,104,100.0
188,G#2,36.5,0.125,50,100.0
189,C2,36.833,0.125,32,100.0
190,E-3,36.833,0.125,32,100.0
191,F2,37.0,1.0,100,100.0
192,E-4,37.0,333/1000,68,100.0
193,E-4,37.0,333/1000,104,100.0
194,E-3,37.0,0.125,95,100.0
195,E2,37.0,0.125,95,100.0
196,A3,37.333,1/5,68,100.0
197,A3,37.333,1/5,104,100.0
198,G#2,37.5,0.125,50,100.0
199,E-3,37.833,0.125,32,100.0
200,C2,37.833,0.125,32,100.0
201,G#2,38.0,1.0,100,100.0
202,C2,38.0,0.125,85,100.0
203,E-3,38.0,0.125,85,100.0
204,F4,38.333,1/5,68,100.0
205,F4,38.333,1/5,104,100.0
206,G#2,38.5,0.125,50,100.0
207,E-4,38.5,1/5,68,100.0
208,E-4,38.5,1/5,104,100.0
209,E-3,38.833,0.125,32,100.0
210,C2,38.833,0.125,32,100.0
211,G2,39.0,1.0,100,100.0
212,E2,39.0,0.125,95,100.0
213,E-3,39.0,0.125,95,100.0
214,D4,39.333,1/5,68,100.0
215,D4,39.333,1/5,104,100.0
216,G#2,39.5,0.125,50,100.0
217,B4,39.5,1/5,68,100.0
218,B4,39.5,1/5,104,100.0
219,C2,39.833,0.125,32,100.0
220,E-3,39.833,0.125,32,100.0
221,F2,40.0,1.0,100,100.0
222,C2,40.0,0.125,85,100.0
223,E-3,40.0,0.125,85,100.0
224,D5,40.333,0.25,68,100.0
225,D5,40.333,417/1000,104,100.0
226,G#2,40.5,0.125,50,100.0
227,E-5,40.833,13/20,68,100.0
228,E-5,40.833,13/20,104,100.0
229,E-3,40.833,0.125,32,100.0
230,C2,40.833,0.125,32,100.0
231,F1,41.0,1.0,100,100.0
232,E-3,41.0,0.125,95,100.0
233,E2,41.0,0.125,95,100.0
234,G#2,41.5,0.125,50,100.0
235,C5,41.5,167/1000,68,100.0
236,C5,41.5,167/1000,104,100.0
237,G#4,41.667,167/1000,68,100.0
238,G#4,41.667,167/1000,104,100.0
239,C2,41.833,0.125,30,100.0
240,E-4,41.833,167/1000,68,100.0
241,E-4,41.833,167/1000,104,100.0
242,E1,42.0,1.0,100,100.0
243,D4,42.0,333/1000,68,100.0
244,D4,42.0,333/1000,104,100.0
245,C2,42.0,0.125,85,100.0
246,E-3,42.0,0.125,85,100.0
247,B3,42.333,167/1000,68,100.0
248,B3,42.333,1/5,104,100.0
249,G#2,42.5,0.125,50,100.0
250,C4,42.5,333/1000,68,100.0
251,C4,42.5,333/1000,104,100.0
252,F3,42.833,1/5,68,100.0
253,F3,42.833,1/5,104,100.0
254,C2,42.833,0.125,32,100.0
255,E-3,42.833,0.125,32,100.0
256,G#1,43.0,1.0,100,100.0
257,E-3,43.0,0.125,95,100.0
258,E2,43.0,0.125,95,100.0
259,F#4,43.333,167/1000,68,100.0
260,F#4,43.333,167/1000,104,100.0
261,G#2,43.5,0.125,50,100.0
262,E-4,43.5,167/1000,68,100.0
263,E-4,43.5,167/1000,104,100.0
264,C4,43.667,167/1000,68,100.0
265,C4,43.667,167/1000,104,100.0
266,G3,43.833,133/1000,68,100.0
267,G3,43.833,133/1000,104,100.0
268,E-3,43.833,0.125,38,100.0
269,C2,43.833,0.125,38,100.0
270,C2,44.0,1.0,100,100.0
271,B3,44.0,333/1000,68,100.0
272,B3,44.0,333/1000,104,100.0
273,E-3,44.0,0.125,85,100.0
274,C2,44.0,0.125,85,100.0
275,C4,44.333,1/5,68,100.0
276,C4,44.333,1/5,104,100.0
277,G#2,44.5,0.125,50,100.0
278,B3,44.5,333/1000,68,100.0
279,B3,44.5,333/1000,104,100.0
280,C4,44.833,1/5,68,100.0
281,C4,44.833,1/5,104,100.0
282,E-3,44.833,0.125,32,100.0
283,C2,44.833,0.125,32,100.0
284,F2,45.0,1.0,100,100.0
285,E-4,45.0,333/1000,68,100.0
286,E-4,45.0,333/1000,104,100.0
287,E-3,45.0,0.125,95,100.0
288,E2,45.0,0.125,95,100.0
289,A4,45.333,1/5,68,100.0
290,A4,45.333,1/5,104,100.0
291,G#2,45.5,0.125,50,100.0
292,E-3,45.833,0.125,32,100.0
293,C2,45.833,0.125,32,100.0
294,G#2,46.0,1.0,100,100.0
295,F4,46.0,333/1000,68,100.0
296,F4,46.0,333/1000,104,100.0
297,C2,46.0,0.125,85,100.0
298,E-3,46.0,0.125,85,100.0
299,E-4,46.333,1/5,68,100.0
300,E-4,46.333,1/5,104,100.0
301,G#2,46.5,0.125,50,100.0
302,F#4,46.833,1/5,68,100.0
303,F#4,46.833,1/5,104,100.0
304,E-3,46.833,0.125,32,100.0
305,C2,46.833,0.125,32,100.0
306,G2,47.0,1.0,100,100.0
307,E-4,47.0,333/1000,68,100.0
308,E-4,47.0,333/1000,104,100.0
309,E-3,47.0,0.125,95,100.0
310,E2,47.0,0.125,95,100.0
311,B3,47.333,1/5,68,100.0
312,B3,47.333,1/5,104,100.0
313,G#2,47.5,0.125,50,100.0
314,C4,47.5,333/1000,68,100.0
315,C4,47.5,333/1000,104,100.0
316,D4,47.833,167/1000,68,100.0
317,D4,47.833,167/1000,104,100.0
318,C2,47.833,0.125,32,100.0
319,E-3,47.833,0.125,32,100.0
320,F2,48.0,1.0,100,100.0
321,E-4,48.0,333/1000,68,100.0
322,D4,48.0,33/1000,68,100.0
323,E-4,48.0,333/1000,104,100.0
324,D4,48.0,33/1000,104,100.0
325,C2,48.0,0.125,85,100.0
326,E-3,48.0,0.125,85,100.0
327,G#3,48.308,1/5,68,100.0
328,G#3,48.308,1/5,104,100.0
329,G#2,48.5,0.125,50,100.0
330,G3,48.5,333/1000,68,100.0
331,G3,48.5,1/5,104,100.0
332,D4,48.808,1/5,68,100.0
333,D4,48.808,1/5,104,100.0
334,E-3,48.833,0.125,32,100.0
335,C2,48.833,0.125,32,100.0
336,E2,49.0,1.0,100,100.0
337,B3,49.0,333/1000,68,100.0
338,B3,49.0,1/5,104,100.0
339,E2,49.0,0.125,95,100.0
340,E-3,49.0,0.125,95,100.0
341,E-3,49.308,1/5,68,100.0
342,E-3,49.308,1/5,104,100.0
343,G#2,49.5,0.125,50,100.0
344,D3,49.5,333/1000,68,100.0
345,D3,49.5,1/5,104,100.0
346,C#3,49.808,21/40,68,100.0
347,C#3,49.808,9/20,104,100.0
348,C2,49.833,0.125,32,100.0
349,E-3,49.833,0.125,32,100.0
350,G2,50.0,1.0,100,100.0
351,E-3,50.0,0.125,85,100.0
352,C2,50.0,0.125,85,100.0
353,F3,50.308,1/5,68,100.0
354,F3,50.308,1/5,104,100.0
355,G#2,50.5,0.125,50,100.0
356,G3,50.5,333/1000,68,100.0
357,G3,50.5,1/5,104,100.0
358,B-3,50.808,1/5,68,100.0
359,B-3,50.808,1/5,104,100.0
360,E-3,50.833,0.125,32,100.0
361,C2,50.833,0.125,32,100.0
362,G1,51.0,0.375,100,100.0
363,B3,51.0,333/1000,68,100.0
364,B3,51.0,1/5,104,100.0
365,E-3,51.0,0.125,95,100.0
366,E2,51.0,0.125,95,100.0
367,B-4,51.308,1/5,68,100.0
368,B-4,51.308,1/5,104,100.0
369,G1,51.5,0.375,100,100.0
370,E4,51.5,2/5,68,100.0
371,E4,51.5,2/5,104,100.0
372,G3,51.5,0.125,78,100.0
373,C2,51.5,0.125,78,100.0
374,E2,51.5,0.125,78,100.0
375,G#2,51.5,0.125,78,100.0
376,G2,52.5,417/1000,100,100.0
377,C#5,52.5,2/5,68,100.0
378,C#5,52.5,2/5,104,100.0
379,E2,52.5,0.125,82,100.0
380,G3,52.5,0.125,82,100.0
381,C2,52.5,0.125,82,100.0
382,F#4,53.308,24/125,68,100.0
383,F#4,53.308,24/125,104,100.0
384,E-4,53.5,167/1000,68,100.0
385,E-4,53.5,167/1000,104,100.0
386,C4,53.667,167/1000,68,100.0
387,C4,53.667,167/1000,104,100.0
388,C2,53.833,0.125,30,100.0
389,G3,53.833,133/1000,68,100.0
390,G3,53.833,133/1000,104,100.0
391,C2,54.0,124/125,79,100.0
392,B3,54.0,333/1000,68,100.0
393,B3,54.0,333/1000,104,100.0
394,G3,54.0,0.125,73,100.0
395,C2,54.0,0.125,73,100.0
396,E-3,54.0,0.125,73,100.0
397,C4,54.333,1/5,68,100.0
398,C4,54.333,1/5,104,100.0
399,G#2,54.5,0.125,50,100.0
400,B3,54.5,333/1000,68,100.0
401,B3,54.5,333/1000,104,100.0
402,C4,54.833,1/5,68,100.0
403,C4,54.833,1/5,104,100.0
404,E-3,54.833,0.125,32,100.0
405,C2,54.833,0.125,32,100.0
406,F2,55.0,529/500,79,100.0
407,G#4,55.0,79/500,68,100.0
408,G#4,55.0,79/500,104,100.0
409,E-3,55.0,0.125,95,100.0
410,E2,55.0,0.125,95,100.0
411,B3,55.167,79/500,68,100.0
412,B3,55.167,79/500,104,100.0
413,G4,55.333,79/500,68,100.0
414,G4,55.333,79/500,104,100.0
415,G#2,55.5,0.125,50,100.0
416,F#4,55.5,0.375,68,100.0
417,F#4,55.5,0.375,104,100.0
418,C2,55.833,0.125,30,100.0
419,G#2,56.0,529/500,84,100.0
420,C2,56.0,0.125,85,100.0
421,E-3,56.0,0.125,85,100.0
422,F4,56.333,1/5,68,100.0
423,F4,56.333,1/5,104,100.0
424,G#2,56.5,0.125,50,100.0
425,E-4,56.5,1/5,68,100.0
426,E-4,56.5,1/5,104,100.0
427,C2,56.833,0.125,32,100.0
428,E-3,56.833,0.125,32,100.0
429,G2,57.0,1.0,84,100.0
430,E-3,57.0,0.125,95,100.0
431,E2,57.0,0.125,95,100.0
432,D4,57.333,1/5,68,100.0
433,D4,57.333,1/5,104,100.0
434,G#2,57.5,0.125,50,100.0
435,B4,57.5,1/5,68,100.0
436,B4,57.5,1/5,104,100.0
437,E-3,57.833,0.125,38,100.0
438,C2,57.833,0.125,38,100.0
439,F#2,58.0,227/250,91,100.0
440,G2,58.0,1/40,84,100.0
441,E-3,58.0,0.125,85,100.0
442,C2,58.0,0.125,85,100.0
443,E5,58.333,417/1000,68,100.0
444,E5,58.333,2/5,104,100.0
445,G#2,58.5,0.125,50,100.0
446,E-5,58.75,83/1000,68,100.0
447,E-5,58.75,67/1000,104,100.0
448,D5,58.833,83/1000,68,100.0
449,D5,58.833,67/1000,104,100.0
450,E-3,58.833,0.125,32,100.0
451,C2,58.833,0.125,32,100.0
452,C#5,58.917,83/1000,68,100.0
453,C#5,58.917,67/1000,104,100.0
454,C3,59.0,39/40,84,100.0
455,C5,59.0,1/5,68,100.0
456,C5,59.0,1/5,104,100.0
457,E-3,59.0,0.125,95,100.0
458,E2,59.0,0.125,95,100.0
459,G#4,59.308,2/5,68,100.0
460,G#4,59.308,2/5,104,100.0
461,G#2,59.5,0.125,50,100.0
462,E4,59.75,0.125,68,100.0
463,E4,59.75,1/10,104,100.0
464,E-3,59.833,0.125,32,100.0
465,C2,59.833,0.125,32,100.0
466,E-4,59.875,0.125,68,100.0
467,E-4,59.875,1/10,104,100.0
468,F2,60.0,967/1000,73,100.0
469,D4,60.0,333/1000,68,100.0
470,D4,60.0,333/1000,104,100.0
471,C2,60.0,0.125,85,100.0
472,E-3,60.0,0.125,85,100.0
473,B3,60.333,1/5,68,100.0
474,B3,60.333,1/5,104,100.0
475,G#2,60.5,0.125,50,100.0
476,C4,60.5,333/1000,68,100.0
477,C4,60.5,1/5,104,100.0
478,F3,60.833,1/5,68,100.0
479,F3,60.833,1/5,104,100.0
480,E-3,60.833,0.125,32,100.0
481,C2,60.833,0.125,32,100.0
482,G2,61.0,983/1000,70,100.0
483,E-3,61.0,0.125,95,100.0
484,E2,61.0,0.125,95,100.0
485,E-4,61.333,1/5,68,100.0
486,E-4,61.333,1/5,104,100.0
487,G#2,61.5,0.125,50,100.0
488,C4,61.5,1/5,68,100.0
489,C4,61.5,0.25,104,100.0
490,F#4,61.833,167/1000,68,100.0
491,F#4,61.833,167/1000,104,100.0
492,E-3,61.833,0.125,32,100.0
493,C2,61.833,0.125,32,100.0
494,G#1,62.0,39/40,114,100.0
495,F#4,62.0,283/1000,68,100.0
496,F#4,62.0,283/1000,104,100.0
497,C2,62.0,0.125,85,100.0
498,E-3,62.0,0.125,85,100.0
499,E-5,62.333,1/5,68,100.0
500,E-5,62.333,1/5,104,100.0
501,G#2,62.5,0.125,50,100.0
502,F#4,62.5,0.5,68,100.0
503,F#4,62.5,0.5,104,100.0
504,E-3,62.833,0.125,32,100.0
505,C2,62.833,0.125,32,100.0
506,B-1,63.0,479/500,105,100.0
507,F4,63.0,0.5,68,100.0
508,F4,63.0,0.5,104,100.0
509,E-3,63.0,0.125,95,100.0
510,E2,63.0,0.125,95,100.0
511,G#2,63.5,0.125,50,100.0
512,E-4,63.5,2/5,68,100.0
513,E-4,63.5,2/5,104,100.0
514,C2,63.833,0.125,30,100.0
515,C4,64.0,333/1000,68,100.0
516,C4,64.0,333/1000,104,100.0
517,C2,64.0,0.125,85,100.0
518,E-3,64.0,0.125,85,100.0
519,G2,64.0,51/125,105,100.0
520,C2,64.0,51/125,105,100.0
521,G#2,64.5,0.125,50,100.0
522,G2,64.808,7/20,96,100.0
523,C2,64.808,7/20,96,100.0
524,C4,64.833,1/5,68,100.0
525,C4,64.833,1/5,104,100.0
526,E-3,64.833,0.125,75,100.0
527,C2,64.833,0.125,75,100.0
528,E2,64.833,0.125,75,100.0
529,E-3,65.0,0.125,90,100.0
530,B-3,65.333,1/5,68,100.0
531,B-3,65.333,1/5,104,100.0
532,G#2,65.5,0.125,50,100.0
533,C4,65.5,333/1000,68,100.0
534,C4,65.5,333/1000,104,100.0
535,E-4,65.833,167/1000,68,100.0
536,E-4,65.833,167/1000,104,100.0
537,E-3,65.833,0.125,38,100.0
538,C2,65.833,0.125,38,100.0
539,G#1,66.0,471/500,127,100.0
540,F#4,66.0,0.25,68,100.0
541,F#4,66.0,0.25,104,100.0
542,E-3,66.0,0.125,85,100.0
543,C2,66.0,0.125,85,100.0
544,E-5,66.333,1/5,68,100.0
545,E-5,66.333,1/5,104,100.0
546,G#2,66.5,0.125,50,100.0
547,F#4,66.5,0.5,68,100.0
548,F#4,66.5,0.5,104,100.0
549,E-3,66.833,0.125,32,100.0
550,C2,66.833,0.125,32,100.0
551,B-1,67.0,41/40,114,100.0
552,F4,67.0,0.5,68,100.0
553,F4,67.0,0.5,104,100.0
554,E-3,67.0,0.125,95,100.0
555,E2,67.0,0.125,95,100.0
556,G#2,67.5,0.125,50,100.0
557,E-4,67.5,2/5,68,100.0
558,E-4,67.5,2/5,104,100.0
559,E-3,67.833,0.125,32,100.0
560,C2,67.833,0.125,32,100.0
561,C2,68.0,0.125,85,100.0
562,E-3,68.0,0.125,85,100.0
563,C4,68.5,317/1000,68,100.0
564,C4,68.5,317/1000,104,100.0
565,G#2,68.5,0.125,60,100.0
566,C2,68.5,0.125,60,100.0
567,E2,68.5,0.125,60,100.0
568,G2,68.5,51/125,103,100.0
569,C2,68.5,51/125,103,100.0
570,E-3,68.833,0.125,35,100.0
571,E-3,69.0,0.125,90,100.0
572,B-3,69.333,1/5,68,100.0
573,B-3,69.333,1/5,104,100.0
574,G#2,69.5,0.125,50,100.0
575,C4,69.5,333/1000,68,100.0
576,C4,69.5,333/1000,104,100.0
577,E-4,69.833,167/1000,68,100.0
578,E-4,69.833,167/1000,104,100.0
579,E-3,69.833,0.125,32,100.0
580,C2,69.833,0.125,32,100.0
581,G#1,70.0,124/125,116,100.0
582,F#4,70.0,0.25,68,100.0
583,E-4,70.0,33/1000,68,100.0
584,F#4,70.0,0.25,104,100.0
585,E-4,70.0,33/1000,104,100.0
586,C2,70.0,0.125,85,100.0
587,E-3,70.0,0.125,85,100.0
588,E-5,70.333,1/5,68,100.0
589,E-5,70.333,1/5,104,100.0
590,G#2,70.5,0.125,50,100.0
591,F#4,70.5,0.5,68,100.0
592,F#4,70.5,0.5,104,100.0
593,E-3,70.833,0.125,32,100.0
594,C2,70.833,0.125,32,100.0
595,B-1,71.0,917/1000,107,100.0
596,F4,71.0,0.5,68,100.0
597,F4,71.0,2/5,104,100.0
598,E-3,71.0,0.125,95,100.0
599,E2,71.0,0.125,95,100.0
600,G#2,71.5,0.125,50,100.0
601,E-4,71.5,0.5,68,100.0
602,E-4,71.5,2/5,104,100.0
603,C2,71.833,0.125,30,100.0
604,C4,72.0,0.375,68,100.0
605,C4,72.0,0.375,104,100.0
606,C2,72.0,0.125,85,100.0
607,E-3,72.0,0.125,85,100.0
608,C2,72.0,179/500,98,100.0
609,G2,72.0,179/500,98,100.0
610,G#2,72.5,0.125,50,100.0
611,G2,72.808,73/250,106,100.0
612,C2,72.808,73/250,106,100.0
613,C4,72.833,1/5,68,100.0
614,C4,72.833,1/5,104,100.0
615,C2,72.833,0.125,55,100.0
616,E-3,72.833,0.125,55,100.0
617,E2,72.833,0.125,55,100.0
618,E-3,73.0,0.125,90,100.0
619,B-3,73.333,1/5,68,100.0
620,B-3,73.333,1/5,104,100.0
621,G#2,73.5,0.125,50,100.0
622,C4,73.5,333/1000,68,100.0
623,C4,73.5,333/1000,104,100.0
624,E-4,73.833,167/1000,68,100.0
625,E-4,73.833,167/1000,104,100.0
626,E-3,73.833,0.125,38,100.0
627,C2,73.833,0.125,38,100.0
628,G#1,74.0,1033/1000,119,100.0
629,F#4,74.0,0.25,68,100.0
630,E-4,74.0,33/1000,68,100.0
631,F#4,74.0,0.25,104,100.0
632,E-4,74.0,33/1000,104,100.0
633,C2,74.0,0.125,85,100.0
634,E-3,74.0,0.125,85,100.0
635,E-5,74.333,1/5,68,100.0
636,E-5,74.333,1/5,104,100.0
637,G#2,74.5,0.125,50,100.0
638,F#4,74.5,0.5,68,100.0
639,F#4,74.5,0.5,104,100.0
640,E-3,74.833,0.125,32,100.0
641,C2,74.833,0.125,32,100.0
642,B-1,75.0,429/500,107,100.0
643,F4,75.0,0.5,68,100.0
644,F4,75.0,2/5,104,100.0
645,E2,75.0,0.125,95,100.0
646,E-3,75.0,0.125,95,100.0
647,G#2,75.5,0.125,50,100.0
648,E-4,75.5,2/5,68,100.0
649,E-4,75.5,2/5,104,100.0
650,C2,75.833,0.125,32,100.0
651,E-3,75.833,0.125,32,100.0
652,C2,76.0,0.125,50,100.0
653,G1,76.5,1.5,109,100.0
654,B-4,76.5,1.5,68,100.0
655,A3,76.5,0.125,62,100.0
656,E2,76.5,0.125,62,100.0
657,B3,76.5,1.5,104,100.0
658,G3,76.5,1.5,104,100.0
659,B-4,76.5,1.5,104,100.0
660,F4,76.5,1.5,104,100.0
661,E-3,77.5,0.125,40,100.0
662,G1,78.0,2.0,109,100.0
663,B-4,78.0,9/10,68,100.0
664,E-3,78.0,0.125,26,100.0
665,E2,78.0,0.125,26,100.0
666,B3,78.0,9/10,104,100.0
667,G3,78.0,9/10,104,100.0
668,B-4,78.0,9/10,104,100.0
669,F4,78.0,9/10,104,100.0
670,E2,78.167,0.125,33,100.0
671,E2,78.333,0.125,30,100.0
672,E2,78.5,0.125,80,100.0
673,E2,78.833,0.125,89,100.0
674,E2,79.0,0.125,100,100.0
675,F#4,79.308,24/125,68,100.0
676,F#4,79.308,24/125,104,100.0
677,A2,79.333,0.125,59,100.0
678,E-4,79.5,167/1000,68,100.0
679,E-4,79.5,167/1000,104,100.0
680,C4,79.667,167/1000,68,100.0
681,C4,79.667,167/1000,104,100.0
682,G3,79.833,133/1000,68,100.0
683,G3,79.833,133/1000,104,100.0
684,E-3,79.833,0.125,56,100.0
685,C2,79.833,0.125,56,100.0
686,C2,80.0,1.0,100,100.0
687,B3,80.0,333/1000,68,100.0
688,B3,80.0,333/1000,104,100.0
689,G3,80.0,0.125,75,100.0
690,C2,80.0,0.125,75,100.0
691,C4,80.333,1/5,68,100.0
692,C4,80.333,1/5,104,100.0
693,G#2,80.5,0.125,50,100.0
694,E-3,80.833,0.125,32,100.0
695,C2,80.833,0.125,32,100.0
696,F2,81.0,1.0,100,100.0
697,E-4,81.0,333/1000,68,100.0
698,E-4,81.0,333/1000,104,100.0
699,E-3,81.0,0.125,95,100.0
700,E2,81.0,0.125,95,100.0
701,A3,81.333,333/1000,68,100.0
702,A3,81.333,1/5,104,100.0
703,G#2,81.5,0.125,50,100.0
704,E-3,81.833,0.125,32,100.0
705,C2,81.833,0.125,32,100.0
706,G#2,82.0,1.0,100,100.0
707,C2,82.0,0.125,85,100.0
708,E-3,82.0,0.125,85,100.0
709,F4,82.333,1/5,68,100.0
710,F4,82.333,1/5,104,100.0
711,G#2,82.5,0.125,50,100.0
712,E-4,82.5,1/5,68,100.0
713,E-4,82.5,1/5,104,100.0
714,E-3,82.833,0.125,32,100.0
715,C2,82.833,0.125,32,100.0
716,G2,83.0,1.0,100,100.0
717,E-3,83.0,0.125,95,100.0
718,E2,83.0,0.125,95,100.0
719,D4,83.333,1/5,68,100.0
720,D4,83.333,1/5,104,100.0
721,G#2,83.5,0.125,50,100.0
722,B4,83.5,1/5,68,100.0
723,B4,83.5,1/5,104,100.0
724,E-3,83.833,0.125,32,100.0
725,C2,83.833,0.125,32,100.0
726,F2,84.0,1.0,100,100.0
727,C2,84.0,0.125,85,100.0
728,E-3,84.0,0.125,85,100.0
729,D5,84.333,333/1000,68,100.0
730,D5,84.333,333/1000,104,100.0
731,G#2,84.5,0.125,50,100.0
732,E-5,84.833,13/20,68,100.0
733,E-5,84.833,13/20,104,100.0
734,E-3,84.833,0.125,32,100.0
735,C2,84.833,0.125,32,100.0
736,F1,85.0,1.0,100,100.0
737,E-3,85.0,0.125,95,100.0
738,E2,85.0,0.125,95,100.0
739,G#2,85.5,0.125,50,100.0
740,C5,85.5,167/1000,68,100.0
741,C5,85.5,167/1000,104,100.0
742,G#4,85.667,167/1000,68,100.0
743,G#4,85.667,167/1000,104,100.0
744,C2,85.833,0.125,30,100.0
745,E-4,85.833,167/1000,68,100.0
746,E-4,85.833,167/1000,104,100.0
747,E1,86.0,1.0,100,100.0
748,D4,86.0,333/1000,68,100.0
749,D4,86.0,333/1000,104,100.0
750,C2,86.0,0.125,85,100.0
751,E-3,86.0,0.125,85,100.0
752,B3,86.333,1/5,68,100.0
753,B3,86.333,1/5,104,100.0
754,G#2,86.5,0.125,50,100.0
755,C4,86.5,333/1000,68,100.0
756,C4,86.5,1/5,104,100.0
757,F3,86.833,1/5,68,100.0
758,F3,86.833,1/5,104,100.0
759,C2,86.833,0.125,32,100.0
760,E-3,86.833,0.125,32,100.0
761,G#1,87.0,1.0,100,100.0
762,E-3,87.0,0.125,95,100.0
763,E2,87.0,0.125,95,100.0
764,F#4,87.333,167/1000,68,100.0
765,F#4,87.333,167/1000,104,100.0
766,G#2,87.5,0.125,50,100.0
767,E-4,87.5,167/1000,68,100.0
768,E-4,87.5,167/1000,104,100.0
769,C4,87.667,167/1000,68,100.0
770,C4,87.667,167/1000,104,100.0
771,G3,87.833,133/1000,68,100.0
772,G3,87.833,133/1000,104,100.0
773,E-3,87.833,0.125,38,100.0
774,C2,87.833,0.125,38,100.0
775,C2,88.0,1.0,100,100.0
776,B3,88.0,333/1000,68,100.0
777,B3,88.0,333/1000,104,100.0
778,E-3,88.0,0.125,85,100.0
779,C2,88.0,0.125,85,100.0
780,C4,88.333,1/5,68,100.0
781,C4,88.333,1/5,104,100.0
782,G#2,88.5,0.125,50,100.0
783,B3,88.5,333/1000,68,100.0
784,B3,88.5,333/1000,104,100.0
785,C4,88.833,1/5,68,100.0
786,C4,88.833,1/5,104,100.0
787,E-3,88.833,0.125,32,100.0
788,C2,88.833,0.125,32,100.0
789,F2,89.0,1.0,100,100.0
790,E-4,89.0,333/1000,68,100.0
791,E-4,89.0,333/1000,104,100.0
792,E-3,89.0,0.125,95,100.0
793,E2,89.0,0.125,95,100.0
794,A4,89.333,1/5,68,100.0
795,A4,89.333,1/5,104,100.0
796,G#2,89.5,0.125,50,100.0
797,E-3,89.833,0.125,32,100.0
798,C2,89.833,0.125,32,100.0
799,G#2,90.0,1.0,100,100.0
800,F4,90.0,333/1000,68,100.0
801,F4,90.0,333/1000,104,100.0
802,C2,90.0,0.125,85,100.0
803,E-3,90.0,0.125,85,100.0
804,E-4,90.333,1/5,68,100.0
805,E-4,90.333,1/5,104,100.0
806,G#2,90.5,0.125,50,100.0
807,F#4,90.833,1/5,68,100.0
808,F#4,90.833,1/5,104,100.0
809,E-3,90.833,0.125,32,100.0
810,C2,90.833,0.125,32,100.0
811,G2,91.0,1.0,100,100.0
812,E-4,91.0,333/1000,68,100.0
813,E-4,91.0,333/1000,104,100.0
814,E-3,91.0,0.125,95,100.0
815,E2,91.0,0.125,95,100.0
816,B3,91.333,1/5,68,100.0
817,B3,91.333,1/5,104,100.0
818,G#2,91.5,0.125,50,100.0
819,C4,91.5,333/1000,68,100.0
820,C4,91.5,333/1000,104,100.0
821,D4,91.833,167/1000,68,100.0
822,D4,91.833,167/1000,104,100.0
823,E-3,91.833,0.125,32,100.0
824,C2,91.833,0.125,32,100.0
825,F2,92.0,1.0,100,100.0
826,E-4,92.0,333/1000,68,100.0
827,D4,92.0,33/1000,68,100.0
828,E-4,92.0,333/1000,104,100.0
829,D4,92.0,33/1000,104,100.0
830,C2,92.0,0.125,85,100.0
831,E-3,92.0,0.125,85,100.0
832,G#3,92.308,1/5,68,100.0
833,G#3,92.308,1/5,104,100.0
834,G#2,92.5,0.125,50,100.0
835,G3,92.5,333/1000,68,100.0
836,G3,92.5,1/5,104,100.0
837,D4,92.808,1/5,68,100.0
838,D4,92.808,1/5,104,100.0
839,E-3,92.833,0.125,32,100.0
840,C2,92.833,0.125,32,100.0
841,E2,93.0,1.0,100,100.0
842,B3,93.0,333/1000,68,100.0
843,B3,93.0,1/5,104,100.0
844,E-3,93.0,0.125,95,100.0
845,E2,93.0,0.125,95,100.0
846,E-3,93.308,1/5,68,100.0
847,E-3,93.308,1/5,104,100.0
848,G#2,93.5,0.125,50,100.0
849,D3,93.5,333/1000,68,100.0
850,D3,93.5,1/5,104,100.0
851,C#3,93.808,9/20,68,100.0
852,C#3,93.808,9/20,104,100.0
853,E-3,93.833,0.125,32,100.0
854,C2,93.833,0.125,32,100.0
855,G2,94.0,1.0,100,100.0
856,E-3,94.0,0.125,85,100.0
857,C2,94.0,0.125,85,100.0
858,F3,94.308,1/5,68,100.0
859,F3,94.308,1/5,104,100.0
860,G#2,94.5,0.125,50,100.0
861,G3,94.5,333/1000,68,100.0
862,G3,94.5,1/5,104,100.0
863,B-3,94.808,1/5,68,100.0
864,B-3,94.808,1/5,104,100.0
865,E-3,94.833,0.125,32,100.0
866,C2,94.833,0.125,32,100.0
867,G1,95.0,0.375,100,100.0
868,B3,95.0,333/1000,68,100.0
869,B3,95.0,1/5,104,100.0
870,E-3,95.0,0.125,95,100.0
871,E2,95.0,0.125,95,100.0
872,B-4,95.308,1/5,68,100.0
873,B-4,95.308,1/5,104,100.0
874,G1,95.5,0.375,100,100.0
875,E-4,95.5,2/5,68,100.0
876,E-4,95.5,2/5,104,100.0
877,G3,95.5,0.125,78,100.0
878,C2,95.5,0.125,78,100.0
879,E2,95.5,0.125,78,100.0
880,G#2,95.5,0.125,78,100.0
881,G2,96.5,417/1000,100,100.0
882,C#5,96.5,2/5,68,100.0
883,C#5,96.5,2/5,104,100.0
884,E2,96.5,0.125,82,100.0
885,G3,96.5,0.125,82,100.0
886,C2,96.5,0.125,82,100.0
887,F#4,97.308,24/125,68,100.0
888,F#4,97.308,24/125,104,100.0
889,E-4,97.5,167/1000,68,100.0
890,E-4,97.5,167/1000,104,100.0
891,C4,97.667,167/1000,68,100.0
892,C4,97.667,167/1000,104,100.0
893,C2,97.833,0.125,30,100.0
894,G3,97.833,133/1000,68,100.0
895,G3,97.833,133/1000,104,100.0
896,C2,98.0,124/125,79,100.0
897,B3,98.0,333/1000,68,100.0
898,B3,98.0,333/1000,104,100.0
899,G3,98.0,0.125,73,100.0
900,C2,98.0,0.125,73,100.0
901,E-3,98.0,0.125,73,100.0
902,C4,98.333,1/5,68,100.0
903,C4,98.333,1/5,104,100.0
904,G#2,98.5,0.125,50,100.0
905,B3,98.5,333/1000,68,100.0
906,B3,98.5,333/1000,104,100.0
907,C4,98.833,1/5,68,100.0
908,C4,98.833,1/5,104,100.0
909,E-3,98.833,0.125,32,100.0
910,C2,98.833,0.125,32,100.0
911,F2,99.0,529/500,79,100.0
912,G#4,99.0,79/500,68,100.0
913,G#4,99.0,79/500,104,100.0
914,E-3,99.0,0.125,95,100.0
915,E2,99.0,0.125,95,100.0
916,B3,99.167,79/500,68,100.0
917,B3,99.167,79/500,104,100.0
918,G4,99.333,79/500,68,100.0
919,G4,99.333,79/500,104,100.0
920,G#2,99.5,0.125,50,100.0
921,F#4,99.5,0.375,68,100.0
922,F#4,99.5,0.375,104,100.0
923,C2,99.833,0.125,30,100.0
924,G#2,100.0,529/500,84,100.0
925,C2,100.0,0.125,85,100.0
926,E-3,100.0,0.125,85,100.0
927,F4,100.333,1/5,68,100.0
928,F4,100.333,1/5,104,100.0
929,G#2,100.5,0.125,50,100.0
930,E-4,100.5,1/5,68,100.0
931,E-4,100.5,1/5,104,100.0
932,C2,100.833,0.125,32,100.0
933,E-3,100.833,0.125,32,100.0
934,G2,101.0,1.0,84,100.0
935,E-3,101.0,0.125,95,100.0
936,E2,101.0,0.125,95,100.0
937,D4,101.333,1/5,68,100.0
938,D4,101.333,1/5,104,100.0
939,G#2,101.5,0.125,50,100.0
940,B4,101.5,1/5,68,100.0
941,B4,101.5,1/5,104,100.0
942,E-3,101.833,0.125,38,100.0
943,C2,101.833,0.125,38,100.0
944,F#2,102.0,227/250,91,100.0
945,G2,102.0,1/40,84,100.0
946,E-3,102.0,0.125,85,100.0
947,C2,102.0,0.125,85,100.0
948,E5,102.333,2/5,68,100.0
949,E5,102.333,2/5,104,100.0
950,G#2,102.5,0.125,50,100.0
951,E-5,102.75,67/1000,68,100.0
952,E-5,102.75,67/1000,104,100.0
953,D5,102.833,67/1000,68,100.0
954,D5,102.833,67/1000,104,100.0
955,E-3,102.833,0.125,32,100.0
956,C2,102.833,0.125,32,100.0
957,C#5,102.917,67/1000,68,100.0
958,C#5,102.917,67/1000,104,100.0
959,C3,103.0,39/40,84,100.0
960,C5,103.0,1/5,68,100.0
961,C5,103.0,1/5,104,100.0
962,E-3,103.0,0.125,95,100.0
963,E2,103.0,0.125,95,100.0
964,G#4,103.308,2/5,68,100.0
965,G#4,103.308,2/5,104,100.0
966,G#2,103.5,0.125,50,100.0
967,E4,103.75,1/10,68,100.0
968,E4,103.75,1/10,104,100.0
969,E-3,103.833,0.125,32,100.0
970,C2,103.833,0.125,32,100.0
971,E-4,103.875,1/10,68,100.0
972,E-4,103.875,1/10,104,100.0
973,F2,104.0,967/1000,73,100.0
974,D4,104.0,333/1000,68,100.0
975,D4,104.0,333/1000,104,100.0
976,C2,104.0,0.125,85,100.0
977,E-3,104.0,0.125,85,100.0
978,B3,104.333,1/5,68,100.0
979,B3,104.333,1/5,104,100.0
980,G#2,104.5,0.125,50,100.0
981,C4,104.5,1/5,68,100.0
982,C4,104.5,1/5,104,100.0
983,F3,104.833,1/5,68,100.0
984,F3,104.833,1/5,104,100.0
985,E-3,104.833,0.125,32,100.0
986,C2,104.833,0.125,32,100.0
987,G2,105.0,983/1000,70,100.0
988,E-3,105.0,0.125,95,100.0
989,E2,105.0,0.125,95,100.0
990,E-4,105.333,1/5,68,100.0
991,E-4,105.333,1/5,104,100.0
992,G#2,105.5,0.125,50,100.0
993,C4,105.5,1/5,68,100.0
994,C4,105.5,1/5,104,100.0
995,F#4,105.833,167/1000,68,100.0
996,F#4,105.833,167/1000,104,100.0
997,E-3,105.833,0.125,32,100.0
998,C2,105.833,0.125,32,100.0
999,G#1,106.0,39/40,114,100.0
1000,F#4,106.0,283/1000,68,100.0
1001,F#4,106.0,283/1000,104,100.0
1002,C2,106.0,0.125,85,100.0
1003,E-3,106.0,0.125,85,100.0
1004,E-5,106.333,1/5,68,100.0
1005,E-5,106.333,1/5,104,100.0
1006,G#2,106.5,0.125,50,100.0
1007,F#4,106.5,0.5,68,100.0
1008,F#4,106.5,0.5,104,100.0
1009,E-3,106.833,0.125,32,100.0
1010,C2,106.833,0.125,32,100.0
1011,B-1,107.0,479/500,105,100.0
1012,F4,107.0,0.5,68,100.0
1013,F4,107.0,0.5,104,100.0
1014,E-3,107.0,0.125,95,100.0
1015,E2,107.0,0.125,95,100.0
1016,G#2,107.5,0.125,50,100.0
1017,E-4,107.5,2/5,68,100.0
1018,E-4,107.5,2/5,104,100.0
1019,C2,107.833,0.125,30,100.0
1020,C4,108.0,333/1000,68,100.0
1021,C4,108.0,333/1000,104,100.0
1022,C2,108.0,0.125,85,100.0
1023,E-3,108.0,0.125,85,100.0
1024,C2,108.0,49/125,105,100.0
1025,G2,108.0,49/125,105,100.0
1026,G#2,108.5,0.125,50,100.0
1027,C2,108.808,7/20,96,100.0
1028,G2,108.808,7/20,96,100.0
1029,C4,108.833,1/5,68,100.0
1030,C4,108.833,1/5,104,100.0
1031,E-3,108.833,0.125,75,100.0
1032,C2,108.833,0.125,75,100.0
1033,E2,108.833,0.125,75,100.0
1034,E-3,109.0,0.125,90,100.0
1035,B-3,109.333,1/5,68,100.0
1036,B-3,109.333,1/5,104,100.0
1037,G#2,109.5,0.125,50,100.0
1038,C4,109.5,333/1000,68,100.0
1039,C4,109.5,333/1000,104,100.0
1040,E-4,109.833,167/1000,68,100.0
1041,E-4,109.833,167/1000,104,100.0
1042,E-3,109.833,0.125,38,100.0
1043,C2,109.833,0.125,38,100.0
1044,G#1,110.0,471/500,127,100.0
1045,F#4,110.0,0.25,68,100.0
1046,F#4,110.0,0.25,104,100.0
1047,E-3,110.0,0.125,85,100.0
1048,C2,110.0,0.125,85,100.0
1049,E-5,110.333,1/5,68,100.0
1050,E-5,110.333,1/5,104,100.0
1051,G#2,110.5,0.125,50,100.0
1052,F#4,110.5,2/5,68,100.0
1053,F#4,110.5,2/5,104,100.0
1054,E-3,110.833,0.125,32,100.0
1055,C2,110.833,0.125,32,100.0
1056,B-1,111.0,41/40,114,100.0
1057,F4,111.0,2/5,68,100.0
1058,F4,111.0,2/5,104,100.0
1059,E-3,111.0,0.125,95,100.0
1060,E2,111.0,0.125,95,100.0
1061,G#2,111.5,0.125,50,100.0
1062,E-4,111.5,2/5,68,100.0
1063,E-4,111.5,2/5,104,100.0
1064,E-3,111.833,0.125,32,100.0
1065,C2,111.833,0.125,32,100.0
1066,C2,112.0,0.125,85,100.0
1067,E-3,112.0,0.125,85,100.0
1068,C4,112.5,317/1000,68,100.0
1069,C4,112.5,317/1000,104,100.0
1070,G#2,112.5,0.125,60,100.0
1071,C2,112.5,0.125,60,100.0
1072,E2,112.5,0.125,60,100.0
1073,C2,112.5,2/5,103,100.0
1074,G2,112.5,2/5,103,100.0
1075,E-3,112.833,0.125,35,100.0
1076,E-3,113.0,0.125,90,100.0
1077,B-3,113.333,1/5,68,100.0
1078,B-3,113.333,1/5,104,100.0
1079,G#2,113.5,0.125,50,100.0
1080,C4,113.5,333/1000,68,100.0
1081,C4,113.5,333/1000,104,100.0
1082,E-4,113.833,167/1000,68,100.0
1083,E-4,113.833,167/1000,104,100.0
1084,E-3,113.833,0.125,32,100.0
1085,C2,113.833,0.125,32,100.0
1086,G#1,114.0,124/125,116,100.0
1087,F#4,114.0,0.25,68,100.0
1088,E-4,114.0,33/1000,68,100.0
1089,F#4,114.0,0.25,104,100.0
1090,E-4,114.0,33/1000,104,100.0
1091,C2,114.0,0.125,85,100.0
1092,E-3,114.0,0.125,85,100.0
1093,E-5,114.333,1/5,68,100.0
1094,E-5,114.333,1/5,104,100.0
1095,G#2,114.5,0.125,50,100.0
1096,F#4,114.5,0.5,68,100.0
1097,F#4,114.5,0.5,104,100.0
1098,E-3,114.833,0.125,32,100.0
1099,C2,114.833,0.125,32,100.0
1100,B-1,115.0,917/1000,107,100.0
1101,F4,115.0,2/5,68,100.0
1102,F4,115.0,2/5,104,100.0
1103,E-3,115.0,0.125,95,100.0
1104,E2,115.0,0.125,95,100.0
1105,G#2,115.5,0.125,50,100.0
1106,E-4,115.5,2/5,68,100.0
1107,E-4,115.5,2/5,104,100.0
1108,C2,115.833,0.125,30,100.0
1109,C4,116.0,0.375,68,100.0
1110,C4,116.0,0.375,104,100.0
1111,C2,116.0,0.125,85,100.0
1112,E-3,116.0,0.125,85,100.0
1113,G2,116.0,333/1000,98,100.0
1114,C2,116.0,333/1000,98,100.0
1115,G#2,116.5,0.125,50,100.0
1116,E2,116.808,0.125,55,100.0
1117,C2,116.808,0.125,55,100.0
1118,E-3,116.808,0.125,55,100.0
1119,C2,116.808,11/40,106,100.0
1120,G2,116.808,11/40,106,100.0
1121,C4,116.833,1/5,68,100.0
1122,C4,116.833,1/5,104,100.0
1123,E-3,117.0,0.125,90,100.0
1124,B-3,117.333,1/5,68,100.0
1125,B-3,117.333,1/5,104,100.0
1126,G#2,117.5,0.125,50,100.0
1127,C4,117.5,333/1000,68,100.0
1128,C4,117.5,333/1000,104,100.0
1129,E-4,117.833,167/1000,68,100.0
1130,E-4,117.833,167/1000,104,100.0
1131,E-3,117.833,0.125,38,100.0
1132,C2,117.833,0.125,38,100.0
1133,G#1,118.0,1033/1000,119,100.0
1134,F#4,118.0,0.25,68,100.0
1135,E-4,118.0,33/1000,68,100.0
1136,F#4,118.0,0.25,104,100.0
1137,E-4,118.0,33/1000,104,100.0
1138,C2,118.0,0.125,85,100.0
1139,E-3,118.0,0.125,85,100.0
1140,E-5,118.333,1/5,68,100.0
1141,E-5,118.333,1/5,104,100.0
1142,G#2,118.5,0.125,50,100.0
1143,F#4,118.5,0.5,68,100.0
1144,F#4,118.5,0.5,104,100.0
1145,E-3,118.833,0.125,32,100.0
1146,C2,118.833,0.125,32,100.0
1147,B-1,119.0,429/500,107,100.0
1148,F4,119.0,2/5,68,100.0
1149,F4,119.0,2/5,104,100.0
1150,E2,119.0,0.125,95,100.0
1151,E-3,119.0,0.125,95,100.0
1152,G#2,119.5,0.125,50,100.0
1153,E-4,119.5,2/5,68,100.0
1154,E-4,119.5,2/5,104,100.0
1155,C2,119.833,0.125,32,100.0
1156,E-3,119.833,0.125,32,100.0
1157,C2,120.0,0.125,50,100.0
1158,G1,120.5,1.5,109,100.0
1159,B-4,120.5,1.5,68,100.0
1160,A3,120.5,0.125,75,100.0
1161,E2,120.5,0.125,75,100.0
1162,B3,120.5,1.5,104,100.0
1163,G3,120.5,1.5,104,100.0
1164,B-4,120.5,1.5,104,100.0
1165,F4,120.5,1.5,104,100.0
1166,E-3,121.5,0.125,40,100.0
1167,G1,122.0,2.0,109,100.0
1168,B-4,122.0,9/10,68,100.0
1169,E-3,122.0,0.125,26,100.0
1170,E2,122.0,0.125,26,100.0
1171,B3,122.0,9/10,104,100.0
1172,G3,122.0,9/10,104,100.0
1173,B-4,122.0,9/10,104,100.0
1174,F4,122.0,9/10,104,100.0
1175,E2,122.167,0.125,33,100.0
1176,E2,122.333,0.125,30,100.0
1177,E2,122.5,0.125,80,100.0
1178,E2,122.833,0.125,89,100.0
1179,E2,123.0,0.125,100,100.0
1180,A2,123.333,0.125,59,100.0
1181,E-3,123.833,0.125,56,100.0
1182,C2,123.833,0.125,56,100.0
1183,C2,124.0,521/500,100,100.0
1184,G3,124.0,0.125,75,100.0
1185,C2,124.0,0.125,75,100.0
1186,D4,124.0,2.0,91,100.0
1187,E-4,124.0,2.0,91,100.0
1188,B-4,124.0,2.0,91,100.0
1189,E-3,124.5,0.125,40,100.0
1190,E-3,124.833,0.125,32,100.0
1191,C2,124.833,0.125,32,100.0
1192,G2,125.0,983/1000,100,100.0
1193,E-3,125.0,0.125,95,100.0
1194,E2,125.0,0.125,95,100.0
1195,E-3,125.5,0.125,40,100.0
1196,E-3,125.833,0.125,32,100.0
1197,C2,125.833,0.125,32,100.0
1198,B-2,126.0,479/500,100,100.0
1199,C2,126.0,0.125,85,100.0
1200,E-3,126.0,0.125,85,100.0
1201,D4,126.0,4.0,91,100.0
1202,E-4,126.0,4.0,91,100.0
1203,B-4,126.0,4.0,91,100.0
1204,E-3,126.5,0.125,40,100.0
1205,E-3,126.833,0.125,32,100.0
1206,C2,126.833,0.125,32,100.0
1207,C3,127.0,101/125,100,100.0
1208,E-3,127.0,0.125,95,100.0
1209,E2,127.0,0.125,95,100.0
1210,E-3,127.5,0.125,40,100.0
1211,C2,127.833,133/1000,100,100.0
1212,E-3,127.833,0.125,32,100.0
1213,C2,127.833,0.125,32,100.0
1214,G2,128.0,317/1000,100,100.0
1215,C2,128.0,0.125,85,100.0
1216,E-3,128.0,0.125,85,100.0
1217,C2,128.333,417/1000,100,100.0
1218,E-3,128.833,0.125,32,100.0
1219,C2,128.833,0.125,32,100.0
1220,G2,129.0,1.0,100,100.0
1221,E-3,129.0,0.125,95,100.0
1222,E2,129.0,0.125,95,100.0
1223,E-3,129.5,0.125,40,100.0
1224,C2,129.833,0.125,30,100.0
1225,C2,130.0,1.0,100,100.0
1226,C2,130.0,0.125,85,100.0
1227,E-3,130.0,0.125,85,100.0
1228,E-3,130.5,0.125,40,100.0
1229,C2,130.833,0.125,32,100.0
1230,E-3,130.833,0.125,32,100.0
1231,F#2,131.0,1.0,100,100.0
1232,E-3,131.0,0.125,95,100.0
1233,E2,131.0,0.125,95,100.0
1234,E-3,131.833,0.125,38,100.0
1235,C2,131.833,0.125,38,100.0
1236,F2,132.0,31/40,100,100.0
1237,E-3,132.0,0.125,85,100.0
1238,C2,132.0,0.125,85,100.0
1239,D4,132.0,2.0,91,100.0
1240,E-4,132.0,2.0,91,100.0
1241,B-4,132.0,2.0,91,100.0
1242,E-3,132.5,0.125,40,100.0
1243,E-3,132.833,0.125,32,100.0
1244,C2,132.833,0.125,32,100.0
1245,C3,133.0,1.0,100,100.0
1246,E-3,133.0,0.125,95,100.0
1247,E2,133.0,0.125,95,100.0
1248,E-3,133.5,0.125,40,100.0
1249,E-3,133.833,0.125,32,100.0
1250,C2,133.833,0.125,32,100.0
1251,E-2,134.0,1.0,100,100.0
1252,C2,134.0,0.125,85,100.0
1253,E-3,134.0,0.125,85,100.0
1254,C4,134.0,2.0,91,100.0
1255,E-4,134.0,2.0,91,100.0
1256,G#4,134.0,2.0,91,100.0
1257,E-3,134.833,0.125,32,100.0
1258,C2,134.833,0.125,32,100.0
1259,D2,135.0,0.5,100,100.0
1260,E-3,135.0,0.125,95,100.0
1261,E2,135.0,0.125,95,100.0
1262,E-3,135.5,0.125,40,100.0
1263,C#2,135.833,167/1000,100,100.0
1264,E-3,135.833,0.125,32,100.0
1265,C2,135.833,0.125,32,100.0
1266,G#2,136.0,0.25,100,100.0
1267,C#2,136.0,83/1000,100,100.0
1268,C2,136.0,0.125,85,100.0
1269,E-3,136.0,0.125,85,100.0
1270,C2,136.333,0.25,100,100.0
1271,B-1,136.833,1/125,100,100.0
1272,E-3,136.833,0.125,32,100.0
1273,C2,136.833,0.125,32,100.0
1274,B-1,137.0,0.5,100,100.0
1275,E-3,137.0,0.125,95,100.0
1276,E2,137.0,0.125,95,100.0
1277,E-3,137.5,0.125,40,100.0
1278,B1,137.5,0.5,100,100.0
1279,C2,137.833,0.125,30,100.0
1280,C2,138.0,17/40,100,100.0
1281,C2,138.0,0.125,85,100.0
1282,E-3,138.0,0.125,85,100.0
1283,C4,138.0,2.0,91,100.0
1284,E-4,138.0,2.0,91,100.0
1285,G#4,138.0,2.0,91,100.0
1286,C3,138.833,0.125,100,100.0
1287,C2,138.833,0.125,32,100.0
1288,E-3,138.833,0.125,32,100.0
1289,F#1,139.0,0.25,100,100.0
1290,E-3,139.0,0.125,95,100.0
1291,E2,139.0,0.125,95,100.0
1292,G1,139.5,0.25,100,100.0
1293,E-3,139.833,0.125,38,100.0
1294,C2,139.833,0.125,38,100.0
1295,G#4,139.983,17/1000,91,100.0
1296,B4,139.983,17/1000,91,100.0
1297,F4,139.983,17/1000,91,100.0
1298,G#1,140.0,0.625,100,100.0
1299,G3,140.0,0.125,75,100.0
1300,C2,140.0,0.125,75,100.0
1301,E-3,140.5,0.125,40,100.0
1302,G#1,140.833,167/1000,100,100.0
1303,E-3,140.833,0.125,32,100.0
1304,C2,140.833,0.125,32,100.0
1305,E-2,141.0,77/250,100,100.0
1306,E-3,141.0,0.125,95,100.0
1307,E2,141.0,0.125,95,100.0
1308,G#1,141.333,79/500,100,100.0
1309,E-3,141.833,0.125,32,100.0
1310,C2,141.833,0.125,32,100.0
1311,C2,142.0,0.125,85,100.0
1312,E-3,142.0,0.125,85,100.0
1313,G#1,142.333,133/1000,100,100.0
1314,G1,142.833,233/1000,100,100.0
1315,E-3,142.833,0.125,32,100.0
1316,C2,142.833,0.125,32,100.0
1317,G#1,143.0,9/40,100,100.0
1318,E-3,143.0,0.125,95,100.0
1319,E2,143.0,0.125,95,100.0
1320,G1,143.5,73/250,100,100.0
1321,E-3,143.833,0.125,32,100.0
1322,C2,143.833,0.125,32,100.0
1323,G#4,143.983,3983/1000,91,100.0
1324,B4,143.983,3983/1000,91,100.0
1325,F4,143.983,3983/1000,91,100.0
1326,G1,144.0,1117/1000,100,100.0
1327,C2,144.0,0.125,85,100.0
1328,E-3,144.0,0.125,85,100.0
1329,E-3,144.5,0.125,40,100.0
1330,E-3,144.833,0.125,32,100.0
1331,C2,144.833,0.125,32,100.0
1332,G2,145.0,321/500,100,100.0
1333,E-3,145.0,0.125,95,100.0
1334,E2,145.0,0.125,95,100.0
1335,E-3,145.5,0.125,40,100.0
1336,C2,145.833,0.125,30,100.0
1337,G1,145.833,13/40,100,100.0
1338,C2,146.0,0.125,85,100.0
1339,E-3,146.0,0.125,85,100.0
1340,G2,146.333,283/1000,100,100.0
1341,C2,146.833,0.125,32,100.0
1342,E-3,146.833,0.125,32,100.0
1343,B-1,147.0,171/500,100,100.0
1344,E-3,147.0,0.125,95,100.0
1345,E2,147.0,0.125,95,100.0
1346,B1,147.5,0.5,100,100.0
1347,E-3,147.833,0.125,38,100.0
1348,C2,147.833,0.125,38,100.0
1349,F#4,147.983,4.0,91,100.0
1350,C4,147.983,4.0,91,100.0
1351,G#3,147.983,4.0,91,100.0
1352,D4,151.983,4.0,91,100.0
1353,B3,151.983,4.0,91,100.0
1354,F4,151.983,4.0,91,100.0
