,note_name,start_time,duration,velocity,tempo
0,D4,2.0,0.75,95,97.0
1,B2,2.0,0.75,95,97.0
2,D4,2.0,0.75,95,97.0
3,A3,2.0,0.75,95,97.0
4,F#3,2.0,0.75,95,97.0
5,E4,2.75,2.25,95,97.0
6,C3,2.75,3.25,95,97.0
7,E4,2.75,3.25,95,97.0
8,C4,2.75,3.25,95,97.0
9,G3,2.75,3.25,95,97.0
10,G3,5.0,0.25,95,97.0
11,B3,5.25,0.25,95,97.0
12,E4,5.5,0.25,95,97.0
13,F#4,5.75,0.25,95,97.0
14,G4,6.0,0.75,95,97.0
15,E3,6.0,2.0,95,97.0
16,G4,6.0,2.0,95,97.0
17,E4,6.0,2.0,95,97.0
18,B3,6.0,2.0,95,97.0
19,B3,6.75,0.75,95,97.0
20,A3,7.5,0.5,95,97.0
21,F#4,8.0,1.0,95,97.0
22,D3,8.0,1.0,95,97.0
23,F#4,8.0,2.0,95,97.0
24,D4,8.0,2.0,95,97.0
25,A3,8.0,2.0,95,97.0
26,D4,9.0,1.0,95,97.0
27,B2,9.0,1.0,95,97.0
28,D4,10.0,0.75,95,97.0
29,B2,10.0,0.75,95,97.0
30,D4,10.0,0.75,95,97.0
31,A3,10.0,0.75,95,97.0
32,F#3,10.0,0.75,95,97.0
33,E4,10.75,2.5,95,97.0
34,C3,10.75,3.25,95,97.0
35,E4,10.75,3.25,95,97.0
36,C4,10.75,3.25,95,97.0
37,G3,10.75,3.25,95,97.0
38,D4,13.25,0.25,79,97.0
39,G4,13.5,0.25,95,97.0
40,A4,13.75,0.25,95,97.0
41,B-4,14.0,0.125,95,97.0
42,B4,14.0,2.0,95,97.0
43,G4,14.0,2.0,95,97.0
44,D4,14.0,2.0,95,97.0
45,B3,14.0,2.0,95,97.0
46,G2,14.0,2.0,95,97.0
47,B4,14.125,0.625,95,97.0
48,G4,14.75,0.75,95,97.0
49,D4,15.5,0.5,95,97.0
50,A4,16.0,0.75,95,97.0
51,A4,16.0,2.0,95,97.0
52,F#4,16.0,2.0,95,97.0
53,D4,16.0,2.0,95,97.0
54,F#3,16.0,2.0,95,97.0
55,F#2,16.0,2.0,95,97.0
56,D5,16.75,0.75,95,97.0
57,G4,17.5,0.25,95,97.0
58,F#4,17.75,0.25,95,97.0
59,E4,18.0,3.0,95,97.0
60,C2,18.0,4.0,95,97.0
61,E4,18.0,4.0,95,97.0
62,C4,18.0,4.0,95,97.0
63,G3,18.0,4.0,95,97.0
64,G3,21.0,0.25,95,97.0
65,A3,21.25,0.25,95,97.0
66,B3,21.5,0.25,95,97.0
67,D4,21.75,0.25,95,97.0
68,C4,22.0,0.75,95,97.0
69,A1,22.0,0.75,95,97.0
70,C6,22.0,0.75,63,97.0
71,C5,22.0,0.75,63,97.0
72,G4,22.0,0.75,95,97.0
73,E4,22.0,0.75,95,97.0
74,C4,22.0,0.75,95,97.0
75,B3,22.75,0.75,95,97.0
76,G1,22.75,1.25,95,97.0
77,B5,22.75,1.25,63,97.0
78,B4,22.75,1.25,63,97.0
79,G4,22.75,1.25,95,97.0
80,D4,22.75,1.25,95,97.0
81,B3,22.75,1.25,95,97.0
82,A3,23.5,0.25,95,97.0
83,G3,23.75,0.25,95,97.0
84,A3,24.0,0.75,95,97.0
85,F#1,24.0,0.75,95,97.0
86,A5,24.0,0.75,63,97.0
87,A4,24.0,0.75,63,97.0
88,A4,24.0,0.75,95,97.0
89,F#4,24.0,0.75,95,97.0
90,D4,24.0,0.75,95,97.0
91,B3,24.75,0.75,95,97.0
92,G1,24.75,0.75,95,97.0
93,D6,24.75,0.75,63,97.0
94,D5,24.75,0.75,63,97.0
95,B4,24.75,0.75,95,97.0
96,F#4,24.75,0.75,95,97.0
97,D4,24.75,0.75,95,97.0
98,C4,25.5,0.5,95,97.0
99,F1,25.5,0.5,95,97.0
100,G6,25.5,0.5,63,97.0
101,G5,25.5,0.5,63,97.0
102,G6,25.5,0.5,92,97.0
103,G5,25.5,0.5,92,97.0
104,E4,25.5,0.5,92,97.0
105,C4,25.5,0.5,92,97.0
106,A3,25.5,0.5,92,97.0
107,C4,26.0,3.0,95,97.0
108,F1,26.0,4.0,95,97.0
109,A4,29.0,0.25,95,97.0
110,B4,29.25,0.25,95,97.0
111,E4,29.5,0.25,95,97.0
112,F#4,29.75,0.25,95,97.0
113,G4,30.0,0.75,95,97.0
114,E2,30.0,0.75,95,97.0
115,G6,30.0,4.0,63,97.0
116,G5,30.0,4.0,63,97.0
117,G6,30.0,4.0,92,97.0
118,G5,30.0,4.0,92,97.0
119,E4,30.0,4.0,92,97.0
120,C4,30.0,4.0,92,97.0
121,A3,30.0,4.0,92,97.0
122,F#4,30.75,0.75,95,97.0
123,D2,30.75,1.0,95,97.0
124,E4,31.5,0.25,95,97.0
125,D4,31.75,0.25,95,97.0
126,C2,31.75,0.25,95,97.0
127,G3,32.0,0.75,95,97.0
128,C2,32.0,0.75,95,97.0
129,A3,32.75,0.75,95,97.0
130,D2,32.75,0.75,95,97.0
131,F#3,33.5,0.5,95,97.0
132,B1,33.5,0.5,95,97.0
133,E1,34.0,0.75,95,97.0
134,A4,34.0,3.0,47,97.0
135,D4,34.0,3.0,47,97.0
136,B3,34.0,3.0,47,97.0
137,G3,34.0,3.0,47,97.0
138,G6,34.0,0.75,79,97.0
139,G5,34.0,0.75,79,97.0
140,G4,34.0,0.75,95,97.0
141,E4,34.0,0.75,95,97.0
142,B3,34.0,0.75,95,97.0
143,F#4,34.0,0.25,47,97.0
144,D4,34.0,0.25,47,97.0
145,B3,34.0,0.25,47,97.0
146,G3,34.0,0.25,47,97.0
147,F#4,34.25,0.25,63,97.0
148,D4,34.25,0.25,63,97.0
149,B3,34.25,0.25,63,97.0
150,G3,34.25,0.25,63,97.0
151,F#4,34.5,0.25,31,97.0
152,D4,34.5,0.25,31,97.0
153,B3,34.5,0.25,31,97.0
154,G3,34.5,0.25,31,97.0
155,B1,34.75,1.0,79,97.0
156,F#6,34.75,0.75,79,97.0
157,F#5,34.75,0.75,79,97.0
158,F#4,34.75,1.25,95,97.0
159,D4,34.75,1.25,95,97.0
160,A3,34.75,1.25,95,97.0
161,F#4,34.75,0.5,63,97.0
162,D4,34.75,0.5,63,97.0
163,B3,34.75,0.5,63,97.0
164,G3,34.75,0.5,63,97.0
165,F#4,35.25,0.25,63,97.0
166,D4,35.25,0.25,63,97.0
167,B3,35.25,0.25,63,97.0
168,G3,35.25,0.25,63,97.0
169,E6,35.5,0.25,79,97.0
170,E5,35.5,0.25,79,97.0
171,F#4,35.5,0.25,31,97.0
172,D4,35.5,0.25,31,97.0
173,B3,35.5,0.25,31,97.0
174,G3,35.5,0.25,31,97.0
175,E1,35.75,0.125,95,97.0
176,D6,35.75,0.25,79,97.0
177,D5,35.75,0.25,79,97.0
178,F#4,35.75,0.25,63,97.0
179,D4,35.75,0.25,63,97.0
180,B3,35.75,0.25,63,97.0
181,G3,35.75,0.25,63,97.0
182,E1,36.0,0.75,95,97.0
183,G5,36.0,0.75,79,97.0
184,G4,36.0,0.75,79,97.0
185,E4,36.0,0.75,95,97.0
186,C4,36.0,0.75,95,97.0
187,G3,36.0,0.75,95,97.0
188,F#4,36.0,0.25,47,97.0
189,D4,36.0,0.25,47,97.0
190,B3,36.0,0.25,47,97.0
191,G3,36.0,0.25,47,97.0
192,F#4,36.25,0.25,63,97.0
193,D4,36.25,0.25,63,97.0
194,B3,36.25,0.25,63,97.0
195,G3,36.25,0.25,63,97.0
196,F#4,36.5,0.25,31,97.0
197,D4,36.5,0.25,31,97.0
198,B3,36.5,0.25,31,97.0
199,G3,36.5,0.25,31,97.0
200,E1,36.75,0.125,95,97.0
201,A5,36.75,0.75,79,97.0
202,A4,36.75,0.75,79,97.0
203,F#4,36.75,1.25,95,97.0
204,D4,36.75,1.25,95,97.0
205,A3,36.75,1.25,95,97.0
206,F#4,36.75,0.25,63,97.0
207,E4,36.75,0.25,63,97.0
208,C#4,36.75,0.25,63,97.0
209,A3,36.75,0.25,63,97.0
210,A1,37.0,0.5,79,97.0
211,E4,37.0,1.0,47,97.0
212,C#4,37.0,1.0,47,97.0
213,A3,37.0,1.0,47,97.0
214,F#4,37.0,0.5,43,97.0
215,E4,37.0,0.5,43,97.0
216,C#4,37.0,0.5,43,97.0
217,A3,37.0,0.5,43,97.0
218,B1,37.5,0.5,79,97.0
219,F#5,37.5,0.5,79,97.0
220,F#4,37.5,0.5,79,97.0
221,F#4,37.5,0.5,55,97.0
222,E4,37.5,0.5,55,97.0
223,C#4,37.5,0.5,55,97.0
224,A3,37.5,0.5,55,97.0
225,F#4,38.0,3.0,47,97.0
226,E1,38.0,0.75,95,97.0
227,F#4,38.0,3.0,47,97.0
228,D4,38.0,3.0,47,97.0
229,B3,38.0,3.0,47,97.0
230,G3,38.0,3.0,47,97.0
231,F#4,38.0,0.25,47,97.0
232,D4,38.0,0.25,47,97.0
233,B3,38.0,0.25,47,97.0
234,G3,38.0,0.25,47,97.0
235,F#4,38.25,0.25,63,97.0
236,D4,38.25,0.25,63,97.0
237,B3,38.25,0.25,63,97.0
238,G3,38.25,0.25,63,97.0
239,F#4,38.5,0.25,31,97.0
240,D4,38.5,0.25,31,97.0
241,B3,38.5,0.25,31,97.0
242,G3,38.5,0.25,31,97.0
243,B1,38.75,1.0,79,97.0
244,F#4,38.75,0.5,63,97.0
245,D4,38.75,0.5,63,97.0
246,B3,38.75,0.5,63,97.0
247,G3,38.75,0.5,63,97.0
248,F#4,39.25,0.25,63,97.0
249,D4,39.25,0.25,63,97.0
250,B3,39.25,0.25,63,97.0
251,G3,39.25,0.25,63,97.0
252,F#4,39.5,0.25,31,97.0
253,D4,39.5,0.25,31,97.0
254,B3,39.5,0.25,31,97.0
255,G3,39.5,0.25,31,97.0
256,E1,39.75,0.125,95,97.0
257,F#4,39.75,0.25,63,97.0
258,D4,39.75,0.25,63,97.0
259,B3,39.75,0.25,63,97.0
260,G3,39.75,0.25,63,97.0
261,E1,40.0,0.75,95,97.0
262,F#4,40.0,0.25,47,97.0
263,D4,40.0,0.25,47,97.0
264,B3,40.0,0.25,47,97.0
265,G3,40.0,0.25,47,97.0
266,F#4,40.25,0.25,63,97.0
267,D4,40.25,0.25,63,97.0
268,B3,40.25,0.25,63,97.0
269,G3,40.25,0.25,63,97.0
270,F#4,40.5,0.25,31,97.0
271,D4,40.5,0.25,31,97.0
272,B3,40.5,0.25,31,97.0
273,G3,40.5,0.25,31,97.0
274,E1,40.75,0.125,95,97.0
275,F#4,40.75,0.25,63,97.0
276,E4,40.75,0.25,63,97.0
277,C#4,40.75,0.25,63,97.0
278,A3,40.75,0.25,63,97.0
279,E4,41.0,1.0,47,97.0
280,A1,41.0,0.5,79,97.0
281,E4,41.0,1.0,47,97.0
282,C#4,41.0,1.0,47,97.0
283,A3,41.0,1.0,47,97.0
284,F#4,41.0,0.5,43,97.0
285,E4,41.0,0.5,43,97.0
286,C#4,41.0,0.5,43,97.0
287,A3,41.0,0.5,43,97.0
288,B1,41.5,0.5,79,97.0
289,F#4,41.5,0.5,55,97.0
290,E4,41.5,0.5,55,97.0
291,C#4,41.5,0.5,55,97.0
292,A3,41.5,0.5,55,97.0
293,D4,42.0,3.0,47,97.0
294,G1,42.0,0.75,95,97.0
295,F#4,42.0,3.0,47,97.0
296,D4,42.0,3.0,47,97.0
297,B3,42.0,3.0,47,97.0
298,G3,42.0,3.0,47,97.0
299,F#4,42.0,0.25,47,97.0
300,D4,42.0,0.25,47,97.0
301,B3,42.0,0.25,47,97.0
302,G3,42.0,0.25,47,97.0
303,F#4,42.25,0.25,63,97.0
304,D4,42.25,0.25,63,97.0
305,B3,42.25,0.25,63,97.0
306,G3,42.25,0.25,63,97.0
307,F#4,42.5,0.25,31,97.0
308,D4,42.5,0.25,31,97.0
309,B3,42.5,0.25,31,97.0
310,G3,42.5,0.25,31,97.0
311,B1,42.75,1.0,79,97.0
312,F#4,42.75,0.5,63,97.0
313,D4,42.75,0.5,63,97.0
314,B3,42.75,0.5,63,97.0
315,G3,42.75,0.5,63,97.0
316,F#4,43.25,0.25,63,97.0
317,D4,43.25,0.25,63,97.0
318,B3,43.25,0.25,63,97.0
319,G3,43.25,0.25,63,97.0
320,F#4,43.5,0.25,31,97.0
321,D4,43.5,0.25,31,97.0
322,B3,43.5,0.25,31,97.0
323,G3,43.5,0.25,31,97.0
324,G1,43.75,0.125,95,97.0
325,F#4,43.75,0.25,63,97.0
326,D4,43.75,0.25,63,97.0
327,B3,43.75,0.25,63,97.0
328,G3,43.75,0.25,63,97.0
329,G1,44.0,0.75,95,97.0
330,F#4,44.0,0.25,47,97.0
331,D4,44.0,0.25,47,97.0
332,B3,44.0,0.25,47,97.0
333,G3,44.0,0.25,47,97.0
334,F#4,44.25,0.25,63,97.0
335,D4,44.25,0.25,63,97.0
336,B3,44.25,0.25,63,97.0
337,G3,44.25,0.25,63,97.0
338,F#4,44.5,0.25,31,97.0
339,D4,44.5,0.25,31,97.0
340,B3,44.5,0.25,31,97.0
341,G3,44.5,0.25,31,97.0
342,A1,44.75,0.75,79,97.0
343,F#4,44.75,0.25,63,97.0
344,E4,44.75,0.25,63,97.0
345,C#4,44.75,0.25,63,97.0
346,A3,44.75,0.25,63,97.0
347,E4,45.0,1.0,47,97.0
348,E4,45.0,1.0,47,97.0
349,C#4,45.0,1.0,47,97.0
350,A3,45.0,1.0,47,97.0
351,F#4,45.0,0.5,43,97.0
352,E4,45.0,0.5,43,97.0
353,C#4,45.0,0.5,43,97.0
354,A3,45.0,0.5,43,97.0
355,F#1,45.5,0.5,79,97.0
356,F#4,45.5,0.5,55,97.0
357,E4,45.5,0.5,55,97.0
358,C#4,45.5,0.5,55,97.0
359,A3,45.5,0.5,55,97.0
360,F#4,46.0,0.75,63,97.0
361,G1,46.0,0.75,95,97.0
362,F#4,46.0,3.0,47,97.0
363,D4,46.0,3.0,47,97.0
364,B3,46.0,3.0,47,97.0
365,G3,46.0,3.0,47,97.0
366,F#4,46.0,0.25,47,97.0
367,D4,46.0,0.25,47,97.0
368,B3,46.0,0.25,47,97.0
369,G3,46.0,0.25,47,97.0
370,F#4,46.25,0.25,63,97.0
371,D4,46.25,0.25,63,97.0
372,B3,46.25,0.25,63,97.0
373,G3,46.25,0.25,63,97.0
374,F#4,46.5,0.25,31,97.0
375,D4,46.5,0.25,31,97.0
376,B3,46.5,0.25,31,97.0
377,G3,46.5,0.25,31,97.0
378,A4,46.75,2.0,63,97.0
379,B1,46.75,1.0,79,97.0
380,F#4,46.75,0.5,63,97.0
381,D4,46.75,0.5,63,97.0
382,B3,46.75,0.5,63,97.0
383,G3,46.75,0.5,63,97.0
384,F#4,47.25,0.25,63,97.0
385,D4,47.25,0.25,63,97.0
386,B3,47.25,0.25,63,97.0
387,G3,47.25,0.25,63,97.0
388,F#4,47.5,0.25,31,97.0
389,D4,47.5,0.25,31,97.0
390,B3,47.5,0.25,31,97.0
391,G3,47.5,0.25,31,97.0
392,G1,47.75,0.125,95,97.0
393,F#4,47.75,0.25,63,97.0
394,D4,47.75,0.25,63,97.0
395,B3,47.75,0.25,63,97.0
396,G3,47.75,0.25,63,97.0
397,G1,48.0,0.75,95,97.0
398,F#4,48.0,0.25,47,97.0
399,D4,48.0,0.25,47,97.0
400,B3,48.0,0.25,47,97.0
401,G3,48.0,0.25,47,97.0
402,F#4,48.25,0.25,63,97.0
403,D4,48.25,0.25,63,97.0
404,B3,48.25,0.25,63,97.0
405,G3,48.25,0.25,63,97.0
406,F#4,48.5,0.25,31,97.0
407,D4,48.5,0.25,31,97.0
408,B3,48.5,0.25,31,97.0
409,G3,48.5,0.25,31,97.0
410,E4,48.75,1.25,47,97.0
411,A1,48.75,0.75,79,97.0
412,F#4,48.75,0.25,63,97.0
413,E4,48.75,0.25,63,97.0
414,C#4,48.75,0.25,63,97.0
415,A3,48.75,0.25,63,97.0
416,E4,49.0,1.0,47,97.0
417,C#4,49.0,1.0,47,97.0
418,A3,49.0,1.0,47,97.0
419,F#4,49.0,0.5,43,97.0
420,E4,49.0,0.5,43,97.0
421,C#4,49.0,0.5,43,97.0
422,A3,49.0,0.5,43,97.0
423,F#1,49.5,0.5,79,97.0
424,F#4,49.5,0.5,55,97.0
425,E4,49.5,0.5,55,97.0
426,C#4,49.5,0.5,55,97.0
427,A3,49.5,0.5,55,97.0
428,D4,50.0,3.0,63,97.0
429,E1,50.0,0.75,95,97.0
430,F#4,50.0,3.0,47,97.0
431,D4,50.0,3.0,47,97.0
432,B3,50.0,3.0,47,97.0
433,G3,50.0,3.0,47,97.0
434,F#4,50.0,0.25,47,97.0
435,D4,50.0,0.25,47,97.0
436,B3,50.0,0.25,47,97.0
437,G3,50.0,0.25,47,97.0
438,F#4,50.25,0.25,63,97.0
439,D4,50.25,0.25,63,97.0
440,B3,50.25,0.25,63,97.0
441,G3,50.25,0.25,63,97.0
442,F#4,50.5,0.25,31,97.0
443,D4,50.5,0.25,31,97.0
444,B3,50.5,0.25,31,97.0
445,G3,50.5,0.25,31,97.0
446,B1,50.75,1.0,79,97.0
447,F#4,50.75,0.5,63,97.0
448,D4,50.75,0.5,63,97.0
449,B3,50.75,0.5,63,97.0
450,G3,50.75,0.5,63,97.0
451,F#4,51.25,0.25,63,97.0
452,D4,51.25,0.25,63,97.0
453,B3,51.25,0.25,63,97.0
454,G3,51.25,0.25,63,97.0
455,F#4,51.5,0.25,31,97.0
456,D4,51.5,0.25,31,97.0
457,B3,51.5,0.25,31,97.0
458,G3,51.5,0.25,31,97.0
459,E1,51.75,0.125,95,97.0
460,F#4,51.75,0.25,63,97.0
461,D4,51.75,0.25,63,97.0
462,B3,51.75,0.25,63,97.0
463,G3,51.75,0.25,63,97.0
464,E1,52.0,0.75,95,97.0
465,F#4,52.0,0.25,47,97.0
466,D4,52.0,0.25,47,97.0
467,B3,52.0,0.25,47,97.0
468,G3,52.0,0.25,47,97.0
469,F#4,52.25,0.25,63,97.0
470,D4,52.25,0.25,63,97.0
471,B3,52.25,0.25,63,97.0
472,G3,52.25,0.25,63,97.0
473,F#4,52.5,0.25,31,97.0
474,D4,52.5,0.25,31,97.0
475,B3,52.5,0.25,31,97.0
476,G3,52.5,0.25,31,97.0
477,E1,52.75,0.125,95,97.0
478,F#4,52.75,0.25,63,97.0
479,E4,52.75,0.25,63,97.0
480,C#4,52.75,0.25,63,97.0
481,A3,52.75,0.25,63,97.0
482,E4,53.0,1.0,63,97.0
483,A1,53.0,0.5,79,97.0
484,E4,53.0,1.0,47,97.0
485,C#4,53.0,1.0,47,97.0
486,A3,53.0,1.0,47,97.0
487,F#4,53.0,0.5,43,97.0
488,E4,53.0,0.5,43,97.0
489,C#4,53.0,0.5,43,97.0
490,A3,53.0,0.5,43,97.0
491,B1,53.5,0.5,79,97.0
492,F#4,53.5,0.5,55,97.0
493,E4,53.5,0.5,55,97.0
494,C#4,53.5,0.5,55,97.0
495,A3,53.5,0.5,55,97.0
496,F#4,54.0,2.75,63,97.0
497,E1,54.0,0.75,95,97.0
498,F#4,54.0,3.0,47,97.0
499,D4,54.0,3.0,47,97.0
500,B3,54.0,3.0,47,97.0
501,G3,54.0,3.0,47,97.0
502,F#4,54.0,0.25,47,97.0
503,D4,54.0,0.25,47,97.0
504,B3,54.0,0.25,47,97.0
505,G3,54.0,0.25,47,97.0
506,F#4,54.25,0.25,63,97.0
507,D4,54.25,0.25,63,97.0
508,B3,54.25,0.25,63,97.0
509,G3,54.25,0.25,63,97.0
510,F#4,54.5,0.25,31,97.0
511,D4,54.5,0.25,31,97.0
512,B3,54.5,0.25,31,97.0
513,G3,54.5,0.25,31,97.0
514,B1,54.75,1.0,79,97.0
515,F#4,54.75,0.5,63,97.0
516,D4,54.75,0.5,63,97.0
517,B3,54.75,0.5,63,97.0
518,G3,54.75,0.5,63,97.0
519,F#4,55.25,0.25,63,97.0
520,D4,55.25,0.25,63,97.0
521,B3,55.25,0.25,63,97.0
522,G3,55.25,0.25,63,97.0
523,F#4,55.5,0.25,31,97.0
524,D4,55.5,0.25,31,97.0
525,B3,55.5,0.25,31,97.0
526,G3,55.5,0.25,31,97.0
527,E1,55.75,0.125,95,97.0
528,F#4,55.75,0.25,63,97.0
529,D4,55.75,0.25,63,97.0
530,B3,55.75,0.25,63,97.0
531,G3,55.75,0.25,63,97.0
532,E1,56.0,0.75,95,97.0
533,F#4,56.0,0.25,47,97.0
534,D4,56.0,0.25,47,97.0
535,B3,56.0,0.25,47,97.0
536,G3,56.0,0.25,47,97.0
537,F#4,56.25,0.25,63,97.0
538,D4,56.25,0.25,63,97.0
539,B3,56.25,0.25,63,97.0
540,G3,56.25,0.25,63,97.0
541,F#4,56.5,0.25,31,97.0
542,D4,56.5,0.25,31,97.0
543,B3,56.5,0.25,31,97.0
544,G3,56.5,0.25,31,97.0
545,E4,56.75,1.25,63,97.0
546,E1,56.75,0.125,95,97.0
547,F#4,56.75,0.25,63,97.0
548,E4,56.75,0.25,63,97.0
549,C#4,56.75,0.25,63,97.0
550,A3,56.75,0.25,63,97.0
551,A1,57.0,0.5,79,97.0
552,E4,57.0,1.0,47,97.0
553,C#4,57.0,1.0,47,97.0
554,A3,57.0,1.0,47,97.0
555,F#4,57.0,0.5,43,97.0
556,E4,57.0,0.5,43,97.0
557,C#4,57.0,0.5,43,97.0
558,A3,57.0,0.5,43,97.0
559,B1,57.5,0.5,79,97.0
560,F#4,57.5,0.5,55,97.0
561,E4,57.5,0.5,55,97.0
562,C#4,57.5,0.5,55,97.0
563,A3,57.5,0.5,55,97.0
564,D4,58.0,3.0,47,97.0
565,G1,58.0,0.75,95,97.0
566,F#4,58.0,3.0,47,97.0
567,D4,58.0,3.0,47,97.0
568,B3,58.0,3.0,47,97.0
569,G3,58.0,3.0,47,97.0
570,F#4,58.0,0.25,47,97.0
571,D4,58.0,0.25,47,97.0
572,B3,58.0,0.25,47,97.0
573,G3,58.0,0.25,47,97.0
574,F#4,58.25,0.25,63,97.0
575,D4,58.25,0.25,63,97.0
576,B3,58.25,0.25,63,97.0
577,G3,58.25,0.25,63,97.0
578,F#4,58.5,0.25,31,97.0
579,D4,58.5,0.25,31,97.0
580,B3,58.5,0.25,31,97.0
581,G3,58.5,0.25,31,97.0
582,B1,58.75,1.0,79,97.0
583,A4,58.75,0.5,63,97.0
584,D4,58.75,0.5,63,97.0
585,B3,58.75,0.5,63,97.0
586,G3,58.75,0.5,63,97.0
587,A4,59.25,0.25,63,97.0
588,D4,59.25,0.25,63,97.0
589,B3,59.25,0.25,63,97.0
590,G3,59.25,0.25,63,97.0
591,A4,59.5,0.25,31,97.0
592,D4,59.5,0.25,31,97.0
593,B3,59.5,0.25,31,97.0
594,G3,59.5,0.25,31,97.0
595,G1,59.75,0.125,95,97.0
596,A4,59.75,0.25,63,97.0
597,D4,59.75,0.25,63,97.0
598,B3,59.75,0.25,63,97.0
599,G3,59.75,0.25,63,97.0
600,G1,60.0,0.75,95,97.0
601,A4,60.0,0.25,47,97.0
602,D4,60.0,0.25,47,97.0
603,B3,60.0,0.25,47,97.0
604,G3,60.0,0.25,47,97.0
605,A4,60.25,0.25,63,97.0
606,D4,60.25,0.25,63,97.0
607,B3,60.25,0.25,63,97.0
608,G3,60.25,0.25,63,97.0
609,F#4,60.5,0.25,31,97.0
610,D4,60.5,0.25,31,97.0
611,B3,60.5,0.25,31,97.0
612,G3,60.5,0.25,31,97.0
613,A1,60.75,0.75,79,97.0
614,F#4,60.75,0.25,63,97.0
615,E4,60.75,0.25,63,97.0
616,C#4,60.75,0.25,63,97.0
617,A3,60.75,0.25,63,97.0
618,E4,61.0,1.0,47,97.0
619,E4,61.0,1.0,47,97.0
620,C#4,61.0,1.0,47,97.0
621,A3,61.0,1.0,47,97.0
622,F#4,61.0,0.5,43,97.0
623,E4,61.0,0.5,43,97.0
624,C#4,61.0,0.5,43,97.0
625,A3,61.0,0.5,43,97.0
626,F#1,61.5,0.5,79,97.0
627,F#4,61.5,0.5,55,97.0
628,E4,61.5,0.5,55,97.0
629,C#4,61.5,0.5,55,97.0
630,A3,61.5,0.5,55,97.0
631,F#4,62.0,0.75,63,97.0
632,G1,62.0,0.75,95,97.0
633,F#4,62.0,3.0,47,97.0
634,D4,62.0,3.0,47,97.0
635,B3,62.0,3.0,47,97.0
636,G3,62.0,3.0,47,97.0
637,F#4,62.0,0.25,47,97.0
638,D4,62.0,0.25,47,97.0
639,B3,62.0,0.25,47,97.0
640,G3,62.0,0.25,47,97.0
641,F#4,62.25,0.25,63,97.0
642,D4,62.25,0.25,63,97.0
643,B3,62.25,0.25,63,97.0
644,G3,62.25,0.25,63,97.0
645,F#4,62.5,0.25,31,97.0
646,D4,62.5,0.25,31,97.0
647,B3,62.5,0.25,31,97.0
648,G3,62.5,0.25,31,97.0
649,A4,62.75,2.0,63,97.0
650,B1,62.75,1.0,79,97.0
651,A4,62.75,0.5,63,97.0
652,D4,62.75,0.5,63,97.0
653,B3,62.75,0.5,63,97.0
654,G3,62.75,0.5,63,97.0
655,A4,63.25,0.25,63,97.0
656,D4,63.25,0.25,63,97.0
657,B3,63.25,0.25,63,97.0
658,G3,63.25,0.25,63,97.0
659,A4,63.5,0.25,31,97.0
660,D4,63.5,0.25,31,97.0
661,B3,63.5,0.25,31,97.0
662,G3,63.5,0.25,31,97.0
663,G1,63.75,0.125,95,97.0
664,A4,63.75,0.25,63,97.0
665,D4,63.75,0.25,63,97.0
666,B3,63.75,0.25,63,97.0
667,G3,63.75,0.25,63,97.0
668,G1,64.0,0.75,95,97.0
669,A4,64.0,0.25,47,97.0
670,D4,64.0,0.25,47,97.0
671,B3,64.0,0.25,47,97.0
672,G3,64.0,0.25,47,97.0
673,A4,64.25,0.25,63,97.0
674,D4,64.25,0.25,63,97.0
675,B3,64.25,0.25,63,97.0
676,G3,64.25,0.25,63,97.0
677,F#4,64.5,0.25,31,97.0
678,D4,64.5,0.25,31,97.0
679,B3,64.5,0.25,31,97.0
680,G3,64.5,0.25,31,97.0
681,E4,64.75,1.25,47,97.0
682,A1,64.75,0.75,79,97.0
683,F#4,64.75,0.25,63,97.0
684,E4,64.75,0.25,63,97.0
685,C#4,64.75,0.25,63,97.0
686,A3,64.75,0.25,63,97.0
687,E4,65.0,1.0,47,97.0
688,C#4,65.0,1.0,47,97.0
689,A3,65.0,1.0,47,97.0
690,F#4,65.0,0.5,43,97.0
691,E4,65.0,0.5,43,97.0
692,C#4,65.0,0.5,43,97.0
693,A3,65.0,0.5,43,97.0
694,F#1,65.5,0.5,79,97.0
695,F#4,65.5,0.5,55,97.0
696,E4,65.5,0.5,55,97.0
697,C#4,65.5,0.5,55,97.0
698,A3,65.5,0.5,55,97.0
699,D4,66.0,2.0,63,97.0
700,E1,66.0,0.75,95,97.0
701,F#4,66.0,3.0,47,97.0
702,D4,66.0,3.0,47,97.0
703,B3,66.0,3.0,47,97.0
704,G3,66.0,3.0,47,97.0
705,F#4,66.0,0.25,47,97.0
706,D4,66.0,0.25,47,97.0
707,B3,66.0,0.25,47,97.0
708,G3,66.0,0.25,47,97.0
709,F#4,66.25,0.25,63,97.0
710,D4,66.25,0.25,63,97.0
711,B3,66.25,0.25,63,97.0
712,G3,66.25,0.25,63,97.0
713,F#4,66.5,0.25,31,97.0
714,D4,66.5,0.25,31,97.0
715,B3,66.5,0.25,31,97.0
716,G3,66.5,0.25,31,97.0
717,B1,66.75,1.0,79,97.0
718,F#4,66.75,0.5,63,97.0
719,D4,66.75,0.5,63,97.0
720,B3,66.75,0.5,63,97.0
721,G3,66.75,0.5,63,97.0
722,A3,67.0,0.25,95,97.0
723,D4,67.25,0.25,95,97.0
724,F#4,67.25,0.25,63,97.0
725,D4,67.25,0.25,63,97.0
726,B3,67.25,0.25,63,97.0
727,G3,67.25,0.25,63,97.0
728,D4,67.5,0.25,95,97.0
729,F#4,67.5,0.25,31,97.0
730,D4,67.5,0.25,31,97.0
731,B3,67.5,0.25,31,97.0
732,G3,67.5,0.25,31,97.0
733,B3,67.75,0.25,95,97.0
734,E1,67.75,0.125,95,97.0
735,F#4,67.75,0.25,63,97.0
736,D4,67.75,0.25,63,97.0
737,B3,67.75,0.25,63,97.0
738,G3,67.75,0.25,63,97.0
739,C4,68.0,0.25,95,97.0
740,E1,68.0,0.75,95,97.0
741,C#6,68.0,1.0,55,97.0
742,C#5,68.0,1.0,55,97.0
743,F#4,68.0,0.25,47,97.0
744,D4,68.0,0.25,47,97.0
745,B3,68.0,0.25,47,97.0
746,G3,68.0,0.25,47,97.0
747,E4,68.25,0.25,95,97.0
748,F#4,68.25,0.25,63,97.0
749,D4,68.25,0.25,63,97.0
750,B3,68.25,0.25,63,97.0
751,G3,68.25,0.25,63,97.0
752,F#4,68.5,0.25,95,97.0
753,F#4,68.5,0.25,31,97.0
754,D4,68.5,0.25,31,97.0
755,B3,68.5,0.25,31,97.0
756,G3,68.5,0.25,31,97.0
757,F#4,68.75,0.5,95,97.0
758,E1,68.75,0.125,95,97.0
759,F#4,68.75,0.25,63,97.0
760,E4,68.75,0.25,63,97.0
761,C#4,68.75,0.25,63,97.0
762,A3,68.75,0.25,63,97.0
763,A1,69.0,0.5,79,97.0
764,E4,69.0,1.0,47,97.0
765,C#4,69.0,1.0,47,97.0
766,A3,69.0,1.0,47,97.0
767,A5,69.0,1.0,55,97.0
768,A4,69.0,1.0,55,97.0
769,F#4,69.0,0.5,43,97.0
770,E4,69.0,0.5,43,97.0
771,C#4,69.0,0.5,43,97.0
772,A3,69.0,0.5,43,97.0
773,B3,69.25,0.25,95,97.0
774,D4,69.5,0.25,95,97.0
775,B1,69.5,0.5,79,97.0
776,F#4,69.5,0.5,55,97.0
777,E4,69.5,0.5,55,97.0
778,C#4,69.5,0.5,55,97.0
779,A3,69.5,0.5,55,97.0
780,D4,69.75,0.25,95,97.0
781,D4,70.0,0.5,95,97.0
782,F#4,70.0,2.75,63,97.0
783,E1,70.0,0.75,95,97.0
784,F#4,70.0,3.0,47,97.0
785,D4,70.0,3.0,47,97.0
786,B3,70.0,3.0,47,97.0
787,G3,70.0,3.0,47,97.0
788,F#4,70.0,0.25,47,97.0
789,D4,70.0,0.25,47,97.0
790,B3,70.0,0.25,47,97.0
791,G3,70.0,0.25,47,97.0
792,F#4,70.25,0.25,63,97.0
793,D4,70.25,0.25,63,97.0
794,B3,70.25,0.25,63,97.0
795,G3,70.25,0.25,63,97.0
796,F#4,70.5,0.25,31,97.0
797,D4,70.5,0.25,31,97.0
798,B3,70.5,0.25,31,97.0
799,G3,70.5,0.25,31,97.0
800,B1,70.75,1.0,79,97.0
801,F#4,70.75,0.5,63,97.0
802,D4,70.75,0.5,63,97.0
803,B3,70.75,0.5,63,97.0
804,G3,70.75,0.5,63,97.0
805,A3,71.0,0.25,95,97.0
806,C#4,71.25,0.25,95,97.0
807,F#4,71.25,0.25,63,97.0
808,D4,71.25,0.25,63,97.0
809,B3,71.25,0.25,63,97.0
810,G3,71.25,0.25,63,97.0
811,D4,71.5,0.25,95,97.0
812,F#4,71.5,0.25,31,97.0
813,D4,71.5,0.25,31,97.0
814,B3,71.5,0.25,31,97.0
815,G3,71.5,0.25,31,97.0
816,D4,71.75,0.5,95,97.0
817,E1,71.75,0.125,95,97.0
818,F#4,71.75,0.25,63,97.0
819,D4,71.75,0.25,63,97.0
820,B3,71.75,0.25,63,97.0
821,G3,71.75,0.25,63,97.0
822,E1,72.0,0.75,95,97.0
823,F#4,72.0,0.25,47,97.0
824,D4,72.0,0.25,47,97.0
825,B3,72.0,0.25,47,97.0
826,G3,72.0,0.25,47,97.0
827,D4,72.25,0.5,95,97.0
828,F#4,72.25,0.25,63,97.0
829,D4,72.25,0.25,63,97.0
830,B3,72.25,0.25,63,97.0
831,G3,72.25,0.25,63,97.0
832,F#4,72.5,0.25,31,97.0
833,D4,72.5,0.25,31,97.0
834,B3,72.5,0.25,31,97.0
835,G3,72.5,0.25,31,97.0
836,C#4,72.75,0.5,95,97.0
837,E4,72.75,1.25,63,97.0
838,E1,72.75,0.125,95,97.0
839,F#4,72.75,0.25,63,97.0
840,E4,72.75,0.25,63,97.0
841,C#4,72.75,0.25,63,97.0
842,A3,72.75,0.25,63,97.0
843,A1,73.0,0.5,79,97.0
844,E4,73.0,1.0,47,97.0
845,C#4,73.0,1.0,47,97.0
846,A3,73.0,1.0,47,97.0
847,F#4,73.0,0.5,43,97.0
848,E4,73.0,0.5,43,97.0
849,C#4,73.0,0.5,43,97.0
850,A3,73.0,0.5,43,97.0
851,A3,73.25,0.5,95,97.0
852,B1,73.5,0.5,79,97.0
853,F#4,73.5,0.5,55,97.0
854,E4,73.5,0.5,55,97.0
855,C#4,73.5,0.5,55,97.0
856,A3,73.5,0.5,55,97.0
857,A3,73.75,0.25,95,97.0
858,A3,74.0,0.5,95,97.0
859,G1,74.0,0.75,95,97.0
860,F#4,74.0,3.0,47,97.0
861,D4,74.0,3.0,47,97.0
862,B3,74.0,3.0,47,97.0
863,G3,74.0,3.0,47,97.0
864,F#4,74.0,0.25,47,97.0
865,D4,74.0,0.25,47,97.0
866,B3,74.0,0.25,47,97.0
867,G3,74.0,0.25,47,97.0
868,F#4,74.25,0.25,63,97.0
869,D4,74.25,0.25,63,97.0
870,B3,74.25,0.25,63,97.0
871,G3,74.25,0.25,63,97.0
872,F#4,74.5,0.25,31,97.0
873,D4,74.5,0.25,31,97.0
874,B3,74.5,0.25,31,97.0
875,G3,74.5,0.25,31,97.0
876,B1,74.75,1.0,79,97.0
877,F#4,74.75,0.5,63,97.0
878,D4,74.75,0.5,63,97.0
879,B3,74.75,0.5,63,97.0
880,G3,74.75,0.5,63,97.0
881,F#3,75.0,0.25,95,97.0
882,G3,75.25,0.25,95,97.0
883,F#4,75.25,0.25,63,97.0
884,D4,75.25,0.25,63,97.0
885,B3,75.25,0.25,63,97.0
886,G3,75.25,0.25,63,97.0
887,G3,75.5,0.25,95,97.0
888,F#4,75.5,0.25,31,97.0
889,D4,75.5,0.25,31,97.0
890,B3,75.5,0.25,31,97.0
891,G3,75.5,0.25,31,97.0
892,A3,75.75,0.5,95,97.0
893,G1,75.75,0.125,95,97.0
894,F#4,75.75,0.25,63,97.0
895,D4,75.75,0.25,63,97.0
896,B3,75.75,0.25,63,97.0
897,G3,75.75,0.25,63,97.0
898,G1,76.0,0.75,95,97.0
899,F#4,76.0,0.25,47,97.0
900,D4,76.0,0.25,47,97.0
901,B3,76.0,0.25,47,97.0
902,G3,76.0,0.25,47,97.0
903,B3,76.25,0.5,95,97.0
904,F#4,76.25,0.25,63,97.0
905,D4,76.25,0.25,63,97.0
906,B3,76.25,0.25,63,97.0
907,G3,76.25,0.25,63,97.0
908,F#4,76.5,0.25,31,97.0
909,D4,76.5,0.25,31,97.0
910,B3,76.5,0.25,31,97.0
911,G3,76.5,0.25,31,97.0
912,D3,76.75,0.5,95,97.0
913,A1,76.75,0.75,79,97.0
914,F#4,76.75,0.25,63,97.0
915,E4,76.75,0.25,63,97.0
916,C#4,76.75,0.25,63,97.0
917,A3,76.75,0.25,63,97.0
918,E4,77.0,1.0,47,97.0
919,C#4,77.0,1.0,47,97.0
920,A3,77.0,1.0,47,97.0
921,F#4,77.0,0.5,43,97.0
922,E4,77.0,0.5,43,97.0
923,C#4,77.0,0.5,43,97.0
924,A3,77.0,0.5,43,97.0
925,E3,77.25,0.5,95,97.0
926,F#1,77.5,0.5,79,97.0
927,F#4,77.5,0.5,55,97.0
928,E4,77.5,0.5,55,97.0
929,C#4,77.5,0.5,55,97.0
930,A3,77.5,0.5,55,97.0
931,F#3,77.75,0.25,95,97.0
932,F#3,78.0,0.25,95,97.0
933,G1,78.0,0.75,95,97.0
934,F#4,78.0,3.0,47,97.0
935,D4,78.0,3.0,47,97.0
936,B3,78.0,3.0,47,97.0
937,G3,78.0,3.0,47,97.0
938,F#4,78.0,0.25,47,97.0
939,D4,78.0,0.25,47,97.0
940,B3,78.0,0.25,47,97.0
941,G3,78.0,0.25,47,97.0
942,E3,78.25,0.25,95,97.0
943,F#4,78.25,0.25,63,97.0
944,D4,78.25,0.25,63,97.0
945,B3,78.25,0.25,63,97.0
946,G3,78.25,0.25,63,97.0
947,F#3,78.5,2.0,95,97.0
948,F#4,78.5,0.25,31,97.0
949,D4,78.5,0.25,31,97.0
950,B3,78.5,0.25,31,97.0
951,G3,78.5,0.25,31,97.0
952,B1,78.75,1.0,79,97.0
953,F#4,78.75,0.5,63,97.0
954,D4,78.75,0.5,63,97.0
955,B3,78.75,0.5,63,97.0
956,G3,78.75,0.5,63,97.0
957,F#4,79.25,0.25,63,97.0
958,D4,79.25,0.25,63,97.0
959,B3,79.25,0.25,63,97.0
960,G3,79.25,0.25,63,97.0
961,F#4,79.5,0.25,31,97.0
962,D4,79.5,0.25,31,97.0
963,B3,79.5,0.25,31,97.0
964,G3,79.5,0.25,31,97.0
965,G1,79.75,0.125,95,97.0
966,F#4,79.75,0.25,63,97.0
967,D4,79.75,0.25,63,97.0
968,B3,79.75,0.25,63,97.0
969,G3,79.75,0.25,63,97.0
970,G1,80.0,0.75,95,97.0
971,F#4,80.0,0.25,47,97.0
972,D4,80.0,0.25,47,97.0
973,B3,80.0,0.25,47,97.0
974,G3,80.0,0.25,47,97.0
975,F#4,80.25,0.25,63,97.0
976,D4,80.25,0.25,63,97.0
977,B3,80.25,0.25,63,97.0
978,G3,80.25,0.25,63,97.0
979,F#4,80.5,0.25,31,97.0
980,D4,80.5,0.25,31,97.0
981,B3,80.5,0.25,31,97.0
982,G3,80.5,0.25,31,97.0
983,A1,80.75,0.75,79,97.0
984,F#4,80.75,0.25,63,97.0
985,E4,80.75,0.25,63,97.0
986,C#4,80.75,0.25,63,97.0
987,A3,80.75,0.25,63,97.0
988,E4,81.0,1.0,47,97.0
989,C#4,81.0,1.0,47,97.0
990,A3,81.0,1.0,47,97.0
991,F#4,81.0,0.5,43,97.0
992,E4,81.0,0.5,43,97.0
993,C#4,81.0,0.5,43,97.0
994,A3,81.0,0.5,43,97.0
995,F#1,81.5,0.5,79,97.0
996,F#4,81.5,0.5,55,97.0
997,E4,81.5,0.5,55,97.0
998,C#4,81.5,0.5,55,97.0
999,A3,81.5,0.5,55,97.0
1000,E1,82.0,0.75,95,97.0
1001,F#4,82.0,3.0,47,97.0
1002,D4,82.0,3.0,47,97.0
1003,B3,82.0,3.0,47,97.0
1004,G3,82.0,3.0,47,97.0
1005,F#4,82.0,0.25,47,97.0
1006,D4,82.0,0.25,47,97.0
1007,B3,82.0,0.25,47,97.0
1008,G3,82.0,0.25,47,97.0
1009,F#4,82.25,0.25,63,97.0
1010,D4,82.25,0.25,63,97.0
1011,B3,82.25,0.25,63,97.0
1012,G3,82.25,0.25,63,97.0
1013,F#4,82.5,0.25,31,97.0
1014,D4,82.5,0.25,31,97.0
1015,B3,82.5,0.25,31,97.0
1016,G3,82.5,0.25,31,97.0
1017,F3,82.75,0.25,63,97.0
1018,B1,82.75,1.0,79,97.0
1019,F#4,82.75,0.5,63,97.0
1020,D4,82.75,0.5,63,97.0
1021,B3,82.75,0.5,63,97.0
1022,G3,82.75,0.5,63,97.0
1023,B3,83.0,0.25,79,97.0
1024,D4,83.25,0.25,95,97.0
1025,F#4,83.25,0.25,63,97.0
1026,D4,83.25,0.25,63,97.0
1027,B3,83.25,0.25,63,97.0
1028,G3,83.25,0.25,63,97.0
1029,D4,83.5,0.25,95,97.0
1030,F#4,83.5,0.25,31,97.0
1031,D4,83.5,0.25,31,97.0
1032,B3,83.5,0.25,31,97.0
1033,G3,83.5,0.25,31,97.0
1034,B3,83.75,0.25,95,97.0
1035,E1,83.75,0.125,95,97.0
1036,F#4,83.75,0.25,63,97.0
1037,D4,83.75,0.25,63,97.0
1038,B3,83.75,0.25,63,97.0
1039,G3,83.75,0.25,63,97.0
1040,D4,84.0,0.25,95,97.0
1041,E1,84.0,0.75,95,97.0
1042,F#4,84.0,0.25,47,97.0
1043,D4,84.0,0.25,47,97.0
1044,B3,84.0,0.25,47,97.0
1045,G3,84.0,0.25,47,97.0
1046,F#4,84.25,0.25,95,97.0
1047,F#4,84.25,0.25,63,97.0
1048,D4,84.25,0.25,63,97.0
1049,B3,84.25,0.25,63,97.0
1050,G3,84.25,0.25,63,97.0
1051,A4,84.5,0.25,95,97.0
1052,F#4,84.5,0.25,31,97.0
1053,D4,84.5,0.25,31,97.0
1054,B3,84.5,0.25,31,97.0
1055,G3,84.5,0.25,31,97.0
1056,G4,84.75,0.5,95,97.0
1057,E1,84.75,0.125,95,97.0
1058,F#4,84.75,0.25,63,97.0
1059,E4,84.75,0.25,63,97.0
1060,C#4,84.75,0.25,63,97.0
1061,A3,84.75,0.25,63,97.0
1062,A1,85.0,0.5,79,97.0
1063,E4,85.0,1.0,47,97.0
1064,C#4,85.0,1.0,47,97.0
1065,A3,85.0,1.0,47,97.0
1066,F#4,85.0,0.5,43,97.0
1067,E4,85.0,0.5,43,97.0
1068,C#4,85.0,0.5,43,97.0
1069,A3,85.0,0.5,43,97.0
1070,B4,85.25,0.25,95,97.0
1071,D5,85.5,0.25,95,97.0
1072,B1,85.5,0.5,79,97.0
1073,F#4,85.5,0.5,55,97.0
1074,E4,85.5,0.5,55,97.0
1075,C#4,85.5,0.5,55,97.0
1076,A3,85.5,0.5,55,97.0
1077,B4,85.75,0.25,95,97.0
1078,B4,86.0,0.5,95,97.0
1079,E1,86.0,0.75,95,97.0
1080,F#4,86.0,3.0,47,97.0
1081,D4,86.0,3.0,47,97.0
1082,B3,86.0,3.0,47,97.0
1083,G3,86.0,3.0,47,97.0
1084,F#4,86.0,0.25,47,97.0
1085,D4,86.0,0.25,47,97.0
1086,B3,86.0,0.25,47,97.0
1087,G3,86.0,0.25,47,97.0
1088,F#4,86.25,0.25,63,97.0
1089,D4,86.25,0.25,63,97.0
1090,B3,86.25,0.25,63,97.0
1091,G3,86.25,0.25,63,97.0
1092,F#4,86.5,0.25,31,97.0
1093,D4,86.5,0.25,31,97.0
1094,B3,86.5,0.25,31,97.0
1095,G3,86.5,0.25,31,97.0
1096,B1,86.75,1.0,79,97.0
1097,F#4,86.75,0.5,63,97.0
1098,D4,86.75,0.5,63,97.0
1099,B3,86.75,0.5,63,97.0
1100,G3,86.75,0.5,63,97.0
1101,A4,87.0,0.25,95,97.0
1102,C#5,87.25,0.25,95,97.0
1103,F#4,87.25,0.25,63,97.0
1104,D4,87.25,0.25,63,97.0
1105,B3,87.25,0.25,63,97.0
1106,G3,87.25,0.25,63,97.0
1107,D5,87.5,0.25,95,97.0
1108,F#4,87.5,0.25,31,97.0
1109,D4,87.5,0.25,31,97.0
1110,B3,87.5,0.25,31,97.0
1111,G3,87.5,0.25,31,97.0
1112,D5,87.75,0.5,95,97.0
1113,E1,87.75,0.125,95,97.0
1114,F#4,87.75,0.25,63,97.0
1115,D4,87.75,0.25,63,97.0
1116,B3,87.75,0.25,63,97.0
1117,G3,87.75,0.25,63,97.0
1118,E1,88.0,0.75,95,97.0
1119,F#4,88.0,0.25,47,97.0
1120,D4,88.0,0.25,47,97.0
1121,B3,88.0,0.25,47,97.0
1122,G3,88.0,0.25,47,97.0
1123,E5,88.25,0.5,95,97.0
1124,F#4,88.25,0.25,63,97.0
1125,D4,88.25,0.25,63,97.0
1126,B3,88.25,0.25,63,97.0
1127,G3,88.25,0.25,63,97.0
1128,F#4,88.5,0.25,31,97.0
1129,D4,88.5,0.25,31,97.0
1130,B3,88.5,0.25,31,97.0
1131,G3,88.5,0.25,31,97.0
1132,C#5,88.75,0.5,95,97.0
1133,E1,88.75,0.125,95,97.0
1134,F#4,88.75,0.25,63,97.0
1135,E4,88.75,0.25,63,97.0
1136,C#4,88.75,0.25,63,97.0
1137,A3,88.75,0.25,63,97.0
1138,A1,89.0,0.5,79,97.0
1139,E4,89.0,1.0,47,97.0
1140,C#4,89.0,1.0,47,97.0
1141,A3,89.0,1.0,47,97.0
1142,F#4,89.0,0.5,43,97.0
1143,E4,89.0,0.5,43,97.0
1144,C#4,89.0,0.5,43,97.0
1145,A3,89.0,0.5,43,97.0
1146,A4,89.25,0.5,79,97.0
1147,B1,89.5,0.5,79,97.0
1148,F#4,89.5,0.5,55,97.0
1149,E4,89.5,0.5,55,97.0
1150,C#4,89.5,0.5,55,97.0
1151,A3,89.5,0.5,55,97.0
1152,A4,89.75,0.25,63,97.0
1153,A4,90.0,0.5,63,97.0
1154,G1,90.0,0.75,95,97.0
1155,F#4,90.0,3.0,47,97.0
1156,D4,90.0,3.0,47,97.0
1157,B3,90.0,3.0,47,97.0
1158,G3,90.0,3.0,47,97.0
1159,F#4,90.0,0.25,47,97.0
1160,D4,90.0,0.25,47,97.0
1161,B3,90.0,0.25,47,97.0
1162,G3,90.0,0.25,47,97.0
1163,F#4,90.25,0.25,63,97.0
1164,D4,90.25,0.25,63,97.0
1165,B3,90.25,0.25,63,97.0
1166,G3,90.25,0.25,63,97.0
1167,F#4,90.5,0.25,31,97.0
1168,D4,90.5,0.25,31,97.0
1169,B3,90.5,0.25,31,97.0
1170,G3,90.5,0.25,31,97.0
1171,B1,90.75,1.0,79,97.0
1172,F#4,90.75,0.5,63,97.0
1173,D4,90.75,0.5,63,97.0
1174,B3,90.75,0.5,63,97.0
1175,G3,90.75,0.5,63,97.0
1176,E4,91.0,0.25,95,97.0
1177,G4,91.25,0.25,95,97.0
1178,F#4,91.25,0.25,63,97.0
1179,D4,91.25,0.25,63,97.0
1180,B3,91.25,0.25,63,97.0
1181,G3,91.25,0.25,63,97.0
1182,A4,91.5,0.25,95,97.0
1183,F#4,91.5,0.25,31,97.0
1184,D4,91.5,0.25,31,97.0
1185,B3,91.5,0.25,31,97.0
1186,G3,91.5,0.25,31,97.0
1187,A4,91.75,0.5,95,97.0
1188,G1,91.75,0.125,95,97.0
1189,F#4,91.75,0.25,63,97.0
1190,D4,91.75,0.25,63,97.0
1191,B3,91.75,0.25,63,97.0
1192,G3,91.75,0.25,63,97.0
1193,G1,92.0,0.75,95,97.0
1194,F#4,92.0,0.25,47,97.0
1195,D4,92.0,0.25,47,97.0
1196,B3,92.0,0.25,47,97.0
1197,G3,92.0,0.25,47,97.0
1198,A4,92.25,0.5,95,97.0
1199,F#4,92.25,0.25,63,97.0
1200,D4,92.25,0.25,63,97.0
1201,B3,92.25,0.25,63,97.0
1202,G3,92.25,0.25,63,97.0
1203,F#4,92.5,0.25,31,97.0
1204,D4,92.5,0.25,31,97.0
1205,B3,92.5,0.25,31,97.0
1206,G3,92.5,0.25,31,97.0
1207,D4,92.75,0.5,95,97.0
1208,A1,92.75,0.75,79,97.0
1209,F#4,92.75,0.25,63,97.0
1210,E4,92.75,0.25,63,97.0
1211,C#4,92.75,0.25,63,97.0
1212,A3,92.75,0.25,63,97.0
1213,E4,93.0,1.0,47,97.0
1214,C#4,93.0,1.0,47,97.0
1215,A3,93.0,1.0,47,97.0
1216,F#4,93.0,0.5,43,97.0
1217,E4,93.0,0.5,43,97.0
1218,C#4,93.0,0.5,43,97.0
1219,A3,93.0,0.5,43,97.0
1220,E4,93.25,0.5,95,97.0
1221,F#1,93.5,0.5,79,97.0
1222,F#4,93.5,0.5,55,97.0
1223,E4,93.5,0.5,55,97.0
1224,C#4,93.5,0.5,55,97.0
1225,A3,93.5,0.5,55,97.0
1226,F#4,93.75,0.125,63,97.0
1227,G4,93.875,0.125,47,97.0
1228,G4,94.0,0.25,47,97.0
1229,G1,94.0,0.75,95,97.0
1230,F#4,94.0,3.0,47,97.0
1231,D4,94.0,3.0,47,97.0
1232,B3,94.0,3.0,47,97.0
1233,G3,94.0,3.0,47,97.0
1234,F#4,94.0,0.25,47,97.0
1235,D4,94.0,0.25,47,97.0
1236,B3,94.0,0.25,47,97.0
1237,G3,94.0,0.25,47,97.0
1238,E4,94.25,0.25,95,97.0
1239,F#4,94.25,0.25,63,97.0
1240,D4,94.25,0.25,63,97.0
1241,B3,94.25,0.25,63,97.0
1242,G3,94.25,0.25,63,97.0
1243,F#4,94.5,2.0,95,97.0
1244,F#4,94.5,0.25,31,97.0
1245,D4,94.5,0.25,31,97.0
1246,B3,94.5,0.25,31,97.0
1247,G3,94.5,0.25,31,97.0
1248,B1,94.75,1.0,79,97.0
1249,F#4,94.75,0.5,63,97.0
1250,D4,94.75,0.5,63,97.0
1251,B3,94.75,0.5,63,97.0
1252,G3,94.75,0.5,63,97.0
1253,F#4,95.25,0.25,63,97.0
1254,D4,95.25,0.25,63,97.0
1255,B3,95.25,0.25,63,97.0
1256,G3,95.25,0.25,63,97.0
1257,F#4,95.5,0.25,31,97.0
1258,D4,95.5,0.25,31,97.0
1259,B3,95.5,0.25,31,97.0
1260,G3,95.5,0.25,31,97.0
1261,G1,95.75,0.125,95,97.0
1262,F#4,95.75,0.25,63,97.0
1263,D4,95.75,0.25,63,97.0
1264,B3,95.75,0.25,63,97.0
1265,G3,95.75,0.25,63,97.0
1266,G1,96.0,0.75,95,97.0
1267,F#4,96.0,0.25,47,97.0
1268,D4,96.0,0.25,47,97.0
1269,B3,96.0,0.25,47,97.0
1270,G3,96.0,0.25,47,97.0
1271,F#4,96.25,0.25,63,97.0
1272,D4,96.25,0.25,63,97.0
1273,B3,96.25,0.25,63,97.0
1274,G3,96.25,0.25,63,97.0
1275,F#4,96.5,0.25,31,97.0
1276,D4,96.5,0.25,31,97.0
1277,B3,96.5,0.25,31,97.0
1278,G3,96.5,0.25,31,97.0
1279,A1,96.75,0.75,79,97.0
1280,F#4,96.75,0.25,63,97.0
1281,E4,96.75,0.25,63,97.0
1282,C#4,96.75,0.25,63,97.0
1283,A3,96.75,0.25,63,97.0
1284,E4,97.0,1.0,47,97.0
1285,C#4,97.0,1.0,47,97.0
1286,A3,97.0,1.0,47,97.0
1287,F#4,97.0,0.5,43,97.0
1288,E4,97.0,0.5,43,97.0
1289,C#4,97.0,0.5,43,97.0
1290,A3,97.0,0.5,43,97.0
1291,F#1,97.5,0.5,79,97.0
1292,F#4,97.5,0.5,55,97.0
1293,E4,97.5,0.5,55,97.0
1294,C#4,97.5,0.5,55,97.0
1295,A3,97.5,0.5,55,97.0
1296,C2,98.0,0.75,95,97.0
1297,E4,98.0,2.0,47,97.0
1298,C4,98.0,2.0,47,97.0
1299,G3,98.0,2.0,47,97.0
1300,G4,98.0,0.25,47,97.0
1301,D4,98.0,0.25,47,97.0
1302,C4,98.0,0.25,47,97.0
1303,G3,98.0,0.25,47,97.0
1304,G4,98.25,0.25,63,97.0
1305,D4,98.25,0.25,63,97.0
1306,C4,98.25,0.25,63,97.0
1307,G3,98.25,0.25,63,97.0
1308,G4,98.5,0.25,31,97.0
1309,D4,98.5,0.25,31,97.0
1310,C4,98.5,0.25,31,97.0
1311,G3,98.5,0.25,31,97.0
1312,G1,98.75,1.0,95,97.0
1313,G4,98.75,0.5,63,97.0
1314,D4,98.75,0.5,63,97.0
1315,C4,98.75,0.5,63,97.0
1316,G3,98.75,0.5,63,97.0
1317,D4,99.0,0.25,95,97.0
1318,G4,99.25,0.25,95,97.0
1319,G4,99.25,0.25,63,97.0
1320,D4,99.25,0.25,63,97.0
1321,C4,99.25,0.25,63,97.0
1322,G3,99.25,0.25,63,97.0
1323,G4,99.5,0.25,95,97.0
1324,G4,99.5,0.25,31,97.0
1325,D4,99.5,0.25,31,97.0
1326,C4,99.5,0.25,31,97.0
1327,G3,99.5,0.25,31,97.0
1328,E4,99.75,0.25,95,97.0
1329,C2,99.75,0.125,95,97.0
1330,G4,99.75,0.25,63,97.0
1331,D4,99.75,0.25,63,97.0
1332,C4,99.75,0.25,63,97.0
1333,G3,99.75,0.25,63,97.0
1334,G4,100.0,0.75,95,97.0
1335,C2,100.0,0.75,95,97.0
1336,F#4,100.0,2.0,47,97.0
1337,D4,100.0,2.0,47,97.0
1338,A3,100.0,2.0,47,97.0
1339,A4,100.0,0.25,47,97.0
1340,D4,100.0,0.25,47,97.0
1341,A3,100.0,0.25,47,97.0
1342,F#3,100.0,0.25,47,97.0
1343,A4,100.25,0.25,63,97.0
1344,D4,100.25,0.25,63,97.0
1345,A3,100.25,0.25,63,97.0
1346,F#3,100.25,0.25,63,97.0
1347,A4,100.5,0.25,31,97.0
1348,D4,100.5,0.25,31,97.0
1349,A3,100.5,0.25,31,97.0
1350,F#3,100.5,0.25,31,97.0
1351,F#4,100.75,0.5,95,97.0
1352,F#1,100.75,0.75,95,97.0
1353,F#4,100.75,0.25,63,97.0
1354,D4,100.75,0.25,63,97.0
1355,A3,100.75,0.25,63,97.0
1356,F#3,100.75,0.25,63,97.0
1357,F#4,101.0,0.5,47,97.0
1358,D4,101.0,0.5,47,97.0
1359,A3,101.0,0.5,47,97.0
1360,F#3,101.0,0.5,47,97.0
1361,D4,101.25,0.5,95,97.0
1362,F#1,101.5,0.5,79,97.0
1363,E4,101.5,0.5,47,97.0
1364,D4,101.5,0.5,47,97.0
1365,A3,101.5,0.5,47,97.0
1366,F#3,101.5,0.5,47,97.0
1367,E4,101.75,0.25,95,97.0
1368,E4,102.0,1.0,95,97.0
1369,E4,102.0,0.25,47,97.0
1370,G4,102.0,0.5,79,97.0
1371,C2,102.0,0.75,95,97.0
1372,G4,102.0,2.0,47,97.0
1373,E4,102.0,2.0,47,97.0
1374,C4,102.0,2.0,47,97.0
1375,G4,102.0,0.25,47,97.0
1376,D4,102.0,0.25,47,97.0
1377,C4,102.0,0.25,47,97.0
1378,G3,102.0,0.25,47,97.0
1379,G4,102.25,3.75,47,97.0
1380,G4,102.25,0.25,63,97.0
1381,D4,102.25,0.25,63,97.0
1382,C4,102.25,0.25,63,97.0
1383,G3,102.25,0.25,63,97.0
1384,D5,102.5,1.5,47,97.0
1385,G4,102.5,0.25,31,97.0
1386,D4,102.5,0.25,31,97.0
1387,C4,102.5,0.25,31,97.0
1388,G3,102.5,0.25,31,97.0
1389,G1,102.75,1.0,95,97.0
1390,G4,102.75,0.5,63,97.0
1391,D4,102.75,0.5,63,97.0
1392,C4,102.75,0.5,63,97.0
1393,G3,102.75,0.5,63,97.0
1394,G4,103.0,0.5,95,97.0
1395,G4,103.25,0.25,63,97.0
1396,D4,103.25,0.25,63,97.0
1397,C4,103.25,0.25,63,97.0
1398,G3,103.25,0.25,63,97.0
1399,B4,103.5,0.25,95,97.0
1400,G4,103.5,0.25,31,97.0
1401,D4,103.5,0.25,31,97.0
1402,C4,103.5,0.25,31,97.0
1403,G3,103.5,0.25,31,97.0
1404,G4,103.75,0.25,95,97.0
1405,C2,103.75,0.125,95,97.0
1406,G4,103.75,0.25,63,97.0
1407,D4,103.75,0.25,63,97.0
1408,C4,103.75,0.25,63,97.0
1409,G3,103.75,0.25,63,97.0
1410,A4,104.0,0.75,95,97.0
1411,E5,104.0,0.25,47,97.0
1412,B1,104.0,0.75,95,97.0
1413,F#4,104.0,2.0,47,97.0
1414,D4,104.0,2.0,47,97.0
1415,A3,104.0,2.0,47,97.0
1416,A4,104.0,0.25,47,97.0
1417,D4,104.0,0.25,47,97.0
1418,A3,104.0,0.25,47,97.0
1419,F#3,104.0,0.25,47,97.0
1420,G5,104.25,0.25,47,97.0
1421,A4,104.25,0.25,63,97.0
1422,D4,104.25,0.25,63,97.0
1423,A3,104.25,0.25,63,97.0
1424,F#3,104.25,0.25,63,97.0
1425,F#5,104.5,0.25,47,97.0
1426,A4,104.5,0.25,31,97.0
1427,D4,104.5,0.25,31,97.0
1428,A3,104.5,0.25,31,97.0
1429,F#3,104.5,0.25,31,97.0
1430,C5,104.75,0.5,79,97.0
1431,D5,104.75,1.25,47,97.0
1432,B1,104.75,0.75,95,97.0
1433,F#4,104.75,0.25,63,97.0
1434,D4,104.75,0.25,63,97.0
1435,A3,104.75,0.25,63,97.0
1436,F#3,104.75,0.25,63,97.0
1437,F#4,105.0,0.5,47,97.0
1438,D4,105.0,0.5,47,97.0
1439,A3,105.0,0.5,47,97.0
1440,F#3,105.0,0.5,47,97.0
1441,F#4,105.25,0.25,63,97.0
1442,F#1,105.5,0.5,79,97.0
1443,E4,105.5,0.5,47,97.0
1444,D4,105.5,0.5,47,97.0
1445,A3,105.5,0.5,47,97.0
1446,F#3,105.5,0.5,47,97.0
1447,E4,105.75,0.25,47,97.0
1448,E4,106.0,0.5,47,97.0
1449,E4,106.0,2.0,47,97.0
1450,C2,106.0,0.75,95,97.0
1451,E4,106.0,2.0,47,97.0
1452,C4,106.0,2.0,47,97.0
1453,G3,106.0,2.0,47,97.0
1454,G4,106.0,0.25,47,97.0
1455,D4,106.0,0.25,47,97.0
1456,C4,106.0,0.25,47,97.0
1457,G3,106.0,0.25,47,97.0
1458,G4,106.25,0.25,63,97.0
1459,D4,106.25,0.25,63,97.0
1460,C4,106.25,0.25,63,97.0
1461,G3,106.25,0.25,63,97.0
1462,G4,106.5,0.25,31,97.0
1463,D4,106.5,0.25,31,97.0
1464,C4,106.5,0.25,31,97.0
1465,G3,106.5,0.25,31,97.0
1466,G1,106.75,1.0,95,97.0
1467,G4,106.75,0.5,63,97.0
1468,D4,106.75,0.5,63,97.0
1469,C4,106.75,0.5,63,97.0
1470,G3,106.75,0.5,63,97.0
1471,D4,107.0,0.25,95,97.0
1472,F#4,107.25,0.25,95,97.0
1473,G4,107.25,0.25,63,97.0
1474,D4,107.25,0.25,63,97.0
1475,C4,107.25,0.25,63,97.0
1476,G3,107.25,0.25,63,97.0
1477,G4,107.5,0.25,95,97.0
1478,G4,107.5,0.25,31,97.0
1479,D4,107.5,0.25,31,97.0
1480,C4,107.5,0.25,31,97.0
1481,G3,107.5,0.25,31,97.0
1482,E4,107.75,0.25,95,97.0
1483,C2,107.75,0.125,95,97.0
1484,G4,107.75,0.25,63,97.0
1485,D4,107.75,0.25,63,97.0
1486,C4,107.75,0.25,63,97.0
1487,G3,107.75,0.25,63,97.0
1488,G4,108.0,0.75,95,97.0
1489,F#4,108.0,2.0,47,97.0
1490,B1,108.0,0.75,95,97.0
1491,F#4,108.0,2.0,47,97.0
1492,D4,108.0,2.0,47,97.0
1493,A3,108.0,2.0,47,97.0
1494,A4,108.0,0.25,47,97.0
1495,D4,108.0,0.25,47,97.0
1496,A3,108.0,0.25,47,97.0
1497,F#3,108.0,0.25,47,97.0
1498,A4,108.25,0.25,63,97.0
1499,D4,108.25,0.25,63,97.0
1500,A3,108.25,0.25,63,97.0
1501,F#3,108.25,0.25,63,97.0
1502,A4,108.5,0.25,31,97.0
1503,D4,108.5,0.25,31,97.0
1504,A3,108.5,0.25,31,97.0
1505,F#3,108.5,0.25,31,97.0
1506,F#4,108.75,0.5,95,97.0
1507,B1,108.75,0.75,95,97.0
1508,F#4,108.75,0.25,63,97.0
1509,D4,108.75,0.25,63,97.0
1510,A3,108.75,0.25,63,97.0
1511,F#3,108.75,0.25,63,97.0
1512,F#4,109.0,0.5,47,97.0
1513,D4,109.0,0.5,47,97.0
1514,A3,109.0,0.5,47,97.0
1515,F#3,109.0,0.5,47,97.0
1516,D4,109.25,0.5,95,97.0
1517,F#1,109.5,0.5,79,97.0
1518,E4,109.5,0.5,47,97.0
1519,D4,109.5,0.5,47,97.0
1520,A3,109.5,0.5,47,97.0
1521,F#3,109.5,0.5,47,97.0
1522,D4,109.75,0.25,95,97.0
1523,D4,110.0,3.0,95,97.0
1524,E1,110.0,0.75,95,97.0
1525,F#4,110.0,4.0,47,97.0
1526,D4,110.0,4.0,47,97.0
1527,A3,110.0,4.0,47,97.0
1528,E6,110.0,2.0,47,97.0
1529,E5,110.0,2.0,47,97.0
1530,F#4,110.0,0.25,47,97.0
1531,D4,110.0,0.25,47,97.0
1532,B3,110.0,0.25,47,97.0
1533,G3,110.0,0.25,47,97.0
1534,F#4,110.25,0.25,63,97.0
1535,D4,110.25,0.25,63,97.0
1536,B3,110.25,0.25,63,97.0
1537,G3,110.25,0.25,63,97.0
1538,F#4,110.5,0.25,31,97.0
1539,D4,110.5,0.25,31,97.0
1540,B3,110.5,0.25,31,97.0
1541,G3,110.5,0.25,31,97.0
1542,B1,110.75,1.0,79,97.0
1543,F#4,110.75,0.5,63,97.0
1544,D4,110.75,0.5,63,97.0
1545,B3,110.75,0.5,63,97.0
1546,G3,110.75,0.5,63,97.0
1547,F#4,111.25,0.25,63,97.0
1548,D4,111.25,0.25,63,97.0
1549,B3,111.25,0.25,63,97.0
1550,G3,111.25,0.25,63,97.0
1551,F#4,111.5,0.25,31,97.0
1552,D4,111.5,0.25,31,97.0
1553,B3,111.5,0.25,31,97.0
1554,G3,111.5,0.25,31,97.0
1555,E1,111.75,0.125,95,97.0
1556,F#4,111.75,0.25,63,97.0
1557,D4,111.75,0.25,63,97.0
1558,B3,111.75,0.25,63,97.0
1559,G3,111.75,0.25,63,97.0
1560,E1,112.0,0.75,95,97.0
1561,F#6,112.0,2.0,47,97.0
1562,F#5,112.0,2.0,47,97.0
1563,F#4,112.0,0.25,47,97.0
1564,D4,112.0,0.25,47,97.0
1565,B3,112.0,0.25,47,97.0
1566,G3,112.0,0.25,47,97.0
1567,F#4,112.25,0.25,63,97.0
1568,D4,112.25,0.25,63,97.0
1569,B3,112.25,0.25,63,97.0
1570,G3,112.25,0.25,63,97.0
1571,F#4,112.5,0.25,31,97.0
1572,D4,112.5,0.25,31,97.0
1573,B3,112.5,0.25,31,97.0
1574,G3,112.5,0.25,31,97.0
1575,E1,112.75,0.125,95,97.0
1576,F#4,112.75,0.25,63,97.0
1577,E4,112.75,0.25,63,97.0
1578,C#4,112.75,0.25,63,97.0
1579,A3,112.75,0.25,63,97.0
1580,A3,113.0,0.25,95,97.0
1581,A1,113.0,0.5,79,97.0
1582,F#4,113.0,0.5,43,97.0
1583,E4,113.0,0.5,43,97.0
1584,C#4,113.0,0.5,43,97.0
1585,A3,113.0,0.5,43,97.0
1586,D4,113.25,0.25,95,97.0
1587,E4,113.5,0.25,95,97.0
1588,B1,113.5,0.5,79,97.0
1589,F#4,113.5,0.5,55,97.0
1590,E4,113.5,0.5,55,97.0
1591,C#4,113.5,0.5,55,97.0
1592,A3,113.5,0.5,55,97.0
1593,D4,113.75,0.25,95,97.0
1594,E4,114.0,0.25,95,97.0
1595,E1,114.0,0.75,95,97.0
1596,F#4,114.0,2.0,47,97.0
1597,D4,114.0,2.0,47,97.0
1598,A3,114.0,2.0,47,97.0
1599,D6,114.0,4.0,47,97.0
1600,D5,114.0,4.0,47,97.0
1601,F#4,114.0,0.25,47,97.0
1602,D4,114.0,0.25,47,97.0
1603,B3,114.0,0.25,47,97.0
1604,G3,114.0,0.25,47,97.0
1605,F#4,114.25,0.25,63,97.0
1606,F#4,114.25,0.25,63,97.0
1607,D4,114.25,0.25,63,97.0
1608,B3,114.25,0.25,63,97.0
1609,G3,114.25,0.25,63,97.0
1610,F#4,114.5,0.25,47,97.0
1611,F#4,114.5,0.25,31,97.0
1612,D4,114.5,0.25,31,97.0
1613,B3,114.5,0.25,31,97.0
1614,G3,114.5,0.25,31,97.0
1615,A4,114.75,0.25,95,97.0
1616,F#1,114.75,1.0,95,97.0
1617,F#4,114.75,0.5,63,97.0
1618,D4,114.75,0.5,63,97.0
1619,B3,114.75,0.5,63,97.0
1620,G3,114.75,0.5,63,97.0
1621,F#4,115.25,0.25,95,97.0
1622,F#4,115.25,0.25,63,97.0
1623,D4,115.25,0.25,63,97.0
1624,B3,115.25,0.25,63,97.0
1625,G3,115.25,0.25,63,97.0
1626,F#4,115.5,0.25,31,97.0
1627,D4,115.5,0.25,31,97.0
1628,B3,115.5,0.25,31,97.0
1629,G3,115.5,0.25,31,97.0
1630,E4,115.75,1.75,95,97.0
1631,B1,115.75,0.125,95,97.0
1632,F#4,115.75,0.25,63,97.0
1633,E4,115.75,0.25,63,97.0
1634,C#4,115.75,0.25,63,97.0
1635,A3,115.75,0.25,63,97.0
1636,B1,116.0,0.75,95,97.0
1637,E4,116.0,2.0,59,97.0
1638,C#4,116.0,2.0,59,97.0
1639,B3,116.0,2.0,59,97.0
1640,F#3,116.0,2.0,59,97.0
1641,F#4,116.0,0.25,47,97.0
1642,E4,116.0,0.25,47,97.0
1643,C#4,116.0,0.25,47,97.0
1644,A3,116.0,0.25,47,97.0
1645,F#4,116.25,0.25,63,97.0
1646,E4,116.25,0.25,63,97.0
1647,C#4,116.25,0.25,63,97.0
1648,A3,116.25,0.25,63,97.0
1649,F#4,116.5,0.25,31,97.0
1650,E4,116.5,0.25,31,97.0
1651,C#4,116.5,0.25,31,97.0
1652,A3,116.5,0.25,31,97.0
1653,F#1,116.75,0.75,95,97.0
1654,F#4,116.75,0.25,63,97.0
1655,E4,116.75,0.25,63,97.0
1656,C#4,116.75,0.25,63,97.0
1657,A3,116.75,0.25,63,97.0
1658,F#4,117.0,0.5,43,97.0
1659,E4,117.0,0.5,43,97.0
1660,C#4,117.0,0.5,43,97.0
1661,A3,117.0,0.5,43,97.0
1662,D4,117.5,0.5,95,97.0
1663,F#1,117.5,0.5,95,97.0
1664,F#4,117.5,0.5,55,97.0
1665,E4,117.5,0.5,55,97.0
1666,C#4,117.5,0.5,55,97.0
1667,A3,117.5,0.5,55,97.0
1668,C#4,118.0,0.75,79,97.0
1669,B1,118.0,0.75,95,97.0
1670,E4,118.0,2.0,47,97.0
1671,C#4,118.0,2.0,47,97.0
1672,A3,118.0,2.0,47,97.0
1673,E4,118.0,0.25,47,97.0
1674,C#4,118.0,0.25,47,97.0
1675,A3,118.0,0.25,47,97.0
1676,E4,118.25,0.25,63,97.0
1677,C#4,118.25,0.25,63,97.0
1678,A3,118.25,0.25,63,97.0
1679,E4,118.5,0.25,31,97.0
1680,C#4,118.5,0.25,31,97.0
1681,A3,118.5,0.25,31,97.0
1682,B3,118.75,0.5,63,97.0
1683,F#1,118.75,0.25,95,97.0
1684,E4,118.75,0.5,63,97.0
1685,C#4,118.75,0.5,63,97.0
1686,A3,118.75,0.5,63,97.0
1687,A3,119.25,0.25,47,97.0
1688,A1,119.25,0.25,95,97.0
1689,E4,119.25,0.25,63,97.0
1690,C#4,119.25,0.25,63,97.0
1691,A3,119.25,0.25,63,97.0
1692,E4,119.5,0.25,31,97.0
1693,C#4,119.5,0.25,31,97.0
1694,A3,119.5,0.25,31,97.0
1695,A3,119.75,0.25,47,97.0
1696,A1,119.75,0.25,95,97.0
1697,E4,119.75,0.25,63,97.0
1698,C#4,119.75,0.25,63,97.0
1699,A3,119.75,0.25,63,97.0
1700,A3,120.0,2.0,47,97.0
1701,A1,120.0,0.75,95,97.0
1702,E4,120.0,2.0,47,97.0
1703,C#4,120.0,2.0,47,97.0
1704,A3,120.0,2.0,47,97.0
1705,E4,120.0,0.25,47,97.0
1706,C#4,120.0,0.25,47,97.0
1707,A3,120.0,0.25,47,97.0
1708,E4,120.25,0.25,63,97.0
1709,C#4,120.25,0.25,63,97.0
1710,A3,120.25,0.25,63,97.0
1711,E4,120.5,0.25,31,97.0
1712,C#4,120.5,0.25,31,97.0
1713,A3,120.5,0.25,31,97.0
1714,C#2,120.75,0.25,95,97.0
1715,E4,120.75,0.25,63,97.0
1716,C#4,120.75,0.25,63,97.0
1717,A3,120.75,0.25,63,97.0
1718,B1,121.0,0.5,79,97.0
1719,E4,121.0,0.5,47,97.0
1720,C#4,121.0,0.5,47,97.0
1721,A3,121.0,0.5,47,97.0
1722,A1,121.5,0.5,95,97.0
1723,E4,121.5,0.5,63,97.0
1724,C#4,121.5,0.5,63,97.0
1725,A3,121.5,0.5,63,97.0
1726,A4,122.0,4.0,47,97.0
1727,E1,122.0,0.75,95,97.0
1728,F#4,122.0,3.0,47,97.0
1729,D4,122.0,3.0,47,97.0
1730,B3,122.0,3.0,47,97.0
1731,G3,122.0,3.0,47,97.0
1732,F#4,122.0,0.25,47,97.0
1733,D4,122.0,0.25,47,97.0
1734,B3,122.0,0.25,47,97.0
1735,G3,122.0,0.25,47,97.0
1736,F#4,122.25,0.25,63,97.0
1737,D4,122.25,0.25,63,97.0
1738,B3,122.25,0.25,63,97.0
1739,G3,122.25,0.25,63,97.0
1740,F#4,122.5,0.25,31,97.0
1741,D4,122.5,0.25,31,97.0
1742,B3,122.5,0.25,31,97.0
1743,G3,122.5,0.25,31,97.0
1744,B1,122.75,1.0,79,97.0
1745,F#4,122.75,0.5,63,97.0
1746,D4,122.75,0.5,63,97.0
1747,B3,122.75,0.5,63,97.0
1748,G3,122.75,0.5,63,97.0
1749,A3,123.0,0.25,95,97.0
1750,D4,123.25,0.25,95,97.0
1751,F#4,123.25,0.25,63,97.0
1752,D4,123.25,0.25,63,97.0
1753,B3,123.25,0.25,63,97.0
1754,G3,123.25,0.25,63,97.0
1755,D4,123.5,0.25,95,97.0
1756,F#4,123.5,0.25,31,97.0
1757,D4,123.5,0.25,31,97.0
1758,B3,123.5,0.25,31,97.0
1759,G3,123.5,0.25,31,97.0
1760,B3,123.75,0.25,95,97.0
1761,E1,123.75,0.125,95,97.0
1762,F#4,123.75,0.25,63,97.0
1763,D4,123.75,0.25,63,97.0
1764,B3,123.75,0.25,63,97.0
1765,G3,123.75,0.25,63,97.0
1766,C4,124.0,0.25,95,97.0
1767,E1,124.0,0.75,95,97.0
1768,F#4,124.0,0.25,47,97.0
1769,D4,124.0,0.25,47,97.0
1770,B3,124.0,0.25,47,97.0
1771,G3,124.0,0.25,47,97.0
1772,E4,124.25,0.25,95,97.0
1773,F#4,124.25,0.25,63,97.0
1774,D4,124.25,0.25,63,97.0
1775,B3,124.25,0.25,63,97.0
1776,G3,124.25,0.25,63,97.0
1777,F#4,124.5,0.25,95,97.0
1778,F#4,124.5,0.25,31,97.0
1779,D4,124.5,0.25,31,97.0
1780,B3,124.5,0.25,31,97.0
1781,G3,124.5,0.25,31,97.0
1782,F#4,124.75,0.5,95,97.0
1783,E1,124.75,0.125,95,97.0
1784,F#4,124.75,0.25,63,97.0
1785,E4,124.75,0.25,63,97.0
1786,C#4,124.75,0.25,63,97.0
1787,A3,124.75,0.25,63,97.0
1788,A1,125.0,0.5,79,97.0
1789,E4,125.0,1.0,47,97.0
1790,C#4,125.0,1.0,47,97.0
1791,A3,125.0,1.0,47,97.0
1792,F#4,125.0,0.5,43,97.0
1793,E4,125.0,0.5,43,97.0
1794,C#4,125.0,0.5,43,97.0
1795,A3,125.0,0.5,43,97.0
1796,B3,125.25,0.25,95,97.0
1797,D4,125.5,0.25,95,97.0
1798,B1,125.5,0.5,79,97.0
1799,F#4,125.5,0.5,55,97.0
1800,E4,125.5,0.5,55,97.0
1801,C#4,125.5,0.5,55,97.0
1802,A3,125.5,0.5,55,97.0
1803,D4,125.75,0.25,95,97.0
1804,D4,126.0,0.5,95,97.0
1805,F#4,126.0,2.75,63,97.0
1806,F#4,126.0,3.0,95,97.0
1807,E1,126.0,0.75,95,97.0
1808,F#4,126.0,3.0,47,97.0
1809,D4,126.0,3.0,47,97.0
1810,B3,126.0,3.0,47,97.0
1811,G3,126.0,3.0,47,97.0
1812,D4,126.0,4.0,95,97.0
1813,B3,126.0,4.0,95,97.0
1814,F#4,126.0,0.25,47,97.0
1815,D4,126.0,0.25,47,97.0
1816,B3,126.0,0.25,47,97.0
1817,G3,126.0,0.25,47,97.0
1818,F#4,126.25,0.25,63,97.0
1819,D4,126.25,0.25,63,97.0
1820,B3,126.25,0.25,63,97.0
1821,G3,126.25,0.25,63,97.0
1822,F#4,126.5,0.25,31,97.0
1823,D4,126.5,0.25,31,97.0
1824,B3,126.5,0.25,31,97.0
1825,G3,126.5,0.25,31,97.0
1826,B1,126.75,1.0,79,97.0
1827,F#4,126.75,0.5,63,97.0
1828,D4,126.75,0.5,63,97.0
1829,B3,126.75,0.5,63,97.0
1830,G3,126.75,0.5,63,97.0
1831,A3,127.0,0.25,95,97.0
1832,C#4,127.25,0.25,95,97.0
1833,F#4,127.25,0.25,63,97.0
1834,D4,127.25,0.25,63,97.0
1835,B3,127.25,0.25,63,97.0
1836,G3,127.25,0.25,63,97.0
1837,D4,127.5,0.25,95,97.0
1838,F#4,127.5,0.25,31,97.0
1839,D4,127.5,0.25,31,97.0
1840,B3,127.5,0.25,31,97.0
1841,G3,127.5,0.25,31,97.0
1842,D4,127.75,0.5,95,97.0
1843,E1,127.75,0.125,95,97.0
1844,F#4,127.75,0.25,63,97.0
1845,D4,127.75,0.25,63,97.0
1846,B3,127.75,0.25,63,97.0
1847,G3,127.75,0.25,63,97.0
1848,E1,128.0,0.75,95,97.0
1849,F#4,128.0,0.25,47,97.0
1850,D4,128.0,0.25,47,97.0
1851,B3,128.0,0.25,47,97.0
1852,G3,128.0,0.25,47,97.0
1853,D4,128.25,0.5,95,97.0
1854,F#4,128.25,0.25,63,97.0
1855,D4,128.25,0.25,63,97.0
1856,B3,128.25,0.25,63,97.0
1857,G3,128.25,0.25,63,97.0
1858,F#4,128.5,0.25,31,97.0
1859,D4,128.5,0.25,31,97.0
1860,B3,128.5,0.25,31,97.0
1861,G3,128.5,0.25,31,97.0
1862,C#4,128.75,0.5,95,97.0
1863,E4,128.75,1.25,63,97.0
1864,E1,128.75,0.125,95,97.0
1865,F#4,128.75,0.25,63,97.0
1866,E4,128.75,0.25,63,97.0
1867,C#4,128.75,0.25,63,97.0
1868,A3,128.75,0.25,63,97.0
1869,E4,129.0,1.0,95,97.0
1870,A1,129.0,0.5,79,97.0
1871,E4,129.0,1.0,47,97.0
1872,C#4,129.0,1.0,47,97.0
1873,A3,129.0,1.0,47,97.0
1874,F#4,129.0,0.5,43,97.0
1875,E4,129.0,0.5,43,97.0
1876,C#4,129.0,0.5,43,97.0
1877,A3,129.0,0.5,43,97.0
1878,A3,129.25,0.5,95,97.0
1879,B1,129.5,0.5,79,97.0
1880,F#4,129.5,0.5,55,97.0
1881,E4,129.5,0.5,55,97.0
1882,C#4,129.5,0.5,55,97.0
1883,A3,129.5,0.5,55,97.0
1884,A3,129.75,0.25,95,97.0
1885,A3,130.0,0.5,95,97.0
1886,F#4,130.0,3.0,95,97.0
1887,G1,130.0,0.75,95,97.0
1888,F#4,130.0,3.0,47,97.0
1889,D4,130.0,3.0,47,97.0
1890,B3,130.0,3.0,47,97.0
1891,G3,130.0,3.0,47,97.0
1892,D4,130.0,4.0,95,97.0
1893,B3,130.0,4.0,95,97.0
1894,F#4,130.0,0.25,47,97.0
1895,D4,130.0,0.25,47,97.0
1896,B3,130.0,0.25,47,97.0
1897,G3,130.0,0.25,47,97.0
1898,F#4,130.25,0.25,63,97.0
1899,D4,130.25,0.25,63,97.0
1900,B3,130.25,0.25,63,97.0
1901,G3,130.25,0.25,63,97.0
1902,F#4,130.5,0.25,31,97.0
1903,D4,130.5,0.25,31,97.0
1904,B3,130.5,0.25,31,97.0
1905,G3,130.5,0.25,31,97.0
1906,B1,130.75,1.0,79,97.0
1907,F#4,130.75,0.5,63,97.0
1908,D4,130.75,0.5,63,97.0
1909,B3,130.75,0.5,63,97.0
1910,G3,130.75,0.5,63,97.0
1911,F#3,131.0,0.25,95,97.0
1912,G3,131.25,0.25,95,97.0
1913,F#4,131.25,0.25,63,97.0
1914,D4,131.25,0.25,63,97.0
1915,B3,131.25,0.25,63,97.0
1916,G3,131.25,0.25,63,97.0
1917,G3,131.5,0.25,95,97.0
1918,F#4,131.5,0.25,31,97.0
1919,D4,131.5,0.25,31,97.0
1920,B3,131.5,0.25,31,97.0
1921,G3,131.5,0.25,31,97.0
1922,A3,131.75,0.5,95,97.0
1923,G1,131.75,0.125,95,97.0
1924,F#4,131.75,0.25,63,97.0
1925,D4,131.75,0.25,63,97.0
1926,B3,131.75,0.25,63,97.0
1927,G3,131.75,0.25,63,97.0
1928,G1,132.0,0.75,95,97.0
1929,F#4,132.0,0.25,47,97.0
1930,D4,132.0,0.25,47,97.0
1931,B3,132.0,0.25,47,97.0
1932,G3,132.0,0.25,47,97.0
1933,D4,132.25,0.5,95,97.0
1934,F#4,132.25,0.25,63,97.0
1935,D4,132.25,0.25,63,97.0
1936,B3,132.25,0.25,63,97.0
1937,G3,132.25,0.25,63,97.0
1938,F#4,132.5,0.25,31,97.0
1939,D4,132.5,0.25,31,97.0
1940,B3,132.5,0.25,31,97.0
1941,G3,132.5,0.25,31,97.0
1942,C#4,132.75,0.5,95,97.0
1943,A1,132.75,0.75,79,97.0
1944,F#4,132.75,0.25,63,97.0
1945,E4,132.75,0.25,63,97.0
1946,C#4,132.75,0.25,63,97.0
1947,A3,132.75,0.25,63,97.0
1948,E4,133.0,1.0,95,97.0
1949,E4,133.0,1.0,47,97.0
1950,C#4,133.0,1.0,47,97.0
1951,A3,133.0,1.0,47,97.0
1952,F#4,133.0,0.5,43,97.0
1953,E4,133.0,0.5,43,97.0
1954,C#4,133.0,0.5,43,97.0
1955,A3,133.0,0.5,43,97.0
1956,A3,133.25,0.5,95,97.0
1957,F#1,133.5,0.5,79,97.0
1958,F#4,133.5,0.5,55,97.0
1959,E4,133.5,0.5,55,97.0
1960,C#4,133.5,0.5,55,97.0
1961,A3,133.5,0.5,55,97.0
1962,A3,133.75,0.25,79,97.0
1963,A3,134.0,0.25,79,97.0
1964,F#4,134.0,3.0,95,97.0
1965,G1,134.0,0.75,95,97.0
1966,F#4,134.0,3.0,47,97.0
1967,D4,134.0,3.0,47,97.0
1968,B3,134.0,3.0,47,97.0
1969,G3,134.0,3.0,47,97.0
1970,D4,134.0,4.0,95,97.0
1971,B3,134.0,4.0,95,97.0
1972,F#4,134.0,0.25,47,97.0
1973,D4,134.0,0.25,47,97.0
1974,B3,134.0,0.25,47,97.0
1975,G3,134.0,0.25,47,97.0
1976,B3,134.25,2.0,63,97.0
1977,F#4,134.25,0.25,63,97.0
1978,D4,134.25,0.25,63,97.0
1979,B3,134.25,0.25,63,97.0
1980,G3,134.25,0.25,63,97.0
1981,F#4,134.5,0.25,31,97.0
1982,D4,134.5,0.25,31,97.0
1983,B3,134.5,0.25,31,97.0
1984,G3,134.5,0.25,31,97.0
1985,B1,134.75,1.0,79,97.0
1986,F#4,134.75,0.5,63,97.0
1987,D4,134.75,0.5,63,97.0
1988,B3,134.75,0.5,63,97.0
1989,G3,134.75,0.5,63,97.0
1990,F#4,135.25,0.25,63,97.0
1991,D4,135.25,0.25,63,97.0
1992,B3,135.25,0.25,63,97.0
1993,G3,135.25,0.25,63,97.0
1994,F#4,135.5,0.25,31,97.0
1995,D4,135.5,0.25,31,97.0
1996,B3,135.5,0.25,31,97.0
1997,G3,135.5,0.25,31,97.0
1998,G1,135.75,0.125,95,97.0
1999,F#4,135.75,0.25,63,97.0
2000,D4,135.75,0.25,63,97.0
2001,B3,135.75,0.25,63,97.0
2002,G3,135.75,0.25,63,97.0
2003,G1,136.0,0.75,95,97.0
2004,F#4,136.0,0.25,47,97.0
2005,D4,136.0,0.25,47,97.0
2006,B3,136.0,0.25,47,97.0
2007,G3,136.0,0.25,47,97.0
2008,F#4,136.25,0.25,63,97.0
2009,D4,136.25,0.25,63,97.0
2010,B3,136.25,0.25,63,97.0
2011,G3,136.25,0.25,63,97.0
2012,F#4,136.5,0.25,31,97.0
2013,D4,136.5,0.25,31,97.0
2014,B3,136.5,0.25,31,97.0
2015,G3,136.5,0.25,31,97.0
2016,A1,136.75,0.75,79,97.0
2017,F#4,136.75,0.25,63,97.0
2018,E4,136.75,0.25,63,97.0
2019,C#4,136.75,0.25,63,97.0
2020,A3,136.75,0.25,63,97.0
2021,E4,137.0,1.0,95,97.0
2022,E4,137.0,1.0,47,97.0
2023,C#4,137.0,1.0,47,97.0
2024,A3,137.0,1.0,47,97.0
2025,F#4,137.0,0.5,43,97.0
2026,E4,137.0,0.5,43,97.0
2027,C#4,137.0,0.5,43,97.0
2028,A3,137.0,0.5,43,97.0
2029,F#1,137.5,0.5,79,97.0
2030,F#4,137.5,0.5,55,97.0
2031,E4,137.5,0.5,55,97.0
2032,C#4,137.5,0.5,55,97.0
2033,A3,137.5,0.5,55,97.0
2034,F#4,138.0,3.0,95,97.0
2035,E1,138.0,0.75,95,97.0
2036,F#4,138.0,3.0,47,97.0
2037,D4,138.0,3.0,47,97.0
2038,B3,138.0,3.0,47,97.0
2039,G3,138.0,3.0,47,97.0
2040,D4,138.0,4.0,95,97.0
2041,B3,138.0,4.0,95,97.0
2042,F#4,138.0,0.25,47,97.0
2043,D4,138.0,0.25,47,97.0
2044,B3,138.0,0.25,47,97.0
2045,G3,138.0,0.25,47,97.0
2046,F#4,138.25,0.25,63,97.0
2047,D4,138.25,0.25,63,97.0
2048,B3,138.25,0.25,63,97.0
2049,G3,138.25,0.25,63,97.0
2050,F#4,138.5,0.25,31,97.0
2051,D4,138.5,0.25,31,97.0
2052,B3,138.5,0.25,31,97.0
2053,G3,138.5,0.25,31,97.0
2054,F3,138.75,0.25,63,97.0
2055,B1,138.75,1.0,79,97.0
2056,F#4,138.75,0.5,63,97.0
2057,D4,138.75,0.5,63,97.0
2058,B3,138.75,0.5,63,97.0
2059,G3,138.75,0.5,63,97.0
2060,B3,139.0,0.25,79,97.0
2061,D4,139.25,0.25,95,97.0
2062,F#4,139.25,0.25,63,97.0
2063,D4,139.25,0.25,63,97.0
2064,B3,139.25,0.25,63,97.0
2065,G3,139.25,0.25,63,97.0
2066,D4,139.5,0.25,95,97.0
2067,F#4,139.5,0.25,31,97.0
2068,D4,139.5,0.25,31,97.0
2069,B3,139.5,0.25,31,97.0
2070,G3,139.5,0.25,31,97.0
2071,B3,139.75,0.25,95,97.0
2072,E1,139.75,0.125,95,97.0
2073,F#4,139.75,0.25,63,97.0
2074,D4,139.75,0.25,63,97.0
2075,B3,139.75,0.25,63,97.0
2076,G3,139.75,0.25,63,97.0
2077,D4,140.0,0.25,95,97.0
2078,E1,140.0,0.75,95,97.0
2079,F#4,140.0,0.25,47,97.0
2080,D4,140.0,0.25,47,97.0
2081,B3,140.0,0.25,47,97.0
2082,G3,140.0,0.25,47,97.0
2083,F#4,140.25,0.25,95,97.0
2084,F#4,140.25,0.25,63,97.0
2085,D4,140.25,0.25,63,97.0
2086,B3,140.25,0.25,63,97.0
2087,G3,140.25,0.25,63,97.0
2088,A4,140.5,0.25,95,97.0
2089,F#4,140.5,0.25,31,97.0
2090,D4,140.5,0.25,31,97.0
2091,B3,140.5,0.25,31,97.0
2092,G3,140.5,0.25,31,97.0
2093,G4,140.75,0.5,95,97.0
2094,E1,140.75,0.125,95,97.0
2095,F#4,140.75,0.25,63,97.0
2096,E4,140.75,0.25,63,97.0
2097,C#4,140.75,0.25,63,97.0
2098,A3,140.75,0.25,63,97.0
2099,E4,141.0,1.0,95,97.0
2100,A1,141.0,0.5,79,97.0
2101,E4,141.0,1.0,47,97.0
2102,C#4,141.0,1.0,47,97.0
2103,A3,141.0,1.0,47,97.0
2104,F#4,141.0,0.5,43,97.0
2105,E4,141.0,0.5,43,97.0
2106,C#4,141.0,0.5,43,97.0
2107,A3,141.0,0.5,43,97.0
2108,B4,141.25,0.25,95,97.0
2109,D5,141.5,0.25,95,97.0
2110,B1,141.5,0.5,79,97.0
2111,F#4,141.5,0.5,55,97.0
2112,E4,141.5,0.5,55,97.0
2113,C#4,141.5,0.5,55,97.0
2114,A3,141.5,0.5,55,97.0
2115,B4,141.75,0.25,95,97.0
2116,B4,142.0,0.5,95,97.0
2117,F#4,142.0,3.0,95,97.0
2118,E1,142.0,0.75,95,97.0
2119,F#4,142.0,3.0,47,97.0
2120,D4,142.0,3.0,47,97.0
2121,B3,142.0,3.0,47,97.0
2122,G3,142.0,3.0,47,97.0
2123,D4,142.0,4.0,95,97.0
2124,B3,142.0,4.0,95,97.0
2125,F#4,142.0,0.25,47,97.0
2126,D4,142.0,0.25,47,97.0
2127,B3,142.0,0.25,47,97.0
2128,G3,142.0,0.25,47,97.0
2129,F#4,142.25,0.25,63,97.0
2130,D4,142.25,0.25,63,97.0
2131,B3,142.25,0.25,63,97.0
2132,G3,142.25,0.25,63,97.0
2133,F#4,142.5,0.25,31,97.0
2134,D4,142.5,0.25,31,97.0
2135,B3,142.5,0.25,31,97.0
2136,G3,142.5,0.25,31,97.0
2137,B1,142.75,1.0,79,97.0
2138,F#4,142.75,0.5,63,97.0
2139,D4,142.75,0.5,63,97.0
2140,B3,142.75,0.5,63,97.0
2141,G3,142.75,0.5,63,97.0
2142,A4,143.0,0.25,95,97.0
2143,C#5,143.25,0.25,95,97.0
2144,F#4,143.25,0.25,63,97.0
2145,D4,143.25,0.25,63,97.0
2146,B3,143.25,0.25,63,97.0
2147,G3,143.25,0.25,63,97.0
2148,D5,143.5,0.25,111,97.0
2149,F#4,143.5,0.25,31,97.0
2150,D4,143.5,0.25,31,97.0
2151,B3,143.5,0.25,31,97.0
2152,G3,143.5,0.25,31,97.0
2153,D5,143.75,0.5,127,97.0
2154,E1,143.75,0.125,95,97.0
2155,F#4,143.75,0.25,63,97.0
2156,D4,143.75,0.25,63,97.0
2157,B3,143.75,0.25,63,97.0
2158,G3,143.75,0.25,63,97.0
2159,E1,144.0,0.75,95,97.0
2160,F#4,144.0,0.25,47,97.0
2161,D4,144.0,0.25,47,97.0
2162,B3,144.0,0.25,47,97.0
2163,G3,144.0,0.25,47,97.0
2164,E5,144.25,0.5,111,97.0
2165,F#4,144.25,0.25,63,97.0
2166,D4,144.25,0.25,63,97.0
2167,B3,144.25,0.25,63,97.0
2168,G3,144.25,0.25,63,97.0
2169,F#4,144.5,0.25,31,97.0
2170,D4,144.5,0.25,31,97.0
2171,B3,144.5,0.25,31,97.0
2172,G3,144.5,0.25,31,97.0
2173,C#5,144.75,0.5,95,97.0
2174,E1,144.75,0.125,95,97.0
2175,F#4,144.75,0.25,63,97.0
2176,E4,144.75,0.25,63,97.0
2177,C#4,144.75,0.25,63,97.0
2178,A3,144.75,0.25,63,97.0
2179,E4,145.0,1.0,95,97.0
2180,A1,145.0,0.5,79,97.0
2181,E4,145.0,1.0,47,97.0
2182,C#4,145.0,1.0,47,97.0
2183,A3,145.0,1.0,47,97.0
2184,F#4,145.0,0.5,43,97.0
2185,E4,145.0,0.5,43,97.0
2186,C#4,145.0,0.5,43,97.0
2187,A3,145.0,0.5,43,97.0
2188,A4,145.25,0.5,79,97.0
2189,B1,145.5,0.5,79,97.0
2190,F#4,145.5,0.5,55,97.0
2191,E4,145.5,0.5,55,97.0
2192,C#4,145.5,0.5,55,97.0
2193,A3,145.5,0.5,55,97.0
2194,A4,145.75,0.25,63,97.0
2195,A4,146.0,0.5,63,97.0
2196,F#4,146.0,3.0,95,97.0
2197,G1,146.0,0.75,95,97.0
2198,F#4,146.0,3.0,47,97.0
2199,D4,146.0,3.0,47,97.0
2200,B3,146.0,3.0,47,97.0
2201,G3,146.0,3.0,47,97.0
2202,D4,146.0,4.0,95,97.0
2203,B3,146.0,4.0,95,97.0
2204,F#4,146.0,0.25,47,97.0
2205,D4,146.0,0.25,47,97.0
2206,B3,146.0,0.25,47,97.0
2207,G3,146.0,0.25,47,97.0
2208,F#4,146.25,0.25,63,97.0
2209,D4,146.25,0.25,63,97.0
2210,B3,146.25,0.25,63,97.0
2211,G3,146.25,0.25,63,97.0
2212,F#4,146.5,0.25,31,97.0
2213,D4,146.5,0.25,31,97.0
2214,B3,146.5,0.25,31,97.0
2215,G3,146.5,0.25,31,97.0
2216,B1,146.75,1.0,79,97.0
2217,F#4,146.75,0.5,63,97.0
2218,D4,146.75,0.5,63,97.0
2219,B3,146.75,0.5,63,97.0
2220,G3,146.75,0.5,63,97.0
2221,E4,147.0,0.25,95,97.0
2222,G4,147.25,0.25,95,97.0
2223,F#4,147.25,0.25,63,97.0
2224,D4,147.25,0.25,63,97.0
2225,B3,147.25,0.25,63,97.0
2226,G3,147.25,0.25,63,97.0
2227,A4,147.5,0.25,95,97.0
2228,F#4,147.5,0.25,31,97.0
2229,D4,147.5,0.25,31,97.0
2230,B3,147.5,0.25,31,97.0
2231,G3,147.5,0.25,31,97.0
2232,A4,147.75,0.5,95,97.0
2233,G1,147.75,0.125,95,97.0
2234,F#4,147.75,0.25,63,97.0
2235,D4,147.75,0.25,63,97.0
2236,B3,147.75,0.25,63,97.0
2237,G3,147.75,0.25,63,97.0
2238,G1,148.0,0.75,95,97.0
2239,F#4,148.0,0.25,47,97.0
2240,D4,148.0,0.25,47,97.0
2241,B3,148.0,0.25,47,97.0
2242,G3,148.0,0.25,47,97.0
2243,A4,148.25,0.5,95,97.0
2244,F#4,148.25,0.25,63,97.0
2245,D4,148.25,0.25,63,97.0
2246,B3,148.25,0.25,63,97.0
2247,G3,148.25,0.25,63,97.0
2248,F#4,148.5,0.25,31,97.0
2249,D4,148.5,0.25,31,97.0
2250,B3,148.5,0.25,31,97.0
2251,G3,148.5,0.25,31,97.0
2252,D4,148.75,0.5,95,97.0
2253,A1,148.75,0.75,79,97.0
2254,F#4,148.75,0.25,63,97.0
2255,E4,148.75,0.25,63,97.0
2256,C#4,148.75,0.25,63,97.0
2257,A3,148.75,0.25,63,97.0
2258,E4,149.0,1.0,95,97.0
2259,E4,149.0,1.0,47,97.0
2260,C#4,149.0,1.0,47,97.0
2261,A3,149.0,1.0,47,97.0
2262,F#4,149.0,0.5,43,97.0
2263,E4,149.0,0.5,43,97.0
2264,C#4,149.0,0.5,43,97.0
2265,A3,149.0,0.5,43,97.0
2266,E4,149.25,0.5,95,97.0
2267,F#1,149.5,0.5,79,97.0
2268,F#4,149.5,0.5,55,97.0
2269,E4,149.5,0.5,55,97.0
2270,C#4,149.5,0.5,55,97.0
2271,A3,149.5,0.5,55,97.0
2272,F#4,149.75,0.125,63,97.0
2273,G4,149.875,0.125,47,97.0
2274,G4,150.0,0.25,47,97.0
2275,F#4,150.0,3.0,95,97.0
2276,G1,150.0,0.75,95,97.0
2277,F#4,150.0,3.0,47,97.0
2278,D4,150.0,3.0,47,97.0
2279,B3,150.0,3.0,47,97.0
2280,G3,150.0,3.0,47,97.0
2281,D4,150.0,4.0,95,97.0
2282,B3,150.0,4.0,95,97.0
2283,F#4,150.0,0.25,47,97.0
2284,D4,150.0,0.25,47,97.0
2285,B3,150.0,0.25,47,97.0
2286,G3,150.0,0.25,47,97.0
2287,E4,150.25,0.25,95,97.0
2288,F#4,150.25,0.25,63,97.0
2289,D4,150.25,0.25,63,97.0
2290,B3,150.25,0.25,63,97.0
2291,G3,150.25,0.25,63,97.0
2292,F#4,150.5,2.0,95,97.0
2293,F#4,150.5,0.25,31,97.0
2294,D4,150.5,0.25,31,97.0
2295,B3,150.5,0.25,31,97.0
2296,G3,150.5,0.25,31,97.0
2297,B1,150.75,1.0,79,97.0
2298,F#4,150.75,0.5,63,97.0
2299,D4,150.75,0.5,63,97.0
2300,B3,150.75,0.5,63,97.0
2301,G3,150.75,0.5,63,97.0
2302,F#4,151.25,0.25,63,97.0
2303,D4,151.25,0.25,63,97.0
2304,B3,151.25,0.25,63,97.0
2305,G3,151.25,0.25,63,97.0
2306,F#4,151.5,0.25,31,97.0
2307,D4,151.5,0.25,31,97.0
2308,B3,151.5,0.25,31,97.0
2309,G3,151.5,0.25,31,97.0
2310,G1,151.75,0.125,95,97.0
2311,F#4,151.75,0.25,63,97.0
2312,D4,151.75,0.25,63,97.0
2313,B3,151.75,0.25,63,97.0
2314,G3,151.75,0.25,63,97.0
2315,G1,152.0,0.75,95,97.0
2316,F#4,152.0,0.25,47,97.0
2317,D4,152.0,0.25,47,97.0
2318,B3,152.0,0.25,47,97.0
2319,G3,152.0,0.25,47,97.0
2320,F#4,152.25,0.25,63,97.0
2321,D4,152.25,0.25,63,97.0
2322,B3,152.25,0.25,63,97.0
2323,G3,152.25,0.25,63,97.0
2324,F#4,152.5,0.25,31,97.0
2325,D4,152.5,0.25,31,97.0
2326,B3,152.5,0.25,31,97.0
2327,G3,152.5,0.25,31,97.0
2328,A1,152.75,0.75,79,97.0
2329,F#4,152.75,0.25,63,97.0
2330,E4,152.75,0.25,63,97.0
2331,C#4,152.75,0.25,63,97.0
2332,A3,152.75,0.25,63,97.0
2333,E4,153.0,1.0,95,97.0
2334,E4,153.0,1.0,47,97.0
2335,C#4,153.0,1.0,47,97.0
2336,A3,153.0,1.0,47,97.0
2337,F#4,153.0,0.5,43,97.0
2338,E4,153.0,0.5,43,97.0
2339,C#4,153.0,0.5,43,97.0
2340,A3,153.0,0.5,43,97.0
2341,F#1,153.5,0.5,79,97.0
2342,F#4,153.5,0.5,55,97.0
2343,E4,153.5,0.5,55,97.0
2344,C#4,153.5,0.5,55,97.0
2345,A3,153.5,0.5,55,97.0
2346,F#4,154.0,3.0,95,97.0
2347,C2,154.0,0.75,95,97.0
2348,E4,154.0,2.0,47,97.0
2349,C4,154.0,2.0,47,97.0
2350,G3,154.0,2.0,47,97.0
2351,D4,154.0,4.0,95,97.0
2352,B3,154.0,4.0,95,97.0
2353,G4,154.0,0.25,47,97.0
2354,D4,154.0,0.25,47,97.0
2355,C4,154.0,0.25,47,97.0
2356,G3,154.0,0.25,47,97.0
2357,G4,154.25,0.25,63,97.0
2358,D4,154.25,0.25,63,97.0
2359,C4,154.25,0.25,63,97.0
2360,G3,154.25,0.25,63,97.0
2361,G4,154.5,0.25,31,97.0
2362,D4,154.5,0.25,31,97.0
2363,C4,154.5,0.25,31,97.0
2364,G3,154.5,0.25,31,97.0
2365,G1,154.75,1.0,95,97.0
2366,G4,154.75,0.5,63,97.0
2367,D4,154.75,0.5,63,97.0
2368,C4,154.75,0.5,63,97.0
2369,G3,154.75,0.5,63,97.0
2370,D4,155.0,0.25,95,97.0
2371,G4,155.25,0.25,95,97.0
2372,G4,155.25,0.25,63,97.0
2373,D4,155.25,0.25,63,97.0
2374,C4,155.25,0.25,63,97.0
2375,G3,155.25,0.25,63,97.0
2376,G4,155.5,0.25,95,97.0
2377,G4,155.5,0.25,31,97.0
2378,D4,155.5,0.25,31,97.0
2379,C4,155.5,0.25,31,97.0
2380,G3,155.5,0.25,31,97.0
2381,E4,155.75,0.25,95,97.0
2382,C2,155.75,0.125,95,97.0
2383,G4,155.75,0.25,63,97.0
2384,D4,155.75,0.25,63,97.0
2385,C4,155.75,0.25,63,97.0
2386,G3,155.75,0.25,63,97.0
2387,G4,156.0,0.75,95,97.0
2388,C2,156.0,0.75,95,97.0
2389,F#4,156.0,2.0,47,97.0
2390,D4,156.0,2.0,47,97.0
2391,A3,156.0,2.0,47,97.0
2392,A4,156.0,0.25,47,97.0
2393,D4,156.0,0.25,47,97.0
2394,A3,156.0,0.25,47,97.0
2395,F#3,156.0,0.25,47,97.0
2396,A4,156.25,0.25,63,97.0
2397,D4,156.25,0.25,63,97.0
2398,A3,156.25,0.25,63,97.0
2399,F#3,156.25,0.25,63,97.0
2400,A4,156.5,0.25,31,97.0
2401,D4,156.5,0.25,31,97.0
2402,A3,156.5,0.25,31,97.0
2403,F#3,156.5,0.25,31,97.0
2404,F#4,156.75,0.5,95,97.0
2405,F#1,156.75,0.75,95,97.0
2406,F#4,156.75,0.25,63,97.0
2407,D4,156.75,0.25,63,97.0
2408,A3,156.75,0.25,63,97.0
2409,F#3,156.75,0.25,63,97.0
2410,E4,157.0,1.0,95,97.0
2411,F#4,157.0,0.5,47,97.0
2412,D4,157.0,0.5,47,97.0
2413,A3,157.0,0.5,47,97.0
2414,F#3,157.0,0.5,47,97.0
2415,D4,157.25,0.5,95,97.0
2416,F#1,157.5,0.5,79,97.0
2417,E4,157.5,0.5,47,97.0
2418,D4,157.5,0.5,47,97.0
2419,A3,157.5,0.5,47,97.0
2420,F#3,157.5,0.5,47,97.0
2421,E4,157.75,0.25,95,97.0
2422,E4,158.0,1.0,95,97.0
2423,E4,158.0,0.25,47,97.0
2424,G4,158.0,0.5,79,97.0
2425,C2,158.0,0.75,95,97.0
2426,G4,158.0,2.0,47,97.0
2427,E4,158.0,2.0,47,97.0
2428,C4,158.0,2.0,47,97.0
2429,E4,158.0,2.0,95,97.0
2430,C4,158.0,2.0,95,97.0
2431,G3,158.0,2.0,95,97.0
2432,G4,158.0,0.25,47,97.0
2433,D4,158.0,0.25,47,97.0
2434,C4,158.0,0.25,47,97.0
2435,G3,158.0,0.25,47,97.0
2436,G4,158.25,3.75,47,97.0
2437,G4,158.25,0.25,63,97.0
2438,D4,158.25,0.25,63,97.0
2439,C4,158.25,0.25,63,97.0
2440,G3,158.25,0.25,63,97.0
2441,D5,158.5,1.5,47,97.0
2442,G4,158.5,0.25,31,97.0
2443,D4,158.5,0.25,31,97.0
2444,C4,158.5,0.25,31,97.0
2445,G3,158.5,0.25,31,97.0
2446,G1,158.75,1.0,95,97.0
2447,G4,158.75,0.5,63,97.0
2448,D4,158.75,0.5,63,97.0
2449,C4,158.75,0.5,63,97.0
2450,G3,158.75,0.5,63,97.0
2451,G4,159.0,0.5,95,97.0
2452,G4,159.25,0.25,63,97.0
2453,D4,159.25,0.25,63,97.0
2454,C4,159.25,0.25,63,97.0
2455,G3,159.25,0.25,63,97.0
2456,B4,159.5,0.25,95,97.0
2457,G4,159.5,0.25,31,97.0
2458,D4,159.5,0.25,31,97.0
2459,C4,159.5,0.25,31,97.0
2460,G3,159.5,0.25,31,97.0
2461,G4,159.75,0.25,95,97.0
2462,C2,159.75,0.125,95,97.0
2463,G4,159.75,0.25,63,97.0
2464,D4,159.75,0.25,63,97.0
2465,C4,159.75,0.25,63,97.0
2466,G3,159.75,0.25,63,97.0
2467,A4,160.0,0.75,95,97.0
2468,E5,160.0,0.25,47,97.0
2469,B1,160.0,0.75,95,97.0
2470,F#4,160.0,2.0,47,97.0
2471,D4,160.0,2.0,47,97.0
2472,A3,160.0,2.0,47,97.0
2473,F#4,160.0,2.0,95,97.0
2474,D4,160.0,2.0,95,97.0
2475,A3,160.0,2.0,95,97.0
2476,A4,160.0,0.25,47,97.0
2477,D4,160.0,0.25,47,97.0
2478,A3,160.0,0.25,47,97.0
2479,F#3,160.0,0.25,47,97.0
2480,G5,160.25,0.25,47,97.0
2481,A4,160.25,0.25,63,97.0
2482,D4,160.25,0.25,63,97.0
2483,A3,160.25,0.25,63,97.0
2484,F#3,160.25,0.25,63,97.0
2485,F#5,160.5,0.25,47,97.0
2486,A4,160.5,0.25,31,97.0
2487,D4,160.5,0.25,31,97.0
2488,A3,160.5,0.25,31,97.0
2489,F#3,160.5,0.25,31,97.0
2490,C5,160.75,0.5,79,97.0
2491,D5,160.75,1.25,47,97.0
2492,B1,160.75,0.75,95,97.0
2493,F#4,160.75,0.25,63,97.0
2494,D4,160.75,0.25,63,97.0
2495,A3,160.75,0.25,63,97.0
2496,F#3,160.75,0.25,63,97.0
2497,F#4,161.0,0.5,47,97.0
2498,D4,161.0,0.5,47,97.0
2499,A3,161.0,0.5,47,97.0
2500,F#3,161.0,0.5,47,97.0
2501,F#4,161.25,0.25,63,97.0
2502,F#1,161.5,0.5,79,97.0
2503,E4,161.5,0.5,47,97.0
2504,D4,161.5,0.5,47,97.0
2505,A3,161.5,0.5,47,97.0
2506,F#3,161.5,0.5,47,97.0
2507,E4,161.75,0.25,47,97.0
2508,E4,162.0,0.5,47,97.0
2509,E4,162.0,2.0,47,97.0
2510,C2,162.0,0.75,95,97.0
2511,E4,162.0,2.0,47,97.0
2512,C4,162.0,2.0,47,97.0
2513,G3,162.0,2.0,47,97.0
2514,E4,162.0,2.0,95,97.0
2515,C4,162.0,2.0,95,97.0
2516,G3,162.0,2.0,95,97.0
2517,G4,162.0,0.25,47,97.0
2518,D4,162.0,0.25,47,97.0
2519,C4,162.0,0.25,47,97.0
2520,G3,162.0,0.25,47,97.0
2521,G4,162.25,0.25,63,97.0
2522,D4,162.25,0.25,63,97.0
2523,C4,162.25,0.25,63,97.0
2524,G3,162.25,0.25,63,97.0
2525,G4,162.5,0.25,31,97.0
2526,D4,162.5,0.25,31,97.0
2527,C4,162.5,0.25,31,97.0
2528,G3,162.5,0.25,31,97.0
2529,G1,162.75,1.0,95,97.0
2530,G4,162.75,0.5,63,97.0
2531,D4,162.75,0.5,63,97.0
2532,C4,162.75,0.5,63,97.0
2533,G3,162.75,0.5,63,97.0
2534,D4,163.0,0.25,95,97.0
2535,F#4,163.25,0.25,95,97.0
2536,G4,163.25,0.25,63,97.0
2537,D4,163.25,0.25,63,97.0
2538,C4,163.25,0.25,63,97.0
2539,G3,163.25,0.25,63,97.0
2540,G4,163.5,0.25,95,97.0
2541,G4,163.5,0.25,31,97.0
2542,D4,163.5,0.25,31,97.0
2543,C4,163.5,0.25,31,97.0
2544,G3,163.5,0.25,31,97.0
2545,E4,163.75,0.25,95,97.0
2546,C2,163.75,0.125,95,97.0
2547,G4,163.75,0.25,63,97.0
2548,D4,163.75,0.25,63,97.0
2549,C4,163.75,0.25,63,97.0
2550,G3,163.75,0.25,63,97.0
2551,G4,164.0,0.75,95,97.0
2552,F#4,164.0,2.0,47,97.0
2553,B1,164.0,0.75,95,97.0
2554,F#4,164.0,2.0,47,97.0
2555,D4,164.0,2.0,47,97.0
2556,A3,164.0,2.0,47,97.0
2557,F#4,164.0,2.0,95,97.0
2558,D4,164.0,2.0,95,97.0
2559,A3,164.0,2.0,95,97.0
2560,A4,164.0,0.25,47,97.0
2561,D4,164.0,0.25,47,97.0
2562,A3,164.0,0.25,47,97.0
2563,F#3,164.0,0.25,47,97.0
2564,A4,164.25,0.25,63,97.0
2565,D4,164.25,0.25,63,97.0
2566,A3,164.25,0.25,63,97.0
2567,F#3,164.25,0.25,63,97.0
2568,A4,164.5,0.25,31,97.0
2569,D4,164.5,0.25,31,97.0
2570,A3,164.5,0.25,31,97.0
2571,F#3,164.5,0.25,31,97.0
2572,F#4,164.75,0.5,95,97.0
2573,B1,164.75,0.75,95,97.0
2574,F#4,164.75,0.25,63,97.0
2575,D4,164.75,0.25,63,97.0
2576,A3,164.75,0.25,63,97.0
2577,F#3,164.75,0.25,63,97.0
2578,F#4,165.0,0.5,47,97.0
2579,D4,165.0,0.5,47,97.0
2580,A3,165.0,0.5,47,97.0
2581,F#3,165.0,0.5,47,97.0
2582,D4,165.25,0.5,95,97.0
2583,F#1,165.5,0.5,79,97.0
2584,E4,165.5,0.5,47,97.0
2585,D4,165.5,0.5,47,97.0
2586,A3,165.5,0.5,47,97.0
2587,F#3,165.5,0.5,47,97.0
2588,D4,165.75,0.25,95,97.0
2589,D4,166.0,3.0,95,97.0
2590,F#4,166.0,0.25,47,97.0
2591,E1,166.0,0.75,95,97.0
2592,F#4,166.0,4.0,47,97.0
2593,D4,166.0,4.0,47,97.0
2594,A3,166.0,4.0,47,97.0
2595,E4,166.0,2.0,95,97.0
2596,C4,166.0,2.0,95,97.0
2597,G3,166.0,2.0,95,97.0
2598,F#4,166.0,0.25,47,97.0
2599,D4,166.0,0.25,47,97.0
2600,B3,166.0,0.25,47,97.0
2601,G3,166.0,0.25,47,97.0
2602,G4,166.25,1.75,47,97.0
2603,F#4,166.25,0.25,63,97.0
2604,D4,166.25,0.25,63,97.0
2605,B3,166.25,0.25,63,97.0
2606,G3,166.25,0.25,63,97.0
2607,D5,166.5,0.25,47,97.0
2608,F#4,166.5,0.25,31,97.0
2609,D4,166.5,0.25,31,97.0
2610,B3,166.5,0.25,31,97.0
2611,G3,166.5,0.25,31,97.0
2612,D5,166.75,1.25,47,97.0
2613,B1,166.75,1.0,79,97.0
2614,F#4,166.75,0.5,63,97.0
2615,D4,166.75,0.5,63,97.0
2616,B3,166.75,0.5,63,97.0
2617,G3,166.75,0.5,63,97.0
2618,F#4,167.25,0.25,63,97.0
2619,D4,167.25,0.25,63,97.0
2620,B3,167.25,0.25,63,97.0
2621,G3,167.25,0.25,63,97.0
2622,F#4,167.5,0.25,31,97.0
2623,D4,167.5,0.25,31,97.0
2624,B3,167.5,0.25,31,97.0
2625,G3,167.5,0.25,31,97.0
2626,E1,167.75,0.125,95,97.0
2627,F#4,167.75,0.25,63,97.0
2628,D4,167.75,0.25,63,97.0
2629,B3,167.75,0.25,63,97.0
2630,G3,167.75,0.25,63,97.0
2631,E1,168.0,0.75,95,97.0
2632,F#6,168.0,2.0,47,97.0
2633,F#5,168.0,2.0,47,97.0
2634,F#4,168.0,2.0,95,97.0
2635,D4,168.0,2.0,95,97.0
2636,A3,168.0,2.0,95,97.0
2637,F#4,168.0,0.25,47,97.0
2638,D4,168.0,0.25,47,97.0
2639,B3,168.0,0.25,47,97.0
2640,G3,168.0,0.25,47,97.0
2641,F#4,168.25,0.25,63,97.0
2642,D4,168.25,0.25,63,97.0
2643,B3,168.25,0.25,63,97.0
2644,G3,168.25,0.25,63,97.0
2645,F#4,168.5,0.25,31,97.0
2646,D4,168.5,0.25,31,97.0
2647,B3,168.5,0.25,31,97.0
2648,G3,168.5,0.25,31,97.0
2649,E1,168.75,0.125,95,97.0
2650,F#4,168.75,0.25,63,97.0
2651,E4,168.75,0.25,63,97.0
2652,C#4,168.75,0.25,63,97.0
2653,A3,168.75,0.25,63,97.0
2654,A3,169.0,0.25,95,97.0
2655,A1,169.0,0.5,79,97.0
2656,F#4,169.0,0.5,43,97.0
2657,E4,169.0,0.5,43,97.0
2658,C#4,169.0,0.5,43,97.0
2659,A3,169.0,0.5,43,97.0
2660,D4,169.25,0.25,95,97.0
2661,E4,169.5,0.25,95,97.0
2662,B1,169.5,0.5,79,97.0
2663,F#4,169.5,0.5,55,97.0
2664,E4,169.5,0.5,55,97.0
2665,C#4,169.5,0.5,55,97.0
2666,A3,169.5,0.5,55,97.0
2667,D4,169.75,0.25,95,97.0
2668,E4,170.0,0.25,95,97.0
2669,F#4,170.0,3.0,95,97.0
2670,E1,170.0,0.75,95,97.0
2671,F#4,170.0,2.0,47,97.0
2672,D4,170.0,2.0,47,97.0
2673,A3,170.0,2.0,47,97.0
2674,D6,170.0,4.0,63,97.0
2675,D5,170.0,4.0,63,97.0
2676,D4,170.0,4.0,95,97.0
2677,B3,170.0,4.0,95,97.0
2678,F#4,170.0,0.25,47,97.0
2679,D4,170.0,0.25,47,97.0
2680,B3,170.0,0.25,47,97.0
2681,G3,170.0,0.25,47,97.0
2682,F#4,170.25,0.25,63,97.0
2683,F#4,170.25,0.25,63,97.0
2684,D4,170.25,0.25,63,97.0
2685,B3,170.25,0.25,63,97.0
2686,G3,170.25,0.25,63,97.0
2687,F#4,170.5,0.25,47,97.0
2688,F#4,170.5,0.25,31,97.0
2689,D4,170.5,0.25,31,97.0
2690,B3,170.5,0.25,31,97.0
2691,G3,170.5,0.25,31,97.0
2692,A4,170.75,0.25,95,97.0
2693,F#1,170.75,1.0,95,97.0
2694,F#4,170.75,0.5,63,97.0
2695,D4,170.75,0.5,63,97.0
2696,B3,170.75,0.5,63,97.0
2697,G3,170.75,0.5,63,97.0
2698,F#4,171.25,0.25,95,97.0
2699,F#4,171.25,0.25,63,97.0
2700,D4,171.25,0.25,63,97.0
2701,B3,171.25,0.25,63,97.0
2702,G3,171.25,0.25,63,97.0
2703,F#4,171.5,0.25,31,97.0
2704,D4,171.5,0.25,31,97.0
2705,B3,171.5,0.25,31,97.0
2706,G3,171.5,0.25,31,97.0
2707,E4,171.75,1.75,95,97.0
2708,B1,171.75,0.125,95,97.0
2709,F#4,171.75,0.25,63,97.0
2710,E4,171.75,0.25,63,97.0
2711,C#4,171.75,0.25,63,97.0
2712,A3,171.75,0.25,63,97.0
2713,B1,172.0,0.75,95,97.0
2714,E4,172.0,2.0,59,97.0
2715,C#4,172.0,2.0,59,97.0
2716,B3,172.0,2.0,59,97.0
2717,F#3,172.0,2.0,59,97.0
2718,F#4,172.0,0.25,47,97.0
2719,E4,172.0,0.25,47,97.0
2720,C#4,172.0,0.25,47,97.0
2721,A3,172.0,0.25,47,97.0
2722,F#4,172.25,0.25,63,97.0
2723,E4,172.25,0.25,63,97.0
2724,C#4,172.25,0.25,63,97.0
2725,A3,172.25,0.25,63,97.0
2726,F#4,172.5,0.25,31,97.0
2727,E4,172.5,0.25,31,97.0
2728,C#4,172.5,0.25,31,97.0
2729,A3,172.5,0.25,31,97.0
2730,F#1,172.75,0.75,95,97.0
2731,F#4,172.75,0.25,63,97.0
2732,E4,172.75,0.25,63,97.0
2733,C#4,172.75,0.25,63,97.0
2734,A3,172.75,0.25,63,97.0
2735,E4,173.0,1.0,95,97.0
2736,F#4,173.0,0.5,43,97.0
2737,E4,173.0,0.5,43,97.0
2738,C#4,173.0,0.5,43,97.0
2739,A3,173.0,0.5,43,97.0
2740,D4,173.5,0.5,95,97.0
2741,F#1,173.5,0.5,95,97.0
2742,F#4,173.5,0.5,55,97.0
2743,E4,173.5,0.5,55,97.0
2744,C#4,173.5,0.5,55,97.0
2745,A3,173.5,0.5,55,97.0
2746,C#4,174.0,0.75,79,97.0
2747,F#4,174.0,3.0,95,97.0
2748,B1,174.0,0.75,95,97.0
2749,E4,174.0,2.0,63,97.0
2750,C#4,174.0,2.0,63,97.0
2751,A3,174.0,2.0,63,97.0
2752,D4,174.0,4.0,95,97.0
2753,B3,174.0,4.0,95,97.0
2754,E4,174.0,0.25,47,97.0
2755,C#4,174.0,0.25,47,97.0
2756,A3,174.0,0.25,47,97.0
2757,E4,174.25,0.25,63,97.0
2758,C#4,174.25,0.25,63,97.0
2759,A3,174.25,0.25,63,97.0
2760,E4,174.5,0.25,31,97.0
2761,C#4,174.5,0.25,31,97.0
2762,A3,174.5,0.25,31,97.0
2763,B3,174.75,0.5,63,97.0
2764,F#1,174.75,0.25,95,97.0
2765,E4,174.75,0.5,63,97.0
2766,C#4,174.75,0.5,63,97.0
2767,A3,174.75,0.5,63,97.0
2768,A3,175.25,0.25,47,97.0
2769,A1,175.25,0.25,95,97.0
2770,E4,175.25,0.25,63,97.0
2771,C#4,175.25,0.25,63,97.0
2772,A3,175.25,0.25,63,97.0
2773,E4,175.5,0.25,31,97.0
2774,C#4,175.5,0.25,31,97.0
2775,A3,175.5,0.25,31,97.0
2776,A3,175.75,0.25,47,97.0
2777,A1,175.75,0.25,95,97.0
2778,E4,175.75,0.25,63,97.0
2779,C#4,175.75,0.25,63,97.0
2780,A3,175.75,0.25,63,97.0
2781,D4,176.0,1.0,95,97.0
2782,D2,176.0,0.75,95,97.0
2783,F#4,176.0,1.0,79,97.0
2784,D4,176.0,1.0,79,97.0
2785,A3,176.0,1.0,79,97.0
2786,D5,176.0,1.0,63,97.0
2787,D4,176.0,1.0,63,97.0
2788,F#4,176.0,1.0,95,97.0
2789,D4,176.0,1.0,95,97.0
2790,A3,176.0,1.0,95,97.0
2791,G1,176.75,0.25,95,97.0
2792,B3,177.0,1.0,95,97.0
2793,E4,177.0,1.0,95,97.0
2794,G1,177.0,1.0,95,97.0
2795,D4,177.0,1.0,95,97.0
2796,B3,177.0,1.0,95,97.0
2797,G3,177.0,1.0,95,97.0
2798,B4,177.0,1.0,63,97.0
2799,B3,177.0,1.0,63,97.0
2800,G4,177.0,1.0,95,97.0
2801,D4,177.0,1.0,95,97.0
2802,B3,177.0,1.0,95,97.0
2803,B-4,178.0,0.75,95,97.0
2804,A4,178.0,2.0,47,97.0
2805,C2,178.0,1.25,95,97.0
2806,E4,178.0,1.25,63,97.0
2807,D4,178.0,1.25,63,97.0
2808,C4,178.0,1.25,63,97.0
2809,G3,178.0,1.25,63,97.0
2810,F#4,178.0,2.0,95,97.0
2811,E4,178.0,2.0,95,97.0
2812,C#4,178.0,2.0,95,97.0
2813,C4,178.0,1.75,79,97.0
2814,G3,178.0,1.75,79,97.0
2815,C3,178.0,1.75,79,97.0
2816,A4,178.75,0.5,95,97.0
2817,G4,179.25,0.5,95,97.0
2818,C2,179.25,0.25,95,97.0
2819,E4,179.25,0.125,63,97.0
2820,D4,179.25,0.125,63,97.0
2821,C4,179.25,0.125,63,97.0
2822,G3,179.25,0.125,63,97.0
2823,G4,179.75,0.75,95,97.0
2824,E1,179.75,0.25,95,97.0
2825,G4,179.75,2.25,63,97.0
2826,E4,179.75,2.25,63,97.0
2827,D4,179.75,2.25,63,97.0
2828,B3,179.75,2.25,63,97.0
2829,G3,179.75,1.25,63,97.0
2830,E3,179.75,1.25,63,97.0
2831,F#4,180.0,1.0,63,97.0
2832,E1,180.0,1.0,95,97.0
2833,F#4,180.0,1.0,95,97.0
2834,D4,180.0,1.0,95,97.0
2835,A3,180.0,1.0,95,97.0
2836,F#4,180.5,0.25,95,97.0
2837,E4,180.75,0.25,95,97.0
2838,D4,181.0,1.0,95,97.0
2839,G4,181.0,1.0,63,97.0
2840,A1,181.0,1.0,95,97.0
2841,G4,181.0,1.0,95,97.0
2842,D4,181.0,1.0,95,97.0
2843,B3,181.0,1.0,95,97.0
2844,D4,181.0,1.0,63,97.0
2845,A3,181.0,1.0,63,97.0
2846,D3,181.0,1.0,63,97.0
2847,C6,182.0,0.75,63,97.0
2848,C2,182.0,1.25,95,97.0
2849,E4,182.0,1.25,63,97.0
2850,D4,182.0,1.25,63,97.0
2851,C4,182.0,1.25,63,97.0
2852,G3,182.0,1.25,63,97.0
2853,E4,182.0,1.75,95,97.0
2854,C4,182.0,1.75,95,97.0
2855,G3,182.0,1.75,95,97.0
2856,C4,182.0,1.75,79,97.0
2857,G3,182.0,1.75,79,97.0
2858,C3,182.0,1.75,79,97.0
2859,D4,182.5,0.25,95,97.0
2860,G4,182.75,0.5,95,97.0
2861,B5,182.75,0.5,63,97.0
2862,D5,183.25,0.5,95,97.0
2863,G5,183.25,0.5,63,97.0
2864,C2,183.25,0.25,95,97.0
2865,E4,183.25,0.125,63,97.0
2866,D4,183.25,0.125,63,97.0
2867,C4,183.25,0.125,63,97.0
2868,G3,183.25,0.125,63,97.0
2869,C5,183.75,1.25,95,97.0
2870,G5,183.75,0.75,63,97.0
2871,E1,183.75,0.25,95,97.0
2872,G4,183.75,2.25,63,97.0
2873,E4,183.75,2.25,63,97.0
2874,D4,183.75,2.25,63,97.0
2875,B3,183.75,2.25,63,97.0
2876,E4,183.75,2.25,95,97.0
2877,B3,183.75,2.25,95,97.0
2878,G3,183.75,2.25,95,97.0
2879,G3,183.75,1.25,63,97.0
2880,E3,183.75,1.25,63,97.0
2881,E1,184.0,1.0,95,97.0
2882,F#5,184.5,0.25,63,97.0
2883,E5,184.75,0.25,63,97.0
2884,A4,185.0,0.5,95,97.0
2885,D5,185.0,1.0,63,97.0
2886,A1,185.0,1.0,95,97.0
2887,D4,185.0,1.0,63,97.0
2888,A3,185.0,1.0,63,97.0
2889,D3,185.0,1.0,63,97.0
2890,F4,185.5,0.25,95,97.0
2891,F#4,185.75,0.25,95,97.0
2892,E4,186.0,0.75,95,97.0
2893,C2,186.0,0.75,95,97.0
2894,E4,186.0,1.25,63,97.0
2895,D4,186.0,1.25,63,97.0
2896,C4,186.0,1.25,63,97.0
2897,G3,186.0,1.25,63,97.0
2898,G4,186.0,2.0,63,97.0
2899,E4,186.0,2.0,63,97.0
2900,D4,186.0,2.0,63,97.0
2901,C4,186.0,2.0,63,97.0
2902,E4,186.0,1.75,95,97.0
2903,C4,186.0,1.75,95,97.0
2904,G3,186.0,1.75,95,97.0
2905,C4,186.0,1.75,63,97.0
2906,G3,186.0,1.75,63,97.0
2907,C3,186.0,1.75,63,97.0
2908,E4,186.75,0.5,95,97.0
2909,G1,186.75,0.25,63,97.0
2910,A1,187.0,0.25,95,97.0
2911,G4,187.25,0.5,95,97.0
2912,B1,187.25,0.25,79,97.0
2913,E4,187.25,0.125,63,97.0
2914,D4,187.25,0.125,63,97.0
2915,C4,187.25,0.125,63,97.0
2916,G3,187.25,0.125,63,97.0
2917,A1,187.5,0.25,63,97.0
2918,D4,187.75,1.5,95,97.0
2919,G1,187.75,0.25,95,97.0
2920,D4,187.75,2.25,63,97.0
2921,B3,187.75,2.25,63,97.0
2922,A3,187.75,2.25,63,97.0
2923,G3,187.75,2.25,63,97.0
2924,E4,187.75,2.25,95,97.0
2925,B3,187.75,2.25,95,97.0
2926,G3,187.75,2.25,95,97.0
2927,G3,187.75,2.25,63,97.0
2928,D3,187.75,2.25,63,97.0
2929,G2,187.75,2.25,63,97.0
2930,G1,188.0,0.75,95,97.0
2931,D4,188.75,0.25,79,97.0
2932,G1,188.75,0.25,95,97.0
2933,D4,189.0,0.5,79,97.0
2934,A1,189.0,0.5,95,97.0
2935,B1,189.5,0.5,95,97.0
2936,C2,190.0,0.75,95,97.0
2937,E4,190.0,1.25,63,97.0
2938,D4,190.0,1.25,63,97.0
2939,C4,190.0,1.25,63,97.0
2940,G3,190.0,1.25,63,97.0
2941,G4,190.0,2.0,63,97.0
2942,E4,190.0,2.0,63,97.0
2943,D4,190.0,2.0,63,97.0
2944,C4,190.0,2.0,63,97.0
2945,E4,190.0,1.75,95,97.0
2946,C4,190.0,1.75,95,97.0
2947,G3,190.0,1.75,95,97.0
2948,C4,190.0,1.75,63,97.0
2949,G3,190.0,1.75,63,97.0
2950,C3,190.0,1.75,63,97.0
2951,G4,190.75,0.5,95,97.0
2952,G1,190.75,0.25,63,97.0
2953,A1,191.0,0.25,95,97.0
2954,A4,191.25,0.25,95,97.0
2955,B1,191.25,0.25,79,97.0
2956,E4,191.25,0.125,63,97.0
2957,D4,191.25,0.125,63,97.0
2958,C4,191.25,0.125,63,97.0
2959,G3,191.25,0.125,63,97.0
2960,G4,191.5,0.25,47,97.0
2961,A1,191.5,0.25,63,97.0
2962,A4,191.75,1.5,95,97.0
2963,G1,191.75,0.25,95,97.0
2964,F#4,191.75,2.25,63,97.0
2965,E4,191.75,2.25,63,97.0
2966,D4,191.75,2.25,63,97.0
2967,A3,191.75,2.25,63,97.0
2968,D4,191.75,2.25,95,97.0
2969,B3,191.75,2.25,95,97.0
2970,G3,191.75,2.25,95,97.0
2971,G3,191.75,2.25,63,97.0
2972,D3,191.75,2.25,63,97.0
2973,G2,191.75,2.25,63,97.0
2974,G1,192.0,0.75,95,97.0
2975,G1,192.75,0.25,95,97.0
2976,A1,193.0,0.5,95,97.0
2977,B1,193.5,0.5,95,97.0
2978,F4,194.0,0.75,95,97.0
2979,C2,194.0,0.75,95,97.0
2980,E4,194.0,1.25,63,97.0
2981,D4,194.0,1.25,63,97.0
2982,C4,194.0,1.25,63,97.0
2983,G3,194.0,1.25,63,97.0
2984,G4,194.0,2.0,63,97.0
2985,E4,194.0,2.0,63,97.0
2986,D4,194.0,2.0,63,97.0
2987,C4,194.0,2.0,63,97.0
2988,E4,194.0,1.75,95,97.0
2989,C4,194.0,1.75,95,97.0
2990,G3,194.0,1.75,95,97.0
2991,C4,194.0,1.75,63,97.0
2992,G3,194.0,1.75,63,97.0
2993,C3,194.0,1.75,63,97.0
2994,B-4,194.75,0.5,95,97.0
2995,G1,194.75,0.25,63,97.0
2996,C5,194.75,0.5,63,97.0
2997,G4,194.75,0.5,63,97.0
2998,A1,195.0,0.25,95,97.0
2999,A4,195.25,0.5,95,97.0
3000,B1,195.25,0.25,79,97.0
3001,E4,195.25,0.125,63,97.0
3002,D4,195.25,0.125,63,97.0
3003,C4,195.25,0.125,63,97.0
3004,G3,195.25,0.125,63,97.0
3005,B4,195.25,0.5,63,97.0
3006,G4,195.25,0.5,63,97.0
3007,A1,195.5,0.25,63,97.0
3008,A4,195.75,1.0,95,97.0
3009,G1,195.75,0.25,95,97.0
3010,F#4,195.75,2.25,63,97.0
3011,E4,195.75,2.25,63,97.0
3012,D4,195.75,2.25,63,97.0
3013,A3,195.75,2.25,63,97.0
3014,A4,195.75,2.0,63,97.0
3015,F#4,195.75,2.0,63,97.0
3016,D4,195.75,2.25,95,97.0
3017,A3,195.75,2.25,95,97.0
3018,F#3,195.75,2.25,95,97.0
3019,G3,195.75,2.25,63,97.0
3020,D3,195.75,2.25,63,97.0
3021,G2,195.75,2.25,63,97.0
3022,G1,196.0,0.75,95,97.0
3023,D5,196.75,0.75,95,97.0
3024,G1,196.75,0.25,95,97.0
3025,G1,197.0,0.25,95,97.0
3026,F1,197.25,0.25,95,97.0
3027,E5,197.5,0.25,95,97.0
3028,A1,197.5,0.25,95,97.0
3029,F#5,197.75,0.25,95,97.0
3030,B1,197.75,0.25,95,97.0
3031,G5,198.0,0.75,95,97.0
3032,G5,198.0,0.75,95,97.0
3033,E2,198.0,0.75,95,97.0
3034,G4,198.0,1.0,63,97.0
3035,E4,198.0,1.0,63,97.0
3036,B3,198.0,1.0,63,97.0
3037,G4,198.0,2.0,63,97.0
3038,E4,198.0,2.0,63,97.0
3039,D4,198.0,2.0,63,97.0
3040,C4,198.0,2.0,63,97.0
3041,E4,198.0,1.75,95,97.0
3042,C4,198.0,1.75,95,97.0
3043,G3,198.0,1.75,95,97.0
3044,E3,198.0,0.75,63,97.0
3045,B2,198.0,0.75,63,97.0
3046,G5,198.75,0.5,95,97.0
3047,G5,198.75,0.5,95,97.0
3048,D2,198.75,0.5,95,97.0
3049,D3,198.75,0.5,63,97.0
3050,A2,198.75,0.5,63,97.0
3051,F#4,199.0,1.0,63,97.0
3052,D4,199.0,1.0,63,97.0
3053,A3,199.0,1.0,63,97.0
3054,F#5,199.25,0.5,95,97.0
3055,F#5,199.25,0.5,95,97.0
3056,B1,199.25,0.5,95,97.0
3057,G3,199.25,0.5,63,97.0
3058,C3,199.25,0.5,63,97.0
3059,E5,199.75,0.5,95,97.0
3060,E5,199.75,0.5,95,97.0
3061,C2,199.75,1.0,95,97.0
3062,D4,199.75,2.25,95,97.0
3063,A3,199.75,2.25,95,97.0
3064,F#3,199.75,2.25,95,97.0
3065,G3,199.75,1.0,63,97.0
3066,C3,199.75,1.0,63,97.0
3067,E4,200.0,1.0,63,97.0
3068,D4,200.0,1.0,63,97.0
3069,C4,200.0,1.0,63,97.0
3070,G3,200.0,1.0,63,97.0
3071,D5,200.25,0.5,95,97.0
3072,D5,200.25,0.5,95,97.0
3073,G4,200.75,0.75,95,97.0
3074,G4,200.75,1.25,95,97.0
3075,B2,200.75,1.25,63,97.0
3076,B1,200.75,0.25,95,97.0
3077,B1,201.0,0.5,95,97.0
3078,D4,201.0,1.0,63,97.0
3079,B3,201.0,1.0,63,97.0
3080,A3,201.0,1.0,63,97.0
3081,G3,201.0,1.0,63,97.0
3082,A4,201.5,0.25,95,97.0
3083,C2,201.5,0.25,95,97.0
3084,B4,201.75,0.25,95,97.0
3085,B1,201.75,0.25,95,97.0
3086,C5,202.0,0.75,95,97.0
3087,G4,202.0,0.75,63,97.0
3088,C3,202.0,2.0,63,97.0
3089,A1,202.0,1.75,95,97.0
3090,G4,202.0,1.25,63,97.0
3091,E4,202.0,1.25,63,97.0
3092,C4,202.0,1.25,63,97.0
3093,G4,202.0,0.75,95,97.0
3094,E4,202.0,0.75,95,97.0
3095,B3,202.0,0.75,95,97.0
3096,B4,202.75,0.5,95,97.0
3097,G4,202.75,0.5,63,97.0
3098,F#4,202.75,1.25,95,97.0
3099,D4,202.75,1.0,95,97.0
3100,A3,202.75,1.0,95,97.0
3101,G4,203.25,0.5,95,97.0
3102,F#4,203.25,0.5,63,97.0
3103,G4,203.25,0.125,63,97.0
3104,E4,203.25,0.125,63,97.0
3105,C4,203.25,0.125,63,97.0
3106,A4,203.75,1.5,95,97.0
3107,E4,203.75,1.25,63,97.0
3108,D2,203.75,0.25,95,97.0
3109,F#4,203.75,2.25,63,97.0
3110,D4,203.75,2.25,63,97.0
3111,A3,203.75,2.25,63,97.0
3112,A2,204.0,1.5,63,97.0
3113,D2,204.0,2.0,95,97.0
3114,E4,204.0,0.75,95,97.0
3115,C4,204.0,0.75,95,97.0
3116,G3,204.0,0.75,95,97.0
3117,D4,204.75,1.25,95,97.0
3118,B3,204.75,1.25,95,97.0
3119,G3,204.75,1.25,95,97.0
3120,D4,205.0,1.0,63,97.0
3121,G4,205.5,0.25,95,97.0
3122,A2,205.5,0.25,95,97.0
3123,F#4,205.75,0.25,95,97.0
3124,B2,205.75,0.25,95,97.0
3125,E4,206.0,1.0,95,97.0
3126,C3,206.0,4.0,95,97.0
3127,C2,206.0,1.5,95,97.0
3128,E4,206.0,1.75,95,97.0
3129,C4,206.0,1.75,95,97.0
3130,G3,206.0,1.75,95,97.0
3131,G1,206.75,0.75,47,97.0
3132,C2,207.5,2.5,95,97.0
3133,D4,207.75,2.25,95,97.0
3134,A3,207.75,2.25,95,97.0
3135,F#3,207.75,2.25,95,97.0
3136,C3,210.0,4.0,95,97.0
3137,C2,210.0,2.0,95,97.0
3138,C6,210.0,0.75,47,97.0
3139,C5,210.0,0.75,47,97.0
3140,C4,210.0,4.0,79,97.0
3141,G3,210.0,4.0,79,97.0
3142,B5,210.75,0.75,47,97.0
3143,B4,210.75,0.75,47,97.0
3144,G5,211.5,2.0,47,97.0
3145,G4,211.5,2.0,47,97.0
3146,G3,212.0,0.75,79,97.0
3147,C2,212.0,1.25,95,97.0
3148,G3,212.75,0.75,79,97.0
3149,D2,212.75,0.25,63,97.0
3150,C2,213.0,1.0,47,97.0
3151,B1,213.25,0.25,47,97.0
3152,F#3,213.5,0.5,47,97.0
3153,A1,213.5,0.25,63,97.0
3154,B1,213.75,0.25,47,97.0
3155,G3,214.0,0.75,95,97.0
3156,C2,214.0,2.0,95,97.0
3157,D4,214.75,1.25,95,97.0
3158,B3,216.0,0.75,95,97.0
3159,C2,216.0,1.25,95,97.0
3160,G3,216.75,1.25,95,97.0
3161,D2,216.75,0.25,63,97.0
3162,C2,217.0,1.0,47,97.0
3163,B1,217.25,0.25,47,97.0
3164,A1,217.5,0.25,63,97.0
3165,B1,217.75,0.25,47,97.0
3166,D4,218.0,2.0,95,97.0
3167,C2,218.0,2.0,95,97.0
3168,E1,220.0,0.25,95,97.0
3169,D4,220.0,0.75,79,97.0
3170,B3,220.0,0.75,79,97.0
3171,G1,220.25,0.25,95,97.0
3172,E1,220.5,0.25,95,97.0
3173,D2,220.75,0.75,95,97.0
3174,A3,220.75,1.25,79,97.0
3175,F#3,220.75,1.25,79,97.0
3176,F#1,221.5,0.25,95,97.0
3177,G1,221.75,0.25,95,97.0
3178,G3,222.0,2.0,63,97.0
3179,E1,222.0,0.75,95,97.0
3180,F#4,222.0,3.0,47,97.0
3181,D4,222.0,3.0,47,97.0
3182,B3,222.0,3.0,47,97.0
3183,G3,222.0,3.0,47,97.0
3184,F#4,222.0,0.25,47,97.0
3185,D4,222.0,0.25,47,97.0
3186,B3,222.0,0.25,47,97.0
3187,G3,222.0,0.25,47,97.0
3188,F#4,222.25,0.25,63,97.0
3189,D4,222.25,0.25,63,97.0
3190,B3,222.25,0.25,63,97.0
3191,G3,222.25,0.25,63,97.0
3192,F#4,222.5,0.25,31,97.0
3193,D4,222.5,0.25,31,97.0
3194,B3,222.5,0.25,31,97.0
3195,G3,222.5,0.25,31,97.0
3196,B1,222.75,1.0,79,97.0
3197,F#4,222.75,0.5,63,97.0
3198,D4,222.75,0.5,63,97.0
3199,B3,222.75,0.5,63,97.0
3200,G3,222.75,0.5,63,97.0
3201,F#4,223.25,0.25,63,97.0
3202,D4,223.25,0.25,63,97.0
3203,B3,223.25,0.25,63,97.0
3204,G3,223.25,0.25,63,97.0
3205,F#4,223.5,0.25,31,97.0
3206,D4,223.5,0.25,31,97.0
3207,B3,223.5,0.25,31,97.0
3208,G3,223.5,0.25,31,97.0
3209,E1,223.75,0.125,95,97.0
3210,F#4,223.75,0.25,63,97.0
3211,D4,223.75,0.25,63,97.0
3212,B3,223.75,0.25,63,97.0
3213,G3,223.75,0.25,63,97.0
3214,E1,224.0,0.75,95,97.0
3215,D4,224.0,0.75,63,97.0
3216,B3,224.0,0.75,63,97.0
3217,F#4,224.0,0.25,47,97.0
3218,D4,224.0,0.25,47,97.0
3219,B3,224.0,0.25,47,97.0
3220,G3,224.0,0.25,47,97.0
3221,F#4,224.25,0.25,63,97.0
3222,D4,224.25,0.25,63,97.0
3223,B3,224.25,0.25,63,97.0
3224,G3,224.25,0.25,63,97.0
3225,F#4,224.5,0.25,31,97.0
3226,D4,224.5,0.25,31,97.0
3227,B3,224.5,0.25,31,97.0
3228,G3,224.5,0.25,31,97.0
3229,E1,224.75,0.125,95,97.0
3230,A3,224.75,1.25,63,97.0
3231,F#3,224.75,1.25,63,97.0
3232,F#4,224.75,0.25,63,97.0
3233,E4,224.75,0.25,63,97.0
3234,C#4,224.75,0.25,63,97.0
3235,A3,224.75,0.25,63,97.0
3236,A1,225.0,0.5,79,97.0
3237,E4,225.0,1.0,47,97.0
3238,C#4,225.0,1.0,47,97.0
3239,A3,225.0,1.0,47,97.0
3240,F#4,225.0,0.5,43,97.0
3241,E4,225.0,0.5,43,97.0
3242,C#4,225.0,0.5,43,97.0
3243,A3,225.0,0.5,43,97.0
3244,B1,225.5,0.5,79,97.0
3245,F#4,225.5,0.5,55,97.0
3246,E4,225.5,0.5,55,97.0
3247,C#4,225.5,0.5,55,97.0
3248,A3,225.5,0.5,55,97.0
3249,F#4,226.0,2.75,63,97.0
3250,E1,226.0,0.75,95,97.0
3251,F#4,226.0,3.0,47,97.0
3252,D4,226.0,3.0,47,97.0
3253,B3,226.0,3.0,47,97.0
3254,G3,226.0,3.0,47,97.0
3255,C4,226.0,4.0,79,97.0
3256,G3,226.0,4.0,79,97.0
3257,F#4,226.0,0.25,47,97.0
3258,D4,226.0,0.25,47,97.0
3259,B3,226.0,0.25,47,97.0
3260,G3,226.0,0.25,47,97.0
3261,F#4,226.25,0.25,63,97.0
3262,D4,226.25,0.25,63,97.0
3263,B3,226.25,0.25,63,97.0
3264,G3,226.25,0.25,63,97.0
3265,F#4,226.5,0.25,31,97.0
3266,D4,226.5,0.25,31,97.0
3267,B3,226.5,0.25,31,97.0
3268,G3,226.5,0.25,31,97.0
3269,B1,226.75,1.0,79,97.0
3270,F#4,226.75,0.5,63,97.0
3271,D4,226.75,0.5,63,97.0
3272,B3,226.75,0.5,63,97.0
3273,G3,226.75,0.5,63,97.0
3274,E3,227.25,0.25,63,97.0
3275,F#4,227.25,0.25,63,97.0
3276,D4,227.25,0.25,63,97.0
3277,B3,227.25,0.25,63,97.0
3278,G3,227.25,0.25,63,97.0
3279,G3,227.5,0.25,79,97.0
3280,F#4,227.5,0.25,31,97.0
3281,D4,227.5,0.25,31,97.0
3282,B3,227.5,0.25,31,97.0
3283,G3,227.5,0.25,31,97.0
3284,B3,227.75,0.25,95,97.0
3285,E1,227.75,0.125,95,97.0
3286,F#4,227.75,0.25,63,97.0
3287,D4,227.75,0.25,63,97.0
3288,B3,227.75,0.25,63,97.0
3289,G3,227.75,0.25,63,97.0
3290,D4,228.0,0.25,95,97.0
3291,E1,228.0,0.75,95,97.0
3292,F#4,228.0,0.25,47,97.0
3293,D4,228.0,0.25,47,97.0
3294,B3,228.0,0.25,47,97.0
3295,G3,228.0,0.25,47,97.0
3296,C#4,228.25,0.375,95,97.0
3297,F#4,228.25,0.25,63,97.0
3298,D4,228.25,0.25,63,97.0
3299,B3,228.25,0.25,63,97.0
3300,G3,228.25,0.25,63,97.0
3301,F#4,228.5,0.25,31,97.0
3302,D4,228.5,0.25,31,97.0
3303,B3,228.5,0.25,31,97.0
3304,G3,228.5,0.25,31,97.0
3305,E4,228.625,0.375,95,97.0
3306,E4,228.75,1.25,63,97.0
3307,E1,228.75,0.125,95,97.0
3308,F#4,228.75,0.25,63,97.0
3309,E4,228.75,0.25,63,97.0
3310,C#4,228.75,0.25,63,97.0
3311,A3,228.75,0.25,63,97.0
3312,A4,229.0,0.375,95,97.0
3313,A1,229.0,0.5,79,97.0
3314,E4,229.0,1.0,47,97.0
3315,C#4,229.0,1.0,47,97.0
3316,A3,229.0,1.0,47,97.0
3317,F#4,229.0,0.5,43,97.0
3318,E4,229.0,0.5,43,97.0
3319,C#4,229.0,0.5,43,97.0
3320,A3,229.0,0.5,43,97.0
3321,G4,229.375,0.375,95,97.0
3322,B1,229.5,0.5,79,97.0
3323,F#4,229.5,0.5,55,97.0
3324,E4,229.5,0.5,55,97.0
3325,C#4,229.5,0.5,55,97.0
3326,A3,229.5,0.5,55,97.0
3327,F#4,229.75,0.25,95,97.0
3328,E4,230.0,0.125,95,97.0
3329,G1,230.0,0.75,95,97.0
3330,F#4,230.0,3.0,47,97.0
3331,D4,230.0,3.0,47,97.0
3332,B3,230.0,3.0,47,97.0
3333,G3,230.0,3.0,47,97.0
3334,F#4,230.0,0.25,47,97.0
3335,D4,230.0,0.25,47,97.0
3336,B3,230.0,0.25,47,97.0
3337,G3,230.0,0.25,47,97.0
3338,F#4,230.125,1.125,95,97.0
3339,F#4,230.25,0.25,63,97.0
3340,D4,230.25,0.25,63,97.0
3341,B3,230.25,0.25,63,97.0
3342,G3,230.25,0.25,63,97.0
3343,F#4,230.5,0.25,31,97.0
3344,D4,230.5,0.25,31,97.0
3345,B3,230.5,0.25,31,97.0
3346,G3,230.5,0.25,31,97.0
3347,B1,230.75,1.0,79,97.0
3348,F#4,230.75,0.5,63,97.0
3349,D4,230.75,0.5,63,97.0
3350,B3,230.75,0.5,63,97.0
3351,G3,230.75,0.5,63,97.0
3352,F#4,231.25,0.25,63,97.0
3353,D4,231.25,0.25,63,97.0
3354,B3,231.25,0.25,63,97.0
3355,G3,231.25,0.25,63,97.0
3356,F#4,231.5,0.25,31,97.0
3357,D4,231.5,0.25,31,97.0
3358,B3,231.5,0.25,31,97.0
3359,G3,231.5,0.25,31,97.0
3360,E4,231.75,0.5,95,97.0
3361,G1,231.75,0.125,95,97.0
3362,F#4,231.75,0.25,63,97.0
3363,D4,231.75,0.25,63,97.0
3364,B3,231.75,0.25,63,97.0
3365,G3,231.75,0.25,63,97.0
3366,G1,232.0,0.75,95,97.0
3367,F#4,232.0,0.25,47,97.0
3368,D4,232.0,0.25,47,97.0
3369,B3,232.0,0.25,47,97.0
3370,G3,232.0,0.25,47,97.0
3371,C#4,232.25,0.5,95,97.0
3372,F#4,232.25,0.25,63,97.0
3373,D4,232.25,0.25,63,97.0
3374,B3,232.25,0.25,63,97.0
3375,G3,232.25,0.25,63,97.0
3376,F#4,232.5,0.25,31,97.0
3377,D4,232.5,0.25,31,97.0
3378,B3,232.5,0.25,31,97.0
3379,G3,232.5,0.25,31,97.0
3380,A3,232.75,0.5,95,97.0
3381,A1,232.75,0.75,79,97.0
3382,F#4,232.75,0.25,63,97.0
3383,E4,232.75,0.25,63,97.0
3384,C#4,232.75,0.25,63,97.0
3385,A3,232.75,0.25,63,97.0
3386,E4,233.0,1.0,47,97.0
3387,C#4,233.0,1.0,47,97.0
3388,A3,233.0,1.0,47,97.0
3389,F#4,233.0,0.5,43,97.0
3390,E4,233.0,0.5,43,97.0
3391,C#4,233.0,0.5,43,97.0
3392,A3,233.0,0.5,43,97.0
3393,D4,233.25,0.5,95,97.0
3394,F#1,233.5,0.5,79,97.0
3395,F#4,233.5,0.5,55,97.0
3396,E4,233.5,0.5,55,97.0
3397,C#4,233.5,0.5,55,97.0
3398,A3,233.5,0.5,55,97.0
3399,G3,233.75,0.25,95,97.0
3400,F#3,234.0,0.5,95,97.0
3401,G1,234.0,0.75,95,97.0
3402,F#4,234.0,3.0,47,97.0
3403,D4,234.0,3.0,47,97.0
3404,B3,234.0,3.0,47,97.0
3405,G3,234.0,3.0,47,97.0
3406,F#4,234.0,0.25,47,97.0
3407,D4,234.0,0.25,47,97.0
3408,B3,234.0,0.25,47,97.0
3409,G3,234.0,0.25,47,97.0
3410,F#4,234.25,0.25,63,97.0
3411,D4,234.25,0.25,63,97.0
3412,B3,234.25,0.25,63,97.0
3413,G3,234.25,0.25,63,97.0
3414,E3,234.5,0.25,63,97.0
3415,F#4,234.5,0.25,31,97.0
3416,D4,234.5,0.25,31,97.0
3417,B3,234.5,0.25,31,97.0
3418,G3,234.5,0.25,31,97.0
3419,F#3,234.75,1.0,95,97.0
3420,B1,234.75,1.0,79,97.0
3421,F#4,234.75,0.5,63,97.0
3422,D4,234.75,0.5,63,97.0
3423,B3,234.75,0.5,63,97.0
3424,G3,234.75,0.5,63,97.0
3425,F#4,235.25,0.25,63,97.0
3426,D4,235.25,0.25,63,97.0
3427,B3,235.25,0.25,63,97.0
3428,G3,235.25,0.25,63,97.0
3429,F#4,235.5,0.25,31,97.0
3430,D4,235.5,0.25,31,97.0
3431,B3,235.5,0.25,31,97.0
3432,G3,235.5,0.25,31,97.0
3433,G1,235.75,0.125,95,97.0
3434,F#4,235.75,0.25,63,97.0
3435,D4,235.75,0.25,63,97.0
3436,B3,235.75,0.25,63,97.0
3437,G3,235.75,0.25,63,97.0
3438,G1,236.0,0.75,95,97.0
3439,F#4,236.0,0.25,47,97.0
3440,D4,236.0,0.25,47,97.0
3441,B3,236.0,0.25,47,97.0
3442,G3,236.0,0.25,47,97.0
3443,F#4,236.25,0.25,63,97.0
3444,D4,236.25,0.25,63,97.0
3445,B3,236.25,0.25,63,97.0
3446,G3,236.25,0.25,63,97.0
3447,F#4,236.5,0.25,31,97.0
3448,D4,236.5,0.25,31,97.0
3449,B3,236.5,0.25,31,97.0
3450,G3,236.5,0.25,31,97.0
3451,A1,236.75,0.75,79,97.0
3452,F#4,236.75,0.25,63,97.0
3453,E4,236.75,0.25,63,97.0
3454,C#4,236.75,0.25,63,97.0
3455,A3,236.75,0.25,63,97.0
3456,B3,237.0,0.125,47,97.0
3457,E4,237.0,1.0,47,97.0
3458,C#4,237.0,1.0,47,97.0
3459,A3,237.0,1.0,47,97.0
3460,F#4,237.0,0.5,43,97.0
3461,E4,237.0,0.5,43,97.0
3462,C#4,237.0,0.5,43,97.0
3463,A3,237.0,0.5,43,97.0
3464,C#4,237.125,0.125,63,97.0
3465,D4,237.25,0.125,79,97.0
3466,E4,237.375,0.125,79,97.0
3467,E4,237.5,0.125,79,97.0
3468,F#1,237.5,0.5,79,97.0
3469,F#4,237.5,0.5,55,97.0
3470,E4,237.5,0.5,55,97.0
3471,C#4,237.5,0.5,55,97.0
3472,A3,237.5,0.5,55,97.0
3473,F#4,237.625,0.125,79,97.0
3474,G4,237.75,0.125,95,97.0
3475,A4,237.875,0.125,95,97.0
3476,B4,238.0,0.375,95,97.0
3477,E1,238.0,0.75,95,97.0
3478,F#4,238.0,3.0,47,97.0
3479,D4,238.0,3.0,47,97.0
3480,B3,238.0,3.0,47,97.0
3481,G3,238.0,3.0,47,97.0
3482,C4,238.0,4.0,79,97.0
3483,G3,238.0,4.0,79,97.0
3484,F#4,238.0,0.25,47,97.0
3485,D4,238.0,0.25,47,97.0
3486,B3,238.0,0.25,47,97.0
3487,G3,238.0,0.25,47,97.0
3488,F#4,238.25,0.25,63,97.0
3489,D4,238.25,0.25,63,97.0
3490,B3,238.25,0.25,63,97.0
3491,G3,238.25,0.25,63,97.0
3492,B4,238.375,0.375,95,97.0
3493,F#4,238.5,0.25,31,97.0
3494,D4,238.5,0.25,31,97.0
3495,B3,238.5,0.25,31,97.0
3496,G3,238.5,0.25,31,97.0
3497,G4,238.75,0.25,95,97.0
3498,B1,238.75,1.0,79,97.0
3499,F#4,238.75,0.5,63,97.0
3500,D4,238.75,0.5,63,97.0
3501,B3,238.75,0.5,63,97.0
3502,G3,238.75,0.5,63,97.0
3503,F#4,239.0,0.5,95,97.0
3504,F#4,239.25,0.25,63,97.0
3505,D4,239.25,0.25,63,97.0
3506,B3,239.25,0.25,63,97.0
3507,G3,239.25,0.25,63,97.0
3508,D5,239.5,0.25,95,97.0
3509,F#4,239.5,0.25,31,97.0
3510,D4,239.5,0.25,31,97.0
3511,B3,239.5,0.25,31,97.0
3512,G3,239.5,0.25,31,97.0
3513,E4,239.75,0.5,63,97.0
3514,E1,239.75,0.125,95,97.0
3515,F#4,239.75,0.25,63,97.0
3516,D4,239.75,0.25,63,97.0
3517,B3,239.75,0.25,63,97.0
3518,G3,239.75,0.25,63,97.0
3519,E1,240.0,0.75,95,97.0
3520,F#4,240.0,0.25,47,97.0
3521,D4,240.0,0.25,47,97.0
3522,B3,240.0,0.25,47,97.0
3523,G3,240.0,0.25,47,97.0
3524,C#5,240.25,0.5,95,97.0
3525,F#4,240.25,0.25,63,97.0
3526,D4,240.25,0.25,63,97.0
3527,B3,240.25,0.25,63,97.0
3528,G3,240.25,0.25,63,97.0
3529,F#4,240.5,0.25,31,97.0
3530,D4,240.5,0.25,31,97.0
3531,B3,240.5,0.25,31,97.0
3532,G3,240.5,0.25,31,97.0
3533,B4,240.75,0.5,95,97.0
3534,E1,240.75,0.125,95,97.0
3535,F#4,240.75,0.25,63,97.0
3536,E4,240.75,0.25,63,97.0
3537,C#4,240.75,0.25,63,97.0
3538,A3,240.75,0.25,63,97.0
3539,A1,241.0,0.5,79,97.0
3540,E4,241.0,1.0,47,97.0
3541,C#4,241.0,1.0,47,97.0
3542,A3,241.0,1.0,47,97.0
3543,F#4,241.0,0.5,43,97.0
3544,E4,241.0,0.5,43,97.0
3545,C#4,241.0,0.5,43,97.0
3546,A3,241.0,0.5,43,97.0
3547,A4,241.25,0.5,95,97.0
3548,B1,241.5,0.5,79,97.0
3549,F#4,241.5,0.5,55,97.0
3550,E4,241.5,0.5,55,97.0
3551,C#4,241.5,0.5,55,97.0
3552,A3,241.5,0.5,55,97.0
3553,G4,241.75,0.25,95,97.0
3554,E4,242.0,0.5,95,97.0
3555,F#4,242.0,2.75,63,97.0
3556,E1,242.0,0.75,95,97.0
3557,F#4,242.0,3.0,47,97.0
3558,D4,242.0,3.0,47,97.0
3559,B3,242.0,3.0,47,97.0
3560,G3,242.0,3.0,47,97.0
3561,F#4,242.0,0.25,47,97.0
3562,D4,242.0,0.25,47,97.0
3563,B3,242.0,0.25,47,97.0
3564,G3,242.0,0.25,47,97.0
3565,F#4,242.25,0.25,63,97.0
3566,D4,242.25,0.25,63,97.0
3567,B3,242.25,0.25,63,97.0
3568,G3,242.25,0.25,63,97.0
3569,A4,242.5,0.25,95,97.0
3570,F#4,242.5,0.25,31,97.0
3571,D4,242.5,0.25,31,97.0
3572,B3,242.5,0.25,31,97.0
3573,G3,242.5,0.25,31,97.0
3574,E4,242.75,1.0,95,97.0
3575,B1,242.75,1.0,79,97.0
3576,F#4,242.75,0.5,63,97.0
3577,D4,242.75,0.5,63,97.0
3578,B3,242.75,0.5,63,97.0
3579,G3,242.75,0.5,63,97.0
3580,F#4,243.25,0.25,63,97.0
3581,D4,243.25,0.25,63,97.0
3582,B3,243.25,0.25,63,97.0
3583,G3,243.25,0.25,63,97.0
3584,F#4,243.5,0.25,31,97.0
3585,D4,243.5,0.25,31,97.0
3586,B3,243.5,0.25,31,97.0
3587,G3,243.5,0.25,31,97.0
3588,E1,243.75,0.125,95,97.0
3589,F#4,243.75,0.25,63,97.0
3590,D4,243.75,0.25,63,97.0
3591,B3,243.75,0.25,63,97.0
3592,G3,243.75,0.25,63,97.0
3593,D4,244.0,0.5,95,97.0
3594,E1,244.0,0.75,95,97.0
3595,F#4,244.0,0.25,47,97.0
3596,D4,244.0,0.25,47,97.0
3597,B3,244.0,0.25,47,97.0
3598,G3,244.0,0.25,47,97.0
3599,F#4,244.25,0.25,63,97.0
3600,D4,244.25,0.25,63,97.0
3601,B3,244.25,0.25,63,97.0
3602,G3,244.25,0.25,63,97.0
3603,A4,244.5,0.25,95,97.0
3604,F#4,244.5,0.25,31,97.0
3605,D4,244.5,0.25,31,97.0
3606,B3,244.5,0.25,31,97.0
3607,G3,244.5,0.25,31,97.0
3608,D4,244.75,0.75,95,97.0
3609,E4,244.75,1.25,63,97.0
3610,E1,244.75,0.125,95,97.0
3611,F#4,244.75,0.25,63,97.0
3612,E4,244.75,0.25,63,97.0
3613,C#4,244.75,0.25,63,97.0
3614,A3,244.75,0.25,63,97.0
3615,A1,245.0,0.5,79,97.0
3616,E4,245.0,1.0,47,97.0
3617,C#4,245.0,1.0,47,97.0
3618,A3,245.0,1.0,47,97.0
3619,F#4,245.0,0.5,43,97.0
3620,E4,245.0,0.5,43,97.0
3621,C#4,245.0,0.5,43,97.0
3622,A3,245.0,0.5,43,97.0
3623,C#4,245.5,0.25,95,97.0
3624,B1,245.5,0.5,79,97.0
3625,F#4,245.5,0.5,55,97.0
3626,E4,245.5,0.5,55,97.0
3627,C#4,245.5,0.5,55,97.0
3628,A3,245.5,0.5,55,97.0
3629,D4,245.75,0.25,95,97.0
3630,A4,246.0,0.25,95,97.0
3631,G1,246.0,0.75,95,97.0
3632,F#4,246.0,3.0,47,97.0
3633,D4,246.0,3.0,47,97.0
3634,B3,246.0,3.0,47,97.0
3635,G3,246.0,3.0,47,97.0
3636,C4,246.0,4.0,79,97.0
3637,G3,246.0,4.0,79,97.0
3638,F#4,246.0,0.25,47,97.0
3639,D4,246.0,0.25,47,97.0
3640,B3,246.0,0.25,47,97.0
3641,G3,246.0,0.25,47,97.0
3642,D4,246.25,0.25,95,97.0
3643,F#4,246.25,0.25,63,97.0
3644,D4,246.25,0.25,63,97.0
3645,B3,246.25,0.25,63,97.0
3646,G3,246.25,0.25,63,97.0
3647,F#4,246.5,0.25,31,97.0
3648,D4,246.5,0.25,31,97.0
3649,B3,246.5,0.25,31,97.0
3650,G3,246.5,0.25,31,97.0
3651,D4,246.75,0.25,95,97.0
3652,B1,246.75,1.0,79,97.0
3653,F#4,246.75,0.5,63,97.0
3654,D4,246.75,0.5,63,97.0
3655,B3,246.75,0.5,63,97.0
3656,G3,246.75,0.5,63,97.0
3657,E4,247.25,0.5,95,97.0
3658,F#4,247.25,0.25,63,97.0
3659,D4,247.25,0.25,63,97.0
3660,B3,247.25,0.25,63,97.0
3661,G3,247.25,0.25,63,97.0
3662,F#4,247.5,0.25,31,97.0
3663,D4,247.5,0.25,31,97.0
3664,B3,247.5,0.25,31,97.0
3665,G3,247.5,0.25,31,97.0
3666,D4,247.75,1.0,95,97.0
3667,G1,247.75,0.125,95,97.0
3668,F#4,247.75,0.25,63,97.0
3669,D4,247.75,0.25,63,97.0
3670,B3,247.75,0.25,63,97.0
3671,G3,247.75,0.25,63,97.0
3672,G1,248.0,0.75,95,97.0
3673,F#4,248.0,0.25,47,97.0
3674,D4,248.0,0.25,47,97.0
3675,B3,248.0,0.25,47,97.0
3676,G3,248.0,0.25,47,97.0
3677,F#4,248.25,0.25,63,97.0
3678,D4,248.25,0.25,63,97.0
3679,B3,248.25,0.25,63,97.0
3680,G3,248.25,0.25,63,97.0
3681,F#4,248.5,0.25,31,97.0
3682,D4,248.5,0.25,31,97.0
3683,B3,248.5,0.25,31,97.0
3684,G3,248.5,0.25,31,97.0
3685,A1,248.75,0.75,79,97.0
3686,F#4,248.75,0.25,63,97.0
3687,E4,248.75,0.25,63,97.0
3688,C#4,248.75,0.25,63,97.0
3689,A3,248.75,0.25,63,97.0
3690,E4,249.0,1.0,47,97.0
3691,C#4,249.0,1.0,47,97.0
3692,A3,249.0,1.0,47,97.0
3693,F#4,249.0,0.5,43,97.0
3694,E4,249.0,0.5,43,97.0
3695,C#4,249.0,0.5,43,97.0
3696,A3,249.0,0.5,43,97.0
3697,B3,249.5,0.25,79,97.0
3698,F#1,249.5,0.5,79,97.0
3699,F#4,249.5,0.5,55,97.0
3700,E4,249.5,0.5,55,97.0
3701,C#4,249.5,0.5,55,97.0
3702,A3,249.5,0.5,55,97.0
3703,G3,249.75,0.25,63,97.0
3704,F#3,250.0,0.5,63,97.0
3705,F#4,250.0,3.0,95,97.0
3706,G1,250.0,0.75,95,97.0
3707,F#4,250.0,3.0,47,97.0
3708,D4,250.0,3.0,47,97.0
3709,B3,250.0,3.0,47,97.0
3710,G3,250.0,3.0,47,97.0
3711,D4,250.0,4.0,95,97.0
3712,B3,250.0,4.0,95,97.0
3713,F#4,250.0,0.25,47,97.0
3714,D4,250.0,0.25,47,97.0
3715,B3,250.0,0.25,47,97.0
3716,G3,250.0,0.25,47,97.0
3717,F#4,250.25,0.25,63,97.0
3718,D4,250.25,0.25,63,97.0
3719,B3,250.25,0.25,63,97.0
3720,G3,250.25,0.25,63,97.0
3721,E3,250.5,0.25,47,97.0
3722,F#4,250.5,0.25,31,97.0
3723,D4,250.5,0.25,31,97.0
3724,B3,250.5,0.25,31,97.0
3725,G3,250.5,0.25,31,97.0
3726,F#3,250.75,1.0,63,97.0
3727,B1,250.75,1.0,79,97.0
3728,F#4,250.75,0.5,63,97.0
3729,D4,250.75,0.5,63,97.0
3730,B3,250.75,0.5,63,97.0
3731,G3,250.75,0.5,63,97.0
3732,F#4,251.25,0.25,63,97.0
3733,D4,251.25,0.25,63,97.0
3734,B3,251.25,0.25,63,97.0
3735,G3,251.25,0.25,63,97.0
3736,F#4,251.5,0.25,31,97.0
3737,D4,251.5,0.25,31,97.0
3738,B3,251.5,0.25,31,97.0
3739,G3,251.5,0.25,31,97.0
3740,G1,251.75,0.125,95,97.0
3741,F#4,251.75,0.25,63,97.0
3742,D4,251.75,0.25,63,97.0
3743,B3,251.75,0.25,63,97.0
3744,G3,251.75,0.25,63,97.0
3745,G1,252.0,0.75,95,97.0
3746,F#4,252.0,0.25,47,97.0
3747,D4,252.0,0.25,47,97.0
3748,B3,252.0,0.25,47,97.0
3749,G3,252.0,0.25,47,97.0
3750,F#4,252.25,0.25,63,97.0
3751,D4,252.25,0.25,63,97.0
3752,B3,252.25,0.25,63,97.0
3753,G3,252.25,0.25,63,97.0
3754,F#4,252.5,0.25,31,97.0
3755,D4,252.5,0.25,31,97.0
3756,B3,252.5,0.25,31,97.0
3757,G3,252.5,0.25,31,97.0
3758,G3,252.75,0.25,95,97.0
3759,A1,252.75,0.75,79,97.0
3760,F#4,252.75,0.25,63,97.0
3761,E4,252.75,0.25,63,97.0
3762,C#4,252.75,0.25,63,97.0
3763,A3,252.75,0.25,63,97.0
3764,B3,253.0,0.25,95,97.0
3765,E4,253.0,1.0,95,97.0
3766,E4,253.0,1.0,47,97.0
3767,C#4,253.0,1.0,47,97.0
3768,A3,253.0,1.0,47,97.0
3769,F#4,253.0,0.5,43,97.0
3770,E4,253.0,0.5,43,97.0
3771,C#4,253.0,0.5,43,97.0
3772,A3,253.0,0.5,43,97.0
3773,D4,253.25,0.25,95,97.0
3774,F#4,253.5,0.25,95,97.0
3775,F#1,253.5,0.5,79,97.0
3776,F#4,253.5,0.5,55,97.0
3777,E4,253.5,0.5,55,97.0
3778,C#4,253.5,0.5,55,97.0
3779,A3,253.5,0.5,55,97.0
3780,A4,253.75,0.25,95,97.0
3781,F#4,254.0,0.25,95,97.0
3782,F#4,254.0,3.0,95,97.0
3783,E1,254.0,0.75,95,97.0
3784,F#4,254.0,3.0,47,97.0
3785,D4,254.0,3.0,47,97.0
3786,B3,254.0,3.0,47,97.0
3787,G3,254.0,3.0,47,97.0
3788,D4,254.0,4.0,95,97.0
3789,B3,254.0,4.0,95,97.0
3790,F#4,254.0,0.25,47,97.0
3791,D4,254.0,0.25,47,97.0
3792,B3,254.0,0.25,47,97.0
3793,G3,254.0,0.25,47,97.0
3794,G4,254.25,0.25,95,97.0
3795,F#4,254.25,0.25,63,97.0
3796,D4,254.25,0.25,63,97.0
3797,B3,254.25,0.25,63,97.0
3798,G3,254.25,0.25,63,97.0
3799,B4,254.5,0.25,95,97.0
3800,F#4,254.5,0.25,31,97.0
3801,D4,254.5,0.25,31,97.0
3802,B3,254.5,0.25,31,97.0
3803,G3,254.5,0.25,31,97.0
3804,D5,254.75,0.25,95,97.0
3805,B1,254.75,1.0,79,97.0
3806,F#4,254.75,0.5,63,97.0
3807,D4,254.75,0.5,63,97.0
3808,B3,254.75,0.5,63,97.0
3809,G3,254.75,0.5,63,97.0
3810,F#5,255.25,0.25,95,97.0
3811,F#4,255.25,0.25,63,97.0
3812,D4,255.25,0.25,63,97.0
3813,B3,255.25,0.25,63,97.0
3814,G3,255.25,0.25,63,97.0
3815,F#4,255.5,0.25,31,97.0
3816,D4,255.5,0.25,31,97.0
3817,B3,255.5,0.25,31,97.0
3818,G3,255.5,0.25,31,97.0
3819,D5,255.75,0.5,95,97.0
3820,E1,255.75,0.125,95,97.0
3821,F#4,255.75,0.25,63,97.0
3822,D4,255.75,0.25,63,97.0
3823,B3,255.75,0.25,63,97.0
3824,G3,255.75,0.25,63,97.0
3825,E1,256.0,0.75,95,97.0
3826,F#4,256.0,0.25,47,97.0
3827,D4,256.0,0.25,47,97.0
3828,B3,256.0,0.25,47,97.0
3829,G3,256.0,0.25,47,97.0
3830,C#5,256.25,0.5,95,97.0
3831,F#4,256.25,0.25,63,97.0
3832,D4,256.25,0.25,63,97.0
3833,B3,256.25,0.25,63,97.0
3834,G3,256.25,0.25,63,97.0
3835,F#4,256.5,0.25,31,97.0
3836,D4,256.5,0.25,31,97.0
3837,B3,256.5,0.25,31,97.0
3838,G3,256.5,0.25,31,97.0
3839,A4,256.75,0.5,95,97.0
3840,E1,256.75,0.125,95,97.0
3841,F#4,256.75,0.25,63,97.0
3842,E4,256.75,0.25,63,97.0
3843,C#4,256.75,0.25,63,97.0
3844,A3,256.75,0.25,63,97.0
3845,E4,257.0,1.0,95,97.0
3846,A1,257.0,0.5,79,97.0
3847,E4,257.0,1.0,47,97.0
3848,C#4,257.0,1.0,47,97.0
3849,A3,257.0,1.0,47,97.0
3850,F#4,257.0,0.5,43,97.0
3851,E4,257.0,0.5,43,97.0
3852,C#4,257.0,0.5,43,97.0
3853,A3,257.0,0.5,43,97.0
3854,C5,257.25,0.5,95,97.0
3855,B1,257.5,0.5,79,97.0
3856,F#4,257.5,0.5,55,97.0
3857,E4,257.5,0.5,55,97.0
3858,C#4,257.5,0.5,55,97.0
3859,A3,257.5,0.5,55,97.0
3860,C#5,257.75,0.25,95,97.0
3861,B4,258.0,0.5,95,97.0
3862,F#4,258.0,3.0,95,97.0
3863,E1,258.0,0.75,95,97.0
3864,F#4,258.0,3.0,47,97.0
3865,D4,258.0,3.0,47,97.0
3866,B3,258.0,3.0,47,97.0
3867,G3,258.0,3.0,47,97.0
3868,D4,258.0,4.0,95,97.0
3869,B3,258.0,4.0,95,97.0
3870,F#4,258.0,0.25,47,97.0
3871,D4,258.0,0.25,47,97.0
3872,B3,258.0,0.25,47,97.0
3873,G3,258.0,0.25,47,97.0
3874,F#4,258.25,0.25,63,97.0
3875,D4,258.25,0.25,63,97.0
3876,B3,258.25,0.25,63,97.0
3877,G3,258.25,0.25,63,97.0
3878,D5,258.5,0.25,95,97.0
3879,F#4,258.5,0.25,31,97.0
3880,D4,258.5,0.25,31,97.0
3881,B3,258.5,0.25,31,97.0
3882,G3,258.5,0.25,31,97.0
3883,E4,258.75,0.5,95,97.0
3884,B1,258.75,1.0,79,97.0
3885,F#4,258.75,0.5,63,97.0
3886,D4,258.75,0.5,63,97.0
3887,B3,258.75,0.5,63,97.0
3888,G3,258.75,0.5,63,97.0
3889,D5,259.25,0.25,95,97.0
3890,F#4,259.25,0.25,63,97.0
3891,D4,259.25,0.25,63,97.0
3892,B3,259.25,0.25,63,97.0
3893,G3,259.25,0.25,63,97.0
3894,F#4,259.5,0.25,31,97.0
3895,D4,259.5,0.25,31,97.0
3896,B3,259.5,0.25,31,97.0
3897,G3,259.5,0.25,31,97.0
3898,E4,259.75,0.25,95,97.0
3899,E1,259.75,0.125,95,97.0
3900,F#4,259.75,0.25,63,97.0
3901,D4,259.75,0.25,63,97.0
3902,B3,259.75,0.25,63,97.0
3903,G3,259.75,0.25,63,97.0
3904,E1,260.0,0.75,95,97.0
3905,F#4,260.0,0.25,47,97.0
3906,D4,260.0,0.25,47,97.0
3907,B3,260.0,0.25,47,97.0
3908,G3,260.0,0.25,47,97.0
3909,C#5,260.25,0.25,95,97.0
3910,F#4,260.25,0.25,63,97.0
3911,D4,260.25,0.25,63,97.0
3912,B3,260.25,0.25,63,97.0
3913,G3,260.25,0.25,63,97.0
3914,D5,260.5,0.25,95,97.0
3915,F#4,260.5,0.25,31,97.0
3916,D4,260.5,0.25,31,97.0
3917,B3,260.5,0.25,31,97.0
3918,G3,260.5,0.25,31,97.0
3919,E5,260.75,0.25,95,97.0
3920,E1,260.75,0.125,95,97.0
3921,F#4,260.75,0.25,63,97.0
3922,E4,260.75,0.25,63,97.0
3923,C#4,260.75,0.25,63,97.0
3924,A3,260.75,0.25,63,97.0
3925,F#5,261.0,0.25,95,97.0
3926,E4,261.0,1.0,95,97.0
3927,A1,261.0,0.5,79,97.0
3928,E4,261.0,1.0,47,97.0
3929,C#4,261.0,1.0,47,97.0
3930,A3,261.0,1.0,47,97.0
3931,F#4,261.0,0.5,43,97.0
3932,E4,261.0,0.5,43,97.0
3933,C#4,261.0,0.5,43,97.0
3934,A3,261.0,0.5,43,97.0
3935,F#5,261.25,0.25,95,97.0
3936,E5,261.5,0.25,95,97.0
3937,B1,261.5,0.5,79,97.0
3938,F#4,261.5,0.5,55,97.0
3939,E4,261.5,0.5,55,97.0
3940,C#4,261.5,0.5,55,97.0
3941,A3,261.5,0.5,55,97.0
3942,D5,261.75,0.25,95,97.0
3943,B4,262.0,0.5,95,97.0
3944,F#4,262.0,3.0,95,97.0
3945,G1,262.0,0.75,95,97.0
3946,F#4,262.0,3.0,47,97.0
3947,D4,262.0,3.0,47,97.0
3948,B3,262.0,3.0,47,97.0
3949,G3,262.0,3.0,47,97.0
3950,D4,262.0,4.0,95,97.0
3951,B3,262.0,4.0,95,97.0
3952,F#4,262.0,0.25,47,97.0
3953,D4,262.0,0.25,47,97.0
3954,B3,262.0,0.25,47,97.0
3955,G3,262.0,0.25,47,97.0
3956,F#4,262.25,0.25,63,97.0
3957,D4,262.25,0.25,63,97.0
3958,B3,262.25,0.25,63,97.0
3959,G3,262.25,0.25,63,97.0
3960,D5,262.5,0.25,95,97.0
3961,F#4,262.5,0.25,31,97.0
3962,D4,262.5,0.25,31,97.0
3963,B3,262.5,0.25,31,97.0
3964,G3,262.5,0.25,31,97.0
3965,A4,262.75,0.5,95,97.0
3966,B1,262.75,1.0,79,97.0
3967,F#4,262.75,0.5,63,97.0
3968,D4,262.75,0.5,63,97.0
3969,B3,262.75,0.5,63,97.0
3970,G3,262.75,0.5,63,97.0
3971,E4,263.25,0.5,95,97.0
3972,F#4,263.25,0.25,63,97.0
3973,D4,263.25,0.25,63,97.0
3974,B3,263.25,0.25,63,97.0
3975,G3,263.25,0.25,63,97.0
3976,F#4,263.5,0.25,31,97.0
3977,D4,263.5,0.25,31,97.0
3978,B3,263.5,0.25,31,97.0
3979,G3,263.5,0.25,31,97.0
3980,F#4,263.75,1.0,95,97.0
3981,G1,263.75,0.125,95,97.0
3982,F#4,263.75,0.25,63,97.0
3983,D4,263.75,0.25,63,97.0
3984,B3,263.75,0.25,63,97.0
3985,G3,263.75,0.25,63,97.0
3986,G1,264.0,0.75,95,97.0
3987,F#4,264.0,0.25,47,97.0
3988,D4,264.0,0.25,47,97.0
3989,B3,264.0,0.25,47,97.0
3990,G3,264.0,0.25,47,97.0
3991,F#4,264.25,0.25,63,97.0
3992,D4,264.25,0.25,63,97.0
3993,B3,264.25,0.25,63,97.0
3994,G3,264.25,0.25,63,97.0
3995,F#4,264.5,0.25,31,97.0
3996,D4,264.5,0.25,31,97.0
3997,B3,264.5,0.25,31,97.0
3998,G3,264.5,0.25,31,97.0
3999,A1,264.75,0.75,79,97.0
4000,F#4,264.75,0.25,63,97.0
4001,E4,264.75,0.25,63,97.0
4002,C#4,264.75,0.25,63,97.0
4003,A3,264.75,0.25,63,97.0
4004,E4,265.0,1.0,95,97.0
4005,E4,265.0,1.0,47,97.0
4006,C#4,265.0,1.0,47,97.0
4007,A3,265.0,1.0,47,97.0
4008,F#4,265.0,0.5,43,97.0
4009,E4,265.0,0.5,43,97.0
4010,C#4,265.0,0.5,43,97.0
4011,A3,265.0,0.5,43,97.0
4012,A4,265.25,0.25,95,97.0
4013,G4,265.5,0.25,95,97.0
4014,F#1,265.5,0.5,79,97.0
4015,F#4,265.5,0.5,55,97.0
4016,E4,265.5,0.5,55,97.0
4017,C#4,265.5,0.5,55,97.0
4018,A3,265.5,0.5,55,97.0
4019,F#4,265.75,0.25,95,97.0
4020,F#4,266.0,1.5,95,97.0
4021,F#4,266.0,3.0,95,97.0
4022,G1,266.0,0.75,95,97.0
4023,F#4,266.0,3.0,47,97.0
4024,D4,266.0,3.0,47,97.0
4025,B3,266.0,3.0,47,97.0
4026,G3,266.0,3.0,47,97.0
4027,D4,266.0,4.0,95,97.0
4028,B3,266.0,4.0,95,97.0
4029,F#4,266.0,0.25,47,97.0
4030,D4,266.0,0.25,47,97.0
4031,B3,266.0,0.25,47,97.0
4032,G3,266.0,0.25,47,97.0
4033,F#4,266.25,0.25,63,97.0
4034,D4,266.25,0.25,63,97.0
4035,B3,266.25,0.25,63,97.0
4036,G3,266.25,0.25,63,97.0
4037,F#4,266.5,0.25,31,97.0
4038,D4,266.5,0.25,31,97.0
4039,B3,266.5,0.25,31,97.0
4040,G3,266.5,0.25,31,97.0
4041,B1,266.75,1.0,79,97.0
4042,F#4,266.75,0.5,63,97.0
4043,D4,266.75,0.5,63,97.0
4044,B3,266.75,0.5,63,97.0
4045,G3,266.75,0.5,63,97.0
4046,F#4,267.25,0.25,63,97.0
4047,D4,267.25,0.25,63,97.0
4048,B3,267.25,0.25,63,97.0
4049,G3,267.25,0.25,63,97.0
4050,F#4,267.5,0.25,31,97.0
4051,D4,267.5,0.25,31,97.0
4052,B3,267.5,0.25,31,97.0
4053,G3,267.5,0.25,31,97.0
4054,G1,267.75,0.125,95,97.0
4055,F#4,267.75,0.25,63,97.0
4056,D4,267.75,0.25,63,97.0
4057,B3,267.75,0.25,63,97.0
4058,G3,267.75,0.25,63,97.0
4059,G1,268.0,0.75,95,97.0
4060,F#4,268.0,0.25,47,97.0
4061,D4,268.0,0.25,47,97.0
4062,B3,268.0,0.25,47,97.0
4063,G3,268.0,0.25,47,97.0
4064,A3,268.25,0.125,95,97.0
4065,F#4,268.25,0.25,63,97.0
4066,D4,268.25,0.25,63,97.0
4067,B3,268.25,0.25,63,97.0
4068,G3,268.25,0.25,63,97.0
4069,G3,268.375,0.125,95,97.0
4070,F#3,268.5,0.25,95,97.0
4071,F#4,268.5,0.25,31,97.0
4072,D4,268.5,0.25,31,97.0
4073,B3,268.5,0.25,31,97.0
4074,G3,268.5,0.25,31,97.0
4075,G3,268.75,0.25,95,97.0
4076,A1,268.75,0.75,79,97.0
4077,F#4,268.75,0.25,63,97.0
4078,E4,268.75,0.25,63,97.0
4079,C#4,268.75,0.25,63,97.0
4080,A3,268.75,0.25,63,97.0
4081,A3,269.0,0.25,95,97.0
4082,E4,269.0,1.0,95,97.0
4083,E4,269.0,1.0,47,97.0
4084,C#4,269.0,1.0,47,97.0
4085,A3,269.0,1.0,47,97.0
4086,F#4,269.0,0.5,43,97.0
4087,E4,269.0,0.5,43,97.0
4088,C#4,269.0,0.5,43,97.0
4089,A3,269.0,0.5,43,97.0
4090,B3,269.25,0.25,95,97.0
4091,C#4,269.5,0.25,95,97.0
4092,F#1,269.5,0.5,79,97.0
4093,F#4,269.5,0.5,55,97.0
4094,E4,269.5,0.5,55,97.0
4095,C#4,269.5,0.5,55,97.0
4096,A3,269.5,0.5,55,97.0
4097,D4,269.75,0.25,95,97.0
4098,E4,270.0,0.25,95,97.0
4099,F#4,270.0,3.0,95,97.0
4100,C2,270.0,0.75,95,97.0
4101,E4,270.0,2.0,47,97.0
4102,C4,270.0,2.0,47,97.0
4103,G3,270.0,2.0,47,97.0
4104,D4,270.0,4.0,95,97.0
4105,B3,270.0,4.0,95,97.0
4106,G4,270.0,0.25,47,97.0
4107,D4,270.0,0.25,47,97.0
4108,C4,270.0,0.25,47,97.0
4109,G3,270.0,0.25,47,97.0
4110,F#4,270.25,0.25,95,97.0
4111,G4,270.25,0.25,63,97.0
4112,D4,270.25,0.25,63,97.0
4113,C4,270.25,0.25,63,97.0
4114,G3,270.25,0.25,63,97.0
4115,G4,270.5,0.25,95,97.0
4116,G4,270.5,0.25,31,97.0
4117,D4,270.5,0.25,31,97.0
4118,C4,270.5,0.25,31,97.0
4119,G3,270.5,0.25,31,97.0
4120,B3,270.75,0.25,95,97.0
4121,G1,270.75,1.0,95,97.0
4122,G4,270.75,0.5,63,97.0
4123,D4,270.75,0.5,63,97.0
4124,C4,270.75,0.5,63,97.0
4125,G3,270.75,0.5,63,97.0
4126,A3,271.25,0.25,95,97.0
4127,G4,271.25,0.25,63,97.0
4128,D4,271.25,0.25,63,97.0
4129,C4,271.25,0.25,63,97.0
4130,G3,271.25,0.25,63,97.0
4131,G4,271.5,0.25,31,97.0
4132,D4,271.5,0.25,31,97.0
4133,C4,271.5,0.25,31,97.0
4134,G3,271.5,0.25,31,97.0
4135,A4,271.75,0.25,95,97.0
4136,C2,271.75,0.125,95,97.0
4137,G4,271.75,0.25,63,97.0
4138,D4,271.75,0.25,63,97.0
4139,C4,271.75,0.25,63,97.0
4140,G3,271.75,0.25,63,97.0
4141,C2,272.0,0.75,95,97.0
4142,F#4,272.0,2.0,47,97.0
4143,D4,272.0,2.0,47,97.0
4144,A3,272.0,2.0,47,97.0
4145,A4,272.0,0.25,47,97.0
4146,D4,272.0,0.25,47,97.0
4147,A3,272.0,0.25,47,97.0
4148,F#3,272.0,0.25,47,97.0
4149,F#4,272.25,0.25,95,97.0
4150,A4,272.25,0.25,63,97.0
4151,D4,272.25,0.25,63,97.0
4152,A3,272.25,0.25,63,97.0
4153,F#3,272.25,0.25,63,97.0
4154,A4,272.5,0.25,31,97.0
4155,D4,272.5,0.25,31,97.0
4156,A3,272.5,0.25,31,97.0
4157,F#3,272.5,0.25,31,97.0
4158,D4,272.75,0.25,95,97.0
4159,F#1,272.75,0.75,95,97.0
4160,F#4,272.75,0.25,63,97.0
4161,D4,272.75,0.25,63,97.0
4162,A3,272.75,0.25,63,97.0
4163,F#3,272.75,0.25,63,97.0
4164,D5,273.0,0.25,95,97.0
4165,E4,273.0,1.0,95,97.0
4166,F#4,273.0,0.5,47,97.0
4167,D4,273.0,0.5,47,97.0
4168,A3,273.0,0.5,47,97.0
4169,F#3,273.0,0.5,47,97.0
4170,E5,273.25,0.25,95,97.0
4171,F#5,273.5,0.25,95,97.0
4172,F#1,273.5,0.5,79,97.0
4173,E4,273.5,0.5,47,97.0
4174,D4,273.5,0.5,47,97.0
4175,A3,273.5,0.5,47,97.0
4176,F#3,273.5,0.5,47,97.0
4177,G5,273.75,0.25,95,97.0
4178,G5,274.0,0.25,95,97.0
4179,E4,274.0,0.25,47,97.0
4180,G4,274.0,0.5,79,97.0
4181,F#4,274.0,3.0,95,97.0
4182,C2,274.0,0.75,95,97.0
4183,G4,274.0,2.0,47,97.0
4184,E4,274.0,2.0,47,97.0
4185,C4,274.0,2.0,47,97.0
4186,D4,274.0,4.0,95,97.0
4187,B3,274.0,4.0,95,97.0
4188,G4,274.0,0.25,47,97.0
4189,D4,274.0,0.25,47,97.0
4190,C4,274.0,0.25,47,97.0
4191,G3,274.0,0.25,47,97.0
4192,B4,274.25,0.25,95,97.0
4193,G4,274.25,3.75,47,97.0
4194,G4,274.25,0.25,63,97.0
4195,D4,274.25,0.25,63,97.0
4196,C4,274.25,0.25,63,97.0
4197,G3,274.25,0.25,63,97.0
4198,D5,274.5,1.5,47,97.0
4199,G4,274.5,0.25,31,97.0
4200,D4,274.5,0.25,31,97.0
4201,C4,274.5,0.25,31,97.0
4202,G3,274.5,0.25,31,97.0
4203,A4,274.75,0.25,95,97.0
4204,G1,274.75,1.0,95,97.0
4205,G4,274.75,0.5,63,97.0
4206,D4,274.75,0.5,63,97.0
4207,C4,274.75,0.5,63,97.0
4208,G3,274.75,0.5,63,97.0
4209,E5,275.25,0.25,95,97.0
4210,G4,275.25,0.25,63,97.0
4211,D4,275.25,0.25,63,97.0
4212,C4,275.25,0.25,63,97.0
4213,G3,275.25,0.25,63,97.0
4214,F#5,275.5,0.25,63,97.0
4215,G4,275.5,0.25,31,97.0
4216,D4,275.5,0.25,31,97.0
4217,C4,275.5,0.25,31,97.0
4218,G3,275.5,0.25,31,97.0
4219,D5,275.75,0.75,95,97.0
4220,C2,275.75,0.125,95,97.0
4221,G4,275.75,0.25,63,97.0
4222,D4,275.75,0.25,63,97.0
4223,C4,275.75,0.25,63,97.0
4224,G3,275.75,0.25,63,97.0
4225,E5,276.0,0.25,47,97.0
4226,B1,276.0,0.75,95,97.0
4227,F#4,276.0,2.0,47,97.0
4228,D4,276.0,2.0,47,97.0
4229,A3,276.0,2.0,47,97.0
4230,A4,276.0,0.25,47,97.0
4231,D4,276.0,0.25,47,97.0
4232,A3,276.0,0.25,47,97.0
4233,F#3,276.0,0.25,47,97.0
4234,G5,276.25,0.25,47,97.0
4235,A4,276.25,0.25,63,97.0
4236,D4,276.25,0.25,63,97.0
4237,A3,276.25,0.25,63,97.0
4238,F#3,276.25,0.25,63,97.0
4239,F#5,276.5,0.25,47,97.0
4240,A4,276.5,0.25,31,97.0
4241,D4,276.5,0.25,31,97.0
4242,A3,276.5,0.25,31,97.0
4243,F#3,276.5,0.25,31,97.0
4244,A4,276.75,0.125,95,97.0
4245,D5,276.75,1.25,47,97.0
4246,B1,276.75,0.75,95,97.0
4247,F#4,276.75,0.25,63,97.0
4248,D4,276.75,0.25,63,97.0
4249,A3,276.75,0.25,63,97.0
4250,F#3,276.75,0.25,63,97.0
4251,B4,276.875,0.125,95,97.0
4252,A4,277.0,0.25,95,97.0
4253,E4,277.0,1.0,95,97.0
4254,F#4,277.0,0.5,47,97.0
4255,D4,277.0,0.5,47,97.0
4256,A3,277.0,0.5,47,97.0
4257,F#3,277.0,0.5,47,97.0
4258,G4,277.25,0.25,95,97.0
4259,F#4,277.5,0.25,95,97.0
4260,F#1,277.5,0.5,79,97.0
4261,E4,277.5,0.5,47,97.0
4262,D4,277.5,0.5,47,97.0
4263,A3,277.5,0.5,47,97.0
4264,F#3,277.5,0.5,47,97.0
4265,E4,277.75,0.25,95,97.0
4266,E4,278.0,0.25,95,97.0
4267,E4,278.0,2.0,47,97.0
4268,F#4,278.0,3.0,95,97.0
4269,C2,278.0,0.75,95,97.0
4270,E4,278.0,2.0,47,97.0
4271,C4,278.0,2.0,47,97.0
4272,G3,278.0,2.0,47,97.0
4273,D4,278.0,4.0,95,97.0
4274,B3,278.0,4.0,95,97.0
4275,G4,278.0,0.25,47,97.0
4276,D4,278.0,0.25,47,97.0
4277,C4,278.0,0.25,47,97.0
4278,G3,278.0,0.25,47,97.0
4279,A4,278.25,0.25,95,97.0
4280,G4,278.25,0.25,63,97.0
4281,D4,278.25,0.25,63,97.0
4282,C4,278.25,0.25,63,97.0
4283,G3,278.25,0.25,63,97.0
4284,G4,278.5,0.25,31,97.0
4285,D4,278.5,0.25,31,97.0
4286,C4,278.5,0.25,31,97.0
4287,G3,278.5,0.25,31,97.0
4288,A4,278.75,0.25,79,97.0
4289,G1,278.75,1.0,95,97.0
4290,G4,278.75,0.5,63,97.0
4291,D4,278.75,0.5,63,97.0
4292,C4,278.75,0.5,63,97.0
4293,G3,278.75,0.5,63,97.0
4294,G4,279.25,0.25,63,97.0
4295,G4,279.25,0.25,63,97.0
4296,D4,279.25,0.25,63,97.0
4297,C4,279.25,0.25,63,97.0
4298,G3,279.25,0.25,63,97.0
4299,G4,279.5,0.25,31,97.0
4300,D4,279.5,0.25,31,97.0
4301,C4,279.5,0.25,31,97.0
4302,G3,279.5,0.25,31,97.0
4303,F#4,279.75,1.0,79,97.0
4304,C2,279.75,0.125,95,97.0
4305,G4,279.75,0.25,63,97.0
4306,D4,279.75,0.25,63,97.0
4307,C4,279.75,0.25,63,97.0
4308,G3,279.75,0.25,63,97.0
4309,F#4,280.0,2.0,47,97.0
4310,B1,280.0,0.75,95,97.0
4311,F#4,280.0,2.0,47,97.0
4312,D4,280.0,2.0,47,97.0
4313,A3,280.0,2.0,47,97.0
4314,A4,280.0,0.25,47,97.0
4315,D4,280.0,0.25,47,97.0
4316,A3,280.0,0.25,47,97.0
4317,F#3,280.0,0.25,47,97.0
4318,A4,280.25,0.25,63,97.0
4319,D4,280.25,0.25,63,97.0
4320,A3,280.25,0.25,63,97.0
4321,F#3,280.25,0.25,63,97.0
4322,A4,280.5,0.25,31,97.0
4323,D4,280.5,0.25,31,97.0
4324,A3,280.5,0.25,31,97.0
4325,F#3,280.5,0.25,31,97.0
4326,A3,280.75,0.25,95,97.0
4327,B1,280.75,0.75,95,97.0
4328,F#4,280.75,0.25,63,97.0
4329,D4,280.75,0.25,63,97.0
4330,A3,280.75,0.25,63,97.0
4331,F#3,280.75,0.25,63,97.0
4332,D4,281.0,0.25,95,97.0
4333,E4,281.0,1.0,95,97.0
4334,F#4,281.0,0.5,47,97.0
4335,D4,281.0,0.5,47,97.0
4336,A3,281.0,0.5,47,97.0
4337,F#3,281.0,0.5,47,97.0
4338,E4,281.25,0.25,95,97.0
4339,F#4,281.5,0.25,95,97.0
4340,F#1,281.5,0.5,79,97.0
4341,E4,281.5,0.5,47,97.0
4342,D4,281.5,0.5,47,97.0
4343,A3,281.5,0.5,47,97.0
4344,F#3,281.5,0.5,47,97.0
4345,F#4,281.75,0.25,95,97.0
4346,F#4,282.0,0.25,95,97.0
4347,F#4,282.0,0.25,47,97.0
4348,F#4,282.0,3.0,95,97.0
4349,E1,282.0,0.75,95,97.0
4350,F#4,282.0,4.0,47,97.0
4351,D4,282.0,4.0,47,97.0
4352,A3,282.0,4.0,47,97.0
4353,D4,282.0,4.0,95,97.0
4354,B3,282.0,4.0,95,97.0
4355,F#4,282.0,0.25,47,97.0
4356,D4,282.0,0.25,47,97.0
4357,B3,282.0,0.25,47,97.0
4358,G3,282.0,0.25,47,97.0
4359,D4,282.25,0.25,79,97.0
4360,G4,282.25,1.75,47,97.0
4361,F#4,282.25,0.25,63,97.0
4362,D4,282.25,0.25,63,97.0
4363,B3,282.25,0.25,63,97.0
4364,G3,282.25,0.25,63,97.0
4365,D5,282.5,0.25,47,97.0
4366,F#4,282.5,0.25,31,97.0
4367,D4,282.5,0.25,31,97.0
4368,B3,282.5,0.25,31,97.0
4369,G3,282.5,0.25,31,97.0
4370,D4,282.75,1.0,79,97.0
4371,D5,282.75,1.25,47,97.0
4372,B1,282.75,1.0,79,97.0
4373,F#4,282.75,0.5,63,97.0
4374,D4,282.75,0.5,63,97.0
4375,B3,282.75,0.5,63,97.0
4376,G3,282.75,0.5,63,97.0
4377,F#4,283.25,0.25,63,97.0
4378,D4,283.25,0.25,63,97.0
4379,B3,283.25,0.25,63,97.0
4380,G3,283.25,0.25,63,97.0
4381,F#4,283.5,0.25,31,97.0
4382,D4,283.5,0.25,31,97.0
4383,B3,283.5,0.25,31,97.0
4384,G3,283.5,0.25,31,97.0
4385,E1,283.75,0.125,95,97.0
4386,F#4,283.75,0.25,63,97.0
4387,D4,283.75,0.25,63,97.0
4388,B3,283.75,0.25,63,97.0
4389,G3,283.75,0.25,63,97.0
4390,E1,284.0,0.75,95,97.0
4391,F#6,284.0,2.0,47,97.0
4392,F#5,284.0,2.0,47,97.0
4393,F#4,284.0,0.25,47,97.0
4394,D4,284.0,0.25,47,97.0
4395,B3,284.0,0.25,47,97.0
4396,G3,284.0,0.25,47,97.0
4397,F#4,284.25,0.25,63,97.0
4398,D4,284.25,0.25,63,97.0
4399,B3,284.25,0.25,63,97.0
4400,G3,284.25,0.25,63,97.0
4401,F#4,284.5,0.25,31,97.0
4402,D4,284.5,0.25,31,97.0
4403,B3,284.5,0.25,31,97.0
4404,G3,284.5,0.25,31,97.0
4405,E4,284.75,0.125,63,97.0
4406,E1,284.75,0.125,95,97.0
4407,F#4,284.75,0.25,63,97.0
4408,E4,284.75,0.25,63,97.0
4409,C#4,284.75,0.25,63,97.0
4410,A3,284.75,0.25,63,97.0
4411,D4,284.875,0.125,79,97.0
4412,C#4,285.0,0.25,95,97.0
4413,E4,285.0,1.0,95,97.0
4414,A1,285.0,0.5,79,97.0
4415,F#4,285.0,0.5,43,97.0
4416,E4,285.0,0.5,43,97.0
4417,C#4,285.0,0.5,43,97.0
4418,A3,285.0,0.5,43,97.0
4419,D4,285.25,0.25,95,97.0
4420,B3,285.5,0.25,79,97.0
4421,B1,285.5,0.5,79,97.0
4422,F#4,285.5,0.5,55,97.0
4423,E4,285.5,0.5,55,97.0
4424,C#4,285.5,0.5,55,97.0
4425,A3,285.5,0.5,55,97.0
4426,C#4,285.75,0.25,63,97.0
4427,A3,286.0,0.5,63,97.0
4428,F#4,286.0,3.0,95,97.0
4429,E1,286.0,0.75,95,97.0
4430,F#4,286.0,2.0,47,97.0
4431,D4,286.0,2.0,47,97.0
4432,A3,286.0,2.0,47,97.0
4433,D6,286.0,4.0,63,97.0
4434,D5,286.0,4.0,63,97.0
4435,D4,286.0,4.0,95,97.0
4436,B3,286.0,4.0,95,97.0
4437,F#4,286.0,0.25,47,97.0
4438,D4,286.0,0.25,47,97.0
4439,B3,286.0,0.25,47,97.0
4440,G3,286.0,0.25,47,97.0
4441,F#4,286.25,0.25,63,97.0
4442,D4,286.25,0.25,63,97.0
4443,B3,286.25,0.25,63,97.0
4444,G3,286.25,0.25,63,97.0
4445,F#3,286.5,0.25,63,97.0
4446,F#4,286.5,0.25,31,97.0
4447,D4,286.5,0.25,31,97.0
4448,B3,286.5,0.25,31,97.0
4449,G3,286.5,0.25,31,97.0
4450,A3,286.75,0.5,79,97.0
4451,F#1,286.75,1.0,95,97.0
4452,F#4,286.75,0.5,63,97.0
4453,D4,286.75,0.5,63,97.0
4454,B3,286.75,0.5,63,97.0
4455,G3,286.75,0.5,63,97.0
4456,B3,287.25,0.5,95,97.0
4457,F#4,287.25,0.25,63,97.0
4458,D4,287.25,0.25,63,97.0
4459,B3,287.25,0.25,63,97.0
4460,G3,287.25,0.25,63,97.0
4461,F#4,287.5,0.25,31,97.0
4462,D4,287.5,0.25,31,97.0
4463,B3,287.5,0.25,31,97.0
4464,G3,287.5,0.25,31,97.0
4465,B3,287.75,1.0,95,97.0
4466,B1,287.75,0.125,95,97.0
4467,F#4,287.75,0.25,63,97.0
4468,E4,287.75,0.25,63,97.0
4469,C#4,287.75,0.25,63,97.0
4470,A3,287.75,0.25,63,97.0
4471,B1,288.0,0.75,95,97.0
4472,E4,288.0,2.0,59,97.0
4473,C#4,288.0,2.0,59,97.0
4474,B3,288.0,2.0,59,97.0
4475,F#3,288.0,2.0,59,97.0
4476,F#4,288.0,0.25,47,97.0
4477,E4,288.0,0.25,47,97.0
4478,C#4,288.0,0.25,47,97.0
4479,A3,288.0,0.25,47,97.0
4480,F#4,288.25,0.25,63,97.0
4481,E4,288.25,0.25,63,97.0
4482,C#4,288.25,0.25,63,97.0
4483,A3,288.25,0.25,63,97.0
4484,F#4,288.5,0.25,31,97.0
4485,E4,288.5,0.25,31,97.0
4486,C#4,288.5,0.25,31,97.0
4487,A3,288.5,0.25,31,97.0
4488,D4,288.75,0.125,63,97.0
4489,F#1,288.75,0.75,95,97.0
4490,F#4,288.75,0.25,63,97.0
4491,E4,288.75,0.25,63,97.0
4492,C#4,288.75,0.25,63,97.0
4493,A3,288.75,0.25,63,97.0
4494,E4,288.875,0.125,79,97.0
4495,C#4,289.0,0.25,95,97.0
4496,E4,289.0,1.0,95,97.0
4497,F#4,289.0,0.5,43,97.0
4498,E4,289.0,0.5,43,97.0
4499,C#4,289.0,0.5,43,97.0
4500,A3,289.0,0.5,43,97.0
4501,D4,289.25,0.25,95,97.0
4502,E4,289.5,0.25,95,97.0
4503,F#1,289.5,0.5,95,97.0
4504,F#4,289.5,0.5,55,97.0
4505,E4,289.5,0.5,55,97.0
4506,C#4,289.5,0.5,55,97.0
4507,A3,289.5,0.5,55,97.0
4508,F#4,289.75,0.25,95,97.0
4509,A4,290.0,0.5,111,97.0
4510,F#4,290.0,3.0,95,97.0
4511,B1,290.0,0.75,95,97.0
4512,E4,290.0,2.0,63,97.0
4513,C#4,290.0,2.0,63,97.0
4514,A3,290.0,2.0,63,97.0
4515,D4,290.0,4.0,95,97.0
4516,B3,290.0,4.0,95,97.0
4517,E4,290.0,0.25,47,97.0
4518,C#4,290.0,0.25,47,97.0
4519,A3,290.0,0.25,47,97.0
4520,E4,290.25,0.25,63,97.0
4521,C#4,290.25,0.25,63,97.0
4522,A3,290.25,0.25,63,97.0
4523,C#5,290.5,0.25,111,97.0
4524,E4,290.5,0.25,31,97.0
4525,C#4,290.5,0.25,31,97.0
4526,A3,290.5,0.25,31,97.0
4527,A4,290.75,1.0,111,97.0
4528,F#1,290.75,0.25,95,97.0
4529,E4,290.75,0.5,63,97.0
4530,C#4,290.75,0.5,63,97.0
4531,A3,290.75,0.5,63,97.0
4532,A1,291.25,0.25,95,97.0
4533,E4,291.25,0.25,63,97.0
4534,C#4,291.25,0.25,63,97.0
4535,A3,291.25,0.25,63,97.0
4536,E4,291.5,0.25,31,97.0
4537,C#4,291.5,0.25,31,97.0
4538,A3,291.5,0.25,31,97.0
4539,A1,291.75,0.25,95,97.0
4540,E4,291.75,0.25,63,97.0
4541,C#4,291.75,0.25,63,97.0
4542,A3,291.75,0.25,63,97.0
4543,D2,292.0,0.75,95,97.0
4544,F#4,292.0,1.0,79,97.0
4545,D4,292.0,1.0,79,97.0
4546,A3,292.0,1.0,79,97.0
4547,D5,292.0,1.0,63,97.0
4548,D4,292.0,1.0,63,97.0
4549,F#4,292.0,1.0,95,97.0
4550,D4,292.0,1.0,95,97.0
4551,A3,292.0,1.0,95,97.0
4552,G1,292.75,0.25,95,97.0
4553,E4,293.0,1.0,95,97.0
4554,G1,293.0,1.0,95,97.0
4555,D4,293.0,1.0,95,97.0
4556,B3,293.0,1.0,95,97.0
4557,G3,293.0,1.0,95,97.0
4558,B4,293.0,1.0,63,97.0
4559,B3,293.0,1.0,63,97.0
4560,G4,293.0,1.0,95,97.0
4561,D4,293.0,1.0,95,97.0
4562,B3,293.0,1.0,95,97.0
4563,B-4,294.0,0.75,95,97.0
4564,A4,294.0,2.0,47,97.0
4565,F#4,294.0,3.0,95,97.0
4566,C2,294.0,1.25,95,97.0
4567,E4,294.0,1.25,63,97.0
4568,D4,294.0,1.25,63,97.0
4569,C4,294.0,1.25,63,97.0
4570,G3,294.0,1.25,63,97.0
4571,D4,294.0,4.0,95,97.0
4572,B3,294.0,4.0,95,97.0
4573,C4,294.0,1.75,79,97.0
4574,G3,294.0,1.75,79,97.0
4575,C3,294.0,1.75,79,97.0
4576,A4,294.75,0.5,95,97.0
4577,G4,295.25,0.5,95,97.0
4578,C2,295.25,0.25,95,97.0
4579,E4,295.25,0.125,63,97.0
4580,D4,295.25,0.125,63,97.0
4581,C4,295.25,0.125,63,97.0
4582,G3,295.25,0.125,63,97.0
4583,G4,295.75,0.75,95,97.0
4584,E1,295.75,0.25,95,97.0
4585,G4,295.75,2.25,63,97.0
4586,E4,295.75,2.25,63,97.0
4587,D4,295.75,2.25,63,97.0
4588,B3,295.75,2.25,63,97.0
4589,G3,295.75,1.25,63,97.0
4590,E3,295.75,1.25,63,97.0
4591,F#4,296.0,1.0,63,97.0
4592,E1,296.0,1.0,95,97.0
4593,F#4,296.5,0.25,95,97.0
4594,E4,296.75,0.25,95,97.0
4595,D4,297.0,1.0,95,97.0
4596,G4,297.0,1.0,63,97.0
4597,E4,297.0,1.0,95,97.0
4598,A1,297.0,1.0,95,97.0
4599,D4,297.0,1.0,63,97.0
4600,A3,297.0,1.0,63,97.0
4601,D3,297.0,1.0,63,97.0
4602,C6,298.0,0.75,63,97.0
4603,C2,298.0,1.25,95,97.0
4604,E4,298.0,1.25,63,97.0
4605,D4,298.0,1.25,63,97.0
4606,C4,298.0,1.25,63,97.0
4607,G3,298.0,1.25,63,97.0
4608,E4,298.0,2.0,95,97.0
4609,C4,298.0,2.0,95,97.0
4610,G3,298.0,2.0,95,97.0
4611,C4,298.0,1.75,79,97.0
4612,G3,298.0,1.75,79,97.0
4613,C3,298.0,1.75,79,97.0
4614,F4,298.75,0.5,95,97.0
4615,B5,298.75,0.5,63,97.0
4616,D5,299.25,0.5,95,97.0
4617,G5,299.25,0.5,63,97.0
4618,C2,299.25,0.25,95,97.0
4619,E4,299.25,0.125,63,97.0
4620,D4,299.25,0.125,63,97.0
4621,C4,299.25,0.125,63,97.0
4622,G3,299.25,0.125,63,97.0
4623,C5,299.75,1.25,95,97.0
4624,G5,299.75,0.75,63,97.0
4625,E1,299.75,0.25,95,97.0
4626,G4,299.75,2.25,63,97.0
4627,E4,299.75,2.25,63,97.0
4628,D4,299.75,2.25,63,97.0
4629,B3,299.75,2.25,63,97.0
4630,G3,299.75,1.25,63,97.0
4631,E3,299.75,1.25,63,97.0
4632,E1,300.0,1.0,95,97.0
4633,F#4,300.0,2.0,95,97.0
4634,D4,300.0,2.0,95,97.0
4635,A3,300.0,2.0,95,97.0
4636,F#5,300.5,0.25,63,97.0
4637,E5,300.75,0.25,63,97.0
4638,A4,301.0,0.5,95,97.0
4639,D5,301.0,1.0,63,97.0
4640,A1,301.0,1.0,95,97.0
4641,D4,301.0,1.0,63,97.0
4642,A3,301.0,1.0,63,97.0
4643,D3,301.0,1.0,63,97.0
4644,F4,301.5,0.25,95,97.0
4645,F#4,301.75,0.25,95,97.0
4646,E4,302.0,0.75,95,97.0
4647,C2,302.0,0.75,95,97.0
4648,E4,302.0,1.25,63,97.0
4649,D4,302.0,1.25,63,97.0
4650,C4,302.0,1.25,63,97.0
4651,G3,302.0,1.25,63,97.0
4652,G4,302.0,2.0,63,97.0
4653,E4,302.0,2.0,63,97.0
4654,D4,302.0,2.0,63,97.0
4655,C4,302.0,2.0,63,97.0
4656,E4,302.0,2.0,95,97.0
4657,C4,302.0,2.0,95,97.0
4658,G3,302.0,2.0,95,97.0
4659,C4,302.0,1.75,63,97.0
4660,G3,302.0,1.75,63,97.0
4661,C3,302.0,1.75,63,97.0
4662,E4,302.75,0.5,95,97.0
4663,G1,302.75,0.25,63,97.0
4664,A1,303.0,0.25,95,97.0
4665,G4,303.25,0.5,95,97.0
4666,B1,303.25,0.25,79,97.0
4667,E4,303.25,0.125,63,97.0
4668,D4,303.25,0.125,63,97.0
4669,C4,303.25,0.125,63,97.0
4670,G3,303.25,0.125,63,97.0
4671,A1,303.5,0.25,63,97.0
4672,D4,303.75,1.5,95,97.0
4673,G1,303.75,0.25,95,97.0
4674,D4,303.75,2.25,63,97.0
4675,B3,303.75,2.25,63,97.0
4676,A3,303.75,2.25,63,97.0
4677,G3,303.75,2.25,63,97.0
4678,G3,303.75,2.25,63,97.0
4679,D3,303.75,2.25,63,97.0
4680,G2,303.75,2.25,63,97.0
4681,G1,304.0,0.75,95,97.0
4682,F#4,304.0,2.0,95,97.0
4683,D4,304.0,2.0,95,97.0
4684,A3,304.0,2.0,95,97.0
4685,D4,304.75,0.25,79,97.0
4686,G1,304.75,0.25,95,97.0
4687,D4,305.0,0.5,79,97.0
4688,A1,305.0,0.5,95,97.0
4689,B1,305.5,0.5,95,97.0
4690,C2,306.0,0.75,95,97.0
4691,E4,306.0,1.25,63,97.0
4692,D4,306.0,1.25,63,97.0
4693,C4,306.0,1.25,63,97.0
4694,G3,306.0,1.25,63,97.0
4695,G4,306.0,2.0,63,97.0
4696,E4,306.0,2.0,63,97.0
4697,D4,306.0,2.0,63,97.0
4698,C4,306.0,2.0,63,97.0
4699,E4,306.0,2.0,95,97.0
4700,C4,306.0,2.0,95,97.0
4701,G3,306.0,2.0,95,97.0
4702,C4,306.0,1.75,63,97.0
4703,G3,306.0,1.75,63,97.0
4704,C3,306.0,1.75,63,97.0
4705,G4,306.75,0.5,95,97.0
4706,G1,306.75,0.25,63,97.0
4707,A1,307.0,0.25,95,97.0
4708,A4,307.25,0.25,95,97.0
4709,B1,307.25,0.25,79,97.0
4710,E4,307.25,0.125,63,97.0
4711,D4,307.25,0.125,63,97.0
4712,C4,307.25,0.125,63,97.0
4713,G3,307.25,0.125,63,97.0
4714,G4,307.5,0.25,47,97.0
4715,A1,307.5,0.25,63,97.0
4716,A4,307.75,1.5,95,97.0
4717,G1,307.75,0.25,95,97.0
4718,F#4,307.75,2.25,63,97.0
4719,E4,307.75,2.25,63,97.0
4720,D4,307.75,2.25,63,97.0
4721,A3,307.75,2.25,63,97.0
4722,G3,307.75,2.25,63,97.0
4723,D3,307.75,2.25,63,97.0
4724,G2,307.75,2.25,63,97.0
4725,G1,308.0,0.75,95,97.0
4726,F#4,308.0,2.0,95,97.0
4727,D4,308.0,2.0,95,97.0
4728,A3,308.0,2.0,95,97.0
4729,G1,308.75,0.25,95,97.0
4730,A1,309.0,0.5,95,97.0
4731,B1,309.5,0.5,95,97.0
4732,F4,310.0,0.75,95,97.0
4733,F#4,310.0,3.0,95,97.0
4734,C2,310.0,0.75,95,97.0
4735,E4,310.0,1.25,63,97.0
4736,D4,310.0,1.25,63,97.0
4737,C4,310.0,1.25,63,97.0
4738,G3,310.0,1.25,63,97.0
4739,G4,310.0,2.0,63,97.0
4740,E4,310.0,2.0,63,97.0
4741,D4,310.0,2.0,63,97.0
4742,C4,310.0,2.0,63,97.0
4743,D4,310.0,4.0,95,97.0
4744,B3,310.0,4.0,95,97.0
4745,C4,310.0,1.75,63,97.0
4746,G3,310.0,1.75,63,97.0
4747,C3,310.0,1.75,63,97.0
4748,B-4,310.75,0.5,95,97.0
4749,G1,310.75,0.25,63,97.0
4750,C5,310.75,0.5,63,97.0
4751,G4,310.75,0.5,63,97.0
4752,A1,311.0,0.25,95,97.0
4753,A4,311.25,0.5,95,97.0
4754,B1,311.25,0.25,79,97.0
4755,E4,311.25,0.125,63,97.0
4756,D4,311.25,0.125,63,97.0
4757,C4,311.25,0.125,63,97.0
4758,G3,311.25,0.125,63,97.0
4759,B4,311.25,0.5,63,97.0
4760,G4,311.25,0.5,63,97.0
4761,A1,311.5,0.25,63,97.0
4762,A4,311.75,1.0,95,97.0
4763,G1,311.75,0.25,95,97.0
4764,F#4,311.75,2.25,63,97.0
4765,E4,311.75,2.25,63,97.0
4766,D4,311.75,2.25,63,97.0
4767,A3,311.75,2.25,63,97.0
4768,A4,311.75,2.0,63,97.0
4769,F#4,311.75,2.0,63,97.0
4770,G3,311.75,2.25,63,97.0
4771,D3,311.75,2.25,63,97.0
4772,G2,311.75,2.25,63,97.0
4773,G1,312.0,0.75,95,97.0
4774,D5,312.75,0.75,95,97.0
4775,G1,312.75,0.25,95,97.0
4776,E4,313.0,1.0,95,97.0
4777,G1,313.0,0.25,95,97.0
4778,F1,313.25,0.25,95,97.0
4779,E5,313.5,0.25,95,97.0
4780,A1,313.5,0.25,95,97.0
4781,F#5,313.75,0.25,95,97.0
4782,B1,313.75,0.25,95,97.0
4783,G5,314.0,0.75,95,97.0
4784,G5,314.0,0.75,95,97.0
4785,F#4,314.0,3.0,95,97.0
4786,E2,314.0,0.75,95,97.0
4787,G4,314.0,1.0,63,97.0
4788,E4,314.0,1.0,63,97.0
4789,B3,314.0,1.0,63,97.0
4790,G4,314.0,2.0,63,97.0
4791,E4,314.0,2.0,63,97.0
4792,D4,314.0,2.0,63,97.0
4793,C4,314.0,2.0,63,97.0
4794,D4,314.0,4.0,95,97.0
4795,B3,314.0,4.0,95,97.0
4796,E3,314.0,0.75,63,97.0
4797,B2,314.0,0.75,63,97.0
4798,G5,314.75,0.5,95,97.0
4799,G5,314.75,0.5,95,97.0
4800,D2,314.75,0.5,95,97.0
4801,D3,314.75,0.5,63,97.0
4802,A2,314.75,0.5,63,97.0
4803,F#4,315.0,1.0,63,97.0
4804,D4,315.0,1.0,63,97.0
4805,A3,315.0,1.0,63,97.0
4806,F#5,315.25,0.5,95,97.0
4807,F#5,315.25,0.5,95,97.0
4808,B1,315.25,0.5,95,97.0
4809,G3,315.25,0.5,63,97.0
4810,C3,315.25,0.5,63,97.0
4811,E5,315.75,0.5,95,97.0
4812,E5,315.75,0.5,95,97.0
4813,C2,315.75,1.0,95,97.0
4814,G3,315.75,1.0,63,97.0
4815,C3,315.75,1.0,63,97.0
4816,E4,316.0,1.0,63,97.0
4817,D4,316.0,1.0,63,97.0
4818,C4,316.0,1.0,63,97.0
4819,G3,316.0,1.0,63,97.0
4820,D5,316.25,0.5,95,97.0
4821,D5,316.25,0.5,95,97.0
4822,G4,316.75,0.75,95,97.0
4823,G4,316.75,1.25,95,97.0
4824,B2,316.75,1.25,63,97.0
4825,B1,316.75,0.25,95,97.0
4826,E4,317.0,1.0,95,97.0
4827,B1,317.0,0.5,95,97.0
4828,D4,317.0,1.0,63,97.0
4829,B3,317.0,1.0,63,97.0
4830,A3,317.0,1.0,63,97.0
4831,G3,317.0,1.0,63,97.0
4832,A4,317.5,0.25,95,97.0
4833,C2,317.5,0.25,95,97.0
4834,B4,317.75,0.25,95,97.0
4835,B1,317.75,0.25,95,97.0
4836,C5,318.0,0.75,95,97.0
4837,G4,318.0,0.75,63,97.0
4838,C3,318.0,2.0,63,97.0
4839,A1,318.0,1.75,95,97.0
4840,G4,318.0,1.25,63,97.0
4841,E4,318.0,1.25,63,97.0
4842,C4,318.0,1.25,63,97.0
4843,F#4,318.0,2.0,95,97.0
4844,E4,318.0,2.0,95,97.0
4845,C#4,318.0,2.0,95,97.0
4846,B4,318.75,0.5,95,97.0
4847,G4,318.75,0.5,63,97.0
4848,G4,319.25,0.5,95,97.0
4849,F#4,319.25,0.5,63,97.0
4850,G4,319.25,0.125,63,97.0
4851,E4,319.25,0.125,63,97.0
4852,C4,319.25,0.125,63,97.0
4853,A4,319.75,1.5,95,97.0
4854,E4,319.75,1.25,63,97.0
4855,D2,319.75,0.25,95,97.0
4856,F#4,319.75,2.25,63,97.0
4857,D4,319.75,2.25,63,97.0
4858,A3,319.75,2.25,63,97.0
4859,A2,320.0,1.5,63,97.0
4860,D2,320.0,2.0,95,97.0
4861,F#4,320.0,1.0,95,97.0
4862,D4,320.0,1.0,95,97.0
4863,A3,320.0,1.0,95,97.0
4864,D4,321.0,1.0,63,97.0
4865,G4,321.0,1.0,95,97.0
4866,D4,321.0,1.0,95,97.0
4867,B3,321.0,1.0,95,97.0
4868,G4,321.5,0.25,95,97.0
4869,A2,321.5,0.25,95,97.0
4870,F#4,321.75,0.25,95,97.0
4871,B2,321.75,0.25,95,97.0
4872,E4,322.0,1.0,95,97.0
4873,C3,322.0,4.0,95,97.0
4874,C2,322.0,1.0,95,97.0
4875,E4,322.0,1.75,95,97.0
4876,C4,322.0,1.75,95,97.0
4877,G3,322.0,1.75,95,97.0
4878,D2,323.0,0.25,95,97.0
4879,C2,323.25,2.75,95,97.0
4880,E4,323.75,2.25,95,97.0
4881,B3,323.75,2.25,95,97.0
4882,G3,323.75,2.25,95,97.0
4883,C3,326.0,4.0,95,97.0
4884,C2,326.0,0.75,95,97.0
4885,C6,326.0,0.75,47,97.0
4886,C5,326.0,0.75,47,97.0
4887,E4,326.0,1.75,95,97.0
4888,C4,326.0,1.75,95,97.0
4889,G3,326.0,1.75,95,97.0
4890,F2,326.75,3.25,95,97.0
4891,B5,326.75,0.75,47,97.0
4892,B4,326.75,0.75,47,97.0
4893,G5,327.5,2.0,47,97.0
4894,G4,327.5,2.0,47,97.0
4895,E4,327.75,2.25,95,97.0
4896,B3,327.75,2.25,95,97.0
4897,G3,327.75,2.25,95,97.0
4898,G3,328.0,0.75,79,97.0
4899,G3,328.75,0.75,79,97.0
4900,F#3,329.5,0.5,47,97.0
4901,G3,330.0,0.75,95,97.0
4902,C2,330.0,4.0,95,97.0
4903,F2,330.0,2.5,95,97.0
4904,E4,330.0,1.75,95,97.0
4905,C4,330.0,1.75,95,97.0
4906,G3,330.0,1.75,95,97.0
4907,D4,330.75,1.25,95,97.0
4908,D4,331.75,2.25,95,97.0
4909,B3,331.75,2.25,95,97.0
4910,G3,331.75,2.25,95,97.0
4911,B3,332.0,0.75,95,97.0
4912,G3,332.5,0.5,95,97.0
4913,G3,332.75,1.25,95,97.0
4914,G3,333.0,0.25,95,97.0
4915,C3,333.25,0.5,95,97.0
4916,D3,333.75,0.25,95,97.0
4917,D4,334.0,2.0,95,97.0
4918,D3,334.0,0.25,95,97.0
4919,E4,334.0,1.75,95,97.0
4920,C4,334.0,1.75,95,97.0
4921,G3,334.0,1.75,95,97.0
4922,C3,334.25,0.25,95,97.0
4923,E2,334.5,1.5,95,97.0
4924,D4,335.75,2.25,95,97.0
4925,A3,335.75,2.25,95,97.0
4926,F#3,335.75,2.25,95,97.0
4927,E1,336.0,0.25,95,97.0
4928,D4,336.0,0.75,79,97.0
4929,B3,336.0,0.75,79,97.0
4930,G1,336.25,0.25,95,97.0
4931,E1,336.5,0.25,95,97.0
4932,D2,336.75,0.75,95,97.0
4933,A3,336.75,1.25,79,97.0
4934,F#3,336.75,1.25,79,97.0
4935,F#1,337.5,0.25,95,97.0
4936,G1,337.75,0.25,95,97.0
4937,G3,338.0,2.0,63,97.0
4938,E1,338.0,0.75,95,97.0
4939,A4,338.0,3.0,47,97.0
4940,D4,338.0,3.0,47,97.0
4941,B3,338.0,3.0,47,97.0
4942,G3,338.0,3.0,47,97.0
4943,E4,338.0,1.75,95,97.0
4944,C4,338.0,1.75,95,97.0
4945,G3,338.0,1.75,95,97.0
4946,F#4,338.0,0.25,47,97.0
4947,D4,338.0,0.25,47,97.0
4948,B3,338.0,0.25,47,97.0
4949,G3,338.0,0.25,47,97.0
4950,F#4,338.25,0.25,63,97.0
4951,D4,338.25,0.25,63,97.0
4952,B3,338.25,0.25,63,97.0
4953,G3,338.25,0.25,63,97.0
4954,F#4,338.5,0.25,31,97.0
4955,D4,338.5,0.25,31,97.0
4956,B3,338.5,0.25,31,97.0
4957,G3,338.5,0.25,31,97.0
4958,B1,338.75,1.0,79,97.0
4959,F#4,338.75,0.5,63,97.0
4960,D4,338.75,0.5,63,97.0
4961,B3,338.75,0.5,63,97.0
4962,G3,338.75,0.5,63,97.0
4963,F#4,339.25,0.25,63,97.0
4964,D4,339.25,0.25,63,97.0
4965,B3,339.25,0.25,63,97.0
4966,G3,339.25,0.25,63,97.0
4967,F#4,339.5,0.25,31,97.0
4968,D4,339.5,0.25,31,97.0
4969,B3,339.5,0.25,31,97.0
4970,G3,339.5,0.25,31,97.0
4971,E1,339.75,0.125,95,97.0
4972,D4,339.75,2.25,95,97.0
4973,A3,339.75,2.25,95,97.0
4974,F#3,339.75,2.25,95,97.0
4975,F#4,339.75,0.25,63,97.0
4976,D4,339.75,0.25,63,97.0
4977,B3,339.75,0.25,63,97.0
4978,G3,339.75,0.25,63,97.0
4979,E1,340.0,0.75,95,97.0
4980,D4,340.0,0.75,63,97.0
4981,B3,340.0,0.75,63,97.0
4982,F#4,340.0,0.25,47,97.0
4983,D4,340.0,0.25,47,97.0
4984,B3,340.0,0.25,47,97.0
4985,G3,340.0,0.25,47,97.0
4986,F#4,340.25,0.25,63,97.0
4987,D4,340.25,0.25,63,97.0
4988,B3,340.25,0.25,63,97.0
4989,G3,340.25,0.25,63,97.0
4990,F#4,340.5,0.25,31,97.0
4991,D4,340.5,0.25,31,97.0
4992,B3,340.5,0.25,31,97.0
4993,G3,340.5,0.25,31,97.0
4994,E1,340.75,0.125,95,97.0
4995,A3,340.75,1.25,63,97.0
4996,F#3,340.75,1.25,63,97.0
4997,F#4,340.75,0.25,63,97.0
4998,E4,340.75,0.25,63,97.0
4999,C#4,340.75,0.25,63,97.0
5000,A3,340.75,0.25,63,97.0
5001,A1,341.0,0.5,79,97.0
5002,E4,341.0,1.0,47,97.0
5003,C#4,341.0,1.0,47,97.0
5004,A3,341.0,1.0,47,97.0
5005,F#4,341.0,0.5,43,97.0
5006,E4,341.0,0.5,43,97.0
5007,C#4,341.0,0.5,43,97.0
5008,A3,341.0,0.5,43,97.0
5009,B1,341.5,0.5,79,97.0
5010,F#4,341.5,0.5,55,97.0
5011,E4,341.5,0.5,55,97.0
5012,C#4,341.5,0.5,55,97.0
5013,A3,341.5,0.5,55,97.0
5014,F#4,342.0,3.0,47,97.0
5015,E1,342.0,0.75,95,97.0
5016,F#4,342.0,3.0,47,97.0
5017,D4,342.0,3.0,47,97.0
5018,B3,342.0,3.0,47,97.0
5019,G3,342.0,3.0,47,97.0
5020,G4,342.0,0.75,95,97.0
5021,E4,342.0,0.75,95,97.0
5022,B3,342.0,0.75,95,97.0
5023,F#4,342.0,0.25,47,97.0
5024,D4,342.0,0.25,47,97.0
5025,B3,342.0,0.25,47,97.0
5026,G3,342.0,0.25,47,97.0
5027,F#4,342.25,0.25,63,97.0
5028,D4,342.25,0.25,63,97.0
5029,B3,342.25,0.25,63,97.0
5030,G3,342.25,0.25,63,97.0
5031,F#4,342.5,0.25,31,97.0
5032,D4,342.5,0.25,31,97.0
5033,B3,342.5,0.25,31,97.0
5034,G3,342.5,0.25,31,97.0
5035,F#4,342.75,1.25,95,97.0
5036,B1,342.75,1.0,79,97.0
5037,D4,342.75,1.0,95,97.0
5038,A3,342.75,1.0,95,97.0
5039,F#4,342.75,0.5,63,97.0
5040,D4,342.75,0.5,63,97.0
5041,B3,342.75,0.5,63,97.0
5042,G3,342.75,0.5,63,97.0
5043,F#4,343.25,0.25,63,97.0
5044,D4,343.25,0.25,63,97.0
5045,B3,343.25,0.25,63,97.0
5046,G3,343.25,0.25,63,97.0
5047,F#4,343.5,0.25,31,97.0
5048,D4,343.5,0.25,31,97.0
5049,B3,343.5,0.25,31,97.0
5050,G3,343.5,0.25,31,97.0
5051,E1,343.75,0.125,95,97.0
5052,F#4,343.75,0.25,63,97.0
5053,D4,343.75,0.25,63,97.0
5054,B3,343.75,0.25,63,97.0
5055,G3,343.75,0.25,63,97.0
5056,E1,344.0,0.75,95,97.0
5057,E4,344.0,0.75,95,97.0
5058,C4,344.0,0.75,95,97.0
5059,G3,344.0,0.75,95,97.0
5060,F#4,344.0,0.25,47,97.0
5061,D4,344.0,0.25,47,97.0
5062,B3,344.0,0.25,47,97.0
5063,G3,344.0,0.25,47,97.0
5064,F#4,344.25,0.25,63,97.0
5065,D4,344.25,0.25,63,97.0
5066,B3,344.25,0.25,63,97.0
5067,G3,344.25,0.25,63,97.0
5068,F#4,344.5,0.25,31,97.0
5069,D4,344.5,0.25,31,97.0
5070,B3,344.5,0.25,31,97.0
5071,G3,344.5,0.25,31,97.0
5072,E1,344.75,0.125,95,97.0
5073,D4,344.75,1.25,95,97.0
5074,B3,344.75,1.25,95,97.0
5075,G3,344.75,1.25,95,97.0
5076,F#4,344.75,0.25,63,97.0
5077,E4,344.75,0.25,63,97.0
5078,C#4,344.75,0.25,63,97.0
5079,A3,344.75,0.25,63,97.0
5080,E4,345.0,1.0,47,97.0
5081,A1,345.0,0.5,79,97.0
5082,E4,345.0,1.0,47,97.0
5083,C#4,345.0,1.0,47,97.0
5084,A3,345.0,1.0,47,97.0
5085,F#4,345.0,0.5,43,97.0
5086,E4,345.0,0.5,43,97.0
5087,C#4,345.0,0.5,43,97.0
5088,A3,345.0,0.5,43,97.0
5089,B1,345.5,0.5,79,97.0
5090,F#4,345.5,0.5,55,97.0
5091,E4,345.5,0.5,55,97.0
5092,C#4,345.5,0.5,55,97.0
5093,A3,345.5,0.5,55,97.0
5094,D4,346.0,3.0,47,97.0
5095,G1,346.0,0.75,95,97.0
5096,F#4,346.0,3.0,47,97.0
5097,D4,346.0,3.0,47,97.0
5098,B3,346.0,3.0,47,97.0
5099,G3,346.0,3.0,47,97.0
5100,E4,346.0,1.75,95,97.0
5101,C4,346.0,1.75,95,97.0
5102,G3,346.0,1.75,95,97.0
5103,F#4,346.0,0.25,47,97.0
5104,D4,346.0,0.25,47,97.0
5105,B3,346.0,0.25,47,97.0
5106,G3,346.0,0.25,47,97.0
5107,F#4,346.25,0.25,63,97.0
5108,D4,346.25,0.25,63,97.0
5109,B3,346.25,0.25,63,97.0
5110,G3,346.25,0.25,63,97.0
5111,F#4,346.5,0.25,31,97.0
5112,D4,346.5,0.25,31,97.0
5113,B3,346.5,0.25,31,97.0
5114,G3,346.5,0.25,31,97.0
5115,B1,346.75,1.0,79,97.0
5116,F#4,346.75,0.5,63,97.0
5117,D4,346.75,0.5,63,97.0
5118,B3,346.75,0.5,63,97.0
5119,G3,346.75,0.5,63,97.0
5120,F#4,347.25,0.25,63,97.0
5121,D4,347.25,0.25,63,97.0
5122,B3,347.25,0.25,63,97.0
5123,G3,347.25,0.25,63,97.0
5124,F#4,347.5,0.25,31,97.0
5125,D4,347.5,0.25,31,97.0
5126,B3,347.5,0.25,31,97.0
5127,G3,347.5,0.25,31,97.0
5128,G1,347.75,0.125,95,97.0
5129,D4,347.75,2.25,95,97.0
5130,A3,347.75,2.25,95,97.0
5131,F#3,347.75,2.25,95,97.0
5132,F#4,347.75,0.25,63,97.0
5133,D4,347.75,0.25,63,97.0
5134,B3,347.75,0.25,63,97.0
5135,G3,347.75,0.25,63,97.0
5136,G1,348.0,0.75,95,97.0
5137,F#4,348.0,0.25,47,97.0
5138,D4,348.0,0.25,47,97.0
5139,B3,348.0,0.25,47,97.0
5140,G3,348.0,0.25,47,97.0
5141,F#4,348.25,0.25,63,97.0
5142,D4,348.25,0.25,63,97.0
5143,B3,348.25,0.25,63,97.0
5144,G3,348.25,0.25,63,97.0
5145,F#4,348.5,0.25,31,97.0
5146,D4,348.5,0.25,31,97.0
5147,B3,348.5,0.25,31,97.0
5148,G3,348.5,0.25,31,97.0
5149,A1,348.75,0.75,79,97.0
5150,F#4,348.75,0.25,63,97.0
5151,E4,348.75,0.25,63,97.0
5152,C#4,348.75,0.25,63,97.0
5153,A3,348.75,0.25,63,97.0
5154,E4,349.0,1.0,47,97.0
5155,E4,349.0,1.0,47,97.0
5156,C#4,349.0,1.0,47,97.0
5157,A3,349.0,1.0,47,97.0
5158,F#4,349.0,0.5,43,97.0
5159,E4,349.0,0.5,43,97.0
5160,C#4,349.0,0.5,43,97.0
5161,A3,349.0,0.5,43,97.0
5162,F#1,349.5,0.5,79,97.0
5163,F#4,349.5,0.5,55,97.0
5164,E4,349.5,0.5,55,97.0
5165,C#4,349.5,0.5,55,97.0
5166,A3,349.5,0.5,55,97.0
5167,F#4,350.0,0.75,63,97.0
5168,G1,350.0,0.75,95,97.0
5169,F#4,350.0,3.0,47,97.0
5170,D4,350.0,3.0,47,97.0
5171,B3,350.0,3.0,47,97.0
5172,G3,350.0,3.0,47,97.0
5173,C4,350.0,4.0,79,97.0
5174,G3,350.0,4.0,79,97.0
5175,F#4,350.0,0.25,47,97.0
5176,D4,350.0,0.25,47,97.0
5177,B3,350.0,0.25,47,97.0
5178,G3,350.0,0.25,47,97.0
5179,F#4,350.25,0.25,63,97.0
5180,D4,350.25,0.25,63,97.0
5181,B3,350.25,0.25,63,97.0
5182,G3,350.25,0.25,63,97.0
5183,F#4,350.5,0.25,31,97.0
5184,D4,350.5,0.25,31,97.0
5185,B3,350.5,0.25,31,97.0
5186,G3,350.5,0.25,31,97.0
5187,A4,350.75,2.0,63,97.0
5188,B1,350.75,1.0,79,97.0
5189,F#4,350.75,0.5,63,97.0
5190,D4,350.75,0.5,63,97.0
5191,B3,350.75,0.5,63,97.0
5192,G3,350.75,0.5,63,97.0
5193,F#4,351.25,0.25,63,97.0
5194,D4,351.25,0.25,63,97.0
5195,B3,351.25,0.25,63,97.0
5196,G3,351.25,0.25,63,97.0
5197,F#4,351.5,0.25,31,97.0
5198,D4,351.5,0.25,31,97.0
5199,B3,351.5,0.25,31,97.0
5200,G3,351.5,0.25,31,97.0
5201,G1,351.75,0.125,95,97.0
5202,F#4,351.75,0.25,63,97.0
5203,D4,351.75,0.25,63,97.0
5204,B3,351.75,0.25,63,97.0
5205,G3,351.75,0.25,63,97.0
5206,G1,352.0,0.75,95,97.0
5207,F#4,352.0,0.25,47,97.0
5208,D4,352.0,0.25,47,97.0
5209,B3,352.0,0.25,47,97.0
5210,G3,352.0,0.25,47,97.0
5211,F#4,352.25,0.25,63,97.0
5212,D4,352.25,0.25,63,97.0
5213,B3,352.25,0.25,63,97.0
5214,G3,352.25,0.25,63,97.0
5215,F#4,352.5,0.25,31,97.0
5216,D4,352.5,0.25,31,97.0
5217,B3,352.5,0.25,31,97.0
5218,G3,352.5,0.25,31,97.0
5219,E4,352.75,1.25,47,97.0
5220,A1,352.75,0.75,79,97.0
5221,F#4,352.75,0.25,63,97.0
5222,E4,352.75,0.25,63,97.0
5223,C#4,352.75,0.25,63,97.0
5224,A3,352.75,0.25,63,97.0
5225,E4,353.0,1.0,47,97.0
5226,C#4,353.0,1.0,47,97.0
5227,A3,353.0,1.0,47,97.0
5228,F#4,353.0,0.5,43,97.0
5229,E4,353.0,0.5,43,97.0
5230,C#4,353.0,0.5,43,97.0
5231,A3,353.0,0.5,43,97.0
5232,F#1,353.5,0.5,79,97.0
5233,F#4,353.5,0.5,55,97.0
5234,E4,353.5,0.5,55,97.0
5235,C#4,353.5,0.5,55,97.0
5236,A3,353.5,0.5,55,97.0
5237,D4,354.0,3.0,63,97.0
5238,E1,354.0,0.75,95,97.0
5239,F#4,354.0,3.0,47,97.0
5240,D4,354.0,3.0,47,97.0
5241,B3,354.0,3.0,47,97.0
5242,G3,354.0,3.0,47,97.0
5243,F#4,354.0,0.25,47,97.0
5244,D4,354.0,0.25,47,97.0
5245,B3,354.0,0.25,47,97.0
5246,G3,354.0,0.25,47,97.0
5247,F#4,354.25,0.25,63,97.0
5248,D4,354.25,0.25,63,97.0
5249,B3,354.25,0.25,63,97.0
5250,G3,354.25,0.25,63,97.0
5251,F#4,354.5,0.25,31,97.0
5252,D4,354.5,0.25,31,97.0
5253,B3,354.5,0.25,31,97.0
5254,G3,354.5,0.25,31,97.0
5255,F#3,354.75,0.25,95,97.0
5256,B1,354.75,1.0,79,97.0
5257,F#4,354.75,0.5,63,97.0
5258,D4,354.75,0.5,63,97.0
5259,B3,354.75,0.5,63,97.0
5260,G3,354.75,0.5,63,97.0
5261,A3,355.0,0.25,95,97.0
5262,D4,355.25,0.25,95,97.0
5263,F#4,355.25,0.25,63,97.0
5264,D4,355.25,0.25,63,97.0
5265,B3,355.25,0.25,63,97.0
5266,G3,355.25,0.25,63,97.0
5267,D4,355.5,0.25,95,97.0
5268,F#4,355.5,0.25,31,97.0
5269,D4,355.5,0.25,31,97.0
5270,B3,355.5,0.25,31,97.0
5271,G3,355.5,0.25,31,97.0
5272,B3,355.75,0.25,95,97.0
5273,E1,355.75,0.125,95,97.0
5274,F#4,355.75,0.25,63,97.0
5275,D4,355.75,0.25,63,97.0
5276,B3,355.75,0.25,63,97.0
5277,G3,355.75,0.25,63,97.0
5278,C4,356.0,0.25,95,97.0
5279,E1,356.0,0.75,95,97.0
5280,F#4,356.0,0.25,47,97.0
5281,D4,356.0,0.25,47,97.0
5282,B3,356.0,0.25,47,97.0
5283,G3,356.0,0.25,47,97.0
5284,E4,356.25,0.25,95,97.0
5285,F#4,356.25,0.25,63,97.0
5286,D4,356.25,0.25,63,97.0
5287,B3,356.25,0.25,63,97.0
5288,G3,356.25,0.25,63,97.0
5289,F#4,356.5,0.25,95,97.0
5290,F#4,356.5,0.25,31,97.0
5291,D4,356.5,0.25,31,97.0
5292,B3,356.5,0.25,31,97.0
5293,G3,356.5,0.25,31,97.0
5294,F#4,356.75,0.5,95,97.0
5295,E1,356.75,0.125,95,97.0
5296,F#4,356.75,0.25,63,97.0
5297,E4,356.75,0.25,63,97.0
5298,C#4,356.75,0.25,63,97.0
5299,A3,356.75,0.25,63,97.0
5300,E4,357.0,1.0,63,97.0
5301,A1,357.0,0.5,79,97.0
5302,E4,357.0,1.0,47,97.0
5303,C#4,357.0,1.0,47,97.0
5304,A3,357.0,1.0,47,97.0
5305,F#4,357.0,0.5,43,97.0
5306,E4,357.0,0.5,43,97.0
5307,C#4,357.0,0.5,43,97.0
5308,A3,357.0,0.5,43,97.0
5309,B3,357.25,0.25,95,97.0
5310,D4,357.5,0.25,95,97.0
5311,B1,357.5,0.5,79,97.0
5312,F#4,357.5,0.5,55,97.0
5313,E4,357.5,0.5,55,97.0
5314,C#4,357.5,0.5,55,97.0
5315,A3,357.5,0.5,55,97.0
5316,D4,357.75,0.25,95,97.0
5317,D4,358.0,0.5,95,97.0
5318,F#4,358.0,2.75,63,97.0
5319,E1,358.0,0.75,95,97.0
5320,F#4,358.0,3.0,47,97.0
5321,D4,358.0,3.0,47,97.0
5322,B3,358.0,3.0,47,97.0
5323,G3,358.0,3.0,47,97.0
5324,F#4,358.0,0.25,47,97.0
5325,D4,358.0,0.25,47,97.0
5326,B3,358.0,0.25,47,97.0
5327,G3,358.0,0.25,47,97.0
5328,F#4,358.25,0.25,63,97.0
5329,D4,358.25,0.25,63,97.0
5330,B3,358.25,0.25,63,97.0
5331,G3,358.25,0.25,63,97.0
5332,F#4,358.5,0.25,31,97.0
5333,D4,358.5,0.25,31,97.0
5334,B3,358.5,0.25,31,97.0
5335,G3,358.5,0.25,31,97.0
5336,B1,358.75,1.0,79,97.0
5337,F#4,358.75,0.5,63,97.0
5338,D4,358.75,0.5,63,97.0
5339,B3,358.75,0.5,63,97.0
5340,G3,358.75,0.5,63,97.0
5341,A3,359.0,0.25,95,97.0
5342,C#4,359.25,0.25,95,97.0
5343,F#4,359.25,0.25,63,97.0
5344,D4,359.25,0.25,63,97.0
5345,B3,359.25,0.25,63,97.0
5346,G3,359.25,0.25,63,97.0
5347,D4,359.5,0.25,95,97.0
5348,F#4,359.5,0.25,31,97.0
5349,D4,359.5,0.25,31,97.0
5350,B3,359.5,0.25,31,97.0
5351,G3,359.5,0.25,31,97.0
5352,D4,359.75,0.5,95,97.0
5353,E1,359.75,0.125,95,97.0
5354,F#4,359.75,0.25,63,97.0
5355,D4,359.75,0.25,63,97.0
5356,B3,359.75,0.25,63,97.0
5357,G3,359.75,0.25,63,97.0
5358,E1,360.0,0.75,95,97.0
5359,F#4,360.0,0.25,47,97.0
5360,D4,360.0,0.25,47,97.0
5361,B3,360.0,0.25,47,97.0
5362,G3,360.0,0.25,47,97.0
5363,D4,360.25,0.5,95,97.0
5364,F#4,360.25,0.25,63,97.0
5365,D4,360.25,0.25,63,97.0
5366,B3,360.25,0.25,63,97.0
5367,G3,360.25,0.25,63,97.0
5368,F#4,360.5,0.25,31,97.0
5369,D4,360.5,0.25,31,97.0
5370,B3,360.5,0.25,31,97.0
5371,G3,360.5,0.25,31,97.0
5372,C#4,360.75,0.5,95,97.0
5373,E4,360.75,1.25,63,97.0
5374,E1,360.75,0.125,95,97.0
5375,F#4,360.75,0.25,63,97.0
5376,E4,360.75,0.25,63,97.0
5377,C#4,360.75,0.25,63,97.0
5378,A3,360.75,0.25,63,97.0
5379,A1,361.0,0.5,79,97.0
5380,E4,361.0,1.0,47,97.0
5381,C#4,361.0,1.0,47,97.0
5382,A3,361.0,1.0,47,97.0
5383,F#4,361.0,0.5,43,97.0
5384,E4,361.0,0.5,43,97.0
5385,C#4,361.0,0.5,43,97.0
5386,A3,361.0,0.5,43,97.0
5387,A3,361.25,0.5,95,97.0
5388,B1,361.5,0.5,79,97.0
5389,F#4,361.5,0.5,55,97.0
5390,E4,361.5,0.5,55,97.0
5391,C#4,361.5,0.5,55,97.0
5392,A3,361.5,0.5,55,97.0
5393,A3,361.75,0.25,95,97.0
5394,A3,362.0,0.5,95,97.0
5395,G1,362.0,0.75,95,97.0
5396,F#4,362.0,3.0,47,97.0
5397,D4,362.0,3.0,47,97.0
5398,B3,362.0,3.0,47,97.0
5399,G3,362.0,3.0,47,97.0
5400,F#4,362.0,0.25,47,97.0
5401,D4,362.0,0.25,47,97.0
5402,B3,362.0,0.25,47,97.0
5403,G3,362.0,0.25,47,97.0
5404,F#4,362.25,0.25,63,97.0
5405,D4,362.25,0.25,63,97.0
5406,B3,362.25,0.25,63,97.0
5407,G3,362.25,0.25,63,97.0
5408,F#4,362.5,0.25,31,97.0
5409,D4,362.5,0.25,31,97.0
5410,B3,362.5,0.25,31,97.0
5411,G3,362.5,0.25,31,97.0
5412,B1,362.75,1.0,79,97.0
5413,F#4,362.75,0.5,63,97.0
5414,D4,362.75,0.5,63,97.0
5415,B3,362.75,0.5,63,97.0
5416,G3,362.75,0.5,63,97.0
5417,F#3,363.0,0.25,95,97.0
5418,G3,363.25,0.25,95,97.0
5419,F#4,363.25,0.25,63,97.0
5420,D4,363.25,0.25,63,97.0
5421,B3,363.25,0.25,63,97.0
5422,G3,363.25,0.25,63,97.0
5423,G3,363.5,0.25,95,97.0
5424,F#4,363.5,0.25,31,97.0
5425,D4,363.5,0.25,31,97.0
5426,B3,363.5,0.25,31,97.0
5427,G3,363.5,0.25,31,97.0
5428,A3,363.75,0.5,95,97.0
5429,G1,363.75,0.125,95,97.0
5430,F#4,363.75,0.25,63,97.0
5431,D4,363.75,0.25,63,97.0
5432,B3,363.75,0.25,63,97.0
5433,G3,363.75,0.25,63,97.0
5434,G1,364.0,0.75,95,97.0
5435,F#4,364.0,0.25,47,97.0
5436,D4,364.0,0.25,47,97.0
5437,B3,364.0,0.25,47,97.0
5438,G3,364.0,0.25,47,97.0
5439,D4,364.25,0.5,95,97.0
5440,F#4,364.25,0.25,63,97.0
5441,D4,364.25,0.25,63,97.0
5442,B3,364.25,0.25,63,97.0
5443,G3,364.25,0.25,63,97.0
5444,F#4,364.5,0.25,31,97.0
5445,D4,364.5,0.25,31,97.0
5446,B3,364.5,0.25,31,97.0
5447,G3,364.5,0.25,31,97.0
5448,C#4,364.75,0.5,95,97.0
5449,A1,364.75,0.75,79,97.0
5450,F#4,364.75,0.25,63,97.0
5451,E4,364.75,0.25,63,97.0
5452,C#4,364.75,0.25,63,97.0
5453,A3,364.75,0.25,63,97.0
5454,E4,365.0,1.0,47,97.0
5455,C#4,365.0,1.0,47,97.0
5456,A3,365.0,1.0,47,97.0
5457,F#4,365.0,0.5,43,97.0
5458,E4,365.0,0.5,43,97.0
5459,C#4,365.0,0.5,43,97.0
5460,A3,365.0,0.5,43,97.0
5461,A3,365.25,0.5,95,97.0
5462,F#1,365.5,0.5,79,97.0
5463,F#4,365.5,0.5,55,97.0
5464,E4,365.5,0.5,55,97.0
5465,C#4,365.5,0.5,55,97.0
5466,A3,365.5,0.5,55,97.0
5467,A3,365.75,0.25,79,97.0
5468,A3,366.0,0.25,79,97.0
5469,G1,366.0,0.75,95,97.0
5470,F#4,366.0,3.0,47,97.0
5471,D4,366.0,3.0,47,97.0
5472,B3,366.0,3.0,47,97.0
5473,G3,366.0,3.0,47,97.0
5474,C4,366.0,4.0,79,97.0
5475,G3,366.0,4.0,79,97.0
5476,F#4,366.0,0.25,47,97.0
5477,D4,366.0,0.25,47,97.0
5478,B3,366.0,0.25,47,97.0
5479,G3,366.0,0.25,47,97.0
5480,B3,366.25,2.0,63,97.0
5481,F#4,366.25,0.25,63,97.0
5482,D4,366.25,0.25,63,97.0
5483,B3,366.25,0.25,63,97.0
5484,G3,366.25,0.25,63,97.0
5485,F#4,366.5,0.25,31,97.0
5486,D4,366.5,0.25,31,97.0
5487,B3,366.5,0.25,31,97.0
5488,G3,366.5,0.25,31,97.0
5489,B1,366.75,1.0,79,97.0
5490,F#4,366.75,0.5,63,97.0
5491,D4,366.75,0.5,63,97.0
5492,B3,366.75,0.5,63,97.0
5493,G3,366.75,0.5,63,97.0
5494,F#4,367.25,0.25,63,97.0
5495,D4,367.25,0.25,63,97.0
5496,B3,367.25,0.25,63,97.0
5497,G3,367.25,0.25,63,97.0
5498,F#4,367.5,0.25,31,97.0
5499,D4,367.5,0.25,31,97.0
5500,B3,367.5,0.25,31,97.0
5501,G3,367.5,0.25,31,97.0
5502,G1,367.75,0.125,95,97.0
5503,F#4,367.75,0.25,63,97.0
5504,D4,367.75,0.25,63,97.0
5505,B3,367.75,0.25,63,97.0
5506,G3,367.75,0.25,63,97.0
5507,G1,368.0,0.75,95,97.0
5508,F#4,368.0,0.25,47,97.0
5509,D4,368.0,0.25,47,97.0
5510,B3,368.0,0.25,47,97.0
5511,G3,368.0,0.25,47,97.0
5512,F#4,368.25,0.25,63,97.0
5513,D4,368.25,0.25,63,97.0
5514,B3,368.25,0.25,63,97.0
5515,G3,368.25,0.25,63,97.0
5516,F#4,368.5,0.25,31,97.0
5517,D4,368.5,0.25,31,97.0
5518,B3,368.5,0.25,31,97.0
5519,G3,368.5,0.25,31,97.0
5520,A1,368.75,0.75,79,97.0
5521,F#4,368.75,0.25,63,97.0
5522,E4,368.75,0.25,63,97.0
5523,C#4,368.75,0.25,63,97.0
5524,A3,368.75,0.25,63,97.0
5525,E4,369.0,1.0,47,97.0
5526,C#4,369.0,1.0,47,97.0
5527,A3,369.0,1.0,47,97.0
5528,F#4,369.0,0.5,43,97.0
5529,E4,369.0,0.5,43,97.0
5530,C#4,369.0,0.5,43,97.0
5531,A3,369.0,0.5,43,97.0
5532,F#1,369.5,0.5,79,97.0
5533,F#4,369.5,0.5,55,97.0
5534,E4,369.5,0.5,55,97.0
5535,C#4,369.5,0.5,55,97.0
5536,A3,369.5,0.5,55,97.0
5537,E1,370.0,0.75,95,97.0
5538,F#4,370.0,3.0,47,97.0
5539,D4,370.0,3.0,47,97.0
5540,B3,370.0,3.0,47,97.0
5541,G3,370.0,3.0,47,97.0
5542,F#4,370.0,0.25,47,97.0
5543,D4,370.0,0.25,47,97.0
5544,B3,370.0,0.25,47,97.0
5545,G3,370.0,0.25,47,97.0
5546,F#4,370.25,0.25,63,97.0
5547,D4,370.25,0.25,63,97.0
5548,B3,370.25,0.25,63,97.0
5549,G3,370.25,0.25,63,97.0
5550,F#4,370.5,0.25,31,97.0
5551,D4,370.5,0.25,31,97.0
5552,B3,370.5,0.25,31,97.0
5553,G3,370.5,0.25,31,97.0
5554,F3,370.75,0.25,63,97.0
5555,B1,370.75,1.0,79,97.0
5556,F#4,370.75,0.5,63,97.0
5557,D4,370.75,0.5,63,97.0
5558,B3,370.75,0.5,63,97.0
5559,G3,370.75,0.5,63,97.0
5560,B3,371.0,0.25,79,97.0
5561,D4,371.25,0.25,95,97.0
5562,F#4,371.25,0.25,63,97.0
5563,D4,371.25,0.25,63,97.0
5564,B3,371.25,0.25,63,97.0
5565,G3,371.25,0.25,63,97.0
5566,D4,371.5,0.25,95,97.0
5567,F#4,371.5,0.25,31,97.0
5568,D4,371.5,0.25,31,97.0
5569,B3,371.5,0.25,31,97.0
5570,G3,371.5,0.25,31,97.0
5571,B3,371.75,0.25,95,97.0
5572,E1,371.75,0.125,95,97.0
5573,F#4,371.75,0.25,63,97.0
5574,D4,371.75,0.25,63,97.0
5575,B3,371.75,0.25,63,97.0
5576,G3,371.75,0.25,63,97.0
5577,D4,372.0,0.25,95,97.0
5578,E1,372.0,0.75,95,97.0
5579,F#4,372.0,0.25,47,97.0
5580,D4,372.0,0.25,47,97.0
5581,B3,372.0,0.25,47,97.0
5582,G3,372.0,0.25,47,97.0
5583,F#4,372.25,0.25,95,97.0
5584,F#4,372.25,0.25,63,97.0
5585,D4,372.25,0.25,63,97.0
5586,B3,372.25,0.25,63,97.0
5587,G3,372.25,0.25,63,97.0
5588,A4,372.5,0.25,95,97.0
5589,F#4,372.5,0.25,31,97.0
5590,D4,372.5,0.25,31,97.0
5591,B3,372.5,0.25,31,97.0
5592,G3,372.5,0.25,31,97.0
5593,G4,372.75,0.5,95,97.0
5594,E1,372.75,0.125,95,97.0
5595,F#4,372.75,0.25,63,97.0
5596,E4,372.75,0.25,63,97.0
5597,C#4,372.75,0.25,63,97.0
5598,A3,372.75,0.25,63,97.0
5599,A1,373.0,0.5,79,97.0
5600,E4,373.0,1.0,47,97.0
5601,C#4,373.0,1.0,47,97.0
5602,A3,373.0,1.0,47,97.0
5603,F#4,373.0,0.5,43,97.0
5604,E4,373.0,0.5,43,97.0
5605,C#4,373.0,0.5,43,97.0
5606,A3,373.0,0.5,43,97.0
5607,B4,373.25,0.25,95,97.0
5608,D5,373.5,0.25,95,97.0
5609,B1,373.5,0.5,79,97.0
5610,F#4,373.5,0.5,55,97.0
5611,E4,373.5,0.5,55,97.0
5612,C#4,373.5,0.5,55,97.0
5613,A3,373.5,0.5,55,97.0
5614,B4,373.75,0.25,95,97.0
5615,B4,374.0,0.5,95,97.0
5616,E1,374.0,0.75,95,97.0
5617,F#4,374.0,3.0,47,97.0
5618,D4,374.0,3.0,47,97.0
5619,B3,374.0,3.0,47,97.0
5620,G3,374.0,3.0,47,97.0
5621,F#4,374.0,0.25,47,97.0
5622,D4,374.0,0.25,47,97.0
5623,B3,374.0,0.25,47,97.0
5624,G3,374.0,0.25,47,97.0
5625,F#4,374.25,0.25,63,97.0
5626,D4,374.25,0.25,63,97.0
5627,B3,374.25,0.25,63,97.0
5628,G3,374.25,0.25,63,97.0
5629,F#4,374.5,0.25,31,97.0
5630,D4,374.5,0.25,31,97.0
5631,B3,374.5,0.25,31,97.0
5632,G3,374.5,0.25,31,97.0
5633,B1,374.75,1.0,79,97.0
5634,F#4,374.75,0.5,63,97.0
5635,D4,374.75,0.5,63,97.0
5636,B3,374.75,0.5,63,97.0
5637,G3,374.75,0.5,63,97.0
5638,A4,375.0,0.25,95,97.0
5639,C#5,375.25,0.25,95,97.0
5640,F#4,375.25,0.25,63,97.0
5641,D4,375.25,0.25,63,97.0
5642,B3,375.25,0.25,63,97.0
5643,G3,375.25,0.25,63,97.0
5644,D5,375.5,0.25,111,97.0
5645,F#4,375.5,0.25,31,97.0
5646,D4,375.5,0.25,31,97.0
5647,B3,375.5,0.25,31,97.0
5648,G3,375.5,0.25,31,97.0
5649,D5,375.75,0.5,127,97.0
5650,E1,375.75,0.125,95,97.0
5651,F#4,375.75,0.25,63,97.0
5652,D4,375.75,0.25,63,97.0
5653,B3,375.75,0.25,63,97.0
5654,G3,375.75,0.25,63,97.0
5655,E1,376.0,0.75,95,97.0
5656,F#4,376.0,0.25,47,97.0
5657,D4,376.0,0.25,47,97.0
5658,B3,376.0,0.25,47,97.0
5659,G3,376.0,0.25,47,97.0
5660,E5,376.25,0.5,111,97.0
5661,F#4,376.25,0.25,63,97.0
5662,D4,376.25,0.25,63,97.0
5663,B3,376.25,0.25,63,97.0
5664,G3,376.25,0.25,63,97.0
5665,F#4,376.5,0.25,31,97.0
5666,D4,376.5,0.25,31,97.0
5667,B3,376.5,0.25,31,97.0
5668,G3,376.5,0.25,31,97.0
5669,C#5,376.75,0.5,95,97.0
5670,E1,376.75,0.125,95,97.0
5671,F#4,376.75,0.25,63,97.0
5672,E4,376.75,0.25,63,97.0
5673,C#4,376.75,0.25,63,97.0
5674,A3,376.75,0.25,63,97.0
5675,A1,377.0,0.5,79,97.0
5676,E4,377.0,1.0,47,97.0
5677,C#4,377.0,1.0,47,97.0
5678,A3,377.0,1.0,47,97.0
5679,F#4,377.0,0.5,43,97.0
5680,E4,377.0,0.5,43,97.0
5681,C#4,377.0,0.5,43,97.0
5682,A3,377.0,0.5,43,97.0
5683,A4,377.25,0.5,79,97.0
5684,B1,377.5,0.5,79,97.0
5685,F#4,377.5,0.5,55,97.0
5686,E4,377.5,0.5,55,97.0
5687,C#4,377.5,0.5,55,97.0
5688,A3,377.5,0.5,55,97.0
5689,A4,377.75,0.25,63,97.0
5690,A4,378.0,0.5,63,97.0
5691,G1,378.0,0.75,95,97.0
5692,F#4,378.0,3.0,47,97.0
5693,D4,378.0,3.0,47,97.0
5694,B3,378.0,3.0,47,97.0
5695,G3,378.0,3.0,47,97.0
5696,C4,378.0,4.0,79,97.0
5697,G3,378.0,4.0,79,97.0
5698,F#4,378.0,0.25,47,97.0
5699,D4,378.0,0.25,47,97.0
5700,B3,378.0,0.25,47,97.0
5701,G3,378.0,0.25,47,97.0
5702,F#4,378.25,0.25,63,97.0
5703,D4,378.25,0.25,63,97.0
5704,B3,378.25,0.25,63,97.0
5705,G3,378.25,0.25,63,97.0
5706,F#4,378.5,0.25,31,97.0
5707,D4,378.5,0.25,31,97.0
5708,B3,378.5,0.25,31,97.0
5709,G3,378.5,0.25,31,97.0
5710,B1,378.75,1.0,79,97.0
5711,F#4,378.75,0.5,63,97.0
5712,D4,378.75,0.5,63,97.0
5713,B3,378.75,0.5,63,97.0
5714,G3,378.75,0.5,63,97.0
5715,E4,379.0,0.25,95,97.0
5716,G4,379.25,0.25,95,97.0
5717,F#4,379.25,0.25,63,97.0
5718,D4,379.25,0.25,63,97.0
5719,B3,379.25,0.25,63,97.0
5720,G3,379.25,0.25,63,97.0
5721,A4,379.5,0.25,95,97.0
5722,F#4,379.5,0.25,31,97.0
5723,D4,379.5,0.25,31,97.0
5724,B3,379.5,0.25,31,97.0
5725,G3,379.5,0.25,31,97.0
5726,A4,379.75,0.5,95,97.0
5727,G1,379.75,0.125,95,97.0
5728,F#4,379.75,0.25,63,97.0
5729,D4,379.75,0.25,63,97.0
5730,B3,379.75,0.25,63,97.0
5731,G3,379.75,0.25,63,97.0
5732,G1,380.0,0.75,95,97.0
5733,F#4,380.0,0.25,47,97.0
5734,D4,380.0,0.25,47,97.0
5735,B3,380.0,0.25,47,97.0
5736,G3,380.0,0.25,47,97.0
5737,A4,380.25,0.5,95,97.0
5738,F#4,380.25,0.25,63,97.0
5739,D4,380.25,0.25,63,97.0
5740,B3,380.25,0.25,63,97.0
5741,G3,380.25,0.25,63,97.0
5742,F#4,380.5,0.25,31,97.0
5743,D4,380.5,0.25,31,97.0
5744,B3,380.5,0.25,31,97.0
5745,G3,380.5,0.25,31,97.0
5746,D4,380.75,0.5,95,97.0
5747,A1,380.75,0.75,79,97.0
5748,F#4,380.75,0.25,63,97.0
5749,E4,380.75,0.25,63,97.0
5750,C#4,380.75,0.25,63,97.0
5751,A3,380.75,0.25,63,97.0
5752,E4,381.0,1.0,47,97.0
5753,C#4,381.0,1.0,47,97.0
5754,A3,381.0,1.0,47,97.0
5755,F#4,381.0,0.5,43,97.0
5756,E4,381.0,0.5,43,97.0
5757,C#4,381.0,0.5,43,97.0
5758,A3,381.0,0.5,43,97.0
5759,E4,381.25,0.5,95,97.0
5760,F#1,381.5,0.5,79,97.0
5761,F#4,381.5,0.5,55,97.0
5762,E4,381.5,0.5,55,97.0
5763,C#4,381.5,0.5,55,97.0
5764,A3,381.5,0.5,55,97.0
5765,F#4,381.75,0.125,63,97.0
5766,G4,381.875,0.125,47,97.0
5767,G4,382.0,0.25,47,97.0
5768,G1,382.0,0.75,95,97.0
5769,F#4,382.0,3.0,47,97.0
5770,D4,382.0,3.0,47,97.0
5771,B3,382.0,3.0,47,97.0
5772,G3,382.0,3.0,47,97.0
5773,F#4,382.0,0.25,47,97.0
5774,D4,382.0,0.25,47,97.0
5775,B3,382.0,0.25,47,97.0
5776,G3,382.0,0.25,47,97.0
5777,E4,382.25,0.25,95,97.0
5778,F#4,382.25,0.25,63,97.0
5779,D4,382.25,0.25,63,97.0
5780,B3,382.25,0.25,63,97.0
5781,G3,382.25,0.25,63,97.0
5782,F#4,382.5,2.0,95,97.0
5783,F#4,382.5,0.25,31,97.0
5784,D4,382.5,0.25,31,97.0
5785,B3,382.5,0.25,31,97.0
5786,G3,382.5,0.25,31,97.0
5787,B1,382.75,1.0,79,97.0
5788,F#4,382.75,0.5,63,97.0
5789,D4,382.75,0.5,63,97.0
5790,B3,382.75,0.5,63,97.0
5791,G3,382.75,0.5,63,97.0
5792,F#4,383.25,0.25,63,97.0
5793,D4,383.25,0.25,63,97.0
5794,B3,383.25,0.25,63,97.0
5795,G3,383.25,0.25,63,97.0
5796,F#4,383.5,0.25,31,97.0
5797,D4,383.5,0.25,31,97.0
5798,B3,383.5,0.25,31,97.0
5799,G3,383.5,0.25,31,97.0
5800,G1,383.75,0.125,95,97.0
5801,F#4,383.75,0.25,63,97.0
5802,D4,383.75,0.25,63,97.0
5803,B3,383.75,0.25,63,97.0
5804,G3,383.75,0.25,63,97.0
5805,G1,384.0,0.75,95,97.0
5806,F#4,384.0,0.25,47,97.0
5807,D4,384.0,0.25,47,97.0
5808,B3,384.0,0.25,47,97.0
5809,G3,384.0,0.25,47,97.0
5810,F#4,384.25,0.25,63,97.0
5811,D4,384.25,0.25,63,97.0
5812,B3,384.25,0.25,63,97.0
5813,G3,384.25,0.25,63,97.0
5814,F#4,384.5,0.25,31,97.0
5815,D4,384.5,0.25,31,97.0
5816,B3,384.5,0.25,31,97.0
5817,G3,384.5,0.25,31,97.0
5818,A1,384.75,0.75,79,97.0
5819,F#4,384.75,0.25,63,97.0
5820,E4,384.75,0.25,63,97.0
5821,C#4,384.75,0.25,63,97.0
5822,A3,384.75,0.25,63,97.0
5823,E4,385.0,1.0,47,97.0
5824,C#4,385.0,1.0,47,97.0
5825,A3,385.0,1.0,47,97.0
5826,F#4,385.0,0.5,43,97.0
5827,E4,385.0,0.5,43,97.0
5828,C#4,385.0,0.5,43,97.0
5829,A3,385.0,0.5,43,97.0
5830,F#1,385.5,0.5,79,97.0
5831,F#4,385.5,0.5,55,97.0
5832,E4,385.5,0.5,55,97.0
5833,C#4,385.5,0.5,55,97.0
5834,A3,385.5,0.5,55,97.0
5835,C2,386.0,0.75,95,97.0
5836,E4,386.0,2.0,47,97.0
5837,C4,386.0,2.0,47,97.0
5838,G3,386.0,2.0,47,97.0
5839,C4,386.0,4.0,79,97.0
5840,G3,386.0,4.0,79,97.0
5841,G4,386.0,0.25,47,97.0
5842,D4,386.0,0.25,47,97.0
5843,C4,386.0,0.25,47,97.0
5844,G3,386.0,0.25,47,97.0
5845,G4,386.25,0.25,63,97.0
5846,D4,386.25,0.25,63,97.0
5847,C4,386.25,0.25,63,97.0
5848,G3,386.25,0.25,63,97.0
5849,G4,386.5,0.25,31,97.0
5850,D4,386.5,0.25,31,97.0
5851,C4,386.5,0.25,31,97.0
5852,G3,386.5,0.25,31,97.0
5853,G1,386.75,1.0,95,97.0
5854,G4,386.75,0.5,63,97.0
5855,D4,386.75,0.5,63,97.0
5856,C4,386.75,0.5,63,97.0
5857,G3,386.75,0.5,63,97.0
5858,D4,387.0,0.25,95,97.0
5859,G4,387.25,0.25,95,97.0
5860,G4,387.25,0.25,63,97.0
5861,D4,387.25,0.25,63,97.0
5862,C4,387.25,0.25,63,97.0
5863,G3,387.25,0.25,63,97.0
5864,G4,387.5,0.25,95,97.0
5865,G4,387.5,0.25,31,97.0
5866,D4,387.5,0.25,31,97.0
5867,C4,387.5,0.25,31,97.0
5868,G3,387.5,0.25,31,97.0
5869,E4,387.75,0.25,95,97.0
5870,C2,387.75,0.125,95,97.0
5871,G4,387.75,0.25,63,97.0
5872,D4,387.75,0.25,63,97.0
5873,C4,387.75,0.25,63,97.0
5874,G3,387.75,0.25,63,97.0
5875,G4,388.0,0.75,95,97.0
5876,C2,388.0,0.75,95,97.0
5877,F#4,388.0,2.0,47,97.0
5878,D4,388.0,2.0,47,97.0
5879,A3,388.0,2.0,47,97.0
5880,A4,388.0,0.25,47,97.0
5881,D4,388.0,0.25,47,97.0
5882,A3,388.0,0.25,47,97.0
5883,F#3,388.0,0.25,47,97.0
5884,A4,388.25,0.25,63,97.0
5885,D4,388.25,0.25,63,97.0
5886,A3,388.25,0.25,63,97.0
5887,F#3,388.25,0.25,63,97.0
5888,A4,388.5,0.25,31,97.0
5889,D4,388.5,0.25,31,97.0
5890,A3,388.5,0.25,31,97.0
5891,F#3,388.5,0.25,31,97.0
5892,F#4,388.75,0.5,95,97.0
5893,F#1,388.75,0.75,95,97.0
5894,F#4,388.75,0.25,63,97.0
5895,D4,388.75,0.25,63,97.0
5896,A3,388.75,0.25,63,97.0
5897,F#3,388.75,0.25,63,97.0
5898,F#4,389.0,0.5,47,97.0
5899,D4,389.0,0.5,47,97.0
5900,A3,389.0,0.5,47,97.0
5901,F#3,389.0,0.5,47,97.0
5902,D4,389.25,0.5,95,97.0
5903,F#1,389.5,0.5,79,97.0
5904,E4,389.5,0.5,47,97.0
5905,D4,389.5,0.5,47,97.0
5906,A3,389.5,0.5,47,97.0
5907,F#3,389.5,0.5,47,97.0
5908,E4,389.75,0.25,95,97.0
5909,E4,390.0,1.0,95,97.0
5910,E4,390.0,0.25,47,97.0
5911,G4,390.0,0.5,79,97.0
5912,C2,390.0,0.75,95,97.0
5913,G4,390.0,2.0,47,97.0
5914,E4,390.0,2.0,47,97.0
5915,C4,390.0,2.0,47,97.0
5916,G4,390.0,0.25,47,97.0
5917,D4,390.0,0.25,47,97.0
5918,C4,390.0,0.25,47,97.0
5919,G3,390.0,0.25,47,97.0
5920,G4,390.25,3.75,47,97.0
5921,G4,390.25,0.25,63,97.0
5922,D4,390.25,0.25,63,97.0
5923,C4,390.25,0.25,63,97.0
5924,G3,390.25,0.25,63,97.0
5925,D5,390.5,1.5,47,97.0
5926,G4,390.5,0.25,31,97.0
5927,D4,390.5,0.25,31,97.0
5928,C4,390.5,0.25,31,97.0
5929,G3,390.5,0.25,31,97.0
5930,G1,390.75,1.0,95,97.0
5931,G4,390.75,0.5,63,97.0
5932,D4,390.75,0.5,63,97.0
5933,C4,390.75,0.5,63,97.0
5934,G3,390.75,0.5,63,97.0
5935,G4,391.0,0.5,95,97.0
5936,G4,391.25,0.25,63,97.0
5937,D4,391.25,0.25,63,97.0
5938,C4,391.25,0.25,63,97.0
5939,G3,391.25,0.25,63,97.0
5940,B4,391.5,0.25,95,97.0
5941,G4,391.5,0.25,31,97.0
5942,D4,391.5,0.25,31,97.0
5943,C4,391.5,0.25,31,97.0
5944,G3,391.5,0.25,31,97.0
5945,G4,391.75,0.25,95,97.0
5946,C2,391.75,0.125,95,97.0
5947,G4,391.75,0.25,63,97.0
5948,D4,391.75,0.25,63,97.0
5949,C4,391.75,0.25,63,97.0
5950,G3,391.75,0.25,63,97.0
5951,A4,392.0,0.75,95,97.0
5952,E5,392.0,0.25,47,97.0
5953,B1,392.0,0.75,95,97.0
5954,F#4,392.0,2.0,47,97.0
5955,D4,392.0,2.0,47,97.0
5956,A3,392.0,2.0,47,97.0
5957,A4,392.0,0.25,47,97.0
5958,D4,392.0,0.25,47,97.0
5959,A3,392.0,0.25,47,97.0
5960,F#3,392.0,0.25,47,97.0
5961,G5,392.25,0.25,47,97.0
5962,A4,392.25,0.25,63,97.0
5963,D4,392.25,0.25,63,97.0
5964,A3,392.25,0.25,63,97.0
5965,F#3,392.25,0.25,63,97.0
5966,F#5,392.5,0.25,47,97.0
5967,A4,392.5,0.25,31,97.0
5968,D4,392.5,0.25,31,97.0
5969,A3,392.5,0.25,31,97.0
5970,F#3,392.5,0.25,31,97.0
5971,C5,392.75,0.5,79,97.0
5972,D5,392.75,1.25,47,97.0
5973,B1,392.75,0.75,95,97.0
5974,F#4,392.75,0.25,63,97.0
5975,D4,392.75,0.25,63,97.0
5976,A3,392.75,0.25,63,97.0
5977,F#3,392.75,0.25,63,97.0
5978,F#4,393.0,0.5,47,97.0
5979,D4,393.0,0.5,47,97.0
5980,A3,393.0,0.5,47,97.0
5981,F#3,393.0,0.5,47,97.0
5982,F#4,393.25,0.25,63,97.0
5983,F#1,393.5,0.5,79,97.0
5984,E4,393.5,0.5,47,97.0
5985,D4,393.5,0.5,47,97.0
5986,A3,393.5,0.5,47,97.0
5987,F#3,393.5,0.5,47,97.0
5988,E4,393.75,0.25,47,97.0
5989,E4,394.0,0.5,47,97.0
5990,E4,394.0,2.0,47,97.0
5991,C2,394.0,0.75,95,97.0
5992,E4,394.0,2.0,47,97.0
5993,C4,394.0,2.0,47,97.0
5994,G3,394.0,2.0,47,97.0
5995,G4,394.0,0.25,47,97.0
5996,D4,394.0,0.25,47,97.0
5997,C4,394.0,0.25,47,97.0
5998,G3,394.0,0.25,47,97.0
5999,G4,394.25,0.25,63,97.0
6000,D4,394.25,0.25,63,97.0
6001,C4,394.25,0.25,63,97.0
6002,G3,394.25,0.25,63,97.0
6003,G4,394.5,0.25,31,97.0
6004,D4,394.5,0.25,31,97.0
6005,C4,394.5,0.25,31,97.0
6006,G3,394.5,0.25,31,97.0
6007,G1,394.75,1.0,95,97.0
6008,G4,394.75,0.5,63,97.0
6009,D4,394.75,0.5,63,97.0
6010,C4,394.75,0.5,63,97.0
6011,G3,394.75,0.5,63,97.0
6012,D4,395.0,0.25,95,97.0
6013,F#4,395.25,0.25,95,97.0
6014,G4,395.25,0.25,63,97.0
6015,D4,395.25,0.25,63,97.0
6016,C4,395.25,0.25,63,97.0
6017,G3,395.25,0.25,63,97.0
6018,G4,395.5,0.25,95,97.0
6019,G4,395.5,0.25,31,97.0
6020,D4,395.5,0.25,31,97.0
6021,C4,395.5,0.25,31,97.0
6022,G3,395.5,0.25,31,97.0
6023,E4,395.75,0.25,95,97.0
6024,C2,395.75,0.125,95,97.0
6025,G4,395.75,0.25,63,97.0
6026,D4,395.75,0.25,63,97.0
6027,C4,395.75,0.25,63,97.0
6028,G3,395.75,0.25,63,97.0
6029,G4,396.0,0.75,95,97.0
6030,F#4,396.0,2.0,47,97.0
6031,B1,396.0,0.75,95,97.0
6032,F#4,396.0,2.0,47,97.0
6033,D4,396.0,2.0,47,97.0
6034,A3,396.0,2.0,47,97.0
6035,A4,396.0,0.25,47,97.0
6036,D4,396.0,0.25,47,97.0
6037,A3,396.0,0.25,47,97.0
6038,F#3,396.0,0.25,47,97.0
6039,A4,396.25,0.25,63,97.0
6040,D4,396.25,0.25,63,97.0
6041,A3,396.25,0.25,63,97.0
6042,F#3,396.25,0.25,63,97.0
6043,A4,396.5,0.25,31,97.0
6044,D4,396.5,0.25,31,97.0
6045,A3,396.5,0.25,31,97.0
6046,F#3,396.5,0.25,31,97.0
6047,F#4,396.75,0.5,95,97.0
6048,B1,396.75,0.75,95,97.0
6049,F#4,396.75,0.25,63,97.0
6050,D4,396.75,0.25,63,97.0
6051,A3,396.75,0.25,63,97.0
6052,F#3,396.75,0.25,63,97.0
6053,F#4,397.0,0.5,47,97.0
6054,D4,397.0,0.5,47,97.0
6055,A3,397.0,0.5,47,97.0
6056,F#3,397.0,0.5,47,97.0
6057,D4,397.25,0.5,95,97.0
6058,F#1,397.5,0.5,79,97.0
6059,E4,397.5,0.5,47,97.0
6060,D4,397.5,0.5,47,97.0
6061,A3,397.5,0.5,47,97.0
6062,F#3,397.5,0.5,47,97.0
6063,D4,397.75,0.25,95,97.0
6064,D4,398.0,3.0,95,97.0
6065,F#4,398.0,0.25,47,97.0
6066,E1,398.0,0.75,95,97.0
6067,F#4,398.0,4.0,47,97.0
6068,D4,398.0,4.0,47,97.0
6069,A3,398.0,4.0,47,97.0
6070,F#4,398.0,0.25,47,97.0
6071,D4,398.0,0.25,47,97.0
6072,B3,398.0,0.25,47,97.0
6073,G3,398.0,0.25,47,97.0
6074,G4,398.25,1.75,47,97.0
6075,F#4,398.25,0.25,63,97.0
6076,D4,398.25,0.25,63,97.0
6077,B3,398.25,0.25,63,97.0
6078,G3,398.25,0.25,63,97.0
6079,D5,398.5,0.25,47,97.0
6080,F#4,398.5,0.25,31,97.0
6081,D4,398.5,0.25,31,97.0
6082,B3,398.5,0.25,31,97.0
6083,G3,398.5,0.25,31,97.0
6084,D5,398.75,1.25,47,97.0
6085,B1,398.75,1.0,79,97.0
6086,F#4,398.75,0.5,63,97.0
6087,D4,398.75,0.5,63,97.0
6088,B3,398.75,0.5,63,97.0
6089,G3,398.75,0.5,63,97.0
6090,F#4,399.25,0.25,63,97.0
6091,D4,399.25,0.25,63,97.0
6092,B3,399.25,0.25,63,97.0
6093,G3,399.25,0.25,63,97.0
6094,F#4,399.5,0.25,31,97.0
6095,D4,399.5,0.25,31,97.0
6096,B3,399.5,0.25,31,97.0
6097,G3,399.5,0.25,31,97.0
6098,E1,399.75,0.125,95,97.0
6099,F#4,399.75,0.25,63,97.0
6100,D4,399.75,0.25,63,97.0
6101,B3,399.75,0.25,63,97.0
6102,G3,399.75,0.25,63,97.0
6103,E1,400.0,0.75,95,97.0
6104,F#6,400.0,2.0,47,97.0
6105,F#5,400.0,2.0,47,97.0
6106,F#4,400.0,0.25,47,97.0
6107,D4,400.0,0.25,47,97.0
6108,B3,400.0,0.25,47,97.0
6109,G3,400.0,0.25,47,97.0
6110,F#4,400.25,0.25,63,97.0
6111,D4,400.25,0.25,63,97.0
6112,B3,400.25,0.25,63,97.0
6113,G3,400.25,0.25,63,97.0
6114,F#4,400.5,0.25,31,97.0
6115,D4,400.5,0.25,31,97.0
6116,B3,400.5,0.25,31,97.0
6117,G3,400.5,0.25,31,97.0
6118,E1,400.75,0.125,95,97.0
6119,F#4,400.75,0.25,63,97.0
6120,E4,400.75,0.25,63,97.0
6121,C#4,400.75,0.25,63,97.0
6122,A3,400.75,0.25,63,97.0
6123,A3,401.0,0.25,95,97.0
6124,A1,401.0,0.5,79,97.0
6125,F#4,401.0,0.5,43,97.0
6126,E4,401.0,0.5,43,97.0
6127,C#4,401.0,0.5,43,97.0
6128,A3,401.0,0.5,43,97.0
6129,D4,401.25,0.25,95,97.0
6130,E4,401.5,0.25,95,97.0
6131,B1,401.5,0.5,79,97.0
6132,F#4,401.5,0.5,55,97.0
6133,E4,401.5,0.5,55,97.0
6134,C#4,401.5,0.5,55,97.0
6135,A3,401.5,0.5,55,97.0
6136,D4,401.75,0.25,95,97.0
6137,E4,402.0,0.25,95,97.0
6138,E1,402.0,0.75,95,97.0
6139,F#4,402.0,2.0,47,97.0
6140,D4,402.0,2.0,47,97.0
6141,A3,402.0,2.0,47,97.0
6142,D6,402.0,4.0,63,97.0
6143,D5,402.0,4.0,63,97.0
6144,F#4,402.0,0.25,47,97.0
6145,D4,402.0,0.25,47,97.0
6146,B3,402.0,0.25,47,97.0
6147,G3,402.0,0.25,47,97.0
6148,F#4,402.25,0.25,63,97.0
6149,F#4,402.25,0.25,63,97.0
6150,D4,402.25,0.25,63,97.0
6151,B3,402.25,0.25,63,97.0
6152,G3,402.25,0.25,63,97.0
6153,F#4,402.5,0.25,47,97.0
6154,F#4,402.5,0.25,31,97.0
6155,D4,402.5,0.25,31,97.0
6156,B3,402.5,0.25,31,97.0
6157,G3,402.5,0.25,31,97.0
6158,A4,402.75,0.25,95,97.0
6159,F#1,402.75,1.0,95,97.0
6160,F#4,402.75,0.5,63,97.0
6161,D4,402.75,0.5,63,97.0
6162,B3,402.75,0.5,63,97.0
6163,G3,402.75,0.5,63,97.0
6164,F#4,403.25,0.25,95,97.0
6165,F#4,403.25,0.25,63,97.0
6166,D4,403.25,0.25,63,97.0
6167,B3,403.25,0.25,63,97.0
6168,G3,403.25,0.25,63,97.0
6169,F#4,403.5,0.25,31,97.0
6170,D4,403.5,0.25,31,97.0
6171,B3,403.5,0.25,31,97.0
6172,G3,403.5,0.25,31,97.0
6173,E4,403.75,1.75,95,97.0
6174,B1,403.75,0.125,95,97.0
6175,F#4,403.75,0.25,63,97.0
6176,E4,403.75,0.25,63,97.0
6177,C#4,403.75,0.25,63,97.0
6178,A3,403.75,0.25,63,97.0
6179,B1,404.0,0.75,95,97.0
6180,E4,404.0,2.0,59,97.0
6181,C#4,404.0,2.0,59,97.0
6182,B3,404.0,2.0,59,97.0
6183,F#3,404.0,2.0,59,97.0
6184,F#4,404.0,0.25,47,97.0
6185,E4,404.0,0.25,47,97.0
6186,C#4,404.0,0.25,47,97.0
6187,A3,404.0,0.25,47,97.0
6188,F#4,404.25,0.25,63,97.0
6189,E4,404.25,0.25,63,97.0
6190,C#4,404.25,0.25,63,97.0
6191,A3,404.25,0.25,63,97.0
6192,F#4,404.5,0.25,31,97.0
6193,E4,404.5,0.25,31,97.0
6194,C#4,404.5,0.25,31,97.0
6195,A3,404.5,0.25,31,97.0
6196,F#1,404.75,0.75,95,97.0
6197,F#4,404.75,0.25,63,97.0
6198,E4,404.75,0.25,63,97.0
6199,C#4,404.75,0.25,63,97.0
6200,A3,404.75,0.25,63,97.0
6201,F#4,405.0,0.5,43,97.0
6202,E4,405.0,0.5,43,97.0
6203,C#4,405.0,0.5,43,97.0
6204,A3,405.0,0.5,43,97.0
6205,D4,405.5,0.5,95,97.0
6206,F#1,405.5,0.5,95,97.0
6207,F#4,405.5,0.5,55,97.0
6208,E4,405.5,0.5,55,97.0
6209,C#4,405.5,0.5,55,97.0
6210,A3,405.5,0.5,55,97.0
6211,C#4,406.0,0.75,79,97.0
6212,F#4,406.0,3.0,95,97.0
6213,B1,406.0,0.75,95,97.0
6214,E4,406.0,2.0,63,97.0
6215,C#4,406.0,2.0,63,97.0
6216,A3,406.0,2.0,63,97.0
6217,D4,406.0,4.0,95,97.0
6218,B3,406.0,4.0,95,97.0
6219,E4,406.0,0.25,47,97.0
6220,C#4,406.0,0.25,47,97.0
6221,A3,406.0,0.25,47,97.0
6222,E4,406.25,0.25,63,97.0
6223,C#4,406.25,0.25,63,97.0
6224,A3,406.25,0.25,63,97.0
6225,E4,406.5,0.25,31,97.0
6226,C#4,406.5,0.25,31,97.0
6227,A3,406.5,0.25,31,97.0
6228,B3,406.75,0.5,63,97.0
6229,F#1,406.75,0.25,95,97.0
6230,E4,406.75,0.5,63,97.0
6231,C#4,406.75,0.5,63,97.0
6232,A3,406.75,0.5,63,97.0
6233,A3,407.25,0.25,47,97.0
6234,A1,407.25,0.25,95,97.0
6235,E4,407.25,0.25,63,97.0
6236,C#4,407.25,0.25,63,97.0
6237,A3,407.25,0.25,63,97.0
6238,E4,407.5,0.25,31,97.0
6239,C#4,407.5,0.25,31,97.0
6240,A3,407.5,0.25,31,97.0
6241,A3,407.75,0.25,47,97.0
6242,A1,407.75,0.25,95,97.0
6243,E4,407.75,0.25,63,97.0
6244,C#4,407.75,0.25,63,97.0
6245,A3,407.75,0.25,63,97.0
6246,D4,408.0,1.0,95,97.0
6247,D2,408.0,0.75,95,97.0
6248,F#4,408.0,1.0,79,97.0
6249,D4,408.0,1.0,79,97.0
6250,A3,408.0,1.0,79,97.0
6251,D5,408.0,1.0,63,97.0
6252,D4,408.0,1.0,63,97.0
6253,F#4,408.0,1.0,95,97.0
6254,D4,408.0,1.0,95,97.0
6255,A3,408.0,1.0,95,97.0
6256,G1,408.75,0.25,95,97.0
6257,B3,409.0,1.0,95,97.0
6258,E4,409.0,1.0,95,97.0
6259,G1,409.0,1.0,95,97.0
6260,D4,409.0,1.0,95,97.0
6261,B3,409.0,1.0,95,97.0
6262,G3,409.0,1.0,95,97.0
6263,B4,409.0,1.0,63,97.0
6264,B3,409.0,1.0,63,97.0
6265,G4,409.0,1.0,95,97.0
6266,D4,409.0,1.0,95,97.0
6267,B3,409.0,1.0,95,97.0
6268,B-4,410.0,0.75,95,97.0
6269,A4,410.0,2.0,47,97.0
6270,F#4,410.0,3.0,95,97.0
6271,C2,410.0,1.25,95,97.0
6272,E4,410.0,1.25,63,97.0
6273,D4,410.0,1.25,63,97.0
6274,C4,410.0,1.25,63,97.0
6275,G3,410.0,1.25,63,97.0
6276,D4,410.0,4.0,95,97.0
6277,B3,410.0,4.0,95,97.0
6278,C4,410.0,1.75,79,97.0
6279,G3,410.0,1.75,79,97.0
6280,C3,410.0,1.75,79,97.0
6281,A4,410.75,0.5,95,97.0
6282,G4,411.25,0.5,95,97.0
6283,C2,411.25,0.25,95,97.0
6284,E4,411.25,0.125,63,97.0
6285,D4,411.25,0.125,63,97.0
6286,C4,411.25,0.125,63,97.0
6287,G3,411.25,0.125,63,97.0
6288,G4,411.75,0.75,95,97.0
6289,E1,411.75,0.25,95,97.0
6290,G4,411.75,2.25,63,97.0
6291,E4,411.75,2.25,63,97.0
6292,D4,411.75,2.25,63,97.0
6293,B3,411.75,2.25,63,97.0
6294,G3,411.75,1.25,63,97.0
6295,E3,411.75,1.25,63,97.0
6296,F#4,412.0,1.0,63,97.0
6297,E1,412.0,1.0,95,97.0
6298,F#4,412.5,0.25,95,97.0
6299,E4,412.75,0.25,95,97.0
6300,D4,413.0,1.0,95,97.0
6301,G4,413.0,1.0,63,97.0
6302,E4,413.0,1.0,95,97.0
6303,A1,413.0,1.0,95,97.0
6304,D4,413.0,1.0,63,97.0
6305,A3,413.0,1.0,63,97.0
6306,D3,413.0,1.0,63,97.0
6307,C6,414.0,0.75,63,97.0
6308,F#4,414.0,3.0,95,97.0
6309,C2,414.0,1.25,95,97.0
6310,E4,414.0,1.25,63,97.0
6311,D4,414.0,1.25,63,97.0
6312,C4,414.0,1.25,63,97.0
6313,G3,414.0,1.25,63,97.0
6314,D4,414.0,4.0,95,97.0
6315,B3,414.0,4.0,95,97.0
6316,C4,414.0,1.75,79,97.0
6317,G3,414.0,1.75,79,97.0
6318,C3,414.0,1.75,79,97.0
6319,D4,414.5,0.25,95,97.0
6320,G4,414.75,0.5,95,97.0
6321,B5,414.75,0.5,63,97.0
6322,D5,415.25,0.5,95,97.0
6323,G5,415.25,0.5,63,97.0
6324,C2,415.25,0.25,95,97.0
6325,E4,415.25,0.125,63,97.0
6326,D4,415.25,0.125,63,97.0
6327,C4,415.25,0.125,63,97.0
6328,G3,415.25,0.125,63,97.0
6329,C5,415.75,1.25,95,97.0
6330,G5,415.75,0.75,63,97.0
6331,E1,415.75,0.25,95,97.0
6332,G4,415.75,2.25,63,97.0
6333,E4,415.75,2.25,63,97.0
6334,D4,415.75,2.25,63,97.0
6335,B3,415.75,2.25,63,97.0
6336,G3,415.75,1.25,63,97.0
6337,E3,415.75,1.25,63,97.0
6338,E1,416.0,1.0,95,97.0
6339,F#5,416.5,0.25,63,97.0
6340,E5,416.75,0.25,63,97.0
6341,A4,417.0,0.5,95,97.0
6342,D5,417.0,1.0,63,97.0
6343,E4,417.0,1.0,95,97.0
6344,A1,417.0,1.0,95,97.0
6345,D4,417.0,1.0,63,97.0
6346,A3,417.0,1.0,63,97.0
6347,D3,417.0,1.0,63,97.0
6348,F4,417.5,0.25,95,97.0
6349,F#4,417.75,0.25,95,97.0
6350,E4,418.0,0.75,95,97.0
6351,F#4,418.0,3.0,95,97.0
6352,C2,418.0,0.75,95,97.0
6353,E4,418.0,1.25,63,97.0
6354,D4,418.0,1.25,63,97.0
6355,C4,418.0,1.25,63,97.0
6356,G3,418.0,1.25,63,97.0
6357,G4,418.0,2.0,63,97.0
6358,E4,418.0,2.0,63,97.0
6359,D4,418.0,2.0,63,97.0
6360,C4,418.0,2.0,63,97.0
6361,D4,418.0,4.0,95,97.0
6362,B3,418.0,4.0,95,97.0
6363,C4,418.0,1.75,63,97.0
6364,G3,418.0,1.75,63,97.0
6365,C3,418.0,1.75,63,97.0
6366,E4,418.75,0.5,95,97.0
6367,G1,418.75,0.25,63,97.0
6368,A1,419.0,0.25,95,97.0
6369,G4,419.25,0.5,95,97.0
6370,B1,419.25,0.25,79,97.0
6371,E4,419.25,0.125,63,97.0
6372,D4,419.25,0.125,63,97.0
6373,C4,419.25,0.125,63,97.0
6374,G3,419.25,0.125,63,97.0
6375,A1,419.5,0.25,63,97.0
6376,D4,419.75,1.5,95,97.0
6377,G1,419.75,0.25,95,97.0
6378,D4,419.75,2.25,63,97.0
6379,B3,419.75,2.25,63,97.0
6380,A3,419.75,2.25,63,97.0
6381,G3,419.75,2.25,63,97.0
6382,G3,419.75,2.25,63,97.0
6383,D3,419.75,2.25,63,97.0
6384,G2,419.75,2.25,63,97.0
6385,G1,420.0,0.75,95,97.0
6386,D4,420.75,0.25,79,97.0
6387,G1,420.75,0.25,95,97.0
6388,D4,421.0,0.5,79,97.0
6389,E4,421.0,1.0,95,97.0
6390,A1,421.0,0.5,95,97.0
6391,B1,421.5,0.5,95,97.0
6392,F#4,422.0,3.0,95,97.0
6393,C2,422.0,0.75,95,97.0
6394,E4,422.0,1.25,63,97.0
6395,D4,422.0,1.25,63,97.0
6396,C4,422.0,1.25,63,97.0
6397,G3,422.0,1.25,63,97.0
6398,G4,422.0,2.0,63,97.0
6399,E4,422.0,2.0,63,97.0
6400,D4,422.0,2.0,63,97.0
6401,C4,422.0,2.0,63,97.0
6402,D4,422.0,4.0,95,97.0
6403,B3,422.0,4.0,95,97.0
6404,C4,422.0,1.75,63,97.0
6405,G3,422.0,1.75,63,97.0
6406,C3,422.0,1.75,63,97.0
6407,G4,422.75,0.5,95,97.0
6408,G1,422.75,0.25,63,97.0
6409,A1,423.0,0.25,95,97.0
6410,A4,423.25,0.25,95,97.0
6411,B1,423.25,0.25,79,97.0
6412,E4,423.25,0.125,63,97.0
6413,D4,423.25,0.125,63,97.0
6414,C4,423.25,0.125,63,97.0
6415,G3,423.25,0.125,63,97.0
6416,G4,423.5,0.25,47,97.0
6417,A1,423.5,0.25,63,97.0
6418,A4,423.75,1.5,95,97.0
6419,G1,423.75,0.25,95,97.0
6420,F#4,423.75,2.25,63,97.0
6421,E4,423.75,2.25,63,97.0
6422,D4,423.75,2.25,63,97.0
6423,A3,423.75,2.25,63,97.0
6424,G3,423.75,2.25,63,97.0
6425,D3,423.75,2.25,63,97.0
6426,G2,423.75,2.25,63,97.0
6427,G1,424.0,0.75,95,97.0
6428,G1,424.75,0.25,95,97.0
6429,E4,425.0,1.0,95,97.0
6430,A1,425.0,0.5,95,97.0
6431,B1,425.5,0.5,95,97.0
6432,F4,426.0,0.75,95,97.0
6433,F#4,426.0,3.0,95,97.0
6434,C2,426.0,0.75,95,97.0
6435,E4,426.0,1.25,63,97.0
6436,D4,426.0,1.25,63,97.0
6437,C4,426.0,1.25,63,97.0
6438,G3,426.0,1.25,63,97.0
6439,G4,426.0,2.0,63,97.0
6440,E4,426.0,2.0,63,97.0
6441,D4,426.0,2.0,63,97.0
6442,C4,426.0,2.0,63,97.0
6443,D4,426.0,4.0,95,97.0
6444,B3,426.0,4.0,95,97.0
6445,C4,426.0,1.75,63,97.0
6446,G3,426.0,1.75,63,97.0
6447,C3,426.0,1.75,63,97.0
6448,B-4,426.75,0.5,95,97.0
6449,G1,426.75,0.25,63,97.0
6450,C5,426.75,0.5,63,97.0
6451,G4,426.75,0.5,63,97.0
6452,A1,427.0,0.25,95,97.0
6453,A4,427.25,0.5,95,97.0
6454,B1,427.25,0.25,79,97.0
6455,E4,427.25,0.125,63,97.0
6456,D4,427.25,0.125,63,97.0
6457,C4,427.25,0.125,63,97.0
6458,G3,427.25,0.125,63,97.0
6459,B4,427.25,0.5,63,97.0
6460,G4,427.25,0.5,63,97.0
6461,A1,427.5,0.25,63,97.0
6462,A4,427.75,1.0,95,97.0
6463,G1,427.75,0.25,95,97.0
6464,F#4,427.75,2.25,63,97.0
6465,E4,427.75,2.25,63,97.0
6466,D4,427.75,2.25,63,97.0
6467,A3,427.75,2.25,63,97.0
6468,A4,427.75,2.0,63,97.0
6469,F#4,427.75,2.0,63,97.0
6470,G3,427.75,2.25,63,97.0
6471,D3,427.75,2.25,63,97.0
6472,G2,427.75,2.25,63,97.0
6473,G1,428.0,0.75,95,97.0
6474,D5,428.75,0.75,95,97.0
6475,G1,428.75,0.25,95,97.0
6476,E4,429.0,1.0,95,97.0
6477,G1,429.0,0.25,95,97.0
6478,F1,429.25,0.25,95,97.0
6479,E5,429.5,0.25,95,97.0
6480,A1,429.5,0.25,95,97.0
6481,F#5,429.75,0.25,95,97.0
6482,B1,429.75,0.25,95,97.0
6483,G5,430.0,0.75,95,97.0
6484,G5,430.0,0.75,95,97.0
6485,F#4,430.0,3.0,95,97.0
6486,E2,430.0,0.75,95,97.0
6487,G4,430.0,1.0,63,97.0
6488,E4,430.0,1.0,63,97.0
6489,B3,430.0,1.0,63,97.0
6490,G4,430.0,2.0,63,97.0
6491,E4,430.0,2.0,63,97.0
6492,D4,430.0,2.0,63,97.0
6493,C4,430.0,2.0,63,97.0
6494,D4,430.0,4.0,95,97.0
6495,B3,430.0,4.0,95,97.0
6496,E3,430.0,0.75,63,97.0
6497,B2,430.0,0.75,63,97.0
6498,G5,430.75,0.5,95,97.0
6499,G5,430.75,0.5,95,97.0
6500,D2,430.75,0.5,95,97.0
6501,D3,430.75,0.5,63,97.0
6502,A2,430.75,0.5,63,97.0
6503,F#4,431.0,1.0,63,97.0
6504,D4,431.0,1.0,63,97.0
6505,A3,431.0,1.0,63,97.0
6506,F#5,431.25,0.5,95,97.0
6507,F#5,431.25,0.5,95,97.0
6508,B1,431.25,0.5,95,97.0
6509,G3,431.25,0.5,63,97.0
6510,C3,431.25,0.5,63,97.0
6511,E5,431.75,0.5,95,97.0
6512,E5,431.75,0.5,95,97.0
6513,C2,431.75,1.0,95,97.0
6514,G3,431.75,1.0,63,97.0
6515,C3,431.75,1.0,63,97.0
6516,E4,432.0,1.0,63,97.0
6517,D4,432.0,1.0,63,97.0
6518,C4,432.0,1.0,63,97.0
6519,G3,432.0,1.0,63,97.0
6520,D5,432.25,0.5,95,97.0
6521,D5,432.25,0.5,95,97.0
6522,G4,432.75,0.75,95,97.0
6523,G4,432.75,1.25,95,97.0
6524,B2,432.75,1.25,63,97.0
6525,B1,432.75,0.25,95,97.0
6526,E4,433.0,1.0,95,97.0
6527,B1,433.0,0.5,95,97.0
6528,D4,433.0,1.0,63,97.0
6529,B3,433.0,1.0,63,97.0
6530,A3,433.0,1.0,63,97.0
6531,G3,433.0,1.0,63,97.0
6532,A4,433.5,0.25,95,97.0
6533,C2,433.5,0.25,95,97.0
6534,B4,433.75,0.25,95,97.0
6535,B1,433.75,0.25,95,97.0
6536,C5,434.0,0.75,95,97.0
6537,G4,434.0,0.75,63,97.0
6538,F#4,434.0,3.0,95,97.0
6539,A1,434.0,1.75,95,97.0
6540,G4,434.0,1.25,63,97.0
6541,E4,434.0,1.25,63,97.0
6542,C4,434.0,1.25,63,97.0
6543,D4,434.0,4.0,95,97.0
6544,B3,434.0,4.0,95,97.0
6545,C4,434.0,2.0,79,97.0
6546,G3,434.0,2.0,79,97.0
6547,C3,434.0,2.0,79,97.0
6548,B4,434.75,0.5,95,97.0
6549,G4,434.75,0.5,63,97.0
6550,G4,435.25,0.5,95,97.0
6551,F#4,435.25,0.5,63,97.0
6552,G4,435.25,0.125,63,97.0
6553,E4,435.25,0.125,63,97.0
6554,C4,435.25,0.125,63,97.0
6555,A4,435.75,1.5,95,97.0
6556,E4,435.75,1.25,63,97.0
6557,D2,435.75,0.25,95,97.0
6558,F#4,435.75,2.25,63,97.0
6559,D4,435.75,2.25,63,97.0
6560,A3,435.75,2.25,63,97.0
6561,D2,436.0,2.0,95,97.0
6562,D4,436.0,2.0,79,97.0
6563,A3,436.0,2.0,79,97.0
6564,A2,436.0,2.0,79,97.0
6565,D4,437.0,1.0,63,97.0
6566,E4,437.0,1.0,95,97.0
6567,G4,438.0,0.75,63,97.0
6568,C2,438.0,0.75,95,97.0
6569,D4,438.0,0.75,63,97.0
6570,B3,438.0,0.75,63,97.0
6571,G3,438.0,0.75,63,97.0
6572,E4,438.0,2.0,95,97.0
6573,C4,438.0,2.0,95,97.0
6574,G3,438.0,2.0,95,97.0
6575,B3,438.0,0.75,79,97.0
6576,G3,438.0,0.75,79,97.0
6577,D3,438.0,0.75,79,97.0
6578,G4,438.75,2.0,63,97.0
6579,C2,438.75,0.25,95,97.0
6580,C4,438.75,2.0,63,97.0
6581,G3,438.75,2.0,63,97.0
6582,E3,438.75,2.0,63,97.0
6583,D4,438.75,2.0,79,97.0
6584,C4,438.75,2.0,79,97.0
6585,G3,438.75,2.0,79,97.0
6586,B1,439.0,0.25,95,97.0
6587,G1,439.25,0.25,95,97.0
6588,C2,439.5,1.0,95,97.0
6589,F#4,440.0,2.0,95,97.0
6590,D4,440.0,2.0,95,97.0
6591,A3,440.0,2.0,95,97.0
6592,B1,440.5,0.25,95,97.0
6593,G4,440.75,0.25,63,97.0
6594,C2,440.75,0.25,95,97.0
6595,C4,440.75,0.25,95,97.0
6596,G3,440.75,0.25,95,97.0
6597,C4,440.75,0.25,79,97.0
6598,G3,440.75,0.25,79,97.0
6599,E3,440.75,0.25,79,97.0
6600,F#4,441.0,1.0,63,97.0
6601,D2,441.0,1.0,95,97.0
6602,D4,441.0,1.0,95,97.0
6603,A3,441.0,1.0,95,97.0
6604,F#3,441.0,1.0,95,97.0
6605,D4,441.0,1.0,79,97.0
6606,A3,441.0,1.0,79,97.0
6607,F#3,441.0,1.0,79,97.0
6608,A4,441.5,0.25,95,97.0
6609,B4,441.75,0.25,95,97.0
6610,B-4,442.0,0.75,95,97.0
6611,C2,442.0,1.25,95,97.0
6612,E4,442.0,1.25,63,97.0
6613,D4,442.0,1.25,63,97.0
6614,C4,442.0,1.25,63,97.0
6615,G3,442.0,1.25,63,97.0
6616,E4,442.0,2.0,95,97.0
6617,C4,442.0,2.0,95,97.0
6618,G3,442.0,2.0,95,97.0
6619,C4,442.0,1.75,79,97.0
6620,G3,442.0,1.75,79,97.0
6621,C3,442.0,1.75,79,97.0
6622,A4,442.75,0.5,95,97.0
6623,G4,443.25,0.5,95,97.0
6624,C2,443.25,0.25,95,97.0
6625,E4,443.25,0.125,63,97.0
6626,D4,443.25,0.125,63,97.0
6627,C4,443.25,0.125,63,97.0
6628,G3,443.25,0.125,63,97.0
6629,G4,443.75,0.75,95,97.0
6630,E1,443.75,0.25,95,97.0
6631,G4,443.75,2.25,63,97.0
6632,E4,443.75,2.25,63,97.0
6633,D4,443.75,2.25,63,97.0
6634,B3,443.75,2.25,63,97.0
6635,G3,443.75,1.25,63,97.0
6636,E3,443.75,1.25,63,97.0
6637,E1,444.0,1.0,95,97.0
6638,F#4,444.0,2.0,95,97.0
6639,D4,444.0,2.0,95,97.0
6640,A3,444.0,2.0,95,97.0
6641,F#4,444.5,0.25,95,97.0
6642,E4,444.75,0.25,95,97.0
6643,D4,445.0,1.0,95,97.0
6644,A1,445.0,1.0,95,97.0
6645,D4,445.0,1.0,63,97.0
6646,A3,445.0,1.0,63,97.0
6647,D3,445.0,1.0,63,97.0
6648,C6,446.0,0.75,63,97.0
6649,C2,446.0,1.25,95,97.0
6650,E4,446.0,1.25,63,97.0
6651,D4,446.0,1.25,63,97.0
6652,C4,446.0,1.25,63,97.0
6653,G3,446.0,1.25,63,97.0
6654,E4,446.0,2.0,95,97.0
6655,C4,446.0,2.0,95,97.0
6656,G3,446.0,2.0,95,97.0
6657,C4,446.0,1.75,79,97.0
6658,G3,446.0,1.75,79,97.0
6659,C3,446.0,1.75,79,97.0
6660,D4,446.5,0.25,95,97.0
6661,G4,446.75,0.5,95,97.0
6662,B5,446.75,0.5,63,97.0
6663,D5,447.25,0.5,95,97.0
6664,G5,447.25,0.5,63,97.0
6665,C2,447.25,0.25,95,97.0
6666,E4,447.25,0.125,63,97.0
6667,D4,447.25,0.125,63,97.0
6668,C4,447.25,0.125,63,97.0
6669,G3,447.25,0.125,63,97.0
6670,C5,447.75,1.25,95,97.0
6671,G5,447.75,0.75,63,97.0
6672,E1,447.75,0.25,95,97.0
6673,G4,447.75,2.25,63,97.0
6674,E4,447.75,2.25,63,97.0
6675,D4,447.75,2.25,63,97.0
6676,B3,447.75,2.25,63,97.0
6677,G3,447.75,1.25,63,97.0
6678,E3,447.75,1.25,63,97.0
6679,E1,448.0,1.0,95,97.0
6680,F#4,448.0,2.0,95,97.0
6681,D4,448.0,2.0,95,97.0
6682,A3,448.0,2.0,95,97.0
6683,F#5,448.5,0.25,63,97.0
6684,E5,448.75,0.25,63,97.0
6685,A4,449.0,0.5,95,97.0
6686,D5,449.0,1.0,63,97.0
6687,A1,449.0,1.0,95,97.0
6688,D4,449.0,1.0,63,97.0
6689,A3,449.0,1.0,63,97.0
6690,D3,449.0,1.0,63,97.0
6691,F4,449.5,0.25,95,97.0
6692,F#4,449.75,0.25,95,97.0
6693,E4,450.0,0.75,95,97.0
6694,F#4,450.0,3.0,95,97.0
6695,C2,450.0,0.75,95,97.0
6696,E4,450.0,1.25,63,97.0
6697,D4,450.0,1.25,63,97.0
6698,C4,450.0,1.25,63,97.0
6699,G3,450.0,1.25,63,97.0
6700,G4,450.0,2.0,63,97.0
6701,E4,450.0,2.0,63,97.0
6702,D4,450.0,2.0,63,97.0
6703,C4,450.0,2.0,63,97.0
6704,D4,450.0,4.0,95,97.0
6705,B3,450.0,4.0,95,97.0
6706,C4,450.0,1.75,63,97.0
6707,G3,450.0,1.75,63,97.0
6708,C3,450.0,1.75,63,97.0
6709,E4,450.75,0.5,95,97.0
6710,G1,450.75,0.25,63,97.0
6711,A1,451.0,0.25,95,97.0
6712,G4,451.25,0.5,95,97.0
6713,B1,451.25,0.25,79,97.0
6714,E4,451.25,0.125,63,97.0
6715,D4,451.25,0.125,63,97.0
6716,C4,451.25,0.125,63,97.0
6717,G3,451.25,0.125,63,97.0
6718,A1,451.5,0.25,63,97.0
6719,D4,451.75,1.5,95,97.0
6720,G1,451.75,0.25,95,97.0
6721,D4,451.75,2.25,63,97.0
6722,B3,451.75,2.25,63,97.0
6723,A3,451.75,2.25,63,97.0
6724,G3,451.75,2.25,63,97.0
6725,G3,451.75,2.25,63,97.0
6726,D3,451.75,2.25,63,97.0
6727,G2,451.75,2.25,63,97.0
6728,G1,452.0,0.75,95,97.0
6729,D4,452.75,0.25,79,97.0
6730,G1,452.75,0.25,95,97.0
6731,D4,453.0,0.5,79,97.0
6732,E4,453.0,1.0,95,97.0
6733,A1,453.0,0.5,95,97.0
6734,B1,453.5,0.5,95,97.0
6735,F#4,454.0,3.0,95,97.0
6736,C2,454.0,0.75,95,97.0
6737,E4,454.0,1.25,63,97.0
6738,D4,454.0,1.25,63,97.0
6739,C4,454.0,1.25,63,97.0
6740,G3,454.0,1.25,63,97.0
6741,G4,454.0,2.0,63,97.0
6742,E4,454.0,2.0,63,97.0
6743,D4,454.0,2.0,63,97.0
6744,C4,454.0,2.0,63,97.0
6745,D4,454.0,4.0,95,97.0
6746,B3,454.0,4.0,95,97.0
6747,C4,454.0,1.75,63,97.0
6748,G3,454.0,1.75,63,97.0
6749,C3,454.0,1.75,63,97.0
6750,E4,454.5,0.25,63,97.0
6751,G4,454.75,0.5,95,97.0
6752,E4,454.75,0.5,63,97.0
6753,G1,454.75,0.25,63,97.0
6754,A1,455.0,0.25,95,97.0
6755,A4,455.25,0.25,95,97.0
6756,G4,455.25,0.25,63,97.0
6757,B1,455.25,0.25,79,97.0
6758,E4,455.25,0.125,63,97.0
6759,D4,455.25,0.125,63,97.0
6760,C4,455.25,0.125,63,97.0
6761,G3,455.25,0.125,63,97.0
6762,G4,455.5,0.25,47,97.0
6763,A1,455.5,0.25,63,97.0
6764,A4,455.75,1.5,95,97.0
6765,F#4,455.75,1.0,95,97.0
6766,G1,455.75,0.25,95,97.0
6767,F#4,455.75,2.25,63,97.0
6768,E4,455.75,2.25,63,97.0
6769,D4,455.75,2.25,63,97.0
6770,A3,455.75,2.25,63,97.0
6771,G3,455.75,2.25,63,97.0
6772,D3,455.75,2.25,63,97.0
6773,G2,455.75,2.25,63,97.0
6774,G1,456.0,0.75,95,97.0
6775,G1,456.75,0.25,95,97.0
6776,E4,457.0,1.0,95,97.0
6777,A1,457.0,0.5,95,97.0
6778,B1,457.5,0.5,95,97.0
6779,F4,458.0,0.75,95,97.0
6780,C2,458.0,0.75,95,97.0
6781,E4,458.0,1.25,63,97.0
6782,D4,458.0,1.25,63,97.0
6783,C4,458.0,1.25,63,97.0
6784,G3,458.0,1.25,63,97.0
6785,G4,458.0,2.0,63,97.0
6786,E4,458.0,2.0,63,97.0
6787,D4,458.0,2.0,63,97.0
6788,C4,458.0,2.0,63,97.0
6789,F#4,458.0,2.0,95,97.0
6790,E4,458.0,2.0,95,97.0
6791,C#4,458.0,2.0,95,97.0
6792,C4,458.0,1.75,63,97.0
6793,G3,458.0,1.75,63,97.0
6794,C3,458.0,1.75,63,97.0
6795,B-4,458.75,0.5,95,97.0
6796,G1,458.75,0.25,63,97.0
6797,C5,458.75,0.5,63,97.0
6798,G4,458.75,0.5,63,97.0
6799,A1,459.0,0.25,95,97.0
6800,A4,459.25,0.5,95,97.0
6801,B1,459.25,0.25,79,97.0
6802,E4,459.25,0.125,63,97.0
6803,D4,459.25,0.125,63,97.0
6804,C4,459.25,0.125,63,97.0
6805,G3,459.25,0.125,63,97.0
6806,B4,459.25,0.5,63,97.0
6807,G4,459.25,0.5,63,97.0
6808,A1,459.5,0.25,63,97.0
6809,A4,459.75,1.0,95,97.0
6810,G1,459.75,0.25,95,97.0
6811,F#4,459.75,2.25,63,97.0
6812,E4,459.75,2.25,63,97.0
6813,D4,459.75,2.25,63,97.0
6814,A3,459.75,2.25,63,97.0
6815,A4,459.75,2.0,63,97.0
6816,F#4,459.75,2.0,63,97.0
6817,G3,459.75,2.25,63,97.0
6818,D3,459.75,2.25,63,97.0
6819,G2,459.75,2.25,63,97.0
6820,G1,460.0,0.75,95,97.0
6821,F#4,460.0,1.0,95,97.0
6822,D4,460.0,1.0,95,97.0
6823,A3,460.0,1.0,95,97.0
6824,D5,460.75,0.75,95,97.0
6825,G1,460.75,0.25,95,97.0
6826,G1,461.0,0.25,95,97.0
6827,G4,461.0,1.0,95,97.0
6828,D4,461.0,1.0,95,97.0
6829,B3,461.0,1.0,95,97.0
6830,F1,461.25,0.25,95,97.0
6831,E5,461.5,0.25,95,97.0
6832,A1,461.5,0.25,95,97.0
6833,F#5,461.75,0.25,95,97.0
6834,B1,461.75,0.25,95,97.0
6835,G5,462.0,0.75,95,97.0
6836,G5,462.0,0.75,95,97.0
6837,E2,462.0,0.75,95,97.0
6838,G4,462.0,1.0,63,97.0
6839,E4,462.0,1.0,63,97.0
6840,B3,462.0,1.0,63,97.0
6841,G4,462.0,2.0,63,97.0
6842,E4,462.0,2.0,63,97.0
6843,D4,462.0,2.0,63,97.0
6844,C4,462.0,2.0,63,97.0
6845,E4,462.0,1.75,95,97.0
6846,C4,462.0,1.75,95,97.0
6847,G3,462.0,1.75,95,97.0
6848,E3,462.0,0.75,63,97.0
6849,B2,462.0,0.75,63,97.0
6850,G5,462.75,0.5,95,97.0
6851,G5,462.75,0.5,95,97.0
6852,D2,462.75,0.5,95,97.0
6853,D3,462.75,0.5,63,97.0
6854,A2,462.75,0.5,63,97.0
6855,F#4,463.0,1.0,63,97.0
6856,D4,463.0,1.0,63,97.0
6857,A3,463.0,1.0,63,97.0
6858,F#5,463.25,0.5,95,97.0
6859,F#5,463.25,0.5,95,97.0
6860,B1,463.25,0.5,95,97.0
6861,G3,463.25,0.5,63,97.0
6862,C3,463.25,0.5,63,97.0
6863,E5,463.75,0.5,95,97.0
6864,E5,463.75,0.5,95,97.0
6865,C2,463.75,1.0,95,97.0
6866,E4,463.75,2.25,95,97.0
6867,B3,463.75,2.25,95,97.0
6868,G3,463.75,2.25,95,97.0
6869,G3,463.75,1.0,63,97.0
6870,C3,463.75,1.0,63,97.0
6871,E4,464.0,1.0,63,97.0
6872,D4,464.0,1.0,63,97.0
6873,C4,464.0,1.0,63,97.0
6874,G3,464.0,1.0,63,97.0
6875,D5,464.25,0.5,95,97.0
6876,D5,464.25,0.5,95,97.0
6877,G4,464.75,0.75,95,97.0
6878,G4,464.75,1.25,95,97.0
6879,B2,464.75,1.25,63,97.0
6880,B1,464.75,0.25,95,97.0
6881,B1,465.0,0.5,95,97.0
6882,D4,465.0,1.0,63,97.0
6883,B3,465.0,1.0,63,97.0
6884,A3,465.0,1.0,63,97.0
6885,G3,465.0,1.0,63,97.0
6886,A4,465.5,0.25,95,97.0
6887,C2,465.5,0.25,95,97.0
6888,B4,465.75,0.25,95,97.0
6889,B1,465.75,0.25,95,97.0
6890,C5,466.0,0.75,95,97.0
6891,G4,466.0,0.75,63,97.0
6892,C3,466.0,2.0,63,97.0
6893,A1,466.0,1.75,95,97.0
6894,G4,466.0,1.25,63,97.0
6895,E4,466.0,1.25,63,97.0
6896,C4,466.0,1.25,63,97.0
6897,E4,466.0,1.75,95,97.0
6898,C4,466.0,1.75,95,97.0
6899,G3,466.0,1.75,95,97.0
6900,B4,466.75,0.5,95,97.0
6901,G4,466.75,0.5,63,97.0
6902,G4,467.25,0.5,95,97.0
6903,F#4,467.25,0.5,63,97.0
6904,G4,467.25,0.125,63,97.0
6905,E4,467.25,0.125,63,97.0
6906,C4,467.25,0.125,63,97.0
6907,A4,467.75,1.5,95,97.0
6908,E4,467.75,1.25,63,97.0
6909,D2,467.75,0.25,95,97.0
6910,F#4,467.75,2.25,63,97.0
6911,D4,467.75,2.25,63,97.0
6912,A3,467.75,2.25,63,97.0
6913,E4,467.75,2.25,95,97.0
6914,B3,467.75,2.25,95,97.0
6915,G3,467.75,2.25,95,97.0
6916,A2,468.0,2.0,63,97.0
6917,D2,468.0,2.0,95,97.0
6918,D4,469.0,1.0,63,97.0
6919,D4,470.0,0.75,95,97.0
6920,B2,470.0,0.75,95,97.0
6921,E4,470.0,1.75,95,97.0
6922,C4,470.0,1.75,95,97.0
6923,G3,470.0,1.75,95,97.0
6924,E4,470.75,2.25,95,97.0
6925,C3,470.75,3.25,95,97.0
6926,D4,471.75,2.25,95,97.0
6927,B3,471.75,2.25,95,97.0
6928,G3,471.75,2.25,95,97.0
6929,G3,473.0,0.25,95,97.0
6930,B3,473.25,0.25,95,97.0
6931,E4,473.5,0.25,95,97.0
6932,F#4,473.75,0.25,95,97.0
6933,G4,474.0,0.75,95,97.0
6934,E3,474.0,2.0,95,97.0
6935,E4,474.0,1.75,95,97.0
6936,C4,474.0,1.75,95,97.0
6937,G3,474.0,1.75,95,97.0
6938,B3,474.75,0.75,95,97.0
6939,A3,475.5,0.5,95,97.0
6940,D4,475.75,2.25,95,97.0
6941,A3,475.75,2.25,95,97.0
6942,F#3,475.75,2.25,95,97.0
6943,F#4,476.0,1.0,95,97.0
6944,D3,476.0,1.0,95,97.0
6945,D4,477.0,1.0,95,97.0
6946,B2,477.0,1.0,95,97.0
6947,D4,478.0,0.75,95,97.0
6948,B2,478.0,0.75,95,97.0
6949,G6,478.0,2.0,63,97.0
6950,G5,478.0,2.0,63,97.0
6951,E4,478.0,1.75,95,97.0
6952,C4,478.0,1.75,95,97.0
6953,G3,478.0,1.75,95,97.0
6954,E4,478.75,2.5,95,97.0
6955,C3,478.75,3.25,95,97.0
6956,D4,479.75,2.25,95,97.0
6957,A3,479.75,2.25,95,97.0
6958,F#3,479.75,2.25,95,97.0
6959,F#6,480.0,1.0,63,97.0
6960,F#5,480.0,1.0,63,97.0
6961,D6,481.0,1.0,63,97.0
6962,D5,481.0,1.0,63,97.0
6963,D4,481.25,0.25,79,97.0
6964,G4,481.5,0.25,95,97.0
6965,A4,481.75,0.25,95,97.0
6966,B-4,482.0,0.125,95,97.0
6967,D6,482.0,0.75,63,97.0
6968,D5,482.0,0.75,63,97.0
6969,G4,482.0,0.75,95,97.0
6970,E4,482.0,0.75,95,97.0
6971,B3,482.0,0.75,95,97.0
6972,B3,482.0,2.0,95,97.0
6973,G2,482.0,2.0,95,97.0
6974,B4,482.125,0.625,95,97.0
6975,G4,482.75,0.75,95,97.0
6976,F#4,482.75,1.25,95,97.0
6977,E6,482.75,3.25,63,97.0
6978,E5,482.75,3.25,63,97.0
6979,D4,482.75,1.0,95,97.0
6980,A3,482.75,1.0,95,97.0
6981,D4,483.5,0.5,95,97.0
6982,A4,484.0,0.75,95,97.0
6983,E4,484.0,0.75,95,97.0
6984,C4,484.0,0.75,95,97.0
6985,G3,484.0,0.75,95,97.0
6986,F#3,484.0,2.0,95,97.0
6987,F#2,484.0,2.0,95,97.0
6988,D5,484.75,0.75,95,97.0
6989,D4,484.75,1.25,95,97.0
6990,B3,484.75,1.25,95,97.0
6991,G3,484.75,1.25,95,97.0
6992,G4,485.5,0.25,95,97.0
6993,F#4,485.75,0.25,95,97.0
6994,E4,486.0,3.0,95,97.0
6995,C2,486.0,4.0,95,97.0
6996,E4,486.0,1.75,95,97.0
6997,C4,486.0,1.75,95,97.0
6998,G3,486.0,1.75,95,97.0
6999,D4,487.75,2.25,95,97.0
7000,A3,487.75,2.25,95,97.0
7001,F#3,487.75,2.25,95,97.0
7002,G3,489.0,0.25,95,97.0
7003,A3,489.25,0.25,95,97.0
7004,B3,489.5,0.25,95,97.0
7005,D4,489.75,0.25,95,97.0
7006,C4,490.0,0.75,95,97.0
7007,A1,490.0,0.75,95,97.0
7008,E4,490.0,4.0,95,97.0
7009,C4,490.0,4.0,95,97.0
7010,G3,490.0,4.0,95,97.0
7011,B3,490.75,0.75,95,97.0
7012,G1,490.75,1.25,95,97.0
7013,A3,491.5,0.25,95,97.0
7014,G3,491.75,0.25,95,97.0
7015,A3,492.0,0.75,95,97.0
7016,F#1,492.0,0.75,95,97.0
7017,B3,492.75,0.75,95,97.0
7018,G1,492.75,0.75,95,97.0
7019,C4,493.5,0.5,95,97.0
7020,F1,493.5,0.5,95,97.0
7021,C4,494.0,4.0,95,97.0
7022,F1,494.0,4.0,95,97.0
7023,C6,494.0,0.75,63,97.0
7024,C5,494.0,0.75,63,97.0
7025,E4,494.0,1.75,95,97.0
7026,C4,494.0,1.75,95,97.0
7027,G3,494.0,1.75,95,97.0
7028,B5,494.75,1.25,63,97.0
7029,B4,494.75,1.25,63,97.0
7030,E4,495.75,2.25,95,97.0
7031,B3,495.75,2.25,95,97.0
7032,G3,495.75,2.25,95,97.0
7033,A5,496.0,0.75,79,97.0
7034,A4,496.0,0.75,79,97.0
7035,D6,496.75,0.75,79,97.0
7036,D5,496.75,0.75,79,97.0
7037,G6,497.5,0.5,79,97.0
7038,G5,497.5,0.5,79,97.0
7039,E4,498.0,1.75,95,97.0
7040,C4,498.0,1.75,95,97.0
7041,G3,498.0,1.75,95,97.0
7042,E4,499.75,2.25,95,97.0
7043,B3,499.75,2.25,95,97.0
7044,G3,499.75,2.25,95,97.0
7045,G6,502.0,4.0,79,97.0
7046,G5,502.0,4.0,79,97.0
7047,E4,502.0,1.75,95,97.0
7048,C4,502.0,1.75,95,97.0
7049,G3,502.0,1.75,95,97.0
7050,D4,503.75,2.25,95,97.0
7051,B3,503.75,2.25,95,97.0
7052,G3,503.75,2.25,95,97.0
7053,E4,506.0,1.75,95,97.0
7054,C4,506.0,1.75,95,97.0
7055,G3,506.0,1.75,95,97.0
7056,D4,507.75,2.25,95,97.0
7057,A3,507.75,2.25,95,97.0
7058,F#3,507.75,2.25,95,97.0
7059,E4,510.0,1.75,95,97.0
7060,C4,510.0,1.75,95,97.0
7061,G3,510.0,1.75,95,97.0
7062,D4,511.75,2.25,95,97.0
7063,A3,511.75,2.25,95,97.0
7064,F#3,511.75,2.25,95,97.0
7065,G4,514.0,0.75,95,97.0
7066,E4,514.0,0.75,95,97.0
7067,B3,514.0,0.75,95,97.0
7068,F#4,514.75,1.25,95,97.0
7069,D4,514.75,1.0,95,97.0
7070,A3,514.75,1.0,95,97.0
7071,E4,516.0,0.75,95,97.0
7072,C4,516.0,0.75,95,97.0
7073,G3,516.0,0.75,95,97.0
7074,D4,516.75,1.25,95,97.0
7075,B3,516.75,1.25,95,97.0
7076,G3,516.75,1.25,95,97.0
7077,E4,518.0,1.75,95,97.0
7078,C4,518.0,1.75,95,97.0
7079,G3,518.0,1.75,95,97.0
7080,D4,519.75,2.25,95,97.0
7081,A3,519.75,2.25,95,97.0
7082,F#3,519.75,2.25,95,97.0
7083,D4,522.0,0.75,95,97.0
7084,A3,522.0,0.75,95,97.0
7085,F#3,522.0,0.75,95,97.0
7086,E4,522.75,3.25,95,97.0
7087,C4,522.75,3.25,95,97.0
7088,G3,522.75,3.25,95,97.0
7089,G4,526.0,2.0,95,97.0
7090,E4,526.0,2.0,95,97.0
7091,B3,526.0,2.0,95,97.0
7092,F#4,528.0,2.0,95,97.0
7093,D4,528.0,2.0,95,97.0
7094,A3,528.0,2.0,95,97.0
7095,D4,530.0,0.75,95,97.0
7096,A3,530.0,0.75,95,97.0
7097,F#3,530.0,0.75,95,97.0
7098,E4,530.75,3.25,95,97.0
7099,C4,530.75,3.25,95,97.0
7100,G3,530.75,3.25,95,97.0
7101,B4,534.0,2.0,95,97.0
7102,G4,534.0,2.0,95,97.0
7103,D4,534.0,2.0,95,97.0
7104,A4,536.0,2.0,95,97.0
7105,F#4,536.0,2.0,95,97.0
7106,D4,536.0,2.0,95,97.0
7107,E4,538.0,4.0,95,97.0
7108,C4,538.0,4.0,95,97.0
7109,G3,538.0,4.0,95,97.0
7110,G4,542.0,0.75,95,97.0
7111,E4,542.0,0.75,95,97.0
7112,C4,542.0,0.75,95,97.0
7113,G4,542.75,1.25,95,97.0
7114,D4,542.75,1.25,95,97.0
7115,B3,542.75,1.25,95,97.0
7116,A4,544.0,0.75,95,97.0
7117,F#4,544.0,0.75,95,97.0
7118,D4,544.0,0.75,95,97.0
7119,B4,544.75,0.75,95,97.0
7120,F#4,544.75,0.75,95,97.0
7121,D4,544.75,0.75,95,97.0
7122,G6,545.5,0.5,92,97.0
7123,G5,545.5,0.5,92,97.0
7124,E4,545.5,0.5,92,97.0
7125,C4,545.5,0.5,92,97.0
7126,A3,545.5,0.5,92,97.0
7127,G6,550.0,4.0,92,97.0
7128,G5,550.0,4.0,92,97.0
7129,E4,550.0,4.0,92,97.0
7130,C4,550.0,4.0,92,97.0
7131,A3,550.0,4.0,92,97.0
7132,E-3,2527.6,0.75,63,97.0
7133,E-3,2528.35,33/20,63,97.0
7134,E-3,2530.0,8/5,63,97.0
7135,E-3,2533.1,0.25,63,97.0
7136,E-3,2533.35,0.25,47,97.0
7137,E-3,2533.6,2/5,47,97.0
7138,E-3,2534.0,8/5,47,97.0
7139,F3,2535.6,0.75,63,97.0
7140,F3,2536.35,1.25,63,97.0
7141,E-3,2537.6,2/5,63,97.0
7142,E-3,2538.0,7/20,63,97.0
7143,E-3,2538.35,0.25,63,97.0
7144,E-3,2538.6,0.5,63,97.0
7145,E-3,2539.1,0.25,63,97.0
7146,E-3,2539.35,0.25,63,97.0
7147,F3,2539.6,1.0,63,97.0
7148,G#2,2540.6,0.25,31,97.0
7149,G#2,2540.85,0.25,47,97.0
7150,G#2,2541.1,0.25,63,97.0
7151,G#2,2541.35,0.25,63,97.0
7152,F3,2541.6,2/5,63,97.0
7153,F3,2542.0,7/20,63,97.0
7154,G#2,2542.35,0.25,63,97.0
7155,G#2,2542.6,0.5,63,97.0
7156,G#2,2543.1,0.25,63,97.0
7157,G#2,2543.35,0.25,63,97.0
7158,E3,2543.6,2.0,63,97.0
7159,E-3,2545.6,2/5,63,97.0
7160,E-3,2546.0,8/5,63,97.0
7161,C2,2547.6,0.75,79,97.0
7162,C#3,2547.6,0.75,79,97.0
7163,C2,2548.35,1.25,95,97.0
7164,C#3,2548.35,1.0,63,97.0
7165,C2,2549.6,2/5,87,97.0
7166,A3,2549.6,2/5,87,97.0
7167,C2,2550.0,7/20,87,97.0
7168,A3,2550.0,7/20,87,97.0
7169,C2,2550.35,0.75,87,97.0
7170,A3,2550.35,0.75,87,97.0
7171,C2,2551.1,0.5,87,97.0
7172,C#3,2551.1,0.5,87,97.0
7173,F3,2552.1,1.0,63,97.0
7174,F3,2553.1,9/10,63,97.0
7175,F3,2554.0,8/5,63,97.0
7176,C2,2555.6,0.75,79,97.0
7177,C#3,2555.6,0.75,79,97.0
7178,C2,2556.35,0.75,79,97.0
7179,C#3,2556.35,0.75,79,97.0
7180,C2,2557.1,0.25,63,97.0
7181,C2,2557.35,0.25,95,97.0
7182,C2,2557.6,2/5,87,97.0
7183,A3,2557.6,2/5,87,97.0
7184,C2,2558.0,7/20,87,97.0
7185,A3,2558.0,7/20,87,97.0
7186,C2,2558.35,0.25,87,97.0
7187,A3,2558.35,0.25,87,97.0
7188,A2,2558.6,0.25,95,97.0
7189,D2,2558.85,0.25,95,97.0
7190,B2,2559.1,0.5,95,97.0
7191,G#2,2559.6,0.25,84,97.0
7192,B1,2559.6,0.25,84,97.0
7193,C#3,2559.6,0.25,84,97.0
7194,G#2,2559.85,0.25,47,97.0
7195,G#2,2560.1,0.25,63,97.0
7196,F#3,2560.1,0.25,63,97.0
7197,G#2,2560.35,0.25,87,97.0
7198,B1,2560.35,0.25,87,97.0
7199,G#2,2560.6,0.25,79,97.0
7200,G#2,2560.85,0.25,63,97.0
7201,G#2,2561.1,0.25,47,97.0
7202,G#2,2561.35,0.25,71,97.0
7203,B1,2561.35,0.25,71,97.0
7204,G#2,2561.6,0.25,87,97.0
7205,B1,2561.6,0.25,87,97.0
7206,G#2,2561.85,3/20,63,97.0
7207,G#2,2562.0,1/10,63,97.0
7208,F#2,2562.1,0.25,63,97.0
7209,F#2,2562.35,0.25,58,97.0
7210,C#5,2562.35,0.25,58,97.0
7211,B1,2562.35,0.25,58,97.0
7212,F#2,2562.6,0.25,55,97.0
7213,C#5,2562.6,0.25,55,97.0
7214,G#2,2562.85,0.25,63,97.0
7215,G#2,2563.1,0.25,63,97.0
7216,C#5,2563.1,0.25,63,97.0
7217,B1,2563.1,0.25,63,97.0
7218,G#2,2563.35,0.25,47,97.0
7219,C#5,2563.35,0.25,47,97.0
7220,G#2,2563.6,0.25,79,97.0
7221,B1,2563.6,0.25,79,97.0
7222,G#2,2563.85,0.25,47,97.0
7223,G#2,2564.1,0.25,63,97.0
7224,F#3,2564.1,0.25,63,97.0
7225,G#2,2564.35,0.25,87,97.0
7226,B1,2564.35,0.25,87,97.0
7227,G#2,2564.6,0.25,79,97.0
7228,G#2,2564.85,0.25,63,97.0
7229,G#2,2565.1,0.25,47,97.0
7230,G#2,2565.35,0.25,71,97.0
7231,B1,2565.35,0.25,71,97.0
7232,G#2,2565.6,0.25,87,97.0
7233,B1,2565.6,0.25,87,97.0
7234,G#2,2565.85,3/20,63,97.0
7235,G#2,2566.0,1/10,63,97.0
7236,F#2,2566.1,0.25,63,97.0
7237,C#5,2566.1,0.25,63,97.0
7238,F#2,2566.35,0.25,47,97.0
7239,C#5,2566.35,0.25,47,97.0
7240,F#2,2566.6,0.25,79,97.0
7241,B1,2566.6,0.25,79,97.0
7242,G#2,2566.85,0.25,63,97.0
7243,G#2,2567.1,0.25,71,97.0
7244,D2,2567.1,0.25,71,97.0
7245,G#2,2567.35,0.25,47,97.0
7246,G#2,2567.6,0.25,79,97.0
7247,B1,2567.6,0.25,79,97.0
7248,G#2,2567.85,0.25,47,97.0
7249,G#2,2568.1,0.25,63,97.0
7250,F#3,2568.1,0.25,63,97.0
7251,G#2,2568.35,0.25,87,97.0
7252,B1,2568.35,0.25,87,97.0
7253,G#2,2568.6,0.25,79,97.0
7254,G#2,2568.85,0.25,63,97.0
7255,G#2,2569.1,0.25,47,97.0
7256,G#2,2569.35,0.25,71,97.0
7257,B1,2569.35,0.25,71,97.0
7258,G#2,2569.6,0.25,87,97.0
7259,B1,2569.6,0.25,87,97.0
7260,G#2,2569.85,3/20,63,97.0
7261,G#2,2570.0,1/10,63,97.0
7262,F#2,2570.1,0.25,63,97.0
7263,F#2,2570.35,0.25,58,97.0
7264,C#5,2570.35,0.25,58,97.0
7265,B1,2570.35,0.25,58,97.0
7266,F#2,2570.6,0.25,55,97.0
7267,C#5,2570.6,0.25,55,97.0
7268,G#2,2570.85,0.25,63,97.0
7269,G#2,2571.1,0.25,63,97.0
7270,C#5,2571.1,0.25,63,97.0
7271,B1,2571.1,0.25,63,97.0
7272,G#2,2571.35,0.25,47,97.0
7273,C#5,2571.35,0.25,47,97.0
7274,G#2,2571.6,0.25,79,97.0
7275,B1,2571.6,0.25,79,97.0
7276,G#2,2571.85,0.25,47,97.0
7277,G#2,2572.1,0.25,63,97.0
7278,F#3,2572.1,0.25,63,97.0
7279,G#2,2572.35,0.25,87,97.0
7280,B1,2572.35,0.25,87,97.0
7281,G#2,2572.6,0.25,79,97.0
7282,G#2,2572.85,0.25,63,97.0
7283,G#2,2573.1,0.25,47,97.0
7284,G#2,2573.35,0.25,71,97.0
7285,B1,2573.35,0.25,71,97.0
7286,G#2,2573.6,0.25,87,97.0
7287,B1,2573.6,0.25,87,97.0
7288,G#2,2573.85,3/20,63,97.0
7289,G#2,2574.0,1/10,63,97.0
7290,F#2,2574.1,0.25,63,97.0
7291,C#5,2574.1,0.25,63,97.0
7292,F#2,2574.35,0.25,47,97.0
7293,C#5,2574.35,0.25,47,97.0
7294,F#2,2574.6,0.25,79,97.0
7295,B1,2574.6,0.25,79,97.0
7296,G#2,2574.85,0.25,63,97.0
7297,G#2,2575.1,0.25,71,97.0
7298,D2,2575.1,0.25,71,97.0
7299,G#2,2575.35,0.25,47,97.0
7300,G#2,2575.6,0.25,79,97.0
7301,B1,2575.6,0.25,79,97.0
7302,G#2,2575.85,0.25,47,97.0
7303,G#2,2576.1,0.25,63,97.0
7304,F#3,2576.1,0.25,63,97.0
7305,G#2,2576.35,0.25,87,97.0
7306,B1,2576.35,0.25,87,97.0
7307,G#2,2576.6,0.25,79,97.0
7308,G#2,2576.85,0.25,63,97.0
7309,G#2,2577.1,0.25,47,97.0
7310,G#2,2577.35,0.25,71,97.0
7311,B1,2577.35,0.25,71,97.0
7312,G#2,2577.6,0.25,87,97.0
7313,B1,2577.6,0.25,87,97.0
7314,G#2,2577.85,3/20,63,97.0
7315,G#2,2578.0,1/10,63,97.0
7316,F#2,2578.1,0.25,63,97.0
7317,F#2,2578.35,0.25,58,97.0
7318,C#5,2578.35,0.25,58,97.0
7319,B1,2578.35,0.25,58,97.0
7320,F#2,2578.6,0.25,55,97.0
7321,C#5,2578.6,0.25,55,97.0
7322,G#2,2578.85,0.25,63,97.0
7323,G#2,2579.1,0.25,63,97.0
7324,C#5,2579.1,0.25,63,97.0
7325,B1,2579.1,0.25,63,97.0
7326,G#2,2579.35,0.25,47,97.0
7327,C#5,2579.35,0.25,47,97.0
7328,G#2,2579.6,0.25,79,97.0
7329,B1,2579.6,0.25,79,97.0
7330,G#2,2579.85,0.25,47,97.0
7331,G#2,2580.1,0.25,63,97.0
7332,F#3,2580.1,0.25,63,97.0
7333,G#2,2580.35,0.25,87,97.0
7334,B1,2580.35,0.25,87,97.0
7335,G#2,2580.6,0.25,79,97.0
7336,G#2,2580.85,0.25,63,97.0
7337,G#2,2581.1,0.25,47,97.0
7338,G#2,2581.35,0.25,71,97.0
7339,B1,2581.35,0.25,71,97.0
7340,G#2,2581.6,0.25,87,97.0
7341,B1,2581.6,0.25,87,97.0
7342,G#2,2581.85,3/20,63,97.0
7343,G#2,2582.0,1/10,63,97.0
7344,F#2,2582.1,0.25,63,97.0
7345,C#5,2582.1,0.25,63,97.0
7346,F#2,2582.35,0.25,47,97.0
7347,C#5,2582.35,0.25,47,97.0
7348,F#2,2582.6,0.25,79,97.0
7349,B1,2582.6,0.25,79,97.0
7350,G#2,2582.85,0.25,63,97.0
7351,G#2,2583.1,0.25,71,97.0
7352,D2,2583.1,0.25,71,97.0
7353,G#2,2583.35,0.25,47,97.0
7354,G#2,2583.6,0.25,79,97.0
7355,B1,2583.6,0.25,79,97.0
7356,G#2,2583.85,0.25,47,97.0
7357,G#2,2584.1,0.25,63,97.0
7358,F#3,2584.1,0.25,63,97.0
7359,G#2,2584.35,0.25,87,97.0
7360,B1,2584.35,0.25,87,97.0
7361,G#2,2584.6,0.25,79,97.0
7362,G#2,2584.85,0.25,63,97.0
7363,G#2,2585.1,0.25,47,97.0
7364,G#2,2585.35,0.25,71,97.0
7365,B1,2585.35,0.25,71,97.0
7366,G#2,2585.6,0.25,87,97.0
7367,B1,2585.6,0.25,87,97.0
7368,G#2,2585.85,3/20,63,97.0
7369,G#2,2586.0,1/10,63,97.0
7370,F#2,2586.1,0.25,63,97.0
7371,F#2,2586.35,0.25,58,97.0
7372,C#5,2586.35,0.25,58,97.0
7373,B1,2586.35,0.25,58,97.0
7374,F#2,2586.6,0.25,55,97.0
7375,C#5,2586.6,0.25,55,97.0
7376,G#2,2586.85,0.25,63,97.0
7377,G#2,2587.1,0.25,63,97.0
7378,C#5,2587.1,0.25,63,97.0
7379,B1,2587.1,0.25,63,97.0
7380,G#2,2587.35,0.25,47,97.0
7381,C#5,2587.35,0.25,47,97.0
7382,G#2,2587.6,0.25,79,97.0
7383,B1,2587.6,0.25,79,97.0
7384,G#2,2587.85,0.25,47,97.0
7385,G#2,2588.1,0.25,63,97.0
7386,F#3,2588.1,0.25,63,97.0
7387,G#2,2588.35,0.25,87,97.0
7388,B1,2588.35,0.25,87,97.0
7389,G#2,2588.6,0.25,79,97.0
7390,G#2,2588.85,0.25,63,97.0
7391,G#2,2589.1,0.25,47,97.0
7392,G#2,2589.35,0.25,71,97.0
7393,B1,2589.35,0.25,71,97.0
7394,G#2,2589.6,0.25,87,97.0
7395,B1,2589.6,0.25,87,97.0
7396,G#2,2589.85,3/20,63,97.0
7397,G#2,2590.0,1/10,63,97.0
7398,F#2,2590.1,0.25,63,97.0
7399,C#5,2590.1,0.25,63,97.0
7400,F#2,2590.35,0.25,47,97.0
7401,C#5,2590.35,0.25,47,97.0
7402,F#2,2590.6,0.25,79,97.0
7403,B1,2590.6,0.25,79,97.0
7404,G#2,2590.85,0.25,63,97.0
7405,G#2,2591.1,0.25,71,97.0
7406,D2,2591.1,0.25,71,97.0
7407,G#2,2591.35,0.25,47,97.0
7408,G#2,2591.6,0.25,84,97.0
7409,B1,2591.6,0.25,84,97.0
7410,C#3,2591.6,0.25,84,97.0
7411,G#2,2591.85,0.25,47,97.0
7412,G#2,2592.1,0.25,63,97.0
7413,F#3,2592.1,0.25,63,97.0
7414,G#2,2592.35,0.25,87,97.0
7415,B1,2592.35,0.25,87,97.0
7416,G#2,2592.6,0.25,79,97.0
7417,G#2,2592.85,0.25,63,97.0
7418,G#2,2593.1,0.25,47,97.0
7419,G#2,2593.35,0.25,71,97.0
7420,B1,2593.35,0.25,71,97.0
7421,G#2,2593.6,0.25,87,97.0
7422,B1,2593.6,0.25,87,97.0
7423,G#2,2593.85,3/20,63,97.0
7424,G#2,2594.0,1/10,63,97.0
7425,F#2,2594.1,0.25,63,97.0
7426,F#2,2594.35,0.25,58,97.0
7427,C#5,2594.35,0.25,58,97.0
7428,B1,2594.35,0.25,58,97.0
7429,F#2,2594.6,0.25,55,97.0
7430,C#5,2594.6,0.25,55,97.0
7431,G#2,2594.85,0.25,63,97.0
7432,G#2,2595.1,0.25,63,97.0
7433,C#5,2595.1,0.25,63,97.0
7434,B1,2595.1,0.25,63,97.0
7435,G#2,2595.35,0.25,47,97.0
7436,C#5,2595.35,0.25,47,97.0
7437,G#2,2595.6,0.25,79,97.0
7438,B1,2595.6,0.25,79,97.0
7439,G#2,2595.85,0.25,47,97.0
7440,G#2,2596.1,0.25,63,97.0
7441,F#3,2596.1,0.25,63,97.0
7442,G#2,2596.35,0.25,87,97.0
7443,B1,2596.35,0.25,87,97.0
7444,G#2,2596.6,0.25,79,97.0
7445,G#2,2596.85,0.25,63,97.0
7446,G#2,2597.1,0.25,47,97.0
7447,G#2,2597.35,0.25,71,97.0
7448,B1,2597.35,0.25,71,97.0
7449,G#2,2597.6,0.25,87,97.0
7450,B1,2597.6,0.25,87,97.0
7451,G#2,2597.85,3/20,63,97.0
7452,G#2,2598.0,1/10,63,97.0
7453,F#2,2598.1,0.25,63,97.0
7454,C#5,2598.1,0.25,63,97.0
7455,F#2,2598.35,0.25,47,97.0
7456,C#5,2598.35,0.25,47,97.0
7457,F#2,2598.6,0.25,79,97.0
7458,B1,2598.6,0.25,79,97.0
7459,G#2,2598.85,0.25,63,97.0
7460,G#2,2599.1,0.25,71,97.0
7461,D2,2599.1,0.25,71,97.0
7462,G#2,2599.35,0.25,47,97.0
7463,G#2,2599.6,0.25,79,97.0
7464,B1,2599.6,0.25,79,97.0
7465,G#2,2599.85,0.25,47,97.0
7466,G#2,2600.1,0.25,63,97.0
7467,F#3,2600.1,0.25,63,97.0
7468,G#2,2600.35,0.25,87,97.0
7469,B1,2600.35,0.25,87,97.0
7470,G#2,2600.6,0.25,79,97.0
7471,G#2,2600.85,0.25,63,97.0
7472,G#2,2601.1,0.25,47,97.0
7473,G#2,2601.35,0.25,71,97.0
7474,B1,2601.35,0.25,71,97.0
7475,G#2,2601.6,0.25,87,97.0
7476,B1,2601.6,0.25,87,97.0
7477,G#2,2601.85,3/20,63,97.0
7478,G#2,2602.0,1/10,63,97.0
7479,F#2,2602.1,0.25,63,97.0
7480,F#2,2602.35,0.25,58,97.0
7481,C#5,2602.35,0.25,58,97.0
7482,B1,2602.35,0.25,58,97.0
7483,F#2,2602.6,0.25,55,97.0
7484,C#5,2602.6,0.25,55,97.0
7485,G#2,2602.85,0.25,63,97.0
7486,G#2,2603.1,0.25,63,97.0
7487,C#5,2603.1,0.25,63,97.0
7488,B1,2603.1,0.25,63,97.0
7489,G#2,2603.35,0.25,47,97.0
7490,C#5,2603.35,0.25,47,97.0
7491,G#2,2603.6,0.25,79,97.0
7492,B1,2603.6,0.25,79,97.0
7493,G#2,2603.85,0.25,47,97.0
7494,G#2,2604.1,0.25,63,97.0
7495,F#3,2604.1,0.25,63,97.0
7496,G#2,2604.35,0.25,87,97.0
7497,B1,2604.35,0.25,87,97.0
7498,G#2,2604.6,0.25,79,97.0
7499,G#2,2604.85,0.25,63,97.0
7500,G#2,2605.1,0.25,47,97.0
7501,G#2,2605.35,0.25,71,97.0
7502,B1,2605.35,0.25,71,97.0
7503,G#2,2605.6,0.25,87,97.0
7504,B1,2605.6,0.25,87,97.0
7505,G#2,2605.85,3/20,63,97.0
7506,G#2,2606.0,1/10,63,97.0
7507,F#2,2606.1,0.25,63,97.0
7508,C#5,2606.1,0.25,63,97.0
7509,F#2,2606.35,0.25,47,97.0
7510,C#5,2606.35,0.25,47,97.0
7511,F#2,2606.6,0.25,79,97.0
7512,B1,2606.6,0.25,79,97.0
7513,G#2,2606.85,0.25,63,97.0
7514,G#2,2607.1,0.25,71,97.0
7515,D2,2607.1,0.25,71,97.0
7516,G#2,2607.35,0.25,47,97.0
7517,G#2,2607.6,0.25,79,97.0
7518,B1,2607.6,0.25,79,97.0
7519,G#2,2607.85,0.25,47,97.0
7520,G#2,2608.1,0.25,63,97.0
7521,F#3,2608.1,0.25,63,97.0
7522,G#2,2608.35,0.25,87,97.0
7523,B1,2608.35,0.25,87,97.0
7524,G#2,2608.6,0.25,79,97.0
7525,G#2,2608.85,0.25,63,97.0
7526,G#2,2609.1,0.25,47,97.0
7527,G#2,2609.35,0.25,71,97.0
7528,B1,2609.35,0.25,71,97.0
7529,G#2,2609.6,0.25,87,97.0
7530,B1,2609.6,0.25,87,97.0
7531,G#2,2609.85,3/20,63,97.0
7532,G#2,2610.0,1/10,63,97.0
7533,F#2,2610.1,0.25,63,97.0
7534,F#2,2610.35,0.25,58,97.0
7535,C#5,2610.35,0.25,58,97.0
7536,B1,2610.35,0.25,58,97.0
7537,F#2,2610.6,0.25,55,97.0
7538,C#5,2610.6,0.25,55,97.0
7539,G#2,2610.85,0.25,63,97.0
7540,G#2,2611.1,0.25,63,97.0
7541,C#5,2611.1,0.25,63,97.0
7542,B1,2611.1,0.25,63,97.0
7543,G#2,2611.35,0.25,47,97.0
7544,C#5,2611.35,0.25,47,97.0
7545,G#2,2611.6,0.25,79,97.0
7546,B1,2611.6,0.25,79,97.0
7547,G#2,2611.85,0.25,47,97.0
7548,G#2,2612.1,0.25,63,97.0
7549,F#3,2612.1,0.25,63,97.0
7550,G#2,2612.35,0.25,87,97.0
7551,B1,2612.35,0.25,87,97.0
7552,G#2,2612.6,0.25,79,97.0
7553,G#2,2612.85,0.25,63,97.0
7554,G#2,2613.1,0.25,47,97.0
7555,G#2,2613.35,0.25,71,97.0
7556,B1,2613.35,0.25,71,97.0
7557,G#2,2613.6,0.25,87,97.0
7558,B1,2613.6,0.25,87,97.0
7559,G#2,2613.85,3/20,63,97.0
7560,G#2,2614.0,1/10,63,97.0
7561,F#2,2614.1,0.25,63,97.0
7562,C#5,2614.1,0.25,63,97.0
7563,F#2,2614.35,0.25,47,97.0
7564,C#5,2614.35,0.25,47,97.0
7565,F#2,2614.6,0.25,79,97.0
7566,B1,2614.6,0.25,79,97.0
7567,G#2,2614.85,0.25,63,97.0
7568,G#2,2615.1,0.25,71,97.0
7569,D2,2615.1,0.25,71,97.0
7570,G#2,2615.35,0.25,47,97.0
7571,G#2,2615.6,0.25,79,97.0
7572,B1,2615.6,0.25,79,97.0
7573,G#2,2615.85,0.25,47,97.0
7574,G#2,2616.1,0.25,63,97.0
7575,F#3,2616.1,0.25,63,97.0
7576,G#2,2616.35,0.25,87,97.0
7577,B1,2616.35,0.25,87,97.0
7578,G#2,2616.6,0.25,79,97.0
7579,G#2,2616.85,0.25,63,97.0
7580,G#2,2617.1,0.25,47,97.0
7581,G#2,2617.35,0.25,71,97.0
7582,B1,2617.35,0.25,71,97.0
7583,G#2,2617.6,0.25,87,97.0
7584,B1,2617.6,0.25,87,97.0
7585,G#2,2617.85,3/20,63,97.0
7586,G#2,2618.0,1/10,63,97.0
7587,F#2,2618.1,0.25,63,97.0
7588,F#2,2618.35,0.25,58,97.0
7589,C#5,2618.35,0.25,58,97.0
7590,B1,2618.35,0.25,58,97.0
7591,F#2,2618.6,0.25,55,97.0
7592,C#5,2618.6,0.25,55,97.0
7593,G#2,2618.85,0.25,63,97.0
7594,G#2,2619.1,0.25,63,97.0
7595,C#5,2619.1,0.25,63,97.0
7596,B1,2619.1,0.25,63,97.0
7597,G#2,2619.35,0.25,47,97.0
7598,C#5,2619.35,0.25,47,97.0
7599,G#2,2619.6,0.25,79,97.0
7600,B1,2619.6,0.25,79,97.0
7601,G#2,2619.85,0.25,47,97.0
7602,G#2,2620.1,0.25,63,97.0
7603,F#3,2620.1,0.25,63,97.0
7604,G#2,2620.35,0.25,87,97.0
7605,B1,2620.35,0.25,87,97.0
7606,G#2,2620.6,0.25,79,97.0
7607,G#2,2620.85,0.25,63,97.0
7608,G#2,2621.1,0.25,47,97.0
7609,G#2,2621.35,0.25,71,97.0
7610,B1,2621.35,0.25,71,97.0
7611,G#2,2621.6,0.25,87,97.0
7612,B1,2621.6,0.25,87,97.0
7613,G#2,2621.85,3/20,63,97.0
7614,G#2,2622.0,1/10,63,97.0
7615,F#2,2622.1,0.25,63,97.0
7616,C#5,2622.1,0.25,63,97.0
7617,F#2,2622.35,0.25,47,97.0
7618,C#5,2622.35,0.25,47,97.0
7619,F#2,2622.6,0.25,79,97.0
7620,B1,2622.6,0.25,79,97.0
7621,G#2,2622.85,0.25,63,97.0
7622,G#2,2623.1,0.25,71,97.0
7623,D2,2623.1,0.25,71,97.0
7624,G#2,2623.35,0.25,47,97.0
7625,G#2,2623.6,0.25,74,97.0
7626,B1,2623.6,0.25,74,97.0
7627,E3,2623.6,0.25,74,97.0
7628,G#2,2623.85,0.25,47,97.0
7629,G#2,2624.1,0.25,63,97.0
7630,F#3,2624.1,0.25,63,97.0
7631,G#2,2624.35,0.25,87,97.0
7632,B1,2624.35,0.25,87,97.0
7633,G#2,2624.6,0.25,79,97.0
7634,G#2,2624.85,0.25,63,97.0
7635,G#2,2625.1,0.25,47,97.0
7636,G#2,2625.35,0.25,71,97.0
7637,B1,2625.35,0.25,71,97.0
7638,G#2,2625.6,0.25,87,97.0
7639,B1,2625.6,0.25,87,97.0
7640,G#2,2625.85,3/20,63,97.0
7641,G#2,2626.0,1/10,63,97.0
7642,F#2,2626.1,0.25,63,97.0
7643,F#2,2626.35,0.25,58,97.0
7644,C#5,2626.35,0.25,58,97.0
7645,B1,2626.35,0.25,58,97.0
7646,F#2,2626.6,0.25,55,97.0
7647,C#5,2626.6,0.25,55,97.0
7648,G#2,2626.85,0.25,63,97.0
7649,G#2,2627.1,0.25,63,97.0
7650,C#5,2627.1,0.25,63,97.0
7651,B1,2627.1,0.25,63,97.0
7652,G#2,2627.35,0.25,47,97.0
7653,C#5,2627.35,0.25,47,97.0
7654,G#2,2627.6,0.25,79,97.0
7655,B1,2627.6,0.25,79,97.0
7656,G#2,2627.85,0.25,47,97.0
7657,G#2,2628.1,0.25,63,97.0
7658,F#3,2628.1,0.25,63,97.0
7659,G#2,2628.35,0.25,87,97.0
7660,B1,2628.35,0.25,87,97.0
7661,G#2,2628.6,0.25,79,97.0
7662,G#2,2628.85,0.25,63,97.0
7663,G#2,2629.1,0.25,47,97.0
7664,G#2,2629.35,0.25,71,97.0
7665,B1,2629.35,0.25,71,97.0
7666,G#2,2629.6,0.25,87,97.0
7667,B1,2629.6,0.25,87,97.0
7668,G#2,2629.85,3/20,63,97.0
7669,G#2,2630.0,1/10,63,97.0
7670,F#2,2630.1,0.25,63,97.0
7671,C#5,2630.1,0.25,63,97.0
7672,F#2,2630.35,0.25,47,97.0
7673,C#5,2630.35,0.25,47,97.0
7674,F#2,2630.6,0.25,79,97.0
7675,B1,2630.6,0.25,79,97.0
7676,G#2,2630.85,0.25,63,97.0
7677,G#2,2631.1,0.25,71,97.0
7678,D2,2631.1,0.25,71,97.0
7679,G#2,2631.35,0.25,47,97.0
7680,G#2,2631.6,0.25,79,97.0
7681,B1,2631.6,0.25,79,97.0
7682,G#2,2631.85,0.25,47,97.0
7683,G#2,2632.1,0.25,63,97.0
7684,F#3,2632.1,0.25,63,97.0
7685,G#2,2632.35,0.25,87,97.0
7686,B1,2632.35,0.25,87,97.0
7687,G#2,2632.6,0.25,79,97.0
7688,G#2,2632.85,0.25,63,97.0
7689,G#2,2633.1,0.25,47,97.0
7690,G#2,2633.35,0.25,71,97.0
7691,B1,2633.35,0.25,71,97.0
7692,G#2,2633.6,0.25,87,97.0
7693,B1,2633.6,0.25,87,97.0
7694,G#2,2633.85,3/20,63,97.0
7695,G#2,2634.0,1/10,63,97.0
7696,F#2,2634.1,0.25,63,97.0
7697,F#2,2634.35,0.25,58,97.0
7698,C#5,2634.35,0.25,58,97.0
7699,B1,2634.35,0.25,58,97.0
7700,F#2,2634.6,0.25,55,97.0
7701,C#5,2634.6,0.25,55,97.0
7702,G#2,2634.85,0.25,63,97.0
7703,G#2,2635.1,0.25,63,97.0
7704,C#5,2635.1,0.25,63,97.0
7705,B1,2635.1,0.25,63,97.0
7706,G#2,2635.35,0.25,47,97.0
7707,C#5,2635.35,0.25,47,97.0
7708,G#2,2635.6,0.25,79,97.0
7709,B1,2635.6,0.25,79,97.0
7710,G#2,2635.85,0.25,47,97.0
7711,G#2,2636.1,0.25,63,97.0
7712,F#3,2636.1,0.25,63,97.0
7713,G#2,2636.35,0.25,87,97.0
7714,B1,2636.35,0.25,87,97.0
7715,G#2,2636.6,0.25,79,97.0
7716,G#2,2636.85,0.25,63,97.0
7717,G#2,2637.1,0.25,47,97.0
7718,G#2,2637.35,0.25,71,97.0
7719,B1,2637.35,0.25,71,97.0
7720,G#2,2637.6,0.25,87,97.0
7721,B1,2637.6,0.25,87,97.0
7722,G#2,2637.85,3/20,63,97.0
7723,G#2,2638.0,1/10,63,97.0
7724,F#2,2638.1,0.25,63,97.0
7725,C#5,2638.1,0.25,63,97.0
7726,F#2,2638.35,0.25,47,97.0
7727,C#5,2638.35,0.25,47,97.0
7728,F#2,2638.6,0.25,79,97.0
7729,B1,2638.6,0.25,79,97.0
7730,G#2,2638.85,0.25,63,97.0
7731,G#2,2639.1,0.25,71,97.0
7732,D2,2639.1,0.25,71,97.0
7733,G#2,2639.35,0.25,47,97.0
7734,G#2,2639.6,0.25,79,97.0
7735,B1,2639.6,0.25,79,97.0
7736,G#2,2639.85,0.25,47,97.0
7737,G#2,2640.1,0.25,63,97.0
7738,F#3,2640.1,0.25,63,97.0
7739,G#2,2640.35,0.25,87,97.0
7740,B1,2640.35,0.25,87,97.0
7741,G#2,2640.6,0.25,79,97.0
7742,G#2,2640.85,0.25,63,97.0
7743,G#2,2641.1,0.25,47,97.0
7744,G#2,2641.35,0.25,71,97.0
7745,B1,2641.35,0.25,71,97.0
7746,G#2,2641.6,0.25,87,97.0
7747,B1,2641.6,0.25,87,97.0
7748,G#2,2641.85,3/20,63,97.0
7749,G#2,2642.0,1/10,63,97.0
7750,F#2,2642.1,0.25,63,97.0
7751,F#2,2642.35,0.25,58,97.0
7752,C#5,2642.35,0.25,58,97.0
7753,B1,2642.35,0.25,58,97.0
7754,F#2,2642.6,0.25,55,97.0
7755,C#5,2642.6,0.25,55,97.0
7756,G#2,2642.85,0.25,63,97.0
7757,G#2,2643.1,0.25,63,97.0
7758,C#5,2643.1,0.25,63,97.0
7759,B1,2643.1,0.25,63,97.0
7760,G#2,2643.35,0.25,47,97.0
7761,C#5,2643.35,0.25,47,97.0
7762,G#2,2643.6,0.25,79,97.0
7763,B1,2643.6,0.25,79,97.0
7764,G#2,2643.85,0.25,47,97.0
7765,G#2,2644.1,0.25,63,97.0
7766,F#3,2644.1,0.25,63,97.0
7767,G#2,2644.35,0.25,87,97.0
7768,B1,2644.35,0.25,87,97.0
7769,G#2,2644.6,0.25,79,97.0
7770,G#2,2644.85,0.25,63,97.0
7771,G#2,2645.1,0.25,47,97.0
7772,G#2,2645.35,0.25,71,97.0
7773,B1,2645.35,0.25,71,97.0
7774,G#2,2645.6,0.25,87,97.0
7775,B1,2645.6,0.25,87,97.0
7776,G#2,2645.85,3/20,63,97.0
7777,G#2,2646.0,1/10,63,97.0
7778,F#2,2646.1,0.25,63,97.0
7779,C#5,2646.1,0.25,63,97.0
7780,F#2,2646.35,0.25,47,97.0
7781,C#5,2646.35,0.25,47,97.0
7782,F#2,2646.6,0.25,79,97.0
7783,B1,2646.6,0.25,79,97.0
7784,G#2,2646.85,0.25,63,97.0
7785,G#2,2647.1,0.25,71,97.0
7786,D2,2647.1,0.25,71,97.0
7787,G#2,2647.35,0.25,47,97.0
7788,G#2,2647.6,0.25,84,97.0
7789,B1,2647.6,0.25,84,97.0
7790,C#3,2647.6,0.25,84,97.0
7791,G#2,2647.85,0.25,47,97.0
7792,G#2,2648.1,0.25,63,97.0
7793,F#3,2648.1,0.25,63,97.0
7794,G#2,2648.35,0.25,87,97.0
7795,B1,2648.35,0.25,87,97.0
7796,G#2,2648.6,0.25,79,97.0
7797,G#2,2648.85,0.25,63,97.0
7798,G#2,2649.1,0.25,47,97.0
7799,G#2,2649.35,0.25,71,97.0
7800,B1,2649.35,0.25,71,97.0
7801,G#2,2649.6,0.25,87,97.0
7802,B1,2649.6,0.25,87,97.0
7803,G#2,2649.85,3/20,63,97.0
7804,G#2,2650.0,1/10,63,97.0
7805,F#2,2650.1,0.25,63,97.0
7806,F#2,2650.35,0.25,58,97.0
7807,C#5,2650.35,0.25,58,97.0
7808,B1,2650.35,0.25,58,97.0
7809,F#2,2650.6,0.25,55,97.0
7810,C#5,2650.6,0.25,55,97.0
7811,G#2,2650.85,0.25,63,97.0
7812,G#2,2651.1,0.25,63,97.0
7813,C#5,2651.1,0.25,63,97.0
7814,B1,2651.1,0.25,63,97.0
7815,G#2,2651.35,0.25,47,97.0
7816,C#5,2651.35,0.25,47,97.0
7817,G#2,2651.6,0.25,79,97.0
7818,B1,2651.6,0.25,79,97.0
7819,G#2,2651.85,0.25,47,97.0
7820,G#2,2652.1,0.25,63,97.0
7821,F#3,2652.1,0.25,63,97.0
7822,G#2,2652.35,0.25,87,97.0
7823,B1,2652.35,0.25,87,97.0
7824,G#2,2652.6,0.25,79,97.0
7825,G#2,2652.85,0.25,63,97.0
7826,G#2,2653.1,0.25,47,97.0
7827,G#2,2653.35,0.25,71,97.0
7828,B1,2653.35,0.25,71,97.0
7829,G#2,2653.6,0.25,87,97.0
7830,B1,2653.6,0.25,87,97.0
7831,G#2,2653.85,3/20,63,97.0
7832,G#2,2654.0,1/10,63,97.0
7833,F#2,2654.1,0.25,63,97.0
7834,C#5,2654.1,0.25,63,97.0
7835,F#2,2654.35,0.25,47,97.0
7836,C#5,2654.35,0.25,47,97.0
7837,F#2,2654.6,0.25,79,97.0
7838,B1,2654.6,0.25,79,97.0
7839,G#2,2654.85,0.25,63,97.0
7840,G#2,2655.1,0.25,71,97.0
7841,D2,2655.1,0.25,71,97.0
7842,G#2,2655.35,0.25,47,97.0
7843,G#2,2655.6,0.25,79,97.0
7844,B1,2655.6,0.25,79,97.0
7845,G#2,2655.85,0.25,47,97.0
7846,G#2,2656.1,0.25,63,97.0
7847,F#3,2656.1,0.25,63,97.0
7848,G#2,2656.35,0.25,87,97.0
7849,B1,2656.35,0.25,87,97.0
7850,G#2,2656.6,0.25,79,97.0
7851,G#2,2656.85,0.25,63,97.0
7852,G#2,2657.1,0.25,47,97.0
7853,G#2,2657.35,0.25,71,97.0
7854,B1,2657.35,0.25,71,97.0
7855,G#2,2657.6,0.25,87,97.0
7856,B1,2657.6,0.25,87,97.0
7857,G#2,2657.85,3/20,63,97.0
7858,G#2,2658.0,1/10,63,97.0
7859,F#2,2658.1,0.25,63,97.0
7860,F#2,2658.35,0.25,58,97.0
7861,C#5,2658.35,0.25,58,97.0
7862,B1,2658.35,0.25,58,97.0
7863,F#2,2658.6,0.25,55,97.0
7864,C#5,2658.6,0.25,55,97.0
7865,G#2,2658.85,0.25,63,97.0
7866,G#2,2659.1,0.25,63,97.0
7867,C#5,2659.1,0.25,63,97.0
7868,B1,2659.1,0.25,63,97.0
7869,G#2,2659.35,0.25,47,97.0
7870,C#5,2659.35,0.25,47,97.0
7871,G#2,2659.6,0.25,79,97.0
7872,B1,2659.6,0.25,79,97.0
7873,G#2,2659.85,0.25,47,97.0
7874,G#2,2660.1,0.25,63,97.0
7875,F#3,2660.1,0.25,63,97.0
7876,G#2,2660.35,0.25,87,97.0
7877,B1,2660.35,0.25,87,97.0
7878,G#2,2660.6,0.25,79,97.0
7879,G#2,2660.85,0.25,63,97.0
7880,G#2,2661.1,0.25,47,97.0
7881,G#2,2661.35,0.25,71,97.0
7882,B1,2661.35,0.25,71,97.0
7883,G#2,2661.6,0.25,87,97.0
7884,B1,2661.6,0.25,87,97.0
7885,G#2,2661.85,3/20,63,97.0
7886,G#2,2662.0,1/10,63,97.0
7887,F#2,2662.1,0.25,63,97.0
7888,C#5,2662.1,0.25,63,97.0
7889,F#2,2662.35,0.25,47,97.0
7890,C#5,2662.35,0.25,47,97.0
7891,F#2,2662.6,0.25,79,97.0
7892,B1,2662.6,0.25,79,97.0
7893,G#2,2662.85,0.25,63,97.0
7894,G#2,2663.1,0.25,71,97.0
7895,D2,2663.1,0.25,71,97.0
7896,G#2,2663.35,0.25,47,97.0
7897,G#2,2663.6,0.25,79,97.0
7898,B1,2663.6,0.25,79,97.0
7899,G#2,2663.85,0.25,47,97.0
7900,G#2,2664.1,0.25,63,97.0
7901,F#3,2664.1,0.25,63,97.0
7902,G#2,2664.35,0.25,87,97.0
7903,B1,2664.35,0.25,87,97.0
7904,G#2,2664.6,0.25,79,97.0
7905,G#2,2664.85,0.25,63,97.0
7906,G#2,2665.1,0.25,47,97.0
7907,G#2,2665.35,0.25,71,97.0
7908,B1,2665.35,0.25,71,97.0
7909,G#2,2665.6,0.25,87,97.0
7910,B1,2665.6,0.25,87,97.0
7911,G#2,2665.85,3/20,63,97.0
7912,G#2,2666.0,1/10,63,97.0
7913,F#2,2666.1,0.25,63,97.0
7914,F#2,2666.35,0.25,58,97.0
7915,C#5,2666.35,0.25,58,97.0
7916,B1,2666.35,0.25,58,97.0
7917,F#2,2666.6,0.25,55,97.0
7918,C#5,2666.6,0.25,55,97.0
7919,G#2,2666.85,0.25,63,97.0
7920,G#2,2667.1,0.25,63,97.0
7921,C#5,2667.1,0.25,63,97.0
7922,B1,2667.1,0.25,63,97.0
7923,G#2,2667.35,0.25,47,97.0
7924,C#5,2667.35,0.25,47,97.0
7925,G#2,2667.6,0.25,79,97.0
7926,B1,2667.6,0.25,79,97.0
7927,G#2,2667.85,0.25,47,97.0
7928,G#2,2668.1,0.25,63,97.0
7929,F#3,2668.1,0.25,63,97.0
7930,G#2,2668.35,0.25,87,97.0
7931,B1,2668.35,0.25,87,97.0
7932,G#2,2668.6,0.25,79,97.0
7933,G#2,2668.85,0.25,63,97.0
7934,G#2,2669.1,0.25,47,97.0
7935,G#2,2669.35,0.25,71,97.0
7936,B1,2669.35,0.25,71,97.0
7937,G#2,2669.6,0.25,87,97.0
7938,B1,2669.6,0.25,87,97.0
7939,G#2,2669.85,3/20,63,97.0
7940,G#2,2670.0,1/10,63,97.0
7941,F#2,2670.1,0.25,63,97.0
7942,C#5,2670.1,0.25,63,97.0
7943,F#2,2670.35,0.25,47,97.0
7944,C#5,2670.35,0.25,47,97.0
7945,F#2,2670.6,0.25,79,97.0
7946,B1,2670.6,0.25,79,97.0
7947,G#2,2670.85,0.25,63,97.0
7948,G#2,2671.1,0.25,71,97.0
7949,D2,2671.1,0.25,71,97.0
7950,G#2,2671.35,0.25,47,97.0
7951,G#2,2671.6,0.25,79,97.0
7952,B1,2671.6,0.25,79,97.0
7953,G#2,2671.85,0.25,47,97.0
7954,G#2,2672.1,0.25,63,97.0
7955,F#3,2672.1,0.25,63,97.0
7956,G#2,2672.35,0.25,87,97.0
7957,B1,2672.35,0.25,87,97.0
7958,G#2,2672.6,0.25,79,97.0
7959,G#2,2672.85,0.25,63,97.0
7960,G#2,2673.1,0.25,47,97.0
7961,G#2,2673.35,0.25,71,97.0
7962,B1,2673.35,0.25,71,97.0
7963,G#2,2673.6,0.25,87,97.0
7964,B1,2673.6,0.25,87,97.0
7965,G#2,2673.85,3/20,63,97.0
7966,G#2,2674.0,1/10,63,97.0
7967,F#2,2674.1,0.25,63,97.0
7968,F#2,2674.35,0.25,58,97.0
7969,C#5,2674.35,0.25,58,97.0
7970,B1,2674.35,0.25,58,97.0
7971,F#2,2674.6,0.25,55,97.0
7972,C#5,2674.6,0.25,55,97.0
7973,G#2,2674.85,0.25,63,97.0
7974,G#2,2675.1,0.25,63,97.0
7975,C#5,2675.1,0.25,63,97.0
7976,B1,2675.1,0.25,63,97.0
7977,G#2,2675.35,0.25,47,97.0
7978,C#5,2675.35,0.25,47,97.0
7979,G#2,2675.6,0.25,79,97.0
7980,B1,2675.6,0.25,79,97.0
7981,G#2,2675.85,0.25,47,97.0
7982,G#2,2676.1,0.25,63,97.0
7983,F#3,2676.1,0.25,63,97.0
7984,G#2,2676.35,0.25,87,97.0
7985,B1,2676.35,0.25,87,97.0
7986,G#2,2676.6,0.25,79,97.0
7987,G#2,2676.85,0.25,63,97.0
7988,G#2,2677.1,0.25,47,97.0
7989,G#2,2677.35,0.25,71,97.0
7990,B1,2677.35,0.25,71,97.0
7991,G#2,2677.6,0.25,87,97.0
7992,B1,2677.6,0.25,87,97.0
7993,G#2,2677.85,3/20,63,97.0
7994,G#2,2678.0,1/10,63,97.0
7995,F#2,2678.1,0.25,63,97.0
7996,C#5,2678.1,0.25,63,97.0
7997,F#2,2678.35,0.25,47,97.0
7998,C#5,2678.35,0.25,47,97.0
7999,F#2,2678.6,0.25,79,97.0
8000,B1,2678.6,0.25,79,97.0
8001,G#2,2678.85,0.25,63,97.0
8002,G#2,2679.1,0.25,71,97.0
8003,D2,2679.1,0.25,71,97.0
8004,G#2,2679.35,0.25,47,97.0
8005,G#2,2679.6,0.25,74,97.0
8006,B1,2679.6,0.25,74,97.0
8007,E3,2679.6,0.25,74,97.0
8008,G#2,2679.85,0.25,47,97.0
8009,G#2,2680.1,0.25,63,97.0
8010,F#3,2680.1,0.25,63,97.0
8011,G#2,2680.35,0.25,87,97.0
8012,B1,2680.35,0.25,87,97.0
8013,G#2,2680.6,0.25,79,97.0
8014,G#2,2680.85,0.25,63,97.0
8015,G#2,2681.1,0.25,47,97.0
8016,G#2,2681.35,0.25,71,97.0
8017,B1,2681.35,0.25,71,97.0
8018,G#2,2681.6,0.25,87,97.0
8019,B1,2681.6,0.25,87,97.0
8020,G#2,2681.85,3/20,63,97.0
8021,G#2,2682.0,1/10,63,97.0
8022,F#2,2682.1,0.25,63,97.0
8023,F#2,2682.35,0.25,58,97.0
8024,C#5,2682.35,0.25,58,97.0
8025,B1,2682.35,0.25,58,97.0
8026,F#2,2682.6,0.25,55,97.0
8027,C#5,2682.6,0.25,55,97.0
8028,G#2,2682.85,0.25,63,97.0
8029,G#2,2683.1,0.25,63,97.0
8030,C#5,2683.1,0.25,63,97.0
8031,B1,2683.1,0.25,63,97.0
8032,G#2,2683.35,0.25,47,97.0
8033,C#5,2683.35,0.25,47,97.0
8034,G#2,2683.6,0.25,79,97.0
8035,B1,2683.6,0.25,79,97.0
8036,G#2,2683.85,0.25,47,97.0
8037,G#2,2684.1,0.25,63,97.0
8038,F#3,2684.1,0.25,63,97.0
8039,G#2,2684.35,0.25,87,97.0
8040,B1,2684.35,0.25,87,97.0
8041,G#2,2684.6,0.25,79,97.0
8042,G#2,2684.85,0.25,63,97.0
8043,G#2,2685.1,0.25,47,97.0
8044,G#2,2685.35,0.25,71,97.0
8045,B1,2685.35,0.25,71,97.0
8046,G#2,2685.6,0.25,87,97.0
8047,B1,2685.6,0.25,87,97.0
8048,G#2,2685.85,3/20,63,97.0
8049,G#2,2686.0,1/10,63,97.0
8050,F#2,2686.1,0.25,63,97.0
8051,C#5,2686.1,0.25,63,97.0
8052,F#2,2686.35,0.25,47,97.0
8053,C#5,2686.35,0.25,47,97.0
8054,F#2,2686.6,0.25,79,97.0
8055,B1,2686.6,0.25,79,97.0
8056,G#2,2686.85,0.25,63,97.0
8057,G#2,2687.1,0.25,71,97.0
8058,D2,2687.1,0.25,71,97.0
8059,G#2,2687.35,0.25,47,97.0
8060,G#2,2687.6,0.25,79,97.0
8061,B1,2687.6,0.25,79,97.0
8062,G#2,2687.85,0.25,47,97.0
8063,G#2,2688.1,0.25,63,97.0
8064,F#3,2688.1,0.25,63,97.0
8065,G#2,2688.35,0.25,87,97.0
8066,B1,2688.35,0.25,87,97.0
8067,G#2,2688.6,0.25,79,97.0
8068,G#2,2688.85,0.25,63,97.0
8069,G#2,2689.1,0.25,47,97.0
8070,G#2,2689.35,0.25,71,97.0
8071,B1,2689.35,0.25,71,97.0
8072,G#2,2689.6,0.25,87,97.0
8073,B1,2689.6,0.25,87,97.0
8074,G#2,2689.85,3/20,63,97.0
8075,G#2,2690.0,1/10,63,97.0
8076,F#2,2690.1,0.25,63,97.0
8077,F#2,2690.35,0.25,58,97.0
8078,C#5,2690.35,0.25,58,97.0
8079,B1,2690.35,0.25,58,97.0
8080,F#2,2690.6,0.25,55,97.0
8081,C#5,2690.6,0.25,55,97.0
8082,G#2,2690.85,0.25,63,97.0
8083,G#2,2691.1,0.25,63,97.0
8084,C#5,2691.1,0.25,63,97.0
8085,B1,2691.1,0.25,63,97.0
8086,G#2,2691.35,0.25,47,97.0
8087,C#5,2691.35,0.25,47,97.0
8088,G#2,2691.6,0.25,79,97.0
8089,B1,2691.6,0.25,79,97.0
8090,G#2,2691.85,0.25,47,97.0
8091,G#2,2692.1,0.25,63,97.0
8092,F#3,2692.1,0.25,63,97.0
8093,G#2,2692.35,0.25,87,97.0
8094,B1,2692.35,0.25,87,97.0
8095,G#2,2692.6,0.25,79,97.0
8096,G#2,2692.85,0.25,63,97.0
8097,G#2,2693.1,0.25,47,97.0
8098,G#2,2693.35,0.25,71,97.0
8099,B1,2693.35,0.25,71,97.0
8100,G#2,2693.6,0.25,87,97.0
8101,B1,2693.6,0.25,87,97.0
8102,G#2,2693.85,3/20,63,97.0
8103,G#2,2694.0,1/10,63,97.0
8104,F#2,2694.1,0.25,63,97.0
8105,C#5,2694.1,0.25,63,97.0
8106,F#2,2694.35,0.25,47,97.0
8107,C#5,2694.35,0.25,47,97.0
8108,F#2,2694.6,0.25,74,97.0
8109,B1,2694.6,0.25,74,97.0
8110,B2,2694.6,0.25,74,97.0
8111,G#2,2694.85,0.25,63,97.0
8112,G#2,2695.1,0.25,68,97.0
8113,D2,2695.1,0.25,68,97.0
8114,A2,2695.1,0.25,68,97.0
8115,G#2,2695.35,0.25,47,97.0
8116,G#2,2695.6,0.25,79,97.0
8117,B1,2695.6,0.25,79,97.0
8118,G#2,2695.85,0.25,47,97.0
8119,G#2,2696.1,0.25,63,97.0
8120,F#3,2696.1,0.25,63,97.0
8121,G#2,2696.35,0.25,87,97.0
8122,B1,2696.35,0.25,87,97.0
8123,G#2,2696.6,0.25,79,97.0
8124,G#2,2696.85,0.25,63,97.0
8125,G#2,2697.1,0.25,47,97.0
8126,G#2,2697.35,0.25,71,97.0
8127,B1,2697.35,0.25,71,97.0
8128,G#2,2697.6,0.25,87,97.0
8129,B1,2697.6,0.25,87,97.0
8130,G#2,2697.85,3/20,63,97.0
8131,G#2,2698.0,1/10,63,97.0
8132,F#2,2698.1,0.25,63,97.0
8133,F#2,2698.35,0.25,58,97.0
8134,C#5,2698.35,0.25,58,97.0
8135,B1,2698.35,0.25,58,97.0
8136,F#2,2698.6,0.25,55,97.0
8137,C#5,2698.6,0.25,55,97.0
8138,G#2,2698.85,0.25,63,97.0
8139,G#2,2699.1,0.25,63,97.0
8140,C#5,2699.1,0.25,63,97.0
8141,B1,2699.1,0.25,63,97.0
8142,G#2,2699.35,0.25,47,97.0
8143,C#5,2699.35,0.25,47,97.0
8144,G#2,2699.6,0.25,79,97.0
8145,B1,2699.6,0.25,79,97.0
8146,G#2,2699.85,0.25,47,97.0
8147,G#2,2700.1,0.25,63,97.0
8148,F#3,2700.1,0.25,63,97.0
8149,G#2,2700.35,0.25,87,97.0
8150,B1,2700.35,0.25,87,97.0
8151,G#2,2700.6,0.25,79,97.0
8152,G#2,2700.85,0.25,63,97.0
8153,G#2,2701.1,0.25,47,97.0
8154,G#2,2701.35,0.25,71,97.0
8155,B1,2701.35,0.25,71,97.0
8156,F#2,2701.6,0.25,95,97.0
8157,B1,2701.6,0.25,95,97.0
8158,C#3,2701.6,0.25,95,97.0
8159,F#2,2701.85,3/20,95,97.0
8160,F#2,2702.0,1/10,95,97.0
8161,F#2,2702.1,0.25,95,97.0
8162,F#2,2702.35,0.25,95,97.0
8163,B1,2702.35,0.25,95,97.0
8164,F#2,2702.6,0.25,95,97.0
8165,B1,2702.6,0.25,95,97.0
8166,A3,2702.6,0.25,95,97.0
8167,F#2,2702.85,0.25,95,97.0
8168,F#2,2703.1,0.25,95,97.0
8169,D2,2703.1,0.25,95,97.0
8170,F#2,2703.35,0.25,95,97.0
8171,G#2,2703.6,0.25,84,97.0
8172,F#2,2703.6,0.25,84,97.0
8173,B1,2703.6,0.25,84,97.0
8174,G#2,2703.85,0.25,63,97.0
8175,G#2,2704.1,0.25,63,97.0
8176,F#2,2704.1,0.25,63,97.0
8177,G#2,2704.35,0.25,79,97.0
8178,F#2,2704.35,0.25,79,97.0
8179,B1,2704.35,0.25,79,97.0
8180,G#2,2704.6,0.25,84,97.0
8181,F#2,2704.6,0.25,84,97.0
8182,D2,2704.6,0.25,84,97.0
8183,G#2,2704.85,0.25,63,97.0
8184,C#5,2704.85,0.25,63,97.0
8185,G#2,2705.1,0.25,63,97.0
8186,F#2,2705.1,0.25,63,97.0
8187,G#2,2705.35,0.25,79,97.0
8188,F#2,2705.35,0.25,79,97.0
8189,B1,2705.35,0.25,79,97.0
8190,G#2,2705.6,0.25,84,97.0
8191,F#2,2705.6,0.25,84,97.0
8192,B1,2705.6,0.25,84,97.0
8193,G#2,2705.85,3/20,63,97.0
8194,G#2,2706.0,1/10,63,97.0
8195,G#2,2706.1,0.25,63,97.0
8196,F#2,2706.1,0.25,63,97.0
8197,G#2,2706.35,0.25,79,97.0
8198,F#2,2706.35,0.25,79,97.0
8199,B1,2706.35,0.25,79,97.0
8200,G#2,2706.6,0.25,84,97.0
8201,F#2,2706.6,0.25,84,97.0
8202,D2,2706.6,0.25,84,97.0
8203,G#2,2706.85,0.25,63,97.0
8204,G#2,2707.1,0.25,63,97.0
8205,F#2,2707.1,0.25,63,97.0
8206,C#5,2707.1,0.25,63,97.0
8207,G#2,2707.35,0.25,68,97.0
8208,F#2,2707.35,0.25,68,97.0
8209,C#5,2707.35,0.25,68,97.0
8210,G#2,2707.6,0.25,84,97.0
8211,F#2,2707.6,0.25,84,97.0
8212,B1,2707.6,0.25,84,97.0
8213,G#2,2707.85,0.25,63,97.0
8214,G#2,2708.1,0.25,63,97.0
8215,F#2,2708.1,0.25,63,97.0
8216,G#2,2708.35,0.25,79,97.0
8217,F#2,2708.35,0.25,79,97.0
8218,B1,2708.35,0.25,79,97.0
8219,G#2,2708.6,0.25,84,97.0
8220,F#2,2708.6,0.25,84,97.0
8221,D2,2708.6,0.25,84,97.0
8222,G#2,2708.85,0.25,63,97.0
8223,C#5,2708.85,0.25,63,97.0
8224,G#2,2709.1,0.25,63,97.0
8225,F#2,2709.1,0.25,63,97.0
8226,G#2,2709.35,0.25,79,97.0
8227,F#2,2709.35,0.25,79,97.0
8228,B1,2709.35,0.25,79,97.0
8229,G#2,2709.6,0.25,84,97.0
8230,F#2,2709.6,0.25,84,97.0
8231,B1,2709.6,0.25,84,97.0
8232,G#2,2709.85,3/20,63,97.0
8233,G#2,2710.0,1/10,63,97.0
8234,G#2,2710.1,0.25,63,97.0
8235,F#2,2710.1,0.25,63,97.0
8236,G#2,2710.35,0.25,79,97.0
8237,F#2,2710.35,0.25,79,97.0
8238,B1,2710.35,0.25,79,97.0
8239,G#2,2710.6,0.25,84,97.0
8240,F#2,2710.6,0.25,84,97.0
8241,D2,2710.6,0.25,84,97.0
8242,G#2,2710.85,0.25,63,97.0
8243,G#2,2711.1,0.25,63,97.0
8244,F#2,2711.1,0.25,63,97.0
8245,C#5,2711.1,0.25,63,97.0
8246,G#2,2711.35,0.25,68,97.0
8247,F#2,2711.35,0.25,68,97.0
8248,C#5,2711.35,0.25,68,97.0
8249,G#2,2711.6,0.25,84,97.0
8250,F#2,2711.6,0.25,84,97.0
8251,B1,2711.6,0.25,84,97.0
8252,G#2,2711.85,0.25,63,97.0
8253,G#2,2712.1,0.25,63,97.0
8254,F#2,2712.1,0.25,63,97.0
8255,G#2,2712.35,0.25,79,97.0
8256,F#2,2712.35,0.25,79,97.0
8257,B1,2712.35,0.25,79,97.0
8258,G#2,2712.6,0.25,84,97.0
8259,F#2,2712.6,0.25,84,97.0
8260,D2,2712.6,0.25,84,97.0
8261,G#2,2712.85,0.25,63,97.0
8262,C#5,2712.85,0.25,63,97.0
8263,G#2,2713.1,0.25,63,97.0
8264,F#2,2713.1,0.25,63,97.0
8265,G#2,2713.35,0.25,79,97.0
8266,F#2,2713.35,0.25,79,97.0
8267,B1,2713.35,0.25,79,97.0
8268,G#2,2713.6,0.25,84,97.0
8269,F#2,2713.6,0.25,84,97.0
8270,B1,2713.6,0.25,84,97.0
8271,G#2,2713.85,3/20,63,97.0
8272,G#2,2714.0,1/10,63,97.0
8273,G#2,2714.1,0.25,63,97.0
8274,F#2,2714.1,0.25,63,97.0
8275,G#2,2714.35,0.25,79,97.0
8276,F#2,2714.35,0.25,79,97.0
8277,B1,2714.35,0.25,79,97.0
8278,G#2,2714.6,0.25,84,97.0
8279,F#2,2714.6,0.25,84,97.0
8280,D2,2714.6,0.25,84,97.0
8281,G#2,2714.85,0.25,63,97.0
8282,G#2,2715.1,0.25,63,97.0
8283,F#2,2715.1,0.25,63,97.0
8284,C#5,2715.1,0.25,63,97.0
8285,G#2,2715.35,0.25,68,97.0
8286,F#2,2715.35,0.25,68,97.0
8287,C#5,2715.35,0.25,68,97.0
8288,G#2,2715.6,0.25,84,97.0
8289,F#2,2715.6,0.25,84,97.0
8290,B1,2715.6,0.25,84,97.0
8291,G#2,2715.85,0.25,63,97.0
8292,G#2,2716.1,0.25,63,97.0
8293,F#2,2716.1,0.25,63,97.0
8294,G#2,2716.35,0.25,79,97.0
8295,F#2,2716.35,0.25,79,97.0
8296,B1,2716.35,0.25,79,97.0
8297,G#2,2716.6,0.25,84,97.0
8298,F#2,2716.6,0.25,84,97.0
8299,D2,2716.6,0.25,84,97.0
8300,G#2,2716.85,0.25,63,97.0
8301,C#5,2716.85,0.25,63,97.0
8302,G#2,2717.1,0.25,63,97.0
8303,F#2,2717.1,0.25,63,97.0
8304,G#2,2717.35,0.25,79,97.0
8305,F#2,2717.35,0.25,79,97.0
8306,B1,2717.35,0.25,79,97.0
8307,G#2,2717.6,0.25,84,97.0
8308,F#2,2717.6,0.25,84,97.0
8309,B1,2717.6,0.25,84,97.0
8310,G#2,2717.85,3/20,63,97.0
8311,G#2,2718.0,1/10,63,97.0
8312,G#2,2718.1,0.25,63,97.0
8313,F#2,2718.1,0.25,63,97.0
8314,G#2,2718.35,0.25,79,97.0
8315,F#2,2718.35,0.25,79,97.0
8316,B1,2718.35,0.25,79,97.0
8317,G#2,2718.6,0.25,84,97.0
8318,F#2,2718.6,0.25,84,97.0
8319,D2,2718.6,0.25,84,97.0
8320,G#2,2718.85,0.25,63,97.0
8321,G#2,2719.1,0.25,63,97.0
8322,F#2,2719.1,0.25,63,97.0
8323,C#5,2719.1,0.25,63,97.0
8324,G#2,2719.35,0.25,68,97.0
8325,F#2,2719.35,0.25,68,97.0
8326,C#5,2719.35,0.25,68,97.0
8327,G#2,2719.6,0.25,84,97.0
8328,F#2,2719.6,0.25,84,97.0
8329,B1,2719.6,0.25,84,97.0
8330,G#2,2719.85,0.25,63,97.0
8331,G#2,2720.1,0.25,63,97.0
8332,F#2,2720.1,0.25,63,97.0
8333,G#2,2720.35,0.25,79,97.0
8334,F#2,2720.35,0.25,79,97.0
8335,B1,2720.35,0.25,79,97.0
8336,G#2,2720.6,0.25,84,97.0
8337,F#2,2720.6,0.25,84,97.0
8338,D2,2720.6,0.25,84,97.0
8339,G#2,2720.85,0.25,63,97.0
8340,C#5,2720.85,0.25,63,97.0
8341,G#2,2721.1,0.25,63,97.0
8342,F#2,2721.1,0.25,63,97.0
8343,G#2,2721.35,0.25,79,97.0
8344,F#2,2721.35,0.25,79,97.0
8345,B1,2721.35,0.25,79,97.0
8346,G#2,2721.6,0.25,84,97.0
8347,F#2,2721.6,0.25,84,97.0
8348,B1,2721.6,0.25,84,97.0
8349,G#2,2721.85,3/20,63,97.0
8350,G#2,2722.0,1/10,63,97.0
8351,G#2,2722.1,0.25,63,97.0
8352,F#2,2722.1,0.25,63,97.0
8353,G#2,2722.35,0.25,79,97.0
8354,F#2,2722.35,0.25,79,97.0
8355,B1,2722.35,0.25,79,97.0
8356,G#2,2722.6,0.25,84,97.0
8357,F#2,2722.6,0.25,84,97.0
8358,D2,2722.6,0.25,84,97.0
8359,G#2,2722.85,0.25,63,97.0
8360,G#2,2723.1,0.25,63,97.0
8361,F#2,2723.1,0.25,63,97.0
8362,C#5,2723.1,0.25,63,97.0
8363,G#2,2723.35,0.25,68,97.0
8364,F#2,2723.35,0.25,68,97.0
8365,C#5,2723.35,0.25,68,97.0
8366,G#2,2723.6,0.25,87,97.0
8367,F#2,2723.6,0.25,87,97.0
8368,B1,2723.6,0.25,87,97.0
8369,A3,2723.6,0.25,87,97.0
8370,G#2,2723.85,0.25,63,97.0
8371,G#2,2724.1,0.25,63,97.0
8372,F#2,2724.1,0.25,63,97.0
8373,G#2,2724.35,0.25,83,97.0
8374,F#2,2724.35,0.25,83,97.0
8375,B1,2724.35,0.25,83,97.0
8376,C#3,2724.35,0.25,83,97.0
8377,G#2,2724.6,0.25,79,97.0
8378,F#2,2724.6,0.25,79,97.0
8379,G#2,2724.85,0.25,63,97.0
8380,D2,2724.85,0.25,63,97.0
8381,G#2,2725.1,0.25,63,97.0
8382,F#2,2725.1,0.25,63,97.0
8383,G#2,2725.35,0.25,83,97.0
8384,F#2,2725.35,0.25,83,97.0
8385,B1,2725.35,0.25,83,97.0
8386,A3,2725.35,0.25,83,97.0
8387,G#2,2725.6,0.25,79,97.0
8388,F#2,2725.6,0.25,79,97.0
8389,G#2,2725.85,3/20,63,97.0
8390,G#2,2726.0,1/10,63,97.0
8391,G#2,2726.1,0.25,63,97.0
8392,F#2,2726.1,0.25,63,97.0
8393,G#2,2726.35,0.25,79,97.0
8394,F#2,2726.35,0.25,79,97.0
8395,B1,2726.35,0.25,79,97.0
8396,G#2,2726.6,0.25,87,97.0
8397,F#2,2726.6,0.25,87,97.0
8398,D2,2726.6,0.25,87,97.0
8399,A3,2726.6,0.25,87,97.0
8400,G#2,2726.85,0.25,63,97.0
8401,G#2,2727.1,0.25,63,97.0
8402,F#2,2727.1,0.25,63,97.0
8403,C#5,2727.1,0.25,63,97.0
8404,G#2,2727.35,0.25,68,97.0
8405,F#2,2727.35,0.25,68,97.0
8406,C#5,2727.35,0.25,68,97.0
8407,G#2,2727.6,0.25,84,97.0
8408,F#2,2727.6,0.25,84,97.0
8409,B1,2727.6,0.25,84,97.0
8410,G#2,2727.85,0.25,63,97.0
8411,G#2,2728.1,0.25,63,97.0
8412,F#2,2728.1,0.25,63,97.0
8413,G#2,2728.35,0.25,79,97.0
8414,F#2,2728.35,0.25,79,97.0
8415,B1,2728.35,0.25,79,97.0
8416,G#2,2728.6,0.25,84,97.0
8417,F#2,2728.6,0.25,84,97.0
8418,D2,2728.6,0.25,84,97.0
8419,G#2,2728.85,0.25,63,97.0
8420,C#5,2728.85,0.25,63,97.0
8421,G#2,2729.1,0.25,63,97.0
8422,F#2,2729.1,0.25,63,97.0
8423,G#2,2729.35,0.25,79,97.0
8424,F#2,2729.35,0.25,79,97.0
8425,B1,2729.35,0.25,79,97.0
8426,G#2,2729.6,0.25,84,97.0
8427,F#2,2729.6,0.25,84,97.0
8428,B1,2729.6,0.25,84,97.0
8429,G#2,2729.85,3/20,63,97.0
8430,G#2,2730.0,1/10,63,97.0
8431,G#2,2730.1,0.25,63,97.0
8432,F#2,2730.1,0.25,63,97.0
8433,G#2,2730.35,0.25,79,97.0
8434,F#2,2730.35,0.25,79,97.0
8435,B1,2730.35,0.25,79,97.0
8436,G#2,2730.6,0.25,84,97.0
8437,F#2,2730.6,0.25,84,97.0
8438,D2,2730.6,0.25,84,97.0
8439,G#2,2730.85,0.25,63,97.0
8440,G#2,2731.1,0.25,63,97.0
8441,F#2,2731.1,0.25,63,97.0
8442,C#5,2731.1,0.25,63,97.0
8443,G#2,2731.35,0.25,68,97.0
8444,F#2,2731.35,0.25,68,97.0
8445,C#5,2731.35,0.25,68,97.0
8446,G3,2731.6,0.75,95,97.0
8447,B1,2731.6,0.75,95,97.0
8448,A3,2731.6,0.75,95,97.0
8449,F#3,2732.35,0.75,95,97.0
8450,F#2,2733.1,0.5,47,97.0
8451,G#2,2735.6,0.5,84,97.0
8452,B1,2735.6,0.5,84,97.0
8453,F#3,2735.6,0.5,84,97.0
8454,G#2,2736.1,0.25,63,97.0
8455,G#2,2736.35,0.25,79,97.0
8456,F#3,2736.35,0.25,79,97.0
8457,G#2,2736.6,0.25,63,97.0
8458,G#2,2736.85,0.25,63,97.0
8459,G#2,2737.1,0.5,63,97.0
8460,G#2,2737.6,2/5,63,97.0
8461,G#2,2738.0,7/20,63,97.0
8462,C#2,2738.35,0.25,95,97.0
8463,G#2,2738.6,0.5,95,97.0
8464,C#2,2739.1,0.25,63,97.0
8465,G#2,2739.35,0.25,95,97.0
8466,B1,2739.35,0.25,95,97.0
8467,B3,2739.6,0.75,95,97.0
8468,F3,2740.35,1.25,95,97.0
8469,F#3,2741.6,2/5,95,97.0
8470,F#3,2742.0,7/20,95,97.0
8471,C#2,2742.35,0.25,63,97.0
8472,G#2,2742.6,0.25,47,97.0
8473,G#2,2742.85,0.25,31,97.0
8474,C#2,2743.1,0.25,63,97.0
8475,C#2,2743.35,0.25,63,97.0
8476,B1,2743.6,0.75,95,97.0
8477,E-3,2744.35,1.25,95,97.0
8478,G3,2745.6,2/5,84,97.0
8479,B1,2745.6,2/5,84,97.0
8480,A3,2745.6,2/5,84,97.0
8481,G3,2746.35,7/20,84,97.0
8482,B1,2746.35,7/20,84,97.0
8483,A3,2746.35,7/20,84,97.0
8484,G3,2746.7,0.75,84,97.0
8485,B1,2746.7,0.75,84,97.0
8486,A3,2746.7,0.75,84,97.0
8487,C#2,2747.45,0.25,84,97.0
8488,C#5,2747.45,0.25,84,97.0
8489,B1,2747.45,0.25,84,97.0
8490,C#2,2747.7,0.25,84,97.0
8491,C#5,2747.7,0.25,84,97.0
8492,B1,2747.7,0.25,84,97.0
8493,G#2,2747.95,0.25,84,97.0
8494,B1,2747.95,0.25,84,97.0
8495,C#3,2747.95,0.25,84,97.0
8496,G#2,2748.2,0.25,47,97.0
8497,G#2,2748.45,0.25,63,97.0
8498,F#3,2748.45,0.25,63,97.0
8499,G#2,2748.7,0.25,87,97.0
8500,B1,2748.7,0.25,87,97.0
8501,G#2,2748.95,0.25,79,97.0
8502,G#2,2749.2,0.25,63,97.0
8503,G#2,2749.45,0.25,47,97.0
8504,G#2,2749.7,0.25,71,97.0
8505,B1,2749.7,0.25,71,97.0
8506,G#2,2749.95,0.25,87,97.0
8507,B1,2749.95,0.25,87,97.0
8508,G#2,2750.2,3/20,63,97.0
8509,G#2,2750.35,1/10,63,97.0
8510,F#2,2750.45,0.25,63,97.0
8511,F#2,2750.7,0.25,58,97.0
8512,C#5,2750.7,0.25,58,97.0
8513,B1,2750.7,0.25,58,97.0
8514,F#2,2750.95,0.25,55,97.0
8515,C#5,2750.95,0.25,55,97.0
8516,G#2,2751.2,0.25,63,97.0
8517,G#2,2751.45,0.25,63,97.0
8518,C#5,2751.45,0.25,63,97.0
8519,B1,2751.45,0.25,63,97.0
8520,G#2,2751.7,0.25,47,97.0
8521,C#5,2751.7,0.25,47,97.0
8522,G#2,2751.95,0.25,79,97.0
8523,B1,2751.95,0.25,79,97.0
8524,G#2,2752.2,0.25,47,97.0
8525,G#2,2752.45,0.25,63,97.0
8526,F#3,2752.45,0.25,63,97.0
8527,G#2,2752.7,0.25,87,97.0
8528,B1,2752.7,0.25,87,97.0
8529,G#2,2752.95,0.25,79,97.0
8530,G#2,2753.2,0.25,63,97.0
8531,G#2,2753.45,0.25,47,97.0
8532,G#2,2753.7,0.25,71,97.0
8533,B1,2753.7,0.25,71,97.0
8534,G#2,2753.95,0.25,87,97.0
8535,B1,2753.95,0.25,87,97.0
8536,G#2,2754.2,3/20,63,97.0
8537,G#2,2754.35,1/10,63,97.0
8538,F#2,2754.45,0.25,63,97.0
8539,C#5,2754.45,0.25,63,97.0
8540,F#2,2754.7,0.25,47,97.0
8541,C#5,2754.7,0.25,47,97.0
8542,F#2,2754.95,0.25,79,97.0
8543,B1,2754.95,0.25,79,97.0
8544,G#2,2755.2,0.25,63,97.0
8545,G#2,2755.45,0.25,71,97.0
8546,D2,2755.45,0.25,71,97.0
8547,G#2,2755.7,0.25,47,97.0
8548,G#2,2755.95,0.25,79,97.0
8549,B1,2755.95,0.25,79,97.0
8550,G#2,2756.2,0.25,47,97.0
8551,G#2,2756.45,0.25,63,97.0
8552,F#3,2756.45,0.25,63,97.0
8553,G#2,2756.7,0.25,87,97.0
8554,B1,2756.7,0.25,87,97.0
8555,G#2,2756.95,0.25,79,97.0
8556,G#2,2757.2,0.25,63,97.0
8557,G#2,2757.45,0.25,47,97.0
8558,G#2,2757.7,0.25,71,97.0
8559,B1,2757.7,0.25,71,97.0
8560,G#2,2757.95,0.25,87,97.0
8561,B1,2757.95,0.25,87,97.0
8562,G#2,2758.2,3/20,63,97.0
8563,G#2,2758.35,1/10,63,97.0
8564,F#2,2758.45,0.25,63,97.0
8565,F#2,2758.7,0.25,58,97.0
8566,C#5,2758.7,0.25,58,97.0
8567,B1,2758.7,0.25,58,97.0
8568,F#2,2758.95,0.25,55,97.0
8569,C#5,2758.95,0.25,55,97.0
8570,G#2,2759.2,0.25,63,97.0
8571,G#2,2759.45,0.25,63,97.0
8572,C#5,2759.45,0.25,63,97.0
8573,B1,2759.45,0.25,63,97.0
8574,G#2,2759.7,0.25,47,97.0
8575,C#5,2759.7,0.25,47,97.0
8576,G#2,2759.95,0.25,79,97.0
8577,B1,2759.95,0.25,79,97.0
8578,G#2,2760.2,0.25,47,97.0
8579,G#2,2760.45,0.25,63,97.0
8580,F#3,2760.45,0.25,63,97.0
8581,G#2,2760.7,0.25,87,97.0
8582,B1,2760.7,0.25,87,97.0
8583,G#2,2760.95,0.25,79,97.0
8584,G#2,2761.2,0.25,63,97.0
8585,G#2,2761.45,0.25,47,97.0
8586,G#2,2761.7,0.25,71,97.0
8587,B1,2761.7,0.25,71,97.0
8588,G#2,2761.95,0.25,87,97.0
8589,B1,2761.95,0.25,87,97.0
8590,G#2,2762.2,3/20,63,97.0
8591,G#2,2762.35,1/10,63,97.0
8592,F#2,2762.45,0.25,63,97.0
8593,C#5,2762.45,0.25,63,97.0
8594,F#2,2762.7,0.25,47,97.0
8595,C#5,2762.7,0.25,47,97.0
8596,F#2,2762.95,0.25,79,97.0
8597,B1,2762.95,0.25,79,97.0
8598,G#2,2763.2,0.25,63,97.0
8599,G#2,2763.45,0.25,71,97.0
8600,D2,2763.45,0.25,71,97.0
8601,G#2,2763.7,0.25,47,97.0
8602,G#2,2763.95,0.25,84,97.0
8603,B1,2763.95,0.25,84,97.0
8604,C#3,2763.95,0.25,84,97.0
8605,G#2,2764.2,0.25,47,97.0
8606,G#2,2764.45,0.25,63,97.0
8607,F#3,2764.45,0.25,63,97.0
8608,G#2,2764.7,0.25,87,97.0
8609,B1,2764.7,0.25,87,97.0
8610,G#2,2764.95,0.25,79,97.0
8611,G#2,2765.2,0.25,63,97.0
8612,G#2,2765.45,0.25,47,97.0
8613,G#2,2765.7,0.25,71,97.0
8614,B1,2765.7,0.25,71,97.0
8615,G#2,2765.95,0.25,87,97.0
8616,B1,2765.95,0.25,87,97.0
8617,G#2,2766.2,3/20,63,97.0
8618,G#2,2766.35,1/10,63,97.0
8619,F#2,2766.45,0.25,63,97.0
8620,F#2,2766.7,0.25,58,97.0
8621,C#5,2766.7,0.25,58,97.0
8622,B1,2766.7,0.25,58,97.0
8623,F#2,2766.95,0.25,55,97.0
8624,C#5,2766.95,0.25,55,97.0
8625,G#2,2767.2,0.25,63,97.0
8626,G#2,2767.45,0.25,63,97.0
8627,C#5,2767.45,0.25,63,97.0
8628,B1,2767.45,0.25,63,97.0
8629,G#2,2767.7,0.25,47,97.0
8630,C#5,2767.7,0.25,47,97.0
8631,G#2,2767.95,0.25,79,97.0
8632,B1,2767.95,0.25,79,97.0
8633,G#2,2768.2,0.25,47,97.0
8634,G#2,2768.45,0.25,63,97.0
8635,F#3,2768.45,0.25,63,97.0
8636,G#2,2768.7,0.25,87,97.0
8637,B1,2768.7,0.25,87,97.0
8638,G#2,2768.95,0.25,79,97.0
8639,G#2,2769.2,0.25,63,97.0
8640,G#2,2769.45,0.25,47,97.0
8641,G#2,2769.7,0.25,71,97.0
8642,B1,2769.7,0.25,71,97.0
8643,G#2,2769.95,0.25,87,97.0
8644,B1,2769.95,0.25,87,97.0
8645,G#2,2770.2,3/20,63,97.0
8646,G#2,2770.35,1/10,63,97.0
8647,F#2,2770.45,0.25,63,97.0
8648,C#5,2770.45,0.25,63,97.0
8649,F#2,2770.7,0.25,47,97.0
8650,C#5,2770.7,0.25,47,97.0
8651,F#2,2770.95,0.25,79,97.0
8652,B1,2770.95,0.25,79,97.0
8653,G#2,2771.2,0.25,63,97.0
8654,G#2,2771.45,0.25,71,97.0
8655,D2,2771.45,0.25,71,97.0
8656,G#2,2771.7,0.25,47,97.0
8657,G#2,2771.95,0.25,79,97.0
8658,B1,2771.95,0.25,79,97.0
8659,G#2,2772.2,0.25,47,97.0
8660,G#2,2772.45,0.25,63,97.0
8661,F#3,2772.45,0.25,63,97.0
8662,G#2,2772.7,0.25,87,97.0
8663,B1,2772.7,0.25,87,97.0
8664,G#2,2772.95,0.25,79,97.0
8665,G#2,2773.2,0.25,63,97.0
8666,G#2,2773.45,0.25,47,97.0
8667,G#2,2773.7,0.25,71,97.0
8668,B1,2773.7,0.25,71,97.0
8669,G#2,2773.95,0.25,87,97.0
8670,B1,2773.95,0.25,87,97.0
8671,G#2,2774.2,3/20,63,97.0
8672,G#2,2774.35,1/10,63,97.0
8673,F#2,2774.45,0.25,63,97.0
8674,F#2,2774.7,0.25,58,97.0
8675,C#5,2774.7,0.25,58,97.0
8676,B1,2774.7,0.25,58,97.0
8677,F#2,2774.95,0.25,55,97.0
8678,C#5,2774.95,0.25,55,97.0
8679,G#2,2775.2,0.25,63,97.0
8680,G#2,2775.45,0.25,63,97.0
8681,C#5,2775.45,0.25,63,97.0
8682,B1,2775.45,0.25,63,97.0
8683,G#2,2775.7,0.25,47,97.0
8684,C#5,2775.7,0.25,47,97.0
8685,G#2,2775.95,0.25,79,97.0
8686,B1,2775.95,0.25,79,97.0
8687,G#2,2776.2,0.25,47,97.0
8688,G#2,2776.45,0.25,63,97.0
8689,F#3,2776.45,0.25,63,97.0
8690,G#2,2776.7,0.25,87,97.0
8691,B1,2776.7,0.25,87,97.0
8692,G#2,2776.95,0.25,79,97.0
8693,G#2,2777.2,0.25,63,97.0
8694,G#2,2777.45,0.25,47,97.0
8695,G#2,2777.7,0.25,71,97.0
8696,B1,2777.7,0.25,71,97.0
8697,G#2,2777.95,0.25,87,97.0
8698,B1,2777.95,0.25,87,97.0
8699,G#2,2778.2,3/20,63,97.0
8700,G#2,2778.35,1/10,63,97.0
8701,F#2,2778.45,0.25,63,97.0
8702,C#5,2778.45,0.25,63,97.0
8703,F#2,2778.7,0.25,47,97.0
8704,C#5,2778.7,0.25,47,97.0
8705,F#2,2778.95,0.25,79,97.0
8706,B1,2778.95,0.25,79,97.0
8707,G#2,2779.2,0.25,63,97.0
8708,G#2,2779.45,0.25,71,97.0
8709,D2,2779.45,0.25,71,97.0
8710,G#2,2779.7,0.25,47,97.0
8711,G#2,2779.95,0.25,79,97.0
8712,B1,2779.95,0.25,79,97.0
8713,G#2,2780.2,0.25,47,97.0
8714,G#2,2780.45,0.25,63,97.0
8715,F#3,2780.45,0.25,63,97.0
8716,G#2,2780.7,0.25,87,97.0
8717,B1,2780.7,0.25,87,97.0
8718,G#2,2780.95,0.25,79,97.0
8719,G#2,2781.2,0.25,63,97.0
8720,G#2,2781.45,0.25,47,97.0
8721,G#2,2781.7,0.25,71,97.0
8722,B1,2781.7,0.25,71,97.0
8723,G#2,2781.95,0.25,87,97.0
8724,B1,2781.95,0.25,87,97.0
8725,G#2,2782.2,3/20,63,97.0
8726,G#2,2782.35,1/10,63,97.0
8727,F#2,2782.45,0.25,63,97.0
8728,F#2,2782.7,0.25,58,97.0
8729,C#5,2782.7,0.25,58,97.0
8730,B1,2782.7,0.25,58,97.0
8731,F#2,2782.95,0.25,55,97.0
8732,C#5,2782.95,0.25,55,97.0
8733,G#2,2783.2,0.25,63,97.0
8734,G#2,2783.45,0.25,63,97.0
8735,C#5,2783.45,0.25,63,97.0
8736,B1,2783.45,0.25,63,97.0
8737,G#2,2783.7,0.25,47,97.0
8738,C#5,2783.7,0.25,47,97.0
8739,G#2,2783.95,0.25,79,97.0
8740,B1,2783.95,0.25,79,97.0
8741,G#2,2784.2,0.25,47,97.0
8742,G#2,2784.45,0.25,63,97.0
8743,F#3,2784.45,0.25,63,97.0
8744,G#2,2784.7,0.25,87,97.0
8745,B1,2784.7,0.25,87,97.0
8746,G#2,2784.95,0.25,79,97.0
8747,G#2,2785.2,0.25,63,97.0
8748,G#2,2785.45,0.25,47,97.0
8749,G#2,2785.7,0.25,71,97.0
8750,B1,2785.7,0.25,71,97.0
8751,G#2,2785.95,0.25,87,97.0
8752,B1,2785.95,0.25,87,97.0
8753,G#2,2786.2,3/20,63,97.0
8754,G#2,2786.35,1/10,63,97.0
8755,F#2,2786.45,0.25,63,97.0
8756,C#5,2786.45,0.25,63,97.0
8757,F#2,2786.7,0.25,47,97.0
8758,C#5,2786.7,0.25,47,97.0
8759,F#2,2786.95,0.25,79,97.0
8760,B1,2786.95,0.25,79,97.0
8761,G#2,2787.2,0.25,63,97.0
8762,G#2,2787.45,0.25,71,97.0
8763,D2,2787.45,0.25,71,97.0
8764,G#2,2787.7,0.25,47,97.0
8765,G#2,2787.95,0.25,79,97.0
8766,B1,2787.95,0.25,79,97.0
8767,G#2,2788.2,0.25,47,97.0
8768,G#2,2788.45,0.25,63,97.0
8769,F#3,2788.45,0.25,63,97.0
8770,G#2,2788.7,0.25,87,97.0
8771,B1,2788.7,0.25,87,97.0
8772,G#2,2788.95,0.25,79,97.0
8773,G#2,2789.2,0.25,63,97.0
8774,G#2,2789.45,0.25,47,97.0
8775,G#2,2789.7,0.25,71,97.0
8776,B1,2789.7,0.25,71,97.0
8777,G#2,2789.95,0.25,87,97.0
8778,B1,2789.95,0.25,87,97.0
8779,G#2,2790.2,3/20,63,97.0
8780,G#2,2790.35,1/10,63,97.0
8781,F#2,2790.45,0.25,63,97.0
8782,F#2,2790.7,0.25,58,97.0
8783,C#5,2790.7,0.25,58,97.0
8784,B1,2790.7,0.25,58,97.0
8785,F#2,2790.95,0.25,55,97.0
8786,C#5,2790.95,0.25,55,97.0
8787,G#2,2791.2,0.25,63,97.0
8788,G#2,2791.45,0.25,63,97.0
8789,C#5,2791.45,0.25,63,97.0
8790,B1,2791.45,0.25,63,97.0
8791,G#2,2791.7,0.25,47,97.0
8792,C#5,2791.7,0.25,47,97.0
8793,G#2,2791.95,0.25,79,97.0
8794,B1,2791.95,0.25,79,97.0
8795,G#2,2792.2,0.25,47,97.0
8796,G#2,2792.45,0.25,63,97.0
8797,F#3,2792.45,0.25,63,97.0
8798,G#2,2792.7,0.25,87,97.0
8799,B1,2792.7,0.25,87,97.0
8800,G#2,2792.95,0.25,79,97.0
8801,G#2,2793.2,0.25,63,97.0
8802,G#2,2793.45,0.25,47,97.0
8803,G#2,2793.7,0.25,71,97.0
8804,B1,2793.7,0.25,71,97.0
8805,G#2,2793.95,0.25,87,97.0
8806,B1,2793.95,0.25,87,97.0
8807,G#2,2794.2,3/20,63,97.0
8808,G#2,2794.35,1/10,63,97.0
8809,F#2,2794.45,0.25,63,97.0
8810,C#5,2794.45,0.25,63,97.0
8811,F#2,2794.7,0.25,47,97.0
8812,C#5,2794.7,0.25,47,97.0
8813,F#2,2794.95,0.25,79,97.0
8814,B1,2794.95,0.25,79,97.0
8815,G#2,2795.2,0.25,63,97.0
8816,G#2,2795.45,0.25,71,97.0
8817,D2,2795.45,0.25,71,97.0
8818,G#2,2795.7,0.25,47,97.0
8819,G#2,2795.95,0.25,74,97.0
8820,B1,2795.95,0.25,74,97.0
8821,E3,2795.95,0.25,74,97.0
8822,G#2,2796.2,0.25,47,97.0
8823,G#2,2796.45,0.25,63,97.0
8824,F#3,2796.45,0.25,63,97.0
8825,G#2,2796.7,0.25,87,97.0
8826,B1,2796.7,0.25,87,97.0
8827,G#2,2796.95,0.25,79,97.0
8828,G#2,2797.2,0.25,63,97.0
8829,G#2,2797.45,0.25,47,97.0
8830,G#2,2797.7,0.25,71,97.0
8831,B1,2797.7,0.25,71,97.0
8832,G#2,2797.95,0.25,87,97.0
8833,B1,2797.95,0.25,87,97.0
8834,G#2,2798.2,3/20,63,97.0
8835,G#2,2798.35,1/10,63,97.0
8836,F#2,2798.45,0.25,63,97.0
8837,F#2,2798.7,0.25,58,97.0
8838,C#5,2798.7,0.25,58,97.0
8839,B1,2798.7,0.25,58,97.0
8840,F#2,2798.95,0.25,55,97.0
8841,C#5,2798.95,0.25,55,97.0
8842,G#2,2799.2,0.25,63,97.0
8843,G#2,2799.45,0.25,63,97.0
8844,C#5,2799.45,0.25,63,97.0
8845,B1,2799.45,0.25,63,97.0
8846,G#2,2799.7,0.25,47,97.0
8847,C#5,2799.7,0.25,47,97.0
8848,G#2,2799.95,0.25,79,97.0
8849,B1,2799.95,0.25,79,97.0
8850,G#2,2800.2,0.25,47,97.0
8851,G#2,2800.45,0.25,63,97.0
8852,F#3,2800.45,0.25,63,97.0
8853,G#2,2800.7,0.25,87,97.0
8854,B1,2800.7,0.25,87,97.0
8855,G#2,2800.95,0.25,79,97.0
8856,G#2,2801.2,0.25,63,97.0
8857,G#2,2801.45,0.25,47,97.0
8858,G#2,2801.7,0.25,71,97.0
8859,B1,2801.7,0.25,71,97.0
8860,G#2,2801.95,0.25,87,97.0
8861,B1,2801.95,0.25,87,97.0
8862,G#2,2802.2,3/20,63,97.0
8863,G#2,2802.35,1/10,63,97.0
8864,F#2,2802.45,0.25,63,97.0
8865,C#5,2802.45,0.25,63,97.0
8866,F#2,2802.7,0.25,47,97.0
8867,C#5,2802.7,0.25,47,97.0
8868,F#2,2802.95,0.25,79,97.0
8869,B1,2802.95,0.25,79,97.0
8870,G#2,2803.2,0.25,63,97.0
8871,G#2,2803.45,0.25,71,97.0
8872,D2,2803.45,0.25,71,97.0
8873,G#2,2803.7,0.25,47,97.0
8874,G#2,2803.95,0.25,79,97.0
8875,B1,2803.95,0.25,79,97.0
8876,G#2,2804.2,0.25,47,97.0
8877,G#2,2804.45,0.25,63,97.0
8878,F#3,2804.45,0.25,63,97.0
8879,G#2,2804.7,0.25,87,97.0
8880,B1,2804.7,0.25,87,97.0
8881,G#2,2804.95,0.25,79,97.0
8882,G#2,2805.2,0.25,63,97.0
8883,G#2,2805.45,0.25,47,97.0
8884,G#2,2805.7,0.25,71,97.0
8885,B1,2805.7,0.25,71,97.0
8886,G#2,2805.95,0.25,87,97.0
8887,B1,2805.95,0.25,87,97.0
8888,G#2,2806.2,3/20,63,97.0
8889,G#2,2806.35,1/10,63,97.0
8890,F#2,2806.45,0.25,63,97.0
8891,F#2,2806.7,0.25,58,97.0
8892,C#5,2806.7,0.25,58,97.0
8893,B1,2806.7,0.25,58,97.0
8894,F#2,2806.95,0.25,55,97.0
8895,C#5,2806.95,0.25,55,97.0
8896,G#2,2807.2,0.25,63,97.0
8897,G#2,2807.45,0.25,63,97.0
8898,C#5,2807.45,0.25,63,97.0
8899,B1,2807.45,0.25,63,97.0
8900,G#2,2807.7,0.25,47,97.0
8901,C#5,2807.7,0.25,47,97.0
8902,G#2,2807.95,0.25,79,97.0
8903,B1,2807.95,0.25,79,97.0
8904,G#2,2808.2,0.25,47,97.0
8905,G#2,2808.45,0.25,63,97.0
8906,F#3,2808.45,0.25,63,97.0
8907,G#2,2808.7,0.25,87,97.0
8908,B1,2808.7,0.25,87,97.0
8909,G#2,2808.95,0.25,79,97.0
8910,G#2,2809.2,0.25,63,97.0
8911,G#2,2809.45,0.25,47,97.0
8912,G#2,2809.7,0.25,71,97.0
8913,B1,2809.7,0.25,71,97.0
8914,G#2,2809.95,0.25,87,97.0
8915,B1,2809.95,0.25,87,97.0
8916,G#2,2810.2,3/20,63,97.0
8917,G#2,2810.35,1/10,63,97.0
8918,F#2,2810.45,0.25,63,97.0
8919,C#5,2810.45,0.25,63,97.0
8920,F#2,2810.7,0.25,47,97.0
8921,C#5,2810.7,0.25,47,97.0
8922,F#2,2810.95,0.25,74,97.0
8923,B1,2810.95,0.25,74,97.0
8924,B2,2810.95,0.25,74,97.0
8925,G#2,2811.2,0.25,63,97.0
8926,G#2,2811.45,0.25,68,97.0
8927,D2,2811.45,0.25,68,97.0
8928,A2,2811.45,0.25,68,97.0
8929,G#2,2811.7,0.25,47,97.0
8930,G#2,2811.95,0.25,79,97.0
8931,B1,2811.95,0.25,79,97.0
8932,G#2,2812.2,0.25,47,97.0
8933,G#2,2812.45,0.25,63,97.0
8934,F#3,2812.45,0.25,63,97.0
8935,G#2,2812.7,0.25,87,97.0
8936,B1,2812.7,0.25,87,97.0
8937,G#2,2812.95,0.25,79,97.0
8938,G#2,2813.2,0.25,63,97.0
8939,G#2,2813.45,0.25,47,97.0
8940,G#2,2813.7,0.25,71,97.0
8941,B1,2813.7,0.25,71,97.0
8942,G#2,2813.95,0.25,87,97.0
8943,B1,2813.95,0.25,87,97.0
8944,G#2,2814.2,3/20,63,97.0
8945,G#2,2814.35,1/10,63,97.0
8946,F#2,2814.45,0.25,63,97.0
8947,F#2,2814.7,0.25,58,97.0
8948,C#5,2814.7,0.25,58,97.0
8949,B1,2814.7,0.25,58,97.0
8950,F#2,2814.95,0.25,55,97.0
8951,C#5,2814.95,0.25,55,97.0
8952,G#2,2815.2,0.25,63,97.0
8953,G#2,2815.45,0.25,63,97.0
8954,C#5,2815.45,0.25,63,97.0
8955,B1,2815.45,0.25,63,97.0
8956,G#2,2815.7,0.25,47,97.0
8957,C#5,2815.7,0.25,47,97.0
8958,G#2,2815.95,0.25,79,97.0
8959,B1,2815.95,0.25,79,97.0
8960,G#2,2816.2,0.25,47,97.0
8961,G#2,2816.45,0.25,63,97.0
8962,F#3,2816.45,0.25,63,97.0
8963,G#2,2816.7,0.25,87,97.0
8964,B1,2816.7,0.25,87,97.0
8965,G#2,2816.95,0.25,79,97.0
8966,G#2,2817.2,0.25,63,97.0
8967,G#2,2817.45,0.25,47,97.0
8968,G#2,2817.7,0.25,71,97.0
8969,B1,2817.7,0.25,71,97.0
8970,F#2,2817.95,0.25,95,97.0
8971,B1,2817.95,0.25,95,97.0
8972,C#3,2817.95,0.25,95,97.0
8973,F#2,2818.2,3/20,95,97.0
8974,F#2,2818.35,1/10,95,97.0
8975,F#2,2818.45,0.25,95,97.0
8976,F#2,2818.7,0.25,95,97.0
8977,B1,2818.7,0.25,95,97.0
8978,F#2,2818.95,0.25,95,97.0
8979,B1,2818.95,0.25,95,97.0
8980,A3,2818.95,0.25,95,97.0
8981,F#2,2819.2,0.25,95,97.0
8982,F#2,2819.45,0.25,95,97.0
8983,D2,2819.45,0.25,95,97.0
8984,F#2,2819.7,0.25,95,97.0
8985,G#2,2819.95,0.25,84,97.0
8986,F#2,2819.95,0.25,84,97.0
8987,B1,2819.95,0.25,84,97.0
8988,G#2,2820.2,0.25,63,97.0
8989,G#2,2820.45,0.25,63,97.0
8990,F#2,2820.45,0.25,63,97.0
8991,G#2,2820.7,0.25,79,97.0
8992,F#2,2820.7,0.25,79,97.0
8993,B1,2820.7,0.25,79,97.0
8994,G#2,2820.95,0.25,84,97.0
8995,F#2,2820.95,0.25,84,97.0
8996,D2,2820.95,0.25,84,97.0
8997,G#2,2821.2,0.25,63,97.0
8998,C#5,2821.2,0.25,63,97.0
8999,G#2,2821.45,0.25,63,97.0
9000,F#2,2821.45,0.25,63,97.0
9001,G#2,2821.7,0.25,79,97.0
9002,F#2,2821.7,0.25,79,97.0
9003,B1,2821.7,0.25,79,97.0
9004,G#2,2821.95,0.25,84,97.0
9005,F#2,2821.95,0.25,84,97.0
9006,B1,2821.95,0.25,84,97.0
9007,G#2,2822.2,3/20,63,97.0
9008,G#2,2822.35,1/10,63,97.0
9009,G#2,2822.45,0.25,63,97.0
9010,F#2,2822.45,0.25,63,97.0
9011,G#2,2822.7,0.25,79,97.0
9012,F#2,2822.7,0.25,79,97.0
9013,B1,2822.7,0.25,79,97.0
9014,G#2,2822.95,0.25,84,97.0
9015,F#2,2822.95,0.25,84,97.0
9016,D2,2822.95,0.25,84,97.0
9017,G#2,2823.2,0.25,63,97.0
9018,G#2,2823.45,0.25,63,97.0
9019,F#2,2823.45,0.25,63,97.0
9020,C#5,2823.45,0.25,63,97.0
9021,G#2,2823.7,0.25,68,97.0
9022,F#2,2823.7,0.25,68,97.0
9023,C#5,2823.7,0.25,68,97.0
9024,G#2,2823.95,0.25,84,97.0
9025,F#2,2823.95,0.25,84,97.0
9026,B1,2823.95,0.25,84,97.0
9027,G#2,2824.2,0.25,63,97.0
9028,G#2,2824.45,0.25,63,97.0
9029,F#2,2824.45,0.25,63,97.0
9030,G#2,2824.7,0.25,79,97.0
9031,F#2,2824.7,0.25,79,97.0
9032,B1,2824.7,0.25,79,97.0
9033,G#2,2824.95,0.25,84,97.0
9034,F#2,2824.95,0.25,84,97.0
9035,D2,2824.95,0.25,84,97.0
9036,G#2,2825.2,0.25,63,97.0
9037,C#5,2825.2,0.25,63,97.0
9038,G#2,2825.45,0.25,63,97.0
9039,F#2,2825.45,0.25,63,97.0
9040,G#2,2825.7,0.25,79,97.0
9041,F#2,2825.7,0.25,79,97.0
9042,B1,2825.7,0.25,79,97.0
9043,G#2,2825.95,0.25,84,97.0
9044,F#2,2825.95,0.25,84,97.0
9045,B1,2825.95,0.25,84,97.0
9046,G#2,2826.2,3/20,63,97.0
9047,G#2,2826.35,1/10,63,97.0
9048,G#2,2826.45,0.25,63,97.0
9049,F#2,2826.45,0.25,63,97.0
9050,G#2,2826.7,0.25,79,97.0
9051,F#2,2826.7,0.25,79,97.0
9052,B1,2826.7,0.25,79,97.0
9053,G#2,2826.95,0.25,84,97.0
9054,F#2,2826.95,0.25,84,97.0
9055,D2,2826.95,0.25,84,97.0
9056,G#2,2827.2,0.25,63,97.0
9057,G#2,2827.45,0.25,63,97.0
9058,F#2,2827.45,0.25,63,97.0
9059,C#5,2827.45,0.25,63,97.0
9060,G#2,2827.7,0.25,68,97.0
9061,F#2,2827.7,0.25,68,97.0
9062,C#5,2827.7,0.25,68,97.0
9063,G#2,2827.95,0.25,84,97.0
9064,F#2,2827.95,0.25,84,97.0
9065,B1,2827.95,0.25,84,97.0
9066,G#2,2828.2,0.25,63,97.0
9067,G#2,2828.45,0.25,63,97.0
9068,F#2,2828.45,0.25,63,97.0
9069,G#2,2828.7,0.25,79,97.0
9070,F#2,2828.7,0.25,79,97.0
9071,B1,2828.7,0.25,79,97.0
9072,G#2,2828.95,0.25,84,97.0
9073,F#2,2828.95,0.25,84,97.0
9074,D2,2828.95,0.25,84,97.0
9075,G#2,2829.2,0.25,63,97.0
9076,C#5,2829.2,0.25,63,97.0
9077,G#2,2829.45,0.25,63,97.0
9078,F#2,2829.45,0.25,63,97.0
9079,G#2,2829.7,0.25,79,97.0
9080,F#2,2829.7,0.25,79,97.0
9081,B1,2829.7,0.25,79,97.0
9082,G#2,2829.95,0.25,84,97.0
9083,F#2,2829.95,0.25,84,97.0
9084,B1,2829.95,0.25,84,97.0
9085,G#2,2830.2,3/20,63,97.0
9086,G#2,2830.35,1/10,63,97.0
9087,G#2,2830.45,0.25,63,97.0
9088,F#2,2830.45,0.25,63,97.0
9089,G#2,2830.7,0.25,79,97.0
9090,F#2,2830.7,0.25,79,97.0
9091,B1,2830.7,0.25,79,97.0
9092,G#2,2830.95,0.25,84,97.0
9093,F#2,2830.95,0.25,84,97.0
9094,D2,2830.95,0.25,84,97.0
9095,G#2,2831.2,0.25,63,97.0
9096,G#2,2831.45,0.25,63,97.0
9097,F#2,2831.45,0.25,63,97.0
9098,C#5,2831.45,0.25,63,97.0
9099,G#2,2831.7,0.25,68,97.0
9100,F#2,2831.7,0.25,68,97.0
9101,C#5,2831.7,0.25,68,97.0
9102,G#2,2831.95,0.25,84,97.0
9103,F#2,2831.95,0.25,84,97.0
9104,B1,2831.95,0.25,84,97.0
9105,G#2,2832.2,0.25,63,97.0
9106,G#2,2832.45,0.25,63,97.0
9107,F#2,2832.45,0.25,63,97.0
9108,G#2,2832.7,0.25,79,97.0
9109,F#2,2832.7,0.25,79,97.0
9110,B1,2832.7,0.25,79,97.0
9111,G#2,2832.95,0.25,84,97.0
9112,F#2,2832.95,0.25,84,97.0
9113,D2,2832.95,0.25,84,97.0
9114,G#2,2833.2,0.25,63,97.0
9115,C#5,2833.2,0.25,63,97.0
9116,G#2,2833.45,0.25,63,97.0
9117,F#2,2833.45,0.25,63,97.0
9118,G#2,2833.7,0.25,79,97.0
9119,F#2,2833.7,0.25,79,97.0
9120,B1,2833.7,0.25,79,97.0
9121,G#2,2833.95,0.25,84,97.0
9122,F#2,2833.95,0.25,84,97.0
9123,B1,2833.95,0.25,84,97.0
9124,G#2,2834.2,3/20,63,97.0
9125,G#2,2834.35,1/10,63,97.0
9126,G#2,2834.45,0.25,63,97.0
9127,F#2,2834.45,0.25,63,97.0
9128,G#2,2834.7,0.25,79,97.0
9129,F#2,2834.7,0.25,79,97.0
9130,B1,2834.7,0.25,79,97.0
9131,G#2,2834.95,0.25,84,97.0
9132,F#2,2834.95,0.25,84,97.0
9133,D2,2834.95,0.25,84,97.0
9134,G#2,2835.2,0.25,63,97.0
9135,G#2,2835.45,0.25,63,97.0
9136,F#2,2835.45,0.25,63,97.0
9137,C#5,2835.45,0.25,63,97.0
9138,G#2,2835.7,0.25,68,97.0
9139,F#2,2835.7,0.25,68,97.0
9140,C#5,2835.7,0.25,68,97.0
9141,G#2,2835.95,0.25,84,97.0
9142,F#2,2835.95,0.25,84,97.0
9143,B1,2835.95,0.25,84,97.0
9144,G#2,2836.2,0.25,63,97.0
9145,G#2,2836.45,0.25,63,97.0
9146,F#2,2836.45,0.25,63,97.0
9147,G#2,2836.7,0.25,79,97.0
9148,F#2,2836.7,0.25,79,97.0
9149,B1,2836.7,0.25,79,97.0
9150,G#2,2836.95,0.25,84,97.0
9151,F#2,2836.95,0.25,84,97.0
9152,D2,2836.95,0.25,84,97.0
9153,G#2,2837.2,0.25,63,97.0
9154,C#5,2837.2,0.25,63,97.0
9155,G#2,2837.45,0.25,63,97.0
9156,F#2,2837.45,0.25,63,97.0
9157,G#2,2837.7,0.25,79,97.0
9158,F#2,2837.7,0.25,79,97.0
9159,B1,2837.7,0.25,79,97.0
9160,G#2,2837.95,0.25,84,97.0
9161,F#2,2837.95,0.25,84,97.0
9162,B1,2837.95,0.25,84,97.0
9163,G#2,2838.2,3/20,63,97.0
9164,G#2,2838.35,1/10,63,97.0
9165,G#2,2838.45,0.25,63,97.0
9166,F#2,2838.45,0.25,63,97.0
9167,G#2,2838.7,0.25,79,97.0
9168,F#2,2838.7,0.25,79,97.0
9169,B1,2838.7,0.25,79,97.0
9170,G#2,2838.95,0.25,84,97.0
9171,F#2,2838.95,0.25,84,97.0
9172,D2,2838.95,0.25,84,97.0
9173,G#2,2839.2,0.25,63,97.0
9174,G#2,2839.45,0.25,63,97.0
9175,F#2,2839.45,0.25,63,97.0
9176,C#5,2839.45,0.25,63,97.0
9177,G#2,2839.7,0.25,68,97.0
9178,F#2,2839.7,0.25,68,97.0
9179,C#5,2839.7,0.25,68,97.0
9180,G#2,2839.95,0.25,87,97.0
9181,F#2,2839.95,0.25,87,97.0
9182,B1,2839.95,0.25,87,97.0
9183,A3,2839.95,0.25,87,97.0
9184,G#2,2840.2,0.25,63,97.0
9185,G#2,2840.45,0.25,63,97.0
9186,F#2,2840.45,0.25,63,97.0
9187,G#2,2840.7,0.25,83,97.0
9188,F#2,2840.7,0.25,83,97.0
9189,B1,2840.7,0.25,83,97.0
9190,C#3,2840.7,0.25,83,97.0
9191,G#2,2840.95,0.25,79,97.0
9192,F#2,2840.95,0.25,79,97.0
9193,G#2,2841.2,0.25,63,97.0
9194,D2,2841.2,0.25,63,97.0
9195,G#2,2841.45,0.25,63,97.0
9196,F#2,2841.45,0.25,63,97.0
9197,G#2,2841.7,0.25,83,97.0
9198,F#2,2841.7,0.25,83,97.0
9199,B1,2841.7,0.25,83,97.0
9200,A3,2841.7,0.25,83,97.0
9201,G#2,2841.95,0.25,79,97.0
9202,F#2,2841.95,0.25,79,97.0
9203,G#2,2842.2,3/20,63,97.0
9204,G#2,2842.35,1/10,63,97.0
9205,G#2,2842.45,0.25,63,97.0
9206,F#2,2842.45,0.25,63,97.0
9207,G#2,2842.7,0.25,79,97.0
9208,F#2,2842.7,0.25,79,97.0
9209,B1,2842.7,0.25,79,97.0
9210,G#2,2842.95,0.25,87,97.0
9211,F#2,2842.95,0.25,87,97.0
9212,D2,2842.95,0.25,87,97.0
9213,A3,2842.95,0.25,87,97.0
9214,G#2,2843.2,0.25,63,97.0
9215,G#2,2843.45,0.25,63,97.0
9216,F#2,2843.45,0.25,63,97.0
9217,C#5,2843.45,0.25,63,97.0
9218,G#2,2843.7,0.25,68,97.0
9219,F#2,2843.7,0.25,68,97.0
9220,C#5,2843.7,0.25,68,97.0
9221,G#2,2843.95,0.25,84,97.0
9222,F#2,2843.95,0.25,84,97.0
9223,B1,2843.95,0.25,84,97.0
9224,G#2,2844.2,0.25,63,97.0
9225,G#2,2844.45,0.25,63,97.0
9226,F#2,2844.45,0.25,63,97.0
9227,G#2,2844.7,0.25,79,97.0
9228,F#2,2844.7,0.25,79,97.0
9229,B1,2844.7,0.25,79,97.0
9230,G#2,2844.95,0.25,84,97.0
9231,F#2,2844.95,0.25,84,97.0
9232,D2,2844.95,0.25,84,97.0
9233,G#2,2845.2,0.25,63,97.0
9234,C#5,2845.2,0.25,63,97.0
9235,G#2,2845.45,0.25,63,97.0
9236,F#2,2845.45,0.25,63,97.0
9237,G#2,2845.7,0.25,79,97.0
9238,F#2,2845.7,0.25,79,97.0
9239,B1,2845.7,0.25,79,97.0
9240,G#2,2845.95,0.25,84,97.0
9241,F#2,2845.95,0.25,84,97.0
9242,B1,2845.95,0.25,84,97.0
9243,G#2,2846.2,3/20,63,97.0
9244,G#2,2846.35,1/10,63,97.0
9245,G#2,2846.45,0.25,63,97.0
9246,F#2,2846.45,0.25,63,97.0
9247,G#2,2846.7,0.25,79,97.0
9248,F#2,2846.7,0.25,79,97.0
9249,B1,2846.7,0.25,79,97.0
9250,G#2,2846.95,0.25,84,97.0
9251,F#2,2846.95,0.25,84,97.0
9252,D2,2846.95,0.25,84,97.0
9253,G#2,2847.2,0.25,63,97.0
9254,G#2,2847.45,0.25,63,97.0
9255,F#2,2847.45,0.25,63,97.0
9256,C#5,2847.45,0.25,63,97.0
9257,G#2,2847.7,0.25,68,97.0
9258,F#2,2847.7,0.25,68,97.0
9259,C#5,2847.7,0.25,68,97.0
9260,G3,2847.95,0.75,95,97.0
9261,B1,2847.95,0.75,95,97.0
9262,A3,2847.95,0.75,95,97.0
9263,F#3,2848.7,0.75,95,97.0
9264,F#2,2849.45,0.5,47,97.0
9265,G#2,2849.95,2/5,47,97.0
9266,G#2,2850.35,7/20,47,97.0
9267,C#2,2850.7,0.25,63,97.0
9268,G#2,2850.95,0.5,95,97.0
9269,C#2,2851.45,0.25,63,97.0
9270,G#2,2851.7,0.25,95,97.0
9271,B1,2851.7,0.25,95,97.0
9272,G#2,2851.95,0.5,79,97.0
9273,B1,2851.95,0.5,79,97.0
9274,G#2,2852.45,0.25,47,97.0
9275,G#2,2852.7,0.25,63,97.0
9276,G#2,2852.95,0.25,63,97.0
9277,G#2,2853.2,0.25,47,97.0
9278,G#2,2853.45,0.5,63,97.0
9279,G#2,2853.95,2/5,63,97.0
9280,G#2,2854.35,7/20,63,97.0
9281,C#2,2854.7,0.25,95,97.0
9282,G#2,2854.95,0.25,95,97.0
9283,G#2,2855.2,0.25,95,97.0
9284,C#2,2855.45,0.25,63,97.0
9285,G#2,2855.7,0.25,95,97.0
9286,B1,2855.7,0.25,95,97.0
9287,G#2,2855.95,0.5,84,97.0
9288,B1,2855.95,0.5,84,97.0
9289,F#3,2855.95,0.5,84,97.0
9290,G#2,2856.45,0.25,63,97.0
9291,G#2,2856.7,0.25,79,97.0
9292,F#3,2856.7,0.25,79,97.0
9293,G#2,2856.95,0.25,63,97.0
9294,G#2,2857.2,0.25,63,97.0
9295,G#2,2857.45,0.5,63,97.0
9296,G#2,2857.95,2/5,63,97.0
9297,G#2,2858.35,7/20,63,97.0
9298,C#2,2858.7,0.25,95,97.0
9299,G#2,2858.95,0.5,95,97.0
9300,C#2,2859.45,0.25,63,97.0
9301,G#2,2859.7,0.25,95,97.0
9302,B1,2859.7,0.25,95,97.0
9303,G#2,2859.95,0.5,79,97.0
9304,B1,2859.95,0.5,79,97.0
9305,G#2,2860.45,0.25,47,97.0
9306,G#2,2860.7,0.25,63,97.0
9307,G#2,2860.95,0.25,63,97.0
9308,G#2,2861.2,0.25,47,97.0
9309,G#2,2861.45,0.5,63,97.0
9310,G#2,2861.95,2/5,87,97.0
9311,C#2,2861.95,2/5,87,97.0
9312,B1,2861.95,2/5,87,97.0
9313,A3,2861.95,2/5,87,97.0
9314,G#2,2862.7,7/20,87,97.0
9315,C#2,2862.7,7/20,87,97.0
9316,B1,2862.7,7/20,87,97.0
9317,A3,2862.7,7/20,87,97.0
9318,C#2,2863.05,0.25,95,97.0
9319,B1,2863.05,0.25,95,97.0
9320,A3,2863.05,0.25,95,97.0
9321,G#2,2863.3,0.25,95,97.0
9322,G#2,2863.55,0.25,95,97.0
9323,C#2,2863.8,0.25,63,97.0
9324,G#2,2864.05,0.25,95,97.0
9325,B1,2864.05,0.25,95,97.0
9326,G#2,2864.3,0.25,84,97.0
9327,B1,2864.3,0.25,84,97.0
9328,C#3,2864.3,0.25,84,97.0
9329,G#2,2864.55,0.25,47,97.0
9330,G#2,2864.8,0.25,63,97.0
9331,F#3,2864.8,0.25,63,97.0
9332,G#2,2865.05,0.25,87,97.0
9333,B1,2865.05,0.25,87,97.0
9334,G#2,2865.3,0.25,79,97.0
9335,G#2,2865.55,0.25,63,97.0
9336,G#2,2865.8,0.25,47,97.0
9337,G#2,2866.05,0.25,71,97.0
9338,B1,2866.05,0.25,71,97.0
9339,G#2,2866.3,0.25,87,97.0
9340,B1,2866.3,0.25,87,97.0
9341,G#2,2866.55,3/20,63,97.0
9342,G#2,2866.7,1/10,63,97.0
9343,F#2,2866.8,0.25,63,97.0
9344,F#2,2867.05,0.25,58,97.0
9345,C#5,2867.05,0.25,58,97.0
9346,B1,2867.05,0.25,58,97.0
9347,F#2,2867.3,0.25,55,97.0
9348,C#5,2867.3,0.25,55,97.0
9349,G#2,2867.55,0.25,63,97.0
9350,G#2,2867.8,0.25,63,97.0
9351,C#5,2867.8,0.25,63,97.0
9352,B1,2867.8,0.25,63,97.0
9353,G#2,2868.05,0.25,47,97.0
9354,C#5,2868.05,0.25,47,97.0
9355,G#2,2868.3,0.25,79,97.0
9356,B1,2868.3,0.25,79,97.0
9357,G#2,2868.55,0.25,47,97.0
9358,G#2,2868.8,0.25,63,97.0
9359,F#3,2868.8,0.25,63,97.0
9360,G#2,2869.05,0.25,87,97.0
9361,B1,2869.05,0.25,87,97.0
9362,G#2,2869.3,0.25,79,97.0
9363,G#2,2869.55,0.25,63,97.0
9364,G#2,2869.8,0.25,47,97.0
9365,G#2,2870.05,0.25,71,97.0
9366,B1,2870.05,0.25,71,97.0
9367,G#2,2870.3,0.25,87,97.0
9368,B1,2870.3,0.25,87,97.0
9369,G#2,2870.55,3/20,63,97.0
9370,G#2,2870.7,1/10,63,97.0
9371,F#2,2870.8,0.25,63,97.0
9372,C#5,2870.8,0.25,63,97.0
9373,F#2,2871.05,0.25,47,97.0
9374,C#5,2871.05,0.25,47,97.0
9375,F#2,2871.3,0.25,79,97.0
9376,B1,2871.3,0.25,79,97.0
9377,G#2,2871.55,0.25,63,97.0
9378,G#2,2871.8,0.25,71,97.0
9379,D2,2871.8,0.25,71,97.0
9380,G#2,2872.05,0.25,47,97.0
9381,G#2,2872.3,0.25,79,97.0
9382,B1,2872.3,0.25,79,97.0
9383,G#2,2872.55,0.25,47,97.0
9384,G#2,2872.8,0.25,63,97.0
9385,F#3,2872.8,0.25,63,97.0
9386,G#2,2873.05,0.25,87,97.0
9387,B1,2873.05,0.25,87,97.0
9388,G#2,2873.3,0.25,79,97.0
9389,G#2,2873.55,0.25,63,97.0
9390,G#2,2873.8,0.25,47,97.0
9391,G#2,2874.05,0.25,71,97.0
9392,B1,2874.05,0.25,71,97.0
9393,G#2,2874.3,0.25,87,97.0
9394,B1,2874.3,0.25,87,97.0
9395,G#2,2874.55,3/20,63,97.0
9396,G#2,2874.7,1/10,63,97.0
9397,F#2,2874.8,0.25,63,97.0
9398,F#2,2875.05,0.25,58,97.0
9399,C#5,2875.05,0.25,58,97.0
9400,B1,2875.05,0.25,58,97.0
9401,F#2,2875.3,0.25,55,97.0
9402,C#5,2875.3,0.25,55,97.0
9403,G#2,2875.55,0.25,63,97.0
9404,G#2,2875.8,0.25,63,97.0
9405,C#5,2875.8,0.25,63,97.0
9406,B1,2875.8,0.25,63,97.0
9407,G#2,2876.05,0.25,47,97.0
9408,C#5,2876.05,0.25,47,97.0
9409,G#2,2876.3,0.25,79,97.0
9410,B1,2876.3,0.25,79,97.0
9411,G#2,2876.55,0.25,47,97.0
9412,G#2,2876.8,0.25,63,97.0
9413,F#3,2876.8,0.25,63,97.0
9414,G#2,2877.05,0.25,87,97.0
9415,B1,2877.05,0.25,87,97.0
9416,G#2,2877.3,0.25,79,97.0
9417,G#2,2877.55,0.25,63,97.0
9418,G#2,2877.8,0.25,47,97.0
9419,G#2,2878.05,0.25,71,97.0
9420,B1,2878.05,0.25,71,97.0
9421,G#2,2878.3,0.25,87,97.0
9422,B1,2878.3,0.25,87,97.0
9423,G#2,2878.55,3/20,63,97.0
9424,G#2,2878.7,1/10,63,97.0
9425,F#2,2878.8,0.25,63,97.0
9426,C#5,2878.8,0.25,63,97.0
9427,F#2,2879.05,0.25,47,97.0
9428,C#5,2879.05,0.25,47,97.0
9429,F#2,2879.3,0.25,79,97.0
9430,B1,2879.3,0.25,79,97.0
9431,G#2,2879.55,0.25,63,97.0
9432,G#2,2879.8,0.25,71,97.0
9433,D2,2879.8,0.25,71,97.0
9434,G#2,2880.05,0.25,47,97.0
9435,G#2,2880.3,0.25,84,97.0
9436,B1,2880.3,0.25,84,97.0
9437,C#3,2880.3,0.25,84,97.0
9438,G#2,2880.55,0.25,47,97.0
9439,G#2,2880.8,0.25,63,97.0
9440,F#3,2880.8,0.25,63,97.0
9441,G#2,2881.05,0.25,87,97.0
9442,B1,2881.05,0.25,87,97.0
9443,G#2,2881.3,0.25,79,97.0
9444,G#2,2881.55,0.25,63,97.0
9445,G#2,2881.8,0.25,47,97.0
9446,G#2,2882.05,0.25,71,97.0
9447,B1,2882.05,0.25,71,97.0
9448,G#2,2882.3,0.25,87,97.0
9449,B1,2882.3,0.25,87,97.0
9450,G#2,2882.55,3/20,63,97.0
9451,G#2,2882.7,1/10,63,97.0
9452,F#2,2882.8,0.25,63,97.0
9453,F#2,2883.05,0.25,58,97.0
9454,C#5,2883.05,0.25,58,97.0
9455,B1,2883.05,0.25,58,97.0
9456,F#2,2883.3,0.25,55,97.0
9457,C#5,2883.3,0.25,55,97.0
9458,G#2,2883.55,0.25,63,97.0
9459,G#2,2883.8,0.25,63,97.0
9460,C#5,2883.8,0.25,63,97.0
9461,B1,2883.8,0.25,63,97.0
9462,G#2,2884.05,0.25,47,97.0
9463,C#5,2884.05,0.25,47,97.0
9464,G#2,2884.3,0.25,79,97.0
9465,B1,2884.3,0.25,79,97.0
9466,G#2,2884.55,0.25,47,97.0
9467,G#2,2884.8,0.25,63,97.0
9468,F#3,2884.8,0.25,63,97.0
9469,G#2,2885.05,0.25,87,97.0
9470,B1,2885.05,0.25,87,97.0
9471,G#2,2885.3,0.25,79,97.0
9472,G#2,2885.55,0.25,63,97.0
9473,G#2,2885.8,0.25,47,97.0
9474,G#2,2886.05,0.25,71,97.0
9475,B1,2886.05,0.25,71,97.0
9476,G#2,2886.3,0.25,87,97.0
9477,B1,2886.3,0.25,87,97.0
9478,G#2,2886.55,3/20,63,97.0
9479,G#2,2886.7,1/10,63,97.0
9480,F#2,2886.8,0.25,63,97.0
9481,C#5,2886.8,0.25,63,97.0
9482,F#2,2887.05,0.25,47,97.0
9483,C#5,2887.05,0.25,47,97.0
9484,F#2,2887.3,0.25,79,97.0
9485,B1,2887.3,0.25,79,97.0
9486,G#2,2887.55,0.25,63,97.0
9487,G#2,2887.8,0.25,71,97.0
9488,D2,2887.8,0.25,71,97.0
9489,G#2,2888.05,0.25,47,97.0
9490,G#2,2888.3,0.25,79,97.0
9491,B1,2888.3,0.25,79,97.0
9492,G#2,2888.55,0.25,47,97.0
9493,G#2,2888.8,0.25,63,97.0
9494,F#3,2888.8,0.25,63,97.0
9495,G#2,2889.05,0.25,87,97.0
9496,B1,2889.05,0.25,87,97.0
9497,G#2,2889.3,0.25,79,97.0
9498,G#2,2889.55,0.25,63,97.0
9499,G#2,2889.8,0.25,47,97.0
9500,G#2,2890.05,0.25,71,97.0
9501,B1,2890.05,0.25,71,97.0
9502,G#2,2890.3,0.25,87,97.0
9503,B1,2890.3,0.25,87,97.0
9504,G#2,2890.55,3/20,63,97.0
9505,G#2,2890.7,1/10,63,97.0
9506,F#2,2890.8,0.25,63,97.0
9507,F#2,2891.05,0.25,58,97.0
9508,C#5,2891.05,0.25,58,97.0
9509,B1,2891.05,0.25,58,97.0
9510,F#2,2891.3,0.25,55,97.0
9511,C#5,2891.3,0.25,55,97.0
9512,G#2,2891.55,0.25,63,97.0
9513,G#2,2891.8,0.25,63,97.0
9514,C#5,2891.8,0.25,63,97.0
9515,B1,2891.8,0.25,63,97.0
9516,G#2,2892.05,0.25,47,97.0
9517,C#5,2892.05,0.25,47,97.0
9518,G#2,2892.3,0.25,79,97.0
9519,B1,2892.3,0.25,79,97.0
9520,G#2,2892.55,0.25,47,97.0
9521,G#2,2892.8,0.25,63,97.0
9522,F#3,2892.8,0.25,63,97.0
9523,G#2,2893.05,0.25,87,97.0
9524,B1,2893.05,0.25,87,97.0
9525,G#2,2893.3,0.25,79,97.0
9526,G#2,2893.55,0.25,63,97.0
9527,G#2,2893.8,0.25,47,97.0
9528,G#2,2894.05,0.25,71,97.0
9529,B1,2894.05,0.25,71,97.0
9530,G#2,2894.3,0.25,87,97.0
9531,B1,2894.3,0.25,87,97.0
9532,G#2,2894.55,3/20,63,97.0
9533,G#2,2894.7,1/10,63,97.0
9534,F#2,2894.8,0.25,63,97.0
9535,C#5,2894.8,0.25,63,97.0
9536,F#2,2895.05,0.25,47,97.0
9537,C#5,2895.05,0.25,47,97.0
9538,F#2,2895.3,0.25,79,97.0
9539,B1,2895.3,0.25,79,97.0
9540,G#2,2895.55,0.25,63,97.0
9541,G#2,2895.8,0.25,71,97.0
9542,D2,2895.8,0.25,71,97.0
9543,G#2,2896.05,0.25,47,97.0
9544,G#2,2896.3,0.25,79,97.0
9545,B1,2896.3,0.25,79,97.0
9546,G#2,2896.55,0.25,47,97.0
9547,G#2,2896.8,0.25,63,97.0
9548,F#3,2896.8,0.25,63,97.0
9549,G#2,2897.05,0.25,87,97.0
9550,B1,2897.05,0.25,87,97.0
9551,G#2,2897.3,0.25,79,97.0
9552,G#2,2897.55,0.25,63,97.0
9553,G#2,2897.8,0.25,47,97.0
9554,G#2,2898.05,0.25,71,97.0
9555,B1,2898.05,0.25,71,97.0
9556,G#2,2898.3,0.25,87,97.0
9557,B1,2898.3,0.25,87,97.0
9558,G#2,2898.55,3/20,63,97.0
9559,G#2,2898.7,1/10,63,97.0
9560,F#2,2898.8,0.25,63,97.0
9561,F#2,2899.05,0.25,58,97.0
9562,C#5,2899.05,0.25,58,97.0
9563,B1,2899.05,0.25,58,97.0
9564,F#2,2899.3,0.25,55,97.0
9565,C#5,2899.3,0.25,55,97.0
9566,G#2,2899.55,0.25,63,97.0
9567,G#2,2899.8,0.25,63,97.0
9568,C#5,2899.8,0.25,63,97.0
9569,B1,2899.8,0.25,63,97.0
9570,G#2,2900.05,0.25,47,97.0
9571,C#5,2900.05,0.25,47,97.0
9572,G#2,2900.3,0.25,79,97.0
9573,B1,2900.3,0.25,79,97.0
9574,G#2,2900.55,0.25,47,97.0
9575,G#2,2900.8,0.25,63,97.0
9576,F#3,2900.8,0.25,63,97.0
9577,G#2,2901.05,0.25,87,97.0
9578,B1,2901.05,0.25,87,97.0
9579,G#2,2901.3,0.25,79,97.0
9580,G#2,2901.55,0.25,63,97.0
9581,G#2,2901.8,0.25,47,97.0
9582,G#2,2902.05,0.25,71,97.0
9583,B1,2902.05,0.25,71,97.0
9584,G#2,2902.3,0.25,87,97.0
9585,B1,2902.3,0.25,87,97.0
9586,G#2,2902.55,3/20,63,97.0
9587,G#2,2902.7,1/10,63,97.0
9588,F#2,2902.8,0.25,63,97.0
9589,C#5,2902.8,0.25,63,97.0
9590,F#2,2903.05,0.25,47,97.0
9591,C#5,2903.05,0.25,47,97.0
9592,F#2,2903.3,0.25,79,97.0
9593,B1,2903.3,0.25,79,97.0
9594,G#2,2903.55,0.25,63,97.0
9595,G#2,2903.8,0.25,71,97.0
9596,D2,2903.8,0.25,71,97.0
9597,G#2,2904.05,0.25,47,97.0
9598,G#2,2904.3,0.25,79,97.0
9599,B1,2904.3,0.25,79,97.0
9600,G#2,2904.55,0.25,47,97.0
9601,G#2,2904.8,0.25,63,97.0
9602,F#3,2904.8,0.25,63,97.0
9603,G#2,2905.05,0.25,87,97.0
9604,B1,2905.05,0.25,87,97.0
9605,G#2,2905.3,0.25,79,97.0
9606,G#2,2905.55,0.25,63,97.0
9607,G#2,2905.8,0.25,47,97.0
9608,G#2,2906.05,0.25,71,97.0
9609,B1,2906.05,0.25,71,97.0
9610,G#2,2906.3,0.25,87,97.0
9611,B1,2906.3,0.25,87,97.0
9612,G#2,2906.55,3/20,63,97.0
9613,G#2,2906.7,1/10,63,97.0
9614,F#2,2906.8,0.25,63,97.0
9615,F#2,2907.05,0.25,58,97.0
9616,C#5,2907.05,0.25,58,97.0
9617,B1,2907.05,0.25,58,97.0
9618,F#2,2907.3,0.25,55,97.0
9619,C#5,2907.3,0.25,55,97.0
9620,G#2,2907.55,0.25,63,97.0
9621,G#2,2907.8,0.25,63,97.0
9622,C#5,2907.8,0.25,63,97.0
9623,B1,2907.8,0.25,63,97.0
9624,G#2,2908.05,0.25,47,97.0
9625,C#5,2908.05,0.25,47,97.0
9626,G#2,2908.3,0.25,79,97.0
9627,B1,2908.3,0.25,79,97.0
9628,G#2,2908.55,0.25,47,97.0
9629,G#2,2908.8,0.25,63,97.0
9630,F#3,2908.8,0.25,63,97.0
9631,G#2,2909.05,0.25,87,97.0
9632,B1,2909.05,0.25,87,97.0
9633,G#2,2909.3,0.25,79,97.0
9634,G#2,2909.55,0.25,63,97.0
9635,G#2,2909.8,0.25,47,97.0
9636,G#2,2910.05,0.25,71,97.0
9637,B1,2910.05,0.25,71,97.0
9638,G#2,2910.3,0.25,87,97.0
9639,B1,2910.3,0.25,87,97.0
9640,G#2,2910.55,3/20,63,97.0
9641,G#2,2910.7,1/10,63,97.0
9642,F#2,2910.8,0.25,63,97.0
9643,C#5,2910.8,0.25,63,97.0
9644,F#2,2911.05,0.25,47,97.0
9645,C#5,2911.05,0.25,47,97.0
9646,F#2,2911.3,0.25,79,97.0
9647,B1,2911.3,0.25,79,97.0
9648,G#2,2911.55,0.25,63,97.0
9649,G#2,2911.8,0.25,71,97.0
9650,D2,2911.8,0.25,71,97.0
9651,G#2,2912.05,0.25,47,97.0
9652,G#2,2912.3,0.25,74,97.0
9653,B1,2912.3,0.25,74,97.0
9654,E3,2912.3,0.25,74,97.0
9655,G#2,2912.55,0.25,47,97.0
9656,G#2,2912.8,0.25,63,97.0
9657,F#3,2912.8,0.25,63,97.0
9658,G#2,2913.05,0.25,87,97.0
9659,B1,2913.05,0.25,87,97.0
9660,G#2,2913.3,0.25,79,97.0
9661,G#2,2913.55,0.25,63,97.0
9662,G#2,2913.8,0.25,47,97.0
9663,G#2,2914.05,0.25,71,97.0
9664,B1,2914.05,0.25,71,97.0
9665,G#2,2914.3,0.25,87,97.0
9666,B1,2914.3,0.25,87,97.0
9667,G#2,2914.55,3/20,63,97.0
9668,G#2,2914.7,1/10,63,97.0
9669,F#2,2914.8,0.25,63,97.0
9670,F#2,2915.05,0.25,58,97.0
9671,C#5,2915.05,0.25,58,97.0
9672,B1,2915.05,0.25,58,97.0
9673,F#2,2915.3,0.25,55,97.0
9674,C#5,2915.3,0.25,55,97.0
9675,G#2,2915.55,0.25,63,97.0
9676,G#2,2915.8,0.25,63,97.0
9677,C#5,2915.8,0.25,63,97.0
9678,B1,2915.8,0.25,63,97.0
9679,G#2,2916.05,0.25,47,97.0
9680,C#5,2916.05,0.25,47,97.0
9681,G#2,2916.3,0.25,79,97.0
9682,B1,2916.3,0.25,79,97.0
9683,G#2,2916.55,0.25,47,97.0
9684,G#2,2916.8,0.25,63,97.0
9685,F#3,2916.8,0.25,63,97.0
9686,G#2,2917.05,0.25,87,97.0
9687,B1,2917.05,0.25,87,97.0
9688,G#2,2917.3,0.25,79,97.0
9689,G#2,2917.55,0.25,63,97.0
9690,G#2,2917.8,0.25,47,97.0
9691,G#2,2918.05,0.25,71,97.0
9692,B1,2918.05,0.25,71,97.0
9693,G#2,2918.3,0.25,87,97.0
9694,B1,2918.3,0.25,87,97.0
9695,G#2,2918.55,3/20,63,97.0
9696,G#2,2918.7,1/10,63,97.0
9697,F#2,2918.8,0.25,63,97.0
9698,C#5,2918.8,0.25,63,97.0
9699,F#2,2919.05,0.25,47,97.0
9700,C#5,2919.05,0.25,47,97.0
9701,F#2,2919.3,0.25,79,97.0
9702,B1,2919.3,0.25,79,97.0
9703,G#2,2919.55,0.25,63,97.0
9704,G#2,2919.8,0.25,71,97.0
9705,D2,2919.8,0.25,71,97.0
9706,G#2,2920.05,0.25,47,97.0
9707,G#2,2920.3,0.25,79,97.0
9708,B1,2920.3,0.25,79,97.0
9709,G#2,2920.55,0.25,47,97.0
9710,G#2,2920.8,0.25,63,97.0
9711,F#3,2920.8,0.25,63,97.0
9712,G#2,2921.05,0.25,87,97.0
9713,B1,2921.05,0.25,87,97.0
9714,G#2,2921.3,0.25,79,97.0
9715,G#2,2921.55,0.25,63,97.0
9716,G#2,2921.8,0.25,47,97.0
9717,G#2,2922.05,0.25,71,97.0
9718,B1,2922.05,0.25,71,97.0
9719,G#2,2922.3,0.25,87,97.0
9720,B1,2922.3,0.25,87,97.0
9721,G#2,2922.55,3/20,63,97.0
9722,G#2,2922.7,1/10,63,97.0
9723,F#2,2922.8,0.25,63,97.0
9724,F#2,2923.05,0.25,58,97.0
9725,C#5,2923.05,0.25,58,97.0
9726,B1,2923.05,0.25,58,97.0
9727,F#2,2923.3,0.25,55,97.0
9728,C#5,2923.3,0.25,55,97.0
9729,G#2,2923.55,0.25,63,97.0
9730,G#2,2923.8,0.25,63,97.0
9731,C#5,2923.8,0.25,63,97.0
9732,B1,2923.8,0.25,63,97.0
9733,G#2,2924.05,0.25,47,97.0
9734,C#5,2924.05,0.25,47,97.0
9735,G#2,2924.3,0.25,79,97.0
9736,B1,2924.3,0.25,79,97.0
9737,G#2,2924.55,0.25,47,97.0
9738,G#2,2924.8,0.25,63,97.0
9739,F#3,2924.8,0.25,63,97.0
9740,G#2,2925.05,0.25,87,97.0
9741,B1,2925.05,0.25,87,97.0
9742,G#2,2925.3,0.25,79,97.0
9743,G#2,2925.55,0.25,63,97.0
9744,G#2,2925.8,0.25,47,97.0
9745,G#2,2926.05,0.25,71,97.0
9746,B1,2926.05,0.25,71,97.0
9747,G#2,2926.3,0.25,87,97.0
9748,B1,2926.3,0.25,87,97.0
9749,G#2,2926.55,3/20,63,97.0
9750,G#2,2926.7,1/10,63,97.0
9751,F#2,2926.8,0.25,63,97.0
9752,C#5,2926.8,0.25,63,97.0
9753,F#2,2927.05,0.25,47,97.0
9754,C#5,2927.05,0.25,47,97.0
9755,F#2,2927.3,0.25,74,97.0
9756,B1,2927.3,0.25,74,97.0
9757,B2,2927.3,0.25,74,97.0
9758,G#2,2927.55,0.25,63,97.0
9759,G#2,2927.8,0.25,68,97.0
9760,D2,2927.8,0.25,68,97.0
9761,A2,2927.8,0.25,68,97.0
9762,G#2,2928.05,0.25,47,97.0
9763,G#2,2928.3,0.25,79,97.0
9764,B1,2928.3,0.25,79,97.0
9765,G#2,2928.55,0.25,47,97.0
9766,G#2,2928.8,0.25,63,97.0
9767,F#3,2928.8,0.25,63,97.0
9768,G#2,2929.05,0.25,87,97.0
9769,B1,2929.05,0.25,87,97.0
9770,G#2,2929.3,0.25,79,97.0
9771,G#2,2929.55,0.25,63,97.0
9772,G#2,2929.8,0.25,47,97.0
9773,G#2,2930.05,0.25,71,97.0
9774,B1,2930.05,0.25,71,97.0
9775,G#2,2930.3,0.25,87,97.0
9776,B1,2930.3,0.25,87,97.0
9777,G#2,2930.55,3/20,63,97.0
9778,G#2,2930.7,1/10,63,97.0
9779,F#2,2930.8,0.25,63,97.0
9780,F#2,2931.05,0.25,58,97.0
9781,C#5,2931.05,0.25,58,97.0
9782,B1,2931.05,0.25,58,97.0
9783,F#2,2931.3,0.25,55,97.0
9784,C#5,2931.3,0.25,55,97.0
9785,G#2,2931.55,0.25,63,97.0
9786,G#2,2931.8,0.25,63,97.0
9787,C#5,2931.8,0.25,63,97.0
9788,B1,2931.8,0.25,63,97.0
9789,G#2,2932.05,0.25,47,97.0
9790,C#5,2932.05,0.25,47,97.0
9791,G#2,2932.3,0.25,79,97.0
9792,B1,2932.3,0.25,79,97.0
9793,G#2,2932.55,0.25,47,97.0
9794,G#2,2932.8,0.25,63,97.0
9795,F#3,2932.8,0.25,63,97.0
9796,G#2,2933.05,0.25,87,97.0
9797,B1,2933.05,0.25,87,97.0
9798,G#2,2933.3,0.25,79,97.0
9799,G#2,2933.55,0.25,63,97.0
9800,G#2,2933.8,0.25,47,97.0
9801,G#2,2934.05,0.25,71,97.0
9802,B1,2934.05,0.25,71,97.0
9803,F#2,2934.3,0.25,95,97.0
9804,B1,2934.3,0.25,95,97.0
9805,C#3,2934.3,0.25,95,97.0
9806,F#2,2934.55,3/20,95,97.0
9807,F#2,2934.7,1/10,95,97.0
9808,F#2,2934.8,0.25,95,97.0
9809,F#2,2935.05,0.25,95,97.0
9810,B1,2935.05,0.25,95,97.0
9811,F#2,2935.3,0.25,95,97.0
9812,B1,2935.3,0.25,95,97.0
9813,A3,2935.3,0.25,95,97.0
9814,F#2,2935.55,0.25,95,97.0
9815,F#2,2935.8,0.25,95,97.0
9816,D2,2935.8,0.25,95,97.0
9817,F#2,2936.05,0.25,95,97.0
9818,G#2,2936.3,0.25,84,97.0
9819,F#2,2936.3,0.25,84,97.0
9820,B1,2936.3,0.25,84,97.0
9821,G#2,2936.55,0.25,63,97.0
9822,G#2,2936.8,0.25,63,97.0
9823,F#2,2936.8,0.25,63,97.0
9824,G#2,2937.05,0.25,79,97.0
9825,F#2,2937.05,0.25,79,97.0
9826,B1,2937.05,0.25,79,97.0
9827,G#2,2937.3,0.25,84,97.0
9828,F#2,2937.3,0.25,84,97.0
9829,D2,2937.3,0.25,84,97.0
9830,G#2,2937.55,0.25,63,97.0
9831,C#5,2937.55,0.25,63,97.0
9832,G#2,2937.8,0.25,63,97.0
9833,F#2,2937.8,0.25,63,97.0
9834,G#2,2938.05,0.25,79,97.0
9835,F#2,2938.05,0.25,79,97.0
9836,B1,2938.05,0.25,79,97.0
9837,G#2,2938.3,0.25,84,97.0
9838,F#2,2938.3,0.25,84,97.0
9839,B1,2938.3,0.25,84,97.0
9840,G#2,2938.55,3/20,63,97.0
9841,G#2,2938.7,1/10,63,97.0
9842,G#2,2938.8,0.25,63,97.0
9843,F#2,2938.8,0.25,63,97.0
9844,G#2,2939.05,0.25,79,97.0
9845,F#2,2939.05,0.25,79,97.0
9846,B1,2939.05,0.25,79,97.0
9847,G#2,2939.3,0.25,84,97.0
9848,F#2,2939.3,0.25,84,97.0
9849,D2,2939.3,0.25,84,97.0
9850,G#2,2939.55,0.25,63,97.0
9851,G#2,2939.8,0.25,63,97.0
9852,F#2,2939.8,0.25,63,97.0
9853,C#5,2939.8,0.25,63,97.0
9854,G#2,2940.05,0.25,68,97.0
9855,F#2,2940.05,0.25,68,97.0
9856,C#5,2940.05,0.25,68,97.0
9857,G#2,2940.3,0.25,84,97.0
9858,F#2,2940.3,0.25,84,97.0
9859,B1,2940.3,0.25,84,97.0
9860,G#2,2940.55,0.25,63,97.0
9861,G#2,2940.8,0.25,63,97.0
9862,F#2,2940.8,0.25,63,97.0
9863,G#2,2941.05,0.25,79,97.0
9864,F#2,2941.05,0.25,79,97.0
9865,B1,2941.05,0.25,79,97.0
9866,G#2,2941.3,0.25,84,97.0
9867,F#2,2941.3,0.25,84,97.0
9868,D2,2941.3,0.25,84,97.0
9869,G#2,2941.55,0.25,63,97.0
9870,C#5,2941.55,0.25,63,97.0
9871,G#2,2941.8,0.25,63,97.0
9872,F#2,2941.8,0.25,63,97.0
9873,G#2,2942.05,0.25,79,97.0
9874,F#2,2942.05,0.25,79,97.0
9875,B1,2942.05,0.25,79,97.0
9876,G#2,2942.3,0.25,84,97.0
9877,F#2,2942.3,0.25,84,97.0
9878,B1,2942.3,0.25,84,97.0
9879,G#2,2942.55,3/20,63,97.0
9880,G#2,2942.7,1/10,63,97.0
9881,G#2,2942.8,0.25,63,97.0
9882,F#2,2942.8,0.25,63,97.0
9883,G#2,2943.05,0.25,79,97.0
9884,F#2,2943.05,0.25,79,97.0
9885,B1,2943.05,0.25,79,97.0
9886,G#2,2943.3,0.25,84,97.0
9887,F#2,2943.3,0.25,84,97.0
9888,D2,2943.3,0.25,84,97.0
9889,G#2,2943.55,0.25,63,97.0
9890,G#2,2943.8,0.25,63,97.0
9891,F#2,2943.8,0.25,63,97.0
9892,C#5,2943.8,0.25,63,97.0
9893,G#2,2944.05,0.25,68,97.0
9894,F#2,2944.05,0.25,68,97.0
9895,C#5,2944.05,0.25,68,97.0
9896,G#2,2944.3,0.25,84,97.0
9897,F#2,2944.3,0.25,84,97.0
9898,B1,2944.3,0.25,84,97.0
9899,G#2,2944.55,0.25,63,97.0
9900,G#2,2944.8,0.25,63,97.0
9901,F#2,2944.8,0.25,63,97.0
9902,G#2,2945.05,0.25,79,97.0
9903,F#2,2945.05,0.25,79,97.0
9904,B1,2945.05,0.25,79,97.0
9905,G#2,2945.3,0.25,84,97.0
9906,F#2,2945.3,0.25,84,97.0
9907,D2,2945.3,0.25,84,97.0
9908,G#2,2945.55,0.25,63,97.0
9909,C#5,2945.55,0.25,63,97.0
9910,G#2,2945.8,0.25,63,97.0
9911,F#2,2945.8,0.25,63,97.0
9912,G#2,2946.05,0.25,79,97.0
9913,F#2,2946.05,0.25,79,97.0
9914,B1,2946.05,0.25,79,97.0
9915,G#2,2946.3,0.25,84,97.0
9916,F#2,2946.3,0.25,84,97.0
9917,B1,2946.3,0.25,84,97.0
9918,G#2,2946.55,3/20,63,97.0
9919,G#2,2946.7,1/10,63,97.0
9920,G#2,2946.8,0.25,63,97.0
9921,F#2,2946.8,0.25,63,97.0
9922,G#2,2947.05,0.25,79,97.0
9923,F#2,2947.05,0.25,79,97.0
9924,B1,2947.05,0.25,79,97.0
9925,G#2,2947.3,0.25,84,97.0
9926,F#2,2947.3,0.25,84,97.0
9927,D2,2947.3,0.25,84,97.0
9928,G#2,2947.55,0.25,63,97.0
9929,G#2,2947.8,0.25,63,97.0
9930,F#2,2947.8,0.25,63,97.0
9931,C#5,2947.8,0.25,63,97.0
9932,G#2,2948.05,0.25,68,97.0
9933,F#2,2948.05,0.25,68,97.0
9934,C#5,2948.05,0.25,68,97.0
9935,G#2,2948.3,0.25,84,97.0
9936,F#2,2948.3,0.25,84,97.0
9937,B1,2948.3,0.25,84,97.0
9938,G#2,2948.55,0.25,63,97.0
9939,G#2,2948.8,0.25,63,97.0
9940,F#2,2948.8,0.25,63,97.0
9941,G#2,2949.05,0.25,79,97.0
9942,F#2,2949.05,0.25,79,97.0
9943,B1,2949.05,0.25,79,97.0
9944,G#2,2949.3,0.25,84,97.0
9945,F#2,2949.3,0.25,84,97.0
9946,D2,2949.3,0.25,84,97.0
9947,G#2,2949.55,0.25,63,97.0
9948,C#5,2949.55,0.25,63,97.0
9949,G#2,2949.8,0.25,63,97.0
9950,F#2,2949.8,0.25,63,97.0
9951,G#2,2950.05,0.25,79,97.0
9952,F#2,2950.05,0.25,79,97.0
9953,B1,2950.05,0.25,79,97.0
9954,G#2,2950.3,0.25,84,97.0
9955,F#2,2950.3,0.25,84,97.0
9956,B1,2950.3,0.25,84,97.0
9957,G#2,2950.55,3/20,63,97.0
9958,G#2,2950.7,1/10,63,97.0
9959,G#2,2950.8,0.25,63,97.0
9960,F#2,2950.8,0.25,63,97.0
9961,G#2,2951.05,0.25,79,97.0
9962,F#2,2951.05,0.25,79,97.0
9963,B1,2951.05,0.25,79,97.0
9964,G#2,2951.3,0.25,84,97.0
9965,F#2,2951.3,0.25,84,97.0
9966,D2,2951.3,0.25,84,97.0
9967,G#2,2951.55,0.25,63,97.0
9968,G#2,2951.8,0.25,63,97.0
9969,F#2,2951.8,0.25,63,97.0
9970,C#5,2951.8,0.25,63,97.0
9971,G#2,2952.05,0.25,68,97.0
9972,F#2,2952.05,0.25,68,97.0
9973,C#5,2952.05,0.25,68,97.0
9974,G#2,2952.3,0.25,84,97.0
9975,F#2,2952.3,0.25,84,97.0
9976,B1,2952.3,0.25,84,97.0
9977,G#2,2952.55,0.25,63,97.0
9978,G#2,2952.8,0.25,63,97.0
9979,F#2,2952.8,0.25,63,97.0
9980,G#2,2953.05,0.25,79,97.0
9981,F#2,2953.05,0.25,79,97.0
9982,B1,2953.05,0.25,79,97.0
9983,G#2,2953.3,0.25,84,97.0
9984,F#2,2953.3,0.25,84,97.0
9985,D2,2953.3,0.25,84,97.0
9986,G#2,2953.55,0.25,63,97.0
9987,C#5,2953.55,0.25,63,97.0
9988,G#2,2953.8,0.25,63,97.0
9989,F#2,2953.8,0.25,63,97.0
9990,G#2,2954.05,0.25,79,97.0
9991,F#2,2954.05,0.25,79,97.0
9992,B1,2954.05,0.25,79,97.0
9993,G#2,2954.3,0.25,84,97.0
9994,F#2,2954.3,0.25,84,97.0
9995,B1,2954.3,0.25,84,97.0
9996,G#2,2954.55,3/20,63,97.0
9997,G#2,2954.7,1/10,63,97.0
9998,G#2,2954.8,0.25,63,97.0
9999,F#2,2954.8,0.25,63,97.0
10000,G#2,2955.05,0.25,79,97.0
10001,F#2,2955.05,0.25,79,97.0
10002,B1,2955.05,0.25,79,97.0
10003,G#2,2955.3,0.25,84,97.0
10004,F#2,2955.3,0.25,84,97.0
10005,D2,2955.3,0.25,84,97.0
10006,G#2,2955.55,0.25,63,97.0
10007,G#2,2955.8,0.25,63,97.0
10008,F#2,2955.8,0.25,63,97.0
10009,C#5,2955.8,0.25,63,97.0
10010,G#2,2956.05,0.25,68,97.0
10011,F#2,2956.05,0.25,68,97.0
10012,C#5,2956.05,0.25,68,97.0
10013,G#2,2956.3,0.25,87,97.0
10014,F#2,2956.3,0.25,87,97.0
10015,B1,2956.3,0.25,87,97.0
10016,A3,2956.3,0.25,87,97.0
10017,G#2,2956.55,0.25,63,97.0
10018,G#2,2956.8,0.25,63,97.0
10019,F#2,2956.8,0.25,63,97.0
10020,G#2,2957.05,0.25,83,97.0
10021,F#2,2957.05,0.25,83,97.0
10022,B1,2957.05,0.25,83,97.0
10023,C#3,2957.05,0.25,83,97.0
10024,G#2,2957.3,0.25,79,97.0
10025,F#2,2957.3,0.25,79,97.0
10026,G#2,2957.55,0.25,63,97.0
10027,D2,2957.55,0.25,63,97.0
10028,G#2,2957.8,0.25,63,97.0
10029,F#2,2957.8,0.25,63,97.0
10030,G#2,2958.05,0.25,83,97.0
10031,F#2,2958.05,0.25,83,97.0
10032,B1,2958.05,0.25,83,97.0
10033,A3,2958.05,0.25,83,97.0
10034,G#2,2958.3,0.25,79,97.0
10035,F#2,2958.3,0.25,79,97.0
10036,G#2,2958.55,3/20,63,97.0
10037,G#2,2958.7,1/10,63,97.0
10038,G#2,2958.8,0.25,63,97.0
10039,F#2,2958.8,0.25,63,97.0
10040,G#2,2959.05,0.25,79,97.0
10041,F#2,2959.05,0.25,79,97.0
10042,B1,2959.05,0.25,79,97.0
10043,G#2,2959.3,0.25,87,97.0
10044,F#2,2959.3,0.25,87,97.0
10045,D2,2959.3,0.25,87,97.0
10046,A3,2959.3,0.25,87,97.0
10047,G#2,2959.55,0.25,63,97.0
10048,G#2,2959.8,0.25,63,97.0
10049,F#2,2959.8,0.25,63,97.0
10050,C#5,2959.8,0.25,63,97.0
10051,G#2,2960.05,0.25,68,97.0
10052,F#2,2960.05,0.25,68,97.0
10053,C#5,2960.05,0.25,68,97.0
10054,G#2,2960.3,0.25,84,97.0
10055,F#2,2960.3,0.25,84,97.0
10056,B1,2960.3,0.25,84,97.0
10057,G#2,2960.55,0.25,63,97.0
10058,G#2,2960.8,0.25,63,97.0
10059,F#2,2960.8,0.25,63,97.0
10060,G#2,2961.05,0.25,79,97.0
10061,F#2,2961.05,0.25,79,97.0
10062,B1,2961.05,0.25,79,97.0
10063,G#2,2961.3,0.25,84,97.0
10064,F#2,2961.3,0.25,84,97.0
10065,D2,2961.3,0.25,84,97.0
10066,G#2,2961.55,0.25,63,97.0
10067,C#5,2961.55,0.25,63,97.0
10068,G#2,2961.8,0.25,63,97.0
10069,F#2,2961.8,0.25,63,97.0
10070,G#2,2962.05,0.25,79,97.0
10071,F#2,2962.05,0.25,79,97.0
10072,B1,2962.05,0.25,79,97.0
10073,G#2,2962.3,0.25,84,97.0
10074,F#2,2962.3,0.25,84,97.0
10075,B1,2962.3,0.25,84,97.0
10076,G#2,2962.55,3/20,63,97.0
10077,G#2,2962.7,1/10,63,97.0
10078,G#2,2962.8,0.25,63,97.0
10079,F#2,2962.8,0.25,63,97.0
10080,G#2,2963.05,0.25,79,97.0
10081,F#2,2963.05,0.25,79,97.0
10082,B1,2963.05,0.25,79,97.0
10083,G#2,2963.3,0.25,84,97.0
10084,F#2,2963.3,0.25,84,97.0
10085,D2,2963.3,0.25,84,97.0
10086,G#2,2963.55,0.25,63,97.0
10087,G#2,2963.8,0.25,63,97.0
10088,F#2,2963.8,0.25,63,97.0
10089,C#5,2963.8,0.25,63,97.0
10090,G#2,2964.05,0.25,68,97.0
10091,F#2,2964.05,0.25,68,97.0
10092,C#5,2964.05,0.25,68,97.0
10093,G#2,2964.3,0.25,84,97.0
10094,B1,2964.3,0.25,84,97.0
10095,C#3,2964.3,0.25,84,97.0
10096,G#2,2964.55,0.25,63,97.0
10097,G#2,2964.8,0.25,63,97.0
10098,G#2,2965.05,0.25,84,97.0
10099,B1,2965.05,0.25,84,97.0
10100,C#3,2965.05,0.25,84,97.0
10101,G#2,2965.3,0.25,79,97.0
10102,D2,2965.3,0.25,79,97.0
10103,G#2,2965.55,0.25,63,97.0
10104,G#2,2965.8,0.25,63,97.0
10105,G#2,2966.05,0.25,63,97.0
10106,G#2,2966.3,0.25,63,97.0
10107,G#2,2966.55,3/20,63,97.0
10108,G#2,2966.7,1/10,63,97.0
10109,G#2,2966.8,0.25,63,97.0
10110,G#2,2967.05,0.25,79,97.0
10111,B1,2967.05,0.25,79,97.0
10112,G#2,2967.3,0.25,84,97.0
10113,D2,2967.3,0.25,84,97.0
10114,C#3,2967.3,0.25,84,97.0
10115,G#2,2967.55,0.25,63,97.0
10116,G#2,2967.8,0.25,63,97.0
10117,G#2,2968.05,0.25,63,97.0
10118,G#2,2968.3,0.25,84,97.0
10119,F#2,2968.3,0.25,84,97.0
10120,B1,2968.3,0.25,84,97.0
10121,G#2,2968.55,0.25,63,97.0
10122,G#2,2968.8,0.25,63,97.0
10123,F#2,2968.8,0.25,63,97.0
10124,G#2,2969.05,0.25,79,97.0
10125,F#2,2969.05,0.25,79,97.0
10126,B1,2969.05,0.25,79,97.0
10127,G#2,2969.3,0.25,84,97.0
10128,F#2,2969.3,0.25,84,97.0
10129,D2,2969.3,0.25,84,97.0
10130,G#2,2969.55,0.25,63,97.0
10131,C#5,2969.55,0.25,63,97.0
10132,G#2,2969.8,0.25,63,97.0
10133,F#2,2969.8,0.25,63,97.0
10134,G#2,2970.05,0.25,79,97.0
10135,F#2,2970.05,0.25,79,97.0
10136,B1,2970.05,0.25,79,97.0
10137,G#2,2970.3,0.25,84,97.0
10138,F#2,2970.3,0.25,84,97.0
10139,B1,2970.3,0.25,84,97.0
10140,G#2,2970.55,3/20,63,97.0
10141,G#2,2970.7,1/10,63,97.0
10142,G#2,2970.8,0.25,63,97.0
10143,F#2,2970.8,0.25,63,97.0
10144,G#2,2971.05,0.25,79,97.0
10145,F#2,2971.05,0.25,79,97.0
10146,B1,2971.05,0.25,79,97.0
10147,G#2,2971.3,0.25,84,97.0
10148,F#2,2971.3,0.25,84,97.0
10149,D2,2971.3,0.25,84,97.0
10150,G#2,2971.55,0.25,63,97.0
10151,G#2,2971.8,0.25,63,97.0
10152,F#2,2971.8,0.25,63,97.0
10153,C#5,2971.8,0.25,63,97.0
10154,G#2,2972.05,0.25,68,97.0
10155,F#2,2972.05,0.25,68,97.0
10156,C#5,2972.05,0.25,68,97.0
10157,G#2,2972.3,0.25,84,97.0
10158,F#2,2972.3,0.25,84,97.0
10159,B1,2972.3,0.25,84,97.0
10160,G#2,2972.55,0.25,63,97.0
10161,G#2,2972.8,0.25,63,97.0
10162,F#2,2972.8,0.25,63,97.0
10163,G#2,2973.05,0.25,79,97.0
10164,F#2,2973.05,0.25,79,97.0
10165,B1,2973.05,0.25,79,97.0
10166,G#2,2973.3,0.25,84,97.0
10167,F#2,2973.3,0.25,84,97.0
10168,D2,2973.3,0.25,84,97.0
10169,G#2,2973.55,0.25,63,97.0
10170,C#5,2973.55,0.25,63,97.0
10171,G#2,2973.8,0.25,63,97.0
10172,F#2,2973.8,0.25,63,97.0
10173,G#2,2974.05,0.25,79,97.0
10174,F#2,2974.05,0.25,79,97.0
10175,B1,2974.05,0.25,79,97.0
10176,G#2,2974.3,0.25,84,97.0
10177,F#2,2974.3,0.25,84,97.0
10178,B1,2974.3,0.25,84,97.0
10179,G#2,2974.55,3/20,63,97.0
10180,G#2,2974.7,1/10,63,97.0
10181,G#2,2974.8,0.25,63,97.0
10182,F#2,2974.8,0.25,63,97.0
10183,G#2,2975.05,0.25,79,97.0
10184,F#2,2975.05,0.25,79,97.0
10185,B1,2975.05,0.25,79,97.0
10186,G#2,2975.3,0.25,84,97.0
10187,F#2,2975.3,0.25,84,97.0
10188,D2,2975.3,0.25,84,97.0
10189,G#2,2975.55,0.25,63,97.0
10190,G#2,2975.8,0.25,63,97.0
10191,F#2,2975.8,0.25,63,97.0
10192,C#5,2975.8,0.25,63,97.0
10193,G#2,2976.05,0.25,68,97.0
10194,F#2,2976.05,0.25,68,97.0
10195,C#5,2976.05,0.25,68,97.0
10196,G#2,2976.3,0.25,84,97.0
10197,F#2,2976.3,0.25,84,97.0
10198,B1,2976.3,0.25,84,97.0
10199,G#2,2976.55,0.25,63,97.0
10200,G#2,2976.8,0.25,63,97.0
10201,F#2,2976.8,0.25,63,97.0
10202,G#2,2977.05,0.25,79,97.0
10203,F#2,2977.05,0.25,79,97.0
10204,B1,2977.05,0.25,79,97.0
10205,G#2,2977.3,0.25,84,97.0
10206,F#2,2977.3,0.25,84,97.0
10207,D2,2977.3,0.25,84,97.0
10208,G#2,2977.55,0.25,63,97.0
10209,C#5,2977.55,0.25,63,97.0
10210,G#2,2977.8,0.25,63,97.0
10211,F#2,2977.8,0.25,63,97.0
10212,G#2,2978.05,0.25,79,97.0
10213,F#2,2978.05,0.25,79,97.0
10214,B1,2978.05,0.25,79,97.0
10215,G#2,2978.3,0.25,84,97.0
10216,F#2,2978.3,0.25,84,97.0
10217,B1,2978.3,0.25,84,97.0
10218,G#2,2978.55,3/20,63,97.0
10219,G#2,2978.7,1/10,63,97.0
10220,G#2,2978.8,0.25,63,97.0
10221,F#2,2978.8,0.25,63,97.0
10222,G#2,2979.05,0.25,79,97.0
10223,F#2,2979.05,0.25,79,97.0
10224,B1,2979.05,0.25,79,97.0
10225,G#2,2979.3,0.25,84,97.0
10226,F#2,2979.3,0.25,84,97.0
10227,D2,2979.3,0.25,84,97.0
10228,G#2,2979.55,0.25,63,97.0
10229,G#2,2979.8,0.25,63,97.0
10230,F#2,2979.8,0.25,63,97.0
10231,C#5,2979.8,0.25,63,97.0
10232,G#2,2980.05,0.25,68,97.0
10233,F#2,2980.05,0.25,68,97.0
10234,C#5,2980.05,0.25,68,97.0
10235,G#2,2980.3,0.25,84,97.0
10236,F#2,2980.3,0.25,84,97.0
10237,B1,2980.3,0.25,84,97.0
10238,G#2,2980.55,0.25,63,97.0
10239,G#2,2980.8,0.25,63,97.0
10240,F#2,2980.8,0.25,63,97.0
10241,G#2,2981.05,0.25,79,97.0
10242,F#2,2981.05,0.25,79,97.0
10243,B1,2981.05,0.25,79,97.0
10244,G#2,2981.3,0.25,84,97.0
10245,F#2,2981.3,0.25,84,97.0
10246,D2,2981.3,0.25,84,97.0
10247,G#2,2981.55,0.25,63,97.0
10248,C#5,2981.55,0.25,63,97.0
10249,G#2,2981.8,0.25,63,97.0
10250,F#2,2981.8,0.25,63,97.0
10251,G#2,2982.05,0.25,79,97.0
10252,F#2,2982.05,0.25,79,97.0
10253,B1,2982.05,0.25,79,97.0
10254,G#2,2982.3,0.25,84,97.0
10255,F#2,2982.3,0.25,84,97.0
10256,B1,2982.3,0.25,84,97.0
10257,G#2,2982.55,3/20,63,97.0
10258,G#2,2982.7,1/10,63,97.0
10259,G#2,2982.8,0.25,63,97.0
10260,F#2,2982.8,0.25,63,97.0
10261,G#2,2983.05,0.25,79,97.0
10262,F#2,2983.05,0.25,79,97.0
10263,B1,2983.05,0.25,79,97.0
10264,G#2,2983.3,0.25,84,97.0
10265,F#2,2983.3,0.25,84,97.0
10266,D2,2983.3,0.25,84,97.0
10267,G#2,2983.55,0.25,63,97.0
10268,G#2,2983.8,0.25,63,97.0
10269,F#2,2983.8,0.25,63,97.0
10270,C#5,2983.8,0.25,63,97.0
10271,G#2,2984.05,0.25,68,97.0
10272,F#2,2984.05,0.25,68,97.0
10273,C#5,2984.05,0.25,68,97.0
10274,G#2,2984.3,0.25,84,97.0
10275,F#2,2984.3,0.25,84,97.0
10276,B1,2984.3,0.25,84,97.0
10277,G#2,2984.55,0.25,63,97.0
10278,G#2,2984.8,0.25,63,97.0
10279,F#2,2984.8,0.25,63,97.0
10280,G#2,2985.05,0.25,79,97.0
10281,F#2,2985.05,0.25,79,97.0
10282,B1,2985.05,0.25,79,97.0
10283,G#2,2985.3,0.25,84,97.0
10284,F#2,2985.3,0.25,84,97.0
10285,D2,2985.3,0.25,84,97.0
10286,G#2,2985.55,0.25,63,97.0
10287,C#5,2985.55,0.25,63,97.0
10288,G#2,2985.8,0.25,63,97.0
10289,F#2,2985.8,0.25,63,97.0
10290,G#2,2986.05,0.25,79,97.0
10291,F#2,2986.05,0.25,79,97.0
10292,B1,2986.05,0.25,79,97.0
10293,G#2,2986.3,0.25,84,97.0
10294,F#2,2986.3,0.25,84,97.0
10295,B1,2986.3,0.25,84,97.0
10296,G#2,2986.55,3/20,63,97.0
10297,G#2,2986.7,1/10,63,97.0
10298,G#2,2986.8,0.25,63,97.0
10299,F#2,2986.8,0.25,63,97.0
10300,G#2,2987.05,0.25,79,97.0
10301,F#2,2987.05,0.25,79,97.0
10302,B1,2987.05,0.25,79,97.0
10303,G#2,2987.3,0.25,84,97.0
10304,F#2,2987.3,0.25,84,97.0
10305,D2,2987.3,0.25,84,97.0
10306,G#2,2987.55,0.25,63,97.0
10307,G#2,2987.8,0.25,63,97.0
10308,F#2,2987.8,0.25,63,97.0
10309,C#5,2987.8,0.25,63,97.0
10310,G#2,2988.05,0.25,68,97.0
10311,F#2,2988.05,0.25,68,97.0
10312,C#5,2988.05,0.25,68,97.0
10313,G#2,2988.3,0.25,87,97.0
10314,F#2,2988.3,0.25,87,97.0
10315,B1,2988.3,0.25,87,97.0
10316,A3,2988.3,0.25,87,97.0
10317,G#2,2988.55,0.25,63,97.0
10318,G#2,2988.8,0.25,63,97.0
10319,F#2,2988.8,0.25,63,97.0
10320,G#2,2989.05,0.25,83,97.0
10321,F#2,2989.05,0.25,83,97.0
10322,B1,2989.05,0.25,83,97.0
10323,C#3,2989.05,0.25,83,97.0
10324,G#2,2989.3,0.25,79,97.0
10325,F#2,2989.3,0.25,79,97.0
10326,G#2,2989.55,0.25,63,97.0
10327,D2,2989.55,0.25,63,97.0
10328,G#2,2989.8,0.25,63,97.0
10329,F#2,2989.8,0.25,63,97.0
10330,G#2,2990.05,0.25,83,97.0
10331,F#2,2990.05,0.25,83,97.0
10332,B1,2990.05,0.25,83,97.0
10333,A3,2990.05,0.25,83,97.0
10334,G#2,2990.3,0.25,79,97.0
10335,F#2,2990.3,0.25,79,97.0
10336,G#2,2990.55,3/20,63,97.0
10337,G#2,2990.7,1/10,63,97.0
10338,G#2,2990.8,0.25,63,97.0
10339,F#2,2990.8,0.25,63,97.0
10340,G#2,2991.05,0.25,79,97.0
10341,F#2,2991.05,0.25,79,97.0
10342,B1,2991.05,0.25,79,97.0
10343,G#2,2991.3,0.25,87,97.0
10344,F#2,2991.3,0.25,87,97.0
10345,D2,2991.3,0.25,87,97.0
10346,A3,2991.3,0.25,87,97.0
10347,G#2,2991.55,0.25,63,97.0
10348,G#2,2991.8,0.25,63,97.0
10349,F#2,2991.8,0.25,63,97.0
10350,C#5,2991.8,0.25,63,97.0
10351,G#2,2992.05,0.25,68,97.0
10352,F#2,2992.05,0.25,68,97.0
10353,C#5,2992.05,0.25,68,97.0
10354,G#2,2992.3,0.25,84,97.0
10355,F#2,2992.3,0.25,84,97.0
10356,B1,2992.3,0.25,84,97.0
10357,G#2,2992.55,0.25,63,97.0
10358,G#2,2992.8,0.25,63,97.0
10359,F#2,2992.8,0.25,63,97.0
10360,G#2,2993.05,0.25,79,97.0
10361,F#2,2993.05,0.25,79,97.0
10362,B1,2993.05,0.25,79,97.0
10363,G#2,2993.3,0.25,84,97.0
10364,F#2,2993.3,0.25,84,97.0
10365,D2,2993.3,0.25,84,97.0
10366,G#2,2993.55,0.25,63,97.0
10367,C#5,2993.55,0.25,63,97.0
10368,G#2,2993.8,0.25,63,97.0
10369,F#2,2993.8,0.25,63,97.0
10370,G#2,2994.05,0.25,79,97.0
10371,F#2,2994.05,0.25,79,97.0
10372,B1,2994.05,0.25,79,97.0
10373,G#2,2994.3,0.25,84,97.0
10374,F#2,2994.3,0.25,84,97.0
10375,B1,2994.3,0.25,84,97.0
10376,G#2,2994.55,3/20,63,97.0
10377,G#2,2994.7,1/10,63,97.0
10378,G#2,2994.8,0.25,63,97.0
10379,F#2,2994.8,0.25,63,97.0
10380,G#2,2995.05,0.25,79,97.0
10381,F#2,2995.05,0.25,79,97.0
10382,B1,2995.05,0.25,79,97.0
10383,G#2,2995.3,0.25,84,97.0
10384,F#2,2995.3,0.25,84,97.0
10385,D2,2995.3,0.25,84,97.0
10386,G#2,2995.55,0.25,63,97.0
10387,G#2,2995.8,0.25,63,97.0
10388,F#2,2995.8,0.25,63,97.0
10389,C#5,2995.8,0.25,63,97.0
10390,G#2,2996.05,0.25,68,97.0
10391,F#2,2996.05,0.25,68,97.0
10392,C#5,2996.05,0.25,68,97.0
10393,E-3,2996.3,0.75,79,97.0
10394,F#3,2996.3,0.75,79,97.0
10395,E-3,2997.05,33/20,63,97.0
10396,F#3,2997.05,33/20,95,97.0
10397,E-3,2998.7,8/5,63,97.0
10398,F#3,2998.7,27/20,95,97.0
10399,E-3,3001.8,0.25,63,97.0
10400,E-3,3002.05,0.25,47,97.0
10401,E-3,3002.3,2/5,47,97.0
10402,E-3,3002.7,8/5,47,97.0
10403,F3,3004.3,0.75,63,97.0
10404,F3,3005.05,1.25,63,97.0
10405,E-3,3006.3,2/5,63,97.0
10406,E-3,3006.7,7/20,63,97.0
10407,E-3,3007.05,0.25,63,97.0
10408,E-3,3007.3,0.5,63,97.0
10409,E-3,3007.8,0.25,63,97.0
10410,E-3,3008.05,0.25,63,97.0
10411,F3,3008.3,1.0,63,97.0
10412,G#2,3009.3,0.25,31,97.0
10413,G#2,3009.55,0.25,47,97.0
10414,G#2,3009.8,0.25,63,97.0
10415,G#2,3010.05,0.25,63,97.0
10416,F3,3010.3,2/5,63,97.0
10417,F3,3010.7,7/20,63,97.0
10418,G#2,3011.05,0.25,63,97.0
10419,G#2,3011.3,0.5,63,97.0
10420,G#2,3011.8,0.25,63,97.0
10421,G#2,3012.05,0.25,63,97.0
10422,E3,3012.3,2.0,63,97.0
10423,E-3,3014.3,2/5,63,97.0
10424,E-3,3014.7,1/10,63,97.0
10425,E3,3014.8,0.25,31,97.0
10426,E3,3015.05,0.25,47,97.0
10427,E3,3015.3,0.25,63,97.0
10428,E3,3015.55,0.25,79,97.0
10429,E3,3015.8,0.25,95,97.0
10430,E3,3016.05,0.25,95,97.0
10431,E3,3016.3,0.75,84,97.0
10432,C2,3016.3,0.75,84,97.0
10433,C#3,3016.3,0.75,84,97.0
10434,C2,3017.05,1.25,95,97.0
10435,C#3,3017.05,1.0,63,97.0
10436,C2,3018.3,2/5,87,97.0
10437,A3,3018.3,2/5,87,97.0
10438,C2,3018.7,7/20,87,97.0
10439,A3,3018.7,7/20,87,97.0
10440,C2,3019.05,0.75,87,97.0
10441,A3,3019.05,0.75,87,97.0
10442,C2,3019.8,29/10,87,97.0
10443,C#3,3019.8,29/10,87,97.0
10444,C2,3022.7,8/5,87,97.0
10445,C#3,3022.7,8/5,87,97.0
10446,F#6,3024.3,12/5,95,97.0
10447,F#6,3026.7,8/5,95,97.0
