,note_name,start_time,duration,velocity,tempo
0,G1,6.0,229/500,120,97.0
1,G4,6.0,229/500,100,97.0
2,G4,6.025,229/500,100,97.0
3,A1,6.5,229/500,120,97.0
4,A4,6.5,229/500,100,97.0
5,A4,6.525,229/500,100,97.0
6,C2,7.0,229/500,120,97.0
7,C5,7.0,229/500,100,97.0
8,C5,7.025,229/500,100,97.0
9,E2,7.5,229/500,120,97.0
10,E5,7.5,229/500,100,97.0
11,E5,7.525,229/500,100,97.0
12,D2,8.0,3.0,120,97.0
13,D5,8.0,4.0,100,97.0
14,C2,8.0,1.0,120,97.0
15,F3,8.0,1.0,100,97.0
16,A3,8.0,4.0,100,97.0
17,D4,8.0,4.0,100,97.0
18,F4,8.0,4.0,100,97.0
19,D5,8.025,159/40,100,97.0
20,C#2,9.0,1.0,120,97.0
21,F#2,9.0,1.0,100,97.0
22,A3,9.0,667/1000,100,97.0
23,F4,9.0,667/1000,100,97.0
24,C4,9.0,667/1000,100,97.0
25,F#2,9.5,1.0,100,97.0
26,A3,9.75,167/1000,100,97.0
27,F4,9.75,167/1000,100,97.0
28,C4,9.75,167/1000,100,97.0
29,C2,10.0,1.0,120,97.0
30,C2,10.5,1.0,120,97.0
31,A3,10.5,1.5,100,97.0
32,F4,10.5,1.5,100,97.0
33,C4,10.5,1.5,100,97.0
34,C#2,11.0,1.0,120,97.0
35,F#2,11.0,1.0,100,97.0
36,A1,11.5,24/125,120,97.0
37,F#2,11.5,0.5,100,97.0
38,C2,11.75,24/125,120,97.0
39,C2,11.75,0.25,120,97.0
40,D2,12.0,2.0,120,97.0
41,D5,12.0,1.0,100,97.0
42,C2,12.0,1.0,120,97.0
43,C2,12.0,0.75,120,97.0
44,F#2,12.0,1.0,100,97.0
45,F#2,12.0,0.5,100,97.0
46,F#2,12.5,1.0,100,97.0
47,C#2,13.0,1.0,120,97.0
48,F#2,13.0,1.0,100,97.0
49,A3,13.0,667/1000,100,97.0
50,F4,13.0,667/1000,100,97.0
51,C4,13.0,667/1000,100,97.0
52,F#2,13.5,1.0,100,97.0
53,A3,13.75,167/1000,100,97.0
54,F4,13.75,167/1000,100,97.0
55,C4,13.75,167/1000,100,97.0
56,G1,14.0,229/500,120,97.0
57,G4,14.0,229/500,100,97.0
58,C2,14.0,1.0,120,97.0
59,F#2,14.0,1.0,100,97.0
60,A1,14.5,229/500,120,97.0
61,A4,14.5,229/500,100,97.0
62,C2,14.5,1.0,120,97.0
63,F#2,14.5,1.0,100,97.0
64,A3,14.5,1.5,100,97.0
65,F4,14.5,1.5,100,97.0
66,C4,14.5,1.5,100,97.0
67,C2,15.0,229/500,120,97.0
68,C5,15.0,229/500,100,97.0
69,D5,15.0,41/40,100,97.0
70,C#2,15.0,1.0,120,97.0
71,F#2,15.0,1.0,100,97.0
72,A3,15.0,3.0,100,97.0
73,D4,15.0,3.0,100,97.0
74,F4,15.0,3.0,100,97.0
75,G2,15.5,229/500,120,97.0
76,G5,15.5,229/500,100,97.0
77,F#2,15.5,0.5,100,97.0
78,C2,15.75,0.25,120,97.0
79,C2,16.0,3.0,120,97.0
80,E5,16.0,2.5,100,97.0
81,C2,16.0,1.0,120,97.0
82,C2,16.0,0.75,120,97.0
83,F#2,16.0,1.0,100,97.0
84,F#2,16.0,0.5,100,97.0
85,F#2,16.5,1.0,100,97.0
86,C#2,17.0,1.0,120,97.0
87,F#2,17.0,1.0,100,97.0
88,G4,17.0,667/1000,100,97.0
89,E4,17.0,667/1000,100,97.0
90,B3,17.0,667/1000,100,97.0
91,G4,17.025,229/500,100,97.0
92,F#2,17.5,1.0,100,97.0
93,A4,17.525,229/500,100,97.0
94,C2,17.75,1.0,120,97.0
95,G4,17.75,167/1000,100,97.0
96,E4,17.75,167/1000,100,97.0
97,B3,17.75,167/1000,100,97.0
98,C2,18.0,1.0,120,97.0
99,F#2,18.0,1.0,100,97.0
100,C5,18.025,229/500,100,97.0
101,E5,18.5,0.5,100,97.0
102,C2,18.5,1.0,120,97.0
103,F#2,18.5,1.0,100,97.0
104,B3,18.5,1.0,100,97.0
105,E4,18.5,1.0,100,97.0
106,G4,18.5,1.0,100,97.0
107,G5,18.525,229/500,100,97.0
108,G5,19.0,0.5,100,97.0
109,C#2,19.0,1.0,120,97.0
110,F#2,19.0,1.0,100,97.0
111,G3,19.0,3.5,100,97.0
112,G4,19.0,3.5,100,97.0
113,B3,19.0,3.5,100,97.0
114,E4,19.0,3.5,100,97.0
115,E5,19.025,2.5,100,97.0
116,A1,19.5,0.5,120,97.0
117,A5,19.5,0.5,100,97.0
118,C2,19.5,0.5,120,97.0
119,B-2,19.5,0.5,100,97.0
120,E4,19.5,0.5,100,97.0
121,C#4,19.5,0.5,100,97.0
122,A4,19.5,0.5,100,97.0
123,A1,20.0,1.5,120,97.0
124,A5,20.0,3.5,100,97.0
125,C2,20.0,0.5,120,97.0
126,B-2,20.0,0.5,100,97.0
127,E4,20.0,1.5,100,97.0
128,C#4,20.0,1.5,100,97.0
129,A4,20.0,1.5,100,97.0
130,C2,20.5,1.0,120,97.0
131,F#2,20.5,1.0,100,97.0
132,C#2,21.0,1.0,120,97.0
133,F#2,21.0,1.0,100,97.0
134,F#2,21.5,1.0,100,97.0
135,E5,21.525,0.5,100,97.0
136,C#2,21.75,1.0,120,97.0
137,C2,21.75,1.0,120,97.0
138,A1,22.0,0.75,120,97.0
139,F#2,22.0,1.0,100,97.0
140,E4,22.0,667/1000,100,97.0
141,A4,22.0,667/1000,100,97.0
142,C#2,22.0,1.0,120,97.0
143,C2,22.0,1.0,120,97.0
144,G5,22.025,0.5,100,97.0
145,C#2,22.25,1.0,120,97.0
146,F#2,22.5,1.0,100,97.0
147,A3,22.5,0.5,100,97.0
148,C#4,22.5,0.5,100,97.0
149,E4,22.5,0.5,100,97.0
150,A5,22.525,19/40,100,97.0
151,A1,22.75,229/500,120,97.0
152,C#2,22.75,1.0,120,97.0
153,E4,22.75,417/1000,100,97.0
154,A4,22.75,417/1000,100,97.0
155,C#2,23.0,1.0,120,97.0
156,F#2,23.0,1.0,100,97.0
157,A1,23.25,26/125,120,97.0
158,E4,23.25,26/125,100,97.0
159,A4,23.25,26/125,100,97.0
160,G1,23.5,229/500,120,97.0
161,B3,23.5,51/125,100,97.0
162,C2,23.5,0.5,120,97.0
163,F#2,23.5,0.5,100,97.0
164,D4,23.5,333/1000,100,97.0
165,G4,23.5,333/1000,100,97.0
166,C2,23.75,0.25,120,97.0
167,F1,24.0,1.5,120,97.0
168,F3,24.0,229/500,100,97.0
169,E4,24.0,229/500,125,97.0
170,A3,24.0,229/500,100,97.0
171,C2,24.0,1.0,120,97.0
172,C2,24.0,0.75,120,97.0
173,C2,24.0,0.5,120,97.0
174,B-2,24.0,1.0,100,97.0
175,F#2,24.0,0.5,100,97.0
176,D4,24.0,1.0,100,97.0
177,F3,24.0,2.0,100,97.0
178,A4,24.0,2.0,100,97.0
179,C4,24.0,2.0,100,97.0
180,E4,24.0,2.0,100,97.0
181,F3,24.5,229/500,100,97.0
182,E4,24.5,229/500,125,97.0
183,A3,24.5,229/500,100,97.0
184,F#2,24.5,1.0,100,97.0
185,F3,25.0,26/125,100,97.0
186,E4,25.0,26/125,125,97.0
187,A3,25.0,26/125,100,97.0
188,C#2,25.0,1.0,120,97.0
189,F#2,25.0,1.0,100,97.0
190,D4,25.0,1.0,100,97.0
191,F3,25.25,26/125,100,97.0
192,E4,25.25,26/125,125,97.0
193,A3,25.25,26/125,100,97.0
194,F3,25.5,26/125,100,97.0
195,E4,25.5,26/125,125,97.0
196,A3,25.5,26/125,100,97.0
197,F#2,25.5,1.0,100,97.0
198,D4,25.5,1.0,100,97.0
199,F1,25.75,167/1000,120,97.0
200,F3,25.75,26/125,100,97.0
201,E4,25.75,26/125,125,97.0
202,A3,25.75,26/125,100,97.0
203,C2,25.75,1.0,120,97.0
204,D4,25.75,1.0,100,97.0
205,E2,26.0,667/1000,120,97.0
206,A5,26.0,141/40,100,97.0
207,E3,26.0,26/125,100,97.0
208,D4,26.0,26/125,125,97.0
209,G3,26.0,26/125,100,97.0
210,D4,26.0,1.0,100,97.0
211,A3,26.0,3.0,100,97.0
212,C#4,26.0,3.0,100,97.0
213,E4,26.0,3.0,100,97.0
214,D4,26.0,667/1000,100,97.0
215,B3,26.0,667/1000,100,97.0
216,G4,26.0,667/1000,100,97.0
217,E3,26.0,667/1000,100,97.0
218,F#2,26.0,1.0,110,97.0
219,C2,26.0,1.0,110,97.0
220,E3,26.25,229/500,100,97.0
221,D4,26.25,229/500,125,97.0
222,G3,26.25,229/500,100,97.0
223,D4,26.5,1.0,100,97.0
224,F#2,26.5,1.0,110,97.0
225,C2,26.5,1.0,110,97.0
226,D2,26.75,229/500,120,97.0
227,D3,26.75,583/1000,100,97.0
228,C4,26.75,583/1000,125,97.0
229,F3,26.75,583/1000,100,97.0
230,A3,26.75,0.5,100,97.0
231,F4,26.75,0.5,100,97.0
232,C4,26.75,0.5,100,97.0
233,C#2,27.0,1.0,120,97.0
234,F#2,27.0,1.0,100,97.0
235,C#4,27.0,1.0,100,97.0
236,D2,27.5,0.5,120,97.0
237,C#4,27.5,0.5,100,97.0
238,F4,27.5,0.5,100,97.0
239,A3,27.5,0.5,100,97.0
240,C4,27.5,0.5,100,97.0
241,C2,27.5,0.5,110,97.0
242,B-2,27.5,0.5,110,97.0
243,C5,27.5,0.5,100,97.0
244,G4,27.5,0.5,100,97.0
245,D2,28.0,1.5,120,97.0
246,F#2,28.0,1.0,100,97.0
247,D4,28.0,1.0,100,97.0
248,C#4,28.0,0.5,100,97.0
249,F4,28.0,3.5,100,97.0
250,A3,28.0,3.5,100,97.0
251,C4,28.0,3.5,100,97.0
252,C2,28.0,0.5,110,97.0
253,B-2,28.0,0.5,110,97.0
254,C5,28.0,1.5,100,97.0
255,G4,28.0,1.5,100,97.0
256,F#2,28.5,1.0,100,97.0
257,C#2,29.0,1.0,120,97.0
258,F#2,29.0,1.0,100,97.0
259,D4,29.0,1.0,100,97.0
260,F#2,29.5,1.0,100,97.0
261,D4,29.5,1.0,100,97.0
262,A1,29.75,26/125,120,97.0
263,C2,29.75,1.0,120,97.0
264,D4,29.75,1.0,100,97.0
265,D2,30.0,229/500,120,97.0
266,D4,30.0,1.0,100,97.0
267,C5,30.0,21/500,100,97.0
268,F#2,30.0,1.0,110,97.0
269,C2,30.0,1.0,110,97.0
270,D4,30.25,1.0,100,97.0
271,C5,30.25,21/500,100,97.0
272,C2,30.5,229/500,120,97.0
273,D4,30.5,1.0,100,97.0
274,F#2,30.5,1.0,110,97.0
275,C2,30.5,1.0,110,97.0
276,D4,30.75,1.0,100,97.0
277,F4,30.75,667/1000,100,97.0
278,A1,31.0,229/500,120,97.0
279,F#2,31.0,1.0,100,97.0
280,C#4,31.0,1.0,100,97.0
281,C2,31.0,1.0,120,97.0
282,C#2,31.0,1.0,120,97.0
283,C2,31.25,0.75,120,97.0
284,C2,31.5,167/1000,120,97.0
285,F#2,31.5,0.5,100,97.0
286,C#4,31.5,0.5,100,97.0
287,C2,31.75,167/1000,120,97.0
288,C2,31.75,0.25,120,97.0
289,C#4,31.75,0.25,100,97.0
290,F2,32.0,1.5,120,97.0
291,F3,32.0,229/500,100,97.0
292,E4,32.0,229/500,125,97.0
293,A3,32.0,229/500,100,97.0
294,C2,32.0,1.0,120,97.0
295,C2,32.0,0.25,120,97.0
296,B-2,32.0,1.0,100,97.0
297,F#2,32.0,0.5,100,97.0
298,C2,32.0,0.75,120,97.0
299,D4,32.0,1.0,100,97.0
300,C#4,32.0,0.5,100,97.0
301,C#4,32.0,0.75,100,97.0
302,F3,32.0,2.0,100,97.0
303,A4,32.0,2.0,100,97.0
304,C4,32.0,2.0,100,97.0
305,E4,32.0,2.0,100,97.0
306,F3,32.5,229/500,100,97.0
307,E4,32.5,229/500,125,97.0
308,A3,32.5,229/500,100,97.0
309,F#2,32.5,1.0,100,97.0
310,F3,33.0,26/125,100,97.0
311,E4,33.0,26/125,125,97.0
312,A3,33.0,26/125,100,97.0
313,C#2,33.0,1.0,120,97.0
314,F#2,33.0,1.0,100,97.0
315,D4,33.0,1.0,100,97.0
316,F3,33.25,26/125,100,97.0
317,E4,33.25,26/125,125,97.0
318,A3,33.25,26/125,100,97.0
319,F3,33.5,26/125,100,97.0
320,E4,33.5,26/125,125,97.0
321,A3,33.5,26/125,100,97.0
322,F#2,33.5,1.0,100,97.0
323,D4,33.5,1.0,100,97.0
324,F2,33.75,167/1000,120,97.0
325,F3,33.75,26/125,100,97.0
326,E4,33.75,26/125,125,97.0
327,A3,33.75,26/125,100,97.0
328,C2,33.75,1.0,120,97.0
329,D4,33.75,1.0,100,97.0
330,E2,34.0,667/1000,120,97.0
331,E3,34.0,26/125,100,97.0
332,D4,34.0,26/125,125,97.0
333,G3,34.0,26/125,100,97.0
334,D4,34.0,1.0,100,97.0
335,D4,34.0,667/1000,100,97.0
336,B3,34.0,667/1000,100,97.0
337,G4,34.0,667/1000,100,97.0
338,E3,34.0,667/1000,100,97.0
339,F#2,34.0,1.0,110,97.0
340,C2,34.0,1.0,110,97.0
341,E3,34.25,229/500,100,97.0
342,D4,34.25,229/500,125,97.0
343,G3,34.25,229/500,100,97.0
344,D4,34.5,1.0,100,97.0
345,F#2,34.5,1.0,110,97.0
346,C2,34.5,1.0,110,97.0
347,D2,34.75,229/500,120,97.0
348,D3,34.75,583/1000,100,97.0
349,C4,34.75,583/1000,125,97.0
350,F3,34.75,583/1000,100,97.0
351,A3,34.75,0.5,100,97.0
352,F4,34.75,0.5,100,97.0
353,C4,34.75,0.5,100,97.0
354,C#2,35.0,1.0,120,97.0
355,F#2,35.0,1.0,100,97.0
356,C#4,35.0,1.0,100,97.0
357,B-4,35.25,0.75,100,97.0
358,D5,35.25,0.75,100,97.0
359,D2,35.5,0.5,120,97.0
360,C#4,35.5,0.5,100,97.0
361,F4,35.5,0.5,100,97.0
362,A3,35.5,0.5,100,97.0
363,C4,35.5,0.5,100,97.0
364,C2,35.5,0.5,110,97.0
365,B-2,35.5,0.5,110,97.0
366,D2,36.0,1.5,120,97.0
367,F#2,36.0,1.0,100,97.0
368,D4,36.0,1.0,100,97.0
369,C#4,36.0,0.5,100,97.0
370,F4,36.0,3.5,100,97.0
371,A3,36.0,3.5,100,97.0
372,C4,36.0,3.5,100,97.0
373,C2,36.0,0.5,110,97.0
374,B-2,36.0,0.5,110,97.0
375,B-4,36.0,0.25,100,97.0
376,D5,36.0,0.25,100,97.0
377,F#2,36.5,1.0,100,97.0
378,G5,36.5,417/1000,100,97.0
379,C#2,37.0,1.0,120,97.0
380,F#2,37.0,1.0,100,97.0
381,D4,37.0,1.0,100,97.0
382,E5,37.0,0.25,100,97.0
383,D5,37.25,0.25,100,97.0
384,F#2,37.5,1.0,100,97.0
385,D4,37.5,1.0,100,97.0
386,A4,37.5,0.25,100,97.0
387,D2,37.75,167/1000,120,97.0
388,C2,37.75,1.0,120,97.0
389,D4,37.75,1.0,100,97.0
390,D2,38.0,167/1000,120,97.0
391,D4,38.0,1.0,100,97.0
392,D5,38.0,0.25,100,97.0
393,F#2,38.0,1.0,110,97.0
394,C2,38.0,1.0,110,97.0
395,D2,38.25,229/500,120,97.0
396,D4,38.25,1.0,100,97.0
397,D4,38.5,1.0,100,97.0
398,C5,38.5,1.0,100,97.0
399,F#2,38.5,1.0,110,97.0
400,C2,38.5,1.0,110,97.0
401,C2,38.75,229/500,120,97.0
402,D4,38.75,1.0,100,97.0
403,F#2,39.0,1.0,100,97.0
404,C#4,39.0,1.0,100,97.0
405,A4,39.0,1.0,100,97.0
406,C2,39.0,1.0,120,97.0
407,C#2,39.0,1.0,120,97.0
408,C2,39.25,167/1000,120,97.0
409,C2,39.25,0.75,120,97.0
410,A1,39.5,229/500,120,97.0
411,F#2,39.5,0.5,100,97.0
412,C#4,39.5,0.5,100,97.0
413,C2,39.75,0.25,120,97.0
414,C#4,39.75,0.25,100,97.0
415,F1,40.0,1.5,120,97.0
416,F3,40.0,229/500,100,97.0
417,E4,40.0,229/500,125,97.0
418,A3,40.0,229/500,100,97.0
419,C2,40.0,1.0,120,97.0
420,C2,40.0,0.25,120,97.0
421,B-2,40.0,1.0,100,97.0
422,F#2,40.0,0.5,100,97.0
423,C2,40.0,0.75,120,97.0
424,D4,40.0,1.0,100,97.0
425,C#4,40.0,0.5,100,97.0
426,C#4,40.0,0.75,100,97.0
427,F3,40.0,2.0,100,97.0
428,A4,40.0,2.0,100,97.0
429,C4,40.0,2.0,100,97.0
430,E4,40.0,2.0,100,97.0
431,F3,40.5,229/500,100,97.0
432,E4,40.5,229/500,125,97.0
433,A3,40.5,229/500,100,97.0
434,F#2,40.5,1.0,100,97.0
435,F3,41.0,26/125,100,97.0
436,E4,41.0,26/125,125,97.0
437,A3,41.0,26/125,100,97.0
438,C#2,41.0,1.0,120,97.0
439,F#2,41.0,1.0,100,97.0
440,D4,41.0,1.0,100,97.0
441,F3,41.25,26/125,100,97.0
442,E4,41.25,26/125,125,97.0
443,A3,41.25,26/125,100,97.0
444,F3,41.5,26/125,100,97.0
445,E4,41.5,26/125,125,97.0
446,A3,41.5,26/125,100,97.0
447,F#2,41.5,1.0,100,97.0
448,D4,41.5,1.0,100,97.0
449,F1,41.75,167/1000,120,97.0
450,F3,41.75,26/125,100,97.0
451,E4,41.75,26/125,125,97.0
452,A3,41.75,26/125,100,97.0
453,C2,41.75,1.0,120,97.0
454,D4,41.75,1.0,100,97.0
455,E2,42.0,667/1000,120,97.0
456,E3,42.0,26/125,100,97.0
457,D4,42.0,26/125,125,97.0
458,G3,42.0,26/125,100,97.0
459,D4,42.0,1.0,100,97.0
460,D4,42.0,667/1000,100,97.0
461,B3,42.0,667/1000,100,97.0
462,G4,42.0,667/1000,100,97.0
463,E3,42.0,667/1000,100,97.0
464,F#2,42.0,1.0,110,97.0
465,C2,42.0,1.0,110,97.0
466,E3,42.25,229/500,100,97.0
467,D4,42.25,229/500,125,97.0
468,G3,42.25,229/500,100,97.0
469,D4,42.5,1.0,100,97.0
470,F#2,42.5,1.0,110,97.0
471,C2,42.5,1.0,110,97.0
472,D2,42.75,229/500,120,97.0
473,D3,42.75,583/1000,100,97.0
474,C4,42.75,583/1000,125,97.0
475,F3,42.75,583/1000,100,97.0
476,A3,42.75,0.5,100,97.0
477,F4,42.75,0.5,100,97.0
478,C4,42.75,0.5,100,97.0
479,C#2,43.0,1.0,120,97.0
480,F#2,43.0,1.0,100,97.0
481,C#4,43.0,1.0,100,97.0
482,G1,43.5,0.5,120,97.0
483,C#4,43.5,0.5,100,97.0
484,G5,43.5,0.5,100,97.0
485,G3,43.5,0.5,100,97.0
486,F4,43.5,0.5,100,97.0
487,A3,43.5,0.5,100,97.0
488,C4,43.5,0.5,100,97.0
489,C2,43.5,0.5,110,97.0
490,B-2,43.5,0.5,110,97.0
491,G1,44.0,1.5,120,97.0
492,F#2,44.0,1.0,100,97.0
493,C#4,44.0,0.5,100,97.0
494,G5,44.0,1.0,100,97.0
495,G3,44.0,3.5,100,97.0
496,F4,44.0,3.5,100,97.0
497,A3,44.0,3.5,100,97.0
498,C4,44.0,3.5,100,97.0
499,C2,44.0,0.5,110,97.0
500,B-2,44.0,0.5,110,97.0
501,C2,44.5,1.0,110,97.0
502,F#2,44.5,1.0,110,97.0
503,C2,45.0,1.0,120,97.0
504,B-2,45.0,1.0,100,97.0
505,E5,45.0,0.25,100,97.0
506,G5,45.25,0.25,100,97.0
507,G1,45.5,229/500,120,97.0
508,E5,45.5,1.5,100,97.0
509,C2,45.5,1.0,110,97.0
510,B-2,45.5,1.0,110,97.0
511,G2,46.0,833/1000,120,97.0
512,G3,46.0,229/500,125,97.0
513,B-2,46.0,1.0,100,97.0
514,F#2,46.0,1.0,110,97.0
515,C2,46.0,1.0,110,97.0
516,A3,46.5,229/500,125,97.0
517,B-2,46.5,1.0,100,97.0
518,F#2,46.5,1.0,110,97.0
519,C2,46.5,1.0,110,97.0
520,G2,47.0,229/500,120,97.0
521,C4,47.0,229/500,125,97.0
522,E2,47.0,1.0,120,97.0
523,B-2,47.0,1.0,100,97.0
524,E2,47.25,0.75,120,97.0
525,G2,47.5,229/500,120,97.0
526,A3,47.5,229/500,125,97.0
527,E2,47.5,0.5,120,97.0
528,D2,48.0,1.5,120,97.0
529,D4,48.0,1.0,125,97.0
530,C2,48.0,1.0,120,97.0
531,E2,48.0,0.25,120,97.0
532,F#2,48.0,1.0,100,97.0
533,E2,48.0,0.5,120,97.0
534,D4,48.0,1.0,100,97.0
535,F4,48.0,667/1000,100,97.0
536,A3,48.0,667/1000,100,97.0
537,D4,48.0,667/1000,100,97.0
538,F#2,48.5,1.0,100,97.0
539,C#2,49.0,1.0,120,97.0
540,F#2,49.0,1.0,100,97.0
541,D4,49.0,1.0,100,97.0
542,F4,49.0,667/1000,100,97.0
543,A3,49.0,667/1000,100,97.0
544,D4,49.0,667/1000,100,97.0
545,D4,49.0,24/125,80,97.0
546,F4,49.0,24/125,80,97.0
547,A4,49.0,24/125,80,97.0
548,D4,49.5,0.25,125,97.0
549,F#2,49.5,1.0,100,97.0
550,D4,49.5,1.0,100,97.0
551,D2,49.75,0.125,120,97.0
552,C4,49.75,0.25,125,97.0
553,C2,49.75,1.0,120,97.0
554,D4,49.75,1.0,100,97.0
555,D2,50.0,229/500,120,97.0
556,D4,50.0,833/1000,125,97.0
557,C2,50.0,1.0,120,97.0
558,F#2,50.0,1.0,100,97.0
559,D4,50.0,1.0,100,97.0
560,F4,50.0,667/1000,100,97.0
561,A3,50.0,667/1000,100,97.0
562,D4,50.0,667/1000,100,97.0
563,D2,50.5,667/1000,120,97.0
564,C2,50.5,1.0,120,97.0
565,F#2,50.5,1.0,100,97.0
566,D4,50.5,1.0,100,97.0
567,E4,51.0,0.5,125,97.0
568,C#2,51.0,1.0,120,97.0
569,F#2,51.0,1.0,100,97.0
570,C#4,51.0,1.0,100,97.0
571,F4,51.0,667/1000,100,97.0
572,A3,51.0,667/1000,100,97.0
573,D4,51.0,667/1000,100,97.0
574,D4,51.0,24/125,80,97.0
575,F4,51.0,24/125,80,97.0
576,A4,51.0,24/125,80,97.0
577,D2,51.25,167/1000,120,97.0
578,C2,51.25,0.75,120,97.0
579,E2,51.5,0.5,120,97.0
580,C4,51.5,0.5,125,97.0
581,C2,51.5,0.5,120,97.0
582,F#2,51.5,0.5,100,97.0
583,C#4,51.5,0.5,100,97.0
584,C2,51.75,0.25,120,97.0
585,A1,52.0,1.5,120,97.0
586,C4,52.0,333/1000,125,97.0
587,C2,52.0,1.0,120,97.0
588,C2,52.0,0.25,120,97.0
589,C2,52.0,0.5,120,97.0
590,C2,52.0,0.75,120,97.0
591,F#2,52.0,1.0,100,97.0
592,F#2,52.0,0.5,100,97.0
593,D4,52.0,1.0,100,97.0
594,C#4,52.0,0.5,100,97.0
595,E4,52.0,667/1000,100,97.0
596,A3,52.0,667/1000,100,97.0
597,C4,52.0,667/1000,100,97.0
598,A2,52.5,667/1000,100,97.0
599,A3,52.5,0.75,125,97.0
600,F#2,52.5,1.0,100,97.0
601,C#2,53.0,1.0,120,97.0
602,F#2,53.0,1.0,100,97.0
603,D4,53.0,1.0,100,97.0
604,E4,53.0,667/1000,100,97.0
605,A3,53.0,667/1000,100,97.0
606,C4,53.0,667/1000,100,97.0
607,C4,53.0,24/125,80,97.0
608,E4,53.0,24/125,80,97.0
609,A4,53.0,24/125,80,97.0
610,A2,53.5,667/1000,100,97.0
611,F#2,53.5,1.0,100,97.0
612,D4,53.5,1.0,100,97.0
613,A1,53.75,0.125,120,97.0
614,C2,53.75,1.0,120,97.0
615,D4,53.75,1.0,100,97.0
616,A1,54.0,229/500,120,97.0
617,G3,54.0,229/500,125,97.0
618,C2,54.0,1.0,120,97.0
619,F#2,54.0,1.0,100,97.0
620,D4,54.0,1.0,100,97.0
621,E4,54.0,667/1000,100,97.0
622,A3,54.0,667/1000,100,97.0
623,C4,54.0,667/1000,100,97.0
624,D4,54.25,1.0,100,97.0
625,A1,54.5,667/1000,120,97.0
626,A3,54.5,229/500,125,97.0
627,C2,54.5,1.0,120,97.0
628,F#2,54.5,1.0,100,97.0
629,D4,54.5,1.0,100,97.0
630,D4,54.75,1.0,100,97.0
631,C4,55.0,229/500,125,97.0
632,C#2,55.0,1.0,120,97.0
633,F#2,55.0,1.0,100,97.0
634,C#4,55.0,1.0,100,97.0
635,E4,55.0,667/1000,100,97.0
636,A3,55.0,667/1000,100,97.0
637,C4,55.0,667/1000,100,97.0
638,C4,55.0,24/125,80,97.0
639,E4,55.0,24/125,80,97.0
640,A4,55.0,24/125,80,97.0
641,A1,55.25,167/1000,120,97.0
642,C2,55.25,0.75,120,97.0
643,C2,55.5,0.5,120,97.0
644,A3,55.5,229/500,125,97.0
645,C2,55.5,0.5,120,97.0
646,F#2,55.5,0.5,100,97.0
647,C#4,55.5,0.5,100,97.0
648,C2,55.75,0.25,120,97.0
649,C#4,55.75,0.25,100,97.0
650,D2,56.0,1.5,120,97.0
651,D4,56.0,1.0,125,97.0
652,C2,56.0,1.0,120,97.0
653,C2,56.0,0.25,120,97.0
654,C2,56.0,0.5,120,97.0
655,C2,56.0,0.75,120,97.0
656,F#2,56.0,1.0,100,97.0
657,F#2,56.0,0.5,100,97.0
658,D4,56.0,1.0,100,97.0
659,C#4,56.0,0.5,100,97.0
660,C#4,56.0,0.75,100,97.0
661,F4,56.0,667/1000,100,97.0
662,A3,56.0,667/1000,100,97.0
663,D4,56.0,667/1000,100,97.0
664,F#2,56.5,1.0,100,97.0
665,C#2,57.0,1.0,120,97.0
666,F#2,57.0,1.0,100,97.0
667,D4,57.0,1.0,100,97.0
668,F4,57.0,667/1000,100,97.0
669,A3,57.0,667/1000,100,97.0
670,D4,57.0,667/1000,100,97.0
671,D4,57.0,24/125,80,97.0
672,F4,57.0,24/125,80,97.0
673,A4,57.0,24/125,80,97.0
674,D4,57.5,833/1000,125,97.0
675,F#2,57.5,1.0,100,97.0
676,D4,57.5,1.0,100,97.0
677,D2,57.75,0.125,120,97.0
678,C2,57.75,1.0,120,97.0
679,D4,57.75,1.0,100,97.0
680,D2,58.0,229/500,120,97.0
681,C2,58.0,1.0,120,97.0
682,F#2,58.0,1.0,100,97.0
683,D4,58.0,1.0,100,97.0
684,F4,58.0,667/1000,100,97.0
685,A3,58.0,667/1000,100,97.0
686,D4,58.0,667/1000,100,97.0
687,D2,58.5,667/1000,120,97.0
688,D4,58.5,229/500,125,97.0
689,C2,58.5,1.0,120,97.0
690,F#2,58.5,1.0,100,97.0
691,D4,58.5,1.0,100,97.0
692,G4,59.0,0.5,125,97.0
693,C#2,59.0,1.0,120,97.0
694,F#2,59.0,1.0,100,97.0
695,C#4,59.0,1.0,100,97.0
696,F4,59.0,667/1000,100,97.0
697,A3,59.0,667/1000,100,97.0
698,D4,59.0,667/1000,100,97.0
699,D4,59.0,24/125,80,97.0
700,F4,59.0,24/125,80,97.0
701,A4,59.0,24/125,80,97.0
702,D2,59.25,26/125,120,97.0
703,C2,59.25,0.75,120,97.0
704,G2,59.5,0.5,120,97.0
705,G2,59.5,229/500,100,97.0
706,E4,59.5,0.5,125,97.0
707,C2,59.5,0.5,120,97.0
708,F#2,59.5,0.5,100,97.0
709,C#4,59.5,0.5,100,97.0
710,C2,59.75,0.25,120,97.0
711,A2,60.0,1.5,120,97.0
712,E4,60.0,1.0,125,97.0
713,C2,60.0,1.0,120,97.0
714,C2,60.0,0.25,120,97.0
715,C2,60.0,0.5,120,97.0
716,C2,60.0,0.75,120,97.0
717,F#2,60.0,1.0,100,97.0
718,F#2,60.0,0.5,100,97.0
719,D4,60.0,1.0,100,97.0
720,C#4,60.0,0.5,100,97.0
721,A2,60.0,667/1000,100,97.0
722,E4,60.0,667/1000,100,97.0
723,A3,60.0,667/1000,100,97.0
724,C4,60.0,667/1000,100,97.0
725,F#2,60.5,1.0,100,97.0
726,C#2,61.0,1.0,120,97.0
727,F#2,61.0,1.0,100,97.0
728,D4,61.0,1.0,100,97.0
729,E4,61.0,667/1000,100,97.0
730,A3,61.0,667/1000,100,97.0
731,C4,61.0,667/1000,100,97.0
732,C4,61.0,24/125,80,97.0
733,E4,61.0,24/125,80,97.0
734,A4,61.0,24/125,80,97.0
735,F#2,61.5,1.0,100,97.0
736,D4,61.5,1.0,100,97.0
737,A2,61.75,0.125,120,97.0
738,C2,61.75,1.0,120,97.0
739,D4,61.75,1.0,100,97.0
740,A2,62.0,229/500,120,97.0
741,A2,62.0,229/500,100,97.0
742,G3,62.0,229/500,125,97.0
743,C2,62.0,1.0,120,97.0
744,F#2,62.0,1.0,100,97.0
745,D4,62.0,1.0,100,97.0
746,E4,62.0,667/1000,100,97.0
747,A3,62.0,667/1000,100,97.0
748,C4,62.0,667/1000,100,97.0
749,D4,62.25,1.0,100,97.0
750,G2,62.5,229/500,120,97.0
751,G2,62.5,229/500,100,97.0
752,A3,62.5,229/500,125,97.0
753,C2,62.5,1.0,120,97.0
754,F#2,62.5,1.0,100,97.0
755,D4,62.5,1.0,100,97.0
756,D4,62.75,1.0,100,97.0
757,E2,63.0,229/500,120,97.0
758,E2,63.0,229/500,100,97.0
759,C4,63.0,229/500,125,97.0
760,C#2,63.0,1.0,120,97.0
761,F#2,63.0,1.0,100,97.0
762,C#4,63.0,1.0,100,97.0
763,E4,63.0,667/1000,100,97.0
764,A3,63.0,667/1000,100,97.0
765,C4,63.0,667/1000,100,97.0
766,C4,63.0,24/125,80,97.0
767,E4,63.0,24/125,80,97.0
768,A4,63.0,24/125,80,97.0
769,C2,63.25,0.75,120,97.0
770,A1,63.5,0.5,120,97.0
771,A1,63.5,0.5,100,97.0
772,A3,63.5,229/500,125,97.0
773,C2,63.5,0.5,120,97.0
774,F#2,63.5,0.5,100,97.0
775,C#4,63.5,0.5,100,97.0
776,C2,63.75,0.25,120,97.0
777,C#4,63.75,0.25,100,97.0
778,D2,64.0,1.5,120,97.0
779,D4,64.0,1.0,125,97.0
780,C2,64.0,1.0,120,97.0
781,C2,64.0,0.25,120,97.0
782,C2,64.0,0.5,120,97.0
783,C2,64.0,0.75,120,97.0
784,F#2,64.0,1.0,100,97.0
785,F#2,64.0,0.5,100,97.0
786,D4,64.0,1.0,100,97.0
787,C#4,64.0,0.5,100,97.0
788,C#4,64.0,0.75,100,97.0
789,F4,64.0,667/1000,100,97.0
790,A3,64.0,667/1000,100,97.0
791,D4,64.0,667/1000,100,97.0
792,F#2,64.5,1.0,100,97.0
793,D4,65.0,0.5,125,97.0
794,C#2,65.0,1.0,120,97.0
795,F#2,65.0,1.0,100,97.0
796,D4,65.0,1.0,100,97.0
797,F4,65.0,667/1000,100,97.0
798,A3,65.0,667/1000,100,97.0
799,D4,65.0,667/1000,100,97.0
800,D4,65.0,24/125,80,97.0
801,F4,65.0,24/125,80,97.0
802,A4,65.0,24/125,80,97.0
803,C4,65.5,0.5,125,97.0
804,F#2,65.5,1.0,100,97.0
805,D4,65.5,1.0,100,97.0
806,D2,65.75,0.125,120,97.0
807,C2,65.75,1.0,120,97.0
808,D4,65.75,1.0,100,97.0
809,D2,66.0,229/500,120,97.0
810,D4,66.0,833/1000,125,97.0
811,C2,66.0,1.0,120,97.0
812,F#2,66.0,1.0,100,97.0
813,D4,66.0,1.0,100,97.0
814,F4,66.0,667/1000,100,97.0
815,A3,66.0,667/1000,100,97.0
816,D4,66.0,667/1000,100,97.0
817,D2,66.5,833/1000,120,97.0
818,C2,66.5,1.0,120,97.0
819,F#2,66.5,1.0,100,97.0
820,D4,66.5,1.0,100,97.0
821,E4,67.0,0.5,125,97.0
822,C#2,67.0,1.0,120,97.0
823,F#2,67.0,1.0,100,97.0
824,C#4,67.0,1.0,100,97.0
825,F4,67.0,667/1000,100,97.0
826,A3,67.0,667/1000,100,97.0
827,D4,67.0,667/1000,100,97.0
828,D4,67.0,24/125,80,97.0
829,F4,67.0,24/125,80,97.0
830,A4,67.0,24/125,80,97.0
831,C2,67.25,0.75,120,97.0
832,E2,67.5,0.5,120,97.0
833,C4,67.5,0.5,125,97.0
834,C2,67.5,0.5,120,97.0
835,F#2,67.5,0.5,100,97.0
836,C#4,67.5,0.5,100,97.0
837,C2,67.75,0.25,120,97.0
838,A1,68.0,1.5,120,97.0
839,C4,68.0,333/1000,125,97.0
840,C2,68.0,1.0,120,97.0
841,C2,68.0,0.25,120,97.0
842,C2,68.0,0.5,120,97.0
843,C2,68.0,0.75,120,97.0
844,F#2,68.0,1.0,100,97.0
845,F#2,68.0,0.5,100,97.0
846,D4,68.0,1.0,100,97.0
847,C#4,68.0,0.5,100,97.0
848,E4,68.0,667/1000,100,97.0
849,A3,68.0,667/1000,100,97.0
850,C4,68.0,667/1000,100,97.0
851,A2,68.5,667/1000,100,97.0
852,A3,68.5,0.75,125,97.0
853,F#2,68.5,1.0,100,97.0
854,C#2,69.0,1.0,120,97.0
855,F#2,69.0,1.0,100,97.0
856,D4,69.0,1.0,100,97.0
857,E4,69.0,667/1000,100,97.0
858,A3,69.0,667/1000,100,97.0
859,C4,69.0,667/1000,100,97.0
860,C4,69.0,24/125,80,97.0
861,E4,69.0,24/125,80,97.0
862,A4,69.0,24/125,80,97.0
863,A2,69.5,667/1000,100,97.0
864,F#2,69.5,1.0,100,97.0
865,D4,69.5,1.0,100,97.0
866,A1,69.75,0.125,120,97.0
867,C2,69.75,1.0,120,97.0
868,D4,69.75,1.0,100,97.0
869,A1,70.0,229/500,120,97.0
870,G3,70.0,229/500,125,97.0
871,C2,70.0,1.0,120,97.0
872,F#2,70.0,1.0,100,97.0
873,D4,70.0,1.0,100,97.0
874,E4,70.0,667/1000,100,97.0
875,A3,70.0,667/1000,100,97.0
876,C4,70.0,667/1000,100,97.0
877,D4,70.25,1.0,100,97.0
878,A1,70.5,667/1000,120,97.0
879,A3,70.5,229/500,125,97.0
880,C2,70.5,1.0,120,97.0
881,F#2,70.5,1.0,100,97.0
882,D4,70.5,1.0,100,97.0
883,D4,70.75,1.0,100,97.0
884,C4,71.0,229/500,125,97.0
885,C#2,71.0,1.0,120,97.0
886,F#2,71.0,1.0,100,97.0
887,C#4,71.0,1.0,100,97.0
888,E4,71.0,667/1000,100,97.0
889,A3,71.0,667/1000,100,97.0
890,C4,71.0,667/1000,100,97.0
891,C4,71.0,24/125,80,97.0
892,E4,71.0,24/125,80,97.0
893,A4,71.0,24/125,80,97.0
894,A1,71.25,167/1000,120,97.0
895,C2,71.25,0.75,120,97.0
896,C2,71.5,0.5,120,97.0
897,A3,71.5,229/500,125,97.0
898,C2,71.5,0.5,120,97.0
899,F#2,71.5,0.5,100,97.0
900,C#4,71.5,0.5,100,97.0
901,C2,71.75,0.25,120,97.0
902,C#4,71.75,0.25,100,97.0
903,D2,72.0,1.5,120,97.0
904,D4,72.0,1.0,125,97.0
905,C2,72.0,1.0,120,97.0
906,C2,72.0,0.25,120,97.0
907,C2,72.0,0.5,120,97.0
908,C2,72.0,0.75,120,97.0
909,F#2,72.0,1.0,100,97.0
910,F#2,72.0,0.5,100,97.0
911,D4,72.0,1.0,100,97.0
912,C#4,72.0,0.5,100,97.0
913,C#4,72.0,0.75,100,97.0
914,F4,72.0,667/1000,100,97.0
915,A3,72.0,667/1000,100,97.0
916,D4,72.0,667/1000,100,97.0
917,F#2,72.5,1.0,100,97.0
918,C#2,73.0,1.0,120,97.0
919,F#2,73.0,1.0,100,97.0
920,D4,73.0,1.0,100,97.0
921,F4,73.0,667/1000,100,97.0
922,A3,73.0,667/1000,100,97.0
923,D4,73.0,667/1000,100,97.0
924,D4,73.0,24/125,80,97.0
925,F4,73.0,24/125,80,97.0
926,A4,73.0,24/125,80,97.0
927,D4,73.5,833/1000,125,97.0
928,F#2,73.5,1.0,100,97.0
929,D4,73.5,1.0,100,97.0
930,D2,73.75,0.125,120,97.0
931,C2,73.75,1.0,120,97.0
932,D4,73.75,1.0,100,97.0
933,D2,74.0,229/500,120,97.0
934,C2,74.0,1.0,120,97.0
935,F#2,74.0,1.0,100,97.0
936,D4,74.0,1.0,100,97.0
937,F4,74.0,667/1000,100,97.0
938,A3,74.0,667/1000,100,97.0
939,D4,74.0,667/1000,100,97.0
940,D2,74.5,667/1000,120,97.0
941,D4,74.5,229/500,125,97.0
942,C2,74.5,1.0,120,97.0
943,F#2,74.5,1.0,100,97.0
944,D4,74.5,1.0,100,97.0
945,C4,75.0,0.5,125,97.0
946,C#2,75.0,1.0,120,97.0
947,F#2,75.0,1.0,100,97.0
948,C#4,75.0,1.0,100,97.0
949,F4,75.0,667/1000,100,97.0
950,A3,75.0,667/1000,100,97.0
951,D4,75.0,667/1000,100,97.0
952,D4,75.0,24/125,80,97.0
953,F4,75.0,24/125,80,97.0
954,A4,75.0,24/125,80,97.0
955,D2,75.25,167/1000,120,97.0
956,C2,75.25,0.75,120,97.0
957,D2,75.5,0.5,120,97.0
958,D4,75.5,0.5,125,97.0
959,C2,75.5,0.5,120,97.0
960,F#2,75.5,0.5,100,97.0
961,C#4,75.5,0.5,100,97.0
962,C2,75.75,0.25,120,97.0
963,G2,76.0,1.5,120,97.0
964,D4,76.0,1.0,125,97.0
965,C2,76.0,1.0,120,97.0
966,C2,76.0,0.25,120,97.0
967,C2,76.0,0.5,120,97.0
968,C2,76.0,0.75,120,97.0
969,F#2,76.0,1.0,100,97.0
970,F#2,76.0,0.5,100,97.0
971,D4,76.0,1.0,100,97.0
972,C#4,76.0,0.5,100,97.0
973,D4,76.0,667/1000,100,97.0
974,G4,76.0,667/1000,100,97.0
975,B4,76.0,667/1000,100,97.0
976,F#2,76.5,1.0,100,97.0
977,C#2,77.0,1.0,120,97.0
978,F#2,77.0,1.0,100,97.0
979,D4,77.0,1.0,100,97.0
980,D4,77.0,667/1000,100,97.0
981,B4,77.0,667/1000,100,97.0
982,G4,77.0,667/1000,100,97.0
983,B3,77.0,24/125,80,97.0
984,D4,77.0,24/125,80,97.0
985,G4,77.0,24/125,80,97.0
986,G2,77.5,229/500,120,97.0
987,F#2,77.5,1.0,100,97.0
988,D4,77.5,1.0,100,97.0
989,C2,77.75,1.0,120,97.0
990,D4,77.75,1.0,100,97.0
991,G1,78.0,229/500,120,97.0
992,G1,78.0,229/500,100,97.0
993,C2,78.0,1.0,120,97.0
994,F#2,78.0,1.0,100,97.0
995,D4,78.0,1.0,100,97.0
996,D4,78.0,667/1000,100,97.0
997,G4,78.0,667/1000,100,97.0
998,B4,78.0,667/1000,100,97.0
999,D4,78.25,1.0,100,97.0
1000,D2,78.5,229/500,120,97.0
1001,D2,78.5,229/500,100,97.0
1002,C4,78.5,229/500,125,97.0
1003,E2,78.5,1.0,120,97.0
1004,F#2,78.5,1.0,100,97.0
1005,D4,78.5,1.0,100,97.0
1006,D4,78.75,1.0,100,97.0
1007,G2,79.0,229/500,120,97.0
1008,G2,79.0,229/500,100,97.0
1009,D4,79.0,229/500,125,97.0
1010,E2,79.0,1.0,120,97.0
1011,F#2,79.0,1.0,100,97.0
1012,C#4,79.0,1.0,100,97.0
1013,G4,79.0,667/1000,100,97.0
1014,B4,79.0,667/1000,100,97.0
1015,D4,79.0,667/1000,100,97.0
1016,B3,79.0,24/125,80,97.0
1017,D4,79.0,24/125,80,97.0
1018,G4,79.0,24/125,80,97.0
1019,E2,79.25,0.75,120,97.0
1020,F#2,79.5,229/500,120,97.0
1021,F#2,79.5,229/500,100,97.0
1022,E4,79.5,0.5,125,97.0
1023,E2,79.5,0.5,120,97.0
1024,F#2,79.5,0.5,100,97.0
1025,C#4,79.5,0.5,100,97.0
1026,C2,79.75,0.25,120,97.0
1027,C#4,79.75,0.25,100,97.0
1028,F2,80.0,1.5,120,97.0
1029,F3,80.0,2.0,100,97.0
1030,E4,80.0,1.0,125,97.0
1031,C2,80.0,1.0,120,97.0
1032,E2,80.0,0.25,120,97.0
1033,E2,80.0,0.5,120,97.0
1034,C2,80.0,0.75,120,97.0
1035,B-2,80.0,1.0,100,97.0
1036,F#2,80.0,0.5,100,97.0
1037,D4,80.0,1.0,100,97.0
1038,C#4,80.0,0.5,100,97.0
1039,C#4,80.0,0.75,100,97.0
1040,E4,80.0,2.0,100,97.0
1041,F3,80.0,2.0,100,97.0
1042,A3,80.0,2.0,100,97.0
1043,C4,80.0,2.0,100,97.0
1044,E4,80.0,2.0,100,97.0
1045,A4,80.0,2.0,100,97.0
1046,F#2,80.5,1.0,100,97.0
1047,C#2,81.0,1.0,120,97.0
1048,F#2,81.0,1.0,100,97.0
1049,D4,81.0,1.0,100,97.0
1050,E4,81.5,229/500,125,97.0
1051,F#2,81.5,1.0,100,97.0
1052,D4,81.5,1.0,100,97.0
1053,F2,81.75,167/1000,120,97.0
1054,C2,81.75,1.0,120,97.0
1055,D4,81.75,1.0,100,97.0
1056,E2,82.0,229/500,120,97.0
1057,E3,82.0,1.5,100,97.0
1058,D4,82.0,833/1000,125,97.0
1059,D4,82.0,1.0,100,97.0
1060,D4,82.0,1.5,100,97.0
1061,B3,82.0,1.5,100,97.0
1062,G3,82.0,1.5,100,97.0
1063,E3,82.0,1.5,100,97.0
1064,D4,82.0,1.5,100,97.0
1065,G4,82.0,1.5,100,97.0
1066,F#2,82.0,1.0,110,97.0
1067,C2,82.0,1.0,110,97.0
1068,E2,82.5,1.0,120,97.0
1069,D4,82.5,1.0,100,97.0
1070,F#2,82.5,1.0,110,97.0
1071,C2,82.5,1.0,110,97.0
1072,E4,83.0,229/500,125,97.0
1073,C#2,83.0,1.0,120,97.0
1074,F#2,83.0,1.0,100,97.0
1075,C#4,83.0,1.0,100,97.0
1076,D2,83.5,0.5,120,97.0
1077,D3,83.5,0.5,100,97.0
1078,C4,83.5,0.5,125,97.0
1079,C#4,83.5,0.5,100,97.0
1080,F3,83.5,0.5,100,97.0
1081,A3,83.5,0.5,100,97.0
1082,C4,83.5,0.5,100,97.0
1083,C4,83.5,0.5,100,97.0
1084,F4,83.5,0.5,100,97.0
1085,C2,83.5,0.5,110,97.0
1086,B-2,83.5,0.5,110,97.0
1087,D2,84.0,0.5,120,97.0
1088,D3,84.0,2.5,100,97.0
1089,C4,84.0,333/1000,125,97.0
1090,F#2,84.0,1.0,100,97.0
1091,D4,84.0,1.0,100,97.0
1092,C#4,84.0,0.5,100,97.0
1093,C2,84.0,0.5,110,97.0
1094,B-2,84.0,0.5,110,97.0
1095,D2,84.5,333/1000,120,97.0
1096,A3,84.5,1.0,125,97.0
1097,F#2,84.5,1.0,100,97.0
1098,C#2,85.0,1.0,120,97.0
1099,F#2,85.0,1.0,100,97.0
1100,D4,85.0,1.0,100,97.0
1101,F#2,85.5,1.0,100,97.0
1102,D4,85.5,1.0,100,97.0
1103,A1,85.75,167/1000,120,97.0
1104,C2,85.75,1.0,120,97.0
1105,D4,85.75,1.0,100,97.0
1106,D2,86.0,229/500,120,97.0
1107,D4,86.0,1.0,100,97.0
1108,F#2,86.0,1.0,110,97.0
1109,C2,86.0,1.0,110,97.0
1110,D4,86.25,1.0,100,97.0
1111,E2,86.5,229/500,120,97.0
1112,D4,86.5,1.0,100,97.0
1113,C4,86.5,2.5,100,97.0
1114,F4,86.5,2.5,100,97.0
1115,F#2,86.5,1.0,110,97.0
1116,C2,86.5,1.0,110,97.0
1117,D4,86.75,1.0,100,97.0
1118,F2,87.0,26/125,120,97.0
1119,F#2,87.0,1.0,100,97.0
1120,C#4,87.0,1.0,100,97.0
1121,C2,87.0,1.0,120,97.0
1122,C#2,87.0,1.0,120,97.0
1123,G2,87.25,167/1000,120,97.0
1124,C2,87.25,0.75,120,97.0
1125,A2,87.5,0.5,120,97.0
1126,C4,87.5,229/500,125,97.0
1127,F#2,87.5,0.5,100,97.0
1128,C#4,87.5,0.5,100,97.0
1129,F3,87.5,3.5,100,97.0
1130,A3,87.5,3.5,100,97.0
1131,C4,87.5,3.5,100,97.0
1132,C2,87.75,0.25,120,97.0
1133,C#4,87.75,0.25,100,97.0
1134,B-2,88.0,729/500,120,97.0
1135,E-4,88.0,0.625,125,97.0
1136,C2,88.0,1.0,120,97.0
1137,C2,88.0,0.25,120,97.0
1138,G3,88.0,1.0,100,97.0
1139,F#2,88.0,0.5,100,97.0
1140,C2,88.0,0.75,120,97.0
1141,D4,88.0,1.0,100,97.0
1142,C#4,88.0,0.5,100,97.0
1143,C#4,88.0,0.75,100,97.0
1144,F#2,88.5,1.0,100,97.0
1145,E-4,88.667,0.625,125,97.0
1146,C#2,89.0,1.0,120,97.0
1147,F#2,89.0,1.0,100,97.0
1148,D4,89.0,1.0,100,97.0
1149,E-4,89.333,333/1000,125,97.0
1150,B-2,89.5,229/500,120,97.0
1151,D4,89.5,1.0,100,97.0
1152,C2,89.5,1.0,110,97.0
1153,G3,89.5,1.0,110,97.0
1154,C4,89.667,333/1000,125,97.0
1155,D4,89.75,1.0,100,97.0
1156,A2,90.0,229/500,120,97.0
1157,D4,90.0,833/1000,125,97.0
1158,D4,90.0,1.0,100,97.0
1159,D2,90.5,229/500,120,97.0
1160,E2,90.5,1.0,120,97.0
1161,D4,90.5,1.0,100,97.0
1162,E2,91.0,26/125,120,97.0
1163,C4,91.0,229/500,125,97.0
1164,E2,91.0,1.0,120,97.0
1165,C#4,91.0,1.0,100,97.0
1166,G1,91.5,0.5,120,97.0
1167,D4,91.5,0.5,125,97.0
1168,C#4,91.5,0.5,100,97.0
1169,E-4,91.5,0.75,100,97.0
1170,C4,91.5,0.75,100,97.0
1171,G#3,91.5,0.75,100,97.0
1172,C#3,91.5,0.5,110,97.0
1173,C2,91.5,0.5,110,97.0
1174,A3,91.5,0.5,100,97.0
1175,F4,91.5,0.5,100,97.0
1176,C4,91.5,0.5,100,97.0
1177,G1,92.0,0.5,120,97.0
1178,E4,92.0,0.5,125,97.0
1179,D4,92.0,1.0,100,97.0
1180,C#4,92.0,0.5,100,97.0
1181,C#3,92.0,0.5,110,97.0
1182,C2,92.0,0.5,110,97.0
1183,A3,92.0,3.5,100,97.0
1184,F4,92.0,3.5,100,97.0
1185,C4,92.0,3.5,100,97.0
1186,G1,92.5,229/500,120,97.0
1187,C4,92.5,0.5,125,97.0
1188,C4,92.5,0.75,100,97.0
1189,E-4,92.5,0.75,100,97.0
1190,G#3,92.5,0.75,100,97.0
1191,C2,92.5,1.0,110,97.0
1192,B-2,92.5,1.0,110,97.0
1193,G1,93.0,229/500,120,97.0
1194,A3,93.0,0.75,125,97.0
1195,C2,93.0,1.0,120,97.0
1196,B-2,93.0,1.0,100,97.0
1197,D4,93.0,1.0,100,97.0
1198,G2,93.5,167/1000,120,97.0
1199,D4,93.5,1.0,100,97.0
1200,D4,93.5,0.75,100,97.0
1201,G3,93.5,0.75,100,97.0
1202,B3,93.5,0.75,100,97.0
1203,C2,93.5,1.0,110,97.0
1204,B-2,93.5,1.0,110,97.0
1205,G2,93.75,167/1000,120,97.0
1206,D4,93.75,1.0,100,97.0
1207,G2,94.0,0.5,120,97.0
1208,C2,94.0,1.0,120,97.0
1209,B-2,94.0,1.0,100,97.0
1210,D4,94.0,1.0,100,97.0
1211,D4,94.25,1.0,100,97.0
1212,G2,94.5,167/1000,120,97.0
1213,A4,94.5,1.0,125,97.0
1214,C2,94.5,1.0,120,97.0
1215,B-2,94.5,1.0,100,97.0
1216,D4,94.5,1.0,100,97.0
1217,B3,94.5,229/500,100,97.0
1218,G3,94.5,229/500,100,97.0
1219,D4,94.5,229/500,100,97.0
1220,G2,94.75,167/1000,120,97.0
1221,D4,94.75,1.0,100,97.0
1222,G2,95.0,26/125,120,97.0
1223,E2,95.0,1.0,120,97.0
1224,C#4,95.0,1.0,100,97.0
1225,C4,95.0,0.5,100,97.0
1226,A3,95.0,0.5,100,97.0
1227,F3,95.0,0.5,100,97.0
1228,G2,95.25,26/125,120,97.0
1229,E2,95.25,0.75,120,97.0
1230,G2,95.5,26/125,120,97.0
1231,E4,95.5,0.5,125,97.0
1232,E2,95.5,0.5,120,97.0
1233,C#4,95.5,0.5,100,97.0
1234,C4,95.5,3.5,100,97.0
1235,A3,95.5,3.5,100,97.0
1236,F3,95.5,3.5,100,97.0
1237,A2,95.75,26/125,120,97.0
1238,C#4,95.75,0.25,100,97.0
1239,F2,96.0,1.5,120,97.0
1240,F3,96.0,229/500,100,97.0
1241,E4,96.0,229/500,125,97.0
1242,C2,96.0,1.0,120,97.0
1243,E2,96.0,0.25,120,97.0
1244,F#2,96.0,1.0,100,97.0
1245,E2,96.0,0.5,120,97.0
1246,D4,96.0,1.0,100,97.0
1247,C#4,96.0,0.5,100,97.0
1248,C#4,96.0,0.75,100,97.0
1249,F3,96.5,229/500,100,97.0
1250,E4,96.5,229/500,125,97.0
1251,F#2,96.5,1.0,100,97.0
1252,F3,97.0,26/125,100,97.0
1253,E4,97.0,26/125,125,97.0
1254,E2,97.0,1.0,120,97.0
1255,F#2,97.0,1.0,100,97.0
1256,D4,97.0,1.0,100,97.0
1257,F3,97.25,26/125,100,97.0
1258,E4,97.25,26/125,125,97.0
1259,F2,97.5,167/1000,120,97.0
1260,F3,97.5,26/125,100,97.0
1261,E4,97.5,26/125,125,97.0
1262,F#2,97.5,1.0,100,97.0
1263,D4,97.5,1.0,100,97.0
1264,F2,97.75,167/1000,120,97.0
1265,F3,97.75,26/125,100,97.0
1266,E4,97.75,26/125,125,97.0
1267,C2,97.75,1.0,120,97.0
1268,D4,97.75,1.0,100,97.0
1269,E2,98.0,667/1000,120,97.0
1270,E3,98.0,26/125,100,97.0
1271,D4,98.0,26/125,125,97.0
1272,D4,98.0,1.0,100,97.0
1273,F#2,98.0,1.0,110,97.0
1274,C2,98.0,1.0,110,97.0
1275,E3,98.25,229/500,100,97.0
1276,E4,98.25,229/500,125,97.0
1277,A3,98.5,229/500,100,97.0
1278,D4,98.5,1.0,100,97.0
1279,F#2,98.5,1.0,110,97.0
1280,C2,98.5,1.0,110,97.0
1281,D2,98.75,229/500,120,97.0
1282,D3,98.75,583/1000,100,97.0
1283,C4,98.75,583/1000,125,97.0
1284,A3,99.0,229/500,100,97.0
1285,E2,99.0,1.0,120,97.0
1286,F#2,99.0,1.0,100,97.0
1287,C#4,99.0,1.0,100,97.0
1288,D2,99.5,0.5,120,97.0
1289,A3,99.5,26/125,100,97.0
1290,A3,99.5,229/500,100,97.0
1291,C#4,99.5,0.5,100,97.0
1292,F3,99.5,1.0,100,97.0
1293,A3,99.5,1.0,100,97.0
1294,C4,99.5,1.0,100,97.0
1295,E4,99.5,1.0,100,97.0
1296,C2,99.5,0.5,110,97.0
1297,B-2,99.5,0.5,110,97.0
1298,C5,99.5,0.5,100,97.0
1299,G4,99.5,0.5,100,97.0
1300,A3,99.75,26/125,100,97.0
1301,D2,100.0,0.5,120,97.0
1302,A3,100.0,26/125,100,97.0
1303,C4,100.0,229/500,100,97.0
1304,D4,100.0,1.0,100,97.0
1305,C#4,100.0,0.5,100,97.0
1306,E2,100.0,1.0,110,97.0
1307,F#2,100.0,1.0,110,97.0
1308,C2,100.0,0.5,110,97.0
1309,B-2,100.0,0.5,110,97.0
1310,C5,100.0,1.5,100,97.0
1311,G4,100.0,1.5,100,97.0
1312,A3,100.25,26/125,100,97.0
1313,D3,100.5,167/1000,120,97.0
1314,G3,100.5,26/125,100,97.0
1315,A3,100.5,229/500,100,97.0
1316,F#2,100.5,1.0,100,97.0
1317,F3,100.5,1.0,100,97.0
1318,A3,100.5,1.0,100,97.0
1319,C4,100.5,1.0,100,97.0
1320,E4,100.5,1.0,100,97.0
1321,C3,100.75,167/1000,120,97.0
1322,G3,100.75,229/500,100,97.0
1323,D3,101.0,667/1000,120,97.0
1324,C4,101.0,229/500,100,97.0
1325,E2,101.0,1.0,120,97.0
1326,F#2,101.0,1.0,100,97.0
1327,D4,101.0,1.0,100,97.0
1328,F3,101.25,583/1000,100,97.0
1329,A3,101.5,229/500,100,97.0
1330,F#2,101.5,1.0,100,97.0
1331,D4,101.5,1.0,100,97.0
1332,D4,101.5,667/1000,100,97.0
1333,B3,101.5,667/1000,100,97.0
1334,G3,101.5,667/1000,100,97.0
1335,E3,101.5,667/1000,100,97.0
1336,D3,101.75,167/1000,120,97.0
1337,C2,101.75,1.0,120,97.0
1338,D4,101.75,1.0,100,97.0
1339,D3,102.0,333/1000,120,97.0
1340,D4,102.0,667/1000,100,97.0
1341,D4,102.0,1.0,100,97.0
1342,C5,102.0,21/500,101,97.0
1343,F#2,102.0,1.0,110,97.0
1344,C2,102.0,1.0,110,97.0
1345,D4,102.25,1.0,100,97.0
1346,A4,102.25,21/500,100,97.0
1347,A3,102.25,0.5,100,97.0
1348,F3,102.25,0.5,100,97.0
1349,C4,102.25,0.5,100,97.0
1350,D3,102.5,26/125,120,97.0
1351,D4,102.5,1.0,100,97.0
1352,F#2,102.5,1.0,110,97.0
1353,C2,102.5,1.0,110,97.0
1354,A2,102.75,229/500,120,97.0
1355,A3,102.75,0.75,100,97.0
1356,D4,102.75,1.0,100,97.0
1357,A4,102.75,1.25,100,97.0
1358,F4,102.75,1.25,100,97.0
1359,F#2,103.0,1.0,100,97.0
1360,C#4,103.0,1.0,100,97.0
1361,F3,103.0,0.5,100,97.0
1362,A3,103.0,0.5,100,97.0
1363,C4,103.0,0.5,100,97.0
1364,C4,103.0,0.5,100,97.0
1365,C2,103.0,1.0,120,97.0
1366,E2,103.0,1.0,120,97.0
1367,A2,103.25,167/1000,120,97.0
1368,C2,103.25,0.75,120,97.0
1369,G2,103.5,0.5,120,97.0
1370,F#2,103.5,0.5,100,97.0
1371,C#4,103.5,0.5,100,97.0
1372,F3,103.5,0.25,100,97.0
1373,A3,103.5,0.25,100,97.0
1374,C4,103.5,0.25,100,97.0
1375,C4,103.5,0.25,100,97.0
1376,C2,103.75,0.25,120,97.0
1377,C#4,103.75,0.25,100,97.0
1378,F2,104.0,1.5,120,97.0
1379,F3,104.0,229/500,100,97.0
1380,E4,104.0,229/500,125,97.0
1381,C2,104.0,1.0,120,97.0
1382,C2,104.0,0.25,120,97.0
1383,F#2,104.0,1.0,100,97.0
1384,F#2,104.0,0.5,100,97.0
1385,C2,104.0,0.75,120,97.0
1386,D4,104.0,1.0,100,97.0
1387,C#4,104.0,0.5,100,97.0
1388,C#4,104.0,0.75,100,97.0
1389,F3,104.0,417/1000,100,97.0
1390,A3,104.0,417/1000,100,97.0
1391,C4,104.0,417/1000,100,97.0
1392,A4,104.0,0.25,100,97.0
1393,F4,104.0,0.25,100,97.0
1394,F3,104.5,229/500,100,97.0
1395,E4,104.5,229/500,125,97.0
1396,F#2,104.5,1.0,100,97.0
1397,G4,104.75,0.375,100,97.0
1398,B4,104.75,0.375,100,97.0
1399,D4,104.75,0.375,100,97.0
1400,F3,105.0,26/125,100,97.0
1401,E4,105.0,26/125,125,97.0
1402,E2,105.0,1.0,120,97.0
1403,F#2,105.0,1.0,100,97.0
1404,D4,105.0,1.0,100,97.0
1405,F3,105.25,26/125,100,97.0
1406,E4,105.25,26/125,125,97.0
1407,F3,105.25,2.0,100,97.0
1408,A3,105.25,2.0,100,97.0
1409,C4,105.25,2.0,100,97.0
1410,F2,105.5,167/1000,120,97.0
1411,F3,105.5,26/125,100,97.0
1412,E4,105.5,26/125,125,97.0
1413,F#2,105.5,1.0,100,97.0
1414,D4,105.5,1.0,100,97.0
1415,F2,105.75,167/1000,120,97.0
1416,F3,105.75,26/125,100,97.0
1417,E4,105.75,26/125,125,97.0
1418,C2,105.75,1.0,120,97.0
1419,D4,105.75,1.0,100,97.0
1420,E2,106.0,667/1000,120,97.0
1421,E3,106.0,26/125,100,97.0
1422,D4,106.0,26/125,125,97.0
1423,D4,106.0,1.0,100,97.0
1424,F#2,106.0,1.0,110,97.0
1425,C2,106.0,1.0,110,97.0
1426,E3,106.25,229/500,100,97.0
1427,E4,106.25,229/500,125,97.0
1428,A3,106.5,229/500,100,97.0
1429,D4,106.5,1.0,100,97.0
1430,F#2,106.5,1.0,110,97.0
1431,C2,106.5,1.0,110,97.0
1432,D2,106.75,229/500,120,97.0
1433,D3,106.75,583/1000,100,97.0
1434,C4,106.75,583/1000,125,97.0
1435,A3,107.0,229/500,100,97.0
1436,E2,107.0,1.0,120,97.0
1437,F#2,107.0,1.0,100,97.0
1438,C#4,107.0,1.0,100,97.0
1439,C4,107.25,26/125,100,97.0
1440,B-4,107.25,0.75,100,97.0
1441,D5,107.25,0.75,100,97.0
1442,D2,107.5,0.5,120,97.0
1443,A3,107.5,26/125,100,97.0
1444,C4,107.5,26/125,100,97.0
1445,C#4,107.5,0.5,100,97.0
1446,F3,107.5,1.0,100,97.0
1447,A3,107.5,1.0,100,97.0
1448,C4,107.5,1.0,100,97.0
1449,E4,107.5,1.0,100,97.0
1450,C2,107.5,0.5,110,97.0
1451,B-2,107.5,0.5,110,97.0
1452,A3,107.75,26/125,100,97.0
1453,D2,108.0,0.5,120,97.0
1454,A3,108.0,26/125,100,97.0
1455,C4,108.0,229/500,100,97.0
1456,D4,108.0,1.0,100,97.0
1457,C#4,108.0,0.5,100,97.0
1458,E2,108.0,1.0,110,97.0
1459,F#2,108.0,1.0,110,97.0
1460,C2,108.0,0.5,110,97.0
1461,B-2,108.0,0.5,110,97.0
1462,B-4,108.0,0.25,100,97.0
1463,D5,108.0,0.25,100,97.0
1464,A3,108.25,26/125,100,97.0
1465,D3,108.5,167/1000,120,97.0
1466,G3,108.5,26/125,100,97.0
1467,A3,108.5,26/125,100,97.0
1468,F#2,108.5,1.0,100,97.0
1469,G5,108.5,417/1000,100,97.0
1470,F3,108.5,1.0,100,97.0
1471,A3,108.5,1.0,100,97.0
1472,C4,108.5,1.0,100,97.0
1473,E4,108.5,1.0,100,97.0
1474,C3,108.75,167/1000,120,97.0
1475,G3,108.75,229/500,100,97.0
1476,E3,108.75,583/1000,100,97.0
1477,D3,109.0,667/1000,120,97.0
1478,E2,109.0,1.0,120,97.0
1479,F#2,109.0,1.0,100,97.0
1480,D4,109.0,1.0,100,97.0
1481,E5,109.0,0.25,100,97.0
1482,F3,109.25,583/1000,100,97.0
1483,D5,109.25,0.25,100,97.0
1484,E3,109.5,229/500,100,97.0
1485,F#2,109.5,1.0,100,97.0
1486,D4,109.5,1.0,100,97.0
1487,A4,109.5,0.25,100,97.0
1488,D4,109.5,667/1000,100,97.0
1489,B3,109.5,667/1000,100,97.0
1490,G3,109.5,667/1000,100,97.0
1491,E3,109.5,667/1000,100,97.0
1492,D3,109.75,167/1000,120,97.0
1493,C2,109.75,1.0,120,97.0
1494,D4,109.75,1.0,100,97.0
1495,D3,110.0,333/1000,120,97.0
1496,D3,110.0,229/500,100,97.0
1497,D4,110.0,1.0,100,97.0
1498,D5,110.0,0.25,100,97.0
1499,F#2,110.0,1.0,110,97.0
1500,C2,110.0,1.0,110,97.0
1501,D4,110.25,1.0,100,97.0
1502,A3,110.25,0.5,100,97.0
1503,F3,110.25,0.5,100,97.0
1504,C4,110.25,0.5,100,97.0
1505,D3,110.5,26/125,120,97.0
1506,C3,110.5,229/500,100,97.0
1507,D4,110.5,1.0,100,97.0
1508,C5,110.5,1.0,100,97.0
1509,F#2,110.5,1.0,110,97.0
1510,C2,110.5,1.0,110,97.0
1511,A2,110.75,229/500,120,97.0
1512,D4,110.75,1.0,100,97.0
1513,C3,111.0,0.625,100,97.0
1514,F#2,111.0,1.0,100,97.0
1515,C#4,111.0,1.0,100,97.0
1516,A4,111.0,1.0,100,97.0
1517,F3,111.0,0.5,100,97.0
1518,A3,111.0,0.5,100,97.0
1519,C4,111.0,0.5,100,97.0
1520,C4,111.0,0.5,100,97.0
1521,C2,111.0,1.0,120,97.0
1522,E2,111.0,1.0,120,97.0
1523,A2,111.25,167/1000,120,97.0
1524,C2,111.25,0.75,120,97.0
1525,G2,111.5,0.5,120,97.0
1526,F#2,111.5,0.5,100,97.0
1527,C#4,111.5,0.5,100,97.0
1528,F3,111.5,0.25,100,97.0
1529,A3,111.5,0.25,100,97.0
1530,C4,111.5,0.25,100,97.0
1531,C4,111.5,0.25,100,97.0
1532,C2,111.75,0.25,120,97.0
1533,C#4,111.75,0.25,100,97.0
1534,F2,112.0,1.5,120,97.0
1535,F3,112.0,229/500,100,97.0
1536,E4,112.0,229/500,125,97.0
1537,C2,112.0,1.0,120,97.0
1538,C2,112.0,0.25,120,97.0
1539,F#2,112.0,1.0,100,97.0
1540,F#2,112.0,0.5,100,97.0
1541,C2,112.0,0.75,120,97.0
1542,D4,112.0,1.0,100,97.0
1543,C#4,112.0,0.5,100,97.0
1544,C#4,112.0,0.75,100,97.0
1545,F3,112.0,417/1000,100,97.0
1546,A3,112.0,417/1000,100,97.0
1547,C4,112.0,417/1000,100,97.0
1548,F3,112.5,229/500,100,97.0
1549,E4,112.5,229/500,125,97.0
1550,F#2,112.5,1.0,100,97.0
1551,G4,112.75,0.375,100,97.0
1552,B4,112.75,0.375,100,97.0
1553,D4,112.75,0.375,100,97.0
1554,F3,113.0,26/125,100,97.0
1555,E4,113.0,26/125,125,97.0
1556,E2,113.0,1.0,120,97.0
1557,F#2,113.0,1.0,100,97.0
1558,D4,113.0,1.0,100,97.0
1559,F3,113.25,26/125,100,97.0
1560,E4,113.25,26/125,125,97.0
1561,F3,113.25,2.0,100,97.0
1562,A3,113.25,2.0,100,97.0
1563,C4,113.25,2.0,100,97.0
1564,F3,113.5,26/125,100,97.0
1565,E4,113.5,26/125,125,97.0
1566,F#2,113.5,1.0,100,97.0
1567,D4,113.5,1.0,100,97.0
1568,F2,113.75,167/1000,120,97.0
1569,F3,113.75,26/125,100,97.0
1570,E4,113.75,26/125,125,97.0
1571,C2,113.75,1.0,120,97.0
1572,D4,113.75,1.0,100,97.0
1573,E2,114.0,667/1000,120,97.0
1574,E3,114.0,26/125,100,97.0
1575,D4,114.0,26/125,125,97.0
1576,D4,114.0,1.0,100,97.0
1577,F#2,114.0,1.0,110,97.0
1578,C2,114.0,1.0,110,97.0
1579,E3,114.25,229/500,100,97.0
1580,E4,114.25,229/500,125,97.0
1581,A3,114.5,229/500,100,97.0
1582,D4,114.5,1.0,100,97.0
1583,F#2,114.5,1.0,110,97.0
1584,C2,114.5,1.0,110,97.0
1585,D2,114.75,229/500,120,97.0
1586,D3,114.75,583/1000,100,97.0
1587,C4,114.75,583/1000,125,97.0
1588,A3,115.0,229/500,100,97.0
1589,E2,115.0,1.0,120,97.0
1590,F#2,115.0,1.0,100,97.0
1591,C#4,115.0,1.0,100,97.0
1592,D2,115.5,0.5,120,97.0
1593,A3,115.5,26/125,100,97.0
1594,A3,115.5,229/500,100,97.0
1595,C#4,115.5,0.5,100,97.0
1596,F3,115.5,1.0,100,97.0
1597,A3,115.5,1.0,100,97.0
1598,C4,115.5,1.0,100,97.0
1599,E4,115.5,1.0,100,97.0
1600,C2,115.5,0.5,110,97.0
1601,B-2,115.5,0.5,110,97.0
1602,G5,115.5,0.5,100,97.0
1603,G4,115.5,0.5,100,97.0
1604,A3,115.75,26/125,100,97.0
1605,D2,116.0,1.5,120,97.0
1606,A3,116.0,26/125,100,97.0
1607,C4,116.0,229/500,100,97.0
1608,D4,116.0,1.0,100,97.0
1609,C#4,116.0,0.5,100,97.0
1610,E2,116.0,1.0,110,97.0
1611,F#2,116.0,1.0,110,97.0
1612,C2,116.0,0.5,110,97.0
1613,B-2,116.0,0.5,110,97.0
1614,G5,116.0,0.75,100,97.0
1615,G4,116.0,0.75,100,97.0
1616,A3,116.25,26/125,100,97.0
1617,G3,116.5,26/125,100,97.0
1618,A3,116.5,229/500,100,97.0
1619,F#2,116.5,1.0,100,97.0
1620,F3,116.5,1.0,100,97.0
1621,A3,116.5,1.0,100,97.0
1622,C4,116.5,1.0,100,97.0
1623,E4,116.5,1.0,100,97.0
1624,G3,116.75,229/500,100,97.0
1625,C4,117.0,229/500,100,97.0
1626,E2,117.0,1.0,120,97.0
1627,F#2,117.0,1.0,100,97.0
1628,D4,117.0,1.0,100,97.0
1629,G4,117.0,67/1000,100,97.0
1630,F3,117.25,583/1000,100,97.0
1631,A3,117.5,229/500,100,97.0
1632,F#2,117.5,1.0,100,97.0
1633,D4,117.5,1.0,100,97.0
1634,A4,117.5,67/1000,100,97.0
1635,D4,117.5,667/1000,100,97.0
1636,B3,117.5,667/1000,100,97.0
1637,G3,117.5,667/1000,100,97.0
1638,E3,117.5,667/1000,100,97.0
1639,D2,117.75,167/1000,120,97.0
1640,C2,117.75,1.0,120,97.0
1641,D4,117.75,1.0,100,97.0
1642,D2,118.0,167/1000,120,97.0
1643,D4,118.0,667/1000,100,97.0
1644,D4,118.0,1.0,100,97.0
1645,E4,118.0,67/1000,100,97.0
1646,F#2,118.0,1.0,110,97.0
1647,C2,118.0,1.0,110,97.0
1648,D2,118.25,229/500,120,97.0
1649,D4,118.25,1.0,100,97.0
1650,A3,118.25,0.5,100,97.0
1651,F3,118.25,0.5,100,97.0
1652,C4,118.25,0.5,100,97.0
1653,D4,118.5,1.0,100,97.0
1654,F#2,118.5,1.0,110,97.0
1655,C2,118.5,1.0,110,97.0
1656,C2,118.75,229/500,120,97.0
1657,A3,118.75,0.75,100,97.0
1658,D4,118.75,1.0,100,97.0
1659,F#2,119.0,1.0,100,97.0
1660,C#4,119.0,1.0,100,97.0
1661,E4,119.0,67/1000,100,97.0
1662,F3,119.0,0.5,100,97.0
1663,A3,119.0,0.5,100,97.0
1664,C4,119.0,0.5,100,97.0
1665,C4,119.0,0.5,100,97.0
1666,C2,119.0,1.0,120,97.0
1667,E2,119.0,1.0,120,97.0
1668,C2,119.25,167/1000,120,97.0
1669,C2,119.25,0.75,120,97.0
1670,A1,119.5,229/500,120,97.0
1671,F#2,119.5,0.5,100,97.0
1672,C#4,119.5,0.5,100,97.0
1673,C4,119.5,333/1000,100,97.0
1674,F3,119.5,0.25,100,97.0
1675,A3,119.5,0.25,100,97.0
1676,C4,119.5,0.25,100,97.0
1677,C4,119.5,0.25,100,97.0
1678,C2,119.75,0.25,120,97.0
1679,C#4,119.75,0.25,100,97.0
1680,F1,120.0,1.5,120,97.0
1681,F3,120.0,229/500,100,97.0
1682,E4,120.0,229/500,125,97.0
1683,C2,120.0,1.0,120,97.0
1684,C2,120.0,0.25,120,97.0
1685,F#2,120.0,1.0,100,97.0
1686,F#2,120.0,0.5,100,97.0
1687,C2,120.0,0.75,120,97.0
1688,D4,120.0,1.0,100,97.0
1689,C#4,120.0,0.5,100,97.0
1690,C#4,120.0,0.75,100,97.0
1691,F3,120.0,417/1000,100,97.0
1692,A3,120.0,417/1000,100,97.0
1693,C4,120.0,417/1000,100,97.0
1694,F3,120.5,229/500,100,97.0
1695,E4,120.5,229/500,125,97.0
1696,F#2,120.5,1.0,100,97.0
1697,G4,120.75,0.375,100,97.0
1698,B4,120.75,0.375,100,97.0
1699,D4,120.75,0.375,100,97.0
1700,F3,121.0,26/125,100,97.0
1701,E4,121.0,26/125,125,97.0
1702,E2,121.0,1.0,120,97.0
1703,F#2,121.0,1.0,100,97.0
1704,D4,121.0,1.0,100,97.0
1705,F3,121.25,26/125,100,97.0
1706,E4,121.25,26/125,125,97.0
1707,F3,121.25,2.0,100,97.0
1708,A3,121.25,2.0,100,97.0
1709,C4,121.25,2.0,100,97.0
1710,F3,121.5,26/125,100,97.0
1711,E4,121.5,26/125,125,97.0
1712,F#2,121.5,1.0,100,97.0
1713,D4,121.5,1.0,100,97.0
1714,F1,121.75,167/1000,120,97.0
1715,F3,121.75,26/125,100,97.0
1716,E4,121.75,26/125,125,97.0
1717,C2,121.75,1.0,120,97.0
1718,D4,121.75,1.0,100,97.0
1719,E2,122.0,667/1000,120,97.0
1720,E3,122.0,26/125,100,97.0
1721,D4,122.0,26/125,125,97.0
1722,D4,122.0,1.0,100,97.0
1723,F#2,122.0,1.0,110,97.0
1724,C2,122.0,1.0,110,97.0
1725,E3,122.25,229/500,100,97.0
1726,E4,122.25,229/500,125,97.0
1727,A3,122.5,229/500,100,97.0
1728,D4,122.5,1.0,100,97.0
1729,F#2,122.5,1.0,110,97.0
1730,C2,122.5,1.0,110,97.0
1731,D2,122.75,229/500,120,97.0
1732,D3,122.75,583/1000,100,97.0
1733,C4,122.75,583/1000,125,97.0
1734,A3,123.0,229/500,100,97.0
1735,E2,123.0,1.0,120,97.0
1736,F#2,123.0,1.0,100,97.0
1737,C#4,123.0,1.0,100,97.0
1738,G1,123.5,0.5,120,97.0
1739,A3,123.5,26/125,100,97.0
1740,C#4,123.5,0.5,100,97.0
1741,G5,123.5,0.5,100,97.0
1742,F3,123.5,2.0,100,97.0
1743,A3,123.5,2.0,100,97.0
1744,C4,123.5,2.0,100,97.0
1745,E4,123.5,2.0,100,97.0
1746,C2,123.5,0.5,110,97.0
1747,C#3,123.5,0.5,110,97.0
1748,A3,123.75,26/125,100,97.0
1749,G1,124.0,0.5,120,97.0
1750,A3,124.0,26/125,100,97.0
1751,D4,124.0,1.0,100,97.0
1752,C#4,124.0,0.5,100,97.0
1753,G5,124.0,1.0,100,97.0
1754,C2,124.0,0.5,110,97.0
1755,C#3,124.0,0.5,110,97.0
1756,A3,124.25,26/125,100,97.0
1757,G1,124.5,417/1000,120,97.0
1758,G3,124.5,26/125,100,97.0
1759,C2,124.5,1.0,110,97.0
1760,F#2,124.5,1.0,110,97.0
1761,G3,124.75,229/500,100,97.0
1762,G1,125.0,417/1000,120,97.0
1763,C2,125.0,1.0,120,97.0
1764,F#2,125.0,1.0,100,97.0
1765,D4,125.0,1.0,100,97.0
1766,E5,125.0,0.25,100,97.0
1767,F3,125.25,583/1000,100,97.0
1768,G5,125.25,0.25,100,97.0
1769,G1,125.5,417/1000,120,97.0
1770,D4,125.5,1.0,100,97.0
1771,E5,125.5,1.5,100,97.0
1772,D4,125.5,667/1000,100,97.0
1773,B3,125.5,667/1000,100,97.0
1774,G3,125.5,667/1000,100,97.0
1775,E3,125.5,667/1000,100,97.0
1776,C2,125.5,1.0,110,97.0
1777,F#2,125.5,1.0,110,97.0
1778,D4,125.75,1.0,100,97.0
1779,G2,126.0,833/1000,120,97.0
1780,G3,126.0,229/500,125,97.0
1781,D4,126.0,1.0,100,97.0
1782,F#2,126.0,1.0,110,97.0
1783,C2,126.0,1.0,110,97.0
1784,D4,126.25,1.0,100,97.0
1785,A3,126.25,0.5,100,97.0
1786,F3,126.25,0.5,100,97.0
1787,C4,126.25,0.5,100,97.0
1788,A3,126.5,229/500,125,97.0
1789,D4,126.5,1.0,100,97.0
1790,F#2,126.5,1.0,110,97.0
1791,E2,126.5,1.0,110,97.0
1792,E2,126.75,1.0,120,97.0
1793,D4,126.75,1.0,100,97.0
1794,E2,126.875,1.0,120,97.0
1795,C2,127.0,229/500,120,97.0
1796,G4,127.0,1.0,125,97.0
1797,E2,127.0,1.0,120,97.0
1798,F#2,127.0,1.0,100,97.0
1799,C#4,127.0,1.0,100,97.0
1800,G3,127.0,0.5,100,97.0
1801,F4,127.0,0.5,100,97.0
1802,A3,127.0,0.5,100,97.0
1803,C4,127.0,0.5,100,97.0
1804,C#2,127.5,229/500,120,97.0
1805,B-2,127.5,0.5,100,97.0
1806,C#4,127.5,0.5,100,97.0
1807,G3,127.5,3.5,100,97.0
1808,F4,127.5,3.5,100,97.0
1809,A3,127.5,3.5,100,97.0
1810,C4,127.5,3.5,100,97.0
1811,C#4,127.75,0.25,100,97.0
1812,D2,128.0,1.5,120,97.0
1813,A4,128.0,0.25,125,97.0
1814,C2,128.0,1.0,120,97.0
1815,F#2,128.0,1.0,100,97.0
1816,B-2,128.0,0.5,100,97.0
1817,D4,128.0,1.0,100,97.0
1818,C#4,128.0,0.5,100,97.0
1819,C#4,128.0,0.75,100,97.0
1820,E4,128.25,0.75,125,97.0
1821,F#2,128.5,1.0,100,97.0
1822,C#2,129.0,1.0,120,97.0
1823,F#2,129.0,1.0,100,97.0
1824,D4,129.0,1.0,100,97.0
1825,D4,129.0,24/125,80,97.0
1826,F4,129.0,24/125,80,97.0
1827,A4,129.0,24/125,80,97.0
1828,D4,129.5,0.25,125,97.0
1829,F#2,129.5,1.0,100,97.0
1830,D4,129.5,1.0,100,97.0
1831,D2,129.75,0.125,120,97.0
1832,C4,129.75,0.25,125,97.0
1833,C2,129.75,1.0,120,97.0
1834,D4,129.75,1.0,100,97.0
1835,D2,130.0,229/500,120,97.0
1836,D4,130.0,833/1000,125,97.0
1837,C2,130.0,1.0,120,97.0
1838,F#2,130.0,1.0,100,97.0
1839,D4,130.0,1.0,100,97.0
1840,D2,130.5,667/1000,120,97.0
1841,C2,130.5,1.0,120,97.0
1842,F#2,130.5,1.0,100,97.0
1843,D4,130.5,1.0,100,97.0
1844,E4,131.0,0.5,125,97.0
1845,C#2,131.0,1.0,120,97.0
1846,F#2,131.0,1.0,100,97.0
1847,C#4,131.0,1.0,100,97.0
1848,D4,131.0,24/125,80,97.0
1849,F4,131.0,24/125,80,97.0
1850,A4,131.0,24/125,80,97.0
1851,D2,131.25,167/1000,120,97.0
1852,C2,131.25,0.75,120,97.0
1853,E2,131.5,0.5,120,97.0
1854,C4,131.5,0.5,125,97.0
1855,C2,131.5,0.5,120,97.0
1856,F#2,131.5,0.5,100,97.0
1857,C#4,131.5,0.5,100,97.0
1858,F4,131.5,667/1000,100,97.0
1859,A3,131.5,667/1000,100,97.0
1860,D4,131.5,667/1000,100,97.0
1861,C2,131.75,0.25,120,97.0
1862,A1,132.0,1.5,120,97.0
1863,C4,132.0,333/1000,125,97.0
1864,C2,132.0,1.0,120,97.0
1865,C2,132.0,0.25,120,97.0
1866,C2,132.0,0.5,120,97.0
1867,C2,132.0,0.75,120,97.0
1868,F#2,132.0,1.0,100,97.0
1869,F#2,132.0,0.5,100,97.0
1870,D4,132.0,1.0,100,97.0
1871,C#4,132.0,0.5,100,97.0
1872,A3,132.5,0.75,125,97.0
1873,F#2,132.5,1.0,100,97.0
1874,F4,132.5,667/1000,100,97.0
1875,A3,132.5,667/1000,100,97.0
1876,D4,132.5,667/1000,100,97.0
1877,A3,133.0,229/500,100,97.0
1878,C#2,133.0,1.0,120,97.0
1879,F#2,133.0,1.0,100,97.0
1880,D4,133.0,1.0,100,97.0
1881,D5,133.0,483/1000,100,97.0
1882,C4,133.0,24/125,80,97.0
1883,E4,133.0,24/125,80,97.0
1884,A4,133.0,24/125,80,97.0
1885,C4,133.5,177/250,100,97.0
1886,F#2,133.5,1.0,100,97.0
1887,D4,133.5,1.0,100,97.0
1888,B4,133.5,2.0,100,97.0
1889,F4,133.5,667/1000,100,97.0
1890,A3,133.5,667/1000,100,97.0
1891,D4,133.5,667/1000,100,97.0
1892,A1,133.75,0.125,120,97.0
1893,C2,133.75,1.0,120,97.0
1894,D4,133.75,1.0,100,97.0
1895,A1,134.0,229/500,120,97.0
1896,G3,134.0,229/500,125,97.0
1897,C2,134.0,1.0,120,97.0
1898,F#2,134.0,1.0,100,97.0
1899,D4,134.0,1.0,100,97.0
1900,G3,134.25,0.25,100,97.0
1901,D4,134.25,1.0,100,97.0
1902,A1,134.5,667/1000,120,97.0
1903,A3,134.5,1.0,100,97.0
1904,A3,134.5,229/500,125,97.0
1905,C2,134.5,1.0,120,97.0
1906,F#2,134.5,1.0,100,97.0
1907,D4,134.5,1.0,100,97.0
1908,F4,134.5,667/1000,100,97.0
1909,A3,134.5,667/1000,100,97.0
1910,D4,134.5,667/1000,100,97.0
1911,D4,134.75,1.0,100,97.0
1912,C4,135.0,229/500,125,97.0
1913,C#2,135.0,1.0,120,97.0
1914,F#2,135.0,1.0,100,97.0
1915,C#4,135.0,1.0,100,97.0
1916,C4,135.0,24/125,80,97.0
1917,E4,135.0,24/125,80,97.0
1918,A4,135.0,24/125,80,97.0
1919,A1,135.25,167/1000,120,97.0
1920,C2,135.25,0.75,120,97.0
1921,C2,135.5,0.5,120,97.0
1922,A3,135.5,229/500,125,97.0
1923,C2,135.5,0.5,120,97.0
1924,F#2,135.5,0.5,100,97.0
1925,C#4,135.5,0.5,100,97.0
1926,E4,135.5,667/1000,100,97.0
1927,A3,135.5,667/1000,100,97.0
1928,C4,135.5,667/1000,100,97.0
1929,A3,135.525,229/500,100,97.0
1930,C2,135.75,0.25,120,97.0
1931,C#4,135.75,0.25,100,97.0
1932,D2,136.0,1.5,120,97.0
1933,A2,136.0,667/1000,100,97.0
1934,D4,136.0,833/1000,125,97.0
1935,C2,136.0,1.0,120,97.0
1936,C2,136.0,0.25,120,97.0
1937,C2,136.0,0.5,120,97.0
1938,C2,136.0,0.75,120,97.0
1939,F#2,136.0,1.0,100,97.0
1940,F#2,136.0,0.5,100,97.0
1941,D4,136.0,1.0,100,97.0
1942,C#4,136.0,0.5,100,97.0
1943,C#4,136.0,0.75,100,97.0
1944,C4,136.025,177/250,100,97.0
1945,F#2,136.5,1.0,100,97.0
1946,E4,136.5,667/1000,100,97.0
1947,A3,136.5,667/1000,100,97.0
1948,C4,136.5,667/1000,100,97.0
1949,G3,136.775,0.25,100,97.0
1950,A2,137.0,667/1000,100,97.0
1951,D4,137.0,229/500,125,97.0
1952,C#2,137.0,1.0,120,97.0
1953,F#2,137.0,1.0,100,97.0
1954,D4,137.0,1.0,100,97.0
1955,D4,137.0,24/125,80,97.0
1956,F4,137.0,24/125,80,97.0
1957,A4,137.0,24/125,80,97.0
1958,A3,137.025,1.0,100,97.0
1959,D4,137.5,833/1000,125,97.0
1960,F#2,137.5,1.0,100,97.0
1961,D4,137.5,1.0,100,97.0
1962,E4,137.5,667/1000,100,97.0
1963,A3,137.5,667/1000,100,97.0
1964,C4,137.5,667/1000,100,97.0
1965,D2,137.75,0.125,120,97.0
1966,C2,137.75,1.0,120,97.0
1967,D4,137.75,1.0,100,97.0
1968,D2,138.0,229/500,120,97.0
1969,C2,138.0,1.0,120,97.0
1970,F#2,138.0,1.0,100,97.0
1971,D4,138.0,1.0,100,97.0
1972,D2,138.5,667/1000,120,97.0
1973,G4,138.5,833/1000,125,97.0
1974,C2,138.5,1.0,120,97.0
1975,F#2,138.5,1.0,100,97.0
1976,D4,138.5,1.0,100,97.0
1977,E4,138.5,667/1000,100,97.0
1978,A3,138.5,667/1000,100,97.0
1979,C4,138.5,667/1000,100,97.0
1980,C#2,139.0,1.0,120,97.0
1981,F#2,139.0,1.0,100,97.0
1982,C#4,139.0,1.0,100,97.0
1983,D4,139.0,24/125,80,97.0
1984,F4,139.0,24/125,80,97.0
1985,A4,139.0,24/125,80,97.0
1986,D2,139.25,26/125,120,97.0
1987,C2,139.25,0.75,120,97.0
1988,G2,139.5,0.5,120,97.0
1989,E4,139.5,0.5,125,97.0
1990,C2,139.5,0.5,120,97.0
1991,F#2,139.5,0.5,100,97.0
1992,C#4,139.5,0.5,100,97.0
1993,F4,139.5,667/1000,100,97.0
1994,A3,139.5,667/1000,100,97.0
1995,D4,139.5,667/1000,100,97.0
1996,C2,139.75,0.25,120,97.0
1997,A2,140.0,1.5,120,97.0
1998,E4,140.0,1.0,125,97.0
1999,C2,140.0,1.0,120,97.0
2000,C2,140.0,0.25,120,97.0
2001,C2,140.0,0.5,120,97.0
2002,C2,140.0,0.75,120,97.0
2003,F#2,140.0,1.0,100,97.0
2004,F#2,140.0,0.5,100,97.0
2005,D4,140.0,1.0,100,97.0
2006,C#4,140.0,0.5,100,97.0
2007,F#2,140.5,1.0,100,97.0
2008,F4,140.5,667/1000,100,97.0
2009,A3,140.5,667/1000,100,97.0
2010,D4,140.5,667/1000,100,97.0
2011,C#2,141.0,1.0,120,97.0
2012,F#2,141.0,1.0,100,97.0
2013,D4,141.0,1.0,100,97.0
2014,C5,141.0,0.5,100,97.0
2015,B4,141.0,0.5,100,97.0
2016,D5,141.0,0.5,100,97.0
2017,C4,141.0,24/125,80,97.0
2018,E4,141.0,24/125,80,97.0
2019,A4,141.0,24/125,80,97.0
2020,F#2,141.5,1.0,100,97.0
2021,D4,141.5,1.0,100,97.0
2022,F4,141.5,667/1000,100,97.0
2023,A3,141.5,667/1000,100,97.0
2024,D4,141.5,667/1000,100,97.0
2025,A4,141.5,0.5,100,97.0
2026,C5,141.5,0.5,100,97.0
2027,A4,141.5,0.375,100,97.0
2028,C5,141.5,0.375,100,97.0
2029,A2,141.75,0.125,120,97.0
2030,C2,141.75,1.0,120,97.0
2031,D4,141.75,1.0,100,97.0
2032,A2,142.0,229/500,120,97.0
2033,G3,142.0,229/500,125,97.0
2034,C2,142.0,1.0,120,97.0
2035,F#2,142.0,1.0,100,97.0
2036,D4,142.0,1.0,100,97.0
2037,D4,142.25,1.0,100,97.0
2038,G2,142.5,229/500,120,97.0
2039,A3,142.5,229/500,125,97.0
2040,C2,142.5,1.0,120,97.0
2041,F#2,142.5,1.0,100,97.0
2042,D4,142.5,1.0,100,97.0
2043,F4,142.5,667/1000,100,97.0
2044,A3,142.5,667/1000,100,97.0
2045,D4,142.5,667/1000,100,97.0
2046,D4,142.75,1.0,100,97.0
2047,E2,143.0,229/500,120,97.0
2048,G2,143.0,229/500,100,97.0
2049,C4,143.0,229/500,125,97.0
2050,C#2,143.0,1.0,120,97.0
2051,F#2,143.0,1.0,100,97.0
2052,C#4,143.0,1.0,100,97.0
2053,C4,143.0,24/125,80,97.0
2054,E4,143.0,24/125,80,97.0
2055,A4,143.0,24/125,80,97.0
2056,C2,143.25,0.75,120,97.0
2057,A1,143.5,0.5,120,97.0
2058,A3,143.5,229/500,125,97.0
2059,C2,143.5,0.5,120,97.0
2060,F#2,143.5,0.5,100,97.0
2061,C#4,143.5,0.5,100,97.0
2062,A2,143.5,667/1000,100,97.0
2063,E4,143.5,667/1000,100,97.0
2064,A3,143.5,667/1000,100,97.0
2065,C4,143.5,667/1000,100,97.0
2066,C2,143.75,0.25,120,97.0
2067,C#4,143.75,0.25,100,97.0
2068,D2,144.0,1.5,120,97.0
2069,D4,144.0,1.0,125,97.0
2070,C2,144.0,1.0,120,97.0
2071,C2,144.0,0.25,120,97.0
2072,C2,144.0,0.5,120,97.0
2073,C2,144.0,0.75,120,97.0
2074,F#2,144.0,1.0,100,97.0
2075,F#2,144.0,0.5,100,97.0
2076,D4,144.0,1.0,100,97.0
2077,C#4,144.0,0.5,100,97.0
2078,C#4,144.0,0.75,100,97.0
2079,F#2,144.5,1.0,100,97.0
2080,E4,144.5,667/1000,100,97.0
2081,A3,144.5,667/1000,100,97.0
2082,C4,144.5,667/1000,100,97.0
2083,D4,145.0,0.5,125,97.0
2084,C#2,145.0,1.0,120,97.0
2085,F#2,145.0,1.0,100,97.0
2086,D4,145.0,1.0,100,97.0
2087,D4,145.0,24/125,80,97.0
2088,F4,145.0,24/125,80,97.0
2089,A4,145.0,24/125,80,97.0
2090,A2,145.5,229/500,100,97.0
2091,C4,145.5,0.5,125,97.0
2092,F#2,145.5,1.0,100,97.0
2093,D4,145.5,1.0,100,97.0
2094,E4,145.5,667/1000,100,97.0
2095,A3,145.5,667/1000,100,97.0
2096,C4,145.5,667/1000,100,97.0
2097,D2,145.75,0.125,120,97.0
2098,C2,145.75,1.0,120,97.0
2099,D4,145.75,1.0,100,97.0
2100,D2,146.0,229/500,120,97.0
2101,G2,146.0,229/500,100,97.0
2102,D4,146.0,833/1000,125,97.0
2103,C2,146.0,1.0,120,97.0
2104,F#2,146.0,1.0,100,97.0
2105,D4,146.0,1.0,100,97.0
2106,D2,146.5,833/1000,120,97.0
2107,E2,146.5,229/500,100,97.0
2108,C2,146.5,1.0,120,97.0
2109,F#2,146.5,1.0,100,97.0
2110,D4,146.5,1.0,100,97.0
2111,E4,146.5,667/1000,100,97.0
2112,A3,146.5,667/1000,100,97.0
2113,C4,146.5,667/1000,100,97.0
2114,A1,147.0,0.5,100,97.0
2115,E4,147.0,0.5,125,97.0
2116,C#2,147.0,1.0,120,97.0
2117,F#2,147.0,1.0,100,97.0
2118,C#4,147.0,1.0,100,97.0
2119,D4,147.0,24/125,80,97.0
2120,F4,147.0,24/125,80,97.0
2121,A4,147.0,24/125,80,97.0
2122,C2,147.25,0.75,120,97.0
2123,E2,147.5,0.5,120,97.0
2124,C4,147.5,0.5,125,97.0
2125,C2,147.5,0.5,120,97.0
2126,F#2,147.5,0.5,100,97.0
2127,C#4,147.5,0.5,100,97.0
2128,F4,147.5,667/1000,100,97.0
2129,A3,147.5,667/1000,100,97.0
2130,D4,147.5,667/1000,100,97.0
2131,C2,147.75,0.25,120,97.0
2132,A1,148.0,1.5,120,97.0
2133,C4,148.0,333/1000,125,97.0
2134,C2,148.0,1.0,120,97.0
2135,C2,148.0,0.25,120,97.0
2136,C2,148.0,0.5,120,97.0
2137,C2,148.0,0.75,120,97.0
2138,F#2,148.0,1.0,100,97.0
2139,F#2,148.0,0.5,100,97.0
2140,D4,148.0,1.0,100,97.0
2141,C#4,148.0,0.5,100,97.0
2142,A3,148.5,0.75,125,97.0
2143,F#2,148.5,1.0,100,97.0
2144,F4,148.5,667/1000,100,97.0
2145,A3,148.5,667/1000,100,97.0
2146,D4,148.5,667/1000,100,97.0
2147,A3,149.0,229/500,100,97.0
2148,C#2,149.0,1.0,120,97.0
2149,F#2,149.0,1.0,100,97.0
2150,D4,149.0,1.0,100,97.0
2151,G5,149.0,0.25,100,97.0
2152,C4,149.0,24/125,80,97.0
2153,E4,149.0,24/125,80,97.0
2154,A4,149.0,24/125,80,97.0
2155,E5,149.25,0.25,100,97.0
2156,C4,149.5,177/250,100,97.0
2157,F#2,149.5,1.0,100,97.0
2158,D4,149.5,1.0,100,97.0
2159,C5,149.5,283/1000,100,97.0
2160,F4,149.5,667/1000,100,97.0
2161,A3,149.5,667/1000,100,97.0
2162,D4,149.5,667/1000,100,97.0
2163,A1,149.75,0.125,120,97.0
2164,C2,149.75,1.0,120,97.0
2165,D4,149.75,1.0,100,97.0
2166,A1,150.0,229/500,120,97.0
2167,G3,150.0,229/500,125,97.0
2168,C2,150.0,1.0,120,97.0
2169,F#2,150.0,1.0,100,97.0
2170,D4,150.0,1.0,100,97.0
2171,D5,150.0,0.5,100,97.0
2172,G3,150.25,0.25,100,97.0
2173,D4,150.25,1.0,100,97.0
2174,A1,150.5,667/1000,120,97.0
2175,A3,150.5,1.0,100,97.0
2176,A3,150.5,229/500,125,97.0
2177,C2,150.5,1.0,120,97.0
2178,F#2,150.5,1.0,100,97.0
2179,D4,150.5,1.0,100,97.0
2180,C5,150.5,0.5,100,97.0
2181,F4,150.5,667/1000,100,97.0
2182,A3,150.5,667/1000,100,97.0
2183,D4,150.5,667/1000,100,97.0
2184,D4,150.75,1.0,100,97.0
2185,C4,151.0,229/500,125,97.0
2186,C#2,151.0,1.0,120,97.0
2187,F#2,151.0,1.0,100,97.0
2188,C#4,151.0,1.0,100,97.0
2189,D5,151.0,1.0,100,97.0
2190,C4,151.0,24/125,80,97.0
2191,E4,151.0,24/125,80,97.0
2192,A4,151.0,24/125,80,97.0
2193,A1,151.25,167/1000,120,97.0
2194,C2,151.25,0.75,120,97.0
2195,C2,151.5,0.5,120,97.0
2196,A3,151.5,229/500,125,97.0
2197,C2,151.5,0.5,120,97.0
2198,F#2,151.5,0.5,100,97.0
2199,C#4,151.5,0.5,100,97.0
2200,E4,151.5,667/1000,100,97.0
2201,A3,151.5,667/1000,100,97.0
2202,C4,151.5,667/1000,100,97.0
2203,A3,151.525,229/500,100,97.0
2204,C2,151.75,0.25,120,97.0
2205,C#4,151.75,0.25,100,97.0
2206,D2,152.0,1.5,120,97.0
2207,A2,152.0,667/1000,100,97.0
2208,D4,152.0,229/500,125,97.0
2209,C2,152.0,1.0,120,97.0
2210,C2,152.0,0.25,120,97.0
2211,C2,152.0,0.5,120,97.0
2212,C2,152.0,0.75,120,97.0
2213,F#2,152.0,1.0,100,97.0
2214,F#2,152.0,0.5,100,97.0
2215,D4,152.0,1.0,100,97.0
2216,C#4,152.0,0.5,100,97.0
2217,C#4,152.0,0.75,100,97.0
2218,C4,152.025,177/250,100,97.0
2219,D4,152.5,229/500,125,97.0
2220,F#2,152.5,1.0,100,97.0
2221,E4,152.5,667/1000,100,97.0
2222,A3,152.5,667/1000,100,97.0
2223,C4,152.5,667/1000,100,97.0
2224,G3,152.775,0.25,100,97.0
2225,A2,153.0,667/1000,100,97.0
2226,C#2,153.0,1.0,120,97.0
2227,F#2,153.0,1.0,100,97.0
2228,D4,153.0,1.0,100,97.0
2229,D4,153.0,24/125,80,97.0
2230,F4,153.0,24/125,80,97.0
2231,A4,153.0,24/125,80,97.0
2232,A3,153.025,1.0,100,97.0
2233,D4,153.5,833/1000,125,97.0
2234,F#2,153.5,1.0,100,97.0
2235,D4,153.5,1.0,100,97.0
2236,E4,153.5,667/1000,100,97.0
2237,A3,153.5,667/1000,100,97.0
2238,C4,153.5,667/1000,100,97.0
2239,D2,153.75,0.125,120,97.0
2240,C2,153.75,1.0,120,97.0
2241,D4,153.75,1.0,100,97.0
2242,D2,154.0,229/500,120,97.0
2243,C2,154.0,1.0,120,97.0
2244,F#2,154.0,1.0,100,97.0
2245,D4,154.0,1.0,100,97.0
2246,D2,154.5,667/1000,120,97.0
2247,D4,154.5,229/500,125,97.0
2248,C2,154.5,1.0,120,97.0
2249,F#2,154.5,1.0,100,97.0
2250,D4,154.5,1.0,100,97.0
2251,E4,154.5,667/1000,100,97.0
2252,A3,154.5,667/1000,100,97.0
2253,C4,154.5,667/1000,100,97.0
2254,C4,155.0,0.5,125,97.0
2255,C#2,155.0,1.0,120,97.0
2256,F#2,155.0,1.0,100,97.0
2257,C#4,155.0,1.0,100,97.0
2258,D4,155.0,24/125,80,97.0
2259,F4,155.0,24/125,80,97.0
2260,A4,155.0,24/125,80,97.0
2261,D2,155.25,167/1000,120,97.0
2262,C2,155.25,0.75,120,97.0
2263,D2,155.5,0.5,120,97.0
2264,D4,155.5,0.5,125,97.0
2265,C2,155.5,0.5,120,97.0
2266,F#2,155.5,0.5,100,97.0
2267,C#4,155.5,0.5,100,97.0
2268,F4,155.5,667/1000,100,97.0
2269,A3,155.5,667/1000,100,97.0
2270,D4,155.5,667/1000,100,97.0
2271,C2,155.75,0.25,120,97.0
2272,G2,156.0,1.5,120,97.0
2273,D4,156.0,1.0,125,97.0
2274,C2,156.0,1.0,120,97.0
2275,C2,156.0,0.25,120,97.0
2276,C2,156.0,0.5,120,97.0
2277,C2,156.0,0.75,120,97.0
2278,F#2,156.0,1.0,100,97.0
2279,F#2,156.0,0.5,100,97.0
2280,D4,156.0,1.0,100,97.0
2281,C#4,156.0,0.5,100,97.0
2282,F#2,156.5,1.0,100,97.0
2283,F4,156.5,667/1000,100,97.0
2284,A3,156.5,667/1000,100,97.0
2285,D4,156.5,667/1000,100,97.0
2286,C#2,157.0,1.0,120,97.0
2287,F#2,157.0,1.0,100,97.0
2288,D4,157.0,1.0,100,97.0
2289,B3,157.0,24/125,80,97.0
2290,D4,157.0,24/125,80,97.0
2291,G4,157.0,24/125,80,97.0
2292,G2,157.5,229/500,120,97.0
2293,F#2,157.5,1.0,100,97.0
2294,D4,157.5,1.0,100,97.0
2295,F4,157.5,667/1000,100,97.0
2296,A3,157.5,667/1000,100,97.0
2297,D4,157.5,667/1000,100,97.0
2298,C2,157.75,1.0,120,97.0
2299,D4,157.75,1.0,100,97.0
2300,G1,158.0,229/500,120,97.0
2301,C2,158.0,1.0,120,97.0
2302,F#2,158.0,1.0,100,97.0
2303,D4,158.0,1.0,100,97.0
2304,D4,158.25,1.0,100,97.0
2305,D2,158.5,229/500,120,97.0
2306,C4,158.5,229/500,125,97.0
2307,E2,158.5,1.0,120,97.0
2308,F#2,158.5,1.0,100,97.0
2309,D4,158.5,1.0,100,97.0
2310,F4,158.5,667/1000,100,97.0
2311,A3,158.5,667/1000,100,97.0
2312,D4,158.5,667/1000,100,97.0
2313,D4,158.75,1.0,100,97.0
2314,G2,159.0,229/500,120,97.0
2315,D4,159.0,229/500,125,97.0
2316,E2,159.0,1.0,120,97.0
2317,F#2,159.0,1.0,100,97.0
2318,C#4,159.0,1.0,100,97.0
2319,B3,159.0,24/125,80,97.0
2320,D4,159.0,24/125,80,97.0
2321,G4,159.0,24/125,80,97.0
2322,E2,159.25,0.75,120,97.0
2323,F#2,159.5,229/500,120,97.0
2324,E4,159.5,0.5,125,97.0
2325,E2,159.5,0.5,120,97.0
2326,F#2,159.5,0.5,100,97.0
2327,C#4,159.5,0.5,100,97.0
2328,D4,159.5,667/1000,100,97.0
2329,G4,159.5,667/1000,100,97.0
2330,B4,159.5,667/1000,100,97.0
2331,C2,159.75,0.25,120,97.0
2332,C#4,159.75,0.25,100,97.0
2333,F2,160.0,1.5,120,97.0
2334,F3,160.0,2.0,100,97.0
2335,E4,160.0,1.0,125,97.0
2336,C2,160.0,1.0,120,97.0
2337,E2,160.0,0.25,120,97.0
2338,E2,160.0,0.5,120,97.0
2339,C2,160.0,0.75,120,97.0
2340,B-2,160.0,1.0,100,97.0
2341,F#2,160.0,0.5,100,97.0
2342,D4,160.0,1.0,100,97.0
2343,C#4,160.0,0.5,100,97.0
2344,C#4,160.0,0.75,100,97.0
2345,F#2,160.5,1.0,100,97.0
2346,D4,160.5,667/1000,100,97.0
2347,B4,160.5,667/1000,100,97.0
2348,G4,160.5,667/1000,100,97.0
2349,C#2,161.0,1.0,120,97.0
2350,F#2,161.0,1.0,100,97.0
2351,D4,161.0,1.0,100,97.0
2352,G1,161.5,229/500,100,97.0
2353,E4,161.5,229/500,125,97.0
2354,F#2,161.5,1.0,100,97.0
2355,D4,161.5,1.0,100,97.0
2356,D4,161.5,667/1000,100,97.0
2357,G4,161.5,667/1000,100,97.0
2358,B4,161.5,667/1000,100,97.0
2359,F2,161.75,167/1000,120,97.0
2360,C2,161.75,1.0,120,97.0
2361,D4,161.75,1.0,100,97.0
2362,E2,162.0,229/500,120,97.0
2363,D2,162.0,229/500,100,97.0
2364,E3,162.0,1.5,100,97.0
2365,D4,162.0,833/1000,125,97.0
2366,D4,162.0,1.0,100,97.0
2367,F#2,162.0,1.0,110,97.0
2368,C2,162.0,1.0,110,97.0
2369,E2,162.5,1.0,120,97.0
2370,G2,162.5,229/500,100,97.0
2371,D4,162.5,1.0,100,97.0
2372,G4,162.5,667/1000,100,97.0
2373,B4,162.5,667/1000,100,97.0
2374,D4,162.5,667/1000,100,97.0
2375,E4,162.5,2.0,100,97.0
2376,A4,162.5,2.0,100,97.0
2377,F#2,162.5,1.0,110,97.0
2378,C2,162.5,1.0,110,97.0
2379,F#2,163.0,229/500,100,97.0
2380,E4,163.0,229/500,125,97.0
2381,C#2,163.0,1.0,120,97.0
2382,F#2,163.0,1.0,100,97.0
2383,C#4,163.0,1.0,100,97.0
2384,D2,163.5,0.5,120,97.0
2385,D3,163.5,0.5,100,97.0
2386,C4,163.5,0.5,125,97.0
2387,C#4,163.5,0.5,100,97.0
2388,A3,163.5,0.5,100,97.0
2389,C4,163.5,0.5,100,97.0
2390,E4,163.5,2.0,100,97.0
2391,F3,163.5,2.0,100,97.0
2392,A3,163.5,2.0,100,97.0
2393,C4,163.5,2.0,100,97.0
2394,C2,163.5,0.5,110,97.0
2395,B-2,163.5,0.5,110,97.0
2396,D2,164.0,0.5,120,97.0
2397,D3,164.0,2.5,100,97.0
2398,C4,164.0,333/1000,125,97.0
2399,F#2,164.0,1.0,100,97.0
2400,D4,164.0,1.0,100,97.0
2401,C#4,164.0,0.5,100,97.0
2402,A3,164.0,2.0,100,97.0
2403,C4,164.0,2.0,100,97.0
2404,C2,164.0,0.5,110,97.0
2405,B-2,164.0,0.5,110,97.0
2406,D2,164.5,333/1000,120,97.0
2407,A3,164.5,1.0,125,97.0
2408,F#2,164.5,1.0,100,97.0
2409,D4,164.5,1.5,100,97.0
2410,G4,164.5,1.5,100,97.0
2411,C#2,165.0,1.0,120,97.0
2412,F#2,165.0,1.0,100,97.0
2413,D4,165.0,1.0,100,97.0
2414,F#2,165.5,1.0,100,97.0
2415,D4,165.5,1.0,100,97.0
2416,D4,165.5,1.5,100,97.0
2417,B3,165.5,1.5,100,97.0
2418,G3,165.5,1.5,100,97.0
2419,E3,165.5,1.5,100,97.0
2420,A1,165.75,167/1000,120,97.0
2421,C2,165.75,1.0,120,97.0
2422,D4,165.75,1.0,100,97.0
2423,D2,166.0,229/500,120,97.0
2424,C5,166.0,1.0,100,97.0
2425,D4,166.0,1.0,100,97.0
2426,C4,166.0,0.5,100,97.0
2427,F4,166.0,0.5,100,97.0
2428,F#2,166.0,1.0,110,97.0
2429,C2,166.0,1.0,110,97.0
2430,D4,166.25,1.0,100,97.0
2431,E2,166.5,229/500,120,97.0
2432,D4,166.5,0.25,125,97.0
2433,D4,166.5,1.0,100,97.0
2434,F#2,166.5,1.0,110,97.0
2435,C2,166.5,1.0,110,97.0
2436,D4,166.75,229/500,125,97.0
2437,D4,166.75,1.0,100,97.0
2438,F2,167.0,26/125,120,97.0
2439,G5,167.0,1.0,100,97.0
2440,F#2,167.0,1.0,100,97.0
2441,C#4,167.0,1.0,100,97.0
2442,F3,167.0,0.5,100,97.0
2443,A3,167.0,0.5,100,97.0
2444,C4,167.0,0.5,100,97.0
2445,C2,167.0,1.0,120,97.0
2446,C#2,167.0,1.0,120,97.0
2447,G2,167.25,167/1000,120,97.0
2448,C2,167.25,0.75,120,97.0
2449,A2,167.5,0.5,120,97.0
2450,D4,167.5,0.5,125,97.0
2451,F#2,167.5,0.5,100,97.0
2452,C#4,167.5,0.5,100,97.0
2453,C2,167.75,0.25,120,97.0
2454,C#4,167.75,0.25,100,97.0
2455,B-2,168.0,729/500,120,97.0
2456,E-4,168.0,2.0,100,97.0
2457,B4,168.0,1.0,100,97.0
2458,E-4,168.0,0.5,125,97.0
2459,C2,168.0,1.0,120,97.0
2460,C2,168.0,0.25,120,97.0
2461,G3,168.0,1.0,100,97.0
2462,F#2,168.0,0.5,100,97.0
2463,C2,168.0,0.75,120,97.0
2464,D4,168.0,1.0,100,97.0
2465,C#4,168.0,0.5,100,97.0
2466,C#4,168.0,0.75,100,97.0
2467,C4,168.5,0.75,125,97.0
2468,F#2,168.5,1.0,100,97.0
2469,G5,169.0,0.5,100,97.0
2470,C#2,169.0,1.0,120,97.0
2471,F#2,169.0,1.0,100,97.0
2472,D4,169.0,1.0,100,97.0
2473,C4,169.0,2.5,100,97.0
2474,F4,169.0,2.5,100,97.0
2475,B-2,169.5,229/500,120,97.0
2476,C5,169.5,0.5,100,97.0
2477,A4,169.5,0.5,125,97.0
2478,D4,169.5,1.0,100,97.0
2479,C2,169.5,1.0,110,97.0
2480,G3,169.5,1.0,110,97.0
2481,D4,169.75,1.0,100,97.0
2482,A2,170.0,229/500,120,97.0
2483,D4,170.0,667/1000,100,97.0
2484,C5,170.0,2.0,100,97.0
2485,C5,170.0,229/500,125,97.0
2486,D4,170.0,1.0,100,97.0
2487,D2,170.5,229/500,120,97.0
2488,A4,170.5,229/500,125,97.0
2489,E2,170.5,1.0,120,97.0
2490,D4,170.5,1.0,100,97.0
2491,E2,171.0,26/125,120,97.0
2492,A4,171.0,229/500,125,97.0
2493,E2,171.0,1.0,120,97.0
2494,C#4,171.0,1.0,100,97.0
2495,F3,171.0,3.5,100,97.0
2496,A3,171.0,3.5,100,97.0
2497,C4,171.0,3.5,100,97.0
2498,G1,171.5,0.5,120,97.0
2499,C4,171.5,0.5,100,97.0
2500,E4,171.5,0.5,125,97.0
2501,C#4,171.5,0.5,100,97.0
2502,C#3,171.5,0.5,110,97.0
2503,C2,171.5,0.5,110,97.0
2504,G1,172.0,0.5,120,97.0
2505,C4,172.0,2.5,100,97.0
2506,D5,172.0,0.5,100,97.0
2507,C4,172.0,1.0,125,97.0
2508,D4,172.0,1.0,100,97.0
2509,C#4,172.0,0.5,100,97.0
2510,C#3,172.0,0.5,110,97.0
2511,C2,172.0,0.5,110,97.0
2512,G1,172.5,229/500,120,97.0
2513,E5,172.5,0.5,100,97.0
2514,C2,172.5,1.0,110,97.0
2515,B-2,172.5,1.0,110,97.0
2516,G1,173.0,229/500,120,97.0
2517,F5,173.0,0.25,100,97.0
2518,C2,173.0,1.0,120,97.0
2519,B-2,173.0,1.0,100,97.0
2520,D4,173.0,1.0,100,97.0
2521,G5,173.25,0.25,100,97.0
2522,G2,173.5,167/1000,120,97.0
2523,A5,173.5,0.5,100,97.0
2524,D4,173.5,1.0,100,97.0
2525,C2,173.5,1.0,110,97.0
2526,B-2,173.5,1.0,110,97.0
2527,G2,173.75,167/1000,120,97.0
2528,D4,173.75,1.0,100,97.0
2529,G2,174.0,0.5,120,97.0
2530,B-5,174.0,2.0,100,97.0
2531,C2,174.0,1.0,120,97.0
2532,B-2,174.0,1.0,100,97.0
2533,D4,174.0,1.0,100,97.0
2534,D4,174.25,1.0,100,97.0
2535,G2,174.5,167/1000,120,97.0
2536,C5,174.5,229/500,125,97.0
2537,C2,174.5,1.0,120,97.0
2538,B-2,174.5,1.0,100,97.0
2539,D4,174.5,1.0,100,97.0
2540,G2,174.75,167/1000,120,97.0
2541,D4,174.75,1.0,100,97.0
2542,G2,175.0,26/125,120,97.0
2543,A4,175.0,0.5,125,97.0
2544,E2,175.0,1.0,120,97.0
2545,C#4,175.0,1.0,100,97.0
2546,E-4,175.0,0.75,100,97.0
2547,C4,175.0,0.75,100,97.0
2548,G#3,175.0,0.75,100,97.0
2549,G2,175.25,26/125,120,97.0
2550,E2,175.25,0.75,120,97.0
2551,G2,175.5,26/125,120,97.0
2552,E4,175.5,0.5,125,97.0
2553,E2,175.5,0.5,120,97.0
2554,C#4,175.5,0.5,100,97.0
2555,A2,175.75,26/125,120,97.0
2556,C#4,175.75,0.25,100,97.0
2557,F2,176.0,1.5,120,97.0
2558,A5,176.0,667/1000,100,97.0
2559,F3,176.0,229/500,100,97.0
2560,E4,176.0,229/500,125,97.0
2561,C2,176.0,1.0,120,97.0
2562,E2,176.0,0.25,120,97.0
2563,F#2,176.0,1.0,100,97.0
2564,E2,176.0,0.5,120,97.0
2565,D4,176.0,1.0,100,97.0
2566,C#4,176.0,0.5,100,97.0
2567,C#4,176.0,0.75,100,97.0
2568,C4,176.0,0.75,100,97.0
2569,E-4,176.0,0.75,100,97.0
2570,G#3,176.0,0.75,100,97.0
2571,C6,176.025,2.0,100,97.0
2572,F3,176.5,229/500,100,97.0
2573,E4,176.5,229/500,125,97.0
2574,F#2,176.5,1.0,100,97.0
2575,A5,176.75,667/1000,100,97.0
2576,F3,177.0,26/125,100,97.0
2577,E4,177.0,26/125,125,97.0
2578,E2,177.0,1.0,120,97.0
2579,F#2,177.0,1.0,100,97.0
2580,D4,177.0,1.0,100,97.0
2581,D4,177.0,0.75,100,97.0
2582,G3,177.0,0.75,100,97.0
2583,B3,177.0,0.75,100,97.0
2584,F3,177.25,26/125,100,97.0
2585,E4,177.25,26/125,125,97.0
2586,F2,177.5,167/1000,120,97.0
2587,G5,177.5,0.5,100,97.0
2588,F3,177.5,26/125,100,97.0
2589,E4,177.5,26/125,125,97.0
2590,F#2,177.5,1.0,100,97.0
2591,D4,177.5,1.0,100,97.0
2592,F2,177.75,167/1000,120,97.0
2593,F3,177.75,26/125,100,97.0
2594,E4,177.75,26/125,125,97.0
2595,C2,177.75,1.0,120,97.0
2596,D4,177.75,1.0,100,97.0
2597,E2,178.0,667/1000,120,97.0
2598,G5,178.0,2.5,100,97.0
2599,E3,178.0,26/125,100,97.0
2600,D4,178.0,26/125,125,97.0
2601,D4,178.0,1.0,100,97.0
2602,B3,178.0,229/500,100,97.0
2603,G3,178.0,229/500,100,97.0
2604,D4,178.0,229/500,100,97.0
2605,F#2,178.0,1.0,110,97.0
2606,C2,178.0,1.0,110,97.0
2607,B5,178.025,0.75,100,97.0
2608,E3,178.25,229/500,100,97.0
2609,E4,178.25,229/500,125,97.0
2610,D4,178.5,1.0,100,97.0
2611,C4,178.5,0.5,100,97.0
2612,A3,178.5,0.5,100,97.0
2613,F3,178.5,0.5,100,97.0
2614,F#2,178.5,1.0,110,97.0
2615,C2,178.5,1.0,110,97.0
2616,D2,178.75,229/500,120,97.0
2617,D3,178.75,583/1000,100,97.0
2618,C4,178.75,583/1000,125,97.0
2619,A5,178.775,49/40,100,97.0
2620,E2,179.0,1.0,120,97.0
2621,F#2,179.0,1.0,100,97.0
2622,C#4,179.0,1.0,100,97.0
2623,C4,179.0,3.5,100,97.0
2624,A3,179.0,3.5,100,97.0
2625,F3,179.0,3.5,100,97.0
2626,D2,179.5,0.5,120,97.0
2627,E4,179.5,0.25,100,97.0
2628,C#4,179.5,0.5,100,97.0
2629,C2,179.5,0.5,110,97.0
2630,B-2,179.5,0.5,110,97.0
2631,C5,179.5,0.5,100,97.0
2632,G4,179.5,0.5,100,97.0
2633,E4,179.75,0.25,100,97.0
2634,D2,180.0,0.5,120,97.0
2635,A5,180.0,71/40,100,97.0
2636,E4,180.0,229/500,100,97.0
2637,D4,180.0,1.0,100,97.0
2638,C#4,180.0,0.5,100,97.0
2639,E2,180.0,1.0,110,97.0
2640,F#2,180.0,1.0,110,97.0
2641,C2,180.0,0.5,110,97.0
2642,B-2,180.0,0.5,110,97.0
2643,C5,180.0,1.5,100,97.0
2644,G4,180.0,1.5,100,97.0
2645,D3,180.5,167/1000,120,97.0
2646,E4,180.5,229/500,100,97.0
2647,F#2,180.5,1.0,100,97.0
2648,C3,180.75,167/1000,120,97.0
2649,D3,181.0,667/1000,120,97.0
2650,A3,181.0,229/500,100,97.0
2651,E4,181.0,229/500,100,97.0
2652,E2,181.0,1.0,120,97.0
2653,F#2,181.0,1.0,100,97.0
2654,D4,181.0,1.0,100,97.0
2655,A3,181.5,229/500,100,97.0
2656,E4,181.5,229/500,100,97.0
2657,F#2,181.5,1.0,100,97.0
2658,D4,181.5,1.0,100,97.0
2659,D3,181.75,167/1000,120,97.0
2660,C2,181.75,1.0,120,97.0
2661,D4,181.75,1.0,100,97.0
2662,D3,182.0,333/1000,120,97.0
2663,C6,182.0,2.0,100,97.0
2664,A3,182.0,26/125,100,97.0
2665,E4,182.0,667/1000,100,97.0
2666,D4,182.0,1.0,100,97.0
2667,C5,182.0,21/500,101,97.0
2668,F#2,182.0,1.0,110,97.0
2669,C2,182.0,1.0,110,97.0
2670,A3,182.25,26/125,100,97.0
2671,D4,182.25,1.0,100,97.0
2672,A4,182.25,21/500,100,97.0
2673,D3,182.5,26/125,120,97.0
2674,A3,182.5,26/125,100,97.0
2675,D4,182.5,1.0,100,97.0
2676,F#2,182.5,1.0,110,97.0
2677,C2,182.5,1.0,110,97.0
2678,A2,182.75,229/500,120,97.0
2679,A3,182.75,26/125,100,97.0
2680,D4,182.75,0.5,100,97.0
2681,D4,182.75,1.0,100,97.0
2682,A4,182.75,1.25,100,97.0
2683,F4,182.75,1.25,100,97.0
2684,G3,183.0,26/125,100,97.0
2685,F#2,183.0,1.0,100,97.0
2686,C#4,183.0,1.0,100,97.0
2687,F3,183.0,1.0,100,97.0
2688,A3,183.0,1.0,100,97.0
2689,C4,183.0,1.0,100,97.0
2690,E4,183.0,1.0,100,97.0
2691,C2,183.0,1.0,120,97.0
2692,E2,183.0,1.0,120,97.0
2693,A2,183.25,167/1000,120,97.0
2694,G3,183.25,229/500,100,97.0
2695,C4,183.25,0.5,100,97.0
2696,C2,183.25,0.75,120,97.0
2697,G2,183.5,0.5,120,97.0
2698,F#2,183.5,0.5,100,97.0
2699,C#4,183.5,0.5,100,97.0
2700,E4,183.75,0.25,125,97.0
2701,F3,183.75,583/1000,100,97.0
2702,C2,183.75,0.25,120,97.0
2703,C#4,183.75,0.25,100,97.0
2704,F2,184.0,1.5,120,97.0
2705,B5,184.0,0.75,100,97.0
2706,F3,184.0,229/500,100,97.0
2707,G4,184.0,229/500,125,97.0
2708,C2,184.0,1.0,120,97.0
2709,C2,184.0,0.25,120,97.0
2710,F#2,184.0,1.0,100,97.0
2711,F#2,184.0,0.5,100,97.0
2712,C2,184.0,0.75,120,97.0
2713,D4,184.0,1.0,100,97.0
2714,C#4,184.0,0.5,100,97.0
2715,C#4,184.0,0.75,100,97.0
2716,F3,184.0,1.0,100,97.0
2717,A3,184.0,1.0,100,97.0
2718,C4,184.0,1.0,100,97.0
2719,E4,184.0,1.0,100,97.0
2720,A4,184.0,0.25,100,97.0
2721,F4,184.0,0.25,100,97.0
2722,E6,184.025,2.0,100,97.0
2723,F3,184.5,229/500,100,97.0
2724,E4,184.5,0.25,125,97.0
2725,F#2,184.5,1.0,100,97.0
2726,A5,184.75,1.25,100,97.0
2727,G4,184.75,229/500,125,97.0
2728,F3,185.0,26/125,100,97.0
2729,E2,185.0,1.0,120,97.0
2730,F#2,185.0,1.0,100,97.0
2731,D4,185.0,1.0,100,97.0
2732,D4,185.0,667/1000,100,97.0
2733,B3,185.0,667/1000,100,97.0
2734,G3,185.0,667/1000,100,97.0
2735,E3,185.0,667/1000,100,97.0
2736,F3,185.25,26/125,100,97.0
2737,E4,185.25,26/125,125,97.0
2738,F2,185.5,167/1000,120,97.0
2739,F3,185.5,26/125,100,97.0
2740,G4,185.5,26/125,125,97.0
2741,F#2,185.5,1.0,100,97.0
2742,D4,185.5,1.0,100,97.0
2743,F2,185.75,167/1000,120,97.0
2744,F3,185.75,26/125,100,97.0
2745,E4,185.75,26/125,125,97.0
2746,C2,185.75,1.0,120,97.0
2747,D4,185.75,1.0,100,97.0
2748,A3,185.75,0.5,100,97.0
2749,F3,185.75,0.5,100,97.0
2750,C4,185.75,0.5,100,97.0
2751,E2,186.0,667/1000,120,97.0
2752,A5,186.0,1.75,100,97.0
2753,E3,186.0,26/125,100,97.0
2754,A4,186.0,229/500,125,97.0
2755,D4,186.0,1.0,100,97.0
2756,F#2,186.0,1.0,110,97.0
2757,C2,186.0,1.0,110,97.0
2758,D6,186.025,0.75,100,97.0
2759,E3,186.25,229/500,100,97.0
2760,A4,186.5,0.25,125,97.0
2761,D4,186.5,1.0,100,97.0
2762,F3,186.5,0.5,100,97.0
2763,A3,186.5,0.5,100,97.0
2764,C4,186.5,0.5,100,97.0
2765,C4,186.5,0.5,100,97.0
2766,F#2,186.5,1.0,110,97.0
2767,C2,186.5,1.0,110,97.0
2768,D2,186.75,229/500,120,97.0
2769,D3,186.75,583/1000,100,97.0
2770,E4,186.75,0.25,125,97.0
2771,C6,186.775,49/40,100,97.0
2772,D4,187.0,0.25,125,97.0
2773,E2,187.0,1.0,120,97.0
2774,F#2,187.0,1.0,100,97.0
2775,C#4,187.0,1.0,100,97.0
2776,F3,187.0,0.25,100,97.0
2777,A3,187.0,0.25,100,97.0
2778,C4,187.0,0.25,100,97.0
2779,C4,187.0,0.25,100,97.0
2780,C4,187.25,0.5,125,97.0
2781,C4,187.25,26/125,100,97.0
2782,D2,187.5,0.5,120,97.0
2783,C4,187.5,26/125,100,97.0
2784,C#4,187.5,0.5,100,97.0
2785,C6,187.5,0.5,100,97.0
2786,F3,187.5,417/1000,100,97.0
2787,A3,187.5,417/1000,100,97.0
2788,C4,187.5,417/1000,100,97.0
2789,C2,187.5,0.5,110,97.0
2790,B-2,187.5,0.5,110,97.0
2791,D2,188.0,0.5,120,97.0
2792,C6,188.0,71/40,100,97.0
2793,C4,188.0,229/500,100,97.0
2794,D4,188.0,1.0,100,97.0
2795,C#4,188.0,0.5,100,97.0
2796,C6,188.0,1.0,100,97.0
2797,E2,188.0,1.0,110,97.0
2798,F#2,188.0,1.0,110,97.0
2799,C2,188.0,0.5,110,97.0
2800,B-2,188.0,0.5,110,97.0
2801,G4,188.25,0.375,100,97.0
2802,B4,188.25,0.375,100,97.0
2803,D4,188.25,0.375,100,97.0
2804,D3,188.5,167/1000,120,97.0
2805,A3,188.5,26/125,100,97.0
2806,F#2,188.5,1.0,100,97.0
2807,C3,188.75,167/1000,120,97.0
2808,E3,188.75,583/1000,100,97.0
2809,F3,188.75,2.0,100,97.0
2810,A3,188.75,2.0,100,97.0
2811,C4,188.75,2.0,100,97.0
2812,D3,189.0,667/1000,120,97.0
2813,A3,189.0,229/500,100,97.0
2814,E2,189.0,1.0,120,97.0
2815,F#2,189.0,1.0,100,97.0
2816,D4,189.0,1.0,100,97.0
2817,A3,189.5,229/500,100,97.0
2818,E3,189.5,229/500,100,97.0
2819,F#2,189.5,1.0,100,97.0
2820,D4,189.5,1.0,100,97.0
2821,G5,189.5,229/500,100,97.0
2822,D3,189.75,167/1000,120,97.0
2823,C2,189.75,1.0,120,97.0
2824,D4,189.75,1.0,100,97.0
2825,D3,190.0,333/1000,120,97.0
2826,E6,190.0,2.0,100,97.0
2827,A3,190.0,26/125,100,97.0
2828,D3,190.0,229/500,100,97.0
2829,D4,190.0,1.0,100,97.0
2830,G5,190.0,2.0,100,97.0
2831,F#2,190.0,1.0,110,97.0
2832,C2,190.0,1.0,110,97.0
2833,A3,190.25,26/125,100,97.0
2834,D4,190.25,1.0,100,97.0
2835,D3,190.5,26/125,120,97.0
2836,A3,190.5,26/125,100,97.0
2837,C3,190.5,229/500,100,97.0
2838,D4,190.5,1.0,100,97.0
2839,F#2,190.5,1.0,110,97.0
2840,C2,190.5,1.0,110,97.0
2841,A2,190.75,229/500,120,97.0
2842,A3,190.75,26/125,100,97.0
2843,D4,190.75,1.0,100,97.0
2844,G3,191.0,26/125,100,97.0
2845,C3,191.0,0.625,100,97.0
2846,F#2,191.0,1.0,100,97.0
2847,C#4,191.0,1.0,100,97.0
2848,F3,191.0,1.0,100,97.0
2849,A3,191.0,1.0,100,97.0
2850,C4,191.0,1.0,100,97.0
2851,E4,191.0,1.0,100,97.0
2852,C2,191.0,1.0,120,97.0
2853,E2,191.0,1.0,120,97.0
2854,A2,191.25,167/1000,120,97.0
2855,G3,191.25,229/500,100,97.0
2856,C2,191.25,0.75,120,97.0
2857,G2,191.5,0.5,120,97.0
2858,F#2,191.5,0.5,100,97.0
2859,C#4,191.5,0.5,100,97.0
2860,F3,191.75,583/1000,100,97.0
2861,C2,191.75,0.25,120,97.0
2862,C#4,191.75,0.25,100,97.0
2863,F2,192.0,1.5,120,97.0
2864,D6,192.0,0.75,100,97.0
2865,F3,192.0,229/500,100,97.0
2866,E4,192.0,229/500,125,97.0
2867,C2,192.0,1.0,120,97.0
2868,C2,192.0,0.25,120,97.0
2869,F#2,192.0,1.0,100,97.0
2870,F#2,192.0,0.5,100,97.0
2871,C2,192.0,0.75,120,97.0
2872,D4,192.0,1.0,100,97.0
2873,C#4,192.0,0.5,100,97.0
2874,C#4,192.0,0.75,100,97.0
2875,F3,192.0,1.0,100,97.0
2876,A3,192.0,1.0,100,97.0
2877,C4,192.0,1.0,100,97.0
2878,E4,192.0,1.0,100,97.0
2879,C6,192.025,2.0,100,97.0
2880,F3,192.5,229/500,100,97.0
2881,D4,192.5,0.25,125,97.0
2882,F#2,192.5,1.0,100,97.0
2883,C6,192.75,1.25,100,97.0
2884,D4,192.75,0.5,125,97.0
2885,F3,193.0,26/125,100,97.0
2886,E2,193.0,1.0,120,97.0
2887,F#2,193.0,1.0,100,97.0
2888,D4,193.0,1.0,100,97.0
2889,D4,193.0,667/1000,100,97.0
2890,B3,193.0,667/1000,100,97.0
2891,G3,193.0,667/1000,100,97.0
2892,E3,193.0,667/1000,100,97.0
2893,F3,193.25,26/125,100,97.0
2894,C4,193.25,26/125,125,97.0
2895,F3,193.5,26/125,100,97.0
2896,D4,193.5,26/125,125,97.0
2897,F#2,193.5,1.0,100,97.0
2898,D4,193.5,1.0,100,97.0
2899,F2,193.75,167/1000,120,97.0
2900,F3,193.75,26/125,100,97.0
2901,C4,193.75,26/125,125,97.0
2902,C2,193.75,1.0,120,97.0
2903,D4,193.75,1.0,100,97.0
2904,A3,193.75,0.5,100,97.0
2905,F3,193.75,0.5,100,97.0
2906,C4,193.75,0.5,100,97.0
2907,E2,194.0,667/1000,120,97.0
2908,C6,194.0,1.75,100,97.0
2909,E3,194.0,26/125,100,97.0
2910,G4,194.0,0.5,125,97.0
2911,D4,194.0,1.0,100,97.0
2912,F#2,194.0,1.0,110,97.0
2913,C2,194.0,1.0,110,97.0
2914,B5,194.025,0.75,100,97.0
2915,E3,194.25,229/500,100,97.0
2916,A4,194.5,0.5,125,97.0
2917,D4,194.5,1.0,100,97.0
2918,F3,194.5,0.5,100,97.0
2919,A3,194.5,0.5,100,97.0
2920,C4,194.5,0.5,100,97.0
2921,C4,194.5,0.5,100,97.0
2922,F#2,194.5,1.0,110,97.0
2923,C2,194.5,1.0,110,97.0
2924,D2,194.75,229/500,120,97.0
2925,D3,194.75,583/1000,100,97.0
2926,A5,194.775,49/40,100,97.0
2927,C5,195.0,0.5,125,97.0
2928,E2,195.0,1.0,120,97.0
2929,F#2,195.0,1.0,100,97.0
2930,C#4,195.0,1.0,100,97.0
2931,F3,195.0,0.25,100,97.0
2932,A3,195.0,0.25,100,97.0
2933,C4,195.0,0.25,100,97.0
2934,C4,195.0,0.25,100,97.0
2935,D2,195.5,0.5,120,97.0
2936,A3,195.5,229/500,100,97.0
2937,C#4,195.5,0.5,100,97.0
2938,F3,195.5,417/1000,100,97.0
2939,A3,195.5,417/1000,100,97.0
2940,C4,195.5,417/1000,100,97.0
2941,C2,195.5,0.5,110,97.0
2942,B-2,195.5,0.5,110,97.0
2943,G5,195.5,0.5,100,97.0
2944,G4,195.5,0.5,100,97.0
2945,D2,196.0,1.5,120,97.0
2946,A5,196.0,71/40,100,97.0
2947,C4,196.0,229/500,100,97.0
2948,D4,196.0,1.0,100,97.0
2949,C#4,196.0,0.5,100,97.0
2950,E2,196.0,1.0,110,97.0
2951,F#2,196.0,1.0,110,97.0
2952,C2,196.0,0.5,110,97.0
2953,B-2,196.0,0.5,110,97.0
2954,G5,196.0,0.75,100,97.0
2955,G4,196.0,0.75,100,97.0
2956,G4,196.25,0.375,100,97.0
2957,B4,196.25,0.375,100,97.0
2958,D4,196.25,0.375,100,97.0
2959,A3,196.5,229/500,100,97.0
2960,F#2,196.5,1.0,100,97.0
2961,F3,196.75,2.0,100,97.0
2962,A3,196.75,2.0,100,97.0
2963,C4,196.75,2.0,100,97.0
2964,A3,197.0,229/500,100,97.0
2965,C4,197.0,229/500,100,97.0
2966,E2,197.0,1.0,120,97.0
2967,F#2,197.0,1.0,100,97.0
2968,D4,197.0,1.0,100,97.0
2969,G4,197.0,67/1000,100,97.0
2970,A3,197.5,229/500,100,97.0
2971,A3,197.5,229/500,100,97.0
2972,F#2,197.5,1.0,100,97.0
2973,D4,197.5,1.0,100,97.0
2974,A4,197.5,67/1000,100,97.0
2975,D2,197.75,167/1000,120,97.0
2976,C2,197.75,1.0,120,97.0
2977,D4,197.75,1.0,100,97.0
2978,D2,198.0,167/1000,120,97.0
2979,C6,198.0,2.0,100,97.0
2980,A3,198.0,26/125,100,97.0
2981,D4,198.0,667/1000,100,97.0
2982,D4,198.0,1.0,100,97.0
2983,E4,198.0,67/1000,100,97.0
2984,F#2,198.0,1.0,110,97.0
2985,C2,198.0,1.0,110,97.0
2986,D2,198.25,229/500,120,97.0
2987,A3,198.25,26/125,100,97.0
2988,D4,198.25,1.0,100,97.0
2989,A3,198.5,26/125,100,97.0
2990,D4,198.5,1.0,100,97.0
2991,F#2,198.5,1.0,110,97.0
2992,C2,198.5,1.0,110,97.0
2993,C2,198.75,229/500,120,97.0
2994,A3,198.75,26/125,100,97.0
2995,A3,198.75,0.75,100,97.0
2996,D4,198.75,1.0,100,97.0
2997,G3,199.0,26/125,100,97.0
2998,F#2,199.0,1.0,100,97.0
2999,C#4,199.0,1.0,100,97.0
3000,E4,199.0,67/1000,100,97.0
3001,F3,199.0,1.0,100,97.0
3002,A3,199.0,1.0,100,97.0
3003,C4,199.0,1.0,100,97.0
3004,E4,199.0,1.0,100,97.0
3005,C2,199.0,1.0,120,97.0
3006,E2,199.0,1.0,120,97.0
3007,C2,199.25,167/1000,120,97.0
3008,G3,199.25,229/500,100,97.0
3009,C2,199.25,0.75,120,97.0
3010,A1,199.5,229/500,120,97.0
3011,F#2,199.5,0.5,100,97.0
3012,C#4,199.5,0.5,100,97.0
3013,C4,199.5,333/1000,100,97.0
3014,F3,199.75,583/1000,100,97.0
3015,C2,199.75,0.25,120,97.0
3016,C#4,199.75,0.25,100,97.0
3017,F1,200.0,1.5,120,97.0
3018,B5,200.0,0.75,100,97.0
3019,F3,200.0,229/500,100,97.0
3020,E4,200.0,229/500,125,97.0
3021,C2,200.0,1.0,120,97.0
3022,C2,200.0,0.25,120,97.0
3023,F#2,200.0,1.0,100,97.0
3024,F#2,200.0,0.5,100,97.0
3025,C2,200.0,0.75,120,97.0
3026,D4,200.0,1.0,100,97.0
3027,C#4,200.0,0.5,100,97.0
3028,C#4,200.0,0.75,100,97.0
3029,F3,200.0,1.0,100,97.0
3030,A3,200.0,1.0,100,97.0
3031,C4,200.0,1.0,100,97.0
3032,E4,200.0,1.0,100,97.0
3033,E6,200.025,2.0,100,97.0
3034,F3,200.5,229/500,100,97.0
3035,E4,200.5,229/500,125,97.0
3036,F#2,200.5,1.0,100,97.0
3037,A5,200.75,1.25,100,97.0
3038,F3,201.0,26/125,100,97.0
3039,E4,201.0,26/125,125,97.0
3040,E2,201.0,1.0,120,97.0
3041,F#2,201.0,1.0,100,97.0
3042,D4,201.0,1.0,100,97.0
3043,D4,201.0,667/1000,100,97.0
3044,B3,201.0,667/1000,100,97.0
3045,G3,201.0,667/1000,100,97.0
3046,E3,201.0,667/1000,100,97.0
3047,F3,201.25,26/125,100,97.0
3048,E4,201.25,26/125,125,97.0
3049,F3,201.5,26/125,100,97.0
3050,E4,201.5,26/125,125,97.0
3051,F#2,201.5,1.0,100,97.0
3052,D4,201.5,1.0,100,97.0
3053,F1,201.75,167/1000,120,97.0
3054,F3,201.75,26/125,100,97.0
3055,E4,201.75,26/125,125,97.0
3056,C2,201.75,1.0,120,97.0
3057,D4,201.75,1.0,100,97.0
3058,A3,201.75,0.5,100,97.0
3059,F3,201.75,0.5,100,97.0
3060,C4,201.75,0.5,100,97.0
3061,E2,202.0,667/1000,120,97.0
3062,A5,202.0,1.75,100,97.0
3063,E3,202.0,26/125,100,97.0
3064,D4,202.0,26/125,125,97.0
3065,D4,202.0,1.0,100,97.0
3066,F#2,202.0,1.0,110,97.0
3067,C2,202.0,1.0,110,97.0
3068,D6,202.025,0.75,100,97.0
3069,E3,202.25,229/500,100,97.0
3070,E4,202.25,229/500,125,97.0
3071,D4,202.5,1.0,100,97.0
3072,F3,202.5,0.5,100,97.0
3073,A3,202.5,0.5,100,97.0
3074,C4,202.5,0.5,100,97.0
3075,C4,202.5,0.5,100,97.0
3076,F#2,202.5,1.0,110,97.0
3077,C2,202.5,1.0,110,97.0
3078,D2,202.75,229/500,120,97.0
3079,D3,202.75,583/1000,100,97.0
3080,C4,202.75,583/1000,125,97.0
3081,C6,202.775,49/40,100,97.0
3082,E2,203.0,1.0,120,97.0
3083,F#2,203.0,1.0,100,97.0
3084,C#4,203.0,1.0,100,97.0
3085,F3,203.0,0.25,100,97.0
3086,A3,203.0,0.25,100,97.0
3087,C4,203.0,0.25,100,97.0
3088,C4,203.0,0.25,100,97.0
3089,G1,203.5,0.5,120,97.0
3090,C#4,203.5,0.5,100,97.0
3091,G5,203.5,0.5,100,97.0
3092,F3,203.5,417/1000,100,97.0
3093,A3,203.5,417/1000,100,97.0
3094,C4,203.5,417/1000,100,97.0
3095,C2,203.5,0.5,110,97.0
3096,C#3,203.5,0.5,110,97.0
3097,G1,204.0,0.5,120,97.0
3098,C6,204.0,71/40,100,97.0
3099,C#4,204.0,0.5,100,97.0
3100,G5,204.0,1.0,100,97.0
3101,C2,204.0,0.5,110,97.0
3102,C#3,204.0,0.5,110,97.0
3103,G4,204.25,0.375,100,97.0
3104,B4,204.25,0.375,100,97.0
3105,D4,204.25,0.375,100,97.0
3106,G1,204.5,417/1000,120,97.0
3107,C2,204.5,1.0,110,97.0
3108,F#2,204.5,1.0,110,97.0
3109,F3,204.75,2.0,100,97.0
3110,A3,204.75,2.0,100,97.0
3111,C4,204.75,2.0,100,97.0
3112,G1,205.0,417/1000,120,97.0
3113,A3,205.0,229/500,100,97.0
3114,C2,205.0,1.0,120,97.0
3115,F#2,205.0,1.0,100,97.0
3116,E5,205.0,0.25,100,97.0
3117,G5,205.25,0.25,100,97.0
3118,G1,205.5,417/1000,120,97.0
3119,A3,205.5,229/500,100,97.0
3120,E5,205.5,1.5,100,97.0
3121,C2,205.5,1.0,110,97.0
3122,F#2,205.5,1.0,110,97.0
3123,G2,206.0,833/1000,120,97.0
3124,G4,206.0,229/500,100,97.0
3125,E6,206.0,2.0,100,97.0
3126,A3,206.0,26/125,100,97.0
3127,C#4,206.0,1.0,100,97.0
3128,F#2,206.0,1.0,110,97.0
3129,C2,206.0,1.0,110,97.0
3130,A3,206.25,26/125,100,97.0
3131,C#4,206.25,1.0,100,97.0
3132,A4,206.5,229/500,100,97.0
3133,A3,206.5,26/125,100,97.0
3134,C#4,206.5,1.0,100,97.0
3135,F#2,206.5,1.0,110,97.0
3136,E2,206.5,1.0,110,97.0
3137,A3,206.75,26/125,100,97.0
3138,E2,206.75,1.0,120,97.0
3139,C#4,206.75,1.0,100,97.0
3140,E2,206.875,1.0,120,97.0
3141,C2,207.0,229/500,120,97.0
3142,C5,207.0,229/500,100,97.0
3143,G3,207.0,26/125,100,97.0
3144,E2,207.0,1.0,120,97.0
3145,F#2,207.0,1.0,100,97.0
3146,C#4,207.0,1.0,100,97.0
3147,F3,207.0,2.0,100,97.0
3148,A3,207.0,2.0,100,97.0
3149,C4,207.0,2.0,100,97.0
3150,E4,207.0,2.0,100,97.0
3151,G3,207.25,229/500,100,97.0
3152,D4,207.25,0.75,100,97.0
3153,C#2,207.5,229/500,120,97.0
3154,E5,207.5,229/500,100,97.0
3155,B-2,207.5,0.5,100,97.0
3156,C#4,207.5,0.5,100,97.0
3157,F3,207.75,583/1000,100,97.0
3158,D2,208.0,1.5,120,97.0
3159,D5,208.0,4.0,100,97.0
3160,D6,208.0,0.75,100,97.0
3161,F3,208.0,1.0,100,97.0
3162,B-2,208.0,0.5,100,97.0
3163,D4,208.0,1.0,100,97.0
3164,D4,208.0,0.25,100,97.0
3165,C#4,208.0,0.5,100,97.0
3166,F3,208.0,1.0,110,97.0
3167,C2,208.0,1.0,110,97.0
3168,F3,208.5,1.0,100,97.0
3169,C6,208.75,1.25,100,97.0
3170,F3,208.75,1.0,100,97.0
3171,D4,209.0,1.0,100,97.0
3172,D4,209.0,667/1000,100,97.0
3173,B3,209.0,667/1000,100,97.0
3174,G3,209.0,667/1000,100,97.0
3175,E3,209.0,667/1000,100,97.0
3176,F3,209.0,1.0,110,97.0
3177,E2,209.0,1.0,110,97.0
3178,D4,209.0,24/125,100,97.0
3179,F4,209.0,24/125,100,97.0
3180,A4,209.0,24/125,100,97.0
3181,F3,209.5,1.0,100,97.0
3182,D4,209.5,1.0,100,97.0
3183,A2,209.75,167/1000,120,97.0
3184,F3,209.75,1.0,100,97.0
3185,D4,209.75,1.0,100,97.0
3186,A3,209.75,0.5,100,97.0
3187,F3,209.75,0.5,100,97.0
3188,C4,209.75,0.5,100,97.0
3189,D3,210.0,229/500,120,97.0
3190,C6,210.0,1.75,100,97.0
3191,F3,210.0,1.0,100,97.0
3192,D4,210.0,1.0,100,97.0
3193,C2,210.0,1.0,110,97.0
3194,F3,210.0,1.0,110,97.0
3195,D3,210.5,833/1000,120,97.0
3196,D4,210.5,1.0,100,97.0
3197,G5,210.5,1.0,100,97.0
3198,G3,210.5,0.5,100,97.0
3199,F4,210.5,0.5,100,97.0
3200,A3,210.5,0.5,100,97.0
3201,C4,210.5,0.5,100,97.0
3202,C2,210.5,1.0,110,97.0
3203,F3,210.5,1.0,110,97.0
3204,F3,210.75,1.0,100,97.0
3205,C#4,211.0,1.0,100,97.0
3206,G3,211.0,3.5,100,97.0
3207,F4,211.0,3.5,100,97.0
3208,A3,211.0,3.5,100,97.0
3209,C4,211.0,3.5,100,97.0
3210,E2,211.0,1.0,110,97.0
3211,F3,211.0,1.0,110,97.0
3212,D4,211.0,24/125,100,97.0
3213,F4,211.0,24/125,100,97.0
3214,A4,211.0,24/125,100,97.0
3215,A1,211.5,24/125,120,97.0
3216,C4,211.5,26/125,125,97.0
3217,F3,211.5,0.5,100,97.0
3218,C#4,211.5,0.5,100,97.0
3219,F5,211.5,0.25,100,97.0
3220,C2,211.75,24/125,120,97.0
3221,A3,211.75,26/125,125,97.0
3222,E5,211.75,0.25,100,97.0
3223,C2,211.75,0.25,110,97.0
3224,F3,211.75,0.25,110,97.0
3225,D2,212.0,229/500,120,97.0
3226,D5,212.0,1.0,100,97.0
3227,E4,212.0,229/500,125,97.0
3228,F3,212.0,0.5,100,97.0
3229,F3,212.0,1.0,100,97.0
3230,D4,212.0,1.0,100,97.0
3231,C#4,212.0,0.5,100,97.0
3232,F5,212.0,2.5,100,97.0
3233,F3,212.0,1.0,110,97.0
3234,C2,212.0,1.0,110,97.0
3235,C2,212.0,0.75,110,97.0
3236,F3,212.0,0.75,110,97.0
3237,G4,212.025,229/500,100,97.0
3238,D2,212.5,833/1000,120,97.0
3239,E4,212.5,229/500,125,97.0
3240,F3,212.5,1.0,100,97.0
3241,A4,212.525,229/500,100,97.0
3242,F3,212.75,1.0,100,97.0
3243,E4,213.0,233/1000,125,97.0
3244,D4,213.0,1.0,100,97.0
3245,F3,213.0,1.0,110,97.0
3246,E2,213.0,1.0,110,97.0
3247,D4,213.0,24/125,100,97.0
3248,F4,213.0,24/125,100,97.0
3249,A4,213.0,24/125,100,97.0
3250,C5,213.025,229/500,100,97.0
3251,E4,213.25,229/500,125,97.0
3252,D2,213.5,167/1000,120,97.0
3253,F3,213.5,1.0,100,97.0
3254,D4,213.5,1.0,100,97.0
3255,E5,213.525,229/500,100,97.0
3256,D2,213.75,167/1000,120,97.0
3257,D4,213.75,0.5,125,97.0
3258,F3,213.75,1.0,100,97.0
3259,D4,213.75,1.0,100,97.0
3260,D2,214.0,229/500,120,97.0
3261,G4,214.0,229/500,100,97.0
3262,F3,214.0,1.0,100,97.0
3263,D4,214.0,1.0,100,97.0
3264,A3,214.0,4.0,100,97.0
3265,F4,214.0,4.0,100,97.0
3266,C2,214.0,1.0,110,97.0
3267,F3,214.0,1.0,110,97.0
3268,D5,214.025,159/40,100,97.0
3269,D4,214.25,1.0,100,97.0
3270,D2,214.5,229/500,120,97.0
3271,A4,214.5,229/500,100,97.0
3272,D4,214.5,1.0,100,97.0
3273,C2,214.5,1.0,110,97.0
3274,F3,214.5,1.0,110,97.0
3275,F3,214.75,1.0,100,97.0
3276,D4,214.75,1.0,100,97.0
3277,C2,215.0,229/500,120,97.0
3278,C5,215.0,229/500,100,97.0
3279,C#4,215.0,1.0,100,97.0
3280,E2,215.0,1.0,110,97.0
3281,F3,215.0,1.0,110,97.0
3282,D4,215.0,24/125,100,97.0
3283,F4,215.0,24/125,100,97.0
3284,A4,215.0,24/125,100,97.0
3285,G2,215.5,229/500,120,97.0
3286,G5,215.5,229/500,100,97.0
3287,F3,215.5,0.5,100,97.0
3288,C#4,215.5,0.5,100,97.0
3289,C#4,215.75,0.25,100,97.0
3290,C2,215.75,0.25,110,97.0
3291,F3,215.75,0.25,110,97.0
3292,C2,216.0,1.5,120,97.0
3293,E5,216.0,0.25,100,97.0
3294,F3,216.0,0.5,100,97.0
3295,F3,216.0,1.0,100,97.0
3296,D4,216.0,1.0,100,97.0
3297,C#4,216.0,0.5,100,97.0
3298,C#4,216.0,0.75,100,97.0
3299,A3,216.0,667/1000,100,97.0
3300,F4,216.0,667/1000,100,97.0
3301,C4,216.0,667/1000,100,97.0
3302,F3,216.0,1.0,110,97.0
3303,C2,216.0,1.0,110,97.0
3304,C2,216.0,0.75,110,97.0
3305,F3,216.0,0.75,110,97.0
3306,F5,216.25,0.25,100,97.0
3307,E5,216.5,3.5,100,97.0
3308,F3,216.5,1.0,100,97.0
3309,F3,216.75,1.0,100,97.0
3310,A3,216.75,167/1000,100,97.0
3311,F4,216.75,167/1000,100,97.0
3312,C4,216.75,167/1000,100,97.0
3313,D4,217.0,1.0,100,97.0
3314,F3,217.0,1.0,110,97.0
3315,E2,217.0,1.0,110,97.0
3316,B3,217.0,24/125,100,97.0
3317,E4,217.0,24/125,100,97.0
3318,G4,217.0,24/125,100,97.0
3319,F3,217.5,1.0,100,97.0
3320,D4,217.5,1.0,100,97.0
3321,A3,217.5,1.5,100,97.0
3322,F4,217.5,1.5,100,97.0
3323,C4,217.5,1.5,100,97.0
3324,G2,217.75,167/1000,120,97.0
3325,F3,217.75,1.0,100,97.0
3326,D4,217.75,1.0,100,97.0
3327,C3,218.0,229/500,120,97.0
3328,F3,218.0,1.0,100,97.0
3329,D4,218.0,1.0,100,97.0
3330,C2,218.0,1.0,110,97.0
3331,F3,218.0,1.0,110,97.0
3332,C3,218.5,833/1000,120,97.0
3333,D4,218.5,1.0,100,97.0
3334,E5,218.5,0.75,100,97.0
3335,C2,218.5,1.0,110,97.0
3336,F3,218.5,1.0,110,97.0
3337,F3,218.75,1.0,100,97.0
3338,C#4,219.0,1.0,100,97.0
3339,E2,219.0,1.0,110,97.0
3340,F3,219.0,1.0,110,97.0
3341,B3,219.0,24/125,100,97.0
3342,E4,219.0,24/125,100,97.0
3343,G4,219.0,24/125,100,97.0
3344,D5,219.25,0.75,100,97.0
3345,G1,219.5,24/125,120,97.0
3346,G3,219.5,0.5,125,97.0
3347,F3,219.5,0.5,100,97.0
3348,C#4,219.5,0.5,100,97.0
3349,A1,219.75,24/125,120,97.0
3350,C2,219.75,0.25,110,97.0
3351,F3,219.75,0.25,110,97.0
3352,C2,220.0,229/500,120,97.0
3353,E5,220.0,1.5,100,97.0
3354,E4,220.0,833/1000,125,97.0
3355,F3,220.0,0.5,100,97.0
3356,F3,220.0,1.0,100,97.0
3357,D4,220.0,1.0,100,97.0
3358,C#4,220.0,0.5,100,97.0
3359,A4,220.0,0.75,100,97.0
3360,A3,220.0,667/1000,100,97.0
3361,F4,220.0,667/1000,100,97.0
3362,C4,220.0,667/1000,100,97.0
3363,F3,220.0,1.0,110,97.0
3364,C2,220.0,1.0,110,97.0
3365,C2,220.0,0.75,110,97.0
3366,F3,220.0,0.75,110,97.0
3367,C2,220.5,833/1000,120,97.0
3368,F3,220.5,1.0,100,97.0
3369,F3,220.75,1.0,100,97.0
3370,G4,220.75,2.0,100,97.0
3371,A3,220.75,167/1000,100,97.0
3372,F4,220.75,167/1000,100,97.0
3373,C4,220.75,167/1000,100,97.0
3374,D5,221.0,41/40,100,97.0
3375,G3,221.0,0.5,125,97.0
3376,D4,221.0,1.0,100,97.0
3377,A3,221.0,3.0,100,97.0
3378,F4,221.0,3.0,100,97.0
3379,F3,221.0,1.0,110,97.0
3380,E2,221.0,1.0,110,97.0
3381,B3,221.0,24/125,100,97.0
3382,E4,221.0,24/125,100,97.0
3383,G4,221.0,24/125,100,97.0
3384,C2,221.5,167/1000,120,97.0
3385,E4,221.5,0.5,125,97.0
3386,F3,221.5,1.0,100,97.0
3387,D4,221.5,1.0,100,97.0
3388,A3,221.5,1.5,100,97.0
3389,F4,221.5,1.5,100,97.0
3390,C4,221.5,1.5,100,97.0
3391,C2,221.75,167/1000,120,97.0
3392,F3,221.75,1.0,100,97.0
3393,D4,221.75,1.0,100,97.0
3394,C2,222.0,229/500,120,97.0
3395,G5,222.0,229/500,100,97.0
3396,F3,222.0,1.0,100,97.0
3397,D4,222.0,1.0,100,97.0
3398,C2,222.0,1.0,110,97.0
3399,F3,222.0,1.0,110,97.0
3400,D4,222.25,1.0,100,97.0
3401,C2,222.5,229/500,120,97.0
3402,A5,222.5,229/500,100,97.0
3403,E4,222.5,0.5,125,97.0
3404,D4,222.5,1.0,100,97.0
3405,C2,222.5,1.0,110,97.0
3406,F3,222.5,1.0,110,97.0
3407,F3,222.75,1.0,100,97.0
3408,D4,222.75,1.0,100,97.0
3409,G1,223.0,229/500,120,97.0
3410,C6,223.0,229/500,100,97.0
3411,D4,223.0,0.5,125,97.0
3412,C#4,223.0,1.0,100,97.0
3413,E2,223.0,1.0,110,97.0
3414,F3,223.0,1.0,110,97.0
3415,B3,223.0,24/125,100,97.0
3416,E4,223.0,24/125,100,97.0
3417,G4,223.0,24/125,100,97.0
3418,G4,223.025,229/500,100,97.0
3419,A1,223.5,229/500,120,97.0
3420,E6,223.5,229/500,100,97.0
3421,C4,223.5,0.5,125,97.0
3422,F3,223.5,0.5,100,97.0
3423,C#4,223.5,0.5,100,97.0
3424,A4,223.525,229/500,100,97.0
3425,C#4,223.75,0.25,100,97.0
3426,C2,223.75,0.25,110,97.0
3427,F3,223.75,0.25,110,97.0
3428,D2,224.0,1.5,120,97.0
3429,D6,224.0,4.0,100,97.0
3430,F3,224.0,0.5,100,97.0
3431,F3,224.0,1.0,100,97.0
3432,D4,224.0,1.0,100,97.0
3433,C#4,224.0,0.5,100,97.0
3434,C#4,224.0,0.75,100,97.0
3435,G4,224.0,667/1000,100,97.0
3436,E4,224.0,667/1000,100,97.0
3437,B3,224.0,667/1000,100,97.0
3438,F3,224.0,1.0,110,97.0
3439,C2,224.0,1.0,110,97.0
3440,C2,224.0,0.75,110,97.0
3441,F3,224.0,0.75,110,97.0
3442,C5,224.025,229/500,100,97.0
3443,F3,224.5,1.0,100,97.0
3444,G5,224.525,229/500,100,97.0
3445,F3,224.75,1.0,100,97.0
3446,G4,224.75,167/1000,100,97.0
3447,E4,224.75,167/1000,100,97.0
3448,B3,224.75,167/1000,100,97.0
3449,D4,225.0,1.0,100,97.0
3450,G4,225.0,4.0,100,97.0
3451,B3,225.0,4.0,100,97.0
3452,E4,225.0,4.0,100,97.0
3453,F3,225.0,1.0,110,97.0
3454,E2,225.0,1.0,110,97.0
3455,D4,225.0,24/125,100,97.0
3456,F4,225.0,24/125,100,97.0
3457,A4,225.0,24/125,100,97.0
3458,E5,225.025,0.25,100,97.0
3459,F5,225.275,0.25,100,97.0
3460,F3,225.5,1.0,100,97.0
3461,D4,225.5,1.0,100,97.0
3462,B3,225.5,1.5,100,97.0
3463,E4,225.5,1.5,100,97.0
3464,G4,225.5,1.5,100,97.0
3465,E5,225.525,139/40,100,97.0
3466,A2,225.75,167/1000,120,97.0
3467,F3,225.75,1.0,100,97.0
3468,D4,225.75,1.0,100,97.0
3469,C3,226.0,667/1000,120,97.0
3470,F3,226.0,1.0,100,97.0
3471,C4,226.0,1.0,100,97.0
3472,C2,226.0,1.0,110,97.0
3473,F3,226.0,1.0,110,97.0
3474,C4,226.25,1.0,100,97.0
3475,G6,226.5,1.0,100,97.0
3476,C2,226.5,1.0,110,97.0
3477,F3,226.5,1.0,110,97.0
3478,C3,226.667,667/1000,120,97.0
3479,F3,226.75,1.0,100,97.0
3480,C4,226.75,1.0,100,97.0
3481,C#4,227.0,1.0,100,97.0
3482,E2,227.0,1.0,110,97.0
3483,F3,227.0,1.0,110,97.0
3484,D4,227.0,24/125,100,97.0
3485,F4,227.0,24/125,100,97.0
3486,A4,227.0,24/125,100,97.0
3487,A2,227.333,667/1000,120,97.0
3488,F3,227.5,0.5,100,97.0
3489,C#4,227.5,0.5,100,97.0
3490,F6,227.5,0.25,100,97.0
3491,E6,227.75,0.25,100,97.0
3492,C2,227.75,0.25,110,97.0
3493,F3,227.75,0.25,110,97.0
3494,D2,228.0,229/500,120,97.0
3495,D6,228.0,1.0,100,97.0
3496,F3,228.0,0.5,100,97.0
3497,F3,228.0,1.0,100,97.0
3498,D4,228.0,1.0,100,97.0
3499,C#4,228.0,0.5,100,97.0
3500,F6,228.0,2.5,100,97.0
3501,G4,228.0,667/1000,100,97.0
3502,E4,228.0,667/1000,100,97.0
3503,B3,228.0,667/1000,100,97.0
3504,F3,228.0,1.0,110,97.0
3505,C2,228.0,1.0,110,97.0
3506,C2,228.0,0.75,110,97.0
3507,F3,228.0,0.75,110,97.0
3508,D2,228.5,833/1000,120,97.0
3509,F3,228.5,1.0,100,97.0
3510,F3,228.75,1.0,100,97.0
3511,G4,228.75,167/1000,100,97.0
3512,E4,228.75,167/1000,100,97.0
3513,B3,228.75,167/1000,100,97.0
3514,D4,229.0,1.0,100,97.0
3515,F3,229.0,1.0,110,97.0
3516,E2,229.0,1.0,110,97.0
3517,D4,229.0,24/125,100,97.0
3518,F4,229.0,24/125,100,97.0
3519,A4,229.0,24/125,100,97.0
3520,D2,229.5,167/1000,120,97.0
3521,F3,229.5,1.0,100,97.0
3522,D4,229.5,1.0,100,97.0
3523,B3,229.5,1.5,100,97.0
3524,E4,229.5,1.5,100,97.0
3525,G4,229.5,1.5,100,97.0
3526,D2,229.75,167/1000,120,97.0
3527,F3,229.75,1.0,100,97.0
3528,D4,229.75,1.0,100,97.0
3529,G1,230.0,229/500,120,97.0
3530,G5,230.0,229/500,100,97.0
3531,F3,230.0,1.0,100,97.0
3532,D4,230.0,1.0,100,97.0
3533,C2,230.0,1.0,110,97.0
3534,F3,230.0,1.0,110,97.0
3535,D4,230.25,1.0,100,97.0
3536,A1,230.5,229/500,120,97.0
3537,A5,230.5,229/500,100,97.0
3538,D4,230.5,1.0,100,97.0
3539,C2,230.5,1.0,110,97.0
3540,F3,230.5,1.0,110,97.0
3541,F3,230.75,1.0,100,97.0
3542,D4,230.75,1.0,100,97.0
3543,C2,231.0,229/500,120,97.0
3544,C6,231.0,229/500,100,97.0
3545,E5,231.0,61/40,100,97.0
3546,C#4,231.0,1.0,100,97.0
3547,G4,231.0,2.0,100,97.0
3548,B3,231.0,2.0,100,97.0
3549,E4,231.0,2.0,100,97.0
3550,E2,231.0,1.0,110,97.0
3551,F3,231.0,1.0,110,97.0
3552,D4,231.0,24/125,100,97.0
3553,F4,231.0,24/125,100,97.0
3554,A4,231.0,24/125,100,97.0
3555,G2,231.5,229/500,120,97.0
3556,G6,231.5,229/500,100,97.0
3557,F3,231.5,0.5,100,97.0
3558,C#4,231.5,0.5,100,97.0
3559,C#4,231.75,0.25,100,97.0
3560,C2,231.75,0.25,110,97.0
3561,F3,231.75,0.25,110,97.0
3562,C2,232.0,1.5,120,97.0
3563,E6,232.0,2.5,100,97.0
3564,F3,232.0,0.5,100,97.0
3565,F3,232.0,1.0,100,97.0
3566,D4,232.0,1.0,100,97.0
3567,C#4,232.0,0.5,100,97.0
3568,C#4,232.0,0.75,100,97.0
3569,A3,232.0,667/1000,100,97.0
3570,F4,232.0,667/1000,100,97.0
3571,C4,232.0,667/1000,100,97.0
3572,F3,232.0,1.0,110,97.0
3573,C2,232.0,1.0,110,97.0
3574,C2,232.0,0.75,110,97.0
3575,F3,232.0,0.75,110,97.0
3576,F3,232.5,1.0,100,97.0
3577,F3,232.75,1.0,100,97.0
3578,A3,232.75,167/1000,100,97.0
3579,F4,232.75,167/1000,100,97.0
3580,C4,232.75,167/1000,100,97.0
3581,D4,233.0,1.0,100,97.0
3582,F3,233.0,1.0,110,97.0
3583,E2,233.0,1.0,110,97.0
3584,B3,233.0,24/125,100,97.0
3585,E4,233.0,24/125,100,97.0
3586,G4,233.0,24/125,100,97.0
3587,G5,233.025,229/500,100,97.0
3588,F3,233.5,1.0,100,97.0
3589,D4,233.5,1.0,100,97.0
3590,A3,233.5,1.5,100,97.0
3591,F4,233.5,1.5,100,97.0
3592,C4,233.5,1.5,100,97.0
3593,A5,233.525,229/500,100,97.0
3594,G2,233.75,0.25,120,97.0
3595,F3,233.75,1.0,100,97.0
3596,D4,233.75,1.0,100,97.0
3597,C3,234.0,229/500,120,97.0
3598,F3,234.0,1.0,100,97.0
3599,D4,234.0,1.0,100,97.0
3600,C2,234.0,1.0,110,97.0
3601,F3,234.0,1.0,110,97.0
3602,C6,234.025,229/500,100,97.0
3603,C3,234.5,0.5,120,97.0
3604,E6,234.5,0.5,100,97.0
3605,D4,234.5,1.0,100,97.0
3606,E6,234.5,0.5,100,97.0
3607,C2,234.5,1.0,110,97.0
3608,F3,234.5,1.0,110,97.0
3609,E6,234.525,229/500,100,97.0
3610,F3,234.75,1.25,100,97.0
3611,G6,235.0,0.5,100,97.0
3612,E2,235.0,1.0,120,97.0
3613,F3,235.0,1.0,100,97.0
3614,C#4,235.0,1.0,100,97.0
3615,D6,235.0,0.5,100,97.0
3616,A3,235.0,4.0,100,97.0
3617,F4,235.0,4.0,100,97.0
3618,B3,235.0,24/125,100,97.0
3619,E4,235.0,24/125,100,97.0
3620,G4,235.0,24/125,100,97.0
3621,D6,235.025,159/40,100,97.0
3622,A1,235.5,0.5,120,97.0
3623,A6,235.5,0.5,100,97.0
3624,C#4,235.5,0.5,100,97.0
3625,C#6,235.5,0.5,100,97.0
3626,C2,235.5,0.25,100,97.0
3627,C#3,235.5,0.25,100,97.0
3628,A1,236.0,1.5,120,97.0
3629,A6,236.0,3.5,100,97.0
3630,F3,236.0,2.5,100,97.0
3631,F3,236.0,2.75,100,97.0
3632,C#4,236.0,0.5,100,97.0
3633,C#6,236.0,3.5,100,97.0
3634,A3,236.0,667/1000,100,97.0
3635,F4,236.0,667/1000,100,97.0
3636,C4,236.0,667/1000,100,97.0
3637,C2,236.5,0.75,120,97.0
3638,F#2,236.5,0.25,100,97.0
3639,A3,236.75,167/1000,100,97.0
3640,F4,236.75,167/1000,100,97.0
3641,C4,236.75,167/1000,100,97.0
3642,F#2,237.0,0.5,100,97.0
3643,E2,237.0,1.0,120,97.0
3644,F#2,237.5,0.25,100,97.0
3645,A3,237.5,1.5,100,97.0
3646,F4,237.5,1.5,100,97.0
3647,C4,237.5,1.5,100,97.0
3648,A1,238.0,0.75,120,97.0
3649,A5,238.0,667/1000,120,97.0
3650,C#4,238.0,0.75,120,97.0
3651,A2,238.0,0.75,120,97.0
3652,E2,238.0,0.75,120,97.0
3653,A1,238.75,229/500,120,97.0
3654,A5,238.75,229/500,120,97.0
3655,C#4,238.75,229/500,120,97.0
3656,A2,238.75,229/500,120,97.0
3657,E2,238.75,229/500,120,97.0
3658,A1,239.25,26/125,120,97.0
3659,A5,239.25,183/1000,120,97.0
3660,C#4,239.25,26/125,120,97.0
3661,A2,239.25,26/125,120,97.0
3662,E2,239.25,26/125,120,97.0
3663,G1,239.5,229/500,120,97.0
3664,G5,239.5,229/500,120,97.0
3665,C#4,239.5,229/500,120,97.0
3666,A2,239.5,229/500,120,97.0
3667,E2,239.5,229/500,120,97.0
3668,F2,240.0,1.5,120,97.0
3669,F3,240.0,229/500,100,97.0
3670,E4,240.0,229/500,125,97.0
3671,C2,240.0,1.0,120,97.0
3672,C#3,240.0,1.0,100,97.0
3673,D4,240.0,1.0,100,97.0
3674,G4,240.0,667/1000,100,97.0
3675,E4,240.0,667/1000,100,97.0
3676,B3,240.0,667/1000,100,97.0
3677,C6,240.025,2.0,100,97.0
3678,F3,240.5,229/500,100,97.0
3679,E4,240.5,229/500,125,97.0
3680,F#2,240.5,1.0,100,97.0
3681,G4,240.75,167/1000,100,97.0
3682,E4,240.75,167/1000,100,97.0
3683,B3,240.75,167/1000,100,97.0
3684,F3,241.0,26/125,100,97.0
3685,E4,241.0,26/125,125,97.0
3686,E2,241.0,1.0,120,97.0
3687,F#2,241.0,1.0,100,97.0
3688,D4,241.0,1.0,100,97.0
3689,F3,241.25,26/125,100,97.0
3690,E4,241.25,26/125,125,97.0
3691,F2,241.5,167/1000,120,97.0
3692,F3,241.5,26/125,100,97.0
3693,E4,241.5,26/125,125,97.0
3694,F#2,241.5,1.0,100,97.0
3695,D4,241.5,1.0,100,97.0
3696,B3,241.5,1.0,100,97.0
3697,E4,241.5,1.0,100,97.0
3698,G4,241.5,1.0,100,97.0
3699,F2,241.75,167/1000,120,97.0
3700,F3,241.75,26/125,100,97.0
3701,E4,241.75,26/125,125,97.0
3702,C2,241.75,1.0,120,97.0
3703,D4,241.75,1.0,100,97.0
3704,E2,242.0,667/1000,120,97.0
3705,D6,242.0,41/40,100,97.0
3706,E3,242.0,26/125,100,97.0
3707,D4,242.0,26/125,125,97.0
3708,D4,242.0,1.0,100,97.0
3709,A3,242.0,3.0,100,97.0
3710,F4,242.0,3.0,100,97.0
3711,F#2,242.0,1.0,110,97.0
3712,C2,242.0,1.0,110,97.0
3713,B5,242.025,0.75,100,97.0
3714,E3,242.25,229/500,100,97.0
3715,E4,242.25,229/500,125,97.0
3716,D4,242.5,1.0,100,97.0
3717,E4,242.5,0.5,100,97.0
3718,C#4,242.5,0.5,100,97.0
3719,A4,242.5,0.5,100,97.0
3720,F#2,242.5,1.0,110,97.0
3721,C2,242.5,1.0,110,97.0
3722,D2,242.75,229/500,120,97.0
3723,D3,242.75,583/1000,100,97.0
3724,C4,242.75,583/1000,125,97.0
3725,A5,242.775,49/40,100,97.0
3726,E2,243.0,1.0,120,97.0
3727,F#2,243.0,1.0,100,97.0
3728,C#4,243.0,1.0,100,97.0
3729,E4,243.0,1.5,100,97.0
3730,C#4,243.0,1.5,100,97.0
3731,A4,243.0,1.5,100,97.0
3732,D2,243.5,0.5,120,97.0
3733,E4,243.5,0.25,100,97.0
3734,C#4,243.5,0.5,100,97.0
3735,C2,243.5,0.5,110,97.0
3736,B-2,243.5,0.5,110,97.0
3737,C5,243.5,0.5,100,97.0
3738,G4,243.5,0.5,100,97.0
3739,E4,243.75,0.25,100,97.0
3740,D2,244.0,0.5,120,97.0
3741,A5,244.0,71/40,100,97.0
3742,E4,244.0,229/500,100,97.0
3743,D4,244.0,1.0,100,97.0
3744,C#4,244.0,0.5,100,97.0
3745,E2,244.0,1.0,110,97.0
3746,F#2,244.0,1.0,110,97.0
3747,C2,244.0,0.5,110,97.0
3748,B-2,244.0,0.5,110,97.0
3749,C5,244.0,1.5,100,97.0
3750,G4,244.0,1.5,100,97.0
3751,G5,244.025,229/500,100,97.0
3752,D3,244.5,167/1000,120,97.0
3753,E4,244.5,229/500,100,97.0
3754,F#2,244.5,1.0,100,97.0
3755,A5,244.525,229/500,100,97.0
3756,C3,244.75,167/1000,120,97.0
3757,D3,245.0,667/1000,120,97.0
3758,A3,245.0,229/500,100,97.0
3759,E4,245.0,229/500,100,97.0
3760,E2,245.0,1.0,120,97.0
3761,F#2,245.0,1.0,100,97.0
3762,D4,245.0,1.0,100,97.0
3763,E4,245.0,667/1000,100,97.0
3764,A4,245.0,667/1000,100,97.0
3765,C6,245.025,229/500,100,97.0
3766,A3,245.5,229/500,100,97.0
3767,E4,245.5,229/500,100,97.0
3768,F#2,245.5,1.0,100,97.0
3769,D4,245.5,1.0,100,97.0
3770,G6,245.525,229/500,100,97.0
3771,D3,245.75,167/1000,120,97.0
3772,C2,245.75,1.0,120,97.0
3773,D4,245.75,1.0,100,97.0
3774,E4,245.75,417/1000,100,97.0
3775,A4,245.75,417/1000,100,97.0
3776,D3,246.0,333/1000,120,97.0
3777,A3,246.0,26/125,100,97.0
3778,E4,246.0,667/1000,100,97.0
3779,D4,246.0,1.0,100,97.0
3780,C5,246.0,21/500,101,97.0
3781,G3,246.0,3.5,100,97.0
3782,G4,246.0,3.5,100,97.0
3783,B3,246.0,3.5,100,97.0
3784,E4,246.0,3.5,100,97.0
3785,F#2,246.0,1.0,110,97.0
3786,C2,246.0,1.0,110,97.0
3787,E6,246.025,2.5,100,97.0
3788,A3,246.25,26/125,100,97.0
3789,D4,246.25,1.0,100,97.0
3790,A4,246.25,21/500,100,97.0
3791,E4,246.25,26/125,100,97.0
3792,A4,246.25,26/125,100,97.0
3793,D3,246.5,26/125,120,97.0
3794,B3,246.5,51/125,100,97.0
3795,A3,246.5,26/125,100,97.0
3796,D4,246.5,1.0,100,97.0
3797,D4,246.5,333/1000,100,97.0
3798,G4,246.5,333/1000,100,97.0
3799,F#2,246.5,1.0,110,97.0
3800,C2,246.5,1.0,110,97.0
3801,A2,246.75,229/500,120,97.0
3802,A3,246.75,26/125,100,97.0
3803,D4,246.75,0.5,100,97.0
3804,D4,246.75,1.0,100,97.0
3805,A4,246.75,1.25,100,97.0
3806,F4,246.75,1.25,100,97.0
3807,G3,247.0,26/125,100,97.0
3808,F#2,247.0,1.0,100,97.0
3809,C#4,247.0,1.0,100,97.0
3810,F3,247.0,1.0,100,97.0
3811,A3,247.0,1.0,100,97.0
3812,C4,247.0,1.0,100,97.0
3813,E4,247.0,1.0,100,97.0
3814,C2,247.0,1.0,120,97.0
3815,E2,247.0,1.0,120,97.0
3816,A2,247.25,167/1000,120,97.0
3817,G3,247.25,229/500,100,97.0
3818,C4,247.25,0.5,100,97.0
3819,C2,247.25,0.75,120,97.0
3820,G2,247.5,0.5,120,97.0
3821,F#2,247.5,0.5,100,97.0
3822,C#4,247.5,0.5,100,97.0
3823,E4,247.75,0.25,125,97.0
3824,F3,247.75,583/1000,100,97.0
3825,C2,247.75,0.25,120,97.0
3826,C#4,247.75,0.25,100,97.0
3827,F2,248.0,1.5,120,97.0
3828,F3,248.0,229/500,100,97.0
3829,G4,248.0,229/500,125,97.0
3830,C2,248.0,1.0,120,97.0
3831,C2,248.0,0.25,120,97.0
3832,F#2,248.0,1.0,100,97.0
3833,F#2,248.0,0.5,100,97.0
3834,C2,248.0,0.75,120,97.0
3835,D4,248.0,1.0,100,97.0
3836,C#4,248.0,0.5,100,97.0
3837,C#4,248.0,0.75,100,97.0
3838,F3,248.0,1.0,100,97.0
3839,A3,248.0,1.0,100,97.0
3840,C4,248.0,1.0,100,97.0
3841,E4,248.0,1.0,100,97.0
3842,A4,248.0,0.25,100,97.0
3843,F4,248.0,0.25,100,97.0
3844,E6,248.025,2.0,100,97.0
3845,F3,248.5,229/500,100,97.0
3846,E4,248.5,0.25,125,97.0
3847,F#2,248.5,1.0,100,97.0
3848,E6,248.525,0.5,100,97.0
3849,G4,248.75,229/500,125,97.0
3850,F3,249.0,26/125,100,97.0
3851,E2,249.0,1.0,120,97.0
3852,F#2,249.0,1.0,100,97.0
3853,D4,249.0,1.0,100,97.0
3854,D4,249.0,667/1000,100,97.0
3855,B3,249.0,667/1000,100,97.0
3856,G3,249.0,667/1000,100,97.0
3857,E3,249.0,667/1000,100,97.0
3858,G6,249.025,0.5,100,97.0
3859,F3,249.25,26/125,100,97.0
3860,E4,249.25,26/125,125,97.0
3861,F2,249.5,167/1000,120,97.0
3862,F3,249.5,26/125,100,97.0
3863,G4,249.5,26/125,125,97.0
3864,F#2,249.5,1.0,100,97.0
3865,D4,249.5,1.0,100,97.0
3866,A3,249.5,0.5,100,97.0
3867,C#4,249.5,0.5,100,97.0
3868,E4,249.5,0.5,100,97.0
3869,A6,249.525,19/40,100,97.0
3870,F2,249.75,167/1000,120,97.0
3871,F3,249.75,26/125,100,97.0
3872,E4,249.75,26/125,125,97.0
3873,C2,249.75,1.0,120,97.0
3874,D4,249.75,1.0,100,97.0
3875,A3,249.75,0.5,100,97.0
3876,F3,249.75,0.5,100,97.0
3877,C4,249.75,0.5,100,97.0
3878,E2,250.0,667/1000,120,97.0
3879,E3,250.0,26/125,100,97.0
3880,A4,250.0,229/500,125,97.0
3881,D4,250.0,1.0,100,97.0
3882,F#2,250.0,1.0,110,97.0
3883,C2,250.0,1.0,110,97.0
3884,D6,250.025,0.75,100,97.0
3885,E3,250.25,229/500,100,97.0
3886,A4,250.5,0.25,125,97.0
3887,D4,250.5,1.0,100,97.0
3888,F3,250.5,0.5,100,97.0
3889,A3,250.5,0.5,100,97.0
3890,C4,250.5,0.5,100,97.0
3891,C4,250.5,0.5,100,97.0
3892,F#2,250.5,1.0,110,97.0
3893,C2,250.5,1.0,110,97.0
3894,D2,250.75,229/500,120,97.0
3895,D3,250.75,583/1000,100,97.0
3896,E4,250.75,0.25,125,97.0
3897,C6,250.775,49/40,100,97.0
3898,D4,251.0,0.25,125,97.0
3899,E2,251.0,1.0,120,97.0
3900,F#2,251.0,1.0,100,97.0
3901,C#4,251.0,1.0,100,97.0
3902,F3,251.0,0.25,100,97.0
3903,A3,251.0,0.25,100,97.0
3904,C4,251.0,0.25,100,97.0
3905,C4,251.0,0.25,100,97.0
3906,C4,251.25,0.5,125,97.0
3907,C4,251.25,26/125,100,97.0
3908,D2,251.5,0.5,120,97.0
3909,C4,251.5,26/125,100,97.0
3910,C#4,251.5,0.5,100,97.0
3911,C6,251.5,0.5,100,97.0
3912,F3,251.5,417/1000,100,97.0
3913,A3,251.5,417/1000,100,97.0
3914,C4,251.5,417/1000,100,97.0
3915,C2,251.5,0.5,110,97.0
3916,B-2,251.5,0.5,110,97.0
3917,D2,252.0,0.5,120,97.0
3918,C6,252.0,71/40,100,97.0
3919,C4,252.0,229/500,100,97.0
3920,D4,252.0,1.0,100,97.0
3921,C#4,252.0,0.5,100,97.0
3922,C6,252.0,1.0,100,97.0
3923,E2,252.0,1.0,110,97.0
3924,F#2,252.0,1.0,110,97.0
3925,C2,252.0,0.5,110,97.0
3926,B-2,252.0,0.5,110,97.0
3927,G4,252.25,0.375,100,97.0
3928,B4,252.25,0.375,100,97.0
3929,D4,252.25,0.375,100,97.0
3930,D3,252.5,167/1000,120,97.0
3931,A3,252.5,26/125,100,97.0
3932,F#2,252.5,1.0,100,97.0
3933,C3,252.75,167/1000,120,97.0
3934,E3,252.75,583/1000,100,97.0
3935,F3,252.75,2.0,100,97.0
3936,A3,252.75,2.0,100,97.0
3937,C4,252.75,2.0,100,97.0
3938,D3,253.0,667/1000,120,97.0
3939,A6,253.0,141/40,100,97.0
3940,A3,253.0,229/500,100,97.0
3941,E2,253.0,1.0,120,97.0
3942,F#2,253.0,1.0,100,97.0
3943,D4,253.0,1.0,100,97.0
3944,A3,253.0,3.0,100,97.0
3945,C#4,253.0,3.0,100,97.0
3946,E4,253.0,3.0,100,97.0
3947,A3,253.5,229/500,100,97.0
3948,E3,253.5,229/500,100,97.0
3949,F#2,253.5,1.0,100,97.0
3950,D4,253.5,1.0,100,97.0
3951,G5,253.5,229/500,100,97.0
3952,D3,253.75,167/1000,120,97.0
3953,C2,253.75,1.0,120,97.0
3954,D4,253.75,1.0,100,97.0
3955,D3,254.0,333/1000,120,97.0
3956,A3,254.0,26/125,100,97.0
3957,D3,254.0,229/500,100,97.0
3958,D4,254.0,1.0,100,97.0
3959,G5,254.0,2.0,100,97.0
3960,F#2,254.0,1.0,110,97.0
3961,C2,254.0,1.0,110,97.0
3962,A3,254.25,26/125,100,97.0
3963,D4,254.25,1.0,100,97.0
3964,D3,254.5,26/125,120,97.0
3965,A3,254.5,26/125,100,97.0
3966,C3,254.5,229/500,100,97.0
3967,D4,254.5,1.0,100,97.0
3968,F#2,254.5,1.0,110,97.0
3969,C2,254.5,1.0,110,97.0
3970,A2,254.75,229/500,120,97.0
3971,A3,254.75,26/125,100,97.0
3972,D4,254.75,1.0,100,97.0
3973,G3,255.0,26/125,100,97.0
3974,C3,255.0,0.625,100,97.0
3975,F#2,255.0,1.0,100,97.0
3976,C#4,255.0,1.0,100,97.0
3977,F3,255.0,1.0,100,97.0
3978,A3,255.0,1.0,100,97.0
3979,C4,255.0,1.0,100,97.0
3980,E4,255.0,1.0,100,97.0
3981,C2,255.0,1.0,120,97.0
3982,E2,255.0,1.0,120,97.0
3983,A5,255.025,667/1000,120,97.0
3984,A2,255.25,167/1000,120,97.0
3985,G3,255.25,229/500,100,97.0
3986,C2,255.25,0.75,120,97.0
3987,G2,255.5,0.5,120,97.0
3988,F#2,255.5,0.5,100,97.0
3989,C#4,255.5,0.5,100,97.0
3990,F3,255.75,583/1000,100,97.0
3991,C2,255.75,0.25,120,97.0
3992,C#4,255.75,0.25,100,97.0
3993,A5,255.775,229/500,120,97.0
3994,F2,256.0,1.5,120,97.0
3995,F3,256.0,229/500,100,97.0
3996,E4,256.0,229/500,125,97.0
3997,C2,256.0,1.0,120,97.0
3998,C2,256.0,0.25,120,97.0
3999,F#2,256.0,1.0,100,97.0
4000,F#2,256.0,0.5,100,97.0
4001,C2,256.0,0.75,120,97.0
4002,D4,256.0,1.0,100,97.0
4003,C#4,256.0,0.5,100,97.0
4004,C#4,256.0,0.75,100,97.0
4005,F3,256.0,1.0,100,97.0
4006,A3,256.0,1.0,100,97.0
4007,C4,256.0,1.0,100,97.0
4008,E4,256.0,1.0,100,97.0
4009,C6,256.025,2.0,100,97.0
4010,A5,256.275,183/1000,120,97.0
4011,F3,256.5,229/500,100,97.0
4012,D4,256.5,0.25,125,97.0
4013,F#2,256.5,1.0,100,97.0
4014,G5,256.525,229/500,120,97.0
4015,D4,256.75,0.5,125,97.0
4016,C6,257.0,2.0,100,97.0
4017,F3,257.0,26/125,100,97.0
4018,E2,257.0,1.0,120,97.0
4019,F#2,257.0,1.0,100,97.0
4020,D4,257.0,1.0,100,97.0
4021,D4,257.0,667/1000,100,97.0
4022,B3,257.0,667/1000,100,97.0
4023,G3,257.0,667/1000,100,97.0
4024,E3,257.0,667/1000,100,97.0
4025,F3,257.25,26/125,100,97.0
4026,C4,257.25,26/125,125,97.0
4027,F3,257.5,26/125,100,97.0
4028,D4,257.5,26/125,125,97.0
4029,F#2,257.5,1.0,100,97.0
4030,D4,257.5,1.0,100,97.0
4031,F2,257.75,167/1000,120,97.0
4032,F3,257.75,26/125,100,97.0
4033,C4,257.75,26/125,125,97.0
4034,C2,257.75,1.0,120,97.0
4035,D4,257.75,1.0,100,97.0
4036,A3,257.75,0.5,100,97.0
4037,F3,257.75,0.5,100,97.0
4038,C4,257.75,0.5,100,97.0
4039,E2,258.0,667/1000,120,97.0
4040,E3,258.0,26/125,100,97.0
4041,G4,258.0,0.5,125,97.0
4042,D4,258.0,1.0,100,97.0
4043,F#2,258.0,1.0,110,97.0
4044,C2,258.0,1.0,110,97.0
4045,B5,258.025,0.75,100,97.0
4046,E3,258.25,229/500,100,97.0
4047,A4,258.5,0.5,125,97.0
4048,D4,258.5,1.0,100,97.0
4049,F3,258.5,0.5,100,97.0
4050,A3,258.5,0.5,100,97.0
4051,C4,258.5,0.5,100,97.0
4052,C4,258.5,0.5,100,97.0
4053,F#2,258.5,1.0,110,97.0
4054,C2,258.5,1.0,110,97.0
4055,D2,258.75,229/500,120,97.0
4056,D3,258.75,583/1000,100,97.0
4057,A5,258.775,49/40,100,97.0
4058,B5,259.0,0.75,100,97.0
4059,C5,259.0,0.5,125,97.0
4060,E2,259.0,1.0,120,97.0
4061,F#2,259.0,1.0,100,97.0
4062,C#4,259.0,1.0,100,97.0
4063,F3,259.0,0.25,100,97.0
4064,A3,259.0,0.25,100,97.0
4065,C4,259.0,0.25,100,97.0
4066,C4,259.0,0.25,100,97.0
4067,D2,259.5,0.5,120,97.0
4068,A3,259.5,229/500,100,97.0
4069,C#4,259.5,0.5,100,97.0
4070,F3,259.5,417/1000,100,97.0
4071,A3,259.5,417/1000,100,97.0
4072,C4,259.5,417/1000,100,97.0
4073,C2,259.5,0.5,110,97.0
4074,B-2,259.5,0.5,110,97.0
4075,G5,259.5,0.5,100,97.0
4076,G4,259.5,0.5,100,97.0
4077,A5,259.75,1.25,100,97.0
4078,D2,260.0,1.5,120,97.0
4079,A5,260.0,71/40,100,97.0
4080,C4,260.0,229/500,100,97.0
4081,D4,260.0,1.0,100,97.0
4082,C#4,260.0,0.5,100,97.0
4083,E2,260.0,1.0,110,97.0
4084,F#2,260.0,1.0,110,97.0
4085,C2,260.0,0.5,110,97.0
4086,B-2,260.0,0.5,110,97.0
4087,G5,260.0,0.75,100,97.0
4088,G4,260.0,0.75,100,97.0
4089,G4,260.25,0.375,100,97.0
4090,B4,260.25,0.375,100,97.0
4091,D4,260.25,0.375,100,97.0
4092,A3,260.5,229/500,100,97.0
4093,F#2,260.5,1.0,100,97.0
4094,F3,260.75,2.0,100,97.0
4095,A3,260.75,2.0,100,97.0
4096,C4,260.75,2.0,100,97.0
4097,A5,261.0,1.75,100,97.0
4098,A3,261.0,229/500,100,97.0
4099,C4,261.0,229/500,100,97.0
4100,E2,261.0,1.0,120,97.0
4101,F#2,261.0,1.0,100,97.0
4102,D4,261.0,1.0,100,97.0
4103,G4,261.0,67/1000,100,97.0
4104,A3,261.5,229/500,100,97.0
4105,A3,261.5,229/500,100,97.0
4106,F#2,261.5,1.0,100,97.0
4107,D4,261.5,1.0,100,97.0
4108,A4,261.5,67/1000,100,97.0
4109,D2,261.75,167/1000,120,97.0
4110,C2,261.75,1.0,120,97.0
4111,D4,261.75,1.0,100,97.0
4112,D2,262.0,167/1000,120,97.0
4113,A3,262.0,26/125,100,97.0
4114,D4,262.0,667/1000,100,97.0
4115,D4,262.0,1.0,100,97.0
4116,E4,262.0,67/1000,100,97.0
4117,F#2,262.0,1.0,110,97.0
4118,C2,262.0,1.0,110,97.0
4119,D2,262.25,229/500,120,97.0
4120,A3,262.25,26/125,100,97.0
4121,D4,262.25,1.0,100,97.0
4122,A3,262.5,26/125,100,97.0
4123,D4,262.5,1.0,100,97.0
4124,F#2,262.5,1.0,110,97.0
4125,C2,262.5,1.0,110,97.0
4126,C2,262.75,229/500,120,97.0
4127,A3,262.75,26/125,100,97.0
4128,A3,262.75,0.75,100,97.0
4129,D4,262.75,1.0,100,97.0
4130,G3,263.0,26/125,100,97.0
4131,F#2,263.0,1.0,100,97.0
4132,C#4,263.0,1.0,100,97.0
4133,E4,263.0,67/1000,100,97.0
4134,F3,263.0,1.0,100,97.0
4135,A3,263.0,1.0,100,97.0
4136,C4,263.0,1.0,100,97.0
4137,E4,263.0,1.0,100,97.0
4138,C2,263.0,1.0,120,97.0
4139,E2,263.0,1.0,120,97.0
4140,C2,263.25,167/1000,120,97.0
4141,G3,263.25,229/500,100,97.0
4142,C2,263.25,0.75,120,97.0
4143,A1,263.5,229/500,120,97.0
4144,F#2,263.5,0.5,100,97.0
4145,C#4,263.5,0.5,100,97.0
4146,C4,263.5,333/1000,100,97.0
4147,F3,263.75,583/1000,100,97.0
4148,C2,263.75,0.25,120,97.0
4149,C#4,263.75,0.25,100,97.0
4150,F1,264.0,1.5,120,97.0
4151,F3,264.0,229/500,100,97.0
4152,E4,264.0,229/500,125,97.0
4153,C2,264.0,1.0,120,97.0
4154,C2,264.0,0.25,120,97.0
4155,F#2,264.0,1.0,100,97.0
4156,F#2,264.0,0.5,100,97.0
4157,C2,264.0,0.75,120,97.0
4158,D4,264.0,1.0,100,97.0
4159,C#4,264.0,0.5,100,97.0
4160,C#4,264.0,0.75,100,97.0
4161,F3,264.0,1.0,100,97.0
4162,A3,264.0,1.0,100,97.0
4163,C4,264.0,1.0,100,97.0
4164,E4,264.0,1.0,100,97.0
4165,E6,264.025,2.0,100,97.0
4166,F3,264.5,229/500,100,97.0
4167,E4,264.5,229/500,125,97.0
4168,F#2,264.5,1.0,100,97.0
4169,E6,265.0,2.0,100,97.0
4170,F3,265.0,26/125,100,97.0
4171,E4,265.0,26/125,125,97.0
4172,E2,265.0,1.0,120,97.0
4173,F#2,265.0,1.0,100,97.0
4174,D4,265.0,1.0,100,97.0
4175,D4,265.0,667/1000,100,97.0
4176,B3,265.0,667/1000,100,97.0
4177,G3,265.0,667/1000,100,97.0
4178,E3,265.0,667/1000,100,97.0
4179,F3,265.25,26/125,100,97.0
4180,E4,265.25,26/125,125,97.0
4181,F3,265.5,26/125,100,97.0
4182,E4,265.5,26/125,125,97.0
4183,F#2,265.5,1.0,100,97.0
4184,D4,265.5,1.0,100,97.0
4185,F1,265.75,167/1000,120,97.0
4186,F3,265.75,26/125,100,97.0
4187,E4,265.75,26/125,125,97.0
4188,C2,265.75,1.0,120,97.0
4189,D4,265.75,1.0,100,97.0
4190,A3,265.75,0.5,100,97.0
4191,F3,265.75,0.5,100,97.0
4192,C4,265.75,0.5,100,97.0
4193,E2,266.0,667/1000,120,97.0
4194,E3,266.0,26/125,100,97.0
4195,D4,266.0,26/125,125,97.0
4196,D4,266.0,1.0,100,97.0
4197,F#2,266.0,1.0,110,97.0
4198,C2,266.0,1.0,110,97.0
4199,D6,266.025,0.75,100,97.0
4200,E3,266.25,229/500,100,97.0
4201,E4,266.25,229/500,125,97.0
4202,D4,266.5,1.0,100,97.0
4203,F3,266.5,0.5,100,97.0
4204,A3,266.5,0.5,100,97.0
4205,C4,266.5,0.5,100,97.0
4206,C4,266.5,0.5,100,97.0
4207,F#2,266.5,1.0,110,97.0
4208,C2,266.5,1.0,110,97.0
4209,D2,266.75,229/500,120,97.0
4210,D3,266.75,583/1000,100,97.0
4211,C4,266.75,583/1000,125,97.0
4212,C6,266.775,49/40,100,97.0
4213,D6,267.0,0.75,100,97.0
4214,E2,267.0,1.0,120,97.0
4215,F#2,267.0,1.0,100,97.0
4216,C#4,267.0,1.0,100,97.0
4217,F3,267.0,0.25,100,97.0
4218,A3,267.0,0.25,100,97.0
4219,C4,267.0,0.25,100,97.0
4220,C4,267.0,0.25,100,97.0
4221,G1,267.5,0.5,120,97.0
4222,C#4,267.5,0.5,100,97.0
4223,G5,267.5,0.5,100,97.0
4224,F3,267.5,417/1000,100,97.0
4225,A3,267.5,417/1000,100,97.0
4226,C4,267.5,417/1000,100,97.0
4227,C2,267.5,0.5,110,97.0
4228,C#3,267.5,0.5,110,97.0
4229,C6,267.75,1.25,100,97.0
4230,G1,268.0,0.5,120,97.0
4231,C6,268.0,71/40,100,97.0
4232,C#4,268.0,0.5,100,97.0
4233,G5,268.0,1.0,100,97.0
4234,C2,268.0,0.5,110,97.0
4235,C#3,268.0,0.5,110,97.0
4236,G4,268.25,0.375,100,97.0
4237,B4,268.25,0.375,100,97.0
4238,D4,268.25,0.375,100,97.0
4239,G1,268.5,417/1000,120,97.0
4240,C2,268.5,1.0,110,97.0
4241,F#2,268.5,1.0,110,97.0
4242,F3,268.75,2.0,100,97.0
4243,A3,268.75,2.0,100,97.0
4244,C4,268.75,2.0,100,97.0
4245,G1,269.0,417/1000,120,97.0
4246,C6,269.0,1.75,100,97.0
4247,A3,269.0,229/500,100,97.0
4248,C2,269.0,1.0,120,97.0
4249,F#2,269.0,1.0,100,97.0
4250,E5,269.0,0.25,100,97.0
4251,G5,269.25,0.25,100,97.0
4252,G1,269.5,417/1000,120,97.0
4253,A3,269.5,229/500,100,97.0
4254,E5,269.5,1.5,100,97.0
4255,C2,269.5,1.0,110,97.0
4256,F#2,269.5,1.0,110,97.0
4257,G2,270.0,833/1000,120,97.0
4258,G4,270.0,229/500,100,97.0
4259,A3,270.0,26/125,100,97.0
4260,C#4,270.0,1.0,100,97.0
4261,F#2,270.0,1.0,110,97.0
4262,C2,270.0,1.0,110,97.0
4263,A3,270.25,26/125,100,97.0
4264,C#4,270.25,1.0,100,97.0
4265,A4,270.5,229/500,100,97.0
4266,A3,270.5,26/125,100,97.0
4267,C#4,270.5,1.0,100,97.0
4268,F#2,270.5,1.0,110,97.0
4269,E2,270.5,1.0,110,97.0
4270,A3,270.75,26/125,100,97.0
4271,E2,270.75,1.0,120,97.0
4272,C#4,270.75,1.0,100,97.0
4273,E2,270.875,1.0,120,97.0
4274,C2,271.0,229/500,120,97.0
4275,C5,271.0,229/500,100,97.0
4276,G3,271.0,26/125,100,97.0
4277,E2,271.0,1.0,120,97.0
4278,F#2,271.0,1.0,100,97.0
4279,C#4,271.0,1.0,100,97.0
4280,F3,271.0,2.0,100,97.0
4281,A3,271.0,2.0,100,97.0
4282,C4,271.0,2.0,100,97.0
4283,E4,271.0,2.0,100,97.0
4284,G3,271.25,229/500,100,97.0
4285,D4,271.25,0.75,100,97.0
4286,C#2,271.5,229/500,120,97.0
4287,E5,271.5,229/500,100,97.0
4288,B-2,271.5,0.5,100,97.0
4289,C#4,271.5,0.5,100,97.0
4290,F3,271.75,583/1000,100,97.0
4291,D2,272.0,1.5,120,97.0
4292,D5,272.0,4.0,100,97.0
4293,F3,272.0,1.0,100,97.0
4294,B-2,272.0,0.5,100,97.0
4295,D4,272.0,1.0,100,97.0
4296,D4,272.0,0.25,100,97.0
4297,C#4,272.0,0.5,100,97.0
4298,F3,272.0,1.0,110,97.0
4299,C2,272.0,1.0,110,97.0
4300,F3,272.5,1.0,100,97.0
4301,F3,272.75,1.0,100,97.0
4302,C6,273.0,2.0,100,97.0
4303,D4,273.0,1.0,100,97.0
4304,D4,273.0,667/1000,100,97.0
4305,B3,273.0,667/1000,100,97.0
4306,G3,273.0,667/1000,100,97.0
4307,E3,273.0,667/1000,100,97.0
4308,F3,273.0,1.0,110,97.0
4309,E2,273.0,1.0,110,97.0
4310,D4,273.0,24/125,100,97.0
4311,F4,273.0,24/125,100,97.0
4312,A4,273.0,24/125,100,97.0
4313,F3,273.5,1.0,100,97.0
4314,D4,273.5,1.0,100,97.0
4315,A2,273.75,167/1000,120,97.0
4316,F3,273.75,1.0,100,97.0
4317,D4,273.75,1.0,100,97.0
4318,A3,273.75,0.5,100,97.0
4319,F3,273.75,0.5,100,97.0
4320,C4,273.75,0.5,100,97.0
4321,D3,274.0,229/500,120,97.0
4322,F3,274.0,1.0,100,97.0
4323,C4,274.0,1.0,100,97.0
4324,C2,274.0,1.0,110,97.0
4325,F3,274.0,1.0,110,97.0
4326,C4,274.25,1.0,100,97.0
4327,D3,274.5,833/1000,120,97.0
4328,G6,274.5,1.0,100,97.0
4329,G3,274.5,0.5,100,97.0
4330,F4,274.5,0.5,100,97.0
4331,A3,274.5,0.5,100,97.0
4332,C4,274.5,0.5,100,97.0
4333,C2,274.5,1.0,110,97.0
4334,F3,274.5,1.0,110,97.0
4335,F3,274.75,1.0,100,97.0
4336,C4,274.75,1.0,100,97.0
4337,B5,275.0,0.75,100,97.0
4338,C#4,275.0,1.0,100,97.0
4339,G3,275.0,3.5,100,97.0
4340,F4,275.0,3.5,100,97.0
4341,A3,275.0,3.5,100,97.0
4342,C4,275.0,3.5,100,97.0
4343,E2,275.0,1.0,110,97.0
4344,F3,275.0,1.0,110,97.0
4345,D4,275.0,24/125,100,97.0
4346,F4,275.0,24/125,100,97.0
4347,A4,275.0,24/125,100,97.0
4348,A1,275.5,24/125,120,97.0
4349,F3,275.5,0.5,100,97.0
4350,C#4,275.5,0.5,100,97.0
4351,F6,275.5,0.25,100,97.0
4352,C2,275.75,24/125,120,97.0
4353,A5,275.75,1.25,100,97.0
4354,E6,275.75,0.25,100,97.0
4355,C2,275.75,0.25,110,97.0
4356,F3,275.75,0.25,110,97.0
4357,D2,276.0,229/500,120,97.0
4358,D5,276.0,1.0,100,97.0
4359,F3,276.0,0.5,100,97.0
4360,F3,276.0,1.0,100,97.0
4361,D4,276.0,1.0,100,97.0
4362,C#4,276.0,0.5,100,97.0
4363,F6,276.0,2.5,100,97.0
4364,F3,276.0,1.0,110,97.0
4365,C2,276.0,1.0,110,97.0
4366,C2,276.0,0.75,110,97.0
4367,F3,276.0,0.75,110,97.0
4368,D2,276.5,833/1000,120,97.0
4369,F3,276.5,1.0,100,97.0
4370,F3,276.75,1.0,100,97.0
4371,A5,277.0,1.75,100,97.0
4372,D4,277.0,1.0,100,97.0
4373,F3,277.0,1.0,110,97.0
4374,E2,277.0,1.0,110,97.0
4375,D4,277.0,24/125,100,97.0
4376,F4,277.0,24/125,100,97.0
4377,A4,277.0,24/125,100,97.0
4378,D2,277.5,167/1000,120,97.0
4379,F3,277.5,1.0,100,97.0
4380,D4,277.5,1.0,100,97.0
4381,D2,277.75,167/1000,120,97.0
4382,F3,277.75,1.0,100,97.0
4383,D4,277.75,1.0,100,97.0
4384,D2,278.0,229/500,120,97.0
4385,G4,278.0,229/500,100,97.0
4386,F3,278.0,1.0,100,97.0
4387,D4,278.0,1.0,100,97.0
4388,C2,278.0,1.0,110,97.0
4389,F3,278.0,1.0,110,97.0
4390,D4,278.25,1.0,100,97.0
4391,D2,278.5,229/500,120,97.0
4392,A4,278.5,229/500,100,97.0
4393,D4,278.5,1.0,100,97.0
4394,C2,278.5,1.0,110,97.0
4395,F3,278.5,1.0,110,97.0
4396,F3,278.75,1.0,100,97.0
4397,D4,278.75,1.0,100,97.0
4398,C2,279.0,229/500,120,97.0
4399,C5,279.0,229/500,100,97.0
4400,C#4,279.0,1.0,100,97.0
4401,E2,279.0,1.0,110,97.0
4402,F3,279.0,1.0,110,97.0
4403,D4,279.0,24/125,100,97.0
4404,F4,279.0,24/125,100,97.0
4405,A4,279.0,24/125,100,97.0
4406,G2,279.5,229/500,120,97.0
4407,G5,279.5,229/500,100,97.0
4408,F3,279.5,0.5,100,97.0
4409,C#4,279.5,0.5,100,97.0
4410,C#4,279.75,0.25,100,97.0
4411,C2,279.75,0.25,110,97.0
4412,F3,279.75,0.25,110,97.0
4413,C2,280.0,1.5,120,97.0
4414,E5,280.0,2.5,100,97.0
4415,F3,280.0,0.5,100,97.0
4416,F3,280.0,1.0,100,97.0
4417,D4,280.0,1.0,100,97.0
4418,C#4,280.0,0.5,100,97.0
4419,C#4,280.0,0.75,100,97.0
4420,A3,280.0,667/1000,100,97.0
4421,F4,280.0,667/1000,100,97.0
4422,C4,280.0,667/1000,100,97.0
4423,F3,280.0,1.0,110,97.0
4424,C2,280.0,1.0,110,97.0
4425,C2,280.0,0.75,110,97.0
4426,F3,280.0,0.75,110,97.0
4427,F3,280.5,1.0,100,97.0
4428,F3,280.75,1.0,100,97.0
4429,A3,280.75,167/1000,100,97.0
4430,F4,280.75,167/1000,100,97.0
4431,C4,280.75,167/1000,100,97.0
4432,E6,281.0,2.0,100,97.0
4433,D4,281.0,1.0,100,97.0
4434,F3,281.0,1.0,110,97.0
4435,E2,281.0,1.0,110,97.0
4436,B3,281.0,24/125,100,97.0
4437,E4,281.0,24/125,100,97.0
4438,G4,281.0,24/125,100,97.0
4439,F3,281.5,1.0,100,97.0
4440,D4,281.5,1.0,100,97.0
4441,A3,281.5,1.5,100,97.0
4442,F4,281.5,1.5,100,97.0
4443,C4,281.5,1.5,100,97.0
4444,G2,281.75,0.25,120,97.0
4445,F3,281.75,1.0,100,97.0
4446,D4,281.75,1.0,100,97.0
4447,C3,282.0,229/500,120,97.0
4448,F3,282.0,1.0,100,97.0
4449,D4,282.0,1.0,100,97.0
4450,C2,282.0,1.0,110,97.0
4451,F3,282.0,1.0,110,97.0
4452,C3,282.5,0.5,120,97.0
4453,E5,282.5,0.5,100,97.0
4454,D4,282.5,1.0,100,97.0
4455,E6,282.5,0.5,100,97.0
4456,C2,282.5,1.0,110,97.0
4457,F3,282.5,1.0,110,97.0
4458,F3,282.75,1.25,100,97.0
4459,G5,283.0,0.5,100,97.0
4460,D6,283.0,0.75,100,97.0
4461,E2,283.0,1.0,120,97.0
4462,F3,283.0,1.0,100,97.0
4463,C#4,283.0,1.0,100,97.0
4464,D6,283.0,0.5,100,97.0
4465,B3,283.0,24/125,100,97.0
4466,E4,283.0,24/125,100,97.0
4467,G4,283.0,24/125,100,97.0
4468,A1,283.5,0.5,120,97.0
4469,A5,283.5,0.5,100,97.0
4470,C#4,283.5,0.5,100,97.0
4471,C#6,283.5,0.5,100,97.0
4472,C2,283.5,0.25,100,97.0
4473,C#3,283.5,0.25,100,97.0
4474,C6,283.75,1.25,100,97.0
4475,A1,284.0,1.5,120,97.0
4476,A5,284.0,2667/1000,100,97.0
4477,F3,284.0,2.5,100,97.0
4478,F3,284.0,2.75,100,97.0
4479,C#4,284.0,0.5,100,97.0
4480,C#6,284.0,3.5,100,97.0
4481,A3,284.0,667/1000,100,97.0
4482,F4,284.0,667/1000,100,97.0
4483,C4,284.0,667/1000,100,97.0
4484,C2,284.5,0.75,120,97.0
4485,F#2,284.5,0.25,100,97.0
4486,A3,284.75,167/1000,100,97.0
4487,F4,284.75,167/1000,100,97.0
4488,C4,284.75,167/1000,100,97.0
4489,C6,285.0,1.75,100,97.0
4490,F#2,285.0,0.5,100,97.0
4491,E2,285.0,1.0,120,97.0
4492,F#2,285.5,0.25,100,97.0
4493,A3,285.5,1.5,100,97.0
4494,F4,285.5,1.5,100,97.0
4495,C4,285.5,1.5,100,97.0
4496,A1,286.0,0.75,120,97.0
4497,A5,286.0,151/125,120,97.0
4498,C#4,286.0,0.75,120,97.0
4499,A2,286.0,0.75,120,97.0
4500,E2,286.0,0.75,120,97.0
4501,A1,286.75,229/500,120,97.0
4502,A5,286.75,683/1000,120,97.0
4503,C#4,286.75,229/500,120,97.0
4504,A2,286.75,229/500,120,97.0
4505,E2,286.75,229/500,120,97.0
4506,G4,287.025,229/500,100,97.0
4507,A1,287.25,26/125,120,97.0
4508,A5,287.25,0.25,120,97.0
4509,C#4,287.25,26/125,120,97.0
4510,A2,287.25,26/125,120,97.0
4511,E2,287.25,26/125,120,97.0
4512,G1,287.5,229/500,120,97.0
4513,G5,287.5,229/500,120,97.0
4514,C#4,287.5,229/500,120,97.0
4515,A2,287.5,229/500,120,97.0
4516,E2,287.5,229/500,120,97.0
4517,A4,287.525,229/500,100,97.0
4518,F2,288.0,1.5,120,97.0
4519,F3,288.0,229/500,100,97.0
4520,E4,288.0,229/500,125,97.0
4521,C2,288.0,1.0,120,97.0
4522,C#3,288.0,1.0,100,97.0
4523,D4,288.0,1.0,100,97.0
4524,G4,288.0,667/1000,100,97.0
4525,E4,288.0,667/1000,100,97.0
4526,B3,288.0,667/1000,100,97.0
4527,C6,288.025,2.0,100,97.0
4528,C5,288.025,229/500,100,97.0
4529,F3,288.5,229/500,98,97.0
4530,E4,288.5,229/500,122,97.0
4531,F#2,288.5,1.0,98,97.0
4532,E5,288.525,229/500,100,97.0
4533,G4,288.75,167/1000,100,97.0
4534,E4,288.75,167/1000,100,97.0
4535,B3,288.75,167/1000,100,97.0
4536,F3,289.0,26/125,96,97.0
4537,E4,289.0,26/125,120,97.0
4538,E2,289.0,1.0,115,97.0
4539,F#2,289.0,1.0,96,97.0
4540,D4,289.0,1.0,96,97.0
4541,A3,289.0,4.0,100,97.0
4542,F4,289.0,4.0,100,97.0
4543,D5,289.025,159/40,100,97.0
4544,F3,289.25,26/125,95,97.0
4545,E4,289.25,26/125,118,97.0
4546,F2,289.5,167/1000,112,97.0
4547,F3,289.5,26/125,94,97.0
4548,E4,289.5,26/125,117,97.0
4549,F#2,289.5,1.0,94,97.0
4550,D4,289.5,1.0,94,97.0
4551,B3,289.5,1.0,100,97.0
4552,E4,289.5,1.0,100,97.0
4553,G4,289.5,1.0,100,97.0
4554,F2,289.75,167/1000,111,97.0
4555,F3,289.75,26/125,93,97.0
4556,E4,289.75,26/125,116,97.0
4557,C2,289.75,1.0,111,97.0
4558,D4,289.75,1.0,93,97.0
4559,E2,290.0,667/1000,110,97.0
4560,E3,290.0,26/125,92,97.0
4561,D4,290.0,26/125,115,97.0
4562,D4,290.0,1.0,92,97.0
4563,F#2,290.0,1.0,101,97.0
4564,C2,290.0,1.0,101,97.0
4565,B5,290.025,0.75,92,97.0
4566,E3,290.25,229/500,91,97.0
4567,E4,290.25,229/500,113,97.0
4568,D4,290.5,1.0,90,97.0
4569,E4,290.5,0.5,100,97.0
4570,C#4,290.5,0.5,100,97.0
4571,A4,290.5,0.5,100,97.0
4572,F#2,290.5,1.0,99,97.0
4573,C2,290.5,1.0,99,97.0
4574,D2,290.75,229/500,106,97.0
4575,D3,290.75,583/1000,89,97.0
4576,C4,290.75,583/1000,111,97.0
4577,A5,290.775,49/40,89,97.0
4578,E2,291.0,1.0,105,97.0
4579,F#2,291.0,1.0,88,97.0
4580,C#4,291.0,1.0,88,97.0
4581,E4,291.0,1.5,100,97.0
4582,C#4,291.0,1.5,100,97.0
4583,A4,291.0,1.5,100,97.0
4584,D2,291.5,0.5,103,97.0
4585,E4,291.5,0.25,86,97.0
4586,C#4,291.5,0.5,86,97.0
4587,C2,291.5,0.5,94,97.0
4588,B-2,291.5,0.5,94,97.0
4589,C5,291.5,0.5,86,97.0
4590,G4,291.5,0.5,86,97.0
4591,E4,291.75,0.25,85,97.0
4592,D2,292.0,0.5,103,97.0
4593,A5,292.0,71/40,89,97.0
4594,E4,292.0,229/500,84,97.0
4595,D4,292.0,1.0,84,97.0
4596,C#4,292.0,0.5,86,97.0
4597,E2,292.0,1.0,92,97.0
4598,F#2,292.0,1.0,92,97.0
4599,C2,292.0,0.5,94,97.0
4600,B-2,292.0,0.5,94,97.0
4601,C5,292.0,1.5,86,97.0
4602,G4,292.0,1.5,86,97.0
4603,D3,292.5,167/1000,98,97.0
4604,E4,292.5,229/500,82,97.0
4605,F#2,292.5,1.0,82,97.0
4606,C3,292.75,167/1000,97,97.0
4607,D3,293.0,667/1000,96,97.0
4608,A3,293.0,229/500,100,97.0
4609,E4,293.0,229/500,80,97.0
4610,E2,293.0,1.0,96,97.0
4611,F#2,293.0,1.0,80,97.0
4612,D4,293.0,1.0,80,97.0
4613,E4,293.0,667/1000,100,97.0
4614,A4,293.0,667/1000,100,97.0
4615,A3,293.5,229/500,98,97.0
4616,E4,293.5,229/500,78,97.0
4617,F#2,293.5,1.0,78,97.0
4618,D4,293.5,1.0,78,97.0
4619,D3,293.75,167/1000,92,97.0
4620,C2,293.75,1.0,92,97.0
4621,D4,293.75,1.0,77,97.0
4622,E4,293.75,417/1000,100,97.0
4623,A4,293.75,417/1000,100,97.0
4624,D3,294.0,333/1000,90,97.0
4625,A3,294.0,26/125,96,97.0
4626,E4,294.0,667/1000,75,97.0
4627,D4,294.0,1.0,75,97.0
4628,C5,294.0,21/500,75,97.0
4629,F#2,294.0,1.0,82,97.0
4630,C2,294.0,1.0,82,97.0
4631,A3,294.25,26/125,95,97.0
4632,D4,294.25,1.0,74,97.0
4633,A4,294.25,21/500,74,97.0
4634,E4,294.25,26/125,100,97.0
4635,A4,294.25,26/125,100,97.0
4636,D3,294.5,26/125,87,97.0
4637,B3,294.5,51/125,100,97.0
4638,A3,294.5,26/125,94,97.0
4639,D4,294.5,1.0,73,97.0
4640,D4,294.5,333/1000,100,97.0
4641,G4,294.5,333/1000,100,97.0
4642,F#2,294.5,1.0,80,97.0
4643,C2,294.5,1.0,80,97.0
4644,A2,294.75,229/500,86,97.0
4645,A3,294.75,26/125,93,97.0
4646,D4,294.75,0.5,72,97.0
4647,D4,294.75,1.0,72,97.0
4648,A4,294.75,1.25,72,97.0
4649,F4,294.75,1.25,72,97.0
4650,G3,295.0,26/125,92,97.0
4651,F#2,295.0,1.0,71,97.0
4652,C#4,295.0,1.0,71,97.0
4653,F3,295.0,1.0,100,97.0
4654,A3,295.0,1.0,100,97.0
4655,C4,295.0,1.0,100,97.0
4656,E4,295.0,1.0,100,97.0
4657,C2,295.0,1.0,85,97.0
4658,E2,295.0,1.0,85,97.0
4659,A2,295.25,167/1000,84,97.0
4660,G3,295.25,229/500,91,97.0
4661,C4,295.25,0.5,70,97.0
4662,C2,295.25,0.75,84,97.0
4663,G2,295.5,0.5,82,97.0
4664,F#2,295.5,0.5,69,97.0
4665,C#4,295.5,0.5,69,97.0
4666,E4,295.75,0.25,85,97.0
4667,F3,295.75,583/1000,89,97.0
4668,C2,295.75,0.25,81,97.0
4669,C#4,295.75,0.25,68,97.0
4670,F2,296.0,1.5,80,97.0
4671,D5,296.0,41/40,100,97.0
4672,F3,296.0,229/500,67,97.0
4673,G4,296.0,229/500,83,97.0
4674,C2,296.0,1.0,80,97.0
4675,C2,296.0,0.25,84,97.0
4676,F#2,296.0,1.0,67,97.0
4677,F#2,296.0,0.5,69,97.0
4678,C2,296.0,0.75,81,97.0
4679,D4,296.0,1.0,67,97.0
4680,C#4,296.0,0.5,69,97.0
4681,C#4,296.0,0.75,68,97.0
4682,A3,296.0,3.0,100,97.0
4683,F4,296.0,3.0,100,97.0
4684,F3,296.0,1.0,96,97.0
4685,A3,296.0,1.0,96,97.0
4686,C4,296.0,1.0,96,97.0
4687,E4,296.0,1.0,96,97.0
4688,A4,296.0,0.25,72,97.0
4689,F4,296.0,0.25,72,97.0
4690,E6,296.025,2.0,67,97.0
4691,F3,296.5,229/500,65,97.0
4692,E4,296.5,0.25,81,97.0
4693,F#2,296.5,1.0,65,97.0
4694,G4,296.75,229/500,80,97.0
4695,F3,297.0,26/125,63,97.0
4696,E2,297.0,1.0,75,97.0
4697,F#2,297.0,1.0,63,97.0
4698,D4,297.0,1.0,63,97.0
4699,D4,297.0,667/1000,92,97.0
4700,B3,297.0,667/1000,92,97.0
4701,G3,297.0,667/1000,92,97.0
4702,E3,297.0,667/1000,92,97.0
4703,F3,297.25,26/125,62,97.0
4704,E4,297.25,26/125,77,97.0
4705,F2,297.5,167/1000,73,97.0
4706,F3,297.5,26/125,61,97.0
4707,G4,297.5,26/125,76,97.0
4708,F#2,297.5,1.0,61,97.0
4709,D4,297.5,1.0,61,97.0
4710,F2,297.75,167/1000,72,97.0
4711,F3,297.75,26/125,60,97.0
4712,E4,297.75,26/125,75,97.0
4713,C2,297.75,1.0,72,97.0
4714,D4,297.75,1.0,60,97.0
4715,A3,297.75,0.5,89,97.0
4716,F3,297.75,0.5,89,97.0
4717,C4,297.75,0.5,89,97.0
4718,E2,298.0,667/1000,70,97.0
4719,E3,298.0,26/125,59,97.0
4720,A4,298.0,229/500,73,97.0
4721,D4,298.0,1.0,59,97.0
4722,F#2,298.0,1.0,64,97.0
4723,C2,298.0,1.0,64,97.0
4724,D6,298.025,0.75,59,97.0
4725,G4,298.025,229/500,100,97.0
4726,E3,298.25,229/500,58,97.0
4727,A4,298.5,0.25,71,97.0
4728,D4,298.5,1.0,57,97.0
4729,F3,298.5,0.5,86,97.0
4730,A3,298.5,0.5,86,97.0
4731,C4,298.5,0.5,86,97.0
4732,C4,298.5,0.5,86,97.0
4733,F#2,298.5,1.0,62,97.0
4734,C2,298.5,1.0,62,97.0
4735,A4,298.525,229/500,100,97.0
4736,D2,298.75,229/500,67,97.0
4737,D3,298.75,583/1000,56,97.0
4738,E4,298.75,0.25,70,97.0
4739,C6,298.775,49/40,56,97.0
4740,D4,299.0,0.25,68,97.0
4741,E2,299.0,1.0,66,97.0
4742,F#2,299.0,1.0,55,97.0
4743,C#4,299.0,1.0,55,97.0
4744,F3,299.0,0.25,86,97.0
4745,A3,299.0,0.25,86,97.0
4746,C4,299.0,0.25,86,97.0
4747,C4,299.0,0.25,86,97.0
4748,C5,299.025,229/500,100,97.0
4749,C4,299.25,0.5,67,97.0
4750,C4,299.25,26/125,54,97.0
4751,D2,299.5,0.5,63,97.0
4752,C4,299.5,26/125,53,97.0
4753,C#4,299.5,0.5,53,97.0
4754,C6,299.5,0.5,53,97.0
4755,F3,299.5,417/1000,82,97.0
4756,A3,299.5,417/1000,82,97.0
4757,C4,299.5,417/1000,82,97.0
4758,C2,299.5,0.5,58,97.0
4759,B-2,299.5,0.5,58,97.0
4760,G5,299.525,229/500,100,97.0
4761,D2,300.0,0.5,63,97.0
4762,C6,300.0,71/40,56,97.0
4763,C4,300.0,229/500,50,97.0
4764,D4,300.0,1.0,50,97.0
4765,C#4,300.0,0.5,53,97.0
4766,C6,300.0,1.0,53,97.0
4767,G3,300.0,3.5,100,97.0
4768,G4,300.0,3.5,100,97.0
4769,B3,300.0,3.5,100,97.0
4770,E4,300.0,3.5,100,97.0
4771,E2,300.0,1.0,55,97.0
4772,F#2,300.0,1.0,55,97.0
4773,C2,300.0,0.5,58,97.0
4774,B-2,300.0,0.5,58,97.0
4775,E5,300.025,2.5,100,97.0
4776,G4,300.25,0.375,79,97.0
4777,B4,300.25,0.375,79,97.0
4778,D4,300.25,0.375,79,97.0
4779,D3,300.5,167/1000,57,97.0
4780,A3,300.5,26/125,48,97.0
4781,F#2,300.5,1.0,48,97.0
4782,C3,300.75,167/1000,56,97.0
4783,E3,300.75,583/1000,47,97.0
4784,F3,300.75,2.0,77,97.0
4785,A3,300.75,2.0,77,97.0
4786,C4,300.75,2.0,77,97.0
4787,D3,301.0,667/1000,55,97.0
4788,A3,301.0,229/500,67,97.0
4789,E2,301.0,1.0,55,97.0
4790,F#2,301.0,1.0,46,97.0
4791,D4,301.0,1.0,46,97.0
4792,A3,301.5,229/500,65,97.0
4793,E3,301.5,229/500,44,97.0
4794,F#2,301.5,1.0,44,97.0
4795,D4,301.5,1.0,44,97.0
4796,G5,301.5,229/500,44,97.0
4797,D3,301.75,167/1000,51,97.0
4798,C2,301.75,1.0,51,97.0
4799,D4,301.75,1.0,43,97.0
4800,D3,302.0,333/1000,50,97.0
4801,A3,302.0,26/125,63,97.0
4802,D3,302.0,229/500,42,97.0
4803,D4,302.0,1.0,42,97.0
4804,G5,302.0,2.0,42,97.0
4805,F#2,302.0,1.0,46,97.0
4806,C2,302.0,1.0,46,97.0
4807,A3,302.25,26/125,62,97.0
4808,D4,302.25,1.0,41,97.0
4809,D3,302.5,26/125,48,97.0
4810,A3,302.5,26/125,61,97.0
4811,C3,302.5,229/500,40,97.0
4812,D4,302.5,1.0,40,97.0
4813,F#2,302.5,1.0,44,97.0
4814,C2,302.5,1.0,44,97.0
4815,E5,302.525,0.5,100,97.0
4816,A2,302.75,229/500,46,97.0
4817,A3,302.75,26/125,60,97.0
4818,D4,302.75,1.0,39,97.0
4819,G3,303.0,26/125,59,97.0
4820,C3,303.0,0.625,38,97.0
4821,F#2,303.0,1.0,38,97.0
4822,C#4,303.0,1.0,38,97.0
4823,F3,303.0,1.0,67,97.0
4824,A3,303.0,1.0,67,97.0
4825,C4,303.0,1.0,67,97.0
4826,E4,303.0,1.0,67,97.0
4827,C2,303.0,1.0,45,97.0
4828,E2,303.0,1.0,45,97.0
4829,G5,303.025,0.5,100,97.0
4830,A2,303.25,167/1000,44,97.0
4831,G3,303.25,229/500,58,97.0
4832,C2,303.25,0.75,44,97.0
4833,G2,303.5,0.5,43,97.0
4834,F#2,303.5,0.5,36,97.0
4835,C#4,303.5,0.5,36,97.0
4836,A3,303.5,0.5,100,97.0
4837,C#4,303.5,0.5,100,97.0
4838,E4,303.5,0.5,100,97.0
4839,A5,303.525,19/40,100,97.0
4840,F3,303.75,583/1000,56,97.0
4841,C2,303.75,0.25,42,97.0
4842,C#4,303.75,0.25,35,97.0
4843,F2,304.0,1.5,40,97.0
4844,F3,304.0,229/500,34,97.0
4845,E4,304.0,229/500,42,97.0
4846,C2,304.0,1.0,40,97.0
4847,C2,304.0,0.25,44,97.0
4848,F#2,304.0,1.0,34,97.0
4849,F#2,304.0,0.5,36,97.0
4850,C2,304.0,0.75,42,97.0
4851,D4,304.0,1.0,34,97.0
4852,C#4,304.0,0.5,36,97.0
4853,C#4,304.0,0.75,35,97.0
4854,F3,304.0,1.0,63,97.0
4855,A3,304.0,1.0,63,97.0
4856,C4,304.0,1.0,63,97.0
4857,E4,304.0,1.0,63,97.0
4858,C6,304.025,2.0,34,97.0
4859,F3,304.5,229/500,32,97.0
4860,D4,304.5,0.25,40,97.0
4861,F#2,304.5,1.0,32,97.0
4862,D4,304.75,0.5,38,97.0
4863,F3,305.0,26/125,30,97.0
4864,E2,305.0,1.0,36,97.0
4865,F#2,305.0,1.0,30,97.0
4866,D4,305.0,1.0,30,97.0
4867,D4,305.0,667/1000,59,97.0
4868,B3,305.0,667/1000,59,97.0
4869,G3,305.0,667/1000,59,97.0
4870,E3,305.0,667/1000,59,97.0
4871,F3,305.25,26/125,29,97.0
4872,C4,305.25,26/125,36,97.0
4873,F3,305.5,26/125,28,97.0
4874,D4,305.5,26/125,35,97.0
4875,F#2,305.5,1.0,28,97.0
4876,D4,305.5,1.0,28,97.0
4877,F2,305.75,167/1000,32,97.0
4878,F3,305.75,26/125,27,97.0
4879,C4,305.75,26/125,33,97.0
4880,C2,305.75,1.0,32,97.0
4881,D4,305.75,1.0,27,97.0
4882,A3,305.75,0.5,56,97.0
4883,F3,305.75,0.5,56,97.0
4884,C4,305.75,0.5,56,97.0
4885,E2,306.0,667/1000,30,97.0
4886,E3,306.0,26/125,25,97.0
4887,G4,306.0,0.5,31,97.0
4888,D4,306.0,1.0,25,97.0
4889,F#2,306.0,1.0,28,97.0
4890,C2,306.0,1.0,28,97.0
4891,B5,306.025,0.75,25,97.0
4892,E3,306.25,229/500,24,97.0
4893,A4,306.5,0.5,28,97.0
4894,D4,306.5,1.0,23,97.0
4895,F3,306.5,0.5,53,97.0
4896,A3,306.5,0.5,53,97.0
4897,C4,306.5,0.5,53,97.0
4898,C4,306.5,0.5,53,97.0
4899,F#2,306.5,1.0,25,97.0
4900,C2,306.5,1.0,25,97.0
4901,D2,306.75,229/500,26,97.0
4902,D3,306.75,583/1000,22,97.0
4903,A5,306.775,49/40,22,97.0
4904,A5,307.0,673/250,100,97.0
4905,C5,307.0,0.5,26,97.0
4906,E2,307.0,1.0,25,97.0
4907,F#2,307.0,1.0,21,97.0
4908,C#4,307.0,1.0,21,97.0
4909,A3,307.0,3.0,100,97.0
4910,C#4,307.0,3.0,100,97.0
4911,E4,307.0,3.0,100,97.0
4912,F3,307.0,0.25,53,97.0
4913,A3,307.0,0.25,53,97.0
4914,C4,307.0,0.25,53,97.0
4915,C4,307.0,0.25,53,97.0
4916,D2,307.5,0.5,22,97.0
4917,A3,307.5,229/500,19,97.0
4918,C#4,307.5,0.5,19,97.0
4919,F3,307.5,417/1000,48,97.0
4920,A3,307.5,417/1000,48,97.0
4921,C4,307.5,417/1000,48,97.0
4922,C2,307.5,0.5,20,97.0
4923,B-2,307.5,0.5,20,97.0
4924,G5,307.5,0.5,19,97.0
4925,G4,307.5,0.5,19,97.0
4926,D2,308.0,1.5,22,97.0
4927,A5,308.0,71/40,22,97.0
4928,C4,308.0,229/500,17,97.0
4929,D4,308.0,1.0,17,97.0
4930,C#4,308.0,0.5,19,97.0
4931,E2,308.0,1.0,18,97.0
4932,F#2,308.0,1.0,18,97.0
4933,C2,308.0,0.5,20,97.0
4934,B-2,308.0,0.5,20,97.0
4935,G5,308.0,0.75,19,97.0
4936,G4,308.0,0.75,19,97.0
4937,G4,308.25,0.375,45,97.0
4938,B4,308.25,0.375,45,97.0
4939,D4,308.25,0.375,45,97.0
4940,A3,308.5,229/500,15,97.0
4941,F#2,308.5,1.0,15,97.0
4942,F3,308.75,2.0,43,97.0
4943,A3,308.75,2.0,43,97.0
4944,C4,308.75,2.0,43,97.0
4945,A3,309.0,229/500,34,97.0
4946,C4,309.0,229/500,13,97.0
4947,E2,309.0,1.0,15,97.0
4948,F#2,309.0,1.0,13,97.0
4949,D4,309.0,1.0,13,97.0
4950,G4,309.0,67/1000,13,97.0
4951,A5,309.025,151/125,120,97.0
4952,A3,309.5,229/500,32,97.0
4953,A3,309.5,229/500,11,97.0
4954,F#2,309.5,1.0,11,97.0
4955,D4,309.5,1.0,11,97.0
4956,A4,309.5,67/1000,11,97.0
4957,D2,309.75,167/1000,12,97.0
4958,C2,309.75,1.0,12,97.0
4959,D4,309.75,1.0,10,97.0
4960,A5,309.775,683/1000,120,97.0
4961,D2,310.0,167/1000,10,97.0
4962,A3,310.0,26/125,30,97.0
4963,D4,310.0,667/1000,9,97.0
4964,D4,310.0,1.0,9,97.0
4965,E4,310.0,67/1000,9,97.0
4966,F#2,310.0,1.0,10,97.0
4967,C2,310.0,1.0,10,97.0
4968,D2,310.25,229/500,9,97.0
4969,A3,310.25,26/125,29,97.0
4970,D4,310.25,1.0,8,97.0
4971,A5,310.275,0.25,120,97.0
4972,A3,310.5,26/125,28,97.0
4973,D4,310.5,1.0,7,97.0
4974,F#2,310.5,1.0,8,97.0
4975,C2,310.5,1.0,8,97.0
4976,G5,310.525,229/500,120,97.0
4977,C2,310.75,229/500,7,97.0
4978,A3,310.75,26/125,27,97.0
4979,A3,310.75,0.75,6,97.0
4980,D4,310.75,1.0,6,97.0
4981,C6,311.0,2.0,100,97.0
4982,G3,311.0,26/125,25,97.0
4983,F#2,311.0,1.0,5,97.0
4984,C#4,311.0,1.0,5,97.0
4985,E4,311.0,67/1000,5,97.0
4986,F3,311.0,1.0,34,97.0
4987,A3,311.0,1.0,34,97.0
4988,C4,311.0,1.0,34,97.0
4989,E4,311.0,1.0,34,97.0
4990,C2,311.0,1.0,6,97.0
4991,E2,311.0,1.0,6,97.0
4992,C2,311.25,167/1000,4,97.0
4993,G3,311.25,229/500,24,97.0
4994,C2,311.25,0.75,4,97.0
4995,A1,311.5,229/500,3,97.0
4996,F#2,311.5,0.5,3,97.0
4997,C#4,311.5,0.5,3,97.0
4998,C4,311.5,333/1000,3,97.0
4999,F3,311.75,583/1000,22,97.0
5000,C2,311.75,0.25,2,97.0
5001,C#4,311.75,0.25,2,97.0
5002,C2,312.0,1.0,4,97.0
5003,F#2,312.0,2.5,3,97.0
5004,C2,312.0,0.75,2,97.0
5005,C#4,312.0,0.5,3,97.0
5006,C#4,312.0,0.75,2,97.0
5007,F3,312.0,1.0,30,97.0
5008,A3,312.0,1.0,30,97.0
5009,C4,312.0,1.0,30,97.0
5010,E4,312.0,1.0,30,97.0
5011,B5,313.0,0.75,92,97.0
5012,D4,313.0,667/1000,25,97.0
5013,B3,313.0,667/1000,25,97.0
5014,G3,313.0,667/1000,25,97.0
5015,E3,313.0,667/1000,25,97.0
5016,A5,313.75,1.25,89,97.0
5017,A3,313.75,0.5,22,97.0
5018,F3,313.75,0.5,22,97.0
5019,C4,313.75,0.5,22,97.0
5020,F3,314.5,0.5,19,97.0
5021,A3,314.5,0.5,19,97.0
5022,C4,314.5,0.5,19,97.0
5023,C4,314.5,0.5,19,97.0
5024,A5,315.0,1.75,89,97.0
5025,F3,315.0,0.25,19,97.0
5026,A3,315.0,0.25,19,97.0
5027,C4,315.0,0.25,19,97.0
5028,C4,315.0,0.25,19,97.0
5029,F3,315.5,417/1000,15,97.0
5030,A3,315.5,417/1000,15,97.0
5031,C4,315.5,417/1000,15,97.0
5032,G4,316.25,0.375,12,97.0
5033,B4,316.25,0.375,12,97.0
5034,D4,316.25,0.375,12,97.0
5035,F3,316.75,2.0,10,97.0
5036,A3,316.75,2.0,10,97.0
5037,C4,316.75,2.0,10,97.0
5038,E6,319.0,2.0,67,97.0
5039,D6,321.0,0.75,59,97.0
5040,C6,321.75,1.25,56,97.0
5041,C6,323.0,1.75,56,97.0
5042,C6,327.0,2.0,34,97.0
5043,B5,329.0,0.75,25,97.0
5044,A5,329.75,1.25,22,97.0
5045,A5,331.0,1.75,22,97.0
