,note_name,start_time,duration,velocity,tempo
0,A2,0.0,0.375,95,120.0
1,E3,0.375,0.375,95,120.0
2,A3,0.75,0.375,95,120.0
3,E3,1.125,0.375,95,120.0
4,C4,1.5,1.5,95,120.0
5,C3,3.0,0.375,95,120.0
6,G3,3.375,0.375,95,120.0
7,C4,3.75,0.375,95,120.0
8,G3,4.125,0.375,95,120.0
9,E4,4.5,1.5,95,120.0
10,D3,6.0,0.375,95,120.0
11,A3,6.375,0.375,95,120.0
12,D4,6.75,0.375,95,120.0
13,A3,7.125,0.375,95,120.0
14,F#4,7.5,1.5,95,120.0
15,F#4,9.0,1.0,95,120.0
16,D4,10.0,0.375,95,120.0
17,A3,10.375,1.5,95,120.0
18,A2,12.0,0.375,95,120.0
19,A1,12.0,0.75,95,120.0
20,E-3,12.0,0.75,95,120.0
21,B1,12.0,0.75,95,120.0
22,E3,12.375,0.375,95,120.0
23,A3,12.75,0.375,95,120.0
24,A1,12.75,0.75,95,120.0
25,E-3,12.75,0.75,95,120.0
26,B1,12.75,0.75,95,120.0
27,E3,13.125,0.375,95,120.0
28,C4,13.5,1.5,95,120.0
29,C2,13.5,0.75,95,120.0
30,E-3,13.5,0.75,95,120.0
31,D2,13.5,0.75,95,120.0
32,A1,14.25,0.75,95,120.0
33,E-3,14.25,0.75,95,120.0
34,B1,14.25,0.75,95,120.0
35,C3,15.0,0.375,95,120.0
36,C2,15.0,0.75,95,120.0
37,E-3,15.0,0.75,95,120.0
38,B1,15.0,0.75,95,120.0
39,G3,15.375,0.375,95,120.0
40,C4,15.75,0.375,95,120.0
41,C2,15.75,0.75,95,120.0
42,E-3,15.75,0.75,95,120.0
43,B1,15.75,0.75,95,120.0
44,G3,16.125,0.375,95,120.0
45,E4,16.5,1.5,95,120.0
46,E2,16.5,0.188,95,120.0
47,E-3,16.5,0.75,95,120.0
48,D2,16.5,0.75,95,120.0
49,F2,16.688,0.188,95,120.0
50,E2,16.875,0.188,95,120.0
51,C2,17.062,0.938,95,120.0
52,E-3,17.25,0.75,95,120.0
53,B1,17.25,0.75,95,120.0
54,D3,18.0,0.375,95,120.0
55,D2,18.0,0.75,95,120.0
56,E-3,18.0,0.75,95,120.0
57,B1,18.0,0.75,95,120.0
58,A3,18.375,0.375,95,120.0
59,D4,18.75,0.375,95,120.0
60,D2,18.75,0.75,95,120.0
61,E-3,18.75,0.75,95,120.0
62,B1,18.75,0.75,95,120.0
63,A3,19.125,0.375,95,120.0
64,F#4,19.5,1.5,95,120.0
65,D3,19.5,0.75,95,120.0
66,E-3,19.5,0.75,95,120.0
67,D2,19.5,0.75,95,120.0
68,D2,20.25,0.75,95,120.0
69,E-3,20.25,0.75,95,120.0
70,B1,20.25,0.75,95,120.0
71,F#4,21.0,1.0,95,120.0
72,D2,21.0,0.75,95,120.0
73,E-3,21.0,0.75,95,120.0
74,B1,21.0,0.75,95,120.0
75,D2,21.75,0.75,95,120.0
76,E-3,21.75,0.75,95,120.0
77,B1,21.75,0.75,95,120.0
78,D4,22.0,0.375,95,120.0
79,A3,22.375,1.5,95,120.0
80,D3,22.5,0.75,95,120.0
81,E-3,22.5,0.75,95,120.0
82,D2,22.5,0.75,95,120.0
83,C3,23.25,0.75,95,120.0
84,E-3,23.25,0.75,95,120.0
85,B1,23.25,0.75,95,120.0
86,A2,24.0,0.375,95,120.0
87,A1,24.0,0.75,95,120.0
88,E-3,24.0,0.75,95,120.0
89,B1,24.0,0.75,95,120.0
90,E3,24.375,0.375,95,120.0
91,A3,24.75,0.375,95,120.0
92,A1,24.75,0.75,95,120.0
93,E-3,24.75,0.75,95,120.0
94,B1,24.75,0.75,95,120.0
95,E3,25.125,0.375,95,120.0
96,C4,25.5,1.5,95,120.0
97,C2,25.5,0.75,95,120.0
98,E-3,25.5,0.75,95,120.0
99,D2,25.5,0.75,95,120.0
100,A1,26.25,0.75,95,120.0
101,E-3,26.25,0.75,95,120.0
102,B1,26.25,0.75,95,120.0
103,C3,27.0,0.375,95,120.0
104,C2,27.0,0.75,95,120.0
105,E-3,27.0,0.75,95,120.0
106,B1,27.0,0.75,95,120.0
107,G3,27.375,0.375,95,120.0
108,C4,27.75,0.375,95,120.0
109,C2,27.75,0.75,95,120.0
110,E-3,27.75,0.75,95,120.0
111,B1,27.75,0.75,95,120.0
112,G3,28.125,0.375,95,120.0
113,E4,28.5,1.5,95,120.0
114,E2,28.5,0.188,95,120.0
115,E-3,28.5,0.75,95,120.0
116,D2,28.5,0.75,95,120.0
117,F2,28.688,0.188,95,120.0
118,E2,28.875,0.188,95,120.0
119,C2,29.062,0.938,95,120.0
120,E-3,29.25,0.75,95,120.0
121,B1,29.25,0.75,95,120.0
122,D3,30.0,0.375,95,120.0
123,D2,30.0,0.75,95,120.0
124,E-3,30.0,0.75,95,120.0
125,B1,30.0,0.75,95,120.0
126,A3,30.375,0.375,95,120.0
127,D4,30.75,0.375,95,120.0
128,D2,30.75,0.75,95,120.0
129,E-3,30.75,0.75,95,120.0
130,B1,30.75,0.75,95,120.0
131,A3,31.125,0.375,95,120.0
132,F#4,31.5,1.5,95,120.0
133,D3,31.5,0.75,95,120.0
134,E-3,31.5,0.75,95,120.0
135,D2,31.5,0.75,95,120.0
136,D2,32.25,0.75,95,120.0
137,E-3,32.25,0.75,95,120.0
138,B1,32.25,0.75,95,120.0
139,F#4,33.0,1.0,95,120.0
140,D2,33.0,0.75,95,120.0
141,E-3,33.0,0.75,95,120.0
142,B1,33.0,0.75,95,120.0
143,D2,33.75,0.75,95,120.0
144,E-3,33.75,0.75,95,120.0
145,B1,33.75,0.75,95,120.0
146,D4,34.0,0.375,95,120.0
147,A3,34.375,1.5,95,120.0
148,D3,34.5,0.75,95,120.0
149,E-3,34.5,0.75,95,120.0
150,D2,34.5,0.75,95,120.0
151,C3,35.25,0.75,95,120.0
152,E-3,35.25,0.75,95,120.0
153,B1,35.25,0.75,95,120.0
154,A2,36.0,0.375,95,120.0
155,A1,36.0,0.75,95,120.0
156,A3,36.0,0.75,95,120.0
157,C#3,36.0,0.75,95,120.0
158,B1,36.0,0.75,95,120.0
159,E3,36.375,0.375,95,120.0
160,A3,36.75,0.375,95,120.0
161,A1,36.75,0.75,95,120.0
162,E-3,36.75,0.75,95,120.0
163,B1,36.75,0.75,95,120.0
164,E3,37.125,0.375,95,120.0
165,C4,37.5,1.5,95,120.0
166,C2,37.5,0.75,95,120.0
167,E-3,37.5,0.75,95,120.0
168,D2,37.5,0.75,95,120.0
169,A1,38.25,0.75,95,120.0
170,E-3,38.25,0.75,95,120.0
171,B1,38.25,0.75,95,120.0
172,C3,39.0,0.375,95,120.0
173,C2,39.0,0.75,95,120.0
174,E-3,39.0,0.75,95,120.0
175,B1,39.0,0.75,95,120.0
176,G3,39.375,0.375,95,120.0
177,C4,39.75,0.375,95,120.0
178,C2,39.75,0.75,95,120.0
179,E-3,39.75,0.75,95,120.0
180,B1,39.75,0.75,95,120.0
181,G3,40.125,0.375,95,120.0
182,E4,40.5,1.5,95,120.0
183,E2,40.5,0.188,95,120.0
184,E-3,40.5,0.75,95,120.0
185,D2,40.5,0.75,95,120.0
186,F2,40.688,0.188,95,120.0
187,E2,40.875,0.188,95,120.0
188,C2,41.062,0.938,95,120.0
189,E-3,41.25,0.75,95,120.0
190,B1,41.25,0.75,95,120.0
191,D3,42.0,0.375,95,120.0
192,D2,42.0,0.75,95,120.0
193,E-3,42.0,0.75,95,120.0
194,B1,42.0,0.75,95,120.0
195,A3,42.375,0.375,95,120.0
196,D4,42.75,0.375,95,120.0
197,D2,42.75,0.75,95,120.0
198,E-3,42.75,0.75,95,120.0
199,B1,42.75,0.75,95,120.0
200,A3,43.125,0.375,95,120.0
201,F#4,43.5,1.5,95,120.0
202,D3,43.5,0.75,95,120.0
203,E-3,43.5,0.75,95,120.0
204,D2,43.5,0.75,95,120.0
205,D2,44.25,0.75,95,120.0
206,E-3,44.25,0.75,95,120.0
207,B1,44.25,0.75,95,120.0
208,F#4,45.0,1.0,95,120.0
209,D2,45.0,0.75,95,120.0
210,E-3,45.0,0.75,95,120.0
211,B1,45.0,0.75,95,120.0
212,D2,45.75,0.75,95,120.0
213,E-3,45.75,0.75,95,120.0
214,B1,45.75,0.75,95,120.0
215,D4,46.0,0.375,95,120.0
216,A3,46.375,1.5,95,120.0
217,D3,46.5,0.75,95,120.0
218,E-3,46.5,0.75,95,120.0
219,D2,46.5,0.75,95,120.0
220,C3,47.25,0.75,95,120.0
221,E-3,47.25,0.75,95,120.0
222,B1,47.25,0.75,95,120.0
223,A2,48.0,0.375,95,120.0
224,A1,48.0,0.75,95,120.0
225,E-3,48.0,0.75,95,120.0
226,B1,48.0,0.75,95,120.0
227,E3,48.375,0.375,95,120.0
228,A3,48.75,0.375,95,120.0
229,A1,48.75,0.75,95,120.0
230,E-3,48.75,0.75,95,120.0
231,B1,48.75,0.75,95,120.0
232,E3,49.125,0.375,95,120.0
233,C4,49.5,1.5,95,120.0
234,C2,49.5,0.75,95,120.0
235,E-3,49.5,0.75,95,120.0
236,D2,49.5,0.75,95,120.0
237,A1,50.25,0.75,95,120.0
238,E-3,50.25,0.75,95,120.0
239,B1,50.25,0.75,95,120.0
240,C3,51.0,0.375,95,120.0
241,C2,51.0,0.75,95,120.0
242,E-3,51.0,0.75,95,120.0
243,B1,51.0,0.75,95,120.0
244,G3,51.375,0.375,95,120.0
245,C4,51.75,0.375,95,120.0
246,C2,51.75,0.75,95,120.0
247,E-3,51.75,0.75,95,120.0
248,B1,51.75,0.75,95,120.0
249,G3,52.125,0.375,95,120.0
250,E4,52.5,1.5,95,120.0
251,E2,52.5,0.188,95,120.0
252,E-3,52.5,0.75,95,120.0
253,D2,52.5,0.75,95,120.0
254,F2,52.688,0.188,95,120.0
255,E2,52.875,0.188,95,120.0
256,C2,53.062,0.938,95,120.0
257,E-3,53.25,0.75,95,120.0
258,B1,53.25,0.75,95,120.0
259,D3,54.0,0.375,95,120.0
260,D2,54.0,0.75,95,120.0
261,E-3,54.0,0.75,95,120.0
262,B1,54.0,0.75,95,120.0
263,A3,54.375,0.375,95,120.0
264,D4,54.75,0.375,95,120.0
265,D2,54.75,0.75,95,120.0
266,E-3,54.75,0.75,95,120.0
267,B1,54.75,0.75,95,120.0
268,A3,55.125,0.375,95,120.0
269,F#4,55.5,1.5,95,120.0
270,D3,55.5,0.75,95,120.0
271,E-3,55.5,0.75,95,120.0
272,D2,55.5,0.75,95,120.0
273,D2,56.25,0.75,95,120.0
274,E-3,56.25,0.75,95,120.0
275,B1,56.25,0.75,95,120.0
276,F#4,57.0,1.0,95,120.0
277,D2,57.0,0.75,95,120.0
278,E-3,57.0,0.75,95,120.0
279,B1,57.0,0.75,95,120.0
280,D2,57.75,0.75,95,120.0
281,E-3,57.75,0.75,95,120.0
282,B1,57.75,0.75,95,120.0
283,D4,58.0,0.375,95,120.0
284,A3,58.375,1.5,95,120.0
285,D3,58.5,0.75,95,120.0
286,E-3,58.5,0.75,95,120.0
287,D2,58.5,0.75,95,120.0
288,C3,59.25,0.75,95,120.0
289,E-3,59.25,0.75,95,120.0
290,B1,59.25,0.75,95,120.0
291,A2,60.0,0.375,95,120.0
292,A1,60.0,0.75,95,120.0
293,E-3,60.0,0.75,95,120.0
294,B1,60.0,0.75,95,120.0
295,E3,60.375,0.375,95,120.0
296,A3,60.75,0.375,95,120.0
297,A1,60.75,0.75,95,120.0
298,E-3,60.75,0.75,95,120.0
299,B1,60.75,0.75,95,120.0
300,E3,61.125,0.375,95,120.0
301,C4,61.5,1.5,95,120.0
302,C2,61.5,0.75,95,120.0
303,E-3,61.5,0.75,95,120.0
304,D2,61.5,0.75,95,120.0
305,A1,62.25,0.75,95,120.0
306,E-3,62.25,0.75,95,120.0
307,B1,62.25,0.75,95,120.0
308,C3,63.0,0.375,95,120.0
309,C2,63.0,0.75,95,120.0
310,E-3,63.0,0.75,95,120.0
311,B1,63.0,0.75,95,120.0
312,G3,63.375,0.375,95,120.0
313,C4,63.75,0.375,95,120.0
314,C2,63.75,0.75,95,120.0
315,E-3,63.75,0.75,95,120.0
316,B1,63.75,0.75,95,120.0
317,G3,64.125,0.375,95,120.0
318,E4,64.5,1.5,95,120.0
319,E2,64.5,0.188,95,120.0
320,E-3,64.5,0.75,95,120.0
321,D2,64.5,0.75,95,120.0
322,F2,64.688,0.188,95,120.0
323,E2,64.875,0.188,95,120.0
324,C2,65.062,0.938,95,120.0
325,E-3,65.25,0.75,95,120.0
326,B1,65.25,0.75,95,120.0
327,D3,66.0,0.375,95,120.0
328,D2,66.0,0.75,95,120.0
329,E-3,66.0,0.75,95,120.0
330,B1,66.0,0.75,95,120.0
331,A3,66.375,0.375,95,120.0
332,D4,66.75,0.375,95,120.0
333,D2,66.75,0.75,95,120.0
334,E-3,66.75,0.75,95,120.0
335,B1,66.75,0.75,95,120.0
336,A3,67.125,0.375,95,120.0
337,F#4,67.5,1.5,95,120.0
338,D3,67.5,0.75,95,120.0
339,E-3,67.5,0.75,95,120.0
340,D2,67.5,0.75,95,120.0
341,D2,68.25,0.75,95,120.0
342,E-3,68.25,0.75,95,120.0
343,B1,68.25,0.75,95,120.0
344,F#4,69.0,1.0,95,120.0
345,D2,69.0,0.75,95,120.0
346,E-3,69.0,0.75,95,120.0
347,B1,69.0,0.75,95,120.0
348,D2,69.75,0.75,95,120.0
349,E-3,69.75,0.75,95,120.0
350,B1,69.75,0.75,95,120.0
351,D4,70.0,0.375,95,120.0
352,A3,70.375,1.5,95,120.0
353,D3,70.5,0.75,95,120.0
354,E-3,70.5,0.75,95,120.0
355,D2,70.5,0.75,95,120.0
356,C3,71.25,0.75,95,120.0
357,E-3,71.25,0.75,95,120.0
358,B1,71.25,0.75,95,120.0
359,A2,72.0,0.375,95,120.0
360,A1,72.0,0.75,95,120.0
361,E-3,72.0,0.75,95,120.0
362,B1,72.0,0.75,95,120.0
363,E3,72.375,0.375,95,120.0
364,A3,72.75,0.375,95,120.0
365,A1,72.75,0.75,95,120.0
366,E-3,72.75,0.75,95,120.0
367,B1,72.75,0.75,95,120.0
368,E3,73.125,0.375,95,120.0
369,C4,73.5,1.5,95,120.0
370,C2,73.5,0.75,95,120.0
371,E-3,73.5,0.75,95,120.0
372,D2,73.5,0.75,95,120.0
373,A1,74.25,0.75,95,120.0
374,E-3,74.25,0.75,95,120.0
375,B1,74.25,0.75,95,120.0
376,C3,75.0,0.375,95,120.0
377,C2,75.0,0.75,95,120.0
378,E-3,75.0,0.75,95,120.0
379,B1,75.0,0.75,95,120.0
380,G3,75.375,0.375,95,120.0
381,C4,75.75,0.375,95,120.0
382,C2,75.75,0.75,95,120.0
383,E-3,75.75,0.75,95,120.0
384,B1,75.75,0.75,95,120.0
385,G3,76.125,0.375,95,120.0
386,E4,76.5,1.5,95,120.0
387,E2,76.5,0.188,95,120.0
388,E-3,76.5,0.75,95,120.0
389,D2,76.5,0.75,95,120.0
390,F2,76.688,0.188,95,120.0
391,E2,76.875,0.188,95,120.0
392,C2,77.062,0.938,95,120.0
393,E-3,77.25,0.75,95,120.0
394,B1,77.25,0.75,95,120.0
395,D3,78.0,0.375,95,120.0
396,D2,78.0,0.75,95,120.0
397,E-3,78.0,0.75,95,120.0
398,B1,78.0,0.75,95,120.0
399,A3,78.375,0.375,95,120.0
400,D4,78.75,0.375,95,120.0
401,D2,78.75,0.75,95,120.0
402,E-3,78.75,0.75,95,120.0
403,B1,78.75,0.75,95,120.0
404,A3,79.125,0.375,95,120.0
405,F#4,79.5,1.5,95,120.0
406,D3,79.5,0.75,95,120.0
407,E-3,79.5,0.75,95,120.0
408,D2,79.5,0.75,95,120.0
409,D2,80.25,0.75,95,120.0
410,E-3,80.25,0.75,95,120.0
411,B1,80.25,0.75,95,120.0
412,F#4,81.0,1.0,95,120.0
413,D2,81.0,0.75,95,120.0
414,E-3,81.0,0.75,95,120.0
415,B1,81.0,0.75,95,120.0
416,D2,81.75,0.75,95,120.0
417,E-3,81.75,0.75,95,120.0
418,B1,81.75,0.75,95,120.0
419,D4,82.0,0.375,95,120.0
420,A3,82.375,1.5,95,120.0
421,D3,82.5,0.75,95,120.0
422,E-3,82.5,0.75,95,120.0
423,D2,82.5,0.75,95,120.0
424,C3,83.25,0.75,95,120.0
425,E-3,83.25,0.75,95,120.0
426,B1,83.25,0.75,95,120.0
427,A1,84.0,0.375,95,120.0
428,E3,84.0,0.375,95,120.0
429,A2,84.0,0.375,95,120.0
430,C#3,84.0,0.75,95,120.0
431,B1,84.0,0.75,95,120.0
432,A1,84.375,0.375,95,120.0
433,E3,84.375,0.375,95,120.0
434,A2,84.375,0.375,95,120.0
435,A1,84.75,0.375,95,120.0
436,E3,84.75,0.375,95,120.0
437,A2,84.75,0.375,95,120.0
438,C#3,84.75,0.75,95,120.0
439,B1,84.75,0.75,95,120.0
440,A1,85.125,0.375,95,120.0
441,E3,85.125,0.375,95,120.0
442,A2,85.125,0.375,95,120.0
443,A1,85.5,0.375,95,120.0
444,E3,85.5,0.375,95,120.0
445,A2,85.5,0.375,95,120.0
446,C#3,85.5,0.75,95,120.0
447,D2,85.5,0.75,95,120.0
448,A1,85.875,0.375,95,120.0
449,E3,85.875,0.375,95,120.0
450,A2,85.875,0.375,95,120.0
451,A1,86.25,0.375,95,120.0
452,E3,86.25,0.375,95,120.0
453,A2,86.25,0.375,95,120.0
454,C#3,86.25,0.75,95,120.0
455,B1,86.25,0.75,95,120.0
456,A1,86.625,0.375,95,120.0
457,E3,86.625,0.375,95,120.0
458,A2,86.625,0.375,95,120.0
459,C2,87.0,0.375,95,120.0
460,G3,87.0,0.375,95,120.0
461,C3,87.0,0.375,95,120.0
462,C#3,87.0,0.75,95,120.0
463,B1,87.0,0.75,95,120.0
464,C2,87.375,0.375,95,120.0
465,G3,87.375,0.375,95,120.0
466,C3,87.375,0.375,95,120.0
467,C2,87.75,0.375,95,120.0
468,G3,87.75,0.375,95,120.0
469,C3,87.75,0.375,95,120.0
470,C#3,87.75,0.75,95,120.0
471,B1,87.75,0.75,95,120.0
472,C2,88.125,0.375,95,120.0
473,G3,88.125,0.375,95,120.0
474,C3,88.125,0.375,95,120.0
475,C2,88.5,0.375,95,120.0
476,G3,88.5,0.375,95,120.0
477,C3,88.5,0.375,95,120.0
478,C#3,88.5,0.75,95,120.0
479,D2,88.5,0.75,95,120.0
480,C2,88.875,0.375,95,120.0
481,G3,88.875,0.375,95,120.0
482,C3,88.875,0.375,95,120.0
483,C2,89.25,0.375,95,120.0
484,G3,89.25,0.375,95,120.0
485,C3,89.25,0.375,95,120.0
486,C#3,89.25,0.75,95,120.0
487,B1,89.25,0.75,95,120.0
488,C2,89.625,0.375,95,120.0
489,G3,89.625,0.375,95,120.0
490,C3,89.625,0.375,95,120.0
491,D2,90.0,0.375,95,120.0
492,A3,90.0,0.375,95,120.0
493,D3,90.0,0.375,95,120.0
494,C#3,90.0,0.75,95,120.0
495,B1,90.0,0.75,95,120.0
496,D2,90.375,0.375,95,120.0
497,A3,90.375,0.375,95,120.0
498,D3,90.375,0.375,95,120.0
499,D2,90.75,0.375,95,120.0
500,A3,90.75,0.375,95,120.0
501,D3,90.75,0.375,95,120.0
502,C#3,90.75,0.75,95,120.0
503,B1,90.75,0.75,95,120.0
504,D2,91.125,0.375,95,120.0
505,A3,91.125,0.375,95,120.0
506,D3,91.125,0.375,95,120.0
507,D2,91.5,0.375,95,120.0
508,A3,91.5,0.375,95,120.0
509,D3,91.5,0.375,95,120.0
510,C#3,91.5,0.75,95,120.0
511,D2,91.5,0.75,95,120.0
512,D2,91.875,0.375,95,120.0
513,A3,91.875,0.375,95,120.0
514,D3,91.875,0.375,95,120.0
515,D2,92.25,0.375,95,120.0
516,A3,92.25,0.375,95,120.0
517,D3,92.25,0.375,95,120.0
518,C#3,92.25,0.75,95,120.0
519,B1,92.25,0.75,95,120.0
520,D2,92.625,0.375,95,120.0
521,A3,92.625,0.375,95,120.0
522,D3,92.625,0.375,95,120.0
523,D2,93.0,0.375,95,120.0
524,A3,93.0,0.375,95,120.0
525,D3,93.0,0.375,95,120.0
526,C#3,93.0,0.75,95,120.0
527,B1,93.0,0.75,95,120.0
528,D2,93.375,0.375,95,120.0
529,A3,93.375,0.375,95,120.0
530,D3,93.375,0.375,95,120.0
531,D2,93.75,0.375,95,120.0
532,A3,93.75,0.375,95,120.0
533,D3,93.75,0.375,95,120.0
534,C#3,93.75,0.75,95,120.0
535,B1,93.75,0.75,95,120.0
536,D2,94.125,0.375,95,120.0
537,A3,94.125,0.375,95,120.0
538,D3,94.125,0.375,95,120.0
539,D2,94.5,0.375,95,120.0
540,A3,94.5,0.375,95,120.0
541,D3,94.5,0.375,95,120.0
542,C#3,94.5,0.75,95,120.0
543,D2,94.5,0.75,95,120.0
544,D2,94.875,0.375,95,120.0
545,A3,94.875,0.375,95,120.0
546,D3,94.875,0.375,95,120.0
547,D2,95.25,0.375,95,120.0
548,A3,95.25,0.375,95,120.0
549,D3,95.25,0.375,95,120.0
550,C#3,95.25,0.75,95,120.0
551,B1,95.25,0.75,95,120.0
552,D2,95.625,0.375,95,120.0
553,A3,95.625,0.375,95,120.0
554,D3,95.625,0.375,95,120.0
555,A1,96.0,0.375,95,120.0
556,E3,96.0,0.375,95,120.0
557,A2,96.0,0.375,95,120.0
558,C#3,96.0,0.75,95,120.0
559,B1,96.0,0.75,95,120.0
560,A1,96.375,0.375,95,120.0
561,E3,96.375,0.375,95,120.0
562,A2,96.375,0.375,95,120.0
563,A1,96.75,0.375,95,120.0
564,E3,96.75,0.375,95,120.0
565,A2,96.75,0.375,95,120.0
566,C#3,96.75,0.75,95,120.0
567,B1,96.75,0.75,95,120.0
568,A1,97.125,0.375,95,120.0
569,E3,97.125,0.375,95,120.0
570,A2,97.125,0.375,95,120.0
571,A1,97.5,0.375,95,120.0
572,E3,97.5,0.375,95,120.0
573,A2,97.5,0.375,95,120.0
574,C#3,97.5,0.75,95,120.0
575,D2,97.5,0.75,95,120.0
576,A1,97.875,0.375,95,120.0
577,E3,97.875,0.375,95,120.0
578,A2,97.875,0.375,95,120.0
579,A1,98.25,0.375,95,120.0
580,E3,98.25,0.375,95,120.0
581,A2,98.25,0.375,95,120.0
582,C#3,98.25,0.75,95,120.0
583,B1,98.25,0.75,95,120.0
584,A1,98.625,0.375,95,120.0
585,E3,98.625,0.375,95,120.0
586,A2,98.625,0.375,95,120.0
587,C2,99.0,0.375,95,120.0
588,G3,99.0,0.375,95,120.0
589,C3,99.0,0.375,95,120.0
590,C#3,99.0,0.75,95,120.0
591,B1,99.0,0.75,95,120.0
592,C2,99.375,0.375,95,120.0
593,G3,99.375,0.375,95,120.0
594,C3,99.375,0.375,95,120.0
595,C2,99.75,0.375,95,120.0
596,G3,99.75,0.375,95,120.0
597,C3,99.75,0.375,95,120.0
598,C#3,99.75,0.75,95,120.0
599,B1,99.75,0.75,95,120.0
600,C2,100.125,0.375,95,120.0
601,G3,100.125,0.375,95,120.0
602,C3,100.125,0.375,95,120.0
603,C2,100.5,0.375,95,120.0
604,G3,100.5,0.375,95,120.0
605,C3,100.5,0.375,95,120.0
606,C#3,100.5,0.75,95,120.0
607,D2,100.5,0.75,95,120.0
608,C2,100.875,0.375,95,120.0
609,G3,100.875,0.375,95,120.0
610,C3,100.875,0.375,95,120.0
611,C2,101.25,0.375,95,120.0
612,G3,101.25,0.375,95,120.0
613,C3,101.25,0.375,95,120.0
614,C#3,101.25,0.75,95,120.0
615,B1,101.25,0.75,95,120.0
616,C2,101.625,0.375,95,120.0
617,G3,101.625,0.375,95,120.0
618,C3,101.625,0.375,95,120.0
619,D2,102.0,0.375,95,120.0
620,A3,102.0,3.0,95,120.0
621,D3,102.0,3.0,95,120.0
622,C#3,102.0,3.0,95,120.0
623,B1,102.0,3.0,95,120.0
624,D2,102.375,0.375,95,120.0
625,D2,102.75,0.375,95,120.0
626,D2,103.125,0.375,95,120.0
627,D2,103.5,0.375,95,120.0
628,D2,103.875,0.375,95,120.0
629,D2,104.25,0.375,95,120.0
630,D2,104.625,0.375,95,120.0
631,D2,105.0,0.375,95,120.0
632,D2,105.375,0.375,95,120.0
633,D2,105.75,0.375,95,120.0
634,D2,106.125,0.375,95,120.0
635,D2,106.5,0.375,95,120.0
636,D2,106.875,0.375,95,120.0
637,D2,107.25,0.375,95,120.0
638,D2,107.625,0.375,95,120.0
639,A2,108.0,0.375,95,120.0
640,A1,108.0,0.75,95,120.0
641,A3,108.0,3.0,95,120.0
642,D3,108.0,3.0,95,120.0
643,C#3,108.0,3.0,95,120.0
644,B1,108.0,3.0,95,120.0
645,E3,108.375,0.375,95,120.0
646,A3,108.75,0.375,95,120.0
647,A1,108.75,0.75,95,120.0
648,E3,109.125,0.375,95,120.0
649,C4,109.5,1.5,95,120.0
650,C2,109.5,0.75,95,120.0
651,A1,110.25,0.75,95,120.0
652,C3,111.0,0.375,95,120.0
653,C2,111.0,0.75,95,120.0
654,E-3,111.0,0.75,95,120.0
655,B1,111.0,0.75,95,120.0
656,G3,111.375,0.375,95,120.0
657,C4,111.75,0.375,95,120.0
658,C2,111.75,0.75,95,120.0
659,E-3,111.75,0.75,95,120.0
660,B1,111.75,0.75,95,120.0
661,G3,112.125,0.375,95,120.0
662,E4,112.5,1.5,95,120.0
663,E2,112.5,0.188,95,120.0
664,E-3,112.5,0.75,95,120.0
665,D2,112.5,0.75,95,120.0
666,F2,112.688,0.188,95,120.0
667,E2,112.875,0.188,95,120.0
668,C2,113.062,0.938,95,120.0
669,E-3,113.25,0.75,95,120.0
670,B1,113.25,0.75,95,120.0
671,D3,114.0,0.375,95,120.0
672,D2,114.0,0.75,95,120.0
673,E-3,114.0,0.75,95,120.0
674,B1,114.0,0.75,95,120.0
675,A3,114.375,0.375,95,120.0
676,D4,114.75,0.375,95,120.0
677,D2,114.75,0.75,95,120.0
678,E-3,114.75,0.75,95,120.0
679,B1,114.75,0.75,95,120.0
680,A3,115.125,0.375,95,120.0
681,F#4,115.5,1.5,95,120.0
682,D3,115.5,0.75,95,120.0
683,E-3,115.5,0.75,95,120.0
684,D2,115.5,0.75,95,120.0
685,D2,116.25,0.75,95,120.0
686,E-3,116.25,0.75,95,120.0
687,B1,116.25,0.75,95,120.0
688,F#4,117.0,1.0,95,120.0
689,D2,117.0,0.75,95,120.0
690,E-3,117.0,0.75,95,120.0
691,B1,117.0,0.75,95,120.0
692,D2,117.75,0.75,95,120.0
693,E-3,117.75,0.75,95,120.0
694,B1,117.75,0.75,95,120.0
695,D4,118.0,0.375,95,120.0
696,A3,118.375,1.5,95,120.0
697,D3,118.5,0.75,95,120.0
698,E-3,118.5,0.75,95,120.0
699,D2,118.5,0.75,95,120.0
700,C3,119.25,0.75,95,120.0
701,E-3,119.25,0.75,95,120.0
702,B1,119.25,0.75,95,120.0
703,A2,120.0,0.375,95,120.0
704,A1,120.0,0.75,95,120.0
705,E-3,120.0,0.75,95,120.0
706,B1,120.0,0.75,95,120.0
707,E3,120.375,0.375,95,120.0
708,A3,120.75,0.375,95,120.0
709,A1,120.75,0.75,95,120.0
710,E-3,120.75,0.75,95,120.0
711,B1,120.75,0.75,95,120.0
712,E3,121.125,0.375,95,120.0
713,C4,121.5,1.5,95,120.0
714,C2,121.5,0.75,95,120.0
715,E-3,121.5,0.75,95,120.0
716,D2,121.5,0.75,95,120.0
717,A1,122.25,0.75,95,120.0
718,E-3,122.25,0.75,95,120.0
719,B1,122.25,0.75,95,120.0
720,C3,123.0,0.375,95,120.0
721,C2,123.0,0.75,95,120.0
722,E-3,123.0,0.75,95,120.0
723,B1,123.0,0.75,95,120.0
724,G3,123.375,0.375,95,120.0
725,C4,123.75,0.375,95,120.0
726,C2,123.75,0.75,95,120.0
727,E-3,123.75,0.75,95,120.0
728,B1,123.75,0.75,95,120.0
729,G3,124.125,0.375,95,120.0
730,E4,124.5,1.5,95,120.0
731,E2,124.5,0.188,95,120.0
732,E-3,124.5,0.75,95,120.0
733,D2,124.5,0.75,95,120.0
734,F2,124.688,0.188,95,120.0
735,E2,124.875,0.188,95,120.0
736,C2,125.062,0.938,95,120.0
737,E-3,125.25,0.75,95,120.0
738,B1,125.25,0.75,95,120.0
739,D3,126.0,0.375,95,120.0
740,D2,126.0,0.75,95,120.0
741,E-3,126.0,0.75,95,120.0
742,B1,126.0,0.75,95,120.0
743,A3,126.375,0.375,95,120.0
744,D4,126.75,0.375,95,120.0
745,D2,126.75,0.75,95,120.0
746,E-3,126.75,0.75,95,120.0
747,B1,126.75,0.75,95,120.0
748,A3,127.125,0.375,95,120.0
749,F#4,127.5,1.5,95,120.0
750,D3,127.5,0.75,95,120.0
751,E-3,127.5,0.75,95,120.0
752,D2,127.5,0.75,95,120.0
753,D2,128.25,0.75,95,120.0
754,E-3,128.25,0.75,95,120.0
755,B1,128.25,0.75,95,120.0
756,F#4,129.0,1.0,95,120.0
757,D2,129.0,0.75,95,120.0
758,E-3,129.0,0.75,95,120.0
759,B1,129.0,0.75,95,120.0
760,D2,129.75,0.75,95,120.0
761,E-3,129.75,0.75,95,120.0
762,B1,129.75,0.75,95,120.0
763,D4,130.0,0.375,95,120.0
764,A3,130.375,1.5,95,120.0
765,D3,130.5,0.75,95,120.0
766,E-3,130.5,0.75,95,120.0
767,D2,130.5,0.75,95,120.0
768,C3,131.25,0.75,95,120.0
769,E-3,131.25,0.75,95,120.0
770,B1,131.25,0.75,95,120.0
771,A2,132.0,0.375,95,120.0
772,A1,132.0,0.75,95,120.0
773,E-3,132.0,0.75,95,120.0
774,B1,132.0,0.75,95,120.0
775,E3,132.375,0.375,95,120.0
776,A3,132.75,0.375,95,120.0
777,A1,132.75,0.75,95,120.0
778,E-3,132.75,0.75,95,120.0
779,B1,132.75,0.75,95,120.0
780,E3,133.125,0.375,95,120.0
781,C4,133.5,1.5,95,120.0
782,C2,133.5,0.75,95,120.0
783,E-3,133.5,0.75,95,120.0
784,D2,133.5,0.75,95,120.0
785,A1,134.25,0.75,95,120.0
786,E-3,134.25,0.75,95,120.0
787,B1,134.25,0.75,95,120.0
788,C3,135.0,0.375,95,120.0
789,C2,135.0,0.75,95,120.0
790,E-3,135.0,0.75,95,120.0
791,B1,135.0,0.75,95,120.0
792,G3,135.375,0.375,95,120.0
793,C4,135.75,0.375,95,120.0
794,C2,135.75,0.75,95,120.0
795,E-3,135.75,0.75,95,120.0
796,B1,135.75,0.75,95,120.0
797,G3,136.125,0.375,95,120.0
798,E4,136.5,1.5,95,120.0
799,E2,136.5,0.188,95,120.0
800,E-3,136.5,0.75,95,120.0
801,D2,136.5,0.75,95,120.0
802,F2,136.688,0.188,95,120.0
803,E2,136.875,0.188,95,120.0
804,C2,137.062,0.938,95,120.0
805,E-3,137.25,0.75,95,120.0
806,B1,137.25,0.75,95,120.0
807,D3,138.0,0.375,95,120.0
808,D2,138.0,0.75,95,120.0
809,E-3,138.0,0.75,95,120.0
810,B1,138.0,0.75,95,120.0
811,A3,138.375,0.375,95,120.0
812,D4,138.75,0.375,95,120.0
813,D2,138.75,0.75,95,120.0
814,E-3,138.75,0.75,95,120.0
815,B1,138.75,0.75,95,120.0
816,A3,139.125,0.375,95,120.0
817,F#4,139.5,1.5,95,120.0
818,D3,139.5,0.75,95,120.0
819,E-3,139.5,0.75,95,120.0
820,D2,139.5,0.75,95,120.0
821,D2,140.25,0.75,95,120.0
822,E-3,140.25,0.75,95,120.0
823,B1,140.25,0.75,95,120.0
824,F#4,141.0,1.0,95,120.0
825,D2,141.0,0.75,95,120.0
826,E-3,141.0,0.75,95,120.0
827,B1,141.0,0.75,95,120.0
828,D2,141.75,0.75,95,120.0
829,E-3,141.75,0.75,95,120.0
830,B1,141.75,0.75,95,120.0
831,D4,142.0,0.375,95,120.0
832,A3,142.375,1.5,95,120.0
833,D3,142.5,0.75,95,120.0
834,E-3,142.5,0.75,95,120.0
835,D2,142.5,0.75,95,120.0
836,C3,143.25,0.75,95,120.0
837,E-3,143.25,0.75,95,120.0
838,B1,143.25,0.75,95,120.0
839,A2,144.0,0.375,95,120.0
840,A1,144.0,0.75,95,120.0
841,E-3,144.0,0.75,95,120.0
842,B1,144.0,0.75,95,120.0
843,E3,144.375,0.375,95,120.0
844,A3,144.75,0.375,95,120.0
845,A1,144.75,0.75,95,120.0
846,E-3,144.75,0.75,95,120.0
847,B1,144.75,0.75,95,120.0
848,E3,145.125,0.375,95,120.0
849,C4,145.5,1.5,95,120.0
850,C2,145.5,0.75,95,120.0
851,E-3,145.5,0.75,95,120.0
852,D2,145.5,0.75,95,120.0
853,A1,146.25,0.75,95,120.0
854,E-3,146.25,0.75,95,120.0
855,B1,146.25,0.75,95,120.0
856,C3,147.0,0.375,95,120.0
857,C2,147.0,0.75,95,120.0
858,E-3,147.0,0.75,95,120.0
859,B1,147.0,0.75,95,120.0
860,G3,147.375,0.375,95,120.0
861,C4,147.75,0.375,95,120.0
862,C2,147.75,0.75,95,120.0
863,E-3,147.75,0.75,95,120.0
864,B1,147.75,0.75,95,120.0
865,G3,148.125,0.375,95,120.0
866,E4,148.5,1.5,95,120.0
867,E2,148.5,0.188,95,120.0
868,E-3,148.5,0.75,95,120.0
869,D2,148.5,0.75,95,120.0
870,F2,148.688,0.188,95,120.0
871,E2,148.875,0.188,95,120.0
872,C2,149.062,0.938,95,120.0
873,E-3,149.25,0.75,95,120.0
874,B1,149.25,0.75,95,120.0
875,D3,150.0,0.375,95,120.0
876,D2,150.0,0.75,95,120.0
877,E-3,150.0,0.75,95,120.0
878,B1,150.0,0.75,95,120.0
879,A3,150.375,0.375,95,120.0
880,D4,150.75,0.375,95,120.0
881,D2,150.75,0.75,95,120.0
882,E-3,150.75,0.75,95,120.0
883,B1,150.75,0.75,95,120.0
884,A3,151.125,0.375,95,120.0
885,F#4,151.5,1.5,95,120.0
886,D3,151.5,0.75,95,120.0
887,E-3,151.5,0.75,95,120.0
888,D2,151.5,0.75,95,120.0
889,D2,152.25,0.75,95,120.0
890,E-3,152.25,0.75,95,120.0
891,B1,152.25,0.75,95,120.0
892,F#4,153.0,1.0,95,120.0
893,D2,153.0,0.75,95,120.0
894,E-3,153.0,0.75,95,120.0
895,B1,153.0,0.75,95,120.0
896,D2,153.75,0.75,95,120.0
897,E-3,153.75,0.75,95,120.0
898,B1,153.75,0.75,95,120.0
899,D4,154.0,0.375,95,120.0
900,A3,154.375,1.5,95,120.0
901,D3,154.5,0.75,95,120.0
902,E-3,154.5,0.75,95,120.0
903,D2,154.5,0.75,95,120.0
904,C3,155.25,0.75,95,120.0
905,E-3,155.25,0.75,95,120.0
906,B1,155.25,0.75,95,120.0
907,A1,156.0,0.375,95,120.0
908,E-3,156.0,0.75,95,120.0
909,B1,156.0,0.75,95,120.0
910,A1,156.375,0.375,95,120.0
911,A1,156.75,0.375,95,120.0
912,E-3,156.75,0.75,95,120.0
913,B1,156.75,0.75,95,120.0
914,A1,157.125,0.375,95,120.0
915,A1,157.5,0.375,95,120.0
916,E-3,157.5,0.75,95,120.0
917,D2,157.5,0.75,95,120.0
918,A1,157.875,0.375,95,120.0
919,A1,158.25,0.375,95,120.0
920,E-3,158.25,0.75,95,120.0
921,B1,158.25,0.75,95,120.0
922,A1,158.625,0.375,95,120.0
923,C2,159.0,0.375,95,120.0
924,E3,159.0,0.375,95,120.0
925,A2,159.0,0.375,95,120.0
926,C#3,159.0,0.75,95,120.0
927,B1,159.0,0.75,95,120.0
928,C2,159.375,0.375,95,120.0
929,E3,159.375,0.375,95,120.0
930,A2,159.375,0.375,95,120.0
931,C2,159.75,0.375,95,120.0
932,E3,159.75,0.375,95,120.0
933,A2,159.75,0.375,95,120.0
934,C#3,159.75,0.75,95,120.0
935,B1,159.75,0.75,95,120.0
936,C2,160.125,0.375,95,120.0
937,E3,160.125,0.375,95,120.0
938,A2,160.125,0.375,95,120.0
939,C2,160.5,0.375,95,120.0
940,E3,160.5,0.375,95,120.0
941,A2,160.5,0.375,95,120.0
942,C#3,160.5,0.75,95,120.0
943,D2,160.5,0.75,95,120.0
944,C2,160.875,0.375,95,120.0
945,E3,160.875,0.375,95,120.0
946,A2,160.875,0.375,95,120.0
947,C2,161.25,0.375,95,120.0
948,E3,161.25,0.375,95,120.0
949,A2,161.25,0.375,95,120.0
950,C#3,161.25,0.75,95,120.0
951,B1,161.25,0.75,95,120.0
952,C2,161.625,0.375,95,120.0
953,E3,161.625,0.375,95,120.0
954,A2,161.625,0.375,95,120.0
955,D2,162.0,0.375,95,120.0
956,G3,162.0,0.375,95,120.0
957,C3,162.0,0.375,95,120.0
958,C#3,162.0,0.75,95,120.0
959,B1,162.0,0.75,95,120.0
960,D2,162.375,0.375,95,120.0
961,G3,162.375,0.375,95,120.0
962,C3,162.375,0.375,95,120.0
963,D2,162.75,0.375,95,120.0
964,G3,162.75,0.375,95,120.0
965,C3,162.75,0.375,95,120.0
966,C#3,162.75,0.75,95,120.0
967,B1,162.75,0.75,95,120.0
968,D2,163.125,0.375,95,120.0
969,G3,163.125,0.375,95,120.0
970,C3,163.125,0.375,95,120.0
971,D2,163.5,0.375,95,120.0
972,G3,163.5,0.375,95,120.0
973,C3,163.5,0.375,95,120.0
974,C#3,163.5,0.75,95,120.0
975,D2,163.5,0.75,95,120.0
976,D2,163.875,0.375,95,120.0
977,G3,163.875,0.375,95,120.0
978,C3,163.875,0.375,95,120.0
979,D2,164.25,0.375,95,120.0
980,G3,164.25,0.375,95,120.0
981,C3,164.25,0.375,95,120.0
982,C#3,164.25,0.75,95,120.0
983,B1,164.25,0.75,95,120.0
984,D2,164.625,0.375,95,120.0
985,G3,164.625,0.375,95,120.0
986,C3,164.625,0.375,95,120.0
987,D2,165.0,0.375,95,120.0
988,A3,165.0,0.375,95,120.0
989,D3,165.0,0.375,95,120.0
990,C#3,165.0,0.75,95,120.0
991,B1,165.0,0.75,95,120.0
992,D2,165.375,0.375,95,120.0
993,A3,165.375,0.375,95,120.0
994,D3,165.375,0.375,95,120.0
995,D2,165.75,0.375,95,120.0
996,A3,165.75,0.375,95,120.0
997,D3,165.75,0.375,95,120.0
998,C#3,165.75,0.75,95,120.0
999,B1,165.75,0.75,95,120.0
1000,D2,166.125,0.375,95,120.0
1001,A3,166.125,0.375,95,120.0
1002,D3,166.125,0.375,95,120.0
1003,D2,166.5,0.375,95,120.0
1004,A3,166.5,0.375,95,120.0
1005,D3,166.5,0.375,95,120.0
1006,C#3,166.5,0.75,95,120.0
1007,D2,166.5,0.75,95,120.0
1008,D2,166.875,0.375,95,120.0
1009,A3,166.875,0.375,95,120.0
1010,D3,166.875,0.375,95,120.0
1011,D2,167.25,0.375,95,120.0
1012,A3,167.25,0.375,95,120.0
1013,D3,167.25,0.375,95,120.0
1014,C#3,167.25,0.75,95,120.0
1015,B1,167.25,0.75,95,120.0
1016,D2,167.625,0.375,95,120.0
1017,A3,167.625,0.375,95,120.0
1018,D3,167.625,0.375,95,120.0
1019,A1,168.0,0.375,95,120.0
1020,A3,168.0,0.375,95,120.0
1021,D3,168.0,0.375,95,120.0
1022,C#3,168.0,0.75,95,120.0
1023,B1,168.0,0.75,95,120.0
1024,A1,168.375,0.375,95,120.0
1025,A3,168.375,0.375,95,120.0
1026,D3,168.375,0.375,95,120.0
1027,A1,168.75,0.375,95,120.0
1028,A3,168.75,0.375,95,120.0
1029,D3,168.75,0.375,95,120.0
1030,C#3,168.75,0.75,95,120.0
1031,B1,168.75,0.75,95,120.0
1032,A1,169.125,0.375,95,120.0
1033,A3,169.125,0.375,95,120.0
1034,D3,169.125,0.375,95,120.0
1035,A1,169.5,0.375,95,120.0
1036,A3,169.5,0.375,95,120.0
1037,D3,169.5,0.375,95,120.0
1038,C#3,169.5,0.75,95,120.0
1039,D2,169.5,0.75,95,120.0
1040,A1,169.875,0.375,95,120.0
1041,A3,169.875,0.375,95,120.0
1042,D3,169.875,0.375,95,120.0
1043,A1,170.25,0.375,95,120.0
1044,A3,170.25,0.375,95,120.0
1045,D3,170.25,0.375,95,120.0
1046,C#3,170.25,0.75,95,120.0
1047,B1,170.25,0.75,95,120.0
1048,A1,170.625,0.375,95,120.0
1049,A3,170.625,0.375,95,120.0
1050,D3,170.625,0.375,95,120.0
1051,C2,171.0,0.375,95,120.0
1052,E3,171.0,0.375,95,120.0
1053,A2,171.0,0.375,95,120.0
1054,C#3,171.0,0.75,95,120.0
1055,B1,171.0,0.75,95,120.0
1056,C2,171.375,0.375,95,120.0
1057,E3,171.375,0.375,95,120.0
1058,A2,171.375,0.375,95,120.0
1059,C2,171.75,0.375,95,120.0
1060,E3,171.75,0.375,95,120.0
1061,A2,171.75,0.375,95,120.0
1062,C#3,171.75,0.75,95,120.0
1063,B1,171.75,0.75,95,120.0
1064,C2,172.125,0.375,95,120.0
1065,E3,172.125,0.375,95,120.0
1066,A2,172.125,0.375,95,120.0
1067,C2,172.5,0.375,95,120.0
1068,E3,172.5,0.375,95,120.0
1069,A2,172.5,0.375,95,120.0
1070,C#3,172.5,0.75,95,120.0
1071,D2,172.5,0.75,95,120.0
1072,C2,172.875,0.375,95,120.0
1073,E3,172.875,0.375,95,120.0
1074,A2,172.875,0.375,95,120.0
1075,C2,173.25,0.375,95,120.0
1076,E3,173.25,0.375,95,120.0
1077,A2,173.25,0.375,95,120.0
1078,C#3,173.25,0.75,95,120.0
1079,B1,173.25,0.75,95,120.0
1080,C2,173.625,0.375,95,120.0
1081,E3,173.625,0.375,95,120.0
1082,A2,173.625,0.375,95,120.0
1083,D2,174.0,0.375,95,120.0
1084,G3,174.0,0.375,95,120.0
1085,C3,174.0,0.375,95,120.0
1086,C#3,174.0,0.75,95,120.0
1087,B1,174.0,0.75,95,120.0
1088,D2,174.375,0.375,95,120.0
1089,G3,174.375,0.375,95,120.0
1090,C3,174.375,0.375,95,120.0
1091,D2,174.75,0.375,95,120.0
1092,G3,174.75,0.375,95,120.0
1093,C3,174.75,0.375,95,120.0
1094,C#3,174.75,0.75,95,120.0
1095,B1,174.75,0.75,95,120.0
1096,D2,175.125,0.375,95,120.0
1097,G3,175.125,0.375,95,120.0
1098,C3,175.125,0.375,95,120.0
1099,D2,175.5,0.375,95,120.0
1100,G3,175.5,0.375,95,120.0
1101,C3,175.5,0.375,95,120.0
1102,C#3,175.5,0.75,95,120.0
1103,D2,175.5,0.75,95,120.0
1104,D2,175.875,0.375,95,120.0
1105,G3,175.875,0.375,95,120.0
1106,C3,175.875,0.375,95,120.0
1107,D2,176.25,0.375,95,120.0
1108,G3,176.25,0.375,95,120.0
1109,C3,176.25,0.375,95,120.0
1110,C#3,176.25,0.75,95,120.0
1111,B1,176.25,0.75,95,120.0
1112,D2,176.625,0.375,95,120.0
1113,G3,176.625,0.375,95,120.0
1114,C3,176.625,0.375,95,120.0
1115,D2,177.0,0.375,95,120.0
1116,A3,177.0,3.0,95,120.0
1117,D3,177.0,3.0,95,120.0
1118,C#3,177.0,3.0,95,120.0
1119,B1,177.0,3.0,95,120.0
1120,D2,177.375,0.375,95,120.0
1121,D2,177.75,0.375,95,120.0
1122,D2,178.125,0.375,95,120.0
1123,D2,178.5,0.375,95,120.0
1124,D2,178.875,0.375,95,120.0
1125,D2,179.25,0.375,95,120.0
1126,D2,179.625,0.375,95,120.0
1127,A1,180.0,0.375,95,120.0
1128,A1,180.375,0.375,95,120.0
1129,A1,180.75,0.375,95,120.0
1130,A1,181.125,0.375,95,120.0
1131,A1,181.5,0.375,95,120.0
1132,A1,181.875,0.375,95,120.0
1133,A1,182.25,0.375,95,120.0
1134,A1,182.625,0.375,95,120.0
1135,C2,183.0,0.375,95,120.0
1136,A3,183.0,3.0,95,120.0
1137,D3,183.0,3.0,95,120.0
1138,C#3,183.0,3.0,95,120.0
1139,B1,183.0,3.0,95,120.0
1140,C2,183.375,0.375,95,120.0
1141,C2,183.75,0.375,95,120.0
1142,C2,184.125,0.375,95,120.0
1143,C2,184.5,0.375,95,120.0
1144,C2,184.875,0.375,95,120.0
1145,C2,185.25,0.375,95,120.0
1146,C2,185.625,0.375,95,120.0
1147,D2,186.0,0.375,95,120.0
1148,E3,186.0,0.375,95,120.0
1149,A2,186.0,0.375,95,120.0
1150,E-3,186.0,0.75,95,120.0
1151,B1,186.0,0.75,95,120.0
1152,D2,186.375,0.375,95,120.0
1153,E3,186.375,0.375,95,120.0
1154,A2,186.375,0.375,95,120.0
1155,D2,186.75,0.375,95,120.0
1156,E3,186.75,0.375,95,120.0
1157,A2,186.75,0.375,95,120.0
1158,E-3,186.75,0.75,95,120.0
1159,B1,186.75,0.75,95,120.0
1160,D2,187.125,0.375,95,120.0
1161,E3,187.125,0.375,95,120.0
1162,A2,187.125,0.375,95,120.0
1163,D2,187.5,0.375,95,120.0
1164,E3,187.5,0.375,95,120.0
1165,A2,187.5,0.375,95,120.0
1166,E-3,187.5,0.75,95,120.0
1167,D2,187.5,0.75,95,120.0
1168,D2,187.875,0.375,95,120.0
1169,E3,187.875,0.375,95,120.0
1170,A2,187.875,0.375,95,120.0
1171,D2,188.25,0.375,95,120.0
1172,E3,188.25,0.375,95,120.0
1173,A2,188.25,0.375,95,120.0
1174,E-3,188.25,0.75,95,120.0
1175,B1,188.25,0.75,95,120.0
1176,D2,188.625,0.375,95,120.0
1177,E3,188.625,0.375,95,120.0
1178,A2,188.625,0.375,95,120.0
1179,D2,189.0,0.375,95,120.0
1180,G3,189.0,0.375,95,120.0
1181,C3,189.0,0.375,95,120.0
1182,E-3,189.0,0.75,95,120.0
1183,B1,189.0,0.75,95,120.0
1184,D2,189.375,0.375,95,120.0
1185,G3,189.375,0.375,95,120.0
1186,C3,189.375,0.375,95,120.0
1187,D2,189.75,0.375,95,120.0
1188,G3,189.75,0.375,95,120.0
1189,C3,189.75,0.375,95,120.0
1190,E-3,189.75,0.75,95,120.0
1191,B1,189.75,0.75,95,120.0
1192,D2,190.125,0.375,95,120.0
1193,G3,190.125,0.375,95,120.0
1194,C3,190.125,0.375,95,120.0
1195,D2,190.5,0.375,95,120.0
1196,G3,190.5,0.375,95,120.0
1197,C3,190.5,0.375,95,120.0
1198,E-3,190.5,0.75,95,120.0
1199,D2,190.5,0.75,95,120.0
1200,D2,190.875,0.375,95,120.0
1201,G3,190.875,0.375,95,120.0
1202,C3,190.875,0.375,95,120.0
1203,D2,191.25,0.375,95,120.0
1204,G3,191.25,0.375,95,120.0
1205,C3,191.25,0.375,95,120.0
1206,E-3,191.25,0.75,95,120.0
1207,B1,191.25,0.75,95,120.0
1208,D2,191.625,0.375,95,120.0
1209,G3,191.625,0.375,95,120.0
1210,C3,191.625,0.375,95,120.0
1211,A1,192.0,0.375,95,120.0
1212,A3,192.0,0.375,95,120.0
1213,D3,192.0,0.375,95,120.0
1214,E-3,192.0,0.75,95,120.0
1215,B1,192.0,0.75,95,120.0
1216,A1,192.375,0.375,95,120.0
1217,A3,192.375,0.375,95,120.0
1218,D3,192.375,0.375,95,120.0
1219,A1,192.75,0.375,95,120.0
1220,A3,192.75,0.375,95,120.0
1221,D3,192.75,0.375,95,120.0
1222,E-3,192.75,0.75,95,120.0
1223,B1,192.75,0.75,95,120.0
1224,A1,193.125,0.375,95,120.0
1225,A3,193.125,0.375,95,120.0
1226,D3,193.125,0.375,95,120.0
1227,A1,193.5,0.375,95,120.0
1228,A3,193.5,0.375,95,120.0
1229,D3,193.5,0.375,95,120.0
1230,E-3,193.5,0.75,95,120.0
1231,D2,193.5,0.75,95,120.0
1232,A1,193.875,0.375,95,120.0
1233,A3,193.875,0.375,95,120.0
1234,D3,193.875,0.375,95,120.0
1235,A1,194.25,0.375,95,120.0
1236,A3,194.25,0.375,95,120.0
1237,D3,194.25,0.375,95,120.0
1238,E-3,194.25,0.75,95,120.0
1239,B1,194.25,0.75,95,120.0
1240,A1,194.625,0.375,95,120.0
1241,A3,194.625,0.375,95,120.0
1242,D3,194.625,0.375,95,120.0
1243,C2,195.0,0.375,95,120.0
1244,A3,195.0,0.375,95,120.0
1245,D3,195.0,0.375,95,120.0
1246,E-3,195.0,0.75,95,120.0
1247,B1,195.0,0.75,95,120.0
1248,C2,195.375,0.375,95,120.0
1249,A3,195.375,0.375,95,120.0
1250,D3,195.375,0.375,95,120.0
1251,C2,195.75,0.375,95,120.0
1252,A3,195.75,0.375,95,120.0
1253,D3,195.75,0.375,95,120.0
1254,E-3,195.75,0.75,95,120.0
1255,B1,195.75,0.75,95,120.0
1256,C2,196.125,0.375,95,120.0
1257,A3,196.125,0.375,95,120.0
1258,D3,196.125,0.375,95,120.0
1259,C2,196.5,0.375,95,120.0
1260,A3,196.5,0.375,95,120.0
1261,D3,196.5,0.375,95,120.0
1262,E-3,196.5,0.75,95,120.0
1263,D2,196.5,0.75,95,120.0
1264,C2,196.875,0.375,95,120.0
1265,A3,196.875,0.375,95,120.0
1266,D3,196.875,0.375,95,120.0
1267,C2,197.25,0.375,95,120.0
1268,A3,197.25,0.375,95,120.0
1269,D3,197.25,0.375,95,120.0
1270,E-3,197.25,0.75,95,120.0
1271,B1,197.25,0.75,95,120.0
1272,C2,197.625,0.375,95,120.0
1273,A3,197.625,0.375,95,120.0
1274,D3,197.625,0.375,95,120.0
1275,D2,198.0,0.375,95,120.0
1276,E3,198.0,0.375,95,120.0
1277,A2,198.0,0.375,95,120.0
1278,E-3,198.0,0.75,95,120.0
1279,B1,198.0,0.75,95,120.0
1280,D2,198.375,0.375,95,120.0
1281,E3,198.375,0.375,95,120.0
1282,A2,198.375,0.375,95,120.0
1283,D2,198.75,0.375,95,120.0
1284,E3,198.75,0.375,95,120.0
1285,A2,198.75,0.375,95,120.0
1286,E-3,198.75,0.75,95,120.0
1287,B1,198.75,0.75,95,120.0
1288,D2,199.125,0.375,95,120.0
1289,E3,199.125,0.375,95,120.0
1290,A2,199.125,0.375,95,120.0
1291,D2,199.5,0.375,95,120.0
1292,E3,199.5,0.375,95,120.0
1293,A2,199.5,0.375,95,120.0
1294,E-3,199.5,0.75,95,120.0
1295,D2,199.5,0.75,95,120.0
1296,D2,199.875,0.375,95,120.0
1297,E3,199.875,0.375,95,120.0
1298,A2,199.875,0.375,95,120.0
1299,D2,200.25,0.375,95,120.0
1300,E3,200.25,0.375,95,120.0
1301,A2,200.25,0.375,95,120.0
1302,E-3,200.25,0.75,95,120.0
1303,B1,200.25,0.75,95,120.0
1304,D2,200.625,0.375,95,120.0
1305,E3,200.625,0.375,95,120.0
1306,A2,200.625,0.375,95,120.0
1307,D2,201.0,0.375,95,120.0
1308,G3,201.0,0.375,95,120.0
1309,C3,201.0,0.375,95,120.0
1310,E-3,201.0,0.75,95,120.0
1311,B1,201.0,0.75,95,120.0
1312,D2,201.375,0.375,95,120.0
1313,G3,201.375,0.375,95,120.0
1314,C3,201.375,0.375,95,120.0
1315,D2,201.75,0.375,95,120.0
1316,G3,201.75,0.375,95,120.0
1317,C3,201.75,0.375,95,120.0
1318,E-3,201.75,0.75,95,120.0
1319,B1,201.75,0.75,95,120.0
1320,D2,202.125,0.375,95,120.0
1321,G3,202.125,0.375,95,120.0
1322,C3,202.125,0.375,95,120.0
1323,D2,202.5,0.375,95,120.0
1324,G3,202.5,0.375,95,120.0
1325,C3,202.5,0.375,95,120.0
1326,E-3,202.5,0.75,95,120.0
1327,D2,202.5,0.75,95,120.0
1328,D2,202.875,0.375,95,120.0
1329,G3,202.875,0.375,95,120.0
1330,C3,202.875,0.375,95,120.0
1331,D2,203.25,0.375,95,120.0
1332,G3,203.25,0.375,95,120.0
1333,C3,203.25,0.375,95,120.0
1334,E-3,203.25,0.75,95,120.0
1335,B1,203.25,0.75,95,120.0
1336,D2,203.625,0.375,95,120.0
1337,G3,203.625,0.375,95,120.0
1338,C3,203.625,0.375,95,120.0
1339,A1,204.0,0.375,95,120.0
1340,A3,204.0,0.375,95,120.0
1341,D3,204.0,0.375,95,120.0
1342,E-3,204.0,0.75,95,120.0
1343,B1,204.0,0.75,95,120.0
1344,A1,204.375,0.375,95,120.0
1345,A3,204.375,0.375,95,120.0
1346,D3,204.375,0.375,95,120.0
1347,A1,204.75,0.375,95,120.0
1348,A3,204.75,0.375,95,120.0
1349,D3,204.75,0.375,95,120.0
1350,E-3,204.75,0.75,95,120.0
1351,B1,204.75,0.75,95,120.0
1352,A1,205.125,0.375,95,120.0
1353,A3,205.125,0.375,95,120.0
1354,D3,205.125,0.375,95,120.0
1355,A1,205.5,0.375,95,120.0
1356,A3,205.5,0.375,95,120.0
1357,D3,205.5,0.375,95,120.0
1358,E-3,205.5,0.75,95,120.0
1359,D2,205.5,0.75,95,120.0
1360,A1,205.875,0.375,95,120.0
1361,A3,205.875,0.375,95,120.0
1362,D3,205.875,0.375,95,120.0
1363,A1,206.25,0.375,95,120.0
1364,A3,206.25,0.375,95,120.0
1365,D3,206.25,0.375,95,120.0
1366,E-3,206.25,0.75,95,120.0
1367,B1,206.25,0.75,95,120.0
1368,A1,206.625,0.375,95,120.0
1369,A3,206.625,0.375,95,120.0
1370,D3,206.625,0.375,95,120.0
1371,C2,207.0,0.375,95,120.0
1372,A3,207.0,0.375,95,120.0
1373,D3,207.0,0.375,95,120.0
1374,E-3,207.0,0.75,95,120.0
1375,B1,207.0,0.75,95,120.0
1376,C2,207.375,0.375,95,120.0
1377,A3,207.375,0.375,95,120.0
1378,D3,207.375,0.375,95,120.0
1379,C2,207.75,0.375,95,120.0
1380,A3,207.75,0.375,95,120.0
1381,D3,207.75,0.375,95,120.0
1382,E-3,207.75,0.75,95,120.0
1383,B1,207.75,0.75,95,120.0
1384,C2,208.125,0.375,95,120.0
1385,A3,208.125,0.375,95,120.0
1386,D3,208.125,0.375,95,120.0
1387,C2,208.5,0.375,95,120.0
1388,A3,208.5,0.375,95,120.0
1389,D3,208.5,0.375,95,120.0
1390,E-3,208.5,0.75,95,120.0
1391,D2,208.5,0.75,95,120.0
1392,C2,208.875,0.375,95,120.0
1393,A3,208.875,0.375,95,120.0
1394,D3,208.875,0.375,95,120.0
1395,C2,209.25,0.375,95,120.0
1396,A3,209.25,0.375,95,120.0
1397,D3,209.25,0.375,95,120.0
1398,E-3,209.25,0.75,95,120.0
1399,B1,209.25,0.75,95,120.0
1400,C2,209.625,0.375,95,120.0
1401,A3,209.625,0.375,95,120.0
1402,D3,209.625,0.375,95,120.0
1403,D2,210.0,0.375,95,120.0
1404,E3,210.0,0.375,95,120.0
1405,A2,210.0,0.375,95,120.0
1406,E-3,210.0,0.75,95,120.0
1407,B1,210.0,0.75,95,120.0
1408,D2,210.375,0.375,95,120.0
1409,E3,210.375,0.375,95,120.0
1410,A2,210.375,0.375,95,120.0
1411,D2,210.75,0.375,95,120.0
1412,E3,210.75,0.375,95,120.0
1413,A2,210.75,0.375,95,120.0
1414,E-3,210.75,0.75,95,120.0
1415,B1,210.75,0.75,95,120.0
1416,D2,211.125,0.375,95,120.0
1417,E3,211.125,0.375,95,120.0
1418,A2,211.125,0.375,95,120.0
1419,D2,211.5,0.375,95,120.0
1420,E3,211.5,0.375,95,120.0
1421,A2,211.5,0.375,95,120.0
1422,E-3,211.5,0.75,95,120.0
1423,D2,211.5,0.75,95,120.0
1424,D2,211.875,0.375,95,120.0
1425,E3,211.875,0.375,95,120.0
1426,A2,211.875,0.375,95,120.0
1427,D2,212.25,0.375,95,120.0
1428,E3,212.25,0.375,95,120.0
1429,A2,212.25,0.375,95,120.0
1430,E-3,212.25,0.75,95,120.0
1431,B1,212.25,0.75,95,120.0
1432,D2,212.625,0.375,95,120.0
1433,E3,212.625,0.375,95,120.0
1434,A2,212.625,0.375,95,120.0
1435,D2,213.0,0.375,95,120.0
1436,G3,213.0,0.375,95,120.0
1437,C3,213.0,0.375,95,120.0
1438,E-3,213.0,0.75,95,120.0
1439,B1,213.0,0.75,95,120.0
1440,D2,213.375,0.375,95,120.0
1441,G3,213.375,0.375,95,120.0
1442,C3,213.375,0.375,95,120.0
1443,D2,213.75,0.375,95,120.0
1444,G3,213.75,0.375,95,120.0
1445,C3,213.75,0.375,95,120.0
1446,E-3,213.75,0.75,95,120.0
1447,B1,213.75,0.75,95,120.0
1448,D2,214.125,0.375,95,120.0
1449,G3,214.125,0.375,95,120.0
1450,C3,214.125,0.375,95,120.0
1451,D2,214.5,0.375,95,120.0
1452,G3,214.5,0.375,95,120.0
1453,C3,214.5,0.375,95,120.0
1454,E-3,214.5,0.75,95,120.0
1455,D2,214.5,0.75,95,120.0
1456,D2,214.875,0.375,95,120.0
1457,G3,214.875,0.375,95,120.0
1458,C3,214.875,0.375,95,120.0
1459,D2,215.25,0.375,95,120.0
1460,G3,215.25,0.375,95,120.0
1461,C3,215.25,0.375,95,120.0
1462,E-3,215.25,0.75,95,120.0
1463,B1,215.25,0.75,95,120.0
1464,D2,215.625,0.375,95,120.0
1465,G3,215.625,0.375,95,120.0
1466,C3,215.625,0.375,95,120.0
1467,A1,216.0,0.375,95,120.0
1468,A3,216.0,0.375,95,120.0
1469,D3,216.0,0.375,95,120.0
1470,E-3,216.0,0.75,95,120.0
1471,B1,216.0,0.75,95,120.0
1472,A1,216.375,0.375,95,120.0
1473,A3,216.375,0.375,95,120.0
1474,D3,216.375,0.375,95,120.0
1475,A1,216.75,0.375,95,120.0
1476,A3,216.75,0.375,95,120.0
1477,D3,216.75,0.375,95,120.0
1478,E-3,216.75,0.75,95,120.0
1479,B1,216.75,0.75,95,120.0
1480,A1,217.125,0.375,95,120.0
1481,A3,217.125,0.375,95,120.0
1482,D3,217.125,0.375,95,120.0
1483,A1,217.5,0.375,95,120.0
1484,A3,217.5,0.375,95,120.0
1485,D3,217.5,0.375,95,120.0
1486,E-3,217.5,0.75,95,120.0
1487,D2,217.5,0.75,95,120.0
1488,A1,217.875,0.375,95,120.0
1489,A3,217.875,0.375,95,120.0
1490,D3,217.875,0.375,95,120.0
1491,A1,218.25,0.375,95,120.0
1492,A3,218.25,0.375,95,120.0
1493,D3,218.25,0.375,95,120.0
1494,E-3,218.25,0.75,95,120.0
1495,B1,218.25,0.75,95,120.0
1496,A1,218.625,0.375,95,120.0
1497,A3,218.625,0.375,95,120.0
1498,D3,218.625,0.375,95,120.0
1499,C2,219.0,0.375,95,120.0
1500,A3,219.0,0.375,95,120.0
1501,D3,219.0,0.375,95,120.0
1502,E-3,219.0,0.75,95,120.0
1503,B1,219.0,0.75,95,120.0
1504,C2,219.375,0.375,95,120.0
1505,A3,219.375,0.375,95,120.0
1506,D3,219.375,0.375,95,120.0
1507,C2,219.75,0.375,95,120.0
1508,A3,219.75,0.375,95,120.0
1509,D3,219.75,0.375,95,120.0
1510,E-3,219.75,0.75,95,120.0
1511,B1,219.75,0.75,95,120.0
1512,C2,220.125,0.375,95,120.0
1513,A3,220.125,0.375,95,120.0
1514,D3,220.125,0.375,95,120.0
1515,C2,220.5,0.375,95,120.0
1516,A3,220.5,0.375,95,120.0
1517,D3,220.5,0.375,95,120.0
1518,E-3,220.5,0.75,95,120.0
1519,D2,220.5,0.75,95,120.0
1520,C2,220.875,0.375,95,120.0
1521,A3,220.875,0.375,95,120.0
1522,D3,220.875,0.375,95,120.0
1523,C2,221.25,0.375,95,120.0
1524,A3,221.25,0.375,95,120.0
1525,D3,221.25,0.375,95,120.0
1526,E-3,221.25,0.75,95,120.0
1527,B1,221.25,0.75,95,120.0
1528,C2,221.625,0.375,95,120.0
1529,A3,221.625,0.375,95,120.0
1530,D3,221.625,0.375,95,120.0
1531,D2,222.0,0.375,95,120.0
1532,E3,222.0,0.375,95,120.0
1533,A2,222.0,0.375,95,120.0
1534,E-3,222.0,0.75,95,120.0
1535,B1,222.0,0.75,95,120.0
1536,D2,222.375,0.375,95,120.0
1537,E3,222.375,0.375,95,120.0
1538,A2,222.375,0.375,95,120.0
1539,D2,222.75,0.375,95,120.0
1540,E3,222.75,0.375,95,120.0
1541,A2,222.75,0.375,95,120.0
1542,E-3,222.75,0.75,95,120.0
1543,B1,222.75,0.75,95,120.0
1544,D2,223.125,0.375,95,120.0
1545,E3,223.125,0.375,95,120.0
1546,A2,223.125,0.375,95,120.0
1547,D2,223.5,0.375,95,120.0
1548,E3,223.5,0.375,95,120.0
1549,A2,223.5,0.375,95,120.0
1550,E-3,223.5,0.75,95,120.0
1551,D2,223.5,0.75,95,120.0
1552,D2,223.875,0.375,95,120.0
1553,E3,223.875,0.375,95,120.0
1554,A2,223.875,0.375,95,120.0
1555,D2,224.25,0.375,95,120.0
1556,E3,224.25,0.375,95,120.0
1557,A2,224.25,0.375,95,120.0
1558,E-3,224.25,0.75,95,120.0
1559,B1,224.25,0.75,95,120.0
1560,D2,224.625,0.375,95,120.0
1561,E3,224.625,0.375,95,120.0
1562,A2,224.625,0.375,95,120.0
1563,D2,225.0,0.375,95,120.0
1564,G3,225.0,0.375,95,120.0
1565,C3,225.0,0.375,95,120.0
1566,E-3,225.0,0.75,95,120.0
1567,B1,225.0,0.75,95,120.0
1568,D2,225.375,0.375,95,120.0
1569,G3,225.375,0.375,95,120.0
1570,C3,225.375,0.375,95,120.0
1571,D2,225.75,0.375,95,120.0
1572,G3,225.75,0.375,95,120.0
1573,C3,225.75,0.375,95,120.0
1574,E-3,225.75,0.75,95,120.0
1575,B1,225.75,0.75,95,120.0
1576,D2,226.125,0.375,95,120.0
1577,G3,226.125,0.375,95,120.0
1578,C3,226.125,0.375,95,120.0
1579,D2,226.5,0.375,95,120.0
1580,G3,226.5,0.375,95,120.0
1581,C3,226.5,0.375,95,120.0
1582,E-3,226.5,0.75,95,120.0
1583,D2,226.5,0.75,95,120.0
1584,D2,226.875,0.375,95,120.0
1585,G3,226.875,0.375,95,120.0
1586,C3,226.875,0.375,95,120.0
1587,D2,227.25,0.375,95,120.0
1588,G3,227.25,0.375,95,120.0
1589,C3,227.25,0.375,95,120.0
1590,E-3,227.25,0.75,95,120.0
1591,B1,227.25,0.75,95,120.0
1592,D2,227.625,0.375,95,120.0
1593,G3,227.625,0.375,95,120.0
1594,C3,227.625,0.375,95,120.0
1595,G3,228.0,0.375,95,120.0
1596,C3,228.0,0.375,95,120.0
1597,A3,228.0,0.375,95,120.0
1598,D3,228.0,0.375,95,120.0
1599,E-3,228.0,0.75,95,120.0
1600,B1,228.0,0.75,95,120.0
1601,C2,228.375,0.375,95,120.0
1602,G3,228.375,0.375,95,120.0
1603,C3,228.375,0.375,95,120.0
1604,A3,228.375,0.375,95,120.0
1605,D3,228.375,0.375,95,120.0
1606,C2,228.75,0.375,95,120.0
1607,G3,228.75,0.375,95,120.0
1608,C3,228.75,0.375,95,120.0
1609,A3,228.75,0.375,95,120.0
1610,D3,228.75,0.375,95,120.0
1611,E-3,228.75,0.75,95,120.0
1612,B1,228.75,0.75,95,120.0
1613,C2,229.125,0.375,95,120.0
1614,G3,229.125,0.375,95,120.0
1615,C3,229.125,0.375,95,120.0
1616,A3,229.125,0.375,95,120.0
1617,D3,229.125,0.375,95,120.0
1618,C2,229.5,0.375,95,120.0
1619,G3,229.5,0.375,95,120.0
1620,C3,229.5,0.375,95,120.0
1621,A3,229.5,0.375,95,120.0
1622,D3,229.5,0.375,95,120.0
1623,E-3,229.5,0.75,95,120.0
1624,D2,229.5,0.75,95,120.0
1625,C2,229.875,0.375,95,120.0
1626,G3,229.875,0.375,95,120.0
1627,C3,229.875,0.375,95,120.0
1628,A3,229.875,0.375,95,120.0
1629,D3,229.875,0.375,95,120.0
1630,C2,230.25,0.375,95,120.0
1631,G3,230.25,0.375,95,120.0
1632,C3,230.25,0.375,95,120.0
1633,A3,230.25,0.375,95,120.0
1634,D3,230.25,0.375,95,120.0
1635,E-3,230.25,0.75,95,120.0
1636,B1,230.25,0.75,95,120.0
1637,C2,230.625,0.375,95,120.0
1638,G3,230.625,0.375,95,120.0
1639,C3,230.625,0.375,95,120.0
1640,A3,230.625,0.375,95,120.0
1641,D3,230.625,0.375,95,120.0
1642,C2,231.0,0.375,95,120.0
1643,G3,231.0,0.375,95,120.0
1644,C3,231.0,0.375,95,120.0
1645,A3,231.0,0.375,95,120.0
1646,D3,231.0,0.375,95,120.0
1647,E-3,231.0,0.75,95,120.0
1648,B1,231.0,0.75,95,120.0
1649,C2,231.375,0.375,95,120.0
1650,G3,231.375,0.375,95,120.0
1651,C3,231.375,0.375,95,120.0
1652,A3,231.375,0.375,95,120.0
1653,D3,231.375,0.375,95,120.0
1654,C2,231.75,0.375,95,120.0
1655,G3,231.75,0.375,95,120.0
1656,C3,231.75,0.375,95,120.0
1657,A3,231.75,0.375,95,120.0
1658,D3,231.75,0.375,95,120.0
1659,E-3,231.75,0.75,95,120.0
1660,B1,231.75,0.75,95,120.0
1661,C2,232.125,0.375,95,120.0
1662,G3,232.125,0.375,95,120.0
1663,C3,232.125,0.375,95,120.0
1664,A3,232.125,0.375,95,120.0
1665,D3,232.125,0.375,95,120.0
1666,C2,232.5,0.375,95,120.0
1667,G3,232.5,0.375,95,120.0
1668,C3,232.5,0.375,95,120.0
1669,A3,232.5,0.375,95,120.0
1670,D3,232.5,0.375,95,120.0
1671,E-3,232.5,0.75,95,120.0
1672,D2,232.5,0.75,95,120.0
1673,C2,232.875,0.375,95,120.0
1674,G3,232.875,0.375,95,120.0
1675,C3,232.875,0.375,95,120.0
1676,A3,232.875,0.375,95,120.0
1677,D3,232.875,0.375,95,120.0
1678,C2,233.25,0.375,95,120.0
1679,G3,233.25,0.375,95,120.0
1680,C3,233.25,0.375,95,120.0
1681,A3,233.25,0.375,95,120.0
1682,D3,233.25,0.375,95,120.0
1683,E-3,233.25,0.75,95,120.0
1684,B1,233.25,0.75,95,120.0
1685,C2,233.625,0.375,95,120.0
1686,G3,233.625,0.375,95,120.0
1687,C3,233.625,0.375,95,120.0
1688,A3,233.625,0.375,95,120.0
1689,D3,233.625,0.375,95,120.0
1690,A1,234.0,0.062,95,120.0
1691,F#2,234.0,0.188,95,120.0
1692,D3,234.0,0.062,95,120.0
1693,A2,234.0,0.062,95,120.0
1694,F#2,234.188,0.188,95,120.0
1695,A1,234.375,0.062,95,120.0
1696,F#2,234.375,0.188,95,120.0
1697,D3,234.375,0.062,95,120.0
1698,A2,234.375,0.062,95,120.0
1699,F#2,234.562,0.188,95,120.0
1700,D2,234.75,0.375,95,120.0
1701,B-2,234.75,0.75,95,120.0
1702,A3,234.75,0.375,95,120.0
1703,D3,234.75,0.375,95,120.0
1704,D2,235.125,0.375,95,120.0
1705,A3,235.125,0.375,95,120.0
1706,D3,235.125,0.375,95,120.0
1707,A1,235.5,0.062,95,120.0
1708,F#2,235.5,0.188,95,120.0
1709,D3,235.5,0.062,95,120.0
1710,A2,235.5,0.062,95,120.0
1711,F#2,235.688,0.188,95,120.0
1712,A1,235.875,0.062,95,120.0
1713,F#2,235.875,0.188,95,120.0
1714,D3,235.875,0.062,95,120.0
1715,A2,235.875,0.062,95,120.0
1716,F#2,236.062,0.188,95,120.0
1717,D2,236.25,0.375,95,120.0
1718,B-2,236.25,0.75,95,120.0
1719,A3,236.25,0.375,95,120.0
1720,D3,236.25,0.375,95,120.0
1721,D2,236.625,0.375,95,120.0
1722,A3,236.625,0.375,95,120.0
1723,D3,236.625,0.375,95,120.0
1724,A1,237.0,0.062,95,120.0
1725,F#2,237.0,0.188,95,120.0
1726,D3,237.0,0.062,95,120.0
1727,A2,237.0,0.062,95,120.0
1728,F#2,237.188,0.188,95,120.0
1729,A1,237.375,0.062,95,120.0
1730,F#2,237.375,0.188,95,120.0
1731,D3,237.375,0.062,95,120.0
1732,A2,237.375,0.062,95,120.0
1733,F#2,237.562,0.188,95,120.0
1734,D2,237.75,0.375,95,120.0
1735,B-2,237.75,0.75,95,120.0
1736,A3,237.75,0.375,95,120.0
1737,D3,237.75,0.375,95,120.0
1738,D2,238.125,0.375,95,120.0
1739,A3,238.125,0.375,95,120.0
1740,D3,238.125,0.375,95,120.0
1741,A1,238.5,0.062,95,120.0
1742,F#2,238.5,0.188,95,120.0
1743,D3,238.5,0.062,95,120.0
1744,A2,238.5,0.062,95,120.0
1745,F#2,238.688,0.188,95,120.0
1746,A1,238.875,0.062,95,120.0
1747,F#2,238.875,0.188,95,120.0
1748,D3,238.875,0.062,95,120.0
1749,A2,238.875,0.062,95,120.0
1750,F#2,239.062,0.188,95,120.0
1751,D2,239.25,0.375,95,120.0
1752,B-2,239.25,0.75,95,120.0
1753,A3,239.25,0.375,95,120.0
1754,D3,239.25,0.375,95,120.0
1755,D2,239.625,0.375,95,120.0
1756,A3,239.625,0.375,95,120.0
1757,D3,239.625,0.375,95,120.0
1758,A1,240.0,0.375,95,120.0
1759,D2,240.0,0.375,95,120.0
1760,B1,240.0,0.375,95,120.0
1761,A1,240.375,0.375,95,120.0
1762,D2,240.375,0.375,95,120.0
1763,B1,240.375,0.375,95,120.0
1764,A1,240.75,0.375,95,120.0
1765,A3,240.75,0.75,95,120.0
1766,C#3,240.75,0.75,95,120.0
1767,B1,240.75,0.75,95,120.0
1768,A1,241.125,0.375,95,120.0
1769,A1,241.5,0.375,95,120.0
1770,D2,241.5,0.375,95,120.0
1771,B1,241.5,0.375,95,120.0
1772,A1,241.875,0.375,95,120.0
1773,D2,241.875,0.375,95,120.0
1774,B1,241.875,0.375,95,120.0
1775,A1,242.25,0.375,95,120.0
1776,A3,242.25,0.75,95,120.0
1777,C#3,242.25,0.75,95,120.0
1778,B1,242.25,0.75,95,120.0
1779,A1,242.625,0.375,95,120.0
1780,C2,243.0,0.375,95,120.0
1781,D2,243.0,0.375,95,120.0
1782,B1,243.0,0.375,95,120.0
1783,C2,243.375,0.375,95,120.0
1784,D2,243.375,0.375,95,120.0
1785,B1,243.375,0.375,95,120.0
1786,C2,243.75,0.375,95,120.0
1787,A3,243.75,0.75,95,120.0
1788,C#3,243.75,0.75,95,120.0
1789,B1,243.75,0.75,95,120.0
1790,C2,244.125,0.375,95,120.0
1791,C2,244.5,0.375,95,120.0
1792,D2,244.5,0.375,95,120.0
1793,B1,244.5,0.375,95,120.0
1794,C2,244.875,0.375,95,120.0
1795,D2,244.875,0.375,95,120.0
1796,B1,244.875,0.375,95,120.0
1797,C2,245.25,0.375,95,120.0
1798,A3,245.25,0.75,95,120.0
1799,C#3,245.25,0.75,95,120.0
1800,B1,245.25,0.75,95,120.0
1801,C2,245.625,0.375,95,120.0
1802,D2,246.0,0.375,95,120.0
1803,E3,246.0,0.375,95,120.0
1804,A2,246.0,0.375,95,120.0
1805,C#3,246.0,0.75,95,120.0
1806,B1,246.0,0.75,95,120.0
1807,D2,246.375,0.375,95,120.0
1808,E3,246.375,0.375,95,120.0
1809,A2,246.375,0.375,95,120.0
1810,D2,246.75,0.375,95,120.0
1811,E3,246.75,0.375,95,120.0
1812,A2,246.75,0.375,95,120.0
1813,C#3,246.75,0.75,95,120.0
1814,B1,246.75,0.75,95,120.0
1815,D2,247.125,0.375,95,120.0
1816,E3,247.125,0.375,95,120.0
1817,A2,247.125,0.375,95,120.0
1818,D2,247.5,0.375,95,120.0
1819,E3,247.5,0.375,95,120.0
1820,A2,247.5,0.375,95,120.0
1821,C#3,247.5,0.75,95,120.0
1822,D2,247.5,0.75,95,120.0
1823,D2,247.875,0.375,95,120.0
1824,E3,247.875,0.375,95,120.0
1825,A2,247.875,0.375,95,120.0
1826,D2,248.25,0.375,95,120.0
1827,E3,248.25,0.375,95,120.0
1828,A2,248.25,0.375,95,120.0
1829,C#3,248.25,0.75,95,120.0
1830,B1,248.25,0.75,95,120.0
1831,D2,248.625,0.375,95,120.0
1832,E3,248.625,0.375,95,120.0
1833,A2,248.625,0.375,95,120.0
1834,D2,249.0,0.375,95,120.0
1835,G3,249.0,0.375,95,120.0
1836,C3,249.0,0.375,95,120.0
1837,C#3,249.0,0.75,95,120.0
1838,B1,249.0,0.75,95,120.0
1839,D2,249.375,0.375,95,120.0
1840,G3,249.375,0.375,95,120.0
1841,C3,249.375,0.375,95,120.0
1842,D2,249.75,0.375,95,120.0
1843,G3,249.75,0.375,95,120.0
1844,C3,249.75,0.375,95,120.0
1845,C#3,249.75,0.75,95,120.0
1846,B1,249.75,0.75,95,120.0
1847,D2,250.125,0.375,95,120.0
1848,G3,250.125,0.375,95,120.0
1849,C3,250.125,0.375,95,120.0
1850,D2,250.5,0.375,95,120.0
1851,G3,250.5,0.375,95,120.0
1852,C3,250.5,0.375,95,120.0
1853,C#3,250.5,0.75,95,120.0
1854,D2,250.5,0.75,95,120.0
1855,D2,250.875,0.375,95,120.0
1856,G3,250.875,0.375,95,120.0
1857,C3,250.875,0.375,95,120.0
1858,D2,251.25,0.375,95,120.0
1859,G3,251.25,0.375,95,120.0
1860,C3,251.25,0.375,95,120.0
1861,C#3,251.25,0.75,95,120.0
1862,B1,251.25,0.75,95,120.0
1863,D2,251.625,0.375,95,120.0
1864,G3,251.625,0.375,95,120.0
1865,C3,251.625,0.375,95,120.0
1866,A1,252.0,0.375,95,120.0
1867,A3,252.0,0.375,95,120.0
1868,D3,252.0,0.375,95,120.0
1869,C#3,252.0,0.75,95,120.0
1870,B1,252.0,0.75,95,120.0
1871,A1,252.375,0.375,95,120.0
1872,A3,252.375,0.375,95,120.0
1873,D3,252.375,0.375,95,120.0
1874,A1,252.75,0.375,95,120.0
1875,A3,252.75,0.375,95,120.0
1876,D3,252.75,0.375,95,120.0
1877,C#3,252.75,0.75,95,120.0
1878,B1,252.75,0.75,95,120.0
1879,A1,253.125,0.375,95,120.0
1880,A3,253.125,0.375,95,120.0
1881,D3,253.125,0.375,95,120.0
1882,A1,253.5,0.375,95,120.0
1883,A3,253.5,0.375,95,120.0
1884,D3,253.5,0.375,95,120.0
1885,C#3,253.5,0.75,95,120.0
1886,D2,253.5,0.75,95,120.0
1887,A1,253.875,0.375,95,120.0
1888,A3,253.875,0.375,95,120.0
1889,D3,253.875,0.375,95,120.0
1890,A1,254.25,0.375,95,120.0
1891,A3,254.25,0.375,95,120.0
1892,D3,254.25,0.375,95,120.0
1893,C#3,254.25,0.75,95,120.0
1894,B1,254.25,0.75,95,120.0
1895,A1,254.625,0.375,95,120.0
1896,A3,254.625,0.375,95,120.0
1897,D3,254.625,0.375,95,120.0
1898,C2,255.0,0.375,95,120.0
1899,A3,255.0,0.375,95,120.0
1900,D3,255.0,0.375,95,120.0
1901,C#3,255.0,0.75,95,120.0
1902,B1,255.0,0.75,95,120.0
1903,C2,255.375,0.375,95,120.0
1904,A3,255.375,0.375,95,120.0
1905,D3,255.375,0.375,95,120.0
1906,C2,255.75,0.375,95,120.0
1907,A3,255.75,0.375,95,120.0
1908,D3,255.75,0.375,95,120.0
1909,C#3,255.75,0.75,95,120.0
1910,B1,255.75,0.75,95,120.0
1911,C2,256.125,0.375,95,120.0
1912,A3,256.125,0.375,95,120.0
1913,D3,256.125,0.375,95,120.0
1914,C2,256.5,0.375,95,120.0
1915,A3,256.5,0.375,95,120.0
1916,D3,256.5,0.375,95,120.0
1917,C#3,256.5,0.75,95,120.0
1918,D2,256.5,0.75,95,120.0
1919,C2,256.875,0.375,95,120.0
1920,A3,256.875,0.375,95,120.0
1921,D3,256.875,0.375,95,120.0
1922,C2,257.25,0.375,95,120.0
1923,A3,257.25,0.375,95,120.0
1924,D3,257.25,0.375,95,120.0
1925,C#3,257.25,0.75,95,120.0
1926,B1,257.25,0.75,95,120.0
1927,C2,257.625,0.375,95,120.0
1928,A3,257.625,0.375,95,120.0
1929,D3,257.625,0.375,95,120.0
1930,D2,258.0,0.375,95,120.0
1931,E3,258.0,0.375,95,120.0
1932,A2,258.0,0.375,95,120.0
1933,C#3,258.0,0.75,95,120.0
1934,B1,258.0,0.75,95,120.0
1935,D2,258.375,0.375,95,120.0
1936,E3,258.375,0.375,95,120.0
1937,A2,258.375,0.375,95,120.0
1938,D2,258.75,0.375,95,120.0
1939,E3,258.75,0.375,95,120.0
1940,A2,258.75,0.375,95,120.0
1941,C#3,258.75,0.75,95,120.0
1942,B1,258.75,0.75,95,120.0
1943,D2,259.125,0.375,95,120.0
1944,E3,259.125,0.375,95,120.0
1945,A2,259.125,0.375,95,120.0
1946,D2,259.5,0.375,95,120.0
1947,E3,259.5,0.375,95,120.0
1948,A2,259.5,0.375,95,120.0
1949,C#3,259.5,0.75,95,120.0
1950,D2,259.5,0.75,95,120.0
1951,D2,259.875,0.375,95,120.0
1952,E3,259.875,0.375,95,120.0
1953,A2,259.875,0.375,95,120.0
1954,D2,260.25,0.375,95,120.0
1955,E3,260.25,0.375,95,120.0
1956,A2,260.25,0.375,95,120.0
1957,C#3,260.25,0.75,95,120.0
1958,B1,260.25,0.75,95,120.0
1959,D2,260.625,0.375,95,120.0
1960,E3,260.625,0.375,95,120.0
1961,A2,260.625,0.375,95,120.0
1962,D2,261.0,0.375,95,120.0
1963,G3,261.0,0.375,95,120.0
1964,C3,261.0,0.375,95,120.0
1965,C#3,261.0,0.75,95,120.0
1966,B1,261.0,0.75,95,120.0
1967,D2,261.375,0.375,95,120.0
1968,G3,261.375,0.375,95,120.0
1969,C3,261.375,0.375,95,120.0
1970,D2,261.75,0.375,95,120.0
1971,G3,261.75,0.375,95,120.0
1972,C3,261.75,0.375,95,120.0
1973,C#3,261.75,0.75,95,120.0
1974,B1,261.75,0.75,95,120.0
1975,D2,262.125,0.375,95,120.0
1976,G3,262.125,0.375,95,120.0
1977,C3,262.125,0.375,95,120.0
1978,D2,262.5,0.375,95,120.0
1979,G3,262.5,0.375,95,120.0
1980,C3,262.5,0.375,95,120.0
1981,C#3,262.5,0.75,95,120.0
1982,D2,262.5,0.75,95,120.0
1983,D2,262.875,0.375,95,120.0
1984,G3,262.875,0.375,95,120.0
1985,C3,262.875,0.375,95,120.0
1986,D2,263.25,0.375,95,120.0
1987,G3,263.25,0.375,95,120.0
1988,C3,263.25,0.375,95,120.0
1989,C#3,263.25,0.75,95,120.0
1990,B1,263.25,0.75,95,120.0
1991,D2,263.625,0.375,95,120.0
1992,G3,263.625,0.375,95,120.0
1993,C3,263.625,0.375,95,120.0
1994,A1,264.0,0.375,95,120.0
1995,A3,264.0,0.375,95,120.0
1996,D3,264.0,0.375,95,120.0
1997,C#3,264.0,0.75,95,120.0
1998,B1,264.0,0.75,95,120.0
1999,A1,264.375,0.375,95,120.0
2000,A3,264.375,0.375,95,120.0
2001,D3,264.375,0.375,95,120.0
2002,A1,264.75,0.375,95,120.0
2003,A3,264.75,0.375,95,120.0
2004,D3,264.75,0.375,95,120.0
2005,C#3,264.75,0.75,95,120.0
2006,B1,264.75,0.75,95,120.0
2007,A1,265.125,0.375,95,120.0
2008,A3,265.125,0.375,95,120.0
2009,D3,265.125,0.375,95,120.0
2010,A1,265.5,0.375,95,120.0
2011,A3,265.5,0.375,95,120.0
2012,D3,265.5,0.375,95,120.0
2013,C#3,265.5,0.75,95,120.0
2014,D2,265.5,0.75,95,120.0
2015,A1,265.875,0.375,95,120.0
2016,A3,265.875,0.375,95,120.0
2017,D3,265.875,0.375,95,120.0
2018,A1,266.25,0.375,95,120.0
2019,A3,266.25,0.375,95,120.0
2020,D3,266.25,0.375,95,120.0
2021,C#3,266.25,0.75,95,120.0
2022,B1,266.25,0.75,95,120.0
2023,A1,266.625,0.375,95,120.0
2024,A3,266.625,0.375,95,120.0
2025,D3,266.625,0.375,95,120.0
2026,C2,267.0,0.375,95,120.0
2027,A3,267.0,0.375,95,120.0
2028,D3,267.0,0.375,95,120.0
2029,C#3,267.0,0.75,95,120.0
2030,B1,267.0,0.75,95,120.0
2031,C2,267.375,0.375,95,120.0
2032,A3,267.375,0.375,95,120.0
2033,D3,267.375,0.375,95,120.0
2034,C2,267.75,0.375,95,120.0
2035,A3,267.75,0.375,95,120.0
2036,D3,267.75,0.375,95,120.0
2037,C#3,267.75,0.75,95,120.0
2038,B1,267.75,0.75,95,120.0
2039,C2,268.125,0.375,95,120.0
2040,A3,268.125,0.375,95,120.0
2041,D3,268.125,0.375,95,120.0
2042,C2,268.5,0.375,95,120.0
2043,A3,268.5,0.375,95,120.0
2044,D3,268.5,0.375,95,120.0
2045,C#3,268.5,0.75,95,120.0
2046,D2,268.5,0.75,95,120.0
2047,C2,268.875,0.375,95,120.0
2048,A3,268.875,0.375,95,120.0
2049,D3,268.875,0.375,95,120.0
2050,C2,269.25,0.375,95,120.0
2051,A3,269.25,0.375,95,120.0
2052,D3,269.25,0.375,95,120.0
2053,C#3,269.25,0.75,95,120.0
2054,B1,269.25,0.75,95,120.0
2055,C2,269.625,0.375,95,120.0
2056,A3,269.625,0.375,95,120.0
2057,D3,269.625,0.375,95,120.0
2058,D2,270.0,0.375,95,120.0
2059,E3,270.0,0.375,95,120.0
2060,A2,270.0,0.375,95,120.0
2061,C#3,270.0,0.75,95,120.0
2062,B1,270.0,0.75,95,120.0
2063,D2,270.375,0.375,95,120.0
2064,E3,270.375,0.375,95,120.0
2065,A2,270.375,0.375,95,120.0
2066,D2,270.75,0.375,95,120.0
2067,E3,270.75,0.375,95,120.0
2068,A2,270.75,0.375,95,120.0
2069,C#3,270.75,0.75,95,120.0
2070,B1,270.75,0.75,95,120.0
2071,D2,271.125,0.375,95,120.0
2072,E3,271.125,0.375,95,120.0
2073,A2,271.125,0.375,95,120.0
2074,D2,271.5,0.375,95,120.0
2075,E3,271.5,0.375,95,120.0
2076,A2,271.5,0.375,95,120.0
2077,C#3,271.5,0.75,95,120.0
2078,D2,271.5,0.75,95,120.0
2079,D2,271.875,0.375,95,120.0
2080,E3,271.875,0.375,95,120.0
2081,A2,271.875,0.375,95,120.0
2082,D2,272.25,0.375,95,120.0
2083,E3,272.25,0.375,95,120.0
2084,A2,272.25,0.375,95,120.0
2085,C#3,272.25,0.75,95,120.0
2086,B1,272.25,0.75,95,120.0
2087,D2,272.625,0.375,95,120.0
2088,E3,272.625,0.375,95,120.0
2089,A2,272.625,0.375,95,120.0
2090,D2,273.0,0.375,95,120.0
2091,G3,273.0,0.375,95,120.0
2092,C3,273.0,0.375,95,120.0
2093,C#3,273.0,0.75,95,120.0
2094,B1,273.0,0.75,95,120.0
2095,D2,273.375,0.375,95,120.0
2096,G3,273.375,0.375,95,120.0
2097,C3,273.375,0.375,95,120.0
2098,D2,273.75,0.375,95,120.0
2099,G3,273.75,0.375,95,120.0
2100,C3,273.75,0.375,95,120.0
2101,C#3,273.75,0.75,95,120.0
2102,B1,273.75,0.75,95,120.0
2103,D2,274.125,0.375,95,120.0
2104,G3,274.125,0.375,95,120.0
2105,C3,274.125,0.375,95,120.0
2106,D2,274.5,0.375,95,120.0
2107,G3,274.5,0.375,95,120.0
2108,C3,274.5,0.375,95,120.0
2109,C#3,274.5,0.75,95,120.0
2110,D2,274.5,0.75,95,120.0
2111,D2,274.875,0.375,95,120.0
2112,G3,274.875,0.375,95,120.0
2113,C3,274.875,0.375,95,120.0
2114,D2,275.25,0.375,95,120.0
2115,G3,275.25,0.375,95,120.0
2116,C3,275.25,0.375,95,120.0
2117,C#3,275.25,0.75,95,120.0
2118,B1,275.25,0.75,95,120.0
2119,D2,275.625,0.375,95,120.0
2120,G3,275.625,0.375,95,120.0
2121,C3,275.625,0.375,95,120.0
2122,A1,276.0,0.375,95,120.0
2123,A3,276.0,0.375,95,120.0
2124,D3,276.0,0.375,95,120.0
2125,C#3,276.0,0.75,95,120.0
2126,B1,276.0,0.75,95,120.0
2127,A1,276.375,0.375,95,120.0
2128,A3,276.375,0.375,95,120.0
2129,D3,276.375,0.375,95,120.0
2130,A1,276.75,0.375,95,120.0
2131,A3,276.75,0.375,95,120.0
2132,D3,276.75,0.375,95,120.0
2133,C#3,276.75,0.75,95,120.0
2134,B1,276.75,0.75,95,120.0
2135,A1,277.125,0.375,95,120.0
2136,A3,277.125,0.375,95,120.0
2137,D3,277.125,0.375,95,120.0
2138,A1,277.5,0.375,95,120.0
2139,A3,277.5,0.375,95,120.0
2140,D3,277.5,0.375,95,120.0
2141,C#3,277.5,0.75,95,120.0
2142,D2,277.5,0.75,95,120.0
2143,A1,277.875,0.375,95,120.0
2144,A3,277.875,0.375,95,120.0
2145,D3,277.875,0.375,95,120.0
2146,A1,278.25,0.375,95,120.0
2147,A3,278.25,0.375,95,120.0
2148,D3,278.25,0.375,95,120.0
2149,C#3,278.25,0.75,95,120.0
2150,B1,278.25,0.75,95,120.0
2151,A1,278.625,0.375,95,120.0
2152,A3,278.625,0.375,95,120.0
2153,D3,278.625,0.375,95,120.0
2154,C2,279.0,0.375,95,120.0
2155,A3,279.0,0.375,95,120.0
2156,D3,279.0,0.375,95,120.0
2157,C#3,279.0,0.75,95,120.0
2158,B1,279.0,0.75,95,120.0
2159,C2,279.375,0.375,95,120.0
2160,A3,279.375,0.375,95,120.0
2161,D3,279.375,0.375,95,120.0
2162,C2,279.75,0.375,95,120.0
2163,A3,279.75,0.375,95,120.0
2164,D3,279.75,0.375,95,120.0
2165,C#3,279.75,0.75,95,120.0
2166,B1,279.75,0.75,95,120.0
2167,C2,280.125,0.375,95,120.0
2168,A3,280.125,0.375,95,120.0
2169,D3,280.125,0.375,95,120.0
2170,C2,280.5,0.375,95,120.0
2171,A3,280.5,0.375,95,120.0
2172,D3,280.5,0.375,95,120.0
2173,C#3,280.5,0.75,95,120.0
2174,D2,280.5,0.75,95,120.0
2175,C2,280.875,0.375,95,120.0
2176,A3,280.875,0.375,95,120.0
2177,D3,280.875,0.375,95,120.0
2178,C2,281.25,0.375,95,120.0
2179,A3,281.25,0.375,95,120.0
2180,D3,281.25,0.375,95,120.0
2181,C#3,281.25,0.75,95,120.0
2182,B1,281.25,0.75,95,120.0
2183,C2,281.625,0.375,95,120.0
2184,A3,281.625,0.375,95,120.0
2185,D3,281.625,0.375,95,120.0
2186,D2,282.0,0.375,95,120.0
2187,E3,282.0,0.375,95,120.0
2188,A2,282.0,0.375,95,120.0
2189,C#3,282.0,0.75,95,120.0
2190,B1,282.0,0.75,95,120.0
2191,D2,282.375,0.375,95,120.0
2192,E3,282.375,0.375,95,120.0
2193,A2,282.375,0.375,95,120.0
2194,D2,282.75,0.375,95,120.0
2195,E3,282.75,0.375,95,120.0
2196,A2,282.75,0.375,95,120.0
2197,C#3,282.75,0.75,95,120.0
2198,B1,282.75,0.75,95,120.0
2199,D2,283.125,0.375,95,120.0
2200,E3,283.125,0.375,95,120.0
2201,A2,283.125,0.375,95,120.0
2202,D2,283.5,0.375,95,120.0
2203,E3,283.5,0.375,95,120.0
2204,A2,283.5,0.375,95,120.0
2205,C#3,283.5,0.75,95,120.0
2206,D2,283.5,0.75,95,120.0
2207,D2,283.875,0.375,95,120.0
2208,E3,283.875,0.375,95,120.0
2209,A2,283.875,0.375,95,120.0
2210,D2,284.25,0.375,95,120.0
2211,E3,284.25,0.375,95,120.0
2212,A2,284.25,0.375,95,120.0
2213,C#3,284.25,0.75,95,120.0
2214,B1,284.25,0.75,95,120.0
2215,D2,284.625,0.375,95,120.0
2216,E3,284.625,0.375,95,120.0
2217,A2,284.625,0.375,95,120.0
2218,D2,285.0,0.375,95,120.0
2219,G3,285.0,0.375,95,120.0
2220,C3,285.0,0.375,95,120.0
2221,C#3,285.0,0.75,95,120.0
2222,B1,285.0,0.75,95,120.0
2223,D2,285.375,0.375,95,120.0
2224,G3,285.375,0.375,95,120.0
2225,C3,285.375,0.375,95,120.0
2226,D2,285.75,0.375,95,120.0
2227,G3,285.75,0.375,95,120.0
2228,C3,285.75,0.375,95,120.0
2229,C#3,285.75,0.75,95,120.0
2230,B1,285.75,0.75,95,120.0
2231,D2,286.125,0.375,95,120.0
2232,G3,286.125,0.375,95,120.0
2233,C3,286.125,0.375,95,120.0
2234,D2,286.5,0.375,95,120.0
2235,G3,286.5,0.375,95,120.0
2236,C3,286.5,0.375,95,120.0
2237,C#3,286.5,0.75,95,120.0
2238,D2,286.5,0.75,95,120.0
2239,D2,286.875,0.375,95,120.0
2240,G3,286.875,0.375,95,120.0
2241,C3,286.875,0.375,95,120.0
2242,D2,287.25,0.375,95,120.0
2243,G3,287.25,0.375,95,120.0
2244,C3,287.25,0.375,95,120.0
2245,C#3,287.25,0.75,95,120.0
2246,B1,287.25,0.75,95,120.0
2247,D2,287.625,0.375,95,120.0
2248,G3,287.625,0.375,95,120.0
2249,C3,287.625,0.375,95,120.0
2250,A3,288.0,3.0,95,120.0
2251,D3,288.0,3.0,95,120.0
2252,C#3,288.0,3.0,95,120.0
2253,B1,288.0,3.0,95,120.0
2254,C#3,291.75,0.75,95,120.0
2255,B1,291.75,0.75,95,120.0
2256,A3,294.0,3.0,95,120.0
2257,D3,294.0,3.0,95,120.0
