,note_name,start_time,duration,velocity,tempo
0,C3,0.0,1.0,79,168.0
1,E4,1.0,0.5,90,168.0
2,G3,1.0,0.5,90,168.0
3,E3,1.0,0.5,90,168.0
4,C4,1.5,0.5,95,168.0
5,G2,2.0,0.5,79,168.0
6,E4,2.5,0.5,95,168.0
7,G3,3.0,1.0,87,168.0
8,E3,3.0,1.0,87,168.0
9,G4,4.0,0.5,87,168.0
10,C3,4.0,0.5,87,168.0
11,F#2,4.0,1.0,31,168.0
12,C#2,4.0,1.0,31,168.0
13,C4,4.5,0.5,95,168.0
14,G3,5.0,0.5,87,168.0
15,E3,5.0,0.5,87,168.0
16,F#2,5.0,0.5,47,168.0
17,C#2,5.0,0.5,47,168.0
18,G4,5.5,0.5,95,168.0
19,F#2,5.5,0.5,63,168.0
20,G2,6.0,0.5,79,168.0
21,G#2,6.0,1.0,63,168.0
22,C#2,6.0,1.0,63,168.0
23,E4,6.5,0.5,95,168.0
24,E3,7.0,1.0,79,168.0
25,F#2,7.0,0.5,63,168.0
26,C#2,7.0,0.5,63,168.0
27,F#2,7.5,0.5,63,168.0
28,G3,8.0,1.0,87,168.0
29,E2,8.0,1.0,87,168.0
30,F#2,8.0,1.0,63,168.0
31,C#2,8.0,1.0,63,168.0
32,G#3,9.0,0.5,74,168.0
33,D3,9.0,0.5,74,168.0
34,F#2,9.0,0.5,63,168.0
35,C#2,9.0,0.5,63,168.0
36,E4,9.5,0.5,95,168.0
37,F#2,9.5,0.5,63,168.0
38,B2,10.0,1.0,79,168.0
39,G#2,10.0,1.0,63,168.0
40,C#2,10.0,1.0,63,168.0
41,G#3,11.0,0.5,87,168.0
42,D3,11.0,0.5,87,168.0
43,F#2,11.0,0.5,63,168.0
44,C#2,11.0,0.5,63,168.0
45,B3,11.5,0.5,95,168.0
46,F#2,11.5,0.5,63,168.0
47,D4,12.0,0.5,87,168.0
48,E2,12.0,0.5,87,168.0
49,F#2,12.0,1.0,63,168.0
50,C#2,12.0,1.0,63,168.0
51,G#3,12.5,0.5,95,168.0
52,D3,13.0,0.5,79,168.0
53,F#2,13.0,0.5,63,168.0
54,C#2,13.0,0.5,63,168.0
55,D4,13.5,0.5,95,168.0
56,F#2,13.5,0.5,63,168.0
57,B2,14.0,1.0,79,168.0
58,G#2,14.0,1.0,63,168.0
59,C#2,14.0,1.0,63,168.0
60,D3,15.0,1.0,79,168.0
61,F#2,15.0,0.5,63,168.0
62,C#2,15.0,0.5,63,168.0
63,F#2,15.5,0.5,63,168.0
64,A2,16.0,1.0,79,168.0
65,F#2,16.0,1.0,63,168.0
66,C#2,16.0,1.0,63,168.0
67,C4,17.0,0.5,90,168.0
68,A3,17.0,0.5,90,168.0
69,E3,17.0,0.5,90,168.0
70,F#2,17.0,0.5,63,168.0
71,C#2,17.0,0.5,63,168.0
72,A3,17.5,0.5,95,168.0
73,F#2,17.5,0.5,63,168.0
74,E2,18.0,0.5,79,168.0
75,G#2,18.0,1.0,63,168.0
76,C#2,18.0,1.0,63,168.0
77,C4,18.5,0.5,95,168.0
78,E3,19.0,1.0,79,168.0
79,F#2,19.0,0.5,63,168.0
80,C#2,19.0,0.5,63,168.0
81,F#2,19.5,0.5,63,168.0
82,D4,20.0,1.0,87,168.0
83,A2,20.0,1.0,87,168.0
84,F#2,20.0,1.0,63,168.0
85,C#2,20.0,1.0,63,168.0
86,E4,21.0,0.5,91,168.0
87,C4,21.0,0.5,91,168.0
88,A3,21.0,0.5,91,168.0
89,E3,21.0,0.5,91,168.0
90,F#2,21.0,0.5,63,168.0
91,C#2,21.0,0.5,63,168.0
92,D4,21.5,0.5,95,168.0
93,F#2,21.5,0.5,63,168.0
94,E2,22.0,0.5,79,168.0
95,G#2,22.0,1.0,63,168.0
96,C#2,22.0,1.0,63,168.0
97,C4,22.5,0.5,95,168.0
98,A3,23.0,0.5,87,168.0
99,E3,23.0,0.5,87,168.0
100,F#2,23.0,0.5,63,168.0
101,C#2,23.0,0.5,63,168.0
102,B-3,23.5,0.5,95,168.0
103,F#2,23.5,0.5,63,168.0
104,C3,24.0,1.0,79,168.0
105,F#2,24.0,1.0,63,168.0
106,C#2,24.0,1.0,63,168.0
107,B-3,25.0,1.0,87,168.0
108,E3,25.0,1.0,87,168.0
109,F#2,25.0,0.5,63,168.0
110,C#2,25.0,0.5,63,168.0
111,F#2,25.5,0.5,63,168.0
112,G2,26.0,1.0,79,168.0
113,G#2,26.0,1.0,63,168.0
114,C#2,26.0,1.0,63,168.0
115,B-3,27.0,1.0,87,168.0
116,E3,27.0,1.0,87,168.0
117,F#2,27.0,0.5,63,168.0
118,C#2,27.0,0.5,63,168.0
119,F#2,27.5,0.5,63,168.0
120,E4,28.0,1.0,90,168.0
121,C4,28.0,1.0,90,168.0
122,C3,28.0,1.0,90,168.0
123,F#2,28.0,1.0,63,168.0
124,C#2,28.0,1.0,63,168.0
125,B-3,29.0,0.5,87,168.0
126,E3,29.0,0.5,87,168.0
127,F#2,29.0,0.5,63,168.0
128,C#2,29.0,0.5,63,168.0
129,D4,29.5,0.5,95,168.0
130,F#2,29.5,0.5,63,168.0
131,G2,30.0,1.0,79,168.0
132,G#2,30.0,1.0,63,168.0
133,C#2,30.0,1.0,63,168.0
134,E3,31.0,1.0,79,168.0
135,F#2,31.0,0.5,63,168.0
136,C#2,31.0,0.5,63,168.0
137,F#2,31.5,0.5,63,168.0
138,A3,32.0,1.0,87,168.0
139,F2,32.0,1.0,87,168.0
140,F#2,32.0,1.0,63,168.0
141,C#2,32.0,1.0,63,168.0
142,G#3,33.0,1.0,87,168.0
143,F3,33.0,1.0,87,168.0
144,F#2,33.0,0.5,63,168.0
145,C#2,33.0,0.5,63,168.0
146,F#2,33.5,0.5,63,168.0
147,A3,34.0,0.5,87,168.0
148,C3,34.0,0.5,87,168.0
149,G#2,34.0,1.0,63,168.0
150,C#2,34.0,1.0,63,168.0
151,B3,34.5,0.5,95,168.0
152,F3,35.0,0.5,79,168.0
153,F#2,35.0,0.5,63,168.0
154,C#2,35.0,0.5,63,168.0
155,C4,35.5,0.5,95,168.0
156,F#2,35.5,0.5,63,168.0
157,F2,36.0,0.5,79,168.0
158,F#2,36.0,1.0,63,168.0
159,C#2,36.0,1.0,63,168.0
160,E4,36.5,0.5,95,168.0
161,A3,37.0,1.0,87,168.0
162,F3,37.0,1.0,87,168.0
163,F#2,37.0,0.5,63,168.0
164,C#2,37.0,0.5,63,168.0
165,F#2,37.5,0.5,63,168.0
166,C4,38.0,0.5,87,168.0
167,C3,38.0,0.5,87,168.0
168,G#2,38.0,1.0,63,168.0
169,C#2,38.0,1.0,63,168.0
170,A3,38.5,0.5,95,168.0
171,F3,39.0,0.5,79,168.0
172,F#2,39.0,0.5,63,168.0
173,C#2,39.0,0.5,63,168.0
174,G3,39.5,0.5,95,168.0
175,F#2,39.5,0.5,63,168.0
176,C3,40.0,1.0,79,168.0
177,F#2,40.0,1.0,63,168.0
178,C#2,40.0,1.0,63,168.0
179,G3,41.0,1.0,87,168.0
180,E3,41.0,1.0,87,168.0
181,F#2,41.0,0.5,63,168.0
182,C#2,41.0,0.5,63,168.0
183,F#2,41.5,0.5,63,168.0
184,G2,42.0,0.5,79,168.0
185,G#2,42.0,1.0,63,168.0
186,C#2,42.0,1.0,63,168.0
187,G#3,42.5,0.5,95,168.0
188,G#3,43.0,0.5,87,168.0
189,E3,43.0,0.5,87,168.0
190,F#2,43.0,0.5,63,168.0
191,C#2,43.0,0.5,63,168.0
192,A3,43.5,0.5,95,168.0
193,F#2,43.5,0.5,63,168.0
194,A2,44.0,0.5,79,168.0
195,F#2,44.0,1.0,63,168.0
196,C#2,44.0,1.0,63,168.0
197,C4,44.5,0.5,95,168.0
198,A3,45.0,1.0,87,168.0
199,E3,45.0,1.0,87,168.0
200,F#2,45.0,0.5,63,168.0
201,C#2,45.0,0.5,63,168.0
202,F#2,45.5,0.5,63,168.0
203,E2,46.0,1.0,79,168.0
204,G#2,46.0,1.0,63,168.0
205,C#2,46.0,1.0,63,168.0
206,A3,47.0,1.0,87,168.0
207,E3,47.0,1.0,87,168.0
208,F#2,47.0,0.5,63,168.0
209,C#2,47.0,0.5,63,168.0
210,F#2,47.5,0.5,63,168.0
211,D3,48.0,1.0,79,168.0
212,F#2,48.0,1.0,63,168.0
213,C#2,48.0,1.0,63,168.0
214,E4,49.0,1.0,83,168.0
215,D4,49.0,1.0,83,168.0
216,C4,49.0,1.0,83,168.0
217,F#3,49.0,1.0,83,168.0
218,F#2,49.0,0.5,63,168.0
219,C#2,49.0,0.5,63,168.0
220,F#2,49.5,0.5,63,168.0
221,A2,50.0,0.5,79,168.0
222,G#2,50.0,1.0,63,168.0
223,C#2,50.0,1.0,63,168.0
224,E-4,50.5,0.5,95,168.0
225,F#3,51.0,0.5,79,168.0
226,F#2,51.0,0.5,63,168.0
227,C#2,51.0,0.5,63,168.0
228,D4,51.5,0.5,95,168.0
229,F#2,51.5,0.5,63,168.0
230,G2,52.0,0.5,79,168.0
231,F#2,52.0,1.0,63,168.0
232,C#2,52.0,1.0,63,168.0
233,C4,52.5,0.5,95,168.0
234,G#3,53.0,1.0,87,168.0
235,F3,53.0,1.0,87,168.0
236,F#2,53.0,0.5,63,168.0
237,C#2,53.0,0.5,63,168.0
238,F#2,53.5,0.5,63,168.0
239,E-4,54.0,0.5,87,168.0
240,G2,54.0,0.5,87,168.0
241,G#2,54.0,1.0,63,168.0
242,C#2,54.0,1.0,63,168.0
243,D4,54.5,0.5,70,168.0
244,C4,55.0,1.0,90,168.0
245,G3,55.0,1.0,90,168.0
246,F3,55.0,1.0,90,168.0
247,F#2,55.0,0.5,63,168.0
248,C#2,55.0,0.5,63,168.0
249,F#2,55.5,0.5,63,168.0
250,C4,56.0,0.5,87,168.0
251,C3,56.0,0.5,87,168.0
252,F#2,56.0,1.0,63,168.0
253,C#2,56.0,1.0,63,168.0
254,G3,56.5,0.5,95,168.0
255,G3,57.0,0.5,87,168.0
256,E3,57.0,0.5,87,168.0
257,F#2,57.0,0.5,63,168.0
258,C#2,57.0,0.5,63,168.0
259,C4,57.5,0.5,95,168.0
260,F#2,57.5,0.5,63,168.0
261,G2,58.0,1.0,79,168.0
262,G#2,58.0,1.0,63,168.0
263,C#2,58.0,1.0,63,168.0
264,G3,59.0,1.0,87,168.0
265,E3,59.0,1.0,87,168.0
266,F#2,59.0,0.5,63,168.0
267,C#2,59.0,0.5,63,168.0
268,F#2,59.5,0.5,63,168.0
269,C3,60.0,0.5,79,168.0
270,F#2,60.0,1.0,63,168.0
271,C#2,60.0,1.0,63,168.0
272,C4,60.5,0.5,95,168.0
273,G3,61.0,0.5,87,168.0
274,E3,61.0,0.5,87,168.0
275,F#2,61.0,0.5,63,168.0
276,C#2,61.0,0.5,63,168.0
277,B3,61.5,0.5,95,168.0
278,F#2,61.5,0.5,63,168.0
279,G2,62.0,0.5,79,168.0
280,G#2,62.0,1.0,63,168.0
281,C#2,62.0,1.0,63,168.0
282,B-3,62.5,0.5,95,168.0
283,G3,63.0,1.0,87,168.0
284,E3,63.0,1.0,87,168.0
285,F#2,63.0,0.5,63,168.0
286,C#2,63.0,0.5,63,168.0
287,F#2,63.5,0.5,63,168.0
288,C3,64.0,1.0,79,168.0
289,F#2,64.0,1.0,63,168.0
290,C#2,64.0,1.0,63,168.0
291,E4,65.0,0.5,90,168.0
292,G3,65.0,0.5,90,168.0
293,E3,65.0,0.5,90,168.0
294,F#2,65.0,0.5,63,168.0
295,C#2,65.0,0.5,63,168.0
296,C4,65.5,0.5,95,168.0
297,F#2,65.5,0.5,63,168.0
298,G2,66.0,0.5,79,168.0
299,G#2,66.0,1.0,63,168.0
300,C#2,66.0,1.0,63,168.0
301,E4,66.5,0.5,95,168.0
302,G3,67.0,1.0,87,168.0
303,E3,67.0,1.0,87,168.0
304,F#2,67.0,0.5,63,168.0
305,C#2,67.0,0.5,63,168.0
306,F#2,67.5,0.5,63,168.0
307,G4,68.0,0.5,87,168.0
308,C3,68.0,0.5,87,168.0
309,F#2,68.0,1.0,63,168.0
310,C#2,68.0,1.0,63,168.0
311,C4,68.5,0.5,95,168.0
312,G3,69.0,0.5,87,168.0
313,E3,69.0,0.5,87,168.0
314,F#2,69.0,0.5,63,168.0
315,C#2,69.0,0.5,63,168.0
316,G4,69.5,0.5,95,168.0
317,F#2,69.5,0.5,63,168.0
318,G2,70.0,0.5,79,168.0
319,G#2,70.0,1.0,63,168.0
320,C#2,70.0,1.0,63,168.0
321,E4,70.5,0.5,95,168.0
322,E3,71.0,1.0,79,168.0
323,F#2,71.0,0.5,63,168.0
324,C#2,71.0,0.5,63,168.0
325,F#2,71.5,0.5,63,168.0
326,G3,72.0,1.0,87,168.0
327,E2,72.0,1.0,87,168.0
328,F#2,72.0,1.0,63,168.0
329,C#2,72.0,1.0,63,168.0
330,G#3,73.0,0.5,74,168.0
331,D3,73.0,0.5,74,168.0
332,F#2,73.0,0.5,63,168.0
333,C#2,73.0,0.5,63,168.0
334,E4,73.5,0.5,95,168.0
335,F#2,73.5,0.5,63,168.0
336,B2,74.0,1.0,79,168.0
337,G#2,74.0,1.0,63,168.0
338,C#2,74.0,1.0,63,168.0
339,G#3,75.0,0.5,87,168.0
340,D3,75.0,0.5,87,168.0
341,F#2,75.0,0.5,63,168.0
342,C#2,75.0,0.5,63,168.0
343,D4,75.5,0.5,95,168.0
344,F#2,75.5,0.5,63,168.0
345,E2,76.0,0.5,79,168.0
346,F#2,76.0,1.0,63,168.0
347,C#2,76.0,1.0,63,168.0
348,G#3,76.5,0.5,95,168.0
349,D3,77.0,0.5,79,168.0
350,F#2,77.0,0.5,63,168.0
351,C#2,77.0,0.5,63,168.0
352,D4,77.5,0.5,95,168.0
353,F#2,77.5,0.5,63,168.0
354,B2,78.0,1.0,79,168.0
355,G#2,78.0,1.0,63,168.0
356,C#2,78.0,1.0,63,168.0
357,E3,79.0,1.0,79,168.0
358,F#2,79.0,0.5,63,168.0
359,C#2,79.0,0.5,63,168.0
360,F#2,79.5,0.5,63,168.0
361,A3,80.0,1.0,79,168.0
362,A2,80.0,2.0,63,168.0
363,F#2,80.0,1.0,63,168.0
364,C#2,80.0,1.0,63,168.0
365,D4,81.0,0.5,95,168.0
366,C4,81.0,0.5,95,168.0
367,F#2,81.0,0.5,63,168.0
368,C#2,81.0,0.5,63,168.0
369,A3,81.5,0.5,79,168.0
370,F#2,81.5,0.5,63,168.0
371,C3,82.0,2.0,79,168.0
372,D4,82.0,1.0,95,168.0
373,C4,82.0,1.0,95,168.0
374,F#2,82.0,1.0,63,168.0
375,C#2,82.0,1.0,63,168.0
376,F4,83.0,0.5,95,168.0
377,D4,83.0,0.5,95,168.0
378,F#2,83.0,0.5,63,168.0
379,C#2,83.0,0.5,63,168.0
380,C4,83.5,0.5,95,168.0
381,F#2,83.5,0.5,63,168.0
382,D3,84.0,2.0,79,168.0
383,F4,84.0,1.0,95,168.0
384,D4,84.0,1.0,95,168.0
385,F#2,84.0,1.0,63,168.0
386,C#2,84.0,1.0,63,168.0
387,D4,85.0,0.5,95,168.0
388,C4,85.0,0.5,95,168.0
389,F#2,85.0,0.5,63,168.0
390,C#2,85.0,0.5,63,168.0
391,D4,85.5,0.5,95,168.0
392,F#2,85.5,0.5,63,168.0
393,F3,86.0,2.0,79,168.0
394,A4,86.0,1.0,95,168.0
395,F4,86.0,1.0,95,168.0
396,F#2,86.0,1.0,63,168.0
397,C#2,86.0,1.0,63,168.0
398,C5,87.0,1.0,95,168.0
399,A4,87.0,1.0,95,168.0
400,F#2,87.0,0.5,63,168.0
401,C#2,87.0,0.5,63,168.0
402,F#2,87.5,0.5,63,168.0
403,C3,88.0,2.0,63,168.0
404,B4,88.0,1.0,95,168.0
405,G4,88.0,1.0,95,168.0
406,F#2,88.0,1.0,63,168.0
407,C#2,88.0,1.0,63,168.0
408,F#2,89.0,0.5,63,168.0
409,C#2,89.0,0.5,63,168.0
410,F#2,89.5,0.5,63,168.0
411,G2,90.0,2.0,95,168.0
412,G4,90.0,1.0,95,168.0
413,E4,90.0,1.0,95,168.0
414,F#2,90.0,1.0,63,168.0
415,C#2,90.0,1.0,63,168.0
416,F#2,91.0,0.5,63,168.0
417,C#2,91.0,0.5,63,168.0
418,F#2,91.5,0.5,63,168.0
419,E-4,92.0,333/1000,95,168.0
420,C3,92.0,2.0,95,168.0
421,F#2,92.0,1.0,63,168.0
422,C#2,92.0,1.0,63,168.0
423,D4,92.333,333/1000,95,168.0
424,C4,92.667,333/1000,95,168.0
425,A3,93.0,0.5,79,168.0
426,F#2,93.0,0.5,63,168.0
427,C#2,93.0,0.5,63,168.0
428,C4,93.5,0.5,95,168.0
429,F#2,93.5,0.5,63,168.0
430,G2,94.0,2.0,95,168.0
431,F#2,94.0,1.0,63,168.0
432,C#2,94.0,1.0,63,168.0
433,F#2,95.0,0.5,63,168.0
434,C#2,95.0,0.5,63,168.0
435,F#2,95.5,0.5,63,168.0
436,F3,96.0,2.0,95,168.0
437,F#2,96.0,1.0,63,168.0
438,C#2,96.0,1.0,63,168.0
439,C4,97.0,0.5,95,168.0
440,F#2,97.0,0.5,63,168.0
441,C#2,97.0,0.5,63,168.0
442,C4,97.5,0.5,95,168.0
443,F#2,97.5,0.5,63,168.0
444,C4,98.0,1.0,95,168.0
445,C3,98.0,2.0,95,168.0
446,F#2,98.0,1.0,63,168.0
447,C#2,98.0,1.0,63,168.0
448,C4,99.0,1.0,95,168.0
449,F#2,99.0,0.5,63,168.0
450,C#2,99.0,0.5,63,168.0
451,F#2,99.5,0.5,63,168.0
452,C5,100.0,1.0,95,168.0
453,F3,100.0,2.0,95,168.0
454,F#2,100.0,1.0,63,168.0
455,C#2,100.0,1.0,63,168.0
456,F#2,101.0,0.5,63,168.0
457,C#2,101.0,0.5,63,168.0
458,C5,101.5,0.5,95,168.0
459,F#2,101.5,0.5,63,168.0
460,C5,102.0,0.5,95,168.0
461,C3,102.0,2.0,95,168.0
462,F#2,102.0,1.0,63,168.0
463,C#2,102.0,1.0,63,168.0
464,C5,102.5,0.5,95,168.0
465,F#2,103.0,0.5,63,168.0
466,C#2,103.0,0.5,63,168.0
467,F#2,103.5,0.5,63,168.0
468,C5,104.0,333/1000,95,168.0
469,C3,104.0,2.0,95,168.0
470,F#2,104.0,1.0,63,168.0
471,C#2,104.0,1.0,63,168.0
472,B4,104.333,333/1000,70,168.0
473,B-4,104.667,333/1000,70,168.0
474,A4,105.0,1.0,70,168.0
475,F#2,105.0,0.5,63,168.0
476,C#2,105.0,0.5,63,168.0
477,F#2,105.5,0.5,63,168.0
478,G4,106.0,1.0,95,168.0
479,G2,106.0,2.0,95,168.0
480,F#2,106.0,1.0,63,168.0
481,C#2,106.0,1.0,63,168.0
482,A4,107.0,1.0,95,168.0
483,F#2,107.0,0.5,63,168.0
484,C#2,107.0,0.5,63,168.0
485,F#2,107.5,0.5,63,168.0
486,E-4,108.0,333/1000,95,168.0
487,E3,108.0,2.0,95,168.0
488,F#2,108.0,1.0,63,168.0
489,C#2,108.0,1.0,63,168.0
490,D4,108.333,333/1000,70,168.0
491,C4,108.667,333/1000,70,168.0
492,A3,109.0,1.0,79,168.0
493,F#2,109.0,0.5,63,168.0
494,C#2,109.0,0.5,63,168.0
495,F#2,109.5,0.5,63,168.0
496,C4,110.0,1.0,95,168.0
497,E2,110.0,2.0,95,168.0
498,F#2,110.0,1.0,63,168.0
499,C#2,110.0,1.0,63,168.0
500,D4,111.0,1.0,95,168.0
501,F#2,111.0,0.5,63,168.0
502,C#2,111.0,0.5,63,168.0
503,F#2,111.5,0.5,63,168.0
504,C3,112.0,1.0,79,168.0
505,F#2,112.0,1.0,63,168.0
506,C#2,112.0,1.0,63,168.0
507,E4,113.0,0.5,74,168.0
508,G3,113.0,0.5,74,168.0
509,E3,113.0,0.5,74,168.0
510,F#2,113.0,0.5,63,168.0
511,C#2,113.0,0.5,63,168.0
512,C4,113.5,0.5,95,168.0
513,F#2,113.5,0.5,63,168.0
514,G2,114.0,0.5,79,168.0
515,G#2,114.0,1.0,63,168.0
516,C#2,114.0,1.0,63,168.0
517,E4,114.5,0.5,95,168.0
518,G3,115.0,1.0,63,168.0
519,E3,115.0,1.0,63,168.0
520,F#2,115.0,0.5,63,168.0
521,C#2,115.0,0.5,63,168.0
522,F#2,115.5,0.5,63,168.0
523,G4,116.0,0.5,87,168.0
524,C3,116.0,0.5,87,168.0
525,F#2,116.0,1.0,63,168.0
526,C#2,116.0,1.0,63,168.0
527,C4,116.5,0.5,95,168.0
528,G3,117.0,0.5,63,168.0
529,E3,117.0,0.5,63,168.0
530,F#2,117.0,0.5,63,168.0
531,C#2,117.0,0.5,63,168.0
532,G4,117.5,0.5,95,168.0
533,F#2,117.5,0.5,63,168.0
534,G2,118.0,0.5,79,168.0
535,G#2,118.0,1.0,63,168.0
536,C#2,118.0,1.0,63,168.0
537,E4,118.5,0.5,95,168.0
538,E3,119.0,1.0,79,168.0
539,F#2,119.0,0.5,63,168.0
540,C#2,119.0,0.5,63,168.0
541,F#2,119.5,0.5,63,168.0
542,E2,120.0,1.0,79,168.0
543,F#2,120.0,1.0,63,168.0
544,C#2,120.0,1.0,63,168.0
545,E4,121.0,1.0,67,168.0
546,E4,121.0,1.0,67,168.0
547,D4,121.0,1.0,67,168.0
548,G#3,121.0,1.0,67,168.0
549,F#2,121.0,0.5,63,168.0
550,C#2,121.0,0.5,63,168.0
551,F#2,121.5,0.5,63,168.0
552,B2,122.0,0.5,79,168.0
553,G#2,122.0,1.0,63,168.0
554,C#2,122.0,1.0,63,168.0
555,F4,122.5,0.5,95,168.0
556,E4,123.0,1.0,74,168.0
557,D4,123.0,1.0,74,168.0
558,G#3,123.0,1.0,74,168.0
559,F#2,123.0,0.5,63,168.0
560,C#2,123.0,0.5,63,168.0
561,F#2,123.5,0.5,63,168.0
562,D4,124.0,0.5,87,168.0
563,E2,124.0,0.5,87,168.0
564,F#2,124.0,1.0,63,168.0
565,C#2,124.0,1.0,63,168.0
566,G#3,124.5,0.5,95,168.0
567,G#3,125.0,0.5,63,168.0
568,D3,125.0,0.5,63,168.0
569,F#2,125.0,0.5,63,168.0
570,C#2,125.0,0.5,63,168.0
571,D4,125.5,0.5,95,168.0
572,F#2,125.5,0.5,63,168.0
573,B2,126.0,1.0,79,168.0
574,G#2,126.0,1.0,63,168.0
575,C#2,126.0,1.0,63,168.0
576,D3,127.0,1.0,79,168.0
577,F#2,127.0,0.5,63,168.0
578,C#2,127.0,0.5,63,168.0
579,F#2,127.5,0.5,63,168.0
580,A2,128.0,1.0,79,168.0
581,F#2,128.0,1.0,63,168.0
582,C#2,128.0,1.0,63,168.0
583,C4,129.0,0.5,74,168.0
584,A3,129.0,0.5,74,168.0
585,E3,129.0,0.5,74,168.0
586,F#2,129.0,0.5,63,168.0
587,C#2,129.0,0.5,63,168.0
588,A3,129.5,0.5,95,168.0
589,F#2,129.5,0.5,63,168.0
590,E2,130.0,0.5,79,168.0
591,G#2,130.0,1.0,63,168.0
592,C#2,130.0,1.0,63,168.0
593,C4,130.5,0.5,95,168.0
594,E3,131.0,1.0,79,168.0
595,F#2,131.0,0.5,63,168.0
596,C#2,131.0,0.5,63,168.0
597,F#2,131.5,0.5,63,168.0
598,A4,132.0,1.0,87,168.0
599,A2,132.0,1.0,87,168.0
600,F#2,132.0,1.0,63,168.0
601,C#2,132.0,1.0,63,168.0
602,G4,133.0,1.0,74,168.0
603,C#4,133.0,1.0,74,168.0
604,A3,133.0,1.0,74,168.0
605,F#2,133.0,0.5,63,168.0
606,C#2,133.0,0.5,63,168.0
607,F#2,133.5,0.5,63,168.0
608,E4,134.0,1.0,87,168.0
609,E2,134.0,1.0,87,168.0
610,G#2,134.0,1.0,63,168.0
611,C#2,134.0,1.0,63,168.0
612,C#4,135.0,1.0,63,168.0
613,A3,135.0,1.0,63,168.0
614,F#2,135.0,0.5,63,168.0
615,C#2,135.0,0.5,63,168.0
616,F#2,135.5,0.5,63,168.0
617,B-3,136.0,1.0,79,168.0
618,C3,136.0,1.0,79,168.0
619,F#2,136.0,1.0,63,168.0
620,C#2,136.0,1.0,63,168.0
621,E3,137.0,1.0,79,168.0
622,F#2,137.0,0.5,63,168.0
623,C#2,137.0,0.5,63,168.0
624,F#2,137.5,0.5,63,168.0
625,G2,138.0,1.0,79,168.0
626,F#2,138.0,1.0,63,168.0
627,C#2,138.0,1.0,63,168.0
628,E3,139.0,1.0,79,168.0
629,F#2,139.0,0.5,63,168.0
630,C#2,139.0,0.5,63,168.0
631,F#2,139.5,0.5,63,168.0
632,C3,140.0,0.5,79,168.0
633,F#2,140.0,1.0,63,168.0
634,C#2,140.0,1.0,63,168.0
635,C4,140.5,0.5,95,168.0
636,B-3,141.0,1.0,63,168.0
637,E3,141.0,1.0,63,168.0
638,F#2,141.0,0.5,63,168.0
639,C#2,141.0,0.5,63,168.0
640,F#2,141.5,0.5,63,168.0
641,E4,142.0,0.5,63,168.0
642,C4,142.0,0.5,63,168.0
643,B-3,142.0,0.5,63,168.0
644,G2,142.0,0.5,63,168.0
645,G#2,142.0,1.0,63,168.0
646,C#2,142.0,1.0,63,168.0
647,C4,142.5,0.5,95,168.0
648,B-3,143.0,0.5,63,168.0
649,E3,143.0,0.5,63,168.0
650,F#2,143.0,0.5,63,168.0
651,C#2,143.0,0.5,63,168.0
652,A3,143.5,0.5,95,168.0
653,F#2,143.5,0.5,63,168.0
654,F2,144.0,1.0,79,168.0
655,F#2,144.0,1.0,63,168.0
656,C#2,144.0,1.0,63,168.0
657,G#3,145.0,1.0,87,168.0
658,F3,145.0,1.0,87,168.0
659,F#2,145.0,0.5,63,168.0
660,C#2,145.0,0.5,63,168.0
661,F#2,145.5,0.5,63,168.0
662,A3,146.0,0.5,87,168.0
663,C3,146.0,0.5,87,168.0
664,G#2,146.0,1.0,63,168.0
665,C#2,146.0,1.0,63,168.0
666,B3,146.5,0.5,95,168.0
667,F3,147.0,0.5,79,168.0
668,F#2,147.0,0.5,63,168.0
669,C#2,147.0,0.5,63,168.0
670,C4,147.5,0.5,95,168.0
671,F#2,147.5,0.5,63,168.0
672,F2,148.0,1.0,79,168.0
673,F#2,148.0,1.0,63,168.0
674,C#2,148.0,1.0,63,168.0
675,B3,149.0,1.0,74,168.0
676,A3,149.0,1.0,74,168.0
677,F3,149.0,1.0,74,168.0
678,F#2,149.0,0.5,63,168.0
679,C#2,149.0,0.5,63,168.0
680,F#2,149.5,0.5,63,168.0
681,C4,150.0,0.5,87,168.0
682,C3,150.0,0.5,87,168.0
683,G#2,150.0,1.0,63,168.0
684,C#2,150.0,1.0,63,168.0
685,A3,150.5,0.5,95,168.0
686,F3,151.0,0.5,79,168.0
687,F#2,151.0,0.5,63,168.0
688,C#2,151.0,0.5,63,168.0
689,G3,151.5,0.5,95,168.0
690,F#2,151.5,0.5,63,168.0
691,C3,152.0,1.0,79,168.0
692,F#2,152.0,1.0,63,168.0
693,C#2,152.0,1.0,63,168.0
694,G3,153.0,1.0,63,168.0
695,E3,153.0,1.0,63,168.0
696,F#2,153.0,0.5,63,168.0
697,C#2,153.0,0.5,63,168.0
698,F#2,153.5,0.5,63,168.0
699,G2,154.0,0.5,79,168.0
700,G#2,154.0,1.0,63,168.0
701,C#2,154.0,1.0,63,168.0
702,C4,154.5,0.5,95,168.0
703,E3,155.0,0.5,79,168.0
704,F#2,155.0,0.5,63,168.0
705,C#2,155.0,0.5,63,168.0
706,A3,155.5,0.5,95,168.0
707,F#2,155.5,0.5,63,168.0
708,A2,156.0,1.0,79,168.0
709,F#2,156.0,1.0,63,168.0
710,C#2,156.0,1.0,63,168.0
711,C4,157.0,1.0,74,168.0
712,A3,157.0,1.0,74,168.0
713,E3,157.0,1.0,74,168.0
714,F#2,157.0,0.5,63,168.0
715,C#2,157.0,0.5,63,168.0
716,F#2,157.5,0.5,63,168.0
717,E2,158.0,1.0,79,168.0
718,G#2,158.0,1.0,63,168.0
719,C#2,158.0,1.0,63,168.0
720,A3,159.0,1.0,63,168.0
721,E3,159.0,1.0,63,168.0
722,F#2,159.0,0.5,63,168.0
723,C#2,159.0,0.5,63,168.0
724,F#2,159.5,0.5,63,168.0
725,D3,160.0,1.0,79,168.0
726,F#2,160.0,1.0,63,168.0
727,C#2,160.0,1.0,63,168.0
728,E4,161.0,1.0,87,168.0
729,F#3,161.0,1.0,87,168.0
730,F#2,161.0,0.5,63,168.0
731,C#2,161.0,0.5,63,168.0
732,F#2,161.5,0.5,63,168.0
733,A2,162.0,0.5,79,168.0
734,G#2,162.0,1.0,63,168.0
735,C#2,162.0,1.0,63,168.0
736,E-4,162.5,0.5,95,168.0
737,F#3,163.0,1.0,79,168.0
738,F#2,163.0,0.5,63,168.0
739,C#2,163.0,0.5,63,168.0
740,F#2,163.5,0.5,63,168.0
741,D4,164.0,0.5,87,168.0
742,G2,164.0,0.5,87,168.0
743,F#2,164.0,1.0,63,168.0
744,C#2,164.0,1.0,63,168.0
745,C4,164.5,0.5,95,168.0
746,F3,165.0,0.5,79,168.0
747,F#2,165.0,0.5,63,168.0
748,C#2,165.0,0.5,63,168.0
749,A4,165.5,0.5,95,168.0
750,F#2,165.5,0.5,63,168.0
751,G2,166.0,0.5,79,168.0
752,G#2,166.0,1.0,63,168.0
753,C#2,166.0,1.0,63,168.0
754,E-4,166.5,0.5,95,168.0
755,F3,167.0,1.0,79,168.0
756,F#2,167.0,0.5,63,168.0
757,C#2,167.0,0.5,63,168.0
758,F#2,167.5,0.5,63,168.0
759,C4,168.0,0.5,63,168.0
760,G3,168.0,0.5,63,168.0
761,E3,168.0,0.5,63,168.0
762,C3,168.0,0.5,63,168.0
763,F#2,168.0,1.0,63,168.0
764,C#2,168.0,1.0,63,168.0
765,G3,168.5,0.5,95,168.0
766,E3,169.0,0.5,79,168.0
767,F#2,169.0,0.5,63,168.0
768,C#2,169.0,0.5,63,168.0
769,C4,169.5,0.5,95,168.0
770,F#2,169.5,0.5,63,168.0
771,G2,170.0,1.0,79,168.0
772,G#2,170.0,1.0,63,168.0
773,C#2,170.0,1.0,63,168.0
774,E3,171.0,1.0,79,168.0
775,F#2,171.0,0.5,63,168.0
776,C#2,171.0,0.5,63,168.0
777,F#2,171.5,0.5,63,168.0
778,C3,172.0,1.0,79,168.0
779,F#2,172.0,1.0,63,168.0
780,C#2,172.0,1.0,63,168.0
781,G2,173.0,1.0,79,168.0
782,F#2,173.0,0.5,63,168.0
783,C#2,173.0,0.5,63,168.0
784,F#2,173.5,0.5,63,168.0
785,A2,174.0,1.0,79,168.0
786,F#2,174.0,1.0,63,168.0
787,C#2,174.0,1.0,63,168.0
788,B2,175.0,1.0,79,168.0
789,F#2,175.0,0.5,63,168.0
790,C#2,175.0,0.5,63,168.0
791,F#2,175.5,0.5,63,168.0
792,C3,176.0,1.0,79,168.0
793,F#2,176.0,1.0,63,168.0
794,C#2,176.0,1.0,63,168.0
795,E4,177.0,0.5,90,168.0
796,G3,177.0,0.5,90,168.0
797,E3,177.0,0.5,90,168.0
798,F#2,177.0,0.5,63,168.0
799,C#2,177.0,0.5,63,168.0
800,C4,177.5,0.5,95,168.0
801,F#2,177.5,0.5,63,168.0
802,G2,178.0,0.5,79,168.0
803,G#2,178.0,1.0,63,168.0
804,C#2,178.0,1.0,63,168.0
805,E4,178.5,0.5,95,168.0
806,G3,179.0,1.0,87,168.0
807,E3,179.0,1.0,87,168.0
808,F#2,179.0,0.5,63,168.0
809,C#2,179.0,0.5,63,168.0
810,F#2,179.5,0.5,63,168.0
811,G4,180.0,0.5,87,168.0
812,C3,180.0,0.5,87,168.0
813,F#2,180.0,1.0,63,168.0
814,C#2,180.0,1.0,63,168.0
815,C4,180.5,0.5,95,168.0
816,G3,181.0,0.5,87,168.0
817,E3,181.0,0.5,87,168.0
818,F#2,181.0,0.5,63,168.0
819,C#2,181.0,0.5,63,168.0
820,G4,181.5,0.5,95,168.0
821,F#2,181.5,0.5,63,168.0
822,G2,182.0,0.5,79,168.0
823,G#2,182.0,1.0,63,168.0
824,C#2,182.0,1.0,63,168.0
825,E4,182.5,0.5,95,168.0
826,E3,183.0,1.0,79,168.0
827,F#2,183.0,0.5,63,168.0
828,C#2,183.0,0.5,63,168.0
829,F#2,183.5,0.5,63,168.0
830,G3,184.0,1.0,87,168.0
831,E2,184.0,1.0,87,168.0
832,F#2,184.0,1.0,63,168.0
833,C#2,184.0,1.0,63,168.0
834,G#3,185.0,0.5,74,168.0
835,D3,185.0,0.5,74,168.0
836,F#2,185.0,0.5,63,168.0
837,C#2,185.0,0.5,63,168.0
838,E4,185.5,0.5,95,168.0
839,F#2,185.5,0.5,63,168.0
840,B2,186.0,1.0,79,168.0
841,G#2,186.0,1.0,63,168.0
842,C#2,186.0,1.0,63,168.0
843,G#3,187.0,0.5,87,168.0
844,D3,187.0,0.5,87,168.0
845,F#2,187.0,0.5,63,168.0
846,C#2,187.0,0.5,63,168.0
847,D4,187.5,0.5,95,168.0
848,F#2,187.5,0.5,63,168.0
849,E2,188.0,0.5,79,168.0
850,F#2,188.0,1.0,63,168.0
851,C#2,188.0,1.0,63,168.0
852,G#3,188.5,0.5,95,168.0
853,D3,189.0,0.5,79,168.0
854,F#2,189.0,0.5,63,168.0
855,C#2,189.0,0.5,63,168.0
856,D4,189.5,0.5,95,168.0
857,F#2,189.5,0.5,63,168.0
858,B2,190.0,1.0,79,168.0
859,G#2,190.0,1.0,63,168.0
860,C#2,190.0,1.0,63,168.0
861,D3,191.0,1.0,79,168.0
862,F#2,191.0,0.5,63,168.0
863,C#2,191.0,0.5,63,168.0
864,F#2,191.5,0.5,63,168.0
865,A2,192.0,1.0,79,168.0
866,F#2,192.0,1.0,63,168.0
867,C#2,192.0,1.0,63,168.0
868,C4,193.0,0.5,90,168.0
869,A3,193.0,0.5,90,168.0
870,E3,193.0,0.5,90,168.0
871,F#2,193.0,0.5,63,168.0
872,C#2,193.0,0.5,63,168.0
873,A3,193.5,0.5,95,168.0
874,F#2,193.5,0.5,63,168.0
875,E2,194.0,0.5,79,168.0
876,G#2,194.0,1.0,63,168.0
877,C#2,194.0,1.0,63,168.0
878,C4,194.5,0.5,95,168.0
879,E3,195.0,1.0,79,168.0
880,F#2,195.0,0.5,63,168.0
881,C#2,195.0,0.5,63,168.0
882,F#2,195.5,0.5,63,168.0
883,D4,196.0,1.0,87,168.0
884,A2,196.0,1.0,87,168.0
885,F#2,196.0,1.0,63,168.0
886,C#2,196.0,1.0,63,168.0
887,E4,197.0,0.5,91,168.0
888,C4,197.0,0.5,91,168.0
889,A3,197.0,0.5,91,168.0
890,E3,197.0,0.5,91,168.0
891,F#2,197.0,0.5,63,168.0
892,C#2,197.0,0.5,63,168.0
893,D4,197.5,0.5,95,168.0
894,F#2,197.5,0.5,63,168.0
895,E2,198.0,0.5,79,168.0
896,G#2,198.0,1.0,63,168.0
897,C#2,198.0,1.0,63,168.0
898,C4,198.5,0.5,95,168.0
899,A3,199.0,0.5,87,168.0
900,E3,199.0,0.5,87,168.0
901,F#2,199.0,0.5,63,168.0
902,C#2,199.0,0.5,63,168.0
903,B-3,199.5,0.5,95,168.0
904,F#2,199.5,0.5,63,168.0
905,C3,200.0,1.0,79,168.0
906,F#2,200.0,1.0,63,168.0
907,C#2,200.0,1.0,63,168.0
908,B-3,201.0,1.0,87,168.0
909,E3,201.0,1.0,87,168.0
910,F#2,201.0,0.5,63,168.0
911,C#2,201.0,0.5,63,168.0
912,F#2,201.5,0.5,63,168.0
913,G2,202.0,1.0,79,168.0
914,G#2,202.0,1.0,63,168.0
915,C#2,202.0,1.0,63,168.0
916,B-3,203.0,1.0,87,168.0
917,E3,203.0,1.0,87,168.0
918,F#2,203.0,0.5,63,168.0
919,C#2,203.0,0.5,63,168.0
920,F#2,203.5,0.5,63,168.0
921,E4,204.0,1.0,90,168.0
922,C4,204.0,1.0,90,168.0
923,C3,204.0,1.0,90,168.0
924,F#2,204.0,1.0,63,168.0
925,C#2,204.0,1.0,63,168.0
926,B-3,205.0,0.5,87,168.0
927,E3,205.0,0.5,87,168.0
928,F#2,205.0,0.5,63,168.0
929,C#2,205.0,0.5,63,168.0
930,F#2,205.5,0.5,63,168.0
931,D4,205.5,0.5,95,168.0
932,B-3,205.5,0.5,95,168.0
933,G2,206.0,1.0,79,168.0
934,G#2,206.0,1.0,63,168.0
935,C#2,206.0,1.0,63,168.0
936,E3,207.0,1.0,79,168.0
937,F#2,207.0,0.5,63,168.0
938,C#2,207.0,0.5,63,168.0
939,F#2,207.5,0.5,63,168.0
940,A3,208.0,1.0,87,168.0
941,F2,208.0,1.0,87,168.0
942,F#2,208.0,1.0,63,168.0
943,C#2,208.0,1.0,63,168.0
944,G#3,209.0,1.0,87,168.0
945,F3,209.0,1.0,87,168.0
946,F#2,209.0,0.5,63,168.0
947,C#2,209.0,0.5,63,168.0
948,F#2,209.5,0.5,63,168.0
949,A3,210.0,0.5,87,168.0
950,C3,210.0,0.5,87,168.0
951,G#2,210.0,1.0,63,168.0
952,C#2,210.0,1.0,63,168.0
953,B3,210.5,0.5,95,168.0
954,F3,211.0,0.5,79,168.0
955,F#2,211.0,0.5,63,168.0
956,C#2,211.0,0.5,63,168.0
957,C4,211.5,0.5,95,168.0
958,F#2,211.5,0.5,63,168.0
959,F2,212.0,0.5,79,168.0
960,F#2,212.0,1.0,63,168.0
961,C#2,212.0,1.0,63,168.0
962,E4,212.5,0.5,95,168.0
963,A3,213.0,1.0,87,168.0
964,F3,213.0,1.0,87,168.0
965,F#2,213.0,0.5,63,168.0
966,C#2,213.0,0.5,63,168.0
967,F#2,213.5,0.5,63,168.0
968,C4,214.0,0.5,87,168.0
969,C3,214.0,0.5,87,168.0
970,G#2,214.0,1.0,63,168.0
971,C#2,214.0,1.0,63,168.0
972,A3,214.5,0.5,95,168.0
973,F3,215.0,0.5,79,168.0
974,F#2,215.0,0.5,63,168.0
975,C#2,215.0,0.5,63,168.0
976,G3,215.5,0.5,95,168.0
977,F#2,215.5,0.5,63,168.0
978,C3,216.0,1.0,79,168.0
979,F#2,216.0,1.0,63,168.0
980,C#2,216.0,1.0,63,168.0
981,G3,217.0,1.0,87,168.0
982,E3,217.0,1.0,87,168.0
983,F#2,217.0,0.5,63,168.0
984,C#2,217.0,0.5,63,168.0
985,F#2,217.5,0.5,63,168.0
986,G2,218.0,0.5,79,168.0
987,G#2,218.0,1.0,63,168.0
988,C#2,218.0,1.0,63,168.0
989,G#3,218.5,0.5,95,168.0
990,G#3,219.0,0.5,87,168.0
991,E3,219.0,0.5,87,168.0
992,F#2,219.0,0.5,63,168.0
993,C#2,219.0,0.5,63,168.0
994,A3,219.5,0.5,95,168.0
995,F#2,219.5,0.5,63,168.0
996,A2,220.0,0.5,79,168.0
997,F#2,220.0,1.0,63,168.0
998,C#2,220.0,1.0,63,168.0
999,C4,220.5,0.5,95,168.0
1000,A3,221.0,1.0,87,168.0
1001,E3,221.0,1.0,87,168.0
1002,F#2,221.0,0.5,63,168.0
1003,C#2,221.0,0.5,63,168.0
1004,F#2,221.5,0.5,63,168.0
1005,E2,222.0,1.0,79,168.0
1006,G#2,222.0,1.0,63,168.0
1007,C#2,222.0,1.0,63,168.0
1008,A3,223.0,1.0,87,168.0
1009,E3,223.0,1.0,87,168.0
1010,F#2,223.0,0.5,63,168.0
1011,C#2,223.0,0.5,63,168.0
1012,F#2,223.5,0.5,63,168.0
1013,D3,224.0,1.0,79,168.0
1014,F#2,224.0,1.0,63,168.0
1015,C#2,224.0,1.0,63,168.0
1016,E4,225.0,1.0,83,168.0
1017,D4,225.0,1.0,83,168.0
1018,C4,225.0,1.0,83,168.0
1019,F#3,225.0,1.0,83,168.0
1020,F#2,225.0,0.5,63,168.0
1021,C#2,225.0,0.5,63,168.0
1022,F#2,225.5,0.5,63,168.0
1023,A2,226.0,0.5,79,168.0
1024,G#2,226.0,1.0,63,168.0
1025,C#2,226.0,1.0,63,168.0
1026,E-4,226.5,0.5,95,168.0
1027,F#3,227.0,0.5,79,168.0
1028,F#2,227.0,0.5,63,168.0
1029,C#2,227.0,0.5,63,168.0
1030,D4,227.5,0.5,95,168.0
1031,F#2,227.5,0.5,63,168.0
1032,G2,228.0,0.5,79,168.0
1033,F#2,228.0,1.0,63,168.0
1034,C#2,228.0,1.0,63,168.0
1035,C4,228.5,0.5,95,168.0
1036,G#3,229.0,1.0,87,168.0
1037,F3,229.0,1.0,87,168.0
1038,F#2,229.0,0.5,63,168.0
1039,C#2,229.0,0.5,63,168.0
1040,F#2,229.5,0.5,63,168.0
1041,E-4,230.0,0.5,87,168.0
1042,G2,230.0,0.5,87,168.0
1043,G#2,230.0,1.0,63,168.0
1044,C#2,230.0,1.0,63,168.0
1045,D4,230.5,0.5,95,168.0
1046,C4,231.0,1.0,90,168.0
1047,G3,231.0,1.0,90,168.0
1048,F3,231.0,1.0,90,168.0
1049,F#2,231.0,0.5,63,168.0
1050,C#2,231.0,0.5,63,168.0
1051,F#2,231.5,0.5,63,168.0
1052,C4,232.0,1.0,87,168.0
1053,C3,232.0,1.0,87,168.0
1054,F#2,232.0,1.0,63,168.0
1055,C#2,232.0,1.0,63,168.0
1056,E3,233.0,1.0,79,168.0
1057,F#2,233.0,0.5,63,168.0
1058,C#2,233.0,0.5,63,168.0
1059,F#2,233.5,0.5,63,168.0
1060,G2,234.0,1.0,79,168.0
1061,G#2,234.0,1.0,63,168.0
1062,C#2,234.0,1.0,63,168.0
1063,E3,235.0,1.0,79,168.0
1064,F#2,235.0,0.5,63,168.0
1065,C#2,235.0,0.5,63,168.0
1066,F#2,235.5,0.5,63,168.0
1067,C3,236.0,1.0,79,168.0
1068,F#2,236.0,1.0,63,168.0
1069,C#2,236.0,1.0,63,168.0
1070,E3,237.0,1.0,79,168.0
1071,F#2,237.0,0.5,63,168.0
1072,C#2,237.0,0.5,63,168.0
1073,F#2,237.5,0.5,63,168.0
1074,G2,238.0,1.0,79,168.0
1075,G#2,238.0,1.0,63,168.0
1076,C#2,238.0,1.0,63,168.0
1077,E3,239.0,1.0,79,168.0
1078,F#2,239.0,0.5,63,168.0
1079,C#2,239.0,0.5,63,168.0
1080,F#2,239.5,0.5,63,168.0
1081,C3,240.0,1.0,79,168.0
1082,F#2,240.0,1.0,63,168.0
1083,C#2,240.0,1.0,63,168.0
1084,C5,241.0,1.0,74,168.0
1085,E4,241.0,1.0,74,168.0
1086,C4,241.0,1.0,74,168.0
1087,F#2,241.0,0.5,63,168.0
1088,C#2,241.0,0.5,63,168.0
1089,F#2,241.5,0.5,63,168.0
1090,C3,242.0,0.5,79,168.0
1091,G#2,242.0,1.0,63,168.0
1092,C#2,242.0,1.0,63,168.0
1093,A4,242.5,0.5,95,168.0
1094,C4,243.0,1.0,79,168.0
1095,F#2,243.0,0.5,63,168.0
1096,C#2,243.0,0.5,63,168.0
1097,F#2,243.5,0.5,63,168.0
1098,B4,244.0,0.5,87,168.0
1099,C3,244.0,0.5,87,168.0
1100,F#2,244.0,1.0,63,168.0
1101,C#2,244.0,1.0,63,168.0
1102,A4,244.5,0.5,95,168.0
1103,E4,245.0,0.5,63,168.0
1104,C4,245.0,0.5,63,168.0
1105,F#2,245.0,0.5,63,168.0
1106,C#2,245.0,0.5,63,168.0
1107,C5,245.5,0.5,95,168.0
1108,F#2,245.5,0.5,63,168.0
1109,C3,246.0,0.5,79,168.0
1110,G#2,246.0,1.0,63,168.0
1111,C#2,246.0,1.0,63,168.0
1112,A4,246.5,0.5,95,168.0
1113,C4,247.0,1.0,79,168.0
1114,F#2,247.0,0.5,63,168.0
1115,C#2,247.0,0.5,63,168.0
1116,F#2,247.5,0.5,63,168.0
1117,C5,248.0,0.5,87,168.0
1118,E2,248.0,0.5,87,168.0
1119,F#2,248.0,1.0,63,168.0
1120,C#2,248.0,1.0,63,168.0
1121,E4,248.5,0.5,95,168.0
1122,D4,249.0,0.5,63,168.0
1123,G#3,249.0,0.5,63,168.0
1124,F#2,249.0,0.5,63,168.0
1125,C#2,249.0,0.5,63,168.0
1126,B4,249.5,0.5,95,168.0
1127,F#2,249.5,0.5,63,168.0
1128,B2,250.0,1.0,79,168.0
1129,G#2,250.0,1.0,63,168.0
1130,C#2,250.0,1.0,63,168.0
1131,G#3,251.0,1.0,79,168.0
1132,F#2,251.0,0.5,63,168.0
1133,C#2,251.0,0.5,63,168.0
1134,F#2,251.5,0.5,63,168.0
1135,A4,252.0,1.0,87,168.0
1136,E2,252.0,1.0,87,168.0
1137,F#2,252.0,1.0,63,168.0
1138,C#2,252.0,1.0,63,168.0
1139,D4,253.0,0.5,63,168.0
1140,G#3,253.0,0.5,63,168.0
1141,F#2,253.0,0.5,63,168.0
1142,C#2,253.0,0.5,63,168.0
1143,G#4,253.5,0.5,95,168.0
1144,F#2,253.5,0.5,63,168.0
1145,B2,254.0,1.0,79,168.0
1146,G#2,254.0,1.0,63,168.0
1147,C#2,254.0,1.0,63,168.0
1148,G#3,255.0,1.0,79,168.0
1149,F#2,255.0,0.5,63,168.0
1150,C#2,255.0,0.5,63,168.0
1151,F#2,255.5,0.5,63,168.0
1152,A2,256.0,1.0,79,168.0
1153,F#2,256.0,1.0,63,168.0
1154,C#2,256.0,1.0,63,168.0
1155,A4,257.0,1.0,74,168.0
1156,E-4,257.0,1.0,74,168.0
1157,A3,257.0,1.0,74,168.0
1158,F#2,257.0,0.5,63,168.0
1159,C#2,257.0,0.5,63,168.0
1160,F#2,257.5,0.5,63,168.0
1161,C5,258.0,0.5,87,168.0
1162,E2,258.0,0.5,87,168.0
1163,G#2,258.0,1.0,63,168.0
1164,C#2,258.0,1.0,63,168.0
1165,A4,258.5,0.5,95,168.0
1166,E4,258.5,0.5,95,168.0
1167,A3,259.0,0.5,79,168.0
1168,F#2,259.0,0.5,63,168.0
1169,C#2,259.0,0.5,63,168.0
1170,G4,259.5,0.5,95,168.0
1171,F#2,259.5,0.5,63,168.0
1172,A2,260.0,0.5,79,168.0
1173,F#2,260.0,1.0,63,168.0
1174,C#2,260.0,1.0,63,168.0
1175,E4,260.5,0.5,95,168.0
1176,A3,261.0,0.5,79,168.0
1177,F#2,261.0,0.5,63,168.0
1178,C#2,261.0,0.5,63,168.0
1179,E-4,261.5,0.5,95,168.0
1180,F#2,261.5,0.5,63,168.0
1181,D4,262.0,0.5,87,168.0
1182,E2,262.0,0.5,87,168.0
1183,G#2,262.0,1.0,63,168.0
1184,C#2,262.0,1.0,63,168.0
1185,C4,262.5,0.5,95,168.0
1186,A3,263.0,1.0,79,168.0
1187,F#2,263.0,0.5,63,168.0
1188,C#2,263.0,0.5,63,168.0
1189,F#2,263.5,0.5,63,168.0
1190,B-3,264.0,1.0,87,168.0
1191,C3,264.0,1.0,87,168.0
1192,F#2,264.0,1.0,63,168.0
1193,C#2,264.0,1.0,63,168.0
1194,E3,265.0,1.0,79,168.0
1195,F#2,265.0,0.5,63,168.0
1196,C#2,265.0,0.5,63,168.0
1197,F#2,265.5,0.5,63,168.0
1198,G2,266.0,1.0,79,168.0
1199,G#2,266.0,1.0,63,168.0
1200,C#2,266.0,1.0,63,168.0
1201,E3,267.0,0.5,79,168.0
1202,F#2,267.0,0.5,63,168.0
1203,C#2,267.0,0.5,63,168.0
1204,E4,267.5,0.5,95,168.0
1205,F#2,267.5,0.5,63,168.0
1206,C3,268.0,0.5,79,168.0
1207,F#2,268.0,1.0,63,168.0
1208,C#2,268.0,1.0,63,168.0
1209,E-4,268.5,0.5,95,168.0
1210,E3,269.0,0.5,79,168.0
1211,F#2,269.0,0.5,63,168.0
1212,C#2,269.0,0.5,63,168.0
1213,D4,269.5,0.5,95,168.0
1214,F#2,269.5,0.5,63,168.0
1215,G2,270.0,0.5,79,168.0
1216,G#2,270.0,1.0,63,168.0
1217,C#2,270.0,1.0,63,168.0
1218,C4,270.5,0.5,95,168.0
1219,E3,271.0,1.0,79,168.0
1220,F#2,271.0,0.5,63,168.0
1221,C#2,271.0,0.5,63,168.0
1222,F#2,271.5,0.5,63,168.0
1223,A3,272.0,1.0,87,168.0
1224,F2,272.0,1.0,87,168.0
1225,F#2,272.0,1.0,63,168.0
1226,C#2,272.0,1.0,63,168.0
1227,G#3,273.0,1.0,87,168.0
1228,F3,273.0,1.0,87,168.0
1229,F#2,273.0,0.5,63,168.0
1230,C#2,273.0,0.5,63,168.0
1231,F#2,273.5,0.5,63,168.0
1232,A3,274.0,0.5,87,168.0
1233,C3,274.0,0.5,87,168.0
1234,G#2,274.0,1.0,63,168.0
1235,C#2,274.0,1.0,63,168.0
1236,B3,274.5,0.5,95,168.0
1237,F3,275.0,0.5,79,168.0
1238,F#2,275.0,0.5,63,168.0
1239,C#2,275.0,0.5,63,168.0
1240,C4,275.5,0.5,95,168.0
1241,F#2,275.5,0.5,63,168.0
1242,F2,276.0,0.5,79,168.0
1243,F#2,276.0,1.0,63,168.0
1244,C#2,276.0,1.0,63,168.0
1245,E4,276.5,0.5,95,168.0
1246,A3,277.0,1.0,87,168.0
1247,F3,277.0,1.0,87,168.0
1248,F#2,277.0,0.5,63,168.0
1249,C#2,277.0,0.5,63,168.0
1250,F#2,277.5,0.5,63,168.0
1251,C4,278.0,0.5,87,168.0
1252,C3,278.0,0.5,87,168.0
1253,G#2,278.0,1.0,63,168.0
1254,C#2,278.0,1.0,63,168.0
1255,A3,278.5,0.5,95,168.0
1256,F3,279.0,0.5,79,168.0
1257,F#2,279.0,0.5,63,168.0
1258,C#2,279.0,0.5,63,168.0
1259,G3,279.5,0.5,95,168.0
1260,F#2,279.5,0.5,63,168.0
1261,C3,280.0,1.0,79,168.0
1262,F#2,280.0,1.0,63,168.0
1263,C#2,280.0,1.0,63,168.0
1264,G3,281.0,1.0,87,168.0
1265,E3,281.0,1.0,87,168.0
1266,F#2,281.0,0.5,63,168.0
1267,C#2,281.0,0.5,63,168.0
1268,F#2,281.5,0.5,63,168.0
1269,G2,282.0,0.5,79,168.0
1270,G#2,282.0,1.0,63,168.0
1271,C#2,282.0,1.0,63,168.0
1272,G#3,282.5,0.5,95,168.0
1273,G#3,283.0,0.5,87,168.0
1274,E3,283.0,0.5,87,168.0
1275,F#2,283.0,0.5,63,168.0
1276,C#2,283.0,0.5,63,168.0
1277,A3,283.5,0.5,95,168.0
1278,F#2,283.5,0.5,63,168.0
1279,A2,284.0,0.5,79,168.0
1280,F#2,284.0,1.0,63,168.0
1281,C#2,284.0,1.0,63,168.0
1282,C4,284.5,0.5,95,168.0
1283,A3,285.0,1.0,87,168.0
1284,E3,285.0,1.0,87,168.0
1285,F#2,285.0,0.5,63,168.0
1286,C#2,285.0,0.5,63,168.0
1287,F#2,285.5,0.5,63,168.0
1288,E2,286.0,1.0,79,168.0
1289,G#2,286.0,1.0,63,168.0
1290,C#2,286.0,1.0,63,168.0
1291,A3,287.0,1.0,87,168.0
1292,E3,287.0,1.0,87,168.0
1293,F#2,287.0,0.5,63,168.0
1294,C#2,287.0,0.5,63,168.0
1295,F#2,287.5,0.5,63,168.0
1296,D3,288.0,1.0,79,168.0
1297,F#2,288.0,1.0,63,168.0
1298,C#2,288.0,1.0,63,168.0
1299,E4,289.0,1.0,83,168.0
1300,D4,289.0,1.0,83,168.0
1301,C4,289.0,1.0,83,168.0
1302,F#3,289.0,1.0,83,168.0
1303,F#2,289.0,0.5,63,168.0
1304,C#2,289.0,0.5,63,168.0
1305,F#2,289.5,0.5,63,168.0
1306,A2,290.0,0.5,79,168.0
1307,G#2,290.0,1.0,63,168.0
1308,C#2,290.0,1.0,63,168.0
1309,E-4,290.5,0.5,95,168.0
1310,F#3,291.0,0.5,79,168.0
1311,F#2,291.0,0.5,63,168.0
1312,C#2,291.0,0.5,63,168.0
1313,D4,291.5,0.5,95,168.0
1314,F#2,291.5,0.5,63,168.0
1315,G2,292.0,0.5,79,168.0
1316,F#2,292.0,1.0,63,168.0
1317,C#2,292.0,1.0,63,168.0
1318,C4,292.5,0.5,95,168.0
1319,G#3,293.0,1.0,87,168.0
1320,F3,293.0,1.0,87,168.0
1321,F#2,293.0,0.5,63,168.0
1322,C#2,293.0,0.5,63,168.0
1323,F#2,293.5,0.5,63,168.0
1324,E-4,294.0,0.5,87,168.0
1325,G2,294.0,0.5,87,168.0
1326,G#2,294.0,1.0,63,168.0
1327,C#2,294.0,1.0,63,168.0
1328,D4,294.5,0.5,95,168.0
1329,C4,295.0,1.0,90,168.0
1330,G3,295.0,1.0,90,168.0
1331,F3,295.0,1.0,90,168.0
1332,F#2,295.0,0.5,63,168.0
1333,C#2,295.0,0.5,63,168.0
1334,F#2,295.5,0.5,63,168.0
1335,C4,296.0,1.0,87,168.0
1336,C3,296.0,1.0,87,168.0
1337,F#2,296.0,1.0,63,168.0
1338,C#2,296.0,1.0,63,168.0
1339,E3,297.0,1.0,79,168.0
1340,F#2,297.0,0.5,63,168.0
1341,C#2,297.0,0.5,63,168.0
1342,F#2,297.5,0.5,63,168.0
1343,C3,298.0,1.0,79,168.0
1344,F#2,298.0,1.0,63,168.0
1345,C#2,298.0,1.0,63,168.0
1346,B-2,299.0,1.0,79,168.0
1347,F#2,299.0,0.5,63,168.0
1348,C#2,299.0,0.5,63,168.0
1349,F#2,299.5,0.5,63,168.0
1350,A2,300.0,0.5,79,168.0
1351,F#2,300.0,1.0,63,168.0
1352,C#2,300.0,1.0,63,168.0
1353,A4,300.5,0.5,95,168.0
1354,C#4,300.5,0.5,95,168.0
1355,A3,301.0,0.5,63,168.0
1356,E3,301.0,0.5,63,168.0
1357,F#2,301.0,0.5,63,168.0
1358,C#2,301.0,0.5,63,168.0
1359,F#2,301.5,0.5,63,168.0
1360,G4,301.5,0.5,95,168.0
1361,C#4,301.5,0.5,95,168.0
1362,E2,302.0,1.0,79,168.0
1363,F#2,302.0,1.0,63,168.0
1364,C#2,302.0,1.0,63,168.0
1365,E3,303.0,1.0,79,168.0
1366,F#2,303.0,0.5,63,168.0
1367,C#2,303.0,0.5,63,168.0
1368,F#2,303.5,0.5,63,168.0
1369,D3,304.0,1.0,79,168.0
1370,F#2,304.0,1.0,63,168.0
1371,C#2,304.0,1.0,63,168.0
1372,E4,305.0,1.0,67,168.0
1373,D4,305.0,1.0,67,168.0
1374,C4,305.0,1.0,67,168.0
1375,F#3,305.0,1.0,67,168.0
1376,F#2,305.0,0.5,63,168.0
1377,C#2,305.0,0.5,63,168.0
1378,F#2,305.5,0.5,63,168.0
1379,A2,306.0,0.5,79,168.0
1380,G#2,306.0,1.0,63,168.0
1381,C#2,306.0,1.0,63,168.0
1382,E-4,306.5,0.5,95,168.0
1383,C4,307.0,1.0,63,168.0
1384,F#3,307.0,1.0,63,168.0
1385,F#2,307.0,0.5,63,168.0
1386,C#2,307.0,0.5,63,168.0
1387,F#2,307.5,0.5,63,168.0
1388,D4,308.0,0.5,87,168.0
1389,G2,308.0,0.5,87,168.0
1390,F#2,308.0,1.0,63,168.0
1391,C#2,308.0,1.0,63,168.0
1392,C4,308.5,0.5,95,168.0
1393,F3,309.0,0.5,79,168.0
1394,F#2,309.0,0.5,63,168.0
1395,C#2,309.0,0.5,63,168.0
1396,G3,309.5,0.5,95,168.0
1397,F#2,309.5,0.5,63,168.0
1398,A3,310.0,0.5,74,168.0
1399,G2,310.0,0.5,74,168.0
1400,G#2,310.0,1.0,63,168.0
1401,C#2,310.0,1.0,63,168.0
1402,C4,310.5,0.5,95,168.0
1403,F3,311.0,0.5,79,168.0
1404,F#2,311.0,0.5,63,168.0
1405,C#2,311.0,0.5,63,168.0
1406,F#2,311.5,0.5,63,168.0
1407,C4,311.5,0.5,95,168.0
1408,G3,311.5,0.5,95,168.0
1409,C3,312.0,1.0,79,168.0
1410,F#2,312.0,1.0,63,168.0
1411,C#2,312.0,1.0,63,168.0
1412,C4,315.0,1.0,71,168.0
1413,G3,315.0,1.0,71,168.0
1414,E3,315.0,1.0,71,168.0
1415,C3,315.0,1.0,71,168.0
1416,F#2,315.0,1.0,63,168.0
1417,C#2,315.0,1.0,63,168.0
1418,C4,316.0,1.0,71,168.0
1419,G3,316.0,1.0,71,168.0
1420,E3,316.0,1.0,71,168.0
1421,C3,316.0,1.0,71,168.0
