,note_name,start_time,duration,velocity,tempo
0,B2,3.5,0.125,92,111.0
1,B2,3.625,0.125,97,111.0
2,B2,3.75,0.125,90,111.0
3,F3,4.0,1.0,85,111.0
4,C#3,4.0,0.125,104,111.0
5,B3,4.0,1.0,67,111.0
6,E3,4.0,1.0,67,111.0
7,B3,4.0,1.0,67,111.0
8,E3,4.0,1.0,67,111.0
9,E4,4.5,0.5,50,111.0
10,E4,4.5,0.5,50,111.0
11,G#4,5.0,0.25,49,111.0
12,G#4,5.0,0.25,49,111.0
13,F3,5.0,0.125,83,111.0
14,E3,5.5,1.0,62,111.0
15,A2,5.5,1.5,64,111.0
16,E3,5.5,1.0,62,111.0
17,A2,5.5,1.5,64,111.0
18,A3,6.0,1.0,69,111.0
19,A3,6.0,1.0,69,111.0
20,F3,6.0,0.125,85,111.0
21,C#4,6.5,0.5,44,111.0
22,C#4,6.5,0.5,44,111.0
23,B2,7.0,1.0,66,111.0
24,F#3,7.0,1.0,79,111.0
25,B2,7.0,1.0,66,111.0
26,F#3,7.0,1.0,79,111.0
27,F3,7.0,0.125,92,111.0
28,B3,7.5,0.5,62,111.0
29,B3,7.5,0.5,62,111.0
30,D4,8.0,4.0,76,111.0
31,B2,8.0,4.0,66,111.0
32,F#3,8.0,4.0,79,111.0
33,B3,8.0,4.0,62,111.0
34,D4,8.0,4.0,76,111.0
35,B2,8.0,4.0,66,111.0
36,F#3,8.0,4.0,79,111.0
37,B3,8.0,4.0,62,111.0
38,F3,8.0,0.125,88,111.0
39,E-3,8.0,121/500,49,111.0
40,E4,8.0,4.0,48,111.0
41,E-3,8.5,1/20,27,111.0
42,E-3,8.75,121/500,38,111.0
43,F3,9.0,0.125,80,111.0
44,E-3,9.5,9/40,41,111.0
45,F3,10.0,0.125,79,111.0
46,E-3,10.25,26/125,33,111.0
47,F3,11.0,0.125,75,111.0
48,E-3,11.0,71/500,26,111.0
49,E-3,11.5,117/1000,40,111.0
50,E-3,11.75,24/125,27,111.0
51,D4,12.0,3.0,76,111.0
52,B2,12.0,3.25,66,111.0
53,F#3,12.0,3.0,79,111.0
54,B3,12.0,3.0,62,111.0
55,D4,12.0,3.0,76,111.0
56,B2,12.0,3.25,66,111.0
57,F#3,12.0,3.0,79,111.0
58,B3,12.0,3.0,62,111.0
59,F3,12.0,0.125,82,111.0
60,E4,12.0,4.0,48,111.0
61,C3,12.25,0.25,66,111.0
62,E-3,12.5,23/250,32,111.0
63,C3,13.0,0.75,73,111.0
64,F3,13.0,0.125,80,111.0
65,E-3,13.25,133/1000,32,111.0
66,F3,14.0,0.125,79,111.0
67,E-3,14.0,9/40,37,111.0
68,B2,14.5,0.5,73,111.0
69,E-3,14.75,0.375,7,111.0
70,F3,15.0,0.125,83,111.0
71,A2,15.25,0.5,72,111.0
72,E-3,15.5,117/1000,30,111.0
73,E-3,15.75,0.25,28,111.0
74,F3,16.0,0.125,79,111.0
75,E-3,16.0,67/1000,28,111.0
76,E4,16.0,4.0,48,111.0
77,E3,16.0,1.25,76,111.0
78,B3,16.0,1.25,76,111.0
79,E3,16.0,1.25,76,111.0
80,B3,16.0,1.25,76,111.0
81,B2,16.0,0.25,58,111.0
82,C3,16.0,0.25,58,111.0
83,E4,16.5,0.75,58,111.0
84,E4,16.5,0.75,58,111.0
85,E-3,16.5,133/1000,34,111.0
86,E-3,16.75,283/1000,46,111.0
87,G#4,17.0,0.25,58,111.0
88,G#4,17.0,0.25,58,111.0
89,F3,17.0,0.125,85,111.0
90,A4,17.0,3.0,50,111.0
91,A2,17.5,1.5,92,111.0
92,E3,17.5,1.25,67,111.0
93,A2,17.5,1.5,92,111.0
94,E3,17.5,1.25,67,111.0
95,E-3,17.5,71/500,38,111.0
96,E-3,17.75,0.25,34,111.0
97,A3,18.0,1.0,66,111.0
98,A3,18.0,1.0,66,111.0
99,F3,18.0,0.25,80,111.0
100,C#4,18.5,0.5,51,111.0
101,C#4,18.5,0.5,51,111.0
102,B2,19.0,1.0,104,111.0
103,F#3,19.0,1.0,71,111.0
104,B2,19.0,1.0,104,111.0
105,F#3,19.0,1.0,71,111.0
106,F3,19.0,0.125,85,111.0
107,B3,19.5,0.5,62,111.0
108,B3,19.5,0.5,62,111.0
109,G2,19.5,0.25,88,111.0
110,G2,19.75,0.25,70,111.0
111,B3,19.875,0.125,86,111.0
112,E-3,19.875,0.125,86,111.0
113,D4,20.0,4.0,80,111.0
114,B2,20.0,4.0,104,111.0
115,F#3,20.0,4.0,71,111.0
116,B3,20.0,4.0,62,111.0
117,D4,20.0,4.0,80,111.0
118,B2,20.0,4.0,104,111.0
119,F#3,20.0,4.0,71,111.0
120,B3,20.0,4.0,62,111.0
121,F#2,20.0,0.5,85,111.0
122,C2,20.0,51/125,117,111.0
123,C2,20.0,0.5,104,111.0
124,E-3,20.0,7/40,56,111.0
125,E4,20.0,3683/1000,48,111.0
126,A4,20.0,4.0,50,111.0
127,F#4,20.0,0.25,112,111.0
128,D4,20.0,0.25,112,111.0
129,B3,20.0,0.25,112,111.0
130,F#4,20.0,0.25,87,111.0
131,D4,20.0,0.25,87,111.0
132,B3,20.0,0.25,87,111.0
133,B3,20.0,0.125,86,111.0
134,E-3,20.0,0.125,86,111.0
135,A3,20.0,0.25,76,111.0
136,C#3,20.0,0.25,76,111.0
137,B3,20.25,279/500,23,111.0
138,B3,20.5,0.25,73,111.0
139,B3,20.5,0.25,48,111.0
140,B-2,20.5,0.5,85,111.0
141,E-3,20.5,117/1000,52,111.0
142,C2,20.75,67/1000,94,111.0
143,E-3,20.75,23/250,37,111.0
144,F#4,20.75,0.25,103,111.0
145,B3,20.75,0.25,103,111.0
146,D4,20.75,0.25,103,111.0
147,F#4,20.75,0.25,78,111.0
148,B3,20.75,0.25,78,111.0
149,D4,20.75,0.25,78,111.0
150,B3,21.0,0.25,80,111.0
151,B3,21.0,0.25,55,111.0
152,F#2,21.0,0.25,109,111.0
153,C2,21.0,167/1000,79,111.0
154,E-3,21.0,23/250,37,111.0
155,B3,21.25,0.25,82,111.0
156,B3,21.25,0.25,57,111.0
157,B-2,21.5,0.25,46,111.0
158,C2,21.5,167/1000,101,111.0
159,E-3,21.5,3/40,51,111.0
160,F#4,21.5,0.25,111,111.0
161,B3,21.5,0.25,111,111.0
162,D4,21.5,0.25,111,111.0
163,F#4,21.5,0.25,86,111.0
164,B3,21.5,0.25,86,111.0
165,D4,21.5,0.25,86,111.0
166,E-3,21.75,71/500,21,111.0
167,G#2,22.0,0.25,84,111.0
168,C2,22.0,83/1000,90,111.0
169,C2,22.25,79/500,66,111.0
170,B-2,22.5,0.25,92,111.0
171,E-3,22.5,71/500,47,111.0
172,F#4,22.5,0.25,105,111.0
173,B3,22.5,0.25,105,111.0
174,D4,22.5,0.25,105,111.0
175,F#4,22.5,0.25,80,111.0
176,B3,22.5,0.25,80,111.0
177,D4,22.5,0.25,80,111.0
178,C2,22.75,67/1000,80,111.0
179,E-3,22.75,1/5,45,111.0
180,G#2,23.0,0.25,86,111.0
181,C2,23.0,9/40,73,111.0
182,B-2,23.5,0.25,100,111.0
183,C2,23.5,24/125,76,111.0
184,E-3,23.5,117/1000,54,111.0
185,E-3,23.75,1/5,51,111.0
186,D4,24.0,4.0,80,111.0
187,B2,24.0,4.0,104,111.0
188,F#3,24.0,4.0,71,111.0
189,B3,24.0,4.0,62,111.0
190,D4,24.0,4.0,80,111.0
191,B2,24.0,4.0,104,111.0
192,F#3,24.0,4.0,71,111.0
193,B3,24.0,4.0,62,111.0
194,G#2,24.0,0.25,81,111.0
195,C2,24.0,229/500,99,111.0
196,A4,24.0,621/500,50,111.0
197,E4,24.0,0.25,103,111.0
198,B3,24.0,0.25,103,111.0
199,G#4,24.0,0.25,103,111.0
200,E4,24.0,0.25,78,111.0
201,B3,24.0,0.25,78,111.0
202,G#4,24.0,0.25,78,111.0
203,B3,24.25,0.25,83,111.0
204,B3,24.25,0.25,58,111.0
205,B3,24.5,0.25,76,111.0
206,B3,24.5,0.25,51,111.0
207,B-2,24.5,0.25,79,111.0
208,E-3,24.5,23/250,64,111.0
209,C2,24.75,117/1000,85,111.0
210,E-3,24.75,24/125,47,111.0
211,B3,24.75,0.25,103,111.0
212,E4,24.75,0.25,103,111.0
213,G#4,24.75,0.25,103,111.0
214,B3,24.75,0.25,78,111.0
215,E4,24.75,0.25,78,111.0
216,G#4,24.75,0.25,78,111.0
217,G#2,25.0,0.25,81,111.0
218,C2,25.0,26/125,74,111.0
219,B3,25.25,0.25,82,111.0
220,B3,25.25,0.25,57,111.0
221,B-2,25.5,0.25,81,111.0
222,C2,25.5,24/125,67,111.0
223,E-3,25.5,27/250,55,111.0
224,E4,25.5,0.25,107,111.0
225,A3,25.5,0.25,107,111.0
226,D4,25.5,0.25,107,111.0
227,E4,25.5,0.25,82,111.0
228,A3,25.5,0.25,82,111.0
229,D4,25.5,0.25,82,111.0
230,E-3,25.75,1/5,42,111.0
231,G#2,26.0,0.25,86,111.0
232,C2,26.0,23/250,82,111.0
233,C2,26.25,183/1000,66,111.0
234,B-2,26.5,0.25,84,111.0
235,E-3,26.5,0.125,57,111.0
236,E4,26.5,0.5,103,111.0
237,A3,26.5,0.5,103,111.0
238,C#4,26.5,0.5,103,111.0
239,E4,26.5,0.5,78,111.0
240,A3,26.5,0.5,78,111.0
241,C#4,26.5,0.5,78,111.0
242,C2,26.75,27/250,80,111.0
243,E-3,26.75,9/40,46,111.0
244,G#2,27.0,0.25,92,111.0
245,C2,27.0,267/1000,80,111.0
246,A3,27.5,0.25,87,111.0
247,A3,27.5,0.25,62,111.0
248,C3,27.5,0.25,99,111.0
249,B-2,27.5,0.25,86,111.0
250,C2,27.5,79/500,78,111.0
251,E-3,27.5,27/250,54,111.0
252,C3,27.75,0.25,86,111.0
253,E-3,27.75,1/5,47,111.0
254,D4,28.0,2.75,80,111.0
255,B2,28.0,3.0,104,111.0
256,F#3,28.0,2.75,71,111.0
257,B3,28.0,2.75,62,111.0
258,D4,28.0,2.75,80,111.0
259,B2,28.0,3.0,104,111.0
260,F#3,28.0,2.75,71,111.0
261,B3,28.0,2.75,62,111.0
262,G#2,28.0,0.25,86,111.0
263,C2,28.0,417/1000,110,111.0
264,D4,28.0,0.25,105,111.0
265,F#4,28.0,0.25,105,111.0
266,B3,28.0,0.25,105,111.0
267,D4,28.0,0.25,80,111.0
268,F#4,28.0,0.25,80,111.0
269,B3,28.0,0.25,80,111.0
270,B3,28.5,0.25,82,111.0
271,B3,28.5,0.25,57,111.0
272,B-2,28.5,0.25,71,111.0
273,E-3,28.5,1/10,44,111.0
274,C2,28.75,67/1000,82,111.0
275,E-3,28.75,26/125,49,111.0
276,F#4,28.75,0.25,105,111.0
277,D4,28.75,0.25,105,111.0
278,B3,28.75,0.25,105,111.0
279,F#4,28.75,0.25,80,111.0
280,D4,28.75,0.25,80,111.0
281,B3,28.75,0.25,80,111.0
282,B3,29.0,0.25,108,111.0
283,B3,29.0,0.25,83,111.0
284,G#2,29.0,0.25,84,111.0
285,C2,29.0,26/125,74,111.0
286,B3,29.25,0.25,87,111.0
287,B3,29.25,0.25,62,111.0
288,B-2,29.5,0.25,79,111.0
289,C2,29.5,1/5,94,111.0
290,E-3,29.5,83/1000,49,111.0
291,F#4,29.5,0.25,103,111.0
292,D4,29.5,0.25,103,111.0
293,B3,29.5,0.25,103,111.0
294,F#4,29.5,0.25,78,111.0
295,D4,29.5,0.25,78,111.0
296,B3,29.5,0.25,78,111.0
297,E-3,29.75,24/125,46,111.0
298,G#2,30.0,0.25,86,111.0
299,C2,30.0,3/40,83,111.0
300,C2,30.25,24/125,67,111.0
301,A2,30.5,0.25,86,111.0
302,B-2,30.5,0.25,84,111.0
303,E-3,30.5,117/1000,64,111.0
304,F#4,30.5,0.25,103,111.0
305,D4,30.5,0.25,103,111.0
306,B3,30.5,0.25,103,111.0
307,F#4,30.5,0.25,78,111.0
308,D4,30.5,0.25,78,111.0
309,B3,30.5,0.25,78,111.0
310,A2,30.75,0.25,72,111.0
311,C2,30.75,1/10,76,111.0
312,E-3,30.75,24/125,49,111.0
313,G#2,31.0,0.25,79,111.0
314,C2,31.0,233/1000,78,111.0
315,A2,31.5,0.25,83,111.0
316,B-2,31.5,0.25,89,111.0
317,C2,31.5,133/1000,80,111.0
318,E-3,31.5,133/1000,51,111.0
319,A2,31.75,0.25,66,111.0
320,E-3,31.75,217/1000,47,111.0
321,F2,32.0,0.25,88,111.0
322,G#2,32.0,0.25,77,111.0
323,C2,32.0,417/1000,107,111.0
324,E4,32.0,0.25,106,111.0
325,B3,32.0,0.25,106,111.0
326,G#4,32.0,0.25,106,111.0
327,E4,32.0,0.25,81,111.0
328,B3,32.0,0.25,81,111.0
329,G#4,32.0,0.25,81,111.0
330,E3,32.0,1.25,82,111.0
331,B3,32.0,1.25,82,111.0
332,E3,32.0,1.25,82,111.0
333,B3,32.0,1.25,82,111.0
334,B3,32.25,0.25,107,111.0
335,B3,32.25,0.25,82,111.0
336,B3,32.5,0.25,77,111.0
337,B3,32.5,0.25,52,111.0
338,E4,32.5,0.75,52,111.0
339,E4,32.5,0.75,52,111.0
340,B-2,32.5,0.25,81,111.0
341,E-3,32.5,27/250,48,111.0
342,C2,32.75,29/500,66,111.0
343,E-3,32.75,26/125,46,111.0
344,E4,32.75,0.25,100,111.0
345,B3,32.75,0.25,100,111.0
346,G#4,32.75,0.25,100,111.0
347,E4,32.75,0.25,75,111.0
348,B3,32.75,0.25,75,111.0
349,G#4,32.75,0.25,75,111.0
350,B3,33.0,0.25,103,111.0
351,B3,33.0,0.25,78,111.0
352,G#4,33.0,0.25,56,111.0
353,G#4,33.0,0.25,56,111.0
354,G#2,33.0,0.25,75,111.0
355,C2,33.0,183/1000,66,111.0
356,B3,33.25,0.25,74,111.0
357,B3,33.25,0.25,49,111.0
358,E3,33.5,1.0,86,111.0
359,A2,33.5,1.5,107,111.0
360,E3,33.5,1.0,86,111.0
361,A2,33.5,1.5,107,111.0
362,B-2,33.5,0.25,89,111.0
363,C2,33.5,7/40,92,111.0
364,E-3,33.5,133/1000,54,111.0
365,A3,33.5,0.5,104,111.0
366,E4,33.5,0.5,104,111.0
367,D4,33.5,0.5,104,111.0
368,A3,33.5,0.5,79,111.0
369,E4,33.5,0.5,79,111.0
370,D4,33.5,0.5,79,111.0
371,E-3,33.75,1/5,47,111.0
372,A3,34.0,1.0,62,111.0
373,A3,34.0,1.0,62,111.0
374,G#2,34.0,0.25,86,111.0
375,C2,34.0,27/250,99,111.0
376,C2,34.25,1/5,66,111.0
377,C#4,34.5,1.25,100,111.0
378,A3,34.5,0.75,91,111.0
379,E4,34.5,1.0,104,111.0
380,C#4,34.5,1.25,75,111.0
381,A3,34.5,0.75,66,111.0
382,E4,34.5,1.0,79,111.0
383,C#4,34.5,0.25,47,111.0
384,C#4,34.5,0.25,47,111.0
385,B2,34.5,0.25,88,111.0
386,B-2,34.5,0.25,92,111.0
387,E-3,34.5,27/250,56,111.0
388,B2,34.75,0.25,86,111.0
389,C2,34.75,1/10,85,111.0
390,E-3,34.75,24/125,44,111.0
391,B2,35.0,1.0,101,111.0
392,F#3,35.0,1.0,75,111.0
393,B2,35.0,1.0,101,111.0
394,F#3,35.0,1.0,75,111.0
395,B2,35.0,0.25,83,111.0
396,G#2,35.0,0.25,84,111.0
397,C2,35.0,121/500,72,111.0
398,B2,35.25,0.25,86,111.0
399,A3,35.5,0.25,74,111.0
400,A3,35.5,0.25,49,111.0
401,B3,35.5,0.5,61,111.0
402,B3,35.5,0.5,61,111.0
403,G2,35.5,0.25,82,111.0
404,B-2,35.5,0.25,92,111.0
405,C2,35.5,24/125,86,111.0
406,E-3,35.5,1/10,59,111.0
407,G2,35.75,0.25,110,111.0
408,E-3,35.75,24/125,48,111.0
409,G3,35.992,1/125,125,111.0
410,D4,36.0,4.0,79,111.0
411,B2,36.0,4.0,101,111.0
412,F#3,36.0,4.0,75,111.0
413,B3,36.0,4.0,61,111.0
414,D4,36.0,4.0,79,111.0
415,B2,36.0,4.0,101,111.0
416,F#3,36.0,4.0,75,111.0
417,B3,36.0,4.0,61,111.0
418,G3,36.0,27/250,125,111.0
419,G#2,36.0,0.25,81,111.0
420,C2,36.0,17/40,104,111.0
421,F#4,36.0,0.25,101,111.0
422,D4,36.0,0.25,101,111.0
423,B3,36.0,0.25,101,111.0
424,F#4,36.0,0.25,76,111.0
425,D4,36.0,0.25,76,111.0
426,B3,36.0,0.25,76,111.0
427,B3,36.25,0.25,96,111.0
428,B3,36.25,0.25,71,111.0
429,B3,36.5,0.25,77,111.0
430,B3,36.5,0.25,52,111.0
431,B-2,36.5,0.25,100,111.0
432,E-3,36.5,27/250,55,111.0
433,C2,36.75,1/10,66,111.0
434,E-3,36.75,7/40,41,111.0
435,F#4,36.75,0.25,103,111.0
436,D4,36.75,0.25,103,111.0
437,B3,36.75,0.25,103,111.0
438,F#4,36.75,0.25,78,111.0
439,D4,36.75,0.25,78,111.0
440,B3,36.75,0.25,78,111.0
441,G#2,37.0,0.25,84,111.0
442,C2,37.0,129/500,74,111.0
443,B3,37.25,0.25,78,111.0
444,B3,37.25,0.25,53,111.0
445,B-2,37.5,0.25,96,111.0
446,C2,37.5,24/125,97,111.0
447,E-3,37.5,133/1000,60,111.0
448,F#4,37.5,0.25,101,111.0
449,D4,37.5,0.25,101,111.0
450,B3,37.5,0.25,101,111.0
451,F#4,37.5,0.25,76,111.0
452,D4,37.5,0.25,76,111.0
453,B3,37.5,0.25,76,111.0
454,E-3,37.75,24/125,46,111.0
455,G#2,38.0,0.25,79,111.0
456,C2,38.0,3/40,78,111.0
457,C2,38.25,24/125,72,111.0
458,B-2,38.5,0.25,89,111.0
459,E-3,38.5,0.125,62,111.0
460,F#4,38.5,0.5,96,111.0
461,B3,38.5,0.5,96,111.0
462,D4,38.5,0.5,96,111.0
463,F#4,38.5,0.5,71,111.0
464,B3,38.5,0.5,71,111.0
465,D4,38.5,0.5,71,111.0
466,C2,38.75,0.125,92,111.0
467,E-3,38.75,183/1000,48,111.0
468,G#2,39.0,0.25,84,111.0
469,C2,39.0,0.25,72,111.0
470,B-2,39.5,0.25,86,111.0
471,C2,39.5,183/1000,99,111.0
472,E-3,39.5,133/1000,49,111.0
473,E-3,39.75,24/125,36,111.0
474,D4,40.0,4.0,79,111.0
475,B2,40.0,4.0,101,111.0
476,F#3,40.0,4.0,75,111.0
477,B3,40.0,4.0,61,111.0
478,D4,40.0,4.0,79,111.0
479,B2,40.0,4.0,101,111.0
480,F#3,40.0,4.0,75,111.0
481,B3,40.0,4.0,61,111.0
482,G#2,40.0,0.25,92,111.0
483,C2,40.0,383/1000,97,111.0
484,E4,40.0,0.25,85,111.0
485,B3,40.0,0.25,85,111.0
486,G#4,40.0,0.25,85,111.0
487,E4,40.0,0.25,60,111.0
488,B3,40.0,0.25,60,111.0
489,G#4,40.0,0.25,60,111.0
490,B3,40.25,0.25,96,111.0
491,B3,40.25,0.25,71,111.0
492,B3,40.5,0.25,80,111.0
493,B3,40.5,0.25,55,111.0
494,B-2,40.5,0.25,84,111.0
495,E-3,40.5,3/20,49,111.0
496,C2,40.75,23/250,73,111.0
497,E-3,40.75,217/1000,40,111.0
498,E4,40.75,0.25,84,111.0
499,B3,40.75,0.25,84,111.0
500,G#4,40.75,0.25,84,111.0
501,E4,40.75,0.25,59,111.0
502,B3,40.75,0.25,59,111.0
503,G#4,40.75,0.25,59,111.0
504,B3,41.0,0.25,94,111.0
505,B3,41.0,0.25,69,111.0
506,G#2,41.0,0.25,92,111.0
507,C2,41.0,121/500,73,111.0
508,B3,41.25,0.25,80,111.0
509,B3,41.25,0.25,55,111.0
510,E4,41.5,0.25,85,111.0
511,E4,41.5,0.25,60,111.0
512,B-2,41.5,0.25,81,111.0
513,C2,41.5,79/500,83,111.0
514,E-3,41.5,23/250,45,111.0
515,A3,41.5,0.5,88,111.0
516,D4,41.5,0.5,88,111.0
517,A3,41.5,0.5,63,111.0
518,D4,41.5,0.5,63,111.0
519,E-3,41.75,26/125,46,111.0
520,G#2,42.0,0.25,92,111.0
521,C2,42.0,23/250,88,111.0
522,C2,42.25,24/125,67,111.0
523,C3,42.5,0.25,117,111.0
524,B-2,42.5,0.25,81,111.0
525,E-3,42.5,133/1000,58,111.0
526,E4,42.5,0.75,90,111.0
527,C#4,42.5,0.75,90,111.0
528,A3,42.5,0.75,90,111.0
529,E4,42.5,0.75,65,111.0
530,C#4,42.5,0.75,65,111.0
531,A3,42.5,0.75,65,111.0
532,C2,42.75,0.125,94,111.0
533,E-3,42.75,26/125,48,111.0
534,B2,43.0,0.25,83,111.0
535,G#2,43.0,0.25,96,111.0
536,C2,43.0,121/500,69,111.0
537,B2,43.25,0.25,83,111.0
538,A3,43.5,0.5,82,111.0
539,A3,43.5,0.5,57,111.0
540,A2,43.5,0.25,97,111.0
541,B-2,43.5,0.25,89,111.0
542,C2,43.5,71/500,78,111.0
543,E-3,43.5,0.125,49,111.0
544,A2,43.75,0.25,82,111.0
545,E-3,43.75,217/1000,32,111.0
546,D4,44.0,3.0,79,111.0
547,B2,44.0,3.5,101,111.0
548,F#3,44.0,3.0,75,111.0
549,B3,44.0,3.0,61,111.0
550,D4,44.0,3.0,79,111.0
551,B2,44.0,3.5,101,111.0
552,F#3,44.0,3.0,75,111.0
553,B3,44.0,3.0,61,111.0
554,G#2,44.0,0.25,96,111.0
555,C2,44.0,433/1000,104,111.0
556,F#4,44.0,0.25,100,111.0
557,D4,44.0,0.25,100,111.0
558,A3,44.0,0.25,100,111.0
559,B3,44.0,0.25,100,111.0
560,F#4,44.0,0.25,74,111.0
561,D4,44.0,0.25,74,111.0
562,A3,44.0,0.25,74,111.0
563,B3,44.0,0.25,74,111.0
564,B3,44.25,0.25,89,111.0
565,B3,44.25,0.25,64,111.0
566,B3,44.5,0.25,73,111.0
567,B3,44.5,0.25,48,111.0
568,B-2,44.5,0.25,92,111.0
569,E-3,44.5,0.125,62,111.0
570,B3,44.75,0.5,92,111.0
571,B3,44.75,0.5,67,111.0
572,C2,44.75,0.125,92,111.0
573,E-3,44.75,26/125,41,111.0
574,F#4,44.75,0.25,110,111.0
575,D4,44.75,0.25,110,111.0
576,F#4,44.75,0.25,84,111.0
577,D4,44.75,0.25,84,111.0
578,G#2,45.0,0.25,89,111.0
579,C2,45.0,0.25,71,111.0
580,B3,45.25,0.25,77,111.0
581,B3,45.25,0.25,52,111.0
582,B-2,45.5,0.25,81,111.0
583,C2,45.5,167/1000,86,111.0
584,E-3,45.5,27/250,49,111.0
585,F#4,45.5,0.25,100,111.0
586,D4,45.5,0.25,100,111.0
587,B3,45.5,0.25,100,111.0
588,F#4,45.5,0.25,75,111.0
589,D4,45.5,0.25,75,111.0
590,B3,45.5,0.25,75,111.0
591,E-3,45.75,26/125,49,111.0
592,G#2,46.0,0.25,92,111.0
593,C2,46.0,3/40,86,111.0
594,C2,46.25,24/125,71,111.0
595,F#4,46.5,0.25,106,111.0
596,F#4,46.5,0.25,81,111.0
597,B-2,46.5,0.25,96,111.0
598,E-3,46.5,1/10,62,111.0
599,B3,46.5,0.5,102,111.0
600,D4,46.5,0.5,102,111.0
601,B3,46.5,0.5,77,111.0
602,D4,46.5,0.5,77,111.0
603,C2,46.75,1/10,78,111.0
604,E-3,46.75,217/1000,58,111.0
605,G#2,47.0,0.25,89,111.0
606,C2,47.0,233/1000,66,111.0
607,B-2,47.5,0.25,86,111.0
608,C2,47.5,183/1000,82,111.0
609,E-3,47.5,27/250,64,111.0
610,D3,47.508,333/1000,94,111.0
611,D3,47.508,333/1000,94,111.0
612,D2,47.75,0.25,90,111.0
613,E-3,47.75,26/125,51,111.0
614,E3,47.8,1/5,71,111.0
615,E3,47.8,1/5,71,111.0
616,C3,48.0,0.25,113,111.0
617,G#2,48.0,0.25,100,111.0
618,C2,48.0,51/125,117,111.0
619,C2,48.0,0.5,104,111.0
620,E4,48.0,0.25,98,111.0
621,B3,48.0,0.25,98,111.0
622,G#4,48.0,0.25,98,111.0
623,E4,48.0,0.25,73,111.0
624,B3,48.0,0.25,73,111.0
625,G#4,48.0,0.25,73,111.0
626,E3,48.0,1.25,76,111.0
627,B3,48.0,1.25,76,111.0
628,E3,48.0,1.25,76,111.0
629,B3,48.0,1.25,76,111.0
630,B3,48.25,0.25,99,111.0
631,B3,48.25,0.25,74,111.0
632,B2,48.383,121/500,88,111.0
633,B2,48.383,121/500,88,111.0
634,B3,48.5,0.25,76,111.0
635,B3,48.5,0.25,51,111.0
636,E4,48.5,0.75,56,111.0
637,E4,48.5,0.75,56,111.0
638,C3,48.5,0.25,123,111.0
639,B-2,48.5,0.25,84,111.0
640,E-3,48.5,27/250,56,111.0
641,C2,48.75,67/1000,94,111.0
642,E-3,48.75,26/125,46,111.0
643,E4,48.75,0.25,96,111.0
644,B3,48.75,0.25,96,111.0
645,G#4,48.75,0.25,96,111.0
646,E4,48.75,0.25,71,111.0
647,B3,48.75,0.25,71,111.0
648,G#4,48.75,0.25,71,111.0
649,B2,48.783,24/125,55,111.0
650,B2,48.783,24/125,55,111.0
651,G#4,49.0,0.25,46,111.0
652,G#4,49.0,0.25,46,111.0
653,B2,49.0,0.25,94,111.0
654,G#2,49.0,0.25,92,111.0
655,C2,49.0,167/1000,79,111.0
656,A2,49.008,167/1000,97,111.0
657,A2,49.008,167/1000,97,111.0
658,A2,49.225,24/125,74,111.0
659,A2,49.225,24/125,74,111.0
660,B3,49.25,0.25,77,111.0
661,B3,49.25,0.25,52,111.0
662,B2,49.25,0.25,126,111.0
663,A2,49.5,1.5,86,111.0
664,E3,49.5,1.25,79,111.0
665,A2,49.5,1.5,86,111.0
666,E3,49.5,1.25,79,111.0
667,B-2,49.5,0.25,84,111.0
668,C2,49.5,167/1000,101,111.0
669,E-3,49.5,3/40,50,111.0
670,E4,49.5,0.5,105,111.0
671,A3,49.5,0.5,105,111.0
672,D4,49.5,0.5,105,111.0
673,E4,49.5,0.5,80,111.0
674,A3,49.5,0.5,80,111.0
675,D4,49.5,0.5,80,111.0
676,E-3,49.75,133/1000,47,111.0
677,A2,49.75,0.25,96,111.0
678,B2,49.75,0.25,96,111.0
679,G2,49.767,71/500,67,111.0
680,G2,49.767,71/500,67,111.0
681,A3,50.0,1.0,62,111.0
682,A3,50.0,1.0,62,111.0
683,A2,50.0,0.25,120,111.0
684,G#2,50.0,0.25,89,111.0
685,C2,50.0,83/1000,90,111.0
686,F#2,50.017,79/500,104,111.0
687,F#2,50.017,79/500,104,111.0
688,C2,50.25,79/500,66,111.0
689,E2,50.275,283/1000,90,111.0
690,E2,50.275,283/1000,90,111.0
691,E4,50.5,1.0,117,111.0
692,A3,50.5,0.75,103,111.0
693,C#4,50.5,1.5,114,111.0
694,E4,50.5,1.0,92,111.0
695,A3,50.5,0.75,78,111.0
696,C#4,50.5,1.5,89,111.0
697,C#4,50.5,0.5,54,111.0
698,C#4,50.5,0.5,54,111.0
699,A2,50.5,0.25,80,111.0
700,B-2,50.5,0.25,77,111.0
701,A2,50.75,0.25,126,111.0
702,C2,50.75,67/1000,80,111.0
703,E-3,50.75,3/40,40,111.0
704,D2,50.8,127/250,101,111.0
705,D2,50.8,127/250,101,111.0
706,G#2,51.0,0.25,89,111.0
707,C2,51.0,9/40,73,111.0
708,B2,51.0,1.0,85,111.0
709,F#3,51.0,1.0,85,111.0
710,B2,51.0,1.0,85,111.0
711,F#3,51.0,1.0,85,111.0
712,G2,51.25,0.25,120,111.0
713,C#3,51.458,27/250,104,111.0
714,B3,51.483,317/1000,92,111.0
715,A3,51.5,0.25,83,111.0
716,A3,51.5,0.25,58,111.0
717,B3,51.5,0.5,62,111.0
718,B3,51.5,0.5,62,111.0
719,G2,51.5,0.25,110,111.0
720,C#3,51.5,0.25,100,111.0
721,C2,51.5,24/125,76,111.0
722,E2,51.55,267/1000,99,111.0
723,E2,51.55,267/1000,99,111.0
724,F2,51.75,0.25,110,111.0
725,D2,51.767,3/20,88,111.0
726,D2,51.767,3/20,88,111.0
727,F#4,51.983,17/1000,104,111.0
728,D4,52.0,4.0,75,111.0
729,B3,52.0,4.0,62,111.0
730,B1,52.0,9/40,99,111.0
731,B1,52.0,9/40,99,111.0
732,D4,52.0,4.0,75,111.0
733,B3,52.0,4.0,62,111.0
734,D2,52.0,0.5,125,111.0
735,G#2,52.0,0.25,104,111.0
736,C2,52.0,229/500,99,111.0
737,F#4,52.0,883/1000,104,111.0
738,F#4,52.0,0.25,96,111.0
739,B3,52.0,0.25,96,111.0
740,D4,52.0,0.25,96,111.0
741,F#4,52.0,0.25,71,111.0
742,B3,52.0,0.25,71,111.0
743,D4,52.0,0.25,71,111.0
744,B2,52.0,4.0,85,111.0
745,F#3,52.0,4.0,85,111.0
746,B2,52.0,4.0,85,111.0
747,F#3,52.0,4.0,85,111.0
748,A3,52.008,27/250,113,111.0
749,B1,52.017,483/1000,99,111.0
750,B1,52.017,483/1000,99,111.0
751,B3,52.25,0.25,91,111.0
752,B3,52.25,0.25,66,111.0
753,C#3,52.25,67/1000,79,111.0
754,B3,52.5,0.25,71,111.0
755,B3,52.5,0.25,46,111.0
756,G#2,52.5,0.25,79,111.0
757,B1,52.75,0.25,86,111.0
758,B1,52.75,0.25,86,111.0
759,C2,52.75,117/1000,85,111.0
760,D4,52.75,0.25,104,111.0
761,F#4,52.75,0.25,104,111.0
762,B3,52.75,0.25,104,111.0
763,D4,52.75,0.25,79,111.0
764,F#4,52.75,0.25,79,111.0
765,B3,52.75,0.25,79,111.0
766,B1,53.0,0.25,90,111.0
767,B1,53.0,0.25,90,111.0
768,D2,53.0,0.75,120,111.0
769,G#2,53.0,0.25,109,111.0
770,C2,53.0,26/125,74,111.0
771,B3,53.1,0.375,60,111.0
772,B3,53.25,0.25,77,111.0
773,B3,53.25,0.25,52,111.0
774,A1,53.5,0.5,101,111.0
775,A1,53.5,0.5,101,111.0
776,G#2,53.5,0.25,81,111.0
777,C2,53.5,24/125,67,111.0
778,F#4,53.5,0.25,105,111.0
779,D4,53.5,0.25,105,111.0
780,B3,53.5,0.25,105,111.0
781,F#4,53.5,0.25,80,111.0
782,D4,53.5,0.25,80,111.0
783,B3,53.5,0.25,80,111.0
784,D4,53.55,124/125,113,111.0
785,B1,54.0,0.5,97,111.0
786,B1,54.0,0.5,97,111.0
787,G#2,54.0,0.25,100,111.0
788,C2,54.0,23/250,82,111.0
789,C2,54.25,183/1000,66,111.0
790,E4,54.475,683/1000,99,111.0
791,B3,54.5,0.5,99,111.0
792,B3,54.5,0.5,74,111.0
793,G#2,54.5,0.25,84,111.0
794,F#4,54.5,0.25,111,111.0
795,D4,54.5,0.25,111,111.0
796,F#4,54.5,0.25,86,111.0
797,D4,54.5,0.25,86,111.0
798,B1,54.75,0.25,83,111.0
799,B1,54.75,0.25,83,111.0
800,C2,54.75,27/250,80,111.0
801,A1,55.0,0.5,76,111.0
802,A1,55.0,0.5,76,111.0
803,D2,55.0,1.0,123,111.0
804,E2,55.0,0.25,104,111.0
805,G#2,55.0,0.25,109,111.0
806,C2,55.0,267/1000,80,111.0
807,B1,55.5,0.5,104,111.0
808,B1,55.5,0.5,104,111.0
809,G#2,55.5,0.25,96,111.0
810,C2,55.5,79/500,78,111.0
811,D4,56.0,4.0,75,111.0
812,B3,56.0,4.0,62,111.0
813,E1,56.0,0.5,88,111.0
814,E1,56.0,0.5,88,111.0
815,D4,56.0,4.0,75,111.0
816,B3,56.0,4.0,62,111.0
817,D2,56.0,0.5,123,111.0
818,G#2,56.0,0.25,109,111.0
819,C2,56.0,417/1000,110,111.0
820,E4,56.0,0.25,108,111.0
821,B3,56.0,0.25,108,111.0
822,G#4,56.0,0.25,108,111.0
823,E4,56.0,0.25,83,111.0
824,B3,56.0,0.25,83,111.0
825,G#4,56.0,0.25,83,111.0
826,B2,56.0,4.0,85,111.0
827,F#3,56.0,4.0,85,111.0
828,B2,56.0,4.0,85,111.0
829,F#3,56.0,4.0,85,111.0
830,B3,56.25,0.25,93,111.0
831,B3,56.25,0.25,68,111.0
832,B3,56.5,0.25,66,111.0
833,B3,56.5,0.25,41,111.0
834,G#2,56.5,0.25,86,111.0
835,E1,56.75,0.25,67,111.0
836,E1,56.75,0.25,67,111.0
837,C2,56.75,67/1000,82,111.0
838,E4,56.75,0.25,97,111.0
839,B3,56.75,0.25,97,111.0
840,G#4,56.75,0.25,97,111.0
841,E4,56.75,0.25,72,111.0
842,B3,56.75,0.25,72,111.0
843,G#4,56.75,0.25,72,111.0
844,F#1,57.0,0.5,119,111.0
845,F#1,57.0,0.5,119,111.0
846,D2,57.0,1.75,123,111.0
847,G#2,57.0,0.25,104,111.0
848,C2,57.0,26/125,74,111.0
849,B3,57.25,0.25,79,111.0
850,B3,57.25,0.25,54,111.0
851,A3,57.5,0.25,93,111.0
852,A3,57.5,0.25,68,111.0
853,G#1,57.5,0.5,92,111.0
854,G#1,57.5,0.5,92,111.0
855,G#2,57.5,0.25,92,111.0
856,C2,57.5,1/5,94,111.0
857,E4,57.5,0.5,96,111.0
858,D4,57.5,0.5,96,111.0
859,E4,57.5,0.5,70,111.0
860,D4,57.5,0.5,70,111.0
861,A1,58.0,0.5,107,111.0
862,A1,58.0,0.5,107,111.0
863,G#2,58.0,0.25,100,111.0
864,C2,58.0,3/40,83,111.0
865,C2,58.25,24/125,67,111.0
866,G#2,58.5,0.25,89,111.0
867,E4,58.5,0.75,92,111.0
868,C#4,58.5,0.75,92,111.0
869,A3,58.5,0.75,92,111.0
870,E4,58.5,0.75,67,111.0
871,C#4,58.5,0.75,67,111.0
872,A3,58.5,0.75,67,111.0
873,A1,58.75,0.25,94,111.0
874,A1,58.75,0.25,94,111.0
875,C2,58.75,1/10,76,111.0
876,A1,59.0,0.5,78,111.0
877,A1,59.0,0.5,78,111.0
878,D2,59.0,1.0,123,111.0
879,G#2,59.0,0.25,109,111.0
880,C2,59.0,233/1000,78,111.0
881,B3,59.067,383/1000,110,111.0
882,A3,59.5,0.25,76,111.0
883,A3,59.5,0.25,51,111.0
884,G#1,59.5,0.25,114,111.0
885,G#1,59.5,0.25,114,111.0
886,G#2,59.5,0.25,89,111.0
887,C2,59.5,133/1000,80,111.0
888,D4,59.5,283/1000,97,111.0
889,A1,59.75,0.25,83,111.0
890,A1,59.75,0.25,83,111.0
891,D4,60.0,1.25,75,111.0
892,B3,60.0,1.0,62,111.0
893,B1,60.0,0.5,104,111.0
894,B1,60.0,0.5,104,111.0
895,D4,60.0,1.25,75,111.0
896,B3,60.0,1.0,62,111.0
897,D2,60.0,0.75,123,111.0
898,G#2,60.0,0.25,100,111.0
899,C2,60.0,417/1000,107,111.0
900,F#4,60.0,0.25,100,111.0
901,B3,60.0,0.25,100,111.0
902,D4,60.0,0.25,100,111.0
903,F#4,60.0,0.25,75,111.0
904,B3,60.0,0.25,75,111.0
905,D4,60.0,0.25,75,111.0
906,B2,60.0,1.25,85,111.0
907,F#3,60.0,1.25,85,111.0
908,B2,60.0,1.25,85,111.0
909,F#3,60.0,1.25,85,111.0
910,F#4,60.025,917/1000,92,111.0
911,B3,60.25,0.25,83,111.0
912,B3,60.25,0.25,58,111.0
913,B3,60.5,0.25,58,111.0
914,B3,60.5,0.25,33,111.0
915,G#2,60.5,0.25,86,111.0
916,B1,60.75,0.25,90,111.0
917,B1,60.75,0.25,90,111.0
918,C2,60.75,29/500,66,111.0
919,F#4,60.75,0.25,99,111.0
920,D4,60.75,0.25,99,111.0
921,B3,60.75,0.25,99,111.0
922,F#4,60.75,0.25,74,111.0
923,D4,60.75,0.25,74,111.0
924,B3,60.75,0.25,74,111.0
925,B3,60.958,467/1000,104,111.0
926,B1,61.0,0.5,88,111.0
927,B1,61.0,0.5,88,111.0
928,D2,61.0,1.75,120,111.0
929,G#2,61.0,0.25,104,111.0
930,C2,61.0,183/1000,66,111.0
931,B3,61.25,0.25,78,111.0
932,B3,61.25,0.25,53,111.0
933,A1,61.5,0.5,94,111.0
934,A1,61.5,0.5,94,111.0
935,G#2,61.5,0.25,92,111.0
936,C2,61.5,7/40,92,111.0
937,F#4,61.5,0.25,103,111.0
938,D4,61.5,0.25,103,111.0
939,B3,61.5,0.25,103,111.0
940,F#4,61.5,0.25,78,111.0
941,D4,61.5,0.25,78,111.0
942,B3,61.5,0.25,78,111.0
943,D4,61.508,124/125,113,111.0
944,B1,62.0,0.5,99,111.0
945,B1,62.0,0.5,99,111.0
946,G#2,62.0,0.25,109,111.0
947,C2,62.0,27/250,99,111.0
948,C2,62.25,1/5,66,111.0
949,E4,62.475,279/500,94,111.0
950,G#2,62.5,0.25,96,111.0
951,F#4,62.5,0.25,104,111.0
952,B3,62.5,0.25,104,111.0
953,D4,62.5,0.25,104,111.0
954,F#4,62.5,0.25,79,111.0
955,B3,62.5,0.25,79,111.0
956,D4,62.5,0.25,79,111.0
957,B1,62.75,0.25,99,111.0
958,B1,62.75,0.25,99,111.0
959,C2,62.75,1/10,85,111.0
960,A1,63.0,0.5,107,111.0
961,A1,63.0,0.5,107,111.0
962,D2,63.0,1.0,125,111.0
963,G#2,63.0,0.25,104,111.0
964,C2,63.0,121/500,72,111.0
965,B3,63.0,11/20,99,111.0
966,D4,63.483,467/1000,107,111.0
967,B1,63.5,0.5,101,111.0
968,B1,63.5,0.5,101,111.0
969,G#2,63.5,0.25,92,111.0
970,C2,63.5,24/125,86,111.0
971,E1,64.0,0.5,110,111.0
972,E1,64.0,0.5,110,111.0
973,D2,64.0,0.75,125,111.0
974,G#2,64.0,0.25,109,111.0
975,C2,64.0,17/40,104,111.0
976,F#4,64.0,101/125,96,111.0
977,G#4,64.0,0.25,89,111.0
978,E4,64.0,0.25,89,111.0
979,A4,64.0,0.25,89,111.0
980,G#4,64.0,0.25,64,111.0
981,E4,64.0,0.25,64,111.0
982,A4,64.0,0.25,64,111.0
983,D4,64.25,0.25,48,111.0
984,B3,64.25,0.25,48,111.0
985,D4,64.25,0.25,23,111.0
986,B3,64.25,0.25,23,111.0
987,B3,64.5,0.25,78,111.0
988,B3,64.5,0.25,53,111.0
989,G#2,64.5,0.25,100,111.0
990,E1,64.75,0.25,76,111.0
991,E1,64.75,0.25,76,111.0
992,C2,64.75,1/10,66,111.0
993,E4,64.75,0.25,93,111.0
994,D4,64.75,0.25,93,111.0
995,A4,64.75,0.25,93,111.0
996,E4,64.75,0.25,68,111.0
997,D4,64.75,0.25,68,111.0
998,A4,64.75,0.25,68,111.0
999,F#4,64.942,21/20,109,111.0
1000,B3,65.0,0.25,80,111.0
1001,B3,65.0,0.25,55,111.0
1002,F#1,65.0,0.5,114,111.0
1003,F#1,65.0,0.5,114,111.0
1004,D2,65.0,1.25,117,111.0
1005,G#2,65.0,0.25,109,111.0
1006,C2,65.0,129/500,74,111.0
1007,B3,65.25,0.25,72,111.0
1008,B3,65.25,0.25,47,111.0
1009,G#1,65.5,0.5,109,111.0
1010,G#1,65.5,0.5,109,111.0
1011,G#2,65.5,0.25,100,111.0
1012,C2,65.5,24/125,97,111.0
1013,E4,65.5,0.5,92,111.0
1014,G#4,65.5,0.5,92,111.0
1015,B3,65.5,0.5,92,111.0
1016,E4,65.5,0.5,67,111.0
1017,G#4,65.5,0.5,67,111.0
1018,B3,65.5,0.5,67,111.0
1019,A1,66.0,0.5,110,111.0
1020,A1,66.0,0.5,110,111.0
1021,G#2,66.0,0.25,100,111.0
1022,C2,66.0,3/40,78,111.0
1023,E4,66.033,121/500,101,111.0
1024,D4,66.208,121/500,101,111.0
1025,D2,66.25,0.5,104,111.0
1026,C2,66.25,24/125,72,111.0
1027,B3,66.467,783/1000,99,111.0
1028,C4,66.483,17/1000,80,111.0
1029,G#2,66.5,0.25,100,111.0
1030,B3,66.5,0.5,109,111.0
1031,G#4,66.5,0.5,109,111.0
1032,E4,66.5,0.5,109,111.0
1033,B3,66.5,0.5,84,111.0
1034,G#4,66.5,0.5,84,111.0
1035,E4,66.5,0.5,84,111.0
1036,A1,66.75,0.25,82,111.0
1037,A1,66.75,0.25,82,111.0
1038,C2,66.75,0.125,92,111.0
1039,A1,67.0,0.5,88,111.0
1040,A1,67.0,0.5,88,111.0
1041,D2,67.0,0.25,125,111.0
1042,G#2,67.0,0.25,96,111.0
1043,C2,67.0,0.25,72,111.0
1044,B3,67.458,123/250,110,111.0
1045,G#1,67.5,0.25,100,111.0
1046,G#1,67.5,0.25,100,111.0
1047,D2,67.5,0.25,90,111.0
1048,G#2,67.5,0.25,92,111.0
1049,C2,67.5,183/1000,99,111.0
1050,A1,67.75,0.25,90,111.0
1051,A1,67.75,0.25,90,111.0
1052,D2,67.75,0.25,92,111.0
1053,F#4,67.967,33/1000,100,111.0
1054,B1,68.0,0.5,97,111.0
1055,B1,68.0,0.5,97,111.0
1056,G#2,68.0,0.25,92,111.0
1057,C2,68.0,383/1000,97,111.0
1058,F#4,68.0,933/1000,100,111.0
1059,F#4,68.0,0.25,107,111.0
1060,B3,68.0,0.25,107,111.0
1061,D4,68.0,0.25,107,111.0
1062,F#4,68.0,0.25,82,111.0
1063,B3,68.0,0.25,82,111.0
1064,D4,68.0,0.25,82,111.0
1065,B3,68.25,0.25,87,111.0
1066,B3,68.25,0.25,62,111.0
1067,B3,68.5,0.25,71,111.0
1068,B3,68.5,0.25,46,111.0
1069,G#2,68.5,0.25,92,111.0
1070,B1,68.75,0.25,97,111.0
1071,B1,68.75,0.25,97,111.0
1072,C2,68.75,23/250,73,111.0
1073,B3,68.75,0.25,101,111.0
1074,F#4,68.75,0.25,101,111.0
1075,D4,68.75,0.25,101,111.0
1076,B3,68.75,0.25,76,111.0
1077,F#4,68.75,0.25,76,111.0
1078,D4,68.75,0.25,76,111.0
1079,B3,68.942,229/500,94,111.0
1080,B3,69.0,0.25,84,111.0
1081,B3,69.0,0.25,59,111.0
1082,B1,69.0,0.5,83,111.0
1083,B1,69.0,0.5,83,111.0
1084,D2,69.0,1.75,123,111.0
1085,G#2,69.0,0.25,96,111.0
1086,C2,69.0,121/500,73,111.0
1087,B3,69.25,0.25,77,111.0
1088,B3,69.25,0.25,52,111.0
1089,D4,69.492,479/500,113,111.0
1090,A1,69.5,0.5,99,111.0
1091,A1,69.5,0.5,99,111.0
1092,G#2,69.5,0.25,96,111.0
1093,C2,69.5,79/500,83,111.0
1094,F#4,69.5,0.25,109,111.0
1095,B3,69.5,0.25,109,111.0
1096,D4,69.5,0.25,109,111.0
1097,F#4,69.5,0.25,84,111.0
1098,B3,69.5,0.25,84,111.0
1099,D4,69.5,0.25,84,111.0
1100,B1,70.0,0.5,99,111.0
1101,B1,70.0,0.5,99,111.0
1102,G#2,70.0,0.25,89,111.0
1103,C2,70.0,23/250,88,111.0
1104,C2,70.25,24/125,67,111.0
1105,E4,70.458,23/40,99,111.0
1106,G#2,70.5,0.25,77,111.0
1107,F#4,70.5,0.25,105,111.0
1108,B3,70.5,0.25,105,111.0
1109,D4,70.5,0.25,105,111.0
1110,F#4,70.5,0.25,80,111.0
1111,B3,70.5,0.25,80,111.0
1112,D4,70.5,0.25,80,111.0
1113,B1,70.75,0.25,92,111.0
1114,B1,70.75,0.25,92,111.0
1115,C2,70.75,0.125,94,111.0
1116,A1,71.0,0.5,107,111.0
1117,A1,71.0,0.5,107,111.0
1118,D2,71.0,1.0,113,111.0
1119,G#2,71.0,0.25,89,111.0
1120,C2,71.0,121/500,69,111.0
1121,B1,71.5,0.25,68,111.0
1122,B1,71.5,0.25,68,111.0
1123,G#2,71.5,0.25,84,111.0
1124,C2,71.5,71/500,78,111.0
1125,E1,72.0,0.5,94,111.0
1126,D1,72.0,0.25,99,111.0
1127,E1,72.0,0.5,94,111.0
1128,D1,72.0,0.25,99,111.0
1129,D2,72.0,0.75,113,111.0
1130,G#2,72.0,0.25,96,111.0
1131,C2,72.0,433/1000,104,111.0
1132,E4,72.0,0.25,109,111.0
1133,B3,72.0,0.25,109,111.0
1134,G#4,72.0,0.25,109,111.0
1135,E4,72.0,0.25,84,111.0
1136,B3,72.0,0.25,84,111.0
1137,G#4,72.0,0.25,84,111.0
1138,B3,72.25,0.25,87,111.0
1139,B3,72.25,0.25,62,111.0
1140,B3,72.5,0.25,67,111.0
1141,B3,72.5,0.25,42,111.0
1142,G#2,72.5,0.25,84,111.0
1143,E1,72.75,0.25,75,111.0
1144,E1,72.75,0.25,75,111.0
1145,C2,72.75,0.125,92,111.0
1146,E4,72.75,0.25,98,111.0
1147,B3,72.75,0.25,98,111.0
1148,G#4,72.75,0.25,98,111.0
1149,E4,72.75,0.25,73,111.0
1150,B3,72.75,0.25,73,111.0
1151,G#4,72.75,0.25,73,111.0
1152,E4,72.917,1133/1000,117,111.0
1153,F#1,73.0,0.5,114,111.0
1154,F#1,73.0,0.5,114,111.0
1155,D2,73.0,1.5,113,111.0
1156,G#2,73.0,0.25,96,111.0
1157,C2,73.0,0.25,71,111.0
1158,B3,73.25,0.25,79,111.0
1159,B3,73.25,0.25,54,111.0
1160,G#1,73.5,0.5,104,111.0
1161,G#1,73.5,0.5,104,111.0
1162,G#2,73.5,0.25,89,111.0
1163,C2,73.5,167/1000,86,111.0
1164,A3,73.5,0.5,101,111.0
1165,E4,73.5,0.5,101,111.0
1166,D4,73.5,0.5,101,111.0
1167,A3,73.5,0.5,76,111.0
1168,E4,73.5,0.5,76,111.0
1169,D4,73.5,0.5,76,111.0
1170,A1,74.0,0.5,104,111.0
1171,A1,74.0,0.5,104,111.0
1172,G#2,74.0,0.25,96,111.0
1173,C2,74.0,3/40,86,111.0
1174,D4,74.017,1.0,113,111.0
1175,C2,74.25,24/125,71,111.0
1176,G#2,74.5,0.25,56,111.0
1177,C#4,74.5,0.5,93,111.0
1178,E4,74.5,0.5,93,111.0
1179,A3,74.5,0.5,93,111.0
1180,C#4,74.5,0.5,68,111.0
1181,E4,74.5,0.5,68,111.0
1182,A3,74.5,0.5,68,111.0
1183,A1,74.75,0.25,72,111.0
1184,A1,74.75,0.25,72,111.0
1185,C2,74.75,1/10,78,111.0
1186,A1,75.0,0.5,90,111.0
1187,A1,75.0,0.5,90,111.0
1188,D2,75.0,1.0,123,111.0
1189,G#2,75.0,0.25,92,111.0
1190,C2,75.0,233/1000,66,111.0
1191,A3,75.5,0.25,81,111.0
1192,A3,75.5,0.25,56,111.0
1193,G#1,75.5,0.25,100,111.0
1194,G#1,75.5,0.25,100,111.0
1195,G#2,75.5,0.25,73,111.0
1196,C2,75.5,183/1000,82,111.0
1197,B3,75.517,367/1000,74,111.0
1198,A1,75.75,0.25,83,111.0
1199,A1,75.75,0.25,83,111.0
1200,D4,75.792,26/125,94,111.0
1201,B1,76.0,0.5,92,111.0
1202,B1,76.0,0.5,92,111.0
1203,D2,76.0,0.75,123,111.0
1204,G#2,76.0,0.25,92,111.0
1205,C2,76.0,51/125,117,111.0
1206,C2,76.0,0.5,104,111.0
1207,D4,76.0,1/20,94,111.0
1208,F#4,76.0,0.25,106,111.0
1209,D4,76.0,0.25,106,111.0
1210,B3,76.0,0.25,106,111.0
1211,F#4,76.0,0.25,81,111.0
1212,D4,76.0,0.25,81,111.0
1213,B3,76.0,0.25,81,111.0
1214,F#4,76.008,19/20,114,111.0
1215,B3,76.25,0.25,94,111.0
1216,B3,76.25,0.25,69,111.0
1217,B3,76.5,0.25,71,111.0
1218,B3,76.5,0.25,46,111.0
1219,G#2,76.5,0.25,57,111.0
1220,B1,76.75,0.25,71,111.0
1221,B1,76.75,0.25,71,111.0
1222,C2,76.75,67/1000,94,111.0
1223,F#4,76.75,0.25,104,111.0
1224,B3,76.75,0.25,104,111.0
1225,D4,76.75,0.25,104,111.0
1226,F#4,76.75,0.25,79,111.0
1227,B3,76.75,0.25,79,111.0
1228,D4,76.75,0.25,79,111.0
1229,B3,77.0,0.25,98,111.0
1230,B3,77.0,0.25,73,111.0
1231,B1,77.0,0.5,82,111.0
1232,B1,77.0,0.5,82,111.0
1233,D2,77.0,1.75,123,111.0
1234,G#2,77.0,0.25,96,111.0
1235,C2,77.0,167/1000,79,111.0
1236,B3,77.008,19/40,104,111.0
1237,B3,77.25,0.25,80,111.0
1238,B3,77.25,0.25,55,111.0
1239,A1,77.5,0.5,88,111.0
1240,A1,77.5,0.5,88,111.0
1241,G#2,77.5,0.25,81,111.0
1242,C2,77.5,167/1000,101,111.0
1243,F#4,77.5,0.25,103,111.0
1244,B3,77.5,0.25,103,111.0
1245,D4,77.5,0.25,103,111.0
1246,F#4,77.5,0.25,78,111.0
1247,B3,77.5,0.25,78,111.0
1248,D4,77.5,0.25,78,111.0
1249,D4,77.517,1033/1000,113,111.0
1250,B1,78.0,0.5,88,111.0
1251,B1,78.0,0.5,88,111.0
1252,G#2,78.0,0.25,96,111.0
1253,C2,78.0,83/1000,90,111.0
1254,C2,78.25,79/500,66,111.0
1255,E4,78.492,0.5,83,111.0
1256,G#2,78.5,0.25,68,111.0
1257,F#4,78.5,0.5,108,111.0
1258,B3,78.5,0.5,108,111.0
1259,D4,78.5,0.5,108,111.0
1260,F#4,78.5,0.5,83,111.0
1261,B3,78.5,0.5,83,111.0
1262,D4,78.5,0.5,83,111.0
1263,B1,78.75,0.25,97,111.0
1264,B1,78.75,0.25,97,111.0
1265,C2,78.75,67/1000,80,111.0
1266,A1,79.0,0.5,101,111.0
1267,A1,79.0,0.5,101,111.0
1268,D2,79.0,1.0,125,111.0
1269,G#2,79.0,0.25,92,111.0
1270,C2,79.0,9/40,73,111.0
1271,B3,79.025,11/20,104,111.0
1272,D4,79.483,517/1000,92,111.0
1273,B1,79.5,0.5,88,111.0
1274,B1,79.5,0.5,88,111.0
1275,G#2,79.5,0.25,71,111.0
1276,C2,79.5,24/125,76,111.0
1277,F#4,79.975,1/40,92,111.0
1278,E1,80.0,0.5,101,111.0
1279,E1,80.0,0.5,101,111.0
1280,D2,80.0,0.75,125,111.0
1281,G#2,80.0,0.25,96,111.0
1282,C2,80.0,229/500,99,111.0
1283,F#4,80.0,429/500,92,111.0
1284,D4,80.0,17/1000,92,111.0
1285,A4,80.0,0.25,113,111.0
1286,D4,80.0,0.25,113,111.0
1287,E4,80.0,0.25,113,111.0
1288,A4,80.0,0.25,88,111.0
1289,D4,80.0,0.25,88,111.0
1290,E4,80.0,0.25,88,111.0
1291,B3,80.25,0.25,91,111.0
1292,B3,80.25,0.25,66,111.0
1293,C3,80.25,26/125,117,111.0
1294,B3,80.5,0.25,79,111.0
1295,B3,80.5,0.25,54,111.0
1296,G#2,80.5,0.25,81,111.0
1297,E1,80.75,0.25,71,111.0
1298,E1,80.75,0.25,71,111.0
1299,C2,80.75,117/1000,85,111.0
1300,D4,80.75,0.25,102,111.0
1301,E4,80.75,0.25,102,111.0
1302,A4,80.75,0.25,102,111.0
1303,D4,80.75,0.25,77,111.0
1304,E4,80.75,0.25,77,111.0
1305,A4,80.75,0.25,77,111.0
1306,B3,81.0,0.25,80,111.0
1307,B3,81.0,0.25,55,111.0
1308,F#1,81.0,0.5,119,111.0
1309,F#1,81.0,0.5,119,111.0
1310,D2,81.0,1.25,117,111.0
1311,G#2,81.0,0.25,100,111.0
1312,C2,81.0,26/125,74,111.0
1313,C3,81.0,121/500,113,111.0
1314,F#4,81.017,39/40,104,111.0
1315,B3,81.25,0.25,72,111.0
1316,B3,81.25,0.25,47,111.0
1317,G#1,81.5,0.5,100,111.0
1318,G#1,81.5,0.5,100,111.0
1319,G#2,81.5,0.25,84,111.0
1320,C2,81.5,24/125,67,111.0
1321,A2,81.5,29/500,92,111.0
1322,E4,81.5,0.5,101,111.0
1323,G#4,81.5,0.5,101,111.0
1324,B3,81.5,0.5,101,111.0
1325,E4,81.5,0.5,76,111.0
1326,G#4,81.5,0.5,76,111.0
1327,B3,81.5,0.5,76,111.0
1328,A2,81.75,3/20,107,111.0
1329,A1,82.0,0.5,104,111.0
1330,A1,82.0,0.5,104,111.0
1331,G#2,82.0,0.25,100,111.0
1332,C2,82.0,23/250,82,111.0
1333,E4,82.0,317/1000,86,111.0
1334,C2,82.25,183/1000,66,111.0
1335,A2,82.25,7/40,113,111.0
1336,D4,82.258,121/500,92,111.0
1337,B3,82.492,767/1000,104,111.0
1338,D2,82.5,0.25,94,111.0
1339,G#2,82.5,0.25,81,111.0
1340,B3,82.5,0.5,109,111.0
1341,G#4,82.5,0.5,109,111.0
1342,E4,82.5,0.5,109,111.0
1343,B3,82.5,0.5,84,111.0
1344,G#4,82.5,0.5,84,111.0
1345,E4,82.5,0.5,84,111.0
1346,A1,82.75,0.25,85,111.0
1347,A1,82.75,0.25,85,111.0
1348,C2,82.75,27/250,80,111.0
1349,G2,82.75,117/1000,104,111.0
1350,A1,83.0,0.5,70,111.0
1351,A1,83.0,0.5,70,111.0
1352,D2,83.0,0.25,113,111.0
1353,G#2,83.0,0.25,96,111.0
1354,C2,83.0,267/1000,80,111.0
1355,G2,83.0,7/40,79,111.0
1356,G3,83.45,117/1000,112,111.0
1357,G2,83.45,117/1000,112,111.0
1358,G#1,83.5,0.25,109,111.0
1359,G#1,83.5,0.25,109,111.0
1360,D2,83.5,0.25,99,111.0
1361,G#2,83.5,0.25,84,111.0
1362,C2,83.5,79/500,78,111.0
1363,B3,83.55,383/1000,113,111.0
1364,A1,83.75,0.25,88,111.0
1365,A1,83.75,0.25,88,111.0
1366,D2,83.75,0.25,86,111.0
1367,F2,83.75,133/1000,85,111.0
1368,A3,83.975,1/40,113,111.0
1369,F#4,83.975,1/40,114,111.0
1370,B1,84.0,0.5,97,111.0
1371,B1,84.0,0.5,97,111.0
1372,D2,84.0,0.75,86,111.0
1373,G#2,84.0,0.25,104,111.0
1374,C2,84.0,417/1000,110,111.0
1375,A3,84.0,23/250,113,111.0
1376,F#4,84.0,37/40,114,111.0
1377,F#4,84.0,0.25,103,111.0
1378,D4,84.0,0.25,103,111.0
1379,B3,84.0,0.25,103,111.0
1380,F#4,84.0,0.25,78,111.0
1381,D4,84.0,0.25,78,111.0
1382,B3,84.0,0.25,78,111.0
1383,B3,84.25,0.25,91,111.0
1384,B3,84.25,0.25,66,111.0
1385,B3,84.5,0.25,61,111.0
1386,B3,84.5,0.25,36,111.0
1387,G#2,84.5,0.25,86,111.0
1388,B1,84.75,0.25,82,111.0
1389,B1,84.75,0.25,82,111.0
1390,C2,84.75,67/1000,82,111.0
1391,F#4,84.75,0.25,98,111.0
1392,D4,84.75,0.25,98,111.0
1393,B3,84.75,0.25,98,111.0
1394,F#4,84.75,0.25,73,111.0
1395,D4,84.75,0.25,73,111.0
1396,B3,84.75,0.25,73,111.0
1397,B3,84.983,17/40,99,111.0
1398,B3,85.0,0.25,83,111.0
1399,B3,85.0,0.25,58,111.0
1400,B1,85.0,0.5,79,111.0
1401,B1,85.0,0.5,79,111.0
1402,D2,85.0,1.75,120,111.0
1403,G#2,85.0,0.25,100,111.0
1404,C2,85.0,26/125,74,111.0
1405,B3,85.25,0.25,77,111.0
1406,B3,85.25,0.25,52,111.0
1407,A1,85.5,0.5,88,111.0
1408,A1,85.5,0.5,88,111.0
1409,G#2,85.5,0.25,92,111.0
1410,C2,85.5,1/5,94,111.0
1411,D4,85.5,521/500,117,111.0
1412,F#4,85.5,0.25,107,111.0
1413,D4,85.5,0.25,107,111.0
1414,B3,85.5,0.25,107,111.0
1415,F#4,85.5,0.25,82,111.0
1416,D4,85.5,0.25,82,111.0
1417,B3,85.5,0.25,82,111.0
1418,B1,86.0,0.5,92,111.0
1419,B1,86.0,0.5,92,111.0
1420,G#2,86.0,0.25,100,111.0
1421,C2,86.0,3/40,83,111.0
1422,C2,86.25,24/125,67,111.0
1423,E4,86.492,27/40,97,111.0
1424,G#2,86.5,0.25,86,111.0
1425,F#4,86.5,0.5,99,111.0
1426,D4,86.5,0.5,99,111.0
1427,B3,86.5,0.5,99,111.0
1428,F#4,86.5,0.5,74,111.0
1429,D4,86.5,0.5,74,111.0
1430,B3,86.5,0.5,74,111.0
1431,B1,86.75,0.25,97,111.0
1432,B1,86.75,0.25,97,111.0
1433,C2,86.75,1/10,76,111.0
1434,A1,87.0,0.5,104,111.0
1435,A1,87.0,0.5,104,111.0
1436,D2,87.0,1.0,117,111.0
1437,G#2,87.0,0.25,96,111.0
1438,C2,87.0,233/1000,78,111.0
1439,B1,87.5,0.5,92,111.0
1440,B1,87.5,0.5,92,111.0
1441,G#2,87.5,0.25,89,111.0
1442,C2,87.5,133/1000,80,111.0
1443,E1,88.0,0.5,101,111.0
1444,E1,88.0,0.5,101,111.0
1445,D2,88.0,0.75,117,111.0
1446,G#2,88.0,0.25,92,111.0
1447,C2,88.0,417/1000,107,111.0
1448,E4,88.0,0.25,100,111.0
1449,B3,88.0,0.25,100,111.0
1450,G#4,88.0,0.25,100,111.0
1451,E4,88.0,0.25,75,111.0
1452,B3,88.0,0.25,75,111.0
1453,G#4,88.0,0.25,75,111.0
1454,B3,88.25,0.25,93,111.0
1455,B3,88.25,0.25,68,111.0
1456,B3,88.5,0.25,74,111.0
1457,B3,88.5,0.25,49,111.0
1458,G#2,88.5,0.25,84,111.0
1459,E1,88.75,0.25,66,111.0
1460,E1,88.75,0.25,66,111.0
1461,C2,88.75,29/500,66,111.0
1462,E4,88.75,0.25,106,111.0
1463,B3,88.75,0.25,106,111.0
1464,G#4,88.75,0.25,106,111.0
1465,E4,88.75,0.25,81,111.0
1466,B3,88.75,0.25,81,111.0
1467,G#4,88.75,0.25,81,111.0
1468,F#1,89.0,0.5,109,111.0
1469,F#1,89.0,0.5,109,111.0
1470,D2,89.0,1.75,117,111.0
1471,G#2,89.0,0.25,92,111.0
1472,C2,89.0,183/1000,66,111.0
1473,B3,89.25,0.25,79,111.0
1474,B3,89.25,0.25,54,111.0
1475,G#1,89.5,0.5,100,111.0
1476,G#1,89.5,0.5,100,111.0
1477,G#2,89.5,0.25,86,111.0
1478,C2,89.5,7/40,92,111.0
1479,E4,89.5,0.5,100,111.0
1480,A3,89.5,0.5,100,111.0
1481,D4,89.5,0.5,100,111.0
1482,E4,89.5,0.5,75,111.0
1483,A3,89.5,0.5,75,111.0
1484,D4,89.5,0.5,75,111.0
1485,A1,90.0,0.5,99,111.0
1486,A1,90.0,0.5,99,111.0
1487,G#2,90.0,0.25,100,111.0
1488,C2,90.0,27/250,99,111.0
1489,C2,90.25,1/5,66,111.0
1490,G#2,90.5,0.25,79,111.0
1491,E4,90.5,0.5,100,111.0
1492,C#4,90.5,0.5,100,111.0
1493,A3,90.5,0.5,100,111.0
1494,E4,90.5,0.5,75,111.0
1495,C#4,90.5,0.5,75,111.0
1496,A3,90.5,0.5,75,111.0
1497,A1,90.75,0.25,80,111.0
1498,A1,90.75,0.25,80,111.0
1499,C2,90.75,1/10,85,111.0
1500,A1,91.0,0.5,75,111.0
1501,A1,91.0,0.5,75,111.0
1502,D2,91.0,1.0,110,111.0
1503,G#2,91.0,0.25,100,111.0
1504,C2,91.0,121/500,72,111.0
1505,B3,91.008,23/40,107,111.0
1506,A3,91.5,0.5,81,111.0
1507,A3,91.5,0.5,56,111.0
1508,G#1,91.5,0.25,109,111.0
1509,G#1,91.5,0.25,109,111.0
1510,G#2,91.5,0.25,92,111.0
1511,C2,91.5,24/125,86,111.0
1512,D4,91.5,7/20,104,111.0
1513,A1,91.75,0.25,80,111.0
1514,A1,91.75,0.25,80,111.0
1515,F#4,91.95,1/20,114,111.0
1516,B1,92.0,0.5,79,111.0
1517,B1,92.0,0.5,79,111.0
1518,D2,92.0,0.75,110,111.0
1519,G#2,92.0,0.25,100,111.0
1520,C2,92.0,17/40,104,111.0
1521,F#4,92.0,1.0,114,111.0
1522,B3,92.0,0.25,107,111.0
1523,F#4,92.0,0.25,107,111.0
1524,D4,92.0,0.25,107,111.0
1525,B3,92.0,0.25,82,111.0
1526,F#4,92.0,0.25,82,111.0
1527,D4,92.0,0.25,82,111.0
1528,B3,92.25,0.25,87,111.0
1529,B3,92.25,0.25,62,111.0
1530,B3,92.5,0.25,63,111.0
1531,B3,92.5,0.25,38,111.0
1532,G#2,92.5,0.25,84,111.0
1533,B3,92.75,0.5,91,111.0
1534,B3,92.75,0.5,66,111.0
1535,B1,92.75,0.25,71,111.0
1536,B1,92.75,0.25,71,111.0
1537,C2,92.75,1/10,66,111.0
1538,F#4,92.75,0.25,112,111.0
1539,D4,92.75,0.25,112,111.0
1540,F#4,92.75,0.25,87,111.0
1541,D4,92.75,0.25,87,111.0
1542,B1,93.0,0.5,67,111.0
1543,B1,93.0,0.5,67,111.0
1544,D2,93.0,1.75,113,111.0
1545,G#2,93.0,0.25,96,111.0
1546,C2,93.0,129/500,74,111.0
1547,B3,93.017,483/1000,92,111.0
1548,B3,93.25,0.25,79,111.0
1549,B3,93.25,0.25,54,111.0
1550,D4,93.492,277/250,104,111.0
1551,A1,93.5,0.5,90,111.0
1552,A1,93.5,0.5,90,111.0
1553,G#2,93.5,0.25,96,111.0
1554,C2,93.5,24/125,97,111.0
1555,D4,93.5,0.25,107,111.0
1556,B3,93.5,0.25,107,111.0
1557,F#4,93.5,0.25,107,111.0
1558,D4,93.5,0.25,82,111.0
1559,B3,93.5,0.25,82,111.0
1560,F#4,93.5,0.25,82,111.0
1561,B1,94.0,0.5,80,111.0
1562,B1,94.0,0.5,80,111.0
1563,G#2,94.0,0.25,89,111.0
1564,C2,94.0,3/40,78,111.0
1565,C2,94.25,24/125,72,111.0
1566,G#2,94.5,0.25,79,111.0
1567,F#4,94.5,0.5,102,111.0
1568,D4,94.5,0.5,102,111.0
1569,B3,94.5,0.5,102,111.0
1570,F#4,94.5,0.5,77,111.0
1571,D4,94.5,0.5,77,111.0
1572,B3,94.5,0.5,77,111.0
1573,E4,94.525,483/1000,78,111.0
1574,B1,94.75,0.25,80,111.0
1575,B1,94.75,0.25,80,111.0
1576,C2,94.75,0.125,92,111.0
1577,A1,95.0,0.5,97,111.0
1578,A1,95.0,0.5,97,111.0
1579,D2,95.0,1.0,120,111.0
1580,G#2,95.0,0.25,89,111.0
1581,C2,95.0,0.25,72,111.0
1582,B3,95.008,433/1000,94,111.0
1583,D4,95.45,127/250,104,111.0
1584,B1,95.5,0.5,83,111.0
1585,B1,95.5,0.5,83,111.0
1586,G#2,95.5,0.25,84,111.0
1587,C2,95.5,183/1000,99,111.0
1588,F#4,95.983,17/1000,100,111.0
1589,E4,96.0,0.5,117,111.0
1590,E4,96.0,0.5,92,111.0
1591,E1,96.0,0.5,104,111.0
1592,E1,96.0,0.5,104,111.0
1593,D2,96.0,0.75,120,111.0
1594,G#2,96.0,0.25,86,111.0
1595,C2,96.0,383/1000,97,111.0
1596,F#4,96.0,421/500,100,111.0
1597,A4,96.0,0.25,102,111.0
1598,D4,96.0,0.25,102,111.0
1599,A4,96.0,0.25,77,111.0
1600,D4,96.0,0.25,77,111.0
1601,B3,96.25,0.25,81,111.0
1602,B3,96.25,0.25,56,111.0
1603,B3,96.5,0.25,84,111.0
1604,B3,96.5,0.25,59,111.0
1605,G#2,96.5,0.25,81,111.0
1606,E1,96.75,0.25,62,111.0
1607,E1,96.75,0.25,62,111.0
1608,C2,96.75,23/250,73,111.0
1609,E4,96.75,0.25,95,111.0
1610,A4,96.75,0.25,95,111.0
1611,D4,96.75,0.25,95,111.0
1612,E4,96.75,0.25,70,111.0
1613,A4,96.75,0.25,70,111.0
1614,D4,96.75,0.25,70,111.0
1615,F#4,96.983,1017/1000,79,111.0
1616,B3,97.0,0.25,79,111.0
1617,B3,97.0,0.25,54,111.0
1618,F#1,97.0,0.5,119,111.0
1619,F#1,97.0,0.5,119,111.0
1620,D2,97.0,1.75,110,111.0
1621,G#2,97.0,0.25,89,111.0
1622,C2,97.0,121/500,73,111.0
1623,G#1,97.5,0.5,100,111.0
1624,G#1,97.5,0.5,100,111.0
1625,G#2,97.5,0.25,84,111.0
1626,C2,97.5,79/500,83,111.0
1627,G#4,97.5,0.5,109,111.0
1628,E4,97.5,0.5,109,111.0
1629,B3,97.5,0.5,109,111.0
1630,G#4,97.5,0.5,84,111.0
1631,E4,97.5,0.5,84,111.0
1632,B3,97.5,0.5,84,111.0
1633,E4,97.958,283/1000,94,111.0
1634,A1,98.0,0.5,94,111.0
1635,A1,98.0,0.5,94,111.0
1636,G#2,98.0,0.25,89,111.0
1637,C2,98.0,23/250,88,111.0
1638,D4,98.175,233/1000,94,111.0
1639,C2,98.25,24/125,67,111.0
1640,B3,98.4,19/20,78,111.0
1641,G#2,98.5,0.25,77,111.0
1642,B3,98.5,0.5,101,111.0
1643,G#4,98.5,0.5,101,111.0
1644,E4,98.5,0.5,101,111.0
1645,B3,98.5,0.5,76,111.0
1646,G#4,98.5,0.5,76,111.0
1647,E4,98.5,0.5,76,111.0
1648,A1,98.75,0.25,88,111.0
1649,A1,98.75,0.25,88,111.0
1650,C2,98.75,0.125,94,111.0
1651,A1,99.0,0.5,71,111.0
1652,A1,99.0,0.5,71,111.0
1653,D2,99.0,0.25,101,111.0
1654,G#2,99.0,0.25,79,111.0
1655,C2,99.0,121/500,69,111.0
1656,G3,99.467,121/500,56,111.0
1657,G#1,99.5,0.25,104,111.0
1658,G#1,99.5,0.25,104,111.0
1659,D2,99.5,0.25,99,111.0
1660,G#2,99.5,0.25,86,111.0
1661,C2,99.5,71/500,78,111.0
1662,B3,99.517,9/20,107,111.0
1663,A1,99.75,0.25,82,111.0
1664,A1,99.75,0.25,82,111.0
1665,D2,99.75,0.25,74,111.0
1666,F#4,99.992,1/125,104,111.0
1667,B1,100.0,0.5,78,111.0
1668,B1,100.0,0.5,78,111.0
1669,D2,100.0,0.5,74,111.0
1670,G#2,100.0,0.25,81,111.0
1671,C2,100.0,433/1000,104,111.0
1672,F#4,100.0,39/40,104,111.0
1673,F#4,100.0,0.25,96,111.0
1674,B3,100.0,0.25,96,111.0
1675,D4,100.0,0.25,96,111.0
1676,F#4,100.0,0.25,71,111.0
1677,B3,100.0,0.25,71,111.0
1678,D4,100.0,0.25,71,111.0
1679,A3,100.042,7/40,92,111.0
1680,B3,100.25,0.25,91,111.0
1681,B3,100.25,0.25,66,111.0
1682,B3,100.5,0.25,71,111.0
1683,B3,100.5,0.25,46,111.0
1684,G#2,100.5,0.25,84,111.0
1685,B1,100.75,0.25,75,111.0
1686,B1,100.75,0.25,75,111.0
1687,C2,100.75,0.125,92,111.0
1688,D4,100.75,0.25,104,111.0
1689,F#4,100.75,0.25,104,111.0
1690,B3,100.75,0.25,104,111.0
1691,D4,100.75,0.25,79,111.0
1692,F#4,100.75,0.25,79,111.0
1693,B3,100.75,0.25,79,111.0
1694,B1,101.0,0.5,67,111.0
1695,B1,101.0,0.5,67,111.0
1696,D2,101.0,1.75,123,111.0
1697,G#2,101.0,0.25,86,111.0
1698,C2,101.0,0.25,71,111.0
1699,B3,101.0,467/1000,97,111.0
1700,B3,101.25,0.25,77,111.0
1701,B3,101.25,0.25,52,111.0
1702,A1,101.5,0.5,86,111.0
1703,A1,101.5,0.5,86,111.0
1704,G#2,101.5,0.25,84,111.0
1705,C2,101.5,167/1000,86,111.0
1706,F#4,101.5,0.25,105,111.0
1707,D4,101.5,0.25,105,111.0
1708,B3,101.5,0.25,105,111.0
1709,F#4,101.5,0.25,80,111.0
1710,D4,101.5,0.25,80,111.0
1711,B3,101.5,0.25,80,111.0
1712,D4,101.508,521/500,107,111.0
1713,B1,102.0,0.5,92,111.0
1714,B1,102.0,0.5,92,111.0
1715,G#2,102.0,0.25,86,111.0
1716,C2,102.0,3/40,86,111.0
1717,C2,102.25,24/125,71,111.0
1718,E4,102.492,517/1000,99,111.0
1719,B3,102.5,0.5,99,111.0
1720,B3,102.5,0.5,74,111.0
1721,G#2,102.5,0.25,77,111.0
1722,F#4,102.5,0.25,111,111.0
1723,D4,102.5,0.25,111,111.0
1724,F#4,102.5,0.25,86,111.0
1725,D4,102.5,0.25,86,111.0
1726,B1,102.75,0.5,86,111.0
1727,B1,102.75,0.5,86,111.0
1728,C2,102.75,1/10,78,111.0
1729,A1,103.0,0.5,86,111.0
1730,A1,103.0,0.5,86,111.0
1731,D2,103.0,1.0,110,111.0
1732,G#2,103.0,0.25,81,111.0
1733,C2,103.0,233/1000,66,111.0
1734,B1,103.5,0.5,94,111.0
1735,B1,103.5,0.5,94,111.0
1736,G#2,103.5,0.25,86,111.0
1737,C2,103.5,183/1000,82,111.0
1738,E1,104.0,0.5,67,111.0
1739,E1,104.0,0.5,67,111.0
1740,D2,104.0,0.75,110,111.0
1741,G#2,104.0,0.25,81,111.0
1742,C2,104.0,51/125,117,111.0
1743,C2,104.0,0.5,104,111.0
1744,E4,104.0,0.25,108,111.0
1745,B3,104.0,0.25,108,111.0
1746,G#4,104.0,0.25,108,111.0
1747,E4,104.0,0.25,83,111.0
1748,B3,104.0,0.25,83,111.0
1749,G#4,104.0,0.25,83,111.0
1750,B3,104.25,0.25,93,111.0
1751,B3,104.25,0.25,68,111.0
1752,B3,104.5,0.25,66,111.0
1753,B3,104.5,0.25,41,111.0
1754,G#2,104.5,0.25,75,111.0
1755,E1,104.75,0.25,60,111.0
1756,E1,104.75,0.25,60,111.0
1757,C2,104.75,67/1000,94,111.0
1758,E4,104.75,0.25,97,111.0
1759,B3,104.75,0.25,97,111.0
1760,G#4,104.75,0.25,97,111.0
1761,E4,104.75,0.25,72,111.0
1762,B3,104.75,0.25,72,111.0
1763,G#4,104.75,0.25,72,111.0
1764,F#1,105.0,0.5,114,111.0
1765,F#1,105.0,0.5,114,111.0
1766,D2,105.0,1.75,113,111.0
1767,G#2,105.0,0.25,86,111.0
1768,C2,105.0,167/1000,79,111.0
1769,E4,105.0,1033/1000,104,111.0
1770,B3,105.25,0.25,79,111.0
1771,B3,105.25,0.25,54,111.0
1772,A3,105.5,0.25,93,111.0
1773,A3,105.5,0.25,68,111.0
1774,G#1,105.5,0.5,92,111.0
1775,G#1,105.5,0.5,92,111.0
1776,G#2,105.5,0.25,58,111.0
1777,C2,105.5,167/1000,101,111.0
1778,E4,105.5,0.5,96,111.0
1779,D4,105.5,0.5,96,111.0
1780,E4,105.5,0.5,70,111.0
1781,D4,105.5,0.5,70,111.0
1782,A1,106.0,0.5,92,111.0
1783,A1,106.0,0.5,92,111.0
1784,G#2,106.0,0.25,89,111.0
1785,C2,106.0,83/1000,90,111.0
1786,D4,106.017,721/500,101,111.0
1787,C2,106.25,79/500,66,111.0
1788,G#2,106.5,0.25,86,111.0
1789,E4,106.5,0.75,92,111.0
1790,C#4,106.5,0.75,92,111.0
1791,A3,106.5,0.75,92,111.0
1792,E4,106.5,0.75,67,111.0
1793,C#4,106.5,0.75,67,111.0
1794,A3,106.5,0.75,67,111.0
1795,A1,106.75,0.25,82,111.0
1796,A1,106.75,0.25,82,111.0
1797,C2,106.75,67/1000,80,111.0
1798,A1,107.0,0.5,62,111.0
1799,A1,107.0,0.5,62,111.0
1800,D2,107.0,1.0,110,111.0
1801,G#2,107.0,0.25,81,111.0
1802,C2,107.0,9/40,73,111.0
1803,A3,107.5,0.25,76,111.0
1804,A3,107.5,0.25,51,111.0
1805,G#1,107.5,0.25,104,111.0
1806,G#1,107.5,0.25,104,111.0
1807,G#2,107.5,0.25,92,111.0
1808,C2,107.5,24/125,76,111.0
1809,B3,107.508,13/40,90,111.0
1810,A1,107.75,0.25,88,111.0
1811,A1,107.75,0.25,88,111.0
1812,D4,107.758,121/500,82,111.0
1813,B1,108.0,0.5,74,111.0
1814,B1,108.0,0.5,74,111.0
1815,D2,108.0,0.75,110,111.0
1816,G#2,108.0,0.25,114,111.0
1817,C2,108.0,229/500,99,111.0
1818,F#4,108.0,39/40,109,111.0
1819,D4,108.0,1/125,82,111.0
1820,F#4,108.0,0.25,100,111.0
1821,B3,108.0,0.25,100,111.0
1822,D4,108.0,0.25,100,111.0
1823,F#4,108.0,0.25,75,111.0
1824,B3,108.0,0.25,75,111.0
1825,D4,108.0,0.25,75,111.0
1826,B3,108.25,0.25,83,111.0
1827,B3,108.25,0.25,58,111.0
1828,B3,108.5,0.25,58,111.0
1829,B3,108.5,0.25,33,111.0
1830,G#2,108.5,0.25,68,111.0
1831,B1,108.75,0.25,79,111.0
1832,B1,108.75,0.25,79,111.0
1833,C2,108.75,117/1000,85,111.0
1834,F#4,108.75,0.25,99,111.0
1835,D4,108.75,0.25,99,111.0
1836,B3,108.75,0.25,99,111.0
1837,F#4,108.75,0.25,74,111.0
1838,D4,108.75,0.25,74,111.0
1839,B3,108.75,0.25,74,111.0
1840,B1,109.0,0.5,66,111.0
1841,B1,109.0,0.5,66,111.0
1842,D2,109.0,1.75,107,111.0
1843,G#2,109.0,0.25,109,111.0
1844,C2,109.0,26/125,74,111.0
1845,B3,109.017,3/10,90,111.0
1846,B3,109.25,0.25,78,111.0
1847,B3,109.25,0.25,53,111.0
1848,D4,109.492,1067/1000,117,111.0
1849,A1,109.5,0.5,85,111.0
1850,A1,109.5,0.5,85,111.0
1851,G#2,109.5,0.25,53,111.0
1852,C2,109.5,24/125,67,111.0
1853,F#4,109.5,0.25,103,111.0
1854,D4,109.5,0.25,103,111.0
1855,B3,109.5,0.25,103,111.0
1856,F#4,109.5,0.25,78,111.0
1857,D4,109.5,0.25,78,111.0
1858,B3,109.5,0.25,78,111.0
1859,B1,110.0,0.5,86,111.0
1860,B1,110.0,0.5,86,111.0
1861,G#2,110.0,0.25,104,111.0
1862,C2,110.0,23/250,82,111.0
1863,C2,110.25,183/1000,66,111.0
1864,G#2,110.5,0.25,79,111.0
1865,E4,110.5,229/500,83,111.0
1866,F#4,110.5,0.25,104,111.0
1867,B3,110.5,0.25,104,111.0
1868,D4,110.5,0.25,104,111.0
1869,F#4,110.5,0.25,79,111.0
1870,B3,110.5,0.25,79,111.0
1871,D4,110.5,0.25,79,111.0
1872,B1,110.75,0.25,80,111.0
1873,B1,110.75,0.25,80,111.0
1874,C2,110.75,27/250,80,111.0
1875,B3,110.992,0.5,92,111.0
1876,A1,111.0,0.5,94,111.0
1877,A1,111.0,0.5,94,111.0
1878,D2,111.0,1.0,113,111.0
1879,G#2,111.0,0.25,109,111.0
1880,C2,111.0,267/1000,80,111.0
1881,B1,111.5,0.5,92,111.0
1882,B1,111.5,0.5,92,111.0
1883,G#2,111.5,0.25,73,111.0
1884,C2,111.5,79/500,78,111.0
1885,D4,111.5,19/40,99,111.0
1886,E1,112.0,0.5,94,111.0
1887,E1,112.0,0.5,94,111.0
1888,D2,112.0,0.75,113,111.0
1889,G#2,112.0,0.25,109,111.0
1890,C2,112.0,417/1000,110,111.0
1891,G#4,112.0,0.25,89,111.0
1892,E4,112.0,0.25,89,111.0
1893,A4,112.0,0.25,89,111.0
1894,G#4,112.0,0.25,64,111.0
1895,E4,112.0,0.25,64,111.0
1896,A4,112.0,0.25,64,111.0
1897,F#4,112.008,101/125,96,111.0
1898,D4,112.25,0.25,48,111.0
1899,B3,112.25,0.25,48,111.0
1900,D4,112.25,0.25,23,111.0
1901,B3,112.25,0.25,23,111.0
1902,B3,112.5,0.25,78,111.0
1903,B3,112.5,0.25,53,111.0
1904,G#2,112.5,0.25,73,111.0
1905,C3,112.5,79/500,113,111.0
1906,E1,112.75,0.25,61,111.0
1907,E1,112.75,0.25,61,111.0
1908,C2,112.75,67/1000,82,111.0
1909,E4,112.75,0.25,93,111.0
1910,D4,112.75,0.25,93,111.0
1911,A4,112.75,0.25,93,111.0
1912,E4,112.75,0.25,68,111.0
1913,D4,112.75,0.25,68,111.0
1914,A4,112.75,0.25,68,111.0
1915,F#4,112.975,33/40,96,111.0
1916,B3,113.0,0.25,80,111.0
1917,B3,113.0,0.25,55,111.0
1918,F#1,113.0,0.5,114,111.0
1919,F#1,113.0,0.5,114,111.0
1920,D2,113.0,1.75,104,111.0
1921,G#2,113.0,0.25,114,111.0
1922,C2,113.0,26/125,74,111.0
1923,C3,113.0,0.125,94,111.0
1924,B3,113.25,0.25,72,111.0
1925,B3,113.25,0.25,47,111.0
1926,C3,113.25,0.125,99,111.0
1927,G#1,113.5,0.5,96,111.0
1928,G#1,113.5,0.5,96,111.0
1929,G#2,113.5,0.25,84,111.0
1930,C2,113.5,1/5,94,111.0
1931,E4,113.5,0.5,92,111.0
1932,G#4,113.5,0.5,92,111.0
1933,B3,113.5,0.5,92,111.0
1934,E4,113.5,0.5,67,111.0
1935,G#4,113.5,0.5,67,111.0
1936,B3,113.5,0.5,67,111.0
1937,C3,113.75,23/250,85,111.0
1938,A1,114.0,0.5,101,111.0
1939,A1,114.0,0.5,101,111.0
1940,G#2,114.0,0.25,104,111.0
1941,C2,114.0,3/40,83,111.0
1942,B2,114.0,23/250,104,111.0
1943,C2,114.25,24/125,67,111.0
1944,B2,114.25,27/250,83,111.0
1945,F#4,114.467,617/1000,109,111.0
1946,G#2,114.5,0.25,100,111.0
1947,B3,114.5,0.5,109,111.0
1948,G#4,114.5,0.5,109,111.0
1949,E4,114.5,0.5,109,111.0
1950,B3,114.5,0.5,84,111.0
1951,G#4,114.5,0.5,84,111.0
1952,E4,114.5,0.5,84,111.0
1953,A1,114.75,0.25,76,111.0
1954,A1,114.75,0.25,76,111.0
1955,C2,114.75,1/10,76,111.0
1956,B2,114.75,23/250,101,111.0
1957,A1,115.0,0.25,75,111.0
1958,G#1,115.0,0.5,100,111.0
1959,A1,115.0,0.25,75,111.0
1960,G#1,115.0,0.5,100,111.0
1961,D2,115.0,1.0,90,111.0
1962,G#2,115.0,0.25,119,111.0
1963,C2,115.0,233/1000,78,111.0
1964,A2,115.0,23/250,99,111.0
1965,E4,115.025,11/20,92,111.0
1966,A2,115.25,67/1000,97,111.0
1967,A1,115.5,0.5,73,111.0
1968,A1,115.5,0.5,73,111.0
1969,B-2,115.5,0.25,114,111.0
1970,C2,115.5,133/1000,80,111.0
1971,G2,115.5,1/20,101,111.0
1972,D4,115.525,9/40,83,111.0
1973,B3,115.742,129/500,90,111.0
1974,G2,115.75,29/500,101,111.0
1975,B1,116.0,0.5,83,111.0
1976,B1,116.0,0.5,83,111.0
1977,D2,116.0,0.75,90,111.0
1978,G#2,116.0,0.25,114,111.0
1979,C2,116.0,417/1000,107,111.0
1980,C#3,116.0,83/1000,119,111.0
1981,B3,116.0,2067/1000,90,111.0
1982,F#4,116.0,0.25,107,111.0
1983,B3,116.0,0.25,107,111.0
1984,D4,116.0,0.25,107,111.0
1985,F#4,116.0,0.25,82,111.0
1986,B3,116.0,0.25,82,111.0
1987,D4,116.0,0.25,82,111.0
1988,B3,116.25,0.25,87,111.0
1989,B3,116.25,0.25,62,111.0
1990,B4,116.25,0.25,120,111.0
1991,B3,116.5,0.25,71,111.0
1992,B3,116.5,0.25,46,111.0
1993,G#4,116.5,0.25,101,111.0
1994,G#2,116.5,0.25,92,111.0
1995,B1,116.75,0.25,83,111.0
1996,B1,116.75,0.25,83,111.0
1997,C2,116.75,29/500,66,111.0
1998,B3,116.75,0.25,101,111.0
1999,F#4,116.75,0.25,101,111.0
2000,D4,116.75,0.25,101,111.0
2001,B3,116.75,0.25,76,111.0
2002,F#4,116.75,0.25,76,111.0
2003,D4,116.75,0.25,76,111.0
2004,B3,117.0,0.25,84,111.0
2005,B3,117.0,0.25,59,111.0
2006,A4,117.0,0.25,127,111.0
2007,D2,117.0,1.75,92,111.0
2008,G#2,117.0,0.25,124,111.0
2009,C2,117.0,183/1000,66,111.0
2010,B3,117.25,0.25,77,111.0
2011,B3,117.25,0.25,52,111.0
2012,B1,117.25,0.25,75,111.0
2013,B1,117.25,0.25,75,111.0
2014,A1,117.5,0.5,70,111.0
2015,A1,117.5,0.5,70,111.0
2016,B4,117.5,0.25,127,111.0
2017,G#2,117.5,0.25,100,111.0
2018,C2,117.5,7/40,92,111.0
2019,F#4,117.5,0.25,109,111.0
2020,B3,117.5,0.25,109,111.0
2021,D4,117.5,0.25,109,111.0
2022,F#4,117.5,0.25,84,111.0
2023,B3,117.5,0.25,84,111.0
2024,D4,117.5,0.25,84,111.0
2025,B1,118.0,0.75,99,111.0
2026,B1,118.0,0.75,99,111.0
2027,G#4,118.0,0.25,127,111.0
2028,G#2,118.0,0.25,119,111.0
2029,C2,118.0,27/250,99,111.0
2030,A4,118.25,0.25,127,111.0
2031,C2,118.25,1/5,66,111.0
2032,G#2,118.5,0.25,92,111.0
2033,F#4,118.5,0.25,105,111.0
2034,B3,118.5,0.25,105,111.0
2035,D4,118.5,0.25,105,111.0
2036,F#4,118.5,0.25,80,111.0
2037,B3,118.5,0.25,80,111.0
2038,D4,118.5,0.25,80,111.0
2039,B1,118.75,0.25,78,111.0
2040,B1,118.75,0.25,78,111.0
2041,B4,118.75,0.25,127,111.0
2042,C2,118.75,1/10,85,111.0
2043,A1,119.0,0.5,101,111.0
2044,A1,119.0,0.5,101,111.0
2045,D2,119.0,1.0,99,111.0
2046,G#2,119.0,0.25,114,111.0
2047,C2,119.0,121/500,72,111.0
2048,D5,119.25,0.25,127,111.0
2049,B1,119.5,0.5,97,111.0
2050,B1,119.5,0.5,97,111.0
2051,G#2,119.5,0.25,96,111.0
2052,C2,119.5,24/125,86,111.0
2053,D5,119.75,0.25,127,111.0
2054,E1,120.0,0.5,99,111.0
2055,E1,120.0,0.5,99,111.0
2056,D2,120.0,0.75,99,111.0
2057,G#2,120.0,0.25,119,111.0
2058,C2,120.0,17/40,104,111.0
2059,E4,120.0,0.25,109,111.0
2060,B3,120.0,0.25,109,111.0
2061,G#4,120.0,0.25,109,111.0
2062,E4,120.0,0.25,84,111.0
2063,B3,120.0,0.25,84,111.0
2064,G#4,120.0,0.25,84,111.0
2065,B3,120.25,0.25,87,111.0
2066,B3,120.25,0.25,62,111.0
2067,B4,120.25,0.25,127,111.0
2068,B3,120.5,0.25,67,111.0
2069,B3,120.5,0.25,42,111.0
2070,G#4,120.5,0.25,127,111.0
2071,G#2,120.5,0.25,81,111.0
2072,E1,120.75,0.25,65,111.0
2073,E1,120.75,0.25,65,111.0
2074,C2,120.75,1/10,66,111.0
2075,E4,120.75,0.25,98,111.0
2076,B3,120.75,0.25,98,111.0
2077,G#4,120.75,0.25,98,111.0
2078,E4,120.75,0.25,73,111.0
2079,B3,120.75,0.25,73,111.0
2080,G#4,120.75,0.25,73,111.0
2081,F#1,121.0,0.5,114,111.0
2082,F#1,121.0,0.5,114,111.0
2083,A4,121.0,0.25,127,111.0
2084,D2,121.0,1.75,110,111.0
2085,G#2,121.0,0.25,119,111.0
2086,C2,121.0,129/500,74,111.0
2087,B3,121.25,0.25,79,111.0
2088,B3,121.25,0.25,54,111.0
2089,G#1,121.5,0.5,89,111.0
2090,G#1,121.5,0.5,89,111.0
2091,B4,121.5,0.25,127,111.0
2092,G#2,121.5,0.25,96,111.0
2093,C2,121.5,24/125,97,111.0
2094,A3,121.5,0.5,101,111.0
2095,E4,121.5,0.5,101,111.0
2096,D4,121.5,0.5,101,111.0
2097,A3,121.5,0.5,76,111.0
2098,E4,121.5,0.5,76,111.0
2099,D4,121.5,0.5,76,111.0
2100,A1,122.0,0.5,80,111.0
2101,A1,122.0,0.5,80,111.0
2102,G#4,122.0,0.25,127,111.0
2103,G#2,122.0,0.25,100,111.0
2104,C2,122.0,3/40,78,111.0
2105,A4,122.25,0.25,127,111.0
2106,C2,122.25,24/125,72,111.0
2107,B-2,122.5,0.25,109,111.0
2108,C#4,122.5,0.5,93,111.0
2109,E4,122.5,0.5,93,111.0
2110,A3,122.5,0.5,93,111.0
2111,C#4,122.5,0.5,68,111.0
2112,E4,122.5,0.5,68,111.0
2113,A3,122.5,0.5,68,111.0
2114,F#4,122.533,171/500,86,111.0
2115,A1,122.75,0.25,90,111.0
2116,A1,122.75,0.25,90,111.0
2117,B4,122.75,0.25,127,111.0
2118,C2,122.75,0.125,92,111.0
2119,G#1,123.0,0.5,109,111.0
2120,G#1,123.0,0.5,109,111.0
2121,D2,123.0,0.25,113,111.0
2122,G#2,123.0,0.25,109,111.0
2123,C2,123.0,0.25,72,111.0
2124,E4,123.017,19/40,101,111.0
2125,G#4,123.25,0.25,127,111.0
2126,D4,123.483,333/1000,80,111.0
2127,A3,123.5,0.25,81,111.0
2128,A3,123.5,0.25,56,111.0
2129,A1,123.5,0.5,90,111.0
2130,A1,123.5,0.5,90,111.0
2131,D2,123.5,0.25,88,111.0
2132,B-2,123.5,0.25,89,111.0
2133,C2,123.5,183/1000,99,111.0
2134,A4,123.75,0.25,127,111.0
2135,D2,123.75,0.25,76,111.0
2136,E4,123.75,0.25,88,111.0
2137,B1,124.0,0.5,72,111.0
2138,B1,124.0,0.5,72,111.0
2139,D2,124.0,0.75,76,111.0
2140,G#2,124.0,0.25,100,111.0
2141,C2,124.0,383/1000,97,111.0
2142,E4,124.0,0.5,88,111.0
2143,F#4,124.0,0.25,106,111.0
2144,D4,124.0,0.25,106,111.0
2145,B3,124.0,0.25,106,111.0
2146,F#4,124.0,0.25,81,111.0
2147,D4,124.0,0.25,81,111.0
2148,B3,124.0,0.25,81,111.0
2149,B3,124.25,0.25,94,111.0
2150,B3,124.25,0.25,69,111.0
2151,B4,124.25,0.25,127,111.0
2152,D4,124.492,877/250,82,111.0
2153,B3,124.5,0.25,71,111.0
2154,B3,124.5,0.25,46,111.0
2155,G#4,124.5,0.25,127,111.0
2156,G#2,124.5,0.25,66,111.0
2157,B1,124.75,0.25,65,111.0
2158,B1,124.75,0.25,65,111.0
2159,C2,124.75,23/250,73,111.0
2160,F#4,124.75,0.25,104,111.0
2161,B3,124.75,0.25,104,111.0
2162,D4,124.75,0.25,104,111.0
2163,F#4,124.75,0.25,79,111.0
2164,B3,124.75,0.25,79,111.0
2165,D4,124.75,0.25,79,111.0
2166,B3,125.0,0.25,98,111.0
2167,B3,125.0,0.25,73,111.0
2168,B1,125.0,0.5,79,111.0
2169,B1,125.0,0.5,79,111.0
2170,A4,125.0,0.25,127,111.0
2171,D2,125.0,1.75,113,111.0
2172,G#2,125.0,0.25,109,111.0
2173,C2,125.0,121/500,73,111.0
2174,B3,125.25,0.25,80,111.0
2175,B3,125.25,0.25,55,111.0
2176,A1,125.5,0.5,63,111.0
2177,A1,125.5,0.5,63,111.0
2178,B4,125.5,0.25,127,111.0
2179,G#2,125.5,0.25,79,111.0
2180,C2,125.5,79/500,83,111.0
2181,F#4,125.5,0.25,103,111.0
2182,B3,125.5,0.25,103,111.0
2183,D4,125.5,0.25,103,111.0
2184,F#4,125.5,0.25,78,111.0
2185,B3,125.5,0.25,78,111.0
2186,D4,125.5,0.25,78,111.0
2187,B1,126.0,0.5,86,111.0
2188,B1,126.0,0.5,86,111.0
2189,G#4,126.0,0.25,127,111.0
2190,G#2,126.0,0.25,104,111.0
2191,C2,126.0,23/250,88,111.0
2192,A4,126.25,0.25,127,111.0
2193,C2,126.25,24/125,67,111.0
2194,G#2,126.5,0.25,92,111.0
2195,F#4,126.5,0.5,108,111.0
2196,B3,126.5,0.5,108,111.0
2197,D4,126.5,0.5,108,111.0
2198,F#4,126.5,0.5,83,111.0
2199,B3,126.5,0.5,83,111.0
2200,D4,126.5,0.5,83,111.0
2201,B1,126.75,0.25,83,111.0
2202,B1,126.75,0.25,83,111.0
2203,B4,126.75,0.25,127,111.0
2204,C2,126.75,0.125,94,111.0
2205,A1,127.0,0.5,86,111.0
2206,A1,127.0,0.5,86,111.0
2207,D2,127.0,1.0,117,111.0
2208,G#2,127.0,0.25,104,111.0
2209,C2,127.0,121/500,69,111.0
2210,D5,127.25,0.25,127,111.0
2211,B1,127.5,0.5,67,111.0
2212,B1,127.5,0.5,67,111.0
2213,G#2,127.5,0.25,92,111.0
2214,C2,127.5,71/500,78,111.0
2215,D5,127.75,0.25,127,111.0
2216,E1,128.0,0.5,86,111.0
2217,E1,128.0,0.5,86,111.0
2218,D2,128.0,0.75,117,111.0
2219,G#2,128.0,0.25,114,111.0
2220,C2,128.0,433/1000,104,111.0
2221,D4,128.0,133/1000,82,111.0
2222,A4,128.0,0.25,113,111.0
2223,D4,128.0,0.25,113,111.0
2224,E4,128.0,0.25,113,111.0
2225,A4,128.0,0.25,88,111.0
2226,D4,128.0,0.25,88,111.0
2227,E4,128.0,0.25,88,111.0
2228,B3,128.25,0.25,91,111.0
2229,B3,128.25,0.25,66,111.0
2230,B4,128.25,0.25,127,111.0
2231,B3,128.5,0.25,79,111.0
2232,B3,128.5,0.25,54,111.0
2233,G#4,128.5,0.25,127,111.0
2234,G#2,128.5,0.25,100,111.0
2235,E1,128.75,0.25,61,111.0
2236,E1,128.75,0.25,61,111.0
2237,C2,128.75,0.125,92,111.0
2238,D4,128.75,0.25,102,111.0
2239,E4,128.75,0.25,102,111.0
2240,A4,128.75,0.25,102,111.0
2241,D4,128.75,0.25,77,111.0
2242,E4,128.75,0.25,77,111.0
2243,A4,128.75,0.25,77,111.0
2244,B3,129.0,0.25,80,111.0
2245,B3,129.0,0.25,55,111.0
2246,F#1,129.0,0.5,114,111.0
2247,F#1,129.0,0.5,114,111.0
2248,A4,129.0,0.25,127,111.0
2249,D2,129.0,0.75,113,111.0
2250,G#2,129.0,0.25,114,111.0
2251,C2,129.0,0.25,71,111.0
2252,B3,129.25,0.25,72,111.0
2253,B3,129.25,0.25,47,111.0
2254,G#1,129.5,0.5,89,111.0
2255,G#1,129.5,0.5,89,111.0
2256,B4,129.5,0.25,127,111.0
2257,G#2,129.5,0.25,100,111.0
2258,C2,129.5,167/1000,86,111.0
2259,E4,129.5,0.5,101,111.0
2260,G#4,129.5,0.5,101,111.0
2261,B3,129.5,0.5,101,111.0
2262,E4,129.5,0.5,76,111.0
2263,G#4,129.5,0.5,76,111.0
2264,B3,129.5,0.5,76,111.0
2265,A1,130.0,0.5,92,111.0
2266,A1,130.0,0.5,92,111.0
2267,G#4,130.0,0.25,127,111.0
2268,G#2,130.0,0.25,104,111.0
2269,C2,130.0,3/40,86,111.0
2270,A4,130.25,0.25,127,111.0
2271,D2,130.25,0.25,99,111.0
2272,C2,130.25,24/125,71,111.0
2273,G#2,130.5,0.25,104,111.0
2274,B3,130.5,0.5,109,111.0
2275,G#4,130.5,0.5,109,111.0
2276,E4,130.5,0.5,109,111.0
2277,B3,130.5,0.5,84,111.0
2278,G#4,130.5,0.5,84,111.0
2279,E4,130.5,0.5,84,111.0
2280,A1,130.75,0.25,66,111.0
2281,A1,130.75,0.25,66,111.0
2282,B4,130.75,0.25,127,111.0
2283,C2,130.75,1/10,78,111.0
2284,A1,131.0,0.5,80,111.0
2285,A1,131.0,0.5,80,111.0
2286,D2,131.0,0.25,113,111.0
2287,G#2,131.0,0.25,114,111.0
2288,C2,131.0,233/1000,66,111.0
2289,G#4,131.25,0.25,127,111.0
2290,G#1,131.5,0.25,86,111.0
2291,G#1,131.5,0.25,86,111.0
2292,D2,131.5,0.25,83,111.0
2293,B-2,131.5,0.25,109,111.0
2294,C2,131.5,183/1000,82,111.0
2295,A1,131.75,0.25,78,111.0
2296,A1,131.75,0.25,78,111.0
2297,A4,131.75,0.25,127,111.0
2298,D2,131.75,0.25,76,111.0
2299,A3,131.975,1/40,117,111.0
2300,B1,132.0,0.5,79,111.0
2301,B1,132.0,0.5,79,111.0
2302,D2,132.0,0.75,76,111.0
2303,G#2,132.0,0.25,109,111.0
2304,C2,132.0,51/125,117,111.0
2305,C2,132.0,0.5,104,111.0
2306,A3,132.0,27/250,117,111.0
2307,F#4,132.0,0.25,103,111.0
2308,D4,132.0,0.25,103,111.0
2309,B3,132.0,0.25,103,111.0
2310,F#4,132.0,0.25,78,111.0
2311,D4,132.0,0.25,78,111.0
2312,B3,132.0,0.25,78,111.0
2313,B3,132.033,3967/1000,42,111.0
2314,B3,132.25,0.25,91,111.0
2315,B3,132.25,0.25,66,111.0
2316,B4,132.25,0.25,127,111.0
2317,B3,132.5,0.25,61,111.0
2318,B3,132.5,0.25,36,111.0
2319,G#4,132.5,0.25,127,111.0
2320,G#2,132.5,0.25,84,111.0
2321,B1,132.75,0.25,54,111.0
2322,B1,132.75,0.25,54,111.0
2323,C2,132.75,67/1000,94,111.0
2324,F#4,132.75,0.25,98,111.0
2325,D4,132.75,0.25,98,111.0
2326,B3,132.75,0.25,98,111.0
2327,F#4,132.75,0.25,73,111.0
2328,D4,132.75,0.25,73,111.0
2329,B3,132.75,0.25,73,111.0
2330,B3,133.0,0.25,83,111.0
2331,B3,133.0,0.25,58,111.0
2332,B1,133.0,0.5,85,111.0
2333,B1,133.0,0.5,85,111.0
2334,A4,133.0,0.25,127,111.0
2335,D2,133.0,1.75,113,111.0
2336,G#2,133.0,0.25,119,111.0
2337,C2,133.0,167/1000,79,111.0
2338,B3,133.25,0.25,77,111.0
2339,B3,133.25,0.25,52,111.0
2340,A1,133.5,0.5,82,111.0
2341,A1,133.5,0.5,82,111.0
2342,B4,133.5,0.25,127,111.0
2343,G#2,133.5,0.25,96,111.0
2344,C2,133.5,167/1000,101,111.0
2345,F#4,133.5,0.25,107,111.0
2346,D4,133.5,0.25,107,111.0
2347,B3,133.5,0.25,107,111.0
2348,F#4,133.5,0.25,82,111.0
2349,D4,133.5,0.25,82,111.0
2350,B3,133.5,0.25,82,111.0
2351,B1,134.0,0.5,83,111.0
2352,B1,134.0,0.5,83,111.0
2353,G#4,134.0,0.25,127,111.0
2354,G#2,134.0,0.25,109,111.0
2355,C2,134.0,83/1000,90,111.0
2356,A4,134.25,0.25,127,111.0
2357,C2,134.25,79/500,66,111.0
2358,G#2,134.5,0.25,104,111.0
2359,F#4,134.5,0.5,99,111.0
2360,D4,134.5,0.5,99,111.0
2361,B3,134.5,0.5,99,111.0
2362,F#4,134.5,0.5,74,111.0
2363,D4,134.5,0.5,74,111.0
2364,B3,134.5,0.5,74,111.0
2365,B1,134.75,0.25,75,111.0
2366,B1,134.75,0.25,75,111.0
2367,B4,134.75,0.25,127,111.0
2368,C2,134.75,67/1000,80,111.0
2369,A1,135.0,0.5,88,111.0
2370,A1,135.0,0.5,88,111.0
2371,D2,135.0,1.0,99,111.0
2372,G#2,135.0,0.25,114,111.0
2373,C2,135.0,9/40,73,111.0
2374,D5,135.25,0.25,127,111.0
2375,B1,135.5,0.5,76,111.0
2376,B1,135.5,0.5,76,111.0
2377,G#2,135.5,0.25,96,111.0
2378,C2,135.5,24/125,76,111.0
2379,D5,135.75,0.25,127,111.0
2380,E1,136.0,0.5,83,111.0
2381,E1,136.0,0.5,83,111.0
2382,D2,136.0,0.75,99,111.0
2383,G#2,136.0,0.25,114,111.0
2384,C2,136.0,229/500,99,111.0
2385,B3,136.0,1817/1000,42,111.0
2386,E4,136.0,0.25,100,111.0
2387,B3,136.0,0.25,100,111.0
2388,G#4,136.0,0.25,100,111.0
2389,E4,136.0,0.25,75,111.0
2390,B3,136.0,0.25,75,111.0
2391,G#4,136.0,0.25,75,111.0
2392,B3,136.25,0.25,93,111.0
2393,B3,136.25,0.25,68,111.0
2394,B4,136.25,0.25,127,111.0
2395,B3,136.5,0.25,74,111.0
2396,B3,136.5,0.25,49,111.0
2397,G#4,136.5,0.25,127,111.0
2398,G#2,136.5,0.25,96,111.0
2399,E1,136.75,0.25,59,111.0
2400,E1,136.75,0.25,59,111.0
2401,C2,136.75,117/1000,85,111.0
2402,E4,136.75,0.25,106,111.0
2403,B3,136.75,0.25,106,111.0
2404,G#4,136.75,0.25,106,111.0
2405,E4,136.75,0.25,81,111.0
2406,B3,136.75,0.25,81,111.0
2407,G#4,136.75,0.25,81,111.0
2408,F#1,137.0,0.5,114,111.0
2409,F#1,137.0,0.5,114,111.0
2410,A4,137.0,0.25,127,111.0
2411,D2,137.0,1.75,110,111.0
2412,G#2,137.0,0.25,119,111.0
2413,C2,137.0,26/125,74,111.0
2414,B3,137.25,0.25,79,111.0
2415,B3,137.25,0.25,54,111.0
2416,G#1,137.5,0.5,92,111.0
2417,G#1,137.5,0.5,92,111.0
2418,B4,137.5,0.25,127,111.0
2419,G#2,137.5,0.25,96,111.0
2420,C2,137.5,24/125,67,111.0
2421,E4,137.5,0.5,100,111.0
2422,A3,137.5,0.5,100,111.0
2423,D4,137.5,0.5,100,111.0
2424,E4,137.5,0.5,75,111.0
2425,A3,137.5,0.5,75,111.0
2426,D4,137.5,0.5,75,111.0
2427,A1,138.0,0.5,83,111.0
2428,A1,138.0,0.5,83,111.0
2429,G#4,138.0,0.25,127,111.0
2430,G#2,138.0,0.25,104,111.0
2431,C2,138.0,23/250,82,111.0
2432,A4,138.25,0.25,127,111.0
2433,C2,138.25,183/1000,66,111.0
2434,B-2,138.5,0.25,100,111.0
2435,F#4,138.5,23/40,104,111.0
2436,E4,138.5,0.5,100,111.0
2437,C#4,138.5,0.5,100,111.0
2438,A3,138.5,0.5,100,111.0
2439,E4,138.5,0.5,75,111.0
2440,C#4,138.5,0.5,75,111.0
2441,A3,138.5,0.5,75,111.0
2442,A1,138.75,0.25,76,111.0
2443,A1,138.75,0.25,76,111.0
2444,B4,138.75,0.25,127,111.0
2445,C2,138.75,27/250,80,111.0
2446,A1,139.0,0.5,76,111.0
2447,A1,139.0,0.5,76,111.0
2448,D2,139.0,1.0,110,111.0
2449,G#2,139.0,0.25,100,111.0
2450,C2,139.0,267/1000,80,111.0
2451,E4,139.033,21/40,85,111.0
2452,G#4,139.25,0.25,127,111.0
2453,A3,139.5,0.5,81,111.0
2454,A3,139.5,0.5,56,111.0
2455,G#1,139.5,0.25,92,111.0
2456,G#1,139.5,0.25,92,111.0
2457,B-2,139.5,0.25,104,111.0
2458,C2,139.5,79/500,78,111.0
2459,D4,139.55,0.25,92,111.0
2460,A1,139.75,0.25,73,111.0
2461,A1,139.75,0.25,73,111.0
2462,A4,139.75,0.25,127,111.0
2463,E4,139.792,26/125,97,111.0
2464,B1,140.0,0.5,83,111.0
2465,B1,140.0,0.5,83,111.0
2466,D2,140.0,0.75,110,111.0
2467,G#2,140.0,0.25,104,111.0
2468,C2,140.0,417/1000,110,111.0
2469,E4,140.0,127/250,97,111.0
2470,B3,140.0,0.25,107,111.0
2471,F#4,140.0,0.25,107,111.0
2472,D4,140.0,0.25,107,111.0
2473,B3,140.0,0.25,82,111.0
2474,F#4,140.0,0.25,82,111.0
2475,D4,140.0,0.25,82,111.0
2476,B3,140.25,0.25,87,111.0
2477,B3,140.25,0.25,62,111.0
2478,B4,140.25,0.25,127,111.0
2479,B3,140.5,0.25,63,111.0
2480,B3,140.5,0.25,38,111.0
2481,G#4,140.5,0.25,127,111.0
2482,G#2,140.5,0.25,81,111.0
2483,D4,140.5,3.5,92,111.0
2484,B3,140.75,0.5,91,111.0
2485,B3,140.75,0.5,66,111.0
2486,B1,140.75,0.75,44,111.0
2487,B1,140.75,0.75,44,111.0
2488,C2,140.75,67/1000,82,111.0
2489,F#4,140.75,0.25,112,111.0
2490,D4,140.75,0.25,112,111.0
2491,F#4,140.75,0.25,87,111.0
2492,D4,140.75,0.25,87,111.0
2493,A4,141.0,0.25,127,111.0
2494,D2,141.0,1.75,110,111.0
2495,G#2,141.0,0.25,109,111.0
2496,C2,141.0,26/125,74,111.0
2497,B3,141.25,0.25,79,111.0
2498,B3,141.25,0.25,54,111.0
2499,A1,141.5,0.5,78,111.0
2500,A1,141.5,0.5,78,111.0
2501,B4,141.5,0.25,127,111.0
2502,G#2,141.5,0.25,84,111.0
2503,C2,141.5,1/5,94,111.0
2504,D4,141.5,0.25,107,111.0
2505,B3,141.5,0.25,107,111.0
2506,F#4,141.5,0.25,107,111.0
2507,D4,141.5,0.25,82,111.0
2508,B3,141.5,0.25,82,111.0
2509,F#4,141.5,0.25,82,111.0
2510,B1,142.0,0.5,88,111.0
2511,B1,142.0,0.5,88,111.0
2512,G#4,142.0,0.25,127,111.0
2513,G#2,142.0,0.25,114,111.0
2514,C2,142.0,3/40,83,111.0
2515,A4,142.25,0.25,127,111.0
2516,C2,142.25,24/125,67,111.0
2517,G#2,142.5,0.25,79,111.0
2518,F#4,142.5,0.5,102,111.0
2519,D4,142.5,0.5,102,111.0
2520,B3,142.5,0.5,102,111.0
2521,F#4,142.5,0.5,77,111.0
2522,D4,142.5,0.5,77,111.0
2523,B3,142.5,0.5,77,111.0
2524,B1,142.75,0.25,80,111.0
2525,B1,142.75,0.25,80,111.0
2526,B4,142.75,0.25,127,111.0
2527,C2,142.75,1/10,76,111.0
2528,A1,143.0,0.5,82,111.0
2529,A1,143.0,0.5,82,111.0
2530,D2,143.0,1.0,101,111.0
2531,G#2,143.0,0.25,109,111.0
2532,C2,143.0,233/1000,78,111.0
2533,D5,143.25,0.25,127,111.0
2534,B1,143.5,0.5,68,111.0
2535,B1,143.5,0.5,68,111.0
2536,G#2,143.5,0.25,81,111.0
2537,C2,143.5,133/1000,80,111.0
2538,D5,143.75,0.25,127,111.0
2539,E4,144.0,0.5,117,111.0
2540,E4,144.0,0.5,92,111.0
2541,E1,144.0,0.5,69,111.0
2542,E1,144.0,0.5,69,111.0
2543,D2,144.0,0.75,101,111.0
2544,G#2,144.0,0.25,109,111.0
2545,C2,144.0,417/1000,107,111.0
2546,D4,144.0,267/1000,92,111.0
2547,A4,144.0,0.25,102,111.0
2548,D4,144.0,0.25,102,111.0
2549,A4,144.0,0.25,77,111.0
2550,D4,144.0,0.25,77,111.0
2551,B3,144.25,0.25,81,111.0
2552,B3,144.25,0.25,56,111.0
2553,B4,144.25,7/40,127,111.0
2554,B3,144.5,0.25,84,111.0
2555,B3,144.5,0.25,59,111.0
2556,G#4,144.5,233/1000,127,111.0
2557,G#2,144.5,0.25,84,111.0
2558,E1,144.75,0.25,66,111.0
2559,E1,144.75,0.25,66,111.0
2560,C2,144.75,29/500,66,111.0
2561,E4,144.75,0.25,95,111.0
2562,A4,144.75,0.25,95,111.0
2563,D4,144.75,0.25,95,111.0
2564,E4,144.75,0.25,70,111.0
2565,A4,144.75,0.25,70,111.0
2566,D4,144.75,0.25,70,111.0
2567,B3,145.0,0.25,79,111.0
2568,B3,145.0,0.25,54,111.0
2569,F#1,145.0,0.5,109,111.0
2570,F#1,145.0,0.5,109,111.0
2571,A4,145.0,3/10,127,111.0
2572,D2,145.0,1.75,104,111.0
2573,G#2,145.0,0.25,114,111.0
2574,C2,145.0,183/1000,66,111.0
2575,G#1,145.5,0.5,66,111.0
2576,G#1,145.5,0.5,66,111.0
2577,B4,145.5,0.25,127,111.0
2578,G#2,145.5,0.25,86,111.0
2579,C2,145.5,7/40,92,111.0
2580,G#4,145.5,0.5,109,111.0
2581,E4,145.5,0.5,109,111.0
2582,B3,145.5,0.5,109,111.0
2583,G#4,145.5,0.5,84,111.0
2584,E4,145.5,0.5,84,111.0
2585,B3,145.5,0.5,84,111.0
2586,A1,146.0,0.5,83,111.0
2587,A1,146.0,0.5,83,111.0
2588,D5,146.0,3/20,127,111.0
2589,G#2,146.0,0.25,100,111.0
2590,C2,146.0,27/250,99,111.0
2591,C3,146.0,27/250,99,111.0
2592,D5,146.25,1/5,127,111.0
2593,C2,146.25,1/5,66,111.0
2594,C#5,146.5,133/1000,127,111.0
2595,G#2,146.5,0.25,92,111.0
2596,C3,146.5,27/250,104,111.0
2597,B3,146.5,0.5,101,111.0
2598,G#4,146.5,0.5,101,111.0
2599,E4,146.5,0.5,101,111.0
2600,B3,146.5,0.5,76,111.0
2601,G#4,146.5,0.5,76,111.0
2602,E4,146.5,0.5,76,111.0
2603,A1,146.75,0.25,85,111.0
2604,A1,146.75,0.25,85,111.0
2605,C#5,146.75,167/1000,127,111.0
2606,C2,146.75,1/10,85,111.0
2607,G#1,147.0,0.5,92,111.0
2608,G#1,147.0,0.5,92,111.0
2609,B4,147.0,129/500,127,111.0
2610,D2,147.0,0.25,113,111.0
2611,G#2,147.0,0.25,89,111.0
2612,C2,147.0,121/500,72,111.0
2613,B2,147.0,1/20,82,111.0
2614,G#4,147.25,26/125,127,111.0
2615,B2,147.25,27/250,97,111.0
2616,A1,147.5,0.5,70,111.0
2617,A1,147.5,0.5,70,111.0
2618,A4,147.5,26/125,115,111.0
2619,D2,147.5,0.25,97,111.0
2620,B-2,147.5,0.25,100,111.0
2621,C2,147.5,24/125,86,111.0
2622,A2,147.5,29/500,94,111.0
2623,B3,147.525,167/1000,85,111.0
2624,B3,147.725,11/40,54,111.0
2625,B4,147.75,233/1000,127,111.0
2626,D2,147.75,0.25,83,111.0
2627,A2,147.75,3/40,90,111.0
2628,B1,148.0,0.5,99,111.0
2629,B1,148.0,0.5,99,111.0
2630,D2,148.0,0.5,125,111.0
2631,D2,148.0,0.25,83,111.0
2632,G#2,148.0,0.25,104,111.0
2633,C2,148.0,17/40,104,111.0
2634,B3,148.0,1/125,54,111.0
2635,F#4,148.0,0.25,96,111.0
2636,B3,148.0,0.25,96,111.0
2637,D4,148.0,0.25,96,111.0
2638,F#4,148.0,0.25,71,111.0
2639,B3,148.0,0.25,71,111.0
2640,D4,148.0,0.25,71,111.0
2641,F#4,148.025,429/500,109,111.0
2642,B3,148.25,0.25,91,111.0
2643,B3,148.25,0.25,66,111.0
2644,B3,148.5,0.25,71,111.0
2645,B3,148.5,0.25,46,111.0
2646,G#2,148.5,0.25,79,111.0
2647,B1,148.75,0.25,86,111.0
2648,B1,148.75,0.25,86,111.0
2649,C2,148.75,1/10,66,111.0
2650,D4,148.75,0.25,104,111.0
2651,F#4,148.75,0.25,104,111.0
2652,B3,148.75,0.25,104,111.0
2653,D4,148.75,0.25,79,111.0
2654,F#4,148.75,0.25,79,111.0
2655,B3,148.75,0.25,79,111.0
2656,B3,148.992,23/40,97,111.0
2657,B1,149.0,0.25,90,111.0
2658,B1,149.0,0.25,90,111.0
2659,D2,149.0,0.75,120,111.0
2660,G#2,149.0,0.25,109,111.0
2661,C2,149.0,129/500,74,111.0
2662,B3,149.25,0.25,77,111.0
2663,B3,149.25,0.25,52,111.0
2664,A1,149.5,0.5,101,111.0
2665,A1,149.5,0.5,101,111.0
2666,G#2,149.5,0.25,81,111.0
2667,C2,149.5,24/125,97,111.0
2668,F#4,149.5,0.25,105,111.0
2669,D4,149.5,0.25,105,111.0
2670,B3,149.5,0.25,105,111.0
2671,F#4,149.5,0.25,80,111.0
2672,D4,149.5,0.25,80,111.0
2673,B3,149.5,0.25,80,111.0
2674,D4,149.542,1.0,104,111.0
2675,B1,150.0,0.5,97,111.0
2676,B1,150.0,0.5,97,111.0
2677,G#2,150.0,0.25,100,111.0
2678,C2,150.0,3/40,78,111.0
2679,C2,150.25,24/125,72,111.0
2680,E4,150.475,7/10,73,111.0
2681,B3,150.5,0.5,99,111.0
2682,B3,150.5,0.5,74,111.0
2683,G#2,150.5,0.25,84,111.0
2684,F#4,150.5,0.25,111,111.0
2685,D4,150.5,0.25,111,111.0
2686,F#4,150.5,0.25,86,111.0
2687,D4,150.5,0.25,86,111.0
2688,B1,150.75,0.25,83,111.0
2689,B1,150.75,0.25,83,111.0
2690,C2,150.75,0.125,92,111.0
2691,A1,151.0,0.5,76,111.0
2692,A1,151.0,0.5,76,111.0
2693,D2,151.0,1.0,123,111.0
2694,E2,151.0,0.25,104,111.0
2695,G#2,151.0,0.25,109,111.0
2696,C2,151.0,0.25,72,111.0
2697,B1,151.5,0.5,104,111.0
2698,B1,151.5,0.5,104,111.0
2699,G#2,151.5,0.25,96,111.0
2700,C2,151.5,183/1000,99,111.0
2701,E1,152.0,0.5,88,111.0
2702,E1,152.0,0.5,88,111.0
2703,D2,152.0,0.5,123,111.0
2704,G#2,152.0,0.25,109,111.0
2705,C2,152.0,383/1000,97,111.0
2706,E4,152.0,0.25,108,111.0
2707,B3,152.0,0.25,108,111.0
2708,G#4,152.0,0.25,108,111.0
2709,E4,152.0,0.25,83,111.0
2710,B3,152.0,0.25,83,111.0
2711,G#4,152.0,0.25,83,111.0
2712,B3,152.25,0.25,93,111.0
2713,B3,152.25,0.25,68,111.0
2714,B3,152.5,0.25,66,111.0
2715,B3,152.5,0.25,41,111.0
2716,G#2,152.5,0.25,86,111.0
2717,E1,152.75,0.25,67,111.0
2718,E1,152.75,0.25,67,111.0
2719,C2,152.75,23/250,73,111.0
2720,E4,152.75,0.25,97,111.0
2721,B3,152.75,0.25,97,111.0
2722,G#4,152.75,0.25,97,111.0
2723,E4,152.75,0.25,72,111.0
2724,B3,152.75,0.25,72,111.0
2725,G#4,152.75,0.25,72,111.0
2726,F#1,153.0,0.5,119,111.0
2727,F#1,153.0,0.5,119,111.0
2728,D2,153.0,1.75,123,111.0
2729,G#2,153.0,0.25,104,111.0
2730,C2,153.0,121/500,73,111.0
2731,B3,153.25,0.25,79,111.0
2732,B3,153.25,0.25,54,111.0
2733,A3,153.5,0.25,93,111.0
2734,A3,153.5,0.25,68,111.0
2735,G#1,153.5,0.5,92,111.0
2736,G#1,153.5,0.5,92,111.0
2737,G#2,153.5,0.25,92,111.0
2738,C2,153.5,79/500,83,111.0
2739,E4,153.5,0.5,96,111.0
2740,D4,153.5,0.5,96,111.0
2741,E4,153.5,0.5,70,111.0
2742,D4,153.5,0.5,70,111.0
2743,A1,154.0,0.5,107,111.0
2744,A1,154.0,0.5,107,111.0
2745,G#2,154.0,0.25,100,111.0
2746,C2,154.0,23/250,88,111.0
2747,C2,154.25,24/125,67,111.0
2748,G#2,154.5,0.25,89,111.0
2749,E4,154.5,0.75,92,111.0
2750,C#4,154.5,0.75,92,111.0
2751,A3,154.5,0.75,92,111.0
2752,E4,154.5,0.75,67,111.0
2753,C#4,154.5,0.75,67,111.0
2754,A3,154.5,0.75,67,111.0
2755,A1,154.75,0.25,94,111.0
2756,A1,154.75,0.25,94,111.0
2757,C2,154.75,0.125,94,111.0
2758,B3,154.967,74/125,92,111.0
2759,A1,155.0,0.5,78,111.0
2760,A1,155.0,0.5,78,111.0
2761,D2,155.0,1.0,123,111.0
2762,G#2,155.0,0.25,109,111.0
2763,C2,155.0,121/500,69,111.0
2764,D4,155.483,51/125,88,111.0
2765,A3,155.5,0.25,76,111.0
2766,A3,155.5,0.25,51,111.0
2767,G#1,155.5,0.25,114,111.0
2768,G#1,155.5,0.25,114,111.0
2769,G#2,155.5,0.25,89,111.0
2770,C2,155.5,71/500,78,111.0
2771,A1,155.75,0.25,83,111.0
2772,A1,155.75,0.25,83,111.0
2773,F#4,155.992,1/125,100,111.0
2774,B1,156.0,0.5,104,111.0
2775,B1,156.0,0.5,104,111.0
2776,D2,156.0,0.75,123,111.0
2777,G#2,156.0,0.25,100,111.0
2778,C2,156.0,433/1000,104,111.0
2779,F#4,156.0,124/125,100,111.0
2780,F#4,156.0,0.25,100,111.0
2781,B3,156.0,0.25,100,111.0
2782,D4,156.0,0.25,100,111.0
2783,F#4,156.0,0.25,75,111.0
2784,B3,156.0,0.25,75,111.0
2785,D4,156.0,0.25,75,111.0
2786,B3,156.25,0.25,83,111.0
2787,B3,156.25,0.25,58,111.0
2788,B3,156.5,0.25,58,111.0
2789,B3,156.5,0.25,33,111.0
2790,G#2,156.5,0.25,86,111.0
2791,B1,156.75,0.25,90,111.0
2792,B1,156.75,0.25,90,111.0
2793,C2,156.75,0.125,92,111.0
2794,F#4,156.75,0.25,99,111.0
2795,D4,156.75,0.25,99,111.0
2796,B3,156.75,0.25,99,111.0
2797,F#4,156.75,0.25,74,111.0
2798,D4,156.75,0.25,74,111.0
2799,B3,156.75,0.25,74,111.0
2800,B1,157.0,0.5,88,111.0
2801,B1,157.0,0.5,88,111.0
2802,D2,157.0,1.75,120,111.0
2803,G#2,157.0,0.25,104,111.0
2804,C2,157.0,0.25,71,111.0
2805,B3,157.017,19/40,97,111.0
2806,B3,157.25,0.25,78,111.0
2807,B3,157.25,0.25,53,111.0
2808,A1,157.5,0.5,94,111.0
2809,A1,157.5,0.5,94,111.0
2810,G#2,157.5,0.25,92,111.0
2811,C2,157.5,167/1000,86,111.0
2812,D4,157.5,1067/1000,107,111.0
2813,F#4,157.5,0.25,103,111.0
2814,D4,157.5,0.25,103,111.0
2815,B3,157.5,0.25,103,111.0
2816,F#4,157.5,0.25,78,111.0
2817,D4,157.5,0.25,78,111.0
2818,B3,157.5,0.25,78,111.0
2819,B1,158.0,0.5,99,111.0
2820,B1,158.0,0.5,99,111.0
2821,G#2,158.0,0.25,109,111.0
2822,C2,158.0,3/40,86,111.0
2823,C2,158.25,24/125,71,111.0
2824,G#2,158.5,0.25,96,111.0
2825,E4,158.5,0.5,86,111.0
2826,F#4,158.5,0.25,104,111.0
2827,B3,158.5,0.25,104,111.0
2828,D4,158.5,0.25,104,111.0
2829,F#4,158.5,0.25,79,111.0
2830,B3,158.5,0.25,79,111.0
2831,D4,158.5,0.25,79,111.0
2832,B1,158.75,0.25,99,111.0
2833,B1,158.75,0.25,99,111.0
2834,C2,158.75,1/10,78,111.0
2835,A1,159.0,0.5,107,111.0
2836,A1,159.0,0.5,107,111.0
2837,D2,159.0,1.0,125,111.0
2838,G#2,159.0,0.25,104,111.0
2839,C2,159.0,233/1000,66,111.0
2840,B3,159.008,271/500,92,111.0
2841,D4,159.475,0.5,97,111.0
2842,B1,159.5,0.5,101,111.0
2843,B1,159.5,0.5,101,111.0
2844,G#2,159.5,0.25,92,111.0
2845,C2,159.5,183/1000,82,111.0
2846,E1,160.0,0.5,110,111.0
2847,E1,160.0,0.5,110,111.0
2848,D2,160.0,0.75,125,111.0
2849,G#2,160.0,0.25,109,111.0
2850,C2,160.0,51/125,117,111.0
2851,C2,160.0,0.5,104,111.0
2852,G#4,160.0,0.25,89,111.0
2853,E4,160.0,0.25,89,111.0
2854,A4,160.0,0.25,89,111.0
2855,G#4,160.0,0.25,64,111.0
2856,E4,160.0,0.25,64,111.0
2857,A4,160.0,0.25,64,111.0
2858,C3,160.033,67/1000,54,111.0
2859,F#4,160.033,833/1000,104,111.0
2860,D4,160.25,0.25,48,111.0
2861,B3,160.25,0.25,48,111.0
2862,D4,160.25,0.25,23,111.0
2863,B3,160.25,0.25,23,111.0
2864,B3,160.5,0.25,78,111.0
2865,B3,160.5,0.25,53,111.0
2866,G#2,160.5,0.25,100,111.0
2867,E1,160.75,0.25,76,111.0
2868,E1,160.75,0.25,76,111.0
2869,C2,160.75,67/1000,94,111.0
2870,E4,160.75,0.25,93,111.0
2871,D4,160.75,0.25,93,111.0
2872,A4,160.75,0.25,93,111.0
2873,E4,160.75,0.25,68,111.0
2874,D4,160.75,0.25,68,111.0
2875,A4,160.75,0.25,68,111.0
2876,C3,160.983,3/20,68,111.0
2877,B3,161.0,0.25,80,111.0
2878,B3,161.0,0.25,55,111.0
2879,F#1,161.0,0.5,114,111.0
2880,F#1,161.0,0.5,114,111.0
2881,D2,161.0,1.25,117,111.0
2882,G#2,161.0,0.25,109,111.0
2883,C2,161.0,167/1000,79,111.0
2884,F#4,161.017,39/40,100,111.0
2885,B3,161.25,0.25,72,111.0
2886,B3,161.25,0.25,47,111.0
2887,G#1,161.5,0.5,109,111.0
2888,G#1,161.5,0.5,109,111.0
2889,G#2,161.5,0.25,100,111.0
2890,C2,161.5,167/1000,101,111.0
2891,E4,161.5,0.5,92,111.0
2892,G#4,161.5,0.5,92,111.0
2893,B3,161.5,0.5,92,111.0
2894,E4,161.5,0.5,67,111.0
2895,G#4,161.5,0.5,67,111.0
2896,B3,161.5,0.5,67,111.0
2897,B2,161.508,29/500,54,111.0
2898,B2,161.825,26/125,67,111.0
2899,A1,162.0,0.5,110,111.0
2900,A1,162.0,0.5,110,111.0
2901,G#2,162.0,0.25,100,111.0
2902,C2,162.0,83/1000,90,111.0
2903,E4,162.017,0.25,99,111.0
2904,D4,162.217,121/500,94,111.0
2905,D2,162.25,0.5,104,111.0
2906,C2,162.25,79/500,66,111.0
2907,B2,162.325,167/1000,55,111.0
2908,B3,162.467,101/125,97,111.0
2909,G#2,162.5,0.25,100,111.0
2910,B3,162.5,0.5,109,111.0
2911,G#4,162.5,0.5,109,111.0
2912,E4,162.5,0.5,109,111.0
2913,B3,162.5,0.5,84,111.0
2914,G#4,162.5,0.5,84,111.0
2915,E4,162.5,0.5,84,111.0
2916,A1,162.75,0.25,82,111.0
2917,A1,162.75,0.25,82,111.0
2918,C2,162.75,67/1000,80,111.0
2919,A2,162.783,117/1000,69,111.0
2920,A1,163.0,0.5,88,111.0
2921,A1,163.0,0.5,88,111.0
2922,D2,163.0,0.25,125,111.0
2923,G#2,163.0,0.25,96,111.0
2924,C2,163.0,9/40,73,111.0
2925,A2,163.067,183/1000,63,111.0
2926,G#1,163.5,0.25,100,111.0
2927,G#1,163.5,0.25,100,111.0
2928,D2,163.5,0.25,90,111.0
2929,G#2,163.5,0.25,92,111.0
2930,C2,163.5,24/125,76,111.0
2931,G2,163.517,167/1000,86,111.0
2932,B3,163.533,9/20,107,111.0
2933,A1,163.75,0.25,90,111.0
2934,A1,163.75,0.25,90,111.0
2935,D2,163.75,0.25,92,111.0
2936,C#3,163.983,17/1000,114,111.0
2937,F#4,163.983,17/1000,104,111.0
2938,B1,164.0,0.5,97,111.0
2939,B1,164.0,0.5,97,111.0
2940,G#2,164.0,0.25,92,111.0
2941,C2,164.0,229/500,99,111.0
2942,C#3,164.0,27/250,114,111.0
2943,F#4,164.0,37/40,104,111.0
2944,F#4,164.0,0.25,107,111.0
2945,B3,164.0,0.25,107,111.0
2946,D4,164.0,0.25,107,111.0
2947,F#4,164.0,0.25,82,111.0
2948,B3,164.0,0.25,82,111.0
2949,D4,164.0,0.25,82,111.0
2950,B3,164.25,0.25,87,111.0
2951,B3,164.25,0.25,62,111.0
2952,B3,164.5,0.25,71,111.0
2953,B3,164.5,0.25,46,111.0
2954,G#2,164.5,0.25,92,111.0
2955,B1,164.75,0.25,97,111.0
2956,B1,164.75,0.25,97,111.0
2957,C2,164.75,117/1000,85,111.0
2958,B3,164.75,0.25,101,111.0
2959,F#4,164.75,0.25,101,111.0
2960,D4,164.75,0.25,101,111.0
2961,B3,164.75,0.25,76,111.0
2962,F#4,164.75,0.25,76,111.0
2963,D4,164.75,0.25,76,111.0
2964,B3,164.942,567/1000,88,111.0
2965,B3,165.0,0.25,84,111.0
2966,B3,165.0,0.25,59,111.0
2967,B1,165.0,0.5,83,111.0
2968,B1,165.0,0.5,83,111.0
2969,D2,165.0,1.75,123,111.0
2970,G#2,165.0,0.25,96,111.0
2971,C2,165.0,26/125,74,111.0
2972,B3,165.25,0.25,77,111.0
2973,B3,165.25,0.25,52,111.0
2974,A1,165.5,0.5,99,111.0
2975,A1,165.5,0.5,99,111.0
2976,G#2,165.5,0.25,96,111.0
2977,C2,165.5,24/125,67,111.0
2978,F#4,165.5,0.25,109,111.0
2979,B3,165.5,0.25,109,111.0
2980,D4,165.5,0.25,109,111.0
2981,F#4,165.5,0.25,84,111.0
2982,B3,165.5,0.25,84,111.0
2983,D4,165.5,0.25,84,111.0
2984,D4,165.525,21/20,107,111.0
2985,B1,166.0,0.5,99,111.0
2986,B1,166.0,0.5,99,111.0
2987,G#2,166.0,0.25,89,111.0
2988,C2,166.0,23/250,82,111.0
2989,C2,166.25,183/1000,66,111.0
2990,G#2,166.5,0.25,77,111.0
2991,F#4,166.5,0.25,105,111.0
2992,B3,166.5,0.25,105,111.0
2993,D4,166.5,0.25,105,111.0
2994,F#4,166.5,0.25,80,111.0
2995,B3,166.5,0.25,80,111.0
2996,D4,166.5,0.25,80,111.0
2997,E4,166.525,0.625,86,111.0
2998,B1,166.75,0.25,92,111.0
2999,B1,166.75,0.25,92,111.0
3000,C2,166.75,27/250,80,111.0
3001,A1,167.0,0.5,107,111.0
3002,A1,167.0,0.5,107,111.0
3003,D2,167.0,1.0,113,111.0
3004,G#2,167.0,0.25,89,111.0
3005,C2,167.0,267/1000,80,111.0
3006,B1,167.5,0.25,68,111.0
3007,B1,167.5,0.25,68,111.0
3008,G#2,167.5,0.25,84,111.0
3009,C2,167.5,79/500,78,111.0
3010,B2,168.0,0.0,38,111.0
3011,E1,168.0,0.5,94,111.0
3012,E1,168.0,0.5,94,111.0
3013,D2,168.0,0.75,113,111.0
3014,G#2,168.0,0.25,96,111.0
3015,C2,168.0,417/1000,110,111.0
3016,E4,168.0,0.25,109,111.0
3017,B3,168.0,0.25,109,111.0
3018,G#4,168.0,0.25,109,111.0
3019,E4,168.0,0.25,84,111.0
3020,B3,168.0,0.25,84,111.0
3021,G#4,168.0,0.25,84,111.0
3022,B3,168.25,0.25,87,111.0
3023,B3,168.25,0.25,62,111.0
3024,B3,168.5,0.25,67,111.0
3025,B3,168.5,0.25,42,111.0
3026,G#2,168.5,0.25,84,111.0
3027,E1,168.75,0.25,75,111.0
3028,E1,168.75,0.25,75,111.0
3029,C2,168.75,67/1000,82,111.0
3030,E4,168.75,0.25,98,111.0
3031,B3,168.75,0.25,98,111.0
3032,G#4,168.75,0.25,98,111.0
3033,E4,168.75,0.25,73,111.0
3034,B3,168.75,0.25,73,111.0
3035,G#4,168.75,0.25,73,111.0
3036,F#1,169.0,0.5,114,111.0
3037,F#1,169.0,0.5,114,111.0
3038,D2,169.0,1.5,113,111.0
3039,G#2,169.0,0.25,96,111.0
3040,C2,169.0,26/125,74,111.0
3041,B3,169.25,0.25,79,111.0
3042,B3,169.25,0.25,54,111.0
3043,G#1,169.5,0.5,104,111.0
3044,G#1,169.5,0.5,104,111.0
3045,G#2,169.5,0.25,89,111.0
3046,C2,169.5,1/5,94,111.0
3047,A3,169.5,0.5,101,111.0
3048,E4,169.5,0.5,101,111.0
3049,D4,169.5,0.5,101,111.0
3050,A3,169.5,0.5,76,111.0
3051,E4,169.5,0.5,76,111.0
3052,D4,169.5,0.5,76,111.0
3053,A1,170.0,0.5,104,111.0
3054,A1,170.0,0.5,104,111.0
3055,G#2,170.0,0.25,96,111.0
3056,C2,170.0,3/40,83,111.0
3057,C2,170.25,24/125,67,111.0
3058,G#2,170.5,0.25,56,111.0
3059,C#4,170.5,0.5,93,111.0
3060,E4,170.5,0.5,93,111.0
3061,A3,170.5,0.5,93,111.0
3062,C#4,170.5,0.5,68,111.0
3063,E4,170.5,0.5,68,111.0
3064,A3,170.5,0.5,68,111.0
3065,A1,170.75,0.25,72,111.0
3066,A1,170.75,0.25,72,111.0
3067,C2,170.75,1/10,76,111.0
3068,A1,171.0,0.5,90,111.0
3069,A1,171.0,0.5,90,111.0
3070,D2,171.0,1.0,123,111.0
3071,G#2,171.0,0.25,92,111.0
3072,C2,171.0,233/1000,78,111.0
3073,B3,171.0,23/40,92,111.0
3074,D4,171.483,127/250,85,111.0
3075,A3,171.5,0.25,81,111.0
3076,A3,171.5,0.25,56,111.0
3077,G#1,171.5,0.25,100,111.0
3078,G#1,171.5,0.25,100,111.0
3079,G#2,171.5,0.25,73,111.0
3080,C2,171.5,133/1000,80,111.0
3081,A1,171.75,0.25,83,111.0
3082,A1,171.75,0.25,83,111.0
3083,B1,172.0,0.5,92,111.0
3084,B1,172.0,0.5,92,111.0
3085,D2,172.0,0.75,123,111.0
3086,G#2,172.0,0.25,92,111.0
3087,C2,172.0,417/1000,107,111.0
3088,F#4,172.0,1.0,92,111.0
3089,F#4,172.0,0.25,106,111.0
3090,D4,172.0,0.25,106,111.0
3091,B3,172.0,0.25,106,111.0
3092,F#4,172.0,0.25,81,111.0
3093,D4,172.0,0.25,81,111.0
3094,B3,172.0,0.25,81,111.0
3095,B3,172.25,0.25,94,111.0
3096,B3,172.25,0.25,69,111.0
3097,B3,172.5,0.25,71,111.0
3098,B3,172.5,0.25,46,111.0
3099,G#2,172.5,0.25,57,111.0
3100,B1,172.75,0.25,71,111.0
3101,B1,172.75,0.25,71,111.0
3102,C2,172.75,29/500,66,111.0
3103,F#4,172.75,0.25,104,111.0
3104,B3,172.75,0.25,104,111.0
3105,D4,172.75,0.25,104,111.0
3106,F#4,172.75,0.25,79,111.0
3107,B3,172.75,0.25,79,111.0
3108,D4,172.75,0.25,79,111.0
3109,B3,172.992,517/1000,90,111.0
3110,B3,173.0,0.25,98,111.0
3111,B3,173.0,0.25,73,111.0
3112,B1,173.0,0.5,82,111.0
3113,B1,173.0,0.5,82,111.0
3114,D2,173.0,1.75,123,111.0
3115,G#2,173.0,0.25,96,111.0
3116,C2,173.0,183/1000,66,111.0
3117,B3,173.25,0.25,80,111.0
3118,B3,173.25,0.25,55,111.0
3119,A1,173.5,0.5,88,111.0
3120,A1,173.5,0.5,88,111.0
3121,G#2,173.5,0.25,81,111.0
3122,C2,173.5,7/40,92,111.0
3123,D4,173.5,1083/1000,101,111.0
3124,F#4,173.5,0.25,103,111.0
3125,B3,173.5,0.25,103,111.0
3126,D4,173.5,0.25,103,111.0
3127,F#4,173.5,0.25,78,111.0
3128,B3,173.5,0.25,78,111.0
3129,D4,173.5,0.25,78,111.0
3130,B1,174.0,0.5,88,111.0
3131,B1,174.0,0.5,88,111.0
3132,G#2,174.0,0.25,96,111.0
3133,C2,174.0,27/250,99,111.0
3134,C2,174.25,1/5,66,111.0
3135,E4,174.492,9/20,83,111.0
3136,G#2,174.5,0.25,68,111.0
3137,F#4,174.5,0.5,108,111.0
3138,B3,174.5,0.5,108,111.0
3139,D4,174.5,0.5,108,111.0
3140,F#4,174.5,0.5,83,111.0
3141,B3,174.5,0.5,83,111.0
3142,D4,174.5,0.5,83,111.0
3143,B1,174.75,0.25,97,111.0
3144,B1,174.75,0.25,97,111.0
3145,C2,174.75,1/10,85,111.0
3146,B3,174.983,74/125,94,111.0
3147,A1,175.0,0.5,101,111.0
3148,A1,175.0,0.5,101,111.0
3149,D2,175.0,1.0,125,111.0
3150,G#2,175.0,0.25,92,111.0
3151,C2,175.0,121/500,72,111.0
3152,D4,175.475,483/1000,85,111.0
3153,B1,175.5,0.5,88,111.0
3154,B1,175.5,0.5,88,111.0
3155,G#2,175.5,0.25,71,111.0
3156,C2,175.5,24/125,86,111.0
3157,F#4,175.975,1/40,100,111.0
3158,E1,176.0,0.5,101,111.0
3159,E1,176.0,0.5,101,111.0
3160,D2,176.0,0.75,125,111.0
3161,G#2,176.0,0.25,96,111.0
3162,C2,176.0,17/40,104,111.0
3163,F#4,176.0,101/125,100,111.0
3164,A4,176.0,0.25,113,111.0
3165,D4,176.0,0.25,113,111.0
3166,E4,176.0,0.25,113,111.0
3167,A4,176.0,0.25,88,111.0
3168,D4,176.0,0.25,88,111.0
3169,E4,176.0,0.25,88,111.0
3170,B3,176.25,0.25,91,111.0
3171,B3,176.25,0.25,66,111.0
3172,B3,176.5,0.25,79,111.0
3173,B3,176.5,0.25,54,111.0
3174,G#2,176.5,0.25,81,111.0
3175,D3,176.5,26/125,113,111.0
3176,E1,176.75,0.25,71,111.0
3177,E1,176.75,0.25,71,111.0
3178,C2,176.75,1/10,66,111.0
3179,D4,176.75,0.25,102,111.0
3180,E4,176.75,0.25,102,111.0
3181,A4,176.75,0.25,102,111.0
3182,D4,176.75,0.25,77,111.0
3183,E4,176.75,0.25,77,111.0
3184,A4,176.75,0.25,77,111.0
3185,F#4,176.958,983/1000,96,111.0
3186,B3,177.0,0.25,80,111.0
3187,B3,177.0,0.25,55,111.0
3188,F#1,177.0,0.5,119,111.0
3189,F#1,177.0,0.5,119,111.0
3190,D2,177.0,1.25,117,111.0
3191,G#2,177.0,0.25,100,111.0
3192,C2,177.0,129/500,74,111.0
3193,D3,177.0,121/500,123,111.0
3194,B3,177.25,0.25,72,111.0
3195,B3,177.25,0.25,47,111.0
3196,G#1,177.5,0.5,100,111.0
3197,G#1,177.5,0.5,100,111.0
3198,G#2,177.5,0.25,84,111.0
3199,C2,177.5,24/125,97,111.0
3200,E4,177.5,0.5,101,111.0
3201,G#4,177.5,0.5,101,111.0
3202,B3,177.5,0.5,101,111.0
3203,E4,177.5,0.5,76,111.0
3204,G#4,177.5,0.5,76,111.0
3205,B3,177.5,0.5,76,111.0
3206,C3,177.517,29/500,76,111.0
3207,C3,177.767,7/40,117,111.0
3208,A1,178.0,0.5,104,111.0
3209,A1,178.0,0.5,104,111.0
3210,G#2,178.0,0.25,100,111.0
3211,C2,178.0,3/40,78,111.0
3212,C2,178.25,24/125,72,111.0
3213,B2,178.292,71/500,113,111.0
3214,F#4,178.492,617/1000,104,111.0
3215,D2,178.5,0.25,94,111.0
3216,G#2,178.5,0.25,81,111.0
3217,B3,178.5,0.5,109,111.0
3218,G#4,178.5,0.5,109,111.0
3219,E4,178.5,0.5,109,111.0
3220,B3,178.5,0.5,84,111.0
3221,G#4,178.5,0.5,84,111.0
3222,E4,178.5,0.5,84,111.0
3223,A1,178.75,0.25,85,111.0
3224,A1,178.75,0.25,85,111.0
3225,C2,178.75,0.125,92,111.0
3226,A2,178.8,83/1000,90,111.0
3227,A1,179.0,0.5,70,111.0
3228,A1,179.0,0.5,70,111.0
3229,D2,179.0,0.25,113,111.0
3230,G#2,179.0,0.25,96,111.0
3231,C2,179.0,0.25,72,111.0
3232,A2,179.033,1/20,69,111.0
3233,E4,179.042,279/500,90,111.0
3234,G2,179.292,1/10,113,111.0
3235,G#1,179.5,0.25,109,111.0
3236,G#1,179.5,0.25,109,111.0
3237,D2,179.5,0.25,99,111.0
3238,G#2,179.5,0.25,84,111.0
3239,C2,179.5,183/1000,99,111.0
3240,G3,179.508,71/500,107,111.0
3241,G2,179.517,1/20,104,111.0
3242,D4,179.533,13/40,85,111.0
3243,A1,179.75,0.25,88,111.0
3244,A1,179.75,0.25,88,111.0
3245,D2,179.75,0.25,86,111.0
3246,F2,179.808,0.125,110,111.0
3247,E4,179.842,79/500,73,111.0
3248,B1,180.0,883/1000,126,111.0
3249,B1,180.0,883/1000,126,111.0
3250,E3,180.0,9/20,110,111.0
3251,D2,180.0,0.75,86,111.0
3252,C2,180.0,567/1000,113,111.0
3253,E4,180.0,1067/1000,73,111.0
3254,F#2,180.0,0.125,112,111.0
3255,A3,180.0,0.125,112,111.0
3256,E4,180.05,79/20,127,111.0
3257,A4,180.05,79/20,127,111.0
3258,B4,180.05,79/20,127,111.0
3259,D5,180.05,79/20,127,111.0
3260,G#2,180.25,67/1000,40,111.0
3261,D3,180.5,0.25,57,111.0
3262,F#2,180.5,117/1000,73,111.0
3263,E3,181.0,17/40,90,111.0
3264,C2,181.0,9/20,110,111.0
3265,F#2,181.0,79/500,104,111.0
3266,D4,181.05,921/500,53,111.0
3267,D3,181.5,167/1000,75,111.0
3268,F#2,181.5,0.125,81,111.0
3269,E3,182.0,17/20,104,111.0
3270,A4,182.0,7/40,125,111.0
3271,C2,182.0,567/1000,125,111.0
3272,F#2,182.0,183/1000,96,111.0
3273,A4,182.25,183/1000,97,111.0
3274,D3,182.75,717/1000,85,111.0
3275,F#2,182.75,24/125,84,111.0
3276,G4,182.75,1/10,120,111.0
3277,A4,182.75,1/10,120,111.0
3278,E4,183.0,233/1000,125,111.0
3279,F#2,183.0,7/40,84,111.0
3280,C2,183.0,121/500,117,111.0
3281,G3,183.483,0.125,127,111.0
3282,B2,183.5,283/1000,59,111.0
3283,E4,183.5,71/500,113,111.0
3284,F#2,183.5,7/40,78,111.0
3285,C2,183.5,7/40,78,111.0
3286,D3,183.75,1/5,75,111.0
3287,A3,183.75,71/500,113,111.0
3288,B5,183.917,83/1000,66,111.0
3289,E6,183.925,3/40,54,111.0
3290,C#3,183.992,1/125,91,111.0
3291,E-3,183.992,1/125,91,111.0
3292,E3,184.0,21/40,86,111.0
3293,A3,184.0,217/1000,62,111.0
3294,G#2,184.0,167/1000,109,111.0
3295,C2,184.0,51/125,117,111.0
3296,C2,184.0,0.5,104,111.0
3297,B5,184.0,4.0,66,111.0
3298,E6,184.0,4.0,54,111.0
3299,E1,184.0,279/500,102,111.0
3300,E2,184.0,279/500,102,111.0
3301,E1,184.0,279/500,102,111.0
3302,E2,184.0,279/500,102,111.0
3303,E4,184.0,0.125,127,111.0
3304,A4,184.0,0.125,127,111.0
3305,B4,184.0,0.125,127,111.0
3306,D5,184.0,0.125,127,111.0
3307,C#3,184.0,23/250,91,111.0
3308,E-3,184.0,23/250,91,111.0
3309,G#4,184.0,41/20,64,111.0
3310,B4,184.0,41/20,64,111.0
3311,G#4,184.0,41/20,64,111.0
3312,B4,184.0,41/20,64,111.0
3313,D2,184.5,3/10,104,111.0
3314,D2,184.5,3/10,104,111.0
3315,D3,184.5,9/20,62,111.0
3316,G#2,184.5,7/40,84,111.0
3317,E-3,184.5,167/1000,64,111.0
3318,E1,184.75,817/1000,88,111.0
3319,E1,184.75,817/1000,88,111.0
3320,C2,184.75,67/1000,94,111.0
3321,E2,185.0,567/1000,104,111.0
3322,E2,185.0,567/1000,104,111.0
3323,E3,185.0,17/40,86,111.0
3324,G#2,185.0,26/125,96,111.0
3325,D2,185.0,2/5,123,111.0
3326,C2,185.0,167/1000,79,111.0
3327,D2,185.5,7/20,94,111.0
3328,D2,185.5,7/20,94,111.0
3329,D3,185.5,79/500,97,111.0
3330,G#2,185.5,26/125,73,111.0
3331,C2,185.5,167/1000,101,111.0
3332,E-3,185.5,0.125,100,111.0
3333,E3,186.0,429/500,110,111.0
3334,G#2,186.0,233/1000,114,111.0
3335,C2,186.0,83/1000,90,111.0
3336,E1,186.0,17/20,87,111.0
3337,E2,186.0,17/20,87,111.0
3338,E1,186.0,17/20,87,111.0
3339,E2,186.0,17/20,87,111.0
3340,G#4,186.0,329/500,84,111.0
3341,B4,186.0,329/500,84,111.0
3342,G#4,186.0,329/500,84,111.0
3343,B4,186.0,329/500,84,111.0
3344,B3,186.017,833/1000,104,111.0
3345,C2,186.25,79/500,66,111.0
3346,G#2,186.5,167/1000,86,111.0
3347,E-3,186.5,0.125,109,111.0
3348,D2,186.75,11/40,104,111.0
3349,D2,186.75,11/40,104,111.0
3350,D3,186.75,4/5,76,111.0
3351,C2,186.75,67/1000,80,111.0
3352,C#5,186.75,271/500,75,111.0
3353,A4,186.75,271/500,75,111.0
3354,C#5,186.75,271/500,75,111.0
3355,A4,186.75,271/500,75,111.0
3356,C#4,186.8,583/1000,92,111.0
3357,E1,187.0,583/1000,97,111.0
3358,E1,187.0,583/1000,97,111.0
3359,G#2,187.0,233/1000,100,111.0
3360,D2,187.0,49/125,123,111.0
3361,C2,187.0,9/40,73,111.0
3362,D4,187.483,517/1000,101,111.0
3363,B1,187.5,121/500,79,111.0
3364,B1,187.5,121/500,79,111.0
3365,B2,187.5,0.25,79,111.0
3366,B-2,187.5,1/5,124,111.0
3367,C2,187.5,24/125,76,111.0
3368,E-3,187.5,0.125,109,111.0
3369,B4,187.5,0.5,80,111.0
3370,D5,187.5,0.5,82,111.0
3371,B4,187.5,0.5,80,111.0
3372,D5,187.5,0.5,82,111.0
3373,E1,187.75,167/1000,82,111.0
3374,E1,187.75,167/1000,82,111.0
3375,D3,187.75,7/40,75,111.0
3376,E1,188.0,617/1000,58,111.0
3377,E2,188.0,21/40,110,111.0
3378,E1,188.0,617/1000,58,111.0
3379,E2,188.0,21/40,110,111.0
3380,E3,188.0,517/1000,88,111.0
3381,G#2,188.0,217/1000,119,111.0
3382,C2,188.0,229/500,99,111.0
3383,B4,188.0,1417/1000,80,111.0
3384,D5,188.0,53/40,82,111.0
3385,B4,188.0,1417/1000,80,111.0
3386,D5,188.0,53/40,82,111.0
3387,B5,188.0,267/1000,66,111.0
3388,E6,188.0,4.0,54,111.0
3389,D4,188.0,176/125,101,111.0
3390,A5,188.175,153/40,62,111.0
3391,D2,188.5,283/1000,78,111.0
3392,D2,188.5,283/1000,78,111.0
3393,D3,188.5,267/1000,69,111.0
3394,G#2,188.5,79/500,68,111.0
3395,E-3,188.5,27/250,109,111.0
3396,C2,188.75,117/1000,85,111.0
3397,E3,189.0,49/125,90,111.0
3398,G#2,189.0,24/125,109,111.0
3399,D2,189.0,317/1000,110,111.0
3400,C2,189.0,26/125,74,111.0
3401,E2,189.0,0.5,102,111.0
3402,E1,189.0,0.5,102,111.0
3403,E2,189.0,0.5,102,111.0
3404,E1,189.0,0.5,102,111.0
3405,D2,189.5,9/40,82,111.0
3406,D2,189.5,9/40,82,111.0
3407,D3,189.5,317/1000,75,111.0
3408,G#2,189.5,26/125,104,111.0
3409,C2,189.5,24/125,67,111.0
3410,E-3,189.5,27/250,109,111.0
3411,B4,189.5,383/1000,71,111.0
3412,D5,189.5,383/1000,71,111.0
3413,B4,189.5,383/1000,71,111.0
3414,D5,189.5,383/1000,71,111.0
3415,D4,189.525,279/500,94,111.0
3416,E1,189.75,19/20,90,111.0
3417,E1,189.75,19/20,90,111.0
3418,E2,190.0,177/250,97,111.0
3419,E2,190.0,177/250,97,111.0
3420,E3,190.0,429/500,97,111.0
3421,G#2,190.0,283/1000,109,111.0
3422,C2,190.0,23/250,82,111.0
3423,A4,190.0,29/40,87,111.0
3424,C#5,190.0,29/40,87,111.0
3425,A4,190.0,29/40,87,111.0
3426,C#5,190.0,29/40,87,111.0
3427,C#4,190.042,421/500,100,111.0
3428,C2,190.25,183/1000,66,111.0
3429,G#2,190.5,217/1000,75,111.0
3430,E-3,190.5,0.125,119,111.0
3431,D2,190.75,9/20,99,111.0
3432,D2,190.75,9/20,99,111.0
3433,D3,190.75,329/500,76,111.0
3434,C2,190.75,27/250,80,111.0
3435,B4,190.75,683/1000,82,111.0
3436,D5,190.75,9/20,78,111.0
3437,B4,190.75,683/1000,82,111.0
3438,D5,190.75,9/20,78,111.0
3439,D4,190.842,567/1000,88,111.0
3440,E1,191.0,19/40,120,111.0
3441,E1,191.0,19/40,120,111.0
3442,G#2,191.0,73/250,109,111.0
3443,D2,191.0,367/1000,113,111.0
3444,C2,191.0,267/1000,80,111.0
3445,B3,191.467,533/1000,97,111.0
3446,B1,191.5,79/500,75,111.0
3447,B1,191.5,79/500,75,111.0
3448,B2,191.5,129/500,75,111.0
3449,B-2,191.5,26/125,114,111.0
3450,C2,191.5,79/500,78,111.0
3451,B4,191.5,0.5,73,111.0
3452,G#4,191.5,0.5,71,111.0
3453,B4,191.5,0.5,73,111.0
3454,G#4,191.5,0.5,71,111.0
3455,E-3,191.5,23/250,96,111.0
3456,G3,191.5,23/250,96,111.0
3457,D3,191.75,1/5,72,111.0
3458,E1,191.75,3/40,68,111.0
3459,D1,191.75,3/40,68,111.0
3460,E1,191.75,3/40,68,111.0
3461,D1,191.75,3/40,68,111.0
3462,E3,192.0,383/1000,86,111.0
3463,G#2,192.0,9/40,119,111.0
3464,C2,192.0,417/1000,110,111.0
3465,B4,192.0,1833/1000,73,111.0
3466,G#4,192.0,1767/1000,71,111.0
3467,B4,192.0,1833/1000,73,111.0
3468,G#4,192.0,1767/1000,71,111.0
3469,E6,192.0,4.0,54,111.0
3470,A5,192.0,71/500,62,111.0
3471,B3,192.0,427/250,97,111.0
3472,E2,192.0,19/40,77,111.0
3473,E1,192.0,19/40,77,111.0
3474,E2,192.0,19/40,77,111.0
3475,E1,192.0,19/40,77,111.0
3476,G#5,192.008,499/125,48,111.0
3477,A3,192.025,3/40,110,111.0
3478,D2,192.5,13/40,82,111.0
3479,D2,192.5,13/40,82,111.0
3480,D3,192.5,129/500,94,111.0
3481,G#2,192.5,129/500,86,111.0
3482,E-3,192.5,27/250,109,111.0
3483,E1,192.75,379/500,113,111.0
3484,E1,192.75,379/500,113,111.0
3485,C2,192.75,67/1000,82,111.0
3486,E2,193.0,517/1000,92,111.0
3487,E2,193.0,517/1000,92,111.0
3488,E3,193.0,0.375,104,111.0
3489,G#2,193.0,121/500,96,111.0
3490,D2,193.0,367/1000,113,111.0
3491,C2,193.0,26/125,74,111.0
3492,D2,193.5,9/40,88,111.0
3493,D2,193.5,9/40,88,111.0
3494,D3,193.5,633/1000,82,111.0
3495,G#2,193.5,121/500,96,111.0
3496,C2,193.5,1/5,94,111.0
3497,E-3,193.5,1/10,114,111.0
3498,E1,193.75,933/1000,99,111.0
3499,E1,193.75,933/1000,99,111.0
3500,B3,193.992,783/1000,97,111.0
3501,E2,194.0,733/1000,92,111.0
3502,E2,194.0,733/1000,92,111.0
3503,E3,194.0,24/125,79,111.0
3504,G#2,194.0,267/1000,109,111.0
3505,C2,194.0,3/40,83,111.0
3506,B4,194.0,329/500,86,111.0
3507,G#4,194.0,279/500,84,111.0
3508,B4,194.0,329/500,86,111.0
3509,G#4,194.0,279/500,84,111.0
3510,A2,194.25,267/1000,113,111.0
3511,C2,194.25,24/125,67,111.0
3512,G#2,194.5,7/40,77,111.0
3513,E-3,194.5,21/500,104,111.0
3514,C#4,194.708,833/1000,77,111.0
3515,D2,194.75,483/1000,99,111.0
3516,D2,194.75,483/1000,99,111.0
3517,B2,194.75,283/1000,117,111.0
3518,C2,194.75,1/10,76,111.0
3519,C#5,194.75,23/40,64,111.0
3520,A4,194.75,23/40,64,111.0
3521,C#5,194.75,23/40,64,111.0
3522,A4,194.75,23/40,64,111.0
3523,E1,195.0,271/500,110,111.0
3524,E1,195.0,271/500,110,111.0
3525,G#2,195.0,11/40,100,111.0
3526,D2,195.0,229/500,113,111.0
3527,C2,195.0,233/1000,78,111.0
3528,D3,195.25,51/125,113,111.0
3529,B1,195.5,233/1000,82,111.0
3530,B1,195.5,233/1000,82,111.0
3531,B-2,195.5,0.25,114,111.0
3532,C2,195.5,133/1000,80,111.0
3533,E-3,195.5,1/20,96,111.0
3534,C#5,195.5,0.5,79,111.0
3535,E5,195.5,0.5,83,111.0
3536,C#5,195.5,0.5,79,111.0
3537,E5,195.5,0.5,83,111.0
3538,F#4,195.6,2/5,32,111.0
3539,E1,195.75,0.25,113,111.0
3540,E1,195.75,0.25,113,111.0
3541,B2,195.75,9/40,68,111.0
3542,E2,196.0,17/40,104,111.0
3543,E1,196.0,483/1000,113,111.0
3544,E2,196.0,17/40,104,111.0
3545,E1,196.0,483/1000,113,111.0
3546,E3,196.0,3/5,101,111.0
3547,G#2,196.0,121/500,119,111.0
3548,C2,196.0,417/1000,107,111.0
3549,C#5,196.0,367/1000,79,111.0
3550,E5,196.0,9/20,83,111.0
3551,C#5,196.0,367/1000,79,111.0
3552,E5,196.0,9/20,83,111.0
3553,E6,196.0,1133/40,54,111.0
3554,G#5,196.0,3/20,48,111.0
3555,F#4,196.0,567/1000,32,111.0
3556,A5,196.017,3983/1000,44,111.0
3557,D2,196.5,7/20,99,111.0
3558,D2,196.5,7/20,99,111.0
3559,D3,196.5,3/10,79,111.0
3560,G#2,196.5,24/125,100,111.0
3561,E-3,196.5,33/1000,100,111.0
3562,B4,196.5,229/500,65,111.0
3563,D5,196.5,229/500,65,111.0
3564,B4,196.5,229/500,65,111.0
3565,D5,196.5,229/500,65,111.0
3566,C2,196.75,29/500,66,111.0
3567,E3,197.0,567/1000,101,111.0
3568,G#2,197.0,233/1000,119,111.0
3569,D2,197.0,2/5,117,111.0
3570,C2,197.0,183/1000,66,111.0
3571,E1,197.0,229/500,106,111.0
3572,E2,197.0,229/500,106,111.0
3573,E1,197.0,229/500,106,111.0
3574,E2,197.0,229/500,106,111.0
3575,C#5,197.0,267/1000,66,111.0
3576,A4,197.0,267/1000,66,111.0
3577,C#5,197.0,267/1000,66,111.0
3578,A4,197.0,267/1000,66,111.0
3579,B3,197.283,383/1000,37,111.0
3580,D2,197.5,121/500,76,111.0
3581,D2,197.5,121/500,76,111.0
3582,D3,197.5,13/40,83,111.0
3583,G#2,197.5,24/125,96,111.0
3584,C2,197.5,7/40,92,111.0
3585,E-3,197.5,3/40,96,111.0
3586,G#4,197.5,13/40,72,111.0
3587,B4,197.5,13/40,72,111.0
3588,G#4,197.5,13/40,72,111.0
3589,B4,197.5,13/40,72,111.0
3590,E1,197.75,41/40,67,111.0
3591,E1,197.75,41/40,67,111.0
3592,E2,198.0,767/1000,101,111.0
3593,E2,198.0,767/1000,101,111.0
3594,E3,198.0,421/500,97,111.0
3595,G#2,198.0,233/1000,114,111.0
3596,C2,198.0,27/250,99,111.0
3597,D5,198.0,4/5,76,111.0
3598,B4,198.0,717/1000,73,111.0
3599,D5,198.0,4/5,76,111.0
3600,B4,198.0,717/1000,73,111.0
3601,E4,198.025,0.75,58,111.0
3602,C2,198.25,1/5,66,111.0
3603,G#2,198.5,1/5,100,111.0
3604,E-3,198.5,83/1000,109,111.0
3605,D2,198.75,76/125,110,111.0
3606,D2,198.75,76/125,110,111.0
3607,D3,198.75,177/250,86,111.0
3608,C2,198.75,1/10,85,111.0
3609,A4,198.75,517/1000,62,111.0
3610,C#5,198.75,583/1000,86,111.0
3611,A4,198.75,517/1000,62,111.0
3612,C#5,198.75,583/1000,86,111.0
3613,C#4,198.908,367/1000,66,111.0
3614,E1,199.0,3/5,104,111.0
3615,E1,199.0,3/5,104,111.0
3616,G#2,199.0,0.25,114,111.0
3617,D2,199.0,7/10,107,111.0
3618,C2,199.0,121/500,72,111.0
3619,G#5,199.225,7/40,127,111.0
3620,G#4,199.225,7/40,127,111.0
3621,B3,199.35,13/20,39,111.0
3622,B1,199.5,24/125,80,111.0
3623,B1,199.5,24/125,80,111.0
3624,B2,199.5,267/1000,82,111.0
3625,B-2,199.5,217/1000,124,111.0
3626,C2,199.5,24/125,86,111.0
3627,G#4,199.5,0.5,86,111.0
3628,B4,199.5,0.5,94,111.0
3629,G#4,199.5,0.5,86,111.0
3630,B4,199.5,0.5,94,111.0
3631,E-3,199.5,83/1000,86,111.0
3632,G3,199.5,83/1000,86,111.0
3633,E1,199.75,0.25,113,111.0
3634,E1,199.75,0.25,113,111.0
3635,D3,199.75,26/125,80,111.0
3636,B-5,199.808,7/40,127,111.0
3637,B-4,199.808,7/40,127,111.0
3638,B5,199.967,33/1000,57,111.0
3639,E2,200.0,21/40,104,111.0
3640,E1,200.0,517/1000,113,111.0
3641,E2,200.0,21/40,104,111.0
3642,E1,200.0,517/1000,113,111.0
3643,E3,200.0,229/500,78,111.0
3644,G#2,200.0,9/40,109,111.0
3645,C2,200.0,17/40,104,111.0
3646,G#4,200.0,1533/1000,86,111.0
3647,B4,200.0,73/40,94,111.0
3648,G#4,200.0,1533/1000,86,111.0
3649,B4,200.0,73/40,94,111.0
3650,B3,200.0,1633/1000,39,111.0
3651,C#3,200.025,3/40,114,111.0
3652,D2,200.5,0.375,99,111.0
3653,D2,200.5,0.375,99,111.0
3654,D3,200.5,121/500,90,111.0
3655,G#2,200.5,79/500,89,111.0
3656,E-3,200.5,1/20,89,111.0
3657,C2,200.75,1/10,66,111.0
3658,E3,201.0,11/40,97,111.0
3659,G#2,201.0,26/125,114,111.0
3660,D2,201.0,179/500,110,111.0
3661,C2,201.0,129/500,74,111.0
3662,E1,201.0,229/500,90,111.0
3663,E2,201.0,229/500,90,111.0
3664,E1,201.0,229/500,90,111.0
3665,E2,201.0,229/500,90,111.0
3666,D2,201.5,0.25,82,111.0
3667,D2,201.5,0.25,82,111.0
3668,D3,201.5,0.25,83,111.0
3669,G#2,201.5,183/1000,100,111.0
3670,C2,201.5,24/125,97,111.0
3671,E-3,201.5,21/500,86,111.0
3672,E1,201.75,983/1000,82,111.0
3673,E1,201.75,983/1000,82,111.0
3674,B3,201.992,917/1000,97,111.0
3675,E2,202.0,29/40,90,111.0
3676,E2,202.0,29/40,90,111.0
3677,E3,202.0,833/1000,94,111.0
3678,G#2,202.0,9/40,119,111.0
3679,C2,202.0,3/40,78,111.0
3680,G#4,202.0,76/125,87,111.0
3681,B4,202.0,76/125,87,111.0
3682,G#4,202.0,76/125,87,111.0
3683,B4,202.0,76/125,87,111.0
3684,C2,202.25,24/125,72,111.0
3685,G#2,202.5,167/1000,89,111.0
3686,E-3,202.5,21/500,89,111.0
3687,D2,202.75,467/1000,94,111.0
3688,D2,202.75,467/1000,94,111.0
3689,D3,202.75,0.75,90,111.0
3690,C2,202.75,0.125,92,111.0
3691,C#5,202.75,279/500,65,111.0
3692,A4,202.75,279/500,65,111.0
3693,C#5,202.75,279/500,65,111.0
3694,A4,202.75,279/500,65,111.0
3695,C#4,202.817,3/5,96,111.0
3696,E1,203.0,74/125,104,111.0
3697,E1,203.0,74/125,104,111.0
3698,G#2,203.0,233/1000,109,111.0
3699,D2,203.0,0.375,117,111.0
3700,C2,203.0,0.25,72,111.0
3701,B1,203.5,9/40,83,111.0
3702,B1,203.5,9/40,83,111.0
3703,B2,203.5,121/500,79,111.0
3704,B-2,203.5,233/1000,100,111.0
3705,C2,203.5,183/1000,99,111.0
3706,E-3,203.5,1/20,114,111.0
3707,B4,203.5,0.5,86,111.0
3708,D5,203.5,0.5,86,111.0
3709,B4,203.5,0.5,86,111.0
3710,D5,203.5,0.5,86,111.0
3711,D4,203.525,19/40,97,111.0
3712,E1,203.75,0.25,97,111.0
3713,E1,203.75,0.25,97,111.0
3714,D3,203.75,183/1000,92,111.0
3715,E2,204.0,229/500,107,111.0
3716,E1,204.0,74/125,97,111.0
3717,E2,204.0,229/500,107,111.0
3718,E1,204.0,74/125,97,111.0
3719,E3,204.0,9/20,73,111.0
3720,G#2,204.0,0.25,114,111.0
3721,C2,204.0,383/1000,97,111.0
3722,D4,204.0,7/5,97,111.0
3723,B4,204.0,51/40,86,111.0
3724,D5,204.0,51/40,86,111.0
3725,B4,204.0,51/40,86,111.0
3726,D5,204.0,51/40,86,111.0
3727,D2,204.5,367/1000,94,111.0
3728,D2,204.5,367/1000,94,111.0
3729,D3,204.5,24/125,92,111.0
3730,G#2,204.5,7/40,86,111.0
3731,E-3,204.5,33/1000,96,111.0
3732,C2,204.75,23/250,73,111.0
3733,E3,205.0,283/1000,97,111.0
3734,G#2,205.0,26/125,100,111.0
3735,D2,205.0,171/500,117,111.0
3736,C2,205.0,121/500,73,111.0
3737,E2,205.0,123/250,96,111.0
3738,E1,205.0,123/250,96,111.0
3739,E2,205.0,123/250,96,111.0
3740,E1,205.0,123/250,96,111.0
3741,D2,205.5,217/1000,92,111.0
3742,D2,205.5,217/1000,92,111.0
3743,D3,205.5,0.25,92,111.0
3744,G#2,205.5,1/5,96,111.0
3745,C2,205.5,79/500,83,111.0
3746,E-3,205.5,23/250,109,111.0
3747,B4,205.5,383/1000,78,111.0
3748,D5,205.5,383/1000,78,111.0
3749,B4,205.5,383/1000,78,111.0
3750,D5,205.5,383/1000,78,111.0
3751,E4,205.508,27/250,37,111.0
3752,D4,205.542,433/1000,104,111.0
3753,E1,205.75,479/500,86,111.0
3754,E1,205.75,479/500,86,111.0
3755,E2,206.0,767/1000,94,111.0
3756,E2,206.0,767/1000,94,111.0
3757,E3,206.0,429/500,104,111.0
3758,G#2,206.0,121/500,109,111.0
3759,C2,206.0,23/250,88,111.0
3760,A4,206.0,479/500,86,111.0
3761,C#5,206.0,733/1000,77,111.0
3762,A4,206.0,479/500,86,111.0
3763,C#5,206.0,733/1000,77,111.0
3764,C#4,206.083,4/5,104,111.0
3765,C2,206.25,24/125,67,111.0
3766,G#2,206.5,1/5,69,111.0
3767,E-3,206.5,27/250,104,111.0
3768,D2,206.75,127/250,97,111.0
3769,D2,206.75,127/250,97,111.0
3770,D3,206.75,29/40,92,111.0
3771,C2,206.75,0.125,94,111.0
3772,B4,206.75,0.625,83,111.0
3773,D5,206.75,221/500,85,111.0
3774,B4,206.75,0.625,83,111.0
3775,D5,206.75,221/500,85,111.0
3776,D4,206.9,0.5,86,111.0
3777,E1,207.0,633/1000,104,111.0
3778,E1,207.0,633/1000,104,111.0
3779,G#2,207.0,9/40,100,111.0
3780,D2,207.0,383/1000,113,111.0
3781,C2,207.0,121/500,69,111.0
3782,B3,207.442,279/500,101,111.0
3783,B1,207.5,77/250,79,111.0
3784,B1,207.5,77/250,79,111.0
3785,B2,207.5,3/10,82,111.0
3786,B-2,207.5,233/1000,114,111.0
3787,C2,207.5,71/500,78,111.0
3788,B4,207.5,0.5,86,111.0
3789,G#4,207.5,0.5,86,111.0
3790,B4,207.5,0.5,86,111.0
3791,G#4,207.5,0.5,86,111.0
3792,E-3,207.5,1/20,96,111.0
3793,G3,207.5,1/20,96,111.0
3794,D3,207.75,183/1000,83,111.0
3795,E1,208.0,371/500,99,111.0
3796,E2,208.0,383/1000,107,111.0
3797,E1,208.0,371/500,99,111.0
3798,E2,208.0,383/1000,107,111.0
3799,E3,208.0,49/125,88,111.0
3800,G#2,208.0,11/40,96,111.0
3801,C2,208.0,433/1000,104,111.0
3802,B4,208.0,1817/1000,86,111.0
3803,G#4,208.0,1.75,86,111.0
3804,B4,208.0,1817/1000,86,111.0
3805,G#4,208.0,1.75,86,111.0
3806,B3,208.0,1633/1000,101,111.0
3807,A3,208.017,33/1000,94,111.0
3808,D2,208.5,11/40,73,111.0
3809,D2,208.5,11/40,73,111.0
3810,D3,208.5,26/125,90,111.0
3811,G#2,208.5,3/20,84,111.0
3812,E-3,208.5,71/500,109,111.0
3813,C2,208.75,0.125,92,111.0
3814,E1,209.0,271/500,101,111.0
3815,E2,209.0,229/500,86,111.0
3816,E1,209.0,271/500,101,111.0
3817,E2,209.0,229/500,86,111.0
3818,E3,209.0,7/20,97,111.0
3819,G#2,209.0,233/1000,114,111.0
3820,D2,209.0,317/1000,117,111.0
3821,C2,209.0,0.25,71,111.0
3822,D2,209.5,0.25,78,111.0
3823,D2,209.5,0.25,78,111.0
3824,D3,209.5,77/250,83,111.0
3825,G#2,209.5,217/1000,86,111.0
3826,C2,209.5,167/1000,86,111.0
3827,E-3,209.5,117/1000,109,111.0
3828,E1,209.75,41/40,86,111.0
3829,E1,209.75,41/40,86,111.0
3830,B3,209.95,9/10,78,111.0
3831,E2,210.0,177/250,99,111.0
3832,E2,210.0,177/250,99,111.0
3833,E3,210.0,917/1000,94,111.0
3834,G#2,210.0,129/500,100,111.0
3835,C2,210.0,3/40,86,111.0
3836,B4,210.0,329/500,83,111.0
3837,G#4,210.0,11/20,75,111.0
3838,B4,210.0,329/500,83,111.0
3839,G#4,210.0,11/20,75,111.0
3840,C2,210.25,24/125,71,111.0
3841,G#2,210.5,233/1000,89,111.0
3842,E-3,210.5,0.125,114,111.0
3843,D2,210.75,271/500,101,111.0
3844,D2,210.75,271/500,101,111.0
3845,D3,210.75,733/1000,90,111.0
3846,C2,210.75,1/10,78,111.0
3847,A4,210.75,0.25,60,111.0
3848,C#5,210.75,0.25,60,111.0
3849,A4,210.75,0.25,60,111.0
3850,C#5,210.75,0.25,60,111.0
3851,C#4,210.758,733/1000,79,111.0
3852,E1,211.0,567/1000,107,111.0
3853,E1,211.0,567/1000,107,111.0
3854,G#2,211.0,233/1000,109,111.0
3855,D2,211.0,9/20,117,111.0
3856,C2,211.0,233/1000,66,111.0
3857,B1,211.5,129/500,83,111.0
3858,B1,211.5,129/500,83,111.0
3859,B2,211.5,0.25,66,111.0
3860,B-2,211.5,121/500,119,111.0
3861,C2,211.5,183/1000,82,111.0
3862,E-3,211.5,3/20,114,111.0
3863,D5,211.5,0.5,90,111.0
3864,F#5,211.5,0.5,73,111.0
3865,D5,211.5,0.5,90,111.0
3866,F#5,211.5,0.5,73,111.0
3867,E1,211.75,0.25,80,111.0
3868,E1,211.75,0.25,80,111.0
3869,D3,211.75,26/125,75,111.0
3870,E2,212.0,483/1000,97,111.0
3871,E1,212.0,329/500,80,111.0
3872,E2,212.0,483/1000,97,111.0
3873,E1,212.0,329/500,80,111.0
3874,B2,212.0,4/5,54,111.0
3875,G#2,212.0,121/500,114,111.0
3876,C2,212.0,51/125,117,111.0
3877,C2,212.0,0.5,104,111.0
3878,D5,212.0,333/1000,90,111.0
3879,F#5,212.0,129/500,73,111.0
3880,D5,212.0,333/1000,90,111.0
3881,F#5,212.0,129/500,73,111.0
3882,D2,212.5,221/500,90,111.0
3883,D2,212.5,221/500,90,111.0
3884,G#2,212.5,24/125,92,111.0
3885,E-3,212.5,71/500,109,111.0
3886,E5,212.5,13/40,66,111.0
3887,C#5,212.5,13/40,66,111.0
3888,E5,212.5,13/40,66,111.0
3889,C#5,212.5,13/40,66,111.0
3890,C2,212.75,67/1000,94,111.0
3891,E2,213.0,0.5,80,111.0
3892,E1,213.0,567/1000,101,111.0
3893,E2,213.0,0.5,80,111.0
3894,E1,213.0,567/1000,101,111.0
3895,G#2,213.0,217/1000,114,111.0
3896,D2,213.0,367/1000,117,111.0
3897,C2,213.0,167/1000,79,111.0
3898,B4,213.0,179/500,56,111.0
3899,D5,213.0,73/250,55,111.0
3900,B4,213.0,179/500,56,111.0
3901,D5,213.0,73/250,55,111.0
3902,D2,213.5,283/1000,90,111.0
3903,D2,213.5,283/1000,90,111.0
3904,G#2,213.5,183/1000,109,111.0
3905,C3,213.5,127/250,123,111.0
3906,C2,213.5,167/1000,101,111.0
3907,E-3,213.5,0.125,100,111.0
3908,A4,213.5,171/500,70,111.0
3909,C#5,213.5,171/500,70,111.0
3910,A4,213.5,171/500,70,111.0
3911,C#5,213.5,171/500,70,111.0
3912,E1,213.75,967/1000,76,111.0
3913,E1,213.75,967/1000,76,111.0
3914,E2,214.0,13/20,88,111.0
3915,E2,214.0,13/20,88,111.0
3916,G#2,214.0,1/5,104,111.0
3917,D2,214.0,183/1000,66,111.0
3918,C2,214.0,83/1000,90,111.0
3919,B2,214.0,27/250,113,111.0
3920,D5,214.0,67/1000,53,111.0
3921,D5,214.0,67/1000,53,111.0
3922,B4,214.0,883/1000,78,111.0
3923,E5,214.0,883/1000,78,111.0
3924,B4,214.0,883/1000,78,111.0
3925,E5,214.0,883/1000,78,111.0
3926,B2,214.25,333/1000,123,111.0
3927,C2,214.25,79/500,66,111.0
3928,G#2,214.5,167/1000,100,111.0
3929,B2,214.5,1/20,113,111.0
3930,D2,214.75,733/1000,101,111.0
3931,D2,214.75,733/1000,101,111.0
3932,B2,214.75,1/5,97,111.0
3933,C2,214.75,67/1000,80,111.0
3934,E1,215.0,74/125,97,111.0
3935,E1,215.0,74/125,97,111.0
3936,G#2,215.0,233/1000,104,111.0
3937,D2,215.0,2/5,90,111.0
3938,C2,215.0,9/40,73,111.0
3939,A4,215.0,0.875,74,111.0
3940,C#5,215.0,0.875,74,111.0
3941,A4,215.0,0.875,74,111.0
3942,C#5,215.0,0.875,74,111.0
3943,B1,215.5,367/1000,62,111.0
3944,B1,215.5,367/1000,62,111.0
3945,B-2,215.5,183/1000,119,111.0
3946,A2,215.5,71/500,107,111.0
3947,C2,215.5,24/125,76,111.0
3948,E1,215.75,0.25,92,111.0
3949,E1,215.75,0.25,92,111.0
3950,G2,215.75,133/1000,113,111.0
3951,B1,216.0,0.5,97,111.0
3952,E1,216.0,21/500,92,111.0
3953,B1,216.0,0.5,97,111.0
3954,E1,216.0,21/500,92,111.0
3955,G#2,216.0,0.25,104,111.0
3956,C#3,216.0,79/500,119,111.0
3957,C2,216.0,229/500,99,111.0
3958,B4,216.0,4.0,83,111.0
3959,F#4,216.0,83/1000,63,111.0
3960,B4,216.0,4.0,83,111.0
3961,F#4,216.0,83/1000,63,111.0
3962,F#4,216.0,0.25,103,111.0
3963,D4,216.0,0.25,103,111.0
3964,B3,216.0,0.25,103,111.0
3965,F#4,216.0,0.25,78,111.0
3966,D4,216.0,0.25,78,111.0
3967,B3,216.0,0.25,78,111.0
3968,B3,216.075,157/40,57,111.0
3969,B3,216.25,0.25,91,111.0
3970,B3,216.25,0.25,66,111.0
3971,B4,216.25,0.25,120,111.0
3972,B3,216.5,0.25,61,111.0
3973,B3,216.5,0.25,36,111.0
3974,D4,216.5,1/10,54,111.0
3975,G#4,216.5,0.25,101,111.0
3976,G#2,216.5,0.25,86,111.0
3977,F#4,216.5,79/500,52,111.0
3978,B3,216.5,79/500,52,111.0
3979,B1,216.75,0.25,82,111.0
3980,B1,216.75,0.25,82,111.0
3981,C2,216.75,117/1000,85,111.0
3982,F#4,216.75,0.25,98,111.0
3983,D4,216.75,0.25,98,111.0
3984,B3,216.75,0.25,98,111.0
3985,F#4,216.75,0.25,73,111.0
3986,D4,216.75,0.25,73,111.0
3987,B3,216.75,0.25,73,111.0
3988,B3,217.0,0.25,83,111.0
3989,B3,217.0,0.25,58,111.0
3990,B1,217.0,0.5,79,111.0
3991,B1,217.0,0.5,79,111.0
3992,A4,217.0,0.25,127,111.0
3993,D2,217.0,1.75,120,111.0
3994,C2,217.0,26/125,74,111.0
3995,G#2,217.0,11/40,108,111.0
3996,D2,217.0,11/40,108,111.0
3997,B3,217.25,0.25,77,111.0
3998,B3,217.25,0.25,52,111.0
3999,A1,217.5,0.5,88,111.0
4000,A1,217.5,0.5,88,111.0
4001,B4,217.5,0.25,127,111.0
4002,G#2,217.5,0.25,92,111.0
4003,C2,217.5,24/125,67,111.0
4004,F#4,217.5,0.25,107,111.0
4005,D4,217.5,0.25,107,111.0
4006,B3,217.5,0.25,107,111.0
4007,F#4,217.5,0.25,82,111.0
4008,D4,217.5,0.25,82,111.0
4009,B3,217.5,0.25,82,111.0
4010,F#4,217.5,117/1000,54,111.0
4011,B3,217.5,117/1000,54,111.0
4012,D4,217.5,117/1000,54,111.0
4013,B1,218.0,0.5,92,111.0
4014,B1,218.0,0.5,92,111.0
4015,G#4,218.0,0.25,127,111.0
4016,G#2,218.0,0.25,100,111.0
4017,C2,218.0,23/250,82,111.0
4018,A4,218.25,0.25,127,111.0
4019,C2,218.25,183/1000,66,111.0
4020,D4,218.5,1/10,66,111.0
4021,G#2,218.5,0.25,86,111.0
4022,F#4,218.5,0.5,99,111.0
4023,D4,218.5,0.5,99,111.0
4024,B3,218.5,0.5,99,111.0
4025,F#4,218.5,0.5,74,111.0
4026,D4,218.5,0.5,74,111.0
4027,B3,218.5,0.5,74,111.0
4028,F#4,218.5,7/40,60,111.0
4029,B3,218.5,7/40,60,111.0
4030,B1,218.75,0.25,97,111.0
4031,B1,218.75,0.25,97,111.0
4032,B4,218.75,0.25,127,111.0
4033,C2,218.75,27/250,80,111.0
4034,A1,219.0,0.5,104,111.0
4035,A1,219.0,0.5,104,111.0
4036,D2,219.0,1.0,117,111.0
4037,G#2,219.0,0.25,96,111.0
4038,C2,219.0,267/1000,80,111.0
4039,D5,219.25,0.25,127,111.0
4040,D4,219.5,23/250,80,111.0
4041,B1,219.5,0.5,92,111.0
4042,B1,219.5,0.5,92,111.0
4043,G#2,219.5,0.25,89,111.0
4044,C2,219.5,79/500,78,111.0
4045,F#4,219.5,3/20,72,111.0
4046,B3,219.5,3/20,72,111.0
4047,D5,219.75,0.25,127,111.0
4048,E1,220.0,0.5,101,111.0
4049,E1,220.0,0.5,101,111.0
4050,D2,220.0,0.75,117,111.0
4051,G#2,220.0,0.25,92,111.0
4052,C2,220.0,417/1000,110,111.0
4053,B4,220.0,67/1000,83,111.0
4054,B4,220.0,67/1000,83,111.0
4055,B3,220.0,326/125,57,111.0
4056,E4,220.0,0.25,100,111.0
4057,B3,220.0,0.25,100,111.0
4058,G#4,220.0,0.25,100,111.0
4059,E4,220.0,0.25,75,111.0
4060,B3,220.0,0.25,75,111.0
4061,G#4,220.0,0.25,75,111.0
4062,B3,220.25,0.25,93,111.0
4063,B3,220.25,0.25,68,111.0
4064,B4,220.25,0.25,127,111.0
4065,B3,220.5,0.25,74,111.0
4066,B3,220.5,0.25,49,111.0
4067,G#4,220.5,0.25,127,111.0
4068,G#2,220.5,0.25,84,111.0
4069,G#4,220.5,3/20,58,111.0
4070,E4,220.5,3/20,58,111.0
4071,B3,220.5,3/20,58,111.0
4072,E1,220.75,0.25,66,111.0
4073,E1,220.75,0.25,66,111.0
4074,C2,220.75,67/1000,82,111.0
4075,E4,220.75,0.25,106,111.0
4076,B3,220.75,0.25,106,111.0
4077,G#4,220.75,0.25,106,111.0
4078,E4,220.75,0.25,81,111.0
4079,B3,220.75,0.25,81,111.0
4080,G#4,220.75,0.25,81,111.0
4081,F#1,221.0,0.5,109,111.0
4082,F#1,221.0,0.5,109,111.0
4083,A4,221.0,0.25,127,111.0
4084,D2,221.0,1.75,117,111.0
4085,G#2,221.0,0.25,92,111.0
4086,C2,221.0,26/125,74,111.0
4087,B3,221.25,0.25,79,111.0
4088,B3,221.25,0.25,54,111.0
4089,G#1,221.5,0.5,100,111.0
4090,G#1,221.5,0.5,100,111.0
4091,B4,221.5,0.25,127,111.0
4092,G#2,221.5,0.25,86,111.0
4093,C2,221.5,1/5,94,111.0
4094,E4,221.5,0.5,100,111.0
4095,A3,221.5,0.5,100,111.0
4096,D4,221.5,0.5,100,111.0
4097,E4,221.5,0.5,75,111.0
4098,A3,221.5,0.5,75,111.0
4099,D4,221.5,0.5,75,111.0
4100,G#4,221.5,1/5,64,111.0
4101,E4,221.5,1/5,64,111.0
4102,B3,221.5,1/5,64,111.0
4103,A1,222.0,0.5,99,111.0
4104,A1,222.0,0.5,99,111.0
4105,G#4,222.0,0.25,127,111.0
4106,G#2,222.0,0.25,100,111.0
4107,C2,222.0,3/40,83,111.0
4108,A4,222.25,0.25,127,111.0
4109,C2,222.25,24/125,67,111.0
4110,G#2,222.5,0.25,79,111.0
4111,E4,222.5,0.5,100,111.0
4112,C#4,222.5,0.5,100,111.0
4113,A3,222.5,0.5,100,111.0
4114,E4,222.5,0.5,75,111.0
4115,C#4,222.5,0.5,75,111.0
4116,A3,222.5,0.5,75,111.0
4117,A3,222.5,133/1000,63,111.0
4118,E4,222.5,133/1000,63,111.0
4119,C#4,222.5,133/1000,63,111.0
4120,F#4,222.508,3/5,92,111.0
4121,A1,222.75,0.25,80,111.0
4122,A1,222.75,0.25,80,111.0
4123,B4,222.75,0.25,127,111.0
4124,C2,222.75,1/10,76,111.0
4125,A1,223.0,0.5,75,111.0
4126,A1,223.0,0.5,75,111.0
4127,D2,223.0,1.0,110,111.0
4128,G#2,223.0,0.25,100,111.0
4129,C2,223.0,233/1000,78,111.0
4130,E4,223.067,483/1000,85,111.0
4131,G#4,223.25,0.25,127,111.0
4132,A3,223.5,0.5,81,111.0
4133,A3,223.5,0.5,56,111.0
4134,G#1,223.5,0.25,109,111.0
4135,G#1,223.5,0.25,109,111.0
4136,G#2,223.5,0.25,92,111.0
4137,C2,223.5,133/1000,80,111.0
4138,E4,223.5,1/10,58,111.0
4139,A3,223.5,1/10,58,111.0
4140,C#4,223.5,1/10,58,111.0
4141,D4,223.508,7/20,83,111.0
4142,A1,223.75,0.25,80,111.0
4143,A1,223.75,0.25,80,111.0
4144,A4,223.75,0.25,127,111.0
4145,E4,223.767,233/1000,82,111.0
4146,B1,224.0,0.5,79,111.0
4147,B1,224.0,0.5,79,111.0
4148,D2,224.0,0.75,110,111.0
4149,G#2,224.0,0.25,100,111.0
4150,C2,224.0,417/1000,107,111.0
4151,E4,224.0,3/5,82,111.0
4152,B3,224.0,0.25,107,111.0
4153,F#4,224.0,0.25,107,111.0
4154,D4,224.0,0.25,107,111.0
4155,B3,224.0,0.25,82,111.0
4156,F#4,224.0,0.25,82,111.0
4157,D4,224.0,0.25,82,111.0
4158,B3,224.25,0.25,87,111.0
4159,B3,224.25,0.25,62,111.0
4160,B4,224.25,0.25,127,111.0
4161,A5,224.325,3/40,44,111.0
4162,B5,224.325,159/40,57,111.0
4163,B3,224.5,0.25,63,111.0
4164,B3,224.5,0.25,38,111.0
4165,G#4,224.5,0.25,127,111.0
4166,G#2,224.5,0.25,84,111.0
4167,F#4,224.5,133/1000,53,111.0
4168,B3,224.5,133/1000,53,111.0
4169,D4,224.5,133/1000,53,111.0
4170,D4,224.567,3433/1000,101,111.0
4171,B3,224.75,0.5,91,111.0
4172,B3,224.75,0.5,66,111.0
4173,B1,224.75,0.25,71,111.0
4174,B1,224.75,0.25,71,111.0
4175,C2,224.75,29/500,66,111.0
4176,F#4,224.75,0.25,112,111.0
4177,D4,224.75,0.25,112,111.0
4178,F#4,224.75,0.25,87,111.0
4179,D4,224.75,0.25,87,111.0
4180,B1,225.0,0.5,67,111.0
4181,B1,225.0,0.5,67,111.0
4182,A4,225.0,0.25,127,111.0
4183,D2,225.0,1.75,113,111.0
4184,G#2,225.0,0.25,96,111.0
4185,C2,225.0,183/1000,66,111.0
4186,B3,225.25,0.25,79,111.0
4187,B3,225.25,0.25,54,111.0
4188,A1,225.5,0.5,90,111.0
4189,A1,225.5,0.5,90,111.0
4190,B4,225.5,0.25,127,111.0
4191,G#2,225.5,0.25,96,111.0
4192,C2,225.5,7/40,92,111.0
4193,D4,225.5,0.25,107,111.0
4194,B3,225.5,0.25,107,111.0
4195,F#4,225.5,0.25,107,111.0
4196,D4,225.5,0.25,82,111.0
4197,B3,225.5,0.25,82,111.0
4198,F#4,225.5,0.25,82,111.0
4199,F#4,225.5,1/10,63,111.0
4200,B3,225.5,1/10,63,111.0
4201,D4,225.5,1/10,63,111.0
4202,B1,226.0,0.5,80,111.0
4203,B1,226.0,0.5,80,111.0
4204,G#4,226.0,0.25,127,111.0
4205,G#2,226.0,0.25,89,111.0
4206,C2,226.0,27/250,99,111.0
4207,A4,226.25,0.25,127,111.0
4208,C2,226.25,1/5,66,111.0
4209,D4,226.5,27/250,64,111.0
4210,G#2,226.5,0.25,79,111.0
4211,F#4,226.5,0.5,102,111.0
4212,D4,226.5,0.5,102,111.0
4213,B3,226.5,0.5,102,111.0
4214,F#4,226.5,0.5,77,111.0
4215,D4,226.5,0.5,77,111.0
4216,B3,226.5,0.5,77,111.0
4217,F#4,226.5,1/5,58,111.0
4218,B3,226.5,1/5,58,111.0
4219,B1,226.75,0.25,80,111.0
4220,B1,226.75,0.25,80,111.0
4221,B4,226.75,0.25,127,111.0
4222,C2,226.75,1/10,85,111.0
4223,A1,227.0,0.5,97,111.0
4224,A1,227.0,0.5,97,111.0
4225,D2,227.0,1.0,120,111.0
4226,G#2,227.0,0.25,89,111.0
4227,C2,227.0,121/500,72,111.0
4228,D5,227.25,0.25,127,111.0
4229,D4,227.5,27/250,72,111.0
4230,B1,227.5,0.5,83,111.0
4231,B1,227.5,0.5,83,111.0
4232,G#2,227.5,0.25,84,111.0
4233,C2,227.5,24/125,86,111.0
4234,B3,227.5,133/1000,62,111.0
4235,F#4,227.5,133/1000,62,111.0
4236,D5,227.75,0.25,127,111.0
4237,E4,228.0,0.5,117,111.0
4238,E4,228.0,0.5,92,111.0
4239,E1,228.0,0.5,104,111.0
4240,E1,228.0,0.5,104,111.0
4241,D2,228.0,0.75,120,111.0
4242,G#2,228.0,0.25,86,111.0
4243,C2,228.0,17/40,104,111.0
4244,D4,228.0,97/40,101,111.0
4245,A4,228.0,0.25,102,111.0
4246,D4,228.0,0.25,102,111.0
4247,A4,228.0,0.25,77,111.0
4248,D4,228.0,0.25,77,111.0
4249,B3,228.25,0.25,81,111.0
4250,B3,228.25,0.25,56,111.0
4251,B4,228.25,0.25,127,111.0
4252,A5,228.267,29/500,54,111.0
4253,A5,228.325,4.0,54,111.0
4254,B3,228.5,0.25,84,111.0
4255,B3,228.5,0.25,59,111.0
4256,G#4,228.5,0.25,127,111.0
4257,G#2,228.5,0.25,81,111.0
4258,G#4,228.5,183/1000,55,111.0
4259,E4,228.5,183/1000,55,111.0
4260,B3,228.5,183/1000,55,111.0
4261,E1,228.75,0.25,62,111.0
4262,E1,228.75,0.25,62,111.0
4263,C2,228.75,1/10,66,111.0
4264,E4,228.75,0.25,95,111.0
4265,A4,228.75,0.25,95,111.0
4266,D4,228.75,0.25,95,111.0
4267,E4,228.75,0.25,70,111.0
4268,A4,228.75,0.25,70,111.0
4269,D4,228.75,0.25,70,111.0
4270,B3,229.0,0.25,79,111.0
4271,B3,229.0,0.25,54,111.0
4272,F#1,229.0,0.5,119,111.0
4273,F#1,229.0,0.5,119,111.0
4274,A4,229.0,0.25,127,111.0
4275,D2,229.0,1.75,110,111.0
4276,G#2,229.0,0.25,89,111.0
4277,C2,229.0,129/500,74,111.0
4278,G#1,229.5,0.5,100,111.0
4279,G#1,229.5,0.5,100,111.0
4280,B4,229.5,0.25,127,111.0
4281,G#2,229.5,0.25,84,111.0
4282,C2,229.5,24/125,97,111.0
4283,G#4,229.5,0.5,109,111.0
4284,E4,229.5,0.5,109,111.0
4285,B3,229.5,0.5,109,111.0
4286,G#4,229.5,0.5,84,111.0
4287,E4,229.5,0.5,84,111.0
4288,B3,229.5,0.5,84,111.0
4289,G#4,229.5,183/1000,61,111.0
4290,E4,229.5,183/1000,61,111.0
4291,B3,229.5,183/1000,61,111.0
4292,A1,230.0,0.5,94,111.0
4293,A1,230.0,0.5,94,111.0
4294,G#4,230.0,0.25,127,111.0
4295,G#2,230.0,0.25,89,111.0
4296,C2,230.0,3/40,78,111.0
4297,A4,230.25,0.25,127,111.0
4298,C2,230.25,24/125,72,111.0
4299,G#2,230.5,0.25,77,111.0
4300,B3,230.5,0.5,101,111.0
4301,G#4,230.5,0.5,101,111.0
4302,E4,230.5,0.5,101,111.0
4303,B3,230.5,0.5,76,111.0
4304,G#4,230.5,0.5,76,111.0
4305,E4,230.5,0.5,76,111.0
4306,E4,230.5,167/1000,58,111.0
4307,C#4,230.5,167/1000,58,111.0
4308,A3,230.5,167/1000,58,111.0
4309,D4,230.517,567/1000,67,111.0
4310,A1,230.75,0.25,88,111.0
4311,A1,230.75,0.25,88,111.0
4312,B4,230.75,0.25,127,111.0
4313,C2,230.75,0.125,92,111.0
4314,A1,231.0,0.5,71,111.0
4315,A1,231.0,0.5,71,111.0
4316,D2,231.0,0.25,101,111.0
4317,G#2,231.0,0.25,79,111.0
4318,C2,231.0,0.25,72,111.0
4319,C#4,231.033,271/500,54,111.0
4320,G#4,231.25,0.25,127,111.0
4321,G#1,231.5,0.25,104,111.0
4322,G#1,231.5,0.25,104,111.0
4323,D2,231.5,0.25,99,111.0
4324,G#2,231.5,0.25,86,111.0
4325,C2,231.5,183/1000,99,111.0
4326,E4,231.5,7/40,60,111.0
4327,C#4,231.5,7/40,60,111.0
4328,A3,231.5,7/40,60,111.0
4329,D4,231.533,1/5,63,111.0
4330,A1,231.75,0.25,82,111.0
4331,A1,231.75,0.25,82,111.0
4332,A4,231.75,0.25,127,111.0
4333,D2,231.75,0.25,74,111.0
4334,B3,231.75,0.25,63,111.0
4335,E4,231.933,67/1000,46,111.0
4336,B1,232.0,0.5,78,111.0
4337,B1,232.0,0.5,78,111.0
4338,D2,232.0,0.5,74,111.0
4339,G#2,232.0,0.25,81,111.0
4340,C2,232.0,383/1000,97,111.0
4341,E4,232.0,4.0,46,111.0
4342,B3,232.0,4.0,63,111.0
4343,F#4,232.0,0.25,96,111.0
4344,B3,232.0,0.25,96,111.0
4345,D4,232.0,0.25,96,111.0
4346,F#4,232.0,0.25,71,111.0
4347,B3,232.0,0.25,71,111.0
4348,D4,232.0,0.25,71,111.0
4349,B3,232.25,0.25,91,111.0
4350,B3,232.25,0.25,66,111.0
4351,B4,232.25,0.25,127,111.0
4352,A5,232.325,117/1000,54,111.0
4353,G#5,232.342,3983/1000,54,111.0
4354,B3,232.5,0.25,71,111.0
4355,B3,232.5,0.25,46,111.0
4356,G#4,232.5,0.25,127,111.0
4357,G#2,232.5,0.25,84,111.0
4358,F#4,232.5,133/1000,59,111.0
4359,B3,232.5,133/1000,59,111.0
4360,D4,232.5,133/1000,59,111.0
4361,B1,232.75,0.25,75,111.0
4362,B1,232.75,0.25,75,111.0
4363,C2,232.75,23/250,73,111.0
4364,D4,232.75,0.25,104,111.0
4365,F#4,232.75,0.25,104,111.0
4366,B3,232.75,0.25,104,111.0
4367,D4,232.75,0.25,79,111.0
4368,F#4,232.75,0.25,79,111.0
4369,B3,232.75,0.25,79,111.0
4370,B1,233.0,0.5,67,111.0
4371,B1,233.0,0.5,67,111.0
4372,A4,233.0,0.25,127,111.0
4373,D2,233.0,1.75,123,111.0
4374,G#2,233.0,0.25,86,111.0
4375,C2,233.0,121/500,73,111.0
4376,B3,233.25,0.25,77,111.0
4377,B3,233.25,0.25,52,111.0
4378,A1,233.5,0.5,86,111.0
4379,A1,233.5,0.5,86,111.0
4380,B4,233.5,0.25,127,111.0
4381,G#2,233.5,0.25,84,111.0
4382,C2,233.5,79/500,83,111.0
4383,F#4,233.5,0.25,105,111.0
4384,D4,233.5,0.25,105,111.0
4385,B3,233.5,0.25,105,111.0
4386,F#4,233.5,0.25,80,111.0
4387,D4,233.5,0.25,80,111.0
4388,B3,233.5,0.25,80,111.0
4389,F#4,233.5,133/1000,56,111.0
4390,B3,233.5,133/1000,56,111.0
4391,D4,233.5,133/1000,56,111.0
4392,B1,234.0,0.5,92,111.0
4393,B1,234.0,0.5,92,111.0
4394,G#4,234.0,0.25,127,111.0
4395,G#2,234.0,0.25,86,111.0
4396,C2,234.0,23/250,88,111.0
4397,A4,234.25,0.25,127,111.0
4398,C2,234.25,24/125,67,111.0
4399,B3,234.5,0.5,99,111.0
4400,B3,234.5,0.5,74,111.0
4401,G#2,234.5,0.25,77,111.0
4402,F#4,234.5,0.25,111,111.0
4403,D4,234.5,0.25,111,111.0
4404,F#4,234.5,0.25,86,111.0
4405,D4,234.5,0.25,86,111.0
4406,F#4,234.5,117/1000,66,111.0
4407,B3,234.5,117/1000,66,111.0
4408,D4,234.5,117/1000,66,111.0
4409,B1,234.75,0.5,86,111.0
4410,B1,234.75,0.5,86,111.0
4411,B4,234.75,0.25,127,111.0
4412,C2,234.75,0.125,94,111.0
4413,A1,235.0,0.5,86,111.0
4414,A1,235.0,0.5,86,111.0
4415,D2,235.0,1.0,110,111.0
4416,G#2,235.0,0.25,81,111.0
4417,C2,235.0,121/500,69,111.0
4418,D5,235.25,0.25,127,111.0
4419,B1,235.5,0.5,94,111.0
4420,B1,235.5,0.5,94,111.0
4421,G#2,235.5,0.25,86,111.0
4422,C2,235.5,71/500,78,111.0
4423,F#4,235.5,7/40,69,111.0
4424,D4,235.5,7/40,69,111.0
4425,B3,235.5,7/40,69,111.0
4426,D5,235.75,0.25,127,111.0
4427,E1,236.0,0.5,67,111.0
4428,E1,236.0,0.5,67,111.0
4429,D2,236.0,0.75,110,111.0
4430,G#2,236.0,0.25,81,111.0
4431,C2,236.0,433/1000,104,111.0
4432,E4,236.0,3.5,46,111.0
4433,B3,236.0,101/40,63,111.0
4434,E4,236.0,0.25,108,111.0
4435,B3,236.0,0.25,108,111.0
4436,G#4,236.0,0.25,108,111.0
4437,E4,236.0,0.25,83,111.0
4438,B3,236.0,0.25,83,111.0
4439,G#4,236.0,0.25,83,111.0
4440,B3,236.25,0.25,93,111.0
4441,B3,236.25,0.25,68,111.0
4442,B4,236.25,0.25,127,111.0
4443,A5,236.283,21/500,56,111.0
4444,G#5,236.325,1/125,54,111.0
4445,A5,236.325,1979/500,56,111.0
4446,B3,236.5,0.25,66,111.0
4447,B3,236.5,0.25,41,111.0
4448,G#4,236.5,0.25,127,111.0
4449,G#2,236.5,0.25,75,111.0
4450,E4,236.5,79/500,60,111.0
4451,G#4,236.5,79/500,60,111.0
4452,B3,236.5,79/500,60,111.0
4453,E1,236.75,0.25,60,111.0
4454,E1,236.75,0.25,60,111.0
4455,C2,236.75,0.125,92,111.0
4456,E4,236.75,0.25,97,111.0
4457,B3,236.75,0.25,97,111.0
4458,G#4,236.75,0.25,97,111.0
4459,E4,236.75,0.25,72,111.0
4460,B3,236.75,0.25,72,111.0
4461,G#4,236.75,0.25,72,111.0
4462,F#1,237.0,0.5,114,111.0
4463,F#1,237.0,0.5,114,111.0
4464,A4,237.0,0.25,127,111.0
4465,D2,237.0,1.75,113,111.0
4466,G#2,237.0,0.25,86,111.0
4467,C2,237.0,0.25,71,111.0
4468,B3,237.25,0.25,79,111.0
4469,B3,237.25,0.25,54,111.0
4470,A3,237.5,0.25,93,111.0
4471,A3,237.5,0.25,68,111.0
4472,G#1,237.5,0.5,92,111.0
4473,G#1,237.5,0.5,92,111.0
4474,B4,237.5,0.25,127,111.0
4475,G#2,237.5,0.25,58,111.0
4476,C2,237.5,167/1000,86,111.0
4477,E4,237.5,0.5,96,111.0
4478,D4,237.5,0.5,96,111.0
4479,E4,237.5,0.5,70,111.0
4480,D4,237.5,0.5,70,111.0
4481,G#4,237.5,167/1000,68,111.0
4482,E4,237.5,167/1000,68,111.0
4483,B3,237.5,167/1000,68,111.0
4484,A1,238.0,0.5,92,111.0
4485,A1,238.0,0.5,92,111.0
4486,G#4,238.0,0.25,127,111.0
4487,G#2,238.0,0.25,89,111.0
4488,C2,238.0,3/40,86,111.0
4489,A4,238.25,0.25,127,111.0
4490,C2,238.25,24/125,71,111.0
4491,G#2,238.5,0.25,86,111.0
4492,E4,238.5,0.75,92,111.0
4493,C#4,238.5,0.75,92,111.0
4494,A3,238.5,0.75,92,111.0
4495,E4,238.5,0.75,67,111.0
4496,C#4,238.5,0.75,67,111.0
4497,A3,238.5,0.75,67,111.0
4498,E4,238.5,79/500,64,111.0
4499,C#4,238.5,79/500,64,111.0
4500,A3,238.5,79/500,64,111.0
4501,F#4,238.525,617/1000,104,111.0
4502,A1,238.75,0.25,82,111.0
4503,A1,238.75,0.25,82,111.0
4504,B4,238.75,0.25,127,111.0
4505,C2,238.75,1/10,78,111.0
4506,A1,239.0,0.5,62,111.0
4507,A1,239.0,0.5,62,111.0
4508,D2,239.0,1.0,110,111.0
4509,G#2,239.0,0.25,81,111.0
4510,C2,239.0,233/1000,66,111.0
4511,E4,239.075,467/1000,99,111.0
4512,G#4,239.25,0.25,127,111.0
4513,A3,239.5,0.25,76,111.0
4514,A3,239.5,0.25,51,111.0
4515,C#4,239.5,1/10,49,111.0
4516,G#1,239.5,0.25,104,111.0
4517,G#1,239.5,0.25,104,111.0
4518,G#2,239.5,0.25,92,111.0
4519,C2,239.5,183/1000,82,111.0
4520,E4,239.5,7/40,62,111.0
4521,A3,239.5,7/40,62,111.0
4522,D4,239.533,267/1000,99,111.0
4523,E4,239.742,129/500,90,111.0
4524,A1,239.75,0.25,88,111.0
4525,A1,239.75,0.25,88,111.0
4526,A4,239.75,0.25,127,111.0
4527,B1,240.0,0.5,74,111.0
4528,B1,240.0,0.5,74,111.0
4529,D2,240.0,0.75,110,111.0
4530,G#2,240.0,0.25,114,111.0
4531,C2,240.0,51/125,117,111.0
4532,C2,240.0,0.5,104,111.0
4533,E4,240.0,483/1000,90,111.0
4534,F#4,240.0,0.25,100,111.0
4535,B3,240.0,0.25,100,111.0
4536,D4,240.0,0.25,100,111.0
4537,F#4,240.0,0.25,75,111.0
4538,B3,240.0,0.25,75,111.0
4539,D4,240.0,0.25,75,111.0
4540,B5,240.192,133/1000,61,111.0
4541,B3,240.25,0.25,83,111.0
4542,B3,240.25,0.25,58,111.0
4543,B4,240.25,0.25,127,111.0
4544,B5,240.325,4.0,61,111.0
4545,D4,240.483,3517/1000,99,111.0
4546,B3,240.5,0.25,58,111.0
4547,B3,240.5,0.25,33,111.0
4548,G#4,240.5,0.25,127,111.0
4549,G#2,240.5,0.25,68,111.0
4550,B3,240.5,1/10,71,111.0
4551,F#4,240.5,1/10,71,111.0
4552,D4,240.5,1/10,71,111.0
4553,B1,240.75,0.25,79,111.0
4554,B1,240.75,0.25,79,111.0
4555,C2,240.75,67/1000,94,111.0
4556,F#4,240.75,0.25,99,111.0
4557,D4,240.75,0.25,99,111.0
4558,B3,240.75,0.25,99,111.0
4559,F#4,240.75,0.25,74,111.0
4560,D4,240.75,0.25,74,111.0
4561,B3,240.75,0.25,74,111.0
4562,B1,241.0,0.5,66,111.0
4563,B1,241.0,0.5,66,111.0
4564,A4,241.0,0.25,127,111.0
4565,D2,241.0,1.75,107,111.0
4566,G#2,241.0,0.25,109,111.0
4567,C2,241.0,167/1000,79,111.0
4568,B3,241.25,0.25,78,111.0
4569,B3,241.25,0.25,53,111.0
4570,A1,241.5,0.5,85,111.0
4571,A1,241.5,0.5,85,111.0
4572,B4,241.5,0.25,127,111.0
4573,G#2,241.5,0.25,53,111.0
4574,C2,241.5,167/1000,101,111.0
4575,F#4,241.5,0.25,103,111.0
4576,D4,241.5,0.25,103,111.0
4577,B3,241.5,0.25,103,111.0
4578,F#4,241.5,0.25,78,111.0
4579,D4,241.5,0.25,78,111.0
4580,B3,241.5,0.25,78,111.0
4581,F#4,241.5,3/40,71,111.0
4582,B3,241.5,3/40,71,111.0
4583,D4,241.5,3/40,71,111.0
4584,B1,242.0,0.5,86,111.0
4585,B1,242.0,0.5,86,111.0
4586,G#4,242.0,0.25,127,111.0
4587,G#2,242.0,0.25,104,111.0
4588,C2,242.0,83/1000,90,111.0
4589,A4,242.25,0.25,127,111.0
4590,C2,242.25,79/500,66,111.0
4591,D4,242.5,3/40,85,111.0
4592,G#2,242.5,0.25,79,111.0
4593,F#4,242.5,0.25,104,111.0
4594,B3,242.5,0.25,104,111.0
4595,D4,242.5,0.25,104,111.0
4596,F#4,242.5,0.25,79,111.0
4597,B3,242.5,0.25,79,111.0
4598,D4,242.5,0.25,79,111.0
4599,B3,242.5,117/1000,66,111.0
4600,F#4,242.5,117/1000,66,111.0
4601,B1,242.75,0.25,80,111.0
4602,B1,242.75,0.25,80,111.0
4603,B4,242.75,0.25,127,111.0
4604,C2,242.75,67/1000,80,111.0
4605,A1,243.0,0.5,94,111.0
4606,A1,243.0,0.5,94,111.0
4607,D2,243.0,1.0,113,111.0
4608,G#2,243.0,0.25,109,111.0
4609,C2,243.0,9/40,73,111.0
4610,D5,243.25,0.25,127,111.0
4611,B1,243.5,0.5,92,111.0
4612,B1,243.5,0.5,92,111.0
4613,G#2,243.5,0.25,73,111.0
4614,C2,243.5,24/125,76,111.0
4615,F#4,243.5,23/250,70,111.0
4616,B3,243.5,23/250,70,111.0
4617,D4,243.5,23/250,70,111.0
4618,D5,243.75,0.25,127,111.0
4619,E1,244.0,0.5,94,111.0
4620,E1,244.0,0.5,94,111.0
4621,D2,244.0,0.75,113,111.0
4622,G#2,244.0,0.25,109,111.0
4623,C2,244.0,229/500,99,111.0
4624,D4,244.0,1129/500,99,111.0
4625,G#4,244.0,0.25,89,111.0
4626,E4,244.0,0.25,89,111.0
4627,A4,244.0,0.25,89,111.0
4628,G#4,244.0,0.25,64,111.0
4629,E4,244.0,0.25,64,111.0
4630,A4,244.0,0.25,64,111.0
4631,B4,244.25,7/40,127,111.0
4632,D4,244.25,0.25,48,111.0
4633,B3,244.25,0.25,48,111.0
4634,D4,244.25,0.25,23,111.0
4635,B3,244.25,0.25,23,111.0
4636,B5,244.325,4.0,61,111.0
4637,B3,244.5,0.25,78,111.0
4638,B3,244.5,0.25,53,111.0
4639,G#4,244.5,233/1000,127,111.0
4640,G#2,244.5,0.25,73,111.0
4641,E4,244.5,79/500,55,111.0
4642,G#4,244.5,79/500,55,111.0
4643,B3,244.5,79/500,55,111.0
4644,E1,244.75,0.25,61,111.0
4645,E1,244.75,0.25,61,111.0
4646,C2,244.75,117/1000,85,111.0
4647,E4,244.75,0.25,93,111.0
4648,D4,244.75,0.25,93,111.0
4649,A4,244.75,0.25,93,111.0
4650,E4,244.75,0.25,68,111.0
4651,D4,244.75,0.25,68,111.0
4652,A4,244.75,0.25,68,111.0
4653,B3,245.0,0.25,80,111.0
4654,B3,245.0,0.25,55,111.0
4655,F#1,245.0,0.5,114,111.0
4656,F#1,245.0,0.5,114,111.0
4657,A4,245.0,3/10,127,111.0
4658,D2,245.0,1.75,104,111.0
4659,G#2,245.0,0.25,114,111.0
4660,C2,245.0,26/125,74,111.0
4661,B3,245.25,0.25,72,111.0
4662,B3,245.25,0.25,47,111.0
4663,G#1,245.5,0.5,96,111.0
4664,G#1,245.5,0.5,96,111.0
4665,B4,245.5,0.25,127,111.0
4666,G#2,245.5,0.25,84,111.0
4667,C2,245.5,24/125,67,111.0
4668,E4,245.5,0.5,92,111.0
4669,G#4,245.5,0.5,92,111.0
4670,B3,245.5,0.5,92,111.0
4671,E4,245.5,0.5,67,111.0
4672,G#4,245.5,0.5,67,111.0
4673,B3,245.5,0.5,67,111.0
4674,G#4,245.5,71/500,68,111.0
4675,E4,245.5,71/500,68,111.0
4676,B3,245.5,71/500,68,111.0
4677,A1,246.0,0.5,101,111.0
4678,A1,246.0,0.5,101,111.0
4679,D5,246.0,3/20,127,111.0
4680,G#2,246.0,0.25,104,111.0
4681,C2,246.0,23/250,82,111.0
4682,D5,246.25,1/5,127,111.0
4683,C2,246.25,183/1000,66,111.0
4684,C#5,246.5,133/1000,127,111.0
4685,G#2,246.5,0.25,100,111.0
4686,B3,246.5,0.5,109,111.0
4687,G#4,246.5,0.5,109,111.0
4688,E4,246.5,0.5,109,111.0
4689,B3,246.5,0.5,84,111.0
4690,G#4,246.5,0.5,84,111.0
4691,E4,246.5,0.5,84,111.0
4692,E4,246.5,3/20,55,111.0
4693,C#4,246.5,3/20,55,111.0
4694,A3,246.5,3/20,55,111.0
4695,A1,246.75,0.25,76,111.0
4696,A1,246.75,0.25,76,111.0
4697,C#5,246.75,167/1000,127,111.0
4698,C2,246.75,27/250,80,111.0
4699,A1,247.0,0.25,75,111.0
4700,G#1,247.0,0.5,100,111.0
4701,A1,247.0,0.25,75,111.0
4702,G#1,247.0,0.5,100,111.0
4703,B4,247.0,129/500,127,111.0
4704,D2,247.0,1.0,90,111.0
4705,G#2,247.0,0.25,119,111.0
4706,C2,247.0,267/1000,80,111.0
4707,G#4,247.25,26/125,127,111.0
4708,A1,247.5,0.5,73,111.0
4709,A1,247.5,0.5,73,111.0
4710,A4,247.5,26/125,115,111.0
4711,B-2,247.5,0.25,114,111.0
4712,C2,247.5,79/500,78,111.0
4713,E4,247.5,79/500,56,111.0
4714,C#4,247.5,79/500,56,111.0
4715,A3,247.5,79/500,56,111.0
4716,B3,247.533,7/20,107,111.0
4717,B4,247.75,233/1000,127,111.0
4718,A2,247.75,67/1000,85,111.0
4719,B2,247.75,67/1000,85,111.0
4720,G2,247.75,67/1000,85,111.0
4721,A4,247.933,67/1000,53,111.0
4722,F#4,247.983,17/1000,41,111.0
4723,F#4,247.992,1/125,104,111.0
4724,B1,248.0,0.5,83,111.0
4725,B1,248.0,0.5,83,111.0
4726,D2,248.0,0.75,90,111.0
4727,G#2,248.0,0.25,114,111.0
4728,C2,248.0,417/1000,110,111.0
4729,C#3,248.0,83/1000,114,111.0
4730,A4,248.0,4.0,53,111.0
4731,F#4,248.0,117/40,41,111.0
4732,F#4,248.0,17/20,104,111.0
4733,F#4,248.0,0.25,107,111.0
4734,B3,248.0,0.25,107,111.0
4735,D4,248.0,0.25,107,111.0
4736,F#4,248.0,0.25,82,111.0
4737,B3,248.0,0.25,82,111.0
4738,D4,248.0,0.25,82,111.0
4739,B3,248.25,0.25,87,111.0
4740,B3,248.25,0.25,62,111.0
4741,B5,248.325,4.0,61,111.0
4742,B3,248.5,0.25,71,111.0
4743,B3,248.5,0.25,46,111.0
4744,G#2,248.5,0.25,92,111.0
4745,B1,248.75,0.25,83,111.0
4746,B1,248.75,0.25,83,111.0
4747,C2,248.75,67/1000,82,111.0
4748,B3,248.75,0.25,101,111.0
4749,F#4,248.75,0.25,101,111.0
4750,D4,248.75,0.25,101,111.0
4751,B3,248.75,0.25,76,111.0
4752,F#4,248.75,0.25,76,111.0
4753,D4,248.75,0.25,76,111.0
4754,B3,248.925,279/500,99,111.0
4755,B3,249.0,0.25,84,111.0
4756,B3,249.0,0.25,59,111.0
4757,D2,249.0,1.75,92,111.0
4758,G#2,249.0,0.25,124,111.0
4759,C2,249.0,26/125,74,111.0
4760,B3,249.25,0.25,77,111.0
4761,B3,249.25,0.25,52,111.0
4762,B1,249.25,0.25,75,111.0
4763,B1,249.25,0.25,75,111.0
4764,A1,249.5,0.5,70,111.0
4765,A1,249.5,0.5,70,111.0
4766,G#2,249.5,0.25,100,111.0
4767,C2,249.5,1/5,94,111.0
4768,F#4,249.5,0.25,109,111.0
4769,B3,249.5,0.25,109,111.0
4770,D4,249.5,0.25,109,111.0
4771,F#4,249.5,0.25,84,111.0
4772,B3,249.5,0.25,84,111.0
4773,D4,249.5,0.25,84,111.0
4774,D4,249.533,529/500,107,111.0
4775,B1,250.0,0.75,99,111.0
4776,B1,250.0,0.75,99,111.0
4777,G#2,250.0,0.25,119,111.0
4778,C2,250.0,3/40,83,111.0
4779,C2,250.25,24/125,67,111.0
4780,G#2,250.5,0.25,92,111.0
4781,F#4,250.5,0.25,105,111.0
4782,B3,250.5,0.25,105,111.0
4783,D4,250.5,0.25,105,111.0
4784,F#4,250.5,0.25,80,111.0
4785,B3,250.5,0.25,80,111.0
4786,D4,250.5,0.25,80,111.0
4787,E4,250.533,1467/1000,74,111.0
4788,B1,250.75,0.25,78,111.0
4789,B1,250.75,0.25,78,111.0
4790,C2,250.75,1/10,76,111.0
4791,D4,250.883,3/10,45,111.0
4792,A1,251.0,0.5,101,111.0
4793,A1,251.0,0.5,101,111.0
4794,D2,251.0,1.0,99,111.0
4795,G#2,251.0,0.25,114,111.0
4796,C2,251.0,233/1000,78,111.0
4797,F#4,251.058,271/500,53,111.0
4798,B1,251.5,0.5,97,111.0
4799,B1,251.5,0.5,97,111.0
4800,G#2,251.5,0.25,96,111.0
4801,C2,251.5,133/1000,80,111.0
4802,A4,251.542,229/500,62,111.0
4803,G#4,251.992,1/125,51,111.0
4804,E1,252.0,0.5,99,111.0
4805,E1,252.0,0.5,99,111.0
4806,D2,252.0,0.75,99,111.0
4807,G#2,252.0,0.25,119,111.0
4808,C2,252.0,417/1000,107,111.0
4809,A4,252.0,4.0,53,111.0
4810,A4,252.0,23/250,62,111.0
4811,G#4,252.0,326/125,51,111.0
4812,E4,252.0,41/20,74,111.0
4813,E4,252.0,0.25,109,111.0
4814,B3,252.0,0.25,109,111.0
4815,G#4,252.0,0.25,109,111.0
4816,E4,252.0,0.25,84,111.0
4817,B3,252.0,0.25,84,111.0
4818,G#4,252.0,0.25,84,111.0
4819,B3,252.25,0.25,87,111.0
4820,B3,252.25,0.25,62,111.0
4821,B5,252.325,153/40,61,111.0
4822,B3,252.5,0.25,67,111.0
4823,B3,252.5,0.25,42,111.0
4824,G#2,252.5,0.25,81,111.0
4825,E1,252.75,0.25,65,111.0
4826,E1,252.75,0.25,65,111.0
4827,C2,252.75,29/500,66,111.0
4828,E4,252.75,0.25,98,111.0
4829,B3,252.75,0.25,98,111.0
4830,G#4,252.75,0.25,98,111.0
4831,E4,252.75,0.25,73,111.0
4832,B3,252.75,0.25,73,111.0
4833,G#4,252.75,0.25,73,111.0
4834,F#1,253.0,0.5,114,111.0
4835,F#1,253.0,0.5,114,111.0
4836,D2,253.0,1.75,110,111.0
4837,G#2,253.0,0.25,119,111.0
4838,C2,253.0,183/1000,66,111.0
4839,B3,253.25,0.25,79,111.0
4840,B3,253.25,0.25,54,111.0
4841,G#1,253.5,0.5,89,111.0
4842,G#1,253.5,0.5,89,111.0
4843,G#2,253.5,0.25,96,111.0
4844,C2,253.5,7/40,92,111.0
4845,A3,253.5,0.5,101,111.0
4846,E4,253.5,0.5,101,111.0
4847,D4,253.5,0.5,101,111.0
4848,A3,253.5,0.5,76,111.0
4849,E4,253.5,0.5,76,111.0
4850,D4,253.5,0.5,76,111.0
4851,A1,254.0,0.5,80,111.0
4852,A1,254.0,0.5,80,111.0
4853,G#2,254.0,0.25,100,111.0
4854,C2,254.0,27/250,99,111.0
4855,C2,254.25,1/5,66,111.0
4856,B-2,254.5,0.25,109,111.0
4857,E4,254.5,13/20,57,111.0
4858,C#4,254.5,0.5,93,111.0
4859,E4,254.5,0.5,93,111.0
4860,A3,254.5,0.5,93,111.0
4861,C#4,254.5,0.5,68,111.0
4862,E4,254.5,0.5,68,111.0
4863,A3,254.5,0.5,68,111.0
4864,A1,254.75,0.25,90,111.0
4865,A1,254.75,0.25,90,111.0
4866,C2,254.75,1/10,85,111.0
4867,G#1,255.0,0.5,109,111.0
4868,G#1,255.0,0.5,109,111.0
4869,D2,255.0,0.25,113,111.0
4870,G#2,255.0,0.25,109,111.0
4871,C2,255.0,121/500,72,111.0
4872,B3,255.008,9/20,90,111.0
4873,G#4,255.058,817/1000,30,111.0
4874,A3,255.5,0.25,81,111.0
4875,A3,255.5,0.25,56,111.0
4876,A1,255.5,0.5,90,111.0
4877,A1,255.5,0.5,90,111.0
4878,D2,255.5,0.25,88,111.0
4879,B-2,255.5,0.25,89,111.0
4880,C2,255.5,24/125,86,111.0
4881,D4,255.508,433/1000,97,111.0
4882,E4,255.575,17/40,57,111.0
4883,D2,255.75,0.25,76,111.0
4884,F#4,255.983,17/1000,56,111.0
4885,B1,256.0,0.5,72,111.0
4886,B1,256.0,0.5,72,111.0
4887,D2,256.0,0.75,76,111.0
4888,G#2,256.0,0.25,100,111.0
4889,C2,256.0,17/40,104,111.0
4890,A4,256.0,4.0,53,111.0
4891,E4,256.0,21/500,57,111.0
4892,F#4,256.0,113/40,56,111.0
4893,F#4,256.0,0.25,106,111.0
4894,D4,256.0,0.25,106,111.0
4895,B3,256.0,0.25,106,111.0
4896,F#4,256.0,0.25,81,111.0
4897,D4,256.0,0.25,81,111.0
4898,B3,256.0,0.25,81,111.0
4899,F#4,256.025,967/1000,100,111.0
4900,B3,256.25,0.25,94,111.0
4901,B3,256.25,0.25,69,111.0
4902,B3,256.5,0.25,71,111.0
4903,B3,256.5,0.25,46,111.0
4904,G#2,256.5,0.25,66,111.0
4905,B1,256.75,0.25,65,111.0
4906,B1,256.75,0.25,65,111.0
4907,C2,256.75,1/10,66,111.0
4908,F#4,256.75,0.25,104,111.0
4909,B3,256.75,0.25,104,111.0
4910,D4,256.75,0.25,104,111.0
4911,F#4,256.75,0.25,79,111.0
4912,B3,256.75,0.25,79,111.0
4913,D4,256.75,0.25,79,111.0
4914,B3,257.0,0.25,98,111.0
4915,B3,257.0,0.25,73,111.0
4916,B1,257.0,0.5,79,111.0
4917,B1,257.0,0.5,79,111.0
4918,D2,257.0,1.75,113,111.0
4919,G#2,257.0,0.25,109,111.0
4920,C2,257.0,129/500,74,111.0
4921,B3,257.058,433/1000,101,111.0
4922,B3,257.25,0.25,80,111.0
4923,B3,257.25,0.25,55,111.0
4924,A1,257.5,0.5,63,111.0
4925,A1,257.5,0.5,63,111.0
4926,G#2,257.5,0.25,79,111.0
4927,C2,257.5,24/125,97,111.0
4928,F#4,257.5,0.25,103,111.0
4929,B3,257.5,0.25,103,111.0
4930,D4,257.5,0.25,103,111.0
4931,F#4,257.5,0.25,78,111.0
4932,B3,257.5,0.25,78,111.0
4933,D4,257.5,0.25,78,111.0
4934,D4,257.542,1.0,107,111.0
4935,B1,258.0,0.5,86,111.0
4936,B1,258.0,0.5,86,111.0
4937,G#2,258.0,0.25,104,111.0
4938,C2,258.0,3/40,78,111.0
4939,C2,258.25,24/125,72,111.0
4940,G#2,258.5,0.25,92,111.0
4941,E4,258.5,123/250,85,111.0
4942,F#4,258.5,0.5,108,111.0
4943,B3,258.5,0.5,108,111.0
4944,D4,258.5,0.5,108,111.0
4945,F#4,258.5,0.5,83,111.0
4946,B3,258.5,0.5,83,111.0
4947,D4,258.5,0.5,83,111.0
4948,B1,258.75,0.25,83,111.0
4949,B1,258.75,0.25,83,111.0
4950,C2,258.75,0.125,92,111.0
4951,D4,258.775,329/500,47,111.0
4952,F#4,258.992,533/1000,51,111.0
4953,A1,259.0,0.5,86,111.0
4954,A1,259.0,0.5,86,111.0
4955,D2,259.0,1.0,117,111.0
4956,G#2,259.0,0.25,104,111.0
4957,C2,259.0,0.25,72,111.0
4958,B3,259.042,533/1000,104,111.0
4959,A4,259.483,517/1000,55,111.0
4960,B1,259.5,0.5,67,111.0
4961,B1,259.5,0.5,67,111.0
4962,G#2,259.5,0.25,92,111.0
4963,C2,259.5,183/1000,99,111.0
4964,D4,259.508,383/1000,104,111.0
4965,F#4,259.983,17/1000,100,111.0
4966,G#4,259.992,1/125,56,111.0
4967,E1,260.0,0.5,86,111.0
4968,E1,260.0,0.5,86,111.0
4969,D2,260.0,0.75,117,111.0
4970,G#2,260.0,0.25,114,111.0
4971,C2,260.0,383/1000,97,111.0
4972,A4,260.0,4.0,53,111.0
4973,A4,260.0,23/250,55,111.0
4974,G#4,260.0,1583/1000,56,111.0
4975,F#4,260.0,833/1000,100,111.0
4976,A4,260.0,0.25,113,111.0
4977,D4,260.0,0.25,113,111.0
4978,E4,260.0,0.25,113,111.0
4979,A4,260.0,0.25,88,111.0
4980,D4,260.0,0.25,88,111.0
4981,E4,260.0,0.25,88,111.0
4982,B3,260.25,0.25,91,111.0
4983,B3,260.25,0.25,66,111.0
4984,B3,260.5,0.25,79,111.0
4985,B3,260.5,0.25,54,111.0
4986,G#2,260.5,0.25,100,111.0
4987,E1,260.75,0.25,61,111.0
4988,E1,260.75,0.25,61,111.0
4989,C2,260.75,23/250,73,111.0
4990,D4,260.75,0.25,102,111.0
4991,E4,260.75,0.25,102,111.0
4992,A4,260.75,0.25,102,111.0
4993,D4,260.75,0.25,77,111.0
4994,E4,260.75,0.25,77,111.0
4995,A4,260.75,0.25,77,111.0
4996,F#4,260.983,521/500,100,111.0
4997,B3,261.0,0.25,80,111.0
4998,B3,261.0,0.25,55,111.0
4999,F#1,261.0,0.5,114,111.0
5000,F#1,261.0,0.5,114,111.0
5001,D2,261.0,0.75,113,111.0
5002,G#2,261.0,0.25,114,111.0
5003,C2,261.0,121/500,73,111.0
5004,B3,261.25,0.25,72,111.0
5005,B3,261.25,0.25,47,111.0
5006,G#1,261.5,0.5,89,111.0
5007,G#1,261.5,0.5,89,111.0
5008,G#2,261.5,0.25,100,111.0
5009,C2,261.5,79/500,83,111.0
5010,E4,261.5,0.5,101,111.0
5011,G#4,261.5,0.5,101,111.0
5012,B3,261.5,0.5,101,111.0
5013,E4,261.5,0.5,76,111.0
5014,G#4,261.5,0.5,76,111.0
5015,B3,261.5,0.5,76,111.0
5016,G#4,261.658,1517/1000,46,111.0
5017,A1,262.0,0.5,92,111.0
5018,A1,262.0,0.5,92,111.0
5019,G#2,262.0,0.25,104,111.0
5020,C2,262.0,23/250,88,111.0
5021,E4,262.0,11/40,90,111.0
5022,D4,262.2,3/10,86,111.0
5023,D2,262.25,0.25,99,111.0
5024,C2,262.25,24/125,67,111.0
5025,B3,262.475,667/1000,97,111.0
5026,G#2,262.5,0.25,104,111.0
5027,B3,262.5,0.5,109,111.0
5028,G#4,262.5,0.5,109,111.0
5029,E4,262.5,0.5,109,111.0
5030,B3,262.5,0.5,84,111.0
5031,G#4,262.5,0.5,84,111.0
5032,E4,262.5,0.5,84,111.0
5033,A1,262.75,0.25,66,111.0
5034,A1,262.75,0.25,66,111.0
5035,C2,262.75,0.125,94,111.0
5036,A1,263.0,0.5,80,111.0
5037,A1,263.0,0.5,80,111.0
5038,D2,263.0,0.25,113,111.0
5039,G#2,263.0,0.25,114,111.0
5040,C2,263.0,121/500,69,111.0
5041,F#4,263.142,33/1000,38,111.0
5042,G4,263.183,99/125,99,111.0
5043,G#1,263.5,0.25,86,111.0
5044,G#1,263.5,0.25,86,111.0
5045,D2,263.5,0.25,83,111.0
5046,B-2,263.5,0.25,109,111.0
5047,C2,263.5,71/500,78,111.0
5048,B3,263.533,417/1000,104,111.0
5049,A1,263.75,0.25,78,111.0
5050,A1,263.75,0.25,78,111.0
5051,D2,263.75,0.25,76,111.0
5052,F#4,263.925,3/40,47,111.0
5053,B1,264.0,0.5,79,111.0
5054,B1,264.0,0.5,79,111.0
5055,D2,264.0,0.75,76,111.0
5056,G#2,264.0,0.25,109,111.0
5057,C2,264.0,433/1000,104,111.0
5058,A4,264.0,24/125,53,111.0
5059,F#4,264.0,1429/500,47,111.0
5060,F#4,264.0,0.25,103,111.0
5061,D4,264.0,0.25,103,111.0
5062,B3,264.0,0.25,103,111.0
5063,F#4,264.0,0.25,78,111.0
5064,D4,264.0,0.25,78,111.0
5065,B3,264.0,0.25,78,111.0
5066,F#4,264.042,967/1000,100,111.0
5067,B3,264.25,0.25,91,111.0
5068,B3,264.25,0.25,66,111.0
5069,B3,264.5,0.25,61,111.0
5070,B3,264.5,0.25,36,111.0
5071,G#2,264.5,0.25,84,111.0
5072,B1,264.75,0.25,54,111.0
5073,B1,264.75,0.25,54,111.0
5074,C2,264.75,0.125,92,111.0
5075,F#4,264.75,0.25,98,111.0
5076,D4,264.75,0.25,98,111.0
5077,B3,264.75,0.25,98,111.0
5078,F#4,264.75,0.25,73,111.0
5079,D4,264.75,0.25,73,111.0
5080,B3,264.75,0.25,73,111.0
5081,B3,265.0,0.25,83,111.0
5082,B3,265.0,0.25,58,111.0
5083,B1,265.0,0.5,85,111.0
5084,B1,265.0,0.5,85,111.0
5085,D2,265.0,1.75,113,111.0
5086,G#2,265.0,0.25,119,111.0
5087,C2,265.0,0.25,71,111.0
5088,B3,265.05,483/1000,92,111.0
5089,B3,265.25,0.25,77,111.0
5090,B3,265.25,0.25,52,111.0
5091,A1,265.5,0.5,82,111.0
5092,A1,265.5,0.5,82,111.0
5093,G#2,265.5,0.25,96,111.0
5094,C2,265.5,167/1000,86,111.0
5095,F#4,265.5,0.25,107,111.0
5096,D4,265.5,0.25,107,111.0
5097,B3,265.5,0.25,107,111.0
5098,F#4,265.5,0.25,82,111.0
5099,D4,265.5,0.25,82,111.0
5100,B3,265.5,0.25,82,111.0
5101,D4,265.567,41/40,113,111.0
5102,B1,266.0,0.5,83,111.0
5103,B1,266.0,0.5,83,111.0
5104,G#2,266.0,0.25,109,111.0
5105,C2,266.0,3/40,86,111.0
5106,C2,266.25,24/125,71,111.0
5107,G#2,266.5,0.25,104,111.0
5108,F#4,266.5,0.5,99,111.0
5109,D4,266.5,0.5,99,111.0
5110,B3,266.5,0.5,99,111.0
5111,F#4,266.5,0.5,74,111.0
5112,D4,266.5,0.5,74,111.0
5113,B3,266.5,0.5,74,111.0
5114,E4,266.517,1483/1000,83,111.0
5115,B1,266.75,0.25,75,111.0
5116,B1,266.75,0.25,75,111.0
5117,C2,266.75,1/10,78,111.0
5118,D4,266.833,49/125,55,111.0
5119,A1,267.0,0.5,88,111.0
5120,A1,267.0,0.5,88,111.0
5121,D2,267.0,1.0,99,111.0
5122,G#2,267.0,0.25,114,111.0
5123,C2,267.0,233/1000,66,111.0
5124,F#4,267.075,517/1000,59,111.0
5125,B1,267.5,0.5,76,111.0
5126,B1,267.5,0.5,76,111.0
5127,G#2,267.5,0.25,96,111.0
5128,C2,267.5,183/1000,82,111.0
5129,A4,267.517,483/1000,71,111.0
5130,G#4,267.975,1/40,56,111.0
5131,E1,268.0,0.5,83,111.0
5132,E1,268.0,0.5,83,111.0
5133,D2,268.0,0.75,99,111.0
5134,G#2,268.0,0.25,114,111.0
5135,C2,268.0,51/125,117,111.0
5136,C2,268.0,0.5,104,111.0
5137,A4,268.0,3/40,71,111.0
5138,G#4,268.0,1867/1000,56,111.0
5139,E4,268.0,2.0,83,111.0
5140,E4,268.0,0.25,100,111.0
5141,B3,268.0,0.25,100,111.0
5142,G#4,268.0,0.25,100,111.0
5143,E4,268.0,0.25,75,111.0
5144,B3,268.0,0.25,75,111.0
5145,G#4,268.0,0.25,75,111.0
5146,B3,268.25,0.25,93,111.0
5147,B3,268.25,0.25,68,111.0
5148,B3,268.5,0.25,74,111.0
5149,B3,268.5,0.25,49,111.0
5150,G#2,268.5,0.25,96,111.0
5151,E1,268.75,0.25,59,111.0
5152,E1,268.75,0.25,59,111.0
5153,C2,268.75,67/1000,94,111.0
5154,E4,268.75,0.25,106,111.0
5155,B3,268.75,0.25,106,111.0
5156,G#4,268.75,0.25,106,111.0
5157,E4,268.75,0.25,81,111.0
5158,B3,268.75,0.25,81,111.0
5159,G#4,268.75,0.25,81,111.0
5160,F#1,269.0,0.5,114,111.0
5161,F#1,269.0,0.5,114,111.0
5162,D2,269.0,1.75,110,111.0
5163,G#2,269.0,0.25,119,111.0
5164,C2,269.0,167/1000,79,111.0
5165,B3,269.25,0.25,79,111.0
5166,B3,269.25,0.25,54,111.0
5167,G#1,269.5,0.5,92,111.0
5168,G#1,269.5,0.5,92,111.0
5169,G#2,269.5,0.25,96,111.0
5170,C2,269.5,167/1000,101,111.0
5171,E4,269.5,0.5,100,111.0
5172,A3,269.5,0.5,100,111.0
5173,D4,269.5,0.5,100,111.0
5174,E4,269.5,0.5,75,111.0
5175,A3,269.5,0.5,75,111.0
5176,D4,269.5,0.5,75,111.0
5177,D4,269.825,77/250,46,111.0
5178,A1,270.0,0.5,83,111.0
5179,A1,270.0,0.5,83,111.0
5180,G#2,270.0,0.25,104,111.0
5181,C2,270.0,83/1000,90,111.0
5182,G#4,270.058,429/500,55,111.0
5183,C2,270.25,79/500,66,111.0
5184,B-2,270.5,0.25,100,111.0
5185,E4,270.5,0.5,100,111.0
5186,C#4,270.5,0.5,100,111.0
5187,A3,270.5,0.5,100,111.0
5188,E4,270.5,0.5,75,111.0
5189,C#4,270.5,0.5,75,111.0
5190,A3,270.5,0.5,75,111.0
5191,A1,270.75,0.25,76,111.0
5192,A1,270.75,0.25,76,111.0
5193,C2,270.75,67/1000,80,111.0
5194,D4,270.9,24/125,48,111.0
5195,A1,271.0,0.5,76,111.0
5196,A1,271.0,0.5,76,111.0
5197,D2,271.0,1.0,110,111.0
5198,G#2,271.0,0.25,100,111.0
5199,C2,271.0,9/40,73,111.0
5200,B3,271.017,0.5,107,111.0
5201,G4,271.067,371/500,72,111.0
5202,A3,271.5,0.5,81,111.0
5203,A3,271.5,0.5,56,111.0
5204,G#1,271.5,0.25,92,111.0
5205,G#1,271.5,0.25,92,111.0
5206,B-2,271.5,0.25,104,111.0
5207,C2,271.5,24/125,76,111.0
5208,D4,271.517,13/40,101,111.0
5209,A1,271.75,0.25,73,111.0
5210,A1,271.75,0.25,73,111.0
5211,D4,271.783,167/1000,41,111.0
5212,F#4,271.933,67/1000,54,111.0
5213,B1,272.0,0.5,83,111.0
5214,B1,272.0,0.5,83,111.0
5215,D2,272.0,0.75,110,111.0
5216,G#2,272.0,0.25,104,111.0
5217,C2,272.0,229/500,99,111.0
5218,F#4,272.0,349/125,54,111.0
5219,B3,272.0,0.25,107,111.0
5220,F#4,272.0,0.25,107,111.0
5221,D4,272.0,0.25,107,111.0
5222,B3,272.0,0.25,82,111.0
5223,F#4,272.0,0.25,82,111.0
5224,D4,272.0,0.25,82,111.0
5225,F#4,272.025,933/1000,100,111.0
5226,B3,272.25,0.25,87,111.0
5227,B3,272.25,0.25,62,111.0
5228,B3,272.5,0.25,63,111.0
5229,B3,272.5,0.25,38,111.0
5230,G#2,272.5,0.25,81,111.0
5231,B3,272.75,0.5,91,111.0
5232,B3,272.75,0.5,66,111.0
5233,B1,272.75,0.75,44,111.0
5234,B1,272.75,0.75,44,111.0
5235,C2,272.75,117/1000,85,111.0
5236,F#4,272.75,0.25,112,111.0
5237,D4,272.75,0.25,112,111.0
5238,F#4,272.75,0.25,87,111.0
5239,D4,272.75,0.25,87,111.0
5240,D2,273.0,1.75,110,111.0
5241,G#2,273.0,0.25,109,111.0
5242,C2,273.0,26/125,74,111.0
5243,B3,273.017,433/1000,97,111.0
5244,B3,273.25,0.25,79,111.0
5245,B3,273.25,0.25,54,111.0
5246,A1,273.5,0.5,78,111.0
5247,A1,273.5,0.5,78,111.0
5248,G#2,273.5,0.25,84,111.0
5249,C2,273.5,24/125,67,111.0
5250,D4,273.5,21/20,107,111.0
5251,D4,273.5,0.25,107,111.0
5252,B3,273.5,0.25,107,111.0
5253,F#4,273.5,0.25,107,111.0
5254,D4,273.5,0.25,82,111.0
5255,B3,273.5,0.25,82,111.0
5256,F#4,273.5,0.25,82,111.0
5257,B1,274.0,0.5,88,111.0
5258,B1,274.0,0.5,88,111.0
5259,G#2,274.0,0.25,114,111.0
5260,C2,274.0,23/250,82,111.0
5261,C2,274.25,183/1000,66,111.0
5262,E4,274.483,123/250,80,111.0
5263,G#2,274.5,0.25,79,111.0
5264,F#4,274.5,0.5,102,111.0
5265,D4,274.5,0.5,102,111.0
5266,B3,274.5,0.5,102,111.0
5267,F#4,274.5,0.5,77,111.0
5268,D4,274.5,0.5,77,111.0
5269,B3,274.5,0.5,77,111.0
5270,B1,274.75,0.25,80,111.0
5271,B1,274.75,0.25,80,111.0
5272,C2,274.75,27/250,80,111.0
5273,D4,274.8,267/1000,49,111.0
5274,F#4,274.975,279/500,48,111.0
5275,A1,275.0,0.5,82,111.0
5276,A1,275.0,0.5,82,111.0
5277,D2,275.0,1.0,101,111.0
5278,G#2,275.0,0.25,109,111.0
5279,C2,275.0,267/1000,80,111.0
5280,B3,275.008,567/1000,94,111.0
5281,B1,275.5,0.5,68,111.0
5282,B1,275.5,0.5,68,111.0
5283,G#2,275.5,0.25,81,111.0
5284,C2,275.5,79/500,78,111.0
5285,D4,275.5,383/1000,94,111.0
5286,A4,275.517,483/1000,66,111.0
5287,G#4,275.983,17/1000,52,111.0
5288,F#4,275.992,1/125,104,111.0
5289,E4,276.0,0.5,117,111.0
5290,E4,276.0,0.5,92,111.0
5291,E1,276.0,0.5,69,111.0
5292,E1,276.0,0.5,69,111.0
5293,D2,276.0,0.75,101,111.0
5294,G#2,276.0,0.25,109,111.0
5295,C2,276.0,417/1000,110,111.0
5296,A4,276.0,83/1000,66,111.0
5297,G#4,276.0,43/20,52,111.0
5298,F#4,276.0,99/125,104,111.0
5299,A4,276.0,0.25,102,111.0
5300,D4,276.0,0.25,102,111.0
5301,A4,276.0,0.25,77,111.0
5302,D4,276.0,0.25,77,111.0
5303,B3,276.25,0.25,81,111.0
5304,B3,276.25,0.25,56,111.0
5305,B3,276.5,0.25,84,111.0
5306,B3,276.5,0.25,59,111.0
5307,G#2,276.5,0.25,84,111.0
5308,E1,276.75,0.25,66,111.0
5309,E1,276.75,0.25,66,111.0
5310,C2,276.75,67/1000,82,111.0
5311,E4,276.75,0.25,95,111.0
5312,A4,276.75,0.25,95,111.0
5313,D4,276.75,0.25,95,111.0
5314,E4,276.75,0.25,70,111.0
5315,A4,276.75,0.25,70,111.0
5316,D4,276.75,0.25,70,111.0
5317,F#4,276.992,29/40,96,111.0
5318,B3,277.0,0.25,79,111.0
5319,B3,277.0,0.25,54,111.0
5320,F#1,277.0,0.5,109,111.0
5321,F#1,277.0,0.5,109,111.0
5322,D2,277.0,1.75,104,111.0
5323,G#2,277.0,0.25,114,111.0
5324,C2,277.0,26/125,74,111.0
5325,G#1,277.5,0.5,66,111.0
5326,G#1,277.5,0.5,66,111.0
5327,G#2,277.5,0.25,86,111.0
5328,C2,277.5,1/5,94,111.0
5329,G#4,277.5,0.5,109,111.0
5330,E4,277.5,0.5,109,111.0
5331,B3,277.5,0.5,109,111.0
5332,G#4,277.5,0.5,84,111.0
5333,E4,277.5,0.5,84,111.0
5334,B3,277.5,0.5,84,111.0
5335,A1,278.0,0.5,83,111.0
5336,A1,278.0,0.5,83,111.0
5337,G#2,278.0,0.25,100,111.0
5338,C2,278.0,3/40,83,111.0
5339,C2,278.25,24/125,67,111.0
5340,G#2,278.5,0.25,92,111.0
5341,F#4,278.5,617/1000,100,111.0
5342,B3,278.5,0.5,101,111.0
5343,G#4,278.5,0.5,101,111.0
5344,E4,278.5,0.5,101,111.0
5345,B3,278.5,0.5,76,111.0
5346,G#4,278.5,0.5,76,111.0
5347,E4,278.5,0.5,76,111.0
5348,A1,278.75,0.25,85,111.0
5349,A1,278.75,0.25,85,111.0
5350,C2,278.75,1/10,76,111.0
5351,G#1,279.0,0.5,92,111.0
5352,G#1,279.0,0.5,92,111.0
5353,D2,279.0,0.25,113,111.0
5354,G#2,279.0,0.25,89,111.0
5355,C2,279.0,233/1000,78,111.0
5356,E4,279.05,271/500,80,111.0
5357,G4,279.058,133/1000,36,111.0
5358,A1,279.5,0.5,70,111.0
5359,A1,279.5,0.5,70,111.0
5360,D2,279.5,0.25,97,111.0
5361,B-2,279.5,0.25,100,111.0
5362,C2,279.5,133/1000,80,111.0
5363,D4,279.575,129/500,90,111.0
5364,D2,279.75,0.25,83,111.0
5365,E4,279.817,183/1000,85,111.0
5366,A4,279.942,29/500,52,111.0
5367,F#3,280.0,517/1000,68,111.0
5368,D2,280.0,0.25,83,111.0
5369,E-3,280.0,9/20,89,111.0
5370,B-4,280.0,129/500,81,111.0
5371,G#2,280.0,0.25,104,111.0
5372,C2,280.0,51/125,117,111.0
5373,C2,280.0,0.5,104,111.0
5374,A4,280.0,4.0,52,111.0
5375,E4,280.0,1033/1000,85,111.0
5376,F#4,280.008,121/500,71,111.0
5377,F#5,280.008,1629/500,61,111.0
5378,D5,280.008,1629/500,61,111.0
5379,B4,280.008,1629/500,61,111.0
5380,F#4,280.017,1679/500,51,111.0
5381,F#4,280.05,0.625,72,111.0
5382,F#5,280.05,0.625,72,111.0
5383,D5,280.05,0.625,72,111.0
5384,B4,280.05,0.625,72,111.0
5385,F#4,280.05,0.625,72,111.0
5386,F#5,280.05,0.625,72,111.0
5387,D5,280.05,0.625,72,111.0
5388,B4,280.05,0.625,72,111.0
5389,B-4,280.5,27/250,46,111.0
5390,G#2,280.5,0.25,79,111.0
5391,F#3,280.75,3/5,54,111.0
5392,E-3,280.75,21/40,89,111.0
5393,C2,280.75,67/1000,94,111.0
5394,B-4,281.0,129/500,63,111.0
5395,G#2,281.0,0.25,109,111.0
5396,C2,281.0,167/1000,79,111.0
5397,D4,281.017,2983/1000,66,111.0
5398,B-4,281.5,283/1000,53,111.0
5399,G#2,281.5,0.25,81,111.0
5400,C2,281.5,167/1000,101,111.0
5401,G#2,282.0,0.25,100,111.0
5402,C2,282.0,83/1000,90,111.0
5403,E-3,282.0,321/500,84,111.0
5404,F#3,282.0,321/500,84,111.0
5405,B-4,282.25,117/1000,60,111.0
5406,C2,282.25,79/500,66,111.0
5407,B-4,282.5,11/40,58,111.0
5408,G#2,282.5,0.25,84,111.0
5409,C2,282.75,67/1000,80,111.0
5410,G#2,283.0,0.25,109,111.0
5411,C2,283.0,9/40,73,111.0
5412,E-3,283.0,76/125,64,111.0
5413,F#3,283.0,76/125,64,111.0
5414,B-4,283.5,0.5,89,111.0
5415,G#2,283.5,0.25,96,111.0
5416,C2,283.5,24/125,76,111.0
5417,B-4,284.0,1/40,89,111.0
5418,G#2,284.0,0.25,109,111.0
5419,C2,284.0,229/500,99,111.0
5420,A4,284.0,4.0,52,111.0
5421,D4,284.0,67/1000,66,111.0
5422,F#3,284.0,329/500,88,111.0
5423,E-3,284.0,329/500,88,111.0
5424,E3,284.017,1117/1000,53,111.0
5425,B3,284.017,1117/1000,53,111.0
5426,E3,284.017,1117/1000,53,111.0
5427,B3,284.017,1117/1000,53,111.0
5428,B3,284.058,1133/1000,58,111.0
5429,E3,284.067,1233/1000,59,111.0
5430,B-4,284.25,0.125,54,111.0
5431,E4,284.475,329/500,58,111.0
5432,E4,284.475,329/500,58,111.0
5433,B-4,284.5,13/40,51,111.0
5434,G#2,284.5,0.25,86,111.0
5435,E4,284.5,329/500,50,111.0
5436,C2,284.75,117/1000,85,111.0
5437,G#2,285.0,0.25,104,111.0
5438,C2,285.0,26/125,74,111.0
5439,E-3,285.0,27/40,72,111.0
5440,F#3,285.0,27/40,72,111.0
5441,G#4,285.008,7/40,54,111.0
5442,G#4,285.025,24/125,62,111.0
5443,G#4,285.025,24/125,62,111.0
5444,A2,285.5,1583/1000,60,111.0
5445,A2,285.5,1583/1000,60,111.0
5446,B-4,285.5,433/1000,86,111.0
5447,G#2,285.5,0.25,92,111.0
5448,C2,285.5,24/125,67,111.0
5449,E3,285.508,277/250,85,111.0
5450,E3,285.508,277/250,85,111.0
5451,E3,285.533,1067/1000,80,111.0
5452,A2,285.542,63/40,62,111.0
5453,G#2,286.0,0.25,100,111.0
5454,C2,286.0,23/250,82,111.0
5455,A3,286.0,21/20,58,111.0
5456,F#3,286.0,177/250,91,111.0
5457,E-3,286.0,177/250,91,111.0
5458,A3,286.042,17/20,66,111.0
5459,A3,286.042,17/20,66,111.0
5460,B-4,286.25,3/20,68,111.0
5461,C2,286.25,183/1000,66,111.0
5462,C#4,286.458,17/40,47,111.0
5463,G#2,286.5,0.25,89,111.0
5464,C#4,286.508,17/40,50,111.0
5465,C#4,286.508,17/40,50,111.0
5466,B-4,286.75,0.25,86,111.0
5467,C2,286.75,27/250,80,111.0
5468,G#2,287.0,0.25,109,111.0
5469,C2,287.0,267/1000,80,111.0
5470,F#3,287.0,1.0,62,111.0
5471,E-3,287.0,371/500,72,111.0
5472,F#3,287.0,371/500,72,111.0
5473,B2,287.008,124/125,63,111.0
5474,F#3,287.017,983/1000,62,111.0
5475,F#3,287.017,983/1000,62,111.0
5476,B2,287.025,39/40,66,111.0
5477,B2,287.025,39/40,66,111.0
5478,B3,287.475,21/40,58,111.0
5479,B3,287.5,0.5,60,111.0
5480,B3,287.5,0.5,60,111.0
5481,B-4,287.5,1/10,89,111.0
5482,G#2,287.5,0.25,89,111.0
5483,C2,287.5,79/500,78,111.0
5484,B-4,287.75,0.25,69,111.0
5485,D4,287.992,1/125,78,111.0
5486,B3,288.0,567/1000,60,111.0
5487,F#3,288.0,76/125,62,111.0
5488,B2,288.0,9/20,66,111.0
5489,B3,288.0,567/1000,60,111.0
5490,F#3,288.0,76/125,62,111.0
5491,B2,288.0,9/20,66,111.0
5492,G#2,288.0,0.25,100,111.0
5493,C2,288.0,417/1000,110,111.0
5494,A4,288.0,4.0,52,111.0
5495,F#3,288.0,0.625,62,111.0
5496,B3,288.0,74/125,58,111.0
5497,D4,288.0,617/1000,78,111.0
5498,B2,288.0,4.0,63,111.0
5499,E-3,288.0,617/1000,90,111.0
5500,F#3,288.0,617/1000,90,111.0
5501,D4,288.017,21/40,75,111.0
5502,D4,288.017,21/40,75,111.0
5503,B-4,288.5,3/40,77,111.0
5504,G#2,288.5,0.25,86,111.0
5505,B-4,288.75,233/1000,79,111.0
5506,C2,288.75,67/1000,82,111.0
5507,G#2,289.0,0.25,104,111.0
5508,C2,289.0,26/125,74,111.0
5509,F#3,289.0,329/500,88,111.0
5510,E-3,289.0,329/500,88,111.0
5511,B-4,289.5,1/10,92,111.0
5512,G#2,289.5,0.25,92,111.0
5513,C2,289.5,1/5,94,111.0
5514,B-4,289.75,129/500,84,111.0
5515,D5,289.967,2033/1000,104,111.0
5516,E-3,290.0,21/40,73,111.0
5517,F#3,290.0,74/125,48,111.0
5518,G#2,290.0,0.25,109,111.0
5519,C2,290.0,3/40,83,111.0
5520,D5,290.133,1867/1000,72,111.0
5521,B-4,290.25,27/250,75,111.0
5522,C2,290.25,24/125,67,111.0
5523,B-4,290.5,367/1000,71,111.0
5524,G#2,290.5,0.25,96,111.0
5525,C2,290.75,1/10,76,111.0
5526,G#2,291.0,0.25,104,111.0
5527,C2,291.0,233/1000,78,111.0
5528,E-3,291.0,321/500,90,111.0
5529,F#3,291.0,321/500,90,111.0
5530,B-4,291.5,1/10,89,111.0
5531,G#2,291.5,0.25,92,111.0
5532,C2,291.5,133/1000,80,111.0
5533,B-4,291.75,0.25,62,111.0
5534,C#5,291.983,17/1000,104,111.0
5535,G#2,292.0,0.25,109,111.0
5536,C2,292.0,417/1000,107,111.0
5537,A4,292.0,4.0,52,111.0
5538,D5,292.0,67/1000,104,111.0
5539,C#5,292.0,2067/1000,104,111.0
5540,B2,292.0,4029/500,63,111.0
5541,D5,292.0,277/40,72,111.0
5542,E-3,292.0,13/20,80,111.0
5543,F#3,292.0,13/20,80,111.0
5544,C#5,292.217,3783/1000,35,111.0
5545,B-4,292.5,3/40,79,111.0
5546,G#2,292.5,0.25,100,111.0
5547,B-4,292.75,0.25,69,111.0
5548,C2,292.75,29/500,66,111.0
5549,G#2,293.0,0.25,109,111.0
5550,C2,293.0,183/1000,66,111.0
5551,F#3,293.0,633/1000,88,111.0
5552,E-3,293.0,633/1000,88,111.0
5553,C5,293.242,717/1000,22,111.0
5554,B-4,293.5,83/1000,89,111.0
5555,G#2,293.5,0.25,100,111.0
5556,C2,293.5,7/40,92,111.0
5557,B-4,293.75,24/125,89,111.0
5558,A4,293.933,2067/1000,54,111.0
5559,F#3,294.0,13/20,68,111.0
5560,E-3,294.0,23/40,89,111.0
5561,G#2,294.0,0.25,100,111.0
5562,C2,294.0,27/250,99,111.0
5563,A4,294.017,1983/1000,101,111.0
5564,B-4,294.25,27/250,92,111.0
5565,C2,294.25,1/5,66,111.0
5566,B-4,294.5,133/1000,68,111.0
5567,G#2,294.5,0.25,100,111.0
5568,B-4,294.75,71/500,43,111.0
5569,C2,294.75,1/10,85,111.0
5570,G#2,295.0,0.25,96,111.0
5571,C2,295.0,121/500,72,111.0
5572,E-3,295.0,617/1000,90,111.0
5573,F#3,295.0,617/1000,90,111.0
5574,B-4,295.5,1/10,96,111.0
5575,G#2,295.5,0.25,92,111.0
5576,C2,295.5,24/125,86,111.0
5577,B-4,295.75,26/125,77,111.0
5578,C5,295.792,26/125,33,111.0
5579,B4,295.992,1/125,104,111.0
5580,G#2,296.0,0.25,92,111.0
5581,C2,296.0,17/40,104,111.0
5582,A4,296.0,3983/1000,52,111.0
5583,C5,296.0,4.0,33,111.0
5584,A4,296.0,21/500,101,111.0
5585,B4,296.0,977/250,104,111.0
5586,F#3,296.0,617/1000,88,111.0
5587,E-3,296.0,617/1000,88,111.0
5588,B-4,296.5,3/40,86,111.0
5589,G#2,296.5,0.25,92,111.0
5590,B-4,296.75,233/1000,75,111.0
5591,C2,296.75,1/10,66,111.0
5592,G#2,297.0,0.25,96,111.0
5593,C2,297.0,129/500,74,111.0
5594,E-3,297.0,321/500,86,111.0
5595,F#3,297.0,321/500,86,111.0
5596,B-4,297.5,3/40,86,111.0
5597,G#2,297.5,0.25,96,111.0
5598,C2,297.5,24/125,97,111.0
5599,B-4,297.75,217/1000,84,111.0
5600,G#2,298.0,0.25,89,111.0
5601,C2,298.0,3/40,78,111.0
5602,F#3,298.0,27/40,82,111.0
5603,E-3,298.0,27/40,82,111.0
5604,B-4,298.25,27/250,92,111.0
5605,C2,298.25,24/125,72,111.0
5606,B-4,298.5,77/250,63,111.0
5607,G#2,298.5,0.25,77,111.0
5608,C2,298.75,0.125,92,111.0
5609,G#2,299.0,0.25,89,111.0
5610,C2,299.0,0.25,72,111.0
5611,E-3,299.0,321/500,79,111.0
5612,F#3,299.0,321/500,79,111.0
5613,B-4,299.5,83/1000,89,111.0
5614,G#2,299.5,0.25,84,111.0
5615,C2,299.5,183/1000,99,111.0
5616,B-4,299.75,1/5,59,111.0
5617,G4,299.85,3/20,45,111.0
5618,G#2,300.0,0.25,96,111.0
5619,C2,300.0,383/1000,97,111.0
5620,C5,300.0,4.0,33,111.0
5621,G4,300.0,1971/500,45,111.0
5622,E-3,300.0,27/40,88,111.0
5623,F#3,300.0,27/40,88,111.0
5624,E3,300.008,273/250,75,111.0
5625,B3,300.008,273/250,75,111.0
5626,E3,300.008,273/250,75,111.0
5627,B3,300.008,273/250,75,111.0
5628,B4,300.058,1521/500,58,111.0
5629,C#5,300.058,3017/1000,35,111.0
5630,A4,300.058,773/250,54,111.0
5631,B-4,300.5,1/10,92,111.0
5632,G#2,300.5,0.25,84,111.0
5633,E4,300.508,23/40,49,111.0
5634,E4,300.508,23/40,49,111.0
5635,B-4,300.75,129/500,69,111.0
5636,C2,300.75,23/250,73,111.0
5637,G#4,300.992,133/1000,44,111.0
5638,G#4,300.992,133/1000,44,111.0
5639,G#2,301.0,0.25,96,111.0
5640,C2,301.0,121/500,73,111.0
5641,E-3,301.0,3/5,90,111.0
5642,F#3,301.0,3/5,90,111.0
5643,E3,301.492,21/20,82,111.0
5644,E3,301.492,21/20,82,111.0
5645,B-4,301.5,23/250,92,111.0
5646,G#2,301.5,0.25,89,111.0
5647,C2,301.5,79/500,83,111.0
5648,A2,301.517,1.5,68,111.0
5649,A2,301.517,1.5,68,111.0
5650,B-4,301.75,267/1000,79,111.0
5651,G#2,302.0,0.25,96,111.0
5652,C2,302.0,23/250,88,111.0
5653,E-3,302.0,667/1000,92,111.0
5654,F#3,302.0,667/1000,92,111.0
5655,A3,302.008,101/125,64,111.0
5656,A3,302.008,101/125,64,111.0
5657,C2,302.25,24/125,67,111.0
5658,C#4,302.475,17/40,48,111.0
5659,C#4,302.475,17/40,48,111.0
5660,B-4,302.5,83/1000,84,111.0
5661,G#2,302.5,0.25,56,111.0
5662,B-4,302.75,121/500,63,111.0
5663,C2,302.75,0.125,94,111.0
5664,B2,302.958,521/500,80,111.0
5665,B2,302.958,521/500,80,111.0
5666,F#3,302.975,41/40,66,111.0
5667,F#3,302.975,41/40,66,111.0
5668,G#2,303.0,0.25,92,111.0
5669,C2,303.0,121/500,69,111.0
5670,E-3,303.0,173/250,84,111.0
5671,F#3,303.0,173/250,84,111.0
5672,B-4,303.5,83/1000,89,111.0
5673,G#2,303.5,0.25,73,111.0
5674,C2,303.5,71/500,78,111.0
5675,B3,303.542,229/500,53,111.0
5676,B3,303.542,229/500,53,111.0
5677,B-4,303.75,233/1000,77,111.0
5678,A4,303.85,3/20,52,111.0
5679,B2,304.0,4/5,80,111.0
5680,B3,304.0,571/500,53,111.0
5681,F#3,304.0,6/5,66,111.0
5682,B2,304.0,4/5,80,111.0
5683,B3,304.0,571/500,53,111.0
5684,F#3,304.0,6/5,66,111.0
5685,G#2,304.0,0.25,92,111.0
5686,C2,304.0,433/1000,104,111.0
5687,C5,304.0,1921/500,33,111.0
5688,A4,304.0,4.0,52,111.0
5689,E-3,304.0,329/500,94,111.0
5690,F#3,304.0,329/500,94,111.0
5691,D4,304.025,47/40,76,111.0
5692,D4,304.025,47/40,76,111.0
5693,B3,304.067,1.125,62,111.0
5694,E3,304.083,1.375,54,111.0
5695,B-4,304.5,27/250,96,111.0
5696,G#2,304.5,0.25,57,111.0
5697,E4,304.542,321/500,49,111.0
5698,B-4,304.75,233/1000,77,111.0
5699,C2,304.75,0.125,92,111.0
5700,G#2,305.0,0.25,96,111.0
5701,C2,305.0,0.25,71,111.0
5702,E-3,305.0,13/20,88,111.0
5703,F#3,305.0,13/20,88,111.0
5704,G#4,305.033,167/1000,54,111.0
5705,B-4,305.5,23/250,96,111.0
5706,G#2,305.5,0.25,81,111.0
5707,C2,305.5,167/1000,86,111.0
5708,E3,305.558,273/250,71,111.0
5709,A2,305.608,1517/1000,56,111.0
5710,B-4,305.75,0.25,84,111.0
5711,G#2,306.0,0.25,96,111.0
5712,C2,306.0,3/40,86,111.0
5713,F#3,306.0,177/250,92,111.0
5714,E-3,306.0,177/250,92,111.0
5715,A3,306.058,11/10,66,111.0
5716,C2,306.25,24/125,71,111.0
5717,B-4,306.5,1/10,96,111.0
5718,G#2,306.5,0.25,68,111.0
5719,C#4,306.517,19/40,47,111.0
5720,B-4,306.75,129/500,84,111.0
5721,C2,306.75,1/10,78,111.0
5722,G#2,307.0,0.25,92,111.0
5723,C2,307.0,233/1000,66,111.0
5724,E-3,307.0,7/10,82,111.0
5725,F#3,307.0,7/10,82,111.0
5726,B2,307.042,1017/1000,65,111.0
5727,F#3,307.042,1017/1000,65,111.0
5728,B-4,307.5,0.125,100,111.0
5729,G#2,307.5,0.25,71,111.0
5730,C2,307.5,183/1000,82,111.0
5731,B3,307.533,21/40,59,111.0
5732,B-4,307.75,0.25,75,111.0
5733,E3,308.0,9/20,110,111.0
5734,G#2,308.0,0.25,96,111.0
5735,C2,308.0,17/40,101,111.0
5736,C2,308.0,567/1000,113,111.0
5737,A4,308.0,4.0,52,111.0
5738,E-3,308.0,0.75,88,111.0
5739,F#3,308.0,0.75,88,111.0
5740,F#2,308.0,0.125,112,111.0
5741,A3,308.0,0.125,112,111.0
5742,D4,308.033,1/40,75,111.0
5743,E4,308.05,79/20,127,111.0
5744,A4,308.05,79/20,127,111.0
5745,B4,308.05,79/20,127,111.0
5746,D5,308.05,79/20,127,111.0
5747,B3,308.058,3767/1000,59,111.0
5748,D4,308.058,474/125,75,111.0
5749,B2,308.058,3767/1000,65,111.0
5750,F#3,308.058,3767/1000,65,111.0
5751,D3,308.5,0.25,57,111.0
5752,B-4,308.5,1/10,86,111.0
5753,G#2,308.5,0.25,81,111.0
5754,F#2,308.5,117/1000,73,111.0
5755,B-4,308.75,129/500,77,111.0
5756,C2,308.75,27/250,72,111.0
5757,E3,309.0,17/40,90,111.0
5758,G#2,309.0,0.25,100,111.0
5759,C2,309.0,26/125,66,111.0
5760,C2,309.0,9/20,110,111.0
5761,F#2,309.0,79/500,104,111.0
5762,E-3,309.0,667/1000,94,111.0
5763,F#3,309.0,667/1000,94,111.0
5764,D3,309.5,167/1000,75,111.0
5765,B-4,309.5,1/10,89,111.0
5766,G#2,309.5,0.25,84,111.0
5767,C2,309.5,26/125,86,111.0
5768,F#2,309.5,0.125,81,111.0
5769,B-4,309.75,233/1000,68,111.0
5770,E3,310.0,17/20,104,111.0
5771,A4,310.0,7/40,125,111.0
5772,G#2,310.0,0.25,100,111.0
5773,C2,310.0,117/1000,83,111.0
5774,C2,310.0,567/1000,125,111.0
5775,F#2,310.0,183/1000,96,111.0
5776,F#3,310.0,321/500,96,111.0
5777,E-3,310.0,321/500,96,111.0
5778,A4,310.25,183/1000,97,111.0
5779,C2,310.25,1/5,66,111.0
5780,B-4,310.5,117/1000,84,111.0
5781,G#2,310.5,0.25,81,111.0
5782,D3,310.75,717/1000,85,111.0
5783,B-4,310.75,9/40,66,111.0
5784,C2,310.75,1/10,82,111.0
5785,F#2,310.75,24/125,84,111.0
5786,G4,310.75,1/10,120,111.0
5787,A4,310.75,1/10,120,111.0
5788,E4,311.0,233/1000,125,111.0
5789,G#2,311.0,0.25,96,111.0
5790,C2,311.0,217/1000,67,111.0
5791,F#2,311.0,7/40,84,111.0
5792,C2,311.0,121/500,117,111.0
5793,E-3,311.0,371/500,90,111.0
5794,F#3,311.0,371/500,90,111.0
5795,G3,311.483,0.125,127,111.0
5796,B2,311.5,283/1000,59,111.0
5797,E4,311.5,71/500,113,111.0
5798,B-4,311.5,117/1000,89,111.0
5799,G#2,311.5,0.25,84,111.0
5800,D2,311.5,233/1000,78,111.0
5801,F#2,311.5,7/40,78,111.0
5802,C2,311.5,7/40,78,111.0
5803,D3,311.75,1/5,75,111.0
5804,A3,311.75,71/500,113,111.0
5805,C#3,311.992,1/125,119,111.0
5806,E3,312.0,21/40,86,111.0
5807,A3,312.0,217/1000,62,111.0
5808,C2,312.0,67/1000,107,111.0
5809,C2,312.0,0.5,99,111.0
5810,C#3,312.0,117/1000,119,111.0
5811,A4,312.0,883/1000,52,111.0
5812,E1,312.0,279/500,102,111.0
5813,E2,312.0,279/500,102,111.0
5814,E1,312.0,279/500,102,111.0
5815,E2,312.0,279/500,102,111.0
5816,E4,312.0,0.125,127,111.0
5817,A4,312.0,0.125,127,111.0
5818,B4,312.0,0.125,127,111.0
5819,D5,312.0,0.125,127,111.0
5820,A3,312.0,167/1000,95,111.0
5821,C#3,312.0,167/1000,95,111.0
5822,C3,312.0,167/1000,95,111.0
5823,G#2,312.0,167/1000,95,111.0
5824,G#4,312.0,41/20,64,111.0
5825,B4,312.0,41/20,64,111.0
5826,G#4,312.0,41/20,64,111.0
5827,B4,312.0,41/20,64,111.0
5828,D2,312.5,3/10,104,111.0
5829,D2,312.5,3/10,104,111.0
5830,D3,312.5,9/20,62,111.0
5831,G#2,312.5,7/40,84,111.0
5832,E1,312.75,817/1000,88,111.0
5833,E1,312.75,817/1000,88,111.0
5834,C2,312.75,0.25,85,111.0
5835,E2,313.0,567/1000,104,111.0
5836,E2,313.0,567/1000,104,111.0
5837,E3,313.0,17/40,86,111.0
5838,G#2,313.0,26/125,96,111.0
5839,D2,313.0,2/5,123,111.0
5840,C2,313.0,0.5,90,111.0
5841,D2,313.5,7/20,94,111.0
5842,D2,313.5,7/20,94,111.0
5843,D3,313.5,79/500,97,111.0
5844,G#2,313.5,26/125,73,111.0
5845,C2,313.5,0.25,79,111.0
5846,E3,314.0,429/500,110,111.0
5847,G#2,314.0,233/1000,114,111.0
5848,C2,314.0,0.5,97,111.0
5849,E1,314.0,17/20,87,111.0
5850,E2,314.0,17/20,87,111.0
5851,E1,314.0,17/20,87,111.0
5852,E2,314.0,17/20,87,111.0
5853,G#4,314.0,329/500,84,111.0
5854,B4,314.0,329/500,84,111.0
5855,G#4,314.0,329/500,84,111.0
5856,B4,314.0,329/500,84,111.0
5857,G#2,314.5,167/1000,86,111.0
5858,D2,314.75,11/40,104,111.0
5859,D2,314.75,11/40,104,111.0
5860,D3,314.75,4/5,76,111.0
5861,C2,314.75,0.25,85,111.0
5862,C#5,314.75,271/500,75,111.0
5863,A4,314.75,271/500,75,111.0
5864,C#5,314.75,271/500,75,111.0
5865,A4,314.75,271/500,75,111.0
5866,E1,315.0,583/1000,97,111.0
5867,E1,315.0,583/1000,97,111.0
5868,G#2,315.0,233/1000,100,111.0
5869,D2,315.0,49/125,123,111.0
5870,C2,315.0,0.25,83,111.0
5871,B1,315.5,121/500,79,111.0
5872,B1,315.5,121/500,79,111.0
5873,B2,315.5,0.25,79,111.0
5874,B-2,315.5,1/5,124,111.0
5875,C2,315.5,0.25,90,111.0
5876,B4,315.5,0.5,80,111.0
5877,D5,315.5,0.5,82,111.0
5878,B4,315.5,0.5,80,111.0
5879,D5,315.5,0.5,82,111.0
5880,E1,315.75,167/1000,82,111.0
5881,E1,315.75,167/1000,82,111.0
5882,D3,315.75,7/40,75,111.0
5883,E1,316.0,617/1000,58,111.0
5884,E2,316.0,21/40,110,111.0
5885,E1,316.0,617/1000,58,111.0
5886,E2,316.0,21/40,110,111.0
5887,E3,316.0,517/1000,88,111.0
5888,G#2,316.0,217/1000,119,111.0
5889,C2,316.0,0.5,110,111.0
5890,B4,316.0,1417/1000,80,111.0
5891,D5,316.0,53/40,82,111.0
5892,B4,316.0,1417/1000,80,111.0
5893,D5,316.0,53/40,82,111.0
5894,D2,316.5,283/1000,78,111.0
5895,D2,316.5,283/1000,78,111.0
5896,D3,316.5,267/1000,69,111.0
5897,G#2,316.5,79/500,68,111.0
5898,C2,316.75,0.25,94,111.0
5899,E3,317.0,49/125,90,111.0
5900,G#2,317.0,24/125,109,111.0
5901,D2,317.0,317/1000,110,111.0
5902,C2,317.0,0.25,88,111.0
5903,E2,317.0,0.5,102,111.0
5904,E1,317.0,0.5,102,111.0
5905,E2,317.0,0.5,102,111.0
5906,E1,317.0,0.5,102,111.0
5907,D2,317.5,9/40,82,111.0
5908,D2,317.5,9/40,82,111.0
5909,D3,317.5,317/1000,75,111.0
5910,G#2,317.5,26/125,104,111.0
5911,C2,317.5,0.25,97,111.0
5912,B4,317.5,383/1000,71,111.0
5913,D5,317.5,383/1000,71,111.0
5914,B4,317.5,383/1000,71,111.0
5915,D5,317.5,383/1000,71,111.0
5916,E1,317.75,19/20,90,111.0
5917,E1,317.75,19/20,90,111.0
5918,E2,318.0,177/250,97,111.0
5919,E2,318.0,177/250,97,111.0
5920,E3,318.0,429/500,97,111.0
5921,G#2,318.0,283/1000,109,111.0
5922,C2,318.0,0.5,104,111.0
5923,A4,318.0,29/40,87,111.0
5924,C#5,318.0,29/40,87,111.0
5925,A4,318.0,29/40,87,111.0
5926,C#5,318.0,29/40,87,111.0
5927,B3,318.075,227/250,80,111.0
5928,G#2,318.5,217/1000,75,111.0
5929,E-3,318.5,33/1000,68,111.0
5930,D2,318.75,9/20,99,111.0
5931,D2,318.75,9/20,99,111.0
5932,D3,318.75,329/500,76,111.0
5933,B4,318.75,683/1000,82,111.0
5934,D5,318.75,9/20,78,111.0
5935,B4,318.75,683/1000,82,111.0
5936,D5,318.75,9/20,78,111.0
5937,C#4,318.908,667/1000,63,111.0
5938,E1,319.0,19/40,120,111.0
5939,E1,319.0,19/40,120,111.0
5940,G#2,319.0,73/250,109,111.0
5941,D2,319.0,367/1000,113,111.0
5942,C2,319.0,0.25,78,111.0
5943,C2,319.0,0.25,78,111.0
5944,B1,319.5,79/500,75,111.0
5945,B1,319.5,79/500,75,111.0
5946,B2,319.5,129/500,75,111.0
5947,B-2,319.5,26/125,114,111.0
5948,C2,319.5,0.25,85,111.0
5949,E-3,319.5,1/20,81,111.0
5950,B4,319.5,0.5,73,111.0
5951,G#4,319.5,0.5,71,111.0
5952,B4,319.5,0.5,73,111.0
5953,G#4,319.5,0.5,71,111.0
5954,G3,319.525,23/250,88,111.0
5955,D4,319.55,127/250,66,111.0
5956,D3,319.75,1/5,72,111.0
5957,E1,319.75,3/40,68,111.0
5958,D1,319.75,3/40,68,111.0
5959,E1,319.75,3/40,68,111.0
5960,D1,319.75,3/40,68,111.0
5961,E3,320.0,383/1000,86,111.0
5962,G#2,320.0,9/40,119,111.0
5963,C2,320.0,0.5,97,111.0
5964,B4,320.0,1833/1000,73,111.0
5965,G#4,320.0,1767/1000,71,111.0
5966,B4,320.0,1833/1000,73,111.0
5967,G#4,320.0,1767/1000,71,111.0
5968,E2,320.0,19/40,77,111.0
5969,E1,320.0,19/40,77,111.0
5970,E2,320.0,19/40,77,111.0
5971,E1,320.0,19/40,77,111.0
5972,A3,320.025,3/40,110,111.0
5973,D4,320.058,323/250,66,111.0
5974,D2,320.5,13/40,82,111.0
5975,D2,320.5,13/40,82,111.0
5976,D3,320.5,129/500,94,111.0
5977,G#2,320.5,129/500,86,111.0
5978,E-3,320.5,21/500,79,111.0
5979,E1,320.75,379/500,113,111.0
5980,E1,320.75,379/500,113,111.0
5981,C2,320.75,0.25,75,111.0
5982,E2,321.0,517/1000,92,111.0
5983,E2,321.0,517/1000,92,111.0
5984,E3,321.0,0.375,104,111.0
5985,G#2,321.0,121/500,96,111.0
5986,D2,321.0,367/1000,113,111.0
5987,C2,321.0,0.25,83,111.0
5988,D2,321.5,9/40,88,111.0
5989,D2,321.5,9/40,88,111.0
5990,D3,321.5,633/1000,82,111.0
5991,G#2,321.5,121/500,96,111.0
5992,C2,321.5,0.25,72,111.0
5993,E-3,321.5,3/40,104,111.0
5994,D4,321.525,583/1000,79,111.0
5995,E1,321.75,933/1000,99,111.0
5996,E1,321.75,933/1000,99,111.0
5997,E2,322.0,733/1000,92,111.0
5998,E2,322.0,733/1000,92,111.0
5999,E3,322.0,24/125,79,111.0
6000,G#2,322.0,267/1000,109,111.0
6001,C2,322.0,0.5,99,111.0
6002,B4,322.0,329/500,86,111.0
6003,G#4,322.0,279/500,84,111.0
6004,B4,322.0,329/500,86,111.0
6005,G#4,322.0,279/500,84,111.0
6006,C#4,322.067,429/500,59,111.0
6007,A2,322.25,267/1000,113,111.0
6008,G#2,322.5,7/40,77,111.0
6009,E-3,322.5,0.125,100,111.0
6010,D2,322.75,483/1000,99,111.0
6011,D2,322.75,483/1000,99,111.0
6012,B2,322.75,283/1000,117,111.0
6013,C2,322.75,0.25,72,111.0
6014,C#5,322.75,23/40,64,111.0
6015,A4,322.75,23/40,64,111.0
6016,C#5,322.75,23/40,64,111.0
6017,A4,322.75,23/40,64,111.0
6018,D4,322.875,321/500,76,111.0
6019,E1,323.0,271/500,110,111.0
6020,E1,323.0,271/500,110,111.0
6021,G#2,323.0,11/40,100,111.0
6022,D2,323.0,229/500,113,111.0
6023,C2,323.0,0.25,71,111.0
6024,D3,323.25,51/125,113,111.0
6025,B1,323.5,233/1000,82,111.0
6026,B1,323.5,233/1000,82,111.0
6027,B-2,323.5,0.25,114,111.0
6028,C2,323.5,0.25,82,111.0
6029,E-3,323.5,71/500,109,111.0
6030,C#5,323.5,0.5,79,111.0
6031,E5,323.5,0.5,83,111.0
6032,C#5,323.5,0.5,79,111.0
6033,E5,323.5,0.5,83,111.0
6034,B3,323.533,21/40,82,111.0
6035,E1,323.75,0.25,113,111.0
6036,E1,323.75,0.25,113,111.0
6037,B2,323.75,9/40,68,111.0
6038,E2,324.0,17/40,104,111.0
6039,E1,324.0,483/1000,113,111.0
6040,E2,324.0,17/40,104,111.0
6041,E1,324.0,483/1000,113,111.0
6042,E3,324.0,3/5,101,111.0
6043,G#2,324.0,121/500,119,111.0
6044,C2,324.0,0.5,94,111.0
6045,C#5,324.0,367/1000,79,111.0
6046,E5,324.0,9/20,83,111.0
6047,C#5,324.0,367/1000,79,111.0
6048,E5,324.0,9/20,83,111.0
6049,B3,324.058,1533/1000,82,111.0
6050,D2,324.5,7/20,99,111.0
6051,D2,324.5,7/20,99,111.0
6052,D3,324.5,3/10,79,111.0
6053,G#2,324.5,24/125,100,111.0
6054,E-3,324.5,67/1000,100,111.0
6055,B4,324.5,229/500,65,111.0
6056,D5,324.5,229/500,65,111.0
6057,B4,324.5,229/500,65,111.0
6058,D5,324.5,229/500,65,111.0
6059,C2,324.75,0.25,73,111.0
6060,E3,325.0,567/1000,101,111.0
6061,G#2,325.0,233/1000,119,111.0
6062,D2,325.0,2/5,117,111.0
6063,C2,325.0,0.25,86,111.0
6064,E1,325.0,229/500,106,111.0
6065,E2,325.0,229/500,106,111.0
6066,E1,325.0,229/500,106,111.0
6067,E2,325.0,229/500,106,111.0
6068,C#5,325.0,267/1000,66,111.0
6069,A4,325.0,267/1000,66,111.0
6070,C#5,325.0,267/1000,66,111.0
6071,A4,325.0,267/1000,66,111.0
6072,D2,325.5,121/500,76,111.0
6073,D2,325.5,121/500,76,111.0
6074,D3,325.5,13/40,83,111.0
6075,G#2,325.5,24/125,96,111.0
6076,C2,325.5,0.25,69,111.0
6077,E-3,325.5,3/40,104,111.0
6078,G#4,325.5,13/40,72,111.0
6079,B4,325.5,13/40,72,111.0
6080,G#4,325.5,13/40,72,111.0
6081,B4,325.5,13/40,72,111.0
6082,E1,325.75,41/40,67,111.0
6083,E1,325.75,41/40,67,111.0
6084,E2,326.0,767/1000,101,111.0
6085,E2,326.0,767/1000,101,111.0
6086,E3,326.0,421/500,97,111.0
6087,G#2,326.0,233/1000,114,111.0
6088,C2,326.0,0.5,101,111.0
6089,D5,326.0,4/5,76,111.0
6090,B4,326.0,717/1000,73,111.0
6091,D5,326.0,4/5,76,111.0
6092,B4,326.0,717/1000,73,111.0
6093,G#2,326.5,1/5,100,111.0
6094,E-3,326.5,23/250,100,111.0
6095,D2,326.75,76/125,110,111.0
6096,D2,326.75,76/125,110,111.0
6097,D3,326.75,177/250,86,111.0
6098,C2,326.75,0.25,97,111.0
6099,A4,326.75,517/1000,62,111.0
6100,C#5,326.75,583/1000,86,111.0
6101,A4,326.75,517/1000,62,111.0
6102,C#5,326.75,583/1000,86,111.0
6103,E1,327.0,3/5,104,111.0
6104,E1,327.0,3/5,104,111.0
6105,G#2,327.0,0.25,114,111.0
6106,D2,327.0,7/10,107,111.0
6107,C2,327.0,0.25,71,111.0
6108,G#5,327.225,7/40,127,111.0
6109,G#4,327.225,7/40,127,111.0
6110,B1,327.5,24/125,80,111.0
6111,B1,327.5,24/125,80,111.0
6112,B2,327.5,267/1000,82,111.0
6113,B-2,327.5,217/1000,124,111.0
6114,C2,327.5,0.25,90,111.0
6115,G#4,327.5,0.5,86,111.0
6116,B4,327.5,0.5,94,111.0
6117,G#4,327.5,0.5,86,111.0
6118,B4,327.5,0.5,94,111.0
6119,E-3,327.5,83/1000,84,111.0
6120,G3,327.5,83/1000,84,111.0
6121,E1,327.75,0.25,113,111.0
6122,E1,327.75,0.25,113,111.0
6123,D3,327.75,26/125,80,111.0
6124,B-5,327.808,7/40,127,111.0
6125,B-4,327.808,7/40,127,111.0
6126,E2,328.0,21/40,104,111.0
6127,E1,328.0,517/1000,113,111.0
6128,E2,328.0,21/40,104,111.0
6129,E1,328.0,517/1000,113,111.0
6130,E3,328.0,229/500,78,111.0
6131,G#2,328.0,9/40,109,111.0
6132,C2,328.0,0.5,99,111.0
6133,G#4,328.0,1533/1000,86,111.0
6134,B4,328.0,73/40,94,111.0
6135,G#4,328.0,1533/1000,86,111.0
6136,B4,328.0,73/40,94,111.0
6137,C#3,328.025,3/40,114,111.0
6138,D2,328.5,0.375,99,111.0
6139,D2,328.5,0.375,99,111.0
6140,D3,328.5,121/500,90,111.0
6141,G#2,328.5,79/500,89,111.0
6142,E-3,328.5,0.125,100,111.0
6143,C2,328.75,0.25,76,111.0
6144,E3,329.0,11/40,97,111.0
6145,G#2,329.0,26/125,114,111.0
6146,D2,329.0,179/500,110,111.0
6147,C2,329.0,0.25,82,111.0
6148,E1,329.0,229/500,90,111.0
6149,E2,329.0,229/500,90,111.0
6150,E1,329.0,229/500,90,111.0
6151,E2,329.0,229/500,90,111.0
6152,D2,329.5,0.25,82,111.0
6153,D2,329.5,0.25,82,111.0
6154,D3,329.5,0.25,83,111.0
6155,G#2,329.5,183/1000,100,111.0
6156,C2,329.5,0.25,78,111.0
6157,E-3,329.5,0.125,96,111.0
6158,E1,329.75,983/1000,82,111.0
6159,E1,329.75,983/1000,82,111.0
6160,E2,330.0,29/40,90,111.0
6161,E2,330.0,29/40,90,111.0
6162,E3,330.0,833/1000,94,111.0
6163,G#2,330.0,9/40,119,111.0
6164,C2,330.0,0.5,101,111.0
6165,G#4,330.0,76/125,87,111.0
6166,B4,330.0,76/125,87,111.0
6167,G#4,330.0,76/125,87,111.0
6168,B4,330.0,76/125,87,111.0
6169,G#2,330.5,167/1000,89,111.0
6170,E-3,330.5,133/1000,104,111.0
6171,D2,330.75,467/1000,94,111.0
6172,D2,330.75,467/1000,94,111.0
6173,D3,330.75,0.75,90,111.0
6174,C2,330.75,0.25,86,111.0
6175,C#5,330.75,279/500,65,111.0
6176,A4,330.75,279/500,65,111.0
6177,C#5,330.75,279/500,65,111.0
6178,A4,330.75,279/500,65,111.0
6179,E1,331.0,74/125,104,111.0
6180,E1,331.0,74/125,104,111.0
6181,G#2,331.0,233/1000,109,111.0
6182,D2,331.0,0.375,117,111.0
6183,C2,331.0,0.25,90,111.0
6184,B1,331.5,9/40,83,111.0
6185,B1,331.5,9/40,83,111.0
6186,B2,331.5,121/500,79,111.0
6187,B-2,331.5,233/1000,100,111.0
6188,C2,331.5,0.25,80,111.0
6189,E-3,331.5,0.125,109,111.0
6190,B4,331.5,0.5,86,111.0
6191,D5,331.5,0.5,86,111.0
6192,B4,331.5,0.5,86,111.0
6193,D5,331.5,0.5,86,111.0
6194,E1,331.75,0.25,97,111.0
6195,E1,331.75,0.25,97,111.0
6196,D3,331.75,183/1000,92,111.0
6197,E2,332.0,229/500,107,111.0
6198,E1,332.0,74/125,97,111.0
6199,E2,332.0,229/500,107,111.0
6200,E1,332.0,74/125,97,111.0
6201,E3,332.0,9/20,73,111.0
6202,G#2,332.0,0.25,114,111.0
6203,C2,332.0,0.5,99,111.0
6204,B4,332.0,51/40,86,111.0
6205,D5,332.0,51/40,86,111.0
6206,B4,332.0,51/40,86,111.0
6207,D5,332.0,51/40,86,111.0
6208,D2,332.5,367/1000,94,111.0
6209,D2,332.5,367/1000,94,111.0
6210,D3,332.5,24/125,92,111.0
6211,G#2,332.5,7/40,86,111.0
6212,E-3,332.5,0.125,109,111.0
6213,C2,332.75,0.25,72,111.0
6214,E3,333.0,283/1000,97,111.0
6215,G#2,333.0,26/125,100,111.0
6216,D2,333.0,171/500,117,111.0
6217,C2,333.0,0.25,85,111.0
6218,E2,333.0,123/250,96,111.0
6219,E1,333.0,123/250,96,111.0
6220,E2,333.0,123/250,96,111.0
6221,E1,333.0,123/250,96,111.0
6222,D2,333.5,217/1000,92,111.0
6223,D2,333.5,217/1000,92,111.0
6224,D3,333.5,0.25,92,111.0
6225,G#2,333.5,1/5,96,111.0
6226,C2,333.5,0.25,82,111.0
6227,E-3,333.5,133/1000,109,111.0
6228,B4,333.5,383/1000,78,111.0
6229,D5,333.5,383/1000,78,111.0
6230,B4,333.5,383/1000,78,111.0
6231,D5,333.5,383/1000,78,111.0
6232,E1,333.75,479/500,86,111.0
6233,E1,333.75,479/500,86,111.0
6234,E2,334.0,767/1000,94,111.0
6235,E2,334.0,767/1000,94,111.0
6236,E3,334.0,429/500,104,111.0
6237,G#2,334.0,121/500,109,111.0
6238,C2,334.0,0.5,104,111.0
6239,A4,334.0,479/500,86,111.0
6240,C#5,334.0,733/1000,77,111.0
6241,A4,334.0,479/500,86,111.0
6242,C#5,334.0,733/1000,77,111.0
6243,B3,334.008,33/40,88,111.0
6244,G#2,334.5,1/5,69,111.0
6245,E-3,334.5,133/1000,114,111.0
6246,D2,334.75,127/250,97,111.0
6247,D2,334.75,127/250,97,111.0
6248,D3,334.75,29/40,92,111.0
6249,C2,334.75,0.25,70,111.0
6250,B4,334.75,0.625,83,111.0
6251,D5,334.75,221/500,85,111.0
6252,B4,334.75,0.625,83,111.0
6253,D5,334.75,221/500,85,111.0
6254,C#4,334.892,21/40,92,111.0
6255,E1,335.0,633/1000,104,111.0
6256,E1,335.0,633/1000,104,111.0
6257,G#2,335.0,9/40,100,111.0
6258,D2,335.0,383/1000,113,111.0
6259,C2,335.0,0.25,76,111.0
6260,B1,335.5,77/250,79,111.0
6261,B1,335.5,77/250,79,111.0
6262,B2,335.5,3/10,82,111.0
6263,B-2,335.5,233/1000,114,111.0
6264,C2,335.5,0.25,80,111.0
6265,E-3,335.5,79/500,109,111.0
6266,B4,335.5,0.5,86,111.0
6267,G#4,335.5,0.5,86,111.0
6268,B4,335.5,0.5,86,111.0
6269,G#4,335.5,0.5,86,111.0
6270,G3,335.542,1/20,83,111.0
6271,D4,335.542,517/1000,85,111.0
6272,D3,335.75,183/1000,83,111.0
6273,E1,336.0,371/500,99,111.0
6274,E2,336.0,383/1000,107,111.0
6275,E1,336.0,371/500,99,111.0
6276,E2,336.0,383/1000,107,111.0
6277,E3,336.0,49/125,88,111.0
6278,G#2,336.0,11/40,96,111.0
6279,C2,336.0,0.5,99,111.0
6280,B4,336.0,1817/1000,86,111.0
6281,G#4,336.0,1.75,86,111.0
6282,B4,336.0,1817/1000,86,111.0
6283,G#4,336.0,1.75,86,111.0
6284,A3,336.017,33/1000,94,111.0
6285,D4,336.058,671/500,85,111.0
6286,B5,336.242,83/1000,66,111.0
6287,E6,336.25,3/40,54,111.0
6288,B5,336.325,4.0,66,111.0
6289,E6,336.325,4.0,54,111.0
6290,D2,336.5,11/40,73,111.0
6291,D2,336.5,11/40,73,111.0
6292,D3,336.5,26/125,90,111.0
6293,G#2,336.5,3/20,84,111.0
6294,E-3,336.5,71/500,109,111.0
6295,C2,336.75,0.25,76,111.0
6296,E1,337.0,271/500,101,111.0
6297,E2,337.0,229/500,86,111.0
6298,E1,337.0,271/500,101,111.0
6299,E2,337.0,229/500,86,111.0
6300,E3,337.0,7/20,97,111.0
6301,G#2,337.0,233/1000,114,111.0
6302,D2,337.0,317/1000,117,111.0
6303,C2,337.0,0.25,82,111.0
6304,D2,337.5,0.25,78,111.0
6305,D2,337.5,0.25,78,111.0
6306,D3,337.5,77/250,83,111.0
6307,G#2,337.5,217/1000,86,111.0
6308,C2,337.5,0.25,78,111.0
6309,E-3,337.5,133/1000,114,111.0
6310,D4,337.542,13/40,83,111.0
6311,E1,337.75,41/40,86,111.0
6312,E1,337.75,41/40,86,111.0
6313,E2,338.0,177/250,99,111.0
6314,E2,338.0,177/250,99,111.0
6315,E3,338.0,917/1000,94,111.0
6316,G#2,338.0,129/500,100,111.0
6317,C2,338.0,0.5,101,111.0
6318,B4,338.0,329/500,83,111.0
6319,G#4,338.0,11/20,75,111.0
6320,B4,338.0,329/500,83,111.0
6321,G#4,338.0,11/20,75,111.0
6322,C#4,338.083,173/250,68,111.0
6323,G#2,338.5,233/1000,89,111.0
6324,E-3,338.5,133/1000,119,111.0
6325,D2,338.75,271/500,101,111.0
6326,D2,338.75,271/500,101,111.0
6327,D3,338.75,733/1000,90,111.0
6328,C2,338.75,0.25,86,111.0
6329,A4,338.75,0.25,60,111.0
6330,C#5,338.75,0.25,60,111.0
6331,A4,338.75,0.25,60,111.0
6332,C#5,338.75,0.25,60,111.0
6333,D4,338.925,21/40,86,111.0
6334,E1,339.0,567/1000,107,111.0
6335,E1,339.0,567/1000,107,111.0
6336,G#2,339.0,233/1000,109,111.0
6337,D2,339.0,9/20,117,111.0
6338,C2,339.0,0.25,90,111.0
6339,B1,339.5,129/500,83,111.0
6340,B1,339.5,129/500,83,111.0
6341,B2,339.5,0.25,66,111.0
6342,B-2,339.5,121/500,119,111.0
6343,C2,339.5,0.25,80,111.0
6344,E-3,339.5,71/500,114,111.0
6345,D5,339.5,0.5,90,111.0
6346,F#5,339.5,0.5,73,111.0
6347,D5,339.5,0.5,90,111.0
6348,F#5,339.5,0.5,73,111.0
6349,B3,339.542,517/1000,85,111.0
6350,E1,339.75,0.25,80,111.0
6351,E1,339.75,0.25,80,111.0
6352,D3,339.75,26/125,75,111.0
6353,E2,340.0,483/1000,97,111.0
6354,E1,340.0,329/500,80,111.0
6355,E2,340.0,483/1000,97,111.0
6356,E1,340.0,329/500,80,111.0
6357,B2,340.0,4/5,54,111.0
6358,G#2,340.0,121/500,114,111.0
6359,C2,340.0,0.5,99,111.0
6360,D5,340.0,333/1000,90,111.0
6361,F#5,340.0,129/500,73,111.0
6362,D5,340.0,333/1000,90,111.0
6363,F#5,340.0,129/500,73,111.0
6364,B3,340.058,29/20,85,111.0
6365,B5,340.325,267/1000,66,111.0
6366,E6,340.325,4.0,54,111.0
6367,D2,340.5,221/500,90,111.0
6368,D2,340.5,221/500,90,111.0
6369,G#2,340.5,24/125,92,111.0
6370,E-3,340.5,133/1000,114,111.0
6371,A5,340.5,153/40,62,111.0
6372,E5,340.5,13/40,66,111.0
6373,C#5,340.5,13/40,66,111.0
6374,E5,340.5,13/40,66,111.0
6375,C#5,340.5,13/40,66,111.0
6376,C2,340.75,0.25,72,111.0
6377,E2,341.0,0.5,80,111.0
6378,E1,341.0,567/1000,101,111.0
6379,E2,341.0,0.5,80,111.0
6380,E1,341.0,567/1000,101,111.0
6381,G#2,341.0,217/1000,114,111.0
6382,D2,341.0,367/1000,117,111.0
6383,C2,341.0,0.25,85,111.0
6384,B4,341.0,179/500,56,111.0
6385,D5,341.0,73/250,55,111.0
6386,B4,341.0,179/500,56,111.0
6387,D5,341.0,73/250,55,111.0
6388,D2,341.5,283/1000,90,111.0
6389,D2,341.5,283/1000,90,111.0
6390,G#2,341.5,183/1000,109,111.0
6391,C3,341.5,127/250,123,111.0
6392,C2,341.5,0.25,82,111.0
6393,E-3,341.5,133/1000,104,111.0
6394,A4,341.5,171/500,70,111.0
6395,C#5,341.5,171/500,70,111.0
6396,A4,341.5,171/500,70,111.0
6397,C#5,341.5,171/500,70,111.0
6398,E1,341.75,967/1000,76,111.0
6399,E1,341.75,967/1000,76,111.0
6400,E2,342.0,13/20,88,111.0
6401,E2,342.0,13/20,88,111.0
6402,G#2,342.0,1/5,104,111.0
6403,D2,342.0,183/1000,66,111.0
6404,C2,342.0,0.5,104,111.0
6405,D5,342.0,67/1000,53,111.0
6406,D5,342.0,67/1000,53,111.0
6407,B4,342.0,883/1000,78,111.0
6408,E5,342.0,883/1000,78,111.0
6409,B4,342.0,883/1000,78,111.0
6410,E5,342.0,883/1000,78,111.0
6411,B2,342.25,333/1000,123,111.0
6412,G#2,342.5,167/1000,100,111.0
6413,E-3,342.5,71/500,104,111.0
6414,D2,342.75,733/1000,101,111.0
6415,D2,342.75,733/1000,101,111.0
6416,B2,342.75,1/5,97,111.0
6417,C2,342.75,0.25,70,111.0
6418,E1,343.0,74/125,97,111.0
6419,E1,343.0,74/125,97,111.0
6420,G#2,343.0,233/1000,104,111.0
6421,D2,343.0,2/5,90,111.0
6422,C2,343.0,0.25,76,111.0
6423,A4,343.0,0.875,74,111.0
6424,C#5,343.0,0.875,74,111.0
6425,A4,343.0,0.875,74,111.0
6426,C#5,343.0,0.875,74,111.0
6427,B1,343.5,367/1000,62,111.0
6428,B1,343.5,367/1000,62,111.0
6429,B-2,343.5,183/1000,119,111.0
6430,A2,343.5,71/500,107,111.0
6431,C2,343.5,0.25,80,111.0
6432,E-3,343.5,71/500,89,111.0
6433,E1,343.75,0.25,92,111.0
6434,E1,343.75,0.25,92,111.0
6435,G2,343.75,133/1000,113,111.0
6436,B1,344.0,0.5,97,111.0
6437,E1,344.0,21/500,92,111.0
6438,B1,344.0,0.5,97,111.0
6439,E1,344.0,21/500,92,111.0
6440,C#3,344.0,79/500,119,111.0
6441,G#2,344.0,0.25,104,111.0
6442,C2,344.0,0.5,101,111.0
6443,B4,344.0,4.0,83,111.0
6444,F#4,344.0,83/1000,63,111.0
6445,B4,344.0,4.0,83,111.0
6446,F#4,344.0,83/1000,63,111.0
6447,F#4,344.0,0.25,103,111.0
6448,D4,344.0,0.25,103,111.0
6449,B3,344.0,0.25,103,111.0
6450,F#4,344.0,0.25,78,111.0
6451,D4,344.0,0.25,78,111.0
6452,B3,344.0,0.25,78,111.0
6453,A3,344.0,67/1000,51,111.0
6454,B3,344.0,67/1000,51,111.0
6455,B3,344.25,0.25,91,111.0
6456,B3,344.25,0.25,66,111.0
6457,B4,344.25,9/40,127,111.0
6458,E6,344.325,4.0,54,111.0
6459,A5,344.325,71/500,62,111.0
6460,G#5,344.333,499/125,48,111.0
6461,B3,344.5,0.25,61,111.0
6462,B3,344.5,0.25,36,111.0
6463,D4,344.5,1/10,54,111.0
6464,G#4,344.5,167/1000,127,111.0
6465,G#2,344.5,0.25,86,111.0
6466,F#4,344.5,79/500,52,111.0
6467,B3,344.5,79/500,52,111.0
6468,B1,344.75,0.25,82,111.0
6469,B1,344.75,0.25,82,111.0
6470,C2,344.75,0.25,76,111.0
6471,F#4,344.75,0.25,98,111.0
6472,D4,344.75,0.25,98,111.0
6473,B3,344.75,0.25,98,111.0
6474,F#4,344.75,0.25,73,111.0
6475,D4,344.75,0.25,73,111.0
6476,B3,344.75,0.25,73,111.0
6477,B3,345.0,0.25,83,111.0
6478,B3,345.0,0.25,58,111.0
6479,B1,345.0,0.5,79,111.0
6480,B1,345.0,0.5,79,111.0
6481,A4,345.0,24/125,127,111.0
6482,D2,345.0,1.75,120,111.0
6483,C2,345.0,0.25,86,111.0
6484,D2,345.0,0.25,108,111.0
6485,G#2,345.0,0.25,108,111.0
6486,B3,345.25,0.25,77,111.0
6487,B3,345.25,0.25,52,111.0
6488,A1,345.5,0.5,88,111.0
6489,A1,345.5,0.5,88,111.0
6490,B4,345.5,9/40,127,111.0
6491,G#2,345.5,0.25,92,111.0
6492,C2,345.5,0.25,92,111.0
6493,F#4,345.5,0.25,107,111.0
6494,D4,345.5,0.25,107,111.0
6495,B3,345.5,0.25,107,111.0
6496,F#4,345.5,0.25,82,111.0
6497,D4,345.5,0.25,82,111.0
6498,B3,345.5,0.25,82,111.0
6499,F#4,345.5,117/1000,54,111.0
6500,B3,345.5,117/1000,54,111.0
6501,D4,345.5,117/1000,54,111.0
6502,B1,346.0,0.5,92,111.0
6503,B1,346.0,0.5,92,111.0
6504,G#4,346.0,3/20,127,111.0
6505,G#2,346.0,0.25,100,111.0
6506,C2,346.0,0.5,99,111.0
6507,A4,346.25,133/1000,127,111.0
6508,D4,346.5,1/10,66,111.0
6509,G#2,346.5,0.25,86,111.0
6510,F#4,346.5,0.5,99,111.0
6511,D4,346.5,0.5,99,111.0
6512,B3,346.5,0.5,99,111.0
6513,F#4,346.5,0.5,74,111.0
6514,D4,346.5,0.5,74,111.0
6515,B3,346.5,0.5,74,111.0
6516,F#4,346.5,7/40,60,111.0
6517,B3,346.5,7/40,60,111.0
6518,B1,346.75,0.25,97,111.0
6519,B1,346.75,0.25,97,111.0
6520,B4,346.75,1/5,127,111.0
6521,C2,346.75,0.25,88,111.0
6522,A1,347.0,0.5,104,111.0
6523,A1,347.0,0.5,104,111.0
6524,D2,347.0,1.0,117,111.0
6525,G#2,347.0,0.25,96,111.0
6526,C2,347.0,0.25,66,111.0
6527,D5,347.25,24/125,127,111.0
6528,D4,347.5,23/250,80,111.0
6529,B1,347.5,0.5,92,111.0
6530,B1,347.5,0.5,92,111.0
6531,G#2,347.5,0.25,89,111.0
6532,C2,347.5,0.25,94,111.0
6533,F#4,347.5,3/20,72,111.0
6534,B3,347.5,3/20,72,111.0
6535,D5,347.75,217/1000,127,111.0
6536,E1,348.0,0.5,101,111.0
6537,E1,348.0,0.5,101,111.0
6538,D2,348.0,0.75,117,111.0
6539,G#2,348.0,0.25,92,111.0
6540,C2,348.0,0.5,94,111.0
6541,B4,348.0,67/1000,83,111.0
6542,B4,348.0,67/1000,83,111.0
6543,E4,348.0,0.25,100,111.0
6544,B3,348.0,0.25,100,111.0
6545,G#4,348.0,0.25,100,111.0
6546,E4,348.0,0.25,75,111.0
6547,B3,348.0,0.25,75,111.0
6548,G#4,348.0,0.25,75,111.0
6549,B3,348.05,1/125,85,111.0
6550,B3,348.058,4.0,85,111.0
6551,B3,348.25,0.25,93,111.0
6552,B3,348.25,0.25,68,111.0
6553,B4,348.25,9/40,127,111.0
6554,E6,348.325,1133/40,54,111.0
6555,G#5,348.325,3/20,48,111.0
6556,A5,348.342,3983/1000,44,111.0
6557,B3,348.5,0.25,74,111.0
6558,B3,348.5,0.25,49,111.0
6559,G#4,348.5,1/10,127,111.0
6560,G#2,348.5,0.25,84,111.0
6561,G#4,348.5,3/20,58,111.0
6562,E4,348.5,3/20,58,111.0
6563,B3,348.5,3/20,58,111.0
6564,E1,348.75,0.25,66,111.0
6565,E1,348.75,0.25,66,111.0
6566,C2,348.75,0.25,88,111.0
6567,E4,348.75,0.25,106,111.0
6568,B3,348.75,0.25,106,111.0
6569,G#4,348.75,0.25,106,111.0
6570,E4,348.75,0.25,81,111.0
6571,B3,348.75,0.25,81,111.0
6572,G#4,348.75,0.25,81,111.0
6573,F#1,349.0,0.5,109,111.0
6574,F#1,349.0,0.5,109,111.0
6575,A4,349.0,183/1000,127,111.0
6576,D2,349.0,1.75,117,111.0
6577,G#2,349.0,0.25,92,111.0
6578,C2,349.0,0.25,86,111.0
6579,B3,349.25,0.25,79,111.0
6580,B3,349.25,0.25,54,111.0
6581,G#1,349.5,0.5,100,111.0
6582,G#1,349.5,0.5,100,111.0
6583,B4,349.5,26/125,127,111.0
6584,G#2,349.5,0.25,86,111.0
6585,C2,349.5,0.25,86,111.0
6586,E4,349.5,0.5,100,111.0
6587,A3,349.5,0.5,100,111.0
6588,D4,349.5,0.5,100,111.0
6589,E4,349.5,0.5,75,111.0
6590,A3,349.5,0.5,75,111.0
6591,D4,349.5,0.5,75,111.0
6592,G#4,349.5,1/5,64,111.0
6593,E4,349.5,1/5,64,111.0
6594,B3,349.5,1/5,64,111.0
6595,A1,350.0,0.5,99,111.0
6596,A1,350.0,0.5,99,111.0
6597,G#4,350.0,0.125,127,111.0
6598,G#2,350.0,0.25,100,111.0
6599,C2,350.0,0.5,101,111.0
6600,A4,350.25,71/500,127,111.0
6601,G#2,350.5,0.25,79,111.0
6602,E4,350.5,0.5,100,111.0
6603,C#4,350.5,0.5,100,111.0
6604,A3,350.5,0.5,100,111.0
6605,E4,350.5,0.5,75,111.0
6606,C#4,350.5,0.5,75,111.0
6607,A3,350.5,0.5,75,111.0
6608,A3,350.5,133/1000,63,111.0
6609,E4,350.5,133/1000,63,111.0
6610,C#4,350.5,133/1000,63,111.0
6611,A1,350.75,0.25,80,111.0
6612,A1,350.75,0.25,80,111.0
6613,B4,350.75,9/40,127,111.0
6614,C2,350.75,0.25,86,111.0
6615,A1,351.0,0.5,75,111.0
6616,A1,351.0,0.5,75,111.0
6617,D2,351.0,1.0,110,111.0
6618,G#2,351.0,0.25,100,111.0
6619,C2,351.0,0.25,80,111.0
6620,G#4,351.25,7/40,127,111.0
6621,A3,351.5,0.5,81,111.0
6622,A3,351.5,0.5,56,111.0
6623,G#1,351.5,0.25,109,111.0
6624,G#1,351.5,0.25,109,111.0
6625,G#2,351.5,0.25,92,111.0
6626,C2,351.5,0.25,101,111.0
6627,E4,351.5,1/10,58,111.0
6628,A3,351.5,1/10,58,111.0
6629,C#4,351.5,1/10,58,111.0
6630,A1,351.75,0.25,80,111.0
6631,A1,351.75,0.25,80,111.0
6632,A4,351.75,24/125,127,111.0
6633,B1,352.0,0.5,79,111.0
6634,B1,352.0,0.5,79,111.0
6635,D2,352.0,0.75,110,111.0
6636,G#2,352.0,0.25,100,111.0
6637,C2,352.0,0.5,104,111.0
6638,B3,352.0,0.25,107,111.0
6639,F#4,352.0,0.25,107,111.0
6640,D4,352.0,0.25,107,111.0
6641,B3,352.0,0.25,82,111.0
6642,F#4,352.0,0.25,82,111.0
6643,D4,352.0,0.25,82,111.0
6644,B3,352.058,577/250,85,111.0
6645,B3,352.25,0.25,87,111.0
6646,B3,352.25,0.25,62,111.0
6647,B4,352.25,9/40,127,111.0
6648,B5,352.292,33/1000,57,111.0
6649,B3,352.5,0.25,63,111.0
6650,B3,352.5,0.25,38,111.0
6651,G#4,352.5,3/20,127,111.0
6652,G#2,352.5,0.25,84,111.0
6653,F#4,352.5,133/1000,53,111.0
6654,B3,352.5,133/1000,53,111.0
6655,D4,352.5,133/1000,53,111.0
6656,B3,352.75,0.5,91,111.0
6657,B3,352.75,0.5,66,111.0
6658,B1,352.75,0.25,71,111.0
6659,B1,352.75,0.25,71,111.0
6660,C2,352.75,0.25,74,111.0
6661,F#4,352.75,0.25,112,111.0
6662,D4,352.75,0.25,112,111.0
6663,F#4,352.75,0.25,87,111.0
6664,D4,352.75,0.25,87,111.0
6665,B1,353.0,0.5,67,111.0
6666,B1,353.0,0.5,67,111.0
6667,A4,353.0,24/125,127,111.0
6668,D2,353.0,1.75,113,111.0
6669,G#2,353.0,0.25,96,111.0
6670,C2,353.0,0.25,88,111.0
6671,B3,353.25,0.25,79,111.0
6672,B3,353.25,0.25,54,111.0
6673,A1,353.5,0.5,90,111.0
6674,A1,353.5,0.5,90,111.0
6675,B4,353.5,9/40,127,111.0
6676,C5,353.5,1/20,124,111.0
6677,G#2,353.5,0.25,96,111.0
6678,C2,353.5,0.25,99,111.0
6679,D4,353.5,0.25,107,111.0
6680,B3,353.5,0.25,107,111.0
6681,F#4,353.5,0.25,107,111.0
6682,D4,353.5,0.25,82,111.0
6683,B3,353.5,0.25,82,111.0
6684,F#4,353.5,0.25,82,111.0
6685,F#4,353.5,1/10,63,111.0
6686,B3,353.5,1/10,63,111.0
6687,D4,353.5,1/10,63,111.0
6688,B1,354.0,0.5,80,111.0
6689,B1,354.0,0.5,80,111.0
6690,G#4,354.0,71/500,127,111.0
6691,G#2,354.0,0.25,89,111.0
6692,C2,354.0,0.5,101,111.0
6693,A4,354.25,167/1000,127,111.0
6694,D4,354.5,27/250,64,111.0
6695,G#2,354.5,0.25,79,111.0
6696,F#4,354.5,0.5,102,111.0
6697,D4,354.5,0.5,102,111.0
6698,B3,354.5,0.5,102,111.0
6699,F#4,354.5,0.5,77,111.0
6700,D4,354.5,0.5,77,111.0
6701,B3,354.5,0.5,77,111.0
6702,F#4,354.5,1/5,58,111.0
6703,B3,354.5,1/5,58,111.0
6704,F#4,354.558,3/5,104,111.0
6705,B1,354.75,0.25,80,111.0
6706,B1,354.75,0.25,80,111.0
6707,B4,354.75,121/500,127,111.0
6708,C2,354.75,0.25,85,111.0
6709,A1,355.0,0.5,97,111.0
6710,A1,355.0,0.5,97,111.0
6711,D2,355.0,1.0,120,111.0
6712,G#2,355.0,0.25,89,111.0
6713,E4,355.117,127/250,104,111.0
6714,D5,355.25,24/125,127,111.0
6715,C2,355.25,0.25,72,111.0
6716,D4,355.5,27/250,72,111.0
6717,B1,355.5,0.5,83,111.0
6718,B1,355.5,0.5,83,111.0
6719,G#2,355.5,0.25,84,111.0
6720,C2,355.5,0.25,68,111.0
6721,B3,355.5,133/1000,62,111.0
6722,F#4,355.5,133/1000,62,111.0
6723,D4,355.592,11/40,99,111.0
6724,D5,355.75,1/5,127,111.0
6725,E4,355.825,233/1000,101,111.0
6726,E4,356.0,0.5,117,111.0
6727,E4,356.0,0.5,92,111.0
6728,E1,356.0,0.5,104,111.0
6729,E1,356.0,0.5,104,111.0
6730,D2,356.0,0.75,120,111.0
6731,G#2,356.0,0.25,86,111.0
6732,C2,356.0,0.5,97,111.0
6733,A4,356.0,0.25,102,111.0
6734,D4,356.0,0.25,102,111.0
6735,A4,356.0,0.25,77,111.0
6736,D4,356.0,0.25,77,111.0
6737,E4,356.058,76/125,101,111.0
6738,B3,356.25,0.25,81,111.0
6739,B3,356.25,0.25,56,111.0
6740,B4,356.25,1/5,127,111.0
6741,B3,356.5,0.25,84,111.0
6742,B3,356.5,0.25,59,111.0
6743,G#4,356.5,79/500,127,111.0
6744,G#2,356.5,0.25,81,111.0
6745,G#4,356.5,183/1000,55,111.0
6746,E4,356.5,183/1000,55,111.0
6747,B3,356.5,183/1000,55,111.0
6748,D4,356.617,1721/500,101,111.0
6749,E1,356.75,0.25,62,111.0
6750,E1,356.75,0.25,62,111.0
6751,C2,356.75,0.25,88,111.0
6752,E4,356.75,0.25,95,111.0
6753,A4,356.75,0.25,95,111.0
6754,D4,356.75,0.25,95,111.0
6755,E4,356.75,0.25,70,111.0
6756,A4,356.75,0.25,70,111.0
6757,D4,356.75,0.25,70,111.0
6758,B3,357.0,0.25,79,111.0
6759,B3,357.0,0.25,54,111.0
6760,F#1,357.0,0.5,119,111.0
6761,F#1,357.0,0.5,119,111.0
6762,A4,357.0,1/5,127,111.0
6763,D2,357.0,1.75,110,111.0
6764,G#2,357.0,0.25,89,111.0
6765,C2,357.0,0.25,72,111.0
6766,G#1,357.5,0.5,100,111.0
6767,G#1,357.5,0.5,100,111.0
6768,B4,357.5,233/1000,127,111.0
6769,G#2,357.5,0.25,84,111.0
6770,C2,357.5,0.25,88,111.0
6771,G#4,357.5,0.5,109,111.0
6772,E4,357.5,0.5,109,111.0
6773,B3,357.5,0.5,109,111.0
6774,G#4,357.5,0.5,84,111.0
6775,E4,357.5,0.5,84,111.0
6776,B3,357.5,0.5,84,111.0
6777,G#4,357.5,183/1000,61,111.0
6778,E4,357.5,183/1000,61,111.0
6779,B3,357.5,183/1000,61,111.0
6780,A1,358.0,0.5,94,111.0
6781,A1,358.0,0.5,94,111.0
6782,G#4,358.0,117/1000,127,111.0
6783,G#2,358.0,0.25,89,111.0
6784,C2,358.0,0.5,101,111.0
6785,A4,358.25,79/500,127,111.0
6786,G#2,358.5,0.25,77,111.0
6787,B3,358.5,0.5,101,111.0
6788,G#4,358.5,0.5,101,111.0
6789,E4,358.5,0.5,101,111.0
6790,B3,358.5,0.5,76,111.0
6791,G#4,358.5,0.5,76,111.0
6792,E4,358.5,0.5,76,111.0
6793,E4,358.5,167/1000,58,111.0
6794,C#4,358.5,167/1000,58,111.0
6795,A3,358.5,167/1000,58,111.0
6796,A1,358.75,0.25,88,111.0
6797,A1,358.75,0.25,88,111.0
6798,B4,358.75,217/1000,127,111.0
6799,C2,358.75,0.25,73,111.0
6800,A1,359.0,0.5,71,111.0
6801,A1,359.0,0.5,71,111.0
6802,D2,359.0,0.25,101,111.0
6803,G#2,359.0,0.25,79,111.0
6804,C2,359.0,0.25,78,111.0
6805,G#4,359.25,183/1000,127,111.0
6806,G#1,359.5,0.25,104,111.0
6807,G#1,359.5,0.25,104,111.0
6808,D2,359.5,0.25,99,111.0
6809,G#2,359.5,0.25,86,111.0
6810,C2,359.5,0.25,97,111.0
6811,E4,359.5,7/40,60,111.0
6812,C#4,359.5,7/40,60,111.0
6813,A3,359.5,7/40,60,111.0
6814,A1,359.75,0.25,82,111.0
6815,A1,359.75,0.25,82,111.0
6816,A4,359.75,1/5,127,111.0
6817,D2,359.75,0.25,74,111.0
6818,B1,360.0,0.5,78,111.0
6819,B1,360.0,0.5,78,111.0
6820,D2,360.0,0.5,74,111.0
6821,G#2,360.0,0.25,81,111.0
6822,C2,360.0,0.5,99,111.0
6823,F#4,360.0,0.25,96,111.0
6824,B3,360.0,0.25,96,111.0
6825,D4,360.0,0.25,96,111.0
6826,F#4,360.0,0.25,71,111.0
6827,B3,360.0,0.25,71,111.0
6828,D4,360.0,0.25,71,111.0
6829,D4,360.058,1667/1000,101,111.0
6830,B3,360.25,0.25,91,111.0
6831,B3,360.25,0.25,66,111.0
6832,B4,360.25,26/125,127,111.0
6833,B3,360.5,0.25,71,111.0
6834,B3,360.5,0.25,46,111.0
6835,G#4,360.5,3/20,127,111.0
6836,G#2,360.5,0.25,84,111.0
6837,F#4,360.5,133/1000,59,111.0
6838,B3,360.5,133/1000,59,111.0
6839,D4,360.5,133/1000,59,111.0
6840,B1,360.75,0.25,75,111.0
6841,B1,360.75,0.25,75,111.0
6842,C2,360.75,0.25,82,111.0
6843,D4,360.75,0.25,104,111.0
6844,F#4,360.75,0.25,104,111.0
6845,B3,360.75,0.25,104,111.0
6846,D4,360.75,0.25,79,111.0
6847,F#4,360.75,0.25,79,111.0
6848,B3,360.75,0.25,79,111.0
6849,B1,361.0,0.5,67,111.0
6850,B1,361.0,0.5,67,111.0
6851,A4,361.0,26/125,127,111.0
6852,D2,361.0,1.75,123,111.0
6853,G#2,361.0,0.25,86,111.0
6854,C2,361.0,0.25,88,111.0
6855,B3,361.25,0.25,77,111.0
6856,B3,361.25,0.25,52,111.0
6857,A1,361.5,0.5,86,111.0
6858,A1,361.5,0.5,86,111.0
6859,B4,361.5,0.25,127,111.0
6860,G#2,361.5,0.25,84,111.0
6861,C2,361.5,0.25,85,111.0
6862,F#4,361.5,0.25,105,111.0
6863,D4,361.5,0.25,105,111.0
6864,B3,361.5,0.25,105,111.0
6865,F#4,361.5,0.25,80,111.0
6866,D4,361.5,0.25,80,111.0
6867,B3,361.5,0.25,80,111.0
6868,F#4,361.5,133/1000,56,111.0
6869,B3,361.5,133/1000,56,111.0
6870,D4,361.5,133/1000,56,111.0
6871,B1,362.0,0.5,92,111.0
6872,B1,362.0,0.5,92,111.0
6873,G#4,362.0,3/20,127,111.0
6874,G#2,362.0,0.25,86,111.0
6875,C2,362.0,0.5,107,111.0
6876,A4,362.25,167/1000,127,111.0
6877,B3,362.5,0.5,99,111.0
6878,B3,362.5,0.5,74,111.0
6879,G#2,362.5,0.25,77,111.0
6880,F#4,362.5,0.25,111,111.0
6881,D4,362.5,0.25,111,111.0
6882,F#4,362.5,0.25,86,111.0
6883,D4,362.5,0.25,86,111.0
6884,F#4,362.5,117/1000,66,111.0
6885,B3,362.5,117/1000,66,111.0
6886,D4,362.5,117/1000,66,111.0
6887,F#4,362.6,567/1000,104,111.0
6888,B1,362.75,0.5,86,111.0
6889,B1,362.75,0.5,86,111.0
6890,B4,362.75,233/1000,127,111.0
6891,C2,362.75,0.25,66,111.0
6892,A1,363.0,0.5,86,111.0
6893,A1,363.0,0.5,86,111.0
6894,D2,363.0,1.0,110,111.0
6895,G#2,363.0,0.25,81,111.0
6896,C2,363.0,0.25,71,111.0
6897,E4,363.117,517/1000,104,111.0
6898,D5,363.25,24/125,127,111.0
6899,B1,363.5,0.5,94,111.0
6900,B1,363.5,0.5,94,111.0
6901,G#2,363.5,0.25,86,111.0
6902,C2,363.5,0.25,85,111.0
6903,F#4,363.5,7/40,69,111.0
6904,D4,363.5,7/40,69,111.0
6905,B3,363.5,7/40,69,111.0
6906,D4,363.592,283/1000,104,111.0
6907,D5,363.75,183/1000,127,111.0
6908,E4,363.825,233/1000,101,111.0
6909,E1,364.0,0.5,67,111.0
6910,E1,364.0,0.5,67,111.0
6911,D2,364.0,0.75,110,111.0
6912,G#2,364.0,0.25,81,111.0
6913,C2,364.0,0.5,101,111.0
6914,E4,364.0,0.25,108,111.0
6915,B3,364.0,0.25,108,111.0
6916,G#4,364.0,0.25,108,111.0
6917,E4,364.0,0.25,83,111.0
6918,B3,364.0,0.25,83,111.0
6919,G#4,364.0,0.25,83,111.0
6920,E4,364.058,76/125,101,111.0
6921,B3,364.25,0.25,93,111.0
6922,B3,364.25,0.25,68,111.0
6923,B4,364.25,167/1000,127,111.0
6924,A4,364.25,167/1000,127,111.0
6925,B3,364.5,0.25,66,111.0
6926,B3,364.5,0.25,41,111.0
6927,G#4,364.5,167/1000,127,111.0
6928,G#2,364.5,0.25,75,111.0
6929,E4,364.5,79/500,60,111.0
6930,G#4,364.5,79/500,60,111.0
6931,B3,364.5,79/500,60,111.0
6932,D4,364.642,3417/1000,88,111.0
6933,E1,364.75,0.25,60,111.0
6934,E1,364.75,0.25,60,111.0
6935,C2,364.75,0.25,82,111.0
6936,E4,364.75,0.25,97,111.0
6937,B3,364.75,0.25,97,111.0
6938,G#4,364.75,0.25,97,111.0
6939,E4,364.75,0.25,72,111.0
6940,B3,364.75,0.25,72,111.0
6941,G#4,364.75,0.25,72,111.0
6942,F#1,365.0,0.5,114,111.0
6943,F#1,365.0,0.5,114,111.0
6944,A4,365.0,9/40,127,111.0
6945,D2,365.0,1.75,113,111.0
6946,G#2,365.0,0.25,86,111.0
6947,C2,365.0,0.25,86,111.0
6948,B3,365.25,0.25,79,111.0
6949,B3,365.25,0.25,54,111.0
6950,A3,365.5,0.25,93,111.0
6951,A3,365.5,0.25,68,111.0
6952,G#1,365.5,0.5,92,111.0
6953,G#1,365.5,0.5,92,111.0
6954,B4,365.5,267/1000,127,111.0
6955,G#2,365.5,0.25,58,111.0
6956,C2,365.5,0.25,97,111.0
6957,E4,365.5,0.5,96,111.0
6958,D4,365.5,0.5,96,111.0
6959,E4,365.5,0.5,70,111.0
6960,D4,365.5,0.5,70,111.0
6961,G#4,365.5,167/1000,68,111.0
6962,E4,365.5,167/1000,68,111.0
6963,B3,365.5,167/1000,68,111.0
6964,A1,366.0,0.5,92,111.0
6965,A1,366.0,0.5,92,111.0
6966,G#4,366.0,71/500,127,111.0
6967,G#2,366.0,0.25,89,111.0
6968,C2,366.0,0.5,99,111.0
6969,A4,366.25,79/500,127,111.0
6970,G#2,366.5,0.25,86,111.0
6971,E4,366.5,0.75,92,111.0
6972,C#4,366.5,0.75,92,111.0
6973,A3,366.5,0.75,92,111.0
6974,E4,366.5,0.75,67,111.0
6975,C#4,366.5,0.75,67,111.0
6976,A3,366.5,0.75,67,111.0
6977,E4,366.5,79/500,64,111.0
6978,C#4,366.5,79/500,64,111.0
6979,A3,366.5,79/500,64,111.0
6980,A1,366.75,0.25,82,111.0
6981,A1,366.75,0.25,82,111.0
6982,B4,366.75,233/1000,127,111.0
6983,C2,366.75,0.25,88,111.0
6984,A1,367.0,0.5,62,111.0
6985,A1,367.0,0.5,62,111.0
6986,D2,367.0,1.0,110,111.0
6987,G#2,367.0,0.25,81,111.0
6988,C2,367.0,0.25,85,111.0
6989,G#4,367.25,7/40,127,111.0
6990,A3,367.5,0.25,76,111.0
6991,A3,367.5,0.25,51,111.0
6992,C#4,367.5,1/10,49,111.0
6993,G#1,367.5,0.25,104,111.0
6994,G#1,367.5,0.25,104,111.0
6995,G#2,367.5,0.25,92,111.0
6996,C2,367.5,0.25,99,111.0
6997,E4,367.5,7/40,62,111.0
6998,A3,367.5,7/40,62,111.0
6999,A1,367.75,0.25,88,111.0
7000,A1,367.75,0.25,88,111.0
7001,A4,367.75,1/5,127,111.0
7002,B1,368.0,0.5,74,111.0
7003,B1,368.0,0.5,74,111.0
7004,D2,368.0,0.75,110,111.0
7005,G#2,368.0,0.25,114,111.0
7006,C2,368.0,0.5,90,111.0
7007,F#4,368.0,0.25,100,111.0
7008,B3,368.0,0.25,100,111.0
7009,D4,368.0,0.25,100,111.0
7010,F#4,368.0,0.25,75,111.0
7011,B3,368.0,0.25,75,111.0
7012,D4,368.0,0.25,75,111.0
7013,D4,368.058,1867/1000,88,111.0
7014,B3,368.25,0.25,83,111.0
7015,B3,368.25,0.25,58,111.0
7016,B4,368.25,121/500,127,111.0
7017,B3,368.5,0.25,58,111.0
7018,B3,368.5,0.25,33,111.0
7019,G#4,368.5,167/1000,127,111.0
7020,G#2,368.5,0.25,68,111.0
7021,B3,368.5,1/10,71,111.0
7022,F#4,368.5,1/10,71,111.0
7023,D4,368.5,1/10,71,111.0
7024,B1,368.75,0.25,79,111.0
7025,B1,368.75,0.25,79,111.0
7026,C2,368.75,0.25,74,111.0
7027,F#4,368.75,0.25,99,111.0
7028,D4,368.75,0.25,99,111.0
7029,B3,368.75,0.25,99,111.0
7030,F#4,368.75,0.25,74,111.0
7031,D4,368.75,0.25,74,111.0
7032,B3,368.75,0.25,74,111.0
7033,B1,369.0,0.5,66,111.0
7034,B1,369.0,0.5,66,111.0
7035,A4,369.0,9/40,127,111.0
7036,D2,369.0,1.75,107,111.0
7037,G#2,369.0,0.25,109,111.0
7038,C2,369.0,0.25,83,111.0
7039,B3,369.25,0.25,78,111.0
7040,B3,369.25,0.25,53,111.0
7041,A1,369.5,0.5,85,111.0
7042,A1,369.5,0.5,85,111.0
7043,B4,369.5,129/500,127,111.0
7044,G#2,369.5,0.25,53,111.0
7045,C2,369.5,0.25,90,111.0
7046,F#4,369.5,0.25,103,111.0
7047,D4,369.5,0.25,103,111.0
7048,B3,369.5,0.25,103,111.0
7049,F#4,369.5,0.25,78,111.0
7050,D4,369.5,0.25,78,111.0
7051,B3,369.5,0.25,78,111.0
7052,F#4,369.5,3/40,71,111.0
7053,B3,369.5,3/40,71,111.0
7054,D4,369.5,3/40,71,111.0
7055,B1,370.0,0.5,86,111.0
7056,B1,370.0,0.5,86,111.0
7057,G#4,370.0,79/500,127,111.0
7058,G#2,370.0,0.25,104,111.0
7059,C2,370.0,0.5,90,111.0
7060,A4,370.25,3/20,127,111.0
7061,D4,370.5,3/40,85,111.0
7062,G#2,370.5,0.25,79,111.0
7063,F#4,370.5,0.25,104,111.0
7064,B3,370.5,0.25,104,111.0
7065,D4,370.5,0.25,104,111.0
7066,F#4,370.5,0.25,79,111.0
7067,B3,370.5,0.25,79,111.0
7068,D4,370.5,0.25,79,111.0
7069,B3,370.5,117/1000,66,111.0
7070,F#4,370.5,117/1000,66,111.0
7071,F#4,370.617,11/20,96,111.0
7072,B1,370.75,0.25,80,111.0
7073,B1,370.75,0.25,80,111.0
7074,B4,370.75,233/1000,127,111.0
7075,C2,370.75,0.25,62,111.0
7076,A1,371.0,0.5,94,111.0
7077,A1,371.0,0.5,94,111.0
7078,D2,371.0,1.0,113,111.0
7079,G#2,371.0,0.25,109,111.0
7080,C2,371.0,0.25,88,111.0
7081,E4,371.1,533/1000,94,111.0
7082,D5,371.25,1/5,127,111.0
7083,B1,371.5,0.5,92,111.0
7084,B1,371.5,0.5,92,111.0
7085,G#2,371.5,0.25,73,111.0
7086,C2,371.5,0.25,78,111.0
7087,F#4,371.5,23/250,70,111.0
7088,B3,371.5,23/250,70,111.0
7089,D4,371.5,23/250,70,111.0
7090,D4,371.608,233/1000,101,111.0
7091,D5,371.75,24/125,127,111.0
7092,E4,371.8,129/500,78,111.0
7093,E1,372.0,0.5,94,111.0
7094,E1,372.0,0.5,94,111.0
7095,D2,372.0,0.75,113,111.0
7096,G#2,372.0,0.25,109,111.0
7097,C2,372.0,0.5,97,111.0
7098,G#4,372.0,0.25,89,111.0
7099,E4,372.0,0.25,89,111.0
7100,A4,372.0,0.25,89,111.0
7101,G#4,372.0,0.25,64,111.0
7102,E4,372.0,0.25,64,111.0
7103,A4,372.0,0.25,64,111.0
7104,E4,372.058,533/1000,78,111.0
7105,B4,372.25,1/5,127,111.0
7106,D4,372.25,0.25,48,111.0
7107,B3,372.25,0.25,48,111.0
7108,D4,372.25,0.25,23,111.0
7109,B3,372.25,0.25,23,111.0
7110,B3,372.5,0.25,78,111.0
7111,B3,372.5,0.25,53,111.0
7112,G#4,372.5,7/40,127,111.0
7113,G#2,372.5,0.25,73,111.0
7114,E4,372.5,79/500,55,111.0
7115,G#4,372.5,79/500,55,111.0
7116,B3,372.5,79/500,55,111.0
7117,D4,372.542,3517/1000,99,111.0
7118,E1,372.75,0.25,61,111.0
7119,E1,372.75,0.25,61,111.0
7120,C2,372.75,0.25,70,111.0
7121,E4,372.75,0.25,93,111.0
7122,D4,372.75,0.25,93,111.0
7123,A4,372.75,0.25,93,111.0
7124,E4,372.75,0.25,68,111.0
7125,D4,372.75,0.25,68,111.0
7126,A4,372.75,0.25,68,111.0
7127,B3,373.0,0.25,80,111.0
7128,B3,373.0,0.25,55,111.0
7129,F#1,373.0,0.5,114,111.0
7130,F#1,373.0,0.5,114,111.0
7131,A4,373.0,26/125,127,111.0
7132,D2,373.0,1.75,104,111.0
7133,G#2,373.0,0.25,114,111.0
7134,C2,373.0,0.25,92,111.0
7135,B3,373.25,0.25,72,111.0
7136,B3,373.25,0.25,47,111.0
7137,G#1,373.5,0.5,96,111.0
7138,G#1,373.5,0.5,96,111.0
7139,B4,373.5,233/1000,127,111.0
7140,G#2,373.5,0.25,84,111.0
7141,C2,373.5,0.25,90,111.0
7142,E4,373.5,0.5,92,111.0
7143,G#4,373.5,0.5,92,111.0
7144,B3,373.5,0.5,92,111.0
7145,E4,373.5,0.5,67,111.0
7146,G#4,373.5,0.5,67,111.0
7147,B3,373.5,0.5,67,111.0
7148,G#4,373.5,71/500,68,111.0
7149,E4,373.5,71/500,68,111.0
7150,B3,373.5,71/500,68,111.0
7151,A1,374.0,0.5,101,111.0
7152,A1,374.0,0.5,101,111.0
7153,G#4,374.0,79/500,127,111.0
7154,G#2,374.0,0.25,104,111.0
7155,C2,374.0,0.5,101,111.0
7156,A4,374.25,3/20,127,111.0
7157,G#2,374.5,0.25,100,111.0
7158,B3,374.5,0.5,109,111.0
7159,G#4,374.5,0.5,109,111.0
7160,E4,374.5,0.5,109,111.0
7161,B3,374.5,0.5,84,111.0
7162,G#4,374.5,0.5,84,111.0
7163,E4,374.5,0.5,84,111.0
7164,E4,374.5,3/20,55,111.0
7165,C#4,374.5,3/20,55,111.0
7166,A3,374.5,3/20,55,111.0
7167,A1,374.75,0.25,76,111.0
7168,A1,374.75,0.25,76,111.0
7169,B4,374.75,217/1000,127,111.0
7170,C2,374.75,0.25,72,111.0
7171,A1,375.0,0.25,75,111.0
7172,G#1,375.0,0.5,100,111.0
7173,A1,375.0,0.25,75,111.0
7174,G#1,375.0,0.5,100,111.0
7175,D2,375.0,1.0,90,111.0
7176,G#2,375.0,0.25,119,111.0
7177,C2,375.0,0.25,85,111.0
7178,G#4,375.25,183/1000,127,111.0
7179,A1,375.5,0.5,73,111.0
7180,A1,375.5,0.5,73,111.0
7181,B-2,375.5,0.25,114,111.0
7182,C2,375.5,0.25,83,111.0
7183,E4,375.5,79/500,56,111.0
7184,C#4,375.5,79/500,56,111.0
7185,A3,375.5,79/500,56,111.0
7186,A4,375.75,3/20,127,111.0
7187,B4,375.75,3/20,127,111.0
7188,B1,376.0,0.5,83,111.0
7189,B1,376.0,0.5,83,111.0
7190,D2,376.0,0.75,90,111.0
7191,G#2,376.0,0.25,114,111.0
7192,C2,376.0,0.5,83,111.0
7193,F#4,376.0,0.25,107,111.0
7194,B3,376.0,0.25,107,111.0
7195,D4,376.0,0.25,107,111.0
7196,F#4,376.0,0.25,82,111.0
7197,B3,376.0,0.25,82,111.0
7198,D4,376.0,0.25,82,111.0
7199,D4,376.058,327/250,99,111.0
7200,B3,376.25,0.25,87,111.0
7201,B3,376.25,0.25,62,111.0
7202,B4,376.25,1/5,127,111.0
7203,B3,376.5,0.25,71,111.0
7204,B3,376.5,0.25,46,111.0
7205,D4,376.5,1/10,54,111.0
7206,G#4,376.5,24/125,127,111.0
7207,G#2,376.5,0.25,92,111.0
7208,F#4,376.5,79/500,52,111.0
7209,B3,376.5,79/500,52,111.0
7210,A5,376.65,3/40,44,111.0
7211,B5,376.65,159/40,57,111.0
7212,B1,376.75,0.25,83,111.0
7213,B1,376.75,0.25,83,111.0
7214,C2,376.75,0.25,76,111.0
7215,B3,376.75,0.25,101,111.0
7216,F#4,376.75,0.25,101,111.0
7217,D4,376.75,0.25,101,111.0
7218,B3,376.75,0.25,76,111.0
7219,F#4,376.75,0.25,76,111.0
7220,D4,376.75,0.25,76,111.0
7221,B3,377.0,0.25,84,111.0
7222,B3,377.0,0.25,59,111.0
7223,A4,377.0,183/1000,127,111.0
7224,D2,377.0,1.75,92,111.0
7225,G#2,377.0,0.25,124,111.0
7226,C2,377.0,0.25,83,111.0
7227,B3,377.25,0.25,77,111.0
7228,B3,377.25,0.25,52,111.0
7229,B1,377.25,0.25,75,111.0
7230,B1,377.25,0.25,75,111.0
7231,A1,377.5,0.5,70,111.0
7232,A1,377.5,0.5,70,111.0
7233,B4,377.5,233/1000,127,111.0
7234,G#2,377.5,0.25,100,111.0
7235,C2,377.5,0.25,85,111.0
7236,F#4,377.5,0.25,109,111.0
7237,B3,377.5,0.25,109,111.0
7238,D4,377.5,0.25,109,111.0
7239,F#4,377.5,0.25,84,111.0
7240,B3,377.5,0.25,84,111.0
7241,D4,377.5,0.25,84,111.0
7242,F#4,377.5,117/1000,54,111.0
7243,B3,377.5,117/1000,54,111.0
7244,D4,377.5,117/1000,54,111.0
7245,B1,378.0,0.75,99,111.0
7246,B1,378.0,0.75,99,111.0
7247,G#4,378.0,79/500,127,111.0
7248,G#2,378.0,0.25,119,111.0
7249,C2,378.0,0.5,94,111.0
7250,A4,378.25,3/20,127,111.0
7251,D4,378.5,1/10,66,111.0
7252,G#2,378.5,0.25,92,111.0
7253,F#4,378.5,0.25,105,111.0
7254,B3,378.5,0.25,105,111.0
7255,D4,378.5,0.25,105,111.0
7256,F#4,378.5,0.25,80,111.0
7257,B3,378.5,0.25,80,111.0
7258,D4,378.5,0.25,80,111.0
7259,F#4,378.5,7/40,60,111.0
7260,B3,378.5,7/40,60,111.0
7261,B1,378.75,0.25,78,111.0
7262,B1,378.75,0.25,78,111.0
7263,B4,378.75,233/1000,127,111.0
7264,C2,378.75,0.25,94,111.0
7265,A1,379.0,0.5,101,111.0
7266,A1,379.0,0.5,101,111.0
7267,D2,379.0,1.0,99,111.0
7268,G#2,379.0,0.25,114,111.0
7269,C2,379.0,0.25,82,111.0
7270,B3,379.058,73/250,97,111.0
7271,D5,379.25,7/40,127,111.0
7272,D4,379.5,23/250,80,111.0
7273,B1,379.5,0.5,97,111.0
7274,B1,379.5,0.5,97,111.0
7275,G#2,379.5,0.25,96,111.0
7276,C2,379.5,0.25,85,111.0
7277,F#4,379.5,3/20,72,111.0
7278,B3,379.5,3/20,72,111.0
7279,B3,379.55,7/20,79,111.0
7280,D5,379.75,167/1000,127,111.0
7281,E1,380.0,0.5,99,111.0
7282,E1,380.0,0.5,99,111.0
7283,D2,380.0,0.75,99,111.0
7284,G#2,380.0,0.25,119,111.0
7285,C2,380.0,0.5,97,111.0
7286,E4,380.0,0.25,109,111.0
7287,B3,380.0,0.25,109,111.0
7288,G#4,380.0,0.25,109,111.0
7289,E4,380.0,0.25,84,111.0
7290,B3,380.0,0.25,84,111.0
7291,G#4,380.0,0.25,84,111.0
7292,F#4,380.05,1/125,92,111.0
7293,F#4,380.058,883/1000,92,111.0
7294,B3,380.25,0.25,87,111.0
7295,B3,380.25,0.25,62,111.0
7296,B4,380.25,26/125,127,111.0
7297,B3,380.5,0.25,67,111.0
7298,B3,380.5,0.25,42,111.0
7299,G#4,380.5,183/1000,127,111.0
7300,G#2,380.5,0.25,81,111.0
7301,G#4,380.5,3/20,58,111.0
7302,E4,380.5,3/20,58,111.0
7303,B3,380.5,3/20,58,111.0
7304,A5,380.592,29/500,54,111.0
7305,A5,380.65,4.0,54,111.0
7306,E1,380.75,0.25,65,111.0
7307,E1,380.75,0.25,65,111.0
7308,C2,380.75,0.25,80,111.0
7309,E4,380.75,0.25,98,111.0
7310,B3,380.75,0.25,98,111.0
7311,G#4,380.75,0.25,98,111.0
7312,E4,380.75,0.25,73,111.0
7313,B3,380.75,0.25,73,111.0
7314,G#4,380.75,0.25,73,111.0
7315,F#1,381.0,0.5,114,111.0
7316,F#1,381.0,0.5,114,111.0
7317,A4,381.0,26/125,127,111.0
7318,D2,381.0,1.75,110,111.0
7319,G#2,381.0,0.25,119,111.0
7320,C2,381.0,0.25,79,111.0
7321,B3,381.092,171/500,90,111.0
7322,B3,381.25,0.25,79,111.0
7323,B3,381.25,0.25,54,111.0
7324,G#1,381.5,0.5,89,111.0
7325,G#1,381.5,0.5,89,111.0
7326,B4,381.5,0.25,127,111.0
7327,G#2,381.5,0.25,96,111.0
7328,C2,381.5,0.25,85,111.0
7329,A3,381.5,0.5,101,111.0
7330,E4,381.5,0.5,101,111.0
7331,D4,381.5,0.5,101,111.0
7332,A3,381.5,0.5,76,111.0
7333,E4,381.5,0.5,76,111.0
7334,D4,381.5,0.5,76,111.0
7335,G#4,381.5,1/5,64,111.0
7336,E4,381.5,1/5,64,111.0
7337,B3,381.5,1/5,64,111.0
7338,D4,381.558,967/1000,104,111.0
7339,A1,382.0,0.5,80,111.0
7340,A1,382.0,0.5,80,111.0
7341,G#4,382.0,3/20,127,111.0
7342,G#2,382.0,0.25,100,111.0
7343,C2,382.0,0.5,97,111.0
7344,A4,382.25,183/1000,127,111.0
7345,B-2,382.5,0.25,109,111.0
7346,C#4,382.5,0.5,93,111.0
7347,E4,382.5,0.5,93,111.0
7348,A3,382.5,0.5,93,111.0
7349,C#4,382.5,0.5,68,111.0
7350,E4,382.5,0.5,68,111.0
7351,A3,382.5,0.5,68,111.0
7352,A3,382.5,133/1000,63,111.0
7353,E4,382.5,133/1000,63,111.0
7354,C#4,382.5,133/1000,63,111.0
7355,E4,382.558,227/250,86,111.0
7356,A1,382.75,0.25,90,111.0
7357,A1,382.75,0.25,90,111.0
7358,B4,382.75,233/1000,127,111.0
7359,C2,382.75,0.25,79,111.0
7360,G#1,383.0,0.5,109,111.0
7361,G#1,383.0,0.5,109,111.0
7362,D2,383.0,0.25,113,111.0
7363,G#2,383.0,0.25,109,111.0
7364,C2,383.0,0.25,85,111.0
7365,G#4,383.25,183/1000,127,111.0
7366,A3,383.5,0.25,81,111.0
7367,A3,383.5,0.25,56,111.0
7368,A1,383.5,0.5,90,111.0
7369,A1,383.5,0.5,90,111.0
7370,D2,383.5,0.25,88,111.0
7371,B-2,383.5,0.25,89,111.0
7372,C2,383.5,0.25,85,111.0
7373,E4,383.5,1/10,58,111.0
7374,A3,383.5,1/10,58,111.0
7375,C#4,383.5,1/10,58,111.0
7376,A4,383.75,1/5,127,111.0
7377,D2,383.75,0.25,76,111.0
7378,B1,384.0,0.5,72,111.0
7379,B1,384.0,0.5,72,111.0
7380,D2,384.0,0.75,76,111.0
7381,G#2,384.0,0.25,100,111.0
7382,C2,384.0,0.5,99,111.0
7383,F#4,384.0,0.25,106,111.0
7384,D4,384.0,0.25,106,111.0
7385,B3,384.0,0.25,106,111.0
7386,F#4,384.0,0.25,81,111.0
7387,D4,384.0,0.25,81,111.0
7388,B3,384.0,0.25,81,111.0
7389,B3,384.25,0.25,94,111.0
7390,B3,384.25,0.25,69,111.0
7391,B4,384.25,0.25,127,111.0
7392,B3,384.5,0.25,71,111.0
7393,B3,384.5,0.25,46,111.0
7394,G#4,384.5,183/1000,127,111.0
7395,G#2,384.5,0.25,66,111.0
7396,F#4,384.5,133/1000,53,111.0
7397,B3,384.5,133/1000,53,111.0
7398,D4,384.5,133/1000,53,111.0
7399,A5,384.65,117/1000,54,111.0
7400,G#5,384.667,3983/1000,54,111.0
7401,B1,384.75,0.25,65,111.0
7402,B1,384.75,0.25,65,111.0
7403,C2,384.75,0.25,79,111.0
7404,F#4,384.75,0.25,104,111.0
7405,B3,384.75,0.25,104,111.0
7406,D4,384.75,0.25,104,111.0
7407,F#4,384.75,0.25,79,111.0
7408,B3,384.75,0.25,79,111.0
7409,D4,384.75,0.25,79,111.0
7410,B3,385.0,0.25,98,111.0
7411,B3,385.0,0.25,73,111.0
7412,B1,385.0,0.5,79,111.0
7413,B1,385.0,0.5,79,111.0
7414,A4,385.0,217/1000,127,111.0
7415,D2,385.0,1.75,113,111.0
7416,G#2,385.0,0.25,109,111.0
7417,C2,385.0,0.25,79,111.0
7418,B3,385.25,0.25,80,111.0
7419,B3,385.25,0.25,55,111.0
7420,A1,385.5,0.5,63,111.0
7421,A1,385.5,0.5,63,111.0
7422,B4,385.5,233/1000,127,111.0
7423,G#2,385.5,0.25,79,111.0
7424,C2,385.5,0.25,88,111.0
7425,F#4,385.5,0.25,103,111.0
7426,B3,385.5,0.25,103,111.0
7427,D4,385.5,0.25,103,111.0
7428,F#4,385.5,0.25,78,111.0
7429,B3,385.5,0.25,78,111.0
7430,D4,385.5,0.25,78,111.0
7431,F#4,385.5,1/10,63,111.0
7432,B3,385.5,1/10,63,111.0
7433,D4,385.5,1/10,63,111.0
7434,B1,386.0,0.5,86,111.0
7435,B1,386.0,0.5,86,111.0
7436,G#4,386.0,3/20,127,111.0
7437,G#2,386.0,0.25,104,111.0
7438,C2,386.0,0.5,94,111.0
7439,A4,386.25,167/1000,127,111.0
7440,D4,386.5,27/250,64,111.0
7441,G#2,386.5,0.25,92,111.0
7442,F#4,386.5,0.5,108,111.0
7443,B3,386.5,0.5,108,111.0
7444,D4,386.5,0.5,108,111.0
7445,F#4,386.5,0.5,83,111.0
7446,B3,386.5,0.5,83,111.0
7447,D4,386.5,0.5,83,111.0
7448,F#4,386.5,1/5,58,111.0
7449,B3,386.5,1/5,58,111.0
7450,B1,386.75,0.25,83,111.0
7451,B1,386.75,0.25,83,111.0
7452,B4,386.75,129/500,127,111.0
7453,C2,386.75,0.25,85,111.0
7454,A1,387.0,0.5,86,111.0
7455,A1,387.0,0.5,86,111.0
7456,D2,387.0,1.0,117,111.0
7457,G#2,387.0,0.25,104,111.0
7458,C2,387.0,0.25,78,111.0
7459,B3,387.117,11/40,107,111.0
7460,D5,387.25,7/40,127,111.0
7461,D4,387.5,27/250,72,111.0
7462,B1,387.5,0.5,67,111.0
7463,B1,387.5,0.5,67,111.0
7464,G#2,387.5,0.25,92,111.0
7465,C2,387.5,0.25,85,111.0
7466,B3,387.5,133/1000,62,111.0
7467,F#4,387.5,133/1000,62,111.0
7468,B3,387.575,2/5,99,111.0
7469,D5,387.75,26/125,127,111.0
7470,E1,388.0,0.5,86,111.0
7471,E1,388.0,0.5,86,111.0
7472,D2,388.0,0.75,117,111.0
7473,G#2,388.0,0.25,114,111.0
7474,C2,388.0,0.5,74,111.0
7475,A4,388.0,0.25,113,111.0
7476,D4,388.0,0.25,113,111.0
7477,E4,388.0,0.25,113,111.0
7478,A4,388.0,0.25,88,111.0
7479,D4,388.0,0.25,88,111.0
7480,E4,388.0,0.25,88,111.0
7481,F#4,388.058,126/125,109,111.0
7482,B3,388.25,0.25,91,111.0
7483,B3,388.25,0.25,66,111.0
7484,B4,388.25,1/5,127,111.0
7485,B3,388.5,0.25,79,111.0
7486,B3,388.5,0.25,54,111.0
7487,G#4,388.5,79/500,127,111.0
7488,G#2,388.5,0.25,100,111.0
7489,G#4,388.5,183/1000,55,111.0
7490,E4,388.5,183/1000,55,111.0
7491,B3,388.5,183/1000,55,111.0
7492,A5,388.608,21/500,56,111.0
7493,G#5,388.65,1/125,54,111.0
7494,A5,388.65,1979/500,56,111.0
7495,E1,388.75,0.25,61,111.0
7496,E1,388.75,0.25,61,111.0
7497,C2,388.75,0.25,79,111.0
7498,D4,388.75,0.25,102,111.0
7499,E4,388.75,0.25,102,111.0
7500,A4,388.75,0.25,102,111.0
7501,D4,388.75,0.25,77,111.0
7502,E4,388.75,0.25,77,111.0
7503,A4,388.75,0.25,77,111.0
7504,B3,389.0,0.25,80,111.0
7505,B3,389.0,0.25,55,111.0
7506,F#1,389.0,0.5,114,111.0
7507,F#1,389.0,0.5,114,111.0
7508,A4,389.0,26/125,127,111.0
7509,D2,389.0,0.75,113,111.0
7510,G#2,389.0,0.25,114,111.0
7511,C2,389.0,0.25,76,111.0
7512,B3,389.108,517/1000,99,111.0
7513,B3,389.25,0.25,72,111.0
7514,B3,389.25,0.25,47,111.0
7515,G#1,389.5,0.5,89,111.0
7516,G#1,389.5,0.5,89,111.0
7517,B4,389.5,0.25,127,111.0
7518,G#2,389.5,0.25,100,111.0
7519,C2,389.5,0.25,85,111.0
7520,E4,389.5,0.5,101,111.0
7521,G#4,389.5,0.5,101,111.0
7522,B3,389.5,0.5,101,111.0
7523,E4,389.5,0.5,76,111.0
7524,G#4,389.5,0.5,76,111.0
7525,B3,389.5,0.5,76,111.0
7526,G#4,389.5,183/1000,61,111.0
7527,E4,389.5,183/1000,61,111.0
7528,B3,389.5,183/1000,61,111.0
7529,D4,389.608,1067/1000,104,111.0
7530,A1,390.0,0.5,92,111.0
7531,A1,390.0,0.5,92,111.0
7532,G#4,390.0,167/1000,127,111.0
7533,G#2,390.0,0.25,104,111.0
7534,C2,390.0,0.5,97,111.0
7535,A4,390.25,3/20,127,111.0
7536,D2,390.25,0.25,99,111.0
7537,G#2,390.5,0.25,104,111.0
7538,B3,390.5,0.5,109,111.0
7539,G#4,390.5,0.5,109,111.0
7540,E4,390.5,0.5,109,111.0
7541,B3,390.5,0.5,84,111.0
7542,G#4,390.5,0.5,84,111.0
7543,E4,390.5,0.5,84,111.0
7544,E4,390.5,167/1000,58,111.0
7545,C#4,390.5,167/1000,58,111.0
7546,A3,390.5,167/1000,58,111.0
7547,E4,390.592,733/1000,107,111.0
7548,A1,390.75,0.25,66,111.0
7549,A1,390.75,0.25,66,111.0
7550,B4,390.75,9/40,127,111.0
7551,C2,390.75,0.25,82,111.0
7552,A1,391.0,0.5,80,111.0
7553,A1,391.0,0.5,80,111.0
7554,D2,391.0,0.25,113,111.0
7555,G#2,391.0,0.25,114,111.0
7556,C2,391.0,0.25,82,111.0
7557,G#4,391.25,183/1000,127,111.0
7558,G#1,391.5,0.25,86,111.0
7559,G#1,391.5,0.25,86,111.0
7560,D2,391.5,0.25,83,111.0
7561,B-2,391.5,0.25,109,111.0
7562,C2,391.5,0.25,82,111.0
7563,E4,391.5,7/40,60,111.0
7564,C#4,391.5,7/40,60,111.0
7565,A3,391.5,7/40,60,111.0
7566,A1,391.75,0.25,78,111.0
7567,A1,391.75,0.25,78,111.0
7568,A4,391.75,183/1000,127,111.0
7569,D2,391.75,0.25,76,111.0
7570,B1,392.0,0.5,79,111.0
7571,B1,392.0,0.5,79,111.0
7572,D2,392.0,0.75,76,111.0
7573,G#2,392.0,0.25,109,111.0
7574,C2,392.0,0.5,97,111.0
7575,F#4,392.0,0.25,103,111.0
7576,D4,392.0,0.25,103,111.0
7577,B3,392.0,0.25,103,111.0
7578,F#4,392.0,0.25,78,111.0
7579,D4,392.0,0.25,78,111.0
7580,B3,392.0,0.25,78,111.0
7581,B3,392.25,0.25,91,111.0
7582,B3,392.25,0.25,66,111.0
7583,B4,392.25,217/1000,127,111.0
7584,B3,392.5,0.25,61,111.0
7585,B3,392.5,0.25,36,111.0
7586,G#4,392.5,183/1000,127,111.0
7587,G#2,392.5,0.25,84,111.0
7588,F#4,392.5,133/1000,59,111.0
7589,B3,392.5,133/1000,59,111.0
7590,D4,392.5,133/1000,59,111.0
7591,B5,392.517,133/1000,61,111.0
7592,B5,392.65,4.0,61,111.0
7593,B1,392.75,0.25,54,111.0
7594,B1,392.75,0.25,54,111.0
7595,C2,392.75,0.25,79,111.0
7596,F#4,392.75,0.25,98,111.0
7597,D4,392.75,0.25,98,111.0
7598,B3,392.75,0.25,98,111.0
7599,F#4,392.75,0.25,73,111.0
7600,D4,392.75,0.25,73,111.0
7601,B3,392.75,0.25,73,111.0
7602,B3,393.0,0.25,83,111.0
7603,B3,393.0,0.25,58,111.0
7604,B1,393.0,0.5,85,111.0
7605,B1,393.0,0.5,85,111.0
7606,A4,393.0,24/125,127,111.0
7607,D2,393.0,1.75,113,111.0
7608,G#2,393.0,0.25,119,111.0
7609,C2,393.0,0.25,76,111.0
7610,B3,393.25,0.25,77,111.0
7611,B3,393.25,0.25,52,111.0
7612,A1,393.5,0.5,82,111.0
7613,A1,393.5,0.5,82,111.0
7614,B4,393.5,233/1000,127,111.0
7615,G#2,393.5,0.25,96,111.0
7616,C2,393.5,0.25,86,111.0
7617,F#4,393.5,0.25,107,111.0
7618,D4,393.5,0.25,107,111.0
7619,B3,393.5,0.25,107,111.0
7620,F#4,393.5,0.25,82,111.0
7621,D4,393.5,0.25,82,111.0
7622,B3,393.5,0.25,82,111.0
7623,F#4,393.5,133/1000,56,111.0
7624,B3,393.5,133/1000,56,111.0
7625,D4,393.5,133/1000,56,111.0
7626,B1,394.0,0.5,83,111.0
7627,B1,394.0,0.5,83,111.0
7628,G#4,394.0,3/20,127,111.0
7629,G#2,394.0,0.25,109,111.0
7630,C2,394.0,0.5,92,111.0
7631,A4,394.25,26/125,127,111.0
7632,G#2,394.5,0.25,104,111.0
7633,F#4,394.5,0.5,99,111.0
7634,D4,394.5,0.5,99,111.0
7635,B3,394.5,0.5,99,111.0
7636,F#4,394.5,0.5,74,111.0
7637,D4,394.5,0.5,74,111.0
7638,B3,394.5,0.5,74,111.0
7639,F#4,394.5,117/1000,66,111.0
7640,B3,394.5,117/1000,66,111.0
7641,D4,394.5,117/1000,66,111.0
7642,B1,394.75,0.25,75,111.0
7643,B1,394.75,0.25,75,111.0
7644,B4,394.75,121/500,127,111.0
7645,C2,394.75,0.25,85,111.0
7646,A1,395.0,0.5,88,111.0
7647,A1,395.0,0.5,88,111.0
7648,D2,395.0,1.0,99,111.0
7649,G#2,395.0,0.25,114,111.0
7650,C2,395.0,0.25,78,111.0
7651,D5,395.25,183/1000,127,111.0
7652,B1,395.5,0.5,76,111.0
7653,B1,395.5,0.5,76,111.0
7654,G#2,395.5,0.25,96,111.0
7655,C2,395.5,0.25,85,111.0
7656,F#4,395.5,7/40,69,111.0
7657,D4,395.5,7/40,69,111.0
7658,B3,395.5,7/40,69,111.0
7659,B3,395.567,383/1000,117,111.0
7660,D5,395.75,183/1000,127,111.0
7661,E1,396.0,0.5,83,111.0
7662,E1,396.0,0.5,83,111.0
7663,D2,396.0,0.75,99,111.0
7664,G#2,396.0,0.25,114,111.0
7665,C2,396.0,0.5,92,111.0
7666,E4,396.0,0.25,100,111.0
7667,B3,396.0,0.25,100,111.0
7668,G#4,396.0,0.25,100,111.0
7669,E4,396.0,0.25,75,111.0
7670,B3,396.0,0.25,75,111.0
7671,G#4,396.0,0.25,75,111.0
7672,F#4,396.092,933/1000,100,111.0
7673,B3,396.25,0.25,93,111.0
7674,B3,396.25,0.25,68,111.0
7675,B4,396.25,9/40,127,111.0
7676,B3,396.5,0.25,74,111.0
7677,B3,396.5,0.25,49,111.0
7678,G#4,396.5,217/1000,127,111.0
7679,G#2,396.5,0.25,96,111.0
7680,E4,396.5,79/500,60,111.0
7681,G#4,396.5,79/500,60,111.0
7682,B3,396.5,79/500,60,111.0
7683,B5,396.65,4.0,61,111.0
7684,E1,396.75,0.25,59,111.0
7685,E1,396.75,0.25,59,111.0
7686,C2,396.75,0.25,80,111.0
7687,E4,396.75,0.25,106,111.0
7688,B3,396.75,0.25,106,111.0
7689,G#4,396.75,0.25,106,111.0
7690,E4,396.75,0.25,81,111.0
7691,B3,396.75,0.25,81,111.0
7692,G#4,396.75,0.25,81,111.0
7693,F#1,397.0,0.5,114,111.0
7694,F#1,397.0,0.5,114,111.0
7695,A4,397.0,217/1000,127,111.0
7696,D2,397.0,1.75,110,111.0
7697,G#2,397.0,0.25,119,111.0
7698,C2,397.0,0.25,69,111.0
7699,B3,397.033,467/1000,101,111.0
7700,B3,397.25,0.25,79,111.0
7701,B3,397.25,0.25,54,111.0
7702,G#1,397.5,0.5,92,111.0
7703,G#1,397.5,0.5,92,111.0
7704,B4,397.5,0.25,127,111.0
7705,G#2,397.5,0.25,96,111.0
7706,C2,397.5,0.25,94,111.0
7707,E4,397.5,0.5,100,111.0
7708,A3,397.5,0.5,100,111.0
7709,D4,397.5,0.5,100,111.0
7710,E4,397.5,0.5,75,111.0
7711,A3,397.5,0.5,75,111.0
7712,D4,397.5,0.5,75,111.0
7713,G#4,397.5,167/1000,68,111.0
7714,E4,397.5,167/1000,68,111.0
7715,B3,397.5,167/1000,68,111.0
7716,D4,397.567,1.125,110,111.0
7717,A1,398.0,0.5,83,111.0
7718,A1,398.0,0.5,83,111.0
7719,G#4,398.0,133/1000,127,111.0
7720,G#2,398.0,0.25,104,111.0
7721,C2,398.0,0.5,101,111.0
7722,A4,398.25,9/40,127,111.0
7723,B-2,398.5,0.25,100,111.0
7724,E4,398.5,0.5,100,111.0
7725,C#4,398.5,0.5,100,111.0
7726,A3,398.5,0.5,100,111.0
7727,E4,398.5,0.5,75,111.0
7728,C#4,398.5,0.5,75,111.0
7729,A3,398.5,0.5,75,111.0
7730,E4,398.5,79/500,64,111.0
7731,C#4,398.5,79/500,64,111.0
7732,A3,398.5,79/500,64,111.0
7733,E4,398.617,19/20,94,111.0
7734,A1,398.75,0.25,76,111.0
7735,A1,398.75,0.25,76,111.0
7736,B4,398.75,233/1000,127,111.0
7737,C2,398.75,0.25,90,111.0
7738,A1,399.0,0.5,76,111.0
7739,A1,399.0,0.5,76,111.0
7740,D2,399.0,1.0,110,111.0
7741,G#2,399.0,0.25,100,111.0
7742,C2,399.0,0.25,85,111.0
7743,G#4,399.25,26/125,127,111.0
7744,A3,399.5,0.5,81,111.0
7745,A3,399.5,0.5,56,111.0
7746,C#4,399.5,1/10,49,111.0
7747,G#1,399.5,0.25,92,111.0
7748,G#1,399.5,0.25,92,111.0
7749,B-2,399.5,0.25,104,111.0
7750,C2,399.5,0.25,90,111.0
7751,E4,399.5,7/40,62,111.0
7752,A3,399.5,7/40,62,111.0
7753,A1,399.75,0.25,73,111.0
7754,A1,399.75,0.25,73,111.0
7755,A4,399.75,183/1000,127,111.0
7756,B1,400.0,0.5,83,111.0
7757,B1,400.0,0.5,83,111.0
7758,D2,400.0,0.75,110,111.0
7759,G#2,400.0,0.25,104,111.0
7760,C2,400.0,0.5,104,111.0
7761,B3,400.0,0.25,107,111.0
7762,F#4,400.0,0.25,107,111.0
7763,D4,400.0,0.25,107,111.0
7764,B3,400.0,0.25,82,111.0
7765,F#4,400.0,0.25,82,111.0
7766,D4,400.0,0.25,82,111.0
7767,B3,400.25,0.25,87,111.0
7768,B3,400.25,0.25,62,111.0
7769,B4,400.25,233/1000,127,111.0
7770,B3,400.5,0.25,63,111.0
7771,B3,400.5,0.25,38,111.0
7772,G#4,400.5,26/125,126,111.0
7773,G#2,400.5,0.25,81,111.0
7774,B3,400.5,1/10,71,111.0
7775,F#4,400.5,1/10,71,111.0
7776,D4,400.5,1/10,71,111.0
7777,B5,400.65,4.0,61,111.0
7778,B3,400.75,0.5,91,111.0
7779,B3,400.75,0.5,66,111.0
7780,B1,400.75,0.75,44,111.0
7781,B1,400.75,0.75,44,111.0
7782,C2,400.75,0.25,83,111.0
7783,F#4,400.75,0.25,112,111.0
7784,D4,400.75,0.25,112,111.0
7785,F#4,400.75,0.25,87,111.0
7786,D4,400.75,0.25,87,111.0
7787,A4,401.0,24/125,127,111.0
7788,D2,401.0,1.75,110,111.0
7789,G#2,401.0,0.25,109,111.0
7790,C2,401.0,0.25,82,111.0
7791,B3,401.25,0.25,79,111.0
7792,B3,401.25,0.25,54,111.0
7793,A1,401.5,0.5,78,111.0
7794,A1,401.5,0.5,78,111.0
7795,B4,401.5,217/1000,127,111.0
7796,G#2,401.5,0.25,84,111.0
7797,C2,401.5,0.25,94,111.0
7798,D4,401.5,0.25,107,111.0
7799,B3,401.5,0.25,107,111.0
7800,F#4,401.5,0.25,107,111.0
7801,D4,401.5,0.25,82,111.0
7802,B3,401.5,0.25,82,111.0
7803,F#4,401.5,0.25,82,111.0
7804,F#4,401.5,3/40,71,111.0
7805,B3,401.5,3/40,71,111.0
7806,D4,401.5,3/40,71,111.0
7807,B1,402.0,0.5,88,111.0
7808,B1,402.0,0.5,88,111.0
7809,G#4,402.0,7/40,127,111.0
7810,G#2,402.0,0.25,114,111.0
7811,C2,402.0,0.5,92,111.0
7812,A4,402.25,24/125,127,111.0
7813,D4,402.5,3/40,85,111.0
7814,G#2,402.5,0.25,79,111.0
7815,F#4,402.5,0.5,102,111.0
7816,D4,402.5,0.5,102,111.0
7817,B3,402.5,0.5,102,111.0
7818,F#4,402.5,0.5,77,111.0
7819,D4,402.5,0.5,77,111.0
7820,B3,402.5,0.5,77,111.0
7821,B3,402.5,117/1000,66,111.0
7822,F#4,402.5,117/1000,66,111.0
7823,B1,402.75,0.25,80,111.0
7824,B1,402.75,0.25,80,111.0
7825,B4,402.75,24/125,127,111.0
7826,C2,402.75,0.25,92,111.0
7827,A1,403.0,0.5,82,111.0
7828,A1,403.0,0.5,82,111.0
7829,D2,403.0,1.0,101,111.0
7830,G#2,403.0,0.25,109,111.0
7831,C2,403.0,0.25,86,111.0
7832,B3,403.033,317/1000,97,111.0
7833,D5,403.25,24/125,127,111.0
7834,B1,403.5,0.5,68,111.0
7835,B1,403.5,0.5,68,111.0
7836,G#2,403.5,0.25,81,111.0
7837,C2,403.5,0.25,85,111.0
7838,B3,403.5,279/500,90,111.0
7839,F#4,403.5,23/250,70,111.0
7840,B3,403.5,23/250,70,111.0
7841,D4,403.5,23/250,70,111.0
7842,D5,403.75,24/125,127,111.0
7843,E4,404.0,0.5,117,111.0
7844,E4,404.0,0.5,92,111.0
7845,E1,404.0,0.5,69,111.0
7846,E1,404.0,0.5,69,111.0
7847,D2,404.0,0.75,101,111.0
7848,G#2,404.0,0.25,109,111.0
7849,C2,404.0,0.5,101,111.0
7850,A4,404.0,0.25,102,111.0
7851,D4,404.0,0.25,102,111.0
7852,A4,404.0,0.25,77,111.0
7853,D4,404.0,0.25,77,111.0
7854,F#4,404.067,1033/1000,109,111.0
7855,B3,404.25,0.25,81,111.0
7856,B3,404.25,0.25,56,111.0
7857,B4,404.25,233/1000,127,111.0
7858,B3,404.5,0.25,84,111.0
7859,B3,404.5,0.25,59,111.0
7860,G#4,404.5,26/125,127,111.0
7861,G#2,404.5,0.25,84,111.0
7862,E4,404.5,79/500,55,111.0
7863,G#4,404.5,79/500,55,111.0
7864,B3,404.5,79/500,55,111.0
7865,B5,404.65,153/40,61,111.0
7866,E1,404.75,0.25,66,111.0
7867,E1,404.75,0.25,66,111.0
7868,C2,404.75,0.25,97,111.0
7869,E4,404.75,0.25,95,111.0
7870,A4,404.75,0.25,95,111.0
7871,D4,404.75,0.25,95,111.0
7872,E4,404.75,0.25,70,111.0
7873,A4,404.75,0.25,70,111.0
7874,D4,404.75,0.25,70,111.0
7875,B3,405.0,0.25,79,111.0
7876,B3,405.0,0.25,54,111.0
7877,F#1,405.0,0.5,109,111.0
7878,F#1,405.0,0.5,109,111.0
7879,A4,405.0,1/5,127,111.0
7880,D2,405.0,1.75,104,111.0
7881,G#2,405.0,0.25,114,111.0
7882,C2,405.0,0.25,79,111.0
7883,B3,405.092,11/20,99,111.0
7884,G#1,405.5,0.5,66,111.0
7885,G#1,405.5,0.5,66,111.0
7886,B4,405.5,121/500,127,111.0
7887,G#2,405.5,0.25,86,111.0
7888,C2,405.5,0.25,94,111.0
7889,G#4,405.5,0.5,109,111.0
7890,E4,405.5,0.5,109,111.0
7891,B3,405.5,0.5,109,111.0
7892,G#4,405.5,0.5,84,111.0
7893,E4,405.5,0.5,84,111.0
7894,B3,405.5,0.5,84,111.0
7895,G#4,405.5,71/500,68,111.0
7896,E4,405.5,71/500,68,111.0
7897,B3,405.5,71/500,68,111.0
7898,D4,405.575,1117/1000,107,111.0
7899,A1,406.0,0.5,83,111.0
7900,A1,406.0,0.5,83,111.0
7901,G#4,406.0,79/500,127,111.0
7902,G#2,406.0,0.25,100,111.0
7903,C2,406.0,0.5,104,111.0
7904,A4,406.25,7/40,127,111.0
7905,G#2,406.5,0.25,92,111.0
7906,B3,406.5,0.5,101,111.0
7907,G#4,406.5,0.5,101,111.0
7908,E4,406.5,0.5,101,111.0
7909,B3,406.5,0.5,76,111.0
7910,G#4,406.5,0.5,76,111.0
7911,E4,406.5,0.5,76,111.0
7912,E4,406.5,3/20,55,111.0
7913,C#4,406.5,3/20,55,111.0
7914,A3,406.5,3/20,55,111.0
7915,E4,406.617,279/500,83,111.0
7916,A1,406.75,0.25,85,111.0
7917,A1,406.75,0.25,85,111.0
7918,B4,406.75,26/125,127,111.0
7919,C2,406.75,0.25,94,111.0
7920,G#1,407.0,0.5,92,111.0
7921,G#1,407.0,0.5,92,111.0
7922,D2,407.0,0.25,113,111.0
7923,G#2,407.0,0.25,89,111.0
7924,C2,407.0,0.25,80,111.0
7925,B3,407.108,271/500,86,111.0
7926,G#4,407.25,183/1000,127,111.0
7927,A1,407.5,0.5,70,111.0
7928,A1,407.5,0.5,70,111.0
7929,D2,407.5,0.25,97,111.0
7930,B-2,407.5,0.25,100,111.0
7931,C2,407.5,0.25,97,111.0
7932,E4,407.5,79/500,56,111.0
7933,C#4,407.5,79/500,56,111.0
7934,A3,407.5,79/500,56,111.0
7935,D4,407.558,467/1000,86,111.0
7936,A4,407.75,79/500,127,111.0
7937,D2,407.75,0.25,83,111.0
7938,B1,408.0,0.5,97,111.0
7939,B1,408.0,0.5,97,111.0
7940,D2,408.0,0.25,83,111.0
7941,F#4,408.0,0.25,103,111.0
7942,D4,408.0,0.25,103,111.0
7943,B3,408.0,0.25,103,111.0
7944,F#4,408.0,0.25,78,111.0
7945,D4,408.0,0.25,78,111.0
7946,B3,408.0,0.25,78,111.0
7947,G#2,408.0,0.25,104,111.0
7948,G#2,408.0,0.25,104,111.0
7949,C2,408.0,0.5,102,111.0
7950,C2,408.0,0.5,102,111.0
7951,F#4,408.042,17/1000,89,111.0
7952,F#4,408.058,4/5,89,111.0
7953,B3,408.25,0.25,91,111.0
7954,B3,408.25,0.25,66,111.0
7955,B4,408.25,24/125,127,111.0
7956,B3,408.5,0.25,61,111.0
7957,B3,408.5,0.25,36,111.0
7958,D4,408.5,1/10,54,111.0
7959,G#4,408.5,7/40,127,111.0
7960,G#2,408.5,0.25,86,111.0
7961,F#4,408.5,79/500,52,111.0
7962,B3,408.5,79/500,52,111.0
7963,B1,408.75,0.25,82,111.0
7964,B1,408.75,0.25,82,111.0
7965,C2,408.75,0.25,76,111.0
7966,F#4,408.75,0.25,98,111.0
7967,D4,408.75,0.25,98,111.0
7968,B3,408.75,0.25,98,111.0
7969,F#4,408.75,0.25,73,111.0
7970,D4,408.75,0.25,73,111.0
7971,B3,408.75,0.25,73,111.0
7972,B3,409.0,0.25,83,111.0
7973,B3,409.0,0.25,58,111.0
7974,B1,409.0,0.5,79,111.0
7975,B1,409.0,0.5,79,111.0
7976,A4,409.0,183/1000,127,111.0
7977,D2,409.0,1.75,120,111.0
7978,G#2,409.0,0.25,100,111.0
7979,C2,409.0,0.25,86,111.0
7980,F#4,409.033,39/40,100,111.0
7981,B3,409.25,0.25,77,111.0
7982,B3,409.25,0.25,52,111.0
7983,A1,409.5,0.5,88,111.0
7984,A1,409.5,0.5,88,111.0
7985,B4,409.5,26/125,127,111.0
7986,G#2,409.5,0.25,92,111.0
7987,C2,409.5,0.25,92,111.0
7988,F#4,409.5,0.25,107,111.0
7989,D4,409.5,0.25,107,111.0
7990,B3,409.5,0.25,107,111.0
7991,F#4,409.5,0.25,82,111.0
7992,D4,409.5,0.25,82,111.0
7993,B3,409.5,0.25,82,111.0
7994,F#4,409.5,117/1000,54,111.0
7995,B3,409.5,117/1000,54,111.0
7996,D4,409.5,117/1000,54,111.0
7997,B1,410.0,0.5,92,111.0
7998,B1,410.0,0.5,92,111.0
7999,G#4,410.0,79/500,127,111.0
8000,G#2,410.0,0.25,100,111.0
8001,C2,410.0,0.5,99,111.0
8002,A4,410.25,79/500,127,111.0
8003,D4,410.5,1/10,66,111.0
8004,G#2,410.5,0.25,86,111.0
8005,F#4,410.5,0.5,99,111.0
8006,D4,410.5,0.5,99,111.0
8007,B3,410.5,0.5,99,111.0
8008,F#4,410.5,0.5,74,111.0
8009,D4,410.5,0.5,74,111.0
8010,B3,410.5,0.5,74,111.0
8011,F#4,410.5,7/40,60,111.0
8012,B3,410.5,7/40,60,111.0
8013,F#4,410.6,633/1000,100,111.0
8014,B1,410.75,0.25,97,111.0
8015,B1,410.75,0.25,97,111.0
8016,B4,410.75,1/5,127,111.0
8017,C2,410.75,0.25,88,111.0
8018,A1,411.0,0.5,104,111.0
8019,A1,411.0,0.5,104,111.0
8020,D2,411.0,1.0,117,111.0
8021,G#2,411.0,0.25,96,111.0
8022,C2,411.0,0.25,66,111.0
8023,E4,411.117,11/20,80,111.0
8024,D5,411.25,7/40,127,111.0
8025,D4,411.5,23/250,80,111.0
8026,B1,411.5,0.5,92,111.0
8027,B1,411.5,0.5,92,111.0
8028,G#2,411.5,0.25,89,111.0
8029,C2,411.5,0.25,94,111.0
8030,F#4,411.5,3/20,72,111.0
8031,B3,411.5,3/20,72,111.0
8032,D4,411.625,433/1000,86,111.0
8033,D5,411.75,183/1000,127,111.0
8034,E1,412.0,0.5,101,111.0
8035,E1,412.0,0.5,101,111.0
8036,D2,412.0,0.75,117,111.0
8037,G#2,412.0,0.25,92,111.0
8038,C2,412.0,0.5,94,111.0
8039,E4,412.0,0.25,100,111.0
8040,B3,412.0,0.25,100,111.0
8041,G#4,412.0,0.25,100,111.0
8042,E4,412.0,0.25,75,111.0
8043,B3,412.0,0.25,75,111.0
8044,G#4,412.0,0.25,75,111.0
8045,D4,412.058,3/20,86,111.0
8046,E4,412.142,271/500,92,111.0
8047,B3,412.25,0.25,93,111.0
8048,B3,412.25,0.25,68,111.0
8049,B4,412.25,1/5,127,111.0
8050,B3,412.5,0.25,74,111.0
8051,B3,412.5,0.25,49,111.0
8052,G#4,412.5,3/20,126,111.0
8053,G#2,412.5,0.25,84,111.0
8054,G#4,412.5,3/20,58,111.0
8055,E4,412.5,3/20,58,111.0
8056,B3,412.5,3/20,58,111.0
8057,D4,412.608,69/20,74,111.0
8058,E1,412.75,0.25,66,111.0
8059,E1,412.75,0.25,66,111.0
8060,C2,412.75,0.25,88,111.0
8061,E4,412.75,0.25,106,111.0
8062,B3,412.75,0.25,106,111.0
8063,G#4,412.75,0.25,106,111.0
8064,E4,412.75,0.25,81,111.0
8065,B3,412.75,0.25,81,111.0
8066,G#4,412.75,0.25,81,111.0
8067,F#1,413.0,0.5,109,111.0
8068,F#1,413.0,0.5,109,111.0
8069,A4,413.0,1/5,127,111.0
8070,D2,413.0,1.75,117,111.0
8071,G#2,413.0,0.25,92,111.0
8072,C2,413.0,0.25,86,111.0
8073,B3,413.25,0.25,79,111.0
8074,B3,413.25,0.25,54,111.0
8075,G#1,413.5,0.5,100,111.0
8076,G#1,413.5,0.5,100,111.0
8077,B4,413.5,233/1000,127,111.0
8078,G#2,413.5,0.25,86,111.0
8079,C2,413.5,0.25,86,111.0
8080,E4,413.5,0.5,100,111.0
8081,A3,413.5,0.5,100,111.0
8082,D4,413.5,0.5,100,111.0
8083,E4,413.5,0.5,75,111.0
8084,A3,413.5,0.5,75,111.0
8085,D4,413.5,0.5,75,111.0
8086,G#4,413.5,1/5,64,111.0
8087,E4,413.5,1/5,64,111.0
8088,B3,413.5,1/5,64,111.0
8089,A1,414.0,0.5,99,111.0
8090,A1,414.0,0.5,99,111.0
8091,G#4,414.0,79/500,127,111.0
8092,G#2,414.0,0.25,100,111.0
8093,C2,414.0,0.5,101,111.0
8094,A4,414.25,167/1000,127,111.0
8095,G#2,414.5,0.25,79,111.0
8096,E4,414.5,0.5,100,111.0
8097,C#4,414.5,0.5,100,111.0
8098,A3,414.5,0.5,100,111.0
8099,E4,414.5,0.5,75,111.0
8100,C#4,414.5,0.5,75,111.0
8101,A3,414.5,0.5,75,111.0
8102,A3,414.5,133/1000,63,111.0
8103,E4,414.5,133/1000,63,111.0
8104,C#4,414.5,133/1000,63,111.0
8105,A1,414.75,0.25,80,111.0
8106,A1,414.75,0.25,80,111.0
8107,B4,414.75,1/5,127,111.0
8108,C2,414.75,0.25,86,111.0
8109,A1,415.0,0.5,75,111.0
8110,A1,415.0,0.5,75,111.0
8111,D2,415.0,1.0,110,111.0
8112,G#2,415.0,0.25,100,111.0
8113,C2,415.0,0.25,80,111.0
8114,G#4,415.25,183/1000,127,111.0
8115,A3,415.5,0.5,81,111.0
8116,A3,415.5,0.5,56,111.0
8117,G#1,415.5,0.25,109,111.0
8118,G#1,415.5,0.25,109,111.0
8119,G#2,415.5,0.25,92,111.0
8120,C2,415.5,0.25,101,111.0
8121,E4,415.5,1/10,58,111.0
8122,A3,415.5,1/10,58,111.0
8123,C#4,415.5,1/10,58,111.0
8124,A1,415.75,0.25,80,111.0
8125,A1,415.75,0.25,80,111.0
8126,A4,415.75,1/5,127,111.0
8127,B1,416.0,0.5,79,111.0
8128,B1,416.0,0.5,79,111.0
8129,D2,416.0,0.75,110,111.0
8130,G#2,416.0,0.25,100,111.0
8131,C2,416.0,0.5,104,111.0
8132,B3,416.0,0.25,107,111.0
8133,F#4,416.0,0.25,107,111.0
8134,D4,416.0,0.25,107,111.0
8135,B3,416.0,0.25,82,111.0
8136,F#4,416.0,0.25,82,111.0
8137,D4,416.0,0.25,82,111.0
8138,D4,416.058,1983/1000,74,111.0
8139,B3,416.25,0.25,87,111.0
8140,B3,416.25,0.25,62,111.0
8141,B4,416.25,26/125,127,111.0
8142,B3,416.5,0.25,63,111.0
8143,B3,416.5,0.25,38,111.0
8144,G#4,416.5,26/125,127,111.0
8145,G#2,416.5,0.25,84,111.0
8146,F#4,416.5,133/1000,53,111.0
8147,B3,416.5,133/1000,53,111.0
8148,D4,416.5,133/1000,53,111.0
8149,B3,416.75,0.5,91,111.0
8150,B3,416.75,0.5,66,111.0
8151,B1,416.75,0.25,71,111.0
8152,B1,416.75,0.25,71,111.0
8153,C2,416.75,0.25,74,111.0
8154,F#4,416.75,0.25,112,111.0
8155,D4,416.75,0.25,112,111.0
8156,F#4,416.75,0.25,87,111.0
8157,D4,416.75,0.25,87,111.0
8158,B1,417.0,0.5,67,111.0
8159,B1,417.0,0.5,67,111.0
8160,A4,417.0,183/1000,127,111.0
8161,D2,417.0,1.75,113,111.0
8162,G#2,417.0,0.25,96,111.0
8163,C2,417.0,0.25,88,111.0
8164,B3,417.25,0.25,79,111.0
8165,B3,417.25,0.25,54,111.0
8166,A1,417.5,0.5,90,111.0
8167,A1,417.5,0.5,90,111.0
8168,B4,417.5,217/1000,127,111.0
8169,G#2,417.5,0.25,96,111.0
8170,C2,417.5,0.25,99,111.0
8171,D4,417.5,0.25,107,111.0
8172,B3,417.5,0.25,107,111.0
8173,F#4,417.5,0.25,107,111.0
8174,D4,417.5,0.25,82,111.0
8175,B3,417.5,0.25,82,111.0
8176,F#4,417.5,0.25,82,111.0
8177,F#4,417.5,1/10,63,111.0
8178,B3,417.5,1/10,63,111.0
8179,D4,417.5,1/10,63,111.0
8180,B1,418.0,0.5,80,111.0
8181,B1,418.0,0.5,80,111.0
8182,G#4,418.0,167/1000,127,111.0
8183,G#2,418.0,0.25,89,111.0
8184,C2,418.0,0.5,101,111.0
8185,A4,418.25,3/20,127,111.0
8186,D4,418.5,27/250,64,111.0
8187,G#2,418.5,0.25,79,111.0
8188,F#4,418.5,0.5,102,111.0
8189,D4,418.5,0.5,102,111.0
8190,B3,418.5,0.5,102,111.0
8191,F#4,418.5,0.5,77,111.0
8192,D4,418.5,0.5,77,111.0
8193,B3,418.5,0.5,77,111.0
8194,F#4,418.5,1/5,58,111.0
8195,B3,418.5,1/5,58,111.0
8196,F#4,418.583,279/500,96,111.0
8197,B1,418.75,0.25,80,111.0
8198,B1,418.75,0.25,80,111.0
8199,B4,418.75,1/5,127,111.0
8200,C2,418.75,0.25,85,111.0
8201,A1,419.0,0.5,97,111.0
8202,A1,419.0,0.5,97,111.0
8203,D2,419.0,1.0,120,111.0
8204,G#2,419.0,0.25,89,111.0
8205,E4,419.075,517/1000,92,111.0
8206,D5,419.25,133/1000,127,111.0
8207,C2,419.25,0.25,72,111.0
8208,D4,419.5,27/250,72,111.0
8209,B1,419.5,0.5,83,111.0
8210,B1,419.5,0.5,83,111.0
8211,G#2,419.5,0.25,84,111.0
8212,C2,419.5,0.25,68,111.0
8213,B3,419.5,133/1000,62,111.0
8214,F#4,419.5,133/1000,62,111.0
8215,D4,419.567,11/40,101,111.0
8216,D5,419.75,3/20,127,111.0
8217,E4,419.8,129/500,82,111.0
8218,E4,420.0,0.5,117,111.0
8219,E4,420.0,0.5,92,111.0
8220,E1,420.0,0.5,104,111.0
8221,E1,420.0,0.5,104,111.0
8222,D2,420.0,0.75,120,111.0
8223,G#2,420.0,0.25,86,111.0
8224,C2,420.0,0.5,97,111.0
8225,A4,420.0,0.25,102,111.0
8226,D4,420.0,0.25,102,111.0
8227,A4,420.0,0.25,77,111.0
8228,D4,420.0,0.25,77,111.0
8229,E4,420.058,417/1000,82,111.0
8230,B3,420.25,0.25,81,111.0
8231,B3,420.25,0.25,56,111.0
8232,B4,420.25,217/1000,127,111.0
8233,D4,420.433,3.625,92,111.0
8234,B3,420.5,0.25,84,111.0
8235,B3,420.5,0.25,59,111.0
8236,G#4,420.5,9/40,127,111.0
8237,G#2,420.5,0.25,81,111.0
8238,G#4,420.5,183/1000,55,111.0
8239,E4,420.5,183/1000,55,111.0
8240,B3,420.5,183/1000,55,111.0
8241,E1,420.75,0.25,62,111.0
8242,E1,420.75,0.25,62,111.0
8243,C2,420.75,0.25,88,111.0
8244,E4,420.75,0.25,95,111.0
8245,A4,420.75,0.25,95,111.0
8246,D4,420.75,0.25,95,111.0
8247,E4,420.75,0.25,70,111.0
8248,A4,420.75,0.25,70,111.0
8249,D4,420.75,0.25,70,111.0
8250,B3,421.0,0.25,79,111.0
8251,B3,421.0,0.25,54,111.0
8252,F#1,421.0,0.5,119,111.0
8253,F#1,421.0,0.5,119,111.0
8254,A4,421.0,24/125,127,111.0
8255,D2,421.0,1.75,110,111.0
8256,G#2,421.0,0.25,89,111.0
8257,C2,421.0,0.25,72,111.0
8258,G#1,421.5,0.5,100,111.0
8259,G#1,421.5,0.5,100,111.0
8260,B4,421.5,121/500,127,111.0
8261,G#2,421.5,0.25,84,111.0
8262,C2,421.5,0.25,88,111.0
8263,G#4,421.5,0.5,109,111.0
8264,E4,421.5,0.5,109,111.0
8265,B3,421.5,0.5,109,111.0
8266,G#4,421.5,0.5,84,111.0
8267,E4,421.5,0.5,84,111.0
8268,B3,421.5,0.5,84,111.0
8269,G#4,421.5,183/1000,61,111.0
8270,E4,421.5,183/1000,61,111.0
8271,B3,421.5,183/1000,61,111.0
8272,A1,422.0,0.5,94,111.0
8273,A1,422.0,0.5,94,111.0
8274,G#4,422.0,7/40,127,111.0
8275,G#2,422.0,0.25,89,111.0
8276,C2,422.0,0.5,101,111.0
8277,A4,422.25,183/1000,127,111.0
8278,G#2,422.5,0.25,77,111.0
8279,B3,422.5,0.5,101,111.0
8280,G#4,422.5,0.5,101,111.0
8281,E4,422.5,0.5,101,111.0
8282,B3,422.5,0.5,76,111.0
8283,G#4,422.5,0.5,76,111.0
8284,E4,422.5,0.5,76,111.0
8285,E4,422.5,167/1000,58,111.0
8286,C#4,422.5,167/1000,58,111.0
8287,A3,422.5,167/1000,58,111.0
8288,A1,422.75,0.25,88,111.0
8289,A1,422.75,0.25,88,111.0
8290,B4,422.75,1/5,127,111.0
8291,C2,422.75,0.25,73,111.0
8292,A1,423.0,0.5,71,111.0
8293,A1,423.0,0.5,71,111.0
8294,D2,423.0,0.25,101,111.0
8295,G#2,423.0,0.25,79,111.0
8296,C2,423.0,0.25,78,111.0
8297,G#4,423.25,183/1000,127,111.0
8298,G#1,423.5,0.25,104,111.0
8299,G#1,423.5,0.25,104,111.0
8300,D2,423.5,0.25,99,111.0
8301,G#2,423.5,0.25,86,111.0
8302,C2,423.5,0.25,97,111.0
8303,E4,423.5,7/40,60,111.0
8304,C#4,423.5,7/40,60,111.0
8305,A3,423.5,7/40,60,111.0
8306,A1,423.75,0.25,82,111.0
8307,A1,423.75,0.25,82,111.0
8308,A4,423.75,79/500,127,111.0
8309,D2,423.75,0.25,74,111.0
8310,B1,424.0,0.5,78,111.0
8311,B1,424.0,0.5,78,111.0
8312,D2,424.0,0.5,74,111.0
8313,G#2,424.0,0.25,81,111.0
8314,C2,424.0,0.5,99,111.0
8315,F#4,424.0,0.25,96,111.0
8316,B3,424.0,0.25,96,111.0
8317,D4,424.0,0.25,96,111.0
8318,F#4,424.0,0.25,71,111.0
8319,B3,424.0,0.25,71,111.0
8320,D4,424.0,0.25,71,111.0
8321,D4,424.058,1121/500,92,111.0
8322,B3,424.25,0.25,91,111.0
8323,B3,424.25,0.25,66,111.0
8324,B4,424.25,26/125,127,111.0
8325,B3,424.5,0.25,71,111.0
8326,B3,424.5,0.25,46,111.0
8327,G#4,424.5,1/5,127,111.0
8328,G#2,424.5,0.25,84,111.0
8329,F#4,424.5,133/1000,59,111.0
8330,B3,424.5,133/1000,59,111.0
8331,D4,424.5,133/1000,59,111.0
8332,B1,424.75,0.25,75,111.0
8333,B1,424.75,0.25,75,111.0
8334,C2,424.75,0.25,82,111.0
8335,D4,424.75,0.25,104,111.0
8336,F#4,424.75,0.25,104,111.0
8337,B3,424.75,0.25,104,111.0
8338,D4,424.75,0.25,79,111.0
8339,F#4,424.75,0.25,79,111.0
8340,B3,424.75,0.25,79,111.0
8341,B1,425.0,0.5,67,111.0
8342,B1,425.0,0.5,67,111.0
8343,A4,425.0,24/125,127,111.0
8344,D2,425.0,1.75,123,111.0
8345,G#2,425.0,0.25,86,111.0
8346,C2,425.0,0.25,88,111.0
8347,B3,425.25,0.25,77,111.0
8348,B3,425.25,0.25,52,111.0
8349,A1,425.5,0.5,86,111.0
8350,A1,425.5,0.5,86,111.0
8351,B4,425.5,1/5,127,111.0
8352,G#2,425.5,0.25,84,111.0
8353,C2,425.5,0.25,85,111.0
8354,F#4,425.5,0.25,105,111.0
8355,D4,425.5,0.25,105,111.0
8356,B3,425.5,0.25,105,111.0
8357,F#4,425.5,0.25,80,111.0
8358,D4,425.5,0.25,80,111.0
8359,B3,425.5,0.25,80,111.0
8360,F#4,425.5,133/1000,56,111.0
8361,B3,425.5,133/1000,56,111.0
8362,D4,425.5,133/1000,56,111.0
8363,B1,426.0,0.5,92,111.0
8364,B1,426.0,0.5,92,111.0
8365,G#4,426.0,7/40,127,111.0
8366,G#2,426.0,0.25,86,111.0
8367,C2,426.0,0.5,107,111.0
8368,A4,426.25,183/1000,127,111.0
8369,B3,426.5,0.5,99,111.0
8370,B3,426.5,0.5,74,111.0
8371,G#2,426.5,0.25,77,111.0
8372,F#4,426.5,0.25,111,111.0
8373,D4,426.5,0.25,111,111.0
8374,F#4,426.5,0.25,86,111.0
8375,D4,426.5,0.25,86,111.0
8376,F#4,426.5,117/1000,66,111.0
8377,B3,426.5,117/1000,66,111.0
8378,D4,426.5,117/1000,66,111.0
8379,F#4,426.567,271/500,89,111.0
8380,B1,426.75,0.5,86,111.0
8381,B1,426.75,0.5,86,111.0
8382,B4,426.75,217/1000,127,111.0
8383,C2,426.75,0.25,66,111.0
8384,A1,427.0,0.5,86,111.0
8385,A1,427.0,0.5,86,111.0
8386,D2,427.0,1.0,110,111.0
8387,G#2,427.0,0.25,81,111.0
8388,C2,427.0,0.25,71,111.0
8389,E4,427.05,279/500,73,111.0
8390,D5,427.25,3/20,127,111.0
8391,B1,427.5,0.5,94,111.0
8392,B1,427.5,0.5,94,111.0
8393,G#2,427.5,0.25,86,111.0
8394,C2,427.5,0.25,85,111.0
8395,F#4,427.5,7/40,69,111.0
8396,D4,427.5,7/40,69,111.0
8397,B3,427.5,7/40,69,111.0
8398,D4,427.583,317/1000,63,111.0
8399,D5,427.75,26/125,127,111.0
8400,E4,427.825,233/1000,57,111.0
8401,E1,428.0,0.5,67,111.0
8402,E1,428.0,0.5,67,111.0
8403,D2,428.0,0.75,110,111.0
8404,G#2,428.0,0.25,81,111.0
8405,C2,428.0,0.5,101,111.0
8406,E4,428.0,0.25,108,111.0
8407,B3,428.0,0.25,108,111.0
8408,G#4,428.0,0.25,108,111.0
8409,E4,428.0,0.25,83,111.0
8410,B3,428.0,0.25,83,111.0
8411,G#4,428.0,0.25,83,111.0
8412,E4,428.058,0.5,57,111.0
8413,B3,428.25,0.25,93,111.0
8414,B3,428.25,0.25,68,111.0
8415,B4,428.25,9/40,127,111.0
8416,B3,428.5,0.25,66,111.0
8417,B3,428.5,0.25,41,111.0
8418,G#4,428.5,26/125,127,111.0
8419,G#2,428.5,0.25,75,111.0
8420,E4,428.5,79/500,60,111.0
8421,G#4,428.5,79/500,60,111.0
8422,B3,428.5,79/500,60,111.0
8423,D4,428.542,3517/1000,57,111.0
8424,E1,428.75,0.25,60,111.0
8425,E1,428.75,0.25,60,111.0
8426,C2,428.75,0.25,82,111.0
8427,E4,428.75,0.25,97,111.0
8428,B3,428.75,0.25,97,111.0
8429,G#4,428.75,0.25,97,111.0
8430,E4,428.75,0.25,72,111.0
8431,B3,428.75,0.25,72,111.0
8432,G#4,428.75,0.25,72,111.0
8433,F#1,429.0,0.5,114,111.0
8434,F#1,429.0,0.5,114,111.0
8435,A4,429.0,1/5,127,111.0
8436,D2,429.0,1.75,113,111.0
8437,G#2,429.0,0.25,86,111.0
8438,C2,429.0,0.25,86,111.0
8439,B3,429.25,0.25,79,111.0
8440,B3,429.25,0.25,54,111.0
8441,A3,429.5,0.25,93,111.0
8442,A3,429.5,0.25,68,111.0
8443,G#1,429.5,0.5,92,111.0
8444,G#1,429.5,0.5,92,111.0
8445,B4,429.5,0.25,127,111.0
8446,G#2,429.5,0.25,58,111.0
8447,C2,429.5,0.25,97,111.0
8448,E4,429.5,0.5,96,111.0
8449,D4,429.5,0.5,96,111.0
8450,E4,429.5,0.5,70,111.0
8451,D4,429.5,0.5,70,111.0
8452,G#4,429.5,167/1000,68,111.0
8453,E4,429.5,167/1000,68,111.0
8454,B3,429.5,167/1000,68,111.0
8455,A1,430.0,0.5,92,111.0
8456,A1,430.0,0.5,92,111.0
8457,G#4,430.0,71/500,127,111.0
8458,G#2,430.0,0.25,89,111.0
8459,C2,430.0,0.5,99,111.0
8460,A4,430.25,167/1000,127,111.0
8461,G#2,430.5,0.25,86,111.0
8462,E4,430.5,0.75,92,111.0
8463,C#4,430.5,0.75,92,111.0
8464,A3,430.5,0.75,92,111.0
8465,E4,430.5,0.75,67,111.0
8466,C#4,430.5,0.75,67,111.0
8467,A3,430.5,0.75,67,111.0
8468,E4,430.5,79/500,64,111.0
8469,C#4,430.5,79/500,64,111.0
8470,A3,430.5,79/500,64,111.0
8471,A1,430.75,0.25,82,111.0
8472,A1,430.75,0.25,82,111.0
8473,B4,430.75,9/40,127,111.0
8474,C2,430.75,0.25,88,111.0
8475,A1,431.0,0.5,62,111.0
8476,A1,431.0,0.5,62,111.0
8477,D2,431.0,1.0,110,111.0
8478,G#2,431.0,0.25,81,111.0
8479,C2,431.0,0.25,85,111.0
8480,G#4,431.25,24/125,127,111.0
8481,A3,431.5,0.25,76,111.0
8482,A3,431.5,0.25,51,111.0
8483,C#4,431.5,1/10,49,111.0
8484,G#1,431.5,0.25,104,111.0
8485,G#1,431.5,0.25,104,111.0
8486,G#2,431.5,0.25,92,111.0
8487,C2,431.5,0.25,99,111.0
8488,E4,431.5,7/40,62,111.0
8489,A3,431.5,7/40,62,111.0
8490,A1,431.75,0.25,88,111.0
8491,A1,431.75,0.25,88,111.0
8492,A4,431.75,24/125,127,111.0
8493,B1,432.0,0.5,74,111.0
8494,B1,432.0,0.5,74,111.0
8495,D2,432.0,0.75,110,111.0
8496,G#2,432.0,0.25,114,111.0
8497,C2,432.0,0.5,90,111.0
8498,F#4,432.0,0.25,100,111.0
8499,B3,432.0,0.25,100,111.0
8500,D4,432.0,0.25,100,111.0
8501,F#4,432.0,0.25,75,111.0
8502,B3,432.0,0.25,75,111.0
8503,D4,432.0,0.25,75,111.0
8504,D4,432.058,51/20,57,111.0
8505,B3,432.25,0.25,83,111.0
8506,B3,432.25,0.25,58,111.0
8507,B4,432.25,217/1000,127,111.0
8508,B3,432.5,0.25,58,111.0
8509,B3,432.5,0.25,33,111.0
8510,G#4,432.5,233/1000,127,111.0
8511,G#2,432.5,0.25,68,111.0
8512,B3,432.5,1/10,71,111.0
8513,F#4,432.5,1/10,71,111.0
8514,D4,432.5,1/10,71,111.0
8515,B1,432.75,0.25,79,111.0
8516,B1,432.75,0.25,79,111.0
8517,C2,432.75,0.25,74,111.0
8518,F#4,432.75,0.25,99,111.0
8519,D4,432.75,0.25,99,111.0
8520,B3,432.75,0.25,99,111.0
8521,F#4,432.75,0.25,74,111.0
8522,D4,432.75,0.25,74,111.0
8523,B3,432.75,0.25,74,111.0
8524,B1,433.0,0.5,66,111.0
8525,B1,433.0,0.5,66,111.0
8526,A4,433.0,217/1000,127,111.0
8527,D2,433.0,1.75,107,111.0
8528,G#2,433.0,0.25,109,111.0
8529,C2,433.0,0.25,83,111.0
8530,B3,433.25,0.25,78,111.0
8531,B3,433.25,0.25,53,111.0
8532,A1,433.5,0.5,85,111.0
8533,A1,433.5,0.5,85,111.0
8534,B4,433.5,11/40,127,111.0
8535,G#2,433.5,0.25,53,111.0
8536,C2,433.5,0.25,90,111.0
8537,F#4,433.5,0.25,103,111.0
8538,D4,433.5,0.25,103,111.0
8539,B3,433.5,0.25,103,111.0
8540,F#4,433.5,0.25,78,111.0
8541,D4,433.5,0.25,78,111.0
8542,B3,433.5,0.25,78,111.0
8543,F#4,433.5,3/40,71,111.0
8544,B3,433.5,3/40,71,111.0
8545,D4,433.5,3/40,71,111.0
8546,B1,434.0,0.5,86,111.0
8547,B1,434.0,0.5,86,111.0
8548,G#4,434.0,7/40,127,111.0
8549,G#2,434.0,0.25,104,111.0
8550,C2,434.0,0.5,90,111.0
8551,A4,434.25,183/1000,127,111.0
8552,D4,434.5,3/40,85,111.0
8553,G#2,434.5,0.25,79,111.0
8554,F#4,434.5,0.25,104,111.0
8555,B3,434.5,0.25,104,111.0
8556,D4,434.5,0.25,104,111.0
8557,F#4,434.5,0.25,79,111.0
8558,B3,434.5,0.25,79,111.0
8559,D4,434.5,0.25,79,111.0
8560,B3,434.5,117/1000,66,111.0
8561,F#4,434.5,117/1000,66,111.0
8562,F#4,434.558,667/1000,44,111.0
8563,B1,434.75,0.25,80,111.0
8564,B1,434.75,0.25,80,111.0
8565,B4,434.75,0.25,127,111.0
8566,C2,434.75,0.25,62,111.0
8567,A1,435.0,0.5,94,111.0
8568,A1,435.0,0.5,94,111.0
8569,D2,435.0,1.0,113,111.0
8570,G#2,435.0,0.25,109,111.0
8571,C2,435.0,0.25,88,111.0
8572,E4,435.15,127/250,53,111.0
8573,D5,435.25,9/40,127,111.0
8574,B1,435.5,0.5,92,111.0
8575,B1,435.5,0.5,92,111.0
8576,G#2,435.5,0.25,73,111.0
8577,C2,435.5,0.25,78,111.0
8578,F#4,435.5,23/250,70,111.0
8579,B3,435.5,23/250,70,111.0
8580,D4,435.5,23/250,70,111.0
8581,D4,435.583,77/250,47,111.0
8582,D5,435.75,233/1000,127,111.0
8583,E4,435.842,217/1000,58,111.0
8584,E1,436.0,0.5,94,111.0
8585,E1,436.0,0.5,94,111.0
8586,D2,436.0,0.75,113,111.0
8587,G#2,436.0,0.25,109,111.0
8588,C2,436.0,0.5,97,111.0
8589,G#4,436.0,0.25,89,111.0
8590,E4,436.0,0.25,89,111.0
8591,A4,436.0,0.25,89,111.0
8592,G#4,436.0,0.25,64,111.0
8593,E4,436.0,0.25,64,111.0
8594,A4,436.0,0.25,64,111.0
8595,E4,436.058,279/500,58,111.0
8596,B4,436.25,26/125,127,111.0
8597,D4,436.25,0.25,48,111.0
8598,B3,436.25,0.25,48,111.0
8599,D4,436.25,0.25,23,111.0
8600,B3,436.25,0.25,23,111.0
8601,B3,436.5,0.25,78,111.0
8602,B3,436.5,0.25,53,111.0
8603,G#4,436.5,0.25,127,111.0
8604,G#2,436.5,0.25,73,111.0
8605,E4,436.5,79/500,55,111.0
8606,G#4,436.5,79/500,55,111.0
8607,B3,436.5,79/500,55,111.0
8608,D4,436.583,139/40,50,111.0
8609,E1,436.75,0.25,61,111.0
8610,E1,436.75,0.25,61,111.0
8611,C2,436.75,0.25,70,111.0
8612,E4,436.75,0.25,93,111.0
8613,D4,436.75,0.25,93,111.0
8614,A4,436.75,0.25,93,111.0
8615,E4,436.75,0.25,68,111.0
8616,D4,436.75,0.25,68,111.0
8617,A4,436.75,0.25,68,111.0
8618,B3,437.0,0.25,80,111.0
8619,B3,437.0,0.25,55,111.0
8620,F#1,437.0,0.5,114,111.0
8621,F#1,437.0,0.5,114,111.0
8622,A4,437.0,233/1000,127,111.0
8623,D2,437.0,1.75,104,111.0
8624,G#2,437.0,0.25,114,111.0
8625,C2,437.0,0.25,92,111.0
8626,B3,437.25,0.25,72,111.0
8627,B3,437.25,0.25,47,111.0
8628,G#1,437.5,0.5,96,111.0
8629,G#1,437.5,0.5,96,111.0
8630,B4,437.5,0.25,127,111.0
8631,G#2,437.5,0.25,84,111.0
8632,C2,437.5,0.25,90,111.0
8633,E4,437.5,0.5,92,111.0
8634,G#4,437.5,0.5,92,111.0
8635,B3,437.5,0.5,92,111.0
8636,E4,437.5,0.5,67,111.0
8637,G#4,437.5,0.5,67,111.0
8638,B3,437.5,0.5,67,111.0
8639,G#4,437.5,71/500,68,111.0
8640,E4,437.5,71/500,68,111.0
8641,B3,437.5,71/500,68,111.0
8642,A1,438.0,0.5,101,111.0
8643,A1,438.0,0.5,101,111.0
8644,G#4,438.0,167/1000,127,111.0
8645,G#2,438.0,0.25,104,111.0
8646,C2,438.0,0.5,101,111.0
8647,A4,438.25,167/1000,127,111.0
8648,G#2,438.5,0.25,100,111.0
8649,B3,438.5,0.5,109,111.0
8650,G#4,438.5,0.5,109,111.0
8651,E4,438.5,0.5,109,111.0
8652,B3,438.5,0.5,84,111.0
8653,G#4,438.5,0.5,84,111.0
8654,E4,438.5,0.5,84,111.0
8655,E4,438.5,3/20,55,111.0
8656,C#4,438.5,3/20,55,111.0
8657,A3,438.5,3/20,55,111.0
8658,A1,438.75,0.25,76,111.0
8659,A1,438.75,0.25,76,111.0
8660,B4,438.75,233/1000,127,111.0
8661,C2,438.75,0.25,72,111.0
8662,A1,439.0,0.25,75,111.0
8663,G#1,439.0,0.5,100,111.0
8664,A1,439.0,0.25,75,111.0
8665,G#1,439.0,0.5,100,111.0
8666,D2,439.0,1.0,90,111.0
8667,G#2,439.0,0.25,119,111.0
8668,C2,439.0,0.25,85,111.0
8669,G#4,439.25,9/40,127,111.0
8670,A1,439.5,0.5,73,111.0
8671,A1,439.5,0.5,73,111.0
8672,B-2,439.5,0.25,114,111.0
8673,C2,439.5,0.25,83,111.0
8674,E4,439.5,79/500,56,111.0
8675,C#4,439.5,79/500,56,111.0
8676,A3,439.5,79/500,56,111.0
8677,A4,439.75,217/1000,127,111.0
8678,B1,440.0,0.5,83,111.0
8679,B1,440.0,0.5,83,111.0
8680,D2,440.0,0.75,90,111.0
8681,G#2,440.0,0.25,114,111.0
8682,C2,440.0,0.5,83,111.0
8683,F#4,440.0,0.25,107,111.0
8684,B3,440.0,0.25,107,111.0
8685,D4,440.0,0.25,107,111.0
8686,F#4,440.0,0.25,82,111.0
8687,B3,440.0,0.25,82,111.0
8688,D4,440.0,0.25,82,111.0
8689,D4,440.058,4.0,50,111.0
8690,B3,440.25,0.25,87,111.0
8691,B3,440.25,0.25,62,111.0
8692,B4,440.25,121/500,127,111.0
8693,B3,440.5,0.25,71,111.0
8694,B3,440.5,0.25,46,111.0
8695,G#4,440.5,233/1000,114,111.0
8696,G#2,440.5,0.25,92,111.0
8697,B1,440.75,0.25,83,111.0
8698,B1,440.75,0.25,83,111.0
8699,C2,440.75,0.25,76,111.0
8700,B3,440.75,0.25,101,111.0
8701,F#4,440.75,0.25,101,111.0
8702,D4,440.75,0.25,101,111.0
8703,B3,440.75,0.25,76,111.0
8704,F#4,440.75,0.25,76,111.0
8705,D4,440.75,0.25,76,111.0
8706,B3,441.0,0.25,84,111.0
8707,B3,441.0,0.25,59,111.0
8708,A4,441.0,26/125,127,111.0
8709,D2,441.0,1.75,92,111.0
8710,G#2,441.0,0.25,124,111.0
8711,C2,441.0,0.25,83,111.0
8712,B3,441.25,0.25,77,111.0
8713,B3,441.25,0.25,52,111.0
8714,B1,441.25,0.25,75,111.0
8715,B1,441.25,0.25,75,111.0
8716,A1,441.5,0.5,70,111.0
8717,A1,441.5,0.5,70,111.0
8718,B4,441.5,9/40,127,111.0
8719,G#2,441.5,0.25,100,111.0
8720,C2,441.5,0.25,85,111.0
8721,F#4,441.5,0.25,109,111.0
8722,B3,441.5,0.25,109,111.0
8723,D4,441.5,0.25,109,111.0
8724,F#4,441.5,0.25,84,111.0
8725,B3,441.5,0.25,84,111.0
8726,D4,441.5,0.25,84,111.0
8727,B1,442.0,0.75,99,111.0
8728,B1,442.0,0.75,99,111.0
8729,G#4,442.0,7/40,127,111.0
8730,G#2,442.0,0.25,119,111.0
8731,C2,442.0,0.5,94,111.0
8732,A4,442.25,1/5,127,111.0
8733,G#2,442.5,0.25,92,111.0
8734,F#4,442.5,0.25,105,111.0
8735,B3,442.5,0.25,105,111.0
8736,D4,442.5,0.25,105,111.0
8737,F#4,442.5,0.25,80,111.0
8738,B3,442.5,0.25,80,111.0
8739,D4,442.5,0.25,80,111.0
8740,B1,442.75,0.25,78,111.0
8741,B1,442.75,0.25,78,111.0
8742,B4,442.75,9/40,127,111.0
8743,C2,442.75,0.25,94,111.0
8744,A1,443.0,0.5,101,111.0
8745,A1,443.0,0.5,101,111.0
8746,D2,443.0,1.0,99,111.0
8747,G#2,443.0,0.25,114,111.0
8748,C2,443.0,0.25,82,111.0
8749,D5,443.25,79/500,127,111.0
8750,B1,443.5,0.5,97,111.0
8751,B1,443.5,0.5,97,111.0
8752,G#2,443.5,0.25,96,111.0
8753,C2,443.5,0.25,85,111.0
8754,D5,443.75,183/1000,127,111.0
8755,E1,444.0,0.5,99,111.0
8756,E1,444.0,0.5,99,111.0
8757,D2,444.0,0.75,99,111.0
8758,G#2,444.0,0.25,119,111.0
8759,C2,444.0,0.5,97,111.0
8760,E4,444.0,0.25,109,111.0
8761,B3,444.0,0.25,109,111.0
8762,G#4,444.0,0.25,109,111.0
8763,E4,444.0,0.25,84,111.0
8764,B3,444.0,0.25,84,111.0
8765,G#4,444.0,0.25,84,111.0
8766,D4,444.058,67/1000,50,111.0
8767,B3,444.25,0.25,87,111.0
8768,B3,444.25,0.25,62,111.0
8769,B4,444.25,26/125,127,111.0
8770,B3,444.5,0.25,67,111.0
8771,B3,444.5,0.25,42,111.0
8772,G#4,444.5,283/1000,111,111.0
8773,G#2,444.5,0.25,81,111.0
8774,E1,444.75,0.25,65,111.0
8775,E1,444.75,0.25,65,111.0
8776,C2,444.75,0.25,80,111.0
8777,E4,444.75,0.25,98,111.0
8778,B3,444.75,0.25,98,111.0
8779,G#4,444.75,0.25,98,111.0
8780,E4,444.75,0.25,73,111.0
8781,B3,444.75,0.25,73,111.0
8782,G#4,444.75,0.25,73,111.0
8783,F#1,445.0,0.5,114,111.0
8784,F#1,445.0,0.5,114,111.0
8785,A4,445.0,183/1000,127,111.0
8786,D2,445.0,1.75,110,111.0
8787,G#2,445.0,0.25,119,111.0
8788,C2,445.0,0.25,79,111.0
8789,B3,445.25,0.25,79,111.0
8790,B3,445.25,0.25,54,111.0
8791,G#1,445.5,0.5,89,111.0
8792,G#1,445.5,0.5,89,111.0
8793,B4,445.5,9/40,127,111.0
8794,G#2,445.5,0.25,96,111.0
8795,C2,445.5,0.25,85,111.0
8796,A3,445.5,0.5,101,111.0
8797,E4,445.5,0.5,101,111.0
8798,D4,445.5,0.5,101,111.0
8799,A3,445.5,0.5,76,111.0
8800,E4,445.5,0.5,76,111.0
8801,D4,445.5,0.5,76,111.0
8802,A1,446.0,0.5,80,111.0
8803,A1,446.0,0.5,80,111.0
8804,G#4,446.0,167/1000,127,111.0
8805,G#2,446.0,0.25,100,111.0
8806,C2,446.0,0.5,97,111.0
8807,A4,446.25,167/1000,127,111.0
8808,B-2,446.5,0.25,109,111.0
8809,C#4,446.5,0.5,93,111.0
8810,E4,446.5,0.5,93,111.0
8811,A3,446.5,0.5,93,111.0
8812,C#4,446.5,0.5,68,111.0
8813,E4,446.5,0.5,68,111.0
8814,A3,446.5,0.5,68,111.0
8815,A1,446.75,0.25,90,111.0
8816,A1,446.75,0.25,90,111.0
8817,B4,446.75,26/125,127,111.0
8818,C2,446.75,0.25,79,111.0
8819,G#1,447.0,0.5,109,111.0
8820,G#1,447.0,0.5,109,111.0
8821,D2,447.0,0.25,113,111.0
8822,G#2,447.0,0.25,109,111.0
8823,C2,447.0,0.25,85,111.0
8824,G#4,447.25,183/1000,127,111.0
8825,A3,447.5,0.25,81,111.0
8826,A3,447.5,0.25,56,111.0
8827,A1,447.5,0.5,90,111.0
8828,A1,447.5,0.5,90,111.0
8829,D2,447.5,0.25,88,111.0
8830,B-2,447.5,0.25,89,111.0
8831,C2,447.5,0.25,85,111.0
8832,A4,447.75,79/500,127,111.0
8833,D2,447.75,0.25,76,111.0
8834,B1,448.0,0.5,72,111.0
8835,B1,448.0,0.5,72,111.0
8836,D2,448.0,0.75,76,111.0
8837,G#2,448.0,0.25,100,111.0
8838,C2,448.0,0.5,99,111.0
8839,F#4,448.0,0.25,106,111.0
8840,D4,448.0,0.25,106,111.0
8841,B3,448.0,0.25,106,111.0
8842,F#4,448.0,0.25,81,111.0
8843,D4,448.0,0.25,81,111.0
8844,B3,448.0,0.25,81,111.0
8845,B3,448.25,0.25,94,111.0
8846,B3,448.25,0.25,69,111.0
8847,B4,448.25,9/40,127,111.0
8848,B3,448.5,0.25,71,111.0
8849,B3,448.5,0.25,46,111.0
8850,G#4,448.5,26/125,110,111.0
8851,G#2,448.5,0.25,66,111.0
8852,B1,448.75,0.25,65,111.0
8853,B1,448.75,0.25,65,111.0
8854,C2,448.75,0.25,79,111.0
8855,F#4,448.75,0.25,104,111.0
8856,B3,448.75,0.25,104,111.0
8857,D4,448.75,0.25,104,111.0
8858,F#4,448.75,0.25,79,111.0
8859,B3,448.75,0.25,79,111.0
8860,D4,448.75,0.25,79,111.0
8861,B3,449.0,0.25,98,111.0
8862,B3,449.0,0.25,73,111.0
8863,B1,449.0,0.5,79,111.0
8864,B1,449.0,0.5,79,111.0
8865,A4,449.0,7/40,127,111.0
8866,D2,449.0,1.75,113,111.0
8867,G#2,449.0,0.25,109,111.0
8868,C2,449.0,0.25,79,111.0
8869,B3,449.25,0.25,80,111.0
8870,B3,449.25,0.25,55,111.0
8871,A1,449.5,0.5,63,111.0
8872,A1,449.5,0.5,63,111.0
8873,B4,449.5,26/125,127,111.0
8874,G#2,449.5,0.25,79,111.0
8875,C2,449.5,0.25,88,111.0
8876,F#4,449.5,0.25,103,111.0
8877,B3,449.5,0.25,103,111.0
8878,D4,449.5,0.25,103,111.0
8879,F#4,449.5,0.25,78,111.0
8880,B3,449.5,0.25,78,111.0
8881,D4,449.5,0.25,78,111.0
8882,B1,450.0,0.5,86,111.0
8883,B1,450.0,0.5,86,111.0
8884,G#4,450.0,167/1000,127,111.0
8885,G#2,450.0,0.25,104,111.0
8886,C2,450.0,0.5,94,111.0
8887,A4,450.25,79/500,127,111.0
8888,G#2,450.5,0.25,92,111.0
8889,F#4,450.5,0.5,108,111.0
8890,B3,450.5,0.5,108,111.0
8891,D4,450.5,0.5,108,111.0
8892,F#4,450.5,0.5,83,111.0
8893,B3,450.5,0.5,83,111.0
8894,D4,450.5,0.5,83,111.0
8895,B1,450.75,0.25,83,111.0
8896,B1,450.75,0.25,83,111.0
8897,B4,450.75,7/40,127,111.0
8898,C2,450.75,0.25,85,111.0
8899,A1,451.0,0.5,86,111.0
8900,A1,451.0,0.5,86,111.0
8901,D2,451.0,1.0,117,111.0
8902,G#2,451.0,0.25,104,111.0
8903,C2,451.0,0.25,78,111.0
8904,D5,451.25,3/20,127,111.0
8905,B1,451.5,0.5,67,111.0
8906,B1,451.5,0.5,67,111.0
8907,G#2,451.5,0.25,92,111.0
8908,C2,451.5,0.25,85,111.0
8909,D5,451.75,7/40,127,111.0
8910,E1,452.0,0.5,86,111.0
8911,E1,452.0,0.5,86,111.0
8912,D2,452.0,0.75,117,111.0
8913,G#2,452.0,0.25,114,111.0
8914,C2,452.0,0.5,74,111.0
8915,A4,452.0,0.25,113,111.0
8916,D4,452.0,0.25,113,111.0
8917,E4,452.0,0.25,113,111.0
8918,A4,452.0,0.25,88,111.0
8919,D4,452.0,0.25,88,111.0
8920,E4,452.0,0.25,88,111.0
8921,B3,452.25,0.25,91,111.0
8922,B3,452.25,0.25,66,111.0
8923,B4,452.25,217/1000,127,111.0
8924,B3,452.5,0.25,79,111.0
8925,B3,452.5,0.25,54,111.0
8926,G#4,452.5,121/500,126,111.0
8927,G#2,452.5,0.25,100,111.0
8928,E1,452.75,0.25,61,111.0
8929,E1,452.75,0.25,61,111.0
8930,C2,452.75,0.25,79,111.0
8931,D4,452.75,0.25,102,111.0
8932,E4,452.75,0.25,102,111.0
8933,A4,452.75,0.25,102,111.0
8934,D4,452.75,0.25,77,111.0
8935,E4,452.75,0.25,77,111.0
8936,A4,452.75,0.25,77,111.0
8937,B3,453.0,0.25,80,111.0
8938,B3,453.0,0.25,55,111.0
8939,F#1,453.0,0.5,114,111.0
8940,F#1,453.0,0.5,114,111.0
8941,A4,453.0,167/1000,127,111.0
8942,D2,453.0,0.75,113,111.0
8943,G#2,453.0,0.25,114,111.0
8944,C2,453.0,0.25,76,111.0
8945,B3,453.25,0.25,72,111.0
8946,B3,453.25,0.25,47,111.0
8947,G#1,453.5,0.5,89,111.0
8948,G#1,453.5,0.5,89,111.0
8949,B4,453.5,233/1000,127,111.0
8950,G#2,453.5,0.25,100,111.0
8951,C2,453.5,0.25,85,111.0
8952,E4,453.5,0.5,101,111.0
8953,G#4,453.5,0.5,101,111.0
8954,B3,453.5,0.5,101,111.0
8955,E4,453.5,0.5,76,111.0
8956,G#4,453.5,0.5,76,111.0
8957,B3,453.5,0.5,76,111.0
8958,A1,454.0,0.5,92,111.0
8959,A1,454.0,0.5,92,111.0
8960,G#4,454.0,183/1000,127,111.0
8961,G#2,454.0,0.25,104,111.0
8962,C2,454.0,0.5,97,111.0
8963,A4,454.25,167/1000,127,111.0
8964,D2,454.25,0.25,99,111.0
8965,G#2,454.5,0.25,104,111.0
8966,B3,454.5,0.5,109,111.0
8967,G#4,454.5,0.5,109,111.0
8968,E4,454.5,0.5,109,111.0
8969,B3,454.5,0.5,84,111.0
8970,G#4,454.5,0.5,84,111.0
8971,E4,454.5,0.5,84,111.0
8972,A1,454.75,0.25,66,111.0
8973,A1,454.75,0.25,66,111.0
8974,B4,454.75,1/5,127,111.0
8975,C2,454.75,0.25,82,111.0
8976,A1,455.0,0.5,80,111.0
8977,A1,455.0,0.5,80,111.0
8978,D2,455.0,0.25,113,111.0
8979,G#2,455.0,0.25,114,111.0
8980,C2,455.0,0.25,82,111.0
8981,G#4,455.25,1/5,127,111.0
8982,G#1,455.5,0.25,86,111.0
8983,G#1,455.5,0.25,86,111.0
8984,D2,455.5,0.25,83,111.0
8985,B-2,455.5,0.25,109,111.0
8986,C2,455.5,0.25,82,111.0
8987,A1,455.75,0.25,78,111.0
8988,A1,455.75,0.25,78,111.0
8989,A4,455.75,24/125,127,111.0
8990,D2,455.75,0.25,76,111.0
8991,B1,456.0,0.5,79,111.0
8992,B1,456.0,0.5,79,111.0
8993,D2,456.0,0.75,76,111.0
8994,G#2,456.0,0.25,109,111.0
8995,C2,456.0,0.5,97,111.0
8996,F#4,456.0,0.25,103,111.0
8997,D4,456.0,0.25,103,111.0
8998,B3,456.0,0.25,103,111.0
8999,F#4,456.0,0.25,78,111.0
9000,D4,456.0,0.25,78,111.0
9001,B3,456.0,0.25,78,111.0
9002,B3,456.25,0.25,91,111.0
9003,B3,456.25,0.25,66,111.0
9004,B4,456.25,233/1000,127,111.0
9005,B3,456.5,0.25,61,111.0
9006,B3,456.5,0.25,36,111.0
9007,G#4,456.5,283/1000,109,111.0
9008,G#2,456.5,0.25,84,111.0
9009,B1,456.75,0.25,54,111.0
9010,B1,456.75,0.25,54,111.0
9011,C2,456.75,0.25,79,111.0
9012,F#4,456.75,0.25,98,111.0
9013,D4,456.75,0.25,98,111.0
9014,B3,456.75,0.25,98,111.0
9015,F#4,456.75,0.25,73,111.0
9016,D4,456.75,0.25,73,111.0
9017,B3,456.75,0.25,73,111.0
9018,B3,457.0,0.25,83,111.0
9019,B3,457.0,0.25,58,111.0
9020,B1,457.0,0.5,85,111.0
9021,B1,457.0,0.5,85,111.0
9022,A4,457.0,1/5,127,111.0
9023,D2,457.0,1.75,113,111.0
9024,G#2,457.0,0.25,119,111.0
9025,C2,457.0,0.25,76,111.0
9026,B3,457.25,0.25,77,111.0
9027,B3,457.25,0.25,52,111.0
9028,A1,457.5,0.5,82,111.0
9029,A1,457.5,0.5,82,111.0
9030,B4,457.5,7/40,127,111.0
9031,G#2,457.5,0.25,96,111.0
9032,C2,457.5,0.25,86,111.0
9033,F#4,457.5,0.25,107,111.0
9034,D4,457.5,0.25,107,111.0
9035,B3,457.5,0.25,107,111.0
9036,F#4,457.5,0.25,82,111.0
9037,D4,457.5,0.25,82,111.0
9038,B3,457.5,0.25,82,111.0
9039,B1,458.0,0.5,83,111.0
9040,B1,458.0,0.5,83,111.0
9041,G#4,458.0,167/1000,127,111.0
9042,G#2,458.0,0.25,109,111.0
9043,C2,458.0,0.5,92,111.0
9044,A4,458.25,183/1000,127,111.0
9045,G#2,458.5,0.25,104,111.0
9046,F#4,458.5,0.5,99,111.0
9047,D4,458.5,0.5,99,111.0
9048,B3,458.5,0.5,99,111.0
9049,F#4,458.5,0.5,74,111.0
9050,D4,458.5,0.5,74,111.0
9051,B3,458.5,0.5,74,111.0
9052,B1,458.75,0.25,75,111.0
9053,B1,458.75,0.25,75,111.0
9054,B4,458.75,26/125,127,111.0
9055,C2,458.75,0.25,85,111.0
9056,A1,459.0,0.5,88,111.0
9057,A1,459.0,0.5,88,111.0
9058,D2,459.0,1.0,99,111.0
9059,G#2,459.0,0.25,114,111.0
9060,C2,459.0,0.25,78,111.0
9061,D5,459.25,0.125,127,111.0
9062,B1,459.5,0.5,76,111.0
9063,B1,459.5,0.5,76,111.0
9064,G#2,459.5,0.25,96,111.0
9065,C2,459.5,0.25,85,111.0
9066,D5,459.75,7/40,127,111.0
9067,E1,460.0,0.5,83,111.0
9068,E1,460.0,0.5,83,111.0
9069,D2,460.0,0.75,99,111.0
9070,G#2,460.0,0.25,114,111.0
9071,C2,460.0,0.5,92,111.0
9072,E4,460.0,0.25,100,111.0
9073,B3,460.0,0.25,100,111.0
9074,G#4,460.0,0.25,100,111.0
9075,E4,460.0,0.25,75,111.0
9076,B3,460.0,0.25,75,111.0
9077,G#4,460.0,0.25,75,111.0
9078,B3,460.25,0.25,93,111.0
9079,B3,460.25,0.25,68,111.0
9080,B4,460.25,9/40,127,111.0
9081,B3,460.5,0.25,74,111.0
9082,B3,460.5,0.25,49,111.0
9083,G#4,460.5,217/1000,127,111.0
9084,G#2,460.5,0.25,96,111.0
9085,E1,460.75,0.25,59,111.0
9086,E1,460.75,0.25,59,111.0
9087,C2,460.75,0.25,80,111.0
9088,E4,460.75,0.25,106,111.0
9089,B3,460.75,0.25,106,111.0
9090,G#4,460.75,0.25,106,111.0
9091,E4,460.75,0.25,81,111.0
9092,B3,460.75,0.25,81,111.0
9093,G#4,460.75,0.25,81,111.0
9094,F#1,461.0,0.5,114,111.0
9095,F#1,461.0,0.5,114,111.0
9096,A4,461.0,121/500,127,111.0
9097,D2,461.0,1.75,110,111.0
9098,G#2,461.0,0.25,119,111.0
9099,C2,461.0,0.25,69,111.0
9100,B3,461.25,0.25,79,111.0
9101,B3,461.25,0.25,54,111.0
9102,G#1,461.5,0.5,92,111.0
9103,G#1,461.5,0.5,92,111.0
9104,B4,461.5,267/1000,127,111.0
9105,G#2,461.5,0.25,96,111.0
9106,C2,461.5,0.25,94,111.0
9107,E4,461.5,0.5,100,111.0
9108,A3,461.5,0.5,100,111.0
9109,D4,461.5,0.5,100,111.0
9110,E4,461.5,0.5,75,111.0
9111,A3,461.5,0.5,75,111.0
9112,D4,461.5,0.5,75,111.0
9113,A1,462.0,0.5,83,111.0
9114,A1,462.0,0.5,83,111.0
9115,G#4,462.0,79/500,127,111.0
9116,G#2,462.0,0.25,104,111.0
9117,C2,462.0,0.5,101,111.0
9118,A4,462.25,183/1000,127,111.0
9119,B-2,462.5,0.25,100,111.0
9120,E4,462.5,0.5,100,111.0
9121,C#4,462.5,0.5,100,111.0
9122,A3,462.5,0.5,100,111.0
9123,E4,462.5,0.5,75,111.0
9124,C#4,462.5,0.5,75,111.0
9125,A3,462.5,0.5,75,111.0
9126,A1,462.75,0.25,76,111.0
9127,A1,462.75,0.25,76,111.0
9128,B4,462.75,121/500,127,111.0
9129,C2,462.75,0.25,90,111.0
9130,A1,463.0,0.5,76,111.0
9131,A1,463.0,0.5,76,111.0
9132,D2,463.0,1.0,110,111.0
9133,G#2,463.0,0.25,100,111.0
9134,C2,463.0,0.25,85,111.0
9135,G#4,463.25,217/1000,127,111.0
9136,A3,463.5,0.5,81,111.0
9137,A3,463.5,0.5,56,111.0
9138,G#1,463.5,0.25,92,111.0
9139,G#1,463.5,0.25,92,111.0
9140,B-2,463.5,0.25,104,111.0
9141,C2,463.5,0.25,90,111.0
9142,A1,463.75,0.25,73,111.0
9143,A1,463.75,0.25,73,111.0
9144,A4,463.75,26/125,127,111.0
9145,B1,464.0,0.5,83,111.0
9146,B1,464.0,0.5,83,111.0
9147,D2,464.0,0.75,110,111.0
9148,G#2,464.0,0.25,104,111.0
9149,C2,464.0,0.5,104,111.0
9150,B3,464.0,0.25,107,111.0
9151,F#4,464.0,0.25,107,111.0
9152,D4,464.0,0.25,107,111.0
9153,B3,464.0,0.25,82,111.0
9154,F#4,464.0,0.25,82,111.0
9155,D4,464.0,0.25,82,111.0
9156,B3,464.25,0.25,87,111.0
9157,B3,464.25,0.25,62,111.0
9158,B4,464.25,0.25,127,111.0
9159,B3,464.5,0.25,63,111.0
9160,B3,464.5,0.25,38,111.0
9161,G#4,464.5,267/1000,115,111.0
9162,G#2,464.5,0.25,81,111.0
9163,B3,464.75,0.5,91,111.0
9164,B3,464.75,0.5,66,111.0
9165,B1,464.75,0.75,44,111.0
9166,B1,464.75,0.75,44,111.0
9167,C2,464.75,0.25,83,111.0
9168,F#4,464.75,0.25,112,111.0
9169,D4,464.75,0.25,112,111.0
9170,F#4,464.75,0.25,87,111.0
9171,D4,464.75,0.25,87,111.0
9172,A4,465.0,26/125,127,111.0
9173,D2,465.0,1.75,110,111.0
9174,G#2,465.0,0.25,109,111.0
9175,C2,465.0,0.25,82,111.0
9176,B3,465.25,0.25,79,111.0
9177,B3,465.25,0.25,54,111.0
9178,A1,465.5,0.5,78,111.0
9179,A1,465.5,0.5,78,111.0
9180,B4,465.5,121/500,127,111.0
9181,G#2,465.5,0.25,84,111.0
9182,C2,465.5,0.25,94,111.0
9183,D4,465.5,0.25,107,111.0
9184,B3,465.5,0.25,107,111.0
9185,F#4,465.5,0.25,107,111.0
9186,D4,465.5,0.25,82,111.0
9187,B3,465.5,0.25,82,111.0
9188,F#4,465.5,0.25,82,111.0
9189,B1,466.0,0.5,88,111.0
9190,B1,466.0,0.5,88,111.0
9191,G#4,466.0,3/20,127,111.0
9192,G#2,466.0,0.25,114,111.0
9193,C2,466.0,0.5,92,111.0
9194,A4,466.25,79/500,127,111.0
9195,G#2,466.5,0.25,79,111.0
9196,F#4,466.5,0.5,102,111.0
9197,D4,466.5,0.5,102,111.0
9198,B3,466.5,0.5,102,111.0
9199,F#4,466.5,0.5,77,111.0
9200,D4,466.5,0.5,77,111.0
9201,B3,466.5,0.5,77,111.0
9202,B1,466.75,0.25,80,111.0
9203,B1,466.75,0.25,80,111.0
9204,B4,466.75,0.25,127,111.0
9205,C2,466.75,0.25,92,111.0
9206,A1,467.0,0.5,82,111.0
9207,A1,467.0,0.5,82,111.0
9208,D2,467.0,1.0,101,111.0
9209,G#2,467.0,0.25,109,111.0
9210,C2,467.0,0.25,86,111.0
9211,D5,467.25,24/125,127,111.0
9212,B1,467.5,0.5,68,111.0
9213,B1,467.5,0.5,68,111.0
9214,G#2,467.5,0.25,81,111.0
9215,C2,467.5,0.25,85,111.0
9216,D5,467.75,217/1000,127,111.0
9217,E4,468.0,0.5,117,111.0
9218,E4,468.0,0.5,92,111.0
9219,E1,468.0,0.5,69,111.0
9220,E1,468.0,0.5,69,111.0
9221,D2,468.0,0.75,101,111.0
9222,G#2,468.0,0.25,109,111.0
9223,C2,468.0,0.5,101,111.0
9224,A4,468.0,0.25,102,111.0
9225,D4,468.0,0.25,102,111.0
9226,A4,468.0,0.25,77,111.0
9227,D4,468.0,0.25,77,111.0
9228,B3,468.25,0.25,81,111.0
9229,B3,468.25,0.25,56,111.0
9230,B4,468.25,9/40,127,111.0
9231,B3,468.5,0.25,84,111.0
9232,B3,468.5,0.25,59,111.0
9233,G#4,468.5,217/1000,127,111.0
9234,G#2,468.5,0.25,84,111.0
9235,E1,468.75,0.25,66,111.0
9236,E1,468.75,0.25,66,111.0
9237,C2,468.75,0.25,97,111.0
9238,E4,468.75,0.25,95,111.0
9239,A4,468.75,0.25,95,111.0
9240,D4,468.75,0.25,95,111.0
9241,E4,468.75,0.25,70,111.0
9242,A4,468.75,0.25,70,111.0
9243,D4,468.75,0.25,70,111.0
9244,B3,469.0,0.25,79,111.0
9245,B3,469.0,0.25,54,111.0
9246,F#1,469.0,0.5,109,111.0
9247,F#1,469.0,0.5,109,111.0
9248,A4,469.0,1/5,127,111.0
9249,D2,469.0,1.75,104,111.0
9250,G#2,469.0,0.25,114,111.0
9251,C2,469.0,0.25,79,111.0
9252,G#1,469.5,0.5,66,111.0
9253,G#1,469.5,0.5,66,111.0
9254,B4,469.5,129/500,127,111.0
9255,G#2,469.5,0.25,86,111.0
9256,C2,469.5,0.25,94,111.0
9257,G#4,469.5,0.5,109,111.0
9258,E4,469.5,0.5,109,111.0
9259,B3,469.5,0.5,109,111.0
9260,G#4,469.5,0.5,84,111.0
9261,E4,469.5,0.5,84,111.0
9262,B3,469.5,0.5,84,111.0
9263,A1,470.0,0.5,83,111.0
9264,A1,470.0,0.5,83,111.0
9265,G#4,470.0,79/500,127,111.0
9266,G#2,470.0,0.25,100,111.0
9267,C2,470.0,0.5,104,111.0
9268,A4,470.25,1/5,127,111.0
9269,G#2,470.5,0.25,92,111.0
9270,B3,470.5,0.5,101,111.0
9271,G#4,470.5,0.5,101,111.0
9272,E4,470.5,0.5,101,111.0
9273,B3,470.5,0.5,76,111.0
9274,G#4,470.5,0.5,76,111.0
9275,E4,470.5,0.5,76,111.0
9276,A1,470.75,0.25,85,111.0
9277,A1,470.75,0.25,85,111.0
9278,B4,470.75,121/500,127,111.0
9279,C2,470.75,0.25,94,111.0
9280,G#1,471.0,0.5,92,111.0
9281,G#1,471.0,0.5,92,111.0
9282,D2,471.0,0.25,113,111.0
9283,G#2,471.0,0.25,89,111.0
9284,C2,471.0,0.25,80,111.0
9285,G#4,471.25,217/1000,127,111.0
9286,A1,471.5,0.5,70,111.0
9287,A1,471.5,0.5,70,111.0
9288,D2,471.5,0.25,97,111.0
9289,B-2,471.5,0.25,100,111.0
9290,C2,471.5,0.25,97,111.0
9291,A4,471.75,26/125,127,111.0
9292,D2,471.75,0.25,83,111.0
9293,D2,472.0,0.25,83,111.0
9294,G#2,472.0,0.25,104,111.0
9295,C2,472.0,0.5,104,111.0
