,note_name,start_time,duration,velocity,tempo
0,A1,0.0,3.0,127,120.0
1,F#2,0.0,167/1000,127,120.0
2,B1,0.0,167/1000,127,120.0
3,F#2,0.167,167/1000,95,120.0
4,F#2,0.333,167/1000,95,120.0
5,F#2,0.5,167/1000,95,120.0
6,F#2,0.667,167/1000,95,120.0
7,F#2,0.833,167/1000,95,120.0
8,F#2,1.0,167/1000,127,120.0
9,B1,1.0,167/1000,127,120.0
10,F#2,1.167,167/1000,95,120.0
11,F#2,1.333,167/1000,95,120.0
12,F#2,1.5,167/1000,95,120.0
13,F#2,1.667,167/1000,95,120.0
14,F#2,1.833,167/1000,95,120.0
15,F#2,2.0,167/1000,127,120.0
16,B1,2.0,167/1000,127,120.0
17,F#2,2.167,167/1000,95,120.0
18,F#2,2.333,167/1000,95,120.0
19,F#2,2.5,167/1000,95,120.0
20,F#2,2.667,167/1000,95,120.0
21,F#2,2.833,167/1000,95,120.0
22,A1,3.0,1.0,111,120.0
23,F#2,3.0,167/1000,127,120.0
24,B1,3.0,167/1000,127,120.0
25,F#2,3.167,167/1000,95,120.0
26,F#2,3.333,167/1000,95,120.0
27,F#2,3.5,167/1000,95,120.0
28,F#2,3.667,167/1000,95,120.0
29,F#2,3.833,167/1000,95,120.0
30,A2,4.0,3.0,127,120.0
31,F#2,4.0,167/1000,127,120.0
32,B1,4.0,167/1000,127,120.0
33,F#2,4.167,167/1000,95,120.0
34,F#2,4.333,167/1000,95,120.0
35,F#2,4.5,167/1000,95,120.0
36,F#2,4.667,167/1000,95,120.0
37,F#2,4.833,167/1000,95,120.0
38,F#2,5.0,167/1000,127,120.0
39,B1,5.0,167/1000,127,120.0
40,F#2,5.167,167/1000,95,120.0
41,F#2,5.333,167/1000,95,120.0
42,F#2,5.5,167/1000,95,120.0
43,F#2,5.667,167/1000,95,120.0
44,F#2,5.833,167/1000,95,120.0
45,F#2,6.0,167/1000,127,120.0
46,B1,6.0,167/1000,127,120.0
47,F#2,6.167,167/1000,95,120.0
48,F#2,6.333,167/1000,95,120.0
49,F#2,6.5,167/1000,95,120.0
50,F#2,6.667,167/1000,95,120.0
51,F#2,6.833,167/1000,95,120.0
52,A2,7.0,1.0,63,120.0
53,F#2,7.0,167/1000,127,120.0
54,B1,7.0,167/1000,127,120.0
55,F#2,7.167,167/1000,95,120.0
56,F#2,7.333,167/1000,95,120.0
57,F#2,7.5,167/1000,95,120.0
58,F#2,7.667,167/1000,95,120.0
59,F#2,7.833,167/1000,95,120.0
60,A1,8.0,3.0,127,120.0
61,F#2,8.0,167/1000,127,120.0
62,B1,8.0,167/1000,127,120.0
63,F#2,8.167,167/1000,95,120.0
64,F#2,8.333,167/1000,95,120.0
65,F#2,8.5,167/1000,95,120.0
66,F#2,8.667,167/1000,95,120.0
67,F#2,8.833,167/1000,95,120.0
68,F#2,9.0,167/1000,127,120.0
69,B1,9.0,167/1000,127,120.0
70,F#2,9.167,167/1000,95,120.0
71,F#2,9.333,167/1000,95,120.0
72,F#2,9.5,167/1000,95,120.0
73,F#2,9.667,167/1000,95,120.0
74,F#2,9.833,167/1000,95,120.0
75,F#2,10.0,167/1000,127,120.0
76,B1,10.0,167/1000,127,120.0
77,F#2,10.167,167/1000,95,120.0
78,F#2,10.333,167/1000,95,120.0
79,F#2,10.5,167/1000,95,120.0
80,F#2,10.667,167/1000,95,120.0
81,F#2,10.833,167/1000,95,120.0
82,A1,11.0,1.0,111,120.0
83,F#2,11.0,167/1000,127,120.0
84,B1,11.0,167/1000,127,120.0
85,F#2,11.167,167/1000,95,120.0
86,F#2,11.333,167/1000,95,120.0
87,F#2,11.5,167/1000,95,120.0
88,F#2,11.667,167/1000,95,120.0
89,F#2,11.833,167/1000,95,120.0
90,A2,12.0,3.0,127,120.0
91,F#2,12.0,167/1000,127,120.0
92,B1,12.0,167/1000,127,120.0
93,F#2,12.167,167/1000,95,120.0
94,F#2,12.333,167/1000,95,120.0
95,F#2,12.5,167/1000,95,120.0
96,F#2,12.667,167/1000,95,120.0
97,F#2,12.833,167/1000,95,120.0
98,F#2,13.0,167/1000,127,120.0
99,B1,13.0,167/1000,127,120.0
100,F#2,13.167,167/1000,95,120.0
101,F#2,13.333,167/1000,95,120.0
102,F#2,13.5,167/1000,95,120.0
103,F#2,13.667,167/1000,95,120.0
104,F#2,13.833,167/1000,95,120.0
105,F#2,14.0,167/1000,127,120.0
106,B1,14.0,167/1000,127,120.0
107,F#2,14.167,167/1000,95,120.0
108,F#2,14.333,167/1000,95,120.0
109,F#2,14.5,167/1000,95,120.0
110,F#2,14.667,167/1000,95,120.0
111,F#2,14.833,167/1000,95,120.0
112,A2,15.0,1.0,63,120.0
113,F#2,15.0,167/1000,127,120.0
114,B1,15.0,167/1000,127,120.0
115,F#2,15.167,167/1000,95,120.0
116,F#2,15.333,167/1000,95,120.0
117,F#2,15.5,167/1000,95,120.0
118,F#2,15.667,167/1000,95,120.0
119,F#2,15.833,167/1000,95,120.0
120,A1,16.0,4.0,127,120.0
121,E3,16.0,4.0,127,120.0
122,A2,16.0,4.0,127,120.0
123,F#2,16.0,167/1000,127,120.0
124,C#3,16.0,167/1000,127,120.0
125,B1,16.0,167/1000,127,120.0
126,F#2,16.167,167/1000,95,120.0
127,F#2,16.333,167/1000,95,120.0
128,F#2,16.5,167/1000,95,120.0
129,F#2,16.667,167/1000,95,120.0
130,F#2,16.833,167/1000,95,120.0
131,F#2,17.0,167/1000,127,120.0
132,B1,17.0,167/1000,127,120.0
133,F#2,17.167,167/1000,95,120.0
134,F#2,17.333,167/1000,95,120.0
135,F#2,17.5,167/1000,95,120.0
136,F#2,17.667,167/1000,95,120.0
137,F#2,17.833,167/1000,95,120.0
138,F#2,18.0,167/1000,127,120.0
139,B1,18.0,167/1000,127,120.0
140,F#2,18.167,167/1000,95,120.0
141,F#2,18.333,167/1000,95,120.0
142,F#2,18.5,167/1000,95,120.0
143,F#2,18.667,167/1000,95,120.0
144,F#2,18.833,167/1000,95,120.0
145,F#2,19.0,167/1000,127,120.0
146,B1,19.0,167/1000,127,120.0
147,F#2,19.167,167/1000,95,120.0
148,F#2,19.333,167/1000,95,120.0
149,F#2,19.5,167/1000,95,120.0
150,F#2,19.667,167/1000,95,120.0
151,F#2,19.833,167/1000,95,120.0
152,A1,20.0,4.0,127,120.0
153,F#3,20.0,4.0,127,120.0
154,B2,20.0,4.0,127,120.0
155,F#2,20.0,167/1000,127,120.0
156,A3,20.0,167/1000,127,120.0
157,B1,20.0,167/1000,127,120.0
158,F#2,20.167,167/1000,95,120.0
159,F#2,20.333,167/1000,95,120.0
160,F#2,20.5,167/1000,95,120.0
161,F#2,20.667,167/1000,95,120.0
162,F#2,20.833,167/1000,95,120.0
163,F#2,21.0,167/1000,127,120.0
164,B1,21.0,167/1000,127,120.0
165,F#2,21.167,167/1000,95,120.0
166,F#2,21.333,167/1000,95,120.0
167,F#2,21.5,167/1000,95,120.0
168,F#2,21.667,167/1000,95,120.0
169,F#2,21.833,167/1000,95,120.0
170,F#2,22.0,167/1000,127,120.0
171,B1,22.0,167/1000,127,120.0
172,F#2,22.167,167/1000,95,120.0
173,F#2,22.333,167/1000,95,120.0
174,F#2,22.5,167/1000,95,120.0
175,F#2,22.667,167/1000,95,120.0
176,F#2,22.833,167/1000,95,120.0
177,F#2,23.0,167/1000,127,120.0
178,B1,23.0,167/1000,127,120.0
179,F#2,23.167,167/1000,95,120.0
180,F#2,23.333,167/1000,95,120.0
181,F#2,23.5,167/1000,95,120.0
182,F#2,23.667,167/1000,95,120.0
183,F#2,23.833,167/1000,95,120.0
184,A1,24.0,4.0,127,120.0
185,E3,24.0,4.0,127,120.0
186,A2,24.0,4.0,127,120.0
187,F#2,24.0,167/1000,127,120.0
188,C#3,24.0,167/1000,127,120.0
189,B1,24.0,167/1000,127,120.0
190,F#2,24.167,167/1000,95,120.0
191,F#2,24.333,167/1000,95,120.0
192,F#2,24.5,167/1000,95,120.0
193,F#2,24.667,167/1000,95,120.0
194,F#2,24.833,167/1000,95,120.0
195,F#2,25.0,167/1000,127,120.0
196,B1,25.0,167/1000,127,120.0
197,F#2,25.167,167/1000,95,120.0
198,F#2,25.333,167/1000,95,120.0
199,F#2,25.5,167/1000,95,120.0
200,F#2,25.667,167/1000,95,120.0
201,F#2,25.833,167/1000,95,120.0
202,F#2,26.0,167/1000,127,120.0
203,B1,26.0,167/1000,127,120.0
204,F#2,26.167,167/1000,95,120.0
205,F#2,26.333,167/1000,95,120.0
206,F#2,26.5,167/1000,95,120.0
207,F#2,26.667,167/1000,95,120.0
208,F#2,26.833,167/1000,95,120.0
209,F#2,27.0,167/1000,127,120.0
210,B1,27.0,167/1000,127,120.0
211,F#2,27.167,167/1000,95,120.0
212,F#2,27.333,167/1000,95,120.0
213,F#2,27.5,167/1000,95,120.0
214,F#2,27.667,167/1000,95,120.0
215,F#2,27.833,167/1000,95,120.0
216,A1,28.0,4.0,127,120.0
217,F#3,28.0,2.5,127,120.0
218,B2,28.0,2.5,127,120.0
219,F#2,28.0,167/1000,127,120.0
220,A3,28.0,167/1000,127,120.0
221,B1,28.0,167/1000,127,120.0
222,F#2,28.167,167/1000,95,120.0
223,F#2,28.333,167/1000,95,120.0
224,F#2,28.5,167/1000,95,120.0
225,F#2,28.667,167/1000,95,120.0
226,F#2,28.833,167/1000,95,120.0
227,F#2,29.0,167/1000,127,120.0
228,B1,29.0,167/1000,127,120.0
229,F#2,29.167,167/1000,95,120.0
230,F#2,29.333,167/1000,95,120.0
231,F#2,29.5,167/1000,95,120.0
232,F#2,29.667,167/1000,95,120.0
233,F#2,29.833,167/1000,95,120.0
234,F#2,30.0,167/1000,127,120.0
235,B1,30.0,167/1000,127,120.0
236,F#2,30.167,167/1000,95,120.0
237,F#2,30.333,167/1000,95,120.0
238,F#2,30.5,167/1000,95,120.0
239,F#2,30.667,167/1000,95,120.0
240,F#2,30.833,167/1000,95,120.0
241,E-4,31.0,1/5,127,120.0
242,E-4,31.0,1/5,127,120.0
243,F#2,31.0,167/1000,127,120.0
244,B1,31.0,167/1000,127,120.0
245,F#2,31.167,167/1000,95,120.0
246,E4,31.2,1/5,102,120.0
247,E4,31.2,1/5,102,120.0
248,F#2,31.333,167/1000,95,120.0
249,E-4,31.4,1/5,102,120.0
250,E-4,31.4,1/5,102,120.0
251,F#2,31.5,167/1000,95,120.0
252,C#4,31.6,1/5,102,120.0
253,C#4,31.6,1/5,127,120.0
254,F#2,31.667,167/1000,95,120.0
255,B3,31.8,1/5,102,120.0
256,B3,31.8,1/5,102,120.0
257,F#2,31.833,167/1000,95,120.0
258,B3,32.0,3.0,127,120.0
259,B3,32.0,3.0,127,120.0
260,A1,32.0,4.0,127,120.0
261,D2,32.0,0.25,127,120.0
262,B1,32.0,0.25,127,120.0
263,D2,32.25,0.75,127,120.0
264,B1,33.0,1.0,127,120.0
265,B1,34.0,1.0,127,120.0
266,A4,35.0,0.25,127,120.0
267,A4,35.0,0.25,127,120.0
268,B1,35.0,0.5,127,120.0
269,F#4,35.5,0.25,127,120.0
270,F#4,35.5,0.25,127,120.0
271,D2,35.5,0.5,127,120.0
272,B4,35.75,0.25,127,120.0
273,B4,35.75,0.25,127,120.0
274,B4,36.0,2.5,127,120.0
275,B4,36.0,3.0,127,120.0
276,A1,36.0,4.0,127,120.0
277,B1,36.0,1.0,127,120.0
278,B1,37.0,0.5,127,120.0
279,D2,37.5,0.5,127,120.0
280,D2,38.0,0.25,127,120.0
281,B1,38.0,0.25,127,120.0
282,D2,38.25,0.75,127,120.0
283,E-4,39.0,1/5,127,120.0
284,E-4,39.0,1/5,127,120.0
285,B1,39.0,1.0,127,120.0
286,E4,39.2,1/5,102,120.0
287,E4,39.2,1/5,102,120.0
288,E-4,39.4,1/5,102,120.0
289,E-4,39.4,1/5,102,120.0
290,C#4,39.6,1/5,102,120.0
291,C#4,39.6,1/5,127,120.0
292,B3,39.8,1/5,102,120.0
293,B3,39.8,1/5,102,120.0
294,B3,40.0,3.0,127,120.0
295,B3,40.0,3.0,127,120.0
296,A1,40.0,4.0,127,120.0
297,D2,40.0,0.25,127,120.0
298,B1,40.0,0.25,127,120.0
299,D2,40.25,0.25,127,120.0
300,D2,40.5,0.25,127,120.0
301,D2,40.75,0.25,127,120.0
302,B1,41.0,1.0,127,120.0
303,B1,42.0,0.25,127,120.0
304,D2,42.25,0.25,127,120.0
305,D2,42.5,0.125,127,120.0
306,D2,42.625,0.125,127,120.0
307,D2,42.75,0.125,127,120.0
308,D2,42.875,0.125,127,120.0
309,A4,43.0,0.25,127,120.0
310,A4,43.0,0.25,127,120.0
311,D2,43.0,0.25,127,120.0
312,B1,43.0,0.25,127,120.0
313,D2,43.25,0.25,127,120.0
314,F#4,43.5,0.25,127,120.0
315,F#4,43.5,0.25,127,120.0
316,D2,43.5,0.5,127,120.0
317,B4,43.75,0.25,127,120.0
318,B4,43.75,0.25,127,120.0
319,B4,44.0,0.25,127,120.0
320,B4,44.0,0.25,127,120.0
321,A1,44.0,4.0,127,120.0
322,D2,44.0,0.125,127,120.0
323,B1,44.0,0.125,127,120.0
324,D2,44.125,0.125,127,120.0
325,D5,44.25,0.25,127,120.0
326,D5,44.25,0.25,127,120.0
327,D2,44.25,0.125,127,120.0
328,D2,44.375,0.125,127,120.0
329,B4,44.5,2.0,102,120.0
330,B4,44.5,2.5,102,120.0
331,D2,44.5,0.25,127,120.0
332,D2,44.75,0.25,127,120.0
333,D2,45.0,0.25,127,120.0
334,B1,45.0,0.25,127,120.0
335,D2,45.25,0.25,127,120.0
336,D2,45.5,0.125,127,120.0
337,D2,45.625,0.125,127,120.0
338,D2,45.75,0.125,127,120.0
339,D2,45.875,0.125,127,120.0
340,D2,46.0,1.0,127,120.0
341,B1,46.0,1.0,127,120.0
342,E-4,47.0,1/5,127,120.0
343,F#4,47.0,1/5,127,120.0
344,E-4,47.0,1/5,127,120.0
345,B1,47.0,1.0,127,120.0
346,E4,47.2,1/5,102,120.0
347,G#4,47.2,1/5,102,120.0
348,E4,47.2,1/5,102,120.0
349,E-4,47.4,1/5,102,120.0
350,F#4,47.4,1/5,102,120.0
351,E-4,47.4,1/5,102,120.0
352,C#4,47.6,1/5,102,120.0
353,E4,47.6,1/5,102,120.0
354,C#4,47.6,1/5,127,120.0
355,B3,47.8,1/5,102,120.0
356,E-4,47.8,1/5,127,120.0
357,B3,47.8,1/5,102,120.0
358,B3,48.0,3.0,127,120.0
359,E-4,48.0,3.0,127,120.0
360,B3,48.0,3.0,127,120.0
361,A1,48.0,4.0,127,120.0
362,D2,48.0,0.25,127,120.0
363,B1,48.0,0.25,127,120.0
364,D2,48.25,0.75,127,120.0
365,B1,49.0,1.0,127,120.0
366,B1,50.0,1.0,127,120.0
367,A4,51.0,0.25,127,120.0
368,C#5,51.0,0.25,127,120.0
369,A4,51.0,0.25,127,120.0
370,B1,51.0,0.5,127,120.0
371,F#4,51.5,0.25,127,120.0
372,A4,51.5,0.25,127,120.0
373,F#4,51.5,0.25,127,120.0
374,D2,51.5,0.5,127,120.0
375,B4,51.75,0.25,127,120.0
376,E-5,51.75,0.25,127,120.0
377,B4,51.75,0.25,127,120.0
378,B4,52.0,2.5,127,120.0
379,E-5,52.0,2.5,127,120.0
380,B4,52.0,3.0,127,120.0
381,A1,52.0,4.0,127,120.0
382,B1,52.0,1.0,127,120.0
383,B1,53.0,0.5,127,120.0
384,D2,53.5,0.5,127,120.0
385,D2,54.0,0.25,127,120.0
386,B1,54.0,0.25,127,120.0
387,D2,54.25,0.75,127,120.0
388,E-4,55.0,1/5,127,120.0
389,F#4,55.0,1/5,127,120.0
390,E-4,55.0,1/5,127,120.0
391,B1,55.0,1.0,127,120.0
392,E4,55.2,1/5,102,120.0
393,G#4,55.2,1/5,102,120.0
394,E4,55.2,1/5,102,120.0
395,E-4,55.4,1/5,102,120.0
396,F#4,55.4,1/5,102,120.0
397,E-4,55.4,1/5,102,120.0
398,C#4,55.6,1/5,102,120.0
399,E4,55.6,1/5,102,120.0
400,C#4,55.6,1/5,127,120.0
401,B3,55.8,1/5,102,120.0
402,E-4,55.8,1/5,127,120.0
403,B3,55.8,1/5,102,120.0
404,B3,56.0,3.0,127,120.0
405,E-4,56.0,3.0,127,120.0
406,B3,56.0,3.0,127,120.0
407,A1,56.0,4.0,127,120.0
408,D2,56.0,0.25,127,120.0
409,B1,56.0,0.25,127,120.0
410,D2,56.25,0.25,127,120.0
411,D2,56.5,0.25,127,120.0
412,D2,56.75,0.25,127,120.0
413,B1,57.0,1.0,127,120.0
414,B1,58.0,0.25,127,120.0
415,D2,58.25,0.25,127,120.0
416,D2,58.5,0.125,127,120.0
417,D2,58.625,0.125,127,120.0
418,D2,58.75,0.125,127,120.0
419,D2,58.875,0.125,127,120.0
420,A4,59.0,0.25,127,120.0
421,C#5,59.0,0.25,127,120.0
422,A4,59.0,0.25,127,120.0
423,D2,59.0,0.25,127,120.0
424,B1,59.0,0.25,127,120.0
425,D2,59.25,0.25,127,120.0
426,F#4,59.5,0.25,127,120.0
427,A4,59.5,0.25,127,120.0
428,F#4,59.5,0.25,127,120.0
429,D2,59.5,0.5,127,120.0
430,B4,59.75,0.25,127,120.0
431,E-5,59.75,0.25,127,120.0
432,B4,59.75,0.25,127,120.0
433,B4,60.0,0.25,127,120.0
434,E-5,60.0,0.25,127,120.0
435,B4,60.0,0.25,127,120.0
436,A1,60.0,2.0,127,120.0
437,D2,60.0,0.125,127,120.0
438,B1,60.0,0.125,127,120.0
439,D2,60.125,0.125,127,120.0
440,D5,60.25,0.25,127,120.0
441,F#5,60.25,0.25,127,120.0
442,D5,60.25,0.25,127,120.0
443,D2,60.25,0.125,127,120.0
444,D2,60.375,0.125,127,120.0
445,B4,60.5,2.0,102,120.0
446,E-5,60.5,2.0,102,120.0
447,B4,60.5,3.5,102,120.0
448,D2,60.5,0.25,127,120.0
449,D2,60.75,0.25,127,120.0
450,D2,61.0,0.25,127,120.0
451,B1,61.0,0.25,127,120.0
452,D2,61.25,0.25,127,120.0
453,D2,61.5,0.125,127,120.0
454,D2,61.625,0.125,127,120.0
455,D2,61.75,0.125,127,120.0
456,D2,61.875,0.125,127,120.0
457,D2,62.0,1.0,127,120.0
458,B1,62.0,1.0,127,120.0
459,A1,63.5,0.25,127,120.0
460,D2,63.5,0.25,127,120.0
461,A1,63.75,0.25,127,120.0
462,D2,63.75,0.25,79,120.0
463,D2,64.0,0.25,127,120.0
464,D2,64.0,0.25,127,120.0
465,B1,64.0,0.25,127,120.0
466,D2,64.25,0.25,127,120.0
467,D2,64.25,0.25,79,120.0
468,A1,64.5,0.25,127,120.0
469,D2,64.5,0.25,95,120.0
470,D2,64.75,0.25,127,120.0
471,D2,64.75,0.25,111,120.0
472,A1,65.0,0.25,127,120.0
473,D2,65.0,0.25,95,120.0
474,D2,65.25,0.25,127,120.0
475,D2,65.25,0.25,111,120.0
476,B1,65.25,0.25,111,120.0
477,D2,65.5,0.25,127,120.0
478,D2,65.5,0.25,95,120.0
479,A1,65.75,0.25,127,120.0
480,D2,65.75,0.25,79,120.0
481,D2,66.0,0.25,127,120.0
482,D2,66.0,0.25,127,120.0
483,B1,66.0,0.25,127,120.0
484,A1,66.25,0.25,127,120.0
485,D2,66.25,0.25,79,120.0
486,D2,66.5,0.5,127,120.0
487,D2,66.5,0.125,127,120.0
488,B1,66.5,0.125,127,120.0
489,D2,66.625,0.125,111,120.0
490,D2,66.75,0.125,95,120.0
491,D2,66.875,0.125,79,120.0
492,A1,67.0,0.25,127,120.0
493,D2,67.0,0.25,63,120.0
494,D2,67.25,0.25,127,120.0
495,D2,67.25,0.25,127,120.0
496,B1,67.25,0.25,127,120.0
497,A1,67.5,0.25,127,120.0
498,D2,67.5,0.25,95,120.0
499,D2,67.75,0.25,127,120.0
500,D2,67.75,0.25,127,120.0
501,B1,67.75,0.25,127,120.0
502,D2,68.0,0.25,127,120.0
503,D2,68.0,0.25,127,120.0
504,B1,68.0,0.25,127,120.0
505,D2,68.25,0.25,127,120.0
506,D2,68.25,0.5,127,120.0
507,C2,68.75,2.0,127,120.0
508,E4,68.75,2.0,127,120.0
509,C#4,68.75,2.0,127,120.0
510,C4,68.75,2.0,127,120.0
511,C3,68.75,2.0,127,120.0
512,A3,68.75,0.125,103,120.0
513,B1,68.75,0.125,103,120.0
514,A3,68.875,0.125,79,120.0
515,A3,69.0,0.125,79,120.0
516,A3,69.125,0.125,79,120.0
517,A3,69.25,0.125,79,120.0
518,A3,69.375,0.125,79,120.0
519,A3,69.5,0.125,79,120.0
520,A3,69.625,0.125,79,120.0
521,A3,69.75,0.125,79,120.0
522,A3,69.875,0.125,79,120.0
523,A3,70.0,0.125,79,120.0
524,A3,70.125,0.125,79,120.0
525,A3,70.25,0.125,103,120.0
526,D2,70.25,0.125,103,120.0
527,A3,70.375,0.125,79,120.0
528,A3,70.5,0.125,103,120.0
529,D2,70.5,0.125,103,120.0
530,A3,70.625,0.125,79,120.0
531,D2,70.75,0.25,127,120.0
532,D2,70.75,0.25,127,120.0
533,B1,70.75,0.25,127,120.0
534,D2,71.0,0.25,127,120.0
535,D2,71.0,0.25,111,120.0
536,A1,71.25,0.25,127,120.0
537,D2,71.25,0.25,111,120.0
538,D2,71.5,0.25,127,120.0
539,D2,71.5,0.25,127,120.0
540,B1,71.5,0.25,127,120.0
541,A1,71.75,0.25,127,120.0
542,D2,71.75,0.25,79,120.0
543,D2,72.0,0.25,127,120.0
544,D2,72.0,0.25,127,120.0
545,B1,72.0,0.25,127,120.0
546,D2,72.25,0.25,127,120.0
547,D2,72.25,0.25,95,120.0
548,A1,72.5,0.25,127,120.0
549,D2,72.5,0.25,127,120.0
550,C2,72.75,3.5,127,120.0
551,E4,72.75,3.5,127,120.0
552,C#4,72.75,3.5,127,120.0
553,C4,72.75,3.5,127,120.0
554,C3,72.75,3.5,127,120.0
555,A3,72.75,0.125,111,120.0
556,B1,72.75,0.125,111,120.0
557,A3,72.875,0.125,95,120.0
558,A3,73.0,0.125,95,120.0
559,A3,73.125,0.125,95,120.0
560,A3,73.25,0.125,95,120.0
561,A3,73.375,0.125,95,120.0
562,A3,73.5,0.125,95,120.0
563,A3,73.625,0.125,95,120.0
564,A3,73.75,0.125,95,120.0
565,A3,73.875,0.125,95,120.0
566,A3,74.0,0.125,95,120.0
567,A3,74.125,0.125,95,120.0
568,A3,74.25,0.125,95,120.0
569,A3,74.375,0.125,95,120.0
570,A3,74.5,0.125,95,120.0
571,A3,74.625,0.125,95,120.0
572,A3,74.75,0.125,95,120.0
573,A3,74.875,0.125,95,120.0
574,A3,75.0,0.125,95,120.0
575,A3,75.125,0.125,95,120.0
576,A3,75.25,0.125,95,120.0
577,A3,75.375,0.125,95,120.0
578,A3,75.5,0.125,95,120.0
579,A3,75.625,0.125,95,120.0
580,A3,75.75,0.125,95,120.0
581,A3,75.875,0.125,95,120.0
582,A3,76.0,0.125,95,120.0
583,A3,76.125,0.125,95,120.0
584,C2,76.25,0.25,127,120.0
585,D2,76.25,0.25,95,120.0
586,C2,76.5,0.25,127,120.0
587,D2,76.5,0.25,95,120.0
588,D2,76.75,0.25,127,120.0
589,D2,76.75,0.125,127,120.0
590,B1,76.75,0.125,127,120.0
591,D2,76.875,0.125,111,120.0
592,D2,77.0,0.125,95,120.0
593,D2,77.125,0.125,79,120.0
594,A1,77.25,0.25,127,120.0
595,D2,77.25,0.25,127,120.0
596,D2,77.5,0.25,127,120.0
597,D2,77.5,0.25,111,120.0
598,B1,77.5,0.25,111,120.0
599,D2,77.75,0.25,127,120.0
600,D2,77.75,0.25,127,120.0
601,D2,78.0,0.25,127,120.0
602,D2,78.0,0.25,111,120.0
603,B1,78.0,0.25,111,120.0
604,D2,78.25,0.25,127,120.0
605,D2,78.25,0.25,127,120.0
606,A3,78.5,0.125,79,120.0
607,E4,78.5,1.0,127,120.0
608,C#4,78.5,1.0,127,120.0
609,C4,78.5,1.0,127,120.0
610,C3,78.5,1.0,127,120.0
611,A3,78.625,0.125,79,120.0
612,A3,78.75,0.125,79,120.0
613,A3,78.875,0.125,79,120.0
614,A3,79.0,0.125,79,120.0
615,A3,79.125,0.125,79,120.0
616,A3,79.25,0.125,79,120.0
617,A3,79.375,0.125,79,120.0
618,A3,79.5,0.5,79,120.0
619,D2,80.0,0.5,127,120.0
620,D2,80.0,0.5,127,120.0
621,F4,80.5,1.0,127,120.0
622,D4,80.5,1.0,127,120.0
623,C#4,80.5,1.0,127,120.0
624,C#3,80.5,1.0,127,120.0
625,A3,80.5,0.125,103,120.0
626,B1,80.5,0.125,103,120.0
627,A3,80.625,0.125,79,120.0
628,A3,80.75,0.125,79,120.0
629,A3,80.875,0.125,79,120.0
630,A3,81.0,0.125,79,120.0
631,A3,81.125,0.125,79,120.0
632,A3,81.25,0.125,79,120.0
633,A3,81.375,0.125,79,120.0
634,A3,81.5,0.125,79,120.0
635,A3,81.625,0.125,79,120.0
636,A3,81.75,0.125,79,120.0
637,A3,81.875,0.125,79,120.0
638,D2,82.0,0.25,127,120.0
639,A3,82.0,0.125,103,120.0
640,D2,82.0,0.125,103,120.0
641,A3,82.125,0.125,79,120.0
642,D2,82.25,0.25,127,120.0
643,D2,82.25,0.25,127,120.0
644,D2,82.5,0.25,127,120.0
645,D2,82.5,0.25,127,120.0
646,B1,82.5,0.25,127,120.0
647,D2,82.75,0.25,127,120.0
648,D2,82.75,0.25,95,120.0
649,D2,83.0,0.25,127,120.0
650,D2,83.0,0.25,127,120.0
651,E4,83.25,2.5,127,120.0
652,C#4,83.25,2.5,127,120.0
653,C4,83.25,2.5,127,120.0
654,C3,83.25,2.5,127,120.0
655,A3,83.25,0.125,103,120.0
656,B1,83.25,0.125,103,120.0
657,A3,83.375,0.125,79,120.0
658,A3,83.5,0.125,79,120.0
659,A3,83.625,0.125,79,120.0
660,A3,83.75,0.125,79,120.0
661,A3,83.875,0.125,79,120.0
662,A3,84.0,0.125,79,120.0
663,A3,84.125,0.125,79,120.0
664,A3,84.25,0.125,79,120.0
665,A3,84.375,0.125,79,120.0
666,A3,84.5,0.125,79,120.0
667,A3,84.625,0.125,79,120.0
668,A3,84.75,0.125,79,120.0
669,A3,84.875,0.125,79,120.0
670,A3,85.0,0.125,79,120.0
671,A3,85.125,0.125,79,120.0
672,A3,85.25,0.125,79,120.0
673,A3,85.375,0.125,79,120.0
674,A3,85.5,0.125,79,120.0
675,A3,85.625,0.125,79,120.0
676,D2,85.75,0.25,127,120.0
677,D2,85.75,0.25,127,120.0
678,B1,85.75,0.25,127,120.0
679,D2,86.0,0.25,127,120.0
680,D2,86.0,0.25,95,120.0
681,D2,86.25,0.25,127,120.0
682,D2,86.25,0.25,127,120.0
683,B1,86.25,0.25,127,120.0
684,D2,86.5,0.25,127,120.0
685,A1,86.75,0.25,127,120.0
686,D2,86.75,0.25,127,120.0
687,D2,87.0,0.25,127,120.0
688,D2,87.0,0.25,111,120.0
689,A1,87.25,0.25,127,120.0
690,D2,87.25,0.25,95,120.0
691,D2,87.5,0.25,127,120.0
692,D2,87.5,0.125,127,120.0
693,B1,87.5,0.125,127,120.0
694,D2,87.625,0.125,111,120.0
695,D2,87.75,0.125,95,120.0
696,D2,87.875,0.125,79,120.0
697,A1,88.0,0.25,127,120.0
698,D2,88.0,0.25,111,120.0
699,D2,88.25,0.25,127,120.0
700,D2,88.25,0.25,127,120.0
701,B1,88.25,0.25,127,120.0
702,D2,88.5,0.25,127,120.0
703,D2,88.5,0.25,127,120.0
704,D2,88.75,0.25,127,120.0
705,D2,88.75,0.25,127,120.0
706,B1,88.75,0.25,127,120.0
707,D2,89.0,0.25,127,120.0
708,D2,89.0,0.25,127,120.0
709,E-4,89.25,1.5,127,120.0
710,C4,89.25,1.5,127,120.0
711,B3,89.25,1.5,127,120.0
712,B2,89.25,1.5,127,120.0
713,A3,89.25,0.125,103,120.0
714,B1,89.25,0.125,103,120.0
715,A3,89.375,0.125,79,120.0
716,A3,89.5,0.125,79,120.0
717,A3,89.625,0.125,79,120.0
718,A3,89.75,0.125,79,120.0
719,A3,89.875,0.125,79,120.0
720,A3,90.0,0.125,79,120.0
721,A3,90.125,0.125,79,120.0
722,A3,90.25,0.125,79,120.0
723,A3,90.375,0.125,79,120.0
724,A3,90.5,0.125,79,120.0
725,A3,90.625,0.125,79,120.0
726,D2,90.75,0.5,127,120.0
727,A3,90.75,0.125,103,120.0
728,D2,90.75,0.125,103,120.0
729,A3,90.875,0.125,79,120.0
730,A3,91.0,0.125,79,120.0
731,A3,91.125,0.125,79,120.0
732,D4,91.25,3.5,127,120.0
733,B3,91.25,3.5,127,120.0
734,B-3,91.25,3.5,127,120.0
735,B-2,91.25,3.5,127,120.0
736,D3,91.25,0.125,119,120.0
737,B1,91.25,0.125,119,120.0
738,D3,91.375,0.125,95,120.0
739,D3,91.5,0.125,79,120.0
740,D3,91.625,0.125,63,120.0
741,B2,91.75,0.125,119,120.0
742,B1,91.75,0.125,119,120.0
743,B2,91.875,0.125,95,120.0
744,B2,92.0,0.125,79,120.0
745,B2,92.125,0.125,63,120.0
746,D3,92.25,0.125,119,120.0
747,B1,92.25,0.125,119,120.0
748,D3,92.375,0.125,95,120.0
749,D3,92.5,0.125,79,120.0
750,D3,92.625,0.125,63,120.0
751,A2,92.75,0.125,119,120.0
752,B1,92.75,0.125,119,120.0
753,A2,92.875,0.125,95,120.0
754,A2,93.0,0.125,79,120.0
755,A2,93.125,0.125,63,120.0
756,B2,93.25,0.125,119,120.0
757,B1,93.25,0.125,119,120.0
758,B2,93.375,0.125,95,120.0
759,B2,93.5,0.125,79,120.0
760,B2,93.625,0.125,63,120.0
761,A2,93.75,0.125,119,120.0
762,B1,93.75,0.125,119,120.0
763,A2,93.875,0.125,95,120.0
764,A2,94.0,0.125,79,120.0
765,A2,94.125,0.125,63,120.0
766,G2,94.25,0.125,119,120.0
767,B1,94.25,0.125,119,120.0
768,G2,94.375,0.125,95,120.0
769,G2,94.5,0.125,79,120.0
770,G2,94.625,0.125,63,120.0
771,B1,94.75,3.5,127,120.0
772,B1,94.75,2.5,127,120.0
773,C#3,94.75,3.0,127,120.0
774,B1,94.75,3.0,127,120.0
775,B2,95.5,2.75,127,120.0
776,F#3,96.5,1.75,127,120.0
777,G4,97.25,0.125,79,120.0
778,B3,97.25,1.0,127,120.0
779,E-4,97.375,0.125,79,120.0
780,G4,97.5,0.125,79,120.0
781,E-4,97.625,0.125,79,120.0
782,G4,97.75,0.125,79,120.0
783,B1,97.75,0.5,127,120.0
784,A3,97.75,0.5,127,120.0
785,B1,97.75,0.5,127,120.0
786,E-4,97.875,0.125,79,120.0
787,G4,98.0,0.125,79,120.0
788,E-4,98.125,0.125,79,120.0
789,G4,98.25,0.125,79,120.0
790,F#3,98.25,3.5,127,120.0
791,B3,98.25,3.5,127,120.0
792,B1,98.25,3.5,127,120.0
793,B2,98.25,3.5,127,120.0
794,B1,98.25,3.5,127,120.0
795,E-4,98.375,0.125,79,120.0
796,G4,98.5,0.125,79,120.0
797,E-4,98.625,0.125,79,120.0
798,G4,98.75,0.125,79,120.0
799,E-4,98.875,0.125,79,120.0
800,G4,99.0,0.125,79,120.0
801,E-4,99.125,0.125,79,120.0
802,G4,99.25,0.125,79,120.0
803,E-4,99.375,0.125,79,120.0
804,G4,99.5,0.125,79,120.0
805,E-4,99.625,0.125,79,120.0
806,G4,99.75,0.125,79,120.0
807,E-4,99.875,0.125,79,120.0
808,G4,100.0,0.125,79,120.0
809,E-4,100.125,0.125,79,120.0
810,G4,100.25,0.125,79,120.0
811,E-4,100.375,0.125,79,120.0
812,G4,100.5,0.125,79,120.0
813,E-4,100.625,0.125,79,120.0
814,G4,100.75,0.125,79,120.0
815,E-4,100.875,0.125,79,120.0
816,G4,101.0,0.125,79,120.0
817,E-4,101.125,0.125,79,120.0
818,G4,101.25,0.125,79,120.0
819,E-4,101.375,0.125,79,120.0
820,G4,101.5,0.125,79,120.0
821,E-4,101.625,0.125,79,120.0
822,E2,101.75,1.5,127,120.0
823,B1,101.75,3.0,127,120.0
824,E1,101.75,1.5,127,120.0
825,E1,101.75,1.5,127,120.0
826,D4,101.75,3.0,127,120.0
827,G#3,101.75,3.0,127,120.0
828,E3,101.75,3.0,127,120.0
829,B3,101.75,0.5,127,120.0
830,B1,101.75,0.5,127,120.0
831,B3,102.25,0.5,127,120.0
832,B3,102.75,0.5,127,120.0
833,G#2,103.25,1.0,127,120.0
834,E5,103.25,1.0,127,120.0
835,E1,103.25,1.5,127,120.0
836,G#1,103.25,1.0,127,120.0
837,B5,103.25,333/1000,127,120.0
838,G#5,103.25,333/1000,127,120.0
839,B3,103.25,0.5,127,120.0
840,D2,103.25,0.5,127,120.0
841,C#6,103.583,333/1000,127,120.0
842,A5,103.583,333/1000,127,120.0
843,B3,103.75,0.5,127,120.0
844,B5,103.917,333/1000,127,120.0
845,G#5,103.917,333/1000,127,120.0
846,C#3,104.25,0.5,127,120.0
847,E5,104.25,0.25,127,120.0
848,C#2,104.25,0.5,127,120.0
849,B3,104.25,0.5,127,120.0
850,D5,104.5,0.25,127,120.0
851,B2,104.75,1.5,127,120.0
852,B1,104.75,0.5,127,120.0
853,E1,104.75,0.5,127,120.0
854,B1,104.75,1.5,127,120.0
855,E5,104.75,0.5,127,120.0
856,B4,104.75,0.5,127,120.0
857,B3,104.75,0.5,127,120.0
858,B1,104.75,0.5,127,120.0
859,B3,105.25,0.5,127,120.0
860,B1,105.25,1.0,127,120.0
861,E1,105.25,1.0,127,120.0
862,B3,105.75,0.5,127,120.0
863,G#2,106.25,0.5,127,120.0
864,B1,106.25,1.5,127,120.0
865,E1,106.25,0.5,127,120.0
866,E1,106.25,1.0,127,120.0
867,B3,106.25,0.5,127,120.0
868,D2,106.25,0.5,127,120.0
869,A5,106.375,0.125,127,120.0
870,B-5,106.5,0.125,127,120.0
871,B5,106.625,0.125,127,120.0
872,E1,106.75,1.0,127,120.0
873,B3,106.75,0.5,127,120.0
874,B6,106.75,0.125,127,120.0
875,E6,106.75,0.125,127,120.0
876,B-5,106.875,0.125,127,120.0
877,A5,107.0,0.125,127,120.0
878,G5,107.125,0.125,127,120.0
879,B2,107.25,0.5,127,120.0
880,G#1,107.25,0.5,127,120.0
881,B3,107.25,0.25,127,120.0
882,B1,107.5,0.25,127,120.0
883,A2,107.75,1.5,127,120.0
884,A1,107.75,1.5,127,120.0
885,D4,107.75,3.0,127,120.0
886,G#3,107.75,3.0,127,120.0
887,E3,107.75,3.0,127,120.0
888,E2,107.75,3.0,127,120.0
889,A1,107.75,3.0,127,120.0
890,B3,107.75,0.5,127,120.0
891,B1,107.75,0.5,127,120.0
892,B3,108.25,0.5,127,120.0
893,B3,108.75,0.5,127,120.0
894,C#3,109.25,1.0,127,120.0
895,C#2,109.25,1.0,127,120.0
896,B3,109.25,0.5,127,120.0
897,D2,109.25,0.5,127,120.0
898,B3,109.75,0.5,127,120.0
899,G4,109.75,0.5,127,120.0
900,B3,109.75,0.5,127,120.0
901,F#3,110.25,0.5,127,120.0
902,F#2,110.25,0.5,127,120.0
903,F#4,110.25,0.5,127,120.0
904,A3,110.25,0.5,127,120.0
905,B3,110.25,0.5,127,120.0
906,B1,110.25,0.5,127,120.0
907,E3,110.75,1.5,127,120.0
908,A1,110.75,0.5,127,120.0
909,E2,110.75,1.5,127,120.0
910,C#4,110.75,3.0,127,120.0
911,A3,110.75,3.0,127,120.0
912,G3,110.75,3.0,127,120.0
913,E4,110.75,1.0,127,120.0
914,G3,110.75,1.0,127,120.0
915,B3,110.75,0.5,127,120.0
916,B1,110.75,0.5,127,120.0
917,A1,111.25,0.5,127,120.0
918,B3,111.25,0.5,127,120.0
919,A1,111.75,0.5,127,120.0
920,B3,111.75,0.25,127,120.0
921,D4,111.75,1.0,127,120.0
922,F#3,111.75,1.0,127,120.0
923,D2,112.0,0.25,127,120.0
924,C#3,112.25,1.0,127,120.0
925,A1,112.25,0.5,127,120.0
926,A1,112.25,1.0,127,120.0
927,D2,112.25,0.25,127,120.0
928,D2,112.5,0.25,127,120.0
929,B2,112.75,167/1000,127,120.0
930,C#4,112.75,1.0,127,120.0
931,E3,112.75,1.0,127,120.0
932,E2,112.75,1.0,127,120.0
933,A1,112.75,1.0,127,120.0
934,B2,112.917,167/1000,127,120.0
935,B2,113.083,167/1000,127,120.0
936,E3,113.25,0.5,127,120.0
937,A1,113.25,0.5,127,120.0
938,B2,113.25,167/1000,127,120.0
939,G2,113.417,167/1000,127,120.0
940,G2,113.583,167/1000,127,120.0
941,E2,113.75,1.5,127,120.0
942,B2,113.75,3.0,127,120.0
943,E2,113.75,2.5,127,120.0
944,E1,113.75,1.5,127,120.0
945,B3,113.75,0.5,127,120.0
946,C#3,113.75,0.5,127,120.0
947,B1,113.75,0.5,127,120.0
948,B3,114.25,0.5,127,120.0
949,B3,114.75,0.5,127,120.0
950,G#2,115.25,1.0,127,120.0
951,G#1,115.25,1.0,127,120.0
952,E6,115.25,0.5,127,120.0
953,E5,115.25,0.5,127,120.0
954,B3,115.25,0.5,127,120.0
955,D2,115.25,0.5,127,120.0
956,B3,115.75,0.5,127,120.0
957,E6,116.0,0.25,127,120.0
958,E5,116.0,0.25,127,120.0
959,C#3,116.25,0.5,127,120.0
960,E2,116.25,0.5,127,120.0
961,C#2,116.25,0.5,127,120.0
962,B3,116.25,0.25,127,120.0
963,C#6,116.25,0.25,127,120.0
964,C#5,116.25,0.25,127,120.0
965,B1,116.5,0.25,127,120.0
966,B2,116.75,1.5,127,120.0
967,B2,116.75,2.0,127,120.0
968,E2,116.75,1.5,127,120.0
969,B1,116.75,1.5,127,120.0
970,C#4,116.75,3.0,127,120.0
971,A3,116.75,3.0,127,120.0
972,G3,116.75,3.0,127,120.0
973,E6,116.75,0.25,127,120.0
974,E5,116.75,0.25,127,120.0
975,B3,116.75,0.5,127,120.0
976,B1,116.75,0.5,127,120.0
977,B3,117.25,0.5,127,120.0
978,C#6,117.25,0.25,127,120.0
979,C#5,117.25,0.25,127,120.0
980,B3,117.75,0.5,127,120.0
981,B5,117.75,0.25,127,120.0
982,B4,117.75,0.25,127,120.0
983,G#2,118.25,0.5,127,120.0
984,E2,118.25,0.5,127,120.0
985,G#1,118.25,1.0,127,120.0
986,D2,118.25,0.25,127,120.0
987,C#6,118.25,0.25,127,120.0
988,C#5,118.25,0.25,127,120.0
989,D2,118.5,0.25,127,120.0
990,D2,118.75,333/1000,127,120.0
991,G5,118.75,0.25,127,120.0
992,G4,118.75,0.25,127,120.0
993,B2,118.75,0.5,127,120.0
994,E2,118.75,0.5,127,120.0
995,B2,119.083,333/1000,127,120.0
996,B2,119.25,0.5,127,120.0
997,A1,119.25,0.5,127,120.0
998,F#5,119.25,0.25,127,120.0
999,F#4,119.25,0.25,127,120.0
1000,B2,119.417,333/1000,127,120.0
1001,B1,119.75,1.5,127,120.0
1002,F#3,119.75,3.0,127,120.0
1003,B2,119.75,3.0,127,120.0
1004,D4,119.75,3.0,127,120.0
1005,G#3,119.75,3.0,127,120.0
1006,E3,119.75,3.0,127,120.0
1007,F#2,119.75,3.0,127,120.0
1008,B1,119.75,3.0,127,120.0
1009,B3,119.75,0.5,127,120.0
1010,C#3,119.75,0.5,127,120.0
1011,B1,119.75,0.5,127,120.0
1012,B3,120.25,0.5,127,120.0
1013,B3,120.75,0.5,127,120.0
1014,E-2,121.25,1.0,127,120.0
1015,B3,121.25,0.5,127,120.0
1016,D2,121.25,0.5,127,120.0
1017,B3,121.75,0.5,127,120.0
1018,G#2,122.25,0.5,127,120.0
1019,B3,122.25,0.25,127,120.0
1020,B1,122.5,0.25,127,120.0
1021,F#2,122.75,1.5,127,120.0
1022,B3,122.75,0.5,127,120.0
1023,B1,122.75,0.5,127,120.0
1024,B3,123.25,0.5,127,120.0
1025,B3,123.75,0.5,127,120.0
1026,B1,124.25,1.5,127,120.0
1027,C#3,124.25,1.5,127,120.0
1028,B1,124.25,1.5,127,120.0
1029,B1,125.75,3.0,127,120.0
1030,F#3,125.75,3.0,127,120.0
1031,B2,125.75,3.0,127,120.0
1032,D4,125.75,3.0,127,120.0
1033,G#3,125.75,3.0,127,120.0
1034,E3,125.75,3.0,127,120.0
1035,F#2,125.75,3.0,127,120.0
1036,B1,125.75,3.0,127,120.0
1037,G3,126.75,3.0,127,120.0
1038,B3,126.875,2.875,127,120.0
1039,E-4,127.0,2.75,127,120.0
1040,G4,127.125,0.125,127,120.0
1041,A4,127.25,2.5,127,120.0
1042,B4,127.375,0.125,127,120.0
1043,E-5,127.5,0.125,127,120.0
1044,G5,127.625,0.125,127,120.0
1045,A5,127.75,0.125,127,120.0
1046,B5,127.875,0.125,127,120.0
1047,E-6,128.0,1.75,127,120.0
1048,G6,128.125,0.125,127,120.0
1049,A6,128.25,0.125,127,120.0
1050,B6,128.375,1.375,127,120.0
1051,B3,128.75,3.0,127,120.0
1052,D4,128.75,3.0,127,120.0
1053,A3,128.75,3.0,127,120.0
1054,B0,129.5,3.25,127,120.0
1055,B1,129.625,3.125,127,120.0
1056,E-4,129.75,1/5,127,120.0
1057,A1,129.75,1.0,127,120.0
1058,F3,129.75,1.0,127,120.0
1059,B1,129.75,1.0,127,120.0
1060,E4,129.95,1/5,102,120.0
1061,E-4,130.15,1/5,102,120.0
1062,C#4,130.35,1/5,127,120.0
1063,B3,130.55,1/5,102,120.0
1064,B3,130.75,2.0,127,120.0
1065,F3,130.75,1.0,127,120.0
1066,D2,130.75,1.0,127,120.0
1067,A1,131.0,0.75,127,120.0
1068,A1,131.75,1.0,127,120.0
1069,F3,131.75,0.5,127,120.0
1070,B1,132.25,0.5,127,120.0
1071,E-4,132.75,1/5,127,120.0
1072,A4,132.75,0.25,127,120.0
1073,A1,132.75,1.0,127,120.0
1074,F3,132.75,0.75,127,120.0
1075,D2,132.75,0.75,127,120.0
1076,E4,132.95,1/5,102,120.0
1077,E-4,133.15,1/5,102,120.0
1078,F#4,133.25,0.25,127,120.0
1079,C#4,133.35,1/5,102,120.0
1080,B4,133.5,0.25,127,120.0
1081,B1,133.5,0.25,127,120.0
1082,B3,133.55,1/5,102,120.0
1083,B3,133.75,1.5,127,120.0
1084,B4,133.75,4.0,127,120.0
1085,A1,133.75,0.5,127,120.0
1086,F3,133.75,1.0,127,120.0
1087,A1,134.25,0.5,127,120.0
1088,A2,134.75,0.75,127,120.0
1089,F3,134.75,1.0,127,120.0
1090,D2,134.75,1.0,127,120.0
1091,A1,135.5,0.25,127,120.0
1092,A4,135.75,0.25,127,120.0
1093,F3,135.75,0.75,127,120.0
1094,A1,136.0,0.5,127,120.0
1095,F#4,136.25,0.25,127,120.0
1096,B4,136.5,0.25,127,120.0
1097,A1,136.5,0.25,127,120.0
1098,B1,136.5,0.25,127,120.0
1099,B4,136.75,3.5,127,120.0
1100,A2,136.75,0.5,127,120.0
1101,F3,136.75,0.25,127,120.0
1102,D2,136.75,0.25,127,120.0
1103,B1,137.0,0.75,127,120.0
1104,A1,137.25,0.25,127,120.0
1105,E-4,137.75,1/5,127,120.0
1106,A1,137.75,1.0,127,120.0
1107,F3,137.75,0.75,127,120.0
1108,B1,137.75,0.75,127,120.0
1109,E4,137.95,1/5,102,120.0
1110,E-4,138.15,1/5,102,120.0
1111,C#4,138.35,1/5,127,120.0
1112,B1,138.5,0.25,127,120.0
1113,B3,138.55,1/5,102,120.0
1114,B3,138.75,2.0,127,120.0
1115,A1,138.75,0.75,127,120.0
1116,B3,138.75,3.0,127,120.0
1117,D4,138.75,3.0,127,120.0
1118,A3,138.75,3.0,127,120.0
1119,F3,138.75,0.5,127,120.0
1120,D2,138.75,0.5,127,120.0
1121,B1,139.25,0.5,127,120.0
1122,A1,139.5,0.25,127,120.0
1123,A1,139.75,0.75,127,120.0
1124,F3,139.75,1.0,127,120.0
1125,A2,140.5,0.25,127,120.0
1126,E-4,140.75,1/5,127,120.0
1127,A4,140.75,0.25,127,120.0
1128,A1,140.75,0.5,127,120.0
1129,F3,140.75,0.5,127,120.0
1130,D2,140.75,0.5,127,120.0
1131,E4,140.95,1/5,102,120.0
1132,E-4,141.15,1/5,102,120.0
1133,F#4,141.25,0.25,127,120.0
1134,A1,141.25,0.5,127,120.0
1135,B1,141.25,0.5,127,120.0
1136,C#4,141.35,1/5,102,120.0
1137,B4,141.5,0.25,127,120.0
1138,B3,141.55,1/5,102,120.0
1139,B3,141.75,1.5,127,120.0
1140,B4,141.75,0.25,127,120.0
1141,A1,141.75,0.5,127,120.0
1142,F3,141.75,0.5,127,120.0
1143,D5,142.0,0.25,127,120.0
1144,B4,142.25,3.5,102,120.0
1145,A1,142.25,0.5,127,120.0
1146,B1,142.25,0.5,127,120.0
1147,A2,142.75,0.75,127,120.0
1148,F3,142.75,1.0,127,120.0
1149,D2,142.75,1.0,127,120.0
1150,A2,143.5,0.25,127,120.0
1151,A4,143.75,0.25,127,120.0
1152,A2,143.75,0.25,127,120.0
1153,F3,143.75,0.5,127,120.0
1154,A2,144.0,0.5,127,120.0
1155,F#4,144.25,0.25,127,120.0
1156,B1,144.25,0.5,127,120.0
1157,B4,144.5,0.25,127,120.0
1158,A2,144.5,0.25,127,120.0
1159,B4,144.75,0.25,127,120.0
1160,A2,144.75,0.5,127,120.0
1161,F3,144.75,0.25,127,120.0
1162,D2,144.75,0.25,127,120.0
1163,D5,145.0,0.25,127,120.0
1164,B1,145.0,0.5,127,120.0
1165,B4,145.25,3.5,102,120.0
1166,A2,145.25,0.5,127,120.0
1167,D2,145.5,0.25,127,120.0
1168,F#4,145.75,1/5,127,120.0
1169,B-4,145.75,1/5,127,120.0
1170,E-4,145.75,1/5,127,120.0
1171,A1,145.75,0.75,127,120.0
1172,B3,145.75,4.0,127,120.0
1173,D4,145.75,4.0,127,120.0
1174,A3,145.75,4.0,127,120.0
1175,F3,145.75,1.0,127,120.0
1176,B1,145.75,1.0,127,120.0
1177,G#4,145.95,1/5,102,120.0
1178,B4,145.95,1/5,102,120.0
1179,E4,145.95,1/5,102,120.0
1180,F#4,146.15,1/5,102,120.0
1181,B-4,146.15,1/5,102,120.0
1182,E-4,146.15,1/5,102,120.0
1183,E4,146.35,1/5,102,120.0
1184,G#4,146.35,1/5,102,120.0
1185,C#4,146.35,1/5,127,120.0
1186,A2,146.5,0.25,127,120.0
1187,E-4,146.55,1/5,127,120.0
1188,F#4,146.55,1/5,127,120.0
1189,B3,146.55,1/5,102,120.0
1190,E-4,146.75,2.0,127,120.0
1191,F#4,146.75,2.0,127,120.0
1192,B3,146.75,2.0,127,120.0
1193,A1,146.75,1.0,127,120.0
1194,F3,146.75,0.5,127,120.0
1195,D2,146.75,0.5,127,120.0
1196,B1,147.25,0.5,127,120.0
1197,A1,147.75,0.5,127,120.0
1198,F3,147.75,1.0,127,120.0
1199,A1,148.25,0.5,127,120.0
1200,E-4,148.75,1/5,127,120.0
1201,C#5,148.75,0.25,127,120.0
1202,E5,148.75,0.25,127,120.0
1203,A4,148.75,0.25,127,120.0
1204,A2,148.75,0.25,127,120.0
1205,F3,148.75,1.0,127,120.0
1206,D2,148.75,1.0,127,120.0
1207,E4,148.95,1/5,102,120.0
1208,A1,149.0,0.5,127,120.0
1209,E-4,149.15,1/5,102,120.0
1210,A4,149.25,0.25,127,120.0
1211,C#5,149.25,0.25,127,120.0
1212,F#4,149.25,0.25,127,120.0
1213,C#4,149.35,1/5,102,120.0
1214,E-5,149.5,0.25,127,120.0
1215,F#5,149.5,0.25,127,120.0
1216,B4,149.5,0.25,127,120.0
1217,A2,149.5,0.25,127,120.0
1218,B3,149.55,1/5,102,120.0
1219,B3,149.75,2.0,127,120.0
1220,E-5,149.75,3.5,127,120.0
1221,F#5,149.75,3.5,127,120.0
1222,B4,149.75,4.0,127,120.0
1223,A1,149.75,0.5,127,120.0
1224,F3,149.75,0.5,127,120.0
1225,A1,150.25,0.5,127,120.0
1226,B1,150.25,0.5,127,120.0
1227,A1,150.75,0.75,127,120.0
1228,F3,150.75,1.0,127,120.0
1229,D2,150.75,1.0,127,120.0
1230,A1,151.5,0.25,127,120.0
1231,A4,151.75,0.25,127,120.0
1232,F3,151.75,0.5,127,120.0
1233,A2,152.0,0.5,127,120.0
1234,F#4,152.25,0.25,127,120.0
1235,B1,152.25,0.5,127,120.0
1236,B4,152.5,0.25,127,120.0
1237,A2,152.5,0.25,127,120.0
1238,B4,152.75,3.5,127,120.0
1239,A2,152.75,0.5,127,120.0
1240,F3,152.75,0.25,127,120.0
1241,D2,152.75,0.25,127,120.0
1242,B1,153.0,0.5,127,120.0
1243,A2,153.25,0.5,127,120.0
1244,D2,153.5,0.25,127,120.0
1245,F#4,153.75,1/5,127,120.0
1246,B-4,153.75,1/5,127,120.0
1247,E-4,153.75,1/5,127,120.0
1248,A1,153.75,0.75,127,120.0
1249,F3,153.75,1.0,127,120.0
1250,B1,153.75,1.0,127,120.0
1251,G#4,153.95,1/5,102,120.0
1252,B4,153.95,1/5,102,120.0
1253,E4,153.95,1/5,102,120.0
1254,F#4,154.15,1/5,102,120.0
1255,B-4,154.15,1/5,102,120.0
1256,E-4,154.15,1/5,102,120.0
1257,E4,154.35,1/5,102,120.0
1258,G#4,154.35,1/5,102,120.0
1259,C#4,154.35,1/5,127,120.0
1260,A2,154.5,0.25,127,120.0
1261,E-4,154.55,1/5,127,120.0
1262,F#4,154.55,1/5,127,120.0
1263,B3,154.55,1/5,102,120.0
1264,E-4,154.75,2.0,127,120.0
1265,F#4,154.75,2.0,127,120.0
1266,B3,154.75,2.0,127,120.0
1267,A1,154.75,0.5,127,120.0
1268,F3,154.75,0.5,127,120.0
1269,D2,154.75,0.5,127,120.0
1270,B1,155.25,0.5,127,120.0
1271,A1,155.75,0.5,127,120.0
1272,F3,155.75,1.0,127,120.0
1273,A1,156.25,0.5,127,120.0
1274,E-4,156.75,1/5,127,120.0
1275,C#5,156.75,0.25,127,120.0
1276,E5,156.75,0.25,127,120.0
1277,A4,156.75,0.25,127,120.0
1278,A1,156.75,0.75,127,120.0
1279,F3,156.75,0.5,127,120.0
1280,D2,156.75,0.5,127,120.0
1281,E4,156.95,1/5,102,120.0
1282,E-4,157.15,1/5,102,120.0
1283,A4,157.25,0.25,127,120.0
1284,C#5,157.25,0.25,127,120.0
1285,F#4,157.25,0.25,127,120.0
1286,B1,157.25,0.5,127,120.0
1287,C#4,157.35,1/5,102,120.0
1288,E-5,157.5,0.25,127,120.0
1289,F#5,157.5,0.25,127,120.0
1290,B4,157.5,0.25,127,120.0
1291,B3,157.55,1/5,102,120.0
1292,B3,157.75,2.0,127,120.0
1293,E-5,157.75,0.25,127,120.0
1294,F#5,157.75,0.25,127,120.0
1295,B4,157.75,0.25,127,120.0
1296,A1,157.75,0.25,127,120.0
1297,F3,157.75,1.0,127,120.0
1298,F#5,158.0,0.25,127,120.0
1299,A5,158.0,0.25,127,120.0
1300,D5,158.0,0.25,127,120.0
1301,A1,158.0,0.5,127,120.0
1302,E-5,158.25,3.5,102,120.0
1303,F#5,158.25,3.5,102,120.0
1304,B4,158.25,3.5,102,120.0
1305,A1,158.5,0.25,127,120.0
1306,A2,158.75,0.75,127,120.0
1307,F3,158.75,0.5,127,120.0
1308,D2,158.75,0.5,127,120.0
1309,B1,159.25,0.5,127,120.0
1310,A4,159.75,0.25,127,120.0
1311,A1,159.75,0.25,127,120.0
1312,F3,159.75,0.25,127,120.0
1313,D2,159.75,0.25,127,120.0
1314,A1,160.0,0.25,127,120.0
1315,B1,160.0,0.5,127,120.0
1316,F#4,160.25,0.25,127,120.0
1317,B4,160.5,0.25,127,120.0
1318,A1,160.5,0.25,127,120.0
1319,B1,160.5,0.25,127,120.0
1320,B4,160.75,0.25,127,120.0
1321,A2,160.75,0.5,127,120.0
1322,F3,160.75,0.5,127,120.0
1323,D2,160.75,0.5,127,120.0
1324,D5,161.0,0.25,127,120.0
1325,B4,161.25,3.5,102,120.0
1326,A1,161.25,0.5,127,120.0
1327,B1,161.25,0.5,127,120.0
1328,A1,161.75,0.25,127,120.0
1329,D2,161.75,0.25,127,120.0
1330,B1,161.75,0.25,127,120.0
1331,A1,162.0,0.75,127,120.0
1332,D2,162.0,0.75,127,120.0
1333,G#2,162.75,1.0,127,120.0
1334,B1,162.75,1.0,127,120.0
1335,B1,163.75,1.0,127,120.0
1336,A2,164.75,0.25,127,120.0
1337,A1,164.75,0.25,127,120.0
1338,G#2,164.75,0.5,127,120.0
1339,B1,164.75,0.5,127,120.0
1340,A2,165.0,0.75,127,120.0
1341,A1,165.0,0.75,127,120.0
1342,A1,165.25,0.5,127,120.0
1343,D2,165.25,0.5,127,120.0
1344,B1,165.75,1.0,127,120.0
1345,F#5,165.75,0.25,127,120.0
1346,E-5,165.75,0.25,127,120.0
1347,F#5,166.0,0.5,127,120.0
1348,E-5,166.0,0.5,127,120.0
1349,F#5,166.5,1.0,127,120.0
1350,E-5,166.5,0.5,127,120.0
1351,C#5,166.5,0.5,127,120.0
1352,G#2,166.75,0.5,127,120.0
1353,B1,166.75,0.5,127,120.0
1354,C#5,167.0,0.25,127,120.0
1355,B4,167.25,0.25,127,120.0
1356,A1,167.25,0.5,127,120.0
1357,D2,167.25,0.5,127,120.0
1358,C#5,167.688,0.062,95,120.0
1359,A1,167.75,0.25,127,120.0
1360,F#5,167.75,0.25,116,120.0
1361,E-5,167.75,0.25,116,120.0
1362,G4,167.75,0.25,116,120.0
1363,D2,167.75,0.25,127,120.0
1364,B1,167.75,0.25,127,120.0
1365,A1,168.0,0.75,127,120.0
1366,D2,168.0,0.75,127,120.0
1367,C#5,168.188,0.062,95,120.0
1368,A1,168.25,0.5,127,120.0
1369,F#5,168.25,0.25,116,120.0
1370,E-5,168.25,0.25,116,120.0
1371,G4,168.25,0.25,116,120.0
1372,F#5,168.75,0.5,127,120.0
1373,C#5,168.75,0.25,127,120.0
1374,G#2,168.75,0.5,127,120.0
1375,B1,168.75,0.5,127,120.0
1376,E-5,169.0,0.25,127,120.0
1377,D2,169.25,0.125,127,120.0
1378,F#5,169.25,0.5,127,120.0
1379,B4,169.25,0.5,127,120.0
1380,D2,169.375,0.125,127,120.0
1381,D2,169.5,0.125,127,120.0
1382,D2,169.625,0.125,127,120.0
1383,A1,169.75,0.25,127,120.0
1384,D2,169.75,0.25,127,120.0
1385,B1,169.75,0.25,127,120.0
1386,A1,170.0,0.25,127,120.0
1387,D2,170.0,0.25,127,120.0
1388,A1,170.25,0.5,127,120.0
1389,A1,170.25,0.25,127,120.0
1390,D2,170.25,0.25,127,120.0
1391,A1,170.5,0.25,127,120.0
1392,D2,170.5,0.25,127,120.0
1393,A1,170.75,0.25,127,120.0
1394,G#2,170.75,1.0,127,120.0
1395,B1,170.75,1.0,127,120.0
1396,A1,171.0,0.75,127,120.0
1397,B1,171.75,0.25,127,120.0
1398,A1,172.0,0.25,127,120.0
1399,D2,172.0,0.125,127,120.0
1400,D2,172.125,0.125,127,120.0
1401,A1,172.25,0.25,127,120.0
1402,D2,172.25,0.125,127,120.0
1403,D2,172.375,0.125,127,120.0
1404,A1,172.5,0.5,127,120.0
1405,D2,172.5,0.25,127,120.0
1406,A1,172.75,0.25,127,120.0
1407,G#2,172.75,0.25,127,120.0
1408,B1,172.75,0.25,127,120.0
1409,A1,173.0,0.25,127,120.0
1410,A1,173.0,0.25,127,120.0
1411,D2,173.0,0.25,127,120.0
1412,A1,173.25,0.25,127,120.0
1413,A1,173.25,0.5,127,120.0
1414,D2,173.25,0.5,127,120.0
1415,A1,173.5,0.25,127,120.0
1416,A1,173.75,0.25,127,120.0
1417,E5,173.75,0.25,127,120.0
1418,C#5,173.75,0.25,127,120.0
1419,G#4,173.75,0.25,127,120.0
1420,D2,173.75,0.125,127,120.0
1421,B1,173.75,0.125,127,120.0
1422,D2,173.875,0.125,127,120.0
1423,A1,174.0,0.25,127,120.0
1424,D2,174.0,0.125,127,120.0
1425,E5,174.0,0.5,127,120.0
1426,C#5,174.0,0.5,127,120.0
1427,G#4,174.0,0.5,127,120.0
1428,D2,174.125,0.125,127,120.0
1429,A1,174.25,0.25,127,120.0
1430,D2,174.25,0.25,127,120.0
1431,A1,174.5,0.25,127,120.0
1432,D2,174.5,0.25,127,120.0
1433,E-5,174.5,0.5,127,120.0
1434,B4,174.5,0.5,127,120.0
1435,F#4,174.5,0.5,127,120.0
1436,A1,174.75,0.25,127,120.0
1437,G#2,174.75,0.25,127,120.0
1438,D2,174.75,0.25,127,120.0
1439,B1,174.75,0.25,127,120.0
1440,A1,175.0,0.25,127,120.0
1441,A1,175.0,0.25,127,120.0
1442,D2,175.0,0.25,127,120.0
1443,A1,175.25,0.25,127,120.0
1444,A1,175.25,0.25,127,120.0
1445,D2,175.25,0.125,127,120.0
1446,C#5,175.25,0.25,127,120.0
1447,A4,175.25,0.25,127,120.0
1448,E4,175.25,0.25,127,120.0
1449,D2,175.375,0.125,127,120.0
1450,A1,175.5,0.5,127,120.0
1451,A1,175.5,0.25,127,120.0
1452,D2,175.5,0.125,127,120.0
1453,D2,175.625,0.125,127,120.0
1454,B1,175.75,1.0,127,120.0
1455,E5,175.75,0.25,127,120.0
1456,C#5,175.75,0.25,127,120.0
1457,G#4,175.75,0.25,127,120.0
1458,A1,176.0,0.25,127,120.0
1459,A1,176.25,0.5,127,120.0
1460,E-5,176.25,0.25,127,120.0
1461,B4,176.25,0.25,127,120.0
1462,F#4,176.25,0.25,127,120.0
1463,A1,176.75,0.25,127,120.0
1464,C#5,176.75,0.25,127,120.0
1465,A4,176.75,0.25,127,120.0
1466,E4,176.75,0.25,127,120.0
1467,G#2,176.75,1.0,106,120.0
1468,B2,176.75,1.0,106,120.0
1469,B1,176.75,1.0,106,120.0
1470,A1,177.0,0.25,127,120.0
1471,A1,177.25,0.25,127,120.0
1472,E-5,177.25,0.5,127,120.0
1473,B4,177.25,0.5,127,120.0
1474,F#4,177.25,0.5,127,120.0
1475,A1,177.5,0.25,127,120.0
1476,A1,177.75,0.25,127,120.0
1477,A1,177.75,0.25,127,120.0
1478,D2,177.75,0.25,127,120.0
1479,B1,177.75,0.25,127,120.0
1480,A1,178.0,0.25,127,120.0
1481,A1,178.0,0.75,127,120.0
1482,D2,178.0,0.75,127,120.0
1483,A1,178.25,0.25,127,120.0
1484,A1,178.5,0.25,127,120.0
1485,G#2,178.75,1.0,127,120.0
1486,B1,178.75,1.0,127,120.0
1487,B1,179.75,1.0,127,120.0
1488,E5,180.417,333/1000,127,120.0
1489,C#5,180.417,333/1000,127,120.0
1490,A4,180.417,333/1000,127,120.0
1491,A1,180.75,0.25,127,120.0
1492,E3,180.75,4.0,127,120.0
1493,A2,180.75,4.0,127,120.0
1494,G#2,180.75,0.5,127,120.0
1495,B1,180.75,0.5,127,120.0
1496,A1,181.0,0.75,127,120.0
1497,E5,181.083,333/1000,127,120.0
1498,C#5,181.083,333/1000,127,120.0
1499,A4,181.083,333/1000,127,120.0
1500,A1,181.25,0.5,127,120.0
1501,D2,181.25,0.5,127,120.0
1502,B1,181.75,1.0,127,120.0
1503,E5,181.75,333/1000,127,120.0
1504,C#5,181.75,333/1000,127,120.0
1505,A4,181.75,333/1000,127,120.0
1506,F#5,182.417,333/1000,127,120.0
1507,E-5,182.417,333/1000,127,120.0
1508,B4,182.417,333/1000,127,120.0
1509,G#2,182.75,0.5,127,120.0
1510,B1,182.75,0.5,127,120.0
1511,E5,183.083,333/1000,127,120.0
1512,C#5,183.083,333/1000,127,120.0
1513,A4,183.083,333/1000,127,120.0
1514,A1,183.25,0.5,127,120.0
1515,D2,183.25,0.5,127,120.0
1516,A1,183.75,0.25,127,120.0
1517,D2,183.75,0.25,127,120.0
1518,B1,183.75,0.25,127,120.0
1519,A1,184.0,0.75,127,120.0
1520,D2,184.0,0.75,127,120.0
1521,C#4,184.25,167/1000,127,120.0
1522,A1,184.25,0.5,127,120.0
1523,F#4,184.417,167/1000,127,120.0
1524,B4,184.583,167/1000,127,120.0
1525,C#5,184.75,167/1000,127,120.0
1526,F#3,184.75,4.0,127,120.0
1527,B2,184.75,4.0,127,120.0
1528,G#2,184.75,0.5,127,120.0
1529,B1,184.75,0.5,127,120.0
1530,F#5,184.917,167/1000,127,120.0
1531,B5,185.083,167/1000,127,120.0
1532,C#6,185.25,167/1000,127,120.0
1533,D2,185.25,0.125,127,120.0
1534,D2,185.375,0.125,127,120.0
1535,F#6,185.417,167/1000,127,120.0
1536,D2,185.5,0.125,127,120.0
1537,B6,185.583,167/1000,127,120.0
1538,D2,185.625,0.125,127,120.0
1539,A1,185.75,0.25,127,120.0
1540,D2,185.75,0.25,127,120.0
1541,B1,185.75,0.25,127,120.0
1542,A1,186.0,0.25,127,120.0
1543,D2,186.0,0.25,127,120.0
1544,A1,186.25,0.5,127,120.0
1545,A1,186.25,0.25,127,120.0
1546,D2,186.25,0.25,127,120.0
1547,A1,186.5,0.25,127,120.0
1548,D2,186.5,0.25,127,120.0
1549,G#2,186.75,1.0,127,120.0
1550,B1,186.75,1.0,127,120.0
1551,B1,187.75,0.25,127,120.0
1552,A5,187.75,0.25,127,120.0
1553,E5,187.75,0.25,127,120.0
1554,C#5,187.75,0.25,127,120.0
1555,A1,188.0,0.25,127,120.0
1556,D2,188.0,0.125,127,120.0
1557,A5,188.0,0.25,127,120.0
1558,E5,188.0,0.25,127,120.0
1559,C#5,188.0,0.25,127,120.0
1560,D2,188.125,0.125,127,120.0
1561,A1,188.25,0.25,127,120.0
1562,D2,188.25,0.125,127,120.0
1563,D2,188.375,0.125,127,120.0
1564,A1,188.5,0.5,127,120.0
1565,D2,188.5,0.25,127,120.0
1566,A5,188.5,0.25,127,120.0
1567,E5,188.5,0.25,127,120.0
1568,C#5,188.5,0.25,127,120.0
1569,A1,188.75,1.0,127,120.0
1570,E3,188.75,4.0,127,120.0
1571,A2,188.75,4.0,127,120.0
1572,G#2,188.75,0.25,127,120.0
1573,B1,188.75,0.25,127,120.0
1574,A1,189.0,0.25,127,120.0
1575,D2,189.0,0.25,127,120.0
1576,A1,189.25,0.5,127,120.0
1577,D2,189.25,0.5,127,120.0
1578,G#5,189.25,0.25,127,120.0
1579,E-5,189.25,0.25,127,120.0
1580,B4,189.25,0.25,127,120.0
1581,A1,189.75,0.25,127,120.0
1582,F#5,189.75,0.25,127,120.0
1583,E-5,189.75,0.25,127,120.0
1584,B4,189.75,0.25,127,120.0
1585,D2,189.75,0.125,127,120.0
1586,B1,189.75,0.125,127,120.0
1587,D2,189.875,0.125,127,120.0
1588,A1,190.0,0.25,127,120.0
1589,D2,190.0,0.125,127,120.0
1590,F#5,190.0,0.25,127,120.0
1591,E-5,190.0,0.25,127,120.0
1592,B4,190.0,0.25,127,120.0
1593,D2,190.125,0.125,127,120.0
1594,A1,190.25,0.25,127,120.0
1595,D2,190.25,0.25,127,120.0
1596,A1,190.5,0.25,127,120.0
1597,D2,190.5,0.25,127,120.0
1598,F#5,190.5,0.5,127,120.0
1599,E-5,190.5,0.5,127,120.0
1600,B4,190.5,0.5,127,120.0
1601,A1,190.75,0.25,127,120.0
1602,G#2,190.75,0.25,127,120.0
1603,D2,190.75,0.25,127,120.0
1604,B1,190.75,0.25,127,120.0
1605,A1,191.0,0.25,127,120.0
1606,D2,191.0,0.25,127,120.0
1607,A1,191.25,1.5,127,120.0
1608,A1,191.25,0.25,127,120.0
1609,D2,191.25,0.125,127,120.0
1610,E5,191.25,0.25,127,120.0
1611,C#5,191.25,0.25,127,120.0
1612,A4,191.25,0.25,127,120.0
1613,D2,191.375,0.125,127,120.0
1614,A1,191.5,0.25,127,120.0
1615,D2,191.5,0.125,127,120.0
1616,D2,191.625,0.125,127,120.0
1617,B1,191.75,1.0,127,120.0
1618,E5,191.75,0.25,127,120.0
1619,C#5,191.75,0.25,127,120.0
1620,A4,191.75,0.25,127,120.0
1621,A1,192.75,2.0,127,120.0
1622,F#3,192.75,4.0,127,120.0
1623,B2,192.75,4.0,127,120.0
1624,G#2,192.75,1.0,127,120.0
1625,B2,192.75,1.0,127,120.0
1626,B1,192.75,1.0,127,120.0
1627,C#2,193.75,1.0,127,120.0
1628,B1,193.75,0.5,127,120.0
1629,B3,194.25,0.25,127,120.0
1630,F#3,194.25,0.5,127,120.0
1631,A1,194.75,0.5,127,120.0
1632,C#2,194.75,0.75,127,120.0
1633,G#4,194.75,0.5,127,120.0
1634,E4,194.75,0.5,127,120.0
1635,C#4,194.75,0.5,127,120.0
1636,B3,194.75,0.5,127,120.0
1637,E-3,194.75,0.5,127,120.0
1638,D2,194.75,0.5,127,120.0
1639,F#3,195.25,0.5,127,120.0
1640,G#1,195.5,0.25,127,120.0
1641,G#4,195.5,0.25,127,120.0
1642,E4,195.5,0.25,127,120.0
1643,C#4,195.5,0.25,127,120.0
1644,B3,195.5,0.25,127,120.0
1645,C#2,195.75,0.25,127,120.0
1646,E-3,195.75,0.5,127,120.0
1647,G#1,196.0,0.25,127,120.0
1648,G#4,196.0,1.25,127,120.0
1649,E4,196.0,1.25,127,120.0
1650,C#4,196.0,1.25,127,120.0
1651,B3,196.0,1.25,127,120.0
1652,C1,196.25,0.5,127,120.0
1653,C#1,196.25,0.5,127,120.0
1654,F#3,196.25,0.25,127,120.0
1655,B1,196.25,0.25,127,120.0
1656,B1,196.5,0.25,127,120.0
1657,C#1,196.75,1.5,127,120.0
1658,C#1,196.75,0.25,127,120.0
1659,E-3,196.75,0.5,127,120.0
1660,D2,196.75,0.5,127,120.0
1661,G#1,197.0,0.25,127,120.0
1662,C#2,197.25,0.25,127,120.0
1663,G#4,197.25,0.5,127,120.0
1664,E4,197.25,0.5,127,120.0
1665,C#4,197.25,0.5,127,120.0
1666,B3,197.25,0.5,127,120.0
1667,F#3,197.25,0.5,127,120.0
1668,B1,197.25,0.5,127,120.0
1669,G#1,197.5,0.25,127,120.0
1670,F#1,197.75,0.25,127,120.0
1671,E-3,197.75,0.5,127,120.0
1672,B1,197.75,0.5,127,120.0
1673,F#4,198.25,0.5,127,120.0
1674,G#1,198.25,0.25,127,120.0
1675,F#1,198.25,0.25,127,120.0
1676,F#3,198.25,0.5,127,120.0
1677,B1,198.25,0.5,127,120.0
1678,C#2,198.5,0.25,127,120.0
1679,F#1,198.5,0.25,127,120.0
1680,C5,198.75,0.25,127,120.0
1681,F#2,198.75,0.5,127,120.0
1682,E-3,198.75,0.5,127,120.0
1683,D2,198.75,0.5,127,120.0
1684,E5,199.0,0.25,127,120.0
1685,C#5,199.0,0.25,127,120.0
1686,F#4,199.25,0.25,127,120.0
1687,F#1,199.25,0.25,127,120.0
1688,F#3,199.25,0.5,127,120.0
1689,E5,199.5,0.5,127,120.0
1690,C5,199.5,0.25,127,120.0
1691,E2,199.5,0.25,127,120.0
1692,C#5,199.75,0.25,127,120.0
1693,C#2,199.75,1.0,127,120.0
1694,E2,199.75,0.25,127,120.0
1695,E-3,199.75,0.5,127,120.0
1696,F#4,200.0,0.25,127,120.0
1697,F#1,200.0,0.25,127,120.0
1698,E-2,200.25,0.25,127,120.0
1699,E-5,200.25,0.25,127,120.0
1700,B4,200.25,0.25,127,120.0
1701,F#3,200.25,0.5,127,120.0
1702,B1,200.25,0.5,127,120.0
1703,F#1,200.5,0.25,127,120.0
1704,A4,200.75,0.25,127,120.0
1705,E-2,200.75,0.25,127,120.0
1706,E-3,200.75,0.25,127,120.0
1707,C#5,200.75,0.5,127,120.0
1708,F#4,200.75,0.5,127,120.0
1709,F#2,200.75,2.0,127,120.0
1710,F#1,200.75,2.0,127,120.0
1711,B-4,201.0,0.25,127,120.0
1712,D2,201.0,0.25,127,120.0
1713,D2,201.0,0.25,127,120.0
1714,F#4,201.25,0.5,127,120.0
1715,F#1,201.25,0.25,127,120.0
1716,F#3,201.25,0.5,127,120.0
1717,C#2,201.5,0.25,127,120.0
1718,C#2,201.75,0.75,127,120.0
1719,E-3,201.75,0.5,127,120.0
1720,B1,201.75,0.5,127,120.0
1721,C#4,202.25,0.25,127,120.0
1722,F#3,202.25,0.5,127,120.0
1723,G#1,202.5,0.25,127,120.0
1724,C#2,202.75,0.25,127,120.0
1725,G#4,202.75,0.25,127,120.0
1726,E4,202.75,0.25,127,120.0
1727,C#4,202.75,0.25,127,120.0
1728,F#2,202.75,1.5,127,120.0
1729,F#1,202.75,1.5,127,120.0
1730,E-3,202.75,0.5,127,120.0
1731,D2,202.75,0.5,127,120.0
1732,C#2,203.0,0.25,127,120.0
1733,G#4,203.0,0.25,127,120.0
1734,E4,203.0,0.25,127,120.0
1735,C#4,203.0,0.25,127,120.0
1736,G#1,203.25,0.25,127,120.0
1737,F#3,203.25,0.25,127,120.0
1738,G#1,203.5,0.25,127,120.0
1739,B1,203.5,0.25,127,120.0
1740,G#4,203.5,0.25,127,120.0
1741,E4,203.5,0.25,127,120.0
1742,C#4,203.5,0.25,127,120.0
1743,E-3,203.75,0.5,127,120.0
1744,B1,203.75,0.5,127,120.0
1745,G#1,204.0,0.25,127,120.0
1746,G#4,204.0,0.25,127,120.0
1747,C#4,204.0,0.25,127,120.0
1748,C#1,204.25,0.5,127,120.0
1749,G#4,204.25,0.25,127,120.0
1750,E4,204.25,0.25,127,120.0
1751,C#4,204.25,0.25,127,120.0
1752,F#2,204.25,0.5,127,120.0
1753,F#1,204.25,0.5,127,120.0
1754,F#3,204.25,0.5,127,120.0
1755,B1,204.25,0.5,127,120.0
1756,C#2,204.75,3.5,127,120.0
1757,C#1,204.75,0.25,127,120.0
1758,G#4,204.75,0.5,127,120.0
1759,E4,204.75,0.5,127,120.0
1760,C#4,204.75,0.5,127,120.0
1761,E-3,204.75,0.5,127,120.0
1762,D2,204.75,0.5,127,120.0
1763,C#1,205.0,0.25,127,120.0
1764,C#1,205.25,0.25,127,120.0
1765,F#3,205.25,0.5,127,120.0
1766,B1,205.25,0.5,127,120.0
1767,F1,205.5,0.25,127,120.0
1768,F#1,205.75,0.75,127,120.0
1769,E4,205.75,0.75,127,120.0
1770,B-3,205.75,0.75,127,120.0
1771,E-3,205.75,0.5,127,120.0
1772,D2,205.75,0.5,127,120.0
1773,B1,205.75,0.5,127,120.0
1774,F#3,206.25,0.25,127,120.0
1775,G#1,206.5,0.75,127,120.0
1776,B1,206.5,0.25,127,120.0
1777,E4,206.5,0.75,127,120.0
1778,B3,206.5,0.75,127,120.0
1779,E-3,206.75,0.5,127,120.0
1780,B-1,207.25,0.75,127,120.0
1781,E4,207.25,0.75,127,120.0
1782,C#4,207.25,0.75,127,120.0
1783,F#3,207.25,0.5,127,120.0
1784,B1,207.25,0.5,127,120.0
1785,E-3,207.75,0.25,127,120.0
1786,G#1,208.0,0.75,127,120.0
1787,B1,208.0,0.25,127,120.0
1788,E4,208.0,0.75,127,120.0
1789,B3,208.0,0.75,127,120.0
1790,C#2,208.25,0.5,127,120.0
1791,F#3,208.25,0.5,127,120.0
1792,F#1,208.75,0.5,127,120.0
1793,E4,208.75,1.0,127,120.0
1794,B-3,208.75,1.0,127,120.0
1795,F#2,208.75,0.75,127,120.0
1796,F#1,208.75,0.75,127,120.0
1797,E-3,208.75,0.5,127,120.0
1798,B1,208.75,0.5,127,120.0
1799,G#1,209.25,0.5,127,120.0
1800,F#3,209.25,0.5,127,120.0
1801,B1,209.25,0.5,127,120.0
1802,G#2,209.5,0.75,127,120.0
1803,G#1,209.5,0.75,127,120.0
1804,C#2,209.75,0.75,127,120.0
1805,D2,209.75,0.25,127,120.0
1806,B1,209.75,0.25,127,120.0
1807,D2,210.0,0.25,127,120.0
1808,F#3,210.25,0.5,127,120.0
1809,B-2,210.25,0.75,127,120.0
1810,B-1,210.25,0.75,127,120.0
1811,G#1,210.5,0.25,127,120.0
1812,C#1,210.75,0.25,127,120.0
1813,D2,210.75,0.25,127,120.0
1814,B1,210.75,0.25,127,120.0
1815,C#1,211.0,0.5,127,120.0
1816,D2,211.0,0.25,127,120.0
1817,G#2,211.0,0.75,127,120.0
1818,G#1,211.0,0.75,127,120.0
1819,F#3,211.25,0.5,127,120.0
1820,G#1,211.5,0.25,127,120.0
1821,C#2,211.75,0.25,127,120.0
1822,F#2,211.75,1.0,127,120.0
1823,F#1,211.75,1.0,127,120.0
1824,D2,211.75,0.25,127,120.0
1825,B1,211.75,0.25,127,120.0
1826,D2,212.0,0.25,127,120.0
1827,C#2,212.25,0.25,127,120.0
1828,F#3,212.25,0.5,127,120.0
1829,G#1,212.5,0.25,127,120.0
1830,C#2,212.75,1.0,127,120.0
1831,C#1,212.75,0.25,127,120.0
1832,D2,212.75,0.5,127,120.0
1833,B1,212.75,0.5,127,120.0
1834,C#1,213.25,0.25,127,120.0
1835,F#3,213.25,0.25,127,120.0
1836,F#1,213.5,0.25,127,120.0
1837,C#3,213.5,0.25,127,120.0
1838,D2,213.5,0.25,127,120.0
1839,B1,213.5,0.25,127,120.0
1840,F#6,213.75,1/10,127,120.0
1841,C#3,213.75,1.0,127,120.0
1842,F#1,213.75,0.5,127,120.0
1843,F6,213.85,1/10,127,120.0
1844,E6,213.95,1/10,127,120.0
1845,D6,214.05,1/10,127,120.0
1846,C6,214.15,1/10,127,120.0
1847,B5,214.25,1/10,127,120.0
1848,B-1,214.25,0.25,127,120.0
1849,F#3,214.25,0.5,127,120.0
1850,B1,214.25,0.5,127,120.0
1851,A5,214.35,1/10,127,120.0
1852,G5,214.45,1/10,127,120.0
1853,F#1,214.5,0.5,127,120.0
1854,F#5,214.55,1/10,127,120.0
1855,F5,214.65,1/10,127,120.0
1856,E5,214.75,1/10,127,120.0
1857,C#2,214.75,0.5,127,120.0
1858,E-3,214.75,0.5,127,120.0
1859,D2,214.75,0.5,127,120.0
1860,D5,214.85,1/10,127,120.0
1861,C5,214.95,1/10,127,120.0
1862,B1,215.0,0.25,127,120.0
1863,B4,215.05,1/10,127,120.0
1864,A4,215.15,1/10,127,120.0
1865,G4,215.25,1/10,127,120.0
1866,C#3,215.25,0.25,127,120.0
1867,B1,215.25,0.25,127,120.0
1868,F#3,215.25,0.5,127,120.0
1869,F4,215.35,1/10,127,120.0
1870,E4,215.45,1/10,127,120.0
1871,F#1,215.5,0.25,127,120.0
1872,D4,215.55,1/10,127,120.0
1873,C4,215.65,1/10,127,120.0
1874,B3,215.75,1/10,127,120.0
1875,C2,215.75,0.25,127,120.0
1876,E-3,215.75,0.5,127,120.0
1877,A3,215.85,1/10,127,120.0
1878,G3,215.95,1/10,127,120.0
1879,C2,216.0,0.25,127,120.0
1880,F3,216.05,1/10,127,120.0
1881,E3,216.15,1/10,127,120.0
1882,F#1,216.25,0.25,127,120.0
1883,F#3,216.25,0.25,127,120.0
1884,B1,216.25,0.25,127,120.0
1885,C#2,216.5,0.25,127,120.0
1886,B1,216.5,0.25,127,120.0
1887,F#2,216.5,0.25,127,120.0
1888,F#1,216.5,0.25,127,120.0
1889,C#2,216.75,0.25,127,120.0
1890,F#2,216.75,2.5,127,120.0
1891,F#1,216.75,2.5,127,120.0
1892,E-3,216.75,0.5,127,120.0
1893,D2,216.75,0.5,127,120.0
1894,F#1,217.0,0.25,127,120.0
1895,C#2,217.25,0.25,127,120.0
1896,F#3,217.25,0.5,127,120.0
1897,B1,217.25,0.5,127,120.0
1898,F#1,217.5,0.25,127,120.0
1899,C#2,217.75,0.25,127,120.0
1900,E5,217.75,0.75,127,120.0
1901,C#5,217.75,0.75,127,120.0
1902,B4,217.75,0.75,127,120.0
1903,G#4,217.75,0.75,127,120.0
1904,D2,217.75,0.25,127,120.0
1905,B1,217.75,0.25,127,120.0
1906,C#2,218.0,0.5,127,120.0
1907,D2,218.0,0.25,127,120.0
1908,F#3,218.25,0.5,127,120.0
1909,G#1,218.5,0.25,127,120.0
1910,E5,218.5,0.75,119,120.0
1911,C#5,218.5,0.75,119,120.0
1912,B4,218.5,0.75,119,120.0
1913,G#4,218.5,0.75,119,120.0
1914,C#1,218.75,0.5,127,120.0
1915,D2,218.75,0.25,127,120.0
1916,B1,218.75,0.25,127,120.0
1917,D2,219.0,0.25,127,120.0
1918,F#1,219.25,0.5,127,120.0
1919,C#1,219.25,0.25,127,120.0
1920,F#3,219.25,0.5,127,120.0
1921,E5,219.25,0.75,127,120.0
1922,C#5,219.25,0.75,127,120.0
1923,B4,219.25,0.75,127,120.0
1924,G#4,219.25,0.75,127,120.0
1925,C#1,219.5,0.25,127,120.0
1926,C#1,219.75,0.25,127,120.0
1927,D2,219.75,0.25,127,120.0
1928,B1,219.75,0.25,127,120.0
1929,G#1,220.0,0.25,127,120.0
1930,D2,220.0,0.25,127,120.0
1931,E5,220.0,0.75,127,120.0
1932,C#5,220.0,0.75,127,120.0
1933,B4,220.0,0.75,127,120.0
1934,G#4,220.0,0.75,127,120.0
1935,C#2,220.25,0.5,127,120.0
1936,F#3,220.25,0.5,127,120.0
1937,C#3,220.75,2.0,127,120.0
1938,C#2,220.75,1.0,127,120.0
1939,C#2,220.75,0.25,127,120.0
1940,E5,220.75,0.5,127,120.0
1941,C#5,220.75,0.5,127,120.0
1942,B4,220.75,0.5,127,120.0
1943,G#4,220.75,0.5,127,120.0
1944,D2,220.75,0.5,127,120.0
1945,B1,220.75,0.5,127,120.0
1946,G#1,221.0,0.25,127,120.0
1947,C#1,221.25,0.5,127,120.0
1948,F#3,221.25,0.25,127,120.0
1949,C#3,221.5,0.25,127,120.0
1950,D2,221.5,0.25,127,120.0
1951,B1,221.5,0.25,127,120.0
1952,C#2,221.75,1.5,127,120.0
1953,F#1,221.75,0.25,127,120.0
1954,F#1,222.25,0.25,127,120.0
1955,C#5,222.25,0.25,127,120.0
1956,B-4,222.25,0.25,127,120.0
1957,F#4,222.25,0.25,127,120.0
1958,F#3,222.25,0.5,127,120.0
1959,B1,222.25,0.5,127,120.0
1960,F#1,222.5,0.25,127,120.0
1961,F#1,222.75,0.25,127,120.0
1962,C#5,222.75,0.25,127,120.0
1963,B-4,222.75,0.25,127,120.0
1964,F#4,222.75,0.25,127,120.0
1965,E-3,222.75,0.5,127,120.0
1966,D2,222.75,0.5,127,120.0
1967,C#2,223.0,0.25,127,120.0
1968,C#3,223.25,0.5,127,120.0
1969,F#1,223.25,0.25,127,120.0
1970,B4,223.25,0.25,127,120.0
1971,G#4,223.25,0.25,127,120.0
1972,E4,223.25,0.25,127,120.0
1973,F#3,223.25,0.25,127,120.0
1974,B1,223.25,0.25,127,120.0
1975,F#1,223.5,0.25,127,120.0
1976,D2,223.5,0.25,127,120.0
1977,C#5,223.5,0.25,127,120.0
1978,B-4,223.5,0.25,127,120.0
1979,F#4,223.5,0.25,127,120.0
1980,C#2,223.75,0.5,127,120.0
1981,F#1,223.75,0.25,127,120.0
1982,E-3,223.75,0.5,127,120.0
1983,B1,223.75,0.5,127,120.0
1984,F#2,224.25,0.5,127,120.0
1985,F#1,224.25,0.5,127,120.0
1986,D2,224.25,1.5,127,120.0
1987,C#3,224.25,1.0,127,120.0
1988,B1,224.25,1.0,127,120.0
1989,F#2,224.75,1.75,127,120.0
1990,F#1,224.75,1.0,127,120.0
1991,G2,225.25,0.5,127,120.0
1992,E5,225.25,0.25,127,120.0
1993,E4,225.25,0.25,127,120.0
1994,F#5,225.5,0.25,127,120.0
1995,F#4,225.5,0.25,127,120.0
1996,C#4,225.75,0.25,127,120.0
1997,F#1,225.75,1.0,127,120.0
1998,D2,225.75,2.5,127,120.0
1999,G#5,225.75,0.25,127,120.0
2000,G#4,225.75,0.25,127,120.0
2001,G2,225.75,0.25,127,120.0
2002,B1,225.75,0.25,127,120.0
2003,E-4,226.0,0.25,127,120.0
2004,G2,226.0,0.25,127,120.0
2005,F#5,226.0,0.25,127,120.0
2006,F#4,226.0,0.25,127,120.0
2007,F#4,226.25,0.25,127,120.0
2008,G2,226.25,0.25,127,120.0
2009,E5,226.25,0.25,127,120.0
2010,E4,226.25,0.25,127,120.0
2011,C#4,226.5,0.25,127,120.0
2012,F#2,226.5,0.25,127,120.0
2013,B5,226.5,0.25,127,120.0
2014,B4,226.5,0.25,127,120.0
2015,B2,226.5,0.25,127,120.0
2016,B1,226.5,0.25,127,120.0
2017,E-4,226.75,0.25,127,120.0
2018,B2,226.75,0.25,127,120.0
2019,G#5,226.75,0.25,127,120.0
2020,G#4,226.75,0.25,127,120.0
2021,F#4,227.0,0.25,127,120.0
2022,A2,227.0,0.25,127,120.0
2023,F#5,227.0,0.25,127,120.0
2024,F#4,227.0,0.25,127,120.0
2025,C#4,227.25,0.25,127,120.0
2026,A2,227.25,0.25,127,120.0
2027,E5,227.25,0.25,127,120.0
2028,E4,227.25,0.25,127,120.0
2029,E-4,227.5,0.25,127,120.0
2030,A2,227.5,0.25,127,120.0
2031,E5,227.5,0.25,127,120.0
2032,E4,227.5,0.25,127,120.0
2033,F#4,227.75,0.25,127,120.0
2034,B2,227.75,0.25,127,120.0
2035,E5,227.75,0.25,127,120.0
2036,E4,227.75,0.25,127,120.0
2037,C#4,228.0,0.25,127,120.0
2038,B2,228.0,0.25,127,120.0
2039,F#5,228.0,0.25,127,120.0
2040,F#4,228.0,0.25,127,120.0
2041,E-4,228.25,0.25,127,120.0
2042,D2,228.25,2.75,127,120.0
2043,G#5,228.25,0.25,127,120.0
2044,G#4,228.25,0.25,127,120.0
2045,G2,228.25,0.25,127,120.0
2046,B1,228.25,0.25,127,120.0
2047,F#4,228.5,0.25,127,120.0
2048,G2,228.5,0.25,127,120.0
2049,F#5,228.5,0.25,127,120.0
2050,F#4,228.5,0.25,127,120.0
2051,C#4,228.75,0.25,127,120.0
2052,G2,228.75,0.25,127,120.0
2053,E5,228.75,0.25,127,120.0
2054,E4,228.75,0.25,127,120.0
2055,E-4,229.0,0.25,127,120.0
2056,A5,229.0,0.25,127,120.0
2057,A4,229.0,0.25,127,120.0
2058,B2,229.0,0.25,127,120.0
2059,B1,229.0,0.25,127,120.0
2060,F#4,229.25,0.25,127,120.0
2061,D2,229.25,0.25,127,120.0
2062,G#5,229.25,0.25,127,120.0
2063,G#4,229.25,0.25,127,120.0
2064,D2,229.5,0.25,127,120.0
2065,F#5,229.5,0.25,127,120.0
2066,F#4,229.5,0.25,127,120.0
2067,D2,229.75,0.25,127,120.0
2068,E-5,229.75,0.25,127,120.0
2069,B4,229.75,0.25,127,120.0
2070,G#4,229.75,0.25,127,120.0
2071,E5,229.75,0.25,127,120.0
2072,E4,229.75,0.25,127,120.0
2073,D2,230.0,0.5,127,120.0
2074,E-5,230.0,0.25,127,120.0
2075,B4,230.0,0.25,127,120.0
2076,G#4,230.0,0.25,127,120.0
2077,E5,230.0,0.25,127,120.0
2078,E4,230.0,0.25,127,120.0
2079,D2,230.5,0.25,127,120.0
2080,E5,230.5,0.25,127,120.0
2081,E4,230.5,0.25,127,120.0
2082,D2,230.75,0.25,127,120.0
2083,E-5,230.75,0.25,127,120.0
2084,B4,230.75,0.25,127,120.0
2085,G#4,230.75,0.25,127,120.0
2086,F#5,230.75,0.25,127,120.0
2087,F#4,230.75,0.25,127,120.0
2088,D1,231.0,2.5,127,120.0
2089,E-5,231.0,0.25,127,120.0
2090,B4,231.0,0.25,127,120.0
2091,G#4,231.0,0.25,127,120.0
2092,G#5,231.0,0.25,127,120.0
2093,G#4,231.0,0.25,127,120.0
2094,G2,231.0,0.25,127,120.0
2095,B1,231.0,0.25,127,120.0
2096,G2,231.25,0.25,127,120.0
2097,F#5,231.25,0.25,127,120.0
2098,F#4,231.25,0.25,127,120.0
2099,G2,231.5,0.25,127,120.0
2100,E5,231.5,0.25,127,120.0
2101,E4,231.5,0.25,127,120.0
2102,E-5,231.75,0.25,127,120.0
2103,B4,231.75,0.25,127,120.0
2104,G#4,231.75,0.25,127,120.0
2105,B5,231.75,0.25,127,120.0
2106,B4,231.75,0.25,127,120.0
2107,B2,231.75,0.25,127,120.0
2108,B1,231.75,0.25,127,120.0
2109,B2,232.0,0.25,127,120.0
2110,E-5,232.0,0.25,127,120.0
2111,B4,232.0,0.25,127,120.0
2112,G#4,232.0,0.25,127,120.0
2113,G#5,232.0,0.25,127,120.0
2114,G#4,232.0,0.25,127,120.0
2115,A2,232.25,0.25,127,120.0
2116,F#5,232.25,0.25,127,120.0
2117,F#4,232.25,0.25,127,120.0
2118,A2,232.5,0.25,127,120.0
2119,E5,232.5,0.25,127,120.0
2120,E4,232.5,0.25,127,120.0
2121,A2,232.75,0.25,127,120.0
2122,E-5,232.75,0.75,127,120.0
2123,B4,232.75,0.75,127,120.0
2124,G#4,232.75,0.75,127,120.0
2125,E5,232.75,0.25,127,120.0
2126,E4,232.75,0.25,127,120.0
2127,B2,233.0,0.25,127,120.0
2128,E5,233.0,0.25,127,120.0
2129,E4,233.0,0.25,127,120.0
2130,B2,233.25,0.25,127,120.0
2131,F#5,233.25,0.25,127,120.0
2132,F#4,233.25,0.25,127,120.0
2133,D1,233.5,2.75,127,120.0
2134,C#5,233.5,0.25,127,120.0
2135,B-4,233.5,0.25,127,120.0
2136,F#4,233.5,0.25,127,120.0
2137,G#5,233.5,0.25,127,120.0
2138,G#4,233.5,0.25,127,120.0
2139,G2,233.5,0.25,127,120.0
2140,B1,233.5,0.25,127,120.0
2141,G2,233.75,0.25,127,120.0
2142,C#5,233.75,0.5,127,120.0
2143,B-4,233.75,0.5,127,120.0
2144,F#4,233.75,0.5,127,120.0
2145,F#5,233.75,0.25,127,120.0
2146,F#4,233.75,0.25,127,120.0
2147,G2,234.0,0.25,127,120.0
2148,E5,234.0,0.25,127,120.0
2149,E4,234.0,0.25,127,120.0
2150,A5,234.25,0.25,127,120.0
2151,A4,234.25,0.25,127,120.0
2152,B2,234.25,0.25,127,120.0
2153,B1,234.25,0.25,127,120.0
2154,D2,234.5,0.25,127,120.0
2155,G#5,234.5,0.25,127,120.0
2156,G#4,234.5,0.25,127,120.0
2157,D2,234.75,0.25,127,120.0
2158,F#5,234.75,0.25,127,120.0
2159,F#4,234.75,0.25,127,120.0
2160,D2,235.0,0.25,127,120.0
2161,E5,235.0,0.25,127,120.0
2162,E4,235.0,0.25,127,120.0
2163,D2,235.25,0.5,127,120.0
2164,E5,235.25,0.25,127,120.0
2165,E4,235.25,0.25,127,120.0
2166,E4,235.75,0.25,127,120.0
2167,D2,235.75,0.25,127,120.0
2168,F#4,236.0,0.25,127,120.0
2169,D2,236.0,0.25,127,120.0
2170,G#4,236.25,0.25,127,120.0
2171,D2,236.25,2.5,127,120.0
2172,B-2,236.25,0.25,127,120.0
2173,B1,236.25,0.25,127,120.0
2174,F#4,236.5,0.25,127,120.0
2175,F#2,236.5,0.25,127,120.0
2176,E4,236.75,0.25,127,120.0
2177,F#2,236.75,0.25,127,120.0
2178,B4,237.0,0.25,127,120.0
2179,F#2,237.0,0.25,127,120.0
2180,B1,237.0,0.25,127,120.0
2181,G#4,237.25,0.25,127,120.0
2182,F#2,237.25,0.25,127,120.0
2183,F#4,237.5,0.25,127,120.0
2184,B-2,237.5,0.25,127,120.0
2185,E4,237.75,0.25,127,120.0
2186,F#2,237.75,0.25,127,120.0
2187,E-5,237.75,0.25,127,120.0
2188,B4,237.75,0.25,127,120.0
2189,G#4,237.75,0.25,127,120.0
2190,E4,238.0,0.25,127,120.0
2191,F#2,238.0,0.25,127,120.0
2192,E-5,238.0,0.25,127,120.0
2193,B4,238.0,0.25,127,120.0
2194,G#4,238.0,0.25,127,120.0
2195,E4,238.25,0.25,127,120.0
2196,F#2,238.25,0.25,127,120.0
2197,F#4,238.5,0.25,127,120.0
2198,F#2,238.5,0.25,127,120.0
2199,G#4,238.75,0.25,127,120.0
2200,D2,238.75,2.75,127,120.0
2201,E-5,238.75,0.25,127,120.0
2202,B4,238.75,0.25,127,120.0
2203,G#4,238.75,0.25,127,120.0
2204,B-2,238.75,0.25,127,120.0
2205,B1,238.75,0.25,127,120.0
2206,F#4,239.0,0.25,127,120.0
2207,F#2,239.0,0.25,127,120.0
2208,E-5,239.0,0.25,127,120.0
2209,B4,239.0,0.25,127,120.0
2210,G#4,239.0,0.25,127,120.0
2211,E4,239.25,0.25,127,120.0
2212,F#2,239.25,0.25,127,120.0
2213,A4,239.5,0.25,127,120.0
2214,B-2,239.5,0.25,127,120.0
2215,B1,239.5,0.25,127,120.0
2216,G#4,239.75,0.25,127,120.0
2217,F#2,239.75,0.25,127,120.0
2218,E-5,239.75,0.25,127,120.0
2219,B4,239.75,0.25,127,120.0
2220,G#4,239.75,0.25,127,120.0
2221,F#4,240.0,0.25,127,120.0
2222,F#2,240.0,0.25,127,120.0
2223,E-5,240.0,0.25,127,120.0
2224,B4,240.0,0.25,127,120.0
2225,G#4,240.0,0.25,127,120.0
2226,E4,240.25,0.25,127,120.0
2227,F#2,240.25,0.25,127,120.0
2228,E4,240.5,0.25,127,120.0
2229,F#2,240.5,0.25,127,120.0
2230,E-5,240.75,0.75,127,120.0
2231,B4,240.75,0.75,127,120.0
2232,G#4,240.75,0.75,127,120.0
2233,E4,241.0,0.25,127,120.0
2234,F#2,241.0,0.25,127,120.0
2235,F#4,241.25,0.25,127,120.0
2236,F#2,241.25,0.25,127,120.0
2237,G#4,241.5,0.25,127,120.0
2238,D2,241.5,2.5,127,120.0
2239,C#5,241.5,0.25,127,120.0
2240,B-4,241.5,0.25,127,120.0
2241,F#4,241.5,0.25,127,120.0
2242,B-2,241.5,0.25,127,120.0
2243,B1,241.5,0.25,127,120.0
2244,F#4,241.75,0.25,127,120.0
2245,F#2,241.75,0.25,127,120.0
2246,C#5,241.75,0.5,127,120.0
2247,B-4,241.75,0.5,127,120.0
2248,F#4,241.75,0.5,127,120.0
2249,E4,242.0,0.25,127,120.0
2250,F#2,242.0,0.25,127,120.0
2251,B4,242.25,0.25,127,120.0
2252,F#2,242.25,0.25,127,120.0
2253,B1,242.25,0.25,127,120.0
2254,G#4,242.5,0.25,127,120.0
2255,F#2,242.5,0.25,127,120.0
2256,F#4,242.75,0.25,127,120.0
2257,B-2,242.75,0.25,127,120.0
2258,E4,243.0,0.25,127,120.0
2259,F#2,243.0,0.25,127,120.0
2260,E4,243.25,0.25,127,120.0
2261,F#2,243.25,0.25,127,120.0
2262,E4,243.5,0.25,127,120.0
2263,F#2,243.5,0.25,127,120.0
2264,F#4,243.75,0.25,127,120.0
2265,F#2,243.75,0.25,127,120.0
2266,G#4,244.0,0.25,127,120.0
2267,D2,244.0,2.25,127,120.0
2268,B-2,244.0,0.25,127,120.0
2269,B1,244.0,0.25,127,120.0
2270,F#4,244.25,0.25,127,120.0
2271,F#2,244.25,0.25,127,120.0
2272,E4,244.5,0.25,127,120.0
2273,F#2,244.5,0.25,127,120.0
2274,A4,244.75,0.25,127,120.0
2275,B-2,244.75,0.25,127,120.0
2276,B1,244.75,0.25,127,120.0
2277,G#4,245.0,0.25,127,120.0
2278,F#2,245.0,0.25,127,120.0
2279,F#4,245.25,0.25,127,120.0
2280,B-2,245.25,0.25,127,120.0
2281,E5,245.25,0.25,127,120.0
2282,E4,245.25,0.25,127,120.0
2283,E4,245.5,0.25,127,120.0
2284,F#2,245.5,0.25,127,120.0
2285,F#5,245.5,0.25,127,120.0
2286,F#4,245.5,0.25,127,120.0
2287,E4,245.75,0.25,127,120.0
2288,F#2,245.75,0.25,127,120.0
2289,G#5,245.75,0.25,127,120.0
2290,G#4,245.75,0.25,127,120.0
2291,F#2,246.0,0.25,127,120.0
2292,F#5,246.0,0.25,127,120.0
2293,F#4,246.0,0.25,127,120.0
2294,D2,246.25,0.25,127,120.0
2295,E5,246.25,0.25,127,120.0
2296,E4,246.25,0.25,127,120.0
2297,F#2,246.25,0.25,127,120.0
2298,B1,246.25,0.25,127,120.0
2299,C2,246.5,0.25,127,120.0
2300,B5,246.5,0.25,127,120.0
2301,B4,246.5,0.25,127,120.0
2302,F#2,246.5,0.25,127,120.0
2303,C#3,246.5,0.25,127,120.0
2304,B1,246.5,0.25,127,120.0
2305,C3,246.75,4.0,127,120.0
2306,C2,246.75,2.0,127,120.0
2307,G#5,246.75,0.25,127,120.0
2308,G#4,246.75,0.25,127,120.0
2309,F#5,247.0,0.25,127,120.0
2310,F#4,247.0,0.25,127,120.0
2311,E5,247.25,0.25,127,120.0
2312,E4,247.25,0.25,127,120.0
2313,E5,247.5,0.25,127,120.0
2314,E4,247.5,0.25,127,120.0
2315,E5,247.75,0.25,127,120.0
2316,E4,247.75,0.25,127,120.0
2317,F3,247.75,0.75,127,120.0
2318,D2,247.75,0.75,127,120.0
2319,F#5,248.0,0.25,127,120.0
2320,F#4,248.0,0.25,127,120.0
2321,G#5,248.25,0.25,127,120.0
2322,G#4,248.25,0.25,127,120.0
2323,B1,248.5,0.25,127,120.0
2324,F#5,248.5,0.25,127,120.0
2325,F#4,248.5,0.25,127,120.0
2326,C2,248.75,0.25,127,120.0
2327,F3,248.75,0.25,127,120.0
2328,E5,248.75,0.25,127,120.0
2329,E4,248.75,0.25,127,120.0
2330,C2,249.0,0.5,127,120.0
2331,B1,249.0,0.5,127,120.0
2332,A5,249.0,0.25,127,120.0
2333,A4,249.0,0.25,127,120.0
2334,G#5,249.25,0.25,127,120.0
2335,G#4,249.25,0.25,127,120.0
2336,C2,249.5,1.25,127,120.0
2337,B1,249.5,0.25,127,120.0
2338,F#5,249.5,0.25,127,120.0
2339,F#4,249.5,0.25,127,120.0
2340,E5,249.75,0.25,127,120.0
2341,E4,249.75,0.25,127,120.0
2342,F3,249.75,0.75,127,120.0
2343,D2,249.75,0.75,127,120.0
2344,E5,250.0,0.25,127,120.0
2345,E4,250.0,0.25,127,120.0
2346,B1,250.5,0.25,127,120.0
2347,E5,250.5,0.25,127,120.0
2348,E4,250.5,0.25,127,120.0
2349,C3,250.75,4.0,127,120.0
2350,C2,250.75,0.25,127,120.0
2351,F#5,250.75,0.25,127,120.0
2352,F#4,250.75,0.25,127,120.0
2353,F3,250.75,0.5,127,120.0
2354,B1,250.75,0.5,127,120.0
2355,C2,251.0,0.75,127,120.0
2356,G#5,251.0,0.25,127,120.0
2357,G#4,251.0,0.25,127,120.0
2358,B1,251.25,0.5,127,120.0
2359,F#5,251.25,0.25,127,120.0
2360,F#4,251.25,0.25,127,120.0
2361,E5,251.5,0.25,127,120.0
2362,E4,251.5,0.25,127,120.0
2363,C2,251.75,1.0,127,120.0
2364,B5,251.75,0.25,127,120.0
2365,B4,251.75,0.25,127,120.0
2366,F3,251.75,1.0,127,120.0
2367,D2,251.75,1.0,127,120.0
2368,G#5,252.0,0.25,127,120.0
2369,G#4,252.0,0.25,127,120.0
2370,F#5,252.25,0.25,127,120.0
2371,F#4,252.25,0.25,127,120.0
2372,E5,252.5,0.25,127,120.0
2373,E4,252.5,0.25,127,120.0
2374,C2,252.75,0.25,127,120.0
2375,F3,252.75,0.25,127,120.0
2376,E5,252.75,0.25,127,120.0
2377,E4,252.75,0.25,127,120.0
2378,C2,253.0,0.75,127,120.0
2379,B1,253.0,0.25,127,120.0
2380,E5,253.0,0.25,127,120.0
2381,E4,253.0,0.25,127,120.0
2382,B1,253.25,0.25,127,120.0
2383,F#5,253.25,0.25,127,120.0
2384,F#4,253.25,0.25,127,120.0
2385,B1,253.5,0.25,127,120.0
2386,G#5,253.5,0.25,127,120.0
2387,G#4,253.5,0.25,127,120.0
2388,C2,253.75,0.5,127,120.0
2389,F#5,253.75,0.25,127,120.0
2390,F#4,253.75,0.25,127,120.0
2391,F3,253.75,0.5,127,120.0
2392,D2,253.75,0.5,127,120.0
2393,E5,254.0,0.25,127,120.0
2394,E4,254.0,0.25,127,120.0
2395,C2,254.25,0.5,127,120.0
2396,B1,254.25,0.25,127,120.0
2397,A5,254.25,0.25,127,120.0
2398,A4,254.25,0.25,127,120.0
2399,B1,254.5,0.25,127,120.0
2400,G#5,254.5,0.25,127,120.0
2401,G#4,254.5,0.25,127,120.0
2402,F#4,254.75,1/5,127,120.0
2403,B-4,254.75,1/5,127,120.0
2404,E-4,254.75,1/5,127,120.0
2405,A1,254.75,0.75,127,120.0
2406,F#5,254.75,0.25,127,120.0
2407,F#4,254.75,0.25,127,120.0
2408,F3,254.75,1.0,127,120.0
2409,B1,254.75,1.0,127,120.0
2410,G#4,254.95,1/5,102,120.0
2411,B4,254.95,1/5,102,120.0
2412,E4,254.95,1/5,102,120.0
2413,E5,255.0,0.25,127,120.0
2414,E4,255.0,0.25,127,120.0
2415,F#4,255.15,1/5,102,120.0
2416,B-4,255.15,1/5,102,120.0
2417,E-4,255.15,1/5,102,120.0
2418,E5,255.25,0.25,127,120.0
2419,E4,255.25,0.25,127,120.0
2420,E4,255.35,1/5,102,120.0
2421,G#4,255.35,1/5,102,120.0
2422,C#4,255.35,1/5,127,120.0
2423,A2,255.5,0.25,127,120.0
2424,E-4,255.55,1/5,127,120.0
2425,F#4,255.55,1/5,127,120.0
2426,B3,255.55,1/5,102,120.0
2427,E-4,255.75,2.0,127,120.0
2428,F#4,255.75,2.0,127,120.0
2429,E4,255.75,0.25,127,120.0
2430,B3,255.75,2.0,127,120.0
2431,A1,255.75,1.0,127,120.0
2432,F3,255.75,0.5,127,120.0
2433,D2,255.75,0.5,127,120.0
2434,F#4,256.0,0.25,127,120.0
2435,G#4,256.25,0.25,127,120.0
2436,B1,256.25,0.5,127,120.0
2437,F#4,256.5,0.25,127,120.0
2438,E4,256.75,0.25,127,120.0
2439,A1,256.75,0.5,127,120.0
2440,F3,256.75,1.0,127,120.0
2441,B4,257.0,0.25,127,120.0
2442,G#4,257.25,0.25,127,120.0
2443,A1,257.25,0.5,127,120.0
2444,F#4,257.5,0.25,127,120.0
2445,E-4,257.75,1/5,127,120.0
2446,C#5,257.75,0.25,127,120.0
2447,E5,257.75,0.25,127,120.0
2448,E4,257.75,0.25,127,120.0
2449,A4,257.75,0.25,127,120.0
2450,A2,257.75,0.25,127,120.0
2451,F3,257.75,1.0,127,120.0
2452,D2,257.75,1.0,127,120.0
2453,E4,257.95,1/5,102,120.0
2454,E4,258.0,0.25,127,120.0
2455,A1,258.0,0.75,127,120.0
2456,E-4,258.15,1/5,102,120.0
2457,A4,258.25,0.25,127,120.0
2458,C#5,258.25,0.25,127,120.0
2459,E4,258.25,0.25,127,120.0
2460,F#4,258.25,0.25,127,120.0
2461,C#4,258.35,1/5,102,120.0
2462,E-5,258.5,0.25,127,120.0
2463,F#5,258.5,0.25,127,120.0
2464,F#4,258.5,0.25,127,120.0
2465,B4,258.5,0.25,127,120.0
2466,B3,258.55,1/5,102,120.0
2467,B3,258.75,2.0,127,120.0
2468,E-5,258.75,3.5,127,120.0
2469,F#5,258.75,3.5,127,120.0
2470,G#4,258.75,0.25,127,120.0
2471,B4,258.75,4.0,127,120.0
2472,A1,258.75,0.5,127,120.0
2473,F3,258.75,0.5,127,120.0
2474,F#4,259.0,0.25,127,120.0
2475,E4,259.25,0.25,127,120.0
2476,A1,259.25,0.5,127,120.0
2477,B1,259.25,0.5,127,120.0
2478,A4,259.5,0.25,127,120.0
2479,G#4,259.75,0.25,127,120.0
2480,A1,259.75,0.75,127,120.0
2481,F3,259.75,1.0,127,120.0
2482,D2,259.75,1.0,127,120.0
2483,F#4,260.0,0.25,127,120.0
2484,E4,260.25,0.25,127,120.0
2485,E4,260.5,0.25,127,120.0
2486,A1,260.5,0.25,127,120.0
2487,A4,260.75,0.25,127,120.0
2488,F3,260.75,0.5,127,120.0
2489,E4,261.0,0.25,127,120.0
2490,A2,261.0,0.5,127,120.0
2491,F#4,261.25,0.25,127,120.0
2492,F#4,261.25,0.25,127,120.0
2493,B1,261.25,0.5,127,120.0
2494,B4,261.5,0.25,127,120.0
2495,G#4,261.5,0.25,127,120.0
2496,A2,261.5,0.25,127,120.0
2497,B4,261.75,3.5,127,120.0
2498,F#4,261.75,0.25,127,120.0
2499,A2,261.75,0.5,127,120.0
2500,F3,261.75,0.5,127,120.0
2501,D2,261.75,0.5,127,120.0
2502,E4,262.0,0.25,127,120.0
2503,B4,262.25,0.25,127,120.0
2504,A2,262.25,0.5,127,120.0
2505,B1,262.25,0.5,127,120.0
2506,G#4,262.5,0.25,127,120.0
2507,F#4,262.75,1/5,127,120.0
2508,B-4,262.75,1/5,127,120.0
2509,F#4,262.75,0.25,127,120.0
2510,E-4,262.75,1/5,127,120.0
2511,A1,262.75,0.75,127,120.0
2512,F3,262.75,1.0,127,120.0
2513,B1,262.75,1.0,127,120.0
2514,G#4,262.95,1/5,102,120.0
2515,B4,262.95,1/5,102,120.0
2516,E4,262.95,1/5,102,120.0
2517,E4,263.0,0.25,127,120.0
2518,F#4,263.15,1/5,102,120.0
2519,B-4,263.15,1/5,102,120.0
2520,E-4,263.15,1/5,102,120.0
2521,E4,263.25,0.25,127,120.0
2522,E4,263.35,1/5,102,120.0
2523,G#4,263.35,1/5,102,120.0
2524,C#4,263.35,1/5,127,120.0
2525,E4,263.5,0.25,127,120.0
2526,A2,263.5,0.25,127,120.0
2527,E-4,263.55,1/5,127,120.0
2528,F#4,263.55,1/5,127,120.0
2529,B3,263.55,1/5,102,120.0
2530,E-4,263.75,2.0,127,120.0
2531,F#4,263.75,2.0,127,120.0
2532,F#4,263.75,0.25,127,120.0
2533,B3,263.75,2.0,127,120.0
2534,A1,263.75,0.5,127,120.0
2535,F3,263.75,0.5,127,120.0
2536,D2,263.75,0.5,127,120.0
2537,G#4,264.0,0.25,127,120.0
2538,F#4,264.25,0.25,127,120.0
2539,B1,264.25,0.5,127,120.0
2540,E4,264.5,0.25,127,120.0
2541,A4,264.75,0.25,127,120.0
2542,A1,264.75,0.5,127,120.0
2543,F3,264.75,1.0,127,120.0
2544,G#4,265.0,0.25,127,120.0
2545,F#4,265.25,0.25,127,120.0
2546,A1,265.25,0.5,127,120.0
2547,E4,265.5,0.25,127,120.0
2548,E-4,265.75,1/5,127,120.0
2549,C#5,265.75,0.25,127,120.0
2550,E5,265.75,0.25,127,120.0
2551,E4,265.75,0.25,127,120.0
2552,A4,265.75,0.25,127,120.0
2553,A1,265.75,1.0,127,120.0
2554,F3,265.75,0.5,127,120.0
2555,D2,265.75,0.5,127,120.0
2556,E4,265.95,1/5,102,120.0
2557,E-4,266.15,1/5,102,120.0
2558,A4,266.25,0.25,127,120.0
2559,C#5,266.25,0.25,127,120.0
2560,E4,266.25,0.25,127,120.0
2561,F#4,266.25,0.25,127,120.0
2562,B1,266.25,0.5,127,120.0
2563,C#4,266.35,1/5,102,120.0
2564,E-5,266.5,0.25,127,120.0
2565,F#5,266.5,0.25,127,120.0
2566,D4,266.5,0.25,127,120.0
2567,B4,266.5,0.25,127,120.0
2568,B3,266.55,1/5,102,120.0
2569,B3,266.75,2.0,127,120.0
2570,E-5,266.75,0.25,127,120.0
2571,F#5,266.75,0.25,127,120.0
2572,D4,266.75,4.0,127,120.0
2573,B4,266.75,0.25,127,120.0
2574,A1,266.75,0.25,127,120.0
2575,F3,266.75,1.0,127,120.0
2576,F#5,267.0,0.25,127,120.0
2577,A5,267.0,0.25,127,120.0
2578,D5,267.0,0.25,127,120.0
2579,A1,267.0,0.25,127,120.0
2580,E-5,267.25,3.5,102,120.0
2581,F#5,267.25,3.5,102,120.0
2582,B4,267.25,3.5,102,120.0
2583,A1,267.5,0.25,127,120.0
2584,A2,267.75,0.75,127,120.0
2585,D2,267.75,0.25,127,120.0
2586,D3,268.0,0.25,127,120.0
2587,D3,268.25,0.25,127,120.0
2588,D2,268.5,0.25,127,120.0
2589,A4,268.75,0.25,127,120.0
2590,A1,268.75,0.25,127,120.0
2591,B2,268.75,0.25,127,120.0
2592,A1,269.0,0.25,127,120.0
2593,B2,269.0,0.25,127,120.0
2594,F#4,269.25,0.25,127,120.0
2595,D2,269.25,0.25,127,120.0
2596,B4,269.5,0.25,127,120.0
2597,A1,269.5,0.25,127,120.0
2598,A2,269.5,0.25,127,120.0
2599,B4,269.75,0.25,127,120.0
2600,A2,269.75,0.5,127,120.0
2601,A2,269.75,0.25,127,120.0
2602,D5,270.0,0.25,127,120.0
2603,D2,270.0,0.25,127,120.0
2604,B4,270.25,3.5,102,120.0
2605,A1,270.25,0.5,127,120.0
2606,B2,270.25,0.25,127,120.0
2607,D2,270.5,0.25,127,120.0
2608,D4,270.75,4.0,127,120.0
2609,A1,270.75,0.25,127,120.0
2610,C#3,270.75,0.25,127,120.0
2611,D2,270.75,0.25,127,120.0
2612,B1,270.75,0.25,127,120.0
2613,A1,271.0,0.5,127,120.0
2614,D2,271.0,0.75,127,120.0
2615,G#2,271.75,1.0,127,120.0
2616,B1,271.75,1.0,127,120.0
2617,A1,272.75,0.25,127,120.0
2618,D2,272.75,0.25,127,120.0
2619,B1,272.75,0.25,127,120.0
2620,A1,273.0,0.25,127,120.0
2621,D2,273.0,0.75,127,120.0
2622,G#2,273.75,1.0,127,120.0
2623,B1,273.75,1.0,127,120.0
2624,B1,274.75,0.5,127,120.0
2625,A1,275.25,0.5,127,120.0
2626,D2,275.25,0.5,127,120.0
2627,A1,275.75,0.25,127,120.0
2628,G#2,275.75,0.25,127,120.0
2629,D2,275.75,0.25,127,120.0
2630,B1,275.75,0.25,127,120.0
2631,A1,276.0,0.25,127,120.0
2632,D2,276.0,0.75,127,120.0
2633,A1,276.75,0.25,127,120.0
2634,D2,276.75,0.25,127,120.0
2635,B1,276.75,0.25,127,120.0
2636,A1,277.0,0.5,127,120.0
2637,D2,277.0,0.75,127,120.0
2638,G#2,277.75,1.0,127,120.0
2639,B1,277.75,1.0,127,120.0
2640,A1,278.75,0.25,127,120.0
2641,D2,278.75,0.25,127,120.0
2642,B1,278.75,0.25,127,120.0
2643,A1,279.0,0.5,127,120.0
2644,D2,279.0,0.75,127,120.0
2645,G#2,279.75,1.0,127,120.0
2646,B1,279.75,1.0,127,120.0
2647,A1,280.75,0.25,127,120.0
2648,D2,280.75,0.25,127,120.0
2649,B1,280.75,0.25,127,120.0
2650,A1,281.0,0.25,127,120.0
2651,D2,281.0,0.75,127,120.0
2652,G#2,281.75,1.0,127,120.0
2653,B1,281.75,1.0,127,120.0
2654,B1,282.75,0.5,127,120.0
2655,A1,283.25,0.5,127,120.0
2656,D2,283.25,0.5,127,120.0
2657,A1,283.75,0.25,127,120.0
2658,G#2,283.75,0.25,127,120.0
2659,D2,283.75,0.25,127,120.0
2660,B1,283.75,0.25,127,120.0
2661,A1,284.0,0.25,127,120.0
2662,D2,284.0,0.75,127,120.0
2663,E5,284.75,1.0,127,120.0
2664,B1,284.75,0.75,127,120.0
2665,A1,285.5,0.25,127,120.0
2666,D2,285.5,0.25,127,120.0
2667,E-5,285.75,1.0,127,120.0
2668,A1,285.75,0.25,127,120.0
2669,G#2,285.75,1.0,127,120.0
2670,D2,285.75,1.0,127,120.0
2671,B1,285.75,1.0,127,120.0
2672,G#4,286.75,4.0,127,120.0
2673,A1,286.75,0.25,127,120.0
2674,D2,286.75,0.25,127,120.0
2675,B1,286.75,0.25,127,120.0
2676,A1,287.0,0.5,127,120.0
2677,D2,287.0,0.75,127,120.0
2678,G#2,287.75,1.0,127,120.0
2679,B1,287.75,1.0,127,120.0
2680,A1,288.75,0.25,127,120.0
2681,D2,288.75,0.25,127,120.0
2682,B1,288.75,0.25,127,120.0
2683,A1,289.0,0.25,127,120.0
2684,D2,289.0,0.75,127,120.0
2685,G#2,289.75,1.0,127,120.0
2686,B1,289.75,1.0,127,120.0
2687,G#4,290.75,2.0,127,120.0
2688,B1,290.75,0.5,127,120.0
2689,A1,291.25,0.5,127,120.0
2690,D2,291.25,0.5,127,120.0
2691,A1,291.75,0.25,127,120.0
2692,G#2,291.75,0.25,127,120.0
2693,D2,291.75,0.25,127,120.0
2694,B1,291.75,0.25,127,120.0
2695,A1,292.0,0.25,127,120.0
2696,D2,292.0,0.75,127,120.0
2697,B4,292.75,1.0,127,120.0
2698,A1,292.75,0.25,127,120.0
2699,D2,292.75,0.25,127,120.0
2700,B1,292.75,0.25,127,120.0
2701,A1,293.0,0.5,127,120.0
2702,D2,293.0,0.75,127,120.0
2703,C#5,293.75,1.0,127,120.0
2704,G#2,293.75,1.0,127,120.0
2705,B1,293.75,1.0,127,120.0
2706,G#4,294.75,1.5,127,120.0
2707,A1,294.75,0.25,127,120.0
2708,D2,294.75,0.25,127,120.0
2709,B1,294.75,0.25,127,120.0
2710,A1,295.0,0.5,127,120.0
2711,D2,295.0,0.75,127,120.0
2712,G#2,295.75,1.0,127,120.0
2713,B1,295.75,1.0,127,120.0
2714,F#4,296.25,0.5,127,120.0
2715,F#4,296.75,2.0,127,120.0
2716,A1,296.75,0.25,127,120.0
2717,D2,296.75,0.25,127,120.0
2718,B1,296.75,0.25,127,120.0
2719,A1,297.0,0.25,127,120.0
2720,D2,297.0,0.75,127,120.0
2721,G#2,297.75,1.0,127,120.0
2722,B1,297.75,1.0,127,120.0
2723,F#4,298.75,2.0,127,120.0
2724,B1,298.75,0.5,127,120.0
2725,A1,299.25,0.5,127,120.0
2726,D2,299.25,0.5,127,120.0
2727,A1,299.75,0.25,127,120.0
2728,G#2,299.75,0.25,127,120.0
2729,D2,299.75,0.25,127,120.0
2730,B1,299.75,0.25,127,120.0
2731,A1,300.0,0.25,127,120.0
2732,D2,300.0,0.75,127,120.0
2733,E5,300.75,1.0,127,120.0
2734,B1,300.75,0.75,127,120.0
2735,E6,300.75,1.0,127,120.0
2736,B5,300.75,1.0,127,120.0
2737,F#5,300.75,1.0,127,120.0
2738,E5,300.75,1.0,127,120.0
2739,A1,301.5,0.25,127,120.0
2740,D2,301.5,0.25,127,120.0
2741,E-5,301.75,1.0,127,120.0
2742,A1,301.75,0.25,127,120.0
2743,E-6,301.75,1.0,127,120.0
2744,B5,301.75,1.0,127,120.0
2745,F#5,301.75,1.0,127,120.0
2746,E-5,301.75,1.0,127,120.0
2747,G#2,301.75,1.0,127,120.0
2748,D2,301.75,1.0,127,120.0
2749,B1,301.75,1.0,127,120.0
2750,G#4,302.75,4.0,127,120.0
2751,A1,302.75,0.25,127,120.0
2752,G#5,302.75,4.0,127,120.0
2753,E5,302.75,4.0,127,120.0
2754,C#5,302.75,4.0,127,120.0
2755,A4,302.75,4.0,127,120.0
2756,G#4,302.75,4.0,127,120.0
2757,D2,302.75,0.25,127,120.0
2758,B1,302.75,0.25,127,120.0
2759,A1,303.0,0.5,127,120.0
2760,D2,303.0,0.75,127,120.0
2761,E-5,303.75,2.0,127,120.0
2762,G#2,303.75,1.0,127,120.0
2763,B1,303.75,1.0,127,120.0
2764,A1,304.75,0.25,127,120.0
2765,D2,304.75,0.25,127,120.0
2766,B1,304.75,0.25,127,120.0
2767,A1,305.0,0.25,127,120.0
2768,D2,305.0,0.75,127,120.0
2769,G#4,305.75,4.0,127,120.0
2770,G#2,305.75,1.0,127,120.0
2771,B1,305.75,1.0,127,120.0
2772,G#4,306.75,2.0,127,120.0
2773,B1,306.75,0.5,127,120.0
2774,A1,307.25,0.5,127,120.0
2775,D2,307.25,0.5,127,120.0
2776,A1,307.75,0.25,127,120.0
2777,G#2,307.75,0.25,127,120.0
2778,D2,307.75,0.25,127,120.0
2779,B1,307.75,0.25,127,120.0
2780,A1,308.0,0.25,127,120.0
2781,D2,308.0,0.75,127,120.0
2782,B4,308.75,1.0,127,120.0
2783,A1,308.75,0.25,127,120.0
2784,G#5,308.75,2.0,127,120.0
2785,E5,308.75,2.0,127,120.0
2786,C#5,308.75,2.0,127,120.0
2787,A4,308.75,2.0,127,120.0
2788,G#4,308.75,2.0,127,120.0
2789,D2,308.75,0.25,127,120.0
2790,B1,308.75,0.25,127,120.0
2791,A1,309.0,0.5,127,120.0
2792,D2,309.0,0.75,127,120.0
2793,G#4,309.75,2.0,127,120.0
2794,C#5,309.75,1.0,127,120.0
2795,G#2,309.75,1.0,127,120.0
2796,B1,309.75,1.0,127,120.0
2797,G#4,310.75,1.5,127,120.0
2798,A1,310.75,0.25,127,120.0
2799,B5,310.75,1.0,127,120.0
2800,E5,310.75,1.0,127,120.0
2801,C#5,310.75,1.0,127,120.0
2802,B4,310.75,1.0,127,120.0
2803,D2,310.75,0.25,127,120.0
2804,B1,310.75,0.25,127,120.0
2805,A1,311.0,0.5,127,120.0
2806,D2,311.0,0.75,127,120.0
2807,B4,311.75,1.0,127,120.0
2808,C#6,311.75,1.0,127,120.0
2809,A5,311.75,1.0,127,120.0
2810,E5,311.75,1.0,127,120.0
2811,C#5,311.75,1.0,127,120.0
2812,G#2,311.75,1.0,127,120.0
2813,B1,311.75,1.0,127,120.0
2814,F#4,312.25,0.5,127,120.0
2815,B4,312.75,1.0,127,120.0
2816,F#4,312.75,2.0,127,120.0
2817,A1,312.75,0.25,127,120.0
2818,G#5,312.75,1.5,127,120.0
2819,E5,312.75,1.5,127,120.0
2820,C#5,312.75,1.5,127,120.0
2821,A4,312.75,1.5,127,120.0
2822,G#4,312.75,1.5,127,120.0
2823,D2,312.75,0.25,127,120.0
2824,B1,312.75,0.25,127,120.0
2825,A1,313.0,0.25,127,120.0
2826,D2,313.0,0.75,127,120.0
2827,G#4,313.75,1.5,127,120.0
2828,G#2,313.75,1.0,127,120.0
2829,B1,313.75,1.0,127,120.0
2830,F#5,314.25,0.5,127,120.0
2831,E-5,314.25,0.5,127,120.0
2832,B4,314.25,0.5,127,120.0
2833,A4,314.25,0.5,127,120.0
2834,F#4,314.25,0.5,127,120.0
2835,F#4,314.75,2.0,127,120.0
2836,B1,314.75,0.5,127,120.0
2837,F#5,314.75,2.0,127,120.0
2838,E-5,314.75,2.0,127,120.0
2839,B4,314.75,2.0,127,120.0
2840,A4,314.75,2.0,127,120.0
2841,F#4,314.75,2.0,127,120.0
2842,F#4,315.25,0.25,127,120.0
2843,A1,315.25,0.5,127,120.0
2844,D2,315.25,0.5,127,120.0
2845,F#4,315.75,2.0,127,120.0
2846,A1,315.75,0.25,127,120.0
2847,G#2,315.75,0.25,127,120.0
2848,D2,315.75,0.25,127,120.0
2849,B1,315.75,0.25,127,120.0
2850,A1,316.0,0.25,127,120.0
2851,D2,316.0,0.75,127,120.0
2852,E5,316.75,1.0,127,120.0
2853,B1,316.75,0.75,127,120.0
2854,A1,317.5,0.25,127,120.0
2855,D2,317.5,0.25,127,120.0
2856,F#4,317.75,2.0,127,120.0
2857,E-5,317.75,1.0,127,120.0
2858,A1,317.75,0.25,127,120.0
2859,G#2,317.75,1.0,127,120.0
2860,D2,317.75,1.0,127,120.0
2861,B1,317.75,1.0,127,120.0
2862,G#4,318.75,4.0,127,120.0
2863,A1,318.75,0.25,127,120.0
2864,D2,318.75,0.25,127,120.0
2865,B1,318.75,0.25,127,120.0
2866,A1,319.0,0.75,127,120.0
2867,D2,319.0,0.75,127,120.0
2868,E-5,319.75,2.0,127,120.0
2869,G#2,319.75,1.0,127,120.0
2870,B1,319.75,1.0,127,120.0
2871,B1,320.75,1.0,127,120.0
2872,F#5,320.75,4.0,127,120.0
2873,E-5,320.75,4.0,127,120.0
2874,B4,320.75,4.0,127,120.0
2875,A4,320.75,4.0,127,120.0
2876,F#4,320.75,4.0,127,120.0
2877,G#4,321.75,4.0,127,120.0
2878,G#2,321.75,0.5,127,120.0
2879,B1,321.75,0.5,127,120.0
2880,A1,322.25,0.5,127,120.0
2881,D2,322.25,0.5,127,120.0
2882,G#4,322.75,2.0,127,120.0
2883,B1,322.75,1.0,127,120.0
2884,G#2,323.75,0.5,127,120.0
2885,B1,323.75,0.5,127,120.0
2886,A1,324.25,0.5,127,120.0
2887,D2,324.25,0.5,127,120.0
2888,B4,324.75,1.0,127,120.0
2889,A1,324.75,0.25,127,120.0
2890,G#4,324.75,2.0,127,120.0
2891,G#3,324.75,2.0,127,120.0
2892,D2,324.75,0.25,127,120.0
2893,B1,324.75,0.25,127,120.0
2894,A1,325.0,0.75,127,120.0
2895,D2,325.0,0.75,127,120.0
2896,G#4,325.75,2.0,127,120.0
2897,C#5,325.75,1.0,127,120.0
2898,G#2,325.75,0.5,127,120.0
2899,B1,325.75,0.5,127,120.0
2900,D2,326.25,0.125,127,120.0
2901,D2,326.375,0.125,127,120.0
2902,D2,326.5,0.125,127,120.0
2903,D2,326.625,0.125,127,120.0
2904,G#4,326.75,1.5,127,120.0
2905,G#4,326.75,667/1000,127,120.0
2906,A1,326.75,0.25,127,120.0
2907,D2,326.75,0.25,127,120.0
2908,B1,326.75,0.25,127,120.0
2909,A4,326.917,667/1000,127,120.0
2910,A1,327.0,0.25,127,120.0
2911,D2,327.0,0.25,127,120.0
2912,C#5,327.083,667/1000,127,120.0
2913,E5,327.25,667/1000,127,120.0
2914,A1,327.25,0.25,127,120.0
2915,D2,327.25,0.25,127,120.0
2916,G#5,327.417,667/1000,127,120.0
2917,A1,327.5,0.25,127,120.0
2918,D2,327.5,0.25,127,120.0
2919,A5,327.583,667/1000,127,120.0
2920,B4,327.75,1.0,127,120.0
2921,C#6,327.75,1.0,127,120.0
2922,G#2,327.75,1.0,127,120.0
2923,B1,327.75,1.0,127,120.0
2924,E6,327.917,667/1000,127,120.0
2925,G#5,328.083,333/1000,127,120.0
2926,F#4,328.25,0.5,127,120.0
2927,A5,328.25,0.5,127,120.0
2928,G#5,328.417,333/1000,127,120.0
2929,E6,328.583,167/1000,127,120.0
2930,B4,328.75,1.0,127,120.0
2931,F#4,328.75,2.0,127,120.0
2932,C#6,328.75,667/1000,127,120.0
2933,G#5,328.75,333/1000,127,120.0
2934,A5,328.75,167/1000,127,120.0
2935,E6,328.75,0.5,127,120.0
2936,B1,328.75,0.25,127,120.0
2937,A5,328.917,667/1000,127,120.0
2938,A1,329.0,0.25,127,120.0
2939,D2,329.0,0.125,127,120.0
2940,G#5,329.083,667/1000,127,120.0
2941,D2,329.125,0.125,127,120.0
2942,E5,329.25,3.5,127,120.0
2943,A1,329.25,0.25,127,120.0
2944,D2,329.25,0.125,127,120.0
2945,D2,329.375,0.125,127,120.0
2946,C#5,329.417,3333/1000,127,120.0
2947,A1,329.5,0.5,127,120.0
2948,D2,329.5,0.25,127,120.0
2949,A4,329.583,3167/1000,127,120.0
2950,G#4,329.75,1.5,127,120.0
2951,G#4,329.75,3.0,127,120.0
2952,G#2,329.75,0.25,127,120.0
2953,B1,329.75,0.25,127,120.0
2954,A1,330.0,0.25,127,120.0
2955,D2,330.0,0.25,127,120.0
2956,A1,330.25,0.5,127,120.0
2957,D2,330.25,0.5,127,120.0
2958,F#4,330.75,2.0,127,120.0
2959,A1,330.75,0.25,127,120.0
2960,D2,330.75,0.125,127,120.0
2961,B1,330.75,0.125,127,120.0
2962,D2,330.875,0.125,127,120.0
2963,A1,331.0,0.25,127,120.0
2964,D2,331.0,0.125,127,120.0
2965,D2,331.125,0.125,127,120.0
2966,F#4,331.25,0.25,127,120.0
2967,A1,331.25,0.25,127,120.0
2968,D2,331.25,0.25,127,120.0
2969,A1,331.5,0.25,127,120.0
2970,D2,331.5,0.25,127,120.0
2971,F#4,331.75,2.0,127,120.0
2972,A1,331.75,0.25,127,120.0
2973,G#2,331.75,0.25,127,120.0
2974,D2,331.75,0.25,127,120.0
2975,B1,331.75,0.25,127,120.0
2976,A1,332.0,0.25,127,120.0
2977,D2,332.0,0.25,127,120.0
2978,A1,332.25,0.25,127,120.0
2979,D2,332.25,0.125,127,120.0
2980,D2,332.375,0.125,127,120.0
2981,A1,332.5,0.25,127,120.0
2982,D2,332.5,0.125,127,120.0
2983,D2,332.625,0.125,127,120.0
2984,E5,332.75,1.0,127,120.0
2985,G#5,332.75,1.5,127,120.0
2986,E5,332.75,1.5,127,120.0
2987,C#5,332.75,1.5,127,120.0
2988,A4,332.75,1.5,127,120.0
2989,G#4,332.75,1.5,127,120.0
2990,D2,332.75,1.0,127,120.0
2991,B1,332.75,1.0,127,120.0
2992,F#4,333.75,2.0,127,120.0
2993,E-5,333.75,1.0,127,120.0
2994,G#2,333.75,1.0,127,120.0
2995,B2,333.75,1.0,127,120.0
2996,B1,333.75,1.0,127,120.0
2997,F#5,334.25,0.5,127,120.0
2998,E-5,334.25,0.5,127,120.0
2999,B4,334.25,0.5,127,120.0
3000,A4,334.25,0.5,127,120.0
3001,F#4,334.25,0.5,127,120.0
3002,G#4,334.75,4.0,127,120.0
3003,A1,334.75,0.25,127,120.0
3004,F#5,334.75,2.0,127,120.0
3005,E-5,334.75,2.0,127,120.0
3006,B4,334.75,2.0,127,120.0
3007,A4,334.75,2.0,127,120.0
3008,F#4,334.75,2.0,127,120.0
3009,D2,334.75,0.25,127,120.0
3010,B1,334.75,0.25,127,120.0
3011,A1,335.0,0.75,127,120.0
3012,D2,335.0,0.75,127,120.0
3013,E-5,335.75,2.0,127,120.0
3014,G#2,335.75,1.0,127,120.0
3015,B1,335.75,1.0,127,120.0
3016,B1,336.75,1.0,127,120.0
3017,G#4,337.75,4.0,127,120.0
3018,G#2,337.75,0.5,127,120.0
3019,B1,337.75,0.5,127,120.0
3020,A1,338.25,0.5,127,120.0
3021,D2,338.25,0.5,127,120.0
3022,G#4,338.75,2.0,127,120.0
3023,B1,338.75,1.0,127,120.0
3024,F#5,338.75,2.0,127,120.0
3025,E-5,338.75,2.0,127,120.0
3026,B4,338.75,2.0,127,120.0
3027,A4,338.75,2.0,127,120.0
3028,F#4,338.75,2.0,127,120.0
3029,G#2,339.75,0.5,127,120.0
3030,B1,339.75,0.5,127,120.0
3031,A1,340.25,0.5,127,120.0
3032,D2,340.25,0.5,127,120.0
3033,B4,340.75,1.0,127,120.0
3034,A1,340.75,0.25,127,120.0
3035,E6,340.75,1.0,127,120.0
3036,B5,340.75,1.0,127,120.0
3037,F#5,340.75,1.0,127,120.0
3038,E5,340.75,1.0,127,120.0
3039,D2,340.75,0.25,127,120.0
3040,B1,340.75,0.25,127,120.0
3041,A1,341.0,0.75,127,120.0
3042,D2,341.0,0.75,127,120.0
3043,G#4,341.75,2.0,127,120.0
3044,C#5,341.75,1.0,127,120.0
3045,E-6,341.75,1.0,127,120.0
3046,B5,341.75,1.0,127,120.0
3047,F#5,341.75,1.0,127,120.0
3048,E-5,341.75,1.0,127,120.0
3049,G#2,341.75,0.5,127,120.0
3050,B1,341.75,0.5,127,120.0
3051,D2,342.25,0.125,127,120.0
3052,D2,342.375,0.125,127,120.0
3053,D2,342.5,0.125,127,120.0
3054,D2,342.625,0.125,127,120.0
3055,F#4,342.75,0.25,127,120.0
3056,A1,342.75,0.25,127,120.0
3057,G#5,342.75,4.0,127,120.0
3058,E5,342.75,4.0,127,120.0
3059,C#5,342.75,4.0,127,120.0
3060,A4,342.75,4.0,127,120.0
3061,G#4,342.75,4.0,127,120.0
3062,D2,342.75,0.25,127,120.0
3063,B1,342.75,0.25,127,120.0
3064,G#4,343.0,0.25,127,120.0
3065,A1,343.0,0.25,127,120.0
3066,D2,343.0,0.25,127,120.0
3067,F#4,343.25,0.25,127,120.0
3068,A1,343.25,0.25,127,120.0
3069,D2,343.25,0.25,127,120.0
3070,E4,343.5,0.25,127,120.0
3071,A1,343.5,0.25,127,120.0
3072,D2,343.5,0.25,127,120.0
3073,E-5,343.75,2.0,127,120.0
3074,F#4,343.75,3.0,127,120.0
3075,G#2,343.75,1.0,127,120.0
3076,B1,343.75,1.0,127,120.0
3077,B1,344.75,0.25,127,120.0
3078,A1,345.0,0.25,127,120.0
3079,D2,345.0,0.125,127,120.0
3080,D2,345.125,0.125,127,120.0
3081,A1,345.25,0.25,127,120.0
3082,D2,345.25,0.125,127,120.0
3083,D2,345.375,0.125,127,120.0
3084,A1,345.5,0.5,127,120.0
3085,D2,345.5,0.25,127,120.0
3086,B4,345.75,0.25,127,120.0
3087,G#2,345.75,0.25,127,120.0
3088,B1,345.75,0.25,127,120.0
3089,C#5,346.0,0.25,127,120.0
3090,A1,346.0,0.25,127,120.0
3091,D2,346.0,0.25,127,120.0
3092,B4,346.25,0.25,127,120.0
3093,A1,346.25,0.5,127,120.0
3094,D2,346.25,0.5,127,120.0
3095,A4,346.5,0.25,127,120.0
3096,B4,346.75,3.0,127,120.0
3097,F#4,346.75,2.0,127,120.0
3098,A1,346.75,0.25,127,120.0
3099,D2,346.75,0.125,127,120.0
3100,B1,346.75,0.125,127,120.0
3101,D2,346.875,0.125,127,120.0
3102,A1,347.0,0.25,127,120.0
3103,D2,347.0,0.125,127,120.0
3104,D2,347.125,0.125,127,120.0
3105,A1,347.25,0.25,127,120.0
3106,D2,347.25,0.25,127,120.0
3107,A1,347.5,0.25,127,120.0
3108,D2,347.5,0.25,127,120.0
3109,A1,347.75,0.25,127,120.0
3110,G#2,347.75,0.25,127,120.0
3111,D2,347.75,0.25,127,120.0
3112,B1,347.75,0.25,127,120.0
3113,A1,348.0,0.25,127,120.0
3114,D2,348.0,0.25,127,120.0
3115,A1,348.25,0.25,127,120.0
3116,D2,348.25,0.125,127,120.0
3117,D2,348.375,0.125,127,120.0
3118,A1,348.5,0.25,127,120.0
3119,D2,348.5,0.125,127,120.0
3120,D2,348.625,0.125,127,120.0
3121,E5,348.75,1.0,127,120.0
3122,A4,348.75,1.0,127,120.0
3123,G#5,348.75,2.0,127,120.0
3124,E5,348.75,2.0,127,120.0
3125,C#5,348.75,2.0,127,120.0
3126,A4,348.75,2.0,127,120.0
3127,G#4,348.75,2.0,127,120.0
3128,D2,348.75,1.0,127,120.0
3129,B1,348.75,1.0,127,120.0
3130,B4,349.75,2.0,127,120.0
3131,E-5,349.75,1.0,127,120.0
3132,G#4,349.75,1.0,127,120.0
3133,G#2,349.75,1.0,127,120.0
3134,B2,349.75,1.0,127,120.0
3135,B1,349.75,1.0,127,120.0
3136,A1,350.75,0.25,127,120.0
3137,G#4,350.75,4.0,127,120.0
3138,E4,350.75,4.0,127,120.0
3139,B5,350.75,1.0,127,120.0
3140,E5,350.75,1.0,127,120.0
3141,C#5,350.75,1.0,127,120.0
3142,B4,350.75,1.0,127,120.0
3143,D2,350.75,0.25,127,120.0
3144,B1,350.75,0.25,127,120.0
3145,A1,351.0,0.75,127,120.0
3146,D2,351.0,0.75,127,120.0
3147,A4,351.75,1.0,127,120.0
3148,C#6,351.75,1.0,127,120.0
3149,A5,351.75,1.0,127,120.0
3150,E5,351.75,1.0,127,120.0
3151,C#5,351.75,1.0,127,120.0
3152,G#2,351.75,1.0,127,120.0
3153,B1,351.75,1.0,127,120.0
3154,G#4,352.75,1.0,127,120.0
3155,B1,352.75,1.0,127,120.0
3156,F#5,352.75,1.0,127,120.0
3157,E-5,352.75,1.0,127,120.0
3158,B4,352.75,1.0,127,120.0
3159,A4,352.75,1.0,127,120.0
3160,F#4,352.75,1.0,127,120.0
3161,E4,353.75,4.0,127,120.0
3162,G#2,353.75,0.5,127,120.0
3163,B1,353.75,0.5,127,120.0
3164,A1,354.25,0.5,127,120.0
3165,D2,354.25,0.5,127,120.0
3166,G#4,356.75,2.0,127,120.0
3167,E4,356.75,2.0,127,120.0
3168,E4,357.75,1.0,127,120.0
3169,D2,358.25,0.125,127,120.0
3170,D2,358.375,0.125,127,120.0
3171,D2,358.5,0.125,127,120.0
3172,D2,358.625,0.125,127,120.0
3173,E4,358.75,0.062,95,120.0
3174,A1,358.75,0.25,127,120.0
3175,B4,358.75,1.0,127,120.0
3176,A4,358.75,1.0,127,120.0
3177,A6,358.75,1.0,127,120.0
3178,A5,358.75,1.0,127,120.0
3179,D2,358.75,0.25,127,120.0
3180,B1,358.75,0.25,127,120.0
3181,B3,358.917,0.062,95,120.0
3182,A1,359.0,0.25,127,120.0
3183,D2,359.0,0.25,127,120.0
3184,G3,359.083,0.062,95,120.0
3185,D3,359.25,0.062,95,120.0
3186,A1,359.25,0.25,127,120.0
3187,D2,359.25,0.25,127,120.0
3188,A2,359.417,0.062,95,120.0
3189,A1,359.5,0.25,127,120.0
3190,D2,359.5,0.25,127,120.0
3191,E2,359.583,0.062,95,120.0
3192,A4,359.75,1.0,127,120.0
3193,C#5,359.75,1.0,127,120.0
3194,G#4,359.75,1.0,127,120.0
3195,G#6,359.75,1.0,127,120.0
3196,G#5,359.75,1.0,127,120.0
3197,G#2,359.75,1.0,127,120.0
3198,B1,359.75,1.0,127,120.0
3199,G#4,360.75,1.0,127,120.0
3200,B1,360.75,0.25,127,120.0
3201,G#4,360.75,1.5,127,120.0
3202,E4,360.75,1.5,127,120.0
3203,E6,360.75,3.0,127,120.0
3204,E5,360.75,3.0,127,120.0
3205,A1,361.0,0.25,127,120.0
3206,D2,361.0,0.125,127,120.0
3207,D2,361.125,0.125,127,120.0
3208,A1,361.25,0.25,127,120.0
3209,D2,361.25,0.125,127,120.0
3210,D2,361.375,0.125,127,120.0
3211,A1,361.5,0.5,127,120.0
3212,D2,361.5,0.25,127,120.0
3213,E4,361.75,1.5,127,120.0
3214,G#2,361.75,0.25,127,120.0
3215,B1,361.75,0.25,127,120.0
3216,A1,362.0,0.25,127,120.0
3217,D2,362.0,0.25,127,120.0
3218,A1,362.25,0.5,127,120.0
3219,D2,362.25,0.5,127,120.0
3220,F#4,362.25,0.5,127,120.0
3221,C#4,362.25,0.5,127,120.0
3222,A1,362.75,0.25,127,120.0
3223,F#4,362.75,2.0,127,120.0
3224,F#4,362.75,2.0,127,120.0
3225,D2,362.75,0.125,127,120.0
3226,B1,362.75,0.125,127,120.0
3227,D2,362.875,0.125,127,120.0
3228,A1,363.0,0.25,127,120.0
3229,D2,363.0,0.125,127,120.0
3230,D2,363.125,0.125,127,120.0
3231,C#4,363.25,0.25,127,120.0
3232,A1,363.25,0.25,127,120.0
3233,D2,363.25,0.25,127,120.0
3234,A1,363.5,0.25,127,120.0
3235,D2,363.5,0.25,127,120.0
3236,F#4,363.75,2.0,127,120.0
3237,A1,363.75,0.25,127,120.0
3238,G#2,363.75,0.25,127,120.0
3239,D2,363.75,0.25,127,120.0
3240,B1,363.75,0.25,127,120.0
3241,A1,364.0,0.25,127,120.0
3242,D2,364.0,0.25,127,120.0
3243,A1,364.25,0.25,127,120.0
3244,D2,364.25,0.125,127,120.0
3245,F4,364.25,21/500,127,120.0
3246,G4,364.25,21/500,127,120.0
3247,A4,364.333,21/500,127,120.0
3248,B4,364.333,21/500,127,120.0
3249,D2,364.375,0.125,127,120.0
3250,C5,364.417,21/500,127,120.0
3251,D5,364.417,21/500,127,120.0
3252,A1,364.5,0.25,127,120.0
3253,D2,364.5,0.125,127,120.0
3254,E5,364.5,21/500,127,120.0
3255,F5,364.5,21/500,127,120.0
3256,G5,364.583,21/500,127,120.0
3257,A5,364.583,21/500,127,120.0
3258,D2,364.625,0.125,127,120.0
3259,B5,364.667,21/500,127,120.0
3260,C6,364.667,21/500,127,120.0
3261,D6,364.75,21/500,127,120.0
3262,E6,364.75,21/500,127,120.0
3263,D2,364.75,333/1000,127,120.0
3264,B1,364.75,333/1000,127,120.0
3265,F6,364.833,21/500,127,120.0
3266,G6,364.833,21/500,127,120.0
3267,A6,364.917,21/500,127,120.0
3268,B6,364.917,21/500,127,120.0
3269,C7,365.0,21/500,127,120.0
3270,B6,365.0,21/500,127,120.0
3271,D3,365.083,333/1000,127,120.0
3272,A6,365.083,21/500,127,120.0
3273,G6,365.083,21/500,127,120.0
3274,F6,365.167,21/500,127,120.0
3275,E6,365.167,21/500,127,120.0
3276,D6,365.25,21/500,127,120.0
3277,C6,365.25,21/500,127,120.0
3278,B5,365.333,21/500,127,120.0
3279,A5,365.333,21/500,127,120.0
3280,D3,365.417,333/1000,127,120.0
3281,G5,365.417,21/500,127,120.0
3282,F5,365.417,21/500,127,120.0
3283,E5,365.5,21/500,127,120.0
3284,D5,365.5,21/500,127,120.0
3285,C5,365.583,21/500,127,120.0
3286,B4,365.583,21/500,127,120.0
3287,A4,365.667,21/500,127,120.0
3288,G4,365.667,21/500,127,120.0
3289,F#4,365.75,4.0,127,120.0
3290,F4,365.75,21/500,127,120.0
3291,E4,365.75,21/500,127,120.0
3292,G#2,365.75,333/1000,127,120.0
3293,D3,365.75,333/1000,127,120.0
3294,B1,365.75,333/1000,127,120.0
3295,D4,365.833,21/500,127,120.0
3296,C4,365.833,21/500,127,120.0
3297,B3,365.917,21/500,127,120.0
3298,A3,365.917,21/500,127,120.0
3299,B2,366.083,333/1000,127,120.0
3300,B2,366.417,333/1000,127,120.0
3301,A1,366.75,0.25,127,120.0
3302,C#3,366.75,0.25,127,120.0
3303,D2,366.75,0.25,127,120.0
3304,B1,366.75,0.25,127,120.0
3305,A1,367.0,0.75,127,120.0
3306,D2,367.0,0.75,127,120.0
3307,G#2,367.75,1.0,127,120.0
3308,B1,367.75,1.0,127,120.0
3309,E5,368.75,1.0,127,120.0
3310,B1,368.75,1.0,127,120.0
3311,F#4,368.75,4.0,127,120.0
3312,F#4,368.75,4.0,127,120.0
3313,E-5,369.75,1.0,127,120.0
3314,A1,369.75,0.25,127,120.0
3315,G#2,369.75,0.5,127,120.0
3316,B1,369.75,0.5,127,120.0
3317,A1,370.0,0.75,127,120.0
3318,A1,370.25,0.5,127,120.0
3319,D2,370.25,0.5,127,120.0
3320,B4,370.75,4.0,127,120.0
3321,B1,370.75,0.25,127,120.0
3322,A2,371.0,0.25,127,120.0
3323,A2,371.25,0.25,127,120.0
3324,A2,371.5,0.25,127,120.0
3325,G#2,371.75,0.5,127,120.0
3326,B1,371.75,0.5,127,120.0
3327,A1,372.25,0.5,127,120.0
3328,D2,372.25,0.5,127,120.0
3329,A1,372.75,0.25,127,120.0
3330,D2,372.75,0.25,127,120.0
3331,B1,372.75,0.25,127,120.0
3332,A1,373.0,0.5,127,120.0
3333,D2,373.0,0.5,127,120.0
3334,A1,373.25,0.5,127,120.0
3335,B2,373.5,0.25,127,120.0
3336,G#2,373.75,0.5,127,120.0
3337,B2,373.75,0.5,127,120.0
3338,B1,373.75,0.5,127,120.0
3339,D2,374.25,0.125,127,120.0
3340,D2,374.375,0.125,127,120.0
3341,D2,374.5,0.125,127,120.0
3342,D2,374.625,0.125,127,120.0
3343,B4,374.75,2.0,127,120.0
3344,A1,374.75,0.25,127,120.0
3345,D2,374.75,0.25,127,120.0
3346,B1,374.75,0.25,127,120.0
3347,A1,375.0,0.25,127,120.0
3348,D2,375.0,0.25,127,120.0
3349,A1,375.25,0.5,127,120.0
3350,A1,375.25,0.25,127,120.0
3351,D2,375.25,0.25,127,120.0
3352,A1,375.5,0.25,127,120.0
3353,D2,375.5,0.25,127,120.0
3354,A1,375.75,0.25,127,120.0
3355,G#2,375.75,0.75,127,120.0
3356,B1,375.75,0.75,127,120.0
3357,A1,376.0,0.5,127,120.0
3358,C3,376.5,0.25,127,120.0
3359,E5,376.75,1.0,127,120.0
3360,C3,376.75,0.25,127,120.0
3361,B1,376.75,0.25,127,120.0
3362,A1,377.0,0.25,127,120.0
3363,D2,377.0,0.125,127,120.0
3364,D2,377.125,0.125,127,120.0
3365,A1,377.25,0.25,127,120.0
3366,D2,377.25,0.125,127,120.0
3367,D2,377.375,0.125,127,120.0
3368,A1,377.5,0.5,127,120.0
3369,D2,377.5,0.25,127,120.0
3370,E-5,377.75,1.0,127,120.0
3371,A1,377.75,0.25,127,120.0
3372,G#2,377.75,0.25,127,120.0
3373,B1,377.75,0.25,127,120.0
3374,A1,378.0,0.25,127,120.0
3375,A1,378.0,0.25,127,120.0
3376,D2,378.0,0.25,127,120.0
3377,A1,378.25,0.25,127,120.0
3378,A1,378.25,0.5,127,120.0
3379,D2,378.25,0.5,127,120.0
3380,A1,378.5,0.25,127,120.0
3381,B4,378.75,1.5,127,120.0
3382,A1,378.75,0.5,127,120.0
3383,D2,378.75,0.125,127,120.0
3384,B1,378.75,0.125,127,120.0
3385,D2,378.875,0.125,127,120.0
3386,D2,379.0,0.125,127,120.0
3387,D2,379.125,0.125,127,120.0
3388,A1,379.25,0.25,127,120.0
3389,D2,379.25,0.25,127,120.0
3390,A1,379.5,0.25,127,120.0
3391,D2,379.5,0.25,127,120.0
3392,A1,379.75,0.25,127,120.0
3393,G#2,379.75,0.25,127,120.0
3394,D2,379.75,0.25,127,120.0
3395,B1,379.75,0.25,127,120.0
3396,A1,380.0,0.25,127,120.0
3397,A1,380.0,0.25,127,120.0
3398,D2,380.0,0.25,127,120.0
3399,G#4,380.25,0.5,127,120.0
3400,A1,380.25,0.25,127,120.0
3401,A1,380.25,0.25,127,120.0
3402,D2,380.25,0.125,127,120.0
3403,D2,380.375,0.125,127,120.0
3404,A1,380.5,0.5,127,120.0
3405,A1,380.5,0.25,127,120.0
3406,D2,380.5,0.125,127,120.0
3407,D2,380.625,0.125,127,120.0
3408,B4,380.75,2.0,127,120.0
3409,A1,380.75,0.25,127,120.0
3410,B1,380.75,1.0,127,120.0
3411,A1,381.0,0.25,127,120.0
3412,A1,381.25,0.5,127,120.0
3413,A1,381.75,0.5,127,120.0
3414,G#2,381.75,1.0,127,120.0
3415,B2,381.75,1.0,127,120.0
3416,B1,381.75,1.0,127,120.0
3417,A1,382.25,0.25,127,120.0
3418,A1,382.5,0.25,127,120.0
3419,B4,382.75,4.0,127,120.0
3420,A1,382.75,0.25,127,120.0
3421,A1,382.75,0.25,127,120.0
3422,D2,382.75,0.25,127,120.0
3423,B1,382.75,0.25,127,120.0
3424,A1,383.0,0.25,127,120.0
3425,A1,383.0,0.75,127,120.0
3426,D2,383.0,0.75,127,120.0
3427,A1,383.25,0.25,127,120.0
3428,A1,383.5,0.25,127,120.0
3429,A1,383.75,0.25,127,120.0
3430,G#2,383.75,1.0,127,120.0
3431,B1,383.75,1.0,127,120.0
3432,D3,384.75,333/1000,127,120.0
3433,B1,384.75,333/1000,127,120.0
3434,B2,385.083,333/1000,127,120.0
3435,G2,385.417,333/1000,127,120.0
3436,A1,385.75,0.25,127,120.0
3437,G#2,385.75,0.5,127,120.0
3438,B1,385.75,0.5,127,120.0
3439,A1,386.0,0.75,127,120.0
3440,A1,386.25,0.5,127,120.0
3441,D2,386.25,0.5,127,120.0
3442,B1,386.75,1.0,127,120.0
3443,G#2,387.75,0.5,127,120.0
3444,B1,387.75,0.5,127,120.0
3445,A1,388.25,0.5,127,120.0
3446,D2,388.25,0.5,127,120.0
3447,A1,388.75,0.25,127,120.0
3448,D2,388.75,0.25,127,120.0
3449,B1,388.75,0.25,127,120.0
3450,A1,389.0,0.5,127,120.0
3451,D2,389.0,0.75,127,120.0
3452,A1,389.25,0.5,127,120.0
3453,G#2,389.75,0.5,127,120.0
3454,B1,389.75,0.5,127,120.0
3455,D2,390.25,0.125,127,120.0
3456,D2,390.375,0.125,127,120.0
3457,D2,390.5,0.125,127,120.0
3458,D2,390.625,0.125,127,120.0
3459,A1,390.75,0.25,127,120.0
3460,D2,390.75,0.25,127,120.0
3461,B1,390.75,0.25,127,120.0
3462,A1,391.0,0.25,127,120.0
3463,D2,391.0,0.25,127,120.0
3464,A1,391.25,0.5,127,120.0
3465,A1,391.25,0.25,127,120.0
3466,D2,391.25,0.25,127,120.0
3467,A1,391.5,0.25,127,120.0
3468,D2,391.5,0.25,127,120.0
3469,A1,391.75,0.25,127,120.0
3470,G#2,391.75,1.0,127,120.0
3471,B1,391.75,1.0,127,120.0
3472,A1,392.0,0.5,127,120.0
3473,B1,392.75,0.25,127,120.0
3474,A1,393.0,0.25,127,120.0
3475,D2,393.0,0.125,127,120.0
3476,D2,393.125,0.125,127,120.0
3477,A1,393.25,0.25,127,120.0
3478,D2,393.25,0.125,127,120.0
3479,D2,393.375,0.125,127,120.0
3480,A1,393.5,0.5,127,120.0
3481,D2,393.5,0.25,127,120.0
3482,A1,393.75,0.25,127,120.0
3483,G#2,393.75,0.25,127,120.0
3484,B1,393.75,0.25,127,120.0
3485,A1,394.0,0.25,127,120.0
3486,A1,394.0,0.25,127,120.0
3487,D2,394.0,0.25,127,120.0
3488,A1,394.25,0.25,127,120.0
3489,A1,394.25,0.5,127,120.0
3490,D2,394.25,0.5,127,120.0
3491,A1,394.5,0.25,127,120.0
3492,A1,394.75,0.5,127,120.0
3493,D2,394.75,0.125,127,120.0
3494,B1,394.75,0.125,127,120.0
3495,D2,394.875,0.125,127,120.0
3496,D2,395.0,0.125,127,120.0
3497,D2,395.125,0.125,127,120.0
3498,A1,395.25,0.25,127,120.0
3499,D2,395.25,0.25,127,120.0
3500,A1,395.5,0.25,127,120.0
3501,D2,395.5,0.25,127,120.0
3502,A1,395.75,0.25,127,120.0
3503,G#2,395.75,0.25,127,120.0
3504,D2,395.75,0.25,127,120.0
3505,B1,395.75,0.25,127,120.0
3506,A1,396.0,0.25,127,120.0
3507,A1,396.0,0.25,127,120.0
3508,D2,396.0,0.25,127,120.0
3509,A1,396.25,0.25,127,120.0
3510,A1,396.25,0.25,127,120.0
3511,D2,396.25,0.125,127,120.0
3512,D2,396.375,0.125,127,120.0
3513,A1,396.5,0.5,127,120.0
3514,A1,396.5,0.25,127,120.0
3515,D2,396.5,0.125,127,120.0
3516,D2,396.625,0.125,127,120.0
3517,A1,396.75,0.25,127,120.0
3518,B1,396.75,1.0,127,120.0
3519,A1,397.0,0.25,127,120.0
3520,A1,397.25,0.5,127,120.0
3521,A1,397.75,0.5,127,120.0
3522,G#2,397.75,1.0,127,120.0
3523,B2,397.75,1.0,127,120.0
3524,B1,397.75,1.0,127,120.0
3525,A1,398.25,0.25,127,120.0
3526,A1,398.5,0.25,127,120.0
3527,A1,398.75,0.25,127,120.0
3528,A1,398.75,0.25,127,120.0
3529,D2,398.75,0.25,127,120.0
3530,B1,398.75,0.25,127,120.0
3531,A1,399.0,0.25,127,120.0
3532,A1,399.0,0.75,127,120.0
3533,D2,399.0,0.75,127,120.0
3534,A1,399.25,0.25,127,120.0
3535,A1,399.5,0.25,127,120.0
3536,A1,399.75,0.25,127,120.0
3537,G#2,399.75,1.0,127,120.0
3538,B1,399.75,1.0,127,120.0
3539,B1,400.75,0.25,127,120.0
3540,G2,401.0,0.25,127,120.0
3541,G2,401.25,0.5,127,120.0
3542,A1,401.75,0.25,127,120.0
3543,G#2,401.75,0.5,127,120.0
3544,B1,401.75,0.5,127,120.0
3545,A1,402.0,0.75,127,120.0
3546,A1,402.25,0.5,127,120.0
3547,D2,402.25,0.5,127,120.0
3548,B1,402.75,1.0,127,120.0
3549,G#2,403.75,0.5,127,120.0
3550,B1,403.75,0.5,127,120.0
3551,A1,404.25,0.5,127,120.0
3552,D2,404.25,0.5,127,120.0
3553,A1,404.75,0.25,127,120.0
3554,D2,404.75,0.25,127,120.0
3555,B1,404.75,0.25,127,120.0
3556,A1,405.0,0.5,127,120.0
3557,D2,405.0,0.75,127,120.0
3558,A1,405.25,0.5,127,120.0
3559,G#2,405.75,167/1000,127,120.0
3560,B1,405.75,167/1000,127,120.0
3561,A2,405.917,167/1000,127,120.0
3562,A2,406.083,167/1000,127,120.0
3563,D2,406.25,0.125,127,120.0
3564,D2,406.375,0.125,127,120.0
3565,D2,406.5,0.125,127,120.0
3566,D2,406.625,0.125,127,120.0
3567,A1,406.75,0.25,127,120.0
3568,D2,406.75,0.25,127,120.0
3569,B1,406.75,0.25,127,120.0
3570,A1,407.0,0.25,127,120.0
3571,D2,407.0,0.25,127,120.0
3572,A1,407.25,0.5,127,120.0
3573,A1,407.25,0.25,127,120.0
3574,D2,407.25,0.25,127,120.0
3575,A1,407.5,0.25,127,120.0
3576,D2,407.5,0.25,127,120.0
3577,A1,407.75,0.25,127,120.0
3578,G#2,407.75,1.0,127,120.0
3579,B1,407.75,1.0,127,120.0
3580,A1,408.0,0.5,127,120.0
3581,B1,408.75,0.25,127,120.0
3582,A1,409.0,0.25,127,120.0
3583,D2,409.0,0.125,127,120.0
3584,D2,409.125,0.125,127,120.0
3585,A1,409.25,0.25,127,120.0
3586,D2,409.25,0.125,127,120.0
3587,D2,409.375,0.125,127,120.0
3588,A1,409.5,0.5,127,120.0
3589,D2,409.5,0.25,127,120.0
3590,A1,409.75,0.25,127,120.0
3591,G#2,409.75,0.25,127,120.0
3592,B1,409.75,0.25,127,120.0
3593,A1,410.0,0.25,127,120.0
3594,A1,410.0,0.25,127,120.0
3595,D2,410.0,0.25,127,120.0
3596,A1,410.25,0.25,127,120.0
3597,A1,410.25,0.5,127,120.0
3598,D2,410.25,0.5,127,120.0
3599,A1,410.5,0.25,127,120.0
3600,A1,410.75,0.5,127,120.0
3601,D2,410.75,0.125,127,120.0
3602,B1,410.75,0.125,127,120.0
3603,D2,410.875,0.125,127,120.0
3604,D2,411.0,0.125,127,120.0
3605,D2,411.125,0.125,127,120.0
3606,A1,411.25,0.25,127,120.0
3607,D2,411.25,0.25,127,120.0
3608,A1,411.5,0.25,127,120.0
3609,D2,411.5,0.25,127,120.0
3610,A1,411.75,0.25,127,120.0
3611,G#2,411.75,0.25,127,120.0
3612,D2,411.75,0.25,127,120.0
3613,B1,411.75,0.25,127,120.0
3614,A1,412.0,0.25,127,120.0
3615,A1,412.0,0.25,127,120.0
3616,D2,412.0,0.25,127,120.0
3617,A1,412.25,0.25,127,120.0
3618,A1,412.25,0.25,127,120.0
3619,D2,412.25,0.125,127,120.0
3620,D2,412.375,0.125,127,120.0
3621,A1,412.5,0.5,127,120.0
3622,A1,412.5,0.25,127,120.0
3623,D2,412.5,0.125,127,120.0
3624,D2,412.625,0.125,127,120.0
3625,A1,412.75,0.25,127,120.0
3626,B1,412.75,1.0,127,120.0
3627,A1,413.0,0.25,127,120.0
3628,A1,413.25,0.5,127,120.0
3629,A1,413.75,0.5,127,120.0
3630,G#2,413.75,167/1000,127,120.0
3631,B2,413.75,167/1000,127,120.0
3632,B1,413.75,167/1000,127,120.0
3633,B2,413.917,333/1000,127,120.0
3634,A1,414.25,0.25,127,120.0
3635,B2,414.25,0.5,127,120.0
3636,A2,414.25,0.5,127,120.0
3637,A1,414.5,0.25,127,120.0
3638,A1,414.75,0.25,127,120.0
3639,D2,414.75,2.5,127,120.0
3640,D1,414.75,2.5,127,120.0
3641,G2,414.75,0.25,127,120.0
3642,B1,414.75,0.25,127,120.0
3643,A1,415.0,0.25,127,120.0
3644,G2,415.0,0.25,127,120.0
3645,A1,415.25,0.25,127,120.0
3646,G2,415.25,0.25,127,120.0
3647,A1,415.5,0.25,127,120.0
3648,B2,415.5,0.25,127,120.0
3649,B1,415.5,0.25,127,120.0
3650,A1,415.75,0.25,127,120.0
3651,B2,415.75,0.25,127,120.0
3652,A2,416.0,0.25,127,120.0
3653,A2,416.25,0.25,127,120.0
3654,A2,416.5,0.25,127,120.0
3655,B2,416.75,0.25,127,120.0
3656,B2,417.0,0.25,127,120.0
3657,G2,417.25,0.25,127,120.0
3658,B1,417.25,0.25,127,120.0
3659,G2,417.5,0.25,127,120.0
3660,G2,417.75,0.25,127,120.0
3661,B2,418.0,0.25,127,120.0
3662,B1,418.0,0.25,127,120.0
3663,D2,418.25,0.25,127,120.0
3664,D2,418.5,0.25,127,120.0
3665,D2,418.75,0.25,127,120.0
3666,D2,419.0,0.5,127,120.0
3667,D2,419.5,0.25,127,120.0
3668,D2,419.75,0.25,127,120.0
3669,A2,420.0,0.25,127,120.0
3670,B1,420.0,0.25,127,120.0
3671,A2,420.25,0.25,127,120.0
3672,A2,420.5,0.25,127,120.0
3673,G2,420.75,0.25,127,120.0
3674,B1,420.75,0.25,127,120.0
3675,G2,421.0,0.25,127,120.0
3676,B2,421.25,0.25,127,120.0
3677,B2,421.5,0.25,127,120.0
3678,B2,421.75,0.25,127,120.0
3679,A2,422.0,0.25,127,120.0
3680,A2,422.25,0.25,127,120.0
3681,B2,422.5,0.25,127,120.0
3682,B1,422.5,0.25,127,120.0
3683,B2,422.75,0.25,127,120.0
3684,B2,423.0,0.25,127,120.0
3685,G2,423.25,0.25,127,120.0
3686,B1,423.25,0.25,127,120.0
3687,D2,423.5,0.25,127,120.0
3688,D2,423.75,0.25,127,120.0
3689,D2,424.0,0.25,127,120.0
3690,D2,424.25,0.5,127,120.0
3691,D2,424.75,0.25,127,120.0
3692,G#5,424.75,0.25,127,120.0
3693,G#4,424.75,0.25,127,120.0
3694,D2,425.0,0.25,127,120.0
3695,F#5,425.0,0.25,127,120.0
3696,F#4,425.0,0.25,127,120.0
3697,E5,425.25,0.25,127,120.0
3698,E4,425.25,0.25,127,120.0
3699,D2,425.25,2.75,127,120.0
3700,D1,425.25,2.75,127,120.0
3701,B-2,425.25,0.25,127,120.0
3702,B1,425.25,0.25,127,120.0
3703,F#2,425.5,0.25,127,120.0
3704,B5,425.5,0.25,127,120.0
3705,B4,425.5,0.25,127,120.0
3706,F#2,425.75,0.25,127,120.0
3707,G#5,425.75,0.25,127,120.0
3708,G#4,425.75,0.25,127,120.0
3709,F#5,426.0,0.25,127,120.0
3710,F#4,426.0,0.25,127,120.0
3711,F#2,426.0,0.25,127,120.0
3712,B1,426.0,0.25,127,120.0
3713,F#2,426.25,0.25,127,120.0
3714,E5,426.25,0.25,127,120.0
3715,E4,426.25,0.25,127,120.0
3716,B-2,426.5,0.25,127,120.0
3717,E5,426.5,0.25,127,120.0
3718,E4,426.5,0.25,127,120.0
3719,F#2,426.75,0.25,127,120.0
3720,E5,426.75,0.25,127,120.0
3721,E4,426.75,0.25,127,120.0
3722,F#2,427.0,0.25,127,120.0
3723,F#5,427.0,0.25,127,120.0
3724,F#4,427.0,0.25,127,120.0
3725,F#2,427.25,0.25,127,120.0
3726,G#5,427.25,0.25,127,120.0
3727,G#4,427.25,0.25,127,120.0
3728,F#2,427.5,0.25,127,120.0
3729,F#5,427.5,0.25,127,120.0
3730,F#4,427.5,0.25,127,120.0
3731,E5,427.75,0.25,127,120.0
3732,E4,427.75,0.25,127,120.0
3733,B-2,427.75,0.25,127,120.0
3734,B1,427.75,0.25,127,120.0
3735,F#2,428.0,0.25,127,120.0
3736,A5,428.0,0.25,127,120.0
3737,A4,428.0,0.25,127,120.0
3738,F#2,428.25,0.25,127,120.0
3739,G#5,428.25,0.25,127,120.0
3740,G#4,428.25,0.25,127,120.0
3741,F#5,428.5,0.25,127,120.0
3742,F#4,428.5,0.25,127,120.0
3743,B-2,428.5,0.25,127,120.0
3744,B1,428.5,0.25,127,120.0
3745,F#2,428.75,0.25,127,120.0
3746,E5,428.75,0.25,127,120.0
3747,E4,428.75,0.25,127,120.0
3748,F#2,429.0,0.25,127,120.0
3749,E5,429.0,0.25,127,120.0
3750,E4,429.0,0.25,127,120.0
3751,F#2,429.25,0.25,127,120.0
3752,F#2,429.5,0.5,127,120.0
3753,E5,429.5,0.25,127,120.0
3754,E4,429.5,0.25,127,120.0
3755,F#5,429.75,0.25,127,120.0
3756,F#4,429.75,0.25,127,120.0
3757,F#2,430.0,0.25,127,120.0
3758,G#5,430.0,0.25,127,120.0
3759,G#4,430.0,0.25,127,120.0
3760,F#2,430.25,0.25,127,120.0
3761,F#5,430.25,0.25,127,120.0
3762,F#4,430.25,0.25,127,120.0
3763,E5,430.5,0.25,127,120.0
3764,E4,430.5,0.25,127,120.0
3765,B-2,430.5,0.25,127,120.0
3766,B1,430.5,0.25,127,120.0
3767,F#2,430.75,0.25,127,120.0
3768,B5,430.75,0.25,127,120.0
3769,B4,430.75,0.25,127,120.0
3770,F#2,431.0,0.25,127,120.0
3771,G#5,431.0,0.25,127,120.0
3772,G#4,431.0,0.25,127,120.0
3773,F#5,431.25,0.25,127,120.0
3774,F#4,431.25,0.25,127,120.0
3775,F#2,431.25,0.25,127,120.0
3776,B1,431.25,0.25,127,120.0
3777,F#2,431.5,0.25,127,120.0
3778,E5,431.5,0.25,127,120.0
3779,E4,431.5,0.25,127,120.0
3780,B-2,431.75,0.25,127,120.0
3781,E5,431.75,0.25,127,120.0
3782,E4,431.75,0.25,127,120.0
3783,F#2,432.0,0.25,127,120.0
3784,E5,432.0,0.25,127,120.0
3785,E4,432.0,0.25,127,120.0
3786,F#2,432.25,0.25,127,120.0
3787,F#5,432.25,0.25,127,120.0
3788,F#4,432.25,0.25,127,120.0
3789,F#2,432.5,0.25,127,120.0
3790,G#5,432.5,0.25,127,120.0
3791,G#4,432.5,0.25,127,120.0
3792,F#2,432.75,0.25,127,120.0
3793,F#5,432.75,0.25,127,120.0
3794,F#4,432.75,0.25,127,120.0
3795,E5,433.0,0.25,127,120.0
3796,E4,433.0,0.25,127,120.0
3797,B-2,433.0,0.25,127,120.0
3798,B1,433.0,0.25,127,120.0
3799,F#2,433.25,0.25,127,120.0
3800,A5,433.25,0.25,127,120.0
3801,A4,433.25,0.25,127,120.0
3802,D2,433.25,2.5,127,120.0
3803,D1,433.25,2.5,127,120.0
3804,F#2,433.5,0.25,127,120.0
3805,G#5,433.5,0.25,127,120.0
3806,G#4,433.5,0.25,127,120.0
3807,F#5,433.75,0.25,127,120.0
3808,F#4,433.75,0.25,127,120.0
3809,B-2,433.75,0.25,127,120.0
3810,B1,433.75,0.25,127,120.0
3811,F#2,434.0,0.25,127,120.0
3812,E5,434.0,0.25,127,120.0
3813,E4,434.0,0.25,127,120.0
3814,B-2,434.25,0.25,127,120.0
3815,E5,434.25,0.25,127,120.0
3816,E4,434.25,0.25,127,120.0
3817,F#2,434.5,0.25,127,120.0
3818,F#2,434.75,0.25,127,120.0
3819,E6,434.75,0.25,127,120.0
3820,E5,434.75,0.25,127,120.0
3821,F#2,435.0,0.25,127,120.0
3822,F#6,435.0,0.25,127,120.0
3823,F#5,435.0,0.25,127,120.0
3824,G#6,435.25,0.25,127,120.0
3825,G#5,435.25,0.25,127,120.0
3826,F#2,435.25,0.25,127,120.0
3827,B1,435.25,0.25,127,120.0
3828,F#6,435.5,0.25,127,120.0
3829,F#5,435.5,0.25,127,120.0
3830,F#2,435.5,0.25,127,120.0
3831,C#3,435.5,0.25,127,120.0
3832,B1,435.5,0.25,127,120.0
3833,E6,435.75,0.25,127,120.0
3834,E5,435.75,0.25,127,120.0
3835,B6,436.0,0.25,127,120.0
3836,B5,436.0,0.25,127,120.0
3837,G#6,436.25,0.25,127,120.0
3838,G#5,436.25,0.25,127,120.0
3839,F#6,436.5,0.25,127,120.0
3840,F#5,436.5,0.25,127,120.0
3841,E6,436.75,0.25,127,120.0
3842,E5,436.75,0.25,127,120.0
3843,F3,436.75,0.75,127,120.0
3844,D2,436.75,0.75,127,120.0
3845,E6,437.0,0.25,127,120.0
3846,E5,437.0,0.25,127,120.0
3847,E6,437.25,0.25,127,120.0
3848,E5,437.25,0.25,127,120.0
3849,B1,437.5,0.25,127,120.0
3850,F#6,437.5,0.25,127,120.0
3851,F#5,437.5,0.25,127,120.0
3852,F3,437.75,0.25,127,120.0
3853,G#6,437.75,0.25,127,120.0
3854,G#5,437.75,0.25,127,120.0
3855,B1,438.0,0.5,127,120.0
3856,F#6,438.0,0.25,127,120.0
3857,F#5,438.0,0.25,127,120.0
3858,E6,438.25,0.25,127,120.0
3859,E5,438.25,0.25,127,120.0
3860,B1,438.5,0.25,127,120.0
3861,G3,438.5,0.25,127,120.0
3862,C3,438.5,0.25,127,120.0
3863,A6,438.5,0.25,127,120.0
3864,A5,438.5,0.25,127,120.0
3865,D2,438.5,2.75,127,120.0
3866,D1,438.5,2.75,127,120.0
3867,G3,438.75,4.0,127,120.0
3868,C3,438.75,4.0,127,120.0
3869,G#6,438.75,0.25,127,120.0
3870,G#5,438.75,0.25,127,120.0
3871,F3,438.75,0.75,127,120.0
3872,D2,438.75,0.75,127,120.0
3873,F#6,439.0,0.25,127,120.0
3874,F#5,439.0,0.25,127,120.0
3875,E6,439.25,0.25,127,120.0
3876,E5,439.25,0.25,127,120.0
3877,B1,439.5,0.25,127,120.0
3878,E6,439.5,0.25,127,120.0
3879,E5,439.5,0.25,127,120.0
3880,F3,439.75,0.5,127,120.0
3881,B1,439.75,0.5,127,120.0
3882,E6,440.0,0.25,127,120.0
3883,E5,440.0,0.25,127,120.0
3884,B1,440.25,0.5,127,120.0
3885,F#6,440.25,0.25,127,120.0
3886,F#5,440.25,0.25,127,120.0
3887,G#6,440.5,0.25,127,120.0
3888,G#5,440.5,0.25,127,120.0
3889,F#6,440.75,0.25,127,120.0
3890,F#5,440.75,0.25,127,120.0
3891,F3,440.75,1.0,127,120.0
3892,D2,440.75,1.0,127,120.0
3893,E6,441.0,0.25,127,120.0
3894,E5,441.0,0.25,127,120.0
3895,B6,441.25,0.25,127,120.0
3896,B5,441.25,0.25,127,120.0
3897,D2,441.25,2.5,127,120.0
3898,D1,441.25,2.5,127,120.0
3899,G#6,441.5,0.25,127,120.0
3900,G#5,441.5,0.25,127,120.0
3901,F3,441.75,0.25,127,120.0
3902,F#6,441.75,0.25,127,120.0
3903,F#5,441.75,0.25,127,120.0
3904,B1,442.0,0.25,127,120.0
3905,E6,442.0,0.25,127,120.0
3906,E5,442.0,0.25,127,120.0
3907,B1,442.25,0.25,127,120.0
3908,E6,442.25,0.25,127,120.0
3909,E5,442.25,0.25,127,120.0
3910,B1,442.5,0.25,127,120.0
3911,E6,442.5,0.25,127,120.0
3912,E5,442.5,0.25,127,120.0
3913,F#6,442.75,0.25,127,120.0
3914,F#5,442.75,0.25,127,120.0
3915,F3,442.75,0.5,127,120.0
3916,D2,442.75,0.5,127,120.0
3917,G#6,443.0,0.25,127,120.0
3918,G#5,443.0,0.25,127,120.0
3919,B1,443.25,0.25,127,120.0
3920,F#6,443.25,0.25,127,120.0
3921,F#5,443.25,0.25,127,120.0
3922,B1,443.5,0.25,127,120.0
3923,E6,443.5,0.25,127,120.0
3924,E5,443.5,0.25,127,120.0
3925,F#4,443.75,1/5,127,120.0
3926,B-4,443.75,1/5,127,120.0
3927,A6,443.75,0.25,127,120.0
3928,A5,443.75,0.25,127,120.0
3929,F3,443.75,1.0,127,120.0
3930,B1,443.75,1.0,127,120.0
3931,G#4,443.95,1/5,102,120.0
3932,B4,443.95,1/5,102,120.0
3933,G#6,444.0,0.25,127,120.0
3934,G#5,444.0,0.25,127,120.0
3935,F#4,444.15,1/5,102,120.0
3936,B-4,444.15,1/5,102,120.0
3937,F#6,444.25,0.25,127,120.0
3938,F#5,444.25,0.25,127,120.0
3939,E4,444.35,1/5,102,120.0
3940,G#4,444.35,1/5,102,120.0
3941,E6,444.5,0.25,127,120.0
3942,E5,444.5,0.25,127,120.0
3943,E-4,444.55,1/5,127,120.0
3944,F#4,444.55,1/5,127,120.0
3945,E-4,444.75,2.0,127,120.0
3946,F#4,444.75,2.0,127,120.0
3947,E6,444.75,0.25,127,120.0
3948,E5,444.75,0.25,127,120.0
3949,F3,444.75,0.5,127,120.0
3950,D2,444.75,0.5,127,120.0
3951,B1,445.25,0.5,127,120.0
3952,E6,445.25,0.25,127,120.0
3953,E5,445.25,0.25,127,120.0
3954,D6,445.5,0.25,127,120.0
3955,D5,445.5,0.25,127,120.0
3956,F3,445.75,1.0,127,120.0
3957,C#5,446.75,0.25,127,120.0
3958,E5,446.75,0.25,127,120.0
3959,G3,446.75,4.0,127,120.0
3960,C3,446.75,4.0,127,120.0
3961,F3,446.75,1.0,127,120.0
3962,D2,446.75,1.0,127,120.0
3963,A4,447.25,0.25,127,120.0
3964,C#5,447.25,0.25,127,120.0
3965,E-5,447.5,0.25,127,120.0
3966,F#5,447.5,0.25,127,120.0
3967,E-5,447.75,3.5,127,120.0
3968,F#5,447.75,3.5,127,120.0
3969,F3,447.75,0.5,127,120.0
3970,B1,448.25,0.5,127,120.0
3971,F3,448.75,1.0,127,120.0
3972,D2,448.75,1.0,127,120.0
3973,F3,449.75,0.5,127,120.0
3974,B1,450.25,0.5,127,120.0
3975,E-4,450.75,1/5,127,120.0
3976,F3,450.75,0.25,127,120.0
3977,D2,450.75,0.25,127,120.0
3978,E4,450.95,1/5,102,120.0
3979,B1,451.0,0.5,127,120.0
3980,E-4,451.15,1/5,102,120.0
3981,C#4,451.35,1/5,102,120.0
3982,D2,451.5,0.25,127,120.0
3983,D2,451.5,2.75,127,120.0
3984,D1,451.5,2.75,127,120.0
3985,B3,451.55,1/5,102,120.0
3986,B3,451.75,2.0,127,120.0
3987,F#4,451.75,1/5,127,120.0
3988,B-4,451.75,1/5,127,120.0
3989,F3,451.75,1.0,127,120.0
3990,B1,451.75,1.0,127,120.0
3991,G#4,451.95,1/5,102,120.0
3992,B4,451.95,1/5,102,120.0
3993,F#4,452.15,1/5,102,120.0
3994,B-4,452.15,1/5,102,120.0
3995,E4,452.35,1/5,102,120.0
3996,G#4,452.35,1/5,102,120.0
3997,E-4,452.55,1/5,127,120.0
3998,F#4,452.55,1/5,127,120.0
3999,E-4,452.75,2.0,127,120.0
4000,F#4,452.75,2.0,127,120.0
4001,F3,452.75,0.5,127,120.0
4002,D2,452.75,0.5,127,120.0
4003,B1,453.25,0.5,127,120.0
4004,A4,453.75,0.25,127,120.0
4005,F3,453.75,1.0,127,120.0
4006,F#4,454.25,0.25,127,120.0
4007,B4,454.5,0.25,127,120.0
4008,B4,454.75,3.5,127,120.0
4009,C#5,454.75,0.25,127,120.0
4010,E5,454.75,0.25,127,120.0
4011,F3,454.75,0.5,127,120.0
4012,D2,454.75,0.5,127,120.0
4013,A4,455.25,0.25,127,120.0
4014,C#5,455.25,0.25,127,120.0
4015,B1,455.25,0.5,127,120.0
4016,E-5,455.5,0.25,127,120.0
4017,F#5,455.5,0.25,127,120.0
4018,E-5,455.75,0.25,127,120.0
4019,F#5,455.75,0.25,127,120.0
4020,F3,455.75,1.0,127,120.0
4021,F#5,456.0,0.25,127,120.0
4022,A5,456.0,0.25,127,120.0
4023,E-5,456.25,3.5,102,120.0
4024,F#5,456.25,3.5,102,120.0
4025,F3,456.75,0.5,127,120.0
4026,D2,456.75,0.5,127,120.0
4027,B1,457.25,0.5,127,120.0
4028,F3,457.75,0.25,127,120.0
4029,D2,457.75,0.25,127,120.0
4030,B1,458.0,0.25,127,120.0
4031,D3,458.25,0.25,127,120.0
4032,D3,458.5,0.5,127,120.0
4033,B1,458.5,0.5,127,120.0
4034,E-4,458.75,1/5,127,120.0
4035,E4,458.95,1/5,102,120.0
4036,B2,459.0,0.25,127,120.0
4037,E-4,459.15,1/5,102,120.0
4038,D2,459.25,2.5,127,120.0
4039,D1,459.25,2.5,127,120.0
4040,B2,459.25,0.5,127,120.0
4041,B1,459.25,0.5,127,120.0
4042,C#4,459.35,1/5,102,120.0
4043,B3,459.55,1/5,102,120.0
4044,B3,459.75,2.0,127,120.0
4045,D2,459.75,0.25,127,120.0
4046,B1,459.75,0.25,127,120.0
4047,D2,460.0,0.75,127,120.0
4048,G#2,460.75,1.0,127,120.0
4049,B1,460.75,1.0,127,120.0
4050,A4,461.75,0.25,127,120.0
4051,B1,461.75,1.0,127,120.0
4052,F#4,462.25,0.25,127,120.0
4053,B4,462.5,0.25,127,120.0
4054,B4,462.75,0.25,127,120.0
4055,A1,462.75,0.25,127,120.0
4056,G#2,462.75,0.5,127,120.0
4057,B1,462.75,0.5,127,120.0
4058,D5,463.0,0.25,127,120.0
4059,A1,463.0,0.75,127,120.0
4060,B4,463.25,3.5,102,120.0
4061,D2,463.25,0.5,127,120.0
4062,B1,463.75,1.0,127,120.0
4063,B-4,463.75,1/5,127,120.0
4064,F#4,463.75,1/5,127,120.0
4065,E-4,463.75,1/5,127,120.0
4066,B4,463.95,1/5,102,120.0
4067,G#4,463.95,1/5,102,120.0
4068,E4,463.95,1/5,102,120.0
4069,B-4,464.15,1/5,102,120.0
4070,F#4,464.15,1/5,102,120.0
4071,E-4,464.15,1/5,102,120.0
4072,D2,464.25,2.5,127,120.0
4073,D1,464.25,2.5,127,120.0
4074,G#4,464.35,1/5,102,120.0
4075,E4,464.35,1/5,102,120.0
4076,C#4,464.35,1/5,102,120.0
4077,F#4,464.55,1/5,127,120.0
4078,E-4,464.55,1/5,127,120.0
4079,B3,464.55,1/5,127,120.0
4080,F#4,464.75,2.0,127,120.0
4081,E-4,464.75,2.0,127,120.0
4082,B3,464.75,2.0,127,120.0
4083,G#2,464.75,0.5,127,120.0
4084,B1,464.75,0.5,127,120.0
4085,D2,465.25,0.5,127,120.0
4086,D2,465.75,0.25,127,120.0
4087,B1,465.75,0.25,127,120.0
4088,D2,466.0,0.75,127,120.0
4089,A1,466.25,0.5,127,120.0
4090,E5,466.75,0.25,127,120.0
4091,C#5,466.75,0.25,127,120.0
4092,A4,466.75,0.25,127,120.0
4093,C2,466.75,0.25,127,120.0
4094,C1,466.75,0.25,127,120.0
4095,G#2,466.75,0.5,127,120.0
4096,B1,466.75,0.5,127,120.0
4097,D2,467.25,0.125,127,120.0
4098,C#5,467.25,0.25,127,120.0
4099,A4,467.25,0.25,127,120.0
4100,F#4,467.25,0.25,127,120.0
4101,D2,467.375,0.125,127,120.0
4102,D2,467.5,0.125,127,120.0
4103,F#5,467.5,0.25,127,120.0
4104,E-5,467.5,0.25,127,120.0
4105,B4,467.5,0.25,127,120.0
4106,D2,467.625,0.125,127,120.0
4107,F#5,467.75,3.5,127,120.0
4108,E-5,467.75,3.5,127,120.0
4109,B4,467.75,3.5,127,120.0
4110,D2,467.75,0.25,127,120.0
4111,B1,467.75,0.25,127,120.0
4112,D2,468.0,0.25,127,120.0
4113,A1,468.25,0.5,127,120.0
4114,D2,468.25,0.25,127,120.0
4115,D2,468.5,0.25,127,120.0
4116,A1,468.75,0.25,127,120.0
4117,G#2,468.75,1.0,127,120.0
4118,B1,468.75,1.0,127,120.0
4119,A1,469.0,0.75,127,120.0
4120,B1,469.75,0.25,127,120.0
4121,D2,470.0,0.125,127,120.0
4122,D2,470.125,0.125,127,120.0
4123,D2,470.25,0.125,127,120.0
4124,D2,470.375,0.125,127,120.0
4125,D2,470.5,0.25,127,120.0
4126,A1,470.75,0.25,127,120.0
4127,G#2,470.75,0.25,127,120.0
4128,B1,470.75,0.25,127,120.0
4129,A1,471.0,0.25,127,120.0
4130,D2,471.0,0.25,127,120.0
4131,A1,471.25,0.25,127,120.0
4132,D2,471.25,0.5,127,120.0
4133,A1,471.5,0.25,127,120.0
4134,B-4,471.75,1/5,127,120.0
4135,F#4,471.75,1/5,127,120.0
4136,E-4,471.75,1/5,127,120.0
4137,D2,471.75,0.125,127,120.0
4138,B1,471.75,0.125,127,120.0
4139,D2,471.875,0.125,127,120.0
4140,B4,471.95,1/5,102,120.0
4141,G#4,471.95,1/5,102,120.0
4142,E4,471.95,1/5,102,120.0
4143,D2,472.0,0.125,127,120.0
4144,D2,472.125,0.125,127,120.0
4145,B-4,472.15,1/5,102,120.0
4146,F#4,472.15,1/5,102,120.0
4147,E-4,472.15,1/5,102,120.0
4148,D2,472.25,0.25,127,120.0
4149,G#4,472.35,1/5,102,120.0
4150,E4,472.35,1/5,102,120.0
4151,C#4,472.35,1/5,102,120.0
4152,D2,472.5,0.25,127,120.0
4153,F#4,472.55,1/5,127,120.0
4154,E-4,472.55,1/5,127,120.0
4155,B3,472.55,1/5,127,120.0
4156,B3,472.75,1.0,127,120.0
4157,F#4,472.75,2.0,127,120.0
4158,E-4,472.75,2.0,127,120.0
4159,G#2,472.75,0.25,127,120.0
4160,D2,472.75,0.25,127,120.0
4161,B1,472.75,0.25,127,120.0
4162,A1,473.0,0.25,127,120.0
4163,D2,473.0,0.25,127,120.0
4164,A1,473.25,0.25,127,120.0
4165,D2,473.25,0.125,127,120.0
4166,D2,473.375,0.125,127,120.0
4167,A1,473.5,0.5,127,120.0
4168,D2,473.5,0.125,127,120.0
4169,D2,473.625,0.125,127,120.0
4170,D2,473.75,1.0,127,120.0
4171,B1,473.75,1.0,127,120.0
4172,A1,474.0,0.25,127,120.0
4173,A1,474.25,0.5,127,120.0
4174,A1,474.75,0.25,127,120.0
4175,E5,474.75,0.25,127,120.0
4176,C#5,474.75,0.25,127,120.0
4177,A4,474.75,0.25,127,120.0
4178,G#2,474.75,1.0,127,120.0
4179,B2,474.75,1.0,127,120.0
4180,B1,474.75,1.0,127,120.0
4181,A1,475.0,0.25,127,120.0
4182,C2,475.0,4.0,127,120.0
4183,C1,475.0,4.0,127,120.0
4184,A1,475.25,0.25,127,120.0
4185,C#5,475.25,0.25,127,120.0
4186,A4,475.25,0.25,127,120.0
4187,F#4,475.25,0.25,127,120.0
4188,A1,475.5,0.25,127,120.0
4189,F#5,475.5,0.25,127,120.0
4190,E-5,475.5,0.25,127,120.0
4191,B4,475.5,0.25,127,120.0
4192,A1,475.75,0.25,127,120.0
4193,F#5,475.75,0.25,127,120.0
4194,E-5,475.75,0.25,127,120.0
4195,B4,475.75,0.25,127,120.0
4196,E-3,475.75,0.5,127,120.0
4197,B1,475.75,0.5,127,120.0
4198,A1,476.0,0.25,127,120.0
4199,A5,476.0,0.25,127,120.0
4200,F#5,476.0,0.25,127,120.0
4201,D5,476.0,0.25,127,120.0
4202,A1,476.25,0.25,127,120.0
4203,F#3,476.25,0.5,127,120.0
4204,F#5,476.25,3.5,102,120.0
4205,E-5,476.25,3.5,102,120.0
4206,B4,476.25,3.5,102,120.0
4207,A1,476.5,0.25,127,120.0
4208,E-3,476.75,0.5,127,120.0
4209,D2,476.75,0.5,127,120.0
4210,F#3,477.25,0.5,127,120.0
4211,E-3,477.75,0.5,127,120.0
4212,C1,478.25,0.5,127,120.0
4213,F#3,478.25,0.25,127,120.0
4214,B1,478.25,0.25,127,120.0
4215,B1,478.5,0.25,127,120.0
4216,C#1,478.75,1.5,127,120.0
4217,E-3,478.75,0.5,127,120.0
4218,D2,478.75,0.5,127,120.0
4219,F#3,479.25,0.5,127,120.0
4220,B1,479.25,0.5,127,120.0
4221,E-3,479.75,0.5,127,120.0
4222,B1,479.75,0.5,127,120.0
4223,G#1,480.25,0.25,127,120.0
4224,F#3,480.25,0.5,127,120.0
4225,B1,480.25,0.5,127,120.0
4226,C#2,480.5,0.25,127,120.0
4227,E-3,480.75,0.5,127,120.0
4228,D2,480.75,0.5,127,120.0
4229,F#3,481.25,0.5,127,120.0
4230,C#2,481.75,1.0,127,120.0
4231,E-3,481.75,0.5,127,120.0
4232,F#3,482.25,0.25,127,120.0
4233,B1,482.5,0.25,127,120.0
4234,F#2,482.75,2.0,127,120.0
4235,F#1,482.75,2.0,127,120.0
4236,E-3,482.75,0.5,127,120.0
4237,D2,482.75,0.5,127,120.0
4238,C2,483.0,4.0,127,120.0
4239,C1,483.0,4.0,127,120.0
4240,F#3,483.25,0.25,127,120.0
4241,D2,483.25,0.25,127,120.0
4242,B1,483.25,0.25,127,120.0
4243,D2,483.5,0.25,127,120.0
4244,E-3,483.75,0.5,127,120.0
4245,B1,483.75,0.5,127,120.0
4246,F#3,484.25,0.5,127,120.0
4247,B1,484.25,0.5,127,120.0
4248,F#2,484.75,1.5,127,120.0
4249,F#1,484.75,1.5,127,120.0
4250,E-3,484.75,0.5,127,120.0
4251,D2,484.75,0.5,127,120.0
4252,F#3,485.25,0.5,127,120.0
4253,E-3,485.75,0.5,127,120.0
4254,B1,485.75,0.5,127,120.0
4255,B3,486.25,0.25,127,120.0
4256,F#2,486.25,0.5,127,120.0
4257,F#1,486.25,0.5,127,120.0
4258,F#3,486.25,0.5,127,120.0
4259,B1,486.25,0.5,127,120.0
4260,C#2,486.75,4.0,127,120.0
4261,G#4,486.75,0.5,127,120.0
4262,E4,486.75,0.5,127,120.0
4263,C#4,486.75,0.5,127,120.0
4264,B3,486.75,0.5,127,120.0
4265,E-3,486.75,0.5,127,120.0
4266,D2,486.75,0.5,127,120.0
4267,A1,487.0,0.75,127,120.0
4268,F#3,487.25,0.5,127,120.0
4269,B1,487.25,0.5,127,120.0
4270,G#4,487.5,0.25,127,120.0
4271,E4,487.5,0.25,127,120.0
4272,C#4,487.5,0.25,127,120.0
4273,B3,487.5,0.25,127,120.0
4274,A2,487.75,0.25,127,120.0
4275,E-3,487.75,0.5,127,120.0
4276,B1,487.75,0.5,127,120.0
4277,A1,488.0,1.0,127,120.0
4278,G#4,488.0,1.25,127,120.0
4279,E4,488.0,1.25,127,120.0
4280,C#4,488.0,1.25,127,120.0
4281,B3,488.0,1.25,127,120.0
4282,F#3,488.25,0.5,127,120.0
4283,E-3,488.75,0.5,127,120.0
4284,D2,488.75,0.5,127,120.0
4285,A1,489.0,0.5,127,120.0
4286,F#3,489.25,0.25,127,120.0
4287,G#4,489.25,0.5,127,120.0
4288,E4,489.25,0.5,127,120.0
4289,C#4,489.25,0.5,127,120.0
4290,B3,489.25,0.5,127,120.0
4291,A1,489.5,0.5,127,120.0
4292,B1,489.5,0.25,127,120.0
4293,E-3,489.75,0.5,127,120.0
4294,B1,489.75,0.5,127,120.0
4295,A2,490.0,0.25,127,120.0
4296,F#4,490.25,0.75,127,120.0
4297,A1,490.25,0.5,127,120.0
4298,F#3,490.25,0.25,127,120.0
4299,B2,490.25,0.25,127,120.0
4300,B2,490.5,0.5,127,120.0
4301,C5,490.75,0.25,127,120.0
4302,F#1,490.75,1.0,127,120.0
4303,A2,490.75,0.25,127,120.0
4304,A1,491.0,0.5,127,120.0
4305,A2,491.0,0.25,127,120.0
4306,E5,491.0,0.25,127,120.0
4307,C#5,491.0,0.25,127,120.0
4308,F#4,491.25,0.5,127,120.0
4309,F#3,491.25,0.5,127,120.0
4310,A2,491.25,0.5,127,120.0
4311,A1,491.5,0.5,127,120.0
4312,E-5,491.5,0.25,127,120.0
4313,B4,491.5,0.25,127,120.0
4314,F#1,491.75,0.75,127,120.0
4315,E-3,491.75,0.5,127,120.0
4316,B1,491.75,0.5,127,120.0
4317,F#4,492.0,0.5,127,120.0
4318,F#2,492.0,2.75,127,120.0
4319,A1,492.0,0.75,127,120.0
4320,E-5,492.25,0.25,127,120.0
4321,B4,492.25,0.25,127,120.0
4322,F#3,492.25,0.5,127,120.0
4323,B1,492.25,0.5,127,120.0
4324,F#1,492.5,0.75,127,120.0
4325,C5,492.75,0.25,127,120.0
4326,F#4,492.75,0.5,127,120.0
4327,A1,492.75,0.25,127,120.0
4328,E-3,492.75,0.5,127,120.0
4329,D2,492.75,0.5,127,120.0
4330,E5,493.0,0.25,127,120.0
4331,C#5,493.0,0.25,127,120.0
4332,F#4,493.25,0.5,127,120.0
4333,F#1,493.25,0.75,127,120.0
4334,A2,493.25,0.5,127,120.0
4335,F#3,493.25,0.5,127,120.0
4336,A2,493.75,0.25,127,120.0
4337,E-3,493.75,0.5,127,120.0
4338,F#1,494.0,0.75,127,120.0
4339,A2,494.0,0.5,127,120.0
4340,F#3,494.25,0.5,127,120.0
4341,B1,494.25,0.5,127,120.0
4342,A2,494.5,0.5,127,120.0
4343,C#2,494.75,1.5,127,120.0
4344,B4,494.75,1.0,127,120.0
4345,G#4,494.75,1.0,127,120.0
4346,E4,494.75,1.0,127,120.0
4347,E-4,494.75,1.0,127,120.0
4348,E-3,494.75,0.5,127,120.0
4349,D2,494.75,0.5,127,120.0
4350,A1,495.0,0.75,127,120.0
4351,F#3,495.25,0.25,127,120.0
4352,B1,495.25,0.25,127,120.0
4353,B1,495.5,0.25,127,120.0
4354,A2,495.75,0.25,127,120.0
4355,E-3,495.75,0.5,127,120.0
4356,A1,496.0,1.0,127,120.0
4357,C4,496.25,71/1000,127,120.0
4358,C#3,496.25,2.5,127,120.0
4359,C#2,496.25,1.25,127,120.0
4360,F#3,496.25,0.5,127,120.0
4361,B1,496.25,0.5,127,120.0
4362,C#4,496.321,71/1000,127,120.0
4363,D4,496.392,71/1000,127,120.0
4364,E4,496.462,71/1000,127,120.0
4365,F4,496.533,71/1000,127,120.0
4366,G4,496.604,71/1000,127,120.0
4367,A4,496.675,71/1000,127,120.0
4368,B4,496.746,71/1000,127,120.0
4369,B4,496.75,0.75,127,120.0
4370,G#4,496.75,0.75,127,120.0
4371,B3,496.75,0.75,127,120.0
4372,E-3,496.75,0.25,127,120.0
4373,D2,496.75,0.25,127,120.0
4374,C5,496.817,71/1000,127,120.0
4375,D5,496.887,71/1000,127,120.0
4376,E5,496.958,71/1000,127,120.0
4377,A1,497.0,0.5,127,120.0
4378,D2,497.0,0.25,127,120.0
4379,F5,497.029,71/1000,127,120.0
4380,G5,497.1,71/1000,127,120.0
4381,A5,497.171,71/1000,127,120.0
4382,B5,497.242,71/1000,127,120.0
4383,F#3,497.25,0.5,127,120.0
4384,C6,497.312,71/1000,127,120.0
4385,D6,497.383,71/1000,127,120.0
4386,E6,497.454,71/1000,127,120.0
4387,C#2,497.5,0.5,127,120.0
4388,A1,497.5,0.5,127,120.0
4389,B-4,497.5,0.5,127,120.0
4390,F#4,497.5,0.5,127,120.0
4391,B-3,497.5,0.5,127,120.0
4392,F6,497.525,71/1000,127,120.0
4393,G6,497.596,71/1000,127,120.0
4394,A6,497.667,71/1000,127,120.0
4395,A6,497.75,0.25,127,120.0
4396,F6,497.75,0.25,127,120.0
4397,E-3,497.75,0.5,127,120.0
4398,B1,497.75,0.5,127,120.0
4399,C#2,498.0,0.75,127,120.0
4400,A1,498.0,1.0,127,120.0
4401,G#4,498.0,0.25,127,120.0
4402,E4,498.0,0.25,127,120.0
4403,G#3,498.0,0.25,127,120.0
4404,B-6,498.0,0.25,127,120.0
4405,F#6,498.0,0.25,127,120.0
4406,C#6,498.25,0.25,127,120.0
4407,E4,498.25,0.5,127,120.0
4408,C#4,498.25,0.5,127,120.0
4409,E3,498.25,0.5,127,120.0
4410,F#3,498.25,0.25,127,120.0
4411,D2,498.25,0.25,127,120.0
4412,D2,498.5,0.25,127,120.0
4413,F6,498.5,0.25,127,120.0
4414,C6,498.5,0.25,127,120.0
4415,F#1,498.75,2.0,127,120.0
4416,D2,498.75,0.25,127,120.0
4417,F#6,498.75,0.25,127,120.0
4418,C#6,498.75,0.25,127,120.0
4419,B-5,499.0,0.25,127,120.0
4420,A1,499.0,0.25,127,120.0
4421,A2,499.0,0.25,127,120.0
4422,A1,499.25,0.5,127,120.0
4423,C6,499.25,0.25,127,120.0
4424,A5,499.25,0.25,127,120.0
4425,F#3,499.25,0.5,127,120.0
4426,G2,499.25,0.5,127,120.0
4427,C#6,499.5,0.25,127,120.0
4428,B-5,499.5,0.25,127,120.0
4429,F#5,499.75,0.25,127,120.0
4430,A1,499.75,0.25,127,120.0
4431,E-3,499.75,0.5,127,120.0
4432,B1,499.75,0.5,127,120.0
4433,A2,500.0,1.0,127,120.0
4434,A5,500.0,0.25,127,120.0
4435,F5,500.0,0.25,127,120.0
4436,F#2,500.25,2.5,127,120.0
4437,B-5,500.25,0.25,127,120.0
4438,F#5,500.25,0.25,127,120.0
4439,F#3,500.25,0.5,127,120.0
4440,B1,500.25,0.5,127,120.0
4441,C#5,500.5,0.25,127,120.0
4442,F#1,500.75,2.0,127,120.0
4443,F5,500.75,0.25,127,120.0
4444,C5,500.75,0.25,127,120.0
4445,E-3,500.75,0.5,127,120.0
4446,D2,500.75,0.5,127,120.0
4447,A1,501.0,0.25,127,120.0
4448,F#5,501.0,0.25,127,120.0
4449,C#5,501.0,0.25,127,120.0
4450,B-4,501.25,0.25,127,120.0
4451,A1,501.25,0.5,127,120.0
4452,F#3,501.25,0.5,127,120.0
4453,F4,501.25,1.0,127,120.0
4454,C4,501.25,1.0,127,120.0
4455,F3,501.25,1.0,127,120.0
4456,A1,501.75,0.25,127,120.0
4457,E-3,501.75,0.5,127,120.0
4458,B1,501.75,0.5,127,120.0
4459,A2,502.0,0.5,127,120.0
4460,D5,502.25,1/10,127,120.0
4461,F#4,502.25,0.5,127,120.0
4462,C#4,502.25,0.5,127,120.0
4463,F#3,502.25,0.5,127,120.0
4464,F#3,502.25,0.25,127,120.0
4465,B1,502.25,0.25,127,120.0
4466,D6,502.35,1/10,127,120.0
4467,D5,502.45,1/10,127,120.0
4468,A1,502.5,0.5,127,120.0
4469,B1,502.5,0.25,127,120.0
4470,D6,502.55,1/10,127,120.0
4471,D5,502.65,1/10,127,120.0
4472,E-5,502.75,3/20,127,120.0
4473,C#2,502.75,1.5,127,120.0
4474,E-3,502.75,0.5,127,120.0
4475,D2,502.75,0.5,127,120.0
4476,E-6,502.9,3/20,127,120.0
4477,A1,503.0,0.25,127,120.0
4478,E-5,503.05,3/20,127,120.0
4479,E-6,503.2,3/20,127,120.0
4480,A1,503.25,0.75,127,120.0
4481,F#3,503.25,0.25,127,120.0
4482,B1,503.25,0.25,127,120.0
4483,E-5,503.35,3/20,127,120.0
4484,E-6,503.5,3/20,127,120.0
4485,B1,503.5,0.25,127,120.0
4486,E-5,503.65,3/20,127,120.0
4487,E-3,503.75,0.5,127,120.0
4488,B1,503.75,0.5,127,120.0
4489,E-6,503.8,3/20,127,120.0
4490,E-5,503.95,3/20,127,120.0
4491,E-6,504.1,3/20,127,120.0
4492,C#2,504.25,1.5,127,120.0
4493,F#3,504.25,0.5,127,120.0
4494,B1,504.25,0.5,127,120.0
4495,G#4,504.75,0.25,127,120.0
4496,E4,504.75,0.25,127,120.0
4497,G#3,504.75,0.25,127,120.0
4498,E-6,504.75,0.25,127,120.0
4499,E-5,504.75,0.25,127,120.0
4500,E-3,504.75,0.5,127,120.0
4501,D2,504.75,0.5,127,120.0
4502,F#6,505.0,0.25,127,120.0
4503,F#5,505.0,0.25,127,120.0
4504,F#3,505.25,0.5,127,120.0
4505,G#4,505.5,0.25,127,120.0
4506,E4,505.5,0.25,127,120.0
4507,G#3,505.5,0.25,127,120.0
4508,C#2,505.75,0.5,127,120.0
4509,E-3,505.75,0.5,127,120.0
4510,B-6,505.75,0.25,127,120.0
4511,B-5,505.75,0.25,127,120.0
4512,C#2,506.25,0.5,127,120.0
4513,F#6,506.25,0.25,127,120.0
4514,F#5,506.25,0.25,127,120.0
4515,F#3,506.25,0.5,127,120.0
4516,B1,506.25,0.5,127,120.0
4517,A1,506.5,0.5,127,120.0
4518,F#1,506.75,1.5,127,120.0
4519,E-6,506.75,0.25,127,120.0
4520,E-5,506.75,0.25,127,120.0
4521,E-3,506.75,0.5,127,120.0
4522,D2,506.75,0.5,127,120.0
4523,C#6,507.25,0.25,127,120.0
4524,C#5,507.25,0.25,127,120.0
4525,F#3,507.25,0.5,127,120.0
4526,B1,507.25,0.5,127,120.0
4527,B3,507.75,0.25,127,120.0
4528,D2,507.75,0.5,127,120.0
4529,B-5,507.75,0.25,127,120.0
4530,B-4,507.75,0.25,127,120.0
4531,B-3,508.0,0.25,102,120.0
4532,F#3,508.25,0.25,127,120.0
4533,F#1,508.25,0.5,127,120.0
4534,G#5,508.25,0.25,127,120.0
4535,G#4,508.25,0.25,127,120.0
4536,F#3,508.25,0.25,127,120.0
4537,B1,508.25,0.25,127,120.0
4538,B3,508.5,0.25,127,120.0
4539,A1,508.5,0.5,127,120.0
4540,D2,508.5,0.5,127,120.0
4541,B-3,508.75,0.25,102,120.0
4542,F#1,508.75,0.5,127,120.0
4543,F#5,508.75,0.25,127,120.0
4544,F#4,508.75,0.25,127,120.0
4545,F#3,509.0,0.25,127,120.0
4546,A1,509.0,0.25,127,120.0
4547,B1,509.0,0.25,127,120.0
4548,B3,509.25,0.25,127,120.0
4549,F#1,509.25,1.0,127,120.0
4550,A1,509.25,0.75,127,120.0
4551,F#3,509.25,0.5,127,120.0
4552,D2,509.25,0.5,127,120.0
4553,B-3,509.5,0.25,102,120.0
4554,F#3,509.75,0.25,127,120.0
4555,B1,509.75,0.25,127,120.0
4556,B3,510.0,0.25,127,120.0
4557,D2,510.0,0.25,127,120.0
4558,B-3,510.25,0.25,102,120.0
4559,F#1,510.25,0.5,127,120.0
4560,F#3,510.25,0.25,127,120.0
4561,F#3,510.5,0.25,127,120.0
4562,B1,510.5,0.25,127,120.0
4563,B3,510.75,0.25,127,120.0
4564,C#3,510.75,1.5,127,120.0
4565,C#2,510.75,0.75,127,120.0
4566,D2,510.75,0.5,127,120.0
4567,E-5,510.75,1.0,127,120.0
4568,B4,510.75,1.0,127,120.0
4569,G#4,510.75,1.0,127,120.0
4570,B-3,511.0,0.25,102,120.0
4571,A1,511.0,0.25,127,120.0
4572,F#3,511.25,0.25,127,120.0
4573,A1,511.25,0.25,127,120.0
4574,F#3,511.25,0.5,127,120.0
4575,B1,511.25,0.5,127,120.0
4576,C#2,511.5,2.25,127,120.0
4577,A1,511.5,0.25,127,120.0
4578,F#3,511.75,4.0,127,120.0
4579,A1,511.75,0.25,127,120.0
4580,C#3,511.75,0.5,127,120.0
4581,B1,511.75,0.5,127,120.0
4582,C#3,512.25,1.75,127,120.0
4583,F#3,512.25,0.5,127,120.0
4584,E5,512.25,0.75,127,120.0
4585,B4,512.25,0.75,127,120.0
4586,G#4,512.25,0.75,127,120.0
4587,D2,512.75,0.5,127,120.0
4588,B4,512.75,0.75,127,120.0
4589,G#4,512.75,0.75,127,120.0
4590,B3,512.75,0.75,127,120.0
4591,E-5,513.0,0.75,127,120.0
4592,B4,513.0,0.75,127,120.0
4593,G#4,513.0,0.75,127,120.0
4594,A1,513.25,0.25,127,120.0
4595,F#3,513.25,1.0,127,120.0
4596,A1,513.5,0.25,127,120.0
4597,B-4,513.5,0.5,127,120.0
4598,F#4,513.5,0.5,127,120.0
4599,B-3,513.5,0.5,127,120.0
4600,C#2,513.75,1.0,127,120.0
4601,A1,513.75,0.5,127,120.0
4602,C#5,513.75,1.0,127,120.0
4603,B-4,513.75,1.0,127,120.0
4604,F#4,513.75,1.0,127,120.0
4605,C#3,514.0,0.75,127,120.0
4606,G#4,514.0,0.25,127,120.0
4607,E4,514.0,0.25,127,120.0
4608,G#3,514.0,0.25,127,120.0
4609,A1,514.25,0.25,127,120.0
4610,E4,514.25,0.5,127,120.0
4611,C#4,514.25,0.5,127,120.0
4612,E3,514.25,0.5,127,120.0
4613,F#3,514.25,0.25,127,120.0
4614,B1,514.25,0.25,127,120.0
4615,A1,514.5,0.5,127,120.0
4616,B1,514.5,0.25,127,120.0
4617,B4,514.75,0.25,127,120.0
4618,F#2,514.75,1.5,127,120.0
4619,D2,514.75,0.5,127,120.0
4620,B-4,515.0,0.25,102,120.0
4621,A1,515.0,0.25,127,120.0
4622,F#4,515.25,0.25,127,120.0
4623,A1,515.25,0.25,127,120.0
4624,F#3,515.25,0.5,127,120.0
4625,B1,515.25,0.5,127,120.0
4626,B4,515.5,0.25,127,120.0
4627,A1,515.5,0.25,127,120.0
4628,B-4,515.75,0.25,102,120.0
4629,B3,515.75,0.25,127,120.0
4630,A1,515.75,0.25,127,120.0
4631,D2,515.75,0.5,127,120.0
4632,B4,515.75,0.25,127,120.0
4633,G#4,515.75,0.25,127,120.0
4634,E4,515.75,0.25,127,120.0
4635,F#4,516.0,0.25,127,120.0
4636,B-3,516.0,0.25,102,120.0
4637,A1,516.0,0.25,127,120.0
4638,C#5,516.0,0.25,127,120.0
4639,B-4,516.0,0.25,127,120.0
4640,F#4,516.0,0.25,127,120.0
4641,B4,516.25,0.25,127,120.0
4642,F#3,516.25,0.25,127,120.0
4643,F#2,516.25,0.5,127,120.0
4644,A1,516.25,0.25,127,120.0
4645,F#3,516.25,0.25,127,120.0
4646,B1,516.25,0.25,127,120.0
4647,B-4,516.5,0.25,102,120.0
4648,B3,516.5,0.25,127,120.0
4649,C#5,516.5,0.5,127,120.0
4650,A1,516.5,0.25,127,120.0
4651,D2,516.5,0.5,127,120.0
4652,B-4,516.5,0.25,127,120.0
4653,F#4,516.5,0.25,127,120.0
4654,F#4,516.75,0.25,127,120.0
4655,B-3,516.75,0.25,102,120.0
4656,F#2,516.75,0.5,127,120.0
4657,A1,516.75,0.25,127,120.0
4658,B-4,516.75,0.25,127,120.0
4659,F#4,516.75,0.25,127,120.0
4660,B4,517.0,0.25,127,120.0
4661,F#3,517.0,0.25,127,120.0
4662,B1,517.0,0.25,127,120.0
4663,B-4,517.25,0.25,102,120.0
4664,B3,517.25,0.25,127,120.0
4665,F#2,517.25,0.5,127,120.0
4666,F4,517.25,1.0,127,120.0
4667,C4,517.25,1.0,127,120.0
4668,F3,517.25,1.0,127,120.0
4669,F#3,517.25,0.5,127,120.0
4670,D2,517.25,0.5,127,120.0
4671,F#4,517.5,0.25,127,120.0
4672,B-3,517.5,0.25,102,120.0
4673,B4,517.75,0.25,127,120.0
4674,F#3,517.75,0.25,127,120.0
4675,F#2,517.75,1.0,127,120.0
4676,B1,517.75,0.25,127,120.0
4677,G#4,517.75,2.0,127,120.0
4678,E4,517.75,2.0,127,120.0
4679,C#4,517.75,2.0,127,120.0
4680,B-4,518.0,0.25,102,120.0
4681,B3,518.0,0.25,127,120.0
4682,D2,518.0,0.25,127,120.0
4683,F#4,518.25,0.25,127,120.0
4684,B-3,518.25,0.25,102,120.0
4685,F#3,518.25,0.25,127,120.0
4686,F#4,518.25,0.5,127,120.0
4687,C#4,518.25,0.5,127,120.0
4688,F#3,518.25,0.5,127,120.0
4689,F#3,518.5,0.25,127,120.0
4690,B1,518.5,0.25,127,120.0
4691,F#4,518.75,4.0,127,120.0
4692,B3,518.75,0.25,127,120.0
4693,C#2,518.75,0.75,127,120.0
4694,D2,518.75,0.5,127,120.0
4695,B-3,519.0,0.25,102,120.0
4696,C#2,519.0,1.0,127,120.0
4697,F#3,519.25,0.25,127,120.0
4698,F#3,519.25,0.5,127,120.0
4699,B1,519.25,0.5,127,120.0
4700,C#2,519.5,0.75,127,120.0
4701,F#3,519.75,4.0,127,120.0
4702,B1,519.75,0.5,127,120.0
4703,C#3,520.0,2.0,127,120.0
4704,G#4,520.0,0.75,127,120.0
4705,E4,520.0,0.75,127,120.0
4706,C#4,520.0,0.75,127,120.0
4707,C#2,520.25,0.75,127,120.0
4708,F#3,520.25,0.5,127,120.0
4709,E-3,520.25,0.5,127,120.0
4710,G#4,520.75,0.25,127,120.0
4711,E4,520.75,0.25,127,120.0
4712,G#3,520.75,0.25,127,120.0
4713,E-3,520.75,0.5,127,120.0
4714,D2,520.75,0.5,127,120.0
4715,C#2,521.0,0.75,127,120.0
4716,C#4,521.25,0.5,127,120.0
4717,F#3,521.25,0.25,127,120.0
4718,B1,521.5,0.25,127,120.0
4719,G#4,521.5,0.25,127,120.0
4720,E4,521.5,0.25,127,120.0
4721,G#3,521.5,0.25,127,120.0
4722,G#4,521.5,0.25,127,120.0
4723,E4,521.5,0.25,127,120.0
4724,C#2,521.75,0.5,127,120.0
4725,B1,521.75,0.5,127,120.0
4726,C#2,522.0,0.25,127,120.0
4727,C#2,522.25,0.5,127,120.0
4728,C#3,522.25,0.25,127,120.0
4729,F#3,522.25,0.5,127,120.0
4730,E-3,522.25,0.5,127,120.0
4731,B1,522.25,0.5,127,120.0
4732,C#2,522.5,0.5,127,120.0
4733,B4,522.75,0.25,127,120.0
4734,F#2,522.75,3.0,127,120.0
4735,B-4,522.75,0.5,127,120.0
4736,F#4,522.75,0.5,127,120.0
4737,C#4,522.75,0.5,127,120.0
4738,E-3,522.75,0.5,127,120.0
4739,D2,522.75,0.5,127,120.0
4740,B-4,523.0,0.25,102,120.0
4741,F#1,523.0,1.5,127,120.0
4742,F#4,523.25,0.25,127,120.0
4743,F#3,523.25,0.5,127,120.0
4744,B1,523.25,0.5,127,120.0
4745,B4,523.5,0.25,127,120.0
4746,B-4,523.5,0.25,127,120.0
4747,F#4,523.5,0.25,127,120.0
4748,C#4,523.5,0.25,127,120.0
4749,B-4,523.75,0.25,102,120.0
4750,B3,523.75,0.25,127,120.0
4751,C#3,523.75,0.5,127,120.0
4752,B1,523.75,0.5,127,120.0
4753,F#4,524.0,0.25,127,120.0
4754,B-3,524.0,0.25,102,120.0
4755,B4,524.0,0.25,127,120.0
4756,F#4,524.0,0.25,127,120.0
4757,E-4,524.0,0.25,127,120.0
4758,B4,524.25,0.25,127,120.0
4759,F#3,524.25,0.25,127,120.0
4760,F#3,524.25,0.25,127,120.0
4761,D2,524.25,0.25,127,120.0
4762,B-4,524.5,0.25,102,120.0
4763,B3,524.5,0.25,127,120.0
4764,E1,524.5,1.0,127,120.0
4765,A3,524.5,0.25,127,120.0
4766,B1,524.5,0.5,127,120.0
4767,B-4,524.5,0.5,127,120.0
4768,F#4,524.5,0.5,127,120.0
4769,C#4,524.5,0.5,127,120.0
4770,F#4,524.75,0.25,127,120.0
4771,B-3,524.75,0.25,102,120.0
4772,B4,525.0,0.25,127,120.0
4773,F#3,525.0,0.25,127,120.0
4774,D2,525.0,0.25,127,120.0
4775,B-4,525.25,0.25,102,120.0
4776,B3,525.25,0.25,127,120.0
4777,B-4,525.25,0.25,127,120.0
4778,F#4,525.25,0.25,127,120.0
4779,C#4,525.25,0.25,127,120.0
4780,F#3,525.25,0.5,127,120.0
4781,C#3,525.25,0.5,127,120.0
4782,B1,525.25,0.5,127,120.0
4783,F#4,525.5,0.25,127,120.0
4784,B-3,525.5,0.25,102,120.0
4785,E-1,525.5,1.0,127,120.0
4786,B4,525.75,0.25,127,120.0
4787,F#3,525.75,0.25,127,120.0
4788,D2,525.75,0.25,127,120.0
4789,G#4,525.75,0.75,127,120.0
4790,E4,525.75,0.75,127,120.0
4791,C#4,525.75,0.75,127,120.0
4792,B-4,526.0,0.25,102,120.0
4793,B3,526.0,0.25,127,120.0
4794,F#2,526.0,0.75,127,120.0
4795,A3,526.0,0.25,127,120.0
4796,B1,526.0,0.25,127,120.0
4797,F#4,526.25,0.25,127,120.0
4798,B-3,526.25,0.25,102,120.0
4799,F#3,526.25,0.25,127,120.0
4800,F#3,526.5,0.25,127,120.0
4801,C#1,526.5,0.5,127,120.0
4802,D2,526.5,0.25,127,120.0
4803,G#4,526.5,0.75,127,120.0
4804,E4,526.5,0.75,127,120.0
4805,C#4,526.5,0.75,127,120.0
4806,F#4,526.75,4.0,127,120.0
4807,B3,526.75,0.25,127,120.0
4808,C#2,526.75,0.75,127,120.0
4809,C#3,526.75,0.5,127,120.0
4810,B1,526.75,0.5,127,120.0
4811,B-3,527.0,0.25,102,120.0
4812,C#1,527.0,1.5,127,120.0
4813,F#3,527.25,0.25,127,120.0
4814,G#4,527.25,0.75,127,120.0
4815,E4,527.25,0.75,127,120.0
4816,C#4,527.25,0.75,127,120.0
4817,F#3,527.25,0.25,127,120.0
4818,D2,527.25,0.25,127,120.0
4819,C#2,527.5,0.75,127,120.0
4820,F2,527.5,0.25,127,120.0
4821,F#3,527.75,4.0,127,120.0
4822,B1,527.75,0.5,127,120.0
4823,B4,527.75,0.25,127,120.0
4824,B3,527.75,0.25,127,120.0
4825,B-4,528.0,0.25,127,120.0
4826,B-3,528.0,0.25,127,120.0
4827,G#4,528.0,0.75,127,120.0
4828,E4,528.0,0.75,127,120.0
4829,C#4,528.0,0.75,127,120.0
4830,C#2,528.25,0.75,127,120.0
4831,F#4,528.25,0.25,127,120.0
4832,F#3,528.25,0.25,127,120.0
4833,F#3,528.25,0.5,127,120.0
4834,B1,528.25,0.5,127,120.0
4835,C#1,528.5,1.0,127,120.0
4836,B4,528.5,0.25,127,120.0
4837,B3,528.5,0.25,127,120.0
4838,D2,528.75,0.5,127,120.0
4839,B-4,528.75,0.25,127,120.0
4840,B-3,528.75,0.25,127,120.0
4841,G#4,528.75,0.5,127,120.0
4842,E4,528.75,0.5,127,120.0
4843,C#4,528.75,0.5,127,120.0
4844,C#2,529.0,0.75,127,120.0
4845,F#4,529.0,0.25,127,120.0
4846,F#3,529.0,0.25,127,120.0
4847,F#3,529.25,0.5,127,120.0
4848,B4,529.25,0.25,127,120.0
4849,B3,529.25,0.25,127,120.0
4850,E-1,529.5,0.75,127,120.0
4851,B-4,529.5,0.25,127,120.0
4852,B-3,529.5,0.25,127,120.0
4853,C#2,529.75,1.0,127,120.0
4854,B1,529.75,0.5,127,120.0
4855,F#4,529.75,0.25,127,120.0
4856,F#3,529.75,0.25,127,120.0
4857,B4,530.0,0.25,127,120.0
4858,B3,530.0,0.25,127,120.0
4859,F#4,530.25,1.0,127,120.0
4860,E1,530.25,0.75,127,120.0
4861,B-4,530.25,0.25,127,120.0
4862,B-3,530.25,0.25,127,120.0
4863,F#3,530.25,0.25,127,120.0
4864,C3,530.25,0.25,127,120.0
4865,C3,530.5,0.5,127,120.0
4866,F#4,530.5,0.25,127,120.0
4867,F#3,530.5,0.25,127,120.0
4868,C5,530.625,0.125,127,120.0
4869,B4,530.75,0.25,127,120.0
4870,F#2,530.75,4.0,127,120.0
4871,B4,530.75,0.25,127,120.0
4872,B3,530.75,0.25,127,120.0
4873,E5,530.75,0.5,127,120.0
4874,C#5,530.75,0.5,127,120.0
4875,B-4,531.0,0.25,102,120.0
4876,F#1,531.0,1.0,127,120.0
4877,B2,531.0,0.25,127,120.0
4878,B-4,531.0,0.25,127,120.0
4879,B-3,531.0,0.25,127,120.0
4880,F#4,531.25,0.25,127,120.0
4881,F#4,531.25,0.75,127,120.0
4882,F#4,531.25,0.25,127,120.0
4883,F#3,531.25,0.25,127,120.0
4884,F#3,531.25,0.5,127,120.0
4885,B2,531.25,0.5,127,120.0
4886,B4,531.5,0.25,127,120.0
4887,E-5,531.5,0.5,127,120.0
4888,B4,531.5,0.5,127,120.0
4889,B-4,531.75,0.25,102,120.0
4890,B3,531.75,0.25,127,120.0
4891,B-4,531.75,1.0,127,120.0
4892,F#4,531.75,1.0,127,120.0
4893,B-3,531.75,1.0,127,120.0
4894,F#3,531.75,1.0,127,120.0
4895,A3,531.75,0.5,127,120.0
4896,B1,531.75,0.5,127,120.0
4897,F#4,532.0,0.25,127,120.0
4898,B-3,532.0,0.25,102,120.0
4899,F#4,532.0,0.75,127,120.0
4900,F#1,532.0,1.0,127,120.0
4901,A4,532.125,0.125,127,120.0
4902,B4,532.25,0.25,127,120.0
4903,F#3,532.25,0.25,127,120.0
4904,C#5,532.25,0.5,127,120.0
4905,B-4,532.25,0.5,127,120.0
4906,F#3,532.25,0.25,127,120.0
4907,D2,532.25,0.25,127,120.0
4908,B-4,532.5,0.25,102,120.0
4909,B3,532.5,0.25,127,120.0
4910,C#3,532.5,0.25,127,120.0
4911,B1,532.5,0.5,127,120.0
4912,F#4,532.75,0.25,127,120.0
4913,B-3,532.75,0.25,102,120.0
4914,F#4,532.75,0.25,127,120.0
4915,F#4,532.75,0.25,127,120.0
4916,F#3,532.75,0.25,127,120.0
4917,B4,533.0,0.25,127,120.0
4918,F#3,533.0,0.25,127,120.0
4919,F#2,533.0,0.25,127,120.0
4920,D2,533.0,0.25,127,120.0
4921,A4,533.0,0.25,127,120.0
4922,A3,533.0,0.25,127,120.0
4923,B-4,533.25,0.25,102,120.0
4924,B3,533.25,0.25,127,120.0
4925,F#4,533.25,0.25,127,120.0
4926,F#1,533.25,0.5,127,120.0
4927,F#4,533.25,2.5,127,120.0
4928,F#3,533.25,2.5,127,120.0
4929,F#3,533.25,0.5,127,120.0
4930,A3,533.25,0.5,127,120.0
4931,B1,533.25,0.5,127,120.0
4932,F#4,533.5,0.25,127,120.0
4933,B-3,533.5,0.25,102,120.0
4934,B4,533.75,0.25,127,120.0
4935,F#3,533.75,0.25,127,120.0
4936,F#2,533.75,0.25,127,120.0
4937,D2,533.75,0.25,127,120.0
4938,E5,533.75,0.25,127,120.0
4939,C#5,533.75,0.25,127,120.0
4940,G#4,533.75,0.25,127,120.0
4941,B-4,534.0,0.25,102,120.0
4942,B3,534.0,0.25,127,120.0
4943,F#1,534.0,0.25,127,120.0
4944,C#3,534.0,0.25,127,120.0
4945,B1,534.0,0.25,127,120.0
4946,F#4,534.25,0.25,127,120.0
4947,B-3,534.25,0.25,102,120.0
4948,F#2,534.25,0.25,127,120.0
4949,F#3,534.25,0.25,127,120.0
4950,F#3,534.5,0.25,127,120.0
4951,F#1,534.5,0.5,127,120.0
4952,D2,534.5,0.25,127,120.0
4953,E5,534.5,0.75,127,120.0
4954,C#5,534.5,0.75,127,120.0
4955,G#4,534.5,0.75,127,120.0
4956,F#4,534.75,4.0,127,120.0
4957,B3,534.75,0.25,127,120.0
4958,C#2,534.75,0.75,127,120.0
4959,A3,534.75,0.5,127,120.0
4960,B1,534.75,0.5,127,120.0
4961,B-3,535.0,0.25,102,120.0
4962,C#2,535.0,1.0,127,120.0
4963,F#3,535.25,0.25,127,120.0
4964,E5,535.25,0.75,127,120.0
4965,C#5,535.25,0.75,127,120.0
4966,G#4,535.25,0.75,127,120.0
4967,F#3,535.25,0.25,127,120.0
4968,D2,535.25,0.25,127,120.0
4969,C#2,535.5,0.75,127,120.0
4970,F2,535.5,0.25,127,120.0
4971,F#3,535.75,4.0,127,120.0
4972,B4,535.75,0.25,127,120.0
4973,B3,535.75,0.25,127,120.0
4974,C#3,535.75,0.5,127,120.0
4975,B1,535.75,0.5,127,120.0
4976,C#2,536.0,1.5,127,120.0
4977,B-4,536.0,0.25,127,120.0
4978,B-3,536.0,0.25,127,120.0
4979,E5,536.0,0.75,127,120.0
4980,C#5,536.0,0.75,127,120.0
4981,G#4,536.0,0.75,127,120.0
4982,C#2,536.25,0.75,127,120.0
4983,F#4,536.25,0.25,127,120.0
4984,F#3,536.25,0.25,127,120.0
4985,F#3,536.25,0.5,127,120.0
4986,B1,536.25,0.5,127,120.0
4987,B4,536.5,0.25,127,120.0
4988,B3,536.5,0.25,127,120.0
4989,D2,536.75,0.5,127,120.0
4990,B-4,536.75,0.25,127,120.0
4991,B-3,536.75,0.25,127,120.0
4992,E5,536.75,1.0,127,120.0
4993,C#5,536.75,1.0,127,120.0
4994,G#4,536.75,1.0,127,120.0
4995,C#2,537.0,0.75,127,120.0
4996,F#4,537.0,0.25,127,120.0
4997,F#3,537.0,0.25,127,120.0
4998,F#3,537.25,0.25,127,120.0
4999,B4,537.25,0.25,127,120.0
5000,B3,537.25,0.25,127,120.0
5001,C#3,537.5,0.25,127,120.0
5002,B1,537.5,0.25,127,120.0
5003,B-4,537.5,0.25,127,120.0
5004,B-3,537.5,0.25,127,120.0
5005,C#2,537.75,1.0,127,120.0
5006,C#2,537.75,0.5,127,120.0
5007,B1,537.75,0.5,127,120.0
5008,F#4,537.75,0.25,127,120.0
5009,F#3,537.75,0.25,127,120.0
5010,F#6,537.75,0.5,127,120.0
5011,F#5,537.75,0.5,127,120.0
5012,B4,538.0,0.25,127,120.0
5013,B3,538.0,0.25,127,120.0
5014,F#5,538.25,0.125,127,120.0
5015,C#3,538.25,0.25,127,120.0
5016,B-4,538.25,0.25,127,120.0
5017,B-3,538.25,0.25,127,120.0
5018,F#3,538.25,0.5,127,120.0
5019,B1,538.25,0.5,127,120.0
5020,F#6,538.375,0.125,127,120.0
5021,F#5,538.5,0.125,127,120.0
5022,C#2,538.5,0.5,127,120.0
5023,F#4,538.5,0.25,127,120.0
5024,F#3,538.5,0.25,127,120.0
5025,F#6,538.625,0.125,127,120.0
5026,B4,538.75,0.25,127,120.0
5027,F#5,538.75,0.125,127,120.0
5028,F#2,538.75,4.0,127,120.0
5029,D2,538.75,0.5,127,120.0
5030,B4,538.75,0.25,127,120.0
5031,B3,538.75,0.25,127,120.0
5032,F#6,538.875,0.125,127,120.0
5033,B-4,539.0,0.25,102,120.0
5034,F#5,539.0,0.125,127,120.0
5035,F#1,539.0,1.0,127,120.0
5036,B-4,539.0,0.25,127,120.0
5037,B-3,539.0,0.25,127,120.0
5038,F#6,539.125,0.125,127,120.0
5039,F#4,539.25,0.25,127,120.0
5040,F#5,539.25,0.125,127,120.0
5041,F#4,539.25,0.25,127,120.0
5042,F#3,539.25,0.25,127,120.0
5043,F#3,539.25,0.5,127,120.0
5044,B1,539.25,0.5,127,120.0
5045,F#6,539.375,0.125,127,120.0
5046,B4,539.5,0.25,127,120.0
5047,F#5,539.5,0.125,127,120.0
5048,F#6,539.625,0.125,127,120.0
5049,B-4,539.75,0.25,102,120.0
5050,F#5,539.75,0.125,127,120.0
5051,B-4,539.75,1.0,127,120.0
5052,F#4,539.75,1.0,127,120.0
5053,B-3,539.75,1.0,127,120.0
5054,F#3,539.75,1.0,127,120.0
5055,B-2,539.75,0.25,127,120.0
5056,B1,539.75,0.25,127,120.0
5057,F#6,539.875,0.125,127,120.0
5058,F#4,540.0,0.25,127,120.0
5059,F#5,540.0,0.125,127,120.0
5060,F#1,540.0,0.5,127,120.0
5061,F#2,540.0,0.25,127,120.0
5062,F#6,540.125,0.125,127,120.0
5063,B4,540.25,0.25,127,120.0
5064,F#5,540.25,0.125,127,120.0
5065,F#2,540.25,0.25,127,120.0
5066,F#6,540.375,0.125,127,120.0
5067,B-4,540.5,0.25,102,120.0
5068,F#5,540.5,0.125,127,120.0
5069,F#2,540.5,0.5,127,120.0
5070,F#2,540.5,0.25,127,120.0
5071,F#6,540.625,0.125,127,120.0
5072,F#4,540.75,0.25,127,120.0
5073,F#5,540.75,0.125,127,120.0
5074,B-2,540.75,0.25,127,120.0
5075,F#4,540.75,0.25,127,120.0
5076,F#3,540.75,0.25,127,120.0
5077,F#6,540.875,0.125,127,120.0
5078,B4,541.0,0.25,127,120.0
5079,F#5,541.0,0.125,127,120.0
5080,F#1,541.0,0.25,127,120.0
5081,F#2,541.0,0.25,127,120.0
5082,A4,541.0,0.25,127,120.0
5083,A3,541.0,0.25,127,120.0
5084,F#6,541.125,0.125,127,120.0
5085,B-4,541.25,0.25,102,120.0
5086,F#5,541.25,0.125,127,120.0
5087,E2,541.25,0.5,127,120.0
5088,F#4,541.25,2.5,127,120.0
5089,F#3,541.25,2.5,127,120.0
5090,F#2,541.25,0.25,127,120.0
5091,B1,541.25,0.25,127,120.0
5092,F#6,541.375,0.125,127,120.0
5093,F#4,541.5,0.25,127,120.0
5094,F#5,541.5,0.125,127,120.0
5095,F#2,541.5,0.25,127,120.0
5096,B1,541.5,0.25,127,120.0
5097,B4,541.75,0.25,127,120.0
5098,F#1,541.75,0.25,127,120.0
5099,B-2,541.75,0.25,127,120.0
5100,E5,541.75,0.75,127,120.0
5101,C#5,541.75,0.75,127,120.0
5102,G#4,541.75,0.75,127,120.0
5103,B-4,542.0,0.25,102,120.0
5104,E-2,542.0,0.25,127,120.0
5105,F#2,542.0,0.25,127,120.0
5106,F#4,542.25,0.25,127,120.0
5107,F#1,542.25,0.25,127,120.0
5108,F#2,542.25,0.25,127,120.0
5109,C#2,542.5,0.25,127,120.0
5110,F#2,542.5,0.25,127,120.0
5111,E5,542.5,0.75,127,120.0
5112,C#5,542.5,0.75,127,120.0
5113,G#4,542.5,0.75,127,120.0
5114,F#4,542.75,4.0,127,120.0
5115,B-2,542.75,0.25,127,120.0
5116,B1,542.75,0.25,127,120.0
5117,C#2,543.0,0.25,127,120.0
5118,F#2,543.0,0.25,127,120.0
5119,B1,543.0,0.25,127,120.0
5120,F#2,543.25,0.25,127,120.0
5121,E5,543.25,0.75,127,120.0
5122,C#5,543.25,0.75,127,120.0
5123,G#4,543.25,0.75,127,120.0
5124,C#2,543.5,0.25,127,120.0
5125,F#2,543.5,0.25,127,120.0
5126,B-2,543.75,0.25,127,120.0
5127,B4,543.75,0.25,127,120.0
5128,B3,543.75,0.25,127,120.0
5129,C#2,544.0,0.75,127,120.0
5130,F#2,544.0,0.25,127,120.0
5131,B-4,544.0,0.25,127,120.0
5132,B-3,544.0,0.25,127,120.0
5133,E5,544.0,0.75,127,120.0
5134,C#5,544.0,0.75,127,120.0
5135,G#4,544.0,0.75,127,120.0
5136,F#2,544.25,0.25,127,120.0
5137,F#4,544.25,0.25,127,120.0
5138,F#3,544.25,0.25,127,120.0
5139,F#2,544.5,0.25,127,120.0
5140,B4,544.5,0.25,127,120.0
5141,B3,544.5,0.25,127,120.0
5142,B1,544.75,0.75,127,120.0
5143,B-2,544.75,0.25,127,120.0
5144,B-4,544.75,0.25,127,120.0
5145,B-3,544.75,0.25,127,120.0
5146,E5,544.75,0.5,127,120.0
5147,C#5,544.75,0.5,127,120.0
5148,G#4,544.75,0.5,127,120.0
5149,F#2,545.0,0.25,127,120.0
5150,F#4,545.0,0.25,127,120.0
5151,F#3,545.0,0.25,127,120.0
5152,B4,545.25,0.25,127,120.0
5153,B3,545.25,0.25,127,120.0
5154,F#2,545.25,0.25,127,120.0
5155,B1,545.25,0.25,127,120.0
5156,B-1,545.5,0.75,127,120.0
5157,B-4,545.5,0.25,127,120.0
5158,B-3,545.5,0.25,127,120.0
5159,F#2,545.5,0.25,127,120.0
5160,B1,545.5,0.25,127,120.0
5161,F#4,545.75,0.25,127,120.0
5162,F#3,545.75,0.25,127,120.0
5163,F#6,545.75,0.75,127,120.0
5164,F#5,545.75,0.75,127,120.0
5165,B-2,545.75,0.25,127,120.0
5166,B1,545.75,0.25,127,120.0
5167,F#2,546.0,0.25,127,120.0
5168,B4,546.0,0.25,127,120.0
5169,B3,546.0,0.25,127,120.0
5170,G#1,546.25,0.75,127,120.0
5171,B-4,546.25,0.25,127,120.0
5172,B-3,546.25,0.25,127,120.0
5173,F#2,546.25,0.25,127,120.0
5174,B1,546.25,0.25,127,120.0
5175,F#5,546.5,0.125,127,120.0
5176,F#2,546.5,0.25,127,120.0
5177,F#4,546.5,0.25,127,120.0
5178,F#3,546.5,0.25,127,120.0
5179,F#6,546.625,0.125,127,120.0
5180,F#5,546.75,0.125,127,120.0
5181,B-2,546.75,0.25,127,120.0
5182,B4,546.75,0.25,127,120.0
5183,B3,546.75,0.25,127,120.0
5184,F#6,546.875,0.125,127,120.0
5185,F#5,547.0,0.125,127,120.0
5186,F#1,547.0,1.0,127,120.0
5187,F#2,547.0,0.25,127,120.0
5188,B-4,547.0,0.25,127,120.0
5189,B-3,547.0,0.25,127,120.0
5190,F#6,547.125,0.125,127,120.0
5191,F#5,547.25,0.125,127,120.0
5192,F#2,547.25,0.25,127,120.0
5193,F#4,547.25,0.25,127,120.0
5194,F#3,547.25,0.25,127,120.0
5195,F#6,547.375,0.125,127,120.0
5196,F#5,547.5,0.125,127,120.0
5197,B-2,547.5,0.25,127,120.0
5198,F#6,547.625,0.125,127,120.0
5199,F#5,547.75,0.125,127,120.0
5200,B-2,547.75,0.25,127,120.0
5201,B-4,547.75,1.0,127,120.0
5202,F#4,547.75,1.0,127,120.0
5203,B-3,547.75,1.0,127,120.0
5204,F#3,547.75,1.0,127,120.0
5205,F#6,547.875,0.125,127,120.0
5206,F#5,548.0,0.125,127,120.0
5207,F#1,548.0,1.0,127,120.0
5208,F#2,548.0,0.25,127,120.0
5209,F#6,548.125,0.125,127,120.0
5210,F#5,548.25,0.125,127,120.0
5211,F#2,548.25,0.25,127,120.0
5212,B1,548.25,0.25,127,120.0
5213,F#6,548.375,0.125,127,120.0
5214,F#5,548.5,0.125,127,120.0
5215,F#2,548.5,0.25,127,120.0
5216,F#6,548.625,0.125,127,120.0
5217,F#5,548.75,0.125,127,120.0
5218,F#4,548.75,0.25,127,120.0
5219,F#3,548.75,0.25,127,120.0
5220,B-2,548.75,0.25,127,120.0
5221,B1,548.75,0.25,127,120.0
5222,F#6,548.875,0.125,127,120.0
5223,F#5,549.0,0.125,127,120.0
5224,B-1,549.0,0.75,127,120.0
5225,A4,549.0,0.25,127,120.0
5226,A3,549.0,0.25,127,120.0
5227,F#2,549.0,0.25,127,120.0
5228,B1,549.0,0.25,127,120.0
5229,F#6,549.125,0.125,127,120.0
5230,F#5,549.25,0.125,127,120.0
5231,F#2,549.25,0.25,127,120.0
5232,F#4,549.25,2.5,127,120.0
5233,F#3,549.25,2.5,127,120.0
5234,F#6,549.375,0.125,127,120.0
5235,F#5,549.5,0.125,127,120.0
5236,F#2,549.5,0.25,127,120.0
5237,B1,549.75,0.75,127,120.0
5238,B-2,549.75,0.25,127,120.0
5239,F#2,550.0,0.25,127,120.0
5240,F#2,550.25,0.25,127,120.0
5241,C#2,550.5,0.5,127,120.0
5242,F#2,550.5,0.25,127,120.0
5243,B-2,550.75,0.25,127,120.0
5244,C#2,551.0,0.75,127,120.0
5245,F#2,551.0,0.25,127,120.0
5246,F#2,551.25,0.25,127,120.0
5247,F#2,551.5,0.25,127,120.0
5248,C#2,551.75,0.75,127,120.0
5249,B-2,551.75,0.25,127,120.0
5250,B4,551.75,0.25,127,120.0
5251,B3,551.75,0.25,127,120.0
5252,F#2,552.0,0.25,127,120.0
5253,B-4,552.0,0.25,127,120.0
5254,B-3,552.0,0.25,127,120.0
5255,F#4,552.25,0.25,127,120.0
5256,F#3,552.25,0.25,127,120.0
5257,F#2,552.25,0.25,127,120.0
5258,B1,552.25,0.25,127,120.0
5259,C#2,552.5,0.75,127,120.0
5260,B4,552.5,0.25,127,120.0
5261,B3,552.5,0.25,127,120.0
5262,F#2,552.5,0.25,127,120.0
5263,B1,552.5,0.25,127,120.0
5264,B-2,552.75,0.25,127,120.0
5265,B-4,552.75,0.25,127,120.0
5266,B-3,552.75,0.25,127,120.0
5267,F#2,553.0,0.25,127,120.0
5268,F#4,553.0,0.25,127,120.0
5269,F#3,553.0,0.25,127,120.0
5270,A4,553.25,0.5,127,120.0
5271,C#2,553.25,0.75,127,120.0
5272,F#2,553.25,0.25,127,120.0
5273,B4,553.25,0.25,127,120.0
5274,B3,553.25,0.25,127,120.0
5275,C#5,553.25,0.5,127,120.0
5276,F#4,553.25,0.5,127,120.0
5277,F#2,553.5,0.25,127,120.0
5278,B-4,553.5,0.25,127,120.0
5279,B-3,553.5,0.25,127,120.0
5280,B-4,553.75,0.5,127,120.0
5281,B-2,553.75,0.25,127,120.0
5282,F#4,553.75,0.25,127,120.0
5283,F#3,553.75,0.25,127,120.0
5284,C#5,553.75,0.5,127,120.0
5285,F#4,553.75,0.5,127,120.0
5286,C#2,554.0,1.0,127,120.0
5287,F#2,554.0,0.25,127,120.0
5288,B4,554.0,0.25,127,120.0
5289,B3,554.0,0.25,127,120.0
5290,B-4,554.25,0.25,127,120.0
5291,B-3,554.25,0.25,127,120.0
5292,F#2,554.25,0.25,127,120.0
5293,B1,554.25,0.25,127,120.0
5294,F#4,554.5,0.25,127,120.0
5295,F#3,554.5,0.25,127,120.0
5296,B-2,554.5,0.25,127,120.0
5297,B1,554.5,0.25,127,120.0
5298,G#2,554.75,0.25,127,120.0
5299,B4,554.75,0.25,127,120.0
5300,B3,554.75,0.25,127,120.0
5301,F#1,555.0,0.5,127,120.0
5302,F#2,555.0,0.25,127,120.0
5303,B-4,555.0,0.25,127,120.0
5304,B-3,555.0,0.25,127,120.0
5305,F#4,555.25,0.25,127,120.0
5306,F#3,555.25,0.25,127,120.0
5307,F#2,555.25,0.25,127,120.0
5308,B1,555.25,0.25,127,120.0
5309,F#1,555.5,0.5,127,120.0
5310,F#2,555.5,0.25,127,120.0
5311,B1,555.5,0.25,127,120.0
5312,B-2,555.75,0.25,127,120.0
5313,B-4,555.75,1.0,127,120.0
5314,F#4,555.75,1.0,127,120.0
5315,B-3,555.75,1.0,127,120.0
5316,F#3,555.75,1.0,127,120.0
5317,F#2,556.0,0.5,127,120.0
5318,F#2,556.0,0.25,127,120.0
5319,F#2,556.25,0.25,127,120.0
5320,F#1,556.5,0.25,127,120.0
5321,F#2,556.5,0.25,127,120.0
5322,E2,556.75,0.25,127,120.0
5323,B-2,556.75,0.25,127,120.0
5324,F#4,556.75,0.25,127,120.0
5325,F#3,556.75,0.25,127,120.0
5326,F#1,557.0,0.25,127,120.0
5327,F#2,557.0,0.25,127,120.0
5328,A4,557.0,0.25,127,120.0
5329,A3,557.0,0.25,127,120.0
5330,E-2,557.25,0.25,127,120.0
5331,F#2,557.25,0.25,127,120.0
5332,F#4,557.25,2.5,127,120.0
5333,F#3,557.25,2.5,127,120.0
5334,F#1,557.5,0.25,127,120.0
5335,F#2,557.5,0.25,127,120.0
5336,C#2,557.75,0.25,127,120.0
5337,B-2,557.75,0.25,127,120.0
5338,C#5,557.75,0.25,127,120.0
5339,G#4,557.75,0.25,127,120.0
5340,E4,557.75,0.25,127,120.0
5341,F#1,558.0,0.25,127,120.0
5342,F#2,558.0,0.25,127,120.0
5343,C#2,558.25,0.25,127,120.0
5344,F#2,558.25,0.25,127,120.0
5345,B1,558.25,0.25,127,120.0
5346,F#1,558.5,0.25,127,120.0
5347,F#2,558.5,0.25,127,120.0
5348,B1,558.5,0.25,127,120.0
5349,B-2,558.75,0.25,127,120.0
5350,B1,558.75,0.25,127,120.0
5351,C#2,559.0,0.75,127,120.0
5352,F#2,559.0,0.25,127,120.0
5353,F#2,559.25,0.25,127,120.0
5354,B1,559.25,0.25,127,120.0
5355,F#2,559.5,0.25,127,120.0
5356,C#2,559.75,0.75,127,120.0
5357,B-2,559.75,0.25,127,120.0
5358,G#4,559.75,0.5,127,120.0
5359,E4,559.75,0.5,127,120.0
5360,C#4,559.75,0.5,127,120.0
5361,F#2,560.0,0.25,127,120.0
5362,F#2,560.25,0.25,127,120.0
5363,C#2,560.5,0.75,127,120.0
5364,B-2,560.5,0.25,127,120.0
5365,G#2,560.75,0.25,127,120.0
5366,F#2,561.0,0.25,127,120.0
5367,C#2,561.25,0.75,127,120.0
5368,F#2,561.25,0.25,127,120.0
5369,F#2,561.5,0.25,127,120.0
5370,A4,561.75,0.25,127,120.0
5371,B-2,561.75,0.25,127,120.0
5372,B-4,562.0,0.25,127,120.0
5373,C#2,562.0,1.0,127,120.0
5374,F#2,562.0,0.25,127,120.0
5375,B-5,562.25,0.25,127,120.0
5376,F#5,562.25,0.25,127,120.0
5377,E-5,562.25,0.25,127,120.0
5378,F#2,562.25,0.25,127,120.0
5379,B1,562.25,0.25,127,120.0
5380,G4,562.5,0.25,127,120.0
5381,F#2,562.5,0.25,127,120.0
5382,B1,562.5,0.25,127,120.0
5383,G#4,562.75,0.25,127,120.0
5384,B-2,562.75,0.25,127,120.0
5385,B1,562.75,0.25,127,120.0
5386,F#1,563.0,1.0,127,120.0
5387,F#2,563.0,0.25,127,120.0
5388,A4,563.0,0.25,127,120.0
5389,F4,563.0,0.25,127,120.0
5390,G#5,563.0,0.25,127,120.0
5391,E5,563.0,0.25,127,120.0
5392,C#5,563.0,0.25,127,120.0
5393,F3,563.25,0.5,127,120.0
5394,F4,563.25,0.25,127,120.0
5395,B-4,563.25,0.25,127,120.0
5396,F#4,563.25,0.25,127,120.0
5397,F#2,563.25,0.25,127,120.0
5398,B1,563.25,0.25,127,120.0
5399,F#4,563.5,0.25,127,120.0
5400,A4,563.5,0.25,127,120.0
5401,F4,563.5,0.25,127,120.0
5402,F#2,563.5,0.25,127,120.0
5403,B1,563.5,0.25,127,120.0
5404,B-4,563.75,0.5,127,120.0
5405,F#4,563.75,0.5,127,120.0
5406,F#3,563.75,0.5,127,120.0
5407,F#5,563.75,0.25,127,120.0
5408,E-5,563.75,0.25,127,120.0
5409,B4,563.75,0.25,127,120.0
5410,B-2,563.75,0.25,127,120.0
5411,B1,563.75,0.25,127,120.0
5412,E-4,564.0,0.25,127,120.0
5413,F#2,564.0,1.0,127,120.0
5414,F#2,564.0,0.25,127,120.0
5415,E4,564.25,0.25,127,120.0
5416,F#2,564.25,0.25,127,120.0
5417,B1,564.25,0.25,127,120.0
5418,F#2,564.5,0.25,127,120.0
5419,E5,564.5,0.75,127,120.0
5420,C#5,564.5,0.75,127,120.0
5421,B-4,564.5,0.75,127,120.0
5422,B-2,564.75,0.25,127,120.0
5423,B1,564.75,0.25,127,120.0
5424,F#3,565.0,0.25,127,120.0
5425,F#2,565.0,0.25,127,120.0
5426,F#2,565.25,0.5,127,120.0
5427,E-5,565.25,0.5,127,120.0
5428,B4,565.25,0.5,127,120.0
5429,G#4,565.25,0.5,127,120.0
5430,F#2,565.25,0.25,127,120.0
5431,B1,565.25,0.25,127,120.0
5432,F#2,565.5,0.25,127,120.0
5433,F#1,565.75,0.75,127,120.0
5434,B-2,565.75,0.25,127,120.0
5435,B4,565.75,0.75,127,120.0
5436,G#4,565.75,0.75,127,120.0
5437,E4,565.75,0.75,127,120.0
5438,F#2,566.0,0.25,127,120.0
5439,F#2,566.25,0.25,127,120.0
5440,F#2,566.5,0.25,127,120.0
5441,B-2,566.5,0.25,127,120.0
5442,B-4,566.5,0.5,127,120.0
5443,C#4,566.5,0.5,127,120.0
5444,G#2,566.75,0.25,127,120.0
5445,B3,567.0,0.25,127,120.0
5446,C#2,567.0,0.75,127,120.0
5447,F#2,567.0,0.25,127,120.0
5448,F#2,567.25,0.25,127,120.0
5449,B4,567.25,0.5,127,120.0
5450,E-4,567.25,0.5,127,120.0
5451,F#2,567.5,0.25,127,120.0
5452,C#4,567.75,0.25,127,120.0
5453,C#2,567.75,0.75,127,120.0
5454,B-2,567.75,0.25,127,120.0
5455,G#4,567.75,0.5,127,120.0
5456,E4,567.75,0.5,127,120.0
5457,C#4,567.75,0.5,127,120.0
5458,F#2,568.0,0.25,127,120.0
5459,C#5,568.0,0.5,127,120.0
5460,E4,568.0,0.5,127,120.0
5461,F#2,568.25,0.25,127,120.0
5462,B1,568.25,0.25,127,120.0
5463,E-4,568.5,0.25,127,120.0
5464,C#2,568.5,0.75,127,120.0
5465,B-2,568.5,0.25,127,120.0
5466,G#2,568.75,0.25,127,120.0
5467,E-5,568.75,0.5,127,120.0
5468,F#4,568.75,0.5,127,120.0
5469,F#2,569.0,0.25,127,120.0
5470,E4,569.25,0.25,127,120.0
5471,C#2,569.25,0.75,127,120.0
5472,F#2,569.25,0.25,127,120.0
5473,E5,569.5,0.25,127,120.0
5474,G#4,569.5,0.25,127,120.0
5475,F#2,569.5,0.25,127,120.0
5476,B1,569.5,0.25,127,120.0
5477,B-2,569.75,0.25,127,120.0
5478,B1,569.75,0.25,127,120.0
5479,C#2,570.0,1.0,127,120.0
5480,F#2,570.0,0.25,127,120.0
5481,E5,570.0,0.25,127,120.0
5482,G#4,570.0,0.25,127,120.0
5483,F#4,570.25,0.25,127,120.0
5484,F#2,570.25,0.25,127,120.0
5485,F#2,570.5,0.25,127,120.0
5486,F#5,570.5,0.5,127,120.0
5487,B-4,570.5,0.5,127,120.0
5488,B-2,570.75,0.25,127,120.0
5489,B1,570.75,0.25,127,120.0
5490,G#4,571.0,0.25,127,120.0
5491,F#1,571.0,1.0,127,120.0
5492,A4,571.0,0.25,127,120.0
5493,F4,571.0,0.25,127,120.0
5494,F#2,571.0,0.25,127,120.0
5495,B1,571.0,0.25,127,120.0
5496,F3,571.25,0.5,127,120.0
5497,F#2,571.25,0.25,127,120.0
5498,B-4,571.25,0.25,127,120.0
5499,F#4,571.25,0.25,127,120.0
5500,G#5,571.25,0.5,127,120.0
5501,B4,571.25,0.5,127,120.0
5502,F#2,571.5,0.25,127,120.0
5503,A4,571.5,0.25,127,120.0
5504,F4,571.5,0.25,127,120.0
5505,B-4,571.75,0.25,127,120.0
5506,B-4,571.75,0.5,127,120.0
5507,F#4,571.75,0.5,127,120.0
5508,F#3,571.75,0.5,127,120.0
5509,C#3,571.75,0.5,127,120.0
5510,B1,571.75,0.5,127,120.0
5511,B-1,572.0,0.25,127,120.0
5512,B-5,572.0,0.5,127,120.0
5513,C#5,572.0,0.5,127,120.0
5514,B-1,572.25,0.5,127,120.0
5515,B1,572.25,0.5,127,120.0
5516,B4,572.5,0.25,127,120.0
5517,B-1,572.75,0.25,127,120.0
5518,D2,572.75,0.75,127,120.0
5519,B5,572.75,0.5,127,120.0
5520,E-5,572.75,0.5,127,120.0
5521,B1,573.0,0.25,127,120.0
5522,C#5,573.25,0.25,127,120.0
5523,B1,573.25,0.5,127,120.0
5524,B1,573.5,0.25,127,120.0
5525,C#6,573.5,0.5,127,120.0
5526,E5,573.5,0.5,127,120.0
5527,B1,573.75,0.5,127,120.0
5528,E-5,574.0,0.25,127,120.0
5529,C2,574.0,0.5,127,120.0
5530,B1,574.25,0.5,127,120.0
5531,E-6,574.25,0.5,127,120.0
5532,F#5,574.25,0.5,127,120.0
5533,C#2,574.5,0.25,127,120.0
5534,E5,574.75,0.25,127,120.0
5535,D2,574.75,0.5,127,120.0
5536,C#2,575.0,0.75,127,120.0
5537,E6,575.0,0.5,127,120.0
5538,G#5,575.0,0.5,127,120.0
5539,B1,575.25,0.5,127,120.0
5540,F#5,575.5,0.25,127,120.0
5541,C#2,575.75,0.75,127,120.0
5542,G#4,575.75,0.5,127,120.0
5543,E4,575.75,0.5,127,120.0
5544,C#4,575.75,0.5,127,120.0
5545,F#6,575.75,0.75,127,120.0
5546,E6,575.75,0.75,127,120.0
5547,B-5,575.75,0.75,127,120.0
5548,C#3,575.75,0.5,127,120.0
5549,B1,575.75,0.5,127,120.0
5550,B1,576.25,0.5,127,120.0
5551,F#6,576.5,167/1000,127,120.0
5552,C#2,576.5,0.75,127,120.0
5553,G#6,576.667,167/1000,127,120.0
5554,D2,576.75,0.75,127,120.0
5555,F#6,576.833,167/1000,127,120.0
5556,E-6,577.0,0.25,127,120.0
5557,C#6,577.25,0.25,127,120.0
5558,C#2,577.25,0.75,127,120.0
5559,E-6,577.5,0.25,127,120.0
5560,B1,577.5,0.25,127,120.0
5561,C#6,577.75,0.25,127,120.0
5562,B1,577.75,0.5,127,120.0
5563,B-5,578.0,0.25,127,120.0
5564,C#2,578.0,1.0,127,120.0
5565,C#6,578.25,0.25,127,120.0
5566,B1,578.25,0.5,127,120.0
5567,B-5,578.5,0.25,127,120.0
5568,A5,578.75,0.25,127,120.0
5569,D2,578.75,0.5,127,120.0
5570,B-5,579.0,0.25,127,120.0
5571,F#1,579.0,0.5,127,120.0
5572,A4,579.0,0.25,127,120.0
5573,F4,579.0,0.25,127,120.0
5574,F3,579.25,0.5,127,120.0
5575,E-6,579.25,0.25,127,120.0
5576,B1,579.25,0.5,127,120.0
5577,B-4,579.25,0.25,127,120.0
5578,F#4,579.25,0.25,127,120.0
5579,B-5,579.5,0.25,127,120.0
5580,F#1,579.5,0.5,127,120.0
5581,A4,579.5,0.25,127,120.0
5582,F4,579.5,0.25,127,120.0
5583,A5,579.75,0.25,127,120.0
5584,B-4,579.75,0.5,127,120.0
5585,F#4,579.75,0.5,127,120.0
5586,F#3,579.75,0.5,127,120.0
5587,C#3,579.75,0.5,127,120.0
5588,B1,579.75,0.5,127,120.0
5589,G#5,580.0,0.25,127,120.0
5590,E2,580.0,0.5,127,120.0
5591,B1,580.25,0.5,127,120.0
5592,E-6,580.25,0.25,127,120.0
5593,F#5,580.25,0.25,127,120.0
5594,E-5,580.5,0.25,127,120.0
5595,F#1,580.5,0.25,127,120.0
5596,E-2,580.75,0.25,127,120.0
5597,D2,580.75,0.75,127,120.0
5598,F#5,580.75,0.25,127,120.0
5599,C#5,580.75,0.25,127,120.0
5600,A4,581.0,0.25,127,120.0
5601,F#1,581.0,0.25,127,120.0
5602,C#5,581.25,0.25,127,120.0
5603,C#2,581.25,0.25,127,120.0
5604,B4,581.5,0.25,127,120.0
5605,F#1,581.5,0.5,127,120.0
5606,B1,581.5,0.25,127,120.0
5607,A4,581.75,0.25,127,120.0
5608,B1,581.75,0.5,127,120.0
5609,F#2,582.0,0.5,127,120.0
5610,B1,582.25,0.5,127,120.0
5611,F#1,582.5,0.5,127,120.0
5612,D2,582.75,0.5,127,120.0
5613,C#2,583.0,0.5,127,120.0
5614,B1,583.25,0.5,127,120.0
5615,G#4,583.75,0.5,127,120.0
5616,E4,583.75,0.5,127,120.0
5617,C#4,583.75,0.5,127,120.0
5618,C#3,583.75,0.5,127,120.0
5619,B1,583.75,0.5,127,120.0
5620,B1,584.25,0.5,127,120.0
5621,D2,584.75,0.25,127,120.0
5622,B1,585.0,0.25,127,120.0
5623,B1,585.25,0.25,127,120.0
5624,D2,585.5,0.25,127,120.0
5625,B1,585.75,0.25,127,120.0
5626,B1,586.0,0.25,127,120.0
5627,D2,586.25,0.25,127,120.0
5628,F2,586.5,0.5,127,120.0
5629,B1,586.5,0.25,127,120.0
5630,B1,586.75,0.25,127,120.0
5631,F#2,587.0,0.5,127,120.0
5632,D2,587.0,0.25,127,120.0
5633,A4,587.0,0.25,127,120.0
5634,F4,587.0,0.25,127,120.0
5635,F3,587.25,0.5,127,120.0
5636,B1,587.25,0.25,127,120.0
5637,B-4,587.25,0.25,127,120.0
5638,F#4,587.25,0.25,127,120.0
5639,B1,587.5,0.25,127,120.0
5640,A4,587.5,0.25,127,120.0
5641,F4,587.5,0.25,127,120.0
5642,B-4,587.75,0.5,127,120.0
5643,F#4,587.75,0.5,127,120.0
5644,F#3,587.75,0.5,127,120.0
5645,C#3,587.75,0.5,127,120.0
5646,D2,587.75,0.5,127,120.0
5647,B1,588.25,0.5,127,120.0
5648,D2,588.75,0.5,127,120.0
5649,B1,589.25,0.5,127,120.0
5650,C#3,589.75,0.5,127,120.0
5651,D2,589.75,0.5,127,120.0
5652,B1,590.25,0.5,127,120.0
5653,D2,590.75,0.5,127,120.0
5654,C#2,591.0,0.5,127,120.0
5655,B1,591.25,0.25,127,120.0
5656,B1,591.5,0.25,127,120.0
5657,C#3,591.75,0.5,127,120.0
5658,D2,591.75,0.5,127,120.0
5659,B1,592.25,0.5,127,120.0
5660,F#4,592.25,0.25,127,120.0
5661,F#3,592.25,0.25,127,120.0
5662,D2,592.75,0.5,127,120.0
5663,E4,592.75,0.25,127,120.0
5664,E3,592.75,0.25,127,120.0
5665,F#4,593.0,0.25,127,120.0
5666,F#3,593.0,0.25,127,120.0
5667,B1,593.25,0.5,127,120.0
5668,D2,593.75,0.5,127,120.0
5669,B1,594.25,0.5,127,120.0
5670,F#4,594.25,0.25,127,120.0
5671,F#3,594.25,0.25,127,120.0
5672,F2,594.5,0.5,127,120.0
5673,D2,594.75,0.5,127,120.0
5674,A4,594.75,0.25,127,120.0
5675,A3,594.75,0.25,127,120.0
5676,F#2,595.0,0.5,127,120.0
5677,F#4,595.0,0.25,127,120.0
5678,F#3,595.0,0.25,127,120.0
5679,B1,595.25,0.25,127,120.0
5680,B1,595.5,0.25,127,120.0
5681,A3,595.75,0.5,127,120.0
5682,D2,595.75,0.5,127,120.0
5683,B1,596.25,0.5,127,120.0
5684,F#4,596.25,0.25,127,120.0
5685,F#3,596.25,0.25,127,120.0
5686,D2,596.75,0.5,127,120.0
5687,E4,596.75,0.25,127,120.0
5688,E3,596.75,0.25,127,120.0
5689,F#4,597.0,0.25,127,120.0
5690,F#3,597.0,0.25,127,120.0
5691,B1,597.25,0.5,127,120.0
5692,A4,597.5,0.5,127,120.0
5693,A3,597.5,0.5,127,120.0
5694,A3,597.75,0.5,127,120.0
5695,D2,597.75,0.5,127,120.0
5696,F#4,598.0,0.25,127,120.0
5697,F#3,598.0,0.25,127,120.0
5698,B1,598.25,0.5,127,120.0
5699,E4,598.25,0.25,127,120.0
5700,E3,598.25,0.25,127,120.0
5701,C#4,598.5,0.25,127,120.0
5702,C#3,598.5,0.25,127,120.0
5703,D2,598.75,0.75,127,120.0
5704,C4,598.75,0.25,127,120.0
5705,C3,598.75,0.25,127,120.0
5706,C#2,599.0,0.5,127,120.0
5707,B3,599.0,0.25,127,120.0
5708,B2,599.0,0.25,127,120.0
5709,A3,599.25,0.5,127,120.0
5710,A2,599.25,0.5,127,120.0
5711,B1,599.5,0.25,127,120.0
5712,A3,599.75,0.5,127,120.0
5713,D2,599.75,0.5,127,120.0
5714,B1,600.25,0.5,127,120.0
5715,F#4,600.25,0.25,127,120.0
5716,F#3,600.25,0.25,127,120.0
5717,D2,600.75,0.5,127,120.0
5718,E4,600.75,0.25,127,120.0
5719,E3,600.75,0.25,127,120.0
5720,F#4,601.0,0.25,127,120.0
5721,F#3,601.0,0.25,127,120.0
5722,B1,601.25,0.5,127,120.0
5723,D2,601.75,0.5,127,120.0
5724,B1,602.25,0.5,127,120.0
5725,F#4,602.25,0.25,127,120.0
5726,F#3,602.25,0.25,127,120.0
5727,F1,602.5,0.5,127,120.0
5728,D2,602.75,0.5,127,120.0
5729,A4,602.75,0.25,127,120.0
5730,A3,602.75,0.25,127,120.0
5731,F#1,603.0,0.5,127,120.0
5732,F#4,603.0,0.25,127,120.0
5733,F#3,603.0,0.25,127,120.0
5734,B1,603.25,0.25,127,120.0
5735,B1,603.5,0.25,127,120.0
5736,C#3,603.75,0.5,127,120.0
5737,D2,603.75,0.5,127,120.0
5738,B1,604.25,0.5,127,120.0
5739,F#4,604.25,0.25,127,120.0
5740,F#3,604.25,0.25,127,120.0
5741,E4,604.75,0.25,127,120.0
5742,E3,604.75,0.25,127,120.0
5743,C#3,604.75,0.5,127,120.0
5744,D2,604.75,0.5,127,120.0
5745,F#4,605.0,0.25,127,120.0
5746,F#3,605.0,0.25,127,120.0
5747,B1,605.25,0.5,127,120.0
5748,A4,605.5,0.5,127,120.0
5749,A3,605.5,0.5,127,120.0
5750,C#3,605.75,0.5,127,120.0
5751,D2,605.75,0.5,127,120.0
5752,F#4,606.0,0.25,127,120.0
5753,F#3,606.0,0.25,127,120.0
5754,B1,606.25,0.5,127,120.0
5755,E4,606.25,0.25,127,120.0
5756,E3,606.25,0.25,127,120.0
5757,C#4,606.5,0.25,127,120.0
5758,C#3,606.5,0.25,127,120.0
5759,C4,606.75,0.25,127,120.0
5760,C3,606.75,0.25,127,120.0
5761,C#3,606.75,0.5,127,120.0
5762,D2,606.75,0.5,127,120.0
5763,C#2,607.0,0.5,127,120.0
5764,B3,607.0,0.25,127,120.0
5765,B2,607.0,0.25,127,120.0
5766,B1,607.25,0.25,127,120.0
5767,A3,607.25,0.5,127,120.0
5768,A2,607.25,0.5,127,120.0
5769,B1,607.5,0.25,127,120.0
5770,C#3,607.75,0.5,127,120.0
5771,D2,607.75,0.5,127,120.0
5772,B1,608.25,0.5,127,120.0
5773,F#4,608.25,0.25,127,120.0
5774,F#3,608.25,0.25,127,120.0
5775,E4,608.75,0.25,127,120.0
5776,E3,608.75,0.25,127,120.0
5777,C#3,608.75,0.5,127,120.0
5778,D2,608.75,0.5,127,120.0
5779,F#4,609.0,0.25,127,120.0
5780,F#3,609.0,0.25,127,120.0
5781,B1,609.25,0.5,127,120.0
5782,C#3,609.75,0.5,127,120.0
5783,D2,609.75,0.5,127,120.0
5784,F#4,610.25,0.5,127,120.0
5785,B1,610.25,0.25,127,120.0
5786,F#4,610.25,0.25,127,120.0
5787,F#3,610.25,0.25,127,120.0
5788,F2,610.5,0.5,127,120.0
5789,B1,610.5,0.25,127,120.0
5790,F#2,610.75,0.5,127,120.0
5791,E4,610.75,0.25,127,120.0
5792,A4,610.75,0.25,127,120.0
5793,A3,610.75,0.25,127,120.0
5794,C#3,610.75,0.75,127,120.0
5795,D2,610.75,0.75,127,120.0
5796,F#4,611.0,0.75,127,120.0
5797,F#2,611.0,0.5,127,120.0
5798,F#4,611.0,0.25,127,120.0
5799,F#3,611.0,0.25,127,120.0
5800,F#3,611.25,0.5,127,120.0
5801,B1,611.5,0.25,127,120.0
5802,E3,611.75,0.25,127,120.0
5803,C#3,611.75,0.5,127,120.0
5804,D2,611.75,0.5,127,120.0
5805,F#3,612.0,0.75,127,120.0
5806,F#4,612.25,0.5,127,120.0
5807,B1,612.25,0.25,127,120.0
5808,F#4,612.25,0.25,127,120.0
5809,F#3,612.25,0.25,127,120.0
5810,B1,612.5,0.25,127,120.0
5811,F#2,612.75,0.5,127,120.0
5812,A4,612.75,0.25,127,120.0
5813,E4,612.75,0.25,127,120.0
5814,E3,612.75,0.25,127,120.0
5815,C#3,612.75,0.5,127,120.0
5816,D2,612.75,0.5,127,120.0
5817,F#4,613.0,0.75,127,120.0
5818,F#4,613.0,0.25,127,120.0
5819,F#3,613.0,0.25,127,120.0
5820,F#3,613.25,0.5,127,120.0
5821,B1,613.25,0.5,127,120.0
5822,A4,613.5,0.5,127,120.0
5823,A3,613.5,0.5,127,120.0
5824,A3,613.75,0.25,127,120.0
5825,C#3,613.75,0.5,127,120.0
5826,D2,613.75,0.5,127,120.0
5827,F#3,614.0,0.75,127,120.0
5828,F#4,614.0,0.25,127,120.0
5829,F#3,614.0,0.25,127,120.0
5830,F#4,614.25,0.5,127,120.0
5831,B1,614.25,0.25,127,120.0
5832,E4,614.25,0.25,127,120.0
5833,E3,614.25,0.25,127,120.0
5834,B1,614.5,0.25,127,120.0
5835,C#4,614.5,0.25,127,120.0
5836,C#3,614.5,0.25,127,120.0
5837,F#2,614.75,0.5,127,120.0
5838,E4,614.75,0.25,127,120.0
5839,C4,614.75,0.25,127,120.0
5840,C3,614.75,0.25,127,120.0
5841,C#3,614.75,0.5,127,120.0
5842,D2,614.75,0.5,127,120.0
5843,F#4,615.0,0.5,127,120.0
5844,F#1,615.0,0.5,127,120.0
5845,B3,615.0,0.25,127,120.0
5846,B2,615.0,0.25,127,120.0
5847,F#3,615.25,0.5,127,120.0
5848,B1,615.25,0.5,127,120.0
5849,A3,615.25,0.5,127,120.0
5850,A2,615.25,0.5,127,120.0
5851,A4,615.5,0.5,127,120.0
5852,F#1,615.5,0.5,127,120.0
5853,E3,615.75,0.25,127,120.0
5854,C#3,615.75,0.5,127,120.0
5855,D2,615.75,0.5,127,120.0
5856,F#3,616.0,0.5,127,120.0
5857,F#4,616.0,0.25,127,120.0
5858,F#2,616.0,0.75,127,120.0
5859,E4,616.25,0.25,127,120.0
5860,B1,616.25,0.25,127,120.0
5861,F#4,616.25,0.25,127,120.0
5862,F#3,616.25,0.25,127,120.0
5863,A3,616.5,0.5,127,120.0
5864,C#4,616.5,0.25,127,120.0
5865,B1,616.5,0.25,127,120.0
5866,C4,616.75,0.25,127,120.0
5867,F#1,616.75,0.75,127,120.0
5868,E4,616.75,0.25,127,120.0
5869,E3,616.75,0.25,127,120.0
5870,C#3,616.75,0.5,127,120.0
5871,D2,616.75,0.5,127,120.0
5872,F#3,617.0,0.25,127,120.0
5873,B3,617.0,0.25,127,120.0
5874,F#4,617.0,0.25,127,120.0
5875,F#3,617.0,0.25,127,120.0
5876,E3,617.25,0.25,127,120.0
5877,A3,617.25,0.5,127,120.0
5878,B1,617.25,0.5,127,120.0
5879,C#3,617.5,0.25,127,120.0
5880,F#1,617.5,0.5,127,120.0
5881,C3,617.75,0.25,127,120.0
5882,C#3,617.75,0.5,127,120.0
5883,D2,617.75,0.5,127,120.0
5884,B2,618.0,0.25,127,120.0
5885,F#2,618.0,0.25,127,120.0
5886,A2,618.25,0.5,127,120.0
5887,F#4,618.25,0.5,127,120.0
5888,F#1,618.25,0.25,127,120.0
5889,B1,618.25,0.25,127,120.0
5890,F#4,618.25,0.25,127,120.0
5891,F#3,618.25,0.25,127,120.0
5892,F#1,618.5,0.25,127,120.0
5893,B1,618.5,0.25,127,120.0
5894,F#2,618.75,0.5,127,120.0
5895,E4,618.75,0.25,127,120.0
5896,F#2,618.75,0.25,127,120.0
5897,A4,618.75,0.25,127,120.0
5898,A3,618.75,0.25,127,120.0
5899,C#3,618.75,0.5,127,120.0
5900,D2,618.75,0.5,127,120.0
5901,F#4,619.0,0.75,127,120.0
5902,F#1,619.0,0.5,127,120.0
5903,F#4,619.0,0.25,127,120.0
5904,F#3,619.0,0.25,127,120.0
5905,F#3,619.25,0.5,127,120.0
5906,B1,619.25,0.5,127,120.0
5907,F#1,619.5,0.5,127,120.0
5908,E3,619.75,0.25,127,120.0
5909,C#3,619.75,0.5,127,120.0
5910,B1,619.75,0.5,127,120.0
5911,F#3,620.0,0.75,127,120.0
5912,F#2,620.0,0.5,127,120.0
5913,F#4,620.25,0.5,127,120.0
5914,B1,620.25,0.5,127,120.0
5915,F#4,620.25,0.25,127,120.0
5916,F#3,620.25,0.25,127,120.0
5917,F#1,620.5,0.25,127,120.0
5918,F#2,620.75,0.5,127,120.0
5919,A4,620.75,0.25,127,120.0
5920,A2,620.75,0.5,127,120.0
5921,E4,620.75,0.25,127,120.0
5922,E3,620.75,0.25,127,120.0
5923,C#3,620.75,0.5,127,120.0
5924,D2,620.75,0.5,127,120.0
5925,F#4,621.0,0.75,127,120.0
5926,F#4,621.0,0.25,127,120.0
5927,F#3,621.0,0.25,127,120.0
5928,F#3,621.25,0.5,127,120.0
5929,F#2,621.25,0.25,127,120.0
5930,B1,621.25,0.5,127,120.0
5931,E2,621.5,0.25,127,120.0
5932,A4,621.5,0.5,127,120.0
5933,A3,621.5,0.5,127,120.0
5934,A3,621.75,0.25,127,120.0
5935,C#2,621.75,0.25,127,120.0
5936,C#3,621.75,0.5,127,120.0
5937,D2,621.75,0.5,127,120.0
5938,F#3,622.0,0.75,127,120.0
5939,C2,622.0,0.25,127,120.0
5940,F#4,622.0,0.25,127,120.0
5941,F#3,622.0,0.25,127,120.0
5942,F#4,622.25,0.5,127,120.0
5943,B1,622.25,0.25,127,120.0
5944,B1,622.25,0.5,127,120.0
5945,E4,622.25,0.25,127,120.0
5946,E3,622.25,0.25,127,120.0
5947,A1,622.5,0.5,127,120.0
5948,C#4,622.5,0.25,127,120.0
5949,C#3,622.5,0.25,127,120.0
5950,F#2,622.75,0.5,127,120.0
5951,E4,622.75,0.25,127,120.0
5952,C4,622.75,0.25,127,120.0
5953,C3,622.75,0.25,127,120.0
5954,C#3,622.75,0.25,127,120.0
5955,D2,622.75,0.25,127,120.0
5956,F#4,623.0,0.5,127,120.0
5957,F#1,623.0,0.75,127,120.0
5958,B1,623.0,0.5,127,120.0
5959,B3,623.0,0.25,127,120.0
5960,B2,623.0,0.25,127,120.0
5961,F#3,623.25,0.5,127,120.0
5962,A3,623.25,0.5,127,120.0
5963,A2,623.25,0.5,127,120.0
5964,A4,623.5,0.5,127,120.0
5965,D2,623.5,0.25,127,120.0
5966,E3,623.75,0.25,127,120.0
5967,F#1,623.75,0.25,127,120.0
5968,C#3,623.75,0.5,127,120.0
5969,F#3,624.0,0.5,127,120.0
5970,F#4,624.0,0.25,127,120.0
5971,F#1,624.0,0.25,127,120.0
5972,E4,624.25,0.25,127,120.0
5973,F#2,624.25,0.5,127,120.0
5974,B1,624.25,0.25,127,120.0
5975,F#4,624.25,0.25,127,120.0
5976,F#3,624.25,0.25,127,120.0
5977,A3,624.5,0.5,127,120.0
5978,C#4,624.5,0.25,127,120.0
5979,B1,624.5,0.25,127,120.0
5980,C4,624.75,0.25,127,120.0
5981,F#1,624.75,0.25,127,120.0
5982,E4,624.75,0.25,127,120.0
5983,E3,624.75,0.25,127,120.0
5984,C#3,624.75,0.5,127,120.0
5985,D2,624.75,0.5,127,120.0
5986,F#3,625.0,0.25,127,120.0
5987,B3,625.0,0.25,127,120.0
5988,F#1,625.0,0.5,127,120.0
5989,F#4,625.0,0.25,127,120.0
5990,F#3,625.0,0.25,127,120.0
5991,E3,625.25,0.25,127,120.0
5992,A3,625.25,0.5,127,120.0
5993,B1,625.25,0.5,127,120.0
5994,C#3,625.5,0.25,127,120.0
5995,F#1,625.5,0.25,127,120.0
5996,C3,625.75,0.25,127,120.0
5997,F#1,625.75,0.25,127,120.0
5998,C#3,625.75,0.5,127,120.0
5999,D2,625.75,0.5,127,120.0
6000,B2,626.0,0.25,127,120.0
6001,F#2,626.0,0.25,127,120.0
6002,A2,626.25,0.5,127,120.0
6003,F#4,626.25,0.5,127,120.0
6004,F#1,626.25,0.25,127,120.0
6005,B1,626.25,0.5,127,120.0
6006,F#4,626.25,0.25,127,120.0
6007,F#3,626.25,0.25,127,120.0
6008,F#1,626.5,0.25,127,120.0
6009,F#2,626.75,0.5,127,120.0
6010,E4,626.75,0.25,127,120.0
6011,F#2,626.75,0.25,127,120.0
6012,A4,626.75,0.25,127,120.0
6013,A3,626.75,0.25,127,120.0
6014,C#3,626.75,0.5,127,120.0
6015,D2,626.75,0.5,127,120.0
6016,F#4,627.0,0.75,127,120.0
6017,F#1,627.0,0.25,127,120.0
6018,F#4,627.0,0.25,127,120.0
6019,F#3,627.0,0.25,127,120.0
6020,F#3,627.25,0.5,127,120.0
6021,F#2,627.25,0.75,127,120.0
6022,B1,627.25,0.25,127,120.0
6023,B1,627.5,0.25,127,120.0
6024,E3,627.75,0.25,127,120.0
6025,C#3,627.75,0.5,127,120.0
6026,D2,627.75,0.5,127,120.0
6027,F#3,628.0,0.75,127,120.0
6028,F#1,628.0,0.25,127,120.0
6029,F#4,628.25,0.5,127,120.0
6030,F#2,628.25,0.25,127,120.0
6031,B1,628.25,0.5,127,120.0
6032,F#4,628.25,0.25,127,120.0
6033,F#3,628.25,0.25,127,120.0
6034,F#1,628.5,0.25,127,120.0
6035,F#2,628.75,0.5,127,120.0
6036,A4,628.75,0.25,127,120.0
6037,A2,628.75,0.5,127,120.0
6038,E4,628.75,0.25,127,120.0
6039,E3,628.75,0.25,127,120.0
6040,C#3,628.75,0.5,127,120.0
6041,D2,628.75,0.5,127,120.0
6042,F#4,629.0,0.75,127,120.0
6043,F#4,629.0,0.25,127,120.0
6044,F#3,629.0,0.25,127,120.0
6045,F#3,629.25,0.5,127,120.0
6046,F#2,629.25,0.25,127,120.0
6047,B1,629.25,0.5,127,120.0
6048,E2,629.5,0.25,127,120.0
6049,A4,629.5,0.5,127,120.0
6050,A3,629.5,0.5,127,120.0
6051,A3,629.75,0.25,127,120.0
6052,C#2,629.75,0.25,127,120.0
6053,C#3,629.75,0.5,127,120.0
6054,D2,629.75,0.5,127,120.0
6055,F#3,630.0,0.75,127,120.0
6056,C2,630.0,0.25,127,120.0
6057,F#4,630.0,0.25,127,120.0
6058,F#3,630.0,0.25,127,120.0
6059,F#4,630.25,0.5,127,120.0
6060,B1,630.25,0.25,127,120.0
6061,B1,630.25,0.25,127,120.0
6062,E4,630.25,0.25,127,120.0
6063,E3,630.25,0.25,127,120.0
6064,A1,630.5,0.5,127,120.0
6065,B1,630.5,0.25,127,120.0
6066,C#4,630.5,0.25,127,120.0
6067,C#3,630.5,0.25,127,120.0
6068,F#2,630.75,0.5,127,120.0
6069,E4,630.75,0.25,127,120.0
6070,C4,630.75,0.25,127,120.0
6071,C3,630.75,0.25,127,120.0
6072,C#3,630.75,0.5,127,120.0
6073,D2,630.75,0.5,127,120.0
6074,F#4,631.0,0.5,127,120.0
6075,F#1,631.0,0.75,127,120.0
6076,B3,631.0,0.25,127,120.0
6077,B2,631.0,0.25,127,120.0
6078,F#3,631.25,0.5,127,120.0
6079,B1,631.25,0.5,127,120.0
6080,A3,631.25,0.5,127,120.0
6081,A2,631.25,0.5,127,120.0
6082,A4,631.5,0.5,127,120.0
6083,E3,631.75,0.25,127,120.0
6084,F#1,631.75,0.25,127,120.0
6085,C#3,631.75,0.5,127,120.0
6086,D2,631.75,0.5,127,120.0
6087,F#3,632.0,0.5,127,120.0
6088,F#4,632.0,0.25,127,120.0
6089,F#2,632.0,0.25,127,120.0
6090,E4,632.25,0.25,127,120.0
6091,F#1,632.25,0.5,127,120.0
6092,B1,632.25,0.25,127,120.0
6093,F#4,632.25,0.25,127,120.0
6094,F#3,632.25,0.25,127,120.0
6095,A3,632.5,0.5,127,120.0
6096,C#4,632.5,0.25,127,120.0
6097,B1,632.5,0.25,127,120.0
6098,C4,632.75,0.25,127,120.0
6099,F#1,632.75,0.25,127,120.0
6100,E4,632.75,0.25,127,120.0
6101,E3,632.75,0.25,127,120.0
6102,C#3,632.75,0.5,127,120.0
6103,D2,632.75,0.5,127,120.0
6104,F#3,633.0,0.25,127,120.0
6105,B3,633.0,0.25,127,120.0
6106,F#1,633.0,0.25,127,120.0
6107,F#4,633.0,0.25,127,120.0
6108,F#3,633.0,0.25,127,120.0
6109,E3,633.25,0.25,127,120.0
6110,A3,633.25,0.5,127,120.0
6111,F#2,633.25,0.5,127,120.0
6112,B1,633.25,0.5,127,120.0
6113,C#3,633.5,0.25,127,120.0
6114,C3,633.75,0.25,127,120.0
6115,F#1,633.75,0.25,127,120.0
6116,C#3,633.75,0.5,127,120.0
6117,D2,633.75,0.5,127,120.0
6118,B2,634.0,0.25,127,120.0
6119,F#1,634.0,0.25,127,120.0
6120,A2,634.25,0.5,127,120.0
6121,F#4,634.25,0.5,127,120.0
6122,F#2,634.25,0.5,127,120.0
6123,B1,634.25,0.25,127,120.0
6124,F#4,634.25,0.25,127,120.0
6125,F#3,634.25,0.25,127,120.0
6126,B1,634.5,0.25,127,120.0
6127,F#2,634.75,0.5,127,120.0
6128,E4,634.75,0.25,127,120.0
6129,F#1,634.75,0.25,127,120.0
6130,A4,634.75,0.25,127,120.0
6131,A3,634.75,0.25,127,120.0
6132,C#3,634.75,0.5,127,120.0
6133,D2,634.75,0.5,127,120.0
6134,F#4,635.0,0.75,127,120.0
6135,F#1,635.0,0.25,127,120.0
6136,F#4,635.0,0.25,127,120.0
6137,F#3,635.0,0.25,127,120.0
6138,F#3,635.25,0.5,127,120.0
6139,F#2,635.25,0.25,127,120.0
6140,B1,635.25,0.5,127,120.0
6141,F#1,635.5,0.25,127,120.0
6142,E3,635.75,0.25,127,120.0
6143,F#1,635.75,0.25,127,120.0
6144,C#3,635.75,167/1000,127,120.0
6145,D3,635.75,167/1000,127,120.0
6146,B1,635.75,167/1000,127,120.0
6147,D2,635.917,167/1000,127,120.0
6148,F#3,636.0,0.75,127,120.0
6149,F#1,636.0,0.25,127,120.0
6150,D2,636.083,167/1000,127,120.0
6151,F#4,636.25,0.5,127,120.0
6152,F#2,636.25,0.25,127,120.0
6153,B2,636.25,167/1000,127,120.0
6154,F#4,636.25,0.25,127,120.0
6155,F#3,636.25,0.25,127,120.0
6156,D2,636.417,167/1000,127,120.0
6157,F#1,636.5,0.25,127,120.0
6158,D2,636.583,167/1000,127,120.0
6159,F#2,636.75,0.5,127,120.0
6160,A4,636.75,0.25,127,120.0
6161,A2,636.75,0.5,127,120.0
6162,C3,636.75,167/1000,127,120.0
6163,E4,636.75,0.25,127,120.0
6164,E3,636.75,0.25,127,120.0
6165,D2,636.917,167/1000,127,120.0
6166,F#4,637.0,0.75,127,120.0
6167,F#4,637.0,0.25,127,120.0
6168,F#3,637.0,0.25,127,120.0
6169,D2,637.083,167/1000,127,120.0
6170,F#3,637.25,0.5,127,120.0
6171,F#2,637.25,0.25,127,120.0
6172,A2,637.25,167/1000,127,120.0
6173,D2,637.417,167/1000,127,120.0
6174,E2,637.5,0.25,127,120.0
6175,A4,637.5,0.5,127,120.0
6176,A3,637.5,0.5,127,120.0
6177,D2,637.583,167/1000,127,120.0
6178,A3,637.75,0.25,127,120.0
6179,C#2,637.75,0.25,127,120.0
6180,B2,637.75,167/1000,127,120.0
6181,D2,637.917,167/1000,127,120.0
6182,F#3,638.0,0.75,127,120.0
6183,C2,638.0,0.25,127,120.0
6184,F#4,638.0,0.25,127,120.0
6185,F#3,638.0,0.25,127,120.0
6186,D2,638.083,167/1000,127,120.0
6187,F#4,638.25,0.5,127,120.0
6188,B1,638.25,0.25,127,120.0
6189,A2,638.25,167/1000,127,120.0
6190,E4,638.25,0.25,127,120.0
6191,E3,638.25,0.25,127,120.0
6192,D2,638.417,167/1000,127,120.0
6193,A1,638.5,0.5,127,120.0
6194,C#4,638.5,0.25,127,120.0
6195,C#3,638.5,0.25,127,120.0
6196,D2,638.583,167/1000,127,120.0
6197,F#2,638.75,0.5,127,120.0
6198,E4,638.75,0.25,127,120.0
6199,C3,638.75,167/1000,127,120.0
6200,C4,638.75,0.25,127,120.0
6201,C3,638.75,0.25,127,120.0
6202,D2,638.917,167/1000,127,120.0
6203,F#4,639.0,0.5,127,120.0
6204,F#1,639.0,0.75,127,120.0
6205,B3,639.0,0.25,127,120.0
6206,B2,639.0,0.25,127,120.0
6207,D2,639.083,167/1000,127,120.0
6208,F#3,639.25,0.5,127,120.0
6209,B2,639.25,167/1000,127,120.0
6210,A3,639.25,0.5,127,120.0
6211,A2,639.25,0.5,127,120.0
6212,D2,639.417,167/1000,127,120.0
6213,A4,639.5,0.5,127,120.0
6214,D2,639.583,167/1000,127,120.0
6215,E3,639.75,0.25,127,120.0
6216,F#1,639.75,0.25,127,120.0
6217,D3,639.75,167/1000,127,120.0
6218,D2,639.917,167/1000,127,120.0
6219,F#3,640.0,0.5,127,120.0
6220,F#4,640.0,0.25,127,120.0
6221,F#1,640.0,0.25,127,120.0
6222,D2,640.083,167/1000,127,120.0
6223,E4,640.25,0.25,127,120.0
6224,F#2,640.25,0.25,127,120.0
6225,A2,640.25,167/1000,127,120.0
6226,F#4,640.25,0.25,127,120.0
6227,F#3,640.25,0.25,127,120.0
6228,D2,640.417,167/1000,127,120.0
6229,A3,640.5,0.5,127,120.0
6230,C#4,640.5,0.25,127,120.0
6231,F#1,640.5,0.25,127,120.0
6232,D2,640.583,167/1000,127,120.0
6233,C4,640.75,0.25,127,120.0
6234,F#1,640.75,0.25,127,120.0
6235,B2,640.75,167/1000,127,120.0
6236,E4,640.75,0.25,127,120.0
6237,E3,640.75,0.25,127,120.0
6238,D2,640.917,167/1000,127,120.0
6239,F#3,641.0,0.25,127,120.0
6240,B3,641.0,0.25,127,120.0
6241,F#1,641.0,0.25,127,120.0
6242,F#4,641.0,0.25,127,120.0
6243,F#3,641.0,0.25,127,120.0
6244,D2,641.083,167/1000,127,120.0
6245,E3,641.25,0.25,127,120.0
6246,A3,641.25,0.5,127,120.0
6247,F#2,641.25,0.25,127,120.0
6248,G2,641.25,167/1000,127,120.0
6249,D2,641.417,167/1000,127,120.0
6250,C#3,641.5,0.25,127,120.0
6251,F#1,641.5,0.25,127,120.0
6252,D2,641.583,167/1000,127,120.0
6253,C3,641.75,0.25,127,120.0
6254,F#1,641.75,0.25,127,120.0
6255,C3,641.75,143/1000,127,120.0
6256,C3,641.893,143/1000,127,120.0
6257,B2,642.0,0.25,127,120.0
6258,F#2,642.0,0.5,127,120.0
6259,C3,642.035,143/1000,127,120.0
6260,C3,642.178,143/1000,127,120.0
6261,A2,642.25,0.5,127,120.0
6262,F#4,642.25,0.25,127,120.0
6263,F#3,642.25,0.25,127,120.0
6264,C3,642.321,143/1000,127,120.0
6265,C3,642.464,143/1000,127,120.0
6266,B2,642.606,143/1000,127,120.0
6267,B2,642.749,143/1000,127,120.0
6268,F#1,642.75,0.25,127,120.0
6269,F#3,642.75,4.0,127,120.0
6270,B2,642.75,4.0,127,120.0
6271,A4,642.75,0.25,127,120.0
6272,A3,642.75,0.25,127,120.0
6273,B2,642.892,143/1000,127,120.0
6274,F#1,643.0,0.75,127,120.0
6275,F#4,643.0,0.25,127,120.0
6276,F#3,643.0,0.25,127,120.0
6277,B2,643.034,143/1000,127,120.0
6278,B2,643.177,143/1000,127,120.0
6279,B2,643.32,143/1000,127,120.0
6280,A2,643.462,143/1000,127,120.0
6281,A2,643.605,143/1000,127,120.0
6282,F#1,643.75,0.25,127,120.0
6283,A2,643.75,0.125,127,120.0
6284,A2,643.875,0.125,127,120.0
6285,F#1,644.0,0.25,127,120.0
6286,A2,644.0,0.125,127,120.0
6287,A2,644.125,0.125,127,120.0
6288,F#2,644.25,0.25,127,120.0
6289,F#4,644.25,0.25,127,120.0
6290,F#3,644.25,0.25,127,120.0
6291,C#3,644.25,0.5,127,120.0
6292,B1,644.25,0.5,127,120.0
6293,F#1,644.5,0.25,127,120.0
6294,A2,644.75,0.5,127,120.0
6295,E4,644.75,0.25,127,120.0
6296,E3,644.75,0.25,127,120.0
6297,F#4,645.0,0.25,127,120.0
6298,F#3,645.0,0.25,127,120.0
6299,F#2,645.25,0.25,127,120.0
6300,E2,645.5,0.25,127,120.0
6301,A4,645.5,0.5,127,120.0
6302,A3,645.5,0.5,127,120.0
6303,C#2,645.75,0.25,127,120.0
6304,C2,646.0,0.25,127,120.0
6305,F#4,646.0,0.25,127,120.0
6306,F#3,646.0,0.25,127,120.0
6307,B1,646.25,0.25,127,120.0
6308,E4,646.25,0.25,127,120.0
6309,E3,646.25,0.25,127,120.0
6310,A1,646.5,0.5,127,120.0
6311,C#4,646.5,0.25,127,120.0
6312,C#3,646.5,0.25,127,120.0
6313,C4,646.75,0.25,127,120.0
6314,C3,646.75,0.25,127,120.0
6315,F#1,647.0,0.75,127,120.0
6316,B3,647.0,0.25,127,120.0
6317,B2,647.0,0.25,127,120.0
6318,A3,647.25,0.5,127,120.0
6319,A2,647.25,0.5,127,120.0
6320,F#1,647.75,0.25,127,120.0
6321,F#2,648.0,1.0,127,120.0
6322,F#4,648.25,0.25,127,120.0
6323,F#3,648.25,0.25,127,120.0
6324,E4,648.75,0.25,127,120.0
6325,E3,648.75,0.25,127,120.0
6326,F#1,649.0,0.75,127,120.0
6327,F#4,649.0,0.25,127,120.0
6328,F#3,649.0,0.25,127,120.0
6329,F#1,649.75,0.25,127,120.0
6330,F#2,650.0,0.25,127,120.0
6331,F#1,650.25,0.25,127,120.0
6332,F#4,650.25,0.25,127,120.0
6333,F#3,650.25,0.25,127,120.0
6334,F#1,650.5,0.25,127,120.0
6335,F#2,650.75,0.25,127,120.0
6336,A4,650.75,0.25,127,120.0
6337,A3,650.75,0.25,127,120.0
6338,F#1,651.0,0.25,127,120.0
6339,F#4,651.0,0.25,127,120.0
6340,F#3,651.0,0.25,127,120.0
6341,F#1,651.25,0.25,127,120.0
6342,F#3,651.25,4.0,127,120.0
6343,B2,651.25,4.0,127,120.0
6344,F#2,651.5,0.25,127,120.0
6345,F#1,651.75,0.25,127,120.0
6346,F#1,652.0,0.25,127,120.0
6347,F#2,652.25,0.25,127,120.0
6348,F#4,652.25,0.25,127,120.0
6349,F#3,652.25,0.25,127,120.0
6350,F#1,652.5,0.25,127,120.0
6351,A2,652.75,0.5,127,120.0
6352,E4,652.75,0.25,127,120.0
6353,E3,652.75,0.25,127,120.0
6354,F#4,653.0,0.25,127,120.0
6355,F#3,653.0,0.25,127,120.0
6356,F#2,653.25,0.25,127,120.0
6357,E2,653.5,0.25,127,120.0
6358,A4,653.5,0.5,127,120.0
6359,A3,653.5,0.5,127,120.0
6360,C#2,653.75,0.25,127,120.0
6361,C2,654.0,0.25,127,120.0
6362,F#4,654.0,0.25,127,120.0
6363,F#3,654.0,0.25,127,120.0
6364,B1,654.25,0.25,127,120.0
6365,E4,654.25,0.25,127,120.0
6366,E3,654.25,0.25,127,120.0
6367,A1,654.5,0.5,127,120.0
6368,C#4,654.5,0.25,127,120.0
6369,C#3,654.5,0.25,127,120.0
6370,C4,654.75,0.25,127,120.0
6371,C3,654.75,0.25,127,120.0
6372,F#1,655.0,0.75,127,120.0
6373,B3,655.0,0.25,127,120.0
6374,B2,655.0,0.25,127,120.0
6375,A3,655.25,0.5,127,120.0
6376,A2,655.25,0.5,127,120.0
6377,F#1,655.75,0.25,127,120.0
6378,F#3,655.75,0.5,127,120.0
6379,B2,655.75,0.5,127,120.0
6380,B3,655.75,4.0,127,120.0
6381,B2,655.75,4.0,127,120.0
6382,F#1,656.0,0.75,127,120.0
6383,F#3,656.25,0.5,127,120.0
6384,B2,656.25,0.5,127,120.0
6385,F#1,656.75,0.25,127,120.0
6386,F#1,657.0,0.5,127,120.0
6387,F#1,657.5,0.25,127,120.0
6388,F#1,657.75,0.25,127,120.0
6389,F#1,658.0,0.25,127,120.0
6390,F#2,658.25,0.25,127,120.0
6391,F#1,658.5,0.25,127,120.0
6392,F#1,658.75,0.25,127,120.0
6393,F#1,659.0,0.25,127,120.0
6394,F#2,659.25,0.25,127,120.0
6395,F#1,659.5,0.25,127,120.0
6396,F#1,659.75,0.25,127,120.0
6397,F#1,660.0,0.25,127,120.0
6398,F#2,660.25,0.25,127,120.0
6399,F#1,660.5,0.25,127,120.0
6400,A2,660.75,0.5,127,120.0
6401,F#2,661.25,0.25,127,120.0
6402,E2,661.5,0.25,127,120.0
6403,C#2,661.75,0.25,127,120.0
6404,C2,662.0,0.25,127,120.0
6405,B1,662.25,0.25,127,120.0
6406,A1,662.5,0.5,127,120.0
6407,F#1,663.0,0.75,127,120.0
6408,F#1,663.75,0.25,127,120.0
6409,F#2,664.0,0.75,127,120.0
6410,B3,664.25,4.0,127,120.0
6411,B2,664.25,4.0,127,120.0
6412,F#1,664.75,0.25,127,120.0
6413,F#1,665.0,0.75,127,120.0
6414,F#1,665.75,0.25,127,120.0
6415,F#2,666.0,0.25,127,120.0
6416,F#2,666.25,0.25,127,120.0
6417,F#2,666.5,0.25,127,120.0
6418,F#2,666.75,0.25,127,120.0
6419,F#1,667.0,0.5,127,120.0
6420,F#2,667.5,0.25,127,120.0
6421,F#1,667.75,0.25,127,120.0
6422,F#1,668.0,0.25,127,120.0
6423,F#2,668.25,0.25,127,120.0
6424,F#1,668.5,0.25,127,120.0
6425,A2,668.75,0.5,127,120.0
6426,B3,668.75,0.5,127,120.0
6427,B2,668.75,0.5,127,120.0
6428,F#2,669.25,0.25,127,120.0
6429,B3,669.25,0.5,127,120.0
6430,B2,669.25,0.5,127,120.0
6431,E2,669.5,0.25,127,120.0
6432,C#2,669.75,0.25,127,120.0
6433,C2,670.0,0.25,127,120.0
6434,B1,670.25,0.25,127,120.0
6435,A1,670.5,0.5,127,120.0
6436,F#1,671.0,0.75,127,120.0
6437,F#1,671.75,0.25,127,120.0
6438,F#2,672.0,0.75,127,120.0
6439,F#1,672.75,0.25,127,120.0
6440,F#1,673.0,0.5,127,120.0
6441,F#1,673.5,0.25,127,120.0
6442,F#1,673.75,0.25,127,120.0
6443,F#2,674.0,0.25,127,120.0
6444,F#1,674.25,0.25,127,120.0
6445,F#1,674.5,0.25,127,120.0
6446,F#2,674.75,0.25,127,120.0
6447,F#1,675.0,0.75,127,120.0
6448,F#1,675.75,0.25,127,120.0
6449,F#1,676.0,0.25,127,120.0
6450,F#2,676.25,0.25,127,120.0
6451,F#1,676.5,0.25,127,120.0
6452,A2,676.75,0.5,127,120.0
6453,F#2,677.25,0.25,127,120.0
6454,E2,677.5,0.25,127,120.0
6455,C#2,677.75,0.25,127,120.0
6456,C2,678.0,0.25,127,120.0
6457,B1,678.25,0.25,127,120.0
6458,A1,678.5,0.5,127,120.0
6459,F#1,679.0,4.0,127,120.0
6460,F#1,683.0,4.0,127,120.0
6461,F#1,687.0,0.5,127,120.0
6462,F#1,687.5,0.5,127,120.0
