,note_name,start_time,duration,velocity,tempo
0,E4,0.0,4.0,79,130.0
1,A2,0.0,4.0,79,130.0
2,E4,8.0,4.0,79,130.0
3,A2,8.0,4.0,79,130.0
4,C#4,12.0,1.0,95,130.0
5,A2,13.0,0.5,95,130.0
6,E2,13.5,0.5,95,130.0
7,G3,14.0,0.5,95,130.0
8,A3,14.5,0.5,95,130.0
9,A2,15.0,0.5,95,130.0
10,C#4,15.5,0.5,95,130.0
11,C#4,16.0,0.5,95,130.0
12,A2,16.5,1.0,95,130.0
13,G3,17.5,0.5,95,130.0
14,A3,18.0,0.5,95,130.0
15,A2,18.5,0.5,95,130.0
16,C#3,19.0,27/200,95,130.0
17,D3,19.25,27/200,95,130.0
18,E3,19.5,27/200,95,130.0
19,C#4,20.0,1.0,95,130.0
20,A2,21.0,0.5,95,130.0
21,E2,21.5,0.5,95,130.0
22,G3,22.0,0.5,95,130.0
23,A3,22.5,0.5,95,130.0
24,A3,23.5,0.5,95,130.0
25,A3,24.0,0.5,95,130.0
26,A2,24.5,0.5,95,130.0
27,B-2,25.0,0.5,95,130.0
28,C#3,25.5,0.5,95,130.0
29,D3,26.0,0.5,95,130.0
30,F3,26.5,0.5,95,130.0
31,E3,27.0,0.125,95,130.0
32,F3,27.125,0.125,70,130.0
33,E3,27.25,0.25,70,130.0
34,D3,27.5,0.5,95,130.0
35,C#4,28.0,1.0,95,130.0
36,A2,29.0,0.5,95,130.0
37,E2,29.5,0.5,95,130.0
38,G3,30.0,0.5,95,130.0
39,A3,30.5,0.5,95,130.0
40,A2,31.0,0.5,95,130.0
41,C#4,31.5,0.5,95,130.0
42,C#4,32.0,0.5,95,130.0
43,A3,32.5,0.5,95,130.0
44,C#4,33.0,0.5,95,130.0
45,D4,33.5,0.5,95,130.0
46,G4,34.0,0.5,95,130.0
47,E4,34.5,0.5,95,130.0
48,B-3,35.0,0.5,95,130.0
49,A3,35.5,0.5,95,130.0
50,C#4,36.0,1.0,95,130.0
51,A2,37.0,0.5,95,130.0
52,C#3,37.0,0.25,95,130.0
53,C#2,37.0,0.25,95,130.0
54,D3,37.25,0.25,95,130.0
55,D2,37.25,0.25,95,130.0
56,E2,37.5,0.5,95,130.0
57,E3,37.5,0.25,95,130.0
58,E2,37.5,0.25,95,130.0
59,F3,37.75,0.25,95,130.0
60,F2,37.75,0.25,95,130.0
61,G3,38.0,0.5,95,130.0
62,G3,38.0,0.25,95,130.0
63,G2,38.0,0.25,95,130.0
64,G#3,38.25,0.25,95,130.0
65,A2,38.25,0.25,95,130.0
66,A3,38.5,0.5,95,130.0
67,G3,38.5,0.25,95,130.0
68,G2,38.5,0.25,95,130.0
69,F3,38.75,0.25,95,130.0
70,F2,38.75,0.25,95,130.0
71,E3,39.0,0.25,95,130.0
72,E2,39.0,0.25,95,130.0
73,D3,39.25,0.25,95,130.0
74,D2,39.25,0.25,95,130.0
75,A3,39.5,0.5,95,130.0
76,C#3,39.5,0.25,95,130.0
77,C#2,39.5,0.25,95,130.0
78,B-2,39.75,0.25,95,130.0
79,B-1,39.75,0.25,95,130.0
80,A3,40.0,1.0,95,130.0
81,G5,40.0,2.0,95,130.0
82,B4,40.0,2.0,95,130.0
83,A1,40.0,0.5,95,130.0
84,A1,41.0,0.5,95,130.0
85,A2,42.0,1.0,95,130.0
86,A2,43.0,0.5,95,130.0
87,E5,43.5,0.5,95,130.0
88,A4,43.5,0.5,95,130.0
89,A1,43.5,0.5,95,130.0
90,C#4,44.0,1.0,95,130.0
91,A1,44.5,0.5,95,130.0
92,A2,45.0,0.5,95,130.0
93,E2,45.5,0.5,95,130.0
94,G1,45.5,0.5,95,130.0
95,G3,46.0,0.5,95,130.0
96,A2,46.0,1.0,95,130.0
97,A3,46.5,0.5,95,130.0
98,A2,47.0,0.5,95,130.0
99,D5,47.0,0.5,95,130.0
100,G4,47.0,0.5,95,130.0
101,C#2,47.0,0.25,95,130.0
102,D2,47.25,0.25,95,130.0
103,C#4,47.5,0.5,95,130.0
104,E5,47.5,0.5,95,130.0
105,A4,47.5,0.5,95,130.0
106,E2,47.5,0.25,95,130.0
107,C#4,48.0,0.5,95,130.0
108,C#5,48.0,3.0,95,130.0
109,E4,48.0,3.0,95,130.0
110,A4,48.0,4.0,95,130.0
111,A1,48.0,0.5,95,130.0
112,A2,48.5,1.0,95,130.0
113,A1,49.0,0.5,95,130.0
114,G3,49.5,0.5,95,130.0
115,A3,50.0,0.5,95,130.0
116,A2,50.0,1.0,95,130.0
117,A2,50.5,0.5,95,130.0
118,C#3,51.0,27/200,95,130.0
119,A4,51.0,0.5,95,130.0
120,E4,51.0,0.5,95,130.0
121,A2,51.0,0.5,95,130.0
122,D3,51.25,27/200,95,130.0
123,E3,51.5,27/200,95,130.0
124,A4,51.5,0.5,95,130.0
125,E4,51.5,0.5,95,130.0
126,A1,51.5,0.5,95,130.0
127,C#4,52.0,1.0,95,130.0
128,A4,52.0,2.0,95,130.0
129,A4,52.0,2.0,95,130.0
130,E4,52.0,3.0,95,130.0
131,A1,52.5,0.5,95,130.0
132,A2,53.0,0.5,95,130.0
133,B-1,53.0,0.5,95,130.0
134,E2,53.5,0.5,95,130.0
135,C#2,53.5,0.5,95,130.0
136,G3,54.0,0.5,95,130.0
137,D2,54.0,0.5,95,130.0
138,A3,54.5,0.5,95,130.0
139,F2,54.5,0.5,95,130.0
140,G4,55.0,0.5,95,130.0
141,D4,55.0,0.5,95,130.0
142,E2,55.0,0.125,95,130.0
143,F2,55.125,0.125,70,130.0
144,E2,55.25,0.25,70,130.0
145,A3,55.5,0.5,95,130.0
146,A4,55.5,0.5,95,130.0
147,E4,55.5,0.5,95,130.0
148,D2,55.5,0.5,95,130.0
149,A3,56.0,0.5,95,130.0
150,A4,56.0,1.5,95,130.0
151,E4,56.0,1.5,95,130.0
152,A1,56.0,0.5,95,130.0
153,A2,56.5,0.5,95,130.0
154,B-2,57.0,0.5,95,130.0
155,A1,57.0,0.5,95,130.0
156,C#3,57.5,0.5,95,130.0
157,G4,57.5,1.5,95,130.0
158,D4,57.5,1.5,95,130.0
159,D3,58.0,0.5,95,130.0
160,A2,58.0,1.0,95,130.0
161,F3,58.5,0.5,95,130.0
162,E3,59.0,0.125,95,130.0
163,F4,59.0,1.0,95,130.0
164,C#4,59.0,1.0,95,130.0
165,A2,59.0,0.5,95,130.0
166,F3,59.125,0.125,70,130.0
167,E3,59.25,0.25,70,130.0
168,D3,59.5,0.5,95,130.0
169,A1,59.5,0.5,95,130.0
170,C#4,60.0,1.0,95,130.0
171,E4,60.0,1.5,95,130.0
172,C#4,60.0,1.5,95,130.0
173,A1,60.5,0.5,95,130.0
174,A2,61.0,0.5,95,130.0
175,E2,61.5,0.5,95,130.0
176,G4,61.5,1.5,95,130.0
177,D4,61.5,1.5,95,130.0
178,G1,61.5,0.5,95,130.0
179,G3,62.0,0.5,95,130.0
180,A2,62.0,1.0,95,130.0
181,A3,62.5,0.5,95,130.0
182,A2,63.0,0.5,95,130.0
183,A4,63.0,1.0,95,130.0
184,E4,63.0,1.0,95,130.0
185,C#2,63.0,0.25,95,130.0
186,D2,63.25,0.25,95,130.0
187,C#4,63.5,0.5,95,130.0
188,E2,63.5,0.25,95,130.0
189,C#4,64.0,0.5,95,130.0
190,A4,64.0,4.0,79,130.0
191,E4,64.0,4.0,79,130.0
192,A1,64.0,0.5,95,130.0
193,A3,64.5,0.5,95,130.0
194,C#4,65.0,0.5,95,130.0
195,A1,65.0,0.5,95,130.0
196,D4,65.5,0.5,95,130.0
197,G4,66.0,0.5,95,130.0
198,A2,66.0,1.0,95,130.0
199,E4,66.5,0.5,95,130.0
200,B-4,67.0,0.5,95,130.0
201,A2,67.0,0.5,95,130.0
202,A4,67.5,0.5,95,130.0
203,A2,67.5,0.5,95,130.0
204,C#4,68.0,1.0,95,130.0
205,A4,68.0,4.0,79,130.0
206,E4,68.0,1.0,79,130.0
207,A2,68.0,1.0,95,130.0
208,A2,69.0,0.5,95,130.0
209,G2,69.0,0.125,95,130.0
210,A2,69.125,0.125,95,130.0
211,B-2,69.25,0.125,95,130.0
212,C3,69.375,0.125,95,130.0
213,E2,69.5,0.5,95,130.0
214,D3,69.5,0.125,95,130.0
215,E3,69.625,0.125,95,130.0
216,D3,69.75,0.125,95,130.0
217,E3,69.875,0.125,95,130.0
218,G3,70.0,0.5,95,130.0
219,F3,70.0,0.125,95,130.0
220,E3,70.125,0.125,95,130.0
221,G3,70.25,0.125,95,130.0
222,A3,70.375,0.125,95,130.0
223,A3,70.5,0.5,95,130.0
224,G3,70.5,0.125,95,130.0
225,F3,70.625,0.125,95,130.0
226,E3,70.75,0.125,95,130.0
227,D3,70.875,0.125,95,130.0
228,C#3,71.0,0.125,95,130.0
229,E3,71.125,0.125,95,130.0
230,D3,71.25,0.125,95,130.0
231,E3,71.375,0.125,95,130.0
232,A3,71.5,0.5,95,130.0
233,B-2,71.5,0.125,95,130.0
234,A2,71.625,0.125,95,130.0
235,G2,71.75,0.125,95,130.0
236,F2,71.875,0.125,95,130.0
237,A3,72.0,1.0,95,130.0
238,G2,72.0,0.5,95,130.0
239,G1,72.0,0.5,95,130.0
240,A2,72.5,0.5,95,130.0
241,A1,72.5,0.5,95,130.0
242,B-2,73.0,0.5,95,130.0
243,B-1,73.0,0.5,95,130.0
244,D3,73.5,0.5,95,130.0
245,D2,73.5,0.5,95,130.0
246,C#3,74.0,0.5,95,130.0
247,C#2,74.0,0.5,95,130.0
248,A2,74.5,0.5,95,130.0
249,A1,74.5,0.5,95,130.0
250,G2,76.5,0.5,95,130.0
251,G1,76.5,0.5,95,130.0
252,A2,77.0,0.5,95,130.0
253,A1,77.0,0.5,95,130.0
254,B-2,77.5,0.5,95,130.0
255,B-1,77.5,0.5,95,130.0
256,D3,78.0,0.5,95,130.0
257,D2,78.0,0.5,95,130.0
258,C#3,78.5,0.5,95,130.0
259,C#2,78.5,0.5,95,130.0
260,F3,79.0,0.5,95,130.0
261,F2,79.0,0.5,95,130.0
262,E3,79.5,0.5,95,130.0
263,E2,79.5,0.5,95,130.0
264,E3,80.0,0.5,95,130.0
265,E2,80.0,0.5,95,130.0
266,G2,80.5,0.5,95,130.0
267,G1,80.5,0.5,95,130.0
268,B-2,81.0,0.5,95,130.0
269,B-1,81.0,0.5,95,130.0
270,D3,81.5,0.5,95,130.0
271,D2,81.5,0.5,95,130.0
272,C#3,82.0,0.5,95,130.0
273,C#2,82.0,0.5,95,130.0
274,A2,82.5,0.5,95,130.0
275,A1,82.5,0.5,95,130.0
276,A1,83.5,0.5,95,130.0
277,E3,83.5,0.5,95,130.0
278,A2,83.5,0.5,95,130.0
279,B-1,84.0,0.5,95,130.0
280,F3,84.0,0.5,95,130.0
281,B-2,84.0,0.5,95,130.0
282,G1,84.5,0.5,95,130.0
283,D3,84.5,0.5,95,130.0
284,G2,84.5,0.5,95,130.0
285,F1,85.5,0.5,95,130.0
286,C3,85.5,0.5,95,130.0
287,F2,85.5,0.5,95,130.0
288,G1,86.0,0.5,95,130.0
289,D3,86.0,0.5,95,130.0
290,G2,86.0,0.5,95,130.0
291,E1,86.5,0.5,95,130.0
292,B2,86.5,0.5,95,130.0
293,E2,86.5,0.5,95,130.0
294,G2,88.0,0.5,95,130.0
295,G1,88.0,0.5,95,130.0
296,A2,88.5,0.5,95,130.0
297,A1,88.5,0.5,95,130.0
298,B-2,89.0,0.5,95,130.0
299,B-1,89.0,0.5,95,130.0
300,D3,89.5,0.5,95,130.0
301,D2,89.5,0.5,95,130.0
302,C#3,90.0,0.5,95,130.0
303,C#2,90.0,0.5,95,130.0
304,A2,90.5,0.5,95,130.0
305,A1,90.5,0.5,95,130.0
306,G2,92.5,0.5,95,130.0
307,G1,92.5,0.5,95,130.0
308,A2,93.0,0.5,95,130.0
309,A1,93.0,0.5,95,130.0
310,B-2,93.5,0.5,95,130.0
311,B-1,93.5,0.5,95,130.0
312,D3,94.0,0.5,95,130.0
313,D2,94.0,0.5,95,130.0
314,C#3,94.5,0.5,95,130.0
315,C#2,94.5,0.5,95,130.0
316,F3,95.0,0.5,95,130.0
317,F2,95.0,0.5,95,130.0
318,E3,95.5,0.5,95,130.0
319,E2,95.5,0.5,95,130.0
320,E3,96.0,0.5,95,130.0
321,E2,96.0,0.5,95,130.0
322,G2,96.5,0.5,95,130.0
323,G1,96.5,0.5,95,130.0
324,A2,97.0,0.5,95,130.0
325,A1,97.0,0.5,95,130.0
326,B-2,97.5,0.5,95,130.0
327,B-1,97.5,0.5,95,130.0
328,D3,98.0,0.5,95,130.0
329,D2,98.0,0.5,95,130.0
330,C#3,98.5,0.5,95,130.0
331,C#2,98.5,0.5,95,130.0
332,B-2,99.0,0.5,95,130.0
333,B-1,99.0,0.5,95,130.0
334,A2,99.5,0.5,95,130.0
335,A1,99.5,0.5,95,130.0
336,B-1,100.0,0.5,95,130.0
337,B-3,100.0,0.5,95,130.0
338,F3,100.0,0.5,95,130.0
339,B-2,100.0,0.5,95,130.0
340,A1,100.5,0.5,95,130.0
341,A3,100.5,0.5,95,130.0
342,E3,100.5,0.5,95,130.0
343,A2,100.5,0.5,95,130.0
344,A2,101.0,133/1000,95,130.0
345,F2,101.5,0.5,95,130.0
346,F3,101.5,0.5,95,130.0
347,C3,101.5,0.5,95,130.0
348,F2,101.5,0.5,95,130.0
349,E2,102.0,0.5,95,130.0
350,E3,102.0,0.5,95,130.0
351,B2,102.0,0.5,95,130.0
352,E2,102.0,0.5,95,130.0
353,A2,102.5,133/1000,95,130.0
354,A1,103.0,0.5,95,130.0
355,B-3,103.0,0.5,95,130.0
356,F3,103.0,0.5,95,130.0
357,B-2,103.0,0.5,95,130.0
358,B-1,103.5,0.5,95,130.0
359,A3,103.5,0.5,95,130.0
360,E3,103.5,0.5,95,130.0
361,A2,103.5,0.5,95,130.0
362,G2,104.0,0.5,95,130.0
363,G1,104.0,0.5,95,130.0
364,A2,104.5,0.5,95,130.0
365,A1,104.5,0.5,95,130.0
366,D4,105.0,0.5,95,130.0
367,B-2,105.0,0.5,95,130.0
368,B-1,105.0,0.5,95,130.0
369,E4,105.5,0.5,95,130.0
370,D3,105.5,0.5,95,130.0
371,D2,105.5,0.5,95,130.0
372,C#3,106.0,0.5,95,130.0
373,C#2,106.0,0.5,95,130.0
374,D5,106.5,1.5,95,130.0
375,A2,106.5,0.5,95,130.0
376,A1,106.5,0.5,95,130.0
377,E4,107.5,0.5,95,130.0
378,D5,108.0,4.0,95,130.0
379,E4,108.0,4.0,95,130.0
380,G2,108.5,0.5,95,130.0
381,G1,108.5,0.5,95,130.0
382,A2,109.0,0.5,95,130.0
383,A1,109.0,0.5,95,130.0
384,B-2,109.5,0.5,95,130.0
385,B-1,109.5,0.5,95,130.0
386,D3,110.0,0.5,95,130.0
387,D2,110.0,0.5,95,130.0
388,C#3,110.5,0.5,95,130.0
389,C#2,110.5,0.5,95,130.0
390,F3,111.0,0.5,95,130.0
391,F2,111.0,0.5,95,130.0
392,E3,111.5,0.5,95,130.0
393,E2,111.5,0.5,95,130.0
394,E3,112.0,0.5,95,130.0
395,E2,112.0,0.5,95,130.0
396,G2,112.5,0.5,95,130.0
397,G1,112.5,0.5,95,130.0
398,D4,113.0,0.5,95,130.0
399,B-2,113.0,0.5,95,130.0
400,B-1,113.0,0.5,95,130.0
401,E4,113.5,1.0,95,130.0
402,D3,113.5,0.5,95,130.0
403,D2,113.5,0.5,95,130.0
404,C#3,114.0,0.5,95,130.0
405,C#2,114.0,0.5,95,130.0
406,D5,114.5,1.5,95,130.0
407,A2,114.5,0.5,95,130.0
408,A1,114.5,0.5,95,130.0
409,A1,115.5,0.5,95,130.0
410,E3,115.5,0.5,95,130.0
411,A2,115.5,0.5,95,130.0
412,D5,116.0,2.0,95,130.0
413,B-1,116.0,0.5,95,130.0
414,F3,116.0,0.5,95,130.0
415,B-2,116.0,0.5,95,130.0
416,G1,116.5,0.5,95,130.0
417,D3,116.5,0.5,95,130.0
418,G2,116.5,0.5,95,130.0
419,F1,117.5,0.5,95,130.0
420,C3,117.5,0.5,95,130.0
421,F2,117.5,0.5,95,130.0
422,F5,118.0,1.0,63,130.0
423,G1,118.0,0.5,95,130.0
424,D3,118.0,0.5,95,130.0
425,G2,118.0,0.5,95,130.0
426,E1,118.5,0.5,95,130.0
427,B2,118.5,0.5,95,130.0
428,E2,118.5,0.5,95,130.0
429,F5,119.0,1.0,63,130.0
430,G2,120.0,0.5,95,130.0
431,G1,120.0,0.5,95,130.0
432,A2,120.5,0.5,95,130.0
433,A1,120.5,0.5,95,130.0
434,D4,121.0,0.5,95,130.0
435,B-2,121.0,0.5,95,130.0
436,B-1,121.0,0.5,95,130.0
437,E4,121.5,0.5,95,130.0
438,D3,121.5,0.5,95,130.0
439,D2,121.5,0.5,95,130.0
440,C#3,122.0,0.5,95,130.0
441,C#2,122.0,0.5,95,130.0
442,D5,122.5,1.5,95,130.0
443,A2,122.5,0.5,95,130.0
444,A1,122.5,0.5,95,130.0
445,B3,123.0,67/1000,95,130.0
446,G3,123.0,67/1000,95,130.0
447,D3,123.0,67/1000,95,130.0
448,A2,123.0,67/1000,95,130.0
449,E4,123.5,0.5,95,130.0
450,B3,123.5,67/1000,95,130.0
451,G3,123.5,67/1000,95,130.0
452,D3,123.5,67/1000,95,130.0
453,A2,123.5,67/1000,95,130.0
454,D5,124.0,4.0,95,130.0
455,E4,124.0,4.0,95,130.0
456,B3,124.0,67/1000,95,130.0
457,G3,124.0,67/1000,95,130.0
458,D3,124.0,67/1000,95,130.0
459,A2,124.0,67/1000,95,130.0
460,G2,124.5,0.5,95,130.0
461,G1,124.5,0.5,95,130.0
462,A2,125.0,0.5,95,130.0
463,A1,125.0,0.5,95,130.0
464,B-2,125.5,0.5,95,130.0
465,B-1,125.5,0.5,95,130.0
466,D3,126.0,0.5,95,130.0
467,D2,126.0,0.5,95,130.0
468,C#3,126.5,0.5,95,130.0
469,C#2,126.5,0.5,95,130.0
470,F3,127.0,0.5,95,130.0
471,F2,127.0,0.5,95,130.0
472,E3,127.5,0.5,95,130.0
473,E2,127.5,0.5,95,130.0
474,E3,128.0,0.5,95,130.0
475,E2,128.0,0.5,95,130.0
476,G2,128.5,0.5,95,130.0
477,G1,128.5,0.5,95,130.0
478,D4,129.0,0.5,95,130.0
479,A2,129.0,0.5,95,130.0
480,A1,129.0,0.5,95,130.0
481,E4,129.5,1.0,95,130.0
482,B-2,129.5,0.5,95,130.0
483,B-1,129.5,0.5,95,130.0
484,D3,130.0,0.5,95,130.0
485,D2,130.0,0.5,95,130.0
486,D5,130.5,1.5,95,130.0
487,C#3,130.5,0.5,95,130.0
488,C#2,130.5,0.5,95,130.0
489,B-2,131.0,0.5,95,130.0
490,B-1,131.0,0.5,95,130.0
491,A2,131.5,0.5,95,130.0
492,A1,131.5,0.5,95,130.0
493,D5,132.0,2.0,95,130.0
494,B-1,132.0,0.5,95,130.0
495,B-3,132.0,0.5,95,130.0
496,F3,132.0,0.5,95,130.0
497,B-2,132.0,0.5,95,130.0
498,A1,132.5,0.5,95,130.0
499,A3,132.5,0.5,95,130.0
500,E3,132.5,0.5,95,130.0
501,A2,132.5,0.5,95,130.0
502,A2,133.0,133/1000,95,130.0
503,F2,133.5,0.5,95,130.0
504,F3,133.5,0.5,95,130.0
505,C3,133.5,0.5,95,130.0
506,F2,133.5,0.5,95,130.0
507,G5,134.0,1.0,63,130.0
508,E2,134.0,0.5,95,130.0
509,E3,134.0,0.5,95,130.0
510,B2,134.0,0.5,95,130.0
511,E2,134.0,0.5,95,130.0
512,A2,134.5,133/1000,95,130.0
513,G5,135.0,1.0,63,130.0
514,A1,135.0,0.5,95,130.0
515,A3,135.0,0.5,95,130.0
516,E3,135.0,0.5,95,130.0
517,A2,135.0,0.5,95,130.0
518,B-1,135.5,0.5,95,130.0
519,F3,135.5,0.5,95,130.0
520,B-2,135.5,0.5,95,130.0
521,A2,136.0,1.5,95,130.0
522,A1,136.0,1.5,95,130.0
523,A3,136.5,1.5,95,130.0
524,A2,136.5,1.5,95,130.0
525,A2,137.5,2.5,95,130.0
526,A1,137.5,2.5,95,130.0
527,A3,138.0,0.5,95,130.0
528,A2,138.0,0.5,95,130.0
529,B-3,138.5,0.5,70,130.0
530,B-2,138.5,0.5,95,130.0
531,A3,139.0,0.5,95,130.0
532,A2,139.0,0.5,95,130.0
533,G3,139.5,0.5,95,130.0
534,G2,139.5,0.5,95,130.0
535,A2,140.0,1.5,95,130.0
536,A1,140.0,1.5,95,130.0
537,A3,140.5,1.5,95,130.0
538,A2,140.5,1.5,95,130.0
539,A2,141.5,2.5,95,130.0
540,A1,141.5,2.5,95,130.0
541,A3,142.0,0.5,95,130.0
542,A2,142.0,0.5,95,130.0
543,B-3,142.5,0.5,70,130.0
544,B-2,142.5,0.5,95,130.0
545,A3,143.0,0.5,95,130.0
546,A2,143.0,0.5,95,130.0
547,G3,143.5,0.5,95,130.0
548,G2,143.5,0.5,95,130.0
549,A2,144.0,1.5,95,130.0
550,A1,144.0,1.5,95,130.0
551,A3,144.5,1.5,95,130.0
552,A2,144.5,1.5,95,130.0
553,A2,145.5,2.5,95,130.0
554,A1,145.5,2.5,95,130.0
555,A3,146.0,0.5,95,130.0
556,A2,146.0,0.5,95,130.0
557,B-3,146.5,0.5,70,130.0
558,B-2,146.5,0.5,95,130.0
559,A3,147.0,0.5,95,130.0
560,A2,147.0,0.5,95,130.0
561,G3,147.5,0.5,95,130.0
562,G2,147.5,0.5,95,130.0
563,A2,148.0,2.0,95,130.0
564,A1,148.0,2.0,95,130.0
565,A3,148.5,0.5,95,130.0
566,A2,148.5,0.5,95,130.0
567,E3,149.0,0.5,95,130.0
568,E2,149.0,0.5,95,130.0
569,F3,149.5,0.5,70,130.0
570,F2,149.5,1.0,95,130.0
571,A2,150.0,2.0,95,130.0
572,A1,150.0,2.0,95,130.0
573,D3,150.5,0.5,95,130.0
574,D2,150.5,0.5,95,130.0
575,E3,151.0,1.0,70,130.0
576,E2,151.0,1.0,95,130.0
577,A2,152.0,1.5,95,130.0
578,A1,152.0,1.5,95,130.0
579,A3,152.5,1.5,95,130.0
580,A2,152.5,1.5,95,130.0
581,A2,153.5,2.5,95,130.0
582,A1,153.5,2.5,95,130.0
583,A3,154.0,0.5,95,130.0
584,A2,154.0,0.5,95,130.0
585,B-3,154.5,0.5,70,130.0
586,B-2,154.5,0.5,95,130.0
587,A3,155.0,0.5,95,130.0
588,A2,155.0,0.5,95,130.0
589,G3,155.5,0.5,95,130.0
590,G2,155.5,0.5,95,130.0
591,A2,156.0,1.5,95,130.0
592,A1,156.0,1.5,95,130.0
593,A3,156.5,1.5,95,130.0
594,A2,156.5,1.5,95,130.0
595,A2,157.5,2.5,95,130.0
596,A1,157.5,2.5,95,130.0
597,A3,158.0,0.5,95,130.0
598,A2,158.0,0.5,95,130.0
599,B-3,158.5,0.5,70,130.0
600,B-2,158.5,0.5,95,130.0
601,A3,159.0,0.5,95,130.0
602,A2,159.0,0.5,95,130.0
603,G3,159.5,0.5,95,130.0
604,G2,159.5,0.5,95,130.0
605,A2,160.0,1.5,95,130.0
606,A1,160.0,1.5,95,130.0
607,A3,160.5,1.5,95,130.0
608,A2,160.5,1.5,95,130.0
609,A2,161.5,2.5,95,130.0
610,A1,161.5,2.5,95,130.0
611,A3,162.0,0.5,95,130.0
612,A2,162.0,0.5,95,130.0
613,B-3,162.5,0.5,70,130.0
614,B-2,162.5,0.5,95,130.0
615,A3,163.0,0.5,95,130.0
616,A2,163.0,0.5,95,130.0
617,G3,163.5,0.5,95,130.0
618,G2,163.5,0.5,95,130.0
619,A2,164.0,2.0,95,130.0
620,A1,164.0,2.0,95,130.0
621,A3,164.5,0.5,95,130.0
622,A2,164.5,0.5,95,130.0
623,E3,165.0,0.5,95,130.0
624,E2,165.0,0.5,95,130.0
625,F3,165.5,0.5,70,130.0
626,F2,165.5,1.0,95,130.0
627,A2,166.0,2.0,95,130.0
628,A1,166.0,2.0,95,130.0
629,D3,166.5,0.5,95,130.0
630,D2,166.5,0.5,95,130.0
631,E3,167.0,1.0,70,130.0
632,E2,167.0,1.0,95,130.0
633,A2,168.0,1.5,95,130.0
634,A1,168.0,1.5,95,130.0
635,A3,168.5,1.5,95,130.0
636,A2,168.5,1.5,95,130.0
637,A2,169.5,2.5,95,130.0
638,A1,169.5,2.5,95,130.0
639,A3,170.0,0.5,95,130.0
640,A2,170.0,0.5,95,130.0
641,B-3,170.5,0.5,70,130.0
642,B-2,170.5,0.5,95,130.0
643,A3,171.0,0.5,95,130.0
644,A2,171.0,0.5,95,130.0
645,G3,171.5,0.5,95,130.0
646,G2,171.5,0.5,95,130.0
647,D5,172.0,0.25,95,130.0
648,A2,172.0,1.5,95,130.0
649,A1,172.0,1.5,95,130.0
650,B-4,172.25,0.25,95,130.0
651,C#5,172.5,0.75,95,130.0
652,A3,172.5,1.5,95,130.0
653,A2,172.5,1.5,95,130.0
654,B-4,173.25,0.25,95,130.0
655,G4,173.5,0.25,95,130.0
656,A2,173.5,2.5,95,130.0
657,A1,173.5,2.5,95,130.0
658,B-4,173.75,0.25,95,130.0
659,A4,174.0,1.0,95,130.0
660,A3,174.0,0.5,95,130.0
661,A2,174.0,0.5,95,130.0
662,B-3,174.5,0.5,70,130.0
663,B-2,174.5,0.5,95,130.0
664,B-4,175.0,0.25,95,130.0
665,A3,175.0,0.5,95,130.0
666,A2,175.0,0.5,95,130.0
667,G4,175.25,0.25,95,130.0
668,A4,175.5,0.25,95,130.0
669,G3,175.5,0.5,95,130.0
670,G2,175.5,0.5,95,130.0
671,G4,175.75,0.25,95,130.0
672,F4,176.0,0.25,95,130.0
673,A2,176.0,1.5,95,130.0
674,A1,176.0,1.5,95,130.0
675,G4,176.25,0.25,95,130.0
676,E4,176.5,1.0,95,130.0
677,A3,176.5,1.5,95,130.0
678,A2,176.5,1.5,95,130.0
679,A5,177.5,0.25,95,130.0
680,A2,177.5,2.5,95,130.0
681,A1,177.5,2.5,95,130.0
682,F5,177.75,0.25,95,130.0
683,G5,178.0,0.25,95,130.0
684,A3,178.0,0.5,95,130.0
685,A2,178.0,0.5,95,130.0
686,A5,178.25,0.125,95,130.0
687,G5,178.375,0.125,70,130.0
688,F5,178.5,0.25,70,130.0
689,B-3,178.5,0.5,70,130.0
690,B-2,178.5,0.5,95,130.0
691,E5,178.75,0.25,95,130.0
692,F5,179.0,0.25,95,130.0
693,A3,179.0,0.5,95,130.0
694,A2,179.0,0.5,95,130.0
695,E5,179.25,0.25,95,130.0
696,D5,179.5,0.25,95,130.0
697,G3,179.5,0.5,95,130.0
698,G2,179.5,0.5,95,130.0
699,C#5,179.75,0.25,95,130.0
700,D5,180.0,0.25,95,130.0
701,A2,180.0,2.0,95,130.0
702,A1,180.0,2.0,95,130.0
703,B-5,180.25,0.25,95,130.0
704,A5,180.5,1.0,95,130.0
705,A3,180.5,0.5,95,130.0
706,A2,180.5,0.5,95,130.0
707,E3,181.0,0.5,95,130.0
708,E2,181.0,0.5,95,130.0
709,F5,181.5,0.25,95,130.0
710,F3,181.5,0.5,70,130.0
711,F2,181.5,1.0,95,130.0
712,D5,181.75,0.25,95,130.0
713,E5,182.0,1.0,95,130.0
714,A2,182.0,2.0,95,130.0
715,A1,182.0,2.0,95,130.0
716,D3,182.5,0.5,95,130.0
717,D2,182.5,0.5,95,130.0
718,E5,183.0,0.25,95,130.0
719,E3,183.0,1.0,70,130.0
720,E2,183.0,1.0,95,130.0
721,C#5,183.25,0.25,95,130.0
722,D5,183.5,0.25,95,130.0
723,C#5,183.75,0.25,95,130.0
724,B-4,184.0,0.25,95,130.0
725,A2,184.0,1.5,95,130.0
726,A1,184.0,1.5,95,130.0
727,C#5,184.25,0.25,95,130.0
728,A4,184.5,1.0,95,130.0
729,A3,184.5,1.5,95,130.0
730,A2,184.5,1.5,95,130.0
731,B-4,185.5,0.25,95,130.0
732,A2,185.5,2.5,95,130.0
733,A1,185.5,2.5,95,130.0
734,G4,185.75,0.25,95,130.0
735,A4,186.0,0.25,95,130.0
736,A3,186.0,0.5,95,130.0
737,A2,186.0,0.5,95,130.0
738,G4,186.25,0.25,95,130.0
739,F4,186.5,0.25,95,130.0
740,B-3,186.5,0.5,70,130.0
741,B-2,186.5,0.5,95,130.0
742,G4,186.75,0.25,95,130.0
743,E4,187.0,1.0,95,130.0
744,A3,187.0,0.5,95,130.0
745,A2,187.0,0.5,95,130.0
746,G3,187.5,0.5,95,130.0
747,G2,187.5,0.5,95,130.0
748,D5,188.0,0.25,95,130.0
749,A2,188.0,1.5,95,130.0
750,A1,188.0,1.5,95,130.0
751,B-4,188.25,0.25,95,130.0
752,C#5,188.5,0.75,95,130.0
753,A3,188.5,1.5,95,130.0
754,A2,188.5,1.5,95,130.0
755,B-4,189.25,0.25,95,130.0
756,G4,189.5,0.25,95,130.0
757,A2,189.5,2.5,95,130.0
758,A1,189.5,2.5,95,130.0
759,B-4,189.75,0.25,95,130.0
760,A4,190.0,1.0,95,130.0
761,A3,190.0,0.5,95,130.0
762,A2,190.0,0.5,95,130.0
763,B-3,190.5,0.5,70,130.0
764,B-2,190.5,0.5,95,130.0
765,B-5,191.0,0.25,95,130.0
766,A3,191.0,0.5,95,130.0
767,A2,191.0,0.5,95,130.0
768,G5,191.25,0.25,95,130.0
769,A5,191.5,0.25,95,130.0
770,G3,191.5,0.5,95,130.0
771,G2,191.5,0.5,95,130.0
772,G5,191.75,0.25,95,130.0
773,F5,192.0,0.25,95,130.0
774,A2,192.0,1.5,95,130.0
775,A1,192.0,1.5,95,130.0
776,G5,192.25,0.25,95,130.0
777,E5,192.5,1.0,95,130.0
778,A3,192.5,1.5,95,130.0
779,A2,192.5,1.5,95,130.0
780,D6,193.5,0.25,95,130.0
781,A2,193.5,2.5,95,130.0
782,A1,193.5,2.5,95,130.0
783,B-5,193.75,0.25,95,130.0
784,C#6,194.0,0.25,95,130.0
785,A3,194.0,0.5,95,130.0
786,A2,194.0,0.5,95,130.0
787,D6,194.25,0.125,70,130.0
788,C#6,194.375,0.125,70,130.0
789,B-5,194.5,0.25,95,130.0
790,B-3,194.5,0.5,70,130.0
791,B-2,194.5,0.5,95,130.0
792,A5,194.75,0.25,95,130.0
793,B-5,195.0,0.25,95,130.0
794,A3,195.0,0.5,95,130.0
795,A2,195.0,0.5,95,130.0
796,A5,195.25,0.25,95,130.0
797,G5,195.5,0.25,95,130.0
798,G3,195.5,0.5,95,130.0
799,G2,195.5,0.5,95,130.0
800,F5,195.75,0.25,95,130.0
801,G5,196.0,0.25,95,130.0
802,A2,196.0,2.0,95,130.0
803,A1,196.0,2.0,95,130.0
804,D6,196.25,0.25,95,130.0
805,C#6,196.5,1.0,95,130.0
806,A3,196.5,0.5,95,130.0
807,A2,196.5,0.5,95,130.0
808,E3,197.0,0.5,95,130.0
809,E2,197.0,0.5,95,130.0
810,B-5,197.5,0.25,95,130.0
811,F3,197.5,0.5,70,130.0
812,F2,197.5,1.0,95,130.0
813,G5,197.75,0.25,95,130.0
814,A5,198.0,1.0,95,130.0
815,A2,198.0,2.0,95,130.0
816,A1,198.0,2.0,95,130.0
817,D3,198.5,0.5,95,130.0
818,D2,198.5,0.5,95,130.0
819,G5,199.0,0.25,95,130.0
820,E3,199.0,1.0,70,130.0
821,E2,199.0,1.0,95,130.0
822,E5,199.25,0.25,95,130.0
823,F5,199.5,0.25,95,130.0
824,E5,199.75,0.25,95,130.0
825,D5,200.0,0.25,95,130.0
826,G2,200.0,1.5,95,130.0
827,A2,200.0,4.0,95,130.0
828,G1,200.0,1.5,95,130.0
829,E5,200.25,0.25,95,130.0
830,C#5,200.5,1.0,95,130.0
831,A3,200.5,1.5,95,130.0
832,A2,200.5,1.5,95,130.0
833,G4,201.5,0.25,95,130.0
834,G2,201.5,2.0,95,130.0
835,G1,201.5,2.5,95,130.0
836,E4,201.75,0.25,95,130.0
837,F4,202.0,0.25,95,130.0
838,A3,202.0,0.5,95,130.0
839,A2,202.0,0.5,95,130.0
840,E4,202.25,0.25,95,130.0
841,D4,202.5,0.25,95,130.0
842,B-3,202.5,0.5,95,130.0
843,B-2,202.5,0.5,95,130.0
844,E4,202.75,0.25,95,130.0
845,C#4,203.0,1.0,95,130.0
846,G3,203.0,1.0,95,130.0
847,A2,203.0,0.5,95,130.0
848,G2,203.5,0.5,95,130.0
849,G2,203.5,0.5,95,130.0
850,D5,204.0,0.25,95,130.0
851,G2,204.0,1.5,95,130.0
852,A2,204.0,4.0,95,130.0
853,G1,204.0,1.5,95,130.0
854,B-4,204.25,0.25,95,130.0
855,C#5,204.5,0.75,95,130.0
856,A3,204.5,1.5,95,130.0
857,A2,204.5,1.5,95,130.0
858,B-4,205.25,0.25,95,130.0
859,A4,205.5,0.25,95,130.0
860,G2,205.5,2.0,95,130.0
861,G1,205.5,2.5,95,130.0
862,B-4,205.75,0.25,95,130.0
863,G4,206.0,1.0,95,130.0
864,A3,206.0,0.5,95,130.0
865,A2,206.0,0.5,95,130.0
866,B-3,206.5,0.5,95,130.0
867,B-2,206.5,0.5,95,130.0
868,B-4,207.0,0.25,95,130.0
869,G3,207.0,1.0,95,130.0
870,A2,207.0,0.5,95,130.0
871,G4,207.25,0.25,95,130.0
872,A4,207.5,0.25,95,130.0
873,G2,207.5,0.5,95,130.0
874,G2,207.5,0.5,95,130.0
875,G4,207.75,0.25,95,130.0
876,F4,208.0,0.25,95,130.0
877,F2,208.0,1.5,95,130.0
878,A2,208.0,4.0,95,130.0
879,G1,208.0,1.5,95,130.0
880,G4,208.25,0.25,95,130.0
881,E4,208.5,0.25,95,130.0
882,A3,208.5,1.5,95,130.0
883,A2,208.5,1.5,95,130.0
884,F4,208.75,0.25,95,130.0
885,G4,209.0,0.25,95,130.0
886,A4,209.25,0.25,95,130.0
887,G4,209.5,1.0,95,130.0
888,F2,209.5,2.5,95,130.0
889,G1,209.5,2.5,95,130.0
890,A3,210.0,0.5,95,130.0
891,A2,210.0,0.5,95,130.0
892,A5,210.5,0.25,95,130.0
893,B-3,210.5,0.5,95,130.0
894,B-2,210.5,0.5,95,130.0
895,F5,210.75,0.25,95,130.0
896,G5,211.0,0.25,95,130.0
897,A3,211.0,0.5,95,130.0
898,A2,211.0,0.5,95,130.0
899,A5,211.25,0.125,95,130.0
900,G5,211.375,0.125,70,130.0
901,F5,211.5,0.25,70,130.0
902,G3,211.5,0.5,95,130.0
903,G2,211.5,0.5,95,130.0
904,E5,211.75,0.25,95,130.0
905,D5,212.0,0.125,95,130.0
906,E2,212.0,0.5,95,130.0
907,A2,212.0,2.0,95,130.0
908,E1,212.0,0.5,95,130.0
909,C#5,212.125,0.125,95,130.0
910,B-4,212.25,0.125,95,130.0
911,A4,212.375,0.125,95,130.0
912,G4,212.5,0.125,95,130.0
913,E2,212.5,1.5,95,130.0
914,E1,212.5,1.5,95,130.0
915,F4,212.625,0.125,95,130.0
916,E4,212.75,0.125,95,130.0
917,D4,212.875,0.125,95,130.0
918,A4,213.0,1.0,95,130.0
919,E3,213.0,0.5,95,130.0
920,E2,213.0,0.5,95,130.0
921,F3,213.5,0.5,95,130.0
922,F2,213.5,0.5,95,130.0
923,F5,214.0,0.25,95,130.0
924,E2,214.0,2.0,95,130.0
925,E1,214.0,2.0,95,130.0
926,D5,214.25,0.25,95,130.0
927,E5,214.5,0.25,95,130.0
928,D3,214.5,0.5,95,130.0
929,D2,214.5,0.5,95,130.0
930,F5,214.75,0.25,95,130.0
931,E5,215.0,0.25,95,130.0
932,E3,215.0,1.0,95,130.0
933,E2,215.0,1.0,95,130.0
934,D5,215.25,0.25,95,130.0
935,C#5,215.5,0.25,95,130.0
936,B-4,215.75,0.25,95,130.0
937,A4,216.0,0.25,95,130.0
938,A2,216.0,1.5,95,130.0
939,A1,216.0,1.5,95,130.0
940,G4,216.25,0.25,95,130.0
941,F4,216.5,0.25,95,130.0
942,A3,216.5,1.5,95,130.0
943,A2,216.5,1.5,95,130.0
944,E4,216.75,0.25,95,130.0
945,D4,217.0,0.25,95,130.0
946,C#4,217.25,0.25,95,130.0
947,C#5,217.5,0.25,95,130.0
948,A2,217.5,2.5,95,130.0
949,A1,217.5,2.5,95,130.0
950,C5,217.75,0.25,95,130.0
951,B-4,218.0,0.25,95,130.0
952,A3,218.0,0.5,95,130.0
953,A2,218.0,0.5,95,130.0
954,A4,218.25,0.25,95,130.0
955,E5,218.5,0.25,95,130.0
956,B-3,218.5,0.5,95,130.0
957,B-2,218.5,0.5,95,130.0
958,C#5,218.75,0.25,95,130.0
959,A5,219.0,1.0,95,130.0
960,A3,219.0,0.5,95,130.0
961,A2,219.0,0.5,95,130.0
962,G3,219.5,0.5,95,130.0
963,G2,219.5,0.5,95,130.0
964,D5,220.0,0.25,95,130.0
965,A2,220.0,1.5,95,130.0
966,A1,220.0,1.5,95,130.0
967,B-4,220.25,0.25,95,130.0
968,C#5,220.5,0.75,95,130.0
969,A3,220.5,1.5,95,130.0
970,A2,220.5,1.5,95,130.0
971,B-4,221.25,0.25,95,130.0
972,G4,221.5,0.25,95,130.0
973,A2,221.5,2.5,95,130.0
974,A1,221.5,2.5,95,130.0
975,B-4,221.75,0.25,95,130.0
976,A4,222.0,1.0,95,130.0
977,A3,222.0,0.5,95,130.0
978,A2,222.0,0.5,95,130.0
979,B-3,222.5,0.5,95,130.0
980,B-2,222.5,0.5,95,130.0
981,B-4,223.0,0.25,95,130.0
982,A3,223.0,0.5,95,130.0
983,A2,223.0,0.5,95,130.0
984,G4,223.25,0.25,95,130.0
985,A4,223.5,0.25,95,130.0
986,G3,223.5,0.5,95,130.0
987,G2,223.5,0.5,95,130.0
988,G4,223.75,0.25,95,130.0
989,F4,224.0,0.25,95,130.0
990,A2,224.0,1.5,95,130.0
991,A1,224.0,1.5,95,130.0
992,G4,224.25,0.25,95,130.0
993,E4,224.5,1.0,95,130.0
994,A3,224.5,1.5,95,130.0
995,A2,224.5,1.5,95,130.0
996,A5,225.5,0.25,95,130.0
997,A2,225.5,2.5,95,130.0
998,A1,225.5,2.5,95,130.0
999,F5,225.75,0.25,95,130.0
1000,G5,226.0,0.25,95,130.0
1001,A3,226.0,0.5,95,130.0
1002,A2,226.0,0.5,95,130.0
1003,A5,226.25,0.125,95,130.0
1004,G5,226.375,0.125,70,130.0
1005,F5,226.5,0.25,70,130.0
1006,B-3,226.5,0.5,95,130.0
1007,B-2,226.5,0.5,95,130.0
1008,E5,226.75,0.25,95,130.0
1009,F5,227.0,0.25,95,130.0
1010,A3,227.0,0.5,95,130.0
1011,A2,227.0,0.5,95,130.0
1012,E5,227.25,0.25,95,130.0
1013,D5,227.5,0.25,95,130.0
1014,G3,227.5,0.5,95,130.0
1015,G2,227.5,0.5,95,130.0
1016,C#5,227.75,0.25,95,130.0
1017,D5,228.0,0.25,95,130.0
1018,A2,228.0,2.0,95,130.0
1019,A1,228.0,1.5,95,130.0
1020,B-5,228.25,0.25,95,130.0
1021,A5,228.5,1.0,95,130.0
1022,A3,228.5,0.5,95,130.0
1023,A2,228.5,1.5,95,130.0
1024,E3,229.0,0.5,95,130.0
1025,F5,229.5,0.25,95,130.0
1026,F3,229.5,0.5,95,130.0
1027,A1,229.5,2.5,95,130.0
1028,D5,229.75,0.25,95,130.0
1029,E5,230.0,1.0,95,130.0
1030,A2,230.0,2.0,95,130.0
1031,A2,230.0,0.5,95,130.0
1032,D3,230.5,0.5,95,130.0
1033,B-2,230.5,0.5,95,130.0
1034,E5,231.0,0.25,95,130.0
1035,E3,231.0,1.0,95,130.0
1036,A2,231.0,0.5,95,130.0
1037,C#5,231.25,0.25,95,130.0
1038,D5,231.5,0.25,95,130.0
1039,G2,231.5,0.5,95,130.0
1040,C#5,231.75,0.25,95,130.0
1041,B-4,232.0,0.25,95,130.0
1042,A2,232.0,1.5,95,130.0
1043,A1,232.0,1.5,95,130.0
1044,C#5,232.25,0.25,95,130.0
1045,A4,232.5,1.0,95,130.0
1046,A3,232.5,1.5,95,130.0
1047,A2,232.5,1.5,95,130.0
1048,B-4,233.5,0.25,95,130.0
1049,A2,233.5,2.5,95,130.0
1050,A1,233.5,2.5,95,130.0
1051,G4,233.75,0.25,95,130.0
1052,A4,234.0,0.25,95,130.0
1053,A3,234.0,0.5,95,130.0
1054,A2,234.0,0.5,95,130.0
1055,G4,234.25,0.25,95,130.0
1056,F4,234.5,0.25,95,130.0
1057,B-3,234.5,0.5,95,130.0
1058,B-2,234.5,0.5,95,130.0
1059,G4,234.75,0.25,95,130.0
1060,E4,235.0,1.0,95,130.0
1061,A3,235.0,0.5,95,130.0
1062,A2,235.0,0.5,95,130.0
1063,G3,235.5,0.5,95,130.0
1064,G2,235.5,0.5,95,130.0
1065,D5,236.0,0.25,95,130.0
1066,A2,236.0,1.5,95,130.0
1067,A1,236.0,1.5,95,130.0
1068,B-4,236.25,0.25,95,130.0
1069,C#5,236.5,0.75,95,130.0
1070,A3,236.5,1.5,95,130.0
1071,A2,236.5,1.5,95,130.0
1072,B-4,237.25,0.25,95,130.0
1073,G4,237.5,0.25,95,130.0
1074,A2,237.5,2.5,95,130.0
1075,A1,237.5,2.5,95,130.0
1076,B-4,237.75,0.25,95,130.0
1077,A4,238.0,1.0,95,130.0
1078,A3,238.0,0.5,95,130.0
1079,A2,238.0,0.5,95,130.0
1080,B-3,238.5,0.5,95,130.0
1081,B-2,238.5,0.5,95,130.0
1082,B-5,239.0,0.25,95,130.0
1083,A3,239.0,0.5,95,130.0
1084,A2,239.0,0.5,95,130.0
1085,G5,239.25,0.25,95,130.0
1086,A5,239.5,0.25,95,130.0
1087,G3,239.5,0.5,95,130.0
1088,G2,239.5,0.5,95,130.0
1089,G5,239.75,0.25,95,130.0
1090,F5,240.0,0.25,95,130.0
1091,A2,240.0,1.5,95,130.0
1092,A1,240.0,1.5,95,130.0
1093,G5,240.25,0.25,95,130.0
1094,E5,240.5,1.0,95,130.0
1095,A3,240.5,1.5,95,130.0
1096,A2,240.5,1.5,95,130.0
1097,D6,241.5,0.25,95,130.0
1098,A2,241.5,2.5,95,130.0
1099,A1,241.5,2.5,95,130.0
1100,B-5,241.75,0.25,95,130.0
1101,C#6,242.0,0.25,95,130.0
1102,A3,242.0,0.5,95,130.0
1103,A2,242.0,0.5,95,130.0
1104,D6,242.25,0.125,70,130.0
1105,C#6,242.375,0.125,70,130.0
1106,B-5,242.5,0.25,95,130.0
1107,B-3,242.5,0.5,95,130.0
1108,B-2,242.5,0.5,95,130.0
1109,A5,242.75,0.25,95,130.0
1110,B-5,243.0,0.25,95,130.0
1111,A3,243.0,0.5,95,130.0
1112,A2,243.0,0.5,95,130.0
1113,A5,243.25,0.25,95,130.0
1114,G5,243.5,0.25,95,130.0
1115,G3,243.5,0.5,95,130.0
1116,G2,243.5,0.5,95,130.0
1117,F5,243.75,0.25,95,130.0
1118,G5,244.0,0.25,95,130.0
1119,A2,244.0,2.0,95,130.0
1120,A1,244.0,1.5,95,130.0
1121,D6,244.25,0.25,95,130.0
1122,C#6,244.5,1.0,95,130.0
1123,A3,244.5,0.5,95,130.0
1124,A2,244.5,1.5,95,130.0
1125,E3,245.0,0.5,95,130.0
1126,B-5,245.5,0.25,95,130.0
1127,F3,245.5,0.5,95,130.0
1128,A1,245.5,2.5,95,130.0
1129,G5,245.75,0.25,95,130.0
1130,A5,246.0,1.0,95,130.0
1131,A2,246.0,2.0,95,130.0
1132,A2,246.0,0.5,95,130.0
1133,D3,246.5,0.5,95,130.0
1134,B-2,246.5,0.5,95,130.0
1135,G5,247.0,0.25,95,130.0
1136,E3,247.0,1.0,95,130.0
1137,A2,247.0,0.5,95,130.0
1138,E5,247.25,0.25,95,130.0
1139,F5,247.5,0.25,95,130.0
1140,G2,247.5,0.5,95,130.0
1141,E5,247.75,0.25,95,130.0
1142,D5,248.0,0.25,95,130.0
1143,G2,248.0,1.5,95,130.0
1144,A2,248.0,4.0,95,130.0
1145,G1,248.0,1.5,95,130.0
1146,E5,248.25,0.25,95,130.0
1147,C#5,248.5,1.0,95,130.0
1148,A3,248.5,1.5,95,130.0
1149,A2,248.5,1.5,95,130.0
1150,G4,249.5,0.25,95,130.0
1151,G2,249.5,2.0,95,130.0
1152,G1,249.5,2.5,95,130.0
1153,E4,249.75,0.25,95,130.0
1154,F4,250.0,0.25,95,130.0
1155,A3,250.0,0.5,95,130.0
1156,A2,250.0,0.5,95,130.0
1157,E4,250.25,0.25,95,130.0
1158,D4,250.5,0.25,95,130.0
1159,B-3,250.5,0.5,95,130.0
1160,B-2,250.5,0.5,95,130.0
1161,E4,250.75,0.25,95,130.0
1162,C#4,251.0,1.0,95,130.0
1163,G3,251.0,1.0,95,130.0
1164,A2,251.0,0.5,95,130.0
1165,G2,251.5,0.5,95,130.0
1166,G2,251.5,0.5,95,130.0
1167,D5,252.0,0.25,95,130.0
1168,G2,252.0,1.5,95,130.0
1169,A2,252.0,4.0,95,130.0
1170,G1,252.0,1.5,95,130.0
1171,B-4,252.25,0.25,95,130.0
1172,C#5,252.5,0.75,95,130.0
1173,A3,252.5,1.5,95,130.0
1174,A2,252.5,1.5,95,130.0
1175,B-4,253.25,0.25,95,130.0
1176,A4,253.5,0.25,95,130.0
1177,G2,253.5,2.0,95,130.0
1178,G1,253.5,2.5,95,130.0
1179,B-4,253.75,0.25,95,130.0
1180,G4,254.0,1.0,95,130.0
1181,A3,254.0,0.5,95,130.0
1182,A2,254.0,0.5,95,130.0
1183,B-3,254.5,0.5,95,130.0
1184,B-2,254.5,0.5,95,130.0
1185,B-4,255.0,0.25,95,130.0
1186,G3,255.0,1.0,95,130.0
1187,A2,255.0,0.5,95,130.0
1188,G4,255.25,0.25,95,130.0
1189,A4,255.5,0.25,95,130.0
1190,G2,255.5,0.5,95,130.0
1191,G2,255.5,0.5,95,130.0
1192,G4,255.75,0.25,95,130.0
1193,F4,256.0,0.25,95,130.0
1194,F2,256.0,1.5,95,130.0
1195,A2,256.0,4.0,95,130.0
1196,G1,256.0,1.5,95,130.0
1197,G4,256.25,0.25,95,130.0
1198,E4,256.5,0.25,95,130.0
1199,A3,256.5,1.5,95,130.0
1200,A2,256.5,1.5,95,130.0
1201,F4,256.75,0.25,95,130.0
1202,G4,257.0,0.25,95,130.0
1203,A4,257.25,0.25,95,130.0
1204,G4,257.5,1.0,95,130.0
1205,F2,257.5,2.5,95,130.0
1206,G1,257.5,2.5,95,130.0
1207,A3,258.0,0.5,95,130.0
1208,A2,258.0,0.5,95,130.0
1209,A5,258.5,0.25,95,130.0
1210,B-3,258.5,0.5,95,130.0
1211,B-2,258.5,0.5,95,130.0
1212,F5,258.75,0.25,95,130.0
1213,G5,259.0,0.25,95,130.0
1214,A3,259.0,0.5,95,130.0
1215,A2,259.0,0.5,95,130.0
1216,A5,259.25,0.125,95,130.0
1217,G5,259.375,0.125,70,130.0
1218,F5,259.5,0.25,70,130.0
1219,G3,259.5,0.5,95,130.0
1220,G2,259.5,0.5,95,130.0
1221,E5,259.75,0.25,95,130.0
1222,D5,260.0,0.125,95,130.0
1223,E2,260.0,0.5,95,130.0
1224,A2,260.0,2.0,95,130.0
1225,E1,260.0,0.5,95,130.0
1226,C#5,260.125,0.125,95,130.0
1227,B-4,260.25,0.125,95,130.0
1228,A4,260.375,0.125,95,130.0
1229,G4,260.5,0.125,95,130.0
1230,E2,260.5,1.5,95,130.0
1231,E1,260.5,1.5,95,130.0
1232,F4,260.625,0.125,95,130.0
1233,E4,260.75,0.125,95,130.0
1234,D4,260.875,0.125,95,130.0
1235,A4,261.0,1.0,95,130.0
1236,E3,261.0,0.5,95,130.0
1237,E2,261.0,0.5,95,130.0
1238,F3,261.5,0.5,95,130.0
1239,F2,261.5,0.5,95,130.0
1240,F5,262.0,0.25,95,130.0
1241,E2,262.0,2.0,95,130.0
1242,E1,262.0,2.0,95,130.0
1243,D5,262.25,0.25,95,130.0
1244,E5,262.5,0.25,95,130.0
1245,D3,262.5,0.5,95,130.0
1246,D2,262.5,0.5,95,130.0
1247,F5,262.75,0.25,95,130.0
1248,E5,263.0,0.25,95,130.0
1249,E3,263.0,1.0,95,130.0
1250,E2,263.0,1.0,95,130.0
1251,D5,263.25,0.25,95,130.0
1252,C#5,263.5,0.25,95,130.0
1253,C5,263.75,0.25,95,130.0
1254,B-4,264.0,0.25,95,130.0
1255,G2,264.0,0.5,95,130.0
1256,G1,264.0,0.5,95,130.0
1257,A4,264.25,0.25,95,130.0
1258,G4,264.5,0.25,95,130.0
1259,A2,264.5,0.5,95,130.0
1260,A1,264.5,0.5,95,130.0
1261,F4,264.75,0.25,95,130.0
1262,E4,265.0,0.25,95,130.0
1263,D4,265.0,0.5,95,130.0
1264,B-2,265.0,0.5,95,130.0
1265,B-1,265.0,0.5,95,130.0
1266,D4,265.25,0.25,95,130.0
1267,C#5,265.5,0.25,95,130.0
1268,E4,265.5,0.5,95,130.0
1269,D3,265.5,0.5,95,130.0
1270,D2,265.5,0.5,95,130.0
1271,C5,265.75,0.25,95,130.0
1272,B-4,266.0,0.25,95,130.0
1273,C#3,266.0,0.5,95,130.0
1274,C#2,266.0,0.5,95,130.0
1275,A4,266.25,0.25,95,130.0
1276,E5,266.5,0.25,95,130.0
1277,D5,266.5,1.5,95,130.0
1278,A2,266.5,0.5,95,130.0
1279,A1,266.5,0.5,95,130.0
1280,C#5,266.75,0.25,95,130.0
1281,A5,267.0,1.0,95,130.0
1282,E4,267.5,0.5,95,130.0
1283,D5,268.0,4.0,95,130.0
1284,E4,268.0,4.0,95,130.0
1285,B3,268.0,67/1000,95,130.0
1286,G3,268.0,67/1000,95,130.0
1287,D3,268.0,67/1000,95,130.0
1288,A2,268.0,67/1000,95,130.0
1289,G2,268.5,0.5,95,130.0
1290,G1,268.5,0.5,95,130.0
1291,A2,269.0,0.5,95,130.0
1292,A1,269.0,0.5,95,130.0
1293,B-2,269.5,0.5,95,130.0
1294,B-1,269.5,0.5,95,130.0
1295,D3,270.0,0.5,95,130.0
1296,D2,270.0,0.5,95,130.0
1297,C#3,270.5,0.5,95,130.0
1298,C#2,270.5,0.5,95,130.0
1299,F3,271.0,0.5,95,130.0
1300,F2,271.0,0.5,95,130.0
1301,E3,271.5,0.5,95,130.0
1302,E2,271.5,0.5,95,130.0
1303,E3,272.0,0.5,95,130.0
1304,E2,272.0,0.5,95,130.0
1305,G2,272.5,0.5,95,130.0
1306,G1,272.5,0.5,95,130.0
1307,D4,273.0,0.5,95,130.0
1308,B-2,273.0,0.5,95,130.0
1309,B-1,273.0,0.5,95,130.0
1310,E4,273.5,1.0,95,130.0
1311,D3,273.5,0.5,95,130.0
1312,D2,273.5,0.5,95,130.0
1313,C#3,274.0,0.5,95,130.0
1314,C#2,274.0,0.5,95,130.0
1315,D5,274.5,1.5,95,130.0
1316,A2,274.5,0.5,95,130.0
1317,A1,274.5,0.5,95,130.0
1318,A2,275.5,0.5,95,130.0
1319,A1,275.5,0.5,95,130.0
1320,D5,276.0,2.0,95,130.0
1321,B-2,276.0,0.5,95,130.0
1322,B-1,276.0,0.5,95,130.0
1323,G2,276.5,0.5,95,130.0
1324,G1,276.5,0.5,95,130.0
1325,F2,277.5,0.5,95,130.0
1326,F1,277.5,0.5,95,130.0
1327,F5,278.0,1.0,63,130.0
1328,G2,278.0,0.5,95,130.0
1329,G1,278.0,0.5,95,130.0
1330,E2,278.5,0.5,95,130.0
1331,E1,278.5,0.5,95,130.0
1332,F5,279.0,1.0,63,130.0
1333,B2,279.5,0.5,95,130.0
1334,E2,279.5,0.5,95,130.0
1335,F2,280.0,0.5,95,130.0
1336,F2,280.0,0.5,95,130.0
1337,F2,280.0,0.5,95,130.0
1338,C3,280.5,69/500,95,130.0
1339,C3,280.5,0.5,95,130.0
1340,C2,280.5,0.5,95,130.0
1341,F3,281.0,69/500,95,130.0
1342,F3,281.0,1.5,95,130.0
1343,F2,281.0,0.5,95,130.0
1344,A3,281.5,0.5,95,130.0
1345,A2,281.5,0.5,95,130.0
1346,B3,282.0,0.5,95,130.0
1347,B2,282.0,0.5,95,130.0
1348,D3,282.5,69/500,95,130.0
1349,G2,282.5,0.5,95,130.0
1350,D2,282.5,0.5,95,130.0
1351,G3,283.0,69/500,95,130.0
1352,D3,283.0,1.0,95,130.0
1353,G2,283.0,0.5,95,130.0
1354,B3,283.5,0.5,95,130.0
1355,B2,283.5,0.5,95,130.0
1356,B5,284.0,2.0,95,130.0
1357,C4,284.0,0.5,95,130.0
1358,D3,284.0,0.5,95,130.0
1359,C3,284.0,0.5,95,130.0
1360,E3,284.5,0.5,95,130.0
1361,A2,284.5,0.5,95,130.0
1362,E2,284.5,0.5,95,130.0
1363,A3,285.0,0.5,95,130.0
1364,E3,285.0,1.5,95,130.0
1365,A2,285.0,0.5,95,130.0
1366,C4,285.5,0.5,95,130.0
1367,C3,285.5,0.5,95,130.0
1368,B5,286.0,1.5,95,130.0
1369,B3,286.0,0.125,95,130.0
1370,B2,286.0,0.125,95,130.0
1371,C4,286.125,0.125,70,130.0
1372,C3,286.125,0.125,95,130.0
1373,B3,286.25,0.125,70,130.0
1374,B2,286.25,0.125,95,130.0
1375,G3,286.375,0.5,95,130.0
1376,G2,286.375,0.5,95,130.0
1377,G2,286.5,0.5,95,130.0
1378,D3,286.875,0.5,95,130.0
1379,E1,286.875,0.5,95,130.0
1380,D3,287.0,0.5,95,130.0
1381,F3,287.375,0.625,95,130.0
1382,F2,287.375,0.625,95,130.0
1383,A5,287.5,0.5,95,130.0
1384,F2,287.5,0.5,95,130.0
1385,F3,288.0,0.5,95,130.0
1386,F2,288.0,0.5,95,130.0
1387,C3,288.5,69/500,95,130.0
1388,C3,288.5,0.5,95,130.0
1389,C2,288.5,0.5,95,130.0
1390,F3,289.0,69/500,95,130.0
1391,F3,289.0,1.5,95,130.0
1392,F2,289.0,0.5,95,130.0
1393,E5,289.5,1.5,95,130.0
1394,A3,289.5,0.5,95,130.0
1395,A2,289.5,0.5,95,130.0
1396,B3,290.0,0.5,95,130.0
1397,B2,290.0,0.5,95,130.0
1398,D3,290.5,0.5,95,130.0
1399,D2,290.5,0.5,95,130.0
1400,G2,290.5,1.5,63,130.0
1401,G3,290.5,1.5,63,130.0
1402,C4,291.0,0.5,95,130.0
1403,C3,291.0,0.5,95,130.0
1404,D5,291.375,0.25,95,130.0
1405,B3,291.5,0.5,95,130.0
1406,B2,291.5,0.5,95,130.0
1407,E5,291.625,0.25,95,130.0
1408,F5,291.875,0.125,95,130.0
1409,F5,292.0,0.375,95,130.0
1410,A2,292.0,1.5,95,130.0
1411,A1,292.0,1.5,95,130.0
1412,A3,292.0,1.5,95,130.0
1413,E3,292.0,1.5,95,130.0
1414,A2,292.0,1.5,95,130.0
1415,A3,292.0,1.0,95,130.0
1416,E3,292.0,1.0,95,130.0
1417,E5,292.375,1.625,95,130.0
1418,G1,293.5,1.0,95,130.0
1419,G3,293.5,1.0,95,130.0
1420,D3,293.5,1.0,95,130.0
1421,G2,293.5,1.0,95,130.0
1422,G3,293.5,1.0,95,130.0
1423,D3,293.5,1.0,95,130.0
1424,G2,293.5,1.0,95,130.0
1425,D5,294.0,0.5,95,130.0
1426,D5,294.5,0.25,95,130.0
1427,E1,294.5,1.0,95,130.0
1428,E3,294.5,1.0,95,130.0
1429,B2,294.5,1.0,95,130.0
1430,E2,294.5,1.0,95,130.0
1431,E3,294.5,1.0,95,130.0
1432,B2,294.5,1.0,95,130.0
1433,E2,294.5,1.0,95,130.0
1434,E5,294.75,0.125,95,130.0
1435,D5,294.875,0.125,70,130.0
1436,C5,295.0,1.0,95,130.0
1437,F1,295.5,0.5,95,130.0
1438,F3,295.5,0.5,95,130.0
1439,C3,295.5,0.5,95,130.0
1440,F2,295.5,0.5,95,130.0
1441,F3,295.5,0.5,95,130.0
1442,C3,295.5,0.5,95,130.0
1443,F2,295.5,0.5,95,130.0
1444,C5,296.0,4.0,95,130.0
1445,F1,296.0,0.5,95,130.0
1446,F3,296.0,0.5,95,130.0
1447,C3,296.0,0.5,95,130.0
1448,F2,296.0,0.5,95,130.0
1449,C3,296.5,0.5,95,130.0
1450,C2,296.5,0.5,95,130.0
1451,F3,296.5,0.5,95,130.0
1452,C3,296.5,0.5,95,130.0
1453,F2,296.5,0.5,95,130.0
1454,C3,297.0,69/500,95,130.0
1455,F3,297.0,1.5,95,130.0
1456,F2,297.0,0.5,95,130.0
1457,F3,297.5,69/500,95,130.0
1458,A2,297.5,0.5,95,130.0
1459,A3,298.0,0.5,95,130.0
1460,B2,298.0,0.5,95,130.0
1461,B3,298.5,0.5,95,130.0
1462,G2,298.5,0.5,95,130.0
1463,D2,298.5,0.5,95,130.0
1464,D3,299.0,69/500,95,130.0
1465,D3,299.0,1.0,95,130.0
1466,G2,299.0,0.5,95,130.0
1467,G3,299.5,69/500,95,130.0
1468,B2,299.5,0.5,95,130.0
1469,B5,300.0,2.0,95,130.0
1470,B3,300.0,0.5,95,130.0
1471,D3,300.0,0.5,95,130.0
1472,C3,300.0,0.5,95,130.0
1473,C4,300.5,0.5,95,130.0
1474,A2,300.5,0.5,95,130.0
1475,E2,300.5,0.5,95,130.0
1476,E3,301.0,0.5,95,130.0
1477,E3,301.0,1.5,95,130.0
1478,A2,301.0,0.5,95,130.0
1479,A3,301.5,0.5,95,130.0
1480,C3,301.5,0.5,95,130.0
1481,B5,302.0,1.5,95,130.0
1482,C4,302.0,0.5,95,130.0
1483,D3,302.0,0.5,95,130.0
1484,D4,302.5,0.5,95,130.0
1485,G2,302.5,0.5,95,130.0
1486,G2,302.5,0.5,95,130.0
1487,G3,303.0,0.5,95,130.0
1488,D3,303.0,0.5,95,130.0
1489,D2,303.0,0.5,95,130.0
1490,C6,303.5,0.5,95,130.0
1491,D3,303.5,0.5,95,130.0
1492,F2,303.5,0.5,95,130.0
1493,F2,303.5,0.5,95,130.0
1494,F3,304.0,0.5,95,130.0
1495,F2,304.0,0.5,95,130.0
1496,F2,304.0,0.5,95,130.0
1497,F3,304.5,0.5,95,130.0
1498,C3,304.5,0.5,95,130.0
1499,C2,304.5,0.5,95,130.0
1500,C3,305.0,69/500,95,130.0
1501,F3,305.0,1.5,95,130.0
1502,F2,305.0,0.5,95,130.0
1503,C6,305.5,0.25,95,130.0
1504,F3,305.5,69/500,95,130.0
1505,C3,305.5,0.5,95,130.0
1506,B5,305.75,0.25,95,130.0
1507,A5,306.0,2.0,95,130.0
1508,C4,306.0,0.5,95,130.0
1509,B2,306.0,0.5,95,130.0
1510,B3,306.5,0.5,95,130.0
1511,E2,306.5,0.5,95,130.0
1512,B1,306.5,0.5,95,130.0
1513,B2,307.0,69/500,95,130.0
1514,G2,307.0,0.5,95,130.0
1515,G2,307.0,0.5,95,130.0
1516,G3,307.5,0.5,95,130.0
1517,B2,307.5,0.5,95,130.0
1518,B2,307.5,0.5,95,130.0
1519,B5,308.0,1.0,95,130.0
1520,B3,308.0,0.5,95,130.0
1521,A2,308.0,1.0,95,130.0
1522,A3,308.0,1.5,95,130.0
1523,E3,308.0,1.5,95,130.0
1524,A2,308.0,1.5,95,130.0
1525,A3,308.5,1.0,95,130.0
1526,E3,308.5,1.0,95,130.0
1527,A2,308.5,1.0,95,130.0
1528,A5,309.0,0.5,95,130.0
1529,G5,309.5,0.5,95,130.0
1530,B3,309.5,0.5,95,130.0
1531,B2,309.5,0.5,95,130.0
1532,F5,310.0,0.5,95,130.0
1533,B3,310.0,0.5,95,130.0
1534,E5,310.5,0.5,95,130.0
1535,C4,310.5,0.5,95,130.0
1536,C3,310.5,0.5,95,130.0
1537,F5,311.0,0.5,95,130.0
1538,C4,311.0,0.5,95,130.0
1539,E5,311.5,0.125,95,130.0
1540,F2,311.5,0.5,95,130.0
1541,F2,311.5,0.5,95,130.0
1542,F5,311.625,0.125,70,130.0
1543,E5,311.75,0.25,95,130.0
1544,E5,312.0,2.0,95,130.0
1545,F3,312.0,0.5,95,130.0
1546,F2,312.0,0.5,95,130.0
1547,F2,312.0,0.5,95,130.0
1548,F3,312.5,0.5,95,130.0
1549,C3,312.5,0.5,95,130.0
1550,C2,312.5,0.5,95,130.0
1551,C3,313.0,69/500,95,130.0
1552,F3,313.0,1.5,95,130.0
1553,F2,313.0,0.5,95,130.0
1554,F3,313.5,69/500,95,130.0
1555,A2,313.5,0.5,95,130.0
1556,C5,314.0,0.125,95,130.0
1557,A3,314.0,0.5,95,130.0
1558,B2,314.0,0.5,95,130.0
1559,D5,314.125,0.125,95,130.0
1560,E5,314.25,0.125,95,130.0
1561,F5,314.375,0.125,95,130.0
1562,G5,314.5,0.125,95,130.0
1563,B3,314.5,0.5,95,130.0
1564,G2,314.5,0.5,95,130.0
1565,D2,314.5,0.5,95,130.0
1566,A5,314.625,0.125,95,130.0
1567,G5,314.75,0.125,95,130.0
1568,A5,314.875,0.125,95,130.0
1569,B5,315.0,0.125,95,130.0
1570,D3,315.0,69/500,95,130.0
1571,D3,315.0,1.0,95,130.0
1572,G2,315.0,0.5,95,130.0
1573,G5,315.125,0.125,95,130.0
1574,A5,315.25,0.25,95,130.0
1575,B5,315.5,0.5,95,130.0
1576,G3,315.5,69/500,95,130.0
1577,B2,315.5,0.5,95,130.0
1578,B5,316.0,2.0,95,130.0
1579,B3,316.0,0.5,95,130.0
1580,D3,316.0,0.5,95,130.0
1581,C3,316.0,0.5,95,130.0
1582,C4,316.5,0.5,95,130.0
1583,A2,316.5,0.5,95,130.0
1584,E2,316.5,0.5,95,130.0
1585,E3,317.0,0.5,95,130.0
1586,E3,317.0,1.5,95,130.0
1587,A2,317.0,0.5,95,130.0
1588,A3,317.5,0.5,95,130.0
1589,C3,317.5,0.5,95,130.0
1590,B5,318.0,2.0,95,130.0
1591,C4,318.0,0.5,95,130.0
1592,D3,318.0,0.5,95,130.0
1593,D4,318.5,0.5,95,130.0
1594,B2,318.5,0.5,95,130.0
1595,G2,318.5,0.5,95,130.0
1596,G3,319.0,0.5,95,130.0
1597,G3,319.0,1.0,95,130.0
1598,B2,319.0,0.5,95,130.0
1599,B3,319.5,0.5,95,130.0
1600,D3,319.5,0.5,95,130.0
1601,C6,320.0,2.0,95,130.0
1602,D4,320.0,0.5,95,130.0
1603,G3,320.0,0.5,95,130.0
1604,G4,320.5,0.5,95,130.0
1605,D3,320.5,0.25,95,130.0
1606,D3,320.75,0.25,95,130.0
1607,D4,321.0,0.25,95,130.0
1608,F3,321.0,0.5,95,130.0
1609,D4,321.25,0.25,95,130.0
1610,F4,321.5,0.5,95,130.0
1611,E3,321.5,1.0,95,130.0
1612,D6,322.0,2.0,95,130.0
1613,E4,322.0,1.0,95,130.0
1614,C3,322.5,0.5,95,130.0
1615,C2,322.5,0.5,95,130.0
1616,C3,323.0,0.5,95,130.0
1617,E3,323.0,0.5,95,130.0
1618,E2,323.0,0.5,95,130.0
1619,E3,323.5,0.5,95,130.0
1620,G3,323.5,0.5,95,130.0
1621,G2,323.5,0.5,95,130.0
1622,G3,324.0,0.5,95,130.0
1623,G3,324.0,2.0,95,130.0
1624,C3,324.0,0.5,95,130.0
1625,C4,324.5,0.5,95,130.0
1626,D3,324.5,0.5,95,130.0
1627,D6,325.0,0.5,95,130.0
1628,D4,325.0,0.5,95,130.0
1629,E3,325.0,0.5,95,130.0
1630,D6,325.5,2.5,95,130.0
1631,E4,325.5,0.5,95,130.0
1632,F3,325.5,0.5,95,130.0
1633,F4,326.0,0.5,95,130.0
1634,D2,326.0,0.5,95,130.0
1635,D3,326.5,0.5,95,130.0
1636,A3,326.5,1.5,95,130.0
1637,A2,326.5,0.5,95,130.0
1638,A3,327.0,0.5,95,130.0
1639,E3,327.0,0.5,95,130.0
1640,E4,327.5,0.5,95,130.0
1641,F3,327.5,0.5,95,130.0
1642,C6,328.0,0.5,95,130.0
1643,F4,328.0,0.5,95,130.0
1644,B-1,328.0,0.5,95,130.0
1645,D6,328.5,0.5,95,130.0
1646,B-2,328.5,0.5,95,130.0
1647,F3,328.5,1.5,95,130.0
1648,G2,328.5,0.5,95,130.0
1649,E6,329.0,1.0,95,130.0
1650,G3,329.0,0.5,95,130.0
1651,D3,329.0,0.5,95,130.0
1652,D4,329.5,0.5,95,130.0
1653,E3,329.5,0.5,95,130.0
1654,E6,330.0,2.0,95,130.0
1655,E4,330.0,0.5,95,130.0
1656,C2,330.0,0.5,95,130.0
1657,C3,330.5,0.5,95,130.0
1658,G3,330.5,1.5,95,130.0
1659,G2,330.5,0.5,95,130.0
1660,G3,331.0,0.5,95,130.0
1661,E3,331.0,0.5,95,130.0
1662,E4,331.5,0.5,95,130.0
1663,C3,331.5,0.5,95,130.0
1664,C4,332.0,0.5,95,130.0
1665,A1,332.0,0.5,95,130.0
1666,A2,332.5,0.5,95,130.0
1667,E3,332.5,1.5,95,130.0
1668,F2,332.5,0.5,95,130.0
1669,F3,333.0,0.5,95,130.0
1670,C3,333.0,0.5,95,130.0
1671,C4,333.5,0.5,95,130.0
1672,D3,333.5,0.5,95,130.0
1673,E6,334.0,2.0,95,130.0
1674,D4,334.0,0.5,95,130.0
1675,B-1,334.0,0.5,95,130.0
1676,B-2,334.5,0.5,95,130.0
1677,F3,334.5,1.5,95,130.0
1678,F2,334.5,0.5,95,130.0
1679,F3,335.0,0.5,95,130.0
1680,D3,335.0,0.5,95,130.0
1681,D4,335.5,0.5,95,130.0
1682,B-2,335.5,0.5,95,130.0
1683,B-3,336.0,0.5,95,130.0
1684,G1,336.0,0.5,95,130.0
1685,G2,336.5,0.5,95,130.0
1686,D3,336.5,1.5,95,130.0
1687,E1,336.5,0.5,95,130.0
1688,E2,337.0,0.5,95,130.0
1689,B-2,337.0,0.5,95,130.0
1690,D6,337.5,0.5,95,130.0
1691,B-3,337.5,0.5,95,130.0
1692,A2,337.5,0.5,95,130.0
1693,D6,338.0,2.0,95,130.0
1694,A3,338.0,0.5,95,130.0
1695,F2,338.0,0.5,95,130.0
1696,F2,338.0,0.5,95,130.0
1697,F3,338.5,0.5,95,130.0
1698,C3,338.5,0.5,79,130.0
1699,C2,338.5,0.5,95,130.0
1700,C3,339.0,0.5,95,130.0
1701,F3,339.0,1.0,95,130.0
1702,F2,339.0,0.5,95,130.0
1703,F3,339.5,0.5,95,130.0
1704,A2,339.5,0.5,95,130.0
1705,A3,340.0,0.5,95,130.0
1706,F3,340.0,1.0,95,130.0
1707,B2,340.0,0.5,95,130.0
1708,B3,340.5,0.5,95,130.0
1709,C3,340.5,0.5,95,130.0
1710,C4,341.0,0.5,95,130.0
1711,C3,341.0,0.5,95,130.0
1712,A1,341.0,0.5,95,130.0
1713,C6,341.5,0.5,95,130.0
1714,A2,341.5,0.5,95,130.0
1715,E3,341.5,1.5,95,130.0
1716,E1,341.5,0.5,95,130.0
1717,C6,342.0,2.0,95,130.0
1718,E2,342.0,0.5,95,130.0
1719,C3,342.0,0.5,95,130.0
1720,C4,342.5,0.5,95,130.0
1721,D3,342.5,0.5,95,130.0
1722,D4,343.0,0.5,95,130.0
1723,D3,343.0,0.5,95,130.0
1724,B-1,343.0,0.5,95,130.0
1725,B-2,343.5,0.5,95,130.0
1726,F3,343.5,0.5,95,130.0
1727,F1,343.5,0.5,95,130.0
1728,C6,344.0,1.0,95,130.0
1729,F2,344.0,0.5,95,130.0
1730,B-3,344.0,2.0,95,130.0
1731,B-2,344.0,0.5,95,130.0
1732,B-3,344.5,0.5,95,130.0
1733,D3,344.5,0.5,95,130.0
1734,C6,345.0,2.0,95,130.0
1735,D4,345.0,0.5,95,130.0
1736,E3,345.0,0.5,95,130.0
1737,E4,345.5,0.5,95,130.0
1738,F3,345.5,0.5,95,130.0
1739,F4,346.0,0.5,95,130.0
1740,C3,346.0,0.5,95,130.0
1741,C2,346.0,0.5,95,130.0
1742,C3,346.5,0.5,95,130.0
1743,G3,346.5,0.5,95,130.0
1744,G1,346.5,0.5,95,130.0
1745,C6,347.0,1.0,95,130.0
1746,G2,347.0,0.5,95,130.0
1747,C4,347.0,1.0,95,130.0
1748,C3,347.0,0.5,95,130.0
1749,C4,347.5,0.5,95,130.0
1750,E3,347.5,0.5,95,130.0
1751,C6,348.0,2.0,95,130.0
1752,E4,348.0,0.5,95,130.0
1753,C4,348.0,1.0,95,130.0
1754,F3,348.0,0.5,95,130.0
1755,F4,348.5,0.5,95,130.0
1756,G3,348.5,0.5,95,130.0
1757,G4,349.0,0.5,95,130.0
1758,D3,349.0,2.0,95,130.0
1759,G3,349.0,2.0,95,130.0
1760,D3,349.0,2.0,95,130.0
1761,D5,349.5,2.0,95,130.0
1762,G4,349.5,2.0,95,130.0
1763,D4,349.5,2.0,95,130.0
1764,D6,350.0,2.0,95,130.0
1765,B4,351.0,2.0,95,130.0
1766,A1,351.0,0.5,95,130.0
1767,G5,351.5,2.0,95,130.0
1768,D6,352.0,1.0,95,130.0
1769,A1,352.0,0.5,95,130.0
1770,D6,353.0,2.0,95,130.0
1771,A2,353.0,1.0,95,130.0
1772,A2,354.0,0.5,95,130.0
1773,A4,354.5,0.5,95,130.0
1774,A1,354.5,0.5,95,130.0
1775,C#4,355.0,1.0,95,130.0
1776,E5,355.0,0.5,95,130.0
1777,A1,355.5,0.5,95,130.0
1778,A2,356.0,0.5,95,130.0
1779,E2,356.5,0.5,95,130.0
1780,G1,356.5,0.5,95,130.0
1781,G3,357.0,0.5,95,130.0
1782,A2,357.0,1.0,95,130.0
1783,A3,357.5,0.5,95,130.0
1784,A2,358.0,0.5,95,130.0
1785,G4,358.0,0.5,95,130.0
1786,C#2,358.0,0.25,95,130.0
1787,D2,358.25,0.25,95,130.0
1788,C#4,358.5,0.5,95,130.0
1789,D5,358.5,0.5,95,130.0
1790,A4,358.5,0.5,95,130.0
1791,E2,358.5,0.25,95,130.0
1792,C#4,359.0,0.5,95,130.0
1793,E5,359.0,0.5,95,130.0
1794,E4,359.0,3.0,95,130.0
1795,A4,359.0,4.0,95,130.0
1796,A1,359.0,0.5,95,130.0
1797,A2,359.5,1.0,95,130.0
1798,C#5,359.5,3.0,95,130.0
1799,A1,360.0,0.5,95,130.0
1800,G3,360.5,0.5,95,130.0
1801,A3,361.0,0.5,95,130.0
1802,A2,361.0,1.0,95,130.0
1803,A2,361.5,0.5,95,130.0
1804,C#3,362.0,0.25,95,130.0
1805,E4,362.0,0.5,95,130.0
1806,A2,362.0,0.5,95,130.0
1807,D3,362.25,0.25,95,130.0
1808,E3,362.5,0.5,95,130.0
1809,A4,362.5,0.5,95,130.0
1810,E4,362.5,0.5,95,130.0
1811,A1,362.5,0.5,95,130.0
1812,C#4,363.0,1.0,95,130.0
1813,A4,363.0,0.5,95,130.0
1814,A4,363.0,2.0,95,130.0
1815,E4,363.0,3.0,95,130.0
1816,A4,363.5,2.0,95,130.0
1817,A1,363.5,0.5,95,130.0
1818,A2,364.0,0.5,95,130.0
1819,B-1,364.0,0.5,95,130.0
1820,E2,364.5,0.5,95,130.0
1821,C#2,364.5,0.5,95,130.0
1822,G3,365.0,0.5,95,130.0
1823,D2,365.0,0.5,95,130.0
1824,A3,365.5,0.5,95,130.0
1825,F2,365.5,0.5,95,130.0
1826,D4,366.0,0.5,95,130.0
1827,E2,366.0,0.125,95,130.0
1828,F2,366.125,0.125,95,130.0
1829,E2,366.25,0.25,95,130.0
1830,A3,366.5,0.5,95,130.0
1831,G4,366.5,0.5,95,130.0
1832,E4,366.5,0.5,95,130.0
1833,D2,366.5,0.5,95,130.0
1834,A3,367.0,0.5,95,130.0
1835,A4,367.0,0.5,95,130.0
1836,E4,367.0,1.5,95,130.0
1837,A1,367.0,0.5,95,130.0
1838,A2,367.5,0.5,95,130.0
1839,A4,367.5,1.5,95,130.0
1840,B-2,368.0,0.5,95,130.0
1841,A1,368.0,0.5,95,130.0
1842,C#3,368.5,0.5,95,130.0
1843,D4,368.5,1.5,95,130.0
1844,D3,369.0,0.5,95,130.0
1845,G4,369.0,1.5,95,130.0
1846,A2,369.0,1.0,95,130.0
1847,F3,369.5,0.5,95,130.0
1848,E3,370.0,0.125,95,130.0
1849,C#4,370.0,1.0,95,130.0
1850,A2,370.0,0.5,95,130.0
1851,F3,370.125,0.125,70,130.0
1852,E3,370.25,0.25,70,130.0
1853,D3,370.5,0.5,95,130.0
1854,F4,370.5,1.0,95,130.0
1855,A1,370.5,0.5,95,130.0
1856,C#4,371.0,1.0,95,130.0
1857,C#4,371.0,1.5,95,130.0
1858,E4,371.5,1.5,95,130.0
1859,A1,371.5,0.5,95,130.0
1860,A2,372.0,0.5,95,130.0
1861,E2,372.5,0.5,95,130.0
1862,D4,372.5,1.5,95,130.0
1863,G1,372.5,0.5,95,130.0
1864,G3,373.0,0.5,95,130.0
1865,G4,373.0,1.5,95,130.0
1866,A2,373.0,1.0,95,130.0
1867,A3,373.5,0.5,95,130.0
1868,A2,374.0,0.5,95,130.0
1869,E4,374.0,1.0,95,130.0
1870,C#2,374.0,0.25,95,130.0
1871,D2,374.25,0.25,95,130.0
1872,C#4,374.5,0.5,95,130.0
1873,A4,374.5,1.0,95,130.0
1874,E2,374.5,0.25,95,130.0
1875,C#4,375.0,0.5,95,130.0
1876,E4,375.0,4.0,79,130.0
1877,A1,375.0,0.5,95,130.0
1878,A3,375.5,0.5,95,130.0
1879,A4,375.5,4.0,79,130.0
1880,C#4,376.0,0.5,95,130.0
1881,A1,376.0,0.5,95,130.0
1882,D4,376.5,0.5,95,130.0
1883,G4,377.0,0.5,95,130.0
1884,A2,377.0,1.0,95,130.0
1885,E4,377.5,0.5,95,130.0
1886,B-3,378.0,0.5,95,130.0
1887,A2,378.0,0.5,95,130.0
1888,A3,378.5,0.5,95,130.0
1889,A1,378.5,0.5,95,130.0
1890,C#4,379.0,1.0,95,130.0
1891,E4,379.0,1.0,79,130.0
1892,A1,379.0,1.0,95,130.0
1893,A4,379.5,4.0,79,130.0
1894,A2,380.0,0.5,95,130.0
1895,G2,380.0,0.125,95,130.0
1896,A2,380.125,0.125,95,130.0
1897,B-2,380.25,0.125,95,130.0
1898,C3,380.375,0.125,95,130.0
1899,E2,380.5,0.5,95,130.0
1900,D3,380.5,0.125,95,130.0
1901,E3,380.625,0.125,95,130.0
1902,D3,380.75,0.125,95,130.0
1903,E3,380.875,0.125,95,130.0
1904,G3,381.0,0.5,95,130.0
1905,F3,381.0,0.125,95,130.0
1906,E3,381.125,0.125,95,130.0
1907,G3,381.25,0.125,95,130.0
1908,A3,381.375,0.125,95,130.0
1909,A3,381.5,0.5,95,130.0
1910,G3,381.5,0.125,95,130.0
1911,F3,381.625,0.125,95,130.0
1912,E3,381.75,0.125,95,130.0
1913,D3,381.875,0.125,95,130.0
1914,C#3,382.0,0.125,95,130.0
1915,E3,382.125,0.125,95,130.0
1916,D3,382.25,0.125,95,130.0
1917,E3,382.375,0.125,95,130.0
1918,A3,382.5,0.5,95,130.0
1919,B-2,382.5,0.125,95,130.0
1920,A2,382.625,0.125,95,130.0
1921,G2,382.75,0.125,95,130.0
1922,F2,382.875,0.125,95,130.0
1923,A3,383.0,1.0,95,130.0
1924,G2,383.0,0.5,95,130.0
1925,G1,383.0,0.5,95,130.0
1926,A2,383.5,0.5,95,130.0
1927,A1,383.5,0.5,95,130.0
1928,B-2,384.0,0.5,95,130.0
1929,B-1,384.0,0.5,95,130.0
1930,D4,384.5,0.5,95,130.0
1931,D3,384.5,0.5,95,130.0
1932,D2,384.5,0.5,95,130.0
1933,E4,385.0,1.5,95,130.0
1934,C#3,385.0,0.5,95,130.0
1935,C#2,385.0,0.5,95,130.0
1936,A2,385.5,0.5,95,130.0
1937,A1,385.5,0.5,95,130.0
1938,D4,386.5,0.5,95,130.0
1939,E4,387.0,0.5,95,130.0
1940,E4,387.5,1.0,95,130.0
1941,G2,387.5,0.5,95,130.0
1942,G1,387.5,0.5,95,130.0
1943,A2,388.0,0.5,95,130.0
1944,A1,388.0,0.5,95,130.0
1945,B-2,388.5,0.5,95,130.0
1946,B-1,388.5,0.5,95,130.0
1947,D3,389.0,0.5,95,130.0
1948,D2,389.0,0.5,95,130.0
1949,C#3,389.5,0.5,95,130.0
1950,C#2,389.5,0.5,95,130.0
1951,F3,390.0,0.5,95,130.0
1952,F2,390.0,0.5,95,130.0
1953,E3,390.5,0.5,95,130.0
1954,E2,390.5,0.5,95,130.0
1955,E3,391.0,0.5,95,130.0
1956,E2,391.0,0.5,95,130.0
1957,G2,391.5,0.5,95,130.0
1958,G1,391.5,0.5,95,130.0
1959,B-2,392.0,0.5,95,130.0
1960,B-1,392.0,0.5,95,130.0
1961,D4,392.5,0.5,95,130.0
1962,D3,392.5,0.5,95,130.0
1963,D2,392.5,0.5,95,130.0
1964,E4,393.0,1.5,95,130.0
1965,C#3,393.0,0.5,95,130.0
1966,C#2,393.0,0.5,95,130.0
1967,A2,393.5,0.5,95,130.0
1968,A1,393.5,0.5,95,130.0
1969,D4,394.5,0.5,95,130.0
1970,A2,394.5,0.5,95,130.0
1971,A1,394.5,0.5,95,130.0
1972,E4,395.0,0.5,95,130.0
1973,B-2,395.0,0.5,95,130.0
1974,B-1,395.0,0.5,95,130.0
1975,G2,395.5,0.5,95,130.0
1976,G1,395.5,0.5,95,130.0
1977,F2,396.5,0.5,95,130.0
1978,F1,396.5,0.5,95,130.0
1979,G2,397.0,0.5,95,130.0
1980,G1,397.0,0.5,95,130.0
1981,F5,397.5,1.0,79,130.0
1982,E2,397.5,0.5,95,130.0
1983,E1,397.5,0.5,95,130.0
1984,F5,398.5,1.0,79,130.0
1985,G2,399.0,0.5,95,130.0
1986,G1,399.0,0.5,95,130.0
1987,A2,399.5,0.5,95,130.0
1988,A1,399.5,0.5,95,130.0
1989,B-2,400.0,0.5,95,130.0
1990,B-1,400.0,0.5,95,130.0
1991,D4,400.5,0.5,95,130.0
1992,D3,400.5,0.5,95,130.0
1993,D2,400.5,0.5,95,130.0
1994,E4,401.0,1.5,95,130.0
1995,C#3,401.0,0.5,95,130.0
1996,C#2,401.0,0.5,95,130.0
1997,A2,401.5,0.5,95,130.0
1998,A1,401.5,0.5,95,130.0
1999,B3,402.0,67/1000,95,130.0
2000,G3,402.0,67/1000,95,130.0
2001,D3,402.0,67/1000,95,130.0
2002,A2,402.0,67/1000,95,130.0
2003,D4,402.5,0.5,95,130.0
2004,B3,402.5,67/1000,95,130.0
2005,G3,402.5,67/1000,95,130.0
2006,D3,402.5,67/1000,95,130.0
2007,A2,402.5,67/1000,95,130.0
2008,E4,403.0,0.5,95,130.0
2009,B3,403.0,67/1000,95,130.0
2010,G3,403.0,67/1000,95,130.0
2011,D3,403.0,67/1000,95,130.0
2012,A2,403.0,67/1000,95,130.0
2013,G2,403.5,0.5,95,130.0
2014,G1,403.5,0.5,95,130.0
2015,A2,404.0,0.5,95,130.0
2016,A1,404.0,0.5,95,130.0
2017,B-2,404.5,0.5,95,130.0
2018,B-1,404.5,0.5,95,130.0
2019,D3,405.0,0.5,95,130.0
2020,D2,405.0,0.5,95,130.0
2021,C#3,405.5,0.5,95,130.0
2022,C#2,405.5,0.5,95,130.0
2023,F3,406.0,0.5,95,130.0
2024,F2,406.0,0.5,95,130.0
2025,E3,406.5,0.5,95,130.0
2026,E2,406.5,0.5,95,130.0
2027,E3,407.0,0.5,95,130.0
2028,E2,407.0,0.5,95,130.0
2029,G2,407.5,0.5,95,130.0
2030,G1,407.5,0.5,95,130.0
2031,A2,408.0,0.5,95,130.0
2032,A1,408.0,0.5,95,130.0
2033,B-2,408.5,0.5,95,130.0
2034,B-1,408.5,0.5,95,130.0
2035,D3,409.0,0.5,95,130.0
2036,D2,409.0,0.5,95,130.0
2037,C#3,409.5,0.5,95,130.0
2038,C#2,409.5,0.5,95,130.0
2039,B-2,410.0,0.5,95,130.0
2040,B-1,410.0,0.5,95,130.0
2041,A2,410.5,0.5,95,130.0
2042,A1,410.5,0.5,95,130.0
2043,B-1,411.0,0.5,95,130.0
2044,F3,411.0,0.5,95,130.0
2045,B-2,411.0,0.5,95,130.0
2046,A1,411.5,0.5,95,130.0
2047,E3,411.5,0.5,95,130.0
2048,A2,411.5,0.5,95,130.0
2049,A2,412.0,133/1000,95,130.0
2050,F2,412.5,0.5,95,130.0
2051,C3,412.5,0.5,95,130.0
2052,F2,412.5,0.5,95,130.0
2053,E2,413.0,0.5,95,130.0
2054,B2,413.0,0.5,95,130.0
2055,E2,413.0,0.5,95,130.0
2056,A2,413.5,133/1000,95,130.0
2057,A1,414.0,0.5,95,130.0
2058,E3,414.0,0.5,95,130.0
2059,A2,414.0,0.5,95,130.0
2060,B-1,414.5,0.5,95,130.0
2061,F3,414.5,0.5,95,130.0
2062,B-2,414.5,0.5,95,130.0
2063,A1,415.0,1.5,95,130.0
2064,A2,415.5,1.5,95,130.0
2065,A2,415.5,1.5,95,130.0
2066,A3,416.0,1.5,95,130.0
2067,A1,416.5,2.5,95,130.0
2068,A2,417.0,2.5,95,130.0
2069,A2,417.0,0.5,95,130.0
2070,A3,417.5,0.5,95,130.0
2071,B-2,417.5,0.5,95,130.0
2072,B-3,418.0,0.5,95,130.0
2073,A2,418.0,0.5,95,130.0
2074,A3,418.5,0.5,95,130.0
2075,G2,418.5,0.5,95,130.0
2076,G3,419.0,0.5,95,130.0
2077,A1,419.0,1.5,95,130.0
2078,A2,419.5,1.5,95,130.0
2079,A2,419.5,1.5,95,130.0
2080,D6,420.0,2.0,95,130.0
2081,A3,420.0,1.5,95,130.0
2082,A1,420.5,2.5,95,130.0
2083,A2,421.0,2.5,95,130.0
2084,A2,421.0,0.5,95,130.0
2085,A3,421.5,0.5,95,130.0
2086,B-2,421.5,0.5,95,130.0
2087,B-3,422.0,0.5,95,130.0
2088,A2,422.0,0.5,95,130.0
2089,A3,422.5,0.5,95,130.0
2090,G2,422.5,0.5,95,130.0
2091,G3,423.0,0.5,95,130.0
2092,A1,423.0,1.5,95,130.0
2093,A2,423.5,1.5,95,130.0
2094,A2,423.5,1.5,95,130.0
2095,A5,424.0,1.5,95,130.0
2096,A3,424.0,1.5,95,130.0
2097,A1,424.5,2.5,95,130.0
2098,A2,425.0,2.5,95,130.0
2099,A2,425.0,0.5,95,130.0
2100,A3,425.5,0.5,95,130.0
2101,B-2,425.5,0.5,95,130.0
2102,B-3,426.0,0.5,95,130.0
2103,A2,426.0,0.5,95,130.0
2104,C#5,426.5,0.5,95,130.0
2105,A3,426.5,0.5,95,130.0
2106,G2,426.5,0.5,95,130.0
2107,C#5,427.0,4.0,95,130.0
2108,G3,427.0,0.5,95,130.0
2109,A1,427.0,2.0,95,130.0
2110,A2,427.5,2.0,95,130.0
2111,A2,427.5,0.5,95,130.0
2112,A3,428.0,0.5,95,130.0
2113,E2,428.0,0.5,95,130.0
2114,E3,428.5,0.5,95,130.0
2115,F2,428.5,1.0,95,130.0
2116,F3,429.0,0.5,95,130.0
2117,A1,429.0,2.0,95,130.0
2118,A2,429.5,2.0,95,130.0
2119,D2,429.5,0.5,95,130.0
2120,D3,430.0,0.5,95,130.0
2121,E2,430.0,1.0,95,130.0
2122,E3,430.5,1.0,95,130.0
2123,A1,431.0,1.5,95,130.0
2124,A2,431.5,1.5,95,130.0
2125,A2,431.5,1.5,95,130.0
2126,A3,432.0,1.5,95,130.0
2127,F4,432.5,2.5,95,130.0
2128,A1,432.5,2.5,95,130.0
2129,A2,433.0,2.5,95,130.0
2130,A2,433.0,0.5,95,130.0
2131,A3,433.5,0.5,95,130.0
2132,B-2,433.5,0.5,95,130.0
2133,B-3,434.0,0.5,95,130.0
2134,A2,434.0,0.5,95,130.0
2135,A3,434.5,0.5,95,130.0
2136,G2,434.5,0.5,95,130.0
2137,G3,435.0,0.5,95,130.0
2138,A1,435.0,1.5,95,130.0
2139,A2,435.5,1.5,95,130.0
2140,A2,435.5,1.5,95,130.0
2141,A3,436.0,1.5,95,130.0
2142,C#5,436.5,2.5,95,130.0
2143,A1,436.5,2.5,95,130.0
2144,A2,437.0,2.5,95,130.0
2145,A2,437.0,0.5,95,130.0
2146,A3,437.5,0.5,95,130.0
2147,B-2,437.5,0.5,95,130.0
2148,B-3,438.0,0.5,95,130.0
2149,A2,438.0,0.5,95,130.0
2150,A3,438.5,0.5,95,130.0
2151,G2,438.5,0.5,95,130.0
2152,C#5,439.0,1.0,95,130.0
2153,G3,439.0,0.5,95,130.0
2154,A1,439.0,1.5,95,130.0
2155,A2,439.5,1.5,95,130.0
2156,A2,439.5,1.5,95,130.0
2157,D4,440.0,3.0,95,130.0
2158,A3,440.0,1.5,95,130.0
2159,A1,440.5,2.5,95,130.0
2160,A2,441.0,2.5,95,130.0
2161,A2,441.0,0.5,95,130.0
2162,A3,441.5,0.5,95,130.0
2163,B-2,441.5,0.5,95,130.0
2164,B-3,442.0,0.5,95,130.0
2165,A2,442.0,0.5,95,130.0
2166,A3,442.5,0.5,95,130.0
2167,G2,442.5,0.5,95,130.0
2168,D4,443.0,4.0,95,130.0
2169,G3,443.0,0.5,95,130.0
2170,A1,443.0,2.0,95,130.0
2171,A2,443.5,2.0,95,130.0
2172,A2,443.5,0.5,95,130.0
2173,A3,444.0,0.5,95,130.0
2174,E2,444.0,0.5,95,130.0
2175,E3,444.5,0.5,95,130.0
2176,F2,444.5,1.0,95,130.0
2177,F3,445.0,0.5,95,130.0
2178,A1,445.0,2.0,95,130.0
2179,A2,445.5,2.0,95,130.0
2180,D2,445.5,0.5,95,130.0
2181,D3,446.0,0.5,95,130.0
2182,E2,446.0,1.0,95,130.0
2183,E3,446.5,1.0,95,130.0
2184,A1,447.0,1.5,95,130.0
2185,A2,447.5,1.5,95,130.0
2186,A2,447.5,1.5,95,130.0
2187,A3,448.0,1.5,95,130.0
2188,A1,448.5,2.5,95,130.0
2189,A2,449.0,2.5,95,130.0
2190,A2,449.0,0.5,95,130.0
2191,A3,449.5,0.5,95,130.0
2192,B-2,449.5,0.5,95,130.0
2193,B-3,450.0,0.5,95,130.0
2194,A2,450.0,0.5,95,130.0
2195,A3,450.5,0.5,95,130.0
2196,G2,450.5,0.5,95,130.0
2197,D5,451.0,0.25,95,130.0
2198,G3,451.0,0.5,95,130.0
2199,A1,451.0,1.5,95,130.0
2200,B-4,451.25,0.25,95,130.0
2201,C#5,451.5,0.75,95,130.0
2202,A2,451.5,1.5,95,130.0
2203,A2,451.5,1.5,95,130.0
2204,A3,452.0,1.5,95,130.0
2205,B-4,452.25,0.25,95,130.0
2206,G4,452.5,0.25,95,130.0
2207,A1,452.5,2.5,95,130.0
2208,B-4,452.75,0.25,95,130.0
2209,A4,453.0,1.0,95,130.0
2210,A2,453.0,2.5,95,130.0
2211,A2,453.0,0.5,95,130.0
2212,A3,453.5,0.5,95,130.0
2213,B-2,453.5,0.5,95,130.0
2214,B-4,454.0,0.25,95,130.0
2215,B-3,454.0,0.5,95,130.0
2216,A2,454.0,0.5,95,130.0
2217,G4,454.25,0.25,95,130.0
2218,A4,454.5,0.25,95,130.0
2219,A3,454.5,0.5,95,130.0
2220,G2,454.5,0.5,95,130.0
2221,G4,454.75,0.25,95,130.0
2222,F4,455.0,0.25,95,130.0
2223,G3,455.0,0.5,95,130.0
2224,A1,455.0,1.5,95,130.0
2225,G4,455.25,0.25,95,130.0
2226,E4,455.5,1.0,95,130.0
2227,A2,455.5,1.5,95,130.0
2228,A2,455.5,1.5,95,130.0
2229,A3,456.0,1.5,95,130.0
2230,A5,456.5,0.25,95,130.0
2231,A1,456.5,2.5,95,130.0
2232,F5,456.75,0.25,95,130.0
2233,G5,457.0,0.25,95,130.0
2234,A2,457.0,2.5,95,130.0
2235,A2,457.0,0.5,95,130.0
2236,A5,457.25,0.125,95,130.0
2237,G5,457.375,0.125,70,130.0
2238,F5,457.5,0.25,70,130.0
2239,A3,457.5,0.5,95,130.0
2240,B-2,457.5,0.5,95,130.0
2241,E5,457.75,0.25,95,130.0
2242,F5,458.0,0.25,95,130.0
2243,B-3,458.0,0.5,95,130.0
2244,A2,458.0,0.5,95,130.0
2245,E5,458.25,0.25,95,130.0
2246,D5,458.5,0.25,95,130.0
2247,A3,458.5,0.5,95,130.0
2248,G2,458.5,0.5,95,130.0
2249,C#5,458.75,0.25,95,130.0
2250,D5,459.0,0.25,95,130.0
2251,G3,459.0,0.5,95,130.0
2252,A1,459.0,2.0,95,130.0
2253,B-5,459.25,0.25,95,130.0
2254,A5,459.5,1.0,95,130.0
2255,A2,459.5,2.0,95,130.0
2256,A2,459.5,0.5,95,130.0
2257,A3,460.0,0.5,95,130.0
2258,E2,460.0,0.5,95,130.0
2259,F5,460.5,0.25,95,130.0
2260,E3,460.5,0.5,95,130.0
2261,F2,460.5,1.0,95,130.0
2262,D5,460.75,0.25,95,130.0
2263,E5,461.0,1.0,95,130.0
2264,F3,461.0,0.5,95,130.0
2265,A1,461.0,2.0,95,130.0
2266,A2,461.5,2.0,95,130.0
2267,D2,461.5,0.5,95,130.0
2268,E5,462.0,0.25,95,130.0
2269,D3,462.0,0.5,95,130.0
2270,E2,462.0,1.0,95,130.0
2271,C#5,462.25,0.25,95,130.0
2272,D5,462.5,0.25,95,130.0
2273,E3,462.5,1.0,95,130.0
2274,C#5,462.75,0.25,95,130.0
2275,B-4,463.0,0.25,95,130.0
2276,A1,463.0,1.5,95,130.0
2277,C#5,463.25,0.25,95,130.0
2278,A4,463.5,1.0,95,130.0
2279,A2,463.5,1.5,95,130.0
2280,A2,463.5,1.5,95,130.0
2281,A3,464.0,1.5,95,130.0
2282,B-4,464.5,0.25,95,130.0
2283,A1,464.5,2.5,95,130.0
2284,G4,464.75,0.25,95,130.0
2285,A4,465.0,0.25,95,130.0
2286,A2,465.0,2.5,95,130.0
2287,A2,465.0,0.5,95,130.0
2288,G4,465.25,0.25,95,130.0
2289,F4,465.5,0.25,95,130.0
2290,A3,465.5,0.5,95,130.0
2291,B-2,465.5,0.5,95,130.0
2292,G4,465.75,0.25,95,130.0
2293,E4,466.0,1.0,95,130.0
2294,B-3,466.0,0.5,95,130.0
2295,A2,466.0,0.5,95,130.0
2296,A3,466.5,0.5,95,130.0
2297,G2,466.5,0.5,95,130.0
2298,D5,467.0,0.25,95,130.0
2299,G3,467.0,0.5,95,130.0
2300,A1,467.0,1.5,95,130.0
2301,B-4,467.25,0.25,95,130.0
2302,C#5,467.5,0.75,95,130.0
2303,A2,467.5,1.5,95,130.0
2304,A2,467.5,1.5,95,130.0
2305,A3,468.0,1.5,95,130.0
2306,B-4,468.25,0.25,95,130.0
2307,G4,468.5,0.25,95,130.0
2308,A1,468.5,2.5,95,130.0
2309,B-4,468.75,0.25,95,130.0
2310,A4,469.0,1.0,95,130.0
2311,A2,469.0,2.5,95,130.0
2312,A2,469.0,0.5,95,130.0
2313,A3,469.5,0.5,95,130.0
2314,B-2,469.5,0.5,95,130.0
2315,B-5,470.0,0.25,95,130.0
2316,B-3,470.0,0.5,95,130.0
2317,A2,470.0,0.5,95,130.0
2318,G5,470.25,0.25,95,130.0
2319,A5,470.5,0.25,95,130.0
2320,A3,470.5,0.5,95,130.0
2321,G2,470.5,0.5,95,130.0
2322,G5,470.75,0.25,95,130.0
2323,F5,471.0,0.25,95,130.0
2324,G3,471.0,0.5,95,130.0
2325,A1,471.0,1.5,95,130.0
2326,G5,471.25,0.25,95,130.0
2327,E5,471.5,1.0,95,130.0
2328,A2,471.5,1.5,95,130.0
2329,A2,471.5,1.5,95,130.0
2330,A3,472.0,1.5,95,130.0
2331,D6,472.5,0.25,95,130.0
2332,A1,472.5,2.5,95,130.0
2333,B-5,472.75,0.25,95,130.0
2334,C#6,473.0,0.25,95,130.0
2335,A2,473.0,2.5,95,130.0
2336,A2,473.0,0.5,95,130.0
2337,D6,473.25,0.125,70,130.0
2338,C#6,473.375,0.125,70,130.0
2339,B-5,473.5,0.25,95,130.0
2340,A3,473.5,0.5,95,130.0
2341,B-2,473.5,0.5,95,130.0
2342,A5,473.75,0.25,95,130.0
2343,B-5,474.0,0.25,95,130.0
2344,B-3,474.0,0.5,95,130.0
2345,A2,474.0,0.5,95,130.0
2346,A5,474.25,0.25,95,130.0
2347,G5,474.5,0.25,95,130.0
2348,A3,474.5,0.5,95,130.0
2349,G2,474.5,0.5,95,130.0
2350,F5,474.75,0.25,95,130.0
2351,G5,475.0,0.25,95,130.0
2352,G3,475.0,0.5,95,130.0
2353,A1,475.0,2.0,95,130.0
2354,D6,475.25,0.25,95,130.0
2355,C#6,475.5,1.0,95,130.0
2356,A2,475.5,2.0,95,130.0
2357,A2,475.5,0.5,95,130.0
2358,A3,476.0,0.5,95,130.0
2359,E2,476.0,0.5,95,130.0
2360,B-5,476.5,0.25,95,130.0
2361,E3,476.5,0.5,95,130.0
2362,F2,476.5,1.0,95,130.0
2363,G5,476.75,0.25,95,130.0
2364,A5,477.0,1.0,95,130.0
2365,F3,477.0,0.5,95,130.0
2366,A1,477.0,2.0,95,130.0
2367,A2,477.5,2.0,95,130.0
2368,D2,477.5,0.5,95,130.0
2369,G5,478.0,0.25,95,130.0
2370,D3,478.0,0.5,95,130.0
2371,E2,478.0,1.0,95,130.0
2372,E5,478.25,0.25,95,130.0
2373,F5,478.5,0.25,95,130.0
2374,E3,478.5,1.0,95,130.0
2375,E5,478.75,0.25,95,130.0
2376,D5,479.0,0.25,95,130.0
2377,G1,479.0,1.5,95,130.0
2378,E5,479.25,0.25,95,130.0
2379,C#5,479.5,1.0,95,130.0
2380,G2,479.5,1.5,95,130.0
2381,A2,479.5,4.0,95,130.0
2382,A2,479.5,1.5,95,130.0
2383,A3,480.0,1.5,95,130.0
2384,G4,480.5,0.25,95,130.0
2385,G1,480.5,2.5,95,130.0
2386,E4,480.75,0.25,95,130.0
2387,F4,481.0,0.25,95,130.0
2388,G2,481.0,2.0,95,130.0
2389,A2,481.0,0.5,95,130.0
2390,E4,481.25,0.25,95,130.0
2391,D4,481.5,0.25,95,130.0
2392,A3,481.5,0.5,95,130.0
2393,B-2,481.5,0.5,95,130.0
2394,E4,481.75,0.25,95,130.0
2395,C#4,482.0,1.0,95,130.0
2396,B-3,482.0,0.5,95,130.0
2397,A2,482.0,0.5,95,130.0
2398,G3,482.5,1.0,95,130.0
2399,G2,482.5,0.5,95,130.0
2400,D5,483.0,0.25,95,130.0
2401,G2,483.0,0.5,95,130.0
2402,G1,483.0,1.5,95,130.0
2403,B-4,483.25,0.25,95,130.0
2404,C#5,483.5,0.75,95,130.0
2405,G2,483.5,1.5,95,130.0
2406,A2,483.5,4.0,95,130.0
2407,A2,483.5,1.5,95,130.0
2408,A3,484.0,1.5,95,130.0
2409,B-4,484.25,0.25,95,130.0
2410,A4,484.5,0.25,95,130.0
2411,G1,484.5,2.5,95,130.0
2412,B-4,484.75,0.25,95,130.0
2413,G4,485.0,1.0,95,130.0
2414,G2,485.0,2.0,95,130.0
2415,A2,485.0,0.5,95,130.0
2416,A3,485.5,0.5,95,130.0
2417,B-2,485.5,0.5,95,130.0
2418,B-4,486.0,0.25,95,130.0
2419,B-3,486.0,0.5,95,130.0
2420,A2,486.0,0.5,95,130.0
2421,G4,486.25,0.25,95,130.0
2422,A4,486.5,0.25,95,130.0
2423,G3,486.5,1.0,95,130.0
2424,G2,486.5,0.5,95,130.0
2425,G4,486.75,0.25,95,130.0
2426,F4,487.0,0.25,95,130.0
2427,G2,487.0,0.5,95,130.0
2428,G1,487.0,1.5,95,130.0
2429,G4,487.25,0.25,95,130.0
2430,E4,487.5,0.25,95,130.0
2431,F2,487.5,1.5,95,130.0
2432,A2,487.5,4.0,95,130.0
2433,A2,487.5,1.5,95,130.0
2434,F4,487.75,0.25,95,130.0
2435,G4,488.0,0.25,95,130.0
2436,A3,488.0,1.5,95,130.0
2437,A4,488.25,0.25,95,130.0
2438,G4,488.5,1.0,95,130.0
2439,G1,488.5,2.5,95,130.0
2440,F2,489.0,2.5,95,130.0
2441,A2,489.0,0.5,95,130.0
2442,A5,489.5,0.25,95,130.0
2443,A3,489.5,0.5,95,130.0
2444,B-2,489.5,0.5,95,130.0
2445,F5,489.75,0.25,95,130.0
2446,G5,490.0,0.25,95,130.0
2447,B-3,490.0,0.5,95,130.0
2448,A2,490.0,0.5,95,130.0
2449,A5,490.25,0.125,95,130.0
2450,G5,490.375,0.125,70,130.0
2451,F5,490.5,0.25,70,130.0
2452,A3,490.5,0.5,95,130.0
2453,G2,490.5,0.5,95,130.0
2454,E5,490.75,0.25,95,130.0
2455,D5,491.0,0.125,95,130.0
2456,G3,491.0,0.5,95,130.0
2457,E1,491.0,0.5,95,130.0
2458,C#5,491.125,0.125,95,130.0
2459,B-4,491.25,0.125,95,130.0
2460,A4,491.375,0.125,95,130.0
2461,G4,491.5,0.125,95,130.0
2462,E2,491.5,0.5,95,130.0
2463,A2,491.5,2.0,95,130.0
2464,E1,491.5,1.5,95,130.0
2465,F4,491.625,0.125,95,130.0
2466,E4,491.75,0.125,95,130.0
2467,D4,491.875,0.125,95,130.0
2468,A4,492.0,1.0,95,130.0
2469,E2,492.0,1.5,95,130.0
2470,E2,492.0,0.5,95,130.0
2471,E3,492.5,0.5,95,130.0
2472,F2,492.5,0.5,95,130.0
2473,F5,493.0,0.25,95,130.0
2474,F3,493.0,0.5,95,130.0
2475,E1,493.0,2.0,95,130.0
2476,D5,493.25,0.25,95,130.0
2477,E5,493.5,0.25,95,130.0
2478,E2,493.5,2.0,95,130.0
2479,D2,493.5,0.5,95,130.0
2480,F5,493.75,0.25,95,130.0
2481,E5,494.0,0.25,95,130.0
2482,D3,494.0,0.5,95,130.0
2483,E2,494.0,1.0,95,130.0
2484,D5,494.25,0.25,95,130.0
2485,C#5,494.5,0.25,95,130.0
2486,E3,494.5,1.0,95,130.0
2487,C5,494.75,0.25,95,130.0
2488,B-4,495.0,0.25,95,130.0
2489,G2,495.0,0.5,95,130.0
2490,G1,495.0,0.5,95,130.0
2491,A4,495.25,0.25,95,130.0
2492,G4,495.5,0.25,95,130.0
2493,A2,495.5,0.5,95,130.0
2494,A1,495.5,0.5,95,130.0
2495,F4,495.75,0.25,95,130.0
2496,E4,496.0,0.25,95,130.0
2497,B-2,496.0,0.5,95,130.0
2498,B-1,496.0,0.5,95,130.0
2499,D4,496.25,0.25,95,130.0
2500,C#5,496.5,0.25,95,130.0
2501,D4,496.5,0.5,95,130.0
2502,D3,496.5,0.5,95,130.0
2503,D2,496.5,0.5,95,130.0
2504,C5,496.75,0.25,95,130.0
2505,B-4,497.0,0.25,95,130.0
2506,E4,497.0,0.5,95,130.0
2507,C#3,497.0,0.5,95,130.0
2508,C#2,497.0,0.5,95,130.0
2509,A4,497.25,0.25,95,130.0
2510,E5,497.5,0.25,95,130.0
2511,A2,497.5,0.5,95,130.0
2512,A1,497.5,0.5,95,130.0
2513,C#5,497.75,0.25,95,130.0
2514,A5,498.0,1.0,95,130.0
2515,D5,498.0,1.5,95,130.0
2516,E4,499.0,0.5,95,130.0
2517,B3,499.0,67/1000,95,130.0
2518,G3,499.0,67/1000,95,130.0
2519,D3,499.0,67/1000,95,130.0
2520,A2,499.0,67/1000,95,130.0
2521,D5,499.5,4.0,95,130.0
2522,E4,499.5,4.0,95,130.0
2523,G2,499.5,0.5,95,130.0
2524,G1,499.5,0.5,95,130.0
2525,A2,500.0,0.5,95,130.0
2526,A1,500.0,0.5,95,130.0
2527,B-2,500.5,0.5,95,130.0
2528,B-1,500.5,0.5,95,130.0
2529,D3,501.0,0.5,95,130.0
2530,D2,501.0,0.5,95,130.0
2531,C#3,501.5,0.5,95,130.0
2532,C#2,501.5,0.5,95,130.0
2533,F3,502.0,0.5,95,130.0
2534,F2,502.0,0.5,95,130.0
2535,E3,502.5,0.5,95,130.0
2536,E2,502.5,0.5,95,130.0
2537,E3,503.0,0.5,95,130.0
2538,E2,503.0,0.5,95,130.0
2539,G2,503.5,0.5,95,130.0
2540,G1,503.5,0.5,95,130.0
2541,B-2,504.0,0.5,95,130.0
2542,B-1,504.0,0.5,95,130.0
2543,D4,504.5,0.5,95,130.0
2544,D3,504.5,0.5,95,130.0
2545,D2,504.5,0.5,95,130.0
2546,E4,505.0,1.0,95,130.0
2547,C#3,505.0,0.5,95,130.0
2548,C#2,505.0,0.5,95,130.0
2549,A2,505.5,0.5,95,130.0
2550,A1,505.5,0.5,95,130.0
2551,D5,506.0,1.5,95,130.0
2552,A2,506.5,0.25,95,130.0
2553,A1,506.5,0.5,95,130.0
2554,A2,506.75,0.25,95,130.0
2555,B-2,507.0,0.5,95,130.0
2556,B-1,507.0,0.5,95,130.0
2557,D5,507.5,2.0,95,130.0
2558,G2,507.5,0.5,95,130.0
2559,G1,507.5,0.5,95,130.0
2560,F2,508.5,0.25,95,130.0
2561,F1,508.5,0.5,95,130.0
2562,F2,508.75,0.25,95,130.0
2563,G2,509.0,0.5,95,130.0
2564,G1,509.0,0.5,95,130.0
2565,F5,509.5,1.0,63,130.0
2566,E2,509.5,0.5,95,130.0
2567,E1,509.5,0.5,95,130.0
2568,F5,510.5,1.0,63,130.0
2569,B2,510.5,0.5,95,130.0
2570,E2,510.5,0.5,95,130.0
2571,F2,511.0,0.5,95,130.0
2572,F2,511.0,0.5,95,130.0
2573,F3,511.5,133/1000,95,130.0
2574,C3,511.5,0.5,95,130.0
2575,C2,511.5,0.5,95,130.0
2576,C3,512.0,133/1000,95,130.0
2577,F3,512.0,1.5,95,130.0
2578,F2,512.0,0.5,95,130.0
2579,F3,512.5,133/1000,95,130.0
2580,A2,512.5,0.5,95,130.0
2581,A3,513.0,0.5,95,130.0
2582,B2,513.0,0.5,95,130.0
2583,B3,513.5,0.5,95,130.0
2584,G2,513.5,0.5,95,130.0
2585,D2,513.5,0.5,95,130.0
2586,D3,514.0,133/1000,95,130.0
2587,D3,514.0,1.0,95,130.0
2588,G2,514.0,0.5,95,130.0
2589,G3,514.5,133/1000,95,130.0
2590,B2,514.5,0.5,95,130.0
2591,B5,515.0,2.0,95,130.0
2592,B3,515.0,0.5,95,130.0
2593,D3,515.0,0.5,95,130.0
2594,C3,515.0,0.5,95,130.0
2595,C4,515.5,0.5,95,130.0
2596,A2,515.5,0.5,95,130.0
2597,E2,515.5,0.5,95,130.0
2598,E3,516.0,0.5,95,130.0
2599,E3,516.0,1.5,95,130.0
2600,A2,516.0,0.5,95,130.0
2601,A3,516.5,0.5,95,130.0
2602,C3,516.5,0.5,95,130.0
2603,B5,517.0,1.5,95,130.0
2604,C4,517.0,0.5,95,130.0
2605,B2,517.0,0.125,95,130.0
2606,C3,517.125,0.125,95,130.0
2607,B2,517.25,0.125,95,130.0
2608,G2,517.375,0.5,95,130.0
2609,B3,517.5,0.125,95,130.0
2610,G2,517.5,0.5,95,130.0
2611,C4,517.625,0.125,70,130.0
2612,B3,517.75,0.125,70,130.0
2613,G3,517.875,0.5,95,130.0
2614,E1,517.875,0.5,95,130.0
2615,D3,518.0,0.5,95,130.0
2616,D3,518.375,0.5,95,130.0
2617,F2,518.375,0.625,95,130.0
2618,A5,518.5,0.5,95,130.0
2619,F2,518.5,0.5,95,130.0
2620,F3,518.875,0.625,95,130.0
2621,F2,519.0,0.5,95,130.0
2622,F3,519.5,0.5,95,130.0
2623,C3,519.5,0.5,95,130.0
2624,C2,519.5,0.5,95,130.0
2625,C3,520.0,133/1000,95,130.0
2626,F3,520.0,1.5,95,130.0
2627,F2,520.0,0.5,95,130.0
2628,E5,520.5,1.5,95,130.0
2629,F3,520.5,133/1000,95,130.0
2630,A2,520.5,0.5,95,130.0
2631,A3,521.0,0.5,95,130.0
2632,B2,521.0,0.5,95,130.0
2633,B3,521.5,0.5,95,130.0
2634,D2,521.5,0.5,95,130.0
2635,G2,521.5,1.5,63,130.0
2636,G3,521.5,1.5,63,130.0
2637,D3,522.0,0.5,95,130.0
2638,C3,522.0,0.5,95,130.0
2639,D5,522.375,0.25,95,130.0
2640,C4,522.5,0.5,95,130.0
2641,B2,522.5,0.5,95,130.0
2642,E5,522.625,0.25,95,130.0
2643,F5,522.875,0.125,95,130.0
2644,F5,523.0,0.375,95,130.0
2645,B3,523.0,0.5,95,130.0
2646,A2,523.0,1.5,95,130.0
2647,A1,523.0,1.5,95,130.0
2648,A3,523.0,1.0,95,130.0
2649,E3,523.0,1.0,95,130.0
2650,E5,523.375,1.625,95,130.0
2651,A3,523.5,1.5,95,130.0
2652,E3,523.5,1.5,95,130.0
2653,A2,523.5,1.5,95,130.0
2654,G1,524.5,1.0,95,130.0
2655,G3,524.5,1.0,95,130.0
2656,D3,524.5,1.0,95,130.0
2657,G2,524.5,1.0,95,130.0
2658,D5,525.0,0.5,95,130.0
2659,G3,525.0,1.0,95,130.0
2660,D3,525.0,1.0,95,130.0
2661,G2,525.0,1.0,95,130.0
2662,D5,525.5,0.25,95,130.0
2663,E1,525.5,1.0,95,130.0
2664,E3,525.5,1.0,95,130.0
2665,B2,525.5,1.0,95,130.0
2666,E2,525.5,1.0,95,130.0
2667,E5,525.75,0.125,95,130.0
2668,D5,525.875,0.125,70,130.0
2669,C5,526.0,1.0,95,130.0
2670,E3,526.0,1.0,95,130.0
2671,B2,526.0,1.0,95,130.0
2672,E2,526.0,1.0,95,130.0
2673,F1,526.5,0.5,95,130.0
2674,F3,526.5,0.5,95,130.0
2675,C3,526.5,0.5,95,130.0
2676,F2,526.5,0.5,95,130.0
2677,C5,527.0,4.0,95,130.0
2678,F1,527.0,0.5,95,130.0
2679,F3,527.0,0.5,95,130.0
2680,C3,527.0,0.5,95,130.0
2681,F2,527.0,0.5,95,130.0
2682,F3,527.0,0.5,95,130.0
2683,C3,527.0,0.5,95,130.0
2684,F2,527.0,0.5,95,130.0
2685,C3,527.5,0.5,95,130.0
2686,C2,527.5,0.5,95,130.0
2687,F3,528.0,1.5,95,130.0
2688,F2,528.0,0.5,95,130.0
2689,F3,528.0,0.5,95,130.0
2690,C3,528.0,0.5,95,130.0
2691,F2,528.0,0.5,95,130.0
2692,C3,528.5,133/1000,95,130.0
2693,A2,528.5,0.5,95,130.0
2694,F3,529.0,133/1000,95,130.0
2695,B2,529.0,0.5,95,130.0
2696,A3,529.5,0.5,95,130.0
2697,G2,529.5,0.5,95,130.0
2698,D2,529.5,0.5,95,130.0
2699,B3,530.0,0.5,95,130.0
2700,D3,530.0,1.0,95,130.0
2701,G2,530.0,0.5,95,130.0
2702,D3,530.5,133/1000,95,130.0
2703,B2,530.5,0.5,95,130.0
2704,B5,531.0,2.0,95,130.0
2705,G3,531.0,133/1000,95,130.0
2706,D3,531.0,0.5,95,130.0
2707,C3,531.0,0.5,95,130.0
2708,B3,531.5,0.5,95,130.0
2709,A2,531.5,0.5,95,130.0
2710,E2,531.5,0.5,95,130.0
2711,C4,532.0,0.5,95,130.0
2712,E3,532.0,1.5,95,130.0
2713,A2,532.0,0.5,95,130.0
2714,E3,532.5,0.5,95,130.0
2715,C3,532.5,0.5,95,130.0
2716,B5,533.0,1.5,95,130.0
2717,A3,533.0,0.5,95,130.0
2718,D3,533.0,0.5,95,130.0
2719,C4,533.5,0.5,95,130.0
2720,G2,533.5,0.5,95,130.0
2721,G2,533.5,0.5,95,130.0
2722,D4,534.0,0.5,95,130.0
2723,D3,534.0,0.5,95,130.0
2724,D2,534.0,0.5,95,130.0
2725,C6,534.5,0.5,95,130.0
2726,G3,534.5,0.5,95,130.0
2727,F2,534.5,0.5,95,130.0
2728,F2,534.5,0.5,95,130.0
2729,D3,535.0,0.5,95,130.0
2730,F2,535.0,0.5,95,130.0
2731,F2,535.0,0.5,95,130.0
2732,F3,535.5,0.5,95,130.0
2733,C3,535.5,0.5,95,130.0
2734,C2,535.5,0.5,95,130.0
2735,F3,536.0,0.5,95,130.0
2736,F3,536.0,1.5,95,130.0
2737,F2,536.0,0.5,95,130.0
2738,C6,536.5,0.25,95,130.0
2739,C3,536.5,133/1000,95,130.0
2740,C3,536.5,0.5,95,130.0
2741,B5,536.75,0.25,95,130.0
2742,A5,537.0,2.0,95,130.0
2743,F3,537.0,133/1000,95,130.0
2744,B2,537.0,0.5,95,130.0
2745,C4,537.5,0.5,95,130.0
2746,E2,537.5,0.5,95,130.0
2747,B1,537.5,0.5,95,130.0
2748,B3,538.0,0.5,95,130.0
2749,G2,538.0,0.5,95,130.0
2750,G2,538.0,0.5,95,130.0
2751,B2,538.5,133/1000,95,130.0
2752,B2,538.5,0.5,95,130.0
2753,B2,538.5,0.5,95,130.0
2754,B5,539.0,1.0,95,130.0
2755,G3,539.0,0.5,95,130.0
2756,A2,539.0,1.0,95,130.0
2757,A3,539.0,1.5,95,130.0
2758,E3,539.0,1.5,95,130.0
2759,A2,539.0,1.5,95,130.0
2760,B3,539.5,0.5,95,130.0
2761,A5,540.0,0.5,95,130.0
2762,A3,540.0,1.0,95,130.0
2763,E3,540.0,1.0,95,130.0
2764,A2,540.0,1.0,95,130.0
2765,G5,540.5,0.5,95,130.0
2766,B3,540.5,0.5,95,130.0
2767,B2,540.5,0.5,95,130.0
2768,F5,541.0,0.5,95,130.0
2769,E5,541.5,0.5,95,130.0
2770,B3,541.5,0.5,95,130.0
2771,C4,541.5,0.5,95,130.0
2772,C3,541.5,0.5,95,130.0
2773,F5,542.0,0.5,95,130.0
2774,E5,542.5,0.125,95,130.0
2775,C4,542.5,0.5,95,130.0
2776,F2,542.5,0.5,95,130.0
2777,F2,542.5,0.5,95,130.0
2778,F5,542.625,0.125,70,130.0
2779,E5,542.75,0.25,95,130.0
2780,E5,543.0,2.0,95,130.0
2781,F2,543.0,0.5,95,130.0
2782,F2,543.0,0.5,95,130.0
2783,F3,543.5,0.5,95,130.0
2784,C3,543.5,0.5,95,130.0
2785,C2,543.5,0.5,95,130.0
2786,F3,544.0,0.5,95,130.0
2787,F3,544.0,1.5,95,130.0
2788,F2,544.0,0.5,95,130.0
2789,C3,544.5,133/1000,95,130.0
2790,A2,544.5,0.5,95,130.0
2791,C5,545.0,0.125,95,130.0
2792,F3,545.0,133/1000,95,130.0
2793,B2,545.0,0.5,95,130.0
2794,D5,545.125,0.125,95,130.0
2795,E5,545.25,0.125,95,130.0
2796,F5,545.375,0.125,95,130.0
2797,G5,545.5,0.125,95,130.0
2798,A3,545.5,0.5,95,130.0
2799,G2,545.5,0.5,95,130.0
2800,D2,545.5,0.5,95,130.0
2801,A5,545.625,0.125,95,130.0
2802,G5,545.75,0.125,95,130.0
2803,A5,545.875,0.125,95,130.0
2804,B5,546.0,0.125,95,130.0
2805,B3,546.0,0.5,95,130.0
2806,D3,546.0,1.0,95,130.0
2807,G2,546.0,0.5,95,130.0
2808,G5,546.125,0.125,95,130.0
2809,A5,546.25,0.25,95,130.0
2810,B5,546.5,0.5,95,130.0
2811,D3,546.5,133/1000,95,130.0
2812,B2,546.5,0.5,95,130.0
2813,B5,547.0,2.0,95,130.0
2814,G3,547.0,133/1000,95,130.0
2815,D3,547.0,0.5,95,130.0
2816,C3,547.0,0.5,95,130.0
2817,B3,547.5,0.5,95,130.0
2818,A2,547.5,0.5,95,130.0
2819,E2,547.5,0.5,95,130.0
2820,C4,548.0,0.5,95,130.0
2821,E3,548.0,1.5,95,130.0
2822,A2,548.0,0.5,95,130.0
2823,E3,548.5,0.5,95,130.0
2824,C3,548.5,0.5,95,130.0
2825,B5,549.0,2.0,95,130.0
2826,A3,549.0,0.5,95,130.0
2827,D3,549.0,0.5,95,130.0
2828,C4,549.5,0.5,95,130.0
2829,B2,549.5,0.5,95,130.0
2830,G2,549.5,0.5,95,130.0
2831,D4,550.0,0.5,95,130.0
2832,G3,550.0,1.0,95,130.0
2833,B2,550.0,0.5,95,130.0
2834,G3,550.5,0.5,95,130.0
2835,D3,550.5,0.5,95,130.0
2836,C6,551.0,2.0,95,130.0
2837,B3,551.0,0.5,95,130.0
2838,G3,551.0,0.5,95,130.0
2839,D4,551.5,0.5,95,130.0
2840,D3,551.5,0.25,95,130.0
2841,D3,551.75,0.25,95,130.0
2842,G4,552.0,0.5,95,130.0
2843,F3,552.0,0.5,95,130.0
2844,D4,552.5,0.25,95,130.0
2845,E3,552.5,1.0,95,130.0
2846,D4,552.75,0.25,95,130.0
2847,D6,553.0,2.0,95,130.0
2848,F4,553.0,0.5,95,130.0
2849,E4,553.5,1.0,95,130.0
2850,C3,553.5,0.5,95,130.0
2851,C2,553.5,0.5,95,130.0
2852,E3,554.0,0.5,95,130.0
2853,E2,554.0,0.5,95,130.0
2854,C3,554.5,0.5,95,130.0
2855,G3,554.5,0.5,95,130.0
2856,G2,554.5,0.5,95,130.0
2857,E3,555.0,0.5,95,130.0
2858,G3,555.0,2.0,95,130.0
2859,C3,555.0,0.5,95,130.0
2860,G3,555.5,0.5,95,130.0
2861,D3,555.5,0.5,95,130.0
2862,D6,556.0,0.5,95,130.0
2863,C4,556.0,0.5,95,130.0
2864,E3,556.0,0.5,95,130.0
2865,D6,556.5,2.5,95,130.0
2866,D4,556.5,0.5,95,130.0
2867,F3,556.5,0.5,95,130.0
2868,E4,557.0,0.5,95,130.0
2869,D2,557.0,0.5,95,130.0
2870,F4,557.5,0.5,95,130.0
2871,A3,557.5,1.5,95,130.0
2872,A2,557.5,0.5,95,130.0
2873,D3,558.0,0.5,95,130.0
2874,E3,558.0,0.5,95,130.0
2875,A3,558.5,0.5,95,130.0
2876,F3,558.5,0.5,95,130.0
2877,C6,559.0,0.5,95,130.0
2878,E4,559.0,0.5,95,130.0
2879,B-1,559.0,0.5,95,130.0
2880,D6,559.5,0.5,95,130.0
2881,F4,559.5,0.5,95,130.0
2882,F3,559.5,1.5,95,130.0
2883,G2,559.5,0.5,95,130.0
2884,E6,560.0,1.0,95,130.0
2885,B-2,560.0,0.5,95,130.0
2886,D3,560.0,0.5,95,130.0
2887,G3,560.5,0.5,95,130.0
2888,E3,560.5,0.5,95,130.0
2889,E6,561.0,2.0,95,130.0
2890,D4,561.0,0.5,95,130.0
2891,C2,561.0,0.5,95,130.0
2892,E4,561.5,0.5,95,130.0
2893,G3,561.5,1.5,95,130.0
2894,G2,561.5,0.5,95,130.0
2895,C3,562.0,0.5,95,130.0
2896,E3,562.0,0.5,95,130.0
2897,G3,562.5,0.5,95,130.0
2898,C3,562.5,0.5,95,130.0
2899,E4,563.0,0.5,95,130.0
2900,A1,563.0,0.5,95,130.0
2901,C4,563.5,0.5,95,130.0
2902,E3,563.5,1.5,95,130.0
2903,F2,563.5,0.5,95,130.0
2904,A2,564.0,0.5,95,130.0
2905,C3,564.0,0.5,95,130.0
2906,F3,564.5,0.5,95,130.0
2907,D3,564.5,0.5,95,130.0
2908,E6,565.0,2.0,95,130.0
2909,C4,565.0,0.5,95,130.0
2910,B-1,565.0,0.5,95,130.0
2911,D4,565.5,0.5,95,130.0
2912,F3,565.5,1.5,95,130.0
2913,F2,565.5,0.5,95,130.0
2914,B-2,566.0,0.5,95,130.0
2915,D3,566.0,0.5,95,130.0
2916,F3,566.5,0.5,95,130.0
2917,B-2,566.5,0.5,95,130.0
2918,D4,567.0,0.5,95,130.0
2919,G1,567.0,0.5,95,130.0
2920,B-3,567.5,0.5,95,130.0
2921,D3,567.5,1.5,95,130.0
2922,E1,567.5,0.5,95,130.0
2923,G2,568.0,0.5,95,130.0
2924,B-2,568.0,0.5,95,130.0
2925,D6,568.5,0.5,95,130.0
2926,E2,568.5,0.5,95,130.0
2927,A2,568.5,0.5,95,130.0
2928,D6,569.0,2.0,95,130.0
2929,B-3,569.0,0.5,95,130.0
2930,F2,569.0,0.5,95,130.0
2931,F2,569.0,0.5,95,130.0
2932,A3,569.5,0.5,95,130.0
2933,C3,569.5,0.5,79,130.0
2934,C2,569.5,0.5,95,130.0
2935,F3,570.0,0.5,95,130.0
2936,F3,570.0,1.0,95,130.0
2937,F2,570.0,0.5,95,130.0
2938,C3,570.5,0.5,95,130.0
2939,A2,570.5,0.5,95,130.0
2940,F3,571.0,0.5,95,130.0
2941,F3,571.0,1.0,95,130.0
2942,B2,571.0,0.5,95,130.0
2943,A3,571.5,0.5,95,130.0
2944,C3,571.5,0.5,95,130.0
2945,B3,572.0,0.5,95,130.0
2946,C3,572.0,0.5,95,130.0
2947,A1,572.0,0.5,95,130.0
2948,C6,572.5,0.5,95,130.0
2949,C4,572.5,0.5,95,130.0
2950,E3,572.5,1.5,95,130.0
2951,E1,572.5,0.5,95,130.0
2952,C6,573.0,2.0,95,130.0
2953,A2,573.0,0.5,95,130.0
2954,C3,573.0,0.5,95,130.0
2955,E2,573.5,0.5,95,130.0
2956,D3,573.5,0.5,95,130.0
2957,C4,574.0,0.5,95,130.0
2958,D3,574.0,0.5,95,130.0
2959,B-1,574.0,0.5,95,130.0
2960,D4,574.5,0.5,95,130.0
2961,F3,574.5,0.5,95,130.0
2962,F1,574.5,0.5,95,130.0
2963,C6,575.0,1.0,95,130.0
2964,B-2,575.0,0.5,95,130.0
2965,B-3,575.0,2.0,95,130.0
2966,B-2,575.0,0.5,95,130.0
2967,F2,575.5,0.5,95,130.0
2968,D3,575.5,0.5,95,130.0
2969,C6,576.0,2.0,95,130.0
2970,B-3,576.0,0.5,95,130.0
2971,E3,576.0,0.5,95,130.0
2972,D4,576.5,0.5,95,130.0
2973,F3,576.5,0.5,95,130.0
2974,E4,577.0,0.5,95,130.0
2975,C3,577.0,0.5,95,130.0
2976,C2,577.0,0.5,95,130.0
2977,F4,577.5,0.5,95,130.0
2978,G3,577.5,0.5,95,130.0
2979,G1,577.5,0.5,95,130.0
2980,C6,578.0,1.0,95,130.0
2981,C3,578.0,0.5,95,130.0
2982,C4,578.0,1.0,95,130.0
2983,C3,578.0,0.5,95,130.0
2984,G2,578.5,0.5,95,130.0
2985,E3,578.5,0.5,95,130.0
2986,C6,579.0,2.0,95,130.0
2987,C4,579.0,0.5,95,130.0
2988,C4,579.0,1.0,95,130.0
2989,F3,579.0,0.5,95,130.0
2990,E4,579.5,0.5,95,130.0
2991,G3,579.5,0.5,95,130.0
2992,F4,580.0,0.5,95,130.0
2993,D2,580.0,1.0,95,130.0
2994,G3,580.0,1.0,95,130.0
2995,D3,580.0,1.0,95,130.0
2996,G4,580.5,0.5,95,130.0
2997,D6,581.0,2.0,95,130.0
2998,D5,581.0,1.0,95,130.0
2999,G4,581.0,1.0,95,130.0
3000,D4,581.0,1.0,95,130.0
3001,D6,583.0,1.0,95,130.0
3002,D6,584.0,1.0,95,130.0
3003,A1,584.0,4.0,95,130.0
3004,C#4,587.0,0.5,95,130.0
3005,D4,587.5,0.5,95,130.0
3006,C#4,588.0,0.5,95,130.0
3007,A1,588.0,4.0,95,130.0
3008,B3,588.5,0.5,95,130.0
3009,B3,589.0,1.5,95,130.0
3010,C#4,590.0,0.5,95,130.0
3011,D4,590.5,0.5,95,130.0
3012,A3,590.5,1.0,95,130.0
3013,C#4,591.0,0.5,95,130.0
3014,B3,591.5,0.5,95,130.0
3015,B3,592.0,1.5,95,130.0
3016,E1,592.0,4.0,95,130.0
3017,B2,593.0,1.969,79,130.0
3018,E3,593.0,1.969,79,130.0
3019,B3,593.062,1.906,95,130.0
3020,B3,593.062,1.906,95,130.0
3021,A3,593.5,1.0,95,130.0
3022,B2,596.0,1.969,79,130.0
3023,E3,596.0,1.969,79,130.0
3024,B3,596.062,1.906,95,130.0
3025,B3,596.062,1.906,95,130.0
3026,G3,596.5,0.5,95,130.0
3027,G4,596.5,0.75,95,130.0
3028,G3,597.0,1.5,95,130.0
3029,F#4,597.25,0.625,95,130.0
3030,E4,597.875,0.125,95,130.0
3031,D4,598.5,1.0,95,130.0
3032,G3,599.5,0.5,95,130.0
3033,E4,599.5,1.0,95,130.0
3034,G3,600.0,1.5,95,130.0
3035,A1,600.0,4.0,95,130.0
3036,C#4,600.5,0.5,95,130.0
3037,C#4,601.0,1.0,95,130.0
3038,D4,601.5,1.0,95,130.0
3039,E4,602.5,1.0,95,130.0
3040,A3,602.5,0.5,95,130.0
3041,C#4,603.0,0.5,95,130.0
3042,C#4,603.5,0.5,95,130.0
3043,D4,603.5,0.5,95,130.0
3044,C#4,604.0,1.0,95,130.0
3045,C#4,604.0,0.5,95,130.0
3046,D4,604.5,0.5,95,130.0
3047,B3,604.5,0.5,95,130.0
3048,C#3,605.0,0.5,95,130.0
3049,A3,605.5,0.5,95,130.0
3050,D3,605.5,0.5,95,130.0
3051,C#4,606.0,0.5,95,130.0
3052,C#3,606.0,0.5,95,130.0
3053,D4,606.5,0.5,95,130.0
3054,B2,606.5,1.5,95,130.0
3055,C#4,606.5,1.0,95,130.0
3056,A3,606.5,1.0,95,130.0
3057,C#4,607.0,0.5,95,130.0
3058,D4,607.5,0.5,95,130.0
3059,B3,607.5,0.5,95,130.0
3060,C3,608.0,2.0,95,130.0
3061,E3,609.0,0.969,95,130.0
3062,B3,609.0,0.969,95,130.0
3063,B3,609.062,0.938,95,130.0
3064,C#4,609.5,1.0,95,130.0
3065,A3,609.5,1.0,95,130.0
3066,C2,610.0,2.0,95,130.0
3067,C4,611.5,0.5,95,130.0
3068,B3,612.0,0.5,95,130.0
3069,D2,612.0,1.5,95,130.0
3070,E3,612.0,0.969,95,130.0
3071,B3,612.0,0.969,95,130.0
3072,B3,612.062,0.938,95,130.0
3073,A3,612.5,0.5,95,130.0
3074,A3,613.0,0.5,95,130.0
3075,D3,613.5,0.5,95,130.0
3076,D3,613.5,2.0,95,130.0
3077,F#3,614.0,0.5,95,130.0
3078,C4,614.5,0.5,95,130.0
3079,G3,614.5,1.0,95,130.0
3080,B3,615.0,0.5,95,130.0
3081,A3,615.5,0.5,95,130.0
3082,F#3,615.5,0.5,47,130.0
3083,G2,615.5,0.5,95,130.0
3084,A3,616.0,0.5,95,130.0
3085,D3,616.0,0.5,47,130.0
3086,A1,616.0,4.0,95,130.0
3087,D3,616.5,0.5,95,130.0
3088,G2,616.5,0.5,47,130.0
3089,F#3,617.0,0.5,95,130.0
3090,A2,617.0,1.0,95,130.0
3091,G2,617.0,1.0,47,130.0
3092,G3,617.5,1.0,95,130.0
3093,A2,618.0,0.5,47,130.0
3094,F#3,618.5,0.5,47,130.0
3095,A3,618.5,0.5,95,130.0
3096,D3,619.0,0.5,47,130.0
3097,C#4,619.0,0.5,95,130.0
3098,G2,619.5,0.5,47,130.0
3099,D4,619.5,0.5,95,130.0
3100,A2,620.0,1.0,95,130.0
3101,G2,620.0,1.0,47,130.0
3102,C#4,620.0,0.5,95,130.0
3103,A1,620.0,4.0,95,130.0
3104,B3,620.5,0.5,95,130.0
3105,A2,621.0,0.5,47,130.0
3106,B3,621.0,1.5,95,130.0
3107,A3,621.5,0.5,95,130.0
3108,C#4,622.0,0.5,95,130.0
3109,D4,622.5,0.5,95,130.0
3110,A3,622.5,1.0,95,130.0
3111,C#4,623.0,0.5,95,130.0
3112,B3,623.5,0.5,95,130.0
3113,B3,624.0,1.5,95,130.0
3114,E1,624.0,4.0,95,130.0
3115,E3,625.0,1.0,95,130.0
3116,B3,625.062,0.938,95,130.0
3117,B3,625.125,0.875,95,130.0
3118,A3,625.5,1.0,95,130.0
3119,E5,627.5,0.5,63,130.0
3120,E6,627.5,0.5,63,130.0
3121,E3,628.0,2.0,95,130.0
3122,E1,628.0,0.5,95,130.0
3123,B3,628.062,1.938,95,130.0
3124,B3,628.125,1.875,95,130.0
3125,F#1,628.5,1.5,95,130.0
3126,B4,628.5,0.5,63,130.0
3127,B5,628.5,0.5,63,130.0
3128,B4,629.0,1.5,63,130.0
3129,B5,629.0,1.5,63,130.0
3130,F#2,629.5,1.5,95,130.0
3131,G1,630.0,2.0,95,130.0
3132,E5,630.5,0.5,63,130.0
3133,E6,630.5,0.5,63,130.0
3134,D4,630.5,2.0,63,130.0
3135,D5,630.5,2.0,63,130.0
3136,G2,631.0,1.5,95,130.0
3137,B4,631.5,0.5,63,130.0
3138,B5,631.5,0.5,63,130.0
3139,A1,632.0,4.0,95,130.0
3140,B4,632.0,1.5,63,130.0
3141,B5,632.0,1.5,63,130.0
3142,F#2,632.5,1.5,95,130.0
3143,E4,632.5,0.5,95,130.0
3144,A2,633.0,1.5,95,130.0
3145,E4,633.0,1.0,95,130.0
3146,D4,633.5,2.0,63,130.0
3147,D5,633.5,2.0,63,130.0
3148,G2,634.0,1.5,95,130.0
3149,E3,634.0,0.5,47,130.0
3150,A3,634.5,0.5,95,130.0
3151,C#4,635.0,0.5,95,130.0
3152,E4,635.5,0.5,95,130.0
3153,D4,635.5,0.5,95,130.0
3154,A2,636.0,1.5,95,130.0
3155,E4,636.0,1.0,95,130.0
3156,C#4,636.0,0.5,95,130.0
3157,C#4,636.5,0.25,95,130.0
3158,E3,637.0,0.5,47,130.0
3159,E4,637.0,0.5,95,130.0
3160,A3,637.5,0.5,95,130.0
3161,D4,637.5,0.5,95,130.0
3162,C#4,638.0,0.5,95,130.0
3163,C#4,638.0,0.5,95,130.0
3164,D4,638.5,0.5,95,130.0
3165,D4,638.5,1.0,71,130.0
3166,B3,638.5,1.0,71,130.0
3167,C#4,639.0,0.5,95,130.0
3168,C#4,639.5,1.5,71,130.0
3169,A3,639.5,1.5,71,130.0
3170,E4,640.0,0.5,95,130.0
3171,F1,640.0,4.0,95,130.0
3172,D4,640.5,0.5,95,130.0
3173,C#4,641.0,0.5,95,130.0
3174,E3,641.0,1.0,95,130.0
3175,B3,641.062,0.938,95,130.0
3176,B3,641.125,0.875,95,130.0
3177,D4,641.5,1.0,71,130.0
3178,B3,641.5,1.0,71,130.0
3179,C#4,642.5,1.5,71,130.0
3180,A3,642.5,1.5,71,130.0
3181,B3,643.5,1.0,95,130.0
3182,E3,644.0,1.0,95,130.0
3183,G1,644.0,4.0,95,130.0
3184,B3,644.062,0.938,95,130.0
3185,B3,644.125,0.875,95,130.0
3186,A3,644.5,0.5,95,130.0
3187,B3,646.5,1.0,95,130.0
3188,A3,647.5,0.5,95,130.0
3189,F#3,647.5,1.0,95,130.0
3190,A1,648.0,2.0,95,130.0
3191,E3,648.5,0.5,95,130.0
3192,A1,650.0,4.0,95,130.0
3193,F#3,650.5,1.0,95,130.0
3194,A3,651.0,4.0,63,130.0
3195,A4,651.0,4.0,63,130.0
3196,E3,651.5,0.5,95,130.0
3197,C#4,652.0,3.0,63,130.0
3198,C#5,652.0,3.0,63,130.0
3199,D4,653.0,2.0,63,130.0
3200,D5,653.0,2.0,63,130.0
3201,A1,654.0,3.0,95,130.0
3202,A3,654.0,4.0,63,130.0
3203,A4,654.0,4.0,63,130.0
3204,C#4,655.0,3.0,63,130.0
3205,C#5,655.0,3.0,63,130.0
3206,D4,656.0,2.0,63,130.0
3207,D5,656.0,2.0,63,130.0
3208,A3,657.0,2.0,63,130.0
3209,A4,657.0,2.0,63,130.0
3210,C#4,657.0,2.0,63,130.0
3211,C#5,657.0,2.0,63,130.0
3212,D4,657.0,2.0,63,130.0
3213,D5,657.0,2.0,63,130.0
3214,A3,660.0,2.0,63,130.0
3215,A4,660.0,2.0,63,130.0
3216,C#4,660.0,2.0,63,130.0
3217,C#5,660.0,2.0,63,130.0
3218,D4,660.0,2.0,63,130.0
3219,D5,660.0,2.0,63,130.0
3220,A2,663.0,1.5,63,130.0
3221,A3,663.5,1.5,63,130.0
3222,A2,664.5,1.5,63,130.0
3223,A3,665.0,0.5,63,130.0
3224,B-3,665.5,1.0,38,130.0
3225,A2,666.0,1.0,63,130.0
3226,G3,666.5,0.5,63,130.0
3227,A2,667.0,1.5,63,130.0
3228,A3,667.5,1.5,63,130.0
3229,A2,668.5,1.5,63,130.0
3230,A3,669.0,0.5,63,130.0
3231,B-3,669.5,1.0,38,130.0
3232,A2,670.0,1.0,63,130.0
3233,G3,670.5,0.5,63,130.0
3234,A2,671.0,1.5,63,130.0
3235,A3,671.5,1.5,63,130.0
3236,A2,672.5,1.5,63,130.0
3237,A3,673.0,0.5,63,130.0
3238,B-3,673.5,1.0,38,130.0
3239,A2,674.0,1.0,63,130.0
3240,G3,674.5,0.5,63,130.0
3241,A3,675.0,0.5,63,130.0
3242,A2,675.0,0.5,63,130.0
3243,A2,675.5,1.5,63,130.0
3244,E3,676.0,0.5,63,130.0
3245,F3,676.5,1.0,38,130.0
3246,A2,677.0,2.0,63,130.0
3247,D3,677.5,0.5,63,130.0
3248,E3,678.0,1.0,38,130.0
3249,A2,679.0,1.5,95,130.0
3250,A3,679.5,1.5,95,130.0
3251,A2,680.5,1.5,95,130.0
3252,A3,681.0,0.5,95,130.0
3253,B-3,681.5,1.0,70,130.0
3254,A2,682.0,1.0,95,130.0
3255,G3,682.5,0.5,95,130.0
3256,A2,683.0,1.5,95,130.0
3257,A3,683.5,1.5,95,130.0
3258,A2,684.5,1.5,95,130.0
3259,A3,685.0,0.5,95,130.0
3260,B-3,685.5,1.0,70,130.0
3261,A2,686.0,1.0,95,130.0
3262,G3,686.5,0.5,95,130.0
3263,A2,687.0,1.5,95,130.0
3264,A3,687.5,1.5,95,130.0
3265,A2,688.5,1.5,95,130.0
3266,A3,689.0,0.5,95,130.0
3267,A1,689.0,0.5,95,130.0
3268,B-3,689.5,1.0,70,130.0
3269,A2,689.5,1.0,95,130.0
3270,A2,690.0,1.0,95,130.0
3271,G3,690.5,0.5,95,130.0
3272,A1,690.5,0.5,95,130.0
3273,A3,691.0,0.5,95,130.0
3274,A2,691.0,0.5,95,130.0
3275,A2,691.0,0.5,95,130.0
3276,A2,691.5,1.5,95,130.0
3277,B-2,691.5,0.5,95,130.0
3278,E3,692.0,0.5,95,130.0
3279,A1,692.0,1.0,95,130.0
3280,F3,692.5,1.0,70,130.0
3281,G2,692.5,0.5,95,130.0
3282,A2,693.0,2.0,95,130.0
3283,A1,693.0,1.5,95,130.0
3284,D3,693.5,0.5,95,130.0
3285,A2,693.5,0.5,95,130.0
3286,E3,694.0,1.0,70,130.0
3287,A1,694.5,0.5,95,130.0
3288,A2,695.0,1.5,95,130.0
3289,A2,695.0,0.5,95,130.0
3290,A3,695.5,1.5,95,130.0
3291,B-2,695.5,1.0,95,130.0
3292,A1,696.0,0.5,95,130.0
3293,A2,696.5,1.5,95,130.0
3294,G2,696.5,0.5,95,130.0
3295,A3,697.0,0.5,95,130.0
3296,A1,697.0,1.5,95,130.0
3297,B-3,697.5,1.0,70,130.0
3298,A2,697.5,0.5,95,130.0
3299,A2,698.0,1.0,95,130.0
3300,G3,698.5,0.5,95,130.0
3301,A1,698.5,0.5,95,130.0
3302,A2,699.0,1.5,95,130.0
3303,A2,699.0,0.5,95,130.0
3304,A3,699.5,1.5,95,130.0
3305,B-2,699.5,1.0,95,130.0
3306,A1,700.0,0.5,95,130.0
3307,A2,700.5,1.5,95,130.0
3308,G2,700.5,0.5,95,130.0
3309,A3,701.0,0.5,95,130.0
3310,A2,701.0,1.0,95,130.0
3311,B-3,701.5,1.0,70,130.0
3312,A1,701.5,0.5,95,130.0
3313,A2,702.0,1.0,95,130.0
3314,E2,702.0,0.5,95,130.0
3315,G3,702.5,0.5,95,130.0
3316,F2,702.5,1.0,95,130.0
3317,A2,703.0,1.5,95,130.0
3318,A1,703.0,0.5,95,130.0
3319,A3,703.5,1.5,95,130.0
3320,D2,703.5,0.5,95,130.0
3321,E2,704.0,1.0,95,130.0
3322,A2,704.5,1.5,95,130.0
3323,A3,705.0,0.5,95,130.0
3324,A1,705.0,0.5,95,130.0
3325,B-3,705.5,1.0,70,130.0
3326,A2,705.5,1.0,95,130.0
3327,A2,706.0,1.0,95,130.0
3328,G3,706.5,0.5,95,130.0
3329,A1,706.5,0.5,95,130.0
3330,A3,707.0,0.5,95,130.0
3331,A2,707.0,0.5,95,130.0
3332,A2,707.0,0.5,95,130.0
3333,A2,707.5,1.5,95,130.0
3334,B-2,707.5,0.5,95,130.0
3335,E3,708.0,0.5,95,130.0
3336,A3,708.0,0.5,47,130.0
3337,A1,708.0,1.0,95,130.0
3338,F3,708.5,1.0,70,130.0
3339,A4,708.5,1.0,95,130.0
3340,G2,708.5,0.5,95,130.0
3341,A2,709.0,2.0,95,130.0
3342,A1,709.0,1.5,95,130.0
3343,D3,709.5,0.5,95,130.0
3344,A3,709.5,0.5,47,130.0
3345,A2,709.5,0.5,95,130.0
3346,E3,710.0,1.0,70,130.0
3347,A4,710.0,0.5,95,130.0
3348,B-4,710.5,0.5,95,130.0
3349,A1,710.5,0.5,95,130.0
3350,A2,711.0,1.5,79,130.0
3351,A3,711.0,0.5,47,130.0
3352,A2,711.0,0.5,95,130.0
3353,A3,711.5,1.5,79,130.0
3354,G4,711.5,0.5,95,130.0
3355,B-2,711.5,1.0,95,130.0
3356,A3,712.0,0.5,47,130.0
3357,A1,712.0,0.5,95,130.0
3358,A2,712.5,1.5,95,130.0
3359,A4,712.5,1.0,95,130.0
3360,G2,712.5,0.5,95,130.0
3361,A3,713.0,0.5,95,130.0
3362,A1,713.0,1.5,95,130.0
3363,B-3,713.5,1.0,70,130.0
3364,A3,713.5,0.5,47,130.0
3365,A2,713.5,0.5,95,130.0
3366,A2,714.0,1.0,95,130.0
3367,A4,714.0,0.5,95,130.0
3368,G3,714.5,0.5,95,130.0
3369,B-4,714.5,0.5,95,130.0
3370,A1,714.5,0.5,95,130.0
3371,A2,715.0,1.5,95,130.0
3372,A3,715.0,0.5,47,130.0
3373,A2,715.0,0.5,95,130.0
3374,A3,715.5,1.5,95,130.0
3375,G4,715.5,0.5,95,130.0
3376,B-2,715.5,1.0,95,130.0
3377,A3,716.0,0.5,47,130.0
3378,A1,716.0,0.5,95,130.0
3379,A2,716.5,1.5,95,130.0
3380,A4,716.5,1.0,95,130.0
3381,G2,716.5,0.5,95,130.0
3382,A3,717.0,0.5,95,130.0
3383,A2,717.0,1.0,95,130.0
3384,B-3,717.5,1.0,70,130.0
3385,A3,717.5,0.5,47,130.0
3386,A1,717.5,0.5,95,130.0
3387,A2,718.0,1.0,95,130.0
3388,A4,718.0,0.5,95,130.0
3389,E2,718.0,0.5,95,130.0
3390,G3,718.5,0.5,95,130.0
3391,B-4,718.5,0.5,95,130.0
3392,F2,718.5,1.0,95,130.0
3393,A2,719.0,1.5,95,130.0
3394,A3,719.0,0.5,47,130.0
3395,A1,719.0,0.5,95,130.0
3396,A3,719.5,1.5,95,130.0
3397,G4,719.5,0.5,95,130.0
3398,D2,719.5,0.5,95,130.0
3399,A4,720.0,0.5,95,130.0
3400,E2,720.0,1.0,95,130.0
3401,A2,720.5,1.5,95,130.0
3402,A3,720.5,0.5,47,130.0
3403,A3,721.0,0.5,95,130.0
3404,E4,721.0,0.5,95,130.0
3405,A1,721.0,0.5,95,130.0
3406,B-3,721.5,1.0,70,130.0
3407,F4,721.5,0.5,95,130.0
3408,A2,721.5,1.0,95,130.0
3409,A2,722.0,1.0,95,130.0
3410,A3,722.0,0.5,47,130.0
3411,G3,722.5,0.5,95,130.0
3412,D4,722.5,0.5,95,130.0
3413,A1,722.5,0.5,95,130.0
3414,A3,723.0,0.5,95,130.0
3415,A2,723.0,0.5,95,130.0
3416,E4,723.0,1.0,95,130.0
3417,A2,723.0,0.5,95,130.0
3418,A2,723.5,1.5,95,130.0
3419,B-2,723.5,0.5,95,130.0
3420,E3,724.0,0.5,95,130.0
3421,A3,724.0,0.5,47,130.0
3422,A1,724.0,1.0,95,130.0
3423,F3,724.5,1.0,70,130.0
3424,A4,724.5,1.0,95,130.0
3425,G2,724.5,0.5,95,130.0
3426,A2,725.0,2.0,95,130.0
3427,A1,725.0,1.5,95,130.0
3428,D3,725.5,0.5,95,130.0
3429,A3,725.5,0.5,47,130.0
3430,A2,725.5,0.5,95,130.0
3431,E3,726.0,1.0,70,130.0
3432,A4,726.0,0.5,95,130.0
3433,B-4,726.5,0.5,95,130.0
3434,A1,726.5,0.5,95,130.0
3435,A2,727.0,1.5,95,130.0
3436,A3,727.0,0.5,47,130.0
3437,A2,727.0,0.5,95,130.0
3438,A3,727.5,1.5,95,130.0
3439,G4,727.5,0.5,95,130.0
3440,B-2,727.5,1.0,95,130.0
3441,A3,728.0,0.5,47,130.0
3442,A1,728.0,0.5,95,130.0
3443,A2,728.5,1.5,95,130.0
3444,A4,728.5,1.0,95,130.0
3445,G2,728.5,0.5,95,130.0
3446,A3,729.0,0.5,95,130.0
3447,A1,729.0,1.5,95,130.0
3448,B-3,729.5,1.0,70,130.0
3449,A3,729.5,0.5,47,130.0
3450,A2,729.5,0.5,95,130.0
3451,A2,730.0,1.0,95,130.0
3452,A4,730.0,0.5,95,130.0
3453,G3,730.5,0.5,95,130.0
3454,B-4,730.5,0.5,95,130.0
3455,A1,730.5,0.5,95,130.0
3456,A2,731.0,1.5,95,130.0
3457,A3,731.0,0.5,47,130.0
3458,A2,731.0,0.5,95,130.0
3459,A3,731.5,1.5,95,130.0
3460,G4,731.5,0.5,95,130.0
3461,B-2,731.5,1.0,95,130.0
3462,A3,732.0,0.5,47,130.0
3463,A1,732.0,0.5,95,130.0
3464,A2,732.5,1.5,95,130.0
3465,A4,732.5,1.0,95,130.0
3466,G2,732.5,0.5,95,130.0
3467,A3,733.0,0.5,95,130.0
3468,A2,733.0,1.0,95,130.0
3469,B-3,733.5,1.0,70,130.0
3470,A3,733.5,0.5,47,130.0
3471,A1,733.5,0.5,95,130.0
3472,A2,734.0,1.0,95,130.0
3473,A4,734.0,0.5,95,130.0
3474,E2,734.0,0.5,95,130.0
3475,G3,734.5,0.5,95,130.0
3476,B-4,734.5,0.5,95,130.0
3477,F2,734.5,1.0,95,130.0
3478,A2,735.0,1.5,95,130.0
3479,A3,735.0,0.5,47,130.0
3480,A1,735.0,0.5,95,130.0
3481,A3,735.5,1.5,95,130.0
3482,G4,735.5,0.5,95,130.0
3483,D2,735.5,0.5,95,130.0
3484,A4,736.0,0.5,95,130.0
3485,E2,736.0,1.0,95,130.0
3486,A2,736.5,1.5,95,130.0
3487,A3,736.5,0.5,47,130.0
3488,A3,737.0,0.5,95,130.0
3489,E4,737.0,0.5,95,130.0
3490,A1,737.0,0.5,95,130.0
3491,B-3,737.5,1.0,70,130.0
3492,F4,737.5,0.5,95,130.0
3493,A2,737.5,1.0,95,130.0
3494,A2,738.0,1.0,95,130.0
3495,A3,738.0,0.5,47,130.0
3496,G3,738.5,0.5,95,130.0
3497,D4,738.5,0.5,95,130.0
3498,A1,738.5,0.5,95,130.0
3499,A3,739.0,0.5,95,130.0
3500,A2,739.0,0.5,95,130.0
3501,E4,739.0,1.0,95,130.0
3502,A2,739.0,0.5,95,130.0
3503,A2,739.5,1.5,95,130.0
3504,B-2,739.5,0.5,95,130.0
3505,E3,740.0,0.5,95,130.0
3506,A3,740.0,0.5,47,130.0
3507,A1,740.0,1.0,95,130.0
3508,F3,740.5,1.0,70,130.0
3509,A4,740.5,1.0,95,130.0
3510,G2,740.5,0.5,95,130.0
3511,A2,741.0,2.0,95,130.0
3512,A1,741.0,1.5,95,130.0
3513,D3,741.5,0.5,95,130.0
3514,A3,741.5,0.5,47,130.0
3515,A2,741.5,0.5,95,130.0
3516,E3,742.0,1.0,70,130.0
3517,A4,742.0,0.5,95,130.0
3518,B-4,742.5,0.5,95,130.0
3519,A1,742.5,0.5,95,130.0
3520,A2,743.0,1.5,95,130.0
3521,A3,743.0,0.5,47,130.0
3522,A2,743.0,0.5,95,130.0
3523,A3,743.5,1.5,95,130.0
3524,G4,743.5,0.5,95,130.0
3525,B-2,743.5,1.0,95,130.0
3526,A3,744.0,0.5,47,130.0
3527,A1,744.0,0.5,95,130.0
3528,A2,744.5,1.5,95,130.0
3529,A4,744.5,1.0,95,130.0
3530,G2,744.5,0.5,95,130.0
3531,A3,745.0,0.5,95,130.0
3532,A1,745.0,1.5,95,130.0
3533,B-3,745.5,1.0,70,130.0
3534,A3,745.5,0.5,47,130.0
3535,A2,745.5,0.5,95,130.0
3536,A2,746.0,1.0,95,130.0
3537,A4,746.0,0.5,95,130.0
3538,G3,746.5,0.5,95,130.0
3539,B-4,746.5,0.5,95,130.0
3540,A1,746.5,0.5,95,130.0
3541,A2,747.0,1.5,95,130.0
3542,A3,747.0,0.5,47,130.0
3543,A2,747.0,0.5,95,130.0
3544,A3,747.5,1.5,95,130.0
3545,G4,747.5,0.5,95,130.0
3546,B-2,747.5,1.0,95,130.0
3547,A3,748.0,0.5,47,130.0
3548,A1,748.0,0.5,95,130.0
3549,A2,748.5,1.5,95,130.0
3550,A4,748.5,1.0,95,130.0
3551,G2,748.5,0.5,95,130.0
3552,A3,749.0,0.5,95,130.0
3553,A2,749.0,0.5,95,130.0
3554,B-3,749.5,1.0,70,130.0
3555,A3,749.5,0.5,47,130.0
3556,A2,750.0,1.0,95,130.0
3557,A4,750.0,0.5,95,130.0
3558,E2,750.0,0.5,95,130.0
3559,G3,750.5,0.5,95,130.0
3560,B-4,750.5,0.5,95,130.0
3561,F2,750.5,1.0,95,130.0
3562,A2,751.0,1.5,95,130.0
3563,A3,751.0,0.5,47,130.0
3564,A3,751.5,1.5,95,130.0
3565,G4,751.5,0.5,95,130.0
3566,D2,751.5,0.5,95,130.0
3567,A4,752.0,0.5,95,130.0
3568,E2,752.0,1.0,95,130.0
3569,A2,752.5,1.5,95,130.0
3570,A3,753.0,0.5,95,130.0
3571,G1,753.0,1.5,95,130.0
3572,E4,753.0,0.5,95,130.0
3573,B3,753.0,0.5,95,130.0
3574,E3,753.0,0.5,95,130.0
3575,B-3,753.5,1.0,70,130.0
3576,F4,753.5,0.5,95,130.0
3577,C4,753.5,0.5,95,130.0
3578,F3,753.5,0.5,95,130.0
3579,A2,754.0,1.0,95,130.0
3580,G3,754.5,0.5,95,130.0
3581,A1,754.5,1.5,95,130.0
3582,D4,754.5,0.5,95,130.0
3583,A3,754.5,0.5,95,130.0
3584,D3,754.5,0.5,95,130.0
3585,A3,755.0,0.5,95,130.0
3586,A2,755.0,0.5,95,130.0
3587,E4,755.0,1.0,95,130.0
3588,B3,755.0,1.0,95,130.0
3589,E3,755.0,1.0,95,130.0
3590,A2,755.5,0.5,15,130.0
3591,G3,755.5,7/100,31,130.0
3592,D3,755.5,7/100,31,130.0
3593,G4,756.0,0.5,95,130.0
3594,B-1,756.0,1.0,95,130.0
3595,E4,756.0,0.5,111,130.0
3596,B3,756.0,0.5,111,130.0
3597,E3,756.0,0.5,111,130.0
3598,G4,756.5,0.5,95,130.0
3599,F4,756.5,0.5,111,130.0
3600,C4,756.5,0.5,111,130.0
3601,F3,756.5,0.5,111,130.0
3602,G4,757.0,0.5,95,130.0
3603,G4,757.5,0.5,95,130.0
3604,D4,757.5,0.5,111,130.0
3605,A3,757.5,0.5,111,130.0
3606,D3,757.5,0.5,111,130.0
3607,G4,758.0,0.5,95,130.0
3608,E4,758.0,1.0,111,130.0
3609,B3,758.0,1.0,111,130.0
3610,E3,758.0,1.0,111,130.0
3611,G4,758.5,0.5,95,130.0
3612,G2,759.0,1.5,95,130.0
3613,G4,759.0,0.5,95,130.0
3614,G1,759.0,2.0,95,130.0
3615,G4,759.5,0.5,95,130.0
3616,B-4,760.0,0.5,95,130.0
3617,A2,760.5,1.5,95,130.0
3618,B-4,760.5,0.5,95,130.0
3619,B-4,761.0,0.5,95,130.0
3620,D2,761.0,1.5,95,130.0
3621,B-4,761.5,0.5,95,130.0
3622,B-2,762.0,1.0,95,130.0
3623,B-4,762.0,0.5,95,130.0
3624,B-4,762.5,0.5,95,130.0
3625,C#2,762.5,1.0,95,130.0
3626,B-4,763.0,0.5,95,130.0
3627,B-4,763.5,0.5,95,130.0
3628,A4,764.0,0.5,95,130.0
3629,A4,764.5,0.5,95,130.0
3630,G2,765.0,2.0,95,130.0
3631,A4,765.0,0.5,95,130.0
3632,A4,765.5,0.5,95,130.0
3633,A4,766.0,0.5,95,130.0
3634,A4,766.5,0.5,95,130.0
3635,D3,767.0,1.5,95,130.0
3636,A4,767.0,0.5,95,130.0
3637,A4,767.5,0.5,95,130.0
3638,A4,768.0,0.5,95,130.0
3639,C#3,768.5,2.5,95,130.0
3640,A4,768.5,0.5,95,130.0
3641,A4,769.0,0.5,95,130.0
3642,G1,769.0,1.5,95,130.0
3643,A4,769.5,0.5,95,130.0
3644,A4,770.0,0.5,95,130.0
3645,A4,770.5,0.5,95,130.0
3646,A1,770.5,1.5,95,130.0
3647,C#3,771.0,0.5,95,130.0
3648,A4,771.0,0.5,95,130.0
3649,A4,771.5,0.5,95,130.0
3650,G#3,771.5,3.5,95,130.0
3651,G#4,771.5,3.5,95,130.0
3652,G4,772.0,0.5,95,130.0
3653,B-1,772.0,1.0,95,130.0
3654,G4,772.5,0.5,95,130.0
3655,G4,773.0,0.5,95,130.0
3656,G4,773.5,0.5,95,130.0
3657,G4,774.0,0.5,95,130.0
3658,G4,774.5,0.5,95,130.0
3659,G2,775.0,1.5,95,130.0
3660,G4,775.0,0.5,95,130.0
3661,G1,775.0,2.0,95,130.0
3662,G4,775.5,0.5,95,130.0
3663,B-4,776.0,0.5,95,130.0
3664,A2,776.5,1.5,95,130.0
3665,B-4,776.5,0.5,95,130.0
3666,B-4,777.0,0.5,95,130.0
3667,F2,777.0,1.5,95,130.0
3668,B-4,777.5,0.5,95,130.0
3669,B-2,778.0,1.0,95,130.0
3670,B-4,778.0,0.5,95,130.0
3671,B-4,778.5,0.5,95,130.0
3672,E2,778.5,1.0,95,130.0
3673,B-4,779.0,0.5,95,130.0
3674,B-4,779.5,0.5,95,130.0
3675,A4,780.0,0.5,95,130.0
3676,A4,780.5,0.5,95,130.0
3677,F3,780.5,17/125,111,130.0
3678,F3,780.75,17/125,111,130.0
3679,G2,781.0,2.0,95,130.0
3680,A4,781.0,0.5,95,130.0
3681,F3,781.0,17/125,111,130.0
3682,A4,781.5,0.5,95,130.0
3683,E3,781.5,17/125,111,130.0
3684,E3,781.75,17/125,111,130.0
3685,A4,782.0,0.5,95,130.0
3686,E3,782.0,17/125,111,130.0
3687,A4,782.5,0.5,95,130.0
3688,D3,782.5,17/125,111,130.0
3689,D3,782.75,17/125,111,130.0
3690,F3,783.0,1.5,95,130.0
3691,A4,783.0,0.5,95,130.0
3692,D3,783.0,17/125,111,130.0
3693,A4,783.5,0.5,95,130.0
3694,C#3,783.5,0.25,111,130.0
3695,C#3,783.75,0.25,111,130.0
3696,A4,784.0,0.5,95,130.0
3697,C#3,784.0,0.25,111,130.0
3698,E3,784.5,2.0,95,130.0
3699,A4,784.5,0.5,95,130.0
3700,A2,784.5,0.5,111,130.0
3701,A4,785.0,0.5,95,130.0
3702,G1,785.0,1.5,95,130.0
3703,A4,785.5,0.5,95,130.0
3704,A4,786.0,0.5,95,130.0
3705,A4,786.5,0.5,95,130.0
3706,A1,786.5,1.5,95,130.0
3707,A4,787.0,0.5,95,130.0
3708,A4,787.5,0.5,95,130.0
3709,G4,788.0,0.5,95,130.0
3710,B-1,788.0,1.0,95,130.0
3711,G4,788.5,0.5,95,130.0
3712,G4,789.0,0.5,95,130.0
3713,G4,789.5,0.5,95,130.0
3714,G4,790.0,0.5,95,130.0
3715,G4,790.5,0.5,95,130.0
3716,G2,791.0,1.5,95,130.0
3717,G4,791.0,0.5,95,130.0
3718,G1,791.0,2.0,95,130.0
3719,G4,791.5,0.5,95,130.0
3720,B-4,792.0,0.5,95,130.0
3721,A2,792.5,1.5,95,130.0
3722,B-4,792.5,0.5,95,130.0
3723,B-4,793.0,0.5,95,130.0
3724,D2,793.0,1.5,95,130.0
3725,B-4,793.5,0.5,95,130.0
3726,B-2,794.0,1.0,95,130.0
3727,B-4,794.0,0.5,95,130.0
3728,B-4,794.5,0.5,95,130.0
3729,C#2,794.5,1.0,95,130.0
3730,B-4,795.0,0.5,95,130.0
3731,B-4,795.5,0.5,95,130.0
3732,A4,796.0,0.5,95,130.0
3733,A4,796.5,0.5,95,130.0
3734,G2,797.0,2.0,95,130.0
3735,A4,797.0,0.5,95,130.0
3736,A4,797.5,0.5,95,130.0
3737,A4,798.0,0.5,95,130.0
3738,A4,798.5,0.5,95,130.0
3739,D3,799.0,1.5,95,130.0
3740,A4,799.0,0.5,95,130.0
3741,A4,799.5,0.5,95,130.0
3742,A4,800.0,0.5,95,130.0
3743,C#3,800.5,2.5,95,130.0
3744,A4,800.5,0.5,95,130.0
3745,A4,801.0,0.5,95,130.0
3746,G1,801.0,1.5,95,130.0
3747,A4,801.5,0.5,95,130.0
3748,A4,802.0,0.5,95,130.0
3749,A4,802.5,0.5,95,130.0
3750,A1,802.5,1.5,95,130.0
3751,C#3,803.0,0.5,95,130.0
3752,A4,803.0,0.5,95,130.0
3753,A4,803.5,0.5,95,130.0
3754,G4,804.0,0.5,95,130.0
3755,B-1,804.0,1.0,95,130.0
3756,E4,804.0,17/250,95,130.0
3757,B3,804.0,17/250,95,130.0
3758,G3,804.0,17/250,95,130.0
3759,D3,804.0,17/250,95,130.0
3760,A2,804.0,17/250,95,130.0
3761,E2,804.0,17/250,95,130.0
3762,G4,804.5,0.5,95,130.0
3763,E4,804.5,17/250,95,130.0
3764,B3,804.5,17/250,95,130.0
3765,G3,804.5,17/250,95,130.0
3766,D3,804.5,17/250,95,130.0
3767,A2,804.5,17/250,95,130.0
3768,E2,804.5,17/250,95,130.0
3769,G4,805.0,0.5,95,130.0
3770,B-1,805.0,2.0,95,130.0
3771,G4,805.5,0.5,95,130.0
3772,G4,806.0,0.5,95,130.0
3773,G4,806.5,0.5,95,130.0
3774,G2,807.0,1.5,95,130.0
3775,G4,807.0,0.5,95,130.0
3776,F1,807.0,1.0,95,130.0
3777,G4,807.5,0.5,95,130.0
3778,B-4,808.0,0.5,95,130.0
3779,E1,808.0,1.0,95,130.0
3780,A2,808.5,1.5,95,130.0
3781,B-4,808.5,0.5,95,130.0
3782,B-4,809.0,0.5,95,130.0
3783,D2,809.0,1.5,95,130.0
3784,B-4,809.5,0.5,95,130.0
3785,B-2,810.0,1.0,95,130.0
3786,A4,810.0,0.5,95,130.0
3787,F4,810.0,0.25,95,130.0
3788,E4,810.25,0.25,70,130.0
3789,A4,810.5,0.5,95,130.0
3790,D4,810.5,0.25,70,130.0
3791,F2,810.5,1.5,95,130.0
3792,B-2,811.0,2.0,95,130.0
3793,G4,811.0,0.5,95,130.0
3794,G4,811.5,0.5,95,130.0
3795,G4,811.5,0.25,95,130.0
3796,D4,812.0,0.25,95,130.0
3797,C2,812.0,1.0,95,130.0
3798,C4,812.25,0.25,70,130.0
3799,A3,812.5,0.25,70,130.0
3800,G3,812.75,0.25,95,130.0
3801,F2,813.0,1.0,95,130.0
3802,A4,813.0,0.25,95,130.0
3803,D2,813.0,1.5,95,130.0
3804,G4,813.25,0.25,70,130.0
3805,F4,813.5,0.25,70,130.0
3806,E2,814.0,1.0,95,130.0
3807,F4,814.0,0.25,95,130.0
3808,E4,814.25,0.25,70,130.0
3809,C5,814.5,0.25,95,130.0
3810,F4,814.5,0.25,70,130.0
3811,F2,814.5,1.0,95,130.0
3812,G4,814.75,0.25,70,130.0
3813,D3,815.0,0.141,95,130.0
3814,F4,815.0,0.25,95,130.0
3815,A4,815.0,0.25,95,130.0
3816,E4,815.25,0.25,70,130.0
3817,B-4,815.25,0.25,70,130.0
3818,A3,815.5,0.141,95,130.0
3819,D4,815.5,0.25,70,130.0
3820,A4,815.5,0.25,70,130.0
3821,E2,815.5,1.0,95,130.0
3822,C4,815.75,0.25,95,130.0
3823,G4,815.75,0.25,95,130.0
3824,D4,816.0,0.141,95,130.0
3825,F4,816.0,0.25,70,130.0
3826,E4,816.25,0.25,70,130.0
3827,F3,816.5,0.141,95,130.0
3828,D2,816.5,0.5,95,130.0
3829,C4,817.0,0.141,95,130.0
3830,A4,817.0,0.25,95,130.0
3831,D2,817.0,1.0,95,130.0
3832,G4,817.25,0.25,70,130.0
3833,F4,817.5,0.141,95,130.0
3834,A4,817.5,0.25,70,130.0
3835,B-4,817.5,0.25,95,130.0
3836,B-4,817.75,0.25,70,130.0
3837,A4,817.75,0.25,70,130.0
3838,C3,818.0,0.141,95,130.0
3839,C5,818.0,0.25,95,130.0
3840,F2,818.0,1.5,95,130.0
3841,D5,818.25,0.25,70,130.0
3842,G3,818.5,0.141,95,130.0
3843,C5,818.5,0.25,70,130.0
3844,B-4,818.75,0.25,95,130.0
3845,D3,819.0,0.141,95,130.0
3846,A4,819.0,0.25,70,130.0
3847,F5,819.0,0.25,95,130.0
3848,G4,819.25,0.25,70,130.0
3849,A3,819.5,0.141,95,130.0
3850,A5,819.5,0.125,95,130.0
3851,C2,819.5,1.0,95,130.0
3852,G5,819.625,0.125,70,130.0
3853,F5,819.75,0.25,95,130.0
3854,D4,820.0,0.141,95,130.0
3855,E5,820.0,0.25,95,130.0
3856,F3,820.5,0.141,95,130.0
3857,D5,820.5,0.25,95,130.0
3858,B-4,820.5,83/1000,111,130.0
3859,B-1,820.5,1.5,95,130.0
3860,C5,820.583,83/1000,70,130.0
3861,D5,820.667,83/1000,95,130.0
3862,C5,820.75,0.25,70,130.0
3863,E5,820.75,0.25,95,130.0
3864,C4,821.0,7/100,95,130.0
3865,F5,821.0,0.25,70,130.0
3866,G5,821.25,0.25,70,130.0
3867,E3,821.5,0.141,95,130.0
3868,F5,821.5,0.25,70,130.0
3869,E5,821.75,0.25,95,130.0
3870,B3,822.0,7/100,95,130.0
3871,A5,822.0,0.25,95,130.0
3872,A4,822.0,83/1000,95,130.0
3873,G1,822.0,1.5,95,130.0
3874,B-4,822.083,83/1000,70,130.0
3875,C5,822.167,0.25,95,130.0
3876,D5,822.417,0.25,70,130.0
3877,D3,822.5,0.141,95,130.0
3878,C6,822.5,0.125,95,130.0
3879,B-5,822.625,0.125,70,130.0
3880,E5,822.667,0.25,70,130.0
3881,A5,822.75,0.25,95,130.0
3882,D5,822.917,0.25,70,130.0
3883,A3,823.0,0.141,95,130.0
3884,G5,823.0,0.25,95,130.0
3885,C5,823.167,0.25,95,130.0
3886,A4,823.417,0.125,95,130.0
3887,D4,823.5,0.141,95,130.0
3888,D5,823.5,83/1000,95,130.0
3889,A1,823.5,1.0,95,130.0
3890,B4,823.542,83/1000,70,130.0
3891,E5,823.583,83/1000,70,130.0
3892,C5,823.625,0.25,95,130.0
3893,F5,823.667,83/1000,70,130.0
3894,G5,823.75,0.25,95,130.0
3895,D5,823.875,0.25,95,130.0
3896,F3,824.0,0.141,95,130.0
3897,A5,824.0,0.25,70,130.0
3898,F5,824.125,0.125,70,130.0
3899,B-5,824.25,0.25,70,130.0
3900,D5,824.25,0.125,70,130.0
3901,C5,824.375,0.25,70,130.0
3902,C4,824.5,0.141,95,130.0
3903,A5,824.5,0.25,70,130.0
3904,G5,824.75,0.25,95,130.0
3905,F4,825.0,0.141,95,130.0
3906,C5,825.0,83/1000,95,130.0
3907,D5,825.083,83/1000,70,130.0
3908,E5,825.167,0.25,95,130.0
3909,F5,825.417,0.25,70,130.0
3910,C3,825.5,0.141,95,130.0
3911,G5,825.667,0.25,70,130.0
3912,F5,825.917,0.25,70,130.0
3913,G3,826.0,0.141,95,130.0
3914,D5,826.0,0.25,95,130.0
3915,E5,826.167,0.25,95,130.0
3916,C5,826.25,0.25,95,130.0
3917,C5,826.417,0.125,95,130.0
3918,C3,826.5,0.141,95,130.0
3919,A5,826.5,0.25,95,130.0
3920,F2,826.5,1.0,95,130.0
3921,D5,826.542,83/1000,70,130.0
3922,E5,826.625,0.25,95,130.0
3923,G5,826.75,0.25,95,130.0
3924,F5,826.875,0.25,70,130.0
3925,E3,827.0,0.141,95,130.0
3926,A5,827.0,0.25,95,130.0
3927,G5,827.125,0.125,70,130.0
3928,F5,827.25,0.125,70,130.0
3929,B-5,827.25,0.25,95,130.0
3930,E5,827.375,0.5,95,130.0
3931,D3,827.5,0.141,95,130.0
3932,A5,827.5,0.25,95,130.0
3933,C2,827.5,1.0,95,130.0
3934,G5,827.75,0.25,95,130.0
3935,G2,828.0,0.141,95,130.0
3936,F5,828.0,0.25,95,130.0
3937,E5,828.25,0.25,95,130.0
3938,E3,828.5,0.141,95,130.0
3939,D2,828.5,1.0,95,130.0
3940,D3,829.0,0.141,95,130.0
3941,F5,829.0,0.25,95,130.0
3942,E5,829.25,0.25,70,130.0
3943,C3,829.5,0.141,95,130.0
3944,C6,829.5,0.25,95,130.0
3945,F5,829.5,0.25,95,130.0
3946,D2,829.5,0.5,95,130.0
3947,B-5,829.75,0.25,70,130.0
3948,E5,829.75,0.25,70,130.0
3949,E3,830.0,0.141,95,130.0
3950,C6,830.0,0.25,70,130.0
3951,F2,830.0,1.0,95,130.0
3952,D6,830.25,0.25,95,130.0
3953,D3,830.5,0.141,95,130.0
3954,C6,830.5,0.25,70,130.0
3955,B-5,830.75,0.25,70,130.0
3956,C3,831.0,0.141,95,130.0
3957,A5,831.0,0.25,95,130.0
3958,A5,831.0,0.25,95,130.0
3959,E2,831.0,1.5,95,130.0
3960,G5,831.25,0.25,70,130.0
3961,D3,831.5,0.141,95,130.0
3962,D6,831.5,0.125,95,130.0
3963,C6,831.625,0.125,70,130.0
3964,B-5,831.75,0.25,70,130.0
3965,G3,832.0,0.141,95,130.0
3966,A5,832.0,0.25,95,130.0
3967,G5,832.25,0.25,70,130.0
3968,F3,832.5,0.141,95,130.0
3969,A5,832.5,0.25,95,130.0
3970,D2,832.5,0.5,95,130.0
3971,G5,832.75,0.25,70,130.0
3972,G3,833.0,0.141,95,130.0
3973,D2,833.0,1.0,95,130.0
3974,E3,833.5,0.141,95,130.0
3975,F4,833.5,0.25,95,130.0
3976,E4,833.75,0.25,70,130.0
3977,G3,834.0,0.141,95,130.0
3978,C6,834.0,0.25,95,130.0
3979,F2,834.0,1.5,95,130.0
3980,D3,834.5,0.141,95,130.0
3981,B-5,834.5,0.125,95,130.0
3982,A5,834.625,0.125,70,130.0
3983,G5,834.75,0.25,70,130.0
3984,A3,835.0,0.141,95,130.0
3985,F5,835.0,0.25,95,130.0
3986,A4,835.0,0.25,95,130.0
3987,E5,835.25,0.25,70,130.0
3988,D4,835.5,0.141,95,130.0
3989,D4,835.5,0.25,95,130.0
3990,C2,835.5,1.0,95,130.0
3991,C4,835.75,0.25,70,130.0
3992,A2,836.0,0.141,95,130.0
3993,A3,836.0,0.25,95,130.0
3994,G3,836.25,0.25,70,130.0
3995,D3,836.5,0.141,95,130.0
3996,A4,836.5,0.25,95,130.0
3997,B-4,836.5,0.25,95,130.0
3998,B-1,836.5,0.5,95,130.0
3999,G4,836.75,0.25,70,130.0
4000,A4,836.75,0.125,70,130.0
4001,G4,836.875,0.125,95,130.0
4002,G3,837.0,0.141,95,130.0
4003,F4,837.0,0.188,70,130.0
4004,B-1,837.0,1.0,95,130.0
4005,E4,837.188,0.25,95,130.0
4006,D4,837.438,0.25,70,130.0
4007,C3,837.5,0.141,95,130.0
4008,C4,837.688,0.25,70,130.0
4009,D5,837.938,0.75,95,130.0
4010,E3,838.0,0.141,95,130.0
4011,C5,838.0,0.25,95,130.0
4012,G1,838.0,1.5,95,130.0
4013,D3,838.5,0.141,95,130.0
4014,F4,838.5,0.25,95,130.0
4015,B-4,838.688,0.188,95,130.0
4016,E4,838.75,0.25,70,130.0
4017,A4,838.875,0.125,70,130.0
4018,A3,839.0,0.141,95,130.0
4019,D4,839.0,0.25,95,130.0
4020,F4,839.0,0.125,95,130.0
4021,E4,839.125,0.125,70,130.0
4022,C4,839.25,0.25,70,130.0
4023,D4,839.25,0.25,70,130.0
4024,D4,839.5,0.141,95,130.0
4025,D5,839.5,0.25,95,130.0
4026,G4,839.5,1.5,95,130.0
4027,A1,839.5,1.5,95,130.0
4028,C5,839.75,0.125,70,130.0
4029,B-4,839.875,0.125,95,130.0
4030,F3,840.0,0.141,95,130.0
4031,A4,840.0,0.188,70,130.0
4032,G4,840.188,0.25,95,130.0
4033,F4,840.438,0.25,70,130.0
4034,C4,840.5,0.141,95,130.0
4035,E4,840.688,0.25,70,130.0
4036,F5,840.938,0.75,95,130.0
4037,E3,841.0,0.141,95,130.0
4038,C5,841.0,1.5,95,130.0
4039,C2,841.0,1.5,95,130.0
4040,D3,841.5,7/100,95,130.0
4041,D5,841.688,0.188,95,130.0
4042,C5,841.875,0.125,70,130.0
4043,D3,842.0,0.141,95,130.0
4044,B-4,842.0,0.125,95,130.0
4045,A4,842.125,0.125,70,130.0
4046,G4,842.25,0.25,70,130.0
4047,G2,842.5,0.141,95,130.0
4048,D4,842.5,1.5,95,130.0
4049,B4,842.5,1.0,95,130.0
4050,G1,842.5,1.0,95,130.0
4051,E3,843.0,0.141,95,130.0
4052,D3,843.5,0.141,95,130.0
4053,C5,843.5,1.5,95,130.0
4054,A1,843.5,1.5,95,130.0
4055,G2,844.0,0.141,95,130.0
4056,E4,844.0,1.5,95,130.0
4057,E3,844.5,0.141,95,130.0
4058,D3,845.0,0.141,95,130.0
4059,E5,845.0,1.0,95,130.0
4060,C2,845.0,1.0,95,130.0
4061,C3,845.5,0.141,95,130.0
4062,G4,845.5,1.0,95,130.0
4063,D3,846.0,0.141,95,130.0
4064,F5,846.0,1.0,95,130.0
4065,B-1,846.0,1.0,95,130.0
4066,G3,846.5,0.141,95,130.0
4067,A4,846.5,1.5,95,130.0
4068,C3,847.0,0.141,95,130.0
4069,E5,847.0,1.5,95,130.0
4070,A1,847.0,1.5,95,130.0
4071,E3,847.5,0.141,95,130.0
4072,G3,848.0,0.141,95,130.0
4073,C5,848.0,1.0,95,130.0
4074,G2,848.5,0.141,95,130.0
4075,G5,848.5,0.5,95,130.0
4076,C2,848.5,0.5,95,130.0
4077,E3,849.0,0.141,95,130.0
4078,D5,849.0,1.0,95,130.0
4079,G5,849.0,1.0,95,130.0
4080,C2,849.0,1.0,95,130.0
4081,G2,849.5,0.141,95,130.0
4082,C3,850.0,0.141,95,130.0
4083,C5,850.0,1.5,95,130.0
4084,G5,850.0,1.0,95,130.0
4085,G1,850.0,1.0,95,130.0
4086,G3,850.5,0.141,95,130.0
4087,C3,851.0,0.141,95,130.0
4088,F5,851.0,0.25,95,130.0
4089,F1,851.0,1.5,95,130.0
4090,E5,851.25,0.25,70,130.0
4091,G3,851.5,0.141,95,130.0
4092,E5,851.5,0.5,95,130.0
4093,D5,851.5,0.25,95,130.0
4094,C5,851.75,0.25,95,130.0
4095,C3,852.0,0.141,95,130.0
4096,E5,852.0,1.0,95,130.0
4097,D5,852.0,0.25,95,130.0
4098,E5,852.25,0.25,95,130.0
4099,E3,852.5,0.141,95,130.0
4100,F5,852.5,0.25,95,130.0
4101,E1,852.5,0.5,95,130.0
4102,A5,852.75,0.25,95,130.0
4103,G2,853.0,0.141,95,130.0
4104,E5,853.0,1.0,95,130.0
4105,B5,853.0,0.25,95,130.0
4106,E1,853.0,1.0,95,130.0
4107,A5,853.25,0.125,95,130.0
4108,E5,853.375,0.125,70,130.0
4109,E3,853.5,0.141,95,130.0
4110,D5,853.5,0.25,70,130.0
4111,C5,853.75,0.25,95,130.0
4112,D3,854.0,0.141,95,130.0
4113,D5,854.0,0.25,95,130.0
4114,D6,854.0,0.5,95,130.0
4115,G1,854.0,1.5,95,130.0
4116,C5,854.25,0.25,70,130.0
4117,G3,854.5,0.141,95,130.0
4118,A4,854.5,0.25,95,130.0
4119,F5,854.5,0.125,95,130.0
4120,E5,854.625,0.125,70,130.0
4121,G4,854.75,0.25,95,130.0
4122,D5,854.75,0.25,70,130.0
4123,D3,855.0,0.141,95,130.0
4124,A4,855.0,0.25,95,130.0
4125,C5,855.0,0.5,95,130.0
4126,C5,855.25,0.25,95,130.0
4127,E3,855.5,0.141,95,130.0
4128,D5,855.5,0.25,95,130.0
4129,G5,855.5,1.5,95,130.0
4130,A1,855.5,1.5,95,130.0
4131,E5,855.75,0.25,95,130.0
4132,G2,856.0,0.141,95,130.0
4133,G5,856.0,0.25,95,130.0
4134,E5,856.25,0.125,95,130.0
4135,D5,856.375,0.125,70,130.0
4136,D3,856.5,0.141,95,130.0
4137,C5,856.5,0.25,70,130.0
4138,A4,856.75,0.25,95,130.0
4139,F2,857.0,0.141,95,130.0
4140,B5,857.0,0.5,95,130.0
4141,E5,857.0,1.0,95,130.0
4142,C2,857.0,1.0,95,130.0
4143,C3,857.5,0.141,95,130.0
4144,F5,857.5,0.125,95,130.0
4145,E5,857.625,0.125,70,130.0
4146,D5,857.75,0.25,70,130.0
4147,F3,858.0,0.141,95,130.0
4148,C5,858.0,0.5,95,130.0
4149,F5,858.0,1.0,95,130.0
4150,G1,858.0,1.0,95,130.0
4151,E2,858.5,0.141,95,130.0
4152,B5,858.5,1.5,95,130.0
4153,B2,859.0,0.141,95,130.0
4154,E5,859.0,0.5,95,130.0
4155,A1,859.0,1.5,95,130.0
4156,E3,859.5,0.141,95,130.0
4157,F5,859.5,0.125,95,130.0
4158,E5,859.625,0.125,70,130.0
4159,D5,859.75,0.25,70,130.0
4160,G2,860.0,0.141,95,130.0
4161,C5,860.0,1.0,95,130.0
4162,E5,860.0,0.5,95,130.0
4163,D3,860.5,0.141,95,130.0
4164,G5,860.5,0.5,95,130.0
4165,C2,860.5,0.5,95,130.0
4166,G3,861.0,0.141,95,130.0
4167,D5,861.0,1.0,95,130.0
4168,E4,861.0,0.5,95,130.0
4169,C2,861.0,1.0,95,130.0
4170,A2,861.5,0.141,95,130.0
4171,C4,861.5,0.5,95,130.0
4172,E3,862.0,0.141,95,130.0
4173,C5,862.0,0.5,95,130.0
4174,B-3,862.0,0.5,95,130.0
4175,B-1,862.0,1.5,95,130.0
4176,G3,862.5,0.141,95,130.0
4177,D5,862.5,0.125,95,130.0
4178,F4,862.5,0.5,95,130.0
4179,C5,862.625,0.125,70,130.0
4180,B4,862.75,0.25,70,130.0
4181,C3,863.0,0.141,95,130.0
4182,C5,863.0,0.5,70,130.0
4183,F5,863.0,0.5,95,130.0
4184,E3,863.5,0.141,95,130.0
4185,C6,863.5,0.5,95,130.0
4186,A4,863.5,1.5,95,130.0
4187,A1,863.5,1.5,95,130.0
4188,C3,864.0,0.141,95,130.0
4189,E5,864.0,0.5,95,130.0
4190,E3,864.5,0.141,95,130.0
4191,C5,864.5,0.5,95,130.0
4192,D3,865.0,0.141,95,130.0
4193,F4,865.0,0.5,95,130.0
4194,G2,865.5,0.141,95,130.0
4195,B-4,865.5,0.5,95,130.0
4196,D3,866.0,0.141,95,130.0
4197,B-5,866.0,0.5,95,130.0
4198,E3,866.5,0.141,95,130.0
4199,E5,866.5,1.5,95,130.0
4200,C3,867.0,0.141,95,130.0
4201,E3,867.5,0.141,95,130.0
4202,F4,867.5,0.125,79,130.0
4203,F1,867.5,1.5,95,130.0
4204,A4,867.625,0.125,79,130.0
4205,C5,867.75,0.125,79,130.0
4206,F5,867.875,0.125,79,130.0
4207,D3,868.0,0.141,95,130.0
4208,C5,868.0,0.25,79,130.0
4209,A4,868.25,0.25,79,130.0
4210,E3,868.5,0.141,95,130.0
4211,F4,868.5,0.25,79,130.0
4212,C5,868.75,0.125,79,130.0
4213,E5,868.875,0.125,79,130.0
4214,D3,869.0,0.141,95,130.0
4215,G5,869.0,0.125,79,130.0
4216,E1,869.0,1.0,95,130.0
4217,C6,869.125,0.125,79,130.0
4218,G5,869.25,0.25,79,130.0
4219,C3,869.5,0.141,95,130.0
4220,E5,869.5,0.25,79,130.0
4221,C5,869.75,0.25,79,130.0
4222,E3,870.0,0.141,95,130.0
4223,F5,870.0,167/1000,95,130.0
4224,D2,870.0,1.5,95,130.0
4225,A5,870.167,167/1000,70,130.0
4226,F5,870.333,167/1000,70,130.0
4227,D3,870.5,0.141,95,130.0
4228,C5,870.5,0.125,79,130.0
4229,D5,870.5,0.25,95,130.0
4230,D5,870.625,0.125,79,130.0
4231,F5,870.75,0.125,79,130.0
4232,A4,870.75,0.25,95,130.0
4233,A5,870.875,0.125,79,130.0
4234,C3,871.0,0.141,95,130.0
4235,F5,871.0,0.25,79,130.0
4236,D5,871.0,0.25,95,130.0
4237,D5,871.25,0.25,79,130.0
4238,F5,871.25,0.25,95,130.0
4239,E3,871.5,0.141,95,130.0
4240,A4,871.5,0.25,79,130.0
4241,C6,871.5,0.25,95,130.0
4242,F2,871.5,1.5,95,130.0
4243,B-4,871.75,0.125,79,130.0
4244,A5,871.75,0.25,70,130.0
4245,C5,871.875,0.125,79,130.0
4246,D3,872.0,0.141,95,130.0
4247,G5,872.0,0.125,95,130.0
4248,F5,872.0,0.25,95,130.0
4249,E6,872.125,0.125,79,130.0
4250,C6,872.25,0.25,54,130.0
4251,D5,872.25,0.25,95,130.0
4252,C3,872.5,0.141,95,130.0
4253,G5,872.5,0.25,79,130.0
4254,F5,872.5,0.25,95,130.0
4255,C5,872.75,0.25,79,130.0
4256,A5,872.75,0.25,95,130.0
4257,E3,873.0,0.141,95,130.0
4258,A5,873.0,167/1000,95,130.0
4259,C6,873.0,0.25,95,130.0
4260,C2,873.0,1.0,95,130.0
4261,D6,873.167,167/1000,70,130.0
4262,A5,873.25,0.25,95,130.0
4263,A5,873.333,167/1000,70,130.0
4264,F5,873.5,0.25,95,130.0
4265,F5,873.5,0.25,95,130.0
4266,C3,873.5,1.5,127,130.0
4267,F2,873.5,1.5,127,130.0
4268,D5,873.75,0.25,95,130.0
4269,D5,873.75,0.25,95,130.0
4270,F5,874.0,0.25,95,130.0
4271,F5,874.0,167/1000,95,130.0
4272,D2,874.0,1.5,95,130.0
4273,A5,874.167,167/1000,70,130.0
4274,A5,874.25,0.25,95,130.0
4275,F5,874.333,167/1000,70,130.0
4276,F6,874.5,0.25,79,130.0
4277,D5,874.5,0.25,95,130.0
4278,A5,874.75,0.25,70,130.0
4279,A4,874.75,0.25,95,130.0
4280,G5,875.0,0.25,95,130.0
4281,D5,875.0,0.25,95,130.0
4282,B2,875.0,1.0,111,130.0
4283,E2,875.0,1.0,111,130.0
4284,F5,875.25,0.25,95,130.0
4285,F5,875.25,0.25,95,130.0
4286,G5,875.5,0.25,95,130.0
4287,A5,875.5,0.25,70,130.0
4288,F2,875.5,1.0,95,130.0
4289,A5,875.75,0.25,95,130.0
4290,F5,875.75,0.25,70,130.0
4291,E6,876.0,0.25,70,130.0
4292,D5,876.0,0.25,95,130.0
4293,A3,876.0,1.5,127,130.0
4294,D3,876.0,1.5,127,130.0
4295,A5,876.25,0.25,70,130.0
4296,A4,876.25,0.25,95,130.0
4297,G5,876.5,0.25,95,130.0
4298,G5,876.5,0.25,95,130.0
4299,E2,876.5,1.0,95,130.0
4300,F5,876.75,0.25,95,130.0
4301,E5,876.75,0.25,70,130.0
4302,A5,877.0,167/1000,95,130.0
4303,C#5,877.0,0.25,95,130.0
4304,D6,877.167,167/1000,70,130.0
4305,B-4,877.25,0.25,95,130.0
4306,A5,877.333,167/1000,70,130.0
4307,F5,877.5,0.25,95,130.0
4308,F5,877.5,0.25,95,130.0
4309,D2,877.5,1.5,95,130.0
4310,C4,877.5,1.5,127,130.0
4311,F3,877.5,1.5,127,130.0
4312,D5,877.75,0.25,95,130.0
4313,D5,877.75,0.25,70,130.0
4314,F5,878.0,0.25,95,130.0
4315,A4,878.0,0.25,95,130.0
4316,A5,878.25,0.25,95,130.0
4317,F4,878.25,0.25,95,130.0
4318,E6,878.5,0.25,70,130.0
4319,A4,878.5,0.25,95,130.0
4320,A5,878.75,0.25,70,130.0
4321,D5,878.75,0.25,95,130.0
4322,G5,879.0,0.25,95,130.0
4323,F5,879.0,0.25,70,130.0
4324,F2,879.0,1.5,95,130.0
4325,G3,879.0,1.0,127,130.0
4326,C3,879.0,1.0,127,130.0
4327,E5,879.25,0.25,95,130.0
4328,D5,879.25,0.25,70,130.0
4329,B-5,879.5,0.25,95,130.0
4330,A4,879.5,0.25,95,130.0
4331,G5,879.75,0.25,70,130.0
4332,F4,879.75,0.25,95,130.0
4333,E5,880.0,0.25,95,130.0
4334,A4,880.0,0.25,95,130.0
4335,A3,880.0,1.5,127,130.0
4336,D3,880.0,1.5,127,130.0
4337,C#5,880.25,0.25,95,130.0
4338,D5,880.25,0.25,95,130.0
4339,A5,880.5,0.25,95,130.0
4340,E5,880.5,0.25,70,130.0
4341,C2,880.5,1.0,95,130.0
4342,F5,880.75,0.25,70,130.0
4343,C5,880.75,0.25,70,130.0
4344,D5,881.0,0.25,95,130.0
4345,G4,881.0,0.25,95,130.0
4346,A4,881.25,0.25,95,130.0
4347,E4,881.25,0.25,95,130.0
4348,D5,881.5,0.25,95,130.0
4349,D5,881.5,167/1000,95,130.0
4350,B-1,881.5,1.5,95,130.0
4351,F3,881.5,1.0,127,130.0
4352,C3,881.5,1.0,127,130.0
4353,F5,881.667,167/1000,70,130.0
4354,F5,881.75,0.25,95,130.0
4355,D5,881.833,167/1000,70,130.0
4356,A5,882.0,0.25,70,130.0
4357,B-4,882.0,0.25,95,130.0
4358,F5,882.25,0.25,70,130.0
4359,G4,882.25,0.25,95,130.0
4360,D5,882.5,0.25,95,130.0
4361,B-4,882.5,0.25,95,130.0
4362,E3,882.5,1.0,127,130.0
4363,B2,882.5,1.0,127,130.0
4364,A4,882.75,0.25,95,130.0
4365,D5,882.75,0.25,95,130.0
4366,D5,883.0,0.25,95,130.0
4367,G5,883.0,0.25,70,130.0
4368,G1,883.0,1.5,95,130.0
4369,F5,883.25,0.25,95,130.0
4370,D5,883.25,0.25,70,130.0
4371,G5,883.5,0.25,70,130.0
4372,B-4,883.5,0.25,95,130.0
4373,A3,883.5,1.5,127,130.0
4374,D3,883.5,1.5,127,130.0
4375,E5,883.75,0.25,70,130.0
4376,G4,883.75,0.25,95,130.0
4377,C5,884.0,0.25,95,130.0
4378,B-4,884.0,0.25,95,130.0
4379,A4,884.25,0.25,95,130.0
4380,D5,884.25,0.25,95,130.0
4381,G5,884.5,167/1000,95,130.0
4382,D5,884.5,167/1000,95,130.0
4383,A1,884.5,1.5,95,130.0
4384,B-5,884.667,167/1000,70,130.0
4385,E5,884.667,167/1000,70,130.0
4386,G5,884.833,167/1000,70,130.0
4387,C#5,884.833,167/1000,70,130.0
4388,D5,885.0,0.25,95,130.0
4389,G4,885.0,0.25,95,130.0
4390,C4,885.0,1.5,127,130.0
4391,F3,885.0,1.5,127,130.0
4392,B-4,885.25,0.25,95,130.0
4393,E4,885.25,0.25,95,130.0
4394,D5,885.5,0.25,95,130.0
4395,G4,885.5,0.25,95,130.0
4396,G5,885.75,0.25,95,130.0
4397,C#5,885.75,0.25,95,130.0
4398,B-5,886.0,0.25,70,130.0
4399,D5,886.0,0.25,95,130.0
4400,D2,886.0,1.5,95,130.0
4401,G5,886.25,0.25,70,130.0
4402,A4,886.25,0.25,70,130.0
4403,D5,886.5,0.25,95,130.0
4404,F4,886.5,0.25,95,130.0
4405,G3,886.5,1.0,127,130.0
4406,C3,886.5,1.0,127,130.0
4407,B-4,886.75,0.25,95,130.0
4408,D4,886.75,0.25,95,130.0
4409,D5,887.0,0.25,95,130.0
4410,F4,887.0,0.25,95,130.0
4411,G5,887.25,0.25,95,130.0
4412,A4,887.25,0.25,95,130.0
4413,E6,887.5,167/1000,95,130.0
4414,F5,887.5,0.25,95,130.0
4415,F2,887.5,1.0,95,130.0
4416,F3,887.5,1.5,127,130.0
4417,B-2,887.5,1.5,127,130.0
4418,C#6,887.667,167/1000,70,130.0
4419,D5,887.75,0.25,95,130.0
4420,G5,887.833,167/1000,70,130.0
4421,E5,888.0,0.25,95,130.0
4422,A4,888.0,0.25,70,130.0
4423,C#5,888.25,0.25,95,130.0
4424,F4,888.25,0.25,95,130.0
4425,A4,888.5,0.25,95,130.0
4426,A4,888.5,0.25,95,130.0
4427,C2,888.5,1.0,95,130.0
4428,C#5,888.75,0.25,95,130.0
4429,F4,888.75,0.25,95,130.0
4430,D5,889.0,0.25,95,130.0
4431,D4,889.0,0.25,95,130.0
4432,D3,889.0,1.5,127,130.0
4433,G2,889.0,1.5,127,130.0
4434,A4,889.25,0.25,70,130.0
4435,A3,889.25,0.25,95,130.0
4436,F4,889.5,0.25,95,130.0
4437,A4,889.5,0.25,95,130.0
4438,D2,889.5,1.5,95,130.0
4439,D4,889.75,0.25,95,130.0
4440,F4,889.75,0.25,95,130.0
4441,F4,890.0,0.25,95,130.0
4442,D4,890.0,0.25,95,130.0
4443,A4,890.25,0.25,95,130.0
4444,A3,890.25,0.25,95,130.0
4445,F5,890.5,0.25,95,130.0
4446,D4,890.5,0.25,95,130.0
4447,E3,890.5,1.5,127,130.0
4448,A2,890.5,1.5,127,130.0
4449,D5,890.75,0.25,70,130.0
4450,F4,890.75,0.25,95,130.0
4451,A4,891.0,0.25,95,130.0
4452,A4,891.0,0.25,95,130.0
4453,F2,891.0,1.0,95,130.0
4454,F4,891.25,0.25,95,130.0
4455,F4,891.25,0.25,95,130.0
4456,E5,891.5,0.25,95,130.0
4457,D4,891.5,0.25,95,130.0
4458,C5,891.75,0.25,95,130.0
4459,A3,891.75,0.25,95,130.0
4460,G4,892.0,0.25,95,130.0
4461,B-4,892.0,0.25,95,130.0
4462,E2,892.0,1.5,95,130.0
4463,A3,892.0,1.5,127,130.0
4464,D3,892.0,1.5,127,130.0
4465,E4,892.25,0.25,95,130.0
4466,G4,892.25,0.25,70,130.0
4467,D5,892.5,0.25,95,130.0
4468,E4,892.5,0.25,95,130.0
4469,A4,892.75,0.25,95,130.0
4470,D4,892.75,0.25,95,130.0
4471,F4,893.0,0.25,95,130.0
4472,E4,893.0,0.25,95,130.0
4473,D4,893.25,0.25,95,130.0
4474,G4,893.25,0.25,95,130.0
4475,F4,893.5,0.25,95,130.0
4476,F#4,893.5,0.25,95,130.0
4477,D2,893.5,1.5,95,130.0
4478,C4,893.5,1.0,127,130.0
4479,F3,893.5,1.0,127,130.0
4480,A4,893.75,0.25,95,130.0
4481,A4,893.75,0.25,95,130.0
4482,C5,894.0,0.25,95,130.0
4483,F4,894.0,0.25,95,130.0
4484,A4,894.25,0.25,95,130.0
4485,C4,894.25,0.25,95,130.0
4486,F4,894.5,0.25,95,130.0
4487,F4,894.5,0.25,95,130.0
4488,G3,894.5,1.0,127,130.0
4489,C3,894.5,1.0,127,130.0
4490,D4,894.75,0.25,95,130.0
4491,A4,894.75,0.25,95,130.0
4492,C#5,895.0,0.25,95,130.0
4493,F5,895.0,0.25,95,130.0
4494,F2,895.0,1.5,95,130.0
4495,B-4,895.25,0.25,70,130.0
4496,D5,895.25,0.25,95,130.0
4497,G4,895.5,0.25,95,130.0
4498,A4,895.5,0.25,95,130.0
4499,A3,895.5,1.5,127,130.0
4500,D3,895.5,1.5,127,130.0
4501,E4,895.75,0.25,95,130.0
4502,F4,895.75,0.25,95,130.0
4503,G4,896.0,0.25,95,130.0
4504,A4,896.0,0.25,95,130.0
4505,B-4,896.25,0.25,95,130.0
4506,D5,896.25,0.25,95,130.0
4507,F5,896.5,0.25,95,130.0
4508,G5,896.5,0.25,95,130.0
4509,C2,896.5,1.0,95,130.0
4510,D5,896.75,0.25,70,130.0
4511,E5,896.75,0.25,95,130.0
4512,A4,897.0,0.25,95,130.0
4513,C5,897.0,0.25,95,130.0
4514,F3,897.0,1.0,127,130.0
4515,C3,897.0,1.0,127,130.0
4516,F4,897.25,0.25,95,130.0
4517,A4,897.25,0.25,95,130.0
4518,A4,897.5,0.25,95,130.0
4519,D5,897.5,167/1000,95,130.0
4520,B-1,897.5,1.5,95,130.0
4521,F5,897.667,167/1000,95,130.0
4522,D5,897.75,0.25,95,130.0
4523,D5,897.833,167/1000,95,130.0
4524,A5,898.0,0.25,95,130.0
4525,B-4,898.0,0.25,95,130.0
4526,E3,898.0,1.5,127,130.0
4527,B2,898.0,1.5,127,130.0
4528,F5,898.25,0.25,70,130.0
4529,G4,898.25,0.25,95,130.0
4530,D5,898.5,0.25,95,130.0
4531,B-4,898.5,0.25,95,130.0
4532,A4,898.75,0.25,95,130.0
4533,D5,898.75,0.25,95,130.0
4534,D5,899.0,0.25,95,130.0
4535,G5,899.0,0.25,95,130.0
4536,G1,899.0,1.5,95,130.0
4537,F5,899.25,0.25,95,130.0
4538,D5,899.25,0.25,95,130.0
4539,C6,899.5,0.25,95,130.0
4540,B-4,899.5,0.25,95,130.0
4541,A3,899.5,1.5,127,130.0
4542,D3,899.5,1.5,127,130.0
4543,A5,899.75,0.25,70,130.0
4544,G4,899.75,0.25,95,130.0
4545,E5,900.0,0.25,95,130.0
4546,B-4,900.0,0.25,95,130.0
4547,C5,900.25,0.25,95,130.0
4548,D5,900.25,0.25,95,130.0
4549,F5,900.5,167/1000,95,130.0
4550,A5,900.5,1.5,111,130.0
4551,A1,900.5,0.25,95,130.0
4552,B-5,900.667,167/1000,70,130.0
4553,A2,900.75,0.25,95,130.0
4554,F5,900.833,167/1000,70,130.0
4555,D5,901.0,0.25,95,130.0
4556,A1,901.0,0.25,95,130.0
4557,F3,901.0,1.5,127,130.0
4558,C3,901.0,1.5,127,130.0
4559,B-4,901.25,0.25,95,130.0
4560,A1,901.25,0.25,95,130.0
4561,D5,901.5,0.25,95,130.0
4562,A2,901.5,0.25,95,130.0
4563,F5,901.75,0.25,95,130.0
4564,A1,901.75,0.25,95,130.0
4565,B-5,902.0,0.25,70,130.0
4566,A1,902.0,0.25,95,130.0
4567,G5,902.25,0.25,70,130.0
4568,A1,902.25,0.25,95,130.0
4569,D5,902.5,0.25,95,130.0
4570,A1,902.5,0.25,95,130.0
4571,G3,902.5,1.0,127,130.0
4572,C3,902.5,1.0,127,130.0
4573,B-4,902.75,0.25,95,130.0
4574,A2,902.75,0.25,95,130.0
4575,D5,903.0,0.25,95,130.0
4576,A1,903.0,0.25,95,130.0
4577,G5,903.25,0.25,95,130.0
4578,A1,903.25,0.25,95,130.0
4579,E5,903.5,1.5,111,130.0
4580,A2,903.5,0.25,95,130.0
4581,F3,903.5,1.5,127,130.0
4582,B-2,903.5,1.5,127,130.0
4583,A1,904.5,0.25,95,130.0
4584,A2,904.75,0.25,95,130.0
4585,A1,905.0,0.25,95,130.0
4586,D3,905.0,1.5,127,130.0
4587,G2,905.0,1.5,127,130.0
4588,A1,905.25,0.25,95,130.0
4589,A2,905.5,0.25,95,130.0
4590,A1,905.75,0.25,95,130.0
4591,A1,906.0,0.25,95,130.0
4592,A1,906.25,0.25,95,130.0
4593,A2,906.5,0.25,95,130.0
4594,A1,906.5,0.25,95,130.0
4595,A3,906.75,0.25,95,130.0
4596,A2,906.75,0.25,95,130.0
4597,A2,907.0,0.25,95,130.0
4598,A1,907.0,0.25,95,130.0
4599,A2,907.25,0.25,95,130.0
4600,A1,907.25,0.25,95,130.0
4601,A3,907.5,0.25,95,130.0
4602,B-2,907.5,0.25,95,130.0
4603,A2,907.75,0.25,95,130.0
4604,A2,907.75,0.25,95,130.0
4605,A2,908.0,0.25,95,130.0
4606,G2,908.0,0.25,95,130.0
4607,A2,908.25,0.25,95,130.0
4608,E2,908.25,0.25,95,130.0
4609,A2,908.5,0.25,95,130.0
4610,A1,908.5,0.25,95,130.0
4611,A3,908.75,0.25,95,130.0
4612,A2,908.75,0.25,95,130.0
4613,A2,909.0,0.25,95,130.0
4614,A1,909.0,0.25,95,130.0
4615,A2,909.25,0.25,95,130.0
4616,A1,909.25,0.25,95,130.0
4617,A3,909.5,0.25,95,130.0
4618,A1,909.5,0.25,95,130.0
4619,A2,909.75,0.25,95,130.0
4620,A1,910.0,0.25,95,130.0
4621,A1,910.25,0.25,95,130.0
4622,A2,910.5,0.25,95,130.0
4623,A1,910.5,0.25,95,130.0
4624,A3,910.75,0.25,95,130.0
4625,A1,910.75,0.25,95,130.0
4626,A2,911.0,0.25,95,130.0
4627,A2,911.0,0.25,95,130.0
4628,A2,911.25,0.25,95,130.0
4629,A1,911.25,0.25,95,130.0
4630,A3,911.5,0.25,95,130.0
4631,A1,911.5,0.25,95,130.0
4632,A2,911.75,0.25,95,130.0
4633,A2,912.0,0.25,95,130.0
4634,A2,912.25,0.25,95,130.0
4635,A2,912.5,0.25,95,130.0
4636,A1,912.5,0.25,95,130.0
4637,A3,912.75,0.25,95,130.0
4638,A2,912.75,0.25,95,130.0
4639,A2,913.0,0.25,95,130.0
4640,A1,913.0,0.25,95,130.0
4641,A2,913.25,0.25,95,130.0
4642,A1,913.25,0.25,95,130.0
4643,B-3,913.5,0.25,95,130.0
4644,A2,913.5,0.25,95,130.0
4645,A3,913.75,0.25,95,130.0
4646,A1,913.75,0.25,95,130.0
4647,G3,914.0,0.25,95,130.0
4648,A1,914.0,0.25,95,130.0
4649,E3,914.25,0.25,95,130.0
4650,A1,914.25,0.25,95,130.0
4651,A2,914.5,0.25,95,130.0
4652,A1,914.5,0.25,95,130.0
4653,A3,914.75,0.25,95,130.0
4654,A2,914.75,0.25,95,130.0
4655,A2,915.0,0.25,95,130.0
4656,A1,915.0,0.25,95,130.0
4657,A2,915.25,0.25,95,130.0
4658,A1,915.25,0.25,95,130.0
4659,A3,915.5,0.25,95,130.0
4660,D3,915.5,0.25,95,130.0
4661,A2,915.75,0.25,95,130.0
4662,C#3,915.75,0.25,95,130.0
4663,A2,916.0,0.25,95,130.0
4664,A2,916.0,0.25,95,130.0
4665,A2,916.25,0.25,95,130.0
4666,G2,916.25,0.25,95,130.0
4667,A2,916.5,0.25,95,130.0
4668,A1,916.5,0.25,95,130.0
4669,A3,916.75,0.25,95,130.0
4670,A2,916.75,0.25,95,130.0
4671,A2,917.0,0.25,95,130.0
4672,G2,917.0,0.25,95,130.0
4673,A2,917.25,0.25,95,130.0
4674,E2,917.25,0.25,95,130.0
4675,A3,917.5,0.25,95,130.0
4676,A2,917.5,0.25,95,130.0
4677,G2,917.75,0.25,95,130.0
4678,E2,918.0,0.25,95,130.0
4679,D2,918.25,0.25,95,130.0
4680,A2,918.5,0.25,95,130.0
4681,A1,918.5,0.25,95,130.0
4682,A3,918.75,0.25,95,130.0
4683,A2,918.75,0.25,95,130.0
4684,A2,919.0,0.25,95,130.0
4685,G2,919.0,0.25,95,130.0
4686,A2,919.25,0.25,95,130.0
4687,E2,919.25,0.25,95,130.0
4688,A3,919.5,0.25,95,130.0
4689,A2,919.5,0.25,95,130.0
4690,A2,919.75,0.25,95,130.0
4691,A2,920.0,0.25,95,130.0
4692,A2,920.25,0.25,95,130.0
4693,A2,920.5,0.25,95,130.0
4694,A1,920.5,0.25,95,130.0
4695,A3,920.75,0.25,95,130.0
4696,A2,920.75,0.25,95,130.0
4697,A2,921.0,0.25,95,130.0
4698,G2,921.0,0.25,95,130.0
4699,A2,921.25,0.25,95,130.0
4700,E2,921.25,0.25,95,130.0
4701,D4,921.5,0.25,95,130.0
4702,A2,921.5,0.25,95,130.0
4703,C#4,921.75,0.25,95,130.0
4704,G2,921.75,0.25,95,130.0
4705,A3,922.0,0.25,95,130.0
4706,E2,922.0,0.25,95,130.0
4707,G3,922.25,0.25,95,130.0
4708,D2,922.25,0.25,95,130.0
4709,A2,922.5,0.25,95,130.0
4710,A1,922.5,0.25,95,130.0
4711,A3,922.75,0.25,95,130.0
4712,A2,922.75,0.25,95,130.0
4713,G3,923.0,0.25,95,130.0
4714,G2,923.0,0.25,95,130.0
4715,E3,923.25,0.25,95,130.0
4716,E2,923.25,0.25,95,130.0
4717,A3,923.5,0.25,95,130.0
4718,B-2,923.5,0.25,95,130.0
4719,G3,923.75,0.25,95,130.0
4720,A2,923.75,0.25,95,130.0
4721,E3,924.0,0.25,95,130.0
4722,G2,924.0,0.25,95,130.0
4723,D3,924.25,0.25,95,130.0
4724,E2,924.25,0.25,95,130.0
4725,A2,924.5,0.25,95,130.0
4726,A1,924.5,0.25,95,130.0
4727,A3,924.75,0.25,95,130.0
4728,A2,924.75,0.25,95,130.0
4729,G3,925.0,0.25,95,130.0
4730,G2,925.0,0.25,95,130.0
4731,E3,925.25,0.25,95,130.0
4732,E2,925.25,0.25,95,130.0
4733,A3,925.5,0.25,95,130.0
4734,A2,925.5,0.25,95,130.0
4735,G2,925.75,0.25,95,130.0
4736,E2,926.0,0.25,95,130.0
4737,D2,926.25,0.25,95,130.0
4738,A2,926.5,0.25,95,130.0
4739,A1,926.5,0.25,95,130.0
4740,A3,926.75,0.25,95,130.0
4741,A2,926.75,0.25,95,130.0
4742,G3,927.0,0.25,95,130.0
4743,G2,927.0,0.25,95,130.0
4744,E3,927.25,0.25,95,130.0
4745,E2,927.25,0.25,95,130.0
4746,A3,927.5,0.25,95,130.0
4747,A2,927.5,0.25,95,130.0
4748,G3,927.75,0.25,95,130.0
4749,E3,928.0,0.25,95,130.0
4750,D3,928.25,0.25,95,130.0
4751,A2,928.5,0.25,95,130.0
4752,A1,928.5,0.25,95,130.0
4753,A3,928.75,0.25,95,130.0
4754,A2,928.75,0.25,95,130.0
4755,G3,929.0,0.25,95,130.0
4756,G2,929.0,0.25,95,130.0
4757,E3,929.25,0.25,95,130.0
4758,E2,929.25,0.25,95,130.0
4759,B-3,929.5,0.25,95,130.0
4760,A2,929.5,0.25,95,130.0
4761,A3,929.75,0.25,95,130.0
4762,G2,929.75,0.25,95,130.0
4763,G3,930.0,0.25,95,130.0
4764,E2,930.0,0.25,95,130.0
4765,E3,930.25,0.25,95,130.0
4766,D2,930.25,0.25,95,130.0
4767,A2,930.5,0.25,95,130.0
4768,A1,930.5,0.25,95,130.0
4769,A3,930.75,0.25,95,130.0
4770,G3,930.75,0.25,95,130.0
4771,G3,931.0,0.25,95,130.0
4772,E3,931.0,0.25,95,130.0
4773,E3,931.25,0.25,95,130.0
4774,D3,931.25,0.25,95,130.0
4775,A3,931.5,0.25,95,130.0
4776,C#3,931.5,0.25,95,130.0
4777,G3,931.75,0.25,95,130.0
4778,A2,931.75,0.25,95,130.0
4779,E3,932.0,0.25,95,130.0
4780,G2,932.0,0.25,95,130.0
4781,D3,932.25,0.25,95,130.0
4782,E2,932.25,0.25,95,130.0
4783,A2,932.5,0.25,95,130.0
4784,D2,932.5,1.5,95,130.0
4785,A3,932.75,0.25,95,130.0
4786,G3,933.0,0.25,95,130.0
4787,E3,933.25,0.25,95,130.0
4788,A3,933.5,0.25,95,130.0
4789,F2,934.0,1.5,95,130.0
4790,A2,934.5,0.25,95,130.0
4791,A3,934.75,0.25,95,130.0
4792,G3,935.0,0.25,95,130.0
4793,E3,935.25,0.25,95,130.0
4794,A3,935.5,0.25,95,130.0
4795,A3,935.5,1.5,95,130.0
4796,C2,935.5,1.0,95,130.0
4797,G3,935.75,0.25,95,130.0
4798,E3,936.0,0.25,95,130.0
4799,D3,936.25,0.25,95,130.0
4800,A2,936.5,0.25,95,130.0
4801,D2,936.5,1.5,95,130.0
4802,G4,936.75,0.25,95,130.0
4803,E4,937.0,0.25,95,130.0
4804,E4,937.0,2.0,95,130.0
4805,D4,937.25,0.25,95,130.0
4806,C#4,937.5,0.25,95,130.0
4807,A3,937.75,0.25,95,130.0
4808,G3,938.0,0.25,95,130.0
4809,F2,938.0,1.5,95,130.0
4810,E3,938.25,0.25,95,130.0
4811,A3,938.5,1.5,95,130.0
4812,D3,938.5,1.5,95,130.0
4813,D4,939.0,0.5,95,130.0
4814,D4,939.5,0.25,95,130.0
4815,E2,939.5,1.0,95,130.0
4816,F4,939.75,2.0,95,130.0
4817,F3,940.0,1.5,95,130.0
4818,C3,940.0,1.5,95,130.0
4819,D2,940.5,1.5,95,130.0
4820,G3,941.5,1.0,95,130.0
4821,C3,941.5,1.0,95,130.0
4822,F2,942.0,1.5,95,130.0
4823,A3,942.5,1.5,95,130.0
4824,D3,942.5,1.5,95,130.0
4825,G4,943.5,1.5,95,130.0
4826,C2,943.5,1.0,95,130.0
4827,F3,944.0,1.5,95,130.0
4828,C3,944.0,1.5,95,130.0
4829,B-1,944.5,1.5,95,130.0
4830,F4,945.0,0.5,95,130.0
4831,E4,945.5,0.125,95,130.0
4832,E3,945.5,1.0,95,130.0
4833,B2,945.5,1.0,95,130.0
4834,F4,945.625,0.125,70,130.0
4835,E4,945.75,0.75,70,130.0
4836,G1,946.0,1.5,95,130.0
4837,D4,946.5,0.5,95,130.0
4838,A3,946.5,1.5,95,130.0
4839,D3,946.5,1.5,95,130.0
4840,C4,947.0,0.5,95,130.0
4841,B-3,947.5,1.5,95,130.0
4842,A1,947.5,1.0,95,130.0
4843,F3,948.0,1.5,95,130.0
4844,C3,948.0,1.5,95,130.0
4845,D2,948.5,1.5,95,130.0
4846,E4,949.0,0.5,95,130.0
4847,E4,949.5,1.0,95,130.0
4848,G3,949.5,1.0,95,130.0
4849,C3,949.5,1.0,95,130.0
4850,F2,950.0,1.5,95,130.0
4851,F3,950.5,1.5,95,130.0
4852,B-2,950.5,1.5,95,130.0
4853,C2,951.5,1.0,95,130.0
4854,A4,952.0,0.25,95,130.0
4855,D3,952.0,1.5,95,130.0
4856,G2,952.0,1.5,95,130.0
4857,D5,952.25,0.25,95,130.0
4858,A4,952.5,0.25,95,130.0
4859,D2,952.5,1.5,95,130.0
4860,F4,952.75,0.25,95,130.0
4861,E4,953.0,0.25,95,130.0
4862,D4,953.25,0.25,95,130.0
4863,C4,953.5,0.25,95,130.0
4864,E3,953.5,1.0,95,130.0
4865,A2,953.5,1.0,95,130.0
4866,G4,953.75,0.25,95,130.0
4867,F4,954.0,0.25,95,130.0
4868,F2,954.0,1.5,95,130.0
4869,E4,954.25,0.25,95,130.0
4870,D4,954.5,1.0,95,130.0
4871,A3,954.5,1.5,95,130.0
4872,D3,954.5,1.5,95,130.0
4873,F4,955.5,0.25,95,130.0
4874,E2,955.5,1.0,95,130.0
4875,A4,955.75,0.25,95,130.0
4876,F4,956.0,0.25,95,130.0
4877,F3,956.0,1.5,95,130.0
4878,C3,956.0,1.5,95,130.0
4879,D4,956.25,0.25,95,130.0
4880,C4,956.5,0.25,95,130.0
4881,D2,956.5,1.5,95,130.0
4882,B-3,956.75,0.25,95,130.0
4883,A3,957.0,0.25,95,130.0
4884,G3,957.25,0.25,95,130.0
4885,A3,957.5,0.25,95,130.0
4886,G3,957.5,1.0,95,130.0
4887,C3,957.5,1.0,95,130.0
4888,C4,957.75,0.25,95,130.0
4889,E4,958.0,167/1000,95,130.0
4890,F2,958.0,1.5,95,130.0
4891,D4,958.167,167/1000,95,130.0
4892,C4,958.333,167/1000,95,130.0
4893,A3,958.5,1.0,95,130.0
4894,A3,958.5,1.5,95,130.0
4895,D3,958.5,1.5,95,130.0
4896,G4,959.5,167/1000,95,130.0
4897,C2,959.5,1.0,95,130.0
4898,A4,959.667,167/1000,95,130.0
4899,F4,959.833,167/1000,95,130.0
4900,G4,960.0,0.5,95,130.0
4901,F3,960.0,1.5,95,130.0
4902,C3,960.0,1.5,95,130.0
4903,B-1,960.5,1.5,95,130.0
4904,B-4,961.0,167/1000,95,130.0
4905,A4,961.167,167/1000,95,130.0
4906,G4,961.333,167/1000,95,130.0
4907,A4,961.5,0.5,95,130.0
4908,E3,961.5,1.0,95,130.0
4909,B2,961.5,1.0,95,130.0
4910,C2,962.0,1.5,95,130.0
4911,B-4,962.5,167/1000,95,130.0
4912,A3,962.5,1.5,95,130.0
4913,D3,962.5,1.5,95,130.0
4914,C5,962.667,167/1000,95,130.0
4915,A4,962.833,167/1000,95,130.0
4916,B-4,963.0,0.5,95,130.0
4917,A1,963.5,1.0,95,130.0
4918,E5,964.0,167/1000,95,130.0
4919,F3,964.0,1.5,95,130.0
4920,C3,964.0,1.5,95,130.0
4921,F5,964.167,167/1000,95,130.0
4922,E5,964.333,167/1000,95,130.0
4923,B-4,964.5,0.25,95,130.0
4924,D2,964.5,1.5,95,130.0
4925,A4,964.75,0.25,95,130.0
4926,G4,965.0,0.25,95,130.0
4927,F4,965.25,0.25,79,130.0
4928,G4,965.5,0.25,79,130.0
4929,G3,965.5,1.0,95,130.0
4930,C3,965.5,1.0,95,130.0
4931,F4,965.75,0.25,79,130.0
4932,E4,966.0,0.25,79,130.0
4933,F2,966.0,1.5,95,130.0
4934,D4,966.25,0.25,63,130.0
4935,E4,966.5,0.25,63,130.0
4936,F3,966.5,1.5,95,130.0
4937,B-2,966.5,1.5,95,130.0
4938,D4,966.75,0.25,47,130.0
4939,C4,967.0,0.25,47,130.0
4940,A3,967.25,0.25,47,130.0
4941,C2,967.5,1.0,95,130.0
4942,G3,968.0,1.5,95,130.0
4943,C3,968.0,1.5,95,130.0
4944,A3,968.25,0.75,95,130.0
4945,D2,968.5,1.5,95,130.0
4946,F4,969.0,0.5,95,130.0
4947,E4,969.5,1.5,95,130.0
4948,E3,969.5,1.0,95,130.0
4949,A2,969.5,1.0,95,130.0
4950,F2,970.0,1.5,95,130.0
4951,A3,970.5,1.5,95,130.0
4952,D3,970.5,1.5,95,130.0
4953,F4,971.0,0.25,95,130.0
4954,G4,971.25,0.25,95,130.0
4955,A4,971.5,0.75,95,130.0
4956,E2,971.5,1.0,95,130.0
4957,F3,972.0,1.5,95,130.0
4958,C3,972.0,1.5,95,130.0
4959,A4,972.25,0.25,95,130.0
4960,A4,972.5,0.5,95,130.0
4961,D2,972.5,1.5,95,130.0
4962,B-4,973.0,0.5,95,130.0
4963,A4,973.5,2.0,95,130.0
4964,G3,973.5,1.0,95,130.0
4965,C3,973.5,1.0,95,130.0
4966,F2,974.0,1.5,95,130.0
4967,A3,974.5,1.5,95,130.0
4968,D3,974.5,1.5,95,130.0
4969,A3,975.5,0.75,95,130.0
4970,C2,975.5,1.0,95,130.0
4971,F3,976.0,1.5,95,130.0
4972,C3,976.0,1.5,95,130.0
4973,B-3,976.25,0.75,95,130.0
4974,B-1,976.5,1.5,95,130.0
4975,F4,977.0,0.5,95,130.0
4976,E4,977.5,2.0,95,130.0
4977,E3,977.5,1.0,95,130.0
4978,B2,977.5,1.0,95,130.0
4979,G1,978.0,1.5,95,130.0
4980,A3,978.5,1.5,95,130.0
4981,D3,978.5,1.5,95,130.0
4982,B-3,979.5,0.75,95,130.0
4983,A1,979.5,1.0,95,130.0
4984,F3,980.0,1.5,95,130.0
4985,C3,980.0,1.5,95,130.0
4986,D4,980.25,0.75,95,130.0
4987,D2,980.5,1.5,95,130.0
4988,A4,981.0,0.5,95,130.0
4989,G4,981.5,2.0,95,130.0
4990,G3,981.5,1.0,95,130.0
4991,C3,981.5,1.0,95,130.0
4992,F2,982.0,1.5,95,130.0
4993,F3,982.5,1.5,95,130.0
4994,B-2,982.5,1.5,95,130.0
4995,G#5,983.5,1.5,95,130.0
4996,C2,983.5,1.0,95,130.0
4997,A4,984.0,333/1000,95,130.0
4998,D3,984.0,1.5,95,130.0
4999,G2,984.0,1.5,95,130.0
5000,C5,984.333,333/1000,95,130.0
5001,D2,984.5,1.5,95,130.0
5002,A4,984.667,333/1000,95,130.0
5003,G#5,985.0,0.5,95,130.0
5004,E3,985.5,1.0,95,130.0
5005,A2,985.5,1.0,95,130.0
5006,A4,985.5,333/1000,63,130.0
5007,A5,985.5,333/1000,63,130.0
5008,G4,985.833,333/1000,95,130.0
5009,F2,986.0,1.5,95,130.0
5010,D4,986.167,333/1000,95,130.0
5011,A3,986.5,333/1000,95,130.0
5012,A3,986.5,1.5,95,130.0
5013,D3,986.5,1.5,95,130.0
5014,C4,986.833,333/1000,95,130.0
5015,D4,987.167,333/1000,95,130.0
5016,F4,987.5,333/1000,95,130.0
5017,E2,987.5,1.0,95,130.0
5018,G4,987.833,333/1000,95,130.0
5019,F3,988.0,1.5,95,130.0
5020,C3,988.0,1.5,95,130.0
5021,G4,988.167,333/1000,95,130.0
5022,A4,988.5,333/1000,95,130.0
5023,D2,988.5,1.5,95,130.0
5024,A3,988.833,333/1000,95,130.0
5025,D4,989.167,333/1000,95,130.0
5026,C4,989.5,2.0,95,130.0
5027,G3,989.5,1.0,95,130.0
5028,C3,989.5,1.0,95,130.0
5029,F2,990.0,1.5,95,130.0
5030,A3,990.5,1.5,95,130.0
5031,D3,990.5,1.5,95,130.0
5032,D5,991.5,0.25,95,130.0
5033,C2,991.5,1.0,95,130.0
5034,C5,991.75,0.25,95,130.0
5035,G4,992.0,0.25,95,130.0
5036,F3,992.0,1.5,95,130.0
5037,C3,992.0,1.5,95,130.0
5038,G4,992.25,0.5,95,130.0
5039,B-1,992.5,1.5,95,130.0
5040,D5,992.75,0.25,95,130.0
5041,B4,993.0,0.5,95,130.0
5042,D5,993.5,0.25,95,130.0
5043,E3,993.5,1.0,95,130.0
5044,B2,993.5,1.0,95,130.0
5045,C5,993.75,0.25,95,130.0
5046,A4,994.0,0.25,95,130.0
5047,C2,994.0,1.5,95,130.0
5048,G4,994.25,0.25,95,130.0
5049,G4,994.5,0.5,95,130.0
5050,A3,994.5,1.5,95,130.0
5051,D3,994.5,1.5,95,130.0
5052,G5,995.0,0.5,95,130.0
5053,G5,995.5,1.0,95,130.0
5054,A1,995.5,1.0,95,130.0
5055,F3,996.0,1.5,95,130.0
5056,C3,996.0,1.5,95,130.0
5057,D5,996.5,0.25,95,130.0
5058,A1,996.5,0.25,95,130.0
5059,C5,996.75,0.25,95,130.0
5060,A2,996.75,0.25,95,130.0
5061,A4,997.0,0.25,79,130.0
5062,A1,997.0,0.25,95,130.0
5063,G4,997.25,0.25,79,130.0
5064,A1,997.25,0.25,95,130.0
5065,F4,997.5,0.25,79,130.0
5066,A2,997.5,0.25,95,130.0
5067,G3,997.5,1.0,95,130.0
5068,C3,997.5,1.0,95,130.0
5069,E4,997.75,0.25,63,130.0
5070,A1,997.75,0.25,95,130.0
5071,D4,998.0,0.25,63,130.0
5072,A1,998.0,0.25,95,130.0
5073,C4,998.25,0.25,63,130.0
5074,A1,998.25,0.25,95,130.0
5075,A1,998.5,0.25,95,130.0
5076,F3,998.5,1.5,95,130.0
5077,B-2,998.5,1.5,95,130.0
5078,A2,998.75,0.25,95,130.0
5079,A1,999.0,0.25,95,130.0
5080,A1,999.25,0.25,95,130.0
5081,A2,999.5,0.25,95,130.0
5082,G3,1000.0,1.5,95,130.0
5083,C3,1000.0,1.5,95,130.0
5084,A1,1000.5,0.25,95,130.0
5085,A2,1000.75,0.25,95,130.0
5086,A1,1001.0,0.25,95,130.0
5087,A1,1001.25,0.25,95,130.0
5088,A2,1001.5,0.25,95,130.0
5089,C3,1001.5,1.0,95,130.0
5090,G2,1001.5,1.0,95,130.0
5091,A1,1001.75,0.25,95,130.0
5092,A1,1002.0,0.25,95,130.0
5093,A1,1002.25,0.25,95,130.0
5094,A2,1002.5,0.25,95,130.0
5095,A1,1002.5,0.25,95,130.0
5096,A3,1002.75,0.25,95,130.0
5097,A2,1002.75,0.25,95,130.0
5098,A2,1003.0,0.25,95,130.0
5099,A1,1003.0,0.25,95,130.0
5100,A2,1003.25,0.25,95,130.0
5101,A1,1003.25,0.25,95,130.0
5102,A3,1003.5,0.25,95,130.0
5103,B-2,1003.5,0.25,95,130.0
5104,A2,1003.75,0.25,95,130.0
5105,A2,1003.75,0.25,95,130.0
5106,A2,1004.0,0.25,95,130.0
5107,G2,1004.0,0.25,95,130.0
5108,A2,1004.25,0.25,95,130.0
5109,E2,1004.25,0.25,95,130.0
5110,A2,1004.5,0.25,95,130.0
5111,A1,1004.5,0.25,95,130.0
5112,A3,1004.75,0.25,95,130.0
5113,A2,1004.75,0.25,95,130.0
5114,A2,1005.0,0.25,95,130.0
5115,A1,1005.0,0.25,95,130.0
5116,A2,1005.25,0.25,95,130.0
5117,A1,1005.25,0.25,95,130.0
5118,A3,1005.5,0.25,95,130.0
5119,A1,1005.5,0.25,95,130.0
5120,A2,1005.75,0.25,95,130.0
5121,A1,1006.0,0.25,95,130.0
5122,A1,1006.25,0.25,95,130.0
5123,A2,1006.5,0.25,95,130.0
5124,A1,1006.5,0.25,95,130.0
5125,A3,1006.75,0.25,95,130.0
5126,A1,1006.75,0.25,95,130.0
5127,A2,1007.0,0.25,95,130.0
5128,A2,1007.0,0.25,95,130.0
5129,A2,1007.25,0.25,95,130.0
5130,A1,1007.25,0.25,95,130.0
5131,A3,1007.5,0.25,95,130.0
5132,A1,1007.5,0.25,95,130.0
5133,A2,1007.75,0.25,95,130.0
5134,A2,1008.0,0.25,95,130.0
5135,A2,1008.25,0.25,95,130.0
5136,A2,1008.5,0.25,95,130.0
5137,A1,1008.5,0.25,95,130.0
5138,A3,1008.75,0.25,95,130.0
5139,A2,1008.75,0.25,95,130.0
5140,A2,1009.0,0.25,95,130.0
5141,A1,1009.0,0.25,95,130.0
5142,A2,1009.25,0.25,95,130.0
5143,A1,1009.25,0.25,95,130.0
5144,B-3,1009.5,0.25,95,130.0
5145,A2,1009.5,0.25,95,130.0
5146,A3,1009.75,0.25,95,130.0
5147,A1,1009.75,0.25,95,130.0
5148,G3,1010.0,0.25,95,130.0
5149,A1,1010.0,0.25,95,130.0
5150,E3,1010.25,0.25,95,130.0
5151,A1,1010.25,0.25,95,130.0
5152,A2,1010.5,0.25,95,130.0
5153,A1,1010.5,0.25,95,130.0
5154,A3,1010.75,0.25,95,130.0
5155,A2,1010.75,0.25,95,130.0
5156,A2,1011.0,0.25,95,130.0
5157,A1,1011.0,0.25,95,130.0
5158,A2,1011.25,0.25,95,130.0
5159,A1,1011.25,0.25,95,130.0
5160,A3,1011.5,0.25,95,130.0
5161,D3,1011.5,0.25,95,130.0
5162,A2,1011.75,0.25,95,130.0
5163,C#3,1011.75,0.25,95,130.0
5164,A2,1012.0,0.25,95,130.0
5165,A2,1012.0,0.25,95,130.0
5166,A2,1012.25,0.25,95,130.0
5167,G2,1012.25,0.25,95,130.0
5168,A2,1012.5,0.25,95,130.0
5169,A1,1012.5,0.25,95,130.0
5170,A3,1012.75,0.25,95,130.0
5171,A2,1012.75,0.25,95,130.0
5172,A2,1013.0,0.25,95,130.0
5173,G2,1013.0,0.25,95,130.0
5174,A2,1013.25,0.25,95,130.0
5175,E2,1013.25,0.25,95,130.0
5176,A3,1013.5,0.25,95,130.0
5177,A2,1013.5,0.25,95,130.0
5178,G2,1013.75,0.25,95,130.0
5179,E2,1014.0,0.25,95,130.0
5180,D2,1014.25,0.25,95,130.0
5181,A2,1014.5,0.25,95,130.0
5182,A1,1014.5,0.25,95,130.0
5183,A3,1014.75,0.25,95,130.0
5184,A2,1014.75,0.25,95,130.0
5185,A2,1015.0,0.25,95,130.0
5186,G2,1015.0,0.25,95,130.0
5187,A2,1015.25,0.25,95,130.0
5188,E2,1015.25,0.25,95,130.0
5189,A3,1015.5,0.25,95,130.0
5190,A2,1015.5,0.25,95,130.0
5191,A2,1015.75,0.25,95,130.0
5192,A2,1016.0,0.25,95,130.0
5193,A2,1016.25,0.25,95,130.0
5194,A2,1016.5,0.25,95,130.0
5195,A1,1016.5,0.25,95,130.0
5196,A3,1016.75,0.25,95,130.0
5197,A2,1016.75,0.25,95,130.0
5198,A2,1017.0,0.25,95,130.0
5199,G2,1017.0,0.25,95,130.0
5200,A2,1017.25,0.25,95,130.0
5201,E2,1017.25,0.25,95,130.0
5202,D4,1017.5,0.25,95,130.0
5203,A2,1017.5,0.25,95,130.0
5204,C#4,1017.75,0.25,95,130.0
5205,G2,1017.75,0.25,95,130.0
5206,A3,1018.0,0.25,95,130.0
5207,E2,1018.0,0.25,95,130.0
5208,G3,1018.25,0.25,95,130.0
5209,D2,1018.25,0.25,95,130.0
5210,A2,1018.5,0.25,95,130.0
5211,A1,1018.5,0.25,95,130.0
5212,A3,1018.75,0.25,95,130.0
5213,A2,1018.75,0.25,95,130.0
5214,G3,1019.0,0.25,95,130.0
5215,G2,1019.0,0.25,95,130.0
5216,E3,1019.25,0.25,95,130.0
5217,E2,1019.25,0.25,95,130.0
5218,A3,1019.5,0.25,95,130.0
5219,B-2,1019.5,0.25,95,130.0
5220,G3,1019.75,0.25,95,130.0
5221,A2,1019.75,0.25,95,130.0
5222,E3,1020.0,0.25,95,130.0
5223,G2,1020.0,0.25,95,130.0
5224,D3,1020.25,0.25,95,130.0
5225,E2,1020.25,0.25,95,130.0
5226,A2,1020.5,0.25,95,130.0
5227,A1,1020.5,0.25,95,130.0
5228,A3,1020.75,0.25,95,130.0
5229,A2,1020.75,0.25,95,130.0
5230,G3,1021.0,0.25,95,130.0
5231,G2,1021.0,0.25,95,130.0
5232,E3,1021.25,0.25,95,130.0
5233,E2,1021.25,0.25,95,130.0
5234,A3,1021.5,0.25,95,130.0
5235,A2,1021.5,0.25,95,130.0
5236,G2,1021.75,0.25,95,130.0
5237,E2,1022.0,0.25,95,130.0
5238,D2,1022.25,0.25,95,130.0
5239,A2,1022.5,0.25,95,130.0
5240,A1,1022.5,0.25,95,130.0
5241,A3,1022.75,0.25,95,130.0
5242,A2,1022.75,0.25,95,130.0
5243,G3,1023.0,0.25,95,130.0
5244,G2,1023.0,0.25,95,130.0
5245,E3,1023.25,0.25,95,130.0
5246,E2,1023.25,0.25,95,130.0
5247,A3,1023.5,0.25,95,130.0
5248,A2,1023.5,0.25,95,130.0
5249,G3,1023.75,0.25,95,130.0
5250,E3,1024.0,0.25,95,130.0
5251,D3,1024.25,0.25,95,130.0
5252,A2,1024.5,0.25,95,130.0
5253,A1,1024.5,0.25,95,130.0
5254,A3,1024.75,0.25,95,130.0
5255,A2,1024.75,0.25,95,130.0
5256,G3,1025.0,0.25,95,130.0
5257,G2,1025.0,0.25,95,130.0
5258,E3,1025.25,0.25,95,130.0
5259,E2,1025.25,0.25,95,130.0
5260,B-3,1025.5,0.25,95,130.0
5261,A2,1025.5,0.25,95,130.0
5262,A3,1025.75,0.25,95,130.0
5263,G2,1025.75,0.25,95,130.0
5264,G3,1026.0,0.25,95,130.0
5265,E2,1026.0,0.25,95,130.0
5266,E3,1026.25,0.25,95,130.0
5267,D2,1026.25,0.25,95,130.0
5268,A2,1026.5,0.25,95,130.0
5269,A1,1026.5,0.25,95,130.0
5270,A3,1026.75,0.25,95,130.0
5271,G3,1026.75,0.25,95,130.0
5272,G3,1027.0,0.25,95,130.0
5273,E3,1027.0,0.25,95,130.0
5274,E3,1027.25,0.25,95,130.0
5275,D3,1027.25,0.25,95,130.0
5276,A3,1027.5,0.25,95,130.0
5277,C#3,1027.5,0.25,95,130.0
5278,G3,1027.75,0.25,95,130.0
5279,A2,1027.75,0.25,95,130.0
5280,E3,1028.0,0.25,95,130.0
5281,G2,1028.0,0.25,95,130.0
5282,D3,1028.25,0.25,95,130.0
5283,E2,1028.25,0.25,95,130.0
5284,A2,1028.5,0.25,95,130.0
5285,D2,1028.5,1.5,95,130.0
5286,A3,1028.75,0.25,95,130.0
5287,G3,1029.0,0.25,95,130.0
5288,E3,1029.25,0.25,95,130.0
5289,A3,1029.5,0.25,95,130.0
5290,F2,1030.0,1.5,95,130.0
5291,A2,1030.5,0.25,95,130.0
5292,A3,1030.75,0.25,95,130.0
5293,G3,1031.0,0.25,95,130.0
5294,E3,1031.25,0.25,95,130.0
5295,A3,1031.5,0.25,95,130.0
5296,C6,1031.5,0.75,95,130.0
5297,C2,1031.5,1.0,95,130.0
5298,G3,1031.75,0.25,95,130.0
5299,E3,1032.0,0.25,95,130.0
5300,D3,1032.25,0.25,95,130.0
5301,D6,1032.25,0.75,95,130.0
5302,A2,1032.5,0.25,95,130.0
5303,D2,1032.5,1.5,95,130.0
5304,G4,1032.75,0.25,95,130.0
5305,E4,1033.0,0.25,95,130.0
5306,C#6,1033.0,0.5,95,130.0
5307,D4,1033.25,0.25,95,130.0
5308,C#4,1033.5,0.25,95,130.0
5309,D6,1033.5,1.0,95,130.0
5310,A3,1033.75,0.25,95,130.0
5311,G3,1034.0,0.25,95,130.0
5312,F2,1034.0,1.5,95,130.0
5313,E3,1034.25,0.25,95,130.0
5314,A3,1034.5,1.5,95,130.0
5315,D3,1034.5,1.5,95,130.0
5316,C6,1035.5,0.5,95,130.0
5317,E2,1035.5,1.0,95,130.0
5318,C6,1036.0,0.25,95,130.0
5319,F3,1036.0,1.5,95,130.0
5320,C3,1036.0,1.5,95,130.0
5321,A5,1036.25,0.25,95,130.0
5322,G5,1036.5,0.5,95,130.0
5323,D2,1036.5,1.5,95,130.0
5324,G5,1037.0,0.25,95,130.0
5325,F5,1037.25,0.25,95,130.0
5326,G5,1037.5,0.5,95,130.0
5327,G3,1037.5,1.0,95,130.0
5328,C3,1037.5,1.0,95,130.0
5329,G5,1038.0,0.5,95,130.0
5330,F2,1038.0,1.5,95,130.0
5331,A3,1038.5,1.5,95,130.0
5332,D3,1038.5,1.5,95,130.0
5333,C2,1039.5,1.0,95,130.0
5334,D6,1040.0,2.0,95,130.0
5335,F3,1040.0,1.5,95,130.0
5336,C3,1040.0,1.5,95,130.0
5337,B-1,1040.5,1.5,95,130.0
5338,E3,1041.5,1.0,95,130.0
5339,B2,1041.5,1.0,95,130.0
5340,D6,1042.0,1.0,95,130.0
5341,G1,1042.0,1.5,95,130.0
5342,A3,1042.5,1.5,95,130.0
5343,D3,1042.5,1.5,95,130.0
5344,D6,1043.0,0.5,95,130.0
5345,D6,1043.5,1.5,95,130.0
5346,A1,1043.5,1.0,95,130.0
5347,F3,1044.0,1.5,95,130.0
5348,C3,1044.0,1.5,95,130.0
5349,D2,1044.5,1.5,95,130.0
5350,D6,1045.0,2.5,95,130.0
5351,G3,1045.5,1.0,95,130.0
5352,C3,1045.5,1.0,95,130.0
5353,F2,1046.0,1.5,95,130.0
5354,F3,1046.5,1.5,95,130.0
5355,B-2,1046.5,1.5,95,130.0
5356,F5,1047.5,167/1000,95,130.0
5357,C2,1047.5,1.0,95,130.0
5358,G#5,1047.667,167/1000,70,130.0
5359,A5,1047.833,167/1000,70,130.0
5360,C6,1048.0,167/1000,95,130.0
5361,D3,1048.0,1.5,95,130.0
5362,G2,1048.0,1.5,95,130.0
5363,A5,1048.167,167/1000,70,130.0
5364,G#5,1048.333,167/1000,70,130.0
5365,F5,1048.5,167/1000,70,130.0
5366,D2,1048.5,1.5,95,130.0
5367,G#5,1048.667,167/1000,70,130.0
5368,A5,1048.833,167/1000,70,130.0
5369,C6,1049.0,167/1000,95,130.0
5370,A5,1049.167,167/1000,70,130.0
5371,G#5,1049.333,167/1000,70,130.0
5372,C6,1049.5,167/1000,95,130.0
5373,E3,1049.5,1.0,95,130.0
5374,A2,1049.5,1.0,95,130.0
5375,A5,1049.667,167/1000,70,130.0
5376,G#5,1049.833,167/1000,70,130.0
5377,F5,1050.0,167/1000,70,130.0
5378,F2,1050.0,1.5,95,130.0
5379,G#5,1050.167,167/1000,70,130.0
5380,A5,1050.333,167/1000,70,130.0
5381,C6,1050.5,167/1000,95,130.0
5382,A3,1050.5,1.5,95,130.0
5383,D3,1050.5,1.5,95,130.0
5384,A5,1050.667,167/1000,70,130.0
5385,G#5,1050.833,167/1000,70,130.0
5386,F5,1051.0,167/1000,70,130.0
5387,G#5,1051.167,167/1000,70,130.0
5388,A5,1051.333,167/1000,70,130.0
5389,C6,1051.5,167/1000,95,130.0
5390,E2,1051.5,1.0,95,130.0
5391,A5,1051.667,167/1000,70,130.0
5392,G#5,1051.833,167/1000,70,130.0
5393,C6,1052.0,167/1000,95,130.0
5394,F3,1052.0,1.5,95,130.0
5395,C3,1052.0,1.5,95,130.0
5396,A5,1052.167,167/1000,70,130.0
5397,G#5,1052.333,167/1000,70,130.0
5398,F5,1052.5,167/1000,70,130.0
5399,D2,1052.5,1.5,95,130.0
5400,G#5,1052.667,167/1000,70,130.0
5401,A5,1052.833,167/1000,70,130.0
5402,C6,1053.0,167/1000,95,130.0
5403,A5,1053.167,167/1000,70,130.0
5404,G#5,1053.333,167/1000,70,130.0
5405,F5,1053.5,167/1000,70,130.0
5406,G3,1053.5,1.0,95,130.0
5407,C3,1053.5,1.0,95,130.0
5408,G#5,1053.667,167/1000,70,130.0
5409,A5,1053.833,167/1000,70,130.0
5410,C6,1054.0,167/1000,95,130.0
5411,F2,1054.0,1.5,95,130.0
5412,A5,1054.167,167/1000,70,130.0
5413,G#5,1054.333,167/1000,70,130.0
5414,C6,1054.5,167/1000,95,130.0
5415,A3,1054.5,1.5,95,130.0
5416,D3,1054.5,1.5,95,130.0
5417,A5,1054.667,167/1000,70,130.0
5418,G#5,1054.833,167/1000,70,130.0
5419,F5,1055.0,167/1000,70,130.0
5420,G#5,1055.167,167/1000,70,130.0
5421,A5,1055.333,167/1000,70,130.0
5422,C6,1055.5,0.25,95,130.0
5423,C2,1055.5,1.0,95,130.0
5424,A5,1055.75,0.25,70,130.0
5425,G5,1056.0,0.25,70,130.0
5426,F3,1056.0,1.5,95,130.0
5427,C3,1056.0,1.5,95,130.0
5428,F5,1056.25,0.25,70,130.0
5429,F5,1056.5,0.25,95,130.0
5430,B-1,1056.5,1.5,95,130.0
5431,D5,1056.75,0.25,95,130.0
5432,A4,1057.0,0.25,95,130.0
5433,A4,1057.25,0.25,95,130.0
5434,F4,1057.5,0.25,95,130.0
5435,E3,1057.5,1.0,95,130.0
5436,B2,1057.5,1.0,95,130.0
5437,D5,1057.75,0.25,95,130.0
5438,A4,1058.0,0.25,95,130.0
5439,C2,1058.0,1.5,95,130.0
5440,A4,1058.25,0.25,95,130.0
5441,F4,1058.5,0.25,95,130.0
5442,A3,1058.5,1.5,95,130.0
5443,D3,1058.5,1.5,95,130.0
5444,C4,1058.75,0.25,95,130.0
5445,A3,1059.0,0.25,95,130.0
5446,F3,1059.25,0.25,95,130.0
5447,C4,1059.5,0.25,95,130.0
5448,G1,1059.5,1.0,95,130.0
5449,C4,1059.75,0.25,95,130.0
5450,G3,1060.0,0.25,95,130.0
5451,F3,1060.0,1.5,95,130.0
5452,C3,1060.0,1.5,95,130.0
5453,E4,1060.25,0.25,95,130.0
5454,C4,1060.5,0.25,95,130.0
5455,D2,1060.5,1.5,95,130.0
5456,C4,1060.75,0.25,79,130.0
5457,G3,1061.0,0.25,79,130.0
5458,E4,1061.25,0.25,79,130.0
5459,G3,1061.5,0.25,63,130.0
5460,G3,1061.5,1.0,95,130.0
5461,C3,1061.5,1.0,95,130.0
5462,E3,1061.75,0.25,63,130.0
5463,E2,1062.0,0.25,63,130.0
5464,F2,1062.0,1.5,95,130.0
5465,E3,1062.25,0.25,47,130.0
5466,G3,1062.5,0.25,47,130.0
5467,F3,1062.5,1.5,95,130.0
5468,B-2,1062.5,1.5,95,130.0
5469,C4,1062.75,0.25,47,130.0
5470,G3,1063.0,0.25,31,130.0
5471,C4,1063.25,0.25,31,130.0
5472,C2,1063.5,1.0,95,130.0
5473,G3,1064.0,1.5,95,130.0
5474,C3,1064.0,1.5,95,130.0
5475,D2,1064.5,1.5,95,130.0
5476,D3,1065.5,1.0,95,130.0
5477,G2,1065.5,1.0,95,130.0
5478,F2,1066.0,1.5,95,130.0
5479,A3,1066.5,1.5,95,130.0
5480,D3,1066.5,1.5,95,130.0
5481,E2,1067.5,1.0,95,130.0
5482,F3,1068.0,1.5,95,130.0
5483,C3,1068.0,1.5,95,130.0
5484,D2,1068.5,1.5,95,130.0
5485,G3,1069.5,1.0,95,130.0
5486,C3,1069.5,1.0,95,130.0
5487,F2,1070.0,1.5,95,130.0
5488,A3,1070.5,1.5,95,130.0
5489,D3,1070.5,1.5,95,130.0
5490,C2,1071.5,1.0,95,130.0
5491,F3,1072.0,1.5,95,130.0
5492,C3,1072.0,1.5,95,130.0
5493,B-1,1072.5,1.5,95,130.0
5494,E3,1073.5,1.0,95,130.0
5495,B2,1073.5,1.0,95,130.0
5496,G1,1074.0,1.5,95,130.0
5497,A3,1074.5,1.5,95,130.0
5498,D3,1074.5,1.5,95,130.0
5499,A1,1075.5,1.0,95,130.0
5500,F3,1076.0,1.5,95,130.0
5501,C3,1076.0,1.5,95,130.0
5502,D2,1076.5,1.5,95,130.0
5503,G3,1077.5,1.0,95,130.0
5504,C3,1077.5,1.0,95,130.0
5505,F2,1078.0,1.5,95,130.0
5506,F3,1078.5,1.5,95,130.0
5507,B-2,1078.5,1.5,95,130.0
5508,C2,1079.5,1.0,95,130.0
5509,D3,1080.0,1.5,95,130.0
5510,G2,1080.0,1.5,95,130.0
5511,D2,1080.5,1.5,95,130.0
5512,E3,1081.5,1.0,95,130.0
5513,A2,1081.5,1.0,95,130.0
5514,F2,1082.0,1.5,95,130.0
5515,A3,1082.5,1.5,95,130.0
5516,D3,1082.5,1.5,95,130.0
5517,E2,1083.5,1.0,95,130.0
5518,F3,1084.0,1.5,95,130.0
5519,C3,1084.0,1.5,95,130.0
5520,D2,1084.5,1.5,95,130.0
5521,G3,1085.5,1.0,95,130.0
5522,C3,1085.5,1.0,95,130.0
5523,F2,1086.0,1.5,95,130.0
5524,A3,1086.5,1.5,95,130.0
5525,D3,1086.5,1.5,95,130.0
5526,C2,1087.5,1.0,95,130.0
5527,F3,1088.0,1.5,95,130.0
5528,C3,1088.0,1.5,95,130.0
5529,B-1,1088.5,1.5,95,130.0
5530,E3,1089.5,1.0,95,130.0
5531,B2,1089.5,1.0,95,130.0
5532,C2,1090.0,1.5,95,130.0
5533,A3,1090.5,1.5,95,130.0
5534,D3,1090.5,1.5,95,130.0
5535,G1,1091.5,1.0,95,130.0
5536,F3,1092.0,1.5,95,130.0
5537,C3,1092.0,1.5,95,130.0
5538,G2,1092.5,0.5,95,130.0
5539,G1,1092.5,0.5,95,130.0
5540,A2,1093.0,0.5,95,130.0
5541,A1,1093.0,0.5,95,130.0
5542,B-2,1093.5,0.5,95,130.0
5543,B-1,1093.5,0.5,95,130.0
5544,G3,1093.5,1.0,95,130.0
5545,C3,1093.5,1.0,95,130.0
5546,D3,1094.0,0.5,95,130.0
5547,D2,1094.0,0.5,95,130.0
5548,C#3,1094.5,0.5,95,130.0
5549,C#2,1094.5,0.5,95,130.0
5550,F3,1094.5,1.5,95,130.0
5551,B-2,1094.5,1.5,95,130.0
5552,A2,1095.0,0.5,95,130.0
5553,A1,1095.0,0.5,95,130.0
5554,A4,1095.5,4.0,95,130.0
5555,G3,1096.0,1.5,95,130.0
5556,C3,1096.0,1.5,95,130.0
5557,G3,1096.5,67/1000,95,130.0
5558,D3,1096.5,67/1000,95,130.0
5559,A2,1096.5,67/1000,95,130.0
5560,E2,1096.5,67/1000,95,130.0
5561,G2,1097.0,0.5,95,130.0
5562,G1,1097.0,0.5,95,130.0
5563,A2,1097.5,0.5,95,130.0
5564,A1,1097.5,0.5,95,130.0
5565,D3,1097.5,1.0,95,130.0
5566,G2,1097.5,1.0,95,130.0
5567,B-2,1098.0,0.5,95,130.0
5568,B-1,1098.0,0.5,95,130.0
5569,D3,1098.5,0.5,95,130.0
5570,D2,1098.5,0.5,95,130.0
5571,C#3,1099.0,0.5,95,130.0
5572,C#2,1099.0,0.5,95,130.0
5573,F3,1099.5,0.5,95,130.0
5574,F2,1099.5,0.5,95,130.0
5575,E3,1100.0,0.5,95,130.0
5576,E2,1100.0,0.5,95,130.0
5577,E3,1100.5,0.5,95,130.0
5578,E2,1100.5,0.5,95,130.0
5579,G2,1101.0,0.5,95,130.0
5580,G1,1101.0,0.5,95,130.0
5581,B-2,1101.5,0.5,95,130.0
5582,B-1,1101.5,0.5,95,130.0
5583,D3,1102.0,0.5,95,130.0
5584,D2,1102.0,0.5,95,130.0
5585,C#3,1102.5,0.5,95,130.0
5586,C#2,1102.5,0.5,95,130.0
5587,A2,1103.0,0.5,95,130.0
5588,A1,1103.0,0.5,95,130.0
5589,A1,1104.0,0.5,95,130.0
5590,E3,1104.0,0.5,95,130.0
5591,A2,1104.0,0.5,95,130.0
5592,B-1,1104.5,0.5,95,130.0
5593,F3,1104.5,0.5,95,130.0
5594,B-2,1104.5,0.5,95,130.0
5595,G1,1105.0,0.5,95,130.0
5596,D3,1105.0,0.5,95,130.0
5597,G2,1105.0,0.5,95,130.0
5598,F1,1106.0,0.5,95,130.0
5599,C3,1106.0,0.5,95,130.0
5600,F2,1106.0,0.5,95,130.0
5601,G1,1106.5,0.5,95,130.0
5602,D3,1106.5,0.5,95,130.0
5603,G2,1106.5,0.5,95,130.0
5604,E1,1107.0,0.5,95,130.0
5605,B2,1107.0,0.5,95,130.0
5606,E2,1107.0,0.5,95,130.0
5607,G2,1108.5,0.5,95,130.0
5608,G1,1108.5,0.5,95,130.0
5609,A2,1109.0,0.5,95,130.0
5610,A1,1109.0,0.5,95,130.0
5611,B-2,1109.5,0.5,95,130.0
5612,B-1,1109.5,0.5,95,130.0
5613,D3,1110.0,0.5,95,130.0
5614,D2,1110.0,0.5,95,130.0
5615,C#3,1110.5,0.5,95,130.0
5616,C#2,1110.5,0.5,95,130.0
5617,A2,1111.0,0.5,95,130.0
5618,A1,1111.0,0.5,95,130.0
5619,D3,1111.5,67/1000,111,130.0
5620,A2,1111.5,67/1000,111,130.0
5621,E2,1111.5,67/1000,111,130.0
5622,D3,1112.0,67/1000,111,130.0
5623,A2,1112.0,67/1000,111,130.0
5624,E2,1112.0,67/1000,111,130.0
5625,D3,1112.5,67/1000,111,130.0
5626,A2,1112.5,67/1000,111,130.0
5627,E2,1112.5,67/1000,111,130.0
5628,G2,1113.0,0.5,95,130.0
5629,G1,1113.0,0.5,95,130.0
5630,A2,1113.5,0.5,95,130.0
5631,A1,1113.5,0.5,95,130.0
5632,B-2,1114.0,0.5,95,130.0
5633,B-1,1114.0,0.5,95,130.0
5634,D3,1114.5,0.5,95,130.0
5635,D2,1114.5,0.5,95,130.0
5636,C#3,1115.0,0.5,95,130.0
5637,C#2,1115.0,0.5,95,130.0
5638,F3,1115.5,0.5,95,130.0
5639,F2,1115.5,0.5,95,130.0
5640,E3,1116.0,0.5,95,130.0
5641,E2,1116.0,0.5,95,130.0
5642,E3,1116.5,0.5,95,130.0
5643,E2,1116.5,0.5,95,130.0
5644,G2,1117.0,0.5,95,130.0
5645,G1,1117.0,0.5,95,130.0
5646,A2,1117.5,0.5,95,130.0
5647,A1,1117.5,0.5,95,130.0
5648,B-2,1118.0,0.5,95,130.0
5649,B-1,1118.0,0.5,95,130.0
5650,D3,1118.5,0.5,95,130.0
5651,D2,1118.5,0.5,95,130.0
5652,C#3,1119.0,0.5,95,130.0
5653,C#2,1119.0,0.5,95,130.0
5654,B-2,1119.5,0.5,95,130.0
5655,B-1,1119.5,0.5,95,130.0
5656,A2,1120.0,0.5,95,130.0
5657,A1,1120.0,0.5,95,130.0
5658,B-1,1120.5,0.5,95,130.0
5659,B-3,1120.5,0.5,95,130.0
5660,F3,1120.5,0.5,95,130.0
5661,B-2,1120.5,0.5,95,130.0
5662,A1,1121.0,0.5,95,130.0
5663,A3,1121.0,0.5,95,130.0
5664,E3,1121.0,0.5,95,130.0
5665,A2,1121.0,0.5,95,130.0
5666,A2,1121.5,133/1000,95,130.0
5667,F2,1122.0,0.5,95,130.0
5668,F3,1122.0,0.5,95,130.0
5669,C3,1122.0,0.5,95,130.0
5670,F2,1122.0,0.5,95,130.0
5671,E2,1122.5,0.5,95,130.0
5672,E3,1122.5,0.5,95,130.0
5673,B2,1122.5,0.5,95,130.0
5674,E2,1122.5,0.5,95,130.0
5675,A2,1123.0,133/1000,95,130.0
5676,A1,1123.5,0.5,95,130.0
5677,A3,1123.5,0.5,95,130.0
5678,E3,1123.5,0.5,95,130.0
5679,A2,1123.5,0.5,95,130.0
5680,B-1,1124.0,0.5,95,130.0
5681,B-3,1124.0,0.5,95,130.0
5682,F3,1124.0,0.5,95,130.0
5683,B-2,1124.0,0.5,95,130.0
5684,D5,1124.5,3.0,95,130.0
5685,A1,1124.5,1.5,95,130.0
5686,A2,1125.0,1.5,95,130.0
5687,A1,1126.0,2.5,95,130.0
5688,A2,1126.5,0.5,95,130.0
5689,B-2,1127.0,0.5,95,130.0
5690,G5,1127.5,3.0,95,130.0
5691,C#5,1127.5,0.5,95,130.0
5692,A2,1127.5,0.5,95,130.0
5693,D5,1128.0,0.5,95,130.0
5694,G2,1128.0,0.5,95,130.0
5695,C#5,1128.5,0.25,95,130.0
5696,A1,1128.5,1.5,95,130.0
5697,D5,1128.75,0.25,70,130.0
5698,C#5,1129.0,0.25,70,130.0
5699,A2,1129.0,1.5,95,130.0
5700,B-4,1129.25,0.25,95,130.0
5701,C#5,1129.5,2.0,95,130.0
5702,A1,1130.0,2.5,95,130.0
5703,A2,1130.5,1.5,95,130.0
5704,E5,1130.5,0.5,95,130.0
5705,A2,1130.5,0.5,95,130.0
5706,A3,1131.0,1.5,95,130.0
5707,F5,1131.0,0.5,95,130.0
5708,B-2,1131.0,0.5,95,130.0
5709,E5,1131.5,0.25,95,130.0
5710,B-4,1131.5,0.5,95,130.0
5711,A2,1131.5,0.5,95,130.0
5712,F5,1131.75,0.25,95,130.0
5713,A2,1132.0,2.5,95,130.0
5714,E5,1132.0,0.25,70,130.0
5715,C#5,1132.0,0.5,95,130.0
5716,G2,1132.0,0.5,95,130.0
5717,D5,1132.25,0.25,95,130.0
5718,A3,1132.5,0.5,95,130.0
5719,E5,1132.5,2.0,95,130.0
5720,A4,1132.5,0.5,95,130.0
5721,A1,1132.5,1.5,95,130.0
5722,B-3,1133.0,0.5,70,130.0
5723,B-4,1133.0,0.5,95,130.0
5724,A2,1133.0,1.5,95,130.0
5725,A3,1133.5,0.5,95,130.0
5726,A4,1133.5,2.0,95,130.0
5727,G3,1134.0,0.5,95,130.0
5728,A1,1134.0,2.5,95,130.0
5729,A2,1134.5,1.5,95,130.0
5730,D5,1134.5,0.5,95,130.0
5731,A2,1134.5,0.5,95,130.0
5732,A3,1135.0,1.5,95,130.0
5733,E5,1135.0,0.5,95,130.0
5734,B-2,1135.0,0.5,95,130.0
5735,C#5,1135.5,0.5,95,130.0
5736,E4,1135.5,0.5,95,130.0
5737,A2,1135.5,0.5,95,130.0
5738,A2,1136.0,2.5,95,130.0
5739,D5,1136.0,0.5,95,130.0
5740,F4,1136.0,0.5,95,130.0
5741,G2,1136.0,0.5,95,130.0
5742,A3,1136.5,0.5,95,130.0
5743,C#5,1136.5,2.0,95,130.0
5744,E4,1136.5,0.5,95,130.0
5745,A1,1136.5,2.0,95,130.0
5746,B-3,1137.0,0.5,70,130.0
5747,F4,1137.0,0.5,95,130.0
5748,A2,1137.0,0.5,95,130.0
5749,A3,1137.5,0.5,95,130.0
5750,E4,1137.5,2.0,95,130.0
5751,E2,1137.5,0.5,95,130.0
5752,G3,1138.0,0.5,95,130.0
5753,F2,1138.0,1.0,95,130.0
5754,A2,1138.5,1.5,95,130.0
5755,A4,1138.5,0.5,95,130.0
5756,A1,1138.5,2.0,95,130.0
5757,A3,1139.0,1.5,95,130.0
5758,B-4,1139.0,0.5,95,130.0
5759,D2,1139.0,0.5,95,130.0
5760,A4,1139.5,0.5,95,130.0
5761,D5,1139.5,0.5,95,130.0
5762,E2,1139.5,1.0,95,130.0
5763,A2,1140.0,2.5,95,130.0
5764,B-4,1140.0,0.5,95,130.0
5765,B-4,1140.0,0.5,95,130.0
5766,A3,1140.5,0.5,95,130.0
5767,A4,1140.5,2.0,95,130.0
5768,C#5,1140.5,1.5,95,130.0
5769,A1,1140.5,1.5,95,130.0
5770,B-3,1141.0,0.5,70,130.0
5771,A2,1141.0,1.5,95,130.0
5772,A3,1141.5,0.5,95,130.0
5773,G3,1142.0,0.5,95,130.0
5774,B-4,1142.0,1.0,95,130.0
5775,A1,1142.0,2.5,95,130.0
5776,A2,1142.5,2.0,95,130.0
5777,B-4,1142.5,0.5,95,130.0
5778,A2,1142.5,0.5,95,130.0
5779,A3,1143.0,0.5,95,130.0
5780,G4,1143.0,0.5,95,130.0
5781,C#5,1143.0,0.25,95,130.0
5782,B-2,1143.0,0.5,95,130.0
5783,B-4,1143.25,0.25,70,130.0
5784,E3,1143.5,0.5,95,130.0
5785,A4,1143.5,1.5,95,130.0
5786,A4,1143.5,1.0,70,130.0
5787,A2,1143.5,0.5,95,130.0
5788,F3,1144.0,0.5,70,130.0
5789,G2,1144.0,0.5,95,130.0
5790,A2,1144.5,2.0,95,130.0
5791,G4,1144.5,1.5,95,130.0
5792,A1,1144.5,1.5,95,130.0
5793,D3,1145.0,0.5,95,130.0
5794,G4,1145.0,1.0,95,130.0
5795,A2,1145.0,1.5,95,130.0
5796,E3,1145.5,1.0,70,130.0
5797,A4,1146.0,0.25,95,130.0
5798,F4,1146.0,1.5,95,130.0
5799,A1,1146.0,2.5,95,130.0
5800,G4,1146.25,0.25,70,130.0
5801,A2,1146.5,1.5,95,130.0
5802,F4,1146.5,1.0,70,130.0
5803,A2,1146.5,0.5,95,130.0
5804,A3,1147.0,1.5,95,130.0
5805,B-2,1147.0,0.5,95,130.0
5806,E4,1147.5,1.5,95,130.0
5807,B-4,1147.5,1.0,95,130.0
5808,A2,1147.5,0.5,95,130.0
5809,A2,1148.0,2.5,95,130.0
5810,G2,1148.0,0.5,95,130.0
5811,A3,1148.5,0.5,95,130.0
5812,A4,1148.5,3.0,95,130.0
5813,A1,1148.5,1.5,95,130.0
5814,B-3,1149.0,0.5,70,130.0
5815,D4,1149.0,1.5,95,130.0
5816,A2,1149.0,1.5,95,130.0
5817,A3,1149.5,0.5,95,130.0
5818,G3,1150.0,0.5,95,130.0
5819,A1,1150.0,2.5,95,130.0
5820,A2,1150.5,1.5,95,130.0
5821,F4,1150.5,1.0,95,130.0
5822,A2,1150.5,0.5,95,130.0
5823,A3,1151.0,1.5,95,130.0
5824,B-2,1151.0,0.5,95,130.0
5825,E4,1151.5,3.0,95,130.0
5826,E5,1151.5,0.5,95,130.0
5827,A2,1151.5,0.5,95,130.0
5828,A2,1152.0,2.5,95,130.0
5829,F5,1152.0,0.5,95,130.0
5830,G2,1152.0,0.5,95,130.0
5831,A3,1152.5,0.5,95,130.0
5832,E5,1152.5,4.0,95,130.0
5833,A1,1152.5,2.0,95,130.0
5834,B-3,1153.0,0.5,70,130.0
5835,A2,1153.0,0.5,95,130.0
5836,A3,1153.5,0.5,95,130.0
5837,E2,1153.5,0.5,95,130.0
5838,G3,1154.0,0.5,95,130.0
5839,F2,1154.0,1.0,95,130.0
5840,A2,1154.5,1.5,95,130.0
5841,A4,1154.5,0.5,95,130.0
5842,A1,1154.5,2.0,95,130.0
5843,A3,1155.0,1.5,95,130.0
5844,B-4,1155.0,0.5,95,130.0
5845,D2,1155.0,0.5,95,130.0
5846,A4,1155.5,4.0,95,130.0
5847,E2,1155.5,1.0,95,130.0
5848,A2,1156.0,2.5,95,130.0
5849,A3,1156.5,0.5,95,130.0
5850,F5,1156.5,0.25,95,130.0
5851,A1,1156.5,1.5,95,130.0
5852,D5,1156.75,0.25,95,130.0
5853,B-3,1157.0,0.5,70,130.0
5854,E5,1157.0,0.75,95,130.0
5855,A2,1157.0,1.5,95,130.0
5856,A3,1157.5,0.5,95,130.0
5857,D5,1157.75,0.25,95,130.0
5858,G3,1158.0,0.5,95,130.0
5859,B-4,1158.0,0.25,95,130.0
5860,A1,1158.0,2.5,95,130.0
5861,D5,1158.25,0.25,95,130.0
5862,A2,1158.5,2.0,95,130.0
5863,C#5,1158.5,1.0,95,130.0
5864,A2,1158.5,0.5,95,130.0
5865,A3,1159.0,0.5,95,130.0
5866,B-2,1159.0,0.5,95,130.0
5867,E3,1159.5,0.5,95,130.0
5868,D5,1159.5,0.25,95,130.0
5869,D5,1159.5,0.25,95,130.0
5870,A2,1159.5,0.5,95,130.0
5871,B-4,1159.75,0.25,95,130.0
5872,B-4,1159.75,0.25,95,130.0
5873,F3,1160.0,0.5,70,130.0
5874,C#5,1160.0,0.75,95,130.0
5875,C#5,1160.0,0.25,95,130.0
5876,G2,1160.0,0.5,95,130.0
5877,B-4,1160.25,0.25,95,130.0
5878,A2,1160.5,2.0,95,130.0
5879,A4,1160.5,0.25,95,130.0
5880,A1,1160.5,1.5,95,130.0
5881,B-4,1160.75,0.25,95,130.0
5882,B-4,1160.75,0.25,95,130.0
5883,D3,1161.0,0.5,95,130.0
5884,G4,1161.0,0.25,95,130.0
5885,G4,1161.0,1.0,95,130.0
5886,A2,1161.0,1.5,95,130.0
5887,B-4,1161.25,0.25,95,130.0
5888,E3,1161.5,1.0,70,130.0
5889,A4,1161.5,1.0,95,130.0
5890,C#6,1162.0,0.25,95,130.0
5891,A1,1162.0,2.5,95,130.0
5892,A5,1162.25,0.25,95,130.0
5893,A2,1162.5,1.5,95,130.0
5894,B-4,1162.5,0.25,95,130.0
5895,B-5,1162.5,0.25,95,130.0
5896,A2,1162.5,0.5,95,130.0
5897,G4,1162.75,0.25,95,130.0
5898,C#6,1162.75,0.125,95,130.0
5899,B-5,1162.875,0.125,70,130.0
5900,A3,1163.0,1.5,95,130.0
5901,A4,1163.0,0.25,95,130.0
5902,A5,1163.0,0.25,70,130.0
5903,B-2,1163.0,0.5,95,130.0
5904,G4,1163.25,0.25,95,130.0
5905,G5,1163.25,0.25,95,130.0
5906,F4,1163.5,0.25,95,130.0
5907,A5,1163.5,0.25,95,130.0
5908,A2,1163.5,0.5,95,130.0
5909,G4,1163.75,0.25,95,130.0
5910,G5,1163.75,0.25,95,130.0
5911,A2,1164.0,2.5,95,130.0
5912,E4,1164.0,1.0,95,130.0
5913,F5,1164.0,0.25,95,130.0
5914,G2,1164.0,0.5,95,130.0
5915,E5,1164.25,0.25,95,130.0
5916,A3,1164.5,0.5,95,130.0
5917,F5,1164.5,0.25,95,130.0
5918,A1,1164.5,1.5,95,130.0
5919,D6,1164.75,0.25,95,130.0
5920,B-3,1165.0,0.5,70,130.0
5921,A5,1165.0,0.25,95,130.0
5922,C#6,1165.0,1.0,95,130.0
5923,A2,1165.0,1.5,95,130.0
5924,F5,1165.25,0.25,95,130.0
5925,A3,1165.5,0.5,95,130.0
5926,G5,1165.5,0.25,95,130.0
5927,A5,1165.75,0.125,95,130.0
5928,G5,1165.875,0.125,70,130.0
5929,G3,1166.0,0.5,95,130.0
5930,F5,1166.0,0.25,70,130.0
5931,A5,1166.0,0.25,95,130.0
5932,A1,1166.0,2.5,95,130.0
5933,E5,1166.25,0.25,95,130.0
5934,F5,1166.25,0.25,95,130.0
5935,A2,1166.5,1.5,95,130.0
5936,F5,1166.5,0.25,95,130.0
5937,G5,1166.5,1.0,95,130.0
5938,A2,1166.5,0.5,95,130.0
5939,E5,1166.75,0.25,95,130.0
5940,A3,1167.0,1.5,95,130.0
5941,D5,1167.0,0.25,95,130.0
5942,B-2,1167.0,0.5,95,130.0
5943,C#5,1167.25,0.25,95,130.0
5944,D5,1167.5,0.25,95,130.0
5945,G5,1167.5,0.25,95,130.0
5946,A2,1167.5,0.5,95,130.0
5947,B-5,1167.75,0.25,95,130.0
5948,E5,1167.75,0.25,95,130.0
5949,A2,1168.0,2.5,95,130.0
5950,A5,1168.0,1.0,95,130.0
5951,F5,1168.0,0.25,95,130.0
5952,G2,1168.0,0.5,95,130.0
5953,E5,1168.25,0.25,95,130.0
5954,A3,1168.5,0.5,95,130.0
5955,D5,1168.5,0.25,95,130.0
5956,A1,1168.5,2.0,95,130.0
5957,E5,1168.75,0.25,95,130.0
5958,B-3,1169.0,0.5,70,130.0
5959,F5,1169.0,0.25,95,130.0
5960,C#5,1169.0,1.0,95,130.0
5961,A2,1169.0,0.5,95,130.0
5962,D5,1169.25,0.25,95,130.0
5963,A3,1169.5,0.5,95,130.0
5964,E5,1169.5,1.0,95,130.0
5965,E2,1169.5,0.5,95,130.0
5966,G3,1170.0,0.5,95,130.0
5967,D5,1170.0,0.25,95,130.0
5968,F2,1170.0,1.0,95,130.0
5969,B-4,1170.25,0.25,95,130.0
5970,A2,1170.5,1.5,95,130.0
5971,E5,1170.5,0.25,95,130.0
5972,C#5,1170.5,0.25,95,130.0
5973,A1,1170.5,2.0,95,130.0
5974,C#5,1170.75,0.25,95,130.0
5975,B-4,1170.75,0.25,95,130.0
5976,A3,1171.0,1.5,95,130.0
5977,D5,1171.0,0.25,95,130.0
5978,A4,1171.0,0.25,95,130.0
5979,D2,1171.0,0.5,95,130.0
5980,C#5,1171.25,0.25,95,130.0
5981,B-4,1171.25,0.25,95,130.0
5982,B-4,1171.5,0.25,95,130.0
5983,G4,1171.5,1.0,95,130.0
5984,E2,1171.5,1.0,95,130.0
5985,C#5,1171.75,0.25,95,130.0
5986,A2,1172.0,2.5,95,130.0
5987,A4,1172.0,1.0,95,130.0
5988,A3,1172.5,0.5,95,130.0
5989,F5,1172.5,0.25,95,130.0
5990,A1,1172.5,1.5,95,130.0
5991,D5,1172.75,0.25,95,130.0
5992,B-3,1173.0,0.5,70,130.0
5993,B-4,1173.0,0.25,95,130.0
5994,E5,1173.0,0.75,95,130.0
5995,A2,1173.0,1.5,95,130.0
5996,G4,1173.25,0.25,95,130.0
5997,A3,1173.5,0.5,95,130.0
5998,A4,1173.5,0.25,95,130.0
5999,G4,1173.75,0.25,95,130.0
6000,D5,1173.75,0.25,95,130.0
6001,G3,1174.0,0.5,95,130.0
6002,F4,1174.0,0.25,95,130.0
6003,B-4,1174.0,0.25,95,130.0
6004,A1,1174.0,2.5,95,130.0
6005,G4,1174.25,0.25,95,130.0
6006,D5,1174.25,0.25,95,130.0
6007,A2,1174.5,2.0,95,130.0
6008,E4,1174.5,1.0,95,130.0
6009,C#5,1174.5,1.0,95,130.0
6010,A2,1174.5,0.5,95,130.0
6011,A3,1175.0,0.5,95,130.0
6012,B-2,1175.0,0.5,95,130.0
6013,E3,1175.5,0.5,95,130.0
6014,D5,1175.5,0.25,95,130.0
6015,D6,1175.5,0.25,95,130.0
6016,A2,1175.5,0.5,95,130.0
6017,B-4,1175.75,0.25,95,130.0
6018,B-5,1175.75,0.25,95,130.0
6019,F3,1176.0,0.5,70,130.0
6020,C#5,1176.0,0.75,95,130.0
6021,C#6,1176.0,0.25,95,130.0
6022,G2,1176.0,0.5,95,130.0
6023,B-5,1176.25,0.25,95,130.0
6024,A2,1176.5,2.0,95,130.0
6025,A5,1176.5,0.25,95,130.0
6026,A1,1176.5,1.5,95,130.0
6027,B-4,1176.75,0.25,95,130.0
6028,B-5,1176.75,0.25,95,130.0
6029,D3,1177.0,0.5,95,130.0
6030,G4,1177.0,0.25,95,130.0
6031,G5,1177.0,1.0,95,130.0
6032,A2,1177.0,1.5,95,130.0
6033,B-4,1177.25,0.25,95,130.0
6034,E3,1177.5,1.0,70,130.0
6035,A4,1177.5,1.0,95,130.0
6036,B-5,1178.0,0.25,95,130.0
6037,A1,1178.0,2.5,95,130.0
6038,G5,1178.25,0.25,95,130.0
6039,A2,1178.5,1.5,95,130.0
6040,B-5,1178.5,0.25,95,130.0
6041,A5,1178.5,0.25,95,130.0
6042,A2,1178.5,0.5,95,130.0
6043,G5,1178.75,0.25,95,130.0
6044,B-5,1178.75,0.125,95,130.0
6045,A5,1178.875,0.125,70,130.0
6046,A3,1179.0,1.5,95,130.0
6047,A5,1179.0,0.25,95,130.0
6048,G5,1179.0,0.25,70,130.0
6049,B-2,1179.0,0.5,95,130.0
6050,G5,1179.25,0.25,95,130.0
6051,F5,1179.25,0.25,95,130.0
6052,F5,1179.5,0.25,95,130.0
6053,G5,1179.5,0.25,95,130.0
6054,A2,1179.5,0.5,95,130.0
6055,G5,1179.75,0.25,95,130.0
6056,F5,1179.75,0.25,95,130.0
6057,A2,1180.0,2.5,95,130.0
6058,E5,1180.0,1.0,95,130.0
6059,E5,1180.0,0.25,95,130.0
6060,G2,1180.0,0.5,95,130.0
6061,D5,1180.25,0.25,95,130.0
6062,A3,1180.5,0.5,95,130.0
6063,E5,1180.5,0.25,95,130.0
6064,A1,1180.5,1.5,95,130.0
6065,B-5,1180.75,0.25,95,130.0
6066,B-3,1181.0,0.5,70,130.0
6067,D6,1181.0,0.25,95,130.0
6068,A5,1181.0,1.0,95,130.0
6069,A2,1181.0,1.5,95,130.0
6070,B-5,1181.25,0.25,95,130.0
6071,A3,1181.5,0.5,95,130.0
6072,C#6,1181.5,0.25,95,130.0
6073,D6,1181.75,0.125,70,130.0
6074,C#6,1181.875,0.125,70,130.0
6075,G3,1182.0,0.5,95,130.0
6076,B-5,1182.0,0.25,95,130.0
6077,G5,1182.0,0.25,95,130.0
6078,A1,1182.0,2.5,95,130.0
6079,A5,1182.25,0.25,95,130.0
6080,E5,1182.25,0.25,95,130.0
6081,A2,1182.5,1.5,95,130.0
6082,B-5,1182.5,0.25,95,130.0
6083,F5,1182.5,1.0,95,130.0
6084,A2,1182.5,0.5,95,130.0
6085,A5,1182.75,0.25,95,130.0
6086,A3,1183.0,1.5,95,130.0
6087,G5,1183.0,0.25,95,130.0
6088,B-2,1183.0,0.5,95,130.0
6089,F5,1183.25,0.25,95,130.0
6090,G5,1183.5,0.25,95,130.0
6091,E5,1183.5,0.25,95,130.0
6092,A2,1183.5,0.5,95,130.0
6093,D6,1183.75,0.25,95,130.0
6094,C#5,1183.75,0.25,95,130.0
6095,A2,1184.0,2.5,95,130.0
6096,C#6,1184.0,1.0,95,130.0
6097,D5,1184.0,0.25,95,130.0
6098,G2,1184.0,0.5,95,130.0
6099,C#5,1184.25,0.25,95,130.0
6100,A3,1184.5,0.5,95,130.0
6101,B-4,1184.5,0.25,95,130.0
6102,A1,1184.5,2.0,95,130.0
6103,C#5,1184.75,0.25,95,130.0
6104,B-3,1185.0,0.5,70,130.0
6105,B-5,1185.0,0.25,95,130.0
6106,A4,1185.0,1.0,95,130.0
6107,A2,1185.0,0.5,95,130.0
6108,G5,1185.25,0.25,95,130.0
6109,A3,1185.5,0.5,95,130.0
6110,A5,1185.5,1.0,95,130.0
6111,E2,1185.5,0.5,95,130.0
6112,G3,1186.0,0.5,95,130.0
6113,E4,1186.0,0.25,95,130.0
6114,F2,1186.0,1.0,95,130.0
6115,C#4,1186.25,0.25,95,130.0
6116,A2,1186.5,1.5,95,130.0
6117,G5,1186.5,0.25,95,130.0
6118,D4,1186.5,0.25,95,130.0
6119,A1,1186.5,2.0,95,130.0
6120,E5,1186.75,0.25,95,130.0
6121,C#4,1186.75,0.25,95,130.0
6122,A3,1187.0,1.5,95,130.0
6123,F5,1187.0,0.25,95,130.0
6124,B-3,1187.0,0.25,95,130.0
6125,D2,1187.0,0.5,95,130.0
6126,E5,1187.25,0.25,95,130.0
6127,C#4,1187.25,0.25,95,130.0
6128,D5,1187.5,0.25,95,130.0
6129,A3,1187.5,1.0,95,130.0
6130,E2,1187.5,1.0,95,130.0
6131,E5,1187.75,0.25,95,130.0
6132,A2,1188.0,2.5,95,130.0
6133,C#5,1188.0,1.0,95,130.0
6134,A3,1188.5,0.5,95,130.0
6135,F5,1188.5,0.25,95,130.0
6136,G1,1188.5,1.5,95,130.0
6137,D5,1188.75,0.25,95,130.0
6138,B-3,1189.0,0.5,70,130.0
6139,G4,1189.0,0.25,95,130.0
6140,E5,1189.0,0.75,95,130.0
6141,A2,1189.0,1.5,95,130.0
6142,E4,1189.25,0.25,95,130.0
6143,A3,1189.5,0.5,95,130.0
6144,F4,1189.5,0.25,95,130.0
6145,E4,1189.75,0.25,95,130.0
6146,D5,1189.75,0.25,95,130.0
6147,G3,1190.0,0.5,95,130.0
6148,D4,1190.0,0.25,95,130.0
6149,C#5,1190.0,0.25,95,130.0
6150,G1,1190.0,2.5,95,130.0
6151,E4,1190.25,0.25,95,130.0
6152,D5,1190.25,0.25,95,130.0
6153,A2,1190.5,2.0,95,130.0
6154,C#4,1190.5,1.0,95,130.0
6155,B-4,1190.5,1.0,95,130.0
6156,A2,1190.5,0.5,95,130.0
6157,A3,1191.0,0.5,95,130.0
6158,B-2,1191.0,0.5,95,130.0
6159,E3,1191.5,0.5,95,130.0
6160,D5,1191.5,0.25,95,130.0
6161,D5,1191.5,0.25,95,130.0
6162,A2,1191.5,0.5,95,130.0
6163,B-4,1191.75,0.25,95,130.0
6164,B-4,1191.75,0.25,95,130.0
6165,F3,1192.0,0.5,70,130.0
6166,C#5,1192.0,0.75,95,130.0
6167,C#5,1192.0,0.25,95,130.0
6168,G2,1192.0,0.5,95,130.0
6169,B-4,1192.25,0.25,95,130.0
6170,A2,1192.5,2.0,95,130.0
6171,A4,1192.5,0.25,95,130.0
6172,G1,1192.5,1.5,95,130.0
6173,B-4,1192.75,0.25,95,130.0
6174,B-4,1192.75,0.25,95,130.0
6175,D3,1193.0,0.5,95,130.0
6176,A4,1193.0,0.25,95,130.0
6177,G4,1193.0,0.25,95,130.0
6178,A2,1193.0,1.5,95,130.0
6179,B-4,1193.25,0.25,95,130.0
6180,A4,1193.25,0.25,95,130.0
6181,E3,1193.5,1.0,70,130.0
6182,G4,1193.5,1.0,95,130.0
6183,B-4,1193.5,0.25,95,130.0
6184,C#5,1193.75,0.25,95,130.0
6185,B-4,1194.0,1.0,95,130.0
6186,G1,1194.0,2.5,95,130.0
6187,G2,1194.5,1.5,95,130.0
6188,A2,1194.5,14.0,95,130.0
6189,B-4,1194.5,0.25,95,130.0
6190,A2,1194.5,0.5,95,130.0
6191,G4,1194.75,0.25,95,130.0
6192,A3,1195.0,1.5,95,130.0
6193,A4,1195.0,0.25,95,130.0
6194,F5,1195.0,0.25,95,130.0
6195,B-2,1195.0,0.5,95,130.0
6196,G4,1195.25,0.25,95,130.0
6197,D5,1195.25,0.25,95,130.0
6198,F4,1195.5,0.25,95,130.0
6199,E5,1195.5,0.25,95,130.0
6200,A2,1195.5,0.5,95,130.0
6201,G4,1195.75,0.25,95,130.0
6202,F5,1195.75,0.125,95,130.0
6203,E5,1195.875,0.125,70,130.0
6204,G2,1196.0,2.0,95,130.0
6205,E4,1196.0,0.25,95,130.0
6206,D5,1196.0,0.25,70,130.0
6207,G2,1196.0,0.5,95,130.0
6208,F4,1196.25,0.25,95,130.0
6209,C#5,1196.25,0.25,95,130.0
6210,A3,1196.5,0.5,95,130.0
6211,G4,1196.5,0.25,95,130.0
6212,F4,1196.5,0.125,95,130.0
6213,G1,1196.5,1.5,95,130.0
6214,E4,1196.625,0.125,70,130.0
6215,A4,1196.75,0.25,95,130.0
6216,D4,1196.75,0.125,70,130.0
6217,C#4,1196.875,0.125,95,130.0
6218,B-3,1197.0,0.5,95,130.0
6219,G4,1197.0,1.0,95,130.0
6220,B-3,1197.0,0.125,70,130.0
6221,A2,1197.0,1.5,95,130.0
6222,A3,1197.125,0.125,70,130.0
6223,G3,1197.25,0.125,95,130.0
6224,F3,1197.375,0.125,70,130.0
6225,G3,1197.5,1.0,95,130.0
6226,F4,1197.5,1.0,95,130.0
6227,G2,1198.0,0.5,95,130.0
6228,A5,1198.0,0.25,95,130.0
6229,G1,1198.0,2.5,95,130.0
6230,F5,1198.25,0.25,95,130.0
6231,G5,1198.5,0.25,95,130.0
6232,A5,1198.5,0.25,95,130.0
6233,A2,1198.5,0.5,95,130.0
6234,A5,1198.75,0.125,95,130.0
6235,F5,1198.75,0.25,95,130.0
6236,G5,1198.875,0.125,70,130.0
6237,F5,1199.0,0.25,70,130.0
6238,G5,1199.0,0.25,95,130.0
6239,B-2,1199.0,0.5,95,130.0
6240,E5,1199.25,0.25,95,130.0
6241,A5,1199.25,0.25,95,130.0
6242,D5,1199.5,0.125,95,130.0
6243,G5,1199.5,0.25,95,130.0
6244,A2,1199.5,0.5,95,130.0
6245,C#5,1199.625,0.125,70,130.0
6246,B-4,1199.75,0.125,70,130.0
6247,F5,1199.75,0.25,95,130.0
6248,A4,1199.875,0.125,95,130.0
6249,G4,1200.0,0.125,70,130.0
6250,E5,1200.0,0.25,95,130.0
6251,G2,1200.0,0.5,95,130.0
6252,F4,1200.125,0.125,70,130.0
6253,E4,1200.25,0.125,95,130.0
6254,D5,1200.25,0.25,95,130.0
6255,D4,1200.375,0.125,70,130.0
6256,A4,1200.5,1.0,95,130.0
6257,E5,1200.5,0.25,95,130.0
6258,E1,1200.5,0.5,95,130.0
6259,D5,1200.75,0.25,95,130.0
6260,B-4,1201.0,0.25,95,130.0
6261,E1,1201.0,1.5,95,130.0
6262,A4,1201.25,0.25,95,130.0
6263,F5,1201.5,0.25,95,130.0
6264,G4,1201.5,0.25,95,130.0
6265,E2,1201.5,0.5,95,130.0
6266,D5,1201.75,0.25,95,130.0
6267,F4,1201.75,0.25,95,130.0
6268,E5,1202.0,0.25,95,130.0
6269,E5,1202.0,0.25,95,130.0
6270,F2,1202.0,0.5,95,130.0
6271,F5,1202.25,0.25,95,130.0
6272,D5,1202.25,0.25,95,130.0
6273,E5,1202.5,0.25,95,130.0
6274,C#5,1202.5,0.25,95,130.0
6275,E1,1202.5,2.0,95,130.0
6276,D5,1202.75,0.25,95,130.0
6277,B4,1202.75,0.25,95,130.0
6278,C#5,1203.0,0.25,95,130.0
6279,A5,1203.0,0.25,95,130.0
6280,D2,1203.0,0.5,95,130.0
6281,C5,1203.25,0.25,95,130.0
6282,E5,1203.25,0.25,95,130.0
6283,B-4,1203.5,0.25,95,130.0
6284,C#6,1203.5,1.0,95,130.0
6285,E2,1203.5,1.0,95,130.0
6286,A4,1203.75,0.25,95,130.0
6287,G4,1204.0,0.25,95,130.0
6288,F4,1204.25,0.25,95,130.0
6289,E4,1204.5,0.25,95,130.0
6290,G2,1204.5,0.5,95,130.0
6291,G1,1204.5,0.5,95,130.0
6292,D4,1204.75,0.25,95,130.0
6293,C#5,1205.0,0.25,95,130.0
6294,A2,1205.0,0.5,95,130.0
6295,A1,1205.0,0.5,95,130.0
6296,C5,1205.25,0.25,95,130.0
6297,B-4,1205.5,0.25,95,130.0
6298,B-2,1205.5,0.5,95,130.0
6299,B-1,1205.5,0.5,95,130.0
6300,A4,1205.75,0.25,95,130.0
6301,E5,1206.0,0.25,95,130.0
6302,D3,1206.0,0.5,95,130.0
6303,D2,1206.0,0.5,95,130.0
6304,C#5,1206.25,0.25,95,130.0
6305,A5,1206.5,1.0,95,130.0
6306,C#3,1206.5,0.5,95,130.0
6307,C#2,1206.5,0.5,95,130.0
6308,A2,1207.0,0.5,95,130.0
6309,A1,1207.0,0.5,95,130.0
6310,G2,1208.5,1.5,95,130.0
6311,G3,1208.5,67/1000,95,130.0
6312,D3,1208.5,67/1000,95,130.0
6313,A2,1208.5,67/1000,95,130.0
6314,E2,1208.5,67/1000,95,130.0
6315,A3,1209.0,1.5,95,130.0
6316,G2,1209.0,0.5,95,130.0
6317,G1,1209.0,0.5,95,130.0
6318,A2,1209.5,0.5,95,130.0
6319,A1,1209.5,0.5,95,130.0
6320,G2,1210.0,2.0,95,130.0
6321,B-2,1210.0,0.5,95,130.0
6322,B-1,1210.0,0.5,95,130.0
6323,A3,1210.5,0.5,95,130.0
6324,D3,1210.5,0.5,95,130.0
6325,D2,1210.5,0.5,95,130.0
6326,B-3,1211.0,0.5,95,130.0
6327,C#3,1211.0,0.5,95,130.0
6328,C#2,1211.0,0.5,95,130.0
6329,G3,1211.5,1.0,95,130.0
6330,F3,1211.5,0.5,95,130.0
6331,F2,1211.5,0.5,95,130.0
6332,G2,1212.0,0.5,95,130.0
6333,E3,1212.0,0.5,95,130.0
6334,E2,1212.0,0.5,95,130.0
6335,F2,1212.5,1.5,95,130.0
6336,E3,1212.5,0.5,95,130.0
6337,E2,1212.5,0.5,95,130.0
6338,A3,1213.0,1.5,95,130.0
6339,G2,1213.0,0.5,95,130.0
6340,G1,1213.0,0.5,95,130.0
6341,B-2,1213.5,0.5,95,130.0
6342,B-1,1213.5,0.5,95,130.0
6343,F2,1214.0,2.5,95,130.0
6344,D3,1214.0,0.5,95,130.0
6345,D2,1214.0,0.5,95,130.0
6346,A3,1214.5,0.5,95,130.0
6347,C#3,1214.5,0.5,95,130.0
6348,C#2,1214.5,0.5,95,130.0
6349,B-3,1215.0,0.5,95,130.0
6350,A2,1215.0,0.5,95,130.0
6351,A1,1215.0,0.5,95,130.0
6352,A3,1215.5,0.5,95,130.0
6353,G3,1216.0,0.5,95,130.0
6354,A1,1216.0,0.5,95,130.0
6355,E3,1216.0,0.5,95,130.0
6356,A2,1216.0,0.5,95,130.0
6357,E2,1216.5,0.5,95,130.0
6358,B-1,1216.5,0.5,95,130.0
6359,F3,1216.5,0.5,95,130.0
6360,B-2,1216.5,0.5,95,130.0
6361,E2,1217.0,1.5,95,130.0
6362,G1,1217.0,0.5,95,130.0
6363,D3,1217.0,0.5,95,130.0
6364,G2,1217.0,0.5,95,130.0
6365,E3,1217.5,0.5,95,130.0
6366,F3,1218.0,0.5,95,130.0
6367,F1,1218.0,0.5,95,130.0
6368,C3,1218.0,0.5,95,130.0
6369,F2,1218.0,0.5,95,130.0
6370,E2,1218.5,2.0,95,130.0
6371,G1,1218.5,0.5,95,130.0
6372,D3,1218.5,0.5,95,130.0
6373,G2,1218.5,0.5,95,130.0
6374,D3,1219.0,0.5,95,130.0
6375,E1,1219.0,0.5,95,130.0
6376,B2,1219.0,0.5,95,130.0
6377,E2,1219.0,0.5,95,130.0
6378,E3,1219.5,1.0,95,130.0
6379,E2,1220.0,0.5,95,130.0
6380,E1,1220.0,0.5,95,130.0
6381,F2,1220.5,0.5,95,130.0
6382,F2,1220.5,0.5,95,130.0
6383,C3,1221.0,0.5,95,130.0
6384,C2,1221.0,0.5,95,130.0
6385,F3,1221.5,1.5,95,130.0
6386,F2,1221.5,0.5,95,130.0
6387,A2,1222.0,0.5,95,130.0
6388,B2,1222.5,0.5,95,130.0
6389,G2,1223.0,0.5,95,130.0
6390,D2,1223.0,0.5,95,130.0
6391,F2,1223.5,0.5,95,130.0
6392,D3,1223.5,1.0,95,130.0
6393,G2,1223.5,0.5,95,130.0
6394,C3,1224.0,27/200,95,130.0
6395,B2,1224.0,0.5,95,130.0
6396,F3,1224.5,27/200,95,130.0
6397,D3,1224.5,0.5,95,130.0
6398,C3,1224.5,0.5,95,130.0
6399,A3,1225.0,0.5,95,130.0
6400,A2,1225.0,0.5,95,130.0
6401,E2,1225.0,0.5,95,130.0
6402,B3,1225.5,0.5,95,130.0
6403,E3,1225.5,1.5,95,130.0
6404,A2,1225.5,0.5,95,130.0
6405,D3,1226.0,27/200,95,130.0
6406,C3,1226.0,0.5,95,130.0
6407,G3,1226.5,27/200,95,130.0
6408,B2,1226.5,0.125,95,130.0
6409,C3,1226.625,0.125,95,130.0
6410,B2,1226.75,0.125,95,130.0
6411,G2,1226.875,0.5,95,130.0
6412,B3,1227.0,0.5,95,130.0
6413,G2,1227.0,0.5,95,130.0
6414,E1,1227.375,0.5,95,130.0
6415,C4,1227.5,0.5,95,130.0
6416,D3,1227.5,0.5,95,130.0
6417,F2,1227.875,0.625,95,130.0
6418,E3,1228.0,0.5,95,130.0
6419,F2,1228.0,0.5,95,130.0
6420,A3,1228.5,0.5,95,130.0
6421,F2,1228.5,0.5,95,130.0
6422,C4,1229.0,0.5,95,130.0
6423,C3,1229.0,0.5,95,130.0
6424,C2,1229.0,0.5,95,130.0
6425,B3,1229.5,0.125,95,130.0
6426,F3,1229.5,1.5,95,130.0
6427,F2,1229.5,0.5,95,130.0
6428,C4,1229.625,0.125,70,130.0
6429,B3,1229.75,0.125,70,130.0
6430,G3,1229.875,0.5,95,130.0
6431,A2,1230.0,0.5,95,130.0
6432,D3,1230.375,0.5,95,130.0
6433,B2,1230.5,0.5,95,130.0
6434,F3,1230.875,0.625,95,130.0
6435,D2,1231.0,0.5,95,130.0
6436,G2,1231.0,1.5,63,130.0
6437,G3,1231.0,1.5,63,130.0
6438,F3,1231.5,0.5,95,130.0
6439,C3,1231.5,0.5,95,130.0
6440,C3,1232.0,27/200,95,130.0
6441,B2,1232.0,0.5,95,130.0
6442,F3,1232.5,27/200,95,130.0
6443,A2,1232.5,1.5,95,130.0
6444,A1,1232.5,1.5,95,130.0
6445,A3,1232.5,1.0,95,130.0
6446,E3,1232.5,1.0,95,130.0
6447,A3,1233.0,0.5,95,130.0
6448,B3,1233.5,0.5,95,130.0
6449,D3,1234.0,0.5,95,130.0
6450,G1,1234.0,1.0,95,130.0
6451,G3,1234.0,1.0,95,130.0
6452,D3,1234.0,1.0,95,130.0
6453,G2,1234.0,1.0,95,130.0
6454,C4,1234.5,0.5,95,130.0
6455,B3,1235.0,0.5,95,130.0
6456,E1,1235.0,1.0,95,130.0
6457,E3,1235.0,1.0,95,130.0
6458,B2,1235.0,1.0,95,130.0
6459,E2,1235.0,1.0,95,130.0
6460,A3,1235.5,1.5,95,130.0
6461,E3,1235.5,1.5,95,130.0
6462,A2,1235.5,1.5,95,130.0
6463,F1,1236.0,0.5,95,130.0
6464,F3,1236.0,0.5,95,130.0
6465,C3,1236.0,0.5,95,130.0
6466,F2,1236.0,0.5,95,130.0
6467,B5,1236.5,2.0,95,130.0
6468,F1,1236.5,0.5,95,130.0
6469,F3,1236.5,0.5,95,130.0
6470,C3,1236.5,0.5,95,130.0
6471,F2,1236.5,0.5,95,130.0
6472,C3,1237.0,0.5,95,130.0
6473,C2,1237.0,0.5,95,130.0
6474,G3,1237.0,1.0,95,130.0
6475,D3,1237.0,1.0,95,130.0
6476,G2,1237.0,1.0,95,130.0
6477,F3,1237.5,1.5,95,130.0
6478,F2,1237.5,0.5,95,130.0
6479,A2,1238.0,0.5,95,130.0
6480,E3,1238.0,1.0,95,130.0
6481,B2,1238.0,1.0,95,130.0
6482,E2,1238.0,1.0,95,130.0
6483,B5,1238.5,1.5,95,130.0
6484,B2,1238.5,0.5,95,130.0
6485,G2,1239.0,0.5,95,130.0
6486,D2,1239.0,0.5,95,130.0
6487,F3,1239.0,0.5,95,130.0
6488,C3,1239.0,0.5,95,130.0
6489,F2,1239.0,0.5,95,130.0
6490,D3,1239.5,1.0,95,130.0
6491,G2,1239.5,0.5,95,130.0
6492,A5,1240.0,0.5,95,130.0
6493,B2,1240.0,0.5,95,130.0
6494,F3,1240.0,0.5,95,130.0
6495,C3,1240.0,0.5,95,130.0
6496,F2,1240.0,0.5,95,130.0
6497,C3,1240.5,27/200,95,130.0
6498,D3,1240.5,0.5,95,130.0
6499,C3,1240.5,0.5,95,130.0
6500,F3,1241.0,27/200,95,130.0
6501,A2,1241.0,0.5,95,130.0
6502,E2,1241.0,0.5,95,130.0
6503,A3,1241.5,0.5,95,130.0
6504,E3,1241.5,1.5,95,130.0
6505,A2,1241.5,0.5,95,130.0
6506,E5,1242.0,1.5,95,130.0
6507,B3,1242.0,0.5,95,130.0
6508,C3,1242.0,0.5,95,130.0
6509,D3,1242.5,27/200,95,130.0
6510,D3,1242.5,0.5,95,130.0
6511,G3,1243.0,27/200,95,130.0
6512,G2,1243.0,0.5,95,130.0
6513,G2,1243.0,0.5,95,130.0
6514,B3,1243.5,0.5,95,130.0
6515,D3,1243.5,0.5,95,130.0
6516,D2,1243.5,0.5,95,130.0
6517,D5,1243.875,0.25,95,130.0
6518,C4,1244.0,0.5,95,130.0
6519,F2,1244.0,0.5,95,130.0
6520,F2,1244.0,0.5,95,130.0
6521,E5,1244.125,0.25,95,130.0
6522,F5,1244.375,0.125,95,130.0
6523,F5,1244.5,0.375,95,130.0
6524,E3,1244.5,0.5,95,130.0
6525,F2,1244.5,0.5,95,130.0
6526,F2,1244.5,0.5,95,130.0
6527,E5,1244.875,1.625,95,130.0
6528,A3,1245.0,0.5,95,130.0
6529,C3,1245.0,0.5,95,130.0
6530,C2,1245.0,0.5,95,130.0
6531,C4,1245.5,0.5,95,130.0
6532,F3,1245.5,1.5,95,130.0
6533,F2,1245.5,0.5,95,130.0
6534,D4,1246.0,0.5,95,130.0
6535,C3,1246.0,0.5,95,130.0
6536,D5,1246.5,0.5,95,130.0
6537,G3,1246.5,0.5,95,130.0
6538,B2,1246.5,0.5,95,130.0
6539,D5,1247.0,0.25,95,130.0
6540,D3,1247.0,0.5,95,130.0
6541,E2,1247.0,0.5,95,130.0
6542,B1,1247.0,0.5,95,130.0
6543,E5,1247.25,0.125,95,130.0
6544,D5,1247.375,0.125,70,130.0
6545,C5,1247.5,1.0,95,130.0
6546,F3,1247.5,0.5,95,130.0
6547,G2,1247.5,0.5,95,130.0
6548,G2,1247.5,0.5,95,130.0
6549,F3,1248.0,0.5,95,130.0
6550,B2,1248.0,0.5,95,130.0
6551,B2,1248.0,0.5,95,130.0
6552,C5,1248.5,4.0,95,130.0
6553,C3,1248.5,27/200,95,130.0
6554,A2,1248.5,1.0,95,130.0
6555,A3,1248.5,1.5,95,130.0
6556,E3,1248.5,1.5,95,130.0
6557,A2,1248.5,1.5,95,130.0
6558,F3,1249.0,27/200,95,130.0
6559,C4,1249.5,0.5,95,130.0
6560,B3,1250.0,0.5,95,130.0
6561,B3,1250.0,0.5,95,130.0
6562,B2,1250.0,0.5,95,130.0
6563,B2,1250.5,27/200,95,130.0
6564,G3,1251.0,0.5,95,130.0
6565,C4,1251.0,0.5,95,130.0
6566,C3,1251.0,0.5,95,130.0
6567,B3,1251.5,0.5,95,130.0
6568,F2,1252.0,0.5,95,130.0
6569,F2,1252.0,0.5,95,130.0
6570,A3,1252.0,1.0,95,130.0
6571,E3,1252.0,1.0,95,130.0
6572,A2,1252.0,1.0,95,130.0
6573,B5,1252.5,2.0,95,130.0
6574,F2,1252.5,0.5,95,130.0
6575,F2,1252.5,0.5,95,130.0
6576,C3,1253.0,0.5,95,130.0
6577,C2,1253.0,0.5,95,130.0
6578,B3,1253.5,0.5,95,130.0
6579,F3,1253.5,1.5,95,130.0
6580,F2,1253.5,0.5,95,130.0
6581,A2,1254.0,0.5,95,130.0
6582,B5,1254.5,1.5,95,130.0
6583,C4,1254.5,0.5,95,130.0
6584,B2,1254.5,0.5,95,130.0
6585,G2,1255.0,0.5,95,130.0
6586,D2,1255.0,0.5,95,130.0
6587,F3,1255.5,0.5,95,130.0
6588,D3,1255.5,1.0,95,130.0
6589,G2,1255.5,0.5,95,130.0
6590,C6,1256.0,0.5,95,130.0
6591,F3,1256.0,0.5,95,130.0
6592,B2,1256.0,0.5,95,130.0
6593,C3,1256.5,27/200,95,130.0
6594,D3,1256.5,0.5,95,130.0
6595,C3,1256.5,0.5,95,130.0
6596,F3,1257.0,27/200,95,130.0
6597,A2,1257.0,0.5,95,130.0
6598,E2,1257.0,0.5,95,130.0
6599,A3,1257.5,0.5,95,130.0
6600,E3,1257.5,1.5,95,130.0
6601,A2,1257.5,0.5,95,130.0
6602,C6,1258.0,0.25,95,130.0
6603,B3,1258.0,0.5,95,130.0
6604,C3,1258.0,0.5,95,130.0
6605,B5,1258.25,0.25,95,130.0
6606,A5,1258.5,2.0,95,130.0
6607,D3,1258.5,27/200,95,130.0
6608,D3,1258.5,0.5,95,130.0
6609,G3,1259.0,27/200,95,130.0
6610,B2,1259.0,0.5,95,130.0
6611,G2,1259.0,0.5,95,130.0
6612,B3,1259.5,0.5,95,130.0
6613,G3,1259.5,1.0,95,130.0
6614,B2,1259.5,0.5,95,130.0
6615,C4,1260.0,0.5,95,130.0
6616,D3,1260.0,0.5,95,130.0
6617,B5,1260.5,1.0,95,130.0
6618,E3,1260.5,0.5,95,130.0
6619,G3,1260.5,0.5,95,130.0
6620,A3,1261.0,0.5,95,130.0
6621,D3,1261.0,0.25,95,130.0
6622,D3,1261.25,0.25,95,130.0
6623,A5,1261.5,0.5,95,130.0
6624,C4,1261.5,0.5,95,130.0
6625,F3,1261.5,0.5,95,130.0
6626,G5,1262.0,0.5,95,130.0
6627,D4,1262.0,0.5,95,130.0
6628,E3,1262.0,1.0,95,130.0
6629,F5,1262.5,0.5,95,130.0
6630,G3,1262.5,0.5,95,130.0
6631,E5,1263.0,0.5,95,130.0
6632,B3,1263.0,0.5,95,130.0
6633,C3,1263.0,0.5,95,130.0
6634,C2,1263.0,0.5,95,130.0
6635,F5,1263.5,0.5,95,130.0
6636,D4,1263.5,0.5,95,130.0
6637,E3,1263.5,0.5,95,130.0
6638,E2,1263.5,0.5,95,130.0
6639,E5,1264.0,0.125,95,130.0
6640,G4,1264.0,0.5,95,130.0
6641,G3,1264.0,0.5,95,130.0
6642,G2,1264.0,0.5,95,130.0
6643,F5,1264.125,0.125,70,130.0
6644,E5,1264.25,0.25,95,130.0
6645,E5,1264.5,2.0,95,130.0
6646,D4,1264.5,0.25,95,130.0
6647,G3,1264.5,2.0,95,130.0
6648,C3,1264.5,0.5,95,130.0
6649,D4,1264.75,0.25,95,130.0
6650,F4,1265.0,0.5,95,130.0
6651,D3,1265.0,0.5,95,130.0
6652,E4,1265.5,1.0,95,130.0
6653,E3,1265.5,0.5,95,130.0
6654,F3,1266.0,0.5,95,130.0
6655,C5,1266.5,0.125,95,130.0
6656,C3,1266.5,0.5,95,130.0
6657,D2,1266.5,0.5,95,130.0
6658,D5,1266.625,0.125,95,130.0
6659,E5,1266.75,0.125,95,130.0
6660,F5,1266.875,0.125,95,130.0
6661,G5,1267.0,0.125,95,130.0
6662,E3,1267.0,0.5,95,130.0
6663,A3,1267.0,1.5,95,130.0
6664,A2,1267.0,0.5,95,130.0
6665,A5,1267.125,0.125,95,130.0
6666,G5,1267.25,0.125,95,130.0
6667,A5,1267.375,0.125,95,130.0
6668,B5,1267.5,0.125,95,130.0
6669,G3,1267.5,0.5,95,130.0
6670,E3,1267.5,0.5,95,130.0
6671,G5,1267.625,0.125,95,130.0
6672,A5,1267.75,0.25,95,130.0
6673,B5,1268.0,0.5,95,130.0
6674,C4,1268.0,0.5,95,130.0
6675,F3,1268.0,0.5,95,130.0
6676,B5,1268.5,2.0,95,130.0
6677,D4,1268.5,0.5,95,130.0
6678,B-1,1268.5,0.5,95,130.0
6679,E4,1269.0,0.5,95,130.0
6680,F3,1269.0,1.5,95,130.0
6681,G2,1269.0,0.5,95,130.0
6682,F4,1269.5,0.5,95,130.0
6683,D3,1269.5,0.5,95,130.0
6684,D3,1270.0,0.5,95,130.0
6685,E3,1270.0,0.5,95,130.0
6686,B5,1270.5,2.0,95,130.0
6687,A3,1270.5,0.5,95,130.0
6688,C2,1270.5,0.5,95,130.0
6689,E4,1271.0,0.5,95,130.0
6690,G3,1271.0,1.5,95,130.0
6691,G2,1271.0,0.5,95,130.0
6692,F4,1271.5,0.5,95,130.0
6693,E3,1271.5,0.5,95,130.0
6694,B-2,1272.0,0.5,95,130.0
6695,C3,1272.0,0.5,95,130.0
6696,C6,1272.5,2.0,95,130.0
6697,G3,1272.5,0.5,95,130.0
6698,A1,1272.5,0.5,95,130.0
6699,D4,1273.0,0.5,95,130.0
6700,E3,1273.0,1.5,95,130.0
6701,F2,1273.0,0.5,95,130.0
6702,E4,1273.5,0.5,95,130.0
6703,C3,1273.5,0.5,95,130.0
6704,C3,1274.0,0.5,95,130.0
6705,D3,1274.0,0.5,95,130.0
6706,D6,1274.5,2.0,95,130.0
6707,G3,1274.5,0.5,95,130.0
6708,B-1,1274.5,0.5,95,130.0
6709,E4,1275.0,0.5,95,130.0
6710,F3,1275.0,1.5,95,130.0
6711,F2,1275.0,0.5,95,130.0
6712,C4,1275.5,0.5,95,130.0
6713,D3,1275.5,0.5,95,130.0
6714,A2,1276.0,0.5,95,130.0
6715,B-2,1276.0,0.5,95,130.0
6716,F3,1276.5,0.5,95,130.0
6717,G1,1276.5,0.5,95,130.0
6718,C4,1277.0,0.5,95,130.0
6719,D3,1277.0,1.5,95,130.0
6720,E1,1277.0,0.5,95,130.0
6721,D6,1277.5,0.5,95,130.0
6722,D4,1277.5,0.5,95,130.0
6723,B-2,1277.5,0.5,95,130.0
6724,D6,1278.0,2.5,95,130.0
6725,B-2,1278.0,0.5,95,130.0
6726,A2,1278.0,0.5,95,130.0
6727,F3,1278.5,0.5,95,130.0
6728,F2,1278.5,0.5,95,130.0
6729,F2,1278.5,0.5,95,130.0
6730,D4,1279.0,0.5,95,130.0
6731,C3,1279.0,0.5,79,130.0
6732,C2,1279.0,0.5,95,130.0
6733,B-3,1279.5,0.5,95,130.0
6734,F3,1279.5,1.0,95,130.0
6735,F2,1279.5,0.5,95,130.0
6736,G2,1280.0,0.5,95,130.0
6737,A2,1280.0,0.5,95,130.0
6738,C6,1280.5,0.5,95,130.0
6739,E2,1280.5,0.5,95,130.0
6740,F3,1280.5,1.0,95,130.0
6741,B2,1280.5,0.5,95,130.0
6742,D6,1281.0,0.5,95,130.0
6743,B-3,1281.0,0.5,95,130.0
6744,C3,1281.0,0.5,95,130.0
6745,E6,1281.5,1.0,95,130.0
6746,A3,1281.5,0.5,95,130.0
6747,C3,1281.5,0.5,95,130.0
6748,A1,1281.5,0.5,95,130.0
6749,F3,1282.0,0.5,95,130.0
6750,E3,1282.0,1.5,95,130.0
6751,E1,1282.0,0.5,95,130.0
6752,E6,1282.5,2.0,95,130.0
6753,C3,1282.5,0.5,95,130.0
6754,C3,1282.5,0.5,95,130.0
6755,F3,1283.0,0.5,95,130.0
6756,D3,1283.0,0.5,95,130.0
6757,A3,1283.5,0.5,95,130.0
6758,D3,1283.5,0.5,95,130.0
6759,B-1,1283.5,0.5,95,130.0
6760,B3,1284.0,0.5,95,130.0
6761,F3,1284.0,0.5,95,130.0
6762,F1,1284.0,0.5,95,130.0
6763,C4,1284.5,0.5,95,130.0
6764,B-3,1284.5,2.0,95,130.0
6765,B-2,1284.5,0.5,95,130.0
6766,A2,1285.0,0.5,95,130.0
6767,D3,1285.0,0.5,95,130.0
6768,E2,1285.5,0.5,95,130.0
6769,E3,1285.5,0.5,95,130.0
6770,C4,1286.0,0.5,95,130.0
6771,F3,1286.0,0.5,95,130.0
6772,E6,1286.5,2.0,95,130.0
6773,D4,1286.5,0.5,95,130.0
6774,C3,1286.5,0.5,95,130.0
6775,C2,1286.5,0.5,95,130.0
6776,B-2,1287.0,0.5,95,130.0
6777,G3,1287.0,0.5,95,130.0
6778,G1,1287.0,0.5,95,130.0
6779,F2,1287.5,0.5,95,130.0
6780,C4,1287.5,1.0,95,130.0
6781,C3,1287.5,0.5,95,130.0
6782,B-3,1288.0,0.5,95,130.0
6783,E3,1288.0,0.5,95,130.0
6784,D4,1288.5,0.5,95,130.0
6785,C4,1288.5,1.0,95,130.0
6786,F3,1288.5,0.5,95,130.0
6787,E4,1289.0,0.5,95,130.0
6788,G3,1289.0,0.5,95,130.0
6789,F4,1289.5,0.5,95,130.0
6790,G3,1289.5,3.0,95,130.0
6791,D3,1289.5,3.0,95,130.0
6792,D3,1289.5,3.0,95,130.0
6793,G2,1289.5,3.0,95,130.0
6794,D6,1290.0,0.5,95,130.0
6795,C3,1290.0,0.5,95,130.0
6796,D6,1290.5,2.0,95,130.0
6797,G2,1290.5,0.5,95,130.0
6798,C4,1291.0,0.5,95,130.0
6799,E4,1291.5,0.5,95,130.0
6800,F4,1292.0,0.5,95,130.0
6801,G4,1292.5,0.5,95,130.0
6802,D5,1293.0,3.0,95,130.0
6803,G4,1293.0,3.0,95,130.0
6804,D4,1293.0,3.0,95,130.0
6805,C6,1294.0,0.5,95,130.0
6806,C6,1294.5,2.0,95,130.0
6807,C6,1296.5,1.0,95,130.0
6808,G3,1296.5,4.0,95,130.0
6809,D3,1296.5,4.0,95,130.0
6810,C6,1297.5,2.0,95,130.0
6811,C6,1299.5,1.0,95,130.0
6812,C6,1300.5,2.0,95,130.0
6813,D3,1300.5,4.0,95,130.0
6814,G2,1300.5,4.0,95,130.0
6815,D6,1302.5,2.0,95,130.0
6816,D5,1304.0,4.0,95,130.0
6817,G4,1304.0,4.0,95,130.0
6818,D4,1304.0,4.0,95,130.0
6819,D6,1304.5,1.0,95,130.0
6820,D6,1305.5,3.0,95,130.0
6821,D6,1308.5,4.0,95,130.0
6822,D3,1308.5,4.0,95,130.0
6823,G2,1308.5,4.0,95,130.0
6824,D5,1312.0,4.0,95,130.0
6825,G4,1312.0,4.0,95,130.0
6826,D4,1312.0,4.0,95,130.0
6827,E4,1312.5,4.0,47,130.0
6828,A2,1312.5,4.0,47,130.0
6829,E4,1320.5,4.0,47,130.0
6830,A2,1320.5,4.0,47,130.0
6831,C#4,1324.5,1.0,95,130.0
6832,A2,1325.5,0.5,95,130.0
6833,E2,1326.0,0.5,95,130.0
6834,G3,1326.5,0.5,95,130.0
6835,A3,1327.0,0.5,95,130.0
6836,A2,1327.5,0.5,95,130.0
6837,C#4,1328.0,0.5,95,130.0
6838,C#4,1328.5,0.5,95,130.0
6839,A2,1329.0,1.0,95,130.0
6840,G3,1330.0,0.5,95,130.0
6841,A3,1330.5,0.5,95,130.0
6842,A2,1331.0,0.5,95,130.0
6843,C#3,1331.5,27/200,95,130.0
6844,D3,1331.75,27/200,95,130.0
6845,E3,1332.0,27/200,95,130.0
6846,C#4,1332.5,1.0,95,130.0
6847,A2,1333.5,0.5,95,130.0
6848,E2,1334.0,0.5,95,130.0
6849,G3,1334.5,0.5,95,130.0
6850,A3,1335.0,0.5,95,130.0
6851,A3,1336.0,0.5,95,130.0
6852,C#5,1336.0,1.0,95,130.0
6853,A3,1336.5,0.5,95,130.0
6854,A2,1337.0,0.5,95,130.0
6855,A4,1337.0,0.5,95,130.0
6856,B-2,1337.5,0.5,95,130.0
6857,A2,1337.5,0.5,95,130.0
6858,C#3,1338.0,0.5,95,130.0
6859,G4,1338.0,0.5,95,130.0
6860,D3,1338.5,0.5,95,130.0
6861,A4,1338.5,0.5,95,130.0
6862,F3,1339.0,0.5,95,130.0
6863,A2,1339.0,0.5,95,130.0
6864,E3,1339.5,0.125,95,130.0
6865,C#5,1339.5,0.5,95,130.0
6866,F3,1339.625,0.125,70,130.0
6867,E3,1339.75,0.25,70,130.0
6868,D3,1340.0,0.5,95,130.0
6869,C#5,1340.0,0.5,95,130.0
6870,C#4,1340.5,1.0,95,130.0
6871,A2,1340.5,1.0,95,130.0
6872,C#4,1340.5,1.0,95,130.0
6873,A2,1341.5,0.5,95,130.0
6874,G4,1341.5,0.5,95,130.0
6875,A2,1341.5,0.5,95,130.0
6876,E2,1342.0,0.5,95,130.0
6877,A4,1342.0,0.5,95,130.0
6878,E2,1342.0,0.5,95,130.0
6879,G3,1342.5,0.5,95,130.0
6880,A2,1342.5,0.5,95,130.0
6881,G3,1342.5,0.5,95,130.0
6882,A3,1343.0,0.5,95,130.0
6883,C#4,1343.0,27/200,95,130.0
6884,A3,1343.0,0.5,95,130.0
6885,D4,1343.25,27/200,95,130.0
6886,A2,1343.5,0.5,95,130.0
6887,E4,1343.5,0.5,95,130.0
6888,A2,1343.5,0.5,95,130.0
6889,C#4,1344.0,0.5,95,130.0
6890,C#5,1344.0,1.0,95,130.0
6891,C#4,1344.0,0.5,95,130.0
6892,C#4,1344.5,0.5,95,130.0
6893,C#4,1344.5,0.5,95,130.0
6894,A2,1345.0,1.0,95,130.0
6895,A4,1345.0,0.5,95,130.0
6896,A2,1345.0,1.0,95,130.0
6897,A2,1345.5,0.5,95,130.0
6898,G3,1346.0,0.5,95,130.0
6899,G4,1346.0,0.5,95,130.0
6900,G3,1346.0,0.5,95,130.0
6901,A3,1346.5,0.5,95,130.0
6902,A4,1346.5,0.5,95,130.0
6903,A3,1346.5,0.5,95,130.0
6904,A2,1347.0,0.5,95,130.0
6905,A2,1347.0,0.5,95,130.0
6906,A2,1347.0,0.5,95,130.0
6907,C#3,1347.5,27/200,95,130.0
6908,A4,1347.5,0.5,95,130.0
6909,C#3,1347.5,0.25,95,130.0
6910,D3,1347.75,27/200,95,130.0
6911,D3,1347.75,0.25,95,130.0
6912,E3,1348.0,27/200,95,130.0
6913,A4,1348.0,1.0,95,130.0
6914,E3,1348.0,0.5,95,130.0
6915,C#4,1348.5,1.0,95,130.0
6916,C#4,1348.5,1.0,95,130.0
6917,A1,1348.5,0.5,95,130.0
6918,C#4,1349.0,0.25,95,130.0
6919,D4,1349.25,0.25,95,130.0
6920,A2,1349.5,0.5,95,130.0
6921,E4,1349.5,0.25,95,130.0
6922,A2,1349.5,0.5,95,130.0
6923,A1,1349.5,0.5,95,130.0
6924,F4,1349.75,0.25,95,130.0
6925,E2,1350.0,0.5,95,130.0
6926,G4,1350.0,0.25,95,130.0
6927,E2,1350.0,0.5,95,130.0
6928,G#4,1350.25,0.25,95,130.0
6929,G3,1350.5,0.5,95,130.0
6930,G4,1350.5,0.25,95,130.0
6931,G3,1350.5,0.5,95,130.0
6932,A2,1350.5,1.0,95,130.0
6933,F4,1350.75,0.25,95,130.0
6934,A3,1351.0,0.5,95,130.0
6935,E4,1351.0,0.25,95,130.0
6936,A3,1351.0,0.5,95,130.0
6937,D4,1351.25,0.25,95,130.0
6938,C#4,1351.5,167/1000,95,130.0
6939,A2,1351.5,0.5,95,130.0
6940,C4,1351.667,167/1000,95,130.0
6941,B-3,1351.833,167/1000,95,130.0
6942,A3,1352.0,0.5,95,130.0
6943,C#5,1352.0,1.0,95,130.0
6944,A3,1352.0,0.5,95,130.0
6945,A1,1352.0,0.5,95,130.0
6946,A3,1352.5,1.0,95,130.0
6947,A3,1352.5,0.5,95,130.0
6948,A4,1353.0,0.5,95,130.0
6949,A2,1353.0,0.5,95,130.0
6950,A1,1353.0,0.5,95,130.0
6951,C#3,1353.5,0.25,95,130.0
6952,A2,1353.5,0.5,95,130.0
6953,B-2,1353.5,0.5,95,130.0
6954,D3,1353.75,0.25,95,130.0
6955,E3,1354.0,0.25,95,130.0
6956,G4,1354.0,0.5,95,130.0
6957,C#3,1354.0,0.5,95,130.0
6958,G1,1354.0,0.5,95,130.0
6959,F3,1354.25,0.25,95,130.0
6960,G3,1354.5,0.25,95,130.0
6961,A4,1354.5,0.5,95,130.0
6962,D3,1354.5,0.5,95,130.0
6963,A2,1354.5,1.0,95,130.0
6964,G#3,1354.75,0.25,95,130.0
6965,G3,1355.0,0.25,95,130.0
6966,A2,1355.0,0.5,95,130.0
6967,F3,1355.0,0.5,95,130.0
6968,F3,1355.25,0.25,95,130.0
6969,E3,1355.5,0.25,95,130.0
6970,C#5,1355.5,0.5,95,130.0
6971,E3,1355.5,0.125,95,130.0
6972,C#2,1355.5,0.25,95,130.0
6973,F3,1355.625,0.125,70,130.0
6974,D3,1355.75,0.25,95,130.0
6975,E3,1355.75,0.25,70,130.0
6976,D2,1355.75,0.25,95,130.0
6977,C#3,1356.0,167/1000,95,130.0
6978,C#5,1356.0,0.5,95,130.0
6979,D3,1356.0,0.5,95,130.0
6980,E2,1356.0,0.25,95,130.0
6981,B-2,1356.167,167/1000,95,130.0
6982,A2,1356.333,167/1000,95,130.0
6983,A3,1356.5,4.0,95,130.0
6984,A2,1356.5,1.0,95,130.0
6985,C#4,1356.5,1.0,95,130.0
6986,A1,1356.5,0.5,95,130.0
6987,G4,1357.5,0.5,95,130.0
6988,A2,1357.5,0.5,95,130.0
6989,A1,1357.5,0.5,95,130.0
6990,A4,1358.0,0.5,95,130.0
6991,E2,1358.0,0.5,95,130.0
6992,A2,1358.5,0.5,95,130.0
6993,G3,1358.5,0.5,95,130.0
6994,A2,1358.5,1.0,95,130.0
6995,C#4,1359.0,27/200,95,130.0
6996,A3,1359.0,0.5,95,130.0
6997,D4,1359.25,27/200,95,130.0
6998,E4,1359.5,0.5,95,130.0
6999,A2,1359.5,0.5,95,130.0
7000,C#5,1360.0,1.0,95,130.0
7001,C#4,1360.0,0.5,95,130.0
7002,A1,1360.0,0.5,95,130.0
7003,A3,1360.5,2.0,95,130.0
7004,C#4,1360.5,0.5,95,130.0
7005,A4,1361.0,0.5,95,130.0
7006,A2,1361.0,1.0,95,130.0
7007,A1,1361.0,0.5,95,130.0
7008,A2,1361.5,0.5,95,130.0
7009,B-1,1361.5,0.5,95,130.0
7010,G4,1362.0,0.5,95,130.0
7011,G3,1362.0,0.5,95,130.0
7012,C#2,1362.0,0.5,95,130.0
7013,A3,1362.5,0.25,95,130.0
7014,A4,1362.5,0.5,95,130.0
7015,A3,1362.5,0.5,95,130.0
7016,D2,1362.5,0.5,95,130.0
7017,B-3,1362.75,0.25,95,130.0
7018,C#4,1363.0,0.25,95,130.0
7019,A2,1363.0,0.5,95,130.0
7020,A2,1363.0,0.5,95,130.0
7021,F2,1363.0,0.5,95,130.0
7022,D4,1363.25,0.25,95,130.0
7023,C#4,1363.5,0.25,95,130.0
7024,A4,1363.5,0.5,95,130.0
7025,A3,1363.5,0.5,95,130.0
7026,E2,1363.5,0.125,95,130.0
7027,F2,1363.625,0.125,70,130.0
7028,D4,1363.75,0.25,95,130.0
7029,E2,1363.75,0.25,70,130.0
7030,A4,1364.0,0.5,95,130.0
7031,A2,1364.0,0.5,95,130.0
7032,D2,1364.0,0.5,95,130.0
7033,E4,1364.5,3.5,95,130.0
7034,A3,1364.5,0.5,95,130.0
7035,C#4,1364.5,1.0,95,130.0
7036,A1,1364.5,0.5,95,130.0
7037,C#4,1365.0,0.5,95,130.0
7038,D4,1365.5,0.5,95,130.0
7039,A2,1365.5,0.5,95,130.0
7040,A1,1365.5,0.5,95,130.0
7041,E4,1366.0,0.5,95,130.0
7042,E2,1366.0,0.5,95,130.0
7043,F4,1366.5,0.5,95,130.0
7044,G3,1366.5,0.5,95,130.0
7045,A2,1366.5,1.0,95,130.0
7046,E4,1367.0,0.125,95,130.0
7047,A3,1367.0,0.5,95,130.0
7048,F4,1367.125,0.125,70,130.0
7049,E4,1367.25,0.25,70,130.0
7050,D4,1367.5,0.5,95,130.0
7051,A2,1367.5,0.5,95,130.0
7052,D4,1368.0,0.25,95,130.0
7053,C#5,1368.0,1.0,95,130.0
7054,A3,1368.0,0.5,95,130.0
7055,A1,1368.0,0.5,95,130.0
7056,E4,1368.25,0.25,95,130.0
7057,F4,1368.5,0.75,95,130.0
7058,A4,1369.0,0.5,95,130.0
7059,A1,1369.0,0.5,95,130.0
7060,E4,1369.25,0.75,95,130.0
7061,A2,1369.5,0.5,95,130.0
7062,A3,1369.5,0.5,95,130.0
7063,D4,1370.0,0.75,95,130.0
7064,G4,1370.0,0.5,95,130.0
7065,G1,1370.0,0.5,95,130.0
7066,A4,1370.5,0.5,95,130.0
7067,G3,1370.5,0.5,95,130.0
7068,A2,1370.5,1.0,95,130.0
7069,C#4,1370.75,0.5,95,130.0
7070,A2,1371.0,0.5,95,130.0
7071,B-3,1371.25,0.75,95,130.0
7072,C#5,1371.5,0.5,95,130.0
7073,B-3,1371.5,0.5,95,130.0
7074,C#2,1371.5,0.25,95,130.0
7075,D2,1371.75,0.25,95,130.0
7076,A3,1372.0,0.5,95,130.0
7077,C#5,1372.0,0.5,95,130.0
7078,E2,1372.0,0.25,95,130.0
7079,A3,1372.5,0.25,95,130.0
7080,A2,1372.5,1.0,95,130.0
7081,C#4,1372.5,1.0,95,130.0
7082,A1,1372.5,0.5,95,130.0
7083,B-3,1372.75,0.25,70,130.0
7084,A3,1373.0,0.25,70,130.0
7085,G3,1373.25,0.25,95,130.0
7086,A3,1373.5,3.0,95,130.0
7087,G4,1373.5,0.5,95,130.0
7088,A2,1373.5,0.5,95,130.0
7089,A1,1373.5,0.5,95,130.0
7090,A4,1374.0,0.5,95,130.0
7091,E2,1374.0,0.5,95,130.0
7092,A2,1374.5,0.5,95,130.0
7093,G3,1374.5,0.5,95,130.0
7094,A2,1374.5,1.0,95,130.0
7095,A4,1375.0,0.5,95,130.0
7096,A3,1375.0,0.5,95,130.0
7097,A2,1375.5,0.5,95,130.0
7098,A2,1375.5,0.5,95,130.0
7099,A2,1375.5,0.5,95,130.0
7100,C#5,1376.0,1.0,95,130.0
7101,C#4,1376.0,0.5,95,130.0
7102,A1,1376.0,0.5,95,130.0
7103,C#4,1376.5,0.5,95,130.0
7104,A4,1377.0,0.5,95,130.0
7105,A2,1377.0,1.0,95,130.0
7106,A2,1377.5,0.5,95,130.0
7107,A1,1377.5,0.5,95,130.0
7108,G3,1378.0,0.25,95,130.0
7109,G4,1378.0,0.5,95,130.0
7110,G3,1378.0,0.5,95,130.0
7111,F3,1378.25,0.25,95,130.0
7112,E3,1378.5,1.5,95,130.0
7113,A4,1378.5,0.5,95,130.0
7114,A3,1378.5,0.5,95,130.0
7115,G1,1378.5,0.5,95,130.0
7116,A2,1379.0,0.5,95,130.0
7117,A2,1379.0,0.5,95,130.0
7118,A4,1379.5,0.5,95,130.0
7119,C#3,1379.5,0.25,95,130.0
7120,B-1,1379.5,0.5,95,130.0
7121,D3,1379.75,0.25,95,130.0
7122,D3,1380.0,0.5,95,130.0
7123,A4,1380.0,0.5,95,130.0
7124,E3,1380.0,0.5,95,130.0
7125,C#3,1380.5,2.0,95,130.0
7126,A2,1380.5,0.5,95,130.0
7127,C#4,1380.5,1.0,95,130.0
7128,A1,1380.5,0.5,95,130.0
7129,A4,1381.0,0.5,95,130.0
7130,A2,1381.5,0.5,95,130.0
7131,A2,1381.5,0.5,95,130.0
7132,A1,1381.5,0.5,95,130.0
7133,G4,1382.0,0.5,95,130.0
7134,E2,1382.0,0.5,95,130.0
7135,A2,1382.5,2.0,95,130.0
7136,A2,1382.5,0.5,95,130.0
7137,G3,1382.5,0.5,95,130.0
7138,A2,1382.5,1.0,95,130.0
7139,B-4,1383.0,0.5,95,130.0
7140,A3,1383.0,0.5,95,130.0
7141,A2,1383.5,0.5,95,130.0
7142,A2,1383.5,0.5,95,130.0
7143,C#5,1384.0,1.0,95,130.0
7144,A3,1384.0,0.5,95,130.0
7145,A1,1384.0,0.5,95,130.0
7146,A3,1384.5,0.5,95,130.0
7147,E3,1384.5,4.0,63,130.0
7148,E4,1384.5,4.0,63,130.0
7149,A4,1385.0,0.5,95,130.0
7150,A2,1385.0,0.5,95,130.0
7151,A1,1385.0,0.5,95,130.0
7152,A2,1385.5,0.5,95,130.0
7153,B-2,1385.5,0.5,95,130.0
7154,G4,1386.0,0.5,95,130.0
7155,C#3,1386.0,0.5,95,130.0
7156,G1,1386.0,0.5,95,130.0
7157,A4,1386.5,0.5,95,130.0
7158,D3,1386.5,0.5,95,130.0
7159,A2,1386.5,1.0,95,130.0
7160,A2,1387.0,0.5,95,130.0
7161,F3,1387.0,0.5,95,130.0
7162,C#5,1387.5,0.5,95,130.0
7163,E3,1387.5,0.125,95,130.0
7164,C#2,1387.5,0.25,95,130.0
7165,F3,1387.625,0.125,70,130.0
7166,E3,1387.75,0.25,70,130.0
7167,D2,1387.75,0.25,95,130.0
7168,C#5,1388.0,0.5,95,130.0
7169,D3,1388.0,0.5,95,130.0
7170,E2,1388.0,0.25,95,130.0
7171,E4,1388.5,0.25,95,130.0
7172,A2,1388.5,1.0,95,130.0
7173,C#4,1388.5,1.0,95,130.0
7174,A1,1388.5,0.5,95,130.0
7175,F4,1388.75,0.25,95,130.0
7176,E4,1389.0,0.25,95,130.0
7177,D4,1389.25,0.25,95,130.0
7178,E4,1389.5,2.5,95,130.0
7179,G4,1389.5,0.5,95,130.0
7180,A2,1389.5,0.5,95,130.0
7181,A1,1389.5,0.5,95,130.0
7182,A4,1390.0,0.5,95,130.0
7183,E2,1390.0,0.5,95,130.0
7184,A2,1390.5,0.5,95,130.0
7185,G3,1390.5,0.5,95,130.0
7186,A2,1390.5,1.0,95,130.0
7187,C#4,1391.0,27/200,95,130.0
7188,A3,1391.0,0.5,95,130.0
7189,D4,1391.25,27/200,95,130.0
7190,E4,1391.5,0.5,95,130.0
7191,A2,1391.5,0.5,95,130.0
7192,A4,1392.0,0.5,95,130.0
7193,C#5,1392.0,1.0,95,130.0
7194,C#4,1392.0,0.5,95,130.0
7195,A1,1392.0,0.5,95,130.0
7196,A4,1392.5,1.5,95,130.0
7197,C#4,1392.5,0.5,95,130.0
7198,A4,1393.0,0.5,95,130.0
7199,A2,1393.0,1.0,95,130.0
7200,A1,1393.0,0.5,95,130.0
7201,A2,1393.5,0.5,95,130.0
7202,B-1,1393.5,0.5,95,130.0
7203,A4,1394.0,0.25,95,130.0
7204,G4,1394.0,0.5,95,130.0
7205,G3,1394.0,0.5,95,130.0
7206,C#2,1394.0,0.5,95,130.0
7207,B-4,1394.25,0.25,95,130.0
7208,C#5,1394.5,0.75,95,130.0
7209,A4,1394.5,0.5,95,130.0
7210,A3,1394.5,0.5,95,130.0
7211,D2,1394.5,0.5,95,130.0
7212,A2,1395.0,0.5,95,130.0
7213,A2,1395.0,0.5,95,130.0
7214,F2,1395.0,0.5,95,130.0
7215,B-4,1395.25,0.75,95,130.0
7216,A4,1395.5,0.5,95,130.0
7217,A3,1395.5,0.5,95,130.0
7218,E2,1395.5,0.125,95,130.0
7219,F2,1395.625,0.125,70,130.0
7220,E2,1395.75,0.25,70,130.0
7221,A4,1396.0,0.5,95,130.0
7222,A4,1396.0,0.5,95,130.0
7223,A2,1396.0,0.5,95,130.0
7224,D2,1396.0,0.5,95,130.0
7225,G4,1396.5,2.5,95,130.0
7226,A3,1396.5,0.5,95,130.0
7227,C#4,1396.5,1.0,95,130.0
7228,A1,1396.5,0.5,95,130.0
7229,C#4,1397.0,0.5,95,130.0
7230,D4,1397.5,0.5,95,130.0
7231,A2,1397.5,0.5,95,130.0
7232,A1,1397.5,0.5,95,130.0
7233,E4,1398.0,0.5,95,130.0
7234,E2,1398.0,0.5,95,130.0
7235,F4,1398.5,0.5,95,130.0
7236,G3,1398.5,0.5,95,130.0
7237,A2,1398.5,1.0,95,130.0
7238,E4,1399.0,0.5,95,130.0
7239,E4,1399.0,0.125,95,130.0
7240,A3,1399.0,0.5,95,130.0
7241,F4,1399.125,0.125,70,130.0
7242,E4,1399.25,0.25,70,130.0
7243,F4,1399.5,0.5,95,130.0
7244,D4,1399.5,0.5,95,130.0
7245,A2,1399.5,0.5,95,130.0
7246,G4,1400.0,0.5,95,130.0
7247,C#5,1400.0,1.0,95,130.0
7248,A3,1400.0,0.5,95,130.0
7249,A1,1400.0,0.5,95,130.0
7250,A4,1400.5,0.75,95,130.0
7251,A4,1401.0,0.5,95,130.0
7252,A1,1401.0,0.5,95,130.0
7253,G4,1401.25,0.75,95,130.0
7254,A2,1401.5,0.5,95,130.0
7255,A3,1401.5,0.5,95,130.0
7256,F4,1402.0,0.5,95,130.0
7257,G4,1402.0,0.5,95,130.0
7258,G1,1402.0,0.5,95,130.0
7259,E4,1402.5,0.75,95,130.0
7260,A4,1402.5,0.5,95,130.0
7261,G3,1402.5,0.5,95,130.0
7262,A2,1402.5,1.0,95,130.0
7263,A2,1403.0,0.5,95,130.0
7264,D4,1403.25,0.75,95,130.0
7265,C#5,1403.5,0.5,95,130.0
7266,B-3,1403.5,0.5,95,130.0
7267,C#2,1403.5,0.25,95,130.0
7268,D2,1403.75,0.25,95,130.0
7269,C#4,1404.0,0.5,95,130.0
7270,C#5,1404.0,0.5,95,130.0
7271,E2,1404.0,0.25,95,130.0
7272,C#4,1404.5,3.0,95,130.0
7273,A2,1404.5,1.0,95,130.0
7274,C#4,1404.5,1.0,95,130.0
7275,A1,1404.5,0.5,95,130.0
7276,G4,1405.5,0.5,95,130.0
7277,A2,1405.5,0.5,95,130.0
7278,A1,1405.5,0.5,95,130.0
7279,A4,1406.0,0.5,95,130.0
7280,E2,1406.0,0.5,95,130.0
7281,A2,1406.5,0.5,95,130.0
7282,G3,1406.5,0.5,95,130.0
7283,A2,1406.5,1.0,95,130.0
7284,A4,1407.0,0.5,95,130.0
7285,A3,1407.0,0.5,95,130.0
7286,E4,1407.5,0.25,95,130.0
7287,A2,1407.5,0.5,95,130.0
7288,A2,1407.5,0.5,95,130.0
7289,F4,1407.75,0.25,95,130.0
7290,E4,1408.0,0.25,95,130.0
7291,C#5,1408.0,1.0,95,130.0
7292,C#4,1408.0,0.5,95,130.0
7293,A1,1408.0,0.5,95,130.0
7294,D4,1408.25,0.25,95,130.0
7295,C#4,1408.5,0.25,95,130.0
7296,C#4,1408.5,0.5,95,130.0
7297,E4,1408.75,0.25,95,130.0
7298,D4,1409.0,0.25,95,130.0
7299,A4,1409.0,0.5,95,130.0
7300,A2,1409.0,1.0,95,130.0
7301,C#4,1409.25,0.25,95,130.0
7302,B-3,1409.5,0.25,95,130.0
7303,A2,1409.5,0.5,95,130.0
7304,A1,1409.5,0.5,95,130.0
7305,D4,1409.75,0.25,95,130.0
7306,B-3,1410.0,0.25,95,130.0
7307,G4,1410.0,0.5,95,130.0
7308,G3,1410.0,0.5,95,130.0
7309,A3,1410.25,0.25,95,130.0
7310,G3,1410.5,0.25,95,130.0
7311,A4,1410.5,0.5,95,130.0
7312,A3,1410.5,0.5,95,130.0
7313,G1,1410.5,0.5,95,130.0
7314,F3,1410.75,0.25,95,130.0
7315,E3,1411.0,0.25,95,130.0
7316,A2,1411.0,0.5,95,130.0
7317,A2,1411.0,0.5,95,130.0
7318,D3,1411.25,0.25,95,130.0
7319,C#3,1411.5,0.25,95,130.0
7320,A4,1411.5,0.5,95,130.0
7321,C#3,1411.5,0.25,95,130.0
7322,B-1,1411.5,0.5,95,130.0
7323,G3,1411.75,0.25,95,130.0
7324,D3,1411.75,0.25,95,130.0
7325,A3,1412.0,0.25,95,130.0
7326,A4,1412.0,0.5,95,130.0
7327,E3,1412.0,0.5,95,130.0
7328,B-3,1412.25,0.25,95,130.0
7329,C#4,1412.5,0.25,95,130.0
7330,A2,1412.5,0.5,95,130.0
7331,C#4,1412.5,1.0,95,130.0
7332,A1,1412.5,0.5,95,130.0
7333,D4,1412.75,0.25,95,130.0
7334,E4,1413.0,0.25,95,130.0
7335,A4,1413.0,0.5,95,130.0
7336,G4,1413.25,0.25,95,130.0
7337,B-4,1413.5,0.25,95,130.0
7338,A2,1413.5,0.5,95,130.0
7339,A2,1413.5,0.5,95,130.0
7340,A1,1413.5,0.5,95,130.0
7341,G4,1413.75,0.25,95,130.0
7342,A4,1414.0,2.0,95,130.0
7343,G4,1414.0,0.5,95,130.0
7344,E2,1414.0,0.5,95,130.0
7345,A2,1414.5,0.5,95,130.0
7346,G3,1414.5,0.5,95,130.0
7347,A2,1414.5,1.0,95,130.0
7348,B-4,1415.0,0.5,95,130.0
7349,A3,1415.0,0.5,95,130.0
7350,A2,1415.5,0.5,95,130.0
7351,A2,1415.5,0.5,95,130.0
7352,C#5,1416.0,0.375,95,130.0
7353,C#5,1416.0,1.0,95,130.0
7354,A3,1416.0,0.5,95,130.0
7355,A1,1416.0,0.5,95,130.0
7356,D5,1416.375,0.125,95,130.0
7357,D5,1416.5,0.25,95,130.0
7358,A3,1416.5,0.5,95,130.0
7359,E5,1416.75,0.375,95,130.0
7360,A4,1417.0,0.5,95,130.0
7361,A2,1417.0,0.5,95,130.0
7362,A1,1417.0,0.5,95,130.0
7363,F5,1417.125,0.375,95,130.0
7364,G5,1417.5,0.375,95,130.0
7365,A2,1417.5,0.5,95,130.0
7366,B-2,1417.5,0.5,95,130.0
7367,B-5,1417.875,0.375,95,130.0
7368,G4,1418.0,0.5,95,130.0
7369,C#3,1418.0,0.5,95,130.0
7370,G1,1418.0,0.5,95,130.0
7371,A5,1418.25,0.375,95,130.0
7372,A4,1418.5,0.5,95,130.0
7373,D3,1418.5,0.5,95,130.0
7374,A2,1418.5,1.0,95,130.0
7375,G5,1418.625,1.0,95,130.0
7376,A2,1419.0,0.5,95,130.0
7377,F3,1419.0,0.5,95,130.0
7378,C#5,1419.5,0.5,95,130.0
7379,E3,1419.5,0.125,95,130.0
7380,C#2,1419.5,0.25,95,130.0
7381,F3,1419.625,0.125,70,130.0
7382,E3,1419.75,0.25,70,130.0
7383,D2,1419.75,0.25,95,130.0
7384,C#5,1420.0,0.5,95,130.0
7385,D3,1420.0,0.5,95,130.0
7386,E2,1420.0,0.25,95,130.0
7387,E5,1420.5,1.0,95,130.0
7388,A2,1420.5,1.0,95,130.0
7389,C#4,1420.5,1.0,95,130.0
7390,A1,1420.5,0.5,95,130.0
7391,E5,1421.5,0.5,95,130.0
7392,G4,1421.5,0.5,95,130.0
7393,A2,1421.5,0.5,95,130.0
7394,A1,1421.5,0.5,95,130.0
7395,E5,1422.0,0.25,95,130.0
7396,A4,1422.0,0.5,95,130.0
7397,E2,1422.0,0.5,95,130.0
7398,F5,1422.25,0.25,95,130.0
7399,D5,1422.5,0.25,95,130.0
7400,A2,1422.5,0.5,95,130.0
7401,G3,1422.5,0.5,95,130.0
7402,A2,1422.5,1.0,95,130.0
7403,E5,1422.75,0.75,95,130.0
7404,C#4,1423.0,27/200,95,130.0
7405,A3,1423.0,0.5,95,130.0
7406,D4,1423.25,27/200,95,130.0
7407,E5,1423.5,1.0,95,130.0
7408,E4,1423.5,0.5,95,130.0
7409,A2,1423.5,0.5,95,130.0
7410,C#5,1424.0,1.0,95,130.0
7411,C#4,1424.0,0.5,95,130.0
7412,A1,1424.0,0.5,95,130.0
7413,E5,1424.5,0.5,95,130.0
7414,C#4,1424.5,0.5,95,130.0
7415,E5,1425.0,0.5,95,130.0
7416,A4,1425.0,0.5,95,130.0
7417,A2,1425.0,1.0,95,130.0
7418,A1,1425.0,0.5,95,130.0
7419,E5,1425.5,0.5,95,130.0
7420,A2,1425.5,0.5,95,130.0
7421,B-1,1425.5,0.5,95,130.0
7422,G5,1426.0,1.0,95,130.0
7423,G4,1426.0,0.5,95,130.0
7424,G3,1426.0,0.5,95,130.0
7425,C#2,1426.0,0.5,95,130.0
7426,A4,1426.5,0.5,95,130.0
7427,A3,1426.5,0.5,95,130.0
7428,D2,1426.5,0.5,95,130.0
7429,E-5,1427.0,1.5,95,130.0
7430,A2,1427.0,0.5,95,130.0
7431,A2,1427.0,0.5,95,130.0
7432,F2,1427.0,0.5,95,130.0
7433,A4,1427.5,0.5,95,130.0
7434,C#3,1427.5,0.25,95,130.0
7435,E2,1427.5,0.125,95,130.0
7436,F2,1427.625,0.125,70,130.0
7437,D3,1427.75,0.25,95,130.0
7438,E2,1427.75,0.25,70,130.0
7439,A4,1428.0,0.5,95,130.0
7440,E3,1428.0,0.5,95,130.0
7441,D2,1428.0,0.5,95,130.0
7442,E5,1428.5,2.0,95,130.0
7443,A3,1428.5,0.5,95,130.0
7444,C#4,1428.5,1.0,95,130.0
7445,A1,1428.5,0.5,95,130.0
7446,C#4,1429.0,0.5,95,130.0
7447,D4,1429.5,0.5,95,130.0
7448,A2,1429.5,0.5,95,130.0
7449,A1,1429.5,0.5,95,130.0
7450,E4,1430.0,0.5,95,130.0
7451,E2,1430.0,0.5,95,130.0
7452,C#5,1430.5,2.0,95,130.0
7453,F4,1430.5,0.5,95,130.0
7454,G3,1430.5,0.5,95,130.0
7455,A2,1430.5,1.0,95,130.0
7456,E4,1431.0,0.125,95,130.0
7457,A3,1431.0,0.5,95,130.0
7458,F4,1431.125,0.125,70,130.0
7459,E4,1431.25,0.25,70,130.0
7460,D4,1431.5,0.5,95,130.0
7461,A2,1431.5,0.5,95,130.0
7462,C#5,1432.0,1.0,95,130.0
7463,A3,1432.0,0.5,95,130.0
7464,A1,1432.0,0.5,95,130.0
7465,A5,1432.5,0.125,95,130.0
7466,A5,1432.625,0.125,95,130.0
7467,A5,1432.75,0.125,95,130.0
7468,A5,1432.875,0.125,95,130.0
7469,A5,1433.0,0.125,95,130.0
7470,A4,1433.0,0.5,95,130.0
7471,A1,1433.0,0.5,95,130.0
7472,A5,1433.125,0.125,95,130.0
7473,A5,1433.25,0.125,95,130.0
7474,A5,1433.375,0.125,95,130.0
7475,A5,1433.5,0.125,95,130.0
7476,A2,1433.5,0.5,95,130.0
7477,A3,1433.5,0.5,95,130.0
7478,A5,1433.625,0.125,95,130.0
7479,A5,1433.75,0.125,95,130.0
7480,A5,1433.875,0.125,95,130.0
7481,A5,1434.0,0.125,95,130.0
7482,G4,1434.0,0.5,95,130.0
7483,G1,1434.0,0.5,95,130.0
7484,A5,1434.125,0.125,95,130.0
7485,A5,1434.25,0.125,95,130.0
7486,A5,1434.375,31/250,95,130.0
7487,A4,1434.5,2.0,95,130.0
7488,A4,1434.5,0.5,95,130.0
7489,G3,1434.5,0.5,95,130.0
7490,A2,1434.5,1.0,95,130.0
7491,A2,1435.0,0.5,95,130.0
7492,C#5,1435.5,0.5,95,130.0
7493,B-3,1435.5,0.5,95,130.0
7494,C#2,1435.5,0.25,95,130.0
7495,D2,1435.75,0.25,95,130.0
7496,C#5,1436.0,0.5,95,130.0
7497,E2,1436.0,0.25,95,130.0
7498,A4,1436.5,1.0,95,130.0
7499,A2,1436.5,1.0,95,130.0
7500,C#4,1436.5,1.0,95,130.0
7501,A1,1436.5,0.5,95,130.0
7502,G4,1437.5,1.5,95,130.0
7503,G4,1437.5,0.5,95,130.0
7504,A2,1437.5,0.5,95,130.0
7505,A1,1437.5,0.5,95,130.0
7506,A4,1438.0,0.5,95,130.0
7507,E2,1438.0,0.5,95,130.0
7508,A2,1438.5,0.5,95,130.0
7509,G3,1438.5,0.5,95,130.0
7510,A2,1438.5,1.0,95,130.0
7511,F4,1439.0,1.5,95,130.0
7512,C#4,1439.0,27/200,95,130.0
7513,A3,1439.0,0.5,95,130.0
7514,D4,1439.25,27/200,95,130.0
7515,E4,1439.5,0.5,95,130.0
7516,A2,1439.5,0.5,95,130.0
7517,C#5,1440.0,1.0,95,130.0
7518,C#4,1440.0,0.5,95,130.0
7519,A1,1440.0,0.5,95,130.0
7520,E4,1440.5,1.5,95,130.0
7521,C#4,1440.5,0.5,95,130.0
7522,A4,1441.0,0.5,95,130.0
7523,A2,1441.0,1.0,95,130.0
7524,A2,1441.5,0.5,95,130.0
7525,A1,1441.5,0.5,95,130.0
7526,E4,1442.0,0.25,95,130.0
7527,G4,1442.0,0.5,95,130.0
7528,G3,1442.0,0.5,95,130.0
7529,F4,1442.25,0.25,95,130.0
7530,D4,1442.5,0.25,95,130.0
7531,A4,1442.5,0.5,95,130.0
7532,A3,1442.5,0.5,95,130.0
7533,G1,1442.5,0.5,95,130.0
7534,E4,1442.75,1.0,95,130.0
7535,A2,1443.0,0.5,95,130.0
7536,A2,1443.0,0.5,95,130.0
7537,A4,1443.5,0.5,95,130.0
7538,A3,1443.5,0.5,95,130.0
7539,B-1,1443.5,0.5,95,130.0
7540,A4,1444.0,0.5,95,130.0
7541,A2,1444.0,0.5,95,130.0
7542,E4,1444.5,0.25,95,130.0
7543,A2,1444.5,0.5,95,130.0
7544,C#4,1444.5,1.0,95,130.0
7545,A1,1444.5,0.5,95,130.0
7546,F4,1444.75,0.25,95,130.0
7547,D4,1445.0,0.25,95,130.0
7548,A4,1445.0,0.5,95,130.0
7549,E4,1445.25,1.0,95,130.0
7550,A2,1445.5,0.5,95,130.0
7551,A2,1445.5,0.5,95,130.0
7552,A1,1445.5,0.5,95,130.0
7553,G4,1446.0,0.5,95,130.0
7554,E2,1446.0,0.5,95,130.0
7555,E4,1446.25,0.75,95,130.0
7556,A2,1446.5,0.5,95,130.0
7557,G3,1446.5,0.5,95,130.0
7558,A2,1446.5,1.0,95,130.0
7559,E4,1447.0,0.75,95,130.0
7560,B-4,1447.0,0.5,95,130.0
7561,A3,1447.0,0.5,95,130.0
7562,A2,1447.5,0.5,95,130.0
7563,A2,1447.5,0.5,95,130.0
7564,B-4,1447.75,0.5,95,130.0
7565,C#5,1448.0,1.0,95,130.0
7566,A3,1448.0,0.5,95,130.0
7567,A1,1448.0,0.5,95,130.0
7568,A4,1448.25,0.25,95,130.0
7569,A4,1448.5,0.5,95,130.0
7570,A4,1449.0,2.0,95,130.0
7571,A4,1449.0,0.5,95,130.0
7572,A1,1449.0,0.5,95,130.0
7573,A2,1449.5,0.5,95,130.0
7574,A3,1449.5,0.5,95,130.0
7575,G4,1450.0,0.5,95,130.0
7576,G1,1450.0,0.5,95,130.0
7577,A4,1450.5,0.5,95,130.0
7578,G3,1450.5,0.5,95,130.0
7579,A2,1450.5,1.0,95,130.0
7580,C#5,1451.0,0.125,95,130.0
7581,A2,1451.0,0.5,95,130.0
7582,C#5,1451.125,0.125,95,130.0
7583,C#5,1451.25,0.125,95,130.0
7584,C#5,1451.375,0.125,95,130.0
7585,C#5,1451.5,0.125,95,130.0
7586,C#5,1451.5,0.5,95,130.0
7587,B-3,1451.5,0.5,95,130.0
7588,C#2,1451.5,0.25,95,130.0
7589,C#5,1451.625,0.125,95,130.0
7590,C#5,1451.75,0.125,95,130.0
7591,D2,1451.75,0.25,95,130.0
7592,C#5,1451.875,0.125,95,130.0
7593,C#5,1452.0,0.125,95,130.0
7594,C#5,1452.0,0.5,95,130.0
7595,E2,1452.0,0.25,95,130.0
7596,C#5,1452.125,0.125,95,130.0
7597,C#5,1452.25,0.125,95,130.0
7598,C#5,1452.375,31/250,95,130.0
7599,G5,1452.5,1.5,95,130.0
7600,A2,1452.5,1.0,95,130.0
7601,C#4,1452.5,1.0,95,130.0
7602,A1,1452.5,0.5,95,130.0
7603,G4,1453.5,0.5,95,130.0
7604,A2,1453.5,0.5,95,130.0
7605,A1,1453.5,0.5,95,130.0
7606,G5,1454.0,0.5,95,130.0
7607,A4,1454.0,0.5,95,130.0
7608,E2,1454.0,0.5,95,130.0
7609,G5,1454.5,2.0,95,130.0
7610,A2,1454.5,0.5,95,130.0
7611,G3,1454.5,0.5,95,130.0
7612,A2,1454.5,1.0,95,130.0
7613,A4,1455.0,0.5,95,130.0
7614,A3,1455.0,0.5,95,130.0
7615,A2,1455.5,0.5,95,130.0
7616,A2,1455.5,0.5,95,130.0
7617,C#5,1456.0,1.0,95,130.0
7618,C#4,1456.0,0.5,95,130.0
7619,A1,1456.0,0.5,95,130.0
7620,G5,1456.5,1.5,95,130.0
7621,C#4,1456.5,0.5,95,130.0
7622,A4,1457.0,0.5,95,130.0
7623,A2,1457.0,1.0,95,130.0
7624,A2,1457.5,0.5,95,130.0
7625,A1,1457.5,0.5,95,130.0
7626,A5,1458.0,0.25,95,130.0
7627,G4,1458.0,0.5,95,130.0
7628,G3,1458.0,0.5,95,130.0
7629,B-5,1458.25,0.25,95,130.0
7630,C#6,1458.5,1.5,95,130.0
7631,A4,1458.5,0.5,95,130.0
7632,A3,1458.5,0.5,95,130.0
7633,G1,1458.5,0.5,95,130.0
7634,A2,1459.0,0.5,95,130.0
7635,A2,1459.0,0.5,95,130.0
7636,A4,1459.5,0.5,95,130.0
7637,C#3,1459.5,0.25,95,130.0
7638,B-1,1459.5,0.5,95,130.0
7639,D3,1459.75,0.25,95,130.0
7640,D6,1460.0,0.25,95,130.0
7641,A4,1460.0,0.5,95,130.0
7642,E3,1460.0,0.5,95,130.0
7643,E6,1460.25,0.25,95,130.0
7644,E6,1460.5,1.5,95,130.0
7645,A2,1460.5,0.5,95,130.0
7646,C#4,1460.5,1.0,95,130.0
7647,A1,1460.5,0.5,95,130.0
7648,A4,1461.0,0.5,95,130.0
7649,A2,1461.5,0.5,95,130.0
7650,A2,1461.5,0.5,95,130.0
7651,A1,1461.5,0.5,95,130.0
7652,E6,1462.0,0.5,95,130.0
7653,G4,1462.0,0.5,95,130.0
7654,E2,1462.0,0.5,95,130.0
7655,E6,1462.5,2.0,95,130.0
7656,A2,1462.5,0.5,95,130.0
7657,G3,1462.5,0.5,95,130.0
7658,A2,1462.5,1.0,95,130.0
7659,B-4,1463.0,0.5,95,130.0
7660,A3,1463.0,0.5,95,130.0
7661,A2,1463.5,0.5,95,130.0
7662,A2,1463.5,0.5,95,130.0
7663,C#5,1464.0,1.0,95,130.0
7664,A3,1464.0,0.5,95,130.0
7665,A1,1464.0,0.5,95,130.0
7666,E6,1464.5,4.0,95,130.0
7667,A3,1464.5,0.5,95,130.0
7668,A4,1465.0,0.5,95,130.0
7669,A2,1465.0,0.5,95,130.0
7670,A1,1465.0,0.5,95,130.0
7671,A2,1465.5,0.5,95,130.0
7672,B-2,1465.5,0.5,95,130.0
7673,G4,1466.0,0.5,95,130.0
7674,C#3,1466.0,0.5,95,130.0
7675,G1,1466.0,0.5,95,130.0
7676,A4,1466.5,0.5,95,130.0
7677,D3,1466.5,0.5,95,130.0
7678,A2,1466.5,1.0,95,130.0
7679,A2,1467.0,0.5,95,130.0
7680,F3,1467.0,0.5,95,130.0
7681,C#5,1467.5,0.5,95,130.0
7682,E3,1467.5,0.125,95,130.0
7683,C#2,1467.5,0.25,95,130.0
7684,F3,1467.625,0.125,70,130.0
7685,E3,1467.75,0.25,70,130.0
7686,D2,1467.75,0.25,95,130.0
7687,C#5,1468.0,0.5,95,130.0
7688,D3,1468.0,0.5,95,130.0
7689,E2,1468.0,0.25,95,130.0
7690,C#6,1468.5,167/1000,95,130.0
7691,A2,1468.5,1.0,95,130.0
7692,C#4,1468.5,1.0,95,130.0
7693,A1,1468.5,0.5,95,130.0
7694,D6,1468.667,167/1000,95,130.0
7695,C#6,1468.833,167/1000,95,130.0
7696,B-5,1469.0,167/1000,95,130.0
7697,C#6,1469.167,0.75,95,130.0
7698,G4,1469.5,0.5,95,130.0
7699,A2,1469.5,0.5,95,130.0
7700,A1,1469.5,0.5,95,130.0
7701,C#6,1469.917,167/1000,95,130.0
7702,A4,1470.0,0.5,95,130.0
7703,E2,1470.0,0.5,95,130.0
7704,D6,1470.083,167/1000,95,130.0
7705,C#6,1470.25,167/1000,95,130.0
7706,B-5,1470.417,167/1000,95,130.0
7707,A2,1470.5,0.5,95,130.0
7708,G3,1470.5,0.5,95,130.0
7709,A2,1470.5,1.0,95,130.0
7710,C#6,1470.583,0.75,95,130.0
7711,C#4,1471.0,27/200,95,130.0
7712,A3,1471.0,0.5,95,130.0
7713,D4,1471.25,27/200,95,130.0
7714,C#6,1471.333,167/1000,95,130.0
7715,D6,1471.5,167/1000,95,130.0
7716,E4,1471.5,0.5,95,130.0
7717,A2,1471.5,0.5,95,130.0
7718,C#6,1471.667,167/1000,95,130.0
7719,B-5,1471.833,167/1000,95,130.0
7720,C#6,1472.0,0.5,95,130.0
7721,C#5,1472.0,1.0,95,130.0
7722,C#4,1472.0,0.5,95,130.0
7723,A1,1472.0,0.5,95,130.0
7724,C#6,1472.5,0.25,95,130.0
7725,C#4,1472.5,0.5,95,130.0
7726,A5,1472.75,167/1000,95,130.0
7727,B-5,1472.917,167/1000,95,130.0
7728,A4,1473.0,0.5,95,130.0
7729,A2,1473.0,1.0,95,130.0
7730,A1,1473.0,0.5,95,130.0
7731,A5,1473.083,167/1000,95,130.0
7732,G5,1473.25,167/1000,95,130.0
7733,A5,1473.417,0.75,95,130.0
7734,A2,1473.5,0.5,95,130.0
7735,B-1,1473.5,0.5,95,130.0
7736,G4,1474.0,0.5,95,130.0
7737,G3,1474.0,0.5,95,130.0
7738,C#2,1474.0,0.5,95,130.0
7739,A5,1474.167,167/1000,95,130.0
7740,B-5,1474.333,167/1000,95,130.0
7741,A5,1474.5,167/1000,95,130.0
7742,A4,1474.5,0.5,95,130.0
7743,A3,1474.5,0.5,95,130.0
7744,D2,1474.5,0.5,95,130.0
7745,G5,1474.667,167/1000,95,130.0
7746,A5,1474.833,0.75,95,130.0
7747,A2,1475.0,0.5,95,130.0
7748,A2,1475.0,0.5,95,130.0
7749,F2,1475.0,0.5,95,130.0
7750,A4,1475.5,0.5,95,130.0
7751,A3,1475.5,0.5,95,130.0
7752,E2,1475.5,0.125,95,130.0
7753,B-4,1475.583,0.125,95,130.0
7754,F2,1475.625,0.125,70,130.0
7755,A4,1475.708,0.125,95,130.0
7756,E2,1475.75,0.25,70,130.0
7757,G4,1475.833,0.125,95,130.0
7758,E4,1475.958,0.125,95,130.0
7759,A4,1476.0,0.5,95,130.0
7760,A2,1476.0,0.5,95,130.0
7761,D2,1476.0,0.5,95,130.0
7762,F4,1476.083,0.125,95,130.0
7763,G4,1476.208,73/250,95,130.0
7764,A4,1476.5,0.125,95,130.0
7765,A3,1476.5,0.5,95,130.0
7766,C#4,1476.5,1.0,95,130.0
7767,A1,1476.5,0.5,95,130.0
7768,G4,1476.625,0.125,95,130.0
7769,F4,1476.75,0.125,95,130.0
7770,E4,1476.875,0.125,95,130.0
7771,F4,1477.0,0.125,95,130.0
7772,C#4,1477.0,0.5,95,130.0
7773,G4,1477.125,0.125,95,130.0
7774,A4,1477.25,0.125,95,130.0
7775,G4,1477.375,0.125,95,130.0
7776,A4,1477.5,0.125,95,130.0
7777,D4,1477.5,0.5,95,130.0
7778,A2,1477.5,0.5,95,130.0
7779,A1,1477.5,0.5,95,130.0
7780,G4,1477.625,0.125,95,130.0
7781,F4,1477.75,0.125,95,130.0
7782,E4,1477.875,0.125,95,130.0
7783,F4,1478.0,0.125,95,130.0
7784,E4,1478.0,0.5,95,130.0
7785,E2,1478.0,0.5,95,130.0
7786,A4,1478.125,0.125,95,130.0
7787,G4,1478.25,0.125,95,130.0
7788,F4,1478.375,0.125,95,130.0
7789,E4,1478.5,0.125,95,130.0
7790,F4,1478.5,0.5,95,130.0
7791,G3,1478.5,0.5,95,130.0
7792,A2,1478.5,1.0,95,130.0
7793,D4,1478.625,0.125,95,130.0
7794,C#4,1478.75,0.125,95,130.0
7795,D4,1478.875,0.125,95,130.0
7796,E4,1479.0,0.125,95,130.0
7797,E4,1479.0,0.125,95,130.0
7798,A3,1479.0,0.5,95,130.0
7799,F4,1479.125,0.125,95,130.0
7800,F4,1479.125,0.125,70,130.0
7801,G4,1479.25,0.125,95,130.0
7802,E4,1479.25,0.25,70,130.0
7803,F4,1479.375,0.125,95,130.0
7804,E4,1479.5,0.125,95,130.0
7805,D4,1479.5,0.5,95,130.0
7806,A2,1479.5,0.5,95,130.0
7807,D4,1479.625,0.125,95,130.0
7808,C#4,1479.75,0.125,95,130.0
7809,D4,1479.875,0.125,95,130.0
7810,E4,1480.0,0.125,95,130.0
7811,C#5,1480.0,1.0,95,130.0
7812,A3,1480.0,0.5,95,130.0
7813,A1,1480.0,0.5,95,130.0
7814,F4,1480.125,0.125,95,130.0
7815,E4,1480.25,0.125,95,130.0
7816,D4,1480.375,0.125,95,130.0
7817,C#4,1480.5,0.125,95,130.0
7818,B-3,1480.625,0.125,95,130.0
7819,A3,1480.75,0.125,95,130.0
7820,B-3,1480.875,0.125,95,130.0
7821,C4,1481.0,0.125,95,130.0
7822,A4,1481.0,0.5,95,130.0
7823,A1,1481.0,0.5,95,130.0
7824,D4,1481.125,0.125,95,130.0
7825,E4,1481.25,0.125,95,130.0
7826,D4,1481.375,0.125,95,130.0
7827,D4,1481.5,0.125,95,130.0
7828,A2,1481.5,0.5,95,130.0
7829,A3,1481.5,0.5,95,130.0
7830,B-3,1481.625,0.125,95,130.0
7831,A3,1481.75,0.125,95,130.0
7832,B-3,1481.875,0.125,95,130.0
7833,A3,1482.0,0.125,95,130.0
7834,G4,1482.0,0.5,95,130.0
7835,G1,1482.0,0.5,95,130.0
7836,G3,1482.125,0.125,95,130.0
7837,F3,1482.25,0.125,95,130.0
7838,E3,1482.375,0.125,95,130.0
7839,D3,1482.5,0.125,95,130.0
7840,A4,1482.5,0.5,95,130.0
7841,G3,1482.5,0.5,95,130.0
7842,A2,1482.5,1.0,95,130.0
7843,C#3,1482.625,0.125,95,130.0
7844,A2,1482.75,0.125,95,130.0
7845,C#3,1482.875,0.125,95,130.0
7846,D3,1483.0,0.125,95,130.0
7847,A2,1483.0,0.5,95,130.0
7848,E3,1483.125,0.125,95,130.0
7849,F3,1483.25,0.125,95,130.0
7850,G3,1483.375,0.125,95,130.0
7851,F3,1483.5,0.125,95,130.0
7852,C#5,1483.5,0.5,95,130.0
7853,B-3,1483.5,0.5,95,130.0
7854,C#2,1483.5,0.25,95,130.0
7855,E-3,1483.625,0.125,95,130.0
7856,D3,1483.75,0.125,95,130.0
7857,D2,1483.75,0.25,95,130.0
7858,C#3,1483.875,0.125,95,130.0
7859,B-2,1484.0,0.125,95,130.0
7860,C#5,1484.0,0.5,95,130.0
7861,E2,1484.0,0.25,95,130.0
7862,A2,1484.125,0.125,95,130.0
7863,G2,1484.25,0.125,95,130.0
7864,A2,1484.375,0.125,95,130.0
7865,F5,1484.5,0.25,95,130.0
7866,A2,1484.5,1.0,95,130.0
7867,C#4,1484.5,1.0,95,130.0
7868,A1,1484.5,0.5,95,130.0
7869,E5,1484.75,0.25,95,130.0
7870,D5,1485.0,0.25,95,130.0
7871,E4,1485.25,0.25,95,130.0
7872,C#5,1485.5,0.25,95,130.0
7873,G4,1485.5,0.5,95,130.0
7874,A2,1485.5,0.5,95,130.0
7875,A1,1485.5,0.5,95,130.0
7876,E4,1485.75,0.25,95,130.0
7877,E5,1486.0,0.25,95,130.0
7878,A4,1486.0,0.5,95,130.0
7879,E2,1486.0,0.5,95,130.0
7880,D5,1486.25,0.25,95,130.0
7881,C#5,1486.5,0.25,95,130.0
7882,A2,1486.5,0.5,95,130.0
7883,G3,1486.5,0.5,95,130.0
7884,A2,1486.5,1.0,95,130.0
7885,E4,1486.75,0.25,95,130.0
7886,B-4,1487.0,0.25,95,130.0
7887,A4,1487.0,0.5,95,130.0
7888,A3,1487.0,0.5,95,130.0
7889,E4,1487.25,0.25,95,130.0
7890,D5,1487.5,0.25,95,130.0
7891,A2,1487.5,0.5,95,130.0
7892,A2,1487.5,0.5,95,130.0
7893,C#5,1487.75,0.25,95,130.0
7894,B-4,1488.0,0.25,95,130.0
7895,C#5,1488.0,1.0,95,130.0
7896,C#4,1488.0,0.5,95,130.0
7897,A1,1488.0,0.5,95,130.0
7898,E4,1488.25,0.25,95,130.0
7899,F5,1488.5,0.25,95,130.0
7900,C#4,1488.5,0.5,95,130.0
7901,E5,1488.75,0.25,95,130.0
7902,D5,1489.0,0.25,95,130.0
7903,A4,1489.0,0.5,95,130.0
7904,A2,1489.0,1.0,95,130.0
7905,E4,1489.25,0.25,95,130.0
7906,C#5,1489.5,0.25,95,130.0
7907,A2,1489.5,0.5,95,130.0
7908,A1,1489.5,0.5,95,130.0
7909,E4,1489.75,0.25,95,130.0
7910,G5,1490.0,0.25,95,130.0
7911,G4,1490.0,0.5,95,130.0
7912,G3,1490.0,0.5,95,130.0
7913,F5,1490.25,0.25,95,130.0
7914,E5,1490.5,0.25,95,130.0
7915,A4,1490.5,0.5,95,130.0
7916,A3,1490.5,0.5,95,130.0
7917,G1,1490.5,0.5,95,130.0
7918,E4,1490.75,0.25,95,130.0
7919,A5,1491.0,0.25,95,130.0
7920,A2,1491.0,0.5,95,130.0
7921,A2,1491.0,0.5,95,130.0
7922,E4,1491.25,0.25,95,130.0
7923,B-5,1491.5,0.25,95,130.0
7924,A4,1491.5,0.5,95,130.0
7925,A3,1491.5,0.5,95,130.0
7926,B-1,1491.5,0.5,95,130.0
7927,A5,1491.75,0.25,95,130.0
7928,G5,1492.0,0.25,95,130.0
7929,A4,1492.0,0.5,95,130.0
7930,A2,1492.0,0.5,95,130.0
7931,E4,1492.25,0.25,95,130.0
7932,F5,1492.5,0.25,95,130.0
7933,A2,1492.5,0.5,95,130.0
7934,C#4,1492.5,1.0,95,130.0
7935,A1,1492.5,0.5,95,130.0
7936,E5,1492.75,0.25,95,130.0
7937,D5,1493.0,0.25,95,130.0
7938,A4,1493.0,0.5,95,130.0
7939,E4,1493.25,0.25,95,130.0
7940,C#5,1493.5,0.25,95,130.0
7941,A2,1493.5,0.5,95,130.0
7942,A2,1493.5,0.5,95,130.0
7943,A1,1493.5,0.5,95,130.0
7944,E4,1493.75,0.25,95,130.0
7945,E5,1494.0,0.25,95,130.0
7946,G4,1494.0,0.5,95,130.0
7947,E2,1494.0,0.5,95,130.0
7948,D5,1494.25,0.25,95,130.0
7949,C#5,1494.5,0.25,95,130.0
7950,A2,1494.5,0.5,95,130.0
7951,G3,1494.5,0.5,95,130.0
7952,A2,1494.5,1.0,95,130.0
7953,E4,1494.75,0.25,95,130.0
7954,B-4,1495.0,0.25,95,130.0
7955,B-4,1495.0,0.5,95,130.0
7956,A3,1495.0,0.5,95,130.0
7957,E4,1495.25,0.25,95,130.0
7958,D5,1495.5,0.25,95,130.0
7959,A2,1495.5,0.5,95,130.0
7960,A2,1495.5,0.5,95,130.0
7961,C#5,1495.75,0.25,95,130.0
7962,B-4,1496.0,0.25,95,130.0
7963,C#5,1496.0,1.0,95,130.0
7964,A3,1496.0,0.5,95,130.0
7965,A1,1496.0,0.5,95,130.0
7966,E4,1496.25,0.25,95,130.0
7967,E5,1496.5,0.25,95,130.0
7968,D5,1496.75,0.25,95,130.0
7969,C#5,1497.0,0.25,95,130.0
7970,A4,1497.0,0.5,95,130.0
7971,A1,1497.0,0.5,95,130.0
7972,E4,1497.25,0.25,95,130.0
7973,F5,1497.5,0.25,95,130.0
7974,A2,1497.5,0.5,95,130.0
7975,A3,1497.5,0.5,95,130.0
7976,E5,1497.75,0.25,95,130.0
7977,D5,1498.0,0.25,95,130.0
7978,G4,1498.0,0.5,95,130.0
7979,G1,1498.0,0.5,95,130.0
7980,E4,1498.25,0.25,95,130.0
7981,G5,1498.5,0.25,95,130.0
7982,A4,1498.5,0.5,95,130.0
7983,G3,1498.5,0.5,95,130.0
7984,A2,1498.5,1.0,95,130.0
7985,F5,1498.75,0.25,95,130.0
7986,E5,1499.0,0.25,95,130.0
7987,A2,1499.0,0.5,95,130.0
7988,E4,1499.25,0.25,95,130.0
7989,A5,1499.5,0.25,95,130.0
7990,C#5,1499.5,0.5,95,130.0
7991,B-3,1499.5,0.5,95,130.0
7992,C#2,1499.5,0.25,95,130.0
7993,G5,1499.75,0.25,95,130.0
7994,D2,1499.75,0.25,95,130.0
7995,F5,1500.0,0.25,95,130.0
7996,C#5,1500.0,0.5,95,130.0
7997,E2,1500.0,0.25,95,130.0
7998,E4,1500.25,0.25,95,130.0
7999,F5,1500.5,0.25,95,130.0
8000,A2,1500.5,1.0,95,130.0
8001,C#4,1500.5,1.0,95,130.0
8002,A1,1500.5,0.5,95,130.0
8003,E5,1500.75,0.25,95,130.0
8004,D5,1501.0,0.25,95,130.0
8005,E4,1501.25,0.25,95,130.0
8006,C#5,1501.5,0.25,95,130.0
8007,G4,1501.5,0.5,95,130.0
8008,A2,1501.5,0.5,95,130.0
8009,A1,1501.5,0.5,95,130.0
8010,E4,1501.75,0.25,95,130.0
8011,E5,1502.0,0.25,95,130.0
8012,A4,1502.0,0.5,95,130.0
8013,E2,1502.0,0.5,95,130.0
8014,D5,1502.25,0.25,95,130.0
8015,C#5,1502.5,0.25,95,130.0
8016,A2,1502.5,0.5,95,130.0
8017,G3,1502.5,0.5,95,130.0
8018,A2,1502.5,1.0,95,130.0
8019,E4,1502.75,0.25,95,130.0
8020,B-4,1503.0,0.25,95,130.0
8021,A4,1503.0,0.5,95,130.0
8022,A3,1503.0,0.5,95,130.0
8023,E4,1503.25,0.25,95,130.0
8024,D5,1503.5,0.25,95,130.0
8025,A2,1503.5,0.5,95,130.0
8026,A2,1503.5,0.5,95,130.0
8027,C#5,1503.75,0.25,95,130.0
8028,B-4,1504.0,0.25,95,130.0
8029,C#5,1504.0,1.0,95,130.0
8030,C#4,1504.0,0.5,95,130.0
8031,A1,1504.0,0.5,95,130.0
8032,E4,1504.25,0.25,95,130.0
8033,F5,1504.5,0.25,95,130.0
8034,C#4,1504.5,0.5,95,130.0
8035,E5,1504.75,0.25,95,130.0
8036,D5,1505.0,0.25,95,130.0
8037,A4,1505.0,0.5,95,130.0
8038,A2,1505.0,1.0,95,130.0
8039,E4,1505.25,0.25,95,130.0
8040,C#5,1505.5,0.25,95,130.0
8041,A2,1505.5,0.5,95,130.0
8042,A1,1505.5,0.5,95,130.0
8043,E4,1505.75,0.25,95,130.0
8044,G5,1506.0,0.25,95,130.0
8045,G4,1506.0,0.5,95,130.0
8046,G3,1506.0,0.5,95,130.0
8047,F5,1506.25,0.25,95,130.0
8048,E5,1506.5,0.25,95,130.0
8049,A4,1506.5,0.5,95,130.0
8050,A3,1506.5,0.5,95,130.0
8051,G1,1506.5,0.5,95,130.0
8052,E4,1506.75,0.25,95,130.0
8053,A5,1507.0,0.25,95,130.0
8054,A2,1507.0,0.5,95,130.0
8055,A2,1507.0,0.5,95,130.0
8056,E4,1507.25,0.25,95,130.0
8057,B-5,1507.5,0.25,95,130.0
8058,A4,1507.5,0.5,95,130.0
8059,C#3,1507.5,0.25,95,130.0
8060,B-1,1507.5,0.5,95,130.0
8061,A5,1507.75,0.25,95,130.0
8062,D3,1507.75,0.25,95,130.0
8063,G5,1508.0,0.25,95,130.0
8064,A4,1508.0,0.5,95,130.0
8065,E3,1508.0,0.5,95,130.0
8066,E4,1508.25,0.25,95,130.0
8067,F5,1508.5,0.25,95,130.0
8068,A2,1508.5,0.5,95,130.0
8069,C#4,1508.5,1.0,95,130.0
8070,A1,1508.5,0.5,95,130.0
8071,E5,1508.75,0.25,95,130.0
8072,D5,1509.0,0.25,95,130.0
8073,A4,1509.0,0.5,95,130.0
8074,E4,1509.25,0.25,95,130.0
8075,C#5,1509.5,0.25,95,130.0
8076,A2,1509.5,0.5,95,130.0
8077,A2,1509.5,0.5,95,130.0
8078,A1,1509.5,0.5,95,130.0
8079,E4,1509.75,0.25,95,130.0
8080,E5,1510.0,0.25,95,130.0
8081,G4,1510.0,0.5,95,130.0
8082,E2,1510.0,0.5,95,130.0
8083,D5,1510.25,0.25,95,130.0
8084,C#5,1510.5,0.25,95,130.0
8085,A2,1510.5,0.5,95,130.0
8086,G3,1510.5,0.5,95,130.0
8087,A2,1510.5,1.0,95,130.0
8088,E4,1510.75,0.25,95,130.0
8089,B-4,1511.0,0.25,95,130.0
8090,B-4,1511.0,0.5,95,130.0
8091,A3,1511.0,0.5,95,130.0
8092,E4,1511.25,0.25,95,130.0
8093,D5,1511.5,0.25,95,130.0
8094,A2,1511.5,0.5,95,130.0
8095,A2,1511.5,0.5,95,130.0
8096,C#5,1511.75,0.25,95,130.0
8097,B-4,1512.0,0.25,95,130.0
8098,C#5,1512.0,1.0,95,130.0
8099,A3,1512.0,0.5,95,130.0
8100,A1,1512.0,0.5,95,130.0
8101,E4,1512.25,0.25,95,130.0
8102,E5,1512.5,0.25,95,130.0
8103,A3,1512.5,0.5,95,130.0
8104,D5,1512.75,0.25,95,130.0
8105,C#5,1513.0,0.25,95,130.0
8106,A4,1513.0,0.5,95,130.0
8107,A2,1513.0,0.5,95,130.0
8108,A1,1513.0,0.5,95,130.0
8109,E4,1513.25,0.25,95,130.0
8110,F5,1513.5,0.25,95,130.0
8111,A2,1513.5,0.5,95,130.0
8112,B-2,1513.5,0.5,95,130.0
8113,E5,1513.75,0.25,95,130.0
8114,D5,1514.0,0.25,95,130.0
8115,G4,1514.0,0.5,95,130.0
8116,C#3,1514.0,0.5,95,130.0
8117,G1,1514.0,0.5,95,130.0
8118,E4,1514.25,0.25,95,130.0
8119,G5,1514.5,0.25,95,130.0
8120,A4,1514.5,0.5,95,130.0
8121,D3,1514.5,0.5,95,130.0
8122,A2,1514.5,1.0,95,130.0
8123,F5,1514.75,0.25,95,130.0
8124,E5,1515.0,0.25,95,130.0
8125,A2,1515.0,0.5,95,130.0
8126,F3,1515.0,0.5,95,130.0
8127,E4,1515.25,0.25,95,130.0
8128,A5,1515.5,0.25,95,130.0
8129,C#5,1515.5,0.5,95,130.0
8130,E3,1515.5,0.125,95,130.0
8131,C#2,1515.5,0.25,95,130.0
8132,F3,1515.625,0.125,70,130.0
8133,G5,1515.75,0.25,95,130.0
8134,E3,1515.75,0.25,70,130.0
8135,D2,1515.75,0.25,95,130.0
8136,F5,1516.0,0.25,95,130.0
8137,C#5,1516.0,0.5,95,130.0
8138,D3,1516.0,0.5,95,130.0
8139,E2,1516.0,0.25,95,130.0
8140,E4,1516.25,0.25,95,130.0
8141,F5,1516.5,0.25,95,130.0
8142,A2,1516.5,1.0,95,130.0
8143,C#4,1516.5,1.0,95,130.0
8144,A1,1516.5,0.5,95,130.0
8145,E5,1516.75,0.25,95,130.0
8146,D5,1517.0,0.25,95,130.0
8147,E4,1517.25,0.25,95,130.0
8148,C#5,1517.5,0.25,95,130.0
8149,G4,1517.5,0.5,95,130.0
8150,A2,1517.5,0.5,95,130.0
8151,A1,1517.5,0.5,95,130.0
8152,E4,1517.75,0.25,95,130.0
8153,E5,1518.0,0.25,95,130.0
8154,A4,1518.0,0.5,95,130.0
8155,E2,1518.0,0.5,95,130.0
8156,D5,1518.25,0.25,95,130.0
8157,C#5,1518.5,0.25,95,130.0
8158,A2,1518.5,0.5,95,130.0
8159,G3,1518.5,0.5,95,130.0
8160,A2,1518.5,1.0,95,130.0
8161,E4,1518.75,0.25,95,130.0
8162,B-4,1519.0,0.25,95,130.0
8163,C#4,1519.0,27/200,95,130.0
8164,A3,1519.0,0.5,95,130.0
8165,E4,1519.25,0.25,95,130.0
8166,D4,1519.25,27/200,95,130.0
8167,D5,1519.5,0.25,95,130.0
8168,E4,1519.5,0.5,95,130.0
8169,A2,1519.5,0.5,95,130.0
8170,C#5,1519.75,0.25,95,130.0
8171,B-4,1520.0,0.25,95,130.0
8172,C#5,1520.0,1.0,95,130.0
8173,C#4,1520.0,0.5,95,130.0
8174,A1,1520.0,0.5,95,130.0
8175,E4,1520.25,0.25,95,130.0
8176,F5,1520.5,0.25,95,130.0
8177,C#4,1520.5,0.5,95,130.0
8178,E5,1520.75,0.25,95,130.0
8179,D5,1521.0,0.25,95,130.0
8180,A4,1521.0,0.5,95,130.0
8181,A2,1521.0,1.0,95,130.0
8182,A1,1521.0,0.5,95,130.0
8183,E4,1521.25,0.25,95,130.0
8184,C#5,1521.5,0.25,95,130.0
8185,A2,1521.5,0.5,95,130.0
8186,B-1,1521.5,0.5,95,130.0
8187,E4,1521.75,0.25,95,130.0
8188,G5,1522.0,0.25,95,130.0
8189,G4,1522.0,0.5,95,130.0
8190,G3,1522.0,0.5,95,130.0
8191,C#2,1522.0,0.5,95,130.0
8192,F5,1522.25,0.25,95,130.0
8193,E5,1522.5,0.25,95,130.0
8194,A4,1522.5,0.5,95,130.0
8195,A3,1522.5,0.5,95,130.0
8196,D2,1522.5,0.5,95,130.0
8197,E4,1522.75,0.25,95,130.0
8198,A5,1523.0,0.25,95,130.0
8199,A2,1523.0,0.5,95,130.0
8200,A2,1523.0,0.5,95,130.0
8201,F2,1523.0,0.5,95,130.0
8202,E4,1523.25,0.25,95,130.0
8203,B-5,1523.5,0.25,95,130.0
8204,A4,1523.5,0.5,95,130.0
8205,A3,1523.5,0.5,95,130.0
8206,E2,1523.5,0.125,95,130.0
8207,F2,1523.625,0.125,70,130.0
8208,A5,1523.75,0.25,95,130.0
8209,E2,1523.75,0.25,70,130.0
8210,G5,1524.0,0.25,95,130.0
8211,A4,1524.0,0.5,95,130.0
8212,A2,1524.0,0.5,95,130.0
8213,D2,1524.0,0.5,95,130.0
8214,E4,1524.25,0.25,95,130.0
8215,F5,1524.5,0.25,95,130.0
8216,A3,1524.5,0.5,95,130.0
8217,C#4,1524.5,1.0,95,130.0
8218,A1,1524.5,0.5,95,130.0
8219,E5,1524.75,0.25,95,130.0
8220,D5,1525.0,0.25,95,130.0
8221,C#4,1525.0,0.5,95,130.0
8222,E4,1525.25,0.25,95,130.0
8223,C#5,1525.5,0.25,95,130.0
8224,D4,1525.5,0.5,95,130.0
8225,A2,1525.5,0.5,95,130.0
8226,A1,1525.5,0.5,95,130.0
8227,E4,1525.75,0.25,95,130.0
8228,E5,1526.0,0.25,95,130.0
8229,E4,1526.0,0.5,95,130.0
8230,E2,1526.0,0.5,95,130.0
8231,D5,1526.25,0.25,95,130.0
8232,C#5,1526.5,0.25,95,130.0
8233,F4,1526.5,0.5,95,130.0
8234,G3,1526.5,0.5,95,130.0
8235,A2,1526.5,1.0,95,130.0
8236,E4,1526.75,0.25,95,130.0
8237,B-4,1527.0,0.25,95,130.0
8238,E4,1527.0,0.125,95,130.0
8239,A3,1527.0,0.5,95,130.0
8240,F4,1527.125,0.125,70,130.0
8241,E4,1527.25,0.25,95,130.0
8242,E4,1527.25,0.25,70,130.0
8243,D5,1527.5,0.25,95,130.0
8244,D4,1527.5,0.5,95,130.0
8245,A2,1527.5,0.5,95,130.0
8246,C#5,1527.75,0.25,95,130.0
8247,B-4,1528.0,0.25,95,130.0
8248,C#5,1528.0,1.0,95,130.0
8249,A3,1528.0,0.5,95,130.0
8250,A1,1528.0,0.5,95,130.0
8251,E4,1528.25,0.25,95,130.0
8252,E5,1528.5,0.25,95,130.0
8253,D5,1528.75,0.25,95,130.0
8254,C#5,1529.0,0.25,95,130.0
8255,A4,1529.0,0.5,95,130.0
8256,A1,1529.0,0.5,95,130.0
8257,E4,1529.25,0.25,95,130.0
8258,F5,1529.5,0.25,95,130.0
8259,A2,1529.5,0.5,95,130.0
8260,A3,1529.5,0.5,95,130.0
8261,E5,1529.75,0.25,95,130.0
8262,D5,1530.0,0.25,95,130.0
8263,G4,1530.0,0.5,95,130.0
8264,G1,1530.0,0.5,95,130.0
8265,E4,1530.25,0.25,95,130.0
8266,G5,1530.5,0.25,95,130.0
8267,A4,1530.5,0.5,95,130.0
8268,G3,1530.5,0.5,95,130.0
8269,A2,1530.5,1.0,95,130.0
8270,F5,1530.75,0.25,95,130.0
8271,E5,1531.0,0.25,95,130.0
8272,A2,1531.0,0.5,95,130.0
8273,E4,1531.25,0.25,95,130.0
8274,A5,1531.5,0.25,95,130.0
8275,C#5,1531.5,0.5,95,130.0
8276,B-3,1531.5,0.5,95,130.0
8277,C#2,1531.5,0.25,95,130.0
8278,G5,1531.75,0.25,95,130.0
8279,D2,1531.75,0.25,95,130.0
8280,F5,1532.0,0.25,95,130.0
8281,C#5,1532.0,0.5,95,130.0
8282,E2,1532.0,0.25,95,130.0
8283,E4,1532.25,0.25,95,130.0
8284,F5,1532.5,0.25,95,130.0
8285,A2,1532.5,1.0,95,130.0
8286,C#4,1532.5,1.0,95,130.0
8287,A1,1532.5,0.5,95,130.0
8288,E5,1532.75,0.25,95,130.0
8289,D5,1533.0,0.25,95,130.0
8290,E4,1533.25,0.25,95,130.0
8291,C#5,1533.5,0.25,95,130.0
8292,G4,1533.5,0.5,95,130.0
8293,A2,1533.5,0.5,95,130.0
8294,A1,1533.5,0.5,95,130.0
8295,E4,1533.75,0.25,95,130.0
8296,E5,1534.0,0.25,95,130.0
8297,A4,1534.0,0.5,95,130.0
8298,E2,1534.0,0.5,95,130.0
8299,D5,1534.25,0.25,95,130.0
8300,C#5,1534.5,0.25,95,130.0
8301,A2,1534.5,0.5,95,130.0
8302,G3,1534.5,0.5,95,130.0
8303,A2,1534.5,1.0,95,130.0
8304,E4,1534.75,0.25,95,130.0
8305,B-4,1535.0,0.25,95,130.0
8306,A4,1535.0,0.5,95,130.0
8307,A3,1535.0,0.5,95,130.0
8308,E4,1535.25,0.25,95,130.0
8309,D5,1535.5,0.25,95,130.0
8310,A2,1535.5,0.5,95,130.0
8311,A2,1535.5,0.5,95,130.0
8312,C#5,1535.75,0.25,95,130.0
8313,B-4,1536.0,0.25,95,130.0
8314,C#5,1536.0,1.0,95,130.0
8315,C#4,1536.0,0.5,95,130.0
8316,A1,1536.0,0.5,95,130.0
8317,E4,1536.25,0.25,95,130.0
8318,F5,1536.5,0.25,95,130.0
8319,C#4,1536.5,0.5,95,130.0
8320,E5,1536.75,0.25,95,130.0
8321,D5,1537.0,0.25,95,130.0
8322,A4,1537.0,0.5,95,130.0
8323,A2,1537.0,1.0,95,130.0
8324,E4,1537.25,0.25,95,130.0
8325,C#5,1537.5,0.25,95,130.0
8326,A2,1537.5,0.5,95,130.0
8327,A1,1537.5,0.5,95,130.0
8328,E4,1537.75,0.25,95,130.0
8329,G5,1538.0,0.25,95,130.0
8330,G4,1538.0,0.5,95,130.0
8331,G3,1538.0,0.5,95,130.0
8332,F5,1538.25,0.25,95,130.0
8333,E5,1538.5,0.25,95,130.0
8334,A4,1538.5,0.5,95,130.0
8335,A3,1538.5,0.5,95,130.0
8336,G1,1538.5,0.5,95,130.0
8337,E4,1538.75,0.25,95,130.0
8338,A5,1539.0,0.25,95,130.0
8339,A2,1539.0,0.5,95,130.0
8340,A2,1539.0,0.5,95,130.0
8341,E4,1539.25,0.25,95,130.0
8342,B-5,1539.5,0.25,95,130.0
8343,A4,1539.5,0.5,95,130.0
8344,C#3,1539.5,0.25,95,130.0
8345,B-1,1539.5,0.5,95,130.0
8346,A5,1539.75,0.25,95,130.0
8347,D3,1539.75,0.25,95,130.0
8348,G5,1540.0,0.25,95,130.0
8349,A4,1540.0,0.5,95,130.0
8350,E3,1540.0,0.5,95,130.0
8351,E4,1540.25,0.25,95,130.0
8352,F5,1540.5,0.25,95,130.0
8353,A2,1540.5,0.5,95,130.0
8354,C#4,1540.5,1.0,95,130.0
8355,A1,1540.5,0.5,95,130.0
8356,E5,1540.75,0.25,95,130.0
8357,D5,1541.0,0.25,95,130.0
8358,A4,1541.0,0.5,95,130.0
8359,E4,1541.25,0.25,95,130.0
8360,C#5,1541.5,0.25,95,130.0
8361,A2,1541.5,0.5,95,130.0
8362,A2,1541.5,0.5,95,130.0
8363,A1,1541.5,0.5,95,130.0
8364,E4,1541.75,0.25,95,130.0
8365,E5,1542.0,0.25,95,130.0
8366,G4,1542.0,0.5,95,130.0
8367,E2,1542.0,0.5,95,130.0
8368,D5,1542.25,0.25,95,130.0
8369,C#5,1542.5,0.25,95,130.0
8370,A2,1542.5,0.5,95,130.0
8371,G3,1542.5,0.5,95,130.0
8372,A2,1542.5,1.0,95,130.0
8373,E4,1542.75,0.25,95,130.0
8374,B-4,1543.0,0.25,95,130.0
8375,B-4,1543.0,0.5,95,130.0
8376,A3,1543.0,0.5,95,130.0
8377,E4,1543.25,0.25,95,130.0
8378,D5,1543.5,0.25,95,130.0
8379,A2,1543.5,0.5,95,130.0
8380,A2,1543.5,0.5,95,130.0
8381,C#5,1543.75,0.25,95,130.0
8382,B-4,1544.0,0.25,95,130.0
8383,C#5,1544.0,1.0,95,130.0
8384,A3,1544.0,0.5,95,130.0
8385,A1,1544.0,0.5,95,130.0
8386,E4,1544.25,0.25,95,130.0
8387,E5,1544.5,0.25,95,130.0
8388,A3,1544.5,0.5,95,130.0
8389,D5,1544.75,0.25,95,130.0
8390,C#5,1545.0,0.25,95,130.0
8391,A4,1545.0,0.5,95,130.0
8392,A2,1545.0,0.5,95,130.0
8393,A1,1545.0,0.5,95,130.0
8394,E4,1545.25,0.25,95,130.0
8395,F5,1545.5,0.25,95,130.0
8396,A2,1545.5,0.5,95,130.0
8397,B-2,1545.5,0.5,95,130.0
8398,E5,1545.75,0.25,95,130.0
8399,D5,1546.0,0.25,95,130.0
8400,G4,1546.0,0.5,95,130.0
8401,C#3,1546.0,0.5,95,130.0
8402,G1,1546.0,0.5,95,130.0
8403,E4,1546.25,0.25,95,130.0
8404,G5,1546.5,0.25,95,130.0
8405,A4,1546.5,0.5,95,130.0
8406,D3,1546.5,0.5,95,130.0
8407,A2,1546.5,1.0,95,130.0
8408,F5,1546.75,0.25,95,130.0
8409,E5,1547.0,0.25,95,130.0
8410,A2,1547.0,0.5,95,130.0
8411,F3,1547.0,0.5,95,130.0
8412,E4,1547.25,0.25,95,130.0
8413,A5,1547.5,0.25,95,130.0
8414,C#5,1547.5,0.5,95,130.0
8415,E3,1547.5,0.125,95,130.0
8416,C#2,1547.5,0.25,95,130.0
8417,F3,1547.625,0.125,70,130.0
8418,G5,1547.75,0.25,95,130.0
8419,E3,1547.75,0.25,70,130.0
8420,D2,1547.75,0.25,95,130.0
8421,F5,1548.0,0.25,95,130.0
8422,C#5,1548.0,0.5,95,130.0
8423,D3,1548.0,0.5,95,130.0
8424,E2,1548.0,0.25,95,130.0
8425,E4,1548.25,0.25,95,130.0
8426,F5,1548.5,0.25,95,130.0
8427,A2,1548.5,1.0,95,130.0
8428,A1,1548.5,0.5,95,130.0
8429,E5,1548.75,0.25,95,130.0
8430,D5,1549.0,0.25,95,130.0
8431,E4,1549.25,0.25,95,130.0
8432,C#5,1549.5,0.25,95,130.0
8433,G4,1549.5,0.5,95,130.0
8434,A1,1549.5,0.5,95,130.0
8435,E4,1549.75,0.25,95,130.0
8436,E5,1550.0,0.25,95,130.0
8437,A4,1550.0,0.5,95,130.0
8438,D5,1550.25,0.25,95,130.0
8439,C#5,1550.5,0.25,95,130.0
8440,A2,1550.5,0.5,95,130.0
8441,A2,1550.5,1.0,95,130.0
8442,E4,1550.75,0.25,95,130.0
8443,B-4,1551.0,0.25,95,130.0
8444,C#4,1551.0,27/200,95,130.0
8445,E4,1551.25,0.25,95,130.0
8446,D4,1551.25,27/200,95,130.0
8447,D5,1551.5,0.25,95,130.0
8448,E4,1551.5,0.5,95,130.0
8449,A2,1551.5,0.5,95,130.0
8450,C#5,1551.75,0.25,95,130.0
8451,B-4,1552.0,0.25,95,130.0
8452,C#5,1552.0,1.0,95,130.0
8453,A1,1552.0,0.5,95,130.0
8454,E4,1552.25,0.25,95,130.0
8455,F5,1552.5,0.25,95,130.0
8456,E5,1552.75,0.25,95,130.0
8457,D5,1553.0,0.25,95,130.0
8458,A4,1553.0,0.5,95,130.0
8459,A1,1553.0,0.5,95,130.0
8460,E4,1553.25,0.25,95,130.0
8461,C#5,1553.5,0.25,95,130.0
8462,A2,1553.5,0.5,95,130.0
8463,B-1,1553.5,0.5,95,130.0
8464,E4,1553.75,0.25,95,130.0
8465,G5,1554.0,0.25,95,130.0
8466,G4,1554.0,0.5,95,130.0
8467,C#2,1554.0,0.5,95,130.0
8468,F5,1554.25,0.25,95,130.0
8469,E5,1554.5,0.25,95,130.0
8470,A4,1554.5,0.5,95,130.0
8471,D2,1554.5,0.5,95,130.0
8472,E4,1554.75,0.25,95,130.0
8473,A5,1555.0,0.25,95,130.0
8474,A2,1555.0,0.5,95,130.0
8475,F2,1555.0,0.5,95,130.0
8476,E4,1555.25,0.25,95,130.0
8477,B-5,1555.5,0.25,95,130.0
8478,A4,1555.5,0.5,95,130.0
8479,E2,1555.5,0.125,95,130.0
8480,F2,1555.625,0.125,70,130.0
8481,A5,1555.75,0.25,95,130.0
8482,E2,1555.75,0.25,70,130.0
8483,G5,1556.0,0.25,95,130.0
8484,A4,1556.0,0.5,95,130.0
8485,D2,1556.0,0.5,95,130.0
8486,E4,1556.25,0.25,95,130.0
8487,F5,1556.5,0.25,95,130.0
8488,A3,1556.5,0.5,95,130.0
8489,E5,1556.75,0.25,95,130.0
8490,D5,1557.0,0.25,95,130.0
8491,C#4,1557.0,0.5,95,130.0
8492,E4,1557.25,0.25,95,130.0
8493,C#5,1557.5,0.25,95,130.0
8494,D4,1557.5,0.5,95,130.0
8495,E4,1557.75,0.25,95,130.0
8496,E5,1558.0,0.25,95,130.0
8497,E4,1558.0,0.5,95,130.0
8498,D5,1558.25,0.25,95,130.0
8499,C#5,1558.5,0.25,95,130.0
8500,F4,1558.5,0.5,95,130.0
8501,E4,1558.75,0.25,95,130.0
8502,B-4,1559.0,0.25,95,130.0
8503,E4,1559.0,0.125,95,130.0
8504,F4,1559.125,0.125,70,130.0
8505,E4,1559.25,0.25,95,130.0
8506,E4,1559.25,0.25,70,130.0
8507,D5,1559.5,0.25,95,130.0
8508,D4,1559.5,0.5,95,130.0
8509,C#5,1559.75,0.25,95,130.0
8510,B-4,1560.0,0.25,95,130.0
8511,E4,1560.25,0.25,95,130.0
8512,E5,1560.5,0.25,95,130.0
8513,D5,1560.75,0.25,95,130.0
8514,C#5,1561.0,0.25,95,130.0
8515,E4,1561.25,0.25,95,130.0
8516,F5,1561.5,0.25,95,130.0
8517,E5,1561.75,0.25,95,130.0
8518,D5,1562.0,0.25,95,130.0
8519,E4,1562.25,0.25,95,130.0
8520,G5,1562.5,0.25,95,130.0
8521,F5,1562.75,0.25,95,130.0
8522,E5,1563.0,0.25,95,130.0
8523,E4,1563.25,0.25,95,130.0
8524,A5,1563.5,0.25,95,130.0
8525,G5,1563.75,0.25,95,130.0
8526,F5,1564.0,0.25,95,130.0
8527,E4,1564.25,0.25,95,130.0
