,note_name,start_time,duration,velocity,tempo
0,E2,0.0,0.25,127,86.0
1,E2,0.0,0.25,127,86.0
2,E1,0.0,0.25,127,86.0
3,G2,0.25,0.25,127,86.0
4,G2,0.25,0.25,127,86.0
5,G1,0.25,0.25,127,86.0
6,B2,0.5,0.25,127,86.0
7,B2,0.5,0.25,127,86.0
8,B1,0.5,0.25,127,86.0
9,D3,0.75,0.75,127,86.0
10,D3,0.75,0.75,127,86.0
11,D2,0.75,0.75,127,86.0
12,D3,1.5,0.25,127,86.0
13,D3,1.5,0.25,127,86.0
14,D2,1.5,0.25,127,86.0
15,B2,1.75,0.25,127,86.0
16,B2,1.75,0.25,127,86.0
17,B1,1.75,0.25,127,86.0
18,D3,2.0,0.25,127,86.0
19,D3,2.0,0.25,127,86.0
20,D2,2.0,0.25,127,86.0
21,B2,2.25,0.25,127,86.0
22,B2,2.25,0.25,127,86.0
23,B1,2.25,0.25,127,86.0
24,B3,2.5,0.25,127,86.0
25,B3,2.5,0.25,127,86.0
26,A3,2.5,1.5,127,86.0
27,B2,2.5,0.25,127,86.0
28,A3,2.75,1.25,127,86.0
29,A3,2.75,0.25,127,86.0
30,A2,2.75,1.25,127,86.0
31,A3,3.0,0.75,127,86.0
32,A4,3.75,0.25,127,86.0
33,E2,4.0,0.25,127,86.0
34,E2,4.0,0.25,127,86.0
35,E1,4.0,0.25,127,86.0
36,G2,4.25,0.25,127,86.0
37,G2,4.25,0.25,127,86.0
38,G1,4.25,0.25,127,86.0
39,B2,4.5,0.25,127,86.0
40,B2,4.5,0.25,127,86.0
41,B1,4.5,0.25,127,86.0
42,D3,4.75,0.75,127,86.0
43,D3,4.75,0.75,127,86.0
44,D2,4.75,0.75,127,86.0
45,D3,5.5,0.25,127,86.0
46,D3,5.5,0.25,127,86.0
47,D2,5.5,0.25,127,86.0
48,B2,5.75,0.25,127,86.0
49,B2,5.75,0.25,127,86.0
50,B1,5.75,0.25,127,86.0
51,D3,6.0,0.25,127,86.0
52,D3,6.0,0.25,127,86.0
53,D2,6.0,0.25,127,86.0
54,B2,6.25,0.25,127,86.0
55,B2,6.25,0.25,127,86.0
56,B1,6.25,0.25,127,86.0
57,A3,6.5,1.5,127,86.0
58,B3,6.5,0.25,127,86.0
59,A3,6.5,1.5,127,86.0
60,B2,6.5,0.25,127,86.0
61,A3,6.75,0.25,127,86.0
62,A2,6.75,1.25,127,86.0
63,A3,7.0,0.75,127,86.0
64,A4,7.75,0.25,127,86.0
65,E2,8.0,0.25,127,86.0
66,E2,8.0,0.25,127,86.0
67,E1,8.0,0.25,127,86.0
68,G2,8.25,0.25,127,86.0
69,G2,8.25,0.25,127,86.0
70,G1,8.25,0.25,127,86.0
71,B2,8.5,0.25,127,86.0
72,B2,8.5,0.25,127,86.0
73,B1,8.5,0.25,127,86.0
74,D3,8.75,0.75,127,86.0
75,D3,8.75,0.75,127,86.0
76,D2,8.75,0.75,127,86.0
77,D3,9.5,0.25,127,86.0
78,D3,9.5,0.25,127,86.0
79,D2,9.5,0.25,127,86.0
80,B2,9.75,0.25,127,86.0
81,B2,9.75,0.25,127,86.0
82,B1,9.75,0.25,127,86.0
83,D3,10.0,0.25,127,86.0
84,D3,10.0,0.25,127,86.0
85,D2,10.0,0.25,127,86.0
86,B2,10.25,0.25,127,86.0
87,B2,10.25,0.25,127,86.0
88,B1,10.25,0.25,127,86.0
89,A3,10.5,1.5,127,86.0
90,B3,10.5,0.25,127,86.0
91,A3,10.5,1.5,127,86.0
92,B2,10.5,0.25,127,86.0
93,A3,10.75,0.25,127,86.0
94,A2,10.75,1.25,127,86.0
95,A3,11.0,0.75,127,86.0
96,A4,11.75,0.25,127,86.0
97,E2,12.0,0.25,127,86.0
98,E2,12.0,0.25,127,86.0
99,E1,12.0,0.25,127,86.0
100,G2,12.25,0.25,127,86.0
101,G2,12.25,0.25,127,86.0
102,G1,12.25,0.25,127,86.0
103,B2,12.5,0.25,127,86.0
104,B2,12.5,0.25,127,86.0
105,B1,12.5,0.25,127,86.0
106,D3,12.75,0.75,127,86.0
107,D3,12.75,0.75,127,86.0
108,D2,12.75,0.75,127,86.0
109,D3,13.5,0.25,127,86.0
110,D3,13.5,0.25,127,86.0
111,D2,13.5,0.25,127,86.0
112,B2,13.75,0.25,127,86.0
113,B2,13.75,0.25,127,86.0
114,B1,13.75,0.25,127,86.0
115,D3,14.0,0.25,127,86.0
116,D3,14.0,0.25,127,86.0
117,D2,14.0,0.25,127,86.0
118,B2,14.25,0.25,127,86.0
119,B2,14.25,0.25,127,86.0
120,B1,14.25,0.25,127,86.0
121,A3,14.5,1.5,127,86.0
122,B3,14.5,0.25,127,86.0
123,A3,14.5,1.5,127,86.0
124,B2,14.5,0.25,127,86.0
125,A3,14.75,0.25,127,86.0
126,A2,14.75,1.25,127,86.0
127,A3,15.0,0.75,127,86.0
128,A4,15.75,0.25,127,86.0
129,G1,16.0,0.5,127,86.0
130,D4,16.0,0.5,127,86.0
131,B3,16.0,0.5,127,86.0
132,G3,16.0,0.5,127,86.0
133,D3,16.0,0.5,127,86.0
134,G2,16.0,0.5,127,86.0
135,A1,16.75,0.25,127,86.0
136,E4,16.75,0.25,127,86.0
137,C#4,16.75,0.25,127,86.0
138,A3,16.75,0.25,127,86.0
139,E3,16.75,0.25,127,86.0
140,A2,16.75,0.25,127,86.0
141,E1,17.5,2.5,127,86.0
142,G4,17.5,2.5,127,86.0
143,E4,17.5,2.5,127,86.0
144,B3,17.5,2.5,127,86.0
145,E3,17.5,2.5,127,86.0
146,E2,17.5,2.5,127,86.0
147,E3,18.0,1.5,127,86.0
148,E2,18.0,1.5,127,86.0
149,A3,19.5,0.5,127,86.0
150,A2,19.5,0.5,127,86.0
151,G1,20.0,0.5,127,86.0
152,D4,20.0,0.5,127,86.0
153,B3,20.0,0.5,127,86.0
154,G3,20.0,0.5,127,86.0
155,D3,20.0,0.5,127,86.0
156,G2,20.0,0.5,127,86.0
157,A1,20.75,0.25,127,86.0
158,E4,20.75,0.25,127,86.0
159,C#4,20.75,0.25,127,86.0
160,A3,20.75,0.25,127,86.0
161,E3,20.75,0.25,127,86.0
162,A2,20.75,0.25,127,86.0
163,E1,21.5,2.5,127,86.0
164,G4,21.5,2.5,127,86.0
165,E4,21.5,2.5,127,86.0
166,B3,21.5,2.5,127,86.0
167,E3,21.5,2.5,127,86.0
168,E2,21.5,2.5,127,86.0
169,E3,22.0,0.5,127,86.0
170,E2,22.0,1.5,127,86.0
171,A3,22.5,0.25,127,86.0
172,A2,23.5,0.5,127,86.0
173,D2,24.0,1.25,127,86.0
174,D4,24.0,0.25,127,86.0
175,A3,24.0,0.25,127,86.0
176,D3,24.0,0.25,127,86.0
177,D3,24.25,9/100,127,86.0
178,D3,24.5,9/100,127,86.0
179,D3,24.75,9/100,127,86.0
180,F#4,25.0,0.5,127,86.0
181,D4,25.0,0.5,127,86.0
182,A3,25.0,0.5,127,86.0
183,D3,25.0,0.5,127,86.0
184,D2,25.25,0.25,127,86.0
185,F#2,25.5,0.25,127,86.0
186,G2,25.75,0.25,127,86.0
187,D4,25.75,0.25,127,86.0
188,A3,25.75,0.25,127,86.0
189,D3,25.75,0.25,127,86.0
190,G#2,26.0,0.25,127,86.0
191,A2,26.25,0.25,102,86.0
192,G#2,26.5,0.25,127,86.0
193,A2,26.75,0.25,102,86.0
194,D3,26.75,0.25,127,86.0
195,A2,26.75,0.25,127,86.0
196,G#2,27.0,0.25,127,86.0
197,D4,27.0,0.5,127,86.0
198,A3,27.0,0.5,127,86.0
199,D3,27.0,0.5,127,86.0
200,A2,27.25,0.25,102,86.0
201,G#2,27.5,0.25,127,86.0
202,D4,27.5,0.25,127,86.0
203,A3,27.5,0.25,127,86.0
204,D3,27.5,0.25,127,86.0
205,A2,27.75,0.25,102,86.0
206,D4,27.75,0.25,127,86.0
207,A3,27.75,0.25,127,86.0
208,D3,27.75,0.25,127,86.0
209,D2,28.0,1.0,127,86.0
210,F#4,28.0,0.25,127,86.0
211,D4,28.0,0.25,127,86.0
212,A3,28.0,0.25,127,86.0
213,D3,28.0,0.25,127,86.0
214,B3,28.25,9/200,95,86.0
215,G3,28.25,9/200,95,86.0
216,D3,28.25,9/200,95,86.0
217,B3,28.5,9/200,95,86.0
218,G3,28.5,9/200,95,86.0
219,D3,28.5,9/200,95,86.0
220,D3,28.75,0.25,127,86.0
221,F#4,29.0,0.5,127,86.0
222,D4,29.0,0.5,127,86.0
223,A3,29.0,0.5,127,86.0
224,D3,29.0,0.5,127,86.0
225,F#3,29.25,0.25,127,86.0
226,D3,29.5,0.25,127,86.0
227,D3,29.75,0.25,127,86.0
228,G3,29.75,0.25,127,86.0
229,D4,30.0,0.25,127,86.0
230,A3,30.0,0.25,127,86.0
231,D3,30.0,0.25,127,86.0
232,D3,30.25,0.25,127,86.0
233,A3,30.25,0.25,127,86.0
234,G3,30.5,0.25,127,86.0
235,D3,30.75,9/200,95,86.0
236,A2,30.75,9/200,95,86.0
237,F#3,31.0,0.25,127,86.0
238,F#4,31.0,0.25,127,86.0
239,D4,31.0,0.25,127,86.0
240,A3,31.0,0.25,127,86.0
241,D3,31.0,0.25,127,86.0
242,F#4,31.25,0.25,127,86.0
243,D4,31.25,0.25,127,86.0
244,A3,31.25,0.25,127,86.0
245,D3,31.25,0.25,127,86.0
246,E3,31.5,0.5,127,86.0
247,F4,31.5,0.25,127,86.0
248,C#4,31.5,0.25,127,86.0
249,G#3,31.5,0.25,127,86.0
250,C#3,31.5,0.25,127,86.0
251,F4,31.75,0.25,127,86.0
252,C#4,31.75,0.25,127,86.0
253,G#3,31.75,0.25,127,86.0
254,C#3,31.75,0.25,127,86.0
255,G1,32.0,0.25,127,86.0
256,E4,32.0,1.0,127,86.0
257,C4,32.0,1.0,127,86.0
258,G3,32.0,1.0,127,86.0
259,C3,32.0,1.0,127,86.0
260,C2,32.25,0.25,127,86.0
261,D2,32.5,0.25,127,86.0
262,E-2,32.75,0.25,127,86.0
263,E2,33.0,0.25,127,86.0
264,G3,33.0,9/200,95,86.0
265,D3,33.0,9/200,95,86.0
266,A2,33.0,9/200,95,86.0
267,G2,33.25,0.25,127,86.0
268,A2,33.5,0.25,127,86.0
269,C3,33.75,0.25,127,86.0
270,G2,33.75,0.25,127,86.0
271,B-2,34.0,0.25,127,86.0
272,A2,34.25,0.25,102,86.0
273,G3,34.25,9/200,95,86.0
274,D3,34.25,9/200,95,86.0
275,A2,34.25,9/200,95,86.0
276,G2,34.5,0.25,127,86.0
277,D2,34.75,0.25,127,86.0
278,G3,34.75,9/200,95,86.0
279,D3,34.75,9/200,95,86.0
280,A2,34.75,9/200,95,86.0
281,E-2,35.0,0.25,127,86.0
282,G3,35.0,9/200,95,86.0
283,D3,35.0,9/200,95,86.0
284,A2,35.0,9/200,95,86.0
285,E2,35.25,0.25,127,86.0
286,E-2,35.5,0.25,127,86.0
287,G3,35.5,9/200,95,86.0
288,D3,35.5,9/200,95,86.0
289,A2,35.5,9/200,95,86.0
290,G3,35.75,9/200,95,86.0
291,E2,35.75,0.25,127,86.0
292,G4,35.75,0.25,127,86.0
293,D4,35.75,0.25,127,86.0
294,G3,35.75,0.25,127,86.0
295,G4,36.0,0.25,127,86.0
296,D4,36.0,0.25,127,86.0
297,G3,36.0,0.25,127,86.0
298,D3,36.25,0.25,127,86.0
299,C3,36.25,0.125,127,86.0
300,B-2,36.375,0.125,102,86.0
301,C3,36.5,0.25,102,86.0
302,G4,36.5,0.5,127,86.0
303,D4,36.5,0.5,127,86.0
304,C4,36.5,0.5,127,86.0
305,G3,36.5,0.5,127,86.0
306,C3,37.0,0.125,127,86.0
307,G4,37.0,0.5,127,86.0
308,D4,37.0,0.5,127,86.0
309,C4,37.0,0.5,127,86.0
310,G3,37.0,0.5,127,86.0
311,B-2,37.125,0.125,102,86.0
312,C3,37.25,0.25,127,86.0
313,G4,37.5,0.25,127,86.0
314,D4,37.75,0.25,127,86.0
315,C3,37.75,0.125,127,86.0
316,B-2,37.875,0.125,102,86.0
317,C4,38.0,0.25,127,86.0
318,C3,38.0,0.25,127,86.0
319,G3,38.25,0.25,127,86.0
320,D4,38.5,0.25,127,86.0
321,C3,38.5,0.125,127,86.0
322,B-2,38.625,0.125,102,86.0
323,C4,38.75,0.5,127,86.0
324,C3,38.75,0.25,127,86.0
325,D4,39.25,0.25,127,86.0
326,C3,39.25,0.125,127,86.0
327,B-2,39.375,0.125,102,86.0
328,E4,39.5,0.25,127,86.0
329,C3,39.5,0.25,127,86.0
330,C#3,39.75,0.25,127,86.0
331,C4,39.75,0.25,127,86.0
332,G3,39.75,0.25,127,86.0
333,C3,39.75,0.25,127,86.0
334,D3,40.0,0.5,127,86.0
335,D4,40.0,0.5,127,86.0
336,A3,40.0,0.5,127,86.0
337,D3,40.0,0.5,127,86.0
338,A3,40.5,0.5,127,86.0
339,D3,40.5,0.125,127,86.0
340,C3,40.625,0.125,102,86.0
341,A2,40.75,0.25,127,86.0
342,D3,41.0,0.125,127,86.0
343,E4,41.0,0.75,127,86.0
344,D4,41.0,0.75,127,86.0
345,A3,41.0,0.75,127,86.0
346,C3,41.125,0.125,102,86.0
347,A2,41.25,0.25,127,86.0
348,D3,41.5,0.125,127,86.0
349,C3,41.625,0.125,102,86.0
350,D4,41.75,0.25,127,86.0
351,A2,41.75,0.25,127,86.0
352,D3,42.0,0.125,127,86.0
353,F#4,42.0,0.5,127,86.0
354,D4,42.0,0.5,127,86.0
355,C3,42.125,0.125,102,86.0
356,A2,42.25,0.25,127,86.0
357,D3,42.5,0.125,127,86.0
358,A3,42.5,0.25,127,86.0
359,D3,42.5,0.25,127,86.0
360,C3,42.625,0.125,102,86.0
361,A2,42.75,0.25,127,86.0
362,A3,42.75,0.25,127,86.0
363,D3,42.75,0.25,127,86.0
364,D3,43.0,0.125,127,86.0
365,D4,43.0,0.5,127,86.0
366,A3,43.0,0.5,127,86.0
367,D3,43.0,0.5,127,86.0
368,C3,43.125,0.125,102,86.0
369,A2,43.25,0.25,127,86.0
370,E4,43.5,0.25,127,86.0
371,D3,43.5,0.125,127,86.0
372,C3,43.625,0.125,102,86.0
373,A2,43.75,0.25,127,86.0
374,G3,43.75,0.25,127,86.0
375,C3,43.75,0.25,127,86.0
376,G2,43.75,0.25,127,86.0
377,A3,44.0,0.5,127,86.0
378,D3,44.0,0.5,127,86.0
379,A2,44.0,0.5,127,86.0
380,D3,44.25,0.25,127,86.0
381,D3,44.5,0.25,127,86.0
382,D4,44.5,0.25,127,86.0
383,A3,44.5,0.25,127,86.0
384,D3,44.5,0.25,127,86.0
385,A2,44.5,0.25,127,86.0
386,D3,44.75,0.25,127,86.0
387,D4,44.75,0.25,127,86.0
388,A3,44.75,0.25,127,86.0
389,D3,44.75,0.25,127,86.0
390,A2,44.75,0.25,127,86.0
391,D3,45.0,0.25,127,86.0
392,D4,45.0,0.75,127,86.0
393,A3,45.0,0.75,127,86.0
394,D3,45.0,0.75,127,86.0
395,A2,45.0,0.75,127,86.0
396,C3,45.25,0.25,127,86.0
397,A2,45.5,0.25,127,86.0
398,G2,45.75,0.25,127,86.0
399,D4,45.75,0.25,127,86.0
400,A3,45.75,0.25,127,86.0
401,D3,45.75,0.25,127,86.0
402,F2,46.0,0.5,127,86.0
403,D4,46.0,1.0,127,86.0
404,A3,46.0,1.0,127,86.0
405,D3,46.0,1.0,127,86.0
406,F2,46.5,0.5,127,86.0
407,D2,47.0,0.25,127,86.0
408,D4,47.0,0.25,127,86.0
409,A3,47.0,0.25,127,86.0
410,D3,47.0,0.25,127,86.0
411,D2,47.25,0.25,127,86.0
412,D4,47.25,0.25,127,86.0
413,A3,47.25,0.25,127,86.0
414,D3,47.25,0.25,127,86.0
415,A2,47.5,0.25,127,86.0
416,A1,47.75,0.25,127,86.0
417,D4,47.75,0.25,127,86.0
418,G3,47.75,0.25,127,86.0
419,D3,48.0,9/200,95,86.0
420,C2,48.0,0.5,127,86.0
421,D4,48.0,1.0,127,86.0
422,G3,48.0,1.0,127,86.0
423,C3,48.0,1.0,127,86.0
424,E1,48.5,0.5,127,86.0
425,F1,49.0,0.5,127,86.0
426,E3,49.0,0.25,127,86.0
427,C3,49.0,0.25,127,86.0
428,G2,49.25,0.25,127,86.0
429,F#1,49.5,0.5,127,86.0
430,C4,49.5,0.25,127,86.0
431,G3,49.5,0.25,127,86.0
432,C4,49.75,0.25,127,86.0
433,G3,49.75,0.25,127,86.0
434,E4,50.0,0.25,127,86.0
435,G1,50.0,0.25,127,86.0
436,A1,50.25,0.25,127,86.0
437,C4,50.25,0.25,127,86.0
438,G3,50.25,0.25,127,86.0
439,C4,50.5,0.5,127,86.0
440,B-1,50.5,0.25,127,86.0
441,B1,50.75,0.25,127,86.0
442,C2,51.0,0.25,127,86.0
443,G3,51.0,0.25,127,86.0
444,E3,51.0,0.25,127,86.0
445,C3,51.0,0.25,127,86.0
446,C4,51.25,0.5,127,86.0
447,D2,51.25,0.25,127,86.0
448,E-2,51.5,0.25,127,86.0
449,E4,51.75,0.25,127,86.0
450,E2,51.75,0.25,127,86.0
451,D4,52.0,0.5,127,86.0
452,F2,52.0,0.25,127,86.0
453,G2,52.25,0.25,127,86.0
454,G#2,52.5,0.25,127,86.0
455,C4,52.5,0.25,127,86.0
456,G3,52.5,0.25,127,86.0
457,E3,52.5,0.25,127,86.0
458,C3,52.5,0.25,127,86.0
459,A2,52.75,0.25,127,86.0
460,C4,52.75,0.25,127,86.0
461,G3,52.75,0.25,127,86.0
462,E3,52.75,0.25,127,86.0
463,C3,52.75,0.25,127,86.0
464,E4,53.0,0.25,127,86.0
465,B-2,53.0,333/1000,127,86.0
466,D4,53.25,0.5,127,86.0
467,B2,53.333,333/1000,127,86.0
468,C3,53.667,333/1000,127,86.0
469,C4,53.75,0.75,127,86.0
470,G3,53.75,0.75,127,86.0
471,C#3,54.0,333/1000,127,86.0
472,D3,54.333,333/1000,127,86.0
473,D4,54.5,1.0,127,86.0
474,E-3,54.667,333/1000,127,86.0
475,B3,55.0,1.0,127,86.0
476,B3,55.5,9/200,95,86.0
477,G3,55.5,9/200,95,86.0
478,D3,55.5,9/200,95,86.0
479,F#4,56.0,1.0,127,86.0
480,D4,56.0,1.0,127,86.0
481,A3,56.0,1.0,127,86.0
482,D3,56.0,1.0,127,86.0
483,D2,56.25,0.25,127,86.0
484,D2,56.5,0.25,127,86.0
485,D2,57.0,0.25,127,86.0
486,D4,57.0,0.25,127,86.0
487,A3,57.0,0.25,127,86.0
488,D3,57.0,0.25,127,86.0
489,D2,57.25,0.25,127,86.0
490,D4,57.25,0.25,127,86.0
491,A3,57.25,0.25,127,86.0
492,D3,57.25,0.25,127,86.0
493,D2,57.5,0.25,127,86.0
494,D4,57.5,0.25,127,86.0
495,A3,57.5,0.25,127,86.0
496,D3,57.5,0.25,127,86.0
497,C#4,57.75,0.25,127,86.0
498,D4,57.75,0.25,127,86.0
499,A3,57.75,0.25,127,86.0
500,F#4,58.0,0.5,127,86.0
501,D4,58.0,0.5,127,86.0
502,A3,58.0,0.5,127,86.0
503,D4,58.25,0.25,127,86.0
504,D4,58.5,0.5,127,86.0
505,B3,58.5,9/200,95,86.0
506,G3,58.5,9/200,95,86.0
507,D3,58.5,9/200,95,86.0
508,A3,58.75,0.25,127,86.0
509,D3,58.75,0.25,127,86.0
510,C#4,59.0,0.5,127,86.0
511,G4,59.0,0.5,127,86.0
512,D4,59.0,0.5,127,86.0
513,A3,59.0,0.5,127,86.0
514,D3,59.0,0.5,127,86.0
515,D4,59.5,0.25,127,86.0
516,F#4,59.5,0.25,127,86.0
517,D4,59.5,0.25,127,86.0
518,A3,59.5,0.25,127,86.0
519,D3,59.5,0.25,127,86.0
520,D4,59.75,0.25,127,86.0
521,D4,59.75,0.25,127,86.0
522,A3,59.75,0.25,127,86.0
523,D3,59.75,0.25,127,86.0
524,F#4,60.0,0.75,127,86.0
525,D4,60.0,0.75,127,86.0
526,A3,60.0,0.75,127,86.0
527,D3,60.0,0.75,127,86.0
528,B3,60.25,0.125,127,86.0
529,C4,60.375,0.125,127,86.0
530,C#4,60.5,0.25,127,86.0
531,D4,60.75,0.25,127,86.0
532,D4,60.75,0.25,127,86.0
533,A3,60.75,0.25,127,86.0
534,D4,61.0,0.25,127,86.0
535,G4,61.0,0.5,127,86.0
536,D4,61.0,0.5,127,86.0
537,A3,61.0,0.5,127,86.0
538,D3,61.0,0.5,127,86.0
539,D4,61.25,0.25,127,86.0
540,D4,61.5,0.125,127,86.0
541,F#4,61.5,0.25,127,86.0
542,D4,61.5,0.25,127,86.0
543,A3,61.5,0.25,127,86.0
544,C4,61.625,0.125,102,86.0
545,D4,61.75,0.25,102,86.0
546,D4,61.75,0.25,127,86.0
547,A3,61.75,0.25,127,86.0
548,D4,62.0,0.5,127,86.0
549,A3,62.0,0.5,127,86.0
550,D3,62.0,0.5,127,86.0
551,D2,62.25,0.25,127,86.0
552,F2,62.5,0.25,127,86.0
553,F#2,62.75,0.25,127,86.0
554,F2,63.0,0.25,127,86.0
555,A3,63.0,0.5,127,86.0
556,D3,63.0,0.5,127,86.0
557,F#2,63.25,0.25,127,86.0
558,D2,63.5,0.25,127,86.0
559,A3,63.5,0.25,127,86.0
560,D3,63.5,0.25,127,86.0
561,E2,63.75,0.25,127,86.0
562,D4,63.75,0.25,127,86.0
563,A3,63.75,0.25,127,86.0
564,B1,64.0,0.25,127,86.0
565,C4,64.0,1.25,127,86.0
566,G3,64.0,1.25,127,86.0
567,B1,64.5,0.25,127,86.0
568,C2,64.75,0.25,127,86.0
569,F2,65.25,0.25,127,86.0
570,C4,65.25,0.25,127,86.0
571,G3,65.25,0.25,127,86.0
572,C3,65.25,0.25,127,86.0
573,E2,65.5,0.25,127,86.0
574,C4,65.5,0.25,127,86.0
575,G3,65.5,0.25,127,86.0
576,C3,65.5,0.25,127,86.0
577,D2,65.75,0.25,127,86.0
578,C4,65.75,0.25,127,86.0
579,G3,65.75,0.25,127,86.0
580,C3,65.75,0.25,127,86.0
581,A1,66.0,0.25,127,86.0
582,E4,66.0,1.0,127,86.0
583,C4,66.0,1.0,127,86.0
584,G3,66.0,1.0,127,86.0
585,C3,66.0,1.0,127,86.0
586,C2,66.25,0.25,127,86.0
587,C2,66.5,0.25,127,86.0
588,C2,66.75,0.25,127,86.0
589,C2,67.0,0.25,127,86.0
590,G3,67.0,0.25,127,86.0
591,C3,67.0,0.25,127,86.0
592,C3,67.25,0.25,127,86.0
593,C2,67.25,0.25,127,86.0
594,C2,67.5,0.25,127,86.0
595,E4,67.5,0.25,127,86.0
596,C4,67.5,0.25,127,86.0
597,G3,67.5,0.25,127,86.0
598,C3,67.5,0.25,127,86.0
599,G1,67.75,0.25,127,86.0
600,E4,67.75,0.25,127,86.0
601,C4,67.75,0.25,127,86.0
602,G3,67.75,0.25,127,86.0
603,C3,67.75,0.25,127,86.0
604,C2,68.0,0.25,127,86.0
605,E4,68.0,1.0,127,86.0
606,C4,68.0,1.0,127,86.0
607,G3,68.0,1.0,127,86.0
608,C3,68.0,1.0,127,86.0
609,C2,68.25,0.25,127,86.0
610,C2,68.5,0.25,127,86.0
611,B1,68.75,0.25,127,86.0
612,C2,69.0,0.25,127,86.0
613,E4,69.0,0.25,127,86.0
614,C4,69.0,0.25,127,86.0
615,G3,69.0,0.25,127,86.0
616,C3,69.0,0.25,127,86.0
617,C3,69.25,0.25,127,86.0
618,B1,69.25,0.25,127,86.0
619,C2,69.5,0.25,127,86.0
620,C4,69.5,0.25,127,86.0
621,G3,69.5,0.25,127,86.0
622,C3,69.5,0.25,127,86.0
623,E4,69.75,0.25,127,86.0
624,C4,69.75,0.25,127,86.0
625,G3,69.75,0.25,127,86.0
626,E4,70.0,1.0,127,86.0
627,C4,70.0,1.0,127,86.0
628,G3,70.0,1.0,127,86.0
629,C3,70.0,1.0,127,86.0
630,C2,70.25,0.25,127,86.0
631,E2,70.5,0.5,127,86.0
632,F2,71.0,0.25,127,86.0
633,E4,71.0,0.5,127,86.0
634,C4,71.0,0.5,127,86.0
635,G3,71.0,0.5,127,86.0
636,C3,71.0,0.5,127,86.0
637,E2,71.25,0.25,127,86.0
638,D2,71.5,0.25,127,86.0
639,C4,71.5,0.25,127,86.0
640,G3,71.5,0.25,127,86.0
641,C3,71.5,0.25,127,86.0
642,C2,71.75,0.25,127,86.0
643,C4,71.75,0.25,127,86.0
644,G3,71.75,0.25,127,86.0
645,C3,71.75,0.25,127,86.0
646,D2,72.0,0.5,127,86.0
647,D4,72.0,0.5,127,86.0
648,A3,72.0,0.5,127,86.0
649,D3,72.0,0.5,127,86.0
650,D4,72.5,0.25,127,86.0
651,A3,72.5,0.25,127,86.0
652,D2,72.75,0.25,127,86.0
653,A3,72.75,0.25,127,86.0
654,D3,72.75,0.25,127,86.0
655,D3,73.0,9/100,127,86.0
656,D2,73.0,0.25,127,86.0
657,D3,73.25,9/100,127,86.0
658,D2,73.25,0.25,127,86.0
659,D2,73.5,0.25,127,86.0
660,D4,73.5,0.25,127,86.0
661,A3,73.5,0.25,127,86.0
662,D2,73.75,0.25,127,86.0
663,D4,73.75,0.25,127,86.0
664,A3,73.75,0.25,127,86.0
665,D2,74.0,0.25,127,86.0
666,F#4,74.0,0.75,127,86.0
667,D4,74.0,0.75,127,86.0
668,A3,74.0,0.75,127,86.0
669,D2,74.25,0.25,127,86.0
670,D2,74.5,0.25,127,86.0
671,D3,74.75,0.125,127,86.0
672,D4,74.75,0.25,127,86.0
673,A3,74.75,0.25,127,86.0
674,D3,74.75,0.25,127,86.0
675,C3,74.875,0.125,102,86.0
676,D3,75.0,0.25,127,86.0
677,D4,75.25,0.25,127,86.0
678,D3,75.25,0.25,127,86.0
679,D4,75.5,0.25,127,86.0
680,D3,75.5,0.125,127,86.0
681,C3,75.625,0.125,102,86.0
682,E4,75.75,0.25,102,86.0
683,D3,75.75,0.25,127,86.0
684,D3,76.0,0.25,127,86.0
685,F#4,76.0,1.0,127,86.0
686,D4,76.0,1.0,127,86.0
687,A3,76.0,1.0,127,86.0
688,D3,76.0,1.0,127,86.0
689,D3,76.25,0.125,127,86.0
690,C3,76.375,0.125,102,86.0
691,D3,76.5,0.25,127,86.0
692,D3,76.75,0.125,127,86.0
693,C3,76.875,0.125,102,86.0
694,D3,77.0,0.25,102,86.0
695,F#4,77.0,0.5,127,86.0
696,D4,77.0,0.5,127,86.0
697,A3,77.0,0.5,127,86.0
698,D3,77.25,0.25,127,86.0
699,A2,77.5,0.125,127,86.0
700,D3,77.5,0.125,127,86.0
701,B2,77.625,0.125,102,86.0
702,C3,77.625,0.125,102,86.0
703,D3,77.75,0.25,127,86.0
704,F#4,77.75,0.25,121,86.0
705,D4,77.75,0.25,121,86.0
706,D3,77.75,0.25,121,86.0
707,A2,77.75,0.25,121,86.0
708,D3,78.0,0.125,127,86.0
709,F#4,78.0,1.0,127,86.0
710,D4,78.0,1.0,127,86.0
711,A3,78.0,1.0,127,86.0
712,D3,78.0,1.0,127,86.0
713,C3,78.125,0.125,102,86.0
714,D3,78.25,0.25,127,86.0
715,D3,78.5,0.25,127,86.0
716,D3,78.75,0.25,127,86.0
717,D3,79.0,0.5,127,86.0
718,G3,79.0,9/200,95,86.0
719,D3,79.0,9/200,95,86.0
720,A2,79.0,9/200,95,86.0
721,G3,79.5,0.5,127,86.0
722,G3,79.5,9/200,95,86.0
723,D3,79.5,9/200,95,86.0
724,A2,79.5,9/200,95,86.0
725,A2,79.75,0.25,127,86.0
726,E4,80.0,1.0,127,86.0
727,C4,80.0,1.0,127,86.0
728,G3,80.0,1.0,127,86.0
729,E4,81.0,0.5,127,86.0
730,C4,81.0,0.5,127,86.0
731,G3,81.0,0.5,127,86.0
732,G3,81.5,0.5,127,86.0
733,C4,82.0,0.75,127,86.0
734,G3,82.0,0.75,127,86.0
735,C3,82.0,0.75,127,86.0
736,A2,82.25,0.5,127,86.0
737,G3,82.75,0.25,127,86.0
738,G2,82.75,0.25,102,86.0
739,E2,83.0,0.25,127,86.0
740,E4,83.0,0.25,127,86.0
741,C4,83.0,0.25,127,86.0
742,G3,83.0,0.25,127,86.0
743,D4,83.25,0.25,127,86.0
744,D2,83.25,0.25,102,86.0
745,C2,83.5,0.25,127,86.0
746,C4,83.5,0.5,127,86.0
747,G3,83.5,0.5,127,86.0
748,C3,84.0,0.25,127,86.0
749,A2,84.0,0.25,127,86.0
750,G2,84.25,0.25,102,86.0
751,C4,84.25,0.5,127,86.0
752,G3,84.25,0.5,127,86.0
753,E2,84.5,0.25,127,86.0
754,D2,84.75,0.25,102,86.0
755,C4,84.75,0.25,127,86.0
756,G3,84.75,0.25,127,86.0
757,C2,85.0,0.25,127,86.0
758,E4,85.0,1.0,127,86.0
759,C4,85.0,1.0,127,86.0
760,G3,85.0,1.0,127,86.0
761,B1,85.25,0.25,127,86.0
762,C2,85.5,0.25,127,86.0
763,B1,85.75,0.25,127,86.0
764,C2,86.0,0.25,127,86.0
765,C4,86.0,0.5,127,86.0
766,G3,86.0,0.5,127,86.0
767,B1,86.25,0.25,127,86.0
768,G3,86.5,0.25,127,86.0
769,C2,86.5,0.25,127,86.0
770,E2,86.75,0.25,127,86.0
771,E4,86.75,0.75,127,86.0
772,C4,86.75,0.75,127,86.0
773,D2,87.0,0.25,127,86.0
774,C2,87.25,0.25,127,86.0
775,C2,87.5,0.25,127,86.0
776,E4,87.5,0.25,127,86.0
777,C4,87.5,0.25,127,86.0
778,G3,87.5,0.25,127,86.0
779,C3,87.5,0.25,127,86.0
780,A1,87.75,0.25,127,86.0
781,F#4,87.75,0.25,127,86.0
782,D4,87.75,0.25,127,86.0
783,A3,87.75,0.25,127,86.0
784,D3,87.75,0.25,127,86.0
785,B1,88.0,0.5,127,86.0
786,F#4,88.0,1.0,127,86.0
787,D4,88.0,1.0,127,86.0
788,A3,88.0,1.0,127,86.0
789,D3,88.0,1.0,127,86.0
790,A1,88.5,0.25,127,86.0
791,G1,88.75,0.25,127,86.0
792,C2,89.0,0.25,127,86.0
793,D4,89.0,0.25,127,86.0
794,A3,89.0,0.25,127,86.0
795,D3,89.0,0.25,127,86.0
796,F#4,89.25,0.5,127,86.0
797,D2,89.5,0.25,127,86.0
798,A3,89.75,0.25,127,86.0
799,D2,89.75,0.25,127,86.0
800,D2,90.0,0.5,127,86.0
801,F#4,90.0,0.25,127,86.0
802,D4,90.0,0.25,127,86.0
803,F#4,90.25,0.75,127,86.0
804,D4,90.25,0.75,127,86.0
805,A3,90.25,0.75,127,86.0
806,D2,90.5,0.25,127,86.0
807,D2,90.75,0.25,127,86.0
808,D2,91.0,0.25,127,86.0
809,F#4,91.0,0.5,127,86.0
810,D4,91.0,0.5,127,86.0
811,A3,91.0,0.5,127,86.0
812,D3,91.0,0.5,127,86.0
813,D2,91.25,0.25,127,86.0
814,D2,91.5,0.25,127,86.0
815,F#4,91.5,0.25,127,86.0
816,D4,91.5,0.25,127,86.0
817,A3,91.5,0.25,127,86.0
818,D3,91.5,0.25,127,86.0
819,D2,91.75,0.25,127,86.0
820,F#4,91.75,0.25,127,86.0
821,D4,91.75,0.25,127,86.0
822,A3,91.75,0.25,127,86.0
823,D3,91.75,0.25,127,86.0
824,D2,92.0,0.25,127,86.0
825,F#4,92.0,1.0,127,86.0
826,D4,92.0,1.0,127,86.0
827,A3,92.0,1.0,127,86.0
828,D3,92.0,1.0,127,86.0
829,D4,92.25,0.25,127,86.0
830,D4,92.75,0.25,127,86.0
831,D4,93.0,0.25,127,86.0
832,D4,93.0,0.25,127,86.0
833,A3,93.0,0.25,127,86.0
834,D3,93.0,0.25,127,86.0
835,D4,93.25,0.25,127,86.0
836,F#4,93.25,0.5,127,86.0
837,D4,93.25,0.5,127,86.0
838,A3,93.25,0.5,127,86.0
839,D4,93.75,0.25,127,86.0
840,D4,93.75,0.25,127,86.0
841,A3,93.75,0.25,127,86.0
842,D4,94.0,0.5,127,86.0
843,D4,94.0,0.25,127,86.0
844,A3,94.0,0.25,127,86.0
845,D3,94.0,0.25,127,86.0
846,F#4,94.25,0.75,127,86.0
847,B2,94.5,0.5,127,86.0
848,F2,95.0,0.25,127,86.0
849,D4,95.0,0.25,127,86.0
850,A3,95.0,0.25,127,86.0
851,D3,95.0,0.25,127,86.0
852,F#4,95.25,0.25,127,86.0
853,F#2,95.25,0.25,102,86.0
854,D2,95.5,0.5,127,86.0
855,D4,95.5,0.5,127,86.0
856,A3,95.5,0.5,127,86.0
857,C2,96.0,1.0,127,86.0
858,E4,96.0,1.0,127,86.0
859,C4,96.0,1.0,127,86.0
860,G3,96.0,1.0,127,86.0
861,C3,96.0,1.0,127,86.0
862,E2,97.0,1.0,127,86.0
863,G3,97.0,0.25,127,86.0
864,C3,97.0,0.25,127,86.0
865,E4,97.25,0.5,127,86.0
866,C4,97.25,0.5,127,86.0
867,G3,97.75,0.25,127,86.0
868,C3,98.0,0.25,127,86.0
869,F2,98.0,1.0,127,86.0
870,C4,98.25,0.25,127,86.0
871,G3,98.5,0.25,127,86.0
872,C3,98.75,0.25,127,86.0
873,F#2,99.0,0.75,127,86.0
874,E4,99.0,0.5,127,86.0
875,C4,99.0,0.5,127,86.0
876,G3,99.0,0.5,127,86.0
877,G3,99.5,0.25,127,86.0
878,C3,99.5,0.25,127,86.0
879,G2,99.75,0.25,127,86.0
880,G3,99.75,0.25,127,86.0
881,C3,99.75,0.25,127,86.0
882,C4,100.0,1.0,127,86.0
883,G3,100.0,1.0,127,86.0
884,C3,100.0,1.0,127,86.0
885,B2,100.25,0.25,127,86.0
886,C3,100.5,0.25,127,86.0
887,C3,101.0,0.5,127,86.0
888,C3,101.0,0.25,127,86.0
889,B2,101.5,0.25,127,86.0
890,C4,101.5,0.25,127,86.0
891,G3,101.5,0.25,127,86.0
892,C3,101.5,0.25,127,86.0
893,C3,101.75,0.25,127,86.0
894,C4,101.75,0.5,127,86.0
895,G3,101.75,0.5,127,86.0
896,C3,101.75,0.5,127,86.0
897,E4,102.25,0.25,127,86.0
898,B2,102.25,0.25,127,86.0
899,C4,102.5,0.25,127,86.0
900,C3,102.5,0.25,127,86.0
901,G3,102.75,0.25,127,86.0
902,B2,102.75,0.25,127,86.0
903,E4,103.0,0.5,127,86.0
904,C3,103.0,0.25,127,86.0
905,B2,103.25,0.25,127,86.0
906,C3,103.5,0.25,127,86.0
907,C4,103.5,0.25,127,86.0
908,G3,103.5,0.25,127,86.0
909,C3,103.5,0.25,127,86.0
910,C3,103.75,0.25,127,86.0
911,D4,103.75,0.25,127,86.0
912,A3,103.75,0.25,127,86.0
913,D3,103.75,0.25,127,86.0
914,B2,104.0,0.25,127,86.0
915,D4,104.0,0.75,127,86.0
916,A3,104.0,0.75,127,86.0
917,D3,104.0,0.75,127,86.0
918,G2,104.75,0.25,127,86.0
919,D4,104.75,0.25,127,86.0
920,A3,104.75,0.25,127,86.0
921,A2,105.0,0.25,127,86.0
922,F#4,105.0,0.75,127,86.0
923,D4,105.0,0.75,127,86.0
924,A3,105.0,0.75,127,86.0
925,D2,105.25,0.25,127,86.0
926,D2,105.5,0.25,127,86.0
927,A3,105.75,0.25,127,86.0
928,D2,105.75,0.25,127,86.0
929,A3,106.0,0.25,127,86.0
930,D2,106.0,0.25,127,86.0
931,D4,106.25,0.5,127,86.0
932,D2,106.25,0.25,127,86.0
933,D2,106.5,0.25,127,86.0
934,A3,106.75,0.25,127,86.0
935,D2,106.75,0.25,127,86.0
936,D4,107.0,0.5,127,86.0
937,D2,107.0,0.25,127,86.0
938,D3,107.25,0.125,127,86.0
939,D3,107.375,0.125,127,86.0
940,A3,107.5,0.25,127,86.0
941,D3,107.5,0.25,127,86.0
942,D4,107.75,0.25,127,86.0
943,D3,107.75,0.125,127,86.0
944,C#3,107.875,0.125,102,86.0
945,D3,108.0,0.25,127,86.0
946,D4,108.0,1.5,127,86.0
947,A3,108.0,1.5,127,86.0
948,D3,108.0,1.5,127,86.0
949,A2,108.0,1.5,127,86.0
950,D2,108.25,0.25,127,86.0
951,D3,108.5,0.25,127,86.0
952,D2,108.75,0.5,127,86.0
953,D3,109.25,0.125,127,86.0
954,C3,109.375,0.125,102,86.0
955,A2,109.5,0.25,127,86.0
956,D4,109.5,0.25,127,86.0
957,A3,109.5,0.25,127,86.0
958,D3,109.5,0.25,127,86.0
959,D3,109.75,0.25,127,86.0
960,D4,109.75,1.75,127,86.0
961,A3,109.75,1.75,127,86.0
962,D3,109.75,1.75,127,86.0
963,D3,110.25,0.125,127,86.0
964,C3,110.375,0.125,102,86.0
965,A2,110.5,0.25,127,86.0
966,D3,110.75,0.25,127,86.0
967,D3,111.0,0.125,127,86.0
968,C3,111.125,0.125,102,86.0
969,A2,111.25,167/1000,127,86.0
970,A1,111.417,9/200,95,86.0
971,B1,111.5,0.25,127,86.0
972,B-1,111.75,0.25,127,86.0
973,B1,112.0,1.0,127,86.0
974,B3,112.0,3.5,127,86.0
975,F#3,112.0,3.5,127,86.0
976,B2,112.0,3.5,127,86.0
977,B1,113.0,1.0,127,86.0
978,B1,114.0,0.5,127,86.0
979,B1,114.5,0.25,127,86.0
980,E2,114.75,0.25,127,86.0
981,F#2,115.0,0.25,102,86.0
982,D3,115.5,0.5,127,86.0
983,A2,115.5,0.25,127,86.0
984,B2,115.75,0.25,102,86.0
985,B1,116.0,0.5,127,86.0
986,G#4,116.0,3.5,127,86.0
987,E4,116.0,3.5,127,86.0
988,B1,116.5,0.5,127,86.0
989,E1,117.75,0.25,127,86.0
990,F#1,118.0,0.25,127,86.0
991,A1,118.25,0.125,127,86.0
992,B-1,118.375,0.125,127,86.0
993,B1,118.5,0.25,127,86.0
994,B1,119.0,0.25,127,86.0
995,B1,119.25,0.25,127,86.0
996,B1,119.5,0.25,127,86.0
997,A4,120.0,0.125,127,86.0
998,F#4,120.125,0.125,102,86.0
999,E4,120.25,0.25,127,86.0
1000,E4,120.5,0.125,127,86.0
1001,A4,120.625,0.125,102,86.0
1002,B4,120.75,0.25,102,86.0
1003,B4,121.0,0.75,127,86.0
1004,E4,121.75,0.25,127,86.0
1005,C#5,122.0,0.5,127,86.0
1006,B4,122.5,0.125,127,86.0
1007,F#4,122.625,0.125,127,86.0
1008,E4,122.75,0.25,127,86.0
1009,D4,123.0,1.0,127,86.0
1010,A4,124.0,0.125,127,86.0
1011,F#4,124.125,0.125,102,86.0
1012,E4,124.25,0.25,127,86.0
1013,E4,124.5,0.125,127,86.0
1014,A4,124.625,0.125,102,86.0
1015,B4,124.75,0.25,102,86.0
1016,B4,125.0,0.75,127,86.0
1017,E4,125.75,0.25,127,86.0
1018,C#5,126.0,0.5,127,86.0
1019,B4,126.5,0.125,127,86.0
1020,F#4,126.625,0.125,127,86.0
1021,E4,126.75,0.25,127,86.0
1022,D4,127.0,1.0,127,86.0
1023,A4,128.0,0.125,127,86.0
1024,F#4,128.125,0.125,102,86.0
1025,E4,128.25,0.25,127,86.0
1026,E4,128.5,0.125,127,86.0
1027,A4,128.625,0.125,102,86.0
1028,B4,128.75,0.25,102,86.0
1029,B4,129.0,0.75,127,86.0
1030,E4,129.75,0.25,127,86.0
1031,C#5,130.0,0.5,127,86.0
1032,B4,130.5,0.125,127,86.0
1033,F#4,130.625,0.125,127,86.0
1034,E4,130.75,0.25,127,86.0
1035,D4,131.0,1.0,127,86.0
1036,A4,132.0,0.125,127,86.0
1037,F#4,132.125,0.125,102,86.0
1038,E4,132.25,0.25,127,86.0
1039,E4,132.5,0.125,127,86.0
1040,A4,132.625,0.125,102,86.0
1041,B4,132.75,0.25,102,86.0
1042,B4,133.0,0.75,127,86.0
1043,E4,133.75,0.25,127,86.0
1044,C#5,134.0,0.5,127,86.0
1045,B4,134.5,0.125,127,86.0
1046,F#4,134.625,0.125,127,86.0
1047,E4,134.75,0.25,127,86.0
1048,D4,135.0,0.25,127,86.0
1049,B3,135.25,0.25,127,86.0
1050,D4,135.5,0.25,127,86.0
1051,E4,135.75,0.25,127,86.0
1052,E4,136.0,0.375,127,86.0
1053,D4,136.375,0.125,127,86.0
1054,E4,136.5,0.5,127,86.0
1055,F#4,137.0,0.125,127,86.0
1056,E4,137.125,0.125,127,86.0
1057,D4,137.25,0.125,102,86.0
1058,B3,137.375,0.125,127,86.0
1059,A3,137.5,0.5,102,86.0
1060,D4,138.0,0.25,127,86.0
1061,A3,138.25,0.25,127,86.0
1062,B3,138.5,0.125,127,86.0
1063,A3,138.625,0.125,102,86.0
1064,F#3,138.75,0.25,127,86.0
1065,E3,139.0,0.25,127,86.0
1066,D3,139.25,0.25,127,86.0
1067,E3,139.5,0.25,127,86.0
1068,F#3,139.75,0.25,127,86.0
1069,A3,140.0,0.25,127,86.0
1070,B3,140.25,0.25,127,86.0
1071,D4,140.5,0.25,127,86.0
1072,D4,140.75,0.25,127,86.0
1073,B3,141.0,0.25,127,86.0
1074,A3,141.25,0.25,127,86.0
1075,B3,141.5,0.25,127,86.0
1076,E4,141.75,417/1000,127,86.0
1077,F#4,142.167,167/1000,127,86.0
1078,B4,142.333,167/1000,127,86.0
1079,A4,142.5,167/1000,127,86.0
1080,F#4,142.667,167/1000,127,86.0
1081,A4,142.833,333/1000,127,86.0
1082,F#4,143.167,83/1000,127,86.0
1083,E4,143.25,0.25,127,86.0
1084,E4,143.5,0.125,127,86.0
1085,D4,143.625,0.125,102,86.0
1086,B3,143.75,0.25,127,86.0
1087,D4,144.0,0.25,127,86.0
1088,B3,144.25,0.125,127,86.0
1089,A3,144.375,0.125,102,86.0
1090,F#4,144.5,0.5,127,86.0
1091,E4,145.0,0.125,127,86.0
1092,D4,145.125,0.375,102,86.0
1093,E4,145.5,0.25,127,86.0
1094,F#4,145.75,0.5,127,86.0
1095,E4,146.25,0.125,127,86.0
1096,F#4,146.375,0.125,127,86.0
1097,E4,146.5,0.5,127,86.0
1098,E4,147.0,0.125,127,86.0
1099,D4,147.125,0.125,102,86.0
1100,B3,147.25,0.25,127,86.0
1101,A3,147.5,167/1000,127,86.0
1102,B3,147.667,167/1000,102,86.0
1103,A3,147.833,167/1000,127,86.0
1104,F#3,148.0,167/1000,127,86.0
1105,E3,148.167,167/1000,127,86.0
1106,D3,148.333,167/1000,127,86.0
1107,E3,148.5,333/1000,127,86.0
1108,E3,148.833,167/1000,127,86.0
1109,F#3,149.0,167/1000,127,86.0
1110,A3,149.167,167/1000,127,86.0
1111,D4,149.333,167/1000,127,86.0
1112,A3,149.5,167/1000,127,86.0
1113,B3,149.667,167/1000,102,86.0
1114,A3,149.833,167/1000,127,86.0
1115,B3,150.0,167/1000,102,86.0
1116,A3,150.167,167/1000,102,86.0
1117,B3,150.333,167/1000,127,86.0
1118,D4,150.5,167/1000,127,86.0
1119,B3,150.667,167/1000,127,86.0
1120,D4,150.833,167/1000,127,86.0
1121,E4,151.0,167/1000,127,86.0
1122,D4,151.167,167/1000,102,86.0
1123,E4,151.333,167/1000,127,86.0
1124,E4,151.5,333/1000,127,86.0
1125,F#4,151.833,167/1000,127,86.0
1126,B4,152.0,0.25,127,86.0
1127,B4,152.25,0.375,127,86.0
1128,A4,152.625,0.125,127,86.0
1129,F#4,152.75,0.25,102,86.0
1130,B4,153.0,0.25,127,86.0
1131,B4,153.25,0.125,127,86.0
1132,A4,153.375,0.125,102,86.0
1133,F#4,153.5,0.25,102,86.0
1134,B4,153.75,0.25,127,86.0
1135,B4,154.0,0.125,127,86.0
1136,A4,154.125,0.125,102,86.0
1137,F#4,154.25,0.125,102,86.0
1138,A4,154.375,0.125,102,86.0
1139,B4,154.5,0.125,127,86.0
1140,E4,154.625,0.125,127,86.0
1141,E4,154.75,0.25,127,86.0
1142,D4,155.0,0.125,127,86.0
1143,B3,155.125,0.125,127,86.0
1144,A3,155.25,0.25,102,86.0
1145,E3,155.5,0.25,127,86.0
1146,E3,155.75,0.25,127,86.0
1147,D3,156.0,333/1000,127,86.0
1148,E3,156.333,167/1000,127,86.0
1149,F#3,156.5,167/1000,127,86.0
1150,A3,156.667,167/1000,127,86.0
1151,D4,156.833,167/1000,127,86.0
1152,D4,157.0,333/1000,127,86.0
1153,B3,157.333,167/1000,127,86.0
1154,D4,157.5,0.25,127,86.0
1155,C#4,157.75,0.75,127,86.0
1156,D4,158.5,0.25,127,86.0
1157,D4,158.75,0.5,127,86.0
1158,B3,159.25,0.25,127,86.0
1159,D4,159.5,0.25,127,86.0
1160,E4,159.75,0.25,127,86.0
1161,E4,160.0,167/1000,127,86.0
1162,D4,160.167,167/1000,127,86.0
1163,B4,160.333,167/1000,127,86.0
1164,A4,160.5,167/1000,127,86.0
1165,F#4,160.667,167/1000,102,86.0
1166,D5,160.833,333/1000,127,86.0
1167,D5,161.167,333/1000,127,86.0
1168,B4,161.5,41/250,127,86.0
1169,F#4,161.5,41/250,127,86.0
1170,E4,161.667,167/1000,127,86.0
1171,D4,161.833,0.5,102,86.0
1172,E4,162.333,333/1000,127,86.0
1173,D4,162.667,167/1000,127,86.0
1174,B3,162.833,167/1000,127,86.0
1175,B3,163.0,0.125,127,86.0
1176,A3,163.125,0.125,102,86.0
1177,F#3,163.25,0.25,127,86.0
1178,E3,163.5,0.25,127,86.0
1179,G3,163.75,0.25,127,86.0
1180,F#3,164.0,167/1000,127,86.0
1181,E3,164.167,167/1000,127,86.0
1182,D3,164.333,167/1000,102,86.0
1183,E3,164.5,0.25,127,86.0
1184,D3,164.75,0.25,127,86.0
1185,E3,165.0,0.125,127,86.0
1186,D3,165.125,0.125,102,86.0
1187,B2,165.25,0.25,127,86.0
1188,A2,165.5,0.25,127,86.0
1189,B2,165.75,0.25,102,86.0
1190,D3,166.0,0.5,127,86.0
1191,D3,166.5,0.25,127,86.0
1192,E3,166.75,0.25,102,86.0
1193,F#3,167.0,0.125,127,86.0
1194,A3,167.125,0.125,127,86.0
1195,D4,167.25,0.25,127,86.0
1196,D4,167.5,0.25,127,86.0
1197,B3,167.75,0.125,127,86.0
1198,A3,167.875,0.125,102,86.0
1199,E4,168.0,0.25,127,86.0
1200,E4,168.25,0.25,127,86.0
1201,D4,168.5,0.25,127,86.0
1202,B3,168.75,0.125,127,86.0
1203,A3,168.875,0.125,102,86.0
1204,E4,169.0,0.25,127,86.0
1205,E4,169.25,0.25,127,86.0
1206,D4,169.5,0.5,127,86.0
1207,B3,170.0,0.25,127,86.0
1208,D3,170.25,0.25,127,86.0
1209,F#4,170.5,0.25,127,86.0
1210,A4,170.75,0.25,127,86.0
1211,F#4,171.0,0.25,127,86.0
1212,B3,171.25,0.125,127,86.0
1213,E4,171.375,0.125,127,86.0
1214,D4,171.5,0.5,127,86.0
1215,E4,172.0,0.125,102,86.0
1216,D4,172.125,0.125,102,86.0
1217,B3,172.25,0.125,127,86.0
1218,A3,172.375,0.125,102,86.0
1219,D4,172.5,83/1000,127,86.0
1220,B3,172.583,83/1000,127,86.0
1221,A3,172.667,83/1000,102,86.0
1222,B3,172.75,0.25,102,86.0
1223,A3,173.0,0.5,127,86.0
1224,B3,173.5,0.125,127,86.0
1225,A3,173.625,0.125,102,86.0
1226,B3,173.75,0.125,127,86.0
1227,A3,173.875,0.125,102,86.0
1228,F#3,174.0,0.25,127,86.0
1229,A3,174.25,0.25,127,86.0
1230,F#3,174.5,0.25,127,86.0
1231,A3,174.75,0.25,127,86.0
1232,B3,175.0,0.125,127,86.0
1233,A3,175.125,0.375,102,86.0
1234,A3,175.5,0.125,127,86.0
1235,F#3,175.625,0.125,127,86.0
1236,E3,175.75,0.125,127,86.0
1237,D3,175.875,0.125,102,86.0
1238,E3,176.0,0.25,127,86.0
1239,E3,176.25,0.25,127,86.0
1240,E3,176.5,0.25,127,86.0
1241,D3,176.75,0.25,127,86.0
1242,E3,177.0,0.125,127,86.0
1243,D3,177.125,0.125,102,86.0
1244,B2,177.25,0.25,127,86.0
1245,A2,177.5,0.25,127,86.0
1246,B2,177.75,0.25,127,86.0
1247,D3,178.0,0.25,127,86.0
1248,E3,178.25,0.25,127,86.0
1249,F#3,178.5,0.25,127,86.0
1250,D4,178.75,0.25,127,86.0
1251,A3,178.75,0.25,127,86.0
1252,F#4,179.0,0.25,127,86.0
1253,B4,179.25,0.75,127,86.0
1254,A4,180.0,0.25,127,86.0
1255,A4,180.25,0.25,127,86.0
1256,E5,180.5,0.25,127,86.0
1257,E5,180.75,0.25,127,86.0
1258,D5,181.0,0.125,127,86.0
1259,E5,181.125,0.125,127,86.0
1260,D5,181.25,0.25,102,86.0
1261,D5,181.5,0.5,127,86.0
1262,B4,182.0,0.125,127,86.0
1263,A4,182.125,0.125,102,86.0
1264,F#4,182.25,0.125,127,86.0
1265,F#4,182.375,0.125,127,86.0
1266,B4,182.5,0.25,127,86.0
1267,B4,182.75,0.25,127,86.0
1268,A4,183.0,0.125,127,86.0
1269,F#4,183.125,0.375,102,86.0
1270,A4,183.5,9/200,95,86.0
1271,F4,183.5,0.125,127,86.0
1272,E4,183.625,0.125,127,86.0
1273,D4,183.75,0.25,102,86.0
1274,E4,184.0,0.75,127,86.0
1275,D4,184.75,0.25,127,86.0
1276,B3,185.0,0.25,127,86.0
1277,B4,185.25,0.25,127,86.0
1278,F#4,185.5,0.25,127,86.0
1279,B4,185.75,0.25,127,86.0
1280,A4,186.0,0.25,127,86.0
1281,F#4,186.25,0.25,102,86.0
1282,B4,186.5,0.25,127,86.0
1283,B4,186.75,0.125,127,86.0
1284,A4,186.875,0.875,127,86.0
1285,F#4,187.75,0.25,127,86.0
1286,B4,188.25,0.375,127,86.0
1287,A4,188.625,0.125,127,86.0
1288,F#4,188.75,0.125,102,86.0
1289,B-4,188.875,0.125,102,86.0
1290,B4,189.0,0.125,127,86.0
1291,E5,189.125,0.125,102,86.0
1292,D5,189.25,0.125,102,86.0
1293,B4,189.375,0.125,102,86.0
1294,B4,189.5,0.25,127,86.0
1295,F#4,189.5,0.25,127,86.0
1296,B4,189.75,83/1000,127,86.0
1297,A4,189.833,83/1000,102,86.0
1298,F#4,189.917,83/1000,102,86.0
1299,A4,190.0,0.5,127,86.0
1300,E4,190.5,0.125,127,86.0
1301,D4,190.625,0.125,102,86.0
1302,B3,190.75,0.25,127,86.0
1303,D4,191.0,0.125,127,86.0
1304,A3,191.0,0.125,127,86.0
1305,B3,191.125,0.125,127,86.0
1306,A3,191.25,0.25,102,86.0
1307,D4,191.5,0.5,127,86.0
1308,A3,191.5,0.5,127,86.0
1309,B4,192.0,0.125,127,86.0
1310,F#4,192.125,0.125,102,86.0
1311,B4,192.25,0.125,127,86.0
1312,A4,192.375,0.125,102,86.0
1313,F#4,192.5,0.125,102,86.0
1314,B4,192.625,0.125,127,86.0
1315,D5,192.75,0.25,102,86.0
1316,E5,193.0,0.375,102,86.0
1317,E5,193.375,0.125,127,86.0
1318,A4,193.5,0.125,127,86.0
1319,F#4,193.625,0.125,102,86.0
1320,B4,193.75,83/1000,127,86.0
1321,A4,193.833,83/1000,102,86.0
1322,F#4,193.917,83/1000,102,86.0
1323,A4,194.0,0.375,102,86.0
1324,F#4,194.375,0.125,127,86.0
1325,E4,194.5,0.5,127,86.0
1326,F#4,195.0,0.125,127,86.0
1327,E4,195.125,0.125,127,86.0
1328,A3,195.25,0.125,127,86.0
1329,F#3,195.375,0.125,127,86.0
1330,F#4,195.5,0.5,127,86.0
1331,D4,195.5,0.5,127,86.0
1332,B4,196.0,0.25,127,86.0
1333,B4,196.25,83/1000,127,86.0
1334,A4,196.333,83/1000,102,86.0
1335,F#4,196.417,83/1000,102,86.0
1336,B3,196.5,9/200,95,86.0
1337,D5,196.5,0.125,127,86.0
1338,G3,196.5,0.125,127,86.0
1339,E5,196.625,0.375,102,86.0
1340,B4,197.0,83/1000,127,86.0
1341,B4,197.083,83/1000,127,86.0
1342,A4,197.167,167/1000,102,86.0
1343,F#4,197.333,167/1000,102,86.0
1344,B4,197.5,0.25,127,86.0
1345,A4,197.75,0.75,127,86.0
1346,F#4,198.5,0.25,127,86.0
1347,A4,198.75,0.125,127,86.0
1348,F#4,198.875,0.125,102,86.0
1349,E4,199.0,0.25,127,86.0
1350,D4,199.25,0.25,127,86.0
1351,G3,199.5,0.125,127,86.0
1352,B3,199.625,0.125,127,86.0
1353,A3,199.75,0.25,102,86.0
1354,C#4,200.0,0.25,127,86.0
1355,A3,200.0,0.25,127,86.0
1356,B3,200.25,0.25,127,86.0
1357,D4,200.5,0.25,127,86.0
1358,D4,200.75,0.25,127,86.0
1359,E4,201.0,0.5,127,86.0
1360,E4,201.5,0.125,127,86.0
1361,D4,201.625,0.125,102,86.0
1362,B3,201.75,0.125,127,86.0
1363,B3,201.875,0.125,127,86.0
1364,A3,202.0,0.25,127,86.0
1365,B3,202.25,0.25,127,86.0
1366,D4,202.5,0.25,127,86.0
1367,A3,202.75,0.25,127,86.0
1368,B3,203.0,0.25,127,86.0
1369,A3,203.25,0.25,127,86.0
1370,B3,203.5,0.125,127,86.0
1371,A3,203.625,0.125,102,86.0
1372,F#4,203.75,0.25,127,86.0
1373,F#4,204.0,0.25,127,86.0
1374,B3,204.188,9/200,95,86.0
1375,B3,204.25,0.125,111,86.0
1376,E4,204.25,0.125,111,86.0
1377,D4,204.375,0.125,102,86.0
1378,F#4,204.5,0.25,127,86.0
1379,B3,204.688,9/200,95,86.0
1380,B3,204.75,0.125,111,86.0
1381,E4,204.75,0.125,111,86.0
1382,D4,204.875,0.375,102,86.0
1383,F#4,205.25,0.25,127,86.0
1384,B3,205.438,9/200,95,86.0
1385,B3,205.5,167/1000,111,86.0
1386,E4,205.5,167/1000,111,86.0
1387,D4,205.667,167/1000,102,86.0
1388,E4,205.833,167/1000,102,86.0
1389,E4,206.0,833/1000,127,86.0
1390,D4,206.833,167/1000,127,86.0
1391,B3,207.0,0.25,127,86.0
1392,D4,207.25,0.25,127,86.0
1393,A3,207.5,0.25,127,86.0
1394,B3,207.75,0.25,102,86.0
1395,B3,208.0,0.75,127,86.0
1396,D3,208.75,0.25,127,86.0
1397,E3,209.0,0.25,127,86.0
1398,F#3,209.25,0.5,127,86.0
1399,E3,209.75,0.5,127,86.0
1400,D3,210.25,83/1000,127,86.0
1401,B2,210.333,83/1000,127,86.0
1402,A2,210.417,83/1000,102,86.0
1403,D3,210.5,0.25,127,86.0
1404,D3,210.75,0.25,127,86.0
1405,D3,211.0,0.25,127,86.0
1406,B2,211.25,0.25,127,86.0
1407,D3,211.5,0.25,127,86.0
1408,E3,211.75,0.25,127,86.0
1409,F#3,212.0,0.25,127,86.0
1410,A3,212.25,0.25,127,86.0
1411,A3,212.5,0.25,127,86.0
1412,B3,212.75,0.25,102,86.0
1413,B3,213.0,0.25,127,86.0
1414,A3,213.25,0.25,102,86.0
1415,B3,213.5,0.25,127,86.0
1416,B3,213.75,0.25,127,86.0
1417,D4,214.0,0.25,127,86.0
1418,B3,214.25,0.25,127,86.0
1419,A3,214.5,1.25,127,86.0
1420,B3,215.75,0.25,127,86.0
1421,B3,216.0,0.375,127,86.0
1422,A3,216.375,0.125,127,86.0
1423,B3,216.5,0.25,127,86.0
1424,A3,216.75,0.25,127,86.0
1425,B3,217.0,0.25,127,86.0
1426,B3,217.25,0.25,127,86.0
1427,E4,217.5,0.25,127,86.0
1428,D4,217.75,0.5,127,86.0
1429,B3,218.25,0.25,127,86.0
1430,A3,218.5,0.25,102,86.0
1431,A3,218.75,0.25,127,86.0
1432,B3,219.0,0.25,102,86.0
1433,A3,219.25,0.25,127,86.0
1434,B3,219.5,0.25,127,86.0
1435,B3,219.75,0.25,127,86.0
1436,B3,220.0,0.5,127,86.0
1437,A3,220.5,0.25,127,86.0
1438,A3,220.75,0.25,127,86.0
1439,B3,221.0,0.25,127,86.0
1440,A3,221.25,0.25,127,86.0
1441,E4,221.5,0.25,127,86.0
1442,D4,221.75,0.5,127,86.0
1443,B3,222.25,0.25,127,86.0
1444,A3,222.5,0.25,127,86.0
1445,A3,222.75,0.25,127,86.0
1446,A3,223.0,0.25,127,86.0
1447,B3,223.25,0.25,102,86.0
1448,A3,223.5,0.25,127,86.0
1449,B3,223.75,0.25,127,86.0
1450,B3,224.0,0.25,127,86.0
1451,A3,224.25,0.25,127,86.0
1452,B3,224.5,0.25,127,86.0
1453,A3,224.75,0.25,127,86.0
1454,B3,225.0,0.25,127,86.0
1455,D3,225.25,0.25,127,86.0
1456,E4,225.5,0.25,127,86.0
1457,D4,225.75,0.5,127,86.0
1458,B3,226.25,0.25,127,86.0
1459,A3,226.5,0.25,127,86.0
1460,A3,226.75,0.5,127,86.0
1461,B3,227.25,0.25,127,86.0
1462,B3,227.5,0.25,127,86.0
1463,A3,227.75,0.25,127,86.0
1464,B3,228.0,0.125,127,86.0
1465,A3,228.125,0.125,102,86.0
1466,B3,228.25,0.125,127,86.0
1467,A3,228.375,0.125,102,86.0
1468,F#3,228.5,0.25,127,86.0
1469,A3,228.75,83/1000,127,86.0
1470,F#3,228.833,83/1000,127,86.0
1471,E3,228.917,83/1000,102,86.0
1472,D3,229.0,0.25,102,86.0
1473,D3,229.25,0.25,127,86.0
1474,E3,229.5,0.25,127,86.0
1475,F#3,229.75,0.25,127,86.0
1476,F#3,230.0,0.25,127,86.0
1477,E3,230.25,0.125,102,86.0
1478,D3,230.375,0.125,102,86.0
1479,E3,230.5,0.125,127,86.0
1480,D3,230.625,0.125,102,86.0
1481,B2,230.75,0.25,127,86.0
1482,D3,231.0,0.25,127,86.0
1483,A2,231.25,0.25,127,86.0
1484,A2,231.5,0.25,127,86.0
1485,B2,231.75,0.25,102,86.0
1486,F#4,232.0,0.125,127,86.0
1487,A4,232.125,0.125,102,86.0
1488,F#4,232.25,0.125,102,86.0
1489,B3,232.375,0.125,102,86.0
1490,F#4,232.5,0.125,127,86.0
1491,A4,232.625,0.125,102,86.0
1492,F#4,232.75,0.125,102,86.0
1493,B3,232.875,0.125,102,86.0
1494,F#4,233.0,0.125,127,86.0
1495,A4,233.125,0.125,102,86.0
1496,F#4,233.25,0.125,102,86.0
1497,B3,233.375,0.125,102,86.0
1498,B4,233.5,0.125,127,86.0
1499,A4,233.625,0.125,127,86.0
1500,F#4,233.75,0.25,102,86.0
1501,B4,234.0,0.25,127,86.0
1502,E4,234.25,0.625,127,86.0
1503,D4,234.875,0.125,127,86.0
1504,D4,235.0,0.125,127,86.0
1505,B3,235.125,0.125,127,86.0
1506,A3,235.25,0.25,102,86.0
1507,D4,235.5,0.25,127,86.0
1508,A3,235.75,0.25,127,86.0
1509,B3,236.0,9/200,95,86.0
1510,A4,236.125,0.125,127,86.0
1511,A4,236.25,0.125,127,86.0
1512,F#4,236.375,0.125,102,86.0
1513,B3,236.5,0.25,102,86.0
1514,F#4,236.75,0.25,127,86.0
1515,D4,237.0,0.125,127,86.0
1516,E4,237.125,0.125,102,86.0
1517,D4,237.25,0.25,102,86.0
1518,D4,237.5,167/1000,127,86.0
1519,B3,237.667,167/1000,127,86.0
1520,A3,237.833,167/1000,102,86.0
1521,B3,238.0,0.25,127,86.0
1522,F#4,238.25,0.5,127,86.0
1523,A4,238.75,0.125,127,86.0
1524,F#4,238.875,0.125,102,86.0
1525,A4,239.0,0.25,127,86.0
1526,F#4,239.25,0.25,127,86.0
1527,C#5,239.5,167/1000,127,86.0
1528,B4,239.667,167/1000,102,86.0
1529,E4,239.833,167/1000,127,86.0
1530,A4,240.0,0.125,127,86.0
1531,E4,240.125,0.125,127,86.0
1532,D4,240.25,0.125,102,86.0
1533,E4,240.375,0.125,102,86.0
1534,E4,240.5,333/1000,127,86.0
1535,D4,240.833,167/1000,127,86.0
1536,B3,241.0,167/1000,127,86.0
1537,A3,241.167,167/1000,127,86.0
1538,E4,241.5,0.25,127,86.0
1539,B3,241.5,0.25,127,86.0
1540,E3,241.5,0.25,127,86.0
1541,D4,241.75,0.25,127,86.0
1542,A3,241.75,0.25,127,86.0
1543,D3,241.75,0.25,127,86.0
1544,E3,242.0,0.25,127,86.0
1545,F#3,242.25,0.25,127,86.0
1546,A3,242.5,0.25,127,86.0
1547,F#3,242.75,0.25,127,86.0
1548,F#3,243.0,0.25,127,86.0
1549,G#3,243.25,0.25,127,86.0
1550,E4,243.5,0.25,127,86.0
1551,B3,243.5,0.25,127,86.0
1552,E-3,243.75,0.25,127,86.0
1553,F#3,244.0,0.25,127,86.0
1554,F#3,244.25,0.25,127,86.0
1555,A3,244.5,0.25,127,86.0
1556,F#3,244.75,0.25,127,86.0
1557,E3,245.0,0.25,127,86.0
1558,D3,245.25,0.25,127,86.0
1559,B2,245.5,0.25,127,86.0
1560,B2,245.75,0.25,127,86.0
1561,D3,246.0,0.25,127,86.0
1562,B2,246.25,0.25,127,86.0
1563,D3,246.5,0.25,127,86.0
1564,B2,246.75,0.25,127,86.0
1565,E3,247.0,0.25,127,86.0
1566,D3,247.25,0.25,102,86.0
1567,D3,247.5,0.25,127,86.0
1568,E3,247.75,0.25,127,86.0
1569,F#3,248.0,0.25,127,86.0
1570,A3,248.25,0.25,127,86.0
1571,A3,248.5,0.25,127,86.0
1572,E4,248.75,0.5,127,86.0
1573,F#4,249.25,0.5,127,86.0
1574,A4,249.75,0.5,127,86.0
1575,C#5,250.25,0.5,127,86.0
1576,E5,250.75,0.5,127,86.0
1577,C#5,251.25,0.25,127,86.0
1578,A4,251.5,0.25,127,86.0
1579,F#4,251.75,0.25,127,86.0
1580,F#4,252.0,0.5,127,86.0
1581,F#4,252.5,0.5,127,86.0
1582,F#4,253.0,0.25,127,86.0
1583,E4,253.25,0.25,102,86.0
1584,F#4,253.5,1.5,127,86.0
1585,B4,255.25,0.25,127,86.0
1586,D5,255.5,0.25,127,86.0
1587,D5,255.75,0.25,127,86.0
1588,D5,256.0,0.5,127,86.0
1589,D5,256.5,0.5,127,86.0
1590,D5,257.0,0.625,127,86.0
1591,B4,257.625,0.375,127,86.0
1592,E5,258.0,0.25,127,86.0
1593,D5,258.25,0.5,127,86.0
1594,D5,258.75,0.125,127,86.0
1595,B4,258.875,0.125,102,86.0
1596,D5,259.0,0.5,127,86.0
1597,E5,259.5,0.125,127,86.0
1598,D5,259.625,0.125,127,86.0
1599,B4,259.75,0.25,102,86.0
1600,E5,260.0,0.25,127,86.0
1601,D5,260.25,0.25,127,86.0
1602,D5,260.5,0.25,127,86.0
1603,B4,260.75,0.25,127,86.0
1604,D5,261.0,0.25,127,86.0
1605,D5,261.25,0.25,127,86.0
1606,B4,261.5,0.25,127,86.0
1607,B4,261.75,1.25,127,86.0
1608,B4,263.25,0.25,127,86.0
1609,D5,263.5,0.5,127,86.0
1610,D5,264.0,1.0,127,86.0
1611,D5,265.0,0.5,127,86.0
1612,B4,265.5,0.25,127,86.0
1613,D5,265.75,0.5,127,86.0
1614,B4,266.25,0.25,127,86.0
1615,D5,266.5,0.25,127,86.0
1616,D5,266.75,0.125,127,86.0
1617,B4,266.875,0.125,102,86.0
1618,D5,267.0,0.125,127,86.0
1619,B4,267.125,0.125,102,86.0
1620,B-4,267.25,0.25,127,86.0
1621,E5,267.5,167/1000,127,86.0
1622,B4,267.667,167/1000,102,86.0
1623,D5,267.833,167/1000,102,86.0
1624,E5,268.0,83/1000,127,86.0
1625,D5,268.083,83/1000,102,86.0
1626,B4,268.167,83/1000,102,86.0
1627,D5,268.25,0.25,102,86.0
1628,E5,268.5,0.125,127,86.0
1629,A4,268.625,0.125,127,86.0
1630,B4,268.75,0.25,127,86.0
1631,E5,269.0,0.125,127,86.0
1632,D5,269.125,0.125,127,86.0
1633,B4,269.25,0.25,102,86.0
1634,E5,269.5,0.25,127,86.0
1635,D5,269.75,0.25,127,86.0
1636,B4,270.0,0.25,127,86.0
1637,A4,270.25,0.25,127,86.0
1638,B4,270.5,0.75,127,86.0
1639,B-4,271.25,0.25,127,86.0
1640,B4,271.5,0.25,127,86.0
1641,F#4,271.75,0.25,127,86.0
1642,B-4,272.0,0.375,127,86.0
1643,A4,272.375,0.125,102,86.0
1644,F#4,272.5,0.25,102,86.0
1645,B4,272.75,0.375,127,86.0
1646,A4,273.125,0.125,127,86.0
1647,F#4,273.25,0.25,102,86.0
1648,B-4,273.5,0.375,127,86.0
1649,A4,273.875,0.125,102,86.0
1650,F#4,274.0,0.25,102,86.0
1651,A4,274.25,0.375,127,86.0
1652,G#4,274.625,0.125,127,86.0
1653,F#4,274.75,0.25,102,86.0
1654,G#4,275.0,0.125,127,86.0
1655,G4,275.125,0.375,102,86.0
1656,F#4,275.5,0.25,102,86.0
1657,F#4,275.75,0.125,127,86.0
1658,E4,275.875,0.125,127,86.0
1659,D4,276.0,0.125,102,86.0
1660,B3,276.125,0.25,127,86.0
1661,B3,276.375,0.125,127,86.0
1662,A3,276.5,0.25,102,86.0
1663,D4,276.75,0.125,127,86.0
1664,A3,276.875,0.125,127,86.0
1665,E3,277.0,0.25,127,86.0
1666,F#3,277.25,0.25,127,86.0
1667,E3,277.5,0.25,127,86.0
1668,D3,277.75,0.25,127,86.0
1669,E3,278.0,0.25,127,86.0
1670,F#3,278.25,0.25,127,86.0
1671,A3,278.5,167/1000,127,86.0
1672,B3,278.667,167/1000,127,86.0
1673,A3,278.833,167/1000,127,86.0
1674,B4,279.25,0.25,127,86.0
1675,F#4,279.5,0.25,127,86.0
1676,E5,279.75,0.25,127,86.0
1677,B4,279.75,0.25,127,86.0
1678,E5,280.0,1/10,127,86.0
1679,B4,280.0,1/10,127,86.0
1680,A4,280.1,1/10,127,86.0
1681,F#4,280.2,1/5,102,86.0
1682,A4,280.4,1/10,127,86.0
1683,A4,280.5,167/1000,127,86.0
1684,F#4,280.667,167/1000,102,86.0
1685,G#4,280.833,73/250,127,86.0
1686,F#4,281.125,0.25,127,86.0
1687,A4,281.375,0.125,127,86.0
1688,A4,281.5,333/1000,127,86.0
1689,B4,281.833,417/1000,127,86.0
1690,A4,282.25,0.125,127,86.0
1691,F#4,282.375,0.125,102,86.0
1692,A4,282.5,167/1000,127,86.0
1693,A4,282.833,73/250,127,86.0
1694,G#4,283.125,0.125,127,86.0
1695,F#4,283.25,0.25,102,86.0
1696,G#4,283.5,333/1000,127,86.0
1697,B3,283.833,9/200,95,86.0
1698,G3,283.833,9/200,95,86.0
1699,B4,284.0,0.375,127,86.0
1700,A4,284.375,0.125,102,86.0
1701,F#4,284.5,167/1000,102,86.0
1702,A4,284.667,167/1000,127,86.0
1703,A4,285.0,0.375,127,86.0
1704,G#4,285.375,0.125,102,86.0
1705,F#4,285.5,167/1000,102,86.0
1706,A4,285.667,333/1000,127,86.0
1707,B4,286.0,0.375,127,86.0
1708,A4,286.375,0.125,102,86.0
1709,F#4,286.5,0.25,102,86.0
1710,A4,286.75,0.5,127,86.0
1711,G#4,287.25,0.25,127,86.0
1712,F#4,287.5,0.25,127,86.0
1713,A4,287.75,0.25,127,86.0
1714,C#5,288.0,0.25,127,86.0
1715,E2,304.0,0.25,127,86.0
1716,E3,304.0,0.25,127,86.0
1717,E1,304.0,0.25,127,86.0
1718,G2,304.25,0.25,127,86.0
1719,G3,304.25,0.25,127,86.0
1720,G1,304.25,0.25,127,86.0
1721,B2,304.5,0.25,127,86.0
1722,B3,304.5,0.25,127,86.0
1723,B1,304.5,0.25,127,86.0
1724,D3,304.75,0.75,127,86.0
1725,D4,304.75,0.75,127,86.0
1726,D2,304.75,0.75,127,86.0
1727,D3,305.5,0.25,127,86.0
1728,D4,305.5,0.25,127,86.0
1729,D2,305.5,0.25,127,86.0
1730,B2,305.75,0.25,127,86.0
1731,B3,305.75,0.25,127,86.0
1732,B1,305.75,0.25,127,86.0
1733,D3,306.0,0.25,127,86.0
1734,D4,306.0,0.25,127,86.0
1735,D2,306.0,0.25,127,86.0
1736,B2,306.25,0.25,127,86.0
1737,B3,306.25,0.25,127,86.0
1738,B1,306.25,0.25,127,86.0
1739,B3,306.5,0.25,127,86.0
1740,B2,306.5,0.25,127,86.0
1741,B4,306.5,0.25,127,86.0
1742,G4,306.5,0.25,127,86.0
1743,A3,306.75,1.25,127,86.0
1744,A2,306.75,1.25,127,86.0
1745,A4,306.75,0.75,127,86.0
1746,E4,306.75,0.75,127,86.0
1747,E2,308.0,0.25,127,86.0
1748,E3,308.0,0.25,127,86.0
1749,E1,308.0,0.25,127,86.0
1750,G2,308.25,0.25,127,86.0
1751,G3,308.25,0.25,127,86.0
1752,G1,308.25,0.25,127,86.0
1753,B2,308.5,0.25,127,86.0
1754,B3,308.5,0.25,127,86.0
1755,B1,308.5,0.25,127,86.0
1756,D3,308.75,0.75,127,86.0
1757,D4,308.75,0.75,127,86.0
1758,D2,308.75,0.75,127,86.0
1759,D3,309.5,0.25,127,86.0
1760,D4,309.5,0.25,127,86.0
1761,D2,309.5,0.25,127,86.0
1762,B2,309.75,0.25,127,86.0
1763,B3,309.75,0.25,127,86.0
1764,B1,309.75,0.25,127,86.0
1765,D3,310.0,0.25,127,86.0
1766,D4,310.0,0.25,127,86.0
1767,D2,310.0,0.25,127,86.0
1768,B2,310.25,0.25,127,86.0
1769,B3,310.25,0.25,127,86.0
1770,B1,310.25,0.25,127,86.0
1771,B3,310.5,0.25,127,86.0
1772,B2,310.5,0.25,127,86.0
1773,B4,310.5,0.25,127,86.0
1774,G4,310.5,0.25,127,86.0
1775,A3,310.75,1.25,127,86.0
1776,A2,310.75,1.25,127,86.0
1777,A4,310.75,0.75,127,86.0
1778,E4,310.75,0.75,127,86.0
1779,E2,312.0,0.25,127,86.0
1780,E3,312.0,0.25,127,86.0
1781,E1,312.0,0.25,127,86.0
1782,G2,312.25,0.25,127,86.0
1783,G3,312.25,0.25,127,86.0
1784,G1,312.25,0.25,127,86.0
1785,B2,312.5,0.25,127,86.0
1786,B3,312.5,0.25,127,86.0
1787,B1,312.5,0.25,127,86.0
1788,D3,312.75,0.75,127,86.0
1789,D4,312.75,0.75,127,86.0
1790,D2,312.75,0.75,127,86.0
1791,D3,313.5,0.25,127,86.0
1792,D4,313.5,0.25,127,86.0
1793,D2,313.5,0.25,127,86.0
1794,B2,313.75,0.25,127,86.0
1795,B3,313.75,0.25,127,86.0
1796,B1,313.75,0.25,127,86.0
1797,D3,314.0,0.25,127,86.0
1798,D4,314.0,0.25,127,86.0
1799,D2,314.0,0.25,127,86.0
1800,B2,314.25,0.25,127,86.0
1801,B3,314.25,0.25,127,86.0
1802,B1,314.25,0.25,127,86.0
1803,B3,314.5,0.25,127,86.0
1804,B2,314.5,0.25,127,86.0
1805,B4,314.5,0.25,127,86.0
1806,G4,314.5,0.25,127,86.0
1807,A3,314.75,1.25,127,86.0
1808,A2,314.75,1.25,127,86.0
1809,A4,314.75,0.75,127,86.0
1810,E4,314.75,0.75,127,86.0
1811,E2,316.0,0.25,127,86.0
1812,E3,316.0,0.25,127,86.0
1813,E1,316.0,0.25,127,86.0
1814,G2,316.25,0.25,127,86.0
1815,G3,316.25,0.25,127,86.0
1816,G1,316.25,0.25,127,86.0
1817,B2,316.5,0.25,127,86.0
1818,B3,316.5,0.25,127,86.0
1819,B1,316.5,0.25,127,86.0
1820,D3,316.75,0.75,127,86.0
1821,D4,316.75,0.75,127,86.0
1822,D2,316.75,0.75,127,86.0
1823,D3,317.5,0.25,127,86.0
1824,D4,317.5,0.25,127,86.0
1825,D2,317.5,0.25,127,86.0
1826,B2,317.75,0.25,127,86.0
1827,B3,317.75,0.25,127,86.0
1828,B1,317.75,0.25,127,86.0
1829,D3,318.0,0.25,127,86.0
1830,D4,318.0,0.25,127,86.0
1831,D2,318.0,0.25,127,86.0
1832,B2,318.25,0.25,127,86.0
1833,B3,318.25,0.25,127,86.0
1834,B1,318.25,0.25,127,86.0
1835,B3,318.5,0.25,127,86.0
1836,B2,318.5,0.25,127,86.0
1837,B4,318.5,0.25,127,86.0
1838,G4,318.5,0.25,127,86.0
1839,A3,318.75,1.25,127,86.0
1840,A2,318.75,1.25,127,86.0
1841,A4,318.75,0.75,127,86.0
1842,E4,318.75,0.75,127,86.0
1843,E2,320.0,0.25,127,86.0
1844,G2,320.25,0.25,127,86.0
1845,B2,320.5,0.25,127,86.0
1846,B4,320.5,0.25,127,86.0
1847,D3,320.75,0.75,127,86.0
1848,F#4,320.75,1.0,127,86.0
1849,D3,321.5,0.25,127,86.0
1850,B2,321.75,0.25,127,86.0
1851,F#4,321.75,417/1000,127,86.0
1852,D3,322.0,0.25,127,86.0
1853,E4,322.167,167/1000,127,86.0
1854,B2,322.25,0.25,127,86.0
1855,B3,322.5,0.25,127,86.0
1856,E4,322.5,0.25,127,86.0
1857,A3,322.75,1.25,127,86.0
1858,D4,322.75,0.25,127,86.0
1859,E4,323.0,1.0,127,86.0
1860,E2,324.0,0.25,127,86.0
1861,G2,324.25,0.25,127,86.0
1862,B2,324.5,0.25,127,86.0
1863,B4,324.5,0.25,127,86.0
1864,D3,324.75,0.75,127,86.0
1865,F#4,324.75,0.75,127,86.0
1866,D3,325.5,0.25,127,86.0
1867,E4,325.5,0.25,127,86.0
1868,B2,325.75,0.25,127,86.0
1869,F#4,325.75,0.5,127,86.0
1870,D3,326.0,0.25,127,86.0
1871,B2,326.25,0.25,127,86.0
1872,E4,326.25,0.25,127,86.0
1873,B3,326.5,0.25,127,86.0
1874,E4,326.5,0.25,127,86.0
1875,A3,326.75,1.25,127,86.0
1876,E4,326.75,0.25,127,86.0
1877,E4,327.0,1.0,127,86.0
1878,E2,328.0,0.25,127,86.0
1879,G2,328.25,0.25,127,86.0
1880,B2,328.5,0.25,127,86.0
1881,B4,328.5,0.25,127,86.0
1882,D3,328.75,0.75,127,86.0
1883,F#4,328.75,1.25,127,86.0
1884,D3,329.5,0.25,127,86.0
1885,B2,329.75,0.25,127,86.0
1886,D3,330.0,0.25,127,86.0
1887,F#4,330.0,0.125,127,86.0
1888,E4,330.125,0.125,102,86.0
1889,B2,330.25,0.25,127,86.0
1890,D4,330.25,0.25,127,86.0
1891,B3,330.5,0.25,127,86.0
1892,E4,330.5,0.25,127,86.0
1893,A3,330.75,1.25,127,86.0
1894,D4,330.75,0.25,127,86.0
1895,E4,331.0,1.0,127,86.0
1896,E2,332.0,0.25,127,86.0
1897,G2,332.25,0.25,127,86.0
1898,B2,332.5,0.25,127,86.0
1899,B4,332.5,0.25,127,86.0
1900,D3,332.75,0.75,127,86.0
1901,F#4,332.75,1.25,127,86.0
1902,D3,333.5,0.25,127,86.0
1903,B2,333.75,0.25,127,86.0
1904,D3,334.0,0.25,127,86.0
1905,F#4,334.0,0.125,127,86.0
1906,E4,334.125,0.125,102,86.0
1907,B2,334.25,0.25,127,86.0
1908,D4,334.25,0.25,127,86.0
1909,B3,334.5,0.25,127,86.0
1910,E4,334.5,0.25,127,86.0
1911,A3,334.75,1.25,127,86.0
1912,D4,334.75,0.25,127,86.0
1913,E4,335.0,0.75,127,86.0
1914,A4,335.75,0.25,127,86.0
1915,E2,336.0,0.25,127,86.0
1916,B4,336.0,0.25,127,86.0
1917,G2,336.25,0.25,127,86.0
1918,E5,336.25,0.25,127,86.0
1919,B2,336.5,0.25,127,86.0
1920,F#4,336.5,1.0,127,86.0
1921,D3,336.75,0.75,127,86.0
1922,D3,337.5,0.25,127,86.0
1923,E4,337.5,0.25,127,86.0
1924,B2,337.75,0.25,127,86.0
1925,D4,337.75,0.25,127,86.0
1926,D3,338.0,0.25,127,86.0
1927,F#4,338.0,0.375,127,86.0
1928,B2,338.25,0.25,127,86.0
1929,E4,338.375,0.125,127,86.0
1930,B3,338.5,0.25,127,86.0
1931,F#4,338.5,0.125,127,86.0
1932,E4,338.625,0.125,102,86.0
1933,A3,338.75,1.25,127,86.0
1934,D4,338.75,0.25,127,86.0
1935,E4,339.0,1.0,127,86.0
1936,E2,340.0,0.25,127,86.0
1937,B4,340.0,0.25,127,86.0
1938,G2,340.25,0.25,127,86.0
1939,E5,340.25,0.25,127,86.0
1940,B2,340.5,0.25,127,86.0
1941,F#4,340.5,0.25,127,86.0
1942,D3,340.75,0.75,127,86.0
1943,E4,340.75,0.75,127,86.0
1944,D3,341.5,0.25,127,86.0
1945,G4,341.5,0.25,127,86.0
1946,B2,341.75,0.25,127,86.0
1947,F#4,341.75,0.125,127,86.0
1948,E4,341.875,0.125,102,86.0
1949,D3,342.0,0.25,127,86.0
1950,F#4,342.0,1/5,127,86.0
1951,E4,342.2,1/5,102,86.0
1952,B2,342.25,0.25,127,86.0
1953,D4,342.4,1/5,127,86.0
1954,B3,342.5,0.25,127,86.0
1955,E4,342.6,1/5,127,86.0
1956,A3,342.75,1.25,127,86.0
1957,D4,342.8,1/5,127,86.0
1958,E4,343.0,1.0,127,86.0
1959,E2,344.0,0.25,127,86.0
1960,B4,344.0,0.25,127,86.0
1961,G2,344.25,0.25,127,86.0
1962,B2,344.5,0.25,127,86.0
1963,E-4,344.5,0.25,127,86.0
1964,D3,344.75,0.75,127,86.0
1965,E4,344.75,0.75,127,86.0
1966,D3,345.5,0.25,127,86.0
1967,D4,345.5,0.25,127,86.0
1968,B2,345.75,0.25,127,86.0
1969,B3,345.75,0.25,127,86.0
1970,D3,346.0,0.25,127,86.0
1971,D4,346.0,0.25,127,86.0
1972,B2,346.25,0.25,127,86.0
1973,D4,346.25,0.25,127,86.0
1974,B3,346.5,0.25,127,86.0
1975,B3,346.5,0.25,127,86.0
1976,A3,346.75,1.25,127,86.0
1977,A3,346.75,0.25,127,86.0
1978,D4,347.0,0.25,127,86.0
1979,D4,347.25,0.25,127,86.0
1980,B3,347.5,0.25,127,86.0
1981,D4,347.75,0.25,127,86.0
1982,E2,348.0,0.25,127,86.0
1983,B4,348.0,0.25,127,86.0
1984,G2,348.25,0.25,127,86.0
1985,E5,348.25,0.25,127,86.0
1986,B2,348.5,0.25,127,86.0
1987,F#4,348.5,0.25,127,86.0
1988,D3,348.75,0.75,127,86.0
1989,F#4,348.75,0.75,127,86.0
1990,D3,349.5,0.25,127,86.0
1991,E4,349.5,0.25,127,86.0
1992,B2,349.75,0.25,127,86.0
1993,D4,349.75,0.25,127,86.0
1994,D3,350.0,0.25,127,86.0
1995,E4,350.0,0.25,127,86.0
1996,B2,350.25,0.25,127,86.0
1997,D4,350.25,0.25,127,86.0
1998,B3,350.5,0.25,127,86.0
1999,B3,350.5,0.25,127,86.0
2000,A3,350.75,1.25,127,86.0
2001,A3,350.75,0.25,127,86.0
2002,D4,351.0,0.25,127,86.0
2003,D4,351.5,0.25,127,86.0
2004,E5,351.75,0.25,127,86.0
2005,E2,352.0,0.25,127,86.0
2006,E5,352.0,0.25,127,86.0
2007,G2,352.25,0.25,127,86.0
2008,F#4,352.25,0.5,127,86.0
2009,B2,352.5,0.25,127,86.0
2010,D3,352.75,0.75,127,86.0
2011,F#4,352.75,0.25,127,86.0
2012,F#4,353.0,0.5,127,86.0
2013,D3,353.5,0.25,127,86.0
2014,E4,353.5,0.25,127,86.0
2015,B2,353.75,0.25,127,86.0
2016,F#4,353.75,0.125,127,86.0
2017,E4,353.875,0.125,102,86.0
2018,D3,354.0,0.25,127,86.0
2019,E4,354.0,0.25,127,86.0
2020,B2,354.25,0.25,127,86.0
2021,D4,354.25,0.25,127,86.0
2022,B3,354.5,0.25,127,86.0
2023,A3,354.5,0.25,127,86.0
2024,A3,354.75,1.25,127,86.0
2025,B3,354.75,1.0,127,86.0
2026,E5,355.75,0.25,127,86.0
2027,E2,356.0,0.25,127,86.0
2028,E5,356.0,0.25,127,86.0
2029,G2,356.25,0.25,127,86.0
2030,B4,356.25,0.125,127,86.0
2031,F#4,356.375,0.125,127,86.0
2032,B2,356.5,0.25,127,86.0
2033,E4,356.5,0.25,102,86.0
2034,D3,356.75,0.75,127,86.0
2035,F#4,356.75,0.75,127,86.0
2036,D3,357.5,0.25,127,86.0
2037,F#4,357.5,0.25,127,86.0
2038,B2,357.75,0.25,127,86.0
2039,F#4,357.75,0.5,127,86.0
2040,D3,358.0,0.25,127,86.0
2041,B2,358.25,0.25,127,86.0
2042,E4,358.25,0.25,127,86.0
2043,B3,358.5,0.25,127,86.0
2044,D4,358.5,0.25,127,86.0
2045,A3,358.75,1.25,127,86.0
2046,E4,358.75,1.0,127,86.0
2047,G4,359.75,0.25,127,86.0
2048,E2,360.0,0.25,127,86.0
2049,B4,360.0,0.25,127,86.0
2050,G2,360.25,0.25,127,86.0
2051,E5,360.25,0.25,127,86.0
2052,B2,360.5,0.25,127,86.0
2053,F#4,360.5,1.0,127,86.0
2054,D3,360.75,0.75,127,86.0
2055,D3,361.5,0.25,127,86.0
2056,E4,361.5,0.25,127,86.0
2057,B2,361.75,0.25,127,86.0
2058,C#4,361.75,0.25,127,86.0
2059,D3,362.0,0.25,127,86.0
2060,E4,362.0,0.25,127,86.0
2061,B2,362.25,0.25,127,86.0
2062,F#4,362.25,0.5,127,86.0
2063,B3,362.5,0.25,127,86.0
2064,A3,362.75,1.25,127,86.0
2065,E4,362.75,1.25,127,86.0
2066,E2,364.0,0.25,127,86.0
2067,B4,364.0,0.25,127,86.0
2068,G2,364.25,0.25,127,86.0
2069,E5,364.25,0.25,127,86.0
2070,B2,364.5,0.25,127,86.0
2071,F#4,364.5,0.25,127,86.0
2072,D3,364.75,0.75,127,86.0
2073,F#4,364.75,0.75,127,86.0
2074,D3,365.5,0.25,127,86.0
2075,E4,365.5,0.25,127,86.0
2076,B2,365.75,0.25,127,86.0
2077,D4,365.75,0.25,127,86.0
2078,D3,366.0,0.25,127,86.0
2079,E4,366.0,0.25,127,86.0
2080,B2,366.25,0.25,127,86.0
2081,D4,366.25,0.25,127,86.0
2082,B3,366.5,0.25,127,86.0
2083,E4,366.5,0.25,127,86.0
2084,A3,366.75,1.25,127,86.0
2085,G4,366.75,0.75,127,86.0
2086,E2,368.0,0.25,127,86.0
2087,B4,368.0,0.25,127,86.0
2088,G2,368.25,0.25,127,86.0
2089,E5,368.25,0.25,127,86.0
2090,B2,368.5,0.25,127,86.0
2091,F#4,368.5,0.25,127,86.0
2092,D3,368.75,0.75,127,86.0
2093,F#4,368.75,0.75,127,86.0
2094,D3,369.5,0.25,127,86.0
2095,E4,369.5,0.25,127,86.0
2096,B2,369.75,0.25,127,86.0
2097,D4,369.75,0.25,127,86.0
2098,D3,370.0,0.25,127,86.0
2099,D4,370.0,0.25,127,86.0
2100,B2,370.25,0.25,127,86.0
2101,E4,370.25,0.25,127,86.0
2102,B3,370.5,0.25,127,86.0
2103,G4,370.5,0.25,127,86.0
2104,A3,370.75,1.25,127,86.0
2105,E4,370.75,1.25,127,86.0
2106,E2,372.0,0.25,127,86.0
2107,B4,372.0,0.25,127,86.0
2108,G2,372.25,0.25,127,86.0
2109,E5,372.25,0.25,127,86.0
2110,B2,372.5,0.25,127,86.0
2111,F#4,372.5,0.25,127,86.0
2112,D3,372.75,0.75,127,86.0
2113,F#4,372.75,0.75,127,86.0
2114,D3,373.5,0.25,127,86.0
2115,E4,373.5,0.25,127,86.0
2116,B2,373.75,0.25,127,86.0
2117,D4,373.75,0.25,127,86.0
2118,D3,374.0,0.25,127,86.0
2119,E4,374.0,0.25,127,86.0
2120,B2,374.25,0.25,127,86.0
2121,B3,374.25,0.25,127,86.0
2122,B3,374.5,0.25,127,86.0
2123,B4,374.5,0.25,127,86.0
2124,G4,374.5,0.25,127,86.0
2125,A3,374.75,1.25,127,86.0
2126,C#5,374.75,1.25,127,86.0
2127,A4,374.75,1.25,127,86.0
2128,E2,376.0,0.25,127,86.0
2129,B4,376.0,0.25,127,86.0
2130,G2,376.25,0.25,127,86.0
2131,E5,376.25,0.25,127,86.0
2132,B2,376.5,0.25,127,86.0
2133,F#4,376.5,0.25,127,86.0
2134,D3,376.75,0.75,127,86.0
2135,E4,376.75,1.0,127,86.0
2136,D3,377.5,0.25,127,86.0
2137,B2,377.75,0.25,127,86.0
2138,B3,377.75,0.25,127,86.0
2139,D3,378.0,0.25,127,86.0
2140,G4,378.0,0.5,127,86.0
2141,B2,378.25,0.25,127,86.0
2142,B3,378.5,0.25,127,86.0
2143,G4,378.5,0.25,127,86.0
2144,A3,378.75,1.25,127,86.0
2145,A4,378.75,0.75,127,86.0
2146,C#5,379.5,0.25,127,86.0
2147,B4,379.75,0.25,127,86.0
2148,E2,380.0,0.25,127,86.0
2149,B4,380.0,0.25,127,86.0
2150,G2,380.25,0.25,127,86.0
2151,E5,380.25,0.25,127,86.0
2152,B2,380.5,0.25,127,86.0
2153,F#4,380.5,0.25,127,86.0
2154,D3,380.75,0.75,127,86.0
2155,F#4,380.75,0.75,127,86.0
2156,D3,381.5,0.25,127,86.0
2157,E4,381.5,0.25,127,86.0
2158,B2,381.75,0.25,127,86.0
2159,B3,381.75,0.25,127,86.0
2160,D3,382.0,0.25,127,86.0
2161,G4,382.0,0.5,127,86.0
2162,B2,382.25,0.25,127,86.0
2163,B3,382.5,0.25,127,86.0
2164,B4,382.5,0.25,127,86.0
2165,G4,382.5,0.25,127,86.0
2166,A3,382.75,1.25,127,86.0
2167,C#5,382.75,0.75,127,86.0
2168,A4,382.75,0.75,127,86.0
2169,B4,383.5,0.25,127,86.0
2170,B4,383.75,0.25,127,86.0
2171,E2,384.0,0.25,127,86.0
2172,B4,384.0,0.25,127,86.0
2173,G2,384.25,0.25,127,86.0
2174,E5,384.25,0.25,127,86.0
2175,B2,384.5,0.25,127,86.0
2176,F#4,384.5,1.0,127,86.0
2177,D3,384.75,0.75,127,86.0
2178,D3,385.5,0.25,127,86.0
2179,E4,385.5,0.25,127,86.0
2180,B2,385.75,0.25,127,86.0
2181,D4,385.75,0.25,127,86.0
2182,D3,386.0,0.25,127,86.0
2183,G4,386.0,0.5,127,86.0
2184,B2,386.25,0.25,127,86.0
2185,B3,386.5,0.25,127,86.0
2186,B4,386.5,0.25,127,86.0
2187,G4,386.5,0.25,127,86.0
2188,A3,386.75,1.25,127,86.0
2189,C#5,386.75,0.5,127,86.0
2190,A4,386.75,0.5,127,86.0
2191,G4,387.25,0.5,127,86.0
2192,D5,387.75,0.25,127,86.0
2193,E2,388.0,0.25,127,86.0
2194,D5,388.0,1.0,127,86.0
2195,G2,388.25,0.25,127,86.0
2196,B2,388.5,0.25,127,86.0
2197,D3,388.75,0.75,127,86.0
2198,E5,389.0,0.25,127,86.0
2199,C#5,389.25,0.25,127,86.0
2200,A4,389.25,0.25,127,86.0
2201,D3,389.5,0.25,127,86.0
2202,B2,389.75,0.25,127,86.0
2203,B4,389.75,0.25,127,86.0
2204,D3,390.0,0.25,127,86.0
2205,B2,390.25,0.25,127,86.0
2206,G4,390.25,0.25,127,86.0
2207,B3,390.5,0.25,127,86.0
2208,A3,390.75,1.25,127,86.0
2209,G4,390.75,0.25,127,86.0
2210,E4,391.0,0.5,127,86.0
2211,D5,391.75,0.25,127,86.0
2212,E2,392.0,0.25,127,86.0
2213,D5,392.0,1.25,127,86.0
2214,G2,392.25,0.25,127,86.0
2215,B2,392.5,0.25,127,86.0
2216,D3,392.75,0.75,127,86.0
2217,B4,393.25,0.125,127,86.0
2218,A4,393.375,0.125,127,86.0
2219,D3,393.5,0.25,127,86.0
2220,G4,393.5,0.25,102,86.0
2221,B2,393.75,0.25,127,86.0
2222,E5,393.75,0.25,127,86.0
2223,D3,394.0,0.25,127,86.0
2224,A4,394.0,0.5,127,86.0
2225,B2,394.25,0.25,127,86.0
2226,B3,394.5,0.25,127,86.0
2227,G4,394.5,0.25,127,86.0
2228,A3,394.75,1.25,127,86.0
2229,E4,394.75,0.25,127,86.0
2230,E4,395.0,0.5,127,86.0
2231,B4,395.5,0.25,127,86.0
2232,D5,395.75,0.25,127,86.0
2233,E2,396.0,0.25,127,86.0
2234,D5,396.0,1.0,127,86.0
2235,G2,396.25,0.25,127,86.0
2236,B2,396.5,0.25,127,86.0
2237,D3,396.75,0.75,127,86.0
2238,B4,397.25,0.125,127,86.0
2239,A4,397.375,0.125,127,86.0
2240,D3,397.5,0.25,127,86.0
2241,G4,397.5,0.25,102,86.0
2242,B2,397.75,0.25,127,86.0
2243,E5,397.75,0.25,127,86.0
2244,D3,398.0,0.25,127,86.0
2245,D4,398.0,0.25,127,86.0
2246,B2,398.25,0.25,127,86.0
2247,B3,398.5,0.25,127,86.0
2248,A4,398.5,0.25,127,86.0
2249,E4,398.5,0.25,127,86.0
2250,A3,398.75,1.25,127,86.0
2251,G4,398.75,1.0,127,86.0
2252,D4,398.75,1.0,127,86.0
2253,D5,399.75,0.25,127,86.0
2254,E2,400.0,0.25,127,86.0
2255,D5,400.0,1.0,127,86.0
2256,G2,400.25,0.25,127,86.0
2257,B2,400.5,0.25,127,86.0
2258,D3,400.75,0.75,127,86.0
2259,E5,401.25,0.125,127,86.0
2260,D5,401.375,0.125,127,86.0
2261,D3,401.5,0.25,127,86.0
2262,B4,401.5,0.25,102,86.0
2263,B2,401.75,0.25,127,86.0
2264,E5,401.75,0.25,127,86.0
2265,D3,402.0,0.25,127,86.0
2266,G4,402.0,0.5,127,86.0
2267,B2,402.25,0.25,127,86.0
2268,B3,402.5,0.25,127,86.0
2269,B4,402.5,0.25,127,86.0
2270,G4,402.5,0.25,127,86.0
2271,A3,402.75,1.25,127,86.0
2272,C#5,402.75,0.75,127,86.0
2273,A4,402.75,0.75,127,86.0
2274,B4,403.5,0.25,127,86.0
2275,E2,404.0,0.25,127,86.0
2276,B3,404.0,0.25,127,86.0
2277,G2,404.25,0.25,127,86.0
2278,E4,404.25,0.25,127,86.0
2279,B2,404.5,0.25,127,86.0
2280,E4,404.5,0.25,127,86.0
2281,D3,404.75,0.75,127,86.0
2282,E4,404.75,0.25,127,86.0
2283,E4,405.0,0.5,127,86.0
2284,D3,405.5,0.25,127,86.0
2285,E4,405.5,0.25,127,86.0
2286,B3,405.5,0.25,127,86.0
2287,B2,405.75,0.25,127,86.0
2288,B3,405.75,0.25,127,86.0
2289,D3,406.0,0.25,127,86.0
2290,E4,406.0,0.25,127,86.0
2291,B2,406.25,0.25,127,86.0
2292,E4,406.25,0.125,127,86.0
2293,E4,406.375,0.125,127,86.0
2294,B3,406.5,0.25,127,86.0
2295,G4,406.5,0.5,127,86.0
2296,D4,406.5,0.5,127,86.0
2297,B3,406.5,0.5,127,86.0
2298,A3,406.75,1.25,127,86.0
2299,A4,407.0,0.5,127,86.0
2300,E4,407.0,0.5,127,86.0
2301,C#4,407.0,0.5,127,86.0
2302,E4,407.5,0.25,127,86.0
2303,D4,407.938,0.062,127,86.0
2304,E2,408.0,0.25,127,86.0
2305,E4,408.0,0.25,127,86.0
2306,E4,408.0,0.25,127,86.0
2307,G2,408.25,0.25,127,86.0
2308,E4,408.25,0.25,127,86.0
2309,E4,408.25,0.25,127,86.0
2310,B2,408.5,0.25,127,86.0
2311,E4,408.5,0.25,127,86.0
2312,E4,408.5,0.25,127,86.0
2313,D3,408.75,0.75,127,86.0
2314,E4,408.75,0.25,127,86.0
2315,E4,408.75,0.25,127,86.0
2316,E4,409.0,0.5,127,86.0
2317,E4,409.0,0.5,127,86.0
2318,D3,409.5,0.25,127,86.0
2319,E4,409.5,0.25,127,86.0
2320,E4,409.5,0.25,127,86.0
2321,B2,409.75,0.25,127,86.0
2322,E4,409.75,0.25,127,86.0
2323,B3,409.75,0.25,127,86.0
2324,D3,410.0,0.25,127,86.0
2325,G4,410.0,0.5,127,86.0
2326,D4,410.0,0.5,127,86.0
2327,B3,410.0,0.5,127,86.0
2328,B2,410.25,0.25,127,86.0
2329,B3,410.5,0.25,127,86.0
2330,G4,410.5,0.5,127,86.0
2331,D4,410.5,0.5,127,86.0
2332,B3,410.5,0.5,127,86.0
2333,A3,410.75,1.25,127,86.0
2334,A4,411.0,1.0,127,86.0
2335,E4,411.0,1.0,127,86.0
2336,C#4,411.0,1.0,127,86.0
2337,E2,412.0,0.25,127,86.0
2338,E4,412.0,0.25,127,86.0
2339,G2,412.25,0.25,127,86.0
2340,G4,412.25,0.25,127,86.0
2341,B2,412.5,0.25,127,86.0
2342,G4,412.5,0.25,127,86.0
2343,D3,412.75,0.75,127,86.0
2344,E4,412.75,0.25,127,86.0
2345,E4,413.0,0.5,127,86.0
2346,D3,413.5,0.25,127,86.0
2347,D4,413.5,0.25,127,86.0
2348,B2,413.75,0.25,127,86.0
2349,B3,413.75,0.25,127,86.0
2350,D3,414.0,0.25,127,86.0
2351,E4,414.0,0.25,127,86.0
2352,C#4,414.0,0.25,127,86.0
2353,B2,414.25,0.25,127,86.0
2354,D4,414.25,0.25,127,86.0
2355,B3,414.25,0.25,127,86.0
2356,B3,414.5,0.25,127,86.0
2357,G4,414.5,0.5,127,86.0
2358,D4,414.5,0.5,127,86.0
2359,B3,414.5,0.5,127,86.0
2360,A3,414.75,1.25,127,86.0
2361,E4,415.0,0.5,127,86.0
2362,C#4,415.0,0.5,127,86.0
2363,A4,415.5,0.25,127,86.0
2364,E4,415.75,0.25,127,86.0
2365,E2,416.0,0.25,127,86.0
2366,E4,416.0,0.25,127,86.0
2367,G2,416.25,0.25,127,86.0
2368,G4,416.25,0.25,127,86.0
2369,B2,416.5,0.25,127,86.0
2370,G4,416.5,0.25,127,86.0
2371,D3,416.75,0.75,127,86.0
2372,E4,416.75,0.25,127,86.0
2373,G4,417.0,0.25,127,86.0
2374,E4,417.25,0.25,127,86.0
2375,D3,417.5,0.25,127,86.0
2376,B3,417.5,0.25,127,86.0
2377,B2,417.75,0.25,127,86.0
2378,E4,417.75,0.25,127,86.0
2379,D3,418.0,0.25,127,86.0
2380,B3,418.0,0.25,127,86.0
2381,B2,418.25,0.25,127,86.0
2382,B3,418.5,0.25,127,86.0
2383,G4,418.5,0.5,127,86.0
2384,D4,418.5,0.5,127,86.0
2385,B3,418.5,0.5,127,86.0
2386,A3,418.75,1.25,127,86.0
2387,A4,419.0,0.75,127,86.0
2388,E4,419.0,0.75,127,86.0
2389,C#4,419.0,0.75,127,86.0
2390,A4,419.75,0.125,127,86.0
2391,E4,419.875,0.125,102,86.0
2392,E2,420.0,1.0,127,86.0
2393,A4,420.0,0.125,127,86.0
2394,G4,420.125,0.125,102,86.0
2395,E4,420.25,0.25,102,86.0
2396,A4,420.5,0.25,127,86.0
2397,A4,420.75,0.125,127,86.0
2398,G4,420.875,0.125,102,86.0
2399,E4,421.0,0.25,102,86.0
2400,E4,421.25,0.125,127,86.0
2401,B2,421.25,0.25,127,86.0
2402,E2,421.25,0.25,127,86.0
2403,D4,421.375,0.125,102,86.0
2404,B3,421.5,0.25,102,86.0
2405,E4,421.75,0.25,127,86.0
2406,B2,421.75,0.25,127,86.0
2407,E2,421.75,0.25,127,86.0
2408,E2,422.0,0.25,127,86.0
2409,D4,422.0,0.5,127,86.0
2410,E2,422.25,0.25,127,86.0
2411,G4,422.5,0.25,127,86.0
2412,D4,422.5,0.5,127,86.0
2413,B3,422.5,0.5,127,86.0
2414,G3,422.5,0.5,127,86.0
2415,G4,422.75,0.25,127,86.0
2416,D4,422.75,0.25,127,86.0
2417,E4,423.0,0.5,127,86.0
2418,C#4,423.0,0.5,127,86.0
2419,A3,423.0,0.5,127,86.0
2420,A4,423.0,0.5,127,86.0
2421,E4,423.0,0.5,127,86.0
2422,A4,423.5,0.25,127,86.0
2423,B3,423.5,0.5,127,86.0
2424,G3,423.5,0.5,127,86.0
2425,A4,423.75,83/1000,127,86.0
2426,G4,423.833,83/1000,102,86.0
2427,E4,423.917,83/1000,102,86.0
2428,E2,424.0,1.0,127,86.0
2429,G4,424.0,0.25,127,86.0
2430,B3,424.25,0.25,127,86.0
2431,A4,424.5,0.125,127,86.0
2432,G4,424.625,0.125,102,86.0
2433,E4,424.75,0.25,102,86.0
2434,E4,425.0,0.125,127,86.0
2435,D4,425.125,0.125,102,86.0
2436,B3,425.25,0.25,102,86.0
2437,B2,425.25,0.25,127,86.0
2438,E2,425.25,0.25,127,86.0
2439,B3,425.5,0.25,127,86.0
2440,D4,425.75,0.25,127,86.0
2441,B2,425.75,0.25,127,86.0
2442,E2,425.75,0.25,127,86.0
2443,E2,426.0,0.25,127,86.0
2444,E4,426.0,333/1000,127,86.0
2445,E2,426.25,0.25,127,86.0
2446,B3,426.333,167/1000,127,86.0
2447,B3,426.5,0.5,127,86.0
2448,D4,426.5,0.5,127,86.0
2449,B3,426.5,0.5,127,86.0
2450,G3,426.5,0.5,127,86.0
2451,D4,427.0,0.5,127,86.0
2452,E4,427.0,0.5,127,86.0
2453,C#4,427.0,0.5,127,86.0
2454,A3,427.0,0.5,127,86.0
2455,B3,427.5,0.5,127,86.0
2456,G3,427.5,0.5,127,86.0
2457,D4,427.5,0.25,95,86.0
2458,D5,427.5,0.25,95,86.0
2459,D4,427.75,0.25,127,86.0
2460,E2,428.0,1.0,127,86.0
2461,B3,428.0,0.25,102,86.0
2462,E4,428.25,0.125,127,86.0
2463,D4,428.375,0.125,102,86.0
2464,B3,428.5,0.25,102,86.0
2465,E4,428.75,0.25,127,86.0
2466,A4,429.0,0.25,127,86.0
2467,G4,429.25,0.125,127,86.0
2468,B2,429.25,0.25,127,86.0
2469,E2,429.25,0.25,127,86.0
2470,E4,429.375,0.125,102,86.0
2471,D4,429.5,0.25,127,86.0
2472,B3,429.75,0.25,127,86.0
2473,B2,429.75,0.25,127,86.0
2474,E2,429.75,0.25,127,86.0
2475,E2,430.0,0.25,127,86.0
2476,E4,430.0,0.25,127,86.0
2477,E2,430.25,0.25,127,86.0
2478,B3,430.25,0.25,127,86.0
2479,D4,430.5,0.5,127,86.0
2480,B3,430.5,0.5,127,86.0
2481,G3,430.5,0.5,127,86.0
2482,G4,430.5,0.5,127,86.0
2483,D4,430.5,0.5,127,86.0
2484,B3,430.5,0.5,127,86.0
2485,E4,431.0,0.5,127,86.0
2486,C#4,431.0,0.5,127,86.0
2487,A3,431.0,0.5,127,86.0
2488,A4,431.0,0.5,127,86.0
2489,E4,431.0,0.5,127,86.0
2490,C#4,431.0,0.5,127,86.0
2491,G3,431.5,0.25,127,86.0
2492,B3,431.5,0.5,127,86.0
2493,G3,431.5,0.5,127,86.0
2494,B3,431.75,0.25,127,86.0
2495,G3,431.75,0.25,127,86.0
2496,E2,432.0,1.0,127,86.0
2497,B3,432.0,0.25,127,86.0
2498,E4,432.25,0.125,127,86.0
2499,D4,432.375,0.125,102,86.0
2500,B3,432.5,0.25,102,86.0
2501,E4,432.75,0.25,127,86.0
2502,E4,433.0,0.25,127,86.0
2503,D4,433.25,0.25,102,86.0
2504,B2,433.25,0.25,127,86.0
2505,E2,433.25,0.25,127,86.0
2506,D4,433.5,0.25,127,86.0
2507,B3,433.75,0.25,127,86.0
2508,B2,433.75,0.25,127,86.0
2509,E2,433.75,0.25,127,86.0
2510,E2,434.0,0.25,127,86.0
2511,D4,434.0,0.5,127,86.0
2512,B3,434.0,0.5,127,86.0
2513,E2,434.25,0.25,127,86.0
2514,D4,434.5,0.5,127,86.0
2515,B3,434.5,0.5,127,86.0
2516,G3,434.5,0.5,127,86.0
2517,D4,434.5,0.25,127,86.0
2518,B3,434.5,0.25,127,86.0
2519,D4,434.75,0.25,127,86.0
2520,B3,434.75,0.25,127,86.0
2521,E4,435.0,0.5,127,86.0
2522,C#4,435.0,0.5,127,86.0
2523,A3,435.0,0.5,127,86.0
2524,E4,435.0,0.25,127,86.0
2525,C#4,435.0,0.25,127,86.0
2526,E4,435.25,0.25,127,86.0
2527,C#4,435.25,0.25,127,86.0
2528,B3,435.5,0.5,127,86.0
2529,G3,435.5,0.5,127,86.0
2530,B3,435.75,0.25,127,86.0
2531,G4,436.0,0.25,127,86.0
2532,E3,436.0,1.0,127,86.0
2533,B2,436.0,1.0,127,86.0
2534,E2,436.0,1.0,127,86.0
2535,D4,436.25,0.25,127,86.0
2536,E4,436.5,0.25,127,86.0
2537,A4,436.75,0.25,127,86.0
2538,E4,436.75,0.25,127,86.0
2539,G4,437.0,0.5,127,86.0
2540,E3,437.25,0.25,127,86.0
2541,B2,437.25,0.25,127,86.0
2542,E2,437.25,0.25,127,86.0
2543,E4,437.5,0.375,127,86.0
2544,E3,437.75,0.5,127,86.0
2545,B2,437.75,0.5,127,86.0
2546,E2,437.75,0.5,127,86.0
2547,G4,437.875,0.125,127,86.0
2548,G4,438.0,0.5,127,86.0
2549,E3,438.25,0.25,127,86.0
2550,B2,438.25,0.25,127,86.0
2551,E2,438.25,0.25,127,86.0
2552,B4,438.5,0.5,127,86.0
2553,G4,438.5,0.5,127,86.0
2554,D4,438.5,0.5,127,86.0
2555,E2,439.0,0.25,127,86.0
2556,C#5,439.0,0.5,127,86.0
2557,A4,439.0,0.5,127,86.0
2558,E4,439.0,0.5,127,86.0
2559,G2,439.25,0.25,127,86.0
2560,E3,439.5,0.5,127,86.0
2561,G4,439.5,0.5,127,86.0
2562,E3,440.0,0.25,127,86.0
2563,E3,440.0,1.0,127,86.0
2564,B2,440.0,1.0,127,86.0
2565,E2,440.0,1.0,127,86.0
2566,G3,440.25,0.25,127,86.0
2567,B3,440.5,0.25,127,86.0
2568,B3,440.75,0.25,127,86.0
2569,D4,441.0,0.5,127,86.0
2570,E3,441.25,0.25,127,86.0
2571,B2,441.25,0.25,127,86.0
2572,E2,441.25,0.25,127,86.0
2573,E4,441.5,0.25,127,86.0
2574,D4,441.75,0.25,127,86.0
2575,E3,441.75,0.5,127,86.0
2576,B2,441.75,0.5,127,86.0
2577,E2,441.75,0.5,127,86.0
2578,G4,442.0,0.25,127,86.0
2579,E3,442.25,0.25,127,86.0
2580,B2,442.25,0.25,127,86.0
2581,E2,442.25,0.25,127,86.0
2582,D5,442.25,0.25,127,86.0
2583,G4,442.25,0.25,127,86.0
2584,B4,442.5,0.5,127,86.0
2585,G4,442.5,0.5,127,86.0
2586,D4,442.5,0.5,127,86.0
2587,E2,443.0,0.25,127,86.0
2588,C#5,443.0,0.5,127,86.0
2589,A4,443.0,0.5,127,86.0
2590,E4,443.0,0.5,127,86.0
2591,G2,443.25,0.25,127,86.0
2592,E3,443.5,0.5,127,86.0
2593,B4,443.5,0.5,127,86.0
2594,G4,443.5,0.5,127,86.0
2595,D4,443.5,0.5,127,86.0
2596,A4,444.0,0.125,127,86.0
2597,E3,444.0,1.0,127,86.0
2598,B2,444.0,1.0,127,86.0
2599,E2,444.0,1.0,127,86.0
2600,G4,444.125,0.125,102,86.0
2601,E4,444.25,0.125,127,86.0
2602,D4,444.375,0.125,102,86.0
2603,D4,444.5,0.25,127,86.0
2604,B3,444.75,0.25,127,86.0
2605,A3,445.0,0.5,127,86.0
2606,E3,445.25,0.25,127,86.0
2607,B2,445.25,0.25,127,86.0
2608,E2,445.25,0.25,127,86.0
2609,E4,445.5,0.25,127,86.0
2610,A3,445.75,0.25,127,86.0
2611,E3,445.75,0.5,127,86.0
2612,B2,445.75,0.5,127,86.0
2613,E2,445.75,0.5,127,86.0
2614,B3,446.0,0.25,127,86.0
2615,E4,446.25,0.25,127,86.0
2616,E3,446.25,0.25,127,86.0
2617,B2,446.25,0.25,127,86.0
2618,E2,446.25,0.25,127,86.0
2619,B4,446.5,0.5,127,86.0
2620,G4,446.5,0.5,127,86.0
2621,D4,446.5,0.5,127,86.0
2622,E2,447.0,0.25,127,86.0
2623,C#5,447.0,0.5,127,86.0
2624,A4,447.0,0.5,127,86.0
2625,E4,447.0,0.5,127,86.0
2626,G2,447.25,0.25,127,86.0
2627,E3,447.5,0.5,127,86.0
2628,D4,447.5,0.25,127,86.0
2629,A3,447.5,0.25,127,86.0
2630,C#4,447.75,0.25,127,86.0
2631,G#3,447.75,0.25,127,86.0
2632,E3,448.0,1.0,127,86.0
2633,B2,448.0,1.0,127,86.0
2634,E2,448.0,1.0,127,86.0
2635,G#3,448.25,0.25,127,86.0
2636,B3,448.5,0.25,127,86.0
2637,D4,448.75,0.25,127,86.0
2638,D4,449.0,0.5,127,86.0
2639,E3,449.25,0.25,127,86.0
2640,B2,449.25,0.25,127,86.0
2641,E2,449.25,0.25,127,86.0
2642,E4,449.5,0.5,127,86.0
2643,E3,449.75,0.5,127,86.0
2644,B2,449.75,0.5,127,86.0
2645,E2,449.75,0.5,127,86.0
2646,B4,450.0,0.25,127,86.0
2647,G4,450.0,0.25,127,86.0
2648,D4,450.25,0.25,127,86.0
2649,E3,450.25,0.25,127,86.0
2650,B2,450.25,0.25,127,86.0
2651,E2,450.25,0.25,127,86.0
2652,B4,450.5,0.5,127,86.0
2653,G4,450.5,0.5,127,86.0
2654,D4,450.5,0.5,127,86.0
2655,E2,451.0,0.25,127,86.0
2656,C#5,451.0,0.25,127,86.0
2657,A4,451.0,0.25,127,86.0
2658,E4,451.0,0.25,127,86.0
2659,G2,451.25,0.25,127,86.0
2660,C#5,451.25,0.25,127,86.0
2661,A4,451.25,0.25,127,86.0
2662,E4,451.25,0.25,127,86.0
2663,E3,451.5,0.5,127,86.0
2664,B3,451.5,9/200,95,86.0
2665,G3,451.5,9/200,95,86.0
2666,D3,451.5,9/200,95,86.0
2667,E2,452.0,0.5,127,86.0
2668,E3,452.0,1.0,127,86.0
2669,B2,452.0,1.0,127,86.0
2670,E2,452.0,1.0,127,86.0
2671,C#5,452.5,0.25,127,86.0
2672,A4,452.5,0.25,127,86.0
2673,B4,452.75,0.25,127,86.0
2674,G4,452.75,0.25,127,86.0
2675,C#5,453.0,0.25,127,86.0
2676,A4,453.0,0.25,127,86.0
2677,E3,453.25,0.25,127,86.0
2678,B2,453.25,0.25,127,86.0
2679,E2,453.25,0.25,127,86.0
2680,B4,453.25,0.25,127,86.0
2681,G4,453.25,0.25,127,86.0
2682,E3,453.75,0.5,127,86.0
2683,B2,453.75,0.5,127,86.0
2684,E2,453.75,0.5,127,86.0
2685,D4,454.25,0.25,127,86.0
2686,E3,454.25,0.25,127,86.0
2687,B2,454.25,0.25,127,86.0
2688,E2,454.25,0.25,127,86.0
2689,B4,454.5,167/1000,127,86.0
2690,G4,454.5,167/1000,127,86.0
2691,C#5,454.667,167/1000,102,86.0
2692,A4,454.667,167/1000,102,86.0
2693,B4,454.833,167/1000,102,86.0
2694,G4,454.833,167/1000,102,86.0
2695,E2,455.0,0.25,127,86.0
2696,B4,455.0,0.5,127,86.0
2697,G4,455.0,0.5,127,86.0
2698,G2,455.25,0.25,127,86.0
2699,E3,455.5,0.5,127,86.0
2700,C#5,455.5,0.5,127,86.0
2701,A4,455.5,0.5,127,86.0
2702,E2,456.0,1.0,127,86.0
2703,E3,456.0,1.0,127,86.0
2704,B2,456.0,1.0,127,86.0
2705,E2,456.0,1.0,127,86.0
2706,E3,457.25,0.25,127,86.0
2707,B2,457.25,0.25,127,86.0
2708,E2,457.25,0.25,127,86.0
2709,B3,457.25,0.25,127,86.0
2710,E3,457.25,0.25,127,86.0
2711,B2,457.25,0.25,127,86.0
2712,E2,457.25,0.25,127,86.0
2713,E3,457.75,0.5,127,86.0
2714,B2,457.75,0.5,127,86.0
2715,E2,457.75,0.5,127,86.0
2716,B3,457.75,0.75,127,86.0
2717,E3,457.75,0.75,127,86.0
2718,B2,457.75,0.75,127,86.0
2719,E2,457.75,0.75,127,86.0
2720,E3,458.25,0.25,127,86.0
2721,B2,458.25,0.25,127,86.0
2722,E2,458.25,0.25,127,86.0
2723,D4,458.5,0.5,127,86.0
2724,B3,458.5,0.5,127,86.0
2725,E2,459.0,0.25,127,86.0
2726,E4,459.0,0.25,127,86.0
2727,C#4,459.0,0.25,127,86.0
2728,G2,459.25,0.25,127,86.0
2729,E4,459.25,0.25,127,86.0
2730,C#4,459.25,0.25,127,86.0
2731,E3,459.5,0.5,127,86.0
2732,E2,460.0,0.5,127,86.0
2733,E3,460.0,1.0,127,86.0
2734,B2,460.0,1.0,127,86.0
2735,E2,460.0,1.0,127,86.0
2736,G3,460.5,9/200,95,86.0
2737,D3,460.5,9/200,95,86.0
2738,A2,460.5,9/200,95,86.0
2739,E3,461.25,0.25,127,86.0
2740,B2,461.25,0.25,127,86.0
2741,E2,461.25,0.25,127,86.0
2742,C#4,461.25,0.25,95,86.0
2743,C#5,461.25,0.25,95,86.0
2744,G#3,461.25,0.25,95,86.0
2745,G#4,461.25,0.25,95,86.0
2746,E3,461.75,0.5,127,86.0
2747,B2,461.75,0.5,127,86.0
2748,E2,461.75,0.5,127,86.0
2749,B3,461.75,0.5,127,86.0
2750,E3,461.75,0.5,127,86.0
2751,B2,461.75,0.5,127,86.0
2752,E2,461.75,0.5,127,86.0
2753,E3,462.25,0.25,127,86.0
2754,B2,462.25,0.25,127,86.0
2755,E2,462.25,0.25,127,86.0
2756,B3,462.25,0.25,127,86.0
2757,E3,462.25,0.25,127,86.0
2758,B2,462.25,0.25,127,86.0
2759,E2,462.25,0.25,127,86.0
2760,D4,462.5,0.5,127,86.0
2761,B3,462.5,0.5,127,86.0
2762,E2,463.0,0.25,127,86.0
2763,E4,463.0,0.5,127,86.0
2764,C#4,463.0,0.5,127,86.0
2765,G2,463.25,0.25,127,86.0
2766,E3,463.5,0.5,127,86.0
2767,E2,464.0,0.5,127,86.0
2768,E3,464.0,1.0,127,86.0
2769,B2,464.0,1.0,127,86.0
2770,E2,464.0,1.0,127,86.0
2771,E2,465.0,0.25,127,86.0
2772,E2,465.25,0.5,127,86.0
2773,E3,465.25,0.25,127,86.0
2774,B2,465.25,0.25,127,86.0
2775,E2,465.25,0.25,127,86.0
2776,E3,465.75,0.5,127,86.0
2777,B2,465.75,0.5,127,86.0
2778,E2,465.75,0.5,127,86.0
2779,E3,465.75,0.25,127,86.0
2780,B2,465.75,0.25,127,86.0
2781,E2,465.75,0.25,127,86.0
2782,B3,466.0,0.5,127,86.0
2783,E3,466.0,0.5,127,86.0
2784,B2,466.0,0.5,127,86.0
2785,E2,466.0,0.5,127,86.0
2786,E3,466.25,0.25,127,86.0
2787,B2,466.25,0.25,127,86.0
2788,E2,466.25,0.25,127,86.0
2789,G4,466.5,0.5,127,86.0
2790,D4,466.5,0.5,127,86.0
2791,B3,466.5,0.5,127,86.0
2792,E2,467.0,0.25,127,86.0
2793,A4,467.0,1.0,127,86.0
2794,E4,467.0,1.0,127,86.0
2795,C#4,467.0,1.0,127,86.0
2796,G2,467.25,0.25,127,86.0
2797,E3,467.5,0.5,127,86.0
2798,E3,468.0,1.0,127,86.0
2799,B2,468.0,1.0,127,86.0
2800,E2,468.0,1.0,127,86.0
2801,B3,468.0,0.5,127,86.0
2802,E3,468.0,0.5,127,86.0
2803,B2,468.0,0.5,127,86.0
2804,E2,468.0,0.5,127,86.0
2805,E3,469.25,0.25,127,86.0
2806,B2,469.25,0.25,127,86.0
2807,E2,469.25,0.25,127,86.0
2808,B3,469.25,0.25,127,86.0
2809,E3,469.25,0.25,127,86.0
2810,B2,469.25,0.25,127,86.0
2811,E2,469.25,0.25,127,86.0
2812,E3,469.75,0.5,127,86.0
2813,B2,469.75,0.5,127,86.0
2814,E2,469.75,0.5,127,86.0
2815,B3,469.75,0.25,127,86.0
2816,E3,469.75,0.25,127,86.0
2817,B2,469.75,0.25,127,86.0
2818,E2,469.75,0.25,127,86.0
2819,E3,470.25,0.25,127,86.0
2820,B2,470.25,0.25,127,86.0
2821,E2,470.25,0.25,127,86.0
2822,D4,470.5,0.5,127,86.0
2823,B3,470.5,0.5,127,86.0
2824,G3,470.5,0.5,127,86.0
2825,D3,470.5,0.5,127,86.0
2826,E2,471.0,0.25,127,86.0
2827,E4,471.0,1.0,127,86.0
2828,C#4,471.0,1.0,127,86.0
2829,A3,471.0,1.0,127,86.0
2830,E3,471.0,1.0,127,86.0
2831,G2,471.25,0.25,127,86.0
2832,E3,471.5,0.5,127,86.0
2833,E3,472.0,0.25,127,86.0
2834,E2,472.0,0.25,127,86.0
2835,E1,472.0,0.25,127,86.0
2836,G3,472.25,0.25,127,86.0
2837,G2,472.25,0.25,127,86.0
2838,G1,472.25,0.25,127,86.0
2839,B3,472.5,0.25,127,86.0
2840,B2,472.5,0.25,127,86.0
2841,B1,472.5,0.25,127,86.0
2842,D4,472.75,0.75,127,86.0
2843,D3,472.75,0.75,127,86.0
2844,D2,472.75,0.75,127,86.0
2845,D4,473.5,0.25,127,86.0
2846,D3,473.5,0.25,127,86.0
2847,D2,473.5,0.25,127,86.0
2848,B3,473.75,0.25,127,86.0
2849,B2,473.75,0.25,127,86.0
2850,B1,473.75,0.25,127,86.0
2851,D4,474.0,0.25,127,86.0
2852,D3,474.0,0.25,127,86.0
2853,D2,474.0,0.25,127,86.0
2854,B3,474.25,0.25,127,86.0
2855,B2,474.25,0.25,127,86.0
2856,B1,474.25,0.25,127,86.0
2857,B3,474.5,0.5,127,86.0
2858,B2,474.5,0.25,127,86.0
2859,B4,474.5,0.5,127,86.0
2860,G4,474.5,0.5,127,86.0
2861,D4,474.5,0.5,127,86.0
2862,A2,474.75,1.25,127,86.0
2863,A3,475.0,1.0,127,86.0
2864,C#5,475.0,0.5,127,86.0
2865,A4,475.0,0.5,127,86.0
2866,E4,475.0,0.5,127,86.0
2867,B4,475.5,0.5,127,86.0
2868,G4,475.5,0.5,127,86.0
2869,D4,475.5,0.5,127,86.0
2870,E3,476.0,0.25,127,86.0
2871,E2,476.0,0.25,127,86.0
2872,E1,476.0,0.25,127,86.0
2873,G3,476.25,0.25,127,86.0
2874,G2,476.25,0.25,127,86.0
2875,G1,476.25,0.25,127,86.0
2876,B3,476.5,0.25,127,86.0
2877,B2,476.5,0.25,127,86.0
2878,B1,476.5,0.25,127,86.0
2879,D4,476.75,0.75,127,86.0
2880,D3,476.75,0.75,127,86.0
2881,D2,476.75,0.75,127,86.0
2882,D4,477.5,0.25,127,86.0
2883,D3,477.5,0.25,127,86.0
2884,D2,477.5,0.25,127,86.0
2885,B3,477.75,0.25,127,86.0
2886,B2,477.75,0.25,127,86.0
2887,B1,477.75,0.25,127,86.0
2888,D4,478.0,0.25,127,86.0
2889,D3,478.0,0.25,127,86.0
2890,D2,478.0,0.25,127,86.0
2891,B3,478.25,0.25,127,86.0
2892,B2,478.25,0.25,127,86.0
2893,B1,478.25,0.25,127,86.0
2894,B3,478.5,0.25,127,86.0
2895,B2,478.5,0.25,127,86.0
2896,B4,478.5,0.5,127,86.0
2897,G4,478.5,0.5,127,86.0
2898,D4,478.5,0.5,127,86.0
2899,A3,478.75,1.25,127,86.0
2900,A2,478.75,1.25,127,86.0
2901,C#5,479.0,0.5,127,86.0
2902,A4,479.0,0.5,127,86.0
2903,E4,479.0,0.5,127,86.0
2904,B4,479.5,0.5,127,86.0
2905,G4,479.5,0.5,127,86.0
2906,D4,479.5,0.5,127,86.0
2907,E3,480.0,0.25,127,86.0
2908,E2,480.0,0.25,127,86.0
2909,E1,480.0,0.25,127,86.0
2910,G3,480.25,0.25,127,86.0
2911,G2,480.25,0.25,127,86.0
2912,G1,480.25,0.25,127,86.0
2913,B3,480.5,0.25,127,86.0
2914,B2,480.5,0.25,127,86.0
2915,B1,480.5,0.25,127,86.0
2916,D3,480.75,0.75,127,86.0
2917,D2,480.75,0.75,127,86.0
2918,G4,480.75,1.75,127,86.0
2919,D4,480.75,1.75,127,86.0
2920,D3,481.5,0.25,127,86.0
2921,D2,481.5,0.25,127,86.0
2922,B2,481.75,0.25,127,86.0
2923,B1,481.75,0.25,127,86.0
2924,D3,482.0,0.25,127,86.0
2925,D2,482.0,0.25,127,86.0
2926,B2,482.25,0.25,127,86.0
2927,B1,482.25,0.25,127,86.0
2928,B3,482.5,0.5,127,86.0
2929,B2,482.5,0.25,127,86.0
2930,B4,482.5,0.5,127,86.0
2931,G4,482.5,0.5,127,86.0
2932,D4,482.5,0.5,127,86.0
2933,A2,482.75,1.25,127,86.0
2934,A3,483.0,1.0,127,86.0
2935,C#5,483.0,0.5,127,86.0
2936,A4,483.0,0.5,127,86.0
2937,E4,483.0,0.5,127,86.0
2938,B4,483.5,0.5,127,86.0
2939,G4,483.5,0.5,127,86.0
2940,D4,483.5,0.5,127,86.0
2941,E3,484.0,0.25,127,86.0
2942,E2,484.0,0.25,127,86.0
2943,E1,484.0,0.25,127,86.0
2944,G3,484.25,0.25,127,86.0
2945,G2,484.25,0.25,127,86.0
2946,G1,484.25,0.25,127,86.0
2947,B3,484.5,0.25,127,86.0
2948,B2,484.5,0.25,127,86.0
2949,B1,484.5,0.25,127,86.0
2950,D4,484.75,0.75,127,86.0
2951,D3,484.75,0.75,127,86.0
2952,D2,484.75,0.75,127,86.0
2953,D4,485.5,0.25,127,86.0
2954,D3,485.5,0.25,127,86.0
2955,D2,485.5,0.25,127,86.0
2956,B3,485.75,0.25,127,86.0
2957,B2,485.75,0.25,127,86.0
2958,B1,485.75,0.25,127,86.0
2959,D4,486.0,0.25,127,86.0
2960,D3,486.0,0.25,127,86.0
2961,D2,486.0,0.25,127,86.0
2962,B3,486.25,0.25,127,86.0
2963,B2,486.25,0.25,127,86.0
2964,B1,486.25,0.25,127,86.0
2965,B3,486.5,0.5,127,86.0
2966,B2,486.5,0.25,127,86.0
2967,B4,486.5,0.5,127,86.0
2968,G4,486.5,0.5,127,86.0
2969,D4,486.5,0.5,127,86.0
2970,A2,486.75,1.25,127,86.0
2971,A3,487.0,1.0,127,86.0
2972,C#5,487.0,0.5,127,86.0
2973,A4,487.0,0.5,127,86.0
2974,E4,487.0,0.5,127,86.0
2975,B4,487.5,0.5,127,86.0
2976,G4,487.5,0.5,127,86.0
2977,D4,487.5,0.5,127,86.0
2978,E3,488.0,0.25,127,86.0
2979,E2,488.0,0.25,127,86.0
2980,E1,488.0,0.25,127,86.0
2981,G3,488.25,0.25,127,86.0
2982,G2,488.25,0.25,127,86.0
2983,G1,488.25,0.25,127,86.0
2984,B3,488.5,0.25,127,86.0
2985,B2,488.5,0.25,127,86.0
2986,B1,488.5,0.25,127,86.0
2987,D4,488.75,0.75,127,86.0
2988,D3,488.75,0.75,127,86.0
2989,D2,488.75,0.75,127,86.0
2990,D4,489.5,0.25,127,86.0
2991,D3,489.5,0.25,127,86.0
2992,D2,489.5,0.25,127,86.0
2993,B3,489.75,0.25,127,86.0
2994,B2,489.75,0.25,127,86.0
2995,B1,489.75,0.25,127,86.0
2996,D4,490.0,0.25,127,86.0
2997,D3,490.0,0.25,127,86.0
2998,D2,490.0,0.25,127,86.0
2999,B3,490.25,0.25,127,86.0
3000,B2,490.25,0.25,127,86.0
3001,B1,490.25,0.25,127,86.0
3002,B3,490.5,0.25,127,86.0
3003,B2,490.5,0.25,127,86.0
3004,B4,490.5,0.5,127,86.0
3005,G4,490.5,0.5,127,86.0
3006,D4,490.5,0.5,127,86.0
3007,A3,490.75,1.25,127,86.0
3008,A2,490.75,1.25,127,86.0
3009,C#5,491.0,0.5,127,86.0
3010,A4,491.0,0.5,127,86.0
3011,E4,491.0,0.5,127,86.0
3012,B4,491.5,0.5,127,86.0
3013,G4,491.5,0.5,127,86.0
3014,D4,491.5,0.5,127,86.0
3015,E3,492.0,0.25,127,86.0
3016,E2,492.0,0.25,127,86.0
3017,E1,492.0,0.25,127,86.0
3018,G3,492.25,0.25,127,86.0
3019,G2,492.25,0.25,127,86.0
3020,G1,492.25,0.25,127,86.0
3021,B3,492.5,0.25,127,86.0
3022,B2,492.5,0.25,127,86.0
3023,B1,492.5,0.25,127,86.0
3024,D4,492.75,0.75,127,86.0
3025,D3,492.75,0.75,127,86.0
3026,D2,492.75,0.75,127,86.0
3027,D4,493.5,0.25,127,86.0
3028,D3,493.5,0.25,127,86.0
3029,D2,493.5,0.25,127,86.0
3030,B3,493.75,0.25,127,86.0
3031,B2,493.75,0.25,127,86.0
3032,B1,493.75,0.25,127,86.0
3033,D4,494.0,0.25,127,86.0
3034,D3,494.0,0.25,127,86.0
3035,D2,494.0,0.25,127,86.0
3036,B3,494.25,0.25,127,86.0
3037,B2,494.25,0.25,127,86.0
3038,B1,494.25,0.25,127,86.0
3039,B3,494.5,0.5,127,86.0
3040,B2,494.5,0.25,127,86.0
3041,B4,494.5,0.5,127,86.0
3042,G4,494.5,0.5,127,86.0
3043,D4,494.5,0.5,127,86.0
3044,A2,494.75,1.25,127,86.0
3045,A3,495.0,1.0,127,86.0
3046,C#5,495.0,0.5,127,86.0
3047,A4,495.0,0.5,127,86.0
3048,E4,495.0,0.5,127,86.0
3049,B4,495.5,0.5,127,86.0
3050,G4,495.5,0.5,127,86.0
3051,D4,495.5,0.5,127,86.0
3052,E3,496.0,0.25,127,86.0
3053,E2,496.0,0.25,127,86.0
3054,E1,496.0,0.25,127,86.0
3055,G3,496.25,0.25,127,86.0
3056,G2,496.25,0.25,127,86.0
3057,G1,496.25,0.25,127,86.0
3058,B3,496.5,0.25,127,86.0
3059,B2,496.5,0.25,127,86.0
3060,B1,496.5,0.25,127,86.0
3061,D4,496.75,0.75,127,86.0
3062,D3,496.75,0.75,127,86.0
3063,D2,496.75,0.75,127,86.0
3064,D4,497.5,0.25,127,86.0
3065,D3,497.5,0.25,127,86.0
3066,D2,497.5,0.25,127,86.0
3067,B3,497.75,0.25,127,86.0
3068,B2,497.75,0.25,127,86.0
3069,B1,497.75,0.25,127,86.0
3070,D4,498.0,0.25,127,86.0
3071,D3,498.0,0.25,127,86.0
3072,D2,498.0,0.25,127,86.0
3073,B3,498.25,0.25,127,86.0
3074,B2,498.25,0.25,127,86.0
3075,B1,498.25,0.25,127,86.0
3076,B3,498.5,0.25,127,86.0
3077,B2,498.5,0.25,127,86.0
3078,B4,498.5,0.5,127,86.0
3079,G4,498.5,0.5,127,86.0
3080,D4,498.5,0.5,127,86.0
3081,A3,498.75,1.25,127,86.0
3082,A2,498.75,1.25,127,86.0
3083,C#5,499.0,0.5,127,86.0
3084,A4,499.0,0.5,127,86.0
3085,E4,499.0,0.5,127,86.0
3086,B4,499.5,0.5,127,86.0
3087,G4,499.5,0.5,127,86.0
3088,D4,499.5,0.5,127,86.0
