,note_name,start_time,duration,velocity,tempo
0,C#3,0.0,1.0,95,142.0
1,C2,0.0,1.0,95,142.0
2,F#2,1.0,1.0,95,142.0
3,F#2,2.0,1.0,95,142.0
4,E2,2.0,1.0,95,142.0
5,F#2,3.0,0.5,95,142.0
6,C2,3.5,0.5,95,142.0
7,F#2,4.0,1.0,95,142.0
8,F#2,5.0,0.5,95,142.0
9,C2,5.0,0.5,95,142.0
10,C2,5.5,0.5,95,142.0
11,F#2,6.0,1.0,95,142.0
12,E2,6.0,1.0,95,142.0
13,F#2,7.0,1.0,95,142.0
14,F#2,8.0,0.5,95,142.0
15,C2,8.0,0.5,95,142.0
16,C2,8.5,0.5,95,142.0
17,F#2,9.0,1.0,95,142.0
18,F#2,10.0,1.0,95,142.0
19,E2,10.0,1.0,95,142.0
20,F#2,11.0,0.5,95,142.0
21,C2,11.5,0.5,95,142.0
22,F#2,12.0,1.0,95,142.0
23,F#2,13.0,0.5,95,142.0
24,C2,13.0,0.5,95,142.0
25,C2,13.5,0.5,95,142.0
26,F#2,14.0,1.0,95,142.0
27,E2,14.0,1.0,95,142.0
28,F#2,15.0,1.0,95,142.0
29,F#2,16.0,1.0,95,142.0
30,C2,16.0,1.0,95,142.0
31,F#2,17.0,1.0,95,142.0
32,F#2,18.0,1.0,95,142.0
33,E2,18.0,1.0,95,142.0
34,F#2,19.0,0.5,95,142.0
35,C2,19.5,0.5,95,142.0
36,F#2,20.0,1.0,95,142.0
37,F#2,21.0,0.5,95,142.0
38,C2,21.0,0.5,95,142.0
39,C2,21.5,0.5,95,142.0
40,F#2,22.0,1.0,95,142.0
41,E2,22.0,1.0,95,142.0
42,F#2,23.0,1.0,95,142.0
43,F#2,24.0,0.5,95,142.0
44,C2,24.0,0.5,95,142.0
45,C2,24.5,0.5,95,142.0
46,F#2,25.0,1.0,95,142.0
47,F#2,26.0,1.0,95,142.0
48,E2,26.0,1.0,95,142.0
49,F#2,27.0,0.5,95,142.0
50,C2,27.5,0.5,95,142.0
51,F#2,28.0,1.0,95,142.0
52,F#2,29.0,0.5,95,142.0
53,C2,29.0,0.5,95,142.0
54,C2,29.5,0.5,95,142.0
55,F#2,30.0,1.0,95,142.0
56,E2,30.0,1.0,95,142.0
57,F#2,31.0,1.0,95,142.0
58,C#3,32.0,1.0,95,142.0
59,C2,32.0,1.0,95,142.0
60,F#2,33.0,1.0,95,142.0
61,F#2,34.0,1.0,95,142.0
62,E2,34.0,1.0,95,142.0
63,F#2,35.0,0.5,95,142.0
64,C2,35.5,0.5,95,142.0
65,F#2,36.0,1.0,95,142.0
66,F#2,37.0,0.5,95,142.0
67,C2,37.0,0.5,95,142.0
68,C2,37.5,0.5,95,142.0
69,F#2,38.0,1.0,95,142.0
70,E2,38.0,1.0,95,142.0
71,F#2,39.0,1.0,95,142.0
72,F#2,40.0,0.5,95,142.0
73,C2,40.0,0.5,95,142.0
74,C2,40.5,0.5,95,142.0
75,F#2,41.0,1.0,95,142.0
76,F#2,42.0,1.0,95,142.0
77,E2,42.0,1.0,95,142.0
78,F#2,43.0,0.5,95,142.0
79,C2,43.5,0.5,95,142.0
80,F#2,44.0,1.0,95,142.0
81,F#2,45.0,0.5,95,142.0
82,C2,45.0,0.5,95,142.0
83,C2,45.5,0.5,95,142.0
84,F#2,46.0,1.0,95,142.0
85,E2,46.0,1.0,95,142.0
86,F#2,47.0,1.0,95,142.0
87,F#2,48.0,1.0,95,142.0
88,C2,48.0,1.0,95,142.0
89,F#2,49.0,1.0,95,142.0
90,F#2,50.0,1.0,95,142.0
91,E2,50.0,1.0,95,142.0
92,F#2,51.0,0.5,95,142.0
93,C2,51.5,0.5,95,142.0
94,F#2,52.0,1.0,95,142.0
95,F#2,53.0,0.5,95,142.0
96,C2,53.0,0.5,95,142.0
97,C2,53.5,0.5,95,142.0
98,F#2,54.0,1.0,95,142.0
99,E2,54.0,1.0,95,142.0
100,F#2,55.0,1.0,95,142.0
101,F#2,56.0,0.5,95,142.0
102,C2,56.0,0.5,95,142.0
103,C2,56.5,0.5,95,142.0
104,F#2,57.0,1.0,95,142.0
105,F#2,58.0,1.0,95,142.0
106,E2,58.0,1.0,95,142.0
107,F#2,59.0,0.5,95,142.0
108,C2,59.5,0.5,95,142.0
109,F#2,60.0,1.0,95,142.0
110,F#2,61.0,0.5,95,142.0
111,C2,61.0,0.5,95,142.0
112,C2,61.5,0.5,95,142.0
113,F#2,62.0,1.0,95,142.0
114,E2,62.0,1.0,95,142.0
115,F#2,63.0,1.0,95,142.0
116,B-2,63.5,37/250,95,142.0
117,B-1,63.5,0.5,95,142.0
118,C3,64.0,0.5,95,142.0
119,C2,64.0,0.5,95,142.0
120,C#3,64.0,1.0,95,142.0
121,C2,64.0,1.0,95,142.0
122,C3,64.5,0.5,95,142.0
123,C2,64.5,0.5,95,142.0
124,E2,65.0,37/500,95,142.0
125,F#2,65.0,1.0,95,142.0
126,E-3,65.5,0.5,95,142.0
127,E-2,65.5,0.5,95,142.0
128,F#2,66.0,1.0,95,142.0
129,E2,66.0,1.0,95,142.0
130,B-2,66.5,37/500,95,142.0
131,F#3,67.0,0.25,95,142.0
132,F#2,67.0,0.5,95,142.0
133,F#2,67.0,0.5,95,142.0
134,F3,67.25,0.25,70,142.0
135,E-3,67.5,0.5,70,142.0
136,E-2,67.5,0.5,95,142.0
137,C2,67.5,0.5,95,142.0
138,F#2,68.0,1.0,95,142.0
139,E-3,68.5,0.5,95,142.0
140,E-2,68.5,0.5,95,142.0
141,F#2,69.0,0.5,95,142.0
142,C2,69.0,0.5,95,142.0
143,E2,69.5,37/500,95,142.0
144,C2,69.5,0.5,95,142.0
145,B-2,70.0,0.5,95,142.0
146,B-1,70.0,0.5,95,142.0
147,F#2,70.0,1.0,95,142.0
148,E2,70.0,1.0,95,142.0
149,E2,70.5,37/500,95,142.0
150,B2,71.0,0.5,95,142.0
151,B1,71.0,0.5,95,142.0
152,F#2,71.0,1.0,95,142.0
153,C3,72.0,0.5,95,142.0
154,C2,72.0,0.5,95,142.0
155,F#2,72.0,0.5,95,142.0
156,C2,72.0,0.5,95,142.0
157,C3,72.5,0.5,95,142.0
158,C2,72.5,0.5,95,142.0
159,C2,72.5,0.5,95,142.0
160,F#2,73.0,1.0,95,142.0
161,E-3,73.5,0.5,95,142.0
162,E-2,73.5,0.5,95,142.0
163,F#2,74.0,1.0,95,142.0
164,E2,74.0,1.0,95,142.0
165,E2,74.5,37/500,95,142.0
166,F3,75.0,0.25,95,142.0
167,F2,75.0,0.5,95,142.0
168,F#2,75.0,0.5,95,142.0
169,F#3,75.25,0.25,70,142.0
170,F3,75.5,0.25,70,142.0
171,E-2,75.5,0.5,95,142.0
172,C2,75.5,0.5,95,142.0
173,E-3,75.75,0.25,70,142.0
174,F3,76.0,1.5,95,142.0
175,F2,76.0,1.0,95,142.0
176,F#2,76.0,1.0,95,142.0
177,F#2,77.0,0.5,95,142.0
178,C2,77.0,0.5,95,142.0
179,C2,77.5,0.5,95,142.0
180,F3,78.0,0.125,95,142.0
181,F#2,78.0,1.0,95,142.0
182,E2,78.0,1.0,95,142.0
183,E3,78.125,0.125,95,142.0
184,E-3,78.25,0.125,95,142.0
185,D3,78.375,0.125,95,142.0
186,C#3,78.5,0.125,95,142.0
187,C3,78.625,0.125,95,142.0
188,B2,78.75,0.125,95,142.0
189,B-2,78.875,0.125,95,142.0
190,A2,79.0,0.125,95,142.0
191,F#2,79.0,1.0,95,142.0
192,G#2,79.125,0.125,95,142.0
193,G2,79.25,0.125,95,142.0
194,F#2,79.375,0.125,95,142.0
195,B-2,79.5,0.5,95,142.0
196,B-1,79.5,0.5,95,142.0
197,C3,80.0,0.5,95,142.0
198,C2,80.0,0.5,95,142.0
199,F#2,80.0,1.0,95,142.0
200,C2,80.0,1.0,95,142.0
201,C3,80.5,0.5,95,142.0
202,C2,80.5,0.5,95,142.0
203,E2,81.0,37/500,95,142.0
204,F#2,81.0,1.0,95,142.0
205,E-3,81.5,0.5,95,142.0
206,E-2,81.5,0.5,95,142.0
207,F#2,82.0,1.0,95,142.0
208,E2,82.0,1.0,95,142.0
209,B-2,82.5,37/500,95,142.0
210,F#3,83.0,0.25,95,142.0
211,F#2,83.0,0.5,95,142.0
212,F#2,83.0,0.5,95,142.0
213,F3,83.25,0.25,70,142.0
214,E-3,83.5,0.5,70,142.0
215,E-2,83.5,0.5,95,142.0
216,C2,83.5,0.5,95,142.0
217,F#2,84.0,1.0,95,142.0
218,E-3,84.5,0.5,95,142.0
219,E-2,84.5,0.5,95,142.0
220,F#2,85.0,0.5,95,142.0
221,C2,85.0,0.5,95,142.0
222,E2,85.5,37/500,95,142.0
223,C2,85.5,0.5,95,142.0
224,B-2,86.0,0.5,95,142.0
225,B-1,86.0,0.5,95,142.0
226,F#2,86.0,1.0,95,142.0
227,E2,86.0,1.0,95,142.0
228,E2,86.5,37/500,95,142.0
229,B2,87.0,0.5,95,142.0
230,B1,87.0,0.5,95,142.0
231,F#2,87.0,1.0,95,142.0
232,C3,88.0,0.5,95,142.0
233,C2,88.0,0.5,95,142.0
234,F#2,88.0,0.5,95,142.0
235,C2,88.0,0.5,95,142.0
236,C3,88.5,0.5,95,142.0
237,C2,88.5,0.5,95,142.0
238,C2,88.5,0.5,95,142.0
239,F#2,89.0,1.0,95,142.0
240,E-3,89.5,0.5,95,142.0
241,E-2,89.5,0.5,95,142.0
242,F#2,90.0,1.0,95,142.0
243,E2,90.0,1.0,95,142.0
244,E2,90.5,37/500,95,142.0
245,F3,91.0,0.25,95,142.0
246,F2,91.0,0.5,95,142.0
247,F#2,91.0,0.5,95,142.0
248,F#3,91.25,0.25,70,142.0
249,F3,91.5,0.25,70,142.0
250,E-2,91.5,0.5,95,142.0
251,C2,91.5,0.5,95,142.0
252,E-3,91.75,0.25,70,142.0
253,F3,92.0,1.5,95,142.0
254,F2,92.0,1.0,95,142.0
255,F#2,92.0,1.0,95,142.0
256,F#2,93.0,0.5,95,142.0
257,C2,93.0,0.5,95,142.0
258,C2,93.5,0.5,95,142.0
259,F3,94.0,0.125,95,142.0
260,F#2,94.0,1.0,95,142.0
261,E2,94.0,1.0,95,142.0
262,E3,94.125,0.125,95,142.0
263,E-3,94.25,0.125,95,142.0
264,D3,94.375,0.125,95,142.0
265,C#3,94.5,0.125,95,142.0
266,C3,94.625,0.125,95,142.0
267,B2,94.75,0.125,95,142.0
268,B-2,94.875,0.125,95,142.0
269,A2,95.0,0.125,95,142.0
270,F#2,95.0,1.0,95,142.0
271,G#2,95.125,0.125,95,142.0
272,G2,95.25,0.125,95,142.0
273,F#2,95.375,0.125,95,142.0
274,B-2,95.5,0.5,95,142.0
275,B-1,95.5,0.5,95,142.0
276,C3,96.0,0.5,95,142.0
277,C2,96.0,0.5,95,142.0
278,C#3,96.0,1.0,95,142.0
279,C2,96.0,1.0,95,142.0
280,C3,96.5,0.5,95,142.0
281,C2,96.5,0.5,95,142.0
282,E2,97.0,37/500,95,142.0
283,F#2,97.0,1.0,95,142.0
284,E-3,97.5,0.5,95,142.0
285,E-2,97.5,0.5,95,142.0
286,F#2,98.0,1.0,95,142.0
287,E2,98.0,1.0,95,142.0
288,B-2,98.5,37/500,95,142.0
289,F#3,99.0,0.25,95,142.0
290,F#2,99.0,0.5,95,142.0
291,F#2,99.0,0.5,95,142.0
292,F3,99.25,0.25,70,142.0
293,E-3,99.5,0.5,70,142.0
294,E-2,99.5,0.5,95,142.0
295,C2,99.5,0.5,95,142.0
296,F#2,100.0,1.0,95,142.0
297,E-3,100.5,0.5,95,142.0
298,E-2,100.5,0.5,95,142.0
299,F#2,101.0,0.5,95,142.0
300,C2,101.0,0.5,95,142.0
301,E2,101.5,37/500,95,142.0
302,C2,101.5,0.5,95,142.0
303,B-2,102.0,0.5,95,142.0
304,B-1,102.0,0.5,95,142.0
305,F#2,102.0,1.0,95,142.0
306,E2,102.0,1.0,95,142.0
307,E2,102.5,37/500,95,142.0
308,B2,103.0,0.5,95,142.0
309,B1,103.0,0.5,95,142.0
310,F#2,103.0,1.0,95,142.0
311,C3,104.0,0.5,95,142.0
312,C2,104.0,0.5,95,142.0
313,F#2,104.0,0.5,95,142.0
314,C2,104.0,0.5,95,142.0
315,C3,104.5,0.5,95,142.0
316,C2,104.5,0.5,95,142.0
317,C2,104.5,0.5,95,142.0
318,F#2,105.0,1.0,95,142.0
319,E-3,105.5,0.5,95,142.0
320,E-2,105.5,0.5,95,142.0
321,F#2,106.0,1.0,95,142.0
322,E2,106.0,1.0,95,142.0
323,E2,106.5,37/500,95,142.0
324,F3,107.0,0.25,95,142.0
325,F2,107.0,0.5,95,142.0
326,F#2,107.0,0.5,95,142.0
327,F#3,107.25,0.25,70,142.0
328,F3,107.5,0.25,70,142.0
329,E-2,107.5,0.5,95,142.0
330,C2,107.5,0.5,95,142.0
331,E-3,107.75,0.25,70,142.0
332,F3,108.0,1.5,95,142.0
333,F2,108.0,1.0,95,142.0
334,F#2,108.0,1.0,95,142.0
335,F#2,109.0,0.5,95,142.0
336,C2,109.0,0.5,95,142.0
337,C2,109.5,0.5,95,142.0
338,F3,110.0,0.125,95,142.0
339,F#2,110.0,1.0,95,142.0
340,E2,110.0,1.0,95,142.0
341,E3,110.125,0.125,95,142.0
342,E-3,110.25,0.125,95,142.0
343,D3,110.375,0.125,95,142.0
344,C#3,110.5,0.125,95,142.0
345,C3,110.625,0.125,95,142.0
346,B2,110.75,0.125,95,142.0
347,B-2,110.875,0.125,95,142.0
348,A2,111.0,0.125,95,142.0
349,F#2,111.0,1.0,95,142.0
350,G#2,111.125,0.125,95,142.0
351,G2,111.25,0.125,95,142.0
352,F#2,111.375,0.125,95,142.0
353,B-2,111.5,0.5,95,142.0
354,B-1,111.5,0.5,95,142.0
355,C3,112.0,0.5,95,142.0
356,C2,112.0,0.5,95,142.0
357,F#2,112.0,1.0,95,142.0
358,C2,112.0,1.0,95,142.0
359,C3,112.5,0.5,95,142.0
360,C2,112.5,0.5,95,142.0
361,E2,113.0,37/500,95,142.0
362,F#2,113.0,1.0,95,142.0
363,E-3,113.5,0.5,95,142.0
364,E-2,113.5,0.5,95,142.0
365,F#2,114.0,1.0,95,142.0
366,E2,114.0,1.0,95,142.0
367,B-2,114.5,37/500,95,142.0
368,F#3,115.0,0.25,95,142.0
369,F#2,115.0,0.5,95,142.0
370,F#2,115.0,0.5,95,142.0
371,F3,115.25,0.25,70,142.0
372,E-3,115.5,0.5,70,142.0
373,E-2,115.5,0.5,95,142.0
374,C2,115.5,0.5,95,142.0
375,F#2,116.0,1.0,95,142.0
376,E-3,116.5,0.5,95,142.0
377,E-2,116.5,0.5,95,142.0
378,F#2,117.0,0.5,95,142.0
379,C2,117.0,0.5,95,142.0
380,E2,117.5,37/500,95,142.0
381,C2,117.5,0.5,95,142.0
382,B-2,118.0,0.5,95,142.0
383,B-1,118.0,0.5,95,142.0
384,F#2,118.0,1.0,95,142.0
385,E2,118.0,1.0,95,142.0
386,E2,118.5,37/500,95,142.0
387,B2,119.0,0.5,95,142.0
388,B1,119.0,0.5,95,142.0
389,F#2,119.0,1.0,95,142.0
390,C3,120.0,0.5,95,142.0
391,C2,120.0,0.5,95,142.0
392,F#2,120.0,0.5,95,142.0
393,C2,120.0,0.5,95,142.0
394,C3,120.5,0.5,95,142.0
395,C2,120.5,0.5,95,142.0
396,C2,120.5,0.5,95,142.0
397,F#2,121.0,1.0,95,142.0
398,E-3,121.5,0.5,95,142.0
399,E-2,121.5,0.5,95,142.0
400,F#2,122.0,1.0,95,142.0
401,E2,122.0,1.0,95,142.0
402,E2,122.5,37/500,95,142.0
403,F3,123.0,0.25,95,142.0
404,F2,123.0,0.5,95,142.0
405,F#2,123.0,0.5,95,142.0
406,F#3,123.25,0.25,70,142.0
407,F3,123.5,0.25,70,142.0
408,E-2,123.5,0.5,95,142.0
409,C2,123.5,0.5,95,142.0
410,E-3,123.75,0.25,70,142.0
411,F3,124.0,1.5,95,142.0
412,F2,124.0,1.0,95,142.0
413,F#2,124.0,1.0,95,142.0
414,F#2,125.0,0.5,95,142.0
415,C2,125.0,0.5,95,142.0
416,C2,125.5,0.5,95,142.0
417,F3,126.0,0.125,95,142.0
418,F#2,126.0,1.0,95,142.0
419,E2,126.0,1.0,95,142.0
420,E3,126.125,0.125,95,142.0
421,E-3,126.25,0.125,95,142.0
422,D3,126.375,0.125,95,142.0
423,C#3,126.5,0.125,95,142.0
424,C3,126.625,0.125,95,142.0
425,B2,126.75,0.125,95,142.0
426,B-2,126.875,0.125,95,142.0
427,A2,127.0,0.125,95,142.0
428,F#2,127.0,1.0,95,142.0
429,G#2,127.125,0.125,95,142.0
430,G2,127.25,0.125,95,142.0
431,F#2,127.375,0.125,95,142.0
432,C#3,128.0,1.0,95,142.0
433,C2,128.0,1.0,95,142.0
434,F#2,129.0,1.0,95,142.0
435,F#2,130.0,1.0,95,142.0
436,E2,130.0,1.0,95,142.0
437,F#2,131.0,0.5,95,142.0
438,C2,131.5,0.5,95,142.0
439,F#2,132.0,1.0,95,142.0
440,F#2,133.0,0.5,95,142.0
441,C2,133.0,0.5,95,142.0
442,C2,133.5,0.5,95,142.0
443,F#2,134.0,1.0,95,142.0
444,E2,134.0,1.0,95,142.0
445,F#2,135.0,1.0,95,142.0
446,F#2,136.0,0.5,95,142.0
447,C2,136.0,0.5,95,142.0
448,C2,136.5,0.5,95,142.0
449,F#2,137.0,1.0,95,142.0
450,F#2,138.0,1.0,95,142.0
451,E2,138.0,1.0,95,142.0
452,F#2,139.0,0.5,95,142.0
453,C2,139.5,0.5,95,142.0
454,F#2,140.0,1.0,95,142.0
455,F#2,141.0,0.5,95,142.0
456,C2,141.0,0.5,95,142.0
457,C2,141.5,0.5,95,142.0
458,F#2,142.0,1.0,95,142.0
459,E2,142.0,1.0,95,142.0
460,F#2,143.0,1.0,95,142.0
461,F#2,144.0,1.0,95,142.0
462,C2,144.0,1.0,95,142.0
463,F#2,145.0,1.0,95,142.0
464,F#2,146.0,1.0,95,142.0
465,E2,146.0,1.0,95,142.0
466,F#2,147.0,0.5,95,142.0
467,C2,147.5,0.5,95,142.0
468,F#2,148.0,1.0,95,142.0
469,F#2,149.0,0.5,95,142.0
470,C2,149.0,0.5,95,142.0
471,C2,149.5,0.5,95,142.0
472,F#2,150.0,1.0,95,142.0
473,E2,150.0,1.0,95,142.0
474,F#2,151.0,1.0,95,142.0
475,F#2,152.0,0.5,95,142.0
476,C2,152.0,0.5,95,142.0
477,C2,152.5,0.5,95,142.0
478,F#2,153.0,1.0,95,142.0
479,F#2,154.0,1.0,95,142.0
480,E2,154.0,1.0,95,142.0
481,F#2,155.0,0.5,95,142.0
482,C2,155.5,0.5,95,142.0
483,F#2,156.0,1.0,95,142.0
484,F#2,157.0,0.5,95,142.0
485,C2,157.0,0.5,95,142.0
486,C2,157.5,0.5,95,142.0
487,F#2,158.0,1.0,95,142.0
488,E2,158.0,1.0,95,142.0
489,F#2,159.0,1.0,95,142.0
490,C#3,160.0,1.0,95,142.0
491,C2,160.0,1.0,95,142.0
492,F#2,161.0,1.0,95,142.0
493,F#2,162.0,1.0,95,142.0
494,E2,162.0,1.0,95,142.0
495,F#2,163.0,0.5,95,142.0
496,C2,163.5,0.5,95,142.0
497,F#2,164.0,1.0,95,142.0
498,F#2,165.0,0.5,95,142.0
499,C2,165.0,0.5,95,142.0
500,C2,165.5,0.5,95,142.0
501,F#2,166.0,1.0,95,142.0
502,E2,166.0,1.0,95,142.0
503,F#2,167.0,1.0,95,142.0
504,F#2,168.0,0.5,95,142.0
505,C2,168.0,0.5,95,142.0
506,C2,168.5,0.5,95,142.0
507,F#2,169.0,1.0,95,142.0
508,F#2,170.0,1.0,95,142.0
509,E2,170.0,1.0,95,142.0
510,F#2,171.0,0.5,95,142.0
511,C2,171.5,0.5,95,142.0
512,F#2,172.0,1.0,95,142.0
513,F#2,173.0,0.5,95,142.0
514,C2,173.0,0.5,95,142.0
515,C2,173.5,0.5,95,142.0
516,F#2,174.0,1.0,95,142.0
517,E2,174.0,1.0,95,142.0
518,F#2,175.0,1.0,95,142.0
519,F#2,176.0,1.0,95,142.0
520,C2,176.0,1.0,95,142.0
521,F#2,177.0,1.0,95,142.0
522,F#2,178.0,1.0,95,142.0
523,E2,178.0,1.0,95,142.0
524,F#2,179.0,0.5,95,142.0
525,C2,179.5,0.5,95,142.0
526,F#2,180.0,1.0,95,142.0
527,F#2,181.0,0.5,95,142.0
528,C2,181.0,0.5,95,142.0
529,C2,181.5,0.5,95,142.0
530,F#2,182.0,1.0,95,142.0
531,E2,182.0,1.0,95,142.0
532,F#2,183.0,1.0,95,142.0
533,F#2,184.0,0.5,95,142.0
534,C2,184.0,0.5,95,142.0
535,C2,184.5,0.5,95,142.0
536,F#2,185.0,1.0,95,142.0
537,F#2,186.0,1.0,95,142.0
538,E2,186.0,1.0,95,142.0
539,F#2,187.0,0.5,95,142.0
540,C2,187.5,0.5,95,142.0
541,F#2,188.0,1.0,95,142.0
542,F#2,189.0,0.5,95,142.0
543,C2,189.0,0.5,95,142.0
544,C2,189.5,0.5,95,142.0
545,F#2,190.0,1.0,95,142.0
546,E2,190.0,1.0,95,142.0
547,F#2,191.0,1.0,95,142.0
548,C#3,192.0,1.0,95,142.0
549,C2,192.0,1.0,95,142.0
550,F#2,193.0,1.0,95,142.0
551,F#2,194.0,1.0,95,142.0
552,E2,194.0,1.0,95,142.0
553,F#2,195.0,0.5,95,142.0
554,C2,195.5,0.5,95,142.0
555,F#2,196.0,1.0,95,142.0
556,F#2,197.0,0.5,95,142.0
557,C2,197.0,0.5,95,142.0
558,C2,197.5,0.5,95,142.0
559,F#2,198.0,1.0,95,142.0
560,E2,198.0,1.0,95,142.0
561,F#2,199.0,1.0,95,142.0
562,F#2,200.0,0.5,95,142.0
563,C2,200.0,0.5,95,142.0
564,C2,200.5,0.5,95,142.0
565,F#2,201.0,1.0,95,142.0
566,F#2,202.0,1.0,95,142.0
567,E2,202.0,1.0,95,142.0
568,F#2,203.0,0.5,95,142.0
569,C2,203.5,0.5,95,142.0
570,F#2,204.0,1.0,95,142.0
571,F#2,205.0,0.5,95,142.0
572,C2,205.0,0.5,95,142.0
573,C2,205.5,0.5,95,142.0
574,F#2,206.0,1.0,95,142.0
575,E2,206.0,1.0,95,142.0
576,F#2,207.0,1.0,95,142.0
577,F#2,208.0,1.0,95,142.0
578,C2,208.0,1.0,95,142.0
579,F#2,209.0,1.0,95,142.0
580,F#2,210.0,1.0,95,142.0
581,E2,210.0,1.0,95,142.0
582,F#2,211.0,0.5,95,142.0
583,C2,211.5,0.5,95,142.0
584,F#2,212.0,1.0,95,142.0
585,F#2,213.0,0.5,95,142.0
586,C2,213.0,0.5,95,142.0
587,C2,213.5,0.5,95,142.0
588,F#2,214.0,1.0,95,142.0
589,E2,214.0,1.0,95,142.0
590,F#2,215.0,1.0,95,142.0
591,F#2,216.0,0.5,95,142.0
592,C2,216.0,0.5,95,142.0
593,C2,216.5,0.5,95,142.0
594,F#2,217.0,1.0,95,142.0
595,F#2,218.0,1.0,95,142.0
596,E2,218.0,1.0,95,142.0
597,F#2,219.0,0.5,95,142.0
598,C2,219.5,0.5,95,142.0
599,F#2,220.0,1.0,95,142.0
600,F#2,221.0,0.5,95,142.0
601,C2,221.0,0.5,95,142.0
602,C2,221.5,0.5,95,142.0
603,F#2,222.0,1.0,95,142.0
604,E2,222.0,1.0,95,142.0
605,F#2,223.0,1.0,95,142.0
606,C#3,224.0,1.0,95,142.0
607,C2,224.0,1.0,95,142.0
608,F#2,225.0,1.0,95,142.0
609,F#2,226.0,1.0,95,142.0
610,E2,226.0,1.0,95,142.0
611,F#2,227.0,0.5,95,142.0
612,C2,227.5,0.5,95,142.0
613,F#2,228.0,1.0,95,142.0
614,F#2,229.0,0.5,95,142.0
615,C2,229.0,0.5,95,142.0
616,C2,229.5,0.5,95,142.0
617,F#2,230.0,1.0,95,142.0
618,E2,230.0,1.0,95,142.0
619,F#2,231.0,1.0,95,142.0
620,F#2,232.0,0.5,95,142.0
621,C2,232.0,0.5,95,142.0
622,C2,232.5,0.5,95,142.0
623,F#2,233.0,1.0,95,142.0
624,F#2,234.0,1.0,95,142.0
625,E2,234.0,1.0,95,142.0
626,F#2,235.0,0.5,95,142.0
627,C2,235.5,0.5,95,142.0
628,F#2,236.0,1.0,95,142.0
629,F#2,237.0,0.5,95,142.0
630,C2,237.0,0.5,95,142.0
631,C2,237.5,0.5,95,142.0
632,F#2,238.0,1.0,95,142.0
633,E2,238.0,1.0,95,142.0
634,F#2,239.0,1.0,95,142.0
635,F#2,240.0,1.0,95,142.0
636,C2,240.0,1.0,95,142.0
637,F#2,241.0,1.0,95,142.0
638,F#2,242.0,1.0,95,142.0
639,E2,242.0,1.0,95,142.0
640,F#2,243.0,0.5,95,142.0
641,C2,243.5,0.5,95,142.0
642,F#2,244.0,1.0,95,142.0
643,F#2,245.0,0.5,95,142.0
644,C2,245.0,0.5,95,142.0
645,C2,245.5,0.5,95,142.0
646,F#2,246.0,1.0,95,142.0
647,E2,246.0,1.0,95,142.0
648,F#2,247.0,1.0,95,142.0
649,F#2,248.0,0.5,95,142.0
650,C2,248.0,0.5,95,142.0
651,C2,248.5,0.5,95,142.0
652,F#2,249.0,1.0,95,142.0
653,F#2,250.0,1.0,95,142.0
654,E2,250.0,1.0,95,142.0
655,F#2,251.0,0.5,95,142.0
656,C2,251.5,0.5,95,142.0
657,F#2,252.0,1.0,95,142.0
658,F#2,253.0,0.5,95,142.0
659,C2,253.0,0.5,95,142.0
660,C2,253.5,0.5,95,142.0
661,F#2,254.0,1.0,95,142.0
662,E2,254.0,1.0,95,142.0
663,F#2,255.0,1.0,95,142.0
664,B-2,255.5,37/250,95,142.0
665,B-1,255.5,0.5,95,142.0
666,C3,256.0,0.5,95,142.0
667,C2,256.0,0.5,95,142.0
668,C#3,256.0,1.0,95,142.0
669,C2,256.0,1.0,95,142.0
670,C3,256.5,0.5,95,142.0
671,C2,256.5,0.5,95,142.0
672,E2,257.0,37/500,95,142.0
673,F#2,257.0,1.0,95,142.0
674,E-3,257.5,0.5,95,142.0
675,E-2,257.5,0.5,95,142.0
676,F#2,258.0,1.0,95,142.0
677,E2,258.0,1.0,95,142.0
678,B-2,258.5,37/500,95,142.0
679,F#3,259.0,0.25,95,142.0
680,F#2,259.0,0.5,95,142.0
681,F#2,259.0,0.5,95,142.0
682,F3,259.25,0.25,70,142.0
683,E-3,259.5,0.5,70,142.0
684,E-2,259.5,0.5,95,142.0
685,C2,259.5,0.5,95,142.0
686,F#2,260.0,1.0,95,142.0
687,E-3,260.5,0.5,95,142.0
688,E-2,260.5,0.5,95,142.0
689,F#2,261.0,0.5,95,142.0
690,C2,261.0,0.5,95,142.0
691,E2,261.5,37/500,95,142.0
692,C2,261.5,0.5,95,142.0
693,B-2,262.0,0.5,95,142.0
694,B-1,262.0,0.5,95,142.0
695,F#2,262.0,1.0,95,142.0
696,E2,262.0,1.0,95,142.0
697,E2,262.5,37/500,95,142.0
698,B2,263.0,0.5,95,142.0
699,B1,263.0,0.5,95,142.0
700,F#2,263.0,1.0,95,142.0
701,C3,264.0,0.5,95,142.0
702,C2,264.0,0.5,95,142.0
703,F#2,264.0,0.5,95,142.0
704,C2,264.0,0.5,95,142.0
705,C3,264.5,0.5,95,142.0
706,C2,264.5,0.5,95,142.0
707,C2,264.5,0.5,95,142.0
708,F#2,265.0,1.0,95,142.0
709,E-3,265.5,0.5,95,142.0
710,E-2,265.5,0.5,95,142.0
711,F#2,266.0,1.0,95,142.0
712,E2,266.0,1.0,95,142.0
713,E2,266.5,37/500,95,142.0
714,F3,267.0,0.25,95,142.0
715,F2,267.0,0.5,95,142.0
716,F#2,267.0,0.5,95,142.0
717,F#3,267.25,0.25,70,142.0
718,F3,267.5,0.25,70,142.0
719,E-2,267.5,0.5,95,142.0
720,C2,267.5,0.5,95,142.0
721,E-3,267.75,0.25,70,142.0
722,F3,268.0,1.5,95,142.0
723,F2,268.0,1.0,95,142.0
724,F#2,268.0,1.0,95,142.0
725,F#2,269.0,0.5,95,142.0
726,C2,269.0,0.5,95,142.0
727,C2,269.5,0.5,95,142.0
728,F3,270.0,0.125,95,142.0
729,F#2,270.0,1.0,95,142.0
730,E2,270.0,1.0,95,142.0
731,E3,270.125,0.125,95,142.0
732,E-3,270.25,0.125,95,142.0
733,D3,270.375,0.125,95,142.0
734,C#3,270.5,0.125,95,142.0
735,C3,270.625,0.125,95,142.0
736,B2,270.75,0.125,95,142.0
737,B-2,270.875,0.125,95,142.0
738,A2,271.0,0.125,95,142.0
739,F#2,271.0,1.0,95,142.0
740,G#2,271.125,0.125,95,142.0
741,G2,271.25,0.125,95,142.0
742,F#2,271.375,0.125,95,142.0
743,B-2,271.5,0.5,95,142.0
744,B-1,271.5,0.5,95,142.0
745,C3,272.0,0.5,95,142.0
746,C2,272.0,0.5,95,142.0
747,F#2,272.0,1.0,95,142.0
748,C2,272.0,1.0,95,142.0
749,C3,272.5,0.5,95,142.0
750,C2,272.5,0.5,95,142.0
751,E2,273.0,37/500,95,142.0
752,F#2,273.0,1.0,95,142.0
753,E-3,273.5,0.5,95,142.0
754,E-2,273.5,0.5,95,142.0
755,F#2,274.0,1.0,95,142.0
756,E2,274.0,1.0,95,142.0
757,B-2,274.5,37/500,95,142.0
758,F#3,275.0,0.25,95,142.0
759,F#2,275.0,0.5,95,142.0
760,F#2,275.0,0.5,95,142.0
761,F3,275.25,0.25,70,142.0
762,E-3,275.5,0.5,70,142.0
763,E-2,275.5,0.5,95,142.0
764,C2,275.5,0.5,95,142.0
765,F#2,276.0,1.0,95,142.0
766,E-3,276.5,0.5,95,142.0
767,E-2,276.5,0.5,95,142.0
768,F#2,277.0,0.5,95,142.0
769,C2,277.0,0.5,95,142.0
770,E2,277.5,37/500,95,142.0
771,C2,277.5,0.5,95,142.0
772,B-2,278.0,0.5,95,142.0
773,B-1,278.0,0.5,95,142.0
774,F#2,278.0,1.0,95,142.0
775,E2,278.0,1.0,95,142.0
776,E2,278.5,37/500,95,142.0
777,B2,279.0,0.5,95,142.0
778,B1,279.0,0.5,95,142.0
779,F#2,279.0,1.0,95,142.0
780,C3,280.0,0.5,95,142.0
781,C2,280.0,0.5,95,142.0
782,F#2,280.0,0.5,95,142.0
783,C2,280.0,0.5,95,142.0
784,C3,280.5,0.5,95,142.0
785,C2,280.5,0.5,95,142.0
786,C2,280.5,0.5,95,142.0
787,F#2,281.0,1.0,95,142.0
788,E-3,281.5,0.5,95,142.0
789,E-2,281.5,0.5,95,142.0
790,F#2,282.0,1.0,95,142.0
791,E2,282.0,1.0,95,142.0
792,E2,282.5,37/500,95,142.0
793,F3,283.0,0.25,95,142.0
794,F2,283.0,0.5,95,142.0
795,F#2,283.0,0.5,95,142.0
796,F#3,283.25,0.25,70,142.0
797,F3,283.5,0.25,70,142.0
798,E-2,283.5,0.5,95,142.0
799,C2,283.5,0.5,95,142.0
800,E-3,283.75,0.25,70,142.0
801,F3,284.0,1.5,95,142.0
802,F2,284.0,1.0,95,142.0
803,F#2,284.0,1.0,95,142.0
804,F#2,285.0,0.5,95,142.0
805,C2,285.0,0.5,95,142.0
806,C2,285.5,0.5,95,142.0
807,F3,286.0,0.125,95,142.0
808,F#2,286.0,1.0,95,142.0
809,E2,286.0,1.0,95,142.0
810,E3,286.125,0.125,95,142.0
811,E-3,286.25,0.125,95,142.0
812,D3,286.375,0.125,95,142.0
813,C#3,286.5,0.125,95,142.0
814,C3,286.625,0.125,95,142.0
815,B2,286.75,0.125,95,142.0
816,B-2,286.875,0.125,95,142.0
817,A2,287.0,0.125,95,142.0
818,F#2,287.0,1.0,95,142.0
819,G#2,287.125,0.125,95,142.0
820,G2,287.25,0.125,95,142.0
821,F#2,287.375,0.125,95,142.0
822,B-2,287.5,0.5,95,142.0
823,B-1,287.5,0.5,95,142.0
824,C3,288.0,0.5,95,142.0
825,C2,288.0,0.5,95,142.0
826,C#3,288.0,1.0,95,142.0
827,C2,288.0,1.0,95,142.0
828,C3,288.5,0.5,95,142.0
829,C2,288.5,0.5,95,142.0
830,E2,289.0,37/500,95,142.0
831,F#2,289.0,1.0,95,142.0
832,E-3,289.5,0.5,95,142.0
833,E-2,289.5,0.5,95,142.0
834,F#2,290.0,1.0,95,142.0
835,E2,290.0,1.0,95,142.0
836,B-2,290.5,37/500,95,142.0
837,F#3,291.0,0.25,95,142.0
838,F#2,291.0,0.5,95,142.0
839,F#2,291.0,0.5,95,142.0
840,F3,291.25,0.25,70,142.0
841,E-3,291.5,0.5,70,142.0
842,E-2,291.5,0.5,95,142.0
843,C2,291.5,0.5,95,142.0
844,F#2,292.0,1.0,95,142.0
845,E-3,292.5,0.5,95,142.0
846,E-2,292.5,0.5,95,142.0
847,F#2,293.0,0.5,95,142.0
848,C2,293.0,0.5,95,142.0
849,E2,293.5,37/500,95,142.0
850,C2,293.5,0.5,95,142.0
851,B-2,294.0,0.5,95,142.0
852,B-1,294.0,0.5,95,142.0
853,F#2,294.0,1.0,95,142.0
854,E2,294.0,1.0,95,142.0
855,E2,294.5,37/500,95,142.0
856,B2,295.0,0.5,95,142.0
857,B1,295.0,0.5,95,142.0
858,F#2,295.0,1.0,95,142.0
859,C3,296.0,0.5,95,142.0
860,C2,296.0,0.5,95,142.0
861,F#2,296.0,0.5,95,142.0
862,C2,296.0,0.5,95,142.0
863,C3,296.5,0.5,95,142.0
864,C2,296.5,0.5,95,142.0
865,C2,296.5,0.5,95,142.0
866,F#2,297.0,1.0,95,142.0
867,E-3,297.5,0.5,95,142.0
868,E-2,297.5,0.5,95,142.0
869,F#2,298.0,1.0,95,142.0
870,E2,298.0,1.0,95,142.0
871,E2,298.5,37/500,95,142.0
872,F3,299.0,0.25,95,142.0
873,F2,299.0,0.5,95,142.0
874,F#2,299.0,0.5,95,142.0
875,F#3,299.25,0.25,70,142.0
876,F3,299.5,0.25,70,142.0
877,E-2,299.5,0.5,95,142.0
878,C2,299.5,0.5,95,142.0
879,E-3,299.75,0.25,70,142.0
880,F3,300.0,1.5,95,142.0
881,F2,300.0,1.0,95,142.0
882,F#2,300.0,1.0,95,142.0
883,F#2,301.0,0.5,95,142.0
884,C2,301.0,0.5,95,142.0
885,C2,301.5,0.5,95,142.0
886,F3,302.0,0.125,95,142.0
887,F#2,302.0,1.0,95,142.0
888,E2,302.0,1.0,95,142.0
889,E3,302.125,0.125,95,142.0
890,E-3,302.25,0.125,95,142.0
891,D3,302.375,0.125,95,142.0
892,C#3,302.5,0.125,95,142.0
893,C3,302.625,0.125,95,142.0
894,B2,302.75,0.125,95,142.0
895,B-2,302.875,0.125,95,142.0
896,A2,303.0,0.125,95,142.0
897,F#2,303.0,1.0,95,142.0
898,G#2,303.125,0.125,95,142.0
899,G2,303.25,0.125,95,142.0
900,F#2,303.375,0.125,95,142.0
901,B-2,303.5,0.5,95,142.0
902,B-1,303.5,0.5,95,142.0
903,C3,304.0,0.5,95,142.0
904,C2,304.0,0.5,95,142.0
905,F#2,304.0,1.0,95,142.0
906,C2,304.0,1.0,95,142.0
907,C3,304.5,0.5,95,142.0
908,C2,304.5,0.5,95,142.0
909,E2,305.0,37/500,95,142.0
910,F#2,305.0,1.0,95,142.0
911,E-3,305.5,0.5,95,142.0
912,E-2,305.5,0.5,95,142.0
913,F#2,306.0,1.0,95,142.0
914,E2,306.0,1.0,95,142.0
915,B-2,306.5,37/500,95,142.0
916,F#3,307.0,0.25,95,142.0
917,F#2,307.0,0.5,95,142.0
918,F#2,307.0,0.5,95,142.0
919,F3,307.25,0.25,70,142.0
920,E-3,307.5,0.5,70,142.0
921,E-2,307.5,0.5,95,142.0
922,C2,307.5,0.5,95,142.0
923,F#2,308.0,1.0,95,142.0
924,E-3,308.5,0.5,95,142.0
925,E-2,308.5,0.5,95,142.0
926,F#2,309.0,0.5,95,142.0
927,C2,309.0,0.5,95,142.0
928,E2,309.5,37/500,95,142.0
929,C2,309.5,0.5,95,142.0
930,B-2,310.0,0.5,95,142.0
931,B-1,310.0,0.5,95,142.0
932,F#2,310.0,1.0,95,142.0
933,E2,310.0,1.0,95,142.0
934,E2,310.5,37/500,95,142.0
935,B2,311.0,0.5,95,142.0
936,B1,311.0,0.5,95,142.0
937,F#2,311.0,1.0,95,142.0
938,C3,312.0,0.5,95,142.0
939,C2,312.0,0.5,95,142.0
940,F#2,312.0,0.5,95,142.0
941,C2,312.0,0.5,95,142.0
942,C3,312.5,0.5,95,142.0
943,C2,312.5,0.5,95,142.0
944,C2,312.5,0.5,95,142.0
945,F#2,313.0,1.0,95,142.0
946,E-3,313.5,0.5,95,142.0
947,E-2,313.5,0.5,95,142.0
948,F#2,314.0,1.0,95,142.0
949,E2,314.0,1.0,95,142.0
950,E2,314.5,37/500,95,142.0
951,F3,315.0,0.25,95,142.0
952,F2,315.0,0.5,95,142.0
953,F#2,315.0,0.5,95,142.0
954,F#3,315.25,0.25,70,142.0
955,F3,315.5,0.25,70,142.0
956,E-2,315.5,0.5,95,142.0
957,C2,315.5,0.5,95,142.0
958,E-3,315.75,0.25,70,142.0
959,F3,316.0,1.5,95,142.0
960,F2,316.0,1.0,95,142.0
961,F#2,316.0,1.0,95,142.0
962,F#2,317.0,0.5,95,142.0
963,C2,317.0,0.5,95,142.0
964,C2,317.5,0.5,95,142.0
965,F3,318.0,0.125,95,142.0
966,F#2,318.0,1.0,95,142.0
967,E2,318.0,1.0,95,142.0
968,E3,318.125,0.125,95,142.0
969,E-3,318.25,0.125,95,142.0
970,D3,318.375,0.125,95,142.0
971,C#3,318.5,0.125,95,142.0
972,C3,318.625,0.125,95,142.0
973,B2,318.75,0.125,95,142.0
974,B-2,318.875,0.125,95,142.0
975,A2,319.0,0.125,95,142.0
976,F#2,319.0,1.0,95,142.0
977,G#2,319.125,0.125,95,142.0
978,G2,319.25,0.125,95,142.0
979,F#2,319.375,0.125,95,142.0
980,B-3,320.0,0.25,95,142.0
981,B-2,320.0,0.25,95,142.0
982,C#3,320.0,1.0,95,142.0
983,C2,320.0,1.0,95,142.0
984,C4,320.25,0.5,70,142.0
985,C3,320.25,0.5,70,142.0
986,B-3,320.75,0.25,95,142.0
987,B-2,320.75,0.25,95,142.0
988,C4,321.0,0.5,70,142.0
989,C3,321.0,0.5,70,142.0
990,F#2,321.0,1.0,95,142.0
991,B-3,321.5,0.25,95,142.0
992,B-2,321.5,0.25,95,142.0
993,C4,321.75,0.25,70,142.0
994,C3,321.75,0.25,70,142.0
995,F3,322.0,0.5,95,142.0
996,F2,322.0,0.5,95,142.0
997,F#2,322.0,1.0,95,142.0
998,E2,322.0,1.0,95,142.0
999,E-3,322.5,0.5,95,142.0
1000,E-2,322.5,0.5,95,142.0
1001,C3,323.0,1.0,95,142.0
1002,C2,323.0,1.0,95,142.0
1003,F#2,323.0,0.5,95,142.0
1004,C2,323.5,0.5,95,142.0
1005,B-3,324.0,0.25,95,142.0
1006,B-2,324.0,0.25,95,142.0
1007,F#2,324.0,1.0,95,142.0
1008,C4,324.25,0.5,70,142.0
1009,C3,324.25,0.5,70,142.0
1010,B-3,324.75,0.25,95,142.0
1011,B-2,324.75,0.25,95,142.0
1012,C4,325.0,0.5,70,142.0
1013,C3,325.0,0.5,70,142.0
1014,F#2,325.0,0.5,95,142.0
1015,C2,325.0,0.5,95,142.0
1016,B-3,325.5,0.25,95,142.0
1017,B-2,325.5,0.25,95,142.0
1018,C2,325.5,0.5,95,142.0
1019,C4,325.75,0.25,70,142.0
1020,C3,325.75,0.25,70,142.0
1021,E-4,326.0,2.0,95,142.0
1022,E-3,326.0,2.0,95,142.0
1023,F#2,326.0,1.0,95,142.0
1024,E2,326.0,1.0,95,142.0
1025,F#2,327.0,1.0,95,142.0
1026,B-3,328.0,0.25,95,142.0
1027,B-2,328.0,0.25,95,142.0
1028,F#2,328.0,0.5,95,142.0
1029,C2,328.0,0.5,95,142.0
1030,C4,328.25,0.5,70,142.0
1031,C3,328.25,0.5,70,142.0
1032,C2,328.5,0.5,95,142.0
1033,B-3,328.75,0.25,95,142.0
1034,B-2,328.75,0.25,95,142.0
1035,C4,329.0,0.5,70,142.0
1036,C3,329.0,0.5,70,142.0
1037,F#2,329.0,1.0,95,142.0
1038,B-3,329.5,0.25,95,142.0
1039,B-2,329.5,0.25,95,142.0
1040,C4,329.75,0.25,70,142.0
1041,C3,329.75,0.25,70,142.0
1042,F3,330.0,0.5,95,142.0
1043,F2,330.0,0.5,95,142.0
1044,F#2,330.0,1.0,95,142.0
1045,E2,330.0,1.0,95,142.0
1046,E-3,330.5,0.5,95,142.0
1047,E-2,330.5,0.5,95,142.0
1048,C3,331.0,1.0,95,142.0
1049,C2,331.0,1.0,95,142.0
1050,F#2,331.0,0.5,95,142.0
1051,C2,331.5,0.5,95,142.0
1052,F3,332.0,0.75,95,142.0
1053,F2,332.0,0.75,95,142.0
1054,F#2,332.0,1.0,95,142.0
1055,E-3,332.75,0.25,70,142.0
1056,E-2,332.75,0.25,70,142.0
1057,F3,333.0,0.5,95,142.0
1058,F2,333.0,0.5,95,142.0
1059,F#2,333.0,0.5,95,142.0
1060,C2,333.0,0.5,95,142.0
1061,G3,333.5,0.5,70,142.0
1062,G2,333.5,0.5,70,142.0
1063,C2,333.5,0.5,95,142.0
1064,E-3,334.0,2.0,95,142.0
1065,E-2,334.0,2.0,95,142.0
1066,F#2,334.0,1.0,95,142.0
1067,E2,334.0,1.0,95,142.0
1068,F#2,335.0,1.0,95,142.0
1069,B-3,336.0,0.25,95,142.0
1070,B-2,336.0,0.25,95,142.0
1071,F#2,336.0,1.0,95,142.0
1072,C2,336.0,1.0,95,142.0
1073,C4,336.25,0.5,70,142.0
1074,C3,336.25,0.5,70,142.0
1075,B-3,336.75,0.25,95,142.0
1076,B-2,336.75,0.25,95,142.0
1077,C4,337.0,0.5,70,142.0
1078,C3,337.0,0.5,70,142.0
1079,F#2,337.0,1.0,95,142.0
1080,B-3,337.5,0.25,95,142.0
1081,B-2,337.5,0.25,95,142.0
1082,C4,337.75,0.25,70,142.0
1083,C3,337.75,0.25,70,142.0
1084,F3,338.0,0.5,95,142.0
1085,F2,338.0,0.5,95,142.0
1086,F#2,338.0,1.0,95,142.0
1087,E2,338.0,1.0,95,142.0
1088,E-3,338.5,0.5,95,142.0
1089,E-2,338.5,0.5,95,142.0
1090,C3,339.0,1.0,95,142.0
1091,C2,339.0,1.0,95,142.0
1092,F#2,339.0,0.5,95,142.0
1093,C2,339.5,0.5,95,142.0
1094,B-3,340.0,0.25,95,142.0
1095,B-2,340.0,0.25,95,142.0
1096,F#2,340.0,1.0,95,142.0
1097,C4,340.25,0.5,70,142.0
1098,C3,340.25,0.5,70,142.0
1099,B-3,340.75,0.25,95,142.0
1100,B-2,340.75,0.25,95,142.0
1101,C4,341.0,0.5,70,142.0
1102,C3,341.0,0.5,70,142.0
1103,F#2,341.0,0.5,95,142.0
1104,C2,341.0,0.5,95,142.0
1105,B-3,341.5,0.25,95,142.0
1106,B-2,341.5,0.25,95,142.0
1107,C2,341.5,0.5,95,142.0
1108,C4,341.75,0.25,70,142.0
1109,C3,341.75,0.25,70,142.0
1110,E-4,342.0,2.0,95,142.0
1111,E-3,342.0,2.0,95,142.0
1112,F#2,342.0,1.0,95,142.0
1113,E2,342.0,1.0,95,142.0
1114,F#2,343.0,1.0,95,142.0
1115,B-3,344.0,0.25,95,142.0
1116,B-2,344.0,0.25,95,142.0
1117,F#2,344.0,0.5,95,142.0
1118,C2,344.0,0.5,95,142.0
1119,C4,344.25,0.5,70,142.0
1120,C3,344.25,0.5,70,142.0
1121,C2,344.5,0.5,95,142.0
1122,B-3,344.75,0.25,95,142.0
1123,B-2,344.75,0.25,95,142.0
1124,C4,345.0,0.5,70,142.0
1125,C3,345.0,0.5,70,142.0
1126,F#2,345.0,1.0,95,142.0
1127,B-3,345.5,0.25,95,142.0
1128,B-2,345.5,0.25,95,142.0
1129,C4,345.75,0.25,70,142.0
1130,C3,345.75,0.25,70,142.0
1131,F4,346.0,2.0,95,142.0
1132,F3,346.0,2.0,95,142.0
1133,F#2,346.0,1.0,95,142.0
1134,E2,346.0,1.0,95,142.0
1135,F#2,347.0,0.5,95,142.0
1136,B-4,347.5,0.5,95,142.0
1137,C2,347.5,0.5,95,142.0
1138,G4,348.0,4.0,95,142.0
1139,F3,348.0,4.0,95,142.0
1140,F#2,348.0,1.0,95,142.0
1141,F#2,349.0,0.5,95,142.0
1142,C2,349.0,0.5,95,142.0
1143,C2,349.5,0.5,95,142.0
1144,F#2,350.0,1.0,95,142.0
1145,E2,350.0,1.0,95,142.0
1146,F#2,351.0,1.0,95,142.0
1147,B-3,352.0,0.25,95,142.0
1148,B-2,352.0,0.25,95,142.0
1149,C#3,352.0,1.0,95,142.0
1150,C2,352.0,1.0,95,142.0
1151,C4,352.25,0.5,70,142.0
1152,C3,352.25,0.5,70,142.0
1153,B-3,352.75,0.25,95,142.0
1154,B-2,352.75,0.25,95,142.0
1155,C4,353.0,0.5,70,142.0
1156,C3,353.0,0.5,70,142.0
1157,F#2,353.0,1.0,95,142.0
1158,B-3,353.5,0.25,95,142.0
1159,B-2,353.5,0.25,95,142.0
1160,C4,353.75,0.25,70,142.0
1161,C3,353.75,0.25,70,142.0
1162,F3,354.0,0.5,95,142.0
1163,F2,354.0,0.5,95,142.0
1164,F#2,354.0,1.0,95,142.0
1165,E2,354.0,1.0,95,142.0
1166,E-3,354.5,0.5,95,142.0
1167,E-2,354.5,0.5,95,142.0
1168,C3,355.0,1.0,95,142.0
1169,C2,355.0,1.0,95,142.0
1170,F#2,355.0,0.5,95,142.0
1171,C2,355.5,0.5,95,142.0
1172,B-3,356.0,0.25,95,142.0
1173,B-2,356.0,0.25,95,142.0
1174,F#2,356.0,1.0,95,142.0
1175,C4,356.25,0.5,70,142.0
1176,C3,356.25,0.5,70,142.0
1177,B-3,356.75,0.25,95,142.0
1178,B-2,356.75,0.25,95,142.0
1179,C4,357.0,0.5,70,142.0
1180,C3,357.0,0.5,70,142.0
1181,F#2,357.0,0.5,95,142.0
1182,C2,357.0,0.5,95,142.0
1183,B-3,357.5,0.25,95,142.0
1184,B-2,357.5,0.25,95,142.0
1185,C2,357.5,0.5,95,142.0
1186,C4,357.75,0.25,70,142.0
1187,C3,357.75,0.25,70,142.0
1188,E-4,358.0,2.0,95,142.0
1189,E-3,358.0,2.0,95,142.0
1190,F#2,358.0,1.0,95,142.0
1191,E2,358.0,1.0,95,142.0
1192,F#2,359.0,1.0,95,142.0
1193,B-3,360.0,0.25,95,142.0
1194,B-2,360.0,0.25,95,142.0
1195,F#2,360.0,0.5,95,142.0
1196,C2,360.0,0.5,95,142.0
1197,C4,360.25,0.5,70,142.0
1198,C3,360.25,0.5,70,142.0
1199,C2,360.5,0.5,95,142.0
1200,B-3,360.75,0.25,95,142.0
1201,B-2,360.75,0.25,95,142.0
1202,C4,361.0,0.5,70,142.0
1203,C3,361.0,0.5,70,142.0
1204,F#2,361.0,1.0,95,142.0
1205,B-3,361.5,0.25,95,142.0
1206,B-2,361.5,0.25,95,142.0
1207,C4,361.75,0.25,70,142.0
1208,C3,361.75,0.25,70,142.0
1209,F3,362.0,0.5,95,142.0
1210,F2,362.0,0.5,95,142.0
1211,F#2,362.0,1.0,95,142.0
1212,E2,362.0,1.0,95,142.0
1213,E-3,362.5,0.5,95,142.0
1214,E-2,362.5,0.5,95,142.0
1215,C3,363.0,1.0,95,142.0
1216,C2,363.0,1.0,95,142.0
1217,F#2,363.0,0.5,95,142.0
1218,C2,363.5,0.5,95,142.0
1219,F3,364.0,0.75,95,142.0
1220,F2,364.0,0.75,95,142.0
1221,F#2,364.0,1.0,95,142.0
1222,E-3,364.75,0.25,70,142.0
1223,E-2,364.75,0.25,70,142.0
1224,F3,365.0,0.5,95,142.0
1225,F2,365.0,0.5,95,142.0
1226,F#2,365.0,0.5,95,142.0
1227,C2,365.0,0.5,95,142.0
1228,F3,365.5,0.25,95,142.0
1229,F2,365.5,0.25,95,142.0
1230,C2,365.5,0.5,95,142.0
1231,G3,365.75,0.25,70,142.0
1232,G2,365.75,0.25,70,142.0
1233,E-3,366.0,2.0,95,142.0
1234,E-2,366.0,2.0,95,142.0
1235,F#2,366.0,1.0,95,142.0
1236,E2,366.0,1.0,95,142.0
1237,F#2,367.0,1.0,95,142.0
1238,B-3,368.0,0.25,95,142.0
1239,B-2,368.0,0.25,95,142.0
1240,F#2,368.0,1.0,95,142.0
1241,C2,368.0,1.0,95,142.0
1242,C4,368.25,0.5,70,142.0
1243,C3,368.25,0.5,70,142.0
1244,B-3,368.75,0.25,95,142.0
1245,B-2,368.75,0.25,95,142.0
1246,C4,369.0,0.5,70,142.0
1247,C3,369.0,0.5,70,142.0
1248,F#2,369.0,1.0,95,142.0
1249,B-3,369.5,0.25,95,142.0
1250,B-2,369.5,0.25,95,142.0
1251,C4,369.75,0.25,70,142.0
1252,C3,369.75,0.25,70,142.0
1253,F3,370.0,0.5,95,142.0
1254,F2,370.0,0.5,95,142.0
1255,F#2,370.0,1.0,95,142.0
1256,E2,370.0,1.0,95,142.0
1257,E-3,370.5,0.5,95,142.0
1258,E-2,370.5,0.5,95,142.0
1259,C3,371.0,1.0,95,142.0
1260,C2,371.0,1.0,95,142.0
1261,F#2,371.0,0.5,95,142.0
1262,C2,371.5,0.5,95,142.0
1263,B-3,372.0,0.25,95,142.0
1264,B-2,372.0,0.25,95,142.0
1265,F#2,372.0,1.0,95,142.0
1266,C4,372.25,0.5,70,142.0
1267,C3,372.25,0.5,70,142.0
1268,B-3,372.75,0.25,95,142.0
1269,B-2,372.75,0.25,95,142.0
1270,C4,373.0,0.5,70,142.0
1271,C3,373.0,0.5,70,142.0
1272,F#2,373.0,0.5,95,142.0
1273,C2,373.0,0.5,95,142.0
1274,B-3,373.5,0.25,95,142.0
1275,B-2,373.5,0.25,95,142.0
1276,C2,373.5,0.5,95,142.0
1277,C4,373.75,0.25,70,142.0
1278,C3,373.75,0.25,70,142.0
1279,E-4,374.0,2.0,95,142.0
1280,E-3,374.0,2.0,95,142.0
1281,F#2,374.0,1.0,95,142.0
1282,E2,374.0,1.0,95,142.0
1283,F#2,375.0,1.0,95,142.0
1284,B-3,376.0,0.25,95,142.0
1285,B-2,376.0,0.25,95,142.0
1286,F#2,376.0,0.5,95,142.0
1287,C2,376.0,0.5,95,142.0
1288,C4,376.25,1.25,95,142.0
1289,C3,376.25,1.25,70,142.0
1290,C2,376.5,0.5,95,142.0
1291,F#2,377.0,1.0,95,142.0
1292,F#3,377.5,1.5,95,142.0
1293,F#2,377.5,1.5,95,142.0
1294,F#2,378.0,1.0,95,142.0
1295,E2,378.0,1.0,95,142.0
1296,F3,379.0,1.0,95,142.0
1297,F2,379.0,1.0,95,142.0
1298,F#2,379.0,0.5,95,142.0
1299,C2,379.5,0.5,95,142.0
1300,F3,380.0,0.5,95,142.0
1301,F2,380.0,0.5,95,142.0
1302,F#2,380.0,1.0,95,142.0
1303,E-3,380.5,1.5,95,142.0
1304,E-2,380.5,1.5,95,142.0
1305,F#2,381.0,0.5,95,142.0
1306,C2,381.0,0.5,95,142.0
1307,C2,381.5,0.5,95,142.0
1308,B-2,382.0,1.0,95,142.0
1309,B-1,382.0,1.0,95,142.0
1310,F#2,382.0,1.0,95,142.0
1311,E2,382.0,1.0,95,142.0
1312,B2,383.0,1.0,95,142.0
1313,B1,383.0,1.0,95,142.0
1314,F#2,383.0,1.0,95,142.0
1315,C3,384.0,1.0,95,142.0
1316,C2,384.0,1.0,95,142.0
1317,C#3,384.0,1.0,95,142.0
1318,C2,384.0,1.0,95,142.0
1319,F#2,385.0,1.0,95,142.0
1320,F#2,386.0,1.0,95,142.0
1321,E2,386.0,1.0,95,142.0
1322,F#2,387.0,0.5,95,142.0
1323,C2,387.5,0.5,95,142.0
1324,F#2,388.0,1.0,95,142.0
1325,F#2,389.0,0.5,95,142.0
1326,C2,389.0,0.5,95,142.0
1327,C2,389.5,0.5,95,142.0
1328,F#2,390.0,1.0,95,142.0
1329,E2,390.0,1.0,95,142.0
1330,F#2,391.0,1.0,95,142.0
1331,F#2,392.0,0.5,95,142.0
1332,C2,392.0,0.5,95,142.0
1333,C2,392.5,0.5,95,142.0
1334,F#2,393.0,1.0,95,142.0
1335,F#2,394.0,1.0,95,142.0
1336,E2,394.0,1.0,95,142.0
1337,F#2,395.0,0.5,95,142.0
1338,C2,395.5,0.5,95,142.0
1339,F#2,396.0,1.0,95,142.0
1340,F#2,397.0,0.5,95,142.0
1341,C2,397.0,0.5,95,142.0
1342,C2,397.5,0.5,95,142.0
1343,F#2,398.0,1.0,95,142.0
1344,E2,398.0,1.0,95,142.0
1345,F#2,399.0,1.0,95,142.0
1346,F#2,400.0,1.0,95,142.0
1347,C2,400.0,1.0,95,142.0
1348,F#2,401.0,1.0,95,142.0
1349,F#2,402.0,1.0,95,142.0
1350,E2,402.0,1.0,95,142.0
1351,F#2,403.0,0.5,95,142.0
1352,C2,403.5,0.5,95,142.0
1353,F#2,404.0,1.0,95,142.0
1354,F#2,405.0,0.5,95,142.0
1355,C2,405.0,0.5,95,142.0
1356,C2,405.5,0.5,95,142.0
1357,F#2,406.0,1.0,95,142.0
1358,E2,406.0,1.0,95,142.0
1359,F#2,407.0,1.0,95,142.0
1360,F#2,408.0,0.5,95,142.0
1361,C2,408.0,0.5,95,142.0
1362,C2,408.5,0.5,95,142.0
1363,F#2,409.0,1.0,95,142.0
1364,F#2,410.0,1.0,95,142.0
1365,E2,410.0,1.0,95,142.0
1366,F#2,411.0,0.5,95,142.0
1367,C2,411.5,0.5,95,142.0
1368,F#2,412.0,1.0,95,142.0
1369,F#2,413.0,0.5,95,142.0
1370,C2,413.0,0.5,95,142.0
1371,C2,413.5,0.5,95,142.0
1372,F#2,414.0,1.0,95,142.0
1373,E2,414.0,1.0,95,142.0
1374,F#2,415.0,1.0,95,142.0
1375,C#3,416.0,1.0,95,142.0
1376,C2,416.0,1.0,95,142.0
1377,F#2,417.0,1.0,95,142.0
1378,F#2,418.0,1.0,95,142.0
1379,E2,418.0,1.0,95,142.0
1380,F#2,419.0,0.5,95,142.0
1381,C2,419.5,0.5,95,142.0
1382,F#2,420.0,1.0,95,142.0
1383,F#2,421.0,0.5,95,142.0
1384,C2,421.0,0.5,95,142.0
1385,C2,421.5,0.5,95,142.0
1386,F#2,422.0,1.0,95,142.0
1387,E2,422.0,1.0,95,142.0
1388,F#2,423.0,1.0,95,142.0
1389,F#2,424.0,0.5,95,142.0
1390,C2,424.0,0.5,95,142.0
1391,C2,424.5,0.5,95,142.0
1392,F#2,425.0,1.0,95,142.0
1393,F#2,426.0,1.0,95,142.0
1394,E2,426.0,1.0,95,142.0
1395,F#2,427.0,0.5,95,142.0
1396,C2,427.5,0.5,95,142.0
1397,F#2,428.0,1.0,95,142.0
1398,F#2,429.0,0.5,95,142.0
1399,C2,429.0,0.5,95,142.0
1400,C2,429.5,0.5,95,142.0
1401,F#2,430.0,1.0,95,142.0
1402,E2,430.0,1.0,95,142.0
1403,F#2,431.0,1.0,95,142.0
1404,F#2,432.0,1.0,95,142.0
1405,C2,432.0,1.0,95,142.0
1406,F#2,433.0,1.0,95,142.0
1407,F#2,434.0,1.0,95,142.0
1408,E2,434.0,1.0,95,142.0
1409,F#2,435.0,0.5,95,142.0
1410,C2,435.5,0.5,95,142.0
1411,F#2,436.0,1.0,95,142.0
1412,F#2,437.0,0.5,95,142.0
1413,C2,437.0,0.5,95,142.0
1414,C2,437.5,0.5,95,142.0
1415,F#2,438.0,1.0,95,142.0
1416,E2,438.0,1.0,95,142.0
1417,F#2,439.0,1.0,95,142.0
1418,F#2,440.0,0.5,95,142.0
1419,C2,440.0,0.5,95,142.0
1420,C2,440.5,0.5,95,142.0
1421,F#2,441.0,1.0,95,142.0
1422,F#2,442.0,1.0,95,142.0
1423,E2,442.0,1.0,95,142.0
1424,F#2,443.0,0.5,95,142.0
1425,C2,443.5,0.5,95,142.0
1426,F#2,444.0,1.0,95,142.0
1427,F#2,445.0,0.5,95,142.0
1428,C2,445.0,0.5,95,142.0
1429,C2,445.5,0.5,95,142.0
1430,F#2,446.0,1.0,95,142.0
1431,E2,446.0,1.0,95,142.0
1432,F#2,447.0,1.0,95,142.0
1433,C#3,448.0,1.0,95,142.0
1434,C2,448.0,1.0,95,142.0
1435,F#2,449.0,1.0,95,142.0
1436,F#2,450.0,1.0,95,142.0
1437,E2,450.0,1.0,95,142.0
1438,F#2,451.0,0.5,95,142.0
1439,C2,451.5,0.5,95,142.0
1440,F#2,452.0,1.0,95,142.0
1441,F#2,453.0,0.5,95,142.0
1442,C2,453.0,0.5,95,142.0
1443,C2,453.5,0.5,95,142.0
1444,F#2,454.0,1.0,95,142.0
1445,E2,454.0,1.0,95,142.0
1446,F#2,455.0,1.0,95,142.0
1447,F#2,456.0,0.5,95,142.0
1448,C2,456.0,0.5,95,142.0
1449,C2,456.5,0.5,95,142.0
1450,F#2,457.0,1.0,95,142.0
1451,F#2,458.0,1.0,95,142.0
1452,E2,458.0,1.0,95,142.0
1453,F#2,459.0,0.5,95,142.0
1454,C2,459.5,0.5,95,142.0
1455,F#2,460.0,1.0,95,142.0
1456,F#2,461.0,0.5,95,142.0
1457,C2,461.0,0.5,95,142.0
1458,C2,461.5,0.5,95,142.0
1459,F#2,462.0,1.0,95,142.0
1460,E2,462.0,1.0,95,142.0
1461,F#2,463.0,1.0,95,142.0
1462,F#2,464.0,1.0,95,142.0
1463,C2,464.0,1.0,95,142.0
1464,F#2,465.0,1.0,95,142.0
1465,F#2,466.0,1.0,95,142.0
1466,E2,466.0,1.0,95,142.0
1467,F#2,467.0,0.5,95,142.0
1468,C2,467.5,0.5,95,142.0
1469,F#2,468.0,1.0,95,142.0
1470,F#2,469.0,0.5,95,142.0
1471,C2,469.0,0.5,95,142.0
1472,C2,469.5,0.5,95,142.0
1473,F#2,470.0,1.0,95,142.0
1474,E2,470.0,1.0,95,142.0
1475,F#2,471.0,1.0,95,142.0
1476,F#2,472.0,0.5,95,142.0
1477,C2,472.0,0.5,95,142.0
1478,C2,472.5,0.5,95,142.0
1479,F#2,473.0,1.0,95,142.0
1480,F#2,474.0,1.0,95,142.0
1481,E2,474.0,1.0,95,142.0
1482,F#2,475.0,0.5,95,142.0
1483,C2,475.5,0.5,95,142.0
1484,F#2,476.0,1.0,95,142.0
1485,F#2,477.0,0.5,95,142.0
1486,C2,477.0,0.5,95,142.0
1487,C2,477.5,0.5,95,142.0
1488,F#2,478.0,1.0,95,142.0
1489,E2,478.0,1.0,95,142.0
1490,F#2,479.0,1.0,95,142.0
1491,C#3,480.0,1.0,95,142.0
1492,C2,480.0,1.0,95,142.0
1493,F#2,481.0,1.0,95,142.0
1494,F#2,482.0,1.0,95,142.0
1495,E2,482.0,1.0,95,142.0
1496,F#2,483.0,0.5,95,142.0
1497,C2,483.5,0.5,95,142.0
1498,F#2,484.0,1.0,95,142.0
1499,F#2,485.0,0.5,95,142.0
1500,C2,485.0,0.5,95,142.0
1501,C2,485.5,0.5,95,142.0
1502,F#2,486.0,1.0,95,142.0
1503,E2,486.0,1.0,95,142.0
1504,F#2,487.0,1.0,95,142.0
1505,F#2,488.0,0.5,95,142.0
1506,C2,488.0,0.5,95,142.0
1507,C2,488.5,0.5,95,142.0
1508,F#2,489.0,1.0,95,142.0
1509,F#2,490.0,1.0,95,142.0
1510,E2,490.0,1.0,95,142.0
1511,F#2,491.0,0.5,95,142.0
1512,C2,491.5,0.5,95,142.0
1513,F#2,492.0,1.0,95,142.0
1514,F#2,493.0,0.5,95,142.0
1515,C2,493.0,0.5,95,142.0
1516,C2,493.5,0.5,95,142.0
1517,F#2,494.0,1.0,95,142.0
1518,E2,494.0,1.0,95,142.0
1519,F#2,495.0,1.0,95,142.0
1520,F#2,496.0,1.0,95,142.0
1521,C2,496.0,1.0,95,142.0
1522,F#2,497.0,1.0,95,142.0
1523,F#2,498.0,1.0,95,142.0
1524,E2,498.0,1.0,95,142.0
1525,F#2,499.0,0.5,95,142.0
1526,C2,499.5,0.5,95,142.0
1527,F#2,500.0,1.0,95,142.0
1528,F#2,501.0,0.5,95,142.0
1529,C2,501.0,0.5,95,142.0
1530,C2,501.5,0.5,95,142.0
1531,F#2,502.0,1.0,95,142.0
1532,E2,502.0,1.0,95,142.0
1533,F#2,503.0,1.0,95,142.0
1534,F#2,504.0,0.5,95,142.0
1535,C2,504.0,0.5,95,142.0
1536,C2,504.5,0.5,95,142.0
1537,F#2,505.0,1.0,95,142.0
1538,F#2,506.0,1.0,95,142.0
1539,E2,506.0,1.0,95,142.0
1540,F#2,507.0,0.5,95,142.0
1541,C2,507.5,0.5,95,142.0
1542,F#2,508.0,1.0,95,142.0
1543,F#2,509.0,0.5,95,142.0
1544,C2,509.0,0.5,95,142.0
1545,C2,509.5,0.5,95,142.0
1546,F#2,510.0,1.0,95,142.0
1547,E2,510.0,1.0,95,142.0
1548,F#2,511.0,1.0,95,142.0
1549,C#3,512.0,1.0,95,142.0
1550,C2,512.0,1.0,95,142.0
1551,F#2,513.0,1.0,95,142.0
1552,F#2,514.0,1.0,95,142.0
1553,E2,514.0,1.0,95,142.0
1554,F#2,515.0,0.5,95,142.0
1555,C2,515.5,0.5,95,142.0
1556,F#2,516.0,1.0,95,142.0
1557,F#2,517.0,0.5,95,142.0
1558,C2,517.0,0.5,95,142.0
1559,C2,517.5,0.5,95,142.0
1560,F#2,518.0,1.0,95,142.0
1561,E2,518.0,1.0,95,142.0
1562,F#2,519.0,1.0,95,142.0
1563,F#2,520.0,0.5,95,142.0
1564,C2,520.0,0.5,95,142.0
1565,C2,520.5,0.5,95,142.0
1566,F#2,521.0,1.0,95,142.0
1567,F#2,522.0,1.0,95,142.0
1568,E2,522.0,1.0,95,142.0
1569,F#2,523.0,0.5,95,142.0
1570,C2,523.5,0.5,95,142.0
1571,F#2,524.0,1.0,95,142.0
1572,F#2,525.0,0.5,95,142.0
1573,C2,525.0,0.5,95,142.0
1574,C2,525.5,0.5,95,142.0
1575,F#2,526.0,1.0,95,142.0
1576,E2,526.0,1.0,95,142.0
1577,F#2,527.0,1.0,95,142.0
1578,F#2,528.0,1.0,95,142.0
1579,C2,528.0,1.0,95,142.0
1580,F#2,529.0,1.0,95,142.0
1581,F#2,530.0,1.0,95,142.0
1582,E2,530.0,1.0,95,142.0
1583,F#2,531.0,0.5,95,142.0
1584,C2,531.5,0.5,95,142.0
1585,F#2,532.0,1.0,95,142.0
1586,F#2,533.0,0.5,95,142.0
1587,C2,533.0,0.5,95,142.0
1588,C2,533.5,0.5,95,142.0
1589,F#2,534.0,1.0,95,142.0
1590,E2,534.0,1.0,95,142.0
1591,F#2,535.0,1.0,95,142.0
1592,F#2,536.0,0.5,95,142.0
1593,C2,536.0,0.5,95,142.0
1594,C2,536.5,0.5,95,142.0
1595,F#2,537.0,1.0,95,142.0
1596,F#2,538.0,1.0,95,142.0
1597,E2,538.0,1.0,95,142.0
1598,F#2,539.0,0.5,95,142.0
1599,C2,539.5,0.5,95,142.0
1600,F#2,540.0,1.0,95,142.0
1601,F#2,541.0,0.5,95,142.0
1602,C2,541.0,0.5,95,142.0
1603,C2,541.5,0.5,95,142.0
1604,F#2,542.0,1.0,95,142.0
1605,E2,542.0,1.0,95,142.0
1606,F#2,543.0,1.0,95,142.0
1607,C#3,544.0,1.0,95,142.0
1608,C2,544.0,1.0,95,142.0
1609,F#2,545.0,1.0,95,142.0
1610,F#2,546.0,1.0,95,142.0
1611,E2,546.0,1.0,95,142.0
1612,F#2,547.0,0.5,95,142.0
1613,C2,547.5,0.5,95,142.0
1614,F#2,548.0,1.0,95,142.0
1615,F#2,549.0,0.5,95,142.0
1616,C2,549.0,0.5,95,142.0
1617,C2,549.5,0.5,95,142.0
1618,F#2,550.0,1.0,95,142.0
1619,E2,550.0,1.0,95,142.0
1620,F#2,551.0,1.0,95,142.0
1621,F#2,552.0,0.5,95,142.0
1622,C2,552.0,0.5,95,142.0
1623,C2,552.5,0.5,95,142.0
1624,F#2,553.0,1.0,95,142.0
1625,F#2,554.0,1.0,95,142.0
1626,E2,554.0,1.0,95,142.0
1627,F#2,555.0,0.5,95,142.0
1628,C2,555.5,0.5,95,142.0
1629,F#2,556.0,1.0,95,142.0
1630,F#2,557.0,0.5,95,142.0
1631,C2,557.0,0.5,95,142.0
1632,C2,557.5,0.5,95,142.0
1633,F#2,558.0,1.0,95,142.0
1634,E2,558.0,1.0,95,142.0
1635,F#2,559.0,1.0,95,142.0
1636,F#2,560.0,1.0,95,142.0
1637,C2,560.0,1.0,95,142.0
1638,F#2,561.0,1.0,95,142.0
1639,F#2,562.0,1.0,95,142.0
1640,E2,562.0,1.0,95,142.0
1641,F#2,563.0,0.5,95,142.0
1642,C2,563.5,0.5,95,142.0
1643,F#2,564.0,1.0,95,142.0
1644,F#2,565.0,0.5,95,142.0
1645,C2,565.0,0.5,95,142.0
1646,C2,565.5,0.5,95,142.0
1647,F#2,566.0,1.0,95,142.0
1648,E2,566.0,1.0,95,142.0
1649,F#2,567.0,1.0,95,142.0
1650,F#2,568.0,0.5,95,142.0
1651,C2,568.0,0.5,95,142.0
1652,C2,568.5,0.5,95,142.0
1653,F#2,569.0,1.0,95,142.0
1654,F#2,570.0,1.0,95,142.0
1655,E2,570.0,1.0,95,142.0
1656,F#2,571.0,0.5,95,142.0
1657,C2,571.5,0.5,95,142.0
1658,F#2,572.0,1.0,95,142.0
1659,F#2,573.0,0.5,95,142.0
1660,C2,573.0,0.5,95,142.0
1661,C2,573.5,0.5,95,142.0
1662,F#2,574.0,1.0,95,142.0
1663,E2,574.0,1.0,95,142.0
1664,F#2,575.0,1.0,95,142.0
1665,C#3,576.0,1.0,95,142.0
1666,C2,576.0,1.0,95,142.0
1667,F#2,577.0,1.0,95,142.0
1668,F#2,578.0,1.0,95,142.0
1669,E2,578.0,1.0,95,142.0
1670,F#2,579.0,0.5,95,142.0
1671,C2,579.5,0.5,95,142.0
1672,F#2,580.0,1.0,95,142.0
1673,F#2,581.0,0.5,95,142.0
1674,C2,581.0,0.5,95,142.0
1675,C2,581.5,0.5,95,142.0
1676,F#2,582.0,1.0,95,142.0
1677,E2,582.0,1.0,95,142.0
1678,F#2,583.0,1.0,95,142.0
1679,F#2,584.0,0.5,95,142.0
1680,C2,584.0,0.5,95,142.0
1681,C2,584.5,0.5,95,142.0
1682,F#2,585.0,1.0,95,142.0
1683,F#2,586.0,1.0,95,142.0
1684,E2,586.0,1.0,95,142.0
1685,F#2,587.0,0.5,95,142.0
1686,C2,587.5,0.5,95,142.0
1687,F#2,588.0,1.0,95,142.0
1688,F#2,589.0,0.5,95,142.0
1689,C2,589.0,0.5,95,142.0
1690,C2,589.5,0.5,95,142.0
1691,F#2,590.0,1.0,95,142.0
1692,E2,590.0,1.0,95,142.0
1693,F#2,591.0,1.0,95,142.0
1694,F#2,592.0,1.0,95,142.0
1695,C2,592.0,1.0,95,142.0
1696,F#2,593.0,1.0,95,142.0
1697,F#2,594.0,1.0,95,142.0
1698,E2,594.0,1.0,95,142.0
1699,F#2,595.0,0.5,95,142.0
1700,C2,595.5,0.5,95,142.0
1701,F#2,596.0,1.0,95,142.0
1702,F#2,597.0,0.5,95,142.0
1703,C2,597.0,0.5,95,142.0
1704,C2,597.5,0.5,95,142.0
1705,F#2,598.0,1.0,95,142.0
1706,E2,598.0,1.0,95,142.0
1707,F#2,599.0,1.0,95,142.0
1708,F#2,600.0,0.5,95,142.0
1709,C2,600.0,0.5,95,142.0
1710,C2,600.5,0.5,95,142.0
1711,F#2,601.0,1.0,95,142.0
1712,F#2,602.0,1.0,95,142.0
1713,E2,602.0,1.0,95,142.0
1714,F#2,603.0,0.5,95,142.0
1715,C2,603.5,0.5,95,142.0
1716,F#2,604.0,1.0,95,142.0
1717,F#2,605.0,0.5,95,142.0
1718,C2,605.0,0.5,95,142.0
1719,C2,605.5,0.5,95,142.0
1720,F#2,606.0,1.0,95,142.0
1721,E2,606.0,1.0,95,142.0
1722,F#2,607.0,1.0,95,142.0
1723,C#3,608.0,1.0,95,142.0
1724,C2,608.0,1.0,95,142.0
1725,F#2,609.0,1.0,95,142.0
1726,F#2,610.0,1.0,95,142.0
1727,E2,610.0,1.0,95,142.0
1728,F#2,611.0,0.5,95,142.0
1729,C2,611.5,0.5,95,142.0
1730,F#2,612.0,1.0,95,142.0
1731,F#2,613.0,0.5,95,142.0
1732,C2,613.0,0.5,95,142.0
1733,C2,613.5,0.5,95,142.0
1734,F#2,614.0,1.0,95,142.0
1735,E2,614.0,1.0,95,142.0
1736,F#2,615.0,1.0,95,142.0
1737,F#2,616.0,0.5,95,142.0
1738,C2,616.0,0.5,95,142.0
1739,C2,616.5,0.5,95,142.0
1740,F#2,617.0,1.0,95,142.0
1741,F#2,618.0,1.0,95,142.0
1742,E2,618.0,1.0,95,142.0
1743,F#2,619.0,0.5,95,142.0
1744,C2,619.5,0.5,95,142.0
1745,F#2,620.0,1.0,95,142.0
1746,F#2,621.0,0.5,95,142.0
1747,C2,621.0,0.5,95,142.0
1748,C2,621.5,0.5,95,142.0
1749,F#2,622.0,1.0,95,142.0
1750,E2,622.0,1.0,95,142.0
1751,F#2,623.0,1.0,95,142.0
1752,F#2,624.0,1.0,95,142.0
1753,C2,624.0,1.0,95,142.0
1754,F#2,625.0,1.0,95,142.0
1755,F#2,626.0,1.0,95,142.0
1756,E2,626.0,1.0,95,142.0
1757,F#2,627.0,0.5,95,142.0
1758,C2,627.5,0.5,95,142.0
1759,F#2,628.0,1.0,95,142.0
1760,F#2,629.0,0.5,95,142.0
1761,C2,629.0,0.5,95,142.0
1762,C2,629.5,0.5,95,142.0
1763,F#2,630.0,1.0,95,142.0
1764,E2,630.0,1.0,95,142.0
1765,F#2,631.0,1.0,95,142.0
1766,F#2,632.0,0.5,95,142.0
1767,C2,632.0,0.5,95,142.0
1768,C2,632.5,0.5,95,142.0
1769,F#2,633.0,1.0,95,142.0
1770,F#2,634.0,1.0,95,142.0
1771,E2,634.0,1.0,95,142.0
1772,F#2,635.0,0.5,95,142.0
1773,C2,635.5,0.5,95,142.0
1774,F#2,636.0,1.0,95,142.0
1775,F#2,637.0,0.5,95,142.0
1776,C2,637.0,0.5,95,142.0
1777,C2,637.5,0.5,95,142.0
1778,F#2,638.0,1.0,95,142.0
1779,E2,638.0,1.0,95,142.0
1780,F#2,639.0,1.0,95,142.0
1781,B-2,639.5,37/250,95,142.0
1782,B-1,639.5,0.5,95,142.0
1783,C3,640.0,0.5,95,142.0
1784,C2,640.0,0.5,95,142.0
1785,C#3,640.0,1.0,95,142.0
1786,C2,640.0,1.0,95,142.0
1787,C3,640.5,0.5,95,142.0
1788,C2,640.5,0.5,95,142.0
1789,E2,641.0,37/500,95,142.0
1790,F#2,641.0,1.0,95,142.0
1791,E-3,641.5,0.5,95,142.0
1792,E-2,641.5,0.5,95,142.0
1793,F#2,642.0,1.0,95,142.0
1794,E2,642.0,1.0,95,142.0
1795,B-2,642.5,37/500,95,142.0
1796,F#3,643.0,0.25,95,142.0
1797,F#2,643.0,0.5,95,142.0
1798,F#2,643.0,0.5,95,142.0
1799,F3,643.25,0.25,70,142.0
1800,E-3,643.5,0.5,70,142.0
1801,E-2,643.5,0.5,95,142.0
1802,C2,643.5,0.5,95,142.0
1803,F#2,644.0,1.0,95,142.0
1804,E-3,644.5,0.5,95,142.0
1805,E-2,644.5,0.5,95,142.0
1806,F#2,645.0,0.5,95,142.0
1807,C2,645.0,0.5,95,142.0
1808,E2,645.5,37/500,95,142.0
1809,C2,645.5,0.5,95,142.0
1810,B-2,646.0,0.5,95,142.0
1811,B-1,646.0,0.5,95,142.0
1812,F#2,646.0,1.0,95,142.0
1813,E2,646.0,1.0,95,142.0
1814,E2,646.5,37/500,95,142.0
1815,B2,647.0,0.5,95,142.0
1816,B1,647.0,0.5,95,142.0
1817,F#2,647.0,1.0,95,142.0
1818,C3,648.0,0.5,95,142.0
1819,C2,648.0,0.5,95,142.0
1820,F#2,648.0,0.5,95,142.0
1821,C2,648.0,0.5,95,142.0
1822,C3,648.5,0.5,95,142.0
1823,C2,648.5,0.5,95,142.0
1824,C2,648.5,0.5,95,142.0
1825,F#2,649.0,1.0,95,142.0
1826,E-3,649.5,0.5,95,142.0
1827,E-2,649.5,0.5,95,142.0
1828,F#2,650.0,1.0,95,142.0
1829,E2,650.0,1.0,95,142.0
1830,E2,650.5,37/500,95,142.0
1831,F3,651.0,0.25,95,142.0
1832,F2,651.0,0.5,95,142.0
1833,F#2,651.0,0.5,95,142.0
1834,F#3,651.25,0.25,70,142.0
1835,F3,651.5,0.25,70,142.0
1836,E-2,651.5,0.5,95,142.0
1837,C2,651.5,0.5,95,142.0
1838,E-3,651.75,0.25,70,142.0
1839,F3,652.0,1.5,95,142.0
1840,F2,652.0,1.0,95,142.0
1841,F#2,652.0,1.0,95,142.0
1842,F#2,653.0,0.5,95,142.0
1843,C2,653.0,0.5,95,142.0
1844,C2,653.5,0.5,95,142.0
1845,F3,654.0,0.125,95,142.0
1846,F#2,654.0,1.0,95,142.0
1847,E2,654.0,1.0,95,142.0
1848,E3,654.125,0.125,95,142.0
1849,E-3,654.25,0.125,95,142.0
1850,D3,654.375,0.125,95,142.0
1851,C#3,654.5,0.125,95,142.0
1852,C3,654.625,0.125,95,142.0
1853,B2,654.75,0.125,95,142.0
1854,B-2,654.875,0.125,95,142.0
1855,A2,655.0,0.125,95,142.0
1856,F#2,655.0,1.0,95,142.0
1857,G#2,655.125,0.125,95,142.0
1858,G2,655.25,0.125,95,142.0
1859,F#2,655.375,0.125,95,142.0
1860,B-2,655.5,0.5,95,142.0
1861,B-1,655.5,0.5,95,142.0
1862,C3,656.0,0.5,95,142.0
1863,C2,656.0,0.5,95,142.0
1864,F#2,656.0,1.0,95,142.0
1865,C2,656.0,1.0,95,142.0
1866,C3,656.5,0.5,95,142.0
1867,C2,656.5,0.5,95,142.0
1868,E2,657.0,37/500,95,142.0
1869,F#2,657.0,1.0,95,142.0
1870,E-3,657.5,0.5,95,142.0
1871,E-2,657.5,0.5,95,142.0
1872,F#2,658.0,1.0,95,142.0
1873,E2,658.0,1.0,95,142.0
1874,B-2,658.5,37/500,95,142.0
1875,F#3,659.0,0.25,95,142.0
1876,F#2,659.0,0.5,95,142.0
1877,F#2,659.0,0.5,95,142.0
1878,F3,659.25,0.25,70,142.0
1879,E-3,659.5,0.5,70,142.0
1880,E-2,659.5,0.5,95,142.0
1881,C2,659.5,0.5,95,142.0
1882,F#2,660.0,1.0,95,142.0
1883,E-3,660.5,0.5,95,142.0
1884,E-2,660.5,0.5,95,142.0
1885,F#2,661.0,0.5,95,142.0
1886,C2,661.0,0.5,95,142.0
1887,E2,661.5,37/500,95,142.0
1888,C2,661.5,0.5,95,142.0
1889,B-2,662.0,0.5,95,142.0
1890,B-1,662.0,0.5,95,142.0
1891,F#2,662.0,1.0,95,142.0
1892,E2,662.0,1.0,95,142.0
1893,E2,662.5,37/500,95,142.0
1894,B2,663.0,0.5,95,142.0
1895,B1,663.0,0.5,95,142.0
1896,F#2,663.0,1.0,95,142.0
1897,C3,664.0,0.5,95,142.0
1898,C2,664.0,0.5,95,142.0
1899,F#2,664.0,0.5,95,142.0
1900,C2,664.0,0.5,95,142.0
1901,C3,664.5,0.5,95,142.0
1902,C2,664.5,0.5,95,142.0
1903,C2,664.5,0.5,95,142.0
1904,F#2,665.0,1.0,95,142.0
1905,E-3,665.5,0.5,95,142.0
1906,E-2,665.5,0.5,95,142.0
1907,F#2,666.0,1.0,95,142.0
1908,E2,666.0,1.0,95,142.0
1909,E2,666.5,37/500,95,142.0
1910,F3,667.0,0.25,95,142.0
1911,F2,667.0,0.5,95,142.0
1912,F#2,667.0,0.5,95,142.0
1913,F#3,667.25,0.25,70,142.0
1914,F3,667.5,0.25,70,142.0
1915,E-2,667.5,0.5,95,142.0
1916,C2,667.5,0.5,95,142.0
1917,E-3,667.75,0.25,70,142.0
1918,F3,668.0,1.5,95,142.0
1919,F2,668.0,1.0,95,142.0
1920,F#2,668.0,1.0,95,142.0
1921,F#2,669.0,0.5,95,142.0
1922,C2,669.0,0.5,95,142.0
1923,C2,669.5,0.5,95,142.0
1924,F3,670.0,0.125,95,142.0
1925,F#2,670.0,1.0,95,142.0
1926,E2,670.0,1.0,95,142.0
1927,E3,670.125,0.125,95,142.0
1928,E-3,670.25,0.125,95,142.0
1929,D3,670.375,0.125,95,142.0
1930,C#3,670.5,0.125,95,142.0
1931,C3,670.625,0.125,95,142.0
1932,B2,670.75,0.125,95,142.0
1933,B-2,670.875,0.125,95,142.0
1934,A2,671.0,0.125,95,142.0
1935,F#2,671.0,1.0,95,142.0
1936,G#2,671.125,0.125,95,142.0
1937,G2,671.25,0.125,95,142.0
1938,F#2,671.375,0.125,95,142.0
1939,C4,672.0,0.5,95,142.0
1940,C2,672.0,0.5,95,142.0
1941,C#3,672.0,1.0,95,142.0
1942,C2,672.0,1.0,95,142.0
1943,G3,672.5,0.5,95,142.0
1944,G1,672.5,0.5,95,142.0
1945,C4,673.0,0.5,95,142.0
1946,C2,673.0,0.5,95,142.0
1947,F#2,673.0,1.0,95,142.0
1948,E-4,673.5,0.5,95,142.0
1949,E-2,673.5,0.5,95,142.0
1950,D4,674.0,2.0,95,142.0
1951,D2,674.0,2.0,95,142.0
1952,F#2,674.0,1.0,95,142.0
1953,E2,674.0,1.0,95,142.0
1954,F#2,675.0,0.5,95,142.0
1955,C2,675.5,0.5,95,142.0
1956,D4,676.0,4.0,95,142.0
1957,D2,676.0,4.0,95,142.0
1958,F#2,676.0,1.0,95,142.0
1959,F#2,677.0,0.5,95,142.0
1960,C2,677.0,0.5,95,142.0
1961,C2,677.5,0.5,95,142.0
1962,F#2,678.0,1.0,95,142.0
1963,E2,678.0,1.0,95,142.0
1964,F#2,679.0,1.0,95,142.0
1965,D4,680.0,0.5,95,142.0
1966,D2,680.0,0.5,95,142.0
1967,F#2,680.0,0.5,95,142.0
1968,C2,680.0,0.5,95,142.0
1969,A3,680.5,0.5,95,142.0
1970,A1,680.5,0.5,95,142.0
1971,C2,680.5,0.5,95,142.0
1972,D4,681.0,0.5,95,142.0
1973,D2,681.0,0.5,95,142.0
1974,F#2,681.0,1.0,95,142.0
1975,D4,681.5,0.25,95,142.0
1976,D2,681.5,0.25,95,142.0
1977,F4,681.75,0.25,95,142.0
1978,F2,681.75,0.25,95,142.0
1979,E-4,682.0,2.0,95,142.0
1980,E-2,682.0,2.0,95,142.0
1981,F#2,682.0,1.0,95,142.0
1982,E2,682.0,1.0,95,142.0
1983,F#2,683.0,0.5,95,142.0
1984,C2,683.5,0.5,95,142.0
1985,E-4,684.0,3.0,95,142.0
1986,E-2,684.0,3.0,95,142.0
1987,F#2,684.0,1.0,95,142.0
1988,F#2,685.0,0.5,95,142.0
1989,C2,685.0,0.5,95,142.0
1990,C2,685.5,0.5,95,142.0
1991,F#2,686.0,1.0,95,142.0
1992,E2,686.0,1.0,95,142.0
1993,E-4,687.0,1.0,95,142.0
1994,E-2,687.0,1.0,95,142.0
1995,F#2,687.0,1.0,95,142.0
1996,G4,688.0,3.0,95,142.0
1997,G2,688.0,3.0,95,142.0
1998,F#2,688.0,1.0,95,142.0
1999,C2,688.0,1.0,95,142.0
2000,F#2,689.0,1.0,95,142.0
2001,F#2,690.0,1.0,95,142.0
2002,E2,690.0,1.0,95,142.0
2003,G4,691.0,0.25,95,142.0
2004,G2,691.0,0.25,95,142.0
2005,F#2,691.0,0.5,95,142.0
2006,B-4,691.25,0.75,95,142.0
2007,B-2,691.25,0.75,95,142.0
2008,C2,691.5,0.5,95,142.0
2009,G#4,692.0,2.0,95,142.0
2010,G#2,692.0,2.0,95,142.0
2011,F#2,692.0,1.0,95,142.0
2012,F#2,693.0,0.5,95,142.0
2013,C2,693.0,0.5,95,142.0
2014,C2,693.5,0.5,95,142.0
2015,G#4,694.0,2.0,95,142.0
2016,G#2,694.0,2.0,95,142.0
2017,F#2,694.0,1.0,95,142.0
2018,E2,694.0,1.0,95,142.0
2019,F#2,695.0,1.0,95,142.0
2020,G#4,696.0,0.5,95,142.0
2021,G#2,696.0,0.5,95,142.0
2022,F#2,696.0,0.5,95,142.0
2023,C2,696.0,0.5,95,142.0
2024,B3,696.5,3.5,95,142.0
2025,B1,696.5,3.5,95,142.0
2026,C2,696.5,0.5,95,142.0
2027,F#2,697.0,1.0,95,142.0
2028,F#2,698.0,1.0,95,142.0
2029,E2,698.0,1.0,95,142.0
2030,F#2,699.0,0.5,95,142.0
2031,C2,699.5,0.5,95,142.0
2032,B3,700.0,4.0,95,142.0
2033,B1,700.0,2.0,95,142.0
2034,F#2,700.0,1.0,95,142.0
2035,F#2,701.0,0.5,95,142.0
2036,C2,701.0,0.5,95,142.0
2037,C2,701.5,0.5,95,142.0
2038,F#2,702.0,1.0,95,142.0
2039,E2,702.0,1.0,95,142.0
2040,D2,702.5,1.0,95,142.0
2041,F#2,703.0,1.0,95,142.0
2042,B1,704.0,0.25,95,142.0
2043,C#3,704.0,1.0,95,142.0
2044,C2,704.0,1.0,95,142.0
2045,C2,704.25,3.75,95,142.0
2046,F#2,705.0,1.0,95,142.0
2047,F#2,706.0,1.0,95,142.0
2048,E2,706.0,1.0,95,142.0
2049,F#2,707.0,0.5,95,142.0
2050,C2,707.5,0.5,95,142.0
2051,C2,708.0,4.0,95,142.0
2052,F#2,708.0,1.0,95,142.0
2053,F#2,709.0,0.5,95,142.0
2054,C2,709.0,0.5,95,142.0
2055,C2,709.5,0.5,95,142.0
2056,F#2,710.0,1.0,95,142.0
2057,E2,710.0,1.0,95,142.0
2058,F#2,711.0,1.0,95,142.0
2059,F#2,712.0,0.5,95,142.0
2060,C2,712.0,0.5,95,142.0
2061,C2,712.5,0.5,95,142.0
2062,F#2,713.0,1.0,95,142.0
2063,F#2,714.0,1.0,95,142.0
2064,E2,714.0,1.0,95,142.0
2065,F#2,715.0,0.5,95,142.0
2066,C2,715.5,0.5,95,142.0
2067,F#2,716.0,1.0,95,142.0
2068,F#2,717.0,0.5,95,142.0
2069,C2,717.0,0.5,95,142.0
2070,C2,717.5,0.5,95,142.0
2071,F#2,718.0,1.0,95,142.0
2072,E2,718.0,1.0,95,142.0
2073,F#2,719.0,1.0,95,142.0
2074,F#2,720.0,1.0,95,142.0
2075,C2,720.0,1.0,95,142.0
2076,F#2,721.0,1.0,95,142.0
2077,F#2,722.0,1.0,95,142.0
2078,E2,722.0,1.0,95,142.0
2079,F#2,723.0,0.5,95,142.0
2080,C2,723.5,0.5,95,142.0
2081,F#2,724.0,1.0,95,142.0
2082,F#2,725.0,0.5,95,142.0
2083,C2,725.0,0.5,95,142.0
2084,C2,725.5,0.5,95,142.0
2085,F#2,726.0,1.0,95,142.0
2086,E2,726.0,1.0,95,142.0
2087,F#2,727.0,1.0,95,142.0
2088,F#2,728.0,0.5,95,142.0
2089,C2,728.0,0.5,95,142.0
2090,C2,728.5,0.5,95,142.0
2091,F#2,729.0,1.0,95,142.0
2092,F#2,730.0,1.0,95,142.0
2093,E2,730.0,1.0,95,142.0
2094,F#2,731.0,0.5,95,142.0
2095,C2,731.5,0.5,95,142.0
2096,F#2,732.0,1.0,95,142.0
2097,F#2,733.0,0.5,95,142.0
2098,C2,733.0,0.5,95,142.0
2099,C2,733.5,0.5,95,142.0
2100,F#2,734.0,1.0,95,142.0
2101,E2,734.0,1.0,95,142.0
2102,F#2,735.0,1.0,95,142.0
2103,F#2,736.0,1.0,95,142.0
2104,C2,736.0,1.0,95,142.0
2105,F#2,737.0,1.0,95,142.0
2106,F#2,738.0,1.0,95,142.0
2107,E2,738.0,1.0,95,142.0
2108,F#2,739.0,0.5,95,142.0
2109,C2,739.5,0.5,95,142.0
2110,E2,740.0,0.5,95,142.0
2111,E2,740.5,0.5,95,142.0
2112,B2,741.0,0.5,95,142.0
2113,A2,741.5,0.5,95,142.0
2114,B2,742.0,0.5,95,142.0
2115,B2,742.5,0.5,95,142.0
2116,A2,743.0,0.5,95,142.0
2117,A2,743.5,0.5,95,142.0
2118,C#3,744.0,0.5,95,142.0
2119,C2,744.0,0.5,95,142.0
