,note_name,start_time,duration,velocity,tempo
0,F#2,0.0,1.0,127,53.0
1,F#2,1.0,1.0,111,53.0
2,F#2,2.0,1.0,127,53.0
3,G1,3.0,0.25,63,53.0
4,G1,3.25,0.25,79,53.0
5,F#2,4.0,0.75,127,53.0
6,G4,4.0,1.0,103,53.0
7,C4,4.0,1.0,103,53.0
8,B-5,4.5,0.25,90,53.0
9,F5,4.5,0.25,90,53.0
10,D5,4.5,0.25,90,53.0
11,F#2,4.75,0.25,111,53.0
12,G5,4.75,0.25,95,53.0
13,D5,4.75,0.25,95,53.0
14,B-4,4.75,0.25,95,53.0
15,B-2,5.0,0.25,111,53.0
16,F5,5.0,3.0,100,53.0
17,C5,5.0,3.0,100,53.0
18,B-4,5.0,3.0,100,53.0
19,G#4,5.0,3.0,87,53.0
20,D4,5.0,3.0,87,53.0
21,D2,5.25,0.5,127,53.0
22,F#2,5.25,0.5,127,53.0
23,F#2,5.75,0.25,127,53.0
24,B-2,6.0,0.25,111,53.0
25,F#2,6.25,0.25,127,53.0
26,B-2,6.5,0.25,127,53.0
27,F#2,6.75,0.25,127,53.0
28,B-2,7.0,0.25,111,53.0
29,D2,7.25,0.25,127,53.0
30,F#2,7.5,0.25,127,53.0
31,F#2,8.0,1.0,127,53.0
32,G4,8.0,0.5,103,53.0
33,C4,8.0,0.5,103,53.0
34,D6,8.25,0.25,103,53.0
35,B-5,8.25,0.25,103,53.0
36,B-5,8.5,3.5,106,53.0
37,G5,8.5,3.5,106,53.0
38,D5,8.5,3.5,106,53.0
39,D2,9.0,0.75,111,53.0
40,F#2,10.0,0.25,127,53.0
41,F#2,10.5,0.25,127,53.0
42,D2,10.75,0.125,111,53.0
43,D2,10.875,0.125,111,53.0
44,D2,11.0,0.25,111,53.0
45,D2,11.25,0.25,111,53.0
46,F#2,12.0,1.0,111,53.0
47,G4,12.0,0.25,95,53.0
48,C4,12.0,0.25,95,53.0
49,B-5,12.25,0.25,87,53.0
50,F5,12.25,0.25,87,53.0
51,D5,12.25,0.25,87,53.0
52,B-4,12.25,0.25,87,53.0
53,G5,12.5,0.25,95,53.0
54,C5,12.5,0.25,95,53.0
55,G4,12.5,0.25,95,53.0
56,D5,12.75,3.0,100,53.0
57,B-4,12.75,3.0,100,53.0
58,F4,12.75,3.0,100,53.0
59,G#4,12.75,3.25,103,53.0
60,D4,12.75,3.25,103,53.0
61,D2,13.0,0.25,127,53.0
62,F#2,13.25,0.5,111,53.0
63,B-2,13.75,0.25,111,53.0
64,F#2,14.0,0.5,111,53.0
65,F#2,14.5,0.25,127,53.0
66,B-2,14.75,0.25,111,53.0
67,D2,15.0,667/1000,111,53.0
68,F#2,15.0,667/1000,111,53.0
69,F#2,15.667,333/1000,111,53.0
70,D6,15.75,0.25,103,53.0
71,B-5,15.75,0.25,103,53.0
72,F#2,16.0,0.5,111,53.0
73,B-5,16.0,0.75,84,53.0
74,G5,16.0,0.75,84,53.0
75,D5,16.0,0.75,84,53.0
76,F#2,16.5,0.25,127,53.0
77,F#2,16.75,0.25,111,53.0
78,D6,16.75,0.25,95,53.0
79,B-5,16.75,0.25,95,53.0
80,B-5,17.0,3.0,95,53.0
81,G5,17.0,3.0,95,53.0
82,D5,17.0,3.0,95,53.0
83,D2,17.0,667/1000,119,53.0
84,F#2,17.0,667/1000,119,53.0
85,B-2,17.667,333/1000,95,53.0
86,F#2,18.0,0.25,111,53.0
87,F#2,18.25,0.25,111,53.0
88,D2,18.5,0.25,111,53.0
89,D2,18.75,0.25,111,53.0
90,D2,19.667,333/1000,127,53.0
91,E-2,20.0,2.0,111,53.0
92,F#2,20.0,1.0,111,53.0
93,B-4,20.0,2.0,100,53.0
94,G4,20.0,2.0,100,53.0
95,E-4,20.0,2.0,100,53.0
96,E-5,20.0,4.0,79,53.0
97,D5,20.0,4.0,79,53.0
98,B-4,20.0,4.0,79,53.0
99,G4,20.0,4.0,79,53.0
100,B-3,20.25,1.25,111,53.0
101,D2,21.0,0.5,119,53.0
102,F#2,21.0,0.5,119,53.0
103,C4,21.5,0.125,111,53.0
104,F#2,21.5,0.25,111,53.0
105,B-3,21.625,0.125,111,53.0
106,F#2,21.75,0.25,111,53.0
107,G3,21.875,0.125,111,53.0
108,B-3,22.0,0.75,111,53.0
109,F#2,22.0,0.75,111,53.0
110,D5,22.0,2.0,95,53.0
111,B-4,22.0,2.0,95,53.0
112,G4,22.0,2.0,95,53.0
113,E-4,22.0,2.0,95,53.0
114,C4,22.75,0.25,127,53.0
115,F#2,22.75,0.25,111,53.0
116,E-4,23.0,0.25,111,53.0
117,D2,23.0,0.25,127,53.0
118,E-2,23.25,0.75,111,53.0
119,F4,23.25,0.25,127,53.0
120,F#2,23.25,0.5,111,53.0
121,B-1,24.0,4.0,111,53.0
122,F#2,24.0,0.25,127,53.0
123,G#4,24.0,0.75,75,53.0
124,G4,24.0,0.75,75,53.0
125,E-4,24.0,0.75,75,53.0
126,C4,24.0,0.75,75,53.0
127,G5,24.0,4.0,87,53.0
128,E-5,24.0,4.0,87,53.0
129,C5,24.0,4.0,87,53.0
130,G#4,24.0,4.0,87,53.0
131,F#2,24.25,0.25,111,53.0
132,F#2,24.5,0.25,111,53.0
133,F#2,24.75,0.25,127,53.0
134,D6,24.75,0.25,95,53.0
135,B-5,24.75,0.25,95,53.0
136,B-5,25.0,3.0,95,53.0
137,G5,25.0,3.0,95,53.0
138,D2,25.0,0.5,119,53.0
139,B-2,25.0,0.5,119,53.0
140,F#2,25.5,0.25,111,53.0
141,F#2,25.75,0.25,111,53.0
142,F#2,26.0,0.25,127,53.0
143,C2,26.25,0.25,119,53.0
144,F#2,26.25,0.25,119,53.0
145,F#2,26.5,0.25,111,53.0
146,F#2,26.75,0.25,111,53.0
147,D2,27.0,667/1000,119,53.0
148,F#2,27.0,667/1000,119,53.0
149,B-2,27.667,333/1000,111,53.0
150,B-3,27.75,0.25,111,53.0
151,E-3,28.0,1.0,95,53.0
152,G4,28.0,0.75,127,53.0
153,F#2,28.0,0.25,111,53.0
154,E-5,28.0,1.0,90,53.0
155,B-4,28.0,1.0,90,53.0
156,G4,28.0,1.0,90,53.0
157,E-5,28.0,1.0,91,53.0
158,B-4,28.0,1.0,91,53.0
159,G4,28.0,1.0,91,53.0
160,E-4,28.0,1.0,91,53.0
161,F#2,28.25,0.25,111,53.0
162,F#2,28.5,0.25,111,53.0
163,G4,28.75,0.25,127,53.0
164,F#2,28.75,0.25,111,53.0
165,D3,29.0,1.0,127,53.0
166,G4,29.0,0.75,127,53.0
167,D5,29.0,1.0,111,53.0
168,G5,29.0,1.0,95,53.0
169,D5,29.0,1.0,95,53.0
170,B-4,29.0,1.0,95,53.0
171,D2,29.0,0.5,127,53.0
172,F#2,29.0,0.5,127,53.0
173,F#2,29.5,0.25,111,53.0
174,G4,29.75,0.25,127,53.0
175,F#2,29.75,0.25,111,53.0
176,C3,30.0,1.0,111,53.0
177,G4,30.0,0.5,127,53.0
178,C5,30.0,1.0,111,53.0
179,F#2,30.0,0.25,127,53.0
180,E-5,30.0,2.0,79,53.0
181,C5,30.0,2.0,79,53.0
182,B-4,30.0,2.0,79,53.0
183,G4,30.0,2.0,79,53.0
184,C2,30.25,0.25,119,53.0
185,F#2,30.25,0.25,119,53.0
186,B-4,30.5,1.25,111,53.0
187,F#2,30.5,0.25,127,53.0
188,F#2,30.75,0.25,127,53.0
189,B-2,31.0,667/1000,111,53.0
190,D2,31.0,667/1000,119,53.0
191,F#2,31.0,667/1000,119,53.0
192,B-2,31.667,333/1000,111,53.0
193,B-4,31.75,0.25,111,53.0
194,G#1,32.0,0.5,111,53.0
195,C5,32.0,0.5,127,53.0
196,F#2,32.0,667/1000,111,53.0
197,G5,32.0,0.5,87,53.0
198,E-5,32.0,0.5,87,53.0
199,C5,32.0,0.5,87,53.0
200,G4,32.0,0.5,87,53.0
201,C5,32.0,0.5,100,53.0
202,G#4,32.0,0.5,100,53.0
203,E-4,32.0,0.5,100,53.0
204,D2,32.5,1.0,127,53.0
205,F5,32.5,1.0,111,53.0
206,B4,32.5,1.0,91,53.0
207,F4,32.5,1.0,91,53.0
208,D4,32.5,1.0,91,53.0
209,C4,32.5,1.0,91,53.0
210,B4,32.5,1.0,91,53.0
211,F4,32.5,1.0,91,53.0
212,D4,32.5,1.0,91,53.0
213,C4,32.5,1.0,91,53.0
214,F#2,32.667,333/1000,127,53.0
215,B-2,33.0,1.0,111,53.0
216,G2,33.5,2.5,127,53.0
217,D5,33.5,2.5,127,53.0
218,D5,33.5,2.5,91,53.0
219,C5,33.5,2.5,91,53.0
220,G#4,33.5,2.5,91,53.0
221,F4,33.5,2.5,91,53.0
222,D5,33.5,2.5,99,53.0
223,C5,33.5,2.5,99,53.0
224,G#4,33.5,2.5,99,53.0
225,F4,33.5,2.5,99,53.0
226,B-2,34.0,0.5,111,53.0
227,F#2,34.5,0.25,111,53.0
228,F#2,34.75,0.25,127,53.0
229,D2,35.0,1.0,119,53.0
230,B-2,35.0,1.0,119,53.0
231,C2,36.0,0.75,127,53.0
232,F#2,36.0,1.0,127,53.0
233,C5,36.0,1.0,99,53.0
234,B-4,36.0,1.0,99,53.0
235,G4,36.0,1.0,99,53.0
236,E-4,36.0,1.0,99,53.0
237,D2,36.75,0.25,127,53.0
238,E-2,37.0,0.5,127,53.0
239,C5,37.0,1.0,127,53.0
240,C5,37.0,3.0,127,53.0
241,D2,37.0,0.75,111,53.0
242,C2,37.5,0.25,127,53.0
243,G#2,37.75,2.0,111,53.0
244,B-2,37.75,0.25,95,53.0
245,F#2,38.0,0.25,127,53.0
246,C5,38.0,0.5,127,53.0
247,E-4,38.0,0.5,127,53.0
248,F#2,38.25,0.25,111,53.0
249,D5,38.5,1.25,127,53.0
250,F#2,38.5,0.25,127,53.0
251,B-2,38.75,0.25,111,53.0
252,D2,39.0,0.25,111,53.0
253,F#2,39.0,0.25,111,53.0
254,F#2,39.25,0.25,111,53.0
255,F#2,39.5,0.25,127,53.0
256,G#2,39.75,0.25,111,53.0
257,C5,39.75,0.25,127,53.0
258,B-2,39.75,0.25,95,53.0
259,G2,40.0,0.75,111,53.0
260,F#2,40.0,0.5,127,53.0
261,D5,40.0,1.0,111,53.0
262,B4,40.0,1.0,111,53.0
263,D5,40.0,1.0,103,53.0
264,B4,40.0,1.0,103,53.0
265,F#2,40.5,0.25,111,53.0
266,F2,40.75,0.25,127,53.0
267,F#2,40.75,0.25,127,53.0
268,E-2,41.0,0.5,127,53.0
269,C5,41.0,1.0,111,53.0
270,G4,41.0,1.0,111,53.0
271,E-5,41.0,1.0,111,53.0
272,C5,41.0,1.0,111,53.0
273,D2,41.0,667/1000,111,53.0
274,F#2,41.0,667/1000,111,53.0
275,G2,41.5,0.25,127,53.0
276,B-2,41.667,333/1000,111,53.0
277,F2,41.75,0.75,111,53.0
278,F#2,42.0,667/1000,111,53.0
279,F5,42.0,1.0,111,53.0
280,C5,42.0,1.0,111,53.0
281,F5,42.0,1.0,95,53.0
282,C5,42.0,1.0,95,53.0
283,E-2,42.5,0.25,111,53.0
284,B-2,42.667,333/1000,111,53.0
285,D2,42.75,0.75,127,53.0
286,B-4,43.0,1.0,103,53.0
287,F4,43.0,1.0,103,53.0
288,D5,43.0,1.0,95,53.0
289,B-4,43.0,1.0,95,53.0
290,D2,43.0,0.5,119,53.0
291,F#2,43.0,0.5,119,53.0
292,C2,43.5,0.25,127,53.0
293,F#2,43.5,0.25,127,53.0
294,B-2,43.75,0.25,111,53.0
295,B-1,44.0,0.75,127,53.0
296,F#2,44.0,0.5,111,53.0
297,D5,44.0,1.0,103,53.0
298,B-4,44.0,1.0,103,53.0
299,G4,44.0,1.0,103,53.0
300,F4,44.0,1.0,103,53.0
301,B-4,44.0,1.0,90,53.0
302,G4,44.0,1.0,90,53.0
303,D4,44.0,1.0,90,53.0
304,F#2,44.5,0.25,127,53.0
305,F2,44.75,0.25,127,53.0
306,F#2,44.75,0.25,111,53.0
307,E-2,45.0,0.5,111,53.0
308,D2,45.0,0.5,127,53.0
309,C5,45.0,0.75,99,53.0
310,B-4,45.0,0.75,99,53.0
311,G4,45.0,0.75,99,53.0
312,E-4,45.0,0.75,99,53.0
313,C5,45.0,0.75,100,53.0
314,G4,45.0,0.75,100,53.0
315,E-4,45.0,0.75,100,53.0
316,G2,45.5,0.25,127,53.0
317,F#2,45.5,0.25,111,53.0
318,G#2,45.75,2.0,127,53.0
319,F#2,45.75,0.25,111,53.0
320,E-5,45.75,2.25,95,53.0
321,C5,45.75,2.25,95,53.0
322,G#4,45.75,2.25,95,53.0
323,C5,45.75,2.25,90,53.0
324,G#4,45.75,2.25,90,53.0
325,E-4,45.75,2.25,90,53.0
326,F#2,46.0,667/1000,127,53.0
327,B-2,46.667,333/1000,111,53.0
328,D2,47.0,667/1000,119,53.0
329,F#2,47.0,667/1000,119,53.0
330,G2,47.667,333/1000,127,53.0
331,G#2,47.75,0.25,111,53.0
332,G2,48.0,4.0,127,53.0
333,F#2,48.0,0.5,111,53.0
334,G5,48.0,1.75,95,53.0
335,D5,48.0,1.75,95,53.0
336,B4,48.0,1.75,95,53.0
337,F#2,48.5,0.25,127,53.0
338,F#2,48.75,0.25,111,53.0
339,D2,49.0,667/1000,111,53.0
340,B-2,49.667,333/1000,111,53.0
341,G4,49.75,0.125,127,53.0
342,G4,49.875,0.125,111,53.0
343,F#2,50.0,0.25,111,53.0
344,G5,50.0,1.0,103,53.0
345,D5,50.0,1.0,103,53.0
346,D5,50.0,1.0,103,53.0
347,B4,50.0,1.0,103,53.0
348,F#2,50.25,0.25,111,53.0
349,F#2,50.5,0.25,111,53.0
350,F#2,50.75,0.25,127,53.0
351,F5,51.0,0.75,127,53.0
352,D2,51.0,0.75,119,53.0
353,F#2,51.0,0.75,119,53.0
354,C5,51.75,0.125,127,53.0
355,B-2,51.75,0.25,111,53.0
356,B4,51.875,0.125,111,53.0
357,D5,52.0,1.75,127,53.0
358,F#2,52.0,0.25,111,53.0
359,G5,52.0,1.0,106,53.0
360,D5,52.0,1.0,106,53.0
361,B-4,52.0,1.0,106,53.0
362,F#2,52.25,0.25,111,53.0
363,F#2,52.5,0.25,111,53.0
364,F#2,52.75,0.25,111,53.0
365,C5,53.0,1.0,111,53.0
366,G4,53.0,1.0,111,53.0
367,D2,53.0,0.5,111,53.0
368,B-2,53.0,0.5,111,53.0
369,D2,53.5,0.125,111,53.0
370,D2,53.625,0.125,111,53.0
371,C5,53.75,0.125,127,53.0
372,D2,53.75,0.25,111,53.0
373,G4,53.875,0.125,127,53.0
374,B-4,54.0,0.5,111,53.0
375,F#2,54.0,0.25,127,53.0
376,B-5,54.0,1.75,91,53.0
377,G#5,54.0,1.75,91,53.0
378,E-5,54.0,1.75,91,53.0
379,C5,54.0,1.75,91,53.0
380,D2,54.25,0.5,111,53.0
381,E-4,54.5,1.5,111,53.0
382,D2,54.75,0.25,111,53.0
383,D2,55.0,0.25,111,53.0
384,F#2,55.25,0.25,127,53.0
385,G2,55.5,0.5,127,53.0
386,D5,55.75,0.25,95,53.0
387,B-4,55.75,0.25,95,53.0
388,G4,55.75,0.25,95,53.0
389,F#2,56.0,667/1000,111,53.0
390,E-5,56.0,2.0,95,53.0
391,C5,56.0,2.0,95,53.0
392,G#4,56.0,2.0,95,53.0
393,B-2,56.667,333/1000,111,53.0
394,E-4,57.0,0.25,111,53.0
395,D2,57.0,0.5,119,53.0
396,F#2,57.0,0.5,119,53.0
397,G#4,57.25,0.25,127,53.0
398,F4,57.5,0.25,127,53.0
399,F#2,57.5,0.25,127,53.0
400,B-4,57.75,0.25,111,53.0
401,B-2,57.75,0.25,111,53.0
402,G#4,58.0,0.25,111,53.0
403,F#2,58.0,0.25,127,53.0
404,F5,58.0,2.0,83,53.0
405,E-5,58.0,2.0,83,53.0
406,C5,58.0,2.0,83,53.0
407,G#4,58.0,2.0,83,53.0
408,C5,58.25,0.5,127,53.0
409,F#2,58.25,0.25,127,53.0
410,F#2,58.5,0.25,111,53.0
411,B-4,58.75,0.125,111,53.0
412,F#2,58.75,0.25,111,53.0
413,F5,58.875,0.125,127,53.0
414,D5,59.0,0.25,127,53.0
415,D2,59.0,667/1000,111,53.0
416,F#2,59.0,667/1000,111,53.0
417,G5,59.25,0.5,127,53.0
418,B-2,59.667,333/1000,111,53.0
419,F5,59.75,0.125,127,53.0
420,E-5,59.875,0.125,111,53.0
421,D5,60.0,0.75,127,53.0
422,B-2,60.0,0.5,127,53.0
423,G5,60.0,1.0,100,53.0
424,D5,60.0,1.0,100,53.0
425,B4,60.0,1.0,100,53.0
426,B-2,60.5,0.25,111,53.0
427,E-5,60.75,0.25,111,53.0
428,B-2,60.75,0.25,111,53.0
429,F5,61.0,667/1000,127,53.0
430,G#5,61.0,1.0,95,53.0
431,G5,61.0,1.0,95,53.0
432,D5,61.0,1.0,95,53.0
433,B4,61.0,1.0,95,53.0
434,D2,61.0,0.5,119,53.0
435,F#2,61.0,0.5,119,53.0
436,F#2,61.5,0.25,127,53.0
437,B-2,61.75,0.25,111,53.0
438,G#4,62.0,0.25,111,53.0
439,F#2,62.0,0.25,111,53.0
440,G5,62.0,1.0,100,53.0
441,D5,62.0,1.0,100,53.0
442,B4,62.0,1.0,100,53.0
443,G4,62.25,0.25,127,53.0
444,F#2,62.25,0.25,127,53.0
445,F4,62.5,0.25,127,53.0
446,F#2,62.5,0.25,111,53.0
447,D4,62.75,0.25,127,53.0
448,F#2,62.75,0.25,127,53.0
449,G4,63.0,0.25,127,53.0
450,G5,63.0,1.0,95,53.0
451,D5,63.0,1.0,95,53.0
452,B4,63.0,1.0,95,53.0
453,D2,63.0,0.25,111,53.0
454,F#2,63.0,0.25,111,53.0
455,B4,63.25,0.25,111,53.0
456,F#2,63.25,0.25,111,53.0
457,D5,63.5,0.375,127,53.0
458,B-2,63.5,0.5,111,53.0
459,B4,63.875,0.125,127,53.0
460,C5,64.0,1.0,127,53.0
461,F#2,64.0,667/1000,111,53.0
462,E-5,64.0,4.0,90,53.0
463,C5,64.0,4.0,90,53.0
464,G4,64.0,4.0,90,53.0
465,F#2,64.667,333/1000,127,53.0
466,D2,65.0,667/1000,111,53.0
467,F#2,65.0,667/1000,111,53.0
468,B-2,65.667,333/1000,111,53.0
469,B-4,65.75,0.125,111,53.0
470,G4,65.875,0.125,127,53.0
471,F4,66.0,0.5,127,53.0
472,D2,66.0,667/1000,127,53.0
473,F#2,66.0,667/1000,127,53.0
474,G4,66.5,1.25,127,53.0
475,A2,66.667,333/1000,111,53.0
476,F#2,67.0,0.25,111,53.0
477,A2,67.25,0.5,127,53.0
478,C4,67.75,0.25,127,53.0
479,C2,67.75,0.25,119,53.0
480,G2,67.75,0.25,119,53.0
481,E-4,68.0,0.25,111,53.0
482,C2,68.0,0.5,127,53.0
483,F#2,68.0,0.5,127,53.0
484,F4,68.25,0.25,111,53.0
485,C4,68.5,0.25,127,53.0
486,F#2,68.5,0.25,127,53.0
487,F#2,68.75,0.25,127,53.0
488,E-4,68.75,0.25,111,53.0
489,G#3,68.75,0.25,111,53.0
490,F#2,69.0,0.25,111,53.0
491,G4,69.0,2.0,90,53.0
492,D4,69.0,2.0,90,53.0
493,G3,69.0,2.0,90,53.0
494,B-2,69.25,0.25,111,53.0
495,F#2,69.5,0.25,111,53.0
496,D2,69.75,0.25,127,53.0
497,F#2,69.75,0.25,127,53.0
498,B-2,70.0,0.5,111,53.0
499,D2,70.5,0.25,127,53.0
500,F#2,70.5,0.25,127,53.0
501,F#2,70.75,0.25,111,53.0
502,F#2,71.0,0.25,111,53.0
503,A2,71.0,0.25,111,53.0
504,A2,71.25,0.25,111,53.0
505,A2,71.5,0.5,127,53.0
506,B-3,71.75,0.25,111,53.0
507,B-5,71.75,0.25,111,53.0
508,C2,72.0,4.0,127,53.0
509,C4,72.0,4.0,127,53.0
510,C6,72.0,4.0,111,53.0
511,F#2,72.0,0.75,127,53.0
512,D2,72.75,0.25,111,53.0
513,G5,72.75,3.25,100,53.0
514,E-5,72.75,3.25,100,53.0
515,C5,72.75,3.25,100,53.0
516,B-2,73.0,0.75,111,53.0
517,B-2,73.75,0.25,127,53.0
518,F#2,74.0,0.25,111,53.0
519,D2,74.25,0.25,127,53.0
520,F#2,74.25,0.25,127,53.0
521,B-2,74.5,0.5,111,53.0
522,F#2,75.0,0.25,119,53.0
523,A2,75.0,0.25,119,53.0
524,F#2,75.25,0.25,119,53.0
525,A2,75.25,0.25,119,53.0
526,F#2,75.5,0.5,111,53.0
527,E-2,76.0,3.5,111,53.0
528,B-4,76.0,4.0,106,53.0
529,G4,76.0,4.0,106,53.0
530,E-4,76.0,4.0,106,53.0
531,B-4,76.0,4.0,106,53.0
532,G4,76.0,4.0,106,53.0
533,E-4,76.0,4.0,106,53.0
534,C2,76.0,667/1000,127,53.0
535,F#2,76.0,667/1000,127,53.0
536,F#2,76.667,333/1000,127,53.0
537,F#2,77.0,0.75,127,53.0
538,E-4,77.25,0.25,111,53.0
539,B-4,77.5,0.25,111,53.0
540,G4,77.75,0.25,111,53.0
541,F#2,77.75,0.125,111,53.0
542,F#2,77.875,0.125,127,53.0
543,C5,78.0,0.5,127,53.0
544,F#2,78.0,1.0,127,53.0
545,B-4,78.5,1.25,111,53.0
546,D2,79.0,667/1000,127,53.0
547,F#2,79.0,667/1000,127,53.0
548,E-2,79.5,0.25,111,53.0
549,F#2,79.667,333/1000,111,53.0
550,E-2,79.75,0.25,111,53.0
551,E-4,79.75,0.25,111,53.0
552,C#2,80.0,1.0,111,53.0
553,E-4,80.0,1.75,111,53.0
554,F#2,80.0,667/1000,111,53.0
555,F5,80.0,2.0,111,53.0
556,C#5,80.0,2.0,111,53.0
557,G#4,80.0,2.0,106,53.0
558,F4,80.0,2.0,106,53.0
559,C#4,80.0,2.0,106,53.0
560,F#2,80.667,333/1000,127,53.0
561,C#2,81.0,0.75,111,53.0
562,D2,81.0,0.5,127,53.0
563,F#2,81.5,0.25,127,53.0
564,C#2,81.75,0.25,111,53.0
565,G4,81.75,0.125,111,53.0
566,F#2,81.75,0.25,111,53.0
567,E-4,81.875,0.125,111,53.0
568,B-1,82.0,1.0,127,53.0
569,C4,82.0,1.75,127,53.0
570,D2,82.0,0.25,111,53.0
571,F5,82.0,2.0,95,53.0
572,E-5,82.0,2.0,95,53.0
573,C5,82.0,2.0,95,53.0
574,G#4,82.0,2.0,95,53.0
575,C5,82.0,2.0,91,53.0
576,G#4,82.0,2.0,91,53.0
577,F4,82.0,2.0,91,53.0
578,E-4,82.0,2.0,91,53.0
579,B-2,82.25,0.25,111,53.0
580,D2,82.5,0.25,127,53.0
581,B-2,82.75,0.25,111,53.0
582,D2,83.0,0.25,127,53.0
583,D2,83.25,0.25,127,53.0
584,G2,83.5,0.5,127,53.0
585,B-1,83.75,0.125,127,53.0
586,E-4,83.75,0.125,111,53.0
587,B-1,83.875,0.125,127,53.0
588,B-4,83.875,0.125,111,53.0
589,E-2,84.0,1.75,111,53.0
590,C5,84.0,0.75,111,53.0
591,F#2,84.0,1.0,127,53.0
592,C5,84.0,1.0,95,53.0
593,B-4,84.0,1.0,95,53.0
594,G4,84.0,1.0,95,53.0
595,E-4,84.0,1.0,95,53.0
596,C5,84.0,4.0,87,53.0
597,B-4,84.0,4.0,87,53.0
598,G4,84.0,4.0,87,53.0
599,D4,84.0,4.0,87,53.0
600,G4,84.75,0.25,95,53.0
601,B-4,85.0,2.0,111,53.0
602,F#2,85.0,0.25,111,53.0
603,B-4,85.0,3.0,87,53.0
604,G4,85.0,3.0,87,53.0
605,E-4,85.0,3.0,87,53.0
606,D4,85.0,3.0,87,53.0
607,F#2,85.25,0.25,127,53.0
608,B-2,85.5,0.5,111,53.0
609,E-2,85.75,0.25,127,53.0
610,E-2,86.0,1.75,111,53.0
611,F#2,86.0,0.5,111,53.0
612,F#2,86.5,0.25,127,53.0
613,F#2,86.75,0.25,127,53.0
614,B-4,87.0,0.375,127,53.0
615,D2,87.0,0.25,127,53.0
616,F#2,87.25,0.25,111,53.0
617,C5,87.375,0.125,111,53.0
618,B-4,87.5,0.25,111,53.0
619,E-2,87.75,0.25,111,53.0
620,E-5,87.75,0.25,111,53.0
621,B-1,88.0,1.5,111,53.0
622,E-5,88.0,0.25,111,53.0
623,F#2,88.0,1.0,127,53.0
624,B-4,88.0,4.0,87,53.0
625,F4,88.0,4.0,87,53.0
626,E-4,88.0,4.0,87,53.0
627,B-3,88.0,4.0,87,53.0
628,E-5,88.0,4.0,75,53.0
629,B-4,88.0,4.0,75,53.0
630,G#4,88.0,4.0,75,53.0
631,F4,88.0,4.0,75,53.0
632,E-5,88.25,1.0,127,53.0
633,F#2,89.0,0.25,111,53.0
634,D5,89.25,0.125,111,53.0
635,F#2,89.25,0.25,127,53.0
636,B-4,89.375,0.125,111,53.0
637,B-1,89.5,0.25,127,53.0
638,G#4,89.5,1.5,111,53.0
639,B-2,89.5,0.5,111,53.0
640,B-1,89.75,0.25,111,53.0
641,B-1,90.0,1.75,127,53.0
642,F#2,90.0,0.5,119,53.0
643,D3,90.0,0.5,119,53.0
644,F#2,90.5,0.25,127,53.0
645,A2,90.5,0.25,127,53.0
646,F#2,90.75,0.25,127,53.0
647,A2,90.75,0.25,127,53.0
648,D2,91.0,0.25,127,53.0
649,F#2,91.25,0.25,111,53.0
650,B-1,91.75,0.25,111,53.0
651,C2,92.0,1.0,111,53.0
652,E-5,92.0,1.0,111,53.0
653,F#2,92.0,1.0,127,53.0
654,C5,92.0,1.0,95,53.0
655,G#4,92.0,1.0,95,53.0
656,G4,92.5,0.25,111,53.0
657,F4,92.75,0.5,127,53.0
658,D2,93.0,1.0,111,53.0
659,F5,93.0,1.0,127,53.0
660,F#2,93.0,0.25,111,53.0
661,D5,93.0,1.0,95,53.0
662,B-4,93.0,1.0,95,53.0
663,B-4,93.25,0.5,111,53.0
664,F#2,93.25,0.25,127,53.0
665,B-2,93.5,0.5,111,53.0
666,C5,93.75,0.25,111,53.0
667,E-2,94.0,1.75,111,53.0
668,D5,94.0,0.25,111,53.0
669,F#2,94.0,0.5,111,53.0
670,G#5,94.0,1.0,103,53.0
671,F5,94.0,1.0,103,53.0
672,E-5,94.0,2.0,95,53.0
673,C5,94.0,2.0,95,53.0
674,E-5,94.25,0.25,111,53.0
675,F5,94.5,1.25,111,53.0
676,F#2,94.5,0.25,127,53.0
677,F#2,94.75,0.25,127,53.0
678,D2,95.0,0.25,127,53.0
679,G#5,95.0,0.75,87,53.0
680,F5,95.0,0.75,87,53.0
681,F#2,95.25,0.25,111,53.0
682,E-2,95.75,0.25,127,53.0
683,D5,95.75,0.25,111,53.0
684,F5,95.75,0.25,111,53.0
685,G1,96.0,1.75,127,53.0
686,B-4,96.0,0.375,111,53.0
687,F5,96.0,4.0,111,53.0
688,F#2,96.0,1.0,127,53.0
689,B-5,96.0,2.0,103,53.0
690,G5,96.0,2.0,103,53.0
691,G4,96.375,0.125,127,53.0
692,B-4,96.5,0.5,111,53.0
693,F#2,97.0,0.25,111,53.0
694,F#2,97.25,0.25,127,53.0
695,C5,97.5,0.25,111,53.0
696,B-2,97.5,0.5,111,53.0
697,G1,97.75,0.25,127,53.0
698,D5,97.75,0.25,111,53.0
699,C2,98.0,1.0,127,53.0
700,F5,98.0,0.75,111,53.0
701,F#2,98.0,0.5,111,53.0
702,C5,98.0,1.0,99,53.0
703,B-4,98.0,1.0,99,53.0
704,G4,98.0,1.0,99,53.0
705,E-4,98.0,1.0,99,53.0
706,F#2,98.5,0.25,127,53.0
707,E-5,98.75,1.0,127,53.0
708,F#2,98.75,0.25,127,53.0
709,B-1,99.0,1.0,111,53.0
710,D2,99.0,0.25,127,53.0
711,C5,99.0,1.0,99,53.0
712,B-4,99.0,1.0,99,53.0
713,G4,99.0,1.0,99,53.0
714,E-4,99.0,1.0,99,53.0
715,F#2,99.25,0.25,111,53.0
716,G4,99.75,0.25,111,53.0
717,G#1,100.0,2.25,111,53.0
718,B-4,100.0,0.75,127,53.0
719,F#2,100.0,1.0,127,53.0
720,G#4,100.0,2.0,90,53.0
721,E-4,100.0,2.0,90,53.0
722,C4,100.0,2.0,90,53.0
723,G#4,100.75,0.5,111,53.0
724,F#2,101.0,0.25,111,53.0
725,C4,101.25,0.5,127,53.0
726,F#2,101.25,0.25,127,53.0
727,B-2,101.5,0.5,111,53.0
728,F4,101.75,1.25,127,53.0
729,F#2,102.0,0.5,111,53.0
730,D5,102.0,1.0,111,53.0
731,B-4,102.0,1.0,111,53.0
732,G#2,102.25,0.25,111,53.0
733,G#1,102.5,1.25,111,53.0
734,F#2,102.5,0.25,127,53.0
735,F#2,102.75,0.25,127,53.0
736,C5,103.0,1.0,127,53.0
737,D2,103.0,0.25,127,53.0
738,F#2,103.25,0.25,111,53.0
739,G#1,103.75,0.25,111,53.0
740,G4,103.75,0.125,127,53.0
741,G#4,103.875,0.125,111,53.0
742,G1,104.0,1.0,111,53.0
743,G#4,104.0,0.5,111,53.0
744,F#2,104.0,1.0,127,53.0
745,B4,104.0,1.75,100,53.0
746,G4,104.0,1.75,100,53.0
747,D4,104.0,1.75,100,53.0
748,G4,104.5,0.125,127,53.0
749,G#4,104.625,0.125,111,53.0
750,G4,104.875,2.375,111,53.0
751,F#2,105.0,0.25,111,53.0
752,F#2,105.25,0.25,127,53.0
753,B-2,105.5,0.5,111,53.0
754,G#5,105.75,0.25,84,53.0
755,E-5,105.75,0.25,84,53.0
756,C5,105.75,0.25,84,53.0
757,F#2,106.0,0.5,111,53.0
758,G5,106.0,1.0,116,53.0
759,D5,106.0,1.0,116,53.0
760,B-4,106.0,1.0,116,53.0
761,F#2,106.5,0.25,127,53.0
762,F#2,106.75,0.25,127,53.0
763,F5,107.0,1.0,111,53.0
764,D2,107.0,0.25,127,53.0
765,F#2,107.25,0.25,111,53.0
766,E-2,108.0,1.75,111,53.0
767,E-4,108.0,1.75,111,53.0
768,C5,108.0,2.0,127,53.0
769,F#2,108.0,0.5,111,53.0
770,C5,108.0,2.0,91,53.0
771,B-4,108.0,2.0,91,53.0
772,G4,108.0,2.0,91,53.0
773,E-4,108.0,2.0,91,53.0
774,F#2,108.5,0.25,127,53.0
775,F#2,108.75,0.25,111,53.0
776,D2,109.0,0.25,127,53.0
777,F#2,109.0,0.25,127,53.0
778,F#2,109.25,0.25,111,53.0
779,F#2,109.5,0.25,111,53.0
780,E-2,109.75,0.25,127,53.0
781,E-4,109.75,0.25,127,53.0
782,F#2,109.75,0.25,127,53.0
783,G#2,110.0,0.75,111,53.0
784,G#4,110.0,0.75,111,53.0
785,D5,110.0,2.0,127,53.0
786,F#2,110.0,0.25,111,53.0
787,D5,110.0,2.0,91,53.0
788,C5,110.0,2.0,91,53.0
789,G#4,110.0,2.0,91,53.0
790,F4,110.0,2.0,91,53.0
791,F#2,110.25,0.25,127,53.0
792,B-2,110.5,0.5,111,53.0
793,G2,110.75,0.25,127,53.0
794,G4,110.75,0.25,111,53.0
795,F2,111.0,0.75,127,53.0
796,F4,111.0,0.75,127,53.0
797,D2,111.0,0.25,119,53.0
798,F#2,111.0,0.25,119,53.0
799,F#2,111.25,0.25,111,53.0
800,F#2,111.5,0.25,111,53.0
801,D2,111.75,0.25,127,53.0
802,D4,111.75,0.25,127,53.0
803,F#2,111.75,0.25,111,53.0
804,B-2,112.0,1.5,111,53.0
805,B-4,112.0,1.0,127,53.0
806,D5,112.0,2.0,127,53.0
807,F#2,112.0,0.5,111,53.0
808,D5,112.0,2.0,83,53.0
809,B-4,112.0,2.0,83,53.0
810,G4,112.0,2.0,83,53.0
811,F4,112.0,2.0,83,53.0
812,F#2,112.5,0.25,127,53.0
813,F#2,112.75,0.25,111,53.0
814,D2,113.0,0.25,127,53.0
815,F#2,113.0,0.25,127,53.0
816,F#2,113.25,0.25,111,53.0
817,G2,113.5,0.25,127,53.0
818,F#2,113.5,0.25,111,53.0
819,E-3,113.75,1.75,111,53.0
820,G4,113.75,0.25,111,53.0
821,F#2,113.75,0.25,127,53.0
822,E-5,114.0,1.0,111,53.0
823,E-5,114.0,2.0,111,53.0
824,F#2,114.0,0.25,111,53.0
825,C5,114.0,1.0,87,53.0
826,B-4,114.0,1.0,87,53.0
827,G4,114.0,1.0,87,53.0
828,E-4,114.0,1.0,87,53.0
829,F#2,114.25,0.25,127,53.0
830,B-2,114.5,0.5,111,53.0
831,B-4,115.0,1.0,83,53.0
832,G4,115.0,1.0,83,53.0
833,E-4,115.0,1.0,83,53.0
834,C4,115.0,1.0,83,53.0
835,D2,115.0,0.25,119,53.0
836,F#2,115.0,0.25,119,53.0
837,F#2,115.25,0.25,111,53.0
838,F#2,115.5,0.25,111,53.0
839,F3,115.75,0.125,127,53.0
840,F5,115.75,0.125,111,53.0
841,F#2,115.75,0.25,111,53.0
842,G3,115.875,0.125,127,53.0
843,G5,115.875,0.125,111,53.0
844,F3,116.0,1.75,95,53.0
845,F5,116.0,1.25,111,53.0
846,E-5,116.0,2.0,111,53.0
847,F#2,116.0,0.5,111,53.0
848,B-4,116.0,2.0,87,53.0
849,G#4,116.0,2.0,87,53.0
850,E-4,116.0,2.0,87,53.0
851,C4,116.0,2.0,87,53.0
852,F#2,116.5,0.25,127,53.0
853,F#2,116.75,0.25,111,53.0
854,D2,117.0,0.25,127,53.0
855,F#2,117.0,0.25,127,53.0
856,F4,117.25,0.25,111,53.0
857,F#2,117.25,0.25,111,53.0
858,F5,117.5,1.75,127,53.0
859,F#2,117.5,0.25,111,53.0
860,B-1,117.75,0.25,127,53.0
861,F#2,117.75,0.25,127,53.0
862,F3,118.0,1.75,127,53.0
863,F4,118.0,1.0,95,53.0
864,C4,118.0,1.0,95,53.0
865,A3,118.0,1.0,95,53.0
866,A4,118.0,2.0,79,53.0
867,E-4,118.0,2.0,79,53.0
868,C4,118.0,2.0,79,53.0
869,F#2,118.0,0.25,119,53.0
870,D3,118.0,0.25,119,53.0
871,F#2,118.25,0.25,127,53.0
872,B-2,118.5,0.25,119,53.0
873,D3,118.5,0.25,119,53.0
874,D3,118.75,0.25,127,53.0
875,F5,119.0,1.0,91,53.0
876,E-5,119.0,1.0,91,53.0
877,C5,119.0,1.0,91,53.0
878,A4,119.0,1.0,91,53.0
879,D2,119.0,0.25,122,53.0
880,F#2,119.0,0.25,122,53.0
881,A2,119.0,0.25,122,53.0
882,C5,119.25,0.75,127,53.0
883,F#2,119.25,0.25,111,53.0
884,F#2,119.5,0.25,119,53.0
885,A2,119.5,0.25,119,53.0
886,E-3,119.75,0.25,111,53.0
887,F#2,119.75,0.25,119,53.0
888,A2,119.75,0.25,119,53.0
889,E-3,120.0,0.75,127,53.0
890,E-5,120.0,0.75,111,53.0
891,E-5,120.0,1.0,106,53.0
892,C5,120.0,1.0,106,53.0
893,G#4,120.0,1.0,106,53.0
894,E-5,120.0,1.0,90,53.0
895,C5,120.0,1.0,90,53.0
896,G#4,120.0,1.0,90,53.0
897,F#2,120.0,0.5,119,53.0
898,G2,120.0,0.5,119,53.0
899,F#2,120.5,0.25,127,53.0
900,G2,120.5,0.25,127,53.0
901,C3,120.75,0.25,127,53.0
902,C5,120.75,0.25,111,53.0
903,F#2,120.75,0.25,111,53.0
904,G2,120.75,0.25,111,53.0
905,B-2,121.0,2.0,127,53.0
906,B-4,121.0,2.0,111,53.0
907,E-5,121.0,3.0,83,53.0
908,C5,121.0,3.0,83,53.0
909,B-4,121.0,3.0,83,53.0
910,G#4,121.0,3.0,83,53.0
911,B-4,121.0,3.0,87,53.0
912,G#4,121.0,3.0,87,53.0
913,E-4,121.0,3.0,87,53.0
914,C4,121.0,3.0,87,53.0
915,D2,121.0,0.25,127,53.0
916,F#2,121.0,0.25,127,53.0
917,F2,121.0,0.25,127,53.0
918,F#2,121.25,0.25,111,53.0
919,F#2,121.5,0.25,119,53.0
920,F2,121.5,0.25,119,53.0
921,F#2,121.75,0.25,127,53.0
922,F2,121.75,0.25,127,53.0
923,F#2,122.0,0.25,111,53.0
924,F#2,122.25,0.25,127,53.0
925,B-2,122.5,0.5,111,53.0
926,G2,123.0,0.5,127,53.0
927,D2,123.0,0.25,122,53.0
928,F#2,123.0,0.25,122,53.0
929,C#3,123.0,0.25,122,53.0
930,F#2,123.25,0.25,111,53.0
931,B-2,123.5,0.25,111,53.0
932,F#2,123.5,0.25,111,53.0
933,E-2,123.75,0.25,111,53.0
934,F#2,123.75,0.25,111,53.0
935,E-2,124.0,1.0,111,53.0
936,G4,124.0,667/1000,111,53.0
937,F#2,124.0,0.5,111,53.0
938,G5,124.0,1.0,100,53.0
939,E-5,124.0,1.0,100,53.0
940,B-4,124.0,1.0,100,53.0
941,E-5,124.0,1.0,84,53.0
942,B-4,124.0,1.0,84,53.0
943,G4,124.0,1.0,84,53.0
944,F#2,124.5,0.25,127,53.0
945,F#2,124.75,0.25,111,53.0
946,D2,125.0,1.0,127,53.0
947,B-4,125.0,0.75,111,53.0
948,B-5,125.0,1.0,95,53.0
949,F5,125.0,1.0,95,53.0
950,D5,125.0,1.0,95,53.0
951,F5,125.0,1.0,95,53.0
952,D5,125.0,1.0,95,53.0
953,B-4,125.0,1.0,95,53.0
954,D2,125.0,0.25,127,53.0
955,F#2,125.0,0.25,127,53.0
956,F#2,125.25,0.25,111,53.0
957,F#2,125.5,0.25,111,53.0
958,C5,125.75,0.25,127,53.0
959,F#2,125.75,0.25,127,53.0
960,C2,126.0,1.0,127,53.0
961,G4,126.0,0.75,111,53.0
962,F#2,126.0,0.25,111,53.0
963,C6,126.0,2.0,91,53.0
964,B-5,126.0,2.0,91,53.0
965,G5,126.0,2.0,91,53.0
966,E-5,126.0,2.0,91,53.0
967,C5,126.0,1.0,83,53.0
968,B-4,126.0,1.0,83,53.0
969,G4,126.0,1.0,83,53.0
970,E-4,126.0,1.0,83,53.0
971,F#2,126.25,0.25,127,53.0
972,B-2,126.5,0.5,111,53.0
973,B-4,126.75,0.25,111,53.0
974,B-1,127.0,1.0,127,53.0
975,B-4,127.0,1.0,75,53.0
976,G4,127.0,1.0,75,53.0
977,E-4,127.0,1.0,75,53.0
978,C4,127.0,1.0,75,53.0
979,D2,127.0,0.25,119,53.0
980,F#2,127.0,0.25,119,53.0
981,F#2,127.25,0.25,111,53.0
982,F#2,127.5,0.25,111,53.0
983,E-4,127.75,0.25,111,53.0
984,F#2,127.75,0.25,111,53.0
985,G#1,128.0,1.0,111,53.0
986,G#4,128.0,0.75,111,53.0
987,F#2,128.0,0.5,111,53.0
988,G#5,128.0,1.0,95,53.0
989,E-5,128.0,1.0,95,53.0
990,C5,128.0,1.0,95,53.0
991,B-4,128.0,1.0,95,53.0
992,G#5,128.0,1.0,91,53.0
993,E-5,128.0,1.0,91,53.0
994,C5,128.0,1.0,91,53.0
995,G#4,128.0,1.0,91,53.0
996,F#2,128.5,0.25,127,53.0
997,B-4,128.75,0.25,111,53.0
998,F#2,128.75,0.25,111,53.0
999,G1,129.0,1.0,111,53.0
1000,C5,129.0,0.75,111,53.0
1001,G#5,129.0,1.0,103,53.0
1002,E-5,129.0,1.0,103,53.0
1003,C5,129.0,1.0,103,53.0
1004,G4,129.0,1.0,103,53.0
1005,G5,129.0,1.0,83,53.0
1006,E-5,129.0,1.0,83,53.0
1007,C5,129.0,1.0,83,53.0
1008,G#4,129.0,1.0,83,53.0
1009,D2,129.0,0.25,127,53.0
1010,F#2,129.0,0.25,127,53.0
1011,F#2,129.25,0.25,111,53.0
1012,F#2,129.5,0.25,111,53.0
1013,E-5,129.75,0.25,111,53.0
1014,F#2,129.75,0.25,127,53.0
1015,F1,130.0,1.0,127,53.0
1016,G#4,130.0,0.5,111,53.0
1017,F#2,130.0,0.25,111,53.0
1018,G#5,130.0,1.0,101,53.0
1019,F5,130.0,1.0,101,53.0
1020,E-5,130.0,1.0,101,53.0
1021,C5,130.0,1.0,101,53.0
1022,F4,130.0,1.0,101,53.0
1023,F5,130.0,2.0,87,53.0
1024,E-5,130.0,2.0,87,53.0
1025,C5,130.0,2.0,87,53.0
1026,G#4,130.0,2.0,87,53.0
1027,F#2,130.25,0.25,127,53.0
1028,B-2,130.5,0.5,111,53.0
1029,B-1,131.0,1.0,127,53.0
1030,G#5,131.0,1.0,98,53.0
1031,F5,131.0,1.0,98,53.0
1032,E-5,131.0,1.0,98,53.0
1033,C5,131.0,1.0,98,53.0
1034,B-4,131.0,1.0,98,53.0
1035,D2,131.0,0.25,119,53.0
1036,F#2,131.0,0.25,119,53.0
1037,F#2,131.25,0.25,111,53.0
1038,B-4,131.5,0.25,111,53.0
1039,F#2,131.5,0.25,111,53.0
1040,C5,131.75,0.25,127,53.0
1041,F#2,131.75,0.25,111,53.0
1042,E-2,132.0,2.75,111,53.0
1043,B-4,132.0,0.75,111,53.0
1044,F#2,132.0,0.5,111,53.0
1045,B-4,132.0,4.0,100,53.0
1046,G4,132.0,4.0,100,53.0
1047,E-4,132.0,4.0,100,53.0
1048,G5,132.0,1.0,84,53.0
1049,E-5,132.0,1.0,84,53.0
1050,B-4,132.0,1.0,84,53.0
1051,F#2,132.5,0.25,127,53.0
1052,G4,132.75,1.25,127,53.0
1053,F#2,132.75,0.25,111,53.0
1054,F5,133.0,3.0,106,53.0
1055,D5,133.0,3.0,106,53.0
1056,B-4,133.0,3.0,106,53.0
1057,D2,133.0,0.25,127,53.0
1058,F#2,133.0,0.25,127,53.0
1059,F#2,133.25,0.25,111,53.0
1060,F#2,133.5,0.25,111,53.0
1061,F#2,133.75,0.25,127,53.0
1062,F#2,134.0,0.25,111,53.0
1063,F#2,134.25,0.25,127,53.0
1064,B-2,134.5,0.5,111,53.0
1065,C3,134.75,0.125,111,53.0
1066,B-2,134.875,0.125,111,53.0
1067,E-2,135.0,1.0,111,53.0
1068,D2,135.0,0.25,119,53.0
1069,F#2,135.0,0.25,119,53.0
1070,F#2,135.25,0.25,111,53.0
1071,F#2,135.5,0.25,111,53.0
1072,F#2,135.75,0.25,111,53.0
1073,B1,136.0,2.0,127,53.0
1074,F#4,136.0,0.75,111,53.0
1075,F#2,136.0,0.5,111,53.0
1076,E4,136.0,3.0,100,53.0
1077,B3,136.0,3.0,100,53.0
1078,B4,136.0,3.0,100,53.0
1079,F#4,136.0,3.0,100,53.0
1080,B3,136.0,3.0,100,53.0
1081,F#3,136.0,3.0,100,53.0
1082,E5,136.0,4.0,100,53.0
1083,B4,136.0,4.0,100,53.0
1084,F#4,136.0,4.0,100,53.0
1085,F#2,136.5,0.25,127,53.0
1086,E-4,136.75,1.25,127,53.0
1087,F#2,136.75,0.25,111,53.0
1088,D2,137.0,0.25,127,53.0
1089,F#2,137.0,0.25,127,53.0
1090,F#2,137.25,0.25,111,53.0
1091,F#2,137.5,0.25,111,53.0
1092,F#2,137.75,0.25,127,53.0
1093,F#2,138.0,0.25,111,53.0
1094,F#2,138.25,0.25,127,53.0
1095,C#3,138.375,0.5,111,53.0
1096,B-2,138.5,0.5,111,53.0
1097,C#3,138.875,0.125,95,53.0
1098,B1,139.0,0.75,127,53.0
1099,E4,139.0,1.0,91,53.0
1100,B3,139.0,1.0,91,53.0
1101,B4,139.0,1.0,91,53.0
1102,F#4,139.0,1.0,91,53.0
1103,D2,139.0,0.25,119,53.0
1104,F#2,139.0,0.25,119,53.0
1105,F#2,139.25,0.25,111,53.0
1106,F#2,139.5,0.25,111,53.0
1107,B1,139.75,0.25,127,53.0
1108,F#2,139.75,0.25,111,53.0
1109,B-1,140.0,1.75,127,53.0
1110,F4,140.0,0.75,111,53.0
1111,F#2,140.0,0.5,111,53.0
1112,B-4,140.0,1.0,83,53.0
1113,F4,140.0,1.0,83,53.0
1114,E-4,140.0,1.0,83,53.0
1115,B-3,140.0,1.0,83,53.0
1116,B-5,140.0,4.0,100,53.0
1117,F5,140.0,4.0,100,53.0
1118,B-4,140.0,4.0,100,53.0
1119,F#2,140.5,0.25,127,53.0
1120,D4,140.75,1.25,127,53.0
1121,F#2,140.75,0.25,111,53.0
1122,B-5,141.0,1.0,111,53.0
1123,D2,141.0,0.25,127,53.0
1124,F#2,141.0,0.25,127,53.0
1125,F#2,141.25,0.25,111,53.0
1126,F#2,141.5,0.25,111,53.0
1127,B-1,141.75,0.25,111,53.0
1128,F#2,141.75,0.25,127,53.0
1129,B-1,142.0,1.75,127,53.0
1130,F#2,142.0,0.25,111,53.0
1131,B-4,142.0,2.0,83,53.0
1132,F4,142.0,2.0,83,53.0
1133,E-4,142.0,2.0,83,53.0
1134,B-3,142.0,2.0,83,53.0
1135,F#2,142.25,0.25,127,53.0
1136,B-2,142.5,0.5,111,53.0
1137,D2,143.0,0.25,119,53.0
1138,F#2,143.0,0.25,119,53.0
1139,F#2,143.25,0.25,111,53.0
1140,F#2,143.5,0.25,111,53.0
1141,B-1,143.75,0.125,111,53.0
1142,F#2,143.75,0.25,111,53.0
1143,B-1,143.875,0.125,111,53.0
1144,B-1,144.0,3.5,111,53.0
1145,F4,144.0,0.75,111,53.0
1146,F#2,144.0,0.5,111,53.0
1147,C5,144.0,4.0,83,53.0
1148,B-4,144.0,4.0,83,53.0
1149,G#4,144.0,4.0,83,53.0
1150,F4,144.0,4.0,83,53.0
1151,E-6,144.0,1.5,84,53.0
1152,B-5,144.0,1.5,84,53.0
1153,F5,144.0,1.5,84,53.0
1154,F#2,144.5,0.25,127,53.0
1155,D4,144.75,1.25,127,53.0
1156,F#2,144.75,0.25,111,53.0
1157,D2,145.0,0.25,127,53.0
1158,F#2,145.0,0.25,127,53.0
1159,F#2,145.25,0.25,111,53.0
1160,F#2,145.5,0.25,111,53.0
1161,B-5,145.5,2.5,95,53.0
1162,F5,145.5,2.5,95,53.0
1163,B-4,145.5,2.5,95,53.0
1164,F#2,145.75,0.25,127,53.0
1165,F#2,146.0,0.25,111,53.0
1166,F#2,146.25,0.25,127,53.0
1167,B-2,146.5,0.5,111,53.0
1168,D2,147.0,0.25,119,53.0
1169,F#2,147.0,0.25,119,53.0
1170,F#2,147.25,0.25,111,53.0
1171,F#2,147.5,0.25,111,53.0
1172,B-1,147.667,333/1000,111,53.0
1173,F#2,147.75,0.25,111,53.0
1174,E-2,148.0,2.75,111,53.0
1175,F#2,148.0,0.5,111,53.0
1176,F5,148.0,2.0,91,53.0
1177,E-5,148.0,2.0,91,53.0
1178,B-4,148.0,2.0,91,53.0
1179,G4,148.0,2.0,91,53.0
1180,F5,148.0,1.0,95,53.0
1181,E-5,148.0,1.0,95,53.0
1182,B-4,148.0,1.0,95,53.0
1183,G4,148.0,1.0,95,53.0
1184,F#2,148.5,0.25,127,53.0
1185,F#2,148.75,0.25,111,53.0
1186,E-5,149.0,1.0,95,53.0
1187,B-4,149.0,1.0,95,53.0
1188,G4,149.0,1.0,95,53.0
1189,D2,149.0,0.25,127,53.0
1190,F#2,149.0,0.25,127,53.0
1191,F#2,149.25,0.25,111,53.0
1192,F4,149.5,0.25,111,53.0
1193,F#2,149.5,0.25,111,53.0
1194,G4,149.75,0.25,127,53.0
1195,F#2,149.75,0.25,127,53.0
1196,G4,150.0,0.125,111,53.0
1197,F#2,150.0,0.25,111,53.0
1198,D5,150.0,2.0,95,53.0
1199,B-4,150.0,2.0,95,53.0
1200,G4,150.0,2.0,95,53.0
1201,C5,150.0,2.0,95,53.0
1202,B-4,150.0,2.0,95,53.0
1203,G4,150.0,2.0,95,53.0
1204,D4,150.125,0.375,127,53.0
1205,F#2,150.25,0.25,127,53.0
1206,F4,150.5,0.5,127,53.0
1207,B-2,150.5,0.5,111,53.0
1208,E-2,150.75,0.25,111,53.0
1209,E-2,151.0,0.75,127,53.0
1210,G4,151.0,1.0,127,53.0
1211,D2,151.0,0.25,119,53.0
1212,F#2,151.0,0.25,119,53.0
1213,F#2,151.25,0.25,111,53.0
1214,F#2,151.5,0.25,111,53.0
1215,G2,151.75,0.25,127,53.0
1216,F#2,151.75,0.25,111,53.0
1217,C2,152.0,4.0,127,53.0
1218,F#2,152.0,0.5,111,53.0
1219,G4,152.0,1.0,111,53.0
1220,E-4,152.0,1.0,111,53.0
1221,C4,152.0,1.0,111,53.0
1222,G4,152.0,1.0,100,53.0
1223,E-4,152.0,1.0,100,53.0
1224,C4,152.0,1.0,100,53.0
1225,F#2,152.5,0.25,127,53.0
1226,F#2,152.75,0.25,111,53.0
1227,G#4,153.0,0.25,111,53.0
1228,G#4,153.0,0.25,111,53.0
1229,G#5,153.0,0.25,111,53.0
1230,D2,153.0,0.25,127,53.0
1231,F#2,153.0,0.25,127,53.0
1232,G4,153.25,0.5,127,53.0
1233,G4,153.25,0.75,127,53.0
1234,G5,153.25,0.75,111,53.0
1235,F#2,153.25,0.25,111,53.0
1236,F#2,153.5,0.25,111,53.0
1237,E-4,153.75,0.25,111,53.0
1238,F#2,153.75,0.25,127,53.0
1239,F4,154.0,0.125,111,53.0
1240,F#2,154.0,0.25,111,53.0
1241,F4,154.0,1.0,90,53.0
1242,E-4,154.0,1.0,90,53.0
1243,C4,154.0,1.0,90,53.0
1244,F5,154.0,1.0,98,53.0
1245,C5,154.0,1.0,98,53.0
1246,G4,154.0,1.0,98,53.0
1247,E-4,154.0,1.0,98,53.0
1248,C4,154.0,1.0,98,53.0
1249,G4,154.125,0.125,111,53.0
1250,F#2,154.25,0.25,127,53.0
1251,F4,154.375,0.125,111,53.0
1252,F4,154.5,1.0,127,53.0
1253,B-2,154.5,0.5,111,53.0
1254,G4,155.0,1.0,95,53.0
1255,E-4,155.0,1.0,95,53.0
1256,C4,155.0,1.0,95,53.0
1257,G5,155.0,1.0,103,53.0
1258,E-5,155.0,1.0,103,53.0
1259,D2,155.0,0.25,119,53.0
1260,F#2,155.0,0.25,119,53.0
1261,F#2,155.25,0.25,111,53.0
1262,F#2,155.5,0.25,111,53.0
1263,G4,155.75,0.25,127,53.0
1264,F#2,155.75,0.25,111,53.0
1265,C2,156.0,4.0,127,53.0
1266,G4,156.0,0.375,127,53.0
1267,F#2,156.0,0.5,111,53.0
1268,B-4,156.0,2.0,91,53.0
1269,G4,156.0,2.0,91,53.0
1270,E-4,156.0,2.0,91,53.0
1271,C4,156.0,2.0,91,53.0
1272,B-4,156.0,2.0,91,53.0
1273,G4,156.0,2.0,91,53.0
1274,E-4,156.0,2.0,91,53.0
1275,C4,156.0,2.0,91,53.0
1276,E-4,156.375,0.25,111,53.0
1277,F#2,156.5,0.25,127,53.0
1278,E-4,156.625,0.625,111,53.0
1279,F#2,156.75,0.25,111,53.0
1280,D2,157.0,0.25,127,53.0
1281,F#2,157.0,0.25,127,53.0
1282,B-3,157.25,0.5,127,53.0
1283,F#2,157.25,0.25,111,53.0
1284,F#2,157.5,0.25,111,53.0
1285,C4,157.75,0.25,111,53.0
1286,F#2,157.75,0.25,127,53.0
1287,E-4,158.0,0.125,111,53.0
1288,F#2,158.0,0.25,111,53.0
1289,E-5,158.0,2.0,87,53.0
1290,C5,158.0,2.0,87,53.0
1291,B-4,158.0,2.0,87,53.0
1292,F4,158.0,2.0,87,53.0
1293,E-5,158.0,2.0,87,53.0
1294,C5,158.0,2.0,87,53.0
1295,B-4,158.0,2.0,87,53.0
1296,F4,158.0,2.0,87,53.0
1297,F4,158.125,0.125,111,53.0
1298,F#2,158.25,0.25,127,53.0
1299,B-2,158.5,0.5,111,53.0
1300,D2,159.0,0.25,119,53.0
1301,F#2,159.0,0.25,119,53.0
1302,G4,159.25,0.125,127,53.0
1303,F#2,159.25,0.25,111,53.0
1304,F4,159.375,0.125,111,53.0
1305,F#2,159.5,0.25,111,53.0
1306,D4,159.625,0.125,127,53.0
1307,F#2,159.75,0.25,111,53.0
1308,F4,160.0,2.0,111,53.0
1309,F#2,160.0,0.5,111,53.0
1310,E-5,160.0,2.0,91,53.0
1311,C5,160.0,2.0,91,53.0
1312,G#4,160.0,2.0,91,53.0
1313,F4,160.0,2.0,91,53.0
1314,E-5,160.0,2.0,91,53.0
1315,C5,160.0,2.0,91,53.0
1316,G#4,160.0,2.0,91,53.0
1317,F4,160.0,2.0,91,53.0
1318,F#2,160.5,0.25,127,53.0
1319,F#2,160.75,0.25,111,53.0
1320,D2,161.0,0.25,127,53.0
1321,F#2,161.0,0.25,127,53.0
1322,F#2,161.25,0.25,111,53.0
1323,F#2,161.5,0.25,111,53.0
1324,F#2,161.75,0.25,127,53.0
1325,F#2,162.0,0.25,111,53.0
1326,B-4,162.0,2.0,106,53.0
1327,F4,162.0,2.0,106,53.0
1328,D4,162.0,2.0,106,53.0
1329,B-4,162.0,2.0,106,53.0
1330,F4,162.0,2.0,106,53.0
1331,D4,162.0,2.0,106,53.0
1332,F#2,162.25,0.25,127,53.0
1333,B-2,162.5,0.5,111,53.0
1334,D2,163.0,0.25,119,53.0
1335,F#2,163.0,0.25,119,53.0
1336,F#2,163.25,0.25,111,53.0
1337,F#2,163.5,0.25,111,53.0
1338,F#2,163.75,0.25,111,53.0
1339,E-3,164.0,1.0,111,53.0
1340,B-3,164.0,0.375,111,53.0
1341,G4,164.0,2.0,127,53.0
1342,F#2,164.0,0.5,111,53.0
1343,G4,164.0,2.0,100,53.0
1344,E-4,164.0,2.0,100,53.0
1345,B-3,164.0,2.0,100,53.0
1346,E-4,164.375,0.25,111,53.0
1347,F#2,164.5,0.25,127,53.0
1348,F4,164.625,0.125,111,53.0
1349,F#2,164.75,0.25,111,53.0
1350,G4,164.875,0.125,111,53.0
1351,D3,165.0,1.0,111,53.0
1352,G4,165.0,0.125,127,53.0
1353,D2,165.0,0.25,127,53.0
1354,F#2,165.0,0.25,127,53.0
1355,F4,165.125,0.125,127,53.0
1356,E-4,165.25,0.125,111,53.0
1357,F#2,165.25,0.25,111,53.0
1358,C4,165.375,0.125,127,53.0
1359,E-4,165.5,0.125,111,53.0
1360,F#2,165.5,0.25,111,53.0
1361,F4,165.625,0.125,111,53.0
1362,E-4,165.75,0.125,111,53.0
1363,F#2,165.75,0.25,127,53.0
1364,C4,165.875,0.125,127,53.0
1365,C3,166.0,1.0,127,53.0
1366,E-4,166.0,0.25,111,53.0
1367,B-4,166.0,2.0,111,53.0
1368,F#2,166.0,0.25,111,53.0
1369,B-4,166.0,2.0,87,53.0
1370,G4,166.0,2.0,87,53.0
1371,E-4,166.0,2.0,87,53.0
1372,C4,166.0,2.0,87,53.0
1373,F4,166.25,0.5,127,53.0
1374,F#2,166.25,0.25,127,53.0
1375,B-2,166.5,0.5,111,53.0
1376,F4,166.75,0.25,127,53.0
1377,B-2,167.0,1.0,111,53.0
1378,F4,167.0,0.5,111,53.0
1379,D2,167.0,0.25,119,53.0
1380,F#2,167.0,0.25,119,53.0
1381,F#2,167.25,0.25,111,53.0
1382,F4,167.5,0.125,127,53.0
1383,F#2,167.5,0.25,111,53.0
1384,E-4,167.625,0.125,111,53.0
1385,F#2,167.75,0.25,111,53.0
1386,C4,167.875,0.125,111,53.0
1387,G#2,168.0,2.0,111,53.0
1388,B-3,168.0,0.125,111,53.0
1389,C5,168.0,2.0,127,53.0
1390,F#2,168.0,0.5,111,53.0
1391,G#4,168.0,2.0,87,53.0
1392,F4,168.0,2.0,87,53.0
1393,E-4,168.0,2.0,87,53.0
1394,C4,168.0,2.0,87,53.0
1395,G#3,168.125,0.125,111,53.0
1396,F3,168.375,0.125,111,53.0
1397,C4,168.5,1.0,127,53.0
1398,F#2,168.5,0.25,127,53.0
1399,F#2,168.75,0.25,111,53.0
1400,D2,169.0,0.25,127,53.0
1401,F#2,169.0,0.25,127,53.0
1402,F#2,169.25,0.25,111,53.0
1403,B-3,169.5,0.125,111,53.0
1404,F#2,169.5,0.25,111,53.0
1405,F4,169.625,0.125,111,53.0
1406,B-4,169.75,0.125,111,53.0
1407,F#2,169.75,0.25,127,53.0
1408,C#5,169.875,0.125,111,53.0
1409,B-2,170.0,1.0,111,53.0
1410,B-4,170.0,0.75,127,53.0
1411,C#5,170.0,1.0,111,53.0
1412,F#2,170.0,0.25,111,53.0
1413,B-4,170.0,1.0,95,53.0
1414,G#4,170.0,1.0,95,53.0
1415,F4,170.0,1.0,95,53.0
1416,C#4,170.0,1.0,95,53.0
1417,F#2,170.25,0.25,127,53.0
1418,B-2,170.5,0.5,111,53.0
1419,G#4,170.75,0.5,111,53.0
1420,G2,171.0,1.0,111,53.0
1421,D5,171.0,1.0,111,53.0
1422,B3,171.0,1.0,95,53.0
1423,G4,171.0,1.0,95,53.0
1424,F4,171.0,1.0,95,53.0
1425,D4,171.0,1.0,95,53.0
1426,D2,171.0,0.25,119,53.0
1427,F#2,171.0,0.25,119,53.0
1428,G4,171.25,0.75,111,53.0
1429,F#2,171.25,0.25,111,53.0
1430,F#2,171.5,0.25,111,53.0
1431,F#2,171.75,0.25,111,53.0
1432,F#2,172.0,0.5,111,53.0
1433,D5,172.0,1.5,95,53.0
1434,B4,172.0,1.5,95,53.0
1435,G4,172.0,1.5,95,53.0
1436,G1,172.25,0.25,127,53.0
1437,G1,172.5,0.5,127,53.0
1438,F#2,172.5,0.25,127,53.0
1439,F#2,172.75,0.25,111,53.0
1440,G2,173.0,0.5,111,53.0
1441,D2,173.0,0.25,127,53.0
1442,F#2,173.0,0.25,127,53.0
1443,F#2,173.25,0.25,111,53.0
1444,G1,173.5,2.25,111,53.0
1445,G5,173.5,0.25,127,53.0
1446,G5,173.5,0.25,111,53.0
1447,F#2,173.5,0.25,111,53.0
1448,B5,173.75,0.25,127,53.0
1449,B5,173.75,0.25,127,53.0
1450,F#2,173.75,0.25,127,53.0
1451,D6,174.0,1.25,127,53.0
1452,D6,174.0,1.25,127,53.0
1453,F#2,174.0,0.25,111,53.0
1454,F#2,174.25,0.25,127,53.0
1455,B-2,174.5,0.5,111,53.0
1456,D2,175.0,0.25,119,53.0
1457,F#2,175.0,0.25,119,53.0
1458,G5,175.25,0.75,127,53.0
1459,F#2,175.25,0.25,111,53.0
1460,G5,175.25,0.75,103,53.0
1461,D5,175.25,0.75,103,53.0
1462,F#2,175.5,0.25,111,53.0
1463,G2,175.75,0.25,127,53.0
1464,F#2,175.75,0.25,111,53.0
1465,G2,176.0,0.5,127,53.0
1466,G5,176.0,1.0,111,53.0
1467,F#2,176.0,0.5,111,53.0
1468,G5,176.0,1.0,100,53.0
1469,E-5,176.0,1.0,100,53.0
1470,C5,176.0,1.0,100,53.0
1471,G1,176.5,0.25,127,53.0
1472,F#2,176.5,0.25,127,53.0
1473,G2,176.75,2.25,127,53.0
1474,F#2,176.75,0.25,111,53.0
1475,F5,177.0,0.5,127,53.0
1476,F5,177.0,0.5,100,53.0
1477,D5,177.0,0.5,100,53.0
1478,B-4,177.0,0.5,100,53.0
1479,D2,177.0,0.25,127,53.0
1480,F#2,177.0,0.25,127,53.0
1481,F#2,177.25,0.25,111,53.0
1482,E-5,177.5,0.75,111,53.0
1483,F#2,177.5,0.25,111,53.0
1484,E-5,177.5,0.75,95,53.0
1485,C5,177.5,0.75,95,53.0
1486,G#4,177.5,0.75,95,53.0
1487,F#2,177.75,0.25,127,53.0
1488,F#2,178.0,0.25,111,53.0
1489,G#4,178.25,0.75,127,53.0
1490,F#2,178.25,0.25,127,53.0
1491,G#4,178.25,0.75,100,53.0
1492,E-4,178.25,0.75,100,53.0
1493,C4,178.25,0.75,100,53.0
1494,B-2,178.5,0.5,111,53.0
1495,G4,179.0,667/1000,111,53.0
1496,G4,179.0,667/1000,95,53.0
1497,E-4,179.0,667/1000,95,53.0
1498,C4,179.0,667/1000,95,53.0
1499,D2,179.0,0.25,119,53.0
1500,F#2,179.0,0.25,119,53.0
1501,F#2,179.25,0.25,111,53.0
1502,F#2,179.5,0.25,111,53.0
1503,F4,179.667,333/1000,111,53.0
1504,F4,179.667,333/1000,95,53.0
1505,E-4,179.667,333/1000,95,53.0
1506,C4,179.667,333/1000,95,53.0
1507,F#2,179.75,0.25,111,53.0
1508,E-4,180.0,3.0,111,53.0
1509,F#2,180.0,0.5,111,53.0
1510,E-4,180.0,3.0,90,53.0
1511,C4,180.0,3.0,90,53.0
1512,G3,180.0,3.0,90,53.0
1513,F#2,180.5,0.25,127,53.0
1514,F#2,180.75,0.25,111,53.0
1515,D2,181.0,0.25,127,53.0
1516,F#2,181.0,0.25,127,53.0
1517,F#2,181.25,0.25,111,53.0
1518,F#2,181.5,0.25,111,53.0
1519,F#2,181.75,0.25,127,53.0
1520,F#2,182.0,0.25,111,53.0
1521,F#2,182.25,0.25,127,53.0
1522,B-2,182.5,0.5,111,53.0
1523,D2,183.0,0.25,119,53.0
1524,F#2,183.0,0.25,119,53.0
1525,F#2,183.25,0.25,111,53.0
1526,F#2,183.5,0.25,111,53.0
1527,G5,183.667,333/1000,127,53.0
1528,G5,183.667,333/1000,95,53.0
1529,E-5,183.667,333/1000,95,53.0
1530,C5,183.667,333/1000,95,53.0
1531,F#2,183.75,0.25,111,53.0
1532,F5,184.0,1.0,127,53.0
1533,F#2,184.0,0.5,111,53.0
1534,F5,184.0,1.0,90,53.0
1535,D5,184.0,1.0,90,53.0
1536,B-4,184.0,1.0,90,53.0
1537,F#2,184.5,0.25,127,53.0
1538,F#2,184.75,0.25,111,53.0
1539,B-4,185.0,1.0,111,53.0
1540,B-4,185.0,1.0,91,53.0
1541,G4,185.0,1.0,91,53.0
1542,F4,185.0,1.0,91,53.0
1543,D4,185.0,1.0,91,53.0
1544,D2,185.0,0.25,127,53.0
1545,F#2,185.0,0.25,127,53.0
1546,F#2,185.25,0.25,111,53.0
1547,F#2,185.5,0.25,111,53.0
1548,F#2,185.75,0.25,127,53.0
1549,C5,186.0,1.75,127,53.0
1550,F#2,186.0,0.25,111,53.0
1551,C5,186.0,1.75,99,53.0
1552,G#4,186.0,1.75,99,53.0
1553,F4,186.0,1.75,99,53.0
1554,E-4,186.0,1.75,99,53.0
1555,F#2,186.25,0.25,127,53.0
1556,B-2,186.5,0.5,111,53.0
1557,D2,187.0,0.25,119,53.0
1558,F#2,187.0,0.25,119,53.0
1559,F#2,187.25,0.25,111,53.0
1560,F#2,187.5,0.25,111,53.0
1561,E-5,187.75,0.25,127,53.0
1562,E-5,187.75,0.25,111,53.0
1563,F#2,187.75,0.25,111,53.0
1564,B-5,188.0,3.75,111,53.0
1565,F#2,188.0,0.5,111,53.0
1566,B-5,188.0,1.0,87,53.0
1567,F5,188.0,1.0,87,53.0
1568,E-5,188.0,1.0,87,53.0
1569,C5,188.0,1.0,87,53.0
1570,F#2,188.5,0.25,127,53.0
1571,F#2,188.75,0.25,111,53.0
1572,B-5,189.0,1.0,87,53.0
1573,F5,189.0,1.0,87,53.0
1574,E-5,189.0,1.0,87,53.0
1575,C5,189.0,1.0,87,53.0
1576,D2,189.0,0.25,127,53.0
1577,F#2,189.0,0.25,127,53.0
1578,F#2,189.25,0.25,111,53.0
1579,F#2,189.5,0.25,111,53.0
1580,F#2,189.75,0.25,127,53.0
1581,F#2,190.0,0.25,111,53.0
1582,B-5,190.0,1.0,91,53.0
1583,F5,190.0,1.0,91,53.0
1584,E-5,190.0,1.0,91,53.0
1585,C5,190.0,1.0,91,53.0
1586,F#2,190.25,0.25,127,53.0
1587,B-2,190.5,0.5,111,53.0
1588,B-5,191.0,667/1000,99,53.0
1589,F5,191.0,667/1000,99,53.0
1590,E-5,191.0,667/1000,99,53.0
1591,C5,191.0,667/1000,99,53.0
1592,D2,191.0,0.25,119,53.0
1593,F#2,191.0,0.25,119,53.0
1594,F#2,191.25,0.25,111,53.0
1595,F#2,191.5,0.25,111,53.0
1596,B-4,191.667,333/1000,95,53.0
1597,B-5,191.75,0.125,111,53.0
1598,F#2,191.75,0.25,111,53.0
1599,G5,191.875,0.125,127,53.0
1600,C6,192.0,1.75,111,53.0
1601,F#2,192.0,0.5,111,53.0
1602,G5,192.0,1.0,111,53.0
1603,E-5,192.0,1.0,111,53.0
1604,B-4,192.0,1.0,111,53.0
1605,C5,192.5,0.25,127,53.0
1606,F#2,192.5,0.25,127,53.0
1607,E-3,192.75,0.25,111,53.0
1608,B-4,192.75,0.25,111,53.0
1609,F#2,192.75,0.25,111,53.0
1610,D3,193.0,1.0,127,53.0
1611,G4,193.0,0.25,127,53.0
1612,F5,193.0,1.0,90,53.0
1613,E-5,193.0,1.0,90,53.0
1614,B-4,193.0,1.0,90,53.0
1615,D2,193.0,0.25,127,53.0
1616,F#2,193.0,0.25,127,53.0
1617,G4,193.25,0.25,111,53.0
1618,F#2,193.25,0.25,111,53.0
1619,G4,193.5,0.25,127,53.0
1620,F#2,193.5,0.25,111,53.0
1621,B-4,193.75,0.125,127,53.0
1622,B-5,193.75,0.25,111,53.0
1623,F#2,193.75,0.25,127,53.0
1624,G4,193.875,0.125,127,53.0
1625,C3,194.0,1.0,111,53.0
1626,G4,194.0,0.125,127,53.0
1627,E-6,194.0,1.75,111,53.0
1628,F#2,194.0,0.25,111,53.0
1629,E-5,194.0,1.0,83,53.0
1630,C5,194.0,1.0,83,53.0
1631,B-4,194.0,1.0,83,53.0
1632,G4,194.0,1.0,83,53.0
1633,B-4,194.125,0.125,127,53.0
1634,E-4,194.25,0.75,111,53.0
1635,F#2,194.25,0.25,127,53.0
1636,B-2,194.5,0.5,111,53.0
1637,B-2,195.0,1.0,111,53.0
1638,E-5,195.0,1.0,87,53.0
1639,C5,195.0,1.0,87,53.0
1640,B-4,195.0,1.0,87,53.0
1641,G4,195.0,1.0,87,53.0
1642,D2,195.0,0.25,119,53.0
1643,F#2,195.0,0.25,119,53.0
1644,F#2,195.25,0.25,111,53.0
1645,F#2,195.5,0.25,111,53.0
1646,C6,195.75,0.125,111,53.0
1647,F#2,195.75,0.25,111,53.0
1648,B-5,195.875,0.125,127,53.0
1649,G#2,196.0,1.75,111,53.0
1650,G5,196.0,1.75,127,53.0
1651,F#2,196.0,0.5,111,53.0
1652,C5,196.0,1.0,95,53.0
1653,G#4,196.0,1.0,95,53.0
1654,E-4,196.0,1.0,95,53.0
1655,E-4,196.25,0.25,111,53.0
1656,C5,196.5,0.5,127,53.0
1657,F#2,196.5,0.25,127,53.0
1658,F#2,196.75,0.25,111,53.0
1659,E-5,197.0,1.0,127,53.0
1660,G#4,197.0,1.0,95,53.0
1661,E-4,197.0,1.0,95,53.0
1662,C4,197.0,1.0,95,53.0
1663,D2,197.0,0.25,127,53.0
1664,F#2,197.0,0.25,127,53.0
1665,F#2,197.25,0.25,111,53.0
1666,F#2,197.5,0.25,111,53.0
1667,G#2,197.75,0.25,111,53.0
1668,G5,197.75,0.25,111,53.0
1669,F#2,197.75,0.25,127,53.0
1670,G2,198.0,0.75,111,53.0
1671,G5,198.0,1.0,127,53.0
1672,F#2,198.0,0.25,111,53.0
1673,B-5,198.0,1.75,103,53.0
1674,G5,198.0,1.75,103,53.0
1675,B-4,198.0,1.0,95,53.0
1676,G4,198.0,1.0,95,53.0
1677,F4,198.0,1.0,95,53.0
1678,D4,198.0,1.0,95,53.0
1679,F#2,198.25,0.25,127,53.0
1680,B-2,198.5,0.5,111,53.0
1681,D2,198.75,0.25,127,53.0
1682,G2,199.0,0.25,127,53.0
1683,E-5,199.0,1.0,95,53.0
1684,B-4,199.0,1.0,95,53.0
1685,G4,199.0,1.0,95,53.0
1686,D2,199.0,0.25,119,53.0
1687,F#2,199.0,0.25,119,53.0
1688,G2,199.25,0.75,127,53.0
1689,F5,199.25,0.5,127,53.0
1690,F#2,199.25,0.25,111,53.0
1691,F#2,199.5,0.25,111,53.0
1692,F5,199.75,0.125,127,53.0
1693,B-5,199.75,0.25,111,53.0
1694,F#2,199.75,0.25,111,53.0
1695,G5,199.875,0.125,127,53.0
1696,B-1,200.0,1.75,111,53.0
1697,G5,200.0,0.25,127,53.0
1698,C6,200.0,4.0,127,53.0
1699,F#2,200.0,0.5,111,53.0
1700,D5,200.0,2.0,95,53.0
1701,B-4,200.0,2.0,95,53.0
1702,F4,200.0,2.0,95,53.0
1703,F5,200.25,1.0,127,53.0
1704,F#2,200.5,0.25,127,53.0
1705,F#2,200.75,0.25,111,53.0
1706,D2,201.0,0.25,127,53.0
1707,F#2,201.0,0.25,127,53.0
1708,E-5,201.25,0.25,127,53.0
1709,F#2,201.25,0.25,111,53.0
1710,F#2,201.5,0.25,111,53.0
1711,B-1,201.75,0.25,111,53.0
1712,F#2,201.75,0.25,127,53.0
1713,G#1,202.0,2.0,111,53.0
1714,F#2,202.0,0.25,111,53.0
1715,C5,202.0,2.0,95,53.0
1716,G#4,202.0,2.0,95,53.0
1717,E-4,202.0,2.0,95,53.0
1718,F#2,202.25,0.25,127,53.0
1719,B-2,202.5,0.5,111,53.0
1720,D2,203.0,0.25,119,53.0
1721,F#2,203.0,0.25,119,53.0
1722,E-4,203.25,0.25,111,53.0
1723,F#2,203.25,0.25,111,53.0
1724,D5,203.5,0.25,127,53.0
1725,F#2,203.5,0.25,111,53.0
1726,E-5,203.75,0.25,127,53.0
1727,F#2,203.75,0.25,111,53.0
1728,G1,204.0,2.0,127,53.0
1729,B-4,204.0,2.0,111,53.0
1730,F#2,204.0,0.5,111,53.0
1731,B-5,204.0,2.0,100,53.0
1732,G5,204.0,2.0,100,53.0
1733,E-5,204.0,2.0,100,53.0
1734,B-4,204.0,1.25,106,53.0
1735,G4,204.0,1.25,106,53.0
1736,E-4,204.0,1.25,106,53.0
1737,F#2,204.5,0.25,127,53.0
1738,F#2,204.75,0.25,111,53.0
1739,D2,205.0,0.25,127,53.0
1740,F#2,205.0,0.25,127,53.0
1741,E-6,205.25,0.5,127,53.0
1742,F#2,205.25,0.25,111,53.0
1743,F#2,205.5,0.25,111,53.0
1744,E-6,205.75,0.25,127,53.0
1745,F#2,205.75,0.25,127,53.0
1746,C2,206.0,1.5,127,53.0
1747,F#2,206.0,0.25,111,53.0
1748,G5,206.0,1.0,107,53.0
1749,E-5,206.0,1.0,107,53.0
1750,C5,206.0,1.0,107,53.0
1751,B-4,206.0,1.0,107,53.0
1752,D6,206.0,1.0,115,53.0
1753,B-4,206.0,1.0,115,53.0
1754,G4,206.0,1.0,115,53.0
1755,E-4,206.0,1.0,115,53.0
1756,F#2,206.25,0.25,127,53.0
1757,B-2,206.5,0.5,111,53.0
1758,C6,207.0,1.0,111,53.0
1759,B-4,207.0,1.0,103,53.0
1760,G4,207.0,1.0,103,53.0
1761,D2,207.0,0.25,119,53.0
1762,F#2,207.0,0.25,119,53.0
1763,F#2,207.25,0.25,111,53.0
1764,C4,207.5,0.125,111,53.0
1765,F#2,207.5,0.25,111,53.0
1766,E-4,207.625,0.125,111,53.0
1767,B-1,207.667,333/1000,111,53.0
1768,G4,207.75,0.125,127,53.0
1769,F#2,207.75,0.25,111,53.0
1770,B-4,207.875,0.125,111,53.0
1771,G#1,208.0,2.0,111,53.0
1772,B-4,208.0,0.125,111,53.0
1773,F#2,208.0,0.5,111,53.0
1774,G#5,208.0,0.5,90,53.0
1775,E-5,208.0,0.5,90,53.0
1776,C5,208.0,0.5,90,53.0
1777,B-5,208.0,0.5,95,53.0
1778,G#5,208.0,0.5,95,53.0
1779,E-5,208.0,0.5,95,53.0
1780,C5,208.0,0.5,95,53.0
1781,B-4,208.125,0.875,127,53.0
1782,G#5,208.5,1.25,127,53.0
1783,F#2,208.5,0.25,127,53.0
1784,G#5,208.5,1.25,90,53.0
1785,E-5,208.5,1.25,90,53.0
1786,C5,208.5,1.25,90,53.0
1787,F#2,208.75,0.25,111,53.0
1788,C5,209.0,0.5,127,53.0
1789,D2,209.0,0.25,127,53.0
1790,F#2,209.0,0.25,127,53.0
1791,F#2,209.25,0.25,111,53.0
1792,F#2,209.5,0.25,111,53.0
1793,G5,209.75,0.25,127,53.0
1794,F#2,209.75,0.25,127,53.0
1795,G5,209.75,0.25,95,53.0
1796,E-5,209.75,0.25,95,53.0
1797,C5,209.75,0.25,95,53.0
1798,F1,210.0,2.0,127,53.0
1799,F#2,210.0,0.25,111,53.0
1800,F5,210.0,2.0,95,53.0
1801,E-5,210.0,2.0,95,53.0
1802,C5,210.0,2.0,95,53.0
1803,G#4,210.0,2.0,95,53.0
1804,F5,210.0,2.0,103,53.0
1805,E-5,210.0,2.0,103,53.0
1806,C5,210.0,2.0,103,53.0
1807,G#4,210.0,2.0,103,53.0
1808,C5,210.25,0.75,127,53.0
1809,F#2,210.25,0.25,127,53.0
1810,B-2,210.5,0.5,111,53.0
1811,C5,211.0,0.25,127,53.0
1812,D2,211.0,0.25,119,53.0
1813,F#2,211.0,0.25,119,53.0
1814,F5,211.25,0.5,127,53.0
1815,F#2,211.25,0.25,111,53.0
1816,F#2,211.5,0.25,111,53.0
1817,D5,211.75,0.25,127,53.0
1818,F#2,211.75,0.25,111,53.0
1819,G1,212.0,1.75,127,53.0
1820,B-4,212.0,2.0,111,53.0
1821,F#2,212.0,0.5,111,53.0
1822,B-4,212.0,2.0,95,53.0
1823,G4,212.0,2.0,95,53.0
1824,F4,212.0,2.0,95,53.0
1825,D4,212.0,2.0,95,53.0
1826,F5,212.0,2.0,79,53.0
1827,D5,212.0,2.0,79,53.0
1828,B-4,212.0,2.0,79,53.0
1829,G4,212.0,2.0,79,53.0
1830,F#2,212.5,0.25,127,53.0
1831,F#2,212.75,0.25,111,53.0
1832,D2,213.0,0.25,127,53.0
1833,F#2,213.0,0.25,127,53.0
1834,F#2,213.25,0.25,111,53.0
1835,F#2,213.5,0.25,111,53.0
1836,G1,213.75,0.25,127,53.0
1837,F#2,213.75,0.25,127,53.0
1838,C2,214.0,2.0,127,53.0
1839,D5,214.0,0.25,127,53.0
1840,F#2,214.0,0.25,111,53.0
1841,E-5,214.0,2.0,83,53.0
1842,C5,214.0,2.0,83,53.0
1843,B-4,214.0,2.0,83,53.0
1844,G4,214.0,2.0,83,53.0
1845,B-4,214.0,2.0,87,53.0
1846,G4,214.0,2.0,87,53.0
1847,E-4,214.0,2.0,87,53.0
1848,C4,214.0,2.0,87,53.0
1849,E-5,214.25,1.75,111,53.0
1850,F#2,214.25,0.25,127,53.0
1851,B-2,214.5,0.5,111,53.0
1852,D2,215.0,0.25,119,53.0
1853,F#2,215.0,0.25,119,53.0
1854,F#2,215.25,0.25,111,53.0
1855,F#2,215.5,0.25,111,53.0
1856,F#2,215.75,0.25,111,53.0
1857,G#1,216.0,2.0,111,53.0
1858,G4,216.0,0.125,111,53.0
1859,F#2,216.0,0.5,111,53.0
1860,C5,216.0,1.0,95,53.0
1861,G#4,216.0,1.0,95,53.0
1862,E-4,216.0,1.0,95,53.0
1863,G#4,216.0,1.0,95,53.0
1864,E-4,216.0,1.0,95,53.0
1865,C4,216.0,1.0,95,53.0
1866,B-4,216.125,0.125,111,53.0
1867,G#4,216.25,0.5,111,53.0
1868,F#2,216.5,0.25,127,53.0
1869,G#4,216.75,0.25,111,53.0
1870,F#2,216.75,0.25,111,53.0
1871,F5,217.0,2.0,127,53.0
1872,F5,217.0,3.0,106,53.0
1873,C5,217.0,3.0,106,53.0
1874,G#4,217.0,3.0,106,53.0
1875,C5,217.0,3.0,90,53.0
1876,G#4,217.0,3.0,90,53.0
1877,F4,217.0,3.0,90,53.0
1878,D2,217.0,0.25,127,53.0
1879,F#2,217.0,0.25,127,53.0
1880,F#2,217.25,0.25,111,53.0
1881,F#2,217.5,0.25,111,53.0
1882,F#2,217.75,0.25,127,53.0
1883,F#2,218.0,0.25,111,53.0
1884,F#2,218.25,0.25,127,53.0
1885,B-2,218.5,0.5,111,53.0
1886,D2,219.0,0.25,119,53.0
1887,F#2,219.0,0.25,119,53.0
1888,F#2,219.25,0.25,111,53.0
1889,F#2,219.5,0.25,111,53.0
1890,C5,219.75,0.25,127,53.0
1891,F#2,219.75,0.25,111,53.0
1892,E-5,220.0,0.75,127,53.0
1893,F#2,220.0,0.5,111,53.0
1894,C5,220.0,2.0,90,53.0
1895,G#4,220.0,2.0,90,53.0
1896,F4,220.0,2.0,90,53.0
1897,E-5,220.0,2.0,100,53.0
1898,C5,220.0,2.0,100,53.0
1899,G#4,220.0,2.0,100,53.0
1900,F#2,220.5,0.25,127,53.0
1901,C5,220.75,0.25,127,53.0
1902,F#2,220.75,0.25,111,53.0
1903,B-4,221.0,3.0,127,53.0
1904,D2,221.0,0.25,127,53.0
1905,F#2,221.0,0.25,127,53.0
1906,F#2,221.25,0.25,111,53.0
1907,F#2,221.5,0.25,111,53.0
1908,F#2,221.75,0.25,127,53.0
1909,F#2,222.0,0.25,111,53.0
1910,F5,222.0,1.5,100,53.0
1911,D5,222.0,1.5,100,53.0
1912,B-4,222.0,1.5,100,53.0
1913,F5,222.0,2.0,106,53.0
1914,D5,222.0,2.0,106,53.0
1915,B-4,222.0,2.0,106,53.0
1916,F#2,222.25,0.25,127,53.0
1917,B-2,222.5,0.5,111,53.0
1918,D2,223.0,0.25,119,53.0
1919,F#2,223.0,0.25,119,53.0
1920,F#2,223.25,0.25,111,53.0
1921,F#2,223.5,0.25,111,53.0
1922,G5,223.667,333/1000,111,53.0
1923,F2,223.75,0.25,127,53.0
1924,F#2,223.75,0.25,111,53.0
1925,E-2,224.0,0.75,111,53.0
1926,B-2,224.0,1.0,95,53.0
1927,E-5,224.0,1.0,87,53.0
1928,C5,224.0,1.0,87,53.0
1929,B-4,224.0,1.0,87,53.0
1930,G4,224.0,1.0,87,53.0
1931,C2,224.75,0.25,111,53.0
1932,E-2,225.0,0.5,111,53.0
1933,E-5,225.0,1.0,91,53.0
1934,C5,225.0,1.0,91,53.0
1935,B-4,225.0,1.0,91,53.0
1936,G4,225.0,1.0,91,53.0
1937,D2,225.0,1.0,119,53.0
1938,B-2,225.0,1.0,119,53.0
1939,F2,225.75,0.125,127,53.0
1940,G2,225.875,0.125,127,53.0
1941,F2,226.0,0.5,111,53.0
1942,F#2,226.0,1.0,111,53.0
1943,F5,226.0,1.0,106,53.0
1944,C5,226.0,1.0,106,53.0
1945,G#4,226.0,1.0,106,53.0
1946,G#2,226.5,1.0,111,53.0
1947,E-5,227.0,1.0,106,53.0
1948,C5,227.0,1.0,106,53.0
1949,G#4,227.0,1.0,106,53.0
1950,D2,227.0,1.0,111,53.0
1951,F#2,227.0,1.0,111,53.0
1952,E-2,227.75,0.125,127,53.0
1953,F2,227.875,0.125,111,53.0
1954,E-2,228.0,0.75,111,53.0
1955,F#2,228.0,1.0,127,53.0
1956,E-5,228.0,1.0,87,53.0
1957,C5,228.0,1.0,87,53.0
1958,B-4,228.0,1.0,87,53.0
1959,G4,228.0,1.0,87,53.0
1960,C2,228.75,0.25,127,53.0
1961,E-2,229.0,0.5,111,53.0
1962,E-5,229.0,1.0,91,53.0
1963,C5,229.0,1.0,91,53.0
1964,B-4,229.0,1.0,91,53.0
1965,G4,229.0,1.0,91,53.0
1966,D2,229.0,1.0,127,53.0
1967,F#2,229.0,1.0,127,53.0
1968,F2,229.75,0.125,127,53.0
1969,G2,229.875,0.125,127,53.0
1970,F2,230.0,0.5,111,53.0
1971,F#2,230.0,667/1000,111,53.0
1972,F5,230.0,1.0,106,53.0
1973,C5,230.0,1.0,106,53.0
1974,G#4,230.0,1.0,106,53.0
1975,C3,230.5,1.0,95,53.0
1976,B-2,230.667,333/1000,111,53.0
1977,E-5,231.0,1.0,106,53.0
1978,C5,231.0,1.0,106,53.0
1979,G#4,231.0,1.0,106,53.0
1980,C6,231.0,1.0,99,53.0
1981,G#5,231.0,1.0,99,53.0
1982,G5,231.0,1.0,99,53.0
1983,E-5,231.0,1.0,99,53.0
1984,D2,231.0,0.25,119,53.0
1985,F#2,231.0,0.25,119,53.0
1986,B-2,231.25,0.5,111,53.0
1987,E-2,231.75,0.125,95,53.0
1988,F#2,231.75,0.25,127,53.0
1989,F2,231.875,0.125,111,53.0
1990,E-2,232.0,0.75,127,53.0
1991,E-4,232.0,0.75,111,53.0
1992,F#2,232.0,1.0,127,53.0
1993,E-5,232.0,1.0,87,53.0
1994,C5,232.0,1.0,87,53.0
1995,B-4,232.0,1.0,87,53.0
1996,G4,232.0,1.0,87,53.0
1997,C2,232.75,0.25,127,53.0
1998,C4,232.75,0.25,111,53.0
1999,E-2,233.0,0.5,111,53.0
2000,E-4,233.0,0.5,111,53.0
2001,E-5,233.0,1.0,91,53.0
2002,C5,233.0,1.0,91,53.0
2003,B-4,233.0,1.0,91,53.0
2004,G4,233.0,1.0,91,53.0
2005,D2,233.0,1.0,127,53.0
2006,F#2,233.0,1.0,127,53.0
2007,F2,233.75,0.125,127,53.0
2008,F4,233.75,0.125,127,53.0
2009,G2,233.875,0.125,127,53.0
2010,G4,233.875,0.125,111,53.0
2011,F2,234.0,667/1000,127,53.0
2012,F4,234.0,667/1000,127,53.0
2013,F#2,234.0,667/1000,111,53.0
2014,F5,234.0,1.0,106,53.0
2015,C5,234.0,1.0,106,53.0
2016,G#4,234.0,1.0,106,53.0
2017,B-2,234.667,333/1000,111,53.0
2018,C5,234.667,333/1000,127,53.0
2019,B-2,234.667,333/1000,111,53.0
2020,F2,235.0,0.75,127,53.0
2021,F5,235.0,0.75,127,53.0
2022,E-5,235.0,1.0,106,53.0
2023,C5,235.0,1.0,106,53.0
2024,G#4,235.0,1.0,106,53.0
2025,D2,235.0,0.25,119,53.0
2026,F#2,235.0,0.25,119,53.0
2027,B-2,235.25,0.5,111,53.0
2028,G#1,235.75,0.25,111,53.0
2029,D5,235.75,0.125,127,53.0
2030,C6,235.75,0.125,111,53.0
2031,F#2,235.75,0.25,127,53.0
2032,C5,235.875,0.125,111,53.0
2033,B-5,235.875,0.125,127,53.0
2034,G2,236.0,2.0,127,53.0
2035,B-4,236.0,3.0,127,53.0
2036,F#2,236.0,1.0,127,53.0
2037,B-5,236.0,0.75,95,53.0
2038,F5,236.0,0.75,95,53.0
2039,D5,236.0,0.75,95,53.0
2040,B-4,236.0,0.75,95,53.0
2041,G4,236.0,0.75,95,53.0
2042,C6,236.75,0.25,127,53.0
2043,B-5,237.0,1.0,111,53.0
2044,D2,237.0,1.0,127,53.0
2045,F#2,237.0,1.0,127,53.0
2046,C3,238.0,2.0,127,53.0
2047,F#2,238.0,667/1000,111,53.0
2048,E-5,238.0,1.75,87,53.0
2049,C5,238.0,1.75,87,53.0
2050,B-4,238.0,1.75,87,53.0
2051,G4,238.0,1.75,87,53.0
2052,B-2,238.667,333/1000,111,53.0
2053,D2,239.0,0.25,119,53.0
2054,F#2,239.0,0.25,119,53.0
2055,B-2,239.25,0.5,111,53.0
2056,E-4,239.75,0.125,111,53.0
2057,B-5,239.75,0.25,111,53.0
2058,F#2,239.75,0.25,127,53.0
2059,C4,239.875,0.125,119,53.0
2060,F3,239.875,0.125,119,53.0
2061,C#2,240.0,3.75,111,53.0
2062,F3,240.0,667/1000,111,53.0
2063,E-6,240.0,0.25,95,53.0
2064,F5,240.0,0.25,95,53.0
2065,C#5,240.0,0.25,95,53.0
2066,G#4,240.0,0.25,95,53.0
2067,C2,240.0,667/1000,127,53.0
2068,F#2,240.0,667/1000,127,53.0
2069,E-6,240.25,0.75,127,53.0
2070,G#3,240.667,333/1000,111,53.0
2071,F#2,240.667,333/1000,79,53.0
2072,G#3,241.0,2.0,127,53.0
2073,G#5,241.0,0.75,111,53.0
2074,D2,241.0,0.5,87,53.0
2075,F#2,241.0,0.5,87,53.0
2076,C2,241.5,0.25,103,53.0
2077,F#2,241.5,0.25,103,53.0
2078,C2,241.75,0.25,127,53.0
2079,E-5,241.75,2.0,100,53.0
2080,C5,241.75,2.0,100,53.0
2081,G#4,241.75,2.0,100,53.0
2082,C2,242.0,0.5,119,53.0
2083,F#2,242.0,0.5,119,53.0
2084,F#2,242.5,0.25,111,53.0
2085,F#2,242.75,0.25,111,53.0
2086,D2,243.0,1.0,111,53.0
2087,F#2,243.0,1.0,111,53.0
2088,G#2,243.75,0.125,111,53.0
2089,B-5,243.75,0.125,111,53.0
2090,B-2,243.875,0.125,111,53.0
2091,G#5,243.875,0.125,111,53.0
2092,E-2,244.0,3.75,127,53.0
2093,G3,244.0,3.0,127,53.0
2094,C6,244.0,667/1000,95,53.0
2095,E-5,244.0,667/1000,95,53.0
2096,B-4,244.0,667/1000,95,53.0
2097,G4,244.0,667/1000,95,53.0
2098,C2,244.0,667/1000,127,53.0
2099,F#2,244.0,667/1000,127,53.0
2100,B-5,244.667,333/1000,111,53.0
2101,F#2,244.667,333/1000,79,53.0
2102,B-5,245.0,2.0,127,53.0
2103,D2,245.0,0.5,87,53.0
2104,F#2,245.0,0.5,87,53.0
2105,C2,245.5,0.25,103,53.0
2106,F#2,245.5,0.25,103,53.0
2107,C2,245.75,0.25,127,53.0
2108,C2,246.0,0.5,119,53.0
2109,F#2,246.0,0.5,119,53.0
2110,F#2,246.5,0.25,111,53.0
2111,F#2,246.75,0.25,111,53.0
2112,D2,247.0,1.0,111,53.0
2113,F#2,247.0,1.0,111,53.0
2114,B-2,247.75,0.125,127,53.0
2115,B-5,247.75,0.125,127,53.0
2116,G#2,247.875,0.125,111,53.0
2117,G5,247.875,0.125,127,53.0
2118,C#2,248.0,3.75,111,53.0
2119,F3,248.0,3.0,127,53.0
2120,E-6,248.0,0.75,103,53.0
2121,F5,248.0,0.75,103,53.0
2122,C#5,248.0,0.75,103,53.0
2123,G#4,248.0,0.75,103,53.0
2124,C2,248.0,667/1000,127,53.0
2125,F#2,248.0,667/1000,127,53.0
2126,F#2,248.667,333/1000,79,53.0
2127,G#5,248.75,0.25,111,53.0
2128,G#5,249.0,2.0,111,53.0
2129,D2,249.0,0.5,87,53.0
2130,F#2,249.0,0.5,87,53.0
2131,C2,249.5,0.25,103,53.0
2132,F#2,249.5,0.25,103,53.0
2133,C2,249.75,0.25,127,53.0
2134,C2,250.0,0.5,119,53.0
2135,F#2,250.0,0.5,119,53.0
2136,F#2,250.5,0.25,111,53.0
2137,F#2,250.75,0.25,111,53.0
2138,D2,251.0,1.0,111,53.0
2139,F#2,251.0,1.0,111,53.0
2140,B-5,251.5,0.125,111,53.0
2141,G5,251.625,0.125,111,53.0
2142,G#2,251.75,0.125,111,53.0
2143,E-6,251.75,0.125,111,53.0
2144,B-2,251.875,0.125,111,53.0
2145,D6,251.875,0.125,127,53.0
2146,E-2,252.0,3.75,127,53.0
2147,G3,252.0,3.0,127,53.0
2148,B-5,252.0,0.75,91,53.0
2149,E-5,252.0,0.75,91,53.0
2150,B-4,252.0,0.75,91,53.0
2151,G4,252.0,0.75,91,53.0
2152,C2,252.0,667/1000,127,53.0
2153,F#2,252.0,667/1000,127,53.0
2154,F#2,252.667,333/1000,79,53.0
2155,C6,252.75,0.25,111,53.0
2156,B-5,253.0,2.0,111,53.0
2157,D2,253.0,0.5,87,53.0
2158,F#2,253.0,0.5,87,53.0
2159,C2,253.5,0.25,103,53.0
2160,F#2,253.5,0.25,103,53.0
2161,C2,253.75,0.25,127,53.0
2162,C2,254.0,0.5,119,53.0
2163,F#2,254.0,0.5,119,53.0
2164,F#2,254.5,0.25,111,53.0
2165,F#2,254.75,0.25,111,53.0
2166,D2,255.0,1.0,111,53.0
2167,F#2,255.0,1.0,111,53.0
2168,B-5,255.5,0.125,111,53.0
2169,E-6,255.625,0.125,127,53.0
2170,B-2,255.75,0.125,127,53.0
2171,G5,255.75,0.125,111,53.0
2172,G#2,255.875,0.125,111,53.0
2173,E-6,255.875,0.125,127,53.0
2174,C#2,256.0,3.75,111,53.0
2175,F3,256.0,3.0,127,53.0
2176,G#5,256.0,2.0,111,53.0
2177,F5,256.0,2.375,100,53.0
2178,C#5,256.0,2.375,100,53.0
2179,G#4,256.0,2.375,100,53.0
2180,C2,256.0,667/1000,127,53.0
2181,F#2,256.0,667/1000,127,53.0
2182,F#2,256.667,333/1000,79,53.0
2183,D2,257.0,0.5,87,53.0
2184,F#2,257.0,0.5,87,53.0
2185,C2,257.5,0.25,103,53.0
2186,F#2,257.5,0.25,103,53.0
2187,C2,257.75,0.25,127,53.0
2188,C2,258.0,0.5,119,53.0
2189,F#2,258.0,0.5,119,53.0
2190,E-5,258.375,0.125,111,53.0
2191,G5,258.5,0.125,127,53.0
2192,F#2,258.5,0.25,111,53.0
2193,B-5,258.625,0.25,111,53.0
2194,F#2,258.75,0.25,111,53.0
2195,E-5,258.875,0.125,111,53.0
2196,G5,259.0,0.125,127,53.0
2197,D2,259.0,1.0,111,53.0
2198,F#2,259.0,1.0,111,53.0
2199,B-5,259.125,0.25,127,53.0
2200,E-5,259.375,0.125,111,53.0
2201,B-5,259.5,0.125,111,53.0
2202,E-6,259.625,0.125,111,53.0
2203,G#2,259.75,0.125,111,53.0
2204,F6,259.75,0.125,111,53.0
2205,B-2,259.875,0.125,111,53.0
2206,E-6,259.875,0.125,111,53.0
2207,E-2,260.0,3.75,127,53.0
2208,G3,260.0,3.0,127,53.0
2209,F6,260.0,0.5,95,53.0
2210,E-5,260.0,0.5,95,53.0
2211,B-4,260.0,0.5,95,53.0
2212,G4,260.0,0.5,95,53.0
2213,C2,260.0,667/1000,127,53.0
2214,F#2,260.0,667/1000,127,53.0
2215,F6,260.5,0.125,127,53.0
2216,E-6,260.625,0.125,111,53.0
2217,F#2,260.667,333/1000,79,53.0
2218,F6,260.75,0.125,127,53.0
2219,E-6,260.875,0.125,111,53.0
2220,F6,261.0,0.5,127,53.0
2221,D2,261.0,0.5,87,53.0
2222,F#2,261.0,0.5,87,53.0
2223,F6,261.5,0.125,127,53.0
2224,C2,261.5,0.25,103,53.0
2225,F#2,261.5,0.25,103,53.0
2226,E-6,261.625,0.125,111,53.0
2227,F6,261.75,0.125,127,53.0
2228,C2,261.75,0.25,127,53.0
2229,E-6,261.875,0.125,111,53.0
2230,F6,262.0,0.5,111,53.0
2231,C2,262.0,0.5,119,53.0
2232,F#2,262.0,0.5,119,53.0
2233,F6,262.5,0.125,127,53.0
2234,F#2,262.5,0.25,111,53.0
2235,E-6,262.625,0.125,111,53.0
2236,F6,262.75,0.125,127,53.0
2237,F#2,262.75,0.25,111,53.0
2238,E-6,262.875,0.125,111,53.0
2239,F6,263.0,0.5,111,53.0
2240,D2,263.0,1.0,111,53.0
2241,F#2,263.0,1.0,111,53.0
2242,F6,263.5,0.125,127,53.0
2243,E-6,263.625,0.125,95,53.0
2244,B-2,263.75,0.125,127,53.0
2245,F6,263.75,0.125,111,53.0
2246,G#2,263.875,0.125,111,53.0
2247,E-6,263.875,0.125,127,53.0
2248,C#2,264.0,3.75,111,53.0
2249,F3,264.0,3.0,127,53.0
2250,G#5,264.0,2.0,111,53.0
2251,F5,264.0,2.375,100,53.0
2252,C#5,264.0,2.375,100,53.0
2253,G#4,264.0,2.375,100,53.0
2254,C2,264.0,667/1000,127,53.0
2255,F#2,264.0,667/1000,127,53.0
2256,F#2,264.667,333/1000,79,53.0
2257,D2,265.0,0.5,87,53.0
2258,F#2,265.0,0.5,87,53.0
2259,C2,265.5,0.25,103,53.0
2260,F#2,265.5,0.25,103,53.0
2261,C2,265.75,0.25,127,53.0
2262,C2,266.0,0.5,119,53.0
2263,F#2,266.0,0.5,119,53.0
2264,E-5,266.375,0.125,111,53.0
2265,G5,266.5,0.125,127,53.0
2266,F#2,266.5,0.25,111,53.0
2267,B-5,266.625,0.25,111,53.0
2268,F#2,266.75,0.25,111,53.0
2269,E-5,266.875,0.125,111,53.0
2270,G5,267.0,0.125,127,53.0
2271,D2,267.0,1.0,111,53.0
2272,F#2,267.0,1.0,111,53.0
2273,B-5,267.125,0.25,127,53.0
2274,E-5,267.375,0.125,111,53.0
2275,B-5,267.5,0.125,111,53.0
2276,E-6,267.625,0.125,111,53.0
2277,G#2,267.75,0.125,111,53.0
2278,F6,267.75,0.125,111,53.0
2279,B-2,267.875,0.125,111,53.0
2280,E-6,267.875,0.125,111,53.0
2281,E-2,268.0,3.75,127,53.0
2282,G3,268.0,3.0,127,53.0
2283,F6,268.0,0.5,95,53.0
2284,E-5,268.0,0.5,95,53.0
2285,B-4,268.0,0.5,95,53.0
2286,G4,268.0,0.5,95,53.0
2287,C2,268.0,667/1000,127,53.0
2288,F#2,268.0,667/1000,127,53.0
2289,F6,268.5,0.125,127,53.0
2290,E-6,268.625,0.125,111,53.0
2291,F#2,268.667,333/1000,79,53.0
2292,F6,268.75,0.125,127,53.0
2293,E-6,268.875,0.125,111,53.0
2294,F6,269.0,0.5,127,53.0
2295,D2,269.0,0.5,87,53.0
2296,F#2,269.0,0.5,87,53.0
2297,F6,269.5,0.125,127,53.0
2298,C2,269.5,0.25,103,53.0
2299,F#2,269.5,0.25,103,53.0
2300,E-6,269.625,0.125,111,53.0
2301,F6,269.75,0.125,127,53.0
2302,C2,269.75,0.25,127,53.0
2303,E-6,269.875,0.125,111,53.0
2304,F6,270.0,0.5,111,53.0
2305,C2,270.0,0.5,119,53.0
2306,F#2,270.0,0.5,119,53.0
2307,F6,270.5,0.125,127,53.0
2308,F#2,270.5,0.25,111,53.0
2309,E-6,270.625,0.125,111,53.0
2310,F6,270.75,0.125,127,53.0
2311,F#2,270.75,0.25,111,53.0
2312,E-6,270.875,0.125,111,53.0
2313,F6,271.0,0.5,111,53.0
2314,D2,271.0,1.0,111,53.0
2315,F#2,271.0,1.0,111,53.0
2316,F6,271.5,0.125,127,53.0
2317,E-6,271.625,0.125,95,53.0
2318,B-2,271.75,0.125,127,53.0
2319,F6,271.75,0.125,111,53.0
2320,G#2,271.875,0.125,111,53.0
2321,E-6,271.875,0.125,127,53.0
2322,G#5,272.0,2.0,111,53.0
2323,F2,272.0,3.0,103,53.0
2324,C#2,272.0,3.0,103,53.0
2325,F5,272.0,2.375,100,53.0
2326,C#5,272.0,2.375,100,53.0
2327,G#4,272.0,2.375,100,53.0
2328,C2,272.0,667/1000,127,53.0
2329,F#2,272.0,667/1000,127,53.0
2330,F#2,272.667,333/1000,79,53.0
2331,D2,273.0,0.5,87,53.0
2332,F#2,273.0,0.5,87,53.0
2333,C2,273.5,0.25,103,53.0
2334,F#2,273.5,0.25,103,53.0
2335,C2,273.75,0.25,127,53.0
2336,C2,274.0,0.5,119,53.0
2337,F#2,274.0,0.5,119,53.0
2338,E-5,274.375,0.125,111,53.0
2339,G5,274.5,0.125,127,53.0
2340,F#2,274.5,0.25,111,53.0
2341,B-5,274.625,0.25,111,53.0
2342,F#2,274.75,0.25,111,53.0
2343,E-5,274.875,0.125,111,53.0
2344,G5,275.0,0.125,127,53.0
2345,F2,275.0,1.0,103,53.0
2346,C#2,275.0,1.0,103,53.0
2347,D2,275.0,1.0,111,53.0
2348,F#2,275.0,1.0,111,53.0
2349,B-5,275.125,0.25,127,53.0
2350,E-5,275.375,0.125,111,53.0
2351,B-5,275.5,0.125,111,53.0
2352,E-6,275.625,0.125,111,53.0
2353,F6,275.75,0.125,111,53.0
2354,E-6,275.875,0.125,111,53.0
2355,G2,276.0,2.0,103,53.0
2356,E-2,276.0,2.0,103,53.0
2357,F6,276.0,0.5,95,53.0
2358,E-5,276.0,0.5,95,53.0
2359,B-4,276.0,0.5,95,53.0
2360,G4,276.0,0.5,95,53.0
2361,C2,276.0,667/1000,127,53.0
2362,F#2,276.0,667/1000,127,53.0
2363,F6,276.5,0.125,127,53.0
2364,E-6,276.625,0.125,111,53.0
2365,F#2,276.667,333/1000,79,53.0
2366,F6,276.75,0.125,127,53.0
2367,E-6,276.875,0.125,111,53.0
2368,F6,277.0,0.5,127,53.0
2369,D2,277.0,0.5,87,53.0
2370,F#2,277.0,0.5,87,53.0
2371,F6,277.5,0.125,127,53.0
2372,C2,277.5,0.25,103,53.0
2373,F#2,277.5,0.25,103,53.0
2374,E-6,277.625,0.125,111,53.0
2375,F6,277.75,0.125,127,53.0
2376,C2,277.75,0.25,127,53.0
2377,E-6,277.875,0.125,111,53.0
2378,F6,278.0,0.5,111,53.0
2379,G2,278.0,1.25,103,53.0
2380,E-2,278.0,1.25,103,53.0
2381,C2,278.0,0.5,119,53.0
2382,F#2,278.0,0.5,119,53.0
2383,F6,278.5,0.125,127,53.0
2384,F#2,278.5,0.25,111,53.0
2385,E-6,278.625,0.125,111,53.0
2386,F6,278.75,0.125,127,53.0
2387,F#2,278.75,0.25,111,53.0
2388,E-6,278.875,0.125,111,53.0
2389,F6,279.0,0.5,111,53.0
2390,D2,279.0,1.0,111,53.0
2391,F#2,279.0,1.0,111,53.0
2392,G2,279.25,0.75,111,53.0
2393,E-2,279.25,0.75,111,53.0
2394,F6,279.5,0.125,127,53.0
2395,E-6,279.625,0.125,95,53.0
2396,F6,279.75,0.125,111,53.0
2397,E-6,279.875,0.125,127,53.0
2398,G#5,280.0,2.0,111,53.0
2399,F2,280.0,3.0,103,53.0
2400,C#2,280.0,3.0,103,53.0
2401,F5,280.0,2.375,100,53.0
2402,C#5,280.0,2.375,100,53.0
2403,G#4,280.0,2.375,100,53.0
2404,C2,280.0,667/1000,127,53.0
2405,F#2,280.0,667/1000,127,53.0
2406,F#2,280.667,333/1000,79,53.0
2407,D2,281.0,0.5,87,53.0
2408,F#2,281.0,0.5,87,53.0
2409,C2,281.5,0.25,103,53.0
2410,F#2,281.5,0.25,103,53.0
2411,C2,281.75,0.25,127,53.0
2412,C2,282.0,0.5,119,53.0
2413,F#2,282.0,0.5,119,53.0
2414,E-5,282.375,0.125,111,53.0
2415,G5,282.5,0.125,127,53.0
2416,F#2,282.5,0.25,111,53.0
2417,B-5,282.625,0.25,111,53.0
2418,F#2,282.75,0.25,111,53.0
2419,E-5,282.875,0.125,111,53.0
2420,G5,283.0,0.125,127,53.0
2421,F2,283.0,1.0,103,53.0
2422,C#2,283.0,1.0,103,53.0
2423,D2,283.0,1.0,111,53.0
2424,F#2,283.0,1.0,111,53.0
2425,B-5,283.125,0.25,127,53.0
2426,E-5,283.375,0.125,111,53.0
2427,B-5,283.5,0.125,111,53.0
2428,E-6,283.625,0.125,111,53.0
2429,F6,283.75,0.125,111,53.0
2430,E-6,283.875,0.125,111,53.0
2431,G2,284.0,2.0,103,53.0
2432,E-2,284.0,2.0,103,53.0
2433,F6,284.0,0.5,95,53.0
2434,E-5,284.0,0.5,95,53.0
2435,B-4,284.0,0.5,95,53.0
2436,G4,284.0,0.5,95,53.0
2437,C2,284.0,667/1000,127,53.0
2438,F#2,284.0,667/1000,127,53.0
2439,F6,284.5,0.125,127,53.0
2440,E-6,284.625,0.125,111,53.0
2441,F#2,284.667,333/1000,79,53.0
2442,F6,284.75,0.125,127,53.0
2443,E-6,284.875,0.125,111,53.0
2444,F6,285.0,0.5,127,53.0
2445,D2,285.0,0.5,87,53.0
2446,F#2,285.0,0.5,87,53.0
2447,F6,285.5,0.125,127,53.0
2448,C2,285.5,0.25,103,53.0
2449,F#2,285.5,0.25,103,53.0
2450,E-6,285.625,0.125,111,53.0
2451,F6,285.75,0.125,127,53.0
2452,C2,285.75,0.25,127,53.0
2453,E-6,285.875,0.125,111,53.0
2454,F6,286.0,0.5,111,53.0
2455,G2,286.0,1.25,103,53.0
2456,E-2,286.0,1.25,103,53.0
2457,C2,286.0,0.5,119,53.0
2458,F#2,286.0,0.5,119,53.0
2459,F6,286.5,0.125,127,53.0
2460,F#2,286.5,0.25,111,53.0
2461,E-6,286.625,0.125,111,53.0
2462,F6,286.75,0.125,127,53.0
2463,F#2,286.75,0.25,111,53.0
2464,E-6,286.875,0.125,111,53.0
2465,F6,287.0,0.5,111,53.0
2466,D2,287.0,1.0,111,53.0
2467,F#2,287.0,1.0,111,53.0
2468,G2,287.25,0.75,111,53.0
2469,E-2,287.25,0.75,111,53.0
2470,F6,287.5,0.125,127,53.0
2471,E-6,287.625,0.125,95,53.0
2472,F6,287.75,0.125,111,53.0
2473,E-6,287.875,0.125,127,53.0
2474,G#5,288.0,2.0,111,53.0
2475,F2,288.0,3.0,103,53.0
2476,C#2,288.0,3.0,103,53.0
2477,F5,288.0,2.375,100,53.0
2478,C#5,288.0,2.375,100,53.0
2479,G#4,288.0,2.375,100,53.0
2480,C2,288.0,667/1000,127,53.0
2481,F#2,288.0,667/1000,127,53.0
2482,F#2,288.667,333/1000,79,53.0
2483,D2,289.0,0.5,87,53.0
2484,F#2,289.0,0.5,87,53.0
2485,C2,289.5,0.25,103,53.0
2486,F#2,289.5,0.25,103,53.0
2487,C2,289.75,0.25,127,53.0
2488,C2,290.0,0.5,119,53.0
2489,F#2,290.0,0.5,119,53.0
2490,E-5,290.375,0.125,111,53.0
2491,G5,290.5,0.125,127,53.0
2492,F#2,290.5,0.25,111,53.0
2493,B-5,290.625,0.25,111,53.0
2494,F#2,290.75,0.25,111,53.0
2495,E-5,290.875,0.125,111,53.0
2496,G5,291.0,0.125,127,53.0
2497,F2,291.0,1.0,103,53.0
2498,C#2,291.0,1.0,103,53.0
2499,D2,291.0,1.0,111,53.0
2500,F#2,291.0,1.0,111,53.0
2501,B-5,291.125,0.25,127,53.0
2502,E-5,291.375,0.125,111,53.0
2503,B-5,291.5,0.125,111,53.0
2504,E-6,291.625,0.125,111,53.0
2505,F6,291.75,0.125,111,53.0
2506,E-6,291.875,0.125,111,53.0
2507,G2,292.0,2.0,103,53.0
2508,E-2,292.0,2.0,103,53.0
2509,F6,292.0,0.5,95,53.0
2510,E-5,292.0,0.5,95,53.0
2511,B-4,292.0,0.5,95,53.0
2512,G4,292.0,0.5,95,53.0
2513,C2,292.0,667/1000,127,53.0
2514,F#2,292.0,667/1000,127,53.0
2515,F6,292.5,0.125,127,53.0
2516,E-6,292.625,0.125,111,53.0
2517,F#2,292.667,333/1000,79,53.0
2518,F6,292.75,0.125,127,53.0
2519,E-6,292.875,0.125,111,53.0
2520,F6,293.0,0.5,127,53.0
2521,D2,293.0,0.5,87,53.0
2522,F#2,293.0,0.5,87,53.0
2523,F6,293.5,0.125,127,53.0
2524,C2,293.5,0.25,103,53.0
2525,F#2,293.5,0.25,103,53.0
2526,E-6,293.625,0.125,111,53.0
2527,F6,293.75,0.125,127,53.0
2528,C2,293.75,0.25,127,53.0
2529,E-6,293.875,0.125,111,53.0
2530,F6,294.0,0.5,111,53.0
2531,G2,294.0,1.25,103,53.0
2532,E-2,294.0,1.25,103,53.0
2533,C2,294.0,0.5,119,53.0
2534,F#2,294.0,0.5,119,53.0
2535,F6,294.5,0.125,127,53.0
2536,F#2,294.5,0.25,111,53.0
2537,E-6,294.625,0.125,111,53.0
2538,F6,294.75,0.125,127,53.0
2539,F#2,294.75,0.25,111,53.0
2540,E-6,294.875,0.125,111,53.0
2541,F6,295.0,0.5,111,53.0
2542,D2,295.0,1.0,111,53.0
2543,F#2,295.0,1.0,111,53.0
2544,G2,295.25,0.75,111,53.0
2545,E-2,295.25,0.75,111,53.0
2546,F6,295.5,0.125,127,53.0
2547,E-6,295.625,0.125,95,53.0
2548,F6,295.75,0.125,111,53.0
2549,E-6,295.875,0.125,127,53.0
2550,G#5,296.0,2.0,111,53.0
2551,F2,296.0,3.0,103,53.0
2552,C#2,296.0,3.0,103,53.0
2553,F5,296.0,2.375,100,53.0
2554,C#5,296.0,2.375,100,53.0
2555,G#4,296.0,2.375,100,53.0
2556,C2,296.0,667/1000,127,53.0
2557,F#2,296.0,667/1000,127,53.0
2558,F#2,296.667,333/1000,79,53.0
2559,D2,297.0,0.5,87,53.0
2560,F#2,297.0,0.5,87,53.0
2561,C2,297.5,0.25,103,53.0
2562,F#2,297.5,0.25,103,53.0
2563,C2,297.75,0.25,127,53.0
2564,C2,298.0,0.5,119,53.0
2565,F#2,298.0,0.5,119,53.0
2566,E-5,298.375,0.125,111,53.0
2567,G5,298.5,0.125,127,53.0
2568,F#2,298.5,0.25,111,53.0
2569,B-5,298.625,0.25,111,53.0
2570,F#2,298.75,0.25,111,53.0
2571,E-5,298.875,0.125,111,53.0
2572,G5,299.0,0.125,127,53.0
2573,F2,299.0,1.0,103,53.0
2574,C#2,299.0,1.0,103,53.0
2575,D2,299.0,1.0,111,53.0
2576,F#2,299.0,1.0,111,53.0
2577,B-5,299.125,0.25,127,53.0
2578,E-5,299.375,0.125,111,53.0
2579,B-5,299.5,0.125,111,53.0
2580,E-6,299.625,0.125,111,53.0
2581,F6,299.75,0.125,111,53.0
2582,E-6,299.875,0.125,111,53.0
2583,G2,300.0,2.0,103,53.0
2584,E-2,300.0,2.0,103,53.0
2585,F6,300.0,0.5,95,53.0
2586,E-5,300.0,0.5,95,53.0
2587,B-4,300.0,0.5,95,53.0
2588,G4,300.0,0.5,95,53.0
2589,C2,300.0,667/1000,127,53.0
2590,F#2,300.0,667/1000,127,53.0
2591,F6,300.5,0.125,127,53.0
2592,E-6,300.625,0.125,111,53.0
2593,F#2,300.667,333/1000,79,53.0
2594,F6,300.75,0.125,127,53.0
2595,E-6,300.875,0.125,111,53.0
2596,F6,301.0,0.5,127,53.0
2597,D2,301.0,0.5,87,53.0
2598,F#2,301.0,0.5,87,53.0
2599,F6,301.5,0.125,127,53.0
2600,C2,301.5,0.25,103,53.0
2601,F#2,301.5,0.25,103,53.0
2602,E-6,301.625,0.125,111,53.0
2603,F6,301.75,0.125,127,53.0
2604,C2,301.75,0.25,127,53.0
2605,E-6,301.875,0.125,111,53.0
2606,F6,302.0,0.5,111,53.0
2607,G2,302.0,1.25,103,53.0
2608,E-2,302.0,1.25,103,53.0
2609,C2,302.0,0.5,119,53.0
2610,F#2,302.0,0.5,119,53.0
2611,F6,302.5,0.125,127,53.0
2612,F#2,302.5,0.25,111,53.0
2613,E-6,302.625,0.125,111,53.0
2614,F6,302.75,0.125,127,53.0
2615,F#2,302.75,0.25,111,53.0
2616,E-6,302.875,0.125,111,53.0
2617,F6,303.0,0.5,111,53.0
2618,D2,303.0,1.0,111,53.0
2619,F#2,303.0,1.0,111,53.0
2620,G2,303.25,0.75,111,53.0
2621,E-2,303.25,0.75,111,53.0
2622,F6,303.5,0.125,127,53.0
2623,E-6,303.625,0.125,95,53.0
2624,F6,303.75,0.125,111,53.0
2625,E-6,303.875,0.125,127,53.0
2626,C#3,304.0,4.0,111,53.0
2627,G2,304.0,2.0,103,53.0
2628,E-2,304.0,2.0,103,53.0
2629,C2,304.0,667/1000,127,53.0
2630,F#2,304.0,667/1000,127,53.0
2631,F#2,304.667,333/1000,79,53.0
2632,D2,305.0,0.5,87,53.0
2633,F#2,305.0,0.5,87,53.0
2634,C2,305.5,0.25,103,53.0
2635,F#2,305.5,0.25,103,53.0
2636,C2,305.75,0.25,127,53.0
2637,G2,306.0,1.0,95,53.0
2638,E-2,306.0,1.0,95,53.0
2639,C2,306.0,0.5,119,53.0
2640,F#2,306.0,0.5,119,53.0
2641,F#2,306.5,0.25,111,53.0
2642,F#2,306.75,0.25,111,53.0
2643,G2,307.0,1.0,95,53.0
2644,E-2,307.0,1.0,95,53.0
2645,D2,307.0,1.0,111,53.0
2646,F#2,307.0,1.0,111,53.0
2647,C2,308.0,0.75,127,53.0
2648,C3,308.0,4.0,127,53.0
2649,C3,308.0,4.0,127,53.0
2650,C5,308.0,2.0,111,53.0
2651,G4,308.0,2.0,111,53.0
2652,E-4,308.0,2.0,111,53.0
2653,C2,308.0,667/1000,127,53.0
2654,F#2,308.0,667/1000,127,53.0
2655,F#2,308.667,333/1000,79,53.0
2656,D2,308.75,0.25,127,53.0
2657,E-2,309.0,0.5,111,53.0
2658,D2,309.0,0.5,87,53.0
2659,F#2,309.0,0.5,87,53.0
2660,C2,309.5,0.25,127,53.0
2661,C2,309.5,0.25,103,53.0
2662,F#2,309.5,0.25,103,53.0
2663,G#2,309.75,2.0,127,53.0
2664,C2,309.75,0.25,127,53.0
2665,C5,310.0,0.5,116,53.0
2666,G#4,310.0,0.5,116,53.0
2667,E-4,310.0,0.5,116,53.0
2668,C2,310.0,0.5,119,53.0
2669,F#2,310.0,0.5,119,53.0
2670,D5,310.5,1.25,127,53.0
2671,F#2,310.5,0.25,111,53.0
2672,F#2,310.75,0.25,111,53.0
2673,D2,311.0,1.0,111,53.0
2674,F#2,311.0,1.0,111,53.0
2675,G#2,311.75,0.25,111,53.0
2676,C5,311.75,0.25,127,53.0
2677,G2,312.0,0.75,111,53.0
2678,B2,312.0,1.0,111,53.0
2679,B4,312.0,1.0,127,53.0
2680,B2,312.0,1.0,127,53.0
2681,C2,312.0,667/1000,127,53.0
2682,F#2,312.0,667/1000,127,53.0
2683,F#2,312.667,333/1000,79,53.0
2684,F2,312.75,0.25,127,53.0
2685,E-2,313.0,0.75,127,53.0
2686,B-2,313.0,1.0,111,53.0
2687,C5,313.0,1.0,127,53.0
2688,B-2,313.0,1.0,111,53.0
2689,D2,313.0,0.5,87,53.0
2690,F#2,313.0,0.5,87,53.0
2691,C2,313.5,0.25,103,53.0
2692,F#2,313.5,0.25,103,53.0
2693,G2,313.75,0.25,127,53.0
2694,C2,313.75,0.25,127,53.0
2695,F2,314.0,0.75,127,53.0
2696,A2,314.0,1.0,111,53.0
2697,A2,314.0,1.0,127,53.0
2698,C5,314.0,1.0,95,53.0
2699,A4,314.0,1.0,95,53.0
2700,F4,314.0,1.0,95,53.0
2701,C2,314.0,0.5,119,53.0
2702,F#2,314.0,0.5,119,53.0
2703,F#2,314.5,0.25,111,53.0
2704,E-2,314.75,0.25,111,53.0
2705,F#2,314.75,0.25,111,53.0
2706,D2,315.0,0.75,127,53.0
2707,G#2,315.0,1.0,127,53.0
2708,G#2,315.0,1.0,127,53.0
2709,B-4,315.0,1.0,100,53.0
2710,F4,315.0,1.0,100,53.0
2711,D4,315.0,1.0,100,53.0
2712,D2,315.0,1.0,111,53.0
2713,F#2,315.0,1.0,111,53.0
2714,C2,315.75,0.25,127,53.0
2715,B-1,316.0,0.75,111,53.0
2716,G2,316.0,1.0,111,53.0
2717,B-4,316.0,1.0,111,53.0
2718,G2,316.0,1.0,127,53.0
2719,C2,316.0,667/1000,127,53.0
2720,F#2,316.0,667/1000,127,53.0
2721,F#2,316.667,333/1000,79,53.0
2722,F2,316.75,0.25,127,53.0
2723,E-2,317.0,0.5,111,53.0
2724,C3,317.0,3.0,111,53.0
2725,C3,317.0,3.0,127,53.0
2726,C5,317.0,1.0,100,53.0
2727,G4,317.0,1.0,100,53.0
2728,E-4,317.0,1.0,100,53.0
2729,D2,317.0,0.5,87,53.0
2730,F#2,317.0,0.5,87,53.0
2731,G2,317.5,0.25,127,53.0
2732,C2,317.5,0.25,103,53.0
2733,F#2,317.5,0.25,103,53.0
2734,G#2,317.75,2.0,111,53.0
2735,C2,317.75,0.25,127,53.0
2736,C5,318.0,1.0,90,53.0
2737,G#4,318.0,1.0,90,53.0
2738,E-4,318.0,1.0,90,53.0
2739,C2,318.0,0.5,119,53.0
2740,F#2,318.0,0.5,119,53.0
2741,F#2,318.5,0.25,111,53.0
2742,F#2,318.75,0.25,111,53.0
2743,C5,319.0,1.0,95,53.0
2744,G#4,319.0,1.0,95,53.0
2745,E-4,319.0,1.0,95,53.0
2746,D2,319.0,1.0,111,53.0
2747,F#2,319.0,1.0,111,53.0
2748,G#2,319.75,0.25,127,53.0
2749,G2,320.0,0.75,111,53.0
2750,B2,320.0,1.0,127,53.0
2751,B2,320.0,1.0,127,53.0
2752,B4,320.0,1.0,111,53.0
2753,G4,320.0,1.0,111,53.0
2754,D4,320.0,1.0,111,53.0
2755,C2,320.0,667/1000,127,53.0
2756,F#2,320.0,667/1000,127,53.0
2757,F#2,320.667,333/1000,79,53.0
2758,F2,320.75,0.25,127,53.0
2759,E-2,321.0,0.75,127,53.0
2760,B-2,321.0,1.0,111,53.0
2761,B-2,321.0,1.0,111,53.0
2762,C5,321.0,1.0,106,53.0
2763,G4,321.0,1.0,106,53.0
2764,E-4,321.0,1.0,106,53.0
2765,D2,321.0,0.5,87,53.0
2766,F#2,321.0,0.5,87,53.0
2767,C2,321.5,0.25,103,53.0
2768,F#2,321.5,0.25,103,53.0
2769,G2,321.75,0.25,127,53.0
2770,C2,321.75,0.25,127,53.0
2771,F2,322.0,0.75,127,53.0
2772,A2,322.0,1.0,127,53.0
2773,A2,322.0,1.0,127,53.0
2774,F5,322.0,1.0,106,53.0
2775,C5,322.0,1.0,106,53.0
2776,A4,322.0,1.0,106,53.0
2777,C2,322.0,0.5,119,53.0
2778,F#2,322.0,0.5,119,53.0
2779,F#2,322.5,0.25,111,53.0
2780,E-2,322.75,0.25,111,53.0
2781,F#2,322.75,0.25,111,53.0
2782,D2,323.0,0.75,127,53.0
2783,G#2,323.0,1.0,127,53.0
2784,G#2,323.0,1.0,127,53.0
2785,B-4,323.0,1.0,100,53.0
2786,F4,323.0,1.0,100,53.0
2787,D4,323.0,1.0,100,53.0
2788,D2,323.0,1.0,111,53.0
2789,F#2,323.0,1.0,111,53.0
2790,C2,323.75,0.25,127,53.0
2791,B-1,324.0,0.75,111,53.0
2792,B-2,324.0,0.75,111,53.0
2793,G2,324.0,1.0,127,53.0
2794,B-4,324.0,1.0,90,53.0
2795,G4,324.0,1.0,90,53.0
2796,D4,324.0,1.0,90,53.0
2797,C2,324.0,667/1000,127,53.0
2798,F#2,324.0,667/1000,127,53.0
2799,F#2,324.667,333/1000,79,53.0
2800,F2,324.75,0.25,127,53.0
2801,F3,324.75,0.25,127,53.0
2802,E-2,325.0,0.5,111,53.0
2803,E-3,325.0,0.5,111,53.0
2804,C3,325.0,3.0,127,53.0
2805,C5,325.0,1.0,100,53.0
2806,G4,325.0,1.0,100,53.0
2807,E-4,325.0,1.0,100,53.0
2808,D2,325.0,0.5,87,53.0
2809,F#2,325.0,0.5,87,53.0
2810,G2,325.5,0.25,127,53.0
2811,G3,325.5,0.25,127,53.0
2812,C2,325.5,0.25,103,53.0
2813,F#2,325.5,0.25,103,53.0
2814,G#2,325.75,2.0,111,53.0
2815,G#3,325.75,2.25,111,53.0
2816,C2,325.75,0.25,127,53.0
2817,C5,326.0,1.0,90,53.0
2818,G#4,326.0,1.0,90,53.0
2819,E-4,326.0,1.0,90,53.0
2820,C2,326.0,0.5,119,53.0
2821,F#2,326.0,0.5,119,53.0
2822,F#2,326.5,0.25,111,53.0
2823,F#2,326.75,0.25,111,53.0
2824,E-5,327.0,1.0,91,53.0
2825,C5,327.0,1.0,91,53.0
2826,G#4,327.0,1.0,91,53.0
2827,E-4,327.0,1.0,91,53.0
2828,D2,327.0,1.0,111,53.0
2829,F#2,327.0,1.0,111,53.0
2830,G#2,327.75,0.25,127,53.0
2831,G2,328.0,0.75,111,53.0
2832,B2,328.0,1.0,127,53.0
2833,B2,328.0,1.0,127,53.0
2834,B4,328.0,1.0,111,53.0
2835,G4,328.0,1.0,111,53.0
2836,D4,328.0,1.0,111,53.0
2837,C2,328.0,667/1000,127,53.0
2838,F#2,328.0,667/1000,127,53.0
2839,F#2,328.667,333/1000,79,53.0
2840,F2,328.75,0.25,127,53.0
2841,E-2,329.0,0.75,127,53.0
2842,B-2,329.0,1.0,111,53.0
2843,B-2,329.0,1.0,111,53.0
2844,C5,329.0,1.0,106,53.0
2845,G4,329.0,1.0,106,53.0
2846,E-4,329.0,1.0,106,53.0
2847,D2,329.0,0.5,87,53.0
2848,F#2,329.0,0.5,87,53.0
2849,C2,329.5,0.25,103,53.0
2850,F#2,329.5,0.25,103,53.0
2851,G2,329.75,0.25,127,53.0
2852,C2,329.75,0.25,127,53.0
2853,F2,330.0,0.75,127,53.0
2854,A2,330.0,1.0,127,53.0
2855,A2,330.0,1.0,127,53.0
2856,F5,330.0,1.0,106,53.0
2857,C5,330.0,1.0,106,53.0
2858,A4,330.0,1.0,106,53.0
2859,C2,330.0,0.5,119,53.0
2860,F#2,330.0,0.5,119,53.0
2861,F#2,330.5,0.25,111,53.0
2862,E-2,330.75,0.25,111,53.0
2863,F#2,330.75,0.25,111,53.0
2864,D2,331.0,0.75,127,53.0
2865,G#2,331.0,1.0,127,53.0
2866,G#2,331.0,1.0,127,53.0
2867,B-4,331.0,1.0,100,53.0
2868,F4,331.0,1.0,100,53.0
2869,D4,331.0,1.0,100,53.0
2870,D2,331.0,1.0,111,53.0
2871,F#2,331.0,1.0,111,53.0
2872,C2,331.75,0.25,127,53.0
2873,B-1,332.0,0.75,111,53.0
2874,B-2,332.0,0.75,111,53.0
2875,G2,332.0,1.0,127,53.0
2876,B-4,332.0,1.0,90,53.0
2877,G4,332.0,1.0,90,53.0
2878,D4,332.0,1.0,90,53.0
2879,C2,332.0,667/1000,127,53.0
2880,F#2,332.0,667/1000,127,53.0
2881,F#2,332.667,333/1000,79,53.0
2882,F2,332.75,0.25,127,53.0
2883,F3,332.75,0.25,127,53.0
2884,E-2,333.0,0.5,111,53.0
2885,E-3,333.0,0.5,111,53.0
2886,C3,333.0,3.0,127,53.0
2887,C5,333.0,1.0,100,53.0
2888,G4,333.0,1.0,100,53.0
2889,E-4,333.0,1.0,100,53.0
2890,D2,333.0,0.5,87,53.0
2891,F#2,333.0,0.5,87,53.0
2892,G2,333.5,0.25,127,53.0
2893,G3,333.5,0.25,127,53.0
2894,C2,333.5,0.25,103,53.0
2895,F#2,333.5,0.25,103,53.0
2896,G#2,333.75,2.0,111,53.0
2897,G#3,333.75,2.25,111,53.0
2898,C2,333.75,0.25,127,53.0
2899,C5,334.0,1.0,90,53.0
2900,G#4,334.0,1.0,90,53.0
2901,E-4,334.0,1.0,90,53.0
2902,C2,334.0,0.5,119,53.0
2903,F#2,334.0,0.5,119,53.0
2904,F#2,334.5,0.25,111,53.0
2905,F#2,334.75,0.25,111,53.0
2906,E-5,335.0,1.0,91,53.0
2907,C5,335.0,1.0,91,53.0
2908,G#4,335.0,1.0,91,53.0
2909,E-4,335.0,1.0,91,53.0
2910,D2,335.0,1.0,111,53.0
2911,F#2,335.0,1.0,111,53.0
2912,G#2,335.75,0.25,127,53.0
2913,G2,336.0,0.75,127,53.0
2914,G3,336.0,0.75,127,53.0
2915,B2,336.0,1.0,127,53.0
2916,G5,336.0,1.0,106,53.0
2917,D5,336.0,1.0,106,53.0
2918,B4,336.0,1.0,106,53.0
2919,C2,336.0,667/1000,127,53.0
2920,F#2,336.0,667/1000,127,53.0
2921,F#2,336.667,333/1000,79,53.0
2922,F2,336.75,0.25,127,53.0
2923,F3,336.75,0.25,127,53.0
2924,E-2,337.0,0.75,127,53.0
2925,E-3,337.0,0.75,127,53.0
2926,B-2,337.0,1.0,111,53.0
2927,E-5,337.0,1.0,106,53.0
2928,C5,337.0,1.0,106,53.0
2929,G4,337.0,1.0,106,53.0
2930,D2,337.0,0.5,87,53.0
2931,F#2,337.0,0.5,87,53.0
2932,C2,337.5,0.25,103,53.0
2933,F#2,337.5,0.25,103,53.0
2934,G2,337.75,0.25,127,53.0
2935,G3,337.75,0.25,127,53.0
2936,C2,337.75,0.25,127,53.0
2937,F2,338.0,0.75,127,53.0
2938,F3,338.0,0.75,127,53.0
2939,A2,338.0,1.0,127,53.0
2940,F5,338.0,1.0,95,53.0
2941,C5,338.0,1.0,95,53.0
2942,A4,338.0,1.0,95,53.0
2943,C2,338.0,0.5,119,53.0
2944,F#2,338.0,0.5,119,53.0
2945,F#2,338.5,0.25,111,53.0
2946,E-2,338.75,0.25,111,53.0
2947,E-3,338.75,0.25,127,53.0
2948,F#2,338.75,0.25,111,53.0
2949,D2,339.0,0.75,127,53.0
2950,D3,339.0,0.75,127,53.0
2951,G#2,339.0,1.0,127,53.0
2952,D5,339.0,1.0,90,53.0
2953,B-4,339.0,1.0,90,53.0
2954,F4,339.0,1.0,90,53.0
2955,D2,339.0,1.0,111,53.0
2956,F#2,339.0,1.0,111,53.0
2957,C2,339.75,0.25,127,53.0
2958,C3,339.75,0.25,127,53.0
2959,B-1,340.0,0.75,111,53.0
2960,B-2,340.0,0.75,127,53.0
2961,F#2,340.0,0.25,127,53.0
2962,B-4,340.0,1.0,100,53.0
2963,G4,340.0,1.0,100,53.0
2964,D4,340.0,1.0,100,53.0
2965,E-5,340.0,667/1000,111,53.0
2966,G2,340.0,667/1000,111,53.0
2967,D2,340.25,0.25,127,53.0
2968,F#2,340.5,0.5,111,53.0
2969,B-5,340.667,333/1000,95,53.0
2970,F2,340.75,0.25,127,53.0
2971,F3,340.75,0.25,127,53.0
2972,E-2,341.0,0.5,111,53.0
2973,E-3,341.0,0.5,111,53.0
2974,F#2,341.0,0.5,127,53.0
2975,C5,341.0,0.75,106,53.0
2976,G#4,341.0,0.75,106,53.0
2977,E-4,341.0,0.75,106,53.0
2978,E-5,341.0,0.5,119,53.0
2979,C3,341.0,0.5,119,53.0
2980,G2,341.5,0.25,127,53.0
2981,B-5,341.5,0.25,79,53.0
2982,D2,341.5,0.25,127,53.0
2983,G#2,341.75,2.25,111,53.0
2984,C#3,341.75,0.25,127,53.0
2985,C#3,341.75,2.0,111,53.0
2986,C#5,341.75,2.25,103,53.0
2987,B-4,341.75,2.25,103,53.0
2988,G#4,341.75,2.25,103,53.0
2989,E-4,341.75,2.25,103,53.0
2990,E-5,342.0,667/1000,111,53.0
2991,B-5,342.667,333/1000,95,53.0
2992,E-5,343.0,667/1000,111,53.0
2993,B-5,343.667,333/1000,79,53.0
2994,E-5,344.0,667/1000,111,53.0
2995,B-5,344.667,333/1000,95,53.0
2996,E-5,345.0,667/1000,111,53.0
2997,B-5,345.667,333/1000,79,53.0
2998,E-5,346.0,667/1000,111,53.0
2999,B-5,346.667,333/1000,95,53.0
3000,E-5,347.0,667/1000,111,53.0
3001,B-5,347.667,333/1000,79,53.0
3002,E-5,348.0,667/1000,111,53.0
3003,B-5,348.667,333/1000,79,53.0
3004,E-5,349.0,667/1000,111,53.0
3005,B-5,349.667,333/1000,79,53.0
