,note_name,start_time,duration,velocity,tempo
0,C2,4.0,0.125,64,120
1,C2,5.0,0.125,64,120
2,C2,6.0,0.125,64,120
3,C2,7.0,0.125,64,120
4,A4,7.75,0.25,7,120
5,C8,8.0,4.0,13,120
6,D8,8.0,4.0,10,120
7,E-4,8.0,4.0,34,120
8,E-3,8.0,4.0,34,120
9,A4,8.0,0.25,8,120
10,C2,8.0,0.25,8,120
11,E-1,8.0,4.0,38,120
12,D2,8.0,4.0,38,120
13,A4,8.75,0.25,11,120
14,A4,9.0,0.25,12,120
15,C#2,9.0,0.25,12,120
16,A4,9.75,0.25,14,120
17,C#2,9.75,0.25,14,120
18,B7,10.0,2.0,13,120
19,A4,10.0,0.25,15,120
20,C2,10.0,0.25,15,120
21,C2,10.5,0.25,17,120
22,A4,10.75,0.25,18,120
23,A4,11.0,0.25,19,120
24,C#2,11.0,0.25,19,120
25,A4,11.75,0.25,21,120
26,D8,40.0,4.0,13,120
27,C8,40.0,4.0,13,120
28,B7,40.0,6.0,13,120
29,A4,40.0,0.25,22,120
30,C2,40.0,0.25,22,120
31,E-4,40.0,28.0,34,120
32,E-3,40.0,28.0,34,120
33,E-1,40.0,12.0,38,120
34,D2,40.0,12.0,38,120
35,A4,40.75,0.25,25,120
36,C#2,41.0,0.25,26,120
37,A4,41.0,0.25,26,120
38,C#2,41.75,0.25,28,120
39,A4,41.75,0.25,28,120
40,C2,42.0,0.25,29,120
41,A4,42.0,0.25,29,120
42,C2,42.5,0.25,31,120
43,A4,42.75,0.25,32,120
44,C#2,43.0,0.25,32,120
45,A4,43.0,0.25,32,120
46,A4,43.75,0.25,35,120
47,E-7,68.0,0.125,10,120
48,D8,68.0,4.0,13,120
49,C2,68.0,0.25,36,120
50,A4,68.0,0.25,36,120
51,E-3,68.0,4.0,42,120
52,E-4,68.0,4.0,42,120
53,E7,68.125,0.125,10,120
54,F7,68.25,0.125,15,120
55,F#7,68.375,0.125,18,120
56,G7,68.5,0.125,20,120
57,G#7,68.625,0.125,20,120
58,A4,68.75,0.25,38,120
59,A7,68.75,0.125,23,120
60,B-7,68.875,0.125,23,120
61,B7,69.0,0.125,25,120
62,C#2,69.0,0.25,39,120
63,A4,69.0,0.25,39,120
64,C8,69.125,0.125,25,120
65,C#8,69.25,0.125,25,120
66,D8,69.375,0.125,28,120
67,E-8,69.5,0.125,28,120
68,E8,69.625,0.125,28,120
69,F8,69.75,0.125,28,120
70,C#2,69.75,0.25,42,120
71,A4,69.75,0.25,42,120
72,F#8,69.875,0.125,30,120
73,G8,70.0,0.125,30,120
74,C2,70.0,0.25,43,120
75,A4,70.0,0.25,43,120
76,G#8,70.125,0.125,28,120
77,A8,70.25,0.125,28,120
78,B-8,70.375,0.125,28,120
79,C2,70.5,0.25,45,120
80,B8,70.5,0.125,25,120
81,C9,70.625,0.125,25,120
82,A4,70.75,0.25,45,120
83,C#9,70.75,0.125,25,120
84,D9,70.875,0.125,23,120
85,E-9,71.0,0.125,23,120
86,C#2,71.0,0.25,46,120
87,A4,71.0,0.25,46,120
88,E9,71.125,0.125,20,120
89,F9,71.25,0.125,18,120
90,F#9,71.375,0.125,15,120
91,G9,71.5,0.125,13,120
92,A4,71.75,0.25,49,120
93,E-7,76.0,0.125,10,120
94,C2,76.0,0.25,50,120
95,A4,76.0,0.25,50,120
96,E-3,76.0,4.0,42,120
97,E-4,76.0,4.0,42,120
98,E7,76.125,0.125,10,120
99,F7,76.25,0.125,15,120
100,F#7,76.375,0.125,18,120
101,G7,76.5,0.125,20,120
102,G#7,76.625,0.125,20,120
103,A4,76.75,0.25,52,120
104,A7,76.75,0.125,23,120
105,B-7,76.875,0.125,23,120
106,B7,77.0,0.125,25,120
107,C#2,77.0,0.25,53,120
108,A4,77.0,0.25,53,120
109,C8,77.125,0.125,25,120
110,C#8,77.25,0.125,25,120
111,D8,77.375,0.125,28,120
112,E-8,77.5,0.125,28,120
113,E8,77.625,0.125,28,120
114,F8,77.75,0.125,28,120
115,C#2,77.75,0.25,56,120
116,A4,77.75,0.25,56,120
117,F#8,77.875,0.125,30,120
118,G8,78.0,0.125,30,120
119,C2,78.0,0.25,57,120
120,A4,78.0,0.25,57,120
121,G#8,78.125,0.125,28,120
122,A8,78.25,0.125,28,120
123,B-8,78.375,0.125,28,120
124,C2,78.5,0.25,58,120
125,B8,78.5,0.125,25,120
126,C9,78.625,0.125,25,120
127,A4,78.75,0.25,59,120
128,C#9,78.75,0.125,25,120
129,D9,78.875,0.125,23,120
130,E-9,79.0,0.125,23,120
131,A4,79.0,0.25,60,120
132,C#2,79.0,0.25,60,120
133,E9,79.125,0.125,20,120
134,F9,79.25,0.125,18,120
135,F#9,79.375,0.125,15,120
136,G9,79.5,0.125,13,120
137,A4,79.75,0.25,53,120
138,G#3,79.75,0.25,53,120
139,G#4,79.75,0.25,53,120
140,E-4,80.0,4.0,32,120
141,C2,80.0,0.25,64,120
142,A4,80.0,0.25,64,120
143,C#2,80.0,0.25,64,120
144,B-3,80.0,0.75,43,120
145,B-3,80.0,0.75,43,120
146,B-4,80.0,0.75,43,120
147,E-2,80.0,4.0,40,120
148,E-3,80.0,4.0,40,120
149,E-1,80.0,4.0,40,120
150,E-2,80.0,4.0,40,120
151,C2,80.5,0.25,64,120
152,A4,80.75,0.25,48,120
153,G#3,80.75,0.25,48,120
154,G#3,80.75,0.25,48,120
155,G#4,80.75,0.25,48,120
156,C#2,81.0,0.25,88,120
157,A4,81.0,0.25,88,120
158,B1,81.0,0.25,88,120
159,A1,81.0,0.25,88,120
160,B-3,81.0,0.75,43,120
161,B-3,81.0,0.75,43,120
162,B-4,81.0,0.75,43,120
163,C#2,81.75,0.25,51,120
164,A4,81.75,0.25,51,120
165,G#3,81.75,0.25,51,120
166,G#3,81.75,0.25,51,120
167,G#4,81.75,0.25,51,120
168,C2,82.0,0.25,64,120
169,A4,82.0,0.25,64,120
170,B-3,82.0,0.75,43,120
171,B-3,82.0,0.75,43,120
172,B-4,82.0,0.75,43,120
173,C2,82.5,0.25,64,120
174,A4,82.75,0.25,48,120
175,G#3,82.75,0.25,48,120
176,G#3,82.75,0.25,48,120
177,G#4,82.75,0.25,48,120
178,C#2,83.0,0.25,83,120
179,A4,83.0,0.25,83,120
180,B1,83.0,0.25,83,120
181,A1,83.0,0.25,83,120
182,C#2,83.0,0.25,83,120
183,B-3,83.0,0.75,43,120
184,B-3,83.0,0.75,43,120
185,B-4,83.0,0.75,43,120
186,B-2,83.5,0.5,32,120
187,A4,83.75,0.25,48,120
188,G#3,83.75,0.25,48,120
189,G#3,83.75,0.25,48,120
190,G#4,83.75,0.25,48,120
191,E-4,84.0,4.0,32,120
192,A4,84.0,0.25,64,120
193,C2,84.0,0.25,64,120
194,C#2,84.0,0.25,64,120
195,B-3,84.0,0.75,43,120
196,B-3,84.0,0.75,43,120
197,B-4,84.0,0.75,43,120
198,G#2,84.0,4.0,48,120
199,G#1,84.0,4.0,48,120
200,G#3,84.0,4.0,32,120
201,G#2,84.0,4.0,32,120
202,C2,84.5,0.25,64,120
203,A4,84.75,0.25,48,120
204,G#3,84.75,0.25,48,120
205,G#3,84.75,0.25,48,120
206,G#4,84.75,0.25,48,120
207,A4,85.0,0.25,88,120
208,C#2,85.0,0.25,88,120
209,B1,85.0,0.25,88,120
210,A1,85.0,0.25,88,120
211,B-3,85.0,0.75,43,120
212,B-3,85.0,0.75,43,120
213,B-4,85.0,0.75,43,120
214,A4,85.75,0.25,51,120
215,G#3,85.75,0.25,51,120
216,G#3,85.75,0.25,51,120
217,C#2,85.75,0.25,51,120
218,G#4,85.75,0.25,51,120
219,A4,86.0,0.25,51,120
220,B-3,86.0,0.25,51,120
221,B-3,86.0,0.25,51,120
222,C2,86.0,0.25,51,120
223,B-4,86.0,0.25,51,120
224,B3,86.25,0.25,43,120
225,B3,86.25,0.25,43,120
226,B4,86.25,0.25,43,120
227,C2,86.5,0.25,64,120
228,C#4,86.5,0.5,43,120
229,C#4,86.5,0.5,43,120
230,C#5,86.5,0.5,43,120
231,A4,86.75,0.25,64,120
232,A4,87.0,0.25,88,120
233,C#2,87.0,0.25,88,120
234,B1,87.0,0.25,88,120
235,A1,87.0,0.25,88,120
236,B3,87.0,0.5,43,120
237,B3,87.0,0.5,43,120
238,B4,87.0,0.5,43,120
239,B-2,87.5,0.5,32,120
240,B-3,87.5,0.25,43,120
241,B-3,87.5,0.25,43,120
242,B-4,87.5,0.25,43,120
243,A4,87.75,0.25,48,120
244,G#3,87.75,0.25,48,120
245,G#3,87.75,0.25,48,120
246,G#4,87.75,0.25,48,120
247,A4,96.0,0.25,53,120
248,F#3,96.0,0.25,53,120
249,F#3,96.0,0.25,53,120
250,C2,96.0,0.25,53,120
251,C#2,96.0,0.25,53,120
252,F#4,96.0,0.25,53,120
253,B-2,96.0,4.0,48,120
254,B-1,96.0,4.0,48,120
255,G#3,96.0,8.0,32,120
256,G#2,96.0,8.0,32,120
257,F3,96.25,0.25,43,120
258,F3,96.25,0.25,43,120
259,F4,96.25,0.25,43,120
260,E-3,96.5,3.5,32,120
261,C2,96.5,0.25,64,120
262,E-3,96.5,3.5,48,120
263,E-4,96.5,3.5,48,120
264,A4,96.75,0.25,64,120
265,A4,97.0,0.25,88,120
266,C#2,97.0,0.25,88,120
267,B1,97.0,0.25,88,120
268,A1,97.0,0.25,88,120
269,A4,97.75,0.25,64,120
270,C#2,97.75,0.25,64,120
271,A4,98.0,0.25,64,120
272,C2,98.0,0.25,64,120
273,C2,98.5,0.25,64,120
274,A4,98.75,0.25,64,120
275,A4,99.0,0.25,88,120
276,C#2,99.0,0.25,88,120
277,B1,99.0,0.25,88,120
278,A1,99.0,0.25,88,120
279,B-2,99.5,0.5,32,120
280,A4,99.75,0.25,64,120
281,E-3,104.0,3.0,32,120
282,A4,104.0,0.25,64,120
283,C2,104.0,0.25,64,120
284,C#2,104.0,0.25,64,120
285,G#2,104.0,4.0,48,120
286,G#1,104.0,4.0,48,120
287,E-3,104.0,4.0,48,120
288,E-4,104.0,4.0,48,120
289,C2,104.5,0.25,64,120
290,A4,104.75,0.25,64,120
291,A4,105.0,0.25,88,120
292,C#2,105.0,0.25,88,120
293,B1,105.0,0.25,88,120
294,A1,105.0,0.25,88,120
295,A4,105.75,0.25,64,120
296,C#2,105.75,0.25,64,120
297,A4,106.0,0.25,64,120
298,C2,106.0,0.25,64,120
299,C2,106.5,0.25,64,120
300,A4,106.75,0.25,64,120
301,A4,107.0,0.25,77,120
302,E-3,107.0,0.25,77,120
303,C#2,107.0,0.25,77,120
304,B1,107.0,0.25,77,120
305,A1,107.0,0.25,77,120
306,F3,107.25,0.25,32,120
307,F#3,107.5,0.25,32,120
308,B-2,107.5,0.5,32,120
309,G#3,107.75,0.25,48,120
310,A4,107.75,0.25,48,120
311,E-4,108.0,4.0,32,120
312,E-4,108.0,4.0,34,120
313,A4,108.0,0.25,64,120
314,C2,108.0,0.25,64,120
315,C#2,108.0,0.25,64,120
316,B-3,108.0,0.75,43,120
317,B-3,108.0,0.75,43,120
318,B-4,108.0,0.75,43,120
319,E-2,108.0,4.0,40,120
320,E-3,108.0,4.0,40,120
321,E-1,108.0,4.0,40,120
322,E-2,108.0,4.0,40,120
323,C2,108.5,0.25,64,120
324,A4,108.75,0.25,48,120
325,G#3,108.75,0.25,48,120
326,G#3,108.75,0.25,48,120
327,G#4,108.75,0.25,48,120
328,A4,109.0,0.25,88,120
329,C#2,109.0,0.25,88,120
330,B1,109.0,0.25,88,120
331,A1,109.0,0.25,88,120
332,B-3,109.0,0.75,43,120
333,B-3,109.0,0.75,43,120
334,B-4,109.0,0.75,43,120
335,A4,109.75,0.25,51,120
336,G#3,109.75,0.25,51,120
337,G#3,109.75,0.25,51,120
338,C#2,109.75,0.25,51,120
339,G#4,109.75,0.25,51,120
340,A4,110.0,0.25,64,120
341,C2,110.0,0.25,64,120
342,B-3,110.0,0.75,43,120
343,B-3,110.0,0.75,43,120
344,B-4,110.0,0.75,43,120
345,C2,110.5,0.25,64,120
346,A4,110.75,0.25,48,120
347,G#3,110.75,0.25,48,120
348,G#3,110.75,0.25,48,120
349,G#4,110.75,0.25,48,120
350,A4,111.0,0.25,88,120
351,C#2,111.0,0.25,88,120
352,B1,111.0,0.25,88,120
353,A1,111.0,0.25,88,120
354,B-3,111.0,0.75,43,120
355,B-3,111.0,0.75,43,120
356,B-4,111.0,0.75,43,120
357,B-2,111.5,0.5,32,120
358,A4,111.75,0.25,48,120
359,G#3,111.75,0.25,48,120
360,G#3,111.75,0.25,48,120
361,G#4,111.75,0.25,48,120
362,E-4,112.0,4.0,32,120
363,E-4,112.0,28.0,34,120
364,A4,112.0,0.25,64,120
365,C2,112.0,0.25,64,120
366,C#2,112.0,0.25,64,120
367,B-3,112.0,0.75,43,120
368,B-3,112.0,0.75,43,120
369,B-4,112.0,0.75,43,120
370,G#2,112.0,4.0,48,120
371,G#1,112.0,4.0,48,120
372,G#3,112.0,4.0,32,120
373,G#2,112.0,4.0,32,120
374,C2,112.5,0.25,64,120
375,A4,112.75,0.25,48,120
376,G#3,112.75,0.25,48,120
377,G#3,112.75,0.25,48,120
378,G#4,112.75,0.25,48,120
379,A4,113.0,0.25,88,120
380,C#2,113.0,0.25,88,120
381,B1,113.0,0.25,88,120
382,A1,113.0,0.25,88,120
383,B-3,113.0,0.75,43,120
384,B-3,113.0,0.75,43,120
385,B-4,113.0,0.75,43,120
386,A4,113.75,0.25,51,120
387,G#3,113.75,0.25,51,120
388,G#3,113.75,0.25,51,120
389,C#2,113.75,0.25,51,120
390,G#4,113.75,0.25,51,120
391,A4,114.0,0.25,51,120
392,B-3,114.0,0.25,51,120
393,B-3,114.0,0.25,51,120
394,C2,114.0,0.25,51,120
395,B-4,114.0,0.25,51,120
396,B3,114.25,0.25,43,120
397,B3,114.25,0.25,43,120
398,B4,114.25,0.25,43,120
399,C2,114.5,0.25,64,120
400,C#4,114.5,0.5,43,120
401,C#4,114.5,0.5,43,120
402,C#5,114.5,0.5,43,120
403,A4,114.75,0.25,64,120
404,A4,115.0,0.25,88,120
405,C#2,115.0,0.25,88,120
406,B1,115.0,0.25,88,120
407,A1,115.0,0.25,88,120
408,B3,115.0,0.5,43,120
409,B3,115.0,0.5,43,120
410,B4,115.0,0.5,43,120
411,B-2,115.5,0.5,32,120
412,B-3,115.5,0.25,43,120
413,B-3,115.5,0.25,43,120
414,B-4,115.5,0.25,43,120
415,A4,115.75,0.25,48,120
416,G#3,115.75,0.25,48,120
417,G#3,115.75,0.25,48,120
418,G#4,115.75,0.25,48,120
419,A4,140.0,0.25,53,120
420,F#3,140.0,0.25,53,120
421,F#3,140.0,0.25,53,120
422,C2,140.0,0.25,53,120
423,C#2,140.0,0.25,53,120
424,F#4,140.0,0.25,53,120
425,B-2,140.0,4.0,48,120
426,B-1,140.0,4.0,48,120
427,G#3,140.0,8.0,32,120
428,G#2,140.0,8.0,32,120
429,F3,140.25,0.25,43,120
430,F3,140.25,0.25,43,120
431,F4,140.25,0.25,43,120
432,C2,140.5,0.25,64,120
433,E-3,140.5,0.5,43,120
434,E-3,140.5,0.5,43,120
435,E-4,140.5,0.5,43,120
436,A4,140.75,0.25,64,120
437,F3,141.0,1.5,32,120
438,A4,141.0,0.25,88,120
439,C#2,141.0,0.25,88,120
440,B1,141.0,0.25,88,120
441,A1,141.0,0.25,88,120
442,F3,141.0,3.0,48,120
443,F4,141.0,3.0,48,120
444,A4,141.75,0.25,64,120
445,C#2,141.75,0.25,64,120
446,A4,142.0,0.25,64,120
447,C2,142.0,0.25,64,120
448,E-3,142.5,0.5,32,120
449,C2,142.5,0.25,64,120
450,A4,142.75,0.25,64,120
451,F3,143.0,1.0,32,120
452,A4,143.0,0.25,88,120
453,C#2,143.0,0.25,88,120
454,B1,143.0,0.25,88,120
455,A1,143.0,0.25,88,120
456,B-2,143.5,0.5,32,120
457,A4,143.75,0.25,64,120
458,F3,148.0,0.5,32,120
459,A4,148.0,0.25,64,120
460,C2,148.0,0.25,64,120
461,C#2,148.0,0.25,64,120
462,B-2,148.0,4.0,48,120
463,B-1,148.0,4.0,48,120
464,F3,148.0,4.0,48,120
465,F4,148.0,4.0,48,120
466,E-3,148.5,0.5,32,120
467,C2,148.5,0.25,64,120
468,A4,148.75,0.25,64,120
469,F3,149.0,1.5,32,120
470,A4,149.0,0.25,88,120
471,C#2,149.0,0.25,88,120
472,B1,149.0,0.25,88,120
473,A1,149.0,0.25,88,120
474,A4,149.75,0.25,64,120
475,C#2,149.75,0.25,64,120
476,A4,150.0,0.25,64,120
477,C2,150.0,0.25,64,120
478,E-3,150.5,0.5,32,120
479,C2,150.5,0.25,64,120
480,A4,150.75,0.25,64,120
481,A4,151.0,0.25,77,120
482,C#2,151.0,0.25,77,120
483,B1,151.0,0.25,77,120
484,A1,151.0,0.25,77,120
485,E-3,151.0,0.25,77,120
486,F3,151.25,0.25,32,120
487,B-2,151.5,0.5,32,120
488,F#3,151.5,0.25,32,120
489,A4,151.75,0.25,48,120
490,G#3,151.75,0.25,48,120
491,E-4,152.0,4.0,32,120
492,C2,152.0,0.25,64,120
493,C#2,152.0,0.25,64,120
494,A4,152.0,0.25,64,120
495,B-3,152.0,0.75,43,120
496,B-3,152.0,0.75,43,120
497,B-4,152.0,0.75,43,120
498,F#4,152.0,4.0,40,120
499,F#3,152.0,4.0,40,120
500,F#2,152.0,4.0,40,120
501,F#3,152.0,4.0,40,120
502,C2,152.5,0.25,64,120
503,G#3,152.75,0.25,48,120
504,G#3,152.75,0.25,48,120
505,A4,152.75,0.25,48,120
506,G#4,152.75,0.25,48,120
507,C#2,153.0,0.25,88,120
508,B1,153.0,0.25,88,120
509,A1,153.0,0.25,88,120
510,A4,153.0,0.25,88,120
511,B-3,153.0,0.75,43,120
512,B-3,153.0,0.75,43,120
513,B-4,153.0,0.75,43,120
514,C#2,153.75,0.25,51,120
515,G#3,153.75,0.25,51,120
516,G#3,153.75,0.25,51,120
517,A4,153.75,0.25,51,120
518,G#4,153.75,0.25,51,120
519,C2,154.0,0.25,64,120
520,A4,154.0,0.25,64,120
521,B-3,154.0,0.75,43,120
522,B-3,154.0,0.75,43,120
523,B-4,154.0,0.75,43,120
524,C2,154.5,0.25,64,120
525,G#3,154.75,0.25,48,120
526,G#3,154.75,0.25,48,120
527,A4,154.75,0.25,48,120
528,G#4,154.75,0.25,48,120
529,C#2,155.0,0.25,88,120
530,B1,155.0,0.25,88,120
531,A1,155.0,0.25,88,120
532,A4,155.0,0.25,88,120
533,B-3,155.0,0.75,43,120
534,B-3,155.0,0.75,43,120
535,B-4,155.0,0.75,43,120
536,B-2,155.5,0.5,32,120
537,G#3,155.75,0.25,48,120
538,G#3,155.75,0.25,48,120
539,A4,155.75,0.25,48,120
540,G#4,155.75,0.25,48,120
541,E-4,156.0,4.0,32,120
542,C2,156.0,0.25,64,120
543,C#2,156.0,0.25,64,120
544,A4,156.0,0.25,64,120
545,B-3,156.0,0.75,43,120
546,B-3,156.0,0.75,43,120
547,B-4,156.0,0.75,43,120
548,G#2,156.0,4.0,48,120
549,G#1,156.0,4.0,48,120
550,G#3,156.0,4.0,32,120
551,G#2,156.0,4.0,32,120
552,C2,156.5,0.25,64,120
553,G#3,156.75,0.25,48,120
554,G#3,156.75,0.25,48,120
555,A4,156.75,0.25,48,120
556,G#4,156.75,0.25,48,120
557,C#2,157.0,0.25,88,120
558,B1,157.0,0.25,88,120
559,A1,157.0,0.25,88,120
560,A4,157.0,0.25,88,120
561,B-3,157.0,0.75,43,120
562,B-3,157.0,0.75,43,120
563,B-4,157.0,0.75,43,120
564,C#2,157.75,0.25,51,120
565,G#3,157.75,0.25,51,120
566,G#3,157.75,0.25,51,120
567,A4,157.75,0.25,51,120
568,G#4,157.75,0.25,51,120
569,C2,158.0,0.25,51,120
570,B-3,158.0,0.25,51,120
571,B-3,158.0,0.25,51,120
572,A4,158.0,0.25,51,120
573,B-4,158.0,0.25,51,120
574,B3,158.25,0.25,43,120
575,B3,158.25,0.25,43,120
576,B4,158.25,0.25,43,120
577,C2,158.5,0.25,64,120
578,C#4,158.5,1.0,43,120
579,C#4,158.5,1.0,43,120
580,C#5,158.5,1.0,43,120
581,A4,158.75,0.25,64,120
582,C#2,159.0,0.25,88,120
583,B1,159.0,0.25,88,120
584,A1,159.0,0.25,88,120
585,A4,159.0,0.25,88,120
586,B-2,159.5,0.5,32,120
587,B3,159.5,0.25,43,120
588,B3,159.5,0.25,43,120
589,B4,159.5,0.25,43,120
590,A4,159.75,0.25,48,120
591,B-3,159.75,0.25,48,120
592,B-3,159.75,0.25,48,120
593,B-4,159.75,0.25,48,120
594,G#3,168.0,4.0,32,120
595,C2,168.0,0.25,64,120
596,C#2,168.0,0.25,64,120
597,A4,168.0,0.25,64,120
598,B-2,168.0,4.0,48,120
599,G#3,168.0,4.0,48,120
600,B-1,168.0,4.0,48,120
601,G#4,168.0,4.0,48,120
602,G#3,168.0,8.0,32,120
603,G#2,168.0,8.0,32,120
604,C2,168.5,0.25,64,120
605,A4,168.75,0.25,64,120
606,C#2,169.0,0.25,88,120
607,B1,169.0,0.25,88,120
608,A1,169.0,0.25,88,120
609,A4,169.0,0.25,88,120
610,C#2,169.75,0.25,64,120
611,A4,169.75,0.25,64,120
612,C2,170.0,0.25,64,120
613,A4,170.0,0.25,64,120
614,C2,170.5,0.25,64,120
615,A4,170.75,0.25,64,120
616,C#2,171.0,0.25,88,120
617,B1,171.0,0.25,88,120
618,A1,171.0,0.25,88,120
619,A4,171.0,0.25,88,120
620,B-2,171.5,0.5,32,120
621,A4,171.75,0.25,64,120
622,G#3,176.0,3.0,32,120
623,G#2,176.0,4.0,48,120
624,G#1,176.0,4.0,48,120
625,F#3,176.0,0.5,48,120
626,F#4,176.0,0.5,48,120
627,C2,176.0,0.25,64,120
628,C#2,176.0,0.25,64,120
629,A4,176.0,0.25,64,120
630,C2,176.5,0.25,64,120
631,F3,176.5,3.5,48,120
632,F4,176.5,3.5,48,120
633,A4,176.75,0.25,64,120
634,C#2,177.0,0.25,88,120
635,B1,177.0,0.25,88,120
636,A1,177.0,0.25,88,120
637,A4,177.0,0.25,88,120
638,C#2,177.75,0.25,64,120
639,A4,177.75,0.25,64,120
640,C2,178.0,0.25,64,120
641,A4,178.0,0.25,64,120
642,C2,178.5,0.25,64,120
643,A4,178.75,0.25,64,120
644,C#2,179.0,0.25,77,120
645,B1,179.0,0.25,77,120
646,A1,179.0,0.25,77,120
647,A4,179.0,0.25,77,120
648,E-3,179.0,0.25,77,120
649,F3,179.25,0.25,32,120
650,B-2,179.5,0.5,32,120
651,F#3,179.5,0.25,32,120
652,A4,179.75,0.25,48,120
653,G#3,179.75,0.25,48,120
654,E-4,180.0,4.0,32,120
655,C2,180.0,0.25,64,120
656,C#2,180.0,0.25,64,120
657,A4,180.0,0.25,64,120
658,B-3,180.0,0.75,43,120
659,B-3,180.0,0.75,43,120
660,B-4,180.0,0.75,43,120
661,E-2,180.0,4.0,40,120
662,C#4,180.0,4.0,40,120
663,E-1,180.0,4.0,40,120
664,C#3,180.0,4.0,40,120
665,C2,180.5,0.25,64,120
666,G#3,180.75,0.25,48,120
667,G#3,180.75,0.25,48,120
668,A4,180.75,0.25,48,120
669,G#4,180.75,0.25,48,120
670,C#2,181.0,0.25,88,120
671,B1,181.0,0.25,88,120
672,A1,181.0,0.25,88,120
673,A4,181.0,0.25,88,120
674,B-3,181.0,0.75,43,120
675,B-3,181.0,0.75,43,120
676,B-4,181.0,0.75,43,120
677,C#2,181.75,0.25,51,120
678,G#3,181.75,0.25,51,120
679,G#3,181.75,0.25,51,120
680,A4,181.75,0.25,51,120
681,G#4,181.75,0.25,51,120
682,C2,182.0,0.25,64,120
683,A4,182.0,0.25,64,120
684,B-3,182.0,0.75,43,120
685,B-3,182.0,0.75,43,120
686,B-4,182.0,0.75,43,120
687,C2,182.5,0.25,64,120
688,G#3,182.75,0.25,48,120
689,G#3,182.75,0.25,48,120
690,A4,182.75,0.25,48,120
691,G#4,182.75,0.25,48,120
692,C#2,183.0,0.25,88,120
693,B1,183.0,0.25,88,120
694,A1,183.0,0.25,88,120
695,A4,183.0,0.25,88,120
696,B-3,183.0,0.75,43,120
697,B-3,183.0,0.75,43,120
698,B-4,183.0,0.75,43,120
699,B-2,183.5,0.5,32,120
700,G#3,183.75,0.25,48,120
701,G#3,183.75,0.25,48,120
702,A4,183.75,0.25,48,120
703,G#4,183.75,0.25,48,120
704,E-4,184.0,4.0,32,120
705,C2,184.0,0.25,64,120
706,C#2,184.0,0.25,64,120
707,A4,184.0,0.25,64,120
708,B-3,184.0,0.75,43,120
709,B-3,184.0,0.75,43,120
710,B-4,184.0,0.75,43,120
711,G#2,184.0,4.0,40,120
712,B3,184.0,4.0,40,120
713,G#1,184.0,4.0,40,120
714,B2,184.0,4.0,40,120
715,C2,184.5,0.25,64,120
716,G#3,184.75,0.25,48,120
717,G#3,184.75,0.25,48,120
718,A4,184.75,0.25,48,120
719,G#4,184.75,0.25,48,120
720,C#2,185.0,0.25,88,120
721,B1,185.0,0.25,88,120
722,A1,185.0,0.25,88,120
723,A4,185.0,0.25,88,120
724,B-3,185.0,0.75,43,120
725,B-3,185.0,0.75,43,120
726,B-4,185.0,0.75,43,120
727,C#2,185.75,0.25,51,120
728,G#3,185.75,0.25,51,120
729,G#3,185.75,0.25,51,120
730,A4,185.75,0.25,51,120
731,G#4,185.75,0.25,51,120
732,C2,186.0,0.25,51,120
733,B-3,186.0,0.25,51,120
734,B-3,186.0,0.25,51,120
735,A4,186.0,0.25,51,120
736,B-4,186.0,0.25,51,120
737,B3,186.25,0.25,43,120
738,B3,186.25,0.25,43,120
739,B4,186.25,0.25,43,120
740,C2,186.5,0.25,64,120
741,C#4,186.5,1.0,43,120
742,C#4,186.5,1.0,43,120
743,C#5,186.5,1.0,43,120
744,A4,186.75,0.25,64,120
745,C#2,187.0,0.25,88,120
746,B1,187.0,0.25,88,120
747,A1,187.0,0.25,88,120
748,A4,187.0,0.25,88,120
749,B-2,187.5,0.5,32,120
750,B3,187.5,0.25,43,120
751,B3,187.5,0.25,43,120
752,B4,187.5,0.25,43,120
753,A4,187.75,0.25,48,120
754,B-3,187.75,0.25,48,120
755,B-3,187.75,0.25,48,120
756,B-4,187.75,0.25,48,120
757,C2,188.0,0.25,64,120
758,C#2,188.0,0.25,64,120
759,A4,188.0,0.25,64,120
760,B-2,188.0,4.0,41,120
761,G#3,188.0,4.0,41,120
762,B-3,188.0,4.0,41,120
763,B-1,188.0,4.0,41,120
764,G#3,188.0,4.0,41,120
765,B-2,188.0,4.0,41,120
766,G#4,188.0,4.0,41,120
767,C2,188.5,0.25,64,120
768,A4,188.75,0.25,64,120
769,C#2,189.0,0.25,88,120
770,B1,189.0,0.25,88,120
771,A1,189.0,0.25,88,120
772,A4,189.0,0.25,88,120
773,C#2,189.75,0.25,64,120
774,A4,189.75,0.25,64,120
775,C2,190.0,0.25,64,120
776,A4,190.0,0.25,64,120
777,C2,190.5,0.25,64,120
778,A4,190.75,0.25,64,120
779,C#2,191.0,0.25,88,120
780,B1,191.0,0.25,88,120
781,A1,191.0,0.25,88,120
782,A4,191.0,0.25,88,120
783,B-2,191.5,0.5,32,120
784,A4,191.75,0.25,64,120
785,C2,196.0,0.25,64,120
786,C#2,196.0,0.25,64,120
787,A4,196.0,0.25,64,120
788,B-2,196.0,4.0,41,120
789,G#3,196.0,4.0,41,120
790,B-3,196.0,4.0,41,120
791,B-1,196.0,4.0,41,120
792,G#3,196.0,4.0,41,120
793,B-2,196.0,4.0,41,120
794,G#4,196.0,4.0,41,120
795,C2,196.5,0.25,64,120
796,A4,196.75,0.25,64,120
797,C#2,197.0,0.25,88,120
798,B1,197.0,0.25,88,120
799,A1,197.0,0.25,88,120
800,A4,197.0,0.25,88,120
801,C#2,197.75,0.25,64,120
802,A4,197.75,0.25,64,120
803,C2,198.0,0.25,64,120
804,A4,198.0,0.25,64,120
805,C2,198.5,0.25,64,120
806,A4,198.75,0.25,64,120
807,C#2,199.0,0.25,88,120
808,B1,199.0,0.25,88,120
809,A1,199.0,0.25,88,120
810,A4,199.0,0.25,88,120
811,B-1,199.5,0.25,64,120
812,A4,199.75,0.25,64,120
813,E-3,200.0,4.0,34,120
814,E-4,200.0,4.0,34,120
815,E-2,200.0,4.0,34,120
816,E-2,200.0,4.0,34,120
817,E-2,200.0,4.0,34,120
818,E-1,200.0,0.25,64,120
819,C2,200.0,0.25,64,120
820,A4,200.0,0.25,64,120
821,E-1,200.25,3.75,64,120
822,E2,201.0,0.25,32,120
823,E2,201.75,0.25,32,120
824,C2,202.0,0.125,29,120
825,A4,202.0,0.25,64,120
826,C2,202.25,0.125,23,120
827,A4,202.25,0.25,64,120
828,C2,202.5,0.125,13,120
829,E2,203.0,0.25,32,120
830,C2,208.0,0.25,64,120
831,E-3,208.0,4.0,29,120
832,E-1,208.0,4.0,64,120
833,E-3,208.0,4.0,34,120
834,E-4,208.0,4.0,34,120
835,E-2,208.0,4.0,34,120
836,E-2,208.0,4.0,34,120
837,E-2,208.0,4.0,34,120
838,E2,209.0,0.25,32,120
839,C2,210.0,0.125,29,120
840,A4,210.0,0.25,64,120
841,C2,210.25,0.125,23,120
842,A4,210.25,0.25,64,120
843,C2,210.5,0.125,13,120
844,E2,211.0,0.25,32,120
845,G#3,211.75,0.25,64,120
846,G#4,211.75,0.25,64,120
847,E-4,212.0,4.0,32,120
848,C2,212.0,0.25,64,120
849,A4,212.0,0.25,64,120
850,C#2,212.0,0.25,64,120
851,B-3,212.0,0.75,56,120
852,B-3,212.0,0.75,56,120
853,B-3,212.0,0.75,56,120
854,B-4,212.0,0.75,56,120
855,E-2,212.0,4.0,40,120
856,E-3,212.0,4.0,40,120
857,E-1,212.0,4.0,40,120
858,E-2,212.0,4.0,40,120
859,C2,212.5,0.25,64,120
860,A4,212.75,0.25,58,120
861,G#3,212.75,0.25,58,120
862,G#3,212.75,0.25,58,120
863,G#3,212.75,0.25,58,120
864,G#4,212.75,0.25,58,120
865,C#2,213.0,0.25,88,120
866,A4,213.0,0.25,88,120
867,B1,213.0,0.25,88,120
868,A1,213.0,0.25,88,120
869,B-3,213.0,0.75,56,120
870,B-3,213.0,0.75,56,120
871,B-3,213.0,0.75,56,120
872,B-4,213.0,0.75,56,120
873,C#2,213.75,0.25,59,120
874,A4,213.75,0.25,59,120
875,G#3,213.75,0.25,59,120
876,G#3,213.75,0.25,59,120
877,G#3,213.75,0.25,59,120
878,G#4,213.75,0.25,59,120
879,C2,214.0,0.25,64,120
880,A4,214.0,0.25,64,120
881,B-3,214.0,0.75,56,120
882,B-3,214.0,0.75,56,120
883,B-3,214.0,0.75,56,120
884,B-4,214.0,0.75,56,120
885,C2,214.5,0.25,64,120
886,A4,214.75,0.25,58,120
887,G#3,214.75,0.25,58,120
888,G#3,214.75,0.25,58,120
889,G#3,214.75,0.25,58,120
890,G#4,214.75,0.25,58,120
891,C#2,215.0,0.25,83,120
892,A4,215.0,0.25,83,120
893,B1,215.0,0.25,83,120
894,A1,215.0,0.25,83,120
895,C#2,215.0,0.25,83,120
896,B-3,215.0,0.75,56,120
897,B-3,215.0,0.75,56,120
898,B-3,215.0,0.75,56,120
899,B-4,215.0,0.75,56,120
900,B-2,215.5,0.5,32,120
901,A4,215.75,0.25,58,120
902,G#3,215.75,0.25,58,120
903,G#3,215.75,0.25,58,120
904,G#3,215.75,0.25,58,120
905,G#4,215.75,0.25,58,120
906,E-4,216.0,4.0,32,120
907,A4,216.0,0.25,64,120
908,C2,216.0,0.25,64,120
909,C#2,216.0,0.25,64,120
910,B-3,216.0,0.75,56,120
911,B-3,216.0,0.75,56,120
912,B-3,216.0,0.75,56,120
913,B-4,216.0,0.75,56,120
914,G#2,216.0,4.0,48,120
915,G#1,216.0,4.0,48,120
916,G#3,216.0,4.0,32,120
917,G#2,216.0,4.0,32,120
918,C2,216.5,0.25,64,120
919,A4,216.75,0.25,58,120
920,G#3,216.75,0.25,58,120
921,G#3,216.75,0.25,58,120
922,G#3,216.75,0.25,58,120
923,G#4,216.75,0.25,58,120
924,A4,217.0,0.25,88,120
925,C#2,217.0,0.25,88,120
926,B1,217.0,0.25,88,120
927,A1,217.0,0.25,88,120
928,B-3,217.0,0.75,56,120
929,B-3,217.0,0.75,56,120
930,B-3,217.0,0.75,56,120
931,B-4,217.0,0.75,56,120
932,A4,217.75,0.25,59,120
933,G#3,217.75,0.25,59,120
934,G#3,217.75,0.25,59,120
935,C#2,217.75,0.25,59,120
936,G#3,217.75,0.25,59,120
937,G#4,217.75,0.25,59,120
938,A4,218.0,0.25,59,120
939,B-3,218.0,0.25,59,120
940,B-3,218.0,0.25,59,120
941,C2,218.0,0.25,59,120
942,B-3,218.0,0.25,59,120
943,B-4,218.0,0.25,59,120
944,B3,218.25,0.25,56,120
945,B3,218.25,0.25,56,120
946,B3,218.25,0.25,56,120
947,B4,218.25,0.25,56,120
948,C2,218.5,0.25,64,120
949,C#4,218.5,0.5,56,120
950,C#4,218.5,0.5,56,120
951,C#4,218.5,0.5,56,120
952,C#5,218.5,0.5,56,120
953,A4,218.75,0.25,64,120
954,A4,219.0,0.25,88,120
955,C#2,219.0,0.25,88,120
956,B1,219.0,0.25,88,120
957,A1,219.0,0.25,88,120
958,B3,219.0,0.5,56,120
959,B3,219.0,0.5,56,120
960,B3,219.0,0.5,56,120
961,B4,219.0,0.5,56,120
962,B-2,219.5,0.5,32,120
963,B-3,219.5,0.25,56,120
964,B-3,219.5,0.25,56,120
965,B-3,219.5,0.25,56,120
966,B-4,219.5,0.25,56,120
967,A4,219.75,0.25,58,120
968,G#3,219.75,0.25,58,120
969,G#3,219.75,0.25,58,120
970,G#3,219.75,0.25,58,120
971,G#4,219.75,0.25,58,120
972,B-2,228.0,4.0,32,120
973,B-1,228.0,2.0,64,120
974,A4,228.0,0.25,59,120
975,F#3,228.0,0.25,59,120
976,F#3,228.0,0.25,59,120
977,C2,228.0,0.25,59,120
978,C#2,228.0,0.25,59,120
979,F#3,228.0,0.25,59,120
980,F#4,228.0,0.25,59,120
981,G#3,228.0,8.0,32,120
982,G#2,228.0,8.0,32,120
983,F3,228.25,0.25,56,120
984,F3,228.25,0.25,56,120
985,F3,228.25,0.25,56,120
986,F4,228.25,0.25,56,120
987,E-3,228.5,3.5,64,120
988,E-3,228.5,3.5,32,120
989,C2,228.5,0.25,64,120
990,E-3,228.5,0.5,64,120
991,E-4,228.5,0.5,64,120
992,A4,228.75,0.25,64,120
993,A4,229.0,0.25,88,120
994,C#2,229.0,0.25,88,120
995,B1,229.0,0.25,88,120
996,A1,229.0,0.25,88,120
997,A4,229.75,0.25,64,120
998,C#2,229.75,0.25,64,120
999,B-1,230.0,2.0,64,120
1000,A4,230.0,0.25,64,120
1001,C2,230.0,0.25,64,120
1002,C2,230.5,0.25,64,120
1003,A4,230.75,0.25,64,120
1004,A4,231.0,0.25,88,120
1005,C#2,231.0,0.25,88,120
1006,B1,231.0,0.25,88,120
1007,A1,231.0,0.25,88,120
1008,B-2,231.5,0.5,32,120
1009,A4,231.75,0.25,64,120
1010,G#2,236.0,4.0,32,120
1011,G#1,236.0,2.0,64,120
1012,E-3,236.0,4.0,64,120
1013,E-3,236.0,3.0,32,120
1014,A4,236.0,0.25,64,120
1015,C2,236.0,0.25,64,120
1016,C#2,236.0,0.25,64,120
1017,C2,236.5,0.25,64,120
1018,A4,236.75,0.25,64,120
1019,A4,237.0,0.25,88,120
1020,C#2,237.0,0.25,88,120
1021,B1,237.0,0.25,88,120
1022,A1,237.0,0.25,88,120
1023,A4,237.75,0.25,64,120
1024,C#2,237.75,0.25,64,120
1025,G#1,238.0,2.0,64,120
1026,A4,238.0,0.25,64,120
1027,C2,238.0,0.25,64,120
1028,C2,238.5,0.25,64,120
1029,E-3,238.5,0.5,64,120
1030,E-4,238.5,0.5,64,120
1031,A4,238.75,0.25,64,120
1032,A4,239.0,0.25,73,120
1033,E-3,239.0,0.25,73,120
1034,C#2,239.0,0.25,73,120
1035,B1,239.0,0.25,73,120
1036,A1,239.0,0.25,73,120
1037,E-3,239.0,0.25,73,120
1038,E-4,239.0,0.25,73,120
1039,F3,239.25,0.25,53,120
1040,F3,239.25,0.25,53,120
1041,F4,239.25,0.25,53,120
1042,B-2,239.5,0.5,32,120
1043,F#3,239.5,0.25,53,120
1044,F#3,239.5,0.25,53,120
1045,F#4,239.5,0.25,53,120
1046,G#3,239.75,0.25,56,120
1047,A4,239.75,0.25,56,120
1048,G#3,239.75,0.25,56,120
1049,G#4,239.75,0.25,56,120
1050,E-4,240.0,4.0,32,120
1051,E-4,240.0,4.0,34,120
1052,E-1,240.0,2.0,64,120
1053,A4,240.0,0.25,64,120
1054,C2,240.0,0.25,64,120
1055,C#2,240.0,0.25,64,120
1056,B-3,240.0,0.75,56,120
1057,B-3,240.0,0.75,56,120
1058,B-3,240.0,0.75,56,120
1059,B-4,240.0,0.75,56,120
1060,E-2,240.0,4.0,32,120
1061,E-3,240.0,4.0,32,120
1062,E-2,240.0,4.0,32,120
1063,C2,240.5,0.25,64,120
1064,A4,240.75,0.25,58,120
1065,G#3,240.75,0.25,58,120
1066,G#3,240.75,0.25,58,120
1067,G#3,240.75,0.25,58,120
1068,G#4,240.75,0.25,58,120
1069,A4,241.0,0.25,88,120
1070,C#2,241.0,0.25,88,120
1071,B1,241.0,0.25,88,120
1072,A1,241.0,0.25,88,120
1073,B-3,241.0,0.75,56,120
1074,B-3,241.0,0.75,56,120
1075,B-3,241.0,0.75,56,120
1076,B-4,241.0,0.75,56,120
1077,A4,241.75,0.25,59,120
1078,G#3,241.75,0.25,59,120
1079,G#3,241.75,0.25,59,120
1080,C#2,241.75,0.25,59,120
1081,G#3,241.75,0.25,59,120
1082,G#4,241.75,0.25,59,120
1083,E-1,242.0,2.0,64,120
1084,A4,242.0,0.25,64,120
1085,C2,242.0,0.25,64,120
1086,B-3,242.0,0.75,56,120
1087,B-3,242.0,0.75,56,120
1088,B-3,242.0,0.75,56,120
1089,B-4,242.0,0.75,56,120
1090,C2,242.5,0.25,64,120
1091,A4,242.75,0.25,58,120
1092,G#3,242.75,0.25,58,120
1093,G#3,242.75,0.25,58,120
1094,G#3,242.75,0.25,58,120
1095,G#4,242.75,0.25,58,120
1096,A4,243.0,0.25,88,120
1097,C#2,243.0,0.25,88,120
1098,B1,243.0,0.25,88,120
1099,A1,243.0,0.25,88,120
1100,B-3,243.0,0.75,56,120
1101,B-3,243.0,0.75,56,120
1102,B-3,243.0,0.75,56,120
1103,B-4,243.0,0.75,56,120
1104,B-2,243.5,0.5,32,120
1105,A4,243.75,0.25,58,120
1106,G#3,243.75,0.25,58,120
1107,G#3,243.75,0.25,58,120
1108,G#3,243.75,0.25,58,120
1109,G#4,243.75,0.25,58,120
1110,E-4,244.0,4.0,32,120
1111,E-4,244.0,28.0,34,120
1112,A4,244.0,0.25,64,120
1113,C2,244.0,0.25,64,120
1114,C#2,244.0,0.25,64,120
1115,B-3,244.0,0.75,56,120
1116,B-3,244.0,0.75,56,120
1117,B-3,244.0,0.75,56,120
1118,B-4,244.0,0.75,56,120
1119,G#2,244.0,4.0,48,120
1120,G#1,244.0,4.0,48,120
1121,G#3,244.0,4.0,32,120
1122,G#2,244.0,4.0,32,120
1123,C2,244.5,0.25,64,120
1124,A4,244.75,0.25,58,120
1125,G#3,244.75,0.25,58,120
1126,G#3,244.75,0.25,58,120
1127,G#3,244.75,0.25,58,120
1128,G#4,244.75,0.25,58,120
1129,A4,245.0,0.25,88,120
1130,C#2,245.0,0.25,88,120
1131,B1,245.0,0.25,88,120
1132,A1,245.0,0.25,88,120
1133,B-3,245.0,0.75,56,120
1134,B-3,245.0,0.75,56,120
1135,B-3,245.0,0.75,56,120
1136,B-4,245.0,0.75,56,120
1137,A4,245.75,0.25,59,120
1138,G#3,245.75,0.25,59,120
1139,G#3,245.75,0.25,59,120
1140,C#2,245.75,0.25,59,120
1141,G#3,245.75,0.25,59,120
1142,G#4,245.75,0.25,59,120
1143,A4,246.0,0.25,59,120
1144,B-3,246.0,0.25,59,120
1145,B-3,246.0,0.25,59,120
1146,C2,246.0,0.25,59,120
1147,B-3,246.0,0.25,59,120
1148,B-4,246.0,0.25,59,120
1149,B3,246.25,0.25,56,120
1150,B3,246.25,0.25,56,120
1151,B3,246.25,0.25,56,120
1152,B4,246.25,0.25,56,120
1153,C2,246.5,0.25,64,120
1154,C#4,246.5,0.5,56,120
1155,C#4,246.5,0.5,56,120
1156,C#4,246.5,0.5,56,120
1157,C#5,246.5,0.5,56,120
1158,A4,246.75,0.25,64,120
1159,A4,247.0,0.25,88,120
1160,C#2,247.0,0.25,88,120
1161,B1,247.0,0.25,88,120
1162,A1,247.0,0.25,88,120
1163,B3,247.0,0.5,56,120
1164,B3,247.0,0.5,56,120
1165,B3,247.0,0.5,56,120
1166,B4,247.0,0.5,56,120
1167,B-2,247.5,0.5,32,120
1168,B-3,247.5,0.25,56,120
1169,B-3,247.5,0.25,56,120
1170,B-3,247.5,0.25,56,120
1171,B-4,247.5,0.25,56,120
1172,A4,247.75,0.25,58,120
1173,G#3,247.75,0.25,58,120
1174,G#3,247.75,0.25,58,120
1175,G#3,247.75,0.25,58,120
1176,G#4,247.75,0.25,58,120
1177,A4,272.0,0.25,59,120
1178,F#3,272.0,0.25,59,120
1179,F#3,272.0,0.25,59,120
1180,C2,272.0,0.25,59,120
1181,C#2,272.0,0.25,59,120
1182,F#3,272.0,0.25,59,120
1183,F#4,272.0,0.25,59,120
1184,B-2,272.0,4.0,48,120
1185,B-1,272.0,4.0,48,120
1186,G#3,272.0,8.0,32,120
1187,G#2,272.0,8.0,32,120
1188,F3,272.25,0.25,56,120
1189,F3,272.25,0.25,56,120
1190,F3,272.25,0.25,56,120
1191,F4,272.25,0.25,56,120
1192,C2,272.5,0.25,64,120
1193,E-3,272.5,0.5,56,120
1194,E-3,272.5,0.5,56,120
1195,E-3,272.5,0.5,56,120
1196,E-4,272.5,0.5,56,120
1197,A4,272.75,0.25,64,120
1198,F3,273.0,3.0,64,120
1199,F3,273.0,1.5,32,120
1200,A4,273.0,0.25,88,120
1201,C#2,273.0,0.25,88,120
1202,B1,273.0,0.25,88,120
1203,A1,273.0,0.25,88,120
1204,F3,273.0,1.0,64,120
1205,F4,273.0,1.0,64,120
1206,A4,273.75,0.25,64,120
1207,C#2,273.75,0.25,64,120
1208,A4,274.0,0.25,64,120
1209,C2,274.0,0.25,64,120
1210,E-3,274.5,0.5,32,120
1211,C2,274.5,0.25,64,120
1212,A4,274.75,0.25,64,120
1213,F3,275.0,1.0,32,120
1214,A4,275.0,0.25,88,120
1215,C#2,275.0,0.25,88,120
1216,B1,275.0,0.25,88,120
1217,A1,275.0,0.25,88,120
1218,B-2,275.5,0.5,32,120
1219,A4,275.75,0.25,64,120
1220,F3,280.0,4.0,64,120
1221,F3,280.0,0.5,32,120
1222,A4,280.0,0.25,64,120
1223,C2,280.0,0.25,64,120
1224,C#2,280.0,0.25,64,120
1225,B-2,280.0,4.0,48,120
1226,B-1,280.0,4.0,48,120
1227,E-3,280.5,0.5,32,120
1228,C2,280.5,0.25,64,120
1229,A4,280.75,0.25,64,120
1230,F3,281.0,1.5,32,120
1231,A4,281.0,0.25,88,120
1232,C#2,281.0,0.25,88,120
1233,B1,281.0,0.25,88,120
1234,A1,281.0,0.25,88,120
1235,A4,281.75,0.25,64,120
1236,C#2,281.75,0.25,64,120
1237,A4,282.0,0.25,64,120
1238,C2,282.0,0.25,64,120
1239,E-3,282.5,0.5,32,120
1240,C2,282.5,0.25,64,120
1241,E-3,282.5,0.25,64,120
1242,E-4,282.5,0.25,64,120
1243,A4,282.75,0.25,64,120
1244,E-3,282.75,0.25,64,120
1245,E-4,282.75,0.25,64,120
1246,A4,283.0,0.25,73,120
1247,C#2,283.0,0.25,73,120
1248,B1,283.0,0.25,73,120
1249,A1,283.0,0.25,73,120
1250,E-3,283.0,0.25,73,120
1251,E-3,283.0,0.25,73,120
1252,E-4,283.0,0.25,73,120
1253,F3,283.25,0.25,53,120
1254,F3,283.25,0.25,53,120
1255,F4,283.25,0.25,53,120
1256,B-2,283.5,0.5,32,120
1257,F#3,283.5,0.25,53,120
1258,F#3,283.5,0.25,53,120
1259,F#4,283.5,0.25,53,120
1260,A4,283.75,0.25,56,120
1261,G#3,283.75,0.25,56,120
1262,G#3,283.75,0.25,56,120
1263,G#4,283.75,0.25,56,120
1264,E-4,284.0,4.0,32,120
1265,C2,284.0,0.25,64,120
1266,C#2,284.0,0.25,64,120
1267,A4,284.0,0.25,64,120
1268,B-3,284.0,0.75,56,120
1269,B-3,284.0,0.75,56,120
1270,B-3,284.0,0.75,56,120
1271,B-4,284.0,0.75,56,120
1272,F#4,284.0,4.0,40,120
1273,F#3,284.0,4.0,40,120
1274,F#2,284.0,4.0,40,120
1275,F#3,284.0,4.0,40,120
1276,C2,284.5,0.25,64,120
1277,G#3,284.75,0.25,58,120
1278,G#3,284.75,0.25,58,120
1279,A4,284.75,0.25,58,120
1280,G#3,284.75,0.25,58,120
1281,G#4,284.75,0.25,58,120
1282,C#2,285.0,0.25,88,120
1283,B1,285.0,0.25,88,120
1284,A1,285.0,0.25,88,120
1285,A4,285.0,0.25,88,120
1286,B-3,285.0,0.75,56,120
1287,B-3,285.0,0.75,56,120
1288,B-3,285.0,0.75,56,120
1289,B-4,285.0,0.75,56,120
1290,C#2,285.75,0.25,59,120
1291,G#3,285.75,0.25,59,120
1292,G#3,285.75,0.25,59,120
1293,A4,285.75,0.25,59,120
1294,G#3,285.75,0.25,59,120
1295,G#4,285.75,0.25,59,120
1296,C2,286.0,0.25,64,120
1297,A4,286.0,0.25,64,120
1298,B-3,286.0,0.75,56,120
1299,B-3,286.0,0.75,56,120
1300,B-3,286.0,0.75,56,120
1301,B-4,286.0,0.75,56,120
1302,C2,286.5,0.25,64,120
1303,G#3,286.75,0.25,58,120
1304,G#3,286.75,0.25,58,120
1305,A4,286.75,0.25,58,120
1306,G#3,286.75,0.25,58,120
1307,G#4,286.75,0.25,58,120
1308,C#2,287.0,0.25,88,120
1309,B1,287.0,0.25,88,120
1310,A1,287.0,0.25,88,120
1311,A4,287.0,0.25,88,120
1312,B-3,287.0,0.75,56,120
1313,B-3,287.0,0.75,56,120
1314,B-3,287.0,0.75,56,120
1315,B-4,287.0,0.75,56,120
1316,B-2,287.5,0.5,32,120
1317,G#3,287.75,0.25,58,120
1318,G#3,287.75,0.25,58,120
1319,A4,287.75,0.25,58,120
1320,G#3,287.75,0.25,58,120
1321,G#4,287.75,0.25,58,120
1322,E-4,288.0,4.0,32,120
1323,C2,288.0,0.25,64,120
1324,C#2,288.0,0.25,64,120
1325,A4,288.0,0.25,64,120
1326,B-3,288.0,0.75,56,120
1327,B-3,288.0,0.75,56,120
1328,B-3,288.0,0.75,56,120
1329,B-4,288.0,0.75,56,120
1330,G#2,288.0,4.0,48,120
1331,G#1,288.0,4.0,48,120
1332,G#3,288.0,4.0,32,120
1333,G#2,288.0,4.0,32,120
1334,C2,288.5,0.25,64,120
1335,G#3,288.75,0.25,58,120
1336,G#3,288.75,0.25,58,120
1337,A4,288.75,0.25,58,120
1338,G#3,288.75,0.25,58,120
1339,G#4,288.75,0.25,58,120
1340,C#2,289.0,0.25,88,120
1341,B1,289.0,0.25,88,120
1342,A1,289.0,0.25,88,120
1343,A4,289.0,0.25,88,120
1344,B-3,289.0,0.75,56,120
1345,B-3,289.0,0.75,56,120
1346,B-3,289.0,0.75,56,120
1347,B-4,289.0,0.75,56,120
1348,C#2,289.75,0.25,59,120
1349,G#3,289.75,0.25,59,120
1350,G#3,289.75,0.25,59,120
1351,A4,289.75,0.25,59,120
1352,G#3,289.75,0.25,59,120
1353,G#4,289.75,0.25,59,120
1354,C2,290.0,0.25,59,120
1355,B-3,290.0,0.25,59,120
1356,B-3,290.0,0.25,59,120
1357,A4,290.0,0.25,59,120
1358,B-3,290.0,0.25,59,120
1359,B-4,290.0,0.25,59,120
1360,B3,290.25,0.25,56,120
1361,B3,290.25,0.25,56,120
1362,B3,290.25,0.25,56,120
1363,B4,290.25,0.25,56,120
1364,C2,290.5,0.25,64,120
1365,C#4,290.5,0.5,56,120
1366,C#4,290.5,0.5,56,120
1367,C#4,290.5,0.5,56,120
1368,C#5,290.5,0.5,56,120
1369,A4,290.75,0.25,64,120
1370,C#2,291.0,0.25,88,120
1371,B1,291.0,0.25,88,120
1372,A1,291.0,0.25,88,120
1373,A4,291.0,0.25,88,120
1374,B3,291.0,0.5,56,120
1375,B3,291.0,0.5,56,120
1376,B3,291.0,0.5,56,120
1377,B4,291.0,0.5,56,120
1378,B-2,291.5,0.5,51,120
1379,B-3,291.5,0.5,51,120
1380,B-3,291.5,0.5,51,120
1381,B-3,291.5,0.5,51,120
1382,B-4,291.5,0.5,51,120
1383,A4,291.75,0.25,64,120
1384,G#3,300.0,4.0,32,120
1385,C2,300.0,0.25,64,120
1386,C#2,300.0,0.25,64,120
1387,A4,300.0,0.25,64,120
1388,B-2,300.0,4.0,53,120
1389,G#3,300.0,4.0,53,120
1390,B-1,300.0,4.0,53,120
1391,G#4,300.0,1.0,64,120
1392,G#3,300.0,1.0,64,120
1393,G#3,300.0,8.0,32,120
1394,G#2,300.0,8.0,32,120
1395,C2,300.5,0.25,64,120
1396,A4,300.75,0.25,64,120
1397,C#2,301.0,0.25,88,120
1398,B1,301.0,0.25,88,120
1399,A1,301.0,0.25,88,120
1400,A4,301.0,0.25,88,120
1401,C#2,301.75,0.25,64,120
1402,A4,301.75,0.25,64,120
1403,C2,302.0,0.25,64,120
1404,A4,302.0,0.25,64,120
1405,C2,302.5,0.25,64,120
1406,A4,302.75,0.25,64,120
1407,C#2,303.0,0.25,88,120
1408,B1,303.0,0.25,88,120
1409,A1,303.0,0.25,88,120
1410,A4,303.0,0.25,88,120
1411,B-2,303.5,0.5,32,120
1412,A4,303.75,0.25,64,120
1413,F#3,308.0,0.5,64,120
1414,G#3,308.0,3.0,32,120
1415,G#2,308.0,4.0,48,120
1416,G#1,308.0,4.0,48,120
1417,C2,308.0,0.25,64,120
1418,C#2,308.0,0.25,64,120
1419,A4,308.0,0.25,64,120
1420,F3,308.5,3.5,64,120
1421,C2,308.5,0.25,64,120
1422,A4,308.75,0.25,64,120
1423,C#2,309.0,0.25,88,120
1424,B1,309.0,0.25,88,120
1425,A1,309.0,0.25,88,120
1426,A4,309.0,0.25,88,120
1427,C#2,309.75,0.25,64,120
1428,A4,309.75,0.25,64,120
1429,C2,310.0,0.25,64,120
1430,A4,310.0,0.25,64,120
1431,C2,310.5,0.25,64,120
1432,E-3,310.5,0.25,64,120
1433,E-4,310.5,0.25,64,120
1434,A4,310.75,0.25,64,120
1435,E-3,310.75,0.25,64,120
1436,E-4,310.75,0.25,64,120
1437,C#2,311.0,0.25,73,120
1438,B1,311.0,0.25,73,120
1439,A1,311.0,0.25,73,120
1440,A4,311.0,0.25,73,120
1441,E-3,311.0,0.25,73,120
1442,E-3,311.0,0.25,73,120
1443,E-4,311.0,0.25,73,120
1444,F3,311.25,0.25,53,120
1445,F3,311.25,0.25,53,120
1446,F4,311.25,0.25,53,120
1447,B-2,311.5,0.5,32,120
1448,F#3,311.5,0.25,53,120
1449,F#3,311.5,0.25,53,120
1450,F#4,311.5,0.25,53,120
1451,A4,311.75,0.25,56,120
1452,G#3,311.75,0.25,56,120
1453,G#3,311.75,0.25,56,120
1454,G#4,311.75,0.25,56,120
1455,E-4,312.0,4.0,32,120
1456,C2,312.0,0.25,64,120
1457,C#2,312.0,0.25,64,120
1458,A4,312.0,0.25,64,120
1459,B-3,312.0,0.75,56,120
1460,B-3,312.0,0.75,56,120
1461,B-3,312.0,0.75,56,120
1462,B-4,312.0,0.75,56,120
1463,E-2,312.0,4.0,40,120
1464,C#4,312.0,4.0,40,120
1465,E-1,312.0,4.0,40,120
1466,C#3,312.0,4.0,40,120
1467,C2,312.5,0.25,64,120
1468,G#3,312.75,0.25,58,120
1469,G#3,312.75,0.25,58,120
1470,A4,312.75,0.25,58,120
1471,G#3,312.75,0.25,58,120
1472,G#4,312.75,0.25,58,120
1473,C#2,313.0,0.25,88,120
1474,B1,313.0,0.25,88,120
1475,A1,313.0,0.25,88,120
1476,A4,313.0,0.25,88,120
1477,B-3,313.0,0.75,56,120
1478,B-3,313.0,0.75,56,120
1479,B-3,313.0,0.75,56,120
1480,B-4,313.0,0.75,56,120
1481,C#2,313.75,0.25,59,120
1482,G#3,313.75,0.25,59,120
1483,G#3,313.75,0.25,59,120
1484,A4,313.75,0.25,59,120
1485,G#3,313.75,0.25,59,120
1486,G#4,313.75,0.25,59,120
1487,C2,314.0,0.25,64,120
1488,A4,314.0,0.25,64,120
1489,B-3,314.0,0.75,56,120
1490,B-3,314.0,0.75,56,120
1491,B-3,314.0,0.75,56,120
1492,B-4,314.0,0.75,56,120
1493,C2,314.5,0.25,64,120
1494,G#3,314.75,0.25,58,120
1495,G#3,314.75,0.25,58,120
1496,A4,314.75,0.25,58,120
1497,G#3,314.75,0.25,58,120
1498,G#4,314.75,0.25,58,120
1499,C#2,315.0,0.25,88,120
1500,B1,315.0,0.25,88,120
1501,A1,315.0,0.25,88,120
1502,A4,315.0,0.25,88,120
1503,B-3,315.0,0.75,56,120
1504,B-3,315.0,0.75,56,120
1505,B-3,315.0,0.75,56,120
1506,B-4,315.0,0.75,56,120
1507,B-2,315.5,0.5,32,120
1508,G#3,315.75,0.25,58,120
1509,G#3,315.75,0.25,58,120
1510,A4,315.75,0.25,58,120
1511,G#3,315.75,0.25,58,120
1512,G#4,315.75,0.25,58,120
1513,E-4,316.0,4.0,32,120
1514,C2,316.0,0.25,64,120
1515,C#2,316.0,0.25,64,120
1516,A4,316.0,0.25,64,120
1517,B-3,316.0,0.75,56,120
1518,B-3,316.0,0.75,56,120
1519,B-3,316.0,0.75,56,120
1520,B-4,316.0,0.75,56,120
1521,G#2,316.0,4.0,40,120
1522,B3,316.0,4.0,40,120
1523,G#1,316.0,4.0,40,120
1524,B2,316.0,4.0,40,120
1525,C2,316.5,0.25,64,120
1526,G#3,316.75,0.25,58,120
1527,G#3,316.75,0.25,58,120
1528,A4,316.75,0.25,58,120
1529,G#3,316.75,0.25,58,120
1530,G#4,316.75,0.25,58,120
1531,C#2,317.0,0.25,88,120
1532,B1,317.0,0.25,88,120
1533,A1,317.0,0.25,88,120
1534,A4,317.0,0.25,88,120
1535,B-3,317.0,0.75,56,120
1536,B-3,317.0,0.75,56,120
1537,B-3,317.0,0.75,56,120
1538,B-4,317.0,0.75,56,120
1539,C#2,317.75,0.25,59,120
1540,G#3,317.75,0.25,59,120
1541,G#3,317.75,0.25,59,120
1542,A4,317.75,0.25,59,120
1543,G#3,317.75,0.25,59,120
1544,G#4,317.75,0.25,59,120
1545,C2,318.0,0.25,59,120
1546,B-3,318.0,0.25,59,120
1547,B-3,318.0,0.25,59,120
1548,A4,318.0,0.25,59,120
1549,B-3,318.0,0.25,59,120
1550,B-4,318.0,0.25,59,120
1551,B3,318.25,0.25,56,120
1552,B3,318.25,0.25,56,120
1553,B3,318.25,0.25,56,120
1554,B4,318.25,0.25,56,120
1555,C2,318.5,0.25,64,120
1556,C#4,318.5,0.5,56,120
1557,C#4,318.5,0.5,56,120
1558,C#4,318.5,0.5,56,120
1559,C#5,318.5,0.5,56,120
1560,A4,318.75,0.25,64,120
1561,C#2,319.0,0.25,88,120
1562,B1,319.0,0.25,88,120
1563,A1,319.0,0.25,88,120
1564,A4,319.0,0.25,88,120
1565,B3,319.0,0.5,56,120
1566,B3,319.0,0.5,56,120
1567,B3,319.0,0.5,56,120
1568,B4,319.0,0.5,56,120
1569,B-2,319.5,0.5,51,120
1570,B-3,319.5,0.5,51,120
1571,B-3,319.5,0.5,51,120
1572,B-3,319.5,0.5,51,120
1573,B-4,319.5,0.5,51,120
1574,A4,319.75,0.25,64,120
1575,C2,320.0,0.25,64,120
1576,C#2,320.0,0.25,64,120
1577,A4,320.0,0.25,64,120
1578,B-2,320.0,4.0,43,120
1579,G#3,320.0,4.0,43,120
1580,G#3,320.0,4.0,43,120
1581,B-3,320.0,4.0,43,120
1582,B-1,320.0,4.0,43,120
1583,B-2,320.0,4.0,43,120
1584,G#3,320.0,1.0,64,120
1585,G#4,320.0,1.0,64,120
1586,C2,320.5,0.25,64,120
1587,A4,320.75,0.25,64,120
1588,C#2,321.0,0.25,88,120
1589,B1,321.0,0.25,88,120
1590,A1,321.0,0.25,88,120
1591,A4,321.0,0.25,88,120
1592,C#2,321.75,0.25,64,120
1593,A4,321.75,0.25,64,120
1594,C2,322.0,0.25,64,120
1595,A4,322.0,0.25,64,120
1596,C2,322.5,0.25,64,120
1597,A4,322.75,0.25,64,120
1598,C#2,323.0,0.25,88,120
1599,B1,323.0,0.25,88,120
1600,A1,323.0,0.25,88,120
1601,A4,323.0,0.25,88,120
1602,B-2,323.5,0.5,32,120
1603,A4,323.75,0.25,64,120
1604,C2,328.0,0.25,64,120
1605,C#2,328.0,0.25,64,120
1606,A4,328.0,0.25,64,120
1607,B-2,328.0,4.0,43,120
1608,G#3,328.0,4.0,43,120
1609,G#3,328.0,4.0,43,120
1610,B-3,328.0,4.0,43,120
1611,B-1,328.0,4.0,43,120
1612,B-2,328.0,4.0,43,120
1613,C2,328.5,0.25,64,120
1614,A4,328.75,0.25,64,120
1615,C#2,329.0,0.25,88,120
1616,B1,329.0,0.25,88,120
1617,A1,329.0,0.25,88,120
1618,A4,329.0,0.25,88,120
1619,C#2,329.75,0.25,64,120
1620,A4,329.75,0.25,64,120
1621,C2,330.0,0.25,64,120
1622,A4,330.0,0.25,64,120
1623,C2,330.5,0.25,64,120
1624,A4,330.75,0.25,64,120
1625,C#2,331.0,0.25,88,120
1626,B1,331.0,0.25,88,120
1627,A1,331.0,0.25,88,120
1628,A4,331.0,0.25,88,120
1629,B-1,331.5,0.25,64,120
1630,A4,331.75,0.25,64,120
1631,E-3,332.0,4.0,38,120
1632,E-4,332.0,4.0,38,120
1633,E-2,332.0,4.0,38,120
1634,E-2,332.0,4.0,38,120
1635,C2,332.0,0.25,64,120
1636,A4,332.0,0.25,64,120
1637,E-1,332.0,0.25,64,120
1638,E-1,332.25,3.75,64,120
1639,E2,333.0,0.25,32,120
1640,E2,333.75,0.25,32,120
1641,C2,334.0,0.125,29,120
1642,A4,334.0,0.25,64,120
1643,C2,334.25,0.125,23,120
1644,A4,334.25,0.25,64,120
1645,C2,334.5,0.125,13,120
1646,E2,335.0,0.25,32,120
1647,C2,340.0,0.25,64,120
1648,E-1,340.0,4.0,64,120
1649,E-3,340.0,4.0,38,120
1650,E-4,340.0,4.0,38,120
1651,E-2,340.0,4.0,38,120
1652,E-2,340.0,4.0,38,120
1653,E2,341.0,0.25,32,120
1654,E2,341.75,0.25,32,120
1655,C2,342.0,0.125,29,120
1656,A4,342.0,0.25,64,120
1657,C2,342.25,0.125,23,120
1658,A4,342.25,0.25,64,120
1659,C2,342.5,0.125,13,120
1660,E2,343.0,0.25,32,120
1661,G#3,343.75,0.25,64,120
1662,G#4,343.75,0.25,64,120
1663,E-4,344.0,4.0,32,120
1664,C2,344.0,0.25,64,120
1665,A4,344.0,0.25,64,120
1666,C#2,344.0,0.25,64,120
1667,B-3,344.0,0.75,56,120
1668,B-3,344.0,0.75,56,120
1669,B-3,344.0,0.75,56,120
1670,B-4,344.0,0.75,56,120
1671,E-2,344.0,4.0,40,120
1672,E-3,344.0,4.0,40,120
1673,E-1,344.0,4.0,40,120
1674,E-2,344.0,4.0,40,120
1675,C2,344.5,0.25,64,120
1676,A4,344.75,0.25,58,120
1677,G#3,344.75,0.25,58,120
1678,G#3,344.75,0.25,58,120
1679,G#3,344.75,0.25,58,120
1680,G#4,344.75,0.25,58,120
1681,C#2,345.0,0.25,88,120
1682,A4,345.0,0.25,88,120
1683,B1,345.0,0.25,88,120
1684,A1,345.0,0.25,88,120
1685,B-3,345.0,0.75,56,120
1686,B-3,345.0,0.75,56,120
1687,B-3,345.0,0.75,56,120
1688,B-4,345.0,0.75,56,120
1689,C#2,345.75,0.25,59,120
1690,A4,345.75,0.25,59,120
1691,G#3,345.75,0.25,59,120
1692,G#3,345.75,0.25,59,120
1693,G#3,345.75,0.25,59,120
1694,G#4,345.75,0.25,59,120
1695,C2,346.0,0.25,64,120
1696,A4,346.0,0.25,64,120
1697,B-3,346.0,0.75,56,120
1698,B-3,346.0,0.75,56,120
1699,B-3,346.0,0.75,56,120
1700,B-4,346.0,0.75,56,120
1701,C2,346.5,0.25,64,120
1702,A4,346.75,0.25,58,120
1703,G#3,346.75,0.25,58,120
1704,G#3,346.75,0.25,58,120
1705,G#3,346.75,0.25,58,120
1706,G#4,346.75,0.25,58,120
1707,C#2,347.0,0.25,83,120
1708,A4,347.0,0.25,83,120
1709,B1,347.0,0.25,83,120
1710,A1,347.0,0.25,83,120
1711,C#2,347.0,0.25,83,120
1712,B-3,347.0,0.75,56,120
1713,B-3,347.0,0.75,56,120
1714,B-3,347.0,0.75,56,120
1715,B-4,347.0,0.75,56,120
1716,B-2,347.5,0.5,32,120
1717,A4,347.75,0.25,58,120
1718,G#3,347.75,0.25,58,120
1719,G#3,347.75,0.25,58,120
1720,G#3,347.75,0.25,58,120
1721,G#4,347.75,0.25,58,120
1722,E-4,348.0,4.0,32,120
1723,A4,348.0,0.25,64,120
1724,C2,348.0,0.25,64,120
1725,C#2,348.0,0.25,64,120
1726,B-3,348.0,0.75,56,120
1727,B-3,348.0,0.75,56,120
1728,B-3,348.0,0.75,56,120
1729,B-4,348.0,0.75,56,120
1730,G#2,348.0,4.0,48,120
1731,G#1,348.0,4.0,48,120
1732,G#3,348.0,4.0,32,120
1733,G#2,348.0,4.0,32,120
1734,C2,348.5,0.25,64,120
1735,A4,348.75,0.25,58,120
1736,G#3,348.75,0.25,58,120
1737,G#3,348.75,0.25,58,120
1738,G#3,348.75,0.25,58,120
1739,G#4,348.75,0.25,58,120
1740,A4,349.0,0.25,88,120
1741,C#2,349.0,0.25,88,120
1742,B1,349.0,0.25,88,120
1743,A1,349.0,0.25,88,120
1744,B-3,349.0,0.75,56,120
1745,B-3,349.0,0.75,56,120
1746,B-3,349.0,0.75,56,120
1747,B-4,349.0,0.75,56,120
1748,A4,349.75,0.25,59,120
1749,G#3,349.75,0.25,59,120
1750,G#3,349.75,0.25,59,120
1751,C#2,349.75,0.25,59,120
1752,G#3,349.75,0.25,59,120
1753,G#4,349.75,0.25,59,120
1754,A4,350.0,0.25,59,120
1755,B-3,350.0,0.25,59,120
1756,B-3,350.0,0.25,59,120
1757,C2,350.0,0.25,59,120
1758,B-3,350.0,0.25,59,120
1759,B-4,350.0,0.25,59,120
1760,B3,350.25,0.25,56,120
1761,B3,350.25,0.25,56,120
1762,B3,350.25,0.25,56,120
1763,B4,350.25,0.25,56,120
1764,C2,350.5,0.25,64,120
1765,C#4,350.5,0.5,56,120
1766,C#4,350.5,0.5,56,120
1767,C#4,350.5,0.5,56,120
1768,C#5,350.5,0.5,56,120
1769,A4,350.75,0.25,64,120
1770,A4,351.0,0.25,88,120
1771,C#2,351.0,0.25,88,120
1772,B1,351.0,0.25,88,120
1773,A1,351.0,0.25,88,120
1774,B3,351.0,0.5,56,120
1775,B3,351.0,0.5,56,120
1776,B3,351.0,0.5,56,120
1777,B4,351.0,0.5,56,120
1778,B-2,351.5,0.5,32,120
1779,B-3,351.5,0.25,56,120
1780,B-3,351.5,0.25,56,120
1781,B-3,351.5,0.25,56,120
1782,B-4,351.5,0.25,56,120
1783,A4,351.75,0.25,58,120
1784,G#3,351.75,0.25,58,120
1785,G#3,351.75,0.25,58,120
1786,G#3,351.75,0.25,58,120
1787,G#4,351.75,0.25,58,120
1788,A4,360.0,0.25,59,120
1789,F#3,360.0,0.25,59,120
1790,F#3,360.0,0.25,59,120
1791,C2,360.0,0.25,59,120
1792,C#2,360.0,0.25,59,120
1793,F#3,360.0,0.25,59,120
1794,F#4,360.0,0.25,59,120
1795,B-2,360.0,4.0,48,120
1796,B-1,360.0,4.0,48,120
1797,G#3,360.0,8.0,32,120
1798,G#2,360.0,8.0,32,120
1799,F3,360.25,0.25,56,120
1800,F3,360.25,0.25,56,120
1801,F3,360.25,0.25,56,120
1802,F4,360.25,0.25,56,120
1803,E-3,360.5,3.5,64,120
1804,E-3,360.5,3.5,32,120
1805,C2,360.5,0.25,64,120
1806,E-3,360.5,0.5,64,120
1807,E-4,360.5,0.5,64,120
1808,A4,360.75,0.25,64,120
1809,A4,361.0,0.25,88,120
1810,C#2,361.0,0.25,88,120
1811,B1,361.0,0.25,88,120
1812,A1,361.0,0.25,88,120
1813,A4,361.75,0.25,64,120
1814,C#2,361.75,0.25,64,120
1815,A4,362.0,0.25,64,120
1816,C2,362.0,0.25,64,120
1817,C2,362.5,0.25,64,120
1818,A4,362.75,0.25,64,120
1819,A4,363.0,0.25,88,120
1820,C#2,363.0,0.25,88,120
1821,B1,363.0,0.25,88,120
1822,A1,363.0,0.25,88,120
1823,B-2,363.5,0.5,32,120
1824,A4,363.75,0.25,64,120
1825,E-3,368.0,4.0,64,120
1826,E-3,368.0,3.0,32,120
1827,A4,368.0,0.25,64,120
1828,C2,368.0,0.25,64,120
1829,C#2,368.0,0.25,64,120
1830,G#2,368.0,4.0,48,120
1831,G#1,368.0,4.0,48,120
1832,C2,368.5,0.25,64,120
1833,A4,368.75,0.25,64,120
1834,A4,369.0,0.25,88,120
1835,C#2,369.0,0.25,88,120
1836,B1,369.0,0.25,88,120
1837,A1,369.0,0.25,88,120
1838,A4,369.75,0.25,64,120
1839,C#2,369.75,0.25,64,120
1840,A4,370.0,0.25,64,120
1841,C2,370.0,0.25,64,120
1842,C2,370.5,0.25,64,120
1843,A4,370.75,0.25,64,120
1844,A4,371.0,0.25,73,120
1845,E-3,371.0,0.25,73,120
1846,C#2,371.0,0.25,73,120
1847,B1,371.0,0.25,73,120
1848,A1,371.0,0.25,73,120
1849,E-3,371.0,0.25,73,120
1850,E-4,371.0,0.25,73,120
1851,F3,371.25,0.25,53,120
1852,F3,371.25,0.25,53,120
1853,F4,371.25,0.25,53,120
1854,B-2,371.5,0.5,32,120
1855,F#3,371.5,0.25,53,120
1856,F#3,371.5,0.25,53,120
1857,F#4,371.5,0.25,53,120
1858,G#3,371.75,0.25,56,120
1859,A4,371.75,0.25,56,120
1860,G#3,371.75,0.25,56,120
1861,G#4,371.75,0.25,56,120
1862,E-4,372.0,4.0,32,120
1863,E-4,372.0,4.0,34,120
1864,A4,372.0,0.25,64,120
1865,C2,372.0,0.25,64,120
1866,C#2,372.0,0.25,64,120
1867,B-3,372.0,0.75,56,120
1868,B-3,372.0,0.75,56,120
1869,B-3,372.0,0.75,56,120
1870,B-4,372.0,0.75,56,120
1871,E-2,372.0,4.0,40,120
1872,E-3,372.0,4.0,40,120
1873,E-1,372.0,4.0,40,120
1874,E-2,372.0,4.0,40,120
1875,C2,372.5,0.25,64,120
1876,A4,372.75,0.25,58,120
1877,G#3,372.75,0.25,58,120
1878,G#3,372.75,0.25,58,120
1879,G#3,372.75,0.25,58,120
1880,G#4,372.75,0.25,58,120
1881,A4,373.0,0.25,88,120
1882,C#2,373.0,0.25,88,120
1883,B1,373.0,0.25,88,120
1884,A1,373.0,0.25,88,120
1885,B-3,373.0,0.75,56,120
1886,B-3,373.0,0.75,56,120
1887,B-3,373.0,0.75,56,120
1888,B-4,373.0,0.75,56,120
1889,A4,373.75,0.25,59,120
1890,G#3,373.75,0.25,59,120
1891,G#3,373.75,0.25,59,120
1892,C#2,373.75,0.25,59,120
1893,G#3,373.75,0.25,59,120
1894,G#4,373.75,0.25,59,120
1895,A4,374.0,0.25,64,120
1896,C2,374.0,0.25,64,120
1897,B-3,374.0,0.75,56,120
1898,B-3,374.0,0.75,56,120
1899,B-3,374.0,0.75,56,120
1900,B-4,374.0,0.75,56,120
1901,C2,374.5,0.25,64,120
1902,A4,374.75,0.25,58,120
1903,G#3,374.75,0.25,58,120
1904,G#3,374.75,0.25,58,120
1905,G#3,374.75,0.25,58,120
1906,G#4,374.75,0.25,58,120
1907,A4,375.0,0.25,88,120
1908,C#2,375.0,0.25,88,120
1909,B1,375.0,0.25,88,120
1910,A1,375.0,0.25,88,120
1911,B-3,375.0,0.75,56,120
1912,B-3,375.0,0.75,56,120
1913,B-3,375.0,0.75,56,120
1914,B-4,375.0,0.75,56,120
1915,B-2,375.5,0.5,32,120
1916,A4,375.75,0.25,58,120
1917,G#3,375.75,0.25,58,120
1918,G#3,375.75,0.25,58,120
1919,G#3,375.75,0.25,58,120
1920,G#4,375.75,0.25,58,120
1921,E-4,376.0,4.0,32,120
1922,E-4,376.0,28.0,34,120
1923,A4,376.0,0.25,64,120
1924,C2,376.0,0.25,64,120
1925,C#2,376.0,0.25,64,120
1926,B-3,376.0,0.75,56,120
1927,B-3,376.0,0.75,56,120
1928,B-3,376.0,0.75,56,120
1929,B-4,376.0,0.75,56,120
1930,G#2,376.0,4.0,48,120
1931,G#1,376.0,4.0,48,120
1932,G#3,376.0,4.0,32,120
1933,G#2,376.0,4.0,32,120
1934,C2,376.5,0.25,64,120
1935,A4,376.75,0.25,58,120
1936,G#3,376.75,0.25,58,120
1937,G#3,376.75,0.25,58,120
1938,G#3,376.75,0.25,58,120
1939,G#4,376.75,0.25,58,120
1940,A4,377.0,0.25,88,120
1941,C#2,377.0,0.25,88,120
1942,B1,377.0,0.25,88,120
1943,A1,377.0,0.25,88,120
1944,B-3,377.0,0.75,56,120
1945,B-3,377.0,0.75,56,120
1946,B-3,377.0,0.75,56,120
1947,B-4,377.0,0.75,56,120
1948,A4,377.75,0.25,59,120
1949,G#3,377.75,0.25,59,120
1950,G#3,377.75,0.25,59,120
1951,C#2,377.75,0.25,59,120
1952,G#3,377.75,0.25,59,120
1953,G#4,377.75,0.25,59,120
1954,A4,378.0,0.25,59,120
1955,B-3,378.0,0.25,59,120
1956,B-3,378.0,0.25,59,120
1957,C2,378.0,0.25,59,120
1958,B-3,378.0,0.25,59,120
1959,B-4,378.0,0.25,59,120
1960,B3,378.25,0.25,56,120
1961,B3,378.25,0.25,56,120
1962,B3,378.25,0.25,56,120
1963,B4,378.25,0.25,56,120
1964,C2,378.5,0.25,64,120
1965,C#4,378.5,0.5,56,120
1966,C#4,378.5,0.5,56,120
1967,C#4,378.5,0.5,56,120
1968,C#5,378.5,0.5,56,120
1969,A4,378.75,0.25,64,120
1970,A4,379.0,0.25,88,120
1971,C#2,379.0,0.25,88,120
1972,B1,379.0,0.25,88,120
1973,A1,379.0,0.25,88,120
1974,B3,379.0,0.5,56,120
1975,B3,379.0,0.5,56,120
1976,B3,379.0,0.5,56,120
1977,B4,379.0,0.5,56,120
1978,B-2,379.5,0.5,32,120
1979,B-3,379.5,0.25,56,120
1980,B-3,379.5,0.25,56,120
1981,B-3,379.5,0.25,56,120
1982,B-4,379.5,0.25,56,120
1983,A4,379.75,0.25,58,120
1984,G#3,379.75,0.25,58,120
1985,G#3,379.75,0.25,58,120
1986,G#3,379.75,0.25,58,120
1987,G#4,379.75,0.25,58,120
1988,A4,404.0,0.25,59,120
1989,F#3,404.0,0.25,59,120
1990,F#3,404.0,0.25,59,120
1991,C2,404.0,0.25,59,120
1992,C#2,404.0,0.25,59,120
1993,F#3,404.0,0.25,59,120
1994,F#4,404.0,0.25,59,120
1995,B-2,404.0,4.0,48,120
1996,B-1,404.0,4.0,48,120
1997,G#3,404.0,8.0,32,120
1998,G#2,404.0,8.0,32,120
1999,F3,404.25,0.25,56,120
2000,F3,404.25,0.25,56,120
2001,F3,404.25,0.25,56,120
2002,F4,404.25,0.25,56,120
2003,C2,404.5,0.25,64,120
2004,E-3,404.5,0.5,56,120
2005,E-3,404.5,0.5,56,120
2006,E-3,404.5,0.5,56,120
2007,E-4,404.5,0.5,56,120
2008,A4,404.75,0.25,64,120
2009,F3,405.0,3.0,64,120
2010,F3,405.0,1.5,32,120
2011,A4,405.0,0.25,88,120
2012,C#2,405.0,0.25,88,120
2013,B1,405.0,0.25,88,120
2014,A1,405.0,0.25,88,120
2015,F3,405.0,1.0,64,120
2016,F4,405.0,1.0,64,120
2017,A4,405.75,0.25,64,120
2018,C#2,405.75,0.25,64,120
2019,A4,406.0,0.25,64,120
2020,C2,406.0,0.25,64,120
2021,E-3,406.5,0.5,32,120
2022,C2,406.5,0.25,64,120
2023,A4,406.75,0.25,64,120
2024,F3,407.0,1.0,32,120
2025,A4,407.0,0.25,88,120
2026,C#2,407.0,0.25,88,120
2027,B1,407.0,0.25,88,120
2028,A1,407.0,0.25,88,120
2029,B-2,407.5,0.5,32,120
2030,A4,407.75,0.25,64,120
2031,F3,412.0,4.0,64,120
2032,F3,412.0,0.5,32,120
2033,A4,412.0,0.25,64,120
2034,C2,412.0,0.25,64,120
2035,C#2,412.0,0.25,64,120
2036,B-2,412.0,4.0,48,120
2037,B-1,412.0,4.0,48,120
2038,E-3,412.5,0.5,32,120
2039,C2,412.5,0.25,64,120
2040,A4,412.75,0.25,64,120
2041,F3,413.0,1.5,32,120
2042,A4,413.0,0.25,88,120
2043,C#2,413.0,0.25,88,120
2044,B1,413.0,0.25,88,120
2045,A1,413.0,0.25,88,120
2046,A4,413.75,0.25,64,120
2047,C#2,413.75,0.25,64,120
2048,A4,414.0,0.25,64,120
2049,C2,414.0,0.25,64,120
2050,E-3,414.5,0.5,32,120
2051,C2,414.5,0.25,64,120
2052,A4,414.75,0.25,64,120
2053,E-3,414.75,0.25,64,120
2054,E-4,414.75,0.25,64,120
2055,A4,415.0,0.25,73,120
2056,C#2,415.0,0.25,73,120
2057,B1,415.0,0.25,73,120
2058,A1,415.0,0.25,73,120
2059,E-3,415.0,0.25,73,120
2060,E-3,415.0,0.25,73,120
2061,E-4,415.0,0.25,73,120
2062,F3,415.25,0.25,53,120
2063,F3,415.25,0.25,53,120
2064,F4,415.25,0.25,53,120
2065,B-2,415.5,0.5,32,120
2066,F#3,415.5,0.25,53,120
2067,F#3,415.5,0.25,53,120
2068,F#4,415.5,0.25,53,120
2069,A4,415.75,0.25,56,120
2070,G#3,415.75,0.25,56,120
2071,G#3,415.75,0.25,56,120
2072,G#4,415.75,0.25,56,120
2073,E-4,416.0,4.0,32,120
2074,C2,416.0,0.25,64,120
2075,C#2,416.0,0.25,64,120
2076,A4,416.0,0.25,64,120
2077,B-3,416.0,0.75,56,120
2078,B-3,416.0,0.75,56,120
2079,B-3,416.0,0.75,56,120
2080,B-4,416.0,0.75,56,120
2081,F#4,416.0,4.0,40,120
2082,F#3,416.0,4.0,40,120
2083,F#2,416.0,4.0,40,120
2084,F#3,416.0,4.0,40,120
2085,C2,416.5,0.25,64,120
2086,G#3,416.75,0.25,58,120
2087,G#3,416.75,0.25,58,120
2088,A4,416.75,0.25,58,120
2089,G#3,416.75,0.25,58,120
2090,G#4,416.75,0.25,58,120
2091,C#2,417.0,0.25,88,120
2092,B1,417.0,0.25,88,120
2093,A1,417.0,0.25,88,120
2094,A4,417.0,0.25,88,120
2095,B-3,417.0,0.75,56,120
2096,B-3,417.0,0.75,56,120
2097,B-3,417.0,0.75,56,120
2098,B-4,417.0,0.75,56,120
2099,C#2,417.75,0.25,59,120
2100,G#3,417.75,0.25,59,120
2101,G#3,417.75,0.25,59,120
2102,A4,417.75,0.25,59,120
2103,G#3,417.75,0.25,59,120
2104,G#4,417.75,0.25,59,120
2105,C2,418.0,0.25,64,120
2106,A4,418.0,0.25,64,120
2107,B-3,418.0,0.75,56,120
2108,B-3,418.0,0.75,56,120
2109,B-3,418.0,0.75,56,120
2110,B-4,418.0,0.75,56,120
2111,C2,418.5,0.25,64,120
2112,G#3,418.75,0.25,58,120
2113,G#3,418.75,0.25,58,120
2114,A4,418.75,0.25,58,120
2115,G#3,418.75,0.25,58,120
2116,G#4,418.75,0.25,58,120
2117,C#2,419.0,0.25,88,120
2118,B1,419.0,0.25,88,120
2119,A1,419.0,0.25,88,120
2120,A4,419.0,0.25,88,120
2121,B-3,419.0,0.75,56,120
2122,B-3,419.0,0.75,56,120
2123,B-3,419.0,0.75,56,120
2124,B-4,419.0,0.75,56,120
2125,B-2,419.5,0.5,32,120
2126,G#3,419.75,0.25,58,120
2127,G#3,419.75,0.25,58,120
2128,A4,419.75,0.25,58,120
2129,G#3,419.75,0.25,58,120
2130,G#4,419.75,0.25,58,120
2131,E-4,420.0,4.0,32,120
2132,C2,420.0,0.25,64,120
2133,C#2,420.0,0.25,64,120
2134,A4,420.0,0.25,64,120
2135,B-3,420.0,0.75,56,120
2136,B-3,420.0,0.75,56,120
2137,B-3,420.0,0.75,56,120
2138,B-4,420.0,0.75,56,120
2139,G#2,420.0,4.0,48,120
2140,G#1,420.0,4.0,48,120
2141,G#3,420.0,4.0,32,120
2142,G#2,420.0,4.0,32,120
2143,C2,420.5,0.25,64,120
2144,G#3,420.75,0.25,58,120
2145,G#3,420.75,0.25,58,120
2146,A4,420.75,0.25,58,120
2147,G#3,420.75,0.25,58,120
2148,G#4,420.75,0.25,58,120
2149,C#2,421.0,0.25,88,120
2150,B1,421.0,0.25,88,120
2151,A1,421.0,0.25,88,120
2152,A4,421.0,0.25,88,120
2153,B-3,421.0,0.75,56,120
2154,B-3,421.0,0.75,56,120
2155,B-3,421.0,0.75,56,120
2156,B-4,421.0,0.75,56,120
2157,C#2,421.75,0.25,59,120
2158,G#3,421.75,0.25,59,120
2159,G#3,421.75,0.25,59,120
2160,A4,421.75,0.25,59,120
2161,G#3,421.75,0.25,59,120
2162,G#4,421.75,0.25,59,120
2163,C2,422.0,0.25,59,120
2164,B-3,422.0,0.25,59,120
2165,B-3,422.0,0.25,59,120
2166,A4,422.0,0.25,59,120
2167,B-3,422.0,0.25,59,120
2168,B-4,422.0,0.25,59,120
2169,B3,422.25,0.25,56,120
2170,B3,422.25,0.25,56,120
2171,B3,422.25,0.25,56,120
2172,B4,422.25,0.25,56,120
2173,C2,422.5,0.25,64,120
2174,C#4,422.5,0.5,56,120
2175,C#4,422.5,0.5,56,120
2176,C#5,422.5,0.5,56,120
2177,C#4,422.5,0.5,56,120
2178,A4,422.75,0.25,64,120
2179,C#2,423.0,0.25,88,120
2180,B1,423.0,0.25,88,120
2181,A1,423.0,0.25,88,120
2182,A4,423.0,0.25,88,120
2183,B3,423.0,0.5,56,120
2184,B3,423.0,0.5,56,120
2185,B4,423.0,0.5,56,120
2186,B3,423.0,0.5,56,120
2187,B-2,423.5,0.5,51,120
2188,B-3,423.5,0.5,51,120
2189,B-3,423.5,0.5,51,120
2190,B-4,423.5,0.5,51,120
2191,B-3,423.5,0.5,51,120
2192,A4,423.75,0.25,64,120
2193,G#3,432.0,4.0,32,120
2194,C2,432.0,0.25,64,120
2195,C#2,432.0,0.25,64,120
2196,A4,432.0,0.25,64,120
2197,B-2,432.0,4.0,53,120
2198,G#3,432.0,4.0,53,120
2199,B-1,432.0,4.0,53,120
2200,G#4,432.0,1.0,64,120
2201,G#3,432.0,1.0,64,120
2202,G#3,432.0,8.0,32,120
2203,G#2,432.0,8.0,32,120
2204,C2,432.5,0.25,64,120
2205,A4,432.75,0.25,64,120
2206,C#2,433.0,0.25,88,120
2207,B1,433.0,0.25,88,120
2208,A1,433.0,0.25,88,120
2209,A4,433.0,0.25,88,120
2210,C#2,433.75,0.25,64,120
2211,A4,433.75,0.25,64,120
2212,C2,434.0,0.25,64,120
2213,A4,434.0,0.25,64,120
2214,C2,434.5,0.25,64,120
2215,A4,434.75,0.25,64,120
2216,C#2,435.0,0.25,88,120
2217,B1,435.0,0.25,88,120
2218,A1,435.0,0.25,88,120
2219,A4,435.0,0.25,88,120
2220,B-2,435.5,0.5,32,120
2221,A4,435.75,0.25,64,120
2222,F#3,440.0,0.5,64,120
2223,G#3,440.0,3.0,32,120
2224,G#2,440.0,4.0,48,120
2225,G#1,440.0,4.0,48,120
2226,C2,440.0,0.25,64,120
2227,C#2,440.0,0.25,64,120
2228,A4,440.0,0.25,64,120
2229,F3,440.5,3.5,64,120
2230,C2,440.5,0.25,64,120
2231,A4,440.75,0.25,64,120
2232,C#2,441.0,0.25,88,120
2233,B1,441.0,0.25,88,120
2234,A1,441.0,0.25,88,120
2235,A4,441.0,0.25,88,120
2236,C#2,441.75,0.25,64,120
2237,A4,441.75,0.25,64,120
2238,C2,442.0,0.25,64,120
2239,A4,442.0,0.25,64,120
2240,C2,442.5,0.25,64,120
2241,A4,442.75,0.25,64,120
2242,E-3,442.75,0.25,64,120
2243,E-4,442.75,0.25,64,120
2244,C#2,443.0,0.25,73,120
2245,B1,443.0,0.25,73,120
2246,A1,443.0,0.25,73,120
2247,A4,443.0,0.25,73,120
2248,E-3,443.0,0.25,73,120
2249,E-3,443.0,0.25,73,120
2250,E-4,443.0,0.25,73,120
2251,F3,443.25,0.25,53,120
2252,F3,443.25,0.25,53,120
2253,F4,443.25,0.25,53,120
2254,B-2,443.5,0.5,32,120
2255,F#3,443.5,0.25,53,120
2256,F#3,443.5,0.25,53,120
2257,F#4,443.5,0.25,53,120
2258,A4,443.75,0.25,56,120
2259,G#3,443.75,0.25,56,120
2260,G#3,443.75,0.25,56,120
2261,G#4,443.75,0.25,56,120
2262,E-4,444.0,4.0,32,120
2263,C2,444.0,0.25,64,120
2264,C#2,444.0,0.25,64,120
2265,A4,444.0,0.25,64,120
2266,B-3,444.0,0.75,56,120
2267,B-3,444.0,0.75,56,120
2268,B-3,444.0,0.75,56,120
2269,B-4,444.0,0.75,56,120
2270,E-2,444.0,4.0,40,120
2271,C#4,444.0,4.0,40,120
2272,E-1,444.0,4.0,40,120
2273,C#3,444.0,4.0,40,120
2274,C2,444.5,0.25,64,120
2275,G#3,444.75,0.25,58,120
2276,G#3,444.75,0.25,58,120
2277,A4,444.75,0.25,58,120
2278,G#3,444.75,0.25,58,120
2279,G#4,444.75,0.25,58,120
2280,C#2,445.0,0.25,88,120
2281,B1,445.0,0.25,88,120
2282,A1,445.0,0.25,88,120
2283,A4,445.0,0.25,88,120
2284,B-3,445.0,0.75,56,120
2285,B-3,445.0,0.75,56,120
2286,B-3,445.0,0.75,56,120
2287,B-4,445.0,0.75,56,120
2288,C#2,445.75,0.25,59,120
2289,G#3,445.75,0.25,59,120
2290,G#3,445.75,0.25,59,120
2291,A4,445.75,0.25,59,120
2292,G#3,445.75,0.25,59,120
2293,G#4,445.75,0.25,59,120
2294,C2,446.0,0.25,64,120
2295,A4,446.0,0.25,64,120
2296,B-3,446.0,0.75,56,120
2297,B-3,446.0,0.75,56,120
2298,B-3,446.0,0.75,56,120
2299,B-4,446.0,0.75,56,120
2300,C2,446.5,0.25,64,120
2301,G#3,446.75,0.25,58,120
2302,G#3,446.75,0.25,58,120
2303,A4,446.75,0.25,58,120
2304,G#3,446.75,0.25,58,120
2305,G#4,446.75,0.25,58,120
2306,C#2,447.0,0.25,88,120
2307,B1,447.0,0.25,88,120
2308,A1,447.0,0.25,88,120
2309,A4,447.0,0.25,88,120
2310,B-3,447.0,0.75,56,120
2311,B-3,447.0,0.75,56,120
2312,B-3,447.0,0.75,56,120
2313,B-4,447.0,0.75,56,120
2314,B-2,447.5,0.5,32,120
2315,G#3,447.75,0.25,58,120
2316,G#3,447.75,0.25,58,120
2317,A4,447.75,0.25,58,120
2318,G#3,447.75,0.25,58,120
2319,G#4,447.75,0.25,58,120
2320,E-4,448.0,4.0,32,120
2321,C2,448.0,0.25,64,120
2322,C#2,448.0,0.25,64,120
2323,A4,448.0,0.25,64,120
2324,B-3,448.0,0.75,56,120
2325,B-3,448.0,0.75,56,120
2326,B-3,448.0,0.75,56,120
2327,B-4,448.0,0.75,56,120
2328,G#2,448.0,4.0,40,120
2329,B3,448.0,4.0,40,120
2330,G#1,448.0,4.0,40,120
2331,B2,448.0,4.0,40,120
2332,C2,448.5,0.25,64,120
2333,G#3,448.75,0.25,58,120
2334,G#3,448.75,0.25,58,120
2335,A4,448.75,0.25,58,120
2336,G#3,448.75,0.25,58,120
2337,G#4,448.75,0.25,58,120
2338,C#2,449.0,0.25,88,120
2339,B1,449.0,0.25,88,120
2340,A1,449.0,0.25,88,120
2341,A4,449.0,0.25,88,120
2342,B-3,449.0,0.75,56,120
2343,B-3,449.0,0.75,56,120
2344,B-3,449.0,0.75,56,120
2345,B-4,449.0,0.75,56,120
2346,C#2,449.75,0.25,59,120
2347,G#3,449.75,0.25,59,120
2348,G#3,449.75,0.25,59,120
2349,A4,449.75,0.25,59,120
2350,G#3,449.75,0.25,59,120
2351,G#4,449.75,0.25,59,120
2352,C2,450.0,0.25,59,120
2353,B-3,450.0,0.25,59,120
2354,B-3,450.0,0.25,59,120
2355,A4,450.0,0.25,59,120
2356,B-3,450.0,0.25,59,120
2357,B-4,450.0,0.25,59,120
2358,B3,450.25,0.25,56,120
2359,B3,450.25,0.25,56,120
2360,B3,450.25,0.25,56,120
2361,B4,450.25,0.25,56,120
2362,C2,450.5,0.25,64,120
2363,C#4,450.5,0.5,56,120
2364,C#4,450.5,0.5,56,120
2365,C#5,450.5,0.5,56,120
2366,C#4,450.5,0.5,56,120
2367,A4,450.75,0.25,64,120
2368,C#2,451.0,0.25,88,120
2369,B1,451.0,0.25,88,120
2370,A1,451.0,0.25,88,120
2371,A4,451.0,0.25,88,120
2372,B3,451.0,0.5,56,120
2373,B4,451.0,0.5,56,120
2374,B3,451.0,0.5,56,120
2375,B3,451.0,0.5,56,120
2376,B-2,451.5,0.5,51,120
2377,B-3,451.5,0.5,51,120
2378,B-4,451.5,0.5,51,120
2379,B-3,451.5,0.5,51,120
2380,B-3,451.5,0.5,51,120
2381,A4,451.75,0.25,64,120
2382,C2,452.0,0.25,64,120
2383,C#2,452.0,0.25,64,120
2384,A4,452.0,0.25,64,120
2385,B-2,452.0,4.0,43,120
2386,G#3,452.0,4.0,43,120
2387,G#3,452.0,4.0,43,120
2388,B-3,452.0,4.0,43,120
2389,B-1,452.0,4.0,43,120
2390,B-2,452.0,4.0,43,120
2391,G#3,452.0,4.0,64,120
2392,G#4,452.0,4.0,64,120
2393,C2,452.5,0.25,64,120
2394,A4,452.75,0.25,64,120
2395,C#2,453.0,0.25,88,120
2396,B1,453.0,0.25,88,120
2397,A1,453.0,0.25,88,120
2398,A4,453.0,0.25,88,120
2399,C#2,453.75,0.25,64,120
2400,A4,453.75,0.25,64,120
2401,C2,454.0,0.25,64,120
2402,A4,454.0,0.25,64,120
2403,C2,454.5,0.25,64,120
2404,A4,454.75,0.25,64,120
2405,C#2,455.0,0.25,88,120
2406,B1,455.0,0.25,88,120
2407,A1,455.0,0.25,88,120
2408,A4,455.0,0.25,88,120
2409,B-2,455.5,0.5,32,120
2410,A4,455.75,0.25,64,120
2411,C2,460.0,0.25,64,120
2412,C#2,460.0,0.25,64,120
2413,A4,460.0,0.25,64,120
2414,B-2,460.0,4.0,43,120
2415,G#3,460.0,4.0,43,120
2416,G#3,460.0,4.0,43,120
2417,B-3,460.0,4.0,43,120
2418,B-1,460.0,4.0,43,120
2419,B-2,460.0,4.0,43,120
2420,G#3,460.0,3.5,64,120
2421,G#4,460.0,3.5,64,120
2422,C2,460.5,0.25,64,120
2423,A4,460.75,0.25,64,120
2424,C#2,461.0,0.25,88,120
2425,B1,461.0,0.25,88,120
2426,A1,461.0,0.25,88,120
2427,A4,461.0,0.25,88,120
2428,C#2,461.75,0.25,64,120
2429,A4,461.75,0.25,64,120
2430,C2,462.0,0.25,64,120
2431,A4,462.0,0.25,64,120
2432,C2,462.5,0.25,64,120
2433,A4,462.75,0.25,64,120
2434,C#2,463.0,0.25,88,120
2435,B1,463.0,0.25,88,120
2436,A1,463.0,0.25,88,120
2437,A4,463.0,0.25,88,120
2438,B-1,463.5,0.25,64,120
2439,G#3,463.5,0.5,39,120
2440,G#3,463.5,0.5,39,120
2441,G#4,463.5,0.5,39,120
2442,A4,463.75,0.25,64,120
2443,E-1,464.0,0.25,64,120
2444,C2,464.0,0.25,64,120
2445,C#2,464.0,0.25,64,120
2446,A4,464.0,0.25,64,120
2447,B-3,464.0,0.75,48,120
2448,B-3,464.0,0.75,48,120
2449,E-3,464.0,4.0,29,120
2450,B-3,464.0,4.0,29,120
2451,E-4,464.0,4.0,29,120
2452,E-3,464.0,4.0,29,120
2453,E-5,464.0,4.0,54,120
2454,E-4,464.0,4.0,54,120
2455,E-4,464.0,4.0,54,120
2456,E-5,464.0,4.0,54,120
2457,E-4,464.0,4.0,54,120
2458,E-1,464.25,3.75,64,120
2459,C2,464.5,0.25,64,120
2460,F3,464.5,0.5,32,120
2461,G#3,464.75,0.25,53,120
2462,A4,464.75,0.25,53,120
2463,G#3,464.75,0.25,53,120
2464,G#3,465.0,0.5,32,120
2465,B-3,465.0,0.75,48,120
2466,B-3,465.0,0.75,48,120
2467,C#2,465.0,0.25,88,120
2468,B1,465.0,0.25,88,120
2469,A1,465.0,0.25,88,120
2470,A4,465.0,0.25,88,120
2471,C#4,465.5,1.0,32,120
2472,G#3,465.75,0.25,56,120
2473,C#2,465.75,0.25,56,120
2474,A4,465.75,0.25,56,120
2475,G#3,465.75,0.25,56,120
2476,B-3,466.0,0.75,48,120
2477,B-3,466.0,0.75,48,120
2478,C2,466.0,0.25,64,120
2479,A4,466.0,0.25,64,120
2480,C2,466.5,0.25,64,120
2481,E-4,466.5,1.5,32,120
2482,G#3,466.75,0.25,53,120
2483,A4,466.75,0.25,53,120
2484,G#3,466.75,0.25,53,120
2485,B-3,467.0,0.75,48,120
2486,B-3,467.0,0.75,48,120
2487,C#2,467.0,0.25,88,120
2488,B1,467.0,0.25,88,120
2489,A1,467.0,0.25,88,120
2490,A4,467.0,0.25,88,120
2491,B-2,467.5,0.5,32,120
2492,G#3,467.75,0.25,53,120
2493,A4,467.75,0.25,53,120
2494,G#3,467.75,0.25,53,120
2495,E-1,480.0,4.0,64,120
2496,E-4,480.0,0.5,32,120
2497,B-3,480.0,0.75,48,120
2498,B-3,480.0,0.75,48,120
2499,C2,480.0,0.25,64,120
2500,C#2,480.0,0.25,64,120
2501,A4,480.0,0.25,64,120
2502,E-4,480.0,4.0,47,120
2503,E-5,480.0,4.0,47,120
2504,E-4,480.0,4.0,47,120
2505,E-5,480.0,4.0,47,120
2506,B-3,480.0,4.0,47,120
2507,E-4,480.0,4.0,47,120
2508,E-3,480.0,12.0,29,120
2509,B-3,480.0,12.0,29,120
2510,E-4,480.0,12.0,29,120
2511,E-3,480.0,12.0,29,120
2512,C2,480.5,0.25,64,120
2513,F3,480.5,0.5,32,120
2514,G#3,480.75,0.25,53,120
2515,A4,480.75,0.25,53,120
2516,G#3,480.75,0.25,53,120
2517,G#3,481.0,0.5,32,120
2518,B-3,481.0,0.75,48,120
2519,B-3,481.0,0.75,48,120
2520,C#2,481.0,0.25,88,120
2521,B1,481.0,0.25,88,120
2522,A1,481.0,0.25,88,120
2523,A4,481.0,0.25,88,120
2524,C#4,481.5,1.0,32,120
2525,G#3,481.75,0.25,56,120
2526,C#2,481.75,0.25,56,120
2527,A4,481.75,0.25,56,120
2528,G#3,481.75,0.25,56,120
2529,B-3,482.0,0.25,56,120
2530,C2,482.0,0.25,56,120
2531,A4,482.0,0.25,56,120
2532,B-3,482.0,0.25,56,120
2533,B3,482.25,0.25,48,120
2534,B3,482.25,0.25,48,120
2535,C2,482.5,0.25,64,120
2536,E-4,482.5,1.5,32,120
2537,C#4,482.5,0.5,48,120
2538,C#4,482.5,0.5,48,120
2539,A4,482.75,0.25,64,120
2540,B3,483.0,0.5,48,120
2541,B3,483.0,0.5,48,120
2542,C#2,483.0,0.25,88,120
2543,B1,483.0,0.25,88,120
2544,A1,483.0,0.25,88,120
2545,A4,483.0,0.25,88,120
2546,B-2,483.5,0.5,32,120
2547,B-3,483.5,0.25,48,120
2548,B-3,483.5,0.25,48,120
2549,A4,483.75,0.25,53,120
2550,G#3,483.75,0.25,53,120
2551,G#3,483.75,0.25,53,120
2552,F#3,492.0,0.25,59,120
2553,C2,492.0,0.25,59,120
2554,C#2,492.0,0.25,59,120
2555,A4,492.0,0.25,59,120
2556,E-1,492.0,0.25,59,120
2557,F#3,492.0,0.25,59,120
2558,E-5,492.0,4.0,32,120
2559,E-4,492.0,4.0,32,120
2560,E-5,492.0,4.0,44,120
2561,E-4,492.0,4.0,44,120
2562,E-4,492.0,4.0,44,120
2563,E-1,492.25,3.75,64,120
2564,F3,492.25,0.25,48,120
2565,F3,492.25,0.25,48,120
2566,C2,492.5,0.25,64,120
2567,E-3,492.5,3.5,48,120
2568,E-3,492.5,3.5,48,120
2569,F3,492.5,0.5,64,120
2570,F3,492.5,0.5,64,120
2571,A4,492.75,0.25,64,120
2572,C#2,493.0,0.25,88,120
2573,B1,493.0,0.25,88,120
2574,A1,493.0,0.25,88,120
2575,A4,493.0,0.25,88,120
2576,G#3,493.0,0.5,64,120
2577,G#3,493.0,0.5,64,120
2578,C#4,493.5,1.0,64,120
2579,C#4,493.5,1.0,64,120
2580,C#2,493.75,0.25,64,120
2581,A4,493.75,0.25,64,120
2582,C2,494.0,0.25,64,120
2583,A4,494.0,0.25,64,120
2584,C2,494.5,0.25,64,120
2585,E-4,494.5,1.5,64,120
2586,E-4,494.5,1.5,64,120
2587,A4,494.75,0.25,64,120
2588,C#2,495.0,0.25,88,120
2589,B1,495.0,0.25,88,120
2590,A1,495.0,0.25,88,120
2591,A4,495.0,0.25,88,120
2592,B-1,495.5,0.25,64,120
2593,A4,495.75,0.25,64,120
2594,E-1,500.0,4.0,64,120
2595,C2,500.0,0.25,64,120
2596,C#2,500.0,0.25,64,120
2597,A4,500.0,0.25,64,120
2598,E-3,500.0,4.0,48,120
2599,E-3,500.0,4.0,48,120
2600,E-5,500.0,4.0,32,120
2601,E-4,500.0,4.0,32,120
2602,E-5,500.0,3.5,44,120
2603,E-4,500.0,3.5,44,120
2604,E-4,500.0,3.5,44,120
2605,E-4,500.0,0.5,64,120
2606,E-4,500.0,0.5,64,120
2607,C2,500.5,0.25,64,120
2608,F3,500.5,0.5,64,120
2609,F3,500.5,0.5,64,120
2610,A4,500.75,0.25,64,120
2611,C#2,501.0,0.25,88,120
2612,B1,501.0,0.25,88,120
2613,A1,501.0,0.25,88,120
2614,A4,501.0,0.25,88,120
2615,G#3,501.0,0.5,64,120
2616,G#3,501.0,0.5,64,120
2617,C#4,501.5,1.0,64,120
2618,C#4,501.5,1.0,64,120
2619,C#2,501.75,0.25,64,120
2620,A4,501.75,0.25,64,120
2621,C2,502.0,0.25,64,120
2622,A4,502.0,0.25,64,120
2623,C2,502.5,0.25,64,120
2624,E-4,502.5,1.5,64,120
2625,E-4,502.5,1.5,64,120
2626,A4,502.75,0.25,64,120
2627,C#2,503.0,0.25,88,120
2628,B1,503.0,0.25,88,120
2629,A1,503.0,0.25,88,120
2630,A4,503.0,0.25,88,120
2631,B-2,503.5,0.5,38,120
2632,G#3,503.5,0.5,38,120
2633,G#4,503.5,0.5,38,120
2634,G#3,503.5,0.5,38,120
2635,A4,503.75,0.25,64,120
2636,E-1,504.0,0.25,64,120
2637,C2,504.0,0.25,64,120
2638,C#2,504.0,0.25,64,120
2639,A4,504.0,0.25,64,120
2640,B-3,504.0,0.75,48,120
2641,B-3,504.0,0.75,48,120
2642,E-3,504.0,4.0,29,120
2643,B-3,504.0,4.0,29,120
2644,E-4,504.0,4.0,29,120
2645,E-3,504.0,4.0,29,120
2646,E-5,504.0,4.0,47,120
2647,E-4,504.0,4.0,47,120
2648,E-4,504.0,4.0,47,120
2649,E-5,504.0,4.0,47,120
2650,E-4,504.0,4.0,47,120
2651,E-6,504.0,4.0,47,120
2652,E-1,504.25,3.75,64,120
2653,C2,504.5,0.25,64,120
2654,F3,504.5,0.5,32,120
2655,G#3,504.75,0.25,53,120
2656,A4,504.75,0.25,53,120
2657,G#3,504.75,0.25,53,120
2658,G#3,505.0,0.5,32,120
2659,B-3,505.0,0.75,48,120
2660,B-3,505.0,0.75,48,120
2661,C#2,505.0,0.25,88,120
2662,B1,505.0,0.25,88,120
2663,A1,505.0,0.25,88,120
2664,A4,505.0,0.25,88,120
2665,C#4,505.5,1.0,32,120
2666,G#3,505.75,0.25,56,120
2667,C#2,505.75,0.25,56,120
2668,A4,505.75,0.25,56,120
2669,G#3,505.75,0.25,56,120
2670,B-3,506.0,0.75,48,120
2671,B-3,506.0,0.75,48,120
2672,C2,506.0,0.25,64,120
2673,A4,506.0,0.25,64,120
2674,C2,506.5,0.25,64,120
2675,E-4,506.5,1.5,32,120
2676,G#3,506.75,0.25,53,120
2677,A4,506.75,0.25,53,120
2678,G#3,506.75,0.25,53,120
2679,B-3,507.0,0.75,48,120
2680,B-3,507.0,0.75,48,120
2681,C#2,507.0,0.25,88,120
2682,B1,507.0,0.25,88,120
2683,A1,507.0,0.25,88,120
2684,A4,507.0,0.25,88,120
2685,B-2,507.5,0.5,32,120
2686,G#3,507.75,0.25,53,120
2687,A4,507.75,0.25,53,120
2688,G#3,507.75,0.25,53,120
2689,E-1,520.0,4.0,64,120
2690,E-4,520.0,0.5,32,120
2691,B-3,520.0,0.75,48,120
2692,B-3,520.0,0.75,48,120
2693,C2,520.0,0.25,64,120
2694,C#2,520.0,0.25,64,120
2695,A4,520.0,0.25,64,120
2696,E-4,520.0,4.0,43,120
2697,E-4,520.0,4.0,43,120
2698,E-5,520.0,4.0,43,120
2699,E-6,520.0,4.0,43,120
2700,E-5,520.0,4.0,43,120
2701,B-3,520.0,4.0,43,120
2702,E-4,520.0,4.0,43,120
2703,E-3,520.0,12.0,29,120
2704,B-3,520.0,12.0,29,120
2705,E-4,520.0,12.0,29,120
2706,E-3,520.0,12.0,29,120
2707,C2,520.5,0.25,64,120
2708,F3,520.5,0.5,32,120
2709,G#3,520.75,0.25,53,120
2710,A4,520.75,0.25,53,120
2711,G#3,520.75,0.25,53,120
2712,G#3,521.0,0.5,32,120
2713,B-3,521.0,0.75,48,120
2714,B-3,521.0,0.75,48,120
2715,C#2,521.0,0.25,88,120
2716,B1,521.0,0.25,88,120
2717,A1,521.0,0.25,88,120
2718,A4,521.0,0.25,88,120
2719,C#4,521.5,1.0,32,120
2720,G#3,521.75,0.25,56,120
2721,C#2,521.75,0.25,56,120
2722,A4,521.75,0.25,56,120
2723,G#3,521.75,0.25,56,120
2724,B-3,522.0,0.25,56,120
2725,C2,522.0,0.25,56,120
2726,A4,522.0,0.25,56,120
2727,B-3,522.0,0.25,56,120
2728,B3,522.25,0.25,48,120
2729,B3,522.25,0.25,48,120
2730,C2,522.5,0.25,64,120
2731,E-4,522.5,1.5,32,120
2732,C#4,522.5,0.5,48,120
2733,C#4,522.5,0.5,48,120
2734,A4,522.75,0.25,64,120
2735,B3,523.0,0.5,48,120
2736,B3,523.0,0.5,48,120
2737,C#2,523.0,0.25,88,120
2738,B1,523.0,0.25,88,120
2739,A1,523.0,0.25,88,120
2740,A4,523.0,0.25,88,120
2741,B-2,523.5,0.5,32,120
2742,B-3,523.5,0.25,48,120
2743,B-3,523.5,0.25,48,120
2744,A4,523.75,0.25,53,120
2745,G#3,523.75,0.25,53,120
2746,G#3,523.75,0.25,53,120
2747,F#3,532.0,0.25,59,120
2748,C2,532.0,0.25,59,120
2749,C#2,532.0,0.25,59,120
2750,A4,532.0,0.25,59,120
2751,E-1,532.0,0.25,59,120
2752,F#3,532.0,0.25,59,120
2753,E-5,532.0,4.0,36,120
2754,E-4,532.0,4.0,36,120
2755,E-4,532.0,4.0,36,120
2756,E-5,532.0,4.0,36,120
2757,E-4,532.0,4.0,36,120
2758,E-6,532.0,4.0,36,120
2759,E-1,532.25,3.75,64,120
2760,F3,532.25,0.25,48,120
2761,F3,532.25,0.25,48,120
2762,C2,532.5,0.25,64,120
2763,E-3,532.5,3.5,48,120
2764,E-3,532.5,3.5,48,120
2765,F3,532.5,0.5,64,120
2766,F3,532.5,0.5,64,120
2767,A4,532.75,0.25,64,120
2768,C#2,533.0,0.25,88,120
2769,B1,533.0,0.25,88,120
2770,A1,533.0,0.25,88,120
2771,A4,533.0,0.25,88,120
2772,G#3,533.0,0.5,64,120
2773,G#3,533.0,0.5,64,120
2774,C#4,533.5,1.0,64,120
2775,C#4,533.5,1.0,64,120
2776,C#2,533.75,0.25,64,120
2777,A4,533.75,0.25,64,120
2778,C2,534.0,0.25,64,120
2779,A4,534.0,0.25,64,120
2780,C2,534.5,0.25,64,120
2781,E-4,534.5,1.5,64,120
2782,E-4,534.5,1.5,64,120
2783,A4,534.75,0.25,64,120
2784,C#2,535.0,0.25,88,120
2785,B1,535.0,0.25,88,120
2786,A1,535.0,0.25,88,120
2787,A4,535.0,0.25,88,120
2788,B-1,535.5,0.25,64,120
2789,A4,535.75,0.25,64,120
2790,E-1,540.0,4.0,64,120
2791,C2,540.0,0.25,64,120
2792,C#2,540.0,0.25,64,120
2793,A4,540.0,0.25,64,120
2794,E-3,540.0,4.0,48,120
2795,E-3,540.0,4.0,48,120
2796,E-5,540.0,4.0,36,120
2797,E-4,540.0,4.0,36,120
2798,E-4,540.0,4.0,36,120
2799,E-5,540.0,4.0,36,120
2800,E-4,540.0,4.0,36,120
2801,E-6,540.0,4.0,36,120
2802,E-4,540.0,0.5,64,120
2803,E-4,540.0,0.5,64,120
2804,C2,540.5,0.25,64,120
2805,F3,540.5,0.5,64,120
2806,F3,540.5,0.5,64,120
2807,A4,540.75,0.25,64,120
2808,C#2,541.0,0.25,88,120
2809,B1,541.0,0.25,88,120
2810,A1,541.0,0.25,88,120
2811,A4,541.0,0.25,88,120
2812,G#3,541.0,0.5,64,120
2813,G#3,541.0,0.5,64,120
2814,C#4,541.5,1.0,64,120
2815,C#4,541.5,1.0,64,120
2816,C#2,541.75,0.25,64,120
2817,A4,541.75,0.25,64,120
2818,C2,542.0,0.25,64,120
2819,A4,542.0,0.25,64,120
2820,C2,542.5,0.25,64,120
2821,E-4,542.5,1.5,64,120
2822,E-4,542.5,1.5,64,120
2823,A4,542.75,0.25,64,120
2824,C#2,543.0,0.25,88,120
2825,B1,543.0,0.25,88,120
2826,A1,543.0,0.25,88,120
2827,A4,543.0,0.25,88,120
2828,B-2,543.5,0.5,32,120
2829,A4,543.75,0.25,64,120
2830,E-4,544.0,4.0,32,120
2831,C2,544.0,0.25,64,120
2832,A4,544.0,0.25,64,120
2833,C#2,544.0,0.25,64,120
2834,B-3,544.0,0.75,58,120
2835,B-3,544.0,0.75,58,120
2836,B-3,544.0,0.75,58,120
2837,B-4,544.0,0.75,58,120
2838,E-4,544.0,0.75,58,120
2839,E-2,544.0,4.0,43,120
2840,E-3,544.0,4.0,43,120
2841,E-1,544.0,4.0,43,120
2842,C2,544.5,0.25,64,120
2843,F3,544.5,0.5,32,120
2844,F3,544.5,0.5,32,120
2845,A4,544.75,0.25,59,120
2846,G#3,544.75,0.25,59,120
2847,G#3,544.75,0.25,59,120
2848,G#3,544.75,0.25,59,120
2849,G#4,544.75,0.25,59,120
2850,E-4,544.75,0.25,59,120
2851,C#2,545.0,0.25,88,120
2852,A4,545.0,0.25,88,120
2853,B1,545.0,0.25,88,120
2854,A1,545.0,0.25,88,120
2855,B-3,545.0,0.75,58,120
2856,B-3,545.0,0.75,58,120
2857,B-3,545.0,0.75,58,120
2858,B-4,545.0,0.75,58,120
2859,E-4,545.0,0.75,58,120
2860,G#3,545.0,0.5,32,120
2861,G#3,545.0,0.5,32,120
2862,C#4,545.5,1.0,32,120
2863,C#4,545.5,1.0,32,120
2864,C#2,545.75,0.25,59,120
2865,A4,545.75,0.25,59,120
2866,G#3,545.75,0.25,59,120
2867,G#3,545.75,0.25,59,120
2868,G#3,545.75,0.25,59,120
2869,G#4,545.75,0.25,59,120
2870,E-4,545.75,0.25,59,120
2871,C2,546.0,0.25,64,120
2872,A4,546.0,0.25,64,120
2873,B-3,546.0,0.75,58,120
2874,B-3,546.0,0.75,58,120
2875,B-3,546.0,0.75,58,120
2876,B-4,546.0,0.75,58,120
2877,E-4,546.0,0.75,58,120
2878,C2,546.5,0.25,64,120
2879,E-4,546.5,1.5,32,120
2880,E-4,546.5,1.5,32,120
2881,A4,546.75,0.25,59,120
2882,G#3,546.75,0.25,59,120
2883,G#3,546.75,0.25,59,120
2884,G#3,546.75,0.25,59,120
2885,G#4,546.75,0.25,59,120
2886,E-4,546.75,0.25,59,120
2887,C#2,547.0,0.25,83,120
2888,A4,547.0,0.25,83,120
2889,B1,547.0,0.25,83,120
2890,A1,547.0,0.25,83,120
2891,C#2,547.0,0.25,83,120
2892,B-3,547.0,0.75,58,120
2893,B-3,547.0,0.75,58,120
2894,B-3,547.0,0.75,58,120
2895,B-4,547.0,0.75,58,120
2896,E-4,547.0,0.75,58,120
2897,B-2,547.5,0.5,32,120
2898,A4,547.75,0.25,59,120
2899,G#3,547.75,0.25,59,120
2900,G#3,547.75,0.25,59,120
2901,G#3,547.75,0.25,59,120
2902,G#4,547.75,0.25,59,120
2903,E-4,547.75,0.25,59,120
2904,G#3,548.0,4.0,32,120
2905,E-4,548.0,4.0,32,120
2906,A4,548.0,0.25,64,120
2907,C2,548.0,0.25,64,120
2908,C#2,548.0,0.25,64,120
2909,B-3,548.0,0.75,58,120
2910,B-3,548.0,0.75,58,120
2911,B-3,548.0,0.75,58,120
2912,B-4,548.0,0.75,58,120
2913,E-4,548.0,0.75,58,120
2914,G#2,548.0,4.0,48,120
2915,G#1,548.0,4.0,48,120
2916,E-4,548.0,0.5,32,120
2917,E-4,548.0,0.5,32,120
2918,C2,548.5,0.25,64,120
2919,F3,548.5,0.5,32,120
2920,F3,548.5,0.5,32,120
2921,A4,548.75,0.25,59,120
2922,G#3,548.75,0.25,59,120
2923,G#3,548.75,0.25,59,120
2924,G#3,548.75,0.25,59,120
2925,G#4,548.75,0.25,59,120
2926,E-4,548.75,0.25,59,120
2927,A4,549.0,0.25,88,120
2928,C#2,549.0,0.25,88,120
2929,B1,549.0,0.25,88,120
2930,A1,549.0,0.25,88,120
2931,B-3,549.0,0.75,58,120
2932,B-3,549.0,0.75,58,120
2933,B-3,549.0,0.75,58,120
2934,B-4,549.0,0.75,58,120
2935,E-4,549.0,0.75,58,120
2936,G#3,549.0,0.5,32,120
2937,G#3,549.0,0.5,32,120
2938,C#4,549.5,1.0,32,120
2939,C#4,549.5,1.0,32,120
2940,A4,549.75,0.25,59,120
2941,G#3,549.75,0.25,59,120
2942,G#3,549.75,0.25,59,120
2943,C#2,549.75,0.25,59,120
2944,G#3,549.75,0.25,59,120
2945,G#4,549.75,0.25,59,120
2946,E-4,549.75,0.25,59,120
2947,A4,550.0,0.25,59,120
2948,B-3,550.0,0.25,59,120
2949,B-3,550.0,0.25,59,120
2950,C2,550.0,0.25,59,120
2951,B-3,550.0,0.25,59,120
2952,B-4,550.0,0.25,59,120
2953,E-4,550.0,0.25,59,120
2954,B3,550.25,0.25,58,120
2955,B3,550.25,0.25,58,120
2956,B3,550.25,0.25,58,120
2957,B4,550.25,0.25,58,120
2958,E-4,550.25,0.25,58,120
2959,C2,550.5,0.25,64,120
2960,E-4,550.5,1.5,32,120
2961,E-4,550.5,1.5,32,120
2962,C#4,550.5,0.5,53,120
2963,C#4,550.5,0.5,53,120
2964,C#4,550.5,0.5,53,120
2965,C#5,550.5,1.5,64,120
2966,E-4,550.5,1.5,64,120
2967,A4,550.75,0.25,64,120
2968,A4,551.0,0.25,88,120
2969,C#2,551.0,0.25,88,120
2970,B1,551.0,0.25,88,120
2971,A1,551.0,0.25,88,120
2972,B3,551.0,0.5,53,120
2973,B3,551.0,0.5,53,120
2974,B3,551.0,0.5,53,120
2975,B-2,551.5,0.5,48,120
2976,B-3,551.5,0.5,48,120
2977,B-3,551.5,0.5,48,120
2978,B-3,551.5,0.5,48,120
2979,A4,551.75,0.25,64,120
2980,B-1,552.0,2.0,64,120
2981,G#3,552.0,8.0,32,120
2982,A4,552.0,0.25,64,120
2983,C2,552.0,0.25,64,120
2984,C#2,552.0,0.25,64,120
2985,B-2,552.0,4.0,56,120
2986,G#3,552.0,4.0,56,120
2987,G#4,552.0,4.0,56,120
2988,E-4,552.0,4.0,56,120
2989,G#3,552.0,4.0,53,120
2990,G#3,552.0,4.0,53,120
2991,G#3,552.0,4.0,53,120
2992,E-4,552.0,0.5,32,120
2993,E-4,552.0,0.5,32,120
2994,C2,552.5,0.25,64,120
2995,F3,552.5,0.5,64,120
2996,F3,552.5,0.5,64,120
2997,A4,552.75,0.25,64,120
2998,A4,553.0,0.25,88,120
2999,C#2,553.0,0.25,88,120
3000,B1,553.0,0.25,88,120
3001,A1,553.0,0.25,88,120
3002,G#3,553.0,0.5,64,120
3003,G#3,553.0,0.5,64,120
3004,E-4,553.5,1.0,64,120
3005,E-4,553.5,1.0,64,120
3006,A4,553.75,0.25,64,120
3007,C#2,553.75,0.25,64,120
3008,B-1,554.0,2.0,64,120
3009,A4,554.0,0.25,64,120
3010,C2,554.0,0.25,64,120
3011,C2,554.5,0.25,64,120
3012,F4,554.5,1.5,64,120
3013,F4,554.5,1.5,64,120
3014,A4,554.75,0.25,64,120
3015,A4,555.0,0.25,88,120
3016,C#2,555.0,0.25,88,120
3017,B1,555.0,0.25,88,120
3018,A1,555.0,0.25,88,120
3019,B-2,555.5,0.5,32,120
3020,A4,555.75,0.25,64,120
3021,G#2,560.0,4.0,32,120
3022,G#1,560.0,2.0,64,120
3023,A4,560.0,0.25,64,120
3024,C2,560.0,0.25,64,120
3025,C#2,560.0,0.25,64,120
3026,F4,560.0,0.5,64,120
3027,F4,560.0,0.5,64,120
3028,G#3,560.0,4.0,53,120
3029,G#3,560.0,4.0,53,120
3030,G#3,560.0,4.0,53,120
3031,C2,560.5,0.25,64,120
3032,F3,560.5,0.5,64,120
3033,F3,560.5,0.5,64,120
3034,A4,560.75,0.25,64,120
3035,A4,561.0,0.25,88,120
3036,C#2,561.0,0.25,88,120
3037,B1,561.0,0.25,88,120
3038,A1,561.0,0.25,88,120
3039,G#3,561.0,0.5,64,120
3040,G#3,561.0,0.5,64,120
3041,E-4,561.5,1.0,64,120
3042,E-4,561.5,1.0,64,120
3043,A4,561.75,0.25,64,120
3044,C#2,561.75,0.25,64,120
3045,G#1,562.0,2.0,64,120
3046,A4,562.0,0.25,64,120
3047,C2,562.0,0.25,64,120
3048,C2,562.5,0.25,64,120
3049,F4,562.5,1.5,64,120
3050,F4,562.5,1.5,64,120
3051,A4,562.75,0.25,64,120
3052,A4,563.0,0.25,88,120
3053,C#2,563.0,0.25,88,120
3054,B1,563.0,0.25,88,120
3055,A1,563.0,0.25,88,120
3056,B-2,563.5,0.5,32,120
3057,A4,563.75,0.25,64,120
3058,E-1,564.0,2.0,64,120
3059,E-7,564.0,0.125,10,120
3060,B-3,564.0,0.75,51,120
3061,B-3,564.0,0.75,51,120
3062,B-2,564.0,4.0,33,120
3063,B-3,564.0,4.0,33,120
3064,E-4,564.0,4.0,33,120
3065,C2,564.0,0.25,64,120
3066,A4,564.0,0.25,64,120
3067,E7,564.125,0.125,10,120
3068,F7,564.25,0.125,15,120
3069,F#7,564.375,0.125,18,120
3070,G7,564.5,0.125,20,120
3071,G#7,564.625,0.125,20,120
3072,A7,564.75,0.125,23,120
3073,G#3,564.75,0.25,50,120
3074,G#3,564.75,0.25,50,120
3075,B-7,564.875,0.125,23,120
3076,E2,565.0,0.25,32,120
3077,B7,565.0,0.125,25,120
3078,B-3,565.0,0.75,50,120
3079,B-3,565.0,0.75,50,120
3080,C8,565.125,0.125,25,120
3081,C#8,565.25,0.125,25,120
3082,D8,565.375,0.125,28,120
3083,E-8,565.5,0.125,28,120
3084,E8,565.625,0.125,28,120
3085,F8,565.75,0.125,28,120
3086,G#3,565.75,0.25,43,120
3087,G#3,565.75,0.25,43,120
3088,E2,565.75,0.25,43,120
3089,F#8,565.875,0.125,30,120
3090,E-1,566.0,2.0,64,120
3091,A4,566.0,0.25,64,120
3092,B-3,566.0,0.75,47,120
3093,B-3,566.0,0.75,47,120
3094,C2,566.0,0.125,30,120
3095,G8,566.0,0.125,30,120
3096,G#8,566.125,0.125,28,120
3097,A4,566.25,0.25,64,120
3098,C2,566.25,0.125,26,120
3099,A8,566.25,0.125,26,120
3100,B-8,566.375,0.125,28,120
3101,C2,566.5,0.125,19,120
3102,B8,566.5,0.125,19,120
3103,C9,566.625,0.125,25,120
3104,C#9,566.75,0.125,25,120
3105,G#3,566.75,0.25,46,120
3106,G#3,566.75,0.25,46,120
3107,D9,566.875,0.125,23,120
3108,E2,567.0,0.25,32,120
3109,E-9,567.0,0.125,23,120
3110,B-3,567.0,0.75,46,120
3111,B-3,567.0,0.75,46,120
3112,E9,567.125,0.125,20,120
3113,F9,567.25,0.125,18,120
3114,F#9,567.375,0.125,15,120
3115,G9,567.5,0.125,13,120
3116,G#3,567.75,0.25,44,120
3117,G#3,567.75,0.25,44,120
3118,G#1,580.0,4.0,64,120
3119,C2,580.0,0.25,64,120
3120,E-7,580.0,0.125,10,120
3121,B-3,580.0,0.75,43,120
3122,B-3,580.0,0.75,43,120
3123,B-2,580.0,12.0,33,120
3124,B-3,580.0,12.0,33,120
3125,E-4,580.0,12.0,33,120
3126,E7,580.125,0.125,10,120
3127,F7,580.25,0.125,15,120
3128,F#7,580.375,0.125,18,120
3129,G7,580.5,0.125,20,120
3130,G#7,580.625,0.125,20,120
3131,A7,580.75,0.125,23,120
3132,G#3,580.75,0.25,42,120
3133,G#3,580.75,0.25,42,120
3134,B-7,580.875,0.125,23,120
3135,E2,581.0,0.25,32,120
3136,B7,581.0,0.125,25,120
3137,B-3,581.0,0.75,41,120
3138,B-3,581.0,0.75,41,120
3139,C8,581.125,0.125,25,120
3140,C#8,581.25,0.125,25,120
3141,D8,581.375,0.125,28,120
3142,E-8,581.5,0.125,28,120
3143,E8,581.625,0.125,28,120
3144,F8,581.75,0.125,28,120
3145,G#3,581.75,0.25,37,120
3146,G#3,581.75,0.25,37,120
3147,E2,581.75,0.25,37,120
3148,F#8,581.875,0.125,30,120
3149,A4,582.0,0.25,64,120
3150,B-3,582.0,0.75,39,120
3151,B-3,582.0,0.75,39,120
3152,C2,582.0,0.125,30,120
3153,G8,582.0,0.125,30,120
3154,G#8,582.125,0.125,28,120
3155,A4,582.25,0.25,64,120
3156,C2,582.25,0.125,26,120
3157,A8,582.25,0.125,26,120
3158,B-8,582.375,0.125,28,120
3159,C2,582.5,0.125,19,120
3160,B8,582.5,0.125,19,120
3161,C9,582.625,0.125,25,120
3162,C#9,582.75,0.125,25,120
3163,G#3,582.75,0.25,38,120
3164,G#3,582.75,0.25,38,120
3165,D9,582.875,0.125,23,120
3166,E2,583.0,0.25,32,120
3167,E-9,583.0,0.125,23,120
3168,B-3,583.0,0.75,36,120
3169,B-3,583.0,0.75,36,120
3170,E9,583.125,0.125,20,120
3171,F9,583.25,0.125,18,120
3172,F#9,583.375,0.125,15,120
3173,G9,583.5,0.125,13,120
3174,G#3,583.75,0.25,35,120
3175,G#3,583.75,0.25,35,120
3176,E-7,592.0,0.125,10,120
3177,B-1,592.0,4.0,64,120
3178,B-3,592.0,0.75,35,120
3179,B-3,592.0,0.75,35,120
3180,C2,592.0,0.25,64,120
3181,A4,592.0,0.25,64,120
3182,E7,592.125,0.125,10,120
3183,F7,592.25,0.125,15,120
3184,F#7,592.375,0.125,18,120
3185,G7,592.5,0.125,20,120
3186,G#7,592.625,0.125,20,120
3187,A7,592.75,0.125,23,120
3188,G#3,592.75,0.25,34,120
3189,G#3,592.75,0.25,34,120
3190,B-7,592.875,0.125,23,120
3191,E2,593.0,0.25,32,120
3192,B7,593.0,0.125,25,120
3193,B-3,593.0,0.75,32,120
3194,B-3,593.0,0.75,32,120
3195,C8,593.125,0.125,25,120
3196,C#8,593.25,0.125,25,120
3197,D8,593.375,0.125,28,120
3198,E-8,593.5,0.125,28,120
3199,E8,593.625,0.125,28,120
3200,F8,593.75,0.125,28,120
3201,G#3,593.75,0.25,31,120
3202,G#3,593.75,0.25,31,120
3203,E2,593.75,0.25,31,120
3204,F#8,593.875,0.125,30,120
3205,A4,594.0,0.25,64,120
3206,B-3,594.0,0.75,30,120
3207,B-3,594.0,0.75,30,120
3208,C2,594.0,0.125,30,120
3209,G8,594.0,0.125,30,120
3210,G#8,594.125,0.125,28,120
3211,A4,594.25,0.25,64,120
3212,C2,594.25,0.125,26,120
3213,A8,594.25,0.125,26,120
3214,B-8,594.375,0.125,28,120
3215,C2,594.5,0.125,19,120
3216,B8,594.5,0.125,19,120
3217,C9,594.625,0.125,25,120
3218,C#9,594.75,0.125,25,120
3219,G#3,594.75,0.25,30,120
3220,G#3,594.75,0.25,30,120
3221,D9,594.875,0.125,23,120
3222,E2,595.0,0.25,32,120
3223,E-9,595.0,0.125,23,120
3224,B-3,595.0,0.75,28,120
3225,B-3,595.0,0.75,28,120
3226,E9,595.125,0.125,20,120
3227,F9,595.25,0.125,18,120
3228,F#9,595.375,0.125,15,120
3229,G9,595.5,0.125,13,120
3230,G#3,595.75,0.25,27,120
3231,G#3,595.75,0.25,27,120
3232,C2,596.0,0.25,64,120
3233,E-7,596.0,0.125,10,120
3234,B-1,596.0,4.0,64,120
3235,B-3,596.0,0.75,26,120
3236,B-3,596.0,0.75,26,120
3237,E7,596.125,0.125,10,120
3238,F7,596.25,0.125,15,120
3239,F#7,596.375,0.125,18,120
3240,G7,596.5,0.125,20,120
3241,G#7,596.625,0.125,20,120
3242,A7,596.75,0.125,23,120
3243,G#3,596.75,0.25,24,120
3244,G#3,596.75,0.25,24,120
3245,B-7,596.875,0.125,23,120
3246,E2,597.0,0.25,32,120
3247,B7,597.0,0.125,25,120
3248,B-3,597.0,0.75,24,120
3249,B-3,597.0,0.75,24,120
3250,C8,597.125,0.125,25,120
3251,C#8,597.25,0.125,25,120
3252,D8,597.375,0.125,28,120
3253,E-8,597.5,0.125,28,120
3254,E8,597.625,0.125,28,120
3255,F8,597.75,0.125,28,120
3256,G#3,597.75,0.25,26,120
3257,G#3,597.75,0.25,26,120
3258,E2,597.75,0.25,26,120
3259,F#8,597.875,0.125,30,120
3260,A4,598.0,0.25,64,120
3261,B-3,598.0,0.75,22,120
3262,B-3,598.0,0.75,22,120
3263,C2,598.0,0.125,30,120
3264,G8,598.0,0.125,30,120
3265,G#8,598.125,0.125,28,120
3266,A4,598.25,0.25,64,120
3267,C2,598.25,0.125,26,120
3268,A8,598.25,0.125,26,120
3269,B-8,598.375,0.125,28,120
3270,C2,598.5,0.125,19,120
3271,B8,598.5,0.125,19,120
3272,C9,598.625,0.125,25,120
3273,C#9,598.75,0.125,25,120
3274,G#3,598.75,0.25,20,120
3275,G#3,598.75,0.25,20,120
3276,D9,598.875,0.125,23,120
3277,E2,599.0,0.25,32,120
3278,E-9,599.0,0.125,23,120
3279,B-3,599.0,0.75,20,120
3280,B-3,599.0,0.75,20,120
3281,E9,599.125,0.125,20,120
3282,F9,599.25,0.125,18,120
3283,F#9,599.375,0.125,15,120
3284,G9,599.5,0.125,13,120
3285,B-2,599.5,0.5,64,120
3286,G#3,599.75,0.25,28,120
3287,G#3,599.75,0.25,28,120
3288,A4,599.75,0.25,28,120
3289,E-2,600.0,4.0,64,120
3290,E-3,600.0,4.0,29,120
3291,E-4,600.0,4.0,29,120
3292,E-3,600.0,4.0,29,120
3293,B-3,600.0,4.0,29,120
3294,C2,600.0,0.25,64,120
3295,A4,600.0,0.25,64,120
3296,C#2,600.0,0.25,64,120
3297,B-3,600.0,0.75,25,120
3298,B-3,600.0,0.75,25,120
3299,C2,600.5,0.25,64,120
3300,B-3,600.5,0.5,64,120
3301,B-4,600.5,0.5,64,120
3302,A4,600.75,0.25,38,120
3303,G#3,600.75,0.25,38,120
3304,G#3,600.75,0.25,38,120
3305,C#2,601.0,0.25,88,120
3306,A4,601.0,0.25,88,120
3307,B1,601.0,0.25,88,120
3308,A1,601.0,0.25,88,120
3309,B-3,601.0,0.75,25,120
3310,B-3,601.0,0.75,25,120
3311,B-3,601.0,0.5,64,120
3312,B-4,601.0,0.5,64,120
3313,B-3,601.5,0.5,64,120
3314,B-4,601.5,0.5,64,120
3315,C#2,601.75,0.25,44,120
3316,A4,601.75,0.25,44,120
3317,G#3,601.75,0.25,44,120
3318,G#3,601.75,0.25,44,120
3319,C2,602.0,0.25,64,120
3320,A4,602.0,0.25,64,120
3321,B-3,602.0,0.75,25,120
3322,B-3,602.0,0.75,25,120
3323,B-3,602.0,0.5,64,120
3324,B-4,602.0,0.5,64,120
3325,C2,602.5,0.25,64,120
3326,B-3,602.5,0.25,64,120
3327,B-4,602.5,0.25,64,120
3328,A4,602.75,0.25,38,120
3329,G#3,602.75,0.25,38,120
3330,G#3,602.75,0.25,38,120
3331,B-3,602.75,0.75,64,120
3332,B-4,602.75,0.75,64,120
3333,C#2,603.0,0.25,83,120
3334,A4,603.0,0.25,83,120
3335,B1,603.0,0.25,83,120
3336,A1,603.0,0.25,83,120
3337,C#2,603.0,0.25,83,120
3338,B-3,603.0,0.75,25,120
3339,B-3,603.0,0.75,25,120
3340,B-2,603.5,0.5,32,120
3341,A4,603.75,0.25,38,120
3342,G#3,603.75,0.25,38,120
3343,G#3,603.75,0.25,38,120
3344,C#2,616.0,4.0,64,120
3345,A4,616.0,0.25,64,120
3346,C2,616.0,0.25,64,120
3347,C#2,616.0,0.25,64,120
3348,B-3,616.0,0.75,25,120
3349,B-3,616.0,0.75,25,120
3350,E-3,616.0,12.0,29,120
3351,E-4,616.0,12.0,29,120
3352,E-3,616.0,12.0,29,120
3353,B-3,616.0,12.0,29,120
3354,C2,616.5,0.25,64,120
3355,B-3,616.5,0.5,64,120
3356,B-4,616.5,0.5,64,120
3357,A4,616.75,0.25,38,120
3358,G#3,616.75,0.25,38,120
3359,G#3,616.75,0.25,38,120
3360,A4,617.0,0.25,88,120
3361,C#2,617.0,0.25,88,120
3362,B1,617.0,0.25,88,120
3363,A1,617.0,0.25,88,120
3364,B-3,617.0,0.75,25,120
3365,B-3,617.0,0.75,25,120
3366,B-3,617.0,0.5,64,120
3367,B-4,617.0,0.5,64,120
3368,B-3,617.5,0.5,64,120
3369,B-4,617.5,0.5,64,120
3370,A4,617.75,0.25,44,120
3371,C#2,617.75,0.25,44,120
3372,G#3,617.75,0.25,44,120
3373,G#3,617.75,0.25,44,120
3374,A4,618.0,0.25,51,120
3375,C2,618.0,0.25,51,120
3376,B-3,618.0,0.25,51,120
3377,B-3,618.0,0.25,51,120
3378,B-3,618.0,0.25,51,120
3379,B-4,618.0,0.25,51,120
3380,B3,618.25,0.25,25,120
3381,B3,618.25,0.25,25,120
3382,B-3,618.25,0.5,64,120
3383,B-4,618.25,0.5,64,120
3384,C2,618.5,0.25,64,120
3385,C#4,618.5,0.5,25,120
3386,C#4,618.5,0.5,25,120
3387,A4,618.75,0.25,64,120
3388,B-3,618.75,0.75,64,120
3389,B-4,618.75,0.75,64,120
3390,A4,619.0,0.25,88,120
3391,C#2,619.0,0.25,88,120
3392,B1,619.0,0.25,88,120
3393,A1,619.0,0.25,88,120
3394,B3,619.0,0.5,25,120
3395,B3,619.0,0.5,25,120
3396,B-2,619.5,0.5,32,120
3397,B-3,619.5,0.25,25,120
3398,B-3,619.5,0.25,25,120
3399,A4,619.75,0.25,38,120
3400,G#3,619.75,0.25,38,120
3401,G#3,619.75,0.25,38,120
3402,B-1,628.0,4.0,64,120
3403,A4,628.0,0.25,48,120
3404,C2,628.0,0.25,48,120
3405,C#2,628.0,0.25,48,120
3406,F#3,628.0,0.25,48,120
3407,F#3,628.0,0.25,48,120
3408,F3,628.25,0.25,25,120
3409,F3,628.25,0.25,25,120
3410,C2,628.5,0.25,64,120
3411,G#3,628.5,0.5,64,120
3412,G#4,628.5,0.5,64,120
3413,E-3,628.5,3.5,25,120
3414,E-3,628.5,3.5,25,120
3415,A4,628.75,0.25,64,120
3416,A4,629.0,0.25,88,120
3417,C#2,629.0,0.25,88,120
3418,B1,629.0,0.25,88,120
3419,A1,629.0,0.25,88,120
3420,G#3,629.0,0.5,64,120
3421,G#4,629.0,0.5,64,120
3422,G#3,629.5,0.5,64,120
3423,G#4,629.5,0.5,64,120
3424,A4,629.75,0.25,64,120
3425,C#2,629.75,0.25,64,120
3426,A4,630.0,0.25,64,120
3427,C2,630.0,0.25,64,120
3428,G#3,630.0,0.25,64,120
3429,G#4,630.0,0.25,64,120
3430,G#3,630.25,0.5,64,120
3431,G#4,630.25,0.5,64,120
3432,C2,630.5,0.25,64,120
3433,A4,630.75,0.25,64,120
3434,G#3,630.75,0.75,64,120
3435,G#4,630.75,0.75,64,120
3436,A4,631.0,0.25,88,120
3437,C#2,631.0,0.25,88,120
3438,B1,631.0,0.25,88,120
3439,A1,631.0,0.25,88,120
3440,B-2,631.5,0.5,32,120
3441,A4,631.75,0.25,64,120
3442,B-1,632.0,4.0,64,120
3443,A4,632.0,0.25,64,120
3444,C2,632.0,0.25,64,120
3445,C#2,632.0,0.25,64,120
3446,E-3,632.0,3.0,25,120
3447,E-3,632.0,3.0,25,120
3448,C2,632.5,0.25,64,120
3449,G#3,632.5,0.5,64,120
3450,G#4,632.5,0.5,64,120
3451,A4,632.75,0.25,64,120
3452,A4,633.0,0.25,88,120
3453,C#2,633.0,0.25,88,120
3454,B1,633.0,0.25,88,120
3455,A1,633.0,0.25,88,120
3456,G#3,633.0,0.5,64,120
3457,G#4,633.0,0.5,64,120
3458,G#3,633.5,0.5,64,120
3459,G#4,633.5,0.5,64,120
3460,A4,633.75,0.25,64,120
3461,C#2,633.75,0.25,64,120
3462,A4,634.0,0.25,64,120
3463,C2,634.0,0.25,64,120
3464,G#3,634.0,0.5,64,120
3465,G#4,634.0,0.5,64,120
3466,C2,634.5,0.25,64,120
3467,G#3,634.5,0.25,64,120
3468,G#4,634.5,0.25,64,120
3469,A4,634.75,0.25,64,120
3470,C#3,634.75,0.75,64,120
3471,C#4,634.75,0.75,64,120
3472,A4,635.0,0.25,67,120
3473,C#2,635.0,0.25,67,120
3474,B1,635.0,0.25,67,120
3475,A1,635.0,0.25,67,120
3476,E-3,635.0,0.25,67,120
3477,E-3,635.0,0.25,67,120
3478,F3,635.25,0.25,25,120
3479,F3,635.25,0.25,25,120
3480,B-2,635.5,0.5,32,120
3481,F#3,635.5,0.25,25,120
3482,F#3,635.5,0.25,25,120
3483,A4,635.75,0.25,44,120
3484,A4,635.75,0.25,44,120
3485,G#3,635.75,0.25,44,120
3486,G#3,635.75,0.25,44,120
3487,E-2,636.0,4.0,64,120
3488,C2,636.0,0.25,64,120
3489,A4,636.0,0.25,64,120
3490,C#2,636.0,0.25,64,120
3491,B-3,636.0,0.75,25,120
3492,B-3,636.0,0.75,25,120
3493,E-3,636.0,4.0,29,120
3494,E-4,636.0,4.0,29,120
3495,E-3,636.0,4.0,29,120
3496,B-3,636.0,4.0,29,120
3497,C2,636.5,0.25,64,120
3498,B-3,636.5,0.5,64,120
3499,B-4,636.5,0.5,64,120
3500,A4,636.75,0.25,38,120
3501,G#3,636.75,0.25,38,120
3502,G#3,636.75,0.25,38,120
3503,C#2,637.0,0.25,88,120
3504,A4,637.0,0.25,88,120
3505,B1,637.0,0.25,88,120
3506,A1,637.0,0.25,88,120
3507,B-3,637.0,0.75,25,120
3508,B-3,637.0,0.75,25,120
3509,B-3,637.0,0.5,64,120
3510,B-4,637.0,0.5,64,120
3511,B-3,637.5,0.5,64,120
3512,B-4,637.5,0.5,64,120
3513,C#2,637.75,0.25,44,120
3514,A4,637.75,0.25,44,120
3515,G#3,637.75,0.25,44,120
3516,G#3,637.75,0.25,44,120
3517,C2,638.0,0.25,64,120
3518,A4,638.0,0.25,64,120
3519,B-3,638.0,0.75,25,120
3520,B-3,638.0,0.75,25,120
3521,B-3,638.0,0.5,64,120
3522,B-4,638.0,0.5,64,120
3523,C2,638.5,0.25,64,120
3524,B-3,638.5,0.25,64,120
3525,B-4,638.5,0.25,64,120
3526,A4,638.75,0.25,38,120
3527,G#3,638.75,0.25,38,120
3528,G#3,638.75,0.25,38,120
3529,B-3,638.75,0.75,64,120
3530,B-4,638.75,0.75,64,120
3531,C#2,639.0,0.25,83,120
3532,A4,639.0,0.25,83,120
3533,B1,639.0,0.25,83,120
3534,A1,639.0,0.25,83,120
3535,C#2,639.0,0.25,83,120
3536,B-3,639.0,0.75,25,120
3537,B-3,639.0,0.75,25,120
3538,B-2,639.5,0.5,32,120
3539,A4,639.75,0.25,38,120
3540,G#3,639.75,0.25,38,120
3541,G#3,639.75,0.25,38,120
3542,C#2,652.0,4.0,64,120
3543,A4,652.0,0.25,64,120
3544,C2,652.0,0.25,64,120
3545,C#2,652.0,0.25,64,120
3546,B-3,652.0,0.75,25,120
3547,B-3,652.0,0.75,25,120
3548,E-3,652.0,12.0,29,120
3549,E-4,652.0,12.0,29,120
3550,E-3,652.0,12.0,29,120
3551,B-3,652.0,12.0,29,120
3552,C2,652.5,0.25,64,120
3553,B-3,652.5,0.5,64,120
3554,B-4,652.5,0.5,64,120
3555,A4,652.75,0.25,38,120
3556,G#3,652.75,0.25,38,120
3557,G#3,652.75,0.25,38,120
3558,A4,653.0,0.25,88,120
3559,C#2,653.0,0.25,88,120
3560,B1,653.0,0.25,88,120
3561,A1,653.0,0.25,88,120
3562,B-3,653.0,0.75,25,120
3563,B-3,653.0,0.75,25,120
3564,B-3,653.0,0.5,64,120
3565,B-4,653.0,0.5,64,120
3566,B-3,653.5,0.5,64,120
3567,B-4,653.5,0.5,64,120
3568,A4,653.75,0.25,44,120
3569,C#2,653.75,0.25,44,120
3570,G#3,653.75,0.25,44,120
3571,G#3,653.75,0.25,44,120
3572,A4,654.0,0.25,51,120
3573,C2,654.0,0.25,51,120
3574,B-3,654.0,0.25,51,120
3575,B-3,654.0,0.25,51,120
3576,B-3,654.0,0.25,51,120
3577,B-4,654.0,0.25,51,120
3578,B3,654.25,0.25,25,120
3579,B3,654.25,0.25,25,120
3580,B-3,654.25,0.5,64,120
3581,B-4,654.25,0.5,64,120
3582,C2,654.5,0.25,64,120
3583,C#4,654.5,0.5,25,120
3584,C#4,654.5,0.5,25,120
3585,A4,654.75,0.25,64,120
3586,B-3,654.75,0.75,64,120
3587,B-4,654.75,0.75,64,120
3588,A4,655.0,0.25,88,120
3589,C#2,655.0,0.25,88,120
3590,B1,655.0,0.25,88,120
3591,A1,655.0,0.25,88,120
3592,B3,655.0,0.5,25,120
3593,B3,655.0,0.5,25,120
3594,B-2,655.5,0.5,32,120
3595,B-3,655.5,0.25,25,120
3596,B-3,655.5,0.25,25,120
3597,A4,655.75,0.25,38,120
3598,G#3,655.75,0.25,38,120
3599,G#3,655.75,0.25,38,120
3600,B-1,664.0,4.0,64,120
3601,A4,664.0,0.25,48,120
3602,C2,664.0,0.25,48,120
3603,C#2,664.0,0.25,48,120
3604,F#3,664.0,0.25,48,120
3605,F#3,664.0,0.25,48,120
3606,F3,664.25,0.25,25,120
3607,F3,664.25,0.25,25,120
3608,C2,664.5,0.25,64,120
3609,E-3,664.5,3.5,25,120
3610,E-3,664.5,3.5,25,120
3611,G#3,664.5,0.5,64,120
3612,G#4,664.5,0.5,64,120
3613,A4,664.75,0.25,64,120
3614,A4,665.0,0.25,88,120
3615,C#2,665.0,0.25,88,120
3616,B1,665.0,0.25,88,120
3617,A1,665.0,0.25,88,120
3618,G#3,665.0,0.5,64,120
3619,G#4,665.0,0.5,64,120
3620,G#3,665.5,0.5,64,120
3621,G#4,665.5,0.5,64,120
3622,A4,665.75,0.25,64,120
3623,C#2,665.75,0.25,64,120
3624,A4,666.0,0.25,64,120
3625,C2,666.0,0.25,64,120
3626,G#3,666.0,0.5,64,120
3627,G#4,666.0,0.5,64,120
3628,C2,666.5,0.25,64,120
3629,G#3,666.5,0.25,64,120
3630,G#4,666.5,0.25,64,120
3631,A4,666.75,0.25,64,120
3632,G#3,666.75,0.5,64,120
3633,G#4,666.75,0.5,64,120
3634,A4,667.0,0.25,88,120
3635,C#2,667.0,0.25,88,120
3636,B1,667.0,0.25,88,120
3637,A1,667.0,0.25,88,120
3638,G#3,667.25,0.75,64,120
3639,G#4,667.25,0.75,64,120
3640,B-2,667.5,0.5,32,120
3641,A4,667.75,0.25,64,120
3642,B-1,668.0,4.0,64,120
3643,A4,668.0,0.25,64,120
3644,C2,668.0,0.25,64,120
3645,C#2,668.0,0.25,64,120
3646,G#3,668.0,0.25,64,120
3647,G#4,668.0,0.25,64,120
3648,E-3,668.0,4.0,25,120
3649,E-3,668.0,4.0,25,120
3650,G#3,668.25,0.75,64,120
3651,G#4,668.25,0.75,64,120
3652,C2,668.5,0.25,64,120
3653,A4,668.75,0.25,64,120
3654,A4,669.0,0.25,88,120
3655,C#2,669.0,0.25,88,120
3656,B1,669.0,0.25,88,120
3657,A1,669.0,0.25,88,120
3658,G#3,669.0,0.5,64,120
3659,G#4,669.0,0.5,64,120
3660,G#3,669.5,0.5,64,120
3661,G#4,669.5,0.5,64,120
3662,A4,669.75,0.25,64,120
3663,C#2,669.75,0.25,64,120
3664,A4,670.0,0.25,64,120
3665,C2,670.0,0.25,64,120
3666,G#3,670.0,1.5,64,120
3667,G#4,670.0,1.5,64,120
3668,C2,670.5,0.25,64,120
3669,A4,670.75,0.25,64,120
3670,A4,671.0,0.25,88,120
3671,C#2,671.0,0.25,88,120
3672,B1,671.0,0.25,88,120
3673,A1,671.0,0.25,88,120
3674,B-2,671.5,0.5,32,120
3675,A4,671.75,0.25,64,120
3676,E-2,672.0,4.0,64,120
3677,E-3,672.0,4.0,29,120
3678,E-4,672.0,4.0,29,120
3679,E-3,672.0,4.0,29,120
3680,B-3,672.0,4.0,29,120
3681,C2,672.0,0.25,64,120
3682,A4,672.0,0.25,64,120
3683,C#2,672.0,0.25,64,120
3684,B-3,672.0,0.75,25,120
3685,B-3,672.0,0.75,25,120
3686,C2,672.5,0.25,64,120
3687,B-3,672.5,0.5,64,120
3688,B-4,672.5,0.5,64,120
3689,A4,672.75,0.25,38,120
3690,G#3,672.75,0.25,38,120
3691,G#3,672.75,0.25,38,120
3692,C#2,673.0,0.25,88,120
3693,A4,673.0,0.25,88,120
3694,B1,673.0,0.25,88,120
3695,A1,673.0,0.25,88,120
3696,B-3,673.0,0.75,25,120
3697,B-3,673.0,0.75,25,120
3698,B-3,673.0,0.5,64,120
3699,B-4,673.0,0.5,64,120
3700,B-3,673.5,0.5,64,120
3701,B-4,673.5,0.5,64,120
3702,C#2,673.75,0.25,44,120
3703,A4,673.75,0.25,44,120
3704,G#3,673.75,0.25,44,120
3705,G#3,673.75,0.25,44,120
3706,C2,674.0,0.25,64,120
3707,A4,674.0,0.25,64,120
3708,B-3,674.0,0.25,64,120
3709,B-4,674.0,0.25,64,120
3710,B-3,674.0,0.75,25,120
3711,B-3,674.0,0.75,25,120
3712,B-3,674.25,0.5,64,120
3713,B-4,674.25,0.5,64,120
3714,C2,674.5,0.25,64,120
3715,A4,674.75,0.25,38,120
3716,G#3,674.75,0.25,38,120
3717,G#3,674.75,0.25,38,120
3718,B-3,674.75,0.75,64,120
3719,B-4,674.75,0.75,64,120
3720,C#2,675.0,0.25,83,120
3721,A4,675.0,0.25,83,120
3722,B1,675.0,0.25,83,120
3723,A1,675.0,0.25,83,120
3724,C#2,675.0,0.25,83,120
3725,B-3,675.0,0.75,25,120
3726,B-3,675.0,0.75,25,120
3727,B-2,675.5,0.5,32,120
3728,A4,675.75,0.25,38,120
3729,G#3,675.75,0.25,38,120
3730,G#3,675.75,0.25,38,120
3731,C#2,688.0,4.0,64,120
3732,A4,688.0,0.25,64,120
3733,C2,688.0,0.25,64,120
3734,C#2,688.0,0.25,64,120
3735,B-3,688.0,0.75,25,120
3736,B-3,688.0,0.75,25,120
3737,E-3,688.0,12.0,29,120
3738,E-4,688.0,12.0,29,120
3739,E-3,688.0,12.0,29,120
3740,B-3,688.0,12.0,29,120
3741,C2,688.5,0.25,64,120
3742,B-3,688.5,0.5,64,120
3743,B-4,688.5,0.5,64,120
3744,A4,688.75,0.25,38,120
3745,G#3,688.75,0.25,38,120
3746,G#3,688.75,0.25,38,120
3747,A4,689.0,0.25,88,120
3748,C#2,689.0,0.25,88,120
3749,B1,689.0,0.25,88,120
3750,A1,689.0,0.25,88,120
3751,B-3,689.0,0.75,25,120
3752,B-3,689.0,0.75,25,120
3753,B-3,689.0,0.5,64,120
3754,B-4,689.0,0.5,64,120
3755,B-3,689.5,0.5,64,120
3756,B-4,689.5,0.5,64,120
3757,A4,689.75,0.25,44,120
3758,C#2,689.75,0.25,44,120
3759,G#3,689.75,0.25,44,120
3760,G#3,689.75,0.25,44,120
3761,A4,690.0,0.25,51,120
3762,C2,690.0,0.25,51,120
3763,B-3,690.0,0.25,51,120
3764,B-3,690.0,0.25,51,120
3765,B-3,690.0,0.25,51,120
3766,B-4,690.0,0.25,51,120
3767,B3,690.25,0.25,25,120
3768,B3,690.25,0.25,25,120
3769,B-3,690.25,0.75,64,120
3770,B-4,690.25,0.75,64,120
3771,C2,690.5,0.25,64,120
3772,C#4,690.5,0.5,25,120
3773,C#4,690.5,0.5,25,120
3774,A4,690.75,0.25,64,120
3775,A4,691.0,0.25,88,120
3776,C#2,691.0,0.25,88,120
3777,B1,691.0,0.25,88,120
3778,A1,691.0,0.25,88,120
3779,B3,691.0,0.5,44,120
3780,B3,691.0,0.5,44,120
3781,B-3,691.0,0.5,44,120
3782,B-4,691.0,0.5,44,120
3783,B-2,691.5,0.5,32,120
3784,B-3,691.5,0.25,25,120
3785,B-3,691.5,0.25,25,120
3786,A4,691.75,0.25,38,120
3787,G#3,691.75,0.25,38,120
3788,G#3,691.75,0.25,38,120
3789,B-1,700.0,4.0,64,120
3790,A4,700.0,0.25,48,120
3791,C2,700.0,0.25,48,120
3792,C#2,700.0,0.25,48,120
3793,F#3,700.0,0.25,48,120
3794,F#3,700.0,0.25,48,120
3795,F3,700.25,0.25,25,120
3796,F3,700.25,0.25,25,120
3797,C2,700.5,0.25,64,120
3798,E-3,700.5,3.5,25,120
3799,E-3,700.5,3.5,25,120
3800,G#3,700.5,0.5,64,120
3801,G#4,700.5,0.5,64,120
3802,A4,700.75,0.25,64,120
3803,A4,701.0,0.25,88,120
3804,C#2,701.0,0.25,88,120
3805,B1,701.0,0.25,88,120
3806,A1,701.0,0.25,88,120
3807,G#3,701.0,0.5,64,120
3808,G#4,701.0,0.5,64,120
3809,G#3,701.5,0.5,64,120
3810,G#4,701.5,0.5,64,120
3811,A4,701.75,0.25,64,120
3812,C#2,701.75,0.25,64,120
3813,A4,702.0,0.25,64,120
3814,C2,702.0,0.25,64,120
3815,G#3,702.0,0.25,64,120
3816,G#4,702.0,0.25,64,120
3817,G#3,702.25,0.5,64,120
3818,G#4,702.25,0.5,64,120
3819,C2,702.5,0.25,64,120
3820,A4,702.75,0.25,64,120
3821,G#3,702.75,0.75,64,120
3822,G#4,702.75,0.75,64,120
3823,A4,703.0,0.25,88,120
3824,C#2,703.0,0.25,88,120
3825,B1,703.0,0.25,88,120
3826,A1,703.0,0.25,88,120
3827,B-2,703.5,0.5,32,120
3828,A4,703.75,0.25,64,120
3829,B-1,704.0,4.0,64,120
3830,A4,704.0,0.25,64,120
3831,C2,704.0,0.25,64,120
3832,C#2,704.0,0.25,64,120
3833,E-3,704.0,3.0,25,120
3834,E-3,704.0,3.0,25,120
3835,C2,704.5,0.25,64,120
3836,G#3,704.5,0.5,64,120
3837,G#4,704.5,0.5,64,120
3838,A4,704.75,0.25,64,120
3839,A4,705.0,0.25,88,120
3840,C#2,705.0,0.25,88,120
3841,B1,705.0,0.25,88,120
3842,A1,705.0,0.25,88,120
3843,G#3,705.0,0.5,64,120
3844,G#4,705.0,0.5,64,120
3845,G#3,705.5,0.5,64,120
3846,G#4,705.5,0.5,64,120
3847,A4,705.75,0.25,64,120
3848,C#2,705.75,0.25,64,120
3849,A4,706.0,0.25,64,120
3850,C2,706.0,0.25,64,120
3851,G#3,706.0,0.25,64,120
3852,G#4,706.0,0.25,64,120
3853,G#3,706.25,0.5,64,120
3854,G#4,706.25,0.5,64,120
3855,C2,706.5,0.25,64,120
3856,A4,706.75,0.25,64,120
3857,C#3,706.75,0.75,64,120
3858,C#4,706.75,0.75,64,120
3859,A4,707.0,0.25,67,120
3860,C#2,707.0,0.25,67,120
3861,B1,707.0,0.25,67,120
3862,A1,707.0,0.25,67,120
3863,E-3,707.0,0.25,67,120
3864,E-3,707.0,0.25,67,120
3865,F3,707.25,0.25,25,120
3866,F3,707.25,0.25,25,120
3867,B-2,707.5,0.5,32,120
3868,F#3,707.5,0.25,25,120
3869,F#3,707.5,0.25,25,120
3870,A4,707.75,0.25,44,120
3871,A4,707.75,0.25,44,120
3872,G#3,707.75,0.25,44,120
3873,G#3,707.75,0.25,44,120
3874,E-2,708.0,4.0,64,120
3875,C2,708.0,0.25,64,120
3876,A4,708.0,0.25,64,120
3877,C#2,708.0,0.25,64,120
3878,B-3,708.0,0.75,25,120
3879,B-3,708.0,0.75,25,120
3880,E-3,708.0,4.0,29,120
3881,E-4,708.0,4.0,29,120
3882,E-3,708.0,4.0,29,120
3883,B-3,708.0,4.0,29,120
3884,C2,708.5,0.25,64,120
3885,B-3,708.5,0.5,64,120
3886,B-4,708.5,0.5,64,120
3887,A4,708.75,0.25,38,120
3888,G#3,708.75,0.25,38,120
3889,G#3,708.75,0.25,38,120
3890,C#2,709.0,0.25,88,120
3891,A4,709.0,0.25,88,120
3892,B1,709.0,0.25,88,120
3893,A1,709.0,0.25,88,120
3894,B-3,709.0,0.75,25,120
3895,B-3,709.0,0.75,25,120
3896,B-3,709.0,0.5,64,120
3897,B-4,709.0,0.5,64,120
3898,B-3,709.5,0.5,64,120
3899,B-4,709.5,0.5,64,120
3900,C#2,709.75,0.25,44,120
3901,A4,709.75,0.25,44,120
3902,G#3,709.75,0.25,44,120
3903,G#3,709.75,0.25,44,120
3904,C2,710.0,0.25,64,120
3905,A4,710.0,0.25,64,120
3906,B-3,710.0,0.25,64,120
3907,B-4,710.0,0.25,64,120
3908,B-3,710.0,0.75,25,120
3909,B-3,710.0,0.75,25,120
3910,B-3,710.25,0.5,64,120
3911,B-4,710.25,0.5,64,120
3912,C2,710.5,0.25,64,120
3913,A4,710.75,0.25,38,120
3914,G#3,710.75,0.25,38,120
3915,G#3,710.75,0.25,38,120
3916,B-3,710.75,0.75,64,120
3917,B-4,710.75,0.75,64,120
3918,C#2,711.0,0.25,83,120
3919,A4,711.0,0.25,83,120
3920,B1,711.0,0.25,83,120
3921,A1,711.0,0.25,83,120
3922,C#2,711.0,0.25,83,120
3923,B-3,711.0,0.75,25,120
3924,B-3,711.0,0.75,25,120
3925,B-2,711.5,0.5,32,120
3926,A4,711.75,0.25,38,120
3927,G#3,711.75,0.25,38,120
3928,G#3,711.75,0.25,38,120
3929,C#2,724.0,4.0,64,120
3930,A4,724.0,0.25,64,120
3931,C2,724.0,0.25,64,120
3932,C#2,724.0,0.25,64,120
3933,B-3,724.0,0.75,25,120
3934,B-3,724.0,0.75,25,120
3935,E-3,724.0,12.0,29,120
3936,E-4,724.0,12.0,29,120
3937,E-3,724.0,12.0,29,120
3938,B-3,724.0,12.0,29,120
3939,C2,724.5,0.25,64,120
3940,B-3,724.5,0.5,64,120
3941,B-4,724.5,0.5,64,120
3942,A4,724.75,0.25,38,120
3943,G#3,724.75,0.25,38,120
3944,G#3,724.75,0.25,38,120
3945,A4,725.0,0.25,88,120
3946,C#2,725.0,0.25,88,120
3947,B1,725.0,0.25,88,120
3948,A1,725.0,0.25,88,120
3949,B-3,725.0,0.75,25,120
3950,B-3,725.0,0.75,25,120
3951,B-3,725.0,0.5,64,120
3952,B-4,725.0,0.5,64,120
3953,B-3,725.5,0.5,64,120
3954,B-4,725.5,0.5,64,120
3955,A4,725.75,0.25,44,120
3956,C#2,725.75,0.25,44,120
3957,G#3,725.75,0.25,44,120
3958,G#3,725.75,0.25,44,120
3959,A4,726.0,0.25,51,120
3960,C2,726.0,0.25,51,120
3961,B-3,726.0,0.25,51,120
3962,B-3,726.0,0.25,51,120
3963,B-3,726.0,0.25,51,120
3964,B-4,726.0,0.25,51,120
3965,B3,726.25,0.25,25,120
3966,B3,726.25,0.25,25,120
3967,B-3,726.25,0.5,64,120
3968,B-4,726.25,0.5,64,120
3969,C2,726.5,0.25,64,120
3970,C#4,726.5,0.5,25,120
3971,C#4,726.5,0.5,25,120
3972,A4,726.75,0.25,64,120
3973,B-3,726.75,0.75,64,120
3974,B-4,726.75,0.75,64,120
3975,A4,727.0,0.25,88,120
3976,C#2,727.0,0.25,88,120
3977,B1,727.0,0.25,88,120
3978,A1,727.0,0.25,88,120
3979,B3,727.0,0.5,25,120
3980,B3,727.0,0.5,25,120
3981,B-2,727.5,0.5,32,120
3982,B-3,727.5,0.25,25,120
3983,B-3,727.5,0.25,25,120
3984,A4,727.75,0.25,38,120
3985,G#3,727.75,0.25,38,120
3986,G#3,727.75,0.25,38,120
3987,B-1,736.0,4.0,64,120
3988,A4,736.0,0.25,48,120
3989,C2,736.0,0.25,48,120
3990,C#2,736.0,0.25,48,120
3991,F#3,736.0,0.25,48,120
3992,F#3,736.0,0.25,48,120
3993,F3,736.25,0.25,25,120
3994,F3,736.25,0.25,25,120
3995,C2,736.5,0.25,64,120
3996,E-3,736.5,3.5,25,120
3997,E-3,736.5,3.5,25,120
3998,B-3,736.5,0.5,64,120
3999,B-4,736.5,0.5,64,120
4000,A4,736.75,0.25,64,120
4001,A4,737.0,0.25,88,120
4002,C#2,737.0,0.25,88,120
4003,B1,737.0,0.25,88,120
4004,A1,737.0,0.25,88,120
4005,B-3,737.0,0.5,64,120
4006,B-4,737.0,0.5,64,120
4007,G#3,737.5,0.5,64,120
4008,G#4,737.5,0.5,64,120
4009,A4,737.75,0.25,64,120
4010,C#2,737.75,0.25,64,120
4011,A4,738.0,0.25,64,120
4012,C2,738.0,0.25,64,120
4013,B-3,738.0,0.5,64,120
4014,B-4,738.0,0.5,64,120
4015,C2,738.5,0.25,64,120
4016,G#3,738.5,0.25,64,120
4017,G#4,738.5,0.25,64,120
4018,A4,738.75,0.25,64,120
4019,B-3,738.75,0.5,64,120
4020,B-4,738.75,0.5,64,120
4021,A4,739.0,0.25,88,120
4022,C#2,739.0,0.25,88,120
4023,B1,739.0,0.25,88,120
4024,A1,739.0,0.25,88,120
4025,G#3,739.25,0.5,64,120
4026,G#4,739.25,0.5,64,120
4027,B-2,739.5,0.5,32,120
4028,A4,739.75,0.25,64,120
4029,B-3,739.75,0.25,64,120
4030,B-4,739.75,0.25,64,120
4031,B-1,740.0,4.0,64,120
4032,A4,740.0,0.25,64,120
4033,C2,740.0,0.25,64,120
4034,C#2,740.0,0.25,64,120
4035,E-3,740.0,4.0,25,120
4036,E-3,740.0,4.0,25,120
4037,B-3,740.0,0.25,64,120
4038,B-4,740.0,0.25,64,120
4039,B-3,740.25,0.5,64,120
4040,B-4,740.25,0.5,64,120
4041,C2,740.5,0.25,64,120
4042,A4,740.75,0.25,64,120
4043,B-3,740.75,0.5,64,120
4044,B-4,740.75,0.5,64,120
4045,A4,741.0,0.25,88,120
4046,C#2,741.0,0.25,88,120
4047,B1,741.0,0.25,88,120
4048,A1,741.0,0.25,88,120
4049,B-3,741.25,0.5,64,120
4050,B-4,741.25,0.5,64,120
4051,A4,741.75,0.25,64,120
4052,C#2,741.75,0.25,64,120
4053,E-3,741.75,1.75,64,120
4054,B-4,741.75,1.75,64,120
4055,A4,742.0,0.25,64,120
4056,C2,742.0,0.25,64,120
4057,C2,742.5,0.25,64,120
4058,A4,742.75,0.25,64,120
4059,A4,743.0,0.25,88,120
4060,C#2,743.0,0.25,88,120
4061,B1,743.0,0.25,88,120
4062,A1,743.0,0.25,88,120
4063,B-2,743.5,0.5,36,120
4064,G#3,743.5,0.5,36,120
4065,G#4,743.5,0.5,36,120
4066,A4,743.75,0.25,64,120
4067,E-1,744.0,0.25,64,120
4068,C2,744.0,0.25,64,120
4069,C#2,744.0,0.25,64,120
4070,A4,744.0,0.25,64,120
4071,B-3,744.0,0.75,48,120
4072,B-3,744.0,0.75,48,120
4073,E-3,744.0,4.0,29,120
4074,B-3,744.0,4.0,29,120
4075,E-4,744.0,4.0,29,120
4076,E-3,744.0,4.0,29,120
4077,E-5,744.0,4.0,50,120
4078,E-4,744.0,4.0,50,120
4079,E-4,744.0,4.0,50,120
4080,E-5,744.0,4.0,50,120
4081,E-4,744.0,4.0,50,120
4082,E-1,744.25,3.75,64,120
4083,C2,744.5,0.25,64,120
4084,F3,744.5,0.5,32,120
4085,G#3,744.75,0.25,53,120
4086,A4,744.75,0.25,53,120
4087,G#3,744.75,0.25,53,120
4088,G#3,745.0,0.5,32,120
4089,B-3,745.0,0.75,48,120
4090,B-3,745.0,0.75,48,120
4091,C#2,745.0,0.25,88,120
4092,B1,745.0,0.25,88,120
4093,A1,745.0,0.25,88,120
4094,A4,745.0,0.25,88,120
4095,C#4,745.5,1.0,32,120
4096,G#3,745.75,0.25,56,120
4097,C#2,745.75,0.25,56,120
4098,A4,745.75,0.25,56,120
4099,G#3,745.75,0.25,56,120
4100,B-3,746.0,0.75,48,120
4101,B-3,746.0,0.75,48,120
4102,C2,746.0,0.25,64,120
4103,A4,746.0,0.25,64,120
4104,C2,746.5,0.25,64,120
4105,E-4,746.5,1.5,32,120
4106,G#3,746.75,0.25,53,120
4107,A4,746.75,0.25,53,120
4108,G#3,746.75,0.25,53,120
4109,B-3,747.0,0.75,48,120
4110,B-3,747.0,0.75,48,120
4111,C#2,747.0,0.25,88,120
4112,B1,747.0,0.25,88,120
4113,A1,747.0,0.25,88,120
4114,A4,747.0,0.25,88,120
4115,B-2,747.5,0.5,32,120
4116,G#3,747.75,0.25,53,120
4117,A4,747.75,0.25,53,120
4118,G#3,747.75,0.25,53,120
4119,E-1,760.0,4.0,64,120
4120,E-4,760.0,0.5,32,120
4121,B-3,760.0,0.75,48,120
4122,B-3,760.0,0.75,48,120
4123,C2,760.0,0.25,64,120
4124,C#2,760.0,0.25,64,120
4125,A4,760.0,0.25,64,120
4126,E-4,760.0,4.0,47,120
4127,E-5,760.0,4.0,47,120
4128,E-4,760.0,4.0,47,120
4129,E-5,760.0,4.0,47,120
4130,B-3,760.0,4.0,47,120
4131,E-4,760.0,4.0,47,120
4132,E-3,760.0,12.0,29,120
4133,B-3,760.0,12.0,29,120
4134,E-4,760.0,12.0,29,120
4135,E-3,760.0,12.0,29,120
4136,C2,760.5,0.25,64,120
4137,F3,760.5,0.5,32,120
4138,G#3,760.75,0.25,53,120
4139,A4,760.75,0.25,53,120
4140,G#3,760.75,0.25,53,120
4141,G#3,761.0,0.5,32,120
4142,B-3,761.0,0.75,48,120
4143,B-3,761.0,0.75,48,120
4144,C#2,761.0,0.25,88,120
4145,B1,761.0,0.25,88,120
4146,A1,761.0,0.25,88,120
4147,A4,761.0,0.25,88,120
4148,C#4,761.5,1.0,32,120
4149,G#3,761.75,0.25,56,120
4150,C#2,761.75,0.25,56,120
4151,A4,761.75,0.25,56,120
4152,G#3,761.75,0.25,56,120
4153,B-3,762.0,0.25,56,120
4154,C2,762.0,0.25,56,120
4155,A4,762.0,0.25,56,120
4156,B-3,762.0,0.25,56,120
4157,B3,762.25,0.25,48,120
4158,B3,762.25,0.25,48,120
4159,C2,762.5,0.25,64,120
4160,E-4,762.5,1.5,32,120
4161,C#4,762.5,0.5,48,120
4162,C#4,762.5,0.5,48,120
4163,A4,762.75,0.25,64,120
4164,B3,763.0,0.5,48,120
4165,B3,763.0,0.5,48,120
4166,C#2,763.0,0.25,88,120
4167,B1,763.0,0.25,88,120
4168,A1,763.0,0.25,88,120
4169,A4,763.0,0.25,88,120
4170,B-2,763.5,0.5,32,120
4171,B-3,763.5,0.25,48,120
4172,B-3,763.5,0.25,48,120
4173,A4,763.75,0.25,53,120
4174,G#3,763.75,0.25,53,120
4175,G#3,763.75,0.25,53,120
4176,F#3,772.0,0.25,59,120
4177,C2,772.0,0.25,59,120
4178,C#2,772.0,0.25,59,120
4179,A4,772.0,0.25,59,120
4180,E-1,772.0,0.25,59,120
4181,F#3,772.0,0.25,59,120
4182,E-5,772.0,4.0,32,120
4183,E-4,772.0,4.0,32,120
4184,E-5,772.0,4.0,44,120
4185,E-4,772.0,4.0,44,120
4186,E-4,772.0,4.0,44,120
4187,E-1,772.25,3.75,64,120
4188,F3,772.25,0.25,48,120
4189,F3,772.25,0.25,48,120
4190,C2,772.5,0.25,64,120
4191,E-3,772.5,3.5,48,120
4192,E-3,772.5,3.5,48,120
4193,F3,772.5,0.5,64,120
4194,F3,772.5,0.5,64,120
4195,A4,772.75,0.25,64,120
4196,C#2,773.0,0.25,88,120
4197,B1,773.0,0.25,88,120
4198,A1,773.0,0.25,88,120
4199,A4,773.0,0.25,88,120
4200,G#3,773.0,0.5,64,120
4201,G#3,773.0,0.5,64,120
4202,C#4,773.5,1.0,64,120
4203,C#4,773.5,1.0,64,120
4204,C#2,773.75,0.25,64,120
4205,A4,773.75,0.25,64,120
4206,C2,774.0,0.25,64,120
4207,A4,774.0,0.25,64,120
4208,C2,774.5,0.25,64,120
4209,E-4,774.5,1.5,64,120
4210,E-4,774.5,1.5,64,120
4211,A4,774.75,0.25,64,120
4212,C#2,775.0,0.25,88,120
4213,B1,775.0,0.25,88,120
4214,A1,775.0,0.25,88,120
4215,A4,775.0,0.25,88,120
4216,B-1,775.5,0.25,64,120
4217,A4,775.75,0.25,64,120
4218,E-1,780.0,4.0,64,120
4219,C2,780.0,0.25,64,120
4220,C#2,780.0,0.25,64,120
4221,A4,780.0,0.25,64,120
4222,E-3,780.0,4.0,48,120
4223,E-3,780.0,4.0,48,120
4224,E-5,780.0,4.0,32,120
4225,E-4,780.0,4.0,32,120
4226,E-5,780.0,3.5,44,120
4227,E-4,780.0,3.5,44,120
4228,E-4,780.0,3.5,44,120
4229,E-4,780.0,0.5,64,120
4230,E-4,780.0,0.5,64,120
4231,C2,780.5,0.25,64,120
4232,F3,780.5,0.5,64,120
4233,F3,780.5,0.5,64,120
4234,A4,780.75,0.25,64,120
4235,C#2,781.0,0.25,88,120
4236,B1,781.0,0.25,88,120
4237,A1,781.0,0.25,88,120
4238,A4,781.0,0.25,88,120
4239,G#3,781.0,0.5,64,120
4240,G#3,781.0,0.5,64,120
4241,C#4,781.5,1.0,64,120
4242,C#4,781.5,1.0,64,120
4243,C#2,781.75,0.25,64,120
4244,A4,781.75,0.25,64,120
4245,C2,782.0,0.25,64,120
4246,A4,782.0,0.25,64,120
4247,C2,782.5,0.25,64,120
4248,E-4,782.5,1.5,64,120
4249,E-4,782.5,1.5,64,120
4250,A4,782.75,0.25,64,120
4251,C#2,783.0,0.25,88,120
4252,B1,783.0,0.25,88,120
4253,A1,783.0,0.25,88,120
4254,A4,783.0,0.25,88,120
4255,B-2,783.5,0.5,38,120
4256,G#3,783.5,0.5,38,120
4257,G#4,783.5,0.5,38,120
4258,G#3,783.5,0.5,38,120
4259,A4,783.75,0.25,64,120
4260,E-1,784.0,0.25,64,120
4261,C2,784.0,0.25,64,120
4262,C#2,784.0,0.25,64,120
4263,A4,784.0,0.25,64,120
4264,B-3,784.0,0.75,48,120
4265,B-3,784.0,0.75,48,120
4266,E-3,784.0,4.0,29,120
4267,B-3,784.0,4.0,29,120
4268,E-4,784.0,4.0,29,120
4269,E-3,784.0,4.0,29,120
4270,E-5,784.0,4.0,47,120
4271,E-4,784.0,4.0,47,120
4272,E-4,784.0,4.0,47,120
4273,E-5,784.0,4.0,47,120
4274,E-4,784.0,4.0,47,120
4275,E-6,784.0,4.0,47,120
4276,E-1,784.25,3.75,64,120
4277,C2,784.5,0.25,64,120
4278,F3,784.5,0.5,32,120
4279,G#3,784.75,0.25,53,120
4280,A4,784.75,0.25,53,120
4281,G#3,784.75,0.25,53,120
4282,G#3,785.0,0.5,32,120
4283,B-3,785.0,0.75,48,120
4284,B-3,785.0,0.75,48,120
4285,C#2,785.0,0.25,88,120
4286,B1,785.0,0.25,88,120
4287,A1,785.0,0.25,88,120
4288,A4,785.0,0.25,88,120
4289,C#4,785.5,1.0,32,120
4290,G#3,785.75,0.25,56,120
4291,C#2,785.75,0.25,56,120
4292,A4,785.75,0.25,56,120
4293,G#3,785.75,0.25,56,120
4294,B-3,786.0,0.75,48,120
4295,B-3,786.0,0.75,48,120
4296,C2,786.0,0.25,64,120
4297,A4,786.0,0.25,64,120
4298,C2,786.5,0.25,64,120
4299,E-4,786.5,1.5,32,120
4300,G#3,786.75,0.25,53,120
4301,A4,786.75,0.25,53,120
4302,G#3,786.75,0.25,53,120
4303,B-3,787.0,0.75,48,120
4304,B-3,787.0,0.75,48,120
4305,C#2,787.0,0.25,88,120
4306,B1,787.0,0.25,88,120
4307,A1,787.0,0.25,88,120
4308,A4,787.0,0.25,88,120
4309,B-2,787.5,0.5,32,120
4310,G#3,787.75,0.25,53,120
4311,A4,787.75,0.25,53,120
4312,G#3,787.75,0.25,53,120
4313,E-1,800.0,4.0,64,120
4314,E-4,800.0,0.5,32,120
4315,B-3,800.0,0.75,48,120
4316,B-3,800.0,0.75,48,120
4317,C2,800.0,0.25,64,120
4318,C#2,800.0,0.25,64,120
4319,A4,800.0,0.25,64,120
4320,E-4,800.0,4.0,43,120
4321,E-4,800.0,4.0,43,120
4322,E-5,800.0,4.0,43,120
4323,E-6,800.0,4.0,43,120
4324,E-5,800.0,4.0,43,120
4325,B-3,800.0,4.0,43,120
4326,E-4,800.0,4.0,43,120
4327,E-3,800.0,12.0,29,120
4328,B-3,800.0,12.0,29,120
4329,E-4,800.0,12.0,29,120
4330,E-3,800.0,12.0,29,120
4331,C2,800.5,0.25,64,120
4332,F3,800.5,0.5,32,120
4333,G#3,800.75,0.25,53,120
4334,A4,800.75,0.25,53,120
4335,G#3,800.75,0.25,53,120
4336,G#3,801.0,0.5,32,120
4337,B-3,801.0,0.75,48,120
4338,B-3,801.0,0.75,48,120
4339,C#2,801.0,0.25,88,120
4340,B1,801.0,0.25,88,120
4341,A1,801.0,0.25,88,120
4342,A4,801.0,0.25,88,120
4343,C#4,801.5,1.0,32,120
4344,G#3,801.75,0.25,56,120
4345,C#2,801.75,0.25,56,120
4346,A4,801.75,0.25,56,120
4347,G#3,801.75,0.25,56,120
4348,B-3,802.0,0.25,56,120
4349,C2,802.0,0.25,56,120
4350,A4,802.0,0.25,56,120
4351,B-3,802.0,0.25,56,120
4352,B3,802.25,0.25,48,120
4353,B3,802.25,0.25,48,120
4354,C2,802.5,0.25,64,120
4355,E-4,802.5,1.5,32,120
4356,C#4,802.5,0.5,48,120
4357,C#4,802.5,0.5,48,120
4358,A4,802.75,0.25,64,120
4359,B3,803.0,0.5,48,120
4360,B3,803.0,0.5,48,120
4361,C#2,803.0,0.25,88,120
4362,B1,803.0,0.25,88,120
4363,A1,803.0,0.25,88,120
4364,A4,803.0,0.25,88,120
4365,B-2,803.5,0.5,32,120
4366,B-3,803.5,0.25,48,120
4367,B-3,803.5,0.25,48,120
4368,A4,803.75,0.25,53,120
4369,G#3,803.75,0.25,53,120
4370,G#3,803.75,0.25,53,120
4371,F#3,812.0,0.25,59,120
4372,C2,812.0,0.25,59,120
4373,C#2,812.0,0.25,59,120
4374,A4,812.0,0.25,59,120
4375,E-1,812.0,0.25,59,120
4376,F#3,812.0,0.25,59,120
4377,E-5,812.0,4.0,36,120
4378,E-4,812.0,4.0,36,120
4379,E-4,812.0,4.0,36,120
4380,E-5,812.0,4.0,36,120
4381,E-4,812.0,4.0,36,120
4382,E-6,812.0,4.0,36,120
4383,E-1,812.25,3.75,64,120
4384,F3,812.25,0.25,48,120
4385,F3,812.25,0.25,48,120
4386,C2,812.5,0.25,64,120
4387,E-3,812.5,3.5,48,120
4388,E-3,812.5,3.5,48,120
4389,F3,812.5,0.5,64,120
4390,F3,812.5,0.5,64,120
4391,A4,812.75,0.25,64,120
4392,C#2,813.0,0.25,88,120
4393,B1,813.0,0.25,88,120
4394,A1,813.0,0.25,88,120
4395,A4,813.0,0.25,88,120
4396,G#3,813.0,0.5,64,120
4397,G#3,813.0,0.5,64,120
4398,C#4,813.5,1.0,64,120
4399,C#4,813.5,1.0,64,120
4400,C#2,813.75,0.25,64,120
4401,A4,813.75,0.25,64,120
4402,C2,814.0,0.25,64,120
4403,A4,814.0,0.25,64,120
4404,C2,814.5,0.25,64,120
4405,E-4,814.5,1.5,64,120
4406,E-4,814.5,1.5,64,120
4407,A4,814.75,0.25,64,120
4408,C#2,815.0,0.25,88,120
4409,B1,815.0,0.25,88,120
4410,A1,815.0,0.25,88,120
4411,A4,815.0,0.25,88,120
4412,B-1,815.5,0.25,64,120
4413,A4,815.75,0.25,64,120
4414,E-1,820.0,4.0,64,120
4415,C2,820.0,0.25,64,120
4416,C#2,820.0,0.25,64,120
4417,A4,820.0,0.25,64,120
4418,E-3,820.0,4.0,48,120
4419,E-3,820.0,4.0,48,120
4420,E-5,820.0,4.0,36,120
4421,E-4,820.0,4.0,36,120
4422,E-4,820.0,4.0,36,120
4423,E-5,820.0,4.0,36,120
4424,E-4,820.0,4.0,36,120
4425,E-6,820.0,4.0,36,120
4426,E-4,820.0,0.5,64,120
4427,E-4,820.0,0.5,64,120
4428,C2,820.5,0.25,64,120
4429,F3,820.5,0.5,64,120
4430,F3,820.5,0.5,64,120
4431,A4,820.75,0.25,64,120
4432,C#2,821.0,0.25,88,120
4433,B1,821.0,0.25,88,120
4434,A1,821.0,0.25,88,120
4435,A4,821.0,0.25,88,120
4436,G#3,821.0,0.5,64,120
4437,G#3,821.0,0.5,64,120
4438,C#4,821.5,1.0,64,120
4439,C#4,821.5,1.0,64,120
4440,C#2,821.75,0.25,64,120
4441,A4,821.75,0.25,64,120
4442,C2,822.0,0.25,64,120
4443,A4,822.0,0.25,64,120
4444,C2,822.5,0.25,64,120
4445,E-4,822.5,1.5,64,120
4446,E-4,822.5,1.5,64,120
4447,A4,822.75,0.25,64,120
4448,C#2,823.0,0.25,88,120
4449,B1,823.0,0.25,88,120
4450,A1,823.0,0.25,88,120
4451,A4,823.0,0.25,88,120
4452,B-2,823.5,0.5,32,120
4453,A4,823.75,0.25,64,120
4454,G#4,823.75,0.25,64,120
4455,G#3,823.75,0.25,64,120
4456,E-4,824.0,4.0,32,120
4457,C2,824.0,0.25,64,120
4458,A4,824.0,0.25,64,120
4459,C#2,824.0,0.25,64,120
4460,B-3,824.0,0.75,58,120
4461,B-3,824.0,0.75,58,120
4462,B-3,824.0,0.75,58,120
4463,E-4,824.0,0.75,58,120
4464,B-4,824.0,0.75,58,120
4465,E-2,824.0,4.0,43,120
4466,E-3,824.0,4.0,43,120
4467,E-1,824.0,4.0,43,120
4468,C2,824.5,0.25,64,120
4469,F3,824.5,0.5,32,120
4470,F3,824.5,0.5,32,120
4471,A4,824.75,0.25,59,120
4472,G#3,824.75,0.25,59,120
4473,G#3,824.75,0.25,59,120
4474,G#3,824.75,0.25,59,120
4475,G#4,824.75,0.25,59,120
4476,E-4,824.75,0.25,59,120
4477,C#2,825.0,0.25,88,120
4478,A4,825.0,0.25,88,120
4479,B1,825.0,0.25,88,120
4480,A1,825.0,0.25,88,120
4481,B-3,825.0,0.75,58,120
4482,B-3,825.0,0.75,58,120
4483,B-3,825.0,0.75,58,120
4484,B-4,825.0,0.75,58,120
4485,E-4,825.0,0.75,58,120
4486,G#3,825.0,0.5,32,120
4487,G#3,825.0,0.5,32,120
4488,C#4,825.5,1.0,32,120
4489,C#4,825.5,1.0,32,120
4490,C#2,825.75,0.25,59,120
4491,A4,825.75,0.25,59,120
4492,G#3,825.75,0.25,59,120
4493,G#3,825.75,0.25,59,120
4494,G#3,825.75,0.25,59,120
4495,G#4,825.75,0.25,59,120
4496,E-4,825.75,0.25,59,120
4497,C2,826.0,0.25,64,120
4498,A4,826.0,0.25,64,120
4499,B-3,826.0,0.75,58,120
4500,B-3,826.0,0.75,58,120
4501,B-3,826.0,0.75,58,120
4502,B-4,826.0,0.75,58,120
4503,E-4,826.0,0.75,58,120
4504,C2,826.5,0.25,64,120
4505,E-4,826.5,1.5,32,120
4506,E-4,826.5,1.5,32,120
4507,A4,826.75,0.25,59,120
4508,G#3,826.75,0.25,59,120
4509,G#3,826.75,0.25,59,120
4510,G#3,826.75,0.25,59,120
4511,G#4,826.75,0.25,59,120
4512,E-4,826.75,0.25,59,120
4513,C#2,827.0,0.25,83,120
4514,A4,827.0,0.25,83,120
4515,B1,827.0,0.25,83,120
4516,A1,827.0,0.25,83,120
4517,C#2,827.0,0.25,83,120
4518,B-3,827.0,0.75,58,120
4519,B-3,827.0,0.75,58,120
4520,B-3,827.0,0.75,58,120
4521,B-4,827.0,0.75,58,120
4522,E-4,827.0,0.75,58,120
4523,B-2,827.5,0.5,32,120
4524,A4,827.75,0.25,59,120
4525,G#3,827.75,0.25,59,120
4526,G#3,827.75,0.25,59,120
4527,G#3,827.75,0.25,59,120
4528,G#4,827.75,0.25,59,120
4529,E-4,827.75,0.25,59,120
4530,G#3,828.0,4.0,32,120
4531,E-4,828.0,4.0,32,120
4532,A4,828.0,0.25,64,120
4533,C2,828.0,0.25,64,120
4534,C#2,828.0,0.25,64,120
4535,B-3,828.0,0.75,58,120
4536,B-3,828.0,0.75,58,120
4537,B-3,828.0,0.75,58,120
4538,B-4,828.0,0.75,58,120
4539,E-4,828.0,0.75,58,120
4540,G#2,828.0,4.0,48,120
4541,G#1,828.0,4.0,48,120
4542,E-4,828.0,0.5,32,120
4543,E-4,828.0,0.5,32,120
4544,C2,828.5,0.25,64,120
4545,F3,828.5,0.5,32,120
4546,F3,828.5,0.5,32,120
4547,A4,828.75,0.25,59,120
4548,G#3,828.75,0.25,59,120
4549,G#3,828.75,0.25,59,120
4550,G#3,828.75,0.25,59,120
4551,G#4,828.75,0.25,59,120
4552,E-4,828.75,0.25,59,120
4553,A4,829.0,0.25,88,120
4554,C#2,829.0,0.25,88,120
4555,B1,829.0,0.25,88,120
4556,A1,829.0,0.25,88,120
4557,B-3,829.0,0.75,58,120
4558,B-3,829.0,0.75,58,120
4559,B-3,829.0,0.75,58,120
4560,B-4,829.0,0.75,58,120
4561,E-4,829.0,0.75,58,120
4562,G#3,829.0,0.5,32,120
4563,G#3,829.0,0.5,32,120
4564,C#4,829.5,1.0,32,120
4565,C#4,829.5,1.0,32,120
4566,A4,829.75,0.25,59,120
4567,G#3,829.75,0.25,59,120
4568,G#3,829.75,0.25,59,120
4569,C#2,829.75,0.25,59,120
4570,G#3,829.75,0.25,59,120
4571,G#4,829.75,0.25,59,120
4572,E-4,829.75,0.25,59,120
4573,A4,830.0,0.25,59,120
4574,B-3,830.0,0.25,59,120
4575,B-3,830.0,0.25,59,120
4576,C2,830.0,0.25,59,120
4577,B-3,830.0,0.25,59,120
4578,B-4,830.0,0.25,59,120
4579,E-4,830.0,0.25,59,120
4580,B3,830.25,0.25,58,120
4581,B3,830.25,0.25,58,120
4582,B3,830.25,0.25,58,120
4583,B4,830.25,0.25,58,120
4584,E-4,830.25,0.25,58,120
4585,C2,830.5,0.25,64,120
4586,E-4,830.5,1.5,32,120
4587,E-4,830.5,1.5,32,120
4588,C#4,830.5,0.5,53,120
4589,C#4,830.5,0.5,53,120
4590,C#4,830.5,0.5,53,120
4591,C#5,830.5,1.5,64,120
4592,E-4,830.5,1.5,64,120
4593,A4,830.75,0.25,64,120
4594,A4,831.0,0.25,88,120
4595,C#2,831.0,0.25,88,120
4596,B1,831.0,0.25,88,120
4597,A1,831.0,0.25,88,120
4598,B3,831.0,0.5,53,120
4599,B3,831.0,0.5,53,120
4600,B3,831.0,0.5,53,120
4601,B-2,831.5,0.5,48,120
4602,B-3,831.5,0.5,48,120
4603,B-3,831.5,0.5,48,120
4604,B-3,831.5,0.5,48,120
4605,A4,831.75,0.25,64,120
4606,B-1,832.0,2.0,64,120
4607,G#3,832.0,8.0,32,120
4608,A4,832.0,0.25,64,120
4609,C2,832.0,0.25,64,120
4610,C#2,832.0,0.25,64,120
4611,B-2,832.0,4.0,56,120
4612,G#3,832.0,4.0,56,120
4613,G#4,832.0,4.0,56,120
4614,E-4,832.0,4.0,56,120
4615,G#3,832.0,4.0,53,120
4616,G#3,832.0,4.0,53,120
4617,G#3,832.0,4.0,53,120
4618,E-4,832.0,0.5,32,120
4619,E-4,832.0,0.5,32,120
4620,C2,832.5,0.25,64,120
4621,F3,832.5,0.5,64,120
4622,F3,832.5,0.5,64,120
4623,A4,832.75,0.25,64,120
4624,A4,833.0,0.25,88,120
4625,C#2,833.0,0.25,88,120
4626,B1,833.0,0.25,88,120
4627,A1,833.0,0.25,88,120
4628,G#3,833.0,0.5,64,120
4629,G#3,833.0,0.5,64,120
4630,E-4,833.5,1.0,64,120
4631,E-4,833.5,1.0,64,120
4632,A4,833.75,0.25,64,120
4633,C#2,833.75,0.25,64,120
4634,B-1,834.0,2.0,64,120
4635,A4,834.0,0.25,64,120
4636,C2,834.0,0.25,64,120
4637,C2,834.5,0.25,64,120
4638,F4,834.5,1.5,64,120
4639,F4,834.5,1.5,64,120
4640,A4,834.75,0.25,64,120
4641,A4,835.0,0.25,88,120
4642,C#2,835.0,0.25,88,120
4643,B1,835.0,0.25,88,120
4644,A1,835.0,0.25,88,120
4645,B-2,835.5,0.5,32,120
4646,A4,835.75,0.25,64,120
4647,G#2,840.0,4.0,32,120
4648,G#1,840.0,2.0,64,120
4649,A4,840.0,0.25,64,120
4650,C2,840.0,0.25,64,120
4651,C#2,840.0,0.25,64,120
4652,F4,840.0,0.5,64,120
4653,F4,840.0,0.5,64,120
4654,G#3,840.0,4.0,53,120
4655,G#3,840.0,4.0,53,120
4656,G#3,840.0,4.0,53,120
4657,C2,840.5,0.25,64,120
4658,F3,840.5,0.5,64,120
4659,F3,840.5,0.5,64,120
4660,A4,840.75,0.25,64,120
4661,A4,841.0,0.25,88,120
4662,C#2,841.0,0.25,88,120
4663,B1,841.0,0.25,88,120
4664,A1,841.0,0.25,88,120
4665,G#3,841.0,0.5,64,120
4666,G#3,841.0,0.5,64,120
4667,E-4,841.5,1.0,64,120
4668,E-4,841.5,1.0,64,120
4669,A4,841.75,0.25,64,120
4670,C#2,841.75,0.25,64,120
4671,G#1,842.0,2.0,64,120
4672,A4,842.0,0.25,64,120
4673,C2,842.0,0.25,64,120
4674,C2,842.5,0.25,64,120
4675,F4,842.5,1.5,64,120
4676,F4,842.5,1.5,64,120
4677,A4,842.75,0.25,64,120
4678,A4,843.0,0.25,88,120
4679,C#2,843.0,0.25,88,120
4680,B1,843.0,0.25,88,120
4681,A1,843.0,0.25,88,120
4682,B-2,843.5,0.5,32,120
4683,A4,843.75,0.25,64,120
4684,B-3,844.0,0.75,56,120
4685,B-3,844.0,0.75,56,120
4686,E-4,844.0,0.75,56,120
4687,B-3,844.0,0.75,56,120
4688,E-4,844.0,4.0,48,120
4689,F5,844.0,4.0,48,120
4690,E-2,844.0,4.0,43,120
4691,E-3,844.0,4.0,43,120
4692,E-1,844.0,4.0,43,120
4693,C2,844.0,0.25,64,120
4694,A4,844.0,0.25,64,120
4695,G#3,844.75,0.25,56,120
4696,G#3,844.75,0.25,56,120
4697,E-4,844.75,0.25,56,120
4698,G#3,844.75,0.25,56,120
4699,E2,845.0,0.25,32,120
4700,B-3,845.0,0.75,56,120
4701,B-3,845.0,0.75,56,120
4702,E-4,845.0,0.75,56,120
4703,B-3,845.0,0.75,56,120
4704,G#3,845.75,0.25,51,120
4705,G#3,845.75,0.25,51,120
4706,E-4,845.75,0.25,51,120
4707,E2,845.75,0.25,51,120
4708,G#3,845.75,0.25,51,120
4709,C2,846.0,0.125,29,120
4710,A4,846.0,0.25,64,120
4711,B-3,846.0,0.75,56,120
4712,B-3,846.0,0.75,56,120
4713,E-4,846.0,0.75,56,120
4714,B-3,846.0,0.75,56,120
4715,C2,846.25,0.125,23,120
4716,A4,846.25,0.25,64,120
4717,C2,846.5,0.125,13,120
4718,G#3,846.75,0.25,56,120
4719,G#3,846.75,0.25,56,120
4720,E-4,846.75,0.25,56,120
4721,G#3,846.75,0.25,56,120
4722,E2,847.0,0.25,32,120
4723,B-3,847.0,0.75,56,120
4724,B-3,847.0,0.75,56,120
4725,E-4,847.0,0.75,56,120
4726,B-3,847.0,0.75,56,120
4727,G#3,847.75,0.25,56,120
4728,G#3,847.75,0.25,56,120
4729,E-4,847.75,0.25,56,120
4730,G#3,847.75,0.25,56,120
4731,G#3,852.0,4.0,32,120
4732,C2,852.0,0.25,64,120
4733,B-3,852.0,0.75,56,120
4734,B-3,852.0,0.75,56,120
4735,E-4,852.0,0.75,56,120
4736,B-3,852.0,0.75,56,120
4737,G#2,852.0,4.0,48,120
4738,G#1,852.0,4.0,48,120
4739,E-4,852.0,4.0,48,120
4740,F5,852.0,4.0,48,120
4741,G#3,852.75,0.25,56,120
4742,G#3,852.75,0.25,56,120
4743,E-4,852.75,0.25,56,120
4744,G#3,852.75,0.25,56,120
4745,E2,853.0,0.25,32,120
4746,B-3,853.0,0.75,56,120
4747,B-3,853.0,0.75,56,120
4748,E-4,853.0,0.75,56,120
4749,B-3,853.0,0.75,56,120
4750,G#3,853.75,0.25,51,120
4751,G#3,853.75,0.25,51,120
4752,E-4,853.75,0.25,51,120
4753,E2,853.75,0.25,51,120
4754,G#3,853.75,0.25,51,120
4755,C2,854.0,0.125,29,120
4756,B-3,854.0,0.25,58,120
4757,B-3,854.0,0.25,58,120
4758,E-4,854.0,0.25,58,120
4759,A4,854.0,0.25,58,120
4760,B-3,854.0,0.25,58,120
4761,C2,854.25,0.125,23,120
4762,B3,854.25,0.25,58,120
4763,B3,854.25,0.25,58,120
4764,A4,854.25,0.25,58,120
4765,B3,854.25,0.25,58,120
4766,E-4,854.25,0.25,58,120
4767,C2,854.5,0.125,13,120
4768,C#4,854.5,1.0,64,120
4769,C#4,854.5,0.5,53,120
4770,E-4,854.5,0.5,53,120
4771,C#4,854.5,0.5,53,120
4772,E2,855.0,0.25,32,120
4773,B3,855.0,0.5,56,120
4774,B3,855.0,0.5,56,120
4775,B3,855.0,0.5,56,120
4776,E-4,855.0,0.5,56,120
4777,B-3,855.5,0.5,58,120
4778,B-3,855.5,0.5,58,120
4779,B-3,855.5,0.5,58,120
4780,E-4,855.5,0.5,58,120
4781,E-4,855.5,0.5,58,120
4782,A4,855.75,0.25,64,120
4783,B-2,856.0,4.0,32,120
4784,B-1,856.0,2.0,64,120
4785,G#3,856.0,4.0,32,120
4786,G#3,856.0,3.0,64,120
4787,G#3,856.0,0.5,64,120
4788,G#3,856.0,3.5,64,120
4789,G#3,856.0,8.0,32,120
4790,C2,856.0,0.25,64,120
4791,A4,856.0,0.25,64,120
4792,E2,857.0,0.25,32,120
4793,E2,857.75,0.25,32,120
4794,B-1,858.0,2.0,64,120
4795,C2,858.0,0.125,29,120
4796,A4,858.0,0.25,64,120
4797,C2,858.25,0.125,23,120
4798,A4,858.25,0.25,64,120
4799,C2,858.5,0.125,13,120
4800,E2,859.0,0.25,32,120
4801,G#3,859.5,0.5,64,120
4802,G#3,859.5,0.5,64,120
4803,B-3,859.5,0.5,64,120
4804,G#1,864.0,2.0,64,120
4805,C2,864.0,0.25,64,120
4806,F#3,864.0,0.5,64,120
4807,E-3,864.0,4.0,64,120
4808,F#3,864.0,3.0,64,120
4809,G#3,864.0,4.0,32,120
4810,E2,865.0,0.25,32,120
4811,E2,865.75,0.25,32,120
4812,G#1,866.0,2.0,64,120
4813,C2,866.0,0.125,29,120
4814,A4,866.0,0.25,64,120
4815,C2,866.25,0.125,23,120
4816,A4,866.25,0.25,64,120
4817,C2,866.5,0.125,13,120
4818,E2,867.0,0.25,32,120
4819,B-3,867.0,1.0,64,120
4820,B-3,867.0,0.5,64,120
4821,A4,867.75,0.25,64,120
4822,E-3,868.0,1.0,64,120
4823,B-3,868.0,1.0,64,120
4824,B-3,868.0,0.75,34,120
4825,B-3,868.0,0.75,34,120
4826,C2,868.0,0.25,64,120
4827,A4,868.0,0.25,64,120
4828,G#3,868.0,4.0,44,120
4829,G#2,868.0,4.0,44,120
4830,G#3,868.0,4.0,44,120
4831,E-3,868.0,4.0,44,120
4832,G#3,868.75,0.25,34,120
4833,G#3,868.75,0.25,34,120
4834,E2,869.0,0.25,32,120
4835,E-3,869.0,3.0,64,120
4836,E-3,869.0,3.0,64,120
4837,B-3,869.0,0.75,34,120
4838,B-3,869.0,0.75,34,120
4839,G#3,869.75,0.25,32,120
4840,G#3,869.75,0.25,32,120
4841,E2,869.75,0.25,32,120
4842,C2,870.0,0.125,29,120
4843,A4,870.0,0.25,64,120
4844,B-3,870.0,0.75,32,120
4845,B-3,870.0,0.75,32,120
4846,C2,870.25,0.125,23,120
4847,A4,870.25,0.25,64,120
4848,C2,870.5,0.125,13,120
4849,G#3,870.75,0.25,32,120
4850,G#3,870.75,0.25,32,120
4851,E2,871.0,0.25,32,120
4852,B-3,871.0,0.75,32,120
4853,B-3,871.0,0.75,32,120
4854,G#3,871.75,0.25,31,120
4855,G#3,871.75,0.25,31,120
4856,C2,900.0,0.25,64,120
4857,B-3,900.0,0.75,30,120
4858,B-3,900.0,0.75,30,120
4859,E-3,900.0,4.0,64,120
4860,E-3,900.0,4.0,64,120
4861,G#3,900.0,28.0,44,120
4862,G#2,900.0,28.0,44,120
4863,G#3,900.0,28.0,44,120
4864,E-3,900.0,28.0,44,120
4865,G#3,900.75,0.25,30,120
4866,G#3,900.75,0.25,30,120
4867,E2,901.0,0.25,32,120
4868,B-3,901.0,0.75,30,120
4869,B-3,901.0,0.75,30,120
4870,G#3,901.75,0.25,30,120
4871,G#3,901.75,0.25,30,120
4872,E2,901.75,0.25,30,120
4873,C2,902.0,0.125,29,120
4874,A4,902.0,0.25,64,120
4875,B-3,902.0,0.75,28,120
4876,B-3,902.0,0.75,28,120
4877,C2,902.25,0.125,23,120
4878,A4,902.25,0.25,64,120
4879,C2,902.5,0.125,13,120
4880,G#3,902.75,0.25,28,120
4881,G#3,902.75,0.25,28,120
4882,E2,903.0,0.25,32,120
4883,B-3,903.0,0.75,28,120
4884,B-3,903.0,0.75,28,120
4885,G#3,903.75,0.25,39,120
4886,G#3,903.75,0.25,39,120
4887,A4,903.75,0.25,39,120
4888,B-3,928.0,0.75,26,120
4889,B-3,928.0,0.75,26,120
4890,C2,928.0,0.25,64,120
4891,A4,928.0,0.25,64,120
4892,G#3,928.75,0.25,26,120
4893,G#3,928.75,0.25,26,120
4894,E2,929.0,0.25,32,120
4895,B-3,929.0,0.75,26,120
4896,B-3,929.0,0.75,26,120
4897,G#3,929.75,0.25,27,120
4898,G#3,929.75,0.25,27,120
4899,E2,929.75,0.25,27,120
4900,C2,930.0,0.125,29,120
4901,A4,930.0,0.25,64,120
4902,B-3,930.0,0.75,24,120
4903,B-3,930.0,0.75,24,120
4904,C2,930.25,0.125,23,120
4905,A4,930.25,0.25,64,120
4906,C2,930.5,0.125,13,120
4907,G#3,930.75,0.25,24,120
4908,G#3,930.75,0.25,24,120
4909,E2,931.0,0.25,32,120
4910,B-3,931.0,0.75,24,120
4911,B-3,931.0,0.75,24,120
4912,G#3,931.75,0.25,23,120
4913,G#3,931.75,0.25,23,120
4914,C2,932.0,0.25,64,120
4915,B-3,932.0,0.75,22,120
4916,B-3,932.0,0.75,22,120
4917,G#3,932.75,0.25,22,120
4918,G#3,932.75,0.25,22,120
4919,E2,933.0,0.25,32,120
4920,B-3,933.0,0.75,22,120
4921,B-3,933.0,0.75,22,120
4922,G#3,933.75,0.25,25,120
4923,G#3,933.75,0.25,25,120
4924,E2,933.75,0.25,25,120
4925,C2,934.0,0.125,29,120
4926,A4,934.0,0.25,64,120
4927,B-3,934.0,0.75,20,120
4928,B-3,934.0,0.75,20,120
4929,C2,934.25,0.125,23,120
4930,A4,934.25,0.25,64,120
4931,C2,934.5,0.125,13,120
4932,G#3,934.75,0.25,20,120
4933,G#3,934.75,0.25,20,120
4934,E2,935.0,0.25,32,120
4935,B-3,935.0,0.75,20,120
4936,B-3,935.0,0.75,20,120
4937,G#3,935.75,0.25,34,120
4938,G#3,935.75,0.25,34,120
4939,A4,935.75,0.25,34,120
4940,B-3,936.0,0.75,18,120
4941,B-3,936.0,0.75,18,120
4942,C2,936.0,0.25,64,120
4943,A4,936.0,0.25,64,120
4944,G#3,936.75,0.25,18,120
4945,G#3,936.75,0.25,18,120
4946,E2,937.0,0.25,32,120
4947,B-3,937.0,0.75,18,120
4948,B-3,937.0,0.75,18,120
4949,G#3,937.75,0.25,22,120
4950,G#3,937.75,0.25,22,120
4951,E2,937.75,0.25,22,120
4952,C2,938.0,0.125,29,120
4953,A4,938.0,0.25,64,120
4954,B-3,938.0,0.75,17,120
4955,B-3,938.0,0.75,17,120
4956,C2,938.25,0.125,23,120
4957,A4,938.25,0.25,64,120
4958,C2,938.5,0.125,13,120
4959,G#3,938.75,0.25,16,120
4960,G#3,938.75,0.25,16,120
4961,E2,939.0,0.25,32,120
4962,B-3,939.0,0.75,16,120
4963,B-3,939.0,0.75,16,120
4964,G#3,939.75,0.25,15,120
4965,G#3,939.75,0.25,15,120
4966,C2,940.0,0.25,64,120
4967,B-3,940.0,0.75,14,120
4968,B-3,940.0,0.75,14,120
4969,G#3,940.75,0.25,14,120
4970,G#3,940.75,0.25,14,120
4971,E2,941.0,0.25,32,120
4972,B-3,941.0,0.75,14,120
4973,B-3,941.0,0.75,14,120
4974,E2,941.75,0.25,19,120
4975,G#3,941.75,0.25,19,120
4976,G#3,941.75,0.25,19,120
4977,C2,942.0,0.125,29,120
4978,A4,942.0,0.25,64,120
4979,B-3,942.0,0.75,13,120
4980,B-3,942.0,0.75,13,120
4981,C2,942.25,0.125,23,120
4982,A4,942.25,0.25,64,120
4983,C2,942.5,0.125,13,120
4984,G#3,942.75,0.25,12,120
4985,G#3,942.75,0.25,12,120
4986,E2,943.0,0.25,32,120
4987,B-3,943.0,0.75,12,120
4988,B-3,943.0,0.75,12,120
4989,A4,943.75,0.25,29,120
4990,G#3,943.75,0.25,29,120
4991,G#3,943.75,0.25,29,120
4992,C2,944.0,0.25,64,120
4993,A4,944.0,0.25,64,120
4994,B-3,944.0,0.75,10,120
4995,B-3,944.0,0.75,10,120
4996,G#3,944.75,0.25,10,120
4997,G#3,944.75,0.25,10,120
4998,E2,945.0,0.25,32,120
4999,B-3,945.0,0.75,10,120
5000,B-3,945.0,0.75,10,120
5001,E2,945.75,0.25,17,120
5002,G#3,945.75,0.25,17,120
5003,G#3,945.75,0.25,17,120
5004,C2,946.0,0.125,29,120
5005,A4,946.0,0.25,64,120
5006,B-3,946.0,0.75,9,120
5007,B-3,946.0,0.75,9,120
5008,C2,946.25,0.125,23,120
5009,A4,946.25,0.25,64,120
5010,C2,946.5,0.125,13,120
5011,G#3,946.75,0.25,8,120
5012,G#3,946.75,0.25,8,120
5013,E2,947.0,0.25,32,120
5014,B-3,947.0,0.75,8,120
5015,B-3,947.0,0.75,8,120
5016,G#3,947.75,0.25,8,120
5017,G#3,947.75,0.25,8,120
5018,C2,948.0,0.25,64,120
5019,B-3,948.0,0.75,6,120
5020,B-3,948.0,0.75,6,120
5021,G#3,948.75,0.25,6,120
5022,G#3,948.75,0.25,6,120
5023,E2,949.0,0.25,32,120
5024,B-3,949.0,0.75,6,120
5025,B-3,949.0,0.75,6,120
5026,E2,949.75,0.25,14,120
5027,G#3,949.75,0.25,14,120
5028,G#3,949.75,0.25,14,120
5029,C2,950.0,0.125,29,120
5030,A4,950.0,0.25,64,120
5031,B-3,950.0,0.75,5,120
5032,B-3,950.0,0.75,5,120
5033,C2,950.25,0.125,23,120
5034,A4,950.25,0.25,64,120
5035,C2,950.5,0.125,13,120
5036,G#3,950.75,0.25,4,120
5037,G#3,950.75,0.25,4,120
5038,E2,951.0,0.25,32,120
5039,B-3,951.0,0.75,4,120
5040,B-3,951.0,0.75,4,120
5041,A4,951.75,0.25,35,120
5042,G#3,951.75,0.25,35,120
