,note_name,start_time,duration,velocity,tempo
0,D4,0.0,0.125,79,80.0
1,E4,0.125,1.375,79,80.0
2,F#4,1.5,0.375,79,80.0
3,G4,1.875,0.375,47,80.0
4,E4,2.25,1.75,63,80.0
5,F#4,4.0,0.375,79,80.0
6,G4,4.375,0.375,22,80.0
7,E4,4.75,0.375,63,80.0
8,G4,5.125,0.375,63,80.0
9,E4,5.5,0.5,47,80.0
10,F#4,6.0,0.5,63,80.0
11,F#4,6.5,1.5,63,80.0
12,F#4,8.0,0.5,63,80.0
13,F#4,8.5,0.5,79,80.0
14,G4,9.0,0.375,22,80.0
15,A4,9.375,0.375,63,80.0
16,F#4,9.75,1.25,79,80.0
17,G4,11.0,0.5,63,80.0
18,A4,11.5,0.5,22,80.0
19,F#4,12.0,0.5,63,80.0
20,A4,12.5,0.5,63,80.0
21,G4,13.0,0.5,47,80.0
22,B4,13.5,2.0,63,80.0
23,B4,15.5,0.5,79,80.0
24,C5,16.0,0.375,22,80.0
25,D5,16.375,0.375,63,80.0
26,B4,16.75,1.375,63,80.0
27,C5,18.125,0.375,79,80.0
28,D5,18.5,0.5,22,80.0
29,B4,19.0,0.5,63,80.0
30,D5,19.5,0.5,63,80.0
31,C5,20.0,0.5,63,80.0
32,A4,20.5,0.5,63,80.0
33,A4,21.0,1.5,47,80.0
34,G4,22.5,0.5,63,80.0
35,A4,23.0,0.5,79,80.0
36,G4,23.5,0.5,38,80.0
37,F#4,24.0,1.0,63,80.0
38,G4,25.0,0.5,63,80.0
39,F#4,25.5,0.5,79,80.0
40,F#4,26.0,0.5,79,80.0
41,G4,26.5,0.75,95,80.0
42,B3,27.25,0.5,63,80.0
43,E4,27.75,0.25,63,80.0
44,E4,28.0,1.0,63,80.0
45,D4,28.875,0.125,63,80.0
46,E4,29.0,1.0,63,80.0
47,F#4,30.0,1.0,63,80.0
48,G4,31.0,1.0,79,80.0
49,C5,32.0,0.5,71,80.0
50,A2,32.0,0.5,71,80.0
51,E4,32.5,0.5,79,80.0
52,A3,33.0,0.5,63,80.0
53,C5,33.5,1.5,79,80.0
54,E2,34.0,1.0,63,80.0
55,A3,35.0,1.0,63,80.0
56,D3,36.0,1.0,79,80.0
57,D4,37.0,0.5,71,80.0
58,F#3,37.0,0.5,71,80.0
59,E4,37.5,1.0,79,80.0
60,A2,38.0,0.5,63,80.0
61,F#4,38.5,1.5,79,80.0
62,F#3,39.0,1.0,63,80.0
63,B4,40.0,1.0,74,80.0
64,D4,40.0,1.0,74,80.0
65,G3,40.0,1.0,74,80.0
66,B4,41.0,2.0,79,80.0
67,D4,41.0,2.0,79,80.0
68,B3,41.0,2.0,79,80.0
69,C#3,42.0,1.0,95,80.0
70,B3,43.0,1.0,79,80.0
71,C3,44.0,0.5,79,80.0
72,C4,44.5,0.5,79,80.0
73,E3,45.0,0.5,63,80.0
74,D4,45.5,0.5,95,80.0
75,G2,46.0,0.5,63,80.0
76,E4,46.5,1.5,79,80.0
77,D4,47.0,1.0,71,80.0
78,E3,47.0,1.0,71,80.0
79,A4,48.0,1.0,68,80.0
80,C4,48.0,1.0,68,80.0
81,F#3,48.0,1.0,68,80.0
82,C4,49.0,1.0,79,80.0
83,C3,50.0,1.0,95,80.0
84,C4,51.0,1.0,79,80.0
85,B2,52.0,1.0,95,80.0
86,B3,53.0,0.5,71,80.0
87,A3,53.0,0.5,71,80.0
88,C#4,53.5,0.5,79,80.0
89,B2,54.0,0.5,63,80.0
90,E-4,54.5,0.5,79,80.0
91,A3,55.0,1.0,63,80.0
92,G4,56.0,0.5,71,80.0
93,E2,56.0,0.5,71,80.0
94,B3,56.5,0.5,79,80.0
95,E3,57.0,0.5,63,80.0
96,G4,57.5,1.5,79,80.0
97,B2,58.0,1.0,63,80.0
98,E3,59.0,1.0,95,80.0
99,B3,60.0,1.0,63,80.0
100,E3,60.0,1.0,63,80.0
101,E4,61.0,0.5,71,80.0
102,B3,61.0,0.5,71,80.0
103,F#4,61.5,1.0,79,80.0
104,B2,62.0,0.5,63,80.0
105,G4,62.5,1.5,79,80.0
106,B3,63.0,1.0,63,80.0
107,C5,64.0,0.5,71,80.0
108,A2,64.0,0.5,71,80.0
109,E4,64.5,1.0,79,80.0
110,A3,65.0,0.5,63,80.0
111,C5,65.5,1.5,79,80.0
112,E2,66.0,1.0,63,80.0
113,A3,67.0,1.0,63,80.0
114,D3,68.0,1.0,63,80.0
115,D4,69.0,0.5,71,80.0
116,F#3,69.0,0.5,71,80.0
117,E4,69.5,1.0,79,80.0
118,A2,70.0,0.5,63,80.0
119,F#4,70.5,1.5,79,80.0
120,F#3,71.0,1.0,63,80.0
121,B4,72.0,1.0,74,80.0
122,D4,72.0,1.0,74,80.0
123,G3,72.0,1.0,74,80.0
124,B4,73.0,1.0,68,80.0
125,D4,73.0,1.0,68,80.0
126,B3,73.0,1.0,68,80.0
127,C#3,74.0,1.0,79,80.0
128,B3,75.0,1.0,79,80.0
129,C3,76.0,0.5,63,80.0
130,D5,76.5,1.0,79,80.0
131,C4,77.0,0.5,63,80.0
132,C5,77.5,1.0,79,80.0
133,C3,78.0,0.5,63,80.0
134,B4,78.5,1.5,79,80.0
135,C4,79.0,1.0,63,80.0
136,A4,80.0,1.0,79,80.0
137,F#3,80.0,1.0,79,80.0
138,C4,81.0,1.0,79,80.0
139,C3,82.0,1.0,95,80.0
140,C4,83.0,1.0,79,80.0
141,B2,84.0,0.5,95,80.0
142,F#4,84.5,0.5,79,80.0
143,A3,85.0,0.5,63,80.0
144,A4,85.5,0.5,79,80.0
145,B2,86.0,0.5,63,80.0
146,G4,86.5,0.5,79,80.0
147,A3,87.0,0.5,63,80.0
148,E4,87.5,0.5,79,80.0
149,E2,88.0,0.5,63,80.0
150,B3,88.5,0.5,79,80.0
151,E3,89.0,1.0,63,80.0
152,C4,90.0,1.0,74,80.0
153,A3,90.0,1.0,74,80.0
154,A2,90.0,1.0,74,80.0
155,E3,91.0,0.5,79,80.0
156,E4,91.5,0.5,79,80.0
157,E2,92.0,0.5,95,80.0
158,E3,93.0,0.5,79,80.0
159,G3,93.5,167/1000,63,80.0
160,B3,93.667,167/1000,63,80.0
161,E4,93.833,167/1000,63,80.0
162,E-4,94.0,1.0,95,80.0
163,E4,95.0,1.0,79,80.0
164,F#4,96.0,0.5,71,80.0
165,B2,96.0,0.5,71,80.0
166,B3,96.5,0.5,79,80.0
167,E-3,97.0,0.5,63,80.0
168,F#4,97.5,1.5,79,80.0
169,F#2,98.0,1.0,63,80.0
170,E-3,99.0,1.0,63,80.0
171,B2,100.0,0.5,63,80.0
172,B3,100.5,0.5,79,80.0
173,E-3,101.0,0.5,63,80.0
174,B3,101.5,0.5,79,80.0
175,E4,102.0,0.5,71,80.0
176,F#2,102.0,0.5,71,80.0
177,F#4,102.5,1.5,79,80.0
178,E-3,103.0,1.0,63,80.0
179,G4,104.0,0.5,71,80.0
180,E2,104.0,0.5,71,80.0
181,B3,104.5,0.5,79,80.0
182,E3,105.0,0.5,63,80.0
183,G4,105.5,1.5,79,80.0
184,B2,106.0,1.0,63,80.0
185,E3,107.0,1.0,63,80.0
186,E2,108.0,0.5,79,80.0
187,E4,108.5,1.0,79,80.0
188,E3,109.0,0.5,79,80.0
189,E4,109.5,0.5,79,80.0
190,F#4,110.0,0.5,79,80.0
191,B2,110.0,0.5,79,80.0
192,G4,110.5,1.5,79,80.0
193,E3,111.0,1.0,79,80.0
194,A4,112.0,0.5,71,80.0
195,D3,112.0,0.5,71,80.0
196,C4,112.5,0.5,79,80.0
197,F#3,113.0,0.5,63,80.0
198,A4,113.5,1.5,79,80.0
199,A2,114.0,1.0,63,80.0
200,F#3,115.0,1.0,63,80.0
201,D3,116.0,1.0,79,80.0
202,A4,117.0,0.5,71,80.0
203,C4,117.0,0.5,71,80.0
204,D5,117.5,1.0,79,80.0
205,D3,118.0,0.5,63,80.0
206,C5,118.5,0.5,79,80.0
207,C4,119.0,1.0,63,80.0
208,B4,120.0,0.5,71,80.0
209,G3,120.0,0.5,71,80.0
210,G4,120.5,0.5,79,80.0
211,D4,121.0,0.5,63,80.0
212,B4,121.5,0.5,79,80.0
213,D3,122.0,1.0,63,80.0
214,D4,123.0,1.0,63,80.0
215,G3,124.0,1.0,63,80.0
216,B4,125.0,0.5,95,80.0
217,D4,125.0,0.5,95,80.0
218,G4,125.5,0.5,95,80.0
219,D3,126.0,0.5,95,80.0
220,B4,126.5,0.5,95,80.0
221,D4,127.0,1.0,63,80.0
222,C5,128.0,1.0,90,80.0
223,F#4,128.0,1.0,90,80.0
224,A3,128.0,1.0,90,80.0
225,E-4,129.0,333/1000,63,80.0
226,C5,129.333,333/1000,63,80.0
227,B4,129.667,333/1000,63,80.0
228,A4,130.0,1.0,90,80.0
229,E-4,130.0,1.0,90,80.0
230,F#3,130.0,1.0,90,80.0
231,C4,131.0,333/1000,63,80.0
232,A4,131.333,333/1000,63,80.0
233,G4,131.667,333/1000,63,80.0
234,F#4,132.0,1.0,79,80.0
235,C4,132.0,1.0,79,80.0
236,E-3,132.0,1.0,79,80.0
237,F#4,133.0,1.0,35,80.0
238,C4,133.0,1.0,35,80.0
239,A3,133.0,1.0,35,80.0
240,E-3,133.0,1.0,35,80.0
241,C5,134.0,1.0,95,80.0
242,F#4,134.0,1.0,95,80.0
243,E-4,134.0,1.0,95,80.0
244,A3,134.0,1.0,95,80.0
245,E-4,135.0,1.0,63,80.0
246,E3,136.0,0.75,63,80.0
247,B4,136.75,0.25,79,80.0
248,G4,136.75,0.25,79,80.0
249,E4,137.0,0.75,63,80.0
250,G3,137.75,0.25,63,80.0
251,E-3,138.0,1.0,63,80.0
252,B4,139.0,0.75,74,80.0
253,G4,139.0,0.75,74,80.0
254,E-4,139.0,0.75,74,80.0
255,G3,139.75,0.25,63,80.0
256,D3,140.0,1.0,63,80.0
257,B4,141.0,1.0,74,80.0
258,G4,141.0,1.0,74,80.0
259,D4,141.0,1.0,74,80.0
260,C#3,142.0,1.0,63,80.0
261,B4,143.0,0.75,74,80.0
262,G4,143.0,0.75,74,80.0
263,C#4,143.0,0.75,74,80.0
264,G3,143.75,0.25,63,80.0
265,C3,144.0,1.0,79,80.0
266,B4,145.0,0.75,71,80.0
267,C4,145.0,0.75,71,80.0
268,A4,145.75,0.25,79,80.0
269,C3,146.0,0.75,63,80.0
270,G4,146.75,0.25,79,80.0
271,C4,147.0,1.0,63,80.0
272,F#4,148.0,1.0,71,80.0
273,B2,148.0,1.0,71,80.0
274,A3,149.0,0.75,63,80.0
275,G4,149.75,1.0,79,80.0
276,B2,150.0,0.75,63,80.0
277,B3,150.75,0.25,79,80.0
278,A3,151.0,1.0,63,80.0
279,E4,152.0,1.0,71,80.0
280,E2,152.0,1.0,71,80.0
281,B3,153.0,1.0,74,80.0
282,G3,153.0,1.0,74,80.0
283,E3,153.0,1.0,74,80.0
284,C4,154.0,1.0,74,80.0
285,A3,154.0,1.0,74,80.0
286,A2,154.0,1.0,74,80.0
287,E3,155.0,0.75,79,80.0
288,E4,155.75,0.25,79,80.0
289,B3,155.75,0.25,79,80.0
290,E2,156.0,1.0,79,80.0
291,D5,156.875,0.125,95,80.0
292,E5,157.0,1.0,95,80.0
293,D5,158.0,1.0,95,80.0
294,C5,159.0,1.0,79,80.0
295,B4,160.0,0.75,71,80.0
296,A2,160.0,0.75,71,80.0
297,E4,160.75,0.25,79,80.0
298,A3,161.0,1.0,63,80.0
299,E2,162.0,1.0,63,80.0
300,A3,163.0,1.0,63,80.0
301,D3,164.0,0.75,63,80.0
302,D5,164.75,1.0,79,80.0
303,C4,165.0,0.75,63,80.0
304,C5,165.75,1.0,79,80.0
305,D3,166.0,0.75,63,80.0
306,B4,166.75,1.25,79,80.0
307,C4,167.0,1.0,63,80.0
308,A4,168.0,0.75,79,80.0
309,G3,168.0,0.75,79,80.0
310,E4,168.75,0.25,79,80.0
311,B3,169.0,0.75,79,80.0
312,G4,169.75,1.25,79,80.0
313,C#3,170.0,1.0,79,80.0
314,B3,171.0,1.0,79,80.0
315,C3,172.0,0.75,79,80.0
316,D5,172.75,1.0,79,80.0
317,C4,173.0,0.75,63,80.0
318,C5,173.75,1.0,79,80.0
319,C3,174.0,0.75,63,80.0
320,B4,174.75,1.25,79,80.0
321,C4,175.0,1.0,63,80.0
322,B4,176.0,0.75,71,80.0
323,A2,176.0,0.75,71,80.0
324,E4,176.75,1.0,79,80.0
325,C4,177.0,0.75,63,80.0
326,A4,177.75,1.25,79,80.0
327,E2,178.0,1.0,63,80.0
328,C4,179.0,1.0,63,80.0
329,B2,180.0,0.75,63,80.0
330,F#4,180.75,1.0,79,80.0
331,A3,181.0,0.75,63,80.0
332,A4,181.75,1.0,79,80.0
333,B2,182.0,0.75,63,80.0
334,G4,182.75,1.25,79,80.0
335,A3,183.0,1.0,63,80.0
336,F#4,184.0,0.75,71,80.0
337,E2,184.0,0.75,71,80.0
338,B3,184.75,1.0,79,80.0
339,E3,185.0,0.75,63,80.0
340,E4,185.75,1.25,79,80.0
341,B2,186.0,1.0,63,80.0
342,E3,187.0,1.0,79,80.0
343,B3,188.0,0.75,71,80.0
344,E3,188.0,0.75,71,80.0
345,E4,188.75,0.25,79,80.0
346,B3,189.0,0.75,63,80.0
347,F#4,189.75,0.25,79,80.0
348,B2,190.0,0.75,63,80.0
349,G4,190.75,0.25,79,80.0
350,A3,191.0,1.0,63,80.0
351,D5,192.0,1.0,79,80.0
352,A2,192.0,0.75,63,80.0
353,E4,192.75,3.25,79,80.0
354,C4,193.0,0.75,63,80.0
355,C5,193.75,1.25,79,80.0
356,E2,194.0,1.0,63,80.0
357,C4,195.0,1.0,63,80.0
358,D3,196.0,0.625,63,80.0
359,E4,196.0,1.625,79,80.0
360,D4,196.625,0.375,79,80.0
361,E4,197.0,3.0,79,80.0
362,F#3,197.0,0.5,63,80.0
363,D4,197.625,0.375,79,80.0
364,E4,198.0,2.0,79,80.0
365,A2,198.0,0.5,63,80.0
366,D4,198.625,0.375,79,80.0
367,F#3,199.0,1.0,63,80.0
368,E4,200.0,0.625,79,80.0
369,E4,200.0,0.625,79,80.0
370,C5,200.0,0.5,79,80.0
371,G3,200.0,0.5,79,80.0
372,G4,200.625,0.375,79,80.0
373,D4,201.0,0.625,79,80.0
374,B4,201.625,0.375,79,80.0
375,C#3,202.0,1.0,79,80.0
376,D4,203.0,1.0,79,80.0
377,C3,204.0,1.0,79,80.0
378,C4,205.0,1.0,71,80.0
379,E3,205.0,1.0,71,80.0
380,D4,206.0,0.625,71,80.0
381,G2,206.0,0.625,71,80.0
382,E4,206.625,0.375,79,80.0
383,D4,207.0,1.0,79,80.0
384,F3,207.0,1.0,79,80.0
385,B4,208.0,0.625,59,80.0
386,A4,208.0,0.625,59,80.0
387,C4,208.0,0.625,59,80.0
388,A2,208.0,0.625,59,80.0
389,E4,208.625,0.375,79,80.0
390,C4,209.0,0.625,63,80.0
391,A4,209.625,0.375,79,80.0
392,E2,210.0,1.0,63,80.0
393,C4,211.0,1.0,63,80.0
394,B2,212.0,1.0,63,80.0
395,F#4,213.0,0.625,71,80.0
396,A3,213.0,0.625,71,80.0
397,A4,213.625,0.375,79,80.0
398,B2,214.0,0.625,63,80.0
399,G4,214.625,0.375,79,80.0
400,A3,215.0,0.625,63,80.0
401,E4,215.625,0.375,79,80.0
402,E2,216.0,1.0,63,80.0
403,B3,217.0,1.0,71,80.0
404,E3,217.0,1.0,71,80.0
405,C4,218.0,0.625,74,80.0
406,A3,218.0,0.625,74,80.0
407,A2,218.0,0.625,74,80.0
408,E4,218.625,0.375,79,80.0
409,E3,219.0,0.625,63,80.0
410,E4,219.625,0.375,79,80.0
411,B3,219.625,0.375,79,80.0
412,E2,220.0,0.5,95,80.0
413,A3,221.0,1.0,79,80.0
414,B3,222.0,1.0,79,80.0
415,C4,223.0,1.0,79,80.0
416,F4,224.0,0.625,79,80.0
417,G2,224.0,0.5,63,80.0
418,C4,224.625,0.375,79,80.0
419,F3,225.0,0.625,63,80.0
420,F4,225.625,0.375,79,80.0
421,G2,226.0,1.0,63,80.0
422,F3,227.0,1.0,63,80.0
423,G2,228.0,0.625,63,80.0
424,G3,228.625,0.375,79,80.0
425,F3,229.0,0.5,63,80.0
426,G3,229.625,0.375,79,80.0
427,A3,230.0,0.5,38,80.0
428,G2,230.0,0.625,63,80.0
429,B3,230.625,0.375,79,80.0
430,F3,231.0,0.625,63,80.0
431,E4,231.625,0.375,79,80.0
432,C3,232.0,1.0,63,80.0
433,E3,233.0,333/1000,63,80.0
434,E4,233.333,333/1000,79,80.0
435,B3,233.667,333/1000,79,80.0
436,G2,234.0,1.0,63,80.0
437,B-3,235.0,1.0,71,80.0
438,E3,235.0,1.0,71,80.0
439,F2,236.0,0.75,63,80.0
440,G4,236.75,1.0,79,80.0
441,F3,237.0,0.75,63,80.0
442,F4,237.75,1.0,79,80.0
443,F2,238.0,0.75,63,80.0
444,E4,238.75,0.25,79,80.0
445,F3,239.0,1.0,63,80.0
446,D4,240.0,0.75,79,80.0
447,A2,240.0,0.75,79,80.0
448,A3,240.75,0.25,79,80.0
449,F3,241.0,1.0,79,80.0
450,F2,242.0,1.0,79,80.0
451,F3,243.0,1.0,79,80.0
452,E2,244.0,0.75,79,80.0
453,E-3,244.75,0.25,79,80.0
454,E3,245.0,0.75,22,80.0
455,F3,245.75,0.25,79,80.0
456,F#3,246.0,0.75,22,80.0
457,G3,246.75,0.25,79,80.0
458,G#3,247.0,0.75,38,80.0
459,A3,247.75,0.25,38,80.0
460,C4,248.0,0.75,71,80.0
461,A2,248.0,0.75,71,80.0
462,A3,248.75,0.25,79,80.0
463,E3,249.0,0.5,63,80.0
464,D4,249.5,0.469,71,80.0
465,B3,249.5,0.469,71,80.0
466,E2,250.0,0.5,63,80.0
467,D4,250.5,0.469,71,80.0
468,B3,250.5,0.469,71,80.0
469,E3,251.0,0.75,63,80.0
470,C4,251.75,0.25,79,80.0
471,A2,252.0,0.75,63,80.0
472,A3,252.75,0.25,79,80.0
473,E3,253.0,0.75,63,80.0
474,B3,253.75,0.25,79,80.0
475,E2,254.0,0.75,63,80.0
476,C4,254.75,0.25,79,80.0
477,E3,255.0,1.0,63,80.0
478,F4,256.0,1.0,71,80.0
479,G#2,256.0,1.0,71,80.0
480,B-3,257.0,1.0,71,80.0
481,F#3,257.0,1.0,71,80.0
482,C4,258.0,0.75,71,80.0
483,G#2,258.0,0.75,71,80.0
484,F4,258.75,0.25,79,80.0
485,F#3,259.0,1.0,63,80.0
486,A3,260.0,0.75,71,80.0
487,G2,260.0,0.75,71,80.0
488,B3,260.75,1.0,79,80.0
489,F3,261.0,0.75,63,80.0
490,E4,261.75,1.0,79,80.0
491,G2,262.0,0.75,63,80.0
492,G4,262.75,1.25,79,80.0
493,F3,263.0,1.0,63,80.0
494,E4,264.0,1.0,79,80.0
495,C3,264.0,0.75,63,80.0
496,B3,264.75,1.0,79,80.0
497,E3,265.0,0.75,63,80.0
498,E4,265.75,0.25,79,80.0
499,G2,266.0,1.0,63,80.0
500,B-3,267.0,1.0,71,80.0
501,E3,267.0,1.0,71,80.0
502,F2,268.0,0.75,63,80.0
503,G4,268.75,1.0,79,80.0
504,F3,269.0,0.75,63,80.0
505,F4,269.75,1.0,79,80.0
506,F2,270.0,0.75,63,80.0
507,E4,270.75,0.25,79,80.0
508,F3,271.0,1.0,63,80.0
509,D4,272.0,1.0,79,80.0
510,B2,272.0,1.0,79,80.0
511,F3,273.0,1.0,79,80.0
512,F2,274.0,1.0,79,80.0
513,F3,275.0,1.0,79,80.0
514,E2,276.0,0.75,79,80.0
515,B3,276.75,1.0,79,80.0
516,D3,277.0,0.75,63,80.0
517,D4,277.75,1.0,79,80.0
518,E2,278.0,0.75,63,80.0
519,C4,278.75,1.0,79,80.0
520,D3,279.0,0.75,63,80.0
521,A3,279.75,0.25,79,80.0
522,A2,280.0,1.0,63,80.0
523,E3,281.0,1.0,63,80.0
524,F#4,282.0,0.75,75,80.0
525,C4,282.0,0.75,75,80.0
526,A3,282.0,0.75,75,80.0
527,E2,282.0,0.75,75,80.0
528,F#4,282.75,0.25,79,80.0
529,C4,282.75,0.25,79,80.0
530,A3,282.75,0.25,79,80.0
531,E3,283.0,0.75,63,80.0
532,E4,283.75,0.25,79,80.0
533,C4,283.75,0.25,79,80.0
534,A3,283.75,0.25,79,80.0
535,A2,285.0,1.0,63,80.0
536,E4,285.0,1.0,79,80.0
537,C4,285.0,1.0,79,80.0
538,A3,285.0,1.0,79,80.0
539,E3,286.0,1.0,79,80.0
540,A4,286.875,0.125,95,80.0
541,B4,287.0,1.0,95,80.0
542,A4,288.0,1.0,79,80.0
543,G#4,289.0,0.75,71,80.0
544,E2,289.0,0.75,71,80.0
545,D4,289.75,0.25,79,80.0
546,G#3,290.0,0.75,63,80.0
547,F4,290.75,0.25,79,80.0
548,E2,291.0,0.75,63,80.0
549,D4,291.75,0.25,79,80.0
550,G#3,292.0,0.75,63,80.0
551,E4,292.75,0.25,79,80.0
552,E2,293.0,0.75,63,80.0
553,B3,293.75,0.25,79,80.0
554,G#3,294.0,1.0,95,80.0
555,E5,295.0,1.0,63,80.0
556,B3,295.0,1.0,63,80.0
557,E2,295.0,1.0,63,80.0
558,D5,296.0,1.0,71,80.0
559,B3,296.0,1.0,71,80.0
560,C5,297.0,1.0,79,80.0
561,A2,297.0,0.75,63,80.0
562,E4,297.75,1.0,79,80.0
563,C4,298.0,0.75,63,80.0
564,B4,298.75,1.0,79,80.0
565,E2,299.0,0.75,63,80.0
566,E4,299.75,1.0,79,80.0
567,C4,300.0,0.75,63,80.0
568,A4,300.75,0.25,79,80.0
569,A2,301.0,0.75,63,80.0
570,E4,301.75,1.0,79,80.0
571,C4,302.0,0.75,63,80.0
572,B4,302.75,1.0,79,80.0
573,E2,303.0,0.75,63,80.0
574,C5,303.75,1.25,79,80.0
575,C4,304.0,1.0,63,80.0
576,D5,305.0,0.75,71,80.0
577,G3,305.0,0.75,71,80.0
578,F4,305.75,1.0,79,80.0
579,B3,306.0,0.75,63,80.0
580,D5,306.75,1.25,79,80.0
581,D3,307.0,1.0,63,80.0
582,G3,308.0,1.0,47,80.0
583,G4,308.0,1.0,47,80.0
584,G5,309.0,1.0,79,80.0
585,G3,309.0,0.75,63,80.0
586,B4,309.75,0.25,79,80.0
587,D4,310.0,0.75,63,80.0
588,F5,310.75,1.0,79,80.0
589,D3,311.0,0.75,63,80.0
590,B4,311.75,1.25,79,80.0
591,D4,312.0,1.0,63,80.0
592,C5,313.0,1.0,79,80.0
593,E5,313.062,0.938,79,80.0
594,C5,314.0,0.25,79,80.0
595,D5,314.25,0.25,38,80.0
596,C5,314.5,0.25,54,80.0
597,B4,314.75,0.5,54,80.0
598,A4,315.25,0.25,79,80.0
599,G4,315.5,167/1000,79,80.0
600,G#4,315.667,167/1000,38,80.0
601,G4,315.833,167/1000,63,80.0
602,F#4,316.0,0.75,79,80.0
603,F4,316.75,0.25,79,80.0
604,E-4,317.0,0.25,63,80.0
605,F4,317.25,0.25,22,80.0
606,E-4,317.5,0.25,38,80.0
607,C4,317.75,0.25,63,80.0
608,E-4,318.0,0.75,79,80.0
609,E4,318.75,0.25,38,80.0
610,E5,319.0,1.0,79,80.0
611,E5,320.0,1.0,79,80.0
612,F5,321.0,0.75,79,80.0
613,G#3,321.75,0.25,79,80.0
614,D4,322.0,333/1000,79,80.0
615,F4,322.333,333/1000,79,80.0
616,B4,322.667,333/1000,79,80.0
617,D5,323.0,0.75,79,80.0
618,F3,323.75,0.25,79,80.0
619,B3,324.0,333/1000,79,80.0
620,D4,324.333,333/1000,79,80.0
621,G#4,324.667,333/1000,79,80.0
622,B4,325.0,1.0,71,80.0
623,D3,325.0,1.0,71,80.0
624,F4,326.0,1.0,79,80.0
625,D4,326.0,1.0,79,80.0
626,F5,327.0,1.0,71,80.0
627,G#3,327.0,1.0,71,80.0
628,F5,328.0,1.0,71,80.0
629,D4,328.0,1.0,71,80.0
630,E5,329.0,0.75,71,80.0
631,A3,329.0,0.75,71,80.0
632,C5,329.75,0.25,79,80.0
633,A4,330.0,0.75,79,80.0
634,G3,330.75,0.25,47,80.0
635,G#3,331.0,0.75,63,80.0
636,G#4,331.75,0.25,79,80.0
637,E5,332.0,0.75,79,80.0
638,C5,332.0,0.75,79,80.0
639,G3,332.75,0.25,47,80.0
640,G3,333.0,0.75,63,80.0
641,G4,333.75,0.25,79,80.0
642,E5,334.0,0.75,79,80.0
643,C5,334.0,0.75,79,80.0
644,G3,334.75,0.25,47,80.0
645,F#3,335.0,0.75,63,80.0
646,F#4,335.75,0.25,79,80.0
647,E5,336.0,0.75,79,80.0
648,C5,336.0,0.75,79,80.0
649,G3,336.75,0.25,47,80.0
650,F3,337.0,1.0,79,80.0
651,C4,338.0,0.5,79,80.0
652,F4,338.5,167/1000,79,80.0
653,A4,338.667,167/1000,79,80.0
654,E5,338.833,167/1000,79,80.0
655,D5,339.0,1.0,79,80.0
656,C5,340.0,1.0,79,80.0
657,B4,341.0,0.75,71,80.0
658,E2,341.0,0.75,71,80.0
659,D4,341.75,1.0,79,80.0
660,G#3,342.0,0.75,63,80.0
661,B4,342.75,0.25,79,80.0
662,B4,342.875,0.125,31,80.0
663,C5,343.0,0.75,71,80.0
664,E2,343.0,0.75,71,80.0
665,E4,343.75,1.25,79,80.0
666,G#3,344.0,1.0,79,80.0
667,A2,345.0,0.25,95,80.0
668,C4,345.25,0.25,79,80.0
669,E4,345.5,0.25,79,80.0
670,A4,345.75,0.25,79,80.0
671,A3,346.0,1.0,79,80.0
672,A4,347.0,1.0,75,80.0
673,F4,347.0,1.0,75,80.0
674,D4,347.0,1.0,75,80.0
675,D3,347.0,1.0,75,80.0
676,A3,348.0,0.75,79,80.0
677,A4,348.75,0.25,79,80.0
678,E4,348.75,0.25,79,80.0
679,C4,348.75,0.25,79,80.0
680,A2,349.0,1.0,79,80.0
681,E4,350.0,333/1000,79,80.0
682,F4,350.333,333/1000,38,80.0
683,E4,350.667,333/1000,54,80.0
684,D4,351.0,1.0,79,80.0
685,E4,352.0,1.0,79,80.0
686,F4,353.0,1.0,79,80.0
687,D3,354.0,1.0,95,80.0
688,E3,355.0,1.0,95,80.0
689,F3,356.0,1.0,95,80.0
690,G3,357.0,0.75,95,80.0
691,G3,357.75,0.25,79,80.0
692,F3,358.0,1.0,95,80.0
693,B4,359.0,1.0,84,80.0
694,D4,359.0,1.0,84,80.0
695,E3,359.0,1.0,84,80.0
696,A4,360.0,1.0,84,80.0
697,C4,360.0,1.0,84,80.0
698,D3,360.0,1.0,84,80.0
699,G4,361.0,1.0,84,80.0
700,B3,361.0,1.0,84,80.0
701,C3,361.0,1.0,84,80.0
702,D3,362.0,1.0,95,80.0
703,E3,363.0,1.0,95,80.0
704,C3,364.0,0.75,95,80.0
705,F4,364.75,0.25,79,80.0
706,C4,364.75,0.25,79,80.0
707,F3,365.0,1.0,95,80.0
708,E3,366.0,1.0,95,80.0
709,E4,367.0,0.75,87,80.0
710,D3,367.0,0.75,87,80.0
711,D4,367.75,0.25,79,80.0
712,C4,368.0,1.0,66,80.0
713,D3,368.0,1.0,66,80.0
714,D4,369.0,1.0,90,80.0
715,A3,369.0,1.0,90,80.0
716,B2,369.0,1.0,90,80.0
717,A2,370.0,1.0,95,80.0
718,G#2,371.0,1.0,95,80.0
719,F3,372.0,1.0,95,80.0
720,E3,373.0,1.0,95,80.0
721,D4,374.0,0.75,71,80.0
722,G#3,374.0,0.75,71,80.0
723,C5,374.75,1.0,79,80.0
724,B2,375.0,0.75,63,80.0
725,F#4,375.75,1.0,79,80.0
726,G#3,376.0,0.75,63,80.0
727,A4,376.75,0.25,79,80.0
728,A2,377.0,0.75,63,80.0
729,A4,377.0,0.75,79,80.0
730,E4,377.75,0.25,79,80.0
731,A3,378.0,1.0,63,80.0
732,A4,379.0,1.0,75,80.0
733,F4,379.0,1.0,75,80.0
734,D4,379.0,1.0,75,80.0
735,D3,379.0,1.0,75,80.0
736,A3,380.0,0.75,63,80.0
737,A4,380.75,0.25,79,80.0
738,E4,380.75,0.25,79,80.0
739,C4,380.75,0.25,79,80.0
740,A2,381.0,0.5,63,80.0
741,C5,382.0,1.0,111,80.0
742,B4,383.0,1.0,86,80.0
743,A4,384.0,1.0,95,80.0
744,F4,385.0,1.0,79,80.0
745,D3,386.0,1.0,95,80.0
746,E3,387.0,1.0,95,80.0
747,F3,388.0,1.0,95,80.0
748,G3,389.0,1.0,95,80.0
749,B4,390.0,1.0,84,80.0
750,D4,390.0,1.0,84,80.0
751,F3,390.0,1.0,84,80.0
752,B-4,391.0,1.0,84,80.0
753,C#4,391.0,1.0,84,80.0
754,E3,391.0,1.0,84,80.0
755,A4,392.0,1.0,84,80.0
756,C4,392.0,1.0,84,80.0
757,D3,392.0,1.0,84,80.0
758,G4,393.0,1.0,84,80.0
759,B3,393.0,1.0,84,80.0
760,C3,393.0,1.0,84,80.0
761,D3,394.0,1.0,95,80.0
762,E3,395.0,1.0,95,80.0
763,C3,396.0,0.75,95,80.0
764,F4,396.75,0.25,79,80.0
765,C4,396.75,0.25,79,80.0
766,F3,397.0,1.0,95,80.0
767,E3,398.0,1.0,95,80.0
768,E4,399.0,0.75,87,80.0
769,D3,399.0,0.75,87,80.0
770,D4,399.75,0.25,79,80.0
771,C4,400.0,1.0,74,80.0
772,D3,400.0,1.0,74,80.0
773,D4,401.0,1.0,84,80.0
774,A3,401.0,1.0,84,80.0
775,B2,401.0,1.0,84,80.0
776,A2,402.0,1.0,95,80.0
777,G#2,403.0,1.0,95,80.0
778,F3,404.0,1.0,95,80.0
779,E3,405.0,1.0,95,80.0
780,D4,406.0,0.75,71,80.0
781,G#3,406.0,0.75,71,80.0
782,C5,406.75,1.0,79,80.0
783,B2,407.0,0.75,63,80.0
784,F#4,407.75,0.25,79,80.0
785,G#3,408.0,0.75,63,80.0
786,A4,408.75,0.25,79,80.0
787,A2,409.0,0.75,63,80.0
788,A4,409.0,0.75,79,80.0
789,E4,409.75,0.25,79,80.0
790,A3,410.0,1.0,63,80.0
791,A4,411.0,1.0,75,80.0
792,F4,411.0,1.0,75,80.0
793,D4,411.0,1.0,75,80.0
794,D3,411.0,1.0,75,80.0
795,A3,412.0,0.75,63,80.0
796,A4,412.75,0.25,79,80.0
797,E4,412.75,0.25,79,80.0
798,C4,412.75,0.25,79,80.0
799,A2,413.0,1.0,63,80.0
800,A3,414.0,0.75,63,80.0
801,G#4,414.75,0.25,79,80.0
802,E2,415.0,0.75,63,80.0
803,A4,415.75,1.25,79,80.0
804,A3,416.0,1.0,63,80.0
805,B4,417.0,0.625,79,80.0
806,E2,417.0,0.5,63,80.0
807,D4,417.625,0.375,79,80.0
808,G#3,418.0,0.625,63,80.0
809,F4,418.625,0.375,79,80.0
810,E2,419.0,0.625,63,80.0
811,D4,419.625,0.375,79,80.0
812,G#3,420.0,0.625,63,80.0
813,E4,420.625,0.375,79,80.0
814,E2,421.0,1.0,63,80.0
815,G#3,422.0,1.0,63,80.0
816,A4,423.0,1.0,71,80.0
817,E2,423.0,1.0,71,80.0
818,B4,424.0,1.0,71,80.0
819,G#3,424.0,1.0,71,80.0
820,C5,425.0,0.625,79,80.0
821,A2,425.0,0.5,63,80.0
822,C4,425.625,0.375,79,80.0
823,A3,426.0,0.625,63,80.0
824,F4,426.625,0.375,79,80.0
825,E2,427.0,1.0,63,80.0
826,A3,428.0,0.625,63,80.0
827,E4,428.625,0.375,79,80.0
828,A2,429.0,1.0,63,80.0
829,A3,430.0,1.0,63,80.0
830,E4,431.0,1.0,74,80.0
831,C4,431.0,1.0,74,80.0
832,A2,431.0,1.0,74,80.0
833,E-4,432.0,1.0,74,80.0
834,C4,432.0,1.0,74,80.0
835,G#2,432.0,1.0,74,80.0
836,D4,433.0,0.5,79,80.0
837,G2,433.0,0.625,63,80.0
838,G3,433.625,0.375,79,80.0
839,F3,434.0,0.625,63,80.0
840,A3,434.625,0.375,79,80.0
841,G2,435.0,0.625,63,80.0
842,B3,435.625,0.375,79,80.0
843,F3,436.0,0.625,63,80.0
844,G4,436.625,0.375,79,80.0
845,G2,437.0,0.625,63,80.0
846,B3,437.625,0.375,79,80.0
847,F3,438.0,0.625,63,80.0
848,F4,438.625,0.375,79,80.0
849,G2,439.0,1.0,63,80.0
850,F3,440.0,1.0,63,80.0
851,E4,441.0,1.0,71,80.0
852,C3,441.0,1.0,71,80.0
853,E3,442.0,0.625,63,80.0
854,B3,442.625,0.375,79,80.0
855,G2,443.0,0.625,63,80.0
856,G3,443.625,0.375,79,80.0
857,E3,444.0,0.625,63,80.0
858,A3,444.625,0.375,79,80.0
859,C3,445.0,1.0,63,80.0
860,E3,446.0,0.625,63,80.0
861,E4,446.625,0.375,79,80.0
862,G2,447.0,0.625,63,80.0
863,E4,447.625,0.375,79,80.0
864,E3,448.0,1.0,63,80.0
865,F4,449.0,1.0,71,80.0
866,D3,449.0,1.0,71,80.0
867,F4,450.0,1.0,79,80.0
868,G#3,450.0,1.0,79,80.0
869,D4,451.0,1.0,74,80.0
870,F3,451.0,1.0,74,80.0
871,B2,451.0,1.0,74,80.0
872,D4,452.0,1.0,79,80.0
873,F3,452.0,1.0,79,80.0
874,B3,453.0,1.0,71,80.0
875,G#2,453.0,1.0,71,80.0
876,F3,454.0,1.0,63,80.0
877,D3,455.0,0.75,63,80.0
878,F4,455.75,0.25,79,80.0
879,G#3,456.0,0.75,63,80.0
880,E4,456.75,0.25,79,80.0
881,A2,457.0,1.0,63,80.0
882,E4,458.0,1.0,74,80.0
883,C4,458.0,1.0,74,80.0
884,A3,458.0,1.0,74,80.0
885,G#2,459.0,1.0,63,80.0
886,E4,460.0,0.75,74,80.0
887,C4,460.0,0.75,74,80.0
888,G#3,460.0,0.75,74,80.0
889,G3,460.75,0.25,79,80.0
890,G2,461.0,0.75,63,80.0
891,E4,461.75,0.25,79,80.0
892,C4,461.75,0.25,79,80.0
893,G3,462.0,0.75,63,80.0
894,G3,462.75,0.25,79,80.0
895,F#2,463.0,1.0,63,80.0
896,A3,464.0,333/1000,79,80.0
897,C4,464.333,333/1000,79,80.0
898,E4,464.667,333/1000,95,80.0
899,F2,465.0,1.0,79,80.0
900,F3,467.0,0.5,63,80.0
901,A3,467.5,0.5,63,80.0
902,C4,468.0,0.5,63,80.0
903,E4,468.5,0.5,63,80.0
904,F4,469.0,0.5,79,80.0
905,A4,469.5,0.5,95,80.0
906,C5,470.0,3.0,47,80.0
907,D3,472.0,1.0,79,80.0
908,D3,473.0,1.0,79,80.0
909,D4,474.0,1.0,63,80.0
910,F4,474.125,0.875,63,80.0
911,A4,474.25,0.75,63,80.0
912,D5,474.375,0.625,95,80.0
913,C5,475.0,1.0,47,80.0
914,E2,476.0,1.0,47,80.0
915,G#3,477.0,0.5,63,80.0
916,D4,477.5,167/1000,63,80.0
917,E4,477.667,167/1000,95,80.0
918,B4,477.833,167/1000,95,80.0
919,C5,478.0,1.0,63,80.0
920,E4,479.0,1.0,63,80.0
921,A2,480.0,0.5,63,80.0
922,D4,480.5,167/1000,79,80.0
923,F#4,480.667,167/1000,79,80.0
924,A4,480.833,167/1000,79,80.0
925,A4,481.0,2.0,79,80.0
926,A2,482.0,1.0,63,80.0
927,A3,483.0,1.0,95,80.0
928,C4,484.0,1.0,95,80.0
929,E4,485.0,1.0,79,80.0
930,A4,486.0,3.0,79,80.0
