,note_name,start_time,duration,velocity,tempo
0,G2,3.0,1.0,95,108.0
1,G4,4.0,0.5,95,108.0
2,C3,4.0,0.5,95,108.0
3,E4,4.5,0.5,95,108.0
4,C4,4.5,0.5,95,108.0
5,A4,5.0,0.5,95,108.0
6,D3,5.0,14/125,95,108.0
7,F4,5.25,0.25,95,108.0
8,D4,5.5,0.125,95,108.0
9,F4,5.75,0.25,95,108.0
10,B-4,6.0,0.5,95,108.0
11,E3,6.0,14/125,95,108.0
12,G4,6.25,0.25,95,108.0
13,E4,6.5,0.125,95,108.0
14,G4,6.75,0.25,95,108.0
15,C5,7.0,0.375,79,108.0
16,F3,7.0,14/125,95,108.0
17,A4,7.25,0.25,95,108.0
18,F4,7.5,0.125,95,108.0
19,C5,7.75,0.25,95,108.0
20,A4,7.75,0.25,95,108.0
21,B-4,8.0,0.5,95,108.0
22,E3,8.0,14/125,95,108.0
23,G4,8.25,0.25,95,108.0
24,A4,8.5,0.5,95,108.0
25,E4,8.5,0.125,95,108.0
26,G4,8.75,0.25,95,108.0
27,G4,9.0,0.5,95,108.0
28,D3,9.0,14/125,95,108.0
29,F4,9.25,0.25,95,108.0
30,D4,9.5,0.125,95,108.0
31,F4,9.75,0.25,95,108.0
32,C3,10.0,14/125,95,108.0
33,E4,10.25,0.25,95,108.0
34,C4,10.5,0.125,95,108.0
35,C5,10.5,1.5,79,108.0
36,G4,10.5,1.5,79,108.0
37,E4,10.75,0.25,95,108.0
38,B-2,11.0,14/125,95,108.0
39,D4,11.25,0.25,95,108.0
40,B-3,11.5,0.125,95,108.0
41,D4,11.75,0.25,95,108.0
42,F4,12.0,2.0,95,108.0
43,A2,12.0,14/125,95,108.0
44,C4,12.25,0.25,95,108.0
45,A3,12.5,0.125,95,108.0
46,C4,12.75,0.25,95,108.0
47,G#2,13.0,14/125,95,108.0
48,B3,13.25,0.25,95,108.0
49,G#3,13.5,0.125,95,108.0
50,B3,13.75,0.25,95,108.0
51,G2,14.0,14/125,95,108.0
52,B-3,14.25,0.25,95,108.0
53,G3,14.5,0.125,95,108.0
54,B-3,14.75,0.25,95,108.0
55,E-4,15.0,0.25,79,108.0
56,F#2,15.0,14/125,95,108.0
57,D4,15.25,0.75,95,108.0
58,B-3,15.25,0.25,95,108.0
59,F#3,15.5,0.125,95,108.0
60,B-3,15.75,0.25,95,108.0
61,C4,16.0,2.0,95,108.0
62,F2,16.0,14/125,95,108.0
63,A3,16.25,0.25,95,108.0
64,F3,16.5,0.125,95,108.0
65,A3,16.75,0.25,95,108.0
66,G2,17.0,14/125,95,108.0
67,A3,17.25,0.25,95,108.0
68,F3,17.5,0.125,95,108.0
69,A3,17.75,0.25,95,108.0
70,G#2,18.0,14/125,95,108.0
71,B3,18.25,0.25,95,108.0
72,F3,18.5,0.125,95,108.0
73,B3,18.75,0.25,95,108.0
74,C5,19.0,1.0,79,108.0
75,A2,19.0,14/125,95,108.0
76,C4,19.25,0.25,95,108.0
77,F3,19.5,0.125,95,108.0
78,C4,19.75,0.25,95,108.0
79,E4,20.0,1.0,95,108.0
80,G2,20.0,14/125,95,108.0
81,B-3,20.25,0.25,95,108.0
82,E3,20.5,0.125,95,108.0
83,B-3,20.75,0.25,95,108.0
84,F4,21.0,0.5,95,108.0
85,A2,21.0,14/125,95,108.0
86,C4,21.25,0.25,95,108.0
87,F3,21.5,0.125,95,108.0
88,C4,21.75,0.25,95,108.0
89,G4,22.0,1.0,95,108.0
90,B-2,22.0,14/125,95,108.0
91,D4,22.25,0.25,95,108.0
92,G3,22.5,0.125,95,108.0
93,D4,22.75,0.25,95,108.0
94,F4,23.0,0.75,95,108.0
95,A2,23.0,14/125,95,108.0
96,C4,23.25,0.25,95,108.0
97,F3,23.5,0.125,95,108.0
98,G4,23.75,0.125,95,108.0
99,C4,23.75,0.25,95,108.0
100,F4,23.875,0.125,70,108.0
101,E4,24.0,0.75,95,108.0
102,G#2,24.0,14/125,95,108.0
103,B3,24.25,0.25,95,108.0
104,F3,24.5,0.125,95,108.0
105,F4,24.75,0.125,95,108.0
106,B3,24.75,0.25,95,108.0
107,E4,24.875,0.125,70,108.0
108,D4,25.0,0.75,95,108.0
109,G2,25.0,14/125,95,108.0
110,B-3,25.25,0.25,95,108.0
111,E3,25.5,0.125,95,108.0
112,E4,25.75,0.125,95,108.0
113,B-3,25.75,0.25,95,108.0
114,D4,25.875,0.125,70,108.0
115,C4,26.0,0.75,95,108.0
116,A2,26.0,14/125,95,108.0
117,C4,26.25,0.25,95,108.0
118,F3,26.5,0.125,95,108.0
119,D4,26.75,0.125,95,108.0
120,C4,26.75,0.25,95,108.0
121,C4,26.875,0.125,70,108.0
122,B-3,27.0,0.75,95,108.0
123,G2,27.0,14/125,95,108.0
124,B-3,27.25,0.25,95,108.0
125,E3,27.5,0.125,95,108.0
126,C4,27.75,0.25,95,108.0
127,B-3,27.75,0.25,95,108.0
128,A3,28.0,1.0,95,108.0
129,F2,28.0,14/125,95,108.0
130,A3,28.25,0.25,95,108.0
131,F3,28.5,0.125,95,108.0
132,A3,28.75,0.25,95,108.0
133,G2,29.0,14/125,95,108.0
134,B-3,29.25,0.25,95,108.0
135,E3,29.5,0.125,95,108.0
136,B-3,29.75,0.25,95,108.0
137,G#2,30.0,14/125,95,108.0
138,B3,30.25,0.25,95,108.0
139,F5,30.5,0.125,79,108.0
140,F3,30.5,0.125,95,108.0
141,C5,30.625,0.125,79,108.0
142,B-4,30.75,0.125,79,108.0
143,B3,30.75,0.25,95,108.0
144,G#4,30.875,0.125,54,108.0
145,F4,31.0,0.25,79,108.0
146,A2,31.0,14/125,95,108.0
147,C4,31.25,0.25,95,108.0
148,F4,31.5,0.5,79,108.0
149,F3,31.5,0.125,95,108.0
150,C4,31.75,0.25,95,108.0
151,F4,32.0,1.0,79,108.0
152,B-2,32.0,14/125,95,108.0
153,C#4,32.25,0.25,95,108.0
154,G3,32.5,0.125,95,108.0
155,C#4,32.75,0.25,95,108.0
156,B2,33.0,14/125,95,108.0
157,D4,33.25,0.25,95,108.0
158,G#3,33.5,0.125,95,108.0
159,D4,33.75,0.25,95,108.0
160,C3,34.0,14/125,95,108.0
161,E-4,34.25,0.25,95,108.0
162,A3,34.5,0.125,95,108.0
163,E-4,34.75,0.25,95,108.0
164,E-3,35.0,0.5,95,108.0
165,G3,35.5,0.5,95,108.0
166,A4,36.0,0.5,79,108.0
167,D3,36.0,0.5,95,108.0
168,D4,36.5,0.25,63,108.0
169,C4,36.5,0.25,63,108.0
170,F#3,36.5,0.25,63,108.0
171,B-4,37.0,0.5,79,108.0
172,A2,37.0,0.5,95,108.0
173,D4,37.5,0.25,63,108.0
174,C4,37.5,0.25,63,108.0
175,F3,37.5,0.25,63,108.0
176,C5,38.0,0.5,79,108.0
177,D3,38.0,0.5,95,108.0
178,D4,38.5,0.25,63,108.0
179,C4,38.5,0.25,63,108.0
180,F#3,38.5,0.25,63,108.0
181,D5,39.0,0.5,79,108.0
182,A2,39.0,0.5,95,108.0
183,D4,39.5,0.25,63,108.0
184,C4,39.5,0.25,63,108.0
185,F#3,39.5,0.25,63,108.0
186,D5,39.75,0.25,79,108.0
187,D3,40.0,0.5,95,108.0
188,D5,40.0,0.25,63,108.0
189,C5,40.0,0.25,63,108.0
190,B-4,40.5,0.25,79,108.0
191,D4,40.5,0.25,63,108.0
192,C4,40.5,0.25,63,108.0
193,F#3,40.5,0.25,63,108.0
194,A4,41.0,0.5,63,108.0
195,A2,41.0,0.5,95,108.0
196,D4,41.5,0.25,63,108.0
197,C4,41.5,0.25,63,108.0
198,F#3,41.5,0.25,63,108.0
199,D3,42.0,0.5,95,108.0
200,D4,42.5,0.25,63,108.0
201,C4,42.5,0.25,63,108.0
202,F#3,42.5,0.25,63,108.0
203,F5,42.875,0.125,63,108.0
204,A5,43.0,0.25,63,108.0
205,A2,43.0,0.5,95,108.0
206,D4,43.5,0.25,63,108.0
207,C4,43.5,0.25,63,108.0
208,F#3,43.5,0.25,63,108.0
209,D3,44.0,0.5,95,108.0
210,D5,44.375,0.125,63,108.0
211,F5,44.5,0.25,63,108.0
212,D4,44.5,0.25,63,108.0
213,B-3,44.5,0.25,63,108.0
214,G3,44.5,0.25,63,108.0
215,G2,45.0,0.5,95,108.0
216,D4,45.5,0.25,63,108.0
217,B-3,45.5,0.25,63,108.0
218,G3,45.5,0.25,63,108.0
219,C5,46.0,0.25,63,108.0
220,D3,46.0,0.5,95,108.0
221,D4,46.5,0.25,63,108.0
222,B-3,46.5,0.25,63,108.0
223,G3,46.5,0.25,63,108.0
224,B-4,47.0,0.25,63,108.0
225,G2,47.0,0.5,95,108.0
226,D4,47.5,0.25,63,108.0
227,B-3,47.5,0.25,63,108.0
228,G3,47.5,0.25,63,108.0
229,G4,48.0,0.25,63,108.0
230,F3,48.0,0.5,95,108.0
231,F4,48.5,0.25,63,108.0
232,F4,48.5,0.25,63,108.0
233,C#4,48.5,0.25,63,108.0
234,B-3,48.5,0.25,63,108.0
235,B-2,49.0,0.5,95,108.0
236,C5,49.5,167/1000,79,108.0
237,F4,49.5,0.25,63,108.0
238,C#4,49.5,0.25,63,108.0
239,B-3,49.5,0.25,63,108.0
240,B4,49.667,167/1000,38,108.0
241,B-4,49.833,167/1000,38,108.0
242,G4,50.0,167/1000,79,108.0
243,E-3,50.0,0.5,95,108.0
244,F#4,50.167,167/1000,38,108.0
245,F4,50.333,167/1000,38,108.0
246,E-4,50.5,167/1000,79,108.0
247,F4,50.5,0.25,63,108.0
248,C#4,50.5,0.25,63,108.0
249,B-3,50.5,0.25,63,108.0
250,D4,50.667,167/1000,38,108.0
251,C#4,50.833,167/1000,38,108.0
252,C4,51.0,0.25,38,108.0
253,B-2,51.0,0.5,95,108.0
254,G4,51.25,0.25,79,108.0
255,B3,51.5,0.25,79,108.0
256,F4,51.5,0.25,63,108.0
257,C#4,51.5,0.25,63,108.0
258,B-3,51.5,0.25,63,108.0
259,C#4,51.875,0.125,95,108.0
260,C4,52.0,0.25,79,108.0
261,F3,52.0,0.5,95,108.0
262,F4,52.5,0.25,63,108.0
263,C4,52.5,0.25,63,108.0
264,A3,52.5,0.25,63,108.0
265,F4,53.0,0.5,95,108.0
266,A2,53.0,0.5,95,108.0
267,F4,53.5,0.25,63,108.0
268,C4,53.5,0.25,63,108.0
269,A3,53.5,0.25,63,108.0
270,A4,54.0,0.5,95,108.0
271,E-3,54.0,0.5,79,108.0
272,F4,54.5,0.25,63,108.0
273,C#4,54.5,0.25,63,108.0
274,G3,54.5,0.25,63,108.0
275,C5,55.0,0.5,95,108.0
276,E-3,55.0,0.5,95,108.0
277,F4,55.5,0.25,63,108.0
278,C#4,55.5,0.25,63,108.0
279,G3,55.5,0.25,63,108.0
280,C5,55.75,0.25,95,108.0
281,E5,56.0,1.0,95,108.0
282,D3,56.0,0.5,95,108.0
283,E4,56.5,0.25,63,108.0
284,C4,56.5,0.25,63,108.0
285,F#3,56.5,0.25,63,108.0
286,D5,57.0,0.75,95,108.0
287,D3,57.0,0.5,95,108.0
288,E4,57.5,0.25,63,108.0
289,C4,57.5,0.25,63,108.0
290,F#3,57.5,0.25,63,108.0
291,E5,57.75,0.75,95,108.0
292,D3,58.0,0.5,95,108.0
293,B4,58.5,1.5,63,108.0
294,G4,58.5,1.5,63,108.0
295,F#4,58.5,0.25,63,108.0
296,D4,58.5,0.25,63,108.0
297,A3,58.5,0.25,63,108.0
298,D3,59.0,0.5,95,108.0
299,D4,59.5,0.25,63,108.0
300,B-3,59.5,0.25,63,108.0
301,G3,59.5,0.25,63,108.0
302,D3,60.0,0.5,95,108.0
303,D4,60.5,0.25,63,108.0
304,B-3,60.5,0.25,63,108.0
305,G3,60.5,0.25,63,108.0
306,D3,61.0,0.5,95,108.0
307,D4,61.5,0.25,63,108.0
308,B-3,61.5,0.25,63,108.0
309,G3,61.5,0.25,63,108.0
310,C3,62.0,0.5,95,108.0
311,B4,62.0,2.0,63,108.0
312,G4,62.0,2.0,63,108.0
313,D4,62.5,0.25,63,108.0
314,B-3,62.5,0.25,63,108.0
315,G3,62.5,0.25,63,108.0
316,F2,63.0,0.5,95,108.0
317,C4,63.5,0.25,63,108.0
318,A3,63.5,0.25,63,108.0
319,F3,63.5,0.25,63,108.0
320,C3,64.0,0.5,95,108.0
321,C4,64.5,0.25,63,108.0
322,A3,64.5,0.25,63,108.0
323,F3,64.5,0.25,63,108.0
324,A4,64.875,0.125,79,108.0
325,B4,65.0,0.25,63,108.0
326,F2,65.0,0.5,95,108.0
327,A4,65.25,0.25,54,108.0
328,G4,65.5,0.5,63,108.0
329,C4,65.5,0.25,63,108.0
330,A3,65.5,0.25,63,108.0
331,F3,65.5,0.25,63,108.0
332,F4,66.0,0.5,63,108.0
333,C3,66.0,0.5,95,108.0
334,F4,66.375,0.125,63,108.0
335,B-4,66.5,0.5,79,108.0
336,C4,66.5,0.25,63,108.0
337,A3,66.5,0.25,63,108.0
338,F3,66.5,0.25,63,108.0
339,E4,67.0,0.25,79,108.0
340,F2,67.0,0.5,95,108.0
341,E4,67.25,0.25,79,108.0
342,E4,67.5,0.25,79,108.0
343,C4,67.5,0.25,63,108.0
344,A3,67.5,0.25,63,108.0
345,F3,67.5,0.25,63,108.0
346,E4,67.75,0.25,95,108.0
347,A4,68.0,2.75,95,108.0
348,C3,68.0,0.5,95,108.0
349,E4,68.5,0.25,63,108.0
350,B-3,68.5,0.25,63,108.0
351,G3,68.5,0.25,63,108.0
352,C4,69.0,0.25,79,108.0
353,G2,69.0,0.5,95,108.0
354,C4,69.25,0.5,79,108.0
355,E4,69.5,0.25,63,108.0
356,B-3,69.5,0.25,63,108.0
357,G3,69.5,0.25,63,108.0
358,E4,69.875,0.125,79,108.0
359,F#4,70.0,1.5,79,108.0
360,C3,70.0,0.5,95,108.0
361,E4,70.5,0.25,63,108.0
362,B-3,70.5,0.25,63,108.0
363,G3,70.5,0.25,63,108.0
364,E4,71.0,0.25,79,108.0
365,G2,71.0,0.5,95,108.0
366,E4,71.25,0.25,79,108.0
367,E4,71.5,0.25,79,108.0
368,E4,71.5,0.25,63,108.0
369,B-3,71.5,0.25,63,108.0
370,G3,71.5,0.25,63,108.0
371,E4,71.75,0.25,95,108.0
372,A4,72.0,2.75,95,108.0
373,C3,72.0,0.5,95,108.0
374,E4,72.5,0.25,63,108.0
375,B-3,72.5,0.25,63,108.0
376,G3,72.5,0.25,63,108.0
377,C4,73.0,0.25,79,108.0
378,G2,73.0,0.5,95,108.0
379,C4,73.25,0.25,79,108.0
380,C4,73.5,0.25,79,108.0
381,E4,73.5,0.25,63,108.0
382,B-3,73.5,0.25,63,108.0
383,G3,73.5,0.25,63,108.0
384,C4,73.75,0.25,95,108.0
385,F#4,74.0,0.5,79,108.0
386,C3,74.0,0.5,95,108.0
387,E4,74.5,0.25,63,108.0
388,B-3,74.5,0.25,63,108.0
389,G3,74.5,0.25,63,108.0
390,F4,75.0,0.25,79,108.0
391,G2,75.0,0.5,95,108.0
392,F4,75.25,0.25,79,108.0
393,F4,75.5,0.25,79,108.0
394,E4,75.5,0.25,63,108.0
395,B-3,75.5,0.25,63,108.0
396,G3,75.5,0.25,63,108.0
397,F4,75.75,0.25,79,108.0
398,A4,76.0,0.75,95,108.0
399,C3,76.0,0.5,95,108.0
400,C4,76.5,0.25,63,108.0
401,A3,76.5,0.25,63,108.0
402,F3,76.5,0.25,63,108.0
403,C5,76.75,0.25,95,108.0
404,C4,77.0,0.25,79,108.0
405,F2,77.0,0.5,95,108.0
406,C4,77.25,0.25,79,108.0
407,C4,77.5,0.25,79,108.0
408,C4,77.5,0.25,63,108.0
409,A3,77.5,0.25,63,108.0
410,F3,77.5,0.25,63,108.0
411,C4,77.75,0.25,79,108.0
412,F4,78.0,0.75,95,108.0
413,C3,78.0,0.5,95,108.0
414,C4,78.5,0.25,63,108.0
415,A3,78.5,0.25,63,108.0
416,F3,78.5,0.25,63,108.0
417,G#4,78.625,0.125,79,108.0
418,A4,78.75,0.25,95,108.0
419,F4,79.0,0.25,95,108.0
420,F2,79.0,0.5,95,108.0
421,F4,79.25,0.25,95,108.0
422,F4,79.5,0.25,95,108.0
423,C4,79.5,0.25,63,108.0
424,A3,79.5,0.25,63,108.0
425,F3,79.5,0.25,63,108.0
426,F4,79.75,0.25,95,108.0
427,A4,80.0,0.75,95,108.0
428,C3,80.0,0.5,95,108.0
429,C4,80.5,0.25,63,108.0
430,A3,80.5,0.25,63,108.0
431,F3,80.5,0.25,63,108.0
432,C5,80.75,0.25,95,108.0
433,C4,81.0,0.25,95,108.0
434,F2,81.0,0.5,95,108.0
435,C4,81.25,0.25,95,108.0
436,C4,81.5,0.25,95,108.0
437,C4,81.5,0.25,63,108.0
438,A3,81.5,0.25,63,108.0
439,F3,81.5,0.25,63,108.0
440,C4,81.75,0.25,95,108.0
441,F4,82.0,0.75,95,108.0
442,C3,82.0,0.5,95,108.0
443,C4,82.5,0.25,63,108.0
444,A3,82.5,0.25,63,108.0
445,F3,82.5,0.25,63,108.0
446,G#4,82.625,0.125,79,108.0
447,A4,82.75,0.25,95,108.0
448,E4,83.0,0.25,95,108.0
449,F2,83.0,0.5,95,108.0
450,E4,83.25,0.25,95,108.0
451,E4,83.5,0.25,95,108.0
452,C4,83.5,0.25,63,108.0
453,A3,83.5,0.25,63,108.0
454,F3,83.5,0.25,63,108.0
455,E4,83.75,0.25,95,108.0
456,A4,84.0,2.5,95,108.0
457,C3,84.0,0.5,95,108.0
458,E4,84.5,0.25,63,108.0
459,B-3,84.5,0.25,63,108.0
460,G3,84.5,0.25,63,108.0
461,C4,85.0,0.25,95,108.0
462,G2,85.0,0.5,95,108.0
463,C4,85.25,0.25,95,108.0
464,C4,85.5,0.25,95,108.0
465,E4,85.5,0.25,63,108.0
466,B-3,85.5,0.25,63,108.0
467,G3,85.5,0.25,63,108.0
468,C4,85.75,0.25,95,108.0
469,E4,85.875,0.125,63,108.0
470,F#4,86.0,1.5,95,108.0
471,C3,86.0,0.5,95,108.0
472,E4,86.5,0.25,63,108.0
473,B-3,86.5,0.25,63,108.0
474,G3,86.5,0.25,63,108.0
475,E4,87.0,0.25,95,108.0
476,G2,87.0,0.5,95,108.0
477,E4,87.25,0.25,95,108.0
478,E4,87.5,0.25,95,108.0
479,E4,87.5,0.25,63,108.0
480,B-3,87.5,0.25,63,108.0
481,G3,87.5,0.25,63,108.0
482,E4,87.75,0.25,95,108.0
483,A4,88.0,2.5,95,108.0
484,C3,88.0,0.5,95,108.0
485,E4,88.5,0.25,63,108.0
486,B-3,88.5,0.25,63,108.0
487,G3,88.5,0.25,63,108.0
488,C4,89.0,0.25,95,108.0
489,G2,89.0,0.5,95,108.0
490,C4,89.25,0.25,95,108.0
491,C4,89.5,0.25,95,108.0
492,E4,89.5,0.25,63,108.0
493,B-3,89.5,0.25,63,108.0
494,G3,89.5,0.25,63,108.0
495,C4,89.75,0.25,95,108.0
496,F#4,90.0,1.0,79,108.0
497,C3,90.0,0.5,95,108.0
498,E4,90.5,0.25,63,108.0
499,B-3,90.5,0.25,63,108.0
500,G3,90.5,0.25,63,108.0
501,F4,91.0,0.25,127,108.0
502,G2,91.0,0.5,95,108.0
503,F4,91.25,0.25,111,108.0
504,F4,91.5,0.25,111,108.0
505,E4,91.5,0.25,63,108.0
506,B-3,91.5,0.25,63,108.0
507,G3,91.5,0.25,63,108.0
508,F4,91.75,0.25,111,108.0
509,A4,92.0,0.75,95,108.0
510,C3,92.0,0.5,95,108.0
511,C4,92.5,0.25,63,108.0
512,A3,92.5,0.25,63,108.0
513,F3,92.5,0.25,63,108.0
514,C5,92.75,1.75,95,108.0
515,F2,93.0,0.5,95,108.0
516,C4,93.5,0.25,63,108.0
517,A3,93.5,0.25,63,108.0
518,F3,93.5,0.25,63,108.0
519,F4,94.0,0.75,95,108.0
520,C3,94.0,0.5,95,108.0
521,C5,94.5,0.5,95,108.0
522,C4,94.5,0.25,63,108.0
523,A3,94.5,0.25,63,108.0
524,F3,94.5,0.25,63,108.0
525,G#4,94.625,0.125,79,108.0
526,A4,94.75,0.25,95,108.0
527,F2,95.0,0.5,95,108.0
528,C4,95.5,0.25,63,108.0
529,A3,95.5,0.25,63,108.0
530,F3,95.5,0.25,63,108.0
531,C3,96.0,0.5,95,108.0
532,C4,96.5,0.25,63,108.0
533,A3,96.5,0.25,63,108.0
534,F3,96.5,0.25,63,108.0
535,F4,97.0,0.25,111,108.0
536,F2,97.0,0.5,95,108.0
537,F4,97.25,0.25,95,108.0
538,F4,97.5,0.25,95,108.0
539,C4,97.5,0.25,63,108.0
540,A3,97.5,0.25,63,108.0
541,F3,97.5,0.25,63,108.0
542,F4,97.75,0.25,95,108.0
543,G#4,97.875,0.125,79,108.0
544,A4,98.0,0.5,95,108.0
545,C3,98.0,0.5,95,108.0
546,F4,98.5,0.5,95,108.0
547,C4,98.5,0.25,63,108.0
548,A3,98.5,0.25,63,108.0
549,F3,98.5,0.25,63,108.0
550,C4,99.0,0.5,95,108.0
551,F2,99.0,0.5,95,108.0
552,A3,99.5,0.25,95,108.0
553,C4,99.5,0.25,63,108.0
554,A3,99.5,0.25,63,108.0
555,F3,99.5,0.25,63,108.0
556,F3,99.75,1.25,95,108.0
557,A3,100.0,1.5,95,108.0
558,D3,100.0,0.5,95,108.0
559,D4,100.5,0.25,63,108.0
560,C4,100.5,0.25,63,108.0
561,F#3,100.5,0.25,63,108.0
562,D3,101.0,167/1000,95,108.0
563,A2,101.0,0.5,95,108.0
564,F#3,101.167,167/1000,95,108.0
565,D3,101.333,167/1000,95,108.0
566,A3,101.5,0.25,95,108.0
567,B-3,101.5,0.5,95,108.0
568,D4,101.5,0.25,63,108.0
569,C4,101.5,0.25,63,108.0
570,F#3,101.5,0.25,63,108.0
571,C4,101.75,0.125,95,108.0
572,E-4,101.875,0.125,95,108.0
573,F#4,102.0,1.0,95,108.0
574,C4,102.0,1.5,95,108.0
575,C3,102.0,0.5,95,108.0
576,D4,102.5,0.25,63,108.0
577,C4,102.5,0.25,63,108.0
578,F#3,102.5,0.25,63,108.0
579,C4,103.0,0.25,95,108.0
580,A2,103.0,0.5,95,108.0
581,E-4,103.25,0.125,95,108.0
582,F#4,103.375,0.125,95,108.0
583,A4,103.5,1.0,95,108.0
584,B-3,103.5,0.5,95,108.0
585,D4,103.5,0.25,63,108.0
586,C4,103.5,0.25,63,108.0
587,F#3,103.5,0.25,63,108.0
588,A3,104.0,1.5,95,108.0
589,D3,104.0,0.5,95,108.0
590,E-4,104.5,0.25,95,108.0
591,D4,104.5,0.25,63,108.0
592,C4,104.5,0.25,63,108.0
593,F#3,104.5,0.25,63,108.0
594,F#4,104.75,0.125,95,108.0
595,A4,104.875,0.125,95,108.0
596,C5,105.0,1.0,95,108.0
597,A2,105.0,0.5,95,108.0
598,G3,105.5,0.5,95,108.0
599,D4,105.5,0.25,63,108.0
600,C4,105.5,0.25,63,108.0
601,F#3,105.5,0.25,63,108.0
602,C5,106.0,0.25,95,108.0
603,F#3,106.0,1.5,95,108.0
604,C3,106.0,0.5,95,108.0
605,C5,106.25,0.25,47,108.0
606,D4,106.5,0.125,95,108.0
607,D4,106.5,0.25,63,108.0
608,C4,106.5,0.25,63,108.0
609,F#3,106.5,0.25,63,108.0
610,F#4,106.625,0.125,31,108.0
611,A4,106.75,0.125,95,108.0
612,E-5,106.875,0.125,95,108.0
613,E-5,107.0,0.25,95,108.0
614,A2,107.0,0.5,95,108.0
615,D5,107.25,0.875,95,108.0
616,D3,107.5,0.5,95,108.0
617,D4,107.5,0.25,63,108.0
618,C4,107.5,0.25,63,108.0
619,F#3,107.5,0.25,63,108.0
620,G2,108.0,3.0,95,108.0
621,D3,108.0,0.5,95,108.0
622,D4,108.125,0.125,95,108.0
623,F#4,108.25,0.125,95,108.0
624,A4,108.375,0.125,95,108.0
625,B-4,108.5,0.25,95,108.0
626,D4,108.5,0.25,63,108.0
627,B-3,108.5,0.25,63,108.0
628,G3,108.5,0.25,63,108.0
629,A4,108.75,1.25,95,108.0
630,G2,109.0,0.5,95,108.0
631,D4,109.5,0.25,63,108.0
632,B-3,109.5,0.25,63,108.0
633,G3,109.5,0.25,63,108.0
634,E-5,110.0,167/1000,95,108.0
635,D3,110.0,0.5,95,108.0
636,D5,110.167,167/1000,95,108.0
637,E-5,110.333,167/1000,95,108.0
638,D5,110.5,0.25,95,108.0
639,D4,110.5,0.25,63,108.0
640,C4,110.5,0.25,63,108.0
641,G3,110.5,0.25,63,108.0
642,B-4,110.75,0.125,95,108.0
643,A4,110.875,0.125,95,108.0
644,F#4,111.0,0.125,95,108.0
645,A2,111.0,1.0,95,108.0
646,G2,111.0,0.5,95,108.0
647,D4,111.125,0.125,95,108.0
648,D4,111.5,0.25,63,108.0
649,B-3,111.5,0.25,63,108.0
650,G3,111.5,0.25,63,108.0
651,B-2,112.0,4.0,95,108.0
652,F3,112.0,0.5,95,108.0
653,D3,112.5,0.25,95,108.0
654,G4,112.5,0.25,63,108.0
655,C#4,112.5,0.25,63,108.0
656,B-3,112.5,0.25,63,108.0
657,F3,112.75,0.25,95,108.0
658,B-3,113.0,0.25,95,108.0
659,B-2,113.0,0.5,95,108.0
660,D4,113.25,0.25,95,108.0
661,F4,113.5,0.25,95,108.0
662,G4,113.5,0.25,63,108.0
663,C#4,113.5,0.25,63,108.0
664,B-3,113.5,0.25,63,108.0
665,B-4,113.75,0.25,95,108.0
666,D5,114.0,0.25,95,108.0
667,F3,114.0,0.5,95,108.0
668,F5,114.25,0.25,95,108.0
669,A5,114.5,0.5,95,108.0
670,G4,114.5,0.25,63,108.0
671,C#4,114.5,0.25,63,108.0
672,B-3,114.5,0.25,63,108.0
673,G5,115.0,0.5,95,108.0
674,B-2,115.0,0.5,95,108.0
675,F5,115.5,0.25,95,108.0
676,G4,115.5,0.25,63,108.0
677,C#4,115.5,0.25,63,108.0
678,B-3,115.5,0.25,63,108.0
679,F5,115.75,0.25,95,108.0
680,C#5,116.0,0.25,95,108.0
681,C3,116.0,1.0,95,108.0
682,F3,116.0,0.5,95,108.0
683,B-4,116.5,0.25,95,108.0
684,F4,116.5,0.25,63,108.0
685,C4,116.5,0.25,63,108.0
686,A3,116.5,0.25,63,108.0
687,A4,116.75,0.25,95,108.0
688,G4,117.0,1.0,95,108.0
689,F3,117.0,1.0,95,108.0
690,A2,117.0,0.5,95,108.0
691,F4,117.5,0.25,63,108.0
692,C4,117.5,0.25,63,108.0
693,A3,117.5,0.25,63,108.0
694,G#4,118.0,0.25,95,108.0
695,A3,118.0,1.0,95,108.0
696,F3,118.0,0.5,95,108.0
697,D5,118.25,0.25,95,108.0
698,G#5,118.5,0.25,95,108.0
699,F4,118.5,0.25,63,108.0
700,C4,118.5,0.25,63,108.0
701,A3,118.5,0.25,63,108.0
702,G5,118.75,0.25,95,108.0
703,F#5,119.0,1.0,95,108.0
704,C4,119.0,1.0,95,108.0
705,A2,119.0,0.5,95,108.0
706,F4,119.5,0.25,63,108.0
707,C4,119.5,0.25,63,108.0
708,A3,119.5,0.25,63,108.0
709,D5,120.0,167/1000,95,108.0
710,E4,120.0,3.0,95,108.0
711,D3,120.0,0.5,95,108.0
712,C#5,120.167,167/1000,95,108.0
713,C5,120.333,167/1000,95,108.0
714,C#5,120.5,0.25,95,108.0
715,D4,120.5,0.25,63,108.0
716,C4,120.5,0.25,63,108.0
717,F#3,120.5,0.25,63,108.0
718,C5,120.75,0.25,95,108.0
719,B4,121.0,0.125,95,108.0
720,A2,121.0,0.5,95,108.0
721,C5,121.125,0.125,95,108.0
722,B4,121.25,0.125,95,108.0
723,C5,121.375,0.25,95,108.0
724,D4,121.5,0.25,63,108.0
725,C4,121.5,0.25,63,108.0
726,F#3,121.5,0.25,63,108.0
727,B-4,121.625,0.125,95,108.0
728,C5,121.75,0.125,95,108.0
729,B-4,121.875,0.125,95,108.0
730,A4,122.0,167/1000,95,108.0
731,C3,122.0,0.5,95,108.0
732,B-4,122.167,167/1000,95,108.0
733,A4,122.333,167/1000,95,108.0
734,G#4,122.5,167/1000,95,108.0
735,D4,122.5,0.25,63,108.0
736,C4,122.5,0.25,63,108.0
737,F#3,122.5,0.25,63,108.0
738,A4,122.667,167/1000,95,108.0
739,G#4,122.833,167/1000,95,108.0
740,G#4,123.0,167/1000,95,108.0
741,D4,123.0,1.0,95,108.0
742,A2,123.0,0.5,95,108.0
743,G4,123.167,167/1000,95,108.0
744,G#4,123.333,167/1000,95,108.0
745,G4,123.5,167/1000,95,108.0
746,D4,123.5,0.25,63,108.0
747,C4,123.5,0.25,63,108.0
748,F#3,123.5,0.25,63,108.0
749,F#4,123.667,167/1000,95,108.0
750,G4,123.833,167/1000,95,108.0
751,F#4,124.0,167/1000,95,108.0
752,B-3,124.0,2.0,95,108.0
753,D3,124.0,0.5,95,108.0
754,F4,124.167,167/1000,95,108.0
755,F#4,124.333,167/1000,95,108.0
756,F4,124.5,0.25,95,108.0
757,D4,124.5,0.25,63,108.0
758,B-3,124.5,0.25,63,108.0
759,G3,124.5,0.25,63,108.0
760,E4,124.75,0.125,95,108.0
761,F4,124.875,0.125,95,108.0
762,E4,125.0,0.125,95,108.0
763,G2,125.0,0.5,95,108.0
764,D4,125.125,0.125,95,108.0
765,D4,125.5,0.25,95,108.0
766,D4,125.5,0.25,63,108.0
767,B-3,125.5,0.25,63,108.0
768,G3,125.5,0.25,63,108.0
769,A3,126.0,1.5,95,108.0
770,C3,126.0,0.5,95,108.0
771,E4,126.5,0.25,63,108.0
772,C4,126.5,0.25,63,108.0
773,G3,126.5,0.25,63,108.0
774,D4,126.75,0.125,95,108.0
775,F4,126.875,0.125,95,108.0
776,A4,127.0,0.25,95,108.0
777,G2,127.0,0.5,95,108.0
778,C5,127.25,167/1000,95,108.0
779,A4,127.417,167/1000,95,108.0
780,A3,127.5,0.5,47,108.0
781,E4,127.5,0.25,63,108.0
782,C4,127.5,0.25,63,108.0
783,G3,127.5,0.25,63,108.0
784,C5,127.583,167/1000,95,108.0
785,A4,127.75,0.25,95,108.0
786,A4,128.0,0.25,95,108.0
787,F3,128.0,3.5,95,108.0
788,C3,128.0,0.5,95,108.0
789,A4,128.5,167/1000,95,108.0
790,C4,128.5,0.25,63,108.0
791,A3,128.5,0.25,63,108.0
792,F3,128.5,0.25,63,108.0
793,A4,128.667,333/1000,47,108.0
794,C#4,129.0,1.0,95,108.0
795,F2,129.0,0.5,95,108.0
796,C4,129.5,0.25,63,108.0
797,A3,129.5,0.25,63,108.0
798,F3,129.5,0.25,63,108.0
799,C4,130.0,0.25,95,108.0
800,C3,130.0,0.5,95,108.0
801,D4,130.25,0.25,95,108.0
802,C4,130.5,0.25,95,108.0
803,C4,130.5,0.25,63,108.0
804,A3,130.5,0.25,63,108.0
805,F3,130.5,0.25,63,108.0
806,A3,130.75,0.25,95,108.0
807,C4,131.0,0.25,95,108.0
808,F2,131.0,0.5,95,108.0
809,A3,131.25,0.25,95,108.0
810,F3,131.5,0.75,95,108.0
811,G4,131.5,0.5,95,108.0
812,C4,131.5,0.25,63,108.0
813,A3,131.5,0.25,63,108.0
814,F3,131.5,0.25,63,108.0
815,C3,132.0,0.5,95,108.0
816,B-4,132.0,0.25,95,108.0
817,D4,132.0,0.25,95,108.0
818,F3,132.25,0.5,79,108.0
819,B-4,132.25,0.25,95,108.0
820,G3,132.5,0.25,95,108.0
821,D4,132.5,0.25,63,108.0
822,B-3,132.5,0.25,63,108.0
823,E3,132.5,0.25,63,108.0
824,E4,132.75,0.25,95,108.0
825,B-4,133.0,0.25,95,108.0
826,C3,133.0,0.5,95,108.0
827,D4,133.25,0.25,95,108.0
828,E4,133.5,0.25,95,108.0
829,D4,133.5,0.25,63,108.0
830,B-3,133.5,0.25,63,108.0
831,E3,133.5,0.25,63,108.0
832,C5,133.75,0.25,95,108.0
833,D4,134.0,0.25,95,108.0
834,C3,134.0,0.5,95,108.0
835,C5,134.25,0.25,95,108.0
836,G3,134.5,0.25,95,108.0
837,D4,134.5,0.25,63,108.0
838,B-3,134.5,0.25,63,108.0
839,E3,134.5,0.25,63,108.0
840,E4,134.75,0.25,95,108.0
841,C5,135.0,0.25,95,108.0
842,C3,135.0,0.5,95,108.0
843,D4,135.25,0.25,95,108.0
844,E4,135.5,0.25,95,108.0
845,D4,135.5,0.25,63,108.0
846,B-3,135.5,0.25,63,108.0
847,E3,135.5,0.25,63,108.0
848,B-4,135.75,0.25,95,108.0
849,D4,136.0,0.25,95,108.0
850,C3,136.0,0.5,95,108.0
851,B-4,136.25,0.25,95,108.0
852,G3,136.5,0.25,95,108.0
853,D4,136.5,0.25,63,108.0
854,B-3,136.5,0.25,63,108.0
855,E3,136.5,0.25,63,108.0
856,E4,136.75,0.25,95,108.0
857,A4,137.0,0.25,95,108.0
858,C3,137.0,0.5,95,108.0
859,C4,137.25,0.25,95,108.0
860,E4,137.5,0.25,95,108.0
861,D4,137.5,0.25,63,108.0
862,B-3,137.5,0.25,63,108.0
863,E3,137.5,0.25,63,108.0
864,G#4,137.75,0.25,95,108.0
865,B3,138.0,0.25,95,108.0
866,C3,138.0,0.5,95,108.0
867,G#4,138.25,0.25,95,108.0
868,G3,138.5,0.25,95,108.0
869,D4,138.5,0.25,63,108.0
870,B-3,138.5,0.25,63,108.0
871,E3,138.5,0.25,63,108.0
872,E4,138.75,0.25,95,108.0
873,G4,139.0,0.25,95,108.0
874,C3,139.0,0.5,95,108.0
875,B-3,139.25,0.25,95,108.0
876,E4,139.5,0.25,95,108.0
877,D4,139.5,0.25,63,108.0
878,B-3,139.5,0.25,63,108.0
879,E3,139.5,0.25,63,108.0
880,F4,139.75,0.25,95,108.0
881,A3,140.0,0.25,95,108.0
882,A2,140.0,0.5,95,108.0
883,F4,140.25,0.25,95,108.0
884,C4,140.5,0.25,95,108.0
885,C4,140.5,0.25,63,108.0
886,A3,140.5,0.25,63,108.0
887,E3,140.5,0.25,63,108.0
888,E4,140.75,1.75,95,108.0
889,F4,141.0,1.5,95,108.0
890,F2,141.0,0.5,95,108.0
891,C4,141.5,0.25,63,108.0
892,A3,141.5,0.25,63,108.0
893,E3,141.5,0.25,63,108.0
894,A2,142.0,0.5,95,108.0
895,C4,142.5,0.5,95,108.0
896,C4,142.5,0.25,63,108.0
897,A3,142.5,0.25,63,108.0
898,E3,142.5,0.25,63,108.0
899,F4,143.0,0.5,95,108.0
900,F2,143.0,0.5,95,108.0
901,G4,143.5,0.5,95,108.0
902,C4,143.5,0.25,63,108.0
903,A3,143.5,0.25,63,108.0
904,E3,143.5,0.25,63,108.0
905,G4,144.0,1.5,95,108.0
906,A2,144.0,0.5,95,108.0
907,C4,144.5,0.25,63,108.0
908,A3,144.5,0.25,63,108.0
909,E3,144.5,0.25,63,108.0
910,C5,145.0,0.5,95,108.0
911,F2,145.0,0.5,95,108.0
912,G4,145.5,1.0,95,108.0
913,C4,145.5,0.25,63,108.0
914,A3,145.5,0.25,63,108.0
915,E3,145.5,0.25,63,108.0
916,A2,146.0,0.5,95,108.0
917,F4,146.5,0.5,95,108.0
918,C4,146.5,0.25,63,108.0
919,A3,146.5,0.25,63,108.0
920,E3,146.5,0.25,63,108.0
921,C4,147.0,0.75,95,108.0
922,F2,147.0,0.5,95,108.0
923,C4,147.5,0.25,63,108.0
924,A3,147.5,0.25,63,108.0
925,E3,147.5,0.25,63,108.0
926,F#4,147.75,0.25,95,108.0
927,F#4,148.0,0.5,95,108.0
928,C3,148.0,0.5,95,108.0
929,C5,148.5,0.25,95,108.0
930,C4,148.5,0.25,63,108.0
931,B-3,148.5,0.25,63,108.0
932,E3,148.5,0.25,63,108.0
933,G2,149.0,0.5,95,108.0
934,C4,149.5,0.25,63,108.0
935,B-3,149.5,0.25,63,108.0
936,E3,149.5,0.25,63,108.0
937,C3,150.0,0.5,95,108.0
938,C4,150.5,0.5,95,108.0
939,C4,150.5,0.25,63,108.0
940,B-3,150.5,0.25,63,108.0
941,E3,150.5,0.25,63,108.0
942,F#4,151.0,0.75,95,108.0
943,G2,151.0,0.5,95,108.0
944,C4,151.5,0.25,63,108.0
945,B-3,151.5,0.25,63,108.0
946,E3,151.5,0.25,63,108.0
947,C5,151.75,0.25,79,108.0
948,F#4,151.875,0.125,79,108.0
949,G4,152.0,0.5,79,108.0
950,C3,152.0,0.5,95,108.0
951,C4,152.5,0.25,95,108.0
952,C4,152.5,0.25,63,108.0
953,B-3,152.5,0.25,63,108.0
954,E3,152.5,0.25,63,108.0
955,C4,153.0,2.0,95,108.0
956,G2,153.0,0.5,95,108.0
957,C4,153.5,0.25,63,108.0
958,B-3,153.5,0.25,63,108.0
959,E3,153.5,0.25,63,108.0
960,C3,154.0,0.5,95,108.0
961,C4,154.5,0.25,63,108.0
962,B-3,154.5,0.25,63,108.0
963,E3,154.5,0.25,63,108.0
964,D4,155.0,0.25,95,108.0
965,G2,155.0,0.5,95,108.0
966,E4,155.25,0.25,95,108.0
967,C4,155.5,0.25,63,108.0
968,B-3,155.5,0.25,63,108.0
969,E3,155.5,0.25,63,108.0
970,C3,156.0,0.5,95,108.0
971,F4,156.0,0.5,95,108.0
972,E-4,156.0,0.5,95,108.0
973,C4,156.5,0.25,63,108.0
974,A3,156.5,0.25,63,108.0
975,F3,156.5,0.25,63,108.0
976,F2,157.0,0.5,95,108.0
977,G4,157.0,0.5,95,108.0
978,F4,157.0,0.5,95,108.0
979,C4,157.5,0.25,63,108.0
980,A3,157.5,0.25,63,108.0
981,F3,157.5,0.25,63,108.0
982,C3,158.0,0.5,95,108.0
983,A4,158.0,2.0,95,108.0
984,G4,158.0,2.0,95,108.0
985,C4,158.5,0.25,63,108.0
986,A3,158.5,0.25,63,108.0
987,F3,158.5,0.25,63,108.0
988,F2,159.0,0.5,95,108.0
989,C4,159.5,0.25,63,108.0
990,A3,159.5,0.25,63,108.0
991,F3,159.5,0.25,63,108.0
992,C3,160.0,0.5,95,108.0
993,G4,160.0,0.5,95,108.0
994,F4,160.0,0.5,95,108.0
995,C4,160.5,0.25,63,108.0
996,A3,160.5,0.25,63,108.0
997,F3,160.5,0.25,63,108.0
998,F2,161.0,0.5,95,108.0
999,F4,161.0,0.5,95,108.0
1000,E-4,161.0,0.5,95,108.0
1001,C4,161.5,0.25,63,108.0
1002,A3,161.5,0.25,63,108.0
1003,F3,161.5,0.25,63,108.0
1004,C4,161.75,1.5,127,108.0
1005,C3,162.0,0.5,95,108.0
1006,C4,162.5,0.25,63,108.0
1007,A3,162.5,0.25,63,108.0
1008,F3,162.5,0.25,63,108.0
1009,F2,163.0,0.5,95,108.0
1010,F4,163.5,0.5,95,108.0
1011,C4,163.5,0.25,63,108.0
1012,A3,163.5,0.25,63,108.0
1013,F3,163.5,0.25,63,108.0
1014,A4,164.0,0.25,95,108.0
1015,D3,164.0,0.5,95,108.0
1016,A4,164.25,0.25,95,108.0
1017,F#4,164.5,0.25,95,108.0
1018,F#4,164.5,0.25,63,108.0
1019,D4,164.5,0.25,63,108.0
1020,A3,164.5,0.25,63,108.0
1021,E4,164.75,0.25,95,108.0
1022,A4,165.0,0.25,95,108.0
1023,A2,165.0,0.5,95,108.0
1024,C4,165.25,0.25,95,108.0
1025,E4,165.5,0.25,95,108.0
1026,F#4,165.5,0.25,63,108.0
1027,D4,165.5,0.25,63,108.0
1028,A3,165.5,0.25,63,108.0
1029,B-4,165.75,0.25,95,108.0
1030,D5,166.0,0.5,47,108.0
1031,C4,166.0,0.25,95,108.0
1032,D3,166.0,0.5,95,108.0
1033,B-4,166.25,0.25,95,108.0
1034,D5,166.5,0.5,47,108.0
1035,F#4,166.5,0.25,95,108.0
1036,F#4,166.5,0.25,63,108.0
1037,D4,166.5,0.25,63,108.0
1038,A3,166.5,0.25,63,108.0
1039,E4,166.75,0.25,95,108.0
1040,D5,167.0,0.5,47,108.0
1041,B-4,167.0,0.25,95,108.0
1042,A2,167.0,0.5,95,108.0
1043,C4,167.25,0.25,95,108.0
1044,D5,167.5,0.5,47,108.0
1045,E4,167.5,0.25,95,108.0
1046,F#4,167.5,0.25,63,108.0
1047,D4,167.5,0.25,63,108.0
1048,A3,167.5,0.25,63,108.0
1049,C5,167.75,0.25,95,108.0
1050,D5,168.0,0.5,47,108.0
1051,C4,168.0,0.25,95,108.0
1052,D3,168.0,0.5,95,108.0
1053,C5,168.25,0.25,95,108.0
1054,D5,168.5,0.5,47,108.0
1055,F#4,168.5,0.25,95,108.0
1056,F#4,168.5,0.25,63,108.0
1057,D4,168.5,0.25,63,108.0
1058,A3,168.5,0.25,63,108.0
1059,E4,168.75,0.25,95,108.0
1060,D5,169.0,0.5,47,108.0
1061,B-4,169.0,0.25,95,108.0
1062,A2,169.0,0.5,95,108.0
1063,F4,169.25,0.25,95,108.0
1064,D5,169.5,499/1000,47,108.0
1065,E4,169.5,0.25,95,108.0
1066,F#4,169.5,0.25,63,108.0
1067,D4,169.5,0.25,63,108.0
1068,A3,169.5,0.25,63,108.0
1069,B-4,169.75,0.25,95,108.0
1070,D5,170.0,0.5,47,108.0
1071,F4,170.0,0.25,95,108.0
1072,D3,170.0,0.5,95,108.0
1073,A4,170.25,0.25,95,108.0
1074,D5,170.5,0.5,47,108.0
1075,F#4,170.5,0.5,95,108.0
1076,F#4,170.5,0.25,63,108.0
1077,D4,170.5,0.25,63,108.0
1078,A3,170.5,0.25,63,108.0
1079,D5,171.0,0.5,47,108.0
1080,A2,171.0,0.5,95,108.0
1081,D5,171.5,0.5,47,108.0
1082,A4,171.5,0.5,95,108.0
1083,F#4,171.5,0.25,63,108.0
1084,D4,171.5,0.25,63,108.0
1085,A3,171.5,0.25,63,108.0
1086,D5,172.0,0.5,47,108.0
1087,G4,172.0,0.5,95,108.0
1088,C3,172.0,0.5,95,108.0
1089,D5,172.5,499/1000,47,108.0
1090,G4,172.5,0.25,95,108.0
1091,C4,172.5,0.25,63,108.0
1092,A3,172.5,0.25,63,108.0
1093,F3,172.5,0.25,63,108.0
1094,C5,172.75,0.25,95,108.0
1095,A4,173.0,0.25,95,108.0
1096,F2,173.0,0.5,95,108.0
1097,F4,173.25,0.25,95,108.0
1098,C5,173.5,0.25,95,108.0
1099,C4,173.5,0.25,63,108.0
1100,A3,173.5,0.25,63,108.0
1101,F3,173.5,0.25,63,108.0
1102,A4,173.75,0.25,95,108.0
1103,C4,174.0,1.0,63,108.0
1104,G4,174.0,0.5,95,108.0
1105,C3,174.0,0.5,95,108.0
1106,G4,174.5,0.25,95,108.0
1107,C4,174.5,0.25,63,108.0
1108,A3,174.5,0.25,63,108.0
1109,F3,174.5,0.25,63,108.0
1110,C5,174.75,0.25,95,108.0
1111,A4,175.0,1.0,63,108.0
1112,A4,175.0,0.25,95,108.0
1113,F2,175.0,0.5,95,108.0
1114,F4,175.25,0.25,95,108.0
1115,C5,175.5,0.5,95,108.0
1116,C4,175.5,0.25,63,108.0
1117,A3,175.5,0.25,63,108.0
1118,F3,175.5,0.25,63,108.0
1119,F4,176.0,1.5,63,108.0
1120,E4,176.0,0.5,95,108.0
1121,C3,176.0,0.5,95,108.0
1122,E4,176.5,0.25,95,108.0
1123,E4,176.5,0.25,63,108.0
1124,B-3,176.5,0.25,63,108.0
1125,G3,176.5,0.25,63,108.0
1126,C5,176.75,0.25,95,108.0
1127,F#4,177.0,0.25,95,108.0
1128,G2,177.0,0.5,95,108.0
1129,D4,177.25,0.25,95,108.0
1130,F4,177.5,0.5,31,108.0
1131,C5,177.5,0.25,95,108.0
1132,E4,177.5,0.25,63,108.0
1133,B-3,177.5,0.25,63,108.0
1134,G3,177.5,0.25,63,108.0
1135,F#4,177.75,0.25,95,108.0
1136,A3,178.0,1.0,63,108.0
1137,E4,178.0,1.0,95,108.0
1138,C3,178.0,0.5,95,108.0
1139,E4,178.5,0.25,63,108.0
1140,B-3,178.5,0.25,63,108.0
1141,G3,178.5,0.25,63,108.0
1142,F#4,179.0,1.0,79,108.0
1143,D4,179.0,1.0,95,108.0
1144,G2,179.0,0.5,95,108.0
1145,E4,179.5,0.25,63,108.0
1146,B-3,179.5,0.25,63,108.0
1147,G3,179.5,0.25,63,108.0
1148,D4,180.0,1.5,63,108.0
1149,B-3,180.0,1.0,95,108.0
1150,D3,180.0,0.5,95,108.0
1151,D4,180.5,0.25,63,108.0
1152,B-3,180.5,0.25,63,108.0
1153,G3,180.5,0.25,63,108.0
1154,G2,181.0,0.5,95,108.0
1155,D4,181.5,0.5,95,108.0
1156,D4,181.5,0.25,63,108.0
1157,B-3,181.5,0.25,63,108.0
1158,G3,181.5,0.25,63,108.0
1159,A3,182.0,1.25,95,108.0
1160,C3,182.0,0.5,95,108.0
1161,E4,182.5,0.25,63,108.0
1162,B-3,182.5,0.25,63,108.0
1163,G3,182.5,0.25,63,108.0
1164,G2,183.0,0.5,95,108.0
1165,A3,183.25,0.25,95,108.0
1166,C4,183.5,0.25,95,108.0
1167,E4,183.5,0.25,63,108.0
1168,B-3,183.5,0.25,63,108.0
1169,G3,183.5,0.25,63,108.0
1170,A3,183.75,0.25,95,108.0
1171,G#3,183.875,0.125,63,108.0
1172,G3,184.0,1.0,95,108.0
1173,C3,184.0,0.5,95,108.0
1174,C4,184.5,0.25,63,108.0
1175,A3,184.5,0.25,63,108.0
1176,F3,184.5,0.25,63,108.0
1177,F3,185.0,2.0,95,108.0
1178,F2,185.0,0.5,95,108.0
1179,C4,185.5,0.25,63,108.0
1180,A3,185.5,0.25,63,108.0
1181,F3,185.5,0.25,63,108.0
1182,C3,186.0,0.5,95,108.0
1183,C4,186.5,0.25,63,108.0
1184,A3,186.5,0.25,63,108.0
1185,F3,186.5,0.25,63,108.0
1186,F2,187.0,0.5,95,108.0
1187,C4,187.5,0.25,63,108.0
1188,A3,187.5,0.25,63,108.0
1189,F3,187.5,0.25,63,108.0
1190,C3,188.0,0.5,95,108.0
1191,C4,188.5,0.25,63,108.0
1192,B-3,188.5,0.25,63,108.0
1193,E3,188.5,0.25,63,108.0
1194,G2,189.0,0.5,95,108.0
1195,C4,189.5,0.25,63,108.0
1196,B-3,189.5,0.25,63,108.0
1197,E3,189.5,0.25,63,108.0
1198,C3,190.0,0.5,95,108.0
1199,C4,190.5,0.25,63,108.0
1200,B-3,190.5,0.25,63,108.0
1201,E3,190.5,0.25,63,108.0
1202,G2,191.0,0.5,95,108.0
1203,C4,191.5,0.25,63,108.0
1204,B-3,191.5,0.25,63,108.0
1205,E3,191.5,0.25,63,108.0
1206,C3,192.0,0.5,95,108.0
1207,C4,192.5,0.25,63,108.0
1208,A3,192.5,0.25,63,108.0
1209,F3,192.5,0.25,63,108.0
1210,F2,193.0,0.5,95,108.0
1211,C4,193.5,0.5,95,108.0
1212,C4,193.5,0.25,63,108.0
1213,A3,193.5,0.25,63,108.0
1214,F3,193.5,0.25,63,108.0
1215,F4,194.0,1.0,95,108.0
1216,C3,194.0,0.5,95,108.0
1217,C4,194.5,0.25,63,108.0
1218,A3,194.5,0.25,63,108.0
1219,F3,194.5,0.25,63,108.0
1220,F2,195.0,0.5,95,108.0
1221,C4,195.5,0.25,63,108.0
1222,A3,195.5,0.25,63,108.0
1223,F3,195.5,0.25,63,108.0
1224,C3,196.0,0.5,95,108.0
1225,C4,196.5,0.25,63,108.0
1226,A3,196.5,0.25,63,108.0
1227,F3,196.5,0.25,63,108.0
1228,G#4,197.0,0.5,95,108.0
1229,F2,197.0,0.5,95,108.0
1230,A4,197.5,0.5,95,108.0
1231,C4,197.5,0.25,63,108.0
1232,A3,197.5,0.25,63,108.0
1233,F3,197.5,0.25,63,108.0
1234,F4,198.0,1.0,95,108.0
1235,C3,198.0,0.5,95,108.0
1236,C4,198.5,0.25,63,108.0
1237,A3,198.5,0.25,63,108.0
1238,F3,198.5,0.25,63,108.0
1239,F2,199.0,0.5,95,108.0
1240,C4,199.5,0.25,63,108.0
1241,A3,199.5,0.25,63,108.0
1242,F3,199.5,0.25,63,108.0
1243,D3,200.0,0.5,95,108.0
1244,D4,200.5,0.25,63,108.0
1245,C4,200.5,0.25,63,108.0
1246,F#3,200.5,0.25,63,108.0
1247,A2,201.0,0.5,95,108.0
1248,D4,201.5,0.25,63,108.0
1249,C4,201.5,0.25,63,108.0
1250,F3,201.5,0.25,63,108.0
1251,B4,202.0,167/1000,95,108.0
1252,D3,202.0,0.5,95,108.0
1253,B-4,202.167,167/1000,95,108.0
1254,A4,202.333,167/1000,95,108.0
1255,D4,202.5,0.25,63,108.0
1256,C4,202.5,0.25,63,108.0
1257,F#3,202.5,0.25,63,108.0
1258,F#4,202.75,0.25,95,108.0
1259,F4,203.0,0.125,95,108.0
1260,A2,203.0,0.5,95,108.0
1261,E4,203.125,0.125,95,108.0
1262,D4,203.5,0.25,95,108.0
1263,D4,203.5,0.25,63,108.0
1264,C4,203.5,0.25,63,108.0
1265,F#3,203.5,0.25,63,108.0
1266,C#4,203.75,0.25,95,108.0
1267,C4,204.0,0.25,95,108.0
1268,D3,204.0,0.5,95,108.0
1269,F#4,204.25,0.25,95,108.0
1270,F4,204.5,0.25,95,108.0
1271,D4,204.5,0.25,63,108.0
1272,C4,204.5,0.25,63,108.0
1273,F#3,204.5,0.25,63,108.0
1274,E4,204.75,0.25,95,108.0
1275,A2,205.0,0.5,95,108.0
1276,B4,205.25,0.25,95,108.0
1277,B-4,205.5,0.25,95,108.0
1278,D4,205.5,0.25,63,108.0
1279,C4,205.5,0.25,63,108.0
1280,F3,205.5,0.25,63,108.0
1281,A4,205.75,0.25,95,108.0
1282,D3,206.0,0.5,95,108.0
1283,D4,206.5,167/1000,95,108.0
1284,D4,206.5,0.25,63,108.0
1285,C4,206.5,0.25,63,108.0
1286,F#3,206.5,0.25,63,108.0
1287,C#4,206.667,167/1000,95,108.0
1288,C4,206.833,167/1000,95,108.0
1289,D4,207.0,167/1000,95,108.0
1290,A2,207.0,0.5,95,108.0
1291,F#4,207.167,167/1000,95,108.0
1292,F4,207.333,167/1000,95,108.0
1293,E4,207.5,0.25,95,108.0
1294,D4,207.5,0.25,63,108.0
1295,C4,207.5,0.25,63,108.0
1296,F#3,207.5,0.25,63,108.0
1297,F#4,207.75,0.25,95,108.0
1298,B4,208.0,167/1000,95,108.0
1299,D3,208.0,0.5,95,108.0
1300,B-4,208.167,167/1000,95,108.0
1301,A4,208.333,167/1000,95,108.0
1302,D4,208.5,0.25,63,108.0
1303,B-3,208.5,0.25,63,108.0
1304,G3,208.5,0.25,63,108.0
1305,F#4,208.667,167/1000,95,108.0
1306,F4,208.833,167/1000,95,108.0
1307,E4,209.0,0.25,95,108.0
1308,G2,209.0,0.5,95,108.0
1309,F#4,209.25,0.25,95,108.0
1310,A4,209.5,0.5,95,108.0
1311,D4,209.5,0.25,63,108.0
1312,B-3,209.5,0.25,63,108.0
1313,G3,209.5,0.25,63,108.0
1314,A4,209.875,0.125,79,108.0
1315,B-4,210.0,0.5,95,108.0
1316,D3,210.0,0.5,95,108.0
1317,D4,210.5,0.25,63,108.0
1318,C4,210.5,0.25,63,108.0
1319,G3,210.5,0.25,63,108.0
1320,G4,211.0,0.25,95,108.0
1321,G2,211.0,0.5,95,108.0
1322,D4,211.5,0.25,63,108.0
1323,B-3,211.5,0.25,63,108.0
1324,G3,211.5,0.25,63,108.0
1325,F3,212.0,0.5,95,108.0
1326,C5,212.5,0.25,95,108.0
1327,G4,212.5,0.25,63,108.0
1328,C#4,212.5,0.25,63,108.0
1329,B-3,212.5,0.25,63,108.0
1330,B-4,212.75,0.25,70,108.0
1331,C5,213.0,0.25,95,108.0
1332,B-2,213.0,0.5,95,108.0
1333,B-4,213.25,0.25,70,108.0
1334,G4,213.5,0.25,95,108.0
1335,G4,213.5,0.25,63,108.0
1336,C#4,213.5,0.25,63,108.0
1337,B-3,213.5,0.25,63,108.0
1338,F4,213.75,0.25,70,108.0
1339,G4,214.0,0.25,95,108.0
1340,F3,214.0,0.5,95,108.0
1341,F4,214.25,0.25,70,108.0
1342,E-4,214.5,0.25,95,108.0
1343,G4,214.5,0.25,63,108.0
1344,C#4,214.5,0.25,63,108.0
1345,B-3,214.5,0.25,63,108.0
1346,C#4,214.75,0.25,70,108.0
1347,E-4,215.0,0.25,95,108.0
1348,B-2,215.0,0.5,95,108.0
1349,C#4,215.25,0.25,70,108.0
1350,E-4,215.5,0.25,95,108.0
1351,G4,215.5,0.25,63,108.0
1352,C#4,215.5,0.25,63,108.0
1353,B-3,215.5,0.25,63,108.0
1354,C#4,215.75,0.25,70,108.0
1355,E-4,216.0,0.25,95,108.0
1356,C3,216.0,0.5,95,108.0
1357,C#4,216.25,0.25,70,108.0
1358,E-4,216.5,0.25,95,108.0
1359,C4,216.5,0.25,63,108.0
1360,A3,216.5,0.25,63,108.0
1361,F3,216.5,0.25,63,108.0
1362,C#4,216.75,0.25,70,108.0
1363,E-4,217.0,0.25,95,108.0
1364,F2,217.0,0.5,95,108.0
1365,C#4,217.25,0.25,70,108.0
1366,E-4,217.5,0.25,95,108.0
1367,C4,217.5,0.25,63,108.0
1368,A3,217.5,0.25,63,108.0
1369,F3,217.5,0.25,63,108.0
1370,C#4,217.75,0.25,70,108.0
1371,C4,218.0,0.5,95,108.0
1372,C3,218.0,0.5,95,108.0
1373,C4,218.5,0.25,63,108.0
1374,A3,218.5,0.25,63,108.0
1375,F3,218.5,0.25,63,108.0
1376,F4,219.0,0.5,95,108.0
1377,F2,219.0,0.5,95,108.0
1378,C4,219.5,0.25,63,108.0
1379,A3,219.5,0.25,63,108.0
1380,F3,219.5,0.25,63,108.0
1381,A4,220.0,0.5,95,108.0
1382,D3,220.0,0.5,95,108.0
1383,D4,220.5,0.25,63,108.0
1384,C4,220.5,0.25,63,108.0
1385,F#3,220.5,0.25,63,108.0
1386,C5,221.0,0.75,95,108.0
1387,A2,221.0,0.5,95,108.0
1388,D4,221.5,0.25,63,108.0
1389,C4,221.5,0.25,63,108.0
1390,F3,221.5,0.25,63,108.0
1391,C5,221.75,0.25,95,108.0
1392,E-5,222.0,0.5,95,108.0
1393,D3,222.0,0.5,95,108.0
1394,D5,222.5,0.5,95,108.0
1395,D4,222.5,0.25,63,108.0
1396,C4,222.5,0.25,63,108.0
1397,F#3,222.5,0.25,63,108.0
1398,E5,223.0,1.0,95,108.0
1399,A2,223.0,0.5,95,108.0
1400,D4,223.5,0.25,63,108.0
1401,C4,223.5,0.25,63,108.0
1402,F#3,223.5,0.25,63,108.0
1403,G3,224.0,2.0,111,108.0
1404,C4,226.0,2.0,111,108.0
1405,B-4,226.0,0.25,79,108.0
1406,G4,226.0,0.25,79,108.0
1407,F5,226.25,0.25,79,108.0
1408,B-4,226.25,0.25,79,108.0
1409,F3,228.0,2.0,111,108.0
1410,A5,228.0,0.25,79,108.0
1411,D5,228.0,0.25,79,108.0
1412,B-4,228.0,0.25,79,108.0
1413,E4,228.0,0.25,79,108.0
1414,F5,229.75,0.25,79,108.0
1415,F4,229.75,0.25,79,108.0
1416,B-3,230.0,1.0,111,108.0
1417,F5,230.0,0.25,79,108.0
1418,F4,230.0,0.25,79,108.0
1419,F5,230.25,0.25,79,108.0
1420,F4,230.25,0.25,79,108.0
1421,F5,230.5,0.5,79,108.0
1422,F4,230.5,0.5,79,108.0
1423,C4,231.0,1.0,95,108.0
1424,F5,231.0,0.5,79,108.0
1425,A4,231.0,0.5,79,108.0
1426,G4,231.0,0.5,79,108.0
1427,E-4,231.0,0.5,79,108.0
1428,F5,231.5,0.5,79,108.0
1429,A4,231.5,0.5,79,108.0
1430,G3,231.5,0.5,79,108.0
1431,F5,232.0,0.5,79,108.0
1432,B-4,232.0,0.5,79,108.0
1433,G4,232.0,0.5,79,108.0
1434,B3,232.5,0.5,79,108.0
1435,F5,233.0,0.5,79,108.0
1436,B4,233.0,0.5,79,108.0
1437,G#4,233.0,0.5,79,108.0
1438,G#5,234.0,0.75,79,108.0
1439,D5,234.0,0.75,79,108.0
1440,E-3,234.25,0.25,111,108.0
1441,D3,234.5,0.25,111,108.0
1442,F3,234.75,0.25,111,108.0
1443,E-5,234.75,0.25,79,108.0
1444,B-4,234.75,0.25,79,108.0
1445,E-5,235.0,0.25,79,108.0
1446,B-4,235.0,0.25,79,108.0
1447,E-3,235.75,0.25,111,108.0
1448,D3,236.0,0.25,111,108.0
1449,F3,236.25,0.25,111,108.0
1450,E-5,236.25,0.25,79,108.0
1451,B-4,236.25,0.25,79,108.0
1452,F4,236.25,0.25,79,108.0
1453,C4,236.25,0.25,79,108.0
1454,E5,236.5,0.25,79,108.0
1455,B4,236.5,0.25,79,108.0
1456,F#4,236.5,0.25,79,108.0
1457,C#4,236.5,0.25,79,108.0
1458,F5,236.75,0.25,79,108.0
1459,C5,236.75,0.25,79,108.0
1460,G4,236.75,0.25,79,108.0
1461,D4,236.75,0.25,79,108.0
1462,F3,237.0,0.25,111,108.0
1463,E-5,237.75,0.25,79,108.0
1464,B-4,237.75,0.25,79,108.0
1465,F4,237.75,0.25,79,108.0
1466,C4,237.75,0.25,79,108.0
1467,E5,238.0,0.25,79,108.0
1468,B4,238.0,0.25,79,108.0
1469,F#4,238.0,0.25,79,108.0
1470,C#4,238.0,0.25,79,108.0
1471,F5,238.25,0.25,79,108.0
1472,C5,238.25,0.25,79,108.0
1473,G4,238.25,0.25,79,108.0
1474,D4,238.25,0.25,79,108.0
1475,F3,238.5,0.25,111,108.0
1476,F2,239.0,0.25,79,108.0
1477,B4,240.5,0.25,83,108.0
1478,G4,240.5,0.25,83,108.0
1479,D4,240.5,0.25,83,108.0
1480,F3,240.5,0.25,83,108.0
