,note_name,start_time,duration,velocity,tempo
0,B1,4.0,0.0,106,88.0
1,F#2,4.0,0.0,106,88.0
2,C#3,4.0,0.0,106,88.0
3,A1,4.0,3833/1000,102,88.0
4,E3,4.0,1229/500,57,88.0
5,E3,4.0,271/500,84,88.0
6,E4,4.0,2.375,70,88.0
7,A2,4.0,1417/1000,88,88.0
8,G3,4.0,4.0,59,88.0
9,C4,4.0,4.0,59,88.0
10,A3,4.0,4.0,59,88.0
11,A3,4.0,427/1000,70,88.0
12,G3,4.0,427/1000,70,88.0
13,C3,4.0,427/1000,70,88.0
14,C5,4.0,1.5,80,88.0
15,A4,4.0,1.5,80,88.0
16,C5,4.0,1.5,80,88.0
17,A4,4.0,1.5,80,88.0
18,F#2,4.5,0.0,79,88.0
19,F#2,5.0,0.0,102,88.0
20,C#2,5.0,0.0,102,88.0
21,E3,5.01,13/125,54,88.0
22,G3,5.01,13/125,54,88.0
23,A3,5.01,13/125,54,88.0
24,B1,5.5,0.0,85,88.0
25,F#2,5.5,0.0,85,88.0
26,A2,5.5,0.5,88,88.0
27,B4,5.5,0.25,80,88.0
28,G4,5.5,0.25,80,88.0
29,B4,5.5,0.25,80,88.0
30,G4,5.5,0.25,80,88.0
31,A3,5.542,0.094,56,88.0
32,E3,5.542,0.094,56,88.0
33,G3,5.542,0.094,56,88.0
34,A4,5.75,1.75,80,88.0
35,A4,5.75,1.75,80,88.0
36,B1,6.0,0.0,108,88.0
37,F#2,6.0,0.0,108,88.0
38,E3,6.0,167/1000,51,88.0
39,A2,6.0,1417/1000,88,88.0
40,C3,6.062,0.094,62,88.0
41,E3,6.49,73/500,79,88.0
42,F#2,6.5,0.0,79,88.0
43,E4,6.5,0.5,70,88.0
44,E3,6.958,13/125,54,88.0
45,A3,6.958,13/125,54,88.0
46,G3,6.958,13/125,54,88.0
47,F#2,7.0,0.0,102,88.0
48,C#2,7.0,0.0,102,88.0
49,E3,7.0,0.969,78,88.0
50,C4,7.0,0.969,78,88.0
51,E3,7.479,0.188,46,88.0
52,B1,7.5,0.0,85,88.0
53,F#2,7.5,0.0,85,88.0
54,A2,7.5,0.5,88,88.0
55,A4,7.5,0.25,80,88.0
56,A4,7.5,0.25,80,88.0
57,C3,7.542,83/1000,39,88.0
58,B4,7.75,0.25,80,88.0
59,B4,7.75,0.25,80,88.0
60,B1,8.0,0.0,108,88.0
61,F#2,8.0,0.0,108,88.0
62,D2,8.0,1.75,94,88.0
63,D3,8.0,1417/1000,88,88.0
64,C4,8.0,2.0,74,88.0
65,F4,8.0,2.0,74,88.0
66,C5,8.0,0.5,80,88.0
67,F4,8.0,0.5,80,88.0
68,A4,8.0,0.5,80,88.0
69,C5,8.0,0.5,80,88.0
70,F4,8.0,0.5,80,88.0
71,A4,8.0,0.5,80,88.0
72,A3,8.042,127/200,76,88.0
73,F3,8.042,127/200,76,88.0
74,F#2,8.5,0.0,79,88.0
75,F4,8.5,0.5,80,88.0
76,A4,8.5,0.5,80,88.0
77,C5,8.5,0.5,80,88.0
78,F4,8.5,0.5,80,88.0
79,A4,8.5,0.5,80,88.0
80,C5,8.5,0.5,80,88.0
81,F#2,9.0,0.0,102,88.0
82,C#2,9.0,0.0,102,88.0
83,F3,9.0,0.344,64,88.0
84,D4,9.0,0.344,64,88.0
85,C4,9.0,0.344,64,88.0
86,A3,9.0,0.344,64,88.0
87,F4,9.0,0.5,80,88.0
88,C5,9.0,0.5,80,88.0
89,A4,9.0,0.5,80,88.0
90,F4,9.0,0.5,80,88.0
91,C5,9.0,0.5,80,88.0
92,A4,9.0,0.5,80,88.0
93,B1,9.5,0.0,85,88.0
94,F#2,9.5,0.0,85,88.0
95,A4,9.5,229/500,71,88.0
96,F4,9.5,229/500,71,88.0
97,C5,9.5,229/500,71,88.0
98,A4,9.5,229/500,71,88.0
99,F4,9.5,229/500,71,88.0
100,C5,9.5,229/500,71,88.0
101,D3,9.5,229/500,71,88.0
102,A3,9.5,229/500,71,88.0
103,F3,9.5,229/500,71,88.0
104,B1,10.0,0.0,108,88.0
105,F#2,10.0,0.0,108,88.0
106,G3,10.0,99/125,65,88.0
107,D4,10.0,73/500,38,88.0
108,G4,10.0,0.969,70,88.0
109,E3,10.0,1.875,88,88.0
110,E1,10.0,2.0,71,88.0
111,E4,10.0,2.0,71,88.0
112,B3,10.0,2.0,71,88.0
113,B3,10.0,0.375,57,88.0
114,G3,10.0,0.375,57,88.0
115,E3,10.0,0.375,57,88.0
116,C5,10.0,0.5,80,88.0
117,C5,10.0,0.5,80,88.0
118,F#2,10.5,0.0,79,88.0
119,D5,10.5,0.5,80,88.0
120,D5,10.5,0.5,80,88.0
121,F#2,11.0,0.0,102,88.0
122,C#2,11.0,0.0,102,88.0
123,G3,11.0,1.0,78,88.0
124,B4,11.0,1.0,78,88.0
125,G4,11.0,1.0,78,88.0
126,B4,11.0,1.0,78,88.0
127,G4,11.0,1.0,78,88.0
128,G3,11.01,151/500,63,88.0
129,B3,11.01,151/500,63,88.0
130,D3,11.01,151/500,63,88.0
131,E3,11.01,151/500,63,88.0
132,B1,11.5,0.0,85,88.0
133,F#2,11.5,0.0,85,88.0
134,D4,11.5,0.5,57,88.0
135,B1,12.0,0.0,108,88.0
136,F#2,12.0,0.0,108,88.0
137,E2,12.0,3.406,102,88.0
138,E3,12.0,1073/500,57,88.0
139,B3,12.0,2833/1000,55,88.0
140,G3,12.0,2.5,66,88.0
141,D4,12.0,4.0,63,88.0
142,D3,12.0,223/200,81,88.0
143,E2,12.0,3.719,88,88.0
144,B4,12.0,333/1000,80,88.0
145,B4,12.0,333/1000,80,88.0
146,D4,12.0,1917/1000,70,88.0
147,G4,12.0,1917/1000,70,88.0
148,E3,12.021,151/250,70,88.0
149,D5,12.333,333/1000,80,88.0
150,D5,12.333,333/1000,80,88.0
151,F#2,12.5,0.0,79,88.0
152,B4,12.667,333/1000,80,88.0
153,B4,12.667,333/1000,80,88.0
154,G3,12.958,26/125,73,88.0
155,B3,12.958,26/125,73,88.0
156,E3,12.958,26/125,73,88.0
157,F#2,13.0,0.0,102,88.0
158,C#2,13.0,0.0,102,88.0
159,A4,13.0,1.0,80,88.0
160,A4,13.0,1.0,80,88.0
161,G3,13.458,333/1000,91,88.0
162,B1,13.5,0.0,85,88.0
163,F#2,13.5,0.0,85,88.0
164,E3,13.542,73/500,27,88.0
165,D3,13.99,417/1000,39,88.0
166,B1,14.0,0.0,108,88.0
167,F#2,14.0,0.0,108,88.0
168,G4,14.0,333/1000,80,88.0
169,G4,14.0,333/1000,80,88.0
170,B3,14.0,1917/1000,70,88.0
171,D4,14.0,1917/1000,70,88.0
172,A4,14.333,333/1000,80,88.0
173,A4,14.333,333/1000,80,88.0
174,B3,14.469,73/200,77,88.0
175,G3,14.469,73/200,77,88.0
176,F#2,14.5,0.0,79,88.0
177,E3,14.5,1.5,55,88.0
178,G4,14.667,333/1000,80,88.0
179,G4,14.667,333/1000,80,88.0
180,F#2,15.0,0.0,102,88.0
181,C#2,15.0,0.0,102,88.0
182,E3,15.0,0.219,57,88.0
183,G3,15.0,1.0,77,88.0
184,E4,15.0,1.0,77,88.0
185,E4,15.0,1.0,77,88.0
186,E2,15.49,77/200,87,88.0
187,B1,15.5,0.0,85,88.0
188,F#2,15.5,0.0,85,88.0
189,B3,15.5,0.5,57,88.0
190,E3,15.521,177/1000,49,88.0
191,B1,16.0,0.0,108,88.0
192,F#2,16.0,0.0,108,88.0
193,A1,16.0,1271/1000,99,88.0
194,E4,16.0,1417/1000,72,88.0
195,C4,16.0,1417/1000,72,88.0
196,E3,16.0,1417/1000,72,88.0
197,E4,16.0,1417/1000,72,88.0
198,C4,16.0,1417/1000,72,88.0
199,A2,16.0,1417/1000,72,88.0
200,A4,16.0,4.0,80,88.0
201,A4,16.0,4.0,80,88.0
202,E3,16.042,127/200,76,88.0
203,C3,16.042,127/200,76,88.0
204,F#2,16.5,0.0,79,88.0
205,F#2,17.0,0.0,102,88.0
206,C#2,17.0,0.0,102,88.0
207,A3,17.0,0.344,62,88.0
208,C3,17.0,0.344,62,88.0
209,C4,17.0,0.344,62,88.0
210,A3,17.0,0.344,62,88.0
211,E3,17.0,0.344,62,88.0
212,B1,17.5,0.0,85,88.0
213,F#2,17.5,0.0,85,88.0
214,A3,17.5,1.281,65,88.0
215,F#4,17.5,0.625,38,88.0
216,A2,17.5,479/500,88,88.0
217,A4,17.5,2479/1000,59,88.0
218,D4,17.5,2479/1000,59,88.0
219,D4,17.5,2.375,70,88.0
220,F#4,17.5,2.375,70,88.0
221,A1,17.51,229/500,55,88.0
222,E3,17.51,229/500,55,88.0
223,C3,17.51,229/500,55,88.0
224,F#2,17.75,0.0,68,88.0
225,B1,18.0,0.0,108,88.0
226,F#2,18.0,0.0,108,88.0
227,A1,18.0,1271/1000,99,88.0
228,A3,18.042,127/200,76,88.0
229,F#3,18.042,127/200,76,88.0
230,B1,18.5,0.0,85,88.0
231,F#2,18.5,0.0,85,88.0
232,E3,18.5,0.5,88,88.0
233,F#2,19.0,0.0,102,88.0
234,C#2,19.0,0.0,102,88.0
235,A3,19.0,1.0,72,88.0
236,A3,19.0,0.5,88,88.0
237,F#3,19.0,0.344,64,88.0
238,F#4,19.0,0.344,64,88.0
239,D4,19.0,0.344,64,88.0
240,A3,19.0,0.344,64,88.0
241,B1,19.5,0.0,85,88.0
242,F#2,19.5,0.0,85,88.0
243,F#4,19.5,229/500,62,88.0
244,E3,19.5,229/500,62,88.0
245,A1,19.5,229/500,62,88.0
246,A3,19.5,229/500,62,88.0
247,F#3,19.5,229/500,62,88.0
248,B-2,19.75,0.0,91,88.0
249,B1,20.0,0.0,108,88.0
250,F#2,20.0,0.0,108,88.0
251,A1,20.0,1.75,94,88.0
252,E4,20.0,2.0,68,88.0
253,C4,20.0,2.0,68,88.0
254,G3,20.0,2.0,68,88.0
255,E3,20.0,1.125,53,88.0
256,C3,20.0,1.125,53,88.0
257,A4,20.0,4.0,80,88.0
258,A4,20.0,4.0,80,88.0
259,E4,20.0,1417/1000,76,88.0
260,G4,20.0,1417/1000,76,88.0
261,A2,20.0,1417/1000,76,88.0
262,F#2,20.5,0.0,79,88.0
263,A3,20.51,0.719,68,88.0
264,G3,20.51,0.719,68,88.0
265,F#2,21.0,0.0,102,88.0
266,C#2,21.0,0.0,102,88.0
267,A3,21.0,1.0,57,88.0
268,B1,21.5,0.0,85,88.0
269,F#2,21.5,0.0,85,88.0
270,A2,21.5,479/500,88,88.0
271,D4,21.5,2.375,70,88.0
272,F#4,21.5,2.375,70,88.0
273,E3,21.521,0.25,60,88.0
274,C3,21.521,0.25,60,88.0
275,B1,22.0,0.0,108,88.0
276,F#2,22.0,0.0,108,88.0
277,A1,22.0,1.75,94,88.0
278,A3,22.0,99/125,65,88.0
279,F#4,22.0,73/500,38,88.0
280,A4,22.0,2.0,59,88.0
281,D4,22.0,2.0,59,88.0
282,F#4,22.0,0.375,57,88.0
283,D4,22.0,0.375,57,88.0
284,A3,22.0,0.375,57,88.0
285,F#2,22.5,0.0,79,88.0
286,E3,22.5,0.5,88,88.0
287,F#2,23.0,0.0,102,88.0
288,C#2,23.0,0.0,102,88.0
289,A3,23.0,1.0,72,88.0
290,A3,23.0,0.5,88,88.0
291,D4,23.01,151/500,63,88.0
292,F#4,23.01,151/500,63,88.0
293,F#3,23.01,151/500,63,88.0
294,A3,23.01,151/500,63,88.0
295,B1,23.5,0.0,85,88.0
296,F#2,23.5,0.0,85,88.0
297,F#4,23.5,0.5,72,88.0
298,E3,23.5,0.5,72,88.0
299,B1,24.0,0.0,108,88.0
300,F#2,24.0,0.0,108,88.0
301,A1,24.0,1.75,94,88.0
302,E3,24.0,2.0,74,88.0
303,C4,24.0,2.0,74,88.0
304,C4,24.0,0.375,68,88.0
305,A3,24.0,0.375,68,88.0
306,C3,24.0,0.375,68,88.0
307,E3,24.0,0.375,68,88.0
308,A4,24.0,4.0,80,88.0
309,A4,24.0,4.0,80,88.0
310,C4,24.0,1417/1000,76,88.0
311,E4,24.0,1417/1000,76,88.0
312,A2,24.0,1417/1000,76,88.0
313,F#2,24.5,0.0,79,88.0
314,C3,24.594,0.094,38,88.0
315,F#2,25.0,0.0,102,88.0
316,C#2,25.0,0.0,102,88.0
317,A3,25.01,151/500,80,88.0
318,C4,25.01,151/500,80,88.0
319,C3,25.01,151/500,80,88.0
320,E3,25.01,151/500,80,88.0
321,B1,25.5,0.0,85,88.0
322,F#2,25.5,0.0,85,88.0
323,A2,25.5,479/500,88,88.0
324,E3,25.5,0.188,16,88.0
325,C3,25.5,0.188,16,88.0
326,D4,25.5,2.375,70,88.0
327,F#4,25.5,2.375,70,88.0
328,B1,26.0,0.0,108,88.0
329,F#2,26.0,0.0,108,88.0
330,A3,26.0,979/500,80,88.0
331,F#4,26.0,979/500,80,88.0
332,A1,26.0,979/500,80,88.0
333,F#4,26.0,0.375,68,88.0
334,D4,26.0,0.375,68,88.0
335,F#3,26.0,0.375,68,88.0
336,A3,26.0,0.375,68,88.0
337,F#2,26.5,0.0,79,88.0
338,E3,26.5,0.5,88,88.0
339,F#3,26.594,0.094,38,88.0
340,F#2,27.0,0.0,102,88.0
341,C#2,27.0,0.0,102,88.0
342,A3,27.0,0.5,88,88.0
343,D4,27.01,151/500,80,88.0
344,F#4,27.01,151/500,80,88.0
345,F#3,27.01,151/500,80,88.0
346,A3,27.01,151/500,80,88.0
347,B1,27.5,0.0,85,88.0
348,F#2,27.5,0.0,85,88.0
349,E3,27.5,0.5,88,88.0
350,A3,27.5,0.188,16,88.0
351,F#3,27.5,0.188,16,88.0
352,B1,28.0,0.0,108,88.0
353,F#2,28.0,0.0,108,88.0
354,G3,28.0,979/500,80,88.0
355,C4,28.0,979/500,80,88.0
356,A1,28.0,979/500,80,88.0
357,A4,28.0,4.0,80,88.0
358,A4,28.0,4.0,80,88.0
359,E4,28.0,1417/1000,76,88.0
360,G4,28.0,1417/1000,76,88.0
361,A2,28.0,1417/1000,76,88.0
362,E3,28.042,127/200,76,88.0
363,C3,28.042,127/200,76,88.0
364,F#2,28.5,0.0,79,88.0
365,F#2,29.0,0.0,102,88.0
366,C#2,29.0,0.0,102,88.0
367,C3,29.0,0.344,64,88.0
368,A3,29.0,0.344,64,88.0
369,G3,29.0,0.344,64,88.0
370,E3,29.0,0.344,64,88.0
371,B1,29.5,0.0,85,88.0
372,F#2,29.5,0.0,85,88.0
373,A2,29.5,479/500,88,88.0
374,D4,29.5,2.375,70,88.0
375,F#4,29.5,2.375,70,88.0
376,E3,29.521,229/500,37,88.0
377,C3,29.521,229/500,37,88.0
378,B1,30.0,0.0,108,88.0
379,F#2,30.0,0.0,108,88.0
380,A1,30.0,1271/1000,99,88.0
381,D4,30.0,771/1000,70,88.0
382,A3,30.0,2.0,74,88.0
383,F#4,30.0,2.0,74,88.0
384,F#2,30.5,0.0,79,88.0
385,E3,30.5,0.5,88,88.0
386,F#2,31.0,0.0,102,88.0
387,C#2,31.0,0.0,102,88.0
388,A3,31.0,0.406,68,88.0
389,A3,31.0,49/100,70,88.0
390,F#3,31.0,49/100,70,88.0
391,B1,31.5,0.0,85,88.0
392,F#2,31.5,0.0,85,88.0
393,E3,31.5,49/100,90,88.0
394,A1,31.5,49/100,90,88.0
395,D4,31.521,6/25,49,88.0
396,B1,32.0,0.0,108,88.0
397,F#2,32.0,0.0,108,88.0
398,A1,32.0,1.75,92,88.0
399,G3,32.0,2.0,68,88.0
400,C4,32.0,2.0,68,88.0
401,E4,32.0,0.5,78,88.0
402,C5,32.0,0.5,78,88.0
403,E5,32.0,0.5,78,88.0
404,C5,32.0,0.5,78,88.0
405,E5,32.0,0.5,78,88.0
406,G4,32.0,1417/1000,77,88.0
407,A2,32.0,1417/1000,77,88.0
408,E3,32.042,127/200,76,88.0
409,C3,32.042,127/200,76,88.0
410,F#2,32.5,0.0,79,88.0
411,D4,32.5,0.5,80,88.0
412,D5,32.5,0.5,80,88.0
413,D5,32.5,0.5,80,88.0
414,F#2,33.0,0.0,102,88.0
415,C#2,33.0,0.0,102,88.0
416,C3,33.0,0.344,64,88.0
417,A3,33.0,0.344,64,88.0
418,G3,33.0,0.344,64,88.0
419,E3,33.0,0.344,64,88.0
420,D4,33.0,0.5,80,88.0
421,D5,33.0,0.5,80,88.0
422,D5,33.0,0.5,80,88.0
423,B1,33.5,0.0,85,88.0
424,F#2,33.5,0.0,85,88.0
425,C4,33.5,0.25,88,88.0
426,F#4,33.5,2.375,66,88.0
427,A4,33.5,229/500,56,88.0
428,A4,33.5,229/500,56,88.0
429,E3,33.5,229/500,56,88.0
430,C3,33.5,229/500,56,88.0
431,D5,33.5,479/500,80,88.0
432,D5,33.5,479/500,80,88.0
433,A2,33.5,479/500,80,88.0
434,C4,33.75,0.75,88,88.0
435,B1,34.0,0.0,108,88.0
436,F#2,34.0,0.0,108,88.0
437,D4,34.0,771/1000,70,88.0
438,A3,34.0,979/500,76,88.0
439,F#4,34.0,979/500,76,88.0
440,A1,34.0,979/500,76,88.0
441,A4,34.0,0.5,76,88.0
442,A4,34.0,0.5,76,88.0
443,B1,34.5,0.0,85,88.0
444,F#2,34.5,0.0,85,88.0
445,A3,34.5,0.5,82,88.0
446,A4,34.5,0.5,82,88.0
447,A4,34.5,0.5,82,88.0
448,E3,34.5,0.5,82,88.0
449,F#2,35.0,0.0,102,88.0
450,C#2,35.0,0.0,102,88.0
451,A3,35.0,0.406,68,88.0
452,A3,35.0,479/500,88,88.0
453,C4,35.0,49/100,73,88.0
454,C5,35.0,49/100,73,88.0
455,C5,35.0,49/100,73,88.0
456,F#3,35.0,49/100,73,88.0
457,B1,35.5,0.0,85,88.0
458,F#2,35.5,0.0,85,88.0
459,D4,35.5,0.5,80,88.0
460,D5,35.5,0.5,80,88.0
461,D5,35.5,0.5,80,88.0
462,D4,35.521,6/25,49,88.0
463,F#2,35.75,0.0,68,88.0
464,B1,36.0,0.0,108,88.0
465,F#2,36.0,0.0,108,88.0
466,A1,36.0,1271/1000,97,88.0
467,G3,36.0,2.0,68,88.0
468,C4,36.0,2.0,68,88.0
469,E4,36.0,0.5,78,88.0
470,C5,36.0,0.5,78,88.0
471,E5,36.0,0.5,78,88.0
472,C5,36.0,0.5,78,88.0
473,E5,36.0,0.5,78,88.0
474,G4,36.0,1417/1000,77,88.0
475,A2,36.0,1417/1000,77,88.0
476,E3,36.042,127/200,76,88.0
477,C3,36.042,127/200,76,88.0
478,F#2,36.5,0.0,79,88.0
479,D4,36.5,0.5,80,88.0
480,D5,36.5,0.5,80,88.0
481,D5,36.5,0.5,80,88.0
482,F#2,37.0,0.0,102,88.0
483,C#2,37.0,0.0,102,88.0
484,C3,37.0,0.344,64,88.0
485,A3,37.0,0.344,64,88.0
486,G3,37.0,0.344,64,88.0
487,E3,37.0,0.344,64,88.0
488,D4,37.0,0.5,80,88.0
489,D5,37.0,0.5,80,88.0
490,D5,37.0,0.5,80,88.0
491,B1,37.5,0.0,85,88.0
492,F#2,37.5,0.0,85,88.0
493,C4,37.5,0.25,88,88.0
494,F#4,37.5,2.375,66,88.0
495,A4,37.5,479/500,78,88.0
496,D5,37.5,479/500,78,88.0
497,A4,37.5,479/500,78,88.0
498,D5,37.5,479/500,78,88.0
499,A2,37.5,479/500,78,88.0
500,A1,37.51,229/500,54,88.0
501,E3,37.51,229/500,54,88.0
502,C3,37.51,229/500,54,88.0
503,D4,37.75,0.75,88,88.0
504,B1,38.0,0.0,108,88.0
505,F#2,38.0,0.0,108,88.0
506,A4,38.0,1417/1000,65,88.0
507,F#4,38.0,1417/1000,65,88.0
508,A3,38.0,1417/1000,65,88.0
509,F#4,38.0,0.375,68,88.0
510,D4,38.0,0.375,68,88.0
511,F#3,38.0,0.375,68,88.0
512,A3,38.0,0.375,68,88.0
513,A1,38.042,979/500,91,88.0
514,F#2,38.5,0.0,79,88.0
515,A3,38.5,0.5,82,88.0
516,A4,38.5,0.5,82,88.0
517,A4,38.5,0.5,82,88.0
518,E3,38.5,0.5,82,88.0
519,F#3,38.594,0.094,38,88.0
520,F#2,39.0,0.0,102,88.0
521,C#2,39.0,0.0,102,88.0
522,A2,39.0,479/500,88,88.0
523,D4,39.0,0.344,77,88.0
524,D4,39.0,0.344,77,88.0
525,F#4,39.0,0.344,77,88.0
526,C4,39.0,0.5,80,88.0
527,C5,39.0,0.5,80,88.0
528,C5,39.0,0.5,80,88.0
529,F#3,39.031,151/500,71,88.0
530,A3,39.031,151/500,71,88.0
531,B1,39.5,0.0,85,88.0
532,F#2,39.5,0.0,85,88.0
533,A3,39.5,0.5,68,88.0
534,F4,39.5,0.5,68,88.0
535,A3,39.5,0.188,16,88.0
536,F#3,39.5,0.188,16,88.0
537,D4,39.5,0.5,80,88.0
538,D5,39.5,0.5,80,88.0
539,D5,39.5,0.5,80,88.0
540,B1,40.0,0.0,108,88.0
541,F#2,40.0,0.0,108,88.0
542,D4,40.0,3.0,88,88.0
543,G2,40.0,1417/1000,88,88.0
544,F4,40.0,0.375,57,88.0
545,C4,40.0,0.375,57,88.0
546,A3,40.0,0.375,57,88.0
547,D5,40.0,1.5,76,88.0
548,C5,40.0,1.5,76,88.0
549,A4,40.0,1.5,76,88.0
550,F4,40.0,1.5,76,88.0
551,D5,40.0,1.5,76,88.0
552,C5,40.0,1.5,76,88.0
553,A4,40.0,1.5,76,88.0
554,F4,40.0,1.5,76,88.0
555,A3,40.0,1979/1000,68,88.0
556,F4,40.0,1979/1000,68,88.0
557,G2,40.042,979/500,91,88.0
558,F#2,40.5,0.0,79,88.0
559,F#2,41.0,0.0,102,88.0
560,C#2,41.0,0.0,102,88.0
561,C4,41.01,151/500,63,88.0
562,F4,41.01,151/500,63,88.0
563,F3,41.01,151/500,63,88.0
564,A3,41.01,151/500,63,88.0
565,B1,41.5,0.0,85,88.0
566,F#2,41.5,0.0,85,88.0
567,G4,41.5,2.375,66,88.0
568,G2,41.5,479/500,88,88.0
569,B4,41.5,2.5,76,88.0
570,D5,41.5,2.5,76,88.0
571,B4,41.5,2.5,76,88.0
572,D5,41.5,2.5,76,88.0
573,B1,42.0,0.0,108,88.0
574,F#2,42.0,0.0,108,88.0
575,G2,42.0,1271/1000,97,88.0
576,B3,42.0,2.0,68,88.0
577,G4,42.0,2.0,68,88.0
578,G4,42.0,0.375,68,88.0
579,D4,42.0,0.375,68,88.0
580,G3,42.0,0.375,68,88.0
581,B3,42.0,0.375,68,88.0
582,F#2,42.5,0.0,79,88.0
583,D3,42.5,0.5,88,88.0
584,G3,42.594,0.094,38,88.0
585,F#2,43.0,0.0,102,88.0
586,C#2,43.0,0.0,102,88.0
587,G3,43.0,479/500,88,88.0
588,D4,43.01,151/500,80,88.0
589,G4,43.01,151/500,80,88.0
590,G3,43.01,151/500,80,88.0
591,B3,43.01,151/500,80,88.0
592,B1,43.5,0.0,85,88.0
593,F#2,43.5,0.0,85,88.0
594,B3,43.5,0.188,16,88.0
595,G3,43.5,0.188,16,88.0
596,G2,43.51,49/100,88,88.0
597,B1,44.0,0.0,108,88.0
598,F#2,44.0,0.0,108,88.0
599,G2,44.0,1417/1000,88,88.0
600,G1,44.0,2.0,72,88.0
601,A4,44.0,2.0,72,88.0
602,F4,44.0,2.0,72,88.0
603,A3,44.0,2.0,72,88.0
604,C5,44.0,1.5,76,88.0
605,A4,44.0,1.5,76,88.0
606,F4,44.0,1.5,76,88.0
607,D5,44.0,1.5,76,88.0
608,C5,44.0,1.5,76,88.0
609,A4,44.0,1.5,76,88.0
610,F4,44.0,1.5,76,88.0
611,D5,44.0,1.5,76,88.0
612,A3,44.042,127/200,76,88.0
613,F3,44.042,127/200,76,88.0
614,F#2,44.5,0.0,79,88.0
615,F#2,45.0,0.0,102,88.0
616,C#2,45.0,0.0,102,88.0
617,C4,45.0,1.0,53,88.0
618,F3,45.0,0.344,64,88.0
619,F4,45.0,0.344,64,88.0
620,C4,45.0,0.344,64,88.0
621,A3,45.0,0.344,64,88.0
622,B1,45.5,0.0,85,88.0
623,F#2,45.5,0.0,85,88.0
624,G4,45.5,2.375,66,88.0
625,G2,45.5,1417/1000,88,88.0
626,B4,45.5,2.5,76,88.0
627,D5,45.5,2.5,76,88.0
628,B4,45.5,2.5,76,88.0
629,D5,45.5,2.5,76,88.0
630,A3,45.521,229/500,37,88.0
631,F3,45.521,229/500,37,88.0
632,B1,46.0,0.0,108,88.0
633,F#2,46.0,0.0,108,88.0
634,G1,46.0,2.0,72,88.0
635,B4,46.0,2.0,72,88.0
636,G4,46.0,2.0,72,88.0
637,B3,46.0,2.0,72,88.0
638,B3,46.0,1.125,53,88.0
639,G3,46.0,1.125,53,88.0
640,F#2,46.5,0.0,79,88.0
641,G4,46.51,0.719,68,88.0
642,D4,46.51,0.719,68,88.0
643,F#2,47.0,0.0,102,88.0
644,C#2,47.0,0.0,102,88.0
645,D4,47.0,479/500,70,88.0
646,E2,47.0,479/500,70,88.0
647,B1,47.5,0.0,85,88.0
648,F#2,47.5,0.0,85,88.0
649,B3,47.521,0.25,60,88.0
650,G3,47.521,0.25,60,88.0
651,B1,48.0,0.0,108,88.0
652,F#2,48.0,0.0,108,88.0
653,E4,48.0,979/500,71,88.0
654,C4,48.0,979/500,71,88.0
655,G3,48.0,979/500,71,88.0
656,A1,48.0,979/500,71,88.0
657,E4,48.0,0.5,78,88.0
658,C5,48.0,0.5,78,88.0
659,E5,48.0,0.5,78,88.0
660,C5,48.0,0.5,78,88.0
661,E5,48.0,0.5,78,88.0
662,G4,48.0,1417/1000,77,88.0
663,A2,48.0,1417/1000,77,88.0
664,E3,48.042,127/200,76,88.0
665,C3,48.042,127/200,76,88.0
666,F#2,48.5,0.0,79,88.0
667,D4,48.5,0.5,80,88.0
668,D5,48.5,0.5,80,88.0
669,D5,48.5,0.5,80,88.0
670,F#2,49.0,0.0,102,88.0
671,C#2,49.0,0.0,102,88.0
672,A3,49.0,1.0,53,88.0
673,C3,49.0,0.344,64,88.0
674,A3,49.0,0.344,64,88.0
675,G3,49.0,0.344,64,88.0
676,E3,49.0,0.344,64,88.0
677,D4,49.0,0.5,80,88.0
678,D5,49.0,0.5,80,88.0
679,D5,49.0,0.5,80,88.0
680,B1,49.5,0.0,85,88.0
681,F#2,49.5,0.0,85,88.0
682,C4,49.5,0.25,88,88.0
683,F#4,49.5,2.375,66,88.0
684,A4,49.5,479/500,78,88.0
685,D5,49.5,479/500,78,88.0
686,A4,49.5,479/500,78,88.0
687,D5,49.5,479/500,78,88.0
688,A2,49.5,479/500,78,88.0
689,E3,49.521,229/500,37,88.0
690,C3,49.521,229/500,37,88.0
691,F#2,49.75,0.0,68,88.0
692,C4,49.75,0.75,88,88.0
693,B1,50.0,0.0,108,88.0
694,F#2,50.0,0.0,108,88.0
695,A4,50.0,979/500,71,88.0
696,F#4,50.0,979/500,71,88.0
697,A3,50.0,979/500,71,88.0
698,A1,50.0,979/500,71,88.0
699,F#4,50.0,0.375,57,88.0
700,D4,50.0,0.375,57,88.0
701,A3,50.0,0.375,57,88.0
702,B1,50.5,0.0,85,88.0
703,F#2,50.5,0.0,85,88.0
704,A3,50.5,0.5,82,88.0
705,A4,50.5,0.5,82,88.0
706,A4,50.5,0.5,82,88.0
707,E3,50.5,0.5,82,88.0
708,F#2,51.0,0.0,102,88.0
709,C#2,51.0,0.0,102,88.0
710,D4,51.0,479/500,70,88.0
711,A3,51.0,479/500,70,88.0
712,C4,51.0,0.5,80,88.0
713,C5,51.0,0.5,80,88.0
714,C5,51.0,0.5,80,88.0
715,D4,51.01,151/500,63,88.0
716,F#4,51.01,151/500,63,88.0
717,F#3,51.01,151/500,63,88.0
718,A3,51.01,151/500,63,88.0
719,B1,51.5,0.0,85,88.0
720,F#2,51.5,0.0,85,88.0
721,D4,51.5,0.5,80,88.0
722,D5,51.5,0.5,80,88.0
723,D5,51.5,0.5,80,88.0
724,B-2,51.75,0.0,91,88.0
725,B1,52.0,0.0,108,88.0
726,F#2,52.0,0.0,108,88.0
727,A1,52.0,1.75,92,88.0
728,G3,52.0,1417/1000,73,88.0
729,C4,52.0,1417/1000,73,88.0
730,G4,52.0,1417/1000,73,88.0
731,A2,52.0,1417/1000,73,88.0
732,E4,52.0,0.5,78,88.0
733,C5,52.0,0.5,78,88.0
734,E5,52.0,0.5,78,88.0
735,C5,52.0,0.5,78,88.0
736,E5,52.0,0.5,78,88.0
737,E3,52.042,127/200,76,88.0
738,C3,52.042,127/200,76,88.0
739,F#2,52.5,0.0,79,88.0
740,D4,52.5,0.5,80,88.0
741,D5,52.5,0.5,80,88.0
742,D5,52.5,0.5,80,88.0
743,F#2,53.0,0.0,102,88.0
744,C#2,53.0,0.0,102,88.0
745,C3,53.0,0.344,64,88.0
746,A3,53.0,0.344,64,88.0
747,G3,53.0,0.344,64,88.0
748,E3,53.0,0.344,64,88.0
749,D4,53.0,0.5,80,88.0
750,D5,53.0,0.5,80,88.0
751,D5,53.0,0.5,80,88.0
752,B1,53.5,0.0,85,88.0
753,F#2,53.5,0.0,85,88.0
754,C4,53.5,0.25,88,88.0
755,F#4,53.5,2.375,66,88.0
756,A4,53.5,2479/1000,65,88.0
757,F#4,53.5,2479/1000,65,88.0
758,A3,53.5,2479/1000,65,88.0
759,A4,53.5,479/500,78,88.0
760,D5,53.5,479/500,78,88.0
761,A4,53.5,479/500,78,88.0
762,D5,53.5,479/500,78,88.0
763,A2,53.5,479/500,78,88.0
764,E3,53.521,229/500,37,88.0
765,C3,53.521,229/500,37,88.0
766,C4,53.75,0.75,88,88.0
767,B1,54.0,0.0,108,88.0
768,F#2,54.0,0.0,108,88.0
769,A1,54.0,1.75,92,88.0
770,A3,54.042,127/200,76,88.0
771,F#3,54.042,127/200,76,88.0
772,F#2,54.5,0.0,79,88.0
773,A4,54.5,0.5,80,88.0
774,A4,54.5,0.5,80,88.0
775,E3,54.5,0.5,80,88.0
776,F#2,55.0,0.0,102,88.0
777,C#2,55.0,0.0,102,88.0
778,D4,55.0,479/500,70,88.0
779,A2,55.0,479/500,70,88.0
780,F#3,55.0,0.344,64,88.0
781,F#4,55.0,0.344,64,88.0
782,D4,55.0,0.344,64,88.0
783,A3,55.0,0.344,64,88.0
784,C5,55.0,0.5,76,88.0
785,C5,55.0,0.5,76,88.0
786,B1,55.5,0.0,85,88.0
787,F#2,55.5,0.0,85,88.0
788,A3,55.5,229/500,63,88.0
789,A4,55.5,229/500,63,88.0
790,A4,55.5,229/500,63,88.0
791,A3,55.5,229/500,63,88.0
792,F#3,55.5,229/500,63,88.0
793,B1,56.0,0.0,108,88.0
794,F#2,56.0,0.0,108,88.0
795,G2,56.0,1.75,92,88.0
796,A4,56.0,2.0,65,88.0
797,F4,56.0,2.0,65,88.0
798,A3,56.0,2.0,65,88.0
799,A3,56.0,1.125,53,88.0
800,F3,56.0,1.125,53,88.0
801,C4,56.0,0.25,80,88.0
802,C5,56.0,0.25,80,88.0
803,C5,56.0,0.25,80,88.0
804,F4,56.0,1417/1000,73,88.0
805,A4,56.0,1417/1000,73,88.0
806,G2,56.0,1417/1000,73,88.0
807,D4,56.25,0.5,80,88.0
808,D5,56.25,0.5,80,88.0
809,D5,56.25,0.5,80,88.0
810,F#2,56.5,0.0,79,88.0
811,F4,56.51,0.719,68,88.0
812,C4,56.51,0.719,68,88.0
813,D4,56.75,1.25,80,88.0
814,D5,56.75,1.25,80,88.0
815,D5,56.75,1.25,80,88.0
816,F#2,57.0,0.0,102,88.0
817,C#2,57.0,0.0,102,88.0
818,C4,57.0,1.0,53,88.0
819,B1,57.5,0.0,85,88.0
820,F#2,57.5,0.0,85,88.0
821,G2,57.5,479/500,88,88.0
822,G4,57.5,1.438,66,88.0
823,B4,57.5,1.438,66,88.0
824,A3,57.521,0.25,60,88.0
825,F3,57.521,0.25,60,88.0
826,B1,58.0,0.0,108,88.0
827,F#2,58.0,0.0,108,88.0
828,G2,58.0,1.75,92,88.0
829,B3,58.0,2.0,68,88.0
830,G4,58.0,2.0,68,88.0
831,E4,58.0,1.0,80,88.0
832,E5,58.0,1.0,80,88.0
833,E5,58.0,1.0,80,88.0
834,B3,58.042,127/200,76,88.0
835,G3,58.042,127/200,76,88.0
836,B1,58.5,0.0,85,88.0
837,F#2,58.5,0.0,85,88.0
838,D3,58.5,0.5,88,88.0
839,F#2,59.0,0.0,102,88.0
840,C#2,59.0,0.0,102,88.0
841,G3,59.0,0.344,64,88.0
842,G4,59.0,0.344,64,88.0
843,D4,59.0,0.344,64,88.0
844,B3,59.0,0.344,64,88.0
845,G4,59.0,479/500,78,88.0
846,B4,59.0,479/500,78,88.0
847,D5,59.0,479/500,78,88.0
848,G4,59.0,479/500,78,88.0
849,B4,59.0,479/500,78,88.0
850,D5,59.0,479/500,78,88.0
851,G3,59.0,479/500,78,88.0
852,B1,59.5,0.0,85,88.0
853,F#2,59.5,0.0,85,88.0
854,B3,59.521,229/500,37,88.0
855,G3,59.521,229/500,37,88.0
856,F#2,59.75,0.0,68,88.0
857,B1,60.0,0.0,108,88.0
858,F#2,60.0,0.0,108,88.0
859,A4,60.0,979/500,71,88.0
860,F4,60.0,979/500,71,88.0
861,A3,60.0,979/500,71,88.0
862,G2,60.0,979/500,71,88.0
863,A3,60.0,1.125,53,88.0
864,F3,60.0,1.125,53,88.0
865,C5,60.0,0.5,76,88.0
866,C5,60.0,0.5,76,88.0
867,F4,60.0,1417/1000,73,88.0
868,A4,60.0,1417/1000,73,88.0
869,G2,60.0,1417/1000,73,88.0
870,F#2,60.5,0.0,79,88.0
871,B4,60.5,0.5,76,88.0
872,B4,60.5,0.5,76,88.0
873,F4,60.51,0.719,68,88.0
874,C4,60.51,0.719,68,88.0
875,F#2,61.0,0.0,102,88.0
876,C#2,61.0,0.0,102,88.0
877,C4,61.0,1.0,53,88.0
878,C5,61.0,0.5,76,88.0
879,C5,61.0,0.5,76,88.0
880,B1,61.5,0.0,85,88.0
881,F#2,61.5,0.0,85,88.0
882,G2,61.5,1417/1000,88,88.0
883,D5,61.5,1.5,71,88.0
884,G4,61.5,1.5,71,88.0
885,B4,61.5,1.5,71,88.0
886,D5,61.5,1.5,71,88.0
887,A3,61.521,0.25,60,88.0
888,F3,61.521,0.25,60,88.0
889,B1,62.0,0.0,108,88.0
890,F#2,62.0,0.0,108,88.0
891,G2,62.0,1.0,76,88.0
892,B3,62.0,1.0,76,88.0
893,G4,62.0,1.0,76,88.0
894,G4,62.0,0.375,68,88.0
895,D4,62.0,0.375,68,88.0
896,G3,62.0,0.375,68,88.0
897,B3,62.0,0.375,68,88.0
898,F#2,62.5,0.0,79,88.0
899,G3,62.594,0.094,38,88.0
900,F#2,63.0,0.0,102,88.0
901,C#2,63.0,0.0,102,88.0
902,A1,63.0,479/500,78,88.0
903,G4,63.0,479/500,78,88.0
904,C5,63.0,479/500,78,88.0
905,A2,63.0,479/500,78,88.0
906,G3,63.0,417/1000,66,88.0
907,G3,63.0,417/1000,66,88.0
908,C3,63.0,417/1000,66,88.0
909,D4,63.0,0.5,80,88.0
910,D5,63.0,0.5,80,88.0
911,D5,63.0,0.5,80,88.0
912,B1,63.5,0.0,85,88.0
913,F#2,63.5,0.0,85,88.0
914,B-3,63.5,0.5,32,88.0
915,A3,63.5,0.5,55,88.0
916,F4,63.5,0.5,55,88.0
917,D4,63.5,0.5,55,88.0
918,A3,63.5,0.5,65,88.0
919,F3,63.5,0.5,65,88.0
920,D3,63.5,0.5,65,88.0
921,E4,63.5,0.5,80,88.0
922,E5,63.5,0.5,80,88.0
923,E5,63.5,0.5,80,88.0
924,B1,64.0,0.0,108,88.0
925,F#2,64.0,0.0,108,88.0
926,B-1,64.0,1677/500,109,88.0
927,B-2,64.0,1417/1000,88,88.0
928,B-3,64.0,2.719,32,88.0
929,F4,64.0,0.5,80,88.0
930,F5,64.0,0.5,80,88.0
931,F5,64.0,0.5,80,88.0
932,D5,64.0,1917/1000,66,88.0
933,C5,64.0,1917/1000,66,88.0
934,A4,64.0,1917/1000,66,88.0
935,A3,64.0,3979/1000,55,88.0
936,F4,64.0,3979/1000,55,88.0
937,D4,64.0,3979/1000,55,88.0
938,A3,64.0,127/200,65,88.0
939,F3,64.0,127/200,65,88.0
940,D3,64.0,127/200,65,88.0
941,F#2,64.5,0.0,79,88.0
942,F4,64.5,0.5,80,88.0
943,F5,64.5,0.5,80,88.0
944,F5,64.5,0.5,80,88.0
945,F#2,65.0,0.0,102,88.0
946,C#2,65.0,0.0,102,88.0
947,F4,65.0,0.5,80,88.0
948,F5,65.0,0.5,80,88.0
949,F5,65.0,0.5,80,88.0
950,A3,65.031,77/200,67,88.0
951,B1,65.5,0.0,85,88.0
952,F#2,65.5,0.0,85,88.0
953,F4,65.5,0.5,82,88.0
954,F5,65.5,0.5,82,88.0
955,F5,65.5,0.5,82,88.0
956,B-2,65.5,0.5,82,88.0
957,D3,65.552,0.156,51,88.0
958,B1,66.0,0.0,108,88.0
959,F#2,66.0,0.0,108,88.0
960,F4,66.0,0.75,78,88.0
961,D5,66.0,0.75,78,88.0
962,F5,66.0,0.75,78,88.0
963,D5,66.0,0.75,78,88.0
964,F5,66.0,0.75,78,88.0
965,A4,66.0,1.875,77,88.0
966,B-2,66.0,1.875,77,88.0
967,A3,66.021,13/50,54,88.0
968,F3,66.021,13/50,54,88.0
969,B1,66.5,0.0,85,88.0
970,F#2,66.5,0.0,85,88.0
971,A3,66.51,349/500,61,88.0
972,E4,66.75,0.5,78,88.0
973,C5,66.75,0.5,78,88.0
974,E5,66.75,0.5,78,88.0
975,C5,66.75,0.5,78,88.0
976,E5,66.75,0.5,78,88.0
977,F#2,67.0,0.0,102,88.0
978,C#2,67.0,0.0,102,88.0
979,B-3,67.0,1.0,57,88.0
980,D4,67.25,0.5,80,88.0
981,D5,67.25,0.5,80,88.0
982,D5,67.25,0.5,80,88.0
983,B-1,67.469,73/250,77,88.0
984,B1,67.5,0.0,85,88.0
985,F#2,67.5,0.0,85,88.0
986,F#2,67.75,0.0,68,88.0
987,F4,67.75,0.25,80,88.0
988,F5,67.75,0.25,80,88.0
989,F5,67.75,0.25,80,88.0
990,B1,68.0,0.0,108,88.0
991,F#2,68.0,0.0,108,88.0
992,A1,68.0,3833/1000,99,88.0
993,E3,68.0,1073/500,54,88.0
994,A3,68.0,2833/1000,52,88.0
995,G3,68.0,2.5,63,88.0
996,C4,68.0,4.0,59,88.0
997,E4,68.0,1.0,88,88.0
998,A2,68.0,1417/1000,88,88.0
999,G4,68.0,2.0,76,88.0
1000,C5,68.0,2.0,76,88.0
1001,E5,68.0,2.0,76,88.0
1002,G4,68.0,2.0,76,88.0
1003,C5,68.0,2.0,76,88.0
1004,E5,68.0,2.0,76,88.0
1005,E3,68.021,0.344,67,88.0
1006,C3,68.021,0.344,67,88.0
1007,F#2,68.5,0.0,79,88.0
1008,E3,68.865,0.375,62,88.0
1009,G3,68.865,0.375,62,88.0
1010,F#2,69.0,0.0,102,88.0
1011,C#2,69.0,0.0,102,88.0
1012,C4,69.0,1.0,88,88.0
1013,A3,69.01,0.312,66,88.0
1014,B1,69.5,0.0,85,88.0
1015,F#2,69.5,0.0,85,88.0
1016,A2,69.5,0.5,88,88.0
1017,B1,70.0,0.0,108,88.0
1018,F#2,70.0,0.0,108,88.0
1019,A2,70.0,1.875,88,88.0
1020,E4,70.0,1.5,76,88.0
1021,G4,70.0,1.5,76,88.0
1022,C5,70.0,1.5,76,88.0
1023,E4,70.0,1.5,76,88.0
1024,G4,70.0,1.5,76,88.0
1025,C5,70.0,1.5,76,88.0
1026,G3,70.458,0.312,63,88.0
1027,C3,70.458,0.312,63,88.0
1028,F#2,70.5,0.0,79,88.0
1029,E3,70.5,1.5,52,88.0
1030,E3,70.99,27/200,43,88.0
1031,F#2,71.0,0.0,102,88.0
1032,C#2,71.0,0.0,102,88.0
1033,G3,71.0,1.0,65,88.0
1034,A3,71.469,0.25,70,88.0
1035,C3,71.469,0.25,70,88.0
1036,C4,71.469,0.25,70,88.0
1037,C5,71.469,0.25,70,88.0
1038,C5,71.469,0.25,70,88.0
1039,B1,71.5,0.0,85,88.0
1040,F#2,71.5,0.0,85,88.0
1041,A3,71.5,0.5,54,88.0
1042,D4,71.75,0.25,80,88.0
1043,D5,71.75,0.25,80,88.0
1044,D5,71.75,0.25,80,88.0
1045,B1,72.0,0.0,108,88.0
1046,F#2,72.0,0.0,108,88.0
1047,G#2,72.0,3.406,99,88.0
1048,G#3,72.0,1229/500,54,88.0
1049,G#2,72.0,1417/1000,88,88.0
1050,C4,72.0,4.0,56,88.0
1051,G4,72.0,4.0,56,88.0
1052,E-4,72.0,4.0,56,88.0
1053,G#3,72.0,0.5,81,88.0
1054,E-4,72.0,0.5,81,88.0
1055,E-5,72.0,0.5,81,88.0
1056,E-5,72.0,0.5,81,88.0
1057,E-4,72.0,427/1000,75,88.0
1058,E-4,72.0,427/1000,75,88.0
1059,E-5,72.0,427/1000,75,88.0
1060,E-5,72.0,427/1000,75,88.0
1061,C4,72.0,427/1000,75,88.0
1062,G3,72.0,427/1000,75,88.0
1063,C5,72.0,1917/1000,66,88.0
1064,G4,72.0,1917/1000,66,88.0
1065,F#2,72.5,0.0,79,88.0
1066,E-4,72.5,0.5,80,88.0
1067,E-5,72.5,0.5,80,88.0
1068,E-5,72.5,0.5,80,88.0
1069,F#2,73.0,0.0,102,88.0
1070,C#2,73.0,0.0,102,88.0
1071,E-4,73.0,0.188,66,88.0
1072,G#3,73.0,0.188,66,88.0
1073,E-5,73.0,0.5,76,88.0
1074,E-5,73.0,0.5,76,88.0
1075,C4,73.031,13/125,58,88.0
1076,E-4,73.031,13/125,58,88.0
1077,E-4,73.25,0.5,88,88.0
1078,B1,73.5,0.0,85,88.0
1079,F#2,73.5,0.0,85,88.0
1080,E-5,73.5,0.5,80,88.0
1081,E-5,73.5,0.5,80,88.0
1082,G#2,73.5,0.5,80,88.0
1083,E-4,73.542,0.094,56,88.0
1084,G#3,73.542,0.094,56,88.0
1085,C4,73.542,0.094,56,88.0
1086,F#2,73.75,0.0,68,88.0
1087,F4,73.75,0.75,88,88.0
1088,B1,74.0,0.0,108,88.0
1089,F#2,74.0,0.0,108,88.0
1090,G#3,74.0,167/1000,51,88.0
1091,F5,74.0,0.5,76,88.0
1092,F5,74.0,0.5,76,88.0
1093,G4,74.0,1.875,72,88.0
1094,C5,74.0,1.875,72,88.0
1095,B-4,74.0,1.875,72,88.0
1096,G#2,74.0,1.875,72,88.0
1097,G3,74.062,0.094,62,88.0
1098,G#3,74.49,73/500,79,88.0
1099,B1,74.5,0.0,85,88.0
1100,F#2,74.5,0.0,85,88.0
1101,E-4,74.5,0.5,80,88.0
1102,E-5,74.5,0.5,80,88.0
1103,E-5,74.5,0.5,80,88.0
1104,G#3,74.958,13/125,54,88.0
1105,E-4,74.958,13/125,54,88.0
1106,C4,74.958,13/125,54,88.0
1107,F#2,75.0,0.0,102,88.0
1108,C#2,75.0,0.0,102,88.0
1109,G#3,75.0,1.0,81,88.0
1110,F4,75.0,0.5,80,88.0
1111,F5,75.0,0.5,80,88.0
1112,F5,75.0,0.5,80,88.0
1113,G#3,75.479,0.188,46,88.0
1114,G#2,75.49,77/200,85,88.0
1115,B1,75.5,0.0,85,88.0
1116,F#2,75.5,0.0,85,88.0
1117,E-4,75.5,0.5,80,88.0
1118,E-5,75.5,0.5,80,88.0
1119,E-5,75.5,0.5,80,88.0
1120,G3,75.542,83/1000,39,88.0
1121,B-2,75.75,0.0,91,88.0
1122,B1,76.0,0.0,108,88.0
1123,F#2,76.0,0.0,108,88.0
1124,D4,76.0,1.0,88,88.0
1125,G2,76.0,1.875,88,88.0
1126,G1,76.0,2.0,76,88.0
1127,C4,76.0,2.0,76,88.0
1128,F4,76.0,2.0,76,88.0
1129,F4,76.0,2.0,76,88.0
1130,A4,76.0,2.0,76,88.0
1131,C5,76.0,2.0,76,88.0
1132,D5,76.0,2.0,76,88.0
1133,F4,76.0,2.0,76,88.0
1134,A4,76.0,2.0,76,88.0
1135,C5,76.0,2.0,76,88.0
1136,D5,76.0,2.0,76,88.0
1137,D4,76.0,0.375,57,88.0
1138,C4,76.0,0.375,57,88.0
1139,A3,76.0,0.375,57,88.0
1140,F#2,76.5,0.0,79,88.0
1141,F#2,77.0,0.0,102,88.0
1142,C#2,77.0,0.0,102,88.0
1143,C4,77.01,151/500,63,88.0
1144,D4,77.01,151/500,63,88.0
1145,F3,77.01,151/500,63,88.0
1146,A3,77.01,151/500,63,88.0
1147,B1,77.5,0.0,85,88.0
1148,F#2,77.5,0.0,85,88.0
1149,B1,78.0,0.0,108,88.0
1150,F#2,78.0,0.0,108,88.0
1151,G2,78.0,479/500,78,88.0
1152,A3,78.0,479/500,78,88.0
1153,F4,78.0,479/500,78,88.0
1154,C4,78.0,479/500,78,88.0
1155,F4,78.0,479/500,78,88.0
1156,A4,78.0,479/500,78,88.0
1157,C5,78.0,479/500,78,88.0
1158,F4,78.0,479/500,78,88.0
1159,A4,78.0,479/500,78,88.0
1160,C5,78.0,479/500,78,88.0
1161,G3,78.0,479/500,78,88.0
1162,C4,78.0,573/1000,60,88.0
1163,F3,78.0,573/1000,60,88.0
1164,F#2,78.5,0.0,79,88.0
1165,F#2,79.0,0.0,102,88.0
1166,C#2,79.0,0.0,102,88.0
1167,B3,79.0,479/500,78,88.0
1168,G4,79.0,479/500,78,88.0
1169,D4,79.0,479/500,78,88.0
1170,G4,79.0,479/500,78,88.0
1171,B4,79.0,479/500,78,88.0
1172,D5,79.0,479/500,78,88.0
1173,G4,79.0,479/500,78,88.0
1174,B4,79.0,479/500,78,88.0
1175,D5,79.0,479/500,78,88.0
1176,G2,79.0,479/500,78,88.0
1177,G2,79.0,479/500,78,88.0
1178,D4,79.0,573/1000,60,88.0
1179,G3,79.0,573/1000,60,88.0
1180,B1,79.5,0.0,85,88.0
1181,F#2,79.5,0.0,85,88.0
1182,B1,80.0,0.0,106,88.0
1183,F#2,80.0,0.0,106,88.0
1184,C#3,80.0,0.0,106,88.0
1185,C2,80.0,3.406,99,88.0
1186,G3,80.0,1229/500,54,88.0
1187,C4,80.0,3.0,88,88.0
1188,C3,80.0,479/500,88,88.0
1189,B-3,80.0,4.0,56,88.0
1190,E-4,80.0,4.0,56,88.0
1191,C4,80.0,4.0,56,88.0
1192,E-4,80.0,1.5,78,88.0
1193,G4,80.0,1.5,78,88.0
1194,B-4,80.0,1.5,78,88.0
1195,E-5,80.0,1.5,78,88.0
1196,G4,80.0,1.5,78,88.0
1197,B-4,80.0,1.5,78,88.0
1198,E-5,80.0,1.5,78,88.0
1199,B-3,80.042,271/500,68,88.0
1200,C4,80.042,271/500,68,88.0
1201,G3,80.042,271/500,68,88.0
1202,E-3,80.042,271/500,68,88.0
1203,F#2,80.5,0.0,79,88.0
1204,F#2,81.0,0.0,102,88.0
1205,C#2,81.0,0.0,102,88.0
1206,B-3,81.042,0.312,70,88.0
1207,C4,81.042,0.312,70,88.0
1208,E-3,81.042,0.312,70,88.0
1209,G3,81.073,0.125,66,88.0
1210,B1,81.5,0.0,85,88.0
1211,F#2,81.5,0.0,85,88.0
1212,D4,81.5,0.25,80,88.0
1213,D5,81.5,0.25,80,88.0
1214,D5,81.5,0.25,80,88.0
1215,E-3,81.573,0.094,36,88.0
1216,G3,81.573,0.094,36,88.0
1217,C4,81.75,199/100,88,88.0
1218,G4,81.75,1.75,76,88.0
1219,B-4,81.75,1.75,76,88.0
1220,C5,81.75,1.75,76,88.0
1221,G4,81.75,1.75,76,88.0
1222,B-4,81.75,1.75,76,88.0
1223,C5,81.75,1.75,76,88.0
1224,C4,81.99,73/500,52,88.0
1225,E-3,81.99,73/500,52,88.0
1226,B-3,81.99,73/500,52,88.0
1227,B1,82.0,0.0,108,88.0
1228,F#2,82.0,0.0,108,88.0
1229,C3,82.0,479/500,88,88.0
1230,G3,82.042,83/1000,51,88.0
1231,F#2,82.5,0.0,79,88.0
1232,C4,82.5,0.656,68,88.0
1233,B-3,82.5,0.656,68,88.0
1234,E-3,82.5,0.656,68,88.0
1235,G3,82.51,521/1000,69,88.0
1236,F#2,83.0,0.0,102,88.0
1237,C#2,83.0,0.0,102,88.0
1238,G3,83.0,479/500,84,88.0
1239,G2,83.0,479/500,84,88.0
1240,C2,83.49,77/200,85,88.0
1241,B1,83.5,0.0,85,88.0
1242,F#2,83.5,0.0,85,88.0
1243,C4,83.5,0.5,88,88.0
1244,C5,83.5,0.25,76,88.0
1245,C5,83.5,0.25,76,88.0
1246,G3,83.542,83/1000,42,88.0
1247,E-3,83.542,83/1000,42,88.0
1248,D4,83.75,0.25,80,88.0
1249,D5,83.75,0.25,80,88.0
1250,D5,83.75,0.25,80,88.0
1251,B1,84.0,0.0,108,88.0
1252,F#2,84.0,0.0,108,88.0
1253,F2,84.0,479/500,88,88.0
1254,F1,84.0,2.0,72,88.0
1255,G4,84.0,2.0,72,88.0
1256,E-4,84.0,2.0,72,88.0
1257,G#3,84.0,2.0,72,88.0
1258,C4,84.0,0.375,68,88.0
1259,G#3,84.0,0.375,68,88.0
1260,E-3,84.0,0.375,68,88.0
1261,F3,84.0,0.375,68,88.0
1262,E-4,84.0,0.5,80,88.0
1263,E-5,84.0,0.5,80,88.0
1264,E-5,84.0,0.5,80,88.0
1265,G4,84.0,1917/1000,66,88.0
1266,G#4,84.0,1917/1000,66,88.0
1267,C5,84.0,1917/1000,66,88.0
1268,F#2,84.5,0.0,79,88.0
1269,E-4,84.5,0.5,80,88.0
1270,E-5,84.5,0.5,80,88.0
1271,E-5,84.5,0.5,80,88.0
1272,E-3,84.594,0.094,38,88.0
1273,F#2,85.0,0.0,102,88.0
1274,C#2,85.0,0.0,102,88.0
1275,C4,85.0,1.0,53,88.0
1276,E-4,85.0,0.5,80,88.0
1277,E-5,85.0,0.5,80,88.0
1278,E-5,85.0,0.5,80,88.0
1279,G#3,85.01,151/500,80,88.0
1280,C4,85.01,151/500,80,88.0
1281,E-3,85.01,151/500,80,88.0
1282,F3,85.01,151/500,80,88.0
1283,B1,85.5,0.0,85,88.0
1284,F#2,85.5,0.0,85,88.0
1285,F3,85.5,0.25,40,88.0
1286,E-3,85.5,0.25,40,88.0
1287,E-4,85.5,0.25,40,88.0
1288,E-5,85.5,0.5,80,88.0
1289,E-5,85.5,0.5,80,88.0
1290,F2,85.5,0.5,80,88.0
1291,E-4,85.75,0.75,88,88.0
1292,B1,86.0,0.0,108,88.0
1293,F#2,86.0,0.0,108,88.0
1294,G#4,86.0,1917/1000,66,88.0
1295,B-1,86.0,479/500,79,88.0
1296,C4,86.0,479/500,79,88.0
1297,G#4,86.0,479/500,79,88.0
1298,B-2,86.0,479/500,79,88.0
1299,G#4,86.0,0.375,68,88.0
1300,E-4,86.0,0.375,68,88.0
1301,G#3,86.0,0.375,68,88.0
1302,C4,86.0,0.375,68,88.0
1303,C5,86.0,0.5,76,88.0
1304,E-5,86.0,0.5,76,88.0
1305,C5,86.0,0.5,76,88.0
1306,E-5,86.0,0.5,76,88.0
1307,F#2,86.5,0.0,79,88.0
1308,F4,86.5,0.5,80,88.0
1309,F5,86.5,0.5,80,88.0
1310,F5,86.5,0.5,80,88.0
1311,G#3,86.594,0.094,38,88.0
1312,F#2,87.0,0.0,102,88.0
1313,C#2,87.0,0.0,102,88.0
1314,G#3,87.0,479/500,85,88.0
1315,F2,87.0,479/500,85,88.0
1316,F2,87.0,479/500,85,88.0
1317,F4,87.0,0.375,68,88.0
1318,C4,87.0,0.375,68,88.0
1319,F3,87.0,0.375,68,88.0
1320,G#3,87.0,0.375,68,88.0
1321,D4,87.0,0.5,80,88.0
1322,D5,87.0,0.5,80,88.0
1323,D5,87.0,0.5,80,88.0
1324,F4,87.49,0.5,74,88.0
1325,C4,87.49,0.5,74,88.0
1326,C5,87.49,0.5,74,88.0
1327,C5,87.49,0.5,74,88.0
1328,B1,87.5,0.0,85,88.0
1329,F#2,87.5,0.0,85,88.0
1330,F3,87.594,0.094,38,88.0
1331,B1,88.0,0.0,108,88.0
1332,F#2,88.0,0.0,108,88.0
1333,G2,88.0,3833/1000,99,88.0
1334,G3,88.0,1073/500,54,88.0
1335,D4,88.0,2833/1000,52,88.0
1336,B-3,88.0,2.5,63,88.0
1337,F4,88.0,3417/1000,59,88.0
1338,G2,88.0,479/500,88,88.0
1339,B-3,88.0,323/500,65,88.0
1340,G3,88.0,323/500,65,88.0
1341,F3,88.0,323/500,65,88.0
1342,D4,88.0,1.5,78,88.0
1343,B-4,88.0,1.5,78,88.0
1344,D5,88.0,1.5,78,88.0
1345,F4,88.0,1.5,78,88.0
1346,B-4,88.0,1.5,78,88.0
1347,D5,88.0,1.5,78,88.0
1348,F4,88.0,1.5,78,88.0
1349,F#2,88.5,0.0,79,88.0
1350,F#2,89.0,0.0,102,88.0
1351,C#2,89.0,0.0,102,88.0
1352,B-3,89.031,77/200,67,88.0
1353,B1,89.5,0.0,85,88.0
1354,F#2,89.5,0.0,85,88.0
1355,C4,89.5,0.156,73,88.0
1356,C5,89.5,0.156,73,88.0
1357,C5,89.5,0.156,73,88.0
1358,F3,89.5,0.156,73,88.0
1359,B-3,89.75,1.25,88,88.0
1360,F4,89.75,1073/500,66,88.0
1361,B-4,89.75,1.75,76,88.0
1362,B-4,89.75,1.75,76,88.0
1363,B1,90.0,0.0,108,88.0
1364,F#2,90.0,0.0,108,88.0
1365,G2,90.0,479/500,88,88.0
1366,B-3,90.021,13/50,54,88.0
1367,G3,90.021,13/50,54,88.0
1368,F#2,90.5,0.0,79,88.0
1369,G3,90.5,917/1000,52,88.0
1370,B-3,90.51,349/500,61,88.0
1371,F#2,91.0,0.0,102,88.0
1372,C#2,91.0,0.0,102,88.0
1373,B-3,91.0,417/1000,65,88.0
1374,G2,91.0,479/500,88,88.0
1375,B1,91.5,0.0,85,88.0
1376,F#2,91.5,0.0,85,88.0
1377,G3,91.5,0.5,71,88.0
1378,D4,91.5,167/1000,66,88.0
1379,B-3,91.5,0.25,80,88.0
1380,B-4,91.5,0.25,80,88.0
1381,B-4,91.5,0.25,80,88.0
1382,C4,91.75,0.25,80,88.0
1383,C5,91.75,0.25,80,88.0
1384,C5,91.75,0.25,80,88.0
1385,B1,92.0,0.0,108,88.0
1386,F#2,92.0,0.0,108,88.0
1387,E-1,92.0,2.0,92,88.0
1388,E-2,92.0,479/500,88,88.0
1389,G3,92.0,1979/1000,71,88.0
1390,B-3,92.0,0.375,57,88.0
1391,G3,92.0,0.375,57,88.0
1392,E-3,92.0,0.375,57,88.0
1393,D4,92.0,0.5,80,88.0
1394,D5,92.0,0.5,80,88.0
1395,D5,92.0,0.5,80,88.0
1396,F4,92.0,1917/1000,66,88.0
1397,G4,92.0,1917/1000,66,88.0
1398,B-4,92.0,1917/1000,66,88.0
1399,F#2,92.5,0.0,79,88.0
1400,D4,92.5,0.5,80,88.0
1401,D5,92.5,0.5,80,88.0
1402,D5,92.5,0.5,80,88.0
1403,F#2,93.0,0.0,102,88.0
1404,C#2,93.0,0.0,102,88.0
1405,D4,93.0,0.5,80,88.0
1406,D5,93.0,0.5,80,88.0
1407,D5,93.0,0.5,80,88.0
1408,G3,93.01,151/500,63,88.0
1409,B-3,93.01,151/500,63,88.0
1410,D3,93.01,151/500,63,88.0
1411,E-3,93.01,151/500,63,88.0
1412,B1,93.5,0.0,85,88.0
1413,F#2,93.5,0.0,85,88.0
1414,D4,93.5,0.5,82,88.0
1415,D5,93.5,0.5,82,88.0
1416,D5,93.5,0.5,82,88.0
1417,B-2,93.5,0.5,82,88.0
1418,B1,94.0,0.0,108,88.0
1419,F#2,94.0,0.0,108,88.0
1420,G2,94.0,479/500,88,88.0
1421,G1,94.0,2.0,72,88.0
1422,G#4,94.0,2.0,72,88.0
1423,F4,94.0,2.0,72,88.0
1424,B3,94.0,2.0,72,88.0
1425,D4,94.0,0.375,57,88.0
1426,B3,94.0,0.375,57,88.0
1427,G#3,94.0,0.375,57,88.0
1428,D4,94.0,0.5,80,88.0
1429,D5,94.0,0.5,80,88.0
1430,D5,94.0,0.5,80,88.0
1431,F4,94.0,1.438,66,88.0
1432,A4,94.0,1.438,66,88.0
1433,B-4,94.0,1.438,66,88.0
1434,F#2,94.5,0.0,79,88.0
1435,E-4,94.5,0.5,80,88.0
1436,E-5,94.5,0.5,80,88.0
1437,E-5,94.5,0.5,80,88.0
1438,F#2,95.0,0.0,102,88.0
1439,C#2,95.0,0.0,102,88.0
1440,D4,95.0,479/500,70,88.0
1441,G2,95.0,479/500,70,88.0
1442,D4,95.0,0.5,80,88.0
1443,D5,95.0,0.5,80,88.0
1444,D5,95.0,0.5,80,88.0
1445,B3,95.01,151/500,63,88.0
1446,D4,95.01,151/500,63,88.0
1447,F3,95.01,151/500,63,88.0
1448,G#3,95.01,151/500,63,88.0
1449,B1,95.5,0.0,85,88.0
1450,F#2,95.5,0.0,85,88.0
1451,C4,95.5,0.5,76,88.0
1452,C5,95.5,0.5,76,88.0
1453,C5,95.5,0.5,76,88.0
1454,C5,95.5,0.5,76,88.0
1455,B1,96.0,0.0,108,88.0
1456,F#2,96.0,0.0,108,88.0
1457,G3,96.0,1073/500,54,88.0
1458,C4,96.0,2833/1000,52,88.0
1459,B-3,96.0,2.5,63,88.0
1460,G3,96.0,271/500,84,88.0
1461,C3,96.0,479/500,88,88.0
1462,C2,96.0,3417/1000,84,88.0
1463,E-4,96.0,3417/1000,84,88.0
1464,C4,96.0,427/1000,70,88.0
1465,B-3,96.0,427/1000,70,88.0
1466,E-3,96.0,427/1000,70,88.0
1467,E-4,96.0,1.5,78,88.0
1468,G4,96.0,1.5,78,88.0
1469,B-4,96.0,1.5,78,88.0
1470,E-5,96.0,1.5,78,88.0
1471,G4,96.0,1.5,78,88.0
1472,B-4,96.0,1.5,78,88.0
1473,E-5,96.0,1.5,78,88.0
1474,F#2,96.5,0.0,79,88.0
1475,F#2,97.0,0.0,102,88.0
1476,C#2,97.0,0.0,102,88.0
1477,G3,97.01,13/125,54,88.0
1478,B-3,97.01,13/125,54,88.0
1479,C4,97.01,13/125,54,88.0
1480,B1,97.5,0.0,85,88.0
1481,F#2,97.5,0.0,85,88.0
1482,D4,97.5,0.25,80,88.0
1483,D5,97.5,0.25,80,88.0
1484,D5,97.5,0.25,80,88.0
1485,C4,97.542,0.094,56,88.0
1486,G3,97.542,0.094,56,88.0
1487,B-3,97.542,0.094,56,88.0
1488,C4,97.75,1.25,88,88.0
1489,B-4,97.75,1.75,76,88.0
1490,G4,97.75,1.75,76,88.0
1491,C5,97.75,1.75,76,88.0
1492,B-4,97.75,1.75,76,88.0
1493,G4,97.75,1.75,76,88.0
1494,C5,97.75,1.75,76,88.0
1495,B1,98.0,0.0,108,88.0
1496,F#2,98.0,0.0,108,88.0
1497,G3,98.0,167/1000,51,88.0
1498,C3,98.0,479/500,88,88.0
1499,E-3,98.062,0.094,62,88.0
1500,G3,98.49,73/500,79,88.0
1501,F#2,98.5,0.0,79,88.0
1502,G3,98.5,917/1000,52,88.0
1503,G3,98.958,13/125,54,88.0
1504,C4,98.958,13/125,54,88.0
1505,B-3,98.958,13/125,54,88.0
1506,F#2,99.0,0.0,102,88.0
1507,C#2,99.0,0.0,102,88.0
1508,B-3,99.0,417/1000,65,88.0
1509,G2,99.0,479/500,88,88.0
1510,C2,99.469,0.25,79,88.0
1511,C4,99.469,0.25,79,88.0
1512,C5,99.469,0.25,79,88.0
1513,C5,99.469,0.25,79,88.0
1514,G3,99.479,0.188,46,88.0
1515,B1,99.5,0.0,85,88.0
1516,F#2,99.5,0.0,85,88.0
1517,G4,99.5,0.5,65,88.0
1518,E-4,99.5,0.5,65,88.0
1519,G#3,99.5,0.5,65,88.0
1520,E-3,99.542,83/1000,39,88.0
1521,D4,99.75,0.25,80,88.0
1522,D5,99.75,0.25,80,88.0
1523,D5,99.75,0.25,80,88.0
1524,B1,100.0,0.0,108,88.0
1525,F#2,100.0,0.0,108,88.0
1526,F2,100.0,1.75,92,88.0
1527,F2,100.0,479/500,88,88.0
1528,F3,100.0,1.125,53,88.0
1529,E-3,100.0,1.125,53,88.0
1530,E-4,100.0,0.5,80,88.0
1531,E-5,100.0,0.5,80,88.0
1532,E-5,100.0,0.5,80,88.0
1533,G4,100.0,1917/1000,66,88.0
1534,G#4,100.0,1917/1000,66,88.0
1535,C5,100.0,1917/1000,66,88.0
1536,G4,100.0,1979/1000,65,88.0
1537,E-4,100.0,1979/1000,65,88.0
1538,G#3,100.0,1979/1000,65,88.0
1539,F#2,100.5,0.0,79,88.0
1540,E-4,100.5,0.5,80,88.0
1541,E-5,100.5,0.5,80,88.0
1542,E-5,100.5,0.5,80,88.0
1543,C4,100.51,0.719,68,88.0
1544,G#3,100.51,0.719,68,88.0
1545,F#2,101.0,0.0,102,88.0
1546,C#2,101.0,0.0,102,88.0
1547,C4,101.0,1.0,53,88.0
1548,E-4,101.0,0.5,80,88.0
1549,E-5,101.0,0.5,80,88.0
1550,E-5,101.0,0.5,80,88.0
1551,B1,101.5,0.0,85,88.0
1552,F#2,101.5,0.0,85,88.0
1553,E-4,101.5,0.25,88,88.0
1554,G#4,101.5,427/500,68,88.0
1555,E-4,101.5,427/500,68,88.0
1556,G#3,101.5,427/500,68,88.0
1557,C4,101.5,427/500,68,88.0
1558,E-5,101.5,0.5,80,88.0
1559,E-5,101.5,0.5,80,88.0
1560,F2,101.5,0.5,80,88.0
1561,E-4,101.75,0.75,88,88.0
1562,B1,102.0,0.0,108,88.0
1563,F#2,102.0,0.0,108,88.0
1564,G#4,102.0,1917/1000,66,88.0
1565,B-1,102.0,479/500,79,88.0
1566,C4,102.0,479/500,79,88.0
1567,G#4,102.0,479/500,79,88.0
1568,B-2,102.0,479/500,79,88.0
1569,E-5,102.0,0.5,76,88.0
1570,E-5,102.0,0.5,76,88.0
1571,F#2,102.5,0.0,79,88.0
1572,F4,102.5,0.5,80,88.0
1573,F5,102.5,0.5,80,88.0
1574,F5,102.5,0.5,80,88.0
1575,G#3,102.594,0.094,38,88.0
1576,F#2,103.0,0.0,102,88.0
1577,C#2,103.0,0.0,102,88.0
1578,F2,103.0,479/500,79,88.0
1579,G#3,103.0,479/500,79,88.0
1580,F4,103.0,479/500,79,88.0
1581,F2,103.0,479/500,79,88.0
1582,F4,103.0,0.375,68,88.0
1583,C4,103.0,0.375,68,88.0
1584,F3,103.0,0.375,68,88.0
1585,G#3,103.0,0.375,68,88.0
1586,D4,103.0,0.5,80,88.0
1587,D5,103.0,0.5,80,88.0
1588,D5,103.0,0.5,80,88.0
1589,B1,103.5,0.0,85,88.0
1590,F#2,103.5,0.0,85,88.0
1591,C4,103.5,0.5,80,88.0
1592,C5,103.5,0.5,80,88.0
1593,C5,103.5,0.5,80,88.0
1594,F3,103.594,0.094,38,88.0
1595,B1,104.0,0.0,108,88.0
1596,F#2,104.0,0.0,108,88.0
1597,G3,104.0,1229/500,54,88.0
1598,G3,104.0,271/500,84,88.0
1599,G2,104.0,479/500,88,88.0
1600,B-3,104.0,4.0,56,88.0
1601,F4,104.0,4.0,56,88.0
1602,D4,104.0,4.0,56,88.0
1603,D4,104.0,427/1000,70,88.0
1604,B-3,104.0,427/1000,70,88.0
1605,F3,104.0,427/1000,70,88.0
1606,D4,104.0,1.5,78,88.0
1607,F4,104.0,1.5,78,88.0
1608,B-4,104.0,1.5,78,88.0
1609,D5,104.0,1.5,78,88.0
1610,F4,104.0,1.5,78,88.0
1611,B-4,104.0,1.5,78,88.0
1612,D5,104.0,1.5,78,88.0
1613,G2,104.042,3427/1000,91,88.0
1614,F#2,104.5,0.0,79,88.0
1615,F#2,105.0,0.0,102,88.0
1616,C#2,105.0,0.0,102,88.0
1617,G3,105.01,13/125,54,88.0
1618,B-3,105.01,13/125,54,88.0
1619,D4,105.01,13/125,54,88.0
1620,B1,105.5,0.0,85,88.0
1621,F#2,105.5,0.0,85,88.0
1622,C4,105.5,0.5,78,88.0
1623,G#4,105.5,0.5,78,88.0
1624,C5,105.5,0.5,78,88.0
1625,G#4,105.5,0.5,78,88.0
1626,C5,105.5,0.5,78,88.0
1627,D4,105.542,0.094,56,88.0
1628,G3,105.542,0.094,56,88.0
1629,B-3,105.542,0.094,56,88.0
1630,B1,106.0,0.0,108,88.0
1631,F#2,106.0,0.0,108,88.0
1632,G3,106.0,167/1000,51,88.0
1633,B-3,106.0,479/500,88,88.0
1634,G2,106.0,479/500,88,88.0
1635,F4,106.0,1.5,76,88.0
1636,B-4,106.0,1.5,76,88.0
1637,F4,106.0,1.5,76,88.0
1638,B-4,106.0,1.5,76,88.0
1639,F3,106.062,0.094,62,88.0
1640,G3,106.49,73/500,79,88.0
1641,F#2,106.5,0.0,79,88.0
1642,G3,106.958,13/125,54,88.0
1643,D4,106.958,13/125,54,88.0
1644,B-3,106.958,13/125,54,88.0
1645,F#2,107.0,0.0,102,88.0
1646,C#2,107.0,0.0,102,88.0
1647,G3,107.0,479/500,84,88.0
1648,G2,107.0,479/500,84,88.0
1649,G3,107.479,0.188,46,88.0
1650,B1,107.5,0.0,85,88.0
1651,F#2,107.5,0.0,85,88.0
1652,B-3,107.5,0.25,80,88.0
1653,B-4,107.5,0.25,80,88.0
1654,B-4,107.5,0.25,80,88.0
1655,F3,107.542,83/1000,39,88.0
1656,G2,107.583,417/1000,94,88.0
1657,C4,107.75,0.25,80,88.0
1658,C5,107.75,0.25,80,88.0
1659,C5,107.75,0.25,80,88.0
1660,B1,108.0,0.0,108,88.0
1661,F#2,108.0,0.0,108,88.0
1662,D2,108.0,1271/1000,97,88.0
1663,C4,108.0,99/125,62,88.0
1664,F4,108.0,73/500,36,88.0
1665,A4,108.0,2.0,56,88.0
1666,D4,108.0,2.0,56,88.0
1667,D4,108.0,0.375,57,88.0
1668,C4,108.0,0.375,57,88.0
1669,A3,108.0,0.375,57,88.0
1670,D4,108.0,0.5,80,88.0
1671,D5,108.0,0.5,80,88.0
1672,D5,108.0,0.5,80,88.0
1673,F4,108.0,1.875,73,88.0
1674,A4,108.0,1.875,73,88.0
1675,D3,108.0,1.875,73,88.0
1676,F#2,108.5,0.0,79,88.0
1677,D4,108.5,0.5,80,88.0
1678,D5,108.5,0.5,80,88.0
1679,D5,108.5,0.5,80,88.0
1680,F#2,109.0,0.0,102,88.0
1681,C#2,109.0,0.0,102,88.0
1682,C4,109.0,1.0,68,88.0
1683,D4,109.0,0.5,80,88.0
1684,D5,109.0,0.5,80,88.0
1685,D5,109.0,0.5,80,88.0
1686,C4,109.01,151/500,63,88.0
1687,D4,109.01,151/500,63,88.0
1688,F3,109.01,151/500,63,88.0
1689,A3,109.01,151/500,63,88.0
1690,B1,109.5,0.0,85,88.0
1691,F#2,109.5,0.0,85,88.0
1692,F4,109.5,49/100,76,88.0
1693,D4,109.5,49/100,76,88.0
1694,D5,109.5,49/100,76,88.0
1695,D5,109.5,49/100,76,88.0
1696,D2,109.5,49/100,76,88.0
1697,B1,110.0,0.0,108,88.0
1698,F#2,110.0,0.0,108,88.0
1699,G2,110.0,1.75,92,88.0
1700,G#4,110.0,2.0,65,88.0
1701,F4,110.0,2.0,65,88.0
1702,B3,110.0,2.0,65,88.0
1703,D4,110.0,0.375,68,88.0
1704,B3,110.0,0.375,68,88.0
1705,F3,110.0,0.375,68,88.0
1706,G#3,110.0,0.375,68,88.0
1707,D4,110.0,0.5,78,88.0
1708,B4,110.0,0.5,78,88.0
1709,D5,110.0,0.5,78,88.0
1710,B4,110.0,0.5,78,88.0
1711,D5,110.0,0.5,78,88.0
1712,F4,110.0,1.875,77,88.0
1713,G2,110.0,1.875,77,88.0
1714,F#2,110.5,0.0,79,88.0
1715,E-4,110.5,0.5,78,88.0
1716,C5,110.5,0.5,78,88.0
1717,E-5,110.5,0.5,78,88.0
1718,C5,110.5,0.5,78,88.0
1719,E-5,110.5,0.5,78,88.0
1720,F3,110.594,0.094,38,88.0
1721,F#2,111.0,0.0,102,88.0
1722,C#2,111.0,0.0,102,88.0
1723,D4,111.0,1.0,53,88.0
1724,D4,111.0,0.281,76,88.0
1725,B4,111.0,0.281,76,88.0
1726,D5,111.0,0.281,76,88.0
1727,B4,111.0,0.281,76,88.0
1728,D5,111.0,0.281,76,88.0
1729,F3,111.0,0.281,76,88.0
1730,B3,111.01,151/500,80,88.0
1731,D4,111.01,151/500,80,88.0
1732,F3,111.01,151/500,80,88.0
1733,G#3,111.01,151/500,80,88.0
1734,C4,111.25,0.75,80,88.0
1735,C5,111.25,0.75,80,88.0
1736,C5,111.25,0.75,80,88.0
1737,B1,111.5,0.0,85,88.0
1738,F#2,111.5,0.0,85,88.0
1739,G#3,111.5,0.188,16,88.0
1740,F3,111.5,0.188,16,88.0
1741,B1,112.0,0.0,108,88.0
1742,F#2,112.0,0.0,108,88.0
1743,G3,112.0,1229/500,54,88.0
1744,E-3,112.0,223/200,81,88.0
1745,C4,112.0,3.0,88,88.0
1746,C3,112.0,3.719,88,88.0
1747,C4,112.0,4.0,56,88.0
1748,G4,112.0,4.0,56,88.0
1749,E-4,112.0,4.0,56,88.0
1750,C5,112.0,2.0,76,88.0
1751,C5,112.0,2.0,76,88.0
1752,E-4,112.0,474/125,66,88.0
1753,G4,112.0,474/125,66,88.0
1754,G3,112.021,151/250,70,88.0
1755,C2,112.042,3427/1000,91,88.0
1756,F#2,112.5,0.0,79,88.0
1757,C4,112.958,26/125,73,88.0
1758,E-4,112.958,26/125,73,88.0
1759,G3,112.958,26/125,73,88.0
1760,F#2,113.0,0.0,102,88.0
1761,C#2,113.0,0.0,102,88.0
1762,C4,113.458,333/1000,91,88.0
1763,B1,113.5,0.0,85,88.0
1764,F#2,113.5,0.0,85,88.0
1765,G3,113.542,73/500,27,88.0
1766,E-3,113.99,417/1000,39,88.0
1767,B1,114.0,0.0,108,88.0
1768,F#2,114.0,0.0,108,88.0
1769,D5,114.0,2.0,76,88.0
1770,D5,114.0,2.0,76,88.0
1771,E-4,114.469,73/200,77,88.0
1772,C4,114.469,73/200,77,88.0
1773,B1,114.5,0.0,85,88.0
1774,F#2,114.5,0.0,85,88.0
1775,F#2,115.0,0.0,102,88.0
1776,C#2,115.0,0.0,102,88.0
1777,G3,115.0,1.0,81,88.0
1778,G3,115.0,0.219,57,88.0
1779,B1,115.5,0.0,85,88.0
1780,F#2,115.5,0.0,85,88.0
1781,G3,115.521,177/1000,49,88.0
1782,C2,115.583,417/1000,94,88.0
1783,B-2,115.75,0.0,91,88.0
1784,B1,116.0,0.0,108,88.0
1785,F#2,116.0,0.0,108,88.0
1786,B-1,116.0,1.75,92,88.0
1787,B-2,116.0,3.719,88,88.0
1788,G3,116.0,2.0,68,88.0
1789,E-4,116.0,2.0,68,88.0
1790,G3,116.0,1.125,53,88.0
1791,E-3,116.0,1.125,53,88.0
1792,B-4,116.0,1.5,76,88.0
1793,G4,116.0,1.5,76,88.0
1794,C5,116.0,1.5,76,88.0
1795,E-5,116.0,1.5,76,88.0
1796,B-4,116.0,1.5,76,88.0
1797,G4,116.0,1.5,76,88.0
1798,C5,116.0,1.5,76,88.0
1799,E-5,116.0,1.5,76,88.0
1800,F#2,116.5,0.0,79,88.0
1801,E-4,116.51,0.719,68,88.0
1802,C4,116.51,0.719,68,88.0
1803,F#2,117.0,0.0,102,88.0
1804,C#2,117.0,0.0,102,88.0
1805,B1,117.5,0.0,85,88.0
1806,F#2,117.5,0.0,85,88.0
1807,G4,117.5,0.5,76,88.0
1808,G4,117.5,0.5,76,88.0
1809,G3,117.521,0.25,60,88.0
1810,E-3,117.521,0.25,60,88.0
1811,B1,118.0,0.0,108,88.0
1812,F#2,118.0,0.0,108,88.0
1813,B-1,118.0,1271/1000,97,88.0
1814,F3,118.0,99/125,62,88.0
1815,D4,118.0,73/500,36,88.0
1816,C5,118.0,1917/1000,66,88.0
1817,F4,118.0,2.0,56,88.0
1818,B-3,118.0,2.0,56,88.0
1819,F3,118.0,1.125,53,88.0
1820,D3,118.0,1.125,53,88.0
1821,B-4,118.0,0.5,76,88.0
1822,B-4,118.0,0.5,76,88.0
1823,F#2,118.5,0.0,79,88.0
1824,F4,118.5,0.5,76,88.0
1825,F4,118.5,0.5,76,88.0
1826,D4,118.51,0.719,68,88.0
1827,B-3,118.51,0.719,68,88.0
1828,F#2,119.0,0.0,102,88.0
1829,C#2,119.0,0.0,102,88.0
1830,F3,119.0,1.0,73,88.0
1831,D4,119.0,1.0,73,88.0
1832,D4,119.0,1.0,73,88.0
1833,B1,119.5,0.0,85,88.0
1834,F#2,119.5,0.0,85,88.0
1835,D4,119.5,49/100,71,88.0
1836,B-1,119.5,49/100,71,88.0
1837,F3,119.521,0.25,60,88.0
1838,D3,119.521,0.25,60,88.0
1839,B1,120.0,0.0,108,88.0
1840,F#2,120.0,0.0,108,88.0
1841,A1,120.0,1271/1000,97,88.0
1842,E4,120.0,2.0,65,88.0
1843,C4,120.0,2.0,65,88.0
1844,G3,120.0,2.0,65,88.0
1845,A3,120.0,0.375,68,88.0
1846,G3,120.0,0.375,68,88.0
1847,C3,120.0,0.375,68,88.0
1848,E3,120.0,0.375,68,88.0
1849,E4,120.0,0.5,78,88.0
1850,C5,120.0,0.5,78,88.0
1851,E5,120.0,0.5,78,88.0
1852,C5,120.0,0.5,78,88.0
1853,E5,120.0,0.5,78,88.0
1854,G4,120.0,1417/1000,77,88.0
1855,A2,120.0,1417/1000,77,88.0
1856,F#2,120.5,0.0,79,88.0
1857,D4,120.5,0.5,80,88.0
1858,D5,120.5,0.5,80,88.0
1859,D5,120.5,0.5,80,88.0
1860,C3,120.594,0.094,38,88.0
1861,F#2,121.0,0.0,102,88.0
1862,C#2,121.0,0.0,102,88.0
1863,A3,121.0,1.0,53,88.0
1864,D4,121.0,0.5,80,88.0
1865,D5,121.0,0.5,80,88.0
1866,D5,121.0,0.5,80,88.0
1867,G3,121.01,151/500,80,88.0
1868,A3,121.01,151/500,80,88.0
1869,C3,121.01,151/500,80,88.0
1870,E3,121.01,151/500,80,88.0
1871,B1,121.5,0.0,85,88.0
1872,F#2,121.5,0.0,85,88.0
1873,F#4,121.5,2.375,66,88.0
1874,E3,121.5,0.25,40,88.0
1875,C3,121.5,0.25,40,88.0
1876,C4,121.5,0.25,40,88.0
1877,A4,121.5,49/100,80,88.0
1878,A4,121.5,49/100,80,88.0
1879,A1,121.5,49/100,80,88.0
1880,D5,121.5,479/500,80,88.0
1881,D5,121.5,479/500,80,88.0
1882,A2,121.5,479/500,80,88.0
1883,C4,121.75,0.75,88,88.0
1884,B1,122.0,0.0,108,88.0
1885,F#2,122.0,0.0,108,88.0
1886,A1,122.0,1271/1000,97,88.0
1887,A3,122.0,2.0,68,88.0
1888,F#4,122.0,2.0,68,88.0
1889,F#4,122.0,0.375,57,88.0
1890,D4,122.0,0.375,57,88.0
1891,A3,122.0,0.375,57,88.0
1892,A4,122.0,0.5,76,88.0
1893,A4,122.0,0.5,76,88.0
1894,F#2,122.5,0.0,79,88.0
1895,A3,122.5,0.5,82,88.0
1896,A4,122.5,0.5,82,88.0
1897,A4,122.5,0.5,82,88.0
1898,E3,122.5,0.5,82,88.0
1899,F#2,123.0,0.0,102,88.0
1900,C#2,123.0,0.0,102,88.0
1901,A3,123.0,479/500,88,88.0
1902,C4,123.0,0.5,80,88.0
1903,C5,123.0,0.5,80,88.0
1904,C5,123.0,0.5,80,88.0
1905,D4,123.01,151/500,63,88.0
1906,F#4,123.01,151/500,63,88.0
1907,F#3,123.01,151/500,63,88.0
1908,A3,123.01,151/500,63,88.0
1909,B1,123.5,0.0,85,88.0
1910,F#2,123.5,0.0,85,88.0
1911,A3,123.5,0.5,68,88.0
1912,G3,123.5,0.5,68,88.0
1913,C3,123.5,0.5,68,88.0
1914,E3,123.5,0.5,68,88.0
1915,D4,123.5,49/100,82,88.0
1916,D5,123.5,49/100,82,88.0
1917,D5,123.5,49/100,82,88.0
1918,A1,123.5,49/100,82,88.0
1919,B1,124.0,0.0,108,88.0
1920,F#2,124.0,0.0,108,88.0
1921,E4,124.0,979/500,71,88.0
1922,C4,124.0,979/500,71,88.0
1923,G3,124.0,979/500,71,88.0
1924,A1,124.0,979/500,71,88.0
1925,E4,124.0,0.5,78,88.0
1926,C5,124.0,0.5,78,88.0
1927,E5,124.0,0.5,78,88.0
1928,C5,124.0,0.5,78,88.0
1929,E5,124.0,0.5,78,88.0
1930,G4,124.0,1417/1000,77,88.0
1931,A2,124.0,1417/1000,77,88.0
1932,A3,124.0,177/500,68,88.0
1933,G3,124.0,177/500,68,88.0
1934,C3,124.0,177/500,68,88.0
1935,E3,124.0,177/500,68,88.0
1936,F#2,124.5,0.0,79,88.0
1937,D4,124.5,0.5,80,88.0
1938,D5,124.5,0.5,80,88.0
1939,D5,124.5,0.5,80,88.0
1940,C3,124.594,0.094,38,88.0
1941,F#2,125.0,0.0,102,88.0
1942,C#2,125.0,0.0,102,88.0
1943,A3,125.0,1.0,53,88.0
1944,D4,125.0,0.5,80,88.0
1945,D5,125.0,0.5,80,88.0
1946,D5,125.0,0.5,80,88.0
1947,G3,125.01,151/500,80,88.0
1948,A3,125.01,151/500,80,88.0
1949,C3,125.01,151/500,80,88.0
1950,E3,125.01,151/500,80,88.0
1951,B1,125.5,0.0,85,88.0
1952,F#2,125.5,0.0,85,88.0
1953,F#4,125.5,2.375,66,88.0
1954,E3,125.5,0.25,40,88.0
1955,C3,125.5,0.25,40,88.0
1956,C4,125.5,0.25,40,88.0
1957,A4,125.5,479/500,78,88.0
1958,D5,125.5,479/500,78,88.0
1959,A4,125.5,479/500,78,88.0
1960,D5,125.5,479/500,78,88.0
1961,A2,125.5,479/500,78,88.0
1962,D4,125.75,0.75,88,88.0
1963,B1,126.0,0.0,108,88.0
1964,F#2,126.0,0.0,108,88.0
1965,D4,126.0,771/1000,70,88.0
1966,A3,126.0,979/500,76,88.0
1967,F#4,126.0,979/500,76,88.0
1968,A1,126.0,979/500,76,88.0
1969,F#2,126.5,0.0,79,88.0
1970,A3,126.5,0.5,82,88.0
1971,A4,126.5,0.5,82,88.0
1972,A4,126.5,0.5,82,88.0
1973,E3,126.5,0.5,82,88.0
1974,F#2,127.0,0.0,102,88.0
1975,C#2,127.0,0.0,102,88.0
1976,A3,127.0,0.406,68,88.0
1977,A2,127.0,479/500,88,88.0
1978,C4,127.0,49/100,73,88.0
1979,C5,127.0,49/100,73,88.0
1980,C5,127.0,49/100,73,88.0
1981,F#3,127.0,49/100,73,88.0
1982,B1,127.5,0.0,85,88.0
1983,F#2,127.5,0.0,85,88.0
1984,D4,127.5,0.5,80,88.0
1985,D5,127.5,0.5,80,88.0
1986,D5,127.5,0.5,80,88.0
1987,D4,127.521,6/25,49,88.0
1988,B1,128.0,0.0,108,88.0
1989,F#2,128.0,0.0,108,88.0
1990,G2,128.0,1.75,92,88.0
1991,D4,128.0,3.0,88,88.0
1992,G2,128.0,1417/1000,88,88.0
1993,A4,128.0,2.0,65,88.0
1994,F4,128.0,2.0,65,88.0
1995,A3,128.0,2.0,65,88.0
1996,F4,128.0,0.375,57,88.0
1997,C4,128.0,0.375,57,88.0
1998,A3,128.0,0.375,57,88.0
1999,D5,128.0,1.5,76,88.0
2000,C5,128.0,1.5,76,88.0
2001,A4,128.0,1.5,76,88.0
2002,F4,128.0,1.5,76,88.0
2003,D5,128.0,1.5,76,88.0
2004,C5,128.0,1.5,76,88.0
2005,A4,128.0,1.5,76,88.0
2006,F4,128.0,1.5,76,88.0
2007,F#2,128.5,0.0,79,88.0
2008,F#2,129.0,0.0,102,88.0
2009,C#2,129.0,0.0,102,88.0
2010,C4,129.0,1.0,53,88.0
2011,C4,129.01,151/500,63,88.0
2012,F4,129.01,151/500,63,88.0
2013,F3,129.01,151/500,63,88.0
2014,A3,129.01,151/500,63,88.0
2015,B1,129.5,0.0,85,88.0
2016,F#2,129.5,0.0,85,88.0
2017,G4,129.5,2.375,66,88.0
2018,G2,129.5,479/500,88,88.0
2019,B4,129.5,2.5,76,88.0
2020,D5,129.5,2.5,76,88.0
2021,B4,129.5,2.5,76,88.0
2022,D5,129.5,2.5,76,88.0
2023,B1,130.0,0.0,108,88.0
2024,F#2,130.0,0.0,108,88.0
2025,G2,130.0,1.75,92,88.0
2026,B3,130.0,1417/1000,68,88.0
2027,G4,130.0,1417/1000,68,88.0
2028,G4,130.0,0.375,68,88.0
2029,D4,130.0,0.375,68,88.0
2030,G3,130.0,0.375,68,88.0
2031,B3,130.0,0.375,68,88.0
2032,F#2,130.5,0.0,79,88.0
2033,D3,130.5,0.5,88,88.0
2034,G3,130.594,0.094,38,88.0
2035,F#2,131.0,0.0,102,88.0
2036,C#2,131.0,0.0,102,88.0
2037,G3,131.0,479/500,88,88.0
2038,D4,131.01,151/500,80,88.0
2039,G4,131.01,151/500,80,88.0
2040,G3,131.01,151/500,80,88.0
2041,B3,131.01,151/500,80,88.0
2042,B1,131.5,0.0,85,88.0
2043,F#2,131.5,0.0,85,88.0
2044,A4,131.5,0.5,65,88.0
2045,F4,131.5,0.5,65,88.0
2046,A3,131.5,0.5,65,88.0
2047,B3,131.5,0.188,16,88.0
2048,G3,131.5,0.188,16,88.0
2049,B1,132.0,0.0,108,88.0
2050,F#2,132.0,0.0,108,88.0
2051,G2,132.0,1271/1000,97,88.0
2052,G2,132.0,1417/1000,88,88.0
2053,F4,132.0,0.375,68,88.0
2054,C4,132.0,0.375,68,88.0
2055,F3,132.0,0.375,68,88.0
2056,A3,132.0,0.375,68,88.0
2057,C5,132.0,1.5,76,88.0
2058,A4,132.0,1.5,76,88.0
2059,F4,132.0,1.5,76,88.0
2060,D5,132.0,1.5,76,88.0
2061,C5,132.0,1.5,76,88.0
2062,A4,132.0,1.5,76,88.0
2063,F4,132.0,1.5,76,88.0
2064,D5,132.0,1.5,76,88.0
2065,A4,132.0,1979/1000,65,88.0
2066,F4,132.0,1979/1000,65,88.0
2067,A3,132.0,1979/1000,65,88.0
2068,F#2,132.5,0.0,79,88.0
2069,F3,132.594,0.094,38,88.0
2070,F#2,133.0,0.0,102,88.0
2071,C#2,133.0,0.0,102,88.0
2072,C4,133.0,1.0,53,88.0
2073,C4,133.01,151/500,80,88.0
2074,F4,133.01,151/500,80,88.0
2075,F3,133.01,151/500,80,88.0
2076,A3,133.01,151/500,80,88.0
2077,B1,133.5,0.0,85,88.0
2078,F#2,133.5,0.0,85,88.0
2079,G4,133.5,2.375,66,88.0
2080,G2,133.5,1417/1000,88,88.0
2081,A3,133.5,0.188,16,88.0
2082,F3,133.5,0.188,16,88.0
2083,B4,133.5,2.5,76,88.0
2084,D5,133.5,2.5,76,88.0
2085,B4,133.5,2.5,76,88.0
2086,D5,133.5,2.5,76,88.0
2087,G2,133.51,49/100,88,88.0
2088,B1,134.0,0.0,108,88.0
2089,F#2,134.0,0.0,108,88.0
2090,B4,134.0,979/500,71,88.0
2091,G4,134.0,979/500,71,88.0
2092,B3,134.0,979/500,71,88.0
2093,G2,134.0,979/500,71,88.0
2094,B3,134.042,127/200,76,88.0
2095,G3,134.042,127/200,76,88.0
2096,F#2,134.5,0.0,79,88.0
2097,F#2,135.0,0.0,102,88.0
2098,C#2,135.0,0.0,102,88.0
2099,D4,135.0,479/500,70,88.0
2100,E2,135.0,479/500,70,88.0
2101,G3,135.0,0.344,64,88.0
2102,G4,135.0,0.344,64,88.0
2103,D4,135.0,0.344,64,88.0
2104,B3,135.0,0.344,64,88.0
2105,B1,135.5,0.0,85,88.0
2106,F#2,135.5,0.0,85,88.0
2107,B3,135.521,229/500,37,88.0
2108,G3,135.521,229/500,37,88.0
2109,B1,136.0,0.0,108,88.0
2110,F#2,136.0,0.0,108,88.0
2111,A1,136.0,1271/1000,97,88.0
2112,E4,136.0,2.0,65,88.0
2113,C4,136.0,2.0,65,88.0
2114,G3,136.0,2.0,65,88.0
2115,E4,136.0,0.5,78,88.0
2116,C5,136.0,0.5,78,88.0
2117,E5,136.0,0.5,78,88.0
2118,C5,136.0,0.5,78,88.0
2119,E5,136.0,0.5,78,88.0
2120,G4,136.0,1417/1000,77,88.0
2121,A2,136.0,1417/1000,77,88.0
2122,E3,136.042,127/200,76,88.0
2123,C3,136.042,127/200,76,88.0
2124,F#2,136.5,0.0,79,88.0
2125,D4,136.5,0.5,80,88.0
2126,D5,136.5,0.5,80,88.0
2127,D5,136.5,0.5,80,88.0
2128,F#2,137.0,0.0,102,88.0
2129,C#2,137.0,0.0,102,88.0
2130,A3,137.0,1.0,53,88.0
2131,C3,137.0,0.344,64,88.0
2132,A3,137.0,0.344,64,88.0
2133,G3,137.0,0.344,64,88.0
2134,E3,137.0,0.344,64,88.0
2135,D4,137.0,0.5,80,88.0
2136,D5,137.0,0.5,80,88.0
2137,D5,137.0,0.5,80,88.0
2138,B1,137.5,0.0,85,88.0
2139,F#2,137.5,0.0,85,88.0
2140,C4,137.5,0.25,88,88.0
2141,F#4,137.5,2.375,66,88.0
2142,A4,137.5,479/500,78,88.0
2143,D5,137.5,479/500,78,88.0
2144,A4,137.5,479/500,78,88.0
2145,D5,137.5,479/500,78,88.0
2146,A2,137.5,479/500,78,88.0
2147,A1,137.51,229/500,54,88.0
2148,E3,137.51,229/500,54,88.0
2149,C3,137.51,229/500,54,88.0
2150,C4,137.75,0.75,88,88.0
2151,B1,138.0,0.0,108,88.0
2152,F#2,138.0,0.0,108,88.0
2153,A1,138.0,1.75,92,88.0
2154,D4,138.0,771/1000,70,88.0
2155,A3,138.0,2.0,68,88.0
2156,F#4,138.0,2.0,68,88.0
2157,F#2,138.5,0.0,79,88.0
2158,A3,138.5,0.5,82,88.0
2159,A4,138.5,0.5,82,88.0
2160,A4,138.5,0.5,82,88.0
2161,E3,138.5,0.5,82,88.0
2162,F#2,139.0,0.0,102,88.0
2163,C#2,139.0,0.0,102,88.0
2164,A3,139.0,479/500,88,88.0
2165,A3,139.0,0.406,60,88.0
2166,F#3,139.0,0.406,60,88.0
2167,C4,139.0,0.5,80,88.0
2168,C5,139.0,0.5,80,88.0
2169,C5,139.0,0.5,80,88.0
2170,B1,139.5,0.0,85,88.0
2171,F#2,139.5,0.0,85,88.0
2172,E3,139.5,0.5,53,88.0
2173,C3,139.5,0.5,53,88.0
2174,D4,139.5,0.5,80,88.0
2175,D5,139.5,0.5,80,88.0
2176,D5,139.5,0.5,80,88.0
2177,B1,140.0,0.0,108,88.0
2178,F#2,140.0,0.0,108,88.0
2179,A1,140.0,1.75,92,88.0
2180,G3,140.0,2.0,68,88.0
2181,C4,140.0,2.0,68,88.0
2182,E4,140.0,0.5,78,88.0
2183,C5,140.0,0.5,78,88.0
2184,E5,140.0,0.5,78,88.0
2185,C5,140.0,0.5,78,88.0
2186,E5,140.0,0.5,78,88.0
2187,G4,140.0,1417/1000,77,88.0
2188,A2,140.0,1417/1000,77,88.0
2189,E3,140.0,138/125,53,88.0
2190,C3,140.0,138/125,53,88.0
2191,F#2,140.5,0.0,79,88.0
2192,D4,140.5,0.5,80,88.0
2193,D5,140.5,0.5,80,88.0
2194,D5,140.5,0.5,80,88.0
2195,A3,140.51,0.719,68,88.0
2196,G3,140.51,0.719,68,88.0
2197,F#2,141.0,0.0,102,88.0
2198,C#2,141.0,0.0,102,88.0
2199,D4,141.0,0.5,80,88.0
2200,D5,141.0,0.5,80,88.0
2201,D5,141.0,0.5,80,88.0
2202,B1,141.5,0.0,85,88.0
2203,F#2,141.5,0.0,85,88.0
2204,C4,141.5,0.25,88,88.0
2205,F#4,141.5,2.375,66,88.0
2206,A4,141.5,479/500,78,88.0
2207,D5,141.5,479/500,78,88.0
2208,A4,141.5,479/500,78,88.0
2209,D5,141.5,479/500,78,88.0
2210,A2,141.5,479/500,78,88.0
2211,A3,141.542,1.125,76,88.0
2212,F#3,141.542,1.125,76,88.0
2213,C4,141.75,0.75,88,88.0
2214,B1,142.0,0.0,108,88.0
2215,F#2,142.0,0.0,108,88.0
2216,A1,142.0,1.75,92,88.0
2217,A3,142.0,2.0,68,88.0
2218,F#4,142.0,2.0,68,88.0
2219,F#2,142.5,0.0,79,88.0
2220,A4,142.5,0.5,80,88.0
2221,A4,142.5,0.5,80,88.0
2222,E3,142.5,0.5,80,88.0
2223,F#2,143.0,0.0,102,88.0
2224,C#2,143.0,0.0,102,88.0
2225,A2,143.0,479/500,88,88.0
2226,F#3,143.0,0.156,57,88.0
2227,A3,143.0,0.156,57,88.0
2228,F#4,143.0,0.406,70,88.0
2229,D4,143.0,0.406,70,88.0
2230,C5,143.0,0.5,76,88.0
2231,C5,143.0,0.5,76,88.0
2232,B1,143.5,0.0,85,88.0
2233,F#2,143.5,0.0,85,88.0
2234,F4,143.5,0.5,60,88.0
2235,C4,143.5,0.5,60,88.0
2236,A3,143.5,0.5,80,88.0
2237,A4,143.5,0.5,80,88.0
2238,A4,143.5,0.5,80,88.0
2239,A3,143.521,23/200,52,88.0
2240,B1,144.0,0.0,108,88.0
2241,F#2,144.0,0.0,108,88.0
2242,A4,144.0,979/500,71,88.0
2243,F4,144.0,979/500,71,88.0
2244,A3,144.0,979/500,71,88.0
2245,G2,144.0,979/500,71,88.0
2246,C4,144.0,0.25,80,88.0
2247,C5,144.0,0.25,80,88.0
2248,C5,144.0,0.25,80,88.0
2249,F4,144.0,1417/1000,73,88.0
2250,A4,144.0,1417/1000,73,88.0
2251,G2,144.0,1417/1000,73,88.0
2252,F4,144.0,427/1000,60,88.0
2253,C4,144.0,427/1000,60,88.0
2254,D4,144.25,0.5,80,88.0
2255,D5,144.25,0.5,80,88.0
2256,D5,144.25,0.5,80,88.0
2257,F#2,144.5,0.0,79,88.0
2258,D4,144.75,1.25,80,88.0
2259,D5,144.75,1.25,80,88.0
2260,D5,144.75,1.25,80,88.0
2261,F#2,145.0,0.0,102,88.0
2262,C#2,145.0,0.0,102,88.0
2263,C4,145.0,1.0,53,88.0
2264,C4,145.01,151/500,63,88.0
2265,F4,145.01,151/500,63,88.0
2266,F3,145.01,151/500,63,88.0
2267,A3,145.01,151/500,63,88.0
2268,B1,145.5,0.0,85,88.0
2269,F#2,145.5,0.0,85,88.0
2270,G4,145.5,427/500,72,88.0
2271,D4,145.5,427/500,72,88.0
2272,G2,145.5,427/500,72,88.0
2273,G3,145.5,427/500,72,88.0
2274,B3,145.5,427/500,72,88.0
2275,G4,145.5,1.438,66,88.0
2276,B4,145.5,1.438,66,88.0
2277,B1,146.0,0.0,108,88.0
2278,F#2,146.0,0.0,108,88.0
2279,G2,146.0,1.75,92,88.0
2280,B4,146.0,2.0,65,88.0
2281,G4,146.0,2.0,65,88.0
2282,B3,146.0,2.0,65,88.0
2283,E4,146.0,1.0,80,88.0
2284,E5,146.0,1.0,80,88.0
2285,E5,146.0,1.0,80,88.0
2286,B1,146.5,0.0,85,88.0
2287,F#2,146.5,0.0,85,88.0
2288,D3,146.5,0.5,88,88.0
2289,G3,146.594,0.094,38,88.0
2290,F#2,147.0,0.0,102,88.0
2291,C#2,147.0,0.0,102,88.0
2292,D4,147.0,479/500,75,88.0
2293,G4,147.0,479/500,75,88.0
2294,B4,147.0,479/500,75,88.0
2295,D5,147.0,479/500,75,88.0
2296,G4,147.0,479/500,75,88.0
2297,B4,147.0,479/500,75,88.0
2298,D5,147.0,479/500,75,88.0
2299,G3,147.0,479/500,75,88.0
2300,D4,147.01,151/500,80,88.0
2301,G4,147.01,151/500,80,88.0
2302,G3,147.01,151/500,80,88.0
2303,B3,147.01,151/500,80,88.0
2304,B1,147.5,0.0,85,88.0
2305,F#2,147.5,0.0,85,88.0
2306,B3,147.5,0.188,16,88.0
2307,G3,147.5,0.188,16,88.0
2308,B1,148.0,0.0,108,88.0
2309,F#2,148.0,0.0,108,88.0
2310,G2,148.0,1.75,92,88.0
2311,A3,148.0,2.0,68,88.0
2312,F4,148.0,2.0,68,88.0
2313,C5,148.0,0.5,76,88.0
2314,C5,148.0,0.5,76,88.0
2315,F4,148.0,1417/1000,73,88.0
2316,A4,148.0,1417/1000,73,88.0
2317,G2,148.0,1417/1000,73,88.0
2318,A3,148.042,127/200,76,88.0
2319,F3,148.042,127/200,76,88.0
2320,F#2,148.5,0.0,79,88.0
2321,B4,148.5,0.5,76,88.0
2322,B4,148.5,0.5,76,88.0
2323,F#2,149.0,0.0,102,88.0
2324,C#2,149.0,0.0,102,88.0
2325,F3,149.0,0.344,64,88.0
2326,F4,149.0,0.344,64,88.0
2327,C4,149.0,0.344,64,88.0
2328,A3,149.0,0.344,64,88.0
2329,C5,149.0,0.5,76,88.0
2330,C5,149.0,0.5,76,88.0
2331,B1,149.5,0.0,85,88.0
2332,F#2,149.5,0.0,85,88.0
2333,G2,149.5,1417/1000,88,88.0
2334,D5,149.5,1.5,71,88.0
2335,G4,149.5,1.5,71,88.0
2336,B4,149.5,1.5,71,88.0
2337,D5,149.5,1.5,71,88.0
2338,A3,149.521,229/500,37,88.0
2339,F3,149.521,229/500,37,88.0
2340,B1,150.0,0.0,108,88.0
2341,F#2,150.0,0.0,108,88.0
2342,G2,150.0,1.0,76,88.0
2343,B3,150.0,1.0,76,88.0
2344,G4,150.0,1.0,76,88.0
2345,G4,150.0,0.375,68,88.0
2346,D4,150.0,0.375,68,88.0
2347,G3,150.0,0.375,68,88.0
2348,B3,150.0,0.375,68,88.0
2349,F#2,150.5,0.0,79,88.0
2350,G3,150.594,0.094,38,88.0
2351,F#2,151.0,0.0,102,88.0
2352,C#2,151.0,0.0,102,88.0
2353,G3,151.0,479/500,78,88.0
2354,G4,151.0,479/500,78,88.0
2355,C5,151.0,479/500,78,88.0
2356,A2,151.0,479/500,78,88.0
2357,A1,151.0,479/500,78,88.0
2358,A3,151.0,0.375,68,88.0
2359,G3,151.0,0.375,68,88.0
2360,C3,151.0,0.375,68,88.0
2361,E3,151.0,0.375,68,88.0
2362,D4,151.0,0.5,80,88.0
2363,D5,151.0,0.5,80,88.0
2364,D5,151.0,0.5,80,88.0
2365,C4,151.49,0.5,74,88.0
2366,E4,151.49,0.5,74,88.0
2367,E5,151.49,0.5,74,88.0
2368,E5,151.49,0.5,74,88.0
2369,B1,151.5,0.0,85,88.0
2370,F#2,151.5,0.0,85,88.0
2371,C3,151.594,0.094,38,88.0
2372,B1,152.0,0.0,108,88.0
2373,F#2,152.0,0.0,108,88.0
2374,B-1,152.0,3.406,99,88.0
2375,B-3,152.0,137/50,32,88.0
2376,D3,152.0,223/200,81,88.0
2377,B-2,152.0,1417/1000,88,88.0
2378,A3,152.0,4.0,55,88.0
2379,F4,152.0,4.0,55,88.0
2380,D4,152.0,4.0,55,88.0
2381,F4,152.0,0.5,80,88.0
2382,F5,152.0,0.5,80,88.0
2383,F5,152.0,0.5,80,88.0
2384,D5,152.0,1917/1000,66,88.0
2385,C5,152.0,1917/1000,66,88.0
2386,A4,152.0,1917/1000,66,88.0
2387,F3,152.021,151/250,70,88.0
2388,F#2,152.5,0.0,79,88.0
2389,F4,152.5,0.5,80,88.0
2390,F5,152.5,0.5,80,88.0
2391,F5,152.5,0.5,80,88.0
2392,A3,152.958,26/125,73,88.0
2393,B-3,152.958,26/125,73,88.0
2394,F3,152.958,26/125,73,88.0
2395,F#2,153.0,0.0,102,88.0
2396,C#2,153.0,0.0,102,88.0
2397,F4,153.0,0.5,80,88.0
2398,F5,153.0,0.5,80,88.0
2399,F5,153.0,0.5,80,88.0
2400,A3,153.458,333/1000,91,88.0
2401,B1,153.5,0.0,85,88.0
2402,F#2,153.5,0.0,85,88.0
2403,F4,153.5,0.5,82,88.0
2404,F5,153.5,0.5,82,88.0
2405,F5,153.5,0.5,82,88.0
2406,B-2,153.5,0.5,82,88.0
2407,F3,153.542,73/500,27,88.0
2408,D3,153.99,417/1000,39,88.0
2409,B1,154.0,0.0,108,88.0
2410,F#2,154.0,0.0,108,88.0
2411,F4,154.0,0.75,78,88.0
2412,D5,154.0,0.75,78,88.0
2413,F5,154.0,0.75,78,88.0
2414,D5,154.0,0.75,78,88.0
2415,F5,154.0,0.75,78,88.0
2416,A4,154.0,1.875,77,88.0
2417,B-2,154.0,1.875,77,88.0
2418,B-3,154.469,73/200,77,88.0
2419,A3,154.469,73/200,77,88.0
2420,F#2,154.5,0.0,79,88.0
2421,E4,154.75,0.5,78,88.0
2422,C5,154.75,0.5,78,88.0
2423,E5,154.75,0.5,78,88.0
2424,C5,154.75,0.5,78,88.0
2425,E5,154.75,0.5,78,88.0
2426,F#2,155.0,0.0,102,88.0
2427,C#2,155.0,0.0,102,88.0
2428,B-3,155.0,1.0,57,88.0
2429,F3,155.0,0.219,57,88.0
2430,D4,155.25,0.5,80,88.0
2431,D5,155.25,0.5,80,88.0
2432,D5,155.25,0.5,80,88.0
2433,B-1,155.49,77/200,85,88.0
2434,B1,155.5,0.0,85,88.0
2435,F#2,155.5,0.0,85,88.0
2436,F3,155.521,177/1000,49,88.0
2437,F4,155.75,0.25,80,88.0
2438,F5,155.75,0.25,80,88.0
2439,F5,155.75,0.25,80,88.0
2440,B1,156.0,0.0,108,88.0
2441,F#2,156.0,0.0,108,88.0
2442,A1,156.0,3021/1000,94,88.0
2443,E3,156.0,1229/500,54,88.0
2444,E4,156.0,1.0,88,88.0
2445,A2,156.0,1417/1000,88,88.0
2446,G3,156.0,4.0,56,88.0
2447,C4,156.0,4.0,56,88.0
2448,A3,156.0,4.0,56,88.0
2449,G3,156.0,323/500,65,88.0
2450,E3,156.0,323/500,65,88.0
2451,C3,156.0,323/500,65,88.0
2452,G4,156.0,2.0,76,88.0
2453,C5,156.0,2.0,76,88.0
2454,E5,156.0,2.0,76,88.0
2455,G4,156.0,2.0,76,88.0
2456,C5,156.0,2.0,76,88.0
2457,E5,156.0,2.0,76,88.0
2458,F#2,156.5,0.0,79,88.0
2459,F#2,157.0,0.0,102,88.0
2460,C#2,157.0,0.0,102,88.0
2461,C4,157.0,1.0,88,88.0
2462,G3,157.031,77/200,67,88.0
2463,B1,157.5,0.0,85,88.0
2464,F#2,157.5,0.0,85,88.0
2465,A2,157.5,0.5,88,88.0
2466,C3,157.552,0.156,51,88.0
2467,B1,158.0,0.0,108,88.0
2468,F#2,158.0,0.0,108,88.0
2469,A2,158.0,1.875,88,88.0
2470,E4,158.0,1.5,76,88.0
2471,G4,158.0,1.5,76,88.0
2472,C5,158.0,1.5,76,88.0
2473,E4,158.0,1.5,76,88.0
2474,G4,158.0,1.5,76,88.0
2475,C5,158.0,1.5,76,88.0
2476,G3,158.021,13/50,54,88.0
2477,E3,158.021,13/50,54,88.0
2478,F#2,158.5,0.0,79,88.0
2479,G3,158.51,349/500,61,88.0
2480,F#2,159.0,0.0,102,88.0
2481,C#2,159.0,0.0,102,88.0
2482,A1,159.0,0.438,87,88.0
2483,E3,159.0,1.0,81,88.0
2484,B1,159.5,0.0,85,88.0
2485,F#2,159.5,0.0,85,88.0
2486,A1,159.5,73/500,97,88.0
2487,C4,159.5,0.25,80,88.0
2488,C5,159.5,0.25,80,88.0
2489,C5,159.5,0.25,80,88.0
2490,D4,159.75,0.25,80,88.0
2491,D5,159.75,0.25,80,88.0
2492,D5,159.75,0.25,80,88.0
2493,B1,160.0,0.0,108,88.0
2494,F#2,160.0,0.0,108,88.0
2495,G#3,160.0,1229/500,54,88.0
2496,G#2,160.0,1417/1000,88,88.0
2497,C4,160.0,4.0,56,88.0
2498,G4,160.0,4.0,56,88.0
2499,E-4,160.0,4.0,56,88.0
2500,G#3,160.0,0.5,81,88.0
2501,E-4,160.0,0.5,81,88.0
2502,E-5,160.0,0.5,81,88.0
2503,E-5,160.0,0.5,81,88.0
2504,E-4,160.0,427/1000,75,88.0
2505,E-4,160.0,427/1000,75,88.0
2506,E-5,160.0,427/1000,75,88.0
2507,E-5,160.0,427/1000,75,88.0
2508,C4,160.0,427/1000,75,88.0
2509,G3,160.0,427/1000,75,88.0
2510,C5,160.0,1917/1000,66,88.0
2511,G4,160.0,1917/1000,66,88.0
2512,G#2,160.042,3427/1000,91,88.0
2513,F#2,160.5,0.0,79,88.0
2514,E-4,160.5,0.5,80,88.0
2515,E-5,160.5,0.5,80,88.0
2516,E-5,160.5,0.5,80,88.0
2517,F#2,161.0,0.0,102,88.0
2518,C#2,161.0,0.0,102,88.0
2519,E-4,161.0,0.188,66,88.0
2520,G#3,161.0,0.188,66,88.0
2521,E-5,161.0,0.5,76,88.0
2522,E-5,161.0,0.5,76,88.0
2523,C4,161.031,13/125,58,88.0
2524,E-4,161.031,13/125,58,88.0
2525,E-4,161.25,0.5,88,88.0
2526,B1,161.5,0.0,85,88.0
2527,F#2,161.5,0.0,85,88.0
2528,E-5,161.5,0.5,80,88.0
2529,E-5,161.5,0.5,80,88.0
2530,G#2,161.5,0.5,80,88.0
2531,E-4,161.542,0.094,56,88.0
2532,G#3,161.542,0.094,56,88.0
2533,C4,161.542,0.094,56,88.0
2534,F4,161.75,0.75,88,88.0
2535,B1,162.0,0.0,108,88.0
2536,F#2,162.0,0.0,108,88.0
2537,G#3,162.0,167/1000,51,88.0
2538,F5,162.0,0.5,76,88.0
2539,F5,162.0,0.5,76,88.0
2540,G4,162.0,1.875,72,88.0
2541,C5,162.0,1.875,72,88.0
2542,B-4,162.0,1.875,72,88.0
2543,G#2,162.0,1.875,72,88.0
2544,G3,162.062,0.094,62,88.0
2545,G#3,162.49,73/500,79,88.0
2546,F#2,162.5,0.0,79,88.0
2547,E-4,162.5,0.5,80,88.0
2548,E-5,162.5,0.5,80,88.0
2549,E-5,162.5,0.5,80,88.0
2550,G#3,162.958,13/125,54,88.0
2551,E-4,162.958,13/125,54,88.0
2552,C4,162.958,13/125,54,88.0
2553,F#2,163.0,0.0,102,88.0
2554,C#2,163.0,0.0,102,88.0
2555,G#3,163.0,1.0,81,88.0
2556,F4,163.0,0.5,80,88.0
2557,F5,163.0,0.5,80,88.0
2558,F5,163.0,0.5,80,88.0
2559,G#3,163.479,0.188,46,88.0
2560,B1,163.5,0.0,85,88.0
2561,F#2,163.5,0.0,85,88.0
2562,E-4,163.5,0.5,80,88.0
2563,E-5,163.5,0.5,80,88.0
2564,E-5,163.5,0.5,80,88.0
2565,G3,163.542,83/1000,39,88.0
2566,G#2,163.583,417/1000,94,88.0
2567,B1,164.0,0.0,108,88.0
2568,F#2,164.0,0.0,108,88.0
2569,G2,164.0,1.75,92,88.0
2570,D4,164.0,1.0,88,88.0
2571,G2,164.0,1.875,88,88.0
2572,A4,164.0,2.0,73,88.0
2573,F4,164.0,2.0,73,88.0
2574,C4,164.0,2.0,73,88.0
2575,F4,164.0,2.0,73,88.0
2576,A4,164.0,2.0,73,88.0
2577,C5,164.0,2.0,73,88.0
2578,D5,164.0,2.0,73,88.0
2579,F4,164.0,2.0,73,88.0
2580,A4,164.0,2.0,73,88.0
2581,C5,164.0,2.0,73,88.0
2582,D5,164.0,2.0,73,88.0
2583,D4,164.0,0.375,57,88.0
2584,C4,164.0,0.375,57,88.0
2585,A3,164.0,0.375,57,88.0
2586,F#2,164.5,0.0,79,88.0
2587,F#2,165.0,0.0,102,88.0
2588,C#2,165.0,0.0,102,88.0
2589,D4,165.0,1.0,53,88.0
2590,C4,165.01,151/500,63,88.0
2591,D4,165.01,151/500,63,88.0
2592,F3,165.01,151/500,63,88.0
2593,A3,165.01,151/500,63,88.0
2594,B1,165.5,0.0,85,88.0
2595,F#2,165.5,0.0,85,88.0
2596,B1,166.0,0.0,108,88.0
2597,F#2,166.0,0.0,108,88.0
2598,A3,166.0,417/1000,68,88.0
2599,F4,166.0,417/1000,68,88.0
2600,C4,166.0,573/1000,60,88.0
2601,F3,166.0,573/1000,60,88.0
2602,C4,166.0,479/500,80,88.0
2603,F4,166.0,479/500,80,88.0
2604,A4,166.0,479/500,80,88.0
2605,C5,166.0,479/500,80,88.0
2606,F4,166.0,479/500,80,88.0
2607,A4,166.0,479/500,80,88.0
2608,C5,166.0,479/500,80,88.0
2609,G3,166.0,479/500,80,88.0
2610,G2,166.0,479/500,80,88.0
2611,B1,166.5,0.0,90,88.0
2612,F#2,166.5,0.0,90,88.0
2613,B3,166.5,1479/1000,77,88.0
2614,D2,167.0,0.0,100,88.0
2615,F#2,167.0,0.0,100,88.0
2616,G2,167.0,479/500,80,88.0
2617,D4,167.0,479/500,80,88.0
2618,G4,167.0,479/500,80,88.0
2619,B4,167.0,479/500,80,88.0
2620,D5,167.0,479/500,80,88.0
2621,G4,167.0,479/500,80,88.0
2622,B4,167.0,479/500,80,88.0
2623,D5,167.0,479/500,80,88.0
2624,G2,167.0,479/500,80,88.0
2625,G4,167.0,0.375,68,88.0
2626,D4,167.0,0.375,68,88.0
2627,G3,167.0,0.375,68,88.0
2628,B3,167.0,0.375,68,88.0
2629,G4,167.49,51/100,58,88.0
2630,B1,167.5,0.0,104,88.0
2631,D2,167.5,0.0,104,88.0
2632,B-2,167.5,0.0,104,88.0
2633,G3,167.594,0.094,38,88.0
2634,B1,168.0,0.0,106,88.0
2635,F#2,168.0,0.0,106,88.0
2636,C#3,168.0,0.0,106,88.0
2637,C2,168.0,3.406,99,88.0
2638,G3,168.0,1073/500,54,88.0
2639,C4,168.0,2833/1000,52,88.0
2640,B-3,168.0,2.5,63,88.0
2641,E-4,168.0,4.0,59,88.0
2642,C3,168.0,479/500,88,88.0
2643,B-3,168.0,323/500,65,88.0
2644,G3,168.0,323/500,65,88.0
2645,E-3,168.0,323/500,65,88.0
2646,E-4,168.0,1.5,78,88.0
2647,G4,168.0,1.5,78,88.0
2648,B-4,168.0,1.5,78,88.0
2649,E-5,168.0,1.5,78,88.0
2650,G4,168.0,1.5,78,88.0
2651,B-4,168.0,1.5,78,88.0
2652,E-5,168.0,1.5,78,88.0
2653,F#2,168.5,0.0,79,88.0
2654,F#2,169.0,0.0,102,88.0
2655,C#2,169.0,0.0,102,88.0
2656,B-3,169.031,77/200,67,88.0
2657,B1,169.5,0.0,85,88.0
2658,F#2,169.5,0.0,85,88.0
2659,D4,169.5,0.156,73,88.0
2660,D5,169.5,0.156,73,88.0
2661,D5,169.5,0.156,73,88.0
2662,E-3,169.5,0.156,73,88.0
2663,C4,169.75,1.25,88,88.0
2664,G4,169.75,1.75,76,88.0
2665,B-4,169.75,1.75,76,88.0
2666,C5,169.75,1.75,76,88.0
2667,G4,169.75,1.75,76,88.0
2668,B-4,169.75,1.75,76,88.0
2669,C5,169.75,1.75,76,88.0
2670,B1,170.0,0.0,108,88.0
2671,F#2,170.0,0.0,108,88.0
2672,C3,170.0,479/500,88,88.0
2673,B-3,170.021,13/50,54,88.0
2674,G3,170.021,13/50,54,88.0
2675,F#2,170.5,0.0,79,88.0
2676,G3,170.5,1.5,52,88.0
2677,B-3,170.51,349/500,61,88.0
2678,F#2,171.0,0.0,102,88.0
2679,C#2,171.0,0.0,102,88.0
2680,B-3,171.0,479/500,76,88.0
2681,G2,171.0,479/500,76,88.0
2682,C2,171.49,77/200,85,88.0
2683,B1,171.5,0.0,85,88.0
2684,F#2,171.5,0.0,85,88.0
2685,C4,171.5,0.5,54,88.0
2686,C4,171.5,0.25,80,88.0
2687,C5,171.5,0.25,80,88.0
2688,C5,171.5,0.25,80,88.0
2689,D4,171.75,0.25,80,88.0
2690,D5,171.75,0.25,80,88.0
2691,D5,171.75,0.25,80,88.0
2692,B1,172.0,0.0,108,88.0
2693,F#2,172.0,0.0,108,88.0
2694,F2,172.0,1271/1000,97,88.0
2695,F2,172.0,479/500,88,88.0
2696,G4,172.0,2.0,65,88.0
2697,E-4,172.0,2.0,65,88.0
2698,G#3,172.0,2.0,65,88.0
2699,E-4,172.0,0.5,80,88.0
2700,E-5,172.0,0.5,80,88.0
2701,E-5,172.0,0.5,80,88.0
2702,G4,172.0,1917/1000,66,88.0
2703,G#4,172.0,1917/1000,66,88.0
2704,C5,172.0,1917/1000,66,88.0
2705,F3,172.042,127/200,76,88.0
2706,E-3,172.042,127/200,76,88.0
2707,F#2,172.5,0.0,79,88.0
2708,E-4,172.5,0.5,80,88.0
2709,E-5,172.5,0.5,80,88.0
2710,E-5,172.5,0.5,80,88.0
2711,F#2,173.0,0.0,102,88.0
2712,C#2,173.0,0.0,102,88.0
2713,C4,173.0,1.0,53,88.0
2714,E-3,173.0,0.344,64,88.0
2715,C4,173.0,0.344,64,88.0
2716,G#3,173.0,0.344,64,88.0
2717,F3,173.0,0.344,64,88.0
2718,E-4,173.0,0.5,80,88.0
2719,E-5,173.0,0.5,80,88.0
2720,E-5,173.0,0.5,80,88.0
2721,B1,173.5,0.0,85,88.0
2722,F#2,173.5,0.0,85,88.0
2723,E-4,173.5,0.25,88,88.0
2724,E-5,173.5,229/500,67,88.0
2725,E-5,173.5,229/500,67,88.0
2726,F2,173.5,229/500,67,88.0
2727,F2,173.5,229/500,67,88.0
2728,F3,173.5,229/500,67,88.0
2729,E-3,173.5,229/500,67,88.0
2730,E-4,173.75,0.75,88,88.0
2731,B1,174.0,0.0,108,88.0
2732,F#2,174.0,0.0,108,88.0
2733,G#4,174.0,1917/1000,66,88.0
2734,B-1,174.0,479/500,79,88.0
2735,C4,174.0,479/500,79,88.0
2736,G#4,174.0,479/500,79,88.0
2737,B-2,174.0,479/500,79,88.0
2738,E-4,174.0,573/1000,60,88.0
2739,G#3,174.0,573/1000,60,88.0
2740,C5,174.0,0.5,76,88.0
2741,E-5,174.0,0.5,76,88.0
2742,C5,174.0,0.5,76,88.0
2743,E-5,174.0,0.5,76,88.0
2744,F#2,174.5,0.0,79,88.0
2745,F4,174.5,0.5,80,88.0
2746,F5,174.5,0.5,80,88.0
2747,F5,174.5,0.5,80,88.0
2748,F#2,175.0,0.0,102,88.0
2749,C#2,175.0,0.0,102,88.0
2750,G#3,175.0,479/500,79,88.0
2751,F4,175.0,479/500,79,88.0
2752,F2,175.0,479/500,79,88.0
2753,F2,175.0,479/500,79,88.0
2754,C4,175.0,573/1000,60,88.0
2755,F3,175.0,573/1000,60,88.0
2756,D4,175.0,0.5,80,88.0
2757,D5,175.0,0.5,80,88.0
2758,D5,175.0,0.5,80,88.0
2759,B1,175.5,0.0,85,88.0
2760,F#2,175.5,0.0,85,88.0
2761,C4,175.5,0.5,80,88.0
2762,C5,175.5,0.5,80,88.0
2763,C5,175.5,0.5,80,88.0
2764,B1,176.0,0.0,108,88.0
2765,F#2,176.0,0.0,108,88.0
2766,D4,176.0,137/50,32,88.0
2767,G3,176.0,271/500,84,88.0
2768,G2,176.0,479/500,88,88.0
2769,B-3,176.0,3979/1000,65,88.0
2770,G4,176.0,3979/1000,65,88.0
2771,F4,176.0,3979/1000,65,88.0
2772,G2,176.0,3979/1000,65,88.0
2773,D4,176.0,427/1000,70,88.0
2774,B-3,176.0,427/1000,70,88.0
2775,F3,176.0,427/1000,70,88.0
2776,D4,176.0,1.5,78,88.0
2777,B-4,176.0,1.5,78,88.0
2778,D5,176.0,1.5,78,88.0
2779,F4,176.0,1.5,78,88.0
2780,B-4,176.0,1.5,78,88.0
2781,D5,176.0,1.5,78,88.0
2782,F4,176.0,1.5,78,88.0
2783,F#2,176.5,0.0,79,88.0
2784,F#2,177.0,0.0,102,88.0
2785,C#2,177.0,0.0,102,88.0
2786,G3,177.01,13/125,54,88.0
2787,B-3,177.01,13/125,54,88.0
2788,D4,177.01,13/125,54,88.0
2789,B1,177.5,0.0,85,88.0
2790,F#2,177.5,0.0,85,88.0
2791,C4,177.5,0.25,80,88.0
2792,C5,177.5,0.25,80,88.0
2793,C5,177.5,0.25,80,88.0
2794,D4,177.542,0.094,56,88.0
2795,G3,177.542,0.094,56,88.0
2796,B-3,177.542,0.094,56,88.0
2797,B-3,177.75,1.25,88,88.0
2798,F4,177.75,1073/500,66,88.0
2799,B-4,177.75,1.75,76,88.0
2800,B-4,177.75,1.75,76,88.0
2801,B1,178.0,0.0,108,88.0
2802,F#2,178.0,0.0,108,88.0
2803,G3,178.0,167/1000,51,88.0
2804,G2,178.0,479/500,88,88.0
2805,F3,178.062,0.094,62,88.0
2806,G3,178.49,73/500,79,88.0
2807,F#2,178.5,0.0,79,88.0
2808,G3,178.958,13/125,54,88.0
2809,D4,178.958,13/125,54,88.0
2810,B-3,178.958,13/125,54,88.0
2811,F#2,179.0,0.0,102,88.0
2812,C#2,179.0,0.0,102,88.0
2813,D4,179.0,479/500,72,88.0
2814,G2,179.0,479/500,72,88.0
2815,G3,179.479,0.188,46,88.0
2816,B1,179.5,0.0,85,88.0
2817,F#2,179.5,0.0,85,88.0
2818,B-3,179.5,0.25,80,88.0
2819,B-4,179.5,0.25,80,88.0
2820,B-4,179.5,0.25,80,88.0
2821,F3,179.542,83/1000,39,88.0
2822,C4,179.75,0.25,80,88.0
2823,C5,179.75,0.25,80,88.0
2824,C5,179.75,0.25,80,88.0
2825,B1,180.0,0.0,108,88.0
2826,F#2,180.0,0.0,108,88.0
2827,E-2,180.0,479/500,88,88.0
2828,F4,180.0,979/500,71,88.0
2829,D4,180.0,979/500,71,88.0
2830,G3,180.0,979/500,71,88.0
2831,E-2,180.0,979/500,71,88.0
2832,D4,180.0,0.5,80,88.0
2833,D5,180.0,0.5,80,88.0
2834,D5,180.0,0.5,80,88.0
2835,F4,180.0,1917/1000,66,88.0
2836,G4,180.0,1917/1000,66,88.0
2837,B-4,180.0,1917/1000,66,88.0
2838,E-3,180.042,127/200,76,88.0
2839,D3,180.042,127/200,76,88.0
2840,B1,180.5,0.0,90,88.0
2841,F#2,180.5,0.0,90,88.0
2842,D4,180.5,0.5,80,88.0
2843,D5,180.5,0.5,80,88.0
2844,D5,180.5,0.5,80,88.0
2845,F#2,181.0,0.0,102,88.0
2846,C#2,181.0,0.0,102,88.0
2847,B-3,181.0,1.0,53,88.0
2848,D3,181.0,0.344,64,88.0
2849,B-3,181.0,0.344,64,88.0
2850,G3,181.0,0.344,64,88.0
2851,E-3,181.0,0.344,64,88.0
2852,D4,181.0,0.5,80,88.0
2853,D5,181.0,0.5,80,88.0
2854,D5,181.0,0.5,80,88.0
2855,B1,181.5,0.0,85,88.0
2856,F#2,181.5,0.0,85,88.0
2857,D4,181.5,229/500,67,88.0
2858,D5,181.5,229/500,67,88.0
2859,D5,181.5,229/500,67,88.0
2860,B-2,181.5,229/500,67,88.0
2861,E-3,181.5,229/500,67,88.0
2862,D3,181.5,229/500,67,88.0
2863,F#2,181.75,0.0,68,88.0
2864,B1,182.0,0.0,108,88.0
2865,F#2,182.0,0.0,108,88.0
2866,G1,182.0,2.0,92,88.0
2867,B3,182.0,771/1000,70,88.0
2868,G2,182.0,479/500,88,88.0
2869,G#4,182.0,1.438,65,88.0
2870,F4,182.0,1.438,65,88.0
2871,B3,182.0,1.438,65,88.0
2872,F4,182.0,1.438,65,88.0
2873,A4,182.0,1.438,65,88.0
2874,B-4,182.0,1.438,65,88.0
2875,D4,182.0,0.5,80,88.0
2876,D5,182.0,0.5,80,88.0
2877,D5,182.0,0.5,80,88.0
2878,B1,182.5,0.0,85,88.0
2879,F#2,182.5,0.0,85,88.0
2880,E-4,182.5,0.5,80,88.0
2881,E-5,182.5,0.5,80,88.0
2882,E-5,182.5,0.5,80,88.0
2883,F#2,183.0,0.0,102,88.0
2884,C#2,183.0,0.0,102,88.0
2885,G2,183.0,479/500,88,88.0
2886,D4,183.0,0.406,60,88.0
2887,G#3,183.0,0.406,60,88.0
2888,D4,183.0,49/100,73,88.0
2889,D5,183.0,49/100,73,88.0
2890,D5,183.0,49/100,73,88.0
2891,F3,183.0,49/100,73,88.0
2892,B1,183.5,0.0,85,88.0
2893,F#2,183.5,0.0,85,88.0
2894,G3,183.5,0.5,54,88.0
2895,B-3,183.5,0.5,56,88.0
2896,E-4,183.5,0.5,56,88.0
2897,C4,183.5,0.5,56,88.0
2898,C4,183.5,0.5,76,88.0
2899,C5,183.5,0.5,76,88.0
2900,C5,183.5,0.5,76,88.0
2901,C5,183.5,0.5,76,88.0
2902,B3,183.521,6/25,49,88.0
2903,B-2,183.75,0.0,91,88.0
2904,B1,184.0,0.0,108,88.0
2905,F#2,184.0,0.0,108,88.0
2906,C2,184.0,3021/1000,94,88.0
2907,C3,184.0,479/500,88,88.0
2908,G3,184.0,2.438,54,88.0
2909,E-4,184.0,1.5,78,88.0
2910,G4,184.0,1.5,78,88.0
2911,B-4,184.0,1.5,78,88.0
2912,E-5,184.0,1.5,78,88.0
2913,G4,184.0,1.5,78,88.0
2914,B-4,184.0,1.5,78,88.0
2915,E-5,184.0,1.5,78,88.0
2916,B-3,184.0,3979/1000,56,88.0
2917,E-4,184.0,3979/1000,56,88.0
2918,C4,184.0,3979/1000,56,88.0
2919,B-3,184.042,271/500,68,88.0
2920,C4,184.042,271/500,68,88.0
2921,G3,184.042,271/500,68,88.0
2922,E-3,184.042,271/500,68,88.0
2923,F#2,184.5,0.0,79,88.0
2924,F#2,185.0,0.0,102,88.0
2925,C#2,185.0,0.0,102,88.0
2926,B-3,185.042,0.312,70,88.0
2927,C4,185.042,0.312,70,88.0
2928,E-3,185.042,0.312,70,88.0
2929,G3,185.073,0.125,66,88.0
2930,B1,185.5,0.0,85,88.0
2931,F#2,185.5,0.0,85,88.0
2932,D4,185.5,0.25,80,88.0
2933,D5,185.5,0.25,80,88.0
2934,D5,185.5,0.25,80,88.0
2935,E-3,185.573,0.094,36,88.0
2936,G3,185.573,0.094,36,88.0
2937,C4,185.75,1.25,88,88.0
2938,B-4,185.75,1.75,76,88.0
2939,G4,185.75,1.75,76,88.0
2940,C5,185.75,1.75,76,88.0
2941,B-4,185.75,1.75,76,88.0
2942,G4,185.75,1.75,76,88.0
2943,C5,185.75,1.75,76,88.0
2944,C4,185.99,73/500,52,88.0
2945,E-3,185.99,73/500,52,88.0
2946,B-3,185.99,73/500,52,88.0
2947,B1,186.0,0.0,108,88.0
2948,F#2,186.0,0.0,108,88.0
2949,C3,186.0,479/500,88,88.0
2950,G3,186.042,83/1000,51,88.0
2951,F#2,186.5,0.0,79,88.0
2952,C4,186.5,0.656,68,88.0
2953,B-3,186.5,0.656,68,88.0
2954,E-3,186.5,0.656,68,88.0
2955,G3,186.51,521/1000,69,88.0
2956,F#2,187.0,0.0,102,88.0
2957,C#2,187.0,0.0,102,88.0
2958,C2,187.0,0.438,87,88.0
2959,G3,187.0,479/500,84,88.0
2960,G2,187.0,479/500,84,88.0
2961,B1,187.5,0.0,85,88.0
2962,F#2,187.5,0.0,85,88.0
2963,C2,187.5,0.125,71,88.0
2964,G3,187.5,0.125,71,88.0
2965,C4,187.5,0.25,80,88.0
2966,C5,187.5,0.25,80,88.0
2967,C5,187.5,0.25,80,88.0
2968,E-3,187.583,83/1000,40,88.0
2969,D4,187.75,0.25,80,88.0
2970,D5,187.75,0.25,80,88.0
2971,D5,187.75,0.25,80,88.0
2972,B1,188.0,0.0,108,88.0
2973,F#2,188.0,0.0,108,88.0
2974,F1,188.0,2.0,92,88.0
2975,F2,188.0,479/500,88,88.0
2976,G4,188.0,1417/1000,65,88.0
2977,E-4,188.0,1417/1000,65,88.0
2978,G#3,188.0,1417/1000,65,88.0
2979,C4,188.0,0.375,57,88.0
2980,G#3,188.0,0.375,57,88.0
2981,F3,188.0,0.375,57,88.0
2982,E-4,188.0,0.5,80,88.0
2983,E-5,188.0,0.5,80,88.0
2984,E-5,188.0,0.5,80,88.0
2985,G4,188.0,1917/1000,66,88.0
2986,G#4,188.0,1917/1000,66,88.0
2987,C5,188.0,1917/1000,66,88.0
2988,F#2,188.5,0.0,79,88.0
2989,E-4,188.5,0.5,80,88.0
2990,E-5,188.5,0.5,80,88.0
2991,E-5,188.5,0.5,80,88.0
2992,F#2,189.0,0.0,102,88.0
2993,C#2,189.0,0.0,102,88.0
2994,C4,189.0,0.344,66,88.0
2995,G#3,189.0,0.344,66,88.0
2996,C4,189.0,0.344,66,88.0
2997,E-4,189.0,0.5,80,88.0
2998,E-5,189.0,0.5,80,88.0
2999,E-5,189.0,0.5,80,88.0
3000,E-3,189.031,151/500,54,88.0
3001,F3,189.031,151/500,54,88.0
3002,B1,189.5,0.0,85,88.0
3003,F#2,189.5,0.0,85,88.0
3004,E-4,189.5,0.25,88,88.0
3005,C4,189.5,917/1000,68,88.0
3006,G#4,189.5,917/1000,68,88.0
3007,E-5,189.5,0.5,80,88.0
3008,E-5,189.5,0.5,80,88.0
3009,F2,189.5,0.5,80,88.0
3010,F#2,189.75,0.0,68,88.0
3011,E-4,189.75,0.75,88,88.0
3012,B1,190.0,0.0,108,88.0
3013,F#2,190.0,0.0,108,88.0
3014,G#4,190.0,1917/1000,66,88.0
3015,B-1,190.0,479/500,90,88.0
3016,B-2,190.0,479/500,90,88.0
3017,G#4,190.0,0.375,68,88.0
3018,E-4,190.0,0.375,68,88.0
3019,G#3,190.0,0.375,68,88.0
3020,C4,190.0,0.375,68,88.0
3021,E-5,190.0,0.5,76,88.0
3022,E-5,190.0,0.5,76,88.0
3023,B1,190.5,0.0,85,88.0
3024,F#2,190.5,0.0,85,88.0
3025,G#3,190.5,1479/1000,68,88.0
3026,F4,190.5,1479/1000,68,88.0
3027,F4,190.5,0.5,80,88.0
3028,F5,190.5,0.5,80,88.0
3029,F5,190.5,0.5,80,88.0
3030,G#3,190.594,0.094,38,88.0
3031,F#2,191.0,0.0,102,88.0
3032,C#2,191.0,0.0,102,88.0
3033,C4,191.0,573/1000,60,88.0
3034,F3,191.0,573/1000,60,88.0
3035,D4,191.0,0.5,80,88.0
3036,D5,191.0,0.5,80,88.0
3037,D5,191.0,0.5,80,88.0
3038,F2,191.0,479/500,90,88.0
3039,F2,191.0,479/500,90,88.0
3040,B1,191.5,0.0,85,88.0
3041,F#2,191.5,0.0,85,88.0
3042,C4,191.5,0.5,80,88.0
3043,C5,191.5,0.5,80,88.0
3044,C5,191.5,0.5,80,88.0
3045,B-2,191.75,0.0,91,88.0
3046,B1,192.0,0.0,108,88.0
3047,F#2,192.0,0.0,108,88.0
3048,G3,192.0,1073/500,54,88.0
3049,D4,192.0,2833/1000,52,88.0
3050,B-3,192.0,2.5,63,88.0
3051,G2,192.0,479/500,88,88.0
3052,G2,192.0,3417/1000,84,88.0
3053,F4,192.0,3417/1000,84,88.0
3054,B-3,192.0,323/500,65,88.0
3055,G3,192.0,323/500,65,88.0
3056,F3,192.0,323/500,65,88.0
3057,D4,192.0,1.5,78,88.0
3058,F4,192.0,1.5,78,88.0
3059,B-4,192.0,1.5,78,88.0
3060,D5,192.0,1.5,78,88.0
3061,F4,192.0,1.5,78,88.0
3062,B-4,192.0,1.5,78,88.0
3063,D5,192.0,1.5,78,88.0
3064,F#2,192.5,0.0,79,88.0
3065,F#2,193.0,0.0,102,88.0
3066,C#2,193.0,0.0,102,88.0
3067,B-3,193.031,77/200,67,88.0
3068,B1,193.5,0.0,85,88.0
3069,F#2,193.5,0.0,85,88.0
3070,C4,193.5,0.5,78,88.0
3071,G#4,193.5,0.5,78,88.0
3072,C5,193.5,0.5,78,88.0
3073,G#4,193.5,0.5,78,88.0
3074,C5,193.5,0.5,78,88.0
3075,F3,193.552,0.156,51,88.0
3076,B1,194.0,0.0,108,88.0
3077,F#2,194.0,0.0,108,88.0
3078,B-3,194.0,479/500,88,88.0
3079,G2,194.0,479/500,88,88.0
3080,F4,194.0,1.5,76,88.0
3081,B-4,194.0,1.5,76,88.0
3082,F4,194.0,1.5,76,88.0
3083,B-4,194.0,1.5,76,88.0
3084,B-3,194.021,13/50,54,88.0
3085,G3,194.021,13/50,54,88.0
3086,F#2,194.5,0.0,79,88.0
3087,G3,194.5,917/1000,52,88.0
3088,B-3,194.51,349/500,61,88.0
3089,F#2,195.0,0.0,102,88.0
3090,C#2,195.0,0.0,102,88.0
3091,B-3,195.0,417/1000,65,88.0
3092,G2,195.0,479/500,88,88.0
3093,G2,195.469,0.25,79,88.0
3094,B-3,195.469,0.25,79,88.0
3095,B-4,195.469,0.25,79,88.0
3096,B-4,195.469,0.25,79,88.0
3097,B1,195.5,0.0,85,88.0
3098,F#2,195.5,0.0,85,88.0
3099,A4,195.5,0.5,70,88.0
3100,D4,195.5,167/1000,41,88.0
3101,C4,195.5,0.5,62,88.0
3102,F4,195.5,0.5,36,88.0
3103,C4,195.75,0.25,80,88.0
3104,C5,195.75,0.25,80,88.0
3105,C5,195.75,0.25,80,88.0
3106,B1,196.0,0.0,108,88.0
3107,F#2,196.0,0.0,108,88.0
3108,A4,196.0,1979/1000,70,88.0
3109,C4,196.0,0.781,62,88.0
3110,F4,196.0,0.125,36,88.0
3111,A3,196.0,1.125,53,88.0
3112,F3,196.0,1.125,53,88.0
3113,D4,196.0,0.5,80,88.0
3114,D5,196.0,0.5,80,88.0
3115,D5,196.0,0.5,80,88.0
3116,F4,196.0,1.875,73,88.0
3117,A4,196.0,1.875,73,88.0
3118,D3,196.0,1.875,73,88.0
3119,D2,196.042,979/500,91,88.0
3120,F#2,196.5,0.0,79,88.0
3121,D4,196.5,0.5,80,88.0
3122,D5,196.5,0.5,80,88.0
3123,D5,196.5,0.5,80,88.0
3124,D4,196.51,0.719,68,88.0
3125,C4,196.51,0.719,68,88.0
3126,F#2,197.0,0.0,102,88.0
3127,C#2,197.0,0.0,102,88.0
3128,C4,197.0,1.0,68,88.0
3129,D4,197.0,0.5,80,88.0
3130,D5,197.0,0.5,80,88.0
3131,D5,197.0,0.5,80,88.0
3132,B1,197.5,0.0,85,88.0
3133,F#2,197.5,0.0,85,88.0
3134,F4,197.5,0.5,74,88.0
3135,D4,197.5,0.5,74,88.0
3136,D5,197.5,0.5,74,88.0
3137,D5,197.5,0.5,74,88.0
3138,A3,197.521,0.25,60,88.0
3139,F3,197.521,0.25,60,88.0
3140,B1,198.0,0.0,108,88.0
3141,F#2,198.0,0.0,108,88.0
3142,G1,198.0,2.0,72,88.0
3143,G#4,198.0,2.0,72,88.0
3144,F4,198.0,2.0,72,88.0
3145,B3,198.0,2.0,72,88.0
3146,D4,198.0,0.375,68,88.0
3147,B3,198.0,0.375,68,88.0
3148,F3,198.0,0.375,68,88.0
3149,G#3,198.0,0.375,68,88.0
3150,D4,198.0,0.5,78,88.0
3151,B4,198.0,0.5,78,88.0
3152,D5,198.0,0.5,78,88.0
3153,B4,198.0,0.5,78,88.0
3154,D5,198.0,0.5,78,88.0
3155,F4,198.0,1.875,77,88.0
3156,G2,198.0,1.875,77,88.0
3157,D2,198.5,0.0,96,88.0
3158,F#2,198.5,0.0,96,88.0
3159,E-4,198.5,0.5,78,88.0
3160,C5,198.5,0.5,78,88.0
3161,E-5,198.5,0.5,78,88.0
3162,C5,198.5,0.5,78,88.0
3163,E-5,198.5,0.5,78,88.0
3164,F3,198.594,0.094,38,88.0
3165,D2,199.0,0.0,91,88.0
3166,F#2,199.0,0.0,91,88.0
3167,D4,199.0,1.0,53,88.0
3168,D4,199.0,0.281,76,88.0
3169,B4,199.0,0.281,76,88.0
3170,D5,199.0,0.281,76,88.0
3171,B4,199.0,0.281,76,88.0
3172,D5,199.0,0.281,76,88.0
3173,F3,199.0,0.281,76,88.0
3174,B3,199.01,151/500,80,88.0
3175,D4,199.01,151/500,80,88.0
3176,F3,199.01,151/500,80,88.0
3177,G#3,199.01,151/500,80,88.0
3178,D2,199.25,0.0,120,88.0
3179,C4,199.25,0.75,80,88.0
3180,C5,199.25,0.75,80,88.0
3181,C5,199.25,0.75,80,88.0
3182,B1,199.5,0.0,96,88.0
3183,B-2,199.5,0.0,96,88.0
3184,G#3,199.5,0.188,16,88.0
3185,F3,199.5,0.188,16,88.0
3186,B1,200.0,0.0,106,88.0
3187,F#2,200.0,0.0,106,88.0
3188,C#3,200.0,0.0,106,88.0
3189,C2,200.0,3.406,99,88.0
3190,G3,200.0,1229/500,54,88.0
3191,C3,200.0,479/500,88,88.0
3192,B-3,200.0,4.0,56,88.0
3193,E-4,200.0,4.0,56,88.0
3194,C4,200.0,4.0,56,88.0
3195,E-4,200.0,1.5,78,88.0
3196,G4,200.0,1.5,78,88.0
3197,B-4,200.0,1.5,78,88.0
3198,E-5,200.0,1.5,78,88.0
3199,G4,200.0,1.5,78,88.0
3200,B-4,200.0,1.5,78,88.0
3201,E-5,200.0,1.5,78,88.0
3202,G3,200.021,0.344,67,88.0
3203,E-3,200.021,0.344,67,88.0
3204,F#2,200.5,0.0,79,88.0
3205,G3,200.865,0.375,62,88.0
3206,B-3,200.865,0.375,62,88.0
3207,F#2,201.0,0.0,102,88.0
3208,C#2,201.0,0.0,102,88.0
3209,C4,201.01,0.312,66,88.0
3210,B1,201.5,0.0,85,88.0
3211,F#2,201.5,0.0,85,88.0
3212,D4,201.5,0.25,80,88.0
3213,D5,201.5,0.25,80,88.0
3214,D5,201.5,0.25,80,88.0
3215,C4,201.75,1.25,88,88.0
3216,G4,201.75,1.75,76,88.0
3217,B-4,201.75,1.75,76,88.0
3218,C5,201.75,1.75,76,88.0
3219,G4,201.75,1.75,76,88.0
3220,B-4,201.75,1.75,76,88.0
3221,C5,201.75,1.75,76,88.0
3222,B1,202.0,0.0,108,88.0
3223,F#2,202.0,0.0,108,88.0
3224,C3,202.0,479/500,88,88.0
3225,B-3,202.458,0.312,63,88.0
3226,E-3,202.458,0.312,63,88.0
3227,F#2,202.5,0.0,79,88.0
3228,G3,202.99,27/200,43,88.0
3229,F#2,203.0,0.0,102,88.0
3230,C#2,203.0,0.0,102,88.0
3231,G3,203.0,479/500,84,88.0
3232,G2,203.0,479/500,84,88.0
3233,C4,203.469,0.25,70,88.0
3234,E-3,203.469,0.25,70,88.0
3235,C4,203.469,0.25,70,88.0
3236,C5,203.469,0.25,70,88.0
3237,C5,203.469,0.25,70,88.0
3238,C2,203.49,77/200,85,88.0
3239,B1,203.5,0.0,85,88.0
3240,F#2,203.5,0.0,85,88.0
3241,D4,203.75,0.25,80,88.0
3242,D5,203.75,0.25,80,88.0
3243,D5,203.75,0.25,80,88.0
3244,B1,204.0,0.0,108,88.0
3245,F#2,204.0,0.0,108,88.0
3246,F2,204.0,479/500,88,88.0
3247,G#3,204.0,979/500,76,88.0
3248,E-4,204.0,979/500,76,88.0
3249,F2,204.0,979/500,76,88.0
3250,E-4,204.0,0.5,80,88.0
3251,E-5,204.0,0.5,80,88.0
3252,E-5,204.0,0.5,80,88.0
3253,G4,204.0,1917/1000,66,88.0
3254,G#4,204.0,1917/1000,66,88.0
3255,C5,204.0,1917/1000,66,88.0
3256,F3,204.042,127/200,76,88.0
3257,E-3,204.042,127/200,76,88.0
3258,F#2,204.5,0.0,79,88.0
3259,E-4,204.5,0.5,80,88.0
3260,E-5,204.5,0.5,80,88.0
3261,E-5,204.5,0.5,80,88.0
3262,F#2,205.0,0.0,102,88.0
3263,C#2,205.0,0.0,102,88.0
3264,E-3,205.0,0.344,64,88.0
3265,C4,205.0,0.344,64,88.0
3266,G#3,205.0,0.344,64,88.0
3267,F3,205.0,0.344,64,88.0
3268,E-4,205.0,0.5,80,88.0
3269,E-5,205.0,0.5,80,88.0
3270,E-5,205.0,0.5,80,88.0
3271,B1,205.5,0.0,85,88.0
3272,F#2,205.5,0.0,85,88.0
3273,E-4,205.5,0.25,88,88.0
3274,E-5,205.5,229/500,63,88.0
3275,E-5,205.5,229/500,63,88.0
3276,F2,205.5,229/500,63,88.0
3277,F3,205.5,229/500,63,88.0
3278,E-3,205.5,229/500,63,88.0
3279,E-4,205.75,0.75,88,88.0
3280,B1,206.0,0.0,108,88.0
3281,F#2,206.0,0.0,108,88.0
3282,G#4,206.0,1917/1000,66,88.0
3283,C4,206.0,479/500,79,88.0
3284,G#4,206.0,479/500,79,88.0
3285,B-2,206.0,479/500,79,88.0
3286,B-1,206.0,479/500,79,88.0
3287,E-4,206.0,573/1000,60,88.0
3288,G#3,206.0,573/1000,60,88.0
3289,C5,206.0,0.5,76,88.0
3290,E-5,206.0,0.5,76,88.0
3291,C5,206.0,0.5,76,88.0
3292,E-5,206.0,0.5,76,88.0
3293,F#2,206.5,0.0,79,88.0
3294,F4,206.5,0.5,80,88.0
3295,F5,206.5,0.5,80,88.0
3296,F5,206.5,0.5,80,88.0
3297,F#2,207.0,0.0,102,88.0
3298,C#2,207.0,0.0,102,88.0
3299,F2,207.0,479/500,86,88.0
3300,G#3,207.0,479/500,86,88.0
3301,F2,207.0,479/500,86,88.0
3302,F4,207.0,0.375,68,88.0
3303,C4,207.0,0.375,68,88.0
3304,F3,207.0,0.375,68,88.0
3305,G#3,207.0,0.375,68,88.0
3306,D4,207.0,0.5,80,88.0
3307,D5,207.0,0.5,80,88.0
3308,D5,207.0,0.5,80,88.0
3309,F4,207.49,0.5,74,88.0
3310,C4,207.49,0.5,74,88.0
3311,C5,207.49,0.5,74,88.0
3312,C5,207.49,0.5,74,88.0
3313,B1,207.5,0.0,85,88.0
3314,F#2,207.5,0.0,85,88.0
3315,F3,207.594,0.094,38,88.0
3316,B1,208.0,0.0,108,88.0
3317,F#2,208.0,0.0,108,88.0
3318,G2,208.0,3021/1000,94,88.0
3319,G3,208.0,1073/500,54,88.0
3320,D4,208.0,2833/1000,52,88.0
3321,B-3,208.0,2.5,63,88.0
3322,F4,208.0,4.0,59,88.0
3323,G2,208.0,479/500,88,88.0
3324,D4,208.0,1.5,78,88.0
3325,B-4,208.0,1.5,78,88.0
3326,D5,208.0,1.5,78,88.0
3327,F4,208.0,1.5,78,88.0
3328,B-4,208.0,1.5,78,88.0
3329,D5,208.0,1.5,78,88.0
3330,F4,208.0,1.5,78,88.0
3331,G3,208.021,0.344,67,88.0
3332,F3,208.021,0.344,67,88.0
3333,F#2,208.5,0.0,79,88.0
3334,G3,208.865,0.375,62,88.0
3335,B-3,208.865,0.375,62,88.0
3336,F#2,209.0,0.0,102,88.0
3337,C#2,209.0,0.0,102,88.0
3338,D4,209.01,0.312,66,88.0
3339,B1,209.5,0.0,85,88.0
3340,F#2,209.5,0.0,85,88.0
3341,C4,209.5,0.25,80,88.0
3342,C5,209.5,0.25,80,88.0
3343,C5,209.5,0.25,80,88.0
3344,B-3,209.75,1.25,88,88.0
3345,F4,209.75,1073/500,66,88.0
3346,B-4,209.75,1.75,76,88.0
3347,B-4,209.75,1.75,76,88.0
3348,B1,210.0,0.0,108,88.0
3349,F#2,210.0,0.0,108,88.0
3350,G2,210.0,479/500,88,88.0
3351,B-3,210.458,0.312,63,88.0
3352,F3,210.458,0.312,63,88.0
3353,F#2,210.5,0.0,79,88.0
3354,G3,210.5,1.5,52,88.0
3355,G3,210.99,27/200,43,88.0
3356,F#2,211.0,0.0,102,88.0
3357,C#2,211.0,0.0,102,88.0
3358,G2,211.0,0.438,87,88.0
3359,B-3,211.0,479/500,76,88.0
3360,G2,211.0,479/500,76,88.0
3361,D4,211.469,0.25,74,88.0
3362,F3,211.469,0.25,74,88.0
3363,G2,211.469,0.25,74,88.0
3364,B-3,211.469,0.25,74,88.0
3365,B-4,211.469,0.25,74,88.0
3366,B-4,211.469,0.25,74,88.0
3367,B1,211.5,0.0,85,88.0
3368,F#2,211.5,0.0,85,88.0
3369,D4,211.5,0.5,54,88.0
3370,C4,211.75,0.25,80,88.0
3371,C5,211.75,0.25,80,88.0
3372,C5,211.75,0.25,80,88.0
3373,B1,212.0,0.0,108,88.0
3374,F#2,212.0,0.0,108,88.0
3375,E-2,212.0,479/500,88,88.0
3376,E-1,212.0,2.0,76,88.0
3377,G3,212.0,2.0,76,88.0
3378,D4,212.0,2.0,76,88.0
3379,B-3,212.0,0.375,68,88.0
3380,G3,212.0,0.375,68,88.0
3381,D3,212.0,0.375,68,88.0
3382,E-3,212.0,0.375,68,88.0
3383,D4,212.0,0.5,80,88.0
3384,D5,212.0,0.5,80,88.0
3385,D5,212.0,0.5,80,88.0
3386,F4,212.0,1917/1000,66,88.0
3387,G4,212.0,1917/1000,66,88.0
3388,B-4,212.0,1917/1000,66,88.0
3389,F#2,212.5,0.0,79,88.0
3390,D4,212.5,0.5,80,88.0
3391,D5,212.5,0.5,80,88.0
3392,D5,212.5,0.5,80,88.0
3393,D3,212.594,0.094,38,88.0
3394,F#2,213.0,0.0,102,88.0
3395,C#2,213.0,0.0,102,88.0
3396,D4,213.0,0.5,80,88.0
3397,D5,213.0,0.5,80,88.0
3398,D5,213.0,0.5,80,88.0
3399,G3,213.01,151/500,80,88.0
3400,B-3,213.01,151/500,80,88.0
3401,D3,213.01,151/500,80,88.0
3402,E-3,213.01,151/500,80,88.0
3403,B1,213.5,0.0,85,88.0
3404,F#2,213.5,0.0,85,88.0
3405,E-3,213.5,0.188,16,88.0
3406,D3,213.5,0.188,16,88.0
3407,D4,213.5,0.5,82,88.0
3408,D5,213.5,0.5,82,88.0
3409,D5,213.5,0.5,82,88.0
3410,B-2,213.5,0.5,82,88.0
3411,B1,214.0,0.0,108,88.0
3412,F#2,214.0,0.0,108,88.0
3413,G2,214.0,479/500,88,88.0
3414,G1,214.0,2.0,72,88.0
3415,G#4,214.0,2.0,72,88.0
3416,F4,214.0,2.0,72,88.0
3417,B3,214.0,2.0,72,88.0
3418,D4,214.0,0.375,68,88.0
3419,B3,214.0,0.375,68,88.0
3420,F3,214.0,0.375,68,88.0
3421,G#3,214.0,0.375,68,88.0
3422,D4,214.0,0.5,80,88.0
3423,D5,214.0,0.5,80,88.0
3424,D5,214.0,0.5,80,88.0
3425,F4,214.0,1.438,66,88.0
3426,A4,214.0,1.438,66,88.0
3427,B-4,214.0,1.438,66,88.0
3428,B1,214.5,0.0,85,88.0
3429,F#2,214.5,0.0,85,88.0
3430,E-4,214.5,0.5,80,88.0
3431,E-5,214.5,0.5,80,88.0
3432,E-5,214.5,0.5,80,88.0
3433,F3,214.594,0.094,38,88.0
3434,F#2,215.0,0.0,102,88.0
3435,C#2,215.0,0.0,102,88.0
3436,D4,215.0,479/500,70,88.0
3437,G2,215.0,479/500,70,88.0
3438,D4,215.0,0.5,80,88.0
3439,D5,215.0,0.5,80,88.0
3440,D5,215.0,0.5,80,88.0
3441,B3,215.01,151/500,80,88.0
3442,D4,215.01,151/500,80,88.0
3443,F3,215.01,151/500,80,88.0
3444,G#3,215.01,151/500,80,88.0
3445,B1,215.5,0.0,85,88.0
3446,F#2,215.5,0.0,85,88.0
3447,G#3,215.5,0.188,16,88.0
3448,F3,215.5,0.188,16,88.0
3449,C4,215.5,0.5,76,88.0
3450,C5,215.5,0.5,76,88.0
3451,C5,215.5,0.5,76,88.0
3452,C5,215.5,0.5,76,88.0
3453,F#2,215.75,0.0,68,88.0
3454,B1,216.0,0.0,108,88.0
3455,F#2,216.0,0.0,108,88.0
3456,C2,216.0,3833/1000,99,88.0
3457,G3,216.0,1229/500,54,88.0
3458,C3,216.0,479/500,88,88.0
3459,B-3,216.0,4.0,56,88.0
3460,E-4,216.0,4.0,56,88.0
3461,C4,216.0,4.0,56,88.0
3462,B-3,216.0,323/500,65,88.0
3463,G3,216.0,323/500,65,88.0
3464,E-3,216.0,323/500,65,88.0
3465,E-4,216.0,1.5,78,88.0
3466,G4,216.0,1.5,78,88.0
3467,B-4,216.0,1.5,78,88.0
3468,E-5,216.0,1.5,78,88.0
3469,G4,216.0,1.5,78,88.0
3470,B-4,216.0,1.5,78,88.0
3471,E-5,216.0,1.5,78,88.0
3472,F#2,216.5,0.0,79,88.0
3473,F#2,217.0,0.0,102,88.0
3474,C#2,217.0,0.0,102,88.0
3475,B-3,217.031,77/200,67,88.0
3476,B1,217.5,0.0,85,88.0
3477,F#2,217.5,0.0,85,88.0
3478,D4,217.5,0.156,73,88.0
3479,D5,217.5,0.156,73,88.0
3480,D5,217.5,0.156,73,88.0
3481,E-3,217.5,0.156,73,88.0
3482,C4,217.75,1.25,88,88.0
3483,B-4,217.75,1.75,76,88.0
3484,G4,217.75,1.75,76,88.0
3485,C5,217.75,1.75,76,88.0
3486,B-4,217.75,1.75,76,88.0
3487,G4,217.75,1.75,76,88.0
3488,C5,217.75,1.75,76,88.0
3489,B1,218.0,0.0,108,88.0
3490,F#2,218.0,0.0,108,88.0
3491,C3,218.0,479/500,88,88.0
3492,B-3,218.021,13/50,54,88.0
3493,G3,218.021,13/50,54,88.0
3494,F#2,218.5,0.0,79,88.0
3495,B-3,218.51,349/500,61,88.0
3496,F#2,219.0,0.0,102,88.0
3497,C#2,219.0,0.0,102,88.0
3498,G3,219.0,479/500,84,88.0
3499,G2,219.0,479/500,84,88.0
3500,B1,219.5,0.0,85,88.0
3501,F#2,219.5,0.0,85,88.0
3502,C4,219.5,0.25,80,88.0
3503,C5,219.5,0.25,80,88.0
3504,C5,219.5,0.25,80,88.0
3505,D4,219.75,0.25,80,88.0
3506,D5,219.75,0.25,80,88.0
3507,D5,219.75,0.25,80,88.0
3508,B1,220.0,0.0,108,88.0
3509,F#2,220.0,0.0,108,88.0
3510,F2,220.0,479/500,88,88.0
3511,F1,220.0,2.0,76,88.0
3512,G#3,220.0,2.0,76,88.0
3513,E-4,220.0,2.0,76,88.0
3514,C4,220.0,0.375,68,88.0
3515,G#3,220.0,0.375,68,88.0
3516,E-3,220.0,0.375,68,88.0
3517,F3,220.0,0.375,68,88.0
3518,E-4,220.0,0.5,80,88.0
3519,E-5,220.0,0.5,80,88.0
3520,E-5,220.0,0.5,80,88.0
3521,G4,220.0,1917/1000,66,88.0
3522,G#4,220.0,1917/1000,66,88.0
3523,C5,220.0,1917/1000,66,88.0
3524,F#2,220.5,0.0,79,88.0
3525,E-4,220.5,0.5,80,88.0
3526,E-5,220.5,0.5,80,88.0
3527,E-5,220.5,0.5,80,88.0
3528,E-3,220.594,0.094,38,88.0
3529,F#2,221.0,0.0,102,88.0
3530,C#2,221.0,0.0,102,88.0
3531,E-4,221.0,0.5,80,88.0
3532,E-5,221.0,0.5,80,88.0
3533,E-5,221.0,0.5,80,88.0
3534,G#3,221.01,151/500,80,88.0
3535,C4,221.01,151/500,80,88.0
3536,E-3,221.01,151/500,80,88.0
3537,F3,221.01,151/500,80,88.0
3538,B1,221.5,0.0,85,88.0
3539,F#2,221.5,0.0,85,88.0
3540,F3,221.5,0.25,40,88.0
3541,E-3,221.5,0.25,40,88.0
3542,E-4,221.5,0.25,40,88.0
3543,E-5,221.5,0.5,80,88.0
3544,E-5,221.5,0.5,80,88.0
3545,F2,221.5,0.5,80,88.0
3546,F#2,221.75,0.0,68,88.0
3547,E-4,221.75,0.75,88,88.0
3548,B1,222.0,0.0,108,88.0
3549,F#2,222.0,0.0,108,88.0
3550,G#4,222.0,1917/1000,66,88.0
3551,C4,222.0,479/500,79,88.0
3552,G#4,222.0,479/500,79,88.0
3553,B-2,222.0,479/500,79,88.0
3554,B-1,222.0,479/500,79,88.0
3555,G#4,222.0,0.375,68,88.0
3556,E-4,222.0,0.375,68,88.0
3557,G#3,222.0,0.375,68,88.0
3558,C4,222.0,0.375,68,88.0
3559,E-5,222.0,0.5,76,88.0
3560,E-5,222.0,0.5,76,88.0
3561,B1,222.5,0.0,85,88.0
3562,F#2,222.5,0.0,85,88.0
3563,F4,222.5,0.5,80,88.0
3564,F5,222.5,0.5,80,88.0
3565,F5,222.5,0.5,80,88.0
3566,G#3,222.594,0.094,38,88.0
3567,F#2,223.0,0.0,102,88.0
3568,C#2,223.0,0.0,102,88.0
3569,F2,223.0,479/500,86,88.0
3570,G#3,223.0,479/500,86,88.0
3571,F2,223.0,479/500,86,88.0
3572,C4,223.0,573/1000,60,88.0
3573,F3,223.0,573/1000,60,88.0
3574,D4,223.0,0.5,80,88.0
3575,D5,223.0,0.5,80,88.0
3576,D5,223.0,0.5,80,88.0
3577,F4,223.49,0.5,74,88.0
3578,C4,223.49,0.5,74,88.0
3579,C5,223.49,0.5,74,88.0
3580,C5,223.49,0.5,74,88.0
3581,B1,223.5,0.0,85,88.0
3582,F#2,223.5,0.0,85,88.0
3583,B1,224.0,0.0,108,88.0
3584,F#2,224.0,0.0,108,88.0
3585,D4,224.0,137/50,32,88.0
3586,G2,224.0,479/500,88,88.0
3587,G2,224.0,3417/1000,66,88.0
3588,B-3,224.0,3417/1000,66,88.0
3589,G4,224.0,3417/1000,66,88.0
3590,F4,224.0,3417/1000,66,88.0
3591,B-3,224.0,323/500,65,88.0
3592,G3,224.0,323/500,65,88.0
3593,F3,224.0,323/500,65,88.0
3594,D4,224.0,1.5,78,88.0
3595,F4,224.0,1.5,78,88.0
3596,B-4,224.0,1.5,78,88.0
3597,D5,224.0,1.5,78,88.0
3598,F4,224.0,1.5,78,88.0
3599,B-4,224.0,1.5,78,88.0
3600,D5,224.0,1.5,78,88.0
3601,F#2,224.5,0.0,79,88.0
3602,F#2,225.0,0.0,102,88.0
3603,C#2,225.0,0.0,102,88.0
3604,B-3,225.031,77/200,67,88.0
3605,B1,225.5,0.0,85,88.0
3606,F#2,225.5,0.0,85,88.0
3607,C4,225.5,0.5,78,88.0
3608,G#4,225.5,0.5,78,88.0
3609,C5,225.5,0.5,78,88.0
3610,G#4,225.5,0.5,78,88.0
3611,C5,225.5,0.5,78,88.0
3612,F3,225.552,0.156,51,88.0
3613,B1,226.0,0.0,108,88.0
3614,F#2,226.0,0.0,108,88.0
3615,B-3,226.0,479/500,88,88.0
3616,G2,226.0,479/500,88,88.0
3617,F4,226.0,1.5,76,88.0
3618,B-4,226.0,1.5,76,88.0
3619,F4,226.0,1.5,76,88.0
3620,B-4,226.0,1.5,76,88.0
3621,B-3,226.021,13/50,54,88.0
3622,G3,226.021,13/50,54,88.0
3623,F#2,226.5,0.0,79,88.0
3624,B-3,226.51,349/500,61,88.0
3625,F#2,227.0,0.0,102,88.0
3626,C#2,227.0,0.0,102,88.0
3627,D4,227.0,417/1000,57,88.0
3628,G2,227.0,479/500,88,88.0
3629,G2,227.49,77/200,85,88.0
3630,B1,227.5,0.0,85,88.0
3631,F#2,227.5,0.0,85,88.0
3632,C4,227.5,0.5,68,88.0
3633,F4,227.5,0.5,68,88.0
3634,B-3,227.5,0.25,80,88.0
3635,B-4,227.5,0.25,80,88.0
3636,B-4,227.5,0.25,80,88.0
3637,C4,227.75,0.25,80,88.0
3638,C5,227.75,0.25,80,88.0
3639,C5,227.75,0.25,80,88.0
3640,B1,228.0,0.0,108,88.0
3641,F#2,228.0,0.0,108,88.0
3642,D2,228.0,1.75,92,88.0
3643,A3,228.0,1.125,53,88.0
3644,F3,228.0,1.125,53,88.0
3645,D4,228.0,0.5,80,88.0
3646,D5,228.0,0.5,80,88.0
3647,D5,228.0,0.5,80,88.0
3648,F4,228.0,1.875,73,88.0
3649,A4,228.0,1.875,73,88.0
3650,D3,228.0,1.875,73,88.0
3651,C4,228.0,1979/1000,68,88.0
3652,F4,228.0,1979/1000,68,88.0
3653,F#2,228.5,0.0,79,88.0
3654,D4,228.5,0.5,80,88.0
3655,D5,228.5,0.5,80,88.0
3656,D5,228.5,0.5,80,88.0
3657,D4,228.51,0.719,68,88.0
3658,C4,228.51,0.719,68,88.0
3659,F#2,229.0,0.0,102,88.0
3660,C#2,229.0,0.0,102,88.0
3661,D4,229.0,0.5,80,88.0
3662,D5,229.0,0.5,80,88.0
3663,D5,229.0,0.5,80,88.0
3664,B1,229.5,0.0,85,88.0
3665,F#2,229.5,0.0,85,88.0
3666,D4,229.5,0.5,80,88.0
3667,D5,229.5,0.5,80,88.0
3668,D5,229.5,0.5,80,88.0
3669,A3,229.521,0.25,60,88.0
3670,F3,229.521,0.25,60,88.0
3671,B1,230.0,0.0,108,88.0
3672,F#2,230.0,0.0,108,88.0
3673,G2,230.0,1.75,92,88.0
3674,B3,230.0,99/125,62,88.0
3675,F4,230.0,73/500,36,88.0
3676,G#4,230.0,1417/1000,56,88.0
3677,D4,230.0,1417/1000,56,88.0
3678,D4,230.0,0.5,78,88.0
3679,B4,230.0,0.5,78,88.0
3680,D5,230.0,0.5,78,88.0
3681,B4,230.0,0.5,78,88.0
3682,D5,230.0,0.5,78,88.0
3683,F4,230.0,1.875,77,88.0
3684,G2,230.0,1.875,77,88.0
3685,G#3,230.042,127/200,76,88.0
3686,F3,230.042,127/200,76,88.0
3687,F#2,230.5,0.0,79,88.0
3688,E-4,230.5,0.5,78,88.0
3689,C5,230.5,0.5,78,88.0
3690,E-5,230.5,0.5,78,88.0
3691,C5,230.5,0.5,78,88.0
3692,E-5,230.5,0.5,78,88.0
3693,F#2,231.0,0.0,102,88.0
3694,C#2,231.0,0.0,102,88.0
3695,B3,231.0,0.406,70,88.0
3696,D4,231.0,0.406,70,88.0
3697,B3,231.0,0.406,70,88.0
3698,F3,231.0,0.156,57,88.0
3699,G#3,231.0,0.156,57,88.0
3700,D4,231.0,0.25,78,88.0
3701,B4,231.0,0.25,78,88.0
3702,D5,231.0,0.25,78,88.0
3703,B4,231.0,0.25,78,88.0
3704,D5,231.0,0.25,78,88.0
3705,C4,231.25,0.75,80,88.0
3706,C5,231.25,0.75,80,88.0
3707,C5,231.25,0.75,80,88.0
3708,B1,231.5,0.0,85,88.0
3709,F#2,231.5,0.0,85,88.0
3710,G3,231.5,0.5,54,88.0
3711,C4,231.5,0.5,63,88.0
3712,G4,231.5,0.5,63,88.0
3713,F4,231.5,0.094,54,88.0
3714,F3,231.5,0.094,54,88.0
3715,G3,231.521,479/1000,68,88.0
3716,B1,232.0,0.0,108,88.0
3717,F#2,232.0,0.0,108,88.0
3718,C2,232.0,3833/1000,99,88.0
3719,C4,232.0,4.0,88,88.0
3720,C3,232.0,1417/1000,88,88.0
3721,G3,232.0,2.438,54,88.0
3722,G3,232.0,73/200,68,88.0
3723,G4,232.0,2.0,76,88.0
3724,F4,232.0,2.0,76,88.0
3725,C5,232.0,2.0,76,88.0
3726,G4,232.0,2.0,76,88.0
3727,F4,232.0,2.0,76,88.0
3728,C5,232.0,2.0,76,88.0
3729,C4,232.0,3979/1000,63,88.0
3730,G4,232.0,3979/1000,63,88.0
3731,F#2,232.5,0.0,79,88.0
3732,G3,232.865,0.375,62,88.0
3733,C4,232.865,0.375,62,88.0
3734,F#2,233.0,0.0,102,88.0
3735,C#2,233.0,0.0,102,88.0
3736,F4,233.01,0.312,66,88.0
3737,B1,233.5,0.0,85,88.0
3738,F#2,233.5,0.0,85,88.0
3739,C3,233.5,0.5,88,88.0
3740,B1,234.0,0.0,108,88.0
3741,F#2,234.0,0.0,108,88.0
3742,C3,234.0,1417/1000,88,88.0
3743,C6,234.0,2.0,76,88.0
3744,G5,234.0,2.0,76,88.0
3745,F5,234.0,2.0,76,88.0
3746,C6,234.0,2.0,76,88.0
3747,G5,234.0,2.0,76,88.0
3748,F5,234.0,2.0,76,88.0
3749,C4,234.458,0.312,63,88.0
3750,F3,234.458,0.312,63,88.0
3751,F#2,234.5,0.0,79,88.0
3752,G3,234.99,27/200,43,88.0
3753,F#2,235.0,0.0,102,88.0
3754,C#2,235.0,0.0,102,88.0
3755,G3,235.0,1.0,81,88.0
3756,F4,235.469,0.281,55,88.0
3757,F3,235.469,0.281,55,88.0
3758,B1,235.5,0.0,85,88.0
3759,F#2,235.5,0.0,85,88.0
3760,C3,235.5,0.5,88,88.0
3761,B1,236.0,0.0,108,88.0
3762,F#2,236.0,0.0,108,88.0
3763,C2,236.0,3833/1000,99,88.0
3764,G3,236.0,1073/500,54,88.0
3765,E4,236.0,2833/1000,52,88.0
3766,C4,236.0,2.5,63,88.0
3767,G4,236.0,3417/1000,59,88.0
3768,C3,236.0,1417/1000,88,88.0
3769,C4,236.0,199/100,88,88.0
3770,E4,236.0,1.0,76,88.0
3771,G4,236.0,1.0,76,88.0
3772,C5,236.0,1.0,76,88.0
3773,E4,236.0,1.0,76,88.0
3774,G4,236.0,1.0,76,88.0
3775,C5,236.0,1.0,76,88.0
3776,G3,236.021,0.344,67,88.0
3777,E3,236.021,0.344,67,88.0
3778,F#2,236.5,0.0,79,88.0
3779,G3,236.865,0.375,62,88.0
3780,C4,236.865,0.375,62,88.0
3781,F#2,237.0,0.0,102,88.0
3782,C#2,237.0,0.0,102,88.0
3783,C6,237.0,1.0,76,88.0
3784,G5,237.0,1.0,76,88.0
3785,E5,237.0,1.0,76,88.0
3786,C6,237.0,1.0,76,88.0
3787,G5,237.0,1.0,76,88.0
3788,E5,237.0,1.0,76,88.0
3789,E4,237.01,0.312,66,88.0
3790,B1,237.5,0.0,85,88.0
3791,F#2,237.5,0.0,85,88.0
3792,C3,237.5,0.5,88,88.0
3793,B1,238.0,0.0,108,88.0
3794,F#2,238.0,0.0,108,88.0
3795,C5,238.0,479/500,80,88.0
3796,C5,238.0,479/500,80,88.0
3797,C3,238.0,479/500,80,88.0
3798,E4,238.0,1917/1000,66,88.0
3799,G4,238.0,1917/1000,66,88.0
3800,C4,238.458,0.312,63,88.0
3801,E3,238.458,0.312,63,88.0
3802,F#2,238.5,0.0,79,88.0
3803,G3,238.5,917/1000,52,88.0
3804,G3,238.99,27/200,43,88.0
3805,F#2,239.0,0.0,102,88.0
3806,C#2,239.0,0.0,102,88.0
3807,C4,239.0,417/1000,65,88.0
3808,C3,239.0,0.5,88,88.0
3809,C4,239.0,1.0,80,88.0
3810,C5,239.0,1.0,80,88.0
3811,C5,239.0,1.0,80,88.0
3812,E4,239.469,0.281,55,88.0
3813,E3,239.469,0.281,55,88.0
3814,B1,239.5,0.0,85,88.0
3815,F#2,239.5,0.0,85,88.0
3816,G#3,239.5,0.5,54,88.0
3817,E-4,239.5,0.5,52,88.0
3818,C4,239.5,0.5,63,88.0
3819,G4,239.5,0.5,59,88.0
3820,G2,239.5,0.5,88,88.0
3821,B1,240.0,0.0,108,88.0
3822,F#2,240.0,0.0,108,88.0
3823,G#2,240.0,3.406,99,88.0
3824,G#2,240.0,1417/1000,88,88.0
3825,G#3,240.0,2.125,54,88.0
3826,E-4,240.0,2823/1000,52,88.0
3827,C4,240.0,249/100,63,88.0
3828,G4,240.0,3979/1000,59,88.0
3829,C4,240.0,323/500,65,88.0
3830,G#3,240.0,323/500,65,88.0
3831,G3,240.0,323/500,65,88.0
3832,G4,240.0,2.0,77,88.0
3833,B-4,240.0,2.0,77,88.0
3834,C5,240.0,2.0,77,88.0
3835,E-5,240.0,2.0,77,88.0
3836,G5,240.0,2.0,77,88.0
3837,B-4,240.0,2.0,77,88.0
3838,C5,240.0,2.0,77,88.0
3839,E-5,240.0,2.0,77,88.0
3840,G5,240.0,2.0,77,88.0
3841,F#2,240.5,0.0,79,88.0
3842,F#2,241.0,0.0,102,88.0
3843,C#2,241.0,0.0,102,88.0
3844,C4,241.031,77/200,67,88.0
3845,B1,241.5,0.0,85,88.0
3846,F#2,241.5,0.0,85,88.0
3847,G#2,241.5,0.5,88,88.0
3848,G3,241.552,0.156,51,88.0
3849,B1,242.0,0.0,108,88.0
3850,F#2,242.0,0.0,108,88.0
3851,B-4,242.0,1.875,73,88.0
3852,G5,242.0,1.875,73,88.0
3853,G#2,242.0,1.875,73,88.0
3854,C4,242.021,13/50,54,88.0
3855,G#3,242.021,13/50,54,88.0
3856,F#2,242.5,0.0,79,88.0
3857,G#3,242.5,1.5,52,88.0
3858,E-4,242.5,349/500,75,88.0
3859,E-5,242.5,349/500,75,88.0
3860,E-5,242.5,349/500,75,88.0
3861,C4,242.5,349/500,75,88.0
3862,F#2,243.0,0.0,102,88.0
3863,C#2,243.0,0.0,102,88.0
3864,C4,243.0,1.0,65,88.0
3865,C4,243.25,0.75,80,88.0
3866,C5,243.25,0.75,80,88.0
3867,C5,243.25,0.75,80,88.0
3868,G#2,243.49,77/200,85,88.0
3869,B1,243.5,0.0,85,88.0
3870,F#2,243.5,0.0,85,88.0
3871,E-4,243.5,0.5,54,88.0
3872,B1,244.0,0.0,108,88.0
3873,F#2,244.0,0.0,108,88.0
3874,C2,244.0,3.406,99,88.0
3875,G3,244.0,1073/500,54,88.0
3876,C4,244.0,2833/1000,52,88.0
3877,B-3,244.0,2.5,63,88.0
3878,E-4,244.0,4.0,59,88.0
3879,G#2,244.0,1417/1000,88,88.0
3880,G4,244.0,2.0,78,88.0
3881,B-4,244.0,2.0,78,88.0
3882,E-5,244.0,2.0,78,88.0
3883,G5,244.0,2.0,78,88.0
3884,B-4,244.0,2.0,78,88.0
3885,E-5,244.0,2.0,78,88.0
3886,G5,244.0,2.0,78,88.0
3887,G3,244.021,0.344,67,88.0
3888,E-3,244.021,0.344,67,88.0
3889,F#2,244.5,0.0,79,88.0
3890,G3,244.865,0.375,62,88.0
3891,B-3,244.865,0.375,62,88.0
3892,F#2,245.0,0.0,102,88.0
3893,C#2,245.0,0.0,102,88.0
3894,C4,245.01,0.312,66,88.0
3895,B1,245.5,0.0,85,88.0
3896,F#2,245.5,0.0,85,88.0
3897,G#2,245.5,0.5,88,88.0
3898,B-2,245.75,0.0,60,88.0
3899,B1,246.0,0.0,108,88.0
3900,F#2,246.0,0.0,108,88.0
3901,B-4,246.0,1917/1000,66,88.0
3902,G#2,246.0,1417/1000,88,88.0
3903,E-5,246.0,1.0,76,88.0
3904,E-5,246.0,1.0,76,88.0
3905,B-3,246.458,0.312,63,88.0
3906,E-3,246.458,0.312,63,88.0
3907,F#2,246.5,0.0,79,88.0
3908,G3,246.5,1.5,52,88.0
3909,G3,246.99,27/200,43,88.0
3910,F#2,247.0,0.0,102,88.0
3911,C#2,247.0,0.0,102,88.0
3912,B-3,247.0,1.0,65,88.0
3913,E-5,247.0,0.5,76,88.0
3914,E-5,247.0,0.5,76,88.0
3915,C4,247.469,0.25,66,88.0
3916,E-3,247.469,0.25,66,88.0
3917,G4,247.469,0.25,66,88.0
3918,C2,247.49,77/200,85,88.0
3919,B1,247.5,0.0,85,88.0
3920,F#2,247.5,0.0,85,88.0
3921,C4,247.5,0.5,74,88.0
3922,E-5,247.5,0.5,74,88.0
3923,E-5,247.5,0.5,74,88.0
3924,G#2,247.5,0.5,74,88.0
3925,G4,247.75,0.25,88,88.0
3926,B1,248.0,0.0,108,88.0
3927,F#2,248.0,0.0,108,88.0
3928,B-1,248.0,3.406,99,88.0
3929,C4,248.0,1229/500,54,88.0
3930,F4,248.0,1.25,88,88.0
3931,B-2,248.0,1417/1000,88,88.0
3932,E-4,248.0,4.0,56,88.0
3933,C5,248.0,4.0,56,88.0
3934,G#4,248.0,4.0,56,88.0
3935,F5,248.0,1.5,76,88.0
3936,F5,248.0,1.5,76,88.0
3937,G#4,248.0,1917/1000,66,88.0
3938,C5,248.0,1917/1000,66,88.0
3939,C4,248.021,0.344,67,88.0
3940,G#3,248.021,0.344,67,88.0
3941,F#2,248.5,0.0,79,88.0
3942,C4,248.865,0.375,62,88.0
3943,E-4,248.865,0.375,62,88.0
3944,F#2,249.0,0.0,102,88.0
3945,C#2,249.0,0.0,102,88.0
3946,G#4,249.01,0.312,66,88.0
3947,E-4,249.25,0.25,88,88.0
3948,B1,249.5,0.0,85,88.0
3949,F#2,249.5,0.0,85,88.0
3950,F4,249.5,0.25,88,88.0
3951,F5,249.5,0.5,80,88.0
3952,F5,249.5,0.5,80,88.0
3953,B-2,249.5,0.5,80,88.0
3954,G4,249.75,0.25,88,88.0
3955,B1,250.0,0.0,108,88.0
3956,F#2,250.0,0.0,108,88.0
3957,G4,250.0,1.0,80,88.0
3958,G5,250.0,1.0,80,88.0
3959,G5,250.0,1.0,80,88.0
3960,G#4,250.0,1.875,73,88.0
3961,C5,250.0,1.875,73,88.0
3962,B-2,250.0,1.875,73,88.0
3963,E-4,250.458,0.312,63,88.0
3964,G#3,250.458,0.312,63,88.0
3965,F#2,250.5,0.0,79,88.0
3966,C4,250.99,27/200,43,88.0
3967,F#2,251.0,0.0,102,88.0
3968,C#2,251.0,0.0,102,88.0
3969,C4,251.0,1.0,80,88.0
3970,F4,251.0,1.0,80,88.0
3971,F5,251.0,1.0,80,88.0
3972,F5,251.0,1.0,80,88.0
3973,B-1,251.49,77/200,85,88.0
3974,B1,251.5,0.0,85,88.0
3975,F#2,251.5,0.0,85,88.0
3976,E-3,251.521,479/1000,67,88.0
3977,D3,251.521,479/1000,67,88.0
3978,B1,252.0,0.0,108,88.0
3979,F#2,252.0,0.0,108,88.0
3980,E-2,252.0,1677/500,109,88.0
3981,E-3,252.0,1073/500,54,88.0
3982,B-3,252.0,2833/1000,52,88.0
3983,G3,252.0,2.5,63,88.0
3984,D4,252.0,4.0,59,88.0
3985,B-4,252.0,0.969,66,88.0
3986,E-3,252.0,1417/1000,88,88.0
3987,E-4,252.0,0.25,80,88.0
3988,E-5,252.0,0.25,80,88.0
3989,E-5,252.0,0.25,80,88.0
3990,E-3,252.0,177/500,67,88.0
3991,D3,252.0,177/500,67,88.0
3992,F4,252.25,0.25,88,88.0
3993,D5,252.25,0.75,76,88.0
3994,F5,252.25,0.75,76,88.0
3995,D5,252.25,0.75,76,88.0
3996,F5,252.25,0.75,76,88.0
3997,F#2,252.5,0.0,79,88.0
3998,F4,252.5,0.5,88,88.0
3999,E-3,252.865,0.375,62,88.0
4000,G3,252.865,0.375,62,88.0
4001,F#2,253.0,0.0,102,88.0
4002,C#2,253.0,0.0,102,88.0
4003,G4,253.0,0.5,78,88.0
4004,B-4,253.0,0.5,78,88.0
4005,D5,253.0,0.5,78,88.0
4006,G5,253.0,0.5,78,88.0
4007,B-4,253.0,0.5,78,88.0
4008,D5,253.0,0.5,78,88.0
4009,G5,253.0,0.5,78,88.0
4010,B-3,253.01,0.312,66,88.0
4011,B1,253.5,0.0,85,88.0
4012,F#2,253.5,0.0,85,88.0
4013,B-2,253.5,0.5,88,88.0
4014,G4,253.5,1.5,78,88.0
4015,B-4,253.5,1.5,78,88.0
4016,D5,253.5,1.5,78,88.0
4017,G5,253.5,1.5,78,88.0
4018,B-4,253.5,1.5,78,88.0
4019,D5,253.5,1.5,78,88.0
4020,G5,253.5,1.5,78,88.0
4021,B1,254.0,0.0,108,88.0
4022,F#2,254.0,0.0,108,88.0
4023,E-2,254.0,1.875,88,88.0
4024,G3,254.458,0.312,63,88.0
4025,D3,254.458,0.312,63,88.0
4026,F#2,254.5,0.0,79,88.0
4027,E-3,254.5,1.5,52,88.0
4028,E-3,254.99,27/200,43,88.0
4029,F#2,255.0,0.0,102,88.0
4030,C#2,255.0,0.0,102,88.0
4031,G3,255.0,1.0,76,88.0
4032,G4,255.0,1.0,76,88.0
4033,B-4,255.0,1.0,76,88.0
4034,D5,255.0,1.0,76,88.0
4035,G5,255.0,1.0,76,88.0
4036,B-4,255.0,1.0,76,88.0
4037,D5,255.0,1.0,76,88.0
4038,G5,255.0,1.0,76,88.0
4039,E-2,255.469,0.281,62,88.0
4040,B-3,255.469,0.281,62,88.0
4041,D3,255.469,0.281,62,88.0
4042,B1,255.5,0.0,85,88.0
4043,F#2,255.5,0.0,85,88.0
4044,B-3,255.5,0.5,54,88.0
4045,B1,256.0,0.0,108,88.0
4046,F#2,256.0,0.0,108,88.0
4047,B-1,256.0,3.406,99,88.0
4048,F3,256.0,1073/500,54,88.0
4049,B-3,256.0,2833/1000,52,88.0
4050,C#4,256.0,4.0,59,88.0
4051,B-2,256.0,1417/1000,88,88.0
4052,G#3,256.0,2.5,76,88.0
4053,B-4,256.0,2.5,76,88.0
4054,B-5,256.0,2.5,76,88.0
4055,B-5,256.0,2.5,76,88.0
4056,G#3,256.0,323/500,65,88.0
4057,F3,256.0,323/500,65,88.0
4058,C#3,256.0,323/500,65,88.0
4059,C#5,256.0,2.0,76,88.0
4060,F5,256.0,2.0,76,88.0
4061,C#5,256.0,2.0,76,88.0
4062,F5,256.0,2.0,76,88.0
4063,F#2,256.5,0.0,79,88.0
4064,F#2,257.0,0.0,102,88.0
4065,C#2,257.0,0.0,102,88.0
4066,G#3,257.031,77/200,67,88.0
4067,B1,257.5,0.0,85,88.0
4068,F#2,257.5,0.0,85,88.0
4069,B-2,257.5,0.5,88,88.0
4070,C#3,257.552,0.156,51,88.0
4071,B1,258.0,0.0,108,88.0
4072,F#2,258.0,0.0,108,88.0
4073,C#5,258.0,1.875,73,88.0
4074,F5,258.0,1.875,73,88.0
4075,B-2,258.0,1.875,73,88.0
4076,G#3,258.021,13/50,54,88.0
4077,F3,258.021,13/50,54,88.0
4078,F#2,258.5,0.0,79,88.0
4079,F3,258.5,1.5,52,88.0
4080,G#4,258.5,1.0,80,88.0
4081,G#5,258.5,1.0,80,88.0
4082,G#5,258.5,1.0,80,88.0
4083,G#3,258.51,349/500,61,88.0
4084,F#2,259.0,0.0,102,88.0
4085,C#2,259.0,0.0,102,88.0
4086,G#3,259.0,1.0,65,88.0
4087,B-1,259.49,77/200,85,88.0
4088,B1,259.5,0.0,85,88.0
4089,F#2,259.5,0.0,85,88.0
4090,B-3,259.5,0.5,74,88.0
4091,G4,259.5,0.5,74,88.0
4092,G5,259.5,0.5,74,88.0
4093,G5,259.5,0.5,74,88.0
4094,B1,260.0,0.0,108,88.0
4095,F#2,260.0,0.0,108,88.0
4096,F3,260.0,1073/500,54,88.0
4097,C4,260.0,2833/1000,52,88.0
4098,G#3,260.0,2.5,63,88.0
4099,E-4,260.0,4.0,59,88.0
4100,E-3,260.0,223/200,81,88.0
4101,F3,260.0,1417/1000,88,88.0
4102,G#4,260.0,2.0,78,88.0
4103,C5,260.0,2.0,78,88.0
4104,E-5,260.0,2.0,78,88.0
4105,G#5,260.0,2.0,78,88.0
4106,C5,260.0,2.0,78,88.0
4107,E-5,260.0,2.0,78,88.0
4108,G#5,260.0,2.0,78,88.0
4109,F3,260.021,151/250,70,88.0
4110,F2,260.042,3427/1000,91,88.0
4111,F#2,260.5,0.0,79,88.0
4112,G#3,260.958,26/125,73,88.0
4113,C4,260.958,26/125,73,88.0
4114,F3,260.958,26/125,73,88.0
4115,F#2,261.0,0.0,102,88.0
4116,C#2,261.0,0.0,102,88.0
4117,G#3,261.458,333/1000,91,88.0
4118,B1,261.5,0.0,85,88.0
4119,F#2,261.5,0.0,85,88.0
4120,C3,261.5,0.5,88,88.0
4121,F3,261.542,73/500,27,88.0
4122,F#2,261.75,0.0,68,88.0
4123,E-3,261.99,417/1000,39,88.0
4124,B1,262.0,0.0,108,88.0
4125,F#2,262.0,0.0,108,88.0
4126,G5,262.0,1.0,76,88.0
4127,G5,262.0,1.0,76,88.0
4128,G#4,262.0,1.875,72,88.0
4129,C5,262.0,1.875,72,88.0
4130,E-5,262.0,1.875,72,88.0
4131,F2,262.0,1.875,72,88.0
4132,C4,262.469,73/200,77,88.0
4133,G#3,262.469,73/200,77,88.0
4134,B1,262.5,0.0,85,88.0
4135,F#2,262.5,0.0,85,88.0
4136,F3,262.5,1.5,52,88.0
4137,F#2,263.0,0.0,102,88.0
4138,C#2,263.0,0.0,102,88.0
4139,G#3,263.0,1.0,65,88.0
4140,F3,263.0,0.219,57,88.0
4141,F5,263.0,0.5,76,88.0
4142,F5,263.0,0.5,76,88.0
4143,B1,263.5,0.0,85,88.0
4144,F#2,263.5,0.0,85,88.0
4145,C4,263.5,0.5,69,88.0
4146,G5,263.5,0.5,69,88.0
4147,G5,263.5,0.5,69,88.0
4148,F4,263.5,177/1000,68,88.0
4149,F3,263.5,177/1000,68,88.0
4150,F2,263.583,417/1000,94,88.0
4151,G4,263.75,0.25,88,88.0
4152,B1,264.0,0.0,108,88.0
4153,F#2,264.0,0.0,108,88.0
4154,G#2,264.0,3833/1000,99,88.0
4155,E-4,264.0,137/50,32,88.0
4156,G#2,264.0,1417/1000,88,88.0
4157,C4,264.0,4.0,55,88.0
4158,B-4,264.0,4.0,55,88.0
4159,G4,264.0,4.0,55,88.0
4160,G#3,264.0,0.5,81,88.0
4161,G#4,264.0,0.5,81,88.0
4162,G#5,264.0,0.5,81,88.0
4163,G#5,264.0,0.5,81,88.0
4164,E-4,264.0,427/1000,75,88.0
4165,G#4,264.0,427/1000,75,88.0
4166,G#5,264.0,427/1000,75,88.0
4167,G#5,264.0,427/1000,75,88.0
4168,C4,264.0,427/1000,75,88.0
4169,G3,264.0,427/1000,75,88.0
4170,C5,264.0,1917/1000,66,88.0
4171,E-5,264.0,1917/1000,66,88.0
4172,F#2,264.5,0.0,79,88.0
4173,G4,264.5,0.25,88,88.0
4174,G5,264.5,0.5,76,88.0
4175,G5,264.5,0.5,76,88.0
4176,G4,264.75,0.75,88,88.0
4177,F#2,265.0,0.0,102,88.0
4178,C#2,265.0,0.0,102,88.0
4179,G5,265.0,0.5,76,88.0
4180,G5,265.0,0.5,76,88.0
4181,G#3,265.01,13/125,54,88.0
4182,C4,265.01,13/125,54,88.0
4183,E-4,265.01,13/125,54,88.0
4184,B1,265.5,0.0,85,88.0
4185,F#2,265.5,0.0,85,88.0
4186,F4,265.5,0.5,82,88.0
4187,F5,265.5,0.5,82,88.0
4188,F5,265.5,0.5,82,88.0
4189,G#2,265.5,0.5,82,88.0
4190,E-4,265.542,0.094,56,88.0
4191,G#3,265.542,0.094,56,88.0
4192,C4,265.542,0.094,56,88.0
4193,B1,266.0,0.0,108,88.0
4194,F#2,266.0,0.0,108,88.0
4195,G#3,266.0,167/1000,51,88.0
4196,G#2,266.0,1417/1000,88,88.0
4197,F4,266.0,0.5,78,88.0
4198,D5,266.0,0.5,78,88.0
4199,F5,266.0,0.5,78,88.0
4200,D5,266.0,0.5,78,88.0
4201,F5,266.0,0.5,78,88.0
4202,G4,266.0,1917/1000,66,88.0
4203,B-4,266.0,1917/1000,66,88.0
4204,G3,266.062,0.094,62,88.0
4205,G#3,266.49,73/500,79,88.0
4206,F#2,266.5,0.0,79,88.0
4207,E-4,266.5,0.5,78,88.0
4208,C5,266.5,0.5,78,88.0
4209,E-5,266.5,0.5,78,88.0
4210,C5,266.5,0.5,78,88.0
4211,E-5,266.5,0.5,78,88.0
4212,G#3,266.958,13/125,54,88.0
4213,E-4,266.958,13/125,54,88.0
4214,C4,266.958,13/125,54,88.0
4215,F#2,267.0,0.0,102,88.0
4216,C#2,267.0,0.0,102,88.0
4217,E-4,267.0,1.0,57,88.0
4218,C4,267.0,0.5,80,88.0
4219,C5,267.0,0.5,80,88.0
4220,C5,267.0,0.5,80,88.0
4221,G#3,267.479,0.188,46,88.0
4222,B1,267.5,0.0,85,88.0
4223,F#2,267.5,0.0,85,88.0
4224,E-4,267.5,0.5,82,88.0
4225,E-5,267.5,0.5,82,88.0
4226,E-5,267.5,0.5,82,88.0
4227,G#2,267.5,0.5,82,88.0
4228,G3,267.542,83/1000,39,88.0
4229,B1,268.0,0.0,108,88.0
4230,F#2,268.0,0.0,108,88.0
4231,A3,268.0,1229/500,54,88.0
4232,A3,268.0,271/500,84,88.0
4233,G4,268.0,4.0,88,88.0
4234,G2,268.0,1417/1000,88,88.0
4235,C4,268.0,4.0,56,88.0
4236,F4,268.0,4.0,56,88.0
4237,D4,268.0,4.0,56,88.0
4238,D4,268.0,427/1000,70,88.0
4239,C4,268.0,427/1000,70,88.0
4240,F3,268.0,427/1000,70,88.0
4241,A4,268.0,2.0,76,88.0
4242,C5,268.0,2.0,76,88.0
4243,F5,268.0,2.0,76,88.0
4244,G5,268.0,2.0,76,88.0
4245,A4,268.0,2.0,76,88.0
4246,C5,268.0,2.0,76,88.0
4247,F5,268.0,2.0,76,88.0
4248,G5,268.0,2.0,76,88.0
4249,G2,268.042,3427/1000,91,88.0
4250,F#2,268.5,0.0,79,88.0
4251,F#2,269.0,0.0,102,88.0
4252,C#2,269.0,0.0,102,88.0
4253,A3,269.01,13/125,54,88.0
4254,C4,269.01,13/125,54,88.0
4255,D4,269.01,13/125,54,88.0
4256,B1,269.5,0.0,85,88.0
4257,F#2,269.5,0.0,85,88.0
4258,G2,269.5,0.5,88,88.0
4259,D4,269.542,0.094,56,88.0
4260,A3,269.542,0.094,56,88.0
4261,C4,269.542,0.094,56,88.0
4262,B1,270.0,0.0,108,88.0
4263,F#2,270.0,0.0,108,88.0
4264,A3,270.0,167/1000,51,88.0
4265,G2,270.0,1417/1000,88,88.0
4266,A3,270.0,2.0,76,88.0
4267,C4,270.0,2.0,76,88.0
4268,G4,270.0,2.0,76,88.0
4269,F4,270.0,2.0,76,88.0
4270,A3,270.0,2.0,76,88.0
4271,C4,270.0,2.0,76,88.0
4272,G4,270.0,2.0,76,88.0
4273,F4,270.0,2.0,76,88.0
4274,F3,270.062,0.094,62,88.0
4275,A3,270.49,73/500,79,88.0
4276,F#2,270.5,0.0,79,88.0
4277,A3,270.958,13/125,54,88.0
4278,D4,270.958,13/125,54,88.0
4279,C4,270.958,13/125,54,88.0
4280,F#2,271.0,0.0,102,88.0
4281,C#2,271.0,0.0,102,88.0
4282,A3,271.0,1.0,81,88.0
4283,A3,271.479,0.188,46,88.0
4284,B1,271.5,0.0,85,88.0
4285,F#2,271.5,0.0,85,88.0
4286,G2,271.5,0.5,88,88.0
4287,F3,271.542,83/1000,39,88.0
4288,G2,271.583,417/1000,94,88.0
4289,B1,272.0,0.0,108,88.0
4290,F#2,272.0,0.0,108,88.0
4291,G2,272.0,1.75,92,88.0
4292,G3,272.0,1417/1000,88,88.0
4293,G4,272.0,1.0,88,88.0
4294,C4,272.0,2.0,74,88.0
4295,F4,272.0,2.0,74,88.0
4296,F4,272.0,2.0,74,88.0
4297,A4,272.0,2.0,74,88.0
4298,D5,272.0,2.0,74,88.0
4299,C5,272.0,2.0,74,88.0
4300,F4,272.0,2.0,74,88.0
4301,A4,272.0,2.0,74,88.0
4302,D5,272.0,2.0,74,88.0
4303,C5,272.0,2.0,74,88.0
4304,A3,272.042,127/200,76,88.0
4305,F3,272.042,127/200,76,88.0
4306,F#2,272.5,0.0,79,88.0
4307,F#2,273.0,0.0,102,88.0
4308,C#2,273.0,0.0,102,88.0
4309,F3,273.0,0.344,64,88.0
4310,D4,273.0,0.344,64,88.0
4311,C4,273.0,0.344,64,88.0
4312,A3,273.0,0.344,64,88.0
4313,B1,273.5,0.0,85,88.0
4314,F#2,273.5,0.0,85,88.0
4315,G3,273.5,229/500,54,88.0
4316,A3,273.5,229/500,54,88.0
4317,F3,273.5,229/500,54,88.0
4318,B1,274.0,0.0,108,88.0
4319,F#2,274.0,0.0,108,88.0
4320,G2,274.0,479/500,78,88.0
4321,C4,274.0,479/500,78,88.0
4322,F4,274.0,479/500,78,88.0
4323,C4,274.0,479/500,78,88.0
4324,F4,274.0,479/500,78,88.0
4325,A4,274.0,479/500,78,88.0
4326,C5,274.0,479/500,78,88.0
4327,F4,274.0,479/500,78,88.0
4328,A4,274.0,479/500,78,88.0
4329,C5,274.0,479/500,78,88.0
4330,G2,274.0,479/500,78,88.0
4331,D4,274.0,0.375,68,88.0
4332,C4,274.0,0.375,68,88.0
4333,F3,274.0,0.375,68,88.0
4334,A3,274.0,0.375,68,88.0
4335,D2,274.5,0.0,96,88.0
4336,F#2,274.5,0.0,96,88.0
4337,F3,274.594,0.094,38,88.0
4338,D2,275.0,0.0,91,88.0
4339,F#2,275.0,0.0,91,88.0
4340,B3,275.0,479/500,80,88.0
4341,D4,275.0,479/500,80,88.0
4342,G4,275.0,479/500,80,88.0
4343,B4,275.0,479/500,80,88.0
4344,D5,275.0,479/500,80,88.0
4345,G4,275.0,479/500,80,88.0
4346,B4,275.0,479/500,80,88.0
4347,D5,275.0,479/500,80,88.0
4348,G3,275.0,479/500,80,88.0
4349,G2,275.0,479/500,80,88.0
4350,G4,275.0,0.375,68,88.0
4351,D4,275.0,0.375,68,88.0
4352,G3,275.0,0.375,68,88.0
4353,B3,275.0,0.375,68,88.0
4354,D2,275.25,0.0,120,88.0
4355,G4,275.49,51/100,58,88.0
4356,B1,275.5,0.0,96,88.0
4357,B-2,275.5,0.0,96,88.0
4358,G3,275.594,0.094,38,88.0
4359,B1,276.0,0.0,106,88.0
4360,F#2,276.0,0.0,106,88.0
4361,C#3,276.0,0.0,106,88.0
4362,C4,276.0,137/50,32,88.0
4363,C3,276.0,479/500,88,88.0
4364,B-3,276.0,3427/1000,64,88.0
4365,G4,276.0,3427/1000,64,88.0
4366,E-4,276.0,3427/1000,64,88.0
4367,C2,276.0,3427/1000,64,88.0
4368,E-4,276.0,1.5,78,88.0
4369,G4,276.0,1.5,78,88.0
4370,B-4,276.0,1.5,78,88.0
4371,E-5,276.0,1.5,78,88.0
4372,G4,276.0,1.5,78,88.0
4373,B-4,276.0,1.5,78,88.0
4374,E-5,276.0,1.5,78,88.0
4375,B-3,276.042,271/500,68,88.0
4376,C4,276.042,271/500,68,88.0
4377,G3,276.042,271/500,68,88.0
4378,E-3,276.042,271/500,68,88.0
4379,F#2,276.5,0.0,79,88.0
4380,F#2,277.0,0.0,102,88.0
4381,C#2,277.0,0.0,102,88.0
4382,B-3,277.042,0.312,70,88.0
4383,C4,277.042,0.312,70,88.0
4384,E-3,277.042,0.312,70,88.0
4385,G3,277.073,0.125,66,88.0
4386,B1,277.5,0.0,85,88.0
4387,F#2,277.5,0.0,85,88.0
4388,D4,277.5,0.25,80,88.0
4389,D5,277.5,0.25,80,88.0
4390,D5,277.5,0.25,80,88.0
4391,E-3,277.573,0.094,36,88.0
4392,G3,277.573,0.094,36,88.0
4393,C4,277.75,1.25,88,88.0
4394,G4,277.75,1.75,76,88.0
4395,B-4,277.75,1.75,76,88.0
4396,C5,277.75,1.75,76,88.0
4397,G4,277.75,1.75,76,88.0
4398,B-4,277.75,1.75,76,88.0
4399,C5,277.75,1.75,76,88.0
4400,C4,277.99,73/500,52,88.0
4401,E-3,277.99,73/500,52,88.0
4402,B-3,277.99,73/500,52,88.0
4403,B1,278.0,0.0,108,88.0
4404,F#2,278.0,0.0,108,88.0
4405,C3,278.0,479/500,88,88.0
4406,G3,278.042,83/1000,51,88.0
4407,F#2,278.5,0.0,79,88.0
4408,C4,278.5,0.656,68,88.0
4409,B-3,278.5,0.656,68,88.0
4410,E-3,278.5,0.656,68,88.0
4411,G3,278.51,521/1000,69,88.0
4412,F#2,279.0,0.0,102,88.0
4413,C#2,279.0,0.0,102,88.0
4414,C4,279.0,417/1000,57,88.0
4415,G2,279.0,479/500,88,88.0
4416,B1,279.5,0.0,85,88.0
4417,F#2,279.5,0.0,85,88.0
4418,G4,279.5,0.5,65,88.0
4419,E-4,279.5,0.5,65,88.0
4420,G#3,279.5,0.5,65,88.0
4421,C4,279.5,0.25,80,88.0
4422,C5,279.5,0.25,80,88.0
4423,C5,279.5,0.25,80,88.0
4424,G3,279.542,83/1000,42,88.0
4425,E-3,279.542,83/1000,42,88.0
4426,C2,279.583,417/1000,94,88.0
4427,D4,279.75,0.25,80,88.0
4428,D5,279.75,0.25,80,88.0
4429,D5,279.75,0.25,80,88.0
4430,B1,280.0,0.0,108,88.0
4431,F#2,280.0,0.0,108,88.0
4432,F2,280.0,479/500,88,88.0
4433,C4,280.0,0.375,68,88.0
4434,G#3,280.0,0.375,68,88.0
4435,E-3,280.0,0.375,68,88.0
4436,F3,280.0,0.375,68,88.0
4437,E-4,280.0,0.5,80,88.0
4438,E-5,280.0,0.5,80,88.0
4439,E-5,280.0,0.5,80,88.0
4440,G4,280.0,1917/1000,66,88.0
4441,G#4,280.0,1917/1000,66,88.0
4442,C5,280.0,1917/1000,66,88.0
4443,G4,280.0,1979/1000,65,88.0
4444,E-4,280.0,1979/1000,65,88.0
4445,G#3,280.0,1979/1000,65,88.0
4446,F2,280.042,979/500,91,88.0
4447,F#2,280.5,0.0,79,88.0
4448,E-4,280.5,0.5,80,88.0
4449,E-5,280.5,0.5,80,88.0
4450,E-5,280.5,0.5,80,88.0
4451,E-3,280.594,0.094,38,88.0
4452,F#2,281.0,0.0,102,88.0
4453,C#2,281.0,0.0,102,88.0
4454,C4,281.0,1.0,53,88.0
4455,E-4,281.0,0.5,80,88.0
4456,E-5,281.0,0.5,80,88.0
4457,E-5,281.0,0.5,80,88.0
4458,G#3,281.01,151/500,80,88.0
4459,C4,281.01,151/500,80,88.0
4460,E-3,281.01,151/500,80,88.0
4461,F3,281.01,151/500,80,88.0
4462,B1,281.5,0.0,85,88.0
4463,F#2,281.5,0.0,85,88.0
4464,F3,281.5,0.25,40,88.0
4465,E-3,281.5,0.25,40,88.0
4466,E-4,281.5,0.25,40,88.0
4467,E-5,281.5,0.5,80,88.0
4468,E-5,281.5,0.5,80,88.0
4469,F2,281.5,0.5,80,88.0
4470,E-4,281.75,0.75,88,88.0
4471,B1,282.0,0.0,108,88.0
4472,F#2,282.0,0.0,108,88.0
4473,G#4,282.0,1917/1000,66,88.0
4474,B-1,282.0,479/500,79,88.0
4475,C4,282.0,479/500,79,88.0
4476,G#4,282.0,479/500,79,88.0
4477,B-2,282.0,479/500,79,88.0
4478,E-4,282.0,573/1000,60,88.0
4479,G#3,282.0,573/1000,60,88.0
4480,C5,282.0,0.5,76,88.0
4481,E-5,282.0,0.5,76,88.0
4482,C5,282.0,0.5,76,88.0
4483,E-5,282.0,0.5,76,88.0
4484,F#2,282.5,0.0,79,88.0
4485,F4,282.5,0.5,80,88.0
4486,F5,282.5,0.5,80,88.0
4487,F5,282.5,0.5,80,88.0
4488,F#2,283.0,0.0,102,88.0
4489,C#2,283.0,0.0,102,88.0
4490,G#3,283.0,479/500,85,88.0
4491,F2,283.0,479/500,85,88.0
4492,F2,283.0,479/500,85,88.0
4493,C4,283.0,573/1000,60,88.0
4494,F3,283.0,573/1000,60,88.0
4495,D4,283.0,0.5,80,88.0
4496,D5,283.0,0.5,80,88.0
4497,D5,283.0,0.5,80,88.0
4498,F4,283.49,0.5,74,88.0
4499,C4,283.49,0.5,74,88.0
4500,C5,283.49,0.5,74,88.0
4501,C5,283.49,0.5,74,88.0
4502,B1,283.5,0.0,85,88.0
4503,F#2,283.5,0.0,85,88.0
4504,B1,284.0,0.0,108,88.0
4505,F#2,284.0,0.0,108,88.0
4506,G3,284.0,1073/500,54,88.0
4507,D4,284.0,2833/1000,52,88.0
4508,B-3,284.0,2.5,63,88.0
4509,F4,284.0,4.0,59,88.0
4510,G3,284.0,271/500,84,88.0
4511,G2,284.0,479/500,88,88.0
4512,D4,284.0,427/1000,70,88.0
4513,B-3,284.0,427/1000,70,88.0
4514,F3,284.0,427/1000,70,88.0
4515,D4,284.0,1.5,78,88.0
4516,B-4,284.0,1.5,78,88.0
4517,D5,284.0,1.5,78,88.0
4518,F4,284.0,1.5,78,88.0
4519,B-4,284.0,1.5,78,88.0
4520,D5,284.0,1.5,78,88.0
4521,F4,284.0,1.5,78,88.0
4522,G2,284.042,3427/1000,91,88.0
4523,F#2,284.5,0.0,79,88.0
4524,F#2,285.0,0.0,102,88.0
4525,C#2,285.0,0.0,102,88.0
4526,G3,285.01,13/125,54,88.0
4527,B-3,285.01,13/125,54,88.0
4528,D4,285.01,13/125,54,88.0
4529,B1,285.5,0.0,85,88.0
4530,F#2,285.5,0.0,85,88.0
4531,C4,285.5,0.25,80,88.0
4532,C5,285.5,0.25,80,88.0
4533,C5,285.5,0.25,80,88.0
4534,D4,285.542,0.094,56,88.0
4535,G3,285.542,0.094,56,88.0
4536,B-3,285.542,0.094,56,88.0
4537,B-3,285.75,1.25,88,88.0
4538,F4,285.75,1073/500,66,88.0
4539,B-4,285.75,1.75,76,88.0
4540,B-4,285.75,1.75,76,88.0
4541,B1,286.0,0.0,108,88.0
4542,F#2,286.0,0.0,108,88.0
4543,G3,286.0,167/1000,51,88.0
4544,G2,286.0,479/500,88,88.0
4545,F3,286.062,0.094,62,88.0
4546,G3,286.49,73/500,79,88.0
4547,F#2,286.5,0.0,79,88.0
4548,G3,286.5,1.5,52,88.0
4549,G3,286.958,13/125,54,88.0
4550,D4,286.958,13/125,54,88.0
4551,B-3,286.958,13/125,54,88.0
4552,F#2,287.0,0.0,102,88.0
4553,C#2,287.0,0.0,102,88.0
4554,B-3,287.0,479/500,76,88.0
4555,G2,287.0,479/500,76,88.0
4556,G3,287.479,0.188,46,88.0
4557,B1,287.5,0.0,85,88.0
4558,F#2,287.5,0.0,85,88.0
4559,D4,287.5,0.5,54,88.0
4560,B-3,287.5,0.25,80,88.0
4561,B-4,287.5,0.25,80,88.0
4562,B-4,287.5,0.25,80,88.0
4563,F3,287.542,83/1000,39,88.0
4564,G2,287.583,417/1000,94,88.0
4565,C4,287.75,0.25,80,88.0
4566,C5,287.75,0.25,80,88.0
4567,C5,287.75,0.25,80,88.0
4568,B1,288.0,0.0,108,88.0
4569,F#2,288.0,0.0,108,88.0
4570,E-2,288.0,479/500,88,88.0
4571,G3,288.0,979/500,76,88.0
4572,D4,288.0,979/500,76,88.0
4573,E-2,288.0,979/500,76,88.0
4574,D4,288.0,0.5,80,88.0
4575,D5,288.0,0.5,80,88.0
4576,D5,288.0,0.5,80,88.0
4577,F4,288.0,1917/1000,66,88.0
4578,G4,288.0,1917/1000,66,88.0
4579,B-4,288.0,1917/1000,66,88.0
4580,E-3,288.042,127/200,76,88.0
4581,D3,288.042,127/200,76,88.0
4582,F#2,288.5,0.0,79,88.0
4583,D4,288.5,0.5,80,88.0
4584,D5,288.5,0.5,80,88.0
4585,D5,288.5,0.5,80,88.0
4586,F#2,289.0,0.0,102,88.0
4587,C#2,289.0,0.0,102,88.0
4588,D3,289.0,0.344,64,88.0
4589,B-3,289.0,0.344,64,88.0
4590,G3,289.0,0.344,64,88.0
4591,E-3,289.0,0.344,64,88.0
4592,D4,289.0,0.5,80,88.0
4593,D5,289.0,0.5,80,88.0
4594,D5,289.0,0.5,80,88.0
4595,B1,289.5,0.0,85,88.0
4596,F#2,289.5,0.0,85,88.0
4597,D4,289.5,229/500,67,88.0
4598,D5,289.5,229/500,67,88.0
4599,D5,289.5,229/500,67,88.0
4600,B-2,289.5,229/500,67,88.0
4601,E-3,289.5,229/500,67,88.0
4602,D3,289.5,229/500,67,88.0
4603,B1,290.0,0.0,108,88.0
4604,F#2,290.0,0.0,108,88.0
4605,B3,290.0,99/125,62,88.0
4606,F4,290.0,73/500,36,88.0
4607,G2,290.0,479/500,88,88.0
4608,G1,290.0,2.0,68,88.0
4609,G#4,290.0,2.0,68,88.0
4610,D4,290.0,2.0,68,88.0
4611,D4,290.0,0.375,57,88.0
4612,B3,290.0,0.375,57,88.0
4613,G#3,290.0,0.375,57,88.0
4614,D4,290.0,0.5,80,88.0
4615,D5,290.0,0.5,80,88.0
4616,D5,290.0,0.5,80,88.0
4617,F4,290.0,1.438,66,88.0
4618,A4,290.0,1.438,66,88.0
4619,B-4,290.0,1.438,66,88.0
4620,B1,290.5,0.0,85,88.0
4621,F#2,290.5,0.0,85,88.0
4622,E-4,290.5,0.5,80,88.0
4623,E-5,290.5,0.5,80,88.0
4624,E-5,290.5,0.5,80,88.0
4625,F#2,291.0,0.0,102,88.0
4626,C#2,291.0,0.0,102,88.0
4627,B3,291.0,479/500,78,88.0
4628,G2,291.0,479/500,78,88.0
4629,D4,291.0,0.5,80,88.0
4630,D5,291.0,0.5,80,88.0
4631,D5,291.0,0.5,80,88.0
4632,B3,291.01,151/500,63,88.0
4633,D4,291.01,151/500,63,88.0
4634,F3,291.01,151/500,63,88.0
4635,G#3,291.01,151/500,63,88.0
4636,B1,291.5,0.0,85,88.0
4637,F#2,291.5,0.0,85,88.0
4638,F4,291.5,0.5,72,88.0
4639,C4,291.5,0.5,72,88.0
4640,C5,291.5,0.5,72,88.0
4641,C5,291.5,0.5,72,88.0
4642,C5,291.5,0.5,72,88.0
4643,F#2,291.75,0.0,68,88.0
4644,B1,292.0,0.0,108,88.0
4645,F#2,292.0,0.0,108,88.0
4646,G3,292.0,1229/500,54,88.0
4647,G3,292.0,271/500,84,88.0
4648,C3,292.0,479/500,88,88.0
4649,B-3,292.0,4.0,56,88.0
4650,E-4,292.0,4.0,56,88.0
4651,C4,292.0,4.0,56,88.0
4652,C4,292.0,427/1000,70,88.0
4653,B-3,292.0,427/1000,70,88.0
4654,E-3,292.0,427/1000,70,88.0
4655,E-4,292.0,1.5,78,88.0
4656,G4,292.0,1.5,78,88.0
4657,B-4,292.0,1.5,78,88.0
4658,E-5,292.0,1.5,78,88.0
4659,G4,292.0,1.5,78,88.0
4660,B-4,292.0,1.5,78,88.0
4661,E-5,292.0,1.5,78,88.0
4662,C2,292.042,3427/1000,91,88.0
4663,F#2,292.5,0.0,79,88.0
4664,F#2,293.0,0.0,102,88.0
4665,C#2,293.0,0.0,102,88.0
4666,G3,293.01,13/125,54,88.0
4667,B-3,293.01,13/125,54,88.0
4668,C4,293.01,13/125,54,88.0
4669,B1,293.5,0.0,85,88.0
4670,F#2,293.5,0.0,85,88.0
4671,D4,293.5,0.25,80,88.0
4672,D5,293.5,0.25,80,88.0
4673,D5,293.5,0.25,80,88.0
4674,C4,293.542,0.094,56,88.0
4675,G3,293.542,0.094,56,88.0
4676,B-3,293.542,0.094,56,88.0
4677,C4,293.75,1.25,88,88.0
4678,B-4,293.75,1.75,76,88.0
4679,G4,293.75,1.75,76,88.0
4680,C5,293.75,1.75,76,88.0
4681,B-4,293.75,1.75,76,88.0
4682,G4,293.75,1.75,76,88.0
4683,C5,293.75,1.75,76,88.0
4684,B1,294.0,0.0,108,88.0
4685,F#2,294.0,0.0,108,88.0
4686,G3,294.0,167/1000,51,88.0
4687,C3,294.0,479/500,88,88.0
4688,E-3,294.062,0.094,62,88.0
4689,G3,294.49,73/500,79,88.0
4690,F#2,294.5,0.0,79,88.0
4691,G3,294.958,13/125,54,88.0
4692,C4,294.958,13/125,54,88.0
4693,B-3,294.958,13/125,54,88.0
4694,F#2,295.0,0.0,102,88.0
4695,C#2,295.0,0.0,102,88.0
4696,G3,295.0,479/500,84,88.0
4697,G2,295.0,479/500,84,88.0
4698,G3,295.479,0.188,46,88.0
4699,B1,295.5,0.0,85,88.0
4700,F#2,295.5,0.0,85,88.0
4701,C4,295.5,0.25,80,88.0
4702,C5,295.5,0.25,80,88.0
4703,C5,295.5,0.25,80,88.0
4704,E-3,295.542,83/1000,39,88.0
4705,C2,295.583,417/1000,94,88.0
4706,D4,295.75,0.25,80,88.0
4707,D5,295.75,0.25,80,88.0
4708,D5,295.75,0.25,80,88.0
4709,B1,296.0,0.0,108,88.0
4710,F#2,296.0,0.0,108,88.0
4711,F2,296.0,1.75,92,88.0
4712,F2,296.0,479/500,88,88.0
4713,G4,296.0,2.0,65,88.0
4714,E-4,296.0,2.0,65,88.0
4715,G#3,296.0,2.0,65,88.0
4716,C4,296.0,0.375,68,88.0
4717,G#3,296.0,0.375,68,88.0
4718,E-3,296.0,0.375,68,88.0
4719,F3,296.0,0.375,68,88.0
4720,E-4,296.0,0.5,80,88.0
4721,E-5,296.0,0.5,80,88.0
4722,E-5,296.0,0.5,80,88.0
4723,G4,296.0,1917/1000,66,88.0
4724,G#4,296.0,1917/1000,66,88.0
4725,C5,296.0,1917/1000,66,88.0
4726,F#2,296.5,0.0,79,88.0
4727,E-4,296.5,0.5,80,88.0
4728,E-5,296.5,0.5,80,88.0
4729,E-5,296.5,0.5,80,88.0
4730,E-3,296.594,0.094,38,88.0
4731,F#2,297.0,0.0,102,88.0
4732,C#2,297.0,0.0,102,88.0
4733,C4,297.0,1.0,53,88.0
4734,E-4,297.0,0.5,80,88.0
4735,E-5,297.0,0.5,80,88.0
4736,E-5,297.0,0.5,80,88.0
4737,G#3,297.01,151/500,80,88.0
4738,C4,297.01,151/500,80,88.0
4739,E-3,297.01,151/500,80,88.0
4740,F3,297.01,151/500,80,88.0
4741,B1,297.5,0.0,85,88.0
4742,F#2,297.5,0.0,85,88.0
4743,F3,297.5,0.25,40,88.0
4744,E-3,297.5,0.25,40,88.0
4745,E-4,297.5,0.25,40,88.0
4746,E-5,297.5,0.5,80,88.0
4747,E-5,297.5,0.5,80,88.0
4748,F2,297.5,0.5,80,88.0
4749,E-4,297.75,0.75,88,88.0
4750,B1,298.0,0.0,108,88.0
4751,F#2,298.0,0.0,108,88.0
4752,G#4,298.0,1917/1000,66,88.0
4753,C4,298.0,479/500,79,88.0
4754,G#4,298.0,479/500,79,88.0
4755,B-2,298.0,479/500,79,88.0
4756,B-1,298.0,479/500,79,88.0
4757,G#4,298.0,0.375,68,88.0
4758,E-4,298.0,0.375,68,88.0
4759,G#3,298.0,0.375,68,88.0
4760,C4,298.0,0.375,68,88.0
4761,E-5,298.0,0.5,76,88.0
4762,E-5,298.0,0.5,76,88.0
4763,F#2,298.5,0.0,79,88.0
4764,F4,298.5,0.5,80,88.0
4765,F5,298.5,0.5,80,88.0
4766,F5,298.5,0.5,80,88.0
4767,G#3,298.594,0.094,38,88.0
4768,F#2,299.0,0.0,102,88.0
4769,C#2,299.0,0.0,102,88.0
4770,F2,299.0,479/500,79,88.0
4771,G#3,299.0,479/500,79,88.0
4772,F4,299.0,479/500,79,88.0
4773,F2,299.0,479/500,79,88.0
4774,F4,299.0,0.375,68,88.0
4775,C4,299.0,0.375,68,88.0
4776,F3,299.0,0.375,68,88.0
4777,G#3,299.0,0.375,68,88.0
4778,D4,299.0,0.5,80,88.0
4779,D5,299.0,0.5,80,88.0
4780,D5,299.0,0.5,80,88.0
4781,B1,299.5,0.0,85,88.0
4782,F#2,299.5,0.0,85,88.0
4783,C4,299.5,0.5,80,88.0
4784,C5,299.5,0.5,80,88.0
4785,C5,299.5,0.5,80,88.0
4786,F3,299.594,0.094,38,88.0
4787,B1,300.0,0.0,108,88.0
4788,F#2,300.0,0.0,108,88.0
4789,G3,300.0,1229/500,54,88.0
4790,G3,300.0,271/500,84,88.0
4791,G2,300.0,479/500,88,88.0
4792,B-3,300.0,4.0,56,88.0
4793,F4,300.0,4.0,56,88.0
4794,D4,300.0,4.0,56,88.0
4795,D4,300.0,427/1000,70,88.0
4796,B-3,300.0,427/1000,70,88.0
4797,F3,300.0,427/1000,70,88.0
4798,D4,300.0,1.5,78,88.0
4799,F4,300.0,1.5,78,88.0
4800,B-4,300.0,1.5,78,88.0
4801,D5,300.0,1.5,78,88.0
4802,F4,300.0,1.5,78,88.0
4803,B-4,300.0,1.5,78,88.0
4804,D5,300.0,1.5,78,88.0
4805,G2,300.042,3427/1000,91,88.0
4806,F#2,300.5,0.0,79,88.0
4807,F#2,301.0,0.0,102,88.0
4808,C#2,301.0,0.0,102,88.0
4809,G3,301.01,13/125,54,88.0
4810,B-3,301.01,13/125,54,88.0
4811,D4,301.01,13/125,54,88.0
4812,B1,301.5,0.0,85,88.0
4813,F#2,301.5,0.0,85,88.0
4814,C4,301.5,0.5,78,88.0
4815,G#4,301.5,0.5,78,88.0
4816,C5,301.5,0.5,78,88.0
4817,G#4,301.5,0.5,78,88.0
4818,C5,301.5,0.5,78,88.0
4819,D4,301.542,0.094,56,88.0
4820,G3,301.542,0.094,56,88.0
4821,B-3,301.542,0.094,56,88.0
4822,B1,302.0,0.0,108,88.0
4823,F#2,302.0,0.0,108,88.0
4824,G3,302.0,167/1000,51,88.0
4825,B-3,302.0,479/500,88,88.0
4826,G2,302.0,479/500,88,88.0
4827,F4,302.0,1.5,76,88.0
4828,B-4,302.0,1.5,76,88.0
4829,F4,302.0,1.5,76,88.0
4830,B-4,302.0,1.5,76,88.0
4831,F3,302.062,0.094,62,88.0
4832,G3,302.49,73/500,79,88.0
4833,F#2,302.5,0.0,79,88.0
4834,G3,302.958,13/125,54,88.0
4835,D4,302.958,13/125,54,88.0
4836,B-3,302.958,13/125,54,88.0
4837,F#2,303.0,0.0,102,88.0
4838,C#2,303.0,0.0,102,88.0
4839,G3,303.0,479/500,84,88.0
4840,G2,303.0,479/500,84,88.0
4841,G3,303.479,0.188,46,88.0
4842,B1,303.5,0.0,85,88.0
4843,F#2,303.5,0.0,85,88.0
4844,B-3,303.5,0.25,80,88.0
4845,B-4,303.5,0.25,80,88.0
4846,B-4,303.5,0.25,80,88.0
4847,F3,303.542,83/1000,39,88.0
4848,G2,303.583,417/1000,94,88.0
4849,C4,303.75,0.25,80,88.0
4850,C5,303.75,0.25,80,88.0
4851,C5,303.75,0.25,80,88.0
4852,B1,304.0,0.0,108,88.0
4853,F#2,304.0,0.0,108,88.0
4854,A4,304.0,979/500,71,88.0
4855,F4,304.0,979/500,71,88.0
4856,C4,304.0,979/500,71,88.0
4857,D2,304.0,979/500,71,88.0
4858,D4,304.0,0.5,80,88.0
4859,D5,304.0,0.5,80,88.0
4860,D5,304.0,0.5,80,88.0
4861,F4,304.0,1.875,73,88.0
4862,A4,304.0,1.875,73,88.0
4863,D3,304.0,1.875,73,88.0
4864,A3,304.042,127/200,76,88.0
4865,F3,304.042,127/200,76,88.0
4866,F#2,304.5,0.0,79,88.0
4867,D4,304.5,0.5,80,88.0
4868,D5,304.5,0.5,80,88.0
4869,D5,304.5,0.5,80,88.0
4870,F#2,305.0,0.0,102,88.0
4871,C#2,305.0,0.0,102,88.0
4872,D4,305.0,1.0,53,88.0
4873,F3,305.0,0.344,64,88.0
4874,D4,305.0,0.344,64,88.0
4875,C4,305.0,0.344,64,88.0
4876,A3,305.0,0.344,64,88.0
4877,D4,305.0,0.5,80,88.0
4878,D5,305.0,0.5,80,88.0
4879,D5,305.0,0.5,80,88.0
4880,B1,305.5,0.0,85,88.0
4881,F#2,305.5,0.0,85,88.0
4882,D4,305.5,229/500,63,88.0
4883,D5,305.5,229/500,63,88.0
4884,D5,305.5,229/500,63,88.0
4885,A3,305.5,229/500,63,88.0
4886,F3,305.5,229/500,63,88.0
4887,B1,306.0,0.0,108,88.0
4888,F#2,306.0,0.0,108,88.0
4889,G#4,306.0,979/500,71,88.0
4890,F4,306.0,979/500,71,88.0
4891,B3,306.0,979/500,71,88.0
4892,G2,306.0,979/500,71,88.0
4893,D4,306.0,0.375,68,88.0
4894,B3,306.0,0.375,68,88.0
4895,F3,306.0,0.375,68,88.0
4896,G#3,306.0,0.375,68,88.0
4897,D4,306.0,0.5,78,88.0
4898,B4,306.0,0.5,78,88.0
4899,D5,306.0,0.5,78,88.0
4900,B4,306.0,0.5,78,88.0
4901,D5,306.0,0.5,78,88.0
4902,F4,306.0,1.875,77,88.0
4903,G2,306.0,1.875,77,88.0
4904,D2,306.5,0.0,102,88.0
4905,E-4,306.5,0.5,78,88.0
4906,C5,306.5,0.5,78,88.0
4907,E-5,306.5,0.5,78,88.0
4908,C5,306.5,0.5,78,88.0
4909,E-5,306.5,0.5,78,88.0
4910,F3,306.594,0.094,38,88.0
4911,D2,307.0,0.0,114,88.0
4912,D4,307.0,1.0,53,88.0
4913,D4,307.0,0.281,76,88.0
4914,B4,307.0,0.281,76,88.0
4915,D5,307.0,0.281,76,88.0
4916,B4,307.0,0.281,76,88.0
4917,D5,307.0,0.281,76,88.0
4918,F3,307.0,0.281,76,88.0
4919,B3,307.01,151/500,80,88.0
4920,D4,307.01,151/500,80,88.0
4921,F3,307.01,151/500,80,88.0
4922,G#3,307.01,151/500,80,88.0
4923,C4,307.25,0.75,80,88.0
4924,C5,307.25,0.75,80,88.0
4925,C5,307.25,0.75,80,88.0
4926,B1,307.5,0.0,106,88.0
4927,D2,307.5,0.0,106,88.0
4928,G#3,307.5,0.188,16,88.0
4929,F3,307.5,0.188,16,88.0
4930,D2,307.75,0.0,102,88.0
4931,B1,308.0,0.0,106,88.0
4932,F#2,308.0,0.0,106,88.0
4933,C#3,308.0,0.0,106,88.0
4934,C2,308.0,1677/500,109,88.0
4935,G3,308.0,1229/500,54,88.0
4936,C3,308.0,479/500,88,88.0
4937,B-3,308.0,4.0,56,88.0
4938,E-4,308.0,4.0,56,88.0
4939,C4,308.0,4.0,56,88.0
4940,E-4,308.0,1.5,78,88.0
4941,G4,308.0,1.5,78,88.0
4942,B-4,308.0,1.5,78,88.0
4943,E-5,308.0,1.5,78,88.0
4944,G4,308.0,1.5,78,88.0
4945,B-4,308.0,1.5,78,88.0
4946,E-5,308.0,1.5,78,88.0
4947,B-3,308.042,271/500,68,88.0
4948,C4,308.042,271/500,68,88.0
4949,G3,308.042,271/500,68,88.0
4950,E-3,308.042,271/500,68,88.0
4951,F#2,308.5,0.0,79,88.0
4952,F#2,309.0,0.0,102,88.0
4953,C#2,309.0,0.0,102,88.0
4954,B-3,309.042,0.312,70,88.0
4955,C4,309.042,0.312,70,88.0
4956,E-3,309.042,0.312,70,88.0
4957,G3,309.073,0.125,66,88.0
4958,B1,309.5,0.0,85,88.0
4959,F#2,309.5,0.0,85,88.0
4960,D4,309.5,0.25,80,88.0
4961,D5,309.5,0.25,80,88.0
4962,D5,309.5,0.25,80,88.0
4963,E-3,309.573,0.094,36,88.0
4964,G3,309.573,0.094,36,88.0
4965,C4,309.75,1.25,88,88.0
4966,G4,309.75,1.75,76,88.0
4967,B-4,309.75,1.75,76,88.0
4968,C5,309.75,1.75,76,88.0
4969,G4,309.75,1.75,76,88.0
4970,B-4,309.75,1.75,76,88.0
4971,C5,309.75,1.75,76,88.0
4972,C4,309.99,73/500,52,88.0
4973,E-3,309.99,73/500,52,88.0
4974,B-3,309.99,73/500,52,88.0
4975,B1,310.0,0.0,108,88.0
4976,F#2,310.0,0.0,108,88.0
4977,C3,310.0,479/500,88,88.0
4978,G3,310.042,83/1000,51,88.0
4979,F#2,310.5,0.0,79,88.0
4980,C4,310.5,0.656,68,88.0
4981,B-3,310.5,0.656,68,88.0
4982,E-3,310.5,0.656,68,88.0
4983,G3,310.51,521/1000,69,88.0
4984,F#2,311.0,0.0,102,88.0
4985,C#2,311.0,0.0,102,88.0
4986,G3,311.0,479/500,84,88.0
4987,G2,311.0,479/500,84,88.0
4988,C2,311.469,0.25,79,88.0
4989,C4,311.469,0.25,79,88.0
4990,C5,311.469,0.25,79,88.0
4991,C5,311.469,0.25,79,88.0
4992,B1,311.5,0.0,85,88.0
4993,F#2,311.5,0.0,85,88.0
4994,G3,311.542,83/1000,42,88.0
4995,E-3,311.542,83/1000,42,88.0
4996,D4,311.75,0.25,80,88.0
4997,D5,311.75,0.25,80,88.0
4998,D5,311.75,0.25,80,88.0
4999,B1,312.0,0.0,108,88.0
5000,F#2,312.0,0.0,108,88.0
5001,F2,312.0,479/500,88,88.0
5002,G#3,312.0,979/500,76,88.0
5003,E-4,312.0,979/500,76,88.0
5004,F2,312.0,979/500,76,88.0
5005,C4,312.0,0.375,68,88.0
5006,G#3,312.0,0.375,68,88.0
5007,E-3,312.0,0.375,68,88.0
5008,F3,312.0,0.375,68,88.0
5009,E-4,312.0,0.5,80,88.0
5010,E-5,312.0,0.5,80,88.0
5011,E-5,312.0,0.5,80,88.0
5012,G4,312.0,1917/1000,66,88.0
5013,G#4,312.0,1917/1000,66,88.0
5014,C5,312.0,1917/1000,66,88.0
5015,F#2,312.5,0.0,79,88.0
5016,E-4,312.5,0.5,80,88.0
5017,E-5,312.5,0.5,80,88.0
5018,E-5,312.5,0.5,80,88.0
5019,E-3,312.594,0.094,38,88.0
5020,F#2,313.0,0.0,102,88.0
5021,C#2,313.0,0.0,102,88.0
5022,E-4,313.0,0.5,80,88.0
5023,E-5,313.0,0.5,80,88.0
5024,E-5,313.0,0.5,80,88.0
5025,G#3,313.01,151/500,80,88.0
5026,C4,313.01,151/500,80,88.0
5027,E-3,313.01,151/500,80,88.0
5028,F3,313.01,151/500,80,88.0
5029,B1,313.5,0.0,85,88.0
5030,F#2,313.5,0.0,85,88.0
5031,F3,313.5,0.25,40,88.0
5032,E-3,313.5,0.25,40,88.0
5033,E-4,313.5,0.25,40,88.0
5034,E-5,313.5,0.5,80,88.0
5035,E-5,313.5,0.5,80,88.0
5036,F2,313.5,0.5,80,88.0
5037,E-4,313.75,0.75,88,88.0
5038,B1,314.0,0.0,108,88.0
5039,F#2,314.0,0.0,108,88.0
5040,G#4,314.0,1917/1000,66,88.0
5041,B-1,314.0,479/500,79,88.0
5042,C4,314.0,479/500,79,88.0
5043,G#4,314.0,479/500,79,88.0
5044,B-2,314.0,479/500,79,88.0
5045,E-4,314.0,573/1000,60,88.0
5046,G#3,314.0,573/1000,60,88.0
5047,C5,314.0,0.5,76,88.0
5048,E-5,314.0,0.5,76,88.0
5049,C5,314.0,0.5,76,88.0
5050,E-5,314.0,0.5,76,88.0
5051,F#2,314.5,0.0,79,88.0
5052,F4,314.5,0.5,80,88.0
5053,F5,314.5,0.5,80,88.0
5054,F5,314.5,0.5,80,88.0
5055,F#2,315.0,0.0,102,88.0
5056,C#2,315.0,0.0,102,88.0
5057,F2,315.0,479/500,79,88.0
5058,G#3,315.0,479/500,79,88.0
5059,F4,315.0,479/500,79,88.0
5060,F2,315.0,479/500,79,88.0
5061,F4,315.0,0.375,68,88.0
5062,C4,315.0,0.375,68,88.0
5063,F3,315.0,0.375,68,88.0
5064,G#3,315.0,0.375,68,88.0
5065,D4,315.0,0.5,80,88.0
5066,D5,315.0,0.5,80,88.0
5067,D5,315.0,0.5,80,88.0
5068,B1,315.5,0.0,85,88.0
5069,F#2,315.5,0.0,85,88.0
5070,C4,315.5,0.5,80,88.0
5071,C5,315.5,0.5,80,88.0
5072,C5,315.5,0.5,80,88.0
5073,F3,315.594,0.094,38,88.0
5074,B1,316.0,0.0,108,88.0
5075,F#2,316.0,0.0,108,88.0
5076,G3,316.0,1229/500,54,88.0
5077,G2,316.0,479/500,88,88.0
5078,B-3,316.0,3979/1000,65,88.0
5079,F4,316.0,3979/1000,65,88.0
5080,D4,316.0,3979/1000,65,88.0
5081,G2,316.0,3979/1000,65,88.0
5082,D4,316.0,1.5,78,88.0
5083,B-4,316.0,1.5,78,88.0
5084,D5,316.0,1.5,78,88.0
5085,F4,316.0,1.5,78,88.0
5086,B-4,316.0,1.5,78,88.0
5087,D5,316.0,1.5,78,88.0
5088,F4,316.0,1.5,78,88.0
5089,B-3,316.042,271/500,68,88.0
5090,D4,316.042,271/500,68,88.0
5091,G3,316.042,271/500,68,88.0
5092,F3,316.042,271/500,68,88.0
5093,F#2,316.5,0.0,79,88.0
5094,F#2,317.0,0.0,102,88.0
5095,C#2,317.0,0.0,102,88.0
5096,B-3,317.042,0.312,70,88.0
5097,D4,317.042,0.312,70,88.0
5098,F3,317.042,0.312,70,88.0
5099,G3,317.073,0.125,66,88.0
5100,B1,317.5,0.0,85,88.0
5101,F#2,317.5,0.0,85,88.0
5102,C4,317.5,0.25,80,88.0
5103,C5,317.5,0.25,80,88.0
5104,C5,317.5,0.25,80,88.0
5105,F3,317.573,0.094,36,88.0
5106,G3,317.573,0.094,36,88.0
5107,B-3,317.75,1.25,88,88.0
5108,F4,317.75,1073/500,66,88.0
5109,B-4,317.75,1.75,76,88.0
5110,B-4,317.75,1.75,76,88.0
5111,D4,317.99,73/500,52,88.0
5112,F3,317.99,73/500,52,88.0
5113,B-3,317.99,73/500,52,88.0
5114,B1,318.0,0.0,108,88.0
5115,F#2,318.0,0.0,108,88.0
5116,G2,318.0,479/500,88,88.0
5117,G3,318.042,83/1000,51,88.0
5118,F#2,318.5,0.0,79,88.0
5119,D4,318.5,0.656,68,88.0
5120,B-3,318.5,0.656,68,88.0
5121,F3,318.5,0.656,68,88.0
5122,G3,318.51,521/1000,69,88.0
5123,F#2,319.0,0.0,102,88.0
5124,C#2,319.0,0.0,102,88.0
5125,G3,319.0,479/500,84,88.0
5126,G2,319.0,479/500,84,88.0
5127,B1,319.5,0.0,85,88.0
5128,F#2,319.5,0.0,85,88.0
5129,B-3,319.5,0.25,80,88.0
5130,B-4,319.5,0.25,80,88.0
5131,B-4,319.5,0.25,80,88.0
5132,G3,319.542,83/1000,42,88.0
5133,F3,319.542,83/1000,42,88.0
5134,C4,319.75,0.25,80,88.0
5135,C5,319.75,0.25,80,88.0
5136,C5,319.75,0.25,80,88.0
5137,B1,320.0,0.0,108,88.0
5138,F#2,320.0,0.0,108,88.0
5139,G3,320.0,99/125,62,88.0
5140,D4,320.0,73/500,36,88.0
5141,E-2,320.0,479/500,88,88.0
5142,F4,320.0,979/500,72,88.0
5143,B-3,320.0,979/500,72,88.0
5144,E-2,320.0,979/500,72,88.0
5145,B-3,320.0,0.375,68,88.0
5146,G3,320.0,0.375,68,88.0
5147,D3,320.0,0.375,68,88.0
5148,E-3,320.0,0.375,68,88.0
5149,D4,320.0,0.5,80,88.0
5150,D5,320.0,0.5,80,88.0
5151,D5,320.0,0.5,80,88.0
5152,F4,320.0,1917/1000,66,88.0
5153,G4,320.0,1917/1000,66,88.0
5154,B-4,320.0,1917/1000,66,88.0
5155,F#2,320.5,0.0,79,88.0
5156,D4,320.5,0.5,80,88.0
5157,D5,320.5,0.5,80,88.0
5158,D5,320.5,0.5,80,88.0
5159,D3,320.594,0.094,38,88.0
5160,F#2,321.0,0.0,102,88.0
5161,C#2,321.0,0.0,102,88.0
5162,G3,321.0,1.0,68,88.0
5163,D4,321.0,0.5,80,88.0
5164,D5,321.0,0.5,80,88.0
5165,D5,321.0,0.5,80,88.0
5166,G3,321.01,151/500,80,88.0
5167,B-3,321.01,151/500,80,88.0
5168,D3,321.01,151/500,80,88.0
5169,E-3,321.01,151/500,80,88.0
5170,B1,321.5,0.0,85,88.0
5171,F#2,321.5,0.0,85,88.0
5172,D4,321.5,0.5,76,88.0
5173,D4,321.5,0.5,76,88.0
5174,D5,321.5,0.5,76,88.0
5175,D5,321.5,0.5,76,88.0
5176,B-2,321.5,0.5,76,88.0
5177,E-3,321.5,0.188,16,88.0
5178,D3,321.5,0.188,16,88.0
5179,B1,322.0,0.0,108,88.0
5180,F#2,322.0,0.0,108,88.0
5181,B3,322.0,771/1000,70,88.0
5182,G2,322.0,479/500,88,88.0
5183,G1,322.0,2.0,72,88.0
5184,G#4,322.0,2.0,72,88.0
5185,F4,322.0,2.0,72,88.0
5186,B3,322.0,2.0,72,88.0
5187,D4,322.0,0.5,80,88.0
5188,D5,322.0,0.5,80,88.0
5189,D5,322.0,0.5,80,88.0
5190,F4,322.0,1.438,66,88.0
5191,A4,322.0,1.438,66,88.0
5192,B-4,322.0,1.438,66,88.0
5193,F#2,322.5,0.0,79,88.0
5194,E-4,322.5,0.5,80,88.0
5195,E-5,322.5,0.5,80,88.0
5196,E-5,322.5,0.5,80,88.0
5197,F#2,323.0,0.0,102,88.0
5198,C#2,323.0,0.0,102,88.0
5199,G#3,323.0,0.406,68,88.0
5200,D4,323.0,479/500,70,88.0
5201,G2,323.0,479/500,70,88.0
5202,D4,323.0,49/100,73,88.0
5203,D5,323.0,49/100,73,88.0
5204,D5,323.0,49/100,73,88.0
5205,F3,323.0,49/100,73,88.0
5206,B1,323.5,0.0,85,88.0
5207,F#2,323.5,0.0,85,88.0
5208,C4,323.5,0.5,76,88.0
5209,C5,323.5,0.5,76,88.0
5210,C5,323.5,0.5,76,88.0
5211,C5,323.5,0.5,76,88.0
5212,B3,323.521,6/25,49,88.0
5213,B1,324.0,0.0,108,88.0
5214,F#2,324.0,0.0,108,88.0
5215,C4,324.0,137/50,32,88.0
5216,C3,324.0,479/500,88,88.0
5217,B-3,324.0,4.0,55,88.0
5218,G4,324.0,4.0,55,88.0
5219,E-4,324.0,4.0,55,88.0
5220,B-3,324.0,323/500,65,88.0
5221,G3,324.0,323/500,65,88.0
5222,E-3,324.0,323/500,65,88.0
5223,E-4,324.0,1.5,78,88.0
5224,G4,324.0,1.5,78,88.0
5225,B-4,324.0,1.5,78,88.0
5226,E-5,324.0,1.5,78,88.0
5227,G4,324.0,1.5,78,88.0
5228,B-4,324.0,1.5,78,88.0
5229,E-5,324.0,1.5,78,88.0
5230,C2,324.042,3427/1000,85,88.0
5231,F#2,324.5,0.0,79,88.0
5232,F#2,325.0,0.0,102,88.0
5233,C#2,325.0,0.0,102,88.0
5234,B-3,325.031,77/200,67,88.0
5235,B1,325.5,0.0,85,88.0
5236,F#2,325.5,0.0,85,88.0
5237,D4,325.5,0.156,73,88.0
5238,D5,325.5,0.156,73,88.0
5239,D5,325.5,0.156,73,88.0
5240,E-3,325.5,0.156,73,88.0
5241,C4,325.75,1.25,88,88.0
5242,B-4,325.75,1.75,76,88.0
5243,G4,325.75,1.75,76,88.0
5244,C5,325.75,1.75,76,88.0
5245,B-4,325.75,1.75,76,88.0
5246,G4,325.75,1.75,76,88.0
5247,C5,325.75,1.75,76,88.0
5248,B1,326.0,0.0,108,88.0
5249,F#2,326.0,0.0,108,88.0
5250,C3,326.0,479/500,88,88.0
5251,B-3,326.021,13/50,54,88.0
5252,G3,326.021,13/50,54,88.0
5253,F#2,326.5,0.0,79,88.0
5254,B-3,326.51,349/500,61,88.0
5255,F#2,327.0,0.0,102,88.0
5256,C#2,327.0,0.0,102,88.0
5257,C4,327.0,479/500,72,88.0
5258,G2,327.0,479/500,72,88.0
5259,B1,327.5,0.0,85,88.0
5260,F#2,327.5,0.0,85,88.0
5261,C4,327.5,0.25,80,88.0
5262,C5,327.5,0.25,80,88.0
5263,C5,327.5,0.25,80,88.0
5264,C2,327.583,417/1000,66,88.0
5265,D4,327.75,0.25,80,88.0
5266,D5,327.75,0.25,80,88.0
5267,D5,327.75,0.25,80,88.0
5268,B1,328.0,0.0,108,88.0
5269,F#2,328.0,0.0,108,88.0
5270,F2,328.0,479/500,88,88.0
5271,G#3,328.0,979/500,67,88.0
5272,E-4,328.0,979/500,67,88.0
5273,F2,328.0,979/500,67,88.0
5274,C4,328.0,0.375,57,88.0
5275,G#3,328.0,0.375,57,88.0
5276,F3,328.0,0.375,57,88.0
5277,E-4,328.0,0.5,80,88.0
5278,E-5,328.0,0.5,80,88.0
5279,E-5,328.0,0.5,80,88.0
5280,G4,328.0,1917/1000,66,88.0
5281,G#4,328.0,1917/1000,66,88.0
5282,C5,328.0,1917/1000,66,88.0
5283,F#2,328.5,0.0,79,88.0
5284,E-4,328.5,0.5,80,88.0
5285,E-5,328.5,0.5,80,88.0
5286,E-5,328.5,0.5,80,88.0
5287,F#2,329.0,0.0,102,88.0
5288,C#2,329.0,0.0,102,88.0
5289,E-4,329.0,0.5,80,88.0
5290,E-5,329.0,0.5,80,88.0
5291,E-5,329.0,0.5,80,88.0
5292,G#3,329.01,151/500,63,88.0
5293,C4,329.01,151/500,63,88.0
5294,E-3,329.01,151/500,63,88.0
5295,F3,329.01,151/500,63,88.0
5296,B1,329.5,0.0,85,88.0
5297,F#2,329.5,0.0,85,88.0
5298,E-4,329.5,0.25,88,88.0
5299,E-5,329.5,0.5,80,88.0
5300,E-5,329.5,0.5,80,88.0
5301,F2,329.5,0.5,80,88.0
5302,E-4,329.75,0.75,88,88.0
5303,B1,330.0,0.0,108,88.0
5304,F#2,330.0,0.0,108,88.0
5305,G#4,330.0,1917/1000,66,88.0
5306,C4,330.0,479/500,70,88.0
5307,G#4,330.0,479/500,70,88.0
5308,B-2,330.0,479/500,70,88.0
5309,B-1,330.0,479/500,70,88.0
5310,G#4,330.0,0.375,68,88.0
5311,E-4,330.0,0.375,68,88.0
5312,G#3,330.0,0.375,68,88.0
5313,C4,330.0,0.375,68,88.0
5314,E-5,330.0,0.5,76,88.0
5315,E-5,330.0,0.5,76,88.0
5316,B1,330.5,0.0,85,88.0
5317,F#2,330.5,0.0,85,88.0
5318,F4,330.5,0.5,80,88.0
5319,F5,330.5,0.5,80,88.0
5320,F5,330.5,0.5,80,88.0
5321,G#3,330.594,0.094,38,88.0
5322,F#2,331.0,0.0,102,88.0
5323,C#2,331.0,0.0,102,88.0
5324,F2,331.0,479/500,68,88.0
5325,G#3,331.0,479/500,68,88.0
5326,F4,331.0,479/500,68,88.0
5327,F2,331.0,479/500,68,88.0
5328,F4,331.0,0.375,68,88.0
5329,C4,331.0,0.375,68,88.0
5330,F3,331.0,0.375,68,88.0
5331,G#3,331.0,0.375,68,88.0
5332,D4,331.0,0.5,80,88.0
5333,D5,331.0,0.5,80,88.0
5334,D5,331.0,0.5,80,88.0
5335,B1,331.5,0.0,85,88.0
5336,F#2,331.5,0.0,85,88.0
5337,C4,331.5,0.5,80,88.0
5338,C5,331.5,0.5,80,88.0
5339,C5,331.5,0.5,80,88.0
5340,F3,331.594,0.094,38,88.0
5341,F#2,331.75,0.0,68,88.0
5342,B1,332.0,0.0,108,88.0
5343,F#2,332.0,0.0,108,88.0
5344,G2,332.0,3833/1000,41,88.0
5345,G3,332.0,1073/500,54,88.0
5346,D4,332.0,2833/1000,52,88.0
5347,B-3,332.0,2.5,63,88.0
5348,F4,332.0,4.0,59,88.0
5349,F3,332.0,223/200,81,88.0
5350,G2,332.0,479/500,88,88.0
5351,D4,332.0,1.5,78,88.0
5352,F4,332.0,1.5,78,88.0
5353,B-4,332.0,1.5,78,88.0
5354,D5,332.0,1.5,78,88.0
5355,F4,332.0,1.5,78,88.0
5356,B-4,332.0,1.5,78,88.0
5357,D5,332.0,1.5,78,88.0
5358,G3,332.021,151/250,70,88.0
5359,F#2,332.5,0.0,79,88.0
5360,B-3,332.958,26/125,73,88.0
5361,D4,332.958,26/125,73,88.0
5362,G3,332.958,26/125,73,88.0
5363,F#2,333.0,0.0,102,88.0
5364,C#2,333.0,0.0,102,88.0
5365,B-3,333.458,333/1000,91,88.0
5366,B1,333.5,0.0,85,88.0
5367,F#2,333.5,0.0,85,88.0
5368,C4,333.5,0.5,78,88.0
5369,G#4,333.5,0.5,78,88.0
5370,C5,333.5,0.5,78,88.0
5371,G#4,333.5,0.5,78,88.0
5372,C5,333.5,0.5,78,88.0
5373,G3,333.542,73/500,27,88.0
5374,F3,333.99,417/1000,39,88.0
5375,B1,334.0,0.0,108,88.0
5376,F#2,334.0,0.0,108,88.0
5377,B-3,334.0,479/500,88,88.0
5378,G2,334.0,479/500,88,88.0
5379,F4,334.0,1.5,76,88.0
5380,B-4,334.0,1.5,76,88.0
5381,F4,334.0,1.5,76,88.0
5382,B-4,334.0,1.5,76,88.0
5383,D4,334.469,73/200,77,88.0
5384,B-3,334.469,73/200,77,88.0
5385,F#2,334.5,0.0,79,88.0
5386,G3,334.5,1.5,52,88.0
5387,F#2,335.0,0.0,102,88.0
5388,C#2,335.0,0.0,102,88.0
5389,G3,335.0,0.219,57,88.0
5390,B-3,335.0,479/500,76,88.0
5391,G2,335.0,479/500,76,88.0
5392,B1,335.5,0.0,85,88.0
5393,F#2,335.5,0.0,85,88.0
5394,D4,335.5,0.5,54,88.0
5395,B-3,335.5,177/1000,72,88.0
5396,B-4,335.5,177/1000,72,88.0
5397,B-4,335.5,177/1000,72,88.0
5398,G3,335.5,177/1000,72,88.0
5399,C4,335.75,0.25,80,88.0
5400,C5,335.75,0.25,80,88.0
5401,C5,335.75,0.25,80,88.0
5402,B1,336.0,0.0,108,88.0
5403,F#2,336.0,0.0,108,88.0
5404,C4,336.0,979/500,53,88.0
5405,F4,336.0,979/500,53,88.0
5406,D2,336.0,979/500,53,88.0
5407,D4,336.0,0.5,80,88.0
5408,D5,336.0,0.5,80,88.0
5409,D5,336.0,0.5,80,88.0
5410,F4,336.0,1.875,73,88.0
5411,A4,336.0,1.875,73,88.0
5412,D3,336.0,1.875,73,88.0
5413,A3,336.042,127/200,76,88.0
5414,F3,336.042,127/200,76,88.0
5415,F#2,336.5,0.0,79,88.0
5416,D4,336.5,0.5,80,88.0
5417,D5,336.5,0.5,80,88.0
5418,D5,336.5,0.5,80,88.0
5419,F#2,337.0,0.0,102,88.0
5420,C#2,337.0,0.0,102,88.0
5421,F3,337.0,0.344,64,88.0
5422,D4,337.0,0.344,64,88.0
5423,C4,337.0,0.344,64,88.0
5424,A3,337.0,0.344,64,88.0
5425,D4,337.0,0.5,80,88.0
5426,D5,337.0,0.5,80,88.0
5427,D5,337.0,0.5,80,88.0
5428,B1,337.5,0.0,85,88.0
5429,F#2,337.5,0.0,85,88.0
5430,D4,337.5,229/500,63,88.0
5431,D5,337.5,229/500,63,88.0
5432,D5,337.5,229/500,63,88.0
5433,A3,337.5,229/500,63,88.0
5434,F3,337.5,229/500,63,88.0
5435,B1,338.0,0.0,108,88.0
5436,F#2,338.0,0.0,108,88.0
5437,G2,338.0,1.75,11,88.0
5438,B3,338.0,2.0,68,88.0
5439,F4,338.0,2.0,68,88.0
5440,D4,338.0,0.5,78,88.0
5441,B4,338.0,0.5,78,88.0
5442,D5,338.0,0.5,78,88.0
5443,B4,338.0,0.5,78,88.0
5444,D5,338.0,0.5,78,88.0
5445,F4,338.0,1.875,77,88.0
5446,G2,338.0,1.875,77,88.0
5447,G#3,338.042,127/200,76,88.0
5448,F3,338.042,127/200,76,88.0
5449,B1,338.5,0.0,90,88.0
5450,F#2,338.5,0.0,90,88.0
5451,E-4,338.5,0.5,78,88.0
5452,C5,338.5,0.5,78,88.0
5453,E-5,338.5,0.5,78,88.0
5454,C5,338.5,0.5,78,88.0
5455,E-5,338.5,0.5,78,88.0
5456,D2,339.0,0.0,100,88.0
5457,F#2,339.0,0.0,100,88.0
5458,F3,339.0,0.344,64,88.0
5459,D4,339.0,0.344,64,88.0
5460,B3,339.0,0.344,64,88.0
5461,G#3,339.0,0.344,64,88.0
5462,D4,339.0,0.25,78,88.0
5463,B4,339.0,0.25,78,88.0
5464,D5,339.0,0.25,78,88.0
5465,B4,339.0,0.25,78,88.0
5466,D5,339.0,0.25,78,88.0
