,note_name,start_time,duration,velocity,tempo
0,A2,0.0,0.5,95,138.0
1,E3,0.5,0.5,95,138.0
2,A3,1.0,0.5,95,138.0
3,C4,1.5,0.5,95,138.0
4,C4,2.0,1.0,95,138.0
5,A3,2.0,1.0,95,138.0
6,E3,2.0,1.0,95,138.0
7,A2,2.0,1.0,95,138.0
8,D4,3.0,9/125,95,138.0
9,A3,3.0,9/125,95,138.0
10,E3,3.0,9/125,95,138.0
11,A2,3.0,9/125,95,138.0
12,D4,3.5,0.5,95,138.0
13,A3,3.5,0.5,95,138.0
14,E3,3.5,0.5,95,138.0
15,A2,3.5,0.5,95,138.0
16,D4,4.0,1.0,95,138.0
17,A3,4.0,1.0,95,138.0
18,E3,4.0,1.0,95,138.0
19,A2,4.0,1.0,95,138.0
20,B3,5.0,9/125,95,138.0
21,G3,5.0,9/125,95,138.0
22,D3,5.0,9/125,95,138.0
23,A2,5.0,9/125,95,138.0
24,B3,5.5,0.5,95,138.0
25,A3,5.5,1.0,95,138.0
26,E3,5.5,1.0,95,138.0
27,A2,5.5,1.0,95,138.0
28,C4,6.0,0.5,70,138.0
29,C4,6.5,0.5,95,138.0
30,A3,6.5,0.5,95,138.0
31,E3,6.5,0.5,95,138.0
32,A2,6.5,0.5,95,138.0
33,C4,7.0,1.0,95,138.0
34,A3,7.0,1.0,95,138.0
35,E3,7.0,1.0,95,138.0
36,A2,7.0,1.0,95,138.0
37,A2,8.0,0.5,95,138.0
38,E3,8.5,0.5,95,138.0
39,A3,9.0,0.5,95,138.0
40,C4,9.5,0.5,95,138.0
41,C4,10.0,1.0,95,138.0
42,A3,10.0,1.0,95,138.0
43,E3,10.0,1.0,95,138.0
44,A2,10.0,1.0,95,138.0
45,D4,11.0,9/125,95,138.0
46,A3,11.0,9/125,95,138.0
47,E3,11.0,9/125,95,138.0
48,A2,11.0,9/125,95,138.0
49,D4,11.5,0.5,95,138.0
50,A3,11.5,0.5,95,138.0
51,E3,11.5,0.5,95,138.0
52,A2,11.5,0.5,95,138.0
53,C4,12.0,1.0,95,138.0
54,G3,12.0,1.0,95,138.0
55,E3,12.0,1.0,95,138.0
56,C3,12.0,1.0,95,138.0
57,B3,13.0,9/125,95,138.0
58,G3,13.0,9/125,95,138.0
59,D3,13.0,9/125,95,138.0
60,A2,13.0,9/125,95,138.0
61,D4,13.5,0.5,95,138.0
62,G3,13.5,0.5,95,138.0
63,F#3,13.5,0.5,95,138.0
64,D3,13.5,0.5,95,138.0
65,D4,14.0,2.0,95,138.0
66,G3,14.0,2.0,95,138.0
67,F#3,14.0,2.0,95,138.0
68,D3,14.0,2.0,95,138.0
69,A2,16.0,0.5,95,138.0
70,A1,16.0,1.0,95,138.0
71,E3,16.5,0.5,95,138.0
72,A3,17.0,0.5,95,138.0
73,A1,17.0,9/125,95,138.0
74,C4,17.5,0.5,95,138.0
75,A1,17.5,0.5,95,138.0
76,A1,18.0,1.0,95,138.0
77,C4,18.0,1.0,95,138.0
78,A3,18.0,1.0,95,138.0
79,E3,18.0,1.0,95,138.0
80,A2,18.0,1.0,95,138.0
81,A1,19.0,9/125,95,138.0
82,D4,19.0,9/125,95,138.0
83,A3,19.0,9/125,95,138.0
84,E3,19.0,9/125,95,138.0
85,A2,19.0,9/125,95,138.0
86,A1,19.5,0.5,95,138.0
87,D4,19.5,0.5,95,138.0
88,A3,19.5,0.5,95,138.0
89,E3,19.5,0.5,95,138.0
90,A2,19.5,0.5,95,138.0
91,A1,20.0,1.0,95,138.0
92,D4,20.0,1.0,95,138.0
93,A3,20.0,1.0,95,138.0
94,E3,20.0,1.0,95,138.0
95,A2,20.0,1.0,95,138.0
96,A1,21.0,9/125,95,138.0
97,B3,21.0,9/125,95,138.0
98,G3,21.0,9/125,95,138.0
99,D3,21.0,9/125,95,138.0
100,A2,21.0,9/125,95,138.0
101,B3,21.5,0.5,95,138.0
102,A1,21.5,0.5,95,138.0
103,A3,21.5,1.0,95,138.0
104,E3,21.5,1.0,95,138.0
105,A2,21.5,1.0,95,138.0
106,C4,22.0,0.5,70,138.0
107,A1,22.0,1.0,95,138.0
108,C4,22.5,0.5,95,138.0
109,A3,22.5,0.5,95,138.0
110,E3,22.5,0.5,95,138.0
111,A2,22.5,0.5,95,138.0
112,A2,23.0,0.5,95,138.0
113,C4,23.0,1.0,95,138.0
114,A3,23.0,1.0,95,138.0
115,E3,23.0,1.0,95,138.0
116,A2,23.0,1.0,95,138.0
117,A1,23.5,0.5,95,138.0
118,A2,24.0,0.5,95,138.0
119,A1,24.0,1.0,95,138.0
120,E3,24.5,0.5,95,138.0
121,A3,25.0,0.5,95,138.0
122,A1,25.0,9/125,95,138.0
123,C4,25.5,0.5,95,138.0
124,A1,25.5,0.5,95,138.0
125,A1,26.0,1.0,95,138.0
126,C4,26.0,1.0,95,138.0
127,A3,26.0,1.0,95,138.0
128,E3,26.0,1.0,95,138.0
129,A2,26.0,1.0,95,138.0
130,A1,27.0,9/125,95,138.0
131,D4,27.0,9/125,95,138.0
132,A3,27.0,9/125,95,138.0
133,E3,27.0,9/125,95,138.0
134,A2,27.0,9/125,95,138.0
135,A1,27.5,0.5,95,138.0
136,D4,27.5,0.5,95,138.0
137,A3,27.5,0.5,95,138.0
138,E3,27.5,0.5,95,138.0
139,A2,27.5,0.5,95,138.0
140,C2,28.0,1.0,95,138.0
141,C4,28.0,1.0,95,138.0
142,G3,28.0,1.0,95,138.0
143,E3,28.0,1.0,95,138.0
144,C3,28.0,1.0,95,138.0
145,A1,29.0,9/125,95,138.0
146,B3,29.0,9/125,95,138.0
147,G3,29.0,9/125,95,138.0
148,D3,29.0,9/125,95,138.0
149,A2,29.0,9/125,95,138.0
150,D2,29.5,0.5,95,138.0
151,D4,29.5,0.5,95,138.0
152,G3,29.5,0.5,95,138.0
153,F#3,29.5,0.5,95,138.0
154,D3,29.5,0.5,95,138.0
155,D2,30.0,1.0,95,138.0
156,D4,30.0,2.0,95,138.0
157,G3,30.0,2.0,95,138.0
158,F#3,30.0,2.0,95,138.0
159,D3,30.0,2.0,95,138.0
160,A2,31.0,1.0,95,138.0
161,A2,32.0,0.5,95,138.0
162,A1,32.0,1.0,95,138.0
163,F#2,32.0,1.0,95,138.0
164,E3,32.5,0.5,95,138.0
165,A3,33.0,0.5,95,138.0
166,A1,33.0,9/125,95,138.0
167,F#2,33.0,1.0,95,138.0
168,C4,33.5,0.5,95,138.0
169,A1,33.5,0.5,95,138.0
170,A1,34.0,1.0,95,138.0
171,F#2,34.0,1.0,95,138.0
172,C4,34.0,1.0,95,138.0
173,A3,34.0,1.0,95,138.0
174,E3,34.0,1.0,95,138.0
175,A2,34.0,1.0,95,138.0
176,A1,35.0,9/125,95,138.0
177,F#2,35.0,1.0,95,138.0
178,D4,35.0,9/125,95,138.0
179,A3,35.0,9/125,95,138.0
180,E3,35.0,9/125,95,138.0
181,A2,35.0,9/125,95,138.0
182,A1,35.5,0.5,95,138.0
183,D4,35.5,0.5,95,138.0
184,A3,35.5,0.5,95,138.0
185,E3,35.5,0.5,95,138.0
186,A2,35.5,0.5,95,138.0
187,A1,36.0,1.0,95,138.0
188,F#2,36.0,1.0,95,138.0
189,D4,36.0,1.0,95,138.0
190,A3,36.0,1.0,95,138.0
191,E3,36.0,1.0,95,138.0
192,A2,36.0,1.0,95,138.0
193,A1,37.0,9/125,95,138.0
194,F#2,37.0,1.0,95,138.0
195,B3,37.0,9/125,95,138.0
196,G3,37.0,9/125,95,138.0
197,D3,37.0,9/125,95,138.0
198,A2,37.0,9/125,95,138.0
199,B3,37.5,0.5,95,138.0
200,A1,37.5,0.5,95,138.0
201,A3,37.5,1.0,95,138.0
202,E3,37.5,1.0,95,138.0
203,A2,37.5,1.0,95,138.0
204,C4,38.0,0.5,70,138.0
205,A1,38.0,1.0,95,138.0
206,F#2,38.0,1.0,95,138.0
207,C4,38.5,0.5,95,138.0
208,A3,38.5,0.5,95,138.0
209,E3,38.5,0.5,95,138.0
210,A2,38.5,0.5,95,138.0
211,A2,39.0,0.5,95,138.0
212,F#2,39.0,1.0,95,138.0
213,C4,39.0,1.0,95,138.0
214,A3,39.0,1.0,95,138.0
215,E3,39.0,1.0,95,138.0
216,A2,39.0,1.0,95,138.0
217,A1,39.5,0.5,95,138.0
218,A2,40.0,0.5,95,138.0
219,A1,40.0,1.0,95,138.0
220,F#2,40.0,1.0,95,138.0
221,E3,40.5,0.5,95,138.0
222,A3,41.0,0.5,95,138.0
223,A1,41.0,9/125,95,138.0
224,F#2,41.0,1.0,95,138.0
225,C4,41.5,0.5,95,138.0
226,A1,41.5,0.5,95,138.0
227,A1,42.0,1.0,95,138.0
228,F#2,42.0,1.0,95,138.0
229,C4,42.0,1.0,95,138.0
230,A3,42.0,1.0,95,138.0
231,E3,42.0,1.0,95,138.0
232,A2,42.0,1.0,95,138.0
233,A1,43.0,9/125,95,138.0
234,F#2,43.0,1.0,95,138.0
235,D4,43.0,9/125,95,138.0
236,A3,43.0,9/125,95,138.0
237,E3,43.0,9/125,95,138.0
238,A2,43.0,9/125,95,138.0
239,A1,43.5,0.5,95,138.0
240,D4,43.5,0.5,95,138.0
241,A3,43.5,0.5,95,138.0
242,E3,43.5,0.5,95,138.0
243,A2,43.5,0.5,95,138.0
244,C2,44.0,1.0,95,138.0
245,F#2,44.0,1.0,95,138.0
246,C4,44.0,1.0,95,138.0
247,G3,44.0,1.0,95,138.0
248,E3,44.0,1.0,95,138.0
249,C3,44.0,1.0,95,138.0
250,A1,45.0,9/125,95,138.0
251,F#2,45.0,1.0,95,138.0
252,B3,45.0,9/125,95,138.0
253,G3,45.0,9/125,95,138.0
254,D3,45.0,9/125,95,138.0
255,A2,45.0,9/125,95,138.0
256,D2,45.5,0.5,95,138.0
257,D4,45.5,0.5,95,138.0
258,G3,45.5,0.5,95,138.0
259,F#3,45.5,0.5,95,138.0
260,D3,45.5,0.5,95,138.0
261,D2,46.0,1.0,95,138.0
262,F#2,46.0,1.0,95,138.0
263,D4,46.0,2.0,95,138.0
264,G3,46.0,2.0,95,138.0
265,F#3,46.0,2.0,95,138.0
266,D3,46.0,2.0,95,138.0
267,A2,47.0,1.0,95,138.0
268,F#2,47.0,1.0,95,138.0
269,A2,48.0,0.5,95,138.0
270,A1,48.0,1.0,95,138.0
271,C2,48.0,1.0,95,138.0
272,F#2,48.0,1.0,95,138.0
273,E3,48.5,0.5,95,138.0
274,A3,49.0,0.5,95,138.0
275,A1,49.0,9/125,95,138.0
276,C-1,49.0,9/125,95,138.0
277,F#2,49.0,0.5,95,138.0
278,C4,49.5,0.5,95,138.0
279,A1,49.5,0.5,95,138.0
280,C2,49.5,0.5,95,138.0
281,A1,50.0,1.0,95,138.0
282,C4,50.0,1.0,95,138.0
283,A3,50.0,1.0,95,138.0
284,E3,50.0,1.0,95,138.0
285,A2,50.0,1.0,95,138.0
286,C2,50.0,1.0,95,138.0
287,F#2,50.0,1.0,95,138.0
288,A1,51.0,9/125,95,138.0
289,C-1,51.0,9/125,95,138.0
290,F#2,51.0,0.5,95,138.0
291,D4,51.0,9/125,95,138.0
292,A3,51.0,9/125,95,138.0
293,E3,51.0,9/125,95,138.0
294,A2,51.0,9/125,95,138.0
295,A1,51.5,0.5,95,138.0
296,C2,51.5,0.5,95,138.0
297,D4,51.5,0.5,95,138.0
298,A3,51.5,0.5,95,138.0
299,E3,51.5,0.5,95,138.0
300,A2,51.5,0.5,95,138.0
301,A1,52.0,1.0,95,138.0
302,D4,52.0,1.0,95,138.0
303,A3,52.0,1.0,95,138.0
304,E3,52.0,1.0,95,138.0
305,A2,52.0,1.0,95,138.0
306,C2,52.0,1.0,95,138.0
307,F#2,52.0,1.0,95,138.0
308,A1,53.0,9/125,95,138.0
309,C-1,53.0,9/125,95,138.0
310,F#2,53.0,0.5,95,138.0
311,B3,53.0,9/125,95,138.0
312,G3,53.0,9/125,95,138.0
313,D3,53.0,9/125,95,138.0
314,A2,53.0,9/125,95,138.0
315,B3,53.5,0.5,95,138.0
316,A1,53.5,0.5,95,138.0
317,C2,53.5,0.5,95,138.0
318,A3,53.5,1.0,95,138.0
319,E3,53.5,1.0,95,138.0
320,A2,53.5,1.0,95,138.0
321,C4,54.0,0.5,70,138.0
322,A1,54.0,1.0,95,138.0
323,C2,54.0,1.0,95,138.0
324,F#2,54.0,1.0,95,138.0
325,C4,54.5,0.5,95,138.0
326,A3,54.5,0.5,95,138.0
327,E3,54.5,0.5,95,138.0
328,A2,54.5,0.5,95,138.0
329,A2,55.0,0.5,95,138.0
330,C-1,55.0,9/125,95,138.0
331,F#2,55.0,0.5,95,138.0
332,C4,55.0,1.0,95,138.0
333,A3,55.0,1.0,95,138.0
334,E3,55.0,1.0,95,138.0
335,A2,55.0,1.0,95,138.0
336,A1,55.5,0.5,95,138.0
337,C2,55.5,0.5,95,138.0
338,A2,56.0,0.5,95,138.0
339,A1,56.0,1.0,95,138.0
340,C2,56.0,1.0,95,138.0
341,F#2,56.0,1.0,95,138.0
342,E3,56.5,0.5,95,138.0
343,A3,57.0,0.5,95,138.0
344,A1,57.0,9/125,95,138.0
345,C-1,57.0,9/125,95,138.0
346,F#2,57.0,0.5,95,138.0
347,C4,57.5,0.5,95,138.0
348,A1,57.5,0.5,95,138.0
349,C2,57.5,0.5,95,138.0
350,A1,58.0,1.0,95,138.0
351,C4,58.0,1.0,95,138.0
352,A3,58.0,1.0,95,138.0
353,E3,58.0,1.0,95,138.0
354,A2,58.0,1.0,95,138.0
355,C2,58.0,1.0,95,138.0
356,F#2,58.0,1.0,95,138.0
357,A1,59.0,9/125,95,138.0
358,C-1,59.0,9/125,95,138.0
359,F#2,59.0,0.5,95,138.0
360,D4,59.0,9/125,95,138.0
361,A3,59.0,9/125,95,138.0
362,E3,59.0,9/125,95,138.0
363,A2,59.0,9/125,95,138.0
364,A1,59.5,0.5,95,138.0
365,C2,59.5,0.5,95,138.0
366,D4,59.5,0.5,95,138.0
367,A3,59.5,0.5,95,138.0
368,E3,59.5,0.5,95,138.0
369,A2,59.5,0.5,95,138.0
370,G1,60.0,1.0,95,138.0
371,G3,60.0,1.0,95,138.0
372,D3,60.0,1.0,95,138.0
373,G2,60.0,1.0,95,138.0
374,C2,60.0,1.0,95,138.0
375,F#2,60.0,1.0,95,138.0
376,A1,61.0,9/125,95,138.0
377,C-1,61.0,9/125,95,138.0
378,F#2,61.0,0.5,95,138.0
379,B3,61.0,9/125,95,138.0
380,G3,61.0,9/125,95,138.0
381,D3,61.0,9/125,95,138.0
382,A2,61.0,9/125,95,138.0
383,A1,61.5,0.5,95,138.0
384,C2,61.5,0.5,95,138.0
385,A3,61.5,0.5,95,138.0
386,E3,61.5,0.5,95,138.0
387,A2,61.5,0.5,95,138.0
388,A1,62.0,1.0,95,138.0
389,A3,62.0,2.0,95,138.0
390,E3,62.0,2.0,95,138.0
391,A2,62.0,2.0,95,138.0
392,C2,62.0,1.0,95,138.0
393,F#2,62.0,1.0,95,138.0
394,A2,63.0,1.0,95,138.0
395,C-1,63.0,9/125,95,138.0
396,F#2,63.0,0.5,95,138.0
397,C2,63.5,0.5,95,138.0
398,A2,64.0,0.5,95,138.0
399,A1,64.0,1.0,95,138.0
400,B-2,64.0,0.5,95,138.0
401,C2,64.0,0.5,95,138.0
402,E3,64.5,0.5,95,138.0
403,B-2,64.5,0.5,95,138.0
404,A3,65.0,0.5,95,138.0
405,A1,65.0,9/125,95,138.0
406,B-2,65.0,0.5,95,138.0
407,D2,65.0,0.5,95,138.0
408,C4,65.5,0.5,95,138.0
409,A1,65.5,0.5,95,138.0
410,B-2,65.5,0.5,95,138.0
411,A1,66.0,1.0,95,138.0
412,C4,66.0,1.0,95,138.0
413,A3,66.0,1.0,95,138.0
414,E3,66.0,1.0,95,138.0
415,A2,66.0,1.0,95,138.0
416,B-2,66.0,0.5,95,138.0
417,C2,66.0,0.5,95,138.0
418,B-2,66.5,0.5,95,138.0
419,C2,66.5,0.5,95,138.0
420,A1,67.0,9/125,95,138.0
421,D4,67.0,9/125,95,138.0
422,A3,67.0,9/125,95,138.0
423,E3,67.0,9/125,95,138.0
424,A2,67.0,9/125,95,138.0
425,B-2,67.0,0.5,95,138.0
426,D2,67.0,0.5,95,138.0
427,A1,67.5,0.5,95,138.0
428,B-2,67.5,0.5,95,138.0
429,D4,67.5,0.5,95,138.0
430,A3,67.5,0.5,95,138.0
431,E3,67.5,0.5,95,138.0
432,A2,67.5,0.5,95,138.0
433,A1,68.0,1.0,95,138.0
434,D4,68.0,1.0,95,138.0
435,A3,68.0,1.0,95,138.0
436,E3,68.0,1.0,95,138.0
437,A2,68.0,1.0,95,138.0
438,B-2,68.0,0.5,95,138.0
439,C2,68.0,0.5,95,138.0
440,B-2,68.5,0.5,95,138.0
441,A1,69.0,9/125,95,138.0
442,B3,69.0,9/125,95,138.0
443,G3,69.0,9/125,95,138.0
444,D3,69.0,9/125,95,138.0
445,A2,69.0,9/125,95,138.0
446,B-2,69.0,0.5,95,138.0
447,D2,69.0,0.5,95,138.0
448,B3,69.5,0.5,95,138.0
449,A1,69.5,0.5,95,138.0
450,B-2,69.5,0.5,95,138.0
451,A3,69.5,1.0,95,138.0
452,E3,69.5,1.0,95,138.0
453,A2,69.5,1.0,95,138.0
454,C4,70.0,0.5,70,138.0
455,A1,70.0,1.0,95,138.0
456,B-2,70.0,0.5,95,138.0
457,C2,70.0,0.5,95,138.0
458,C4,70.5,0.5,95,138.0
459,A3,70.5,0.5,95,138.0
460,E3,70.5,0.5,95,138.0
461,A2,70.5,0.5,95,138.0
462,B-2,70.5,0.5,95,138.0
463,C2,70.5,0.5,95,138.0
464,A1,71.0,9/125,95,138.0
465,C4,71.0,1.0,95,138.0
466,A3,71.0,1.0,95,138.0
467,E3,71.0,1.0,95,138.0
468,A2,71.0,1.0,95,138.0
469,B-2,71.0,0.5,95,138.0
470,D2,71.0,0.5,95,138.0
471,A1,71.5,0.5,95,138.0
472,B-2,71.5,0.5,95,138.0
473,A2,72.0,0.5,95,138.0
474,A1,72.0,1.0,95,138.0
475,B-2,72.0,0.5,95,138.0
476,C2,72.0,0.5,95,138.0
477,E3,72.5,0.5,95,138.0
478,B-2,72.5,0.5,95,138.0
479,A3,73.0,0.5,95,138.0
480,A1,73.0,9/125,95,138.0
481,B-2,73.0,0.5,95,138.0
482,D2,73.0,0.5,95,138.0
483,C4,73.5,0.5,95,138.0
484,A1,73.5,0.5,95,138.0
485,B-2,73.5,0.5,95,138.0
486,A1,74.0,1.0,95,138.0
487,C4,74.0,1.0,95,138.0
488,A3,74.0,1.0,95,138.0
489,E3,74.0,1.0,95,138.0
490,A2,74.0,1.0,95,138.0
491,B-2,74.0,0.5,95,138.0
492,C2,74.0,0.5,95,138.0
493,B-2,74.5,0.5,95,138.0
494,C2,74.5,0.5,95,138.0
495,A1,75.0,9/125,95,138.0
496,D4,75.0,9/125,95,138.0
497,A3,75.0,9/125,95,138.0
498,E3,75.0,9/125,95,138.0
499,A2,75.0,9/125,95,138.0
500,B-2,75.0,0.5,95,138.0
501,D2,75.0,0.5,95,138.0
502,A1,75.5,0.5,95,138.0
503,B-2,75.5,0.5,95,138.0
504,D4,75.5,0.5,95,138.0
505,A3,75.5,0.5,95,138.0
506,E3,75.5,0.5,95,138.0
507,A2,75.5,0.5,95,138.0
508,A2,76.0,0.125,95,138.0
509,A1,76.0,1.0,95,138.0
510,B-2,76.0,0.5,95,138.0
511,C2,76.0,0.5,95,138.0
512,A2,76.125,0.125,95,138.0
513,A2,76.25,0.125,95,138.0
514,A2,76.375,0.125,95,138.0
515,A2,76.5,0.125,95,138.0
516,B-2,76.5,0.5,95,138.0
517,A2,76.625,0.125,95,138.0
518,A2,76.75,0.125,95,138.0
519,A2,76.875,0.125,95,138.0
520,C3,77.0,0.125,95,138.0
521,A1,77.0,9/125,95,138.0
522,B-2,77.0,0.5,95,138.0
523,D2,77.0,0.5,95,138.0
524,C3,77.125,0.125,95,138.0
525,C3,77.25,0.125,95,138.0
526,C3,77.375,0.125,95,138.0
527,C3,77.5,0.125,95,138.0
528,A1,77.5,0.5,95,138.0
529,B-2,77.5,0.5,95,138.0
530,C3,77.625,0.125,95,138.0
531,C3,77.75,0.125,95,138.0
532,C3,77.875,0.125,95,138.0
533,D3,78.0,0.125,95,138.0
534,A1,78.0,1.0,95,138.0
535,B-2,78.0,0.5,95,138.0
536,C2,78.0,0.5,95,138.0
537,D3,78.125,0.125,95,138.0
538,D3,78.25,0.125,95,138.0
539,D3,78.375,0.125,95,138.0
540,D3,78.5,0.125,95,138.0
541,B-2,78.5,0.5,95,138.0
542,C2,78.5,0.5,95,138.0
543,D3,78.625,0.125,95,138.0
544,D3,78.75,0.125,95,138.0
545,D3,78.875,0.125,95,138.0
546,C3,79.0,0.125,95,138.0
547,A1,79.0,9/125,95,138.0
548,B-2,79.0,0.5,95,138.0
549,D2,79.0,0.5,95,138.0
550,C3,79.125,0.125,95,138.0
551,C3,79.25,0.125,95,138.0
552,C3,79.375,0.125,95,138.0
553,C3,79.5,0.125,95,138.0
554,A1,79.5,0.5,95,138.0
555,B-2,79.5,0.5,95,138.0
556,C3,79.625,0.125,95,138.0
557,C3,79.75,0.125,95,138.0
558,C3,79.875,0.125,95,138.0
559,A2,80.0,0.5,95,138.0
560,A1,80.0,1.0,95,138.0
561,B-2,80.0,0.5,95,138.0
562,C2,80.0,0.5,95,138.0
563,E3,80.5,0.5,95,138.0
564,B-2,80.5,0.5,95,138.0
565,A3,81.0,0.5,95,138.0
566,A1,81.0,9/125,95,138.0
567,B-2,81.0,0.5,95,138.0
568,D2,81.0,0.5,95,138.0
569,C4,81.5,0.5,95,138.0
570,A1,81.5,0.5,95,138.0
571,B-2,81.5,0.5,95,138.0
572,A1,82.0,1.0,95,138.0
573,C4,82.0,1.0,95,138.0
574,A3,82.0,1.0,95,138.0
575,E3,82.0,1.0,95,138.0
576,A2,82.0,1.0,95,138.0
577,B-2,82.0,0.5,95,138.0
578,C2,82.0,0.5,95,138.0
579,B-2,82.5,0.5,95,138.0
580,C2,82.5,0.5,95,138.0
581,A1,83.0,9/125,95,138.0
582,D4,83.0,9/125,95,138.0
583,A3,83.0,9/125,95,138.0
584,E3,83.0,9/125,95,138.0
585,A2,83.0,9/125,95,138.0
586,B-2,83.0,0.5,95,138.0
587,D2,83.0,0.5,95,138.0
588,A1,83.5,0.5,95,138.0
589,B-2,83.5,0.5,95,138.0
590,D4,83.5,0.5,95,138.0
591,A3,83.5,0.5,95,138.0
592,E3,83.5,0.5,95,138.0
593,A2,83.5,0.5,95,138.0
594,A1,84.0,1.0,95,138.0
595,D4,84.0,1.0,95,138.0
596,A3,84.0,1.0,95,138.0
597,E3,84.0,1.0,95,138.0
598,A2,84.0,1.0,95,138.0
599,B-2,84.0,0.5,95,138.0
600,C2,84.0,0.5,95,138.0
601,B-2,84.5,0.5,95,138.0
602,A1,85.0,9/125,95,138.0
603,B3,85.0,9/125,95,138.0
604,G3,85.0,9/125,95,138.0
605,D3,85.0,9/125,95,138.0
606,A2,85.0,9/125,95,138.0
607,B-2,85.0,0.5,95,138.0
608,D2,85.0,0.5,95,138.0
609,B3,85.5,0.5,95,138.0
610,A1,85.5,0.5,95,138.0
611,B-2,85.5,0.5,95,138.0
612,A3,85.5,1.0,95,138.0
613,E3,85.5,1.0,95,138.0
614,A2,85.5,1.0,95,138.0
615,C4,86.0,0.5,70,138.0
616,A1,86.0,1.0,95,138.0
617,B-2,86.0,0.5,95,138.0
618,C2,86.0,0.5,95,138.0
619,C4,86.5,0.5,95,138.0
620,A3,86.5,0.5,95,138.0
621,E3,86.5,0.5,95,138.0
622,A2,86.5,0.5,95,138.0
623,B-2,86.5,0.5,95,138.0
624,C2,86.5,0.5,95,138.0
625,A1,87.0,9/125,95,138.0
626,C4,87.0,1.0,95,138.0
627,A3,87.0,1.0,95,138.0
628,E3,87.0,1.0,95,138.0
629,A2,87.0,1.0,95,138.0
630,B-2,87.0,0.5,95,138.0
631,D2,87.0,0.5,95,138.0
632,A1,87.5,0.5,95,138.0
633,B-2,87.5,0.5,95,138.0
634,A2,88.0,0.5,95,138.0
635,A1,88.0,1.0,95,138.0
636,B-2,88.0,0.5,95,138.0
637,C2,88.0,0.5,95,138.0
638,E3,88.5,0.5,95,138.0
639,B-2,88.5,0.5,95,138.0
640,A3,89.0,0.5,95,138.0
641,A1,89.0,9/125,95,138.0
642,B-2,89.0,0.5,95,138.0
643,D2,89.0,0.5,95,138.0
644,C4,89.5,0.5,95,138.0
645,A1,89.5,0.5,95,138.0
646,B-2,89.5,0.5,95,138.0
647,A1,90.0,1.0,95,138.0
648,C4,90.0,1.0,95,138.0
649,A3,90.0,1.0,95,138.0
650,E3,90.0,1.0,95,138.0
651,A2,90.0,1.0,95,138.0
652,B-2,90.0,0.5,95,138.0
653,C2,90.0,0.5,95,138.0
654,B-2,90.5,0.5,95,138.0
655,C2,90.5,0.5,95,138.0
656,A1,91.0,9/125,95,138.0
657,D4,91.0,9/125,95,138.0
658,A3,91.0,9/125,95,138.0
659,E3,91.0,9/125,95,138.0
660,A2,91.0,9/125,95,138.0
661,B-2,91.0,0.5,95,138.0
662,D2,91.0,0.5,95,138.0
663,A1,91.5,0.5,95,138.0
664,B-2,91.5,0.5,95,138.0
665,D4,91.5,0.5,95,138.0
666,A3,91.5,0.5,95,138.0
667,E3,91.5,0.5,95,138.0
668,A2,91.5,0.5,95,138.0
669,G1,92.0,1.0,95,138.0
670,G3,92.0,1.0,95,138.0
671,D3,92.0,1.0,95,138.0
672,G2,92.0,1.0,95,138.0
673,B-2,92.0,0.5,95,138.0
674,C2,92.0,0.5,95,138.0
675,B-2,92.5,0.5,95,138.0
676,A1,93.0,9/125,95,138.0
677,B3,93.0,9/125,95,138.0
678,G3,93.0,9/125,95,138.0
679,D3,93.0,9/125,95,138.0
680,A2,93.0,9/125,95,138.0
681,B-2,93.0,0.5,95,138.0
682,D2,93.0,0.5,95,138.0
683,A1,93.5,0.5,95,138.0
684,B-2,93.5,0.5,95,138.0
685,A3,93.5,0.5,95,138.0
686,E3,93.5,0.5,95,138.0
687,A2,93.5,0.5,95,138.0
688,A1,94.0,1.0,95,138.0
689,A3,94.0,2.0,95,138.0
690,E3,94.0,2.0,95,138.0
691,A2,94.0,2.0,95,138.0
692,B-2,94.0,0.5,95,138.0
693,C2,94.0,0.5,95,138.0
694,B-2,94.5,0.5,95,138.0
695,C2,94.5,0.5,95,138.0
696,A1,95.0,9/125,95,138.0
697,B-2,95.0,0.5,95,138.0
698,D2,95.0,0.5,95,138.0
699,A1,95.5,0.5,95,138.0
700,B-2,95.5,0.5,95,138.0
701,A1,96.0,1.0,95,138.0
702,E3,96.0,0.5,95,138.0
703,A2,96.0,0.5,95,138.0
704,F#2,96.0,0.5,95,138.0
705,C2,96.0,0.5,95,138.0
706,G2,96.5,0.5,95,138.0
707,A1,97.0,9/125,95,138.0
708,F#2,97.0,0.5,95,138.0
709,D2,97.0,0.5,95,138.0
710,A1,97.5,0.5,95,138.0
711,C4,97.5,0.5,95,138.0
712,G3,97.5,0.5,95,138.0
713,A1,98.0,1.0,95,138.0
714,B3,98.0,9/125,95,138.0
715,G3,98.0,9/125,95,138.0
716,D3,98.0,9/125,95,138.0
717,A2,98.0,9/125,95,138.0
718,F#2,98.0,0.5,95,138.0
719,C2,98.0,0.5,95,138.0
720,F#2,98.5,0.5,95,138.0
721,C2,98.5,0.5,95,138.0
722,A1,99.0,9/125,95,138.0
723,D4,99.0,9/125,95,138.0
724,A3,99.0,9/125,95,138.0
725,F#2,99.0,0.5,95,138.0
726,D2,99.0,0.5,95,138.0
727,A1,99.5,0.5,95,138.0
728,D4,99.5,0.5,95,138.0
729,A3,99.5,0.5,95,138.0
730,A1,100.0,1.0,95,138.0
731,F#2,100.0,0.5,95,138.0
732,C2,100.0,0.5,95,138.0
733,A1,101.0,9/125,95,138.0
734,F#2,101.0,0.5,95,138.0
735,D2,101.0,0.5,95,138.0
736,B3,101.5,0.5,95,138.0
737,A1,101.5,0.5,95,138.0
738,A3,101.5,1.0,95,138.0
739,E3,101.5,1.0,95,138.0
740,A2,101.5,1.0,95,138.0
741,C4,102.0,0.5,70,138.0
742,A1,102.0,1.0,95,138.0
743,F#2,102.0,0.5,95,138.0
744,C2,102.0,0.5,95,138.0
745,C4,102.5,0.5,95,138.0
746,A3,102.5,0.5,95,138.0
747,E3,102.5,0.5,95,138.0
748,A2,102.5,0.5,95,138.0
749,F#2,102.5,0.5,95,138.0
750,C2,102.5,0.5,95,138.0
751,A1,103.0,9/125,95,138.0
752,F#2,103.0,0.5,95,138.0
753,D2,103.0,0.5,95,138.0
754,A1,103.5,0.5,95,138.0
755,A1,104.0,1.0,95,138.0
756,E3,104.0,0.5,95,138.0
757,A2,104.0,0.5,95,138.0
758,F#2,104.0,0.5,95,138.0
759,C2,104.0,0.5,95,138.0
760,G2,104.5,0.5,95,138.0
761,A1,105.0,9/125,95,138.0
762,F#2,105.0,0.5,95,138.0
763,D2,105.0,0.5,95,138.0
764,A1,105.5,0.5,95,138.0
765,C4,105.5,0.5,95,138.0
766,G3,105.5,0.5,95,138.0
767,A1,106.0,1.0,95,138.0
768,B3,106.0,9/125,95,138.0
769,G3,106.0,9/125,95,138.0
770,D3,106.0,9/125,95,138.0
771,A2,106.0,9/125,95,138.0
772,F#2,106.0,0.5,95,138.0
773,C2,106.0,0.5,95,138.0
774,F#2,106.5,0.5,95,138.0
775,C2,106.5,0.5,95,138.0
776,A1,107.0,9/125,95,138.0
777,D4,107.0,9/125,95,138.0
778,A3,107.0,9/125,95,138.0
779,F#2,107.0,0.5,95,138.0
780,D2,107.0,0.5,95,138.0
781,A1,107.5,0.5,95,138.0
782,D4,107.5,0.5,95,138.0
783,A3,107.5,0.5,95,138.0
784,A2,108.0,0.125,95,138.0
785,A1,108.0,1.0,95,138.0
786,F#2,108.0,0.5,95,138.0
787,C2,108.0,0.5,95,138.0
788,A2,108.125,0.125,95,138.0
789,A2,108.25,0.125,95,138.0
790,A2,108.375,0.125,95,138.0
791,A2,108.5,0.125,95,138.0
792,A2,108.625,0.125,95,138.0
793,A2,108.75,0.125,95,138.0
794,A2,108.875,0.125,95,138.0
795,C3,109.0,0.125,95,138.0
796,A1,109.0,9/125,95,138.0
797,F#2,109.0,0.5,95,138.0
798,D2,109.0,0.5,95,138.0
799,C3,109.125,0.125,95,138.0
800,C3,109.25,0.125,95,138.0
801,C3,109.375,0.125,95,138.0
802,C3,109.5,0.125,95,138.0
803,A1,109.5,0.5,95,138.0
804,C3,109.625,0.125,95,138.0
805,C3,109.75,0.125,95,138.0
806,C3,109.875,0.125,95,138.0
807,D3,110.0,0.125,95,138.0
808,A1,110.0,1.0,95,138.0
809,F#2,110.0,0.5,95,138.0
810,C2,110.0,0.5,95,138.0
811,D3,110.125,0.125,95,138.0
812,D3,110.25,0.125,95,138.0
813,D3,110.375,0.125,95,138.0
814,D3,110.5,0.125,95,138.0
815,F#2,110.5,0.5,95,138.0
816,C2,110.5,0.5,95,138.0
817,D3,110.625,0.125,95,138.0
818,D3,110.75,0.125,95,138.0
819,D3,110.875,0.125,95,138.0
820,C3,111.0,0.125,95,138.0
821,A1,111.0,9/125,95,138.0
822,F#2,111.0,0.5,95,138.0
823,D2,111.0,0.5,95,138.0
824,C3,111.125,0.125,95,138.0
825,C3,111.25,0.125,95,138.0
826,C3,111.375,0.125,95,138.0
827,C3,111.5,0.125,95,138.0
828,A1,111.5,0.5,95,138.0
829,C3,111.625,0.125,95,138.0
830,C3,111.75,0.125,95,138.0
831,C3,111.875,0.125,95,138.0
832,A1,112.0,1.0,95,138.0
833,E3,112.0,0.5,95,138.0
834,A2,112.0,0.5,95,138.0
835,F#2,112.0,0.5,95,138.0
836,C2,112.0,0.5,95,138.0
837,G2,112.5,0.5,95,138.0
838,A1,113.0,9/125,95,138.0
839,F#2,113.0,0.5,95,138.0
840,D2,113.0,0.5,95,138.0
841,A1,113.5,0.5,95,138.0
842,C4,113.5,0.5,95,138.0
843,G3,113.5,0.5,95,138.0
844,A1,114.0,1.0,95,138.0
845,B3,114.0,9/125,95,138.0
846,G3,114.0,9/125,95,138.0
847,D3,114.0,9/125,95,138.0
848,A2,114.0,9/125,95,138.0
849,F#2,114.0,0.5,95,138.0
850,C2,114.0,0.5,95,138.0
851,F#2,114.5,0.5,95,138.0
852,C2,114.5,0.5,95,138.0
853,A1,115.0,9/125,95,138.0
854,D4,115.0,9/125,95,138.0
855,A3,115.0,9/125,95,138.0
856,F#2,115.0,0.5,95,138.0
857,D2,115.0,0.5,95,138.0
858,A1,115.5,0.5,95,138.0
859,D4,115.5,0.5,95,138.0
860,A3,115.5,0.5,95,138.0
861,A1,116.0,1.0,95,138.0
862,F#2,116.0,0.5,95,138.0
863,C2,116.0,0.5,95,138.0
864,A1,117.0,9/125,95,138.0
865,F#2,117.0,0.5,95,138.0
866,D2,117.0,0.5,95,138.0
867,B3,117.5,0.5,95,138.0
868,A1,117.5,0.5,95,138.0
869,A3,117.5,1.0,95,138.0
870,E3,117.5,1.0,95,138.0
871,A2,117.5,1.0,95,138.0
872,C4,118.0,0.5,70,138.0
873,A1,118.0,1.0,95,138.0
874,F#2,118.0,0.5,95,138.0
875,C2,118.0,0.5,95,138.0
876,C4,118.5,0.5,95,138.0
877,A3,118.5,0.5,95,138.0
878,E3,118.5,0.5,95,138.0
879,A2,118.5,0.5,95,138.0
880,F#2,118.5,0.5,95,138.0
881,C2,118.5,0.5,95,138.0
882,A1,119.0,9/125,95,138.0
883,F#2,119.0,0.5,95,138.0
884,D2,119.0,0.5,95,138.0
885,A1,119.5,0.5,95,138.0
886,A1,120.0,1.0,95,138.0
887,E3,120.0,0.5,95,138.0
888,A2,120.0,0.5,95,138.0
889,F#2,120.0,0.5,95,138.0
890,C2,120.0,0.5,95,138.0
891,G2,120.5,0.5,95,138.0
892,A1,121.0,9/125,95,138.0
893,F#2,121.0,0.5,95,138.0
894,D2,121.0,0.5,95,138.0
895,A1,121.5,0.5,95,138.0
896,C4,121.5,0.5,95,138.0
897,G3,121.5,0.5,95,138.0
898,A1,122.0,1.0,95,138.0
899,B3,122.0,9/125,95,138.0
900,G3,122.0,9/125,95,138.0
901,D3,122.0,9/125,95,138.0
902,A2,122.0,9/125,95,138.0
903,F#2,122.0,0.5,95,138.0
904,C2,122.0,0.5,95,138.0
905,F#2,122.5,0.5,95,138.0
906,C2,122.5,0.5,95,138.0
907,A1,123.0,9/125,95,138.0
908,D4,123.0,9/125,95,138.0
909,A3,123.0,9/125,95,138.0
910,F#2,123.0,0.5,95,138.0
911,D2,123.0,0.5,95,138.0
912,A1,123.5,0.5,95,138.0
913,D4,123.5,0.5,95,138.0
914,A3,123.5,0.5,95,138.0
915,G1,124.0,1.0,95,138.0
916,G3,124.0,1.0,95,138.0
917,D3,124.0,1.0,95,138.0
918,G2,124.0,1.0,95,138.0
919,F#2,124.0,0.5,95,138.0
920,C2,124.0,0.5,95,138.0
921,A1,125.0,9/125,95,138.0
922,B3,125.0,9/125,95,138.0
923,G3,125.0,9/125,95,138.0
924,D3,125.0,9/125,95,138.0
925,A2,125.0,9/125,95,138.0
926,F#2,125.0,0.5,95,138.0
927,D2,125.0,0.5,95,138.0
928,A1,125.5,0.5,95,138.0
929,A3,125.5,0.5,95,138.0
930,E3,125.5,0.5,95,138.0
931,A2,125.5,0.5,95,138.0
932,A1,126.0,1.0,95,138.0
933,A3,126.0,2.0,95,138.0
934,E3,126.0,2.0,95,138.0
935,A2,126.0,2.0,95,138.0
936,F#2,126.0,0.5,95,138.0
937,C2,126.0,0.5,95,138.0
938,F#2,126.5,0.5,95,138.0
939,C2,126.5,0.5,95,138.0
940,A2,127.0,1.0,95,138.0
941,F#2,127.0,0.5,95,138.0
942,D2,127.0,0.5,95,138.0
943,B1,128.0,1.0,95,138.0
944,B3,128.0,1.0,95,138.0
945,F#3,128.0,1.0,95,138.0
946,B2,128.0,1.0,95,138.0
947,B-2,128.0,0.5,95,138.0
948,C#3,128.0,0.5,95,138.0
949,C2,128.0,0.5,95,138.0
950,B-2,128.5,0.5,95,138.0
951,B2,129.0,0.5,95,138.0
952,B1,129.0,0.5,95,138.0
953,B-2,129.0,0.5,95,138.0
954,D2,129.0,0.5,95,138.0
955,B2,129.5,0.5,95,138.0
956,B1,129.5,0.5,95,138.0
957,B-2,129.5,0.5,95,138.0
958,B2,130.0,0.5,95,138.0
959,B1,130.0,0.5,95,138.0
960,B-2,130.0,0.5,95,138.0
961,C2,130.0,0.5,95,138.0
962,B2,130.5,0.5,95,138.0
963,B1,130.5,0.5,95,138.0
964,B-2,130.5,0.5,95,138.0
965,C2,130.5,0.5,95,138.0
966,B2,131.0,0.5,95,138.0
967,B1,131.0,0.5,95,138.0
968,B-2,131.0,0.5,95,138.0
969,D2,131.0,0.5,95,138.0
970,B2,131.5,0.5,95,138.0
971,B1,131.5,0.5,95,138.0
972,B-2,131.5,0.5,95,138.0
973,D2,132.0,1.0,95,138.0
974,D4,132.0,1.0,95,138.0
975,A3,132.0,1.0,95,138.0
976,D3,132.0,1.0,95,138.0
977,B-2,132.0,0.5,95,138.0
978,C#3,132.0,0.5,95,138.0
979,C2,132.0,0.5,95,138.0
980,B-2,132.5,0.5,95,138.0
981,D3,133.0,0.5,95,138.0
982,D2,133.0,0.5,95,138.0
983,B-2,133.0,0.5,95,138.0
984,D2,133.0,0.5,95,138.0
985,D3,133.5,0.5,95,138.0
986,D2,133.5,0.5,95,138.0
987,B-2,133.5,0.5,95,138.0
988,D3,134.0,0.5,95,138.0
989,D2,134.0,0.5,95,138.0
990,B-2,134.0,0.5,95,138.0
991,C2,134.0,0.5,95,138.0
992,D3,134.5,0.5,95,138.0
993,D2,134.5,0.5,95,138.0
994,B-2,134.5,0.5,95,138.0
995,C2,134.5,0.5,95,138.0
996,D3,135.0,0.5,95,138.0
997,D2,135.0,0.5,95,138.0
998,B-2,135.0,0.5,95,138.0
999,D2,135.0,0.5,95,138.0
1000,D3,135.5,0.5,95,138.0
1001,D2,135.5,0.5,95,138.0
1002,B-2,135.5,0.5,95,138.0
1003,E1,136.0,1.0,95,138.0
1004,E4,136.0,1.0,95,138.0
1005,B3,136.0,1.0,95,138.0
1006,E3,136.0,1.0,95,138.0
1007,E2,136.0,1.0,95,138.0
1008,B-2,136.0,0.5,95,138.0
1009,C#3,136.0,0.5,95,138.0
1010,C2,136.0,0.5,95,138.0
1011,B-2,136.5,0.5,95,138.0
1012,E3,137.0,0.5,95,138.0
1013,E1,137.0,0.5,95,138.0
1014,B-2,137.0,0.5,95,138.0
1015,D2,137.0,0.5,95,138.0
1016,E3,137.5,0.5,95,138.0
1017,E1,137.5,0.5,95,138.0
1018,B-2,137.5,0.5,95,138.0
1019,E3,138.0,0.5,95,138.0
1020,E1,138.0,0.5,95,138.0
1021,B-2,138.0,0.5,95,138.0
1022,C2,138.0,0.5,95,138.0
1023,E3,138.5,0.5,95,138.0
1024,E1,138.5,0.5,95,138.0
1025,B-2,138.5,0.5,95,138.0
1026,C2,138.5,0.5,95,138.0
1027,E3,139.0,0.5,95,138.0
1028,E1,139.0,0.5,95,138.0
1029,B-2,139.0,0.5,95,138.0
1030,D2,139.0,0.5,95,138.0
1031,E3,139.5,0.5,95,138.0
1032,E1,139.5,0.5,95,138.0
1033,B-2,139.5,0.5,95,138.0
1034,E3,140.0,0.5,95,138.0
1035,E1,140.0,0.5,95,138.0
1036,B-2,140.0,0.5,95,138.0
1037,C2,140.0,0.5,95,138.0
1038,E3,140.5,0.5,95,138.0
1039,E1,140.5,0.5,95,138.0
1040,B-2,140.5,0.5,95,138.0
1041,E3,141.0,0.5,95,138.0
1042,E1,141.0,0.5,95,138.0
1043,B-2,141.0,0.5,95,138.0
1044,D2,141.0,0.5,95,138.0
1045,E3,141.5,0.5,95,138.0
1046,E1,141.5,0.5,95,138.0
1047,B-2,141.5,0.5,95,138.0
1048,E3,142.0,0.5,95,138.0
1049,E1,142.0,0.5,95,138.0
1050,B-2,142.0,0.5,95,138.0
1051,C2,142.0,0.5,95,138.0
1052,E3,142.5,0.5,95,138.0
1053,E1,142.5,0.5,95,138.0
1054,B-2,142.5,0.5,95,138.0
1055,C2,142.5,0.5,95,138.0
1056,E3,143.0,0.5,95,138.0
1057,E1,143.0,0.5,95,138.0
1058,B-2,143.0,0.5,95,138.0
1059,D2,143.0,0.5,95,138.0
1060,E3,143.5,0.5,95,138.0
1061,E1,143.5,0.5,95,138.0
1062,B-2,143.5,0.5,95,138.0
1063,B1,144.0,1.0,95,138.0
1064,B3,144.0,1.0,95,138.0
1065,F#3,144.0,1.0,95,138.0
1066,B2,144.0,1.0,95,138.0
1067,B-2,144.0,0.5,95,138.0
1068,C#3,144.0,0.5,95,138.0
1069,C2,144.0,0.5,95,138.0
1070,B-2,144.5,0.5,95,138.0
1071,B2,145.0,0.5,95,138.0
1072,B1,145.0,0.5,95,138.0
1073,B-2,145.0,0.5,95,138.0
1074,D2,145.0,0.5,95,138.0
1075,B2,145.5,0.5,95,138.0
1076,B1,145.5,0.5,95,138.0
1077,B-2,145.5,0.5,95,138.0
1078,B2,146.0,0.5,95,138.0
1079,B1,146.0,0.5,95,138.0
1080,B-2,146.0,0.5,95,138.0
1081,C2,146.0,0.5,95,138.0
1082,B2,146.5,0.5,95,138.0
1083,B1,146.5,0.5,95,138.0
1084,B-2,146.5,0.5,95,138.0
1085,C2,146.5,0.5,95,138.0
1086,B2,147.0,0.5,95,138.0
1087,B1,147.0,0.5,95,138.0
1088,B-2,147.0,0.5,95,138.0
1089,D2,147.0,0.5,95,138.0
1090,B2,147.5,0.5,95,138.0
1091,B1,147.5,0.5,95,138.0
1092,B-2,147.5,0.5,95,138.0
1093,D2,148.0,1.0,95,138.0
1094,D4,148.0,1.0,95,138.0
1095,A3,148.0,1.0,95,138.0
1096,D3,148.0,1.0,95,138.0
1097,B-2,148.0,0.5,95,138.0
1098,C#3,148.0,0.5,95,138.0
1099,C2,148.0,0.5,95,138.0
1100,B-2,148.5,0.5,95,138.0
1101,D3,149.0,0.5,95,138.0
1102,D2,149.0,0.5,95,138.0
1103,B-2,149.0,0.5,95,138.0
1104,D2,149.0,0.5,95,138.0
1105,D3,149.5,0.5,95,138.0
1106,D2,149.5,0.5,95,138.0
1107,B-2,149.5,0.5,95,138.0
1108,D3,150.0,0.5,95,138.0
1109,D2,150.0,0.5,95,138.0
1110,B-2,150.0,0.5,95,138.0
1111,C2,150.0,0.5,95,138.0
1112,D3,150.5,0.5,95,138.0
1113,D2,150.5,0.5,95,138.0
1114,B-2,150.5,0.5,95,138.0
1115,C2,150.5,0.5,95,138.0
1116,D3,151.0,0.5,95,138.0
1117,D2,151.0,0.5,95,138.0
1118,B-2,151.0,0.5,95,138.0
1119,D2,151.0,0.5,95,138.0
1120,D3,151.5,0.5,95,138.0
1121,D2,151.5,0.5,95,138.0
1122,B-2,151.5,0.5,95,138.0
1123,E1,152.0,1.0,95,138.0
1124,E4,152.0,1.0,95,138.0
1125,B3,152.0,1.0,95,138.0
1126,E3,152.0,1.0,95,138.0
1127,E2,152.0,1.0,95,138.0
1128,B-2,152.0,0.5,95,138.0
1129,C#3,152.0,0.5,95,138.0
1130,C2,152.0,0.5,95,138.0
1131,B-2,152.5,0.5,95,138.0
1132,E3,153.0,0.5,95,138.0
1133,E1,153.0,0.5,95,138.0
1134,B-2,153.0,0.5,95,138.0
1135,D2,153.0,0.5,95,138.0
1136,E3,153.5,0.5,95,138.0
1137,E1,153.5,0.5,95,138.0
1138,B-2,153.5,0.5,95,138.0
1139,E3,154.0,0.5,95,138.0
1140,E1,154.0,0.5,95,138.0
1141,B-2,154.0,0.5,95,138.0
1142,C2,154.0,0.5,95,138.0
1143,E3,154.5,0.5,95,138.0
1144,E1,154.5,0.5,95,138.0
1145,B-2,154.5,0.5,95,138.0
1146,C2,154.5,0.5,95,138.0
1147,E3,155.0,0.5,95,138.0
1148,E1,155.0,0.5,95,138.0
1149,B-2,155.0,0.5,95,138.0
1150,D2,155.0,0.5,95,138.0
1151,E3,155.5,0.5,95,138.0
1152,E1,155.5,0.5,95,138.0
1153,B-2,155.5,0.5,95,138.0
1154,E3,156.0,0.5,95,138.0
1155,E1,156.0,0.5,95,138.0
1156,B-2,156.0,0.5,95,138.0
1157,C2,156.0,0.5,95,138.0
1158,E1,156.5,0.5,95,138.0
1159,B-2,156.5,0.5,95,138.0
1160,E4,156.5,0.5,95,138.0
1161,B3,156.5,0.5,95,138.0
1162,E3,156.5,0.5,95,138.0
1163,E2,156.5,0.5,95,138.0
1164,E1,157.0,0.5,95,138.0
1165,E4,157.0,0.5,95,138.0
1166,B3,157.0,0.5,95,138.0
1167,E3,157.0,0.5,95,138.0
1168,E2,157.0,0.5,95,138.0
1169,B-2,157.0,0.5,95,138.0
1170,D2,157.0,0.5,95,138.0
1171,E1,157.5,0.5,95,138.0
1172,B-2,157.5,0.5,95,138.0
1173,E4,157.5,0.5,95,138.0
1174,B3,157.5,0.5,95,138.0
1175,E3,157.5,0.5,95,138.0
1176,E2,157.5,0.5,95,138.0
1177,E1,158.0,0.5,95,138.0
1178,E4,158.0,0.5,95,138.0
1179,B3,158.0,0.5,95,138.0
1180,E3,158.0,0.5,95,138.0
1181,E2,158.0,0.5,95,138.0
1182,B-2,158.0,0.5,95,138.0
1183,C2,158.0,0.5,95,138.0
1184,E1,158.5,0.5,95,138.0
1185,E4,158.5,0.5,95,138.0
1186,B3,158.5,0.5,95,138.0
1187,E3,158.5,0.5,95,138.0
1188,E2,158.5,0.5,95,138.0
1189,B-2,158.5,0.5,95,138.0
1190,C2,158.5,0.5,95,138.0
1191,E1,159.0,0.5,95,138.0
1192,E4,159.0,0.5,95,138.0
1193,B3,159.0,0.5,95,138.0
1194,E3,159.0,0.5,95,138.0
1195,E2,159.0,0.5,95,138.0
1196,B-2,159.0,0.5,95,138.0
1197,D2,159.0,0.5,95,138.0
1198,E1,159.5,0.5,95,138.0
1199,B-2,159.5,0.5,95,138.0
1200,E4,159.5,0.5,95,138.0
1201,B3,159.5,0.5,95,138.0
1202,E3,159.5,0.5,95,138.0
1203,E2,159.5,0.5,95,138.0
1204,A2,160.0,0.5,95,138.0
1205,A1,160.0,1.0,95,138.0
1206,B-2,160.0,0.5,95,138.0
1207,C#3,160.0,0.5,95,138.0
1208,C2,160.0,0.5,95,138.0
1209,E3,160.5,0.5,95,138.0
1210,B-2,160.5,0.5,95,138.0
1211,A3,161.0,0.5,95,138.0
1212,A1,161.0,9/125,95,138.0
1213,B-2,161.0,0.5,95,138.0
1214,D2,161.0,0.5,95,138.0
1215,C4,161.5,0.5,95,138.0
1216,A1,161.5,0.5,95,138.0
1217,B-2,161.5,0.5,95,138.0
1218,A1,162.0,1.0,95,138.0
1219,C4,162.0,1.0,95,138.0
1220,A3,162.0,1.0,95,138.0
1221,E3,162.0,1.0,95,138.0
1222,A2,162.0,1.0,95,138.0
1223,B-2,162.0,0.5,95,138.0
1224,C2,162.0,0.5,95,138.0
1225,B-2,162.5,0.5,95,138.0
1226,C2,162.5,0.5,95,138.0
1227,A1,163.0,9/125,95,138.0
1228,D4,163.0,9/125,95,138.0
1229,A3,163.0,9/125,95,138.0
1230,E3,163.0,9/125,95,138.0
1231,A2,163.0,9/125,95,138.0
1232,B-2,163.0,0.5,95,138.0
1233,D2,163.0,0.5,95,138.0
1234,A1,163.5,0.5,95,138.0
1235,B-2,163.5,0.5,95,138.0
1236,D4,163.5,0.5,95,138.0
1237,A3,163.5,0.5,95,138.0
1238,E3,163.5,0.5,95,138.0
1239,A2,163.5,0.5,95,138.0
1240,A1,164.0,1.0,95,138.0
1241,D4,164.0,1.0,95,138.0
1242,A3,164.0,1.0,95,138.0
1243,E3,164.0,1.0,95,138.0
1244,A2,164.0,1.0,95,138.0
1245,B-2,164.0,0.5,95,138.0
1246,C#3,164.0,0.5,95,138.0
1247,C2,164.0,0.5,95,138.0
1248,B-2,164.5,0.5,95,138.0
1249,A1,165.0,9/125,95,138.0
1250,B3,165.0,9/125,95,138.0
1251,G3,165.0,9/125,95,138.0
1252,D3,165.0,9/125,95,138.0
1253,A2,165.0,9/125,95,138.0
1254,B-2,165.0,0.5,95,138.0
1255,D2,165.0,0.5,95,138.0
1256,B3,165.5,0.5,95,138.0
1257,A1,165.5,0.5,95,138.0
1258,B-2,165.5,0.5,95,138.0
1259,A3,165.5,1.0,95,138.0
1260,E3,165.5,1.0,95,138.0
1261,A2,165.5,1.0,95,138.0
1262,C4,166.0,0.5,70,138.0
1263,A1,166.0,1.0,95,138.0
1264,B-2,166.0,0.5,95,138.0
1265,C2,166.0,0.5,95,138.0
1266,C4,166.5,0.5,95,138.0
1267,A3,166.5,0.5,95,138.0
1268,E3,166.5,0.5,95,138.0
1269,A2,166.5,0.5,95,138.0
1270,B-2,166.5,0.5,95,138.0
1271,C2,166.5,0.5,95,138.0
1272,A2,167.0,0.5,95,138.0
1273,C4,167.0,1.0,95,138.0
1274,A3,167.0,1.0,95,138.0
1275,E3,167.0,1.0,95,138.0
1276,A2,167.0,1.0,95,138.0
1277,B-2,167.0,0.5,95,138.0
1278,D2,167.0,0.5,95,138.0
1279,A1,167.5,0.5,95,138.0
1280,B-2,167.5,0.5,95,138.0
1281,A2,168.0,0.5,95,138.0
1282,A1,168.0,1.0,95,138.0
1283,B-2,168.0,0.5,95,138.0
1284,C#3,168.0,0.5,95,138.0
1285,C2,168.0,0.5,95,138.0
1286,E3,168.5,0.5,95,138.0
1287,B-2,168.5,0.5,95,138.0
1288,A3,169.0,0.5,95,138.0
1289,A1,169.0,9/125,95,138.0
1290,B-2,169.0,0.5,95,138.0
1291,D2,169.0,0.5,95,138.0
1292,C4,169.5,0.5,95,138.0
1293,A1,169.5,0.5,95,138.0
1294,B-2,169.5,0.5,95,138.0
1295,A1,170.0,1.0,95,138.0
1296,C4,170.0,1.0,95,138.0
1297,A3,170.0,1.0,95,138.0
1298,E3,170.0,1.0,95,138.0
1299,A2,170.0,1.0,95,138.0
1300,B-2,170.0,0.5,95,138.0
1301,C2,170.0,0.5,95,138.0
1302,B-2,170.5,0.5,95,138.0
1303,C2,170.5,0.5,95,138.0
1304,A1,171.0,9/125,95,138.0
1305,D4,171.0,9/125,95,138.0
1306,A3,171.0,9/125,95,138.0
1307,E3,171.0,9/125,95,138.0
1308,A2,171.0,9/125,95,138.0
1309,B-2,171.0,0.5,95,138.0
1310,D2,171.0,0.5,95,138.0
1311,A1,171.5,0.5,95,138.0
1312,B-2,171.5,0.5,95,138.0
1313,D4,171.5,0.5,95,138.0
1314,A3,171.5,0.5,95,138.0
1315,E3,171.5,0.5,95,138.0
1316,A2,171.5,0.5,95,138.0
1317,C2,172.0,1.0,95,138.0
1318,C4,172.0,1.0,95,138.0
1319,G3,172.0,1.0,95,138.0
1320,E3,172.0,1.0,95,138.0
1321,C3,172.0,1.0,95,138.0
1322,B-2,172.0,0.5,95,138.0
1323,C#3,172.0,0.5,95,138.0
1324,C2,172.0,0.5,95,138.0
1325,B-2,172.5,0.5,95,138.0
1326,A1,173.0,9/125,95,138.0
1327,B3,173.0,9/125,95,138.0
1328,G3,173.0,9/125,95,138.0
1329,D3,173.0,9/125,95,138.0
1330,A2,173.0,9/125,95,138.0
1331,B-2,173.0,0.5,95,138.0
1332,D2,173.0,0.5,95,138.0
1333,D2,173.5,0.5,95,138.0
1334,B-2,173.5,0.5,95,138.0
1335,D4,173.5,0.5,95,138.0
1336,G3,173.5,0.5,95,138.0
1337,F#3,173.5,0.5,95,138.0
1338,D3,173.5,0.5,95,138.0
1339,D2,174.0,1.0,95,138.0
1340,D4,174.0,2.0,95,138.0
1341,G3,174.0,2.0,95,138.0
1342,F#3,174.0,2.0,95,138.0
1343,D3,174.0,2.0,95,138.0
1344,B-2,174.0,0.5,95,138.0
1345,C2,174.0,0.5,95,138.0
1346,B-2,174.5,0.5,95,138.0
1347,C2,174.5,0.5,95,138.0
1348,A2,175.0,1.0,95,138.0
1349,B-2,175.0,0.5,95,138.0
1350,D2,175.0,0.5,95,138.0
1351,B-2,175.5,0.5,95,138.0
1352,A2,176.0,0.5,95,138.0
1353,A1,176.0,1.0,95,138.0
1354,B-2,176.0,0.5,95,138.0
1355,C#3,176.0,0.5,95,138.0
1356,C2,176.0,0.5,95,138.0
1357,E3,176.5,0.5,95,138.0
1358,B-2,176.5,0.5,95,138.0
1359,A3,177.0,0.5,95,138.0
1360,A1,177.0,9/125,95,138.0
1361,B-2,177.0,0.5,95,138.0
1362,D2,177.0,0.5,95,138.0
1363,C4,177.5,0.5,95,138.0
1364,A1,177.5,0.5,95,138.0
1365,B-2,177.5,0.5,95,138.0
1366,A1,178.0,1.0,95,138.0
1367,C4,178.0,1.0,95,138.0
1368,A3,178.0,1.0,95,138.0
1369,E3,178.0,1.0,95,138.0
1370,A2,178.0,1.0,95,138.0
1371,B-2,178.0,0.5,95,138.0
1372,C2,178.0,0.5,95,138.0
1373,B-2,178.5,0.5,95,138.0
1374,C2,178.5,0.5,95,138.0
1375,A1,179.0,9/125,95,138.0
1376,D4,179.0,9/125,95,138.0
1377,A3,179.0,9/125,95,138.0
1378,E3,179.0,9/125,95,138.0
1379,A2,179.0,9/125,95,138.0
1380,B-2,179.0,0.5,95,138.0
1381,D2,179.0,0.5,95,138.0
1382,A1,179.5,0.5,95,138.0
1383,B-2,179.5,0.5,95,138.0
1384,D4,179.5,0.5,95,138.0
1385,A3,179.5,0.5,95,138.0
1386,E3,179.5,0.5,95,138.0
1387,A2,179.5,0.5,95,138.0
1388,A1,180.0,1.0,95,138.0
1389,D4,180.0,1.0,95,138.0
1390,A3,180.0,1.0,95,138.0
1391,E3,180.0,1.0,95,138.0
1392,A2,180.0,1.0,95,138.0
1393,B-2,180.0,0.5,95,138.0
1394,C#3,180.0,0.5,95,138.0
1395,C2,180.0,0.5,95,138.0
1396,B-2,180.5,0.5,95,138.0
1397,A1,181.0,9/125,95,138.0
1398,B3,181.0,9/125,95,138.0
1399,G3,181.0,9/125,95,138.0
1400,D3,181.0,9/125,95,138.0
1401,A2,181.0,9/125,95,138.0
1402,B-2,181.0,0.5,95,138.0
1403,D2,181.0,0.5,95,138.0
1404,B3,181.5,0.5,95,138.0
1405,A1,181.5,0.5,95,138.0
1406,B-2,181.5,0.5,95,138.0
1407,A3,181.5,1.0,95,138.0
1408,E3,181.5,1.0,95,138.0
1409,A2,181.5,1.0,95,138.0
1410,C4,182.0,0.5,70,138.0
1411,A1,182.0,1.0,95,138.0
1412,B-2,182.0,0.5,95,138.0
1413,C2,182.0,0.5,95,138.0
1414,C4,182.5,0.5,95,138.0
1415,A3,182.5,0.5,95,138.0
1416,E3,182.5,0.5,95,138.0
1417,A2,182.5,0.5,95,138.0
1418,B-2,182.5,0.5,95,138.0
1419,C2,182.5,0.5,95,138.0
1420,A2,183.0,0.5,95,138.0
1421,C4,183.0,1.0,95,138.0
1422,A3,183.0,1.0,95,138.0
1423,E3,183.0,1.0,95,138.0
1424,A2,183.0,1.0,95,138.0
1425,B-2,183.0,0.5,95,138.0
1426,D2,183.0,0.5,95,138.0
1427,A1,183.5,0.5,95,138.0
1428,B-2,183.5,0.5,95,138.0
1429,A2,184.0,0.5,95,138.0
1430,A1,184.0,1.0,95,138.0
1431,B-2,184.0,0.5,95,138.0
1432,C#3,184.0,0.5,95,138.0
1433,C2,184.0,0.5,95,138.0
1434,E3,184.5,0.5,95,138.0
1435,B-2,184.5,0.5,95,138.0
1436,A3,185.0,0.5,95,138.0
1437,A1,185.0,9/125,95,138.0
1438,B-2,185.0,0.5,95,138.0
1439,D2,185.0,0.5,95,138.0
1440,C4,185.5,0.5,95,138.0
1441,A1,185.5,0.5,95,138.0
1442,B-2,185.5,0.5,95,138.0
1443,A1,186.0,1.0,95,138.0
1444,C4,186.0,1.0,95,138.0
1445,A3,186.0,1.0,95,138.0
1446,E3,186.0,1.0,95,138.0
1447,A2,186.0,1.0,95,138.0
1448,B-2,186.0,0.5,95,138.0
1449,C2,186.0,0.5,95,138.0
1450,B-2,186.5,0.5,95,138.0
1451,C2,186.5,0.5,95,138.0
1452,A1,187.0,9/125,95,138.0
1453,D4,187.0,9/125,95,138.0
1454,A3,187.0,9/125,95,138.0
1455,E3,187.0,9/125,95,138.0
1456,A2,187.0,9/125,95,138.0
1457,B-2,187.0,0.5,95,138.0
1458,D2,187.0,0.5,95,138.0
1459,A1,187.5,0.5,95,138.0
1460,B-2,187.5,0.5,95,138.0
1461,D4,187.5,0.5,95,138.0
1462,A3,187.5,0.5,95,138.0
1463,E3,187.5,0.5,95,138.0
1464,A2,187.5,0.5,95,138.0
1465,G1,188.0,1.0,95,138.0
1466,G3,188.0,1.0,95,138.0
1467,D3,188.0,1.0,95,138.0
1468,G2,188.0,1.0,95,138.0
1469,B-2,188.0,0.5,95,138.0
1470,C#3,188.0,0.5,95,138.0
1471,C2,188.0,0.5,95,138.0
1472,B-2,188.5,0.5,95,138.0
1473,A1,189.0,9/125,95,138.0
1474,B3,189.0,9/125,95,138.0
1475,G3,189.0,9/125,95,138.0
1476,D3,189.0,9/125,95,138.0
1477,A2,189.0,9/125,95,138.0
1478,B-2,189.0,0.5,95,138.0
1479,D2,189.0,0.5,95,138.0
1480,A1,189.5,0.5,95,138.0
1481,B-2,189.5,0.5,95,138.0
1482,A3,189.5,0.5,95,138.0
1483,E3,189.5,0.5,95,138.0
1484,A2,189.5,0.5,95,138.0
1485,A1,190.0,1.0,95,138.0
1486,A3,190.0,2.0,95,138.0
1487,E3,190.0,2.0,95,138.0
1488,A2,190.0,2.0,95,138.0
1489,B-2,190.0,0.5,95,138.0
1490,C2,190.0,0.5,95,138.0
1491,B-2,190.5,0.5,95,138.0
1492,C2,190.5,0.5,95,138.0
1493,A2,191.0,1.0,95,138.0
1494,B-2,191.0,0.5,95,138.0
1495,D2,191.0,0.5,95,138.0
1496,B-2,191.5,0.5,95,138.0
1497,A1,192.0,1.0,95,138.0
1498,E3,192.0,0.5,95,138.0
1499,A2,192.0,0.5,95,138.0
1500,F#2,192.0,0.5,95,138.0
1501,C2,192.0,0.5,95,138.0
1502,G2,192.5,0.5,95,138.0
1503,A1,193.0,9/125,95,138.0
1504,F#2,193.0,0.5,95,138.0
1505,D2,193.0,0.5,95,138.0
1506,A1,193.5,0.5,95,138.0
1507,C4,193.5,0.5,95,138.0
1508,G3,193.5,0.5,95,138.0
1509,A1,194.0,1.0,95,138.0
1510,B3,194.0,9/125,95,138.0
1511,G3,194.0,9/125,95,138.0
1512,D3,194.0,9/125,95,138.0
1513,A2,194.0,9/125,95,138.0
1514,F#2,194.0,0.5,95,138.0
1515,C2,194.0,0.5,95,138.0
1516,F#2,194.5,0.5,95,138.0
1517,C2,194.5,0.5,95,138.0
1518,A1,195.0,9/125,95,138.0
1519,D4,195.0,9/125,95,138.0
1520,A3,195.0,9/125,95,138.0
1521,F#2,195.0,0.5,95,138.0
1522,D2,195.0,0.5,95,138.0
1523,A1,195.5,0.5,95,138.0
1524,D4,195.5,0.5,95,138.0
1525,A3,195.5,0.5,95,138.0
1526,A1,196.0,1.0,95,138.0
1527,F#2,196.0,0.5,95,138.0
1528,C2,196.0,0.5,95,138.0
1529,A1,197.0,9/125,95,138.0
1530,F#2,197.0,0.5,95,138.0
1531,D2,197.0,0.5,95,138.0
1532,B3,197.5,0.5,95,138.0
1533,A1,197.5,0.5,95,138.0
1534,A3,197.5,1.0,95,138.0
1535,E3,197.5,1.0,95,138.0
1536,A2,197.5,1.0,95,138.0
1537,C4,198.0,0.5,70,138.0
1538,A1,198.0,1.0,95,138.0
1539,F#2,198.0,0.5,95,138.0
1540,C2,198.0,0.5,95,138.0
1541,C4,198.5,0.5,95,138.0
1542,A3,198.5,0.5,95,138.0
1543,E3,198.5,0.5,95,138.0
1544,A2,198.5,0.5,95,138.0
1545,F#2,198.5,0.5,95,138.0
1546,C2,198.5,0.5,95,138.0
1547,A1,199.0,9/125,95,138.0
1548,F#2,199.0,0.5,95,138.0
1549,D2,199.0,0.5,95,138.0
1550,A1,199.5,0.5,95,138.0
1551,A1,200.0,1.0,95,138.0
1552,E3,200.0,0.5,95,138.0
1553,A2,200.0,0.5,95,138.0
1554,F#2,200.0,0.5,95,138.0
1555,C2,200.0,0.5,95,138.0
1556,G2,200.5,0.5,95,138.0
1557,A1,201.0,9/125,95,138.0
1558,F#2,201.0,0.5,95,138.0
1559,D2,201.0,0.5,95,138.0
1560,A1,201.5,0.5,95,138.0
1561,C4,201.5,0.5,95,138.0
1562,G3,201.5,0.5,95,138.0
1563,A1,202.0,1.0,95,138.0
1564,B3,202.0,9/125,95,138.0
1565,G3,202.0,9/125,95,138.0
1566,D3,202.0,9/125,95,138.0
1567,A2,202.0,9/125,95,138.0
1568,F#2,202.0,0.5,95,138.0
1569,C2,202.0,0.5,95,138.0
1570,F#2,202.5,0.5,95,138.0
1571,C2,202.5,0.5,95,138.0
1572,A1,203.0,9/125,95,138.0
1573,D4,203.0,9/125,95,138.0
1574,A3,203.0,9/125,95,138.0
1575,F#2,203.0,0.5,95,138.0
1576,D2,203.0,0.5,95,138.0
1577,A1,203.5,0.5,95,138.0
1578,D4,203.5,0.5,95,138.0
1579,A3,203.5,0.5,95,138.0
1580,A2,204.0,0.125,95,138.0
1581,A1,204.0,1.0,95,138.0
1582,F#2,204.0,0.5,95,138.0
1583,C2,204.0,0.5,95,138.0
1584,A2,204.125,0.125,95,138.0
1585,A2,204.25,0.125,95,138.0
1586,A2,204.375,0.125,95,138.0
1587,A2,204.5,0.125,95,138.0
1588,A2,204.625,0.125,95,138.0
1589,A2,204.75,0.125,95,138.0
1590,A2,204.875,0.125,95,138.0
1591,C3,205.0,0.125,95,138.0
1592,A1,205.0,9/125,95,138.0
1593,F#2,205.0,0.5,95,138.0
1594,D2,205.0,0.5,95,138.0
1595,C3,205.125,0.125,95,138.0
1596,C3,205.25,0.125,95,138.0
1597,C3,205.375,0.125,95,138.0
1598,C3,205.5,0.125,95,138.0
1599,A1,205.5,0.5,95,138.0
1600,C3,205.625,0.125,95,138.0
1601,C3,205.75,0.125,95,138.0
1602,C3,205.875,0.125,95,138.0
1603,D3,206.0,0.125,95,138.0
1604,A1,206.0,1.0,95,138.0
1605,F#2,206.0,0.5,95,138.0
1606,C2,206.0,0.5,95,138.0
1607,D3,206.125,0.125,95,138.0
1608,D3,206.25,0.125,95,138.0
1609,D3,206.375,0.125,95,138.0
1610,D3,206.5,0.125,95,138.0
1611,F#2,206.5,0.5,95,138.0
1612,C2,206.5,0.5,95,138.0
1613,D3,206.625,0.125,95,138.0
1614,D3,206.75,0.125,95,138.0
1615,D3,206.875,0.125,95,138.0
1616,C3,207.0,0.125,95,138.0
1617,A1,207.0,9/125,95,138.0
1618,F#2,207.0,0.5,95,138.0
1619,D2,207.0,0.5,95,138.0
1620,C3,207.125,0.125,95,138.0
1621,C3,207.25,0.125,95,138.0
1622,C3,207.375,0.125,95,138.0
1623,C3,207.5,0.125,95,138.0
1624,A1,207.5,0.5,95,138.0
1625,C3,207.625,0.125,95,138.0
1626,C3,207.75,0.125,95,138.0
1627,C3,207.875,0.125,95,138.0
1628,A1,208.0,1.0,95,138.0
1629,E3,208.0,0.5,95,138.0
1630,A2,208.0,0.5,95,138.0
1631,F#2,208.0,0.5,95,138.0
1632,C2,208.0,0.5,95,138.0
1633,G2,208.5,0.5,95,138.0
1634,A1,209.0,9/125,95,138.0
1635,F#2,209.0,0.5,95,138.0
1636,D2,209.0,0.5,95,138.0
1637,A1,209.5,0.5,95,138.0
1638,C4,209.5,0.5,95,138.0
1639,G3,209.5,0.5,95,138.0
1640,A1,210.0,1.0,95,138.0
1641,B3,210.0,9/125,95,138.0
1642,G3,210.0,9/125,95,138.0
1643,D3,210.0,9/125,95,138.0
1644,A2,210.0,9/125,95,138.0
1645,F#2,210.0,0.5,95,138.0
1646,C2,210.0,0.5,95,138.0
1647,F#2,210.5,0.5,95,138.0
1648,C2,210.5,0.5,95,138.0
1649,A1,211.0,9/125,95,138.0
1650,D4,211.0,9/125,95,138.0
1651,A3,211.0,9/125,95,138.0
1652,F#2,211.0,0.5,95,138.0
1653,D2,211.0,0.5,95,138.0
1654,A1,211.5,0.5,95,138.0
1655,D4,211.5,0.5,95,138.0
1656,A3,211.5,0.5,95,138.0
1657,A1,212.0,1.0,95,138.0
1658,F#2,212.0,0.5,95,138.0
1659,C2,212.0,0.5,95,138.0
1660,A1,213.0,9/125,95,138.0
1661,F#2,213.0,0.5,95,138.0
1662,D2,213.0,0.5,95,138.0
1663,B3,213.5,0.5,95,138.0
1664,A1,213.5,0.5,95,138.0
1665,A3,213.5,1.0,95,138.0
1666,E3,213.5,1.0,95,138.0
1667,A2,213.5,1.0,95,138.0
1668,C4,214.0,0.5,70,138.0
1669,A1,214.0,1.0,95,138.0
1670,F#2,214.0,0.5,95,138.0
1671,C2,214.0,0.5,95,138.0
1672,C4,214.5,0.5,95,138.0
1673,A3,214.5,0.5,95,138.0
1674,E3,214.5,0.5,95,138.0
1675,A2,214.5,0.5,95,138.0
1676,F#2,214.5,0.5,95,138.0
1677,C2,214.5,0.5,95,138.0
1678,A1,215.0,9/125,95,138.0
1679,F#2,215.0,0.5,95,138.0
1680,D2,215.0,0.5,95,138.0
1681,A1,215.5,0.5,95,138.0
1682,A1,216.0,1.0,95,138.0
1683,E3,216.0,0.5,95,138.0
1684,A2,216.0,0.5,95,138.0
1685,F#2,216.0,0.5,95,138.0
1686,C2,216.0,0.5,95,138.0
1687,G2,216.5,0.5,95,138.0
1688,A1,217.0,9/125,95,138.0
1689,F#2,217.0,0.5,95,138.0
1690,D2,217.0,0.5,95,138.0
1691,A1,217.5,0.5,95,138.0
1692,C4,217.5,0.5,95,138.0
1693,G3,217.5,0.5,95,138.0
1694,A1,218.0,1.0,95,138.0
1695,B3,218.0,9/125,95,138.0
1696,G3,218.0,9/125,95,138.0
1697,D3,218.0,9/125,95,138.0
1698,A2,218.0,9/125,95,138.0
1699,F#2,218.0,0.5,95,138.0
1700,C2,218.0,0.5,95,138.0
1701,F#2,218.5,0.5,95,138.0
1702,C2,218.5,0.5,95,138.0
1703,A1,219.0,9/125,95,138.0
1704,D4,219.0,9/125,95,138.0
1705,A3,219.0,9/125,95,138.0
1706,F#2,219.0,0.5,95,138.0
1707,D2,219.0,0.5,95,138.0
1708,A1,219.5,0.5,95,138.0
1709,D4,219.5,0.5,95,138.0
1710,A3,219.5,0.5,95,138.0
1711,G1,220.0,1.0,95,138.0
1712,G3,220.0,1.0,95,138.0
1713,D3,220.0,1.0,95,138.0
1714,G2,220.0,1.0,95,138.0
1715,F#2,220.0,0.5,95,138.0
1716,C2,220.0,0.5,95,138.0
1717,A1,221.0,9/125,95,138.0
1718,B3,221.0,9/125,95,138.0
1719,G3,221.0,9/125,95,138.0
1720,D3,221.0,9/125,95,138.0
1721,A2,221.0,9/125,95,138.0
1722,F#2,221.0,0.5,95,138.0
1723,D2,221.0,0.5,95,138.0
1724,A1,221.5,0.5,95,138.0
1725,A3,221.5,0.5,95,138.0
1726,E3,221.5,0.5,95,138.0
1727,A2,221.5,0.5,95,138.0
1728,A1,222.0,1.0,95,138.0
1729,A3,222.0,2.0,95,138.0
1730,E3,222.0,2.0,95,138.0
1731,A2,222.0,2.0,95,138.0
1732,F#2,222.0,0.5,95,138.0
1733,C2,222.0,0.5,95,138.0
1734,F#2,222.5,0.5,95,138.0
1735,C2,222.5,0.5,95,138.0
1736,A2,223.0,1.0,95,138.0
1737,F#2,223.0,0.5,95,138.0
1738,D2,223.0,0.5,95,138.0
1739,B1,224.0,1.0,95,138.0
1740,B3,224.0,1.0,95,138.0
1741,F#3,224.0,1.0,95,138.0
1742,B2,224.0,1.0,95,138.0
1743,B-2,224.0,0.5,95,138.0
1744,C#3,224.0,0.5,95,138.0
1745,C2,224.0,0.5,95,138.0
1746,B-2,224.5,0.5,95,138.0
1747,B2,225.0,0.5,95,138.0
1748,B1,225.0,0.5,95,138.0
1749,B-2,225.0,0.5,95,138.0
1750,D2,225.0,0.5,95,138.0
1751,B2,225.5,0.5,95,138.0
1752,B1,225.5,0.5,95,138.0
1753,B-2,225.5,0.5,95,138.0
1754,B2,226.0,0.5,95,138.0
1755,B1,226.0,0.5,95,138.0
1756,B-2,226.0,0.5,95,138.0
1757,C2,226.0,0.5,95,138.0
1758,B2,226.5,0.5,95,138.0
1759,B1,226.5,0.5,95,138.0
1760,B-2,226.5,0.5,95,138.0
1761,C2,226.5,0.5,95,138.0
1762,B2,227.0,0.5,95,138.0
1763,B1,227.0,0.5,95,138.0
1764,B-2,227.0,0.5,95,138.0
1765,D2,227.0,0.5,95,138.0
1766,B2,227.5,0.5,95,138.0
1767,B1,227.5,0.5,95,138.0
1768,B-2,227.5,0.5,95,138.0
1769,D2,228.0,1.0,95,138.0
1770,D4,228.0,1.0,95,138.0
1771,A3,228.0,1.0,95,138.0
1772,D3,228.0,1.0,95,138.0
1773,B-2,228.0,0.5,95,138.0
1774,C#3,228.0,0.5,95,138.0
1775,C2,228.0,0.5,95,138.0
1776,B-2,228.5,0.5,95,138.0
1777,D3,229.0,0.5,95,138.0
1778,D2,229.0,0.5,95,138.0
1779,B-2,229.0,0.5,95,138.0
1780,D2,229.0,0.5,95,138.0
1781,D3,229.5,0.5,95,138.0
1782,D2,229.5,0.5,95,138.0
1783,B-2,229.5,0.5,95,138.0
1784,D3,230.0,0.5,95,138.0
1785,D2,230.0,0.5,95,138.0
1786,B-2,230.0,0.5,95,138.0
1787,C2,230.0,0.5,95,138.0
1788,D3,230.5,0.5,95,138.0
1789,D2,230.5,0.5,95,138.0
1790,B-2,230.5,0.5,95,138.0
1791,C2,230.5,0.5,95,138.0
1792,D3,231.0,0.5,95,138.0
1793,D2,231.0,0.5,95,138.0
1794,B-2,231.0,0.5,95,138.0
1795,D2,231.0,0.5,95,138.0
1796,D3,231.5,0.5,95,138.0
1797,D2,231.5,0.5,95,138.0
1798,B-2,231.5,0.5,95,138.0
1799,E1,232.0,1.0,95,138.0
1800,E4,232.0,1.0,95,138.0
1801,B3,232.0,1.0,95,138.0
1802,E3,232.0,1.0,95,138.0
1803,E2,232.0,1.0,95,138.0
1804,B-2,232.0,0.5,95,138.0
1805,C#3,232.0,0.5,95,138.0
1806,C2,232.0,0.5,95,138.0
1807,B-2,232.5,0.5,95,138.0
1808,E3,233.0,0.5,95,138.0
1809,E1,233.0,0.5,95,138.0
1810,B-2,233.0,0.5,95,138.0
1811,D2,233.0,0.5,95,138.0
1812,E3,233.5,0.5,95,138.0
1813,E1,233.5,0.5,95,138.0
1814,B-2,233.5,0.5,95,138.0
1815,E3,234.0,0.5,95,138.0
1816,E1,234.0,0.5,95,138.0
1817,B-2,234.0,0.5,95,138.0
1818,C2,234.0,0.5,95,138.0
1819,E3,234.5,0.5,95,138.0
1820,E1,234.5,0.5,95,138.0
1821,B-2,234.5,0.5,95,138.0
1822,C2,234.5,0.5,95,138.0
1823,E3,235.0,0.5,95,138.0
1824,E1,235.0,0.5,95,138.0
1825,B-2,235.0,0.5,95,138.0
1826,D2,235.0,0.5,95,138.0
1827,E3,235.5,0.5,95,138.0
1828,E1,235.5,0.5,95,138.0
1829,B-2,235.5,0.5,95,138.0
1830,E3,236.0,0.5,95,138.0
1831,E1,236.0,0.5,95,138.0
1832,B-2,236.0,0.5,95,138.0
1833,C2,236.0,0.5,95,138.0
1834,E3,236.5,0.5,95,138.0
1835,E1,236.5,0.5,95,138.0
1836,B-2,236.5,0.5,95,138.0
1837,E3,237.0,0.5,95,138.0
1838,E1,237.0,0.5,95,138.0
1839,B-2,237.0,0.5,95,138.0
1840,D2,237.0,0.5,95,138.0
1841,E3,237.5,0.5,95,138.0
1842,E1,237.5,0.5,95,138.0
1843,B-2,237.5,0.5,95,138.0
1844,E3,238.0,0.5,95,138.0
1845,E1,238.0,0.5,95,138.0
1846,B-2,238.0,0.5,95,138.0
1847,C2,238.0,0.5,95,138.0
1848,E3,238.5,0.5,95,138.0
1849,E1,238.5,0.5,95,138.0
1850,B-2,238.5,0.5,95,138.0
1851,C2,238.5,0.5,95,138.0
1852,E3,239.0,0.5,95,138.0
1853,E1,239.0,0.5,95,138.0
1854,B-2,239.0,0.5,95,138.0
1855,D2,239.0,0.5,95,138.0
1856,E3,239.5,0.5,95,138.0
1857,E1,239.5,0.5,95,138.0
1858,B-2,239.5,0.5,95,138.0
1859,B1,240.0,1.0,95,138.0
1860,B3,240.0,1.0,95,138.0
1861,F#3,240.0,1.0,95,138.0
1862,B2,240.0,1.0,95,138.0
1863,B-2,240.0,0.5,95,138.0
1864,C#3,240.0,0.5,95,138.0
1865,C2,240.0,0.5,95,138.0
1866,B-2,240.5,0.5,95,138.0
1867,B2,241.0,0.5,95,138.0
1868,B1,241.0,0.5,95,138.0
1869,B-2,241.0,0.5,95,138.0
1870,D2,241.0,0.5,95,138.0
1871,B2,241.5,0.5,95,138.0
1872,B1,241.5,0.5,95,138.0
1873,B-2,241.5,0.5,95,138.0
1874,B2,242.0,0.5,95,138.0
1875,B1,242.0,0.5,95,138.0
1876,B-2,242.0,0.5,95,138.0
1877,C2,242.0,0.5,95,138.0
1878,B2,242.5,0.5,95,138.0
1879,B1,242.5,0.5,95,138.0
1880,B-2,242.5,0.5,95,138.0
1881,C2,242.5,0.5,95,138.0
1882,B2,243.0,0.5,95,138.0
1883,B1,243.0,0.5,95,138.0
1884,B-2,243.0,0.5,95,138.0
1885,D2,243.0,0.5,95,138.0
1886,B2,243.5,0.5,95,138.0
1887,B1,243.5,0.5,95,138.0
1888,B-2,243.5,0.5,95,138.0
1889,D2,244.0,1.0,95,138.0
1890,D4,244.0,1.0,95,138.0
1891,A3,244.0,1.0,95,138.0
1892,D3,244.0,1.0,95,138.0
1893,B-2,244.0,0.5,95,138.0
1894,C#3,244.0,0.5,95,138.0
1895,C2,244.0,0.5,95,138.0
1896,B-2,244.5,0.5,95,138.0
1897,D3,245.0,0.5,95,138.0
1898,D2,245.0,0.5,95,138.0
1899,B-2,245.0,0.5,95,138.0
1900,D2,245.0,0.5,95,138.0
1901,D3,245.5,0.5,95,138.0
1902,D2,245.5,0.5,95,138.0
1903,B-2,245.5,0.5,95,138.0
1904,D3,246.0,0.5,95,138.0
1905,D2,246.0,0.5,95,138.0
1906,B-2,246.0,0.5,95,138.0
1907,C2,246.0,0.5,95,138.0
1908,D3,246.5,0.5,95,138.0
1909,D2,246.5,0.5,95,138.0
1910,B-2,246.5,0.5,95,138.0
1911,C2,246.5,0.5,95,138.0
1912,D3,247.0,0.5,95,138.0
1913,D2,247.0,0.5,95,138.0
1914,B-2,247.0,0.5,95,138.0
1915,D2,247.0,0.5,95,138.0
1916,D3,247.5,0.5,95,138.0
1917,D2,247.5,0.5,95,138.0
1918,B-2,247.5,0.5,95,138.0
1919,E1,248.0,1.0,95,138.0
1920,E4,248.0,1.0,95,138.0
1921,B3,248.0,1.0,95,138.0
1922,E3,248.0,1.0,95,138.0
1923,E2,248.0,1.0,95,138.0
1924,B-2,248.0,0.5,95,138.0
1925,C#3,248.0,0.5,95,138.0
1926,C2,248.0,0.5,95,138.0
1927,B-2,248.5,0.5,95,138.0
1928,E3,249.0,0.5,95,138.0
1929,E1,249.0,0.5,95,138.0
1930,B-2,249.0,0.5,95,138.0
1931,D2,249.0,0.5,95,138.0
1932,E3,249.5,0.5,95,138.0
1933,E1,249.5,0.5,95,138.0
1934,B-2,249.5,0.5,95,138.0
1935,E3,250.0,0.5,95,138.0
1936,E1,250.0,0.5,95,138.0
1937,B-2,250.0,0.5,95,138.0
1938,C2,250.0,0.5,95,138.0
1939,E3,250.5,0.5,95,138.0
1940,E1,250.5,0.5,95,138.0
1941,B-2,250.5,0.5,95,138.0
1942,C2,250.5,0.5,95,138.0
1943,E3,251.0,0.5,95,138.0
1944,E1,251.0,0.5,95,138.0
1945,B-2,251.0,0.5,95,138.0
1946,D2,251.0,0.5,95,138.0
1947,E3,251.5,0.5,95,138.0
1948,E1,251.5,0.5,95,138.0
1949,B-2,251.5,0.5,95,138.0
1950,E3,252.0,0.5,95,138.0
1951,E1,252.0,0.5,95,138.0
1952,B-2,252.0,0.5,95,138.0
1953,C2,252.0,0.5,95,138.0
1954,E1,252.5,0.5,95,138.0
1955,B-2,252.5,0.5,95,138.0
1956,E4,252.5,0.5,95,138.0
1957,B3,252.5,0.5,95,138.0
1958,E3,252.5,0.5,95,138.0
1959,E2,252.5,0.5,95,138.0
1960,E1,253.0,0.5,95,138.0
1961,E4,253.0,0.5,95,138.0
1962,B3,253.0,0.5,95,138.0
1963,E3,253.0,0.5,95,138.0
1964,E2,253.0,0.5,95,138.0
1965,B-2,253.0,0.5,95,138.0
1966,D2,253.0,0.5,95,138.0
1967,E1,253.5,0.5,95,138.0
1968,B-2,253.5,0.5,95,138.0
1969,E4,253.5,0.5,95,138.0
1970,B3,253.5,0.5,95,138.0
1971,E3,253.5,0.5,95,138.0
1972,E2,253.5,0.5,95,138.0
1973,E1,254.0,0.5,95,138.0
1974,E4,254.0,0.5,95,138.0
1975,B3,254.0,0.5,95,138.0
1976,E3,254.0,0.5,95,138.0
1977,E2,254.0,0.5,95,138.0
1978,B-2,254.0,0.5,95,138.0
1979,C2,254.0,0.5,95,138.0
1980,E1,254.5,0.5,95,138.0
1981,E4,254.5,0.5,95,138.0
1982,B3,254.5,0.5,95,138.0
1983,E3,254.5,0.5,95,138.0
1984,E2,254.5,0.5,95,138.0
1985,B-2,254.5,0.5,95,138.0
1986,C2,254.5,0.5,95,138.0
1987,E1,255.0,0.5,95,138.0
1988,E4,255.0,0.5,95,138.0
1989,B3,255.0,0.5,95,138.0
1990,E3,255.0,0.5,95,138.0
1991,E2,255.0,0.5,95,138.0
1992,B-2,255.0,0.5,95,138.0
1993,D2,255.0,0.5,95,138.0
1994,E1,255.5,0.5,95,138.0
1995,B-2,255.5,0.5,95,138.0
1996,E4,255.5,0.5,95,138.0
1997,B3,255.5,0.5,95,138.0
1998,E3,255.5,0.5,95,138.0
1999,E2,255.5,0.5,95,138.0
2000,A2,256.0,0.5,95,138.0
2001,A1,256.0,1.0,95,138.0
2002,B-2,256.0,0.5,95,138.0
2003,C#3,256.0,0.5,95,138.0
2004,C2,256.0,0.5,95,138.0
2005,E3,256.5,0.5,95,138.0
2006,B-2,256.5,0.5,95,138.0
2007,A3,257.0,0.5,95,138.0
2008,A1,257.0,9/125,95,138.0
2009,B-2,257.0,0.5,95,138.0
2010,D2,257.0,0.5,95,138.0
2011,C4,257.5,0.5,95,138.0
2012,A1,257.5,0.5,95,138.0
2013,B-2,257.5,0.5,95,138.0
2014,A1,258.0,1.0,95,138.0
2015,C4,258.0,1.0,95,138.0
2016,A3,258.0,1.0,95,138.0
2017,E3,258.0,1.0,95,138.0
2018,A2,258.0,1.0,95,138.0
2019,B-2,258.0,0.5,95,138.0
2020,C2,258.0,0.5,95,138.0
2021,B-2,258.5,0.5,95,138.0
2022,C2,258.5,0.5,95,138.0
2023,A1,259.0,9/125,95,138.0
2024,D4,259.0,9/125,95,138.0
2025,A3,259.0,9/125,95,138.0
2026,E3,259.0,9/125,95,138.0
2027,A2,259.0,9/125,95,138.0
2028,B-2,259.0,0.5,95,138.0
2029,D2,259.0,0.5,95,138.0
2030,A1,259.5,0.5,95,138.0
2031,B-2,259.5,0.5,95,138.0
2032,D4,259.5,0.5,95,138.0
2033,A3,259.5,0.5,95,138.0
2034,E3,259.5,0.5,95,138.0
2035,A2,259.5,0.5,95,138.0
2036,A1,260.0,1.0,95,138.0
2037,D4,260.0,1.0,95,138.0
2038,A3,260.0,1.0,95,138.0
2039,E3,260.0,1.0,95,138.0
2040,A2,260.0,1.0,95,138.0
2041,B-2,260.0,0.5,95,138.0
2042,C#3,260.0,0.5,95,138.0
2043,C2,260.0,0.5,95,138.0
2044,B-2,260.5,0.5,95,138.0
2045,A1,261.0,9/125,95,138.0
2046,B3,261.0,9/125,95,138.0
2047,G3,261.0,9/125,95,138.0
2048,D3,261.0,9/125,95,138.0
2049,A2,261.0,9/125,95,138.0
2050,B-2,261.0,0.5,95,138.0
2051,D2,261.0,0.5,95,138.0
2052,B3,261.5,0.5,95,138.0
2053,A1,261.5,0.5,95,138.0
2054,B-2,261.5,0.5,95,138.0
2055,A3,261.5,1.0,95,138.0
2056,E3,261.5,1.0,95,138.0
2057,A2,261.5,1.0,95,138.0
2058,C4,262.0,0.5,70,138.0
2059,A1,262.0,1.0,95,138.0
2060,B-2,262.0,0.5,95,138.0
2061,C2,262.0,0.5,95,138.0
2062,C4,262.5,0.5,95,138.0
2063,A3,262.5,0.5,95,138.0
2064,E3,262.5,0.5,95,138.0
2065,A2,262.5,0.5,95,138.0
2066,B-2,262.5,0.5,95,138.0
2067,C2,262.5,0.5,95,138.0
2068,A2,263.0,0.5,95,138.0
2069,C4,263.0,1.0,95,138.0
2070,A3,263.0,1.0,95,138.0
2071,E3,263.0,1.0,95,138.0
2072,A2,263.0,1.0,95,138.0
2073,B-2,263.0,0.5,95,138.0
2074,D2,263.0,0.5,95,138.0
2075,A1,263.5,0.5,95,138.0
2076,B-2,263.5,0.5,95,138.0
2077,A2,264.0,0.5,95,138.0
2078,A1,264.0,1.0,95,138.0
2079,B-2,264.0,0.5,95,138.0
2080,C#3,264.0,0.5,95,138.0
2081,C2,264.0,0.5,95,138.0
2082,E3,264.5,0.5,95,138.0
2083,B-2,264.5,0.5,95,138.0
2084,A3,265.0,0.5,95,138.0
2085,A1,265.0,9/125,95,138.0
2086,B-2,265.0,0.5,95,138.0
2087,D2,265.0,0.5,95,138.0
2088,C4,265.5,0.5,95,138.0
2089,A1,265.5,0.5,95,138.0
2090,B-2,265.5,0.5,95,138.0
2091,A1,266.0,1.0,95,138.0
2092,C4,266.0,1.0,95,138.0
2093,A3,266.0,1.0,95,138.0
2094,E3,266.0,1.0,95,138.0
2095,A2,266.0,1.0,95,138.0
2096,B-2,266.0,0.5,95,138.0
2097,C2,266.0,0.5,95,138.0
2098,B-2,266.5,0.5,95,138.0
2099,C2,266.5,0.5,95,138.0
2100,A1,267.0,9/125,95,138.0
2101,D4,267.0,9/125,95,138.0
2102,A3,267.0,9/125,95,138.0
2103,E3,267.0,9/125,95,138.0
2104,A2,267.0,9/125,95,138.0
2105,B-2,267.0,0.5,95,138.0
2106,D2,267.0,0.5,95,138.0
2107,A1,267.5,0.5,95,138.0
2108,B-2,267.5,0.5,95,138.0
2109,D4,267.5,0.5,95,138.0
2110,A3,267.5,0.5,95,138.0
2111,E3,267.5,0.5,95,138.0
2112,A2,267.5,0.5,95,138.0
2113,C2,268.0,1.0,95,138.0
2114,C4,268.0,1.0,95,138.0
2115,G3,268.0,1.0,95,138.0
2116,E3,268.0,1.0,95,138.0
2117,C3,268.0,1.0,95,138.0
2118,B-2,268.0,0.5,95,138.0
2119,C#3,268.0,0.5,95,138.0
2120,C2,268.0,0.5,95,138.0
2121,B-2,268.5,0.5,95,138.0
2122,A1,269.0,9/125,95,138.0
2123,B3,269.0,9/125,95,138.0
2124,G3,269.0,9/125,95,138.0
2125,D3,269.0,9/125,95,138.0
2126,A2,269.0,9/125,95,138.0
2127,B-2,269.0,0.5,95,138.0
2128,D2,269.0,0.5,95,138.0
2129,D2,269.5,0.5,95,138.0
2130,B-2,269.5,0.5,95,138.0
2131,D4,269.5,0.5,95,138.0
2132,G3,269.5,0.5,95,138.0
2133,F#3,269.5,0.5,95,138.0
2134,D3,269.5,0.5,95,138.0
2135,D2,270.0,1.0,95,138.0
2136,D4,270.0,2.0,95,138.0
2137,G3,270.0,2.0,95,138.0
2138,F#3,270.0,2.0,95,138.0
2139,D3,270.0,2.0,95,138.0
2140,B-2,270.0,0.5,95,138.0
2141,C2,270.0,0.5,95,138.0
2142,B-2,270.5,0.5,95,138.0
2143,C2,270.5,0.5,95,138.0
2144,A2,271.0,1.0,95,138.0
2145,B-2,271.0,0.5,95,138.0
2146,D2,271.0,0.5,95,138.0
2147,B-2,271.5,0.5,95,138.0
2148,A2,272.0,0.5,95,138.0
2149,A1,272.0,1.0,95,138.0
2150,B-2,272.0,0.5,95,138.0
2151,C#3,272.0,0.5,95,138.0
2152,C2,272.0,0.5,95,138.0
2153,E3,272.5,0.5,95,138.0
2154,B-2,272.5,0.5,95,138.0
2155,A3,273.0,0.5,95,138.0
2156,A1,273.0,9/125,95,138.0
2157,B-2,273.0,0.5,95,138.0
2158,D2,273.0,0.5,95,138.0
2159,C4,273.5,0.5,95,138.0
2160,A1,273.5,0.5,95,138.0
2161,B-2,273.5,0.5,95,138.0
2162,A1,274.0,1.0,95,138.0
2163,C4,274.0,1.0,95,138.0
2164,A3,274.0,1.0,95,138.0
2165,E3,274.0,1.0,95,138.0
2166,A2,274.0,1.0,95,138.0
2167,B-2,274.0,0.5,95,138.0
2168,C2,274.0,0.5,95,138.0
2169,B-2,274.5,0.5,95,138.0
2170,C2,274.5,0.5,95,138.0
2171,A1,275.0,9/125,95,138.0
2172,D4,275.0,9/125,95,138.0
2173,A3,275.0,9/125,95,138.0
2174,E3,275.0,9/125,95,138.0
2175,A2,275.0,9/125,95,138.0
2176,B-2,275.0,0.5,95,138.0
2177,D2,275.0,0.5,95,138.0
2178,A1,275.5,0.5,95,138.0
2179,B-2,275.5,0.5,95,138.0
2180,D4,275.5,0.5,95,138.0
2181,A3,275.5,0.5,95,138.0
2182,E3,275.5,0.5,95,138.0
2183,A2,275.5,0.5,95,138.0
2184,A1,276.0,1.0,95,138.0
2185,D4,276.0,1.0,95,138.0
2186,A3,276.0,1.0,95,138.0
2187,E3,276.0,1.0,95,138.0
2188,A2,276.0,1.0,95,138.0
2189,B-2,276.0,0.5,95,138.0
2190,C#3,276.0,0.5,95,138.0
2191,C2,276.0,0.5,95,138.0
2192,B-2,276.5,0.5,95,138.0
2193,A1,277.0,9/125,95,138.0
2194,B3,277.0,9/125,95,138.0
2195,G3,277.0,9/125,95,138.0
2196,D3,277.0,9/125,95,138.0
2197,A2,277.0,9/125,95,138.0
2198,B-2,277.0,0.5,95,138.0
2199,D2,277.0,0.5,95,138.0
2200,B3,277.5,0.5,95,138.0
2201,A1,277.5,0.5,95,138.0
2202,B-2,277.5,0.5,95,138.0
2203,A3,277.5,1.0,95,138.0
2204,E3,277.5,1.0,95,138.0
2205,A2,277.5,1.0,95,138.0
2206,C4,278.0,0.5,70,138.0
2207,A1,278.0,1.0,95,138.0
2208,B-2,278.0,0.5,95,138.0
2209,C2,278.0,0.5,95,138.0
2210,C4,278.5,0.5,95,138.0
2211,A3,278.5,0.5,95,138.0
2212,E3,278.5,0.5,95,138.0
2213,A2,278.5,0.5,95,138.0
2214,B-2,278.5,0.5,95,138.0
2215,C2,278.5,0.5,95,138.0
2216,A2,279.0,0.5,95,138.0
2217,C4,279.0,1.0,95,138.0
2218,A3,279.0,1.0,95,138.0
2219,E3,279.0,1.0,95,138.0
2220,A2,279.0,1.0,95,138.0
2221,B-2,279.0,0.5,95,138.0
2222,D2,279.0,0.5,95,138.0
2223,A1,279.5,0.5,95,138.0
2224,B-2,279.5,0.5,95,138.0
2225,A2,280.0,0.5,95,138.0
2226,A1,280.0,1.0,95,138.0
2227,B-2,280.0,0.5,95,138.0
2228,C#3,280.0,0.5,95,138.0
2229,C2,280.0,0.5,95,138.0
2230,E3,280.5,0.5,95,138.0
2231,B-2,280.5,0.5,95,138.0
2232,A3,281.0,0.5,95,138.0
2233,A1,281.0,9/125,95,138.0
2234,B-2,281.0,0.5,95,138.0
2235,D2,281.0,0.5,95,138.0
2236,C4,281.5,0.5,95,138.0
2237,A1,281.5,0.5,95,138.0
2238,B-2,281.5,0.5,95,138.0
2239,A1,282.0,1.0,95,138.0
2240,C4,282.0,1.0,95,138.0
2241,A3,282.0,1.0,95,138.0
2242,E3,282.0,1.0,95,138.0
2243,A2,282.0,1.0,95,138.0
2244,B-2,282.0,0.5,95,138.0
2245,C2,282.0,0.5,95,138.0
2246,B-2,282.5,0.5,95,138.0
2247,C2,282.5,0.5,95,138.0
2248,A1,283.0,9/125,95,138.0
2249,D4,283.0,9/125,95,138.0
2250,A3,283.0,9/125,95,138.0
2251,E3,283.0,9/125,95,138.0
2252,A2,283.0,9/125,95,138.0
2253,B-2,283.0,0.5,95,138.0
2254,D2,283.0,0.5,95,138.0
2255,A1,283.5,0.5,95,138.0
2256,B-2,283.5,0.5,95,138.0
2257,D4,283.5,0.5,95,138.0
2258,A3,283.5,0.5,95,138.0
2259,E3,283.5,0.5,95,138.0
2260,A2,283.5,0.5,95,138.0
2261,G1,284.0,1.0,95,138.0
2262,G3,284.0,1.0,95,138.0
2263,D3,284.0,1.0,95,138.0
2264,G2,284.0,1.0,95,138.0
2265,B-2,284.0,0.5,95,138.0
2266,C#3,284.0,0.5,95,138.0
2267,C2,284.0,0.5,95,138.0
2268,B-2,284.5,0.5,95,138.0
2269,A1,285.0,9/125,95,138.0
2270,B3,285.0,9/125,95,138.0
2271,G3,285.0,9/125,95,138.0
2272,D3,285.0,9/125,95,138.0
2273,A2,285.0,9/125,95,138.0
2274,B-2,285.0,0.5,95,138.0
2275,D2,285.0,0.5,95,138.0
2276,A1,285.5,0.5,95,138.0
2277,B-2,285.5,0.5,95,138.0
2278,A3,285.5,0.5,95,138.0
2279,E3,285.5,0.5,95,138.0
2280,A2,285.5,0.5,95,138.0
2281,A1,286.0,1.0,95,138.0
2282,A3,286.0,2.0,95,138.0
2283,E3,286.0,2.0,95,138.0
2284,A2,286.0,2.0,95,138.0
2285,B-2,286.0,0.5,95,138.0
2286,C2,286.0,0.5,95,138.0
2287,B-2,286.5,0.5,95,138.0
2288,C2,286.5,0.5,95,138.0
2289,A2,287.0,1.0,95,138.0
2290,B-2,287.0,0.5,95,138.0
2291,D2,287.0,0.5,95,138.0
2292,B-2,287.5,0.5,95,138.0
2293,B1,288.0,1.0,95,138.0
2294,B3,288.0,1.0,95,138.0
2295,F#3,288.0,1.0,95,138.0
2296,B2,288.0,1.0,95,138.0
2297,B-2,288.0,0.5,95,138.0
2298,C#3,288.0,0.5,95,138.0
2299,C2,288.0,0.5,95,138.0
2300,B-2,288.5,0.5,95,138.0
2301,B2,289.0,0.5,95,138.0
2302,B1,289.0,0.5,95,138.0
2303,B-2,289.0,0.5,95,138.0
2304,D2,289.0,0.5,95,138.0
2305,B2,289.5,0.5,95,138.0
2306,B1,289.5,0.5,95,138.0
2307,B-2,289.5,0.5,95,138.0
2308,B2,290.0,0.5,95,138.0
2309,B1,290.0,0.5,95,138.0
2310,B-2,290.0,0.5,95,138.0
2311,C2,290.0,0.5,95,138.0
2312,B2,290.5,0.5,95,138.0
2313,B1,290.5,0.5,95,138.0
2314,B-2,290.5,0.5,95,138.0
2315,C2,290.5,0.5,95,138.0
2316,B2,291.0,0.5,95,138.0
2317,B1,291.0,0.5,95,138.0
2318,B-2,291.0,0.5,95,138.0
2319,D2,291.0,0.5,95,138.0
2320,B2,291.5,0.5,95,138.0
2321,B1,291.5,0.5,95,138.0
2322,B-2,291.5,0.5,95,138.0
2323,D2,292.0,1.0,95,138.0
2324,D4,292.0,1.0,95,138.0
2325,A3,292.0,1.0,95,138.0
2326,D3,292.0,1.0,95,138.0
2327,B-2,292.0,0.5,95,138.0
2328,C#3,292.0,0.5,95,138.0
2329,C2,292.0,0.5,95,138.0
2330,B-2,292.5,0.5,95,138.0
2331,D3,293.0,0.5,95,138.0
2332,D2,293.0,0.5,95,138.0
2333,B-2,293.0,0.5,95,138.0
2334,D2,293.0,0.5,95,138.0
2335,D3,293.5,0.5,95,138.0
2336,D2,293.5,0.5,95,138.0
2337,B-2,293.5,0.5,95,138.0
2338,D3,294.0,0.5,95,138.0
2339,D2,294.0,0.5,95,138.0
2340,B-2,294.0,0.5,95,138.0
2341,C2,294.0,0.5,95,138.0
2342,D3,294.5,0.5,95,138.0
2343,D2,294.5,0.5,95,138.0
2344,B-2,294.5,0.5,95,138.0
2345,C2,294.5,0.5,95,138.0
2346,D3,295.0,0.5,95,138.0
2347,D2,295.0,0.5,95,138.0
2348,B-2,295.0,0.5,95,138.0
2349,D2,295.0,0.5,95,138.0
2350,D3,295.5,0.5,95,138.0
2351,D2,295.5,0.5,95,138.0
2352,B-2,295.5,0.5,95,138.0
2353,E1,296.0,1.0,95,138.0
2354,E4,296.0,1.0,95,138.0
2355,B3,296.0,1.0,95,138.0
2356,E3,296.0,1.0,95,138.0
2357,E2,296.0,1.0,95,138.0
2358,B-2,296.0,0.5,95,138.0
2359,C#3,296.0,0.5,95,138.0
2360,C2,296.0,0.5,95,138.0
2361,B-2,296.5,0.5,95,138.0
2362,E3,297.0,0.5,95,138.0
2363,E1,297.0,0.5,95,138.0
2364,B-2,297.0,0.5,95,138.0
2365,D2,297.0,0.5,95,138.0
2366,E3,297.5,0.5,95,138.0
2367,E1,297.5,0.5,95,138.0
2368,B-2,297.5,0.5,95,138.0
2369,E3,298.0,0.5,95,138.0
2370,E1,298.0,0.5,95,138.0
2371,B-2,298.0,0.5,95,138.0
2372,C2,298.0,0.5,95,138.0
2373,E3,298.5,0.5,95,138.0
2374,E1,298.5,0.5,95,138.0
2375,B-2,298.5,0.5,95,138.0
2376,C2,298.5,0.5,95,138.0
2377,E3,299.0,0.5,95,138.0
2378,E1,299.0,0.5,95,138.0
2379,B-2,299.0,0.5,95,138.0
2380,D2,299.0,0.5,95,138.0
2381,E3,299.5,0.5,95,138.0
2382,E1,299.5,0.5,95,138.0
2383,B-2,299.5,0.5,95,138.0
2384,E3,300.0,0.5,95,138.0
2385,E1,300.0,0.5,95,138.0
2386,B-2,300.0,0.5,95,138.0
2387,C2,300.0,0.5,95,138.0
2388,E3,300.5,0.5,95,138.0
2389,E1,300.5,0.5,95,138.0
2390,B-2,300.5,0.5,95,138.0
2391,E3,301.0,0.5,95,138.0
2392,E1,301.0,0.5,95,138.0
2393,B-2,301.0,0.5,95,138.0
2394,D2,301.0,0.5,95,138.0
2395,E3,301.5,0.5,95,138.0
2396,E1,301.5,0.5,95,138.0
2397,B-2,301.5,0.5,95,138.0
2398,E3,302.0,0.5,95,138.0
2399,E1,302.0,0.5,95,138.0
2400,B-2,302.0,0.5,95,138.0
2401,C2,302.0,0.5,95,138.0
2402,E3,302.5,0.5,95,138.0
2403,E1,302.5,0.5,95,138.0
2404,B-2,302.5,0.5,95,138.0
2405,C2,302.5,0.5,95,138.0
2406,B-3,303.0,1.0,95,138.0
2407,E3,303.0,0.5,95,138.0
2408,E1,303.0,0.5,95,138.0
2409,B-2,303.0,0.5,95,138.0
2410,D2,303.0,0.5,95,138.0
2411,E3,303.5,0.5,95,138.0
2412,E1,303.5,0.5,95,138.0
2413,B-2,303.5,0.5,95,138.0
2414,B2,304.0,0.5,95,138.0
2415,B1,304.0,1.0,95,138.0
2416,B3,304.0,1.0,95,138.0
2417,F#3,304.0,1.0,95,138.0
2418,B2,304.0,1.0,95,138.0
2419,B-2,304.0,0.5,95,138.0
2420,C#3,304.0,0.5,95,138.0
2421,C2,304.0,0.5,95,138.0
2422,B3,304.5,3.5,95,138.0
2423,B-2,304.5,0.5,95,138.0
2424,B2,305.0,0.5,95,138.0
2425,B1,305.0,0.5,95,138.0
2426,B-2,305.0,0.5,95,138.0
2427,D2,305.0,0.5,95,138.0
2428,B2,305.5,0.5,95,138.0
2429,B1,305.5,0.5,95,138.0
2430,B-2,305.5,0.5,95,138.0
2431,B2,306.0,0.5,95,138.0
2432,B1,306.0,0.5,95,138.0
2433,B-2,306.0,0.5,95,138.0
2434,C2,306.0,0.5,95,138.0
2435,B2,306.5,0.5,95,138.0
2436,B1,306.5,0.5,95,138.0
2437,B-2,306.5,0.5,95,138.0
2438,C2,306.5,0.5,95,138.0
2439,B2,307.0,0.5,95,138.0
2440,B1,307.0,0.5,95,138.0
2441,B-2,307.0,0.5,95,138.0
2442,D2,307.0,0.5,95,138.0
2443,B2,307.5,0.5,95,138.0
2444,B1,307.5,0.5,95,138.0
2445,B-2,307.5,0.5,95,138.0
2446,D4,308.0,4.0,95,138.0
2447,D2,308.0,1.0,95,138.0
2448,D4,308.0,1.0,95,138.0
2449,A3,308.0,1.0,95,138.0
2450,D3,308.0,1.0,95,138.0
2451,B-2,308.0,0.5,95,138.0
2452,C#3,308.0,0.5,95,138.0
2453,C2,308.0,0.5,95,138.0
2454,B-2,308.5,0.5,95,138.0
2455,D3,309.0,0.5,95,138.0
2456,D2,309.0,0.5,95,138.0
2457,B-2,309.0,0.5,95,138.0
2458,D2,309.0,0.5,95,138.0
2459,D3,309.5,0.5,95,138.0
2460,D2,309.5,0.5,95,138.0
2461,B-2,309.5,0.5,95,138.0
2462,D3,310.0,0.5,95,138.0
2463,D2,310.0,0.5,95,138.0
2464,B-2,310.0,0.5,95,138.0
2465,C2,310.0,0.5,95,138.0
2466,D3,310.5,0.5,95,138.0
2467,D2,310.5,0.5,95,138.0
2468,B-2,310.5,0.5,95,138.0
2469,C2,310.5,0.5,95,138.0
2470,D3,311.0,0.5,95,138.0
2471,D2,311.0,0.5,95,138.0
2472,B-2,311.0,0.5,95,138.0
2473,D2,311.0,0.5,95,138.0
2474,D3,311.5,0.5,95,138.0
2475,D2,311.5,0.5,95,138.0
2476,B-2,311.5,0.5,95,138.0
2477,D4,312.0,1.0,95,138.0
2478,E1,312.0,1.0,95,138.0
2479,E4,312.0,1.0,95,138.0
2480,B3,312.0,1.0,95,138.0
2481,E3,312.0,1.0,95,138.0
2482,E2,312.0,1.0,95,138.0
2483,B-2,312.0,0.5,95,138.0
2484,C#3,312.0,0.5,95,138.0
2485,C2,312.0,0.5,95,138.0
2486,B-2,312.5,0.5,95,138.0
2487,E4,313.0,1.0,95,138.0
2488,E3,313.0,0.5,95,138.0
2489,E1,313.0,0.5,95,138.0
2490,B-2,313.0,0.5,95,138.0
2491,D2,313.0,0.5,95,138.0
2492,E3,313.5,0.5,95,138.0
2493,E1,313.5,0.5,95,138.0
2494,B-2,313.5,0.5,95,138.0
2495,E4,314.0,2.0,95,138.0
2496,E3,314.0,0.5,95,138.0
2497,E1,314.0,0.5,95,138.0
2498,B-2,314.0,0.5,95,138.0
2499,C2,314.0,0.5,95,138.0
2500,E3,314.5,0.5,95,138.0
2501,E1,314.5,0.5,95,138.0
2502,B-2,314.5,0.5,95,138.0
2503,C2,314.5,0.5,95,138.0
2504,E3,315.0,0.5,95,138.0
2505,E1,315.0,0.5,95,138.0
2506,B-2,315.0,0.5,95,138.0
2507,D2,315.0,0.5,95,138.0
2508,E3,315.5,0.5,95,138.0
2509,E1,315.5,0.5,95,138.0
2510,B-2,315.5,0.5,95,138.0
2511,G4,316.0,0.5,95,138.0
2512,E3,316.0,0.5,95,138.0
2513,E1,316.0,0.5,95,138.0
2514,B-2,316.0,0.5,95,138.0
2515,C2,316.0,0.5,95,138.0
2516,B4,316.5,0.25,95,138.0
2517,E1,316.5,0.5,95,138.0
2518,B-2,316.5,0.5,95,138.0
2519,E4,316.5,0.5,95,138.0
2520,B3,316.5,0.5,95,138.0
2521,E3,316.5,0.5,95,138.0
2522,E2,316.5,0.5,95,138.0
2523,G4,316.75,0.5,95,138.0
2524,E1,317.0,0.5,95,138.0
2525,E4,317.0,0.5,95,138.0
2526,B3,317.0,0.5,95,138.0
2527,E3,317.0,0.5,95,138.0
2528,E2,317.0,0.5,95,138.0
2529,B-2,317.0,0.5,95,138.0
2530,D2,317.0,0.5,95,138.0
2531,B4,317.25,0.25,95,138.0
2532,G4,317.5,0.5,95,138.0
2533,E1,317.5,0.5,95,138.0
2534,B-2,317.5,0.5,95,138.0
2535,E4,317.5,0.5,95,138.0
2536,B3,317.5,0.5,95,138.0
2537,E3,317.5,0.5,95,138.0
2538,E2,317.5,0.5,95,138.0
2539,B4,318.0,0.25,95,138.0
2540,E1,318.0,0.5,95,138.0
2541,E4,318.0,0.5,95,138.0
2542,B3,318.0,0.5,95,138.0
2543,E3,318.0,0.5,95,138.0
2544,E2,318.0,0.5,95,138.0
2545,B-2,318.0,0.5,95,138.0
2546,C2,318.0,0.5,95,138.0
2547,G4,318.25,0.5,95,138.0
2548,E1,318.5,0.5,95,138.0
2549,E4,318.5,0.5,95,138.0
2550,B3,318.5,0.5,95,138.0
2551,E3,318.5,0.5,95,138.0
2552,E2,318.5,0.5,95,138.0
2553,B-2,318.5,0.5,95,138.0
2554,C2,318.5,0.5,95,138.0
2555,B4,318.75,0.25,95,138.0
2556,G4,319.0,0.5,95,138.0
2557,E1,319.0,0.5,95,138.0
2558,E4,319.0,0.5,95,138.0
2559,B3,319.0,0.5,95,138.0
2560,E3,319.0,0.5,95,138.0
2561,E2,319.0,0.5,95,138.0
2562,B-2,319.0,0.5,95,138.0
2563,D2,319.0,0.5,95,138.0
2564,B4,319.5,0.25,95,138.0
2565,E1,319.5,0.5,95,138.0
2566,B-2,319.5,0.5,95,138.0
2567,E4,319.5,0.5,95,138.0
2568,B3,319.5,0.5,95,138.0
2569,E3,319.5,0.5,95,138.0
2570,E2,319.5,0.5,95,138.0
2571,G4,319.75,0.25,95,138.0
2572,G4,320.0,0.5,95,138.0
2573,A1,320.0,1.0,95,138.0
2574,E3,320.0,1.0,95,138.0
2575,A2,320.0,1.0,95,138.0
2576,B-2,320.0,0.5,95,138.0
2577,C2,320.0,0.5,95,138.0
2578,A4,320.5,0.25,95,138.0
2579,B-2,320.5,0.5,95,138.0
2580,G4,320.75,0.5,95,138.0
2581,A2,321.0,9/125,95,138.0
2582,A1,321.0,9/125,95,138.0
2583,B-2,321.0,0.5,95,138.0
2584,D2,321.0,0.5,95,138.0
2585,A4,321.25,0.25,95,138.0
2586,G4,321.5,0.5,95,138.0
2587,A2,321.5,0.5,95,138.0
2588,A1,321.5,0.5,95,138.0
2589,B-2,321.5,0.5,95,138.0
2590,A4,322.0,0.25,95,138.0
2591,A2,322.0,1.0,95,138.0
2592,A1,322.0,1.0,95,138.0
2593,B-2,322.0,0.5,95,138.0
2594,C2,322.0,0.5,95,138.0
2595,G4,322.25,0.5,95,138.0
2596,B-2,322.5,0.5,95,138.0
2597,C2,322.5,0.5,95,138.0
2598,A4,322.75,0.25,95,138.0
2599,G4,323.0,0.5,95,138.0
2600,A2,323.0,9/125,95,138.0
2601,A1,323.0,9/125,95,138.0
2602,B-2,323.0,0.5,95,138.0
2603,D2,323.0,0.5,95,138.0
2604,A4,323.5,0.25,95,138.0
2605,A2,323.5,0.5,95,138.0
2606,A1,323.5,0.5,95,138.0
2607,B-2,323.5,0.5,95,138.0
2608,G4,323.75,0.25,95,138.0
2609,A4,324.0,0.25,95,138.0
2610,A1,324.0,1.0,95,138.0
2611,E3,324.0,1.0,95,138.0
2612,A2,324.0,1.0,95,138.0
2613,B-2,324.0,0.5,95,138.0
2614,C2,324.0,0.5,95,138.0
2615,B4,324.25,0.25,70,138.0
2616,C5,324.5,0.25,70,138.0
2617,B-2,324.5,0.5,95,138.0
2618,A4,324.75,0.25,70,138.0
2619,B4,325.0,0.25,70,138.0
2620,A2,325.0,9/125,95,138.0
2621,A1,325.0,9/125,95,138.0
2622,B-2,325.0,0.5,95,138.0
2623,D2,325.0,0.5,95,138.0
2624,C5,325.25,0.25,70,138.0
2625,A4,325.5,0.25,70,138.0
2626,A2,325.5,0.5,95,138.0
2627,A1,325.5,0.5,95,138.0
2628,B-2,325.5,0.5,95,138.0
2629,B4,325.75,0.25,70,138.0
2630,C5,326.0,0.25,70,138.0
2631,A2,326.0,1.0,95,138.0
2632,A1,326.0,1.0,95,138.0
2633,B-2,326.0,0.5,95,138.0
2634,C2,326.0,0.5,95,138.0
2635,A4,326.25,0.25,70,138.0
2636,B4,326.5,0.25,70,138.0
2637,B-2,326.5,0.5,95,138.0
2638,C2,326.5,0.5,95,138.0
2639,C5,326.75,0.25,70,138.0
2640,A4,327.0,0.25,70,138.0
2641,A2,327.0,9/125,95,138.0
2642,A1,327.0,9/125,95,138.0
2643,B-2,327.0,0.5,95,138.0
2644,D2,327.0,0.5,95,138.0
2645,B4,327.25,0.25,70,138.0
2646,C5,327.5,0.25,70,138.0
2647,A2,327.5,0.5,95,138.0
2648,A1,327.5,0.5,95,138.0
2649,B-2,327.5,0.5,95,138.0
2650,A4,327.75,0.25,70,138.0
2651,A4,328.0,0.25,95,138.0
2652,A1,328.0,1.0,95,138.0
2653,E3,328.0,1.0,95,138.0
2654,A2,328.0,1.0,95,138.0
2655,B-2,328.0,0.5,95,138.0
2656,C2,328.0,0.5,95,138.0
2657,C5,328.25,0.25,70,138.0
2658,E5,328.5,0.25,70,138.0
2659,B-2,328.5,0.5,95,138.0
2660,A4,328.75,0.25,70,138.0
2661,C5,329.0,0.25,70,138.0
2662,A2,329.0,9/125,95,138.0
2663,A1,329.0,9/125,95,138.0
2664,B-2,329.0,0.5,95,138.0
2665,D2,329.0,0.5,95,138.0
2666,E5,329.25,0.25,70,138.0
2667,A4,329.5,0.25,70,138.0
2668,A2,329.5,0.5,95,138.0
2669,A1,329.5,0.5,95,138.0
2670,B-2,329.5,0.5,95,138.0
2671,C5,329.75,0.25,70,138.0
2672,E5,330.0,0.25,70,138.0
2673,A2,330.0,1.0,95,138.0
2674,A1,330.0,1.0,95,138.0
2675,B-2,330.0,0.5,95,138.0
2676,C2,330.0,0.5,95,138.0
2677,A4,330.25,0.25,70,138.0
2678,C5,330.5,0.25,70,138.0
2679,B-2,330.5,0.5,95,138.0
2680,C2,330.5,0.5,95,138.0
2681,E5,330.75,0.25,70,138.0
2682,A4,331.0,0.25,70,138.0
2683,A2,331.0,9/125,95,138.0
2684,A1,331.0,9/125,95,138.0
2685,B-2,331.0,0.5,95,138.0
2686,D2,331.0,0.5,95,138.0
2687,C5,331.25,0.25,70,138.0
2688,E5,331.5,0.25,70,138.0
2689,A2,331.5,0.5,95,138.0
2690,A1,331.5,0.5,95,138.0
2691,B-2,331.5,0.5,95,138.0
2692,A4,331.75,0.25,70,138.0
2693,A4,332.0,0.25,70,138.0
2694,A1,332.0,1.0,95,138.0
2695,E3,332.0,1.0,95,138.0
2696,A2,332.0,1.0,95,138.0
2697,B-2,332.0,0.5,95,138.0
2698,C2,332.0,0.5,95,138.0
2699,C5,332.25,0.25,70,138.0
2700,F5,332.5,0.25,70,138.0
2701,B-2,332.5,0.5,95,138.0
2702,A4,332.75,0.25,70,138.0
2703,C5,333.0,0.25,70,138.0
2704,A2,333.0,9/125,95,138.0
2705,A1,333.0,9/125,95,138.0
2706,B-2,333.0,0.5,95,138.0
2707,D2,333.0,0.5,95,138.0
2708,F5,333.25,0.25,70,138.0
2709,C5,333.5,0.25,70,138.0
2710,A2,333.5,0.5,95,138.0
2711,A1,333.5,0.5,95,138.0
2712,B-2,333.5,0.5,95,138.0
2713,F5,333.75,0.25,70,138.0
2714,A4,334.0,0.25,70,138.0
2715,A2,334.0,1.0,95,138.0
2716,A1,334.0,1.0,95,138.0
2717,B-2,334.0,0.5,95,138.0
2718,C2,334.0,0.5,95,138.0
2719,C5,334.25,0.25,70,138.0
2720,G5,334.5,0.25,70,138.0
2721,B-2,334.5,0.5,95,138.0
2722,C2,334.5,0.5,95,138.0
2723,A4,334.75,0.25,70,138.0
2724,C5,335.0,0.25,70,138.0
2725,A2,335.0,9/125,95,138.0
2726,A1,335.0,9/125,95,138.0
2727,B-2,335.0,0.5,95,138.0
2728,D2,335.0,0.5,95,138.0
2729,G5,335.25,0.25,70,138.0
2730,A4,335.5,0.25,70,138.0
2731,A2,335.5,0.5,95,138.0
2732,A1,335.5,0.5,95,138.0
2733,B-2,335.5,0.5,95,138.0
2734,C5,335.75,0.25,70,138.0
2735,A4,336.0,0.25,70,138.0
2736,A1,336.0,1.0,95,138.0
2737,E3,336.0,1.0,95,138.0
2738,A2,336.0,1.0,95,138.0
2739,B-2,336.0,0.5,95,138.0
2740,C2,336.0,0.5,95,138.0
2741,C5,336.25,0.25,70,138.0
2742,A5,336.5,0.25,70,138.0
2743,B-2,336.5,0.5,95,138.0
2744,A4,336.75,0.25,70,138.0
2745,C5,337.0,0.25,70,138.0
2746,A2,337.0,9/125,95,138.0
2747,A1,337.0,9/125,95,138.0
2748,B-2,337.0,0.5,95,138.0
2749,D2,337.0,0.5,95,138.0
2750,A5,337.25,0.25,70,138.0
2751,A4,337.5,0.25,70,138.0
2752,A2,337.5,0.5,95,138.0
2753,A1,337.5,0.5,95,138.0
2754,B-2,337.5,0.5,95,138.0
2755,C5,337.75,0.25,70,138.0
2756,A5,338.0,0.25,70,138.0
2757,A2,338.0,1.0,95,138.0
2758,A1,338.0,1.0,95,138.0
2759,B-2,338.0,0.5,95,138.0
2760,C2,338.0,0.5,95,138.0
2761,A4,338.25,0.25,70,138.0
2762,C5,338.5,0.25,70,138.0
2763,B-2,338.5,0.5,95,138.0
2764,C2,338.5,0.5,95,138.0
2765,A5,338.75,0.25,70,138.0
2766,A4,339.0,0.25,70,138.0
2767,A2,339.0,9/125,95,138.0
2768,A1,339.0,9/125,95,138.0
2769,B-2,339.0,0.5,95,138.0
2770,D2,339.0,0.5,95,138.0
2771,C5,339.25,0.25,70,138.0
2772,A5,339.5,0.25,70,138.0
2773,A2,339.5,0.5,95,138.0
2774,A1,339.5,0.5,95,138.0
2775,B-2,339.5,0.5,95,138.0
2776,A4,339.75,0.25,70,138.0
2777,A4,340.0,0.25,70,138.0
2778,A1,340.0,1.0,95,138.0
2779,E3,340.0,1.0,95,138.0
2780,A2,340.0,1.0,95,138.0
2781,B-2,340.0,0.5,95,138.0
2782,C2,340.0,0.5,95,138.0
2783,C5,340.25,0.25,70,138.0
2784,A5,340.5,0.25,70,138.0
2785,B-2,340.5,0.5,95,138.0
2786,A4,340.75,0.25,70,138.0
2787,C5,341.0,0.25,70,138.0
2788,A2,341.0,9/125,95,138.0
2789,A1,341.0,9/125,95,138.0
2790,B-2,341.0,0.5,95,138.0
2791,D2,341.0,0.5,95,138.0
2792,A5,341.25,0.25,70,138.0
2793,A4,341.5,0.25,70,138.0
2794,A2,341.5,0.5,95,138.0
2795,A1,341.5,0.5,95,138.0
2796,B-2,341.5,0.5,95,138.0
2797,C5,341.75,0.25,70,138.0
2798,G5,342.0,0.25,70,138.0
2799,A2,342.0,1.0,95,138.0
2800,A1,342.0,1.0,95,138.0
2801,B-2,342.0,0.5,95,138.0
2802,C2,342.0,0.5,95,138.0
2803,A4,342.25,0.25,70,138.0
2804,C5,342.5,0.25,70,138.0
2805,B-2,342.5,0.5,95,138.0
2806,C2,342.5,0.5,95,138.0
2807,G5,342.75,0.25,70,138.0
2808,A4,343.0,0.25,70,138.0
2809,A2,343.0,9/125,95,138.0
2810,A1,343.0,9/125,95,138.0
2811,B-2,343.0,0.5,95,138.0
2812,D2,343.0,0.5,95,138.0
2813,C5,343.25,0.25,70,138.0
2814,A5,343.5,0.25,70,138.0
2815,A2,343.5,0.5,95,138.0
2816,A1,343.5,0.5,95,138.0
2817,B-2,343.5,0.5,95,138.0
2818,A4,343.75,0.25,70,138.0
2819,C5,344.0,0.25,70,138.0
2820,A1,344.0,1.0,95,138.0
2821,E3,344.0,1.0,95,138.0
2822,A2,344.0,1.0,95,138.0
2823,B-2,344.0,0.5,95,138.0
2824,C2,344.0,0.5,95,138.0
2825,A5,344.25,0.25,70,138.0
2826,A4,344.5,0.25,70,138.0
2827,B-2,344.5,0.5,95,138.0
2828,C5,344.75,0.25,70,138.0
2829,G5,345.0,0.25,70,138.0
2830,A2,345.0,9/125,95,138.0
2831,A1,345.0,9/125,95,138.0
2832,B-2,345.0,0.5,95,138.0
2833,D2,345.0,0.5,95,138.0
2834,A4,345.25,0.25,70,138.0
2835,C5,345.5,0.25,70,138.0
2836,A2,345.5,0.5,95,138.0
2837,A1,345.5,0.5,95,138.0
2838,B-2,345.5,0.5,95,138.0
2839,G5,345.75,0.25,70,138.0
2840,A4,346.0,0.25,70,138.0
2841,A2,346.0,1.0,95,138.0
2842,A1,346.0,1.0,95,138.0
2843,B-2,346.0,0.5,95,138.0
2844,C2,346.0,0.5,95,138.0
2845,C5,346.25,0.25,70,138.0
2846,A5,346.5,0.25,70,138.0
2847,B-2,346.5,0.5,95,138.0
2848,C2,346.5,0.5,95,138.0
2849,A4,346.75,0.25,70,138.0
2850,C5,347.0,0.25,70,138.0
2851,A2,347.0,9/125,95,138.0
2852,A1,347.0,9/125,95,138.0
2853,B-2,347.0,0.5,95,138.0
2854,D2,347.0,0.5,95,138.0
2855,E5,347.25,0.25,70,138.0
2856,A4,347.5,0.25,70,138.0
2857,A2,347.5,0.5,95,138.0
2858,A1,347.5,0.5,95,138.0
2859,B-2,347.5,0.5,95,138.0
2860,C5,347.75,0.25,70,138.0
2861,E5,348.0,0.25,70,138.0
2862,A1,348.0,1.0,95,138.0
2863,E3,348.0,1.0,95,138.0
2864,A2,348.0,1.0,95,138.0
2865,B-2,348.0,0.5,95,138.0
2866,C2,348.0,0.5,95,138.0
2867,A4,348.25,0.25,70,138.0
2868,C5,348.5,0.25,70,138.0
2869,B-2,348.5,0.5,95,138.0
2870,D5,348.75,0.25,70,138.0
2871,A4,349.0,0.25,70,138.0
2872,A2,349.0,9/125,95,138.0
2873,A1,349.0,9/125,95,138.0
2874,B-2,349.0,0.5,95,138.0
2875,D2,349.0,0.5,95,138.0
2876,C5,349.25,0.25,70,138.0
2877,D5,349.5,0.25,70,138.0
2878,A2,349.5,0.5,95,138.0
2879,A1,349.5,0.5,95,138.0
2880,B-2,349.5,0.5,95,138.0
2881,A4,349.75,0.25,70,138.0
2882,C5,350.0,0.25,70,138.0
2883,A2,350.0,1.0,95,138.0
2884,A1,350.0,1.0,95,138.0
2885,B-2,350.0,0.5,95,138.0
2886,C2,350.0,0.5,95,138.0
2887,C5,350.25,0.25,70,138.0
2888,A4,350.5,0.25,70,138.0
2889,B-2,350.5,0.5,95,138.0
2890,C2,350.5,0.5,95,138.0
2891,B4,350.75,0.25,70,138.0
2892,C5,351.0,0.25,70,138.0
2893,A2,351.0,9/125,95,138.0
2894,A1,351.0,9/125,95,138.0
2895,B-2,351.0,0.5,95,138.0
2896,D2,351.0,0.5,95,138.0
2897,A4,351.25,0.25,70,138.0
2898,C5,351.5,0.25,70,138.0
2899,A2,351.5,0.5,95,138.0
2900,A1,351.5,0.5,95,138.0
2901,B-2,351.5,0.5,95,138.0
2902,A4,351.75,0.25,70,138.0
2903,A4,352.0,167/1000,70,138.0
2904,F#1,352.0,1.0,95,138.0
2905,C#3,352.0,1.0,95,138.0
2906,F#2,352.0,1.0,95,138.0
2907,B-2,352.0,0.5,95,138.0
2908,C2,352.0,0.5,95,138.0
2909,F#4,352.167,167/1000,95,138.0
2910,G#4,352.333,167/1000,70,138.0
2911,A4,352.5,167/1000,70,138.0
2912,B-2,352.5,0.5,95,138.0
2913,F#4,352.667,167/1000,95,138.0
2914,G#4,352.833,167/1000,70,138.0
2915,A4,353.0,167/1000,95,138.0
2916,A2,353.0,9/125,95,138.0
2917,A1,353.0,9/125,95,138.0
2918,B-2,353.0,0.5,95,138.0
2919,D2,353.0,0.5,95,138.0
2920,F#4,353.167,167/1000,95,138.0
2921,G#4,353.333,167/1000,70,138.0
2922,A4,353.5,167/1000,95,138.0
2923,F#1,353.5,0.5,95,138.0
2924,B-2,353.5,0.5,95,138.0
2925,C#3,353.5,0.5,95,138.0
2926,F#2,353.5,0.5,95,138.0
2927,F#4,353.667,167/1000,95,138.0
2928,G#4,353.833,167/1000,70,138.0
2929,A4,354.0,167/1000,95,138.0
2930,F#1,354.0,1.0,95,138.0
2931,C#3,354.0,1.0,95,138.0
2932,F#2,354.0,1.0,95,138.0
2933,B-2,354.0,0.5,95,138.0
2934,C2,354.0,0.5,95,138.0
2935,F#4,354.167,167/1000,95,138.0
2936,G#4,354.333,167/1000,70,138.0
2937,A4,354.5,167/1000,95,138.0
2938,B-2,354.5,0.5,95,138.0
2939,C2,354.5,0.5,95,138.0
2940,F#4,354.667,167/1000,95,138.0
2941,G#4,354.833,167/1000,70,138.0
2942,A4,355.0,167/1000,95,138.0
2943,A2,355.0,9/125,95,138.0
2944,A1,355.0,9/125,95,138.0
2945,B-2,355.0,0.5,95,138.0
2946,D2,355.0,0.5,95,138.0
2947,F#4,355.167,167/1000,95,138.0
2948,G#4,355.333,167/1000,70,138.0
2949,A4,355.5,167/1000,95,138.0
2950,F#1,355.5,0.5,95,138.0
2951,B-2,355.5,0.5,95,138.0
2952,C#3,355.5,0.5,95,138.0
2953,F#2,355.5,0.5,95,138.0
2954,F#4,355.667,167/1000,95,138.0
2955,G#4,355.833,167/1000,70,138.0
2956,A4,356.0,167/1000,95,138.0
2957,F#1,356.0,1.0,95,138.0
2958,C#3,356.0,1.0,95,138.0
2959,F#2,356.0,1.0,95,138.0
2960,B-2,356.0,0.5,95,138.0
2961,C2,356.0,0.5,95,138.0
2962,F#4,356.167,167/1000,95,138.0
2963,G#4,356.333,167/1000,70,138.0
2964,A4,356.5,167/1000,70,138.0
2965,B-2,356.5,0.5,95,138.0
2966,F#4,356.667,167/1000,95,138.0
2967,G#4,356.833,167/1000,70,138.0
2968,A4,357.0,167/1000,95,138.0
2969,A2,357.0,9/125,95,138.0
2970,A1,357.0,9/125,95,138.0
2971,B-2,357.0,0.5,95,138.0
2972,D2,357.0,0.5,95,138.0
2973,F#4,357.167,167/1000,95,138.0
2974,G#4,357.333,167/1000,70,138.0
2975,A4,357.5,167/1000,95,138.0
2976,F#1,357.5,0.5,95,138.0
2977,B-2,357.5,0.5,95,138.0
2978,C#3,357.5,0.5,95,138.0
2979,F#2,357.5,0.5,95,138.0
2980,F#4,357.667,167/1000,95,138.0
2981,G#4,357.833,167/1000,70,138.0
2982,A4,358.0,167/1000,95,138.0
2983,F#1,358.0,1.0,95,138.0
2984,C#3,358.0,1.0,95,138.0
2985,F#2,358.0,1.0,95,138.0
2986,B-2,358.0,0.5,95,138.0
2987,C2,358.0,0.5,95,138.0
2988,F#4,358.167,167/1000,95,138.0
2989,G#4,358.333,167/1000,70,138.0
2990,A4,358.5,167/1000,95,138.0
2991,B-2,358.5,0.5,95,138.0
2992,C2,358.5,0.5,95,138.0
2993,F#4,358.667,167/1000,95,138.0
2994,G#4,358.833,167/1000,70,138.0
2995,A4,359.0,167/1000,95,138.0
2996,A2,359.0,9/125,95,138.0
2997,A1,359.0,9/125,95,138.0
2998,B-2,359.0,0.5,95,138.0
2999,D2,359.0,0.5,95,138.0
3000,F#4,359.167,167/1000,95,138.0
3001,G#4,359.333,167/1000,70,138.0
3002,A4,359.5,167/1000,95,138.0
3003,F#1,359.5,0.5,95,138.0
3004,B-2,359.5,0.5,95,138.0
3005,C#3,359.5,0.5,95,138.0
3006,F#2,359.5,0.5,95,138.0
3007,F#4,359.667,167/1000,95,138.0
3008,G#4,359.833,167/1000,70,138.0
3009,B4,360.0,167/1000,95,138.0
3010,F#1,360.0,1.0,95,138.0
3011,C#3,360.0,1.0,95,138.0
3012,F#2,360.0,1.0,95,138.0
3013,B-2,360.0,0.5,95,138.0
3014,C2,360.0,0.5,95,138.0
3015,F#4,360.167,167/1000,95,138.0
3016,A4,360.333,167/1000,70,138.0
3017,B4,360.5,167/1000,70,138.0
3018,B-2,360.5,0.5,95,138.0
3019,F#4,360.667,167/1000,95,138.0
3020,A4,360.833,167/1000,70,138.0
3021,B4,361.0,167/1000,95,138.0
3022,A2,361.0,9/125,95,138.0
3023,A1,361.0,9/125,95,138.0
3024,B-2,361.0,0.5,95,138.0
3025,D2,361.0,0.5,95,138.0
3026,F#4,361.167,167/1000,95,138.0
3027,A4,361.333,167/1000,70,138.0
3028,B4,361.5,167/1000,95,138.0
3029,F#1,361.5,0.5,95,138.0
3030,B-2,361.5,0.5,95,138.0
3031,C#3,361.5,0.5,95,138.0
3032,F#2,361.5,0.5,95,138.0
3033,F#4,361.667,167/1000,95,138.0
3034,A4,361.833,167/1000,70,138.0
3035,B4,362.0,167/1000,95,138.0
3036,F#1,362.0,1.0,95,138.0
3037,C#3,362.0,1.0,95,138.0
3038,F#2,362.0,1.0,95,138.0
3039,B-2,362.0,0.5,95,138.0
3040,C2,362.0,0.5,95,138.0
3041,F#4,362.167,167/1000,95,138.0
3042,A4,362.333,167/1000,70,138.0
3043,B4,362.5,167/1000,95,138.0
3044,B-2,362.5,0.5,95,138.0
3045,C2,362.5,0.5,95,138.0
3046,F#4,362.667,167/1000,95,138.0
3047,A4,362.833,167/1000,70,138.0
3048,B4,363.0,167/1000,95,138.0
3049,A2,363.0,9/125,95,138.0
3050,A1,363.0,9/125,95,138.0
3051,B-2,363.0,0.5,95,138.0
3052,D2,363.0,0.5,95,138.0
3053,F#4,363.167,167/1000,95,138.0
3054,A4,363.333,167/1000,70,138.0
3055,B4,363.5,167/1000,95,138.0
3056,F#1,363.5,0.5,95,138.0
3057,B-2,363.5,0.5,95,138.0
3058,C#3,363.5,0.5,95,138.0
3059,F#2,363.5,0.5,95,138.0
3060,F#4,363.667,167/1000,95,138.0
3061,A4,363.833,167/1000,70,138.0
3062,B4,364.0,167/1000,95,138.0
3063,F#1,364.0,1.0,95,138.0
3064,C#3,364.0,1.0,95,138.0
3065,F#2,364.0,1.0,95,138.0
3066,B-2,364.0,0.5,95,138.0
3067,C2,364.0,0.5,95,138.0
3068,F#4,364.167,167/1000,95,138.0
3069,A4,364.333,167/1000,70,138.0
3070,B4,364.5,167/1000,70,138.0
3071,B-2,364.5,0.5,95,138.0
3072,F#4,364.667,167/1000,95,138.0
3073,A4,364.833,167/1000,70,138.0
3074,B4,365.0,167/1000,95,138.0
3075,A2,365.0,9/125,95,138.0
3076,A1,365.0,9/125,95,138.0
3077,B-2,365.0,0.5,95,138.0
3078,D2,365.0,0.5,95,138.0
3079,F#4,365.167,167/1000,95,138.0
3080,A4,365.333,167/1000,70,138.0
3081,B4,365.5,167/1000,95,138.0
3082,F#1,365.5,0.5,95,138.0
3083,B-2,365.5,0.5,95,138.0
3084,C#3,365.5,0.5,95,138.0
3085,F#2,365.5,0.5,95,138.0
3086,F#4,365.667,167/1000,95,138.0
3087,A4,365.833,167/1000,70,138.0
3088,B4,366.0,167/1000,95,138.0
3089,F#1,366.0,1.0,95,138.0
3090,C#3,366.0,1.0,95,138.0
3091,F#2,366.0,1.0,95,138.0
3092,B-2,366.0,0.5,95,138.0
3093,C2,366.0,0.5,95,138.0
3094,F#4,366.167,167/1000,95,138.0
3095,A4,366.333,167/1000,70,138.0
3096,B4,366.5,167/1000,95,138.0
3097,B-2,366.5,0.5,95,138.0
3098,C2,366.5,0.5,95,138.0
3099,F#4,366.667,167/1000,95,138.0
3100,A4,366.833,167/1000,70,138.0
3101,B4,367.0,167/1000,95,138.0
3102,A2,367.0,9/125,95,138.0
3103,A1,367.0,9/125,95,138.0
3104,B-2,367.0,0.5,95,138.0
3105,D2,367.0,0.5,95,138.0
3106,F#4,367.167,167/1000,95,138.0
3107,A4,367.333,167/1000,70,138.0
3108,B4,367.5,167/1000,95,138.0
3109,F#1,367.5,0.5,95,138.0
3110,B-2,367.5,0.5,95,138.0
3111,C#3,367.5,0.5,95,138.0
3112,F#2,367.5,0.5,95,138.0
3113,F#4,367.667,167/1000,95,138.0
3114,A4,367.833,167/1000,70,138.0
3115,C#5,368.0,167/1000,95,138.0
3116,F#1,368.0,1.0,95,138.0
3117,C#3,368.0,1.0,95,138.0
3118,F#2,368.0,1.0,95,138.0
3119,B-2,368.0,0.5,95,138.0
3120,C2,368.0,0.5,95,138.0
3121,F#4,368.167,167/1000,95,138.0
3122,A4,368.333,167/1000,70,138.0
3123,C#5,368.5,167/1000,70,138.0
3124,B-2,368.5,0.5,95,138.0
3125,F#4,368.667,167/1000,95,138.0
3126,A4,368.833,167/1000,70,138.0
3127,C#5,369.0,167/1000,95,138.0
3128,A2,369.0,9/125,95,138.0
3129,A1,369.0,9/125,95,138.0
3130,B-2,369.0,0.5,95,138.0
3131,D2,369.0,0.5,95,138.0
3132,F#4,369.167,167/1000,95,138.0
3133,A4,369.333,167/1000,70,138.0
3134,C#5,369.5,167/1000,95,138.0
3135,F#1,369.5,0.5,95,138.0
3136,B-2,369.5,0.5,95,138.0
3137,C#3,369.5,0.5,95,138.0
3138,F#2,369.5,0.5,95,138.0
3139,F#4,369.667,167/1000,95,138.0
3140,A4,369.833,167/1000,70,138.0
3141,C#5,370.0,167/1000,95,138.0
3142,F#1,370.0,1.0,95,138.0
3143,C#3,370.0,1.0,95,138.0
3144,F#2,370.0,1.0,95,138.0
3145,B-2,370.0,0.5,95,138.0
3146,C2,370.0,0.5,95,138.0
3147,F#4,370.167,167/1000,95,138.0
3148,A4,370.333,167/1000,70,138.0
3149,C#5,370.5,167/1000,95,138.0
3150,B-2,370.5,0.5,95,138.0
3151,C2,370.5,0.5,95,138.0
3152,F#4,370.667,167/1000,95,138.0
3153,A4,370.833,167/1000,70,138.0
3154,C#5,371.0,167/1000,95,138.0
3155,A2,371.0,9/125,95,138.0
3156,A1,371.0,9/125,95,138.0
3157,B-2,371.0,0.5,95,138.0
3158,D2,371.0,0.5,95,138.0
3159,F#4,371.167,167/1000,95,138.0
3160,A4,371.333,167/1000,70,138.0
3161,C#5,371.5,167/1000,95,138.0
3162,F#1,371.5,0.5,95,138.0
3163,B-2,371.5,0.5,95,138.0
3164,C#3,371.5,0.5,95,138.0
3165,F#2,371.5,0.5,95,138.0
3166,F#4,371.667,167/1000,95,138.0
3167,A4,371.833,167/1000,70,138.0
3168,D5,372.0,167/1000,95,138.0
3169,F#1,372.0,1.0,95,138.0
3170,C#3,372.0,1.0,95,138.0
3171,F#2,372.0,1.0,95,138.0
3172,B-2,372.0,0.5,95,138.0
3173,C2,372.0,0.5,95,138.0
3174,F#4,372.167,167/1000,95,138.0
3175,A4,372.333,167/1000,70,138.0
3176,D5,372.5,167/1000,70,138.0
3177,B-2,372.5,0.5,95,138.0
3178,F#4,372.667,167/1000,95,138.0
3179,A4,372.833,167/1000,70,138.0
3180,D5,373.0,167/1000,95,138.0
3181,A2,373.0,9/125,95,138.0
3182,A1,373.0,9/125,95,138.0
3183,B-2,373.0,0.5,95,138.0
3184,D2,373.0,0.5,95,138.0
3185,F#4,373.167,167/1000,95,138.0
3186,A4,373.333,167/1000,70,138.0
3187,D5,373.5,167/1000,95,138.0
3188,F#1,373.5,0.5,95,138.0
3189,B-2,373.5,0.5,95,138.0
3190,C#3,373.5,0.5,95,138.0
3191,F#2,373.5,0.5,95,138.0
3192,F#4,373.667,167/1000,95,138.0
3193,A4,373.833,167/1000,70,138.0
3194,D5,374.0,167/1000,95,138.0
3195,F#1,374.0,1.0,95,138.0
3196,C#3,374.0,1.0,95,138.0
3197,F#2,374.0,1.0,95,138.0
3198,B-2,374.0,0.5,95,138.0
3199,C2,374.0,0.5,95,138.0
3200,F#4,374.167,167/1000,95,138.0
3201,A4,374.333,167/1000,70,138.0
3202,D5,374.5,167/1000,95,138.0
3203,B-2,374.5,0.5,95,138.0
3204,C2,374.5,0.5,95,138.0
3205,F#4,374.667,167/1000,95,138.0
3206,A4,374.833,167/1000,70,138.0
3207,D5,375.0,167/1000,95,138.0
3208,A2,375.0,9/125,95,138.0
3209,A1,375.0,9/125,95,138.0
3210,B-2,375.0,0.5,95,138.0
3211,D2,375.0,0.5,95,138.0
3212,F#4,375.167,167/1000,95,138.0
3213,A4,375.333,167/1000,70,138.0
3214,D5,375.5,167/1000,95,138.0
3215,F#1,375.5,0.5,95,138.0
3216,B-2,375.5,0.5,95,138.0
3217,C#3,375.5,0.5,95,138.0
3218,F#2,375.5,0.5,95,138.0
3219,F#4,375.667,167/1000,95,138.0
3220,A4,375.833,167/1000,70,138.0
3221,C#5,376.0,167/1000,95,138.0
3222,F#1,376.0,1.0,95,138.0
3223,C#3,376.0,1.0,95,138.0
3224,F#2,376.0,1.0,95,138.0
3225,B-2,376.0,0.5,95,138.0
3226,C2,376.0,0.5,95,138.0
3227,F#4,376.167,167/1000,95,138.0
3228,A4,376.333,167/1000,70,138.0
3229,C#5,376.5,167/1000,70,138.0
3230,B-2,376.5,0.5,95,138.0
3231,F#4,376.667,167/1000,95,138.0
3232,A4,376.833,167/1000,70,138.0
3233,C#5,377.0,167/1000,95,138.0
3234,A2,377.0,9/125,95,138.0
3235,A1,377.0,9/125,95,138.0
3236,B-2,377.0,0.5,95,138.0
3237,D2,377.0,0.5,95,138.0
3238,F#4,377.167,167/1000,95,138.0
3239,A4,377.333,167/1000,70,138.0
3240,C#5,377.5,167/1000,95,138.0
3241,F#1,377.5,0.5,95,138.0
3242,B-2,377.5,0.5,95,138.0
3243,C#3,377.5,0.5,95,138.0
3244,F#2,377.5,0.5,95,138.0
3245,F#4,377.667,167/1000,95,138.0
3246,A4,377.833,167/1000,70,138.0
3247,C#5,378.0,167/1000,95,138.0
3248,F#1,378.0,1.0,95,138.0
3249,C#3,378.0,1.0,95,138.0
3250,F#2,378.0,1.0,95,138.0
3251,B-2,378.0,0.5,95,138.0
3252,C2,378.0,0.5,95,138.0
3253,F#4,378.167,167/1000,95,138.0
3254,A4,378.333,167/1000,70,138.0
3255,C#5,378.5,167/1000,95,138.0
3256,B-2,378.5,0.5,95,138.0
3257,C2,378.5,0.5,95,138.0
3258,F#4,378.667,167/1000,95,138.0
3259,A4,378.833,167/1000,70,138.0
3260,C#5,379.0,167/1000,95,138.0
3261,A2,379.0,9/125,95,138.0
3262,A1,379.0,9/125,95,138.0
3263,B-2,379.0,0.5,95,138.0
3264,D2,379.0,0.5,95,138.0
3265,F#4,379.167,167/1000,95,138.0
3266,A4,379.333,167/1000,70,138.0
3267,C#5,379.5,167/1000,95,138.0
3268,F#1,379.5,0.5,95,138.0
3269,B-2,379.5,0.5,95,138.0
3270,C#3,379.5,0.5,95,138.0
3271,F#2,379.5,0.5,95,138.0
3272,F#4,379.667,167/1000,95,138.0
3273,A4,379.833,167/1000,70,138.0
3274,D5,380.0,167/1000,95,138.0
3275,F#1,380.0,1.0,95,138.0
3276,C#3,380.0,1.0,95,138.0
3277,F#2,380.0,1.0,95,138.0
3278,B-2,380.0,0.5,95,138.0
3279,C2,380.0,0.5,95,138.0
3280,F#4,380.167,167/1000,95,138.0
3281,A4,380.333,167/1000,70,138.0
3282,D5,380.5,167/1000,70,138.0
3283,B-2,380.5,0.5,95,138.0
3284,F#4,380.667,167/1000,95,138.0
3285,A4,380.833,167/1000,70,138.0
3286,D5,381.0,167/1000,95,138.0
3287,A2,381.0,9/125,95,138.0
3288,A1,381.0,9/125,95,138.0
3289,B-2,381.0,0.5,95,138.0
3290,D2,381.0,0.5,95,138.0
3291,F#4,381.167,167/1000,95,138.0
3292,A4,381.333,167/1000,70,138.0
3293,D5,381.5,167/1000,95,138.0
3294,F#1,381.5,0.5,95,138.0
3295,B-2,381.5,0.5,95,138.0
3296,C#3,381.5,0.5,95,138.0
3297,F#2,381.5,0.5,95,138.0
3298,F#4,381.667,167/1000,95,138.0
3299,A4,381.833,167/1000,70,138.0
3300,D5,382.0,167/1000,95,138.0
3301,F#1,382.0,1.0,95,138.0
3302,C#3,382.0,1.0,95,138.0
3303,F#2,382.0,1.0,95,138.0
3304,B-2,382.0,0.5,95,138.0
3305,C2,382.0,0.5,95,138.0
3306,F#4,382.167,167/1000,95,138.0
3307,A4,382.333,167/1000,70,138.0
3308,D5,382.5,167/1000,95,138.0
3309,B-2,382.5,0.5,95,138.0
3310,C2,382.5,0.5,95,138.0
3311,F#4,382.667,167/1000,95,138.0
3312,A4,382.833,167/1000,70,138.0
3313,D5,383.0,167/1000,95,138.0
3314,A2,383.0,9/125,95,138.0
3315,A1,383.0,9/125,95,138.0
3316,B-2,383.0,0.5,95,138.0
3317,D2,383.0,0.5,95,138.0
3318,F#4,383.167,167/1000,95,138.0
3319,A4,383.333,167/1000,70,138.0
3320,D5,383.5,167/1000,95,138.0
3321,F#1,383.5,0.5,95,138.0
3322,B-2,383.5,0.5,95,138.0
3323,C#3,383.5,0.5,95,138.0
3324,F#2,383.5,0.5,95,138.0
3325,F#4,383.667,167/1000,95,138.0
3326,A4,383.833,167/1000,70,138.0
3327,E5,384.0,167/1000,95,138.0
3328,F#1,384.0,1.0,95,138.0
3329,C#3,384.0,1.0,95,138.0
3330,F#2,384.0,1.0,95,138.0
3331,B-2,384.0,0.5,95,138.0
3332,C2,384.0,0.5,95,138.0
3333,F#4,384.167,167/1000,95,138.0
3334,A4,384.333,167/1000,70,138.0
3335,E5,384.5,167/1000,70,138.0
3336,B-2,384.5,0.5,95,138.0
3337,F#4,384.667,167/1000,95,138.0
3338,A4,384.833,167/1000,70,138.0
3339,E5,385.0,167/1000,95,138.0
3340,A2,385.0,9/125,95,138.0
3341,A1,385.0,9/125,95,138.0
3342,B-2,385.0,0.5,95,138.0
3343,D2,385.0,0.5,95,138.0
3344,F#4,385.167,167/1000,95,138.0
3345,A4,385.333,167/1000,70,138.0
3346,E5,385.5,167/1000,95,138.0
3347,F#1,385.5,0.5,95,138.0
3348,B-2,385.5,0.5,95,138.0
3349,C#3,385.5,0.5,95,138.0
3350,F#2,385.5,0.5,95,138.0
3351,F#4,385.667,167/1000,95,138.0
3352,A4,385.833,167/1000,70,138.0
3353,E5,386.0,167/1000,95,138.0
3354,F#1,386.0,1.0,95,138.0
3355,C#3,386.0,1.0,95,138.0
3356,F#2,386.0,1.0,95,138.0
3357,B-2,386.0,0.5,95,138.0
3358,C2,386.0,0.5,95,138.0
3359,F#4,386.167,167/1000,95,138.0
3360,A4,386.333,167/1000,70,138.0
3361,E5,386.5,167/1000,95,138.0
3362,B-2,386.5,0.5,95,138.0
3363,C2,386.5,0.5,95,138.0
3364,F#4,386.667,167/1000,95,138.0
3365,A4,386.833,167/1000,70,138.0
3366,E5,387.0,167/1000,95,138.0
3367,A2,387.0,9/125,95,138.0
3368,A1,387.0,9/125,95,138.0
3369,B-2,387.0,0.5,95,138.0
3370,D2,387.0,0.5,95,138.0
3371,F#4,387.167,167/1000,95,138.0
3372,A4,387.333,167/1000,70,138.0
3373,E5,387.5,167/1000,95,138.0
3374,F#1,387.5,0.5,95,138.0
3375,B-2,387.5,0.5,95,138.0
3376,C#3,387.5,0.5,95,138.0
3377,F#2,387.5,0.5,95,138.0
3378,F#4,387.667,167/1000,95,138.0
3379,A4,387.833,167/1000,70,138.0
3380,E5,388.0,167/1000,95,138.0
3381,F#1,388.0,1.0,95,138.0
3382,C#3,388.0,1.0,95,138.0
3383,F#2,388.0,1.0,95,138.0
3384,B-2,388.0,0.5,95,138.0
3385,C2,388.0,0.5,95,138.0
3386,F#4,388.167,167/1000,95,138.0
3387,A4,388.333,167/1000,70,138.0
3388,E5,388.5,167/1000,70,138.0
3389,B-2,388.5,0.5,95,138.0
3390,F#4,388.667,167/1000,95,138.0
3391,A4,388.833,167/1000,70,138.0
3392,E5,389.0,167/1000,95,138.0
3393,A2,389.0,9/125,95,138.0
3394,A1,389.0,9/125,95,138.0
3395,B-2,389.0,0.5,95,138.0
3396,D2,389.0,0.5,95,138.0
3397,F#4,389.167,167/1000,95,138.0
3398,A4,389.333,167/1000,70,138.0
3399,E5,389.5,167/1000,95,138.0
3400,F#1,389.5,0.5,95,138.0
3401,B-2,389.5,0.5,95,138.0
3402,C#3,389.5,0.5,95,138.0
3403,F#2,389.5,0.5,95,138.0
3404,F#4,389.667,167/1000,95,138.0
3405,A4,389.833,167/1000,70,138.0
3406,E5,390.0,167/1000,95,138.0
3407,F#1,390.0,1.0,95,138.0
3408,C#3,390.0,1.0,95,138.0
3409,F#2,390.0,1.0,95,138.0
3410,B-2,390.0,0.5,95,138.0
3411,C2,390.0,0.5,95,138.0
3412,F#4,390.167,167/1000,95,138.0
3413,A4,390.333,167/1000,70,138.0
3414,E5,390.5,167/1000,95,138.0
3415,B-2,390.5,0.5,95,138.0
3416,C2,390.5,0.5,95,138.0
3417,F#4,390.667,167/1000,95,138.0
3418,A4,390.833,167/1000,70,138.0
3419,E5,391.0,167/1000,95,138.0
3420,A2,391.0,9/125,95,138.0
3421,A1,391.0,9/125,95,138.0
3422,B-2,391.0,0.5,95,138.0
3423,D2,391.0,0.5,95,138.0
3424,F#4,391.167,167/1000,95,138.0
3425,A4,391.333,167/1000,70,138.0
3426,E5,391.5,167/1000,95,138.0
3427,F#1,391.5,0.5,95,138.0
3428,B-2,391.5,0.5,95,138.0
3429,C#3,391.5,0.5,95,138.0
3430,F#2,391.5,0.5,95,138.0
3431,F#4,391.667,167/1000,95,138.0
3432,A4,391.833,167/1000,70,138.0
3433,E5,392.0,167/1000,95,138.0
3434,F#1,392.0,1.0,95,138.0
3435,C#3,392.0,1.0,95,138.0
3436,F#2,392.0,1.0,95,138.0
3437,B-2,392.0,0.5,95,138.0
3438,C2,392.0,0.5,95,138.0
3439,F#4,392.167,167/1000,95,138.0
3440,A4,392.333,167/1000,70,138.0
3441,D5,392.5,167/1000,70,138.0
3442,B-2,392.5,0.5,95,138.0
3443,F#4,392.667,167/1000,95,138.0
3444,A4,392.833,167/1000,70,138.0
3445,C#5,393.0,167/1000,95,138.0
3446,A2,393.0,9/125,95,138.0
3447,A1,393.0,9/125,95,138.0
3448,B-2,393.0,0.5,95,138.0
3449,D2,393.0,0.5,95,138.0
3450,F#4,393.167,167/1000,95,138.0
3451,A4,393.333,167/1000,70,138.0
3452,E5,393.5,167/1000,95,138.0
3453,F#1,393.5,0.5,95,138.0
3454,B-2,393.5,0.5,95,138.0
3455,C#3,393.5,0.5,95,138.0
3456,F#2,393.5,0.5,95,138.0
3457,F#4,393.667,167/1000,95,138.0
3458,A4,393.833,167/1000,70,138.0
3459,D5,394.0,167/1000,95,138.0
3460,F#1,394.0,1.0,95,138.0
3461,C#3,394.0,1.0,95,138.0
3462,F#2,394.0,1.0,95,138.0
3463,B-2,394.0,0.5,95,138.0
3464,C2,394.0,0.5,95,138.0
3465,F#4,394.167,167/1000,95,138.0
3466,A4,394.333,167/1000,70,138.0
3467,C#5,394.5,167/1000,95,138.0
3468,B-2,394.5,0.5,95,138.0
3469,C2,394.5,0.5,95,138.0
3470,F#4,394.667,167/1000,95,138.0
3471,A4,394.833,167/1000,70,138.0
3472,E5,395.0,167/1000,95,138.0
3473,A2,395.0,9/125,95,138.0
3474,A1,395.0,9/125,95,138.0
3475,B-2,395.0,0.5,95,138.0
3476,D2,395.0,0.5,95,138.0
3477,F#4,395.167,167/1000,95,138.0
3478,A4,395.333,167/1000,70,138.0
3479,D5,395.5,167/1000,95,138.0
3480,F#1,395.5,0.5,95,138.0
3481,B-2,395.5,0.5,95,138.0
3482,C#3,395.5,0.5,95,138.0
3483,F#2,395.5,0.5,95,138.0
3484,F#4,395.667,167/1000,95,138.0
3485,A4,395.833,167/1000,70,138.0
3486,D5,396.0,167/1000,95,138.0
3487,F#1,396.0,1.0,95,138.0
3488,C#3,396.0,1.0,95,138.0
3489,F#2,396.0,1.0,95,138.0
3490,B-2,396.0,0.5,95,138.0
3491,C2,396.0,0.5,95,138.0
3492,F#4,396.167,167/1000,95,138.0
3493,A4,396.333,167/1000,70,138.0
3494,C#5,396.5,167/1000,70,138.0
3495,B-2,396.5,0.5,95,138.0
3496,F#4,396.667,167/1000,95,138.0
3497,A4,396.833,167/1000,70,138.0
3498,B4,397.0,167/1000,95,138.0
3499,A2,397.0,9/125,95,138.0
3500,A1,397.0,9/125,95,138.0
3501,B-2,397.0,0.5,95,138.0
3502,D2,397.0,0.5,95,138.0
3503,F#4,397.167,167/1000,95,138.0
3504,A4,397.333,167/1000,70,138.0
3505,D5,397.5,167/1000,95,138.0
3506,F#1,397.5,0.5,95,138.0
3507,B-2,397.5,0.5,95,138.0
3508,C#3,397.5,0.5,95,138.0
3509,F#2,397.5,0.5,95,138.0
3510,F#4,397.667,167/1000,95,138.0
3511,A4,397.833,167/1000,70,138.0
3512,C#5,398.0,167/1000,95,138.0
3513,F#1,398.0,1.0,95,138.0
3514,C#3,398.0,1.0,95,138.0
3515,F#2,398.0,1.0,95,138.0
3516,B-2,398.0,0.5,95,138.0
3517,C2,398.0,0.5,95,138.0
3518,F#4,398.167,167/1000,95,138.0
3519,A4,398.333,167/1000,70,138.0
3520,B4,398.5,167/1000,95,138.0
3521,B-2,398.5,0.5,95,138.0
3522,C2,398.5,0.5,95,138.0
3523,F#4,398.667,167/1000,95,138.0
3524,A4,398.833,167/1000,70,138.0
3525,D5,399.0,167/1000,95,138.0
3526,A2,399.0,9/125,95,138.0
3527,A1,399.0,9/125,95,138.0
3528,B-2,399.0,0.5,95,138.0
3529,D2,399.0,0.5,95,138.0
3530,F#4,399.167,167/1000,95,138.0
3531,A4,399.333,167/1000,70,138.0
3532,C#5,399.5,167/1000,95,138.0
3533,F#1,399.5,0.5,95,138.0
3534,B-2,399.5,0.5,95,138.0
3535,C#3,399.5,0.5,95,138.0
3536,F#2,399.5,0.5,95,138.0
3537,F#4,399.667,167/1000,95,138.0
3538,A4,399.833,167/1000,70,138.0
3539,E5,400.0,167/1000,95,138.0
3540,F#1,400.0,1.0,95,138.0
3541,C#3,400.0,1.0,95,138.0
3542,F#2,400.0,1.0,95,138.0
3543,B-2,400.0,0.5,95,138.0
3544,C2,400.0,0.5,95,138.0
3545,F#4,400.167,167/1000,95,138.0
3546,A4,400.333,167/1000,70,138.0
3547,D5,400.5,167/1000,70,138.0
3548,B-2,400.5,0.5,95,138.0
3549,F#4,400.667,167/1000,95,138.0
3550,A4,400.833,167/1000,70,138.0
3551,C#5,401.0,167/1000,95,138.0
3552,A2,401.0,9/125,95,138.0
3553,A1,401.0,9/125,95,138.0
3554,B-2,401.0,0.5,95,138.0
3555,D2,401.0,0.5,95,138.0
3556,F#4,401.167,167/1000,95,138.0
3557,A4,401.333,167/1000,70,138.0
3558,E5,401.5,167/1000,95,138.0
3559,F#1,401.5,0.5,95,138.0
3560,B-2,401.5,0.5,95,138.0
3561,C#3,401.5,0.5,95,138.0
3562,F#2,401.5,0.5,95,138.0
3563,F#4,401.667,167/1000,95,138.0
3564,A4,401.833,167/1000,70,138.0
3565,D5,402.0,167/1000,95,138.0
3566,F#1,402.0,1.0,95,138.0
3567,C#3,402.0,1.0,95,138.0
3568,F#2,402.0,1.0,95,138.0
3569,B-2,402.0,0.5,95,138.0
3570,C2,402.0,0.5,95,138.0
3571,F#4,402.167,167/1000,95,138.0
3572,A4,402.333,167/1000,70,138.0
3573,C#5,402.5,167/1000,95,138.0
3574,B-2,402.5,0.5,95,138.0
3575,C2,402.5,0.5,95,138.0
3576,F#4,402.667,167/1000,95,138.0
3577,A4,402.833,167/1000,70,138.0
3578,E5,403.0,167/1000,95,138.0
3579,A2,403.0,9/125,95,138.0
3580,A1,403.0,9/125,95,138.0
3581,B-2,403.0,0.5,95,138.0
3582,D2,403.0,0.5,95,138.0
3583,F#4,403.167,167/1000,95,138.0
3584,A4,403.333,167/1000,70,138.0
3585,D5,403.5,167/1000,95,138.0
3586,F#1,403.5,0.5,95,138.0
3587,B-2,403.5,0.5,95,138.0
3588,C#3,403.5,0.5,95,138.0
3589,F#2,403.5,0.5,95,138.0
3590,F#4,403.667,167/1000,95,138.0
3591,A4,403.833,167/1000,70,138.0
3592,D5,404.0,167/1000,95,138.0
3593,F#1,404.0,1.0,95,138.0
3594,C#3,404.0,1.0,95,138.0
3595,F#2,404.0,1.0,95,138.0
3596,B-2,404.0,0.5,95,138.0
3597,C2,404.0,0.5,95,138.0
3598,F#4,404.167,167/1000,95,138.0
3599,A4,404.333,167/1000,70,138.0
3600,C#5,404.5,167/1000,70,138.0
3601,B-2,404.5,0.5,95,138.0
3602,F#4,404.667,167/1000,95,138.0
3603,A4,404.833,167/1000,70,138.0
3604,B4,405.0,167/1000,95,138.0
3605,A2,405.0,9/125,95,138.0
3606,A1,405.0,9/125,95,138.0
3607,B-2,405.0,0.5,95,138.0
3608,D2,405.0,0.5,95,138.0
3609,F#4,405.167,167/1000,95,138.0
3610,A4,405.333,167/1000,70,138.0
3611,D5,405.5,167/1000,95,138.0
3612,F#1,405.5,0.5,95,138.0
3613,B-2,405.5,0.5,95,138.0
3614,C#3,405.5,0.5,95,138.0
3615,F#2,405.5,0.5,95,138.0
3616,F#4,405.667,167/1000,95,138.0
3617,A4,405.833,167/1000,70,138.0
3618,C#5,406.0,167/1000,95,138.0
3619,F#1,406.0,1.0,95,138.0
3620,C#3,406.0,1.0,95,138.0
3621,F#2,406.0,1.0,95,138.0
3622,B-2,406.0,0.5,95,138.0
3623,C2,406.0,0.5,95,138.0
3624,F#4,406.167,167/1000,95,138.0
3625,A4,406.333,167/1000,70,138.0
3626,B4,406.5,167/1000,95,138.0
3627,B-2,406.5,0.5,95,138.0
3628,C2,406.5,0.5,95,138.0
3629,F#4,406.667,167/1000,95,138.0
3630,A4,406.833,167/1000,70,138.0
3631,D5,407.0,167/1000,95,138.0
3632,A2,407.0,9/125,95,138.0
3633,A1,407.0,9/125,95,138.0
3634,B-2,407.0,0.5,95,138.0
3635,D2,407.0,0.5,95,138.0
3636,F#4,407.167,167/1000,95,138.0
3637,A4,407.333,167/1000,70,138.0
3638,C#5,407.5,167/1000,95,138.0
3639,F#1,407.5,0.5,95,138.0
3640,B-2,407.5,0.5,95,138.0
3641,C#3,407.5,0.5,95,138.0
3642,F#2,407.5,0.5,95,138.0
3643,F#4,407.667,167/1000,95,138.0
3644,A4,407.833,167/1000,70,138.0
3645,C#5,408.0,167/1000,95,138.0
3646,F#1,408.0,1.0,95,138.0
3647,C#3,408.0,1.0,95,138.0
3648,F#2,408.0,1.0,95,138.0
3649,B-2,408.0,0.5,95,138.0
3650,C2,408.0,0.5,95,138.0
3651,F#4,408.167,167/1000,95,138.0
3652,A4,408.333,167/1000,70,138.0
3653,B4,408.5,167/1000,70,138.0
3654,B-2,408.5,0.5,95,138.0
3655,F#4,408.667,167/1000,95,138.0
3656,A4,408.833,167/1000,70,138.0
3657,C#5,409.0,167/1000,95,138.0
3658,A2,409.0,9/125,95,138.0
3659,A1,409.0,9/125,95,138.0
3660,B-2,409.0,0.5,95,138.0
3661,D2,409.0,0.5,95,138.0
3662,F#4,409.167,167/1000,95,138.0
3663,A4,409.333,167/1000,70,138.0
3664,B4,409.5,167/1000,95,138.0
3665,F#1,409.5,0.5,95,138.0
3666,B-2,409.5,0.5,95,138.0
3667,C#3,409.5,0.5,95,138.0
3668,F#2,409.5,0.5,95,138.0
3669,F#4,409.667,167/1000,95,138.0
3670,A4,409.833,167/1000,70,138.0
3671,C#5,410.0,167/1000,95,138.0
3672,F#1,410.0,1.0,95,138.0
3673,C#3,410.0,1.0,95,138.0
3674,F#2,410.0,1.0,95,138.0
3675,B-2,410.0,0.5,95,138.0
3676,C2,410.0,0.5,95,138.0
3677,F#4,410.167,167/1000,95,138.0
3678,A4,410.333,167/1000,70,138.0
3679,B4,410.5,167/1000,95,138.0
3680,B-2,410.5,0.5,95,138.0
3681,C2,410.5,0.5,95,138.0
3682,F#4,410.667,167/1000,95,138.0
3683,A4,410.833,167/1000,70,138.0
3684,D5,411.0,167/1000,95,138.0
3685,A2,411.0,9/125,95,138.0
3686,A1,411.0,9/125,95,138.0
3687,B-2,411.0,0.5,95,138.0
3688,D2,411.0,0.5,95,138.0
3689,F#4,411.167,167/1000,95,138.0
3690,A4,411.333,167/1000,70,138.0
3691,C#5,411.5,167/1000,95,138.0
3692,F#1,411.5,0.5,95,138.0
3693,B-2,411.5,0.5,95,138.0
3694,C#3,411.5,0.5,95,138.0
3695,F#2,411.5,0.5,95,138.0
3696,F#4,411.667,167/1000,95,138.0
3697,A4,411.833,167/1000,70,138.0
3698,C#5,412.0,167/1000,95,138.0
3699,F#1,412.0,1.0,95,138.0
3700,C#3,412.0,1.0,95,138.0
3701,F#2,412.0,1.0,95,138.0
3702,B-2,412.0,0.5,95,138.0
3703,C2,412.0,0.5,95,138.0
3704,F#4,412.167,167/1000,95,138.0
3705,A4,412.333,167/1000,70,138.0
3706,B4,412.5,167/1000,70,138.0
3707,B-2,412.5,0.5,95,138.0
3708,F#4,412.667,167/1000,95,138.0
3709,A4,412.833,167/1000,70,138.0
3710,C#5,413.0,167/1000,95,138.0
3711,A2,413.0,9/125,95,138.0
3712,A1,413.0,9/125,95,138.0
3713,B-2,413.0,0.5,95,138.0
3714,D2,413.0,0.5,95,138.0
3715,F#4,413.167,167/1000,95,138.0
3716,A4,413.333,167/1000,70,138.0
3717,B4,413.5,167/1000,95,138.0
3718,F#1,413.5,0.5,95,138.0
3719,B-2,413.5,0.5,95,138.0
3720,C#3,413.5,0.5,95,138.0
3721,F#2,413.5,0.5,95,138.0
3722,F#4,413.667,167/1000,95,138.0
3723,A4,413.833,167/1000,70,138.0
3724,C#5,414.0,167/1000,95,138.0
3725,F#1,414.0,1.0,95,138.0
3726,C#3,414.0,1.0,95,138.0
3727,F#2,414.0,1.0,95,138.0
3728,B-2,414.0,0.5,95,138.0
3729,C2,414.0,0.5,95,138.0
3730,F#4,414.167,167/1000,95,138.0
3731,A4,414.333,167/1000,70,138.0
3732,B4,414.5,167/1000,95,138.0
3733,B-2,414.5,0.5,95,138.0
3734,C2,414.5,0.5,95,138.0
3735,F#4,414.667,167/1000,95,138.0
3736,A4,414.833,167/1000,70,138.0
3737,D5,415.0,167/1000,95,138.0
3738,A2,415.0,9/125,95,138.0
3739,A1,415.0,9/125,95,138.0
3740,B-2,415.0,0.5,95,138.0
3741,D2,415.0,0.5,95,138.0
3742,F#4,415.167,167/1000,95,138.0
3743,A4,415.333,167/1000,70,138.0
3744,C#5,415.5,167/1000,95,138.0
3745,F#1,415.5,0.5,95,138.0
3746,B-2,415.5,0.5,95,138.0
3747,C#3,415.5,0.5,95,138.0
3748,F#2,415.5,0.5,95,138.0
3749,F#4,415.667,167/1000,95,138.0
3750,A4,415.833,167/1000,70,138.0
3751,D5,416.0,167/1000,95,138.0
3752,F#1,416.0,1.0,95,138.0
3753,C#3,416.0,1.0,95,138.0
3754,F#2,416.0,1.0,95,138.0
3755,B-2,416.0,0.5,95,138.0
3756,C2,416.0,0.5,95,138.0
3757,F#4,416.167,167/1000,95,138.0
3758,A4,416.333,167/1000,70,138.0
3759,C#5,416.5,167/1000,70,138.0
3760,B-2,416.5,0.5,95,138.0
3761,F#4,416.667,167/1000,95,138.0
3762,A4,416.833,167/1000,70,138.0
3763,D5,417.0,167/1000,95,138.0
3764,A2,417.0,9/125,95,138.0
3765,A1,417.0,9/125,95,138.0
3766,B-2,417.0,0.5,95,138.0
3767,D2,417.0,0.5,95,138.0
3768,F#4,417.167,167/1000,95,138.0
3769,A4,417.333,167/1000,70,138.0
3770,C#5,417.5,167/1000,95,138.0
3771,F#1,417.5,0.5,95,138.0
3772,B-2,417.5,0.5,95,138.0
3773,C#3,417.5,0.5,95,138.0
3774,F#2,417.5,0.5,95,138.0
3775,F#4,417.667,167/1000,95,138.0
3776,A4,417.833,167/1000,70,138.0
3777,D5,418.0,167/1000,95,138.0
3778,F#1,418.0,1.0,95,138.0
3779,C#3,418.0,1.0,95,138.0
3780,F#2,418.0,1.0,95,138.0
3781,B-2,418.0,0.5,95,138.0
3782,C2,418.0,0.5,95,138.0
3783,F#4,418.167,167/1000,95,138.0
3784,A4,418.333,167/1000,70,138.0
3785,C#5,418.5,167/1000,95,138.0
3786,B-2,418.5,0.5,95,138.0
3787,C2,418.5,0.5,95,138.0
3788,F#4,418.667,167/1000,95,138.0
3789,A4,418.833,167/1000,70,138.0
3790,E5,419.0,167/1000,95,138.0
3791,A2,419.0,9/125,95,138.0
3792,A1,419.0,9/125,95,138.0
3793,B-2,419.0,0.5,95,138.0
3794,D2,419.0,0.5,95,138.0
3795,F#4,419.167,167/1000,95,138.0
3796,A4,419.333,167/1000,70,138.0
3797,D5,419.5,167/1000,95,138.0
3798,F#1,419.5,0.5,95,138.0
3799,B-2,419.5,0.5,95,138.0
3800,C#3,419.5,0.5,95,138.0
3801,F#2,419.5,0.5,95,138.0
3802,F#4,419.667,167/1000,95,138.0
3803,A4,419.833,167/1000,70,138.0
3804,D5,420.0,167/1000,95,138.0
3805,F#1,420.0,1.0,95,138.0
3806,C#3,420.0,1.0,95,138.0
3807,F#2,420.0,1.0,95,138.0
3808,B-2,420.0,0.5,95,138.0
3809,C2,420.0,0.5,95,138.0
3810,F#4,420.167,167/1000,95,138.0
3811,A4,420.333,167/1000,70,138.0
3812,C#5,420.5,167/1000,70,138.0
3813,B-2,420.5,0.5,95,138.0
3814,F#4,420.667,167/1000,95,138.0
3815,A4,420.833,167/1000,70,138.0
3816,D5,421.0,167/1000,95,138.0
3817,A2,421.0,9/125,95,138.0
3818,A1,421.0,9/125,95,138.0
3819,B-2,421.0,0.5,95,138.0
3820,D2,421.0,0.5,95,138.0
3821,F#4,421.167,167/1000,95,138.0
3822,A4,421.333,167/1000,70,138.0
3823,C#5,421.5,167/1000,95,138.0
3824,F#1,421.5,0.5,95,138.0
3825,B-2,421.5,0.5,95,138.0
3826,C#3,421.5,0.5,95,138.0
3827,F#2,421.5,0.5,95,138.0
3828,F#4,421.667,167/1000,95,138.0
3829,A4,421.833,167/1000,70,138.0
3830,D5,422.0,167/1000,95,138.0
3831,F#1,422.0,1.0,95,138.0
3832,C#3,422.0,1.0,95,138.0
3833,F#2,422.0,1.0,95,138.0
3834,B-2,422.0,0.5,95,138.0
3835,C2,422.0,0.5,95,138.0
3836,F#4,422.167,167/1000,95,138.0
3837,A4,422.333,167/1000,70,138.0
3838,C#5,422.5,167/1000,95,138.0
3839,B-2,422.5,0.5,95,138.0
3840,C2,422.5,0.5,95,138.0
3841,F#4,422.667,167/1000,95,138.0
3842,A4,422.833,167/1000,70,138.0
3843,E5,423.0,167/1000,95,138.0
3844,A2,423.0,9/125,95,138.0
3845,A1,423.0,9/125,95,138.0
3846,B-2,423.0,0.5,95,138.0
3847,D2,423.0,0.5,95,138.0
3848,F#4,423.167,167/1000,95,138.0
3849,A4,423.333,167/1000,70,138.0
3850,D5,423.5,167/1000,95,138.0
3851,F#1,423.5,0.5,95,138.0
3852,B-2,423.5,0.5,95,138.0
3853,C#3,423.5,0.5,95,138.0
3854,F#2,423.5,0.5,95,138.0
3855,F#4,423.667,167/1000,95,138.0
3856,A4,423.833,167/1000,70,138.0
3857,F#4,424.0,4.0,95,138.0
3858,F#1,424.0,1.0,95,138.0
3859,C#3,424.0,1.0,95,138.0
3860,F#2,424.0,1.0,95,138.0
3861,B-2,424.0,0.5,95,138.0
3862,C2,424.0,0.5,95,138.0
3863,B-2,424.5,0.5,95,138.0
3864,A2,425.0,9/125,95,138.0
3865,A1,425.0,9/125,95,138.0
3866,B-2,425.0,0.5,95,138.0
3867,D2,425.0,0.5,95,138.0
3868,F#1,425.5,0.5,95,138.0
3869,B-2,425.5,0.5,95,138.0
3870,C#3,425.5,0.5,95,138.0
3871,F#2,425.5,0.5,95,138.0
3872,F#1,426.0,1.0,95,138.0
3873,C#3,426.0,1.0,95,138.0
3874,F#2,426.0,1.0,95,138.0
3875,B-2,426.0,0.5,95,138.0
3876,C2,426.0,0.5,95,138.0
3877,B-2,426.5,0.5,95,138.0
3878,C2,426.5,0.5,95,138.0
3879,A2,427.0,9/125,95,138.0
3880,A1,427.0,9/125,95,138.0
3881,B-2,427.0,0.5,95,138.0
3882,D2,427.0,0.5,95,138.0
3883,F#1,427.5,0.5,95,138.0
3884,B-2,427.5,0.5,95,138.0
3885,C#3,427.5,0.5,95,138.0
3886,F#2,427.5,0.5,95,138.0
3887,B1,428.0,1.0,95,138.0
3888,B3,428.0,1.0,95,138.0
3889,F#3,428.0,1.0,95,138.0
3890,B2,428.0,1.0,95,138.0
3891,B-2,428.0,0.5,95,138.0
3892,C#3,428.0,0.5,95,138.0
3893,C2,428.0,0.5,95,138.0
3894,B-2,428.5,0.5,95,138.0
3895,B2,429.0,0.5,95,138.0
3896,B1,429.0,0.5,95,138.0
3897,B-2,429.0,0.5,95,138.0
3898,D2,429.0,0.5,95,138.0
3899,B2,429.5,0.5,95,138.0
3900,B1,429.5,0.5,95,138.0
3901,B-2,429.5,0.5,95,138.0
3902,B2,430.0,0.5,95,138.0
3903,B1,430.0,0.5,95,138.0
3904,B-2,430.0,0.5,95,138.0
3905,C2,430.0,0.5,95,138.0
3906,B2,430.5,0.5,95,138.0
3907,B1,430.5,0.5,95,138.0
3908,B-2,430.5,0.5,95,138.0
3909,C2,430.5,0.5,95,138.0
3910,B2,431.0,0.5,95,138.0
3911,B1,431.0,0.5,95,138.0
3912,B-2,431.0,0.5,95,138.0
3913,D2,431.0,0.5,95,138.0
3914,B2,431.5,0.5,95,138.0
3915,B1,431.5,0.5,95,138.0
3916,B-2,431.5,0.5,95,138.0
3917,D2,432.0,1.0,95,138.0
3918,D4,432.0,1.0,95,138.0
3919,A3,432.0,1.0,95,138.0
3920,D3,432.0,1.0,95,138.0
3921,B-2,432.0,0.5,95,138.0
3922,C#3,432.0,0.5,95,138.0
3923,C2,432.0,0.5,95,138.0
3924,B-2,432.5,0.5,95,138.0
3925,D3,433.0,0.5,95,138.0
3926,D2,433.0,0.5,95,138.0
3927,B-2,433.0,0.5,95,138.0
3928,D2,433.0,0.5,95,138.0
3929,D3,433.5,0.5,95,138.0
3930,D2,433.5,0.5,95,138.0
3931,B-2,433.5,0.5,95,138.0
3932,D3,434.0,0.5,95,138.0
3933,D2,434.0,0.5,95,138.0
3934,B-2,434.0,0.5,95,138.0
3935,C2,434.0,0.5,95,138.0
3936,D3,434.5,0.5,95,138.0
3937,D2,434.5,0.5,95,138.0
3938,B-2,434.5,0.5,95,138.0
3939,C2,434.5,0.5,95,138.0
3940,D3,435.0,0.5,95,138.0
3941,D2,435.0,0.5,95,138.0
3942,B-2,435.0,0.5,95,138.0
3943,D2,435.0,0.5,95,138.0
3944,D3,435.5,0.5,95,138.0
3945,D2,435.5,0.5,95,138.0
3946,B-2,435.5,0.5,95,138.0
3947,E1,436.0,1.0,95,138.0
3948,E4,436.0,1.0,95,138.0
3949,B3,436.0,1.0,95,138.0
3950,E3,436.0,1.0,95,138.0
3951,E2,436.0,1.0,95,138.0
3952,B-2,436.0,0.5,95,138.0
3953,C#3,436.0,0.5,95,138.0
3954,C2,436.0,0.5,95,138.0
3955,B-2,436.5,0.5,95,138.0
3956,E3,437.0,0.5,95,138.0
3957,E1,437.0,0.5,95,138.0
3958,B-2,437.0,0.5,95,138.0
3959,D2,437.0,0.5,95,138.0
3960,E3,437.5,0.5,95,138.0
3961,E1,437.5,0.5,95,138.0
3962,B-2,437.5,0.5,95,138.0
3963,E3,438.0,0.5,95,138.0
3964,E1,438.0,0.5,95,138.0
3965,B-2,438.0,0.5,95,138.0
3966,C2,438.0,0.5,95,138.0
3967,E3,438.5,0.5,95,138.0
3968,E1,438.5,0.5,95,138.0
3969,B-2,438.5,0.5,95,138.0
3970,C2,438.5,0.5,95,138.0
3971,E3,439.0,0.5,95,138.0
3972,E1,439.0,0.5,95,138.0
3973,B-2,439.0,0.5,95,138.0
3974,D2,439.0,0.5,95,138.0
3975,E3,439.5,0.5,95,138.0
3976,E1,439.5,0.5,95,138.0
3977,B-2,439.5,0.5,95,138.0
3978,E3,440.0,0.5,95,138.0
3979,E1,440.0,0.5,95,138.0
3980,B-2,440.0,0.5,95,138.0
3981,C2,440.0,0.5,95,138.0
3982,E3,440.5,0.5,95,138.0
3983,E1,440.5,0.5,95,138.0
3984,B-2,440.5,0.5,95,138.0
3985,E3,441.0,0.5,95,138.0
3986,E1,441.0,0.5,95,138.0
3987,B-2,441.0,0.5,95,138.0
3988,D2,441.0,0.5,95,138.0
3989,E3,441.5,0.5,95,138.0
3990,E1,441.5,0.5,95,138.0
3991,B-2,441.5,0.5,95,138.0
3992,E3,442.0,0.5,95,138.0
3993,E1,442.0,0.5,95,138.0
3994,B-2,442.0,0.5,95,138.0
3995,C2,442.0,0.5,95,138.0
3996,E3,442.5,0.5,95,138.0
3997,E1,442.5,0.5,95,138.0
3998,B-2,442.5,0.5,95,138.0
3999,C2,442.5,0.5,95,138.0
4000,E3,443.0,0.5,95,138.0
4001,E1,443.0,0.5,95,138.0
4002,B-2,443.0,0.5,95,138.0
4003,D2,443.0,0.5,95,138.0
4004,E3,443.5,0.5,95,138.0
4005,E1,443.5,0.5,95,138.0
4006,B-2,443.5,0.5,95,138.0
4007,B1,444.0,1.0,95,138.0
4008,B3,444.0,1.0,95,138.0
4009,F#3,444.0,1.0,95,138.0
4010,B2,444.0,1.0,95,138.0
4011,B-2,444.0,0.5,95,138.0
4012,C#3,444.0,0.5,95,138.0
4013,C2,444.0,0.5,95,138.0
4014,B-2,444.5,0.5,95,138.0
4015,B2,445.0,0.5,95,138.0
4016,B1,445.0,0.5,95,138.0
4017,B-2,445.0,0.5,95,138.0
4018,D2,445.0,0.5,95,138.0
4019,B2,445.5,0.5,95,138.0
4020,B1,445.5,0.5,95,138.0
4021,B-2,445.5,0.5,95,138.0
4022,B2,446.0,0.5,95,138.0
4023,B1,446.0,0.5,95,138.0
4024,B-2,446.0,0.5,95,138.0
4025,C2,446.0,0.5,95,138.0
4026,B2,446.5,0.5,95,138.0
4027,B1,446.5,0.5,95,138.0
4028,B-2,446.5,0.5,95,138.0
4029,C2,446.5,0.5,95,138.0
4030,B2,447.0,0.5,95,138.0
4031,B1,447.0,0.5,95,138.0
4032,B-2,447.0,0.5,95,138.0
4033,D2,447.0,0.5,95,138.0
4034,B2,447.5,0.5,95,138.0
4035,B1,447.5,0.5,95,138.0
4036,B-2,447.5,0.5,95,138.0
4037,D2,448.0,1.0,95,138.0
4038,D4,448.0,1.0,95,138.0
4039,A3,448.0,1.0,95,138.0
4040,D3,448.0,1.0,95,138.0
4041,B-2,448.0,0.5,95,138.0
4042,C#3,448.0,0.5,95,138.0
4043,C2,448.0,0.5,95,138.0
4044,B-2,448.5,0.5,95,138.0
4045,D3,449.0,0.5,95,138.0
4046,D2,449.0,0.5,95,138.0
4047,B-2,449.0,0.5,95,138.0
4048,D2,449.0,0.5,95,138.0
4049,D3,449.5,0.5,95,138.0
4050,D2,449.5,0.5,95,138.0
4051,B-2,449.5,0.5,95,138.0
4052,D3,450.0,0.5,95,138.0
4053,D2,450.0,0.5,95,138.0
4054,B-2,450.0,0.5,95,138.0
4055,C2,450.0,0.5,95,138.0
4056,D3,450.5,0.5,95,138.0
4057,D2,450.5,0.5,95,138.0
4058,B-2,450.5,0.5,95,138.0
4059,C2,450.5,0.5,95,138.0
4060,D3,451.0,0.5,95,138.0
4061,D2,451.0,0.5,95,138.0
4062,B-2,451.0,0.5,95,138.0
4063,D2,451.0,0.5,95,138.0
4064,D3,451.5,0.5,95,138.0
4065,D2,451.5,0.5,95,138.0
4066,B-2,451.5,0.5,95,138.0
4067,E1,452.0,1.0,95,138.0
4068,E4,452.0,1.0,95,138.0
4069,B3,452.0,1.0,95,138.0
4070,E3,452.0,1.0,95,138.0
4071,E2,452.0,1.0,95,138.0
4072,B-2,452.0,0.5,95,138.0
4073,C#3,452.0,0.5,95,138.0
4074,C2,452.0,0.5,95,138.0
4075,B-2,452.5,0.5,95,138.0
4076,E3,453.0,0.5,95,138.0
4077,E1,453.0,0.5,95,138.0
4078,B-2,453.0,0.5,95,138.0
4079,D2,453.0,0.5,95,138.0
4080,E3,453.5,0.5,95,138.0
4081,E1,453.5,0.5,95,138.0
4082,B-2,453.5,0.5,95,138.0
4083,E3,454.0,0.5,95,138.0
4084,E1,454.0,0.5,95,138.0
4085,B-2,454.0,0.5,95,138.0
4086,C2,454.0,0.5,95,138.0
4087,E3,454.5,0.5,95,138.0
4088,E1,454.5,0.5,95,138.0
4089,B-2,454.5,0.5,95,138.0
4090,C2,454.5,0.5,95,138.0
4091,E3,455.0,0.5,95,138.0
4092,E1,455.0,0.5,95,138.0
4093,B-2,455.0,0.5,95,138.0
4094,D2,455.0,0.5,95,138.0
4095,E3,455.5,0.5,95,138.0
4096,E1,455.5,0.5,95,138.0
4097,B-2,455.5,0.5,95,138.0
4098,E3,456.0,0.5,95,138.0
4099,E1,456.0,0.5,95,138.0
4100,B-2,456.0,0.5,95,138.0
4101,C2,456.0,0.5,95,138.0
4102,E1,456.5,0.5,95,138.0
4103,B-2,456.5,0.5,95,138.0
4104,E4,456.5,0.5,95,138.0
4105,B3,456.5,0.5,95,138.0
4106,E3,456.5,0.5,95,138.0
4107,E2,456.5,0.5,95,138.0
4108,E1,457.0,0.5,95,138.0
4109,E4,457.0,0.5,95,138.0
4110,B3,457.0,0.5,95,138.0
4111,E3,457.0,0.5,95,138.0
4112,E2,457.0,0.5,95,138.0
4113,B-2,457.0,0.5,95,138.0
4114,D2,457.0,0.5,95,138.0
4115,E1,457.5,0.5,95,138.0
4116,B-2,457.5,0.5,95,138.0
4117,E4,457.5,0.5,95,138.0
4118,B3,457.5,0.5,95,138.0
4119,E3,457.5,0.5,95,138.0
4120,E2,457.5,0.5,95,138.0
4121,E1,458.0,0.5,95,138.0
4122,E4,458.0,0.5,95,138.0
4123,B3,458.0,0.5,95,138.0
4124,E3,458.0,0.5,95,138.0
4125,E2,458.0,0.5,95,138.0
4126,B-2,458.0,0.5,95,138.0
4127,C2,458.0,0.5,95,138.0
4128,E1,458.5,0.5,95,138.0
4129,E4,458.5,0.5,95,138.0
4130,B3,458.5,0.5,95,138.0
4131,E3,458.5,0.5,95,138.0
4132,E2,458.5,0.5,95,138.0
4133,B-2,458.5,0.5,95,138.0
4134,C2,458.5,0.5,95,138.0
4135,E1,459.0,0.5,95,138.0
4136,E4,459.0,0.5,95,138.0
4137,B3,459.0,0.5,95,138.0
4138,E3,459.0,0.5,95,138.0
4139,E2,459.0,0.5,95,138.0
4140,B-2,459.0,0.5,95,138.0
4141,D2,459.0,0.5,95,138.0
4142,E1,459.5,0.5,95,138.0
4143,B-2,459.5,0.5,95,138.0
4144,E4,459.5,0.5,95,138.0
4145,B3,459.5,0.5,95,138.0
4146,E3,459.5,0.5,95,138.0
4147,E2,459.5,0.5,95,138.0
4148,A2,460.0,0.5,95,138.0
4149,A1,460.0,1.0,95,138.0
4150,B-2,460.0,0.5,95,138.0
4151,C#3,460.0,0.5,95,138.0
4152,C2,460.0,0.5,95,138.0
4153,E3,460.5,0.5,95,138.0
4154,B-2,460.5,0.5,95,138.0
4155,A3,461.0,0.5,95,138.0
4156,A1,461.0,9/125,95,138.0
4157,B-2,461.0,0.5,95,138.0
4158,D2,461.0,0.5,95,138.0
4159,C4,461.5,0.5,95,138.0
4160,A1,461.5,0.5,95,138.0
4161,B-2,461.5,0.5,95,138.0
4162,A1,462.0,1.0,95,138.0
4163,C4,462.0,1.0,95,138.0
4164,A3,462.0,1.0,95,138.0
4165,E3,462.0,1.0,95,138.0
4166,A2,462.0,1.0,95,138.0
4167,B-2,462.0,0.5,95,138.0
4168,C2,462.0,0.5,95,138.0
4169,B-2,462.5,0.5,95,138.0
4170,C2,462.5,0.5,95,138.0
4171,A1,463.0,9/125,95,138.0
4172,D4,463.0,9/125,95,138.0
4173,A3,463.0,9/125,95,138.0
4174,E3,463.0,9/125,95,138.0
4175,A2,463.0,9/125,95,138.0
4176,B-2,463.0,0.5,95,138.0
4177,D2,463.0,0.5,95,138.0
4178,A1,463.5,0.5,95,138.0
4179,B-2,463.5,0.5,95,138.0
4180,D4,463.5,0.5,95,138.0
4181,A3,463.5,0.5,95,138.0
4182,E3,463.5,0.5,95,138.0
4183,A2,463.5,0.5,95,138.0
4184,A1,464.0,1.0,95,138.0
4185,D4,464.0,1.0,95,138.0
4186,A3,464.0,1.0,95,138.0
4187,E3,464.0,1.0,95,138.0
4188,A2,464.0,1.0,95,138.0
4189,B-2,464.0,0.5,95,138.0
4190,C#3,464.0,0.5,95,138.0
4191,C2,464.0,0.5,95,138.0
4192,B-2,464.5,0.5,95,138.0
4193,A1,465.0,9/125,95,138.0
4194,B3,465.0,9/125,95,138.0
4195,G3,465.0,9/125,95,138.0
4196,D3,465.0,9/125,95,138.0
4197,A2,465.0,9/125,95,138.0
4198,B-2,465.0,0.5,95,138.0
4199,D2,465.0,0.5,95,138.0
4200,B3,465.5,0.5,95,138.0
4201,A1,465.5,0.5,95,138.0
4202,B-2,465.5,0.5,95,138.0
4203,A3,465.5,1.0,95,138.0
4204,E3,465.5,1.0,95,138.0
4205,A2,465.5,1.0,95,138.0
4206,C4,466.0,0.5,70,138.0
4207,A1,466.0,1.0,95,138.0
4208,B-2,466.0,0.5,95,138.0
4209,C2,466.0,0.5,95,138.0
4210,C4,466.5,0.5,95,138.0
4211,A3,466.5,0.5,95,138.0
4212,E3,466.5,0.5,95,138.0
4213,A2,466.5,0.5,95,138.0
4214,B-2,466.5,0.5,95,138.0
4215,C2,466.5,0.5,95,138.0
4216,A2,467.0,0.5,95,138.0
4217,C4,467.0,1.0,95,138.0
4218,A3,467.0,1.0,95,138.0
4219,E3,467.0,1.0,95,138.0
4220,A2,467.0,1.0,95,138.0
4221,B-2,467.0,0.5,95,138.0
4222,D2,467.0,0.5,95,138.0
4223,A1,467.5,0.5,95,138.0
4224,B-2,467.5,0.5,95,138.0
4225,A2,468.0,0.5,95,138.0
4226,A1,468.0,1.0,95,138.0
4227,B-2,468.0,0.5,95,138.0
4228,C#3,468.0,0.5,95,138.0
4229,C2,468.0,0.5,95,138.0
4230,E3,468.5,0.5,95,138.0
4231,B-2,468.5,0.5,95,138.0
4232,A3,469.0,0.5,95,138.0
4233,A1,469.0,9/125,95,138.0
4234,B-2,469.0,0.5,95,138.0
4235,D2,469.0,0.5,95,138.0
4236,C4,469.5,0.5,95,138.0
4237,A1,469.5,0.5,95,138.0
4238,B-2,469.5,0.5,95,138.0
4239,A1,470.0,1.0,95,138.0
4240,C4,470.0,1.0,95,138.0
4241,A3,470.0,1.0,95,138.0
4242,E3,470.0,1.0,95,138.0
4243,A2,470.0,1.0,95,138.0
4244,B-2,470.0,0.5,95,138.0
4245,C2,470.0,0.5,95,138.0
4246,B-2,470.5,0.5,95,138.0
4247,C2,470.5,0.5,95,138.0
4248,A1,471.0,9/125,95,138.0
4249,D4,471.0,9/125,95,138.0
4250,A3,471.0,9/125,95,138.0
4251,E3,471.0,9/125,95,138.0
4252,A2,471.0,9/125,95,138.0
4253,B-2,471.0,0.5,95,138.0
4254,D2,471.0,0.5,95,138.0
4255,A1,471.5,0.5,95,138.0
4256,B-2,471.5,0.5,95,138.0
4257,D4,471.5,0.5,95,138.0
4258,A3,471.5,0.5,95,138.0
4259,E3,471.5,0.5,95,138.0
4260,A2,471.5,0.5,95,138.0
4261,C2,472.0,1.0,95,138.0
4262,C4,472.0,1.0,95,138.0
4263,G3,472.0,1.0,95,138.0
4264,E3,472.0,1.0,95,138.0
4265,C3,472.0,1.0,95,138.0
4266,B-2,472.0,0.5,95,138.0
4267,C#3,472.0,0.5,95,138.0
4268,C2,472.0,0.5,95,138.0
4269,B-2,472.5,0.5,95,138.0
4270,A1,473.0,9/125,95,138.0
4271,B3,473.0,9/125,95,138.0
4272,G3,473.0,9/125,95,138.0
4273,D3,473.0,9/125,95,138.0
4274,A2,473.0,9/125,95,138.0
4275,B-2,473.0,0.5,95,138.0
4276,D2,473.0,0.5,95,138.0
4277,D2,473.5,0.5,95,138.0
4278,B-2,473.5,0.5,95,138.0
4279,D4,473.5,0.5,95,138.0
4280,G3,473.5,0.5,95,138.0
4281,F#3,473.5,0.5,95,138.0
4282,D3,473.5,0.5,95,138.0
4283,D2,474.0,1.0,95,138.0
4284,D4,474.0,2.0,95,138.0
4285,G3,474.0,2.0,95,138.0
4286,F#3,474.0,2.0,95,138.0
4287,D3,474.0,2.0,95,138.0
4288,B-2,474.0,0.5,95,138.0
4289,C2,474.0,0.5,95,138.0
4290,B-2,474.5,0.5,95,138.0
4291,C2,474.5,0.5,95,138.0
4292,A2,475.0,1.0,95,138.0
4293,B-2,475.0,0.5,95,138.0
4294,D2,475.0,0.5,95,138.0
4295,B-2,475.5,0.5,95,138.0
4296,A2,476.0,0.5,95,138.0
4297,A1,476.0,1.0,95,138.0
4298,B-2,476.0,0.5,95,138.0
4299,C#3,476.0,0.5,95,138.0
4300,C2,476.0,0.5,95,138.0
4301,E3,476.5,0.5,95,138.0
4302,B-2,476.5,0.5,95,138.0
4303,A3,477.0,0.5,95,138.0
4304,A1,477.0,9/125,95,138.0
4305,B-2,477.0,0.5,95,138.0
4306,D2,477.0,0.5,95,138.0
4307,C4,477.5,0.5,95,138.0
4308,A1,477.5,0.5,95,138.0
4309,B-2,477.5,0.5,95,138.0
4310,A1,478.0,1.0,95,138.0
4311,C4,478.0,1.0,95,138.0
4312,A3,478.0,1.0,95,138.0
4313,E3,478.0,1.0,95,138.0
4314,A2,478.0,1.0,95,138.0
4315,B-2,478.0,0.5,95,138.0
4316,C2,478.0,0.5,95,138.0
4317,B-2,478.5,0.5,95,138.0
4318,C2,478.5,0.5,95,138.0
4319,A1,479.0,9/125,95,138.0
4320,D4,479.0,9/125,95,138.0
4321,A3,479.0,9/125,95,138.0
4322,E3,479.0,9/125,95,138.0
4323,A2,479.0,9/125,95,138.0
4324,B-2,479.0,0.5,95,138.0
4325,D2,479.0,0.5,95,138.0
4326,A1,479.5,0.5,95,138.0
4327,B-2,479.5,0.5,95,138.0
4328,D4,479.5,0.5,95,138.0
4329,A3,479.5,0.5,95,138.0
4330,E3,479.5,0.5,95,138.0
4331,A2,479.5,0.5,95,138.0
4332,A1,480.0,1.0,95,138.0
4333,D4,480.0,1.0,95,138.0
4334,A3,480.0,1.0,95,138.0
4335,E3,480.0,1.0,95,138.0
4336,A2,480.0,1.0,95,138.0
4337,B-2,480.0,0.5,95,138.0
4338,C#3,480.0,0.5,95,138.0
4339,C2,480.0,0.5,95,138.0
4340,B-2,480.5,0.5,95,138.0
4341,A1,481.0,9/125,95,138.0
4342,B3,481.0,9/125,95,138.0
4343,G3,481.0,9/125,95,138.0
4344,D3,481.0,9/125,95,138.0
4345,A2,481.0,9/125,95,138.0
4346,B-2,481.0,0.5,95,138.0
4347,D2,481.0,0.5,95,138.0
4348,B3,481.5,0.5,95,138.0
4349,A1,481.5,0.5,95,138.0
4350,B-2,481.5,0.5,95,138.0
4351,A3,481.5,1.0,95,138.0
4352,E3,481.5,1.0,95,138.0
4353,A2,481.5,1.0,95,138.0
4354,C4,482.0,0.5,70,138.0
4355,A1,482.0,1.0,95,138.0
4356,B-2,482.0,0.5,95,138.0
4357,C2,482.0,0.5,95,138.0
4358,C4,482.5,0.5,95,138.0
4359,A3,482.5,0.5,95,138.0
4360,E3,482.5,0.5,95,138.0
4361,A2,482.5,0.5,95,138.0
4362,B-2,482.5,0.5,95,138.0
4363,C2,482.5,0.5,95,138.0
4364,A2,483.0,0.5,95,138.0
4365,C4,483.0,1.0,95,138.0
4366,A3,483.0,1.0,95,138.0
4367,E3,483.0,1.0,95,138.0
4368,A2,483.0,1.0,95,138.0
4369,B-2,483.0,0.5,95,138.0
4370,D2,483.0,0.5,95,138.0
4371,A1,483.5,0.5,95,138.0
4372,B-2,483.5,0.5,95,138.0
4373,A2,484.0,0.5,95,138.0
4374,A1,484.0,1.0,95,138.0
4375,B-2,484.0,0.5,95,138.0
4376,C#3,484.0,0.5,95,138.0
4377,C2,484.0,0.5,95,138.0
4378,E3,484.5,0.5,95,138.0
4379,B-2,484.5,0.5,95,138.0
4380,A3,485.0,0.5,95,138.0
4381,A1,485.0,9/125,95,138.0
4382,B-2,485.0,0.5,95,138.0
4383,D2,485.0,0.5,95,138.0
4384,C4,485.5,0.5,95,138.0
4385,A1,485.5,0.5,95,138.0
4386,B-2,485.5,0.5,95,138.0
4387,A1,486.0,1.0,95,138.0
4388,C4,486.0,1.0,95,138.0
4389,A3,486.0,1.0,95,138.0
4390,E3,486.0,1.0,95,138.0
4391,A2,486.0,1.0,95,138.0
4392,B-2,486.0,0.5,95,138.0
4393,C2,486.0,0.5,95,138.0
4394,B-2,486.5,0.5,95,138.0
4395,C2,486.5,0.5,95,138.0
4396,A1,487.0,9/125,95,138.0
4397,D4,487.0,9/125,95,138.0
4398,A3,487.0,9/125,95,138.0
4399,E3,487.0,9/125,95,138.0
4400,A2,487.0,9/125,95,138.0
4401,B-2,487.0,0.5,95,138.0
4402,D2,487.0,0.5,95,138.0
4403,A1,487.5,0.5,95,138.0
4404,B-2,487.5,0.5,95,138.0
4405,D4,487.5,0.5,95,138.0
4406,A3,487.5,0.5,95,138.0
4407,E3,487.5,0.5,95,138.0
4408,A2,487.5,0.5,95,138.0
4409,G1,488.0,1.0,95,138.0
4410,G3,488.0,1.0,95,138.0
4411,D3,488.0,1.0,95,138.0
4412,G2,488.0,1.0,95,138.0
4413,B-2,488.0,0.5,95,138.0
4414,C#3,488.0,0.5,95,138.0
4415,C2,488.0,0.5,95,138.0
4416,B-2,488.5,0.5,95,138.0
4417,A1,489.0,9/125,95,138.0
4418,B3,489.0,9/125,95,138.0
4419,G3,489.0,9/125,95,138.0
4420,D3,489.0,9/125,95,138.0
4421,A2,489.0,9/125,95,138.0
4422,B-2,489.0,0.5,95,138.0
4423,D2,489.0,0.5,95,138.0
4424,A1,489.5,0.5,95,138.0
4425,B-2,489.5,0.5,95,138.0
4426,A3,489.5,0.5,95,138.0
4427,E3,489.5,0.5,95,138.0
4428,A2,489.5,0.5,95,138.0
4429,A1,490.0,1.0,95,138.0
4430,A3,490.0,2.0,95,138.0
4431,E3,490.0,2.0,95,138.0
4432,A2,490.0,2.0,95,138.0
4433,B-2,490.0,0.5,95,138.0
4434,C2,490.0,0.5,95,138.0
4435,B-2,490.5,0.5,95,138.0
4436,C2,490.5,0.5,95,138.0
4437,A2,491.0,1.0,95,138.0
4438,B-2,491.0,0.5,95,138.0
4439,D2,491.0,0.5,95,138.0
4440,B-2,491.5,0.5,95,138.0
