,note_name,start_time,duration,velocity,tempo
0,E4,0.0,1.0,95,183.0
1,E3,0.0,1.0,95,183.0
2,F#3,1.0,1.0,95,183.0
3,B3,2.0,1.0,95,183.0
4,E4,3.0,1.0,95,183.0
5,B3,4.0,1.0,95,183.0
6,F#3,5.0,1.0,95,183.0
7,E4,6.0,1.0,95,183.0
8,E-3,6.0,1.0,95,183.0
9,A3,7.0,1.0,95,183.0
10,B3,8.0,1.0,95,183.0
11,E4,9.0,1.0,95,183.0
12,B3,10.0,1.0,95,183.0
13,A3,11.0,1.0,95,183.0
14,E4,12.0,1.0,95,183.0
15,C#3,12.0,1.0,95,183.0
16,G#3,13.0,1.0,95,183.0
17,E-4,14.0,1.0,95,183.0
18,E4,15.0,1.0,95,183.0
19,B3,16.0,1.0,95,183.0
20,G#3,17.0,1.0,95,183.0
21,E4,18.0,1.0,95,183.0
22,B2,18.0,1.0,95,183.0
23,G#3,19.0,1.0,95,183.0
24,B3,20.0,1.0,95,183.0
25,E4,21.0,1.0,95,183.0
26,E-4,22.0,1.0,95,183.0
27,A2,22.0,1.0,95,183.0
28,B3,23.0,1.0,95,183.0
29,C#4,24.0,1.0,95,183.0
30,G#2,24.0,1.0,95,183.0
31,F#3,25.0,1.0,95,183.0
32,B3,26.0,1.0,95,183.0
33,C#4,27.0,1.0,95,183.0
34,B3,28.0,1.0,95,183.0
35,G#2,28.0,1.0,95,183.0
36,F#3,29.0,1.0,95,183.0
37,C#4,30.0,1.0,95,183.0
38,A2,30.0,1.0,95,183.0
39,E3,31.0,1.0,95,183.0
40,A3,32.0,1.0,95,183.0
41,C#4,33.0,1.0,95,183.0
42,A3,34.0,1.0,95,183.0
43,A2,34.0,1.0,95,183.0
44,E3,35.0,1.0,95,183.0
45,E4,36.0,1.0,95,183.0
46,B2,36.0,1.0,95,183.0
47,A3,37.0,1.0,95,183.0
48,B3,38.0,1.0,95,183.0
49,E4,39.0,1.0,95,183.0
50,B3,40.0,1.0,95,183.0
51,B2,40.0,1.0,95,183.0
52,A3,41.0,1.0,95,183.0
53,E4,42.0,1.0,95,183.0
54,E2,42.0,1.0,95,183.0
55,G#3,43.0,1.0,95,183.0
56,B3,44.0,1.0,95,183.0
57,E4,45.0,1.0,95,183.0
58,B3,46.0,1.0,95,183.0
59,B2,46.0,1.0,95,183.0
60,G#3,47.0,1.0,95,183.0
61,E4,48.0,1.0,95,183.0
62,E3,48.0,1.0,95,183.0
63,F#3,49.0,1.0,95,183.0
64,B3,49.0,1.0,95,183.0
65,B3,50.0,1.0,95,183.0
66,E4,50.0,1.0,95,183.0
67,E4,51.0,1.0,95,183.0
68,F#4,51.0,1.0,95,183.0
69,G#4,52.0,1.0,95,183.0
70,B3,52.0,1.0,95,183.0
71,E3,52.0,1.0,95,183.0
72,F#3,53.0,1.0,95,183.0
73,B4,53.0,1.0,95,183.0
74,A4,54.0,4.0,95,183.0
75,E4,54.0,1.0,95,183.0
76,E-3,54.0,1.0,95,183.0
77,A3,55.0,1.0,95,183.0
78,B3,56.0,1.0,95,183.0
79,E4,57.0,1.0,95,183.0
80,B3,58.0,1.0,95,183.0
81,E-3,58.0,1.0,95,183.0
82,A3,59.0,1.0,95,183.0
83,G#4,59.0,0.5,95,183.0
84,F#4,59.5,0.5,70,183.0
85,G#4,60.0,4.0,95,183.0
86,E4,60.0,1.0,95,183.0
87,C#3,60.0,1.0,95,183.0
88,G#3,61.0,1.0,95,183.0
89,E-4,62.0,1.0,95,183.0
90,E4,63.0,1.0,95,183.0
91,B3,64.0,1.0,95,183.0
92,C#3,64.0,1.0,95,183.0
93,G#3,65.0,1.0,95,183.0
94,E4,65.0,1.0,95,183.0
95,C#5,66.0,4.0,95,183.0
96,E4,66.0,1.0,95,183.0
97,B2,66.0,1.0,95,183.0
98,G#3,67.0,1.0,95,183.0
99,B3,68.0,1.0,95,183.0
100,E4,69.0,1.0,95,183.0
101,E-4,70.0,1.0,95,183.0
102,A2,70.0,1.0,95,183.0
103,B3,71.0,1.0,95,183.0
104,B4,71.0,0.5,95,183.0
105,A4,71.5,0.5,70,183.0
106,B4,72.0,4.0,95,183.0
107,C#4,72.0,1.0,95,183.0
108,G#2,72.0,1.0,95,183.0
109,F#3,73.0,1.0,95,183.0
110,B3,74.0,1.0,95,183.0
111,C#4,75.0,1.0,95,183.0
112,E-5,76.0,1.0,95,183.0
113,B3,76.0,1.0,95,183.0
114,G#2,76.0,1.0,95,183.0
115,F#3,77.0,1.0,95,183.0
116,E-5,77.0,0.5,95,183.0
117,E5,77.5,0.5,70,183.0
118,A4,78.0,4.0,95,183.0
119,C#4,78.0,1.0,95,183.0
120,A2,78.0,1.0,95,183.0
121,E3,79.0,1.0,95,183.0
122,A3,80.0,1.0,95,183.0
123,C#4,81.0,1.0,95,183.0
124,C#5,82.0,1.0,95,183.0
125,A3,82.0,1.0,95,183.0
126,A2,82.0,1.0,95,183.0
127,E3,83.0,1.0,95,183.0
128,C#5,83.0,0.5,95,183.0
129,E-5,83.5,0.5,70,183.0
130,B4,84.0,2.0,95,183.0
131,B3,84.0,1.0,95,183.0
132,G2,84.0,1.0,95,183.0
133,D3,85.0,1.0,95,183.0
134,G3,86.0,1.0,95,183.0
135,A4,86.0,2.0,95,183.0
136,B3,87.0,1.0,95,183.0
137,E4,88.0,2.0,95,183.0
138,G3,88.0,1.0,95,183.0
139,G2,88.0,1.0,95,183.0
140,D3,89.0,1.0,95,183.0
141,G#4,90.0,1.5,95,183.0
142,E4,90.0,1.0,95,183.0
143,B2,90.0,1.0,95,183.0
144,A3,91.0,1.0,95,183.0
145,A4,91.5,0.25,70,183.0
146,G#4,91.75,0.25,70,183.0
147,B3,92.0,1.0,95,183.0
148,F#4,92.0,2.0,95,183.0
149,E4,93.0,1.0,95,183.0
150,B3,94.0,2.0,95,183.0
151,B3,94.0,1.0,95,183.0
152,B2,94.0,1.0,95,183.0
153,A3,95.0,1.0,95,183.0
154,E4,96.0,1.0,95,183.0
155,E3,96.0,1.0,95,183.0
156,F#3,97.0,1.0,95,183.0
157,B3,97.0,1.0,95,183.0
158,B3,98.0,1.0,95,183.0
159,E4,98.0,1.0,95,183.0
160,E4,99.0,1.0,95,183.0
161,F#4,99.0,1.0,95,183.0
162,F#4,100.0,0.5,95,183.0
163,B3,100.0,1.0,95,183.0
164,E3,100.0,1.0,95,183.0
165,G#4,100.5,0.5,95,183.0
166,F#3,101.0,1.0,95,183.0
167,B4,101.0,1.0,95,183.0
168,A4,102.0,3.0,95,183.0
169,E4,102.0,1.0,95,183.0
170,E-3,102.0,1.0,95,183.0
171,A3,103.0,1.0,95,183.0
172,B3,104.0,1.0,95,183.0
173,E4,105.0,1.0,95,183.0
174,B4,105.0,1.0,95,183.0
175,C#5,106.0,1.0,95,183.0
176,B3,106.0,1.0,95,183.0
177,E-3,106.0,1.0,95,183.0
178,A3,107.0,1.0,95,183.0
179,E5,107.0,1.0,95,183.0
180,E-5,108.0,1.5,95,183.0
181,E4,108.0,1.0,95,183.0
182,C#3,108.0,1.0,95,183.0
183,G#3,109.0,1.0,95,183.0
184,E5,109.5,0.25,70,183.0
185,C#5,109.75,0.25,70,183.0
186,E-4,110.0,1.0,95,183.0
187,B4,110.0,3.0,95,183.0
188,E4,111.0,1.0,95,183.0
189,B3,112.0,1.0,95,183.0
190,C#3,112.0,1.0,95,183.0
191,G#3,113.0,1.0,95,183.0
192,A4,113.0,1.0,95,183.0
193,G#4,114.0,1.0,95,183.0
194,E4,114.0,1.0,95,183.0
195,B2,114.0,1.0,95,183.0
196,G#3,115.0,1.0,95,183.0
197,A4,115.0,0.25,70,183.0
198,G#4,115.25,0.25,70,183.0
199,F#4,115.5,0.5,95,183.0
200,B3,116.0,1.0,95,183.0
201,E4,116.0,2.0,95,183.0
202,E4,117.0,1.0,95,183.0
203,E-4,118.0,1.5,95,183.0
204,E-4,118.0,1.0,95,183.0
205,A2,118.0,1.0,95,183.0
206,B3,119.0,1.0,95,183.0
207,E-4,119.5,0.5,95,183.0
208,E4,120.0,2.0,95,183.0
209,B3,120.0,1.0,95,183.0
210,G#2,120.0,1.0,95,183.0
211,E3,121.0,1.0,95,183.0
212,B3,122.0,1.0,95,183.0
213,B4,122.0,3.0,95,183.0
214,B3,123.0,1.0,95,183.0
215,E3,124.0,1.0,95,183.0
216,G#2,124.0,1.0,95,183.0
217,B3,125.0,1.0,95,183.0
218,B3,125.0,1.0,95,183.0
219,E4,126.0,2.0,95,183.0
220,C#4,126.0,1.0,95,183.0
221,A2,126.0,1.0,95,183.0
222,E3,127.0,1.0,95,183.0
223,A3,128.0,1.0,95,183.0
224,A4,128.0,3.0,95,183.0
225,C#4,129.0,1.0,95,183.0
226,A3,130.0,1.0,95,183.0
227,A2,130.0,1.0,95,183.0
228,E3,131.0,1.0,95,183.0
229,B3,131.0,1.0,95,183.0
230,E4,132.0,2.0,95,183.0
231,E4,132.0,1.0,95,183.0
232,B2,132.0,1.0,95,183.0
233,A3,133.0,1.0,95,183.0
234,B3,134.0,1.0,95,183.0
235,G#4,134.0,2.0,95,183.0
236,E4,135.0,1.0,95,183.0
237,F#4,136.0,1.0,95,183.0
238,B3,136.0,1.0,95,183.0
239,B2,136.0,1.0,95,183.0
240,A3,137.0,1.0,95,183.0
241,E4,137.0,1.0,95,183.0
242,E4,138.0,4.0,95,183.0
243,E4,138.0,1.0,95,183.0
244,E2,138.0,1.0,95,183.0
245,G#3,139.0,1.0,95,183.0
246,B3,140.0,1.0,95,183.0
247,E4,141.0,1.0,95,183.0
248,B3,142.0,1.0,95,183.0
249,B2,142.0,1.0,95,183.0
250,G#3,143.0,1.0,95,183.0
251,E4,144.0,1.0,95,183.0
252,E3,144.0,1.0,95,183.0
253,F#3,145.0,1.0,95,183.0
254,B3,145.0,1.0,95,183.0
255,B3,146.0,1.0,95,183.0
256,E4,146.0,1.0,95,183.0
257,E4,147.0,1.0,95,183.0
258,F#4,147.0,1.0,95,183.0
259,G#4,148.0,1.0,95,183.0
260,B3,148.0,1.0,95,183.0
261,E3,148.0,1.0,95,183.0
262,F#3,149.0,1.0,95,183.0
263,B4,149.0,1.0,95,183.0
264,A4,150.0,4.0,95,183.0
265,E4,150.0,1.0,95,183.0
266,E-3,150.0,1.0,95,183.0
267,A3,151.0,1.0,95,183.0
268,B3,152.0,1.0,95,183.0
269,E4,153.0,1.0,95,183.0
270,B3,154.0,1.0,95,183.0
271,E-3,154.0,1.0,95,183.0
272,A3,155.0,1.0,95,183.0
273,G#4,155.0,0.5,95,183.0
274,F#4,155.5,0.5,70,183.0
275,G#4,156.0,4.0,95,183.0
276,E4,156.0,1.0,95,183.0
277,C#3,156.0,1.0,95,183.0
278,G#3,157.0,1.0,95,183.0
279,E-4,158.0,1.0,95,183.0
280,E4,159.0,1.0,95,183.0
281,B3,160.0,1.0,95,183.0
282,C#3,160.0,1.0,95,183.0
283,G#3,161.0,1.0,95,183.0
284,E4,161.0,1.0,95,183.0
285,C#5,162.0,4.0,95,183.0
286,E4,162.0,1.0,95,183.0
287,B2,162.0,1.0,95,183.0
288,G#3,163.0,1.0,95,183.0
289,B3,164.0,1.0,95,183.0
290,E4,165.0,1.0,95,183.0
291,E-4,166.0,1.0,95,183.0
292,A2,166.0,1.0,95,183.0
293,B3,167.0,1.0,95,183.0
294,B4,167.0,0.5,95,183.0
295,A4,167.5,0.5,70,183.0
296,B4,168.0,4.0,95,183.0
297,C#4,168.0,1.0,95,183.0
298,G#2,168.0,1.0,95,183.0
299,F#3,169.0,1.0,95,183.0
300,B3,170.0,1.0,95,183.0
301,C#4,171.0,1.0,95,183.0
302,E-5,172.0,1.0,95,183.0
303,B3,172.0,1.0,95,183.0
304,G#2,172.0,1.0,95,183.0
305,F#3,173.0,1.0,95,183.0
306,E-5,173.0,0.5,95,183.0
307,E5,173.5,0.5,70,183.0
308,A4,174.0,4.0,95,183.0
309,C#4,174.0,1.0,95,183.0
310,A2,174.0,1.0,95,183.0
311,E3,175.0,1.0,95,183.0
312,A3,176.0,1.0,95,183.0
313,C#4,177.0,1.0,95,183.0
314,C#5,178.0,1.0,95,183.0
315,A3,178.0,1.0,95,183.0
316,A2,178.0,1.0,95,183.0
317,E3,179.0,1.0,95,183.0
318,C#5,179.0,0.5,95,183.0
319,E-5,179.5,0.5,70,183.0
320,B4,180.0,2.0,95,183.0
321,B3,180.0,1.0,95,183.0
322,G2,180.0,1.0,95,183.0
323,D3,181.0,1.0,95,183.0
324,G3,182.0,1.0,95,183.0
325,A4,182.0,2.0,95,183.0
326,B3,183.0,1.0,95,183.0
327,E4,184.0,2.0,95,183.0
328,G3,184.0,1.0,95,183.0
329,G2,184.0,1.0,95,183.0
330,D3,185.0,1.0,95,183.0
331,G#4,186.0,1.0,95,183.0
332,E4,186.0,1.0,95,183.0
333,B2,186.0,1.0,95,183.0
334,A3,187.0,1.0,95,183.0
335,A4,187.0,0.5,70,183.0
336,G#4,187.5,0.5,70,183.0
337,B3,188.0,1.0,95,183.0
338,F#4,188.0,1.0,95,183.0
339,E4,189.0,1.0,95,183.0
340,B3,189.0,1.0,95,183.0
341,F#3,190.0,2.0,95,183.0
342,B3,190.0,1.0,95,183.0
343,B2,190.0,1.0,95,183.0
344,A3,191.0,1.0,95,183.0
345,E4,192.0,1.0,95,183.0
346,E3,192.0,1.0,95,183.0
347,F#3,193.0,1.0,95,183.0
348,B3,193.0,1.0,95,183.0
349,B3,194.0,1.0,95,183.0
350,E4,194.0,1.0,95,183.0
351,E4,195.0,1.0,95,183.0
352,F#4,195.0,1.0,95,183.0
353,F#4,196.0,0.5,95,183.0
354,B3,196.0,1.0,95,183.0
355,E3,196.0,1.0,95,183.0
356,G#4,196.5,0.5,95,183.0
357,F#3,197.0,1.0,95,183.0
358,B4,197.0,1.0,95,183.0
359,A4,198.0,3.0,95,183.0
360,E4,198.0,1.0,95,183.0
361,E-3,198.0,1.0,95,183.0
362,A3,199.0,1.0,95,183.0
363,B3,200.0,1.0,95,183.0
364,E4,201.0,1.0,95,183.0
365,B4,201.0,1.0,95,183.0
366,C#5,202.0,1.0,95,183.0
367,B3,202.0,1.0,95,183.0
368,E-3,202.0,1.0,95,183.0
369,A3,203.0,1.0,95,183.0
370,E5,203.0,1.0,95,183.0
371,E-5,204.0,1.0,95,183.0
372,E4,204.0,1.0,95,183.0
373,C#3,204.0,1.0,95,183.0
374,G#3,205.0,1.0,95,183.0
375,E5,205.0,0.25,70,183.0
376,E-5,205.25,0.25,70,183.0
377,C#5,205.5,0.5,95,183.0
378,E-4,206.0,1.0,95,183.0
379,B4,206.0,3.0,95,183.0
380,E4,207.0,1.0,95,183.0
381,B3,208.0,1.0,95,183.0
382,C#3,208.0,1.0,95,183.0
383,G#3,209.0,1.0,95,183.0
384,A4,209.0,1.0,95,183.0
385,G#4,210.0,1.0,95,183.0
386,E4,210.0,1.0,95,183.0
387,B2,210.0,1.0,95,183.0
388,G#3,211.0,1.0,95,183.0
389,A4,211.0,0.25,70,183.0
390,G#4,211.25,0.25,70,183.0
391,F#4,211.5,0.5,95,183.0
392,B3,212.0,1.0,95,183.0
393,E4,212.0,2.0,95,183.0
394,E4,213.0,1.0,95,183.0
395,E-4,214.0,1.5,95,183.0
396,E-4,214.0,1.0,95,183.0
397,A2,214.0,1.0,95,183.0
398,B3,215.0,1.0,95,183.0
399,E-4,215.5,0.5,95,183.0
400,E4,216.0,2.0,95,183.0
401,B3,216.0,1.0,95,183.0
402,G#2,216.0,1.0,95,183.0
403,E3,217.0,1.0,95,183.0
404,B3,218.0,1.0,95,183.0
405,B4,218.0,3.0,95,183.0
406,B3,219.0,1.0,95,183.0
407,E3,220.0,1.0,95,183.0
408,G#2,220.0,1.0,95,183.0
409,B3,221.0,1.0,95,183.0
410,B3,221.0,1.0,95,183.0
411,E4,222.0,2.0,95,183.0
412,C#4,222.0,1.0,95,183.0
413,A2,222.0,1.0,95,183.0
414,E3,223.0,1.0,95,183.0
415,A3,224.0,1.0,95,183.0
416,A4,224.0,3.0,95,183.0
417,C#4,225.0,1.0,95,183.0
418,A3,226.0,1.0,95,183.0
419,A2,226.0,1.0,95,183.0
420,E3,227.0,1.0,95,183.0
421,B3,227.0,1.0,95,183.0
422,E4,228.0,2.0,95,183.0
423,E4,228.0,1.0,95,183.0
424,B2,228.0,1.0,95,183.0
425,A3,229.0,1.0,95,183.0
426,B3,230.0,1.0,95,183.0
427,G#4,230.0,2.0,95,183.0
428,E4,231.0,1.0,95,183.0
429,F#4,232.0,1.0,95,183.0
430,B3,232.0,1.0,95,183.0
431,B2,232.0,1.0,95,183.0
432,A3,233.0,1.0,95,183.0
433,E4,233.0,1.0,95,183.0
434,E4,234.0,4.0,95,183.0
435,E4,234.0,1.0,95,183.0
436,E2,234.0,1.0,95,183.0
437,G#3,235.0,1.0,95,183.0
438,B3,236.0,1.0,95,183.0
439,E4,237.0,1.0,95,183.0
440,B3,238.0,1.0,95,183.0
441,B2,238.0,1.0,95,183.0
442,G#3,239.0,1.0,95,183.0
443,E4,240.0,0.25,95,183.0
444,E4,240.0,1.0,95,183.0
445,C#3,240.0,1.0,95,183.0
446,G#4,240.25,1.984,95,183.0
447,E5,240.25,1.984,95,183.0
448,G#3,241.0,1.0,95,183.0
449,B3,242.0,1.0,95,183.0
450,G#4,243.0,1.0,95,183.0
451,E5,243.0,1.0,95,183.0
452,E-5,244.0,1.0,95,183.0
453,E4,244.0,1.0,95,183.0
454,G#2,244.0,1.0,95,183.0
455,B3,245.0,1.0,95,183.0
456,B4,245.0,1.0,95,183.0
457,C#5,246.0,3.0,95,183.0
458,E4,246.0,1.0,95,183.0
459,A2,246.0,1.0,95,183.0
460,C#4,247.0,1.0,95,183.0
461,E4,248.0,1.0,95,183.0
462,A4,249.0,1.0,95,183.0
463,C#5,249.0,1.0,95,183.0
464,B4,250.0,1.0,95,183.0
465,E4,250.0,1.0,95,183.0
466,A2,250.0,1.0,95,183.0
467,C#4,251.0,1.0,95,183.0
468,A4,251.0,1.0,95,183.0
469,E3,252.0,1.0,95,183.0
470,B4,252.0,3.0,95,183.0
471,G#4,253.0,1.0,95,183.0
472,E4,254.0,1.0,95,183.0
473,G#4,255.0,1.0,95,183.0
474,A4,255.0,1.0,95,183.0
475,F#4,256.0,1.5,95,183.0
476,F#4,256.0,1.0,95,183.0
477,D3,256.0,1.0,95,183.0
478,D4,257.0,1.0,95,183.0
479,D4,257.5,0.5,95,183.0
480,E4,258.0,4.0,95,183.0
481,E4,258.0,1.0,95,183.0
482,C#3,258.0,1.0,95,183.0
483,G#3,259.0,1.0,95,183.0
484,B3,260.0,1.0,95,183.0
485,E4,261.0,1.0,95,183.0
486,B4,262.0,1.0,95,183.0
487,B3,262.0,1.0,95,183.0
488,C#3,262.0,1.0,95,183.0
489,G#3,263.0,1.0,95,183.0
490,A4,263.0,0.5,95,183.0
491,G#4,263.5,0.5,70,183.0
492,F#2,264.0,1.0,95,183.0
493,A4,264.0,1.0,95,183.0
494,C#3,265.0,1.0,95,183.0
495,G#4,265.0,1.0,95,183.0
496,F#3,266.0,1.0,95,183.0
497,E4,266.0,2.0,95,183.0
498,B3,267.0,1.0,95,183.0
499,B4,268.0,1.0,95,183.0
500,B3,268.0,1.0,95,183.0
501,G#2,268.0,1.0,95,183.0
502,C#3,269.0,1.0,95,183.0
503,A4,269.0,0.5,95,183.0
504,G#4,269.5,0.5,70,183.0
505,A4,270.0,1.0,95,183.0
506,C#4,270.0,1.0,95,183.0
507,A2,270.0,1.0,95,183.0
508,E3,271.0,1.0,95,183.0
509,G#4,271.0,1.0,95,183.0
510,C#4,272.0,1.0,95,183.0
511,E4,272.0,2.0,95,183.0
512,E3,273.0,1.0,95,183.0
513,B4,274.0,1.0,95,183.0
514,E-4,274.0,1.0,95,183.0
515,B2,274.0,1.0,95,183.0
516,F#3,275.0,1.0,95,183.0
517,A4,275.0,0.5,95,183.0
518,G#4,275.5,0.5,70,183.0
519,E3,276.0,1.0,95,183.0
520,A4,276.0,1.0,95,183.0
521,E4,277.0,1.0,95,183.0
522,G#4,277.0,0.25,95,183.0
523,A4,277.25,0.25,70,183.0
524,G#4,277.5,0.5,70,183.0
525,B3,278.0,1.0,95,183.0
526,E4,278.0,1.0,95,183.0
527,E4,279.0,1.0,95,183.0
528,B3,279.0,1.0,95,183.0
529,E4,280.0,1.0,95,183.0
530,F#4,280.0,1.0,95,183.0
531,E-3,280.0,1.0,95,183.0
532,B3,281.0,1.0,95,183.0
533,F#4,281.0,0.5,95,183.0
534,G#4,281.5,0.5,95,183.0
535,G#4,282.0,3.0,95,183.0
536,E4,282.0,1.0,95,183.0
537,C#3,282.0,1.0,95,183.0
538,C#4,283.0,1.0,95,183.0
539,E4,284.0,1.0,95,183.0
540,G#4,285.0,1.0,95,183.0
541,E5,285.0,1.0,95,183.0
542,E-5,286.0,1.0,95,183.0
543,E4,286.0,1.0,95,183.0
544,G#2,286.0,1.0,95,183.0
545,C#4,287.0,1.0,95,183.0
546,B4,287.0,1.0,95,183.0
547,C#5,288.0,3.0,95,183.0
548,E4,288.0,1.0,95,183.0
549,C#3,288.0,1.0,95,183.0
550,G#3,289.0,1.0,95,183.0
551,B3,290.0,1.0,95,183.0
552,G#4,291.0,1.0,95,183.0
553,C#5,291.0,1.0,95,183.0
554,C#5,292.0,0.5,95,183.0
555,E4,292.0,1.0,95,183.0
556,G#2,292.0,1.0,95,183.0
557,B4,292.5,0.5,95,183.0
558,B3,293.0,1.0,95,183.0
559,A4,293.0,1.0,95,183.0
560,B4,294.0,3.0,95,183.0
561,E4,294.0,1.0,95,183.0
562,A2,294.0,1.0,95,183.0
563,C#4,295.0,1.0,95,183.0
564,E4,296.0,1.0,95,183.0
565,A4,297.0,1.0,95,183.0
566,A4,297.0,1.0,95,183.0
567,F#4,298.0,1.0,95,183.0
568,E4,298.0,1.0,95,183.0
569,A2,298.0,1.0,95,183.0
570,C#4,299.0,1.0,95,183.0
571,D4,299.0,1.0,95,183.0
572,E4,300.0,4.0,95,183.0
573,E4,300.0,1.0,95,183.0
574,C#3,300.0,1.0,95,183.0
575,G#3,301.0,1.0,95,183.0
576,B3,302.0,1.0,95,183.0
577,E4,303.0,1.0,95,183.0
578,B4,304.0,1.0,95,183.0
579,B3,304.0,1.0,95,183.0
580,C#3,304.0,1.0,95,183.0
581,G#3,305.0,1.0,95,183.0
582,A4,305.0,0.5,95,183.0
583,G#4,305.5,0.5,70,183.0
584,F#2,306.0,1.0,95,183.0
585,A4,306.0,1.0,95,183.0
586,C#3,307.0,1.0,95,183.0
587,G#4,307.0,1.0,95,183.0
588,F#3,308.0,1.0,95,183.0
589,E4,308.0,2.0,95,183.0
590,B3,309.0,1.0,95,183.0
591,B4,310.0,1.0,95,183.0
592,B3,310.0,1.0,95,183.0
593,G#2,310.0,1.0,95,183.0
594,C#3,311.0,1.0,95,183.0
595,A4,311.0,0.5,95,183.0
596,G#4,311.5,0.5,70,183.0
597,A4,312.0,1.0,95,183.0
598,C#4,312.0,1.0,95,183.0
599,A2,312.0,1.0,95,183.0
600,E3,313.0,1.0,95,183.0
601,G#4,313.0,0.25,95,183.0
602,A4,313.25,0.25,70,183.0
603,G#4,313.5,0.5,70,183.0
604,C#4,314.0,1.0,95,183.0
605,E4,314.0,1.0,95,183.0
606,E3,315.0,1.0,95,183.0
607,B3,315.0,1.0,95,183.0
608,B4,316.0,1.0,95,183.0
609,E-4,316.0,1.0,95,183.0
610,B2,316.0,1.0,95,183.0
611,F#3,317.0,1.0,95,183.0
612,A4,317.0,0.5,95,183.0
613,G#4,317.5,0.5,70,183.0
614,E3,318.0,1.0,95,183.0
615,A4,318.0,1.0,95,183.0
616,E4,319.0,1.0,95,183.0
617,G#4,319.0,0.25,95,183.0
618,A4,319.25,0.25,70,183.0
619,G#4,319.5,0.5,70,183.0
620,B3,320.0,1.0,95,183.0
621,E4,320.0,1.0,95,183.0
622,E4,321.0,1.0,95,183.0
623,B3,321.0,1.0,95,183.0
624,E4,322.0,1.0,95,183.0
625,F#4,322.0,1.0,95,183.0
626,E-3,322.0,1.0,95,183.0
627,B3,323.0,1.0,95,183.0
628,E4,323.0,0.5,95,183.0
629,F#4,323.5,0.5,95,183.0
630,B2,324.0,1.0,95,183.0
631,B3,325.0,1.0,95,183.0
632,B3,325.0,2.0,95,183.0
633,E-4,326.0,1.0,95,183.0
634,E4,327.0,1.0,95,183.0
635,E4,327.0,1.0,95,183.0
636,C#3,327.0,1.0,95,183.0
637,E-4,328.0,1.0,95,183.0
638,F#4,328.0,2.0,95,183.0
639,B3,329.0,1.0,95,183.0
640,A2,330.0,1.0,95,183.0
641,B3,331.0,1.0,95,183.0
642,E4,331.0,1.0,95,183.0
643,E-4,332.0,1.0,95,183.0
644,E4,332.0,0.25,95,183.0
645,F#4,332.25,0.75,95,183.0
646,E4,333.0,3.0,95,183.0
647,E4,333.0,1.0,95,183.0
648,C#3,333.0,1.0,95,183.0
649,E-4,334.0,1.0,95,183.0
650,B3,335.0,1.0,95,183.0
651,G#2,336.0,1.0,95,183.0
652,B3,337.0,1.0,95,183.0
653,E4,337.0,0.5,95,183.0
654,F#4,337.5,0.5,70,183.0
655,E-4,338.0,1.0,95,183.0
656,B4,338.0,1.0,95,183.0
657,C#5,339.0,1.0,95,183.0
658,E4,339.0,1.0,95,183.0
659,C#3,339.0,1.0,95,183.0
660,E-4,340.0,1.0,95,183.0
661,E-5,340.0,2.0,95,183.0
662,B3,341.0,1.0,95,183.0
663,F#2,342.0,1.0,95,183.0
664,B3,343.0,1.0,95,183.0
665,E5,343.0,1.0,95,183.0
666,E-4,344.0,1.0,95,183.0
667,F#5,344.0,1.0,95,183.0
668,B4,345.0,3.0,95,183.0
669,E4,345.0,1.0,95,183.0
670,C#3,345.0,1.0,95,183.0
671,E-4,346.0,1.0,95,183.0
672,B3,347.0,1.0,95,183.0
673,E4,348.0,1.0,95,183.0
674,E3,348.0,1.0,95,183.0
675,F#3,349.0,1.0,95,183.0
676,B3,349.0,1.0,95,183.0
677,B3,350.0,1.0,95,183.0
678,E4,350.0,1.0,95,183.0
679,E4,351.0,1.0,95,183.0
680,F#4,351.0,1.0,95,183.0
681,F#4,352.0,0.5,95,183.0
682,B3,352.0,1.0,95,183.0
683,E3,352.0,1.0,95,183.0
684,G#4,352.5,0.5,95,183.0
685,F#3,353.0,1.0,95,183.0
686,B4,353.0,1.0,95,183.0
687,A4,354.0,4.0,95,183.0
688,E4,354.0,1.0,95,183.0
689,E-3,354.0,1.0,95,183.0
690,A3,355.0,1.0,95,183.0
691,B3,356.0,1.0,95,183.0
692,E4,357.0,1.0,95,183.0
693,B3,358.0,1.0,95,183.0
694,E-3,358.0,1.0,95,183.0
695,A3,359.0,1.0,95,183.0
696,G#4,359.0,0.5,95,183.0
697,F#4,359.5,0.5,70,183.0
698,G#4,360.0,4.0,95,183.0
699,E4,360.0,1.0,95,183.0
700,C#3,360.0,1.0,95,183.0
701,G#3,361.0,1.0,95,183.0
702,E-4,362.0,1.0,95,183.0
703,E4,363.0,1.0,95,183.0
704,B3,364.0,1.0,95,183.0
705,C#3,364.0,1.0,95,183.0
706,C#4,365.0,1.0,95,183.0
707,E4,365.0,1.0,95,183.0
708,C#5,366.0,2.0,95,183.0
709,E4,366.0,1.0,95,183.0
710,B2,366.0,1.0,95,183.0
711,G#3,367.0,1.0,95,183.0
712,E-5,368.0,3.0,95,183.0
713,E-4,368.0,1.0,95,183.0
714,A2,368.0,1.0,95,183.0
715,B3,369.0,1.0,95,183.0
716,E-4,370.0,1.0,95,183.0
717,E4,371.0,1.0,95,183.0
718,E5,371.0,1.0,95,183.0
719,D3,372.0,1.0,95,183.0
720,A4,372.0,4.0,95,183.0
721,A3,373.0,1.0,95,183.0
722,A4,374.0,4.0,95,183.0
723,C#4,374.0,4.0,95,183.0
724,B4,377.0,1.0,95,183.0
725,A2,378.0,1.0,95,183.0
726,E4,378.0,2.0,95,183.0
727,E3,379.0,1.0,95,183.0
728,B4,380.0,3.0,95,183.0
729,C4,380.0,4.0,95,183.0
730,A3,380.0,4.0,95,183.0
731,A4,383.0,1.0,95,183.0
732,B-2,384.0,1.0,95,183.0
733,D4,384.0,4.0,95,183.0
734,D3,385.0,1.0,95,183.0
735,A3,386.0,4.0,95,183.0
736,C4,388.0,1.0,95,183.0
737,D4,389.0,1.0,95,183.0
738,G#2,390.0,1.0,95,183.0
739,E4,390.0,3.0,95,183.0
740,E3,391.0,1.0,95,183.0
741,B3,392.0,1.0,95,183.0
742,A3,393.0,1.0,95,183.0
743,B-4,393.0,0.5,95,183.0
744,B4,393.5,0.5,95,183.0
745,G#2,394.0,1.0,95,183.0
746,G4,394.0,1.0,95,183.0
747,E3,395.0,1.0,95,183.0
748,E4,395.0,1.0,95,183.0
749,A2,396.0,1.0,95,183.0
750,A4,396.0,3.0,95,183.0
751,E3,397.0,1.0,95,183.0
752,A3,398.0,1.0,95,183.0
753,C4,399.0,1.0,95,183.0
754,E4,399.0,1.0,95,183.0
755,A3,400.0,1.0,95,183.0
756,A4,400.0,1.0,95,183.0
757,E3,401.0,1.0,95,183.0
758,C5,401.0,1.0,95,183.0
759,G#2,402.0,1.0,95,183.0
760,B4,402.0,3.0,95,183.0
761,E3,403.0,1.0,95,183.0
762,G#3,404.0,1.0,95,183.0
763,B3,405.0,1.0,95,183.0
764,E4,405.0,1.0,95,183.0
765,G#3,406.0,1.0,95,183.0
766,B4,406.0,1.0,95,183.0
767,E3,407.0,1.0,95,183.0
768,D5,407.0,1.0,95,183.0
769,A2,408.0,1.0,95,183.0
770,C5,408.0,3.0,95,183.0
771,E3,409.0,1.0,95,183.0
772,A3,410.0,1.0,95,183.0
773,C4,411.0,1.0,95,183.0
774,G4,411.0,1.0,95,183.0
775,A3,412.0,1.0,95,183.0
776,C5,412.0,1.0,95,183.0
777,E3,413.0,1.0,95,183.0
778,E5,413.0,1.0,95,183.0
779,G2,414.0,1.0,95,183.0
780,D5,414.0,4.0,95,183.0
781,E3,415.0,1.0,95,183.0
782,A3,416.0,1.0,95,183.0
783,C4,417.0,1.0,95,183.0
784,A3,418.0,1.0,95,183.0
785,C5,418.0,1.0,95,183.0
786,C4,419.0,1.0,95,183.0
787,D5,419.0,1.0,95,183.0
788,D5,420.0,0.5,95,183.0
789,A4,420.0,3.0,95,183.0
790,E4,420.0,3.0,95,183.0
791,E5,420.5,2.0,95,183.0
792,C5,423.0,3.0,95,183.0
793,A4,423.0,3.0,95,183.0
794,E4,423.0,3.0,95,183.0
795,A4,426.0,3.0,95,183.0
796,A4,426.0,3.0,95,183.0
797,E4,426.0,3.0,95,183.0
798,C#5,429.0,3.0,95,183.0
799,E4,429.0,3.0,95,183.0
800,B3,429.0,3.0,95,183.0
801,B4,432.0,3.0,95,183.0
802,G#4,432.0,3.0,95,183.0
803,E4,432.0,3.0,95,183.0
804,E4,435.0,3.0,95,183.0
805,E4,435.0,3.0,95,183.0
806,B3,435.0,3.0,95,183.0
807,E4,438.0,1.0,95,183.0
808,E3,438.0,1.0,95,183.0
809,F#3,439.0,1.0,95,183.0
810,B3,439.0,1.0,95,183.0
811,B3,440.0,1.0,95,183.0
812,E4,440.0,1.0,95,183.0
813,E4,441.0,1.0,95,183.0
814,F#4,441.0,1.0,95,183.0
815,G#4,442.0,1.0,95,183.0
816,B3,442.0,1.0,95,183.0
817,E3,442.0,1.0,95,183.0
818,F#3,443.0,1.0,95,183.0
819,B4,443.0,1.0,95,183.0
820,A4,444.0,4.0,95,183.0
821,E4,444.0,1.0,95,183.0
822,E-3,444.0,1.0,95,183.0
823,A3,445.0,1.0,95,183.0
824,B3,446.0,1.0,95,183.0
825,E4,447.0,1.0,95,183.0
826,B3,448.0,1.0,95,183.0
827,E-3,448.0,1.0,95,183.0
828,A3,449.0,1.0,95,183.0
829,G#4,449.0,0.5,95,183.0
830,F#4,449.5,0.5,70,183.0
831,G#4,450.0,4.0,95,183.0
832,E4,450.0,1.0,95,183.0
833,C#3,450.0,1.0,95,183.0
834,G#3,451.0,1.0,95,183.0
835,E-4,452.0,1.0,95,183.0
836,E4,453.0,1.0,95,183.0
837,B3,454.0,1.0,95,183.0
838,C#3,454.0,1.0,95,183.0
839,G#3,455.0,1.0,95,183.0
840,E4,455.0,1.0,95,183.0
841,C#5,456.0,4.0,95,183.0
842,E4,456.0,1.0,95,183.0
843,B2,456.0,1.0,95,183.0
844,G#3,457.0,1.0,95,183.0
845,B3,458.0,1.0,95,183.0
846,E4,459.0,1.0,95,183.0
847,E-4,460.0,1.0,95,183.0
848,A2,460.0,1.0,95,183.0
849,B3,461.0,1.0,95,183.0
850,B4,461.0,0.5,95,183.0
851,A4,461.5,0.5,70,183.0
852,B4,462.0,4.0,95,183.0
853,C#4,462.0,1.0,95,183.0
854,G#2,462.0,1.0,95,183.0
855,F#3,463.0,1.0,95,183.0
856,B3,464.0,1.0,95,183.0
857,C#4,465.0,1.0,95,183.0
858,E-5,466.0,1.0,95,183.0
859,B3,466.0,1.0,95,183.0
860,G#2,466.0,1.0,95,183.0
861,F#3,467.0,1.0,95,183.0
862,E-5,467.0,0.5,95,183.0
863,E5,467.5,0.5,70,183.0
864,A4,468.0,4.0,95,183.0
865,C#4,468.0,1.0,95,183.0
866,A2,468.0,1.0,95,183.0
867,E3,469.0,1.0,95,183.0
868,A3,470.0,1.0,95,183.0
869,C#4,471.0,1.0,95,183.0
870,C#5,472.0,1.0,95,183.0
871,A3,472.0,1.0,95,183.0
872,A2,472.0,1.0,95,183.0
873,E3,473.0,1.0,95,183.0
874,C#5,473.0,0.5,95,183.0
875,E-5,473.5,0.5,70,183.0
876,B4,474.0,2.0,95,183.0
877,B3,474.0,1.0,95,183.0
878,G2,474.0,1.0,95,183.0
879,D3,475.0,1.0,95,183.0
880,G3,476.0,1.0,95,183.0
881,A4,476.0,2.0,95,183.0
882,B3,477.0,1.0,95,183.0
883,E4,478.0,2.0,95,183.0
884,G3,478.0,1.0,95,183.0
885,G2,478.0,1.0,95,183.0
886,D3,479.0,1.0,95,183.0
887,G#4,480.0,1.5,95,183.0
888,E4,480.0,1.0,95,183.0
889,B2,480.0,1.0,95,183.0
890,A3,481.0,1.0,95,183.0
891,A4,481.5,0.25,70,183.0
892,G#4,481.75,0.25,70,183.0
893,B3,482.0,1.0,95,183.0
894,F#4,482.0,2.0,95,183.0
895,E4,483.0,1.0,95,183.0
896,B3,484.0,2.0,95,183.0
897,B3,484.0,1.0,95,183.0
898,B2,484.0,1.0,95,183.0
899,A3,485.0,1.0,95,183.0
900,E4,486.0,1.0,95,183.0
901,E3,486.0,1.0,95,183.0
902,F#3,487.0,1.0,95,183.0
903,B3,487.0,1.0,95,183.0
904,B3,488.0,1.0,95,183.0
905,E4,488.0,1.0,95,183.0
906,E4,489.0,1.0,95,183.0
907,F#4,489.0,1.0,95,183.0
908,F#4,490.0,0.5,95,183.0
909,B3,490.0,1.0,95,183.0
910,E3,490.0,1.0,95,183.0
911,G#4,490.5,0.5,95,183.0
912,F#3,491.0,1.0,95,183.0
913,B4,491.0,1.0,95,183.0
914,A4,492.0,3.0,95,183.0
915,E4,492.0,1.0,95,183.0
916,E-3,492.0,1.0,95,183.0
917,A3,493.0,1.0,95,183.0
918,B3,494.0,1.0,95,183.0
919,E4,495.0,1.0,95,183.0
920,B4,495.0,1.0,95,183.0
921,C#5,496.0,1.0,95,183.0
922,B3,496.0,1.0,95,183.0
923,E-3,496.0,1.0,95,183.0
924,A3,497.0,1.0,95,183.0
925,E5,497.0,1.0,95,183.0
926,E-5,498.0,1.5,95,183.0
927,E4,498.0,1.0,95,183.0
928,C#3,498.0,1.0,95,183.0
929,G#3,499.0,1.0,95,183.0
930,E5,499.5,0.25,70,183.0
931,C#5,499.75,0.25,70,183.0
932,E-4,500.0,1.0,95,183.0
933,B4,500.0,3.0,95,183.0
934,E4,501.0,1.0,95,183.0
935,B3,502.0,1.0,95,183.0
936,C#3,502.0,1.0,95,183.0
937,G#3,503.0,1.0,95,183.0
938,A4,503.0,1.0,95,183.0
939,G#4,504.0,1.0,95,183.0
940,E4,504.0,1.0,95,183.0
941,B2,504.0,1.0,95,183.0
942,G#3,505.0,1.0,95,183.0
943,A4,505.0,0.25,70,183.0
944,G#4,505.25,0.25,70,183.0
945,F#4,505.5,0.5,95,183.0
946,B3,506.0,1.0,95,183.0
947,E4,506.0,2.0,95,183.0
948,E4,507.0,1.0,95,183.0
949,E-4,508.0,1.5,95,183.0
950,E-4,508.0,1.0,95,183.0
951,A2,508.0,1.0,95,183.0
952,B3,509.0,1.0,95,183.0
953,E-4,509.5,0.5,95,183.0
954,E4,510.0,2.0,95,183.0
955,B3,510.0,1.0,95,183.0
956,G#2,510.0,1.0,95,183.0
957,E3,511.0,1.0,95,183.0
958,B3,512.0,1.0,95,183.0
959,B4,512.0,3.0,95,183.0
960,B3,513.0,1.0,95,183.0
961,E3,514.0,1.0,95,183.0
962,G#2,514.0,1.0,95,183.0
963,B3,515.0,1.0,95,183.0
964,B3,515.0,1.0,95,183.0
965,E4,516.0,2.0,95,183.0
966,C#4,516.0,1.0,95,183.0
967,A2,516.0,1.0,95,183.0
968,E3,517.0,1.0,95,183.0
969,A3,518.0,1.0,95,183.0
970,A4,518.0,3.0,95,183.0
971,C#4,519.0,1.0,95,183.0
972,A3,520.0,1.0,95,183.0
973,A2,520.0,1.0,95,183.0
974,E3,521.0,1.0,95,183.0
975,B3,521.0,1.0,95,183.0
976,E4,522.0,2.0,95,183.0
977,E4,522.0,1.0,95,183.0
978,B2,522.0,1.0,95,183.0
979,A3,523.0,1.0,95,183.0
980,B3,524.0,1.0,95,183.0
981,G#4,524.0,2.0,95,183.0
982,E4,525.0,1.0,95,183.0
983,F#4,526.0,1.0,95,183.0
984,B3,526.0,1.0,95,183.0
985,B2,526.0,1.0,95,183.0
986,A3,527.0,1.0,95,183.0
987,E4,527.0,1.0,95,183.0
988,E-4,528.0,0.125,95,183.0
989,G#3,528.0,6.0,95,183.0
990,E3,528.0,6.0,95,183.0
991,B2,528.0,6.0,95,183.0
992,E2,528.0,6.0,95,183.0
993,E4,528.125,4.0,95,183.0
