,note_name,start_time,duration,velocity,tempo
0,E2,3.5,0.5,125,108.0
1,E2,3.75,0.25,125,108.0
2,G1,4.0,417/1000,100,108.0
3,E2,4.0,0.5,125,108.0
4,E2,4.0,0.75,125,108.0
5,F#3,4.0,1.0,125,108.0
6,F#2,4.0,1.0,125,108.0
7,E2,4.0,1.0,125,108.0
8,G2,4.5,417/1000,100,108.0
9,F#3,4.5,1.0,125,108.0
10,F2,5.0,417/1000,100,108.0
11,F#3,5.0,1.0,125,108.0
12,F#2,5.0,1.0,125,108.0
13,E2,5.0,1.0,125,108.0
14,D2,5.5,1.0,100,108.0
15,F#3,5.5,1.0,125,108.0
16,F#3,6.0,1.0,125,108.0
17,F#2,6.0,1.0,125,108.0
18,E2,6.0,1.0,125,108.0
19,C2,6.5,1.0,100,108.0
20,F#3,6.5,1.0,125,108.0
21,F#3,7.0,1.0,125,108.0
22,F#2,7.0,1.0,125,108.0
23,E2,7.0,1.0,125,108.0
24,G#1,7.5,0.5,100,108.0
25,F#3,7.5,0.5,125,108.0
26,G1,8.0,417/1000,100,108.0
27,F#3,8.0,1.0,125,108.0
28,F#3,8.0,0.5,125,108.0
29,F#2,8.0,1.0,125,108.0
30,E2,8.0,1.0,125,108.0
31,G2,8.5,417/1000,100,108.0
32,F#3,8.5,1.0,125,108.0
33,F2,9.0,417/1000,100,108.0
34,F#3,9.0,1.0,125,108.0
35,F#2,9.0,1.0,125,108.0
36,E2,9.0,1.0,125,108.0
37,D2,9.5,1.0,100,108.0
38,F#3,9.5,1.0,125,108.0
39,F#3,10.0,1.0,125,108.0
40,F#2,10.0,1.0,125,108.0
41,E2,10.0,1.0,125,108.0
42,C2,10.5,1.0,100,108.0
43,F#3,10.5,1.0,125,108.0
44,F#3,11.0,1.0,125,108.0
45,F#2,11.0,1.0,125,108.0
46,E2,11.0,1.0,125,108.0
47,G#1,11.5,0.5,100,108.0
48,F#3,11.5,0.5,125,108.0
49,G1,12.0,417/1000,100,108.0
50,G2,12.0,417/1000,127,108.0
51,G2,12.0,417/1000,127,108.0
52,F#3,12.0,1.0,125,108.0
53,F#3,12.0,0.5,125,108.0
54,D4,12.0,73/250,100,108.0
55,B3,12.0,73/250,100,108.0
56,G4,12.0,73/250,100,108.0
57,F#2,12.0,1.0,125,108.0
58,E2,12.0,1.0,125,108.0
59,G2,12.5,417/1000,100,108.0
60,G3,12.5,417/1000,127,108.0
61,G3,12.5,417/1000,127,108.0
62,F#3,12.5,1.0,125,108.0
63,D4,12.75,0.25,100,108.0
64,B3,12.75,0.25,100,108.0
65,G4,12.75,0.25,100,108.0
66,F2,13.0,417/1000,100,108.0
67,F3,13.0,417/1000,127,108.0
68,F3,13.0,417/1000,127,108.0
69,F#3,13.0,1.0,125,108.0
70,B3,13.0,73/250,100,108.0
71,D4,13.0,73/250,100,108.0
72,G4,13.0,73/250,100,108.0
73,F#2,13.0,1.0,125,108.0
74,E2,13.0,1.0,125,108.0
75,D2,13.5,1.0,100,108.0
76,D3,13.5,1.0,127,108.0
77,D3,13.5,1.0,127,108.0
78,F#3,13.5,1.0,125,108.0
79,F#3,14.0,1.0,125,108.0
80,D4,14.0,73/250,100,108.0
81,B3,14.0,73/250,100,108.0
82,G4,14.0,73/250,100,108.0
83,F#2,14.0,1.0,125,108.0
84,E2,14.0,1.0,125,108.0
85,C2,14.5,1.0,100,108.0
86,C3,14.5,1.0,127,108.0
87,C3,14.5,1.0,127,108.0
88,F#3,14.5,1.0,125,108.0
89,D4,14.75,0.25,100,108.0
90,B3,14.75,0.25,100,108.0
91,G4,14.75,0.25,100,108.0
92,F#3,15.0,1.0,125,108.0
93,B3,15.0,73/250,100,108.0
94,D4,15.0,73/250,100,108.0
95,G4,15.0,73/250,100,108.0
96,F#2,15.0,1.0,125,108.0
97,E2,15.0,1.0,125,108.0
98,G#1,15.5,0.5,100,108.0
99,G#2,15.5,0.5,127,108.0
100,G#2,15.5,0.5,127,108.0
101,F#3,15.5,0.5,125,108.0
102,G1,16.0,417/1000,100,108.0
103,G2,16.0,417/1000,127,108.0
104,G2,16.0,417/1000,127,108.0
105,F#3,16.0,1.0,125,108.0
106,F#3,16.0,0.5,125,108.0
107,D4,16.0,73/250,100,108.0
108,B3,16.0,73/250,100,108.0
109,G4,16.0,73/250,100,108.0
110,F#2,16.0,1.0,125,108.0
111,E2,16.0,1.0,125,108.0
112,G2,16.5,417/1000,100,108.0
113,G3,16.5,417/1000,127,108.0
114,G3,16.5,417/1000,127,108.0
115,F#3,16.5,1.0,125,108.0
116,G4,16.5,0.25,100,108.0
117,B3,16.5,0.25,100,108.0
118,D4,16.5,0.25,100,108.0
119,F2,17.0,417/1000,100,108.0
120,F3,17.0,417/1000,127,108.0
121,F3,17.0,417/1000,127,108.0
122,F#3,17.0,1.0,125,108.0
123,B3,17.0,73/250,100,108.0
124,D4,17.0,73/250,100,108.0
125,G4,17.0,73/250,100,108.0
126,B-2,17.0,1.0,125,108.0
127,E2,17.0,1.0,125,108.0
128,D2,17.5,1.0,100,108.0
129,D3,17.5,1.0,127,108.0
130,D3,17.5,1.0,127,108.0
131,F#3,17.5,1.0,125,108.0
132,B4,18.0,0.5,127,108.0
133,F#3,18.0,1.0,125,108.0
134,D4,18.0,73/250,100,108.0
135,B3,18.0,73/250,100,108.0
136,G4,18.0,73/250,100,108.0
137,F#2,18.0,1.0,125,108.0
138,E2,18.0,1.0,125,108.0
139,E2,18.25,1.0,125,108.0
140,C2,18.5,1.0,100,108.0
141,C3,18.5,1.0,127,108.0
142,C3,18.5,1.0,127,108.0
143,A4,18.5,0.5,127,108.0
144,F#3,18.5,1.0,125,108.0
145,E2,18.75,1.0,125,108.0
146,D4,18.75,0.25,100,108.0
147,B3,18.75,0.25,100,108.0
148,G4,18.75,0.25,100,108.0
149,G4,19.0,0.5,127,108.0
150,F#3,19.0,1.0,125,108.0
151,B3,19.0,73/250,100,108.0
152,D4,19.0,73/250,100,108.0
153,G4,19.0,73/250,100,108.0
154,F#2,19.0,1.0,125,108.0
155,E2,19.0,1.0,125,108.0
156,G#1,19.5,0.5,100,108.0
157,G#2,19.5,0.5,127,108.0
158,G#2,19.5,0.5,127,108.0
159,G4,19.5,0.5,127,108.0
160,E2,19.5,0.5,125,108.0
161,F#3,19.5,0.5,125,108.0
162,G2,20.0,417/1000,100,108.0
163,B3,20.0,417/1000,127,108.0
164,B3,20.0,417/1000,127,108.0
165,G5,20.0,417/1000,100,108.0
166,G4,20.0,417/1000,100,108.0
167,D4,20.0,1.0,100,108.0
168,G4,20.0,0.5,127,108.0
169,E2,20.0,0.5,125,108.0
170,F#3,20.0,1.0,125,108.0
171,F#3,20.0,0.5,125,108.0
172,C2,20.0,1.0,125,108.0
173,D4,20.0,73/250,100,108.0
174,B3,20.0,73/250,100,108.0
175,G4,20.0,73/250,100,108.0
176,F#2,20.0,1.0,125,108.0
177,E2,20.0,1.0,125,108.0
178,D4,20.017,1.0,100,108.0
179,F#2,20.5,417/1000,100,108.0
180,A3,20.5,417/1000,127,108.0
181,A3,20.5,417/1000,127,108.0
182,E4,20.5,0.5,127,108.0
183,F#3,20.5,1.0,125,108.0
184,D4,20.5,0.25,100,108.0
185,G4,20.5,0.25,100,108.0
186,B3,20.5,0.25,100,108.0
187,D4,20.75,0.25,100,108.0
188,B3,20.75,0.25,100,108.0
189,G4,20.75,0.25,100,108.0
190,E2,21.0,0.5,100,108.0
191,G3,21.0,0.5,127,108.0
192,G3,21.0,0.5,127,108.0
193,G5,21.0,1.5,100,108.0
194,G4,21.0,1.5,100,108.0
195,E4,21.0,0.5,100,108.0
196,D4,21.0,1.5,127,108.0
197,F#3,21.0,1.0,125,108.0
198,C2,21.0,1.0,125,108.0
199,B3,21.0,73/250,100,108.0
200,D4,21.0,73/250,100,108.0
201,G4,21.0,73/250,100,108.0
202,F#2,21.0,1.0,125,108.0
203,E2,21.0,1.0,125,108.0
204,E4,21.017,0.5,100,108.0
205,D2,21.5,1.0,100,108.0
206,G3,21.5,1.0,127,108.0
207,G3,21.5,1.0,127,108.0
208,D4,21.5,0.5,100,108.0
209,F#3,21.5,1.0,125,108.0
210,D4,21.5,0.25,100,108.0
211,G4,21.5,0.25,100,108.0
212,B3,21.5,0.25,100,108.0
213,D4,21.517,0.5,100,108.0
214,D4,21.75,0.25,100,108.0
215,B3,21.75,0.25,100,108.0
216,G4,21.75,0.25,100,108.0
217,G4,22.0,1.0,100,108.0
218,F#3,22.0,1.0,125,108.0
219,C2,22.0,1.0,125,108.0
220,D4,22.0,73/250,100,108.0
221,B3,22.0,73/250,100,108.0
222,G4,22.0,73/250,100,108.0
223,F#2,22.0,1.0,125,108.0
224,E2,22.0,1.0,125,108.0
225,G4,22.017,1.0,100,108.0
226,B1,22.5,0.5,100,108.0
227,D5,22.5,0.5,100,108.0
228,D4,22.5,0.5,100,108.0
229,F#3,22.5,1.0,125,108.0
230,D4,22.5,0.25,100,108.0
231,G4,22.5,0.25,100,108.0
232,B3,22.5,0.25,100,108.0
233,D4,22.75,0.25,100,108.0
234,B3,22.75,0.25,100,108.0
235,G4,22.75,0.25,100,108.0
236,G1,23.0,0.5,100,108.0
237,D5,23.0,0.5,100,108.0
238,D4,23.0,0.5,100,108.0
239,A4,23.0,0.5,100,108.0
240,F#3,23.0,1.0,125,108.0
241,C2,23.0,1.0,125,108.0
242,B3,23.0,73/250,100,108.0
243,D4,23.0,73/250,100,108.0
244,G4,23.0,73/250,100,108.0
245,F#2,23.0,1.0,125,108.0
246,E2,23.0,1.0,125,108.0
247,A4,23.017,0.5,100,108.0
248,G2,23.5,0.5,100,108.0
249,G5,23.5,417/1000,100,108.0
250,G4,23.5,417/1000,100,108.0
251,B4,23.5,0.5,100,108.0
252,G4,23.5,0.5,127,108.0
253,F#3,23.5,0.5,125,108.0
254,D4,23.5,0.25,100,108.0
255,G4,23.5,0.25,100,108.0
256,B3,23.5,0.25,100,108.0
257,B4,23.517,483/1000,100,108.0
258,D4,23.75,0.25,100,108.0
259,B3,23.75,0.25,100,108.0
260,G4,23.75,0.25,100,108.0
261,G2,24.0,0.5,100,108.0
262,B3,24.0,417/1000,127,108.0
263,B3,24.0,417/1000,127,108.0
264,B4,24.0,0.5,100,108.0
265,B4,24.0,517/1000,100,108.0
266,G4,24.0,0.5,127,108.0
267,F#3,24.0,1.0,125,108.0
268,F#3,24.0,0.5,125,108.0
269,C2,24.0,1.0,125,108.0
270,D4,24.0,73/250,100,108.0
271,B3,24.0,73/250,100,108.0
272,G4,24.0,73/250,100,108.0
273,F#2,24.0,1.0,125,108.0
274,E2,24.0,1.0,125,108.0
275,F#2,24.5,1.0,100,108.0
276,A3,24.5,417/1000,127,108.0
277,A3,24.5,417/1000,127,108.0
278,G5,24.5,417/1000,100,108.0
279,G4,24.5,417/1000,100,108.0
280,F#4,24.5,1.0,127,108.0
281,F#3,24.5,1.0,125,108.0
282,D4,24.5,0.25,100,108.0
283,G4,24.5,0.25,100,108.0
284,B3,24.5,0.25,100,108.0
285,D4,24.75,0.25,100,108.0
286,B3,24.75,0.25,100,108.0
287,G4,24.75,0.25,100,108.0
288,G3,25.0,0.5,127,108.0
289,G3,25.0,0.5,127,108.0
290,F#3,25.0,1.0,125,108.0
291,C2,25.0,1.0,125,108.0
292,B3,25.0,73/250,100,108.0
293,D4,25.0,73/250,100,108.0
294,G4,25.0,73/250,100,108.0
295,F#2,25.0,1.0,125,108.0
296,E2,25.0,1.0,125,108.0
297,D2,25.5,1.0,100,108.0
298,G3,25.5,1.0,127,108.0
299,G3,25.5,1.0,127,108.0
300,G5,25.5,417/1000,100,108.0
301,G4,25.5,417/1000,100,108.0
302,B4,25.5,1.5,100,108.0
303,G4,25.5,1.0,127,108.0
304,F#3,25.5,1.0,125,108.0
305,D4,25.5,0.25,100,108.0
306,G4,25.5,0.25,100,108.0
307,B3,25.5,0.25,100,108.0
308,D5,25.517,1.5,100,108.0
309,D4,25.75,0.25,100,108.0
310,B3,25.75,0.25,100,108.0
311,G4,25.75,0.25,100,108.0
312,F#3,26.0,1.0,125,108.0
313,C2,26.0,1.0,125,108.0
314,D4,26.0,73/250,100,108.0
315,B3,26.0,73/250,100,108.0
316,G4,26.0,73/250,100,108.0
317,F#2,26.0,1.0,125,108.0
318,E2,26.0,1.0,125,108.0
319,B1,26.5,0.5,100,108.0
320,F#5,26.5,417/1000,100,108.0
321,F#4,26.5,417/1000,100,108.0
322,F#4,26.5,0.5,127,108.0
323,F#3,26.5,1.0,125,108.0
324,D4,26.5,0.25,100,108.0
325,G4,26.5,0.25,100,108.0
326,B3,26.5,0.25,100,108.0
327,D4,26.75,0.25,100,108.0
328,B3,26.75,0.25,100,108.0
329,G4,26.75,0.25,100,108.0
330,G1,27.0,0.5,100,108.0
331,D5,27.0,0.5,100,108.0
332,D4,27.0,0.5,100,108.0
333,D4,27.0,0.5,127,108.0
334,F#3,27.0,1.0,125,108.0
335,C2,27.0,1.0,125,108.0
336,B3,27.0,73/250,100,108.0
337,D4,27.0,73/250,100,108.0
338,G4,27.0,73/250,100,108.0
339,F#2,27.0,1.0,125,108.0
340,E2,27.0,1.0,125,108.0
341,D2,27.5,26/125,100,108.0
342,D5,27.5,0.5,100,108.0
343,D4,27.5,0.5,100,108.0
344,E4,27.5,0.5,127,108.0
345,F#3,27.5,0.5,125,108.0
346,D4,27.5,0.25,100,108.0
347,G4,27.5,0.25,100,108.0
348,B3,27.5,0.25,100,108.0
349,E2,27.75,26/125,100,108.0
350,D4,27.75,0.25,100,108.0
351,B3,27.75,0.25,100,108.0
352,G4,27.75,0.25,100,108.0
353,F#2,28.0,417/1000,100,108.0
354,D5,28.0,333/1000,100,108.0
355,D4,28.0,333/1000,100,108.0
356,A4,28.0,0.5,100,108.0
357,E4,28.0,0.5,127,108.0
358,F#3,28.0,1.0,125,108.0
359,F#3,28.0,0.5,125,108.0
360,C2,28.0,1.0,125,108.0
361,D4,28.0,73/250,100,108.0
362,A3,28.0,73/250,100,108.0
363,F#4,28.0,73/250,100,108.0
364,F#2,28.0,1.0,125,108.0
365,E2,28.0,1.0,125,108.0
366,A4,28.017,0.5,100,108.0
367,E2,28.5,417/1000,100,108.0
368,G4,28.5,0.5,100,108.0
369,F#4,28.5,0.5,127,108.0
370,F#3,28.5,1.0,125,108.0
371,D4,28.5,0.25,100,108.0
372,F#4,28.5,0.25,100,108.0
373,A3,28.5,0.25,100,108.0
374,G4,28.517,0.5,100,108.0
375,D4,28.75,0.25,100,108.0
376,A3,28.75,0.25,100,108.0
377,F#4,28.75,0.25,100,108.0
378,D2,29.0,0.5,100,108.0
379,D5,29.0,1.0,100,108.0
380,D4,29.0,1.0,100,108.0
381,F#4,29.0,0.5,100,108.0
382,D4,29.0,1.0,127,108.0
383,F#3,29.0,1.0,125,108.0
384,C2,29.0,1.0,125,108.0
385,A3,29.0,73/250,100,108.0
386,D4,29.0,73/250,100,108.0
387,F#4,29.0,73/250,100,108.0
388,F#2,29.0,1.0,125,108.0
389,E2,29.0,1.0,125,108.0
390,F#4,29.017,0.5,100,108.0
391,D2,29.5,1.0,100,108.0
392,F#4,29.5,1.0,100,108.0
393,F#3,29.5,1.0,125,108.0
394,D4,29.5,0.25,100,108.0
395,F#4,29.5,0.25,100,108.0
396,A3,29.5,0.25,100,108.0
397,F#4,29.517,1.0,100,108.0
398,D4,29.75,0.25,100,108.0
399,A3,29.75,0.25,100,108.0
400,F#4,29.75,0.25,100,108.0
401,F#3,30.0,1.0,125,108.0
402,C2,30.0,1.0,125,108.0
403,D4,30.0,73/250,100,108.0
404,A3,30.0,73/250,100,108.0
405,F#4,30.0,73/250,100,108.0
406,F#2,30.0,1.0,125,108.0
407,E2,30.0,1.0,125,108.0
408,A1,30.5,0.5,100,108.0
409,D5,30.5,417/1000,100,108.0
410,D4,30.5,417/1000,100,108.0
411,G4,30.5,1.0,100,108.0
412,F#3,30.5,1.0,125,108.0
413,D4,30.5,0.25,100,108.0
414,F#4,30.5,0.25,100,108.0
415,A3,30.5,0.25,100,108.0
416,G4,30.517,1.0,100,108.0
417,D4,30.75,0.25,100,108.0
418,A3,30.75,0.25,100,108.0
419,F#4,30.75,0.25,100,108.0
420,F#1,31.0,0.5,100,108.0
421,D5,31.0,417/1000,100,108.0
422,D4,31.0,417/1000,100,108.0
423,F#3,31.0,1.0,125,108.0
424,C2,31.0,1.0,125,108.0
425,A3,31.0,73/250,100,108.0
426,D4,31.0,73/250,100,108.0
427,F#4,31.0,73/250,100,108.0
428,F#2,31.0,1.0,125,108.0
429,E2,31.0,1.0,125,108.0
430,F#2,31.5,0.5,100,108.0
431,F#5,31.5,0.5,100,108.0
432,F#4,31.5,0.5,100,108.0
433,A4,31.5,0.5,100,108.0
434,F#4,31.5,0.5,127,108.0
435,F#3,31.5,0.5,125,108.0
436,D4,31.5,0.25,100,108.0
437,F#4,31.5,0.25,100,108.0
438,A3,31.5,0.25,100,108.0
439,A4,31.517,483/1000,100,108.0
440,D4,31.75,0.25,100,108.0
441,A3,31.75,0.25,100,108.0
442,F#4,31.75,0.25,100,108.0
443,F#2,32.0,0.5,100,108.0
444,F#5,32.0,0.5,100,108.0
445,F#4,32.0,0.5,100,108.0
446,A4,32.0,0.5,100,108.0
447,A4,32.0,517/1000,100,108.0
448,F#4,32.0,0.5,127,108.0
449,F#3,32.0,1.0,125,108.0
450,F#3,32.0,0.5,125,108.0
451,C2,32.0,1.0,125,108.0
452,D4,32.0,73/250,100,108.0
453,A3,32.0,73/250,100,108.0
454,F#4,32.0,73/250,100,108.0
455,F#2,32.0,1.0,125,108.0
456,E2,32.0,1.0,125,108.0
457,E2,32.5,1.0,100,108.0
458,E5,32.5,1.0,100,108.0
459,E4,32.5,1.0,100,108.0
460,E4,32.5,1.0,127,108.0
461,F#3,32.5,1.0,125,108.0
462,D4,32.5,0.25,100,108.0
463,F#4,32.5,0.25,100,108.0
464,A3,32.5,0.25,100,108.0
465,D4,32.75,0.25,100,108.0
466,A3,32.75,0.25,100,108.0
467,F#4,32.75,0.25,100,108.0
468,F#3,33.0,1.0,125,108.0
469,C2,33.0,1.0,125,108.0
470,A3,33.0,73/250,100,108.0
471,D4,33.0,73/250,100,108.0
472,F#4,33.0,73/250,100,108.0
473,F#2,33.0,1.0,125,108.0
474,E2,33.0,1.0,125,108.0
475,D2,33.5,1.0,100,108.0
476,D5,33.5,1.0,100,108.0
477,D4,33.5,1.0,100,108.0
478,A4,33.5,1.5,100,108.0
479,D4,33.5,1.0,127,108.0
480,F#3,33.5,1.0,125,108.0
481,D4,33.5,0.25,100,108.0
482,F#4,33.5,0.25,100,108.0
483,A3,33.5,0.25,100,108.0
484,D5,33.517,1.5,100,108.0
485,D4,33.75,0.25,100,108.0
486,A3,33.75,0.25,100,108.0
487,F#4,33.75,0.25,100,108.0
488,F#3,34.0,1.0,125,108.0
489,C2,34.0,1.0,125,108.0
490,D4,34.0,73/250,100,108.0
491,A3,34.0,73/250,100,108.0
492,F#4,34.0,73/250,100,108.0
493,F#2,34.0,1.0,125,108.0
494,E2,34.0,1.0,125,108.0
495,A1,34.5,0.5,100,108.0
496,E5,34.5,417/1000,100,108.0
497,E4,34.5,417/1000,100,108.0
498,E4,34.5,0.5,127,108.0
499,F#3,34.5,1.0,125,108.0
500,D4,34.5,0.25,100,108.0
501,F#4,34.5,0.25,100,108.0
502,A3,34.5,0.25,100,108.0
503,D4,34.75,0.25,100,108.0
504,A3,34.75,0.25,100,108.0
505,F#4,34.75,0.25,100,108.0
506,F#1,35.0,1.0,100,108.0
507,F#5,35.0,1.0,100,108.0
508,F#4,35.0,1.0,100,108.0
509,F#4,35.0,0.5,127,108.0
510,F#3,35.0,1.0,125,108.0
511,C2,35.0,1.0,125,108.0
512,A3,35.0,73/250,100,108.0
513,D4,35.0,73/250,100,108.0
514,F#4,35.0,73/250,100,108.0
515,F#2,35.0,1.0,125,108.0
516,E2,35.0,1.0,125,108.0
517,A4,35.5,0.5,127,108.0
518,F#3,35.5,0.5,125,108.0
519,D4,35.5,0.25,100,108.0
520,F#4,35.5,0.25,100,108.0
521,A3,35.5,0.25,100,108.0
522,D4,35.75,0.25,100,108.0
523,A3,35.75,0.25,100,108.0
524,F#4,35.75,0.25,100,108.0
525,B1,36.0,0.5,100,108.0
526,E5,36.0,1.0,100,108.0
527,G4,36.0,1.0,100,108.0
528,E4,36.0,1.0,100,108.0
529,A4,36.0,0.5,127,108.0
530,F#3,36.0,1.0,125,108.0
531,F#3,36.0,0.5,125,108.0
532,C2,36.0,1.0,125,108.0
533,C4,36.0,73/250,100,108.0
534,G3,36.0,73/250,100,108.0
535,E4,36.0,73/250,100,108.0
536,F#2,36.0,1.0,125,108.0
537,E2,36.0,1.0,125,108.0
538,E4,36.017,1.0,100,108.0
539,A1,36.5,0.5,100,108.0
540,B4,36.5,0.5,127,108.0
541,F#3,36.5,1.0,125,108.0
542,C4,36.5,0.25,100,108.0
543,E4,36.5,0.25,100,108.0
544,G3,36.5,0.25,100,108.0
545,C4,36.75,0.25,100,108.0
546,G3,36.75,0.25,100,108.0
547,E4,36.75,0.25,100,108.0
548,G1,37.0,0.5,100,108.0
549,E5,37.0,1.0,100,108.0
550,G4,37.0,1.0,100,108.0
551,G4,37.0,0.5,100,108.0
552,G4,37.0,1.0,127,108.0
553,F#3,37.0,1.0,125,108.0
554,C2,37.0,1.0,125,108.0
555,G3,37.0,73/250,100,108.0
556,C4,37.0,73/250,100,108.0
557,E4,37.0,73/250,100,108.0
558,F#2,37.0,1.0,125,108.0
559,E2,37.0,1.0,125,108.0
560,G4,37.017,0.5,100,108.0
561,G1,37.5,1.0,100,108.0
562,E4,37.5,0.5,100,108.0
563,F#3,37.5,1.0,125,108.0
564,C4,37.5,0.25,100,108.0
565,E4,37.5,0.25,100,108.0
566,G3,37.5,0.25,100,108.0
567,E4,37.517,0.5,100,108.0
568,C4,37.75,0.25,100,108.0
569,G3,37.75,0.25,100,108.0
570,E4,37.75,0.25,100,108.0
571,G4,38.0,1.0,100,108.0
572,F#3,38.0,1.0,125,108.0
573,C2,38.0,1.0,125,108.0
574,C4,38.0,73/250,100,108.0
575,G3,38.0,73/250,100,108.0
576,E4,38.0,73/250,100,108.0
577,F#2,38.0,1.0,125,108.0
578,E2,38.0,1.0,125,108.0
579,G4,38.017,1.0,100,108.0
580,E1,38.5,0.5,100,108.0
581,E5,38.5,417/1000,100,108.0
582,E4,38.5,417/1000,100,108.0
583,E4,38.5,0.5,127,108.0
584,F#3,38.5,1.0,125,108.0
585,C4,38.5,0.25,100,108.0
586,E4,38.5,0.25,100,108.0
587,G3,38.5,0.25,100,108.0
588,C4,38.75,0.25,100,108.0
589,G3,38.75,0.25,100,108.0
590,E4,38.75,0.25,100,108.0
591,G1,39.0,0.5,100,108.0
592,G5,39.0,417/1000,100,108.0
593,G4,39.0,417/1000,100,108.0
594,A4,39.0,0.5,100,108.0
595,G4,39.0,0.5,127,108.0
596,F#3,39.0,1.0,125,108.0
597,C2,39.0,1.0,125,108.0
598,G3,39.0,73/250,100,108.0
599,C4,39.0,73/250,100,108.0
600,E4,39.0,73/250,100,108.0
601,F#2,39.0,1.0,125,108.0
602,E2,39.0,1.0,125,108.0
603,A4,39.017,0.5,100,108.0
604,B1,39.5,0.5,100,108.0
605,B5,39.5,0.5,100,108.0
606,B4,39.5,0.5,100,108.0
607,B4,39.5,0.5,100,108.0
608,B4,39.5,0.5,127,108.0
609,F#3,39.5,0.5,125,108.0
610,C4,39.5,0.25,100,108.0
611,E4,39.5,0.25,100,108.0
612,G3,39.5,0.25,100,108.0
613,B4,39.517,483/1000,100,108.0
614,C4,39.75,0.25,100,108.0
615,G3,39.75,0.25,100,108.0
616,E4,39.75,0.25,100,108.0
617,B1,40.0,0.5,100,108.0
618,B4,40.0,0.5,100,108.0
619,B4,40.0,517/1000,100,108.0
620,B4,40.0,0.5,127,108.0
621,F#3,40.0,1.0,125,108.0
622,F#3,40.0,0.5,125,108.0
623,C2,40.0,1.0,125,108.0
624,C4,40.0,73/250,100,108.0
625,G3,40.0,73/250,100,108.0
626,E4,40.0,73/250,100,108.0
627,F#2,40.0,1.0,125,108.0
628,E2,40.0,1.0,125,108.0
629,A1,40.5,1.0,100,108.0
630,A5,40.5,1.0,100,108.0
631,A4,40.5,1.0,100,108.0
632,A4,40.5,1.0,127,108.0
633,F#3,40.5,1.0,125,108.0
634,C4,40.5,0.25,100,108.0
635,E4,40.5,0.25,100,108.0
636,G3,40.5,0.25,100,108.0
637,C4,40.75,0.25,100,108.0
638,G3,40.75,0.25,100,108.0
639,E4,40.75,0.25,100,108.0
640,F#3,41.0,1.0,125,108.0
641,C2,41.0,1.0,125,108.0
642,G3,41.0,73/250,100,108.0
643,C4,41.0,73/250,100,108.0
644,E4,41.0,73/250,100,108.0
645,F#2,41.0,1.0,125,108.0
646,E2,41.0,1.0,125,108.0
647,G1,41.5,1.0,100,108.0
648,G5,41.5,1.0,100,108.0
649,C5,41.5,1.0,100,108.0
650,B4,41.5,0.25,127,108.0
651,F#3,41.5,1.0,125,108.0
652,C4,41.5,0.25,100,108.0
653,E4,41.5,0.25,100,108.0
654,G3,41.5,0.25,100,108.0
655,A4,41.75,0.25,127,108.0
656,C4,41.75,0.25,100,108.0
657,G3,41.75,0.25,100,108.0
658,E4,41.75,0.25,100,108.0
659,G4,42.0,1.0,127,108.0
660,F#3,42.0,1.0,125,108.0
661,C2,42.0,1.0,125,108.0
662,C4,42.0,73/250,100,108.0
663,G3,42.0,73/250,100,108.0
664,E4,42.0,73/250,100,108.0
665,F#2,42.0,1.0,125,108.0
666,E2,42.0,1.0,125,108.0
667,E1,42.5,0.5,100,108.0
668,A5,42.5,417/1000,100,108.0
669,A4,42.5,417/1000,100,108.0
670,F#3,42.5,1.0,125,108.0
671,C4,42.5,0.25,100,108.0
672,E4,42.5,0.25,100,108.0
673,G3,42.5,0.25,100,108.0
674,C4,42.75,0.25,100,108.0
675,G3,42.75,0.25,100,108.0
676,E4,42.75,0.25,100,108.0
677,G1,43.0,0.5,100,108.0
678,G5,43.0,1.0,100,108.0
679,G4,43.0,1.0,100,108.0
680,G4,43.0,229/500,127,108.0
681,F#3,43.0,1.0,125,108.0
682,C2,43.0,1.0,125,108.0
683,G3,43.0,73/250,100,108.0
684,C4,43.0,73/250,100,108.0
685,E4,43.0,73/250,100,108.0
686,F#2,43.0,1.0,125,108.0
687,E2,43.0,1.0,125,108.0
688,A1,43.5,0.5,100,108.0
689,G4,43.5,0.5,127,108.0
690,F#3,43.5,0.5,125,108.0
691,C4,43.5,0.25,100,108.0
692,E4,43.5,0.25,100,108.0
693,G3,43.5,0.25,100,108.0
694,C4,43.75,0.25,100,108.0
695,G3,43.75,0.25,100,108.0
696,E4,43.75,0.25,100,108.0
697,B1,44.0,667/1000,100,108.0
698,B5,44.0,417/1000,100,108.0
699,G4,44.0,417/1000,100,108.0
700,B4,44.0,0.5,100,108.0
701,D5,44.0,0.5,127,108.0
702,F#3,44.0,1.0,125,108.0
703,F#3,44.0,0.5,125,108.0
704,C2,44.0,1.0,125,108.0
705,D4,44.0,73/250,100,108.0
706,B3,44.0,73/250,100,108.0
707,G4,44.0,73/250,100,108.0
708,F#2,44.0,1.0,125,108.0
709,E2,44.0,1.0,125,108.0
710,G4,44.017,0.5,100,108.0
711,B4,44.5,0.5,100,108.0
712,D5,44.5,0.5,127,108.0
713,F#3,44.5,1.0,125,108.0
714,D4,44.5,0.25,100,108.0
715,G4,44.5,0.25,100,108.0
716,B3,44.5,0.25,100,108.0
717,G4,44.517,0.5,100,108.0
718,D4,44.75,0.25,100,108.0
719,B3,44.75,0.25,100,108.0
720,G4,44.75,0.25,100,108.0
721,B1,45.0,1.0,100,108.0
722,B5,45.0,1.5,100,108.0
723,G4,45.0,1.5,100,108.0
724,B4,45.0,1.0,100,108.0
725,B4,45.0,1.0,127,108.0
726,F#3,45.0,1.0,125,108.0
727,C2,45.0,1.0,125,108.0
728,B3,45.0,73/250,100,108.0
729,D4,45.0,73/250,100,108.0
730,G4,45.0,73/250,100,108.0
731,F#2,45.0,1.0,125,108.0
732,E2,45.0,1.0,125,108.0
733,G4,45.017,1.0,100,108.0
734,F#3,45.5,1.0,125,108.0
735,D4,45.5,0.25,100,108.0
736,G4,45.5,0.25,100,108.0
737,B3,45.5,0.25,100,108.0
738,D4,45.75,0.25,100,108.0
739,B3,45.75,0.25,100,108.0
740,G4,45.75,0.25,100,108.0
741,F#3,46.0,1.0,125,108.0
742,C2,46.0,1.0,125,108.0
743,D4,46.0,73/250,100,108.0
744,B3,46.0,73/250,100,108.0
745,G4,46.0,73/250,100,108.0
746,F#2,46.0,1.0,125,108.0
747,E2,46.0,1.0,125,108.0
748,B1,46.5,0.5,100,108.0
749,B5,46.5,417/1000,100,108.0
750,G4,46.5,417/1000,100,108.0
751,G4,46.5,0.5,127,108.0
752,F#3,46.5,1.0,125,108.0
753,D4,46.5,0.25,100,108.0
754,G4,46.5,0.25,100,108.0
755,B3,46.5,0.25,100,108.0
756,D4,46.75,0.25,100,108.0
757,B3,46.75,0.25,100,108.0
758,G4,46.75,0.25,100,108.0
759,B1,47.0,0.5,100,108.0
760,B5,47.0,417/1000,100,108.0
761,G4,47.0,417/1000,100,108.0
762,G4,47.0,0.5,127,108.0
763,F#3,47.0,1.0,125,108.0
764,C2,47.0,1.0,125,108.0
765,B3,47.0,73/250,100,108.0
766,D4,47.0,73/250,100,108.0
767,G4,47.0,73/250,100,108.0
768,F#2,47.0,1.0,125,108.0
769,E2,47.0,1.0,125,108.0
770,C2,47.5,0.5,100,108.0
771,A5,47.5,0.5,100,108.0
772,A4,47.5,0.5,100,108.0
773,E4,47.5,0.5,100,108.0
774,C5,47.5,0.5,127,108.0
775,F#3,47.5,0.5,125,108.0
776,E4,47.5,0.25,100,108.0
777,G4,47.5,0.25,100,108.0
778,C4,47.5,0.25,100,108.0
779,G4,47.517,483/1000,100,108.0
780,E4,47.75,0.25,100,108.0
781,C4,47.75,0.25,100,108.0
782,G4,47.75,0.25,100,108.0
783,C2,48.0,0.5,100,108.0
784,A5,48.0,0.5,100,108.0
785,A4,48.0,0.5,100,108.0
786,E4,48.0,0.5,100,108.0
787,G4,48.0,517/1000,100,108.0
788,C5,48.0,0.5,127,108.0
789,F#3,48.0,1.0,125,108.0
790,F#3,48.0,0.5,125,108.0
791,C2,48.0,1.0,125,108.0
792,E4,48.0,73/250,100,108.0
793,C4,48.0,73/250,100,108.0
794,G4,48.0,73/250,100,108.0
795,F#2,48.0,1.0,125,108.0
796,E2,48.0,1.0,125,108.0
797,B1,48.5,1.0,100,108.0
798,G5,48.5,1.0,100,108.0
799,G4,48.5,1.0,100,108.0
800,D4,48.5,1.0,100,108.0
801,B4,48.5,1.0,127,108.0
802,F#3,48.5,1.0,125,108.0
803,D4,48.5,0.25,100,108.0
804,G4,48.5,0.25,100,108.0
805,B3,48.5,0.25,100,108.0
806,G4,48.517,1.0,100,108.0
807,D4,48.75,0.25,100,108.0
808,B3,48.75,0.25,100,108.0
809,G4,48.75,0.25,100,108.0
810,F#3,49.0,1.0,125,108.0
811,C2,49.0,1.0,125,108.0
812,B3,49.0,73/250,100,108.0
813,D4,49.0,73/250,100,108.0
814,G4,49.0,73/250,100,108.0
815,F#2,49.0,1.0,125,108.0
816,E2,49.0,1.0,125,108.0
817,A1,49.5,1.0,100,108.0
818,G5,49.5,1.0,100,108.0
819,G4,49.5,1.0,100,108.0
820,E4,49.5,1.0,100,108.0
821,A4,49.5,0.5,127,108.0
822,F#3,49.5,1.0,125,108.0
823,E4,49.5,0.25,100,108.0
824,G4,49.5,0.25,100,108.0
825,C4,49.5,0.25,100,108.0
826,G4,49.517,1.0,100,108.0
827,E4,49.75,0.25,100,108.0
828,C4,49.75,0.25,100,108.0
829,G4,49.75,0.25,100,108.0
830,G4,50.0,1.0,127,108.0
831,F#3,50.0,1.0,125,108.0
832,C2,50.0,1.0,125,108.0
833,E4,50.0,73/250,100,108.0
834,C4,50.0,73/250,100,108.0
835,G4,50.0,73/250,100,108.0
836,F#2,50.0,1.0,125,108.0
837,E2,50.0,1.0,125,108.0
838,G1,50.5,0.5,100,108.0
839,A5,50.5,417/1000,100,108.0
840,A4,50.5,417/1000,100,108.0
841,F#3,50.5,1.0,125,108.0
842,E4,50.5,0.25,100,108.0
843,G4,50.5,0.25,100,108.0
844,C4,50.5,0.25,100,108.0
845,E4,50.75,0.25,100,108.0
846,C4,50.75,0.25,100,108.0
847,G4,50.75,0.25,100,108.0
848,A1,51.0,0.5,100,108.0
849,G5,51.0,1.0,100,108.0
850,G4,51.0,1.0,100,108.0
851,F#3,51.0,1.0,125,108.0
852,C2,51.0,1.0,125,108.0
853,C4,51.0,73/250,100,108.0
854,E4,51.0,73/250,100,108.0
855,G4,51.0,73/250,100,108.0
856,F#2,51.0,1.0,125,108.0
857,E2,51.0,1.0,125,108.0
858,B-1,51.5,0.5,100,108.0
859,G4,51.5,0.5,127,108.0
860,F#3,51.5,0.5,125,108.0
861,E4,51.5,0.25,100,108.0
862,G4,51.5,0.25,100,108.0
863,C4,51.5,0.25,100,108.0
864,E4,51.75,0.25,100,108.0
865,C4,51.75,0.25,100,108.0
866,G4,51.75,0.25,100,108.0
867,B1,52.0,667/1000,100,108.0
868,B5,52.0,417/1000,100,108.0
869,G4,52.0,417/1000,100,108.0
870,B4,52.0,1.0,100,108.0
871,D5,52.0,1.0,127,108.0
872,F#3,52.0,1.0,125,108.0
873,F#3,52.0,0.5,125,108.0
874,C2,52.0,1.0,125,108.0
875,D4,52.0,73/250,100,108.0
876,B3,52.0,73/250,100,108.0
877,G4,52.0,73/250,100,108.0
878,F#2,52.0,1.0,125,108.0
879,E2,52.0,1.0,125,108.0
880,G4,52.017,1.0,100,108.0
881,F#3,52.5,1.0,125,108.0
882,D4,52.5,0.25,100,108.0
883,G4,52.5,0.25,100,108.0
884,B3,52.5,0.25,100,108.0
885,D4,52.75,0.25,100,108.0
886,B3,52.75,0.25,100,108.0
887,G4,52.75,0.25,100,108.0
888,B1,53.0,1.0,100,108.0
889,B5,53.0,1.5,100,108.0
890,G4,53.0,1.5,100,108.0
891,B4,53.0,1.0,100,108.0
892,B4,53.0,1.0,127,108.0
893,F#3,53.0,1.0,125,108.0
894,C2,53.0,1.0,125,108.0
895,B3,53.0,73/250,100,108.0
896,D4,53.0,73/250,100,108.0
897,G4,53.0,73/250,100,108.0
898,F#2,53.0,1.0,125,108.0
899,E2,53.0,1.0,125,108.0
900,G4,53.017,1.0,100,108.0
901,F#3,53.5,1.0,125,108.0
902,D4,53.5,0.25,100,108.0
903,G4,53.5,0.25,100,108.0
904,B3,53.5,0.25,100,108.0
905,D4,53.75,0.25,100,108.0
906,B3,53.75,0.25,100,108.0
907,G4,53.75,0.25,100,108.0
908,F#3,54.0,1.0,125,108.0
909,C2,54.0,1.0,125,108.0
910,D4,54.0,73/250,100,108.0
911,B3,54.0,73/250,100,108.0
912,G4,54.0,73/250,100,108.0
913,F#2,54.0,1.0,125,108.0
914,E2,54.0,1.0,125,108.0
915,C2,54.5,0.5,100,108.0
916,B5,54.5,417/1000,100,108.0
917,B4,54.5,417/1000,100,108.0
918,G4,54.5,0.5,127,108.0
919,F#3,54.5,1.0,125,108.0
920,D4,54.5,0.25,100,108.0
921,G4,54.5,0.25,100,108.0
922,B3,54.5,0.25,100,108.0
923,D4,54.75,0.25,100,108.0
924,B3,54.75,0.25,100,108.0
925,G4,54.75,0.25,100,108.0
926,C#2,55.0,0.5,100,108.0
927,B5,55.0,417/1000,100,108.0
928,B4,55.0,417/1000,100,108.0
929,F#3,55.0,1.0,125,108.0
930,C2,55.0,1.0,125,108.0
931,B3,55.0,73/250,100,108.0
932,D4,55.0,73/250,100,108.0
933,G4,55.0,73/250,100,108.0
934,F#2,55.0,1.0,125,108.0
935,E2,55.0,1.0,125,108.0
936,D2,55.5,0.5,100,108.0
937,A5,55.5,0.5,100,108.0
938,D4,55.5,0.5,100,108.0
939,E4,55.5,0.5,100,108.0
940,C5,55.5,0.5,127,108.0
941,F#3,55.5,0.5,125,108.0
942,E4,55.5,0.25,100,108.0
943,G4,55.5,0.25,100,108.0
944,C4,55.5,0.25,100,108.0
945,G4,55.517,483/1000,100,108.0
946,E4,55.75,0.25,100,108.0
947,C4,55.75,0.25,100,108.0
948,G4,55.75,0.25,100,108.0
949,D2,56.0,0.5,100,108.0
950,A5,56.0,0.5,100,108.0
951,D4,56.0,0.5,100,108.0
952,E4,56.0,0.5,100,108.0
953,G4,56.0,517/1000,100,108.0
954,C5,56.0,0.5,127,108.0
955,F#3,56.0,1.0,125,108.0
956,F#3,56.0,0.5,125,108.0
957,C2,56.0,1.0,125,108.0
958,E4,56.0,73/250,100,108.0
959,C4,56.0,73/250,100,108.0
960,G4,56.0,73/250,100,108.0
961,F#2,56.0,1.0,125,108.0
962,E2,56.0,1.0,125,108.0
963,D2,56.5,1.0,100,108.0
964,G5,56.5,1.0,100,108.0
965,E4,56.5,1.0,100,108.0
966,D4,56.5,1.0,100,108.0
967,B4,56.5,1.0,127,108.0
968,F#3,56.5,1.0,125,108.0
969,E4,56.5,0.25,100,108.0
970,G4,56.5,0.25,100,108.0
971,C4,56.5,0.25,100,108.0
972,G4,56.517,1.0,100,108.0
973,E4,56.75,0.25,100,108.0
974,C4,56.75,0.25,100,108.0
975,G4,56.75,0.25,100,108.0
976,F#3,57.0,1.0,125,108.0
977,C2,57.0,1.0,125,108.0
978,C4,57.0,73/250,100,108.0
979,E4,57.0,73/250,100,108.0
980,G4,57.0,73/250,100,108.0
981,F#2,57.0,1.0,125,108.0
982,E2,57.0,1.0,125,108.0
983,D2,57.5,1.0,100,108.0
984,G5,57.5,1.0,100,108.0
985,D4,57.5,1.0,100,108.0
986,G4,57.5,1.0,100,108.0
987,A4,57.5,0.5,127,108.0
988,F#3,57.5,1.0,125,108.0
989,E4,57.5,0.25,100,108.0
990,G4,57.5,0.25,100,108.0
991,C4,57.5,0.25,100,108.0
992,G4,57.517,1.0,100,108.0
993,E2,57.75,1.0,125,108.0
994,E4,57.75,0.25,100,108.0
995,C4,57.75,0.25,100,108.0
996,G4,57.75,0.25,100,108.0
997,G4,58.0,1.0,127,108.0
998,E2,58.0,1.0,125,108.0
999,F#3,58.0,1.0,125,108.0
1000,C2,58.0,1.0,125,108.0
1001,E4,58.0,73/250,100,108.0
1002,C4,58.0,73/250,100,108.0
1003,G4,58.0,73/250,100,108.0
1004,E2,58.25,1.0,125,108.0
1005,D2,58.5,417/1000,100,108.0
1006,A5,58.5,417/1000,100,108.0
1007,E4,58.5,417/1000,100,108.0
1008,E2,58.5,1.0,125,108.0
1009,F#3,58.5,1.0,125,108.0
1010,E4,58.5,0.25,100,108.0
1011,G4,58.5,0.25,100,108.0
1012,C4,58.5,0.25,100,108.0
1013,E2,58.75,1.0,125,108.0
1014,E4,58.75,0.25,100,108.0
1015,C4,58.75,0.25,100,108.0
1016,G4,58.75,0.25,100,108.0
1017,D2,59.0,0.5,100,108.0
1018,G5,59.0,1.0,100,108.0
1019,D4,59.0,1.0,100,108.0
1020,E2,59.0,1.0,125,108.0
1021,F#3,59.0,1.0,125,108.0
1022,C2,59.0,1.0,125,108.0
1023,C4,59.0,73/250,100,108.0
1024,E4,59.0,73/250,100,108.0
1025,G4,59.0,73/250,100,108.0
1026,E2,59.25,0.75,125,108.0
1027,E2,59.5,26/125,100,108.0
1028,D4,59.5,229/500,127,108.0
1029,E2,59.5,0.5,125,108.0
1030,F#3,59.5,0.5,125,108.0
1031,E4,59.5,0.25,100,108.0
1032,G4,59.5,0.25,100,108.0
1033,C4,59.5,0.25,100,108.0
1034,F#2,59.75,26/125,100,108.0
1035,E2,59.75,0.25,125,108.0
1036,E4,59.75,0.25,100,108.0
1037,C4,59.75,0.25,100,108.0
1038,G4,59.75,0.25,100,108.0
1039,G2,60.0,417/1000,100,108.0
1040,B3,60.0,417/1000,127,108.0
1041,B3,60.0,417/1000,127,108.0
1042,G5,60.0,417/1000,100,108.0
1043,G4,60.0,417/1000,100,108.0
1044,D4,60.0,1.0,100,108.0
1045,D4,60.0,0.5,127,108.0
1046,E2,60.0,0.25,125,108.0
1047,E2,60.0,0.5,125,108.0
1048,E2,60.0,0.75,125,108.0
1049,F#3,60.0,1.0,125,108.0
1050,F#3,60.0,0.5,125,108.0
1051,C2,60.0,1.0,125,108.0
1052,D4,60.0,73/250,100,108.0
1053,B3,60.0,73/250,100,108.0
1054,G4,60.0,73/250,100,108.0
1055,F#2,60.0,1.0,125,108.0
1056,E2,60.0,1.0,125,108.0
1057,D4,60.017,1.0,100,108.0
1058,F#2,60.5,417/1000,100,108.0
1059,A3,60.5,417/1000,127,108.0
1060,A3,60.5,417/1000,127,108.0
1061,F#3,60.5,1.0,125,108.0
1062,D4,60.5,0.25,100,108.0
1063,G4,60.5,0.25,100,108.0
1064,B3,60.5,0.25,100,108.0
1065,D4,60.75,0.25,100,108.0
1066,B3,60.75,0.25,100,108.0
1067,G4,60.75,0.25,100,108.0
1068,E2,61.0,0.5,100,108.0
1069,G3,61.0,417/1000,127,108.0
1070,G3,61.0,417/1000,127,108.0
1071,G5,61.0,1.5,100,108.0
1072,G4,61.0,1.5,100,108.0
1073,E4,61.0,0.5,100,108.0
1074,D4,61.0,1.0,127,108.0
1075,F#3,61.0,1.0,125,108.0
1076,C2,61.0,1.0,125,108.0
1077,B3,61.0,73/250,100,108.0
1078,D4,61.0,73/250,100,108.0
1079,G4,61.0,73/250,100,108.0
1080,F#2,61.0,1.0,125,108.0
1081,E2,61.0,1.0,125,108.0
1082,E4,61.017,0.5,100,108.0
1083,D2,61.5,1.0,100,108.0
1084,G3,61.5,1.0,127,108.0
1085,G3,61.5,1.0,127,108.0
1086,D4,61.5,0.5,100,108.0
1087,F#3,61.5,1.0,125,108.0
1088,D4,61.5,0.25,100,108.0
1089,G4,61.5,0.25,100,108.0
1090,B3,61.5,0.25,100,108.0
1091,D4,61.517,0.5,100,108.0
1092,D4,61.75,0.25,100,108.0
1093,B3,61.75,0.25,100,108.0
1094,G4,61.75,0.25,100,108.0
1095,G4,62.0,1.0,100,108.0
1096,F#3,62.0,1.0,125,108.0
1097,C2,62.0,1.0,125,108.0
1098,D4,62.0,73/250,100,108.0
1099,B3,62.0,73/250,100,108.0
1100,G4,62.0,73/250,100,108.0
1101,F#2,62.0,1.0,125,108.0
1102,E2,62.0,1.0,125,108.0
1103,G4,62.017,1.0,100,108.0
1104,B1,62.5,0.5,100,108.0
1105,D5,62.5,0.5,100,108.0
1106,D4,62.5,0.5,100,108.0
1107,D4,62.5,229/500,127,108.0
1108,F#3,62.5,1.0,125,108.0
1109,D4,62.5,0.25,100,108.0
1110,G4,62.5,0.25,100,108.0
1111,B3,62.5,0.25,100,108.0
1112,D4,62.75,0.25,100,108.0
1113,B3,62.75,0.25,100,108.0
1114,G4,62.75,0.25,100,108.0
1115,G1,63.0,0.5,100,108.0
1116,D5,63.0,0.5,100,108.0
1117,D4,63.0,0.5,100,108.0
1118,A4,63.0,0.5,100,108.0
1119,D4,63.0,0.5,127,108.0
1120,F#3,63.0,1.0,125,108.0
1121,C2,63.0,1.0,125,108.0
1122,B3,63.0,73/250,100,108.0
1123,D4,63.0,73/250,100,108.0
1124,G4,63.0,73/250,100,108.0
1125,F#2,63.0,1.0,125,108.0
1126,E2,63.0,1.0,125,108.0
1127,A4,63.017,0.5,100,108.0
1128,G2,63.5,0.5,100,108.0
1129,G5,63.5,417/1000,100,108.0
1130,G4,63.5,417/1000,100,108.0
1131,B4,63.5,0.5,100,108.0
1132,G4,63.5,0.5,127,108.0
1133,F#3,63.5,0.5,125,108.0
1134,D4,63.5,0.25,100,108.0
1135,G4,63.5,0.25,100,108.0
1136,B3,63.5,0.25,100,108.0
1137,B4,63.517,483/1000,100,108.0
1138,D4,63.75,0.25,100,108.0
1139,B3,63.75,0.25,100,108.0
1140,G4,63.75,0.25,100,108.0
1141,G2,64.0,0.5,100,108.0
1142,B3,64.0,417/1000,127,108.0
1143,B3,64.0,417/1000,127,108.0
1144,B4,64.0,0.5,100,108.0
1145,B4,64.0,517/1000,100,108.0
1146,G4,64.0,0.5,127,108.0
1147,F#3,64.0,1.0,125,108.0
1148,F#3,64.0,0.5,125,108.0
1149,C2,64.0,1.0,125,108.0
1150,D4,64.0,73/250,100,108.0
1151,B3,64.0,73/250,100,108.0
1152,G4,64.0,73/250,100,108.0
1153,F#2,64.0,1.0,125,108.0
1154,E2,64.0,1.0,125,108.0
1155,F#2,64.5,1.0,100,108.0
1156,A3,64.5,417/1000,127,108.0
1157,A3,64.5,417/1000,127,108.0
1158,G5,64.5,417/1000,100,108.0
1159,G4,64.5,417/1000,100,108.0
1160,F#4,64.5,0.5,127,108.0
1161,F#3,64.5,1.0,125,108.0
1162,D4,64.5,0.25,100,108.0
1163,G4,64.5,0.25,100,108.0
1164,B3,64.5,0.25,100,108.0
1165,D4,64.75,0.25,100,108.0
1166,B3,64.75,0.25,100,108.0
1167,G4,64.75,0.25,100,108.0
1168,G3,65.0,417/1000,127,108.0
1169,G3,65.0,417/1000,127,108.0
1170,F#4,65.0,0.5,127,108.0
1171,F#3,65.0,1.0,125,108.0
1172,C2,65.0,1.0,125,108.0
1173,B3,65.0,73/250,100,108.0
1174,D4,65.0,73/250,100,108.0
1175,G4,65.0,73/250,100,108.0
1176,F#2,65.0,1.0,125,108.0
1177,E2,65.0,1.0,125,108.0
1178,D2,65.5,1.0,100,108.0
1179,G3,65.5,1.0,127,108.0
1180,G3,65.5,1.0,127,108.0
1181,G5,65.5,417/1000,100,108.0
1182,G4,65.5,417/1000,100,108.0
1183,B4,65.5,1.5,100,108.0
1184,D4,65.5,1.0,127,108.0
1185,F#3,65.5,1.0,125,108.0
1186,D4,65.5,0.25,100,108.0
1187,G4,65.5,0.25,100,108.0
1188,B3,65.5,0.25,100,108.0
1189,D5,65.517,1.5,100,108.0
1190,D4,65.75,0.25,100,108.0
1191,B3,65.75,0.25,100,108.0
1192,G4,65.75,0.25,100,108.0
1193,G4,66.0,0.5,127,108.0
1194,F#3,66.0,1.0,125,108.0
1195,C2,66.0,1.0,125,108.0
1196,D4,66.0,73/250,100,108.0
1197,B3,66.0,73/250,100,108.0
1198,G4,66.0,73/250,100,108.0
1199,F#2,66.0,1.0,125,108.0
1200,E2,66.0,1.0,125,108.0
1201,B1,66.5,0.5,100,108.0
1202,F#5,66.5,417/1000,100,108.0
1203,F#4,66.5,417/1000,100,108.0
1204,F#4,66.5,0.5,127,108.0
1205,F#3,66.5,1.0,125,108.0
1206,D4,66.5,0.25,100,108.0
1207,G4,66.5,0.25,100,108.0
1208,B3,66.5,0.25,100,108.0
1209,D4,66.75,0.25,100,108.0
1210,B3,66.75,0.25,100,108.0
1211,G4,66.75,0.25,100,108.0
1212,G1,67.0,0.5,100,108.0
1213,D5,67.0,0.5,100,108.0
1214,D4,67.0,0.5,100,108.0
1215,E4,67.0,0.5,127,108.0
1216,F#3,67.0,1.0,125,108.0
1217,C2,67.0,1.0,125,108.0
1218,B3,67.0,73/250,100,108.0
1219,D4,67.0,73/250,100,108.0
1220,G4,67.0,73/250,100,108.0
1221,F#2,67.0,1.0,125,108.0
1222,E2,67.0,1.0,125,108.0
1223,D2,67.5,26/125,100,108.0
1224,D5,67.5,0.5,100,108.0
1225,D4,67.5,0.5,100,108.0
1226,D4,67.5,0.5,127,108.0
1227,F#3,67.5,0.5,125,108.0
1228,D4,67.5,0.25,100,108.0
1229,G4,67.5,0.25,100,108.0
1230,B3,67.5,0.25,100,108.0
1231,E2,67.75,26/125,100,108.0
1232,D4,67.75,0.25,100,108.0
1233,B3,67.75,0.25,100,108.0
1234,G4,67.75,0.25,100,108.0
1235,F#2,68.0,417/1000,100,108.0
1236,D5,68.0,333/1000,100,108.0
1237,D4,68.0,333/1000,100,108.0
1238,A4,68.0,0.5,100,108.0
1239,E4,68.0,0.5,127,108.0
1240,F#3,68.0,1.0,125,108.0
1241,F#3,68.0,0.5,125,108.0
1242,C2,68.0,1.0,125,108.0
1243,D4,68.0,73/250,100,108.0
1244,A3,68.0,73/250,100,108.0
1245,F#4,68.0,73/250,100,108.0
1246,F#2,68.0,1.0,125,108.0
1247,E2,68.0,1.0,125,108.0
1248,A4,68.017,0.5,100,108.0
1249,E2,68.5,417/1000,100,108.0
1250,G4,68.5,0.5,100,108.0
1251,D4,68.5,0.5,127,108.0
1252,F#3,68.5,1.0,125,108.0
1253,D4,68.5,0.25,100,108.0
1254,F#4,68.5,0.25,100,108.0
1255,A3,68.5,0.25,100,108.0
1256,G4,68.517,0.5,100,108.0
1257,D4,68.75,0.25,100,108.0
1258,A3,68.75,0.25,100,108.0
1259,F#4,68.75,0.25,100,108.0
1260,D2,69.0,0.5,100,108.0
1261,D5,69.0,1.0,100,108.0
1262,D4,69.0,1.0,100,108.0
1263,F#4,69.0,0.5,100,108.0
1264,F#4,69.0,0.25,127,108.0
1265,F#3,69.0,1.0,125,108.0
1266,C2,69.0,1.0,125,108.0
1267,A3,69.0,73/250,100,108.0
1268,D4,69.0,73/250,100,108.0
1269,F#4,69.0,73/250,100,108.0
1270,F#2,69.0,1.0,125,108.0
1271,E2,69.0,1.0,125,108.0
1272,F#4,69.017,0.5,100,108.0
1273,E4,69.25,0.25,127,108.0
1274,D2,69.5,1.0,100,108.0
1275,F#4,69.5,1.0,100,108.0
1276,D4,69.5,833/1000,127,108.0
1277,F#3,69.5,1.0,125,108.0
1278,D4,69.5,0.25,100,108.0
1279,F#4,69.5,0.25,100,108.0
1280,A3,69.5,0.25,100,108.0
1281,F#4,69.517,1.0,100,108.0
1282,D4,69.75,0.25,100,108.0
1283,A3,69.75,0.25,100,108.0
1284,F#4,69.75,0.25,100,108.0
1285,F#3,70.0,1.0,125,108.0
1286,C2,70.0,1.0,125,108.0
1287,D4,70.0,73/250,100,108.0
1288,A3,70.0,73/250,100,108.0
1289,F#4,70.0,73/250,100,108.0
1290,F#2,70.0,1.0,125,108.0
1291,E2,70.0,1.0,125,108.0
1292,A1,70.5,0.5,100,108.0
1293,D5,70.5,417/1000,100,108.0
1294,D4,70.5,417/1000,100,108.0
1295,G4,70.5,1.0,100,108.0
1296,F#3,70.5,1.0,125,108.0
1297,D4,70.5,0.25,100,108.0
1298,F#4,70.5,0.25,100,108.0
1299,A3,70.5,0.25,100,108.0
1300,G4,70.517,1.0,100,108.0
1301,D4,70.75,0.25,100,108.0
1302,A3,70.75,0.25,100,108.0
1303,F#4,70.75,0.25,100,108.0
1304,F#1,71.0,0.5,100,108.0
1305,D5,71.0,417/1000,100,108.0
1306,D4,71.0,417/1000,100,108.0
1307,D4,71.0,0.5,127,108.0
1308,F#3,71.0,1.0,125,108.0
1309,C2,71.0,1.0,125,108.0
1310,A3,71.0,73/250,100,108.0
1311,D4,71.0,73/250,100,108.0
1312,F#4,71.0,73/250,100,108.0
1313,F#2,71.0,1.0,125,108.0
1314,E2,71.0,1.0,125,108.0
1315,F#2,71.5,0.5,100,108.0
1316,F#5,71.5,0.5,100,108.0
1317,F#4,71.5,0.5,100,108.0
1318,A4,71.5,0.5,100,108.0
1319,F#4,71.5,0.5,127,108.0
1320,F#3,71.5,0.5,125,108.0
1321,D4,71.5,0.25,100,108.0
1322,F#4,71.5,0.25,100,108.0
1323,A3,71.5,0.25,100,108.0
1324,A4,71.517,483/1000,100,108.0
1325,D4,71.75,0.25,100,108.0
1326,A3,71.75,0.25,100,108.0
1327,F#4,71.75,0.25,100,108.0
1328,F#2,72.0,0.5,100,108.0
1329,F#5,72.0,0.5,100,108.0
1330,F#4,72.0,0.5,100,108.0
1331,A4,72.0,0.5,100,108.0
1332,A4,72.0,517/1000,100,108.0
1333,F#4,72.0,0.5,127,108.0
1334,F#3,72.0,1.0,125,108.0
1335,F#3,72.0,0.5,125,108.0
1336,C2,72.0,1.0,125,108.0
1337,D4,72.0,73/250,100,108.0
1338,A3,72.0,73/250,100,108.0
1339,F#4,72.0,73/250,100,108.0
1340,F#2,72.0,1.0,125,108.0
1341,E2,72.0,1.0,125,108.0
1342,E2,72.5,1.0,100,108.0
1343,E5,72.5,1.0,100,108.0
1344,E4,72.5,1.0,100,108.0
1345,E4,72.5,0.5,127,108.0
1346,F#3,72.5,1.0,125,108.0
1347,D4,72.5,0.25,100,108.0
1348,F#4,72.5,0.25,100,108.0
1349,A3,72.5,0.25,100,108.0
1350,D4,72.75,0.25,100,108.0
1351,A3,72.75,0.25,100,108.0
1352,F#4,72.75,0.25,100,108.0
1353,E4,73.0,0.5,127,108.0
1354,F#3,73.0,1.0,125,108.0
1355,C2,73.0,1.0,125,108.0
1356,A3,73.0,73/250,100,108.0
1357,D4,73.0,73/250,100,108.0
1358,F#4,73.0,73/250,100,108.0
1359,F#2,73.0,1.0,125,108.0
1360,E2,73.0,1.0,125,108.0
1361,D2,73.5,1.0,100,108.0
1362,D5,73.5,1.0,100,108.0
1363,D4,73.5,1.0,100,108.0
1364,A4,73.5,1.5,100,108.0
1365,D4,73.5,1.0,127,108.0
1366,F#3,73.5,1.0,125,108.0
1367,D4,73.5,0.25,100,108.0
1368,F#4,73.5,0.25,100,108.0
1369,A3,73.5,0.25,100,108.0
1370,D5,73.517,1.5,100,108.0
1371,D4,73.75,0.25,100,108.0
1372,A3,73.75,0.25,100,108.0
1373,F#4,73.75,0.25,100,108.0
1374,F#3,74.0,1.0,125,108.0
1375,C2,74.0,1.0,125,108.0
1376,D4,74.0,73/250,100,108.0
1377,A3,74.0,73/250,100,108.0
1378,F#4,74.0,73/250,100,108.0
1379,F#2,74.0,1.0,125,108.0
1380,E2,74.0,1.0,125,108.0
1381,A1,74.5,0.5,100,108.0
1382,E5,74.5,417/1000,100,108.0
1383,E4,74.5,417/1000,100,108.0
1384,E4,74.5,0.5,127,108.0
1385,F#3,74.5,1.0,125,108.0
1386,D4,74.5,0.25,100,108.0
1387,F#4,74.5,0.25,100,108.0
1388,A3,74.5,0.25,100,108.0
1389,D4,74.75,0.25,100,108.0
1390,A3,74.75,0.25,100,108.0
1391,F#4,74.75,0.25,100,108.0
1392,F#1,75.0,1.0,100,108.0
1393,F#5,75.0,1.0,100,108.0
1394,F#4,75.0,1.0,100,108.0
1395,F#4,75.0,0.5,127,108.0
1396,F#3,75.0,1.0,125,108.0
1397,C2,75.0,1.0,125,108.0
1398,A3,75.0,73/250,100,108.0
1399,D4,75.0,73/250,100,108.0
1400,F#4,75.0,73/250,100,108.0
1401,F#2,75.0,1.0,125,108.0
1402,E2,75.0,1.0,125,108.0
1403,F#3,75.5,0.5,125,108.0
1404,D4,75.5,0.25,100,108.0
1405,F#4,75.5,0.25,100,108.0
1406,A3,75.5,0.25,100,108.0
1407,D4,75.75,0.25,100,108.0
1408,A3,75.75,0.25,100,108.0
1409,F#4,75.75,0.25,100,108.0
1410,B1,76.0,0.5,100,108.0
1411,E5,76.0,1.0,100,108.0
1412,E4,76.0,1.0,100,108.0
1413,E4,76.0,1.0,100,108.0
1414,B4,76.0,1.0,127,108.0
1415,F#3,76.0,1.0,125,108.0
1416,F#3,76.0,0.5,125,108.0
1417,C2,76.0,1.0,125,108.0
1418,C4,76.0,73/250,100,108.0
1419,G3,76.0,73/250,100,108.0
1420,E4,76.0,73/250,100,108.0
1421,F#2,76.0,1.0,125,108.0
1422,E2,76.0,1.0,125,108.0
1423,E4,76.017,1.0,100,108.0
1424,A1,76.5,0.5,100,108.0
1425,F#3,76.5,1.0,125,108.0
1426,C4,76.5,0.25,100,108.0
1427,E4,76.5,0.25,100,108.0
1428,G3,76.5,0.25,100,108.0
1429,C4,76.75,0.25,100,108.0
1430,G3,76.75,0.25,100,108.0
1431,E4,76.75,0.25,100,108.0
1432,G1,77.0,0.5,100,108.0
1433,E5,77.0,1.0,100,108.0
1434,E4,77.0,1.0,100,108.0
1435,G4,77.0,0.5,100,108.0
1436,A4,77.0,0.5,127,108.0
1437,F#3,77.0,1.0,125,108.0
1438,C2,77.0,1.0,125,108.0
1439,G3,77.0,73/250,100,108.0
1440,C4,77.0,73/250,100,108.0
1441,E4,77.0,73/250,100,108.0
1442,F#2,77.0,1.0,125,108.0
1443,E2,77.0,1.0,125,108.0
1444,G4,77.017,0.5,100,108.0
1445,G1,77.5,1.0,100,108.0
1446,E4,77.5,0.5,100,108.0
1447,G4,77.5,1.0,127,108.0
1448,F#3,77.5,1.0,125,108.0
1449,C4,77.5,0.25,100,108.0
1450,E4,77.5,0.25,100,108.0
1451,G3,77.5,0.25,100,108.0
1452,E4,77.517,0.5,100,108.0
1453,C4,77.75,0.25,100,108.0
1454,G3,77.75,0.25,100,108.0
1455,E4,77.75,0.25,100,108.0
1456,G4,78.0,1.0,100,108.0
1457,F#3,78.0,1.0,125,108.0
1458,C2,78.0,1.0,125,108.0
1459,C4,78.0,73/250,100,108.0
1460,G3,78.0,73/250,100,108.0
1461,E4,78.0,73/250,100,108.0
1462,F#2,78.0,1.0,125,108.0
1463,E2,78.0,1.0,125,108.0
1464,G4,78.017,1.0,100,108.0
1465,E1,78.5,0.5,100,108.0
1466,E5,78.5,417/1000,100,108.0
1467,E4,78.5,417/1000,100,108.0
1468,E4,78.5,0.5,127,108.0
1469,F#3,78.5,1.0,125,108.0
1470,C4,78.5,0.25,100,108.0
1471,E4,78.5,0.25,100,108.0
1472,G3,78.5,0.25,100,108.0
1473,C4,78.75,0.25,100,108.0
1474,G3,78.75,0.25,100,108.0
1475,E4,78.75,0.25,100,108.0
1476,G1,79.0,0.5,100,108.0
1477,G5,79.0,417/1000,100,108.0
1478,G4,79.0,417/1000,100,108.0
1479,A4,79.0,0.5,100,108.0
1480,G4,79.0,0.5,127,108.0
1481,F#3,79.0,1.0,125,108.0
1482,C2,79.0,1.0,125,108.0
1483,G3,79.0,73/250,100,108.0
1484,C4,79.0,73/250,100,108.0
1485,E4,79.0,73/250,100,108.0
1486,F#2,79.0,1.0,125,108.0
1487,E2,79.0,1.0,125,108.0
1488,A4,79.017,0.5,100,108.0
1489,B1,79.5,0.5,100,108.0
1490,B5,79.5,0.5,100,108.0
1491,B4,79.5,0.5,100,108.0
1492,B4,79.5,0.5,100,108.0
1493,B4,79.5,0.5,127,108.0
1494,F#3,79.5,0.5,125,108.0
1495,C4,79.5,0.25,100,108.0
1496,E4,79.5,0.25,100,108.0
1497,G3,79.5,0.25,100,108.0
1498,B4,79.517,483/1000,100,108.0
1499,C4,79.75,0.25,100,108.0
1500,G3,79.75,0.25,100,108.0
1501,E4,79.75,0.25,100,108.0
1502,B1,80.0,0.5,100,108.0
1503,B4,80.0,0.5,100,108.0
1504,B4,80.0,517/1000,100,108.0
1505,B4,80.0,0.5,127,108.0
1506,F#3,80.0,1.0,125,108.0
1507,F#3,80.0,0.5,125,108.0
1508,C2,80.0,1.0,125,108.0
1509,C4,80.0,73/250,100,108.0
1510,G3,80.0,73/250,100,108.0
1511,E4,80.0,73/250,100,108.0
1512,F#2,80.0,1.0,125,108.0
1513,E2,80.0,1.0,125,108.0
1514,A1,80.5,1.0,100,108.0
1515,A5,80.5,1.0,100,108.0
1516,A4,80.5,1.0,100,108.0
1517,A4,80.5,1.0,127,108.0
1518,F#3,80.5,1.0,125,108.0
1519,C4,80.5,0.25,100,108.0
1520,E4,80.5,0.25,100,108.0
1521,G3,80.5,0.25,100,108.0
1522,C4,80.75,0.25,100,108.0
1523,G3,80.75,0.25,100,108.0
1524,E4,80.75,0.25,100,108.0
1525,F#3,81.0,1.0,125,108.0
1526,C2,81.0,1.0,125,108.0
1527,G3,81.0,73/250,100,108.0
1528,C4,81.0,73/250,100,108.0
1529,E4,81.0,73/250,100,108.0
1530,F#2,81.0,1.0,125,108.0
1531,E2,81.0,1.0,125,108.0
1532,G1,81.5,1.0,100,108.0
1533,G5,81.5,1.0,100,108.0
1534,G4,81.5,1.0,100,108.0
1535,B4,81.5,0.25,127,108.0
1536,F#3,81.5,1.0,125,108.0
1537,C4,81.5,0.25,100,108.0
1538,E4,81.5,0.25,100,108.0
1539,G3,81.5,0.25,100,108.0
1540,A4,81.75,0.25,127,108.0
1541,C4,81.75,0.25,100,108.0
1542,G3,81.75,0.25,100,108.0
1543,E4,81.75,0.25,100,108.0
1544,G4,82.0,1.0,127,108.0
1545,F#3,82.0,1.0,125,108.0
1546,C2,82.0,1.0,125,108.0
1547,C4,82.0,73/250,100,108.0
1548,G3,82.0,73/250,100,108.0
1549,E4,82.0,73/250,100,108.0
1550,F#2,82.0,1.0,125,108.0
1551,E2,82.0,1.0,125,108.0
1552,E1,82.5,0.5,100,108.0
1553,A5,82.5,417/1000,100,108.0
1554,A4,82.5,417/1000,100,108.0
1555,F#3,82.5,1.0,125,108.0
1556,C4,82.5,0.25,100,108.0
1557,E4,82.5,0.25,100,108.0
1558,G3,82.5,0.25,100,108.0
1559,C4,82.75,0.25,100,108.0
1560,G3,82.75,0.25,100,108.0
1561,E4,82.75,0.25,100,108.0
1562,G1,83.0,0.5,100,108.0
1563,G5,83.0,1.0,100,108.0
1564,G4,83.0,1.0,100,108.0
1565,F#3,83.0,1.0,125,108.0
1566,C2,83.0,1.0,125,108.0
1567,G3,83.0,73/250,100,108.0
1568,C4,83.0,73/250,100,108.0
1569,E4,83.0,73/250,100,108.0
1570,F#2,83.0,1.0,125,108.0
1571,E2,83.0,1.0,125,108.0
1572,A1,83.5,0.5,100,108.0
1573,G4,83.5,0.5,127,108.0
1574,F#3,83.5,0.5,125,108.0
1575,C4,83.5,0.25,100,108.0
1576,E4,83.5,0.25,100,108.0
1577,G3,83.5,0.25,100,108.0
1578,C4,83.75,0.25,100,108.0
1579,G3,83.75,0.25,100,108.0
1580,E4,83.75,0.25,100,108.0
1581,B1,84.0,667/1000,100,108.0
1582,B5,84.0,417/1000,100,108.0
1583,G4,84.0,417/1000,100,108.0
1584,B4,84.0,0.5,100,108.0
1585,B4,84.0,0.5,127,108.0
1586,F#3,84.0,1.0,125,108.0
1587,F#3,84.0,0.5,125,108.0
1588,C2,84.0,1.0,125,108.0
1589,D4,84.0,73/250,100,108.0
1590,B3,84.0,73/250,100,108.0
1591,G4,84.0,73/250,100,108.0
1592,F#2,84.0,1.0,125,108.0
1593,E2,84.0,1.0,125,108.0
1594,G4,84.017,0.5,100,108.0
1595,B4,84.5,0.5,100,108.0
1596,F#3,84.5,1.0,125,108.0
1597,D4,84.5,0.25,100,108.0
1598,G4,84.5,0.25,100,108.0
1599,B3,84.5,0.25,100,108.0
1600,G4,84.517,0.5,100,108.0
1601,D4,84.75,0.25,100,108.0
1602,B3,84.75,0.25,100,108.0
1603,G4,84.75,0.25,100,108.0
1604,B1,85.0,1.0,100,108.0
1605,B5,85.0,1.5,100,108.0
1606,G4,85.0,1.5,100,108.0
1607,B4,85.0,1.0,100,108.0
1608,B4,85.0,1.0,127,108.0
1609,F#3,85.0,1.0,125,108.0
1610,C2,85.0,1.0,125,108.0
1611,B3,85.0,73/250,100,108.0
1612,D4,85.0,73/250,100,108.0
1613,G4,85.0,73/250,100,108.0
1614,F#2,85.0,1.0,125,108.0
1615,E2,85.0,1.0,125,108.0
1616,G4,85.017,1.0,100,108.0
1617,F#3,85.5,1.0,125,108.0
1618,D4,85.5,0.25,100,108.0
1619,G4,85.5,0.25,100,108.0
1620,B3,85.5,0.25,100,108.0
1621,D4,85.75,0.25,100,108.0
1622,B3,85.75,0.25,100,108.0
1623,G4,85.75,0.25,100,108.0
1624,F#3,86.0,1.0,125,108.0
1625,C2,86.0,1.0,125,108.0
1626,D4,86.0,73/250,100,108.0
1627,B3,86.0,73/250,100,108.0
1628,G4,86.0,73/250,100,108.0
1629,F#2,86.0,1.0,125,108.0
1630,E2,86.0,1.0,125,108.0
1631,B1,86.5,0.5,100,108.0
1632,B5,86.5,417/1000,100,108.0
1633,G4,86.5,417/1000,100,108.0
1634,G4,86.5,0.5,127,108.0
1635,F#3,86.5,1.0,125,108.0
1636,D4,86.5,0.25,100,108.0
1637,G4,86.5,0.25,100,108.0
1638,B3,86.5,0.25,100,108.0
1639,D4,86.75,0.25,100,108.0
1640,B3,86.75,0.25,100,108.0
1641,G4,86.75,0.25,100,108.0
1642,B1,87.0,0.5,100,108.0
1643,B5,87.0,417/1000,100,108.0
1644,G4,87.0,417/1000,100,108.0
1645,G4,87.0,0.5,127,108.0
1646,F#3,87.0,1.0,125,108.0
1647,C2,87.0,1.0,125,108.0
1648,B3,87.0,73/250,100,108.0
1649,D4,87.0,73/250,100,108.0
1650,G4,87.0,73/250,100,108.0
1651,F#2,87.0,1.0,125,108.0
1652,E2,87.0,1.0,125,108.0
1653,C2,87.5,0.5,100,108.0
1654,A5,87.5,0.5,100,108.0
1655,A4,87.5,0.5,100,108.0
1656,E4,87.5,0.5,100,108.0
1657,C5,87.5,0.5,127,108.0
1658,F#3,87.5,0.5,125,108.0
1659,E4,87.5,0.25,100,108.0
1660,G4,87.5,0.25,100,108.0
1661,C4,87.5,0.25,100,108.0
1662,G4,87.517,483/1000,100,108.0
1663,E4,87.75,0.25,100,108.0
1664,C4,87.75,0.25,100,108.0
1665,G4,87.75,0.25,100,108.0
1666,C2,88.0,0.5,100,108.0
1667,A5,88.0,0.5,100,108.0
1668,A4,88.0,0.5,100,108.0
1669,E4,88.0,0.5,100,108.0
1670,G4,88.0,517/1000,100,108.0
1671,C5,88.0,0.5,127,108.0
1672,F#3,88.0,1.0,125,108.0
1673,F#3,88.0,0.5,125,108.0
1674,C2,88.0,1.0,125,108.0
1675,E4,88.0,73/250,100,108.0
1676,C4,88.0,73/250,100,108.0
1677,G4,88.0,73/250,100,108.0
1678,F#2,88.0,1.0,125,108.0
1679,E2,88.0,1.0,125,108.0
1680,B1,88.5,1.0,100,108.0
1681,G5,88.5,1.0,100,108.0
1682,G4,88.5,1.0,100,108.0
1683,D4,88.5,1.0,100,108.0
1684,B4,88.5,1.0,127,108.0
1685,F#3,88.5,1.0,125,108.0
1686,D4,88.5,0.25,100,108.0
1687,G4,88.5,0.25,100,108.0
1688,B3,88.5,0.25,100,108.0
1689,G4,88.517,1.0,100,108.0
1690,D4,88.75,0.25,100,108.0
1691,B3,88.75,0.25,100,108.0
1692,G4,88.75,0.25,100,108.0
1693,F#3,89.0,1.0,125,108.0
1694,C2,89.0,1.0,125,108.0
1695,B3,89.0,73/250,100,108.0
1696,D4,89.0,73/250,100,108.0
1697,G4,89.0,73/250,100,108.0
1698,F#2,89.0,1.0,125,108.0
1699,E2,89.0,1.0,125,108.0
1700,A1,89.5,1.0,100,108.0
1701,G5,89.5,1.0,100,108.0
1702,G4,89.5,1.0,100,108.0
1703,E4,89.5,1.0,100,108.0
1704,A4,89.5,0.5,127,108.0
1705,F#3,89.5,1.0,125,108.0
1706,E4,89.5,0.25,100,108.0
1707,G4,89.5,0.25,100,108.0
1708,C4,89.5,0.25,100,108.0
1709,G4,89.517,1.0,100,108.0
1710,E4,89.75,0.25,100,108.0
1711,C4,89.75,0.25,100,108.0
1712,G4,89.75,0.25,100,108.0
1713,G4,90.0,1.0,127,108.0
1714,F#3,90.0,1.0,125,108.0
1715,C2,90.0,1.0,125,108.0
1716,E4,90.0,73/250,100,108.0
1717,C4,90.0,73/250,100,108.0
1718,G4,90.0,73/250,100,108.0
1719,F#2,90.0,1.0,125,108.0
1720,E2,90.0,1.0,125,108.0
1721,G1,90.5,0.5,100,108.0
1722,A5,90.5,417/1000,100,108.0
1723,A4,90.5,417/1000,100,108.0
1724,F#3,90.5,1.0,125,108.0
1725,E4,90.5,0.25,100,108.0
1726,G4,90.5,0.25,100,108.0
1727,C4,90.5,0.25,100,108.0
1728,E4,90.75,0.25,100,108.0
1729,C4,90.75,0.25,100,108.0
1730,G4,90.75,0.25,100,108.0
1731,A1,91.0,0.5,100,108.0
1732,G5,91.0,1.0,100,108.0
1733,G4,91.0,1.0,100,108.0
1734,F#3,91.0,1.0,125,108.0
1735,C2,91.0,1.0,125,108.0
1736,C4,91.0,73/250,100,108.0
1737,E4,91.0,73/250,100,108.0
1738,G4,91.0,73/250,100,108.0
1739,F#2,91.0,1.0,125,108.0
1740,E2,91.0,1.0,125,108.0
1741,B-1,91.5,0.5,100,108.0
1742,F#3,91.5,0.5,125,108.0
1743,E4,91.5,0.25,100,108.0
1744,G4,91.5,0.25,100,108.0
1745,C4,91.5,0.25,100,108.0
1746,E4,91.75,0.25,100,108.0
1747,C4,91.75,0.25,100,108.0
1748,G4,91.75,0.25,100,108.0
1749,B1,92.0,667/1000,100,108.0
1750,B5,92.0,417/1000,100,108.0
1751,G4,92.0,417/1000,100,108.0
1752,B4,92.0,1.0,100,108.0
1753,B4,92.0,0.5,127,108.0
1754,F#3,92.0,1.0,125,108.0
1755,F#3,92.0,0.5,125,108.0
1756,C2,92.0,1.0,125,108.0
1757,D4,92.0,73/250,100,108.0
1758,B3,92.0,73/250,100,108.0
1759,G4,92.0,73/250,100,108.0
1760,F#2,92.0,1.0,125,108.0
1761,E2,92.0,1.0,125,108.0
1762,G4,92.017,1.0,100,108.0
1763,F#3,92.5,1.0,125,108.0
1764,D4,92.5,0.25,100,108.0
1765,G4,92.5,0.25,100,108.0
1766,B3,92.5,0.25,100,108.0
1767,D4,92.75,0.25,100,108.0
1768,B3,92.75,0.25,100,108.0
1769,G4,92.75,0.25,100,108.0
1770,B1,93.0,1.0,100,108.0
1771,B5,93.0,1.5,100,108.0
1772,G4,93.0,1.5,100,108.0
1773,B4,93.0,1.0,100,108.0
1774,B4,93.0,1.0,127,108.0
1775,F#3,93.0,1.0,125,108.0
1776,C2,93.0,1.0,125,108.0
1777,B3,93.0,73/250,100,108.0
1778,D4,93.0,73/250,100,108.0
1779,G4,93.0,73/250,100,108.0
1780,F#2,93.0,1.0,125,108.0
1781,E2,93.0,1.0,125,108.0
1782,G4,93.017,1.0,100,108.0
1783,F#3,93.5,1.0,125,108.0
1784,D4,93.5,0.25,100,108.0
1785,G4,93.5,0.25,100,108.0
1786,B3,93.5,0.25,100,108.0
1787,D4,93.75,0.25,100,108.0
1788,B3,93.75,0.25,100,108.0
1789,G4,93.75,0.25,100,108.0
1790,F#3,94.0,1.0,125,108.0
1791,C2,94.0,1.0,125,108.0
1792,D4,94.0,73/250,100,108.0
1793,B3,94.0,73/250,100,108.0
1794,G4,94.0,73/250,100,108.0
1795,F#2,94.0,1.0,125,108.0
1796,E2,94.0,1.0,125,108.0
1797,C2,94.5,0.5,100,108.0
1798,B5,94.5,417/1000,100,108.0
1799,B4,94.5,417/1000,100,108.0
1800,G4,94.5,0.5,127,108.0
1801,F#3,94.5,1.0,125,108.0
1802,D4,94.5,0.25,100,108.0
1803,G4,94.5,0.25,100,108.0
1804,B3,94.5,0.25,100,108.0
1805,D4,94.75,0.25,100,108.0
1806,B3,94.75,0.25,100,108.0
1807,G4,94.75,0.25,100,108.0
1808,C#2,95.0,0.5,100,108.0
1809,B5,95.0,417/1000,100,108.0
1810,B4,95.0,417/1000,100,108.0
1811,F#3,95.0,1.0,125,108.0
1812,C2,95.0,1.0,125,108.0
1813,B3,95.0,73/250,100,108.0
1814,D4,95.0,73/250,100,108.0
1815,G4,95.0,73/250,100,108.0
1816,F#2,95.0,1.0,125,108.0
1817,E2,95.0,1.0,125,108.0
1818,D2,95.5,0.5,100,108.0
1819,A5,95.5,0.5,100,108.0
1820,D4,95.5,0.5,100,108.0
1821,E4,95.5,0.5,100,108.0
1822,C5,95.5,0.5,127,108.0
1823,F#3,95.5,0.5,125,108.0
1824,E4,95.5,0.25,100,108.0
1825,G4,95.5,0.25,100,108.0
1826,C4,95.5,0.25,100,108.0
1827,G4,95.517,483/1000,100,108.0
1828,E4,95.75,0.25,100,108.0
1829,C4,95.75,0.25,100,108.0
1830,G4,95.75,0.25,100,108.0
1831,D2,96.0,0.5,100,108.0
1832,A5,96.0,0.5,100,108.0
1833,D4,96.0,0.5,100,108.0
1834,E4,96.0,0.5,100,108.0
1835,G4,96.0,517/1000,100,108.0
1836,C5,96.0,0.5,127,108.0
1837,F#3,96.0,1.0,125,108.0
1838,F#3,96.0,0.5,125,108.0
1839,C2,96.0,1.0,125,108.0
1840,E4,96.0,73/250,100,108.0
1841,C4,96.0,73/250,100,108.0
1842,G4,96.0,73/250,100,108.0
1843,F#2,96.0,1.0,125,108.0
1844,E2,96.0,1.0,125,108.0
1845,D2,96.5,1.0,100,108.0
1846,G5,96.5,1.0,100,108.0
1847,E4,96.5,1.0,100,108.0
1848,D4,96.5,1.0,100,108.0
1849,B4,96.5,1.0,127,108.0
1850,F#3,96.5,1.0,125,108.0
1851,E4,96.5,0.25,100,108.0
1852,G4,96.5,0.25,100,108.0
1853,C4,96.5,0.25,100,108.0
1854,G4,96.517,1.0,100,108.0
1855,E4,96.75,0.25,100,108.0
1856,C4,96.75,0.25,100,108.0
1857,G4,96.75,0.25,100,108.0
1858,F#3,97.0,1.0,125,108.0
1859,C2,97.0,1.0,125,108.0
1860,C4,97.0,73/250,100,108.0
1861,E4,97.0,73/250,100,108.0
1862,G4,97.0,73/250,100,108.0
1863,F#2,97.0,1.0,125,108.0
1864,E2,97.0,1.0,125,108.0
1865,D2,97.5,1.0,100,108.0
1866,G5,97.5,1.0,100,108.0
1867,D4,97.5,1.0,100,108.0
1868,G4,97.5,1.0,100,108.0
1869,A4,97.5,0.5,127,108.0
1870,F#3,97.5,1.0,125,108.0
1871,E4,97.5,0.25,100,108.0
1872,G4,97.5,0.25,100,108.0
1873,C4,97.5,0.25,100,108.0
1874,G4,97.517,1.0,100,108.0
1875,E2,97.75,1.0,125,108.0
1876,E4,97.75,0.25,100,108.0
1877,C4,97.75,0.25,100,108.0
1878,G4,97.75,0.25,100,108.0
1879,G4,98.0,1.0,127,108.0
1880,E2,98.0,1.0,125,108.0
1881,F#3,98.0,1.0,125,108.0
1882,C2,98.0,1.0,125,108.0
1883,E4,98.0,73/250,100,108.0
1884,C4,98.0,73/250,100,108.0
1885,G4,98.0,73/250,100,108.0
1886,E2,98.25,1.0,125,108.0
1887,D2,98.5,417/1000,100,108.0
1888,A5,98.5,417/1000,100,108.0
1889,E4,98.5,417/1000,100,108.0
1890,E2,98.5,1.0,125,108.0
1891,F#3,98.5,1.0,125,108.0
1892,E4,98.5,0.25,100,108.0
1893,G4,98.5,0.25,100,108.0
1894,C4,98.5,0.25,100,108.0
1895,E2,98.75,1.0,125,108.0
1896,E4,98.75,0.25,100,108.0
1897,C4,98.75,0.25,100,108.0
1898,G4,98.75,0.25,100,108.0
1899,D2,99.0,0.5,100,108.0
1900,G5,99.0,1.0,100,108.0
1901,D4,99.0,1.0,100,108.0
1902,E2,99.0,1.0,125,108.0
1903,F#3,99.0,1.0,125,108.0
1904,C2,99.0,1.0,125,108.0
1905,C4,99.0,73/250,100,108.0
1906,E4,99.0,73/250,100,108.0
1907,G4,99.0,73/250,100,108.0
1908,E2,99.25,0.75,125,108.0
1909,E2,99.5,26/125,100,108.0
1910,E2,99.5,0.5,125,108.0
1911,F#3,99.5,0.5,125,108.0
1912,E4,99.5,0.25,100,108.0
1913,G4,99.5,0.25,100,108.0
1914,C4,99.5,0.25,100,108.0
1915,F#2,99.75,26/125,100,108.0
1916,E2,99.75,0.25,125,108.0
1917,E4,99.75,0.25,100,108.0
1918,C4,99.75,0.25,100,108.0
1919,G4,99.75,0.25,100,108.0
1920,G2,100.0,417/1000,100,108.0
1921,B3,100.0,417/1000,127,108.0
1922,B3,100.0,417/1000,127,108.0
1923,D6,100.0,417/1000,100,108.0
1924,D5,100.0,417/1000,100,108.0
1925,D4,100.0,1.0,100,108.0
1926,B4,100.0,0.5,127,108.0
1927,E2,100.0,0.25,125,108.0
1928,E2,100.0,0.5,125,108.0
1929,E2,100.0,0.75,125,108.0
1930,F#3,100.0,1.0,125,108.0
1931,F#3,100.0,0.5,125,108.0
1932,C2,100.0,1.0,125,108.0
1933,D4,100.0,73/250,100,108.0
1934,B3,100.0,73/250,100,108.0
1935,G4,100.0,73/250,100,108.0
1936,F#2,100.0,1.0,125,108.0
1937,E2,100.0,1.0,125,108.0
1938,D4,100.017,1.0,100,108.0
1939,F#2,100.5,417/1000,100,108.0
1940,A3,100.5,417/1000,127,108.0
1941,A3,100.5,417/1000,127,108.0
1942,F#3,100.5,1.0,125,108.0
1943,D4,100.5,0.25,100,108.0
1944,G4,100.5,0.25,100,108.0
1945,B3,100.5,0.25,100,108.0
1946,D4,100.75,0.25,100,108.0
1947,B3,100.75,0.25,100,108.0
1948,G4,100.75,0.25,100,108.0
1949,E2,101.0,0.5,100,108.0
1950,G3,101.0,417/1000,127,108.0
1951,G3,101.0,417/1000,127,108.0
1952,D6,101.0,1.5,100,108.0
1953,D5,101.0,1.5,100,108.0
1954,E4,101.0,0.5,100,108.0
1955,B4,101.0,1.0,127,108.0
1956,F#3,101.0,1.0,125,108.0
1957,C2,101.0,1.0,125,108.0
1958,B3,101.0,73/250,100,108.0
1959,D4,101.0,73/250,100,108.0
1960,G4,101.0,73/250,100,108.0
1961,F#2,101.0,1.0,125,108.0
1962,E2,101.0,1.0,125,108.0
1963,E4,101.017,0.5,100,108.0
1964,D2,101.5,1.0,100,108.0
1965,G3,101.5,1.0,127,108.0
1966,G3,101.5,1.0,127,108.0
1967,D4,101.5,0.5,100,108.0
1968,F#3,101.5,1.0,125,108.0
1969,D4,101.5,0.25,100,108.0
1970,G4,101.5,0.25,100,108.0
1971,B3,101.5,0.25,100,108.0
1972,D4,101.517,0.5,100,108.0
1973,D4,101.75,0.25,100,108.0
1974,B3,101.75,0.25,100,108.0
1975,G4,101.75,0.25,100,108.0
1976,G4,102.0,1.0,100,108.0
1977,F#3,102.0,1.0,125,108.0
1978,C2,102.0,1.0,125,108.0
1979,D4,102.0,73/250,100,108.0
1980,B3,102.0,73/250,100,108.0
1981,G4,102.0,73/250,100,108.0
1982,F#2,102.0,1.0,125,108.0
1983,E2,102.0,1.0,125,108.0
1984,G4,102.017,1.0,100,108.0
1985,B1,102.5,0.5,100,108.0
1986,D6,102.5,0.5,100,108.0
1987,D5,102.5,0.5,100,108.0
1988,D4,102.5,229/500,127,108.0
1989,F#3,102.5,1.0,125,108.0
1990,D4,102.5,0.25,100,108.0
1991,G4,102.5,0.25,100,108.0
1992,B3,102.5,0.25,100,108.0
1993,D4,102.75,0.25,100,108.0
1994,B3,102.75,0.25,100,108.0
1995,G4,102.75,0.25,100,108.0
1996,G1,103.0,0.5,100,108.0
1997,D6,103.0,0.5,100,108.0
1998,D5,103.0,0.5,100,108.0
1999,A4,103.0,0.5,100,108.0
2000,D4,103.0,0.5,127,108.0
2001,F#3,103.0,1.0,125,108.0
2002,C2,103.0,1.0,125,108.0
2003,B3,103.0,73/250,100,108.0
2004,D4,103.0,73/250,100,108.0
2005,G4,103.0,73/250,100,108.0
2006,F#2,103.0,1.0,125,108.0
2007,E2,103.0,1.0,125,108.0
2008,A4,103.017,0.5,100,108.0
2009,G2,103.5,0.5,100,108.0
2010,G6,103.5,417/1000,100,108.0
2011,G5,103.5,417/1000,100,108.0
2012,B4,103.5,0.5,100,108.0
2013,G4,103.5,0.5,127,108.0
2014,F#3,103.5,0.5,125,108.0
2015,D4,103.5,0.25,100,108.0
2016,G4,103.5,0.25,100,108.0
2017,B3,103.5,0.25,100,108.0
2018,B4,103.517,483/1000,100,108.0
2019,D4,103.75,0.25,100,108.0
2020,B3,103.75,0.25,100,108.0
2021,G4,103.75,0.25,100,108.0
2022,G2,104.0,0.5,100,108.0
2023,B3,104.0,417/1000,127,108.0
2024,B3,104.0,417/1000,127,108.0
2025,B4,104.0,0.5,100,108.0
2026,B4,104.0,517/1000,100,108.0
2027,G4,104.0,0.5,127,108.0
2028,F#3,104.0,1.0,125,108.0
2029,F#3,104.0,0.5,125,108.0
2030,C2,104.0,1.0,125,108.0
2031,D4,104.0,73/250,100,108.0
2032,B3,104.0,73/250,100,108.0
2033,G4,104.0,73/250,100,108.0
2034,F#2,104.0,1.0,125,108.0
2035,E2,104.0,1.0,125,108.0
2036,F#2,104.5,1.0,100,108.0
2037,A3,104.5,417/1000,127,108.0
2038,A3,104.5,417/1000,127,108.0
2039,F#6,104.5,417/1000,100,108.0
2040,F#5,104.5,417/1000,100,108.0
2041,F#4,104.5,1.0,127,108.0
2042,F#3,104.5,1.0,125,108.0
2043,D4,104.5,0.25,100,108.0
2044,G4,104.5,0.25,100,108.0
2045,B3,104.5,0.25,100,108.0
2046,D4,104.75,0.25,100,108.0
2047,B3,104.75,0.25,100,108.0
2048,G4,104.75,0.25,100,108.0
2049,G3,105.0,0.5,127,108.0
2050,G3,105.0,0.5,127,108.0
2051,F#3,105.0,1.0,125,108.0
2052,C2,105.0,1.0,125,108.0
2053,B3,105.0,73/250,100,108.0
2054,D4,105.0,73/250,100,108.0
2055,G4,105.0,73/250,100,108.0
2056,F#2,105.0,1.0,125,108.0
2057,E2,105.0,1.0,125,108.0
2058,D2,105.5,1.0,100,108.0
2059,G3,105.5,1.0,127,108.0
2060,G3,105.5,1.0,127,108.0
2061,G6,105.5,417/1000,100,108.0
2062,G5,105.5,417/1000,100,108.0
2063,B4,105.5,1.5,100,108.0
2064,G4,105.5,1.0,127,108.0
2065,F#3,105.5,1.0,125,108.0
2066,D4,105.5,0.25,100,108.0
2067,G4,105.5,0.25,100,108.0
2068,B3,105.5,0.25,100,108.0
2069,D5,105.517,1.5,100,108.0
2070,D4,105.75,0.25,100,108.0
2071,B3,105.75,0.25,100,108.0
2072,G4,105.75,0.25,100,108.0
2073,F#3,106.0,1.0,125,108.0
2074,C2,106.0,1.0,125,108.0
2075,D4,106.0,73/250,100,108.0
2076,B3,106.0,73/250,100,108.0
2077,G4,106.0,73/250,100,108.0
2078,F#2,106.0,1.0,125,108.0
2079,E2,106.0,1.0,125,108.0
2080,B1,106.5,0.5,100,108.0
2081,F#6,106.5,417/1000,100,108.0
2082,F#5,106.5,417/1000,100,108.0
2083,F#4,106.5,0.5,127,108.0
2084,F#3,106.5,1.0,125,108.0
2085,D4,106.5,0.25,100,108.0
2086,G4,106.5,0.25,100,108.0
2087,B3,106.5,0.25,100,108.0
2088,D4,106.75,0.25,100,108.0
2089,B3,106.75,0.25,100,108.0
2090,G4,106.75,0.25,100,108.0
2091,G1,107.0,0.5,100,108.0
2092,D6,107.0,0.5,100,108.0
2093,D5,107.0,0.5,100,108.0
2094,E4,107.0,0.5,127,108.0
2095,F#3,107.0,1.0,125,108.0
2096,C2,107.0,1.0,125,108.0
2097,B3,107.0,73/250,100,108.0
2098,D4,107.0,73/250,100,108.0
2099,G4,107.0,73/250,100,108.0
2100,F#2,107.0,1.0,125,108.0
2101,E2,107.0,1.0,125,108.0
2102,D2,107.5,26/125,100,108.0
2103,B5,107.5,0.5,100,108.0
2104,B4,107.5,0.5,100,108.0
2105,D4,107.5,0.5,127,108.0
2106,F#3,107.5,0.5,125,108.0
2107,D4,107.5,0.25,100,108.0
2108,G4,107.5,0.25,100,108.0
2109,B3,107.5,0.25,100,108.0
2110,E2,107.75,26/125,100,108.0
2111,D4,107.75,0.25,100,108.0
2112,B3,107.75,0.25,100,108.0
2113,G4,107.75,0.25,100,108.0
2114,F#2,108.0,417/1000,100,108.0
2115,A4,108.0,0.5,100,108.0
2116,E4,108.0,0.5,127,108.0
2117,F#3,108.0,1.0,125,108.0
2118,F#3,108.0,0.5,125,108.0
2119,C2,108.0,1.0,125,108.0
2120,D4,108.0,73/250,100,108.0
2121,A3,108.0,73/250,100,108.0
2122,F#4,108.0,73/250,100,108.0
2123,D5,108.0,833/1000,100,108.0
2124,D6,108.0,833/1000,100,108.0
2125,F#2,108.0,1.0,125,108.0
2126,E2,108.0,1.0,125,108.0
2127,A4,108.017,0.5,100,108.0
2128,E2,108.5,417/1000,100,108.0
2129,G4,108.5,0.5,100,108.0
2130,F#4,108.5,0.5,127,108.0
2131,F#3,108.5,1.0,125,108.0
2132,D4,108.5,0.25,100,108.0
2133,F#4,108.5,0.25,100,108.0
2134,A3,108.5,0.25,100,108.0
2135,G4,108.517,0.5,100,108.0
2136,D4,108.75,0.25,100,108.0
2137,A3,108.75,0.25,100,108.0
2138,F#4,108.75,0.25,100,108.0
2139,D2,109.0,0.5,100,108.0
2140,D6,109.0,1.0,100,108.0
2141,D5,109.0,1.0,100,108.0
2142,F#4,109.0,0.5,100,108.0
2143,D4,109.0,1.0,127,108.0
2144,F#3,109.0,1.0,125,108.0
2145,C2,109.0,1.0,125,108.0
2146,A3,109.0,73/250,100,108.0
2147,D4,109.0,73/250,100,108.0
2148,F#4,109.0,73/250,100,108.0
2149,F#2,109.0,1.0,125,108.0
2150,E2,109.0,1.0,125,108.0
2151,F#4,109.017,0.5,100,108.0
2152,D2,109.5,1.0,100,108.0
2153,F#4,109.5,1.0,100,108.0
2154,F#3,109.5,1.0,125,108.0
2155,D4,109.5,0.25,100,108.0
2156,F#4,109.5,0.25,100,108.0
2157,A3,109.5,0.25,100,108.0
2158,F#4,109.517,1.0,100,108.0
2159,D4,109.75,0.25,100,108.0
2160,A3,109.75,0.25,100,108.0
2161,F#4,109.75,0.25,100,108.0
2162,F#3,110.0,1.0,125,108.0
2163,C2,110.0,1.0,125,108.0
2164,D4,110.0,73/250,100,108.0
2165,A3,110.0,73/250,100,108.0
2166,F#4,110.0,73/250,100,108.0
2167,F#2,110.0,1.0,125,108.0
2168,E2,110.0,1.0,125,108.0
2169,A1,110.5,0.5,100,108.0
2170,D6,110.5,417/1000,100,108.0
2171,D5,110.5,417/1000,100,108.0
2172,G4,110.5,1.0,100,108.0
2173,F#3,110.5,1.0,125,108.0
2174,D4,110.5,0.25,100,108.0
2175,F#4,110.5,0.25,100,108.0
2176,A3,110.5,0.25,100,108.0
2177,G4,110.517,1.0,100,108.0
2178,D4,110.75,0.25,100,108.0
2179,A3,110.75,0.25,100,108.0
2180,F#4,110.75,0.25,100,108.0
2181,F#1,111.0,0.5,100,108.0
2182,D6,111.0,417/1000,100,108.0
2183,D5,111.0,417/1000,100,108.0
2184,D4,111.0,0.5,127,108.0
2185,F#3,111.0,1.0,125,108.0
2186,C2,111.0,1.0,125,108.0
2187,A3,111.0,73/250,100,108.0
2188,D4,111.0,73/250,100,108.0
2189,F#4,111.0,73/250,100,108.0
2190,F#2,111.0,1.0,125,108.0
2191,E2,111.0,1.0,125,108.0
2192,F#2,111.5,0.5,100,108.0
2193,F#6,111.5,0.5,100,108.0
2194,F#5,111.5,0.5,100,108.0
2195,A4,111.5,0.5,100,108.0
2196,F#4,111.5,0.5,127,108.0
2197,F#3,111.5,0.5,125,108.0
2198,D4,111.5,0.25,100,108.0
2199,F#4,111.5,0.25,100,108.0
2200,A3,111.5,0.25,100,108.0
2201,A4,111.517,483/1000,100,108.0
2202,D4,111.75,0.25,100,108.0
2203,A3,111.75,0.25,100,108.0
2204,F#4,111.75,0.25,100,108.0
2205,F#2,112.0,0.5,100,108.0
2206,F#6,112.0,0.5,100,108.0
2207,F#5,112.0,0.5,100,108.0
2208,A4,112.0,0.5,100,108.0
2209,A4,112.0,517/1000,100,108.0
2210,F#4,112.0,0.5,127,108.0
2211,F#3,112.0,1.0,125,108.0
2212,F#3,112.0,0.5,125,108.0
2213,C2,112.0,1.0,125,108.0
2214,D4,112.0,73/250,100,108.0
2215,A3,112.0,73/250,100,108.0
2216,F#4,112.0,73/250,100,108.0
2217,F#2,112.0,1.0,125,108.0
2218,E2,112.0,1.0,125,108.0
2219,E2,112.5,1.0,100,108.0
2220,E6,112.5,1.0,100,108.0
2221,E5,112.5,1.0,100,108.0
2222,E4,112.5,1.0,127,108.0
2223,F#3,112.5,1.0,125,108.0
2224,D4,112.5,0.25,100,108.0
2225,F#4,112.5,0.25,100,108.0
2226,A3,112.5,0.25,100,108.0
2227,D4,112.75,0.25,100,108.0
2228,A3,112.75,0.25,100,108.0
2229,F#4,112.75,0.25,100,108.0
2230,F#3,113.0,1.0,125,108.0
2231,C2,113.0,1.0,125,108.0
2232,A3,113.0,73/250,100,108.0
2233,D4,113.0,73/250,100,108.0
2234,F#4,113.0,73/250,100,108.0
2235,F#2,113.0,1.0,125,108.0
2236,E2,113.0,1.0,125,108.0
2237,D2,113.5,1.0,100,108.0
2238,D6,113.5,1.0,100,108.0
2239,D5,113.5,1.0,100,108.0
2240,A4,113.5,1.5,100,108.0
2241,D4,113.5,1.0,127,108.0
2242,F#3,113.5,1.0,125,108.0
2243,D4,113.5,0.25,100,108.0
2244,F#4,113.5,0.25,100,108.0
2245,A3,113.5,0.25,100,108.0
2246,D5,113.517,1.5,100,108.0
2247,D4,113.75,0.25,100,108.0
2248,A3,113.75,0.25,100,108.0
2249,F#4,113.75,0.25,100,108.0
2250,F#3,114.0,1.0,125,108.0
2251,C2,114.0,1.0,125,108.0
2252,D4,114.0,73/250,100,108.0
2253,A3,114.0,73/250,100,108.0
2254,F#4,114.0,73/250,100,108.0
2255,F#2,114.0,1.0,125,108.0
2256,E2,114.0,1.0,125,108.0
2257,A1,114.5,0.5,100,108.0
2258,E6,114.5,417/1000,100,108.0
2259,E5,114.5,417/1000,100,108.0
2260,E4,114.5,0.5,127,108.0
2261,F#3,114.5,1.0,125,108.0
2262,D4,114.5,0.25,100,108.0
2263,F#4,114.5,0.25,100,108.0
2264,A3,114.5,0.25,100,108.0
2265,D4,114.75,0.25,100,108.0
2266,A3,114.75,0.25,100,108.0
2267,F#4,114.75,0.25,100,108.0
2268,F#1,115.0,1.0,100,108.0
2269,F#6,115.0,1.0,100,108.0
2270,F#5,115.0,1.0,100,108.0
2271,F#4,115.0,0.5,127,108.0
2272,F#3,115.0,1.0,125,108.0
2273,C2,115.0,1.0,125,108.0
2274,A3,115.0,73/250,100,108.0
2275,D4,115.0,73/250,100,108.0
2276,F#4,115.0,73/250,100,108.0
2277,F#2,115.0,1.0,125,108.0
2278,E2,115.0,1.0,125,108.0
2279,A4,115.5,0.5,127,108.0
2280,F#3,115.5,0.5,125,108.0
2281,D4,115.5,0.25,100,108.0
2282,F#4,115.5,0.25,100,108.0
2283,A3,115.5,0.25,100,108.0
2284,D4,115.75,0.25,100,108.0
2285,A3,115.75,0.25,100,108.0
2286,F#4,115.75,0.25,100,108.0
2287,B1,116.0,0.5,100,108.0
2288,E6,116.0,1.0,100,108.0
2289,E5,116.0,1.0,100,108.0
2290,E4,116.0,1.0,100,108.0
2291,A4,116.0,0.5,127,108.0
2292,F#3,116.0,1.0,125,108.0
2293,F#3,116.0,0.5,125,108.0
2294,C2,116.0,1.0,125,108.0
2295,C4,116.0,73/250,100,108.0
2296,G3,116.0,73/250,100,108.0
2297,E4,116.0,73/250,100,108.0
2298,F#2,116.0,1.0,125,108.0
2299,E2,116.0,1.0,125,108.0
2300,E4,116.017,1.0,100,108.0
2301,A1,116.5,0.5,100,108.0
2302,B4,116.5,0.5,127,108.0
2303,F#3,116.5,1.0,125,108.0
2304,C4,116.5,0.25,100,108.0
2305,E4,116.5,0.25,100,108.0
2306,G3,116.5,0.25,100,108.0
2307,C4,116.75,0.25,100,108.0
2308,G3,116.75,0.25,100,108.0
2309,E4,116.75,0.25,100,108.0
2310,G1,117.0,0.5,100,108.0
2311,E6,117.0,1.0,100,108.0
2312,E5,117.0,1.0,100,108.0
2313,G4,117.0,0.5,100,108.0
2314,G4,117.0,1.0,127,108.0
2315,F#3,117.0,1.0,125,108.0
2316,C2,117.0,1.0,125,108.0
2317,G3,117.0,73/250,100,108.0
2318,C4,117.0,73/250,100,108.0
2319,E4,117.0,73/250,100,108.0
2320,F#2,117.0,1.0,125,108.0
2321,E2,117.0,1.0,125,108.0
2322,G4,117.017,0.5,100,108.0
2323,G1,117.5,1.0,100,108.0
2324,E4,117.5,0.5,100,108.0
2325,F#3,117.5,1.0,125,108.0
2326,C4,117.5,0.25,100,108.0
2327,E4,117.5,0.25,100,108.0
2328,G3,117.5,0.25,100,108.0
2329,E4,117.517,0.5,100,108.0
2330,C4,117.75,0.25,100,108.0
2331,G3,117.75,0.25,100,108.0
2332,E4,117.75,0.25,100,108.0
2333,G4,118.0,1.0,100,108.0
2334,F#3,118.0,1.0,125,108.0
2335,C2,118.0,1.0,125,108.0
2336,C4,118.0,73/250,100,108.0
2337,G3,118.0,73/250,100,108.0
2338,E4,118.0,73/250,100,108.0
2339,F#2,118.0,1.0,125,108.0
2340,E2,118.0,1.0,125,108.0
2341,G4,118.017,1.0,100,108.0
2342,E1,118.5,0.5,100,108.0
2343,E6,118.5,417/1000,100,108.0
2344,E5,118.5,417/1000,100,108.0
2345,E4,118.5,0.5,127,108.0
2346,F#3,118.5,1.0,125,108.0
2347,C4,118.5,0.25,100,108.0
2348,E4,118.5,0.25,100,108.0
2349,G3,118.5,0.25,100,108.0
2350,C4,118.75,0.25,100,108.0
2351,G3,118.75,0.25,100,108.0
2352,E4,118.75,0.25,100,108.0
2353,G1,119.0,0.5,100,108.0
2354,G6,119.0,417/1000,100,108.0
2355,G5,119.0,417/1000,100,108.0
2356,A4,119.0,0.5,100,108.0
2357,G4,119.0,0.5,127,108.0
2358,F#3,119.0,1.0,125,108.0
2359,C2,119.0,1.0,125,108.0
2360,G3,119.0,73/250,100,108.0
2361,C4,119.0,73/250,100,108.0
2362,E4,119.0,73/250,100,108.0
2363,F#2,119.0,1.0,125,108.0
2364,E2,119.0,1.0,125,108.0
2365,A4,119.017,0.5,100,108.0
2366,B1,119.5,0.5,100,108.0
2367,B6,119.5,0.5,100,108.0
2368,B5,119.5,0.5,100,108.0
2369,B4,119.5,0.5,100,108.0
2370,B4,119.5,0.5,127,108.0
2371,F#3,119.5,0.5,125,108.0
2372,C4,119.5,0.25,100,108.0
2373,E4,119.5,0.25,100,108.0
2374,G3,119.5,0.25,100,108.0
2375,B4,119.517,483/1000,100,108.0
2376,C4,119.75,0.25,100,108.0
2377,G3,119.75,0.25,100,108.0
2378,E4,119.75,0.25,100,108.0
2379,B1,120.0,0.5,100,108.0
2380,B4,120.0,0.5,100,108.0
2381,B4,120.0,517/1000,100,108.0
2382,B4,120.0,0.5,127,108.0
2383,F#3,120.0,1.0,125,108.0
2384,F#3,120.0,0.5,125,108.0
2385,C2,120.0,1.0,125,108.0
2386,C4,120.0,73/250,100,108.0
2387,G3,120.0,73/250,100,108.0
2388,E4,120.0,73/250,100,108.0
2389,F#2,120.0,1.0,125,108.0
2390,E2,120.0,1.0,125,108.0
2391,A1,120.5,1.0,100,108.0
2392,A6,120.5,1.0,100,108.0
2393,A5,120.5,1.0,100,108.0
2394,A4,120.5,1.0,127,108.0
2395,F#3,120.5,1.0,125,108.0
2396,C4,120.5,0.25,100,108.0
2397,E4,120.5,0.25,100,108.0
2398,G3,120.5,0.25,100,108.0
2399,C4,120.75,0.25,100,108.0
2400,G3,120.75,0.25,100,108.0
2401,E4,120.75,0.25,100,108.0
2402,F#3,121.0,1.0,125,108.0
2403,C2,121.0,1.0,125,108.0
2404,G3,121.0,73/250,100,108.0
2405,C4,121.0,73/250,100,108.0
2406,E4,121.0,73/250,100,108.0
2407,F#2,121.0,1.0,125,108.0
2408,E2,121.0,1.0,125,108.0
2409,G1,121.5,1.0,100,108.0
2410,G6,121.5,1.0,100,108.0
2411,G5,121.5,1.0,100,108.0
2412,B4,121.5,0.25,127,108.0
2413,F#3,121.5,1.0,125,108.0
2414,C4,121.5,0.25,100,108.0
2415,E4,121.5,0.25,100,108.0
2416,G3,121.5,0.25,100,108.0
2417,A4,121.75,0.25,127,108.0
2418,C4,121.75,0.25,100,108.0
2419,G3,121.75,0.25,100,108.0
2420,E4,121.75,0.25,100,108.0
2421,G4,122.0,1.0,127,108.0
2422,F#3,122.0,1.0,125,108.0
2423,C2,122.0,1.0,125,108.0
2424,C4,122.0,73/250,100,108.0
2425,G3,122.0,73/250,100,108.0
2426,E4,122.0,73/250,100,108.0
2427,F#2,122.0,1.0,125,108.0
2428,E2,122.0,1.0,125,108.0
2429,E1,122.5,0.5,100,108.0
2430,A6,122.5,417/1000,100,108.0
2431,A5,122.5,417/1000,100,108.0
2432,F#3,122.5,1.0,125,108.0
2433,C4,122.5,0.25,100,108.0
2434,E4,122.5,0.25,100,108.0
2435,G3,122.5,0.25,100,108.0
2436,C4,122.75,0.25,100,108.0
2437,G3,122.75,0.25,100,108.0
2438,E4,122.75,0.25,100,108.0
2439,G1,123.0,0.5,100,108.0
2440,G6,123.0,1.0,100,108.0
2441,G5,123.0,1.0,100,108.0
2442,F#3,123.0,1.0,125,108.0
2443,C2,123.0,1.0,125,108.0
2444,G3,123.0,73/250,100,108.0
2445,C4,123.0,73/250,100,108.0
2446,E4,123.0,73/250,100,108.0
2447,F#2,123.0,1.0,125,108.0
2448,E2,123.0,1.0,125,108.0
2449,A1,123.5,0.5,100,108.0
2450,G4,123.5,0.5,127,108.0
2451,F#3,123.5,0.5,125,108.0
2452,C4,123.5,0.25,100,108.0
2453,E4,123.5,0.25,100,108.0
2454,G3,123.5,0.25,100,108.0
2455,C4,123.75,0.25,100,108.0
2456,G3,123.75,0.25,100,108.0
2457,E4,123.75,0.25,100,108.0
2458,B1,124.0,667/1000,100,108.0
2459,B6,124.0,417/1000,100,108.0
2460,B5,124.0,417/1000,100,108.0
2461,B4,124.0,0.5,100,108.0
2462,D5,124.0,1.0,127,108.0
2463,F#3,124.0,1.0,125,108.0
2464,F#3,124.0,0.5,125,108.0
2465,C2,124.0,1.0,125,108.0
2466,D4,124.0,73/250,100,108.0
2467,B3,124.0,73/250,100,108.0
2468,G4,124.0,73/250,100,108.0
2469,F#2,124.0,1.0,125,108.0
2470,E2,124.0,1.0,125,108.0
2471,G4,124.017,0.5,100,108.0
2472,B4,124.5,0.5,100,108.0
2473,F#3,124.5,1.0,125,108.0
2474,D4,124.5,0.25,100,108.0
2475,G4,124.5,0.25,100,108.0
2476,B3,124.5,0.25,100,108.0
2477,G4,124.517,0.5,100,108.0
2478,D4,124.75,0.25,100,108.0
2479,B3,124.75,0.25,100,108.0
2480,G4,124.75,0.25,100,108.0
2481,B1,125.0,1.0,100,108.0
2482,B6,125.0,1.5,100,108.0
2483,B5,125.0,1.5,100,108.0
2484,B4,125.0,1.0,100,108.0
2485,B4,125.0,1.0,127,108.0
2486,F#3,125.0,1.0,125,108.0
2487,C2,125.0,1.0,125,108.0
2488,B3,125.0,73/250,100,108.0
2489,D4,125.0,73/250,100,108.0
2490,G4,125.0,73/250,100,108.0
2491,F#2,125.0,1.0,125,108.0
2492,E2,125.0,1.0,125,108.0
2493,G4,125.017,1.0,100,108.0
2494,F#3,125.5,1.0,125,108.0
2495,D4,125.5,0.25,100,108.0
2496,G4,125.5,0.25,100,108.0
2497,B3,125.5,0.25,100,108.0
2498,D4,125.75,0.25,100,108.0
2499,B3,125.75,0.25,100,108.0
2500,G4,125.75,0.25,100,108.0
2501,F#3,126.0,1.0,125,108.0
2502,C2,126.0,1.0,125,108.0
2503,D4,126.0,73/250,100,108.0
2504,B3,126.0,73/250,100,108.0
2505,G4,126.0,73/250,100,108.0
2506,F#2,126.0,1.0,125,108.0
2507,E2,126.0,1.0,125,108.0
2508,B1,126.5,0.5,100,108.0
2509,B6,126.5,417/1000,100,108.0
2510,B5,126.5,417/1000,100,108.0
2511,G4,126.5,0.5,127,108.0
2512,F#3,126.5,1.0,125,108.0
2513,D4,126.5,0.25,100,108.0
2514,G4,126.5,0.25,100,108.0
2515,B3,126.5,0.25,100,108.0
2516,D4,126.75,0.25,100,108.0
2517,B3,126.75,0.25,100,108.0
2518,G4,126.75,0.25,100,108.0
2519,B1,127.0,0.5,100,108.0
2520,B6,127.0,417/1000,100,108.0
2521,B5,127.0,417/1000,100,108.0
2522,G4,127.0,0.5,127,108.0
2523,F#3,127.0,1.0,125,108.0
2524,C2,127.0,1.0,125,108.0
2525,B3,127.0,73/250,100,108.0
2526,D4,127.0,73/250,100,108.0
2527,G4,127.0,73/250,100,108.0
2528,F#2,127.0,1.0,125,108.0
2529,E2,127.0,1.0,125,108.0
2530,C2,127.5,0.5,100,108.0
2531,A6,127.5,0.5,100,108.0
2532,A5,127.5,0.5,100,108.0
2533,E4,127.5,0.5,100,108.0
2534,C5,127.5,0.5,127,108.0
2535,F#3,127.5,0.5,125,108.0
2536,E4,127.5,0.25,100,108.0
2537,G4,127.5,0.25,100,108.0
2538,C4,127.5,0.25,100,108.0
2539,G4,127.517,483/1000,100,108.0
2540,E4,127.75,0.25,100,108.0
2541,C4,127.75,0.25,100,108.0
2542,G4,127.75,0.25,100,108.0
2543,C2,128.0,0.5,100,108.0
2544,A6,128.0,0.5,100,108.0
2545,A5,128.0,0.5,100,108.0
2546,E4,128.0,0.5,100,108.0
2547,G4,128.0,517/1000,100,108.0
2548,C5,128.0,0.5,127,108.0
2549,F#3,128.0,1.0,125,108.0
2550,F#3,128.0,0.5,125,108.0
2551,C2,128.0,1.0,125,108.0
2552,E4,128.0,73/250,100,108.0
2553,C4,128.0,73/250,100,108.0
2554,G4,128.0,73/250,100,108.0
2555,F#2,128.0,1.0,125,108.0
2556,E2,128.0,1.0,125,108.0
2557,B1,128.5,1.0,100,108.0
2558,G6,128.5,1.0,100,108.0
2559,G5,128.5,1.0,100,108.0
2560,D4,128.5,1.0,100,108.0
2561,B4,128.5,1.0,127,108.0
2562,F#3,128.5,1.0,125,108.0
2563,D4,128.5,0.25,100,108.0
2564,G4,128.5,0.25,100,108.0
2565,B3,128.5,0.25,100,108.0
2566,G4,128.517,1.0,100,108.0
2567,D4,128.75,0.25,100,108.0
2568,B3,128.75,0.25,100,108.0
2569,G4,128.75,0.25,100,108.0
2570,F#3,129.0,1.0,125,108.0
2571,C2,129.0,1.0,125,108.0
2572,B3,129.0,73/250,100,108.0
2573,D4,129.0,73/250,100,108.0
2574,G4,129.0,73/250,100,108.0
2575,F#2,129.0,1.0,125,108.0
2576,E2,129.0,1.0,125,108.0
2577,A1,129.5,1.0,100,108.0
2578,G6,129.5,1.0,100,108.0
2579,G5,129.5,1.0,100,108.0
2580,E4,129.5,1.0,100,108.0
2581,A4,129.5,0.5,127,108.0
2582,F#3,129.5,1.0,125,108.0
2583,E4,129.5,0.25,100,108.0
2584,G4,129.5,0.25,100,108.0
2585,C4,129.5,0.25,100,108.0
2586,G4,129.517,1.0,100,108.0
2587,E4,129.75,0.25,100,108.0
2588,C4,129.75,0.25,100,108.0
2589,G4,129.75,0.25,100,108.0
2590,G4,130.0,1.0,127,108.0
2591,F#3,130.0,1.0,125,108.0
2592,C2,130.0,1.0,125,108.0
2593,E4,130.0,73/250,100,108.0
2594,C4,130.0,73/250,100,108.0
2595,G4,130.0,73/250,100,108.0
2596,F#2,130.0,1.0,125,108.0
2597,E2,130.0,1.0,125,108.0
2598,G1,130.5,0.5,100,108.0
2599,A6,130.5,417/1000,100,108.0
2600,A5,130.5,417/1000,100,108.0
2601,F#3,130.5,1.0,125,108.0
2602,E4,130.5,0.25,100,108.0
2603,G4,130.5,0.25,100,108.0
2604,C4,130.5,0.25,100,108.0
2605,E4,130.75,0.25,100,108.0
2606,C4,130.75,0.25,100,108.0
2607,G4,130.75,0.25,100,108.0
2608,A1,131.0,0.5,100,108.0
2609,G6,131.0,1.0,100,108.0
2610,G5,131.0,1.0,100,108.0
2611,F#3,131.0,1.0,125,108.0
2612,C2,131.0,1.0,125,108.0
2613,C4,131.0,73/250,100,108.0
2614,E4,131.0,73/250,100,108.0
2615,G4,131.0,73/250,100,108.0
2616,F#2,131.0,1.0,125,108.0
2617,E2,131.0,1.0,125,108.0
2618,B-1,131.5,0.5,100,108.0
2619,G4,131.5,0.5,127,108.0
2620,F#3,131.5,0.5,125,108.0
2621,E4,131.5,0.25,100,108.0
2622,G4,131.5,0.25,100,108.0
2623,C4,131.5,0.25,100,108.0
2624,E4,131.75,0.25,100,108.0
2625,C4,131.75,0.25,100,108.0
2626,G4,131.75,0.25,100,108.0
2627,B1,132.0,667/1000,100,108.0
2628,B6,132.0,417/1000,100,108.0
2629,B5,132.0,417/1000,100,108.0
2630,B4,132.0,1.0,100,108.0
2631,D5,132.0,1.0,127,108.0
2632,F#3,132.0,1.0,125,108.0
2633,F#3,132.0,0.5,125,108.0
2634,C2,132.0,1.0,125,108.0
2635,D4,132.0,73/250,100,108.0
2636,B3,132.0,73/250,100,108.0
2637,G4,132.0,73/250,100,108.0
2638,F#2,132.0,1.0,125,108.0
2639,E2,132.0,1.0,125,108.0
2640,G4,132.017,1.0,100,108.0
2641,F#3,132.5,1.0,125,108.0
2642,D4,132.5,0.25,100,108.0
2643,G4,132.5,0.25,100,108.0
2644,B3,132.5,0.25,100,108.0
2645,D4,132.75,0.25,100,108.0
2646,B3,132.75,0.25,100,108.0
2647,G4,132.75,0.25,100,108.0
2648,B1,133.0,1.0,100,108.0
2649,B6,133.0,1.5,100,108.0
2650,B5,133.0,1.5,100,108.0
2651,B4,133.0,1.0,100,108.0
2652,B4,133.0,1.0,127,108.0
2653,F#3,133.0,1.0,125,108.0
2654,C2,133.0,1.0,125,108.0
2655,B3,133.0,73/250,100,108.0
2656,D4,133.0,73/250,100,108.0
2657,G4,133.0,73/250,100,108.0
2658,F#2,133.0,1.0,125,108.0
2659,E2,133.0,1.0,125,108.0
2660,G4,133.017,1.0,100,108.0
2661,F#3,133.5,1.0,125,108.0
2662,D4,133.5,0.25,100,108.0
2663,G4,133.5,0.25,100,108.0
2664,B3,133.5,0.25,100,108.0
2665,D4,133.75,0.25,100,108.0
2666,B3,133.75,0.25,100,108.0
2667,G4,133.75,0.25,100,108.0
2668,F#3,134.0,1.0,125,108.0
2669,C2,134.0,1.0,125,108.0
2670,D4,134.0,73/250,100,108.0
2671,B3,134.0,73/250,100,108.0
2672,G4,134.0,73/250,100,108.0
2673,F#2,134.0,1.0,125,108.0
2674,E2,134.0,1.0,125,108.0
2675,C2,134.5,0.5,100,108.0
2676,B6,134.5,417/1000,100,108.0
2677,B5,134.5,417/1000,100,108.0
2678,G4,134.5,0.5,127,108.0
2679,F#3,134.5,1.0,125,108.0
2680,D4,134.5,0.25,100,108.0
2681,G4,134.5,0.25,100,108.0
2682,B3,134.5,0.25,100,108.0
2683,D4,134.75,0.25,100,108.0
2684,B3,134.75,0.25,100,108.0
2685,G4,134.75,0.25,100,108.0
2686,C#2,135.0,0.5,100,108.0
2687,B6,135.0,417/1000,100,108.0
2688,B5,135.0,417/1000,100,108.0
2689,G4,135.0,0.5,127,108.0
2690,F#3,135.0,1.0,125,108.0
2691,C2,135.0,1.0,125,108.0
2692,B3,135.0,73/250,100,108.0
2693,D4,135.0,73/250,100,108.0
2694,G4,135.0,73/250,100,108.0
2695,F#2,135.0,1.0,125,108.0
2696,E2,135.0,1.0,125,108.0
2697,D2,135.5,0.5,100,108.0
2698,A6,135.5,0.5,100,108.0
2699,A5,135.5,0.5,100,108.0
2700,E4,135.5,0.5,100,108.0
2701,C5,135.5,0.5,127,108.0
2702,F#3,135.5,0.5,125,108.0
2703,E4,135.5,0.25,100,108.0
2704,G4,135.5,0.25,100,108.0
2705,C4,135.5,0.25,100,108.0
2706,G4,135.517,483/1000,100,108.0
2707,E4,135.75,0.25,100,108.0
2708,C4,135.75,0.25,100,108.0
2709,G4,135.75,0.25,100,108.0
2710,D2,136.0,0.5,100,108.0
2711,A6,136.0,0.5,100,108.0
2712,A5,136.0,0.5,100,108.0
2713,E4,136.0,0.5,100,108.0
2714,G4,136.0,517/1000,100,108.0
2715,C5,136.0,0.5,127,108.0
2716,F#3,136.0,1.0,125,108.0
2717,F#3,136.0,0.5,125,108.0
2718,C2,136.0,1.0,125,108.0
2719,E4,136.0,73/250,100,108.0
2720,C4,136.0,73/250,100,108.0
2721,G4,136.0,73/250,100,108.0
2722,F#2,136.0,1.0,125,108.0
2723,E2,136.0,1.0,125,108.0
2724,D2,136.5,1.0,100,108.0
2725,G6,136.5,1.0,100,108.0
2726,G5,136.5,1.0,100,108.0
2727,D4,136.5,1.0,100,108.0
2728,B4,136.5,1.0,127,108.0
2729,F#3,136.5,1.0,125,108.0
2730,E4,136.5,0.25,100,108.0
2731,G4,136.5,0.25,100,108.0
2732,C4,136.5,0.25,100,108.0
2733,G4,136.517,1.0,100,108.0
2734,E4,136.75,0.25,100,108.0
2735,C4,136.75,0.25,100,108.0
2736,G4,136.75,0.25,100,108.0
2737,F#3,137.0,1.0,125,108.0
2738,C2,137.0,1.0,125,108.0
2739,C4,137.0,73/250,100,108.0
2740,E4,137.0,73/250,100,108.0
2741,G4,137.0,73/250,100,108.0
2742,F#2,137.0,1.0,125,108.0
2743,E2,137.0,1.0,125,108.0
2744,D2,137.5,1.0,100,108.0
2745,G6,137.5,1.0,100,108.0
2746,G5,137.5,1.0,100,108.0
2747,G4,137.5,1.0,100,108.0
2748,A4,137.5,0.5,127,108.0
2749,F#3,137.5,1.0,125,108.0
2750,E4,137.5,0.25,100,108.0
2751,G4,137.5,0.25,100,108.0
2752,C4,137.5,0.25,100,108.0
2753,G4,137.517,1.0,100,108.0
2754,E2,137.75,1.0,125,108.0
2755,E4,137.75,0.25,100,108.0
2756,C4,137.75,0.25,100,108.0
2757,G4,137.75,0.25,100,108.0
2758,G4,138.0,1.0,127,108.0
2759,E2,138.0,1.0,125,108.0
2760,F#3,138.0,1.0,125,108.0
2761,C2,138.0,1.0,125,108.0
2762,E4,138.0,73/250,100,108.0
2763,C4,138.0,73/250,100,108.0
2764,G4,138.0,73/250,100,108.0
2765,E2,138.25,1.0,125,108.0
2766,D2,138.5,417/1000,100,108.0
2767,A6,138.5,417/1000,100,108.0
2768,A5,138.5,417/1000,100,108.0
2769,E2,138.5,1.0,125,108.0
2770,F#3,138.5,1.0,125,108.0
2771,E4,138.5,0.25,100,108.0
2772,G4,138.5,0.25,100,108.0
2773,C4,138.5,0.25,100,108.0
2774,E2,138.75,1.0,125,108.0
2775,E4,138.75,0.25,100,108.0
2776,C4,138.75,0.25,100,108.0
2777,G4,138.75,0.25,100,108.0
2778,D2,139.0,0.5,100,108.0
2779,G6,139.0,1.0,100,108.0
2780,G5,139.0,1.0,100,108.0
2781,E2,139.0,1.0,125,108.0
2782,F#3,139.0,1.0,125,108.0
2783,C2,139.0,1.0,125,108.0
2784,C4,139.0,73/250,100,108.0
2785,E4,139.0,73/250,100,108.0
2786,G4,139.0,73/250,100,108.0
2787,E2,139.25,0.75,125,108.0
2788,E2,139.5,26/125,100,108.0
2789,E2,139.5,0.5,125,108.0
2790,F#3,139.5,0.5,125,108.0
2791,E4,139.5,0.25,100,108.0
2792,G4,139.5,0.25,100,108.0
2793,C4,139.5,0.25,100,108.0
2794,F#2,139.75,26/125,100,108.0
2795,E2,139.75,0.25,125,108.0
2796,E4,139.75,0.25,100,108.0
2797,C4,139.75,0.25,100,108.0
2798,G4,139.75,0.25,100,108.0
2799,G2,140.0,417/1000,100,108.0
2800,B3,140.0,417/1000,127,108.0
2801,B3,140.0,417/1000,127,108.0
2802,D6,140.0,417/1000,100,108.0
2803,D5,140.0,417/1000,100,108.0
2804,D4,140.0,1.0,100,108.0
2805,B4,140.0,0.5,127,108.0
2806,E2,140.0,0.25,125,108.0
2807,E2,140.0,0.5,125,108.0
2808,E2,140.0,0.75,125,108.0
2809,F#3,140.0,1.0,125,108.0
2810,F#3,140.0,0.5,125,108.0
2811,C2,140.0,1.0,125,108.0
2812,D4,140.0,73/250,100,108.0
2813,B3,140.0,73/250,100,108.0
2814,G4,140.0,73/250,100,108.0
2815,F#2,140.0,1.0,125,108.0
2816,E2,140.0,1.0,125,108.0
2817,D4,140.017,1.0,100,108.0
2818,F#2,140.5,417/1000,100,108.0
2819,A3,140.5,417/1000,127,108.0
2820,A3,140.5,417/1000,127,108.0
2821,A4,140.5,0.5,127,108.0
2822,F#3,140.5,1.0,125,108.0
2823,D4,140.5,0.25,100,108.0
2824,G4,140.5,0.25,100,108.0
2825,B3,140.5,0.25,100,108.0
2826,D4,140.75,0.25,100,108.0
2827,B3,140.75,0.25,100,108.0
2828,G4,140.75,0.25,100,108.0
2829,E2,141.0,0.5,100,108.0
2830,G3,141.0,0.5,127,108.0
2831,G3,141.0,0.5,127,108.0
2832,D6,141.0,1.5,100,108.0
2833,D5,141.0,1.5,100,108.0
2834,E4,141.0,0.5,100,108.0
2835,G4,141.0,0.5,127,108.0
2836,F#3,141.0,1.0,125,108.0
2837,C2,141.0,1.0,125,108.0
2838,B3,141.0,73/250,100,108.0
2839,D4,141.0,73/250,100,108.0
2840,G4,141.0,73/250,100,108.0
2841,F#2,141.0,1.0,125,108.0
2842,E2,141.0,1.0,125,108.0
2843,E4,141.017,0.5,100,108.0
2844,D2,141.5,1.0,100,108.0
2845,G3,141.5,1.0,127,108.0
2846,G3,141.5,1.0,127,108.0
2847,D4,141.5,0.5,100,108.0
2848,G4,141.5,1.0,127,108.0
2849,F#3,141.5,1.0,125,108.0
2850,D4,141.5,0.25,100,108.0
2851,G4,141.5,0.25,100,108.0
2852,B3,141.5,0.25,100,108.0
2853,D4,141.517,0.5,100,108.0
2854,D4,141.75,0.25,100,108.0
2855,B3,141.75,0.25,100,108.0
2856,G4,141.75,0.25,100,108.0
2857,G4,142.0,1.0,100,108.0
2858,F#3,142.0,1.0,125,108.0
2859,C2,142.0,1.0,125,108.0
2860,D4,142.0,73/250,100,108.0
2861,B3,142.0,73/250,100,108.0
2862,G4,142.0,73/250,100,108.0
2863,F#2,142.0,1.0,125,108.0
2864,E2,142.0,1.0,125,108.0
2865,G4,142.017,1.0,100,108.0
2866,B1,142.5,0.5,100,108.0
2867,D6,142.5,0.5,100,108.0
2868,D5,142.5,0.5,100,108.0
2869,E4,142.5,0.5,127,108.0
2870,F#3,142.5,1.0,125,108.0
2871,D4,142.5,0.25,100,108.0
2872,G4,142.5,0.25,100,108.0
2873,B3,142.5,0.25,100,108.0
2874,D4,142.75,0.25,100,108.0
2875,B3,142.75,0.25,100,108.0
2876,G4,142.75,0.25,100,108.0
2877,G1,143.0,0.5,100,108.0
2878,D6,143.0,0.5,100,108.0
2879,D5,143.0,0.5,100,108.0
2880,A4,143.0,0.5,100,108.0
2881,D4,143.0,0.5,127,108.0
2882,F#3,143.0,1.0,125,108.0
2883,C2,143.0,1.0,125,108.0
2884,B3,143.0,73/250,100,108.0
2885,D4,143.0,73/250,100,108.0
2886,G4,143.0,73/250,100,108.0
2887,F#2,143.0,1.0,125,108.0
2888,E2,143.0,1.0,125,108.0
2889,A4,143.017,0.5,100,108.0
2890,G2,143.5,0.5,100,108.0
2891,G6,143.5,417/1000,100,108.0
2892,G5,143.5,417/1000,100,108.0
2893,B4,143.5,0.5,100,108.0
2894,G4,143.5,0.5,127,108.0
2895,F#3,143.5,0.5,125,108.0
2896,D4,143.5,0.25,100,108.0
2897,G4,143.5,0.25,100,108.0
2898,B3,143.5,0.25,100,108.0
2899,B4,143.517,483/1000,100,108.0
2900,D4,143.75,0.25,100,108.0
2901,B3,143.75,0.25,100,108.0
2902,G4,143.75,0.25,100,108.0
2903,G2,144.0,0.5,100,108.0
2904,B3,144.0,417/1000,127,108.0
2905,B3,144.0,417/1000,127,108.0
2906,B4,144.0,0.5,100,108.0
2907,B4,144.0,517/1000,100,108.0
2908,G4,144.0,0.5,127,108.0
2909,F#3,144.0,1.0,125,108.0
2910,F#3,144.0,0.5,125,108.0
2911,C2,144.0,1.0,125,108.0
2912,D4,144.0,73/250,100,108.0
2913,B3,144.0,73/250,100,108.0
2914,G4,144.0,73/250,100,108.0
2915,F#2,144.0,1.0,125,108.0
2916,E2,144.0,1.0,125,108.0
2917,F#2,144.5,1.0,100,108.0
2918,A3,144.5,417/1000,127,108.0
2919,A3,144.5,417/1000,127,108.0
2920,F#6,144.5,417/1000,100,108.0
2921,F#5,144.5,417/1000,100,108.0
2922,F#4,144.5,0.5,127,108.0
2923,F#3,144.5,1.0,125,108.0
2924,D4,144.5,0.25,100,108.0
2925,G4,144.5,0.25,100,108.0
2926,B3,144.5,0.25,100,108.0
2927,D4,144.75,0.25,100,108.0
2928,B3,144.75,0.25,100,108.0
2929,G4,144.75,0.25,100,108.0
2930,G3,145.0,0.5,127,108.0
2931,G3,145.0,0.5,127,108.0
2932,F#3,145.0,1.0,125,108.0
2933,C2,145.0,1.0,125,108.0
2934,B3,145.0,73/250,100,108.0
2935,D4,145.0,73/250,100,108.0
2936,G4,145.0,73/250,100,108.0
2937,F#2,145.0,1.0,125,108.0
2938,E2,145.0,1.0,125,108.0
2939,D2,145.5,1.0,100,108.0
2940,G3,145.5,1.0,127,108.0
2941,G3,145.5,1.0,127,108.0
2942,G6,145.5,417/1000,100,108.0
2943,G5,145.5,417/1000,100,108.0
2944,B4,145.5,1.5,100,108.0
2945,G4,145.5,1.0,127,108.0
2946,F#3,145.5,1.0,125,108.0
2947,D4,145.5,0.25,100,108.0
2948,G4,145.5,0.25,100,108.0
2949,B3,145.5,0.25,100,108.0
2950,D5,145.517,1.5,100,108.0
2951,D4,145.75,0.25,100,108.0
2952,B3,145.75,0.25,100,108.0
2953,G4,145.75,0.25,100,108.0
2954,F#3,146.0,1.0,125,108.0
2955,C2,146.0,1.0,125,108.0
2956,D4,146.0,73/250,100,108.0
2957,B3,146.0,73/250,100,108.0
2958,G4,146.0,73/250,100,108.0
2959,F#2,146.0,1.0,125,108.0
2960,E2,146.0,1.0,125,108.0
2961,B1,146.5,0.5,100,108.0
2962,F#6,146.5,417/1000,100,108.0
2963,F#5,146.5,417/1000,100,108.0
2964,F#4,146.5,0.5,127,108.0
2965,F#3,146.5,1.0,125,108.0
2966,D4,146.5,0.25,100,108.0
2967,G4,146.5,0.25,100,108.0
2968,B3,146.5,0.25,100,108.0
2969,D4,146.75,0.25,100,108.0
2970,B3,146.75,0.25,100,108.0
2971,G4,146.75,0.25,100,108.0
2972,G1,147.0,0.5,100,108.0
2973,D6,147.0,0.5,100,108.0
2974,D5,147.0,0.5,100,108.0
2975,D4,147.0,0.5,127,108.0
2976,F#3,147.0,1.0,125,108.0
2977,C2,147.0,1.0,125,108.0
2978,B3,147.0,73/250,100,108.0
2979,D4,147.0,73/250,100,108.0
2980,G4,147.0,73/250,100,108.0
2981,F#2,147.0,1.0,125,108.0
2982,E2,147.0,1.0,125,108.0
2983,D2,147.5,26/125,100,108.0
2984,B5,147.5,0.5,100,108.0
2985,B4,147.5,0.5,100,108.0
2986,E4,147.5,0.5,127,108.0
2987,F#3,147.5,0.5,125,108.0
2988,D4,147.5,0.25,100,108.0
2989,G4,147.5,0.25,100,108.0
2990,B3,147.5,0.25,100,108.0
2991,E2,147.75,26/125,100,108.0
2992,D4,147.75,0.25,100,108.0
2993,B3,147.75,0.25,100,108.0
2994,G4,147.75,0.25,100,108.0
2995,F#2,148.0,417/1000,100,108.0
2996,A4,148.0,0.5,100,108.0
2997,E4,148.0,0.5,127,108.0
2998,F#3,148.0,1.0,125,108.0
2999,F#3,148.0,0.5,125,108.0
3000,C2,148.0,1.0,125,108.0
3001,D4,148.0,73/250,100,108.0
3002,A3,148.0,73/250,100,108.0
3003,F#4,148.0,73/250,100,108.0
3004,D5,148.0,833/1000,100,108.0
3005,D6,148.0,833/1000,100,108.0
3006,F#2,148.0,1.0,125,108.0
3007,E2,148.0,1.0,125,108.0
3008,A4,148.017,0.5,100,108.0
3009,E2,148.5,417/1000,100,108.0
3010,G4,148.5,0.5,100,108.0
3011,F#4,148.5,0.5,127,108.0
3012,F#3,148.5,1.0,125,108.0
3013,D4,148.5,0.25,100,108.0
3014,F#4,148.5,0.25,100,108.0
3015,A3,148.5,0.25,100,108.0
3016,G4,148.517,0.5,100,108.0
3017,D4,148.75,0.25,100,108.0
3018,A3,148.75,0.25,100,108.0
3019,F#4,148.75,0.25,100,108.0
3020,D2,149.0,0.5,100,108.0
3021,D6,149.0,1.0,100,108.0
3022,D5,149.0,1.0,100,108.0
3023,F#4,149.0,0.5,100,108.0
3024,D4,149.0,1.0,127,108.0
3025,F#3,149.0,1.0,125,108.0
3026,C2,149.0,1.0,125,108.0
3027,A3,149.0,73/250,100,108.0
3028,D4,149.0,73/250,100,108.0
3029,F#4,149.0,73/250,100,108.0
3030,F#2,149.0,1.0,125,108.0
3031,E2,149.0,1.0,125,108.0
3032,F#4,149.017,0.5,100,108.0
3033,D2,149.5,1.0,100,108.0
3034,F#4,149.5,1.0,100,108.0
3035,F#3,149.5,1.0,125,108.0
3036,D4,149.5,0.25,100,108.0
3037,F#4,149.5,0.25,100,108.0
3038,A3,149.5,0.25,100,108.0
3039,F#4,149.517,1.0,100,108.0
3040,D4,149.75,0.25,100,108.0
3041,A3,149.75,0.25,100,108.0
3042,F#4,149.75,0.25,100,108.0
3043,F#3,150.0,1.0,125,108.0
3044,C2,150.0,1.0,125,108.0
3045,D4,150.0,73/250,100,108.0
3046,A3,150.0,73/250,100,108.0
3047,F#4,150.0,73/250,100,108.0
3048,F#2,150.0,1.0,125,108.0
3049,E2,150.0,1.0,125,108.0
3050,A1,150.5,0.5,100,108.0
3051,D6,150.5,417/1000,100,108.0
3052,D5,150.5,417/1000,100,108.0
3053,G4,150.5,1.0,100,108.0
3054,F#3,150.5,1.0,125,108.0
3055,D4,150.5,0.25,100,108.0
3056,F#4,150.5,0.25,100,108.0
3057,A3,150.5,0.25,100,108.0
3058,G4,150.517,1.0,100,108.0
3059,D4,150.75,0.25,100,108.0
3060,A3,150.75,0.25,100,108.0
3061,F#4,150.75,0.25,100,108.0
3062,F#1,151.0,0.5,100,108.0
3063,D6,151.0,417/1000,100,108.0
3064,D5,151.0,417/1000,100,108.0
3065,F#3,151.0,1.0,125,108.0
3066,C2,151.0,1.0,125,108.0
3067,A3,151.0,73/250,100,108.0
3068,D4,151.0,73/250,100,108.0
3069,F#4,151.0,73/250,100,108.0
3070,F#2,151.0,1.0,125,108.0
3071,E2,151.0,1.0,125,108.0
3072,F#2,151.5,0.5,100,108.0
3073,F#6,151.5,0.5,100,108.0
3074,F#5,151.5,0.5,100,108.0
3075,A4,151.5,0.5,100,108.0
3076,F#4,151.5,0.5,127,108.0
3077,F#3,151.5,0.5,125,108.0
3078,D4,151.5,0.25,100,108.0
3079,F#4,151.5,0.25,100,108.0
3080,A3,151.5,0.25,100,108.0
3081,A4,151.517,483/1000,100,108.0
3082,D4,151.75,0.25,100,108.0
3083,A3,151.75,0.25,100,108.0
3084,F#4,151.75,0.25,100,108.0
3085,F#2,152.0,0.5,100,108.0
3086,F#6,152.0,0.5,100,108.0
3087,F#5,152.0,0.5,100,108.0
3088,A4,152.0,0.5,100,108.0
3089,A4,152.0,517/1000,100,108.0
3090,F#4,152.0,0.5,127,108.0
3091,F#3,152.0,1.0,125,108.0
3092,F#3,152.0,0.5,125,108.0
3093,C2,152.0,1.0,125,108.0
3094,D4,152.0,73/250,100,108.0
3095,A3,152.0,73/250,100,108.0
3096,F#4,152.0,73/250,100,108.0
3097,F#2,152.0,1.0,125,108.0
3098,E2,152.0,1.0,125,108.0
3099,E2,152.5,1.0,100,108.0
3100,E6,152.5,1.0,100,108.0
3101,E5,152.5,1.0,100,108.0
3102,E4,152.5,0.5,127,108.0
3103,F#3,152.5,1.0,125,108.0
3104,D4,152.5,0.25,100,108.0
3105,F#4,152.5,0.25,100,108.0
3106,A3,152.5,0.25,100,108.0
3107,D4,152.75,0.25,100,108.0
3108,A3,152.75,0.25,100,108.0
3109,F#4,152.75,0.25,100,108.0
3110,F#3,153.0,1.0,125,108.0
3111,C2,153.0,1.0,125,108.0
3112,A3,153.0,73/250,100,108.0
3113,D4,153.0,73/250,100,108.0
3114,F#4,153.0,73/250,100,108.0
3115,F#2,153.0,1.0,125,108.0
3116,E2,153.0,1.0,125,108.0
3117,D2,153.5,1.0,100,108.0
3118,D6,153.5,1.0,100,108.0
3119,D5,153.5,1.0,100,108.0
3120,A4,153.5,1.5,100,108.0
3121,D4,153.5,1.0,127,108.0
3122,F#3,153.5,1.0,125,108.0
3123,D4,153.5,0.25,100,108.0
3124,F#4,153.5,0.25,100,108.0
3125,A3,153.5,0.25,100,108.0
3126,D5,153.517,1.5,100,108.0
3127,D4,153.75,0.25,100,108.0
3128,A3,153.75,0.25,100,108.0
3129,F#4,153.75,0.25,100,108.0
3130,F#3,154.0,1.0,125,108.0
3131,C2,154.0,1.0,125,108.0
3132,D4,154.0,73/250,100,108.0
3133,A3,154.0,73/250,100,108.0
3134,F#4,154.0,73/250,100,108.0
3135,F#2,154.0,1.0,125,108.0
3136,E2,154.0,1.0,125,108.0
3137,A1,154.5,0.5,100,108.0
3138,E6,154.5,417/1000,100,108.0
3139,E5,154.5,417/1000,100,108.0
3140,E4,154.5,0.5,127,108.0
3141,F#3,154.5,1.0,125,108.0
3142,D4,154.5,0.25,100,108.0
3143,F#4,154.5,0.25,100,108.0
3144,A3,154.5,0.25,100,108.0
3145,D4,154.75,0.25,100,108.0
3146,A3,154.75,0.25,100,108.0
3147,F#4,154.75,0.25,100,108.0
3148,F#1,155.0,1.0,100,108.0
3149,F#6,155.0,1.0,100,108.0
3150,F#5,155.0,1.0,100,108.0
3151,F#4,155.0,0.5,127,108.0
3152,F#3,155.0,1.0,125,108.0
3153,C2,155.0,1.0,125,108.0
3154,A3,155.0,73/250,100,108.0
3155,D4,155.0,73/250,100,108.0
3156,F#4,155.0,73/250,100,108.0
3157,F#2,155.0,1.0,125,108.0
3158,E2,155.0,1.0,125,108.0
3159,A4,155.5,0.5,127,108.0
3160,F#3,155.5,0.5,125,108.0
3161,D4,155.5,0.25,100,108.0
3162,F#4,155.5,0.25,100,108.0
3163,A3,155.5,0.25,100,108.0
3164,D4,155.75,0.25,100,108.0
3165,A3,155.75,0.25,100,108.0
3166,F#4,155.75,0.25,100,108.0
3167,B1,156.0,0.5,100,108.0
3168,E6,156.0,1.0,100,108.0
3169,E5,156.0,1.0,100,108.0
3170,E4,156.0,1.0,100,108.0
3171,A4,156.0,0.5,127,108.0
3172,F#3,156.0,1.0,125,108.0
3173,F#3,156.0,0.5,125,108.0
3174,C2,156.0,1.0,125,108.0
3175,C4,156.0,73/250,100,108.0
3176,G3,156.0,73/250,100,108.0
3177,E4,156.0,73/250,100,108.0
3178,F#2,156.0,1.0,125,108.0
3179,E2,156.0,1.0,125,108.0
3180,E4,156.017,1.0,100,108.0
3181,A1,156.5,0.5,100,108.0
3182,B4,156.5,0.5,127,108.0
3183,F#3,156.5,1.0,125,108.0
3184,C4,156.5,0.25,100,108.0
3185,E4,156.5,0.25,100,108.0
3186,G3,156.5,0.25,100,108.0
3187,C4,156.75,0.25,100,108.0
3188,G3,156.75,0.25,100,108.0
3189,E4,156.75,0.25,100,108.0
3190,G1,157.0,0.5,100,108.0
3191,E6,157.0,1.0,100,108.0
3192,E5,157.0,1.0,100,108.0
3193,G4,157.0,0.5,100,108.0
3194,G4,157.0,1.0,127,108.0
3195,F#3,157.0,1.0,125,108.0
3196,C2,157.0,1.0,125,108.0
3197,G3,157.0,73/250,100,108.0
3198,C4,157.0,73/250,100,108.0
3199,E4,157.0,73/250,100,108.0
3200,F#2,157.0,1.0,125,108.0
3201,E2,157.0,1.0,125,108.0
3202,G4,157.017,0.5,100,108.0
3203,G1,157.5,1.0,100,108.0
3204,E4,157.5,0.5,100,108.0
3205,F#3,157.5,1.0,125,108.0
3206,C4,157.5,0.25,100,108.0
3207,E4,157.5,0.25,100,108.0
3208,G3,157.5,0.25,100,108.0
3209,E4,157.517,0.5,100,108.0
3210,C4,157.75,0.25,100,108.0
3211,G3,157.75,0.25,100,108.0
3212,E4,157.75,0.25,100,108.0
3213,G4,158.0,1.0,100,108.0
3214,F#3,158.0,1.0,125,108.0
3215,C2,158.0,1.0,125,108.0
3216,C4,158.0,73/250,100,108.0
3217,G3,158.0,73/250,100,108.0
3218,E4,158.0,73/250,100,108.0
3219,F#2,158.0,1.0,125,108.0
3220,E2,158.0,1.0,125,108.0
3221,G4,158.017,1.0,100,108.0
3222,E1,158.5,0.5,100,108.0
3223,E6,158.5,417/1000,100,108.0
3224,E5,158.5,417/1000,100,108.0
3225,E4,158.5,0.5,127,108.0
3226,F#3,158.5,1.0,125,108.0
3227,C4,158.5,0.25,100,108.0
3228,E4,158.5,0.25,100,108.0
3229,G3,158.5,0.25,100,108.0
3230,C4,158.75,0.25,100,108.0
3231,G3,158.75,0.25,100,108.0
3232,E4,158.75,0.25,100,108.0
3233,G1,159.0,0.5,100,108.0
3234,G6,159.0,417/1000,100,108.0
3235,G5,159.0,417/1000,100,108.0
3236,A4,159.0,0.5,100,108.0
3237,G4,159.0,0.5,127,108.0
3238,F#3,159.0,1.0,125,108.0
3239,C2,159.0,1.0,125,108.0
3240,G3,159.0,73/250,100,108.0
3241,C4,159.0,73/250,100,108.0
3242,E4,159.0,73/250,100,108.0
3243,F#2,159.0,1.0,125,108.0
3244,E2,159.0,1.0,125,108.0
3245,A4,159.017,0.5,100,108.0
3246,B1,159.5,0.5,100,108.0
3247,B6,159.5,0.5,100,108.0
3248,B5,159.5,0.5,100,108.0
3249,B4,159.5,0.5,100,108.0
3250,B4,159.5,0.5,127,108.0
3251,F#3,159.5,0.5,125,108.0
3252,C4,159.5,0.25,100,108.0
3253,E4,159.5,0.25,100,108.0
3254,G3,159.5,0.25,100,108.0
3255,B4,159.517,483/1000,100,108.0
3256,C4,159.75,0.25,100,108.0
3257,G3,159.75,0.25,100,108.0
3258,E4,159.75,0.25,100,108.0
3259,B1,160.0,0.5,100,108.0
3260,B4,160.0,0.5,100,108.0
3261,B4,160.0,517/1000,100,108.0
3262,B4,160.0,0.5,127,108.0
3263,F#3,160.0,1.0,125,108.0
3264,F#3,160.0,0.5,125,108.0
3265,C2,160.0,1.0,125,108.0
3266,C4,160.0,73/250,100,108.0
3267,G3,160.0,73/250,100,108.0
3268,E4,160.0,73/250,100,108.0
3269,F#2,160.0,1.0,125,108.0
3270,E2,160.0,1.0,125,108.0
3271,A1,160.5,1.0,100,108.0
3272,A6,160.5,1.0,100,108.0
3273,A5,160.5,1.0,100,108.0
3274,A4,160.5,1.0,127,108.0
3275,F#3,160.5,1.0,125,108.0
3276,C4,160.5,0.25,100,108.0
3277,E4,160.5,0.25,100,108.0
3278,G3,160.5,0.25,100,108.0
3279,C4,160.75,0.25,100,108.0
3280,G3,160.75,0.25,100,108.0
3281,E4,160.75,0.25,100,108.0
3282,F#3,161.0,1.0,125,108.0
3283,C2,161.0,1.0,125,108.0
3284,G3,161.0,73/250,100,108.0
3285,C4,161.0,73/250,100,108.0
3286,E4,161.0,73/250,100,108.0
3287,F#2,161.0,1.0,125,108.0
3288,E2,161.0,1.0,125,108.0
3289,G1,161.5,1.0,100,108.0
3290,G6,161.5,1.0,100,108.0
3291,G5,161.5,1.0,100,108.0
3292,B4,161.5,0.25,127,108.0
3293,F#3,161.5,1.0,125,108.0
3294,C4,161.5,0.25,100,108.0
3295,E4,161.5,0.25,100,108.0
3296,G3,161.5,0.25,100,108.0
3297,A4,161.75,0.25,127,108.0
3298,C4,161.75,0.25,100,108.0
3299,G3,161.75,0.25,100,108.0
3300,E4,161.75,0.25,100,108.0
3301,G4,162.0,1.0,127,108.0
3302,F#3,162.0,1.0,125,108.0
3303,C2,162.0,1.0,125,108.0
3304,C4,162.0,73/250,100,108.0
3305,G3,162.0,73/250,100,108.0
3306,E4,162.0,73/250,100,108.0
3307,F#2,162.0,1.0,125,108.0
3308,E2,162.0,1.0,125,108.0
3309,E1,162.5,0.5,100,108.0
3310,A6,162.5,417/1000,100,108.0
3311,A5,162.5,417/1000,100,108.0
3312,F#3,162.5,1.0,125,108.0
3313,C4,162.5,0.25,100,108.0
3314,E4,162.5,0.25,100,108.0
3315,G3,162.5,0.25,100,108.0
3316,C4,162.75,0.25,100,108.0
3317,G3,162.75,0.25,100,108.0
3318,E4,162.75,0.25,100,108.0
3319,G1,163.0,0.5,100,108.0
3320,G6,163.0,1.0,100,108.0
3321,G5,163.0,1.0,100,108.0
3322,G4,163.0,0.5,127,108.0
3323,F#3,163.0,1.0,125,108.0
3324,C2,163.0,1.0,125,108.0
3325,G3,163.0,73/250,100,108.0
3326,C4,163.0,73/250,100,108.0
3327,E4,163.0,73/250,100,108.0
3328,F#2,163.0,1.0,125,108.0
3329,E2,163.0,1.0,125,108.0
3330,A1,163.5,0.5,100,108.0
3331,G4,163.5,0.5,127,108.0
3332,F#3,163.5,0.5,125,108.0
3333,C4,163.5,0.25,100,108.0
3334,E4,163.5,0.25,100,108.0
3335,G3,163.5,0.25,100,108.0
3336,C4,163.75,0.25,100,108.0
3337,G3,163.75,0.25,100,108.0
3338,E4,163.75,0.25,100,108.0
3339,B1,164.0,667/1000,100,108.0
3340,B6,164.0,417/1000,100,108.0
3341,B5,164.0,417/1000,100,108.0
3342,B4,164.0,0.5,100,108.0
3343,D5,164.0,1.0,127,108.0
3344,F#3,164.0,1.0,125,108.0
3345,F#3,164.0,0.5,125,108.0
3346,C2,164.0,1.0,125,108.0
3347,D4,164.0,73/250,100,108.0
3348,B3,164.0,73/250,100,108.0
3349,G4,164.0,73/250,100,108.0
3350,F#2,164.0,1.0,125,108.0
3351,E2,164.0,1.0,125,108.0
3352,G4,164.017,0.5,100,108.0
3353,B4,164.5,0.5,100,108.0
3354,F#3,164.5,1.0,125,108.0
3355,D4,164.5,0.25,100,108.0
3356,G4,164.5,0.25,100,108.0
3357,B3,164.5,0.25,100,108.0
3358,G4,164.517,0.5,100,108.0
3359,D4,164.75,0.25,100,108.0
3360,B3,164.75,0.25,100,108.0
3361,G4,164.75,0.25,100,108.0
3362,B1,165.0,1.0,100,108.0
3363,B6,165.0,1.5,100,108.0
3364,B5,165.0,1.5,100,108.0
3365,B4,165.0,1.0,100,108.0
3366,B4,165.0,1.0,127,108.0
3367,F#3,165.0,1.0,125,108.0
3368,C2,165.0,1.0,125,108.0
3369,B3,165.0,73/250,100,108.0
3370,D4,165.0,73/250,100,108.0
3371,G4,165.0,73/250,100,108.0
3372,F#2,165.0,1.0,125,108.0
3373,E2,165.0,1.0,125,108.0
3374,G4,165.017,1.0,100,108.0
3375,F#3,165.5,1.0,125,108.0
3376,D4,165.5,0.25,100,108.0
3377,G4,165.5,0.25,100,108.0
3378,B3,165.5,0.25,100,108.0
3379,D4,165.75,0.25,100,108.0
3380,B3,165.75,0.25,100,108.0
3381,G4,165.75,0.25,100,108.0
3382,F#3,166.0,1.0,125,108.0
3383,C2,166.0,1.0,125,108.0
3384,D4,166.0,73/250,100,108.0
3385,B3,166.0,73/250,100,108.0
3386,G4,166.0,73/250,100,108.0
3387,F#2,166.0,1.0,125,108.0
3388,E2,166.0,1.0,125,108.0
3389,B1,166.5,0.5,100,108.0
3390,B6,166.5,417/1000,100,108.0
3391,B5,166.5,417/1000,100,108.0
3392,G4,166.5,0.5,127,108.0
3393,F#3,166.5,1.0,125,108.0
3394,D4,166.5,0.25,100,108.0
3395,G4,166.5,0.25,100,108.0
3396,B3,166.5,0.25,100,108.0
3397,D4,166.75,0.25,100,108.0
3398,B3,166.75,0.25,100,108.0
3399,G4,166.75,0.25,100,108.0
3400,B1,167.0,0.5,100,108.0
3401,B6,167.0,417/1000,100,108.0
3402,B5,167.0,417/1000,100,108.0
3403,G4,167.0,0.5,127,108.0
3404,F#3,167.0,1.0,125,108.0
3405,C2,167.0,1.0,125,108.0
3406,B3,167.0,73/250,100,108.0
3407,D4,167.0,73/250,100,108.0
3408,G4,167.0,73/250,100,108.0
3409,F#2,167.0,1.0,125,108.0
3410,E2,167.0,1.0,125,108.0
3411,C2,167.5,0.5,100,108.0
3412,A6,167.5,0.5,100,108.0
3413,A5,167.5,0.5,100,108.0
3414,E4,167.5,0.5,100,108.0
3415,C5,167.5,0.5,127,108.0
3416,F#3,167.5,0.5,125,108.0
3417,E4,167.5,0.25,100,108.0
3418,G4,167.5,0.25,100,108.0
3419,C4,167.5,0.25,100,108.0
3420,G4,167.517,483/1000,100,108.0
3421,E4,167.75,0.25,100,108.0
3422,C4,167.75,0.25,100,108.0
3423,G4,167.75,0.25,100,108.0
3424,C2,168.0,0.5,100,108.0
3425,A6,168.0,0.5,100,108.0
3426,A5,168.0,0.5,100,108.0
3427,E4,168.0,0.5,100,108.0
3428,G4,168.0,517/1000,100,108.0
3429,C5,168.0,0.5,127,108.0
3430,F#3,168.0,1.0,125,108.0
3431,F#3,168.0,0.5,125,108.0
3432,C2,168.0,1.0,125,108.0
3433,E4,168.0,73/250,100,108.0
3434,C4,168.0,73/250,100,108.0
3435,G4,168.0,73/250,100,108.0
3436,F#2,168.0,1.0,125,108.0
3437,E2,168.0,1.0,125,108.0
3438,B1,168.5,1.0,100,108.0
3439,G6,168.5,1.0,100,108.0
3440,G5,168.5,1.0,100,108.0
3441,D4,168.5,1.0,100,108.0
3442,B4,168.5,1.0,127,108.0
3443,F#3,168.5,1.0,125,108.0
3444,D4,168.5,0.25,100,108.0
3445,G4,168.5,0.25,100,108.0
3446,B3,168.5,0.25,100,108.0
3447,G4,168.517,1.0,100,108.0
3448,D4,168.75,0.25,100,108.0
3449,B3,168.75,0.25,100,108.0
3450,G4,168.75,0.25,100,108.0
3451,F#3,169.0,1.0,125,108.0
3452,C2,169.0,1.0,125,108.0
3453,B3,169.0,73/250,100,108.0
3454,D4,169.0,73/250,100,108.0
3455,G4,169.0,73/250,100,108.0
3456,F#2,169.0,1.0,125,108.0
3457,E2,169.0,1.0,125,108.0
3458,A1,169.5,1.0,100,108.0
3459,G6,169.5,1.0,100,108.0
3460,G5,169.5,1.0,100,108.0
3461,E4,169.5,1.0,100,108.0
3462,A4,169.5,0.5,127,108.0
3463,F#3,169.5,1.0,125,108.0
3464,E4,169.5,0.25,100,108.0
3465,G4,169.5,0.25,100,108.0
3466,C4,169.5,0.25,100,108.0
3467,G4,169.517,1.0,100,108.0
3468,E4,169.75,0.25,100,108.0
3469,C4,169.75,0.25,100,108.0
3470,G4,169.75,0.25,100,108.0
3471,G4,170.0,1.0,127,108.0
3472,F#3,170.0,1.0,125,108.0
3473,C2,170.0,1.0,125,108.0
3474,E4,170.0,73/250,100,108.0
3475,C4,170.0,73/250,100,108.0
3476,G4,170.0,73/250,100,108.0
3477,F#2,170.0,1.0,125,108.0
3478,E2,170.0,1.0,125,108.0
3479,G1,170.5,0.5,100,108.0
3480,A6,170.5,417/1000,100,108.0
3481,A5,170.5,417/1000,100,108.0
3482,F#3,170.5,1.0,125,108.0
3483,E4,170.5,0.25,100,108.0
3484,G4,170.5,0.25,100,108.0
3485,C4,170.5,0.25,100,108.0
3486,E4,170.75,0.25,100,108.0
3487,C4,170.75,0.25,100,108.0
3488,G4,170.75,0.25,100,108.0
3489,A1,171.0,0.5,100,108.0
3490,G6,171.0,1.0,100,108.0
3491,G5,171.0,1.0,100,108.0
3492,F#3,171.0,1.0,125,108.0
3493,C2,171.0,1.0,125,108.0
3494,C4,171.0,73/250,100,108.0
3495,E4,171.0,73/250,100,108.0
3496,G4,171.0,73/250,100,108.0
3497,F#2,171.0,1.0,125,108.0
3498,E2,171.0,1.0,125,108.0
3499,B-1,171.5,0.5,100,108.0
3500,G4,171.5,0.5,127,108.0
3501,F#3,171.5,0.5,125,108.0
3502,E4,171.5,0.25,100,108.0
3503,G4,171.5,0.25,100,108.0
3504,C4,171.5,0.25,100,108.0
3505,E4,171.75,0.25,100,108.0
3506,C4,171.75,0.25,100,108.0
3507,G4,171.75,0.25,100,108.0
3508,B1,172.0,667/1000,100,108.0
3509,B6,172.0,417/1000,100,108.0
3510,B5,172.0,417/1000,100,108.0
3511,B4,172.0,1.0,100,108.0
3512,D5,172.0,1.0,127,108.0
3513,F#3,172.0,1.0,125,108.0
3514,F#3,172.0,0.5,125,108.0
3515,C2,172.0,1.0,125,108.0
3516,D4,172.0,73/250,100,108.0
3517,B3,172.0,73/250,100,108.0
3518,G4,172.0,73/250,100,108.0
3519,F#2,172.0,1.0,125,108.0
3520,E2,172.0,1.0,125,108.0
3521,G4,172.017,1.0,100,108.0
3522,F#3,172.5,1.0,125,108.0
3523,D4,172.5,0.25,100,108.0
3524,G4,172.5,0.25,100,108.0
3525,B3,172.5,0.25,100,108.0
3526,D4,172.75,0.25,100,108.0
3527,B3,172.75,0.25,100,108.0
3528,G4,172.75,0.25,100,108.0
3529,B1,173.0,1.0,100,108.0
3530,B6,173.0,1.5,100,108.0
3531,B5,173.0,1.5,100,108.0
3532,B4,173.0,1.0,100,108.0
3533,B4,173.0,1.0,127,108.0
3534,F#3,173.0,1.0,125,108.0
3535,C2,173.0,1.0,125,108.0
3536,B3,173.0,73/250,100,108.0
3537,D4,173.0,73/250,100,108.0
3538,G4,173.0,73/250,100,108.0
3539,F#2,173.0,1.0,125,108.0
3540,E2,173.0,1.0,125,108.0
3541,G4,173.017,1.0,100,108.0
3542,F#3,173.5,1.0,125,108.0
3543,D4,173.5,0.25,100,108.0
3544,G4,173.5,0.25,100,108.0
3545,B3,173.5,0.25,100,108.0
3546,D4,173.75,0.25,100,108.0
3547,B3,173.75,0.25,100,108.0
3548,G4,173.75,0.25,100,108.0
3549,F#3,174.0,1.0,125,108.0
3550,C2,174.0,1.0,125,108.0
3551,D4,174.0,73/250,100,108.0
3552,B3,174.0,73/250,100,108.0
3553,G4,174.0,73/250,100,108.0
3554,F#2,174.0,1.0,125,108.0
3555,E2,174.0,1.0,125,108.0
3556,C2,174.5,0.5,100,108.0
3557,B6,174.5,417/1000,100,108.0
3558,B5,174.5,417/1000,100,108.0
3559,G4,174.5,0.5,127,108.0
3560,F#3,174.5,1.0,125,108.0
3561,D4,174.5,0.25,100,108.0
3562,G4,174.5,0.25,100,108.0
3563,B3,174.5,0.25,100,108.0
3564,D4,174.75,0.25,100,108.0
3565,B3,174.75,0.25,100,108.0
3566,G4,174.75,0.25,100,108.0
3567,C#2,175.0,0.5,100,108.0
3568,B6,175.0,417/1000,100,108.0
3569,B5,175.0,417/1000,100,108.0
3570,F#3,175.0,1.0,125,108.0
3571,C2,175.0,1.0,125,108.0
3572,B3,175.0,73/250,100,108.0
3573,D4,175.0,73/250,100,108.0
3574,G4,175.0,73/250,100,108.0
3575,F#2,175.0,1.0,125,108.0
3576,E2,175.0,1.0,125,108.0
3577,D2,175.5,0.5,100,108.0
3578,A6,175.5,0.5,100,108.0
3579,A5,175.5,0.5,100,108.0
3580,E4,175.5,0.5,100,108.0
3581,D5,175.5,0.5,127,108.0
3582,F#3,175.5,0.5,125,108.0
3583,E4,175.5,0.25,100,108.0
3584,G4,175.5,0.25,100,108.0
3585,C4,175.5,0.25,100,108.0
3586,G4,175.517,483/1000,100,108.0
3587,E4,175.75,0.25,100,108.0
3588,C4,175.75,0.25,100,108.0
3589,G4,175.75,0.25,100,108.0
3590,D2,176.0,0.5,100,108.0
3591,A6,176.0,0.5,100,108.0
3592,A5,176.0,0.5,100,108.0
3593,E4,176.0,0.5,100,108.0
3594,G4,176.0,517/1000,100,108.0
3595,D5,176.0,0.5,127,108.0
3596,F#3,176.0,1.0,125,108.0
3597,F#3,176.0,0.5,125,108.0
3598,C2,176.0,1.0,125,108.0
3599,E4,176.0,73/250,100,108.0
3600,C4,176.0,73/250,100,108.0
3601,G4,176.0,73/250,100,108.0
3602,F#2,176.0,1.0,125,108.0
3603,E2,176.0,1.0,125,108.0
3604,D2,176.5,1.0,100,108.0
3605,G6,176.5,1.0,100,108.0
3606,G5,176.5,1.0,100,108.0
3607,D4,176.5,1.0,100,108.0
3608,E5,176.5,1.0,127,108.0
3609,F#3,176.5,1.0,125,108.0
3610,E4,176.5,0.25,100,108.0
3611,G4,176.5,0.25,100,108.0
3612,C4,176.5,0.25,100,108.0
3613,G4,176.517,1.0,100,108.0
3614,E4,176.75,0.25,100,108.0
3615,C4,176.75,0.25,100,108.0
3616,G4,176.75,0.25,100,108.0
3617,F#3,177.0,1.0,125,108.0
3618,C2,177.0,1.0,125,108.0
3619,C4,177.0,73/250,100,108.0
3620,E4,177.0,73/250,100,108.0
3621,G4,177.0,73/250,100,108.0
3622,F#2,177.0,1.0,125,108.0
3623,E2,177.0,1.0,125,108.0
3624,D2,177.5,1.0,100,108.0
3625,G6,177.5,1.0,100,108.0
3626,G5,177.5,1.0,100,108.0
3627,G4,177.5,1.0,100,108.0
3628,B4,177.5,0.25,127,108.0
3629,F#3,177.5,1.0,125,108.0
3630,E4,177.5,0.25,100,108.0
3631,G4,177.5,0.25,100,108.0
3632,C4,177.5,0.25,100,108.0
3633,G4,177.517,1.0,100,108.0
3634,A4,177.75,0.25,127,108.0
3635,E2,177.75,1.0,125,108.0
3636,E4,177.75,0.25,100,108.0
3637,C4,177.75,0.25,100,108.0
3638,G4,177.75,0.25,100,108.0
3639,G4,178.0,1.0,127,108.0
3640,E2,178.0,1.0,125,108.0
3641,F#3,178.0,1.0,125,108.0
3642,C2,178.0,1.0,125,108.0
3643,E4,178.0,73/250,100,108.0
3644,C4,178.0,73/250,100,108.0
3645,G4,178.0,73/250,100,108.0
3646,E2,178.25,1.0,125,108.0
3647,D2,178.5,417/1000,100,108.0
3648,A6,178.5,417/1000,100,108.0
3649,A5,178.5,417/1000,100,108.0
3650,E2,178.5,1.0,125,108.0
3651,F#3,178.5,1.0,125,108.0
3652,E4,178.5,0.25,100,108.0
3653,G4,178.5,0.25,100,108.0
3654,C4,178.5,0.25,100,108.0
3655,E2,178.75,1.0,125,108.0
3656,E4,178.75,0.25,100,108.0
3657,C4,178.75,0.25,100,108.0
3658,G4,178.75,0.25,100,108.0
3659,D2,179.0,0.5,100,108.0
3660,G6,179.0,1.0,100,108.0
3661,G5,179.0,1.0,100,108.0
3662,E2,179.0,1.0,125,108.0
3663,F#3,179.0,1.0,125,108.0
3664,C2,179.0,1.0,125,108.0
3665,C4,179.0,73/250,100,108.0
3666,E4,179.0,73/250,100,108.0
3667,G4,179.0,73/250,100,108.0
3668,E2,179.25,0.75,125,108.0
3669,E2,179.5,26/125,100,108.0
3670,E2,179.5,0.5,125,108.0
3671,F#3,179.5,0.5,125,108.0
3672,E4,179.5,0.25,100,108.0
3673,G4,179.5,0.25,100,108.0
3674,C4,179.5,0.25,100,108.0
3675,F#2,179.75,26/125,100,108.0
3676,E2,179.75,0.25,125,108.0
3677,E4,179.75,0.25,100,108.0
3678,C4,179.75,0.25,100,108.0
3679,G4,179.75,0.25,100,108.0
3680,G2,180.0,417/1000,100,108.0
3681,A3,180.0,417/1000,127,108.0
3682,D6,180.0,417/1000,100,108.0
3683,D5,180.0,417/1000,100,108.0
3684,E2,180.0,0.25,125,108.0
3685,E2,180.0,0.5,125,108.0
3686,E2,180.0,0.75,125,108.0
3687,F#3,180.0,1.0,125,108.0
3688,F#3,180.0,0.5,125,108.0
3689,C2,180.0,1.0,125,108.0
3690,D4,180.0,73/250,100,108.0
3691,B3,180.0,73/250,100,108.0
3692,G4,180.0,73/250,100,108.0
3693,F#2,180.0,1.0,125,108.0
3694,E2,180.0,1.0,125,108.0
3695,A3,180.017,417/1000,127,108.0
3696,F#2,180.5,417/1000,100,108.0
3697,A3,180.5,417/1000,127,108.0
3698,F#3,180.5,1.0,125,108.0
3699,D4,180.5,0.25,100,108.0
3700,G4,180.5,0.25,100,108.0
3701,B3,180.5,0.25,100,108.0
3702,A3,180.517,417/1000,127,108.0
3703,D4,180.75,0.25,100,108.0
3704,B3,180.75,0.25,100,108.0
3705,G4,180.75,0.25,100,108.0
3706,E2,181.0,0.5,100,108.0
3707,G3,181.0,0.5,127,108.0
3708,D6,181.0,1.5,100,108.0
3709,D5,181.0,1.5,100,108.0
3710,F#3,181.0,1.0,125,108.0
3711,C2,181.0,1.0,125,108.0
3712,B3,181.0,73/250,100,108.0
3713,D4,181.0,73/250,100,108.0
3714,G4,181.0,73/250,100,108.0
3715,F#2,181.0,1.0,125,108.0
3716,E2,181.0,1.0,125,108.0
3717,G3,181.017,0.5,127,108.0
3718,D2,181.5,1.0,100,108.0
3719,G3,181.5,1.0,127,108.0
3720,F#3,181.5,1.0,125,108.0
3721,D4,181.5,0.25,100,108.0
3722,G4,181.5,0.25,100,108.0
3723,B3,181.5,0.25,100,108.0
3724,G3,181.517,1.0,127,108.0
3725,D4,181.75,0.25,100,108.0
3726,B3,181.75,0.25,100,108.0
3727,G4,181.75,0.25,100,108.0
3728,F#3,182.0,1.0,125,108.0
3729,C2,182.0,1.0,125,108.0
3730,D4,182.0,73/250,100,108.0
3731,B3,182.0,73/250,100,108.0
3732,G4,182.0,73/250,100,108.0
3733,F#2,182.0,1.0,125,108.0
3734,E2,182.0,1.0,125,108.0
3735,B1,182.5,0.5,100,108.0
3736,D6,182.5,0.5,100,108.0
3737,D5,182.5,0.5,100,108.0
3738,F#3,182.5,1.0,125,108.0
3739,D4,182.5,0.25,100,108.0
3740,G4,182.5,0.25,100,108.0
3741,B3,182.5,0.25,100,108.0
3742,D4,182.75,0.25,100,108.0
3743,B3,182.75,0.25,100,108.0
3744,G4,182.75,0.25,100,108.0
3745,G1,183.0,0.5,100,108.0
3746,D6,183.0,0.5,100,108.0
3747,D5,183.0,0.5,100,108.0
3748,F#3,183.0,1.0,125,108.0
3749,C2,183.0,1.0,125,108.0
3750,B3,183.0,73/250,100,108.0
3751,D4,183.0,73/250,100,108.0
3752,G4,183.0,73/250,100,108.0
3753,F#2,183.0,1.0,125,108.0
3754,E2,183.0,1.0,125,108.0
3755,G2,183.5,0.5,100,108.0
3756,B3,183.5,0.5,127,108.0
3757,G6,183.5,417/1000,100,108.0
3758,G5,183.5,417/1000,100,108.0
3759,F#3,183.5,0.5,125,108.0
3760,D4,183.5,0.25,100,108.0
3761,G4,183.5,0.25,100,108.0
3762,B3,183.5,0.25,100,108.0
3763,B3,183.517,483/1000,127,108.0
3764,D4,183.75,0.25,100,108.0
3765,B3,183.75,0.25,100,108.0
3766,G4,183.75,0.25,100,108.0
3767,G2,184.0,0.5,100,108.0
3768,B3,184.0,0.5,127,108.0
3769,B3,184.0,517/1000,127,108.0
3770,F#3,184.0,1.0,125,108.0
3771,F#3,184.0,0.5,125,108.0
3772,C2,184.0,1.0,125,108.0
3773,D5,184.0,4.0,100,108.0
3774,D3,184.0,4.0,100,108.0
3775,D4,184.0,73/250,100,108.0
3776,B3,184.0,73/250,100,108.0
3777,G4,184.0,73/250,100,108.0
3778,F#2,184.0,1.0,125,108.0
3779,E2,184.0,1.0,125,108.0
3780,F#2,184.5,1.0,100,108.0
3781,A3,184.5,417/1000,127,108.0
3782,F#6,184.5,417/1000,100,108.0
3783,F#5,184.5,417/1000,100,108.0
3784,F#3,184.5,1.0,125,108.0
3785,D4,184.5,0.25,100,108.0
3786,G4,184.5,0.25,100,108.0
3787,B3,184.5,0.25,100,108.0
3788,A3,184.517,417/1000,127,108.0
3789,D4,184.75,0.25,100,108.0
3790,B3,184.75,0.25,100,108.0
3791,G4,184.75,0.25,100,108.0
3792,G3,185.0,0.5,127,108.0
3793,F#3,185.0,1.0,125,108.0
3794,C2,185.0,1.0,125,108.0
3795,B3,185.0,73/250,100,108.0
3796,D4,185.0,73/250,100,108.0
3797,G4,185.0,73/250,100,108.0
3798,F#2,185.0,1.0,125,108.0
3799,E2,185.0,1.0,125,108.0
3800,G3,185.017,0.5,127,108.0
3801,D2,185.5,1.0,100,108.0
3802,G3,185.5,1.0,127,108.0
3803,G6,185.5,417/1000,100,108.0
3804,G5,185.5,417/1000,100,108.0
3805,F#3,185.5,1.0,125,108.0
3806,D4,185.5,0.25,100,108.0
3807,G4,185.5,0.25,100,108.0
3808,B3,185.5,0.25,100,108.0
3809,G3,185.517,1.0,127,108.0
3810,D4,185.75,0.25,100,108.0
3811,B3,185.75,0.25,100,108.0
3812,G4,185.75,0.25,100,108.0
3813,F#3,186.0,1.0,125,108.0
3814,C2,186.0,1.0,125,108.0
3815,D4,186.0,73/250,100,108.0
3816,B3,186.0,73/250,100,108.0
3817,G4,186.0,73/250,100,108.0
3818,F#2,186.0,1.0,125,108.0
3819,E2,186.0,1.0,125,108.0
3820,B1,186.5,0.5,100,108.0
3821,F#6,186.5,417/1000,100,108.0
3822,F#5,186.5,417/1000,100,108.0
3823,F#3,186.5,1.0,125,108.0
3824,D4,186.5,0.25,100,108.0
3825,G4,186.5,0.25,100,108.0
3826,B3,186.5,0.25,100,108.0
3827,D4,186.75,0.25,100,108.0
3828,B3,186.75,0.25,100,108.0
3829,G4,186.75,0.25,100,108.0
3830,G1,187.0,0.5,100,108.0
3831,G3,187.0,417/1000,127,108.0
3832,D6,187.0,0.5,100,108.0
3833,D5,187.0,0.5,100,108.0
3834,F#3,187.0,1.0,125,108.0
3835,C2,187.0,1.0,125,108.0
3836,B3,187.0,73/250,100,108.0
3837,D4,187.0,73/250,100,108.0
3838,G4,187.0,73/250,100,108.0
3839,F#2,187.0,1.0,125,108.0
3840,E2,187.0,1.0,125,108.0
3841,G3,187.017,417/1000,127,108.0
3842,D2,187.5,26/125,100,108.0
3843,G3,187.5,417/1000,127,108.0
3844,B5,187.5,0.5,100,108.0
3845,B4,187.5,0.5,100,108.0
3846,F#3,187.5,0.5,125,108.0
3847,D4,187.5,0.25,100,108.0
3848,G4,187.5,0.25,100,108.0
3849,B3,187.5,0.25,100,108.0
3850,G3,187.517,417/1000,127,108.0
3851,E2,187.75,26/125,100,108.0
3852,D4,187.75,0.25,100,108.0
3853,B3,187.75,0.25,100,108.0
3854,G4,187.75,0.25,100,108.0
3855,F#2,188.0,417/1000,100,108.0
3856,A3,188.0,417/1000,127,108.0
3857,F#3,188.0,1.0,125,108.0
3858,F#3,188.0,0.5,125,108.0
3859,C2,188.0,1.0,125,108.0
3860,D5,188.0,333/1000,100,108.0
3861,D3,188.0,333/1000,100,108.0
3862,D4,188.0,73/250,100,108.0
3863,A3,188.0,73/250,100,108.0
3864,F#4,188.0,73/250,100,108.0
3865,D5,188.0,833/1000,100,108.0
3866,D6,188.0,833/1000,100,108.0
3867,F#2,188.0,1.0,125,108.0
3868,E2,188.0,1.0,125,108.0
3869,A3,188.017,417/1000,127,108.0
3870,E2,188.5,417/1000,100,108.0
3871,G3,188.5,417/1000,127,108.0
3872,F#3,188.5,1.0,125,108.0
3873,D4,188.5,0.25,100,108.0
3874,F#4,188.5,0.25,100,108.0
3875,A3,188.5,0.25,100,108.0
3876,G3,188.517,417/1000,127,108.0
3877,D4,188.75,0.25,100,108.0
3878,A3,188.75,0.25,100,108.0
3879,F#4,188.75,0.25,100,108.0
3880,D2,189.0,0.5,100,108.0
3881,F#3,189.0,0.5,127,108.0
3882,D6,189.0,1.0,100,108.0
3883,D5,189.0,1.0,100,108.0
3884,F#3,189.0,1.0,125,108.0
3885,C2,189.0,1.0,125,108.0
3886,D5,189.0,2.0,100,108.0
3887,D3,189.0,2.0,100,108.0
3888,A3,189.0,73/250,100,108.0
3889,D4,189.0,73/250,100,108.0
3890,F#4,189.0,73/250,100,108.0
3891,F#2,189.0,1.0,125,108.0
3892,E2,189.0,1.0,125,108.0
3893,F#3,189.017,0.5,127,108.0
3894,D2,189.5,1.0,100,108.0
3895,F#3,189.5,1.0,127,108.0
3896,F#3,189.5,1.0,125,108.0
3897,D4,189.5,0.25,100,108.0
3898,F#4,189.5,0.25,100,108.0
3899,A3,189.5,0.25,100,108.0
3900,F#3,189.517,1.0,127,108.0
3901,D4,189.75,0.25,100,108.0
3902,A3,189.75,0.25,100,108.0
3903,F#4,189.75,0.25,100,108.0
3904,F#3,190.0,1.0,125,108.0
3905,C2,190.0,1.0,125,108.0
3906,D4,190.0,73/250,100,108.0
3907,A3,190.0,73/250,100,108.0
3908,F#4,190.0,73/250,100,108.0
3909,F#2,190.0,1.0,125,108.0
3910,E2,190.0,1.0,125,108.0
3911,A1,190.5,0.5,100,108.0
3912,D6,190.5,417/1000,100,108.0
3913,D5,190.5,417/1000,100,108.0
3914,F#3,190.5,1.0,125,108.0
3915,D4,190.5,0.25,100,108.0
3916,F#4,190.5,0.25,100,108.0
3917,A3,190.5,0.25,100,108.0
3918,D4,190.75,0.25,100,108.0
3919,A3,190.75,0.25,100,108.0
3920,F#4,190.75,0.25,100,108.0
3921,F#1,191.0,0.5,100,108.0
3922,D6,191.0,417/1000,100,108.0
3923,D5,191.0,417/1000,100,108.0
3924,F#3,191.0,1.0,125,108.0
3925,C2,191.0,1.0,125,108.0
3926,A3,191.0,73/250,100,108.0
3927,D4,191.0,73/250,100,108.0
3928,F#4,191.0,73/250,100,108.0
3929,F#2,191.0,1.0,125,108.0
3930,E2,191.0,1.0,125,108.0
3931,F#2,191.5,0.5,100,108.0
3932,F#6,191.5,0.5,100,108.0
3933,F#5,191.5,0.5,100,108.0
3934,F#3,191.5,0.5,125,108.0
3935,D4,191.5,0.25,100,108.0
3936,F#4,191.5,0.25,100,108.0
3937,A3,191.5,0.25,100,108.0
3938,D4,191.75,0.25,100,108.0
3939,A3,191.75,0.25,100,108.0
3940,F#4,191.75,0.25,100,108.0
3941,F#2,192.0,0.5,100,108.0
3942,A3,192.0,0.5,127,108.0
3943,F#6,192.0,0.5,100,108.0
3944,F#5,192.0,0.5,100,108.0
3945,F#3,192.0,1.0,125,108.0
3946,F#3,192.0,0.5,125,108.0
3947,C2,192.0,1.0,125,108.0
3948,D5,192.0,4.0,100,108.0
3949,D3,192.0,4.0,100,108.0
3950,D4,192.0,73/250,100,108.0
3951,A3,192.0,73/250,100,108.0
3952,F#4,192.0,73/250,100,108.0
3953,F#2,192.0,1.0,125,108.0
3954,E2,192.0,1.0,125,108.0
3955,A3,192.017,0.5,127,108.0
3956,E2,192.5,1.0,100,108.0
3957,G3,192.5,417/1000,127,108.0
3958,E6,192.5,1.0,100,108.0
3959,E5,192.5,1.0,100,108.0
3960,F#3,192.5,1.0,125,108.0
3961,D4,192.5,0.25,100,108.0
3962,F#4,192.5,0.25,100,108.0
3963,A3,192.5,0.25,100,108.0
3964,G3,192.517,417/1000,127,108.0
3965,D4,192.75,0.25,100,108.0
3966,A3,192.75,0.25,100,108.0
3967,F#4,192.75,0.25,100,108.0
3968,F#3,193.0,0.5,127,108.0
3969,F#3,193.0,1.0,125,108.0
3970,C2,193.0,1.0,125,108.0
3971,A3,193.0,73/250,100,108.0
3972,D4,193.0,73/250,100,108.0
3973,F#4,193.0,73/250,100,108.0
3974,F#2,193.0,1.0,125,108.0
3975,E2,193.0,1.0,125,108.0
3976,F#3,193.017,0.5,127,108.0
3977,D2,193.5,1.0,100,108.0
3978,F#3,193.5,1.0,127,108.0
3979,D6,193.5,1.0,100,108.0
3980,D5,193.5,1.0,100,108.0
3981,F#3,193.5,1.0,125,108.0
3982,D4,193.5,0.25,100,108.0
3983,F#4,193.5,0.25,100,108.0
3984,A3,193.5,0.25,100,108.0
3985,F#3,193.517,1.0,127,108.0
3986,D4,193.75,0.25,100,108.0
3987,A3,193.75,0.25,100,108.0
3988,F#4,193.75,0.25,100,108.0
3989,F#3,194.0,1.0,125,108.0
3990,C2,194.0,1.0,125,108.0
3991,D4,194.0,73/250,100,108.0
3992,A3,194.0,73/250,100,108.0
3993,F#4,194.0,73/250,100,108.0
3994,F#2,194.0,1.0,125,108.0
3995,E2,194.0,1.0,125,108.0
3996,A1,194.5,0.5,100,108.0
3997,E6,194.5,417/1000,100,108.0
3998,E5,194.5,417/1000,100,108.0
3999,F#3,194.5,1.0,125,108.0
4000,D4,194.5,0.25,100,108.0
4001,F#4,194.5,0.25,100,108.0
4002,A3,194.5,0.25,100,108.0
4003,D4,194.75,0.25,100,108.0
4004,A3,194.75,0.25,100,108.0
4005,F#4,194.75,0.25,100,108.0
4006,F#1,195.0,1.0,100,108.0
4007,D3,195.0,0.5,127,108.0
4008,F#6,195.0,1.0,100,108.0
4009,F#5,195.0,1.0,100,108.0
4010,F#3,195.0,1.0,125,108.0
4011,C2,195.0,1.0,125,108.0
4012,A3,195.0,73/250,100,108.0
4013,D4,195.0,73/250,100,108.0
4014,F#4,195.0,73/250,100,108.0
4015,F#2,195.0,1.0,125,108.0
4016,E2,195.0,1.0,125,108.0
4017,D3,195.017,0.5,127,108.0
4018,D3,195.5,0.5,127,108.0
4019,F#3,195.5,0.5,125,108.0
4020,D4,195.5,0.25,100,108.0
4021,F#4,195.5,0.25,100,108.0
4022,A3,195.5,0.25,100,108.0
4023,D3,195.517,483/1000,127,108.0
4024,D4,195.75,0.25,100,108.0
4025,A3,195.75,0.25,100,108.0
4026,F#4,195.75,0.25,100,108.0
4027,B1,196.0,0.5,100,108.0
4028,E3,196.0,0.5,127,108.0
4029,D3,196.0,17/1000,127,108.0
4030,E6,196.0,1.0,100,108.0
4031,E5,196.0,1.0,100,108.0
4032,F#3,196.0,1.0,125,108.0
4033,F#3,196.0,0.5,125,108.0
4034,C2,196.0,1.0,125,108.0
4035,C4,196.0,73/250,100,108.0
4036,G3,196.0,73/250,100,108.0
4037,E4,196.0,73/250,100,108.0
4038,F#2,196.0,1.0,125,108.0
4039,E2,196.0,1.0,125,108.0
4040,E3,196.017,0.5,127,108.0
4041,A1,196.5,0.5,100,108.0
4042,G3,196.5,0.5,127,108.0
4043,F#3,196.5,1.0,125,108.0
4044,C4,196.5,0.25,100,108.0
4045,E4,196.5,0.25,100,108.0
4046,G3,196.5,0.25,100,108.0
4047,G3,196.517,0.5,127,108.0
4048,C4,196.75,0.25,100,108.0
4049,G3,196.75,0.25,100,108.0
4050,E4,196.75,0.25,100,108.0
4051,G1,197.0,0.5,100,108.0
4052,G3,197.0,0.5,127,108.0
4053,E6,197.0,1.0,100,108.0
4054,E5,197.0,1.0,100,108.0
4055,F#3,197.0,1.0,125,108.0
4056,C2,197.0,1.0,125,108.0
4057,G3,197.0,73/250,100,108.0
4058,C4,197.0,73/250,100,108.0
4059,E4,197.0,73/250,100,108.0
4060,F#2,197.0,1.0,125,108.0
4061,E2,197.0,1.0,125,108.0
4062,G3,197.017,0.5,127,108.0
4063,G1,197.5,1.0,100,108.0
4064,G3,197.5,1.0,127,108.0
4065,F#3,197.5,1.0,125,108.0
4066,C4,197.5,0.25,100,108.0
4067,E4,197.5,0.25,100,108.0
4068,G3,197.5,0.25,100,108.0
4069,G3,197.517,1.0,127,108.0
4070,C4,197.75,0.25,100,108.0
4071,G3,197.75,0.25,100,108.0
4072,E4,197.75,0.25,100,108.0
4073,F#3,198.0,1.0,125,108.0
4074,C2,198.0,1.0,125,108.0
4075,C4,198.0,73/250,100,108.0
4076,G3,198.0,73/250,100,108.0
4077,E4,198.0,73/250,100,108.0
4078,F#2,198.0,1.0,125,108.0
4079,E2,198.0,1.0,125,108.0
4080,E1,198.5,0.5,100,108.0
4081,E6,198.5,417/1000,100,108.0
4082,E5,198.5,417/1000,100,108.0
4083,F#3,198.5,1.0,125,108.0
4084,C4,198.5,0.25,100,108.0
4085,E4,198.5,0.25,100,108.0
4086,G3,198.5,0.25,100,108.0
4087,C4,198.75,0.25,100,108.0
4088,G3,198.75,0.25,100,108.0
4089,E4,198.75,0.25,100,108.0
4090,G1,199.0,0.5,100,108.0
4091,G3,199.0,0.5,127,108.0
4092,G6,199.0,417/1000,100,108.0
4093,G5,199.0,417/1000,100,108.0
4094,F#3,199.0,1.0,125,108.0
4095,C2,199.0,1.0,125,108.0
4096,G3,199.0,73/250,100,108.0
4097,C4,199.0,73/250,100,108.0
4098,E4,199.0,73/250,100,108.0
4099,F#2,199.0,1.0,125,108.0
4100,E2,199.0,1.0,125,108.0
4101,G3,199.017,0.5,127,108.0
4102,B1,199.5,0.5,100,108.0
4103,G3,199.5,0.5,127,108.0
4104,B6,199.5,0.5,100,108.0
4105,B5,199.5,0.5,100,108.0
4106,F#3,199.5,0.5,125,108.0
4107,C4,199.5,0.25,100,108.0
4108,E4,199.5,0.25,100,108.0
4109,G3,199.5,0.25,100,108.0
4110,G3,199.517,483/1000,127,108.0
4111,C4,199.75,0.25,100,108.0
4112,G3,199.75,0.25,100,108.0
4113,E4,199.75,0.25,100,108.0
4114,B1,200.0,0.5,100,108.0
4115,G3,200.0,0.5,127,108.0
4116,G3,200.0,17/1000,127,108.0
4117,F#3,200.0,1.0,125,108.0
4118,F#3,200.0,0.5,125,108.0
4119,C2,200.0,1.0,125,108.0
4120,C4,200.0,73/250,100,108.0
4121,G3,200.0,73/250,100,108.0
4122,E4,200.0,73/250,100,108.0
4123,F#2,200.0,1.0,125,108.0
4124,E2,200.0,1.0,125,108.0
4125,G3,200.017,0.5,127,108.0
4126,A1,200.5,1.0,100,108.0
4127,A3,200.5,0.5,127,108.0
4128,A6,200.5,1.0,100,108.0
4129,A5,200.5,1.0,100,108.0
4130,F#3,200.5,1.0,125,108.0
4131,C4,200.5,0.25,100,108.0
4132,E4,200.5,0.25,100,108.0
4133,G3,200.5,0.25,100,108.0
4134,A3,200.517,0.5,127,108.0
4135,C4,200.75,0.25,100,108.0
4136,G3,200.75,0.25,100,108.0
4137,E4,200.75,0.25,100,108.0
4138,B3,201.0,0.5,127,108.0
4139,F#3,201.0,1.0,125,108.0
4140,C2,201.0,1.0,125,108.0
4141,G3,201.0,73/250,100,108.0
4142,C4,201.0,73/250,100,108.0
4143,E4,201.0,73/250,100,108.0
4144,F#2,201.0,1.0,125,108.0
4145,E2,201.0,1.0,125,108.0
4146,B3,201.017,0.5,127,108.0
4147,G1,201.5,1.0,100,108.0
4148,D3,201.5,1.0,127,108.0
4149,G6,201.5,1.0,100,108.0
4150,G5,201.5,1.0,100,108.0
4151,F#3,201.5,1.0,125,108.0
4152,C4,201.5,0.25,100,108.0
4153,E4,201.5,0.25,100,108.0
4154,G3,201.5,0.25,100,108.0
4155,D3,201.517,1.0,127,108.0
4156,C4,201.75,0.25,100,108.0
4157,G3,201.75,0.25,100,108.0
4158,E4,201.75,0.25,100,108.0
4159,F#3,202.0,1.0,125,108.0
4160,C2,202.0,1.0,125,108.0
4161,C4,202.0,73/250,100,108.0
4162,G3,202.0,73/250,100,108.0
4163,E4,202.0,73/250,100,108.0
4164,F#2,202.0,1.0,125,108.0
4165,E2,202.0,1.0,125,108.0
4166,E1,202.5,0.5,100,108.0
4167,A6,202.5,417/1000,100,108.0
4168,A5,202.5,417/1000,100,108.0
4169,F#3,202.5,1.0,125,108.0
4170,C4,202.5,0.25,100,108.0
4171,E4,202.5,0.25,100,108.0
4172,G3,202.5,0.25,100,108.0
4173,C4,202.75,0.25,100,108.0
4174,G3,202.75,0.25,100,108.0
4175,E4,202.75,0.25,100,108.0
4176,G1,203.0,0.5,100,108.0
4177,D3,203.0,0.5,127,108.0
4178,G6,203.0,1.0,100,108.0
4179,G5,203.0,1.0,100,108.0
4180,F#3,203.0,1.0,125,108.0
4181,C2,203.0,1.0,125,108.0
4182,G3,203.0,73/250,100,108.0
4183,C4,203.0,73/250,100,108.0
4184,E4,203.0,73/250,100,108.0
4185,F#2,203.0,1.0,125,108.0
4186,E2,203.0,1.0,125,108.0
4187,D3,203.017,0.5,127,108.0
4188,A1,203.5,0.5,100,108.0
4189,D3,203.5,0.5,127,108.0
4190,F#3,203.5,0.5,125,108.0
4191,C4,203.5,0.25,100,108.0
4192,E4,203.5,0.25,100,108.0
4193,G3,203.5,0.25,100,108.0
4194,D3,203.517,483/1000,127,108.0
4195,C4,203.75,0.25,100,108.0
4196,G3,203.75,0.25,100,108.0
4197,E4,203.75,0.25,100,108.0
4198,G1,204.0,417/1000,100,108.0
4199,D3,204.0,1.0,127,108.0
4200,D3,204.0,17/1000,127,108.0
4201,F#3,204.0,1.0,125,108.0
4202,F#3,204.0,0.5,125,108.0
4203,G2,204.0,417/1000,100,108.0
4204,F#2,204.0,1.0,125,108.0
4205,E2,204.0,1.0,125,108.0
4206,D3,204.017,1.0,127,108.0
4207,G2,204.5,417/1000,100,108.0
4208,F#3,204.5,1.0,125,108.0
4209,G3,204.5,417/1000,100,108.0
4210,F2,205.0,417/1000,100,108.0
4211,F#3,205.0,1.0,125,108.0
4212,F3,205.0,417/1000,100,108.0
4213,F#2,205.0,1.0,125,108.0
4214,E2,205.0,1.0,125,108.0
4215,D2,205.5,1.0,100,108.0
4216,F#3,205.5,1.0,125,108.0
4217,D3,205.5,1.0,100,108.0
4218,F#3,206.0,1.0,125,108.0
4219,F#2,206.0,1.0,125,108.0
4220,E2,206.0,1.0,125,108.0
4221,C2,206.5,1.0,100,108.0
4222,F#3,206.5,1.0,125,108.0
4223,C3,206.5,1.0,100,108.0
4224,F#3,207.0,1.0,125,108.0
4225,F#2,207.0,1.0,125,108.0
4226,E2,207.0,1.0,125,108.0
4227,G#1,207.5,0.5,100,108.0
4228,G4,207.5,0.5,127,108.0
4229,F#3,207.5,0.5,125,108.0
4230,G#2,207.5,0.5,100,108.0
4231,G1,208.0,417/1000,100,108.0
4232,G4,208.0,4.0,127,108.0
4233,F#3,208.0,1.0,125,108.0
4234,F#3,208.0,0.5,125,108.0
4235,G2,208.0,417/1000,100,108.0
4236,F#2,208.0,1.0,125,108.0
4237,E2,208.0,1.0,125,108.0
4238,G2,208.5,417/1000,100,108.0
4239,F#3,208.5,1.0,125,108.0
4240,G3,208.5,417/1000,100,108.0
4241,F2,209.0,417/1000,100,108.0
4242,F#3,209.0,1.0,125,108.0
4243,F3,209.0,417/1000,100,108.0
4244,F#2,209.0,1.0,125,108.0
4245,E2,209.0,1.0,125,108.0
4246,D2,209.5,1.0,100,108.0
4247,F#3,209.5,1.0,125,108.0
4248,D3,209.5,1.0,100,108.0
4249,F#3,210.0,1.0,125,108.0
4250,F#2,210.0,1.0,125,108.0
4251,E2,210.0,1.0,125,108.0
4252,C2,210.5,1.0,100,108.0
4253,F#3,210.5,1.0,125,108.0
4254,C3,210.5,1.0,100,108.0
4255,F#3,211.0,1.0,125,108.0
4256,F#2,211.0,1.0,125,108.0
4257,E2,211.0,1.0,125,108.0
4258,G#1,211.5,0.5,100,108.0
4259,F#3,211.5,0.5,125,108.0
4260,G#2,211.5,0.5,100,108.0
4261,G1,212.0,417/1000,100,108.0
4262,G2,212.0,417/1000,127,108.0
4263,G2,212.0,417/1000,127,108.0
4264,G4,212.0,4.0,127,108.0
4265,F#3,212.0,1.0,125,108.0
4266,F#3,212.0,0.5,125,108.0
4267,G2,212.0,417/1000,100,108.0
4268,D4,212.0,73/250,100,108.0
4269,B3,212.0,73/250,100,108.0
4270,G4,212.0,73/250,100,108.0
4271,F#2,212.0,1.0,125,108.0
4272,E2,212.0,1.0,125,108.0
4273,G2,212.5,417/1000,100,108.0
4274,G3,212.5,417/1000,127,108.0
4275,G3,212.5,417/1000,127,108.0
4276,F#3,212.5,1.0,125,108.0
4277,G3,212.5,417/1000,100,108.0
4278,D4,212.75,0.25,100,108.0
4279,B3,212.75,0.25,100,108.0
4280,G4,212.75,0.25,100,108.0
4281,F2,213.0,417/1000,100,108.0
4282,F3,213.0,417/1000,127,108.0
4283,F3,213.0,417/1000,127,108.0
4284,F#3,213.0,1.0,125,108.0
4285,F3,213.0,417/1000,100,108.0
4286,B3,213.0,73/250,100,108.0
4287,D4,213.0,73/250,100,108.0
4288,G4,213.0,73/250,100,108.0
4289,F#2,213.0,1.0,125,108.0
4290,E2,213.0,1.0,125,108.0
4291,D2,213.5,1.0,100,108.0
4292,D3,213.5,1.0,127,108.0
4293,D3,213.5,1.0,127,108.0
4294,F#3,213.5,1.0,125,108.0
4295,D3,213.5,1.0,100,108.0
4296,F#3,214.0,1.0,125,108.0
4297,D4,214.0,73/250,100,108.0
4298,B3,214.0,73/250,100,108.0
4299,G4,214.0,73/250,100,108.0
4300,F#2,214.0,1.0,125,108.0
4301,E2,214.0,1.0,125,108.0
4302,C2,214.5,1.0,100,108.0
4303,C3,214.5,1.0,127,108.0
4304,C3,214.5,1.0,127,108.0
4305,F#3,214.5,1.0,125,108.0
4306,C3,214.5,1.0,100,108.0
4307,D4,214.75,0.25,100,108.0
4308,B3,214.75,0.25,100,108.0
4309,G4,214.75,0.25,100,108.0
4310,F#3,215.0,1.0,125,108.0
4311,B3,215.0,73/250,100,108.0
4312,D4,215.0,73/250,100,108.0
4313,G4,215.0,73/250,100,108.0
4314,F#2,215.0,1.0,125,108.0
4315,E2,215.0,1.0,125,108.0
4316,G#1,215.5,0.5,100,108.0
4317,G#2,215.5,0.5,127,108.0
4318,G#2,215.5,0.5,127,108.0
4319,F#3,215.5,0.5,125,108.0
4320,G#2,215.5,0.5,100,108.0
4321,G1,216.0,417/1000,100,108.0
4322,G2,216.0,417/1000,127,108.0
4323,G2,216.0,417/1000,127,108.0
4324,G4,216.0,1.5,127,108.0
4325,F#3,216.0,1.0,125,108.0
4326,F#3,216.0,0.5,125,108.0
4327,G2,216.0,417/1000,100,108.0
4328,D4,216.0,73/250,100,108.0
4329,B3,216.0,73/250,100,108.0
4330,G4,216.0,73/250,100,108.0
4331,F#2,216.0,1.0,125,108.0
4332,E2,216.0,1.0,125,108.0
4333,G2,216.5,417/1000,100,108.0
4334,G3,216.5,417/1000,127,108.0
4335,G3,216.5,417/1000,127,108.0
4336,F#3,216.5,1.0,125,108.0
4337,G3,216.5,417/1000,100,108.0
4338,G4,216.5,0.25,100,108.0
4339,B3,216.5,0.25,100,108.0
4340,D4,216.5,0.25,100,108.0
4341,F2,217.0,417/1000,100,108.0
4342,F3,217.0,417/1000,127,108.0
4343,F3,217.0,417/1000,127,108.0
4344,F#3,217.0,1.0,125,108.0
4345,F3,217.0,417/1000,100,108.0
4346,B3,217.0,73/250,100,108.0
4347,D4,217.0,73/250,100,108.0
4348,G4,217.0,73/250,100,108.0
4349,B-2,217.0,1.0,125,108.0
4350,E2,217.0,1.0,125,108.0
4351,D2,217.5,1.0,100,108.0
4352,D3,217.5,1.0,127,108.0
4353,D3,217.5,1.0,127,108.0
4354,F#3,217.5,1.0,125,108.0
4355,D3,217.5,1.0,100,108.0
4356,B4,218.0,0.5,127,108.0
4357,F#3,218.0,1.0,125,108.0
4358,D4,218.0,73/250,100,108.0
4359,B3,218.0,73/250,100,108.0
4360,G4,218.0,73/250,100,108.0
4361,F#2,218.0,1.0,125,108.0
4362,E2,218.0,1.0,125,108.0
4363,E2,218.25,1.0,125,108.0
4364,C2,218.5,1.0,100,108.0
4365,C3,218.5,1.0,127,108.0
4366,C3,218.5,1.0,127,108.0
4367,B4,218.5,0.5,127,108.0
4368,F#3,218.5,1.0,125,108.0
4369,C3,218.5,1.0,100,108.0
4370,E2,218.75,1.0,125,108.0
4371,D4,218.75,0.25,100,108.0
4372,B3,218.75,0.25,100,108.0
4373,G4,218.75,0.25,100,108.0
4374,A4,219.0,0.5,127,108.0
4375,F#3,219.0,1.0,125,108.0
4376,B3,219.0,73/250,100,108.0
4377,D4,219.0,73/250,100,108.0
4378,G4,219.0,73/250,100,108.0
4379,F#2,219.0,1.0,125,108.0
4380,E2,219.0,1.0,125,108.0
4381,G#1,219.5,0.5,100,108.0
4382,G#2,219.5,0.5,127,108.0
4383,G#2,219.5,0.5,127,108.0
4384,G4,219.5,0.5,127,108.0
4385,E2,219.5,0.5,125,108.0
4386,F#3,219.5,0.5,125,108.0
4387,G#2,219.5,0.5,100,108.0
4388,G2,220.0,417/1000,100,108.0
4389,A3,220.0,417/1000,127,108.0
4390,G5,220.0,417/1000,100,108.0
4391,G4,220.0,417/1000,100,108.0
4392,D4,220.0,1.0,100,108.0
4393,B4,220.0,1.0,127,108.0
4394,G4,220.0,0.5,127,108.0
4395,E2,220.0,0.5,125,108.0
4396,F#3,220.0,1.0,125,108.0
4397,F#3,220.0,0.5,125,108.0
4398,C2,220.0,1.0,125,108.0
4399,D4,220.0,73/250,100,108.0
4400,B3,220.0,73/250,100,108.0
4401,G4,220.0,73/250,100,108.0
4402,F#2,220.0,1.0,125,108.0
4403,E2,220.0,1.0,125,108.0
4404,D4,220.017,1.0,100,108.0
4405,F#2,220.5,417/1000,100,108.0
4406,A3,220.5,417/1000,127,108.0
4407,F#3,220.5,1.0,125,108.0
4408,D4,220.5,0.25,100,108.0
4409,G4,220.5,0.25,100,108.0
4410,B3,220.5,0.25,100,108.0
4411,D4,220.75,0.25,100,108.0
4412,B3,220.75,0.25,100,108.0
4413,G4,220.75,0.25,100,108.0
4414,E2,221.0,0.5,100,108.0
4415,G3,221.0,0.5,127,108.0
4416,G5,221.0,1.5,100,108.0
4417,G4,221.0,1.5,100,108.0
4418,E4,221.0,0.5,100,108.0
4419,B4,221.0,1.0,127,108.0
4420,F#3,221.0,1.0,125,108.0
4421,C2,221.0,1.0,125,108.0
4422,B3,221.0,73/250,100,108.0
4423,D4,221.0,73/250,100,108.0
4424,G4,221.0,73/250,100,108.0
4425,F#2,221.0,1.0,125,108.0
4426,E2,221.0,1.0,125,108.0
4427,E4,221.017,0.5,100,108.0
4428,D2,221.5,1.0,100,108.0
4429,G3,221.5,1.0,127,108.0
4430,D4,221.5,0.5,100,108.0
4431,F#3,221.5,1.0,125,108.0
4432,D4,221.5,0.25,100,108.0
4433,G4,221.5,0.25,100,108.0
4434,B3,221.5,0.25,100,108.0
4435,D4,221.517,0.5,100,108.0
4436,D4,221.75,0.25,100,108.0
4437,B3,221.75,0.25,100,108.0
4438,G4,221.75,0.25,100,108.0
4439,G4,222.0,1.0,100,108.0
4440,F#3,222.0,1.0,125,108.0
4441,C2,222.0,1.0,125,108.0
4442,D4,222.0,73/250,100,108.0
4443,B3,222.0,73/250,100,108.0
4444,G4,222.0,73/250,100,108.0
4445,F#2,222.0,1.0,125,108.0
4446,E2,222.0,1.0,125,108.0
4447,G4,222.017,1.0,100,108.0
4448,B1,222.5,0.5,100,108.0
4449,D5,222.5,0.5,100,108.0
4450,D4,222.5,0.5,100,108.0
4451,D4,222.5,0.5,127,108.0
4452,F#3,222.5,1.0,125,108.0
4453,D4,222.5,0.25,100,108.0
4454,G4,222.5,0.25,100,108.0
4455,B3,222.5,0.25,100,108.0
4456,D4,222.75,0.25,100,108.0
4457,B3,222.75,0.25,100,108.0
4458,G4,222.75,0.25,100,108.0
4459,G1,223.0,0.5,100,108.0
4460,D5,223.0,0.5,100,108.0
4461,D4,223.0,0.5,100,108.0
4462,A4,223.0,0.5,100,108.0
4463,D4,223.0,0.5,127,108.0
4464,F#3,223.0,1.0,125,108.0
4465,C2,223.0,1.0,125,108.0
4466,B3,223.0,73/250,100,108.0
4467,D4,223.0,73/250,100,108.0
4468,G4,223.0,73/250,100,108.0
4469,F#2,223.0,1.0,125,108.0
4470,E2,223.0,1.0,125,108.0
4471,A4,223.017,0.5,100,108.0
4472,G2,223.5,0.5,100,108.0
4473,B3,223.5,0.5,127,108.0
4474,G5,223.5,417/1000,100,108.0
4475,G4,223.5,417/1000,100,108.0
4476,B4,223.5,0.5,100,108.0
4477,G4,223.5,0.5,127,108.0
4478,F#3,223.5,0.5,125,108.0
4479,D4,223.5,0.25,100,108.0
4480,G4,223.5,0.25,100,108.0
4481,B3,223.5,0.25,100,108.0
4482,B4,223.517,483/1000,100,108.0
4483,D4,223.75,0.25,100,108.0
4484,B3,223.75,0.25,100,108.0
4485,G4,223.75,0.25,100,108.0
4486,G2,224.0,0.5,100,108.0
4487,B3,224.0,0.5,127,108.0
4488,B4,224.0,0.5,100,108.0
4489,B4,224.0,517/1000,100,108.0
4490,G4,224.0,0.5,127,108.0
4491,F#3,224.0,1.0,125,108.0
4492,F#3,224.0,0.5,125,108.0
4493,C2,224.0,1.0,125,108.0
4494,D4,224.0,73/250,100,108.0
4495,B3,224.0,73/250,100,108.0
4496,G4,224.0,73/250,100,108.0
4497,F#2,224.0,1.0,125,108.0
4498,E2,224.0,1.0,125,108.0
4499,F#2,224.5,1.0,100,108.0
4500,A3,224.5,417/1000,127,108.0
4501,G5,224.5,417/1000,100,108.0
4502,G4,224.5,417/1000,100,108.0
4503,F#4,224.5,1.0,127,108.0
4504,F#3,224.5,1.0,125,108.0
4505,D4,224.5,0.25,100,108.0
4506,G4,224.5,0.25,100,108.0
4507,B3,224.5,0.25,100,108.0
4508,D4,224.75,0.25,100,108.0
4509,B3,224.75,0.25,100,108.0
4510,G4,224.75,0.25,100,108.0
4511,G3,225.0,0.5,127,108.0
4512,F#3,225.0,1.0,125,108.0
4513,C2,225.0,1.0,125,108.0
4514,B3,225.0,73/250,100,108.0
4515,D4,225.0,73/250,100,108.0
4516,G4,225.0,73/250,100,108.0
4517,F#2,225.0,1.0,125,108.0
4518,E2,225.0,1.0,125,108.0
4519,D2,225.5,1.0,100,108.0
4520,G3,225.5,1.0,127,108.0
4521,G5,225.5,417/1000,100,108.0
4522,G4,225.5,417/1000,100,108.0
4523,B4,225.5,1.5,100,108.0
4524,G4,225.5,1.0,127,108.0
4525,F#3,225.5,1.0,125,108.0
4526,D4,225.5,0.25,100,108.0
4527,G4,225.5,0.25,100,108.0
4528,B3,225.5,0.25,100,108.0
4529,D5,225.517,1.5,100,108.0
4530,D4,225.75,0.25,100,108.0
4531,B3,225.75,0.25,100,108.0
4532,G4,225.75,0.25,100,108.0
4533,F#3,226.0,1.0,125,108.0
4534,C2,226.0,1.0,125,108.0
4535,D4,226.0,73/250,100,108.0
4536,B3,226.0,73/250,100,108.0
4537,G4,226.0,73/250,100,108.0
4538,F#2,226.0,1.0,125,108.0
4539,E2,226.0,1.0,125,108.0
4540,B1,226.5,0.5,100,108.0
4541,F#5,226.5,417/1000,100,108.0
4542,F#4,226.5,417/1000,100,108.0
4543,F#4,226.5,0.5,127,108.0
4544,F#3,226.5,1.0,125,108.0
4545,D4,226.5,0.25,100,108.0
4546,G4,226.5,0.25,100,108.0
4547,B3,226.5,0.25,100,108.0
4548,D4,226.75,0.25,100,108.0
4549,B3,226.75,0.25,100,108.0
4550,G4,226.75,0.25,100,108.0
4551,G1,227.0,0.5,100,108.0
4552,G3,227.0,417/1000,127,108.0
4553,D5,227.0,0.5,100,108.0
4554,D4,227.0,0.5,100,108.0
4555,D4,227.0,0.5,127,108.0
4556,F#3,227.0,1.0,125,108.0
4557,C2,227.0,1.0,125,108.0
4558,B3,227.0,73/250,100,108.0
4559,D4,227.0,73/250,100,108.0
4560,G4,227.0,73/250,100,108.0
4561,F#2,227.0,1.0,125,108.0
4562,E2,227.0,1.0,125,108.0
4563,D2,227.5,26/125,100,108.0
4564,G3,227.5,417/1000,127,108.0
4565,D5,227.5,0.5,100,108.0
4566,D4,227.5,0.5,100,108.0
4567,E4,227.5,0.5,127,108.0
4568,F#3,227.5,0.5,125,108.0
4569,D4,227.5,0.25,100,108.0
4570,G4,227.5,0.25,100,108.0
4571,B3,227.5,0.25,100,108.0
4572,E2,227.75,26/125,100,108.0
4573,D4,227.75,0.25,100,108.0
4574,B3,227.75,0.25,100,108.0
4575,G4,227.75,0.25,100,108.0
4576,F#2,228.0,417/1000,100,108.0
4577,A3,228.0,417/1000,127,108.0
4578,D5,228.0,333/1000,100,108.0
4579,D4,228.0,333/1000,100,108.0
4580,A4,228.0,0.5,100,108.0
4581,E4,228.0,0.5,127,108.0
4582,F#3,228.0,1.0,125,108.0
4583,F#3,228.0,0.5,125,108.0
4584,C2,228.0,1.0,125,108.0
4585,D4,228.0,73/250,100,108.0
4586,A3,228.0,73/250,100,108.0
4587,F#4,228.0,73/250,100,108.0
4588,F#2,228.0,1.0,125,108.0
4589,E2,228.0,1.0,125,108.0
4590,A4,228.017,0.5,100,108.0
4591,E2,228.5,417/1000,100,108.0
4592,G3,228.5,417/1000,127,108.0
4593,G4,228.5,0.5,100,108.0
4594,F#4,228.5,0.5,127,108.0
4595,F#3,228.5,1.0,125,108.0
4596,D4,228.5,0.25,100,108.0
4597,F#4,228.5,0.25,100,108.0
4598,A3,228.5,0.25,100,108.0
4599,G4,228.517,0.5,100,108.0
4600,D4,228.75,0.25,100,108.0
4601,A3,228.75,0.25,100,108.0
4602,F#4,228.75,0.25,100,108.0
4603,D2,229.0,0.5,100,108.0
4604,F#3,229.0,0.5,127,108.0
4605,D5,229.0,1.0,100,108.0
4606,D4,229.0,1.0,100,108.0
4607,F#4,229.0,0.5,100,108.0
4608,D4,229.0,1.0,127,108.0
4609,F#3,229.0,1.0,125,108.0
4610,C2,229.0,1.0,125,108.0
4611,A3,229.0,73/250,100,108.0
4612,D4,229.0,73/250,100,108.0
4613,F#4,229.0,73/250,100,108.0
4614,F#2,229.0,1.0,125,108.0
4615,E2,229.0,1.0,125,108.0
4616,F#4,229.017,0.5,100,108.0
4617,D2,229.5,1.0,100,108.0
4618,F#3,229.5,1.0,127,108.0
4619,F#4,229.5,1.0,100,108.0
4620,F#3,229.5,1.0,125,108.0
4621,D4,229.5,0.25,100,108.0
4622,F#4,229.5,0.25,100,108.0
4623,A3,229.5,0.25,100,108.0
4624,F#4,229.517,1.0,100,108.0
4625,D4,229.75,0.25,100,108.0
4626,A3,229.75,0.25,100,108.0
4627,F#4,229.75,0.25,100,108.0
4628,F#3,230.0,1.0,125,108.0
4629,C2,230.0,1.0,125,108.0
4630,D4,230.0,73/250,100,108.0
4631,A3,230.0,73/250,100,108.0
4632,F#4,230.0,73/250,100,108.0
4633,F#2,230.0,1.0,125,108.0
4634,E2,230.0,1.0,125,108.0
4635,A1,230.5,0.5,100,108.0
4636,D5,230.5,417/1000,100,108.0
4637,D4,230.5,417/1000,100,108.0
4638,G4,230.5,1.0,100,108.0
4639,F#3,230.5,1.0,125,108.0
4640,D4,230.5,0.25,100,108.0
4641,F#4,230.5,0.25,100,108.0
4642,A3,230.5,0.25,100,108.0
4643,G4,230.517,1.0,100,108.0
4644,D4,230.75,0.25,100,108.0
4645,A3,230.75,0.25,100,108.0
4646,F#4,230.75,0.25,100,108.0
4647,F#1,231.0,0.5,100,108.0
4648,D5,231.0,417/1000,100,108.0
4649,D4,231.0,417/1000,100,108.0
4650,F#3,231.0,1.0,125,108.0
4651,C2,231.0,1.0,125,108.0
4652,A3,231.0,73/250,100,108.0
4653,D4,231.0,73/250,100,108.0
4654,F#4,231.0,73/250,100,108.0
4655,F#2,231.0,1.0,125,108.0
4656,E2,231.0,1.0,125,108.0
4657,F#2,231.5,0.5,100,108.0
4658,F#5,231.5,0.5,100,108.0
4659,F#4,231.5,0.5,100,108.0
4660,A4,231.5,0.5,100,108.0
4661,F#4,231.5,0.5,127,108.0
4662,F#3,231.5,0.5,125,108.0
4663,D4,231.5,0.25,100,108.0
4664,F#4,231.5,0.25,100,108.0
4665,A3,231.5,0.25,100,108.0
4666,A4,231.517,483/1000,100,108.0
4667,D4,231.75,0.25,100,108.0
4668,A3,231.75,0.25,100,108.0
4669,F#4,231.75,0.25,100,108.0
4670,F#2,232.0,0.5,100,108.0
4671,A3,232.0,0.5,127,108.0
4672,F#5,232.0,0.5,100,108.0
4673,F#4,232.0,0.5,100,108.0
4674,A4,232.0,0.5,100,108.0
4675,A4,232.0,517/1000,100,108.0
4676,F#4,232.0,0.5,127,108.0
4677,F#3,232.0,1.0,125,108.0
4678,F#3,232.0,0.5,125,108.0
4679,C2,232.0,1.0,125,108.0
4680,D4,232.0,73/250,100,108.0
4681,A3,232.0,73/250,100,108.0
4682,F#4,232.0,73/250,100,108.0
4683,F#2,232.0,1.0,125,108.0
4684,E2,232.0,1.0,125,108.0
4685,E2,232.5,1.0,100,108.0
4686,G3,232.5,417/1000,127,108.0
4687,E5,232.5,1.0,100,108.0
4688,E4,232.5,1.0,100,108.0
4689,E4,232.5,1.0,127,108.0
4690,F#3,232.5,1.0,125,108.0
4691,D4,232.5,0.25,100,108.0
4692,F#4,232.5,0.25,100,108.0
4693,A3,232.5,0.25,100,108.0
4694,D4,232.75,0.25,100,108.0
4695,A3,232.75,0.25,100,108.0
4696,F#4,232.75,0.25,100,108.0
4697,F#3,233.0,0.5,127,108.0
4698,F#3,233.0,1.0,125,108.0
4699,C2,233.0,1.0,125,108.0
4700,A3,233.0,73/250,100,108.0
4701,D4,233.0,73/250,100,108.0
4702,F#4,233.0,73/250,100,108.0
4703,F#2,233.0,1.0,125,108.0
4704,E2,233.0,1.0,125,108.0
4705,D2,233.5,1.0,100,108.0
4706,F#3,233.5,1.0,127,108.0
4707,D5,233.5,1.0,100,108.0
4708,D4,233.5,1.0,100,108.0
4709,A4,233.5,1.5,100,108.0
4710,D4,233.5,1.0,127,108.0
4711,F#3,233.5,1.0,125,108.0
4712,D4,233.5,0.25,100,108.0
4713,F#4,233.5,0.25,100,108.0
4714,A3,233.5,0.25,100,108.0
4715,D5,233.517,1.5,100,108.0
4716,D4,233.75,0.25,100,108.0
4717,A3,233.75,0.25,100,108.0
4718,F#4,233.75,0.25,100,108.0
4719,F#3,234.0,1.0,125,108.0
4720,C2,234.0,1.0,125,108.0
4721,D4,234.0,73/250,100,108.0
4722,A3,234.0,73/250,100,108.0
4723,F#4,234.0,73/250,100,108.0
4724,F#2,234.0,1.0,125,108.0
4725,E2,234.0,1.0,125,108.0
4726,A1,234.5,0.5,100,108.0
4727,E5,234.5,417/1000,100,108.0
4728,E4,234.5,417/1000,100,108.0
4729,E4,234.5,0.5,127,108.0
4730,F#3,234.5,1.0,125,108.0
4731,D4,234.5,0.25,100,108.0
4732,F#4,234.5,0.25,100,108.0
4733,A3,234.5,0.25,100,108.0
4734,D4,234.75,0.25,100,108.0
4735,A3,234.75,0.25,100,108.0
4736,F#4,234.75,0.25,100,108.0
4737,F#1,235.0,1.0,100,108.0
4738,D3,235.0,0.5,127,108.0
4739,F#5,235.0,1.0,100,108.0
4740,F#4,235.0,1.0,100,108.0
4741,F#4,235.0,0.5,127,108.0
4742,F#3,235.0,1.0,125,108.0
4743,C2,235.0,1.0,125,108.0
4744,A3,235.0,73/250,100,108.0
4745,D4,235.0,73/250,100,108.0
4746,F#4,235.0,73/250,100,108.0
4747,F#2,235.0,1.0,125,108.0
4748,E2,235.0,1.0,125,108.0
4749,D3,235.5,0.5,127,108.0
4750,A4,235.5,0.5,127,108.0
4751,F#3,235.5,0.5,125,108.0
4752,D4,235.5,0.25,100,108.0
4753,F#4,235.5,0.25,100,108.0
4754,A3,235.5,0.25,100,108.0
4755,D4,235.75,0.25,100,108.0
4756,A3,235.75,0.25,100,108.0
4757,F#4,235.75,0.25,100,108.0
4758,B1,236.0,0.5,100,108.0
4759,E3,236.0,0.5,127,108.0
4760,E5,236.0,1.0,100,108.0
4761,E4,236.0,1.0,100,108.0
4762,E4,236.0,1.0,100,108.0
4763,A4,236.0,0.5,127,108.0
4764,F#3,236.0,1.0,125,108.0
4765,F#3,236.0,0.5,125,108.0
4766,C2,236.0,1.0,125,108.0
4767,C4,236.0,73/250,100,108.0
4768,G3,236.0,73/250,100,108.0
4769,E4,236.0,73/250,100,108.0
4770,F#2,236.0,1.0,125,108.0
4771,E2,236.0,1.0,125,108.0
4772,E4,236.017,1.0,100,108.0
4773,A1,236.5,0.5,100,108.0
4774,G3,236.5,0.5,127,108.0
4775,B4,236.5,0.5,127,108.0
4776,F#3,236.5,1.0,125,108.0
4777,C4,236.5,0.25,100,108.0
4778,E4,236.5,0.25,100,108.0
4779,G3,236.5,0.25,100,108.0
4780,C4,236.75,0.25,100,108.0
4781,G3,236.75,0.25,100,108.0
4782,E4,236.75,0.25,100,108.0
4783,G1,237.0,0.5,100,108.0
4784,G3,237.0,0.5,127,108.0
4785,E5,237.0,1.0,100,108.0
4786,E4,237.0,1.0,100,108.0
4787,G4,237.0,0.5,100,108.0
4788,G4,237.0,1.0,127,108.0
4789,F#3,237.0,1.0,125,108.0
4790,C2,237.0,1.0,125,108.0
4791,G3,237.0,73/250,100,108.0
4792,C4,237.0,73/250,100,108.0
4793,E4,237.0,73/250,100,108.0
4794,F#2,237.0,1.0,125,108.0
4795,E2,237.0,1.0,125,108.0
4796,G4,237.017,0.5,100,108.0
4797,G1,237.5,1.0,100,108.0
4798,G3,237.5,1.0,127,108.0
4799,E4,237.5,0.5,100,108.0
4800,F#3,237.5,1.0,125,108.0
4801,C4,237.5,0.25,100,108.0
4802,E4,237.5,0.25,100,108.0
4803,G3,237.5,0.25,100,108.0
4804,E4,237.517,0.5,100,108.0
4805,C4,237.75,0.25,100,108.0
4806,G3,237.75,0.25,100,108.0
4807,E4,237.75,0.25,100,108.0
4808,G4,238.0,1.0,100,108.0
4809,F#3,238.0,1.0,125,108.0
4810,C2,238.0,1.0,125,108.0
4811,C4,238.0,73/250,100,108.0
4812,G3,238.0,73/250,100,108.0
4813,E4,238.0,73/250,100,108.0
4814,F#2,238.0,1.0,125,108.0
4815,E2,238.0,1.0,125,108.0
4816,G4,238.017,1.0,100,108.0
4817,E1,238.5,0.5,100,108.0
4818,E5,238.5,417/1000,100,108.0
4819,E4,238.5,417/1000,100,108.0
4820,E4,238.5,0.5,127,108.0
4821,F#3,238.5,1.0,125,108.0
4822,C4,238.5,0.25,100,108.0
4823,E4,238.5,0.25,100,108.0
4824,G3,238.5,0.25,100,108.0
4825,C4,238.75,0.25,100,108.0
4826,G3,238.75,0.25,100,108.0
4827,E4,238.75,0.25,100,108.0
4828,G1,239.0,0.5,100,108.0
4829,G3,239.0,0.5,127,108.0
4830,G5,239.0,417/1000,100,108.0
4831,G4,239.0,417/1000,100,108.0
4832,A4,239.0,0.5,100,108.0
4833,G4,239.0,0.5,127,108.0
4834,F#3,239.0,1.0,125,108.0
4835,C2,239.0,1.0,125,108.0
4836,G3,239.0,73/250,100,108.0
4837,C4,239.0,73/250,100,108.0
4838,E4,239.0,73/250,100,108.0
4839,F#2,239.0,1.0,125,108.0
4840,E2,239.0,1.0,125,108.0
4841,A4,239.017,0.5,100,108.0
4842,B1,239.5,0.5,100,108.0
4843,G3,239.5,0.5,127,108.0
4844,B5,239.5,0.5,100,108.0
4845,B4,239.5,0.5,100,108.0
4846,B4,239.5,0.5,100,108.0
4847,B4,239.5,0.5,127,108.0
4848,F#3,239.5,0.5,125,108.0
4849,C4,239.5,0.25,100,108.0
4850,E4,239.5,0.25,100,108.0
4851,G3,239.5,0.25,100,108.0
4852,B4,239.517,483/1000,100,108.0
4853,C4,239.75,0.25,100,108.0
4854,G3,239.75,0.25,100,108.0
4855,E4,239.75,0.25,100,108.0
4856,B1,240.0,0.5,100,108.0
4857,G3,240.0,0.5,127,108.0
4858,B4,240.0,0.5,100,108.0
4859,B4,240.0,517/1000,100,108.0
4860,B4,240.0,0.5,127,108.0
4861,F#3,240.0,1.0,125,108.0
4862,F#3,240.0,0.5,125,108.0
4863,C2,240.0,1.0,125,108.0
4864,C4,240.0,73/250,100,108.0
4865,G3,240.0,73/250,100,108.0
4866,E4,240.0,73/250,100,108.0
4867,F#2,240.0,1.0,125,108.0
4868,E2,240.0,1.0,125,108.0
4869,A1,240.5,1.0,100,108.0
4870,A3,240.5,0.5,127,108.0
4871,A5,240.5,1.0,100,108.0
4872,A4,240.5,1.0,100,108.0
4873,A4,240.5,1.0,127,108.0
4874,F#3,240.5,1.0,125,108.0
4875,C4,240.5,0.25,100,108.0
4876,E4,240.5,0.25,100,108.0
4877,G3,240.5,0.25,100,108.0
4878,C4,240.75,0.25,100,108.0
4879,G3,240.75,0.25,100,108.0
4880,E4,240.75,0.25,100,108.0
4881,B3,241.0,0.5,127,108.0
4882,F#3,241.0,1.0,125,108.0
4883,C2,241.0,1.0,125,108.0
4884,G3,241.0,73/250,100,108.0
4885,C4,241.0,73/250,100,108.0
4886,E4,241.0,73/250,100,108.0
4887,F#2,241.0,1.0,125,108.0
4888,E2,241.0,1.0,125,108.0
4889,G1,241.5,1.0,100,108.0
4890,D3,241.5,1.0,127,108.0
4891,G5,241.5,1.0,100,108.0
4892,G4,241.5,1.0,100,108.0
4893,B4,241.5,0.25,127,108.0
4894,F#3,241.5,1.0,125,108.0
4895,C4,241.5,0.25,100,108.0
4896,E4,241.5,0.25,100,108.0
4897,G3,241.5,0.25,100,108.0
4898,A4,241.75,0.25,127,108.0
4899,C4,241.75,0.25,100,108.0
4900,G3,241.75,0.25,100,108.0
4901,E4,241.75,0.25,100,108.0
4902,G4,242.0,1.0,127,108.0
4903,F#3,242.0,1.0,125,108.0
4904,C2,242.0,1.0,125,108.0
4905,C4,242.0,73/250,100,108.0
4906,G3,242.0,73/250,100,108.0
4907,E4,242.0,73/250,100,108.0
4908,F#2,242.0,1.0,125,108.0
4909,E2,242.0,1.0,125,108.0
4910,E1,242.5,0.5,100,108.0
4911,A5,242.5,417/1000,100,108.0
4912,A4,242.5,417/1000,100,108.0
4913,F#3,242.5,1.0,125,108.0
4914,C4,242.5,0.25,100,108.0
4915,E4,242.5,0.25,100,108.0
4916,G3,242.5,0.25,100,108.0
4917,C4,242.75,0.25,100,108.0
4918,G3,242.75,0.25,100,108.0
4919,E4,242.75,0.25,100,108.0
4920,G1,243.0,0.5,100,108.0
4921,D3,243.0,0.5,127,108.0
4922,G5,243.0,1.0,100,108.0
4923,G4,243.0,1.0,100,108.0
4924,G4,243.0,229/500,127,108.0
4925,F#3,243.0,1.0,125,108.0
4926,C2,243.0,1.0,125,108.0
4927,G3,243.0,73/250,100,108.0
4928,C4,243.0,73/250,100,108.0
4929,E4,243.0,73/250,100,108.0
4930,F#2,243.0,1.0,125,108.0
4931,E2,243.0,1.0,125,108.0
4932,A1,243.5,0.5,100,108.0
4933,D3,243.5,0.5,127,108.0
4934,G4,243.5,0.5,127,108.0
4935,F#3,243.5,0.5,125,108.0
4936,C4,243.5,0.25,100,108.0
4937,E4,243.5,0.25,100,108.0
4938,G3,243.5,0.25,100,108.0
4939,C4,243.75,0.25,100,108.0
4940,G3,243.75,0.25,100,108.0
4941,E4,243.75,0.25,100,108.0
4942,B1,244.0,667/1000,100,108.0
4943,D3,244.0,0.5,127,108.0
4944,B5,244.0,417/1000,100,108.0
4945,G4,244.0,417/1000,100,108.0
4946,B4,244.0,0.5,100,108.0
4947,D5,244.0,0.5,127,108.0
4948,F#3,244.0,1.0,125,108.0
4949,F#3,244.0,0.5,125,108.0
4950,C2,244.0,1.0,125,108.0
4951,D4,244.0,73/250,100,108.0
4952,B3,244.0,73/250,100,108.0
4953,G4,244.0,73/250,100,108.0
4954,F#2,244.0,1.0,125,108.0
4955,E2,244.0,1.0,125,108.0
4956,G4,244.017,0.5,100,108.0
4957,D3,244.5,0.5,127,108.0
4958,B4,244.5,0.5,100,108.0
4959,D5,244.5,0.5,127,108.0
4960,F#3,244.5,1.0,125,108.0
4961,D4,244.5,0.25,100,108.0
4962,G4,244.5,0.25,100,108.0
4963,B3,244.5,0.25,100,108.0
4964,G4,244.517,0.5,100,108.0
4965,D4,244.75,0.25,100,108.0
4966,B3,244.75,0.25,100,108.0
4967,G4,244.75,0.25,100,108.0
4968,B1,245.0,1.0,100,108.0
4969,D3,245.0,0.5,127,108.0
4970,B5,245.0,1.5,100,108.0
4971,G4,245.0,1.5,100,108.0
4972,B4,245.0,1.0,100,108.0
4973,B4,245.0,1.0,127,108.0
4974,F#3,245.0,1.0,125,108.0
4975,C2,245.0,1.0,125,108.0
4976,B3,245.0,73/250,100,108.0
4977,D4,245.0,73/250,100,108.0
4978,G4,245.0,73/250,100,108.0
4979,F#2,245.0,1.0,125,108.0
4980,E2,245.0,1.0,125,108.0
4981,G4,245.017,1.0,100,108.0
4982,D3,245.5,1.0,127,108.0
4983,F#3,245.5,1.0,125,108.0
4984,D4,245.5,0.25,100,108.0
4985,G4,245.5,0.25,100,108.0
4986,B3,245.5,0.25,100,108.0
4987,D4,245.75,0.25,100,108.0
4988,B3,245.75,0.25,100,108.0
4989,G4,245.75,0.25,100,108.0
4990,F#3,246.0,1.0,125,108.0
4991,C2,246.0,1.0,125,108.0
4992,D4,246.0,73/250,100,108.0
4993,B3,246.0,73/250,100,108.0
4994,G4,246.0,73/250,100,108.0
4995,F#2,246.0,1.0,125,108.0
4996,E2,246.0,1.0,125,108.0
4997,B1,246.5,0.5,100,108.0
4998,B5,246.5,417/1000,100,108.0
4999,G4,246.5,417/1000,100,108.0
5000,G4,246.5,0.5,127,108.0
5001,F#3,246.5,1.0,125,108.0
5002,D4,246.5,0.25,100,108.0
5003,G4,246.5,0.25,100,108.0
5004,B3,246.5,0.25,100,108.0
5005,D4,246.75,0.25,100,108.0
5006,B3,246.75,0.25,100,108.0
5007,G4,246.75,0.25,100,108.0
5008,B1,247.0,0.5,100,108.0
5009,D3,247.0,0.5,127,108.0
5010,B5,247.0,417/1000,100,108.0
5011,G4,247.0,417/1000,100,108.0
5012,G4,247.0,0.5,127,108.0
5013,F#3,247.0,1.0,125,108.0
5014,C2,247.0,1.0,125,108.0
5015,B3,247.0,73/250,100,108.0
5016,D4,247.0,73/250,100,108.0
5017,G4,247.0,73/250,100,108.0
5018,F#2,247.0,1.0,125,108.0
5019,E2,247.0,1.0,125,108.0
5020,C2,247.5,0.5,100,108.0
5021,D3,247.5,0.5,127,108.0
5022,A5,247.5,0.5,100,108.0
5023,A4,247.5,0.5,100,108.0
5024,E4,247.5,0.5,100,108.0
5025,C5,247.5,0.5,127,108.0
5026,F#3,247.5,0.5,125,108.0
5027,E4,247.5,0.25,100,108.0
5028,G4,247.5,0.25,100,108.0
5029,C4,247.5,0.25,100,108.0
5030,G4,247.517,483/1000,100,108.0
5031,E4,247.75,0.25,100,108.0
5032,C4,247.75,0.25,100,108.0
5033,G4,247.75,0.25,100,108.0
5034,C2,248.0,0.5,100,108.0
5035,E3,248.0,0.5,127,108.0
5036,A5,248.0,0.5,100,108.0
5037,A4,248.0,0.5,100,108.0
5038,E4,248.0,0.5,100,108.0
5039,G4,248.0,517/1000,100,108.0
5040,C5,248.0,0.5,127,108.0
5041,F#3,248.0,1.0,125,108.0
5042,F#3,248.0,0.5,125,108.0
5043,C2,248.0,1.0,125,108.0
5044,E4,248.0,73/250,100,108.0
5045,C4,248.0,73/250,100,108.0
5046,G4,248.0,73/250,100,108.0
5047,F#2,248.0,1.0,125,108.0
5048,E2,248.0,1.0,125,108.0
5049,B1,248.5,1.0,100,108.0
5050,G3,248.5,1.0,127,108.0
5051,G5,248.5,1.0,100,108.0
5052,G4,248.5,1.0,100,108.0
5053,D4,248.5,1.0,100,108.0
5054,B4,248.5,1.0,127,108.0
5055,F#3,248.5,1.0,125,108.0
5056,D4,248.5,0.25,100,108.0
5057,G4,248.5,0.25,100,108.0
5058,B3,248.5,0.25,100,108.0
5059,G4,248.517,1.0,100,108.0
5060,D4,248.75,0.25,100,108.0
5061,B3,248.75,0.25,100,108.0
5062,G4,248.75,0.25,100,108.0
5063,F#3,249.0,1.0,125,108.0
5064,C2,249.0,1.0,125,108.0
5065,B3,249.0,73/250,100,108.0
5066,D4,249.0,73/250,100,108.0
5067,G4,249.0,73/250,100,108.0
5068,F#2,249.0,1.0,125,108.0
5069,E2,249.0,1.0,125,108.0
5070,A1,249.5,1.0,100,108.0
5071,G3,249.5,1.0,127,108.0
5072,G5,249.5,1.0,100,108.0
5073,G4,249.5,1.0,100,108.0
5074,E4,249.5,1.0,100,108.0
5075,A4,249.5,0.5,127,108.0
5076,F#3,249.5,1.0,125,108.0
5077,E4,249.5,0.25,100,108.0
5078,G4,249.5,0.25,100,108.0
5079,C4,249.5,0.25,100,108.0
5080,G4,249.517,1.0,100,108.0
5081,E4,249.75,0.25,100,108.0
5082,C4,249.75,0.25,100,108.0
5083,G4,249.75,0.25,100,108.0
5084,G4,250.0,1.0,127,108.0
5085,F#3,250.0,1.0,125,108.0
5086,C2,250.0,1.0,125,108.0
5087,E4,250.0,73/250,100,108.0
5088,C4,250.0,73/250,100,108.0
5089,G4,250.0,73/250,100,108.0
5090,F#2,250.0,1.0,125,108.0
5091,E2,250.0,1.0,125,108.0
5092,G1,250.5,0.5,100,108.0
5093,A3,250.5,0.5,127,108.0
5094,A5,250.5,417/1000,100,108.0
5095,A4,250.5,417/1000,100,108.0
5096,F#3,250.5,1.0,125,108.0
5097,E4,250.5,0.25,100,108.0
5098,G4,250.5,0.25,100,108.0
5099,C4,250.5,0.25,100,108.0
5100,E4,250.75,0.25,100,108.0
5101,C4,250.75,0.25,100,108.0
5102,G4,250.75,0.25,100,108.0
5103,A1,251.0,0.5,100,108.0
5104,G3,251.0,0.5,127,108.0
5105,G5,251.0,1.0,100,108.0
5106,G4,251.0,1.0,100,108.0
5107,F#3,251.0,1.0,125,108.0
5108,C2,251.0,1.0,125,108.0
5109,C4,251.0,73/250,100,108.0
5110,E4,251.0,73/250,100,108.0
5111,G4,251.0,73/250,100,108.0
5112,F#2,251.0,1.0,125,108.0
5113,E2,251.0,1.0,125,108.0
5114,B-1,251.5,0.5,100,108.0
5115,E3,251.5,0.5,127,108.0
5116,G4,251.5,0.5,127,108.0
5117,F#3,251.5,0.5,125,108.0
5118,E4,251.5,0.25,100,108.0
5119,G4,251.5,0.25,100,108.0
5120,C4,251.5,0.25,100,108.0
5121,E4,251.75,0.25,100,108.0
5122,C4,251.75,0.25,100,108.0
5123,G4,251.75,0.25,100,108.0
5124,B1,252.0,667/1000,100,108.0
5125,D3,252.0,0.5,127,108.0
5126,B5,252.0,417/1000,100,108.0
5127,G4,252.0,417/1000,100,108.0
5128,B4,252.0,1.0,100,108.0
5129,D5,252.0,1.0,127,108.0
5130,F#3,252.0,1.0,125,108.0
5131,F#3,252.0,0.5,125,108.0
5132,C2,252.0,1.0,125,108.0
5133,D4,252.0,73/250,100,108.0
5134,B3,252.0,73/250,100,108.0
5135,G4,252.0,73/250,100,108.0
5136,F#2,252.0,1.0,125,108.0
5137,E2,252.0,1.0,125,108.0
5138,G4,252.017,1.0,100,108.0
5139,B3,252.5,0.5,127,108.0
5140,F#3,252.5,1.0,125,108.0
5141,D4,252.5,0.25,100,108.0
5142,G4,252.5,0.25,100,108.0
5143,B3,252.5,0.25,100,108.0
5144,D4,252.75,0.25,100,108.0
5145,B3,252.75,0.25,100,108.0
5146,G4,252.75,0.25,100,108.0
5147,B1,253.0,1.0,100,108.0
5148,B3,253.0,0.5,127,108.0
5149,B5,253.0,1.5,100,108.0
5150,G4,253.0,1.5,100,108.0
5151,B4,253.0,1.0,100,108.0
5152,B4,253.0,1.0,127,108.0
5153,F#3,253.0,1.0,125,108.0
5154,C2,253.0,1.0,125,108.0
5155,B3,253.0,73/250,100,108.0
5156,D4,253.0,73/250,100,108.0
5157,G4,253.0,73/250,100,108.0
5158,F#2,253.0,1.0,125,108.0
5159,E2,253.0,1.0,125,108.0
5160,G4,253.017,1.0,100,108.0
5161,F#3,253.5,1.0,125,108.0
5162,D4,253.5,0.25,100,108.0
5163,G4,253.5,0.25,100,108.0
5164,B3,253.5,0.25,100,108.0
5165,D4,253.75,0.25,100,108.0
5166,B3,253.75,0.25,100,108.0
5167,G4,253.75,0.25,100,108.0
5168,F#3,254.0,1.0,125,108.0
5169,C2,254.0,1.0,125,108.0
5170,D4,254.0,73/250,100,108.0
5171,B3,254.0,73/250,100,108.0
5172,G4,254.0,73/250,100,108.0
5173,F#2,254.0,1.0,125,108.0
5174,E2,254.0,1.0,125,108.0
5175,C2,254.5,0.5,100,108.0
5176,B5,254.5,417/1000,100,108.0
5177,B4,254.5,417/1000,100,108.0
5178,G4,254.5,0.5,127,108.0
5179,F#3,254.5,1.0,125,108.0
5180,D4,254.5,0.25,100,108.0
5181,G4,254.5,0.25,100,108.0
5182,B3,254.5,0.25,100,108.0
5183,D4,254.75,0.25,100,108.0
5184,B3,254.75,0.25,100,108.0
5185,G4,254.75,0.25,100,108.0
5186,C#2,255.0,0.5,100,108.0
5187,D3,255.0,0.5,127,108.0
5188,B5,255.0,417/1000,100,108.0
5189,B4,255.0,417/1000,100,108.0
5190,F#3,255.0,1.0,125,108.0
5191,C2,255.0,1.0,125,108.0
5192,B3,255.0,73/250,100,108.0
5193,D4,255.0,73/250,100,108.0
5194,G4,255.0,73/250,100,108.0
5195,F#2,255.0,1.0,125,108.0
5196,E2,255.0,1.0,125,108.0
5197,D2,255.5,0.5,100,108.0
5198,D3,255.5,0.5,127,108.0
5199,A5,255.5,0.5,100,108.0
5200,D4,255.5,0.5,100,108.0
5201,E4,255.5,0.5,100,108.0
5202,C5,255.5,0.5,127,108.0
5203,F#3,255.5,0.5,125,108.0
5204,E4,255.5,0.25,100,108.0
5205,G4,255.5,0.25,100,108.0
5206,C4,255.5,0.25,100,108.0
5207,G4,255.517,483/1000,100,108.0
5208,E4,255.75,0.25,100,108.0
5209,C4,255.75,0.25,100,108.0
5210,G4,255.75,0.25,100,108.0
5211,D2,256.0,0.5,100,108.0
5212,E3,256.0,0.5,127,108.0
5213,A5,256.0,0.5,100,108.0
5214,D4,256.0,0.5,100,108.0
5215,E4,256.0,0.5,100,108.0
5216,G4,256.0,517/1000,100,108.0
5217,C5,256.0,0.5,127,108.0
5218,F#3,256.0,1.0,125,108.0
5219,F#3,256.0,0.5,125,108.0
5220,C2,256.0,1.0,125,108.0
5221,E4,256.0,73/250,100,108.0
5222,C4,256.0,73/250,100,108.0
5223,G4,256.0,73/250,100,108.0
5224,F#2,256.0,1.0,125,108.0
5225,E2,256.0,1.0,125,108.0
5226,D2,256.5,1.0,100,108.0
5227,G3,256.5,1.0,127,108.0
5228,G5,256.5,1.0,100,108.0
5229,E4,256.5,1.0,100,108.0
5230,D4,256.5,1.0,100,108.0
5231,B4,256.5,1.0,127,108.0
5232,F#3,256.5,1.0,125,108.0
5233,E4,256.5,0.25,100,108.0
5234,G4,256.5,0.25,100,108.0
5235,C4,256.5,0.25,100,108.0
5236,G4,256.517,1.0,100,108.0
5237,E4,256.75,0.25,100,108.0
5238,C4,256.75,0.25,100,108.0
5239,G4,256.75,0.25,100,108.0
5240,F#3,257.0,1.0,125,108.0
5241,C2,257.0,1.0,125,108.0
5242,C4,257.0,73/250,100,108.0
5243,E4,257.0,73/250,100,108.0
5244,G4,257.0,73/250,100,108.0
5245,F#2,257.0,1.0,125,108.0
5246,E2,257.0,1.0,125,108.0
5247,D2,257.5,1.0,100,108.0
5248,G3,257.5,1.0,127,108.0
5249,G5,257.5,1.0,100,108.0
5250,D4,257.5,1.0,100,108.0
5251,G4,257.5,1.0,100,108.0
5252,A4,257.5,0.5,127,108.0
5253,F#3,257.5,1.0,125,108.0
5254,E4,257.5,0.25,100,108.0
5255,G4,257.5,0.25,100,108.0
5256,C4,257.5,0.25,100,108.0
5257,G4,257.517,1.0,100,108.0
5258,E2,257.75,1.0,125,108.0
5259,E4,257.75,0.25,100,108.0
5260,C4,257.75,0.25,100,108.0
5261,G4,257.75,0.25,100,108.0
5262,G4,258.0,1.0,127,108.0
5263,E2,258.0,1.0,125,108.0
5264,F#3,258.0,1.0,125,108.0
5265,C2,258.0,1.0,125,108.0
5266,E4,258.0,73/250,100,108.0
5267,C4,258.0,73/250,100,108.0
5268,G4,258.0,73/250,100,108.0
5269,E2,258.25,1.0,125,108.0
5270,D2,258.5,417/1000,100,108.0
5271,A3,258.5,0.5,127,108.0
5272,A5,258.5,417/1000,100,108.0
5273,E4,258.5,417/1000,100,108.0
5274,E2,258.5,1.0,125,108.0
5275,F#3,258.5,1.0,125,108.0
5276,E4,258.5,0.25,100,108.0
5277,G4,258.5,0.25,100,108.0
5278,C4,258.5,0.25,100,108.0
5279,E2,258.75,1.0,125,108.0
5280,E4,258.75,0.25,100,108.0
5281,C4,258.75,0.25,100,108.0
5282,G4,258.75,0.25,100,108.0
5283,D2,259.0,0.5,100,108.0
5284,G3,259.0,0.5,127,108.0
5285,G5,259.0,1.0,100,108.0
5286,D4,259.0,1.0,100,108.0
5287,E2,259.0,1.0,125,108.0
5288,F#3,259.0,1.0,125,108.0
5289,C2,259.0,1.0,125,108.0
5290,C4,259.0,73/250,100,108.0
5291,E4,259.0,73/250,100,108.0
5292,G4,259.0,73/250,100,108.0
5293,E2,259.25,0.75,125,108.0
5294,E2,259.5,26/125,100,108.0
5295,E3,259.5,0.5,127,108.0
5296,E2,259.5,0.5,125,108.0
5297,F#3,259.5,0.5,125,108.0
5298,E4,259.5,0.25,100,108.0
5299,G4,259.5,0.25,100,108.0
5300,C4,259.5,0.25,100,108.0
5301,F#2,259.75,26/125,100,108.0
5302,E2,259.75,0.25,125,108.0
5303,E4,259.75,0.25,100,108.0
5304,C4,259.75,0.25,100,108.0
5305,G4,259.75,0.25,100,108.0
5306,G2,260.0,417/1000,100,108.0
5307,A3,260.0,417/1000,127,108.0
5308,G5,260.0,417/1000,100,108.0
5309,G4,260.0,417/1000,100,108.0
5310,D4,260.0,1.0,100,108.0
5311,B4,260.0,0.5,127,108.0
5312,E2,260.0,0.25,125,108.0
5313,E2,260.0,0.5,125,108.0
5314,E2,260.0,0.75,125,108.0
5315,F#3,260.0,1.0,125,108.0
5316,F#3,260.0,0.5,125,108.0
5317,C2,260.0,1.0,125,108.0
5318,D4,260.0,73/250,100,108.0
5319,B3,260.0,73/250,100,108.0
5320,G4,260.0,73/250,100,108.0
5321,F#2,260.0,1.0,125,108.0
5322,E2,260.0,1.0,125,108.0
5323,D4,260.017,1.0,100,108.0
5324,F#2,260.5,417/1000,100,108.0
5325,A3,260.5,417/1000,127,108.0
5326,A4,260.5,0.5,127,108.0
5327,F#3,260.5,1.0,125,108.0
5328,D4,260.5,0.25,100,108.0
5329,G4,260.5,0.25,100,108.0
5330,B3,260.5,0.25,100,108.0
5331,D4,260.75,0.25,100,108.0
5332,B3,260.75,0.25,100,108.0
5333,G4,260.75,0.25,100,108.0
5334,E2,261.0,0.5,100,108.0
5335,G3,261.0,0.5,127,108.0
5336,G5,261.0,1.5,100,108.0
5337,G4,261.0,1.5,100,108.0
5338,E4,261.0,0.5,100,108.0
5339,G4,261.0,0.5,127,108.0
5340,F#3,261.0,1.0,125,108.0
5341,C2,261.0,1.0,125,108.0
5342,B3,261.0,73/250,100,108.0
5343,D4,261.0,73/250,100,108.0
5344,G4,261.0,73/250,100,108.0
5345,F#2,261.0,1.0,125,108.0
5346,E2,261.0,1.0,125,108.0
5347,E4,261.017,0.5,100,108.0
5348,D2,261.5,1.0,100,108.0
5349,G3,261.5,1.0,127,108.0
5350,D4,261.5,0.5,100,108.0
5351,B4,261.5,1.0,127,108.0
5352,F#3,261.5,1.0,125,108.0
5353,D4,261.5,0.25,100,108.0
5354,G4,261.5,0.25,100,108.0
5355,B3,261.5,0.25,100,108.0
5356,D4,261.517,0.5,100,108.0
5357,D4,261.75,0.25,100,108.0
5358,B3,261.75,0.25,100,108.0
5359,G4,261.75,0.25,100,108.0
5360,G4,262.0,1.0,100,108.0
5361,F#3,262.0,1.0,125,108.0
5362,C2,262.0,1.0,125,108.0
5363,D4,262.0,73/250,100,108.0
5364,B3,262.0,73/250,100,108.0
5365,G4,262.0,73/250,100,108.0
5366,F#2,262.0,1.0,125,108.0
5367,E2,262.0,1.0,125,108.0
5368,G4,262.017,1.0,100,108.0
5369,B1,262.5,0.5,100,108.0
5370,D5,262.5,0.5,100,108.0
5371,D4,262.5,0.5,100,108.0
5372,F#3,262.5,1.0,125,108.0
5373,D4,262.5,0.25,100,108.0
5374,G4,262.5,0.25,100,108.0
5375,B3,262.5,0.25,100,108.0
5376,D4,262.75,0.25,100,108.0
5377,B3,262.75,0.25,100,108.0
5378,G4,262.75,0.25,100,108.0
5379,G1,263.0,0.5,100,108.0
5380,D5,263.0,0.5,100,108.0
5381,D4,263.0,0.5,100,108.0
5382,A4,263.0,0.5,100,108.0
5383,F#3,263.0,1.0,125,108.0
5384,C2,263.0,1.0,125,108.0
5385,B3,263.0,73/250,100,108.0
5386,D4,263.0,73/250,100,108.0
5387,G4,263.0,73/250,100,108.0
5388,F#2,263.0,1.0,125,108.0
5389,E2,263.0,1.0,125,108.0
5390,A4,263.017,0.5,100,108.0
5391,G2,263.5,0.5,100,108.0
5392,B3,263.5,0.5,127,108.0
5393,G5,263.5,417/1000,100,108.0
5394,G4,263.5,417/1000,100,108.0
5395,B4,263.5,0.5,100,108.0
5396,G4,263.5,0.5,127,108.0
5397,F#3,263.5,0.5,125,108.0
5398,D4,263.5,0.25,100,108.0
5399,G4,263.5,0.25,100,108.0
5400,B3,263.5,0.25,100,108.0
5401,B4,263.517,483/1000,100,108.0
5402,D4,263.75,0.25,100,108.0
5403,B3,263.75,0.25,100,108.0
5404,G4,263.75,0.25,100,108.0
5405,G2,264.0,0.5,100,108.0
5406,B3,264.0,0.5,127,108.0
5407,B4,264.0,0.5,100,108.0
5408,B4,264.0,517/1000,100,108.0
5409,G4,264.0,0.5,127,108.0
5410,F#3,264.0,1.0,125,108.0
5411,F#3,264.0,0.5,125,108.0
5412,C2,264.0,1.0,125,108.0
5413,D4,264.0,73/250,100,108.0
5414,B3,264.0,73/250,100,108.0
5415,G4,264.0,73/250,100,108.0
5416,F#2,264.0,1.0,125,108.0
5417,E2,264.0,1.0,125,108.0
5418,F#2,264.5,1.0,100,108.0
5419,A3,264.5,417/1000,127,108.0
5420,G5,264.5,417/1000,100,108.0
5421,G4,264.5,417/1000,100,108.0
5422,F#4,264.5,1.0,127,108.0
5423,F#3,264.5,1.0,125,108.0
5424,D4,264.5,0.25,100,108.0
5425,G4,264.5,0.25,100,108.0
5426,B3,264.5,0.25,100,108.0
5427,D4,264.75,0.25,100,108.0
5428,B3,264.75,0.25,100,108.0
5429,G4,264.75,0.25,100,108.0
5430,G3,265.0,0.5,127,108.0
5431,F#3,265.0,1.0,125,108.0
5432,C2,265.0,1.0,125,108.0
5433,B3,265.0,73/250,100,108.0
5434,D4,265.0,73/250,100,108.0
5435,G4,265.0,73/250,100,108.0
5436,F#2,265.0,1.0,125,108.0
5437,E2,265.0,1.0,125,108.0
5438,D2,265.5,1.0,100,108.0
5439,G3,265.5,1.0,127,108.0
5440,G5,265.5,417/1000,100,108.0
5441,G4,265.5,417/1000,100,108.0
5442,B4,265.5,1.5,100,108.0
5443,G4,265.5,1.0,127,108.0
5444,F#3,265.5,1.0,125,108.0
5445,D4,265.5,0.25,100,108.0
5446,G4,265.5,0.25,100,108.0
5447,B3,265.5,0.25,100,108.0
5448,D5,265.517,1.5,100,108.0
5449,D4,265.75,0.25,100,108.0
5450,B3,265.75,0.25,100,108.0
5451,G4,265.75,0.25,100,108.0
5452,F#3,266.0,1.0,125,108.0
5453,C2,266.0,1.0,125,108.0
5454,D4,266.0,73/250,100,108.0
5455,B3,266.0,73/250,100,108.0
5456,G4,266.0,73/250,100,108.0
5457,F#2,266.0,1.0,125,108.0
5458,E2,266.0,1.0,125,108.0
5459,B1,266.5,0.5,100,108.0
5460,F#5,266.5,417/1000,100,108.0
5461,F#4,266.5,417/1000,100,108.0
5462,F#4,266.5,0.5,127,108.0
5463,F#3,266.5,1.0,125,108.0
5464,D4,266.5,0.25,100,108.0
5465,G4,266.5,0.25,100,108.0
5466,B3,266.5,0.25,100,108.0
5467,D4,266.75,0.25,100,108.0
5468,B3,266.75,0.25,100,108.0
5469,G4,266.75,0.25,100,108.0
5470,G1,267.0,0.5,100,108.0
5471,G3,267.0,417/1000,127,108.0
5472,D5,267.0,0.5,100,108.0
5473,D4,267.0,0.5,100,108.0
5474,G4,267.0,0.5,127,108.0
5475,F#3,267.0,1.0,125,108.0
5476,C2,267.0,1.0,125,108.0
5477,B3,267.0,73/250,100,108.0
5478,D4,267.0,73/250,100,108.0
5479,G4,267.0,73/250,100,108.0
5480,F#2,267.0,1.0,125,108.0
5481,E2,267.0,1.0,125,108.0
5482,D2,267.5,26/125,100,108.0
5483,G3,267.5,417/1000,127,108.0
5484,D5,267.5,0.5,100,108.0
5485,D4,267.5,0.5,100,108.0
5486,A4,267.5,0.5,127,108.0
5487,F#3,267.5,0.5,125,108.0
5488,D4,267.5,0.25,100,108.0
5489,G4,267.5,0.25,100,108.0
5490,B3,267.5,0.25,100,108.0
5491,E2,267.75,26/125,100,108.0
5492,D4,267.75,0.25,100,108.0
5493,B3,267.75,0.25,100,108.0
5494,G4,267.75,0.25,100,108.0
5495,F#2,268.0,417/1000,100,108.0
5496,A3,268.0,417/1000,127,108.0
5497,D5,268.0,333/1000,100,108.0
5498,D4,268.0,333/1000,100,108.0
5499,A4,268.0,0.5,100,108.0
5500,A4,268.0,0.5,127,108.0
5501,F#3,268.0,1.0,125,108.0
5502,F#3,268.0,0.5,125,108.0
5503,C2,268.0,1.0,125,108.0
5504,D4,268.0,73/250,100,108.0
5505,A3,268.0,73/250,100,108.0
5506,F#4,268.0,73/250,100,108.0
5507,F#2,268.0,1.0,125,108.0
5508,E2,268.0,1.0,125,108.0
5509,A4,268.017,0.5,100,108.0
5510,E2,268.5,417/1000,100,108.0
5511,G3,268.5,417/1000,127,108.0
5512,G4,268.5,0.5,100,108.0
5513,A4,268.5,0.5,127,108.0
5514,F#3,268.5,1.0,125,108.0
5515,D4,268.5,0.25,100,108.0
5516,F#4,268.5,0.25,100,108.0
5517,A3,268.5,0.25,100,108.0
5518,G4,268.517,0.5,100,108.0
5519,D4,268.75,0.25,100,108.0
5520,A3,268.75,0.25,100,108.0
5521,F#4,268.75,0.25,100,108.0
5522,D2,269.0,0.5,100,108.0
5523,F#3,269.0,0.5,127,108.0
5524,D5,269.0,1.0,100,108.0
5525,D4,269.0,1.0,100,108.0
5526,F#4,269.0,0.5,100,108.0
5527,F#4,269.0,1.0,127,108.0
5528,F#3,269.0,1.0,125,108.0
5529,C2,269.0,1.0,125,108.0
5530,A3,269.0,73/250,100,108.0
5531,D4,269.0,73/250,100,108.0
5532,F#4,269.0,73/250,100,108.0
5533,F#2,269.0,1.0,125,108.0
5534,E2,269.0,1.0,125,108.0
5535,F#4,269.017,0.5,100,108.0
5536,D2,269.5,1.0,100,108.0
5537,F#3,269.5,1.0,127,108.0
5538,F#4,269.5,1.0,100,108.0
5539,F#3,269.5,1.0,125,108.0
5540,D4,269.5,0.25,100,108.0
5541,F#4,269.5,0.25,100,108.0
5542,A3,269.5,0.25,100,108.0
5543,F#4,269.517,1.0,100,108.0
5544,D4,269.75,0.25,100,108.0
5545,A3,269.75,0.25,100,108.0
5546,F#4,269.75,0.25,100,108.0
5547,F#3,270.0,1.0,125,108.0
5548,C2,270.0,1.0,125,108.0
5549,D4,270.0,73/250,100,108.0
5550,A3,270.0,73/250,100,108.0
5551,F#4,270.0,73/250,100,108.0
5552,F#2,270.0,1.0,125,108.0
5553,E2,270.0,1.0,125,108.0
5554,A1,270.5,0.5,100,108.0
5555,D5,270.5,417/1000,100,108.0
5556,D4,270.5,417/1000,100,108.0
5557,G4,270.5,1.0,100,108.0
5558,F#3,270.5,1.0,125,108.0
5559,D4,270.5,0.25,100,108.0
5560,F#4,270.5,0.25,100,108.0
5561,A3,270.5,0.25,100,108.0
5562,G4,270.517,1.0,100,108.0
5563,D4,270.75,0.25,100,108.0
5564,A3,270.75,0.25,100,108.0
5565,F#4,270.75,0.25,100,108.0
5566,F#1,271.0,0.5,100,108.0
5567,D5,271.0,417/1000,100,108.0
5568,D4,271.0,417/1000,100,108.0
5569,F#3,271.0,1.0,125,108.0
5570,C2,271.0,1.0,125,108.0
5571,A3,271.0,73/250,100,108.0
5572,D4,271.0,73/250,100,108.0
5573,F#4,271.0,73/250,100,108.0
5574,F#2,271.0,1.0,125,108.0
5575,E2,271.0,1.0,125,108.0
5576,F#2,271.5,0.5,100,108.0
5577,F#5,271.5,0.5,100,108.0
5578,F#4,271.5,0.5,100,108.0
5579,A4,271.5,0.5,100,108.0
5580,F#4,271.5,0.5,127,108.0
5581,F#3,271.5,0.5,125,108.0
5582,D4,271.5,0.25,100,108.0
5583,F#4,271.5,0.25,100,108.0
5584,A3,271.5,0.25,100,108.0
5585,A4,271.517,483/1000,100,108.0
5586,D4,271.75,0.25,100,108.0
5587,A3,271.75,0.25,100,108.0
5588,F#4,271.75,0.25,100,108.0
5589,F#2,272.0,0.5,100,108.0
5590,A3,272.0,0.5,127,108.0
5591,F#5,272.0,0.5,100,108.0
5592,F#4,272.0,0.5,100,108.0
5593,A4,272.0,0.5,100,108.0
5594,A4,272.0,517/1000,100,108.0
5595,F#4,272.0,0.5,127,108.0
5596,F#3,272.0,1.0,125,108.0
5597,F#3,272.0,0.5,125,108.0
5598,C2,272.0,1.0,125,108.0
5599,D4,272.0,73/250,100,108.0
5600,A3,272.0,73/250,100,108.0
5601,F#4,272.0,73/250,100,108.0
5602,F#2,272.0,1.0,125,108.0
5603,E2,272.0,1.0,125,108.0
5604,E2,272.5,1.0,100,108.0
5605,G3,272.5,417/1000,127,108.0
5606,E5,272.5,1.0,100,108.0
5607,E4,272.5,1.0,100,108.0
5608,E4,272.5,1.0,127,108.0
5609,F#3,272.5,1.0,125,108.0
5610,D4,272.5,0.25,100,108.0
5611,F#4,272.5,0.25,100,108.0
5612,A3,272.5,0.25,100,108.0
5613,D4,272.75,0.25,100,108.0
5614,A3,272.75,0.25,100,108.0
5615,F#4,272.75,0.25,100,108.0
5616,F#3,273.0,0.5,127,108.0
5617,F#3,273.0,1.0,125,108.0
5618,C2,273.0,1.0,125,108.0
5619,A3,273.0,73/250,100,108.0
5620,D4,273.0,73/250,100,108.0
5621,F#4,273.0,73/250,100,108.0
5622,F#2,273.0,1.0,125,108.0
5623,E2,273.0,1.0,125,108.0
5624,D2,273.5,1.0,100,108.0
5625,F#3,273.5,1.0,127,108.0
5626,D5,273.5,1.0,100,108.0
5627,D4,273.5,1.0,100,108.0
5628,A4,273.5,1.5,100,108.0
5629,D4,273.5,1.0,127,108.0
5630,F#3,273.5,1.0,125,108.0
5631,D4,273.5,0.25,100,108.0
5632,F#4,273.5,0.25,100,108.0
5633,A3,273.5,0.25,100,108.0
5634,D5,273.517,1.5,100,108.0
5635,D4,273.75,0.25,100,108.0
5636,A3,273.75,0.25,100,108.0
5637,F#4,273.75,0.25,100,108.0
5638,F#3,274.0,1.0,125,108.0
5639,C2,274.0,1.0,125,108.0
5640,D4,274.0,73/250,100,108.0
5641,A3,274.0,73/250,100,108.0
5642,F#4,274.0,73/250,100,108.0
5643,F#2,274.0,1.0,125,108.0
5644,E2,274.0,1.0,125,108.0
5645,A1,274.5,0.5,100,108.0
5646,E5,274.5,417/1000,100,108.0
5647,E4,274.5,417/1000,100,108.0
5648,E4,274.5,0.5,127,108.0
5649,F#3,274.5,1.0,125,108.0
5650,D4,274.5,0.25,100,108.0
5651,F#4,274.5,0.25,100,108.0
5652,A3,274.5,0.25,100,108.0
5653,D4,274.75,0.25,100,108.0
5654,A3,274.75,0.25,100,108.0
5655,F#4,274.75,0.25,100,108.0
5656,F#1,275.0,1.0,100,108.0
5657,D3,275.0,0.5,127,108.0
5658,F#5,275.0,1.0,100,108.0
5659,F#4,275.0,1.0,100,108.0
5660,F#4,275.0,0.5,127,108.0
5661,F#3,275.0,1.0,125,108.0
5662,C2,275.0,1.0,125,108.0
5663,A3,275.0,73/250,100,108.0
5664,D4,275.0,73/250,100,108.0
5665,F#4,275.0,73/250,100,108.0
5666,F#2,275.0,1.0,125,108.0
5667,E2,275.0,1.0,125,108.0
5668,D3,275.5,0.5,127,108.0
5669,A4,275.5,0.5,127,108.0
5670,F#3,275.5,0.5,125,108.0
5671,D4,275.5,0.25,100,108.0
5672,F#4,275.5,0.25,100,108.0
5673,A3,275.5,0.25,100,108.0
5674,D4,275.75,0.25,100,108.0
5675,A3,275.75,0.25,100,108.0
5676,F#4,275.75,0.25,100,108.0
5677,B1,276.0,0.5,100,108.0
5678,E3,276.0,0.5,127,108.0
5679,E5,276.0,1.0,100,108.0
5680,E4,276.0,1.0,100,108.0
5681,E4,276.0,1.0,100,108.0
5682,A4,276.0,0.5,127,108.0
5683,F#3,276.0,1.0,125,108.0
5684,F#3,276.0,0.5,125,108.0
5685,C2,276.0,1.0,125,108.0
5686,C4,276.0,73/250,100,108.0
5687,G3,276.0,73/250,100,108.0
5688,E4,276.0,73/250,100,108.0
5689,F#2,276.0,1.0,125,108.0
5690,E2,276.0,1.0,125,108.0
5691,E4,276.017,1.0,100,108.0
5692,A1,276.5,0.5,100,108.0
5693,G3,276.5,0.5,127,108.0
5694,B4,276.5,0.5,127,108.0
5695,F#3,276.5,1.0,125,108.0
5696,C4,276.5,0.25,100,108.0
5697,E4,276.5,0.25,100,108.0
5698,G3,276.5,0.25,100,108.0
5699,C4,276.75,0.25,100,108.0
5700,G3,276.75,0.25,100,108.0
5701,E4,276.75,0.25,100,108.0
5702,G1,277.0,0.5,100,108.0
5703,G3,277.0,0.5,127,108.0
5704,E5,277.0,1.0,100,108.0
5705,E4,277.0,1.0,100,108.0
5706,G4,277.0,0.5,100,108.0
5707,G4,277.0,1.0,127,108.0
5708,F#3,277.0,1.0,125,108.0
5709,C2,277.0,1.0,125,108.0
5710,G3,277.0,73/250,100,108.0
5711,C4,277.0,73/250,100,108.0
5712,E4,277.0,73/250,100,108.0
5713,F#2,277.0,1.0,125,108.0
5714,E2,277.0,1.0,125,108.0
5715,G4,277.017,0.5,100,108.0
5716,G1,277.5,1.0,100,108.0
5717,G3,277.5,1.0,127,108.0
5718,E4,277.5,0.5,100,108.0
5719,F#3,277.5,1.0,125,108.0
5720,C4,277.5,0.25,100,108.0
5721,E4,277.5,0.25,100,108.0
5722,G3,277.5,0.25,100,108.0
5723,E4,277.517,0.5,100,108.0
5724,C4,277.75,0.25,100,108.0
5725,G3,277.75,0.25,100,108.0
5726,E4,277.75,0.25,100,108.0
5727,G4,278.0,1.0,100,108.0
5728,F#3,278.0,1.0,125,108.0
5729,C2,278.0,1.0,125,108.0
5730,C4,278.0,73/250,100,108.0
5731,G3,278.0,73/250,100,108.0
5732,E4,278.0,73/250,100,108.0
5733,F#2,278.0,1.0,125,108.0
5734,E2,278.0,1.0,125,108.0
5735,G4,278.017,1.0,100,108.0
5736,E1,278.5,0.5,100,108.0
5737,E5,278.5,417/1000,100,108.0
5738,E4,278.5,417/1000,100,108.0
5739,E4,278.5,0.5,127,108.0
5740,F#3,278.5,1.0,125,108.0
5741,C4,278.5,0.25,100,108.0
5742,E4,278.5,0.25,100,108.0
5743,G3,278.5,0.25,100,108.0
5744,C4,278.75,0.25,100,108.0
5745,G3,278.75,0.25,100,108.0
5746,E4,278.75,0.25,100,108.0
5747,G1,279.0,0.5,100,108.0
5748,G3,279.0,0.5,127,108.0
5749,G5,279.0,417/1000,100,108.0
5750,G4,279.0,417/1000,100,108.0
5751,A4,279.0,0.5,100,108.0
5752,G4,279.0,0.5,127,108.0
5753,F#3,279.0,1.0,125,108.0
5754,C2,279.0,1.0,125,108.0
5755,G3,279.0,73/250,100,108.0
5756,C4,279.0,73/250,100,108.0
5757,E4,279.0,73/250,100,108.0
5758,F#2,279.0,1.0,125,108.0
5759,E2,279.0,1.0,125,108.0
5760,A4,279.017,0.5,100,108.0
5761,B1,279.5,0.5,100,108.0
5762,G3,279.5,0.5,127,108.0
5763,B5,279.5,0.5,100,108.0
5764,B4,279.5,0.5,100,108.0
5765,B4,279.5,0.5,100,108.0
5766,B4,279.5,0.5,127,108.0
5767,F#3,279.5,0.5,125,108.0
5768,C4,279.5,0.25,100,108.0
5769,E4,279.5,0.25,100,108.0
5770,G3,279.5,0.25,100,108.0
5771,B4,279.517,483/1000,100,108.0
5772,C4,279.75,0.25,100,108.0
5773,G3,279.75,0.25,100,108.0
5774,E4,279.75,0.25,100,108.0
5775,B1,280.0,0.5,100,108.0
5776,G3,280.0,0.5,127,108.0
5777,B4,280.0,0.5,100,108.0
5778,B4,280.0,517/1000,100,108.0
5779,B4,280.0,0.5,127,108.0
5780,F#3,280.0,1.0,125,108.0
5781,F#3,280.0,0.5,125,108.0
5782,C2,280.0,1.0,125,108.0
5783,C4,280.0,73/250,100,108.0
5784,G3,280.0,73/250,100,108.0
5785,E4,280.0,73/250,100,108.0
5786,F#2,280.0,1.0,125,108.0
5787,E2,280.0,1.0,125,108.0
5788,A1,280.5,1.0,100,108.0
5789,A3,280.5,0.5,127,108.0
5790,A5,280.5,1.0,100,108.0
5791,A4,280.5,1.0,100,108.0
5792,A4,280.5,1.0,127,108.0
5793,F#3,280.5,1.0,125,108.0
5794,C4,280.5,0.25,100,108.0
5795,E4,280.5,0.25,100,108.0
5796,G3,280.5,0.25,100,108.0
5797,C4,280.75,0.25,100,108.0
5798,G3,280.75,0.25,100,108.0
5799,E4,280.75,0.25,100,108.0
5800,B3,281.0,0.5,127,108.0
5801,F#3,281.0,1.0,125,108.0
5802,C2,281.0,1.0,125,108.0
5803,G3,281.0,73/250,100,108.0
5804,C4,281.0,73/250,100,108.0
5805,E4,281.0,73/250,100,108.0
5806,F#2,281.0,1.0,125,108.0
5807,E2,281.0,1.0,125,108.0
5808,G1,281.5,1.0,100,108.0
5809,D3,281.5,1.0,127,108.0
5810,G5,281.5,1.0,100,108.0
5811,G4,281.5,1.0,100,108.0
5812,B4,281.5,0.25,127,108.0
5813,F#3,281.5,1.0,125,108.0
5814,C4,281.5,0.25,100,108.0
5815,E4,281.5,0.25,100,108.0
5816,G3,281.5,0.25,100,108.0
5817,A4,281.75,0.25,127,108.0
5818,C4,281.75,0.25,100,108.0
5819,G3,281.75,0.25,100,108.0
5820,E4,281.75,0.25,100,108.0
5821,G4,282.0,1.0,127,108.0
5822,F#3,282.0,1.0,125,108.0
5823,C2,282.0,1.0,125,108.0
5824,C4,282.0,73/250,100,108.0
5825,G3,282.0,73/250,100,108.0
5826,E4,282.0,73/250,100,108.0
5827,F#2,282.0,1.0,125,108.0
5828,E2,282.0,1.0,125,108.0
5829,E1,282.5,0.5,100,108.0
5830,A5,282.5,417/1000,100,108.0
5831,A4,282.5,417/1000,100,108.0
5832,F#3,282.5,1.0,125,108.0
5833,C4,282.5,0.25,100,108.0
5834,E4,282.5,0.25,100,108.0
5835,G3,282.5,0.25,100,108.0
5836,C4,282.75,0.25,100,108.0
5837,G3,282.75,0.25,100,108.0
5838,E4,282.75,0.25,100,108.0
5839,G1,283.0,0.5,100,108.0
5840,D3,283.0,0.5,127,108.0
5841,G5,283.0,1.0,100,108.0
5842,G4,283.0,1.0,100,108.0
5843,G4,283.0,229/500,127,108.0
5844,F#3,283.0,1.0,125,108.0
5845,C2,283.0,1.0,125,108.0
5846,G3,283.0,73/250,100,108.0
5847,C4,283.0,73/250,100,108.0
5848,E4,283.0,73/250,100,108.0
5849,F#2,283.0,1.0,125,108.0
5850,E2,283.0,1.0,125,108.0
5851,A1,283.5,0.5,100,108.0
5852,D3,283.5,0.5,127,108.0
5853,G4,283.5,0.5,127,108.0
5854,F#3,283.5,0.5,125,108.0
5855,C4,283.5,0.25,100,108.0
5856,E4,283.5,0.25,100,108.0
5857,G3,283.5,0.25,100,108.0
5858,C4,283.75,0.25,100,108.0
5859,G3,283.75,0.25,100,108.0
5860,E4,283.75,0.25,100,108.0
5861,B1,284.0,667/1000,100,108.0
5862,D3,284.0,0.5,127,108.0
5863,B5,284.0,417/1000,100,108.0
5864,G4,284.0,417/1000,100,108.0
5865,B4,284.0,0.5,100,108.0
5866,D5,284.0,1.0,127,108.0
5867,F#3,284.0,1.0,125,108.0
5868,F#3,284.0,0.5,125,108.0
5869,C2,284.0,1.0,125,108.0
5870,D4,284.0,73/250,100,108.0
5871,B3,284.0,73/250,100,108.0
5872,G4,284.0,73/250,100,108.0
5873,F#2,284.0,1.0,125,108.0
5874,E2,284.0,1.0,125,108.0
5875,G4,284.017,0.5,100,108.0
5876,D3,284.5,0.5,127,108.0
5877,B4,284.5,0.5,100,108.0
5878,F#3,284.5,1.0,125,108.0
5879,D4,284.5,0.25,100,108.0
5880,G4,284.5,0.25,100,108.0
5881,B3,284.5,0.25,100,108.0
5882,G4,284.517,0.5,100,108.0
5883,D4,284.75,0.25,100,108.0
5884,B3,284.75,0.25,100,108.0
5885,G4,284.75,0.25,100,108.0
5886,B1,285.0,1.0,100,108.0
5887,D3,285.0,0.5,127,108.0
5888,B5,285.0,1.5,100,108.0
5889,G4,285.0,1.5,100,108.0
5890,B4,285.0,1.0,100,108.0
5891,B4,285.0,1.0,127,108.0
5892,F#3,285.0,1.0,125,108.0
5893,C2,285.0,1.0,125,108.0
5894,B3,285.0,73/250,100,108.0
5895,D4,285.0,73/250,100,108.0
5896,G4,285.0,73/250,100,108.0
5897,F#2,285.0,1.0,125,108.0
5898,E2,285.0,1.0,125,108.0
5899,G4,285.017,1.0,100,108.0
5900,D3,285.5,1.0,127,108.0
5901,F#3,285.5,1.0,125,108.0
5902,D4,285.5,0.25,100,108.0
5903,G4,285.5,0.25,100,108.0
5904,B3,285.5,0.25,100,108.0
5905,D4,285.75,0.25,100,108.0
5906,B3,285.75,0.25,100,108.0
5907,G4,285.75,0.25,100,108.0
5908,F#3,286.0,1.0,125,108.0
5909,C2,286.0,1.0,125,108.0
5910,D4,286.0,73/250,100,108.0
5911,B3,286.0,73/250,100,108.0
5912,G4,286.0,73/250,100,108.0
5913,F#2,286.0,1.0,125,108.0
5914,E2,286.0,1.0,125,108.0
5915,B1,286.5,0.5,100,108.0
5916,B5,286.5,417/1000,100,108.0
5917,G4,286.5,417/1000,100,108.0
5918,G4,286.5,0.5,127,108.0
5919,F#3,286.5,1.0,125,108.0
5920,D4,286.5,0.25,100,108.0
5921,G4,286.5,0.25,100,108.0
5922,B3,286.5,0.25,100,108.0
5923,D4,286.75,0.25,100,108.0
5924,B3,286.75,0.25,100,108.0
5925,G4,286.75,0.25,100,108.0
5926,B1,287.0,0.5,100,108.0
5927,D3,287.0,0.5,127,108.0
5928,B5,287.0,417/1000,100,108.0
5929,G4,287.0,417/1000,100,108.0
5930,G4,287.0,0.5,127,108.0
5931,F#3,287.0,1.0,125,108.0
5932,C2,287.0,1.0,125,108.0
5933,B3,287.0,73/250,100,108.0
5934,D4,287.0,73/250,100,108.0
5935,G4,287.0,73/250,100,108.0
5936,F#2,287.0,1.0,125,108.0
5937,E2,287.0,1.0,125,108.0
5938,C2,287.5,0.5,100,108.0
5939,D3,287.5,0.5,127,108.0
5940,A5,287.5,0.5,100,108.0
5941,A4,287.5,0.5,100,108.0
5942,E4,287.5,0.5,100,108.0
5943,C5,287.5,0.5,127,108.0
5944,F#3,287.5,0.5,125,108.0
5945,E4,287.5,0.25,100,108.0
5946,G4,287.5,0.25,100,108.0
5947,C4,287.5,0.25,100,108.0
5948,G4,287.517,483/1000,100,108.0
5949,E4,287.75,0.25,100,108.0
5950,C4,287.75,0.25,100,108.0
5951,G4,287.75,0.25,100,108.0
5952,C2,288.0,0.5,100,108.0
5953,E3,288.0,0.5,127,108.0
5954,A5,288.0,0.5,100,108.0
5955,A4,288.0,0.5,100,108.0
5956,E4,288.0,0.5,100,108.0
5957,G4,288.0,517/1000,100,108.0
5958,C5,288.0,0.5,127,108.0
5959,F#3,288.0,1.0,125,108.0
5960,F#3,288.0,0.5,125,108.0
5961,C2,288.0,1.0,125,108.0
5962,E4,288.0,73/250,100,108.0
5963,C4,288.0,73/250,100,108.0
5964,G4,288.0,73/250,100,108.0
5965,F#2,288.0,1.0,125,108.0
5966,E2,288.0,1.0,125,108.0
5967,B1,288.5,1.0,100,108.0
5968,G3,288.5,1.0,127,108.0
5969,G5,288.5,1.0,100,108.0
5970,G4,288.5,1.0,100,108.0
5971,D4,288.5,1.0,100,108.0
5972,B4,288.5,1.0,127,108.0
5973,F#3,288.5,1.0,125,108.0
5974,D4,288.5,0.25,100,108.0
5975,G4,288.5,0.25,100,108.0
5976,B3,288.5,0.25,100,108.0
5977,G4,288.517,1.0,100,108.0
5978,D4,288.75,0.25,100,108.0
5979,B3,288.75,0.25,100,108.0
5980,G4,288.75,0.25,100,108.0
5981,F#3,289.0,1.0,125,108.0
5982,C2,289.0,1.0,125,108.0
5983,B3,289.0,73/250,100,108.0
5984,D4,289.0,73/250,100,108.0
5985,G4,289.0,73/250,100,108.0
5986,F#2,289.0,1.0,125,108.0
5987,E2,289.0,1.0,125,108.0
5988,A1,289.5,1.0,100,108.0
5989,G3,289.5,1.0,127,108.0
5990,G5,289.5,1.0,100,108.0
5991,G4,289.5,1.0,100,108.0
5992,E4,289.5,1.0,100,108.0
5993,A4,289.5,0.5,127,108.0
5994,F#3,289.5,1.0,125,108.0
5995,E4,289.5,0.25,100,108.0
5996,G4,289.5,0.25,100,108.0
5997,C4,289.5,0.25,100,108.0
5998,G4,289.517,1.0,100,108.0
5999,E4,289.75,0.25,100,108.0
6000,C4,289.75,0.25,100,108.0
6001,G4,289.75,0.25,100,108.0
6002,G4,290.0,1.0,127,108.0
6003,F#3,290.0,1.0,125,108.0
6004,C2,290.0,1.0,125,108.0
6005,E4,290.0,73/250,100,108.0
6006,C4,290.0,73/250,100,108.0
6007,G4,290.0,73/250,100,108.0
6008,F#2,290.0,1.0,125,108.0
6009,E2,290.0,1.0,125,108.0
6010,G1,290.5,0.5,100,108.0
6011,A3,290.5,0.5,127,108.0
6012,A5,290.5,417/1000,100,108.0
6013,A4,290.5,417/1000,100,108.0
6014,F#3,290.5,1.0,125,108.0
6015,E4,290.5,0.25,100,108.0
6016,G4,290.5,0.25,100,108.0
6017,C4,290.5,0.25,100,108.0
6018,E4,290.75,0.25,100,108.0
6019,C4,290.75,0.25,100,108.0
6020,G4,290.75,0.25,100,108.0
6021,A1,291.0,0.5,100,108.0
6022,G3,291.0,0.5,127,108.0
6023,G5,291.0,1.0,100,108.0
6024,G4,291.0,1.0,100,108.0
6025,F#3,291.0,1.0,125,108.0
6026,C2,291.0,1.0,125,108.0
6027,C4,291.0,73/250,100,108.0
6028,E4,291.0,73/250,100,108.0
6029,G4,291.0,73/250,100,108.0
6030,F#2,291.0,1.0,125,108.0
6031,E2,291.0,1.0,125,108.0
6032,B-1,291.5,0.5,100,108.0
6033,E3,291.5,0.5,127,108.0
6034,G4,291.5,0.5,127,108.0
6035,F#3,291.5,0.5,125,108.0
6036,E4,291.5,0.25,100,108.0
6037,G4,291.5,0.25,100,108.0
6038,C4,291.5,0.25,100,108.0
6039,E4,291.75,0.25,100,108.0
6040,C4,291.75,0.25,100,108.0
6041,G4,291.75,0.25,100,108.0
6042,B1,292.0,667/1000,100,108.0
6043,D3,292.0,0.5,127,108.0
6044,B5,292.0,417/1000,100,108.0
6045,G4,292.0,417/1000,100,108.0
6046,B4,292.0,1.0,100,108.0
6047,D5,292.0,1.0,127,108.0
6048,F#3,292.0,1.0,125,108.0
6049,F#3,292.0,0.5,125,108.0
6050,C2,292.0,1.0,125,108.0
6051,D4,292.0,73/250,100,108.0
6052,B3,292.0,73/250,100,108.0
6053,G4,292.0,73/250,100,108.0
6054,F#2,292.0,1.0,125,108.0
6055,E2,292.0,1.0,125,108.0
6056,G4,292.017,1.0,100,108.0
6057,B3,292.5,0.5,127,108.0
6058,F#3,292.5,1.0,125,108.0
6059,D4,292.5,0.25,100,108.0
6060,G4,292.5,0.25,100,108.0
6061,B3,292.5,0.25,100,108.0
6062,D4,292.75,0.25,100,108.0
6063,B3,292.75,0.25,100,108.0
6064,G4,292.75,0.25,100,108.0
6065,B1,293.0,1.0,100,108.0
6066,B3,293.0,0.5,127,108.0
6067,B5,293.0,1.5,100,108.0
6068,G4,293.0,1.5,100,108.0
6069,B4,293.0,1.0,100,108.0
6070,B4,293.0,1.0,127,108.0
6071,F#3,293.0,1.0,125,108.0
6072,C2,293.0,1.0,125,108.0
6073,B3,293.0,73/250,100,108.0
6074,D4,293.0,73/250,100,108.0
6075,G4,293.0,73/250,100,108.0
6076,F#2,293.0,1.0,125,108.0
6077,E2,293.0,1.0,125,108.0
6078,G4,293.017,1.0,100,108.0
6079,F#3,293.5,1.0,125,108.0
6080,D4,293.5,0.25,100,108.0
6081,G4,293.5,0.25,100,108.0
6082,B3,293.5,0.25,100,108.0
6083,D4,293.75,0.25,100,108.0
6084,B3,293.75,0.25,100,108.0
6085,G4,293.75,0.25,100,108.0
6086,F#3,294.0,1.0,125,108.0
6087,C2,294.0,1.0,125,108.0
6088,D4,294.0,73/250,100,108.0
6089,B3,294.0,73/250,100,108.0
6090,G4,294.0,73/250,100,108.0
6091,F#2,294.0,1.0,125,108.0
6092,E2,294.0,1.0,125,108.0
6093,C2,294.5,0.5,100,108.0
6094,B5,294.5,417/1000,100,108.0
6095,B4,294.5,417/1000,100,108.0
6096,G4,294.5,0.5,127,108.0
6097,F#3,294.5,1.0,125,108.0
6098,D4,294.5,0.25,100,108.0
6099,G4,294.5,0.25,100,108.0
6100,B3,294.5,0.25,100,108.0
6101,D4,294.75,0.25,100,108.0
6102,B3,294.75,0.25,100,108.0
6103,G4,294.75,0.25,100,108.0
6104,C#2,295.0,0.5,100,108.0
6105,D3,295.0,0.5,127,108.0
6106,B5,295.0,417/1000,100,108.0
6107,B4,295.0,417/1000,100,108.0
6108,F#3,295.0,1.0,125,108.0
6109,C2,295.0,1.0,125,108.0
6110,B3,295.0,73/250,100,108.0
6111,D4,295.0,73/250,100,108.0
6112,G4,295.0,73/250,100,108.0
6113,F#2,295.0,1.0,125,108.0
6114,E2,295.0,1.0,125,108.0
6115,D2,295.5,0.5,100,108.0
6116,D3,295.5,0.5,127,108.0
6117,A5,295.5,0.5,100,108.0
6118,D4,295.5,0.5,100,108.0
6119,E4,295.5,0.5,100,108.0
6120,C5,295.5,0.5,127,108.0
6121,F#3,295.5,0.5,125,108.0
6122,E4,295.5,0.25,100,108.0
6123,G4,295.5,0.25,100,108.0
6124,C4,295.5,0.25,100,108.0
6125,G4,295.517,483/1000,100,108.0
6126,E4,295.75,0.25,100,108.0
6127,C4,295.75,0.25,100,108.0
6128,G4,295.75,0.25,100,108.0
6129,D2,296.0,0.5,100,108.0
6130,E3,296.0,0.5,127,108.0
6131,A5,296.0,0.5,100,108.0
6132,D4,296.0,0.5,100,108.0
6133,E4,296.0,0.5,100,108.0
6134,G4,296.0,517/1000,100,108.0
6135,C5,296.0,0.5,127,108.0
6136,F#3,296.0,1.0,125,108.0
6137,F#3,296.0,0.5,125,108.0
6138,C2,296.0,1.0,125,108.0
6139,D4,296.0,4.0,100,108.0
6140,D3,296.0,4.0,100,108.0
6141,E4,296.0,73/250,100,108.0
6142,C4,296.0,73/250,100,108.0
6143,G4,296.0,73/250,100,108.0
6144,F#2,296.0,1.0,125,108.0
6145,E2,296.0,1.0,125,108.0
6146,D2,296.5,1.0,97,108.0
6147,G3,296.5,1.0,123,108.0
6148,G5,296.5,1.0,97,108.0
6149,E4,296.5,1.0,97,108.0
6150,D4,296.5,1.0,97,108.0
6151,B4,296.5,1.0,123,108.0
6152,F#3,296.5,1.0,121,108.0
6153,E4,296.5,0.25,97,108.0
6154,G4,296.5,0.25,97,108.0
6155,C4,296.5,0.25,97,108.0
6156,G4,296.517,1.0,97,108.0
6157,E4,296.75,0.25,96,108.0
6158,C4,296.75,0.25,96,108.0
6159,G4,296.75,0.25,96,108.0
6160,F#3,297.0,1.0,117,108.0
6161,C2,297.0,1.0,117,108.0
6162,C4,297.0,73/250,94,108.0
6163,E4,297.0,73/250,94,108.0
6164,G4,297.0,73/250,94,108.0
6165,F#2,297.0,1.0,117,108.0
6166,E2,297.0,1.0,117,108.0
6167,D2,297.5,1.0,91,108.0
6168,G3,297.5,1.0,115,108.0
6169,G5,297.5,1.0,91,108.0
6170,D4,297.5,1.0,91,108.0
6171,G4,297.5,1.0,91,108.0
6172,A4,297.5,0.5,115,108.0
6173,F#3,297.5,1.0,113,108.0
6174,E4,297.5,0.25,91,108.0
6175,G4,297.5,0.25,91,108.0
6176,C4,297.5,0.25,91,108.0
6177,G4,297.517,1.0,91,108.0
6178,E2,297.75,1.0,112,108.0
6179,E4,297.75,0.25,90,108.0
6180,C4,297.75,0.25,90,108.0
6181,G4,297.75,0.25,90,108.0
6182,G4,298.0,1.0,111,108.0
6183,E2,298.0,1.0,110,108.0
6184,F#3,298.0,1.0,110,108.0
6185,C2,298.0,1.0,110,108.0
6186,E4,298.0,73/250,88,108.0
6187,C4,298.0,73/250,88,108.0
6188,G4,298.0,73/250,88,108.0
6189,E2,298.25,1.0,107,108.0
6190,D2,298.5,417/1000,85,108.0
6191,A3,298.5,0.5,107,108.0
6192,A5,298.5,417/1000,85,108.0
6193,E4,298.5,417/1000,85,108.0
6194,E2,298.5,1.0,106,108.0
6195,F#3,298.5,1.0,106,108.0
6196,E4,298.5,0.25,85,108.0
6197,G4,298.5,0.25,85,108.0
6198,C4,298.5,0.25,85,108.0
6199,E2,298.75,1.0,103,108.0
6200,E4,298.75,0.25,83,108.0
6201,C4,298.75,0.25,83,108.0
6202,G4,298.75,0.25,83,108.0
6203,D2,299.0,0.5,82,108.0
6204,G3,299.0,0.5,104,108.0
6205,G5,299.0,1.0,82,108.0
6206,D4,299.0,1.0,82,108.0
6207,E2,299.0,1.0,102,108.0
6208,F#3,299.0,1.0,102,108.0
6209,C2,299.0,1.0,102,108.0
6210,C4,299.0,73/250,82,108.0
6211,E4,299.0,73/250,82,108.0
6212,G4,299.0,73/250,82,108.0
6213,E2,299.25,0.75,100,108.0
6214,E2,299.5,26/125,79,108.0
6215,E3,299.5,0.5,100,108.0
6216,D4,299.5,229/500,100,108.0
6217,E2,299.5,0.5,98,108.0
6218,F#3,299.5,0.5,98,108.0
6219,E4,299.5,0.25,79,108.0
6220,G4,299.5,0.25,79,108.0
6221,C4,299.5,0.25,79,108.0
6222,F#2,299.75,26/125,77,108.0
6223,E2,299.75,0.25,96,108.0
6224,E4,299.75,0.25,77,108.0
6225,C4,299.75,0.25,77,108.0
6226,G4,299.75,0.25,77,108.0
6227,G2,300.0,417/1000,75,108.0
6228,A3,300.0,417/1000,95,108.0
6229,G5,300.0,417/1000,75,108.0
6230,G4,300.0,417/1000,75,108.0
6231,D4,300.0,1.0,75,108.0
6232,B4,300.0,0.5,95,108.0
6233,E2,300.0,0.25,100,108.0
6234,E2,300.0,0.5,98,108.0
6235,E2,300.0,0.75,96,108.0
6236,F#3,300.0,1.0,93,108.0
6237,F#3,300.0,0.5,98,108.0
6238,C2,300.0,1.0,93,108.0
6239,D4,300.0,73/250,75,108.0
6240,B3,300.0,73/250,75,108.0
6241,G4,300.0,73/250,75,108.0
6242,F#2,300.0,1.0,93,108.0
6243,E2,300.0,1.0,93,108.0
6244,D4,300.017,1.0,75,108.0
6245,F#2,300.5,417/1000,72,108.0
6246,A3,300.5,417/1000,91,108.0
6247,A4,300.5,0.5,91,108.0
6248,F#3,300.5,1.0,90,108.0
6249,D4,300.5,0.25,72,108.0
6250,G4,300.5,0.25,72,108.0
6251,B3,300.5,0.25,72,108.0
6252,D4,300.75,0.25,71,108.0
6253,B3,300.75,0.25,71,108.0
6254,G4,300.75,0.25,71,108.0
6255,E2,301.0,0.5,69,108.0
6256,G3,301.0,0.5,87,108.0
6257,G5,301.0,1.5,69,108.0
6258,G4,301.0,1.5,69,108.0
6259,E4,301.0,0.5,69,108.0
6260,G4,301.0,0.5,87,108.0
6261,F#3,301.0,1.0,86,108.0
6262,C2,301.0,1.0,86,108.0
6263,B3,301.0,73/250,69,108.0
6264,D4,301.0,73/250,69,108.0
6265,G4,301.0,73/250,69,108.0
6266,F#2,301.0,1.0,86,108.0
6267,E2,301.0,1.0,86,108.0
6268,E4,301.017,0.5,69,108.0
6269,D2,301.5,1.0,66,108.0
6270,G3,301.5,1.0,83,108.0
6271,D4,301.5,0.5,66,108.0
6272,B4,301.5,1.0,83,108.0
6273,F#3,301.5,1.0,82,108.0
6274,D4,301.5,0.25,66,108.0
6275,G4,301.5,0.25,66,108.0
6276,B3,301.5,0.25,66,108.0
6277,D4,301.517,0.5,66,108.0
6278,D4,301.75,0.25,65,108.0
6279,B3,301.75,0.25,65,108.0
6280,G4,301.75,0.25,65,108.0
6281,G4,302.0,1.0,63,108.0
6282,F#3,302.0,1.0,78,108.0
6283,C2,302.0,1.0,78,108.0
6284,D4,302.0,73/250,63,108.0
6285,B3,302.0,73/250,63,108.0
6286,G4,302.0,73/250,63,108.0
6287,F#2,302.0,1.0,78,108.0
6288,E2,302.0,1.0,78,108.0
6289,G4,302.017,1.0,63,108.0
6290,B1,302.5,0.5,60,108.0
6291,D5,302.5,0.5,60,108.0
6292,D4,302.5,0.5,60,108.0
6293,F#3,302.5,1.0,75,108.0
6294,D4,302.5,0.25,60,108.0
6295,G4,302.5,0.25,60,108.0
6296,B3,302.5,0.25,60,108.0
6297,D4,302.75,0.25,58,108.0
6298,B3,302.75,0.25,58,108.0
6299,G4,302.75,0.25,58,108.0
6300,G1,303.0,0.5,57,108.0
6301,D5,303.0,0.5,57,108.0
6302,D4,303.0,0.5,57,108.0
6303,A4,303.0,0.5,57,108.0
6304,F#3,303.0,1.0,71,108.0
6305,C2,303.0,1.0,71,108.0
6306,B3,303.0,73/250,57,108.0
6307,D4,303.0,73/250,57,108.0
6308,G4,303.0,73/250,57,108.0
6309,F#2,303.0,1.0,71,108.0
6310,E2,303.0,1.0,71,108.0
6311,A4,303.017,0.5,57,108.0
6312,G2,303.5,0.5,54,108.0
6313,B3,303.5,0.5,68,108.0
6314,G5,303.5,417/1000,54,108.0
6315,G4,303.5,417/1000,54,108.0
6316,B4,303.5,0.5,54,108.0
6317,G4,303.5,0.5,68,108.0
6318,F#3,303.5,0.5,67,108.0
6319,D4,303.5,0.25,54,108.0
6320,G4,303.5,0.25,54,108.0
6321,B3,303.5,0.25,54,108.0
6322,B4,303.517,483/1000,53,108.0
6323,D4,303.75,0.25,52,108.0
6324,B3,303.75,0.25,52,108.0
6325,G4,303.75,0.25,52,108.0
6326,G2,304.0,0.5,54,108.0
6327,B3,304.0,0.5,68,108.0
6328,B4,304.0,0.5,54,108.0
6329,B4,304.0,517/1000,53,108.0
6330,G4,304.0,0.5,68,108.0
6331,F#3,304.0,1.0,62,108.0
6332,F#3,304.0,0.5,67,108.0
6333,C2,304.0,1.0,62,108.0
6334,D4,304.0,73/250,50,108.0
6335,B3,304.0,73/250,50,108.0
6336,G4,304.0,73/250,50,108.0
6337,F#2,304.0,1.0,62,108.0
6338,E2,304.0,1.0,62,108.0
6339,F#2,304.5,1.0,47,108.0
6340,A3,304.5,417/1000,59,108.0
6341,G5,304.5,417/1000,47,108.0
6342,G4,304.5,417/1000,47,108.0
6343,F#4,304.5,1.0,59,108.0
6344,F#3,304.5,1.0,58,108.0
6345,D4,304.5,0.25,47,108.0
6346,G4,304.5,0.25,47,108.0
6347,B3,304.5,0.25,47,108.0
6348,D4,304.75,0.25,46,108.0
6349,B3,304.75,0.25,46,108.0
6350,G4,304.75,0.25,46,108.0
6351,G3,305.0,0.5,55,108.0
6352,F#3,305.0,1.0,55,108.0
6353,C2,305.0,1.0,55,108.0
6354,B3,305.0,73/250,44,108.0
6355,D4,305.0,73/250,44,108.0
6356,G4,305.0,73/250,44,108.0
6357,F#2,305.0,1.0,55,108.0
6358,E2,305.0,1.0,55,108.0
6359,D2,305.5,1.0,41,108.0
6360,G3,305.5,1.0,52,108.0
6361,G5,305.5,417/1000,41,108.0
6362,G4,305.5,417/1000,41,108.0
6363,B4,305.5,1.5,41,108.0
6364,G4,305.5,1.0,52,108.0
6365,F#3,305.5,1.0,51,108.0
6366,D4,305.5,0.25,41,108.0
6367,G4,305.5,0.25,41,108.0
6368,B3,305.5,0.25,41,108.0
6369,D5,305.517,1.5,41,108.0
6370,D4,305.75,0.25,40,108.0
6371,B3,305.75,0.25,40,108.0
6372,G4,305.75,0.25,40,108.0
6373,F#3,306.0,1.0,47,108.0
6374,C2,306.0,1.0,47,108.0
6375,D4,306.0,73/250,38,108.0
6376,B3,306.0,73/250,38,108.0
6377,G4,306.0,73/250,38,108.0
6378,F#2,306.0,1.0,47,108.0
6379,E2,306.0,1.0,47,108.0
6380,B1,306.5,0.5,35,108.0
6381,F#5,306.5,417/1000,35,108.0
6382,F#4,306.5,417/1000,35,108.0
6383,F#4,306.5,0.5,44,108.0
6384,F#3,306.5,1.0,43,108.0
6385,D4,306.5,0.25,35,108.0
6386,G4,306.5,0.25,35,108.0
6387,B3,306.5,0.25,35,108.0
6388,D4,306.75,0.25,33,108.0
6389,B3,306.75,0.25,33,108.0
6390,G4,306.75,0.25,33,108.0
6391,G1,307.0,0.5,32,108.0
6392,G3,307.0,417/1000,40,108.0
6393,D5,307.0,0.5,32,108.0
6394,D4,307.0,0.5,32,108.0
6395,G4,307.0,0.5,40,108.0
6396,F#3,307.0,1.0,40,108.0
6397,C2,307.0,1.0,40,108.0
6398,B3,307.0,73/250,32,108.0
6399,D4,307.0,73/250,32,108.0
6400,G4,307.0,73/250,32,108.0
6401,F#2,307.0,1.0,40,108.0
6402,E2,307.0,1.0,40,108.0
6403,D2,307.5,26/125,29,108.0
6404,G3,307.5,417/1000,36,108.0
6405,D5,307.5,0.5,29,108.0
6406,D4,307.5,0.5,29,108.0
6407,A4,307.5,0.5,36,108.0
6408,F#3,307.5,0.5,36,108.0
6409,D4,307.5,0.25,29,108.0
6410,G4,307.5,0.25,29,108.0
6411,B3,307.5,0.25,29,108.0
6412,E2,307.75,26/125,27,108.0
6413,D4,307.75,0.25,27,108.0
6414,B3,307.75,0.25,27,108.0
6415,G4,307.75,0.25,27,108.0
6416,F#2,308.0,417/1000,25,108.0
6417,A3,308.0,417/1000,31,108.0
6418,D5,308.0,333/1000,29,108.0
6419,D4,308.0,333/1000,29,108.0
6420,A4,308.0,0.5,25,108.0
6421,A4,308.0,0.5,36,108.0
6422,F#3,308.0,1.0,31,108.0
6423,F#3,308.0,0.5,36,108.0
6424,C2,308.0,1.0,31,108.0
6425,D4,308.0,73/250,25,108.0
6426,A3,308.0,73/250,25,108.0
6427,F#4,308.0,73/250,25,108.0
6428,F#2,308.0,1.0,31,108.0
6429,E2,308.0,1.0,31,108.0
6430,A4,308.017,0.5,25,108.0
6431,E2,308.5,417/1000,22,108.0
6432,G3,308.5,417/1000,27,108.0
6433,G4,308.5,0.5,22,108.0
6434,A4,308.5,0.5,27,108.0
6435,F#3,308.5,1.0,27,108.0
6436,D4,308.5,0.25,22,108.0
6437,F#4,308.5,0.25,22,108.0
6438,A3,308.5,0.25,22,108.0
6439,G4,308.517,0.5,22,108.0
6440,D4,308.75,0.25,21,108.0
6441,A3,308.75,0.25,21,108.0
6442,F#4,308.75,0.25,21,108.0
6443,D2,309.0,0.5,19,108.0
6444,F#3,309.0,0.5,24,108.0
6445,D5,309.0,1.0,19,108.0
6446,D4,309.0,1.0,19,108.0
6447,F#4,309.0,0.5,19,108.0
6448,F#4,309.0,1.0,24,108.0
6449,F#3,309.0,1.0,23,108.0
6450,C2,309.0,1.0,23,108.0
6451,A3,309.0,73/250,19,108.0
6452,D4,309.0,73/250,19,108.0
6453,F#4,309.0,73/250,19,108.0
6454,F#2,309.0,1.0,23,108.0
6455,E2,309.0,1.0,23,108.0
6456,F#4,309.017,0.5,19,108.0
6457,D2,309.5,1.0,16,108.0
6458,F#3,309.5,1.0,20,108.0
6459,F#4,309.5,1.0,16,108.0
6460,F#3,309.5,1.0,20,108.0
6461,D4,309.5,0.25,16,108.0
6462,F#4,309.5,0.25,16,108.0
6463,A3,309.5,0.25,16,108.0
6464,F#4,309.517,1.0,16,108.0
6465,D4,309.75,0.25,15,108.0
6466,A3,309.75,0.25,15,108.0
6467,F#4,309.75,0.25,15,108.0
6468,F#3,310.0,1.0,16,108.0
6469,C2,310.0,1.0,16,108.0
6470,D4,310.0,73/250,13,108.0
6471,A3,310.0,73/250,13,108.0
6472,F#4,310.0,73/250,13,108.0
6473,F#2,310.0,1.0,16,108.0
6474,E2,310.0,1.0,16,108.0
6475,A1,310.5,0.5,10,108.0
6476,D5,310.5,417/1000,10,108.0
6477,D4,310.5,417/1000,10,108.0
6478,G4,310.5,1.0,10,108.0
6479,F#3,310.5,1.0,12,108.0
6480,D4,310.5,0.25,10,108.0
6481,F#4,310.5,0.25,10,108.0
6482,A3,310.5,0.25,10,108.0
6483,G4,310.517,1.0,10,108.0
6484,D4,310.75,0.25,8,108.0
6485,A3,310.75,0.25,8,108.0
6486,F#4,310.75,0.25,8,108.0
6487,F#1,311.0,0.5,7,108.0
6488,D5,311.0,417/1000,7,108.0
6489,D4,311.0,417/1000,7,108.0
6490,F#3,311.0,1.0,8,108.0
6491,C2,311.0,1.0,8,108.0
6492,A3,311.0,73/250,7,108.0
6493,D4,311.0,73/250,7,108.0
6494,F#4,311.0,73/250,7,108.0
6495,F#2,311.0,1.0,8,108.0
6496,E2,311.0,1.0,8,108.0
6497,F#2,311.5,0.5,4,108.0
6498,F#5,311.5,0.5,4,108.0
6499,F#4,311.5,0.5,4,108.0
6500,A4,311.5,0.5,4,108.0
6501,F#4,311.5,0.5,5,108.0
6502,F#3,311.5,0.5,5,108.0
6503,D4,311.5,0.25,4,108.0
6504,F#4,311.5,0.25,4,108.0
6505,A3,311.5,0.25,4,108.0
6506,A4,311.517,483/1000,3,108.0
6507,D4,311.75,0.25,2,108.0
6508,A3,311.75,0.25,2,108.0
6509,F#4,311.75,0.25,2,108.0
6510,F#2,312.0,0.5,4,108.0
6511,F#5,312.0,0.5,4,108.0
6512,F#4,312.0,0.5,4,108.0
6513,A4,312.0,0.5,4,108.0
6514,A4,312.0,517/1000,3,108.0
6515,F#4,312.0,0.5,5,108.0
6516,F#3,312.0,0.5,5,108.0
