,note_name,start_time,duration,velocity,tempo
0,B-2,0.0,1.0,95,103.0
1,B-2,1.0,1.0,95,103.0
2,B-2,2.0,1.0,95,103.0
3,D3,2.5,53/1000,95,103.0
4,A2,2.5,53/1000,95,103.0
5,E2,2.5,53/1000,95,103.0
6,F2,2.75,107/1000,95,103.0
7,B-2,3.0,0.25,95,103.0
8,B-2,3.25,107/1000,95,103.0
9,B2,3.5,0.25,95,103.0
10,C3,3.75,0.25,95,103.0
11,B-2,4.0,1.0,15,103.0
12,G2,4.25,0.25,95,103.0
13,G2,4.5,107/1000,95,103.0
14,G2,4.75,107/1000,95,103.0
15,B-2,5.0,107/1000,95,103.0
16,B-2,5.25,107/1000,95,103.0
17,C3,5.5,107/1000,95,103.0
18,C3,5.75,107/1000,95,103.0
19,E-3,6.0,0.25,95,103.0
20,B-2,6.0,1.0,15,103.0
21,C#3,6.25,0.75,95,103.0
22,B-2,7.0,0.25,95,103.0
23,B-2,7.25,0.25,95,103.0
24,B2,7.5,0.25,95,103.0
25,C3,7.75,0.25,95,103.0
26,B-2,8.0,1.0,15,103.0
27,E2,8.25,0.75,95,103.0
28,F2,9.0,0.25,95,103.0
29,F2,9.25,0.25,95,103.0
30,F2,9.5,0.25,95,103.0
31,F#2,9.75,0.5,95,103.0
32,B-2,10.0,1.0,15,103.0
33,G2,10.25,0.75,95,103.0
34,B-2,11.0,0.25,95,103.0
35,B-2,11.25,0.25,95,103.0
36,B2,11.5,0.25,95,103.0
37,C3,11.75,0.25,95,103.0
38,B-2,12.0,1.0,15,103.0
39,G2,12.25,0.25,95,103.0
40,B-2,13.0,107/1000,95,103.0
41,B2,13.167,107/1000,95,103.0
42,C3,13.333,107/1000,95,103.0
43,E-3,13.5,107/1000,95,103.0
44,C3,13.667,107/1000,95,103.0
45,B-2,13.833,107/1000,95,103.0
46,F3,14.0,0.25,95,103.0
47,B-2,14.0,1.0,15,103.0
48,E-3,14.25,0.75,95,103.0
49,F#3,14.875,0.125,95,103.0
50,G3,15.0,0.5,95,103.0
51,B-3,15.5,0.25,95,103.0
52,G3,15.688,0.062,95,103.0
53,F#3,15.75,0.5,95,103.0
54,B-2,16.0,1.0,15,103.0
55,F3,16.25,0.25,95,103.0
56,E-3,16.5,0.25,95,103.0
57,B-2,16.75,0.25,95,103.0
58,B-2,16.938,0.062,95,103.0
59,C3,17.0,0.25,95,103.0
60,B2,17.25,0.25,95,103.0
61,B-2,17.5,0.25,95,103.0
62,A2,17.75,0.25,95,103.0
63,A2,17.75,83/1000,95,103.0
64,A2,17.833,83/1000,95,103.0
65,A2,17.917,83/1000,95,103.0
66,G2,18.0,0.25,95,103.0
67,A3,18.0,1.0,95,103.0
68,E2,18.0,1.0,95,103.0
69,C2,18.0,1.0,95,103.0
70,F#2,18.25,0.25,95,103.0
71,F2,18.5,0.25,95,103.0
72,E2,18.75,0.25,95,103.0
73,C2,19.0,0.25,95,103.0
74,G3,19.0,0.25,95,103.0
75,C3,19.0,0.25,95,103.0
76,E3,19.0,0.25,95,103.0
77,D2,19.0,0.25,95,103.0
78,G2,19.25,107/1000,95,103.0
79,C2,19.25,0.25,95,103.0
80,C2,19.5,0.25,95,103.0
81,C2,19.5,0.25,95,103.0
82,G3,19.5,0.25,95,103.0
83,C3,19.5,0.25,95,103.0
84,C2,19.75,0.75,95,103.0
85,D2,19.75,0.25,95,103.0
86,E-4,19.75,0.75,95,103.0
87,B-3,19.75,0.75,95,103.0
88,E-3,19.75,0.75,95,103.0
89,C2,20.5,0.25,95,103.0
90,D2,20.5,0.25,95,103.0
91,E-4,20.5,0.25,95,103.0
92,B-3,20.5,0.25,95,103.0
93,E-3,20.5,0.25,95,103.0
94,C2,20.75,0.25,95,103.0
95,E-4,20.75,0.25,95,103.0
96,B-3,20.75,0.25,95,103.0
97,E-3,20.75,0.25,95,103.0
98,C2,21.0,0.25,95,103.0
99,C2,21.0,0.25,95,103.0
100,E-4,21.0,0.25,95,103.0
101,B-3,21.0,0.25,95,103.0
102,E-3,21.0,0.25,95,103.0
103,E1,21.25,53/1000,95,103.0
104,E2,21.25,0.25,95,103.0
105,E-4,21.25,0.25,95,103.0
106,B-3,21.25,0.25,95,103.0
107,E-3,21.25,0.25,95,103.0
108,E1,21.5,53/1000,95,103.0
109,C2,21.5,0.25,95,103.0
110,E-4,21.5,53/1000,95,103.0
111,B-3,21.5,53/1000,95,103.0
112,E-3,21.5,53/1000,95,103.0
113,C2,21.75,0.25,95,103.0
114,D2,21.75,0.25,95,103.0
115,E-4,21.75,0.25,95,103.0
116,B-3,21.75,0.25,95,103.0
117,E-3,21.75,0.25,95,103.0
118,C2,22.0,0.25,95,103.0
119,D2,22.0,0.25,95,103.0
120,E-4,22.0,0.25,95,103.0
121,B-3,22.0,0.25,95,103.0
122,E-3,22.0,0.25,95,103.0
123,C2,22.25,0.25,95,103.0
124,E2,22.25,0.25,95,103.0
125,F4,22.25,0.75,95,103.0
126,C4,22.25,0.75,95,103.0
127,F3,22.25,0.75,95,103.0
128,E2,22.5,0.25,95,103.0
129,E1,22.75,53/1000,95,103.0
130,E2,22.75,0.25,95,103.0
131,C2,23.0,0.25,95,103.0
132,G3,23.0,0.25,95,103.0
133,C3,23.0,0.25,95,103.0
134,F#2,23.0,0.25,95,103.0
135,D2,23.0,0.25,95,103.0
136,G2,23.25,107/1000,95,103.0
137,C2,23.25,0.25,95,103.0
138,C2,23.5,0.25,95,103.0
139,C2,23.5,0.25,95,103.0
140,G3,23.5,0.25,95,103.0
141,C3,23.5,0.25,95,103.0
142,C2,23.75,0.75,95,103.0
143,E2,23.75,0.25,95,103.0
144,E-4,23.75,1.5,95,103.0
145,B-3,23.75,1.5,95,103.0
146,E-3,23.75,1.5,95,103.0
147,D2,24.5,0.25,95,103.0
148,D2,24.75,0.25,95,103.0
149,C2,25.0,0.25,95,103.0
150,C2,25.25,1.0,95,103.0
151,A2,25.25,0.25,95,103.0
152,E-4,25.25,0.75,71,103.0
153,C4,25.25,0.75,71,103.0
154,C2,25.5,0.25,95,103.0
155,D2,25.75,0.25,95,103.0
156,D2,26.0,0.25,95,103.0
157,G1,26.25,0.25,95,103.0
158,A2,26.25,0.25,95,103.0
159,F4,26.25,0.5,71,103.0
160,B3,26.25,0.5,71,103.0
161,A2,26.5,0.25,95,103.0
162,A2,26.75,0.25,95,103.0
163,C2,27.0,0.25,95,103.0
164,G3,27.0,0.25,95,103.0
165,C3,27.0,0.25,95,103.0
166,E3,27.0,0.25,95,103.0
167,D2,27.0,0.25,95,103.0
168,G2,27.25,107/1000,95,103.0
169,C2,27.25,0.25,95,103.0
170,C2,27.5,0.25,95,103.0
171,C2,27.5,0.25,95,103.0
172,G3,27.5,0.25,95,103.0
173,C3,27.5,0.25,95,103.0
174,C2,27.75,0.75,95,103.0
175,D2,27.75,0.25,95,103.0
176,E-4,27.75,0.75,95,103.0
177,B-3,27.75,0.75,95,103.0
178,E-3,27.75,0.75,95,103.0
179,C2,28.5,0.25,95,103.0
180,D2,28.5,0.25,95,103.0
181,E-4,28.5,0.25,95,103.0
182,B-3,28.5,0.25,95,103.0
183,E-3,28.5,0.25,95,103.0
184,C2,28.75,0.25,95,103.0
185,E-4,28.75,0.25,95,103.0
186,B-3,28.75,0.25,95,103.0
187,E-3,28.75,0.25,95,103.0
188,C2,29.0,0.25,95,103.0
189,C2,29.0,0.25,95,103.0
190,E-4,29.0,0.25,95,103.0
191,B-3,29.0,0.25,95,103.0
192,E-3,29.0,0.25,95,103.0
193,C2,29.25,0.25,95,103.0
194,E2,29.25,0.25,95,103.0
195,E-4,29.25,0.25,95,103.0
196,B-3,29.25,0.25,95,103.0
197,E-3,29.25,0.25,95,103.0
198,E1,29.5,53/1000,95,103.0
199,C2,29.5,0.25,95,103.0
200,E-4,29.5,53/1000,95,103.0
201,B-3,29.5,53/1000,95,103.0
202,E-3,29.5,53/1000,95,103.0
203,E1,29.75,53/1000,95,103.0
204,D2,29.75,0.25,95,103.0
205,E-4,29.75,53/1000,95,103.0
206,B-3,29.75,53/1000,95,103.0
207,E-3,29.75,53/1000,95,103.0
208,C2,30.0,0.25,95,103.0
209,D2,30.0,0.25,95,103.0
210,E-4,30.0,0.25,95,103.0
211,B-3,30.0,0.25,95,103.0
212,E-3,30.0,0.25,95,103.0
213,C2,30.25,0.25,95,103.0
214,E2,30.25,0.25,95,103.0
215,F4,30.25,0.75,95,103.0
216,C4,30.25,0.75,95,103.0
217,F3,30.25,0.75,95,103.0
218,E1,30.5,53/1000,95,103.0
219,E2,30.5,0.25,95,103.0
220,E1,30.75,53/1000,95,103.0
221,E2,30.75,0.25,95,103.0
222,C2,31.0,0.25,95,103.0
223,G3,31.0,0.25,95,103.0
224,C3,31.0,0.25,95,103.0
225,F#2,31.0,0.25,95,103.0
226,D2,31.0,0.25,95,103.0
227,G2,31.25,107/1000,95,103.0
228,C2,31.25,0.25,95,103.0
229,C2,31.5,0.25,95,103.0
230,C2,31.5,0.25,95,103.0
231,G3,31.5,0.25,95,103.0
232,C3,31.5,0.25,95,103.0
233,C2,31.75,0.75,95,103.0
234,E2,31.75,0.25,95,103.0
235,E-4,31.75,0.75,95,103.0
236,B-3,31.75,0.75,95,103.0
237,E-3,31.75,0.75,95,103.0
238,C4,32.5,0.25,95,103.0
239,C3,32.5,0.25,95,103.0
240,D2,32.5,0.25,95,103.0
241,B-3,32.75,0.25,95,103.0
242,B-2,32.75,0.25,95,103.0
243,D2,32.75,0.25,95,103.0
244,B-3,32.938,0.062,95,103.0
245,C4,33.0,0.25,95,103.0
246,C3,33.0,0.25,95,103.0
247,C2,33.0,0.25,95,103.0
248,B-3,33.25,0.25,95,103.0
249,B-2,33.25,0.25,95,103.0
250,A2,33.25,0.25,95,103.0
251,G3,33.5,0.25,95,103.0
252,G2,33.5,0.25,95,103.0
253,C2,33.5,0.25,95,103.0
254,F#3,33.75,0.25,95,103.0
255,F#2,33.75,0.25,95,103.0
256,D2,33.75,0.25,95,103.0
257,F3,34.0,167/1000,95,103.0
258,F2,34.0,167/1000,95,103.0
259,D2,34.0,0.25,95,103.0
260,F#3,34.167,167/1000,70,103.0
261,F#2,34.167,167/1000,95,103.0
262,A2,34.25,0.25,95,103.0
263,F3,34.333,167/1000,70,103.0
264,F2,34.333,167/1000,95,103.0
265,E-3,34.5,0.25,95,103.0
266,E-2,34.5,0.25,95,103.0
267,A2,34.5,0.25,95,103.0
268,C3,34.75,0.25,95,103.0
269,C2,34.75,0.25,95,103.0
270,A2,34.75,0.25,95,103.0
271,B-2,35.0,0.25,95,103.0
272,B-1,35.0,0.25,95,103.0
273,E3,35.0,0.25,95,103.0
274,D2,35.0,0.25,95,103.0
275,C3,35.25,0.25,95,103.0
276,C2,35.25,0.25,95,103.0
277,C2,35.25,0.25,95,103.0
278,C3,35.5,0.25,95,103.0
279,C2,35.5,0.25,95,103.0
280,C2,35.5,0.25,95,103.0
281,C3,35.75,0.25,95,103.0
282,C2,35.75,0.25,95,103.0
283,D2,35.75,0.25,95,103.0
284,C3,36.0,107/1000,47,103.0
285,C2,36.0,0.25,31,103.0
286,C2,36.0,0.5,95,103.0
287,C3,36.25,107/1000,47,103.0
288,C2,36.25,0.25,31,103.0
289,C3,36.5,0.25,95,103.0
290,C2,36.5,0.25,95,103.0
291,D2,36.5,0.25,95,103.0
292,C3,36.75,0.25,95,103.0
293,C2,36.75,0.25,95,103.0
294,B-2,37.0,0.25,95,103.0
295,B-1,37.0,0.25,95,103.0
296,C2,37.0,0.25,95,103.0
297,C3,37.25,0.25,95,103.0
298,C2,37.25,0.25,95,103.0
299,E2,37.25,0.25,95,103.0
300,C3,37.5,0.25,95,103.0
301,C2,37.5,0.25,95,103.0
302,C2,37.5,0.25,95,103.0
303,C3,37.75,0.25,95,103.0
304,C2,37.75,0.25,95,103.0
305,D2,37.75,0.25,95,103.0
306,E-3,38.0,0.25,95,103.0
307,E-2,38.0,0.25,95,103.0
308,D2,38.0,0.25,95,103.0
309,C3,38.25,0.75,95,103.0
310,C2,38.25,0.75,95,103.0
311,C2,38.25,0.25,95,103.0
312,C2,38.5,0.25,95,103.0
313,E2,38.75,0.25,95,103.0
314,B-2,39.0,0.25,95,103.0
315,B-1,39.0,0.25,95,103.0
316,F#2,39.0,0.25,95,103.0
317,D2,39.0,0.25,95,103.0
318,C3,39.25,0.25,95,103.0
319,C2,39.25,0.25,95,103.0
320,C3,39.5,0.25,95,103.0
321,C2,39.5,0.25,95,103.0
322,C2,39.5,0.25,95,103.0
323,C3,39.75,0.25,95,103.0
324,C2,39.75,0.25,95,103.0
325,E2,39.75,0.25,95,103.0
326,C3,40.0,107/1000,47,103.0
327,C2,40.0,0.25,47,103.0
328,C3,40.25,107/1000,47,103.0
329,C2,40.25,0.25,47,103.0
330,C3,40.5,0.25,95,103.0
331,C2,40.5,0.25,95,103.0
332,D2,40.5,0.25,95,103.0
333,C3,40.75,0.25,95,103.0
334,C2,40.75,0.25,95,103.0
335,D2,40.75,0.25,95,103.0
336,E2,41.0,0.25,95,103.0
337,E1,41.0,0.25,95,103.0
338,C2,41.0,0.25,95,103.0
339,E2,41.25,0.25,95,103.0
340,E1,41.25,0.25,95,103.0
341,E2,41.25,0.25,95,103.0
342,F2,41.5,0.25,95,103.0
343,F1,41.5,0.25,95,103.0
344,C2,41.5,0.25,95,103.0
345,F2,41.75,0.25,95,103.0
346,F1,41.75,0.25,95,103.0
347,C2,41.75,0.25,95,103.0
348,F#2,42.0,0.25,95,103.0
349,F#1,42.0,0.25,95,103.0
350,E2,42.0,0.25,95,103.0
351,F#2,42.25,0.25,95,103.0
352,F#1,42.25,0.25,95,103.0
353,C2,42.25,0.25,95,103.0
354,G2,42.5,0.25,95,103.0
355,G1,42.5,0.25,95,103.0
356,E2,42.5,0.25,95,103.0
357,G2,42.75,0.25,95,103.0
358,G1,42.75,0.25,95,103.0
359,E2,42.75,0.25,95,103.0
360,B-2,43.0,0.25,95,103.0
361,B-1,43.0,0.25,95,103.0
362,E3,43.0,0.25,95,103.0
363,D2,43.0,0.25,95,103.0
364,C3,43.25,0.25,95,103.0
365,C2,43.25,0.25,95,103.0
366,C2,43.25,0.25,95,103.0
367,C3,43.5,0.25,95,103.0
368,C2,43.5,0.25,95,103.0
369,C2,43.5,0.25,95,103.0
370,C3,43.75,0.25,95,103.0
371,C2,43.75,0.25,95,103.0
372,D2,43.75,0.25,95,103.0
373,C3,44.0,107/1000,47,103.0
374,C2,44.0,0.25,31,103.0
375,C2,44.0,0.5,95,103.0
376,C3,44.25,107/1000,47,103.0
377,C2,44.25,0.25,31,103.0
378,C3,44.5,0.25,95,103.0
379,C2,44.5,0.25,95,103.0
380,D2,44.5,0.25,95,103.0
381,C3,44.75,0.25,95,103.0
382,C2,44.75,0.25,95,103.0
383,B-2,45.0,0.25,95,103.0
384,B-1,45.0,0.25,95,103.0
385,C2,45.0,0.25,95,103.0
386,C3,45.25,0.25,95,103.0
387,C2,45.25,0.25,95,103.0
388,E2,45.25,0.25,95,103.0
389,C3,45.5,0.25,95,103.0
390,C2,45.5,0.25,95,103.0
391,C2,45.5,0.25,95,103.0
392,C3,45.75,0.25,95,103.0
393,C2,45.75,0.25,95,103.0
394,D2,45.75,0.25,95,103.0
395,E-3,46.0,0.25,95,103.0
396,E-2,46.0,0.25,95,103.0
397,D2,46.0,0.25,95,103.0
398,C3,46.25,0.75,95,103.0
399,C2,46.25,0.75,95,103.0
400,C2,46.25,0.25,95,103.0
401,C2,46.5,0.25,95,103.0
402,E2,46.75,0.25,95,103.0
403,B-2,47.0,0.25,95,103.0
404,B-1,47.0,0.25,95,103.0
405,F#2,47.0,0.25,95,103.0
406,D2,47.0,0.25,95,103.0
407,C3,47.25,0.25,95,103.0
408,C2,47.25,0.25,95,103.0
409,C3,47.5,0.25,95,103.0
410,C2,47.5,0.25,95,103.0
411,C2,47.5,0.25,95,103.0
412,C3,47.75,0.25,95,103.0
413,C2,47.75,0.25,95,103.0
414,E2,47.75,0.25,95,103.0
415,C3,48.0,107/1000,47,103.0
416,C2,48.0,0.25,47,103.0
417,C3,48.25,107/1000,47,103.0
418,C2,48.25,0.25,47,103.0
419,C3,48.5,0.25,95,103.0
420,C2,48.5,0.25,95,103.0
421,D2,48.5,0.25,95,103.0
422,C3,48.75,0.25,95,103.0
423,C2,48.75,0.25,95,103.0
424,D2,48.75,0.25,95,103.0
425,E2,49.0,0.25,95,103.0
426,E1,49.0,0.25,95,103.0
427,C2,49.0,0.25,95,103.0
428,E2,49.25,0.25,95,103.0
429,E1,49.25,0.25,95,103.0
430,E2,49.25,0.25,95,103.0
431,F2,49.5,0.25,95,103.0
432,F1,49.5,0.25,95,103.0
433,C2,49.5,0.25,95,103.0
434,F2,49.75,0.25,95,103.0
435,F1,49.75,0.25,95,103.0
436,C2,49.75,0.25,95,103.0
437,F#2,50.0,0.25,95,103.0
438,F#1,50.0,0.25,95,103.0
439,E2,50.0,0.25,95,103.0
440,F#2,50.25,0.25,95,103.0
441,F#1,50.25,0.25,95,103.0
442,C2,50.25,0.25,95,103.0
443,G2,50.5,0.25,95,103.0
444,G1,50.5,0.25,95,103.0
445,E2,50.5,0.25,95,103.0
446,G2,50.75,0.25,95,103.0
447,G1,50.75,0.25,95,103.0
448,E2,50.75,0.25,95,103.0
449,B-2,51.0,0.25,95,103.0
450,B-1,51.0,0.25,95,103.0
451,E3,51.0,0.25,95,103.0
452,D2,51.0,0.25,95,103.0
453,C3,51.25,0.25,95,103.0
454,C2,51.25,0.25,95,103.0
455,C2,51.25,0.25,95,103.0
456,C2,51.5,0.25,95,103.0
457,C2,51.5,0.25,95,103.0
458,C2,51.75,0.25,95,103.0
459,D2,51.75,0.25,95,103.0
460,A4,52.0,1.5,95,103.0
461,C2,52.0,0.25,31,103.0
462,C2,52.0,0.5,95,103.0
463,C2,52.25,0.25,31,103.0
464,C2,52.5,0.25,95,103.0
465,D2,52.5,0.25,95,103.0
466,C2,52.75,0.25,95,103.0
467,B-1,53.0,0.25,95,103.0
468,C2,53.0,0.25,95,103.0
469,C2,53.25,0.25,95,103.0
470,E2,53.25,0.25,95,103.0
471,C2,53.5,0.25,95,103.0
472,C2,53.5,0.25,95,103.0
473,C2,53.75,0.25,95,103.0
474,D2,53.75,0.25,95,103.0
475,A4,54.0,0.5,95,103.0
476,E-2,54.0,0.25,95,103.0
477,D2,54.0,0.25,95,103.0
478,C2,54.25,0.75,95,103.0
479,C2,54.25,0.25,95,103.0
480,G4,54.5,0.25,95,103.0
481,C2,54.5,0.25,95,103.0
482,F4,54.75,0.25,95,103.0
483,E2,54.75,0.25,95,103.0
484,G4,55.0,0.25,95,103.0
485,B-1,55.0,0.25,95,103.0
486,F#2,55.0,0.25,95,103.0
487,D2,55.0,0.25,95,103.0
488,E-4,55.25,0.75,95,103.0
489,C2,55.25,0.25,95,103.0
490,C2,55.5,0.25,95,103.0
491,C2,55.5,0.25,95,103.0
492,C2,55.75,0.25,95,103.0
493,E2,55.75,0.25,95,103.0
494,F4,56.0,0.5,95,103.0
495,C2,56.0,0.25,47,103.0
496,C2,56.25,0.25,47,103.0
497,E-4,56.5,0.25,95,103.0
498,C2,56.5,0.25,95,103.0
499,D2,56.5,0.25,95,103.0
500,C4,56.75,0.25,95,103.0
501,C2,56.75,0.25,95,103.0
502,D2,56.75,0.25,95,103.0
503,F4,57.0,0.25,95,103.0
504,E1,57.0,0.25,95,103.0
505,C2,57.0,0.25,95,103.0
506,E-4,57.25,1.75,95,103.0
507,E1,57.25,0.25,95,103.0
508,E2,57.25,0.25,95,103.0
509,F1,57.5,0.25,95,103.0
510,C2,57.5,0.25,95,103.0
511,F1,57.75,0.25,95,103.0
512,C2,57.75,0.25,95,103.0
513,F#1,58.0,0.25,95,103.0
514,E2,58.0,0.25,95,103.0
515,F#1,58.25,0.25,95,103.0
516,C2,58.25,0.25,95,103.0
517,G1,58.5,0.25,95,103.0
518,E2,58.5,0.25,95,103.0
519,G1,58.75,0.25,95,103.0
520,E2,58.75,0.25,95,103.0
521,B-1,59.0,0.25,95,103.0
522,E3,59.0,0.25,95,103.0
523,D2,59.0,0.25,95,103.0
524,C2,59.25,0.25,95,103.0
525,C2,59.25,0.25,95,103.0
526,C2,59.5,0.25,95,103.0
527,C2,59.5,0.25,95,103.0
528,C2,59.75,0.25,95,103.0
529,D2,59.75,0.25,95,103.0
530,D5,60.0,0.25,95,103.0
531,C2,60.0,0.25,31,103.0
532,C2,60.0,0.5,95,103.0
533,E-5,60.25,0.125,95,103.0
534,C2,60.25,0.25,31,103.0
535,D5,60.375,0.125,70,103.0
536,C5,60.5,0.25,95,103.0
537,C2,60.5,0.25,95,103.0
538,D2,60.5,0.25,95,103.0
539,B-4,60.75,0.25,95,103.0
540,C2,60.75,0.25,95,103.0
541,A4,61.0,0.25,95,103.0
542,B-1,61.0,0.25,95,103.0
543,C2,61.0,0.25,95,103.0
544,G4,61.25,0.25,95,103.0
545,C2,61.25,0.25,95,103.0
546,E2,61.25,0.25,95,103.0
547,F4,61.5,0.25,95,103.0
548,C2,61.5,0.25,95,103.0
549,C2,61.5,0.25,95,103.0
550,E-4,61.75,0.5,95,103.0
551,C2,61.75,0.25,95,103.0
552,D2,61.75,0.25,95,103.0
553,E-2,62.0,0.25,95,103.0
554,D2,62.0,0.25,95,103.0
555,C5,62.25,0.25,95,103.0
556,C2,62.25,0.75,95,103.0
557,C2,62.25,0.25,95,103.0
558,B-4,62.5,0.25,95,103.0
559,C2,62.5,0.25,95,103.0
560,G4,62.75,0.25,95,103.0
561,E2,62.75,0.25,95,103.0
562,F#4,63.0,167/1000,95,103.0
563,B-1,63.0,0.25,95,103.0
564,E3,63.0,0.25,95,103.0
565,D2,63.0,0.25,95,103.0
566,F4,63.167,167/1000,95,103.0
567,C2,63.25,0.25,95,103.0
568,E-4,63.333,167/1000,95,103.0
569,F4,63.5,0.25,95,103.0
570,C2,63.5,0.25,95,103.0
571,C2,63.5,0.25,95,103.0
572,C4,63.75,0.25,95,103.0
573,C2,63.75,0.25,95,103.0
574,E2,63.75,0.25,95,103.0
575,E-4,64.0,0.5,95,103.0
576,C2,64.0,0.25,47,103.0
577,C2,64.25,0.25,47,103.0
578,F4,64.5,0.25,95,103.0
579,C2,64.5,0.25,95,103.0
580,D2,64.5,0.25,95,103.0
581,C4,64.75,0.25,95,103.0
582,C2,64.75,0.25,95,103.0
583,D2,64.75,0.25,95,103.0
584,B-3,65.0,0.25,95,103.0
585,E1,65.0,0.25,95,103.0
586,C2,65.0,0.25,95,103.0
587,B3,65.25,0.25,95,103.0
588,E1,65.25,0.25,95,103.0
589,E2,65.25,0.25,95,103.0
590,C4,65.5,0.25,95,103.0
591,F1,65.5,0.25,95,103.0
592,C2,65.5,0.25,95,103.0
593,F4,65.75,0.25,95,103.0
594,F1,65.75,0.25,95,103.0
595,C2,65.75,0.25,95,103.0
596,E-4,66.0,0.5,95,103.0
597,F#1,66.0,0.25,95,103.0
598,E2,66.0,0.25,95,103.0
599,F#1,66.25,0.25,95,103.0
600,C2,66.25,0.25,95,103.0
601,E-4,66.5,0.5,47,103.0
602,G1,66.5,0.25,95,103.0
603,E2,66.5,0.25,95,103.0
604,G1,66.75,0.25,95,103.0
605,E2,66.75,0.25,95,103.0
606,F#5,66.938,0.062,95,103.0
607,G5,67.0,0.25,95,103.0
608,B-1,67.0,0.25,95,103.0
609,F#2,67.0,0.25,95,103.0
610,D2,67.0,0.25,95,103.0
611,G5,67.25,0.25,95,103.0
612,C2,67.25,0.25,95,103.0
613,C2,67.25,0.25,95,103.0
614,C6,67.5,0.25,95,103.0
615,C2,67.5,0.25,95,103.0
616,C2,67.5,0.25,95,103.0
617,F5,67.75,0.5,95,103.0
618,C2,67.75,0.25,95,103.0
619,D2,67.75,0.25,95,103.0
620,C2,68.0,0.25,31,103.0
621,C2,68.0,0.5,95,103.0
622,E-5,68.25,0.25,95,103.0
623,C2,68.25,0.25,31,103.0
624,F5,68.5,0.25,95,103.0
625,C2,68.5,0.25,95,103.0
626,D2,68.5,0.25,95,103.0
627,C5,68.75,0.75,95,103.0
628,C2,68.75,0.25,95,103.0
629,B-1,69.0,0.25,95,103.0
630,C2,69.0,0.25,95,103.0
631,C2,69.25,0.25,95,103.0
632,E2,69.25,0.25,95,103.0
633,G4,69.5,0.25,95,103.0
634,C2,69.5,0.25,95,103.0
635,C2,69.5,0.25,95,103.0
636,B-4,69.75,0.25,95,103.0
637,C2,69.75,0.25,95,103.0
638,D2,69.75,0.25,95,103.0
639,D5,70.0,167/1000,95,103.0
640,E-2,70.0,0.25,95,103.0
641,D2,70.0,0.25,95,103.0
642,C5,70.167,167/1000,95,103.0
643,C2,70.25,0.75,95,103.0
644,C2,70.25,0.25,95,103.0
645,B-4,70.333,167/1000,95,103.0
646,D5,70.5,167/1000,95,103.0
647,C2,70.5,0.25,95,103.0
648,B-4,70.667,333/1000,95,103.0
649,E2,70.75,0.25,95,103.0
650,C5,71.0,0.5,95,103.0
651,B-1,71.0,0.25,95,103.0
652,E3,71.0,0.25,95,103.0
653,D2,71.0,0.25,95,103.0
654,C2,71.25,0.25,95,103.0
655,C5,71.5,0.25,95,103.0
656,C2,71.5,0.25,95,103.0
657,C2,71.5,0.25,95,103.0
658,B-4,71.75,0.25,95,103.0
659,C2,71.75,0.25,95,103.0
660,E2,71.75,0.25,95,103.0
661,G4,72.0,0.25,95,103.0
662,C2,72.0,0.25,47,103.0
663,F4,72.25,0.25,95,103.0
664,C2,72.25,0.25,47,103.0
665,G4,72.5,0.25,95,103.0
666,C2,72.5,0.25,95,103.0
667,D2,72.5,0.25,95,103.0
668,E-4,72.75,0.25,95,103.0
669,C2,72.75,0.25,95,103.0
670,D2,72.75,0.25,95,103.0
671,C4,73.0,2.0,95,103.0
672,E1,73.0,0.25,95,103.0
673,C2,73.0,0.25,95,103.0
674,E1,73.25,0.25,95,103.0
675,E2,73.25,0.25,95,103.0
676,F1,73.5,0.25,95,103.0
677,C2,73.5,0.25,95,103.0
678,F1,73.75,0.25,95,103.0
679,C2,73.75,0.25,95,103.0
680,F#1,74.0,0.25,95,103.0
681,E2,74.0,0.25,95,103.0
682,F#1,74.25,0.25,95,103.0
683,C2,74.25,0.25,95,103.0
684,G1,74.5,0.25,95,103.0
685,E2,74.5,0.25,95,103.0
686,G1,74.75,0.25,95,103.0
687,E2,74.75,0.25,95,103.0
688,D5,75.0,0.5,95,103.0
689,B-1,75.0,0.25,95,103.0
690,E3,75.0,0.25,95,103.0
691,D2,75.0,0.25,95,103.0
692,C2,75.25,0.25,95,103.0
693,C2,75.25,0.25,95,103.0
694,E5,75.5,0.25,95,103.0
695,C2,75.5,0.25,95,103.0
696,C2,75.5,0.25,95,103.0
697,C5,75.75,0.75,95,103.0
698,C2,75.75,0.25,95,103.0
699,D2,75.75,0.25,95,103.0
700,C2,76.0,0.25,31,103.0
701,C2,76.0,0.5,95,103.0
702,C2,76.25,0.25,31,103.0
703,B-4,76.5,0.5,95,103.0
704,C2,76.5,0.25,95,103.0
705,D2,76.5,0.25,95,103.0
706,C2,76.75,0.25,95,103.0
707,C5,77.0,0.25,95,103.0
708,B-1,77.0,0.25,95,103.0
709,C2,77.0,0.25,95,103.0
710,G4,77.25,0.75,95,103.0
711,C2,77.25,0.25,95,103.0
712,E2,77.25,0.25,95,103.0
713,C2,77.5,0.25,95,103.0
714,C2,77.5,0.25,95,103.0
715,C2,77.75,0.25,95,103.0
716,D2,77.75,0.25,95,103.0
717,F#4,78.0,0.5,95,103.0
718,E-2,78.0,0.25,95,103.0
719,D2,78.0,0.25,95,103.0
720,C2,78.25,0.75,95,103.0
721,C2,78.25,0.25,95,103.0
722,G4,78.5,0.25,95,103.0
723,C2,78.5,0.25,95,103.0
724,E-4,78.75,0.25,95,103.0
725,E2,78.75,0.25,95,103.0
726,E-4,79.0,0.5,95,103.0
727,B-1,79.0,0.25,95,103.0
728,F#2,79.0,0.25,95,103.0
729,D2,79.0,0.25,95,103.0
730,C2,79.25,0.25,95,103.0
731,C4,79.5,0.5,95,103.0
732,C2,79.5,0.25,95,103.0
733,C2,79.5,0.25,95,103.0
734,C2,79.75,0.25,95,103.0
735,E2,79.75,0.25,95,103.0
736,C2,80.0,0.25,47,103.0
737,G4,80.0,0.25,95,103.0
738,E-4,80.0,0.25,95,103.0
739,C4,80.25,0.75,95,103.0
740,C2,80.25,0.25,47,103.0
741,C2,80.5,0.25,95,103.0
742,D2,80.5,0.25,95,103.0
743,C2,80.75,0.25,95,103.0
744,D2,80.75,0.25,95,103.0
745,G3,81.0,0.5,47,103.0
746,E1,81.0,0.25,95,103.0
747,C2,81.0,0.25,95,103.0
748,E1,81.25,0.25,95,103.0
749,E2,81.25,0.25,95,103.0
750,F1,81.5,0.25,95,103.0
751,C2,81.5,0.25,95,103.0
752,E4,81.5,0.25,47,103.0
753,C4,81.5,0.25,47,103.0
754,E-3,81.75,1.25,47,103.0
755,F1,81.75,0.25,95,103.0
756,C2,81.75,0.25,95,103.0
757,F#1,82.0,0.25,95,103.0
758,E2,82.0,0.25,95,103.0
759,F#1,82.25,0.25,95,103.0
760,C2,82.25,0.25,95,103.0
761,G1,82.5,0.25,95,103.0
762,E2,82.5,0.25,95,103.0
763,G1,82.75,0.25,95,103.0
764,E2,82.75,0.25,95,103.0
765,E6,83.0,0.5,95,103.0
766,C2,83.0,0.25,95,103.0
767,C2,83.0,0.25,95,103.0
768,D2,83.25,0.5,70,103.0
769,D6,83.5,0.25,95,103.0
770,C2,83.5,0.25,95,103.0
771,C6,83.75,0.25,95,103.0
772,D2,83.75,0.25,95,103.0
773,C2,83.75,0.25,95,103.0
774,B5,84.0,0.25,95,103.0
775,F2,84.0,0.25,95,103.0
776,E2,84.0,0.25,95,103.0
777,A5,84.25,0.5,95,103.0
778,D2,84.25,0.5,95,103.0
779,A2,84.25,0.25,95,103.0
780,G5,84.75,0.25,95,103.0
781,D2,84.75,0.25,95,103.0
782,C2,84.75,0.25,95,103.0
783,E5,85.0,0.5,95,103.0
784,C2,85.0,0.25,95,103.0
785,C2,85.0,0.25,95,103.0
786,D2,85.25,0.5,70,103.0
787,D5,85.5,0.25,95,103.0
788,C2,85.5,0.25,95,103.0
789,C5,85.75,0.25,95,103.0
790,D2,85.75,0.25,95,103.0
791,C2,85.75,0.25,95,103.0
792,B4,86.0,0.25,95,103.0
793,F2,86.0,0.25,95,103.0
794,E2,86.0,0.25,95,103.0
795,A4,86.25,0.5,95,103.0
796,D2,86.25,0.5,95,103.0
797,A2,86.25,0.25,95,103.0
798,G4,86.75,0.25,95,103.0
799,D2,86.75,0.25,95,103.0
800,C2,86.75,0.25,95,103.0
801,E4,87.0,0.5,95,103.0
802,C2,87.0,0.25,95,103.0
803,C2,87.0,0.25,95,103.0
804,D2,87.25,0.5,70,103.0
805,D4,87.5,0.25,95,103.0
806,C2,87.5,0.25,95,103.0
807,C4,87.75,0.25,95,103.0
808,D2,87.75,0.25,95,103.0
809,C2,87.75,0.25,95,103.0
810,B3,88.0,0.25,95,103.0
811,F2,88.0,0.25,95,103.0
812,E2,88.0,0.25,95,103.0
813,A3,88.25,0.75,95,103.0
814,D2,88.25,0.5,95,103.0
815,A2,88.25,0.25,95,103.0
816,C2,88.5,0.25,95,103.0
817,D2,88.75,0.25,95,103.0
818,G3,89.0,167/1000,95,103.0
819,C2,89.0,0.25,95,103.0
820,C2,89.0,0.25,95,103.0
821,A3,89.167,167/1000,95,103.0
822,D2,89.25,0.5,70,103.0
823,C2,89.25,0.25,95,103.0
824,B3,89.333,167/1000,95,103.0
825,C4,89.5,167/1000,95,103.0
826,D2,89.5,0.25,95,103.0
827,C#4,89.667,167/1000,95,103.0
828,D2,89.75,0.25,95,103.0
829,C2,89.75,0.25,95,103.0
830,D4,89.833,167/1000,95,103.0
831,C4,90.0,167/1000,95,103.0
832,F2,90.0,0.25,95,103.0
833,D2,90.0,0.25,95,103.0
834,C#4,90.167,167/1000,95,103.0
835,D2,90.25,0.5,95,103.0
836,D4,90.333,167/1000,95,103.0
837,F4,90.5,167/1000,95,103.0
838,D2,90.5,0.25,95,103.0
839,F#4,90.667,167/1000,95,103.0
840,D2,90.75,0.25,95,103.0
841,D2,90.75,0.25,95,103.0
842,G4,90.833,167/1000,95,103.0
843,C#4,91.0,167/1000,95,103.0
844,C#2,91.0,0.75,95,103.0
845,D2,91.0,0.5,95,103.0
846,E-4,91.167,167/1000,95,103.0
847,F4,91.333,167/1000,95,103.0
848,B4,91.5,167/1000,95,103.0
849,F4,91.667,167/1000,95,103.0
850,C#2,91.75,0.25,95,103.0
851,E2,91.75,0.5,95,103.0
852,E-4,91.833,167/1000,95,103.0
853,C#4,92.0,167/1000,95,103.0
854,E-4,92.167,167/1000,95,103.0
855,F4,92.333,167/1000,95,103.0
856,B4,92.5,167/1000,95,103.0
857,C#2,92.5,0.75,95,103.0
858,D2,92.5,0.5,95,103.0
859,C#5,92.667,167/1000,95,103.0
860,E-5,92.833,167/1000,95,103.0
861,C#5,93.0,167/1000,95,103.0
862,B4,93.167,167/1000,95,103.0
863,C#2,93.25,0.25,95,103.0
864,E2,93.25,0.5,95,103.0
865,A4,93.333,167/1000,95,103.0
866,C#5,93.5,167/1000,95,103.0
867,F4,93.667,167/1000,95,103.0
868,E-4,93.833,167/1000,95,103.0
869,C#4,94.0,167/1000,95,103.0
870,C#2,94.0,0.5,95,103.0
871,D2,94.0,0.5,95,103.0
872,E-4,94.167,167/1000,95,103.0
873,F4,94.333,167/1000,95,103.0
874,B4,94.5,167/1000,95,103.0
875,C#2,94.5,0.5,95,103.0
876,E2,94.5,0.25,95,103.0
877,C#5,94.667,167/1000,95,103.0
878,E2,94.75,0.25,95,103.0
879,E-5,94.833,167/1000,95,103.0
880,C#5,95.0,0.25,95,103.0
881,A1,95.0,0.75,95,103.0
882,D2,95.0,0.75,95,103.0
883,E-4,95.25,0.25,95,103.0
884,C#4,95.5,0.25,95,103.0
885,B4,95.75,0.25,95,103.0
886,A1,95.75,0.25,95,103.0
887,E2,95.75,0.75,95,103.0
888,C#5,96.0,0.25,95,103.0
889,C#4,96.25,0.25,95,103.0
890,A3,96.5,0.25,95,103.0
891,A1,96.5,0.75,95,103.0
892,D2,96.5,0.75,95,103.0
893,A4,96.75,0.25,95,103.0
894,B4,97.0,0.25,95,103.0
895,B3,97.25,0.25,95,103.0
896,A1,97.25,0.25,95,103.0
897,E2,97.25,0.75,95,103.0
898,G3,97.5,0.25,95,103.0
899,A4,97.75,0.25,95,103.0
900,G4,98.0,1.0,95,103.0
901,A1,98.0,0.5,95,103.0
902,E2,98.0,167/1000,95,103.0
903,E2,98.167,167/1000,95,103.0
904,E2,98.333,167/1000,95,103.0
905,A1,98.5,0.5,95,103.0
906,D2,98.5,167/1000,95,103.0
907,D2,98.667,167/1000,95,103.0
908,D2,98.833,167/1000,95,103.0
909,A5,99.0,1.0,95,103.0
910,B-1,99.0,0.25,95,103.0
911,E2,99.0,0.25,95,103.0
912,C2,99.25,0.25,95,103.0
913,C2,99.25,0.25,47,103.0
914,C2,99.5,0.25,95,103.0
915,C2,99.5,0.25,95,103.0
916,C2,99.75,0.25,95,103.0
917,C2,99.75,0.25,95,103.0
918,A5,100.0,2.0,95,103.0
919,C2,100.0,0.25,31,103.0
920,E2,100.0,0.25,95,103.0
921,C2,100.25,0.25,31,103.0
922,C2,100.25,0.25,47,103.0
923,C2,100.5,0.25,95,103.0
924,C2,100.5,0.25,95,103.0
925,C2,100.75,0.25,95,103.0
926,C2,100.75,0.25,95,103.0
927,B-1,101.0,0.25,95,103.0
928,E2,101.0,0.25,95,103.0
929,C2,101.25,0.25,95,103.0
930,C2,101.25,0.25,47,103.0
931,C2,101.5,0.25,95,103.0
932,C2,101.5,0.25,95,103.0
933,C2,101.75,0.25,95,103.0
934,C2,101.75,0.25,95,103.0
935,A5,102.0,0.5,95,103.0
936,E-2,102.0,0.25,95,103.0
937,E2,102.0,0.25,95,103.0
938,C2,102.25,0.75,95,103.0
939,C2,102.25,0.25,47,103.0
940,G5,102.5,0.25,95,103.0
941,C2,102.5,0.25,95,103.0
942,F5,102.75,0.25,95,103.0
943,C2,102.75,0.25,95,103.0
944,G5,103.0,0.25,95,103.0
945,B-1,103.0,0.25,95,103.0
946,E2,103.0,0.25,95,103.0
947,E-5,103.25,0.75,95,103.0
948,C2,103.25,0.25,95,103.0
949,C2,103.25,0.25,47,103.0
950,C2,103.5,0.25,95,103.0
951,C2,103.5,0.25,95,103.0
952,C2,103.75,0.25,95,103.0
953,C2,103.75,0.25,95,103.0
954,F#5,104.0,0.375,95,103.0
955,C2,104.0,0.25,47,103.0
956,E2,104.0,0.25,95,103.0
957,C2,104.25,0.25,47,103.0
958,C2,104.25,0.25,47,103.0
959,G5,104.375,0.125,95,103.0
960,F5,104.5,0.125,95,103.0
961,C2,104.5,0.25,95,103.0
962,C2,104.5,0.25,95,103.0
963,E-5,104.625,0.125,95,103.0
964,C5,104.75,0.25,95,103.0
965,C2,104.75,0.25,95,103.0
966,C2,104.75,0.25,95,103.0
967,F5,105.0,0.25,95,103.0
968,E1,105.0,0.25,95,103.0
969,E2,105.0,0.25,95,103.0
970,E-5,105.25,0.75,95,103.0
971,E1,105.25,0.25,95,103.0
972,C2,105.25,0.25,47,103.0
973,F1,105.5,0.25,95,103.0
974,C2,105.5,0.25,95,103.0
975,F1,105.75,0.25,95,103.0
976,C2,105.75,0.25,95,103.0
977,E-5,106.0,1.0,95,103.0
978,F#1,106.0,0.25,95,103.0
979,E2,106.0,0.25,95,103.0
980,F#1,106.25,0.25,95,103.0
981,C2,106.25,0.25,47,103.0
982,G1,106.5,0.25,95,103.0
983,C2,106.5,0.25,95,103.0
984,G1,106.75,0.25,95,103.0
985,C2,106.75,0.25,95,103.0
986,B-1,107.0,0.25,95,103.0
987,E2,107.0,0.25,95,103.0
988,C2,107.25,0.25,95,103.0
989,C2,107.25,0.25,47,103.0
990,C2,107.5,0.25,95,103.0
991,C2,107.5,0.25,95,103.0
992,D5,107.75,0.25,95,103.0
993,C2,107.75,0.25,95,103.0
994,C2,107.75,0.25,95,103.0
995,E-5,108.0,0.25,95,103.0
996,C2,108.0,0.25,31,103.0
997,E2,108.0,0.25,95,103.0
998,F5,108.25,0.25,95,103.0
999,C2,108.25,0.25,31,103.0
1000,C2,108.25,0.25,47,103.0
1001,G5,108.5,0.25,95,103.0
1002,C2,108.5,0.25,95,103.0
1003,C2,108.5,0.25,95,103.0
1004,B-5,108.75,0.25,95,103.0
1005,C2,108.75,0.25,95,103.0
1006,C2,108.75,0.25,95,103.0
1007,B-5,109.0,0.5,95,103.0
1008,B-1,109.0,0.25,95,103.0
1009,E2,109.0,0.25,95,103.0
1010,C2,109.25,0.25,95,103.0
1011,C2,109.25,0.25,47,103.0
1012,C6,109.5,167/1000,95,103.0
1013,C2,109.5,0.25,95,103.0
1014,C2,109.5,0.25,95,103.0
1015,B-5,109.667,167/1000,95,103.0
1016,C2,109.75,0.25,95,103.0
1017,C2,109.75,0.25,95,103.0
1018,G5,109.833,167/1000,95,103.0
1019,C#6,110.0,0.5,95,103.0
1020,E-2,110.0,0.25,95,103.0
1021,E2,110.0,0.25,95,103.0
1022,C2,110.25,0.75,95,103.0
1023,C2,110.25,0.25,47,103.0
1024,C2,110.5,0.25,95,103.0
1025,C2,110.75,0.25,95,103.0
1026,B-1,111.0,0.25,95,103.0
1027,E2,111.0,0.25,95,103.0
1028,C2,111.25,0.25,95,103.0
1029,C2,111.25,0.25,47,103.0
1030,C2,111.5,0.25,95,103.0
1031,C2,111.5,0.25,95,103.0
1032,G5,111.75,0.25,95,103.0
1033,C2,111.75,0.25,95,103.0
1034,C2,111.75,0.25,95,103.0
1035,B-5,112.0,0.25,95,103.0
1036,C2,112.0,0.25,47,103.0
1037,E2,112.0,0.25,95,103.0
1038,G5,112.25,0.25,95,103.0
1039,C2,112.25,0.25,47,103.0
1040,C2,112.25,0.25,47,103.0
1041,F5,112.5,0.25,95,103.0
1042,C2,112.5,0.25,95,103.0
1043,C2,112.5,0.25,95,103.0
1044,E-5,112.75,0.25,95,103.0
1045,C2,112.75,0.25,95,103.0
1046,C2,112.75,0.25,95,103.0
1047,F5,113.0,0.25,95,103.0
1048,E1,113.0,0.25,95,103.0
1049,E2,113.0,0.25,95,103.0
1050,E5,113.188,0.062,95,103.0
1051,F5,113.25,0.25,95,103.0
1052,E1,113.25,0.25,95,103.0
1053,C2,113.25,0.25,47,103.0
1054,C5,113.5,0.5,95,103.0
1055,F1,113.5,0.25,95,103.0
1056,C2,113.5,0.25,95,103.0
1057,F1,113.75,0.25,95,103.0
1058,C2,113.75,0.25,95,103.0
1059,F#1,114.0,0.25,95,103.0
1060,E2,114.0,0.25,95,103.0
1061,F#1,114.25,0.25,95,103.0
1062,C2,114.25,0.25,47,103.0
1063,G1,114.5,0.25,95,103.0
1064,C2,114.5,0.25,95,103.0
1065,E5,114.75,0.25,95,103.0
1066,G1,114.75,0.25,95,103.0
1067,C2,114.75,0.25,95,103.0
1068,F5,115.0,0.125,95,103.0
1069,C2,115.0,0.25,95,103.0
1070,E2,115.0,0.25,95,103.0
1071,G5,115.125,0.125,95,103.0
1072,F5,115.25,0.125,95,103.0
1073,D2,115.25,0.25,95,103.0
1074,C2,115.25,0.25,95,103.0
1075,E5,115.375,0.125,95,103.0
1076,F5,115.5,0.125,95,103.0
1077,D2,115.5,0.25,95,103.0
1078,C2,115.5,0.25,95,103.0
1079,G5,115.625,0.125,95,103.0
1080,F5,115.75,0.125,95,103.0
1081,D2,115.75,0.25,95,103.0
1082,C2,115.75,0.25,95,103.0
1083,E5,115.875,0.125,95,103.0
1084,D5,116.0,0.125,95,103.0
1085,D2,116.0,0.25,31,103.0
1086,E2,116.0,0.25,95,103.0
1087,C5,116.125,0.125,95,103.0
1088,B4,116.25,0.125,95,103.0
1089,D2,116.25,0.25,31,103.0
1090,C2,116.25,0.25,95,103.0
1091,A4,116.375,0.125,95,103.0
1092,B4,116.5,0.125,95,103.0
1093,D2,116.5,0.25,95,103.0
1094,C2,116.5,0.25,95,103.0
1095,C5,116.625,0.125,95,103.0
1096,B4,116.75,0.125,95,103.0
1097,D2,116.75,0.25,95,103.0
1098,C2,116.75,0.25,95,103.0
1099,A4,116.875,0.125,95,103.0
1100,A4,117.0,0.125,95,103.0
1101,C2,117.0,0.25,95,103.0
1102,E2,117.0,0.25,95,103.0
1103,G4,117.125,0.125,95,103.0
1104,F4,117.25,0.125,95,103.0
1105,D2,117.25,0.25,95,103.0
1106,C2,117.25,0.25,95,103.0
1107,E4,117.375,0.125,95,103.0
1108,F4,117.5,0.125,95,103.0
1109,D2,117.5,0.25,95,103.0
1110,C2,117.5,0.25,95,103.0
1111,G4,117.625,0.125,95,103.0
1112,F4,117.75,0.125,95,103.0
1113,D2,117.75,0.25,95,103.0
1114,C2,117.75,0.25,95,103.0
1115,E4,117.875,0.125,95,103.0
1116,D4,118.0,0.125,95,103.0
1117,F2,118.0,0.25,95,103.0
1118,E2,118.0,0.25,95,103.0
1119,C4,118.125,0.125,95,103.0
1120,B3,118.25,0.125,95,103.0
1121,D2,118.25,0.75,95,103.0
1122,C2,118.25,0.25,95,103.0
1123,A3,118.375,0.125,95,103.0
1124,B3,118.5,0.125,95,103.0
1125,C2,118.5,0.25,95,103.0
1126,C4,118.625,0.125,95,103.0
1127,B3,118.75,0.125,95,103.0
1128,C2,118.75,0.25,95,103.0
1129,A3,118.875,0.125,95,103.0
1130,G3,119.0,0.125,95,103.0
1131,C2,119.0,0.25,95,103.0
1132,E2,119.0,0.25,95,103.0
1133,F3,119.125,0.125,95,103.0
1134,E3,119.25,0.125,95,103.0
1135,D2,119.25,0.25,95,103.0
1136,C2,119.25,0.25,95,103.0
1137,D3,119.375,0.125,95,103.0
1138,E3,119.5,0.125,95,103.0
1139,D2,119.5,0.25,95,103.0
1140,C2,119.5,0.25,95,103.0
1141,F3,119.625,0.125,95,103.0
1142,E3,119.75,0.125,95,103.0
1143,D2,119.75,0.25,95,103.0
1144,C2,119.75,0.25,95,103.0
1145,D3,119.875,0.125,95,103.0
1146,C3,120.0,0.125,95,103.0
1147,D2,120.0,0.25,31,103.0
1148,E2,120.0,0.25,95,103.0
1149,B2,120.125,0.125,95,103.0
1150,B-2,120.25,0.125,95,103.0
1151,D2,120.25,0.25,31,103.0
1152,C2,120.25,0.25,95,103.0
1153,A2,120.375,0.125,95,103.0
1154,B-2,120.5,0.125,95,103.0
1155,D2,120.5,0.25,95,103.0
1156,C2,120.5,0.25,95,103.0
1157,C3,120.625,0.125,95,103.0
1158,B-2,120.75,0.125,95,103.0
1159,D2,120.75,0.25,95,103.0
1160,C2,120.75,0.25,95,103.0
1161,A2,120.875,0.125,95,103.0
1162,B-2,121.0,0.125,95,103.0
1163,C2,121.0,0.25,95,103.0
1164,E2,121.0,0.25,95,103.0
1165,B2,121.125,0.125,95,103.0
1166,C3,121.25,0.125,95,103.0
1167,D2,121.25,0.25,95,103.0
1168,C2,121.25,0.25,95,103.0
1169,C#3,121.375,0.125,95,103.0
1170,E-3,121.5,0.125,95,103.0
1171,D2,121.5,0.25,95,103.0
1172,C2,121.5,0.25,95,103.0
1173,E3,121.625,0.125,95,103.0
1174,F3,121.75,0.125,95,103.0
1175,D2,121.75,0.25,95,103.0
1176,C2,121.75,0.25,95,103.0
1177,F#3,121.875,0.125,95,103.0
1178,A3,122.0,0.125,95,103.0
1179,F2,122.0,0.25,95,103.0
1180,E2,122.0,0.25,95,103.0
1181,B-3,122.125,0.125,95,103.0
1182,B3,122.25,0.125,95,103.0
1183,D2,122.25,0.75,95,103.0
1184,C2,122.25,0.25,95,103.0
1185,C4,122.375,0.125,95,103.0
1186,D4,122.5,0.125,95,103.0
1187,C2,122.5,0.25,95,103.0
1188,E-4,122.625,0.125,95,103.0
1189,E4,122.75,0.125,95,103.0
1190,C2,122.75,0.25,95,103.0
1191,F4,122.875,0.125,95,103.0
1192,E4,123.0,0.25,95,103.0
1193,C#2,123.0,0.75,95,103.0
1194,D2,123.0,0.5,95,103.0
1195,B3,123.25,0.25,95,103.0
1196,E4,123.5,0.25,95,103.0
1197,F#2,123.5,0.25,95,103.0
1198,E2,123.5,0.25,95,103.0
1199,F4,123.75,0.25,95,103.0
1200,C#2,123.75,0.25,95,103.0
1201,E2,123.75,0.5,95,103.0
1202,B3,124.0,0.25,95,103.0
1203,E4,124.25,0.25,95,103.0
1204,F#4,124.5,0.25,95,103.0
1205,C#2,124.5,0.75,95,103.0
1206,D2,124.5,0.5,95,103.0
1207,G#4,124.75,0.25,95,103.0
1208,B-4,125.0,0.25,95,103.0
1209,F#2,125.0,0.25,95,103.0
1210,E2,125.0,0.25,95,103.0
1211,E4,125.25,0.25,95,103.0
1212,C#2,125.25,0.25,95,103.0
1213,E2,125.25,0.5,95,103.0
1214,F#4,125.5,0.25,95,103.0
1215,B4,125.75,0.25,95,103.0
1216,C#5,126.0,0.25,95,103.0
1217,C#2,126.0,0.5,95,103.0
1218,D2,126.0,0.5,95,103.0
1219,B4,126.25,0.5,95,103.0
1220,C#2,126.5,0.5,95,103.0
1221,F#2,126.5,0.25,95,103.0
1222,E2,126.5,0.25,95,103.0
1223,B4,126.75,0.25,95,103.0
1224,E2,126.75,0.25,95,103.0
1225,E-5,127.0,0.25,95,103.0
1226,A1,127.0,0.75,95,103.0
1227,E2,127.0,0.5,95,103.0
1228,B4,127.25,0.25,95,103.0
1229,E-5,127.5,0.25,95,103.0
1230,F#2,127.5,0.25,95,103.0
1231,D2,127.5,0.25,95,103.0
1232,C#5,127.75,0.25,95,103.0
1233,A1,127.75,0.25,95,103.0
1234,E2,127.75,0.5,95,103.0
1235,A4,128.0,0.25,95,103.0
1236,C#5,128.25,0.25,95,103.0
1237,F#2,128.25,0.25,95,103.0
1238,D2,128.25,0.25,95,103.0
1239,B4,128.5,0.25,95,103.0
1240,A1,128.5,0.75,95,103.0
1241,E2,128.5,0.5,95,103.0
1242,G4,128.75,0.25,95,103.0
1243,B4,129.0,0.25,95,103.0
1244,F#2,129.0,0.25,95,103.0
1245,D2,129.0,0.25,95,103.0
1246,A4,129.25,0.25,95,103.0
1247,A1,129.25,0.25,95,103.0
1248,E2,129.25,0.5,95,103.0
1249,F4,129.5,0.25,95,103.0
1250,A4,129.75,0.25,95,103.0
1251,F#2,129.75,0.25,95,103.0
1252,D2,129.75,0.25,95,103.0
1253,G4,130.0,0.25,95,103.0
1254,A1,130.0,0.5,95,103.0
1255,E2,130.0,0.25,95,103.0
1256,E-4,130.25,0.75,95,103.0
1257,A1,130.5,0.25,95,103.0
1258,E2,130.5,0.25,95,103.0
1259,A1,130.75,0.25,95,103.0
1260,E2,130.75,0.25,95,103.0
1261,B-2,131.0,0.25,95,103.0
1262,B-1,131.0,0.25,95,103.0
1263,B3,131.0,0.5,95,103.0
1264,B-2,131.0,0.5,95,103.0
1265,C3,131.25,0.25,95,103.0
1266,C2,131.25,0.25,95,103.0
1267,C3,131.5,0.25,95,103.0
1268,C2,131.5,0.25,95,103.0
1269,B3,131.5,0.5,95,103.0
1270,B-2,131.5,0.5,95,103.0
1271,C3,131.75,0.25,95,103.0
1272,C2,131.75,0.25,95,103.0
1273,C2,132.0,0.25,31,103.0
1274,C#3,132.0,0.5,95,103.0
1275,E2,132.0,0.5,95,103.0
1276,C2,132.0,0.5,95,103.0
1277,C3,132.25,0.25,95,103.0
1278,C2,132.25,0.25,31,103.0
1279,C3,132.5,0.25,95,103.0
1280,C2,132.5,0.25,95,103.0
1281,B3,132.5,0.5,95,103.0
1282,B-2,132.5,0.5,95,103.0
1283,C3,132.75,0.25,95,103.0
1284,C2,132.75,0.25,95,103.0
1285,B-2,133.0,0.25,95,103.0
1286,B-1,133.0,0.25,95,103.0
1287,B3,133.0,0.5,95,103.0
1288,B-2,133.0,0.5,95,103.0
1289,C3,133.25,0.25,95,103.0
1290,C2,133.25,0.25,95,103.0
1291,C3,133.5,0.25,95,103.0
1292,C2,133.5,0.25,95,103.0
1293,B3,133.5,0.5,95,103.0
1294,B-2,133.5,0.5,95,103.0
1295,C3,133.75,0.25,95,103.0
1296,C2,133.75,0.25,95,103.0
1297,E-3,134.0,0.25,95,103.0
1298,E-2,134.0,0.25,95,103.0
1299,C#3,134.0,0.5,95,103.0
1300,E2,134.0,0.5,95,103.0
1301,C2,134.0,0.5,95,103.0
1302,C3,134.25,0.75,95,103.0
1303,C2,134.25,0.75,95,103.0
1304,B-2,134.5,0.5,95,103.0
1305,B-2,135.0,0.25,95,103.0
1306,B-1,135.0,0.25,95,103.0
1307,B3,135.0,0.5,95,103.0
1308,B-2,135.0,0.5,95,103.0
1309,C3,135.25,0.25,95,103.0
1310,C2,135.25,0.25,95,103.0
1311,C3,135.5,0.25,95,103.0
1312,C2,135.5,0.25,95,103.0
1313,B3,135.5,0.5,95,103.0
1314,B-2,135.5,0.5,95,103.0
1315,C3,135.75,0.25,95,103.0
1316,C2,135.75,0.25,95,103.0
1317,C2,136.0,0.25,47,103.0
1318,C#3,136.0,0.5,95,103.0
1319,E2,136.0,0.5,95,103.0
1320,C2,136.0,0.5,95,103.0
1321,C3,136.25,0.25,95,103.0
1322,C2,136.25,0.25,47,103.0
1323,C3,136.5,0.25,95,103.0
1324,C2,136.5,0.25,95,103.0
1325,B3,136.5,0.5,95,103.0
1326,B-2,136.5,0.5,95,103.0
1327,C3,136.75,0.25,95,103.0
1328,C2,136.75,0.25,95,103.0
1329,E2,137.0,0.25,95,103.0
1330,E1,137.0,0.25,95,103.0
1331,E2,137.0,0.25,95,103.0
1332,E2,137.25,0.25,95,103.0
1333,E1,137.25,0.25,95,103.0
1334,D2,137.25,167/1000,95,103.0
1335,D2,137.417,167/1000,95,103.0
1336,F2,137.5,0.25,95,103.0
1337,F1,137.5,0.25,95,103.0
1338,D2,137.583,167/1000,95,103.0
1339,F2,137.75,0.25,95,103.0
1340,F1,137.75,0.25,95,103.0
1341,D2,137.75,0.25,95,103.0
1342,F#2,138.0,0.25,95,103.0
1343,F#1,138.0,0.25,95,103.0
1344,A2,138.0,167/1000,95,103.0
1345,A2,138.167,167/1000,95,103.0
1346,F#2,138.25,0.25,95,103.0
1347,F#1,138.25,0.25,95,103.0
1348,A2,138.333,167/1000,95,103.0
1349,G2,138.5,0.25,95,103.0
1350,G1,138.5,0.25,95,103.0
1351,G2,138.5,167/1000,95,103.0
1352,G2,138.667,167/1000,95,103.0
1353,G2,138.75,0.25,95,103.0
1354,G1,138.75,0.25,95,103.0
1355,G2,138.833,167/1000,95,103.0
1356,G#2,139.0,1.75,95,103.0
1357,G#1,139.0,2.0,95,103.0
1358,C#3,139.0,1.0,95,103.0
1359,E-5,139.0,4.0,95,103.0
1360,E-4,139.0,4.0,95,103.0
1361,G#3,139.0,4.0,95,103.0
1362,E-3,139.0,4.0,95,103.0
1363,F#2,140.0,0.5,95,103.0
1364,C2,140.0,0.5,95,103.0
1365,F#2,140.5,0.5,95,103.0
1366,C2,140.5,0.5,95,103.0
1367,G#4,141.0,0.75,95,103.0
1368,G#1,141.0,2.0,95,103.0
1369,F#2,141.0,1.0,95,103.0
1370,E2,141.0,1.0,95,103.0
1371,G4,141.75,0.5,95,103.0
1372,F#2,142.0,0.5,95,103.0
1373,G#4,142.25,0.125,95,103.0
1374,G4,142.375,0.125,70,103.0
1375,F4,142.5,0.5,70,103.0
1376,F#2,142.5,0.25,95,103.0
1377,E2,142.5,0.25,95,103.0
1378,F#2,142.75,0.25,95,103.0
1379,G2,142.75,0.25,95,103.0
1380,E-4,143.0,0.75,95,103.0
1381,B-1,143.0,2.0,95,103.0
1382,F5,143.0,4.0,95,103.0
1383,F4,143.0,4.0,95,103.0
1384,B-3,143.0,4.0,95,103.0
1385,F#2,143.0,0.5,95,103.0
1386,C2,143.0,0.5,95,103.0
1387,F#2,143.5,0.5,95,103.0
1388,F4,143.75,0.75,95,103.0
1389,F#2,144.0,0.5,95,103.0
1390,F4,144.375,0.125,95,103.0
1391,G4,144.5,0.5,95,103.0
1392,F#2,144.5,0.5,95,103.0
1393,F4,145.0,2.0,95,103.0
1394,B-1,145.0,2.0,95,103.0
1395,F#2,145.0,1.0,95,103.0
1396,E2,145.0,1.0,95,103.0
1397,F#2,146.0,0.5,95,103.0
1398,F#2,146.5,0.25,95,103.0
1399,E2,146.5,0.25,95,103.0
1400,F#2,146.75,0.25,95,103.0
1401,G2,146.75,0.25,95,103.0
1402,F4,147.0,2.0,95,103.0
1403,B-1,147.0,0.5,95,103.0
1404,E-5,147.0,4.0,95,103.0
1405,G#4,147.0,4.0,95,103.0
1406,G#3,147.0,4.0,95,103.0
1407,E-3,147.0,4.0,95,103.0
1408,B-2,147.0,1.0,95,103.0
1409,F#2,147.0,1.0,95,103.0
1410,C2,147.0,1.0,95,103.0
1411,C2,147.5,0.5,95,103.0
1412,B-1,148.0,0.5,95,103.0
1413,F#2,148.0,0.5,95,103.0
1414,C2,148.0,0.5,95,103.0
1415,C2,148.5,0.5,95,103.0
1416,F#2,148.5,0.5,95,103.0
1417,C2,148.5,0.5,95,103.0
1418,G4,148.938,0.062,95,103.0
1419,G#4,149.0,0.75,95,103.0
1420,C2,149.0,2.0,95,103.0
1421,F#2,149.0,1.0,95,103.0
1422,E2,149.0,1.0,95,103.0
1423,G3,149.75,0.75,95,103.0
1424,F#2,150.0,0.5,95,103.0
1425,F4,150.5,0.25,95,103.0
1426,F#2,150.5,0.25,95,103.0
1427,E2,150.5,0.25,95,103.0
1428,E-4,150.75,0.25,95,103.0
1429,F#2,150.75,0.25,95,103.0
1430,G2,150.75,0.25,95,103.0
1431,G#4,151.0,1.5,95,103.0
1432,C2,151.0,0.5,95,103.0
1433,B-5,151.0,4.0,95,103.0
1434,B-4,151.0,4.0,95,103.0
1435,B-3,151.0,4.0,95,103.0
1436,F#2,151.0,0.5,95,103.0
1437,E2,151.0,0.5,95,103.0
1438,C2,151.0,0.5,95,103.0
1439,D2,151.5,1.5,95,103.0
1440,F#2,151.5,0.5,95,103.0
1441,E2,151.5,0.5,95,103.0
1442,C2,151.5,0.5,95,103.0
1443,G#4,152.5,0.25,95,103.0
1444,B2,152.5,0.5,95,103.0
1445,A2,152.5,0.5,95,103.0
1446,C2,152.5,0.5,95,103.0
1447,G4,152.75,0.25,95,103.0
1448,F4,153.0,0.25,95,103.0
1449,D2,153.0,2.0,95,103.0
1450,F#2,153.0,0.5,95,103.0
1451,E2,153.0,0.5,95,103.0
1452,C2,153.0,0.5,95,103.0
1453,E-4,153.75,0.25,95,103.0
1454,F#2,153.75,0.25,95,103.0
1455,E2,153.75,0.25,95,103.0
1456,C2,153.75,0.25,95,103.0
1457,F4,154.0,1.0,95,103.0
1458,F#2,154.0,0.5,95,103.0
1459,E2,154.0,0.5,95,103.0
1460,F#2,154.5,0.25,95,103.0
1461,E2,154.5,0.25,95,103.0
1462,C2,154.5,0.25,95,103.0
1463,F#2,154.75,0.25,95,103.0
1464,E2,154.75,0.25,95,103.0
1465,C2,154.75,0.25,95,103.0
1466,F4,155.0,0.5,95,103.0
1467,C#2,155.0,0.5,95,103.0
1468,G#5,155.0,4.0,95,103.0
1469,G#4,155.0,4.0,95,103.0
1470,G#3,155.0,4.0,95,103.0
1471,F#2,155.0,0.5,95,103.0
1472,C2,155.0,0.5,95,103.0
1473,G#4,155.5,167/1000,47,103.0
1474,C#2,155.5,0.5,95,103.0
1475,F#2,155.5,0.5,95,103.0
1476,C2,155.5,0.5,95,103.0
1477,C#5,155.667,167/1000,95,103.0
1478,F5,155.833,167/1000,95,103.0
1479,G#5,156.0,0.25,95,103.0
1480,C#2,156.0,0.5,95,103.0
1481,B-2,156.0,0.5,95,103.0
1482,E2,156.0,0.5,95,103.0
1483,F5,156.25,0.25,95,103.0
1484,C#5,156.5,167/1000,95,103.0
1485,C#2,156.5,0.5,95,103.0
1486,C2,156.5,0.25,95,103.0
1487,G#4,156.667,167/1000,95,103.0
1488,C2,156.75,0.25,95,103.0
1489,F4,156.833,167/1000,95,103.0
1490,G#5,157.0,1.5,95,103.0
1491,C#2,157.0,0.5,95,103.0
1492,F#2,157.0,0.5,95,103.0
1493,C2,157.0,0.5,95,103.0
1494,C#2,157.5,0.5,95,103.0
1495,F#2,157.5,0.5,95,103.0
1496,C2,157.5,0.5,95,103.0
1497,C#2,158.0,0.5,95,103.0
1498,B-2,158.0,0.5,95,103.0
1499,E2,158.0,0.5,95,103.0
1500,G5,158.5,0.25,95,103.0
1501,C#2,158.5,0.5,95,103.0
1502,C2,158.5,0.5,95,103.0
1503,F5,158.75,0.25,95,103.0
1504,E-5,159.0,1.5,95,103.0
1505,C2,159.0,0.5,95,103.0
1506,C2,159.0,0.5,95,103.0
1507,G#5,159.0,4.0,95,103.0
1508,G#4,159.0,4.0,95,103.0
1509,G#3,159.0,4.0,95,103.0
1510,C2,159.5,0.5,95,103.0
1511,C2,159.5,0.5,95,103.0
1512,C2,160.0,0.5,95,103.0
1513,B-2,160.0,0.5,95,103.0
1514,E2,160.0,0.5,95,103.0
1515,F5,160.5,0.25,95,103.0
1516,C2,160.5,0.5,95,103.0
1517,C2,160.5,0.25,95,103.0
1518,G5,160.75,0.25,95,103.0
1519,C2,160.75,0.25,95,103.0
1520,F5,161.0,1.5,95,103.0
1521,C2,161.0,0.5,95,103.0
1522,C2,161.0,0.5,95,103.0
1523,C2,161.5,0.5,95,103.0
1524,C2,161.5,0.5,95,103.0
1525,C2,162.0,0.5,95,103.0
1526,B-2,162.0,0.5,95,103.0
1527,E2,162.0,0.5,95,103.0
1528,E-5,162.5,0.25,95,103.0
1529,C2,162.5,0.5,95,103.0
1530,C2,162.5,0.5,95,103.0
1531,D5,163.0,0.125,95,103.0
1532,B-1,163.0,0.5,95,103.0
1533,E2,163.0,0.5,31,103.0
1534,B-5,163.0,4.0,95,103.0
1535,B-4,163.0,4.0,95,103.0
1536,F4,163.0,4.0,95,103.0
1537,E-5,163.125,0.125,95,103.0
1538,D5,163.25,0.125,95,103.0
1539,E-5,163.375,0.125,95,103.0
1540,D5,163.5,0.125,95,103.0
1541,B-1,163.5,0.5,95,103.0
1542,E2,163.5,0.5,31,103.0
1543,E-5,163.625,0.125,95,103.0
1544,D5,163.75,0.125,95,103.0
1545,E-5,163.875,0.125,95,103.0
1546,D5,164.0,0.125,95,103.0
1547,B-1,164.0,0.5,95,103.0
1548,E2,164.0,0.5,47,103.0
1549,E-5,164.125,0.125,95,103.0
1550,D5,164.25,0.125,95,103.0
1551,E-5,164.375,0.125,95,103.0
1552,D5,164.5,0.125,95,103.0
1553,B-1,164.5,0.5,95,103.0
1554,E2,164.5,0.5,47,103.0
1555,E-5,164.625,31/250,95,103.0
1556,D5,164.75,167/1000,95,103.0
1557,G5,164.917,167/1000,95,103.0
1558,B-1,165.0,0.5,95,103.0
1559,E2,165.0,0.5,47,103.0
1560,G#5,165.083,167/1000,95,103.0
1561,F5,165.25,167/1000,95,103.0
1562,G5,165.417,167/1000,95,103.0
1563,B-1,165.5,0.5,95,103.0
1564,E2,165.5,0.5,47,103.0
1565,E-5,165.583,167/1000,95,103.0
1566,F5,165.75,167/1000,95,103.0
1567,D5,165.917,167/1000,95,103.0
1568,B-1,166.0,0.5,95,103.0
1569,E2,166.0,0.5,79,103.0
1570,E-5,166.083,167/1000,95,103.0
1571,C5,166.25,167/1000,95,103.0
1572,D5,166.417,167/1000,95,103.0
1573,B-1,166.5,0.5,95,103.0
1574,E2,166.5,0.5,79,103.0
1575,C5,166.583,167/1000,95,103.0
1576,B-4,166.75,167/1000,95,103.0
1577,G4,166.917,83/1000,95,103.0
1578,G4,167.0,83/1000,95,103.0
1579,B-1,167.0,0.5,95,103.0
1580,E2,167.0,0.5,95,103.0
1581,G#4,167.083,167/1000,95,103.0
1582,F4,167.25,167/1000,95,103.0
1583,G4,167.417,167/1000,95,103.0
1584,B-1,167.5,0.5,95,103.0
1585,E2,167.5,0.5,95,103.0
1586,F4,167.583,167/1000,95,103.0
1587,E-4,167.75,167/1000,95,103.0
1588,D4,167.917,167/1000,95,103.0
1589,B-1,168.0,0.5,95,103.0
1590,E2,168.0,0.5,111,103.0
1591,E-4,168.083,167/1000,95,103.0
1592,C4,168.25,167/1000,95,103.0
1593,D4,168.417,167/1000,95,103.0
1594,B-1,168.5,0.5,95,103.0
1595,E2,168.5,0.5,111,103.0
1596,D4,168.583,167/1000,95,103.0
1597,C4,168.75,167/1000,95,103.0
1598,B-3,168.917,1833/1000,95,103.0
1599,B-1,169.0,0.5,95,103.0
1600,E2,169.0,0.25,111,103.0
1601,E2,169.25,167/1000,95,103.0
1602,E2,169.417,167/1000,95,103.0
1603,B-1,169.5,0.5,95,103.0
1604,E2,169.583,167/1000,95,103.0
1605,E2,169.75,0.25,95,103.0
1606,B-1,170.0,0.5,95,103.0
1607,C3,170.0,0.25,95,103.0
1608,C3,170.25,0.25,95,103.0
1609,B-1,170.5,0.5,95,103.0
1610,A2,170.5,0.25,95,103.0
1611,F2,170.75,0.25,95,103.0
1612,A2,170.75,0.25,95,103.0
1613,B-2,171.0,0.25,95,103.0
1614,B-1,171.0,0.25,95,103.0
1615,B-5,171.0,4.0,95,103.0
1616,B-4,171.0,4.0,95,103.0
1617,F4,171.0,4.0,95,103.0
1618,E3,171.0,0.25,95,103.0
1619,D2,171.0,0.25,95,103.0
1620,B-2,171.25,107/1000,95,103.0
1621,B-1,171.25,0.25,95,103.0
1622,B2,171.5,0.25,95,103.0
1623,B1,171.5,0.25,95,103.0
1624,C2,171.5,0.25,95,103.0
1625,C3,171.75,0.25,95,103.0
1626,C2,171.75,0.25,95,103.0
1627,D2,171.75,0.25,95,103.0
1628,G2,172.25,0.25,95,103.0
1629,G1,172.25,0.25,95,103.0
1630,E1,172.5,53/1000,95,103.0
1631,D2,172.5,0.25,95,103.0
1632,A2,172.5,53/1000,127,103.0
1633,G2,172.5,53/1000,127,103.0
1634,E1,172.75,53/1000,95,103.0
1635,A2,172.75,53/1000,127,103.0
1636,G2,172.75,53/1000,127,103.0
1637,B-2,173.0,107/1000,95,103.0
1638,B-1,173.0,0.25,95,103.0
1639,C2,173.0,0.25,95,103.0
1640,B-2,173.25,107/1000,95,103.0
1641,B-1,173.25,0.25,95,103.0
1642,E2,173.25,0.25,95,103.0
1643,C3,173.5,107/1000,95,103.0
1644,C2,173.5,0.25,95,103.0
1645,C2,173.5,0.25,95,103.0
1646,C3,173.75,107/1000,95,103.0
1647,C2,173.75,0.25,95,103.0
1648,D2,173.75,0.25,95,103.0
1649,E-3,174.0,0.25,95,103.0
1650,E-2,174.0,0.25,95,103.0
1651,D2,174.0,0.25,95,103.0
1652,C#3,174.25,0.75,95,103.0
1653,C#2,174.25,0.75,95,103.0
1654,E2,174.25,0.25,95,103.0
1655,E2,174.5,0.25,95,103.0
1656,E2,174.75,0.25,95,103.0
1657,B-2,175.0,0.25,95,103.0
1658,B-1,175.0,0.25,95,103.0
1659,F#2,175.0,0.25,95,103.0
1660,D2,175.0,0.25,95,103.0
1661,B-2,175.25,0.25,95,103.0
1662,B-1,175.25,0.25,95,103.0
1663,B2,175.5,0.25,95,103.0
1664,B1,175.5,0.25,95,103.0
1665,C2,175.5,0.25,95,103.0
1666,C3,175.75,0.25,95,103.0
1667,C2,175.75,0.25,95,103.0
1668,E2,175.75,0.25,95,103.0
1669,E2,176.25,0.75,95,103.0
1670,E1,176.25,0.75,95,103.0
1671,D2,176.5,0.25,95,103.0
1672,D2,176.75,0.25,95,103.0
1673,F2,177.0,0.25,95,103.0
1674,F1,177.0,0.25,95,103.0
1675,C2,177.0,0.25,95,103.0
1676,F2,177.25,0.25,95,103.0
1677,F1,177.25,0.25,95,103.0
1678,A2,177.25,0.25,95,103.0
1679,F2,177.5,0.25,95,103.0
1680,F1,177.5,0.25,95,103.0
1681,C2,177.5,0.25,95,103.0
1682,F#2,177.75,0.5,95,103.0
1683,F#1,177.75,0.5,95,103.0
1684,D2,177.75,0.25,95,103.0
1685,D2,178.0,0.25,95,103.0
1686,G1,178.25,0.75,95,103.0
1687,A2,178.25,0.25,95,103.0
1688,D3,178.25,0.75,63,103.0
1689,D4,178.25,0.75,63,103.0
1690,A2,178.5,0.25,95,103.0
1691,A2,178.75,0.25,95,103.0
1692,B-2,179.0,0.25,95,103.0
1693,B-1,179.0,0.25,95,103.0
1694,E3,179.0,0.25,95,103.0
1695,D2,179.0,0.25,95,103.0
1696,B-2,179.25,0.25,95,103.0
1697,B-1,179.25,0.25,95,103.0
1698,B2,179.5,0.25,95,103.0
1699,B1,179.5,0.25,95,103.0
1700,C2,179.5,0.25,95,103.0
1701,C3,179.75,0.25,95,103.0
1702,C2,179.75,0.25,95,103.0
1703,D2,179.75,0.25,95,103.0
1704,G2,180.25,0.25,95,103.0
1705,G1,180.25,0.25,95,103.0
1706,E1,180.5,53/1000,95,103.0
1707,D2,180.5,0.25,95,103.0
1708,E1,180.75,53/1000,95,103.0
1709,B-2,181.0,107/1000,95,103.0
1710,B-1,181.0,167/1000,95,103.0
1711,C2,181.0,0.25,95,103.0
1712,B2,181.167,107/1000,95,103.0
1713,B1,181.167,167/1000,95,103.0
1714,E2,181.25,0.25,95,103.0
1715,C3,181.333,107/1000,95,103.0
1716,C2,181.333,167/1000,95,103.0
1717,E-3,181.5,107/1000,95,103.0
1718,E-2,181.5,167/1000,95,103.0
1719,C2,181.5,0.25,95,103.0
1720,C3,181.667,107/1000,95,103.0
1721,C2,181.667,167/1000,95,103.0
1722,D2,181.75,0.25,95,103.0
1723,B-2,181.833,107/1000,95,103.0
1724,B-1,181.833,167/1000,95,103.0
1725,F3,182.0,0.25,95,103.0
1726,F2,182.0,0.25,95,103.0
1727,D2,182.0,0.25,95,103.0
1728,E-3,182.25,0.75,95,103.0
1729,E-2,182.25,0.75,95,103.0
1730,E2,182.25,0.25,95,103.0
1731,E2,182.5,0.25,95,103.0
1732,E2,182.75,0.25,95,103.0
1733,F#3,182.875,0.125,95,103.0
1734,F#2,182.938,0.062,95,103.0
1735,G3,183.0,0.5,95,103.0
1736,G2,183.0,0.5,95,103.0
1737,F#2,183.0,0.25,95,103.0
1738,D2,183.0,0.25,95,103.0
1739,B-3,183.5,0.25,95,103.0
1740,B-2,183.5,0.25,95,103.0
1741,C2,183.5,0.25,95,103.0
1742,G3,183.688,0.062,95,103.0
1743,G2,183.688,0.062,95,103.0
1744,F#3,183.75,0.5,95,103.0
1745,F#2,183.75,0.5,95,103.0
1746,E2,183.75,0.25,95,103.0
1747,F3,184.25,0.25,95,103.0
1748,F2,184.25,0.25,95,103.0
1749,E-3,184.5,0.25,95,103.0
1750,E-2,184.5,0.25,95,103.0
1751,D2,184.5,0.25,95,103.0
1752,B-2,184.75,0.25,95,103.0
1753,B-1,184.75,0.25,95,103.0
1754,D2,184.75,0.25,95,103.0
1755,B-2,184.938,0.062,95,103.0
1756,B-1,184.938,0.062,95,103.0
1757,C3,185.0,0.25,95,103.0
1758,C2,185.0,0.25,95,103.0
1759,C2,185.0,0.25,95,103.0
1760,B2,185.25,0.25,95,103.0
1761,B1,185.25,0.25,95,103.0
1762,A2,185.25,0.25,95,103.0
1763,B-2,185.5,0.25,95,103.0
1764,B-1,185.5,0.25,95,103.0
1765,C2,185.5,0.25,95,103.0
1766,A2,185.75,0.25,95,103.0
1767,A1,185.75,0.25,95,103.0
1768,D2,185.75,0.25,95,103.0
1769,G2,186.0,0.25,95,103.0
1770,G1,186.0,0.25,95,103.0
1771,D2,186.0,0.25,95,103.0
1772,F#2,186.25,0.25,95,103.0
1773,F#1,186.25,0.25,95,103.0
1774,A2,186.25,0.25,95,103.0
1775,F2,186.5,0.25,95,103.0
1776,F1,186.5,0.25,95,103.0
1777,A2,186.5,0.25,95,103.0
1778,E2,186.75,0.25,95,103.0
1779,E1,186.75,0.25,95,103.0
1780,A2,186.75,0.25,95,103.0
1781,C2,187.0,0.25,95,103.0
1782,G3,187.0,0.25,95,103.0
1783,C3,187.0,0.25,95,103.0
1784,E3,187.0,0.25,95,103.0
1785,D2,187.0,0.25,95,103.0
1786,G2,187.25,107/1000,95,103.0
1787,C2,187.25,0.25,95,103.0
1788,C2,187.5,0.25,95,103.0
1789,C2,187.5,0.25,95,103.0
1790,G3,187.5,0.25,95,103.0
1791,C3,187.5,0.25,95,103.0
1792,C2,187.75,0.75,95,103.0
1793,D2,187.75,0.25,95,103.0
1794,E-4,187.75,0.75,95,103.0
1795,B-3,187.75,0.75,95,103.0
1796,E-3,187.75,0.75,95,103.0
1797,C2,188.5,0.25,95,103.0
1798,D2,188.5,0.25,95,103.0
1799,E-4,188.5,0.25,95,103.0
1800,B-3,188.5,0.25,95,103.0
1801,E-3,188.5,0.25,95,103.0
1802,C2,188.75,0.25,95,103.0
1803,E-4,188.75,0.25,95,103.0
1804,B-3,188.75,0.25,95,103.0
1805,E-3,188.75,0.25,95,103.0
1806,E1,189.0,53/1000,95,103.0
1807,C2,189.0,0.25,95,103.0
1808,E-4,189.0,53/1000,95,103.0
1809,B-3,189.0,53/1000,95,103.0
1810,E-3,189.0,53/1000,95,103.0
1811,C2,189.25,0.25,95,103.0
1812,E2,189.25,0.25,95,103.0
1813,E-4,189.25,0.25,95,103.0
1814,B-3,189.25,0.25,95,103.0
1815,E-3,189.25,0.25,95,103.0
1816,E1,189.5,53/1000,95,103.0
1817,C2,189.5,0.25,95,103.0
1818,E-4,189.5,53/1000,95,103.0
1819,B-3,189.5,53/1000,95,103.0
1820,E-3,189.5,53/1000,95,103.0
1821,C2,189.75,0.25,95,103.0
1822,D2,189.75,0.25,95,103.0
1823,E-4,189.75,0.25,95,103.0
1824,B-3,189.75,0.25,95,103.0
1825,E-3,189.75,0.25,95,103.0
1826,C2,190.0,0.25,95,103.0
1827,D2,190.0,0.25,95,103.0
1828,E-4,190.0,0.25,95,103.0
1829,B-3,190.0,0.25,95,103.0
1830,E-3,190.0,0.25,95,103.0
1831,C2,190.25,0.25,95,103.0
1832,E2,190.25,0.25,95,103.0
1833,F4,190.25,0.75,95,103.0
1834,C4,190.25,0.75,95,103.0
1835,F3,190.25,0.75,95,103.0
1836,E1,190.5,53/1000,95,103.0
1837,E2,190.5,0.25,95,103.0
1838,E1,190.75,53/1000,95,103.0
1839,E2,190.75,0.25,95,103.0
1840,C2,191.0,0.25,95,103.0
1841,G3,191.0,0.25,95,103.0
1842,C3,191.0,0.25,95,103.0
1843,F#2,191.0,0.25,95,103.0
1844,D2,191.0,0.25,95,103.0
1845,G2,191.25,107/1000,95,103.0
1846,C2,191.25,0.25,95,103.0
1847,C2,191.5,0.25,95,103.0
1848,C2,191.5,0.25,95,103.0
1849,G3,191.5,0.25,95,103.0
1850,C3,191.5,0.25,95,103.0
1851,C2,191.75,0.75,95,103.0
1852,E2,191.75,0.25,95,103.0
1853,E-4,191.75,1.5,95,103.0
1854,B-3,191.75,1.5,95,103.0
1855,E-3,191.75,1.5,95,103.0
1856,D2,192.5,0.25,95,103.0
1857,C2,193.0,0.25,95,103.0
1858,C2,193.25,1.0,95,103.0
1859,A2,193.25,0.25,95,103.0
1860,E-4,193.25,0.75,71,103.0
1861,C4,193.25,0.75,71,103.0
1862,C2,193.5,0.25,95,103.0
1863,D2,193.75,0.25,95,103.0
1864,D2,194.0,0.25,95,103.0
1865,G1,194.25,0.25,95,103.0
1866,A2,194.25,0.25,95,103.0
1867,F4,194.25,0.5,71,103.0
1868,B3,194.25,0.5,71,103.0
1869,A2,194.5,0.25,95,103.0
1870,A2,194.75,0.25,95,103.0
1871,C2,195.0,0.25,95,103.0
1872,G3,195.0,0.25,95,103.0
1873,C3,195.0,0.25,95,103.0
1874,E3,195.0,0.25,95,103.0
1875,D2,195.0,0.25,95,103.0
1876,G2,195.25,107/1000,95,103.0
1877,C2,195.25,0.25,95,103.0
1878,C2,195.5,0.25,95,103.0
1879,C2,195.5,0.25,95,103.0
1880,G3,195.5,0.25,95,103.0
1881,C3,195.5,0.25,95,103.0
1882,C2,195.75,0.75,95,103.0
1883,D2,195.75,0.25,95,103.0
1884,E-4,195.75,0.75,95,103.0
1885,B-3,195.75,0.75,95,103.0
1886,E-3,195.75,0.75,95,103.0
1887,C2,196.5,0.25,95,103.0
1888,D2,196.5,0.25,95,103.0
1889,E-4,196.5,0.25,95,103.0
1890,B-3,196.5,0.25,95,103.0
1891,E-3,196.5,0.25,95,103.0
1892,C2,196.75,0.25,95,103.0
1893,E-4,196.75,0.25,95,103.0
1894,B-3,196.75,0.25,95,103.0
1895,E-3,196.75,0.25,95,103.0
1896,E1,197.0,53/1000,95,103.0
1897,C2,197.0,0.25,95,103.0
1898,E-4,197.0,53/1000,95,103.0
1899,B-3,197.0,53/1000,95,103.0
1900,E-3,197.0,53/1000,95,103.0
1901,C2,197.25,0.25,95,103.0
1902,E2,197.25,0.25,95,103.0
1903,E-4,197.25,0.25,95,103.0
1904,B-3,197.25,0.25,95,103.0
1905,E-3,197.25,0.25,95,103.0
1906,E1,197.5,53/1000,95,103.0
1907,C2,197.5,0.25,95,103.0
1908,E-4,197.5,53/1000,95,103.0
1909,B-3,197.5,53/1000,95,103.0
1910,E-3,197.5,53/1000,95,103.0
1911,E1,197.75,53/1000,95,103.0
1912,D2,197.75,0.25,95,103.0
1913,E-4,197.75,53/1000,95,103.0
1914,B-3,197.75,53/1000,95,103.0
1915,E-3,197.75,53/1000,95,103.0
1916,C2,198.0,0.25,95,103.0
1917,D2,198.0,0.25,95,103.0
1918,E-4,198.0,0.25,95,103.0
1919,B-3,198.0,0.25,95,103.0
1920,E-3,198.0,0.25,95,103.0
1921,C2,198.25,0.25,95,103.0
1922,E2,198.25,0.25,95,103.0
1923,F4,198.25,0.75,95,103.0
1924,C4,198.25,0.75,95,103.0
1925,F3,198.25,0.75,95,103.0
1926,E1,198.5,53/1000,95,103.0
1927,E2,198.5,0.25,95,103.0
1928,E1,198.75,53/1000,95,103.0
1929,E2,198.75,0.25,95,103.0
1930,C2,199.0,0.25,95,103.0
1931,G3,199.0,0.25,95,103.0
1932,C3,199.0,0.25,95,103.0
1933,F#2,199.0,0.25,95,103.0
1934,D2,199.0,0.25,95,103.0
1935,G2,199.25,107/1000,95,103.0
1936,C2,199.25,0.25,95,103.0
1937,C2,199.5,0.25,95,103.0
1938,C2,199.5,0.25,95,103.0
1939,G3,199.5,0.25,95,103.0
1940,C3,199.5,0.25,95,103.0
1941,C2,199.75,0.75,95,103.0
1942,E2,199.75,0.25,95,103.0
1943,E-4,199.75,0.75,95,103.0
1944,B-3,199.75,0.75,95,103.0
1945,E-3,199.75,0.75,95,103.0
1946,C4,200.5,0.25,95,103.0
1947,C3,200.5,0.25,95,103.0
1948,D2,200.5,0.25,95,103.0
1949,B-3,200.75,0.25,95,103.0
1950,B-2,200.75,0.25,95,103.0
1951,D2,200.75,0.25,95,103.0
1952,B-3,200.938,0.062,95,103.0
1953,C4,201.0,0.25,95,103.0
1954,C3,201.0,0.25,95,103.0
1955,C2,201.0,0.25,95,103.0
1956,B-3,201.25,0.25,95,103.0
1957,B-2,201.25,0.25,95,103.0
1958,A2,201.25,0.25,95,103.0
1959,G3,201.5,0.25,95,103.0
1960,G2,201.5,0.25,95,103.0
1961,C2,201.5,0.25,95,103.0
1962,F#3,201.75,0.25,95,103.0
1963,F#2,201.75,0.25,95,103.0
1964,D2,201.75,0.25,95,103.0
1965,F3,202.0,167/1000,95,103.0
1966,F2,202.0,167/1000,95,103.0
1967,D2,202.0,0.25,95,103.0
1968,F#3,202.167,167/1000,70,103.0
1969,F#2,202.167,167/1000,95,103.0
1970,A2,202.25,0.25,95,103.0
1971,F3,202.333,167/1000,70,103.0
1972,F2,202.333,167/1000,95,103.0
1973,E-3,202.5,0.25,95,103.0
1974,E-2,202.5,0.25,95,103.0
1975,A2,202.5,0.25,95,103.0
1976,C3,202.75,0.25,95,103.0
1977,C2,202.75,0.25,95,103.0
1978,A2,202.75,0.25,95,103.0
1979,B-2,203.0,0.25,95,103.0
1980,B-1,203.0,0.25,95,103.0
1981,E3,203.0,0.25,95,103.0
1982,D2,203.0,0.25,95,103.0
1983,C2,203.0,0.25,95,103.0
1984,C3,203.25,0.5,95,103.0
1985,C2,203.25,0.5,95,103.0
1986,E3,203.25,0.25,95,103.0
1987,D2,203.25,0.25,95,103.0
1988,C2,203.25,0.25,95,103.0
1989,B-2,203.75,0.25,47,103.0
1990,C3,204.0,0.5,47,103.0
1991,B-2,204.5,0.25,31,103.0
1992,G#3,204.5,0.25,95,103.0
1993,A1,204.5,0.25,95,103.0
1994,C2,204.5,0.25,95,103.0
1995,C3,204.75,0.5,31,103.0
1996,G#3,204.75,0.25,95,103.0
1997,A1,204.75,0.25,95,103.0
1998,C2,204.75,0.25,95,103.0
1999,B-2,205.25,0.25,15,103.0
2000,G#3,205.25,0.125,95,103.0
2001,A1,205.25,0.125,95,103.0
2002,C2,205.25,0.125,95,103.0
2003,G#3,205.375,0.125,95,103.0
2004,A1,205.375,0.125,95,103.0
2005,C2,205.375,0.125,95,103.0
2006,C3,205.5,0.5,15,103.0
2007,G#3,205.5,0.25,95,103.0
2008,A1,205.5,0.25,95,103.0
2009,C2,205.5,0.25,95,103.0
2010,G#3,205.75,0.25,95,103.0
2011,A1,205.75,0.25,95,103.0
2012,C2,205.75,0.25,95,103.0
2013,B-2,206.0,0.25,95,103.0
2014,B-1,206.0,0.25,95,103.0
2015,E3,206.0,0.25,95,103.0
2016,D2,206.0,0.25,95,103.0
2017,C2,206.0,0.25,95,103.0
2018,C3,206.25,0.25,95,103.0
2019,C2,206.25,0.25,95,103.0
2020,E3,206.25,0.25,95,103.0
2021,D2,206.25,0.25,95,103.0
2022,C2,206.25,0.25,95,103.0
2023,B-2,206.75,0.5,47,103.0
2024,G#2,207.0,0.25,95,103.0
2025,G#1,207.0,0.25,95,103.0
2026,E3,207.0,0.25,95,103.0
2027,D2,207.0,0.25,95,103.0
2028,C2,207.0,0.25,95,103.0
2029,B-2,207.25,0.25,95,103.0
2030,C3,207.25,0.25,47,103.0
2031,B-1,207.25,0.25,95,103.0
2032,E3,207.25,0.25,95,103.0
2033,D2,207.25,0.25,95,103.0
2034,C2,207.25,0.25,95,103.0
2035,G#2,207.75,0.25,47,103.0
2036,B-2,208.0,0.25,47,103.0
2037,E-4,208.0,0.375,95,103.0
2038,A1,208.0,0.375,95,103.0
2039,C2,208.0,0.375,95,103.0
2040,E-4,208.375,0.375,95,103.0
2041,A1,208.375,0.375,95,103.0
2042,C2,208.375,0.375,95,103.0
2043,G#2,208.5,0.25,31,103.0
2044,B-2,208.75,0.25,31,103.0
2045,E-4,208.75,0.25,95,103.0
2046,A1,208.75,0.25,95,103.0
2047,C2,208.75,0.25,95,103.0
2048,E-4,209.0,0.125,95,103.0
2049,A1,209.0,0.125,95,103.0
2050,C2,209.0,0.125,95,103.0
2051,E-4,209.125,0.125,95,103.0
2052,A1,209.125,0.125,95,103.0
2053,C2,209.125,0.125,95,103.0
2054,G#2,209.25,0.25,15,103.0
2055,E-4,209.25,0.125,95,103.0
2056,A1,209.25,0.125,95,103.0
2057,C2,209.25,0.125,95,103.0
2058,E-4,209.375,0.125,95,103.0
2059,A1,209.375,0.125,95,103.0
2060,C2,209.375,0.125,95,103.0
2061,B-2,209.5,0.25,15,103.0
2062,E-4,209.5,0.25,95,103.0
2063,A1,209.5,0.25,95,103.0
2064,C2,209.5,0.25,95,103.0
2065,E-4,209.75,83/1000,95,103.0
2066,A1,209.75,83/1000,95,103.0
2067,C2,209.75,83/1000,95,103.0
2068,E-4,209.833,83/1000,95,103.0
2069,A1,209.833,83/1000,95,103.0
2070,C2,209.833,83/1000,95,103.0
2071,E-4,209.917,83/1000,95,103.0
2072,A1,209.917,83/1000,95,103.0
2073,C2,209.917,83/1000,95,103.0
2074,G#2,210.0,0.25,95,103.0
2075,G#1,210.0,0.25,95,103.0
2076,E3,210.0,0.25,95,103.0
2077,D2,210.0,0.25,95,103.0
2078,C2,210.0,0.25,95,103.0
2079,B-2,210.25,0.25,95,103.0
2080,B-1,210.25,0.25,95,103.0
2081,E3,210.25,0.25,95,103.0
2082,D2,210.25,0.25,95,103.0
2083,C2,210.25,0.25,95,103.0
2084,G#2,210.75,0.5,47,103.0
2085,F#2,211.0,0.25,95,103.0
2086,F#1,211.0,0.25,95,103.0
2087,E3,211.0,0.25,95,103.0
2088,D2,211.0,0.25,95,103.0
2089,C2,211.0,0.25,95,103.0
2090,G#2,211.25,0.25,95,103.0
2091,B-2,211.25,0.25,47,103.0
2092,G#1,211.25,0.25,95,103.0
2093,E3,211.25,0.25,95,103.0
2094,D2,211.25,0.25,95,103.0
2095,C2,211.25,0.25,95,103.0
2096,F#2,211.75,0.25,47,103.0
2097,G#2,212.0,0.25,47,103.0
2098,D3,212.0,0.125,95,103.0
2099,E2,212.0,0.125,95,103.0
2100,C2,212.0,0.125,95,103.0
2101,D3,212.125,0.125,95,103.0
2102,E2,212.125,0.125,95,103.0
2103,C2,212.125,0.125,95,103.0
2104,D3,212.25,0.125,95,103.0
2105,E2,212.25,0.125,95,103.0
2106,C2,212.25,0.125,95,103.0
2107,D3,212.375,0.125,95,103.0
2108,E2,212.375,0.125,95,103.0
2109,C2,212.375,0.125,95,103.0
2110,F#2,212.5,0.25,31,103.0
2111,D3,212.5,0.125,95,103.0
2112,E2,212.5,0.125,95,103.0
2113,C2,212.5,0.125,95,103.0
2114,D3,212.625,0.125,95,103.0
2115,E2,212.625,0.125,95,103.0
2116,C2,212.625,0.125,95,103.0
2117,G#2,212.75,0.25,31,103.0
2118,B-2,212.75,0.125,95,103.0
2119,C4,212.75,0.125,95,103.0
2120,B-2,212.875,0.125,95,103.0
2121,C4,212.875,0.125,95,103.0
2122,B-2,213.0,0.125,95,103.0
2123,C4,213.0,0.125,95,103.0
2124,B-2,213.125,0.125,95,103.0
2125,C4,213.125,0.125,95,103.0
2126,F#2,213.25,0.25,15,103.0
2127,B-2,213.25,0.125,95,103.0
2128,C4,213.25,0.125,95,103.0
2129,B-2,213.375,0.125,95,103.0
2130,C4,213.375,0.125,95,103.0
2131,G#2,213.5,0.25,15,103.0
2132,D3,213.5,0.25,95,103.0
2133,E2,213.5,0.25,95,103.0
2134,C2,213.5,0.25,95,103.0
2135,D3,213.75,0.25,95,103.0
2136,E2,213.75,0.25,95,103.0
2137,C2,213.75,0.25,95,103.0
2138,F#2,214.0,0.25,95,103.0
2139,F#1,214.0,0.25,95,103.0
2140,D3,214.0,0.25,95,103.0
2141,E2,214.0,0.25,95,103.0
2142,C2,214.0,0.25,95,103.0
2143,G#2,214.25,0.25,95,103.0
2144,G#1,214.25,0.25,95,103.0
2145,D3,214.25,0.25,95,103.0
2146,E2,214.25,0.25,95,103.0
2147,C2,214.25,0.25,95,103.0
2148,E2,214.5,0.25,95,103.0
2149,C2,214.5,0.25,95,103.0
2150,F#2,214.75,0.5,47,103.0
2151,E2,214.75,0.25,95,103.0
2152,C2,214.75,0.25,95,103.0
2153,E2,215.0,0.25,95,103.0
2154,E1,215.0,0.25,95,103.0
2155,D3,215.0,0.25,95,103.0
2156,E2,215.0,0.25,95,103.0
2157,C2,215.0,0.25,95,103.0
2158,F#2,215.25,0.25,95,103.0
2159,G#2,215.25,0.25,47,103.0
2160,F#1,215.25,0.25,95,103.0
2161,D3,215.25,0.25,95,103.0
2162,E2,215.25,0.25,95,103.0
2163,C2,215.25,0.25,95,103.0
2164,E2,215.75,0.25,95,103.0
2165,E2,215.75,0.25,47,103.0
2166,E1,215.75,0.25,95,103.0
2167,F#2,216.0,0.25,95,103.0
2168,F#2,216.0,0.25,47,103.0
2169,F#1,216.0,0.25,95,103.0
2170,E2,216.0,0.25,95,103.0
2171,C2,216.0,0.25,95,103.0
2172,G#2,216.25,0.25,95,103.0
2173,G#1,216.25,0.25,95,103.0
2174,E2,216.25,0.25,95,103.0
2175,C2,216.25,0.25,95,103.0
2176,B-2,216.5,0.25,95,103.0
2177,B-1,216.5,0.25,95,103.0
2178,E2,216.5,0.25,95,103.0
2179,C2,216.5,0.25,95,103.0
2180,C3,216.75,0.5,95,103.0
2181,C2,216.75,0.5,95,103.0
2182,E2,216.75,0.25,95,103.0
2183,C2,216.75,0.25,95,103.0
2184,B-2,217.25,0.25,95,103.0
2185,B-1,217.25,0.25,95,103.0
2186,E2,217.25,0.25,95,103.0
2187,C2,217.25,0.25,95,103.0
2188,G#2,217.5,0.25,95,103.0
2189,G#1,217.5,0.25,95,103.0
2190,E2,217.5,0.25,95,103.0
2191,C2,217.5,0.25,95,103.0
2192,F#2,217.75,0.25,95,103.0
2193,F#1,217.75,0.25,95,103.0
2194,E2,217.75,0.25,95,103.0
2195,C2,217.75,0.25,95,103.0
2196,E2,218.0,0.75,95,103.0
2197,E1,218.0,0.75,95,103.0
2198,E2,218.0,0.25,95,103.0
2199,C2,218.0,0.25,95,103.0
2200,E2,218.5,0.25,95,103.0
2201,C2,218.5,0.25,95,103.0
2202,E2,218.75,0.25,95,103.0
2203,E1,218.75,0.25,95,103.0
2204,E2,218.75,0.25,95,103.0
2205,C2,218.75,0.25,95,103.0
2206,F#2,219.0,0.25,95,103.0
2207,F#1,219.0,0.25,95,103.0
2208,F#3,219.0,0.25,95,103.0
2209,D2,219.0,0.25,95,103.0
2210,C2,219.0,0.25,95,103.0
2211,G#2,219.25,0.25,95,103.0
2212,G#1,219.25,0.25,95,103.0
2213,F#3,219.25,0.25,95,103.0
2214,D2,219.25,0.25,95,103.0
2215,C2,219.25,0.25,95,103.0
2216,F#2,219.75,0.25,47,103.0
2217,C2,219.75,0.125,95,103.0
2218,C2,219.875,0.125,95,103.0
2219,G#2,220.0,0.25,47,103.0
2220,F#3,220.0,0.5,95,103.0
2221,D2,220.0,0.5,95,103.0
2222,C2,220.0,0.5,95,103.0
2223,F#2,220.5,0.25,31,103.0
2224,F#3,220.5,0.5,95,103.0
2225,D2,220.5,0.5,95,103.0
2226,C2,220.5,0.5,95,103.0
2227,G#2,220.75,0.25,31,103.0
2228,F#2,221.25,0.25,15,103.0
2229,D2,221.25,0.25,95,103.0
2230,C2,221.25,0.25,95,103.0
2231,G#2,221.5,0.25,15,103.0
2232,D2,221.5,0.25,95,103.0
2233,C2,221.5,0.25,95,103.0
2234,D2,221.75,0.25,95,103.0
2235,C2,221.75,0.25,95,103.0
2236,F#2,222.0,0.25,95,103.0
2237,F#1,222.0,0.25,95,103.0
2238,F#3,222.0,0.25,95,103.0
2239,D2,222.0,0.25,95,103.0
2240,C2,222.0,0.25,95,103.0
2241,G#2,222.25,0.25,95,103.0
2242,G#1,222.25,0.25,95,103.0
2243,F#3,222.25,0.25,95,103.0
2244,D2,222.25,0.25,95,103.0
2245,C2,222.25,0.25,95,103.0
2246,F#2,222.75,0.5,47,103.0
2247,C2,222.75,0.125,95,103.0
2248,C2,222.875,0.125,95,103.0
2249,E2,223.0,0.25,95,103.0
2250,E1,223.0,0.25,95,103.0
2251,G#2,223.0,0.25,95,103.0
2252,G2,223.0,0.25,95,103.0
2253,C2,223.0,0.25,95,103.0
2254,F#2,223.25,0.25,95,103.0
2255,G#2,223.25,0.25,47,103.0
2256,F#1,223.25,0.25,95,103.0
2257,G#2,223.25,0.25,95,103.0
2258,G2,223.25,0.25,95,103.0
2259,C2,223.25,0.25,95,103.0
2260,E2,223.75,0.25,47,103.0
2261,E3,224.0,0.25,95,103.0
2262,F#2,224.0,0.25,47,103.0
2263,E2,224.0,0.25,95,103.0
2264,D2,224.0,0.25,95,103.0
2265,C2,224.0,0.25,95,103.0
2266,E-3,224.25,0.25,95,103.0
2267,E-2,224.25,0.25,95,103.0
2268,D2,224.25,0.25,95,103.0
2269,C2,224.25,0.25,95,103.0
2270,C#3,224.5,0.25,95,103.0
2271,C#2,224.5,0.25,95,103.0
2272,D2,224.5,0.25,95,103.0
2273,C2,224.5,0.25,95,103.0
2274,C2,224.75,0.75,95,103.0
2275,G3,224.75,0.25,63,103.0
2276,G4,224.75,0.25,63,103.0
2277,D2,224.75,0.25,95,103.0
2278,C2,224.75,0.25,95,103.0
2279,F#2,225.5,0.25,95,103.0
2280,F#1,225.5,0.25,95,103.0
2281,F#3,225.5,0.25,95,103.0
2282,D2,225.5,0.25,95,103.0
2283,C2,225.5,0.25,95,103.0
2284,G#2,225.75,0.25,95,103.0
2285,G#1,225.75,0.25,95,103.0
2286,F#3,225.75,0.25,95,103.0
2287,D2,225.75,0.25,95,103.0
2288,C2,225.75,0.25,95,103.0
2289,F#2,226.25,0.25,47,103.0
2290,G#2,226.5,0.25,47,103.0
2291,F#3,226.5,0.25,47,103.0
2292,F#3,226.75,0.25,47,103.0
2293,F#2,227.0,0.25,31,103.0
2294,F#3,227.0,0.25,47,103.0
2295,G#2,227.25,0.25,31,103.0
2296,F#3,227.25,0.25,47,103.0
2297,F#3,227.5,0.25,47,103.0
2298,F#2,227.75,0.25,15,103.0
2299,F#3,227.75,0.25,47,103.0
2300,G#2,228.0,0.25,15,103.0
2301,F#3,228.0,0.25,47,103.0
2302,F#3,228.25,0.25,47,103.0
2303,F#2,228.5,0.25,95,103.0
2304,F#1,228.5,0.25,95,103.0
2305,F#3,228.5,0.25,95,103.0
2306,D2,228.5,0.25,95,103.0
2307,C2,228.5,0.25,95,103.0
2308,G#2,228.75,0.25,95,103.0
2309,G#1,228.75,0.25,95,103.0
2310,F#3,228.75,0.25,95,103.0
2311,D2,228.75,0.25,95,103.0
2312,C2,228.75,0.25,95,103.0
2313,F#2,229.25,0.5,47,103.0
2314,E2,229.5,0.25,95,103.0
2315,E1,229.5,0.25,95,103.0
2316,F#3,229.5,0.25,95,103.0
2317,D2,229.5,0.25,95,103.0
2318,C2,229.5,0.25,95,103.0
2319,F#2,229.75,0.25,95,103.0
2320,G#2,229.75,0.25,47,103.0
2321,F#1,229.75,0.25,95,103.0
2322,F#3,229.75,0.25,95,103.0
2323,D2,229.75,0.25,95,103.0
2324,C2,229.75,0.25,95,103.0
2325,E2,230.25,0.25,95,103.0
2326,E2,230.25,0.25,47,103.0
2327,E1,230.25,0.25,95,103.0
2328,F#2,230.5,0.25,95,103.0
2329,F#2,230.5,0.25,47,103.0
2330,F#1,230.5,0.25,95,103.0
2331,G#5,230.5,0.25,95,103.0
2332,G#4,230.5,0.25,95,103.0
2333,E-4,230.5,0.25,95,103.0
2334,F#3,230.5,0.25,95,103.0
2335,E2,230.5,0.25,95,103.0
2336,C2,230.5,0.25,95,103.0
2337,G#2,230.75,0.25,95,103.0
2338,G#1,230.75,0.25,95,103.0
2339,G#5,230.75,0.25,95,103.0
2340,G#4,230.75,0.25,95,103.0
2341,E-4,230.75,0.25,95,103.0
2342,F#3,230.75,0.25,95,103.0
2343,E2,230.75,0.25,95,103.0
2344,C2,230.75,0.25,95,103.0
2345,B-2,231.0,0.25,95,103.0
2346,B-1,231.0,0.25,95,103.0
2347,G#5,231.0,0.25,95,103.0
2348,G#4,231.0,0.25,95,103.0
2349,E-4,231.0,0.25,95,103.0
2350,F#3,231.0,0.25,95,103.0
2351,E2,231.0,0.25,95,103.0
2352,C2,231.0,0.25,95,103.0
2353,C3,231.25,0.5,95,103.0
2354,C2,231.25,0.5,95,103.0
2355,G#5,231.25,0.25,95,103.0
2356,G#4,231.25,0.25,95,103.0
2357,E-4,231.25,0.25,95,103.0
2358,F#3,231.25,0.25,95,103.0
2359,E2,231.25,0.25,95,103.0
2360,C2,231.25,0.25,95,103.0
2361,G#5,231.5,0.25,95,103.0
2362,G#4,231.5,0.25,95,103.0
2363,E-4,231.5,0.25,95,103.0
2364,B-2,231.75,0.25,95,103.0
2365,B-1,231.75,0.25,95,103.0
2366,G#5,231.75,0.25,95,103.0
2367,G#4,231.75,0.25,95,103.0
2368,E-4,231.75,0.25,95,103.0
2369,F#3,231.75,0.25,95,103.0
2370,E2,231.75,0.25,95,103.0
2371,C2,231.75,0.25,95,103.0
2372,G#2,232.0,0.25,95,103.0
2373,G#1,232.0,0.25,95,103.0
2374,G#5,232.0,0.25,95,103.0
2375,G#4,232.0,0.25,95,103.0
2376,E-4,232.0,0.25,95,103.0
2377,F#3,232.0,0.25,95,103.0
2378,E2,232.0,0.25,95,103.0
2379,C2,232.0,0.25,95,103.0
2380,F#2,232.25,0.25,95,103.0
2381,F#1,232.25,0.25,95,103.0
2382,G#5,232.25,0.25,95,103.0
2383,G#4,232.25,0.25,95,103.0
2384,E-4,232.25,0.25,95,103.0
2385,F#3,232.25,0.25,95,103.0
2386,E2,232.25,0.25,95,103.0
2387,C2,232.25,0.25,95,103.0
2388,E2,232.5,0.75,95,103.0
2389,E1,232.5,0.75,95,103.0
2390,G#5,232.5,0.25,95,103.0
2391,G#4,232.5,0.25,95,103.0
2392,E-4,232.5,0.25,95,103.0
2393,F#3,232.5,0.25,95,103.0
2394,E2,232.5,0.25,95,103.0
2395,C2,232.5,0.25,95,103.0
2396,G#5,232.75,0.25,95,103.0
2397,G#4,232.75,0.25,95,103.0
2398,E-4,232.75,0.25,95,103.0
2399,G#5,233.0,0.25,95,103.0
2400,G#4,233.0,0.25,95,103.0
2401,E-4,233.0,0.25,95,103.0
2402,E2,233.25,0.25,95,103.0
2403,E1,233.25,0.25,95,103.0
2404,G#5,233.25,0.25,95,103.0
2405,G#4,233.25,0.25,95,103.0
2406,E-4,233.25,0.25,95,103.0
2407,F#2,233.5,0.25,95,103.0
2408,F#1,233.5,0.25,95,103.0
2409,G#5,233.5,0.25,95,103.0
2410,G#4,233.5,0.25,95,103.0
2411,E-4,233.5,0.25,95,103.0
2412,F#3,233.5,0.25,95,103.0
2413,D2,233.5,0.25,95,103.0
2414,C2,233.5,0.25,95,103.0
2415,G#2,233.75,0.25,95,103.0
2416,G#1,233.75,0.25,95,103.0
2417,G#5,233.75,0.25,95,103.0
2418,G#4,233.75,0.25,95,103.0
2419,E-4,233.75,0.25,95,103.0
2420,F#3,233.75,0.25,95,103.0
2421,D2,233.75,0.25,95,103.0
2422,C2,233.75,0.25,95,103.0
2423,G#5,234.0,0.25,95,103.0
2424,G#4,234.0,0.25,95,103.0
2425,E-4,234.0,0.25,95,103.0
2426,F#2,234.25,0.25,47,103.0
2427,G#5,234.25,0.25,95,103.0
2428,G#4,234.25,0.25,95,103.0
2429,E-4,234.25,0.25,95,103.0
2430,G#2,234.5,0.25,47,103.0
2431,F#3,234.5,0.25,47,103.0
2432,G#5,234.5,0.25,95,103.0
2433,G#4,234.5,0.25,95,103.0
2434,E-4,234.5,0.25,95,103.0
2435,F#3,234.75,0.25,47,103.0
2436,G#5,234.75,0.25,95,103.0
2437,G#4,234.75,0.25,95,103.0
2438,E-4,234.75,0.25,95,103.0
2439,F#2,235.0,0.25,31,103.0
2440,F#3,235.0,0.25,47,103.0
2441,G#5,235.0,0.25,95,103.0
2442,G#4,235.0,0.25,95,103.0
2443,E-4,235.0,0.25,95,103.0
2444,G#2,235.25,0.25,31,103.0
2445,F#3,235.25,0.25,47,103.0
2446,G#5,235.25,0.25,95,103.0
2447,G#4,235.25,0.25,95,103.0
2448,E-4,235.25,0.25,95,103.0
2449,F#3,235.5,0.25,47,103.0
2450,G#5,235.5,0.25,95,103.0
2451,G#4,235.5,0.25,95,103.0
2452,E-4,235.5,0.25,95,103.0
2453,F#2,235.75,0.25,15,103.0
2454,F#3,235.75,0.25,47,103.0
2455,G#5,235.75,0.25,95,103.0
2456,G#4,235.75,0.25,95,103.0
2457,E-4,235.75,0.25,95,103.0
2458,G#2,236.0,0.25,15,103.0
2459,F#3,236.0,0.25,47,103.0
2460,G#5,236.0,0.25,95,103.0
2461,G#4,236.0,0.25,95,103.0
2462,E-4,236.0,0.25,95,103.0
2463,F#3,236.25,0.25,47,103.0
2464,G#5,236.25,0.25,95,103.0
2465,G#4,236.25,0.25,95,103.0
2466,E-4,236.25,0.25,95,103.0
2467,F#2,236.5,0.25,95,103.0
2468,F#1,236.5,0.25,95,103.0
2469,G#5,236.5,0.25,95,103.0
2470,G#4,236.5,0.25,95,103.0
2471,E-4,236.5,0.25,95,103.0
2472,F#3,236.5,0.25,95,103.0
2473,D2,236.5,0.25,95,103.0
2474,C2,236.5,0.25,95,103.0
2475,G#2,236.75,0.25,95,103.0
2476,G#1,236.75,0.25,95,103.0
2477,G#5,236.75,0.25,95,103.0
2478,G#4,236.75,0.25,95,103.0
2479,E-4,236.75,0.25,95,103.0
2480,F#3,236.75,0.25,95,103.0
2481,D2,236.75,0.25,95,103.0
2482,C2,236.75,0.25,95,103.0
2483,G#5,237.0,0.25,95,103.0
2484,G#4,237.0,0.25,95,103.0
2485,E-4,237.0,0.25,95,103.0
2486,F#2,237.25,0.5,47,103.0
2487,G#5,237.25,0.25,95,103.0
2488,G#4,237.25,0.25,95,103.0
2489,E-4,237.25,0.25,95,103.0
2490,E2,237.5,0.25,95,103.0
2491,E1,237.5,0.25,95,103.0
2492,F#3,237.5,0.25,95,103.0
2493,D2,237.5,0.25,95,103.0
2494,C2,237.5,0.25,95,103.0
2495,F#2,237.75,0.25,95,103.0
2496,G#2,237.75,0.25,47,103.0
2497,F#1,237.75,0.25,95,103.0
2498,F#3,237.75,0.25,95,103.0
2499,D2,237.75,0.25,95,103.0
2500,C2,237.75,0.25,95,103.0
2501,E2,238.25,0.25,47,103.0
2502,E3,238.5,0.25,95,103.0
2503,F#2,238.5,0.25,47,103.0
2504,E2,238.5,0.25,95,103.0
2505,F#5,238.5,0.25,95,103.0
2506,F#4,238.5,0.25,95,103.0
2507,C#4,238.5,0.25,95,103.0
2508,F#3,238.5,0.25,95,103.0
2509,E2,238.5,0.25,95,103.0
2510,C2,238.5,0.25,95,103.0
2511,E-3,238.75,0.25,95,103.0
2512,E-2,238.75,0.25,95,103.0
2513,F#5,238.75,0.25,95,103.0
2514,F#4,238.75,0.25,95,103.0
2515,C#4,238.75,0.25,95,103.0
2516,F#3,238.75,0.25,95,103.0
2517,E2,238.75,0.25,95,103.0
2518,C2,238.75,0.25,95,103.0
2519,C#3,239.0,0.25,95,103.0
2520,C#2,239.0,0.25,95,103.0
2521,F#5,239.0,0.25,95,103.0
2522,F#4,239.0,0.25,95,103.0
2523,C#4,239.0,0.25,95,103.0
2524,F#3,239.0,0.25,95,103.0
2525,E2,239.0,0.25,95,103.0
2526,C2,239.0,0.25,95,103.0
2527,C3,239.25,0.75,95,103.0
2528,C2,239.25,0.75,95,103.0
2529,F#5,239.25,0.25,95,103.0
2530,F#4,239.25,0.25,95,103.0
2531,C#4,239.25,0.25,95,103.0
2532,F#3,239.25,0.25,95,103.0
2533,E2,239.25,0.25,95,103.0
2534,C2,239.25,0.25,95,103.0
2535,F#5,239.5,0.25,95,103.0
2536,F#4,239.5,0.25,95,103.0
2537,C#4,239.5,0.25,95,103.0
2538,F#5,239.75,0.25,95,103.0
2539,F#4,239.75,0.25,95,103.0
2540,C#4,239.75,0.25,95,103.0
2541,F#2,240.0,0.25,95,103.0
2542,F#1,240.0,0.25,95,103.0
2543,F#5,240.0,0.25,95,103.0
2544,F#4,240.0,0.25,95,103.0
2545,C#4,240.0,0.25,95,103.0
2546,F#3,240.0,0.25,95,103.0
2547,D2,240.0,0.25,95,103.0
2548,C2,240.0,0.25,95,103.0
2549,G#2,240.25,0.25,95,103.0
2550,G#1,240.25,0.25,95,103.0
2551,F#5,240.25,0.25,95,103.0
2552,F#4,240.25,0.25,95,103.0
2553,C#4,240.25,0.25,95,103.0
2554,F#3,240.25,0.25,95,103.0
2555,D2,240.25,0.25,95,103.0
2556,C2,240.25,0.25,95,103.0
2557,F#5,240.5,0.25,95,103.0
2558,F#4,240.5,0.25,95,103.0
2559,C#4,240.5,0.25,95,103.0
2560,F#2,240.75,0.25,47,103.0
2561,F#5,240.75,0.25,95,103.0
2562,F#4,240.75,0.25,95,103.0
2563,C#4,240.75,0.25,95,103.0
2564,G#2,241.0,0.25,47,103.0
2565,F#3,241.0,0.25,47,103.0
2566,F#5,241.0,0.25,95,103.0
2567,F#4,241.0,0.25,95,103.0
2568,C#4,241.0,0.25,95,103.0
2569,F#3,241.25,0.25,47,103.0
2570,F#5,241.25,0.25,95,103.0
2571,F#4,241.25,0.25,95,103.0
2572,C#4,241.25,0.25,95,103.0
2573,F#2,241.5,0.25,31,103.0
2574,F#3,241.5,0.25,47,103.0
2575,F#5,241.5,0.25,95,103.0
2576,F#4,241.5,0.25,95,103.0
2577,C#4,241.5,0.25,95,103.0
2578,G#2,241.75,0.25,31,103.0
2579,F#3,241.75,0.25,47,103.0
2580,F#5,241.75,0.25,95,103.0
2581,F#4,241.75,0.25,95,103.0
2582,C#4,241.75,0.25,95,103.0
2583,F#3,242.0,0.25,47,103.0
2584,F#5,242.0,0.25,95,103.0
2585,F#4,242.0,0.25,95,103.0
2586,C#4,242.0,0.25,95,103.0
2587,F#2,242.25,0.25,15,103.0
2588,F#3,242.25,0.25,47,103.0
2589,F#5,242.25,0.25,95,103.0
2590,F#4,242.25,0.25,95,103.0
2591,C#4,242.25,0.25,95,103.0
2592,G#2,242.5,0.25,15,103.0
2593,F#3,242.5,0.25,47,103.0
2594,F#5,242.5,0.25,95,103.0
2595,F#4,242.5,0.25,95,103.0
2596,C#4,242.5,0.25,95,103.0
2597,F#3,242.75,0.25,47,103.0
2598,F#5,242.75,0.25,95,103.0
2599,F#4,242.75,0.25,95,103.0
2600,C#4,242.75,0.25,95,103.0
2601,F#2,243.0,0.25,95,103.0
2602,F#1,243.0,0.25,95,103.0
2603,F#5,243.0,0.25,95,103.0
2604,F#4,243.0,0.25,95,103.0
2605,C#4,243.0,0.25,95,103.0
2606,F#3,243.0,0.25,95,103.0
2607,D2,243.0,0.25,95,103.0
2608,C2,243.0,0.25,95,103.0
2609,G#2,243.25,0.25,95,103.0
2610,G#1,243.25,0.25,95,103.0
2611,F#5,243.25,0.25,95,103.0
2612,F#4,243.25,0.25,95,103.0
2613,C#4,243.25,0.25,95,103.0
2614,F#3,243.25,0.25,95,103.0
2615,D2,243.25,0.25,95,103.0
2616,C2,243.25,0.25,95,103.0
2617,F#5,243.5,0.25,95,103.0
2618,F#4,243.5,0.25,95,103.0
2619,C#4,243.5,0.25,95,103.0
2620,F#2,243.75,0.5,47,103.0
2621,F#5,243.75,0.25,95,103.0
2622,F#4,243.75,0.25,95,103.0
2623,C#4,243.75,0.25,95,103.0
2624,E2,244.0,0.25,95,103.0
2625,E1,244.0,0.25,95,103.0
2626,F#3,244.0,0.25,95,103.0
2627,D2,244.0,0.25,95,103.0
2628,C2,244.0,0.25,95,103.0
2629,F#2,244.25,0.25,95,103.0
2630,G#2,244.25,0.25,47,103.0
2631,F#1,244.25,0.25,95,103.0
2632,F#3,244.25,0.25,95,103.0
2633,D2,244.25,0.25,95,103.0
2634,C2,244.25,0.25,95,103.0
2635,E2,244.75,0.25,95,103.0
2636,E2,244.75,0.25,47,103.0
2637,E1,244.75,0.25,95,103.0
2638,F#2,245.0,0.25,95,103.0
2639,F#2,245.0,0.25,47,103.0
2640,F#1,245.0,0.25,95,103.0
2641,E5,245.0,0.25,95,103.0
2642,E4,245.0,0.25,95,103.0
2643,B3,245.0,0.25,95,103.0
2644,F#3,245.0,0.25,95,103.0
2645,E2,245.0,0.25,95,103.0
2646,C2,245.0,0.25,95,103.0
2647,G#2,245.25,0.25,95,103.0
2648,G#1,245.25,0.25,95,103.0
2649,E5,245.25,0.25,95,103.0
2650,E4,245.25,0.25,95,103.0
2651,B3,245.25,0.25,95,103.0
2652,F#3,245.25,0.25,95,103.0
2653,E2,245.25,0.25,95,103.0
2654,C2,245.25,0.25,95,103.0
2655,B-2,245.5,0.25,95,103.0
2656,B-1,245.5,0.25,95,103.0
2657,E5,245.5,0.25,95,103.0
2658,E4,245.5,0.25,95,103.0
2659,B3,245.5,0.25,95,103.0
2660,F#3,245.5,0.25,95,103.0
2661,E2,245.5,0.25,95,103.0
2662,C2,245.5,0.25,95,103.0
2663,C3,245.75,0.5,95,103.0
2664,C2,245.75,0.5,95,103.0
2665,E5,245.75,0.25,95,103.0
2666,E4,245.75,0.25,95,103.0
2667,B3,245.75,0.25,95,103.0
2668,F#3,245.75,0.25,95,103.0
2669,E2,245.75,0.25,95,103.0
2670,C2,245.75,0.25,95,103.0
2671,E5,246.0,0.25,95,103.0
2672,E4,246.0,0.25,95,103.0
2673,B3,246.0,0.25,95,103.0
2674,B-2,246.25,0.25,95,103.0
2675,B-1,246.25,0.25,95,103.0
2676,E5,246.25,0.25,95,103.0
2677,E4,246.25,0.25,95,103.0
2678,B3,246.25,0.25,95,103.0
2679,F#3,246.25,0.25,95,103.0
2680,E2,246.25,0.25,95,103.0
2681,C2,246.25,0.25,95,103.0
2682,G#2,246.5,0.25,95,103.0
2683,G#1,246.5,0.25,95,103.0
2684,E5,246.5,0.25,95,103.0
2685,E4,246.5,0.25,95,103.0
2686,B3,246.5,0.25,95,103.0
2687,F#3,246.5,0.25,95,103.0
2688,E2,246.5,0.25,95,103.0
2689,C2,246.5,0.25,95,103.0
2690,F#2,246.75,0.25,95,103.0
2691,F#1,246.75,0.25,95,103.0
2692,E5,246.75,0.25,95,103.0
2693,E4,246.75,0.25,95,103.0
2694,B3,246.75,0.25,95,103.0
2695,F#3,246.75,0.25,95,103.0
2696,E2,246.75,0.25,95,103.0
2697,C2,246.75,0.25,95,103.0
2698,E2,247.0,0.5,95,103.0
2699,E1,247.0,0.75,95,103.0
2700,E5,247.0,0.25,95,103.0
2701,E4,247.0,0.25,95,103.0
2702,B3,247.0,0.25,95,103.0
2703,F#3,247.0,0.25,95,103.0
2704,E2,247.0,0.25,95,103.0
2705,C2,247.0,0.25,95,103.0
2706,E5,247.25,0.25,95,103.0
2707,E4,247.25,0.25,95,103.0
2708,B3,247.25,0.25,95,103.0
2709,E5,247.5,0.25,95,103.0
2710,E4,247.5,0.25,95,103.0
2711,B3,247.5,0.25,95,103.0
2712,E3,247.75,0.25,47,103.0
2713,E1,247.75,0.25,95,103.0
2714,E5,247.75,0.25,95,103.0
2715,E4,247.75,0.25,95,103.0
2716,B3,247.75,0.25,95,103.0
2717,F#2,248.0,0.25,95,103.0
2718,F#1,248.0,0.25,95,103.0
2719,E5,248.0,0.25,95,103.0
2720,E4,248.0,0.25,95,103.0
2721,B3,248.0,0.25,95,103.0
2722,F#3,248.0,0.25,95,103.0
2723,D2,248.0,0.25,95,103.0
2724,C2,248.0,0.25,95,103.0
2725,G#2,248.25,0.25,95,103.0
2726,G#1,248.25,0.25,95,103.0
2727,E5,248.25,0.25,95,103.0
2728,E4,248.25,0.25,95,103.0
2729,B3,248.25,0.25,95,103.0
2730,F#3,248.25,0.25,95,103.0
2731,D2,248.25,0.25,95,103.0
2732,C2,248.25,0.25,95,103.0
2733,E5,248.5,0.25,95,103.0
2734,E4,248.5,0.25,95,103.0
2735,B3,248.5,0.25,95,103.0
2736,F#2,248.75,0.25,47,103.0
2737,E5,248.75,0.25,95,103.0
2738,E4,248.75,0.25,95,103.0
2739,B3,248.75,0.25,95,103.0
2740,G#2,249.0,0.25,47,103.0
2741,F#3,249.0,0.25,47,103.0
2742,E5,249.0,0.25,95,103.0
2743,E4,249.0,0.25,95,103.0
2744,B3,249.0,0.25,95,103.0
2745,F#3,249.25,0.25,47,103.0
2746,E5,249.25,0.25,95,103.0
2747,E4,249.25,0.25,95,103.0
2748,B3,249.25,0.25,95,103.0
2749,F#2,249.5,0.25,31,103.0
2750,F#3,249.5,0.25,47,103.0
2751,E5,249.5,0.25,95,103.0
2752,E4,249.5,0.25,95,103.0
2753,B3,249.5,0.25,95,103.0
2754,G#2,249.75,0.25,31,103.0
2755,F#3,249.75,0.25,47,103.0
2756,E5,249.75,0.25,95,103.0
2757,E4,249.75,0.25,95,103.0
2758,B3,249.75,0.25,95,103.0
2759,F#3,250.0,0.25,47,103.0
2760,E5,250.0,0.25,95,103.0
2761,E4,250.0,0.25,95,103.0
2762,B3,250.0,0.25,95,103.0
2763,F#2,250.25,0.25,15,103.0
2764,F#3,250.25,0.25,47,103.0
2765,E5,250.25,0.25,95,103.0
2766,E4,250.25,0.25,95,103.0
2767,B3,250.25,0.25,95,103.0
2768,G#2,250.5,0.25,15,103.0
2769,F#3,250.5,0.25,47,103.0
2770,E5,250.5,0.25,95,103.0
2771,E4,250.5,0.25,95,103.0
2772,B3,250.5,0.25,95,103.0
2773,F#3,250.75,0.25,47,103.0
2774,E5,250.75,0.25,95,103.0
2775,E4,250.75,0.25,95,103.0
2776,B3,250.75,0.25,95,103.0
2777,F#2,251.0,0.25,95,103.0
2778,F#1,251.0,0.25,95,103.0
2779,E5,251.0,0.25,95,103.0
2780,E4,251.0,0.25,95,103.0
2781,B3,251.0,0.25,95,103.0
2782,F#3,251.0,0.25,95,103.0
2783,D2,251.0,0.25,95,103.0
2784,C2,251.0,0.25,95,103.0
2785,G#2,251.25,0.25,95,103.0
2786,G#1,251.25,0.25,95,103.0
2787,E5,251.25,0.25,95,103.0
2788,E4,251.25,0.25,95,103.0
2789,B3,251.25,0.25,95,103.0
2790,F#3,251.25,0.25,95,103.0
2791,D2,251.25,0.25,95,103.0
2792,C2,251.25,0.25,95,103.0
2793,E5,251.5,0.25,95,103.0
2794,E4,251.5,0.25,95,103.0
2795,B3,251.5,0.25,95,103.0
2796,F#2,251.75,0.5,47,103.0
2797,E5,251.75,0.25,95,103.0
2798,E4,251.75,0.25,95,103.0
2799,B3,251.75,0.25,95,103.0
2800,E2,252.0,0.25,95,103.0
2801,E1,252.0,0.25,95,103.0
2802,F#3,252.0,0.25,95,103.0
2803,D2,252.0,0.25,95,103.0
2804,C2,252.0,0.25,95,103.0
2805,F#2,252.25,0.25,95,103.0
2806,G#2,252.25,0.25,47,103.0
2807,F#1,252.25,0.25,95,103.0
2808,F#3,252.25,0.25,95,103.0
2809,D2,252.25,0.25,95,103.0
2810,C2,252.25,0.25,95,103.0
2811,E2,252.75,0.25,47,103.0
2812,E3,253.0,0.25,95,103.0
2813,F#2,253.0,0.25,47,103.0
2814,E2,253.0,0.25,95,103.0
2815,F#5,253.0,0.25,95,103.0
2816,F#4,253.0,0.25,95,103.0
2817,C#4,253.0,0.25,95,103.0
2818,F#3,253.0,0.25,95,103.0
2819,E2,253.0,0.25,95,103.0
2820,C2,253.0,0.25,95,103.0
2821,E-3,253.25,0.25,95,103.0
2822,E-2,253.25,0.25,95,103.0
2823,F#5,253.25,0.25,95,103.0
2824,F#4,253.25,0.25,95,103.0
2825,C#4,253.25,0.25,95,103.0
2826,F#3,253.25,0.25,95,103.0
2827,E2,253.25,0.25,95,103.0
2828,C2,253.25,0.25,95,103.0
2829,C#3,253.5,0.25,95,103.0
2830,C#2,253.5,0.25,95,103.0
2831,F#5,253.5,0.25,95,103.0
2832,F#4,253.5,0.25,95,103.0
2833,C#4,253.5,0.25,95,103.0
2834,F#3,253.5,0.25,95,103.0
2835,E2,253.5,0.25,95,103.0
2836,C2,253.5,0.25,95,103.0
2837,C3,253.75,0.75,95,103.0
2838,C2,253.75,0.75,95,103.0
2839,F#5,253.75,0.25,95,103.0
2840,F#4,253.75,0.25,95,103.0
2841,C#4,253.75,0.25,95,103.0
2842,F#3,253.75,0.25,95,103.0
2843,E2,253.75,0.25,95,103.0
2844,C2,253.75,0.25,95,103.0
2845,F#5,254.0,0.25,95,103.0
2846,F#4,254.0,0.25,95,103.0
2847,C#4,254.0,0.25,95,103.0
2848,C#3,254.25,0.25,47,103.0
2849,F#5,254.25,0.25,95,103.0
2850,F#4,254.25,0.25,95,103.0
2851,C#4,254.25,0.25,95,103.0
2852,C3,254.5,0.625,47,103.0
2853,F#1,254.5,0.25,95,103.0
2854,F#5,254.5,0.25,95,103.0
2855,F#4,254.5,0.25,95,103.0
2856,C#4,254.5,0.25,95,103.0
2857,F#3,254.5,0.25,95,103.0
2858,D2,254.5,0.25,95,103.0
2859,C2,254.5,0.25,95,103.0
2860,G#1,254.75,0.25,95,103.0
2861,F#5,254.75,0.25,95,103.0
2862,F#4,254.75,0.25,95,103.0
2863,C#4,254.75,0.25,95,103.0
2864,F#3,254.75,0.25,95,103.0
2865,D2,254.75,0.25,95,103.0
2866,C2,254.75,0.25,95,103.0
2867,F#5,255.0,0.25,95,103.0
2868,F#4,255.0,0.25,95,103.0
2869,C#4,255.0,0.25,95,103.0
2870,C#3,255.125,0.25,31,103.0
2871,F#5,255.25,0.25,95,103.0
2872,F#4,255.25,0.25,95,103.0
2873,C#4,255.25,0.25,95,103.0
2874,C3,255.375,0.25,31,103.0
2875,G#3,255.5,0.125,79,103.0
2876,F#3,255.5,0.25,47,103.0
2877,F#5,255.5,0.25,95,103.0
2878,F#4,255.5,0.25,95,103.0
2879,C#4,255.5,0.25,95,103.0
2880,G#3,255.625,0.125,79,103.0
2881,G#3,255.75,0.125,79,103.0
2882,F#3,255.75,0.25,47,103.0
2883,F#5,255.75,0.25,95,103.0
2884,F#4,255.75,0.25,95,103.0
2885,C#4,255.75,0.25,95,103.0
2886,G#3,255.875,0.125,79,103.0
2887,G#3,256.0,0.125,79,103.0
2888,F#3,256.0,0.25,47,103.0
2889,F#5,256.0,0.25,95,103.0
2890,F#4,256.0,0.25,95,103.0
2891,C#4,256.0,0.25,95,103.0
2892,G#3,256.125,0.125,79,103.0
2893,G#3,256.25,0.125,79,103.0
2894,F#3,256.25,0.25,47,103.0
2895,F#5,256.25,0.25,95,103.0
2896,F#4,256.25,0.25,95,103.0
2897,C#4,256.25,0.25,95,103.0
2898,G#3,256.375,31/250,79,103.0
2899,F#3,256.5,0.25,47,103.0
2900,F#5,256.5,0.25,95,103.0
2901,F#4,256.5,0.25,95,103.0
2902,C#4,256.5,0.25,95,103.0
2903,F#3,256.75,0.25,47,103.0
2904,F#5,256.75,0.25,95,103.0
2905,F#4,256.75,0.25,95,103.0
2906,C#4,256.75,0.25,95,103.0
2907,F#3,257.0,0.25,47,103.0
2908,F#5,257.0,0.25,95,103.0
2909,F#4,257.0,0.25,95,103.0
2910,C#4,257.0,0.25,95,103.0
2911,F#3,257.25,0.25,47,103.0
2912,F#5,257.25,0.25,95,103.0
2913,F#4,257.25,0.25,95,103.0
2914,C#4,257.25,0.25,95,103.0
2915,F#1,257.5,0.25,95,103.0
2916,F#5,257.5,0.25,95,103.0
2917,F#4,257.5,0.25,95,103.0
2918,C#4,257.5,0.25,95,103.0
2919,F#3,257.5,0.25,95,103.0
2920,D2,257.5,0.25,95,103.0
2921,C2,257.5,0.25,95,103.0
2922,G#3,257.75,0.25,47,103.0
2923,G#1,257.75,0.25,95,103.0
2924,F#5,257.75,0.25,95,103.0
2925,F#4,257.75,0.25,95,103.0
2926,C#4,257.75,0.25,95,103.0
2927,F#3,257.75,0.25,95,103.0
2928,D2,257.75,0.25,95,103.0
2929,C2,257.75,0.25,95,103.0
2930,F#5,258.0,0.25,95,103.0
2931,F#4,258.0,0.25,95,103.0
2932,C#4,258.0,0.25,95,103.0
2933,G#3,258.25,0.25,79,103.0
2934,F#5,258.25,0.25,95,103.0
2935,F#4,258.25,0.25,95,103.0
2936,C#4,258.25,0.25,95,103.0
2937,E1,258.5,0.25,95,103.0
2938,E-5,258.5,0.25,95,103.0
2939,E-4,258.5,0.25,95,103.0
2940,E-3,258.5,0.25,95,103.0
2941,F#3,258.5,0.25,95,103.0
2942,D2,258.5,0.25,95,103.0
2943,C2,258.5,0.25,95,103.0
2944,G#3,258.75,0.25,79,103.0
2945,F#1,258.75,0.25,95,103.0
2946,E-5,258.75,0.25,95,103.0
2947,E-4,258.75,0.25,95,103.0
2948,E-3,258.75,0.25,95,103.0
2949,F#3,258.75,0.25,95,103.0
2950,D2,258.75,0.25,95,103.0
2951,C2,258.75,0.25,95,103.0
2952,E-5,259.0,0.25,95,103.0
2953,E-4,259.0,0.25,95,103.0
2954,E-3,259.0,0.25,95,103.0
2955,G#3,259.25,0.25,79,103.0
2956,E1,259.25,0.25,95,103.0
2957,E-5,259.25,0.25,95,103.0
2958,E-4,259.25,0.25,95,103.0
2959,E-3,259.25,0.25,95,103.0
2960,F#3,259.5,0.5,95,103.0
2961,F#1,259.5,0.25,95,103.0
2962,E2,259.5,0.25,63,103.0
2963,E-5,259.5,0.25,95,103.0
2964,E-4,259.5,0.25,95,103.0
2965,E-3,259.5,0.25,95,103.0
2966,G#1,259.75,0.25,95,103.0
2967,E2,259.75,0.25,63,103.0
2968,E-5,259.75,0.25,95,103.0
2969,E-4,259.75,0.25,95,103.0
2970,E-3,259.75,0.25,95,103.0
2971,F#3,260.0,0.25,95,103.0
2972,B-1,260.0,0.25,95,103.0
2973,E2,260.0,0.25,63,103.0
2974,E-5,260.0,0.25,95,103.0
2975,E-4,260.0,0.25,95,103.0
2976,E-3,260.0,0.25,95,103.0
2977,F#3,260.25,0.25,95,103.0
2978,C2,260.25,0.5,95,103.0
2979,E-5,260.25,0.25,95,103.0
2980,E-4,260.25,0.25,95,103.0
2981,E-3,260.25,0.25,95,103.0
2982,F#3,260.25,0.25,71,103.0
2983,E2,260.25,0.25,71,103.0
2984,B-3,260.5,0.5,95,103.0
2985,E-5,260.5,0.25,95,103.0
2986,E-4,260.5,0.25,95,103.0
2987,E-3,260.5,0.25,95,103.0
2988,B-1,260.75,0.25,95,103.0
2989,E2,260.75,0.25,63,103.0
2990,E-5,260.75,0.25,95,103.0
2991,E-4,260.75,0.25,95,103.0
2992,E-3,260.75,0.25,95,103.0
2993,B-3,261.0,0.25,95,103.0
2994,G#1,261.0,0.25,95,103.0
2995,E2,261.0,0.25,63,103.0
2996,E-5,261.0,0.25,95,103.0
2997,E-4,261.0,0.25,95,103.0
2998,E-3,261.0,0.25,95,103.0
2999,B-3,261.25,0.25,95,103.0
3000,F#1,261.25,0.25,95,103.0
3001,E2,261.25,0.25,63,103.0
3002,E-5,261.25,0.25,95,103.0
3003,E-4,261.25,0.25,95,103.0
3004,E-3,261.25,0.25,95,103.0
3005,E3,261.5,1.0,95,103.0
3006,E1,261.5,0.75,95,103.0
3007,E-5,261.5,0.25,95,103.0
3008,E-4,261.5,0.25,95,103.0
3009,E-3,261.5,0.25,95,103.0
3010,F#3,261.5,0.25,71,103.0
3011,E2,261.5,0.25,71,103.0
3012,E-5,261.75,0.25,95,103.0
3013,E-4,261.75,0.25,95,103.0
3014,E-3,261.75,0.25,95,103.0
3015,E-5,262.0,0.25,95,103.0
3016,E-4,262.0,0.25,95,103.0
3017,E-3,262.0,0.25,95,103.0
3018,E1,262.25,0.25,95,103.0
3019,E-5,262.25,0.25,95,103.0
3020,E-4,262.25,0.25,95,103.0
3021,E-3,262.25,0.25,95,103.0
3022,F#3,262.5,2.0,95,103.0
3023,F#1,262.5,0.25,95,103.0
3024,E-5,262.5,0.25,95,103.0
3025,E-4,262.5,0.25,95,103.0
3026,E-3,262.5,0.25,95,103.0
3027,F#3,262.5,0.25,95,103.0
3028,D2,262.5,0.25,95,103.0
3029,C2,262.5,0.25,95,103.0
3030,G#1,262.75,0.25,95,103.0
3031,E-5,262.75,0.25,95,103.0
3032,E-4,262.75,0.25,95,103.0
3033,E-3,262.75,0.25,95,103.0
3034,F#3,262.75,0.25,95,103.0
3035,D2,262.75,0.25,95,103.0
3036,C2,262.75,0.25,95,103.0
3037,F#3,263.0,0.25,31,103.0
3038,E-5,263.0,0.25,95,103.0
3039,E-4,263.0,0.25,95,103.0
3040,E-3,263.0,0.25,95,103.0
3041,F#3,263.25,0.25,31,103.0
3042,E-5,263.25,0.25,95,103.0
3043,E-4,263.25,0.25,95,103.0
3044,E-3,263.25,0.25,95,103.0
3045,F#3,263.5,0.25,47,103.0
3046,E-5,263.5,0.25,95,103.0
3047,E-4,263.5,0.25,95,103.0
3048,E-3,263.5,0.25,95,103.0
3049,F#3,263.75,0.25,47,103.0
3050,E-5,263.75,0.25,95,103.0
3051,E-4,263.75,0.25,95,103.0
3052,E-3,263.75,0.25,95,103.0
3053,F#3,264.0,0.25,47,103.0
3054,E-5,264.0,0.25,95,103.0
3055,E-4,264.0,0.25,95,103.0
3056,E-3,264.0,0.25,95,103.0
3057,F#3,264.25,0.25,47,103.0
3058,E-5,264.25,0.25,95,103.0
3059,E-4,264.25,0.25,95,103.0
3060,E-3,264.25,0.25,95,103.0
3061,F#3,264.5,0.25,47,103.0
3062,E-5,264.5,0.25,95,103.0
3063,E-4,264.5,0.25,95,103.0
3064,E-3,264.5,0.25,95,103.0
3065,F#3,264.75,0.25,47,103.0
3066,E-5,264.75,0.25,95,103.0
3067,E-4,264.75,0.25,95,103.0
3068,E-3,264.75,0.25,95,103.0
3069,F#3,265.0,0.25,47,103.0
3070,E-5,265.0,0.25,95,103.0
3071,E-4,265.0,0.25,95,103.0
3072,E-3,265.0,0.25,95,103.0
3073,F#3,265.25,0.25,47,103.0
3074,E-5,265.25,0.25,95,103.0
3075,E-4,265.25,0.25,95,103.0
3076,E-3,265.25,0.25,95,103.0
3077,C3,265.5,0.75,95,103.0
3078,F#1,265.5,0.25,95,103.0
3079,E-5,265.5,0.25,95,103.0
3080,E-4,265.5,0.25,95,103.0
3081,E-3,265.5,0.25,95,103.0
3082,F#3,265.5,0.25,95,103.0
3083,D2,265.5,0.25,95,103.0
3084,C2,265.5,0.25,95,103.0
3085,G#1,265.75,0.25,95,103.0
3086,E-5,265.75,0.25,95,103.0
3087,E-4,265.75,0.25,95,103.0
3088,E-3,265.75,0.25,95,103.0
3089,F#3,265.75,0.25,95,103.0
3090,D2,265.75,0.25,95,103.0
3091,C2,265.75,0.25,95,103.0
3092,E-5,266.0,0.25,95,103.0
3093,E-4,266.0,0.25,95,103.0
3094,E-3,266.0,0.25,95,103.0
3095,E-5,266.25,0.25,95,103.0
3096,E-4,266.25,0.25,95,103.0
3097,E-3,266.25,0.25,95,103.0
3098,E1,266.5,0.25,95,103.0
3099,F#5,266.5,0.25,95,103.0
3100,F#4,266.5,0.25,95,103.0
3101,C#4,266.5,0.25,95,103.0
3102,F#3,266.5,0.25,95,103.0
3103,D2,266.5,0.25,95,103.0
3104,C2,266.5,0.25,95,103.0
3105,F#1,266.75,0.25,95,103.0
3106,F#5,266.75,0.25,95,103.0
3107,F#4,266.75,0.25,95,103.0
3108,C#4,266.75,0.25,95,103.0
3109,F#3,266.75,0.25,95,103.0
3110,D2,266.75,0.25,95,103.0
3111,C2,266.75,0.25,95,103.0
3112,F#5,267.0,0.25,95,103.0
3113,F#4,267.0,0.25,95,103.0
3114,C#4,267.0,0.25,95,103.0
3115,C#3,267.25,0.25,95,103.0
3116,F#5,267.25,0.25,95,103.0
3117,F#4,267.25,0.25,95,103.0
3118,C#4,267.25,0.25,95,103.0
3119,E2,267.5,0.25,95,103.0
3120,F#5,267.5,0.25,95,103.0
3121,F#4,267.5,0.25,95,103.0
3122,C#4,267.5,0.25,95,103.0
3123,F#3,267.5,0.25,63,103.0
3124,E2,267.5,0.25,63,103.0
3125,C2,267.5,0.25,63,103.0
3126,E-2,267.75,0.25,95,103.0
3127,F#5,267.75,0.25,95,103.0
3128,F#4,267.75,0.25,95,103.0
3129,C#4,267.75,0.25,95,103.0
3130,F#3,267.75,0.25,63,103.0
3131,E2,267.75,0.25,63,103.0
3132,C2,267.75,0.25,63,103.0
3133,C#2,268.0,0.25,95,103.0
3134,F#5,268.0,0.25,95,103.0
3135,F#4,268.0,0.25,95,103.0
3136,C#4,268.0,0.25,95,103.0
3137,F#3,268.0,0.25,63,103.0
3138,E2,268.0,0.25,63,103.0
3139,C2,268.0,0.25,63,103.0
3140,C2,268.25,0.75,95,103.0
3141,F#5,268.25,0.25,95,103.0
3142,F#4,268.25,0.25,95,103.0
3143,C#4,268.25,0.25,95,103.0
3144,F#3,268.25,0.25,63,103.0
3145,E2,268.25,0.25,63,103.0
3146,C2,268.25,0.25,63,103.0
3147,F#5,268.5,0.25,95,103.0
3148,F#4,268.5,0.25,95,103.0
3149,C#4,268.5,0.25,95,103.0
3150,F#5,268.75,0.25,95,103.0
3151,F#4,268.75,0.25,95,103.0
3152,C#4,268.75,0.25,95,103.0
3153,F#1,269.0,0.25,95,103.0
3154,F#5,269.0,0.25,95,103.0
3155,F#4,269.0,0.25,95,103.0
3156,C#4,269.0,0.25,95,103.0
3157,F#3,269.0,0.25,95,103.0
3158,D2,269.0,0.25,95,103.0
3159,C2,269.0,0.25,95,103.0
3160,G#1,269.25,0.25,95,103.0
3161,F#5,269.25,0.25,95,103.0
3162,F#4,269.25,0.25,95,103.0
3163,C#4,269.25,0.25,95,103.0
3164,F#3,269.25,0.25,95,103.0
3165,D2,269.25,0.25,95,103.0
3166,C2,269.25,0.25,95,103.0
3167,F#3,269.5,0.25,31,103.0
3168,F#5,269.5,0.25,95,103.0
3169,F#4,269.5,0.25,95,103.0
3170,C#4,269.5,0.25,95,103.0
3171,F#3,269.75,0.25,31,103.0
3172,F#5,269.75,0.25,95,103.0
3173,F#4,269.75,0.25,95,103.0
3174,C#4,269.75,0.25,95,103.0
3175,C3,270.0,0.5,95,103.0
3176,F#3,270.0,0.25,47,103.0
3177,F#5,270.0,0.25,95,103.0
3178,F#4,270.0,0.25,95,103.0
3179,C#4,270.0,0.25,95,103.0
3180,F#3,270.25,0.25,47,103.0
3181,F#5,270.25,0.25,95,103.0
3182,F#4,270.25,0.25,95,103.0
3183,C#4,270.25,0.25,95,103.0
3184,F#3,270.5,0.25,47,103.0
3185,F#5,270.5,0.25,95,103.0
3186,F#4,270.5,0.25,95,103.0
3187,C#4,270.5,0.25,95,103.0
3188,C4,270.75,1.25,95,103.0
3189,F#3,270.75,0.25,47,103.0
3190,F#5,270.75,0.25,95,103.0
3191,F#4,270.75,0.25,95,103.0
3192,C#4,270.75,0.25,95,103.0
3193,F#3,271.0,0.25,47,103.0
3194,F#5,271.0,0.25,95,103.0
3195,F#4,271.0,0.25,95,103.0
3196,C#4,271.0,0.25,95,103.0
3197,F#3,271.25,0.25,47,103.0
3198,F#5,271.25,0.25,95,103.0
3199,F#4,271.25,0.25,95,103.0
3200,C#4,271.25,0.25,95,103.0
3201,F#3,271.5,0.25,47,103.0
3202,F#5,271.5,0.25,95,103.0
3203,F#4,271.5,0.25,95,103.0
3204,C#4,271.5,0.25,95,103.0
3205,F#3,271.75,0.25,47,103.0
3206,F#5,271.75,0.25,95,103.0
3207,F#4,271.75,0.25,95,103.0
3208,C#4,271.75,0.25,95,103.0
3209,B-3,272.0,1.0,95,103.0
3210,F#1,272.0,0.25,95,103.0
3211,F#5,272.0,0.25,95,103.0
3212,F#4,272.0,0.25,95,103.0
3213,C#4,272.0,0.25,95,103.0
3214,F#3,272.0,0.25,95,103.0
3215,D2,272.0,0.25,95,103.0
3216,C2,272.0,0.25,95,103.0
3217,G#1,272.25,0.25,95,103.0
3218,F#5,272.25,0.25,95,103.0
3219,F#4,272.25,0.25,95,103.0
3220,C#4,272.25,0.25,95,103.0
3221,F#3,272.25,0.25,95,103.0
3222,D2,272.25,0.25,95,103.0
3223,C2,272.25,0.25,95,103.0
3224,F#5,272.5,0.25,95,103.0
3225,F#4,272.5,0.25,95,103.0
3226,C#4,272.5,0.25,95,103.0
3227,F#5,272.75,0.25,95,103.0
3228,F#4,272.75,0.25,95,103.0
3229,C#4,272.75,0.25,95,103.0
3230,E1,273.0,0.25,95,103.0
3231,E5,273.0,0.25,95,103.0
3232,E4,273.0,0.25,95,103.0
3233,B3,273.0,0.25,95,103.0
3234,F#3,273.0,0.25,95,103.0
3235,D2,273.0,0.25,95,103.0
3236,C2,273.0,0.25,95,103.0
3237,F#1,273.25,0.25,95,103.0
3238,E5,273.25,0.25,95,103.0
3239,E4,273.25,0.25,95,103.0
3240,B3,273.25,0.25,95,103.0
3241,F#3,273.25,0.25,95,103.0
3242,D2,273.25,0.25,95,103.0
3243,C2,273.25,0.25,95,103.0
3244,E5,273.5,0.25,95,103.0
3245,E4,273.5,0.25,95,103.0
3246,B3,273.5,0.25,95,103.0
3247,E3,273.75,53/500,95,103.0
3248,E1,273.75,0.25,95,103.0
3249,E5,273.75,0.25,95,103.0
3250,E4,273.75,0.25,95,103.0
3251,B3,273.75,0.25,95,103.0
3252,G#3,274.0,53/500,95,103.0
3253,F#1,274.0,0.25,95,103.0
3254,E2,274.0,0.25,63,103.0
3255,E5,274.0,0.25,95,103.0
3256,E4,274.0,0.25,95,103.0
3257,B3,274.0,0.25,95,103.0
3258,B-3,274.25,53/500,95,103.0
3259,G#1,274.25,0.25,95,103.0
3260,E2,274.25,0.25,63,103.0
3261,E5,274.25,0.25,95,103.0
3262,E4,274.25,0.25,95,103.0
3263,B3,274.25,0.25,95,103.0
3264,B3,274.5,1.25,95,103.0
3265,B-1,274.5,0.25,95,103.0
3266,E2,274.5,0.25,63,103.0
3267,E5,274.5,0.25,95,103.0
3268,E4,274.5,0.25,95,103.0
3269,B3,274.5,0.25,95,103.0
3270,C2,274.75,0.5,95,103.0
3271,E5,274.75,0.25,95,103.0
3272,E4,274.75,0.25,95,103.0
3273,B3,274.75,0.25,95,103.0
3274,F#3,274.75,0.25,71,103.0
3275,E2,274.75,0.25,71,103.0
3276,E5,275.0,0.25,95,103.0
3277,E4,275.0,0.25,95,103.0
3278,B3,275.0,0.25,95,103.0
3279,B-1,275.25,0.25,95,103.0
3280,E2,275.25,0.25,63,103.0
3281,E5,275.25,0.25,95,103.0
3282,E4,275.25,0.25,95,103.0
3283,B3,275.25,0.25,95,103.0
3284,G#1,275.5,0.25,95,103.0
3285,E2,275.5,0.25,63,103.0
3286,E5,275.5,0.25,95,103.0
3287,E4,275.5,0.25,95,103.0
3288,B3,275.5,0.25,95,103.0
3289,B-3,275.75,0.25,95,103.0
3290,F#1,275.75,0.25,95,103.0
3291,E2,275.75,0.25,63,103.0
3292,E5,275.75,0.25,95,103.0
3293,E4,275.75,0.25,95,103.0
3294,B3,275.75,0.25,95,103.0
3295,G#3,276.0,0.5,95,103.0
3296,E1,276.0,0.75,95,103.0
3297,E5,276.0,0.25,95,103.0
3298,E4,276.0,0.25,95,103.0
3299,B3,276.0,0.25,95,103.0
3300,F#3,276.0,0.25,71,103.0
3301,E2,276.0,0.25,71,103.0
3302,E5,276.25,0.25,95,103.0
3303,E4,276.25,0.25,95,103.0
3304,B3,276.25,0.25,95,103.0
3305,E3,276.5,0.375,95,103.0
3306,E5,276.5,0.25,95,103.0
3307,E4,276.5,0.25,95,103.0
3308,B3,276.5,0.25,95,103.0
3309,E1,276.75,0.25,95,103.0
3310,E5,276.75,0.25,95,103.0
3311,E4,276.75,0.25,95,103.0
3312,B3,276.75,0.25,95,103.0
3313,B-3,276.875,0.125,95,103.0
3314,F#1,277.0,0.25,95,103.0
3315,E5,277.0,0.25,95,103.0
3316,E4,277.0,0.25,95,103.0
3317,B3,277.0,0.25,95,103.0
3318,F#3,277.0,0.25,95,103.0
3319,D2,277.0,0.25,95,103.0
3320,C2,277.0,0.25,95,103.0
3321,G#3,277.125,0.75,95,103.0
3322,G#1,277.25,0.25,95,103.0
3323,E5,277.25,0.25,95,103.0
3324,E4,277.25,0.25,95,103.0
3325,B3,277.25,0.25,95,103.0
3326,F#3,277.25,0.25,95,103.0
3327,D2,277.25,0.25,95,103.0
3328,C2,277.25,0.25,95,103.0
3329,F#3,277.5,0.25,31,103.0
3330,E5,277.5,0.25,95,103.0
3331,E4,277.5,0.25,95,103.0
3332,B3,277.5,0.25,95,103.0
3333,F#3,277.75,0.25,31,103.0
3334,E5,277.75,0.25,95,103.0
3335,E4,277.75,0.25,95,103.0
3336,B3,277.75,0.25,95,103.0
3337,G#3,277.875,83/1000,95,103.0
3338,B-3,277.958,83/1000,70,103.0
3339,F#3,278.0,0.25,47,103.0
3340,E5,278.0,0.25,95,103.0
3341,E4,278.0,0.25,95,103.0
3342,B3,278.0,0.25,95,103.0
3343,C4,278.042,83/1000,70,103.0
3344,C#4,278.125,83/1000,95,103.0
3345,E-4,278.208,83/1000,70,103.0
3346,F#3,278.25,0.25,47,103.0
3347,E5,278.25,0.25,95,103.0
3348,E4,278.25,0.25,95,103.0
3349,B3,278.25,0.25,95,103.0
3350,E4,278.292,83/1000,70,103.0
3351,F#4,278.375,1.0,95,103.0
3352,F#3,278.5,0.25,47,103.0
3353,E5,278.5,0.25,95,103.0
3354,E4,278.5,0.25,95,103.0
3355,B3,278.5,0.25,95,103.0
3356,F#3,278.75,0.25,47,103.0
3357,E5,278.75,0.25,95,103.0
3358,E4,278.75,0.25,95,103.0
3359,B3,278.75,0.25,95,103.0
3360,F#3,279.0,0.25,47,103.0
3361,E5,279.0,0.25,95,103.0
3362,E4,279.0,0.25,95,103.0
3363,B3,279.0,0.25,95,103.0
3364,F#3,279.25,0.25,47,103.0
3365,E5,279.25,0.25,95,103.0
3366,E4,279.25,0.25,95,103.0
3367,B3,279.25,0.25,95,103.0
3368,F#3,279.5,0.25,47,103.0
3369,E5,279.5,0.25,95,103.0
3370,E4,279.5,0.25,95,103.0
3371,B3,279.5,0.25,95,103.0
3372,F#3,279.75,0.25,47,103.0
3373,E5,279.75,0.25,95,103.0
3374,E4,279.75,0.25,95,103.0
3375,B3,279.75,0.25,95,103.0
3376,F#1,280.0,0.25,95,103.0
3377,E5,280.0,0.25,95,103.0
3378,E4,280.0,0.25,95,103.0
3379,B3,280.0,0.25,95,103.0
3380,F#3,280.0,0.25,95,103.0
3381,D2,280.0,0.25,95,103.0
3382,C2,280.0,0.25,95,103.0
3383,G#1,280.25,0.25,95,103.0
3384,E5,280.25,0.25,95,103.0
3385,E4,280.25,0.25,95,103.0
3386,B3,280.25,0.25,95,103.0
3387,F#3,280.25,0.25,95,103.0
3388,D2,280.25,0.25,95,103.0
3389,C2,280.25,0.25,95,103.0
3390,E4,280.5,0.125,95,103.0
3391,E5,280.5,0.25,95,103.0
3392,E4,280.5,0.25,95,103.0
3393,B3,280.5,0.25,95,103.0
3394,E-4,280.625,0.125,95,103.0
3395,C#4,280.75,1.0,95,103.0
3396,E5,280.75,0.25,95,103.0
3397,E4,280.75,0.25,95,103.0
3398,B3,280.75,0.25,95,103.0
3399,E1,281.0,0.25,95,103.0
3400,F#5,281.0,0.25,95,103.0
3401,F#4,281.0,0.25,95,103.0
3402,C#4,281.0,0.25,95,103.0
3403,F#3,281.0,0.25,95,103.0
3404,D2,281.0,0.25,95,103.0
3405,C2,281.0,0.25,95,103.0
3406,F#1,281.25,0.25,95,103.0
3407,F#5,281.25,0.25,95,103.0
3408,F#4,281.25,0.25,95,103.0
3409,C#4,281.25,0.25,95,103.0
3410,F#3,281.25,0.25,95,103.0
3411,D2,281.25,0.25,95,103.0
3412,C2,281.25,0.25,95,103.0
3413,F#5,281.5,0.25,95,103.0
3414,F#4,281.5,0.25,95,103.0
3415,C#4,281.5,0.25,95,103.0
3416,B3,281.75,0.25,47,103.0
3417,F#5,281.75,0.25,95,103.0
3418,F#4,281.75,0.25,95,103.0
3419,C#4,281.75,0.25,95,103.0
3420,E4,282.0,1.0,47,103.0
3421,E2,282.0,0.25,95,103.0
3422,F#5,282.0,0.25,95,103.0
3423,F#4,282.0,0.25,95,103.0
3424,C#4,282.0,0.25,95,103.0
3425,F#3,282.0,0.25,63,103.0
3426,E2,282.0,0.25,63,103.0
3427,C2,282.0,0.25,63,103.0
3428,E-2,282.25,0.25,95,103.0
3429,F#5,282.25,0.25,95,103.0
3430,F#4,282.25,0.25,95,103.0
3431,C#4,282.25,0.25,95,103.0
3432,F#3,282.25,0.25,63,103.0
3433,E2,282.25,0.25,63,103.0
3434,C2,282.25,0.25,63,103.0
3435,C#2,282.5,0.25,95,103.0
3436,F#5,282.5,0.25,95,103.0
3437,F#4,282.5,0.25,95,103.0
3438,C#4,282.5,0.25,95,103.0
3439,F#3,282.5,0.25,63,103.0
3440,E2,282.5,0.25,63,103.0
3441,C2,282.5,0.25,63,103.0
3442,C2,282.75,0.75,95,103.0
3443,F#5,282.75,0.25,95,103.0
3444,F#4,282.75,0.25,95,103.0
3445,C#4,282.75,0.25,95,103.0
3446,F#3,282.75,0.25,63,103.0
3447,E2,282.75,0.25,63,103.0
3448,C2,282.75,0.25,63,103.0
3449,F#5,283.0,0.25,95,103.0
3450,F#4,283.0,0.25,95,103.0
3451,C#4,283.0,0.25,95,103.0
3452,F#5,283.25,0.25,95,103.0
3453,F#4,283.25,0.25,95,103.0
3454,C#4,283.25,0.25,95,103.0
3455,F#1,283.5,0.25,95,103.0
3456,F#5,283.5,0.25,95,103.0
3457,F#4,283.5,0.25,95,103.0
3458,C#4,283.5,0.25,95,103.0
3459,F#3,283.5,0.25,95,103.0
3460,D2,283.5,0.25,95,103.0
3461,C2,283.5,0.25,95,103.0
3462,G#1,283.75,0.25,95,103.0
3463,F#5,283.75,0.25,95,103.0
3464,F#4,283.75,0.25,95,103.0
3465,C#4,283.75,0.25,95,103.0
3466,F#3,283.75,0.25,95,103.0
3467,D2,283.75,0.25,95,103.0
3468,C2,283.75,0.25,95,103.0
3469,E2,284.0,0.25,95,103.0
3470,F#3,284.0,0.25,31,103.0
3471,F#5,284.0,0.25,95,103.0
3472,F#4,284.0,0.25,95,103.0
3473,C#4,284.0,0.25,95,103.0
3474,C#3,284.25,0.375,95,103.0
3475,F#3,284.25,0.25,31,103.0
3476,F#5,284.25,0.25,95,103.0
3477,F#4,284.25,0.25,95,103.0
3478,C#4,284.25,0.25,95,103.0
3479,F#3,284.5,0.25,47,103.0
3480,F#5,284.5,0.25,95,103.0
3481,F#4,284.5,0.25,95,103.0
3482,C#4,284.5,0.25,95,103.0
3483,C3,284.625,0.375,95,103.0
3484,F#3,284.75,0.25,47,103.0
3485,F#5,284.75,0.25,95,103.0
3486,F#4,284.75,0.25,95,103.0
3487,C#4,284.75,0.25,95,103.0
3488,G#3,285.0,0.375,95,103.0
3489,F#3,285.0,0.25,47,103.0
3490,F#5,285.0,0.25,95,103.0
3491,F#4,285.0,0.25,95,103.0
3492,C#4,285.0,0.25,95,103.0
3493,F#3,285.25,0.25,47,103.0
3494,F#5,285.25,0.25,95,103.0
3495,F#4,285.25,0.25,95,103.0
3496,C#4,285.25,0.25,95,103.0
3497,F#3,285.375,0.375,95,103.0
3498,F#3,285.5,0.25,47,103.0
3499,F#5,285.5,0.25,95,103.0
3500,F#4,285.5,0.25,95,103.0
3501,C#4,285.5,0.25,95,103.0
3502,C#4,285.75,0.375,95,103.0
3503,F#3,285.75,0.25,47,103.0
3504,F#5,285.75,0.25,95,103.0
3505,F#4,285.75,0.25,95,103.0
3506,C#4,285.75,0.25,95,103.0
3507,F#3,286.0,0.25,47,103.0
3508,F#5,286.0,0.25,95,103.0
3509,F#4,286.0,0.25,95,103.0
3510,C#4,286.0,0.25,95,103.0
3511,C4,286.125,0.375,95,103.0
3512,F#3,286.25,0.25,47,103.0
3513,F#5,286.25,0.25,95,103.0
3514,F#4,286.25,0.25,95,103.0
3515,C#4,286.25,0.25,95,103.0
3516,G#4,286.5,0.375,95,103.0
3517,F#1,286.5,0.25,95,103.0
3518,F#5,286.5,0.25,95,103.0
3519,F#4,286.5,0.25,95,103.0
3520,C#4,286.5,0.25,95,103.0
3521,F#3,286.5,0.25,95,103.0
3522,D2,286.5,0.25,95,103.0
3523,C2,286.5,0.25,95,103.0
3524,G#1,286.75,0.25,95,103.0
3525,F#5,286.75,0.25,95,103.0
3526,F#4,286.75,0.25,95,103.0
3527,C#4,286.75,0.25,95,103.0
3528,F#3,286.75,0.25,95,103.0
3529,D2,286.75,0.25,95,103.0
3530,C2,286.75,0.25,95,103.0
3531,F#4,286.875,0.375,95,103.0
3532,F#5,287.0,0.25,95,103.0
3533,F#4,287.0,0.25,95,103.0
3534,C#4,287.0,0.25,95,103.0
3535,C#5,287.25,0.375,95,103.0
3536,F#5,287.25,0.25,95,103.0
3537,F#4,287.25,0.25,95,103.0
3538,C#4,287.25,0.25,95,103.0
3539,E1,287.5,0.25,95,103.0
3540,G#5,287.5,0.25,95,103.0
3541,G#4,287.5,0.25,95,103.0
3542,E-4,287.5,0.25,95,103.0
3543,F#3,287.5,0.25,95,103.0
3544,D2,287.5,0.25,95,103.0
3545,C2,287.5,0.25,95,103.0
3546,C5,287.625,2.0,95,103.0
3547,F#1,287.75,0.25,95,103.0
3548,G#5,287.75,0.25,95,103.0
3549,G#4,287.75,0.25,95,103.0
3550,E-4,287.75,0.25,95,103.0
3551,F#3,287.75,0.25,95,103.0
3552,D2,287.75,0.25,95,103.0
3553,C2,287.75,0.25,95,103.0
3554,G#5,288.0,0.25,95,103.0
3555,G#4,288.0,0.25,95,103.0
3556,E-4,288.0,0.25,95,103.0
3557,E1,288.25,0.25,95,103.0
3558,G#5,288.25,0.25,95,103.0
3559,G#4,288.25,0.25,95,103.0
3560,E-4,288.25,0.25,95,103.0
3561,F#1,288.5,0.25,95,103.0
3562,E2,288.5,0.25,63,103.0
3563,G#5,288.5,0.25,95,103.0
3564,G#4,288.5,0.25,95,103.0
3565,E-4,288.5,0.25,95,103.0
3566,G#1,288.75,0.25,95,103.0
3567,E2,288.75,0.25,63,103.0
3568,G#5,288.75,0.25,95,103.0
3569,G#4,288.75,0.25,95,103.0
3570,E-4,288.75,0.25,95,103.0
3571,B-1,289.0,0.25,95,103.0
3572,E2,289.0,0.25,63,103.0
3573,G#5,289.0,0.25,95,103.0
3574,G#4,289.0,0.25,95,103.0
3575,E-4,289.0,0.25,95,103.0
3576,C2,289.25,0.5,95,103.0
3577,G#5,289.25,0.25,95,103.0
3578,G#4,289.25,0.25,95,103.0
3579,E-4,289.25,0.25,95,103.0
3580,F#3,289.25,0.25,71,103.0
3581,E2,289.25,0.25,71,103.0
3582,G#5,289.5,0.25,95,103.0
3583,G#4,289.5,0.25,95,103.0
3584,E-4,289.5,0.25,95,103.0
3585,G#4,289.625,0.375,95,103.0
3586,B-1,289.75,0.25,95,103.0
3587,E2,289.75,0.25,63,103.0
3588,G#5,289.75,0.25,95,103.0
3589,G#4,289.75,0.25,95,103.0
3590,E-4,289.75,0.25,95,103.0
3591,C5,290.0,0.375,111,103.0
3592,G#1,290.0,0.25,95,103.0
3593,E2,290.0,0.25,63,103.0
3594,G#5,290.0,0.25,95,103.0
3595,G#4,290.0,0.25,95,103.0
3596,E-4,290.0,0.25,95,103.0
3597,F#1,290.25,0.25,95,103.0
3598,E2,290.25,0.25,63,103.0
3599,G#5,290.25,0.25,95,103.0
3600,G#4,290.25,0.25,95,103.0
3601,E-4,290.25,0.25,95,103.0
3602,C#5,290.375,0.375,111,103.0
3603,E1,290.5,0.75,95,103.0
3604,G#5,290.5,0.25,95,103.0
3605,G#4,290.5,0.25,95,103.0
3606,E-4,290.5,0.25,95,103.0
3607,F#3,290.5,0.25,71,103.0
3608,E2,290.5,0.25,71,103.0
3609,E-5,290.75,0.375,111,103.0
3610,G#5,290.75,0.25,95,103.0
3611,G#4,290.75,0.25,95,103.0
3612,E-4,290.75,0.25,95,103.0
3613,G#5,291.0,0.25,95,103.0
3614,G#4,291.0,0.25,95,103.0
3615,E-4,291.0,0.25,95,103.0
3616,E-5,291.125,0.375,111,103.0
3617,E1,291.25,0.25,95,103.0
3618,G#5,291.25,0.25,95,103.0
3619,G#4,291.25,0.25,95,103.0
3620,E-4,291.25,0.25,95,103.0
3621,E-5,291.5,2.25,111,103.0
3622,F#1,291.5,0.25,95,103.0
3623,G#5,291.5,0.25,95,103.0
3624,G#4,291.5,0.25,95,103.0
3625,E-4,291.5,0.25,95,103.0
3626,F#3,291.5,0.25,95,103.0
3627,D2,291.5,0.25,95,103.0
3628,C2,291.5,0.25,95,103.0
3629,G#1,291.75,0.25,95,103.0
3630,G#5,291.75,0.25,95,103.0
3631,G#4,291.75,0.25,95,103.0
3632,E-4,291.75,0.25,95,103.0
3633,F#3,291.75,0.25,95,103.0
3634,D2,291.75,0.25,95,103.0
3635,C2,291.75,0.25,95,103.0
3636,F#3,292.0,0.25,31,103.0
3637,G#5,292.0,0.25,95,103.0
3638,G#4,292.0,0.25,95,103.0
3639,E-4,292.0,0.25,95,103.0
3640,F#3,292.25,0.25,31,103.0
3641,G#5,292.25,0.25,95,103.0
3642,G#4,292.25,0.25,95,103.0
3643,E-4,292.25,0.25,95,103.0
3644,F#3,292.5,0.25,47,103.0
3645,G#5,292.5,0.25,95,103.0
3646,G#4,292.5,0.25,95,103.0
3647,E-4,292.5,0.25,95,103.0
3648,F#3,292.75,0.25,47,103.0
3649,G#5,292.75,0.25,95,103.0
3650,G#4,292.75,0.25,95,103.0
3651,E-4,292.75,0.25,95,103.0
3652,F#3,293.0,0.25,47,103.0
3653,G#5,293.0,0.25,95,103.0
3654,G#4,293.0,0.25,95,103.0
3655,E-4,293.0,0.25,95,103.0
3656,F#3,293.25,0.25,47,103.0
3657,G#5,293.25,0.25,95,103.0
3658,G#4,293.25,0.25,95,103.0
3659,E-4,293.25,0.25,95,103.0
3660,F#3,293.5,0.25,47,103.0
3661,G#5,293.5,0.25,95,103.0
3662,G#4,293.5,0.25,95,103.0
3663,E-4,293.5,0.25,95,103.0
3664,C#5,293.75,0.25,95,103.0
3665,F#3,293.75,0.25,47,103.0
3666,G#5,293.75,0.25,95,103.0
3667,G#4,293.75,0.25,95,103.0
3668,E-4,293.75,0.25,95,103.0
3669,E5,294.0,0.125,95,103.0
3670,F#3,294.0,0.25,47,103.0
3671,G#5,294.0,0.25,95,103.0
3672,G#4,294.0,0.25,95,103.0
3673,E-4,294.0,0.25,95,103.0
3674,E-5,294.125,0.125,95,103.0
3675,E5,294.25,0.125,95,103.0
3676,F#3,294.25,0.25,47,103.0
3677,G#5,294.25,0.25,95,103.0
3678,G#4,294.25,0.25,95,103.0
3679,E-4,294.25,0.25,95,103.0
3680,C#5,294.375,0.125,95,103.0
3681,E5,294.5,0.125,95,103.0
3682,F#1,294.5,0.25,95,103.0
3683,G#5,294.5,0.25,95,103.0
3684,G#4,294.5,0.25,95,103.0
3685,E-4,294.5,0.25,95,103.0
3686,F#3,294.5,0.25,95,103.0
3687,D2,294.5,0.25,95,103.0
3688,C2,294.5,0.25,95,103.0
3689,E-5,294.625,0.125,95,103.0
3690,E5,294.75,0.125,95,103.0
3691,G#1,294.75,0.25,95,103.0
3692,G#5,294.75,0.25,95,103.0
3693,G#4,294.75,0.25,95,103.0
3694,E-4,294.75,0.25,95,103.0
3695,F#3,294.75,0.25,95,103.0
3696,D2,294.75,0.25,95,103.0
3697,C2,294.75,0.25,95,103.0
3698,C#5,294.875,0.125,95,103.0
3699,E5,295.0,0.125,95,103.0
3700,G#5,295.0,0.25,95,103.0
3701,G#4,295.0,0.25,95,103.0
3702,E-4,295.0,0.25,95,103.0
3703,E-5,295.125,0.125,95,103.0
3704,E5,295.25,0.125,95,103.0
3705,G#5,295.25,0.25,95,103.0
3706,G#4,295.25,0.25,95,103.0
3707,E-4,295.25,0.25,95,103.0
3708,C#5,295.375,0.125,95,103.0
3709,E5,295.5,0.125,95,103.0
3710,E1,295.5,0.25,95,103.0
3711,F#5,295.5,0.25,95,103.0
3712,F#4,295.5,0.25,95,103.0
3713,C#4,295.5,0.25,95,103.0
3714,F#3,295.5,0.25,95,103.0
3715,D2,295.5,0.25,95,103.0
3716,C2,295.5,0.25,95,103.0
3717,E-5,295.625,0.125,95,103.0
3718,E5,295.75,0.125,95,103.0
3719,F#1,295.75,0.25,95,103.0
3720,F#5,295.75,0.25,95,103.0
3721,F#4,295.75,0.25,95,103.0
3722,C#4,295.75,0.25,95,103.0
3723,F#3,295.75,0.25,95,103.0
3724,D2,295.75,0.25,95,103.0
3725,C2,295.75,0.25,95,103.0
3726,C#5,295.875,0.125,95,103.0
3727,E5,296.0,0.125,95,103.0
3728,F#5,296.0,0.25,95,103.0
3729,F#4,296.0,0.25,95,103.0
3730,C#4,296.0,0.25,95,103.0
3731,C5,296.125,0.125,95,103.0
3732,E5,296.25,0.125,95,103.0
3733,F#5,296.25,0.25,95,103.0
3734,F#4,296.25,0.25,95,103.0
3735,C#4,296.25,0.25,95,103.0
3736,E-5,296.375,0.125,95,103.0
3737,E5,296.5,0.125,95,103.0
3738,E2,296.5,0.25,95,103.0
3739,F#5,296.5,0.25,95,103.0
3740,F#4,296.5,0.25,95,103.0
3741,C#4,296.5,0.25,95,103.0
3742,F#3,296.5,0.25,63,103.0
3743,E2,296.5,0.25,63,103.0
3744,C2,296.5,0.25,63,103.0
3745,C#5,296.625,0.125,95,103.0
3746,E5,296.75,0.125,95,103.0
3747,E-2,296.75,0.25,95,103.0
3748,F#5,296.75,0.25,95,103.0
3749,F#4,296.75,0.25,95,103.0
3750,C#4,296.75,0.25,95,103.0
3751,F#3,296.75,0.25,63,103.0
3752,E2,296.75,0.25,63,103.0
3753,C2,296.75,0.25,63,103.0
3754,C5,296.875,0.125,95,103.0
3755,E5,297.0,0.125,95,103.0
3756,C#2,297.0,0.25,95,103.0
3757,F#5,297.0,0.25,95,103.0
3758,F#4,297.0,0.25,95,103.0
3759,C#4,297.0,0.25,95,103.0
3760,F#3,297.0,0.25,63,103.0
3761,E2,297.0,0.25,63,103.0
3762,C2,297.0,0.25,63,103.0
3763,B-4,297.125,0.125,95,103.0
3764,E5,297.25,0.125,95,103.0
3765,C2,297.25,0.75,95,103.0
3766,F#5,297.25,0.25,95,103.0
3767,F#4,297.25,0.25,95,103.0
3768,C#4,297.25,0.25,95,103.0
3769,F#3,297.25,0.25,63,103.0
3770,E2,297.25,0.25,63,103.0
3771,C2,297.25,0.25,63,103.0
3772,C#5,297.375,0.125,95,103.0
3773,E5,297.5,0.125,95,103.0
3774,F#5,297.5,0.25,95,103.0
3775,F#4,297.5,0.25,95,103.0
3776,C#4,297.5,0.25,95,103.0
3777,C5,297.625,0.125,95,103.0
3778,E5,297.75,0.125,95,103.0
3779,F#5,297.75,0.25,95,103.0
3780,F#4,297.75,0.25,95,103.0
3781,C#4,297.75,0.25,95,103.0
3782,B-4,297.875,0.125,95,103.0
3783,G#4,298.0,0.125,95,103.0
3784,F#1,298.0,0.25,95,103.0
3785,F#5,298.0,0.25,95,103.0
3786,F#4,298.0,0.25,95,103.0
3787,C#4,298.0,0.25,95,103.0
3788,F#3,298.0,0.25,95,103.0
3789,D2,298.0,0.25,95,103.0
3790,C2,298.0,0.25,95,103.0
3791,B-4,298.125,0.125,95,103.0
3792,E4,298.25,1.5,95,103.0
3793,G#1,298.25,0.25,95,103.0
3794,F#5,298.25,0.25,95,103.0
3795,F#4,298.25,0.25,95,103.0
3796,C#4,298.25,0.25,95,103.0
3797,F#3,298.25,0.25,95,103.0
3798,D2,298.25,0.25,95,103.0
3799,C2,298.25,0.25,95,103.0
3800,F#3,298.5,0.25,31,103.0
3801,F#5,298.5,0.25,95,103.0
3802,F#4,298.5,0.25,95,103.0
3803,C#4,298.5,0.25,95,103.0
3804,F#3,298.75,0.25,31,103.0
3805,F#5,298.75,0.25,95,103.0
3806,F#4,298.75,0.25,95,103.0
3807,C#4,298.75,0.25,95,103.0
3808,F#3,299.0,0.25,47,103.0
3809,F#5,299.0,0.25,95,103.0
3810,F#4,299.0,0.25,95,103.0
3811,C#4,299.0,0.25,95,103.0
3812,F#3,299.25,0.25,47,103.0
3813,F#5,299.25,0.25,95,103.0
3814,F#4,299.25,0.25,95,103.0
3815,C#4,299.25,0.25,95,103.0
3816,F#3,299.5,0.25,47,103.0
3817,F#5,299.5,0.25,95,103.0
3818,F#4,299.5,0.25,95,103.0
3819,C#4,299.5,0.25,95,103.0
3820,F#3,299.75,0.25,47,103.0
3821,F#5,299.75,0.25,95,103.0
3822,F#4,299.75,0.25,95,103.0
3823,C#4,299.75,0.25,95,103.0
3824,C5,299.875,0.125,95,103.0
3825,G#4,300.0,0.125,95,103.0
3826,F#3,300.0,0.25,47,103.0
3827,F#5,300.0,0.25,95,103.0
3828,F#4,300.0,0.25,95,103.0
3829,C#4,300.0,0.25,95,103.0
3830,E-4,300.125,0.125,95,103.0
3831,G#4,300.25,0.125,95,103.0
3832,F#3,300.25,0.25,47,103.0
3833,F#5,300.25,0.25,95,103.0
3834,F#4,300.25,0.25,95,103.0
3835,C#4,300.25,0.25,95,103.0
3836,C5,300.375,0.125,95,103.0
3837,G#5,300.5,0.125,95,103.0
3838,F#3,300.5,0.25,47,103.0
3839,F#5,300.5,0.25,95,103.0
3840,F#4,300.5,0.25,95,103.0
3841,C#4,300.5,0.25,95,103.0
3842,E-5,300.625,0.125,95,103.0
3843,B4,300.75,0.125,95,103.0
3844,F#3,300.75,0.25,47,103.0
3845,F#5,300.75,0.25,95,103.0
3846,F#4,300.75,0.25,95,103.0
3847,C#4,300.75,0.25,95,103.0
3848,G4,300.875,0.125,95,103.0
3849,C5,301.0,2.0,95,103.0
3850,F#1,301.0,0.25,95,103.0
3851,F#5,301.0,0.25,95,103.0
3852,F#4,301.0,0.25,95,103.0
3853,C#4,301.0,0.25,95,103.0
3854,F#3,301.0,0.25,95,103.0
3855,D2,301.0,0.25,95,103.0
3856,C2,301.0,0.25,95,103.0
3857,G#1,301.25,0.25,95,103.0
3858,F#5,301.25,0.25,95,103.0
3859,F#4,301.25,0.25,95,103.0
3860,C#4,301.25,0.25,95,103.0
3861,F#3,301.25,0.25,95,103.0
3862,D2,301.25,0.25,95,103.0
3863,C2,301.25,0.25,95,103.0
3864,F#5,301.5,0.25,95,103.0
3865,F#4,301.5,0.25,95,103.0
3866,C#4,301.5,0.25,95,103.0
3867,F#5,301.75,0.25,95,103.0
3868,F#4,301.75,0.25,95,103.0
3869,C#4,301.75,0.25,95,103.0
3870,E1,302.0,0.25,95,103.0
3871,E5,302.0,0.25,95,103.0
3872,E4,302.0,0.25,95,103.0
3873,B3,302.0,0.25,95,103.0
3874,F#3,302.0,0.25,95,103.0
3875,D2,302.0,0.25,95,103.0
3876,C2,302.0,0.25,95,103.0
3877,F#1,302.25,0.25,95,103.0
3878,E5,302.25,0.25,95,103.0
3879,E4,302.25,0.25,95,103.0
3880,B3,302.25,0.25,95,103.0
3881,F#3,302.25,0.25,95,103.0
3882,D2,302.25,0.25,95,103.0
3883,C2,302.25,0.25,95,103.0
3884,E5,302.5,0.25,95,103.0
3885,E4,302.5,0.25,95,103.0
3886,B3,302.5,0.25,95,103.0
3887,E1,302.75,0.25,95,103.0
3888,E5,302.75,0.25,95,103.0
3889,E4,302.75,0.25,95,103.0
3890,B3,302.75,0.25,95,103.0
3891,G#4,302.938,0.062,95,103.0
3892,B-4,303.0,0.125,95,103.0
3893,F#1,303.0,0.25,95,103.0
3894,E2,303.0,0.25,63,103.0
3895,E5,303.0,0.25,95,103.0
3896,E4,303.0,0.25,95,103.0
3897,B3,303.0,0.25,95,103.0
3898,G#4,303.125,0.5,95,103.0
3899,G#1,303.25,0.25,95,103.0
3900,E2,303.25,0.25,63,103.0
3901,E5,303.25,0.25,95,103.0
3902,E4,303.25,0.25,95,103.0
3903,B3,303.25,0.25,95,103.0
3904,B-1,303.5,0.25,95,103.0
3905,E2,303.5,0.25,63,103.0
3906,E5,303.5,0.25,95,103.0
3907,E4,303.5,0.25,95,103.0
3908,B3,303.5,0.25,95,103.0
3909,G#4,303.562,0.062,95,103.0
3910,B-4,303.625,0.125,95,103.0
3911,F#4,303.75,0.5,95,103.0
3912,C2,303.75,0.5,95,103.0
3913,E5,303.75,0.25,95,103.0
3914,E4,303.75,0.25,95,103.0
3915,B3,303.75,0.25,95,103.0
3916,F#3,303.75,0.25,71,103.0
3917,E2,303.75,0.25,71,103.0
3918,E5,304.0,0.25,95,103.0
3919,E4,304.0,0.25,95,103.0
3920,B3,304.0,0.25,95,103.0
3921,G#4,304.188,0.062,95,103.0
3922,F#4,304.25,0.125,95,103.0
3923,B-1,304.25,0.25,95,103.0
3924,E2,304.25,0.25,63,103.0
3925,E5,304.25,0.25,95,103.0
3926,E4,304.25,0.25,95,103.0
3927,B3,304.25,0.25,95,103.0
3928,E4,304.375,0.5,95,103.0
3929,G#1,304.5,0.25,95,103.0
3930,E2,304.5,0.25,63,103.0
3931,E5,304.5,0.25,95,103.0
3932,E4,304.5,0.25,95,103.0
3933,B3,304.5,0.25,95,103.0
3934,F#1,304.75,0.25,95,103.0
3935,E2,304.75,0.25,63,103.0
3936,E5,304.75,0.25,95,103.0
3937,E4,304.75,0.25,95,103.0
3938,B3,304.75,0.25,95,103.0
3939,E4,304.875,0.25,95,103.0
3940,E1,305.0,0.75,95,103.0
3941,E5,305.0,0.25,95,103.0
3942,E4,305.0,0.25,95,103.0
3943,B3,305.0,0.25,95,103.0
3944,F#3,305.0,0.25,71,103.0
3945,E2,305.0,0.25,71,103.0
3946,E5,305.25,0.25,95,103.0
3947,E4,305.25,0.25,95,103.0
3948,B3,305.25,0.25,95,103.0
3949,E5,305.5,0.25,95,103.0
3950,E4,305.5,0.25,95,103.0
3951,B3,305.5,0.25,95,103.0
3952,E1,305.75,0.25,95,103.0
3953,E5,305.75,0.25,95,103.0
3954,E4,305.75,0.25,95,103.0
3955,B3,305.75,0.25,95,103.0
3956,F#4,306.0,0.25,95,103.0
3957,F#1,306.0,0.25,95,103.0
3958,E5,306.0,0.25,95,103.0
3959,E4,306.0,0.25,95,103.0
3960,B3,306.0,0.25,95,103.0
3961,F#3,306.0,0.25,95,103.0
3962,D2,306.0,0.25,95,103.0
3963,C2,306.0,0.25,95,103.0
3964,G#1,306.25,0.25,95,103.0
3965,E5,306.25,0.25,95,103.0
3966,E4,306.25,0.25,95,103.0
3967,B3,306.25,0.25,95,103.0
3968,F#3,306.25,0.25,95,103.0
3969,D2,306.25,0.25,95,103.0
3970,C2,306.25,0.25,95,103.0
3971,D4,306.5,0.5,95,103.0
3972,F#3,306.5,0.25,31,103.0
3973,E5,306.5,0.25,95,103.0
3974,E4,306.5,0.25,95,103.0
3975,B3,306.5,0.25,95,103.0
3976,F#3,306.75,0.25,31,103.0
3977,E5,306.75,0.25,95,103.0
3978,E4,306.75,0.25,95,103.0
3979,B3,306.75,0.25,95,103.0
3980,D4,307.0,0.25,95,103.0
3981,F#3,307.0,0.25,47,103.0
3982,E5,307.0,0.25,95,103.0
3983,E4,307.0,0.25,95,103.0
3984,B3,307.0,0.25,95,103.0
3985,D4,307.25,0.25,95,103.0
3986,F#3,307.25,0.25,47,103.0
3987,E5,307.25,0.25,95,103.0
3988,E4,307.25,0.25,95,103.0
3989,B3,307.25,0.25,95,103.0
3990,D4,307.5,0.25,95,103.0
3991,F#3,307.5,0.25,47,103.0
3992,E5,307.5,0.25,95,103.0
3993,E4,307.5,0.25,95,103.0
3994,B3,307.5,0.25,95,103.0
3995,D4,307.75,0.25,95,103.0
3996,F#3,307.75,0.25,47,103.0
3997,E5,307.75,0.25,95,103.0
3998,E4,307.75,0.25,95,103.0
3999,B3,307.75,0.25,95,103.0
4000,E-4,308.0,0.25,95,103.0
4001,F#3,308.0,0.25,47,103.0
4002,E5,308.0,0.25,95,103.0
4003,E4,308.0,0.25,95,103.0
4004,B3,308.0,0.25,95,103.0
4005,E-4,308.25,0.25,95,103.0
4006,F#3,308.25,0.25,47,103.0
4007,E5,308.25,0.25,95,103.0
4008,E4,308.25,0.25,95,103.0
4009,B3,308.25,0.25,95,103.0
4010,E-4,308.5,0.25,95,103.0
4011,F#3,308.5,0.25,47,103.0
4012,E5,308.5,0.25,95,103.0
4013,E4,308.5,0.25,95,103.0
4014,B3,308.5,0.25,95,103.0
4015,E-4,308.75,0.25,95,103.0
4016,F#3,308.75,0.25,47,103.0
4017,E5,308.75,0.25,95,103.0
4018,E4,308.75,0.25,95,103.0
4019,B3,308.75,0.25,95,103.0
4020,E-4,309.0,0.25,95,103.0
4021,F#1,309.0,0.25,95,103.0
4022,E5,309.0,0.25,95,103.0
4023,E4,309.0,0.25,95,103.0
4024,B3,309.0,0.25,95,103.0
4025,F#3,309.0,0.25,95,103.0
4026,D2,309.0,0.25,95,103.0
4027,C2,309.0,0.25,95,103.0
4028,E-4,309.25,0.25,95,103.0
4029,G#1,309.25,0.25,95,103.0
4030,E5,309.25,0.25,95,103.0
4031,E4,309.25,0.25,95,103.0
4032,B3,309.25,0.25,95,103.0
4033,F#3,309.25,0.25,95,103.0
4034,D2,309.25,0.25,95,103.0
4035,C2,309.25,0.25,95,103.0
4036,E-4,309.5,0.25,95,103.0
4037,E5,309.5,0.25,95,103.0
4038,E4,309.5,0.25,95,103.0
4039,B3,309.5,0.25,95,103.0
4040,E5,309.75,0.25,95,103.0
4041,E4,309.75,0.25,95,103.0
4042,B3,309.75,0.25,95,103.0
4043,C4,310.0,0.25,95,103.0
4044,E1,310.0,0.25,95,103.0
4045,F#5,310.0,0.25,95,103.0
4046,F#4,310.0,0.25,95,103.0
4047,C#4,310.0,0.25,95,103.0
4048,F#3,310.0,0.25,95,103.0
4049,D2,310.0,0.25,95,103.0
4050,C2,310.0,0.25,95,103.0
4051,F#1,310.25,0.25,95,103.0
4052,F#5,310.25,0.25,95,103.0
4053,F#4,310.25,0.25,95,103.0
4054,C#4,310.25,0.25,95,103.0
4055,F#3,310.25,0.25,95,103.0
4056,D2,310.25,0.25,95,103.0
4057,C2,310.25,0.25,95,103.0
4058,C#4,310.5,0.25,95,103.0
4059,F#5,310.5,0.25,95,103.0
4060,F#4,310.5,0.25,95,103.0
4061,C#4,310.5,0.25,95,103.0
4062,B-3,310.75,0.25,95,103.0
4063,F#5,310.75,0.25,95,103.0
4064,F#4,310.75,0.25,95,103.0
4065,C#4,310.75,0.25,95,103.0
4066,C4,311.0,0.25,95,103.0
4067,E2,311.0,0.25,95,103.0
4068,F#5,311.0,0.25,95,103.0
4069,F#4,311.0,0.25,95,103.0
4070,C#4,311.0,0.25,95,103.0
4071,F#3,311.0,0.25,63,103.0
4072,E2,311.0,0.25,63,103.0
4073,C2,311.0,0.25,63,103.0
4074,G#3,311.25,0.25,95,103.0
4075,E-2,311.25,0.25,95,103.0
4076,F#5,311.25,0.25,95,103.0
4077,F#4,311.25,0.25,95,103.0
4078,C#4,311.25,0.25,95,103.0
4079,F#3,311.25,0.25,63,103.0
4080,E2,311.25,0.25,63,103.0
4081,C2,311.25,0.25,63,103.0
4082,B-3,311.5,1.0,95,103.0
4083,C#2,311.5,0.25,95,103.0
4084,F#5,311.5,0.25,95,103.0
4085,F#4,311.5,0.25,95,103.0
4086,C#4,311.5,0.25,95,103.0
4087,F#3,311.5,0.25,63,103.0
4088,E2,311.5,0.25,63,103.0
4089,C2,311.5,0.25,63,103.0
4090,C2,311.75,0.75,95,103.0
4091,F#5,311.75,0.25,95,103.0
4092,F#4,311.75,0.25,95,103.0
4093,C#4,311.75,0.25,95,103.0
4094,F#3,311.75,0.25,63,103.0
4095,E2,311.75,0.25,63,103.0
4096,C2,311.75,0.25,63,103.0
4097,F#5,312.0,0.25,95,103.0
4098,F#4,312.0,0.25,95,103.0
4099,C#4,312.0,0.25,95,103.0
4100,F#5,312.25,0.25,95,103.0
4101,F#4,312.25,0.25,95,103.0
4102,C#4,312.25,0.25,95,103.0
4103,B-3,312.5,1.5,95,103.0
4104,F#1,312.5,0.25,95,103.0
4105,F#5,312.5,0.25,95,103.0
4106,F#4,312.5,0.25,95,103.0
4107,C#4,312.5,0.25,95,103.0
4108,F#3,312.5,0.25,95,103.0
4109,D2,312.5,0.25,95,103.0
4110,C2,312.5,0.25,95,103.0
4111,G#1,312.75,0.25,95,103.0
4112,F#5,312.75,0.25,95,103.0
4113,F#4,312.75,0.25,95,103.0
4114,C#4,312.75,0.25,95,103.0
4115,F#3,312.75,0.25,95,103.0
4116,D2,312.75,0.25,95,103.0
4117,C2,312.75,0.25,95,103.0
4118,F#3,313.0,0.25,31,103.0
4119,F#5,313.0,0.25,95,103.0
4120,F#4,313.0,0.25,95,103.0
4121,C#4,313.0,0.25,95,103.0
4122,F#3,313.25,0.25,31,103.0
4123,F#5,313.25,0.25,95,103.0
4124,F#4,313.25,0.25,95,103.0
4125,C#4,313.25,0.25,95,103.0
4126,F#3,313.5,0.25,47,103.0
4127,F#5,313.5,0.25,95,103.0
4128,F#4,313.5,0.25,95,103.0
4129,C#4,313.5,0.25,95,103.0
4130,F#3,313.75,0.25,47,103.0
4131,F#5,313.75,0.25,95,103.0
4132,F#4,313.75,0.25,95,103.0
4133,C#4,313.75,0.25,95,103.0
4134,G#3,314.0,0.5,95,103.0
4135,F#3,314.0,0.25,47,103.0
4136,F#5,314.0,0.25,95,103.0
4137,F#4,314.0,0.25,95,103.0
4138,C#4,314.0,0.25,95,103.0
4139,F#3,314.25,0.25,47,103.0
4140,F#5,314.25,0.25,95,103.0
4141,F#4,314.25,0.25,95,103.0
4142,C#4,314.25,0.25,95,103.0
4143,G#3,314.5,0.25,95,103.0
4144,F#3,314.5,0.25,47,103.0
4145,F#5,314.5,0.25,95,103.0
4146,F#4,314.5,0.25,95,103.0
4147,C#4,314.5,0.25,95,103.0
4148,G#3,314.75,0.25,95,103.0
4149,F#3,314.75,0.25,47,103.0
4150,F#5,314.75,0.25,95,103.0
4151,F#4,314.75,0.25,95,103.0
4152,C#4,314.75,0.25,95,103.0
4153,G#3,315.0,0.25,95,103.0
4154,F#3,315.0,0.25,47,103.0
4155,F#5,315.0,0.25,95,103.0
4156,F#4,315.0,0.25,95,103.0
4157,C#4,315.0,0.25,95,103.0
4158,G#3,315.25,0.25,95,103.0
4159,F#3,315.25,0.25,47,103.0
4160,F#5,315.25,0.25,95,103.0
4161,F#4,315.25,0.25,95,103.0
4162,C#4,315.25,0.25,95,103.0
4163,B-3,315.5,0.25,95,103.0
4164,F#1,315.5,0.25,95,103.0
4165,F#5,315.5,0.25,95,103.0
4166,F#4,315.5,0.25,95,103.0
4167,C#4,315.5,0.25,95,103.0
4168,F#3,315.5,0.25,95,103.0
4169,D2,315.5,0.25,95,103.0
4170,C2,315.5,0.25,95,103.0
4171,B-3,315.75,0.25,95,103.0
4172,G#1,315.75,0.25,95,103.0
4173,F#5,315.75,0.25,95,103.0
4174,F#4,315.75,0.25,95,103.0
4175,C#4,315.75,0.25,95,103.0
4176,F#3,315.75,0.25,95,103.0
4177,D2,315.75,0.25,95,103.0
4178,C2,315.75,0.25,95,103.0
4179,B-3,316.0,0.5,95,103.0
4180,F#5,316.0,0.25,95,103.0
4181,F#4,316.0,0.25,95,103.0
4182,C#4,316.0,0.25,95,103.0
4183,F#5,316.25,0.25,95,103.0
4184,F#4,316.25,0.25,95,103.0
4185,C#4,316.25,0.25,95,103.0
4186,B-2,316.5,0.25,95,103.0
4187,E1,316.5,0.25,95,103.0
4188,G#5,316.5,0.25,95,103.0
4189,G#4,316.5,0.25,95,103.0
4190,E-4,316.5,0.25,95,103.0
4191,F#3,316.5,0.25,95,103.0
4192,D2,316.5,0.25,95,103.0
4193,C2,316.5,0.25,95,103.0
4194,B-2,316.75,0.25,95,103.0
4195,F#1,316.75,0.25,95,103.0
4196,G#5,316.75,0.25,95,103.0
4197,G#4,316.75,0.25,95,103.0
4198,E-4,316.75,0.25,95,103.0
4199,F#3,316.75,0.25,95,103.0
4200,D2,316.75,0.25,95,103.0
4201,C2,316.75,0.25,95,103.0
4202,B-2,317.0,0.25,95,103.0
4203,G#5,317.0,0.25,95,103.0
4204,G#4,317.0,0.25,95,103.0
4205,E-4,317.0,0.25,95,103.0
4206,C#3,317.25,0.25,95,103.0
4207,E1,317.25,0.25,95,103.0
4208,G#5,317.25,0.25,95,103.0
4209,G#4,317.25,0.25,95,103.0
4210,E-4,317.25,0.25,95,103.0
4211,C3,317.5,0.25,95,103.0
4212,F#1,317.5,0.25,95,103.0
4213,E2,317.5,0.25,63,103.0
4214,G#5,317.5,0.25,95,103.0
4215,G#4,317.5,0.25,95,103.0
4216,E-4,317.5,0.25,95,103.0
4217,E-3,317.75,0.25,95,103.0
4218,G#1,317.75,0.25,95,103.0
4219,E2,317.75,0.25,63,103.0
4220,G#5,317.75,0.25,95,103.0
4221,G#4,317.75,0.25,95,103.0
4222,E-4,317.75,0.25,95,103.0
4223,C#3,318.0,0.25,95,103.0
4224,B-1,318.0,0.25,95,103.0
4225,E2,318.0,0.25,63,103.0
4226,G#5,318.0,0.25,95,103.0
4227,G#4,318.0,0.25,95,103.0
4228,E-4,318.0,0.25,95,103.0
4229,E3,318.25,0.25,95,103.0
4230,C2,318.25,0.5,95,103.0
4231,G#5,318.25,0.25,95,103.0
4232,G#4,318.25,0.25,95,103.0
4233,E-4,318.25,0.25,95,103.0
4234,F#3,318.25,0.25,71,103.0
4235,E2,318.25,0.25,71,103.0
4236,E-3,318.5,0.25,95,103.0
4237,G#5,318.5,0.25,95,103.0
4238,G#4,318.5,0.25,95,103.0
4239,E-4,318.5,0.25,95,103.0
4240,F#3,318.75,0.5,95,103.0
4241,B-1,318.75,0.25,95,103.0
4242,E2,318.75,0.25,63,103.0
4243,G#5,318.75,0.25,95,103.0
4244,G#4,318.75,0.25,95,103.0
4245,E-4,318.75,0.25,95,103.0
4246,G#1,319.0,0.25,95,103.0
4247,E2,319.0,0.25,63,103.0
4248,G#5,319.0,0.25,95,103.0
4249,G#4,319.0,0.25,95,103.0
4250,E-4,319.0,0.25,95,103.0
4251,F#1,319.25,0.25,95,103.0
4252,E2,319.25,0.25,63,103.0
4253,G#5,319.25,0.25,95,103.0
4254,G#4,319.25,0.25,95,103.0
4255,E-4,319.25,0.25,95,103.0
4256,E1,319.5,0.75,95,103.0
4257,G#5,319.5,0.25,95,103.0
4258,G#4,319.5,0.25,95,103.0
4259,E-4,319.5,0.25,95,103.0
4260,F#3,319.5,0.25,71,103.0
4261,E2,319.5,0.25,71,103.0
4262,G#5,319.75,0.25,95,103.0
4263,G#4,319.75,0.25,95,103.0
4264,E-4,319.75,0.25,95,103.0
4265,G#5,320.0,0.25,95,103.0
4266,G#4,320.0,0.25,95,103.0
4267,E-4,320.0,0.25,95,103.0
4268,E1,320.25,0.25,95,103.0
4269,G3,320.25,53/1000,95,103.0
4270,D3,320.25,53/1000,95,103.0
4271,A2,320.25,53/1000,95,103.0
4272,G#5,320.25,0.25,95,103.0
4273,G#4,320.25,0.25,95,103.0
4274,E-4,320.25,0.25,95,103.0
4275,C#5,320.375,0.125,95,103.0
4276,C#5,320.5,1.0,95,103.0
4277,F#1,320.5,0.25,95,103.0
4278,G#5,320.5,0.25,95,103.0
4279,G#4,320.5,0.25,95,103.0
4280,E-4,320.5,0.25,95,103.0
4281,F#3,320.5,0.25,95,103.0
4282,D2,320.5,0.25,95,103.0
4283,C2,320.5,0.25,95,103.0
4284,G#1,320.75,0.25,95,103.0
4285,G#5,320.75,0.25,95,103.0
4286,G#4,320.75,0.25,95,103.0
4287,E-4,320.75,0.25,95,103.0
4288,F#3,320.75,0.25,95,103.0
4289,D2,320.75,0.25,95,103.0
4290,C2,320.75,0.25,95,103.0
4291,F#3,321.0,0.25,31,103.0
4292,G#5,321.0,0.25,95,103.0
4293,G#4,321.0,0.25,95,103.0
4294,E-4,321.0,0.25,95,103.0
4295,F#3,321.25,0.25,31,103.0
4296,G#5,321.25,0.25,95,103.0
4297,G#4,321.25,0.25,95,103.0
4298,E-4,321.25,0.25,95,103.0
4299,C#5,321.5,0.5,95,103.0
4300,F#3,321.5,0.25,47,103.0
4301,G#5,321.5,0.25,95,103.0
4302,G#4,321.5,0.25,95,103.0
4303,E-4,321.5,0.25,95,103.0
4304,F#3,321.75,0.25,47,103.0
4305,G#5,321.75,0.25,95,103.0
4306,G#4,321.75,0.25,95,103.0
4307,E-4,321.75,0.25,95,103.0
4308,C5,322.0,0.25,95,103.0
4309,F#3,322.0,0.25,47,103.0
4310,G#5,322.0,0.25,95,103.0
4311,G#4,322.0,0.25,95,103.0
4312,E-4,322.0,0.25,95,103.0
4313,B-4,322.25,0.25,95,103.0
4314,F#3,322.25,0.25,47,103.0
4315,G#5,322.25,0.25,95,103.0
4316,G#4,322.25,0.25,95,103.0
4317,E-4,322.25,0.25,95,103.0
4318,G#4,322.5,0.25,95,103.0
4319,F#3,322.5,0.25,47,103.0
4320,G#5,322.5,0.25,95,103.0
4321,G#4,322.5,0.25,95,103.0
4322,E-4,322.5,0.25,95,103.0
4323,C#5,322.75,0.25,95,103.0
4324,F#3,322.75,0.25,47,103.0
4325,G#5,322.75,0.25,95,103.0
4326,G#4,322.75,0.25,95,103.0
4327,E-4,322.75,0.25,95,103.0
4328,C5,323.0,0.25,95,103.0
4329,F#3,323.0,0.25,47,103.0
4330,G#5,323.0,0.25,95,103.0
4331,G#4,323.0,0.25,95,103.0
4332,E-4,323.0,0.25,95,103.0
4333,G#4,323.25,0.25,95,103.0
4334,F#3,323.25,0.25,47,103.0
4335,G#5,323.25,0.25,95,103.0
4336,G#4,323.25,0.25,95,103.0
4337,E-4,323.25,0.25,95,103.0
4338,G#4,323.5,1.0,95,103.0
4339,F#1,323.5,0.25,95,103.0
4340,G#5,323.5,0.25,95,103.0
4341,G#4,323.5,0.25,95,103.0
4342,E-4,323.5,0.25,95,103.0
4343,F#3,323.5,0.25,95,103.0
4344,D2,323.5,0.25,95,103.0
4345,C2,323.5,0.25,95,103.0
4346,G#1,323.75,0.25,95,103.0
4347,G#5,323.75,0.25,95,103.0
4348,G#4,323.75,0.25,95,103.0
4349,E-4,323.75,0.25,95,103.0
4350,F#3,323.75,0.25,95,103.0
4351,D2,323.75,0.25,95,103.0
4352,C2,323.75,0.25,95,103.0
4353,G#5,324.0,0.25,95,103.0
4354,G#4,324.0,0.25,95,103.0
4355,E-4,324.0,0.25,95,103.0
4356,G#5,324.25,0.25,95,103.0
4357,G#4,324.25,0.25,95,103.0
4358,E-4,324.25,0.25,95,103.0
4359,G#4,324.5,0.25,95,103.0
4360,E1,324.5,0.25,95,103.0
4361,F#5,324.5,0.25,95,103.0
4362,F#4,324.5,0.25,95,103.0
4363,C#4,324.5,0.25,95,103.0
4364,F#3,324.5,0.25,95,103.0
4365,D2,324.5,0.25,95,103.0
4366,C2,324.5,0.25,95,103.0
4367,C5,324.75,0.5,95,103.0
4368,F#1,324.75,0.25,95,103.0
4369,F#5,324.75,0.25,95,103.0
4370,F#4,324.75,0.25,95,103.0
4371,C#4,324.75,0.25,95,103.0
4372,F#3,324.75,0.25,95,103.0
4373,D2,324.75,0.25,95,103.0
4374,C2,324.75,0.25,95,103.0
4375,F#5,325.0,0.25,95,103.0
4376,F#4,325.0,0.25,95,103.0
4377,C#4,325.0,0.25,95,103.0
4378,B-4,325.25,0.125,95,103.0
4379,F#5,325.25,0.25,95,103.0
4380,F#4,325.25,0.25,95,103.0
4381,C#4,325.25,0.25,95,103.0
4382,G#4,325.375,0.125,95,103.0
4383,C5,325.5,0.5,95,103.0
4384,E2,325.5,0.25,95,103.0
4385,F#5,325.5,0.25,95,103.0
4386,F#4,325.5,0.25,95,103.0
4387,C#4,325.5,0.25,95,103.0
4388,F#3,325.5,0.25,63,103.0
4389,E2,325.5,0.25,63,103.0
4390,C2,325.5,0.25,63,103.0
4391,E-2,325.75,0.25,95,103.0
4392,F#5,325.75,0.25,95,103.0
4393,F#4,325.75,0.25,95,103.0
4394,C#4,325.75,0.25,95,103.0
4395,F#3,325.75,0.25,63,103.0
4396,E2,325.75,0.25,63,103.0
4397,C2,325.75,0.25,63,103.0
4398,B-4,326.0,0.125,95,103.0
4399,C#2,326.0,0.25,95,103.0
4400,F#5,326.0,0.25,95,103.0
4401,F#4,326.0,0.25,95,103.0
4402,C#4,326.0,0.25,95,103.0
4403,F#3,326.0,0.25,63,103.0
4404,E2,326.0,0.25,63,103.0
4405,C2,326.0,0.25,63,103.0
4406,G#4,326.125,0.125,95,103.0
4407,C5,326.25,0.5,95,103.0
4408,C2,326.25,0.75,95,103.0
4409,F#5,326.25,0.25,95,103.0
4410,F#4,326.25,0.25,95,103.0
4411,C#4,326.25,0.25,95,103.0
4412,F#3,326.25,0.25,63,103.0
4413,E2,326.25,0.25,63,103.0
4414,C2,326.25,0.25,63,103.0
4415,F#5,326.5,0.25,95,103.0
4416,F#4,326.5,0.25,95,103.0
4417,C#4,326.5,0.25,95,103.0
4418,B-4,326.75,0.125,95,103.0
4419,F#5,326.75,0.25,95,103.0
4420,F#4,326.75,0.25,95,103.0
4421,C#4,326.75,0.25,95,103.0
4422,G#4,326.875,0.125,95,103.0
4423,C#5,327.0,2.0,95,103.0
4424,F#1,327.0,0.25,95,103.0
4425,F#5,327.0,0.25,95,103.0
4426,F#4,327.0,0.25,95,103.0
4427,C#4,327.0,0.25,95,103.0
4428,F#3,327.0,0.25,95,103.0
4429,D2,327.0,0.25,95,103.0
4430,C2,327.0,0.25,95,103.0
4431,G#1,327.25,0.25,95,103.0
4432,F#5,327.25,0.25,95,103.0
4433,F#4,327.25,0.25,95,103.0
4434,C#4,327.25,0.25,95,103.0
4435,F#3,327.25,0.25,95,103.0
4436,D2,327.25,0.25,95,103.0
4437,C2,327.25,0.25,95,103.0
4438,F#3,327.5,0.25,31,103.0
4439,F#5,327.5,0.25,95,103.0
4440,F#4,327.5,0.25,95,103.0
4441,C#4,327.5,0.25,95,103.0
4442,F#3,327.75,0.25,31,103.0
4443,F#5,327.75,0.25,95,103.0
4444,F#4,327.75,0.25,95,103.0
4445,C#4,327.75,0.25,95,103.0
4446,F#3,328.0,0.25,47,103.0
4447,F#5,328.0,0.25,95,103.0
4448,F#4,328.0,0.25,95,103.0
4449,C#4,328.0,0.25,95,103.0
4450,F#3,328.25,0.25,47,103.0
4451,F#5,328.25,0.25,95,103.0
4452,F#4,328.25,0.25,95,103.0
4453,C#4,328.25,0.25,95,103.0
4454,F#3,328.5,0.25,47,103.0
4455,F#5,328.5,0.25,95,103.0
4456,F#4,328.5,0.25,95,103.0
4457,C#4,328.5,0.25,95,103.0
4458,F#3,328.75,0.25,47,103.0
4459,F#5,328.75,0.25,95,103.0
4460,F#4,328.75,0.25,95,103.0
4461,C#4,328.75,0.25,95,103.0
4462,E4,329.0,333/1000,95,103.0
4463,F#3,329.0,0.25,47,103.0
4464,F#5,329.0,0.25,95,103.0
4465,F#4,329.0,0.25,95,103.0
4466,C#4,329.0,0.25,95,103.0
4467,F#3,329.25,0.25,47,103.0
4468,F#5,329.25,0.25,95,103.0
4469,F#4,329.25,0.25,95,103.0
4470,C#4,329.25,0.25,95,103.0
4471,E-5,329.333,333/1000,95,103.0
4472,F#3,329.5,0.25,47,103.0
4473,F#5,329.5,0.25,95,103.0
4474,F#4,329.5,0.25,95,103.0
4475,C#4,329.5,0.25,95,103.0
4476,E5,329.667,333/1000,95,103.0
4477,F#3,329.75,0.25,47,103.0
4478,F#5,329.75,0.25,95,103.0
4479,F#4,329.75,0.25,95,103.0
4480,C#4,329.75,0.25,95,103.0
4481,F#5,330.0,333/1000,95,103.0
4482,F#1,330.0,0.25,95,103.0
4483,F#5,330.0,0.25,95,103.0
4484,F#4,330.0,0.25,95,103.0
4485,C#4,330.0,0.25,95,103.0
4486,F#3,330.0,0.25,95,103.0
4487,D2,330.0,0.25,95,103.0
4488,C2,330.0,0.25,95,103.0
4489,G#1,330.25,0.25,95,103.0
4490,F#5,330.25,0.25,95,103.0
4491,F#4,330.25,0.25,95,103.0
4492,C#4,330.25,0.25,95,103.0
4493,F#3,330.25,0.25,95,103.0
4494,D2,330.25,0.25,95,103.0
4495,C2,330.25,0.25,95,103.0
4496,E5,330.333,333/1000,95,103.0
4497,F#5,330.5,0.25,95,103.0
4498,F#4,330.5,0.25,95,103.0
4499,C#4,330.5,0.25,95,103.0
4500,F#5,330.667,333/1000,95,103.0
4501,F#5,330.75,0.25,95,103.0
4502,F#4,330.75,0.25,95,103.0
4503,C#4,330.75,0.25,95,103.0
4504,G#5,331.0,333/1000,95,103.0
4505,E1,331.0,0.25,95,103.0
4506,E5,331.0,0.25,95,103.0
4507,E4,331.0,0.25,95,103.0
4508,B3,331.0,0.25,95,103.0
4509,F#3,331.0,0.25,95,103.0
4510,D2,331.0,0.25,95,103.0
4511,C2,331.0,0.25,95,103.0
4512,F#1,331.25,0.25,95,103.0
4513,E5,331.25,0.25,95,103.0
4514,E4,331.25,0.25,95,103.0
4515,B3,331.25,0.25,95,103.0
4516,F#3,331.25,0.25,95,103.0
4517,D2,331.25,0.25,95,103.0
4518,C2,331.25,0.25,95,103.0
4519,F#5,331.333,333/1000,95,103.0
4520,E5,331.5,0.25,95,103.0
4521,E4,331.5,0.25,95,103.0
4522,B3,331.5,0.25,95,103.0
4523,G#5,331.667,0.5,95,103.0
4524,E1,331.75,0.25,95,103.0
4525,E5,331.75,0.25,95,103.0
4526,E4,331.75,0.25,95,103.0
4527,B3,331.75,0.25,95,103.0
4528,F#1,332.0,0.25,95,103.0
4529,E2,332.0,0.25,63,103.0
4530,E5,332.0,0.25,95,103.0
4531,E4,332.0,0.25,95,103.0
4532,B3,332.0,0.25,95,103.0
4533,G#5,332.167,0.125,95,103.0
4534,G#1,332.25,0.25,95,103.0
4535,E2,332.25,0.25,63,103.0
4536,E5,332.25,0.25,95,103.0
4537,E4,332.25,0.25,95,103.0
4538,B3,332.25,0.25,95,103.0
4539,G#5,332.292,0.125,95,103.0
4540,B-5,332.417,0.5,95,103.0
4541,B-1,332.5,0.25,95,103.0
4542,E2,332.5,0.25,63,103.0
4543,E5,332.5,0.25,95,103.0
4544,E4,332.5,0.25,95,103.0
4545,B3,332.5,0.25,95,103.0
4546,C2,332.75,0.5,95,103.0
4547,E5,332.75,0.25,95,103.0
4548,E4,332.75,0.25,95,103.0
4549,B3,332.75,0.25,95,103.0
4550,F#3,332.75,0.25,71,103.0
4551,E2,332.75,0.25,71,103.0
4552,B-5,332.917,0.125,95,103.0
4553,E5,333.0,0.25,95,103.0
4554,E4,333.0,0.25,95,103.0
4555,B3,333.0,0.25,95,103.0
4556,B-5,333.042,1.0,95,103.0
4557,B-1,333.25,0.25,95,103.0
4558,E2,333.25,0.25,63,103.0
4559,E5,333.25,0.25,95,103.0
4560,E4,333.25,0.25,95,103.0
4561,B3,333.25,0.25,95,103.0
4562,G#1,333.5,0.25,95,103.0
4563,E2,333.5,0.25,63,103.0
4564,E5,333.5,0.25,95,103.0
4565,E4,333.5,0.25,95,103.0
4566,B3,333.5,0.25,95,103.0
4567,F#1,333.75,0.25,95,103.0
4568,E2,333.75,0.25,63,103.0
4569,E5,333.75,0.25,95,103.0
4570,E4,333.75,0.25,95,103.0
4571,B3,333.75,0.25,95,103.0
4572,E1,334.0,0.75,95,103.0
4573,E5,334.0,0.25,95,103.0
4574,E4,334.0,0.25,95,103.0
4575,B3,334.0,0.25,95,103.0
4576,F#3,334.0,0.25,71,103.0
4577,E2,334.0,0.25,71,103.0
4578,E5,334.25,0.25,95,103.0
4579,E4,334.25,0.25,95,103.0
4580,B3,334.25,0.25,95,103.0
4581,E5,334.5,0.25,95,103.0
4582,E4,334.5,0.25,95,103.0
4583,B3,334.5,0.25,95,103.0
4584,E1,334.75,0.25,95,103.0
4585,E5,334.75,0.25,95,103.0
4586,E4,334.75,0.25,95,103.0
4587,B3,334.75,0.25,95,103.0
4588,C#6,335.0,0.75,95,103.0
4589,F#1,335.0,0.25,95,103.0
4590,E5,335.0,0.25,95,103.0
4591,E4,335.0,0.25,95,103.0
4592,B3,335.0,0.25,95,103.0
4593,F#3,335.0,0.25,95,103.0
4594,D2,335.0,0.25,95,103.0
4595,C2,335.0,0.25,95,103.0
4596,G#1,335.25,0.25,95,103.0
4597,E5,335.25,0.25,95,103.0
4598,E4,335.25,0.25,95,103.0
4599,B3,335.25,0.25,95,103.0
4600,F#3,335.25,0.25,95,103.0
4601,D2,335.25,0.25,95,103.0
4602,C2,335.25,0.25,95,103.0
4603,F#3,335.5,0.25,31,103.0
4604,E5,335.5,0.25,95,103.0
4605,E4,335.5,0.25,95,103.0
4606,B3,335.5,0.25,95,103.0
4607,B5,335.75,0.5,95,103.0
4608,F#3,335.75,0.25,31,103.0
4609,E5,335.75,0.25,95,103.0
4610,E4,335.75,0.25,95,103.0
4611,B3,335.75,0.25,95,103.0
4612,F#3,336.0,0.25,47,103.0
4613,E5,336.0,0.25,95,103.0
4614,E4,336.0,0.25,95,103.0
4615,B3,336.0,0.25,95,103.0
4616,C6,336.25,0.25,95,103.0
4617,F#3,336.25,0.25,47,103.0
4618,E5,336.25,0.25,95,103.0
4619,E4,336.25,0.25,95,103.0
4620,B3,336.25,0.25,95,103.0
4621,G#5,336.5,0.25,95,103.0
4622,F#3,336.5,0.25,47,103.0
4623,E5,336.5,0.25,95,103.0
4624,E4,336.5,0.25,95,103.0
4625,B3,336.5,0.25,95,103.0
4626,E-5,336.75,0.25,95,103.0
4627,F#3,336.75,0.25,47,103.0
4628,E5,336.75,0.25,95,103.0
4629,E4,336.75,0.25,95,103.0
4630,B3,336.75,0.25,95,103.0
4631,G#5,337.0,0.25,95,103.0
4632,F#3,337.0,0.25,47,103.0
4633,E5,337.0,0.25,95,103.0
4634,E4,337.0,0.25,95,103.0
4635,B3,337.0,0.25,95,103.0
4636,E-5,337.25,0.25,95,103.0
4637,F#3,337.25,0.25,47,103.0
4638,E5,337.25,0.25,95,103.0
4639,E4,337.25,0.25,95,103.0
4640,B3,337.25,0.25,95,103.0
4641,C#5,337.5,0.25,95,103.0
4642,F#3,337.5,0.25,47,103.0
4643,E5,337.5,0.25,95,103.0
4644,E4,337.5,0.25,95,103.0
4645,B3,337.5,0.25,95,103.0
4646,G#4,337.75,0.25,95,103.0
4647,F#3,337.75,0.25,47,103.0
4648,E5,337.75,0.25,95,103.0
4649,E4,337.75,0.25,95,103.0
4650,B3,337.75,0.25,95,103.0
4651,E4,338.0,0.25,95,103.0
4652,F#1,338.0,0.25,95,103.0
4653,E5,338.0,0.25,95,103.0
4654,E4,338.0,0.25,95,103.0
4655,B3,338.0,0.25,95,103.0
4656,F#3,338.0,0.25,95,103.0
4657,D2,338.0,0.25,95,103.0
4658,C2,338.0,0.25,95,103.0
4659,E-4,338.25,0.25,95,103.0
4660,G#1,338.25,0.25,95,103.0
4661,E5,338.25,0.25,95,103.0
4662,E4,338.25,0.25,95,103.0
4663,B3,338.25,0.25,95,103.0
4664,F#3,338.25,0.25,95,103.0
4665,D2,338.25,0.25,95,103.0
4666,C2,338.25,0.25,95,103.0
4667,C#4,338.5,0.25,95,103.0
4668,E5,338.5,0.25,95,103.0
4669,E4,338.5,0.25,95,103.0
4670,B3,338.5,0.25,95,103.0
4671,C4,338.75,0.25,95,103.0
4672,E5,338.75,0.25,95,103.0
4673,E4,338.75,0.25,95,103.0
4674,B3,338.75,0.25,95,103.0
4675,B-3,339.0,0.25,95,103.0
4676,E1,339.0,0.25,95,103.0
4677,F#5,339.0,0.25,95,103.0
4678,F#4,339.0,0.25,95,103.0
4679,C#4,339.0,0.25,95,103.0
4680,F#3,339.0,0.25,95,103.0
4681,D2,339.0,0.25,95,103.0
4682,C2,339.0,0.25,95,103.0
4683,G#3,339.25,0.5,95,103.0
4684,F#1,339.25,0.25,95,103.0
4685,F#5,339.25,0.25,95,103.0
4686,F#4,339.25,0.25,95,103.0
4687,C#4,339.25,0.25,95,103.0
4688,F#3,339.25,0.25,95,103.0
4689,D2,339.25,0.25,95,103.0
4690,C2,339.25,0.25,95,103.0
4691,F#5,339.5,0.25,95,103.0
4692,F#4,339.5,0.25,95,103.0
4693,C#4,339.5,0.25,95,103.0
4694,G#3,339.75,1.75,95,103.0
4695,F#5,339.75,0.25,95,103.0
4696,F#4,339.75,0.25,95,103.0
4697,C#4,339.75,0.25,95,103.0
4698,E2,340.0,0.25,95,103.0
4699,F#5,340.0,0.25,95,103.0
4700,F#4,340.0,0.25,95,103.0
4701,C#4,340.0,0.25,95,103.0
4702,F#3,340.0,0.25,63,103.0
4703,E2,340.0,0.25,63,103.0
4704,C2,340.0,0.25,63,103.0
4705,E-2,340.25,0.25,95,103.0
4706,F#5,340.25,0.25,95,103.0
4707,F#4,340.25,0.25,95,103.0
4708,C#4,340.25,0.25,95,103.0
4709,F#3,340.25,0.25,63,103.0
4710,E2,340.25,0.25,63,103.0
4711,C2,340.25,0.25,63,103.0
4712,C#2,340.5,0.25,95,103.0
4713,F#5,340.5,0.25,95,103.0
4714,F#4,340.5,0.25,95,103.0
4715,C#4,340.5,0.25,95,103.0
4716,F#3,340.5,0.25,63,103.0
4717,E2,340.5,0.25,63,103.0
4718,C2,340.5,0.25,63,103.0
4719,C2,340.75,0.75,95,103.0
4720,F#5,340.75,0.25,95,103.0
4721,F#4,340.75,0.25,95,103.0
4722,C#4,340.75,0.25,95,103.0
4723,F#3,340.75,0.25,63,103.0
4724,E2,340.75,0.25,63,103.0
4725,C2,340.75,0.25,63,103.0
4726,F#5,341.0,0.25,95,103.0
4727,F#4,341.0,0.25,95,103.0
4728,C#4,341.0,0.25,95,103.0
4729,F#5,341.25,0.25,95,103.0
4730,F#4,341.25,0.25,95,103.0
4731,C#4,341.25,0.25,95,103.0
4732,G#3,341.5,0.25,95,103.0
4733,F#1,341.5,0.25,95,103.0
4734,F#5,341.5,0.25,95,103.0
4735,F#4,341.5,0.25,95,103.0
4736,C#4,341.5,0.25,95,103.0
4737,F#3,341.5,0.25,95,103.0
4738,D2,341.5,0.25,95,103.0
4739,C2,341.5,0.25,95,103.0
4740,F#3,341.75,0.125,95,103.0
4741,G#1,341.75,0.25,95,103.0
4742,F#5,341.75,0.25,95,103.0
4743,F#4,341.75,0.25,95,103.0
4744,C#4,341.75,0.25,95,103.0
4745,F#3,341.75,0.25,95,103.0
4746,D2,341.75,0.25,95,103.0
4747,C2,341.75,0.25,95,103.0
4748,F#3,341.875,0.125,95,103.0
4749,F#3,342.0,0.125,95,103.0
4750,F#3,342.0,0.25,31,103.0
4751,F#5,342.0,0.25,95,103.0
4752,F#4,342.0,0.25,95,103.0
4753,C#4,342.0,0.25,95,103.0
4754,F#3,342.125,31/250,95,103.0
4755,G#3,342.25,0.125,95,103.0
4756,F#3,342.25,0.25,31,103.0
4757,F#5,342.25,0.25,95,103.0
4758,F#4,342.25,0.25,95,103.0
4759,C#4,342.25,0.25,95,103.0
4760,G#3,342.375,0.125,95,103.0
4761,G#3,342.5,0.125,95,103.0
4762,F#3,342.5,0.25,47,103.0
4763,F#5,342.5,0.25,95,103.0
4764,F#4,342.5,0.25,95,103.0
4765,C#4,342.5,0.25,95,103.0
4766,G#3,342.625,31/250,95,103.0
4767,C4,342.75,0.125,95,103.0
4768,F#3,342.75,0.25,47,103.0
4769,F#5,342.75,0.25,95,103.0
4770,F#4,342.75,0.25,95,103.0
4771,C#4,342.75,0.25,95,103.0
4772,C4,342.875,0.125,95,103.0
4773,C4,343.0,0.125,95,103.0
4774,F#3,343.0,0.25,47,103.0
4775,F#5,343.0,0.25,95,103.0
4776,F#4,343.0,0.25,95,103.0
4777,C#4,343.0,0.25,95,103.0
4778,C4,343.125,31/250,95,103.0
4779,C#4,343.25,0.125,95,103.0
4780,F#3,343.25,0.25,47,103.0
4781,F#5,343.25,0.25,95,103.0
4782,F#4,343.25,0.25,95,103.0
4783,C#4,343.25,0.25,95,103.0
4784,C#4,343.375,0.125,95,103.0
4785,C#4,343.5,0.125,95,103.0
4786,F#3,343.5,0.25,47,103.0
4787,F#5,343.5,0.25,95,103.0
4788,F#4,343.5,0.25,95,103.0
4789,C#4,343.5,0.25,95,103.0
4790,C#4,343.625,31/250,95,103.0
4791,E-4,343.75,0.125,95,103.0
4792,F#3,343.75,0.25,47,103.0
4793,F#5,343.75,0.25,95,103.0
4794,F#4,343.75,0.25,95,103.0
4795,C#4,343.75,0.25,95,103.0
4796,E-4,343.875,0.125,95,103.0
4797,E-4,344.0,0.125,95,103.0
4798,F#3,344.0,0.25,47,103.0
4799,F#5,344.0,0.25,95,103.0
4800,F#4,344.0,0.25,95,103.0
4801,C#4,344.0,0.25,95,103.0
4802,E-4,344.125,31/250,95,103.0
4803,E4,344.25,0.125,95,103.0
4804,F#3,344.25,0.25,47,103.0
4805,F#5,344.25,0.25,95,103.0
4806,F#4,344.25,0.25,95,103.0
4807,C#4,344.25,0.25,95,103.0
4808,E4,344.375,0.125,95,103.0
4809,E4,344.5,0.125,95,103.0
4810,F#1,344.5,0.25,95,103.0
4811,F#5,344.5,0.25,95,103.0
4812,F#4,344.5,0.25,95,103.0
4813,C#4,344.5,0.25,95,103.0
4814,F#3,344.5,0.25,95,103.0
4815,D2,344.5,0.25,95,103.0
4816,C2,344.5,0.25,95,103.0
4817,E4,344.625,31/250,95,103.0
4818,G#4,344.75,0.125,95,103.0
4819,G#1,344.75,0.25,95,103.0
4820,F#5,344.75,0.25,95,103.0
4821,F#4,344.75,0.25,95,103.0
4822,C#4,344.75,0.25,95,103.0
4823,F#3,344.75,0.25,95,103.0
4824,D2,344.75,0.25,95,103.0
4825,C2,344.75,0.25,95,103.0
4826,G#4,344.875,0.125,95,103.0
4827,G#4,345.0,0.125,95,103.0
4828,F#5,345.0,0.25,95,103.0
4829,F#4,345.0,0.25,95,103.0
4830,C#4,345.0,0.25,95,103.0
4831,G#4,345.125,31/250,95,103.0
4832,B-4,345.25,0.125,95,103.0
4833,F#5,345.25,0.25,95,103.0
4834,F#4,345.25,0.25,95,103.0
4835,C#4,345.25,0.25,95,103.0
4836,B-4,345.375,0.125,95,103.0
4837,B-4,345.5,0.125,95,103.0
4838,E1,345.5,0.25,95,103.0
4839,G#5,345.5,0.25,95,103.0
4840,G#4,345.5,0.25,95,103.0
4841,E-4,345.5,0.25,95,103.0
4842,F#3,345.5,0.25,95,103.0
4843,D2,345.5,0.25,95,103.0
4844,C2,345.5,0.25,95,103.0
4845,B-4,345.625,31/250,95,103.0
4846,C5,345.75,0.125,95,103.0
4847,F#1,345.75,0.25,95,103.0
4848,G#5,345.75,0.25,95,103.0
4849,G#4,345.75,0.25,95,103.0
4850,E-4,345.75,0.25,95,103.0
4851,F#3,345.75,0.25,95,103.0
4852,D2,345.75,0.25,95,103.0
4853,C2,345.75,0.25,95,103.0
4854,C5,345.875,0.125,95,103.0
4855,C5,346.0,0.125,95,103.0
4856,G#5,346.0,0.25,95,103.0
4857,G#4,346.0,0.25,95,103.0
4858,E-4,346.0,0.25,95,103.0
4859,C5,346.125,31/250,95,103.0
4860,F#5,346.25,1.5,95,103.0
4861,E1,346.25,0.25,95,103.0
4862,G#5,346.25,0.25,95,103.0
4863,G#4,346.25,0.25,95,103.0
4864,E-4,346.25,0.25,95,103.0
4865,F#1,346.5,0.25,95,103.0
4866,E2,346.5,0.25,63,103.0
4867,G#5,346.5,0.25,95,103.0
4868,G#4,346.5,0.25,95,103.0
4869,E-4,346.5,0.25,95,103.0
4870,G#1,346.75,0.25,95,103.0
4871,E2,346.75,0.25,63,103.0
4872,G#5,346.75,0.25,95,103.0
4873,G#4,346.75,0.25,95,103.0
4874,E-4,346.75,0.25,95,103.0
4875,B-1,347.0,0.25,95,103.0
4876,E2,347.0,0.25,63,103.0
4877,G#5,347.0,0.25,95,103.0
4878,G#4,347.0,0.25,95,103.0
4879,E-4,347.0,0.25,95,103.0
4880,C2,347.25,0.5,95,103.0
4881,G#5,347.25,0.25,95,103.0
4882,G#4,347.25,0.25,95,103.0
4883,E-4,347.25,0.25,95,103.0
4884,F#3,347.25,0.25,71,103.0
4885,E2,347.25,0.25,71,103.0
4886,G#5,347.5,0.25,95,103.0
4887,G#4,347.5,0.25,95,103.0
4888,E-4,347.5,0.25,95,103.0
4889,B-1,347.75,0.25,95,103.0
4890,E2,347.75,0.25,63,103.0
4891,G#5,347.75,0.25,95,103.0
4892,G#4,347.75,0.25,95,103.0
4893,E-4,347.75,0.25,95,103.0
4894,G#1,348.0,0.25,95,103.0
4895,E2,348.0,0.25,63,103.0
4896,G#5,348.0,0.25,95,103.0
4897,G#4,348.0,0.25,95,103.0
4898,E-4,348.0,0.25,95,103.0
4899,F#1,348.25,0.25,95,103.0
4900,E2,348.25,0.25,63,103.0
4901,G#5,348.25,0.25,95,103.0
4902,G#4,348.25,0.25,95,103.0
4903,E-4,348.25,0.25,95,103.0
4904,E1,348.5,0.75,95,103.0
4905,G#5,348.5,0.25,95,103.0
4906,G#4,348.5,0.25,95,103.0
4907,E-4,348.5,0.25,95,103.0
4908,F#3,348.5,0.25,71,103.0
4909,E2,348.5,0.25,71,103.0
4910,G#5,348.75,0.25,95,103.0
4911,G#4,348.75,0.25,95,103.0
4912,E-4,348.75,0.25,95,103.0
4913,G#5,349.0,0.25,95,103.0
4914,G#4,349.0,0.25,95,103.0
4915,E-4,349.0,0.25,95,103.0
4916,E1,349.25,0.25,95,103.0
4917,G#5,349.25,0.25,95,103.0
4918,G#4,349.25,0.25,95,103.0
4919,E-4,349.25,0.25,95,103.0
4920,F#1,349.5,0.25,95,103.0
4921,G#5,349.5,0.25,95,103.0
4922,G#4,349.5,0.25,95,103.0
4923,E-4,349.5,0.25,95,103.0
4924,F#3,349.5,0.25,95,103.0
4925,D2,349.5,0.25,95,103.0
4926,C2,349.5,0.25,95,103.0
4927,E5,349.75,0.25,95,103.0
4928,G#1,349.75,0.25,95,103.0
4929,G#5,349.75,0.25,95,103.0
4930,G#4,349.75,0.25,95,103.0
4931,E-4,349.75,0.25,95,103.0
4932,F#3,349.75,0.25,95,103.0
4933,D2,349.75,0.25,95,103.0
4934,C2,349.75,0.25,95,103.0
4935,E5,350.0,83/1000,95,103.0
4936,F#3,350.0,0.25,31,103.0
4937,G#5,350.0,0.25,95,103.0
4938,G#4,350.0,0.25,95,103.0
4939,E-4,350.0,0.25,95,103.0
4940,F#5,350.083,83/1000,95,103.0
4941,E5,350.167,83/1000,70,103.0
4942,E-5,350.25,0.25,95,103.0
4943,F#3,350.25,0.25,31,103.0
4944,G#5,350.25,0.25,95,103.0
4945,G#4,350.25,0.25,95,103.0
4946,E-4,350.25,0.25,95,103.0
4947,E-5,350.5,0.25,95,103.0
4948,G#5,350.5,0.25,95,103.0
4949,G#4,350.5,0.25,95,103.0
4950,E-4,350.5,0.25,95,103.0
4951,F#3,350.5,0.25,71,103.0
4952,E2,350.5,0.25,71,103.0
4953,E-5,350.75,83/1000,95,103.0
4954,F#3,350.75,0.25,47,103.0
4955,G#5,350.75,0.25,95,103.0
4956,G#4,350.75,0.25,95,103.0
4957,E-4,350.75,0.25,95,103.0
4958,E5,350.833,83/1000,95,103.0
4959,E-5,350.917,83/1000,70,103.0
4960,C#5,351.0,0.25,95,103.0
4961,F#3,351.0,0.25,47,103.0
4962,G#5,351.0,0.25,95,103.0
4963,G#4,351.0,0.25,95,103.0
4964,E-4,351.0,0.25,95,103.0
4965,C#5,351.25,0.25,95,103.0
4966,F#3,351.25,0.25,47,103.0
4967,G#5,351.25,0.25,95,103.0
4968,G#4,351.25,0.25,95,103.0
4969,E-4,351.25,0.25,95,103.0
4970,C#5,351.5,83/1000,95,103.0
4971,F#3,351.5,0.25,47,103.0
4972,G#5,351.5,0.25,95,103.0
4973,G#4,351.5,0.25,95,103.0
4974,E-4,351.5,0.25,95,103.0
4975,E-5,351.583,83/1000,95,103.0
4976,C#5,351.667,83/1000,70,103.0
4977,C5,351.75,0.25,95,103.0
4978,F#3,351.75,0.25,47,103.0
4979,G#5,351.75,0.25,95,103.0
4980,G#4,351.75,0.25,95,103.0
4981,E-4,351.75,0.25,95,103.0
4982,C5,352.0,0.25,95,103.0
4983,F#3,352.0,0.25,47,103.0
4984,G#5,352.0,0.25,95,103.0
4985,G#4,352.0,0.25,95,103.0
4986,E-4,352.0,0.25,95,103.0
4987,C5,352.25,83/1000,95,103.0
4988,F#3,352.25,0.25,47,103.0
4989,G#5,352.25,0.25,95,103.0
4990,G#4,352.25,0.25,95,103.0
4991,E-4,352.25,0.25,95,103.0
4992,C#5,352.333,83/1000,95,103.0
4993,C5,352.417,83/1000,70,103.0
4994,B-4,352.5,0.25,95,103.0
4995,F#1,352.5,0.25,95,103.0
4996,G#5,352.5,0.25,95,103.0
4997,G#4,352.5,0.25,95,103.0
4998,E-4,352.5,0.25,95,103.0
4999,F#3,352.5,0.25,95,103.0
5000,D2,352.5,0.25,95,103.0
5001,C2,352.5,0.25,95,103.0
5002,B-4,352.75,0.25,95,103.0
5003,G#1,352.75,0.25,95,103.0
5004,G#5,352.75,0.25,95,103.0
5005,G#4,352.75,0.25,95,103.0
5006,E-4,352.75,0.25,95,103.0
5007,F#3,352.75,0.25,95,103.0
5008,D2,352.75,0.25,95,103.0
5009,C2,352.75,0.25,95,103.0
5010,B-4,353.0,83/1000,95,103.0
5011,G#5,353.0,0.25,95,103.0
5012,G#4,353.0,0.25,95,103.0
5013,E-4,353.0,0.25,95,103.0
5014,C5,353.083,83/1000,95,103.0
5015,B-4,353.167,83/1000,70,103.0
5016,G#4,353.25,0.25,95,103.0
5017,G#5,353.25,0.25,95,103.0
5018,G#4,353.25,0.25,95,103.0
5019,E-4,353.25,0.25,95,103.0
5020,G#4,353.5,0.25,95,103.0
5021,E1,353.5,0.25,95,103.0
5022,F#5,353.5,0.25,95,103.0
5023,F#4,353.5,0.25,95,103.0
5024,C#4,353.5,0.25,95,103.0
5025,F#3,353.5,0.25,95,103.0
5026,D2,353.5,0.25,95,103.0
5027,C2,353.5,0.25,95,103.0
5028,G#4,353.75,83/1000,95,103.0
5029,F#1,353.75,0.25,95,103.0
5030,F#5,353.75,0.25,95,103.0
5031,F#4,353.75,0.25,95,103.0
5032,C#4,353.75,0.25,95,103.0
5033,F#3,353.75,0.25,95,103.0
5034,D2,353.75,0.25,95,103.0
5035,C2,353.75,0.25,95,103.0
5036,B-4,353.833,83/1000,95,103.0
5037,G#4,353.917,83/1000,70,103.0
5038,F#4,354.0,0.25,95,103.0
5039,F#5,354.0,0.25,95,103.0
5040,F#4,354.0,0.25,95,103.0
5041,C#4,354.0,0.25,95,103.0
5042,F#4,354.25,0.25,95,103.0
5043,F#5,354.25,0.25,95,103.0
5044,F#4,354.25,0.25,95,103.0
5045,C#4,354.25,0.25,95,103.0
5046,F#4,354.5,83/1000,95,103.0
5047,E2,354.5,0.25,95,103.0
5048,F#5,354.5,0.25,95,103.0
5049,F#4,354.5,0.25,95,103.0
5050,C#4,354.5,0.25,95,103.0
5051,F#3,354.5,0.25,63,103.0
5052,E2,354.5,0.25,63,103.0
5053,C2,354.5,0.25,63,103.0
5054,G#4,354.583,83/1000,95,103.0
5055,F#4,354.667,83/1000,70,103.0
5056,E4,354.75,0.25,95,103.0
5057,E-2,354.75,0.25,95,103.0
5058,F#5,354.75,0.25,95,103.0
5059,F#4,354.75,0.25,95,103.0
5060,C#4,354.75,0.25,95,103.0
5061,F#3,354.75,0.25,63,103.0
5062,E2,354.75,0.25,63,103.0
5063,C2,354.75,0.25,63,103.0
5064,E4,355.0,0.25,95,103.0
5065,C#2,355.0,0.25,95,103.0
5066,F#5,355.0,0.25,95,103.0
5067,F#4,355.0,0.25,95,103.0
5068,C#4,355.0,0.25,95,103.0
5069,F#3,355.0,0.25,63,103.0
5070,E2,355.0,0.25,63,103.0
5071,C2,355.0,0.25,63,103.0
5072,E4,355.25,83/1000,95,103.0
5073,C2,355.25,0.75,95,103.0
5074,F#5,355.25,0.25,95,103.0
5075,F#4,355.25,0.25,95,103.0
5076,C#4,355.25,0.25,95,103.0
5077,F#3,355.25,0.25,63,103.0
5078,E2,355.25,0.25,63,103.0
5079,C2,355.25,0.25,63,103.0
5080,F#4,355.333,83/1000,95,103.0
5081,E4,355.417,83/1000,70,103.0
5082,E-4,355.5,0.25,95,103.0
5083,F#5,355.5,0.25,95,103.0
5084,F#4,355.5,0.25,95,103.0
5085,C#4,355.5,0.25,95,103.0
5086,E-4,355.75,0.125,95,103.0
5087,F#5,355.75,0.25,95,103.0
5088,F#4,355.75,0.25,95,103.0
5089,C#4,355.75,0.25,95,103.0
5090,E4,355.875,0.125,95,103.0
5091,E-4,356.0,0.125,95,103.0
5092,F#1,356.0,0.25,95,103.0
5093,F#5,356.0,0.25,95,103.0
5094,F#4,356.0,0.25,95,103.0
5095,C#4,356.0,0.25,95,103.0
5096,F#3,356.0,0.25,95,103.0
5097,D2,356.0,0.25,95,103.0
5098,C2,356.0,0.25,95,103.0
5099,C#4,356.125,0.125,95,103.0
5100,E-4,356.25,0.5,95,103.0
5101,G#1,356.25,0.25,95,103.0
5102,F#5,356.25,0.25,95,103.0
5103,F#4,356.25,0.25,95,103.0
5104,C#4,356.25,0.25,95,103.0
5105,F#3,356.25,0.25,95,103.0
5106,D2,356.25,0.25,95,103.0
5107,C2,356.25,0.25,95,103.0
5108,F#3,356.5,0.25,31,103.0
5109,F#5,356.5,0.25,95,103.0
5110,F#4,356.5,0.25,95,103.0
5111,C#4,356.5,0.25,95,103.0
5112,C#4,356.75,1.5,95,103.0
5113,F#3,356.75,0.25,31,103.0
5114,F#5,356.75,0.25,95,103.0
5115,F#4,356.75,0.25,95,103.0
5116,C#4,356.75,0.25,95,103.0
5117,F#5,357.0,0.25,95,103.0
5118,F#4,357.0,0.25,95,103.0
5119,C#4,357.0,0.25,95,103.0
5120,F#3,357.0,0.25,71,103.0
5121,E2,357.0,0.25,71,103.0
5122,F#3,357.25,0.25,47,103.0
5123,F#5,357.25,0.25,95,103.0
5124,F#4,357.25,0.25,95,103.0
5125,C#4,357.25,0.25,95,103.0
5126,F#5,357.5,0.25,95,103.0
5127,F#4,357.5,0.25,95,103.0
5128,C#4,357.5,0.25,95,103.0
5129,F#3,357.5,0.25,71,103.0
5130,D2,357.5,0.25,71,103.0
5131,F#5,357.75,0.25,95,103.0
5132,F#4,357.75,0.25,95,103.0
5133,C#4,357.75,0.25,95,103.0
5134,F#3,357.75,0.25,71,103.0
5135,E2,357.75,0.25,71,103.0
5136,F#3,358.0,0.25,47,103.0
5137,F#5,358.0,0.25,95,103.0
5138,F#4,358.0,0.25,95,103.0
5139,C#4,358.0,0.25,95,103.0
5140,C4,358.25,0.5,95,103.0
5141,F#3,358.25,0.25,47,103.0
5142,F#5,358.25,0.25,95,103.0
5143,F#4,358.25,0.25,95,103.0
5144,C#4,358.25,0.25,95,103.0
5145,F#3,358.5,0.25,47,103.0
5146,F#5,358.5,0.25,95,103.0
5147,F#4,358.5,0.25,95,103.0
5148,C#4,358.5,0.25,95,103.0
5149,G#3,358.75,0.25,95,103.0
5150,F#3,358.75,0.25,47,103.0
5151,F#5,358.75,0.25,95,103.0
5152,F#4,358.75,0.25,95,103.0
5153,C#4,358.75,0.25,95,103.0
5154,F#3,359.0,0.25,95,103.0
5155,F#1,359.0,0.25,95,103.0
5156,F#5,359.0,0.25,95,103.0
5157,F#4,359.0,0.25,95,103.0
5158,C#4,359.0,0.25,95,103.0
5159,F#3,359.0,0.25,95,103.0
5160,D2,359.0,0.25,95,103.0
5161,C2,359.0,0.25,95,103.0
5162,C4,359.25,0.5,95,103.0
5163,G#1,359.25,0.25,95,103.0
5164,F#5,359.25,0.25,95,103.0
5165,F#4,359.25,0.25,95,103.0
5166,C#4,359.25,0.25,95,103.0
5167,F#3,359.25,0.25,95,103.0
5168,D2,359.25,0.25,95,103.0
5169,C2,359.25,0.25,95,103.0
5170,F#5,359.5,0.25,95,103.0
5171,F#4,359.5,0.25,95,103.0
5172,C#4,359.5,0.25,95,103.0
5173,G#3,359.75,0.25,95,103.0
5174,F#5,359.75,0.25,95,103.0
5175,F#4,359.75,0.25,95,103.0
5176,C#4,359.75,0.25,95,103.0
5177,F#3,360.0,0.25,95,103.0
5178,E1,360.0,0.25,95,103.0
5179,E5,360.0,0.25,95,103.0
5180,E4,360.0,0.25,95,103.0
5181,B3,360.0,0.25,95,103.0
5182,F#3,360.0,0.25,95,103.0
5183,D2,360.0,0.25,95,103.0
5184,C2,360.0,0.25,95,103.0
5185,C4,360.25,0.5,95,103.0
5186,F#1,360.25,0.25,95,103.0
5187,E5,360.25,0.25,95,103.0
5188,E4,360.25,0.25,95,103.0
5189,B3,360.25,0.25,95,103.0
5190,F#3,360.25,0.25,95,103.0
5191,D2,360.25,0.25,95,103.0
5192,C2,360.25,0.25,95,103.0
5193,E5,360.5,0.25,95,103.0
5194,E4,360.5,0.25,95,103.0
5195,B3,360.5,0.25,95,103.0
5196,G#3,360.75,0.25,95,103.0
5197,E1,360.75,0.25,95,103.0
5198,E5,360.75,0.25,95,103.0
5199,E4,360.75,0.25,95,103.0
5200,B3,360.75,0.25,95,103.0
5201,F#3,361.0,0.25,95,103.0
5202,F#1,361.0,0.25,95,103.0
5203,E2,361.0,0.25,63,103.0
5204,E5,361.0,0.25,95,103.0
5205,E4,361.0,0.25,95,103.0
5206,B3,361.0,0.25,95,103.0
5207,G#3,361.25,0.25,95,103.0
5208,G#1,361.25,0.25,95,103.0
5209,E2,361.25,0.25,63,103.0
5210,E5,361.25,0.25,95,103.0
5211,E4,361.25,0.25,95,103.0
5212,B3,361.25,0.25,95,103.0
5213,B-3,361.5,0.25,95,103.0
5214,B-1,361.5,0.25,95,103.0
5215,E2,361.5,0.25,63,103.0
5216,E5,361.5,0.25,95,103.0
5217,E4,361.5,0.25,95,103.0
5218,B3,361.5,0.25,95,103.0
5219,G#3,361.75,0.25,95,103.0
5220,C2,361.75,0.5,95,103.0
5221,E5,361.75,0.25,95,103.0
5222,E4,361.75,0.25,95,103.0
5223,B3,361.75,0.25,95,103.0
5224,F#3,361.75,0.25,71,103.0
5225,E2,361.75,0.25,71,103.0
5226,F#3,362.0,0.25,95,103.0
5227,E5,362.0,0.25,95,103.0
5228,E4,362.0,0.25,95,103.0
5229,B3,362.0,0.25,95,103.0
5230,G#3,362.25,0.25,95,103.0
5231,B-1,362.25,0.25,95,103.0
5232,E2,362.25,0.25,63,103.0
5233,E5,362.25,0.25,95,103.0
5234,E4,362.25,0.25,95,103.0
5235,B3,362.25,0.25,95,103.0
5236,F#3,362.5,0.25,95,103.0
5237,G#1,362.5,0.25,95,103.0
5238,E2,362.5,0.25,63,103.0
5239,E5,362.5,0.25,95,103.0
5240,E4,362.5,0.25,95,103.0
5241,B3,362.5,0.25,95,103.0
5242,G#3,362.75,1.25,95,103.0
5243,F#1,362.75,0.25,95,103.0
5244,E2,362.75,0.25,63,103.0
5245,E5,362.75,0.25,95,103.0
5246,E4,362.75,0.25,95,103.0
5247,B3,362.75,0.25,95,103.0
5248,E1,363.0,0.75,95,103.0
5249,E5,363.0,0.25,95,103.0
5250,E4,363.0,0.25,95,103.0
5251,B3,363.0,0.25,95,103.0
5252,F#3,363.0,0.25,71,103.0
5253,E2,363.0,0.25,71,103.0
5254,E5,363.25,0.25,95,103.0
5255,E4,363.25,0.25,95,103.0
5256,B3,363.25,0.25,95,103.0
5257,E5,363.5,0.25,95,103.0
5258,E4,363.5,0.25,95,103.0
5259,B3,363.5,0.25,95,103.0
5260,E1,363.75,0.25,95,103.0
5261,E5,363.75,0.25,95,103.0
5262,E4,363.75,0.25,95,103.0
5263,B3,363.75,0.25,95,103.0
5264,F#3,364.0,0.25,95,103.0
5265,F#1,364.0,0.25,95,103.0
5266,E5,364.0,0.25,95,103.0
5267,E4,364.0,0.25,95,103.0
5268,B3,364.0,0.25,95,103.0
5269,F#3,364.0,0.25,95,103.0
5270,D2,364.0,0.25,95,103.0
5271,C2,364.0,0.25,95,103.0
5272,G#3,364.25,0.25,95,103.0
5273,G#1,364.25,0.25,95,103.0
5274,E5,364.25,0.25,95,103.0
5275,E4,364.25,0.25,95,103.0
5276,B3,364.25,0.25,95,103.0
5277,F#3,364.25,0.25,95,103.0
5278,D2,364.25,0.25,95,103.0
5279,C2,364.25,0.25,95,103.0
5280,G#4,364.5,0.25,95,103.0
5281,F#3,364.5,0.25,31,103.0
5282,E5,364.5,0.25,95,103.0
5283,E4,364.5,0.25,95,103.0
5284,B3,364.5,0.25,95,103.0
5285,G#3,364.75,0.25,95,103.0
5286,E5,364.75,0.25,95,103.0
5287,E4,364.75,0.25,95,103.0
5288,B3,364.75,0.25,95,103.0
5289,F#3,364.75,0.25,63,103.0
5290,C2,364.75,0.25,63,103.0
5291,B-3,365.0,0.25,95,103.0
5292,E5,365.0,0.25,95,103.0
5293,E4,365.0,0.25,95,103.0
5294,B3,365.0,0.25,95,103.0
5295,F#3,365.0,0.25,71,103.0
5296,E2,365.0,0.25,71,103.0
5297,B-4,365.25,0.25,95,103.0
5298,E5,365.25,0.25,95,103.0
5299,E4,365.25,0.25,95,103.0
5300,B3,365.25,0.25,95,103.0
5301,F#3,365.25,0.25,71,103.0
5302,C2,365.25,0.25,71,103.0
5303,B-3,365.5,0.25,95,103.0
5304,E5,365.5,0.25,95,103.0
5305,E4,365.5,0.25,95,103.0
5306,B3,365.5,0.25,95,103.0
5307,F#3,365.5,0.25,71,103.0
5308,B1,365.5,0.25,71,103.0
5309,C4,365.75,0.25,95,103.0
5310,E5,365.75,0.25,95,103.0
5311,E4,365.75,0.25,95,103.0
5312,B3,365.75,0.25,95,103.0
5313,F#3,365.75,0.25,71,103.0
5314,E2,365.75,0.25,71,103.0
5315,C5,366.0,0.25,95,103.0
5316,F#3,366.0,0.25,47,103.0
5317,E5,366.0,0.25,95,103.0
5318,E4,366.0,0.25,95,103.0
5319,B3,366.0,0.25,95,103.0
5320,C4,366.25,0.25,95,103.0
5321,F#3,366.25,0.25,47,103.0
5322,E5,366.25,0.25,95,103.0
5323,E4,366.25,0.25,95,103.0
5324,B3,366.25,0.25,95,103.0
5325,F#3,366.5,0.25,95,103.0
5326,F#3,366.5,0.25,47,103.0
5327,E5,366.5,0.25,95,103.0
5328,E4,366.5,0.25,95,103.0
5329,B3,366.5,0.25,95,103.0
5330,F#4,366.75,0.25,95,103.0
5331,F#3,366.75,0.25,47,103.0
5332,E5,366.75,0.25,95,103.0
5333,E4,366.75,0.25,95,103.0
5334,B3,366.75,0.25,95,103.0
5335,F#3,367.0,0.25,95,103.0
5336,F#1,367.0,0.25,95,103.0
5337,E5,367.0,0.25,95,103.0
5338,E4,367.0,0.25,95,103.0
5339,B3,367.0,0.25,95,103.0
5340,F#3,367.0,0.25,95,103.0
5341,D2,367.0,0.25,95,103.0
5342,C2,367.0,0.25,95,103.0
5343,G#3,367.25,0.25,95,103.0
5344,G#1,367.25,0.25,95,103.0
5345,E5,367.25,0.25,95,103.0
5346,E4,367.25,0.25,95,103.0
5347,B3,367.25,0.25,95,103.0
5348,F#3,367.25,0.25,95,103.0
5349,D2,367.25,0.25,95,103.0
5350,C2,367.25,0.25,95,103.0
5351,G#4,367.5,0.25,95,103.0
5352,E5,367.5,0.25,95,103.0
5353,E4,367.5,0.25,95,103.0
5354,B3,367.5,0.25,95,103.0
5355,G#3,367.75,0.5,95,103.0
5356,E5,367.75,0.25,95,103.0
5357,E4,367.75,0.25,95,103.0
5358,B3,367.75,0.25,95,103.0
5359,E1,368.0,0.25,95,103.0
5360,F#5,368.0,0.25,95,103.0
5361,F#4,368.0,0.25,95,103.0
5362,C#4,368.0,0.25,95,103.0
5363,F#3,368.0,0.25,95,103.0
5364,D2,368.0,0.25,95,103.0
5365,C2,368.0,0.25,95,103.0
5366,E4,368.25,0.25,95,103.0
5367,F#1,368.25,0.25,95,103.0
5368,F#5,368.25,0.25,95,103.0
5369,F#4,368.25,0.25,95,103.0
5370,C#4,368.25,0.25,95,103.0
5371,F#3,368.25,0.25,95,103.0
5372,D2,368.25,0.25,95,103.0
5373,C2,368.25,0.25,95,103.0
5374,G#3,368.5,0.25,95,103.0
5375,F#5,368.5,0.25,95,103.0
5376,F#4,368.5,0.25,95,103.0
5377,C#4,368.5,0.25,95,103.0
5378,E3,368.75,0.25,95,103.0
5379,F#5,368.75,0.25,95,103.0
5380,F#4,368.75,0.25,95,103.0
5381,C#4,368.75,0.25,95,103.0
5382,E4,369.0,0.25,95,103.0
5383,E2,369.0,0.25,95,103.0
5384,F#5,369.0,0.25,95,103.0
5385,F#4,369.0,0.25,95,103.0
5386,C#4,369.0,0.25,95,103.0
5387,F#3,369.0,0.25,63,103.0
5388,E2,369.0,0.25,63,103.0
5389,C2,369.0,0.25,63,103.0
5390,E-4,369.25,0.25,95,103.0
5391,E-2,369.25,0.25,95,103.0
5392,F#5,369.25,0.25,95,103.0
5393,F#4,369.25,0.25,95,103.0
5394,C#4,369.25,0.25,95,103.0
5395,F#3,369.25,0.25,63,103.0
5396,E2,369.25,0.25,63,103.0
5397,C2,369.25,0.25,63,103.0
5398,C#4,369.5,0.25,95,103.0
5399,C#2,369.5,0.25,95,103.0
5400,F#5,369.5,0.25,95,103.0
5401,F#4,369.5,0.25,95,103.0
5402,C#4,369.5,0.25,95,103.0
5403,F#3,369.5,0.25,63,103.0
5404,E2,369.5,0.25,63,103.0
5405,C2,369.5,0.25,63,103.0
5406,E-4,369.75,0.25,95,103.0
5407,C2,369.75,0.75,95,103.0
5408,F#5,369.75,0.25,95,103.0
5409,F#4,369.75,0.25,95,103.0
5410,C#4,369.75,0.25,95,103.0
5411,F#3,369.75,0.25,63,103.0
5412,E2,369.75,0.25,63,103.0
5413,C2,369.75,0.25,63,103.0
5414,F#5,370.0,0.25,95,103.0
5415,F#4,370.0,0.25,95,103.0
5416,C#4,370.0,0.25,95,103.0
5417,F#5,370.25,0.25,95,103.0
5418,F#4,370.25,0.25,95,103.0
5419,C#4,370.25,0.25,95,103.0
5420,F#1,370.5,0.25,95,103.0
5421,F#5,370.5,0.25,95,103.0
5422,F#4,370.5,0.25,95,103.0
5423,C#4,370.5,0.25,95,103.0
5424,F#3,370.5,0.25,95,103.0
5425,D2,370.5,0.25,95,103.0
5426,C2,370.5,0.25,95,103.0
5427,G#1,370.75,0.25,95,103.0
5428,F#5,370.75,0.25,95,103.0
5429,F#4,370.75,0.25,95,103.0
5430,C#4,370.75,0.25,95,103.0
5431,F#3,370.75,0.25,95,103.0
5432,D2,370.75,0.25,95,103.0
5433,C2,370.75,0.25,95,103.0
5434,F#3,371.0,0.25,31,103.0
5435,F#5,371.0,0.25,95,103.0
5436,F#4,371.0,0.25,95,103.0
5437,C#4,371.0,0.25,95,103.0
5438,F#3,371.25,0.25,31,103.0
5439,F#5,371.25,0.25,95,103.0
5440,F#4,371.25,0.25,95,103.0
5441,C#4,371.25,0.25,95,103.0
5442,E-4,371.5,0.125,95,103.0
5443,F#5,371.5,0.25,95,103.0
5444,F#4,371.5,0.25,95,103.0
5445,C#4,371.5,0.25,95,103.0
5446,F#3,371.5,0.25,71,103.0
5447,E2,371.5,0.25,71,103.0
5448,E4,371.75,0.125,95,103.0
5449,F#3,371.75,0.25,47,103.0
5450,F#5,371.75,0.25,95,103.0
5451,F#4,371.75,0.25,95,103.0
5452,C#4,371.75,0.25,95,103.0
5453,E-4,372.0,0.125,95,103.0
5454,F#3,372.0,0.25,47,103.0
5455,F#5,372.0,0.25,95,103.0
5456,F#4,372.0,0.25,95,103.0
5457,C#4,372.0,0.25,95,103.0
5458,C#4,372.25,0.125,95,103.0
5459,F#3,372.25,0.25,47,103.0
5460,F#5,372.25,0.25,95,103.0
5461,F#4,372.25,0.25,95,103.0
5462,C#4,372.25,0.25,95,103.0
5463,E-4,372.5,0.125,95,103.0
5464,F#3,372.5,0.25,47,103.0
5465,F#5,372.5,0.25,95,103.0
5466,F#4,372.5,0.25,95,103.0
5467,C#4,372.5,0.25,95,103.0
5468,E4,372.75,0.25,95,103.0
5469,F#3,372.75,0.25,47,103.0
5470,F#5,372.75,0.25,95,103.0
5471,F#4,372.75,0.25,95,103.0
5472,C#4,372.75,0.25,95,103.0
5473,E-4,373.0,0.25,95,103.0
5474,F#3,373.0,0.25,47,103.0
5475,F#5,373.0,0.25,95,103.0
5476,F#4,373.0,0.25,95,103.0
5477,C#4,373.0,0.25,95,103.0
5478,C#4,373.25,0.25,95,103.0
5479,F#3,373.25,0.25,47,103.0
5480,F#5,373.25,0.25,95,103.0
5481,F#4,373.25,0.25,95,103.0
5482,C#4,373.25,0.25,95,103.0
5483,E-4,373.5,0.25,95,103.0
5484,F#1,373.5,0.25,95,103.0
5485,F#5,373.5,0.25,95,103.0
5486,F#4,373.5,0.25,95,103.0
5487,C#4,373.5,0.25,95,103.0
5488,F#3,373.5,0.25,95,103.0
5489,D2,373.5,0.25,95,103.0
5490,C2,373.5,0.25,95,103.0
5491,E4,373.75,0.25,95,103.0
5492,G#1,373.75,0.25,95,103.0
5493,F#5,373.75,0.25,95,103.0
5494,F#4,373.75,0.25,95,103.0
5495,C#4,373.75,0.25,95,103.0
5496,F#3,373.75,0.25,95,103.0
5497,D2,373.75,0.25,95,103.0
5498,C2,373.75,0.25,95,103.0
5499,E-4,374.0,0.25,95,103.0
5500,F#5,374.0,0.25,95,103.0
5501,F#4,374.0,0.25,95,103.0
5502,C#4,374.0,0.25,95,103.0
5503,C#4,374.25,0.25,95,103.0
5504,F#5,374.25,0.25,95,103.0
5505,F#4,374.25,0.25,95,103.0
5506,C#4,374.25,0.25,95,103.0
5507,E-4,374.5,0.25,95,103.0
5508,E1,374.5,0.25,95,103.0
5509,G#5,374.5,0.25,95,103.0
5510,G#4,374.5,0.25,95,103.0
5511,E-4,374.5,0.25,95,103.0
5512,F#3,374.5,0.25,95,103.0
5513,D2,374.5,0.25,95,103.0
5514,C2,374.5,0.25,95,103.0
5515,E4,374.75,0.25,95,103.0
5516,F#1,374.75,0.25,95,103.0
5517,G#5,374.75,0.25,95,103.0
5518,G#4,374.75,0.25,95,103.0
5519,E-4,374.75,0.25,95,103.0
5520,F#3,374.75,0.25,95,103.0
5521,D2,374.75,0.25,95,103.0
5522,C2,374.75,0.25,95,103.0
5523,E-4,375.0,0.25,95,103.0
5524,G#5,375.0,0.25,95,103.0
5525,G#4,375.0,0.25,95,103.0
5526,E-4,375.0,0.25,95,103.0
5527,C#4,375.25,0.25,95,103.0
5528,E1,375.25,0.25,95,103.0
5529,G#5,375.25,0.25,95,103.0
5530,G#4,375.25,0.25,95,103.0
5531,E-4,375.25,0.25,95,103.0
5532,E-4,375.5,0.125,95,103.0
5533,F#1,375.5,0.25,95,103.0
5534,E2,375.5,0.25,63,103.0
5535,G#5,375.5,0.25,95,103.0
5536,G#4,375.5,0.25,95,103.0
5537,E-4,375.5,0.25,95,103.0
5538,E4,375.625,0.125,95,103.0
5539,E-4,375.75,0.125,95,103.0
5540,G#1,375.75,0.25,95,103.0
5541,E2,375.75,0.25,63,103.0
5542,G#5,375.75,0.25,95,103.0
5543,G#4,375.75,0.25,95,103.0
5544,E-4,375.75,0.25,95,103.0
5545,C#4,375.875,0.125,95,103.0
5546,E-4,376.0,0.125,95,103.0
5547,B-1,376.0,0.25,95,103.0
5548,E2,376.0,0.25,63,103.0
5549,G#5,376.0,0.25,95,103.0
5550,G#4,376.0,0.25,95,103.0
5551,E-4,376.0,0.25,95,103.0
5552,E4,376.125,0.125,95,103.0
5553,E-4,376.25,0.125,95,103.0
5554,C2,376.25,0.5,95,103.0
5555,G#5,376.25,0.25,95,103.0
5556,G#4,376.25,0.25,95,103.0
5557,E-4,376.25,0.25,95,103.0
5558,F#3,376.25,0.25,71,103.0
5559,E2,376.25,0.25,71,103.0
5560,C#4,376.375,0.125,95,103.0
5561,E4,376.5,0.125,95,103.0
5562,G#5,376.5,0.25,95,103.0
5563,G#4,376.5,0.25,95,103.0
5564,E-4,376.5,0.25,95,103.0
5565,F#4,376.625,0.125,95,103.0
5566,E4,376.75,0.125,95,103.0
5567,B-1,376.75,0.25,95,103.0
5568,E2,376.75,0.25,63,103.0
5569,G#5,376.75,0.25,95,103.0
5570,G#4,376.75,0.25,95,103.0
5571,E-4,376.75,0.25,95,103.0
5572,E-4,376.875,0.125,95,103.0
5573,E4,377.0,0.125,95,103.0
5574,G#1,377.0,0.25,95,103.0
5575,E2,377.0,0.25,63,103.0
5576,G#5,377.0,0.25,95,103.0
5577,G#4,377.0,0.25,95,103.0
5578,E-4,377.0,0.25,95,103.0
5579,F#4,377.125,0.125,95,103.0
5580,E4,377.25,0.125,95,103.0
5581,F#1,377.25,0.25,95,103.0
5582,E2,377.25,0.25,63,103.0
5583,G#5,377.25,0.25,95,103.0
5584,G#4,377.25,0.25,95,103.0
5585,E-4,377.25,0.25,95,103.0
5586,E-4,377.375,0.125,95,103.0
5587,E4,377.5,0.125,95,103.0
5588,E1,377.5,0.75,95,103.0
5589,G#5,377.5,0.25,95,103.0
5590,G#4,377.5,0.25,95,103.0
5591,E-4,377.5,0.25,95,103.0
5592,F#3,377.5,0.25,71,103.0
5593,E2,377.5,0.25,71,103.0
5594,F#4,377.625,0.125,95,103.0
5595,E4,377.75,0.125,95,103.0
5596,G#5,377.75,0.25,95,103.0
5597,G#4,377.75,0.25,95,103.0
5598,E-4,377.75,0.25,95,103.0
5599,E-4,377.875,0.125,95,103.0
5600,E4,378.0,0.125,95,103.0
5601,G#5,378.0,0.25,95,103.0
5602,G#4,378.0,0.25,95,103.0
5603,E-4,378.0,0.25,95,103.0
5604,F#4,378.125,0.125,95,103.0
5605,E4,378.25,0.125,95,103.0
5606,E1,378.25,0.25,95,103.0
5607,G#5,378.25,0.25,95,103.0
5608,G#4,378.25,0.25,95,103.0
5609,E-4,378.25,0.25,95,103.0
5610,E-4,378.375,0.125,95,103.0
5611,F#4,378.5,0.125,95,103.0
5612,F#1,378.5,0.25,95,103.0
5613,G#5,378.5,0.25,95,103.0
5614,G#4,378.5,0.25,95,103.0
5615,E-4,378.5,0.25,95,103.0
5616,F#3,378.5,0.25,95,103.0
5617,D2,378.5,0.25,95,103.0
5618,C2,378.5,0.25,95,103.0
5619,G#4,378.625,0.125,95,103.0
5620,F#4,378.75,0.125,95,103.0
5621,G#1,378.75,0.25,95,103.0
5622,G#5,378.75,0.25,95,103.0
5623,G#4,378.75,0.25,95,103.0
5624,E-4,378.75,0.25,95,103.0
5625,F#3,378.75,0.25,95,103.0
5626,D2,378.75,0.25,95,103.0
5627,C2,378.75,0.25,95,103.0
5628,E4,378.875,0.125,95,103.0
5629,F#4,379.0,0.125,95,103.0
5630,F#3,379.0,0.25,31,103.0
5631,G#5,379.0,0.25,95,103.0
5632,G#4,379.0,0.25,95,103.0
5633,E-4,379.0,0.25,95,103.0
5634,G#4,379.125,0.125,95,103.0
5635,F#4,379.25,0.125,95,103.0
5636,F#3,379.25,0.25,31,103.0
5637,G#5,379.25,0.25,95,103.0
5638,G#4,379.25,0.25,95,103.0
5639,E-4,379.25,0.25,95,103.0
5640,E4,379.375,0.125,95,103.0
5641,F#4,379.5,0.125,95,103.0
5642,G#5,379.5,0.25,95,103.0
5643,G#4,379.5,0.25,95,103.0
5644,E-4,379.5,0.25,95,103.0
5645,F#3,379.5,0.25,71,103.0
5646,E2,379.5,0.25,71,103.0
5647,G#4,379.625,0.125,95,103.0
5648,F#4,379.75,0.125,95,103.0
5649,F#3,379.75,0.25,47,103.0
5650,G#5,379.75,0.25,95,103.0
5651,G#4,379.75,0.25,95,103.0
5652,E-4,379.75,0.25,95,103.0
5653,E4,379.875,0.125,95,103.0
5654,F#4,380.0,0.125,95,103.0
5655,F#3,380.0,0.25,47,103.0
5656,G#5,380.0,0.25,95,103.0
5657,G#4,380.0,0.25,95,103.0
5658,E-4,380.0,0.25,95,103.0
5659,G#4,380.125,0.125,95,103.0
5660,F#4,380.25,0.125,95,103.0
5661,F#3,380.25,0.25,47,103.0
5662,G#5,380.25,0.25,95,103.0
5663,G#4,380.25,0.25,95,103.0
5664,E-4,380.25,0.25,95,103.0
5665,E4,380.375,0.125,95,103.0
5666,G#4,380.5,0.125,95,103.0
5667,F#3,380.5,0.25,47,103.0
5668,G#5,380.5,0.25,95,103.0
5669,G#4,380.5,0.25,95,103.0
5670,E-4,380.5,0.25,95,103.0
5671,B-4,380.625,0.125,95,103.0
5672,G#4,380.75,0.125,95,103.0
5673,F#3,380.75,0.25,47,103.0
5674,G#5,380.75,0.25,95,103.0
5675,G#4,380.75,0.25,95,103.0
5676,E-4,380.75,0.25,95,103.0
5677,F#4,380.875,0.125,95,103.0
5678,G#4,381.0,0.125,95,103.0
5679,F#3,381.0,0.25,47,103.0
5680,G#5,381.0,0.25,95,103.0
5681,G#4,381.0,0.25,95,103.0
5682,E-4,381.0,0.25,95,103.0
5683,B-4,381.125,0.125,95,103.0
5684,G#4,381.25,0.125,95,103.0
5685,F#3,381.25,0.25,47,103.0
5686,G#5,381.25,0.25,95,103.0
5687,G#4,381.25,0.25,95,103.0
5688,E-4,381.25,0.25,95,103.0
5689,F#4,381.375,0.125,95,103.0
5690,G#4,381.5,0.125,95,103.0
5691,F#1,381.5,0.25,95,103.0
5692,G#5,381.5,0.25,95,103.0
5693,G#4,381.5,0.25,95,103.0
5694,E-4,381.5,0.25,95,103.0
5695,F#3,381.5,0.25,95,103.0
5696,D2,381.5,0.25,95,103.0
5697,C2,381.5,0.25,95,103.0
5698,B-4,381.625,0.125,95,103.0
5699,G#4,381.75,0.125,95,103.0
5700,G#1,381.75,0.25,95,103.0
5701,G#5,381.75,0.25,95,103.0
5702,G#4,381.75,0.25,95,103.0
5703,E-4,381.75,0.25,95,103.0
5704,F#3,381.75,0.25,95,103.0
5705,D2,381.75,0.25,95,103.0
5706,C2,381.75,0.25,95,103.0
5707,F#4,381.875,0.125,95,103.0
5708,G#4,382.0,0.125,95,103.0
5709,G#5,382.0,0.25,95,103.0
5710,G#4,382.0,0.25,95,103.0
5711,E-4,382.0,0.25,95,103.0
5712,B-4,382.125,0.125,95,103.0
5713,G#4,382.25,0.125,95,103.0
5714,G#5,382.25,0.25,95,103.0
5715,G#4,382.25,0.25,95,103.0
5716,E-4,382.25,0.25,95,103.0
5717,F#4,382.375,0.125,95,103.0
5718,B-4,382.5,0.125,95,103.0
5719,E1,382.5,0.25,95,103.0
5720,F#5,382.5,0.25,95,103.0
5721,F#4,382.5,0.25,95,103.0
5722,C#4,382.5,0.25,95,103.0
5723,F#3,382.5,0.25,95,103.0
5724,D2,382.5,0.25,95,103.0
5725,C2,382.5,0.25,95,103.0
5726,C5,382.625,0.125,95,103.0
5727,B-4,382.75,0.125,95,103.0
5728,F#1,382.75,0.25,95,103.0
5729,F#5,382.75,0.25,95,103.0
5730,F#4,382.75,0.25,95,103.0
5731,C#4,382.75,0.25,95,103.0
5732,F#3,382.75,0.25,95,103.0
5733,D2,382.75,0.25,95,103.0
5734,C2,382.75,0.25,95,103.0
5735,G#4,382.875,0.125,95,103.0
5736,B-4,383.0,0.125,95,103.0
5737,F#5,383.0,0.25,95,103.0
5738,F#4,383.0,0.25,95,103.0
5739,C#4,383.0,0.25,95,103.0
5740,C5,383.125,0.125,95,103.0
5741,B-4,383.25,0.125,95,103.0
5742,F#5,383.25,0.25,95,103.0
5743,F#4,383.25,0.25,95,103.0
5744,C#4,383.25,0.25,95,103.0
5745,G#4,383.375,0.125,95,103.0
5746,B-4,383.5,0.125,95,103.0
5747,E2,383.5,0.25,95,103.0
5748,F#5,383.5,0.25,95,103.0
5749,F#4,383.5,0.25,95,103.0
5750,C#4,383.5,0.25,95,103.0
5751,F#3,383.5,0.25,63,103.0
5752,E2,383.5,0.25,63,103.0
5753,C2,383.5,0.25,63,103.0
5754,C5,383.625,0.125,95,103.0
5755,B-4,383.75,0.125,95,103.0
5756,E-2,383.75,0.25,95,103.0
5757,F#5,383.75,0.25,95,103.0
5758,F#4,383.75,0.25,95,103.0
5759,C#4,383.75,0.25,95,103.0
5760,F#3,383.75,0.25,63,103.0
5761,E2,383.75,0.25,63,103.0
5762,C2,383.75,0.25,63,103.0
5763,G#4,383.875,0.125,95,103.0
5764,B-4,384.0,0.125,95,103.0
5765,C#2,384.0,0.25,95,103.0
5766,F#5,384.0,0.25,95,103.0
5767,F#4,384.0,0.25,95,103.0
5768,C#4,384.0,0.25,95,103.0
5769,F#3,384.0,0.25,63,103.0
5770,E2,384.0,0.25,63,103.0
5771,C2,384.0,0.25,63,103.0
5772,C5,384.125,0.125,95,103.0
5773,B-4,384.25,0.125,95,103.0
5774,C2,384.25,0.75,95,103.0
5775,F#5,384.25,0.25,95,103.0
5776,F#4,384.25,0.25,95,103.0
5777,C#4,384.25,0.25,95,103.0
5778,F#3,384.25,0.25,63,103.0
5779,E2,384.25,0.25,63,103.0
5780,C2,384.25,0.25,63,103.0
5781,G#4,384.375,0.125,95,103.0
5782,C#5,384.5,0.125,95,103.0
5783,F#5,384.5,0.25,95,103.0
5784,F#4,384.5,0.25,95,103.0
5785,C#4,384.5,0.25,95,103.0
5786,E-5,384.625,0.125,95,103.0
5787,C#5,384.75,0.125,95,103.0
5788,F#5,384.75,0.25,95,103.0
5789,F#4,384.75,0.25,95,103.0
5790,C#4,384.75,0.25,95,103.0
5791,C5,384.875,0.125,95,103.0
5792,C#5,385.0,0.125,95,103.0
5793,F#1,385.0,0.25,95,103.0
5794,F#5,385.0,0.25,95,103.0
5795,F#4,385.0,0.25,95,103.0
5796,C#4,385.0,0.25,95,103.0
5797,F#3,385.0,0.25,95,103.0
5798,D2,385.0,0.25,95,103.0
5799,C2,385.0,0.25,95,103.0
5800,E-5,385.125,0.125,95,103.0
5801,C#5,385.25,0.125,95,103.0
5802,G#1,385.25,0.25,95,103.0
5803,F#5,385.25,0.25,95,103.0
5804,F#4,385.25,0.25,95,103.0
5805,C#4,385.25,0.25,95,103.0
5806,F#3,385.25,0.25,95,103.0
5807,D2,385.25,0.25,95,103.0
5808,C2,385.25,0.25,95,103.0
5809,C5,385.375,0.125,95,103.0
5810,C#5,385.5,0.125,95,103.0
5811,F#3,385.5,0.25,31,103.0
5812,F#5,385.5,0.25,95,103.0
5813,F#4,385.5,0.25,95,103.0
5814,C#4,385.5,0.25,95,103.0
5815,E-5,385.625,0.125,95,103.0
5816,C#5,385.75,0.125,95,103.0
5817,F#3,385.75,0.25,31,103.0
5818,F#5,385.75,0.25,95,103.0
5819,F#4,385.75,0.25,95,103.0
5820,C#4,385.75,0.25,95,103.0
5821,C5,385.875,0.125,95,103.0
5822,C#5,386.0,0.125,95,103.0
5823,F#5,386.0,0.25,95,103.0
5824,F#4,386.0,0.25,95,103.0
5825,C#4,386.0,0.25,95,103.0
5826,F#3,386.0,0.25,71,103.0
5827,E2,386.0,0.25,71,103.0
5828,E-5,386.125,0.125,95,103.0
5829,C#5,386.25,0.125,95,103.0
5830,F#3,386.25,0.25,47,103.0
5831,F#5,386.25,0.25,95,103.0
5832,F#4,386.25,0.25,95,103.0
5833,C#4,386.25,0.25,95,103.0
5834,C5,386.375,0.125,95,103.0
5835,C#5,386.5,0.125,95,103.0
5836,F#5,386.5,0.25,95,103.0
5837,F#4,386.5,0.25,95,103.0
5838,C#4,386.5,0.25,95,103.0
5839,F#3,386.5,0.25,71,103.0
5840,C2,386.5,0.25,71,103.0
5841,C5,386.625,0.125,95,103.0
5842,B-4,386.75,0.125,95,103.0
5843,F#5,386.75,0.25,95,103.0
5844,F#4,386.75,0.25,95,103.0
5845,C#4,386.75,0.25,95,103.0
5846,F#3,386.75,0.25,71,103.0
5847,E2,386.75,0.25,71,103.0
5848,C5,386.875,0.125,95,103.0
5849,C#5,387.0,0.125,95,103.0
5850,F#3,387.0,0.25,47,103.0
5851,F#5,387.0,0.25,95,103.0
5852,F#4,387.0,0.25,95,103.0
5853,C#4,387.0,0.25,95,103.0
5854,C5,387.125,0.125,95,103.0
5855,B-4,387.25,0.125,95,103.0
5856,F#3,387.25,0.25,47,103.0
5857,F#5,387.25,0.25,95,103.0
5858,F#4,387.25,0.25,95,103.0
5859,C#4,387.25,0.25,95,103.0
5860,C5,387.375,0.125,95,103.0
5861,C#5,387.5,0.125,95,103.0
5862,F#3,387.5,0.25,47,103.0
5863,F#5,387.5,0.25,95,103.0
5864,F#4,387.5,0.25,95,103.0
5865,C#4,387.5,0.25,95,103.0
5866,E-5,387.625,0.125,95,103.0
5867,C#5,387.75,0.125,95,103.0
5868,F#3,387.75,0.25,47,103.0
5869,F#5,387.75,0.25,95,103.0
5870,F#4,387.75,0.25,95,103.0
5871,C#4,387.75,0.25,95,103.0
5872,C5,387.875,0.125,95,103.0
5873,C#5,388.0,0.125,95,103.0
5874,F#1,388.0,0.25,95,103.0
5875,F#5,388.0,0.25,95,103.0
5876,F#4,388.0,0.25,95,103.0
5877,C#4,388.0,0.25,95,103.0
5878,F#3,388.0,0.25,95,103.0
5879,D2,388.0,0.25,95,103.0
5880,C2,388.0,0.25,95,103.0
5881,C5,388.125,0.125,95,103.0
5882,C5,388.25,0.125,95,103.0
5883,G#1,388.25,0.25,95,103.0
5884,F#5,388.25,0.25,95,103.0
5885,F#4,388.25,0.25,95,103.0
5886,C#4,388.25,0.25,95,103.0
5887,F#3,388.25,0.25,95,103.0
5888,D2,388.25,0.25,95,103.0
5889,C2,388.25,0.25,95,103.0
5890,E-5,388.375,0.125,95,103.0
5891,C#5,388.5,0.125,95,103.0
5892,F#5,388.5,0.25,95,103.0
5893,F#4,388.5,0.25,95,103.0
5894,C#4,388.5,0.25,95,103.0
5895,C5,388.625,0.125,95,103.0
5896,C#5,388.75,0.125,95,103.0
5897,F#5,388.75,0.25,95,103.0
5898,F#4,388.75,0.25,95,103.0
5899,C#4,388.75,0.25,95,103.0
5900,C5,388.875,0.125,95,103.0
5901,C5,389.0,0.125,95,103.0
5902,E1,389.0,0.25,95,103.0
5903,E5,389.0,0.25,95,103.0
5904,E4,389.0,0.25,95,103.0
5905,B3,389.0,0.25,95,103.0
5906,F#3,389.0,0.25,95,103.0
5907,D2,389.0,0.25,95,103.0
5908,C2,389.0,0.25,95,103.0
5909,E-5,389.125,0.125,95,103.0
5910,C#5,389.25,0.125,95,103.0
5911,F#1,389.25,0.25,95,103.0
5912,E5,389.25,0.25,95,103.0
5913,E4,389.25,0.25,95,103.0
5914,B3,389.25,0.25,95,103.0
5915,F#3,389.25,0.25,95,103.0
5916,D2,389.25,0.25,95,103.0
5917,C2,389.25,0.25,95,103.0
5918,C5,389.375,0.125,95,103.0
5919,C#5,389.5,0.125,95,103.0
5920,E5,389.5,0.25,95,103.0
5921,E4,389.5,0.25,95,103.0
5922,B3,389.5,0.25,95,103.0
5923,C5,389.625,0.125,95,103.0
5924,C5,389.75,0.125,95,103.0
5925,E1,389.75,0.25,95,103.0
5926,E5,389.75,0.25,95,103.0
5927,E4,389.75,0.25,95,103.0
5928,B3,389.75,0.25,95,103.0
5929,E-5,389.875,0.125,95,103.0
5930,C#5,390.0,0.125,95,103.0
5931,F#1,390.0,0.25,95,103.0
5932,E2,390.0,0.25,63,103.0
5933,E5,390.0,0.25,95,103.0
5934,E4,390.0,0.25,95,103.0
5935,B3,390.0,0.25,95,103.0
5936,C5,390.125,0.125,95,103.0
5937,C#5,390.25,0.125,95,103.0
5938,G#1,390.25,0.25,95,103.0
5939,E2,390.25,0.25,63,103.0
5940,E5,390.25,0.25,95,103.0
5941,E4,390.25,0.25,95,103.0
5942,B3,390.25,0.25,95,103.0
5943,C5,390.375,0.125,95,103.0
5944,C5,390.5,0.125,95,103.0
5945,B-1,390.5,0.25,95,103.0
5946,E2,390.5,0.25,63,103.0
5947,E5,390.5,0.25,95,103.0
5948,E4,390.5,0.25,95,103.0
5949,B3,390.5,0.25,95,103.0
5950,E-5,390.625,0.125,95,103.0
5951,C#5,390.75,0.125,95,103.0
5952,C2,390.75,0.5,95,103.0
5953,E5,390.75,0.25,95,103.0
5954,E4,390.75,0.25,95,103.0
5955,B3,390.75,0.25,95,103.0
5956,F#3,390.75,0.25,71,103.0
5957,E2,390.75,0.25,71,103.0
5958,C5,390.875,0.125,95,103.0
5959,C#5,391.0,0.125,95,103.0
5960,E5,391.0,0.25,95,103.0
5961,E4,391.0,0.25,95,103.0
5962,B3,391.0,0.25,95,103.0
5963,C#5,391.125,0.125,95,103.0
5964,C5,391.25,0.125,95,103.0
5965,B-1,391.25,0.25,95,103.0
5966,E2,391.25,0.25,63,103.0
5967,E5,391.25,0.25,95,103.0
5968,E4,391.25,0.25,95,103.0
5969,B3,391.25,0.25,95,103.0
5970,E-5,391.375,0.125,95,103.0
5971,C#5,391.5,0.125,95,103.0
5972,G#1,391.5,0.25,95,103.0
5973,E2,391.5,0.25,63,103.0
5974,E5,391.5,0.25,95,103.0
5975,E4,391.5,0.25,95,103.0
5976,B3,391.5,0.25,95,103.0
5977,E5,391.625,0.125,95,103.0
5978,F#5,391.75,0.125,95,103.0
5979,F#1,391.75,0.25,95,103.0
5980,E2,391.75,0.25,63,103.0
5981,E5,391.75,0.25,95,103.0
5982,E4,391.75,0.25,95,103.0
5983,B3,391.75,0.25,95,103.0
5984,E5,391.875,0.125,95,103.0
5985,E5,392.0,0.125,95,103.0
5986,E1,392.0,0.75,95,103.0
5987,E5,392.0,0.25,95,103.0
5988,E4,392.0,0.25,95,103.0
5989,B3,392.0,0.25,95,103.0
5990,F#3,392.0,0.25,71,103.0
5991,E2,392.0,0.25,71,103.0
5992,E-5,392.125,0.125,95,103.0
5993,E5,392.25,0.125,95,103.0
5994,E5,392.25,0.25,95,103.0
5995,E4,392.25,0.25,95,103.0
5996,B3,392.25,0.25,95,103.0
5997,E5,392.375,0.125,95,103.0
5998,E5,392.5,0.125,95,103.0
5999,E5,392.5,0.25,95,103.0
6000,E4,392.5,0.25,95,103.0
6001,B3,392.5,0.25,95,103.0
6002,E5,392.625,0.125,95,103.0
6003,E5,392.75,0.125,95,103.0
6004,E1,392.75,0.25,95,103.0
6005,E5,392.75,0.25,95,103.0
6006,E4,392.75,0.25,95,103.0
6007,B3,392.75,0.25,95,103.0
6008,E5,392.875,0.125,95,103.0
6009,F#5,393.0,1.0,95,103.0
6010,F#1,393.0,0.25,95,103.0
6011,E5,393.0,0.25,95,103.0
6012,E4,393.0,0.25,95,103.0
6013,B3,393.0,0.25,95,103.0
6014,F#3,393.0,0.25,95,103.0
6015,D2,393.0,0.25,95,103.0
6016,C2,393.0,0.25,95,103.0
6017,G#1,393.25,0.25,95,103.0
6018,E5,393.25,0.25,95,103.0
6019,E4,393.25,0.25,95,103.0
6020,B3,393.25,0.25,95,103.0
6021,F#3,393.25,0.25,95,103.0
6022,D2,393.25,0.25,95,103.0
6023,C2,393.25,0.25,95,103.0
6024,F#3,393.5,0.25,31,103.0
6025,E5,393.5,0.25,95,103.0
6026,E4,393.5,0.25,95,103.0
6027,B3,393.5,0.25,95,103.0
6028,E5,393.75,0.25,95,103.0
6029,E4,393.75,0.25,95,103.0
6030,B3,393.75,0.25,95,103.0
6031,F#3,393.75,0.25,63,103.0
6032,C2,393.75,0.25,63,103.0
6033,F#5,394.0,0.25,95,103.0
6034,E5,394.0,0.25,95,103.0
6035,E4,394.0,0.25,95,103.0
6036,B3,394.0,0.25,95,103.0
6037,F#3,394.0,0.25,71,103.0
6038,E2,394.0,0.25,71,103.0
6039,G#5,394.25,0.25,95,103.0
6040,E5,394.25,0.25,95,103.0
6041,E4,394.25,0.25,95,103.0
6042,B3,394.25,0.25,95,103.0
6043,F#3,394.25,0.25,71,103.0
6044,C2,394.25,0.25,71,103.0
6045,B-5,394.5,0.25,95,103.0
6046,E5,394.5,0.25,95,103.0
6047,E4,394.5,0.25,95,103.0
6048,B3,394.5,0.25,95,103.0
6049,F#3,394.5,0.25,71,103.0
6050,B1,394.5,0.25,71,103.0
6051,C6,394.75,1.0,95,103.0
6052,E5,394.75,0.25,95,103.0
6053,E4,394.75,0.25,95,103.0
6054,B3,394.75,0.25,95,103.0
6055,F#3,394.75,0.25,71,103.0
6056,E2,394.75,0.25,71,103.0
6057,F#3,395.0,0.25,47,103.0
6058,E5,395.0,0.25,95,103.0
6059,E4,395.0,0.25,95,103.0
6060,B3,395.0,0.25,95,103.0
6061,F#3,395.25,0.25,47,103.0
6062,E5,395.25,0.25,95,103.0
6063,E4,395.25,0.25,95,103.0
6064,B3,395.25,0.25,95,103.0
6065,E5,395.5,0.25,95,103.0
6066,E4,395.5,0.25,95,103.0
6067,B3,395.5,0.25,95,103.0
6068,F#3,395.5,0.25,71,103.0
6069,E2,395.5,0.25,71,103.0
6070,F#5,395.75,0.25,95,103.0
6071,E5,395.75,0.25,95,103.0
6072,E4,395.75,0.25,95,103.0
6073,B3,395.75,0.25,95,103.0
6074,F#3,395.75,0.25,71,103.0
6075,E2,395.75,0.25,71,103.0
6076,F#5,396.0,1.0,95,103.0
6077,F#1,396.0,0.25,95,103.0
6078,E5,396.0,0.25,95,103.0
6079,E4,396.0,0.25,95,103.0
6080,B3,396.0,0.25,95,103.0
6081,F#3,396.0,0.25,95,103.0
6082,D2,396.0,0.25,95,103.0
6083,C2,396.0,0.25,95,103.0
6084,G#1,396.25,0.25,95,103.0
6085,E5,396.25,0.25,95,103.0
6086,E4,396.25,0.25,95,103.0
6087,B3,396.25,0.25,95,103.0
6088,F#3,396.25,0.25,95,103.0
6089,D2,396.25,0.25,95,103.0
6090,C2,396.25,0.25,95,103.0
6091,E5,396.5,0.25,95,103.0
6092,E4,396.5,0.25,95,103.0
6093,B3,396.5,0.25,95,103.0
6094,E5,396.75,0.25,95,103.0
6095,E4,396.75,0.25,95,103.0
6096,B3,396.75,0.25,95,103.0
6097,B-5,397.0,0.25,95,103.0
6098,E1,397.0,0.25,95,103.0
6099,F#5,397.0,0.25,95,103.0
6100,F#4,397.0,0.25,95,103.0
6101,C#4,397.0,0.25,95,103.0
6102,F#3,397.0,0.25,95,103.0
6103,D2,397.0,0.25,95,103.0
6104,C2,397.0,0.25,95,103.0
6105,C6,397.25,0.25,95,103.0
6106,F#1,397.25,0.25,95,103.0
6107,F#5,397.25,0.25,95,103.0
6108,F#4,397.25,0.25,95,103.0
6109,C#4,397.25,0.25,95,103.0
6110,F#3,397.25,0.25,95,103.0
6111,D2,397.25,0.25,95,103.0
6112,C2,397.25,0.25,95,103.0
6113,C#6,397.5,0.25,95,103.0
6114,F#5,397.5,0.25,95,103.0
6115,F#4,397.5,0.25,95,103.0
6116,C#4,397.5,0.25,95,103.0
6117,D6,397.75,1.5,95,103.0
6118,F#5,397.75,0.25,95,103.0
6119,F#4,397.75,0.25,95,103.0
6120,C#4,397.75,0.25,95,103.0
6121,E2,398.0,0.25,95,103.0
6122,F#5,398.0,0.25,95,103.0
6123,F#4,398.0,0.25,95,103.0
6124,C#4,398.0,0.25,95,103.0
6125,F#3,398.0,0.25,63,103.0
6126,E2,398.0,0.25,63,103.0
6127,C2,398.0,0.25,63,103.0
6128,E-2,398.25,0.25,95,103.0
6129,F#5,398.25,0.25,95,103.0
6130,F#4,398.25,0.25,95,103.0
6131,C#4,398.25,0.25,95,103.0
6132,F#3,398.25,0.25,63,103.0
6133,E2,398.25,0.25,63,103.0
6134,C2,398.25,0.25,63,103.0
6135,C#2,398.5,0.25,95,103.0
6136,F#5,398.5,0.25,95,103.0
6137,F#4,398.5,0.25,95,103.0
6138,C#4,398.5,0.25,95,103.0
6139,F#3,398.5,0.25,63,103.0
6140,E2,398.5,0.25,63,103.0
6141,C2,398.5,0.25,63,103.0
6142,C2,398.75,0.75,95,103.0
6143,F#5,398.75,0.25,95,103.0
6144,F#4,398.75,0.25,95,103.0
6145,C#4,398.75,0.25,95,103.0
6146,F#3,398.75,0.25,63,103.0
6147,E2,398.75,0.25,63,103.0
6148,C2,398.75,0.25,63,103.0
6149,F#5,399.0,0.25,95,103.0
6150,F#4,399.0,0.25,95,103.0
6151,C#4,399.0,0.25,95,103.0
6152,G#3,399.25,0.25,95,103.0
6153,F#5,399.25,0.25,95,103.0
6154,F#4,399.25,0.25,95,103.0
6155,C#4,399.25,0.25,95,103.0
6156,F#2,399.5,0.25,95,103.0
6157,F#1,399.5,0.25,95,103.0
6158,F#5,399.5,0.25,95,103.0
6159,F#4,399.5,0.25,95,103.0
6160,C#4,399.5,0.25,95,103.0
6161,F#3,399.5,0.25,95,103.0
6162,D2,399.5,0.25,95,103.0
6163,C2,399.5,0.25,95,103.0
6164,G#2,399.75,0.25,95,103.0
6165,G#1,399.75,0.25,95,103.0
6166,F#5,399.75,0.25,95,103.0
6167,F#4,399.75,0.25,95,103.0
6168,C#4,399.75,0.25,95,103.0
6169,F#3,399.75,0.25,95,103.0
6170,D2,399.75,0.25,95,103.0
6171,C2,399.75,0.25,95,103.0
6172,C2,400.0,0.25,95,103.0
6173,F#5,400.0,0.25,95,103.0
6174,F#4,400.0,0.25,95,103.0
6175,C#4,400.0,0.25,95,103.0
6176,F#2,400.25,0.25,47,103.0
6177,C2,400.25,0.25,95,103.0
6178,F#5,400.25,0.25,95,103.0
6179,F#4,400.25,0.25,95,103.0
6180,C#4,400.25,0.25,95,103.0
6181,G#2,400.5,0.25,47,103.0
6182,E2,400.5,0.25,63,103.0
6183,F#5,400.5,0.25,95,103.0
6184,F#4,400.5,0.25,95,103.0
6185,C#4,400.5,0.25,95,103.0
6186,E2,400.75,0.25,63,103.0
6187,F#5,400.75,0.25,95,103.0
6188,F#4,400.75,0.25,95,103.0
6189,C#4,400.75,0.25,95,103.0
6190,F#2,401.0,0.25,31,103.0
6191,E2,401.0,0.25,63,103.0
6192,F#5,401.0,0.25,95,103.0
6193,F#4,401.0,0.25,95,103.0
6194,C#4,401.0,0.25,95,103.0
6195,G#2,401.25,0.25,31,103.0
6196,E2,401.25,0.25,79,103.0
6197,F#5,401.25,0.25,95,103.0
6198,F#4,401.25,0.25,95,103.0
6199,C#4,401.25,0.25,95,103.0
6200,E2,401.5,0.25,79,103.0
6201,F#5,401.5,0.25,95,103.0
6202,F#4,401.5,0.25,95,103.0
6203,C#4,401.5,0.25,95,103.0
6204,F#2,401.75,0.25,15,103.0
6205,E2,401.75,0.25,79,103.0
6206,F#5,401.75,0.25,95,103.0
6207,F#4,401.75,0.25,95,103.0
6208,C#4,401.75,0.25,95,103.0
6209,G#2,402.0,0.25,15,103.0
6210,E2,402.0,0.25,95,103.0
6211,A2,402.0,53/1000,95,103.0
6212,E2,402.0,53/1000,95,103.0
6213,F#5,402.0,0.25,95,103.0
6214,F#4,402.0,0.25,95,103.0
6215,C#4,402.0,0.25,95,103.0
6216,E2,402.25,0.25,95,103.0
6217,A2,402.25,53/1000,95,103.0
6218,E2,402.25,53/1000,95,103.0
6219,F#5,402.25,0.25,95,103.0
6220,F#4,402.25,0.25,95,103.0
6221,C#4,402.25,0.25,95,103.0
6222,F#2,402.5,0.25,95,103.0
6223,F#1,402.5,0.25,95,103.0
6224,F#5,402.5,0.25,95,103.0
6225,F#4,402.5,0.25,95,103.0
6226,C#4,402.5,0.25,95,103.0
6227,F#3,402.5,0.25,95,103.0
6228,D2,402.5,0.25,95,103.0
6229,C2,402.5,0.25,95,103.0
6230,G#2,402.75,0.25,95,103.0
6231,G#1,402.75,0.25,95,103.0
6232,F#5,402.75,0.25,95,103.0
6233,F#4,402.75,0.25,95,103.0
6234,C#4,402.75,0.25,95,103.0
6235,F#3,402.75,0.25,95,103.0
6236,D2,402.75,0.25,95,103.0
6237,C2,402.75,0.25,95,103.0
6238,F#5,403.0,0.25,95,103.0
6239,F#4,403.0,0.25,95,103.0
6240,C#4,403.0,0.25,95,103.0
6241,F#2,403.25,0.5,47,103.0
6242,F#5,403.25,0.25,95,103.0
6243,F#4,403.25,0.25,95,103.0
6244,C#4,403.25,0.25,95,103.0
6245,E2,403.5,0.25,95,103.0
6246,E1,403.5,0.25,95,103.0
6247,G#5,403.5,0.25,95,103.0
6248,G#4,403.5,0.25,95,103.0
6249,E-4,403.5,0.25,95,103.0
6250,F#3,403.5,0.25,95,103.0
6251,D2,403.5,0.25,95,103.0
6252,C2,403.5,0.25,95,103.0
6253,F#2,403.75,0.25,95,103.0
6254,G#2,403.75,0.25,47,103.0
6255,F#1,403.75,0.25,95,103.0
6256,G#5,403.75,0.25,95,103.0
6257,G#4,403.75,0.25,95,103.0
6258,E-4,403.75,0.25,95,103.0
6259,F#3,403.75,0.25,95,103.0
6260,D2,403.75,0.25,95,103.0
6261,C2,403.75,0.25,95,103.0
6262,G#5,404.0,0.25,95,103.0
6263,G#4,404.0,0.25,95,103.0
6264,E-4,404.0,0.25,95,103.0
6265,E2,404.25,0.25,95,103.0
6266,E2,404.25,0.25,47,103.0
6267,E1,404.25,0.25,95,103.0
6268,E2,404.25,0.25,95,103.0
6269,G#5,404.25,0.25,95,103.0
6270,G#4,404.25,0.25,95,103.0
6271,E-4,404.25,0.25,95,103.0
6272,F#2,404.5,0.25,95,103.0
6273,F#2,404.5,0.25,47,103.0
6274,F#1,404.5,0.25,95,103.0
6275,E2,404.5,0.25,95,103.0
6276,G#5,404.5,0.25,95,103.0
6277,G#4,404.5,0.25,95,103.0
6278,E-4,404.5,0.25,95,103.0
6279,G#2,404.75,0.25,95,103.0
6280,G#1,404.75,0.25,95,103.0
6281,E2,404.75,0.25,95,103.0
6282,G#5,404.75,0.25,95,103.0
6283,G#4,404.75,0.25,95,103.0
6284,E-4,404.75,0.25,95,103.0
6285,B-2,405.0,0.25,95,103.0
6286,B-1,405.0,0.25,95,103.0
6287,E2,405.0,0.25,95,103.0
6288,G#5,405.0,0.25,95,103.0
6289,G#4,405.0,0.25,95,103.0
6290,E-4,405.0,0.25,95,103.0
6291,C3,405.25,0.5,95,103.0
6292,C2,405.25,0.5,95,103.0
6293,G#5,405.25,0.25,95,103.0
6294,G#4,405.25,0.25,95,103.0
6295,E-4,405.25,0.25,95,103.0
6296,E2,405.25,0.25,95,103.0
6297,D2,405.25,0.25,95,103.0
6298,G#5,405.5,0.25,95,103.0
6299,G#4,405.5,0.25,95,103.0
6300,E-4,405.5,0.25,95,103.0
6301,B-2,405.75,0.25,95,103.0
6302,B-1,405.75,0.25,95,103.0
6303,E2,405.75,0.25,95,103.0
6304,G#5,405.75,0.25,95,103.0
6305,G#4,405.75,0.25,95,103.0
6306,E-4,405.75,0.25,95,103.0
6307,G#2,406.0,0.25,95,103.0
6308,G#1,406.0,0.25,95,103.0
6309,E2,406.0,0.25,95,103.0
6310,G#5,406.0,0.25,95,103.0
6311,G#4,406.0,0.25,95,103.0
6312,E-4,406.0,0.25,95,103.0
6313,F#2,406.25,0.25,95,103.0
6314,F#1,406.25,0.25,95,103.0
6315,E2,406.25,0.25,95,103.0
6316,G#5,406.25,0.25,95,103.0
6317,G#4,406.25,0.25,95,103.0
6318,E-4,406.25,0.25,95,103.0
6319,E2,406.5,0.75,95,103.0
6320,E1,406.5,0.75,95,103.0
6321,G#5,406.5,0.25,95,103.0
6322,G#4,406.5,0.25,95,103.0
6323,E-4,406.5,0.25,95,103.0
6324,E2,406.5,0.25,95,103.0
6325,D2,406.5,0.25,95,103.0
6326,G#5,406.75,0.25,95,103.0
6327,G#4,406.75,0.25,95,103.0
6328,E-4,406.75,0.25,95,103.0
6329,G#5,407.0,0.25,95,103.0
6330,G#4,407.0,0.25,95,103.0
6331,E-4,407.0,0.25,95,103.0
6332,E2,407.25,0.25,95,103.0
6333,E1,407.25,0.25,95,103.0
6334,G#5,407.25,0.25,95,103.0
6335,G#4,407.25,0.25,95,103.0
6336,E-4,407.25,0.25,95,103.0
6337,F#2,407.5,0.25,95,103.0
6338,F#1,407.5,0.25,95,103.0
6339,G#5,407.5,0.25,95,103.0
6340,G#4,407.5,0.25,95,103.0
6341,E-4,407.5,0.25,95,103.0
6342,F#3,407.5,0.25,95,103.0
6343,D2,407.5,0.25,95,103.0
6344,C2,407.5,0.25,95,103.0
6345,G#2,407.75,0.25,95,103.0
6346,G#1,407.75,0.25,95,103.0
6347,G#5,407.75,0.25,95,103.0
6348,G#4,407.75,0.25,95,103.0
6349,E-4,407.75,0.25,95,103.0
6350,F#3,407.75,0.25,95,103.0
6351,D2,407.75,0.25,95,103.0
6352,C2,407.75,0.25,95,103.0
6353,G#5,408.0,0.25,95,103.0
6354,G#4,408.0,0.25,95,103.0
6355,E-4,408.0,0.25,95,103.0
6356,F#2,408.25,0.25,47,103.0
6357,C2,408.25,0.25,95,103.0
6358,G#5,408.25,0.25,95,103.0
6359,G#4,408.25,0.25,95,103.0
6360,E-4,408.25,0.25,95,103.0
6361,G#2,408.5,0.25,47,103.0
6362,D2,408.5,0.125,95,103.0
6363,G#5,408.5,0.25,95,103.0
6364,G#4,408.5,0.25,95,103.0
6365,E-4,408.5,0.25,95,103.0
6366,D2,408.625,0.125,95,103.0
6367,C2,408.75,0.125,95,103.0
6368,G#5,408.75,0.25,95,103.0
6369,G#4,408.75,0.25,95,103.0
6370,E-4,408.75,0.25,95,103.0
6371,C2,408.875,0.125,95,103.0
6372,F#2,409.0,0.25,31,103.0
6373,D2,409.0,0.125,95,103.0
6374,G#5,409.0,0.25,95,103.0
6375,G#4,409.0,0.25,95,103.0
6376,E-4,409.0,0.25,95,103.0
6377,D2,409.125,0.125,95,103.0
6378,G#2,409.25,0.25,31,103.0
6379,C2,409.25,0.125,95,103.0
6380,G#5,409.25,0.25,95,103.0
6381,G#4,409.25,0.25,95,103.0
6382,E-4,409.25,0.25,95,103.0
6383,C2,409.375,0.125,95,103.0
6384,D2,409.5,0.125,95,103.0
6385,G#5,409.5,0.25,95,103.0
6386,G#4,409.5,0.25,95,103.0
6387,E-4,409.5,0.25,95,103.0
6388,D2,409.625,0.125,95,103.0
6389,F#2,409.75,0.25,15,103.0
6390,C2,409.75,0.125,95,103.0
6391,G#5,409.75,0.25,95,103.0
6392,G#4,409.75,0.25,95,103.0
6393,E-4,409.75,0.25,95,103.0
6394,C2,409.875,0.125,95,103.0
6395,G#2,410.0,0.25,15,103.0
6396,D2,410.0,0.125,95,103.0
6397,G#5,410.0,0.25,95,103.0
6398,G#4,410.0,0.25,95,103.0
6399,E-4,410.0,0.25,95,103.0
6400,D2,410.125,0.125,95,103.0
6401,C2,410.25,0.125,95,103.0
6402,G#5,410.25,0.25,95,103.0
6403,G#4,410.25,0.25,95,103.0
6404,E-4,410.25,0.25,95,103.0
6405,C2,410.375,0.125,95,103.0
6406,F#2,410.5,0.25,95,103.0
6407,F#1,410.5,0.25,95,103.0
6408,G#5,410.5,0.25,95,103.0
6409,G#4,410.5,0.25,95,103.0
6410,E-4,410.5,0.25,95,103.0
6411,F#3,410.5,0.25,95,103.0
6412,D2,410.5,0.25,95,103.0
6413,C2,410.5,0.25,95,103.0
6414,G#2,410.75,0.25,95,103.0
6415,G#1,410.75,0.25,95,103.0
6416,G#5,410.75,0.25,95,103.0
6417,G#4,410.75,0.25,95,103.0
6418,E-4,410.75,0.25,95,103.0
6419,F#3,410.75,0.25,95,103.0
6420,D2,410.75,0.25,95,103.0
6421,C2,410.75,0.25,95,103.0
6422,G#5,411.0,0.25,95,103.0
6423,G#4,411.0,0.25,95,103.0
6424,E-4,411.0,0.25,95,103.0
6425,F#2,411.25,0.5,47,103.0
6426,G#5,411.25,0.25,95,103.0
6427,G#4,411.25,0.25,95,103.0
6428,E-4,411.25,0.25,95,103.0
6429,E2,411.5,0.25,95,103.0
6430,E1,411.5,0.25,95,103.0
6431,F#5,411.5,0.25,95,103.0
6432,F#4,411.5,0.25,95,103.0
6433,C#4,411.5,0.25,95,103.0
6434,F#3,411.5,0.25,95,103.0
6435,D2,411.5,0.25,95,103.0
6436,C2,411.5,0.25,95,103.0
6437,F#2,411.75,0.25,95,103.0
6438,G#2,411.75,0.25,47,103.0
6439,F#1,411.75,0.25,95,103.0
6440,F#5,411.75,0.25,95,103.0
6441,F#4,411.75,0.25,95,103.0
6442,C#4,411.75,0.25,95,103.0
6443,F#3,411.75,0.25,95,103.0
6444,D2,411.75,0.25,95,103.0
6445,C2,411.75,0.25,95,103.0
6446,F#5,412.0,0.25,95,103.0
6447,F#4,412.0,0.25,95,103.0
6448,C#4,412.0,0.25,95,103.0
6449,E2,412.25,0.25,47,103.0
6450,F#5,412.25,0.25,95,103.0
6451,F#4,412.25,0.25,95,103.0
6452,C#4,412.25,0.25,95,103.0
6453,E3,412.5,0.25,95,103.0
6454,F#2,412.5,0.25,47,103.0
6455,E2,412.5,0.25,95,103.0
6456,F#5,412.5,0.25,95,103.0
6457,F#4,412.5,0.25,95,103.0
6458,C#4,412.5,0.25,95,103.0
6459,E2,412.5,0.25,95,103.0
6460,C2,412.5,0.25,95,103.0
6461,E-3,412.75,0.25,95,103.0
6462,E-2,412.75,0.25,95,103.0
6463,F#5,412.75,0.25,95,103.0
6464,F#4,412.75,0.25,95,103.0
6465,C#4,412.75,0.25,95,103.0
6466,E2,412.75,0.25,95,103.0
6467,C2,412.75,0.25,95,103.0
6468,C#3,413.0,0.25,95,103.0
6469,C#2,413.0,0.25,95,103.0
6470,F#5,413.0,0.25,95,103.0
6471,F#4,413.0,0.25,95,103.0
6472,C#4,413.0,0.25,95,103.0
6473,E2,413.0,0.25,95,103.0
6474,C2,413.0,0.25,95,103.0
6475,C3,413.25,0.75,95,103.0
6476,C2,413.25,0.75,95,103.0
6477,F#5,413.25,0.25,95,103.0
6478,F#4,413.25,0.25,95,103.0
6479,C#4,413.25,0.25,95,103.0
6480,E2,413.25,0.25,95,103.0
6481,C2,413.25,0.25,95,103.0
6482,F#5,413.5,0.25,95,103.0
6483,F#4,413.5,0.25,95,103.0
6484,C#4,413.5,0.25,95,103.0
6485,F#5,413.75,0.25,95,103.0
6486,F#4,413.75,0.25,95,103.0
6487,C#4,413.75,0.25,95,103.0
6488,F#2,414.0,0.25,95,103.0
6489,F#1,414.0,0.25,95,103.0
6490,F#5,414.0,0.25,95,103.0
6491,F#4,414.0,0.25,95,103.0
6492,C#4,414.0,0.25,95,103.0
6493,F#3,414.0,0.25,95,103.0
6494,D2,414.0,0.25,95,103.0
6495,C2,414.0,0.25,95,103.0
6496,G#2,414.25,0.25,95,103.0
6497,G#1,414.25,0.25,95,103.0
6498,F#5,414.25,0.25,95,103.0
6499,F#4,414.25,0.25,95,103.0
6500,C#4,414.25,0.25,95,103.0
6501,F#3,414.25,0.25,95,103.0
6502,D2,414.25,0.25,95,103.0
6503,C2,414.25,0.25,95,103.0
6504,F#5,414.5,0.25,95,103.0
6505,F#4,414.5,0.25,95,103.0
6506,C#4,414.5,0.25,95,103.0
6507,F#2,414.75,0.25,47,103.0
6508,F#5,414.75,0.25,95,103.0
6509,F#4,414.75,0.25,95,103.0
6510,C#4,414.75,0.25,95,103.0
6511,G#2,415.0,0.25,47,103.0
6512,D2,415.0,167/1000,95,103.0
6513,F#5,415.0,0.25,95,103.0
6514,F#4,415.0,0.25,95,103.0
6515,C#4,415.0,0.25,95,103.0
6516,C2,415.167,167/1000,95,103.0
6517,F#5,415.25,0.25,95,103.0
6518,F#4,415.25,0.25,95,103.0
6519,C#4,415.25,0.25,95,103.0
6520,C2,415.333,167/1000,95,103.0
6521,F#2,415.5,0.25,31,103.0
6522,D2,415.5,167/1000,95,103.0
6523,F#5,415.5,0.25,95,103.0
6524,F#4,415.5,0.25,95,103.0
6525,C#4,415.5,0.25,95,103.0
6526,D2,415.667,167/1000,95,103.0
6527,G#2,415.75,0.25,31,103.0
6528,F#5,415.75,0.25,95,103.0
6529,F#4,415.75,0.25,95,103.0
6530,C#4,415.75,0.25,95,103.0
6531,C2,415.833,167/1000,95,103.0
6532,D2,416.0,167/1000,95,103.0
6533,F#5,416.0,0.25,95,103.0
6534,F#4,416.0,0.25,95,103.0
6535,C#4,416.0,0.25,95,103.0
6536,C2,416.167,167/1000,95,103.0
6537,F#2,416.25,0.25,15,103.0
6538,F#5,416.25,0.25,95,103.0
6539,F#4,416.25,0.25,95,103.0
6540,C#4,416.25,0.25,95,103.0
6541,C2,416.333,167/1000,95,103.0
6542,G#2,416.5,0.25,15,103.0
6543,D2,416.5,167/1000,95,103.0
6544,F#5,416.5,0.25,95,103.0
6545,F#4,416.5,0.25,95,103.0
6546,C#4,416.5,0.25,95,103.0
6547,C2,416.667,167/1000,95,103.0
6548,F#5,416.75,0.25,95,103.0
6549,F#4,416.75,0.25,95,103.0
6550,C#4,416.75,0.25,95,103.0
6551,D2,416.833,167/1000,95,103.0
6552,F#2,417.0,0.25,95,103.0
6553,F#1,417.0,0.25,95,103.0
6554,F#5,417.0,0.25,95,103.0
6555,F#4,417.0,0.25,95,103.0
6556,C#4,417.0,0.25,95,103.0
6557,F#3,417.0,0.25,95,103.0
6558,D2,417.0,0.25,95,103.0
6559,C2,417.0,0.25,95,103.0
6560,G#2,417.25,0.25,95,103.0
6561,G#1,417.25,0.25,95,103.0
6562,F#5,417.25,0.25,95,103.0
6563,F#4,417.25,0.25,95,103.0
6564,C#4,417.25,0.25,95,103.0
6565,F#3,417.25,0.25,95,103.0
6566,D2,417.25,0.25,95,103.0
6567,C2,417.25,0.25,95,103.0
6568,F#5,417.5,0.25,95,103.0
6569,F#4,417.5,0.25,95,103.0
6570,C#4,417.5,0.25,95,103.0
6571,F#2,417.75,0.5,47,103.0
6572,F#5,417.75,0.25,95,103.0
6573,F#4,417.75,0.25,95,103.0
6574,C#4,417.75,0.25,95,103.0
6575,E2,418.0,0.25,95,103.0
6576,E1,418.0,0.25,95,103.0
6577,E5,418.0,0.25,95,103.0
6578,E4,418.0,0.25,95,103.0
6579,B3,418.0,0.25,95,103.0
6580,F#3,418.0,0.25,95,103.0
6581,D2,418.0,0.25,95,103.0
6582,C2,418.0,0.25,95,103.0
6583,F#2,418.25,0.25,95,103.0
6584,G#2,418.25,0.25,47,103.0
6585,F#1,418.25,0.25,95,103.0
6586,E5,418.25,0.25,95,103.0
6587,E4,418.25,0.25,95,103.0
6588,B3,418.25,0.25,95,103.0
6589,F#3,418.25,0.25,95,103.0
6590,D2,418.25,0.25,95,103.0
6591,C2,418.25,0.25,95,103.0
6592,E5,418.5,0.25,95,103.0
6593,E4,418.5,0.25,95,103.0
6594,B3,418.5,0.25,95,103.0
6595,E2,418.75,0.25,95,103.0
6596,E2,418.75,0.25,47,103.0
6597,E1,418.75,0.25,95,103.0
6598,E5,418.75,0.25,95,103.0
6599,E4,418.75,0.25,95,103.0
6600,B3,418.75,0.25,95,103.0
6601,F#2,419.0,0.25,95,103.0
6602,F#2,419.0,0.25,47,103.0
6603,F#1,419.0,0.25,95,103.0
6604,E2,419.0,0.25,95,103.0
6605,E5,419.0,0.25,95,103.0
6606,E4,419.0,0.25,95,103.0
6607,B3,419.0,0.25,95,103.0
6608,G#2,419.25,0.25,95,103.0
6609,G#1,419.25,0.25,95,103.0
6610,E2,419.25,0.25,95,103.0
6611,E5,419.25,0.25,95,103.0
6612,E4,419.25,0.25,95,103.0
6613,B3,419.25,0.25,95,103.0
6614,B-2,419.5,0.25,95,103.0
6615,B-1,419.5,0.25,95,103.0
6616,E2,419.5,0.25,95,103.0
6617,E5,419.5,0.25,95,103.0
6618,E4,419.5,0.25,95,103.0
6619,B3,419.5,0.25,95,103.0
6620,C3,419.75,0.5,95,103.0
6621,C2,419.75,0.5,95,103.0
6622,E5,419.75,0.25,95,103.0
6623,E4,419.75,0.25,95,103.0
6624,B3,419.75,0.25,95,103.0
6625,E2,419.75,0.25,95,103.0
6626,D2,419.75,0.25,95,103.0
6627,E5,420.0,0.25,95,103.0
6628,E4,420.0,0.25,95,103.0
6629,B3,420.0,0.25,95,103.0
6630,B-2,420.25,0.25,95,103.0
6631,B-1,420.25,0.25,95,103.0
6632,E2,420.25,0.25,95,103.0
6633,E5,420.25,0.25,95,103.0
6634,E4,420.25,0.25,95,103.0
6635,B3,420.25,0.25,95,103.0
6636,G#2,420.5,0.25,95,103.0
6637,G#1,420.5,0.25,95,103.0
6638,E2,420.5,0.25,95,103.0
6639,E5,420.5,0.25,95,103.0
6640,E4,420.5,0.25,95,103.0
6641,B3,420.5,0.25,95,103.0
6642,F#2,420.75,0.25,95,103.0
6643,F#1,420.75,0.25,95,103.0
6644,E2,420.75,0.25,95,103.0
6645,E5,420.75,0.25,95,103.0
6646,E4,420.75,0.25,95,103.0
6647,B3,420.75,0.25,95,103.0
6648,E2,421.0,0.75,95,103.0
6649,E1,421.0,0.75,95,103.0
6650,E5,421.0,0.25,95,103.0
6651,E4,421.0,0.25,95,103.0
6652,B3,421.0,0.25,95,103.0
6653,E2,421.0,0.25,95,103.0
6654,D2,421.0,0.25,95,103.0
6655,E5,421.25,0.25,95,103.0
6656,E4,421.25,0.25,95,103.0
6657,B3,421.25,0.25,95,103.0
6658,E5,421.5,0.25,95,103.0
6659,E4,421.5,0.25,95,103.0
6660,B3,421.5,0.25,95,103.0
6661,E1,421.75,0.25,95,103.0
6662,E5,421.75,0.25,95,103.0
6663,E4,421.75,0.25,95,103.0
6664,B3,421.75,0.25,95,103.0
6665,F#2,422.0,0.25,95,103.0
6666,F#1,422.0,0.25,95,103.0
6667,E5,422.0,0.25,95,103.0
6668,E4,422.0,0.25,95,103.0
6669,B3,422.0,0.25,95,103.0
6670,F#3,422.0,0.25,95,103.0
6671,D2,422.0,0.25,95,103.0
6672,C2,422.0,0.25,95,103.0
6673,G#2,422.25,0.25,95,103.0
6674,G#1,422.25,0.25,95,103.0
6675,E5,422.25,0.25,95,103.0
6676,E4,422.25,0.25,95,103.0
6677,B3,422.25,0.25,95,103.0
6678,F#3,422.25,0.25,95,103.0
6679,D2,422.25,0.25,95,103.0
6680,C2,422.25,0.25,95,103.0
6681,E5,422.5,0.25,95,103.0
6682,E4,422.5,0.25,95,103.0
6683,B3,422.5,0.25,95,103.0
6684,F#2,422.75,0.25,47,103.0
6685,E5,422.75,0.25,95,103.0
6686,E4,422.75,0.25,95,103.0
6687,B3,422.75,0.25,95,103.0
6688,G#2,423.0,0.25,47,103.0
6689,E2,423.0,0.25,95,103.0
6690,E5,423.0,0.25,95,103.0
6691,E4,423.0,0.25,95,103.0
6692,B3,423.0,0.25,95,103.0
6693,C2,423.25,333/1000,95,103.0
6694,E5,423.25,0.25,95,103.0
6695,E4,423.25,0.25,95,103.0
6696,B3,423.25,0.25,95,103.0
6697,F#2,423.5,0.25,31,103.0
6698,E5,423.5,0.25,95,103.0
6699,E4,423.5,0.25,95,103.0
6700,B3,423.5,0.25,95,103.0
6701,C2,423.583,333/1000,95,103.0
6702,G#2,423.75,0.25,31,103.0
6703,E5,423.75,0.25,95,103.0
6704,E4,423.75,0.25,95,103.0
6705,B3,423.75,0.25,95,103.0
6706,C2,423.917,333/1000,95,103.0
6707,E5,424.0,0.25,95,103.0
6708,E4,424.0,0.25,95,103.0
6709,B3,424.0,0.25,95,103.0
6710,F#2,424.25,0.25,15,103.0
6711,E2,424.25,0.375,95,103.0
6712,E5,424.25,0.25,95,103.0
6713,E4,424.25,0.25,95,103.0
6714,B3,424.25,0.25,95,103.0
6715,G#2,424.5,0.25,15,103.0
6716,E5,424.5,0.25,95,103.0
6717,E4,424.5,0.25,95,103.0
6718,B3,424.5,0.25,95,103.0
6719,E2,424.625,0.375,95,103.0
6720,E5,424.75,0.25,95,103.0
6721,E4,424.75,0.25,95,103.0
6722,B3,424.75,0.25,95,103.0
6723,F#2,425.0,0.25,95,103.0
6724,F#1,425.0,0.25,95,103.0
6725,E5,425.0,0.25,95,103.0
6726,E4,425.0,0.25,95,103.0
6727,B3,425.0,0.25,95,103.0
6728,F#3,425.0,0.25,95,103.0
6729,D2,425.0,0.25,95,103.0
6730,C2,425.0,0.25,95,103.0
6731,G#2,425.25,0.25,95,103.0
6732,G#1,425.25,0.25,95,103.0
6733,E5,425.25,0.25,95,103.0
6734,E4,425.25,0.25,95,103.0
6735,B3,425.25,0.25,95,103.0
6736,F#3,425.25,0.25,95,103.0
6737,D2,425.25,0.25,95,103.0
6738,C2,425.25,0.25,95,103.0
6739,E5,425.5,0.25,95,103.0
6740,E4,425.5,0.25,95,103.0
6741,B3,425.5,0.25,95,103.0
6742,F#2,425.75,0.5,47,103.0
6743,E5,425.75,0.25,95,103.0
6744,E4,425.75,0.25,95,103.0
6745,B3,425.75,0.25,95,103.0
6746,E2,426.0,0.25,95,103.0
6747,E1,426.0,0.25,95,103.0
6748,F#5,426.0,0.25,95,103.0
6749,F#4,426.0,0.25,95,103.0
6750,C#4,426.0,0.25,95,103.0
6751,F#3,426.0,0.25,95,103.0
6752,D2,426.0,0.25,95,103.0
6753,C2,426.0,0.25,95,103.0
6754,F#2,426.25,0.25,95,103.0
6755,G#2,426.25,0.25,47,103.0
6756,F#1,426.25,0.25,95,103.0
6757,F#5,426.25,0.25,95,103.0
6758,F#4,426.25,0.25,95,103.0
6759,C#4,426.25,0.25,95,103.0
6760,F#3,426.25,0.25,95,103.0
6761,D2,426.25,0.25,95,103.0
6762,C2,426.25,0.25,95,103.0
6763,F#5,426.5,0.25,95,103.0
6764,F#4,426.5,0.25,95,103.0
6765,C#4,426.5,0.25,95,103.0
6766,E2,426.5,0.125,79,103.0
6767,C2,426.5,0.125,79,103.0
6768,E2,426.625,0.125,79,103.0
6769,C2,426.625,0.125,79,103.0
6770,E2,426.75,0.25,47,103.0
6771,F#5,426.75,0.25,95,103.0
6772,F#4,426.75,0.25,95,103.0
6773,C#4,426.75,0.25,95,103.0
6774,E2,426.75,0.125,79,103.0
6775,C2,426.75,0.125,79,103.0
6776,E2,426.875,0.125,95,103.0
6777,E3,427.0,0.25,95,103.0
6778,F#2,427.0,0.25,47,103.0
6779,E2,427.0,0.25,95,103.0
6780,E2,427.0,0.25,95,103.0
6781,F#5,427.0,0.25,95,103.0
6782,F#4,427.0,0.25,95,103.0
6783,C#4,427.0,0.25,95,103.0
6784,E-3,427.25,0.25,95,103.0
6785,E-2,427.25,0.25,95,103.0
6786,E2,427.25,0.25,95,103.0
6787,F#5,427.25,0.25,95,103.0
6788,F#4,427.25,0.25,95,103.0
6789,C#4,427.25,0.25,95,103.0
6790,C#3,427.5,0.25,95,103.0
6791,C#2,427.5,0.25,95,103.0
6792,E2,427.5,0.25,95,103.0
6793,F#5,427.5,0.25,95,103.0
6794,F#4,427.5,0.25,95,103.0
6795,C#4,427.5,0.25,95,103.0
6796,C3,427.75,0.75,95,103.0
6797,C2,427.75,0.75,95,103.0
6798,E2,427.75,0.75,95,103.0
6799,F#5,427.75,0.25,95,103.0
6800,F#4,427.75,0.25,95,103.0
6801,C#4,427.75,0.25,95,103.0
6802,F#5,428.0,0.25,95,103.0
6803,F#4,428.0,0.25,95,103.0
6804,C#4,428.0,0.25,95,103.0
6805,F#5,428.25,0.25,95,103.0
6806,F#4,428.25,0.25,95,103.0
6807,C#4,428.25,0.25,95,103.0
6808,F#2,428.5,0.25,95,103.0
6809,F#1,428.5,0.25,95,103.0
6810,F#5,428.5,0.25,95,103.0
6811,F#4,428.5,0.25,95,103.0
6812,C#4,428.5,0.25,95,103.0
6813,F#3,428.5,0.25,95,103.0
6814,D2,428.5,0.25,95,103.0
6815,C2,428.5,0.25,95,103.0
6816,G#2,428.75,0.25,95,103.0
6817,G#1,428.75,0.25,95,103.0
6818,F#5,428.75,0.25,95,103.0
6819,F#4,428.75,0.25,95,103.0
6820,C#4,428.75,0.25,95,103.0
6821,F#3,428.75,0.25,95,103.0
6822,D2,428.75,0.25,95,103.0
6823,C2,428.75,0.25,95,103.0
6824,C2,429.0,0.25,95,103.0
6825,F#5,429.0,0.25,95,103.0
6826,F#4,429.0,0.25,95,103.0
6827,C#4,429.0,0.25,95,103.0
6828,F#2,429.25,0.25,47,103.0
6829,C2,429.25,0.25,95,103.0
6830,F#5,429.25,0.25,95,103.0
6831,F#4,429.25,0.25,95,103.0
6832,C#4,429.25,0.25,95,103.0
6833,G#2,429.5,0.25,47,103.0
6834,F#5,429.5,0.25,95,103.0
6835,F#4,429.5,0.25,95,103.0
6836,C#4,429.5,0.25,95,103.0
6837,F#3,429.5,0.25,95,103.0
6838,E2,429.5,0.25,95,103.0
6839,C2,429.75,0.25,95,103.0
6840,F#5,429.75,0.25,95,103.0
6841,F#4,429.75,0.25,95,103.0
6842,C#4,429.75,0.25,95,103.0
6843,F#2,430.0,0.25,31,103.0
6844,C2,430.0,0.25,95,103.0
6845,F#5,430.0,0.25,95,103.0
6846,F#4,430.0,0.25,95,103.0
6847,C#4,430.0,0.25,95,103.0
6848,G#2,430.25,0.25,31,103.0
6849,C2,430.25,0.25,95,103.0
6850,F#5,430.25,0.25,95,103.0
6851,F#4,430.25,0.25,95,103.0
6852,C#4,430.25,0.25,95,103.0
6853,F#5,430.5,0.25,95,103.0
6854,F#4,430.5,0.25,95,103.0
6855,C#4,430.5,0.25,95,103.0
6856,F#3,430.5,0.25,95,103.0
6857,E2,430.5,0.25,95,103.0
6858,F#2,430.75,0.25,15,103.0
6859,C2,430.75,0.25,95,103.0
6860,F#5,430.75,0.25,95,103.0
6861,F#4,430.75,0.25,95,103.0
6862,C#4,430.75,0.25,95,103.0
6863,E2,431.0,0.25,95,103.0
6864,G#2,431.0,0.25,15,103.0
6865,E1,431.0,0.25,95,103.0
6866,C2,431.0,0.25,95,103.0
6867,F#5,431.0,0.25,95,103.0
6868,F#4,431.0,0.25,95,103.0
6869,C#4,431.0,0.25,95,103.0
6870,E2,431.25,0.25,95,103.0
6871,E1,431.25,0.25,95,103.0
6872,C2,431.25,0.25,95,103.0
6873,F#5,431.25,0.25,95,103.0
6874,F#4,431.25,0.25,95,103.0
6875,C#4,431.25,0.25,95,103.0
6876,F#2,431.5,0.25,95,103.0
6877,F#1,431.5,0.25,95,103.0
6878,F#5,431.5,0.25,95,103.0
6879,F#4,431.5,0.25,95,103.0
6880,C#4,431.5,0.25,95,103.0
6881,F#3,431.5,0.25,95,103.0
6882,E2,431.5,0.25,95,103.0
6883,G#2,431.75,0.25,95,103.0
6884,G#1,431.75,0.25,95,103.0
6885,F#5,431.75,0.25,95,103.0
6886,F#4,431.75,0.25,95,103.0
6887,C#4,431.75,0.25,95,103.0
6888,F#3,431.75,0.25,95,103.0
6889,E2,431.75,0.25,95,103.0
6890,C2,431.75,0.25,95,103.0
6891,C2,432.0,0.25,95,103.0
6892,F#5,432.0,0.25,95,103.0
6893,F#4,432.0,0.25,95,103.0
6894,C#4,432.0,0.25,95,103.0
6895,E2,432.25,53/1000,95,103.0
6896,C2,432.25,0.25,95,103.0
6897,F#5,432.25,0.25,95,103.0
6898,F#4,432.25,0.25,95,103.0
6899,C#4,432.25,0.25,95,103.0
6900,G#2,432.5,0.25,95,103.0
6901,G#1,432.5,0.25,95,103.0
6902,G#5,432.5,0.25,95,103.0
6903,G#4,432.5,0.25,95,103.0
6904,E-4,432.5,0.25,95,103.0
6905,F#3,432.5,0.25,95,103.0
6906,E2,432.5,0.25,95,103.0
6907,B-2,432.75,0.25,95,103.0
6908,B-1,432.75,0.25,95,103.0
6909,G#5,432.75,0.25,95,103.0
6910,G#4,432.75,0.25,95,103.0
6911,E-4,432.75,0.25,95,103.0
6912,F#3,432.75,0.25,95,103.0
6913,E2,432.75,0.25,95,103.0
6914,C2,432.75,0.25,95,103.0
6915,C2,433.0,0.25,95,103.0
6916,G#5,433.0,0.25,95,103.0
6917,G#4,433.0,0.25,95,103.0
6918,E-4,433.0,0.25,95,103.0
6919,C2,433.25,0.25,95,103.0
6920,G#5,433.25,0.25,95,103.0
6921,G#4,433.25,0.25,95,103.0
6922,E-4,433.25,0.25,95,103.0
6923,G#5,433.5,0.25,95,103.0
6924,G#4,433.5,0.25,95,103.0
6925,E-4,433.5,0.25,95,103.0
6926,F#3,433.5,0.25,95,103.0
6927,E2,433.5,0.25,95,103.0
6928,C2,433.75,0.25,95,103.0
6929,G#5,433.75,0.25,95,103.0
6930,G#4,433.75,0.25,95,103.0
6931,E-4,433.75,0.25,95,103.0
6932,C2,434.0,0.25,95,103.0
6933,G#5,434.0,0.25,95,103.0
6934,G#4,434.0,0.25,95,103.0
6935,E-4,434.0,0.25,95,103.0
6936,C2,434.25,0.25,95,103.0
6937,G#5,434.25,0.25,95,103.0
6938,G#4,434.25,0.25,95,103.0
6939,E-4,434.25,0.25,95,103.0
6940,G#5,434.5,0.25,95,103.0
6941,G#4,434.5,0.25,95,103.0
6942,E-4,434.5,0.25,95,103.0
6943,F#3,434.5,0.25,95,103.0
6944,E2,434.5,0.25,95,103.0
6945,C2,434.75,0.25,95,103.0
6946,G#5,434.75,0.25,95,103.0
6947,G#4,434.75,0.25,95,103.0
6948,E-4,434.75,0.25,95,103.0
6949,E2,435.0,53/1000,95,103.0
6950,E1,435.0,0.25,95,103.0
6951,C2,435.0,0.25,95,103.0
6952,G#5,435.0,0.25,95,103.0
6953,G#4,435.0,0.25,95,103.0
6954,E-4,435.0,0.25,95,103.0
6955,E2,435.25,0.25,95,103.0
6956,E1,435.25,0.25,95,103.0
6957,C2,435.25,0.25,95,103.0
6958,G#5,435.25,0.25,95,103.0
6959,G#4,435.25,0.25,95,103.0
6960,E-4,435.25,0.25,95,103.0
6961,G#2,435.5,0.25,95,103.0
6962,G#1,435.5,0.25,95,103.0
6963,G#5,435.5,0.25,95,103.0
6964,G#4,435.5,0.25,95,103.0
6965,E-4,435.5,0.25,95,103.0
6966,F#3,435.5,0.25,95,103.0
6967,E2,435.5,0.25,95,103.0
6968,B-2,435.75,0.25,95,103.0
6969,B-1,435.75,0.25,95,103.0
6970,G#5,435.75,0.25,95,103.0
6971,G#4,435.75,0.25,95,103.0
6972,E-4,435.75,0.25,95,103.0
6973,F#3,435.75,0.25,95,103.0
6974,E2,435.75,0.25,95,103.0
6975,C2,435.75,0.25,95,103.0
6976,E2,436.0,83/1000,95,103.0
6977,G#5,436.0,0.25,95,103.0
6978,G#4,436.0,0.25,95,103.0
6979,E-4,436.0,0.25,95,103.0
6980,E2,436.083,83/1000,95,103.0
6981,E2,436.167,83/1000,95,103.0
6982,E2,436.25,83/1000,95,103.0
6983,G#5,436.25,0.25,95,103.0
6984,G#4,436.25,0.25,95,103.0
6985,E-4,436.25,0.25,95,103.0
6986,E2,436.333,83/1000,95,103.0
6987,E2,436.417,83/1000,95,103.0
6988,B-4,436.5,1.0,95,103.0
6989,B-1,436.5,0.25,95,103.0
6990,B-5,436.5,0.25,95,103.0
6991,B-4,436.5,0.25,95,103.0
6992,E-4,436.5,0.25,95,103.0
6993,E2,436.5,0.25,95,103.0
6994,D2,436.5,0.25,95,103.0
6995,C2,436.75,0.25,95,103.0
6996,C2,436.75,0.25,95,103.0
6997,B-5,436.75,0.25,95,103.0
6998,B-4,436.75,0.25,95,103.0
6999,E-4,436.75,0.25,95,103.0
7000,C2,437.0,0.25,95,103.0
7001,C2,437.0,0.25,95,103.0
7002,B-5,437.0,0.25,95,103.0
7003,B-4,437.0,0.25,95,103.0
7004,E-4,437.0,0.25,95,103.0
7005,C2,437.25,0.25,95,103.0
7006,C2,437.25,0.25,95,103.0
7007,B-5,437.25,0.25,95,103.0
7008,B-4,437.25,0.25,95,103.0
7009,E-4,437.25,0.25,95,103.0
7010,B-4,437.5,1.5,95,103.0
7011,C2,437.5,0.25,31,103.0
7012,B-5,437.5,0.25,95,103.0
7013,B-4,437.5,0.25,95,103.0
7014,E-4,437.5,0.25,95,103.0
7015,E2,437.5,0.25,95,103.0
7016,D2,437.5,0.25,95,103.0
7017,C2,437.75,0.25,31,103.0
7018,C2,437.75,0.25,95,103.0
7019,B-5,437.75,0.25,95,103.0
7020,B-4,437.75,0.25,95,103.0
7021,E-4,437.75,0.25,95,103.0
7022,C2,438.0,0.25,95,103.0
7023,C2,438.0,0.25,95,103.0
7024,B-5,438.0,0.25,95,103.0
7025,B-4,438.0,0.25,95,103.0
7026,E-4,438.0,0.25,95,103.0
7027,C2,438.25,0.25,95,103.0
7028,C2,438.25,0.25,95,103.0
7029,B-5,438.25,0.25,95,103.0
7030,B-4,438.25,0.25,95,103.0
7031,E-4,438.25,0.25,95,103.0
7032,B-1,438.5,0.25,95,103.0
7033,B-5,438.5,0.25,95,103.0
7034,B-4,438.5,0.25,95,103.0
7035,E-4,438.5,0.25,95,103.0
7036,E2,438.5,0.25,95,103.0
7037,D2,438.5,0.25,95,103.0
7038,C2,438.75,0.25,95,103.0
7039,C2,438.75,0.25,95,103.0
7040,B-5,438.75,0.25,95,103.0
7041,B-4,438.75,0.25,95,103.0
7042,E-4,438.75,0.25,95,103.0
7043,C5,439.0,167/1000,95,103.0
7044,C2,439.0,0.25,95,103.0
7045,C2,439.0,0.25,95,103.0
7046,B-5,439.0,0.25,95,103.0
7047,B-4,439.0,0.25,95,103.0
7048,E-4,439.0,0.25,95,103.0
7049,B-4,439.167,167/1000,95,103.0
7050,C2,439.25,0.25,95,103.0
7051,C2,439.25,0.25,95,103.0
7052,B-5,439.25,0.25,95,103.0
7053,B-4,439.25,0.25,95,103.0
7054,E-4,439.25,0.25,95,103.0
7055,G4,439.333,167/1000,95,103.0
7056,B-4,439.5,0.5,95,103.0
7057,E-2,439.5,0.25,95,103.0
7058,B-5,439.5,0.25,95,103.0
7059,B-4,439.5,0.25,95,103.0
7060,E-4,439.5,0.25,95,103.0
7061,E2,439.5,0.25,95,103.0
7062,D2,439.5,0.25,95,103.0
7063,C2,439.75,0.75,95,103.0
7064,C2,439.75,0.25,95,103.0
7065,B-5,439.75,0.25,95,103.0
7066,B-4,439.75,0.25,95,103.0
7067,E-4,439.75,0.25,95,103.0
7068,C5,440.0,167/1000,95,103.0
7069,C2,440.0,0.25,95,103.0
7070,B-5,440.0,0.25,95,103.0
7071,B-4,440.0,0.25,95,103.0
7072,E-4,440.0,0.25,95,103.0
7073,B-4,440.167,167/1000,95,103.0
7074,C2,440.25,0.25,95,103.0
7075,B-5,440.25,0.25,95,103.0
7076,B-4,440.25,0.25,95,103.0
7077,E-4,440.25,0.25,95,103.0
7078,G4,440.333,167/1000,95,103.0
7079,E-5,440.5,167/1000,95,103.0
7080,B-1,440.5,0.25,95,103.0
7081,E2,440.5,0.25,95,103.0
7082,D2,440.5,0.25,95,103.0
7083,E5,440.667,167/1000,95,103.0
7084,C2,440.75,0.25,95,103.0
7085,C2,440.75,0.25,95,103.0
7086,E-5,440.833,167/1000,95,103.0
7087,C5,441.0,167/1000,95,103.0
7088,C2,441.0,0.25,95,103.0
7089,C2,441.0,0.25,95,103.0
7090,B-4,441.167,167/1000,95,103.0
7091,C2,441.25,0.25,95,103.0
7092,C2,441.25,0.25,95,103.0
7093,G4,441.333,167/1000,95,103.0
7094,D5,441.5,167/1000,95,103.0
7095,C2,441.5,0.25,47,103.0
7096,E2,441.5,0.25,95,103.0
7097,D2,441.5,0.25,95,103.0
7098,E-5,441.667,167/1000,95,103.0
7099,C2,441.75,0.25,47,103.0
7100,C2,441.75,0.25,95,103.0
7101,D5,441.833,167/1000,95,103.0
7102,C5,442.0,167/1000,95,103.0
7103,C2,442.0,0.25,95,103.0
7104,C2,442.0,0.25,95,103.0
7105,B-4,442.167,167/1000,95,103.0
7106,C2,442.25,0.25,95,103.0
7107,C2,442.25,0.25,95,103.0
7108,G4,442.333,167/1000,95,103.0
7109,A4,442.5,167/1000,95,103.0
7110,E1,442.5,0.25,95,103.0
7111,E2,442.5,0.25,95,103.0
7112,D2,442.5,0.25,95,103.0
7113,B-4,442.667,167/1000,95,103.0
7114,E1,442.75,0.25,95,103.0
7115,C2,442.75,0.25,95,103.0
7116,A4,442.833,167/1000,95,103.0
7117,G4,443.0,167/1000,95,103.0
7118,F1,443.0,0.25,95,103.0
7119,C2,443.0,0.25,95,103.0
7120,F4,443.167,167/1000,95,103.0
7121,F1,443.25,0.25,95,103.0
7122,C2,443.25,0.25,95,103.0
7123,E-4,443.333,167/1000,95,103.0
7124,A4,443.5,167/1000,95,103.0
7125,F#1,443.5,0.25,95,103.0
7126,E2,443.5,0.25,95,103.0
7127,D2,443.5,0.25,95,103.0
7128,B-4,443.667,167/1000,95,103.0
7129,F#1,443.75,0.25,95,103.0
7130,C2,443.75,0.25,95,103.0
7131,A4,443.833,167/1000,95,103.0
7132,G4,444.0,167/1000,95,103.0
7133,G1,444.0,0.25,95,103.0
7134,C2,444.0,0.25,95,103.0
7135,F4,444.167,167/1000,95,103.0
7136,G1,444.25,0.25,95,103.0
7137,C2,444.25,0.25,95,103.0
7138,E-4,444.333,167/1000,95,103.0
7139,F4,444.5,167/1000,95,103.0
7140,B-1,444.5,0.25,95,103.0
7141,E2,444.5,0.25,95,103.0
7142,D2,444.5,0.25,95,103.0
7143,F#4,444.667,167/1000,95,103.0
7144,C2,444.75,0.25,95,103.0
7145,C2,444.75,0.25,95,103.0
7146,F4,444.833,167/1000,95,103.0
7147,E-4,445.0,167/1000,95,103.0
7148,C2,445.0,0.25,95,103.0
7149,C2,445.0,0.25,95,103.0
7150,C4,445.167,167/1000,95,103.0
7151,C2,445.25,0.25,95,103.0
7152,C2,445.25,0.25,95,103.0
7153,B-3,445.333,167/1000,95,103.0
7154,F4,445.5,167/1000,95,103.0
7155,C2,445.5,0.25,31,103.0
7156,E2,445.5,0.25,95,103.0
7157,D2,445.5,0.25,95,103.0
7158,F#4,445.667,167/1000,95,103.0
7159,C2,445.75,0.25,31,103.0
7160,C2,445.75,0.25,95,103.0
7161,F4,445.833,167/1000,95,103.0
7162,E-4,446.0,167/1000,95,103.0
7163,C2,446.0,0.25,95,103.0
7164,C2,446.0,0.25,95,103.0
7165,C4,446.167,167/1000,95,103.0
7166,C2,446.25,0.25,95,103.0
7167,C2,446.25,0.25,95,103.0
7168,B-3,446.333,167/1000,95,103.0
7169,F#4,446.5,167/1000,95,103.0
7170,B-1,446.5,0.25,95,103.0
7171,E2,446.5,0.25,95,103.0
7172,D2,446.5,0.25,95,103.0
7173,E-4,446.667,167/1000,95,103.0
7174,C2,446.75,0.25,95,103.0
7175,C2,446.75,0.25,95,103.0
7176,F4,446.833,167/1000,95,103.0
7177,E-4,447.0,167/1000,95,103.0
7178,C2,447.0,0.25,95,103.0
7179,C2,447.0,0.25,95,103.0
7180,C4,447.167,167/1000,95,103.0
7181,C2,447.25,0.25,95,103.0
7182,C2,447.25,0.25,95,103.0
7183,B-3,447.333,167/1000,95,103.0
7184,F#4,447.5,167/1000,95,103.0
7185,E-2,447.5,0.25,95,103.0
7186,E2,447.5,0.25,95,103.0
7187,D2,447.5,0.25,95,103.0
7188,E-4,447.667,167/1000,95,103.0
7189,C2,447.75,0.75,95,103.0
7190,C2,447.75,0.25,95,103.0
7191,F4,447.833,167/1000,95,103.0
7192,E-4,448.0,167/1000,95,103.0
7193,C2,448.0,0.25,95,103.0
7194,C4,448.167,167/1000,95,103.0
7195,C2,448.25,0.25,95,103.0
7196,B-3,448.333,167/1000,95,103.0
7197,F#4,448.5,0.25,95,103.0
7198,B-1,448.5,0.25,95,103.0
7199,E2,448.5,0.25,95,103.0
7200,D2,448.5,0.25,95,103.0
7201,E4,448.75,0.25,95,103.0
7202,C2,448.75,0.25,95,103.0
7203,C2,448.75,0.25,95,103.0
7204,E-4,449.0,0.25,95,103.0
7205,C2,449.0,0.25,95,103.0
7206,C2,449.0,0.25,95,103.0
7207,C4,449.25,0.25,95,103.0
7208,C2,449.25,0.25,95,103.0
7209,C2,449.25,0.25,95,103.0
7210,B-3,449.5,0.25,95,103.0
7211,C2,449.5,0.25,47,103.0
7212,E2,449.5,0.25,95,103.0
7213,D2,449.5,0.25,95,103.0
7214,G3,449.75,0.25,95,103.0
7215,C2,449.75,0.25,47,103.0
7216,C2,449.75,0.25,95,103.0
7217,F3,450.0,0.25,95,103.0
7218,C2,450.0,0.25,95,103.0
7219,C2,450.0,0.25,95,103.0
7220,E-3,450.25,0.25,95,103.0
7221,C2,450.25,0.25,95,103.0
7222,C2,450.25,0.25,95,103.0
7223,C3,450.5,1.5,95,103.0
7224,E1,450.5,0.25,95,103.0
7225,E2,450.5,0.25,95,103.0
7226,D2,450.5,0.25,95,103.0
7227,E1,450.75,0.25,95,103.0
7228,C2,450.75,0.25,95,103.0
7229,F1,451.0,0.25,95,103.0
7230,C2,451.0,0.25,95,103.0
7231,F1,451.25,0.25,95,103.0
7232,C2,451.25,0.25,95,103.0
7233,F#1,451.5,0.25,95,103.0
7234,E2,451.5,0.25,95,103.0
7235,D2,451.5,0.25,95,103.0
7236,F#1,451.75,0.25,95,103.0
7237,C2,451.75,0.25,95,103.0
7238,E4,452.0,0.5,95,103.0
7239,G1,452.0,0.25,95,103.0
7240,C2,452.0,0.25,95,103.0
7241,G1,452.25,0.25,95,103.0
7242,C2,452.25,0.25,95,103.0
7243,C5,452.5,0.125,95,103.0
7244,C2,452.5,0.25,95,103.0
7245,E2,452.5,0.25,95,103.0
7246,D2,452.5,0.25,95,103.0
7247,A4,452.625,0.125,70,103.0
7248,G4,452.75,0.125,70,103.0
7249,D2,452.75,0.25,95,103.0
7250,C2,452.75,0.25,95,103.0
7251,A4,452.875,0.125,70,103.0
7252,C5,453.0,0.125,95,103.0
7253,D2,453.0,0.25,95,103.0
7254,C2,453.0,0.25,95,103.0
7255,A4,453.125,0.125,70,103.0
7256,C5,453.25,0.125,70,103.0
7257,D2,453.25,0.25,95,103.0
7258,C2,453.25,0.25,95,103.0
7259,A4,453.375,0.125,70,103.0
7260,G4,453.5,0.125,70,103.0
7261,D2,453.5,0.25,95,103.0
7262,E2,453.5,0.25,95,103.0
7263,D2,453.5,0.25,95,103.0
7264,A4,453.625,0.125,70,103.0
7265,C5,453.75,0.125,95,103.0
7266,D2,453.75,0.25,95,103.0
7267,C2,453.75,0.25,95,103.0
7268,A4,453.875,0.125,70,103.0
7269,C5,454.0,0.125,70,103.0
7270,D2,454.0,0.25,95,103.0
7271,C2,454.0,0.25,95,103.0
7272,A4,454.125,0.125,70,103.0
7273,G4,454.25,0.125,70,103.0
7274,D2,454.25,0.25,95,103.0
7275,C2,454.25,0.25,95,103.0
7276,A4,454.375,0.125,70,103.0
7277,D5,454.5,0.125,95,103.0
7278,C2,454.5,0.25,95,103.0
7279,E2,454.5,0.25,95,103.0
7280,D2,454.5,0.25,95,103.0
7281,A4,454.625,0.125,70,103.0
7282,G4,454.75,0.125,70,103.0
7283,D2,454.75,0.25,95,103.0
7284,C2,454.75,0.25,95,103.0
7285,A4,454.875,0.125,70,103.0
7286,C5,455.0,0.125,95,103.0
7287,D2,455.0,0.25,95,103.0
7288,C2,455.0,0.25,95,103.0
7289,A4,455.125,0.125,70,103.0
7290,G4,455.25,0.125,70,103.0
7291,D2,455.25,0.25,95,103.0
7292,C2,455.25,0.25,95,103.0
7293,A4,455.375,0.125,70,103.0
7294,D5,455.5,0.125,95,103.0
7295,F2,455.5,0.25,95,103.0
7296,E2,455.5,0.25,95,103.0
7297,D2,455.5,0.25,95,103.0
7298,A4,455.625,0.125,70,103.0
7299,G4,455.75,0.125,70,103.0
7300,D2,455.75,0.75,95,103.0
7301,C2,455.75,0.25,95,103.0
7302,A4,455.875,0.125,70,103.0
7303,C5,456.0,0.125,95,103.0
7304,C2,456.0,0.25,95,103.0
7305,A4,456.125,0.125,70,103.0
7306,G4,456.25,0.125,70,103.0
7307,C2,456.25,0.25,95,103.0
7308,A4,456.375,0.125,70,103.0
7309,F5,456.5,0.125,95,103.0
7310,C2,456.5,0.25,95,103.0
7311,E2,456.5,0.25,95,103.0
7312,D2,456.5,0.25,95,103.0
7313,D5,456.625,0.125,70,103.0
7314,C5,456.75,0.125,70,103.0
7315,D2,456.75,0.25,95,103.0
7316,C2,456.75,0.25,95,103.0
7317,D5,456.875,0.125,70,103.0
7318,F5,457.0,0.125,95,103.0
7319,D2,457.0,0.25,95,103.0
7320,C2,457.0,0.25,95,103.0
7321,D5,457.125,0.125,70,103.0
7322,F5,457.25,0.125,95,103.0
7323,D2,457.25,0.25,95,103.0
7324,C2,457.25,0.25,95,103.0
7325,D5,457.375,0.125,70,103.0
7326,C5,457.5,0.125,70,103.0
7327,D2,457.5,0.25,95,103.0
7328,E2,457.5,0.25,95,103.0
7329,D2,457.5,0.25,95,103.0
7330,D5,457.625,0.125,70,103.0
7331,F5,457.75,0.125,95,103.0
7332,D2,457.75,0.25,95,103.0
7333,C2,457.75,0.25,95,103.0
7334,D5,457.875,0.125,70,103.0
7335,F5,458.0,0.125,95,103.0
7336,D2,458.0,0.25,95,103.0
7337,C2,458.0,0.25,95,103.0
7338,D5,458.125,0.125,70,103.0
7339,C5,458.25,0.125,70,103.0
7340,D2,458.25,0.25,95,103.0
7341,C2,458.25,0.25,95,103.0
7342,D5,458.375,0.125,70,103.0
7343,G5,458.5,0.125,95,103.0
7344,C2,458.5,0.25,95,103.0
7345,E2,458.5,0.25,95,103.0
7346,D2,458.5,0.25,95,103.0
7347,D5,458.625,0.125,70,103.0
7348,C5,458.75,0.125,70,103.0
7349,D2,458.75,0.25,95,103.0
7350,C2,458.75,0.25,95,103.0
7351,D5,458.875,0.125,70,103.0
7352,F5,459.0,0.125,95,103.0
7353,D2,459.0,0.25,95,103.0
7354,C2,459.0,0.25,95,103.0
7355,D5,459.125,0.125,70,103.0
7356,C5,459.25,0.125,70,103.0
7357,D2,459.25,0.25,95,103.0
7358,C2,459.25,0.25,95,103.0
7359,D5,459.375,0.125,70,103.0
7360,G5,459.5,0.125,95,103.0
7361,F2,459.5,0.25,95,103.0
7362,E2,459.5,0.25,95,103.0
7363,D2,459.5,0.25,95,103.0
7364,D5,459.625,0.125,70,103.0
7365,C5,459.75,0.125,70,103.0
7366,D2,459.75,0.75,95,103.0
7367,C2,459.75,0.25,95,103.0
7368,D5,459.875,0.125,70,103.0
7369,F5,460.0,0.125,95,103.0
7370,C2,460.0,0.25,95,103.0
7371,D5,460.125,0.125,70,103.0
7372,C5,460.25,0.125,70,103.0
7373,C2,460.25,0.25,95,103.0
7374,C4,460.375,0.125,95,103.0
7375,C#4,460.5,0.25,95,103.0
7376,C#2,460.5,0.75,95,103.0
7377,D2,460.5,0.5,95,103.0
7378,F4,460.75,0.25,95,103.0
7379,G4,461.0,0.25,95,103.0
7380,F#2,461.0,0.25,95,103.0
7381,E2,461.0,0.25,95,103.0
7382,C#4,461.25,0.25,95,103.0
7383,C#2,461.25,0.25,95,103.0
7384,E2,461.25,0.5,95,103.0
7385,F4,461.5,0.25,95,103.0
7386,G4,461.75,0.25,95,103.0
7387,B4,462.0,0.25,95,103.0
7388,C#2,462.0,0.75,95,103.0
7389,D2,462.0,0.5,95,103.0
7390,F4,462.25,0.25,95,103.0
7391,G4,462.5,0.25,95,103.0
7392,F#2,462.5,0.25,95,103.0
7393,E2,462.5,0.25,95,103.0
7394,B4,462.75,0.25,95,103.0
7395,C#2,462.75,0.25,95,103.0
7396,E2,462.75,0.5,95,103.0
7397,C#5,463.0,0.25,95,103.0
7398,E5,463.25,1.25,95,103.0
7399,C#2,463.5,0.5,95,103.0
7400,D2,463.5,0.5,95,103.0
7401,C#2,464.0,0.5,95,103.0
7402,F#2,464.0,0.25,95,103.0
7403,E2,464.0,0.25,95,103.0
7404,E2,464.25,0.25,95,103.0
7405,B-5,464.5,167/1000,95,103.0
7406,A1,464.5,0.75,95,103.0
7407,E2,464.5,0.5,95,103.0
7408,A5,464.667,167/1000,95,103.0
7409,G#5,464.833,167/1000,95,103.0
7410,G5,465.0,167/1000,95,103.0
7411,F#2,465.0,0.25,95,103.0
7412,D2,465.0,0.25,95,103.0
7413,F#5,465.167,167/1000,95,103.0
7414,A1,465.25,0.25,95,103.0
7415,E2,465.25,0.5,95,103.0
7416,F5,465.333,167/1000,95,103.0
7417,E-5,465.5,167/1000,95,103.0
7418,D5,465.667,167/1000,95,103.0
7419,F#2,465.75,0.25,95,103.0
7420,D2,465.75,0.25,95,103.0
7421,D5,465.833,167/1000,95,103.0
7422,C#5,466.0,167/1000,95,103.0
7423,A1,466.0,0.75,95,103.0
7424,E2,466.0,0.5,95,103.0
7425,C5,466.167,167/1000,95,103.0
7426,B4,466.333,167/1000,95,103.0
7427,G4,466.5,167/1000,95,103.0
7428,F#2,466.5,0.25,95,103.0
7429,D2,466.5,0.25,95,103.0
7430,F#4,466.667,167/1000,95,103.0
7431,A1,466.75,0.25,95,103.0
7432,E2,466.75,0.5,95,103.0
7433,F4,466.833,167/1000,95,103.0
7434,E4,467.0,167/1000,95,103.0
7435,E-4,467.167,167/1000,95,103.0
7436,F#2,467.25,0.25,95,103.0
7437,D2,467.25,0.25,95,103.0
7438,D4,467.333,167/1000,95,103.0
7439,C#4,467.5,167/1000,95,103.0
7440,A1,467.5,0.5,95,103.0
7441,E2,467.5,0.25,95,103.0
7442,C4,467.667,167/1000,95,103.0
7443,B3,467.833,167/1000,95,103.0
7444,B-3,468.0,167/1000,95,103.0
7445,A1,468.0,0.25,95,103.0
7446,E2,468.0,167/1000,95,103.0
7447,A3,468.167,167/1000,95,103.0
7448,E2,468.167,167/1000,95,103.0
7449,A1,468.25,0.25,95,103.0
7450,G3,468.333,167/1000,95,103.0
7451,E2,468.333,167/1000,95,103.0
7452,B-3,468.5,0.25,95,103.0
7453,B-1,468.5,0.25,95,103.0
7454,C2,468.5,0.5,95,103.0
7455,C4,468.75,0.25,95,103.0
7456,C2,468.75,0.25,95,103.0
7457,C4,469.0,0.25,95,103.0
7458,C2,469.0,0.25,95,103.0
7459,C2,469.0,0.25,95,103.0
7460,C4,469.25,0.25,95,103.0
7461,C2,469.25,0.25,95,103.0
7462,C2,469.25,0.25,95,103.0
7463,C2,469.5,0.25,31,103.0
7464,E2,469.5,0.5,95,103.0
7465,C3,469.5,0.5,95,103.0
7466,C4,469.75,0.25,95,103.0
7467,C2,469.75,0.25,31,103.0
7468,C2,470.0,0.25,95,103.0
7469,C2,470.0,0.5,95,103.0
7470,C4,470.25,0.25,95,103.0
7471,C2,470.25,0.25,95,103.0
7472,B-3,470.5,0.25,95,103.0
7473,B-1,470.5,0.25,95,103.0
7474,C2,470.5,0.5,95,103.0
7475,C4,470.75,0.25,95,103.0
7476,C2,470.75,0.25,95,103.0
7477,C4,471.0,0.25,95,103.0
7478,C2,471.0,0.25,95,103.0
7479,C2,471.0,0.25,95,103.0
7480,C4,471.25,0.25,95,103.0
7481,C2,471.25,0.25,95,103.0
7482,C2,471.25,0.25,95,103.0
7483,E-4,471.5,0.25,95,103.0
7484,E-2,471.5,0.25,95,103.0
7485,E2,471.5,0.5,95,103.0
7486,C3,471.5,0.5,95,103.0
7487,C4,471.75,0.75,95,103.0
7488,C2,471.75,0.75,95,103.0
7489,C2,472.0,0.5,95,103.0
7490,F#4,472.5,0.5,95,103.0
7491,B-1,472.5,0.25,95,103.0
7492,C2,472.5,0.5,95,103.0
7493,C2,472.75,0.25,95,103.0
7494,F#4,473.0,0.5,95,103.0
7495,C2,473.0,0.25,95,103.0
7496,C2,473.0,0.25,95,103.0
7497,B-4,473.25,0.5,95,103.0
7498,C2,473.25,0.25,95,103.0
7499,C2,473.25,0.25,95,103.0
7500,F#4,473.5,0.25,95,103.0
7501,C2,473.5,0.25,47,103.0
7502,E2,473.5,0.5,95,103.0
7503,C3,473.5,0.5,95,103.0
7504,F#4,473.75,0.5,95,103.0
7505,C2,473.75,0.25,47,103.0
7506,B-4,474.0,0.5,95,103.0
7507,C2,474.0,0.25,95,103.0
7508,C2,474.0,0.25,95,103.0
7509,F#4,474.25,0.25,95,103.0
7510,C2,474.25,0.25,95,103.0
7511,C2,474.25,0.5,95,103.0
7512,F#4,474.5,0.5,95,103.0
7513,E1,474.5,0.25,95,103.0
7514,B-4,474.75,0.5,95,103.0
7515,E1,474.75,0.25,95,103.0
7516,E2,474.75,167/1000,95,103.0
7517,E2,474.917,167/1000,95,103.0
7518,F#4,475.0,0.25,95,103.0
7519,F1,475.0,0.25,95,103.0
7520,E2,475.083,167/1000,95,103.0
7521,F#4,475.25,0.25,95,103.0
7522,F1,475.25,0.25,95,103.0
7523,E2,475.25,0.25,95,103.0
7524,F#4,475.5,1.0,95,103.0
7525,F#1,475.5,0.25,95,103.0
7526,E2,475.5,0.25,95,103.0
7527,F#1,475.75,0.25,95,103.0
7528,A2,475.75,0.25,95,103.0
7529,C2,475.75,0.25,95,103.0
7530,G1,476.0,0.25,95,103.0
7531,A2,476.0,0.25,95,103.0
7532,C2,476.0,0.25,95,103.0
7533,G1,476.25,0.25,95,103.0
7534,A2,476.25,0.25,95,103.0
7535,C2,476.25,0.25,95,103.0
7536,F#4,476.5,0.25,95,103.0
7537,G#1,476.5,2.0,95,103.0
7538,C#3,476.5,1.0,95,103.0
7539,E2,476.5,1.0,95,103.0
7540,C2,476.5,1.0,95,103.0
7541,F4,476.75,0.125,95,103.0
7542,E-4,476.875,0.125,70,103.0
7543,F4,477.0,1.0,70,103.0
7544,F#2,477.5,0.5,95,103.0
7545,C2,477.5,0.5,95,103.0
7546,E-4,478.0,0.5,95,103.0
7547,F#2,478.0,0.5,95,103.0
7548,C2,478.0,0.5,95,103.0
7549,G#4,478.5,0.75,95,103.0
7550,G#1,478.5,2.0,95,103.0
7551,F#2,478.5,1.0,95,103.0
7552,E2,478.5,1.0,95,103.0
7553,G4,479.25,0.5,95,103.0
7554,F#2,479.5,0.5,95,103.0
7555,G#4,479.75,0.125,95,103.0
7556,G4,479.875,0.125,70,103.0
7557,F4,480.0,0.5,70,103.0
7558,F#2,480.0,0.25,95,103.0
7559,E2,480.0,0.25,95,103.0
7560,F#2,480.25,0.25,95,103.0
7561,G2,480.25,0.25,95,103.0
7562,E-4,480.5,0.75,95,103.0
7563,B-1,480.5,2.0,95,103.0
7564,E-5,480.5,4.0,95,103.0
7565,E-4,480.5,4.0,95,103.0
7566,G#3,480.5,4.0,95,103.0
7567,E-3,480.5,4.0,95,103.0
7568,F#2,480.5,0.5,95,103.0
7569,C2,480.5,0.5,95,103.0
7570,F#2,481.0,0.5,95,103.0
7571,E-4,481.188,0.062,95,103.0
7572,D4,481.25,0.75,95,103.0
7573,F#2,481.5,0.5,95,103.0
7574,B-3,482.0,0.5,95,103.0
7575,F#2,482.0,0.5,95,103.0
7576,F3,482.5,2.0,95,103.0
7577,B-1,482.5,2.0,95,103.0
7578,F#2,482.5,1.0,95,103.0
7579,E2,482.5,1.0,95,103.0
7580,F#2,483.5,0.5,95,103.0
7581,F#2,484.0,0.25,95,103.0
7582,E2,484.0,0.25,95,103.0
7583,F#2,484.25,0.25,95,103.0
7584,G2,484.25,0.25,95,103.0
7585,F3,484.5,1.5,95,103.0
7586,B-1,484.5,0.5,95,103.0
7587,F5,484.5,4.0,95,103.0
7588,F4,484.5,4.0,95,103.0
7589,B-3,484.5,4.0,95,103.0
7590,B-2,484.5,1.0,95,103.0
7591,F#2,484.5,1.0,95,103.0
7592,C2,484.5,1.0,95,103.0
7593,C2,485.0,0.5,95,103.0
7594,B-1,485.5,0.5,95,103.0
7595,F#2,485.5,0.5,95,103.0
7596,C2,485.5,0.5,95,103.0
7597,E-4,486.0,53/500,95,103.0
7598,C2,486.0,0.5,95,103.0
7599,F#2,486.0,0.5,95,103.0
7600,C2,486.0,0.5,95,103.0
7601,F4,486.167,53/500,95,103.0
7602,G4,486.333,53/500,95,103.0
7603,G#4,486.5,0.75,95,103.0
7604,C2,486.5,2.0,95,103.0
7605,F#2,486.5,1.0,95,103.0
7606,E2,486.5,1.0,95,103.0
7607,G4,487.25,0.75,95,103.0
7608,F#2,487.5,0.5,95,103.0
7609,F4,488.0,0.25,95,103.0
7610,F#2,488.0,0.25,95,103.0
7611,E2,488.0,0.25,95,103.0
7612,E-4,488.25,0.25,95,103.0
7613,F#2,488.25,0.25,95,103.0
7614,G2,488.25,0.25,95,103.0
7615,B-4,488.5,167/1000,95,103.0
7616,C2,488.5,0.5,95,103.0
7617,E-5,488.5,4.0,95,103.0
7618,G#4,488.5,4.0,95,103.0
7619,G#3,488.5,4.0,95,103.0
7620,E-3,488.5,4.0,95,103.0
7621,F#2,488.5,0.5,95,103.0
7622,E2,488.5,0.5,95,103.0
7623,C2,488.5,0.5,95,103.0
7624,G4,488.667,167/1000,95,103.0
7625,G#4,488.833,167/1000,95,103.0
7626,G4,489.0,167/1000,95,103.0
7627,D2,489.0,1.5,95,103.0
7628,F#2,489.0,0.5,95,103.0
7629,E2,489.0,0.5,95,103.0
7630,C2,489.0,0.5,95,103.0
7631,F4,489.167,167/1000,95,103.0
7632,E-4,489.333,167/1000,95,103.0
7633,E-5,489.5,167/1000,95,103.0
7634,C5,489.667,167/1000,95,103.0
7635,D5,489.833,167/1000,95,103.0
7636,C5,490.0,167/1000,95,103.0
7637,B2,490.0,0.5,95,103.0
7638,A2,490.0,0.5,95,103.0
7639,C2,490.0,0.5,95,103.0
7640,B-4,490.167,167/1000,95,103.0
7641,G4,490.333,167/1000,95,103.0
7642,F5,490.5,167/1000,95,103.0
7643,D2,490.5,2.0,95,103.0
7644,F#2,490.5,0.5,95,103.0
7645,E2,490.5,0.5,95,103.0
7646,C2,490.5,0.5,95,103.0
7647,D5,490.667,167/1000,95,103.0
7648,E-5,490.833,167/1000,95,103.0
7649,D5,491.0,167/1000,95,103.0
7650,C5,491.167,167/1000,95,103.0
7651,F#2,491.25,0.25,95,103.0
7652,E2,491.25,0.25,95,103.0
7653,C2,491.25,0.25,95,103.0
7654,B-4,491.333,167/1000,95,103.0
7655,G5,491.5,167/1000,95,103.0
7656,F#2,491.5,0.5,95,103.0
7657,E2,491.5,0.5,95,103.0
7658,E-5,491.667,167/1000,95,103.0
7659,F5,491.833,167/1000,95,103.0
7660,E-5,492.0,167/1000,95,103.0
7661,F#2,492.0,0.25,95,103.0
7662,E2,492.0,0.25,95,103.0
7663,C2,492.0,0.25,95,103.0
7664,D5,492.167,167/1000,95,103.0
7665,F#2,492.25,0.25,95,103.0
7666,E2,492.25,0.25,95,103.0
7667,C2,492.25,0.25,95,103.0
7668,B-4,492.333,167/1000,95,103.0
7669,G#5,492.5,2.0,95,103.0
7670,C#2,492.5,0.5,95,103.0
7671,B-5,492.5,4.0,95,103.0
7672,B-4,492.5,4.0,95,103.0
7673,B-3,492.5,4.0,95,103.0
7674,F#2,492.5,0.5,95,103.0
7675,C2,492.5,0.5,95,103.0
7676,C#2,493.0,0.5,95,103.0
7677,F#2,493.0,0.5,95,103.0
7678,C2,493.0,0.5,95,103.0
7679,C#2,493.5,0.5,95,103.0
7680,B-2,493.5,0.5,95,103.0
7681,E2,493.5,0.5,95,103.0
7682,C#2,494.0,0.5,95,103.0
7683,C2,494.0,0.25,95,103.0
7684,C2,494.25,0.25,95,103.0
7685,C#2,494.5,0.5,95,103.0
7686,B-5,494.5,1.5,58,103.0
7687,B-5,494.5,1.5,58,103.0
7688,B-6,494.5,1.5,58,103.0
7689,F#2,494.5,0.5,95,103.0
7690,C2,494.5,0.5,95,103.0
7691,C#2,495.0,0.5,95,103.0
7692,F#2,495.0,0.5,95,103.0
7693,C2,495.0,0.5,95,103.0
7694,C#2,495.5,0.5,95,103.0
7695,B-2,495.5,0.5,95,103.0
7696,E2,495.5,0.5,95,103.0
7697,G#5,496.0,0.25,95,103.0
7698,C#2,496.0,0.5,95,103.0
7699,C2,496.0,0.5,95,103.0
7700,G5,496.25,0.25,95,103.0
7701,G#5,496.5,0.25,95,103.0
7702,C2,496.5,0.5,95,103.0
7703,C2,496.5,0.5,95,103.0
7704,G#5,496.5,4.0,95,103.0
7705,G#4,496.5,4.0,95,103.0
7706,G#3,496.5,4.0,95,103.0
7707,G5,496.75,0.25,95,103.0
7708,E-5,497.0,0.25,95,103.0
7709,C2,497.0,0.5,95,103.0
7710,C2,497.0,0.5,95,103.0
7711,B-4,497.25,0.25,95,103.0
7712,F5,497.5,0.25,95,103.0
7713,C2,497.5,0.5,95,103.0
7714,B-2,497.5,0.5,95,103.0
7715,E2,497.5,0.5,95,103.0
7716,B-4,497.75,0.25,95,103.0
7717,E-5,498.0,0.5,95,103.0
7718,C2,498.0,0.5,95,103.0
7719,C2,498.0,0.25,95,103.0
7720,C2,498.25,0.25,95,103.0
7721,E-5,498.5,1.0,95,103.0
7722,C2,498.5,0.5,95,103.0
7723,C2,498.5,0.5,95,103.0
7724,C2,499.0,0.5,95,103.0
7725,C2,499.0,0.5,95,103.0
7726,C2,499.5,0.5,95,103.0
7727,B-2,499.5,0.5,95,103.0
7728,E2,499.5,0.5,95,103.0
7729,E-5,500.0,0.25,95,103.0
7730,C2,500.0,0.5,95,103.0
7731,C2,500.0,0.5,95,103.0
7732,D5,500.5,0.125,95,103.0
7733,B-1,500.5,0.5,95,103.0
7734,E2,500.5,0.5,31,103.0
7735,G#5,500.5,4.0,95,103.0
7736,G#4,500.5,4.0,95,103.0
7737,G#3,500.5,4.0,95,103.0
7738,E-5,500.625,0.125,95,103.0
7739,D5,500.75,0.125,95,103.0
7740,C5,500.875,0.125,95,103.0
7741,D5,501.0,0.125,95,103.0
7742,B-1,501.0,0.5,95,103.0
7743,E2,501.0,0.5,31,103.0
7744,E-5,501.125,0.125,95,103.0
7745,D5,501.25,0.125,95,103.0
7746,C5,501.375,0.125,95,103.0
7747,C5,501.5,0.125,95,103.0
7748,B-1,501.5,0.5,95,103.0
7749,E2,501.5,0.5,47,103.0
7750,D5,501.625,0.125,95,103.0
7751,C5,501.75,0.125,95,103.0
7752,B-4,501.875,0.125,95,103.0
7753,C5,502.0,0.125,95,103.0
7754,B-1,502.0,0.5,95,103.0
7755,E2,502.0,0.5,47,103.0
7756,D5,502.125,0.125,95,103.0
7757,C5,502.25,0.125,95,103.0
7758,B-4,502.375,0.125,95,103.0
7759,B-4,502.5,0.125,95,103.0
7760,B-1,502.5,0.5,95,103.0
7761,E2,502.5,0.5,47,103.0
7762,C5,502.625,0.125,95,103.0
7763,B-4,502.75,0.125,95,103.0
7764,G#4,502.875,0.125,95,103.0
7765,B-4,503.0,0.125,95,103.0
7766,B-1,503.0,0.5,95,103.0
7767,E2,503.0,0.5,47,103.0
7768,C5,503.125,0.125,95,103.0
7769,B-4,503.25,0.125,95,103.0
7770,G#4,503.375,0.125,95,103.0
7771,G#4,503.5,0.125,95,103.0
7772,B-1,503.5,0.5,95,103.0
7773,E2,503.5,0.5,79,103.0
7774,B-4,503.625,0.125,95,103.0
7775,G#4,503.75,0.125,95,103.0
7776,G4,503.875,0.125,95,103.0
7777,G#4,504.0,0.125,95,103.0
7778,B-1,504.0,0.5,95,103.0
7779,E2,504.0,0.5,79,103.0
7780,B-4,504.125,0.125,95,103.0
7781,G#4,504.25,0.125,95,103.0
7782,G4,504.375,0.125,95,103.0
7783,G4,504.5,0.125,95,103.0
7784,B-1,504.5,0.5,95,103.0
7785,E2,504.5,0.5,95,103.0
7786,B-5,504.5,4.0,95,103.0
7787,B-4,504.5,4.0,95,103.0
7788,F4,504.5,4.0,95,103.0
7789,G#4,504.625,0.125,95,103.0
7790,G4,504.75,0.125,95,103.0
7791,F4,504.875,0.125,95,103.0
7792,G4,505.0,0.125,95,103.0
7793,B-1,505.0,0.5,95,103.0
7794,E2,505.0,0.5,95,103.0
7795,G#4,505.125,0.125,95,103.0
7796,G4,505.25,0.125,95,103.0
7797,F4,505.375,0.125,95,103.0
7798,F4,505.5,0.125,95,103.0
7799,B-1,505.5,0.5,95,103.0
7800,E2,505.5,0.5,111,103.0
7801,G4,505.625,0.125,95,103.0
7802,F4,505.75,0.125,95,103.0
7803,E-4,505.875,0.125,95,103.0
7804,F4,506.0,0.125,95,103.0
7805,B-1,506.0,0.5,95,103.0
7806,E2,506.0,0.5,111,103.0
7807,G4,506.125,0.125,95,103.0
7808,F4,506.25,0.125,95,103.0
7809,E-4,506.375,0.125,95,103.0
7810,E-4,506.5,0.125,95,103.0
7811,B-1,506.5,0.5,95,103.0
7812,E2,506.5,0.25,111,103.0
7813,F4,506.625,0.125,95,103.0
7814,E-4,506.75,0.125,95,103.0
7815,E2,506.75,167/1000,95,103.0
7816,D4,506.875,0.125,95,103.0
7817,E2,506.917,167/1000,95,103.0
7818,E-4,507.0,0.125,95,103.0
7819,B-1,507.0,0.5,95,103.0
7820,E2,507.083,167/1000,95,103.0
7821,F4,507.125,0.125,95,103.0
7822,E-4,507.25,0.125,95,103.0
7823,E2,507.25,0.25,95,103.0
7824,D4,507.375,0.125,95,103.0
7825,D4,507.5,0.125,95,103.0
7826,B-1,507.5,0.5,95,103.0
7827,C3,507.5,0.25,95,103.0
7828,E-4,507.625,0.125,95,103.0
7829,D4,507.75,0.125,95,103.0
7830,C3,507.75,0.25,95,103.0
7831,C4,507.875,0.125,95,103.0
7832,D4,508.0,0.125,95,103.0
7833,B-1,508.0,0.5,95,103.0
7834,A2,508.0,0.25,95,103.0
7835,E-4,508.125,0.125,95,103.0
7836,E-3,508.25,0.125,95,103.0
7837,A2,508.25,0.25,95,103.0
7838,B-2,508.375,0.125,95,103.0
7839,B-2,508.5,0.25,95,103.0
7840,B-1,508.5,0.25,95,103.0
7841,E3,508.5,0.25,95,103.0
7842,D2,508.5,0.25,95,103.0
7843,B-2,508.75,107/1000,95,103.0
7844,B-1,508.75,0.25,95,103.0
7845,B2,509.0,0.25,95,103.0
7846,B1,509.0,0.25,95,103.0
7847,C2,509.0,0.25,95,103.0
7848,C3,509.25,0.25,95,103.0
7849,C2,509.25,0.25,95,103.0
7850,D2,509.25,0.25,95,103.0
7851,G2,509.75,0.25,95,103.0
7852,G1,509.75,0.25,95,103.0
7853,E1,510.0,53/1000,95,103.0
7854,D2,510.0,0.25,95,103.0
7855,A2,510.0,53/1000,127,103.0
7856,G2,510.0,53/1000,127,103.0
7857,E1,510.25,53/1000,95,103.0
7858,A2,510.25,53/1000,127,103.0
7859,G2,510.25,53/1000,127,103.0
7860,B-2,510.5,107/1000,95,103.0
7861,B-1,510.5,0.25,95,103.0
7862,C2,510.5,0.25,95,103.0
7863,B-2,510.75,107/1000,95,103.0
7864,B-1,510.75,0.25,95,103.0
7865,E2,510.75,0.25,95,103.0
7866,C3,511.0,107/1000,95,103.0
7867,C2,511.0,0.25,95,103.0
7868,C2,511.0,0.25,95,103.0
7869,C3,511.25,107/1000,95,103.0
7870,C2,511.25,0.25,95,103.0
7871,D2,511.25,0.25,95,103.0
7872,E-3,511.5,0.25,95,103.0
7873,E-2,511.5,0.25,95,103.0
7874,D2,511.5,0.25,95,103.0
7875,C#3,511.75,0.75,95,103.0
7876,C#2,511.75,0.75,95,103.0
7877,E2,511.75,0.25,95,103.0
7878,E2,512.0,0.25,95,103.0
7879,E2,512.25,0.25,95,103.0
7880,B-2,512.5,0.25,95,103.0
7881,B-1,512.5,0.25,95,103.0
7882,B-5,512.5,4.0,95,103.0
7883,B-4,512.5,4.0,95,103.0
7884,F4,512.5,4.0,95,103.0
7885,F#2,512.5,0.25,95,103.0
7886,D2,512.5,0.25,95,103.0
7887,B-2,512.75,0.25,95,103.0
7888,B-1,512.75,0.25,95,103.0
7889,B2,513.0,0.25,95,103.0
7890,B1,513.0,0.25,95,103.0
7891,C2,513.0,0.25,95,103.0
7892,C3,513.25,0.25,95,103.0
7893,C2,513.25,0.25,95,103.0
7894,E2,513.25,0.25,95,103.0
7895,E2,513.75,0.75,95,103.0
7896,E1,513.75,0.75,95,103.0
7897,D2,514.0,0.25,95,103.0
7898,D2,514.25,0.25,95,103.0
7899,F2,514.5,0.25,95,103.0
7900,F1,514.5,0.25,95,103.0
7901,C2,514.5,0.25,95,103.0
7902,F2,514.75,0.25,95,103.0
7903,F1,514.75,0.25,95,103.0
7904,A2,514.75,0.25,95,103.0
7905,F2,515.0,0.25,95,103.0
7906,F1,515.0,0.25,95,103.0
7907,C2,515.0,0.25,95,103.0
7908,F#2,515.25,0.5,95,103.0
7909,F#1,515.25,0.5,95,103.0
7910,D2,515.25,0.25,95,103.0
7911,D2,515.5,0.25,95,103.0
7912,G1,515.75,0.75,95,103.0
7913,A2,515.75,0.25,95,103.0
7914,D3,515.75,0.75,63,103.0
7915,D4,515.75,0.75,63,103.0
7916,A2,516.0,0.25,95,103.0
7917,A2,516.25,0.25,95,103.0
7918,B-2,516.5,0.25,95,103.0
7919,B-1,516.5,0.25,95,103.0
7920,E3,516.5,0.25,95,103.0
7921,D2,516.5,0.25,95,103.0
7922,B-2,516.75,0.25,95,103.0
7923,B-1,516.75,0.25,95,103.0
7924,B2,517.0,0.25,95,103.0
7925,B1,517.0,0.25,95,103.0
7926,C2,517.0,0.25,95,103.0
7927,C3,517.25,0.25,95,103.0
7928,C2,517.25,0.25,95,103.0
7929,D2,517.25,0.25,95,103.0
7930,G2,517.75,0.25,95,103.0
7931,G1,517.75,0.25,95,103.0
7932,E1,518.0,53/1000,95,103.0
7933,D2,518.0,0.25,95,103.0
7934,E1,518.25,53/1000,95,103.0
7935,B-2,518.5,107/1000,95,103.0
7936,B-1,518.5,167/1000,95,103.0
7937,C2,518.5,0.25,95,103.0
7938,B2,518.667,107/1000,95,103.0
7939,B1,518.667,167/1000,95,103.0
7940,E2,518.75,0.25,95,103.0
7941,C3,518.833,107/1000,95,103.0
7942,C2,518.833,167/1000,95,103.0
7943,E-3,519.0,107/1000,95,103.0
7944,E-2,519.0,167/1000,95,103.0
7945,C2,519.0,0.25,95,103.0
7946,C3,519.167,107/1000,95,103.0
7947,C2,519.167,167/1000,95,103.0
7948,D2,519.25,0.25,95,103.0
7949,B-2,519.333,107/1000,95,103.0
7950,B-1,519.333,167/1000,95,103.0
7951,F3,519.5,0.25,95,103.0
7952,F2,519.5,0.25,95,103.0
7953,D2,519.5,0.25,95,103.0
7954,E-3,519.75,0.75,95,103.0
7955,E-2,519.75,0.75,95,103.0
7956,E2,519.75,0.25,95,103.0
7957,E2,520.0,0.25,95,103.0
7958,E2,520.25,0.25,95,103.0
7959,F#3,520.375,0.125,95,103.0
7960,F#2,520.438,0.062,95,103.0
7961,G3,520.5,0.5,95,103.0
7962,G2,520.5,0.5,95,103.0
7963,E3,520.5,0.25,95,103.0
7964,D2,520.5,0.25,95,103.0
7965,B-3,521.0,0.25,95,103.0
7966,B-2,521.0,0.25,95,103.0
7967,C2,521.0,0.25,95,103.0
7968,G3,521.188,0.062,95,103.0
7969,G2,521.188,0.062,95,103.0
7970,F#3,521.25,0.5,95,103.0
7971,F#2,521.25,0.5,95,103.0
7972,E2,521.25,0.25,95,103.0
7973,F3,521.75,0.25,95,103.0
7974,F2,521.75,0.25,95,103.0
7975,E-3,522.0,0.25,95,103.0
7976,E-2,522.0,0.25,95,103.0
7977,D2,522.0,0.25,95,103.0
7978,B-2,522.25,0.25,95,103.0
7979,B-1,522.25,0.25,95,103.0
7980,D2,522.25,0.25,95,103.0
7981,B-2,522.438,0.062,95,103.0
7982,B-1,522.438,0.062,95,103.0
7983,C3,522.5,0.25,95,103.0
7984,C2,522.5,0.25,95,103.0
7985,C2,522.5,0.25,95,103.0
7986,B2,522.75,0.25,95,103.0
7987,B1,522.75,0.25,95,103.0
7988,A2,522.75,0.25,95,103.0
7989,B-2,523.0,0.25,95,103.0
7990,B-1,523.0,0.25,95,103.0
7991,C2,523.0,0.25,95,103.0
7992,A2,523.25,0.25,95,103.0
7993,A1,523.25,0.25,95,103.0
7994,D2,523.25,0.25,95,103.0
7995,G2,523.5,0.25,95,103.0
7996,G1,523.5,0.25,95,103.0
7997,D2,523.5,0.25,95,103.0
7998,F#2,523.75,0.25,95,103.0
7999,F#1,523.75,0.25,95,103.0
8000,A2,523.75,0.25,95,103.0
8001,F2,524.0,0.25,95,103.0
8002,F1,524.0,0.25,95,103.0
8003,A2,524.0,0.25,95,103.0
8004,E2,524.25,0.25,95,103.0
8005,E1,524.25,0.25,95,103.0
8006,A2,524.25,0.25,95,103.0
8007,C3,524.5,0.25,95,103.0
8008,C2,524.5,0.25,95,103.0
8009,E3,524.5,0.25,95,103.0
8010,D2,524.5,0.25,95,103.0
8011,G2,524.75,0.25,47,103.0
8012,C2,524.75,0.25,95,103.0
8013,C3,525.0,0.25,95,103.0
8014,C2,525.0,0.25,95,103.0
8015,C2,525.0,0.25,95,103.0
8016,F4,525.25,1.25,95,103.0
8017,C2,525.25,0.75,95,103.0
8018,D2,525.25,0.25,95,103.0
8019,C5,526.0,0.25,95,103.0
8020,C2,526.0,0.25,95,103.0
8021,D2,526.0,0.25,95,103.0
8022,C5,526.25,0.25,95,103.0
8023,C2,526.25,0.25,95,103.0
8024,F4,526.5,0.75,95,103.0
8025,E1,526.5,53/1000,95,103.0
8026,C2,526.5,0.25,95,103.0
8027,C5,526.75,0.25,95,103.0
8028,C2,526.75,0.25,95,103.0
8029,E2,526.75,0.25,95,103.0
8030,C5,527.0,0.25,95,103.0
8031,E1,527.0,53/1000,95,103.0
8032,C2,527.0,0.25,95,103.0
8033,F4,527.25,0.75,95,103.0
8034,C2,527.25,0.25,95,103.0
8035,D2,527.25,0.25,95,103.0
8036,C5,527.5,0.25,95,103.0
8037,C2,527.5,0.25,95,103.0
8038,D2,527.5,0.25,95,103.0
8039,C5,527.75,0.25,95,103.0
8040,C2,527.75,0.25,95,103.0
8041,E2,527.75,0.25,95,103.0
8042,F4,528.0,0.5,95,103.0
8043,E1,528.0,53/1000,95,103.0
8044,E2,528.0,0.25,95,103.0
8045,C5,528.25,0.25,95,103.0
8046,E1,528.25,53/1000,95,103.0
8047,E2,528.25,0.25,95,103.0
8048,C5,528.5,0.25,95,103.0
8049,F4,528.5,0.25,95,103.0
8050,C2,528.5,0.25,95,103.0
8051,F#2,528.5,0.25,95,103.0
8052,D2,528.5,0.25,95,103.0
8053,F4,528.75,0.75,95,103.0
8054,C2,528.75,0.25,95,103.0
8055,C5,529.0,0.25,95,103.0
8056,C2,529.0,0.25,95,103.0
8057,C2,529.0,0.25,95,103.0
8058,C5,529.25,0.25,95,103.0
8059,C2,529.25,0.75,95,103.0
8060,E2,529.25,0.25,95,103.0
8061,F4,529.5,0.75,95,103.0
8062,C5,529.75,0.25,95,103.0
8063,C5,530.0,0.25,95,103.0
8064,D2,530.0,0.25,95,103.0
8065,F4,530.25,0.75,95,103.0
8066,C5,530.5,0.25,95,103.0
8067,C2,530.5,0.25,95,103.0
8068,C5,530.75,0.25,95,103.0
8069,C2,530.75,1.0,95,103.0
8070,A2,530.75,0.25,95,103.0
8071,F4,531.0,0.75,95,103.0
8072,C2,531.0,0.25,95,103.0
8073,D2,531.25,0.25,95,103.0
8074,D2,531.5,0.25,95,103.0
8075,G1,531.75,0.25,95,103.0
8076,A2,531.75,0.25,95,103.0
8077,B-4,531.75,0.5,95,103.0
8078,F#4,531.75,0.5,95,103.0
8079,A2,532.0,0.25,95,103.0
8080,A2,532.25,0.25,95,103.0
8081,G4,532.5,0.5,47,103.0
8082,C2,532.5,0.25,95,103.0
8083,E3,532.5,0.25,95,103.0
8084,D2,532.5,0.25,95,103.0
8085,C2,532.75,0.25,95,103.0
8086,C2,533.0,0.25,95,103.0
8087,C2,533.0,0.25,95,103.0
8088,B3,533.0,53/1000,95,103.0
8089,G3,533.0,53/1000,95,103.0
8090,D3,533.0,53/1000,95,103.0
8091,E-4,533.25,0.75,95,103.0
8092,C2,533.25,0.75,95,103.0
8093,D2,533.25,0.25,95,103.0
8094,C5,534.0,0.25,95,103.0
8095,C2,534.0,0.25,95,103.0
8096,D2,534.0,0.25,95,103.0
8097,G4,534.25,0.25,95,103.0
8098,C2,534.25,0.25,95,103.0
8099,B-4,534.5,1.0,95,103.0
8100,E1,534.5,53/1000,95,103.0
8101,C2,534.5,0.25,95,103.0
8102,C2,534.75,0.25,95,103.0
8103,E2,534.75,0.25,95,103.0
8104,E1,535.0,53/1000,95,103.0
8105,C2,535.0,0.25,95,103.0
8106,E1,535.25,53/1000,95,103.0
8107,D2,535.25,0.25,95,103.0
8108,B-4,535.5,0.25,95,103.0
8109,C2,535.5,0.25,95,103.0
8110,D2,535.5,0.25,95,103.0
8111,G4,535.75,0.25,95,103.0
8112,C2,535.75,0.25,95,103.0
8113,E2,535.75,0.25,95,103.0
8114,F4,536.0,0.25,95,103.0
8115,E1,536.0,53/1000,95,103.0
8116,E2,536.0,0.25,95,103.0
8117,E-4,536.25,0.25,95,103.0
8118,E1,536.25,53/1000,95,103.0
8119,E2,536.25,0.25,95,103.0
8120,F4,536.5,0.25,95,103.0
8121,C2,536.5,0.25,95,103.0
8122,F#2,536.5,0.25,95,103.0
8123,D2,536.5,0.25,95,103.0
8124,C4,536.75,0.25,95,103.0
8125,C2,536.75,0.25,95,103.0
8126,E-4,537.0,0.25,95,103.0
8127,C2,537.0,0.25,95,103.0
8128,C2,537.0,0.25,95,103.0
8129,F4,537.25,0.25,70,103.0
8130,C2,537.25,0.75,95,103.0
8131,E2,537.25,0.5,95,103.0
8132,E-4,537.5,1.0,95,103.0
8133,C2,537.75,0.25,95,103.0
8134,E2,538.0,0.25,95,103.0
8135,E2,538.25,0.25,95,103.0
8136,C4,538.5,0.25,95,103.0
8137,C3,538.5,0.25,95,103.0
8138,C2,538.5,0.25,95,103.0
8139,B-3,538.75,0.25,95,103.0
8140,B-2,538.75,0.25,95,103.0
8141,D2,538.75,0.25,95,103.0
8142,G3,539.0,0.25,95,103.0
8143,G2,539.0,0.25,95,103.0
8144,C2,539.0,0.25,95,103.0
8145,F#3,539.25,0.25,95,103.0
8146,F#2,539.25,0.25,95,103.0
8147,C2,539.25,0.25,95,103.0
8148,F3,539.5,0.125,95,103.0
8149,F2,539.5,167/1000,95,103.0
8150,D2,539.5,0.25,95,103.0
8151,F#3,539.625,0.125,70,103.0
8152,F#2,539.667,167/1000,95,103.0
8153,F3,539.75,0.25,70,103.0
8154,A2,539.75,0.25,95,103.0
8155,F2,539.833,167/1000,95,103.0
8156,E-3,540.0,0.25,95,103.0
8157,E-2,540.0,0.25,95,103.0
8158,A2,540.0,0.25,95,103.0
8159,C3,540.25,0.25,95,103.0
8160,C2,540.25,0.25,95,103.0
8161,A2,540.25,0.25,95,103.0
8162,B-2,540.5,0.25,95,103.0
8163,B-1,540.5,0.25,95,103.0
8164,E3,540.5,0.25,95,103.0
8165,D2,540.5,0.25,95,103.0
8166,C2,540.5,0.25,95,103.0
8167,C3,540.75,1.0,95,103.0
8168,C2,540.75,1.0,95,103.0
8169,E3,540.75,2.0,95,103.0
8170,D2,540.75,2.0,95,103.0
8171,C2,540.75,2.0,95,103.0
