,note_name,start_time,duration,velocity,tempo
0,E-4,0.0,0.5,100,75.0
1,C#4,0.0,0.5,100,75.0
2,E3,0.0,0.5,100,75.0
3,G2,0.0,0.5,100,75.0
4,E-4,1.0,0.5,100,75.0
5,C#4,1.0,0.5,100,75.0
6,E3,1.0,0.5,100,75.0
7,G2,1.0,0.5,100,75.0
8,C#4,2.0,0.5,100,75.0
9,E-4,2.0,0.5,100,75.0
10,E3,2.0,0.5,100,75.0
11,G2,2.0,0.5,100,75.0
12,E-4,3.0,0.5,100,75.0
13,C#4,3.0,1.0,100,75.0
14,E3,3.0,1.0,100,75.0
15,G2,3.0,1.0,100,75.0
16,F#4,3.5,0.5,100,75.0
17,E-4,4.0,0.5,100,75.0
18,C#4,4.0,0.5,100,75.0
19,E3,4.0,0.5,100,75.0
20,G2,4.0,0.5,100,75.0
21,E-4,5.0,0.5,100,75.0
22,C#4,5.0,0.5,100,75.0
23,E3,5.0,0.5,100,75.0
24,G2,5.0,0.5,100,75.0
25,C#4,6.0,0.5,100,75.0
26,E-4,6.0,0.5,100,75.0
27,E3,6.0,0.5,100,75.0
28,G2,6.0,0.5,100,75.0
29,E-4,7.0,0.5,100,75.0
30,C#4,7.0,1.0,100,75.0
31,E3,7.0,1.0,100,75.0
32,G2,7.0,1.0,100,75.0
33,F#4,7.5,0.5,100,75.0
34,D4,8.0,0.5,100,75.0
35,C4,8.0,0.5,100,75.0
36,E-3,8.0,0.5,100,75.0
37,G#2,8.0,0.5,100,75.0
38,D4,9.0,0.5,100,75.0
39,C4,9.0,0.5,100,75.0
40,E-3,9.0,0.5,100,75.0
41,G#2,9.0,0.5,100,75.0
42,D4,10.0,0.5,100,75.0
43,C4,10.0,0.5,100,75.0
44,E-3,10.0,0.5,100,75.0
45,G#2,10.0,0.5,100,75.0
46,D4,11.0,0.5,100,75.0
47,C4,11.0,1.0,100,75.0
48,G#2,11.0,1.0,100,75.0
49,E-3,11.0,1.0,100,75.0
50,G4,11.5,0.5,100,75.0
51,D4,12.0,0.5,100,75.0
52,C4,12.0,0.5,100,75.0
53,E-3,12.0,0.5,100,75.0
54,G#2,12.0,0.5,100,75.0
55,D4,13.0,0.5,100,75.0
56,C4,13.0,0.5,100,75.0
57,E-3,13.0,0.5,100,75.0
58,G#2,13.0,0.5,100,75.0
59,D4,14.0,0.5,100,75.0
60,C4,14.0,0.5,100,75.0
61,E-3,14.0,0.5,100,75.0
62,G#2,14.0,0.5,100,75.0
63,D4,15.0,0.5,100,75.0
64,C4,15.0,1.0,100,75.0
65,G#2,15.0,1.0,100,75.0
66,E-3,15.0,1.0,100,75.0
67,G4,15.5,0.5,100,75.0
68,F#3,16.0,0.5,100,75.0
69,A2,16.0,0.5,100,75.0
70,E-4,16.0,0.5,100,75.0
71,F4,16.0,0.5,100,75.0
72,F#3,17.0,0.5,100,75.0
73,A2,17.0,0.5,100,75.0
74,F4,17.0,0.5,100,75.0
75,E-4,17.0,0.5,100,75.0
76,F#3,18.0,0.5,100,75.0
77,A2,18.0,0.5,100,75.0
78,E-4,18.0,0.5,100,75.0
79,F4,18.0,0.5,100,75.0
80,F4,19.0,0.5,100,75.0
81,F#3,19.0,1.0,100,75.0
82,A2,19.0,1.0,100,75.0
83,E-4,19.0,1.0,100,75.0
84,G#4,19.5,0.5,100,75.0
85,F#3,20.0,0.5,100,75.0
86,A2,20.0,0.5,100,75.0
87,E-4,20.0,0.5,100,75.0
88,F4,20.0,0.5,100,75.0
89,F#3,21.0,0.5,100,75.0
90,A2,21.0,0.5,100,75.0
91,F4,21.0,0.5,100,75.0
92,E-4,21.0,0.5,100,75.0
93,F#3,22.0,0.5,100,75.0
94,A2,22.0,0.5,100,75.0
95,E-4,22.0,0.5,100,75.0
96,F4,22.0,0.5,100,75.0
97,F4,23.0,0.5,100,75.0
98,F#3,23.0,1.0,100,75.0
99,A2,23.0,1.0,100,75.0
100,E-4,23.0,1.0,100,75.0
101,G#4,23.5,0.5,100,75.0
102,B-2,24.0,0.5,100,75.0
103,F3,24.0,0.5,100,75.0
104,E4,24.0,0.5,100,75.0
105,D4,24.0,0.5,100,75.0
106,B-2,25.0,0.5,100,75.0
107,F3,25.0,0.5,100,75.0
108,E4,25.0,0.5,100,75.0
109,D4,25.0,0.5,100,75.0
110,B-2,26.0,0.5,100,75.0
111,F3,26.0,0.5,100,75.0
112,E4,26.0,0.5,100,75.0
113,D4,26.0,0.5,100,75.0
114,E4,27.0,0.5,100,75.0
115,B-2,27.0,1.0,100,75.0
116,F3,27.0,1.0,100,75.0
117,D4,27.0,1.0,100,75.0
118,A4,27.5,0.5,100,75.0
119,B-2,28.0,0.5,100,75.0
120,F3,28.0,0.5,100,75.0
121,E4,28.0,0.5,100,75.0
122,D4,28.0,0.5,100,75.0
123,B-2,29.0,0.5,100,75.0
124,F3,29.0,0.5,100,75.0
125,E4,29.0,0.5,100,75.0
126,D4,29.0,0.5,100,75.0
127,E4,30.0,0.5,100,75.0
128,D4,30.0,1.0,100,75.0
129,F3,30.0,1.0,100,75.0
130,B-2,30.0,1.0,100,75.0
131,A4,30.5,0.5,100,75.0
132,E4,31.0,0.5,100,75.0
133,D4,31.0,0.5,100,75.0
134,F3,31.0,0.5,100,75.0
135,B-2,31.0,0.5,100,75.0
136,F4,31.5,0.25,100,75.0
137,E4,31.75,0.25,100,75.0
138,F#5,32.0,667/1000,100,75.0
139,G#4,32.0,1.25,100,75.0
140,E-4,32.0,1.25,100,75.0
141,C4,32.0,1.25,100,75.0
142,D3,32.0,1.25,100,75.0
143,G4,32.667,333/1000,100,75.0
144,G4,33.25,0.25,100,75.0
145,G#4,33.25,0.25,100,75.0
146,E-4,33.25,0.25,100,75.0
147,C4,33.25,0.25,100,75.0
148,D3,33.25,0.25,100,75.0
149,G4,33.5,0.125,100,75.0
150,E-4,33.5,0.125,100,75.0
151,G#4,33.5,0.125,100,75.0
152,C4,33.5,0.125,100,75.0
153,D3,33.5,0.125,100,75.0
154,G4,33.625,0.125,100,75.0
155,E-4,33.625,0.125,100,75.0
156,G#4,33.625,0.125,100,75.0
157,C4,33.625,0.125,100,75.0
158,D3,33.625,0.125,100,75.0
159,G4,33.75,0.25,100,75.0
160,G#4,33.75,0.25,100,75.0
161,E-4,33.75,0.25,100,75.0
162,C4,33.75,0.25,100,75.0
163,D3,33.75,0.25,100,75.0
164,G#4,34.0,71/500,100,75.0
165,G#3,34.0,0.5,100,75.0
166,B2,34.0,0.5,100,75.0
167,G4,34.0,0.5,100,75.0
168,F4,34.0,0.5,100,75.0
169,D4,34.142,71/500,100,75.0
170,E4,34.283,71/500,100,75.0
171,C#5,34.425,71/500,100,75.0
172,F#5,34.567,71/500,100,75.0
173,E-4,34.75,71/500,100,75.0
174,D5,34.85,3/20,100,75.0
175,E5,35.0,9/20,100,75.0
176,B-4,35.0,1.0,100,75.0
177,F#4,35.0,1.0,100,75.0
178,C4,35.0,1.0,100,75.0
179,G3,35.0,1.0,100,75.0
180,C#5,35.45,217/1000,100,75.0
181,C#5,35.667,333/1000,100,75.0
182,C#5,36.0,4.0,100,75.0
183,B-4,36.0,4.0,100,75.0
184,F#4,36.0,4.0,100,75.0
185,C4,36.0,4.0,100,75.0
186,G3,36.0,4.0,100,75.0
187,C5,40.0,71/500,100,75.0
188,F4,40.0,0.5,100,75.0
189,E-4,40.0,0.5,100,75.0
190,F#3,40.0,0.5,100,75.0
191,A2,40.0,0.5,100,75.0
192,B-4,40.142,71/500,100,75.0
193,B-4,40.283,71/500,100,75.0
194,C5,40.425,71/500,100,75.0
195,C#5,40.567,71/500,100,75.0
196,C5,40.75,71/500,100,75.0
197,B-4,40.85,3/20,100,75.0
198,C5,41.0,167/1000,100,75.0
199,E-4,41.0,0.5,100,75.0
200,D4,41.0,0.5,100,75.0
201,G#3,41.0,0.5,100,75.0
202,F3,41.0,0.5,100,75.0
203,B-5,41.167,167/1000,100,75.0
204,B4,41.333,0.5,100,75.0
205,G#4,41.833,167/1000,100,75.0
206,G#4,42.0,667/1000,100,75.0
207,C4,42.0,1.0,100,75.0
208,F#3,42.0,1.0,100,75.0
209,E-4,42.0,1.0,100,75.0
210,D4,42.0,1.0,100,75.0
211,F4,42.667,1333/1000,100,75.0
212,C4,43.0,0.375,100,75.0
213,F#3,43.0,0.375,100,75.0
214,E-4,43.0,0.375,100,75.0
215,D4,43.0,0.375,100,75.0
216,A3,43.375,0.125,100,75.0
217,E-3,43.375,0.125,100,75.0
218,B3,43.375,0.125,100,75.0
219,C4,43.375,0.125,100,75.0
220,F#3,43.5,0.5,100,75.0
221,C4,43.5,0.5,100,75.0
222,E-4,43.5,0.5,100,75.0
223,D4,43.5,0.5,100,75.0
224,C5,44.333,333/1000,100,75.0
225,F#3,44.333,333/1000,100,75.0
226,B-4,44.333,333/1000,100,75.0
227,B4,44.333,333/1000,100,75.0
228,A4,44.667,333/1000,100,75.0
229,F4,44.667,333/1000,100,75.0
230,G4,44.667,333/1000,100,75.0
231,G#4,44.667,333/1000,100,75.0
232,C5,47.0,71/500,100,75.0
233,F4,47.0,1.0,100,75.0
234,E-4,47.0,1.0,100,75.0
235,F#3,47.0,1.0,100,75.0
236,A2,47.0,1.0,100,75.0
237,B-4,47.142,71/500,100,75.0
238,B-4,47.283,71/500,100,75.0
239,C5,47.425,71/500,100,75.0
240,C#5,47.567,71/500,100,75.0
241,C5,47.75,71/500,100,75.0
242,B-4,47.85,3/20,100,75.0
243,C5,48.0,0.125,100,75.0
244,F4,48.0,4.0,100,75.0
245,E-4,48.0,4.0,100,75.0
246,F#3,48.0,4.0,100,75.0
247,A2,48.0,4.0,100,75.0
248,B-5,48.125,0.125,100,75.0
249,B4,48.25,1.0,100,75.0
250,G#4,49.25,0.25,100,75.0
251,B-4,49.5,0.75,100,75.0
252,G4,50.25,729/500,100,75.0
253,G4,51.75,0.25,100,75.0
254,F5,52.0,1.5,100,75.0
255,G3,52.0,1.5,100,75.0
256,E3,52.0,1.5,100,75.0
257,E-5,52.0,1.5,100,75.0
258,F#4,52.0,1.5,100,75.0
259,C#5,53.5,2.5,100,75.0
260,B4,53.5,2.5,100,75.0
261,G4,53.5,2.5,100,75.0
262,D4,53.5,2.5,100,75.0
263,A3,53.5,2.5,100,75.0
264,C#5,56.0,2.0,100,75.0
265,B4,58.0,2.0,100,75.0
266,G4,58.0,2.0,100,75.0
267,D4,58.0,2.0,100,75.0
268,A3,58.0,2.0,100,75.0
269,F4,63.5,0.25,100,75.0
270,E4,63.75,0.25,100,75.0
271,F#5,64.0,0.875,100,75.0
272,F#5,64.875,0.125,100,75.0
273,G4,65.0,0.875,100,75.0
274,G4,65.875,0.125,100,75.0
275,F#5,66.0,0.875,100,75.0
276,G#4,66.5,0.5,100,75.0
277,E-4,66.5,0.5,100,75.0
278,C4,66.5,0.5,100,75.0
279,D3,66.5,0.5,100,75.0
280,F#5,66.875,0.125,100,75.0
281,G4,67.0,0.5,100,75.0
282,G4,67.5,0.125,100,75.0
283,E4,67.5,0.5,100,75.0
284,D4,67.5,0.5,100,75.0
285,F3,67.5,0.5,100,75.0
286,B-2,67.5,0.5,100,75.0
287,G4,67.625,0.125,100,75.0
288,G4,67.75,0.125,100,75.0
289,G4,67.875,0.125,100,75.0
290,G4,68.0,167/1000,100,75.0
291,G#4,68.167,167/1000,100,75.0
292,G#4,68.333,167/1000,100,75.0
293,G4,68.5,167/1000,100,75.0
294,G#4,68.5,0.5,100,75.0
295,E-4,68.5,0.5,100,75.0
296,C4,68.5,0.5,100,75.0
297,D3,68.5,0.5,100,75.0
298,D4,68.667,167/1000,100,75.0
299,E4,68.833,167/1000,100,75.0
300,F5,69.0,167/1000,100,75.0
301,C#5,69.167,167/1000,100,75.0
302,E4,69.333,167/1000,100,75.0
303,F5,69.5,167/1000,100,75.0
304,D4,69.5,0.5,100,75.0
305,E4,69.5,0.5,100,75.0
306,F3,69.5,0.5,100,75.0
307,B-2,69.5,0.5,100,75.0
308,E-4,69.667,167/1000,100,75.0
309,D5,69.833,167/1000,100,75.0
310,B4,70.0,2.0,100,75.0
311,G#2,70.0,1.0,100,75.0
312,E3,70.0,1.0,100,75.0
313,B-3,70.0,1.0,100,75.0
314,G3,70.0,1.0,100,75.0
315,G2,71.0,1.0,100,75.0
316,E-3,71.0,1.0,100,75.0
317,F#3,71.0,1.0,100,75.0
318,A3,71.0,1.0,100,75.0
319,A5,72.25,0.25,100,75.0
320,G4,72.5,0.25,100,75.0
321,E-4,72.667,667/1000,100,75.0
322,G#4,72.667,667/1000,100,75.0
323,D3,72.667,667/1000,100,75.0
324,C4,72.667,667/1000,100,75.0
325,F#4,72.75,0.25,100,75.0
326,G#5,73.0,167/1000,100,75.0
327,A4,73.167,167/1000,100,75.0
328,G5,73.333,167/1000,100,75.0
329,F#3,73.333,667/1000,100,75.0
330,B-2,73.333,667/1000,100,75.0
331,D4,73.333,667/1000,100,75.0
332,E4,73.333,667/1000,100,75.0
333,D5,73.5,167/1000,100,75.0
334,E-4,73.667,167/1000,100,75.0
335,C#5,73.833,167/1000,100,75.0
336,C5,74.0,71/500,100,75.0
337,D3,74.0,1.0,100,75.0
338,C4,74.0,1.0,100,75.0
339,E-4,74.0,1.0,100,75.0
340,G#4,74.0,1.0,100,75.0
341,B-4,74.142,71/500,100,75.0
342,B-4,74.283,71/500,100,75.0
343,C5,74.425,71/500,100,75.0
344,C#5,74.567,71/500,100,75.0
345,C5,74.75,71/500,100,75.0
346,B-4,74.85,3/20,100,75.0
347,A5,75.0,0.75,100,75.0
348,G4,75.75,0.125,100,75.0
349,F#5,75.875,0.125,100,75.0
350,F4,76.0,167/1000,100,75.0
351,B4,76.167,167/1000,100,75.0
352,B-5,76.333,167/1000,100,75.0
353,G#5,76.5,167/1000,100,75.0
354,E5,76.667,167/1000,100,75.0
355,E-4,76.833,167/1000,100,75.0
356,D5,77.0,167/1000,100,75.0
357,G#4,77.167,167/1000,100,75.0
358,G#5,77.333,167/1000,100,75.0
359,F#4,77.5,167/1000,100,75.0
360,B-2,77.5,0.5,100,75.0
361,F3,77.5,0.5,100,75.0
362,D4,77.5,0.5,100,75.0
363,E4,77.5,0.5,100,75.0
364,C5,77.667,167/1000,100,75.0
365,B5,77.833,167/1000,100,75.0
366,B-4,78.0,2.0,100,75.0
367,B4,80.5,0.5,100,75.0
368,C#3,80.667,667/1000,100,75.0
369,B3,80.667,667/1000,100,75.0
370,D4,80.667,667/1000,100,75.0
371,G4,80.667,667/1000,100,75.0
372,D5,81.0,0.5,100,75.0
373,A2,81.333,667/1000,100,75.0
374,E3,81.333,667/1000,100,75.0
375,C#4,81.333,667/1000,100,75.0
376,E-4,81.333,667/1000,100,75.0
377,C#5,81.5,0.5,100,75.0
378,E-5,82.0,667/1000,100,75.0
379,G4,82.0,2.0,100,75.0
380,D4,82.0,2.0,100,75.0
381,B3,82.0,2.0,100,75.0
382,C#3,82.0,2.0,100,75.0
383,E4,82.667,1167/1000,100,75.0
384,C#4,83.833,83/1000,100,75.0
385,C#5,83.917,83/1000,100,75.0
386,C5,84.0,333/1000,100,75.0
387,D4,84.333,333/1000,100,75.0
388,F5,84.667,333/1000,100,75.0
389,F5,85.0,0.5,100,75.0
390,A2,85.333,667/1000,100,75.0
391,E3,85.333,667/1000,100,75.0
392,C#4,85.333,667/1000,100,75.0
393,E-4,85.333,667/1000,100,75.0
394,F#4,85.625,0.125,100,75.0
395,G#4,85.75,0.125,100,75.0
396,G5,85.875,0.125,100,75.0
397,E5,86.0,667/1000,100,75.0
398,B-2,86.0,1.0,100,75.0
399,F#3,86.0,1.0,100,75.0
400,E-4,86.0,1.0,100,75.0
401,F4,86.0,1.0,100,75.0
402,F4,86.667,1167/1000,100,75.0
403,E-3,87.5,0.5,100,75.0
404,C#4,87.5,0.5,100,75.0
405,E-4,87.5,0.5,100,75.0
406,A4,87.5,0.5,100,75.0
407,F4,87.833,83/1000,100,75.0
408,B3,87.917,83/1000,100,75.0
409,B-4,88.0,4.0,100,75.0
410,D3,88.0,2.0,100,75.0
411,G#3,88.0,2.0,100,75.0
412,A3,88.0,2.0,100,75.0
413,C#4,88.0,2.0,100,75.0
414,C#3,90.0,2.0,100,75.0
415,F#3,90.0,2.0,100,75.0
416,G3,90.0,2.0,100,75.0
417,B3,90.0,2.0,100,75.0
418,F#3,94.0,0.5,100,75.0
419,A2,94.0,0.5,100,75.0
420,E-4,94.0,0.5,100,75.0
421,F4,94.0,0.5,100,75.0
422,F#3,95.0,0.5,100,75.0
423,A2,95.0,0.5,100,75.0
424,F4,95.0,0.5,100,75.0
425,E-4,95.0,0.5,100,75.0
426,F#3,96.0,0.5,100,75.0
427,A2,96.0,0.5,100,75.0
428,E-4,96.0,0.5,100,75.0
429,F4,96.0,0.5,100,75.0
430,F4,97.0,0.5,100,75.0
431,F#3,97.0,1.0,100,75.0
432,A2,97.0,1.0,100,75.0
433,E-4,97.0,1.0,100,75.0
434,G#4,97.5,0.5,100,75.0
435,B-2,98.0,0.5,100,75.0
436,F3,98.0,0.5,100,75.0
437,E4,98.0,0.5,100,75.0
438,D4,98.0,0.5,100,75.0
439,B-2,99.0,0.5,100,75.0
440,F3,99.0,0.5,100,75.0
441,E4,99.0,0.5,100,75.0
442,D4,99.0,0.5,100,75.0
443,E4,100.0,0.5,100,75.0
444,D4,100.0,1.0,100,75.0
445,F3,100.0,1.0,100,75.0
446,B-2,100.0,1.0,100,75.0
447,A4,100.5,0.5,100,75.0
448,E4,101.0,0.5,100,75.0
449,D4,101.0,0.5,100,75.0
450,F3,101.0,0.5,100,75.0
451,B-2,101.0,0.5,100,75.0
452,F#3,102.0,0.5,100,75.0
453,A2,102.0,0.5,100,75.0
454,E-4,102.0,0.5,100,75.0
455,F4,102.0,0.5,100,75.0
456,F#3,103.0,0.5,100,75.0
457,A2,103.0,0.5,100,75.0
458,F4,103.0,0.5,100,75.0
459,E-4,103.0,0.5,100,75.0
460,F#3,104.0,0.5,100,75.0
461,A2,104.0,0.5,100,75.0
462,E-4,104.0,0.5,100,75.0
463,F4,104.0,0.5,100,75.0
464,F4,105.0,0.5,100,75.0
465,F#3,105.0,1.0,100,75.0
466,A2,105.0,1.0,100,75.0
467,E-4,105.0,1.0,100,75.0
468,G#4,105.5,0.5,100,75.0
469,D4,106.0,0.5,100,75.0
470,B-2,106.0,1.0,100,75.0
471,F3,106.0,1.0,100,75.0
472,E4,106.0,1.0,100,75.0
473,A4,106.5,0.5,100,75.0
474,F4,106.667,667/1000,100,75.0
475,B-2,107.0,3.0,100,75.0
476,F3,107.0,3.0,100,75.0
477,D4,107.0,3.0,100,75.0
478,E4,107.0,3.0,100,75.0
479,E4,107.333,667/1000,100,75.0
480,F#5,108.0,3.5,100,75.0
481,G#4,110.0,0.125,100,75.0
482,E-4,110.0,0.125,100,75.0
483,C4,110.0,0.125,100,75.0
484,D3,110.0,0.125,100,75.0
485,G#4,110.125,0.125,100,75.0
486,E-4,110.125,0.125,100,75.0
487,C4,110.125,0.125,100,75.0
488,D3,110.125,0.125,100,75.0
489,E-4,110.25,0.25,100,75.0
490,G#4,110.25,0.25,100,75.0
491,C4,110.25,0.25,100,75.0
492,D3,110.25,0.25,100,75.0
493,E-4,111.333,333/1000,100,75.0
494,G#4,111.333,333/1000,100,75.0
495,D3,111.333,333/1000,100,75.0
496,G4,111.5,0.5,100,75.0
497,E-4,111.667,667/1000,100,75.0
498,G#4,111.667,667/1000,100,75.0
499,D3,111.667,667/1000,100,75.0
500,E-4,112.333,333/1000,100,75.0
501,G#4,112.333,333/1000,100,75.0
502,D3,112.333,333/1000,100,75.0
503,F#5,112.5,1.5,100,75.0
504,E-4,112.667,1333/1000,100,75.0
505,G#4,112.667,1333/1000,100,75.0
506,D3,112.667,1333/1000,100,75.0
507,F#5,114.0,0.75,100,75.0
508,G4,114.75,0.25,100,75.0
509,F#5,115.0,1.0,100,75.0
510,F#5,116.0,3.0,100,75.0
511,G#5,119.0,1/5,100,75.0
512,D5,119.2,1/5,100,75.0
513,G#4,119.25,0.125,100,75.0
514,E-4,119.25,0.125,100,75.0
515,C4,119.25,0.125,100,75.0
516,D3,119.25,0.125,100,75.0
517,G#4,119.375,0.125,100,75.0
518,E-4,119.375,0.125,100,75.0
519,C4,119.375,0.125,100,75.0
520,D3,119.375,0.125,100,75.0
521,E5,119.4,1/5,100,75.0
522,G#4,119.5,0.5,100,75.0
523,E-4,119.5,0.5,100,75.0
524,C4,119.5,0.5,100,75.0
525,D3,119.5,0.5,100,75.0
526,C#5,119.6,1/5,100,75.0
527,F#4,119.8,1/5,100,75.0
528,E-5,120.0,667/1000,100,75.0
529,D4,120.667,333/1000,100,75.0
530,D4,121.583,283/1000,100,75.0
531,D4,122.433,283/1000,100,75.0
532,D4,122.717,283/1000,100,75.0
533,E-5,123.0,667/1000,100,75.0
534,E1,123.0,2.0,100,75.0
535,G1,123.0,2.0,100,75.0
536,B1,123.0,2.0,100,75.0
537,D2,123.0,2.0,100,75.0
538,F2,123.0,2.0,100,75.0
539,A2,123.0,2.0,100,75.0
540,C3,123.0,2.0,100,75.0
541,D4,123.667,333/1000,100,75.0
542,E1,126.0,283/1000,100,75.0
543,G1,126.0,283/1000,100,75.0
544,B1,126.0,283/1000,100,75.0
545,D2,126.0,283/1000,100,75.0
546,F2,126.0,283/1000,100,75.0
547,A2,126.0,283/1000,100,75.0
548,C3,126.0,283/1000,100,75.0
549,E1,126.567,283/1000,100,75.0
550,C3,126.567,283/1000,100,75.0
551,F2,126.567,283/1000,100,75.0
552,A2,126.567,283/1000,100,75.0
553,B1,126.567,283/1000,100,75.0
554,D2,126.567,283/1000,100,75.0
555,G1,126.567,283/1000,100,75.0
556,E1,127.133,283/1000,100,75.0
557,C3,127.133,283/1000,100,75.0
558,A2,127.133,283/1000,100,75.0
559,F2,127.133,283/1000,100,75.0
560,D2,127.133,283/1000,100,75.0
561,B1,127.133,283/1000,100,75.0
562,G1,127.133,283/1000,100,75.0
563,E1,127.417,283/1000,100,75.0
564,C3,127.417,283/1000,100,75.0
565,F2,127.417,283/1000,100,75.0
566,A2,127.417,283/1000,100,75.0
567,B1,127.417,283/1000,100,75.0
568,D2,127.417,283/1000,100,75.0
569,G1,127.417,283/1000,100,75.0
570,E1,128.667,667/1000,100,75.0
571,G1,128.667,667/1000,100,75.0
572,B1,128.667,667/1000,100,75.0
573,D2,128.667,667/1000,100,75.0
574,F2,128.667,667/1000,100,75.0
575,A2,128.667,667/1000,100,75.0
576,C3,128.667,667/1000,100,75.0
577,G1,129.333,667/1000,100,75.0
578,E1,129.333,667/1000,100,75.0
579,B1,129.333,667/1000,100,75.0
580,D2,129.333,667/1000,100,75.0
581,F2,129.333,667/1000,100,75.0
582,A2,129.333,667/1000,100,75.0
583,C3,129.333,667/1000,100,75.0
584,E1,130.0,283/1000,100,75.0
585,G1,130.0,283/1000,100,75.0
586,B1,130.0,283/1000,100,75.0
587,D2,130.0,283/1000,100,75.0
588,F2,130.0,283/1000,100,75.0
589,A2,130.0,283/1000,100,75.0
590,C3,130.0,283/1000,100,75.0
591,E1,130.567,283/1000,100,75.0
592,C3,130.567,283/1000,100,75.0
593,F2,130.567,283/1000,100,75.0
594,A2,130.567,283/1000,100,75.0
595,B1,130.567,283/1000,100,75.0
596,D2,130.567,283/1000,100,75.0
597,G1,130.567,283/1000,100,75.0
598,E1,131.133,283/1000,100,75.0
599,C3,131.133,283/1000,100,75.0
600,A2,131.133,283/1000,100,75.0
601,F2,131.133,283/1000,100,75.0
602,D2,131.133,283/1000,100,75.0
603,B1,131.133,283/1000,100,75.0
604,G1,131.133,283/1000,100,75.0
605,E1,131.417,283/1000,100,75.0
606,C3,131.417,283/1000,100,75.0
607,F2,131.417,283/1000,100,75.0
608,A2,131.417,283/1000,100,75.0
609,B1,131.417,283/1000,100,75.0
610,D2,131.417,283/1000,100,75.0
611,G1,131.417,283/1000,100,75.0
612,E1,132.667,667/1000,100,75.0
613,G1,132.667,667/1000,100,75.0
614,B1,132.667,667/1000,100,75.0
615,D2,132.667,667/1000,100,75.0
616,F2,132.667,667/1000,100,75.0
617,A2,132.667,667/1000,100,75.0
618,C3,132.667,667/1000,100,75.0
619,G1,133.333,667/1000,100,75.0
620,E1,133.333,667/1000,100,75.0
621,B1,133.333,667/1000,100,75.0
622,D2,133.333,667/1000,100,75.0
623,F2,133.333,667/1000,100,75.0
624,A2,133.333,667/1000,100,75.0
625,C3,133.333,667/1000,100,75.0
626,E1,134.0,0.25,100,75.0
627,G1,134.0,0.25,100,75.0
628,B1,134.0,0.25,100,75.0
629,D2,134.0,0.25,100,75.0
630,F2,134.0,0.25,100,75.0
631,A2,134.0,0.25,100,75.0
632,C3,134.0,0.25,100,75.0
633,G#5,136.2,1/5,100,75.0
634,D5,136.4,1/5,100,75.0
635,E5,136.6,1/5,100,75.0
636,C#5,136.8,1/5,100,75.0
637,E-4,137.0,1/5,100,75.0
638,F#5,137.2,1/5,100,75.0
639,F4,137.4,1/5,100,75.0
640,E5,137.6,1/5,100,75.0
641,G4,137.8,1/5,100,75.0
642,B-5,138.0,71/500,100,75.0
643,B4,138.0,4.0,100,75.0
644,B-4,138.0,4.0,100,75.0
645,C#5,138.0,4.0,100,75.0
646,D4,138.0,4.0,100,75.0
647,C5,138.283,71/500,100,75.0
648,B4,138.567,71/500,100,75.0
649,A5,138.717,71/500,100,75.0
650,B-4,138.85,3/20,100,75.0
651,E4,139.0,167/1000,100,75.0
652,E-4,139.167,167/1000,100,75.0
653,F4,139.333,167/1000,100,75.0
654,D4,139.5,167/1000,100,75.0
655,B-4,139.667,167/1000,100,75.0
656,B-5,139.833,167/1000,100,75.0
657,D5,140.0,71/500,100,75.0
658,C5,140.142,71/500,100,75.0
659,C5,140.283,71/500,100,75.0
660,D5,140.425,71/500,100,75.0
661,E-4,140.567,71/500,100,75.0
662,C#4,140.75,71/500,100,75.0
663,B-4,140.85,3/20,100,75.0
664,A4,141.0,2.0,100,75.0
665,C4,142.0,0.5,100,75.0
666,F4,142.0,0.5,100,75.0
667,F#4,142.0,0.5,100,75.0
668,B-4,142.0,0.5,100,75.0
669,F#3,143.0,3.0,100,75.0
670,B-3,143.0,3.0,100,75.0
671,C4,143.0,3.0,100,75.0
672,F4,143.0,3.0,100,75.0
673,G#5,144.2,1/5,100,75.0
674,C5,144.4,1/5,100,75.0
675,C#5,144.6,1/5,100,75.0
676,D4,144.8,1/5,100,75.0
677,E-5,145.0,1/5,100,75.0
678,G4,145.2,1/5,100,75.0
679,F#4,145.4,1/5,100,75.0
680,E5,145.6,1/5,100,75.0
681,F4,145.8,1/5,100,75.0
682,B4,146.333,333/1000,100,75.0
683,F#3,146.5,1.5,100,75.0
684,B-3,146.5,1.5,100,75.0
685,C4,146.5,1.5,100,75.0
686,F4,146.5,1.5,100,75.0
687,C5,146.667,333/1000,100,75.0
688,B-5,147.0,2/5,100,75.0
689,A4,147.4,2/5,100,75.0
690,G#5,147.8,1/5,100,75.0
691,G5,148.0,71/500,100,75.0
692,F#3,148.0,0.25,100,75.0
693,B-3,148.0,0.25,100,75.0
694,C4,148.0,0.25,100,75.0
695,F4,148.0,0.25,100,75.0
696,E5,148.142,71/500,100,75.0
697,G5,148.283,71/500,100,75.0
698,E5,148.425,71/500,100,75.0
699,E5,148.567,71/500,100,75.0
700,F5,148.75,71/500,100,75.0
701,E-5,148.85,3/20,100,75.0
702,B-4,149.0,167/1000,100,75.0
703,D5,149.167,167/1000,100,75.0
704,B-3,149.25,0.125,100,75.0
705,F#3,149.25,0.125,100,75.0
706,C4,149.25,0.125,100,75.0
707,F4,149.25,0.125,100,75.0
708,D5,149.333,167/1000,100,75.0
709,B-3,149.375,0.125,100,75.0
710,F#3,149.375,0.125,100,75.0
711,C4,149.375,0.125,100,75.0
712,F4,149.375,0.125,100,75.0
713,C5,149.5,167/1000,100,75.0
714,F#3,149.5,0.5,100,75.0
715,B-3,149.5,0.5,100,75.0
716,C4,149.5,0.5,100,75.0
717,F4,149.5,0.5,100,75.0
718,B-5,149.667,167/1000,100,75.0
719,C5,149.833,167/1000,100,75.0
720,C5,150.0,0.125,100,75.0
721,F#3,150.0,4.0,100,75.0
722,B-3,150.0,4.0,100,75.0
723,C4,150.0,4.0,100,75.0
724,F4,150.0,4.0,100,75.0
725,A5,150.125,1.875,100,75.0
726,B-3,152.0,0.125,100,75.0
727,E5,152.125,1.875,100,75.0
728,B-3,154.25,0.125,100,75.0
729,B-3,154.375,0.125,100,75.0
730,E5,154.5,0.25,100,75.0
731,E5,154.75,1.25,100,75.0
732,E5,156.0,4.0,100,75.0
733,F#3,158.0,4.0,100,75.0
734,B-3,158.0,4.0,100,75.0
735,C4,158.0,4.0,100,75.0
736,F4,158.0,4.0,100,75.0
737,E5,160.0,4.0,100,75.0
738,A2,162.0,4.0,100,75.0
739,F#3,162.0,4.0,100,75.0
740,E-4,162.0,4.0,100,75.0
741,F4,162.0,4.0,100,75.0
742,D3,166.0,2.0,100,75.0
743,B-3,166.0,2.0,100,75.0
744,C#4,166.0,2.0,100,75.0
745,B3,166.0,2.0,100,75.0
746,B-3,166.5,1.5,100,75.0
747,B-3,168.0,167/1000,100,75.0
748,B-2,168.0,2.0,100,75.0
749,F3,168.0,2.0,100,75.0
750,D4,168.0,2.0,100,75.0
751,E4,168.0,2.0,100,75.0
752,C#4,168.142,71/500,100,75.0
753,A4,168.283,71/500,100,75.0
754,C5,168.425,71/500,100,75.0
755,G5,168.567,71/500,100,75.0
756,B5,168.75,71/500,100,75.0
757,B-4,168.85,3/20,100,75.0
758,A5,169.0,71/500,100,75.0
759,G#5,169.283,71/500,100,75.0
760,G#5,169.567,71/500,100,75.0
761,G5,169.75,71/500,100,75.0
762,B-4,169.85,3/20,100,75.0
763,A5,170.0,0.125,100,75.0
764,G#5,170.125,0.125,100,75.0
765,G#5,170.25,0.125,100,75.0
766,G5,170.375,0.125,100,75.0
767,B-4,170.5,0.125,100,75.0
768,B5,170.625,0.125,100,75.0
769,C5,170.75,0.125,100,75.0
770,A4,170.875,0.125,100,75.0
771,B5,171.0,167/1000,100,75.0
772,A4,171.167,167/1000,100,75.0
773,C5,171.333,167/1000,100,75.0
774,G#5,171.5,167/1000,100,75.0
775,B5,171.667,167/1000,100,75.0
776,B-4,171.833,167/1000,100,75.0
777,A5,172.0,2.0,100,75.0
778,B5,175.75,0.125,100,75.0
779,B-4,175.875,0.125,100,75.0
780,A5,176.0,1.0,100,75.0
781,B-3,177.142,71/500,100,75.0
782,A4,177.283,71/500,100,75.0
783,C5,177.425,71/500,100,75.0
784,G#5,177.567,71/500,100,75.0
785,B5,177.75,71/500,100,75.0
786,B-4,177.85,3/20,100,75.0
787,A5,178.0,2/5,100,75.0
788,G#4,178.4,2/5,100,75.0
789,F4,178.8,171/500,100,75.0
790,B3,179.142,71/500,100,75.0
791,A4,179.283,71/500,100,75.0
792,B-4,179.425,71/500,100,75.0
793,G#5,179.567,71/500,100,75.0
794,B5,179.75,71/500,100,75.0
795,G5,179.85,3/20,100,75.0
796,A5,180.0,0.125,100,75.0
797,G#5,180.125,0.125,100,75.0
798,G#5,180.25,0.125,100,75.0
799,G5,180.375,0.125,100,75.0
800,B-4,180.5,0.125,100,75.0
801,B5,180.625,0.125,100,75.0
802,C5,180.75,0.125,100,75.0
803,A4,180.875,0.125,100,75.0
804,B-5,181.333,333/1000,100,75.0
805,G#4,181.667,333/1000,100,75.0
806,G5,182.0,2/5,100,75.0
807,B-2,182.0,4.0,100,75.0
808,F3,182.0,4.0,100,75.0
809,D4,182.0,4.0,100,75.0
810,E4,182.0,4.0,100,75.0
811,E5,182.4,2/5,100,75.0
812,F5,182.8,2/5,100,75.0
813,F#4,183.2,2/5,100,75.0
814,A5,183.6,2/5,100,75.0
815,C5,184.0,4.0,100,75.0
816,C5,188.0,0.5,100,75.0
817,B-2,194.0,4.0,100,75.0
818,F3,194.0,4.0,100,75.0
819,D4,194.0,4.0,100,75.0
820,E4,194.0,4.0,100,75.0
821,B-2,202.0,4.0,100,75.0
822,F3,202.0,4.0,100,75.0
823,D4,202.0,4.0,100,75.0
824,E4,202.0,4.0,100,75.0
825,D4,213.6,2/5,100,75.0
826,G#4,213.6,2/5,100,75.0
827,B-4,213.6,2/5,100,75.0
828,E4,213.6,2/5,100,75.0
829,B3,213.6,2/5,100,75.0
830,C#3,213.6,2/5,100,75.0
831,D4,214.0,4.0,100,75.0
832,G#4,214.0,4.0,100,75.0
833,B-4,214.0,4.0,100,75.0
834,E4,214.0,4.0,100,75.0
835,B3,214.0,4.0,100,75.0
836,C#3,214.0,4.0,100,75.0
837,D4,218.5,0.5,100,75.0
838,G#4,218.5,0.5,100,75.0
839,B-4,218.5,0.5,100,75.0
840,E4,218.5,0.5,100,75.0
841,B3,218.5,0.5,100,75.0
842,C#3,218.5,0.5,100,75.0
