,note_name,start_time,duration,velocity,tempo
0,A1,7.24,151/500,92,102.0
1,E3,7.24,151/500,92,102.0
2,E2,7.49,0.281,89,102.0
3,A3,7.49,0.281,89,102.0
4,G2,7.74,13/50,105,102.0
5,B3,7.75,0.219,68,102.0
6,E-3,7.969,0.031,70,102.0
7,B-4,7.969,0.031,70,102.0
8,F#2,7.969,0.031,70,102.0
9,B1,7.969,0.031,70,102.0
10,A2,7.99,1/100,89,102.0
11,C4,7.99,1/100,89,102.0
12,G3,7.99,1/100,65,102.0
13,C4,7.99,1/100,65,102.0
14,A3,7.99,1/100,65,102.0
15,E4,7.99,1/100,65,102.0
16,G2,8.0,21/500,105,102.0
17,E-3,8.0,0.031,70,102.0
18,B-4,8.0,0.031,70,102.0
19,F#2,8.0,0.031,70,102.0
20,B1,8.0,0.031,70,102.0
21,A2,8.0,27/200,89,102.0
22,C4,8.0,27/200,89,102.0
23,G3,8.0,5979/1000,65,102.0
24,C4,8.0,5979/1000,65,102.0
25,A3,8.0,5979/1000,65,102.0
26,E4,8.0,5979/1000,65,102.0
27,B-4,8.219,0.062,29,102.0
28,F#2,8.219,0.062,29,102.0
29,A2,8.25,26/125,88,102.0
30,C4,8.25,26/125,88,102.0
31,B-4,8.469,0.062,33,102.0
32,F#2,8.469,0.062,33,102.0
33,G2,8.49,6/25,86,102.0
34,B3,8.49,6/25,86,102.0
35,B-4,8.729,0.062,32,102.0
36,F#2,8.729,0.062,32,102.0
37,A2,8.74,6/25,84,102.0
38,C4,8.74,6/25,84,102.0
39,E-3,8.969,0.062,64,102.0
40,C#2,8.969,0.062,64,102.0
41,F#2,8.969,0.062,64,102.0
42,B-4,8.969,0.062,64,102.0
43,E3,9.24,26/125,64,102.0
44,B-4,9.24,0.062,28,102.0
45,F#2,9.24,0.062,28,102.0
46,A3,9.49,271/1000,68,102.0
47,B-4,9.49,0.062,36,102.0
48,F#2,9.49,0.062,36,102.0
49,B3,9.74,229/1000,63,102.0
50,F#2,9.74,0.062,30,102.0
51,B-4,9.74,0.062,30,102.0
52,E-3,9.969,0.062,50,102.0
53,F#2,9.969,0.062,50,102.0
54,B-4,9.969,0.062,50,102.0
55,C4,10.01,13/50,68,102.0
56,F#2,10.229,0.062,28,102.0
57,B-4,10.229,0.062,28,102.0
58,F#2,10.49,0.062,38,102.0
59,B-4,10.49,0.062,38,102.0
60,A3,10.521,0.219,57,102.0
61,F#2,10.74,0.062,34,102.0
62,B-4,10.74,0.062,34,102.0
63,C4,10.76,0.219,71,102.0
64,E-3,10.979,0.062,50,102.0
65,F#2,10.979,0.062,50,102.0
66,B-4,10.979,0.062,50,102.0
67,F#2,11.24,0.062,26,102.0
68,B-4,11.24,0.062,26,102.0
69,A1,11.24,229/1000,85,102.0
70,E3,11.24,229/1000,85,102.0
71,F#2,11.5,0.062,38,102.0
72,B-4,11.5,0.062,38,102.0
73,E2,11.5,0.25,88,102.0
74,A3,11.5,0.25,88,102.0
75,G2,11.729,13/50,106,102.0
76,B1,11.74,0.062,59,102.0
77,B-4,11.74,0.062,59,102.0
78,F#2,11.74,0.062,59,102.0
79,C4,11.75,0.156,70,102.0
80,A2,11.979,21/1000,109,102.0
81,E-3,11.979,21/1000,65,102.0
82,B-4,11.979,21/1000,65,102.0
83,B1,11.979,21/1000,65,102.0
84,F#2,11.979,21/1000,65,102.0
85,A2,13.979,73/500,109,102.0
86,E-3,13.979,21/500,65,102.0
87,B-4,13.979,21/500,65,102.0
88,B1,13.979,21/500,65,102.0
89,F#2,13.979,21/500,65,102.0
90,A2,14.208,99/500,88,102.0
91,E3,14.208,99/500,88,102.0
92,F#2,14.219,0.062,30,102.0
93,B-4,14.219,0.062,30,102.0
94,G2,14.469,0.219,107,102.0
95,F#2,14.469,0.062,33,102.0
96,B-4,14.469,0.062,33,102.0
97,A2,14.708,177/1000,89,102.0
98,C4,14.708,177/1000,89,102.0
99,F#2,14.719,0.062,38,102.0
100,B-4,14.719,0.062,38,102.0
101,E-3,14.948,0.062,64,102.0
102,C#2,14.948,0.062,64,102.0
103,F#2,14.948,0.062,64,102.0
104,B-4,14.948,0.062,64,102.0
105,F#2,15.219,0.062,36,102.0
106,B-4,15.219,0.062,36,102.0
107,G2,15.219,271/1000,86,102.0
108,E3,15.219,271/1000,86,102.0
109,F#2,15.469,0.062,34,102.0
110,B-4,15.469,0.062,34,102.0
111,E2,15.479,229/1000,82,102.0
112,B3,15.479,229/1000,82,102.0
113,F#2,15.719,0.062,38,102.0
114,B-4,15.719,0.062,38,102.0
115,G2,15.719,26/125,88,102.0
116,C4,15.719,26/125,88,102.0
117,A2,15.917,2.062,72,102.0
118,F#3,15.917,2.062,72,102.0
119,B3,15.917,2.062,72,102.0
120,D4,15.948,1979/1000,67,102.0
121,E-3,15.958,0.062,48,102.0
122,F#2,15.958,0.062,48,102.0
123,B-4,15.958,0.062,48,102.0
124,D4,15.99,229/1000,72,102.0
125,F#2,16.219,0.062,34,102.0
126,B-4,16.219,0.062,34,102.0
127,C4,16.24,0.219,72,102.0
128,F#2,16.469,0.062,38,102.0
129,B-4,16.469,0.062,38,102.0
130,B-4,16.729,0.062,33,102.0
131,F#2,16.729,0.062,33,102.0
132,E-3,16.958,0.062,49,102.0
133,F#2,16.958,0.062,49,102.0
134,B-4,16.958,0.062,49,102.0
135,F#2,17.219,0.062,44,102.0
136,B-4,17.219,0.062,44,102.0
137,A1,17.219,0.25,86,102.0
138,E3,17.219,0.25,86,102.0
139,B-2,17.469,0.062,43,102.0
140,B-4,17.469,0.062,43,102.0
141,E2,17.469,271/1000,88,102.0
142,A3,17.469,271/1000,88,102.0
143,G2,17.708,0.219,86,102.0
144,B3,17.708,0.219,86,102.0
145,B1,17.719,0.062,62,102.0
146,B-4,17.719,0.062,62,102.0
147,A3,17.958,21/1000,63,102.0
148,E4,17.958,21/1000,63,102.0
149,G3,17.958,21/1000,63,102.0
150,C4,17.958,21/1000,67,102.0
151,G3,17.958,21/1000,67,102.0
152,F#5,17.969,1/100,101,102.0
153,B1,17.969,1/100,64,102.0
154,F#2,17.969,1/100,64,102.0
155,E-3,17.969,1/100,64,102.0
156,B-4,17.969,1/100,64,102.0
157,A2,17.969,1/100,90,102.0
158,C4,17.969,1/100,90,102.0
159,F#5,17.979,7833/1000,101,102.0
160,A3,17.979,6021/1000,63,102.0
161,E4,17.979,6021/1000,63,102.0
162,G3,17.979,6021/1000,63,102.0
163,C4,17.979,6021/1000,67,102.0
164,G3,17.979,6021/1000,67,102.0
165,B1,17.979,13/250,64,102.0
166,F#2,17.979,13/250,64,102.0
167,E-3,17.979,13/250,64,102.0
168,B-4,17.979,13/250,64,102.0
169,A2,17.979,27/200,90,102.0
170,C4,17.979,27/200,90,102.0
171,F#2,18.219,0.062,36,102.0
172,B-4,18.219,0.062,36,102.0
173,A2,18.219,6/25,86,102.0
174,C4,18.219,6/25,86,102.0
175,G2,18.458,26/125,86,102.0
176,B3,18.458,26/125,86,102.0
177,F#2,18.469,0.062,41,102.0
178,B-4,18.469,0.062,41,102.0
179,F#2,18.708,0.062,36,102.0
180,B-4,18.708,0.062,36,102.0
181,A2,18.708,26/125,88,102.0
182,C4,18.708,26/125,88,102.0
183,F#2,18.958,0.062,67,102.0
184,E-3,18.958,0.062,67,102.0
185,C#2,18.958,0.062,67,102.0
186,B-4,18.958,0.062,67,102.0
187,F#2,19.208,0.062,34,102.0
188,B-4,19.208,0.062,34,102.0
189,E3,19.24,73/250,61,102.0
190,F#2,19.458,0.062,41,102.0
191,B-4,19.458,0.062,41,102.0
192,A3,19.49,323/1000,67,102.0
193,B-4,19.708,0.062,38,102.0
194,F#2,19.708,0.062,38,102.0
195,B3,19.729,0.219,66,102.0
196,E-3,19.948,0.062,49,102.0
197,F#2,19.948,0.062,49,102.0
198,B-4,19.948,0.062,49,102.0
199,C4,19.979,13/50,69,102.0
200,F#2,20.208,0.062,37,102.0
201,B-4,20.208,0.062,37,102.0
202,A3,20.469,0.25,65,102.0
203,F#2,20.469,0.062,44,102.0
204,B-4,20.469,0.062,44,102.0
205,F#2,20.719,0.062,36,102.0
206,B-4,20.719,0.062,36,102.0
207,C4,20.74,229/1000,70,102.0
208,E-3,20.969,0.062,50,102.0
209,B-4,20.969,0.062,50,102.0
210,F#2,20.969,0.062,50,102.0
211,F#2,21.219,0.062,34,102.0
212,B-4,21.219,0.062,34,102.0
213,A1,21.229,229/1000,87,102.0
214,E3,21.229,229/1000,87,102.0
215,E2,21.469,13/50,86,102.0
216,A3,21.469,13/50,86,102.0
217,F#2,21.479,0.062,49,102.0
218,B-4,21.479,0.062,49,102.0
219,G2,21.708,99/500,88,102.0
220,C4,21.708,99/500,88,102.0
221,B1,21.719,0.062,68,102.0
222,F#2,21.719,0.062,68,102.0
223,B-4,21.719,0.062,68,102.0
224,F#2,21.854,0.062,68,102.0
225,E-3,21.958,21/1000,62,102.0
226,B1,21.958,21/1000,62,102.0
227,F#2,21.958,21/1000,62,102.0
228,B-4,21.958,21/1000,62,102.0
229,A2,21.969,1/100,110,102.0
230,A2,25.812,167/1000,110,102.0
231,E-3,25.812,21/500,62,102.0
232,B1,25.812,21/500,62,102.0
233,F#2,25.812,21/500,62,102.0
234,B-4,25.812,21/500,62,102.0
235,A2,26.052,6/25,86,102.0
236,E3,26.052,6/25,86,102.0
237,F#2,26.073,0.062,44,102.0
238,B-4,26.073,0.062,44,102.0
239,G2,26.302,6/25,104,102.0
240,F#2,26.302,0.062,40,102.0
241,B-4,26.302,0.062,40,102.0
242,F#2,26.552,0.062,38,102.0
243,B-4,26.552,0.062,38,102.0
244,A2,26.552,0.219,90,102.0
245,C4,26.552,0.219,90,102.0
246,C#2,26.802,0.062,64,102.0
247,F#2,26.802,0.062,64,102.0
248,B-4,26.802,0.062,64,102.0
249,E-3,26.802,0.062,64,102.0
250,F#2,27.042,0.062,36,102.0
251,B-4,27.042,0.062,36,102.0
252,G2,27.062,0.25,87,102.0
253,E3,27.062,0.25,87,102.0
254,F#2,27.302,0.062,40,102.0
255,B-4,27.302,0.062,40,102.0
256,E2,27.302,229/1000,84,102.0
257,B3,27.302,229/1000,84,102.0
258,F#2,27.542,0.062,36,102.0
259,B-4,27.542,0.062,36,102.0
260,G2,27.552,6/25,88,102.0
261,C4,27.552,6/25,88,102.0
262,F#3,27.781,199/100,65,102.0
263,D4,27.781,199/100,65,102.0
264,B3,27.781,199/100,65,102.0
265,F#2,27.802,0.062,53,102.0
266,E-3,27.802,0.062,53,102.0
267,B-4,27.802,0.062,53,102.0
268,D4,27.823,26/125,68,102.0
269,F#2,28.042,0.062,48,102.0
270,B-4,28.042,0.062,48,102.0
271,C4,28.073,0.188,70,102.0
272,B-2,28.302,0.062,50,102.0
273,B-4,28.302,0.062,50,102.0
274,F#2,28.552,0.062,38,102.0
275,B-4,28.552,0.062,38,102.0
276,E-3,28.781,0.062,38,102.0
277,F#2,28.781,0.062,38,102.0
278,B-4,28.781,0.062,38,102.0
279,F#2,29.062,0.062,45,102.0
280,B-4,29.062,0.062,45,102.0
281,A1,29.062,99/500,100,102.0
282,E3,29.062,99/500,100,102.0
283,A1,29.062,99/500,100,102.0
284,E2,29.302,13/50,99,102.0
285,E2,29.302,13/50,99,102.0
286,A3,29.302,13/50,99,102.0
287,B-4,29.312,0.062,46,102.0
288,B-2,29.312,0.062,46,102.0
289,G2,29.542,0.25,112,102.0
290,G2,29.542,0.25,112,102.0
291,B3,29.573,99/500,60,102.0
292,F#2,29.573,0.062,41,102.0
293,B-4,29.573,0.062,41,102.0
294,C4,29.792,21/1000,65,102.0
295,E4,29.792,21/1000,65,102.0
296,A3,29.792,21/1000,65,102.0
297,G3,29.792,21/1000,65,102.0
298,B1,29.802,1/100,64,102.0
299,F#2,29.802,1/100,64,102.0
300,E-3,29.802,1/100,64,102.0
301,B-4,29.802,1/100,64,102.0
302,A2,29.802,1/100,95,102.0
303,A2,29.802,1/100,95,102.0
304,C4,29.802,1/100,95,102.0
305,C4,29.812,601/100,65,102.0
306,E4,29.812,601/100,65,102.0
307,A3,29.812,601/100,65,102.0
308,G3,29.812,601/100,65,102.0
309,B1,29.812,13/250,64,102.0
310,F#2,29.812,13/250,64,102.0
311,E-3,29.812,13/250,64,102.0
312,B-4,29.812,13/250,64,102.0
313,A2,29.812,0.156,95,102.0
314,A2,29.812,0.156,95,102.0
315,C4,29.812,0.156,95,102.0
316,F#2,30.052,0.062,38,102.0
317,B-4,30.052,0.062,38,102.0
318,A2,30.052,229/1000,91,102.0
319,C4,30.052,229/1000,91,102.0
320,A2,30.052,229/1000,91,102.0
321,F#2,30.302,0.062,42,102.0
322,B-4,30.302,0.062,42,102.0
323,G2,30.302,26/125,91,102.0
324,G2,30.302,26/125,91,102.0
325,B3,30.302,26/125,91,102.0
326,A2,30.542,99/500,90,102.0
327,C4,30.542,99/500,90,102.0
328,A2,30.552,0.312,111,102.0
329,F#2,30.552,0.062,36,102.0
330,B-4,30.552,0.062,36,102.0
331,E5,30.719,3.094,90,102.0
332,A4,30.719,3.094,90,102.0
333,E-3,30.781,0.062,63,102.0
334,C#2,30.781,0.062,63,102.0
335,F#2,30.781,0.062,63,102.0
336,B-4,30.781,0.062,63,102.0
337,F#2,31.052,0.062,35,102.0
338,B-4,31.052,0.062,35,102.0
339,E3,31.073,13/50,61,102.0
340,F#2,31.302,0.062,36,102.0
341,B-4,31.302,0.062,36,102.0
342,A3,31.312,229/1000,66,102.0
343,B3,31.552,26/125,64,102.0
344,F#2,31.552,0.062,34,102.0
345,B-4,31.552,0.062,34,102.0
346,C4,31.802,333/1000,70,102.0
347,F#2,31.802,0.062,49,102.0
348,E-3,31.802,0.062,49,102.0
349,B-4,31.802,0.062,49,102.0
350,F#2,32.052,0.062,34,102.0
351,B-4,32.052,0.062,34,102.0
352,F#2,32.302,0.062,39,102.0
353,B-4,32.302,0.062,39,102.0
354,A3,32.323,229/1000,63,102.0
355,F#2,32.552,0.062,34,102.0
356,B-4,32.552,0.062,34,102.0
357,C4,32.562,229/1000,72,102.0
358,F#2,32.802,0.062,48,102.0
359,B-4,32.802,0.062,48,102.0
360,E-3,32.802,0.062,48,102.0
361,A1,33.042,271/1000,90,102.0
362,A1,33.042,271/1000,90,102.0
363,E3,33.042,271/1000,90,102.0
364,B-4,33.052,0.062,36,102.0
365,E2,33.281,6/25,94,102.0
366,E2,33.281,6/25,94,102.0
367,A3,33.281,6/25,94,102.0
368,F#2,33.292,0.062,40,102.0
369,B-4,33.292,0.062,40,102.0
370,G2,33.542,0.188,94,102.0
371,G2,33.542,0.188,94,102.0
372,C4,33.542,0.188,94,102.0
373,B1,33.552,0.062,68,102.0
374,F#2,33.552,0.062,68,102.0
375,B-4,33.552,0.062,68,102.0
376,F#2,33.677,0.062,63,102.0
377,F#2,33.792,21/1000,64,102.0
378,E-3,33.792,21/1000,64,102.0
379,B1,33.792,21/1000,64,102.0
380,B-4,33.792,21/1000,64,102.0
381,A2,33.792,21/1000,110,102.0
382,A2,33.792,21/1000,110,102.0
383,F#2,35.823,21/500,64,102.0
384,E-3,35.823,21/500,64,102.0
385,B1,35.823,21/500,64,102.0
386,B-4,35.823,21/500,64,102.0
387,E5,35.823,3.625,90,102.0
388,A4,35.823,3.625,90,102.0
389,A2,35.823,99/500,110,102.0
390,A2,35.823,99/500,110,102.0
391,F#2,36.052,0.062,47,102.0
392,B-4,36.052,0.062,47,102.0
393,A2,36.052,177/1000,90,102.0
394,A2,36.052,177/1000,90,102.0
395,E3,36.052,177/1000,90,102.0
396,F#2,36.302,0.062,43,102.0
397,B-4,36.302,0.062,43,102.0
398,G2,36.312,0.25,105,102.0
399,G2,36.312,0.25,105,102.0
400,A2,36.552,0.188,89,102.0
401,C4,36.552,0.188,89,102.0
402,F#2,36.562,0.062,34,102.0
403,B-4,36.562,0.062,34,102.0
404,A2,36.562,0.188,94,102.0
405,C4,36.562,0.188,94,102.0
406,E-3,36.802,0.062,64,102.0
407,C#2,36.802,0.062,64,102.0
408,F#2,36.802,0.062,64,102.0
409,B-4,36.802,0.062,64,102.0
410,F#2,37.062,0.062,42,102.0
411,B-4,37.062,0.062,42,102.0
412,G2,37.062,6/25,92,102.0
413,E3,37.062,6/25,92,102.0
414,G2,37.062,6/25,92,102.0
415,F#2,37.312,0.062,44,102.0
416,B-4,37.312,0.062,44,102.0
417,E2,37.312,99/500,90,102.0
418,E2,37.312,99/500,90,102.0
419,B3,37.312,99/500,90,102.0
420,G2,37.552,13/50,97,102.0
421,C4,37.552,13/50,97,102.0
422,G2,37.552,13/50,97,102.0
423,F#2,37.562,0.062,44,102.0
424,B-4,37.562,0.062,44,102.0
425,F#3,37.792,979/500,66,102.0
426,B3,37.792,979/500,66,102.0
427,D4,37.792,979/500,66,102.0
428,D4,37.812,6/25,74,102.0
429,F#2,37.812,0.062,49,102.0
430,E-3,37.812,0.062,49,102.0
431,B-4,37.812,0.062,49,102.0
432,F#2,38.062,0.062,46,102.0
433,B-4,38.062,0.062,46,102.0
434,C4,38.073,0.156,74,102.0
435,B-2,38.312,0.062,48,102.0
436,B-4,38.312,0.062,48,102.0
437,B-4,38.562,0.062,34,102.0
438,E-3,38.802,0.062,48,102.0
439,F#2,38.802,0.062,48,102.0
440,B-4,38.802,0.062,48,102.0
441,A1,39.052,151/500,87,102.0
442,A1,39.052,151/500,87,102.0
443,E3,39.052,151/500,87,102.0
444,F#2,39.062,0.062,40,102.0
445,B-4,39.062,0.062,40,102.0
446,B-2,39.312,0.062,46,102.0
447,B-4,39.312,0.062,46,102.0
448,E2,39.312,13/50,99,102.0
449,E2,39.312,13/50,99,102.0
450,A3,39.312,13/50,99,102.0
451,G2,39.552,26/125,93,102.0
452,G2,39.552,26/125,93,102.0
453,B3,39.552,26/125,93,102.0
454,B1,39.562,0.062,69,102.0
455,B-4,39.562,0.062,69,102.0
456,A2,39.802,21/1000,96,102.0
457,A2,39.802,21/1000,96,102.0
458,C4,39.802,21/1000,96,102.0
459,E4,39.802,21/1000,64,102.0
460,G3,39.802,21/1000,64,102.0
461,C4,39.802,21/1000,64,102.0
462,A3,39.802,21/1000,64,102.0
463,E-3,39.802,21/1000,62,102.0
464,B1,39.802,21/1000,62,102.0
465,F#2,39.802,21/1000,62,102.0
466,B-4,39.802,21/1000,62,102.0
467,A2,39.823,0.125,96,102.0
468,A2,39.823,0.125,96,102.0
469,C4,39.823,0.125,96,102.0
470,E4,39.823,5.969,64,102.0
471,G3,39.823,5.969,64,102.0
472,C4,39.823,5.969,64,102.0
473,A3,39.823,5.969,64,102.0
474,E-3,39.823,21/500,62,102.0
475,B1,39.823,21/500,62,102.0
476,F#2,39.823,21/500,62,102.0
477,B-4,39.823,21/500,62,102.0
478,F#2,40.062,0.062,38,102.0
479,B-4,40.062,0.062,38,102.0
480,A2,40.062,0.219,94,102.0
481,A2,40.062,0.219,94,102.0
482,C4,40.062,0.219,94,102.0
483,E4,40.302,3521/1000,73,102.0
484,F#2,40.312,0.062,38,102.0
485,B-4,40.312,0.062,38,102.0
486,G2,40.312,229/1000,93,102.0
487,G2,40.312,229/1000,93,102.0
488,B3,40.312,229/1000,93,102.0
489,A2,40.562,271/1000,107,102.0
490,F#2,40.562,0.062,40,102.0
491,B-4,40.562,0.062,40,102.0
492,A2,40.562,99/500,88,102.0
493,C4,40.562,99/500,88,102.0
494,E-3,40.802,0.062,60,102.0
495,F#2,40.802,0.062,60,102.0
496,B-4,40.802,0.062,60,102.0
497,C#2,40.802,0.062,60,102.0
498,F#2,41.062,0.062,35,102.0
499,B-4,41.062,0.062,35,102.0
500,E3,41.083,0.281,67,102.0
501,B4,41.281,1271/500,75,102.0
502,F#2,41.312,0.062,44,102.0
503,B-4,41.312,0.062,44,102.0
504,A3,41.333,13/50,68,102.0
505,F#2,41.552,0.062,38,102.0
506,B-4,41.552,0.062,38,102.0
507,B3,41.573,26/125,64,102.0
508,F#2,41.802,0.062,43,102.0
509,E-3,41.802,0.062,43,102.0
510,B-4,41.802,0.062,43,102.0
511,C4,41.833,6/25,69,102.0
512,F#2,42.062,0.062,34,102.0
513,B-4,42.062,0.062,34,102.0
514,F#2,42.312,0.062,48,102.0
515,B-4,42.312,0.062,48,102.0
516,A3,42.333,229/1000,60,102.0
517,F#2,42.562,0.062,36,102.0
518,B-4,42.562,0.062,36,102.0
519,C4,42.583,0.188,70,102.0
520,E-3,42.802,0.062,45,102.0
521,F#2,42.802,0.062,45,102.0
522,B-4,42.802,0.062,45,102.0
523,F#2,43.062,0.062,40,102.0
524,B-4,43.062,0.062,40,102.0
525,A1,43.062,0.219,95,102.0
526,E3,43.062,0.219,95,102.0
527,A1,43.062,0.219,95,102.0
528,E2,43.302,0.25,95,102.0
529,E2,43.302,0.25,95,102.0
530,A3,43.302,0.25,95,102.0
531,F#2,43.312,0.062,48,102.0
532,B-4,43.312,0.062,48,102.0
533,B1,43.562,0.062,66,102.0
534,F#2,43.562,0.062,66,102.0
535,B-4,43.562,0.062,66,102.0
536,G2,43.562,0.25,111,102.0
537,G2,43.562,0.25,111,102.0
538,C4,43.573,167/1000,70,102.0
539,F#2,43.688,0.062,59,102.0
540,B1,43.812,1/100,65,102.0
541,F#2,43.812,1/100,65,102.0
542,E-3,43.812,1/100,65,102.0
543,B-4,43.812,1/100,65,102.0
544,A2,43.812,1/100,114,102.0
545,A2,43.812,1/100,114,102.0
546,E4,45.792,149/100,73,102.0
547,B4,45.792,149/100,75,102.0
548,B1,45.792,13/250,65,102.0
549,F#2,45.792,13/250,65,102.0
550,E-3,45.792,13/250,65,102.0
551,B-4,45.792,13/250,65,102.0
552,A2,45.792,99/500,114,102.0
553,A2,45.792,99/500,114,102.0
554,A2,46.031,13/50,106,102.0
555,A2,46.031,13/50,106,102.0
556,E3,46.042,0.156,69,102.0
557,F#2,46.052,0.062,38,102.0
558,B-4,46.052,0.062,38,102.0
559,B-4,46.281,0.062,45,102.0
560,F#2,46.281,0.062,45,102.0
561,G2,46.292,6/25,99,102.0
562,G2,46.292,6/25,99,102.0
563,A2,46.531,26/125,99,102.0
564,A2,46.531,26/125,99,102.0
565,C4,46.531,26/125,99,102.0
566,F#2,46.542,0.062,46,102.0
567,B-4,46.542,0.062,46,102.0
568,E-3,46.76,0.062,66,102.0
569,C#2,46.76,0.062,66,102.0
570,B-4,46.76,0.062,66,102.0
571,F#2,46.76,0.062,66,102.0
572,G2,47.031,0.25,95,102.0
573,G2,47.031,0.25,95,102.0
574,E3,47.031,0.25,95,102.0
575,B-4,47.031,0.062,38,102.0
576,F#2,47.031,0.062,38,102.0
577,B3,47.281,0.188,69,102.0
578,B-2,47.281,0.062,44,102.0
579,B-4,47.281,0.062,44,102.0
580,E2,47.281,0.25,108,102.0
581,E2,47.281,0.25,108,102.0
582,A5,47.344,306/125,86,102.0
583,E5,47.344,306/125,86,102.0
584,A4,47.344,306/125,86,102.0
585,G2,47.531,6/25,89,102.0
586,C4,47.531,6/25,89,102.0
587,G2,47.531,6/25,94,102.0
588,C4,47.531,6/25,94,102.0
589,B-4,47.542,0.062,35,102.0
590,D4,47.76,979/500,66,102.0
591,F#3,47.76,199/100,66,102.0
592,B3,47.76,199/100,66,102.0
593,E-3,47.771,0.062,50,102.0
594,F#2,47.771,0.062,50,102.0
595,B-4,47.771,0.062,50,102.0
596,D4,47.792,0.219,70,102.0
597,F#2,48.021,0.062,40,102.0
598,B-4,48.021,0.062,40,102.0
599,C4,48.052,167/1000,71,102.0
600,B-4,48.271,0.062,50,102.0
601,F#2,48.271,0.062,50,102.0
602,F#2,48.531,0.062,40,102.0
603,B-4,48.531,0.062,40,102.0
604,B-4,48.771,0.062,49,102.0
605,F#2,48.771,0.062,49,102.0
606,E-3,48.771,0.062,49,102.0
607,F#2,49.021,0.062,36,102.0
608,B-4,49.021,0.062,36,102.0
609,E3,49.031,271/1000,68,102.0
610,F#2,49.271,0.062,46,102.0
611,B-4,49.271,0.062,46,102.0
612,A3,49.292,0.25,72,102.0
613,F#2,49.531,0.062,48,102.0
614,B-4,49.531,0.062,48,102.0
615,B3,49.542,73/500,68,102.0
616,E4,49.76,0.031,64,102.0
617,C4,49.76,0.031,64,102.0
618,A3,49.76,0.031,64,102.0
619,G3,49.76,0.031,65,102.0
620,C4,49.76,0.031,65,102.0
621,A3,49.76,0.031,65,102.0
622,E-3,49.771,21/1000,60,102.0
623,B1,49.771,21/1000,60,102.0
624,C#3,49.771,21/1000,60,102.0
625,B-4,49.771,21/1000,60,102.0
626,C4,49.781,1/100,71,102.0
627,A1,49.792,13/50,111,102.0
628,C4,49.792,0.156,71,102.0
629,A5,49.792,4083/1000,86,102.0
630,E5,49.792,4083/1000,86,102.0
631,A4,49.792,4083/1000,86,102.0
632,E4,49.792,599/100,64,102.0
633,C4,49.792,599/100,64,102.0
634,A3,49.792,599/100,64,102.0
635,G3,49.792,599/100,65,102.0
636,C4,49.792,599/100,65,102.0
637,A3,49.792,599/100,65,102.0
638,E-3,49.792,21/500,60,102.0
639,B1,49.792,21/500,60,102.0
640,C#3,49.792,21/500,60,102.0
641,B-4,49.792,21/500,60,102.0
642,G1,50.021,26/125,86,102.0
643,C4,50.021,26/125,86,102.0
644,F#2,50.031,0.062,36,102.0
645,B-4,50.031,0.062,36,102.0
646,F#2,50.281,0.062,30,102.0
647,B-4,50.281,0.062,30,102.0
648,B3,50.302,6/25,65,102.0
649,F#2,50.531,0.062,36,102.0
650,B-4,50.531,0.062,36,102.0
651,C4,50.552,0.188,68,102.0
652,C#2,50.781,0.062,65,102.0
653,F#2,50.781,0.062,65,102.0
654,F#3,50.781,0.062,65,102.0
655,E-3,50.781,0.062,65,102.0
656,B-4,50.781,0.062,65,102.0
657,E3,51.031,6/25,68,102.0
658,F#2,51.031,0.062,56,102.0
659,G1,51.031,0.062,56,102.0
660,B-4,51.031,0.062,56,102.0
661,A3,51.281,151/500,66,102.0
662,F#2,51.281,0.062,57,102.0
663,G1,51.281,0.062,57,102.0
664,B-4,51.281,0.062,57,102.0
665,G1,51.521,0.062,55,102.0
666,F#2,51.521,0.062,55,102.0
667,B-4,51.521,0.062,55,102.0
668,B3,51.552,6/25,59,102.0
669,G1,51.771,0.281,110,102.0
670,F#2,51.781,0.062,48,102.0
671,E-3,51.781,0.062,48,102.0
672,B-4,51.781,0.062,48,102.0
673,C4,51.802,177/500,67,102.0
674,F#2,52.031,0.062,32,102.0
675,B-4,52.031,0.062,32,102.0
676,F#2,52.281,0.062,38,102.0
677,B-4,52.281,0.062,38,102.0
678,G1,52.281,13/50,88,102.0
679,A3,52.281,13/50,88,102.0
680,F#2,52.531,0.062,32,102.0
681,B-4,52.531,0.062,32,102.0
682,C4,52.552,6/25,70,102.0
683,E-3,52.771,0.062,49,102.0
684,F#2,52.771,0.062,49,102.0
685,B-4,52.771,0.062,49,102.0
686,A1,52.781,0.281,111,102.0
687,E3,53.042,6/25,67,102.0
688,F#2,53.042,0.062,34,102.0
689,B-4,53.042,0.062,34,102.0
690,F#2,53.281,0.062,40,102.0
691,B-4,53.281,0.062,40,102.0
692,G1,53.281,73/250,90,102.0
693,A3,53.281,73/250,90,102.0
694,B1,53.531,0.062,65,102.0
695,F#2,53.531,0.062,65,102.0
696,B-4,53.531,0.062,65,102.0
697,C4,53.542,0.219,71,102.0
698,F#2,53.656,0.062,57,102.0
699,A1,53.781,1/100,112,102.0
700,F#2,53.781,1/100,67,102.0
701,E-3,53.781,1/100,67,102.0
702,B-4,53.781,1/100,67,102.0
703,F#3,53.781,1/100,67,102.0
704,B1,53.781,1/100,67,102.0
705,A1,55.781,229/1000,112,102.0
706,F#2,55.781,13/250,67,102.0
707,E-3,55.781,13/250,67,102.0
708,B-4,55.781,13/250,67,102.0
709,F#3,55.781,13/250,67,102.0
710,B1,55.781,13/250,67,102.0
711,G1,56.0,99/500,88,102.0
712,E3,56.0,99/500,88,102.0
713,F#2,56.021,0.062,38,102.0
714,B-4,56.021,0.062,38,102.0
715,F#2,56.271,0.062,40,102.0
716,B-4,56.271,0.062,40,102.0
717,F#2,56.51,0.062,38,102.0
718,B-4,56.51,0.062,38,102.0
719,C4,56.521,99/500,71,102.0
720,E-3,56.74,0.062,62,102.0
721,F#2,56.74,0.062,62,102.0
722,C#2,56.74,0.062,62,102.0
723,B-4,56.74,0.062,62,102.0
724,E3,57.01,333/1000,68,102.0
725,F#2,57.01,0.062,37,102.0
726,B-4,57.01,0.062,37,102.0
727,G1,57.021,73/500,106,102.0
728,F#2,57.26,0.062,59,102.0
729,G1,57.26,0.062,59,102.0
730,B-4,57.26,0.062,59,102.0
731,B3,57.281,2.5,87,102.0
732,B3,57.292,0.219,68,102.0
733,G1,57.51,0.062,58,102.0
734,F#2,57.51,0.062,58,102.0
735,B-4,57.51,0.062,58,102.0
736,C4,57.521,6/25,66,102.0
737,F#3,57.75,979/500,68,102.0
738,B3,57.75,979/500,68,102.0
739,D4,57.75,979/500,68,102.0
740,E-3,57.75,0.062,49,102.0
741,F#2,57.75,0.062,49,102.0
742,B-4,57.75,0.062,49,102.0
743,G1,57.771,177/1000,88,102.0
744,D4,57.771,177/1000,88,102.0
745,F#2,58.01,0.062,35,102.0
746,B-4,58.01,0.062,35,102.0
747,C4,58.042,73/500,73,102.0
748,F#2,58.26,0.062,41,102.0
749,B-4,58.26,0.062,41,102.0
750,G1,58.271,229/1000,110,102.0
751,F#2,58.521,0.062,37,102.0
752,B-4,58.521,0.062,37,102.0
753,A1,58.771,0.25,111,102.0
754,F#2,58.771,0.062,47,102.0
755,B-4,58.771,0.062,47,102.0
756,E-3,58.771,0.062,47,102.0
757,E3,59.021,73/250,68,102.0
758,F#2,59.021,0.062,41,102.0
759,B-4,59.021,0.062,41,102.0
760,F#2,59.26,0.062,44,102.0
761,B-4,59.26,0.062,44,102.0
762,G1,59.271,73/250,90,102.0
763,A3,59.271,73/250,90,102.0
764,F#2,59.51,0.062,48,102.0
765,B-4,59.51,0.062,48,102.0
766,B3,59.531,0.219,67,102.0
767,F#2,59.646,0.062,52,102.0
768,C4,59.76,21/1000,61,102.0
769,E4,59.76,21/1000,64,102.0
770,G3,59.76,21/1000,64,102.0
771,A3,59.76,21/1000,64,102.0
772,A1,59.771,1/100,110,102.0
773,F#2,59.771,1/100,66,102.0
774,F#3,59.771,1/100,66,102.0
775,E-3,59.771,1/100,66,102.0
776,B1,59.771,1/100,66,102.0
777,B-4,59.771,1/100,66,102.0
778,C4,59.781,2979/500,61,102.0
779,B3,59.781,4927/1000,87,102.0
780,A1,59.781,0.25,110,102.0
781,E4,59.781,6.031,64,102.0
782,G3,59.781,6.031,64,102.0
783,A3,59.781,6.031,64,102.0
784,F#2,59.781,13/250,66,102.0
785,F#3,59.781,13/250,66,102.0
786,E-3,59.781,13/250,66,102.0
787,B1,59.781,13/250,66,102.0
788,B-4,59.781,13/250,66,102.0
789,C4,59.792,167/1000,70,102.0
790,F#2,60.021,0.062,38,102.0
791,B-4,60.021,0.062,38,102.0
792,G1,60.021,26/125,89,102.0
793,C4,60.021,26/125,89,102.0
794,F#2,60.271,0.062,42,102.0
795,B-4,60.271,0.062,42,102.0
796,B3,60.292,26/125,65,102.0
797,F#2,60.51,0.062,39,102.0
798,B-4,60.51,0.062,39,102.0
799,G4,60.521,163/50,72,102.0
800,C5,60.521,163/50,72,102.0
801,C4,60.542,0.062,48,102.0
802,B-4,60.542,0.062,48,102.0
803,F#2,60.76,0.062,62,102.0
804,C#2,60.76,0.062,62,102.0
805,E-3,60.76,0.062,62,102.0
806,B-4,60.76,0.062,62,102.0
807,E3,61.021,0.219,66,102.0
808,G1,61.021,0.062,61,102.0
809,F#2,61.021,0.062,61,102.0
810,B-4,61.021,0.062,61,102.0
811,B-2,61.26,0.062,53,102.0
812,B-4,61.26,0.062,53,102.0
813,A3,61.271,13/50,68,102.0
814,G1,61.271,0.062,76,102.0
815,B-4,61.271,0.062,76,102.0
816,B3,61.521,229/1000,66,102.0
817,G1,61.521,0.062,70,102.0
818,B-4,61.521,0.062,70,102.0
819,F#2,61.771,0.062,45,102.0
820,B-4,61.771,0.062,45,102.0
821,E-3,61.771,0.062,45,102.0
822,G1,61.771,0.219,90,102.0
823,C4,61.771,0.219,90,102.0
824,F#2,62.021,0.062,32,102.0
825,B-4,62.021,0.062,32,102.0
826,F#2,62.271,0.062,44,102.0
827,B-4,62.271,0.062,44,102.0
828,G1,62.271,26/125,88,102.0
829,A3,62.271,26/125,88,102.0
830,F#2,62.51,0.062,40,102.0
831,B-4,62.51,0.062,40,102.0
832,C4,62.521,177/1000,70,102.0
833,E-3,62.75,0.062,54,102.0
834,F#2,62.75,0.062,54,102.0
835,F#3,62.75,0.062,54,102.0
836,B-4,62.75,0.062,54,102.0
837,A1,62.76,229/1000,108,102.0
838,F#2,63.01,0.062,34,102.0
839,B-4,63.01,0.062,34,102.0
840,E3,63.021,0.25,68,102.0
841,G1,63.26,271/1000,88,102.0
842,A3,63.26,271/1000,88,102.0
843,F#2,63.271,0.062,42,102.0
844,B-4,63.271,0.062,42,102.0
845,C4,63.521,0.188,70,102.0
846,F#2,63.521,0.062,60,102.0
847,B1,63.521,0.062,60,102.0
848,B-4,63.521,0.062,60,102.0
849,A1,63.76,21/1000,110,102.0
850,F#2,63.771,1/100,64,102.0
851,E-3,63.771,1/100,64,102.0
852,B1,63.771,1/100,64,102.0
853,B-4,63.771,1/100,64,102.0
854,A1,65.812,229/1000,110,102.0
855,G4,65.812,526/125,72,102.0
856,C5,65.812,526/125,72,102.0
857,F#2,65.812,13/250,64,102.0
858,E-3,65.812,13/250,64,102.0
859,B1,65.812,13/250,64,102.0
860,B-4,65.812,13/250,64,102.0
861,G1,66.042,323/1000,106,102.0
862,F#2,66.052,0.062,36,102.0
863,B-4,66.052,0.062,36,102.0
864,E3,66.062,0.156,67,102.0
865,F#2,66.302,0.062,30,102.0
866,B-4,66.302,0.062,30,102.0
867,F#2,66.542,0.062,37,102.0
868,B-4,66.542,0.062,37,102.0
869,C4,66.573,0.219,70,102.0
870,E-3,66.781,0.062,63,102.0
871,C#2,66.781,0.062,63,102.0
872,F#2,66.781,0.062,63,102.0
873,B-4,66.781,0.062,63,102.0
874,F#2,67.052,0.062,58,102.0
875,G1,67.052,0.062,58,102.0
876,B-4,67.052,0.062,58,102.0
877,E3,67.073,6/25,68,102.0
878,F#2,67.302,0.062,42,102.0
879,B-4,67.302,0.062,42,102.0
880,G1,67.323,23/200,104,102.0
881,B3,67.323,6/25,69,102.0
882,C4,67.552,229/1000,69,102.0
883,F#2,67.552,0.062,40,102.0
884,B-4,67.552,0.062,40,102.0
885,G1,67.573,23/200,104,102.0
886,E-3,67.781,0.062,49,102.0
887,F#2,67.781,0.062,49,102.0
888,B-4,67.781,0.062,49,102.0
889,F#3,67.802,979/500,66,102.0
890,B3,67.802,979/500,66,102.0
891,D4,67.802,979/500,66,102.0
892,G1,67.823,167/1000,88,102.0
893,D4,67.823,167/1000,88,102.0
894,F#2,68.042,0.062,34,102.0
895,B-4,68.042,0.062,34,102.0
896,C4,68.073,0.156,71,102.0
897,F#2,68.302,0.062,44,102.0
898,B-4,68.302,0.062,44,102.0
899,G1,68.323,0.25,108,102.0
900,F#2,68.552,0.062,36,102.0
901,B-4,68.552,0.062,36,102.0
902,E-3,68.792,0.062,57,102.0
903,F#2,68.792,0.062,57,102.0
904,F#3,68.792,0.062,57,102.0
905,B-4,68.792,0.062,57,102.0
906,A1,68.812,0.25,109,102.0
907,E3,69.052,333/1000,69,102.0
908,F#2,69.052,0.062,32,102.0
909,B-4,69.052,0.062,32,102.0
910,D5,69.292,271/1000,91,102.0
911,G5,69.292,271/1000,91,102.0
912,C6,69.292,271/1000,91,102.0
913,G1,69.292,271/1000,91,102.0
914,A3,69.292,271/1000,91,102.0
915,F#2,69.312,0.062,44,102.0
916,B-4,69.312,0.062,44,102.0
917,C5,69.5,73/500,76,102.0
918,F#2,69.5,73/500,76,102.0
919,B3,69.5,73/500,76,102.0
920,D5,69.542,73/500,86,102.0
921,C6,69.542,73/500,86,102.0
922,G5,69.542,73/500,86,102.0
923,B3,69.542,73/500,86,102.0
924,B-4,69.583,0.062,34,102.0
925,C5,69.719,0.094,109,102.0
926,C6,69.792,21/1000,91,102.0
927,G5,69.792,21/1000,91,102.0
928,D5,69.792,21/1000,91,102.0
929,A1,69.802,1/100,108,102.0
930,C#3,69.802,1/100,62,102.0
931,E-3,69.802,1/100,62,102.0
932,B-4,69.802,1/100,62,102.0
933,B1,69.802,1/100,62,102.0
934,C4,69.802,1/100,93,102.0
935,B1,69.802,1/100,93,102.0
936,E4,69.802,1/100,65,102.0
937,G3,69.802,1/100,65,102.0
938,C4,69.802,1/100,65,102.0
939,A3,69.802,1/100,65,102.0
940,C5,70.021,0.344,109,102.0
941,A1,70.021,6/25,108,102.0
942,C6,70.021,7.5,91,102.0
943,G5,70.021,7.5,91,102.0
944,D5,70.021,7.5,91,102.0
945,C#3,70.021,13/250,62,102.0
946,E-3,70.021,13/250,62,102.0
947,B-4,70.021,13/250,62,102.0
948,B1,70.021,13/250,62,102.0
949,C4,70.021,13/250,93,102.0
950,B1,70.021,13/250,93,102.0
951,E4,70.021,601/100,65,102.0
952,G3,70.021,601/100,65,102.0
953,C4,70.021,601/100,65,102.0
954,A3,70.021,601/100,65,102.0
955,G1,70.25,151/500,106,102.0
956,C4,70.26,0.188,70,102.0
957,F#2,70.281,0.062,45,102.0
958,B-4,70.281,0.062,45,102.0
959,C5,70.5,99/250,109,102.0
960,B3,70.51,229/1000,61,102.0
961,F#2,70.521,0.062,41,102.0
962,B-4,70.521,0.062,41,102.0
963,F#2,70.76,0.062,47,102.0
964,C4,70.76,0.062,47,102.0
965,B-4,70.76,0.062,47,102.0
966,F#2,71.0,0.062,65,102.0
967,E-3,71.0,0.062,65,102.0
968,B-4,71.0,0.062,65,102.0
969,C#2,71.0,0.062,65,102.0
970,F#3,71.0,0.062,65,102.0
971,C5,71.021,167/1000,103,102.0
972,G1,71.25,0.062,57,102.0
973,F#2,71.25,0.062,57,102.0
974,B-4,71.25,0.062,57,102.0
975,C5,71.271,417/1000,104,102.0
976,E3,71.271,177/1000,66,102.0
977,F#2,71.51,0.062,61,102.0
978,G1,71.51,0.062,61,102.0
979,B-4,71.51,0.062,61,102.0
980,A3,71.531,0.219,72,102.0
981,D5,71.75,427/250,109,102.0
982,F#2,71.75,0.062,38,102.0
983,B-4,71.75,0.062,38,102.0
984,G1,71.76,0.062,70,102.0
985,B-4,71.76,0.062,70,102.0
986,B3,71.771,0.188,68,102.0
987,F#2,72.0,0.062,46,102.0
988,B-4,72.0,0.062,46,102.0
989,E-3,72.0,0.062,46,102.0
990,G1,72.01,0.188,88,102.0
991,C4,72.01,0.188,88,102.0
992,F#2,72.25,0.062,32,102.0
993,B-4,72.25,0.062,32,102.0
994,F#2,72.5,0.062,36,102.0
995,B-4,72.5,0.062,36,102.0
996,G1,72.51,26/125,88,102.0
997,A3,72.51,26/125,88,102.0
998,F#2,72.76,0.062,37,102.0
999,B-4,72.76,0.062,37,102.0
1000,C4,72.781,167/1000,70,102.0
1001,F#2,73.0,0.062,43,102.0
1002,E-3,73.0,0.062,43,102.0
1003,B-4,73.0,0.062,43,102.0
1004,A1,73.01,271/1000,111,102.0
1005,F#2,73.271,0.062,32,102.0
1006,B-4,73.271,0.062,32,102.0
1007,E3,73.281,167/1000,69,102.0
1008,G1,73.51,0.312,109,102.0
1009,F#2,73.521,0.062,46,102.0
1010,B-4,73.521,0.062,46,102.0
1011,A3,73.531,0.219,70,102.0
1012,B1,73.76,0.062,67,102.0
1013,F#2,73.76,0.062,67,102.0
1014,B-4,73.76,0.062,67,102.0
1015,C4,73.781,27/200,71,102.0
1016,F#2,73.896,0.062,60,102.0
1017,E-3,73.99,0.031,63,102.0
1018,F#2,73.99,0.031,63,102.0
1019,F#3,73.99,0.031,63,102.0
1020,B1,73.99,0.031,63,102.0
1021,B-4,73.99,0.031,63,102.0
1022,A1,74.01,1/100,112,102.0
1023,A1,77.521,13/50,112,102.0
1024,E-3,77.521,0.031,63,102.0
1025,F#2,77.521,0.031,63,102.0
1026,F#3,77.521,0.031,63,102.0
1027,B1,77.521,0.031,63,102.0
1028,B-4,77.521,0.031,63,102.0
1029,G1,77.76,151/500,107,102.0
1030,F#2,77.771,0.062,40,102.0
1031,B-4,77.771,0.062,40,102.0
1032,E3,77.781,73/500,68,102.0
1033,F#2,78.01,0.062,40,102.0
1034,B-4,78.01,0.062,40,102.0
1035,F#2,78.271,0.062,44,102.0
1036,B-4,78.271,0.062,44,102.0
1037,C4,78.281,73/500,72,102.0
1038,E-3,78.49,0.062,62,102.0
1039,C#2,78.49,0.062,62,102.0
1040,F#2,78.49,0.062,62,102.0
1041,B-4,78.49,0.062,62,102.0
1042,E3,78.76,13/50,65,102.0
1043,F#2,78.76,0.062,40,102.0
1044,B-4,78.76,0.062,40,102.0
1045,G1,78.76,0.062,70,102.0
1046,B-4,78.76,0.062,70,102.0
1047,F#2,79.01,0.062,62,102.0
1048,G1,79.01,0.062,62,102.0
1049,B-4,79.01,0.062,62,102.0
1050,B3,79.021,177/1000,69,102.0
1051,F#2,79.26,0.062,40,102.0
1052,B-4,79.26,0.062,40,102.0
1053,G1,79.26,0.062,69,102.0
1054,C4,79.26,0.062,69,102.0
1055,B-4,79.26,0.062,69,102.0
1056,D3,79.427,1583/1000,84,102.0
1057,E-3,79.49,0.062,47,102.0
1058,F#2,79.49,0.062,47,102.0
1059,B-4,79.49,0.062,47,102.0
1060,G1,79.51,73/250,108,102.0
1061,F#3,79.51,199/100,66,102.0
1062,D4,79.51,199/100,66,102.0
1063,B3,79.51,199/100,66,102.0
1064,D4,79.521,0.156,71,102.0
1065,C4,79.771,73/500,70,102.0
1066,F#2,79.771,0.062,40,102.0
1067,B-4,79.771,0.062,40,102.0
1068,G1,80.01,0.281,108,102.0
1069,F#2,80.01,0.062,42,102.0
1070,B-4,80.01,0.062,42,102.0
1071,B-4,80.26,0.062,43,102.0
1072,F#2,80.26,0.062,43,102.0
1073,E-3,80.5,0.062,48,102.0
1074,F#2,80.5,0.062,48,102.0
1075,B-4,80.5,0.062,48,102.0
1076,A1,80.521,0.25,108,102.0
1077,C5,80.74,0.062,60,102.0
1078,F#2,80.74,0.062,60,102.0
1079,B-4,80.74,0.062,60,102.0
1080,E3,80.76,0.25,68,102.0
1081,C5,80.99,0.062,62,102.0
1082,F#2,80.99,0.062,62,102.0
1083,B-4,80.99,0.062,62,102.0
1084,A3,81.0,521/1000,88,102.0
1085,G1,81.01,0.25,90,102.0
1086,A3,81.01,0.25,90,102.0
1087,C5,81.26,0.062,62,102.0
1088,F#2,81.26,0.062,62,102.0
1089,B-4,81.26,0.062,62,102.0
1090,B3,81.271,99/500,69,102.0
1091,F#2,81.396,0.062,57,102.0
1092,C5,81.49,0.031,106,102.0
1093,A1,81.49,0.031,106,102.0
1094,E-3,81.5,21/1000,67,102.0
1095,B1,81.5,21/1000,67,102.0
1096,B-4,81.5,21/1000,67,102.0
1097,F#2,81.5,21/1000,67,102.0
1098,F#3,81.5,21/1000,67,102.0
1099,C4,81.51,1/100,66,102.0
1100,C3,81.51,1/100,86,102.0
1101,E4,81.51,1/100,63,102.0
1102,G3,81.51,1/100,63,102.0
1103,A3,81.51,1/100,63,102.0
1104,A3,81.521,73/1000,88,102.0
1105,C4,81.521,5.969,66,102.0
1106,C3,81.521,1729/500,86,102.0
1107,C5,81.521,26/125,106,102.0
1108,A1,81.521,26/125,106,102.0
1109,E-3,81.521,21/500,67,102.0
1110,B1,81.521,21/500,67,102.0
1111,B-4,81.521,21/500,67,102.0
1112,F#2,81.521,21/500,67,102.0
1113,F#3,81.521,21/500,67,102.0
1114,E4,81.521,3021/500,63,102.0
1115,G3,81.521,3021/500,63,102.0
1116,A3,81.521,3021/500,63,102.0
1117,C4,81.531,27/200,72,102.0
1118,G1,81.75,0.312,104,102.0
1119,D5,81.76,99/250,107,102.0
1120,C4,81.76,0.219,68,102.0
1121,F#2,81.76,0.062,42,102.0
1122,B-4,81.76,0.062,42,102.0
1123,B3,82.01,0.219,69,102.0
1124,B-4,82.01,0.062,38,102.0
1125,F#2,82.01,0.062,38,102.0
1126,E5,82.208,77/200,105,102.0
1127,F#2,82.26,0.062,38,102.0
1128,B-4,82.26,0.062,38,102.0
1129,C4,82.281,167/1000,68,102.0
1130,E-3,82.5,0.062,57,102.0
1131,C#2,82.5,0.062,57,102.0
1132,B-4,82.5,0.062,57,102.0
1133,F#2,82.5,0.062,57,102.0
1134,G5,82.719,56/125,108,102.0
1135,G1,82.76,0.062,59,102.0
1136,F#2,82.76,0.062,59,102.0
1137,B-4,82.76,0.062,59,102.0
1138,E3,82.771,229/1000,68,102.0
1139,B-2,83.01,0.062,55,102.0
1140,B-4,83.01,0.062,55,102.0
1141,A3,83.021,0.25,67,102.0
1142,G1,83.031,73/500,106,102.0
1143,F#5,83.26,1427/1000,104,102.0
1144,B3,83.26,73/500,86,102.0
1145,G1,83.26,73/500,86,102.0
1146,B-4,83.281,0.062,23,102.0
1147,E-3,83.49,0.062,50,102.0
1148,B-4,83.49,0.062,50,102.0
1149,F#2,83.49,0.062,50,102.0
1150,G1,83.51,0.25,90,102.0
1151,C4,83.51,0.25,90,102.0
1152,F#2,83.771,0.062,29,102.0
1153,B-4,83.771,0.062,29,102.0
1154,F#2,84.01,0.062,42,102.0
1155,B-4,84.01,0.062,42,102.0
1156,G1,84.01,229/1000,87,102.0
1157,A3,84.01,229/1000,87,102.0
1158,F#2,84.26,0.062,36,102.0
1159,B-4,84.26,0.062,36,102.0
1160,C4,84.281,27/200,69,102.0
1161,A1,84.5,271/1000,109,102.0
1162,F#2,84.51,0.062,56,102.0
1163,E-3,84.51,0.062,56,102.0
1164,B-4,84.51,0.062,56,102.0
1165,F#3,84.51,0.062,56,102.0
1166,F#2,84.75,0.062,34,102.0
1167,B-4,84.75,0.062,34,102.0
1168,E3,84.781,13/50,65,102.0
1169,A2,84.979,271/500,63,102.0
1170,B-4,85.0,0.062,42,102.0
1171,F#2,85.0,0.062,42,102.0
1172,G1,85.01,13/50,88,102.0
1173,A3,85.01,13/50,88,102.0
1174,F#2,85.26,0.062,59,102.0
1175,B-4,85.26,0.062,59,102.0
1176,B1,85.26,0.062,59,102.0
1177,C4,85.281,27/200,70,102.0
1178,E-3,85.5,21/1000,62,102.0
1179,F#2,85.5,21/1000,62,102.0
1180,B-4,85.5,21/1000,62,102.0
1181,B1,85.5,21/1000,62,102.0
1182,A1,85.51,1/100,111,102.0
1183,A2,87.562,21/500,63,102.0
1184,A1,87.562,6/25,111,102.0
1185,E-3,87.562,21/500,62,102.0
1186,F#2,87.562,21/500,62,102.0
1187,B-4,87.562,21/500,62,102.0
1188,B1,87.562,21/500,62,102.0
1189,A2,87.615,3.906,63,102.0
1190,G1,87.792,0.344,107,102.0
1191,F#2,87.802,0.062,32,102.0
1192,B-4,87.802,0.062,32,102.0
1193,E3,87.823,99/500,67,102.0
1194,F#2,88.052,0.062,38,102.0
1195,B-4,88.052,0.062,38,102.0
1196,F#2,88.302,0.062,35,102.0
1197,B-4,88.302,0.062,35,102.0
1198,C4,88.312,99/500,71,102.0
1199,C#2,88.552,0.062,59,102.0
1200,F#2,88.552,0.062,59,102.0
1201,B-4,88.552,0.062,59,102.0
1202,E-3,88.552,0.062,59,102.0
1203,E3,88.802,0.312,66,102.0
1204,F#2,88.802,0.062,58,102.0
1205,G1,88.802,0.062,58,102.0
1206,B-4,88.802,0.062,58,102.0
1207,G1,89.052,73/500,104,102.0
1208,F#2,89.052,0.062,38,102.0
1209,B-4,89.052,0.062,38,102.0
1210,B3,89.062,0.219,70,102.0
1211,F#2,89.302,0.062,36,102.0
1212,B-4,89.302,0.062,36,102.0
1213,G1,89.302,26/125,87,102.0
1214,C4,89.302,26/125,87,102.0
1215,A4,89.521,0.219,84,102.0
1216,D4,89.521,0.219,84,102.0
1217,G1,89.552,151/500,108,102.0
1218,F#2,89.552,0.062,48,102.0
1219,B-4,89.552,0.062,48,102.0
1220,E-3,89.552,0.062,48,102.0
1221,F#3,89.552,487/250,68,102.0
1222,D4,89.552,487/250,68,102.0
1223,B3,89.552,487/250,68,102.0
1224,A4,89.771,6/25,76,102.0
1225,C4,89.771,6/25,76,102.0
1226,F#2,89.792,0.062,32,102.0
1227,B-4,89.792,0.062,32,102.0
1228,A4,90.031,271/1000,95,102.0
1229,G1,90.031,271/1000,95,102.0
1230,F#2,90.052,0.062,36,102.0
1231,B-4,90.052,0.062,36,102.0
1232,A4,90.292,667/1000,93,102.0
1233,B-4,90.312,0.062,28,102.0
1234,F#2,90.312,0.062,28,102.0
1235,A1,90.552,229/1000,110,102.0
1236,E-3,90.552,0.062,57,102.0
1237,B-4,90.552,0.062,57,102.0
1238,F#3,90.552,0.062,57,102.0
1239,F#2,90.552,0.062,57,102.0
1240,E5,90.781,0.062,56,102.0
1241,F#2,90.781,0.062,56,102.0
1242,B-4,90.781,0.062,56,102.0
1243,B3,90.812,73/250,64,102.0
1244,E3,90.812,73/250,64,102.0
1245,G#4,90.875,177/1000,50,102.0
1246,G4,90.99,27/200,66,102.0
1247,E5,91.031,73/250,95,102.0
1248,G1,91.031,73/250,95,102.0
1249,A3,91.031,73/250,95,102.0
1250,F#2,91.052,0.062,41,102.0
1251,B-4,91.052,0.062,41,102.0
1252,B3,91.062,49/100,64,102.0
1253,F#4,91.083,0.125,72,102.0
1254,F4,91.156,73/500,75,102.0
1255,E4,91.25,0.062,49,102.0
1256,F#2,91.25,0.062,49,102.0
1257,B-4,91.25,0.062,49,102.0
1258,B3,91.312,0.156,68,102.0
1259,E-4,91.312,0.156,68,102.0
1260,D4,91.469,0.094,55,102.0
1261,E4,91.531,0.031,62,102.0
1262,G3,91.542,21/1000,65,102.0
1263,A3,91.542,21/1000,65,102.0
1264,C4,91.542,21/1000,65,102.0
1265,A1,91.552,1/100,109,102.0
1266,C4,91.552,1/100,92,102.0
1267,G5,91.552,1/100,92,102.0
1268,B1,91.552,1/100,63,102.0
1269,F#2,91.552,1/100,63,102.0
1270,E-3,91.552,1/100,63,102.0
1271,B-4,91.552,1/100,63,102.0
1272,C#4,91.552,1/100,63,102.0
1273,E4,91.562,3021/500,62,102.0
1274,D4,91.562,21/500,55,102.0
1275,A1,91.562,0.25,109,102.0
1276,G3,91.562,2979/500,65,102.0
1277,A3,91.562,2979/500,65,102.0
1278,C4,91.562,2979/500,65,102.0
1279,C4,91.562,127/200,92,102.0
1280,G5,91.562,127/200,92,102.0
1281,B1,91.562,0.094,63,102.0
1282,F#2,91.562,0.094,63,102.0
1283,E-3,91.562,0.094,63,102.0
1284,B-4,91.562,0.094,63,102.0
1285,C#4,91.562,0.094,63,102.0
1286,C4,91.573,13/125,64,102.0
1287,C#4,91.573,13/125,64,102.0
1288,C4,91.667,0.062,56,102.0
1289,F#2,91.792,0.062,32,102.0
1290,B-4,91.792,0.062,32,102.0
1291,G1,91.792,6/25,90,102.0
1292,C4,91.792,6/25,90,102.0
1293,F#2,92.042,0.062,37,102.0
1294,B-4,92.042,0.062,37,102.0
1295,B3,92.062,229/1000,67,102.0
1296,E5,92.229,229/1000,101,102.0
1297,B3,92.24,73/200,66,102.0
1298,F#2,92.292,0.062,34,102.0
1299,B-4,92.292,0.062,34,102.0
1300,C4,92.323,167/1000,64,102.0
1301,D5,92.531,333/1000,103,102.0
1302,F#2,92.542,0.062,64,102.0
1303,E-3,92.542,0.062,64,102.0
1304,B-4,92.542,0.062,64,102.0
1305,C#2,92.542,0.062,64,102.0
1306,A3,92.604,323/1000,64,102.0
1307,F#2,92.792,0.062,55,102.0
1308,G1,92.792,0.062,55,102.0
1309,B-4,92.792,0.062,55,102.0
1310,E3,92.802,271/1000,68,102.0
1311,C5,92.885,0.344,79,102.0
1312,G3,92.885,0.344,79,102.0
1313,F#2,93.042,0.062,41,102.0
1314,B-4,93.042,0.062,41,102.0
1315,G1,93.042,0.062,70,102.0
1316,B-4,93.042,0.062,70,102.0
1317,A3,93.052,271/1000,71,102.0
1318,D5,93.24,333/1000,80,102.0
1319,A3,93.24,333/1000,80,102.0
1320,G1,93.292,0.062,59,102.0
1321,F#2,93.292,0.062,59,102.0
1322,B-4,93.292,0.062,59,102.0
1323,B3,93.302,99/500,70,102.0
1324,F#2,93.542,0.062,54,102.0
1325,E-3,93.542,0.062,54,102.0
1326,F#3,93.542,0.062,54,102.0
1327,B-4,93.542,0.062,54,102.0
1328,G1,93.552,6/25,90,102.0
1329,C4,93.552,6/25,90,102.0
1330,E5,93.583,0.469,82,102.0
1331,C4,93.583,0.469,82,102.0
1332,B-4,93.802,0.062,32,102.0
1333,F#2,93.802,0.062,32,102.0
1334,F#2,94.052,0.062,35,102.0
1335,B-4,94.052,0.062,35,102.0
1336,G1,94.052,0.219,88,102.0
1337,A3,94.052,0.219,88,102.0
1338,E5,94.062,349/250,97,102.0
1339,B3,94.073,149/100,62,102.0
1340,B-4,94.302,0.062,38,102.0
1341,F#2,94.302,0.062,38,102.0
1342,C4,94.323,177/1000,71,102.0
1343,A1,94.542,151/500,108,102.0
1344,F#2,94.552,0.062,46,102.0
1345,B-4,94.552,0.062,46,102.0
1346,E-3,94.552,0.062,46,102.0
1347,B-4,94.802,0.062,43,102.0
1348,F#2,94.802,0.062,43,102.0
1349,E3,94.812,6/25,68,102.0
1350,G1,95.042,0.25,88,102.0
1351,A3,95.042,0.25,88,102.0
1352,B-4,95.042,0.062,46,102.0
1353,B-2,95.042,0.062,46,102.0
1354,C4,95.302,0.156,71,102.0
1355,B-4,95.302,0.062,65,102.0
1356,B1,95.302,0.062,65,102.0
1357,A1,95.552,1/100,110,102.0
1358,F#2,95.552,1/100,62,102.0
1359,B-4,95.552,1/100,62,102.0
1360,E-3,95.552,1/100,62,102.0
1361,B1,95.552,1/100,62,102.0
1362,A1,97.604,0.25,110,102.0
1363,B3,97.604,0.031,62,102.0
1364,F#2,97.604,13/250,62,102.0
1365,B-4,97.604,13/250,62,102.0
1366,E-3,97.604,13/250,62,102.0
1367,B1,97.604,13/250,62,102.0
1368,G1,97.833,0.312,107,102.0
1369,F#2,97.833,0.062,36,102.0
1370,B-4,97.833,0.062,36,102.0
1371,E3,97.854,0.156,66,102.0
1372,B-4,98.083,0.062,44,102.0
1373,F#2,98.083,0.062,44,102.0
1374,F#2,98.333,0.062,40,102.0
1375,B-4,98.333,0.062,40,102.0
1376,C4,98.354,99/500,72,102.0
1377,E-3,98.583,0.062,63,102.0
1378,C#2,98.583,0.062,63,102.0
1379,F#2,98.583,0.062,63,102.0
1380,B-4,98.583,0.062,63,102.0
1381,F#2,98.833,0.062,40,102.0
1382,B-4,98.833,0.062,40,102.0
1383,G1,98.844,27/200,103,102.0
1384,E3,98.844,0.25,65,102.0
1385,E5,99.073,2.531,103,102.0
1386,F#2,99.094,0.062,42,102.0
1387,B-4,99.094,0.062,42,102.0
1388,G1,99.094,177/1000,86,102.0
1389,B3,99.094,177/1000,86,102.0
1390,G1,99.333,0.062,61,102.0
1391,F#2,99.333,0.062,61,102.0
1392,B-4,99.333,0.062,61,102.0
1393,C4,99.344,99/500,68,102.0
1394,F#3,99.583,2021/1000,65,102.0
1395,E-3,99.583,0.062,53,102.0
1396,F#2,99.583,0.062,53,102.0
1397,F#3,99.583,0.062,53,102.0
1398,B-4,99.583,0.062,53,102.0
1399,G1,99.594,177/1000,88,102.0
1400,D4,99.594,177/1000,88,102.0
1401,B3,99.594,1.938,68,102.0
1402,D4,99.594,1.938,68,102.0
1403,C4,99.844,0.156,71,102.0
1404,F#2,99.844,0.062,36,102.0
1405,B-4,99.844,0.062,36,102.0
1406,G1,100.094,0.25,112,102.0
1407,F#2,100.094,0.062,41,102.0
1408,B-4,100.094,0.062,41,102.0
1409,F#2,100.344,0.062,38,102.0
1410,B-4,100.344,0.062,38,102.0
1411,E-3,100.583,0.062,48,102.0
1412,F#2,100.583,0.062,48,102.0
1413,B-4,100.583,0.062,48,102.0
1414,A1,100.615,26/125,110,102.0
1415,F#2,100.844,0.062,36,102.0
1416,B-4,100.844,0.062,36,102.0
1417,E3,100.854,323/1000,70,102.0
1418,F#2,101.094,0.062,41,102.0
1419,B-4,101.094,0.062,41,102.0
1420,G1,101.094,13/50,90,102.0
1421,A3,101.094,13/50,90,102.0
1422,A3,101.271,6/25,78,102.0
1423,C5,101.271,6/25,78,102.0
1424,B3,101.344,26/125,69,102.0
1425,F#2,101.344,0.062,36,102.0
1426,B-4,101.344,0.062,36,102.0
1427,G5,101.562,21/500,84,102.0
1428,C4,101.562,21/500,84,102.0
1429,G3,101.583,21/1000,65,102.0
1430,E4,101.583,21/1000,65,102.0
1431,A3,101.583,21/1000,65,102.0
1432,C4,101.583,21/1000,64,102.0
1433,E4,101.583,21/1000,64,102.0
1434,A3,101.583,21/1000,64,102.0
1435,E-3,101.583,21/1000,67,102.0
1436,F#2,101.583,21/1000,67,102.0
1437,B-4,101.583,21/1000,67,102.0
1438,B1,101.583,21/1000,67,102.0
1439,A1,101.594,1/100,109,102.0
1440,E5,101.604,4.562,103,102.0
1441,A1,101.604,0.219,109,102.0
1442,C4,101.604,0.062,94,102.0
1443,B1,101.604,0.062,94,102.0
1444,G5,101.604,583/1000,84,102.0
1445,C4,101.604,583/1000,84,102.0
1446,G3,101.604,5.969,65,102.0
1447,E4,101.604,5.969,65,102.0
1448,A3,101.604,5.969,65,102.0
1449,C4,101.604,5.969,64,102.0
1450,E4,101.604,5.969,64,102.0
1451,A3,101.604,5.969,64,102.0
1452,E-3,101.604,21/500,67,102.0
1453,F#2,101.604,21/500,67,102.0
1454,B-4,101.604,21/500,67,102.0
1455,B1,101.604,21/500,67,102.0
1456,F#2,101.844,0.062,28,102.0
1457,B-4,101.844,0.062,28,102.0
1458,G1,101.844,0.219,88,102.0
1459,C4,101.844,0.219,88,102.0
1460,F#2,102.094,0.062,40,102.0
1461,B-4,102.094,0.062,40,102.0
1462,B3,102.115,167/1000,67,102.0
1463,B3,102.24,69/125,76,102.0
1464,F#5,102.24,69/125,76,102.0
1465,F#2,102.354,0.062,34,102.0
1466,B-4,102.354,0.062,34,102.0
1467,C4,102.365,0.219,69,102.0
1468,C#2,102.594,0.062,66,102.0
1469,F#2,102.594,0.062,66,102.0
1470,F#3,102.594,0.062,66,102.0
1471,E-3,102.594,0.062,66,102.0
1472,B-4,102.594,0.062,66,102.0
1473,E5,102.833,0.562,78,102.0
1474,A3,102.833,0.562,78,102.0
1475,F#2,102.844,0.062,56,102.0
1476,G1,102.844,0.062,56,102.0
1477,B-4,102.844,0.062,56,102.0
1478,E3,102.865,0.25,67,102.0
1479,F#2,103.094,0.062,62,102.0
1480,G1,103.094,0.062,62,102.0
1481,B-4,103.094,0.062,62,102.0
1482,A3,103.104,13/50,68,102.0
1483,F#2,103.344,0.062,38,102.0
1484,B-4,103.344,0.062,38,102.0
1485,G1,103.344,99/500,88,102.0
1486,B3,103.344,99/500,88,102.0
1487,G3,103.417,1.188,52,102.0
1488,D5,103.427,1.062,101,102.0
1489,F#2,103.594,0.062,47,102.0
1490,B-4,103.594,0.062,47,102.0
1491,E-3,103.594,0.062,47,102.0
1492,G1,103.594,0.281,88,102.0
1493,C4,103.594,0.281,88,102.0
1494,F#2,103.844,0.062,36,102.0
1495,B-4,103.844,0.062,36,102.0
1496,F#2,104.083,0.062,38,102.0
1497,B-4,104.083,0.062,38,102.0
1498,G1,104.094,6/25,88,102.0
1499,A3,104.094,6/25,88,102.0
1500,F#2,104.333,0.062,36,102.0
1501,B-4,104.333,0.062,36,102.0
1502,C4,104.354,0.25,70,102.0
1503,A1,104.594,0.219,109,102.0
1504,F#2,104.594,0.062,46,102.0
1505,E-3,104.594,0.062,46,102.0
1506,B-4,104.594,0.062,46,102.0
1507,F#2,104.833,0.062,33,102.0
1508,B-4,104.833,0.062,33,102.0
1509,E3,104.844,73/500,84,102.0
1510,C5,104.844,73/500,84,102.0
1511,A3,104.885,6/25,57,102.0
1512,F#2,105.083,0.062,38,102.0
1513,B-4,105.083,0.062,38,102.0
1514,G1,105.094,0.25,86,102.0
1515,A3,105.094,0.25,86,102.0
1516,C5,105.125,323/1000,95,102.0
1517,A3,105.135,229/500,63,102.0
1518,B1,105.344,0.062,55,102.0
1519,F#2,105.344,0.062,55,102.0
1520,B-4,105.344,0.062,55,102.0
1521,C4,105.365,0.188,70,102.0
1522,E-3,105.573,0.031,61,102.0
1523,F#2,105.573,0.031,61,102.0
1524,B1,105.573,0.031,61,102.0
1525,B-4,105.573,0.031,61,102.0
1526,A1,105.594,1/100,108,102.0
1527,E5,105.594,1/100,85,102.0
1528,C4,105.594,1/100,85,102.0
1529,A1,107.573,0.25,108,102.0
1530,E-3,107.573,0.031,61,102.0
1531,F#2,107.573,0.031,61,102.0
1532,B1,107.573,0.031,61,102.0
1533,B-4,107.573,0.031,61,102.0
1534,E5,107.573,667/1000,85,102.0
1535,C4,107.573,667/1000,85,102.0
1536,F#2,107.802,0.062,36,102.0
1537,B-4,107.802,0.062,36,102.0
1538,G1,107.812,151/500,107,102.0
1539,E3,107.823,0.219,66,102.0
1540,F#2,108.052,0.062,40,102.0
1541,B-4,108.052,0.062,40,102.0
1542,D5,108.24,151/500,78,102.0
1543,B3,108.24,151/500,78,102.0
1544,C4,108.312,26/125,72,102.0
1545,F#2,108.312,0.062,37,102.0
1546,B-4,108.312,0.062,37,102.0
1547,C5,108.531,0.469,76,102.0
1548,A3,108.531,0.469,76,102.0
1549,E-3,108.531,0.062,66,102.0
1550,C#2,108.531,0.062,66,102.0
1551,F#2,108.531,0.062,66,102.0
1552,F#3,108.531,0.062,66,102.0
1553,B-4,108.531,0.062,66,102.0
1554,E3,108.802,333/1000,67,102.0
1555,F#2,108.802,0.062,58,102.0
1556,G1,108.802,0.062,58,102.0
1557,B-4,108.802,0.062,58,102.0
1558,G3,109.01,521/1000,75,102.0
1559,B4,109.01,521/1000,75,102.0
1560,F#2,109.052,0.062,38,102.0
1561,B-4,109.052,0.062,38,102.0
1562,G1,109.062,0.062,69,102.0
1563,B3,109.062,0.062,69,102.0
1564,B-4,109.062,0.062,69,102.0
1565,F#2,109.302,0.062,30,102.0
1566,B-4,109.302,0.062,30,102.0
1567,C4,109.312,26/125,70,102.0
1568,G1,109.312,0.062,69,102.0
1569,B-4,109.312,0.062,69,102.0
1570,E-3,109.542,0.062,50,102.0
1571,F#2,109.542,0.062,50,102.0
1572,B-4,109.542,0.062,50,102.0
1573,F#3,109.552,1927/1000,66,102.0
1574,B3,109.552,1927/1000,66,102.0
1575,D4,109.552,1927/1000,66,102.0
1576,G1,109.562,177/1000,90,102.0
1577,D4,109.562,177/1000,90,102.0
1578,F#3,109.583,1417/1000,50,102.0
1579,A4,109.594,1167/1000,94,102.0
1580,F#2,109.802,0.062,36,102.0
1581,B-4,109.802,0.062,36,102.0
1582,C4,109.823,99/500,70,102.0
1583,B-4,110.052,0.062,44,102.0
1584,F#2,110.052,0.062,44,102.0
1585,G1,110.062,0.25,110,102.0
1586,F#2,110.312,0.062,39,102.0
1587,B-4,110.312,0.062,39,102.0
1588,A1,110.552,271/1000,109,102.0
1589,B-2,110.562,0.062,50,102.0
1590,E-3,110.562,0.062,50,102.0
1591,B-4,110.562,0.062,50,102.0
1592,E3,110.812,151/500,68,102.0
1593,B-4,110.812,0.062,39,102.0
1594,F#2,110.812,0.062,39,102.0
1595,G1,111.052,13/50,90,102.0
1596,A3,111.052,13/50,90,102.0
1597,F#2,111.073,0.062,42,102.0
1598,B-4,111.073,0.062,42,102.0
1599,C5,111.302,0.062,68,102.0
1600,F#2,111.302,0.062,68,102.0
1601,B1,111.302,0.062,68,102.0
1602,B-4,111.302,0.062,68,102.0
1603,B3,111.323,26/125,71,102.0
1604,C5,111.542,0.031,96,102.0
1605,C4,111.542,0.031,73,102.0
1606,E4,111.542,0.031,73,102.0
1607,A4,111.542,0.031,73,102.0
1608,G3,111.552,21/1000,66,102.0
1609,A3,111.552,21/1000,66,102.0
1610,E4,111.552,21/1000,66,102.0
1611,C4,111.552,21/1000,66,102.0
1612,A3,111.552,21/1000,66,102.0
1613,A1,111.562,1/100,110,102.0
1614,F#2,111.562,1/100,63,102.0
1615,E-3,111.562,1/100,63,102.0
1616,B-4,111.562,1/100,63,102.0
1617,B1,111.562,1/100,63,102.0
1618,F#3,111.562,1/100,63,102.0
1619,C4,111.573,73/500,70,102.0
1620,C5,111.573,0.438,96,102.0
1621,A1,111.573,0.219,110,102.0
1622,C4,111.573,1.406,73,102.0
1623,E4,111.573,1.406,73,102.0
1624,A4,111.573,1.406,73,102.0
1625,G3,111.573,6021/1000,66,102.0
1626,A3,111.573,6021/1000,66,102.0
1627,E4,111.573,6021/1000,66,102.0
1628,C4,111.573,6021/1000,66,102.0
1629,A3,111.573,6021/1000,66,102.0
1630,F#2,111.573,13/250,63,102.0
1631,E-3,111.573,13/250,63,102.0
1632,B-4,111.573,13/250,63,102.0
1633,B1,111.573,13/250,63,102.0
1634,F#3,111.573,13/250,63,102.0
1635,G1,111.802,0.219,88,102.0
1636,C4,111.802,0.219,88,102.0
1637,F#2,111.812,0.062,40,102.0
1638,B-4,111.812,0.062,40,102.0
1639,F#2,112.062,0.062,39,102.0
1640,B-4,112.062,0.062,39,102.0
1641,B3,112.083,0.156,68,102.0
1642,C5,112.094,333/1000,99,102.0
1643,F#2,112.312,0.062,37,102.0
1644,B-4,112.312,0.062,37,102.0
1645,C4,112.323,0.188,69,102.0
1646,E-3,112.542,0.062,64,102.0
1647,F#2,112.542,0.062,64,102.0
1648,B-4,112.542,0.062,64,102.0
1649,C#2,112.542,0.062,64,102.0
1650,C5,112.573,99/500,101,102.0
1651,F#2,112.812,0.062,57,102.0
1652,G1,112.812,0.062,57,102.0
1653,B-4,112.812,0.062,57,102.0
1654,E3,112.833,0.188,68,102.0
1655,C5,112.865,0.469,101,102.0
1656,G4,113.042,229/1000,70,102.0
1657,C5,113.042,229/1000,70,102.0
1658,E5,113.042,229/1000,70,102.0
1659,A3,113.042,229/1000,70,102.0
1660,F#2,113.062,0.062,62,102.0
1661,G1,113.062,0.062,62,102.0
1662,B-4,113.062,0.062,62,102.0
1663,F#5,113.302,2271/1000,69,102.0
1664,D5,113.302,2271/1000,69,102.0
1665,A4,113.302,2271/1000,69,102.0
1666,B3,113.312,167/1000,66,102.0
1667,F#2,113.312,0.062,61,102.0
1668,G1,113.312,0.062,61,102.0
1669,B-4,113.312,0.062,61,102.0
1670,D5,113.354,651/500,101,102.0
1671,E-3,113.552,0.062,49,102.0
1672,F#2,113.552,0.062,49,102.0
1673,B-4,113.552,0.062,49,102.0
1674,G1,113.562,6/25,88,102.0
1675,C4,113.562,6/25,88,102.0
1676,F#2,113.802,0.062,36,102.0
1677,B-4,113.802,0.062,36,102.0
1678,F#2,114.052,0.062,35,102.0
1679,B-4,114.052,0.062,35,102.0
1680,G1,114.062,26/125,88,102.0
1681,A3,114.062,26/125,88,102.0
1682,F#2,114.302,0.062,39,102.0
1683,B-4,114.302,0.062,39,102.0
1684,C4,114.333,229/1000,69,102.0
1685,A1,114.562,0.219,108,102.0
1686,F#2,114.562,0.062,47,102.0
1687,B-4,114.562,0.062,47,102.0
1688,E-3,114.562,0.062,47,102.0
1689,F#2,114.812,0.062,33,102.0
1690,B-4,114.812,0.062,33,102.0
1691,E3,114.823,99/500,66,102.0
1692,G1,115.052,99/500,90,102.0
1693,A3,115.052,99/500,90,102.0
1694,F#2,115.062,0.062,41,102.0
1695,B-4,115.062,0.062,41,102.0
1696,C4,115.312,0.156,69,102.0
1697,F#2,115.312,0.062,36,102.0
1698,B-4,115.312,0.062,36,102.0
1699,A1,115.562,1/100,108,102.0
1700,F#2,115.562,1/100,64,102.0
1701,B-4,115.562,1/100,64,102.0
1702,F#3,115.562,1/100,64,102.0
1703,B1,115.562,1/100,64,102.0
1704,E-3,115.562,1/100,64,102.0
1705,A1,117.594,229/1000,108,102.0
1706,F#5,117.594,513/250,69,102.0
1707,D5,117.594,513/250,69,102.0
1708,A4,117.594,513/250,69,102.0
1709,F#2,117.594,13/250,64,102.0
1710,B-4,117.594,13/250,64,102.0
1711,F#3,117.594,13/250,64,102.0
1712,B1,117.594,13/250,64,102.0
1713,E-3,117.594,13/250,64,102.0
1714,G1,117.823,26/125,87,102.0
1715,E3,117.823,26/125,87,102.0
1716,F#2,117.833,0.062,34,102.0
1717,B-4,117.833,0.062,34,102.0
1718,F#2,118.083,0.062,36,102.0
1719,B-4,118.083,0.062,36,102.0
1720,F#2,118.323,0.062,32,102.0
1721,B-4,118.323,0.062,32,102.0
1722,C4,118.344,26/125,72,102.0
1723,E-3,118.573,0.062,63,102.0
1724,B-4,118.573,0.062,63,102.0
1725,C#2,118.573,0.062,63,102.0
1726,F#2,118.573,0.062,63,102.0
1727,F#2,118.823,0.062,32,102.0
1728,B-4,118.823,0.062,32,102.0
1729,E3,118.833,271/1000,66,102.0
1730,G1,118.833,0.062,70,102.0
1731,B-4,118.833,0.062,70,102.0
1732,F#2,119.083,0.062,61,102.0
1733,G1,119.083,0.062,61,102.0
1734,B-4,119.083,0.062,61,102.0
1735,B3,119.104,99/500,69,102.0
1736,G1,119.323,0.062,71,102.0
1737,F#2,119.323,0.062,71,102.0
1738,C4,119.323,0.062,71,102.0
1739,B-4,119.323,0.062,71,102.0
1740,C#2,119.323,0.062,71,102.0
1741,E-3,119.552,0.062,45,102.0
1742,F#2,119.552,0.062,45,102.0
1743,B-4,119.552,0.062,45,102.0
1744,F#3,119.573,487/250,67,102.0
1745,B3,119.573,487/250,67,102.0
1746,D4,119.573,487/250,67,102.0
1747,G1,119.583,26/125,88,102.0
1748,D4,119.583,26/125,88,102.0
1749,F#2,119.823,0.062,34,102.0
1750,B-4,119.823,0.062,34,102.0
1751,C4,119.844,0.125,68,102.0
1752,G1,120.083,0.25,108,102.0
1753,F#2,120.083,0.062,66,102.0
1754,B-4,120.083,0.062,66,102.0
1755,C#2,120.083,0.062,66,102.0
1756,F#2,120.323,0.062,36,102.0
1757,B-4,120.323,0.062,36,102.0
1758,F#2,120.573,0.062,54,102.0
1759,E-3,120.573,0.062,54,102.0
1760,B-4,120.573,0.062,54,102.0
1761,F#3,120.573,0.062,54,102.0
1762,A1,120.583,6/25,109,102.0
1763,F#2,120.823,0.062,36,102.0
1764,B-4,120.823,0.062,36,102.0
1765,E3,120.844,13/50,70,102.0
1766,C5,121.042,0.188,106,102.0
1767,B-2,121.073,0.062,44,102.0
1768,B-4,121.073,0.062,44,102.0
1769,G1,121.083,0.281,90,102.0
1770,A3,121.083,0.281,90,102.0
1771,B4,121.229,0.312,94,102.0
1772,B3,121.344,26/125,70,102.0
1773,B-4,121.344,0.062,62,102.0
1774,B1,121.344,0.062,62,102.0
1775,C5,121.542,13/250,97,102.0
1776,G3,121.562,0.031,65,102.0
1777,C4,121.562,0.031,65,102.0
1778,A3,121.562,0.031,65,102.0
1779,E-3,121.562,0.031,62,102.0
1780,F#2,121.562,0.031,62,102.0
1781,B1,121.562,0.031,62,102.0
1782,B-4,121.562,0.031,62,102.0
1783,E4,121.573,21/1000,64,102.0
1784,A3,121.573,21/1000,64,102.0
1785,C5,121.594,0.281,97,102.0
1786,G3,121.594,1487/250,65,102.0
1787,C4,121.594,1487/250,65,102.0
1788,A3,121.594,1487/250,65,102.0
1789,E-3,121.594,0.031,62,102.0
1790,F#2,121.594,0.031,62,102.0
1791,B1,121.594,0.031,62,102.0
1792,B-4,121.594,0.031,62,102.0
1793,E4,121.594,2979/500,64,102.0
1794,A3,121.594,2979/500,64,102.0
1795,A1,121.604,73/500,90,102.0
1796,C4,121.604,73/500,90,102.0
1797,G1,121.823,151/500,105,102.0
1798,C4,121.833,0.219,68,102.0
1799,B-4,121.833,0.062,31,102.0
1800,F#2,121.833,0.062,31,102.0
1801,D5,121.875,0.438,101,102.0
1802,F#2,122.083,0.062,40,102.0
1803,B-4,122.083,0.062,40,102.0
1804,B3,122.094,177/1000,68,102.0
1805,E5,122.312,417/1000,99,102.0
1806,F#2,122.323,0.062,36,102.0
1807,B-4,122.323,0.062,36,102.0
1808,C4,122.354,167/1000,69,102.0
1809,E-3,122.562,0.062,64,102.0
1810,F#2,122.562,0.062,64,102.0
1811,B-4,122.562,0.062,64,102.0
1812,C#2,122.562,0.062,64,102.0
1813,C5,122.729,99/250,92,102.0
1814,F#2,122.823,0.062,36,102.0
1815,B-4,122.823,0.062,36,102.0
1816,E3,122.833,23/200,88,102.0
1817,G1,122.833,23/200,88,102.0
1818,F#2,123.073,0.062,62,102.0
1819,G1,123.073,0.062,62,102.0
1820,B-4,123.073,0.062,62,102.0
1821,A3,123.083,0.219,68,102.0
1822,B4,123.125,0.344,96,102.0
1823,F#2,123.323,0.062,29,102.0
1824,B-4,123.323,0.062,29,102.0
1825,G1,123.333,99/500,87,102.0
1826,B3,123.333,99/500,87,102.0
1827,C5,123.469,1.0,98,102.0
1828,E-3,123.562,0.062,49,102.0
1829,F#2,123.562,0.062,49,102.0
1830,B-4,123.562,0.062,49,102.0
1831,G1,123.583,0.219,88,102.0
1832,C4,123.583,0.219,88,102.0
1833,F#2,123.833,0.062,36,102.0
1834,B-4,123.833,0.062,36,102.0
1835,F#2,124.083,0.062,36,102.0
1836,B-4,124.083,0.062,36,102.0
1837,G1,124.094,99/500,88,102.0
1838,A3,124.094,99/500,88,102.0
1839,B-4,124.333,0.062,37,102.0
1840,F#2,124.333,0.062,37,102.0
1841,C4,124.354,0.188,66,102.0
1842,E-3,124.552,0.062,55,102.0
1843,F#3,124.552,0.062,55,102.0
1844,B-4,124.552,0.062,55,102.0
1845,F#2,124.552,0.062,55,102.0
1846,A1,124.583,271/1000,106,102.0
1847,F#2,124.833,0.062,36,102.0
1848,B-4,124.833,0.062,36,102.0
1849,E3,124.844,229/1000,69,102.0
1850,F#2,125.073,0.062,44,102.0
1851,B-4,125.073,0.062,44,102.0
1852,G1,125.083,229/1000,88,102.0
1853,A3,125.083,229/1000,88,102.0
1854,F#2,125.333,0.062,46,102.0
1855,B-4,125.333,0.062,46,102.0
1856,C4,125.354,177/1000,71,102.0
1857,F#2,125.448,0.062,53,102.0
1858,A2,125.562,0.031,74,102.0
1859,E-3,125.573,21/1000,65,102.0
1860,F#2,125.573,21/1000,65,102.0
1861,B-4,125.573,21/1000,65,102.0
1862,B1,125.573,21/1000,65,102.0
1863,A1,125.583,1/100,109,102.0
1864,A2,127.552,151/100,74,102.0
1865,A1,127.552,0.219,109,102.0
1866,E-3,127.552,21/500,65,102.0
1867,F#2,127.552,21/500,65,102.0
1868,B-4,127.552,21/500,65,102.0
1869,B1,127.552,21/500,65,102.0
1870,G1,127.781,0.312,105,102.0
1871,B-4,127.792,0.062,28,102.0
1872,F#2,127.792,0.062,28,102.0
1873,E3,127.812,167/1000,67,102.0
1874,F#2,128.042,0.062,42,102.0
1875,B-4,128.042,0.062,42,102.0
1876,F#2,128.281,0.062,35,102.0
1877,B-4,128.281,0.062,35,102.0
1878,C4,128.312,0.188,72,102.0
1879,F#2,128.531,0.062,62,102.0
1880,C#2,128.531,0.062,62,102.0
1881,E-3,128.531,0.062,62,102.0
1882,B-4,128.531,0.062,62,102.0
1883,F#2,128.781,0.062,59,102.0
1884,G1,128.781,0.062,59,102.0
1885,B-4,128.781,0.062,59,102.0
1886,E3,128.812,6/25,68,102.0
1887,B-2,129.031,0.062,44,102.0
1888,B-4,129.031,0.062,44,102.0
1889,G1,129.042,0.062,72,102.0
1890,B-4,129.042,0.062,72,102.0
1891,B3,129.062,0.219,70,102.0
1892,A2,129.073,49/100,62,102.0
1893,B-2,129.292,0.062,39,102.0
1894,B-4,129.292,0.062,39,102.0
1895,G1,129.292,0.062,70,102.0
1896,B-4,129.292,0.062,70,102.0
1897,C4,129.302,99/500,71,102.0
1898,E-3,129.521,0.062,52,102.0
1899,F#3,129.521,0.062,52,102.0
1900,B-4,129.521,0.062,52,102.0
1901,F#2,129.521,0.062,52,102.0
1902,F#3,129.531,979/500,68,102.0
1903,B3,129.531,979/500,68,102.0
1904,D4,129.531,979/500,68,102.0
1905,G1,129.552,229/1000,90,102.0
1906,D4,129.552,229/1000,90,102.0
1907,A2,129.594,979/500,53,102.0
1908,B-4,129.792,0.062,34,102.0
1909,C4,129.812,0.188,72,102.0
1910,B-2,130.042,0.062,42,102.0
1911,B-4,130.042,0.062,42,102.0
1912,G1,130.052,6/25,111,102.0
1913,B-2,130.292,0.062,42,102.0
1914,B-4,130.292,0.062,42,102.0
1915,F#2,130.542,0.062,45,102.0
1916,E-3,130.542,0.062,45,102.0
1917,B-4,130.542,0.062,45,102.0
1918,A1,130.552,6/25,110,102.0
1919,A4,130.781,73/250,78,102.0
1920,A3,130.781,73/250,78,102.0
1921,E3,130.781,73/250,78,102.0
1922,B-4,130.802,0.062,32,102.0
1923,B-2,131.031,0.062,43,102.0
1924,B-4,131.031,0.062,43,102.0
1925,F#5,131.042,0.5,82,102.0
1926,A3,131.042,0.5,82,102.0
1927,G1,131.052,13/50,90,102.0
1928,A3,131.052,13/50,90,102.0
1929,B-4,131.292,0.062,70,102.0
1930,B1,131.292,0.062,70,102.0
1931,B3,131.302,0.188,71,102.0
1932,A4,131.51,21/500,80,102.0
1933,G3,131.531,21/1000,64,102.0
1934,E4,131.531,21/1000,64,102.0
1935,A3,131.531,21/1000,64,102.0
1936,E-3,131.531,21/1000,63,102.0
1937,B-4,131.531,21/1000,63,102.0
1938,F#2,131.531,21/1000,63,102.0
1939,B1,131.531,21/1000,63,102.0
1940,A1,131.542,1/100,108,102.0
1941,C4,131.542,1/100,69,102.0
1942,C4,131.542,1/100,84,102.0
1943,G5,131.542,1/100,84,102.0
1944,C4,131.552,73/500,72,102.0
1945,A2,131.552,21/500,53,102.0
1946,A4,131.552,1.562,80,102.0
1947,A1,131.552,6/25,108,102.0
1948,C4,131.552,1487/250,69,102.0
1949,G3,131.552,6021/1000,64,102.0
1950,E4,131.552,6021/1000,64,102.0
1951,A3,131.552,6021/1000,64,102.0
1952,E-3,131.552,21/500,63,102.0
1953,B-4,131.552,21/500,63,102.0
1954,F#2,131.552,21/500,63,102.0
1955,B1,131.552,21/500,63,102.0
1956,C4,131.552,0.656,84,102.0
1957,G5,131.552,0.656,84,102.0
1958,G1,131.792,0.219,90,102.0
1959,C4,131.792,0.219,90,102.0
1960,F#2,131.802,0.062,37,102.0
1961,B-4,131.802,0.062,37,102.0
1962,F#2,132.042,0.062,38,102.0
1963,B-4,132.042,0.062,38,102.0
1964,B3,132.062,0.188,68,102.0
1965,B3,132.229,0.688,82,102.0
1966,F#5,132.229,0.688,82,102.0
1967,F#2,132.281,0.062,34,102.0
1968,B-4,132.281,0.062,34,102.0
1969,C4,132.312,26/125,67,102.0
1970,E-3,132.531,0.062,62,102.0
1971,C#2,132.531,0.062,62,102.0
1972,F#2,132.531,0.062,62,102.0
1973,B-4,132.531,0.062,62,102.0
1974,G1,132.792,0.062,57,102.0
1975,E3,132.792,0.062,57,102.0
1976,F#2,132.792,0.062,57,102.0
1977,B-4,132.792,0.062,57,102.0
1978,A3,132.896,123/200,58,102.0
1979,E5,132.979,73/250,94,102.0
1980,D5,133.021,2.531,83,102.0
1981,F#5,133.021,2.531,83,102.0
1982,F#2,133.031,0.062,36,102.0
1983,B-4,133.031,0.062,36,102.0
1984,G1,133.042,27/200,107,102.0
1985,A3,133.042,26/125,69,102.0
1986,D5,133.271,177/1000,84,102.0
1987,B3,133.271,177/1000,84,102.0
1988,F#2,133.281,0.062,36,102.0
1989,B-4,133.281,0.062,36,102.0
1990,G1,133.281,177/1000,87,102.0
1991,B3,133.281,177/1000,87,102.0
1992,G3,133.51,0.719,61,102.0
1993,F#2,133.531,0.062,53,102.0
1994,E-3,133.531,0.062,53,102.0
1995,F#3,133.531,0.062,53,102.0
1996,B-4,133.531,0.062,53,102.0
1997,G1,133.542,0.219,88,102.0
1998,C4,133.542,0.219,88,102.0
1999,D5,133.594,667/1000,105,102.0
2000,F#2,133.781,0.062,29,102.0
2001,B-4,133.781,0.062,29,102.0
2002,F#2,134.031,0.062,40,102.0
2003,B-4,134.031,0.062,40,102.0
2004,G1,134.052,26/125,88,102.0
2005,A3,134.052,26/125,88,102.0
2006,A3,134.229,0.719,57,102.0
2007,F#2,134.281,0.062,34,102.0
2008,B-4,134.281,0.062,34,102.0
2009,D5,134.292,667/1000,102,102.0
2010,C4,134.312,0.219,70,102.0
2011,E-3,134.531,0.062,47,102.0
2012,F#2,134.531,0.062,47,102.0
2013,B-4,134.531,0.062,47,102.0
2014,A1,134.552,13/50,110,102.0
2015,F#2,134.792,0.062,26,102.0
2016,B-4,134.792,0.062,26,102.0
2017,E3,134.812,0.188,68,102.0
2018,C4,134.948,151/250,78,102.0
2019,E5,134.948,151/250,78,102.0
2020,F#2,135.042,0.062,43,102.0
2021,B-4,135.042,0.062,43,102.0
2022,G1,135.042,99/500,88,102.0
2023,A3,135.042,99/500,88,102.0
2024,C4,135.292,177/1000,68,102.0
2025,F#2,135.292,0.062,36,102.0
2026,B-4,135.292,0.062,36,102.0
2027,E-3,135.531,21/1000,64,102.0
2028,F#2,135.531,21/1000,64,102.0
2029,B-4,135.531,21/1000,64,102.0
2030,B1,135.531,21/1000,64,102.0
2031,A1,135.542,1/100,111,102.0
2032,A1,137.573,6/25,111,102.0
2033,C4,137.573,0.031,78,102.0
2034,E5,137.573,0.031,78,102.0
2035,E-3,137.573,21/500,64,102.0
2036,F#2,137.573,21/500,64,102.0
2037,B-4,137.573,21/500,64,102.0
2038,B1,137.573,21/500,64,102.0
2039,D5,137.573,1.0,83,102.0
2040,F#5,137.573,1.0,83,102.0
2041,B3,137.583,199/100,59,102.0
2042,D5,137.646,1.594,101,102.0
2043,G1,137.802,0.281,107,102.0
2044,E3,137.812,0.188,67,102.0
2045,F#2,137.812,0.062,34,102.0
2046,B-4,137.812,0.062,34,102.0
2047,F#2,138.062,0.062,41,102.0
2048,B-4,138.062,0.062,41,102.0
2049,F#2,138.312,0.062,28,102.0
2050,B-4,138.312,0.062,28,102.0
2051,C4,138.323,0.188,72,102.0
2052,E-3,138.552,0.062,64,102.0
2053,B-4,138.552,0.062,64,102.0
2054,C#2,138.552,0.062,64,102.0
2055,F#2,138.552,0.062,64,102.0
2056,F#3,138.552,0.062,64,102.0
2057,F#2,138.802,0.062,58,102.0
2058,G1,138.802,0.062,58,102.0
2059,B-4,138.802,0.062,58,102.0
2060,E3,138.812,229/1000,68,102.0
2061,G1,139.052,0.062,64,102.0
2062,F#2,139.052,0.062,64,102.0
2063,B3,139.052,0.062,64,102.0
2064,B-4,139.052,0.062,64,102.0
2065,G1,139.302,0.062,63,102.0
2066,F#2,139.302,0.062,63,102.0
2067,C4,139.302,0.062,63,102.0
2068,B-4,139.302,0.062,63,102.0
2069,A2,139.542,2.031,81,102.0
2070,F#2,139.562,0.062,50,102.0
2071,E-3,139.562,0.062,50,102.0
2072,B-4,139.562,0.062,50,102.0
2073,G1,139.562,167/1000,87,102.0
2074,D4,139.562,167/1000,87,102.0
2075,F#3,139.562,1.938,69,102.0
2076,D4,139.562,1.938,69,102.0
2077,B3,139.562,1.938,69,102.0
2078,C4,139.812,73/500,70,102.0
2079,F#2,139.812,0.062,32,102.0
2080,B-4,139.812,0.062,32,102.0
2081,G1,140.062,0.25,108,102.0
2082,F#2,140.062,0.062,45,102.0
2083,B-4,140.062,0.062,45,102.0
2084,F#2,140.312,0.062,39,102.0
2085,B-4,140.312,0.062,39,102.0
2086,A1,140.552,323/1000,109,102.0
2087,F#2,140.562,0.062,49,102.0
2088,E-3,140.562,0.062,49,102.0
2089,B-4,140.562,0.062,49,102.0
2090,B-4,140.823,0.062,52,102.0
2091,F#2,140.823,0.062,52,102.0
2092,E3,140.833,0.25,69,102.0
2093,G1,141.052,0.25,92,102.0
2094,A3,141.052,0.25,92,102.0
2095,B-2,141.062,0.062,50,102.0
2096,B-4,141.062,0.062,50,102.0
2097,A4,141.26,0.25,108,102.0
2098,B1,141.312,0.062,64,102.0
2099,B-4,141.312,0.062,64,102.0
2100,B3,141.333,26/125,68,102.0
2101,G3,141.552,21/1000,66,102.0
2102,C4,141.552,21/1000,66,102.0
2103,A3,141.552,21/1000,66,102.0
2104,E4,141.552,21/1000,63,102.0
2105,A3,141.552,21/1000,63,102.0
2106,B1,141.562,1/100,60,102.0
2107,E-3,141.562,1/100,60,102.0
2108,B-4,141.562,1/100,60,102.0
2109,F#2,141.562,1/100,60,102.0
2110,E5,141.573,0.656,102,102.0
2111,A2,141.573,6.0,81,102.0
2112,G3,141.573,6.0,66,102.0
2113,C4,141.573,6.0,66,102.0
2114,A3,141.573,6.0,66,102.0
2115,E4,141.573,6.0,63,102.0
2116,A3,141.573,6.0,63,102.0
2117,B1,141.573,13/250,60,102.0
2118,E-3,141.573,13/250,60,102.0
2119,B-4,141.573,13/250,60,102.0
2120,F#2,141.573,13/250,60,102.0
2121,A1,141.583,0.25,108,102.0
2122,C4,141.583,0.125,70,102.0
2123,F#2,141.812,0.062,40,102.0
2124,B-4,141.812,0.062,40,102.0
2125,G1,141.823,271/1000,105,102.0
2126,C4,141.823,99/500,70,102.0
2127,F#2,142.062,0.062,40,102.0
2128,B-4,142.062,0.062,40,102.0
2129,B3,142.083,99/500,68,102.0
2130,D5,142.229,0.781,104,102.0
2131,F#2,142.302,0.062,40,102.0
2132,B-4,142.302,0.062,40,102.0
2133,C4,142.323,0.125,66,102.0
2134,E-3,142.542,0.062,65,102.0
2135,C#2,142.542,0.062,65,102.0
2136,F#2,142.542,0.062,65,102.0
2137,F#3,142.542,0.062,65,102.0
2138,B-4,142.542,0.062,65,102.0
2139,F#2,142.812,0.062,60,102.0
2140,G1,142.812,0.062,60,102.0
2141,B-4,142.812,0.062,60,102.0
2142,E3,142.823,6/25,68,102.0
2143,C5,143.021,271/500,101,102.0
2144,G1,143.052,0.062,63,102.0
2145,F#2,143.052,0.062,63,102.0
2146,B-4,143.052,0.062,63,102.0
2147,A3,143.073,0.25,69,102.0
2148,G1,143.302,0.062,60,102.0
2149,F#2,143.302,0.062,60,102.0
2150,B-4,143.302,0.062,60,102.0
2151,B3,143.312,0.188,68,102.0
2152,G1,143.552,0.219,90,102.0
2153,C4,143.552,0.219,90,102.0
2154,E-3,143.552,0.062,48,102.0
2155,F#2,143.552,0.062,48,102.0
2156,B-4,143.552,0.062,48,102.0
2157,E5,143.562,729/1000,102,102.0
2158,F#2,143.802,0.062,34,102.0
2159,B-4,143.802,0.062,34,102.0
2160,F#2,144.062,0.062,42,102.0
2161,B-4,144.062,0.062,42,102.0
2162,G1,144.062,0.188,86,102.0
2163,A3,144.062,0.188,86,102.0
2164,D5,144.292,667/1000,103,102.0
2165,F#2,144.302,0.062,34,102.0
2166,B-4,144.302,0.062,34,102.0
2167,C4,144.323,99/500,70,102.0
2168,E-3,144.552,0.062,46,102.0
2169,F#2,144.552,0.062,46,102.0
2170,B-4,144.552,0.062,46,102.0
2171,A1,144.562,151/500,111,102.0
2172,F#2,144.812,0.062,32,102.0
2173,B-4,144.812,0.062,32,102.0
2174,E3,144.833,177/1000,68,102.0
2175,D5,145.052,521/1000,102,102.0
2176,F#2,145.062,0.062,42,102.0
2177,B-4,145.062,0.062,42,102.0
2178,G1,145.073,0.219,88,102.0
2179,A3,145.073,0.219,88,102.0
2180,F#2,145.312,0.062,40,102.0
2181,B-4,145.312,0.062,40,102.0
2182,C4,145.333,167/1000,70,102.0
2183,E-3,145.542,0.031,63,102.0
2184,B1,145.542,0.031,63,102.0
2185,F#2,145.542,0.031,63,102.0
2186,B-4,145.542,0.031,63,102.0
2187,F#3,145.542,0.031,63,102.0
2188,A1,145.562,1/100,110,102.0
2189,D5,147.573,0.062,102,102.0
2190,A1,147.573,229/1000,110,102.0
2191,E-3,147.573,0.031,63,102.0
2192,B1,147.573,0.031,63,102.0
2193,F#2,147.573,0.031,63,102.0
2194,B-4,147.573,0.031,63,102.0
2195,F#3,147.573,0.031,63,102.0
2196,A4,147.646,651/500,96,102.0
2197,G1,147.802,73/250,107,102.0
2198,F#2,147.802,0.062,36,102.0
2199,B-4,147.802,0.062,36,102.0
2200,E3,147.833,0.156,68,102.0
2201,B-4,148.052,0.062,40,102.0
2202,F#2,148.052,0.062,40,102.0
2203,B-4,148.302,0.062,36,102.0
2204,F#2,148.302,0.062,36,102.0
2205,C4,148.312,177/1000,72,102.0
2206,E-3,148.552,0.062,62,102.0
2207,C#2,148.552,0.062,62,102.0
2208,F#2,148.552,0.062,62,102.0
2209,B-4,148.552,0.062,62,102.0
2210,F#2,148.802,0.062,36,102.0
2211,B-4,148.802,0.062,36,102.0
2212,G1,148.812,27/200,105,102.0
2213,E3,148.823,0.281,68,102.0
2214,F#2,149.052,0.062,42,102.0
2215,B-4,149.052,0.062,42,102.0
2216,G1,149.062,0.125,86,102.0
2217,B3,149.062,0.125,86,102.0
2218,F#2,149.302,0.062,62,102.0
2219,B-4,149.302,0.062,62,102.0
2220,C#2,149.302,0.062,62,102.0
2221,G1,149.312,0.188,90,102.0
2222,C4,149.312,0.188,90,102.0
2223,E-3,149.542,0.062,47,102.0
2224,F#2,149.542,0.062,47,102.0
2225,B-4,149.542,0.062,47,102.0
2226,F#3,149.552,487/250,65,102.0
2227,G1,149.562,73/250,110,102.0
2228,D4,149.562,201/100,70,102.0
2229,B3,149.562,201/100,70,102.0
2230,D4,149.573,177/1000,72,102.0
2231,F#2,149.802,0.062,36,102.0
2232,B-4,149.802,0.062,36,102.0
2233,C4,149.823,167/1000,72,102.0
2234,A4,149.979,51/100,82,102.0
2235,A3,149.979,51/100,82,102.0
2236,F#2,150.062,0.062,68,102.0
2237,B-4,150.062,0.062,68,102.0
2238,C#2,150.062,0.062,68,102.0
2239,G1,150.083,6/25,108,102.0
2240,F#2,150.302,0.062,29,102.0
2241,B-4,150.302,0.062,29,102.0
2242,C4,150.49,0.5,65,102.0
2243,C5,150.542,271/500,107,102.0
2244,E-3,150.552,0.062,48,102.0
2245,F#2,150.552,0.062,48,102.0
2246,B-4,150.552,0.062,48,102.0
2247,A1,150.562,13/50,108,102.0
2248,B-4,150.823,0.062,32,102.0
2249,D4,150.99,573/1000,62,102.0
2250,G1,151.052,0.219,108,102.0
2251,B-2,151.062,0.062,48,102.0
2252,B-4,151.062,0.062,48,102.0
2253,D5,151.083,229/500,104,102.0
2254,B-4,151.312,0.062,36,102.0
2255,D2,151.562,1/100,111,102.0
2256,E4,151.562,1/100,86,102.0
2257,E5,151.562,1/100,86,102.0
2258,B1,151.562,1/100,66,102.0
2259,E-3,151.562,1/100,66,102.0
2260,F#2,151.562,1/100,66,102.0
2261,F#3,151.562,1/100,66,102.0
2262,B-4,151.562,1/100,66,102.0
2263,D2,151.573,99/250,111,102.0
2264,A3,151.573,4.0,70,102.0
2265,F#3,151.573,4.0,70,102.0
2266,D3,151.573,4.0,70,102.0
2267,E4,151.573,0.875,86,102.0
2268,E5,151.573,0.875,86,102.0
2269,B1,151.573,13/250,66,102.0
2270,E-3,151.573,13/250,66,102.0
2271,F#2,151.573,13/250,66,102.0
2272,F#3,151.573,13/250,66,102.0
2273,B-4,151.573,13/250,66,102.0
2274,D4,151.573,0.062,70,102.0
2275,B3,151.573,0.062,70,102.0
2276,F#2,151.812,0.062,38,102.0
2277,B-4,151.812,0.062,38,102.0
2278,F#2,152.062,0.062,42,102.0
2279,B-4,152.062,0.062,42,102.0
2280,F#2,152.302,0.062,38,102.0
2281,B-4,152.302,0.062,38,102.0
2282,D5,152.521,0.938,102,102.0
2283,D4,152.521,1.031,77,102.0
2284,E-3,152.542,0.062,63,102.0
2285,F#2,152.542,0.062,63,102.0
2286,C#2,152.542,0.062,63,102.0
2287,B-4,152.542,0.062,63,102.0
2288,D2,152.562,417/1000,111,102.0
2289,F#2,152.802,0.062,34,102.0
2290,B-4,152.802,0.062,34,102.0
2291,F#2,153.052,0.062,40,102.0
2292,B-4,153.052,0.062,40,102.0
2293,F#2,153.302,0.062,34,102.0
2294,B-4,153.302,0.062,34,102.0
2295,A4,153.479,1073/1000,101,102.0
2296,E-3,153.542,0.062,49,102.0
2297,F#2,153.542,0.062,49,102.0
2298,B-4,153.542,0.062,49,102.0
2299,A3,153.552,0.906,64,102.0
2300,D2,153.573,417/1000,112,102.0
2301,F#2,153.802,0.062,31,102.0
2302,B-4,153.802,0.062,31,102.0
2303,F#2,154.052,0.062,40,102.0
2304,B-4,154.052,0.062,40,102.0
2305,F#2,154.312,0.062,32,102.0
2306,B-4,154.312,0.062,32,102.0
2307,D4,154.458,263/250,72,102.0
2308,D5,154.552,0.906,102,102.0
2309,F#2,154.562,0.062,57,102.0
2310,F#3,154.562,0.062,57,102.0
2311,E-3,154.562,0.062,57,102.0
2312,B-4,154.562,0.062,57,102.0
2313,D2,154.583,99/250,116,102.0
2314,F#2,154.812,0.062,34,102.0
2315,B-4,154.812,0.062,34,102.0
2316,F#2,155.062,0.062,47,102.0
2317,B-4,155.062,0.062,47,102.0
2318,B1,155.312,0.062,58,102.0
2319,F#2,155.312,0.062,58,102.0
2320,B-4,155.312,0.062,58,102.0
2321,B3,155.521,13/250,63,102.0
2322,E2,155.562,1/100,117,102.0
2323,B1,155.562,1/100,62,102.0
2324,F#2,155.562,1/100,62,102.0
2325,B-4,155.562,1/100,62,102.0
2326,E-3,155.562,1/100,62,102.0
2327,E3,155.562,1/100,70,102.0
2328,G#3,155.562,1/100,70,102.0
2329,B3,155.562,1/100,70,102.0
2330,B3,155.625,2.0,63,102.0
2331,E2,155.625,0.531,117,102.0
2332,A3,155.625,13/250,70,102.0
2333,F#3,155.625,13/250,70,102.0
2334,D3,155.625,13/250,70,102.0
2335,B1,155.625,13/250,62,102.0
2336,F#2,155.625,13/250,62,102.0
2337,B-4,155.625,13/250,62,102.0
2338,E-3,155.625,13/250,62,102.0
2339,E3,155.625,399/100,70,102.0
2340,G#3,155.625,399/100,70,102.0
2341,B3,155.625,399/100,70,102.0
2342,B4,155.646,479/500,102,102.0
2343,F#2,155.865,0.062,36,102.0
2344,B-4,155.865,0.062,36,102.0
2345,F#2,156.115,0.062,43,102.0
2346,B-4,156.115,0.062,43,102.0
2347,F#2,156.365,0.062,40,102.0
2348,B-4,156.365,0.062,40,102.0
2349,D5,156.604,1.062,101,102.0
2350,E2,156.615,0.5,110,102.0
2351,C#2,156.615,0.062,64,102.0
2352,E-3,156.615,0.062,64,102.0
2353,F#2,156.615,0.062,64,102.0
2354,B-4,156.615,0.062,64,102.0
2355,F#2,156.875,0.062,38,102.0
2356,B-4,156.875,0.062,38,102.0
2357,F#2,157.135,0.062,41,102.0
2358,B-4,157.135,0.062,41,102.0
2359,C#2,157.365,0.062,60,102.0
2360,F#2,157.365,0.062,60,102.0
2361,B-4,157.365,0.062,60,102.0
2362,E-3,157.594,0.062,47,102.0
2363,F#2,157.594,0.062,47,102.0
2364,B-4,157.594,0.062,47,102.0
2365,E2,157.615,0.531,101,102.0
2366,B4,157.677,917/1000,98,102.0
2367,F#2,157.865,0.062,35,102.0
2368,B-4,157.865,0.062,35,102.0
2369,F#2,158.115,0.062,44,102.0
2370,B-4,158.115,0.062,44,102.0
2371,E5,158.135,729/1000,88,102.0
2372,F#2,158.354,0.062,40,102.0
2373,B-4,158.354,0.062,40,102.0
2374,F#2,158.615,0.062,54,102.0
2375,E-3,158.615,0.062,54,102.0
2376,B-4,158.615,0.062,54,102.0
2377,F#3,158.615,0.062,54,102.0
2378,E4,158.625,927/1000,88,102.0
2379,E2,158.625,521/1000,108,102.0
2380,D5,158.812,0.688,85,102.0
2381,F#2,158.865,0.062,44,102.0
2382,B-4,158.865,0.062,44,102.0
2383,B-2,159.115,0.062,50,102.0
2384,B-4,159.115,0.062,50,102.0
2385,B-4,159.385,0.062,40,102.0
2386,D5,159.562,0.062,89,102.0
2387,F2,159.562,0.062,89,102.0
2388,B1,159.615,1/100,62,102.0
2389,E-3,159.615,1/100,62,102.0
2390,F#2,159.615,1/100,62,102.0
2391,B-4,159.615,1/100,62,102.0
2392,C5,159.625,917/1000,102,102.0
2393,D5,159.625,49/100,89,102.0
2394,F2,159.625,49/100,89,102.0
2395,B1,159.625,13/250,62,102.0
2396,E-3,159.625,13/250,62,102.0
2397,F#2,159.625,13/250,62,102.0
2398,B-4,159.625,13/250,62,102.0
2399,A3,159.646,987/250,70,102.0
2400,C4,159.646,987/250,70,102.0
2401,G3,159.646,987/250,70,102.0
2402,C4,159.646,987/250,70,102.0
2403,F#2,159.865,0.062,32,102.0
2404,B-4,159.865,0.062,32,102.0
2405,F#2,160.115,0.062,41,102.0
2406,B-4,160.115,0.062,41,102.0
2407,C5,160.208,1521/1000,78,102.0
2408,F#2,160.365,0.062,42,102.0
2409,B-4,160.365,0.062,42,102.0
2410,E-3,160.604,0.062,61,102.0
2411,C#2,160.604,0.062,61,102.0
2412,F#2,160.604,0.062,61,102.0
2413,B-4,160.604,0.062,61,102.0
2414,C5,160.625,0.969,104,102.0
2415,F2,160.625,69/125,111,102.0
2416,F#2,160.875,0.062,34,102.0
2417,B-4,160.875,0.062,34,102.0
2418,F#2,161.135,0.062,43,102.0
2419,B-4,161.135,0.062,43,102.0
2420,F#2,161.365,0.062,40,102.0
2421,B-4,161.365,0.062,40,102.0
2422,E-3,161.604,0.062,54,102.0
2423,F#2,161.604,0.062,54,102.0
2424,F#3,161.604,0.062,54,102.0
2425,B-4,161.604,0.062,54,102.0
2426,B4,161.625,1.031,103,102.0
2427,F2,161.635,271/500,111,102.0
2428,F#2,161.865,0.062,32,102.0
2429,B-4,161.865,0.062,32,102.0
2430,B4,162.073,177/250,86,102.0
2431,F#2,162.115,0.062,44,102.0
2432,B-4,162.115,0.062,44,102.0
2433,F#2,162.365,0.062,40,102.0
2434,B-4,162.365,0.062,40,102.0
2435,E-3,162.604,0.062,46,102.0
2436,F#2,162.604,0.062,46,102.0
2437,B-4,162.604,0.062,46,102.0
2438,F2,162.635,271/500,114,102.0
2439,A4,162.656,0.969,99,102.0
2440,C5,162.812,729/1000,72,102.0
2441,F#2,162.885,0.062,44,102.0
2442,B-4,162.885,0.062,44,102.0
2443,B-2,163.135,0.062,44,102.0
2444,B-4,163.135,0.062,44,102.0
2445,B1,163.385,0.062,64,102.0
2446,B-4,163.385,0.062,64,102.0
2447,A4,163.583,21/500,70,102.0
2448,E-3,163.615,1/100,63,102.0
2449,B1,163.615,1/100,63,102.0
2450,F#2,163.615,1/100,63,102.0
2451,B-4,163.615,1/100,63,102.0
2452,E5,163.625,1.0,104,102.0
2453,F#2,163.625,69/125,110,102.0
2454,A4,163.625,1.938,70,102.0
2455,E-3,163.625,13/250,63,102.0
2456,B1,163.625,13/250,63,102.0
2457,F#2,163.625,13/250,63,102.0
2458,B-4,163.625,13/250,63,102.0
2459,D4,163.635,399/100,74,102.0
2460,A3,163.635,3917/1000,66,102.0
2461,F#3,163.635,3917/1000,66,102.0
2462,F#2,163.885,0.062,38,102.0
2463,B-4,163.885,0.062,38,102.0
2464,B-4,164.125,0.062,43,102.0
2465,F#2,164.125,0.062,43,102.0
2466,F#2,164.375,0.062,42,102.0
2467,B-4,164.375,0.062,42,102.0
2468,F#2,164.615,0.5,107,102.0
2469,D5,164.625,99/100,105,102.0
2470,C#2,164.635,0.062,61,102.0
2471,F#2,164.635,0.062,61,102.0
2472,E-3,164.635,0.062,61,102.0
2473,B-4,164.635,0.062,61,102.0
2474,F#2,164.875,0.062,37,102.0
2475,B-4,164.875,0.062,37,102.0
2476,F#2,165.125,0.062,42,102.0
2477,B-4,165.125,0.062,42,102.0
2478,F#2,165.365,0.062,62,102.0
2479,B-4,165.365,0.062,62,102.0
2480,C#2,165.365,0.062,62,102.0
2481,F#3,165.604,1.969,72,102.0
2482,A3,165.604,1.969,72,102.0
2483,C4,165.604,1.969,72,102.0
2484,A4,165.604,1.969,72,102.0
2485,F#2,165.615,0.062,55,102.0
2486,F#3,165.615,0.062,55,102.0
2487,E-3,165.615,0.062,55,102.0
2488,B-4,165.615,0.062,55,102.0
2489,F#2,165.625,0.5,109,102.0
2490,F#2,165.865,0.062,36,102.0
2491,B-4,165.865,0.062,36,102.0
2492,F#2,166.125,0.062,46,102.0
2493,B-4,166.125,0.062,46,102.0
2494,F#2,166.365,0.062,35,102.0
2495,B-4,166.365,0.062,35,102.0
2496,E-3,166.594,0.062,49,102.0
2497,F#2,166.594,0.062,49,102.0
2498,B-4,166.594,0.062,49,102.0
2499,F#2,166.615,0.5,110,102.0
2500,F#2,166.854,0.062,43,102.0
2501,B-4,166.854,0.062,43,102.0
2502,B-2,167.104,0.062,50,102.0
2503,B-4,167.104,0.062,50,102.0
2504,B-4,167.365,0.062,49,102.0
2505,B4,167.594,0.031,105,102.0
2506,G2,167.594,0.031,105,102.0
2507,C#3,167.594,0.031,70,102.0
2508,E-3,167.594,0.031,70,102.0
2509,B1,167.594,0.031,70,102.0
2510,B-4,167.594,0.031,70,102.0
2511,C#2,167.594,0.031,70,102.0
2512,G3,167.594,0.031,68,102.0
2513,B3,167.594,0.031,68,102.0
2514,G3,167.604,21/1000,64,102.0
2515,B3,167.604,21/1000,64,102.0
2516,D4,167.625,4.0,74,102.0
2517,B4,167.625,3.719,105,102.0
2518,G2,167.625,3.719,105,102.0
2519,C#3,167.625,0.031,70,102.0
2520,E-3,167.625,0.031,70,102.0
2521,B1,167.625,0.031,70,102.0
2522,B-4,167.625,0.031,70,102.0
2523,C#2,167.625,0.031,70,102.0
2524,G3,167.625,4.0,68,102.0
2525,B3,167.625,4.0,68,102.0
2526,G3,167.625,4.0,64,102.0
2527,B3,167.625,4.0,64,102.0
2528,B-4,168.135,0.062,33,102.0
2529,E-3,168.604,0.062,49,102.0
2530,F#3,168.604,0.062,49,102.0
2531,B-4,168.604,0.062,49,102.0
2532,B-4,169.146,0.062,23,102.0
2533,E-3,169.625,0.062,38,102.0
2534,B-4,169.625,0.062,38,102.0
2535,B-4,170.146,0.062,30,102.0
2536,E-3,170.594,0.062,42,102.0
2537,B-4,170.594,0.062,42,102.0
2538,B-4,171.135,0.062,29,102.0
2539,G1,171.365,0.125,105,102.0
2540,G1,171.625,3.75,107,102.0
2541,D4,171.625,1901/500,74,102.0
2542,E-3,171.625,0.062,43,102.0
2543,B-4,171.625,0.062,43,102.0
2544,G3,171.625,94/25,68,102.0
2545,B3,171.625,94/25,68,102.0
2546,G3,171.625,479/500,64,102.0
2547,B3,171.625,479/500,64,102.0
2548,B-4,172.115,0.062,34,102.0
2549,E-3,172.604,0.062,51,102.0
2550,F#3,172.604,0.062,51,102.0
2551,B-4,172.604,0.062,51,102.0
2552,B-4,173.115,0.062,34,102.0
2553,E5,173.604,2021/1000,77,102.0
2554,E-3,173.615,0.062,43,102.0
2555,B-4,173.615,0.062,43,102.0
2556,B-4,174.125,0.062,32,102.0
2557,E3,174.167,0.531,89,102.0
2558,E-3,174.615,0.062,41,102.0
2559,B-4,174.615,0.062,41,102.0
2560,F3,174.698,583/1000,89,102.0
2561,B-4,175.135,0.062,37,102.0
2562,A3,175.198,427/1000,77,102.0
2563,G2,175.365,13/50,112,102.0
2564,C#3,175.594,0.031,63,102.0
2565,F#3,175.594,0.031,63,102.0
2566,E-3,175.594,0.031,63,102.0
2567,B1,175.594,0.031,63,102.0
2568,B-4,175.594,0.031,63,102.0
2569,F3,175.604,21/1000,62,102.0
2570,A3,175.604,21/1000,62,102.0
2571,G4,175.615,1/100,82,102.0
2572,E5,175.615,1/100,82,102.0
2573,D2,175.625,3667/1000,109,102.0
2574,E5,175.625,5.781,77,102.0
2575,G2,175.625,21/1000,112,102.0
2576,A3,175.625,177/1000,77,102.0
2577,C#3,175.625,0.031,63,102.0
2578,F#3,175.625,0.031,63,102.0
2579,E-3,175.625,0.031,63,102.0
2580,B1,175.625,0.031,63,102.0
2581,B-4,175.625,0.031,63,102.0
2582,F3,175.625,3927/1000,62,102.0
2583,A3,175.625,3927/1000,62,102.0
2584,G4,175.625,0.656,82,102.0
2585,E5,175.625,0.656,82,102.0
2586,C4,175.75,373/200,91,102.0
2587,B-4,176.135,0.062,33,102.0
2588,E5,176.365,0.656,76,102.0
2589,G4,176.365,0.656,76,102.0
2590,C#2,176.615,0.062,62,102.0
2591,F#2,176.615,0.062,62,102.0
2592,E-3,176.615,0.062,62,102.0
2593,B-4,176.615,0.062,62,102.0
2594,G4,177.031,0.562,61,102.0
2595,E5,177.104,0.531,102,102.0
2596,B-4,177.135,0.062,36,102.0
2597,B4,177.594,37/50,81,102.0
2598,G5,177.594,37/50,81,102.0
2599,F#2,177.604,0.062,45,102.0
2600,E-3,177.604,0.062,45,102.0
2601,B-4,177.604,0.062,45,102.0
2602,F#2,177.854,0.062,30,102.0
2603,F#2,178.115,0.062,41,102.0
2604,B-4,178.115,0.062,41,102.0
2605,E4,178.135,0.594,93,102.0
2606,A4,178.312,0.688,60,102.0
2607,F#2,178.365,0.062,47,102.0
2608,F5,178.375,349/500,102,102.0
2609,B-4,178.604,0.062,47,102.0
2610,F#2,178.604,0.062,47,102.0
2611,E-3,178.604,0.062,47,102.0
2612,F4,178.688,0.562,97,102.0
2613,B-4,178.865,0.062,32,102.0
2614,F#2,178.865,0.062,32,102.0
2615,G4,179.0,573/1000,61,102.0
2616,E5,179.073,56/125,101,102.0
2617,B-4,179.115,0.062,40,102.0
2618,F#2,179.115,0.062,40,102.0
2619,C5,179.219,0.406,98,102.0
2620,D2,179.365,13/50,116,102.0
2621,B1,179.385,0.062,60,102.0
2622,F#2,179.385,0.062,60,102.0
2623,B-4,179.385,0.062,60,102.0
2624,G4,179.583,21/500,82,102.0
2625,E5,179.583,21/500,82,102.0
2626,B3,179.594,0.031,64,102.0
2627,G3,179.594,0.031,64,102.0
2628,E2,179.615,1/100,112,102.0
2629,B1,179.615,1/100,63,102.0
2630,E-3,179.615,1/100,63,102.0
2631,F#3,179.615,1/100,63,102.0
2632,B-4,179.615,1/100,63,102.0
2633,F#2,179.615,1/100,63,102.0
2634,C5,181.406,167/1000,98,102.0
2635,E2,181.406,1823/500,112,102.0
2636,G4,181.406,0.719,82,102.0
2637,E5,181.406,0.719,82,102.0
2638,B3,181.406,1979/500,64,102.0
2639,G3,181.406,1979/500,64,102.0
2640,B1,181.406,13/250,63,102.0
2641,E-3,181.406,13/250,63,102.0
2642,F#3,181.406,13/250,63,102.0
2643,B-4,181.406,13/250,63,102.0
2644,F#2,181.406,13/250,63,102.0
2645,B4,181.521,1.562,85,102.0
2646,F#2,181.667,0.062,29,102.0
2647,B-4,181.667,0.062,29,102.0
2648,F#2,181.917,0.062,38,102.0
2649,B-4,181.917,0.062,38,102.0
2650,F4,182.135,0.719,61,102.0
2651,D5,182.167,19/25,101,102.0
2652,F#2,182.167,0.062,30,102.0
2653,B-4,182.167,0.062,30,102.0
2654,E-3,182.385,0.062,63,102.0
2655,C#2,182.385,0.062,63,102.0
2656,F#2,182.385,0.062,63,102.0
2657,B-4,182.385,0.062,63,102.0
2658,F#2,182.667,0.062,28,102.0
2659,B-4,182.667,0.062,28,102.0
2660,E4,182.854,583/1000,57,102.0
2661,F#2,182.917,0.062,35,102.0
2662,B-4,182.917,0.062,35,102.0
2663,C5,182.927,0.531,98,102.0
2664,B-4,183.167,0.062,32,102.0
2665,F#2,183.167,0.062,32,102.0
2666,E-3,183.385,0.062,49,102.0
2667,F#2,183.385,0.062,49,102.0
2668,B-4,183.385,0.062,49,102.0
2669,E5,183.406,2.0,98,102.0
2670,G4,183.438,177/250,82,102.0
2671,E5,183.438,177/250,82,102.0
2672,F#2,183.646,0.062,34,102.0
2673,B-4,183.646,0.062,34,102.0
2674,F#2,183.896,0.062,40,102.0
2675,B-4,183.896,0.062,40,102.0
2676,E3,183.917,0.562,87,102.0
2677,F#2,184.146,0.062,37,102.0
2678,B-4,184.146,0.062,37,102.0
2679,F4,184.167,349/500,80,102.0
2680,D5,184.167,349/500,80,102.0
2681,F#3,184.396,0.062,56,102.0
2682,E-3,184.396,0.062,56,102.0
2683,F#2,184.396,0.062,56,102.0
2684,B-4,184.396,0.062,56,102.0
2685,F3,184.427,69/125,88,102.0
2686,F#2,184.646,0.062,37,102.0
2687,B-4,184.646,0.062,37,102.0
2688,E4,184.833,0.5,76,102.0
2689,C5,184.833,0.5,76,102.0
2690,B-2,184.906,0.062,48,102.0
2691,B-4,184.906,0.062,48,102.0
2692,C4,184.948,229/500,102,102.0
2693,E2,185.146,13/50,109,102.0
2694,B1,185.167,0.062,66,102.0
2695,B-4,185.167,0.062,66,102.0
2696,G4,185.385,21/1000,61,102.0
2697,A3,185.385,21/1000,68,102.0
2698,C4,185.385,21/1000,68,102.0
2699,F2,185.396,1/100,110,102.0
2700,G4,185.406,0.719,61,102.0
2701,E2,185.406,21/1000,109,102.0
2702,C4,185.406,23/200,102,102.0
2703,E5,185.406,773/200,98,102.0
2704,F2,185.406,3.625,110,102.0
2705,E-3,185.406,0.062,62,102.0
2706,B1,185.406,0.062,62,102.0
2707,B-4,185.406,0.062,62,102.0
2708,F#2,185.406,0.062,62,102.0
2709,A3,185.406,3.969,68,102.0
2710,C4,185.406,3.969,68,102.0
2711,E5,185.458,771/1000,102,102.0
2712,A3,185.51,1583/1000,84,102.0
2713,B-4,185.656,0.062,34,102.0
2714,F#2,185.656,0.062,34,102.0
2715,F#2,185.917,0.062,38,102.0
2716,B-4,185.917,0.062,38,102.0
2717,F4,186.125,0.719,57,102.0
2718,F#2,186.146,0.062,36,102.0
2719,B-4,186.146,0.062,36,102.0
2720,D5,186.229,0.625,97,102.0
2721,F#2,186.396,0.062,64,102.0
2722,B-4,186.396,0.062,64,102.0
2723,C#2,186.396,0.062,64,102.0
2724,E-3,186.396,0.062,64,102.0
2725,F#2,186.646,0.062,40,102.0
2726,B-4,186.646,0.062,40,102.0
2727,E4,186.844,0.531,59,102.0
2728,C5,186.854,99/250,98,102.0
2729,F#2,186.896,0.062,42,102.0
2730,B-4,186.896,0.062,42,102.0
2731,F#2,187.146,0.062,37,102.0
2732,B-4,187.146,0.062,37,102.0
2733,E4,187.385,771/1000,82,102.0
2734,C5,187.385,771/1000,82,102.0
2735,F#2,187.396,0.062,49,102.0
2736,E-3,187.396,0.062,49,102.0
2737,B-4,187.396,0.062,49,102.0
2738,F#2,187.635,0.062,63,102.0
2739,C#2,187.635,0.062,63,102.0
2740,B-4,187.635,0.062,63,102.0
2741,F#2,187.885,0.062,39,102.0
2742,B-4,187.885,0.062,39,102.0
2743,E4,187.938,583/1000,100,102.0
2744,F#2,188.135,0.062,36,102.0
2745,B-4,188.135,0.062,36,102.0
2746,D4,188.146,0.688,80,102.0
2747,B4,188.146,0.688,80,102.0
2748,E-3,188.375,0.062,54,102.0
2749,F#2,188.375,0.062,54,102.0
2750,B-4,188.375,0.062,54,102.0
2751,F#3,188.375,0.062,54,102.0
2752,F4,188.469,521/1000,88,102.0
2753,F#2,188.646,0.062,30,102.0
2754,B-4,188.646,0.062,30,102.0
2755,E4,188.812,0.594,61,102.0
2756,C5,188.854,0.438,100,102.0
2757,F#2,188.896,0.062,42,102.0
2758,B-4,188.896,0.062,42,102.0
2759,B4,188.969,0.438,87,102.0
2760,F2,189.146,0.25,111,102.0
2761,F#2,189.146,0.062,36,102.0
2762,B-4,189.146,0.062,36,102.0
2763,G3,189.365,21/500,67,102.0
2764,B3,189.365,21/500,67,102.0
2765,E-3,189.375,0.031,66,102.0
2766,F#2,189.375,0.031,66,102.0
2767,B1,189.375,0.031,66,102.0
2768,B-4,189.375,0.031,66,102.0
2769,D5,189.396,1/100,80,102.0
2770,F4,189.396,1/100,80,102.0
2771,E4,189.406,1/100,61,102.0
2772,B4,189.406,0.125,87,102.0
2773,G3,189.406,4021/1000,67,102.0
2774,B3,189.406,4021/1000,67,102.0
2775,E-3,189.406,0.031,66,102.0
2776,F#2,189.406,0.031,66,102.0
2777,B1,189.406,0.031,66,102.0
2778,B-4,189.406,0.031,66,102.0
2779,D5,189.406,0.719,80,102.0
2780,F4,189.406,0.719,80,102.0
2781,G2,189.417,1849/500,112,102.0
2782,G4,189.479,69/125,84,102.0
2783,F#2,189.646,0.062,40,102.0
2784,B-4,189.646,0.062,40,102.0
2785,F#2,189.896,0.062,38,102.0
2786,B-4,189.896,0.062,38,102.0
2787,B4,189.99,521/500,62,102.0
2788,C5,190.146,177/250,76,102.0
2789,E4,190.146,177/250,76,102.0
2790,F#2,190.146,0.062,36,102.0
2791,B-4,190.146,0.062,36,102.0
2792,B4,190.396,1.938,89,102.0
2793,C#2,190.396,0.062,62,102.0
2794,F#2,190.396,0.062,62,102.0
2795,E-3,190.396,0.062,62,102.0
2796,B-4,190.396,0.062,62,102.0
2797,F#2,190.646,0.062,32,102.0
2798,B-4,190.646,0.062,32,102.0
2799,D4,190.854,0.531,60,102.0
2800,B4,190.875,0.344,100,102.0
2801,F#2,190.896,0.062,40,102.0
2802,B-4,190.896,0.062,40,102.0
2803,F#2,191.146,0.062,37,102.0
2804,B-4,191.146,0.062,37,102.0
2805,F#2,191.385,0.062,54,102.0
2806,F#3,191.385,0.062,54,102.0
2807,E-3,191.385,0.062,54,102.0
2808,B-4,191.385,0.062,54,102.0
2809,D4,191.396,583/1000,80,102.0
2810,B4,191.396,583/1000,80,102.0
2811,F#2,191.635,0.062,37,102.0
2812,B-4,191.635,0.062,37,102.0
2813,F#2,191.896,0.062,43,102.0
2814,B-4,191.896,0.062,43,102.0
2815,E3,191.906,151/250,93,102.0
2816,A4,191.99,1.25,76,102.0
2817,C4,191.99,1.25,76,102.0
2818,F#2,192.135,0.062,35,102.0
2819,B-4,192.135,0.062,35,102.0
2820,C5,192.333,583/1000,85,102.0
2821,F#2,192.385,0.062,49,102.0
2822,B-4,192.385,0.062,49,102.0
2823,E-3,192.385,0.062,49,102.0
2824,F3,192.417,583/1000,87,102.0
2825,B-4,192.635,0.062,42,102.0
2826,F#2,192.635,0.062,42,102.0
2827,B4,192.865,479/1000,83,102.0
2828,B-2,192.896,0.062,47,102.0
2829,B-4,192.896,0.062,47,102.0
2830,A3,192.927,479/1000,91,102.0
2831,D2,193.135,0.188,108,102.0
2832,B1,193.146,0.062,64,102.0
2833,B-4,193.146,0.062,64,102.0
2834,E-3,193.375,0.031,62,102.0
2835,B1,193.375,0.031,62,102.0
2836,B-4,193.375,0.031,62,102.0
2837,F#2,193.375,0.031,62,102.0
2838,D2,193.396,1/100,112,102.0
2839,A4,193.396,1/100,83,102.0
2840,C4,193.396,1/100,66,102.0
2841,A3,193.396,1/100,66,102.0
2842,D2,193.427,901/250,112,102.0
2843,A3,193.427,0.031,91,102.0
2844,A4,193.427,0.719,83,102.0
2845,E-3,193.427,0.031,62,102.0
2846,B1,193.427,0.031,62,102.0
2847,B-4,193.427,0.031,62,102.0
2848,F#2,193.427,0.031,62,102.0
2849,C4,193.427,1979/500,66,102.0
2850,A3,193.427,1979/500,66,102.0
2851,C4,193.458,1.719,88,102.0
2852,B-4,193.667,0.062,36,102.0
2853,F#2,193.667,0.062,36,102.0
2854,F#2,193.917,0.062,40,102.0
2855,B-4,193.917,0.062,40,102.0
2856,B4,194.125,0.281,77,102.0
2857,F#2,194.167,0.062,38,102.0
2858,B-4,194.167,0.062,38,102.0
2859,A4,194.375,2.469,86,102.0
2860,E-3,194.406,0.062,62,102.0
2861,C#2,194.406,0.062,62,102.0
2862,F#2,194.406,0.062,62,102.0
2863,B-4,194.406,0.062,62,102.0
2864,F#2,194.667,0.062,33,102.0
2865,B-4,194.667,0.062,33,102.0
2866,F#2,194.906,0.062,36,102.0
2867,B-4,194.906,0.062,36,102.0
2868,G5,194.969,69/125,112,102.0
2869,C5,194.969,729/1000,61,102.0
2870,F#2,195.156,0.062,34,102.0
2871,B-4,195.156,0.062,34,102.0
2872,E-3,195.396,0.062,54,102.0
2873,F#2,195.396,0.062,54,102.0
2874,F#3,195.396,0.062,54,102.0
2875,B-4,195.396,0.062,54,102.0
2876,A4,195.49,0.531,75,102.0
2877,F#2,195.667,0.062,31,102.0
2878,B-4,195.667,0.062,31,102.0
2879,E5,195.688,417/1000,103,102.0
2880,A4,195.698,0.531,61,102.0
2881,A5,195.854,1573/1000,82,102.0
2882,F#2,195.906,0.062,40,102.0
2883,B-4,195.906,0.062,40,102.0
2884,E4,195.99,271/500,69,102.0
2885,F#2,196.167,0.062,32,102.0
2886,B-4,196.167,0.062,32,102.0
2887,D5,196.229,151/500,78,102.0
2888,G4,196.229,151/500,78,102.0
2889,E-3,196.396,0.062,46,102.0
2890,F#2,196.396,0.062,46,102.0
2891,B-4,196.396,0.062,46,102.0
2892,F4,196.479,229/500,80,102.0
2893,C5,196.479,229/500,80,102.0
2894,E4,196.479,229/500,80,102.0
2895,F#2,196.667,0.062,38,102.0
2896,B-4,196.667,0.062,38,102.0
2897,F#2,196.917,0.062,44,102.0
2898,B-4,196.917,0.062,44,102.0
2899,C5,196.948,479/1000,98,102.0
2900,E5,196.99,323/1000,80,102.0
2901,A4,196.99,323/1000,80,102.0
2902,D2,197.167,13/50,108,102.0
2903,B1,197.188,0.062,60,102.0
2904,F#2,197.188,0.062,60,102.0
2905,B-4,197.188,0.062,60,102.0
2906,F#2,197.302,0.062,54,102.0
2907,D5,197.312,23/200,97,102.0
2908,G4,197.312,23/200,56,102.0
2909,E-3,197.396,0.031,62,102.0
2910,B-4,197.396,0.031,62,102.0
2911,B1,197.396,0.031,62,102.0
2912,F#2,197.396,0.031,62,102.0
2913,G3,197.406,21/1000,70,102.0
2914,B3,197.406,21/1000,70,102.0
2915,E2,197.417,1/100,109,102.0
2916,D5,197.427,177/200,97,102.0
2917,A5,197.427,0.125,82,102.0
2918,C5,197.427,73/1000,98,102.0
2919,D2,197.427,1/100,108,102.0
2920,G4,197.427,323/250,56,102.0
2921,E2,197.427,1573/500,109,102.0
2922,E-3,197.427,0.031,62,102.0
2923,B-4,197.427,0.031,62,102.0
2924,B1,197.427,0.031,62,102.0
2925,F#2,197.427,0.031,62,102.0
2926,G3,197.427,3.844,70,102.0
2927,B3,197.427,3.844,70,102.0
2928,B4,197.458,3.656,96,102.0
2929,B4,197.479,0.688,90,102.0
2930,B-4,197.667,0.062,37,102.0
2931,F#2,197.667,0.062,37,102.0
2932,F#2,197.917,0.062,36,102.0
2933,B-4,197.917,0.062,36,102.0
2934,F#2,198.167,0.062,37,102.0
2935,B-4,198.167,0.062,37,102.0
2936,B4,198.219,69/125,83,102.0
2937,F#2,198.417,0.062,64,102.0
2938,F#3,198.417,0.062,64,102.0
2939,E-3,198.417,0.062,64,102.0
2940,C#2,198.417,0.062,64,102.0
2941,B-4,198.417,0.062,64,102.0
2942,F#2,198.656,0.062,34,102.0
2943,B-4,198.656,0.062,34,102.0
2944,A4,198.823,333/1000,105,102.0
2945,B4,198.844,0.469,86,102.0
2946,F#2,198.917,0.062,38,102.0
2947,B-4,198.917,0.062,38,102.0
2948,G5,199.156,151/500,111,102.0
2949,F#2,199.156,0.062,36,102.0
2950,B-4,199.156,0.062,36,102.0
2951,E-3,199.396,0.062,48,102.0
2952,F#2,199.396,0.062,48,102.0
2953,B-4,199.396,0.062,48,102.0
2954,B4,199.427,73/200,96,102.0
2955,E5,199.427,73/200,96,102.0
2956,F#2,199.656,0.062,38,102.0
2957,B-4,199.656,0.062,38,102.0
2958,C5,199.688,0.219,82,102.0
2959,D5,199.823,177/500,108,102.0
2960,B4,199.833,1.25,82,102.0
2961,F#2,199.917,0.062,42,102.0
2962,B-4,199.917,0.062,42,102.0
2963,F#2,200.156,0.062,38,102.0
2964,B-4,200.156,0.062,38,102.0
2965,D5,200.208,1.219,102,102.0
2966,E-3,200.406,0.062,49,102.0
2967,F#2,200.406,0.062,49,102.0
2968,B-4,200.406,0.062,49,102.0
2969,E2,200.667,13/50,114,102.0
2970,F#2,200.667,0.062,42,102.0
2971,B-4,200.667,0.062,42,102.0
2972,D2,200.917,271/1000,109,102.0
2973,B-2,200.917,0.062,52,102.0
2974,B-4,200.917,0.062,52,102.0
2975,E2,201.167,26/125,98,102.0
2976,B4,201.167,26/125,98,102.0
2977,B-4,201.177,0.062,30,102.0
2978,A4,201.375,13/250,79,102.0
2979,C#3,201.396,0.031,60,102.0
2980,E-3,201.396,0.031,60,102.0
2981,B-4,201.396,0.031,60,102.0
2982,B1,201.396,0.031,60,102.0
2983,F#2,201.396,0.031,60,102.0
2984,A3,201.396,0.031,64,102.0
2985,C4,201.396,0.031,64,102.0
2986,E4,201.396,0.031,64,102.0
2987,G3,201.396,0.031,64,102.0
2988,A2,201.417,1/100,80,102.0
2989,D5,201.417,1/100,80,102.0
2990,A4,201.417,1/100,80,102.0
2991,C4,201.417,1/100,80,102.0
2992,A4,201.427,1729/500,79,102.0
2993,D5,201.427,177/500,102,102.0
2994,C#3,201.427,0.031,60,102.0
2995,E-3,201.427,0.031,60,102.0
2996,B-4,201.427,0.031,60,102.0
2997,B1,201.427,0.031,60,102.0
2998,F#2,201.427,0.031,60,102.0
2999,A3,201.427,1487/250,64,102.0
3000,C4,201.427,1487/250,64,102.0
3001,E4,201.427,1487/250,64,102.0
3002,G3,201.427,1487/250,64,102.0
3003,A2,201.427,27/200,80,102.0
3004,D5,201.427,27/200,80,102.0
3005,A4,201.427,27/200,80,102.0
3006,C4,201.427,27/200,80,102.0
3007,F#2,201.667,0.062,40,102.0
3008,B-4,201.667,0.062,40,102.0
3009,A2,201.667,99/500,90,102.0
3010,C4,201.667,99/500,90,102.0
3011,A4,201.875,0.594,97,102.0
3012,F#2,201.917,0.062,42,102.0
3013,B-4,201.917,0.062,42,102.0
3014,G2,201.917,229/1000,86,102.0
3015,B3,201.917,229/1000,86,102.0
3016,A2,202.156,73/250,110,102.0
3017,F#2,202.156,0.062,38,102.0
3018,B-4,202.156,0.062,38,102.0
3019,C4,202.167,73/500,68,102.0
3020,G4,202.167,73/500,68,102.0
3021,C5,202.167,73/500,68,102.0
3022,E-3,202.396,0.062,66,102.0
3023,F#2,202.396,0.062,66,102.0
3024,F#3,202.396,0.062,66,102.0
3025,B-4,202.396,0.062,66,102.0
3026,D2,202.396,0.062,66,102.0
3027,A3,202.406,99/100,64,102.0
3028,C4,202.406,99/100,64,102.0
3029,E4,202.469,1479/500,79,102.0
3030,A4,202.479,0.562,94,102.0
3031,E3,202.656,0.25,64,102.0
3032,F#2,202.667,0.062,38,102.0
3033,B-4,202.667,0.062,38,102.0
3034,A3,202.906,73/250,69,102.0
3035,F#2,202.917,0.062,38,102.0
3036,B-4,202.917,0.062,38,102.0
3037,B3,203.156,0.25,69,102.0
3038,F#2,203.156,0.062,38,102.0
3039,B-4,203.156,0.062,38,102.0
3040,C4,203.406,99/100,64,102.0
3041,A3,203.406,99/100,64,102.0
3042,E4,203.406,99/100,64,102.0
3043,F#2,203.406,0.062,45,102.0
3044,E-3,203.406,0.062,45,102.0
3045,B-4,203.406,0.062,45,102.0
3046,C4,203.417,0.219,69,102.0
3047,A4,203.469,0.562,94,102.0
3048,F#2,203.656,0.062,42,102.0
3049,B-4,203.656,0.062,42,102.0
3050,F#2,203.906,0.062,39,102.0
3051,B-4,203.906,0.062,39,102.0
3052,A3,203.927,99/500,67,102.0
3053,F#2,204.167,0.062,34,102.0
3054,B-4,204.167,0.062,34,102.0
3055,C4,204.188,167/1000,70,102.0
3056,A4,204.365,37/50,96,102.0
3057,C4,204.406,99/100,64,102.0
3058,A3,204.406,99/100,64,102.0
3059,E4,204.406,99/100,64,102.0
3060,C5,204.406,99/100,64,102.0
3061,A2,204.417,0.062,71,102.0
3062,F#2,204.417,0.062,71,102.0
3063,E-3,204.417,0.062,71,102.0
3064,B-4,204.417,0.062,71,102.0
3065,B1,204.417,0.062,71,102.0
3066,F#2,204.656,0.062,36,102.0
3067,B-4,204.656,0.062,36,102.0
3068,A1,204.656,99/500,90,102.0
3069,E3,204.656,99/500,90,102.0
3070,F#2,204.906,0.062,38,102.0
3071,B-4,204.906,0.062,38,102.0
3072,E2,204.906,0.219,90,102.0
3073,A3,204.906,0.219,90,102.0
3074,G2,205.146,0.281,108,102.0
3075,F#2,205.156,0.062,40,102.0
3076,B-4,205.156,0.062,40,102.0
3077,C4,205.177,0.188,71,102.0
3078,A4,205.375,13/250,96,102.0
3079,E4,205.406,21/1000,63,102.0
3080,C4,205.406,21/1000,63,102.0
3081,A3,205.406,21/1000,63,102.0
3082,C5,205.406,21/1000,63,102.0
3083,F#2,205.406,21/1000,64,102.0
3084,E-3,205.406,21/1000,64,102.0
3085,B1,205.406,21/1000,64,102.0
3086,F#3,205.406,21/1000,64,102.0
3087,B-4,205.406,21/1000,64,102.0
3088,A2,205.417,1/100,115,102.0
3089,E4,207.375,2.0,79,102.0
3090,G2,207.375,21/1000,108,102.0
3091,A4,207.375,0.719,96,102.0
3092,A2,207.375,177/1000,115,102.0
3093,E4,207.375,979/1000,63,102.0
3094,C4,207.375,979/1000,63,102.0
3095,A3,207.375,979/1000,63,102.0
3096,C5,207.375,979/1000,63,102.0
3097,F#2,207.375,21/500,64,102.0
3098,E-3,207.375,21/500,64,102.0
3099,B1,207.375,21/500,64,102.0
3100,F#3,207.375,21/500,64,102.0
3101,B-4,207.375,21/500,64,102.0
3102,F#2,207.604,0.062,40,102.0
3103,B-4,207.604,0.062,40,102.0
3104,A2,207.615,177/1000,87,102.0
3105,E3,207.615,177/1000,87,102.0
3106,F#2,207.854,0.062,37,102.0
3107,B-4,207.854,0.062,37,102.0
3108,G2,207.865,13/50,110,102.0
3109,F#2,208.104,0.062,38,102.0
3110,B-4,208.104,0.062,38,102.0
3111,A2,208.115,177/1000,90,102.0
3112,C4,208.115,177/1000,90,102.0
3113,B4,208.344,583/1000,102,102.0
3114,F#4,208.354,1.0,62,102.0
3115,D4,208.354,1.0,62,102.0
3116,B3,208.354,1.0,62,102.0
3117,D5,208.354,1.0,62,102.0
3118,F#2,208.354,0.062,67,102.0
3119,B-4,208.354,0.062,67,102.0
3120,C#2,208.354,0.062,67,102.0
3121,E-3,208.354,0.062,67,102.0
3122,F#2,208.604,0.062,41,102.0
3123,B-4,208.604,0.062,41,102.0
3124,G2,208.615,26/125,89,102.0
3125,E3,208.615,26/125,89,102.0
3126,F#2,208.854,0.062,38,102.0
3127,B-4,208.854,0.062,38,102.0
3128,E2,208.865,271/1000,106,102.0
3129,B3,208.885,0.156,67,102.0
3130,F#2,209.104,0.062,38,102.0
3131,B-4,209.104,0.062,38,102.0
3132,G2,209.115,99/500,86,102.0
3133,C4,209.115,99/500,86,102.0
3134,G4,209.333,237/250,97,102.0
3135,F#3,209.344,1.938,67,102.0
3136,B3,209.344,1.938,67,102.0
3137,D4,209.344,1.938,67,102.0
3138,B3,209.354,2.0,58,102.0
3139,G3,209.354,1.0,62,102.0
3140,D4,209.354,1.0,62,102.0
3141,B4,209.354,1.0,62,102.0
3142,E-3,209.354,0.062,48,102.0
3143,B-4,209.354,0.062,48,102.0
3144,F#2,209.354,0.062,48,102.0
3145,D4,209.385,177/1000,71,102.0
3146,F#2,209.604,0.062,40,102.0
3147,B-4,209.604,0.062,40,102.0
3148,C4,209.635,73/500,71,102.0
3149,E-4,209.844,6/25,113,102.0
3150,F#2,209.854,0.062,44,102.0
3151,B-4,209.854,0.062,44,102.0
3152,G4,209.865,0.469,106,102.0
3153,E4,209.865,0.469,106,102.0
3154,F#2,210.104,0.062,40,102.0
3155,B-4,210.104,0.062,40,102.0
3156,F#4,210.281,0.781,95,102.0
3157,A4,210.323,833/1000,86,102.0
3158,F#3,210.354,1.0,56,102.0
3159,A3,210.354,1.0,56,102.0
3160,E-3,210.365,0.062,68,102.0
3161,B-4,210.365,0.062,68,102.0
3162,A2,210.365,0.062,68,102.0
3163,F#2,210.365,0.062,68,102.0
3164,B1,210.365,0.062,68,102.0
3165,G4,210.385,333/1000,80,102.0
3166,E-4,210.385,333/1000,80,102.0
3167,A1,210.615,271/1000,89,102.0
3168,E3,210.615,271/1000,89,102.0
3169,B-4,210.615,0.062,33,102.0
3170,F#2,210.615,0.062,33,102.0
3171,B-2,210.865,0.062,50,102.0
3172,B-4,210.865,0.062,50,102.0
3173,E2,210.865,0.188,83,102.0
3174,A3,210.865,0.188,83,102.0
3175,G4,210.865,0.188,83,102.0
3176,D4,210.865,0.188,83,102.0
3177,G2,211.104,0.188,88,102.0
3178,B3,211.104,0.188,88,102.0
3179,B-4,211.115,0.062,34,102.0
3180,A4,211.177,177/1000,86,102.0
3181,A3,211.333,21/500,68,102.0
3182,E4,211.333,21/500,68,102.0
3183,G3,211.333,21/500,68,102.0
3184,C4,211.333,21/500,68,102.0
3185,E-3,211.354,21/1000,65,102.0
3186,F#3,211.354,21/1000,65,102.0
3187,B-4,211.354,21/1000,65,102.0
3188,B1,211.354,21/1000,65,102.0
3189,F#2,211.354,21/1000,65,102.0
3190,A4,211.365,1/100,84,102.0
3191,A2,211.365,1/100,80,102.0
3192,D5,211.365,1/100,80,102.0
3193,A4,211.365,1/100,80,102.0
3194,C4,211.365,1/100,80,102.0
3195,A4,211.375,1021/500,84,102.0
3196,D4,211.375,0.312,99,102.0
3197,G4,211.375,0.312,99,102.0
3198,A3,211.375,5979/1000,68,102.0
3199,E4,211.375,5979/1000,68,102.0
3200,G3,211.375,5979/1000,68,102.0
3201,C4,211.375,5979/1000,68,102.0
3202,E-3,211.375,21/500,65,102.0
3203,F#3,211.375,21/500,65,102.0
3204,B-4,211.375,21/500,65,102.0
3205,B1,211.375,21/500,65,102.0
3206,F#2,211.375,21/500,65,102.0
3207,A2,211.375,73/500,80,102.0
3208,D5,211.375,73/500,80,102.0
3209,A4,211.375,73/500,80,102.0
3210,C4,211.375,73/500,80,102.0
3211,F#2,211.615,0.062,34,102.0
3212,B-4,211.615,0.062,34,102.0
3213,A2,211.615,0.188,90,102.0
3214,C4,211.615,0.188,90,102.0
3215,C4,211.615,0.188,90,102.0
3216,G2,211.854,6/25,85,102.0
3217,A3,211.854,6/25,85,102.0
3218,B3,211.854,6/25,85,102.0
3219,B-4,211.865,0.062,40,102.0
3220,F#2,211.865,0.062,40,102.0
3221,A2,212.104,0.125,81,102.0
3222,G4,212.104,0.125,81,102.0
3223,C5,212.104,0.125,81,102.0
3224,C4,212.104,0.125,81,102.0
3225,B-4,212.104,0.062,38,102.0
3226,F#2,212.104,0.062,38,102.0
3227,G4,212.135,0.219,95,102.0
3228,D4,212.135,0.219,95,102.0
3229,C4,212.354,99/100,64,102.0
3230,A3,212.354,99/100,64,102.0
3231,A4,212.365,0.562,91,102.0
3232,F#2,212.365,0.062,67,102.0
3233,E-3,212.365,0.062,67,102.0
3234,B-4,212.365,0.062,67,102.0
3235,D2,212.365,0.062,67,102.0
3236,B-4,212.615,0.062,38,102.0
3237,F#2,212.615,0.062,38,102.0
3238,E3,212.635,0.188,68,102.0
3239,F#2,212.865,0.062,42,102.0
3240,B-4,212.865,0.062,42,102.0
3241,A3,212.885,6/25,69,102.0
3242,B3,213.125,167/1000,68,102.0
3243,F#2,213.125,0.062,40,102.0
3244,B-4,213.125,0.062,40,102.0
3245,A4,213.333,0.562,91,102.0
3246,C4,213.354,99/100,62,102.0
3247,A3,213.354,99/100,62,102.0
3248,E4,213.354,99/100,62,102.0
3249,E-3,213.354,0.062,47,102.0
3250,F#2,213.354,0.062,47,102.0
3251,B-4,213.354,0.062,47,102.0
3252,C4,213.375,99/500,70,102.0
3253,F#2,213.604,0.062,38,102.0
3254,B-4,213.604,0.062,38,102.0
3255,F#2,213.854,0.062,44,102.0
3256,B-4,213.854,0.062,44,102.0
3257,A3,213.875,99/500,67,102.0
3258,F#2,214.104,0.062,40,102.0
3259,B-4,214.104,0.062,40,102.0
3260,C4,214.135,167/1000,67,102.0
3261,C4,214.354,99/100,62,102.0
3262,A3,214.354,99/100,62,102.0
3263,C5,214.354,99/100,62,102.0
3264,E4,214.354,99/100,62,102.0
3265,B1,214.354,0.062,72,102.0
3266,F#2,214.354,0.062,72,102.0
3267,E-3,214.354,0.062,72,102.0
3268,B-4,214.354,0.062,72,102.0
3269,F#3,214.354,0.062,72,102.0
3270,A2,214.354,0.062,72,102.0
3271,A4,214.365,69/125,94,102.0
3272,F#2,214.604,0.062,38,102.0
3273,B-4,214.604,0.062,38,102.0
3274,A1,214.615,229/1000,88,102.0
3275,E3,214.615,229/1000,88,102.0
3276,F#2,214.854,0.062,40,102.0
3277,B-4,214.854,0.062,40,102.0
3278,E2,214.865,229/1000,88,102.0
3279,A3,214.865,229/1000,88,102.0
3280,G2,215.104,271/1000,106,102.0
3281,F#2,215.104,0.062,42,102.0
3282,B-4,215.104,0.062,42,102.0
3283,C4,215.125,167/1000,70,102.0
3284,A4,215.312,0.062,100,102.0
3285,A2,215.312,0.062,100,102.0
3286,A4,215.323,13/250,92,102.0
3287,C4,215.354,21/1000,62,102.0
3288,C5,215.354,21/1000,62,102.0
3289,A3,215.354,21/1000,62,102.0
3290,E4,215.354,21/1000,62,102.0
3291,F#2,215.354,21/1000,64,102.0
3292,E-3,215.354,21/1000,64,102.0
3293,B1,215.354,21/1000,64,102.0
3294,B-4,215.354,21/1000,64,102.0
3295,G2,217.354,0.062,106,102.0
3296,A4,217.354,0.531,92,102.0
3297,C4,217.354,979/1000,62,102.0
3298,C5,217.354,979/1000,62,102.0
3299,A3,217.354,979/1000,62,102.0
3300,E4,217.354,979/1000,62,102.0
3301,A4,217.354,23/200,100,102.0
3302,A2,217.354,23/200,100,102.0
3303,F#2,217.354,21/500,64,102.0
3304,E-3,217.354,21/500,64,102.0
3305,B1,217.354,21/500,64,102.0
3306,B-4,217.354,21/500,64,102.0
3307,C5,217.5,151/500,76,102.0
3308,F#2,217.583,0.062,38,102.0
3309,B-4,217.583,0.062,38,102.0
3310,A2,217.594,99/500,88,102.0
3311,E3,217.594,99/500,88,102.0
3312,A4,217.76,1333/1000,82,102.0
3313,F#2,217.833,0.062,41,102.0
3314,B-4,217.833,0.062,41,102.0
3315,G2,217.844,0.219,109,102.0
3316,F#2,218.094,0.062,37,102.0
3317,B-4,218.094,0.062,37,102.0
3318,A2,218.094,99/500,91,102.0
3319,C4,218.094,99/500,91,102.0
3320,B4,218.312,271/500,102,102.0
3321,D5,218.333,1.0,63,102.0
3322,B3,218.333,1.0,63,102.0
3323,D4,218.333,1.0,63,102.0
3324,F#4,218.333,1.0,63,102.0
3325,C#2,218.344,0.062,66,102.0
3326,F#2,218.344,0.062,66,102.0
3327,E-3,218.344,0.062,66,102.0
3328,B-4,218.344,0.062,66,102.0
3329,F#2,218.583,0.062,36,102.0
3330,B-4,218.583,0.062,36,102.0
3331,G2,218.594,229/1000,90,102.0
3332,E3,218.594,229/1000,90,102.0
3333,E2,218.833,151/500,105,102.0
3334,F#2,218.833,0.062,40,102.0
3335,B-4,218.833,0.062,40,102.0
3336,B3,218.854,177/1000,68,102.0
3337,F#2,219.083,0.062,36,102.0
3338,B-4,219.083,0.062,36,102.0
3339,G2,219.094,0.188,88,102.0
3340,C4,219.094,0.188,88,102.0
3341,A4,219.104,177/500,94,102.0
3342,G4,219.312,1.0,71,102.0
3343,B4,219.312,1.0,71,102.0
3344,G3,219.312,1.0,71,102.0
3345,D4,219.312,1.0,71,102.0
3346,F#3,219.323,224/125,65,102.0
3347,B3,219.333,373/200,68,102.0
3348,B3,219.333,487/250,68,102.0
3349,D4,219.333,487/250,68,102.0
3350,F#2,219.333,0.062,49,102.0
3351,B-4,219.333,0.062,49,102.0
3352,E-3,219.333,0.062,49,102.0
3353,D4,219.365,13/125,77,102.0
3354,G4,219.365,13/125,77,102.0
3355,F4,219.49,83/1000,84,102.0
3356,E4,219.562,83/1000,60,102.0
3357,F#2,219.562,83/1000,60,102.0
3358,B-4,219.562,83/1000,60,102.0
3359,D4,219.562,83/1000,60,102.0
3360,C4,219.615,73/1000,75,102.0
3361,D4,219.615,73/1000,75,102.0
3362,C4,219.615,73/1000,75,102.0
3363,B3,219.729,21/500,74,102.0
3364,E-4,219.823,167/1000,91,102.0
3365,F#2,219.833,0.062,57,102.0
3366,B-4,219.833,0.062,57,102.0
3367,C#2,219.833,0.062,57,102.0
3368,G4,219.844,56/125,102,102.0
3369,E4,219.844,56/125,102,102.0
3370,F#2,220.094,0.062,43,102.0
3371,B-4,220.094,0.062,43,102.0
3372,E-3,220.323,0.062,78,102.0
3373,B-4,220.323,0.062,78,102.0
3374,B1,220.323,0.062,78,102.0
3375,C#2,220.323,0.062,78,102.0
3376,A2,220.323,0.062,78,102.0
3377,F#2,220.323,0.062,78,102.0
3378,A3,220.333,1.0,57,102.0
3379,F#3,220.333,1.0,57,102.0
3380,G4,220.354,0.312,80,102.0
3381,E-4,220.354,0.312,80,102.0
3382,F#4,220.385,667/1000,95,102.0
3383,B-4,220.583,0.062,44,102.0
3384,F#2,220.583,0.062,44,102.0
3385,A1,220.594,13/50,91,102.0
3386,E3,220.594,13/50,91,102.0
3387,E2,220.833,73/250,83,102.0
3388,G4,220.833,73/250,83,102.0
3389,D4,220.833,73/250,83,102.0
3390,A3,220.833,73/250,83,102.0
3391,B-4,220.833,0.062,50,102.0
3392,B-2,220.833,0.062,50,102.0
3393,G2,221.083,271/1000,108,102.0
3394,B-4,221.083,0.062,33,102.0
3395,B3,221.104,99/500,69,102.0
3396,G3,221.281,73/1000,65,102.0
3397,A3,221.281,73/1000,65,102.0
3398,C4,221.281,73/1000,65,102.0
3399,E-3,221.323,0.031,62,102.0
3400,B-4,221.323,0.031,62,102.0
3401,F#2,221.323,0.031,62,102.0
3402,B1,221.323,0.031,62,102.0
3403,C4,221.344,1/100,101,102.0
3404,G4,221.344,1/100,95,102.0
3405,A2,221.344,1/100,81,102.0
3406,A4,221.344,1/100,81,102.0
3407,D5,221.344,1/100,81,102.0
3408,C4,221.344,1/100,81,102.0
3409,G2,221.354,0.062,108,102.0
3410,C4,221.354,177/250,101,102.0
3411,G4,221.354,151/250,95,102.0
3412,G3,221.354,5927/1000,65,102.0
3413,A3,221.354,5927/1000,65,102.0
3414,C4,221.354,5927/1000,65,102.0
3415,E-3,221.354,0.031,62,102.0
3416,B-4,221.354,0.031,62,102.0
3417,F#2,221.354,0.031,62,102.0
3418,B1,221.354,0.031,62,102.0
3419,A2,221.354,0.125,81,102.0
3420,A4,221.354,0.125,81,102.0
3421,D5,221.354,0.125,81,102.0
3422,C4,221.354,0.125,81,102.0
3423,E4,221.375,3979/1000,65,102.0
3424,B-4,221.583,0.062,36,102.0
3425,F#2,221.583,0.062,36,102.0
3426,A2,221.594,99/500,88,102.0
3427,C4,221.594,99/500,88,102.0
3428,G2,221.833,0.188,89,102.0
3429,B3,221.833,0.188,89,102.0
3430,F#2,221.844,0.062,34,102.0
3431,B-4,221.844,0.062,34,102.0
3432,A2,222.083,333/1000,108,102.0
3433,F#2,222.083,0.062,40,102.0
3434,B-4,222.083,0.062,40,102.0
3435,G4,222.094,0.219,76,102.0
3436,C5,222.094,0.219,76,102.0
3437,C4,222.094,0.219,76,102.0
3438,D4,222.094,0.219,76,102.0
3439,G4,222.094,0.219,76,102.0
3440,A3,222.094,0.219,76,102.0
3441,E-3,222.323,0.062,64,102.0
3442,B-4,222.323,0.062,64,102.0
3443,D2,222.323,0.062,64,102.0
3444,F#2,222.323,0.062,64,102.0
3445,C4,222.333,99/100,64,102.0
3446,A3,222.333,99/100,64,102.0
3447,A4,222.375,151/250,96,102.0
3448,E3,222.594,13/50,66,102.0
3449,F#2,222.594,0.062,38,102.0
3450,B-4,222.594,0.062,38,102.0
3451,B-4,222.833,0.062,44,102.0
3452,F#2,222.833,0.062,44,102.0
3453,A3,222.844,0.25,70,102.0
3454,B3,223.094,26/125,66,102.0
3455,F#2,223.094,0.062,42,102.0
3456,B-4,223.094,0.062,42,102.0
3457,C4,223.333,99/100,60,102.0
3458,A3,223.333,99/100,60,102.0
3459,E4,223.333,99/100,60,102.0
3460,E-3,223.333,0.062,54,102.0
3461,F#2,223.333,0.062,54,102.0
3462,F#3,223.333,0.062,54,102.0
3463,B-4,223.333,0.062,54,102.0
3464,A4,223.354,151/250,96,102.0
3465,C4,223.354,0.312,69,102.0
3466,F#2,223.594,0.062,41,102.0
3467,B-4,223.594,0.062,41,102.0
3468,A3,223.844,6/25,66,102.0
3469,F#2,223.844,0.062,42,102.0
3470,B-4,223.844,0.062,42,102.0
3471,F#2,224.094,0.062,42,102.0
3472,B-4,224.094,0.062,42,102.0
3473,C4,224.104,26/125,70,102.0
3474,A4,224.323,0.531,92,102.0
3475,C5,224.333,99/100,64,102.0
3476,C4,224.333,99/100,64,102.0
3477,A3,224.333,99/100,64,102.0
3478,E4,224.333,99/100,64,102.0
3479,F#2,224.333,0.062,69,102.0
3480,E-3,224.333,0.062,69,102.0
3481,B1,224.333,0.062,69,102.0
3482,A2,224.333,0.062,69,102.0
3483,B-4,224.333,0.062,69,102.0
3484,F#2,224.594,0.062,38,102.0
3485,B-4,224.594,0.062,38,102.0
3486,A1,224.594,0.219,91,102.0
3487,E3,224.594,0.219,91,102.0
3488,F#2,224.844,0.062,42,102.0
3489,B-4,224.844,0.062,42,102.0
3490,E2,224.844,229/1000,89,102.0
3491,A3,224.844,229/1000,89,102.0
3492,G2,225.083,271/1000,105,102.0
3493,C4,225.094,0.156,70,102.0
3494,F#2,225.094,0.062,40,102.0
3495,B-4,225.094,0.062,40,102.0
3496,A4,225.312,21/500,94,102.0
3497,E-3,225.323,0.031,62,102.0
3498,B1,225.323,0.031,62,102.0
3499,F#2,225.323,0.031,62,102.0
3500,B-4,225.323,0.031,62,102.0
3501,C4,225.333,21/1000,62,102.0
3502,A3,225.333,21/1000,62,102.0
3503,C5,225.333,21/1000,62,102.0
3504,E4,225.333,21/1000,62,102.0
3505,A2,225.344,1/100,114,102.0
3506,E4,227.281,2.0,65,102.0
3507,G2,227.281,21/500,105,102.0
3508,A4,227.281,521/1000,94,102.0
3509,A2,227.281,167/1000,114,102.0
3510,E-3,227.281,0.031,62,102.0
3511,B1,227.281,0.031,62,102.0
3512,F#2,227.281,0.031,62,102.0
3513,B-4,227.281,0.031,62,102.0
3514,C4,227.281,979/1000,62,102.0
3515,A3,227.281,979/1000,62,102.0
3516,C5,227.281,979/1000,62,102.0
3517,E4,227.281,979/1000,62,102.0
3518,F#2,227.521,0.062,38,102.0
3519,B-4,227.521,0.062,38,102.0
3520,A2,227.521,6/25,88,102.0
3521,E3,227.521,6/25,88,102.0
3522,F#2,227.771,0.062,40,102.0
3523,B-4,227.771,0.062,40,102.0
3524,G2,227.781,99/500,108,102.0
3525,A2,228.021,323/1000,109,102.0
3526,F#2,228.021,0.062,40,102.0
3527,B-4,228.021,0.062,40,102.0
3528,C4,228.042,0.188,73,102.0
3529,B4,228.24,127/200,100,102.0
3530,E-3,228.25,0.062,66,102.0
3531,C#2,228.25,0.062,66,102.0
3532,F#2,228.25,0.062,66,102.0
3533,B-4,228.25,0.062,66,102.0
3534,D5,228.26,1.0,63,102.0
3535,D4,228.26,1.0,63,102.0
3536,B3,228.26,1.0,63,102.0
3537,F#4,228.26,1.0,63,102.0
3538,G2,228.521,13/50,112,102.0
3539,E3,228.521,177/500,67,102.0
3540,F#2,228.521,0.062,39,102.0
3541,B-4,228.521,0.062,39,102.0
3542,F#2,228.76,0.062,41,102.0
3543,B-4,228.76,0.062,41,102.0
3544,E2,228.771,73/250,107,102.0
3545,B3,228.792,177/1000,71,102.0
3546,F#2,229.01,0.062,40,102.0
3547,B-4,229.01,0.062,40,102.0
3548,G2,229.021,26/125,88,102.0
3549,C4,229.021,26/125,88,102.0
3550,E-5,229.062,0.281,120,102.0
3551,G5,229.062,73/200,104,102.0
3552,G4,229.24,1.0,70,102.0
3553,D4,229.24,1.0,70,102.0
3554,G3,229.24,1.0,70,102.0
3555,B4,229.24,1.0,70,102.0
3556,F#3,229.25,1.906,67,102.0
3557,D4,229.25,1.906,67,102.0
3558,B3,229.25,1.906,67,102.0
3559,B3,229.26,2.0,61,102.0
3560,F#2,229.26,0.062,56,102.0
3561,F#3,229.26,0.062,56,102.0
3562,E-3,229.26,0.062,56,102.0
3563,B-4,229.26,0.062,56,102.0
3564,D4,229.292,99/500,69,102.0
3565,F#2,229.521,0.062,34,102.0
3566,B-4,229.521,0.062,34,102.0
3567,A4,229.542,73/500,85,102.0
3568,C4,229.542,73/500,85,102.0
3569,F#2,229.76,0.062,37,102.0
3570,B-4,229.76,0.062,37,102.0
3571,F#2,230.01,0.062,36,102.0
3572,B-4,230.01,0.062,36,102.0
3573,G5,230.042,0.188,114,102.0
3574,E-5,230.042,0.188,114,102.0
3575,F#4,230.24,0.781,95,102.0
3576,A3,230.26,1.0,52,102.0
3577,F#3,230.26,1.0,52,102.0
3578,F#2,230.26,0.062,71,102.0
3579,E-3,230.26,0.062,71,102.0
3580,B1,230.26,0.062,71,102.0
3581,A2,230.26,0.062,71,102.0
3582,B-4,230.26,0.062,71,102.0
3583,D5,230.292,177/1000,95,102.0
3584,E3,230.521,177/500,68,102.0
3585,F#2,230.521,0.062,36,102.0
3586,B-4,230.521,0.062,36,102.0
3587,A1,230.521,177/1000,106,102.0
3588,C5,230.521,177/1000,106,102.0
3589,F#2,230.771,0.062,43,102.0
3590,B-4,230.771,0.062,43,102.0
3591,E2,230.771,151/500,92,102.0
3592,A3,230.771,151/500,92,102.0
3593,A4,230.792,167/1000,97,102.0
3594,G2,231.01,271/1000,108,102.0
3595,F#2,231.021,0.062,40,102.0
3596,B-4,231.021,0.062,40,102.0
3597,B3,231.042,99/500,70,102.0
3598,E4,231.25,0.031,64,102.0
3599,C4,231.25,0.031,64,102.0
3600,G3,231.25,0.031,64,102.0
3601,A3,231.25,0.031,64,102.0
3602,E-3,231.26,21/1000,64,102.0
3603,B1,231.26,21/1000,64,102.0
3604,F#2,231.26,21/1000,64,102.0
3605,E-5,231.26,21/1000,64,102.0
3606,B-4,231.26,21/1000,64,102.0
3607,A2,231.271,1/100,94,102.0
3608,C5,231.271,1/100,94,102.0
3609,G5,231.271,1/100,94,102.0
3610,D5,231.271,1/100,94,102.0
3611,A4,231.271,1/100,94,102.0
3612,C4,231.271,1/100,94,102.0
3613,G2,231.281,21/500,108,102.0
3614,E4,231.281,1487/250,64,102.0
3615,C4,231.281,1487/250,64,102.0
3616,G3,231.281,1487/250,64,102.0
3617,A3,231.281,1487/250,64,102.0
3618,E-3,231.281,21/500,64,102.0
3619,B1,231.281,21/500,64,102.0
3620,F#2,231.281,21/500,64,102.0
3621,E-5,231.281,21/500,64,102.0
3622,B-4,231.281,21/500,64,102.0
3623,A2,231.281,0.125,94,102.0
3624,C5,231.281,0.125,94,102.0
3625,G5,231.281,0.125,94,102.0
3626,D5,231.281,0.125,94,102.0
3627,A4,231.281,0.125,94,102.0
3628,C4,231.281,0.125,94,102.0
3629,F#2,231.521,0.062,40,102.0
3630,B-4,231.521,0.062,40,102.0
3631,A2,231.521,26/125,88,102.0
3632,C4,231.521,26/125,88,102.0
3633,A4,231.521,26/125,88,102.0
3634,F#2,231.771,0.062,40,102.0
3635,B-4,231.771,0.062,40,102.0
3636,G2,231.771,0.219,88,102.0
3637,B3,231.771,0.219,88,102.0
3638,A2,232.01,177/1000,88,102.0
3639,C4,232.01,177/1000,88,102.0
3640,B-4,232.01,0.062,37,102.0
3641,F#2,232.01,0.062,37,102.0
3642,G4,232.021,177/1000,71,102.0
3643,C5,232.021,177/1000,71,102.0
3644,C4,232.021,177/1000,71,102.0
3645,C4,232.26,99/100,64,102.0
3646,A3,232.26,99/100,64,102.0
3647,A4,232.271,0.531,95,102.0
3648,D2,232.271,0.062,70,102.0
3649,F#2,232.271,0.062,70,102.0
3650,F#3,232.271,0.062,70,102.0
3651,E-3,232.271,0.062,70,102.0
3652,B-4,232.271,0.062,70,102.0
3653,G5,232.271,177/1000,84,102.0
3654,A4,232.271,177/1000,84,102.0
3655,E3,232.521,6/25,69,102.0
3656,F#2,232.521,0.062,36,102.0
3657,B-4,232.521,0.062,36,102.0
3658,A3,232.771,13/50,71,102.0
3659,F#2,232.771,0.062,40,102.0
3660,B-4,232.771,0.062,40,102.0
3661,B3,233.021,0.219,68,102.0
3662,F#2,233.031,0.062,31,102.0
3663,B-4,233.031,0.062,31,102.0
3664,A4,233.26,0.531,95,102.0
3665,E4,233.26,99/100,62,102.0
3666,C4,233.26,99/100,62,102.0
3667,A3,233.26,99/100,62,102.0
3668,F#2,233.271,0.062,48,102.0
3669,E-3,233.271,0.062,48,102.0
3670,B-4,233.271,0.062,48,102.0
3671,C4,233.281,0.188,72,102.0
3672,F#2,233.521,0.062,37,102.0
3673,B-4,233.521,0.062,37,102.0
3674,E-4,233.75,0.062,50,102.0
3675,F#2,233.75,0.062,50,102.0
3676,B-4,233.75,0.062,50,102.0
3677,G4,233.771,177/1000,93,102.0
3678,E4,233.771,177/1000,93,102.0
3679,A3,233.771,177/1000,93,102.0
3680,F#2,234.01,0.062,38,102.0
3681,B-4,234.01,0.062,38,102.0
3682,E-4,234.01,23/200,64,102.0
3683,C4,234.01,23/200,64,102.0
3684,E4,234.01,23/200,64,102.0
3685,G4,234.01,23/200,64,102.0
3686,C5,234.26,99/100,62,102.0
3687,C4,234.26,99/100,62,102.0
3688,A3,234.26,99/100,62,102.0
3689,E4,234.26,99/100,62,102.0
3690,F#2,234.26,0.062,70,102.0
3691,E-3,234.26,0.062,70,102.0
3692,B1,234.26,0.062,70,102.0
3693,A2,234.26,0.062,70,102.0
3694,B-4,234.26,0.062,70,102.0
3695,A4,234.271,573/1000,92,102.0
3696,G4,234.271,73/500,60,102.0
3697,B-4,234.271,73/500,60,102.0
3698,D4,234.271,73/500,60,102.0
3699,B-4,234.521,0.062,45,102.0
3700,F#2,234.521,0.062,45,102.0
3701,A1,234.531,0.219,86,102.0
3702,G4,234.531,0.219,86,102.0
3703,E3,234.531,0.219,86,102.0
3704,C4,234.531,0.219,86,102.0
3705,E2,234.76,99/500,96,102.0
3706,A3,234.76,99/500,96,102.0
3707,B-4,234.771,0.062,38,102.0
3708,B-2,234.771,0.062,38,102.0
3709,A3,234.781,99/500,74,102.0
3710,A3,234.781,99/500,74,102.0
3711,G2,235.01,271/1000,107,102.0
3712,C4,235.021,167/1000,72,102.0
3713,B-4,235.031,0.062,32,102.0
3714,A4,235.26,21/1000,93,102.0
3715,A3,235.26,21/1000,61,102.0
3716,C4,235.26,21/1000,61,102.0
3717,C5,235.26,21/1000,61,102.0
3718,E4,235.26,21/1000,61,102.0
3719,E-3,235.26,21/1000,65,102.0
3720,B1,235.26,21/1000,65,102.0
3721,F#2,235.26,21/1000,65,102.0
3722,B-4,235.26,21/1000,65,102.0
3723,A2,235.271,1/100,114,102.0
3724,G4,235.271,1/100,100,102.0
3725,C4,235.271,1/100,100,102.0
3726,A4,237.229,271/500,93,102.0
3727,A2,237.229,167/1000,114,102.0
3728,A3,237.229,979/1000,61,102.0
3729,C4,237.229,979/1000,61,102.0
3730,C5,237.229,979/1000,61,102.0
3731,E4,237.229,979/1000,61,102.0
3732,E-3,237.229,21/500,65,102.0
3733,B1,237.229,21/500,65,102.0
3734,F#2,237.229,21/500,65,102.0
3735,B-4,237.229,21/500,65,102.0
3736,G4,237.229,0.312,100,102.0
3737,C4,237.229,0.312,100,102.0
3738,F#2,237.458,0.062,35,102.0
3739,B-4,237.458,0.062,35,102.0
3740,A2,237.469,0.281,109,102.0
3741,E3,237.469,26/125,66,102.0
3742,B-4,237.708,0.062,38,102.0
3743,F#2,237.708,0.062,38,102.0
3744,G2,237.719,0.219,108,102.0
3745,F#2,237.958,0.062,41,102.0
3746,B-4,237.958,0.062,41,102.0
3747,A2,237.969,151/500,110,102.0
3748,C4,237.979,0.188,72,102.0
3749,B4,238.167,583/1000,99,102.0
3750,B3,238.208,1.0,63,102.0
3751,D4,238.208,1.0,63,102.0
3752,D5,238.208,1.0,63,102.0
3753,F#4,238.208,1.0,63,102.0
3754,F#2,238.208,0.062,64,102.0
3755,E-3,238.208,0.062,64,102.0
3756,B-4,238.208,0.062,64,102.0
3757,C#2,238.208,0.062,64,102.0
3758,F#3,238.208,0.062,64,102.0
3759,F#2,238.458,0.062,37,102.0
3760,B-4,238.458,0.062,37,102.0
3761,G2,238.49,73/250,88,102.0
3762,E3,238.49,73/250,88,102.0
3763,F#2,238.708,0.062,38,102.0
3764,B-4,238.708,0.062,38,102.0
3765,E2,238.729,0.281,107,102.0
3766,B3,238.74,99/500,66,102.0
3767,F#2,238.969,0.062,40,102.0
3768,B-4,238.969,0.062,40,102.0
3769,G2,238.99,0.281,111,102.0
3770,C4,238.99,99/500,68,102.0
3771,F#3,239.188,2.0,66,102.0
3772,D4,239.188,2.0,66,102.0
3773,B3,239.188,2.0,66,102.0
3774,G4,239.198,1.0,72,102.0
3775,D4,239.198,1.0,72,102.0
3776,G3,239.198,1.0,72,102.0
3777,B4,239.198,1.0,72,102.0
3778,B3,239.198,2.0,67,102.0
3779,B3,239.198,2.0,67,102.0
3780,E-3,239.208,0.062,47,102.0
3781,B-4,239.208,0.062,47,102.0
3782,F#2,239.208,0.062,47,102.0
3783,D4,239.24,177/1000,71,102.0
3784,F#2,239.469,0.062,37,102.0
3785,B-4,239.469,0.062,37,102.0
3786,C4,239.49,0.156,71,102.0
3787,B-4,239.708,0.062,38,102.0
3788,F#2,239.708,0.062,38,102.0
3789,F#2,239.958,0.062,42,102.0
3790,B-4,239.958,0.062,42,102.0
3791,E-3,240.198,0.062,70,102.0
3792,B1,240.198,0.062,70,102.0
3793,B-4,240.198,0.062,70,102.0
3794,F#2,240.198,0.062,70,102.0
3795,A2,240.198,0.062,70,102.0
3796,F#3,240.208,1.0,57,102.0
3797,A3,240.208,1.0,57,102.0
3798,F#4,240.25,0.688,92,102.0
3799,B-4,240.458,0.062,45,102.0
3800,F#2,240.458,0.062,45,102.0
3801,E3,240.469,151/500,70,102.0
3802,B-4,240.708,0.062,44,102.0
3803,B-2,240.708,0.062,44,102.0
3804,A3,240.729,229/1000,70,102.0
3805,A4,240.958,26/125,85,102.0
3806,B3,240.958,26/125,85,102.0
3807,B-4,240.969,0.062,29,102.0
3808,C4,241.188,21/500,66,102.0
3809,E4,241.188,21/500,66,102.0
3810,G3,241.188,21/500,66,102.0
3811,A3,241.188,21/500,66,102.0
3812,C5,241.208,21/1000,108,102.0
3813,C#3,241.219,1/100,65,102.0
3814,E-3,241.219,1/100,65,102.0
3815,B-4,241.219,1/100,65,102.0
3816,B1,241.219,1/100,65,102.0
3817,F#3,241.219,1/100,65,102.0
3818,A1,241.229,229/1000,110,102.0
3819,C5,241.229,0.406,108,102.0
3820,C4,241.229,1487/250,66,102.0
3821,E4,241.229,1487/250,66,102.0
3822,G3,241.229,1487/250,66,102.0
3823,A3,241.229,1487/250,66,102.0
3824,C#3,241.229,13/250,65,102.0
3825,E-3,241.229,13/250,65,102.0
3826,B-4,241.229,13/250,65,102.0
3827,B1,241.229,13/250,65,102.0
3828,F#3,241.229,13/250,65,102.0
3829,C4,241.24,0.062,74,102.0
3830,F#3,241.24,0.062,74,102.0
3831,G1,241.458,323/1000,107,102.0
3832,C4,241.469,26/125,71,102.0
3833,B-4,241.469,0.062,29,102.0
3834,C5,241.708,73/200,102,102.0
3835,F#2,241.719,0.062,38,102.0
3836,B-4,241.719,0.062,38,102.0
3837,B3,241.729,229/1000,68,102.0
3838,F#2,241.958,0.062,38,102.0
3839,B-4,241.958,0.062,38,102.0
3840,C4,241.979,73/500,71,102.0
3841,C5,242.198,99/500,105,102.0
3842,F#2,242.208,0.062,62,102.0
3843,C#2,242.208,0.062,62,102.0
3844,E-3,242.208,0.062,62,102.0
3845,B-4,242.208,0.062,62,102.0
3846,F#2,242.458,0.062,40,102.0
3847,B-4,242.458,0.062,40,102.0
3848,C5,242.469,99/250,101,102.0
3849,E3,242.469,229/1000,66,102.0
3850,G1,242.479,0.062,66,102.0
3851,B-4,242.479,0.062,66,102.0
3852,F#2,242.708,0.062,34,102.0
3853,B-4,242.708,0.062,34,102.0
3854,G1,242.719,0.062,66,102.0
3855,B-4,242.719,0.062,66,102.0
3856,A3,242.729,26/125,70,102.0
3857,D5,242.896,1323/1000,102,102.0
3858,F#2,242.958,0.062,61,102.0
3859,G1,242.958,0.062,61,102.0
3860,B-4,242.958,0.062,61,102.0
3861,B3,242.979,177/1000,69,102.0
3862,F#2,243.208,0.062,43,102.0
3863,E-3,243.208,0.062,43,102.0
3864,B-4,243.208,0.062,43,102.0
3865,G1,243.219,0.219,90,102.0
3866,C4,243.219,0.219,90,102.0
3867,F#2,243.458,0.062,33,102.0
3868,B-4,243.458,0.062,33,102.0
3869,F#2,243.719,0.062,34,102.0
3870,B-4,243.719,0.062,34,102.0
3871,A3,243.729,229/1000,87,102.0
3872,G1,243.729,229/1000,87,102.0
3873,F#2,243.958,0.062,26,102.0
3874,B-4,243.958,0.062,26,102.0
3875,C4,243.99,73/500,71,102.0
3876,A1,244.219,73/250,106,102.0
3877,F#2,244.219,0.062,45,102.0
3878,E-3,244.219,0.062,45,102.0
3879,B-4,244.219,0.062,45,102.0
3880,E3,244.469,6/25,66,102.0
3881,F#2,244.469,0.062,34,102.0
3882,B-4,244.469,0.062,34,102.0
3883,G1,244.719,271/1000,109,102.0
3884,A3,244.719,99/500,67,102.0
3885,F#2,244.719,0.062,42,102.0
3886,B-4,244.719,0.062,42,102.0
3887,B1,244.969,0.062,64,102.0
3888,F#2,244.969,0.062,64,102.0
3889,B-4,244.969,0.062,64,102.0
3890,C4,244.99,0.188,71,102.0
3891,F#2,245.094,0.062,53,102.0
3892,A1,245.219,1/100,110,102.0
3893,B1,245.219,1/100,64,102.0
3894,F#2,245.219,1/100,64,102.0
3895,F#3,245.219,1/100,64,102.0
3896,E-3,245.219,1/100,64,102.0
3897,B-4,245.219,1/100,64,102.0
3898,A1,247.177,0.219,110,102.0
3899,B1,247.177,13/250,64,102.0
3900,F#2,247.177,13/250,64,102.0
3901,F#3,247.177,13/250,64,102.0
3902,E-3,247.177,13/250,64,102.0
3903,B-4,247.177,13/250,64,102.0
3904,G1,247.406,323/1000,107,102.0
3905,F#2,247.417,0.062,38,102.0
3906,B-4,247.417,0.062,38,102.0
3907,F#2,247.667,0.062,34,102.0
3908,B-4,247.667,0.062,34,102.0
3909,E3,247.688,0.156,67,102.0
3910,F#2,247.906,0.062,40,102.0
3911,B-4,247.906,0.062,40,102.0
3912,C4,247.938,73/500,72,102.0
3913,C#2,248.167,0.062,61,102.0
3914,F#2,248.167,0.062,61,102.0
3915,E-3,248.167,0.062,61,102.0
3916,B-4,248.167,0.062,61,102.0
3917,F#2,248.417,0.062,62,102.0
3918,G1,248.417,0.062,62,102.0
3919,B-4,248.417,0.062,62,102.0
3920,E3,248.427,26/125,67,102.0
3921,F#2,248.667,0.062,40,102.0
3922,B-4,248.667,0.062,40,102.0
3923,G1,248.667,177/1000,86,102.0
3924,B3,248.667,177/1000,86,102.0
3925,G1,248.906,0.156,88,102.0
3926,C4,248.906,0.156,88,102.0
3927,C#2,248.917,0.062,63,102.0
3928,F#2,248.917,0.062,63,102.0
3929,B-4,248.917,0.062,63,102.0
3930,F#3,249.146,2021/1000,68,102.0
3931,D4,249.146,2021/1000,68,102.0
3932,B3,249.146,2021/1000,68,102.0
3933,G1,249.167,0.281,108,102.0
3934,F#2,249.167,0.062,49,102.0
3935,B-4,249.167,0.062,49,102.0
3936,E-3,249.167,0.062,49,102.0
3937,D4,249.177,0.188,69,102.0
3938,F#2,249.406,0.062,34,102.0
3939,B-4,249.406,0.062,34,102.0
3940,C4,249.438,23/200,72,102.0
3941,C5,249.635,1167/1000,105,102.0
3942,G1,249.667,13/50,109,102.0
3943,F#2,249.667,0.062,40,102.0
3944,B-4,249.667,0.062,40,102.0
3945,F#2,249.906,0.062,36,102.0
3946,B-4,249.906,0.062,36,102.0
3947,A1,250.156,151/500,111,102.0
3948,F#2,250.167,0.062,54,102.0
3949,F#3,250.167,0.062,54,102.0
3950,E-3,250.167,0.062,54,102.0
3951,B-4,250.167,0.062,54,102.0
3952,F#2,250.417,0.062,46,102.0
3953,B-4,250.417,0.062,46,102.0
3954,E3,250.427,26/125,72,102.0
3955,B4,250.594,13/125,101,102.0
3956,B-2,250.667,0.062,46,102.0
3957,B-4,250.667,0.062,46,102.0
3958,G1,250.667,0.219,90,102.0
3959,A3,250.667,0.219,90,102.0
3960,B4,250.833,167/1000,101,102.0
3961,C5,250.896,0.281,104,102.0
3962,B3,250.938,167/1000,69,102.0
3963,B-4,250.938,0.062,30,102.0
3964,C5,251.094,83/1000,106,102.0
3965,C4,251.146,0.031,66,102.0
3966,G3,251.146,0.031,66,102.0
3967,A3,251.146,0.031,66,102.0
3968,A1,251.156,21/1000,111,102.0
3969,E4,251.156,21/1000,64,102.0
3970,A3,251.156,21/1000,64,102.0
3971,B1,251.167,1/100,66,102.0
3972,E-3,251.167,1/100,66,102.0
3973,F#2,251.167,1/100,66,102.0
3974,B-4,251.167,1/100,66,102.0
3975,C5,251.177,0.219,106,102.0
3976,C5,251.177,1.125,104,102.0
3977,A1,251.177,0.25,111,102.0
3978,B1,251.177,13/250,66,102.0
3979,E-3,251.177,13/250,66,102.0
3980,F#2,251.177,13/250,66,102.0
3981,B-4,251.177,13/250,66,102.0
3982,C4,251.177,5979/1000,66,102.0
3983,G3,251.177,5979/1000,66,102.0
3984,A3,251.177,5979/1000,66,102.0
3985,E4,251.177,599/100,64,102.0
3986,A3,251.177,599/100,64,102.0
3987,C4,251.188,0.062,60,102.0
3988,B-4,251.188,0.062,60,102.0
3989,D5,251.396,73/200,102,102.0
3990,G1,251.406,99/500,88,102.0
3991,C4,251.406,99/500,88,102.0
3992,F#2,251.417,0.062,35,102.0
3993,B-4,251.417,0.062,35,102.0
3994,F#2,251.667,0.062,40,102.0
3995,B-4,251.667,0.062,40,102.0
3996,B3,251.688,167/1000,70,102.0
3997,E5,251.885,0.469,107,102.0
3998,F#2,251.906,0.062,43,102.0
3999,B-4,251.906,0.062,43,102.0
4000,C4,251.927,0.062,50,102.0
4001,B-4,251.927,0.062,50,102.0
4002,E-3,252.156,0.062,64,102.0
4003,C#2,252.156,0.062,64,102.0
4004,F#2,252.156,0.062,64,102.0
4005,B-4,252.156,0.062,64,102.0
4006,C5,252.396,73/200,105,102.0
4007,G1,252.406,0.062,64,102.0
4008,F#2,252.406,0.062,64,102.0
4009,B-4,252.406,0.062,64,102.0
4010,E3,252.417,26/125,68,102.0
4011,G1,252.656,0.062,70,102.0
4012,A3,252.656,0.062,70,102.0
4013,B-4,252.656,0.062,70,102.0
4014,F#2,252.667,0.062,42,102.0
4015,B-4,252.667,0.062,42,102.0
4016,B4,252.906,729/1000,105,102.0
4017,G1,252.906,0.062,68,102.0
4018,B3,252.906,0.062,68,102.0
4019,B-4,252.906,0.062,68,102.0
4020,F#2,252.917,0.062,39,102.0
4021,B-4,252.917,0.062,39,102.0
4022,E-3,253.146,0.062,46,102.0
4023,F#2,253.146,0.062,46,102.0
4024,B-4,253.146,0.062,46,102.0
4025,G1,253.156,0.25,108,102.0
4026,C4,253.177,27/200,70,102.0
4027,F#2,253.406,0.062,36,102.0
4028,B-4,253.406,0.062,36,102.0
4029,C5,253.635,273/200,101,102.0
4030,G1,253.667,13/50,109,102.0
4031,F#2,253.667,0.062,40,102.0
4032,B-4,253.667,0.062,40,102.0
4033,A3,253.677,73/500,66,102.0
4034,F#2,253.917,0.062,37,102.0
4035,B-4,253.917,0.062,37,102.0
4036,C4,253.927,27/200,70,102.0
4037,E-3,254.156,0.062,53,102.0
4038,F#2,254.156,0.062,53,102.0
4039,F#3,254.156,0.062,53,102.0
4040,B-4,254.156,0.062,53,102.0
4041,A1,254.167,151/500,106,102.0
4042,F#2,254.417,0.062,36,102.0
4043,B-4,254.417,0.062,36,102.0
4044,E3,254.427,13/50,70,102.0
4045,F#2,254.656,0.062,41,102.0
4046,B-4,254.656,0.062,41,102.0
4047,G1,254.667,13/50,89,102.0
4048,A3,254.667,13/50,89,102.0
4049,F#2,254.906,0.062,62,102.0
4050,B-4,254.906,0.062,62,102.0
4051,B1,254.906,0.062,62,102.0
4052,C4,254.938,177/1000,72,102.0
4053,F#2,255.031,0.062,56,102.0
4054,F#2,255.156,21/1000,61,102.0
4055,E-3,255.156,21/1000,61,102.0
4056,B1,255.156,21/1000,61,102.0
4057,B-4,255.156,21/1000,61,102.0
4058,A1,255.167,1/100,108,102.0
4059,A1,257.167,229/1000,108,102.0
4060,F#2,257.167,21/500,61,102.0
4061,E-3,257.167,21/500,61,102.0
4062,B1,257.167,21/500,61,102.0
4063,B-4,257.167,21/500,61,102.0
4064,G1,257.406,151/500,100,102.0
4065,F#2,257.406,0.062,39,102.0
4066,B-4,257.406,0.062,39,102.0
4067,E3,257.427,177/1000,67,102.0
4068,A4,257.604,1427/1000,80,102.0
4069,E5,257.604,1427/1000,80,102.0
4070,F#2,257.656,0.062,45,102.0
4071,B-4,257.656,0.062,45,102.0
4072,F#2,257.906,0.062,39,102.0
4073,B-4,257.906,0.062,39,102.0
4074,C4,257.917,99/500,72,102.0
4075,C#2,258.156,0.062,63,102.0
4076,F#2,258.156,0.062,63,102.0
4077,E-3,258.156,0.062,63,102.0
4078,B-4,258.156,0.062,63,102.0
4079,E3,258.396,271/1000,67,102.0
4080,F#2,258.396,0.062,42,102.0
4081,B-4,258.396,0.062,42,102.0
4082,G1,258.406,27/200,107,102.0
4083,B3,258.656,167/1000,70,102.0
4084,F#2,258.656,0.062,62,102.0
4085,G1,258.656,0.062,62,102.0
4086,B-4,258.656,0.062,62,102.0
4087,F#2,258.906,0.062,40,102.0
4088,B-4,258.906,0.062,40,102.0
4089,G1,258.906,177/1000,88,102.0
4090,C4,258.906,177/1000,88,102.0
4091,D5,259.073,573/500,74,102.0
4092,A4,259.104,1229/1000,73,102.0
4093,F#3,259.135,201/100,68,102.0
4094,D4,259.135,201/100,68,102.0
4095,B3,259.135,201/100,68,102.0
4096,E-3,259.135,0.062,52,102.0
4097,F#2,259.135,0.062,52,102.0
4098,F#3,259.135,0.062,52,102.0
4099,B-4,259.135,0.062,52,102.0
4100,G1,259.156,0.188,88,102.0
4101,D4,259.156,0.188,88,102.0
4102,F#2,259.396,0.062,40,102.0
4103,B-4,259.396,0.062,40,102.0
4104,C4,259.427,0.156,72,102.0
4105,C#2,259.656,0.062,64,102.0
4106,F#2,259.656,0.062,64,102.0
4107,B-4,259.656,0.062,64,102.0
4108,G1,259.667,0.25,108,102.0
4109,F#2,259.906,0.062,44,102.0
4110,B-4,259.906,0.062,44,102.0
4111,B-2,260.146,0.062,53,102.0
4112,E-3,260.146,0.062,53,102.0
4113,B-4,260.146,0.062,53,102.0
4114,A1,260.156,0.281,107,102.0
4115,C5,260.323,21/500,62,102.0
4116,G4,260.354,0.062,56,102.0
4117,F#2,260.354,0.062,56,102.0
4118,E3,260.406,0.25,67,102.0
4119,B-4,260.427,0.062,30,102.0
4120,F4,260.49,73/1000,60,102.0
4121,E4,260.583,0.062,54,102.0
4122,B3,260.625,51/100,67,102.0
4123,F#2,260.656,0.062,46,102.0
4124,B-4,260.656,0.062,46,102.0
4125,G1,260.656,6/25,88,102.0
4126,A3,260.656,6/25,88,102.0
4127,E5,260.812,73/250,107,102.0
4128,F#2,260.896,0.062,36,102.0
4129,B-4,260.896,0.062,36,102.0
4130,B3,260.917,0.156,68,102.0
4131,C4,261.135,0.031,64,102.0
4132,G5,261.135,0.031,97,102.0
4133,A1,261.135,0.031,97,102.0
4134,C4,261.135,0.031,97,102.0
4135,E4,261.135,0.031,66,102.0
4136,C4,261.135,0.031,66,102.0
4137,G3,261.135,0.031,66,102.0
4138,A3,261.135,0.031,66,102.0
4139,E-3,261.146,21/1000,68,102.0
4140,B1,261.146,21/1000,68,102.0
4141,F#2,261.146,21/1000,68,102.0
4142,B-4,261.146,21/1000,68,102.0
4143,C4,261.167,151/500,64,102.0
4144,G5,261.167,0.094,97,102.0
4145,A1,261.167,0.094,97,102.0
4146,C4,261.167,0.094,97,102.0
4147,E-3,261.167,21/500,68,102.0
4148,B1,261.167,21/500,68,102.0
4149,F#2,261.167,21/500,68,102.0
4150,B-4,261.167,21/500,68,102.0
4151,E4,261.167,599/100,66,102.0
4152,C4,261.167,599/100,66,102.0
4153,G3,261.167,599/100,66,102.0
4154,A3,261.167,599/100,66,102.0
4155,G1,261.396,151/500,106,102.0
4156,F#2,261.406,0.062,30,102.0
4157,B-4,261.406,0.062,30,102.0
4158,C4,261.417,0.188,66,102.0
4159,G5,261.469,6/25,114,102.0
4160,C4,261.479,323/1000,66,102.0
4161,B-4,261.656,0.062,40,102.0
4162,F#2,261.656,0.062,40,102.0
4163,B3,261.677,167/1000,70,102.0
4164,E5,261.792,26/125,113,102.0
4165,B3,261.802,333/1000,66,102.0
4166,F#2,261.906,0.062,34,102.0
4167,B-4,261.906,0.062,34,102.0
4168,C4,261.927,0.156,69,102.0
4169,D5,262.073,99/500,107,102.0
4170,A3,262.135,73/250,61,102.0
4171,E-3,262.146,0.062,64,102.0
4172,C#2,262.146,0.062,64,102.0
4173,F#2,262.146,0.062,64,102.0
4174,B-4,262.146,0.062,64,102.0
4175,G1,262.406,27/200,105,102.0
4176,F#2,262.406,0.062,38,102.0
4177,B-4,262.406,0.062,38,102.0
4178,E3,262.427,0.188,68,102.0
4179,C5,262.427,323/1000,84,102.0
4180,G3,262.427,323/1000,84,102.0
4181,G1,262.656,0.156,75,102.0
4182,F#2,262.656,0.156,75,102.0
4183,A3,262.656,0.156,75,102.0
4184,B-4,262.656,0.062,46,102.0
4185,F#2,262.656,0.062,46,102.0
4186,D5,262.75,0.281,102,102.0
4187,A3,262.75,427/1000,65,102.0
4188,F#2,262.906,0.062,37,102.0
4189,B-4,262.906,0.062,37,102.0
4190,G1,262.906,0.156,88,102.0
4191,B3,262.906,0.156,88,102.0
4192,G1,263.156,271/1000,108,102.0
4193,E5,263.156,479/1000,84,102.0
4194,B3,263.156,479/1000,84,102.0
4195,F#2,263.156,0.062,54,102.0
4196,F#3,263.156,0.062,54,102.0
4197,E-3,263.156,0.062,54,102.0
4198,B-4,263.156,0.062,54,102.0
4199,C4,263.177,27/200,70,102.0
4200,F#2,263.406,0.062,34,102.0
4201,B-4,263.406,0.062,34,102.0
4202,G1,263.656,0.25,109,102.0
4203,F#2,263.656,0.062,41,102.0
4204,B-4,263.656,0.062,41,102.0
4205,E5,263.667,49/100,84,102.0
4206,B3,263.667,49/100,84,102.0
4207,A3,263.677,0.125,66,102.0
4208,F#2,263.917,0.062,34,102.0
4209,B-4,263.917,0.062,34,102.0
4210,C4,263.927,0.125,70,102.0
4211,A3,264.156,979/1000,58,102.0
4212,A1,264.156,0.281,107,102.0
4213,F#2,264.156,0.062,48,102.0
4214,E-3,264.156,0.062,48,102.0
4215,B-4,264.156,0.062,48,102.0
4216,D5,264.198,19/25,97,102.0
4217,F#2,264.406,0.062,38,102.0
4218,B-4,264.406,0.062,38,102.0
4219,E3,264.427,13/50,67,102.0
4220,F#2,264.656,0.062,46,102.0
4221,B-4,264.656,0.062,46,102.0
4222,G1,264.656,0.25,88,102.0
4223,A3,264.656,0.25,88,102.0
4224,F#2,264.896,0.062,64,102.0
4225,B1,264.896,0.062,64,102.0
4226,B-4,264.896,0.062,64,102.0
4227,C4,264.917,0.062,53,102.0
4228,B-4,264.917,0.062,53,102.0
4229,F#2,265.021,0.062,56,102.0
4230,F#2,265.146,21/1000,65,102.0
4231,B1,265.146,21/1000,65,102.0
4232,E-3,265.146,21/1000,65,102.0
4233,B-4,265.146,21/1000,65,102.0
4234,A1,265.156,1/100,108,102.0
4235,A1,267.156,6/25,108,102.0
4236,F#2,267.156,21/500,65,102.0
4237,B1,267.156,21/500,65,102.0
4238,E-3,267.156,21/500,65,102.0
4239,B-4,267.156,21/500,65,102.0
4240,G1,267.385,0.281,106,102.0
4241,F#2,267.406,0.062,38,102.0
4242,B-4,267.406,0.062,38,102.0
4243,E3,267.417,167/1000,67,102.0
4244,F#2,267.646,0.062,42,102.0
4245,B-4,267.646,0.062,42,102.0
4246,F#2,267.896,0.062,44,102.0
4247,B-4,267.896,0.062,44,102.0
4248,C4,267.906,167/1000,72,102.0
4249,A2,268.115,979/500,88,102.0
4250,E-3,268.135,0.062,65,102.0
4251,C#2,268.135,0.062,65,102.0
4252,F#2,268.135,0.062,65,102.0
4253,F#3,268.135,0.062,65,102.0
4254,B-4,268.135,0.062,65,102.0
4255,G1,268.385,0.062,68,102.0
4256,B-4,268.385,0.062,68,102.0
4257,F#2,268.396,0.062,34,102.0
4258,B-4,268.396,0.062,34,102.0
4259,E3,268.406,99/500,67,102.0
4260,F#2,268.646,0.062,40,102.0
4261,B-4,268.646,0.062,40,102.0
4262,G1,268.646,73/500,87,102.0
4263,B3,268.646,73/500,87,102.0
4264,F#2,268.885,0.062,40,102.0
4265,B-4,268.885,0.062,40,102.0
4266,G1,268.885,167/1000,88,102.0
4267,C4,268.885,167/1000,88,102.0
4268,F#3,269.125,979/500,68,102.0
4269,B3,269.125,979/500,68,102.0
4270,D4,269.125,979/500,68,102.0
4271,E-3,269.125,0.062,47,102.0
4272,F#2,269.125,0.062,47,102.0
4273,B-4,269.125,0.062,47,102.0
4274,G1,269.135,177/1000,88,102.0
4275,D4,269.135,177/1000,88,102.0
4276,F#2,269.396,0.062,36,102.0
4277,B-4,269.396,0.062,36,102.0
4278,C4,269.406,27/200,72,102.0
4279,G1,269.635,0.25,109,102.0
4280,F#2,269.646,0.062,38,102.0
4281,B-4,269.646,0.062,38,102.0
4282,F#2,269.896,0.062,36,102.0
4283,B-4,269.896,0.062,36,102.0
4284,A2,270.104,1.031,87,102.0
4285,E-3,270.125,0.062,47,102.0
4286,F#2,270.125,0.062,47,102.0
4287,B-4,270.125,0.062,47,102.0
4288,A1,270.135,0.281,107,102.0
4289,E3,270.385,13/50,70,102.0
4290,F#2,270.396,0.062,38,102.0
4291,B-4,270.396,0.062,38,102.0
4292,G1,270.635,0.188,89,102.0
4293,A3,270.635,0.188,89,102.0
4294,F#2,270.656,0.062,38,102.0
4295,B-4,270.656,0.062,38,102.0
4296,C5,270.802,73/250,105,102.0
4297,A3,270.823,333/1000,59,102.0
4298,F#2,270.896,0.062,37,102.0
4299,B-4,270.896,0.062,37,102.0
4300,B3,270.906,167/1000,69,102.0
4301,G5,271.125,0.031,82,102.0
4302,C4,271.125,0.031,82,102.0
4303,C4,271.125,0.031,70,102.0
4304,G3,271.125,0.031,70,102.0
4305,E4,271.125,0.031,70,102.0
4306,A3,271.125,0.031,70,102.0
4307,A2,271.125,0.031,70,102.0
4308,A1,271.135,21/1000,108,102.0
4309,E-3,271.135,21/1000,62,102.0
4310,B1,271.135,21/1000,62,102.0
4311,F#2,271.135,21/1000,62,102.0
4312,B-4,271.135,21/1000,62,102.0
4313,A1,271.156,229/1000,108,102.0
4314,A3,271.156,21/1000,59,102.0
4315,C4,271.156,0.062,58,102.0
4316,B-4,271.156,0.062,58,102.0
4317,G5,271.156,271/500,82,102.0
4318,C4,271.156,271/500,82,102.0
4319,C4,271.156,6.0,70,102.0
4320,G3,271.156,6.0,70,102.0
4321,E4,271.156,6.0,70,102.0
4322,A3,271.156,6.0,70,102.0
4323,A2,271.156,6.0,70,102.0
4324,E-3,271.156,21/500,62,102.0
4325,B1,271.156,21/500,62,102.0
4326,F#2,271.156,21/500,62,102.0
4327,B-4,271.156,21/500,62,102.0
4328,G1,271.385,0.281,106,102.0
4329,C4,271.396,99/500,71,102.0
4330,F#2,271.396,0.062,34,102.0
4331,B-4,271.396,0.062,34,102.0
4332,F#2,271.646,0.062,38,102.0
4333,B-4,271.646,0.062,38,102.0
4334,B3,271.667,0.156,69,102.0
4335,B3,271.75,729/1000,80,102.0
4336,F#5,271.75,729/1000,80,102.0
4337,C4,271.896,27/200,71,102.0
4338,F#2,271.896,0.062,32,102.0
4339,B-4,271.896,0.062,32,102.0
4340,E-3,272.125,0.062,66,102.0
4341,C#2,272.125,0.062,66,102.0
4342,F#2,272.125,0.062,66,102.0
4343,F#3,272.125,0.062,66,102.0
4344,B-4,272.125,0.062,66,102.0
4345,G1,272.385,0.188,87,102.0
4346,E3,272.385,0.188,87,102.0
4347,B-4,272.385,0.062,32,102.0
4348,F#2,272.385,0.062,32,102.0
4349,A3,272.479,0.625,80,102.0
4350,E5,272.479,0.625,80,102.0
4351,G1,272.646,167/1000,62,102.0
4352,B-4,272.646,167/1000,62,102.0
4353,F#2,272.646,167/1000,62,102.0
4354,A3,272.646,167/1000,62,102.0
4355,B3,272.896,177/1000,69,102.0
4356,F#2,272.896,0.062,58,102.0
4357,G1,272.896,0.062,58,102.0
4358,B-4,272.896,0.062,58,102.0
4359,G3,273.125,1.062,54,102.0
4360,D5,273.146,917/1000,95,102.0
4361,F#2,273.146,0.062,47,102.0
4362,E-3,273.146,0.062,47,102.0
4363,B-4,273.146,0.062,47,102.0
4364,G1,273.146,0.219,90,102.0
4365,C4,273.146,0.219,90,102.0
4366,F#2,273.396,0.062,36,102.0
4367,B-4,273.396,0.062,36,102.0
4368,B-4,273.635,0.062,39,102.0
4369,F#2,273.635,0.062,39,102.0
4370,G1,273.656,6/25,107,102.0
4371,A3,273.667,0.156,68,102.0
4372,F#2,273.906,0.062,40,102.0
4373,B-4,273.906,0.062,40,102.0
4374,C4,273.917,0.125,71,102.0
4375,E-3,274.135,0.062,50,102.0
4376,F#2,274.135,0.062,50,102.0
4377,B-4,274.135,0.062,50,102.0
4378,A1,274.146,271/1000,106,102.0
4379,A3,274.385,99/500,64,102.0
4380,E3,274.385,99/500,64,102.0
4381,C5,274.396,0.062,59,102.0
4382,F#2,274.396,0.062,59,102.0
4383,B-4,274.396,0.062,59,102.0
4384,C5,274.615,0.438,102,102.0
4385,A3,274.646,49/100,58,102.0
4386,F#2,274.646,0.062,41,102.0
4387,B-4,274.646,0.062,41,102.0
4388,G1,274.646,0.188,88,102.0
4389,A3,274.646,0.188,88,102.0
4390,B1,274.896,0.062,61,102.0
4391,F#2,274.896,0.062,61,102.0
4392,B-4,274.896,0.062,61,102.0
4393,C4,274.927,73/500,72,102.0
4394,B3,275.135,21/1000,84,102.0
4395,E5,275.135,21/1000,84,102.0
4396,E-3,275.135,21/1000,62,102.0
4397,B1,275.135,21/1000,62,102.0
4398,F#2,275.135,21/1000,62,102.0
4399,F#3,275.135,21/1000,62,102.0
4400,B-4,275.135,21/1000,62,102.0
4401,A1,275.146,1/100,108,102.0
4402,A1,277.156,6/25,108,102.0
4403,B3,277.156,151/250,84,102.0
4404,E5,277.156,151/250,84,102.0
4405,E-3,277.156,21/500,62,102.0
4406,B1,277.156,21/500,62,102.0
4407,F#2,277.156,21/500,62,102.0
4408,F#3,277.156,21/500,62,102.0
4409,B-4,277.156,21/500,62,102.0
4410,F#2,277.385,0.062,36,102.0
4411,B-4,277.385,0.062,36,102.0
4412,G1,277.396,271/1000,107,102.0
4413,F#2,277.635,0.062,40,102.0
4414,B-4,277.635,0.062,40,102.0
4415,E3,277.656,0.156,66,102.0
4416,A3,277.844,49/100,83,102.0
4417,D5,277.844,49/100,83,102.0
4418,F#2,277.896,0.062,42,102.0
4419,B-4,277.896,0.062,42,102.0
4420,C4,277.917,0.125,73,102.0
4421,E-3,278.125,0.062,62,102.0
4422,C#2,278.125,0.062,62,102.0
4423,F#2,278.125,0.062,62,102.0
4424,B-4,278.125,0.062,62,102.0
4425,G3,278.354,0.5,82,102.0
4426,C5,278.354,0.5,82,102.0
4427,G1,278.396,27/200,106,102.0
4428,E3,278.396,229/1000,69,102.0
4429,F#2,278.396,0.062,40,102.0
4430,B-4,278.396,0.062,40,102.0
4431,F#2,278.646,0.062,38,102.0
4432,B-4,278.646,0.062,38,102.0
4433,G1,278.646,0.188,89,102.0
4434,B3,278.646,0.188,89,102.0
4435,F#3,278.875,1.875,54,102.0
4436,F#2,278.896,0.062,40,102.0
4437,B-4,278.896,0.062,40,102.0
4438,G1,278.896,0.156,87,102.0
4439,C4,278.896,0.156,87,102.0
4440,B4,278.938,49/100,104,102.0
4441,F#3,279.135,1979/1000,67,102.0
4442,D4,279.135,1979/1000,67,102.0
4443,B3,279.135,1979/1000,67,102.0
4444,C#2,279.146,0.062,64,102.0
4445,F#2,279.146,0.062,64,102.0
4446,E-3,279.146,0.062,64,102.0
4447,B-4,279.146,0.062,64,102.0
4448,G1,279.146,0.188,90,102.0
4449,D4,279.146,0.188,90,102.0
4450,F#2,279.385,0.062,40,102.0
4451,B-4,279.385,0.062,40,102.0
4452,C4,279.417,0.156,86,102.0
4453,C5,279.417,0.156,86,102.0
4454,B4,279.583,0.156,99,102.0
4455,G1,279.646,271/1000,107,102.0
4456,B-4,279.646,0.062,40,102.0
4457,F#2,279.646,0.062,40,102.0
4458,A4,279.74,227/200,95,102.0
4459,B-4,279.896,0.062,48,102.0
4460,F#2,279.896,0.062,48,102.0
4461,E-3,280.135,0.062,50,102.0
4462,B-4,280.135,0.062,50,102.0
4463,B-2,280.135,0.062,50,102.0
4464,A1,280.146,271/1000,110,102.0
4465,B-4,280.396,0.062,36,102.0
4466,F#2,280.396,0.062,36,102.0
4467,E3,280.406,0.219,68,102.0
4468,G1,280.646,0.188,90,102.0
4469,A3,280.646,0.188,90,102.0
4470,B-4,280.646,0.062,44,102.0
4471,F#2,280.646,0.062,44,102.0
4472,B-4,280.896,0.062,42,102.0
4473,F#2,280.896,0.062,42,102.0
4474,B3,280.917,27/200,70,102.0
4475,C4,281.125,0.031,66,102.0
4476,A3,281.125,0.031,66,102.0
4477,E4,281.125,0.031,66,102.0
4478,G3,281.125,0.031,66,102.0
4479,E-3,281.135,21/1000,58,102.0
4480,B1,281.135,21/1000,58,102.0
4481,C#3,281.135,21/1000,58,102.0
4482,F#3,281.135,21/1000,58,102.0
4483,B-4,281.135,21/1000,58,102.0
4484,F#2,281.135,21/1000,58,102.0
4485,C4,281.156,5979/1000,66,102.0
4486,A3,281.156,5979/1000,66,102.0
4487,E4,281.156,5979/1000,66,102.0
4488,G3,281.156,5979/1000,66,102.0
4489,E-3,281.156,21/500,58,102.0
4490,B1,281.156,21/500,58,102.0
4491,C#3,281.156,21/500,58,102.0
4492,F#3,281.156,21/500,58,102.0
4493,B-4,281.156,21/500,58,102.0
4494,F#2,281.156,21/500,58,102.0
4495,A1,281.167,6/25,111,102.0
4496,C4,281.167,0.125,71,102.0
4497,G1,281.396,26/125,86,102.0
4498,C4,281.396,26/125,86,102.0
4499,F#2,281.406,0.062,38,102.0
4500,B-4,281.406,0.062,38,102.0
4501,G4,281.635,0.062,72,102.0
4502,F#2,281.635,0.062,72,102.0
4503,B-4,281.635,0.062,45,102.0
4504,F#2,281.635,0.062,45,102.0
4505,B3,281.667,26/125,66,102.0
4506,A4,281.885,0.156,55,102.0
4507,B-4,281.885,0.156,55,102.0
4508,F#2,281.885,0.156,55,102.0
4509,C4,281.885,0.156,55,102.0
4510,E5,282.135,3021/1000,84,102.0
4511,C5,282.146,13/50,86,102.0
4512,C#2,282.146,0.062,60,102.0
4513,F#2,282.146,0.062,60,102.0
4514,E-3,282.146,0.062,60,102.0
4515,B-4,282.146,0.062,60,102.0
4516,E3,282.396,0.188,70,102.0
4517,A4,282.396,13/50,79,102.0
4518,F#2,282.396,0.062,57,102.0
4519,G1,282.396,0.062,57,102.0
4520,B-4,282.396,0.062,57,102.0
4521,F#2,282.646,0.062,63,102.0
4522,G1,282.646,0.062,63,102.0
4523,B-4,282.646,0.062,63,102.0
4524,A3,282.656,99/500,72,102.0
4525,G4,282.656,0.125,74,102.0
4526,F#2,282.896,0.062,59,102.0
4527,G1,282.896,0.062,59,102.0
4528,B-4,282.896,0.062,59,102.0
4529,B3,282.896,0.156,76,102.0
4530,D5,282.896,0.156,76,102.0
4531,A4,282.896,0.156,76,102.0
4532,G1,283.146,99/500,90,102.0
4533,C4,283.146,99/500,90,102.0
4534,B-4,283.146,0.062,46,102.0
4535,F#2,283.146,0.062,46,102.0
4536,E-3,283.146,0.062,46,102.0
4537,F#2,283.396,0.062,36,102.0
4538,B-4,283.396,0.062,36,102.0
4539,F#2,283.646,0.062,38,102.0
4540,B-4,283.646,0.062,38,102.0
4541,G1,283.656,99/500,88,102.0
4542,A3,283.656,99/500,88,102.0
4543,F#2,283.896,0.062,35,102.0
4544,B-4,283.896,0.062,35,102.0
4545,C4,283.917,73/500,71,102.0
4546,F#2,284.146,0.062,47,102.0
4547,E-3,284.146,0.062,47,102.0
4548,B-4,284.146,0.062,47,102.0
4549,A1,284.156,0.25,109,102.0
4550,E3,284.396,0.25,69,102.0
4551,F#2,284.396,0.062,38,102.0
4552,B-4,284.396,0.062,38,102.0
4553,F#2,284.646,0.062,45,102.0
4554,B-4,284.646,0.062,45,102.0
4555,G1,284.646,333/1000,89,102.0
4556,A3,284.646,333/1000,89,102.0
4557,F#2,284.896,0.062,46,102.0
4558,B-4,284.896,0.062,46,102.0
4559,C4,284.917,73/500,67,102.0
4560,F#2,285.021,0.062,60,102.0
4561,A1,285.146,1/100,111,102.0
4562,B1,285.146,1/100,59,102.0
4563,F#2,285.146,1/100,59,102.0
4564,E-3,285.146,1/100,59,102.0
4565,B-4,285.146,1/100,59,102.0
4566,F#3,285.146,1/100,59,102.0
4567,E5,287.135,677/500,84,102.0
4568,A1,287.135,229/1000,111,102.0
4569,B1,287.135,13/250,59,102.0
4570,F#2,287.135,13/250,59,102.0
4571,E-3,287.135,13/250,59,102.0
4572,B-4,287.135,13/250,59,102.0
4573,F#3,287.135,13/250,59,102.0
4574,G1,287.365,0.281,107,102.0
4575,E3,287.375,99/500,65,102.0
4576,F#2,287.375,0.062,37,102.0
4577,B-4,287.375,0.062,37,102.0
4578,F#2,287.615,0.062,38,102.0
4579,B-4,287.615,0.062,38,102.0
4580,G4,287.635,27/200,91,102.0
4581,F#2,287.865,0.062,40,102.0
4582,B-4,287.865,0.062,40,102.0
4583,A4,287.875,0.156,75,102.0
4584,C4,287.875,0.156,75,102.0
4585,E-3,288.104,0.062,61,102.0
4586,F#2,288.104,0.062,61,102.0
4587,C#2,288.104,0.062,61,102.0
4588,B-4,288.104,0.062,61,102.0
4589,C5,288.146,6/25,85,102.0
4590,F#2,288.365,0.062,61,102.0
4591,G1,288.365,0.062,61,102.0
4592,B-4,288.365,0.062,61,102.0
4593,E3,288.375,13/50,74,102.0
4594,A4,288.375,13/50,74,102.0
4595,F#2,288.625,13/125,68,102.0
4596,G1,288.625,13/125,68,102.0
4597,B-4,288.625,13/125,68,102.0
4598,G4,288.625,13/125,68,102.0
4599,B3,288.635,99/500,69,102.0
4600,F#2,288.865,0.062,60,102.0
4601,G1,288.865,0.062,60,102.0
4602,B-4,288.865,0.062,60,102.0
4603,C4,288.875,6/25,70,102.0
4604,A4,289.094,0.906,109,102.0
4605,F#3,289.104,199/100,68,102.0
4606,D4,289.104,199/100,68,102.0
4607,B3,289.104,199/100,68,102.0
4608,E-3,289.115,0.062,47,102.0
4609,F#2,289.115,0.062,47,102.0
4610,B-4,289.115,0.062,47,102.0
4611,G1,289.125,0.219,90,102.0
4612,D4,289.125,0.219,90,102.0
4613,F#2,289.365,0.062,34,102.0
4614,B-4,289.365,0.062,34,102.0
4615,A4,289.385,0.062,70,102.0
4616,D5,289.385,0.062,70,102.0
4617,B-4,289.385,0.062,70,102.0
4618,C4,289.396,99/500,73,102.0
4619,G1,289.625,0.219,111,102.0
4620,C#2,289.625,0.062,61,102.0
4621,F#2,289.625,0.062,61,102.0
4622,B-4,289.625,0.062,61,102.0
4623,F#2,289.865,0.062,40,102.0
4624,B-4,289.865,0.062,40,102.0
4625,G4,289.948,0.125,77,102.0
4626,F4,290.021,23/200,72,102.0
4627,E4,290.083,0.062,61,102.0
4628,F#2,290.083,0.062,61,102.0
4629,F#3,290.083,0.062,61,102.0
4630,B-4,290.083,0.062,61,102.0
4631,A1,290.125,229/1000,110,102.0
4632,D4,290.167,0.062,58,102.0
4633,E-3,290.167,0.062,58,102.0
4634,F#2,290.375,0.062,59,102.0
4635,C5,290.375,0.062,59,102.0
4636,B-4,290.375,0.062,59,102.0
4637,F#4,290.375,0.062,63,102.0
4638,C5,290.375,0.062,63,102.0
4639,B-4,290.375,0.062,63,102.0
4640,E3,290.396,0.25,70,102.0
4641,A4,290.625,0.469,106,102.0
4642,B1,290.625,0.062,63,102.0
4643,B-2,290.625,0.062,63,102.0
4644,B-4,290.625,0.062,63,102.0
4645,G1,290.625,6/25,90,102.0
4646,A3,290.625,6/25,90,102.0
4647,B-4,290.875,0.062,30,102.0
4648,B3,290.885,26/125,71,102.0
4649,C4,291.115,21/1000,66,102.0
4650,E4,291.115,21/1000,66,102.0
4651,A3,291.115,21/1000,66,102.0
4652,G3,291.115,21/1000,68,102.0
4653,A3,291.115,21/1000,68,102.0
4654,A4,291.125,1/100,123,102.0
4655,B1,291.125,1/100,59,102.0
4656,F#2,291.125,1/100,59,102.0
4657,E-3,291.125,1/100,59,102.0
4658,B-4,291.125,1/100,59,102.0
4659,A1,291.125,1/100,90,102.0
4660,C4,291.125,1/100,90,102.0
4661,A4,291.135,833/1000,123,102.0
4662,C4,291.135,599/100,66,102.0
4663,E4,291.135,599/100,66,102.0
4664,A3,291.135,599/100,66,102.0
4665,G3,291.135,599/100,68,102.0
4666,A3,291.135,599/100,68,102.0
4667,B1,291.135,13/250,59,102.0
4668,F#2,291.135,13/250,59,102.0
4669,E-3,291.135,13/250,59,102.0
4670,B-4,291.135,13/250,59,102.0
4671,A1,291.135,27/200,90,102.0
4672,C4,291.135,27/200,90,102.0
4673,F#2,291.365,0.062,36,102.0
4674,B-4,291.365,0.062,36,102.0
4675,G1,291.365,0.219,89,102.0
4676,C4,291.365,0.219,89,102.0
4677,F#2,291.615,0.062,38,102.0
4678,B-4,291.615,0.062,38,102.0
4679,B3,291.635,26/125,70,102.0
4680,G4,291.844,6/25,84,102.0
4681,F#2,291.865,0.062,41,102.0
4682,B-4,291.865,0.062,41,102.0
4683,C4,291.885,0.125,69,102.0
4684,F4,292.021,177/1000,85,102.0
4685,F#2,292.115,0.062,62,102.0
4686,E-3,292.115,0.062,62,102.0
4687,B-4,292.115,0.062,62,102.0
4688,C#2,292.115,0.062,62,102.0
4689,E4,292.135,73/500,76,102.0
4690,D4,292.219,73/500,73,102.0
4691,C4,292.312,0.125,87,102.0
4692,G1,292.312,0.125,87,102.0
4693,F#2,292.375,0.062,31,102.0
4694,B-4,292.375,0.062,31,102.0
4695,E3,292.396,229/1000,67,102.0
4696,B3,292.406,73/500,67,102.0
4697,A4,292.615,349/500,77,102.0
4698,F#2,292.625,0.062,63,102.0
4699,G1,292.625,0.062,63,102.0
4700,B-4,292.625,0.062,63,102.0
4701,A3,292.635,229/1000,69,102.0
4702,G1,292.865,177/1000,63,102.0
4703,F#2,292.865,177/1000,63,102.0
4704,B-4,292.865,177/1000,63,102.0
4705,B3,292.865,177/1000,63,102.0
4706,E-3,293.104,0.062,49,102.0
4707,F#2,293.104,0.062,49,102.0
4708,B-4,293.104,0.062,49,102.0
4709,G1,293.125,0.281,108,102.0
4710,C4,293.135,0.156,73,102.0
4711,G4,293.229,99/500,40,102.0
4712,F4,293.365,167/1000,53,102.0
4713,F#2,293.385,0.062,35,102.0
4714,B-4,293.385,0.062,35,102.0
4715,E4,293.479,73/500,60,102.0
4716,D4,293.573,0.062,47,102.0
4717,F#2,293.573,0.062,47,102.0
4718,B-4,293.573,0.062,47,102.0
4719,G1,293.625,271/1000,109,102.0
4720,A3,293.646,0.094,59,102.0
4721,C4,293.646,0.094,59,102.0
4722,F#2,293.875,0.062,36,102.0
4723,B-4,293.875,0.062,36,102.0
4724,C4,293.896,167/1000,70,102.0
4725,E-3,294.104,0.062,55,102.0
4726,F#2,294.104,0.062,55,102.0
4727,B-4,294.104,0.062,55,102.0
4728,F#3,294.104,0.062,55,102.0
4729,A1,294.125,271/1000,110,102.0
4730,E3,294.375,26/125,64,102.0
4731,F#2,294.375,0.062,40,102.0
4732,B-4,294.375,0.062,40,102.0
4733,B-4,294.615,0.062,42,102.0
4734,F#2,294.615,0.062,42,102.0
4735,G1,294.625,0.281,107,102.0
4736,A3,294.625,0.188,68,102.0
4737,F#2,294.875,0.062,61,102.0
4738,B-4,294.875,0.062,61,102.0
4739,B1,294.875,0.062,61,102.0
4740,C4,294.896,0.125,72,102.0
4741,F#2,295.0,0.062,53,102.0
4742,E-3,295.104,0.031,60,102.0
4743,B-4,295.104,0.031,60,102.0
4744,B1,295.104,0.031,60,102.0
4745,F#2,295.104,0.031,60,102.0
4746,A1,295.125,1/100,111,102.0
4747,A1,297.125,0.219,111,102.0
4748,E-3,297.125,0.031,60,102.0
4749,B-4,297.125,0.031,60,102.0
4750,B1,297.125,0.031,60,102.0
4751,F#2,297.125,0.031,60,102.0
4752,G1,297.344,0.312,106,102.0
4753,F#2,297.365,0.062,37,102.0
4754,B-4,297.365,0.062,37,102.0
4755,E3,297.385,167/1000,67,102.0
4756,F#2,297.604,0.062,39,102.0
4757,B-4,297.604,0.062,39,102.0
4758,F#2,297.854,0.062,40,102.0
4759,B-4,297.854,0.062,40,102.0
4760,C4,297.875,0.188,74,102.0
4761,C#2,298.104,0.062,60,102.0
4762,F#2,298.104,0.062,60,102.0
4763,E-3,298.104,0.062,60,102.0
4764,B-4,298.104,0.062,60,102.0
4765,F#2,298.354,23/200,59,102.0
4766,B-4,298.354,23/200,59,102.0
4767,G1,298.354,23/200,59,102.0
4768,E3,298.365,0.25,68,102.0
4769,B-4,298.594,13/125,61,102.0
4770,F#2,298.594,13/125,61,102.0
4771,G1,298.594,13/125,61,102.0
4772,B3,298.615,167/1000,69,102.0
4773,F#2,298.854,23/200,58,102.0
4774,B-4,298.854,23/200,58,102.0
4775,G1,298.854,23/200,58,102.0
4776,C4,298.865,26/125,69,102.0
4777,F#3,299.094,1927/1000,70,102.0
4778,B3,299.094,1927/1000,70,102.0
4779,D4,299.094,1927/1000,70,102.0
4780,B-4,299.104,0.062,55,102.0
4781,F#2,299.104,0.062,55,102.0
4782,F#3,299.104,0.062,55,102.0
4783,E-3,299.104,0.062,55,102.0
4784,G1,299.115,0.156,90,102.0
4785,D4,299.115,0.156,90,102.0
4786,B-4,299.344,0.062,38,102.0
4787,F#2,299.344,0.062,38,102.0
4788,C4,299.375,0.156,72,102.0
4789,B-4,299.604,0.062,43,102.0
4790,F#2,299.604,0.062,43,102.0
4791,G1,299.615,229/1000,109,102.0
4792,B-4,299.865,0.062,48,102.0
4793,F#2,299.865,0.062,48,102.0
4794,E-3,300.104,0.062,50,102.0
4795,B-2,300.104,0.062,50,102.0
4796,B-4,300.104,0.062,50,102.0
4797,A1,300.135,0.25,108,102.0
4798,E3,300.365,6/25,74,102.0
4799,F#2,300.365,0.062,40,102.0
4800,B-4,300.365,0.062,40,102.0
4801,F#2,300.615,0.062,41,102.0
4802,B-4,300.615,0.062,41,102.0
4803,G1,300.615,0.219,90,102.0
4804,A3,300.615,0.219,90,102.0
4805,F#2,300.854,0.062,44,102.0
4806,B-4,300.854,0.062,44,102.0
4807,B3,300.885,0.125,77,102.0
4808,E4,301.094,0.031,67,102.0
4809,G3,301.094,0.031,67,102.0
4810,C4,301.094,0.031,67,102.0
4811,A3,301.094,0.031,67,102.0
4812,E-3,301.104,21/1000,59,102.0
4813,B1,301.104,21/1000,59,102.0
4814,B-4,301.104,21/1000,59,102.0
4815,C#3,301.104,21/1000,59,102.0
4816,F#2,301.104,21/1000,59,102.0
4817,A1,301.115,1/100,111,102.0
4818,C4,301.115,1/100,59,102.0
4819,C#3,301.115,1/100,59,102.0
4820,F#2,301.115,1/100,59,102.0
4821,A1,301.125,0.219,111,102.0
4822,E4,301.125,599/100,67,102.0
4823,G3,301.125,599/100,67,102.0
4824,C4,301.125,599/100,67,102.0
4825,A3,301.125,599/100,67,102.0
4826,E-3,301.125,21/500,59,102.0
4827,B1,301.125,21/500,59,102.0
4828,B-4,301.125,21/500,59,102.0
4829,C#3,301.125,21/500,59,102.0
4830,F#2,301.125,21/500,59,102.0
4831,C4,301.125,13/250,59,102.0
4832,C#3,301.125,13/250,59,102.0
4833,F#2,301.125,13/250,59,102.0
4834,G1,301.354,99/500,90,102.0
4835,C4,301.354,99/500,90,102.0
4836,F#2,301.365,0.062,38,102.0
4837,B-4,301.365,0.062,38,102.0
4838,F#2,301.615,0.062,44,102.0
4839,B-4,301.615,0.062,44,102.0
4840,G4,301.625,177/1000,84,102.0
4841,B3,301.625,177/1000,84,102.0
4842,F#2,301.865,0.062,40,102.0
4843,B-4,301.865,0.062,40,102.0
4844,C4,301.875,0.125,72,102.0
4845,A4,301.875,0.125,72,102.0
4846,E-3,302.094,0.062,59,102.0
4847,C#2,302.094,0.062,59,102.0
4848,F#2,302.094,0.062,59,102.0
4849,B-4,302.094,0.062,59,102.0
4850,C5,302.135,6/25,85,102.0
4851,E3,302.365,26/125,71,102.0
4852,F#2,302.365,0.062,60,102.0
4853,G1,302.365,0.062,60,102.0
4854,B-4,302.365,0.062,60,102.0
4855,A4,302.385,0.281,80,102.0
4856,A3,302.615,26/125,71,102.0
4857,G4,302.615,27/200,75,102.0
4858,F#2,302.615,0.062,64,102.0
4859,G1,302.615,0.062,64,102.0
4860,B-4,302.615,0.062,64,102.0
4861,F#2,302.865,0.062,59,102.0
4862,G1,302.865,0.062,59,102.0
4863,B-4,302.865,0.062,59,102.0
4864,B3,302.865,0.156,78,102.0
4865,A4,302.865,0.156,78,102.0
4866,D5,302.865,0.156,78,102.0
4867,E-3,303.104,0.062,51,102.0
4868,F#2,303.104,0.062,51,102.0
4869,B-4,303.104,0.062,51,102.0
4870,F#3,303.104,0.062,51,102.0
4871,G1,303.115,99/500,92,102.0
4872,C4,303.115,99/500,92,102.0
4873,B-4,303.365,0.062,36,102.0
4874,F#2,303.365,0.062,36,102.0
4875,F#2,303.615,0.062,44,102.0
4876,B-4,303.615,0.062,44,102.0
4877,G1,303.615,0.188,90,102.0
4878,A3,303.615,0.188,90,102.0
4879,F#2,303.865,0.062,37,102.0
4880,B-4,303.865,0.062,37,102.0
4881,C4,303.885,0.188,72,102.0
4882,E-3,304.104,0.062,45,102.0
4883,F#2,304.104,0.062,45,102.0
4884,B-4,304.104,0.062,45,102.0
4885,A1,304.115,13/50,109,102.0
4886,F#2,304.365,0.062,38,102.0
4887,B-4,304.365,0.062,38,102.0
4888,E3,304.375,0.188,70,102.0
4889,G1,304.604,99/500,89,102.0
4890,A3,304.604,99/500,89,102.0
4891,F#2,304.615,0.062,49,102.0
4892,B-4,304.615,0.062,49,102.0
4893,F#2,304.854,0.062,58,102.0
4894,B1,304.854,0.062,58,102.0
4895,B-4,304.854,0.062,58,102.0
4896,C4,304.885,73/500,75,102.0
4897,F#2,304.99,0.062,57,102.0
4898,E-3,305.073,13/250,59,102.0
4899,B1,305.073,13/250,59,102.0
4900,F#2,305.073,13/250,59,102.0
4901,B-4,305.073,13/250,59,102.0
4902,A1,305.115,1/100,112,102.0
4903,A1,307.115,229/1000,112,102.0
4904,E-3,307.115,1/100,59,102.0
4905,B1,307.115,1/100,59,102.0
4906,F#2,307.115,1/100,59,102.0
4907,B-4,307.115,1/100,59,102.0
4908,F#2,307.344,0.062,34,102.0
4909,B-4,307.344,0.062,34,102.0
4910,G1,307.354,26/125,88,102.0
4911,E3,307.354,26/125,88,102.0
4912,B-4,307.594,0.062,40,102.0
4913,F#2,307.594,0.062,40,102.0
4914,G4,307.604,167/1000,92,102.0
4915,F#2,307.844,0.062,42,102.0
4916,B-4,307.844,0.062,42,102.0
4917,A4,307.844,167/1000,74,102.0
4918,C4,307.844,167/1000,74,102.0
4919,F#2,308.094,0.062,62,102.0
4920,E-3,308.094,0.062,62,102.0
4921,B-4,308.094,0.062,62,102.0
4922,C#2,308.094,0.062,62,102.0
4923,F#3,308.094,0.062,62,102.0
4924,C5,308.104,13/50,81,102.0
4925,F#2,308.344,13/125,65,102.0
4926,B-4,308.344,13/125,65,102.0
4927,G1,308.344,13/125,65,102.0
4928,A4,308.344,271/1000,70,102.0
4929,E3,308.344,271/1000,70,102.0
4930,F#2,308.594,13/125,68,102.0
4931,B-4,308.594,13/125,68,102.0
4932,G1,308.594,13/125,68,102.0
4933,G4,308.594,13/125,68,102.0
4934,B3,308.625,0.156,70,102.0
4935,B-4,308.844,23/200,70,102.0
4936,C#2,308.844,23/200,70,102.0
4937,F#2,308.844,23/200,70,102.0
4938,G1,308.844,23/200,70,102.0
4939,C4,308.854,26/125,71,102.0
4940,F#3,309.083,1917/1000,70,102.0
4941,B3,309.083,1917/1000,70,102.0
4942,D4,309.083,1917/1000,70,102.0
4943,F#2,309.104,0.062,45,102.0
4944,B-4,309.104,0.062,45,102.0
4945,E-3,309.104,0.062,45,102.0
4946,G1,309.104,167/1000,90,102.0
4947,D4,309.104,167/1000,90,102.0
4948,F#2,309.344,0.062,38,102.0
4949,B-4,309.344,0.062,38,102.0
4950,C4,309.354,0.125,83,102.0
4951,A4,309.354,0.125,83,102.0
4952,D5,309.354,0.125,83,102.0
4953,E5,309.573,0.531,83,102.0
4954,G1,309.604,0.25,110,102.0
4955,F#2,309.604,0.062,37,102.0
4956,B-4,309.604,0.062,37,102.0
4957,F#2,309.854,0.062,39,102.0
4958,B-4,309.854,0.062,39,102.0
4959,A1,310.104,13/50,109,102.0
4960,F#2,310.104,0.062,43,102.0
4961,B-4,310.104,0.062,43,102.0
4962,E-3,310.104,0.062,43,102.0
4963,E5,310.115,1.0,86,102.0
4964,E3,310.354,0.281,69,102.0
4965,F#2,310.354,0.062,36,102.0
4966,B-4,310.354,0.062,36,102.0
4967,C5,310.375,23/200,82,102.0
4968,F#4,310.375,23/200,82,102.0
4969,F#2,310.604,0.062,44,102.0
4970,B-4,310.604,0.062,44,102.0
4971,G1,310.604,99/500,90,102.0
4972,A3,310.604,99/500,90,102.0
4973,F#2,310.854,0.062,61,102.0
4974,B1,310.854,0.062,61,102.0
4975,B-4,310.854,0.062,61,102.0
4976,B3,310.865,167/1000,71,102.0
4977,C4,311.083,0.031,67,102.0
4978,G3,311.083,0.031,67,102.0
4979,E4,311.083,0.031,67,102.0
4980,A3,311.083,0.031,67,102.0
4981,A1,311.094,21/1000,110,102.0
4982,B5,311.104,1/100,94,102.0
4983,F#2,311.104,1/100,60,102.0
4984,E-3,311.104,1/100,60,102.0
4985,B-4,311.104,1/100,60,102.0
4986,B1,311.104,1/100,60,102.0
4987,A1,311.115,0.219,110,102.0
4988,E5,311.115,13/125,86,102.0
4989,B5,311.115,5.219,94,102.0
4990,C4,311.115,0.062,83,102.0
4991,B1,311.115,0.062,83,102.0
4992,C4,311.115,6.0,67,102.0
4993,G3,311.115,6.0,67,102.0
4994,E4,311.115,6.0,67,102.0
4995,A3,311.115,6.0,67,102.0
4996,F#2,311.115,13/250,60,102.0
4997,E-3,311.115,13/250,60,102.0
4998,B-4,311.115,13/250,60,102.0
4999,B1,311.115,13/250,60,102.0
5000,G1,311.344,99/500,90,102.0
5001,C4,311.344,99/500,90,102.0
5002,F#2,311.365,0.062,40,102.0
5003,B-4,311.365,0.062,40,102.0
5004,B3,311.604,99/500,71,102.0
5005,F#2,311.604,0.062,44,102.0
5006,B-4,311.604,0.062,44,102.0
5007,F#2,311.854,0.062,40,102.0
5008,B-4,311.854,0.062,40,102.0
5009,C4,311.854,0.062,54,102.0
5010,B-4,311.854,0.062,54,102.0
5011,E-3,312.094,0.062,63,102.0
5012,F#3,312.094,0.062,63,102.0
5013,B-4,312.094,0.062,63,102.0
5014,F#2,312.094,0.062,63,102.0
5015,C#2,312.094,0.062,63,102.0
5016,F#2,312.344,0.062,39,102.0
5017,B-4,312.344,0.062,39,102.0
5018,G1,312.354,0.062,72,102.0
5019,E3,312.354,0.062,72,102.0
5020,B-4,312.354,0.062,72,102.0
5021,F#2,312.604,0.062,63,102.0
5022,G1,312.604,0.062,63,102.0
5023,B-4,312.604,0.062,63,102.0
5024,A3,312.625,177/1000,72,102.0
5025,G1,312.854,177/1000,66,102.0
5026,B-4,312.854,177/1000,66,102.0
5027,F#2,312.854,177/1000,66,102.0
5028,B3,312.854,177/1000,66,102.0
5029,E-3,313.094,0.062,46,102.0
5030,F#2,313.094,0.062,46,102.0
5031,B-4,313.094,0.062,46,102.0
5032,G1,313.104,0.25,108,102.0
5033,C4,313.115,0.156,72,102.0
5034,F#2,313.354,0.062,40,102.0
5035,B-4,313.354,0.062,40,102.0
5036,F#2,313.604,0.062,42,102.0
5037,B-4,313.604,0.062,42,102.0
5038,G1,313.604,99/500,88,102.0
5039,A3,313.604,99/500,88,102.0
5040,F#2,313.844,0.062,40,102.0
5041,B-4,313.844,0.062,40,102.0
5042,C4,313.875,6/25,72,102.0
5043,E-3,314.083,0.062,48,102.0
5044,F#2,314.083,0.062,48,102.0
5045,B-4,314.083,0.062,48,102.0
5046,A1,314.104,13/50,107,102.0
5047,F#2,314.344,0.062,42,102.0
5048,B-4,314.344,0.062,42,102.0
5049,E3,314.375,0.188,67,102.0
5050,F#2,314.604,0.062,41,102.0
5051,B-4,314.604,0.062,41,102.0
5052,G1,314.604,0.25,88,102.0
5053,A3,314.604,0.25,88,102.0
5054,F#2,314.844,0.062,39,102.0
5055,B-4,314.844,0.062,39,102.0
5056,B3,314.865,99/500,70,102.0
5057,B1,315.104,1/100,63,102.0
5058,F#2,315.104,1/100,63,102.0
5059,F#3,315.104,1/100,63,102.0
5060,E-3,315.104,1/100,63,102.0
5061,B-4,315.104,1/100,63,102.0
5062,A1,315.104,1/100,90,102.0
5063,C4,315.104,1/100,90,102.0
5064,B1,317.115,13/250,63,102.0
5065,F#2,317.115,13/250,63,102.0
5066,F#3,317.115,13/250,63,102.0
5067,E-3,317.115,13/250,63,102.0
5068,B-4,317.115,13/250,63,102.0
5069,A1,317.115,177/1000,90,102.0
5070,C4,317.115,177/1000,90,102.0
5071,G1,317.354,13/50,106,102.0
5072,F#2,317.354,0.062,34,102.0
5073,B-4,317.354,0.062,34,102.0
5074,E3,317.604,177/1000,66,102.0
5075,F#2,317.604,0.062,42,102.0
5076,B-4,317.604,0.062,42,102.0
5077,F#2,317.854,0.062,37,102.0
5078,B-4,317.854,0.062,37,102.0
5079,C4,317.865,99/500,75,102.0
5080,B-4,318.094,0.062,63,102.0
5081,C#2,318.094,0.062,63,102.0
5082,F#2,318.094,0.062,63,102.0
5083,E-3,318.094,0.062,63,102.0
5084,F#2,318.354,0.062,60,102.0
5085,G1,318.354,0.062,60,102.0
5086,B-4,318.354,0.062,60,102.0
5087,E3,318.365,323/1000,68,102.0
5088,F#2,318.604,0.062,63,102.0
5089,G1,318.604,0.062,63,102.0
5090,B-4,318.604,0.062,63,102.0
5091,B3,318.615,26/125,72,102.0
5092,F#2,318.844,0.062,60,102.0
5093,G1,318.844,0.062,60,102.0
5094,B-4,318.844,0.062,60,102.0
5095,C4,318.865,99/500,70,102.0
5096,A4,319.062,0.375,100,102.0
5097,F#3,319.083,2.031,69,102.0
5098,D4,319.083,2.031,69,102.0
5099,B3,319.083,2.031,69,102.0
5100,E-3,319.083,0.062,51,102.0
5101,F#2,319.083,0.062,51,102.0
5102,B-4,319.083,0.062,51,102.0
5103,G1,319.104,26/125,88,102.0
5104,D4,319.104,26/125,88,102.0
5105,C5,319.333,177/500,89,102.0
5106,F#2,319.344,0.062,36,102.0
5107,B-4,319.344,0.062,36,102.0
5108,C4,319.375,73/500,75,102.0
5109,A4,319.594,229/500,89,102.0
5110,B-4,319.594,0.062,45,102.0
5111,F#2,319.594,0.062,45,102.0
5112,G1,319.615,0.219,111,102.0
5113,B-4,319.854,0.062,47,102.0
5114,F#2,319.854,0.062,47,102.0
5115,A4,320.073,979/1000,89,102.0
5116,E-3,320.094,0.062,51,102.0
5117,B-2,320.094,0.062,51,102.0
5118,B-4,320.094,0.062,51,102.0
5119,A1,320.104,0.219,110,102.0
5120,E3,320.354,0.25,72,102.0
5121,F#2,320.354,0.062,47,102.0
5122,B-4,320.354,0.062,47,102.0
5123,F#2,320.604,0.062,44,102.0
5124,B-4,320.604,0.062,44,102.0
5125,G1,320.604,99/500,90,102.0
5126,A3,320.604,99/500,90,102.0
5127,C5,320.844,0.062,72,102.0
5128,B1,320.844,0.062,72,102.0
5129,F#2,320.844,0.062,72,102.0
5130,B-4,320.844,0.062,72,102.0
5131,B3,320.865,99/500,72,102.0
5132,C5,321.073,21/500,100,102.0
5133,C4,321.083,0.031,65,102.0
5134,C#3,321.083,0.031,61,102.0
5135,E-3,321.083,0.031,61,102.0
5136,F#3,321.083,0.031,61,102.0
5137,B-4,321.083,0.031,61,102.0
5138,B1,321.083,0.031,61,102.0
5139,A4,321.094,21/1000,96,102.0
5140,E4,321.094,21/1000,63,102.0
5141,G3,321.094,21/1000,63,102.0
5142,A3,321.094,21/1000,63,102.0
5143,A1,321.104,1/100,90,102.0
5144,C4,321.104,1/100,90,102.0
5145,C5,321.115,77/200,100,102.0
5146,C4,321.115,5917/1000,65,102.0
5147,A4,321.115,521/500,96,102.0
5148,C#3,321.115,0.031,61,102.0
5149,E-3,321.115,0.031,61,102.0
5150,F#3,321.115,0.031,61,102.0
5151,B-4,321.115,0.031,61,102.0
5152,B1,321.115,0.031,61,102.0
5153,E4,321.115,6.0,63,102.0
5154,G3,321.115,6.0,63,102.0
5155,A3,321.115,6.0,63,102.0
5156,A1,321.115,0.125,90,102.0
5157,C4,321.115,0.125,90,102.0
5158,F#2,321.344,0.062,33,102.0
5159,B-4,321.344,0.062,33,102.0
5160,G1,321.354,99/500,89,102.0
5161,C4,321.354,99/500,89,102.0
5162,C5,321.594,0.375,98,102.0
5163,F#2,321.594,0.062,41,102.0
5164,B-4,321.594,0.062,41,102.0
5165,B3,321.615,26/125,69,102.0
5166,F#2,321.844,0.062,40,102.0
5167,B-4,321.844,0.062,40,102.0
5168,C4,321.854,26/125,70,102.0
5169,G4,322.031,167/1000,85,102.0
5170,C5,322.031,167/1000,85,102.0
5171,E-3,322.083,0.062,61,102.0
5172,F#2,322.083,0.062,61,102.0
5173,C#2,322.083,0.062,61,102.0
5174,B-4,322.083,0.062,61,102.0
5175,F4,322.198,167/1000,65,102.0
5176,E4,322.302,23/200,71,102.0
5177,F#2,322.302,23/200,71,102.0
5178,G1,322.302,23/200,71,102.0
5179,C5,322.344,0.406,100,102.0
5180,E3,322.354,0.156,66,102.0
5181,D4,322.354,0.156,66,102.0
5182,B-4,322.365,0.062,33,102.0
5183,C4,322.49,0.156,60,102.0
5184,B3,322.583,0.062,70,102.0
5185,G1,322.583,0.062,70,102.0
5186,A3,322.583,0.062,70,102.0
5187,B-4,322.583,0.062,70,102.0
5188,F#2,322.604,0.062,68,102.0
5189,G1,322.604,0.062,68,102.0
5190,B-4,322.604,0.062,68,102.0
5191,D5,322.823,1229/1000,103,102.0
5192,B3,322.854,177/1000,71,102.0
5193,F#2,322.854,0.062,60,102.0
5194,G1,322.854,0.062,60,102.0
5195,B-4,322.854,0.062,60,102.0
5196,G1,323.104,0.25,109,102.0
5197,C4,323.104,167/1000,71,102.0
5198,F#2,323.104,0.062,49,102.0
5199,E-3,323.104,0.062,49,102.0
5200,B-4,323.104,0.062,49,102.0
5201,F#2,323.354,0.062,36,102.0
5202,B-4,323.354,0.062,36,102.0
5203,F#2,323.604,0.062,41,102.0
5204,B-4,323.604,0.062,41,102.0
5205,G1,323.604,167/1000,88,102.0
5206,A3,323.604,167/1000,88,102.0
5207,B-4,323.844,0.062,36,102.0
5208,F#2,323.844,0.062,36,102.0
5209,C4,323.875,167/1000,71,102.0
5210,E-3,324.094,0.062,52,102.0
5211,F#2,324.094,0.062,52,102.0
5212,F#3,324.094,0.062,52,102.0
5213,B-4,324.094,0.062,52,102.0
5214,A1,324.115,271/1000,110,102.0
5215,B-4,324.344,0.062,42,102.0
5216,F#2,324.344,0.062,42,102.0
5217,E3,324.375,177/1000,66,102.0
5218,G1,324.604,13/50,109,102.0
5219,B-2,324.604,0.062,49,102.0
5220,B-4,324.604,0.062,49,102.0
5221,A3,324.625,167/1000,67,102.0
5222,B-4,324.844,0.062,56,102.0
5223,B1,324.844,0.062,56,102.0
5224,C4,324.875,27/200,72,102.0
5225,B-4,325.094,21/1000,62,102.0
5226,B1,325.094,21/1000,62,102.0
5227,E-3,325.094,21/1000,62,102.0
5228,F#2,325.094,21/1000,62,102.0
5229,A1,325.104,1/100,111,102.0
5230,A1,327.115,229/1000,111,102.0
5231,B-4,327.115,21/500,62,102.0
5232,B1,327.115,21/500,62,102.0
5233,E-3,327.115,21/500,62,102.0
5234,F#2,327.115,21/500,62,102.0
5235,G1,327.344,73/250,107,102.0
5236,E3,327.354,0.188,71,102.0
5237,F#2,327.354,0.062,38,102.0
5238,B-4,327.354,0.062,38,102.0
5239,B-4,327.594,0.062,43,102.0
5240,F#2,327.594,0.062,43,102.0
5241,C4,327.854,0.188,74,102.0
5242,F#2,327.854,0.062,32,102.0
5243,B-4,327.854,0.062,32,102.0
5244,C#2,328.104,0.062,60,102.0
5245,F#2,328.104,0.062,60,102.0
5246,E-3,328.104,0.062,60,102.0
5247,B-4,328.104,0.062,60,102.0
5248,E3,328.354,333/1000,67,102.0
5249,F#2,328.354,0.062,58,102.0
5250,G1,328.354,0.062,58,102.0
5251,B-4,328.354,0.062,58,102.0
5252,G1,328.604,0.062,62,102.0
5253,B3,328.604,0.062,62,102.0
5254,B-4,328.604,0.062,62,102.0
5255,F#2,328.604,0.062,62,102.0
5256,C4,328.854,0.188,71,102.0
5257,G1,328.854,0.062,69,102.0
5258,F#2,328.854,0.062,69,102.0
5259,B-4,328.854,0.062,69,102.0
5260,F#2,328.99,0.062,56,102.0
5261,F#3,329.083,979/500,67,102.0
5262,B3,329.083,979/500,67,102.0
5263,D4,329.083,979/500,67,102.0
5264,E-3,329.094,0.062,54,102.0
5265,F#2,329.094,0.062,54,102.0
5266,B-4,329.094,0.062,54,102.0
5267,G1,329.104,0.281,108,102.0
5268,D4,329.115,177/1000,72,102.0
5269,B-4,329.354,0.062,38,102.0
5270,F#2,329.354,0.062,38,102.0
5271,C4,329.365,0.062,58,102.0
5272,F#2,329.365,0.062,58,102.0
5273,B-4,329.604,0.062,46,102.0
5274,F#2,329.604,0.062,46,102.0
5275,G1,329.615,0.281,108,102.0
5276,B-4,329.844,0.062,48,102.0
5277,F#2,329.844,0.062,48,102.0
5278,F#2,329.979,0.062,58,102.0
5279,E-3,330.094,0.062,67,102.0
5280,C#2,330.094,0.062,67,102.0
5281,F#2,330.094,0.062,67,102.0
5282,B-4,330.094,0.062,67,102.0
5283,F#3,330.094,0.062,67,102.0
5284,A1,330.104,6/25,110,102.0
5285,E3,330.354,0.25,70,102.0
5286,F#2,330.354,0.062,40,102.0
5287,B-4,330.354,0.062,40,102.0
5288,B4,330.552,0.062,68,102.0
5289,F#2,330.552,0.062,68,102.0
5290,B-4,330.552,0.062,68,102.0
5291,G1,330.604,99/500,90,102.0
5292,A3,330.604,99/500,90,102.0
5293,B4,330.802,26/125,105,102.0
5294,F#2,330.844,0.062,60,102.0
5295,B-4,330.844,0.062,60,102.0
5296,B1,330.844,0.062,60,102.0
5297,B3,330.865,0.188,71,102.0
5298,C5,331.094,21/1000,111,102.0
5299,A1,331.094,21/1000,111,102.0
5300,C4,331.094,21/1000,65,102.0
5301,G3,331.094,21/1000,65,102.0
5302,E4,331.094,21/1000,65,102.0
5303,A3,331.094,21/1000,65,102.0
5304,E-3,331.094,21/1000,63,102.0
5305,F#2,331.094,21/1000,63,102.0
5306,B-4,331.094,21/1000,63,102.0
5307,B1,331.094,21/1000,63,102.0
5308,C5,331.115,6/25,111,102.0
5309,A1,331.115,6/25,111,102.0
5310,C4,331.115,5.969,65,102.0
5311,G3,331.115,5.969,65,102.0
5312,E4,331.115,5.969,65,102.0
5313,A3,331.115,5.969,65,102.0
5314,E-3,331.115,21/500,63,102.0
5315,F#2,331.115,21/500,63,102.0
5316,B-4,331.115,21/500,63,102.0
5317,B1,331.115,21/500,63,102.0
5318,C4,331.125,27/200,71,102.0
5319,F#2,331.354,0.062,35,102.0
5320,B-4,331.354,0.062,35,102.0
5321,G1,331.354,99/500,90,102.0
5322,C4,331.354,99/500,90,102.0
5323,D5,331.375,0.375,107,102.0
5324,B-4,331.594,0.062,44,102.0
5325,F#2,331.594,0.062,44,102.0
5326,B3,331.615,0.188,68,102.0
5327,E5,331.823,0.406,102,102.0
5328,F#2,331.854,0.062,49,102.0
5329,C4,331.854,0.062,49,102.0
5330,B-4,331.854,0.062,49,102.0
5331,E-3,332.073,0.062,63,102.0
5332,C#2,332.073,0.062,63,102.0
5333,B-4,332.073,0.062,63,102.0
5334,F#2,332.073,0.062,63,102.0
5335,G1,332.344,0.062,62,102.0
5336,E3,332.344,0.062,62,102.0
5337,B-4,332.344,0.062,62,102.0
5338,F#2,332.344,0.062,62,102.0
5339,G5,332.354,0.438,110,102.0
5340,G1,332.594,27/200,67,102.0
5341,F#2,332.594,27/200,67,102.0
5342,B-4,332.594,27/200,67,102.0
5343,A3,332.594,27/200,67,102.0
5344,G1,332.844,177/1000,89,102.0
5345,B3,332.844,177/1000,89,102.0
5346,F#2,332.854,0.062,48,102.0
5347,B-4,332.854,0.062,48,102.0
5348,F#5,332.896,1271/1000,106,102.0
5349,F#2,332.979,0.062,56,102.0
5350,E-3,333.083,0.062,55,102.0
5351,B-4,333.083,0.062,55,102.0
5352,F#2,333.083,0.062,55,102.0
5353,F#3,333.083,0.062,55,102.0
5354,G1,333.104,0.281,111,102.0
5355,C4,333.115,0.125,70,102.0
5356,F#2,333.354,0.062,32,102.0
5357,B-4,333.354,0.062,32,102.0
5358,B-4,333.594,0.062,40,102.0
5359,F#2,333.594,0.062,40,102.0
5360,A3,333.615,73/500,69,102.0
5361,G1,333.625,6/25,109,102.0
5362,F#2,333.854,0.062,52,102.0
5363,B-4,333.854,0.062,52,102.0
5364,C4,333.865,73/500,71,102.0
5365,F#2,333.979,0.062,56,102.0
5366,E-3,334.094,0.062,50,102.0
5367,B-4,334.094,0.062,50,102.0
5368,F#2,334.094,0.062,50,102.0
5369,A1,334.104,0.25,112,102.0
5370,B-4,334.344,0.062,41,102.0
5371,F#2,334.344,0.062,41,102.0
5372,E3,334.375,0.188,68,102.0
5373,G1,334.594,0.281,107,102.0
5374,F#2,334.604,0.062,48,102.0
5375,B-4,334.604,0.062,48,102.0
5376,A3,334.615,73/500,71,102.0
5377,F#2,334.844,0.062,57,102.0
5378,B1,334.844,0.062,57,102.0
5379,B-4,334.844,0.062,57,102.0
5380,C4,334.875,0.125,73,102.0
5381,B-4,335.094,21/1000,61,102.0
5382,B1,335.094,21/1000,61,102.0
5383,F#2,335.094,21/1000,61,102.0
5384,E-3,335.094,21/1000,61,102.0
5385,A1,335.104,1/100,108,102.0
5386,A1,337.083,0.219,108,102.0
5387,B-4,337.083,21/500,61,102.0
5388,B1,337.083,21/500,61,102.0
5389,F#2,337.083,21/500,61,102.0
5390,E-3,337.083,21/500,61,102.0
5391,G1,337.312,271/1000,106,102.0
5392,F#2,337.312,0.062,39,102.0
5393,B-4,337.312,0.062,39,102.0
5394,E3,337.344,167/1000,68,102.0
5395,F#2,337.562,0.062,45,102.0
5396,B-4,337.562,0.062,45,102.0
5397,F#2,337.812,0.062,36,102.0
5398,B-4,337.812,0.062,36,102.0
5399,C4,337.823,0.188,72,102.0
5400,C#2,338.073,0.062,60,102.0
5401,F#2,338.073,0.062,60,102.0
5402,E-3,338.073,0.062,60,102.0
5403,B-4,338.073,0.062,60,102.0
5404,F#2,338.312,0.062,38,102.0
5405,B-4,338.312,0.062,38,102.0
5406,G1,338.323,0.125,106,102.0
5407,E3,338.344,0.312,70,102.0
5408,B-4,338.562,0.062,48,102.0
5409,F#2,338.562,0.062,48,102.0
5410,G1,338.573,0.125,106,102.0
5411,B3,338.594,99/500,71,102.0
5412,C4,338.823,26/125,71,102.0
5413,F#2,338.823,0.062,60,102.0
5414,G1,338.823,0.062,60,102.0
5415,B-4,338.823,0.062,60,102.0
5416,F#3,339.042,2021/1000,67,102.0
5417,D4,339.042,2021/1000,67,102.0
5418,B3,339.042,2021/1000,67,102.0
5419,A4,339.052,0.375,98,102.0
5420,B-4,339.062,0.062,56,102.0
5421,F#3,339.062,0.062,56,102.0
5422,E-3,339.062,0.062,56,102.0
5423,F#2,339.062,0.062,56,102.0
5424,G1,339.073,0.25,108,102.0
5425,D4,339.083,167/1000,65,102.0
5426,C5,339.323,323/1000,96,102.0
5427,B-4,339.323,0.062,38,102.0
5428,F#2,339.323,0.062,38,102.0
5429,C4,339.344,99/500,76,102.0
5430,B-4,339.562,0.062,50,102.0
5431,B-2,339.562,0.062,50,102.0
5432,G1,339.583,229/1000,110,102.0
5433,A4,339.583,479/1000,93,102.0
5434,F#2,339.812,0.062,42,102.0
5435,B-4,339.812,0.062,42,102.0
5436,E-3,340.052,0.062,50,102.0
5437,B-4,340.052,0.062,50,102.0
5438,F#2,340.052,0.062,50,102.0
5439,A1,340.094,0.25,109,102.0
5440,A4,340.104,979/1000,96,102.0
5441,F#2,340.312,0.062,36,102.0
5442,B-4,340.312,0.062,36,102.0
5443,E3,340.323,0.219,66,102.0
5444,A3,340.323,0.219,66,102.0
5445,E5,340.333,0.125,102,102.0
5446,E5,340.562,0.469,109,102.0
5447,A3,340.562,521/1000,59,102.0
5448,G1,340.573,229/1000,88,102.0
5449,A3,340.573,229/1000,88,102.0
5450,B-4,340.573,0.062,48,102.0
5451,F#2,340.573,0.062,48,102.0
5452,B1,340.823,0.062,58,102.0
5453,F#2,340.823,0.062,58,102.0
5454,B-4,340.823,0.062,58,102.0
5455,B3,340.833,177/1000,70,102.0
5456,C4,341.052,0.031,63,102.0
5457,E4,341.052,0.031,64,102.0
5458,G3,341.052,0.031,64,102.0
5459,A3,341.052,0.031,64,102.0
5460,A1,341.073,1/100,109,102.0
5461,C4,341.073,1/100,72,102.0
5462,C#3,341.073,1/100,56,102.0
5463,E-3,341.073,1/100,56,102.0
5464,B1,341.073,1/100,56,102.0
5465,B-4,341.073,1/100,56,102.0
5466,C4,341.083,2979/500,63,102.0
5467,A3,341.083,21/1000,59,102.0
5468,A4,341.083,0.438,96,102.0
5469,A1,341.083,6/25,109,102.0
5470,C4,341.083,73/500,72,102.0
5471,C#3,341.083,13/250,56,102.0
5472,E-3,341.083,13/250,56,102.0
5473,B1,341.083,13/250,56,102.0
5474,B-4,341.083,13/250,56,102.0
5475,E4,341.083,6021/1000,64,102.0
5476,G3,341.083,6021/1000,64,102.0
5477,A3,341.083,6021/1000,64,102.0
5478,C4,341.104,0.625,91,102.0
5479,G5,341.104,0.625,91,102.0
5480,G1,341.323,26/125,89,102.0
5481,C4,341.323,26/125,89,102.0
5482,F#2,341.333,0.062,46,102.0
5483,B-4,341.333,0.062,46,102.0
5484,B-4,341.583,0.062,48,102.0
5485,F#2,341.583,0.062,48,102.0
5486,B3,341.594,167/1000,70,102.0
5487,B3,341.76,573/1000,83,102.0
5488,F#5,341.76,573/1000,83,102.0
5489,F#2,341.823,0.062,44,102.0
5490,B-4,341.823,0.062,44,102.0
5491,C4,341.833,0.188,70,102.0
5492,E-3,342.052,0.062,64,102.0
5493,F#2,342.052,0.062,64,102.0
5494,F#3,342.052,0.062,64,102.0
5495,C#2,342.052,0.062,64,102.0
5496,B-4,342.052,0.062,64,102.0
5497,E3,342.323,229/1000,72,102.0
5498,F#2,342.323,0.062,59,102.0
5499,G1,342.323,0.062,59,102.0
5500,B-4,342.323,0.062,59,102.0
5501,A3,342.354,349/500,61,102.0
5502,E5,342.396,151/500,102,102.0
5503,G1,342.562,0.062,65,102.0
5504,F#2,342.562,0.062,65,102.0
5505,A3,342.562,0.062,65,102.0
5506,B-4,342.562,0.062,65,102.0
5507,D5,342.698,0.312,99,102.0
5508,F#2,342.812,0.062,31,102.0
5509,B-4,342.812,0.062,31,102.0
5510,G1,342.812,0.062,69,102.0
5511,B3,342.812,0.062,69,102.0
5512,B-4,342.812,0.062,69,102.0
5513,G3,343.052,37/50,61,102.0
5514,F#2,343.062,0.062,49,102.0
5515,E-3,343.062,0.062,49,102.0
5516,B-4,343.062,0.062,49,102.0
5517,G1,343.073,0.312,108,102.0
5518,C4,343.083,0.156,73,102.0
5519,D5,343.125,573/1000,107,102.0
5520,F#2,343.323,0.062,33,102.0
5521,B-4,343.323,0.062,33,102.0
5522,F#2,343.573,0.062,42,102.0
5523,B-4,343.573,0.062,42,102.0
5524,G1,343.573,0.156,88,102.0
5525,A3,343.573,0.156,88,102.0
5526,D5,343.792,349/500,82,102.0
5527,G3,343.792,349/500,82,102.0
5528,F#2,343.823,0.062,36,102.0
5529,B-4,343.823,0.062,36,102.0
5530,C4,343.844,27/200,72,102.0
5531,A1,344.062,271/1000,109,102.0
5532,E-3,344.062,0.062,49,102.0
5533,F#2,344.062,0.062,49,102.0
5534,B-4,344.062,0.062,49,102.0
5535,F#2,344.323,0.062,40,102.0
5536,B-4,344.323,0.062,40,102.0
5537,E3,344.344,229/1000,71,102.0
5538,E5,344.5,271/500,81,102.0
5539,A3,344.5,271/500,81,102.0
5540,G1,344.573,13/50,106,102.0
5541,F#2,344.573,0.062,44,102.0
5542,B-4,344.573,0.062,44,102.0
5543,A3,344.594,167/1000,68,102.0
5544,F#2,344.812,0.062,52,102.0
5545,B1,344.812,0.062,52,102.0
5546,B-4,344.812,0.062,52,102.0
5547,C4,344.844,167/1000,76,102.0
5548,F#3,345.042,21/500,80,102.0
5549,D5,345.042,21/500,80,102.0
5550,E-3,345.052,0.031,62,102.0
5551,B1,345.052,0.031,62,102.0
5552,F#2,345.052,0.031,62,102.0
5553,B-4,345.052,0.031,62,102.0
5554,A1,345.062,21/1000,108,102.0
5555,A1,347.104,0.219,108,102.0
5556,F#3,347.104,1021/1000,80,102.0
5557,D5,347.104,1021/1000,80,102.0
5558,E-3,347.104,0.031,62,102.0
5559,B1,347.104,0.031,62,102.0
5560,F#2,347.104,0.031,62,102.0
5561,B-4,347.104,0.031,62,102.0
5562,G1,347.333,0.25,89,102.0
5563,E3,347.333,0.25,89,102.0
5564,F#2,347.344,0.062,38,102.0
5565,B-4,347.344,0.062,38,102.0
5566,F#2,347.594,0.062,46,102.0
5567,B-4,347.594,0.062,46,102.0
5568,F#2,347.844,0.062,31,102.0
5569,B-4,347.844,0.062,31,102.0
5570,C4,347.854,73/500,73,102.0
5571,C#2,348.094,0.062,64,102.0
5572,F#3,348.094,0.062,64,102.0
5573,E-3,348.094,0.062,64,102.0
5574,F#2,348.094,0.062,64,102.0
5575,B-4,348.094,0.062,64,102.0
5576,E3,348.344,0.219,68,102.0
5577,G1,348.344,0.062,64,102.0
5578,B-4,348.344,0.062,64,102.0
5579,F#2,348.344,0.062,64,102.0
5580,G1,348.594,0.062,73,102.0
5581,B-2,348.594,0.062,73,102.0
5582,B3,348.594,0.062,73,102.0
5583,B-4,348.594,0.062,73,102.0
5584,C4,348.844,177/1000,71,102.0
5585,C#2,348.844,0.062,78,102.0
5586,G1,348.844,0.062,78,102.0
5587,B-4,348.844,0.062,78,102.0
5588,F#3,349.083,1.938,69,102.0
5589,D4,349.083,1.938,69,102.0
5590,B3,349.083,1.938,69,102.0
5591,G1,349.094,229/1000,108,102.0
5592,E-3,349.094,0.062,46,102.0
5593,B-4,349.094,0.062,46,102.0
5594,F#2,349.094,0.062,46,102.0
5595,D4,349.104,73/500,70,102.0
5596,C4,349.344,167/1000,75,102.0
5597,F#2,349.354,0.062,42,102.0
5598,B-4,349.354,0.062,42,102.0
5599,G1,349.594,0.25,107,102.0
5600,B-4,349.594,0.062,42,102.0
5601,F#2,349.594,0.062,42,102.0
5602,F#2,349.844,0.062,33,102.0
5603,B-4,349.844,0.062,33,102.0
5604,A1,350.094,0.25,108,102.0
5605,F#2,350.094,0.062,47,102.0
5606,B-4,350.094,0.062,47,102.0
5607,E-3,350.094,0.062,47,102.0
5608,E3,350.344,151/500,72,102.0
5609,F#2,350.344,0.062,37,102.0
5610,B-4,350.344,0.062,37,102.0
5611,G1,350.594,0.281,108,102.0
5612,A3,350.594,0.188,72,102.0
5613,F#2,350.594,0.062,46,102.0
5614,B-4,350.594,0.062,46,102.0
5615,F#2,350.833,0.062,60,102.0
5616,B1,350.833,0.062,60,102.0
5617,B-4,350.833,0.062,60,102.0
5618,A4,350.854,0.25,102,102.0
5619,B3,350.854,0.188,71,102.0
5620,E4,351.073,0.031,65,102.0
5621,G3,351.073,0.031,65,102.0
5622,A3,351.073,0.031,65,102.0
5623,C4,351.073,0.031,65,102.0
5624,E-3,351.073,0.031,63,102.0
5625,B1,351.073,0.031,63,102.0
5626,F#2,351.073,0.031,63,102.0
5627,F#3,351.073,0.031,63,102.0
5628,B-4,351.073,0.031,63,102.0
5629,A1,351.094,1/100,111,102.0
5630,C4,351.104,73/500,72,102.0
5631,A4,351.104,21/500,102,102.0
5632,A1,351.104,229/1000,111,102.0
5633,E4,351.104,5917/1000,65,102.0
5634,G3,351.104,5917/1000,65,102.0
5635,A3,351.104,5917/1000,65,102.0
5636,C4,351.104,5917/1000,65,102.0
5637,E-3,351.104,0.031,63,102.0
5638,B1,351.104,0.031,63,102.0
5639,F#2,351.104,0.031,63,102.0
5640,F#3,351.104,0.031,63,102.0
5641,B-4,351.104,0.031,63,102.0
5642,E5,351.146,0.656,107,102.0
5643,G1,351.333,333/1000,106,102.0
5644,C4,351.344,26/125,72,102.0
5645,F#2,351.344,0.062,37,102.0
5646,B-4,351.344,0.062,37,102.0
5647,F#2,351.594,0.062,50,102.0
5648,B-4,351.594,0.062,50,102.0
5649,B3,351.604,26/125,69,102.0
5650,D5,351.823,0.719,102,102.0
5651,F#2,351.833,0.062,38,102.0
5652,B-4,351.833,0.062,38,102.0
5653,C4,351.865,27/200,70,102.0
5654,E-3,352.073,0.062,62,102.0
5655,F#2,352.073,0.062,62,102.0
5656,C#2,352.073,0.062,62,102.0
5657,B-4,352.073,0.062,62,102.0
5658,G1,352.333,0.156,110,102.0
5659,F#2,352.333,0.062,38,102.0
5660,B-4,352.333,0.062,38,102.0
5661,E3,352.365,26/125,68,102.0
5662,C5,352.542,573/1000,105,102.0
5663,F#2,352.583,0.062,46,102.0
5664,B-4,352.583,0.062,46,102.0
5665,G1,352.594,167/1000,88,102.0
5666,A3,352.594,167/1000,88,102.0
5667,F#2,352.833,0.062,38,102.0
5668,B-4,352.833,0.062,38,102.0
5669,G1,352.844,0.062,70,102.0
5670,B-4,352.844,0.062,70,102.0
5671,B3,352.865,0.188,69,102.0
5672,E-3,353.083,0.062,51,102.0
5673,F#2,353.083,0.062,51,102.0
5674,B-4,353.083,0.062,51,102.0
5675,G1,353.094,0.281,109,102.0
5676,E5,353.115,0.75,104,102.0
5677,C4,353.115,167/1000,72,102.0
5678,F#2,353.344,0.062,34,102.0
5679,B-4,353.344,0.062,34,102.0
5680,F#2,353.594,0.062,47,102.0
5681,B-4,353.594,0.062,47,102.0
5682,G1,353.604,0.281,106,102.0
5683,A3,353.615,0.188,66,102.0
5684,F#2,353.844,0.062,34,102.0
5685,B-4,353.844,0.062,34,102.0
5686,D5,353.865,0.688,105,102.0
5687,C4,353.865,27/200,72,102.0
5688,E-3,354.083,0.062,52,102.0
5689,F#2,354.083,0.062,52,102.0
5690,B-4,354.083,0.062,52,102.0
5691,A1,354.094,0.281,108,102.0
5692,F#2,354.344,0.062,32,102.0
5693,B-4,354.344,0.062,32,102.0
5694,E3,354.365,0.188,68,102.0
5695,G1,354.594,73/250,106,102.0
5696,F#2,354.594,0.062,42,102.0
5697,B-4,354.594,0.062,42,102.0
5698,A3,354.604,167/1000,70,102.0
5699,D5,354.635,0.469,110,102.0
5700,F#2,354.844,0.062,38,102.0
5701,B-4,354.844,0.062,38,102.0
5702,C4,354.854,0.156,73,102.0
5703,A1,355.094,1/100,107,102.0
5704,F#2,355.094,1/100,66,102.0
5705,F#3,355.094,1/100,66,102.0
5706,E-3,355.094,1/100,66,102.0
5707,B-4,355.094,1/100,66,102.0
5708,B1,355.094,1/100,66,102.0
5709,A1,357.021,0.25,107,102.0
5710,D5,357.021,167/1000,110,102.0
5711,F#2,357.021,13/250,66,102.0
5712,F#3,357.021,13/250,66,102.0
5713,E-3,357.021,13/250,66,102.0
5714,B-4,357.021,13/250,66,102.0
5715,B1,357.021,13/250,66,102.0
5716,A4,357.208,31/25,96,102.0
5717,G1,357.26,0.281,107,102.0
5718,E3,357.26,177/1000,69,102.0
5719,F#2,357.26,0.062,40,102.0
5720,B-4,357.26,0.062,40,102.0
5721,F#2,357.51,0.062,44,102.0
5722,B-4,357.51,0.062,44,102.0
5723,F#2,357.75,0.062,32,102.0
5724,B-4,357.75,0.062,32,102.0
5725,C4,357.76,167/1000,72,102.0
5726,E-3,357.99,0.062,64,102.0
5727,C#2,357.99,0.062,64,102.0
5728,F#2,357.99,0.062,64,102.0
5729,B-4,357.99,0.062,64,102.0
5730,G1,358.25,0.062,65,102.0
5731,F#2,358.25,0.062,65,102.0
5732,B-4,358.25,0.062,65,102.0
5733,E3,358.26,6/25,72,102.0
5734,G1,358.5,0.062,70,102.0
5735,B-2,358.5,0.062,70,102.0
5736,B3,358.5,0.062,70,102.0
5737,B-4,358.5,0.062,70,102.0
5738,G1,358.75,0.062,79,102.0
5739,C#2,358.75,0.062,79,102.0
5740,B-4,358.75,0.062,79,102.0
5741,C4,358.771,0.188,70,102.0
5742,F#3,358.99,1917/1000,65,102.0
5743,D4,359.0,1979/1000,72,102.0
5744,B3,359.0,1979/1000,72,102.0
5745,E-3,359.0,0.062,50,102.0
5746,F#2,359.0,0.062,50,102.0
5747,B-4,359.0,0.062,50,102.0
5748,G1,359.01,73/250,107,102.0
5749,D4,359.021,167/1000,72,102.0
5750,B-4,359.25,0.062,42,102.0
5751,F#2,359.25,0.062,42,102.0
5752,C4,359.281,0.156,77,102.0
5753,A3,359.427,51/100,59,102.0
5754,A4,359.5,69/125,109,102.0
5755,F#2,359.51,0.062,64,102.0
5756,B-4,359.51,0.062,64,102.0
5757,C#2,359.51,0.062,64,102.0
5758,G1,359.531,73/250,108,102.0
5759,F#2,359.75,0.062,40,102.0
5760,B-4,359.75,0.062,40,102.0
5761,C4,359.938,0.5,65,102.0
5762,A1,360.01,333/1000,108,102.0
5763,F#2,360.01,0.062,54,102.0
5764,F#3,360.01,0.062,54,102.0
5765,E-3,360.01,0.062,54,102.0
5766,B-4,360.01,0.062,54,102.0
5767,C5,360.052,49/100,109,102.0
5768,F#2,360.26,0.062,40,102.0
5769,B-4,360.26,0.062,40,102.0
5770,D4,360.438,573/1000,62,102.0
5771,B-4,360.5,0.062,48,102.0
5772,F#2,360.5,0.062,48,102.0
5773,G1,360.51,229/1000,112,102.0
5774,D5,360.542,479/1000,108,102.0
5775,F#2,360.75,0.062,40,102.0
5776,B-4,360.75,0.062,40,102.0
5777,C#3,360.99,0.031,60,102.0
5778,E-3,360.99,0.031,60,102.0
5779,F#2,360.99,0.031,60,102.0
5780,B1,360.99,0.031,60,102.0
5781,B-4,360.99,0.031,60,102.0
5782,D2,361.01,1/100,109,102.0
5783,E4,361.01,1/100,82,102.0
5784,A3,361.01,1/100,82,102.0
5785,F#3,361.01,1/100,70,102.0
5786,D3,361.01,1/100,70,102.0
5787,A3,361.01,1/100,70,102.0
5788,D2,361.021,729/1000,109,102.0
5789,D5,361.021,1/100,108,102.0
5790,C#3,361.021,0.031,60,102.0
5791,E-3,361.021,0.031,60,102.0
5792,F#2,361.021,0.031,60,102.0
5793,B1,361.021,0.031,60,102.0
5794,B-4,361.021,0.031,60,102.0
5795,E4,361.021,0.969,82,102.0
5796,A3,361.021,0.969,82,102.0
5797,F#3,361.021,987/250,70,102.0
5798,D3,361.021,987/250,70,102.0
5799,A3,361.021,987/250,70,102.0
5800,E5,361.052,1021/1000,105,102.0
5801,F#2,361.26,0.062,33,102.0
5802,B-4,361.26,0.062,33,102.0
5803,F#2,361.51,0.062,44,102.0
5804,B-4,361.51,0.062,44,102.0
5805,F#2,361.75,0.062,37,102.0
5806,B-4,361.75,0.062,37,102.0
5807,D4,361.969,1.031,77,102.0
5808,F#2,362.0,0.062,64,102.0
5809,C#2,362.0,0.062,64,102.0
5810,E-3,362.0,0.062,64,102.0
5811,B-4,362.0,0.062,64,102.0
5812,F#3,362.0,0.062,64,102.0
5813,D4,362.01,0.5,87,102.0
5814,D2,362.021,427/500,107,102.0
5815,D5,362.073,0.906,106,102.0
5816,F#2,362.26,0.062,38,102.0
5817,B-4,362.26,0.062,38,102.0
5818,D3,362.51,333/1000,70,102.0
5819,F#2,362.51,0.062,44,102.0
5820,B-4,362.51,0.062,44,102.0
5821,F#3,362.76,1.844,78,102.0
5822,F#2,362.76,0.062,34,102.0
5823,B-4,362.76,0.062,34,102.0
5824,A4,363.0,112/125,92,102.0
5825,A3,363.0,112/125,92,102.0
5826,D2,363.0,112/125,92,102.0
5827,F#2,363.01,0.062,49,102.0
5828,B-4,363.01,0.062,49,102.0
5829,E-3,363.01,0.062,49,102.0
5830,F#2,363.25,0.062,32,102.0
5831,B-4,363.25,0.062,32,102.0
5832,F#2,363.5,0.062,44,102.0
5833,B-4,363.5,0.062,44,102.0
5834,F#2,363.75,0.062,38,102.0
5835,B-4,363.75,0.062,38,102.0
5836,D4,363.906,263/250,72,102.0
5837,D5,363.99,237/250,109,102.0
5838,F#2,364.0,0.062,55,102.0
5839,E-3,364.0,0.062,55,102.0
5840,B-4,364.0,0.062,55,102.0
5841,F#3,364.0,0.062,55,102.0
5842,D2,364.031,0.812,112,102.0
5843,F#2,364.25,0.062,36,102.0
5844,B-4,364.25,0.062,36,102.0
5845,F#2,364.5,0.062,46,102.0
5846,B-4,364.5,0.062,46,102.0
5847,F#2,364.75,0.062,54,102.0
5848,B1,364.75,0.062,54,102.0
5849,B-4,364.75,0.062,54,102.0
5850,B3,364.969,13/250,63,102.0
5851,F#2,365.0,21/1000,62,102.0
5852,E-3,365.0,21/1000,62,102.0
5853,B1,365.0,21/1000,62,102.0
5854,B-4,365.0,21/1000,62,102.0
5855,E3,365.0,21/1000,69,102.0
5856,G#3,365.0,21/1000,69,102.0
5857,B3,365.0,21/1000,69,102.0
5858,B4,365.01,1/100,105,102.0
5859,E2,365.01,1/100,111,102.0
5860,B3,365.021,2917/1000,63,102.0
5861,B4,365.021,101/100,105,102.0
5862,E2,365.021,0.812,111,102.0
5863,F#2,365.021,21/500,62,102.0
5864,E-3,365.021,21/500,62,102.0
5865,B1,365.021,21/500,62,102.0
5866,B-4,365.021,21/500,62,102.0
5867,E3,365.021,3979/1000,69,102.0
5868,G#3,365.021,3979/1000,69,102.0
5869,B3,365.021,3979/1000,69,102.0
5870,B3,365.031,927/1000,88,102.0
5871,F#2,365.26,0.062,38,102.0
5872,B-4,365.26,0.062,38,102.0
5873,F#2,365.51,0.062,43,102.0
5874,B-4,365.51,0.062,43,102.0
5875,F#2,365.75,0.062,38,102.0
5876,B-4,365.75,0.062,38,102.0
5877,E4,365.958,0.5,84,102.0
5878,E-3,366.0,0.062,62,102.0
5879,C#2,366.0,0.062,62,102.0
5880,F#2,366.0,0.062,62,102.0
5881,B-4,366.0,0.062,62,102.0
5882,E2,366.031,0.844,111,102.0
5883,D5,366.073,177/200,102,102.0
5884,B-4,366.25,0.062,36,102.0
5885,F#2,366.25,0.062,36,102.0
5886,E3,366.49,151/500,81,102.0
5887,B-4,366.5,0.062,46,102.0
5888,F#2,366.5,0.062,46,102.0
5889,B-4,366.75,0.062,38,102.0
5890,F#2,366.75,0.062,38,102.0
5891,G#3,366.76,2.031,77,102.0
5892,B4,366.979,0.938,101,102.0
5893,B-4,366.99,0.062,55,102.0
5894,F#2,366.99,0.062,55,102.0
5895,E-3,366.99,0.062,55,102.0
5896,F#3,366.99,0.062,55,102.0
5897,E2,367.01,0.781,107,102.0
5898,B-4,367.24,0.062,36,102.0
5899,F#2,367.24,0.062,36,102.0
5900,B-4,367.5,0.062,60,102.0
5901,C#2,367.5,0.062,60,102.0
5902,F#2,367.5,0.062,60,102.0
5903,E5,367.531,729/1000,88,102.0
5904,F#2,367.75,0.062,36,102.0
5905,B-4,367.75,0.062,36,102.0
5906,E-3,367.99,0.062,48,102.0
5907,F#2,367.99,0.062,48,102.0
5908,B-4,367.99,0.062,48,102.0
5909,E4,368.0,0.812,96,102.0
5910,E2,368.0,0.812,96,102.0
5911,D5,368.208,0.688,85,102.0
5912,F#2,368.26,0.062,36,102.0
5913,B-4,368.26,0.062,36,102.0
5914,B-4,368.5,0.062,44,102.0
5915,F#2,368.5,0.062,44,102.0
5916,F#2,368.75,0.062,54,102.0
5917,B1,368.75,0.062,54,102.0
5918,B-4,368.75,0.062,54,102.0
5919,D5,368.958,0.062,67,102.0
5920,C5,368.99,0.031,112,102.0
5921,G3,368.99,0.031,70,102.0
5922,A3,368.99,0.031,70,102.0
5923,C4,368.99,0.031,70,102.0
5924,E-3,368.99,0.031,62,102.0
5925,B1,368.99,0.031,62,102.0
5926,F#2,368.99,0.031,62,102.0
5927,B-4,368.99,0.031,62,102.0
5928,F2,369.01,1/100,110,102.0
5929,C4,369.01,1/100,86,102.0
5930,D5,369.021,573/1000,67,102.0
5931,C5,369.021,112/125,112,102.0
5932,F2,369.021,401/500,110,102.0
5933,C4,369.021,0.969,86,102.0
5934,G3,369.021,987/250,70,102.0
5935,A3,369.021,987/250,70,102.0
5936,C4,369.021,987/250,70,102.0
5937,E-3,369.021,0.031,62,102.0
5938,B1,369.021,0.031,62,102.0
5939,F#2,369.021,0.031,62,102.0
5940,B-4,369.021,0.031,62,102.0
5941,F#2,369.26,0.062,35,102.0
5942,B-4,369.26,0.062,35,102.0
5943,F#2,369.5,0.062,42,102.0
5944,B-4,369.5,0.062,42,102.0
5945,C5,369.604,1521/1000,78,102.0
5946,F#2,369.75,0.062,33,102.0
5947,B-4,369.75,0.062,33,102.0
5948,F4,369.99,271/500,86,102.0
5949,E-3,369.99,0.062,64,102.0
5950,F#2,369.99,0.062,64,102.0
5951,C#2,369.99,0.062,64,102.0
5952,B-4,369.99,0.062,64,102.0
5953,F2,370.01,19/25,111,102.0
5954,C5,370.021,0.875,109,102.0
5955,F#2,370.26,0.062,34,102.0
5956,B-4,370.26,0.062,34,102.0
5957,F#2,370.51,0.062,45,102.0
5958,B-4,370.51,0.062,45,102.0
5959,F3,370.521,271/1000,68,102.0
5960,F#2,370.76,0.062,38,102.0
5961,B-4,370.76,0.062,38,102.0
5962,A3,370.781,1073/500,79,102.0
5963,B4,370.99,177/200,109,102.0
5964,F2,370.99,177/200,109,102.0
5965,E-3,371.0,0.062,58,102.0
5966,B-4,371.0,0.062,58,102.0
5967,F#2,371.0,0.062,58,102.0
5968,F#3,371.0,0.062,58,102.0
5969,B-4,371.25,0.062,36,102.0
5970,F#2,371.25,0.062,36,102.0
5971,B4,371.469,177/250,86,102.0
5972,F#2,371.51,0.062,44,102.0
5973,B-4,371.51,0.062,44,102.0
5974,B-4,371.76,0.062,42,102.0
5975,F#2,371.76,0.062,42,102.0
5976,A4,371.99,101/100,109,102.0
5977,B-2,372.01,0.062,53,102.0
5978,E-3,372.01,0.062,53,102.0
5979,B-4,372.01,0.062,53,102.0
5980,F2,372.021,823/1000,109,102.0
5981,C5,372.208,729/1000,72,102.0
5982,B-4,372.25,0.062,42,102.0
5983,F#2,372.25,0.062,42,102.0
5984,B-4,372.51,0.062,49,102.0
5985,B-2,372.51,0.062,49,102.0
5986,B1,372.76,0.062,56,102.0
5987,B-4,372.76,0.062,56,102.0
5988,F#2,372.76,0.062,56,102.0
5989,A4,372.979,21/500,70,102.0
5990,F#2,373.01,1/100,111,102.0
5991,D4,373.01,1/100,72,102.0
5992,B1,373.01,1/100,61,102.0
5993,F#2,373.01,1/100,61,102.0
5994,B-4,373.01,1/100,61,102.0
5995,E-3,373.01,1/100,61,102.0
5996,F#3,373.01,1/100,67,102.0
5997,A3,373.01,1/100,67,102.0
5998,E5,373.021,1021/1000,105,102.0
5999,C4,373.021,0.781,88,102.0
6000,A4,373.021,1.938,70,102.0
6001,F#2,373.021,177/200,111,102.0
6002,D4,373.021,11.844,72,102.0
6003,B1,373.021,13/250,61,102.0
6004,F#2,373.021,13/250,61,102.0
6005,B-4,373.021,13/250,61,102.0
6006,E-3,373.021,13/250,61,102.0
6007,F#3,373.021,987/250,67,102.0
6008,A3,373.021,987/250,67,102.0
6009,B-4,373.25,0.062,40,102.0
6010,F#2,373.25,0.062,40,102.0
6011,F#2,373.51,0.062,44,102.0
6012,B-4,373.51,0.062,44,102.0
6013,F#2,373.76,0.062,40,102.0
6014,B-4,373.76,0.062,40,102.0
6015,D4,373.792,3229/1000,85,102.0
6016,C#2,374.01,0.062,65,102.0
6017,F#2,374.01,0.062,65,102.0
6018,B-4,374.01,0.062,65,102.0
6019,F#3,374.01,0.062,65,102.0
6020,E-3,374.01,0.062,65,102.0
6021,F#2,374.031,112/125,107,102.0
6022,D5,374.031,112/125,107,102.0
6023,F#2,374.26,0.062,36,102.0
6024,B-4,374.26,0.062,36,102.0
6025,F#2,374.51,0.062,45,102.0
6026,B-4,374.51,0.062,45,102.0
6027,F#3,374.552,2.25,63,102.0
6028,A3,374.562,2.406,70,102.0
6029,B-4,374.75,0.062,38,102.0
6030,F#2,374.75,0.062,38,102.0
6031,A3,375.0,2.0,74,102.0
6032,F#3,375.0,2.0,74,102.0
6033,C4,375.0,2.0,74,102.0
6034,A4,375.0,2.0,74,102.0
6035,F#2,375.01,0.062,49,102.0
6036,B-4,375.01,0.062,49,102.0
6037,E-3,375.01,0.062,49,102.0
6038,F#2,375.021,427/500,110,102.0
6039,F#2,375.25,0.062,39,102.0
6040,B-4,375.25,0.062,39,102.0
6041,F#2,375.51,0.062,47,102.0
6042,B-4,375.51,0.062,47,102.0
6043,F#2,375.76,0.062,38,102.0
6044,B-4,375.76,0.062,38,102.0
6045,F#2,376.0,833/1000,108,102.0
6046,F#2,376.01,0.062,46,102.0
6047,B-4,376.01,0.062,46,102.0
6048,E-3,376.01,0.062,46,102.0
6049,B-4,376.26,0.062,36,102.0
6050,F#2,376.26,0.062,36,102.0
6051,B-4,376.51,0.062,45,102.0
6052,B-2,376.51,0.062,45,102.0
6053,B-4,376.75,0.062,58,102.0
6054,B1,376.75,0.062,58,102.0
6055,B3,376.969,13/250,64,102.0
6056,G3,376.969,13/250,64,102.0
6057,G3,376.969,13/250,64,102.0
6058,B3,376.969,13/250,64,102.0
6059,C#3,376.979,21/500,65,102.0
6060,E-3,376.979,21/500,65,102.0
6061,B-4,376.979,21/500,65,102.0
6062,B1,376.979,21/500,65,102.0
6063,C#2,376.979,21/500,65,102.0
6064,G2,377.0,21/1000,111,102.0
6065,D4,377.0,21/1000,58,102.0
6066,G3,377.0,21/1000,58,102.0
6067,B4,384.865,4.0,104,102.0
6068,D4,384.865,7.906,85,102.0
6069,G2,384.865,187/50,111,102.0
6070,D4,384.865,4979/1000,58,102.0
6071,G3,384.865,4979/1000,58,102.0
6072,B3,384.865,1577/200,64,102.0
6073,G3,384.865,1577/200,64,102.0
6074,G3,384.865,1577/200,64,102.0
6075,B3,384.865,1577/200,64,102.0
6076,C#3,384.865,21/1000,65,102.0
6077,E-3,384.865,21/1000,65,102.0
6078,B-4,384.865,21/1000,65,102.0
6079,B1,384.865,21/1000,65,102.0
6080,C#2,384.865,21/1000,65,102.0
6081,B-4,385.354,0.062,28,102.0
6082,E-3,385.844,0.062,49,102.0
6083,F#3,385.844,0.062,49,102.0
6084,B-4,385.844,0.062,49,102.0
6085,B-4,386.365,0.062,36,102.0
6086,E-3,386.854,0.062,44,102.0
6087,B-4,386.854,0.062,44,102.0
6088,B-4,387.365,0.062,35,102.0
6089,E-3,387.833,0.062,46,102.0
6090,B-4,387.833,0.062,46,102.0
6091,B-4,388.375,0.062,35,102.0
6092,G1,388.604,167/1000,104,102.0
6093,G1,388.854,1/100,108,102.0
6094,F#3,388.854,1/100,53,102.0
6095,E-3,388.854,1/100,53,102.0
6096,B-4,388.854,1/100,53,102.0
6097,B4,392.771,0.188,104,102.0
6098,G1,392.771,94/25,108,102.0
6099,F#3,392.771,13/250,53,102.0
6100,E-3,392.771,13/250,53,102.0
6101,B-4,392.771,13/250,53,102.0
6102,B-4,393.281,0.062,30,102.0
6103,E-3,393.771,0.062,44,102.0
6104,B-4,393.771,0.062,44,102.0
6105,B-4,394.26,0.062,32,102.0
6106,B-4,394.76,0.062,44,102.0
6107,E-3,394.76,0.062,44,102.0
6108,E3,395.26,37/50,120,102.0
6109,B-4,395.26,0.062,29,102.0
6110,E-3,395.75,0.062,42,102.0
6111,B-4,395.75,0.062,42,102.0
6112,F3,395.781,0.594,75,102.0
6113,B-4,396.25,0.062,34,102.0
6114,A3,396.271,0.5,96,102.0
6115,G2,396.531,6/25,109,102.0
6116,C#3,396.688,0.062,42,102.0
6117,E-3,396.688,0.062,42,102.0
6118,B-4,396.75,21/1000,74,102.0
6119,B1,396.75,21/1000,74,102.0
6120,F#3,396.75,21/1000,74,102.0
6121,G2,396.771,13/250,109,102.0
6122,A3,396.771,73/1000,96,102.0
6123,F3,396.771,4.0,62,102.0
6124,A3,396.771,4.0,62,102.0
6125,B-4,396.771,21/500,74,102.0
6126,B1,396.771,21/500,74,102.0
6127,F#3,396.771,21/500,74,102.0
6128,D2,396.781,727/200,112,102.0
6129,C4,396.781,237/125,105,102.0
6130,B-4,397.26,0.062,32,102.0
6131,D5,397.74,2.906,96,102.0
6132,E-3,397.74,0.062,62,102.0
6133,B-4,397.74,0.062,62,102.0
6134,C#2,397.74,0.062,62,102.0
6135,F#2,398.26,0.062,50,102.0
6136,B-4,398.26,0.062,50,102.0
6137,F#2,398.51,0.062,47,102.0
6138,E-3,398.76,0.062,48,102.0
6139,B-4,398.76,0.062,48,102.0
6140,F#2,398.76,0.062,48,102.0
6141,B-4,399.25,0.062,64,102.0
6142,F#2,399.25,0.062,64,102.0
6143,C#2,399.25,0.062,64,102.0
6144,E4,399.26,583/1000,117,102.0
6145,B-4,399.49,0.062,34,102.0
6146,F#2,399.49,0.062,34,102.0
6147,E-3,399.75,0.062,52,102.0
6148,B-4,399.75,0.062,52,102.0
6149,F#2,399.75,0.062,52,102.0
6150,F#3,399.75,0.062,52,102.0
6151,F4,399.771,0.5,100,102.0
6152,B-4,400.0,0.062,26,102.0
6153,F#2,400.25,0.062,48,102.0
6154,B-4,400.25,0.062,48,102.0
6155,C5,400.271,0.5,98,102.0
6156,D2,400.51,13/50,109,102.0
6157,B-4,400.51,0.062,63,102.0
6158,F#2,400.51,0.062,63,102.0
6159,B1,400.51,0.062,63,102.0
6160,F#2,400.635,0.062,85,102.0
6161,B4,400.708,0.062,84,102.0
6162,F#2,400.75,21/1000,63,102.0
6163,E-3,400.75,21/1000,63,102.0
6164,B-4,400.75,21/1000,63,102.0
6165,B1,400.75,21/1000,63,102.0
6166,G3,400.76,1/100,68,102.0
6167,B3,400.76,1/100,68,102.0
6168,E2,400.771,901/250,108,102.0
6169,D2,400.771,21/1000,109,102.0
6170,B4,400.771,3.719,84,102.0
6171,C5,400.771,73/1000,98,102.0
6172,F#2,400.771,21/500,63,102.0
6173,E-3,400.771,21/500,63,102.0
6174,B-4,400.771,21/500,63,102.0
6175,B1,400.771,21/500,63,102.0
6176,G3,400.771,3.875,68,102.0
6177,B3,400.771,3.875,68,102.0
6178,B4,400.781,1667/1000,88,102.0
6179,F#2,401.01,0.062,44,102.0
6180,B-4,401.01,0.062,44,102.0
6181,F#2,401.25,0.062,46,102.0
6182,B-4,401.25,0.062,46,102.0
6183,F#2,401.5,0.062,44,102.0
6184,B-4,401.5,0.062,44,102.0
6185,F#2,401.75,0.062,62,102.0
6186,C#2,401.75,0.062,62,102.0
6187,E-3,401.75,0.062,62,102.0
6188,B-4,401.75,0.062,62,102.0
6189,F#2,402.0,0.062,44,102.0
6190,B-4,402.0,0.062,44,102.0
6191,B-2,402.25,0.062,48,102.0
6192,B-4,402.25,0.062,48,102.0
6193,B-4,402.521,0.062,29,102.0
6194,E-3,402.74,0.062,52,102.0
6195,F#2,402.74,0.062,52,102.0
6196,B-4,402.74,0.062,52,102.0
6197,F#2,403.0,0.062,38,102.0
6198,B-4,403.0,0.062,38,102.0
6199,F#2,403.26,0.062,48,102.0
6200,B-4,403.26,0.062,48,102.0
6201,E3,403.271,123/200,112,102.0
6202,F#2,403.5,0.062,40,102.0
6203,B-4,403.5,0.062,40,102.0
6204,E-3,403.74,0.062,57,102.0
6205,F#2,403.74,0.062,57,102.0
6206,B-4,403.74,0.062,57,102.0
6207,F#3,403.74,0.062,57,102.0
6208,F3,403.781,0.531,98,102.0
6209,F#2,404.01,0.062,40,102.0
6210,B-4,404.01,0.062,40,102.0
6211,F#2,404.26,0.062,46,102.0
6212,B-4,404.26,0.062,46,102.0
6213,C4,404.281,49/100,105,102.0
6214,E2,404.5,271/1000,107,102.0
6215,F#2,404.5,0.062,48,102.0
6216,B-4,404.5,0.062,48,102.0
6217,B1,404.5,0.062,48,102.0
6218,C4,404.729,21/500,64,102.0
6219,A3,404.729,21/500,64,102.0
6220,E-3,404.75,21/1000,64,102.0
6221,B1,404.75,21/1000,64,102.0
6222,F#2,404.75,21/1000,64,102.0
6223,B-4,404.75,21/1000,64,102.0
6224,F2,404.76,1/100,110,102.0
6225,E2,404.771,21/1000,107,102.0
6226,C4,404.771,0.062,105,102.0
6227,F2,404.771,3677/1000,110,102.0
6228,C4,404.771,1979/500,64,102.0
6229,A3,404.771,1979/500,64,102.0
6230,E-3,404.771,21/500,64,102.0
6231,B1,404.771,21/500,64,102.0
6232,F#2,404.771,21/500,64,102.0
6233,B-4,404.771,21/500,64,102.0
6234,A3,404.792,87/50,87,102.0
6235,F#2,405.0,0.062,38,102.0
6236,B-4,405.0,0.062,38,102.0
6237,F#2,405.25,0.062,44,102.0
6238,B-4,405.25,0.062,44,102.0
6239,F#2,405.51,0.062,36,102.0
6240,B-4,405.51,0.062,36,102.0
6241,E-3,405.75,0.062,61,102.0
6242,C#2,405.75,0.062,61,102.0
6243,F#2,405.75,0.062,61,102.0
6244,B-4,405.75,0.062,61,102.0
6245,F#2,406.01,0.062,37,102.0
6246,B-4,406.01,0.062,37,102.0
6247,F#2,406.25,0.062,46,102.0
6248,B-4,406.25,0.062,46,102.0
6249,C#2,406.51,0.062,59,102.0
6250,F#2,406.51,0.062,59,102.0
6251,B-4,406.51,0.062,59,102.0
6252,E-3,406.75,0.062,56,102.0
6253,F#2,406.75,0.062,56,102.0
6254,F#3,406.75,0.062,56,102.0
6255,B-4,406.75,0.062,56,102.0
6256,F#2,407.01,0.062,38,102.0
6257,B-4,407.01,0.062,38,102.0
6258,E4,407.26,667/1000,110,102.0
6259,C#2,407.26,0.062,63,102.0
6260,F#2,407.26,0.062,63,102.0
6261,B-4,407.26,0.062,63,102.0
6262,F#2,407.51,0.062,38,102.0
6263,B-4,407.51,0.062,38,102.0
6264,F#2,407.75,0.062,51,102.0
6265,E-3,407.75,0.062,51,102.0
6266,B-4,407.75,0.062,51,102.0
6267,F4,407.781,51/100,97,102.0
6268,F#2,408.0,0.062,38,102.0
6269,B-4,408.0,0.062,38,102.0
6270,F#2,408.25,0.062,50,102.0
6271,B-4,408.25,0.062,50,102.0
6272,B4,408.281,49/100,102,102.0
6273,F#2,408.5,0.062,52,102.0
6274,B-4,408.5,0.062,52,102.0
6275,F2,408.521,6/25,112,102.0
6276,F#2,408.625,0.062,53,102.0
6277,B3,408.74,0.031,63,102.0
6278,G3,408.74,0.031,68,102.0
6279,B-4,408.75,21/1000,60,102.0
6280,B1,408.75,21/1000,60,102.0
6281,F#2,408.75,21/1000,60,102.0
6282,E-3,408.75,21/1000,60,102.0
6283,B3,408.771,1979/500,63,102.0
6284,B4,408.771,83/1000,102,102.0
6285,G3,408.771,4.031,68,102.0
6286,B-4,408.771,21/500,60,102.0
6287,B1,408.771,21/500,60,102.0
6288,F#2,408.771,21/500,60,102.0
6289,E-3,408.771,21/500,60,102.0
6290,G2,408.781,3.688,112,102.0
6291,G4,408.792,1521/1000,98,102.0
6292,F#2,409.01,0.062,40,102.0
6293,B-4,409.01,0.062,40,102.0
6294,F#2,409.26,0.062,46,102.0
6295,B-4,409.26,0.062,46,102.0
6296,F#2,409.5,0.062,39,102.0
6297,B-4,409.5,0.062,39,102.0
6298,C#2,409.76,0.062,63,102.0
6299,E-3,409.76,0.062,63,102.0
6300,B-4,409.76,0.062,63,102.0
6301,F#2,409.76,0.062,63,102.0
6302,F#2,410.01,0.062,37,102.0
6303,B-4,410.01,0.062,37,102.0
6304,F#2,410.26,0.062,52,102.0
6305,B-4,410.26,0.062,52,102.0
6306,B-4,410.51,0.062,53,102.0
6307,F#2,410.51,0.062,53,102.0
6308,F#2,410.646,0.062,60,102.0
6309,B-4,410.75,0.062,54,102.0
6310,F#2,410.75,0.062,54,102.0
6311,F#3,410.75,0.062,54,102.0
6312,E-3,410.75,0.062,54,102.0
6313,F#2,411.0,0.062,41,102.0
6314,B-4,411.0,0.062,41,102.0
6315,F#2,411.25,0.062,44,102.0
6316,B-4,411.25,0.062,44,102.0
6317,E3,411.26,0.594,108,102.0
6318,F#2,411.51,0.062,45,102.0
6319,B-4,411.51,0.062,45,102.0
6320,F#2,411.76,0.062,50,102.0
6321,B-4,411.76,0.062,50,102.0
6322,E-3,411.76,0.062,50,102.0
6323,F3,411.781,573/1000,98,102.0
6324,F#2,412.0,0.062,44,102.0
6325,B-4,412.0,0.062,44,102.0
6326,B-2,412.25,0.062,52,102.0
6327,B-4,412.25,0.062,52,102.0
6328,A3,412.281,49/100,87,102.0
6329,D2,412.51,73/500,108,102.0
6330,B1,412.51,0.062,60,102.0
6331,B-4,412.51,0.062,60,102.0
6332,C4,412.75,21/1000,66,102.0
6333,A3,412.75,21/1000,66,102.0
6334,E-3,412.75,21/1000,58,102.0
6335,B1,412.75,21/1000,58,102.0
6336,F#2,412.75,21/1000,58,102.0
6337,B-4,412.75,21/1000,58,102.0
6338,D2,412.76,1/100,110,102.0
6339,A3,412.802,0.094,87,102.0
6340,D2,412.802,3677/1000,110,102.0
6341,C4,412.802,399/100,66,102.0
6342,A3,412.802,399/100,66,102.0
6343,E-3,412.802,21/500,58,102.0
6344,B1,412.802,21/500,58,102.0
6345,F#2,412.802,21/500,58,102.0
6346,B-4,412.802,21/500,58,102.0
6347,C4,412.812,2.0,100,102.0
6348,F#2,413.042,0.062,41,102.0
6349,B-4,413.042,0.062,41,102.0
6350,F#2,413.292,0.062,43,102.0
6351,B-4,413.292,0.062,43,102.0
6352,F#2,413.531,0.062,37,102.0
6353,B-4,413.531,0.062,37,102.0
6354,E-3,413.771,0.062,64,102.0
6355,C#2,413.771,0.062,64,102.0
6356,F#2,413.771,0.062,64,102.0
6357,F#3,413.771,0.062,64,102.0
6358,B-4,413.771,0.062,64,102.0
6359,F#2,414.042,0.062,33,102.0
6360,B-4,414.042,0.062,33,102.0
6361,F#2,414.281,0.062,48,102.0
6362,B-4,414.281,0.062,48,102.0
6363,C5,414.302,0.719,72,102.0
6364,G5,414.417,0.531,118,102.0
6365,F#2,414.531,0.062,38,102.0
6366,B-4,414.531,0.062,38,102.0
6367,F#2,414.792,0.062,49,102.0
6368,E-3,414.792,0.062,49,102.0
6369,B-4,414.792,0.062,49,102.0
6370,A5,414.812,199/100,110,102.0
6371,E5,415.01,177/500,82,102.0
6372,A4,415.01,177/500,82,102.0
6373,F#2,415.031,0.062,40,102.0
6374,B-4,415.031,0.062,40,102.0
6375,F#2,415.281,0.062,40,102.0
6376,B-4,415.281,0.062,40,102.0
6377,E4,415.292,123/200,108,102.0
6378,D5,415.365,0.344,81,102.0
6379,G4,415.365,0.344,81,102.0
6380,F#2,415.542,0.062,44,102.0
6381,B-4,415.542,0.062,44,102.0
6382,C5,415.719,417/1000,72,102.0
6383,E4,415.719,417/1000,72,102.0
6384,F#2,415.781,0.062,48,102.0
6385,B-4,415.781,0.062,48,102.0
6386,E-3,415.781,0.062,48,102.0
6387,F4,415.812,49/100,104,102.0
6388,F#2,416.031,0.062,41,102.0
6389,B-4,416.031,0.062,41,102.0
6390,E5,416.125,333/1000,78,102.0
6391,A4,416.125,333/1000,78,102.0
6392,B-4,416.292,0.062,46,102.0
6393,F#2,416.292,0.062,46,102.0
6394,C5,416.312,49/100,112,102.0
6395,D5,416.469,333/1000,94,102.0
6396,G4,416.469,333/1000,55,102.0
6397,D2,416.542,0.219,112,102.0
6398,B1,416.542,0.062,61,102.0
6399,F#2,416.542,0.062,61,102.0
6400,B-4,416.542,0.062,61,102.0
6401,B1,416.792,1/100,62,102.0
6402,F#2,416.792,1/100,62,102.0
6403,B-4,416.792,1/100,62,102.0
6404,E-3,416.792,1/100,62,102.0
6405,E2,416.802,623/200,108,102.0
6406,A5,416.802,6.0,110,102.0
6407,D5,416.802,0.344,94,102.0
6408,G4,416.802,1.25,55,102.0
6409,C5,416.802,1/100,112,102.0
6410,G3,416.802,3.875,70,102.0
6411,B3,416.802,3.875,70,102.0
6412,B1,416.802,13/250,62,102.0
6413,F#2,416.802,13/250,62,102.0
6414,B-4,416.802,13/250,62,102.0
6415,E-3,416.802,13/250,62,102.0
6416,B4,416.823,444/125,102,102.0
6417,F#2,417.031,0.062,36,102.0
6418,B-4,417.031,0.062,36,102.0
6419,F#2,417.281,0.062,42,102.0
6420,B-4,417.281,0.062,42,102.0
6421,F#2,417.531,0.062,40,102.0
6422,B-4,417.531,0.062,40,102.0
6423,F#2,417.781,0.062,65,102.0
6424,E-3,417.781,0.062,65,102.0
6425,C#2,417.781,0.062,65,102.0
6426,F#3,417.781,0.062,65,102.0
6427,B-4,417.781,0.062,65,102.0
6428,A4,418.042,0.344,104,102.0
6429,F#2,418.052,0.062,38,102.0
6430,B-4,418.052,0.062,38,102.0
6431,B-2,418.281,0.062,48,102.0
6432,B-4,418.281,0.062,48,102.0
6433,G5,418.385,0.375,108,102.0
6434,B-4,418.542,0.062,46,102.0
6435,F#2,418.542,0.062,46,102.0
6436,E5,418.76,56/125,112,102.0
6437,E-3,418.781,0.062,52,102.0
6438,F#2,418.781,0.062,52,102.0
6439,B-4,418.781,0.062,52,102.0
6440,F#2,419.042,0.062,35,102.0
6441,B-4,419.042,0.062,35,102.0
6442,D5,419.208,0.469,104,102.0
6443,F#2,419.302,0.062,50,102.0
6444,B-4,419.302,0.062,50,102.0
6445,F#2,419.542,0.062,38,102.0
6446,B-4,419.542,0.062,38,102.0
6447,D5,419.688,223/200,105,102.0
6448,E-3,419.771,0.062,64,102.0
6449,C#2,419.771,0.062,64,102.0
6450,B-2,419.771,0.062,64,102.0
6451,B-4,419.771,0.062,64,102.0
6452,E2,420.031,0.281,110,102.0
6453,F#2,420.042,0.062,40,102.0
6454,B-4,420.042,0.062,40,102.0
6455,D2,420.281,0.281,109,102.0
6456,F#2,420.292,0.062,40,102.0
6457,B-4,420.292,0.062,40,102.0
6458,F#2,420.531,0.062,42,102.0
6459,B-4,420.531,0.062,42,102.0
6460,E2,420.542,0.062,70,102.0
6461,B-4,420.542,0.062,70,102.0
6462,G3,420.781,21/1000,66,102.0
6463,E4,420.781,21/1000,66,102.0
6464,C4,420.781,21/1000,66,102.0
6465,A3,420.781,21/1000,66,102.0
6466,D5,420.781,21/1000,80,102.0
6467,A4,420.781,21/1000,80,102.0
6468,A2,420.781,21/1000,80,102.0
6469,C4,420.781,21/1000,80,102.0
6470,E-3,420.781,21/1000,62,102.0
6471,C#3,420.781,21/1000,62,102.0
6472,F#3,420.781,21/1000,62,102.0
6473,B-4,420.781,21/1000,62,102.0
6474,B1,420.781,21/1000,62,102.0
6475,D5,422.802,573/1000,105,102.0
6476,G3,422.802,2979/500,66,102.0
6477,E4,422.802,2979/500,66,102.0
6478,C4,422.802,2979/500,66,102.0
6479,A3,422.802,2979/500,66,102.0
6480,D5,422.802,0.094,80,102.0
6481,A4,422.802,0.094,80,102.0
6482,A2,422.802,0.094,80,102.0
6483,C4,422.802,0.094,80,102.0
6484,E-3,422.802,21/500,62,102.0
6485,C#3,422.802,21/500,62,102.0
6486,F#3,422.802,21/500,62,102.0
6487,B-4,422.802,21/500,62,102.0
6488,B1,422.802,21/500,62,102.0
6489,F#2,423.031,0.062,44,102.0
6490,B-4,423.031,0.062,44,102.0
6491,A2,423.042,26/125,90,102.0
6492,C4,423.042,26/125,90,102.0
6493,F#2,423.281,0.062,38,102.0
6494,B-4,423.281,0.062,38,102.0
6495,G2,423.292,0.25,106,102.0
6496,B3,423.292,167/1000,66,102.0
6497,A4,423.51,0.281,104,102.0
6498,A2,423.51,0.281,104,102.0
6499,F#2,423.531,0.062,36,102.0
6500,B-4,423.531,0.062,36,102.0
6501,G4,423.531,0.188,68,102.0
6502,C5,423.531,0.188,68,102.0
6503,C4,423.531,0.188,68,102.0
6504,A3,423.781,99/100,64,102.0
6505,C4,423.781,99/100,64,102.0
6506,F#2,423.781,0.062,62,102.0
6507,E-3,423.781,0.062,62,102.0
6508,D2,423.781,0.062,62,102.0
6509,B-4,423.781,0.062,62,102.0
6510,A4,423.896,0.656,98,102.0
6511,F#2,424.031,0.062,38,102.0
6512,B-4,424.031,0.062,38,102.0
6513,E3,424.062,26/125,69,102.0
6514,F#2,424.281,0.062,42,102.0
6515,B-4,424.281,0.062,42,102.0
6516,A3,424.312,0.25,71,102.0
6517,F#2,424.531,0.062,38,102.0
6518,B-4,424.531,0.062,38,102.0
6519,B3,424.562,177/1000,70,102.0
6520,C4,424.781,99/100,64,102.0
6521,A3,424.781,99/100,64,102.0
6522,E4,424.781,99/100,64,102.0
6523,F#2,424.792,0.062,48,102.0
6524,E-3,424.792,0.062,48,102.0
6525,B-4,424.792,0.062,48,102.0
6526,A4,424.802,0.656,98,102.0
6527,C4,424.812,0.188,70,102.0
6528,F#2,425.042,0.062,38,102.0
6529,B-4,425.042,0.062,38,102.0
6530,A3,425.292,99/500,65,102.0
6531,F#2,425.292,0.062,44,102.0
6532,B-4,425.292,0.062,44,102.0
6533,F#2,425.542,0.062,40,102.0
6534,B-4,425.542,0.062,40,102.0
6535,C4,425.552,73/500,71,102.0
6536,C4,425.781,99/100,64,102.0
6537,A3,425.781,99/100,64,102.0
6538,E4,425.781,99/100,64,102.0
6539,C5,425.781,99/100,64,102.0
6540,B1,425.792,0.062,73,102.0
6541,A2,425.792,0.062,73,102.0
6542,F#2,425.792,0.062,73,102.0
6543,E-3,425.792,0.062,73,102.0
6544,B-4,425.792,0.062,73,102.0
6545,A4,425.844,177/250,100,102.0
6546,A1,426.031,151/500,109,102.0
6547,F#2,426.042,0.062,37,102.0
6548,B-4,426.042,0.062,37,102.0
6549,E3,426.062,177/1000,67,102.0
6550,F#2,426.292,0.062,46,102.0
6551,B-4,426.292,0.062,46,102.0
6552,E2,426.292,26/125,89,102.0
6553,A3,426.292,26/125,89,102.0
6554,A4,426.385,417/1000,85,102.0
6555,G2,426.531,271/1000,105,102.0
6556,F#2,426.531,0.062,38,102.0
6557,B-4,426.531,0.062,38,102.0
6558,C4,426.552,177/1000,72,102.0
6559,A4,426.781,21/1000,102,102.0
6560,A2,426.781,21/1000,112,102.0
6561,E4,426.781,21/1000,63,102.0
6562,C4,426.781,21/1000,63,102.0
6563,A3,426.781,21/1000,63,102.0
6564,C5,426.781,21/1000,63,102.0
6565,F#2,426.781,21/1000,63,102.0
6566,B1,426.781,21/1000,63,102.0
6567,F#3,426.781,21/1000,63,102.0
6568,E-3,426.781,21/1000,63,102.0
6569,B-4,426.781,21/1000,63,102.0
6570,A4,428.76,833/1000,102,102.0
6571,A4,428.76,2729/500,85,102.0
6572,G2,428.76,21/500,105,102.0
6573,A2,428.76,167/1000,112,102.0
6574,E4,428.76,979/1000,63,102.0
6575,C4,428.76,979/1000,63,102.0
6576,A3,428.76,979/1000,63,102.0
6577,C5,428.76,979/1000,63,102.0
6578,F#2,428.76,21/500,63,102.0
6579,B1,428.76,21/500,63,102.0
6580,F#3,428.76,21/500,63,102.0
6581,E-3,428.76,21/500,63,102.0
6582,B-4,428.76,21/500,63,102.0
6583,F#2,429.0,0.062,36,102.0
6584,B-4,429.0,0.062,36,102.0
6585,A2,429.0,229/1000,88,102.0
6586,E3,429.0,229/1000,88,102.0
6587,G2,429.24,0.219,110,102.0
6588,F#2,429.25,0.062,40,102.0
6589,B-4,429.25,0.062,40,102.0
6590,A2,429.49,0.281,110,102.0
6591,C4,429.5,177/1000,74,102.0
6592,F#2,429.5,0.062,36,102.0
6593,B-4,429.5,0.062,36,102.0
6594,B4,429.729,0.594,102,102.0
6595,E-3,429.729,0.062,65,102.0
6596,C#2,429.729,0.062,65,102.0
6597,F#2,429.729,0.062,65,102.0
6598,B-4,429.729,0.062,65,102.0
6599,F#4,429.74,1.0,62,102.0
6600,D4,429.74,1.0,62,102.0
6601,B3,429.74,1.0,62,102.0
6602,D5,429.74,1.0,62,102.0
6603,F#2,430.0,0.062,40,102.0
6604,B-4,430.0,0.062,40,102.0
6605,G2,430.0,13/50,90,102.0
6606,E3,430.0,13/50,90,102.0
6607,E2,430.24,0.281,107,102.0
6608,F#2,430.25,0.062,52,102.0
6609,B-4,430.25,0.062,52,102.0
6610,B3,430.26,73/500,69,102.0
6611,G2,430.49,167/1000,90,102.0
6612,C4,430.49,167/1000,90,102.0
6613,F#2,430.5,0.062,38,102.0
6614,B-4,430.5,0.062,38,102.0
6615,G4,430.729,1.0,72,102.0
6616,G3,430.729,1.0,72,102.0
6617,D4,430.729,1.0,72,102.0
6618,B4,430.729,1.0,72,102.0
6619,D4,430.729,1979/1000,65,102.0
6620,B3,430.729,1979/1000,65,102.0
6621,B3,430.729,1979/1000,65,102.0
6622,F#3,430.729,1979/1000,65,102.0
6623,E-3,430.74,0.062,50,102.0
6624,F#2,430.74,0.062,50,102.0
6625,B-4,430.74,0.062,50,102.0
6626,D4,430.75,167/1000,69,102.0
6627,F#2,430.99,0.062,36,102.0
6628,B-4,430.99,0.062,36,102.0
6629,C4,431.0,27/200,71,102.0
6630,F#2,431.24,0.062,47,102.0
6631,B-4,431.24,0.062,47,102.0
6632,E-4,431.25,0.062,74,102.0
6633,B-4,431.25,0.062,74,102.0
6634,G4,431.25,0.406,100,102.0
6635,E4,431.25,0.406,100,102.0
6636,F#2,431.49,0.062,38,102.0
6637,B-4,431.49,0.062,38,102.0
6638,F#3,431.74,1.0,56,102.0
6639,A3,431.74,1.0,56,102.0
6640,B1,431.74,0.062,73,102.0
6641,F#2,431.74,0.062,73,102.0
6642,E-3,431.74,0.062,73,102.0
6643,B-4,431.74,0.062,73,102.0
6644,A2,431.74,0.062,73,102.0
6645,F#4,431.75,0.719,94,102.0
6646,E-4,431.75,323/1000,86,102.0
6647,G4,431.75,323/1000,86,102.0
6648,A1,431.99,0.219,90,102.0
6649,E3,431.99,0.219,90,102.0
6650,F#2,432.0,0.062,38,102.0
6651,B-4,432.0,0.062,38,102.0
6652,E2,432.24,26/125,96,102.0
6653,D4,432.24,26/125,96,102.0
6654,F#2,432.25,0.062,44,102.0
6655,B-4,432.25,0.062,44,102.0
6656,G4,432.25,177/1000,74,102.0
6657,A3,432.25,177/1000,74,102.0
6658,G2,432.479,0.281,107,102.0
6659,F#2,432.49,0.062,35,102.0
6660,B-4,432.49,0.062,35,102.0
6661,B3,432.5,177/1000,70,102.0
6662,E4,432.719,21/500,68,102.0
6663,G3,432.719,21/500,68,102.0
6664,C4,432.719,21/500,68,102.0
6665,A3,432.719,21/500,68,102.0
6666,F#2,432.74,21/1000,64,102.0
6667,B1,432.74,21/1000,64,102.0
6668,E-3,432.74,21/1000,64,102.0
6669,B-4,432.74,21/1000,64,102.0
6670,A2,432.74,21/1000,85,102.0
6671,G4,432.74,21/1000,85,102.0
6672,D5,432.74,21/1000,85,102.0
6673,A4,432.74,21/1000,85,102.0
6674,C4,432.74,21/1000,85,102.0
6675,D4,432.75,1/100,104,102.0
6676,G2,434.219,1/100,107,102.0
6677,D4,434.219,0.312,104,102.0
6678,F#2,434.219,21/500,64,102.0
6679,B1,434.219,21/500,64,102.0
6680,E-3,434.219,21/500,64,102.0
6681,B-4,434.219,21/500,64,102.0
6682,E4,434.219,2979/500,68,102.0
6683,G3,434.219,2979/500,68,102.0
6684,C4,434.219,2979/500,68,102.0
6685,A3,434.219,2979/500,68,102.0
6686,A2,434.219,0.094,85,102.0
6687,G4,434.219,0.094,85,102.0
6688,D5,434.219,0.094,85,102.0
6689,A4,434.219,0.094,85,102.0
6690,C4,434.219,0.094,85,102.0
6691,F#2,434.448,0.062,38,102.0
6692,B-4,434.448,0.062,38,102.0
6693,A2,434.458,0.188,86,102.0
6694,C4,434.458,0.188,86,102.0
6695,C4,434.458,0.188,86,102.0
6696,F#2,434.698,0.062,44,102.0
6697,B-4,434.698,0.062,44,102.0
6698,G2,434.698,177/1000,90,102.0
6699,B3,434.698,177/1000,90,102.0
6700,A3,434.708,177/1000,78,102.0
6701,B3,434.708,177/1000,78,102.0
6702,A2,434.948,77/200,112,102.0
6703,G4,434.948,23/200,76,102.0
6704,C5,434.948,23/200,76,102.0
6705,G4,434.948,23/200,76,102.0
6706,C4,434.948,23/200,76,102.0
6707,B-4,434.948,0.062,38,102.0
6708,F#2,434.948,0.062,38,102.0
6709,D4,434.979,229/1000,99,102.0
6710,C4,435.198,99/100,64,102.0
6711,A3,435.198,99/100,64,102.0
6712,F#2,435.208,0.062,65,102.0
6713,E-3,435.208,0.062,65,102.0
6714,B-4,435.208,0.062,65,102.0
6715,D2,435.208,0.062,65,102.0
6716,A4,435.25,19/25,98,102.0
6717,E3,435.458,6/25,71,102.0
6718,F#2,435.458,0.062,35,102.0
6719,B-4,435.458,0.062,35,102.0
6720,E5,435.708,0.625,91,102.0
6721,F#2,435.708,0.062,45,102.0
6722,B-4,435.708,0.062,45,102.0
6723,A3,435.719,73/250,72,102.0
6724,F#2,435.958,0.062,36,102.0
6725,B-4,435.958,0.062,36,102.0
6726,B3,435.969,99/500,72,102.0
6727,A4,436.188,19/25,98,102.0
6728,C4,436.198,99/100,62,102.0
6729,A3,436.198,99/100,62,102.0
6730,E4,436.198,99/100,62,102.0
6731,E-3,436.198,0.062,49,102.0
6732,F#2,436.198,0.062,49,102.0
6733,B-4,436.198,0.062,49,102.0
6734,E4,436.208,201/100,87,102.0
6735,C4,436.229,23/200,71,102.0
6736,F#2,436.448,0.062,34,102.0
6737,B-4,436.448,0.062,34,102.0
6738,F#2,436.698,0.062,46,102.0
6739,B-4,436.698,0.062,46,102.0
6740,A3,436.74,27/200,68,102.0
6741,F#2,436.958,0.062,36,102.0
6742,B-4,436.958,0.062,36,102.0
6743,C4,436.99,167/1000,72,102.0
6744,A4,437.167,99/125,100,102.0
6745,C4,437.198,99/100,62,102.0
6746,A3,437.198,99/100,62,102.0
6747,C5,437.198,99/100,62,102.0
6748,E4,437.198,99/100,62,102.0
6749,E-3,437.198,0.062,71,102.0
6750,A2,437.198,0.062,71,102.0
6751,F#2,437.198,0.062,71,102.0
6752,F#3,437.198,0.062,71,102.0
6753,B-4,437.198,0.062,71,102.0
6754,B1,437.198,0.062,71,102.0
6755,F#2,437.448,0.062,38,102.0
6756,B-4,437.448,0.062,38,102.0
6757,A1,437.458,99/500,90,102.0
6758,E3,437.458,99/500,90,102.0
6759,E2,437.698,151/500,104,102.0
6760,F#2,437.698,0.062,43,102.0
6761,B-4,437.698,0.062,43,102.0
6762,A3,437.729,167/1000,70,102.0
6763,G2,437.948,271/1000,106,102.0
6764,F#2,437.948,0.062,38,102.0
6765,B-4,437.948,0.062,38,102.0
6766,C4,437.99,13/125,70,102.0
6767,C4,438.198,21/1000,62,102.0
6768,C5,438.198,21/1000,62,102.0
6769,A3,438.198,21/1000,62,102.0
6770,E4,438.198,21/1000,62,102.0
6771,B1,438.208,1/100,63,102.0
6772,F#2,438.208,1/100,63,102.0
6773,E-3,438.208,1/100,63,102.0
6774,B-4,438.208,1/100,63,102.0
6775,E4,440.177,3.125,87,102.0
6776,G2,440.177,0.031,106,102.0
6777,C4,440.177,979/1000,62,102.0
6778,C5,440.177,979/1000,62,102.0
6779,A3,440.177,979/1000,62,102.0
6780,E4,440.177,979/1000,62,102.0
6781,B1,440.177,13/250,63,102.0
6782,F#2,440.177,13/250,63,102.0
6783,E-3,440.177,13/250,63,102.0
6784,B-4,440.177,13/250,63,102.0
6785,A4,440.188,0.812,103,102.0
6786,A2,440.188,177/1000,102,102.0
6787,F#2,440.417,0.062,36,102.0
6788,B-4,440.417,0.062,36,102.0
6789,A2,440.438,271/1000,105,102.0
6790,E3,440.438,167/1000,68,102.0
6791,G2,440.667,6/25,107,102.0
6792,F#2,440.667,0.062,41,102.0
6793,B-4,440.667,0.062,41,102.0
6794,A2,440.917,73/250,109,102.0
6795,F#2,440.917,0.062,34,102.0
6796,B-4,440.917,0.062,34,102.0
6797,C4,440.927,0.156,72,102.0
6798,B4,441.156,427/500,104,102.0
6799,D5,441.156,1.0,63,102.0
6800,B3,441.156,1.0,63,102.0
6801,D4,441.156,1.0,63,102.0
6802,F#4,441.156,1.0,63,102.0
6803,C#2,441.167,0.062,63,102.0
6804,F#2,441.167,0.062,63,102.0
6805,E-3,441.167,0.062,63,102.0
6806,B-4,441.167,0.062,63,102.0
6807,F#2,441.406,0.062,27,102.0
6808,B-4,441.406,0.062,27,102.0
6809,G2,441.417,177/1000,86,102.0
6810,E3,441.417,177/1000,86,102.0
6811,E2,441.667,271/1000,105,102.0
6812,F#2,441.667,0.062,42,102.0
6813,B-4,441.667,0.062,42,102.0
6814,B3,441.667,0.062,58,102.0
6815,B-4,441.667,0.062,58,102.0
6816,F#2,441.917,0.062,37,102.0
6817,B-4,441.917,0.062,37,102.0
6818,G2,441.917,177/1000,90,102.0
6819,C4,441.917,177/1000,90,102.0
6820,G4,442.146,1.0,71,102.0
6821,B4,442.146,1.0,71,102.0
6822,G3,442.146,1.0,71,102.0
6823,D4,442.146,1.0,71,102.0
6824,D4,442.146,201/100,69,102.0
6825,B3,442.146,201/100,69,102.0
6826,F#3,442.146,201/100,69,102.0
6827,B3,442.146,201/100,69,102.0
6828,D4,442.167,177/1000,73,102.0
6829,F#2,442.167,0.062,56,102.0
6830,B-4,442.167,0.062,56,102.0
6831,F#3,442.167,0.062,56,102.0
6832,E-3,442.167,0.062,56,102.0
6833,F#2,442.292,0.062,56,102.0
6834,C4,442.417,0.156,70,102.0
6835,F#2,442.417,0.062,44,102.0
6836,B-4,442.417,0.062,44,102.0
6837,B-4,442.656,0.062,50,102.0
6838,F#2,442.656,0.062,50,102.0
6839,D4,442.667,0.219,108,102.0
6840,E-4,442.667,99/250,112,102.0
6841,G4,442.667,99/250,112,102.0
6842,F#2,442.906,0.062,38,102.0
6843,B-4,442.906,0.062,38,102.0
6844,F#4,443.146,349/500,93,102.0
6845,A3,443.156,1.0,57,102.0
6846,F#3,443.156,1.0,57,102.0
6847,B1,443.156,0.062,71,102.0
6848,F#2,443.156,0.062,71,102.0
6849,E-3,443.156,0.062,71,102.0
6850,B-4,443.156,0.062,71,102.0
6851,A2,443.156,0.062,71,102.0
6852,F#2,443.156,0.062,71,102.0
6853,G4,443.177,0.375,98,102.0
6854,D4,443.177,0.375,98,102.0
6855,A1,443.417,0.281,107,102.0
6856,F#2,443.417,0.062,44,102.0
6857,B-4,443.417,0.062,44,102.0
6858,E3,443.438,177/1000,69,102.0
6859,F#2,443.667,0.062,48,102.0
6860,B-4,443.667,0.062,48,102.0
6861,E2,443.667,323/1000,88,102.0
6862,G4,443.667,323/1000,88,102.0
6863,C4,443.667,323/1000,88,102.0
6864,A3,443.688,177/1000,71,102.0
6865,G2,443.906,177/1000,89,102.0
6866,B3,443.906,177/1000,89,102.0
6867,F#2,443.917,0.062,42,102.0
6868,B-4,443.917,0.062,42,102.0
6869,C#3,444.115,0.062,48,102.0
6870,E-3,444.115,0.062,48,102.0
6871,F#2,444.115,0.062,48,102.0
6872,B-4,444.115,0.062,48,102.0
6873,E4,444.146,0.031,66,102.0
6874,G3,444.146,0.031,66,102.0
6875,C4,444.146,0.031,66,102.0
6876,A3,444.146,0.031,66,102.0
6877,D5,444.156,21/1000,82,102.0
6878,A2,444.156,21/1000,82,102.0
6879,A4,444.156,21/1000,82,102.0
6880,C4,444.156,21/1000,82,102.0
6881,D5,444.177,0.125,82,102.0
6882,A2,444.177,0.125,82,102.0
6883,A4,444.177,0.125,82,102.0
6884,C4,444.177,0.125,82,102.0
6885,E4,444.177,599/100,66,102.0
6886,G3,444.177,599/100,66,102.0
6887,C4,444.177,599/100,66,102.0
6888,A3,444.177,599/100,66,102.0
6889,B1,444.188,0.062,95,102.0
6890,C4,444.188,667/1000,88,102.0
6891,G4,444.188,0.562,81,102.0
6892,B-4,444.406,0.062,30,102.0
6893,F#2,444.406,0.062,30,102.0
6894,A2,444.417,0.188,88,102.0
6895,C4,444.417,0.188,88,102.0
6896,G2,444.667,0.25,107,102.0
6897,B-4,444.667,0.062,46,102.0
6898,F#2,444.667,0.062,46,102.0
6899,B3,444.688,0.156,68,102.0
6900,G4,444.906,0.125,69,102.0
6901,C5,444.906,0.125,69,102.0
6902,C4,444.906,0.125,69,102.0
6903,F#2,444.917,0.062,40,102.0
6904,B-4,444.917,0.062,40,102.0
6905,A2,444.917,0.219,96,102.0
6906,D4,444.917,0.219,96,102.0
6907,G4,444.917,0.219,96,102.0
6908,A3,444.917,0.219,96,102.0
6909,E-3,445.146,0.062,66,102.0
6910,F#2,445.146,0.062,66,102.0
6911,B-4,445.146,0.062,66,102.0
6912,D2,445.146,0.062,66,102.0
6913,C4,445.156,99/100,64,102.0
6914,A3,445.156,99/100,64,102.0
6915,A4,445.219,833/1000,97,102.0
6916,E3,445.417,177/1000,68,102.0
6917,F#2,445.417,0.062,42,102.0
6918,B-4,445.417,0.062,42,102.0
6919,A3,445.667,167/1000,69,102.0
6920,B-2,445.667,0.062,50,102.0
6921,B-4,445.667,0.062,50,102.0
6922,B3,445.917,73/500,69,102.0
6923,B-4,445.927,0.062,23,102.0
6924,A4,446.125,833/1000,97,102.0
6925,C4,446.156,99/100,60,102.0
6926,A3,446.156,99/100,60,102.0
6927,E4,446.156,99/100,60,102.0
6928,F#2,446.167,0.062,55,102.0
6929,F#3,446.167,0.062,55,102.0
6930,E-3,446.167,0.062,55,102.0
6931,B-4,446.167,0.062,55,102.0
6932,C4,446.177,27/200,69,102.0
6933,F#2,446.417,0.062,35,102.0
6934,B-4,446.417,0.062,35,102.0
6935,B-4,446.667,0.062,45,102.0
6936,F#2,446.667,0.062,45,102.0
6937,A3,446.677,0.188,66,102.0
6938,F#2,446.917,0.062,38,102.0
6939,B-4,446.917,0.062,38,102.0
6940,C4,446.938,73/500,71,102.0
6941,C5,447.156,99/100,64,102.0
6942,C4,447.156,99/100,64,102.0
6943,A3,447.156,99/100,64,102.0
6944,E4,447.156,99/100,64,102.0
6945,B1,447.156,0.062,72,102.0
6946,A2,447.156,0.062,72,102.0
6947,F#2,447.156,0.062,72,102.0
6948,E-3,447.156,0.062,72,102.0
6949,B-4,447.156,0.062,72,102.0
6950,A4,447.167,0.781,96,102.0
6951,A1,447.417,0.25,110,102.0
6952,F#2,447.417,0.062,40,102.0
6953,B-4,447.417,0.062,40,102.0
6954,E3,447.438,27/200,64,102.0
6955,F#2,447.667,0.062,46,102.0
6956,B-4,447.667,0.062,46,102.0
6957,E2,447.677,0.188,90,102.0
6958,A3,447.677,0.188,90,102.0
6959,G2,447.906,6/25,106,102.0
6960,F#2,447.906,0.062,36,102.0
6961,B-4,447.906,0.062,36,102.0
6962,C4,447.927,27/200,72,102.0
6963,A2,448.156,21/1000,115,102.0
6964,A4,448.156,21/1000,70,102.0
6965,C4,448.156,21/1000,70,102.0
6966,A3,448.156,21/1000,70,102.0
6967,C5,448.156,21/1000,70,102.0
6968,E4,448.156,21/1000,70,102.0
6969,F#2,448.156,21/1000,63,102.0
6970,B1,448.156,21/1000,63,102.0
6971,B-4,448.156,21/1000,63,102.0
6972,E-3,448.156,21/1000,63,102.0
6973,A2,450.167,167/1000,115,102.0
6974,A4,450.167,979/1000,70,102.0
6975,C4,450.167,979/1000,70,102.0
6976,A3,450.167,979/1000,70,102.0
6977,C5,450.167,979/1000,70,102.0
6978,E4,450.167,979/1000,70,102.0
6979,F#2,450.167,21/500,63,102.0
6980,B1,450.167,21/500,63,102.0
6981,B-4,450.167,21/500,63,102.0
6982,E-3,450.167,21/500,63,102.0
6983,A2,450.396,13/50,111,102.0
6984,F#2,450.396,0.062,32,102.0
6985,B-4,450.396,0.062,32,102.0
6986,E3,450.417,0.156,62,102.0
6987,F#2,450.646,0.062,45,102.0
6988,B-4,450.646,0.062,45,102.0
6989,G2,450.656,26/125,106,102.0
6990,A2,450.896,271/1000,107,102.0
6991,C4,450.906,177/1000,72,102.0
6992,F#2,450.906,0.062,34,102.0
6993,B-4,450.906,0.062,34,102.0
6994,D5,451.146,1.0,63,102.0
6995,D4,451.146,1.0,63,102.0
6996,B3,451.146,1.0,63,102.0
6997,F#4,451.146,1.0,63,102.0
6998,B4,451.156,99/125,104,102.0
6999,C#2,451.156,0.062,68,102.0
7000,F#2,451.156,0.062,68,102.0
7001,F#3,451.156,0.062,68,102.0
7002,E-3,451.156,0.062,68,102.0
7003,B-4,451.156,0.062,68,102.0
7004,F#2,451.396,0.062,37,102.0
7005,B-4,451.396,0.062,37,102.0
7006,G2,451.406,6/25,88,102.0
7007,E3,451.406,6/25,88,102.0
7008,F#2,451.646,0.062,50,102.0
7009,B-4,451.646,0.062,50,102.0
7010,E2,451.646,99/500,88,102.0
7011,B3,451.646,99/500,88,102.0
7012,B-4,451.896,0.062,48,102.0
7013,F#2,451.896,0.062,48,102.0
7014,G2,451.906,177/1000,88,102.0
7015,C4,451.906,177/1000,88,102.0
7016,F#2,452.031,0.062,59,102.0
7017,G4,452.135,1.0,70,102.0
7018,D4,452.135,1.0,70,102.0
7019,G3,452.135,1.0,70,102.0
7020,B4,452.135,1.0,70,102.0
7021,D4,452.135,979/500,68,102.0
7022,B3,452.135,979/500,68,102.0
7023,F#3,452.135,979/500,68,102.0
7024,B3,452.135,979/500,68,102.0
7025,E-3,452.135,0.062,52,102.0
7026,B-4,452.135,0.062,52,102.0
7027,F#2,452.135,0.062,52,102.0
7028,D4,452.167,26/125,70,102.0
7029,B-4,452.396,0.062,40,102.0
7030,F#2,452.396,0.062,40,102.0
7031,G5,452.427,27/200,94,102.0
7032,D5,452.427,27/200,94,102.0
7033,C4,452.427,27/200,94,102.0
7034,E-5,452.656,27/200,101,102.0
7035,F#2,452.656,0.062,54,102.0
7036,G5,452.656,0.062,54,102.0
7037,B-4,452.656,0.062,54,102.0
7038,F#2,452.896,0.062,42,102.0
7039,B-4,452.896,0.062,42,102.0
7040,G5,452.917,0.156,84,102.0
7041,E5,452.917,0.156,84,102.0
7042,F#4,453.125,667/1000,91,102.0
7043,E-3,453.135,0.062,72,102.0
7044,F#2,453.135,0.062,72,102.0
7045,B-4,453.135,0.062,72,102.0
7046,B1,453.135,0.062,72,102.0
7047,A2,453.135,0.062,72,102.0
7048,A3,453.146,1.0,52,102.0
7049,F#3,453.146,1.0,52,102.0
7050,G5,453.156,0.375,84,102.0
7051,E-5,453.156,229/1000,114,102.0
7052,F#2,453.406,0.062,46,102.0
7053,B-4,453.406,0.062,46,102.0
7054,A1,453.406,0.281,92,102.0
7055,E3,453.406,0.281,92,102.0
7056,D5,453.427,0.125,95,102.0
7057,F#2,453.656,0.062,48,102.0
7058,B-4,453.656,0.062,48,102.0
7059,E2,453.656,271/1000,90,102.0
7060,A3,453.656,271/1000,90,102.0
7061,G5,453.656,73/500,90,102.0
7062,C5,453.656,73/500,90,102.0
7063,G2,453.896,13/50,97,102.0
7064,B3,453.896,13/50,97,102.0
7065,A4,453.896,13/50,97,102.0
7066,F#2,453.906,0.062,38,102.0
7067,B-4,453.906,0.062,38,102.0
7068,G5,453.927,6/25,86,102.0
7069,A4,453.927,6/25,86,102.0
7070,E4,454.125,21/500,66,102.0
7071,C4,454.125,21/500,66,102.0
7072,G3,454.135,0.031,64,102.0
7073,A3,454.135,0.031,64,102.0
7074,E-3,454.135,0.031,65,102.0
7075,B1,454.135,0.031,65,102.0
7076,F#2,454.135,0.031,65,102.0
7077,B-4,454.135,0.031,65,102.0
7078,A2,454.146,21/1000,82,102.0
7079,D5,454.146,21/1000,82,102.0
7080,A4,454.146,21/1000,82,102.0
7081,C4,454.146,21/1000,82,102.0
7082,E4,454.167,5917/1000,66,102.0
7083,C4,454.167,5917/1000,66,102.0
7084,G3,454.167,6.0,64,102.0
7085,A3,454.167,6.0,64,102.0
7086,A2,454.167,0.125,82,102.0
7087,D5,454.167,0.125,82,102.0
7088,A4,454.167,0.125,82,102.0
7089,C4,454.167,0.125,82,102.0
7090,G5,454.167,21/1000,86,102.0
7091,A4,454.167,21/1000,86,102.0
7092,E-3,454.167,0.031,65,102.0
7093,B1,454.167,0.031,65,102.0
7094,F#2,454.167,0.031,65,102.0
7095,B-4,454.167,0.031,65,102.0
7096,A2,454.396,26/125,88,102.0
7097,C4,454.396,26/125,88,102.0
7098,F#2,454.406,0.062,37,102.0
7099,B-4,454.406,0.062,37,102.0
7100,F#2,454.646,0.062,46,102.0
7101,B-4,454.646,0.062,46,102.0
7102,G2,454.646,13/50,96,102.0
7103,A4,454.646,13/50,96,102.0
7104,B3,454.646,13/50,96,102.0
7105,A2,454.885,0.188,81,102.0
7106,G4,454.885,0.188,81,102.0
7107,C5,454.885,0.188,81,102.0
7108,F#2,454.896,83/1000,50,102.0
7109,B-4,454.896,83/1000,50,102.0
7110,C4,454.896,83/1000,50,102.0
7111,E-3,455.135,0.062,67,102.0
7112,F#2,455.135,0.062,67,102.0
7113,D2,455.135,0.062,67,102.0
7114,B-4,455.135,0.062,67,102.0
7115,C4,455.146,99/100,64,102.0
7116,A3,455.146,99/100,64,102.0
7117,A4,455.208,173/200,102,102.0
7118,F#2,455.396,0.062,40,102.0
7119,B-4,455.396,0.062,40,102.0
7120,C5,455.427,271/1000,114,102.0
7121,E3,455.427,0.188,70,102.0
7122,F#2,455.646,0.062,47,102.0
7123,B-4,455.646,0.062,47,102.0
7124,A3,455.667,26/125,71,102.0
7125,F#2,455.896,0.062,36,102.0
7126,B-4,455.896,0.062,36,102.0
7127,B3,455.906,99/500,92,102.0
7128,C5,455.906,99/500,92,102.0
7129,A4,456.104,173/200,102,102.0
7130,E-3,456.135,0.062,49,102.0
7131,F#2,456.135,0.062,49,102.0
7132,B-4,456.135,0.062,49,102.0
7133,E4,456.146,99/100,62,102.0
7134,C4,456.146,99/100,62,102.0
7135,A3,456.146,99/100,62,102.0
7136,C4,456.167,0.125,71,102.0
7137,F#2,456.406,0.062,44,102.0
7138,B-4,456.406,0.062,44,102.0
7139,D4,456.427,151/500,106,102.0
7140,G4,456.427,0.375,102,102.0
7141,E-4,456.427,0.375,102,102.0
7142,B-4,456.646,0.062,48,102.0
7143,F#2,456.646,0.062,48,102.0
7144,A3,456.656,0.219,69,102.0
7145,F#2,456.896,0.062,42,102.0
7146,B-4,456.896,0.062,42,102.0
7147,C4,456.927,0.156,71,102.0
7148,G4,456.927,0.875,96,102.0
7149,C4,456.927,0.875,96,102.0
7150,A4,457.135,823/1000,103,102.0
7151,E-3,457.135,0.062,70,102.0
7152,B-4,457.135,0.062,70,102.0
7153,B1,457.135,0.062,70,102.0
7154,A2,457.135,0.062,70,102.0
7155,F#2,457.135,0.062,70,102.0
7156,C5,457.146,99/100,62,102.0
7157,C4,457.146,99/100,62,102.0
7158,A3,457.146,99/100,62,102.0
7159,E4,457.146,99/100,62,102.0
7160,B-4,457.396,0.062,43,102.0
7161,F#2,457.396,0.062,43,102.0
7162,E3,457.406,6/25,88,102.0
7163,A1,457.406,6/25,88,102.0
7164,A3,457.646,13/50,88,102.0
7165,E2,457.646,13/50,88,102.0
7166,B-4,457.646,0.062,46,102.0
7167,F#2,457.646,0.062,46,102.0
7168,G2,457.896,229/1000,89,102.0
7169,C4,457.896,229/1000,89,102.0
7170,B-4,457.896,0.062,38,102.0
7171,F#2,457.896,0.062,38,102.0
7172,A4,458.146,21/1000,69,102.0
7173,A3,458.146,21/1000,69,102.0
7174,C4,458.146,21/1000,69,102.0
7175,C5,458.146,21/1000,69,102.0
7176,E4,458.146,21/1000,69,102.0
7177,E-3,458.146,21/1000,63,102.0
7178,B-4,458.146,21/1000,63,102.0
7179,B1,458.146,21/1000,63,102.0
7180,F#2,458.146,21/1000,63,102.0
7181,F#3,458.146,21/1000,63,102.0
7182,A2,458.156,1/100,114,102.0
7183,C4,458.156,1/100,104,102.0
7184,A2,460.167,0.156,114,102.0
7185,C4,460.167,0.25,104,102.0
7186,A4,460.167,979/1000,69,102.0
7187,A3,460.167,979/1000,69,102.0
7188,C4,460.167,979/1000,69,102.0
7189,C5,460.167,979/1000,69,102.0
7190,E4,460.167,979/1000,69,102.0
7191,E-3,460.167,21/500,63,102.0
7192,B-4,460.167,21/500,63,102.0
7193,B1,460.167,21/500,63,102.0
7194,F#2,460.167,21/500,63,102.0
7195,F#3,460.167,21/500,63,102.0
7196,B-4,460.385,0.062,41,102.0
7197,F#2,460.385,0.062,41,102.0
7198,A2,460.406,99/500,90,102.0
7199,E3,460.406,99/500,90,102.0
7200,B-4,460.646,0.062,44,102.0
7201,F#2,460.646,0.062,44,102.0
7202,G2,460.656,177/1000,107,102.0
7203,B-4,460.885,0.062,36,102.0
7204,F#2,460.885,0.062,36,102.0
7205,A2,460.896,26/125,106,102.0
7206,C4,460.896,26/125,106,102.0
7207,C4,460.938,13/125,75,102.0
7208,B3,461.146,1.0,63,102.0
7209,D4,461.146,1.0,63,102.0
7210,D5,461.146,1.0,63,102.0
7211,F#4,461.146,1.0,63,102.0
7212,E-3,461.146,0.062,69,102.0
7213,B-4,461.146,0.062,69,102.0
7214,C#2,461.146,0.062,69,102.0
7215,F#2,461.146,0.062,69,102.0
7216,B4,461.156,37/50,102,102.0
7217,B-4,461.396,0.062,44,102.0
7218,F#2,461.396,0.062,44,102.0
7219,G2,461.417,229/1000,108,102.0
7220,E3,461.427,151/500,69,102.0
7221,B-4,461.646,0.062,51,102.0
7222,B-2,461.646,0.062,51,102.0
7223,E2,461.656,0.219,86,102.0
7224,B3,461.656,0.219,86,102.0
7225,B-4,461.896,0.062,33,102.0
7226,G2,461.906,26/125,89,102.0
7227,C4,461.906,26/125,89,102.0
7228,G4,462.125,1.0,72,102.0
7229,D4,462.125,1.0,72,102.0
7230,G3,462.125,1.0,72,102.0
7231,B4,462.125,1.0,72,102.0
7232,F#3,462.135,2.0,68,102.0
7233,B3,462.135,2.0,68,102.0
7234,D4,462.135,2.0,68,102.0
7235,B3,462.135,2.0,68,102.0
7236,E-3,462.146,0.062,51,102.0
7237,B-4,462.146,0.062,51,102.0
7238,F#2,462.146,0.062,51,102.0
7239,D4,462.177,0.219,68,102.0
7240,F#2,462.406,0.062,41,102.0
7241,B-4,462.406,0.062,41,102.0
7242,C4,462.427,0.156,71,102.0
7243,F#2,462.656,0.062,46,102.0
7244,B-4,462.656,0.062,46,102.0
7245,F#2,462.906,0.062,42,102.0
7246,B-4,462.906,0.062,42,102.0
7247,F#4,463.104,127/200,92,102.0
7248,F#3,463.146,1.0,57,102.0
7249,A3,463.146,1.0,57,102.0
7250,B1,463.146,0.062,72,102.0
7251,E-3,463.146,0.062,72,102.0
7252,A2,463.146,0.062,72,102.0
7253,F#2,463.146,0.062,72,102.0
7254,B-4,463.146,0.062,72,102.0
7255,F#2,463.406,0.062,43,102.0
7256,B-4,463.406,0.062,43,102.0
7257,F#2,463.656,0.062,52,102.0
7258,B-4,463.656,0.062,52,102.0
7259,F#2,463.896,0.062,41,102.0
7260,B-4,463.896,0.062,41,102.0
7261,E3,464.135,0.031,71,102.0
7262,G3,464.135,0.031,71,102.0
7263,E-3,464.135,0.031,59,102.0
7264,C#3,464.135,0.031,59,102.0
7265,F#2,464.135,0.031,59,102.0
7266,B-4,464.135,0.031,59,102.0
7267,F#3,464.135,0.031,59,102.0
7268,B1,464.135,0.031,59,102.0
7269,D4,464.146,21/1000,94,102.0
7270,C2,464.146,21/1000,94,102.0
7271,E3,464.167,799/100,71,102.0
7272,G3,464.167,799/100,71,102.0
7273,D4,464.167,1979/500,94,102.0
7274,C2,464.167,1979/500,94,102.0
7275,E-3,464.167,0.031,59,102.0
7276,C#3,464.167,0.031,59,102.0
7277,F#2,464.167,0.031,59,102.0
7278,B-4,464.167,0.031,59,102.0
7279,F#3,464.167,0.031,59,102.0
7280,B1,464.167,0.031,59,102.0
7281,D4,464.177,729/1000,126,102.0
7282,D4,464.177,729/1000,126,102.0
7283,F#2,464.396,0.062,34,102.0
7284,B-4,464.396,0.062,34,102.0
7285,F#2,464.656,0.062,40,102.0
7286,B-4,464.656,0.062,40,102.0
7287,F#2,464.896,0.062,36,102.0
7288,B-4,464.896,0.062,36,102.0
7289,B3,464.917,51/100,100,102.0
7290,B3,464.917,51/100,100,102.0
7291,E-3,465.135,0.062,58,102.0
7292,F#2,465.135,0.062,58,102.0
7293,B-4,465.135,0.062,58,102.0
7294,C#2,465.135,0.062,58,102.0
7295,F#2,465.406,0.062,34,102.0
7296,B-4,465.406,0.062,34,102.0
7297,C4,465.438,0.406,104,102.0
7298,C4,465.438,0.406,104,102.0
7299,G5,465.583,177/500,112,102.0
7300,F#2,465.646,0.062,40,102.0
7301,B-4,465.646,0.062,40,102.0
7302,F#2,465.896,0.062,34,102.0
7303,B-4,465.896,0.062,34,102.0
7304,E5,465.938,0.344,105,102.0
7305,G4,465.938,0.844,102,102.0
7306,G4,465.938,0.844,102,102.0
7307,E-3,466.146,0.062,49,102.0
7308,F#2,466.146,0.062,49,102.0
7309,B-4,466.146,0.062,49,102.0
7310,D5,466.281,417/1000,101,102.0
7311,F#2,466.396,0.062,43,102.0
7312,B-4,466.396,0.062,43,102.0
7313,F#2,466.656,0.062,44,102.0
7314,B-4,466.656,0.062,44,102.0
7315,C5,466.698,323/1000,99,102.0
7316,B3,466.885,521/1000,100,102.0
7317,B3,466.885,521/1000,100,102.0
7318,F#2,466.906,0.062,36,102.0
7319,B-4,466.906,0.062,36,102.0
7320,C5,467.125,521/500,100,102.0
7321,E-3,467.135,0.062,69,102.0
7322,B1,467.135,0.062,69,102.0
7323,F#2,467.135,0.062,69,102.0
7324,F#3,467.135,0.062,69,102.0
7325,B-4,467.135,0.062,69,102.0
7326,A2,467.135,0.062,69,102.0
7327,F#2,467.406,0.062,42,102.0
7328,B-4,467.406,0.062,42,102.0
7329,C4,467.406,0.656,102,102.0
7330,C4,467.406,0.656,102,102.0
7331,F#2,467.656,0.062,50,102.0
7332,B-4,467.656,0.062,50,102.0
7333,B-4,467.896,0.062,67,102.0
7334,B1,467.896,0.062,67,102.0
7335,F#2,467.896,0.062,67,102.0
7336,C4,468.146,21/1000,74,102.0
7337,E-3,468.146,21/1000,66,102.0
7338,B1,468.146,21/1000,66,102.0
7339,F#2,468.146,21/1000,66,102.0
7340,B-4,468.146,21/1000,66,102.0
7341,D4,468.156,1/100,104,102.0
7342,D4,468.156,1/100,104,102.0
7343,A1,472.156,3.938,112,102.0
7344,C5,472.156,13/125,100,102.0
7345,C4,472.156,11.969,74,102.0
7346,E-3,472.156,21/500,66,102.0
7347,B1,472.156,21/500,66,102.0
7348,F#2,472.156,21/500,66,102.0
7349,B-4,472.156,21/500,66,102.0
7350,D4,472.156,99/125,104,102.0
7351,D4,472.156,99/125,104,102.0
7352,F#2,472.396,0.062,37,102.0
7353,B-4,472.396,0.062,37,102.0
7354,F#2,472.646,0.062,37,102.0
7355,B-4,472.646,0.062,37,102.0
7356,B-4,472.885,0.062,44,102.0
7357,F#2,472.885,0.062,44,102.0
7358,B3,472.927,49/100,102,102.0
7359,B3,472.927,49/100,102,102.0
7360,E-3,473.125,0.062,62,102.0
7361,F#2,473.125,0.062,62,102.0
7362,B-4,473.125,0.062,62,102.0
7363,C#2,473.125,0.062,62,102.0
7364,B-4,473.385,0.062,38,102.0
7365,F#2,473.385,0.062,38,102.0
7366,C4,473.438,427/1000,98,102.0
7367,C4,473.438,427/1000,98,102.0
7368,G5,473.635,0.281,114,102.0
7369,F#2,473.635,0.062,44,102.0
7370,B-4,473.635,0.062,44,102.0
7371,F#2,473.885,0.062,38,102.0
7372,B-4,473.885,0.062,38,102.0
7373,G4,473.906,0.875,104,102.0
7374,G4,473.906,0.875,104,102.0
7375,E5,473.917,0.312,100,102.0
7376,B-4,474.125,0.062,48,102.0
7377,E-3,474.125,0.062,48,102.0
7378,F#2,474.125,0.062,48,102.0
7379,D5,474.229,333/1000,102,102.0
7380,B-4,474.385,0.062,38,102.0
7381,F#2,474.385,0.062,38,102.0
7382,C5,474.562,573/1000,104,102.0
7383,F#2,474.646,0.062,40,102.0
7384,B-4,474.646,0.062,40,102.0
7385,F#2,474.885,0.062,40,102.0
7386,B-4,474.885,0.062,40,102.0
7387,E4,474.927,229/500,111,102.0
7388,E4,474.927,229/500,111,102.0
7389,E-3,475.125,0.062,69,102.0
7390,B1,475.125,0.062,69,102.0
7391,B-4,475.125,0.062,69,102.0
7392,A2,475.125,0.062,69,102.0
7393,F#2,475.125,0.062,69,102.0
7394,F#3,475.125,0.062,69,102.0
7395,E5,475.135,56/125,107,102.0
7396,F#2,475.396,0.062,40,102.0
7397,B-4,475.396,0.062,40,102.0
7398,F4,475.438,0.625,104,102.0
7399,F4,475.438,0.625,104,102.0
7400,D5,475.583,229/500,98,102.0
7401,B-4,475.635,0.062,50,102.0
7402,F#2,475.635,0.062,50,102.0
7403,B1,475.896,0.062,73,102.0
7404,F#2,475.896,0.062,73,102.0
7405,B-4,475.896,0.062,73,102.0
7406,D5,476.094,0.062,102,102.0
7407,A3,476.125,0.031,66,102.0
7408,F3,476.125,0.031,66,102.0
7409,F1,476.146,1/100,114,102.0
7410,B1,476.146,1/100,66,102.0
7411,E-3,476.146,1/100,66,102.0
7412,B-4,476.146,1/100,66,102.0
7413,F#2,476.146,1/100,66,102.0
7414,D5,484.125,521/1000,102,102.0
7415,F1,484.125,3.438,114,102.0
7416,A3,484.125,7979/1000,66,102.0
7417,F3,484.125,7979/1000,66,102.0
7418,B1,484.125,13/250,66,102.0
7419,E-3,484.125,13/250,66,102.0
7420,B-4,484.125,13/250,66,102.0
7421,F#2,484.125,13/250,66,102.0
7422,G4,484.146,177/250,98,102.0
7423,G4,484.146,177/250,98,102.0
7424,F#2,484.375,0.062,46,102.0
7425,B-4,484.375,0.062,46,102.0
7426,B-4,484.615,0.062,42,102.0
7427,F#2,484.615,0.062,42,102.0
7428,C5,484.646,0.375,102,102.0
7429,F#2,484.865,0.062,42,102.0
7430,B-4,484.865,0.062,42,102.0
7431,E4,484.896,56/125,104,102.0
7432,E4,484.896,56/125,104,102.0
7433,C#2,485.115,0.062,61,102.0
7434,F#2,485.115,0.062,61,102.0
7435,E-3,485.115,0.062,61,102.0
7436,B-4,485.115,0.062,61,102.0
7437,C5,485.188,1167/1000,99,102.0
7438,F#2,485.365,0.062,34,102.0
7439,B-4,485.365,0.062,34,102.0
7440,F4,485.396,49/100,102,102.0
7441,F4,485.396,49/100,102,102.0
7442,F#2,485.615,0.062,44,102.0
7443,B-4,485.615,0.062,44,102.0
7444,F#2,485.854,0.062,41,102.0
7445,B-4,485.854,0.062,41,102.0
7446,C5,485.906,0.844,106,102.0
7447,C5,485.906,0.844,106,102.0
7448,E-3,486.104,0.062,57,102.0
7449,F#2,486.104,0.062,57,102.0
7450,F#3,486.104,0.062,57,102.0
7451,B-4,486.104,0.062,57,102.0
7452,F#2,486.354,0.062,41,102.0
7453,B-4,486.354,0.062,41,102.0
7454,F#2,486.615,0.062,40,102.0
7455,B-4,486.615,0.062,40,102.0
7456,E4,486.854,479/1000,100,102.0
7457,E4,486.854,479/1000,100,102.0
7458,F#2,486.865,0.062,38,102.0
7459,B-4,486.865,0.062,38,102.0
7460,B1,487.104,0.062,72,102.0
7461,E-3,487.104,0.062,72,102.0
7462,A2,487.104,0.062,72,102.0
7463,F#2,487.104,0.062,72,102.0
7464,B-4,487.104,0.062,72,102.0
7465,F#2,487.354,0.062,40,102.0
7466,B-4,487.354,0.062,40,102.0
7467,F4,487.385,0.562,106,102.0
7468,F4,487.385,0.562,106,102.0
7469,E5,487.552,0.5,104,102.0
7470,F#2,487.604,0.062,50,102.0
7471,B-4,487.604,0.062,50,102.0
7472,F1,487.615,0.438,109,102.0
7473,F#2,487.854,0.062,73,102.0
7474,B-4,487.854,0.062,73,102.0
7475,B1,487.854,0.062,73,102.0
7476,E5,488.083,21/500,93,102.0
7477,E-3,488.094,0.031,65,102.0
7478,F#2,488.094,0.031,65,102.0
7479,B-4,488.094,0.031,65,102.0
7480,B1,488.094,0.031,65,102.0
7481,G4,488.104,21/1000,106,102.0
7482,G4,488.104,21/1000,106,102.0
7483,F1,492.104,299/100,111,102.0
7484,E5,492.104,4573/1000,93,102.0
7485,D4,492.104,399/100,66,102.0
7486,G4,492.104,399/100,66,102.0
7487,C5,492.104,399/100,66,102.0
7488,E-3,492.104,0.031,65,102.0
7489,F#2,492.104,0.031,65,102.0
7490,B-4,492.104,0.031,65,102.0
7491,B1,492.104,0.031,65,102.0
7492,G4,492.104,0.75,106,102.0
7493,G4,492.104,0.75,106,102.0
7494,B-4,492.333,0.062,46,102.0
7495,F#2,492.333,0.062,46,102.0
7496,B-4,492.594,0.062,45,102.0
7497,F#2,492.594,0.062,45,102.0
7498,F#2,492.844,0.062,34,102.0
7499,B-4,492.844,0.062,34,102.0
7500,E4,492.865,479/1000,104,102.0
7501,E4,492.865,479/1000,104,102.0
7502,E-3,493.073,0.062,60,102.0
7503,C#2,493.073,0.062,60,102.0
7504,F#2,493.073,0.062,60,102.0
7505,B-4,493.073,0.062,60,102.0
7506,F#2,493.344,0.062,36,102.0
7507,B-4,493.344,0.062,36,102.0
7508,F4,493.375,427/1000,97,102.0
7509,F4,493.375,427/1000,97,102.0
7510,F#2,493.594,0.062,48,102.0
7511,B-4,493.594,0.062,48,102.0
7512,C#2,493.844,0.062,58,102.0
7513,F#2,493.844,0.062,58,102.0
7514,B-4,493.844,0.062,58,102.0
7515,C5,493.865,0.906,108,102.0
7516,C5,493.865,0.906,108,102.0
7517,E-3,494.083,0.062,56,102.0
7518,B-4,494.083,0.062,56,102.0
7519,F#2,494.083,0.062,56,102.0
7520,F#3,494.083,0.062,56,102.0
7521,F#2,494.333,0.062,40,102.0
7522,B-4,494.333,0.062,40,102.0
7523,F#2,494.594,0.062,35,102.0
7524,B-4,494.594,0.062,35,102.0
7525,F#2,494.823,0.062,38,102.0
7526,B-4,494.823,0.062,38,102.0
7527,E4,494.833,521/1000,106,102.0
7528,E4,494.833,521/1000,106,102.0
7529,F#2,495.083,0.062,69,102.0
7530,E-3,495.083,0.062,69,102.0
7531,B-4,495.083,0.062,69,102.0
7532,B1,495.083,0.062,69,102.0
7533,A2,495.083,0.062,69,102.0
7534,G1,495.104,99/100,108,102.0
7535,F#2,495.333,0.062,43,102.0
7536,B-4,495.333,0.062,43,102.0
7537,F4,495.365,0.625,104,102.0
7538,F4,495.365,0.625,104,102.0
7539,F#2,495.583,0.062,52,102.0
7540,B-4,495.583,0.062,52,102.0
7541,F#2,495.833,0.062,64,102.0
7542,B-4,495.833,0.062,64,102.0
7543,G3,496.073,0.031,70,102.0
7544,E3,496.073,0.031,70,102.0
7545,D4,496.073,0.031,94,102.0
7546,C2,496.073,0.031,94,102.0
7547,B1,496.094,1/100,63,102.0
7548,F#2,496.094,1/100,63,102.0
7549,E-3,496.094,1/100,63,102.0
7550,B-4,496.094,1/100,63,102.0
7551,D4,496.677,123/200,111,102.0
7552,D4,496.677,123/200,111,102.0
7553,B1,496.677,13/250,63,102.0
7554,F#2,496.677,13/250,63,102.0
7555,E-3,496.677,13/250,63,102.0
7556,B-4,496.677,13/250,63,102.0
7557,G3,496.677,3979/500,70,102.0
7558,E3,496.677,3979/500,70,102.0
7559,D4,496.677,3917/1000,94,102.0
7560,C2,496.677,3917/1000,94,102.0
7561,F#2,496.917,0.062,39,102.0
7562,B-4,496.917,0.062,39,102.0
7563,G4,497.0,151/500,96,102.0
7564,B-4,497.156,0.062,40,102.0
7565,F#2,497.156,0.062,40,102.0
7566,G4,497.333,0.344,97,102.0
7567,F#2,497.406,0.062,36,102.0
7568,B-4,497.406,0.062,36,102.0
7569,B3,497.417,573/1000,100,102.0
7570,B3,497.417,573/1000,100,102.0
7571,F#2,497.656,0.062,61,102.0
7572,E-3,497.656,0.062,61,102.0
7573,B-4,497.656,0.062,61,102.0
7574,C#2,497.656,0.062,61,102.0
7575,F#3,497.656,0.062,61,102.0
7576,G5,497.677,73/250,110,102.0
7577,F#2,497.906,0.062,34,102.0
7578,B-4,497.906,0.062,34,102.0
7579,C4,497.958,479/1000,102,102.0
7580,C4,497.958,479/1000,102,102.0
7581,E5,497.969,0.281,106,102.0
7582,B-4,498.156,0.062,42,102.0
7583,F#2,498.156,0.062,42,102.0
7584,D5,498.25,13/50,102,102.0
7585,F#2,498.406,0.062,42,102.0
7586,B-4,498.406,0.062,42,102.0
7587,G4,498.427,99/125,111,102.0
7588,G4,498.427,99/125,111,102.0
7589,C5,498.51,26/125,106,102.0
7590,F#2,498.667,0.062,47,102.0
7591,E-3,498.667,0.062,47,102.0
7592,B-4,498.667,0.062,47,102.0
7593,C5,498.698,1979/1000,97,102.0
7594,C5,498.854,1.562,102,102.0
7595,B-4,498.906,0.062,41,102.0
7596,F#2,498.906,0.062,41,102.0
7597,B-4,499.167,0.062,42,102.0
7598,F#2,499.167,0.062,42,102.0
7599,F#2,499.417,0.062,34,102.0
7600,B-4,499.417,0.062,34,102.0
7601,B3,499.438,56/125,102,102.0
7602,B3,499.438,56/125,102,102.0
7603,B1,499.656,0.062,69,102.0
7604,E-3,499.656,0.062,69,102.0
7605,A2,499.656,0.062,69,102.0
7606,F#2,499.656,0.062,69,102.0
7607,B-4,499.656,0.062,69,102.0
7608,F#2,499.906,0.062,36,102.0
7609,B-4,499.906,0.062,36,102.0
7610,C4,499.948,0.562,102,102.0
7611,C4,499.948,0.562,102,102.0
7612,B-4,500.156,0.062,50,102.0
7613,F#2,500.156,0.062,50,102.0
7614,B1,500.417,0.062,71,102.0
7615,F#2,500.417,0.062,71,102.0
7616,B-4,500.417,0.062,71,102.0
7617,C4,500.646,0.031,73,102.0
7618,D4,500.656,21/1000,102,102.0
7619,D4,500.656,21/1000,102,102.0
7620,E-3,500.656,21/1000,63,102.0
7621,B-4,500.656,21/1000,63,102.0
7622,F#2,500.656,21/1000,63,102.0
7623,B1,500.656,21/1000,63,102.0
7624,A1,500.667,1/100,108,102.0
7625,C4,504.635,11917/1000,73,102.0
7626,C5,504.635,1.438,97,102.0
7627,A1,504.635,3.938,108,102.0
7628,D4,504.635,729/1000,102,102.0
7629,D4,504.635,729/1000,102,102.0
7630,E-3,504.635,21/500,63,102.0
7631,B-4,504.635,21/500,63,102.0
7632,F#2,504.635,21/500,63,102.0
7633,B1,504.635,21/500,63,102.0
7634,B-4,504.865,0.062,44,102.0
7635,F#2,504.865,0.062,44,102.0
7636,F#2,505.125,0.062,42,102.0
7637,B-4,505.125,0.062,42,102.0
7638,F#2,505.365,0.062,40,102.0
7639,B-4,505.365,0.062,40,102.0
7640,B3,505.375,49/100,98,102.0
7641,B3,505.375,49/100,98,102.0
7642,F#2,505.615,0.062,64,102.0
7643,E-3,505.615,0.062,64,102.0
7644,C#2,505.615,0.062,64,102.0
7645,F#3,505.615,0.062,64,102.0
7646,B-4,505.615,0.062,64,102.0
7647,F#2,505.865,0.062,34,102.0
7648,B-4,505.865,0.062,34,102.0
7649,C4,505.896,56/125,95,102.0
7650,C4,505.896,56/125,95,102.0
7651,B4,506.073,2.562,94,102.0
7652,G4,506.115,0.25,108,102.0
7653,F#2,506.115,0.062,38,102.0
7654,B-4,506.115,0.062,38,102.0
7655,G5,506.365,0.406,117,102.0
7656,F#2,506.365,0.062,46,102.0
7657,B-4,506.365,0.062,46,102.0
7658,C#2,506.365,0.062,46,102.0
7659,G4,506.406,427/500,104,102.0
7660,G4,506.406,427/500,104,102.0
7661,F#2,506.615,0.062,58,102.0
7662,E-3,506.615,0.062,58,102.0
7663,B-4,506.615,0.062,58,102.0
7664,C#2,506.615,0.062,58,102.0
7665,E5,506.844,56/125,106,102.0
7666,F#2,506.865,0.062,38,102.0
7667,B-4,506.865,0.062,38,102.0
7668,F#2,507.115,0.062,40,102.0
7669,B-4,507.115,0.062,40,102.0
7670,D5,507.333,0.5,106,102.0
7671,E4,507.333,0.5,106,102.0
7672,E4,507.333,0.5,106,102.0
7673,F#2,507.365,0.062,36,102.0
7674,B-4,507.365,0.062,36,102.0
7675,F#2,507.615,0.062,72,102.0
7676,E-3,507.615,0.062,72,102.0
7677,B-4,507.615,0.062,72,102.0
7678,A2,507.615,0.062,72,102.0
7679,B1,507.615,0.062,72,102.0
7680,F#2,507.865,0.062,38,102.0
7681,B-4,507.865,0.062,38,102.0
7682,F4,507.896,151/250,95,102.0
7683,F4,507.896,151/250,95,102.0
7684,C5,507.938,73/200,109,102.0
7685,F#2,508.125,0.062,52,102.0
7686,B-4,508.125,0.062,52,102.0
7687,E5,508.302,333/1000,101,102.0
7688,B1,508.375,0.062,74,102.0
7689,F#2,508.375,0.062,74,102.0
7690,B-4,508.375,0.062,74,102.0
7691,F3,508.604,0.031,68,102.0
7692,A3,508.604,0.031,68,102.0
7693,F1,508.625,1/100,116,102.0
7694,B1,508.625,1/100,65,102.0
7695,F#2,508.625,1/100,65,102.0
7696,F#3,508.625,1/100,65,102.0
7697,E-3,508.625,1/100,65,102.0
7698,B-4,508.625,1/100,65,102.0
7699,G4,508.625,1/100,102,102.0
7700,G4,508.625,1/100,102,102.0
7701,B4,516.552,0.125,94,102.0
7702,E5,516.552,167/1000,101,102.0
7703,F1,516.552,773/200,116,102.0
7704,F3,516.552,1987/250,68,102.0
7705,A3,516.552,1987/250,68,102.0
7706,B1,516.552,13/250,65,102.0
7707,F#2,516.552,13/250,65,102.0
7708,F#3,516.552,13/250,65,102.0
7709,E-3,516.552,13/250,65,102.0
7710,B-4,516.552,13/250,65,102.0
7711,G4,516.552,0.75,102,102.0
7712,G4,516.552,0.75,102,102.0
7713,D5,516.802,99/500,103,102.0
7714,F#2,516.802,0.062,36,102.0
7715,B-4,516.802,0.062,36,102.0
7716,B-4,517.042,0.062,42,102.0
7717,F#2,517.042,0.062,42,102.0
7718,D5,517.062,13/50,102,102.0
7719,F#2,517.292,0.062,36,102.0
7720,B-4,517.292,0.062,36,102.0
7721,E4,517.312,0.469,102,102.0
7722,E4,517.312,0.469,102,102.0
7723,C5,517.323,0.281,102,102.0
7724,F#2,517.531,0.062,61,102.0
7725,E-3,517.531,0.062,61,102.0
7726,C#2,517.531,0.062,61,102.0
7727,B-4,517.531,0.062,61,102.0
7728,C5,517.625,377/200,103,102.0
7729,F#2,517.792,0.062,37,102.0
7730,B-4,517.792,0.062,37,102.0
7731,F4,517.823,0.562,108,102.0
7732,F4,517.823,0.562,108,102.0
7733,F#2,518.031,0.062,45,102.0
7734,B-4,518.031,0.062,45,102.0
7735,F#2,518.281,0.062,37,102.0
7736,B-4,518.281,0.062,37,102.0
7737,C5,518.302,37/50,106,102.0
7738,C5,518.302,37/50,106,102.0
7739,A5,518.458,2.094,115,102.0
7740,E-3,518.521,0.062,49,102.0
7741,F#2,518.521,0.062,49,102.0
7742,B-4,518.521,0.062,49,102.0
7743,F#2,518.792,0.062,35,102.0
7744,B-4,518.792,0.062,35,102.0
7745,F#2,519.042,0.062,44,102.0
7746,B-4,519.042,0.062,44,102.0
7747,F#2,519.281,0.062,38,102.0
7748,B-4,519.281,0.062,38,102.0
7749,E4,519.312,56/125,104,102.0
7750,E4,519.312,56/125,104,102.0
7751,E-3,519.521,0.062,70,102.0
7752,A2,519.521,0.062,70,102.0
7753,F#2,519.521,0.062,70,102.0
7754,B-4,519.521,0.062,70,102.0
7755,C#2,519.521,0.062,70,102.0
7756,B1,519.521,0.062,70,102.0
7757,F#2,519.792,0.062,46,102.0
7758,B-4,519.792,0.062,46,102.0
7759,F4,519.823,151/250,100,102.0
7760,F4,519.823,151/250,100,102.0
7761,F#2,520.042,0.062,47,102.0
7762,B-4,520.042,0.062,47,102.0
7763,B1,520.292,0.062,71,102.0
7764,F#2,520.292,0.062,71,102.0
7765,B-4,520.292,0.062,71,102.0
7766,F1,520.531,21/1000,109,102.0
7767,E-3,520.531,21/1000,63,102.0
7768,B-4,520.531,21/1000,63,102.0
7769,B1,520.531,21/1000,63,102.0
7770,F#2,520.531,21/1000,63,102.0
7771,F#3,520.531,21/1000,63,102.0
7772,G4,520.542,1/100,104,102.0
7773,G4,520.542,1/100,104,102.0
7774,F1,524.5,3.719,109,102.0
7775,A5,524.5,987/250,115,102.0
7776,E-3,524.5,21/500,63,102.0
7777,B-4,524.5,21/500,63,102.0
7778,B1,524.5,21/500,63,102.0
7779,F#2,524.5,21/500,63,102.0
7780,F#3,524.5,21/500,63,102.0
7781,G4,524.5,349/500,104,102.0
7782,G4,524.5,349/500,104,102.0
7783,F#2,524.74,0.062,42,102.0
7784,B-4,524.74,0.062,42,102.0
7785,B-4,524.979,0.062,42,102.0
7786,F#2,524.979,0.062,42,102.0
7787,F#2,525.229,0.062,42,102.0
7788,B-4,525.229,0.062,42,102.0
7789,E4,525.25,479/1000,100,102.0
7790,E4,525.25,479/1000,100,102.0
7791,E-3,525.479,0.062,64,102.0
7792,C#2,525.479,0.062,64,102.0
7793,F#2,525.479,0.062,64,102.0
7794,B-4,525.479,0.062,64,102.0
7795,F#2,525.74,0.062,39,102.0
7796,B-4,525.74,0.062,39,102.0
7797,F4,525.771,0.438,98,102.0
7798,F4,525.771,0.438,98,102.0
7799,F#2,525.979,0.062,46,102.0
7800,B-4,525.979,0.062,46,102.0
7801,F#2,526.229,0.062,38,102.0
7802,B-4,526.229,0.062,38,102.0
7803,C5,526.25,2021/1000,97,102.0
7804,C5,526.25,2021/1000,97,102.0
7805,E-3,526.469,0.062,51,102.0
7806,F#2,526.469,0.062,51,102.0
7807,B-4,526.469,0.062,51,102.0
7808,F#2,526.729,0.062,34,102.0
7809,B-4,526.729,0.062,34,102.0
7810,F#2,526.979,0.062,61,102.0
7811,C#2,526.979,0.062,61,102.0
7812,B-4,526.979,0.062,61,102.0
7813,F#2,527.229,0.062,53,102.0
7814,A2,527.229,0.062,53,102.0
7815,B-4,527.229,0.062,53,102.0
7816,F#2,527.479,0.062,61,102.0
7817,E-3,527.479,0.062,61,102.0
7818,A2,527.479,0.062,61,102.0
7819,F#3,527.479,0.062,61,102.0
7820,B-4,527.479,0.062,61,102.0
7821,F#2,527.729,0.062,38,102.0
7822,B-4,527.729,0.062,38,102.0
7823,D4,527.75,167/1000,83,102.0
7824,B4,527.75,167/1000,83,102.0
7825,B-4,527.979,0.062,47,102.0
7826,F#2,527.979,0.062,47,102.0
7827,D4,528.0,0.5,63,102.0
7828,B4,528.01,0.375,102,102.0
7829,B-4,528.229,0.062,38,102.0
7830,F#2,528.229,0.062,38,102.0
7831,E2,528.24,13/50,110,102.0
7832,C#3,528.469,0.031,56,102.0
7833,B-4,528.469,0.031,56,102.0
7834,B1,528.469,0.031,56,102.0
7835,E-3,528.469,0.031,56,102.0
7836,G3,528.479,21/1000,69,102.0
7837,C4,528.479,21/1000,69,102.0
7838,B3,528.479,21/1000,69,102.0
7839,E4,528.479,21/1000,69,102.0
7840,A1,528.5,444/125,109,102.0
7841,D4,528.5,0.031,63,102.0
7842,E2,528.5,13/250,110,102.0
7843,C#3,528.5,0.031,56,102.0
7844,B-4,528.5,0.031,56,102.0
7845,B1,528.5,0.031,56,102.0
7846,E-3,528.5,0.031,56,102.0
7847,G3,528.5,5927/500,69,102.0
7848,C4,528.5,5927/500,69,102.0
7849,B3,528.5,5927/500,69,102.0
7850,E4,528.5,5927/500,69,102.0
7851,C5,528.521,177/1000,107,102.0
7852,E4,528.531,271/1000,61,102.0
7853,B-4,528.719,0.062,46,102.0
7854,F#2,528.719,0.062,46,102.0
7855,C5,528.781,77/200,102,102.0
7856,E4,528.812,56/125,59,102.0
7857,B-4,528.979,0.062,42,102.0
7858,F#2,528.979,0.062,42,102.0
7859,B-4,529.229,0.062,38,102.0
7860,F#2,529.229,0.062,38,102.0
7861,B4,529.26,333/1000,107,102.0
7862,D4,529.26,49/100,61,102.0
7863,F#2,529.479,0.062,60,102.0
7864,E-3,529.479,0.062,60,102.0
7865,B-4,529.479,0.062,60,102.0
7866,C#2,529.479,0.062,60,102.0
7867,F#2,529.729,0.062,24,102.0
7868,B-4,529.729,0.062,24,102.0
7869,B4,529.76,0.406,108,102.0
7870,D4,529.76,51/100,61,102.0
7871,F#2,529.979,0.062,38,102.0
7872,B-4,529.979,0.062,38,102.0
7873,F#2,530.229,0.062,63,102.0
7874,B-4,530.229,0.062,63,102.0
7875,A4,530.271,177/500,109,102.0
7876,C4,530.271,479/1000,60,102.0
7877,F#2,530.479,0.062,54,102.0
7878,E-3,530.479,0.062,54,102.0
7879,B-4,530.479,0.062,54,102.0
7880,F#2,530.729,0.062,29,102.0
7881,B-4,530.729,0.062,29,102.0
7882,A4,530.76,417/1000,108,102.0
7883,C4,530.76,521/1000,59,102.0
7884,F#2,530.99,0.062,42,102.0
7885,B-4,530.99,0.062,42,102.0
7886,F#2,531.229,0.062,26,102.0
7887,B-4,531.229,0.062,26,102.0
7888,B4,531.281,417/1000,111,102.0
7889,D4,531.281,521/1000,63,102.0
7890,E-3,531.469,0.062,66,102.0
7891,F#2,531.469,0.062,66,102.0
7892,F#3,531.469,0.062,66,102.0
7893,B-4,531.469,0.062,66,102.0
7894,F#2,531.74,0.062,34,102.0
7895,B-4,531.74,0.062,34,102.0
7896,B4,531.812,151/250,109,102.0
7897,D4,531.812,0.688,62,102.0
7898,C#3,531.958,0.062,41,102.0
7899,F#2,531.958,0.062,41,102.0
7900,B-4,531.958,0.062,41,102.0
7901,A2,531.99,0.281,109,102.0
7902,E2,532.229,271/1000,108,102.0
7903,F#2,532.24,0.062,54,102.0
7904,B-4,532.24,0.062,54,102.0
7905,B1,532.24,0.062,54,102.0
7906,C#3,532.479,21/1000,55,102.0
7907,F#2,532.479,21/1000,55,102.0
7908,E-3,532.479,21/1000,55,102.0
7909,B-4,532.479,21/1000,55,102.0
7910,B1,532.479,21/1000,55,102.0
7911,A1,532.49,1/100,107,102.0
7912,E2,540.354,0.031,108,102.0
7913,D4,540.354,13/250,62,102.0
7914,A1,540.354,3.594,107,102.0
7915,C#3,540.354,21/500,55,102.0
7916,F#2,540.354,21/500,55,102.0
7917,E-3,540.354,21/500,55,102.0
7918,B-4,540.354,21/500,55,102.0
7919,B1,540.354,21/500,55,102.0
7920,B4,540.417,2.094,105,102.0
7921,D4,540.417,199/100,61,102.0
7922,F#2,540.594,0.062,28,102.0
7923,B-4,540.594,0.062,28,102.0
7924,F#2,540.844,0.062,45,102.0
7925,B-4,540.844,0.062,45,102.0
7926,F#2,541.094,0.062,38,102.0
7927,B-4,541.094,0.062,38,102.0
7928,E-3,541.344,0.062,64,102.0
7929,B-4,541.344,0.062,64,102.0
7930,F#2,541.344,0.062,64,102.0
7931,C#2,541.344,0.062,64,102.0
7932,B-4,541.594,0.062,29,102.0
7933,F#2,541.594,0.062,29,102.0
7934,B-4,541.844,0.062,46,102.0
7935,F#2,541.844,0.062,46,102.0
7936,F#2,542.094,0.062,60,102.0
7937,B-4,542.094,0.062,60,102.0
7938,F#3,542.344,0.062,58,102.0
7939,B-4,542.344,0.062,58,102.0
7940,F#2,542.344,0.062,58,102.0
7941,E-3,542.344,0.062,58,102.0
7942,F#2,542.594,0.062,32,102.0
7943,B-4,542.594,0.062,32,102.0
7944,F#2,542.844,0.062,44,102.0
7945,B-4,542.844,0.062,44,102.0
7946,F#2,543.083,0.062,33,102.0
7947,B-4,543.083,0.062,33,102.0
7948,F#2,543.333,0.062,66,102.0
7949,E-3,543.333,0.062,66,102.0
7950,B-4,543.333,0.062,66,102.0
7951,F#2,543.594,0.062,30,102.0
7952,B-4,543.594,0.062,30,102.0
7953,C#3,543.76,0.062,34,102.0
7954,F#2,543.833,0.062,46,102.0
7955,B-4,543.833,0.062,46,102.0
7956,A2,543.844,0.281,108,102.0
7957,F#2,544.083,0.062,56,102.0
7958,B1,544.083,0.062,56,102.0
7959,B-4,544.083,0.062,56,102.0
7960,E2,544.094,13/50,110,102.0
7961,C#3,544.302,13/250,58,102.0
7962,B1,544.302,13/250,58,102.0
7963,F#2,544.302,13/250,58,102.0
7964,E-3,544.302,13/250,58,102.0
7965,B-4,544.302,13/250,58,102.0
7966,E2,544.354,0.031,110,102.0
7967,E4,544.354,0.219,86,102.0
7968,C5,544.354,0.219,86,102.0
7969,C#3,544.354,1/100,58,102.0
7970,B1,544.354,1/100,58,102.0
7971,F#2,544.354,1/100,58,102.0
7972,E-3,544.354,1/100,58,102.0
7973,B-4,544.354,1/100,58,102.0
7974,A1,544.365,1771/500,107,102.0
7975,C5,544.604,0.344,102,102.0
7976,E4,544.604,0.438,64,102.0
7977,B-4,544.604,0.062,32,102.0
7978,F#2,544.854,0.062,42,102.0
7979,B-4,544.854,0.062,42,102.0
7980,D4,545.042,417/1000,85,102.0
7981,B4,545.042,417/1000,85,102.0
7982,F#2,545.094,0.062,38,102.0
7983,B-4,545.094,0.062,38,102.0
7984,C#2,545.344,0.062,68,102.0
7985,F#2,545.344,0.062,68,102.0
7986,E-3,545.344,0.062,68,102.0
7987,B-4,545.344,0.062,68,102.0
7988,D4,545.51,0.281,61,102.0
7989,B4,545.573,0.219,107,102.0
7990,F#2,545.604,0.062,36,102.0
7991,B-4,545.604,0.062,36,102.0
7992,C4,545.792,1583/1000,63,102.0
7993,B-4,545.844,0.062,43,102.0
7994,F#2,545.844,0.062,43,102.0
7995,A4,545.865,181/125,102,102.0
7996,F#2,546.094,0.062,72,102.0
7997,B-4,546.094,0.062,72,102.0
7998,E-3,546.323,0.062,62,102.0
7999,F#2,546.323,0.062,62,102.0
8000,F#3,546.323,0.062,62,102.0
8001,B-4,546.323,0.062,62,102.0
8002,F#2,546.594,0.062,36,102.0
8003,B-4,546.594,0.062,36,102.0
8004,F#2,546.844,0.062,46,102.0
8005,B-4,546.844,0.062,46,102.0
8006,F#2,547.083,0.062,40,102.0
8007,B-4,547.083,0.062,40,102.0
8008,F#2,547.344,0.062,65,102.0
8009,E-3,547.344,0.062,65,102.0
8010,B-4,547.344,0.062,65,102.0
8011,F#2,547.594,0.062,40,102.0
8012,B-4,547.594,0.062,40,102.0
8013,A4,547.667,6/25,81,102.0
8014,C4,547.667,6/25,81,102.0
8015,C#3,547.792,0.062,46,102.0
8016,F#2,547.792,0.062,46,102.0
8017,B-4,547.792,0.062,46,102.0
8018,A2,547.844,271/1000,110,102.0
8019,A4,547.917,0.219,102,102.0
8020,C4,547.927,0.281,62,102.0
8021,F#2,548.083,0.062,56,102.0
8022,B-4,548.083,0.062,56,102.0
8023,B1,548.083,0.062,56,102.0
8024,E2,548.094,13/50,108,102.0
8025,F#4,548.208,73/500,88,102.0
8026,D5,548.208,73/500,88,102.0
8027,B3,548.302,13/250,59,102.0
8028,F#2,548.302,13/250,59,102.0
8029,E-3,548.302,13/250,59,102.0
8030,B-4,548.302,13/250,59,102.0
8031,B1,548.302,13/250,59,102.0
8032,F#3,548.323,0.031,70,102.0
8033,D4,548.323,0.031,70,102.0
8034,A3,548.323,0.031,70,102.0
8035,C4,548.323,0.031,70,102.0
8036,E2,548.354,21/500,108,102.0
8037,F#4,548.354,0.312,88,102.0
8038,D5,548.354,0.312,88,102.0
8039,B3,548.354,1/100,59,102.0
8040,F#2,548.354,1/100,59,102.0
8041,E-3,548.354,1/100,59,102.0
8042,B-4,548.354,1/100,59,102.0
8043,B1,548.354,1/100,59,102.0
8044,F#3,548.354,487/125,70,102.0
8045,D4,548.354,487/125,70,102.0
8046,A3,548.354,487/125,70,102.0
8047,C4,548.354,487/125,70,102.0
8048,A1,548.365,3.688,111,102.0
8049,F#2,548.583,0.062,36,102.0
8050,B-4,548.583,0.062,36,102.0
8051,C5,548.698,0.406,80,102.0
8052,E4,548.698,0.406,80,102.0
8053,F#2,548.844,0.062,43,102.0
8054,B-4,548.844,0.062,43,102.0
8055,F#2,549.083,0.062,34,102.0
8056,B-4,549.083,0.062,34,102.0
8057,B4,549.115,99/250,77,102.0
8058,D4,549.115,99/250,77,102.0
8059,C#2,549.344,0.062,65,102.0
8060,F#2,549.344,0.062,65,102.0
8061,F#3,549.344,0.062,65,102.0
8062,E-3,549.344,0.062,65,102.0
8063,B-4,549.344,0.062,65,102.0
8064,A4,549.51,1021/1000,96,102.0
8065,C4,549.51,194/125,55,102.0
8066,F#2,549.594,0.062,37,102.0
8067,B-4,549.594,0.062,37,102.0
8068,F#2,549.844,0.062,48,102.0
8069,B-4,549.844,0.062,48,102.0
8070,F#2,550.083,0.062,69,102.0
8071,B-4,550.083,0.062,69,102.0
8072,A5,550.271,2083/1000,108,102.0
8073,E-3,550.333,0.062,60,102.0
8074,F#2,550.333,0.062,60,102.0
8075,B-4,550.333,0.062,60,102.0
8076,F#2,550.594,0.062,35,102.0
8077,B-4,550.594,0.062,35,102.0
8078,F#2,550.844,0.062,47,102.0
8079,B-4,550.844,0.062,47,102.0
8080,E3,550.885,667/1000,114,102.0
8081,E3,550.885,667/1000,114,102.0
8082,F#2,551.083,0.062,30,102.0
8083,B-4,551.083,0.062,30,102.0
8084,E-3,551.333,0.062,70,102.0
8085,F#2,551.333,0.062,70,102.0
8086,B-4,551.333,0.062,70,102.0
8087,F3,551.406,0.562,90,102.0
8088,F3,551.406,0.562,90,102.0
8089,F#2,551.594,0.062,36,102.0
8090,B-4,551.594,0.062,36,102.0
8091,F#2,551.844,0.062,50,102.0
8092,B-4,551.844,0.062,50,102.0
8093,A3,551.896,229/500,84,102.0
8094,A3,551.896,229/500,84,102.0
8095,F#2,552.094,0.062,54,102.0
8096,B1,552.094,0.062,54,102.0
8097,B-4,552.094,0.062,54,102.0
8098,F3,552.323,0.031,70,102.0
8099,A3,552.323,0.031,70,102.0
8100,C4,552.323,0.031,70,102.0
8101,D2,552.344,1/100,114,102.0
8102,B1,552.344,1/100,69,102.0
8103,E-3,552.344,1/100,69,102.0
8104,F#2,552.344,1/100,69,102.0
8105,B-4,552.344,1/100,69,102.0
8106,G4,552.354,37/50,58,102.0
8107,D2,552.354,3.531,114,102.0
8108,A5,552.354,2.688,108,102.0
8109,F3,552.354,1979/500,70,102.0
8110,A3,552.354,1979/500,70,102.0
8111,C4,552.354,1979/500,70,102.0
8112,B1,552.354,13/250,69,102.0
8113,E-3,552.354,13/250,69,102.0
8114,F#2,552.354,13/250,69,102.0
8115,B-4,552.354,13/250,69,102.0
8116,A3,552.354,27/200,84,102.0
8117,A3,552.354,27/200,84,102.0
8118,E5,552.375,151/250,113,102.0
8119,C4,552.427,1021/500,91,102.0
8120,C4,552.427,1021/500,91,102.0
8121,F#2,552.604,0.062,33,102.0
8122,B-4,552.604,0.062,33,102.0
8123,F#2,552.865,0.062,45,102.0
8124,B-4,552.865,0.062,45,102.0
8125,F#2,553.094,0.062,36,102.0
8126,B-4,553.094,0.062,36,102.0
8127,G4,553.104,0.719,59,102.0
8128,E5,553.115,573/1000,106,102.0
8129,C#2,553.344,0.062,64,102.0
8130,F#2,553.344,0.062,64,102.0
8131,E-3,553.344,0.062,64,102.0
8132,F#3,553.344,0.062,64,102.0
8133,B-4,553.344,0.062,64,102.0
8134,F#2,553.604,0.062,34,102.0
8135,B-4,553.604,0.062,34,102.0
8136,E5,553.823,0.5,84,102.0
8137,G4,553.823,0.5,84,102.0
8138,F#2,553.844,0.062,56,102.0
8139,B-4,553.844,0.062,56,102.0
8140,F#2,554.094,0.062,64,102.0
8141,B-4,554.094,0.062,64,102.0
8142,B4,554.333,37/50,59,102.0
8143,E-3,554.333,0.062,63,102.0
8144,F#2,554.333,0.062,63,102.0
8145,B-4,554.333,0.062,63,102.0
8146,G5,554.396,127/200,112,102.0
8147,F#2,554.583,0.062,38,102.0
8148,B-4,554.583,0.062,38,102.0
8149,F#2,554.844,0.062,48,102.0
8150,B-4,554.844,0.062,48,102.0
8151,E4,554.865,0.562,109,102.0
8152,E4,554.865,0.562,109,102.0
8153,A4,555.073,123/200,85,102.0
8154,F5,555.073,123/200,85,102.0
8155,F#2,555.083,0.062,44,102.0
8156,B-4,555.083,0.062,44,102.0
8157,F#2,555.333,0.062,67,102.0
8158,E-3,555.333,0.062,67,102.0
8159,B-4,555.333,0.062,67,102.0
8160,F4,555.375,0.531,92,102.0
8161,F4,555.375,0.531,92,102.0
8162,F#2,555.583,0.062,38,102.0
8163,B-4,555.583,0.062,38,102.0
8164,G4,555.771,583/1000,61,102.0
8165,E5,555.781,479/1000,105,102.0
8166,A2,555.844,73/250,108,102.0
8167,F#2,555.844,0.062,46,102.0
8168,B-4,555.844,0.062,46,102.0
8169,C5,555.917,0.438,92,102.0
8170,C5,555.917,0.438,92,102.0
8171,F#2,556.083,0.062,39,102.0
8172,B-4,556.083,0.062,39,102.0
8173,D2,556.104,0.25,107,102.0
8174,E3,556.333,21/1000,69,102.0
8175,B3,556.333,21/1000,69,102.0
8176,G3,556.333,21/1000,68,102.0
8177,B3,556.333,21/1000,68,102.0
8178,E-3,556.333,21/1000,69,102.0
8179,B1,556.333,21/1000,69,102.0
8180,F#2,556.333,21/1000,69,102.0
8181,F#3,556.333,21/1000,69,102.0
8182,B-4,556.333,21/1000,69,102.0
8183,D2,556.354,0.031,107,102.0
8184,E3,556.354,1979/500,69,102.0
8185,B3,556.354,1979/500,69,102.0
8186,C5,556.354,0.125,92,102.0
8187,C5,556.354,0.125,92,102.0
8188,G3,556.354,1979/500,68,102.0
8189,B3,556.354,1979/500,68,102.0
8190,E-3,556.354,21/500,69,102.0
8191,B1,556.354,21/500,69,102.0
8192,F#2,556.354,21/500,69,102.0
8193,F#3,556.354,21/500,69,102.0
8194,B-4,556.354,21/500,69,102.0
8195,G4,556.365,771/1000,60,102.0
8196,E2,556.365,3417/1000,110,102.0
8197,E5,556.375,0.656,109,102.0
8198,B4,556.479,1.688,84,102.0
8199,B4,556.479,1.688,84,102.0
8200,F#2,556.594,0.062,29,102.0
8201,B-4,556.594,0.062,29,102.0
8202,D5,556.833,349/250,95,102.0
8203,B-4,556.844,0.062,46,102.0
8204,F#2,556.844,0.062,46,102.0
8205,F#2,557.094,0.062,37,102.0
8206,B-4,557.094,0.062,37,102.0
8207,F4,557.135,0.688,84,102.0
8208,D5,557.135,0.688,84,102.0
8209,C#2,557.344,0.062,67,102.0
8210,F#2,557.344,0.062,67,102.0
8211,B-4,557.344,0.062,67,102.0
8212,E-3,557.344,0.062,67,102.0
8213,F#2,557.594,0.062,40,102.0
8214,B-4,557.594,0.062,40,102.0
8215,E4,557.823,521/1000,58,102.0
8216,B-2,557.844,0.062,53,102.0
8217,B-4,557.844,0.062,53,102.0
8218,C5,557.885,229/500,106,102.0
8219,B-4,558.094,0.062,32,102.0
8220,E-3,558.323,0.062,49,102.0
8221,B-4,558.323,0.062,49,102.0
8222,F#2,558.323,0.062,49,102.0
8223,G4,558.344,37/50,60,102.0
8224,E5,558.417,729/1000,109,102.0
8225,B-4,558.573,0.062,29,102.0
8226,B-4,558.833,0.062,49,102.0
8227,F#2,558.833,0.062,49,102.0
8228,E3,558.885,0.562,98,102.0
8229,E3,558.885,0.562,98,102.0
8230,F4,559.083,729/1000,58,102.0
8231,B-4,559.083,0.062,45,102.0
8232,F#2,559.083,0.062,45,102.0
8233,D5,559.188,729/1000,106,102.0
8234,E-3,559.333,0.062,55,102.0
8235,F#2,559.333,0.062,55,102.0
8236,B-4,559.333,0.062,55,102.0
8237,F3,559.365,0.531,88,102.0
8238,F3,559.365,0.531,88,102.0
8239,B-4,559.583,0.062,38,102.0
8240,F#2,559.583,0.062,38,102.0
8241,E4,559.812,0.438,86,102.0
8242,E2,559.812,0.438,86,102.0
8243,F#2,559.844,0.062,51,102.0
8244,B-4,559.844,0.062,51,102.0
8245,C4,559.885,0.469,100,102.0
8246,C4,559.885,0.469,100,102.0
8247,C5,559.917,99/250,102,102.0
8248,F#2,560.094,0.062,30,102.0
8249,B-4,560.094,0.062,30,102.0
8250,C3,560.323,0.031,69,102.0
8251,A3,560.323,0.031,69,102.0
8252,F3,560.333,21/1000,66,102.0
8253,A3,560.333,21/1000,66,102.0
8254,E-3,560.333,21/1000,69,102.0
8255,B1,560.333,21/1000,69,102.0
8256,F#3,560.333,21/1000,69,102.0
8257,B-4,560.333,21/1000,69,102.0
8258,F#2,560.333,21/1000,69,102.0
8259,G4,560.344,1/100,61,102.0
8260,F2,560.344,1/100,112,102.0
8261,G4,560.354,0.719,61,102.0
8262,F2,560.354,3.625,112,102.0
8263,C3,560.354,4.0,69,102.0
8264,A3,560.354,4.0,69,102.0
8265,F3,560.354,401/100,66,102.0
8266,A3,560.354,401/100,66,102.0
8267,E-3,560.354,21/500,69,102.0
8268,B1,560.354,21/500,69,102.0
8269,F#3,560.354,21/500,69,102.0
8270,B-4,560.354,21/500,69,102.0
8271,F#2,560.354,21/500,69,102.0
8272,C4,560.354,0.062,100,102.0
8273,C4,560.354,0.062,100,102.0
8274,A3,560.427,823/500,80,102.0
8275,A3,560.427,823/500,80,102.0
8276,E5,560.458,729/1000,108,102.0
8277,F#2,560.615,0.062,34,102.0
8278,B-4,560.615,0.062,34,102.0
8279,F#2,560.854,0.062,54,102.0
8280,B-4,560.854,0.062,54,102.0
8281,F4,561.073,677/1000,58,102.0
8282,F#2,561.115,0.062,44,102.0
8283,B-4,561.115,0.062,44,102.0
8284,D5,561.188,667/1000,107,102.0
8285,E-3,561.344,0.062,70,102.0
8286,C#2,561.344,0.062,70,102.0
8287,F#2,561.344,0.062,70,102.0
8288,B-4,561.344,0.062,70,102.0
8289,F#2,561.594,0.062,34,102.0
8290,B-4,561.594,0.062,34,102.0
8291,E4,561.75,69/125,58,102.0
8292,F#2,561.844,0.062,41,102.0
8293,B-4,561.844,0.062,41,102.0
8294,C5,561.865,323/1000,107,102.0
8295,F#2,562.083,0.062,38,102.0
8296,B-4,562.083,0.062,38,102.0
8297,E4,562.312,0.75,64,102.0
8298,F#2,562.333,0.062,57,102.0
8299,E-3,562.333,0.062,57,102.0
8300,B-4,562.333,0.062,57,102.0
8301,C5,562.406,349/500,110,102.0
8302,F#2,562.583,0.062,31,102.0
8303,B-4,562.583,0.062,31,102.0
8304,F#2,562.844,0.062,42,102.0
8305,B-4,562.844,0.062,42,102.0
8306,E4,562.885,0.562,98,102.0
8307,E4,562.885,0.562,98,102.0
8308,D4,563.062,0.656,58,102.0
8309,F#2,563.094,0.062,38,102.0
8310,B-4,563.094,0.062,38,102.0
8311,B4,563.135,0.625,105,102.0
8312,F#2,563.344,0.062,60,102.0
8313,F#3,563.344,0.062,60,102.0
8314,E-3,563.344,0.062,60,102.0
8315,B-4,563.344,0.062,60,102.0
8316,F4,563.396,0.531,86,102.0
8317,F4,563.396,0.531,86,102.0
8318,F#2,563.594,0.062,37,102.0
8319,B-4,563.594,0.062,37,102.0
8320,E4,563.719,151/250,61,102.0
8321,C5,563.833,77/200,103,102.0
8322,F#2,563.844,0.062,47,102.0
8323,B-4,563.844,0.062,47,102.0
8324,B4,563.885,0.469,84,102.0
8325,B4,563.885,0.469,84,102.0
8326,F2,564.083,271/1000,112,102.0
8327,F#2,564.094,0.062,59,102.0
8328,B1,564.094,0.062,59,102.0
8329,B-4,564.094,0.062,59,102.0
8330,F4,564.323,0.031,85,102.0
8331,D5,564.323,0.031,85,102.0
8332,D3,564.323,0.031,69,102.0
8333,G3,564.323,0.031,69,102.0
8334,B3,564.323,0.031,69,102.0
8335,G2,564.344,1/100,107,102.0
8336,B1,564.344,1/100,64,102.0
8337,E-3,564.344,1/100,64,102.0
8338,F#2,564.344,1/100,64,102.0
8339,B-4,564.344,1/100,64,102.0
8340,G2,564.365,1823/500,107,102.0
8341,F4,564.365,729/1000,85,102.0
8342,D5,564.365,729/1000,85,102.0
8343,D3,564.365,3917/1000,69,102.0
8344,G3,564.365,3917/1000,69,102.0
8345,B3,564.365,3917/1000,69,102.0
8346,B4,564.365,0.062,84,102.0
8347,B4,564.365,0.062,84,102.0
8348,B1,564.365,13/250,64,102.0
8349,E-3,564.365,13/250,64,102.0
8350,F#2,564.365,13/250,64,102.0
8351,B-4,564.365,13/250,64,102.0
8352,G4,564.406,849/500,80,102.0
8353,G4,564.406,849/500,80,102.0
8354,F#2,564.594,0.062,34,102.0
8355,B-4,564.594,0.062,34,102.0
8356,F#2,564.854,0.062,44,102.0
8357,B-4,564.854,0.062,44,102.0
8358,E4,565.094,667/1000,56,102.0
8359,F#2,565.125,0.062,40,102.0
8360,B-4,565.125,0.062,40,102.0
8361,C5,565.156,667/1000,103,102.0
8362,C#2,565.365,0.062,69,102.0
8363,F#2,565.365,0.062,69,102.0
8364,E-3,565.365,0.062,69,102.0
8365,B-4,565.365,0.062,69,102.0
8366,F#2,565.604,0.062,36,102.0
8367,B-4,565.604,0.062,36,102.0
8368,D4,565.76,0.531,58,102.0
8369,B4,565.823,0.312,102,102.0
8370,F#2,565.854,0.062,44,102.0
8371,B-4,565.854,0.062,44,102.0
8372,F#2,566.104,0.062,38,102.0
8373,B-4,566.104,0.062,38,102.0
8374,D4,566.302,151/250,61,102.0
8375,B4,566.354,667/1000,109,102.0
8376,F#2,566.365,0.062,53,102.0
8377,B-4,566.365,0.062,53,102.0
8378,E-3,566.365,0.062,53,102.0
8379,F#2,566.604,0.062,44,102.0
8380,B-4,566.604,0.062,44,102.0
8381,B-2,566.854,0.062,50,102.0
8382,B-4,566.854,0.062,50,102.0
8383,E3,566.865,583/1000,107,102.0
8384,E3,566.865,583/1000,107,102.0
8385,C4,566.906,729/500,57,102.0
8386,A4,567.042,1.094,102,102.0
8387,B-4,567.104,0.062,29,102.0
8388,F3,567.344,0.594,87,102.0
8389,F3,567.344,0.594,87,102.0
8390,F#3,567.354,0.062,61,102.0
8391,E-3,567.354,0.062,61,102.0
8392,B-4,567.354,0.062,61,102.0
8393,F#2,567.354,0.062,61,102.0
8394,F#2,567.594,0.062,34,102.0
8395,B-4,567.594,0.062,34,102.0
8396,B-2,567.844,0.062,44,102.0
8397,B-4,567.844,0.062,44,102.0
8398,A3,567.875,49/100,91,102.0
8399,A3,567.875,49/100,91,102.0
8400,B1,568.104,0.062,63,102.0
8401,B-4,568.104,0.062,63,102.0
8402,G2,568.115,0.25,112,102.0
8403,E3,568.333,0.031,72,102.0
8404,F3,568.333,0.031,67,102.0
8405,A3,568.333,0.031,67,102.0
8406,C4,568.333,0.031,67,102.0
8407,B1,568.354,1/100,64,102.0
8408,B-4,568.354,1/100,64,102.0
8409,F#2,568.354,1/100,64,102.0
8410,E-3,568.354,1/100,64,102.0
8411,E3,568.365,1577/200,72,102.0
8412,G2,568.365,1/100,112,102.0
8413,F3,568.365,3.906,67,102.0
8414,A3,568.365,3.906,67,102.0
8415,C4,568.365,3.906,67,102.0
8416,A3,568.365,0.031,91,102.0
8417,A3,568.365,0.031,91,102.0
8418,B1,568.365,13/250,64,102.0
8419,B-4,568.365,13/250,64,102.0
8420,F#2,568.365,13/250,64,102.0
8421,E-3,568.365,13/250,64,102.0
8422,D2,568.375,727/200,110,102.0
8423,C4,568.385,2.062,98,102.0
8424,C4,568.385,2.062,98,102.0
8425,F#2,568.604,0.062,38,102.0
8426,B-4,568.604,0.062,38,102.0
8427,F#2,568.854,0.062,44,102.0
8428,B-4,568.854,0.062,44,102.0
8429,F#2,569.104,0.062,40,102.0
8430,B-4,569.104,0.062,40,102.0
8431,E-3,569.333,0.062,66,102.0
8432,C#2,569.333,0.062,66,102.0
8433,F#2,569.333,0.062,66,102.0
8434,B-4,569.333,0.062,66,102.0
8435,F#2,569.594,0.062,37,102.0
8436,B-4,569.594,0.062,37,102.0
8437,G5,569.781,583/1000,118,102.0
8438,F#2,569.844,0.062,44,102.0
8439,B-4,569.844,0.062,44,102.0
8440,C5,569.854,151/500,70,102.0
8441,F#2,570.073,0.062,38,102.0
8442,B-4,570.073,0.062,38,102.0
8443,C5,570.167,99/500,45,102.0
8444,F#2,570.344,0.062,60,102.0
8445,F#3,570.344,0.062,60,102.0
8446,E-3,570.344,0.062,60,102.0
8447,B-4,570.344,0.062,60,102.0
8448,A4,570.365,77/200,59,102.0
8449,E5,570.5,0.344,110,102.0
8450,F#2,570.594,0.062,41,102.0
8451,B-4,570.594,0.062,41,102.0
8452,G4,570.75,479/1000,56,102.0
8453,E4,570.833,0.656,84,102.0
8454,E4,570.833,0.656,84,102.0
8455,F#2,570.844,0.062,46,102.0
8456,B-4,570.844,0.062,46,102.0
8457,D5,571.01,177/500,108,102.0
8458,F#2,571.094,0.062,48,102.0
8459,B-4,571.094,0.062,48,102.0
8460,E4,571.229,0.562,49,102.0
8461,F#2,571.344,0.062,56,102.0
8462,E-3,571.344,0.062,56,102.0
8463,B-4,571.344,0.062,56,102.0
8464,F4,571.396,0.469,87,102.0
8465,F4,571.396,0.469,87,102.0
8466,C5,571.417,0.281,99,102.0
8467,F#2,571.594,0.062,50,102.0
8468,B-4,571.594,0.062,50,102.0
8469,A4,571.792,0.438,82,102.0
8470,E5,571.792,0.438,82,102.0
8471,B-2,571.844,0.062,49,102.0
8472,B-4,571.844,0.062,49,102.0
8473,C5,571.875,49/100,90,102.0
8474,C5,571.875,49/100,90,102.0
8475,B-4,572.094,0.062,62,102.0
8476,B1,572.094,0.062,62,102.0
8477,D2,572.104,13/50,112,102.0
8478,G4,572.25,23/200,50,102.0
8479,D5,572.292,73/1000,107,102.0
8480,G3,572.333,0.031,69,102.0
8481,D4,572.333,0.031,69,102.0
8482,B3,572.333,0.031,69,102.0
8483,E2,572.354,1/100,110,102.0
8484,B1,572.354,1/100,62,102.0
8485,E-3,572.354,1/100,62,102.0
8486,B-4,572.354,1/100,62,102.0
8487,F#2,572.354,1/100,62,102.0
8488,G4,576.25,1.0,50,102.0
8489,D5,576.25,51/100,107,102.0
8490,D2,576.25,1/100,112,102.0
8491,E2,576.25,4.0,110,102.0
8492,C5,576.25,21/500,90,102.0
8493,C5,576.25,21/500,90,102.0
8494,G3,576.25,1927/500,69,102.0
8495,D4,576.25,1927/500,69,102.0
8496,B3,576.25,1927/500,69,102.0
8497,B1,576.25,13/250,62,102.0
8498,E-3,576.25,13/250,62,102.0
8499,B-4,576.25,13/250,62,102.0
8500,F#2,576.25,13/250,62,102.0
8501,B4,576.26,3.5,86,102.0
8502,B4,576.26,3.5,86,102.0
8503,F#2,576.49,0.062,35,102.0
8504,B-4,576.49,0.062,35,102.0
8505,F#2,576.74,0.062,44,102.0
8506,B-4,576.74,0.062,44,102.0
8507,F#2,576.99,0.062,38,102.0
8508,B-4,576.99,0.062,38,102.0
8509,E-3,577.229,0.062,65,102.0
8510,B-4,577.229,0.062,65,102.0
8511,C#2,577.229,0.062,65,102.0
8512,F#2,577.229,0.062,65,102.0
8513,F#2,577.479,0.062,42,102.0
8514,B-4,577.479,0.062,42,102.0
8515,G4,577.656,0.344,97,102.0
8516,F#2,577.74,0.062,46,102.0
8517,B-4,577.74,0.062,46,102.0
8518,F#2,577.979,0.062,36,102.0
8519,B-4,577.979,0.062,36,102.0
8520,G5,578.0,0.469,112,102.0
8521,B-4,578.229,0.062,57,102.0
8522,F#2,578.229,0.062,57,102.0
8523,F#3,578.229,0.062,57,102.0
8524,E-3,578.229,0.062,57,102.0
8525,F#2,578.479,0.062,36,102.0
8526,B-4,578.479,0.062,36,102.0
8527,E5,578.521,0.5,98,102.0
8528,F#2,578.729,0.062,46,102.0
8529,B-4,578.729,0.062,46,102.0
8530,F#2,578.979,0.062,44,102.0
8531,B-4,578.979,0.062,44,102.0
8532,D5,579.021,0.438,101,102.0
8533,E5,579.229,1021/1000,105,102.0
8534,F#2,579.229,0.062,51,102.0
8535,B-4,579.229,0.062,51,102.0
8536,E-3,579.229,0.062,51,102.0
8537,D5,579.469,0.781,99,102.0
8538,F#2,579.479,0.062,48,102.0
8539,B-4,579.479,0.062,48,102.0
8540,B-4,579.719,0.062,46,102.0
8541,B-2,579.719,0.062,46,102.0
8542,B-4,579.969,0.062,47,102.0
8543,C#3,580.198,13/250,56,102.0
8544,E-3,580.198,13/250,56,102.0
8545,B-4,580.198,13/250,56,102.0
8546,B1,580.198,13/250,56,102.0
8547,A3,580.219,0.031,73,102.0
8548,E3,580.219,0.031,73,102.0
8549,A2,580.25,4.0,109,102.0
8550,D5,580.25,229/500,99,102.0
8551,E5,580.25,3479/500,105,102.0
8552,C#3,580.25,1/100,56,102.0
8553,E-3,580.25,1/100,56,102.0
8554,B-4,580.25,1/100,56,102.0
8555,B1,580.25,1/100,56,102.0
8556,A3,580.25,7.844,73,102.0
8557,E3,580.25,7.844,73,102.0
8558,A1,580.26,399/100,104,102.0
8559,A4,580.76,1521/500,97,102.0
8560,E-3,581.271,0.062,48,102.0
8561,E-3,582.24,0.062,49,102.0
8562,E-3,583.229,0.062,49,102.0
8563,E-3,584.0,0.062,49,102.0
8564,E-3,588.094,0.062,51,102.0
8565,A2,588.094,2833/1000,109,102.0
8566,A1,588.094,651/250,104,102.0
8567,E-3,589.094,0.062,50,102.0
8568,E-3,589.844,0.062,49,102.0
8569,E-3,590.073,0.062,49,102.0
8570,E-3,590.594,0.062,49,102.0
8571,B1,591.073,0.062,82,102.0
8572,E-3,591.073,0.062,82,102.0
8573,A2,591.073,0.062,82,102.0
8574,A2,591.333,271/1000,112,102.0
8575,E2,591.583,271/1000,108,102.0
8576,G2,591.833,13/50,108,102.0
8577,C4,592.062,0.031,68,102.0
8578,E4,592.062,0.031,68,102.0
8579,A3,592.062,0.031,68,102.0
8580,G3,592.062,0.031,68,102.0
8581,D5,592.073,21/1000,81,102.0
8582,A2,592.073,21/1000,81,102.0
8583,A4,592.073,21/1000,81,102.0
8584,C4,592.073,21/1000,81,102.0
8585,E-3,592.073,21/1000,69,102.0
8586,F#2,592.073,21/1000,69,102.0
8587,B1,592.073,21/1000,69,102.0
8588,F#3,592.073,21/1000,69,102.0
8589,B-4,592.073,21/1000,69,102.0
8590,C4,592.094,737/125,68,102.0
8591,E4,592.094,737/125,68,102.0
8592,A3,592.094,737/125,68,102.0
8593,G3,592.094,737/125,68,102.0
8594,D5,592.094,23/200,81,102.0
8595,A2,592.094,23/200,81,102.0
8596,A4,592.094,23/200,81,102.0
8597,C4,592.094,23/200,81,102.0
8598,E-3,592.094,21/500,69,102.0
8599,F#2,592.094,21/500,69,102.0
8600,B1,592.094,21/500,69,102.0
8601,F#3,592.094,21/500,69,102.0
8602,B-4,592.094,21/500,69,102.0
8603,F#2,592.333,0.062,34,102.0
8604,B-4,592.333,0.062,34,102.0
8605,A2,592.344,6/25,111,102.0
8606,C4,592.344,0.156,72,102.0
8607,G2,592.583,13/50,108,102.0
8608,B3,592.583,0.156,67,102.0
8609,F#2,592.583,0.062,44,102.0
8610,B-4,592.583,0.062,44,102.0
8611,A2,592.823,0.125,78,102.0
8612,G4,592.823,0.125,78,102.0
8613,C5,592.823,0.125,78,102.0
8614,C4,592.823,0.125,78,102.0
8615,F#2,592.833,0.062,39,102.0
8616,B-4,592.833,0.062,39,102.0
8617,A3,593.073,99/100,64,102.0
8618,C4,593.073,99/100,64,102.0
8619,E-3,593.073,0.062,66,102.0
8620,D2,593.073,0.062,66,102.0
8621,F#2,593.073,0.062,66,102.0
8622,B-4,593.073,0.062,66,102.0
8623,F#2,593.333,0.062,38,102.0
8624,B-4,593.333,0.062,38,102.0
8625,E3,593.344,177/1000,71,102.0
8626,F#2,593.583,0.062,41,102.0
8627,B-4,593.583,0.062,41,102.0
8628,A3,593.604,0.156,70,102.0
8629,F#2,593.833,0.062,37,102.0
8630,B-4,593.833,0.062,37,102.0
8631,B3,593.854,167/1000,72,102.0
8632,E-3,594.062,0.062,52,102.0
8633,F#2,594.062,0.062,52,102.0
8634,B-4,594.062,0.062,52,102.0
8635,C4,594.073,99/100,64,102.0
8636,A3,594.073,99/100,64,102.0
8637,E4,594.073,99/100,64,102.0
8638,C4,594.104,27/200,69,102.0
8639,F#2,594.323,0.062,33,102.0
8640,B-4,594.323,0.062,33,102.0
8641,F#2,594.573,0.062,44,102.0
8642,B-4,594.573,0.062,44,102.0
8643,A3,594.594,27/200,69,102.0
8644,F#2,594.833,0.062,30,102.0
8645,B-4,594.833,0.062,30,102.0
8646,C4,594.844,0.062,52,102.0
8647,B-4,594.844,0.062,52,102.0
8648,C4,595.073,99/100,64,102.0
8649,A3,595.073,99/100,64,102.0
8650,E4,595.073,99/100,64,102.0
8651,C5,595.073,99/100,64,102.0
8652,E-3,595.073,0.062,71,102.0
8653,B1,595.073,0.062,71,102.0
8654,A2,595.073,0.062,71,102.0
8655,F#2,595.073,0.062,71,102.0
8656,B-4,595.073,0.062,71,102.0
8657,A1,595.323,0.25,110,102.0
8658,F#2,595.323,0.062,36,102.0
8659,B-4,595.323,0.062,36,102.0
8660,E3,595.354,27/200,64,102.0
8661,E2,595.573,73/250,111,102.0
8662,F#2,595.573,0.062,46,102.0
8663,B-4,595.573,0.062,46,102.0
8664,A3,595.583,167/1000,70,102.0
8665,B-4,595.823,0.062,54,102.0
8666,F#2,595.823,0.062,54,102.0
8667,G2,595.833,13/50,111,102.0
8668,C4,595.844,23/200,71,102.0
8669,F#2,595.958,0.062,56,102.0
8670,E4,596.073,21/1000,63,102.0
8671,C4,596.073,21/1000,63,102.0
8672,A3,596.073,21/1000,63,102.0
8673,C5,596.073,21/1000,63,102.0
8674,E-3,596.073,21/1000,65,102.0
8675,B1,596.073,21/1000,65,102.0
8676,F#2,596.073,21/1000,65,102.0
8677,F#3,596.073,21/1000,65,102.0
8678,B-4,596.073,21/1000,65,102.0
8679,A2,596.083,1/100,108,102.0
8680,A2,597.99,73/500,108,102.0
8681,G2,597.99,1/100,111,102.0
8682,E4,597.99,979/1000,63,102.0
8683,C4,597.99,979/1000,63,102.0
8684,A3,597.99,979/1000,63,102.0
8685,C5,597.99,979/1000,63,102.0
8686,E-3,597.99,21/500,65,102.0
8687,B1,597.99,21/500,65,102.0
8688,F#2,597.99,21/500,65,102.0
8689,F#3,597.99,21/500,65,102.0
8690,B-4,597.99,21/500,65,102.0
8691,B-4,598.219,0.062,32,102.0
8692,F#2,598.219,0.062,32,102.0
8693,A2,598.229,6/25,110,102.0
8694,E3,598.24,0.125,65,102.0
8695,G2,598.469,26/125,106,102.0
8696,F#2,598.479,0.062,50,102.0
8697,B-4,598.479,0.062,50,102.0
8698,A4,598.688,0.938,120,102.0
8699,A2,598.719,73/250,105,102.0
8700,F#2,598.719,0.062,41,102.0
8701,B-4,598.719,0.062,41,102.0
8702,C4,598.74,27/200,71,102.0
8703,F#4,598.969,1.0,62,102.0
8704,D4,598.969,1.0,62,102.0
8705,B3,598.969,1.0,62,102.0
8706,D5,598.969,1.0,62,102.0
8707,E-3,598.969,0.062,64,102.0
8708,C#2,598.969,0.062,64,102.0
8709,F#2,598.969,0.062,64,102.0
8710,B-4,598.969,0.062,64,102.0
8711,F#2,599.219,0.062,36,102.0
8712,B-4,599.219,0.062,36,102.0
8713,G2,599.229,177/1000,89,102.0
8714,E3,599.229,177/1000,89,102.0
8715,E4,599.365,271/1000,70,102.0
8716,E2,599.479,271/1000,105,102.0
8717,F#2,599.479,0.062,46,102.0
8718,B-4,599.479,0.062,46,102.0
8719,B3,599.5,0.156,70,102.0
8720,G4,599.552,0.188,95,102.0
8721,F4,599.677,0.062,58,102.0
8722,F#2,599.677,0.062,58,102.0
8723,B-4,599.677,0.062,58,102.0
8724,E-5,599.698,0.469,112,102.0
8725,G2,599.719,0.25,107,102.0
8726,C4,599.74,27/200,79,102.0
8727,E4,599.74,27/200,79,102.0
8728,D4,599.865,0.125,86,102.0
8729,F#3,599.948,2.0,64,102.0
8730,B3,599.948,2.0,64,102.0
8731,B3,599.948,2.0,64,102.0
8732,C4,599.948,0.062,62,102.0
8733,E-3,599.948,0.062,62,102.0
8734,F#2,599.948,0.062,62,102.0
8735,D4,599.948,0.062,62,102.0
8736,B-4,599.948,0.062,62,102.0
8737,D4,599.958,1927/1000,72,102.0
8738,G3,599.969,1.0,62,102.0
8739,D4,599.969,1.0,62,102.0
8740,B4,599.969,1.0,62,102.0
8741,B3,600.031,27/200,83,102.0
8742,A3,600.125,23/200,82,102.0
8743,G3,600.198,13/125,60,102.0
8744,F#2,600.198,13/125,60,102.0
8745,B-4,600.198,13/125,60,102.0
8746,C4,600.198,13/125,60,102.0
8747,D5,600.24,177/500,106,102.0
8748,F3,600.271,83/1000,81,102.0
8749,E3,600.365,21/500,81,102.0
8750,E-4,600.469,0.062,69,102.0
8751,B-2,600.469,0.062,69,102.0
8752,B-4,600.469,0.062,69,102.0
8753,G4,600.479,0.438,107,102.0
8754,E4,600.479,0.531,109,102.0
8755,F#2,600.729,0.062,48,102.0
8756,B-4,600.729,0.062,48,102.0
8757,D5,600.74,417/1000,108,102.0
8758,F#3,600.969,1.0,56,102.0
8759,A3,600.969,1.0,56,102.0
8760,B1,600.979,0.062,66,102.0
8761,A2,600.979,0.062,66,102.0
8762,F#2,600.979,0.062,66,102.0
8763,F#3,600.979,0.062,66,102.0
8764,E-3,600.979,0.062,66,102.0
8765,B-4,600.979,0.062,66,102.0
8766,G4,601.0,323/1000,82,102.0
8767,E-4,601.0,0.406,94,102.0
8768,A1,601.229,6/25,108,102.0
8769,E3,601.229,167/1000,69,102.0
8770,F#2,601.229,0.062,47,102.0
8771,B-4,601.229,0.062,47,102.0
8772,A4,601.25,0.406,102,102.0
8773,E2,601.479,0.281,109,102.0
8774,B-2,601.479,0.062,52,102.0
8775,B-4,601.479,0.062,52,102.0
8776,A3,601.49,167/1000,80,102.0
8777,G4,601.49,167/1000,80,102.0
8778,D4,601.49,167/1000,80,102.0
8779,B-4,601.719,0.062,53,102.0
8780,B1,601.719,0.062,53,102.0
8781,F#2,601.719,0.062,53,102.0
8782,G2,601.729,13/50,110,102.0
8783,B3,601.74,0.125,66,102.0
8784,A4,601.781,26/125,100,102.0
8785,G3,601.948,21/500,68,102.0
8786,E4,601.948,21/500,68,102.0
8787,C4,601.948,21/500,68,102.0
8788,A3,601.948,21/500,68,102.0
8789,E-3,601.958,0.031,64,102.0
8790,B-4,601.958,0.031,64,102.0
8791,F#2,601.958,0.031,64,102.0
8792,B1,601.958,0.031,64,102.0
8793,A2,601.969,21/1000,81,102.0
8794,C4,601.969,21/1000,81,102.0
8795,D5,601.969,21/1000,81,102.0
8796,A4,601.969,21/1000,81,102.0
8797,A4,601.99,0.312,100,102.0
8798,G2,601.99,21/1000,110,102.0
8799,G3,601.99,599/100,68,102.0
8800,E4,601.99,599/100,68,102.0
8801,C4,601.99,599/100,68,102.0
8802,A3,601.99,599/100,68,102.0
8803,A2,601.99,0.156,81,102.0
8804,C4,601.99,0.156,81,102.0
8805,D5,601.99,0.156,81,102.0
8806,A4,601.99,0.156,81,102.0
8807,E-3,601.99,0.031,64,102.0
8808,B-4,601.99,0.031,64,102.0
8809,F#2,601.99,0.031,64,102.0
8810,B1,601.99,0.031,64,102.0
8811,G4,602.0,151/500,97,102.0
8812,D4,602.0,151/500,97,102.0
8813,A2,602.219,99/500,99,102.0
8814,C4,602.219,99/500,99,102.0
8815,B-4,602.219,0.062,38,102.0
8816,F#2,602.219,0.062,38,102.0
8817,C4,602.229,99/500,80,102.0
8818,C4,602.229,99/500,80,102.0
8819,F#2,602.479,0.062,43,102.0
8820,B-4,602.479,0.062,43,102.0
8821,G2,602.479,167/1000,94,102.0
8822,A3,602.479,167/1000,94,102.0
8823,B3,602.479,167/1000,94,102.0
8824,F#2,602.719,0.062,42,102.0
8825,B-4,602.719,0.062,42,102.0
8826,A2,602.719,13/50,103,102.0
8827,G4,602.719,13/50,103,102.0
8828,D4,602.719,13/50,103,102.0
8829,G4,602.719,23/200,70,102.0
8830,C5,602.719,23/200,70,102.0
8831,C4,602.719,23/200,70,102.0
8832,E-3,602.948,0.062,64,102.0
8833,F#2,602.948,0.062,64,102.0
8834,B-4,602.948,0.062,64,102.0
8835,D2,602.948,0.062,64,102.0
8836,C4,602.969,99/100,64,102.0
8837,A3,602.969,99/100,64,102.0
8838,F#2,603.219,0.062,34,102.0
8839,B-4,603.219,0.062,34,102.0
8840,E3,603.25,13/50,66,102.0
8841,A2,603.427,521/1000,104,102.0
8842,F#2,603.479,0.062,42,102.0
8843,B-4,603.479,0.062,42,102.0
8844,A3,603.5,229/1000,70,102.0
8845,F#2,603.719,0.062,38,102.0
8846,B-4,603.719,0.062,38,102.0
8847,B3,603.75,0.156,66,102.0
8848,A2,603.958,0.844,106,102.0
8849,C4,603.969,99/100,62,102.0
8850,A3,603.969,99/100,62,102.0
8851,E4,603.969,99/100,62,102.0
8852,E-3,603.969,0.062,51,102.0
8853,F#2,603.969,0.062,51,102.0
8854,B-4,603.969,0.062,51,102.0
8855,C4,604.0,23/200,69,102.0
8856,F#2,604.229,0.062,38,102.0
8857,B-4,604.229,0.062,38,102.0
8858,F#2,604.479,0.062,48,102.0
8859,B-4,604.479,0.062,48,102.0
8860,A3,604.5,0.125,68,102.0
8861,F#2,604.719,0.062,39,102.0
8862,B-4,604.719,0.062,39,102.0
8863,C4,604.75,0.125,79,102.0
8864,G2,604.75,0.125,79,102.0
8865,F2,604.854,23/200,84,102.0
8866,E2,604.938,0.062,74,102.0
8867,E-3,604.938,0.062,74,102.0
8868,B1,604.938,0.062,74,102.0
8869,A2,604.938,0.062,74,102.0
8870,F#2,604.938,0.062,74,102.0
8871,F#3,604.938,0.062,74,102.0
8872,B-4,604.938,0.062,74,102.0
8873,C4,604.969,99/100,62,102.0
8874,A3,604.969,99/100,62,102.0
8875,C5,604.969,99/100,62,102.0
8876,E4,604.969,99/100,62,102.0
8877,D2,605.052,0.062,96,102.0
8878,F#2,605.229,0.062,36,102.0
8879,B-4,605.229,0.062,36,102.0
8880,A1,605.229,0.156,86,102.0
8881,E3,605.229,0.156,86,102.0
8882,E2,605.469,0.281,110,102.0
8883,A3,605.479,73/500,68,102.0
8884,F#2,605.479,0.062,46,102.0
8885,B-4,605.479,0.062,46,102.0
8886,G2,605.719,271/1000,110,102.0
8887,F#2,605.729,0.062,40,102.0
8888,B-4,605.729,0.062,40,102.0
8889,C4,605.74,0.125,72,102.0
8890,A2,605.958,0.031,106,102.0
8891,C4,605.969,21/1000,62,102.0
8892,C5,605.969,21/1000,62,102.0
8893,A3,605.969,21/1000,62,102.0
8894,E4,605.969,21/1000,62,102.0
8895,F#2,605.979,1/100,64,102.0
8896,E-3,605.979,1/100,64,102.0
8897,B-4,605.979,1/100,64,102.0
8898,B1,605.979,1/100,64,102.0
8899,A2,607.979,177/1000,106,102.0
8900,G2,607.979,1/100,110,102.0
8901,C4,607.979,979/1000,62,102.0
8902,C5,607.979,979/1000,62,102.0
8903,A3,607.979,979/1000,62,102.0
8904,E4,607.979,979/1000,62,102.0
8905,F#2,607.979,13/250,64,102.0
8906,E-3,607.979,13/250,64,102.0
8907,B-4,607.979,13/250,64,102.0
8908,B1,607.979,13/250,64,102.0
8909,F#2,608.208,0.062,44,102.0
8910,B-4,608.208,0.062,44,102.0
8911,A2,608.219,271/1000,108,102.0
8912,E3,608.24,27/200,66,102.0
8913,F#2,608.458,0.062,46,102.0
8914,B-4,608.458,0.062,46,102.0
8915,G2,608.469,229/1000,108,102.0
8916,A2,608.708,13/50,110,102.0
8917,C4,608.719,73/500,72,102.0
8918,F#2,608.719,0.062,42,102.0
8919,B-4,608.719,0.062,42,102.0
8920,D5,608.958,1.0,63,102.0
8921,B3,608.958,1.0,63,102.0
8922,D4,608.958,1.0,63,102.0
8923,F#4,608.958,1.0,63,102.0
8924,E-3,608.958,0.062,65,102.0
8925,C#2,608.958,0.062,65,102.0
8926,F#2,608.958,0.062,65,102.0
8927,B-4,608.958,0.062,65,102.0
8928,F#2,609.208,0.062,46,102.0
8929,B-4,609.208,0.062,46,102.0
8930,G2,609.219,13/50,109,102.0
8931,E3,609.229,177/1000,67,102.0
8932,E4,609.375,0.469,71,102.0
8933,F#2,609.458,0.062,48,102.0
8934,B-4,609.458,0.062,48,102.0
8935,E2,609.469,271/1000,108,102.0
8936,B3,609.479,0.125,68,102.0
8937,E-5,609.708,0.469,112,102.0
8938,F#2,609.708,0.062,58,102.0
8939,B-4,609.708,0.062,58,102.0
8940,G2,609.708,0.156,89,102.0
8941,C4,609.708,0.156,89,102.0
8942,F#2,609.833,0.062,64,102.0
8943,F#3,609.938,2.0,68,102.0
8944,B3,609.938,2.0,68,102.0
8945,B3,609.938,2.0,68,102.0
8946,D4,609.948,1.938,70,102.0
8947,B4,609.958,1.0,62,102.0
8948,G3,609.958,1.0,62,102.0
8949,D4,609.958,1.0,62,102.0
8950,B-4,609.958,0.062,57,102.0
8951,F#2,609.958,0.062,57,102.0
8952,F#3,609.958,0.062,57,102.0
8953,E-3,609.958,0.062,57,102.0
8954,D4,609.969,0.156,69,102.0
8955,F#2,610.208,0.062,44,102.0
8956,B-4,610.208,0.062,44,102.0
8957,D5,610.229,0.375,105,102.0
8958,C4,610.229,0.125,71,102.0
8959,D4,610.448,177/1000,107,102.0
8960,F#2,610.458,0.062,52,102.0
8961,B-4,610.458,0.062,52,102.0
8962,E-4,610.469,0.438,108,102.0
8963,G4,610.469,0.438,108,102.0
8964,F#2,610.708,0.062,44,102.0
8965,B-4,610.708,0.062,44,102.0
8966,D5,610.74,417/1000,111,102.0
8967,A3,610.958,1.0,57,102.0
8968,F#3,610.958,1.0,57,102.0
8969,F#2,610.958,0.062,72,102.0
8970,E-3,610.958,0.062,72,102.0
8971,B1,610.958,0.062,72,102.0
8972,A2,610.958,0.062,72,102.0
8973,B-4,610.958,0.062,72,102.0
8974,D4,610.979,0.406,96,102.0
8975,G4,610.99,0.625,63,102.0
8976,A1,611.208,0.281,109,102.0
8977,F#2,611.208,0.062,48,102.0
8978,B-4,611.208,0.062,48,102.0
8979,E3,611.219,0.188,70,102.0
8980,A4,611.24,427/1000,103,102.0
8981,B-2,611.458,0.062,56,102.0
8982,B-4,611.458,0.062,56,102.0
8983,E2,611.469,73/250,108,102.0
8984,C4,611.469,0.156,80,102.0
8985,A3,611.469,0.156,80,102.0
8986,G2,611.719,6/25,111,102.0
8987,B1,611.719,0.062,50,102.0
8988,B-4,611.719,0.062,50,102.0
8989,B3,611.729,27/200,68,102.0
8990,A4,611.75,229/1000,100,102.0
8991,G3,611.938,21/500,68,102.0
8992,E4,611.938,21/500,68,102.0
8993,A3,611.938,21/500,68,102.0
8994,C4,611.938,21/500,68,102.0
8995,A2,611.958,21/1000,81,102.0
8996,C4,611.958,21/1000,81,102.0
8997,D5,611.958,21/1000,81,102.0
8998,A4,611.958,21/1000,81,102.0
8999,E-3,611.958,21/1000,65,102.0
9000,B1,611.958,21/1000,65,102.0
9001,F#2,611.958,21/1000,65,102.0
9002,C4,611.958,21/1000,65,102.0
9003,B-4,611.958,21/1000,65,102.0
9004,C4,611.969,1/100,109,102.0
9005,G4,611.969,1/100,100,102.0
9006,C4,611.979,127/200,109,102.0
9007,G4,611.979,271/500,100,102.0
9008,A4,611.979,0.531,100,102.0
9009,G3,611.979,5.938,68,102.0
9010,E4,611.979,5.938,68,102.0
9011,A3,611.979,5.938,68,102.0
9012,C4,611.979,5.938,68,102.0
9013,A2,611.979,0.156,81,102.0
9014,C4,611.979,0.156,81,102.0
9015,D5,611.979,0.156,81,102.0
9016,A4,611.979,0.156,81,102.0
9017,E-3,611.979,21/500,65,102.0
9018,B1,611.979,21/500,65,102.0
9019,F#2,611.979,21/500,65,102.0
9020,C4,611.979,21/500,65,102.0
9021,B-4,611.979,21/500,65,102.0
9022,A2,612.219,0.25,109,102.0
9023,C4,612.219,167/1000,70,102.0
9024,F#2,612.219,0.062,38,102.0
9025,B-4,612.219,0.062,38,102.0
9026,F#2,612.469,0.062,48,102.0
9027,B-4,612.469,0.062,48,102.0
9028,G2,612.469,73/500,88,102.0
9029,B3,612.469,73/500,88,102.0
9030,A2,612.708,99/500,99,102.0
9031,D4,612.708,99/500,99,102.0
9032,A3,612.708,99/500,99,102.0
9033,G4,612.708,99/500,99,102.0
9034,F#2,612.719,13/125,52,102.0
9035,B-4,612.719,13/125,52,102.0
9036,C4,612.719,13/125,52,102.0
9037,G4,612.719,13/125,76,102.0
9038,C5,612.719,13/125,76,102.0
9039,G4,612.719,13/125,76,102.0
9040,C4,612.719,13/125,76,102.0
9041,C4,612.958,99/100,64,102.0
9042,A3,612.958,99/100,64,102.0
9043,F#2,612.969,0.062,70,102.0
9044,E-3,612.969,0.062,70,102.0
9045,B-4,612.969,0.062,70,102.0
9046,D2,612.969,0.062,70,102.0
9047,F#2,613.219,0.062,40,102.0
9048,B-4,613.219,0.062,40,102.0
9049,E3,613.24,27/200,68,102.0
9050,F#2,613.469,0.062,41,102.0
9051,B-4,613.469,0.062,41,102.0
9052,A3,613.49,0.125,69,102.0
9053,F#2,613.719,0.062,42,102.0
9054,B-4,613.719,0.062,42,102.0
9055,B3,613.74,27/200,70,102.0
9056,C4,613.958,99/100,60,102.0
9057,A3,613.958,99/100,60,102.0
9058,E4,613.958,99/100,60,102.0
9059,E-3,613.958,0.062,58,102.0
9060,F#2,613.958,0.062,58,102.0
9061,F#3,613.958,0.062,58,102.0
9062,B-4,613.958,0.062,58,102.0
9063,C4,613.99,27/200,70,102.0
9064,F#2,614.208,0.062,38,102.0
9065,B-4,614.208,0.062,38,102.0
9066,F#2,614.469,0.062,52,102.0
9067,A3,614.469,0.062,52,102.0
9068,B-4,614.469,0.062,52,102.0
9069,F#2,614.719,0.062,46,102.0
9070,B-4,614.719,0.062,46,102.0
9071,C4,614.74,0.062,55,102.0
9072,B-4,614.74,0.062,55,102.0
9073,C5,614.958,99/100,64,102.0
9074,C4,614.958,99/100,64,102.0
9075,A3,614.958,99/100,64,102.0
9076,E4,614.958,99/100,64,102.0
9077,F#2,614.969,0.062,71,102.0
9078,E-3,614.969,0.062,71,102.0
9079,A2,614.969,0.062,71,102.0
9080,B-4,614.969,0.062,71,102.0
9081,B1,614.969,0.062,71,102.0
9082,F#2,615.219,0.062,43,102.0
9083,B-4,615.219,0.062,43,102.0
9084,A1,615.229,0.25,112,102.0
9085,E3,615.24,27/200,65,102.0
9086,E2,615.469,73/250,110,102.0
9087,F#2,615.469,0.062,49,102.0
9088,B-4,615.469,0.062,49,102.0
9089,A3,615.49,0.062,52,102.0
9090,B-4,615.49,0.062,52,102.0
9091,G2,615.719,13/50,111,102.0
9092,F#2,615.719,0.062,44,102.0
9093,B-4,615.719,0.062,44,102.0
9094,C4,615.74,0.125,72,102.0
9095,C4,615.958,21/1000,62,102.0
9096,A3,615.958,21/1000,62,102.0
9097,C5,615.958,21/1000,62,102.0
9098,E4,615.958,21/1000,62,102.0
9099,F#2,615.958,21/1000,67,102.0
9100,E-3,615.958,21/1000,67,102.0
9101,B-4,615.958,21/1000,67,102.0
9102,B1,615.958,21/1000,67,102.0
9103,A2,615.969,1/100,108,102.0
9104,A2,617.917,0.188,108,102.0
9105,C4,617.917,979/1000,62,102.0
9106,A3,617.917,979/1000,62,102.0
9107,C5,617.917,979/1000,62,102.0
9108,E4,617.917,979/1000,62,102.0
9109,F#2,617.917,21/500,67,102.0
9110,E-3,617.917,21/500,67,102.0
9111,B-4,617.917,21/500,67,102.0
9112,B1,617.917,21/500,67,102.0
9113,F#2,618.021,0.062,67,102.0
9114,F#2,618.146,0.062,54,102.0
9115,B-4,618.146,0.062,54,102.0
9116,A2,618.156,13/50,111,102.0
9117,E3,618.156,0.156,66,102.0
9118,F#2,618.406,0.062,49,102.0
9119,B-4,618.406,0.062,49,102.0
9120,G2,618.417,6/25,108,102.0
9121,A2,618.646,73/250,106,102.0
9122,C4,618.656,73/500,72,102.0
9123,F#2,618.656,0.062,50,102.0
9124,B-4,618.656,0.062,50,102.0
9125,D5,618.896,1.0,63,102.0
9126,D4,618.896,1.0,63,102.0
9127,B3,618.896,1.0,63,102.0
9128,F#4,618.896,1.0,63,102.0
9129,E-3,618.896,0.062,65,102.0
9130,C#2,618.896,0.062,65,102.0
9131,F#2,618.896,0.062,65,102.0
9132,F#3,618.896,0.062,65,102.0
9133,B-4,618.896,0.062,65,102.0
9134,G2,619.156,13/50,109,102.0
9135,E3,619.167,167/1000,64,102.0
9136,F#2,619.167,0.062,44,102.0
9137,B-4,619.167,0.062,44,102.0
9138,E4,619.312,229/500,70,102.0
9139,E2,619.406,73/250,107,102.0
9140,F#2,619.406,13/125,55,102.0
9141,B-4,619.406,13/125,55,102.0
9142,B3,619.406,13/125,55,102.0
9143,E-5,619.646,229/500,111,102.0
9144,G2,619.646,229/1000,107,102.0
9145,F#2,619.656,0.062,44,102.0
9146,B-4,619.656,0.062,44,102.0
9147,C4,619.667,23/200,98,102.0
9148,C6,619.667,23/200,98,102.0
9149,F#3,619.885,1.969,66,102.0
9150,B3,619.885,1.969,66,102.0
9151,B3,619.885,1.969,66,102.0
9152,D4,619.896,1.906,72,102.0
9153,D4,619.896,1.0,61,102.0
9154,G3,619.896,1.0,61,102.0
9155,B4,619.896,1.0,61,102.0
9156,D4,619.906,0.156,69,102.0
9157,F#2,619.906,0.062,52,102.0
9158,E-3,619.906,0.062,52,102.0
9159,B-4,619.906,0.062,52,102.0
9160,F#2,620.156,0.062,40,102.0
9161,B-4,620.156,0.062,40,102.0
9162,C4,620.177,23/200,98,102.0
9163,A5,620.177,23/200,98,102.0
9164,D5,620.188,73/200,106,102.0
9165,F#2,620.406,0.062,42,102.0
9166,B-4,620.406,0.062,42,102.0
9167,F#2,620.656,0.062,50,102.0
9168,B-4,620.656,0.062,50,102.0
9169,D5,620.688,56/125,108,102.0
9170,C5,620.885,0.594,127,102.0
9171,A3,620.896,1.0,52,102.0
9172,F#3,620.896,1.0,52,102.0
9173,F#2,620.906,0.062,70,102.0
9174,E-3,620.906,0.062,70,102.0
9175,B-4,620.906,0.062,70,102.0
9176,B1,620.906,0.062,70,102.0
9177,A2,620.906,0.062,70,102.0
9178,A1,621.156,0.219,107,102.0
9179,E3,621.156,73/500,74,102.0
9180,F#2,621.156,0.062,50,102.0
9181,B-4,621.156,0.062,50,102.0
9182,A4,621.188,77/200,105,102.0
9183,E2,621.396,73/250,109,102.0
9184,D5,621.396,521/1000,127,102.0
9185,B-4,621.406,0.062,57,102.0
9186,B-2,621.406,0.062,57,102.0
9187,A3,621.417,27/200,70,102.0
9188,G2,621.656,6/25,110,102.0
9189,B3,621.656,0.062,61,102.0
9190,B1,621.656,0.062,61,102.0
9191,B-4,621.656,0.062,61,102.0
9192,A4,621.688,229/1000,100,102.0
9193,G3,621.865,13/250,67,102.0
9194,A3,621.865,13/250,67,102.0
9195,C4,621.865,13/250,67,102.0
9196,E4,621.865,13/250,67,102.0
9197,E-3,621.885,0.031,68,102.0
9198,F#2,621.885,0.031,68,102.0
9199,B-4,621.885,0.031,68,102.0
9200,B1,621.885,0.031,68,102.0
9201,A2,621.896,21/1000,96,102.0
9202,C5,621.896,21/1000,96,102.0
9203,D5,621.896,21/1000,96,102.0
9204,A4,621.896,21/1000,96,102.0
9205,A4,621.917,427/1000,100,102.0
9206,D5,621.917,1/100,127,102.0
9207,C4,621.917,0.062,86,102.0
9208,B1,621.917,0.062,86,102.0
9209,A2,621.917,0.125,96,102.0
9210,C5,621.917,0.125,96,102.0
9211,D5,621.917,0.125,96,102.0
9212,A4,621.917,0.125,96,102.0
9213,G3,621.917,6021/1000,67,102.0
9214,A3,621.917,6021/1000,67,102.0
9215,C4,621.917,6021/1000,67,102.0
9216,E4,621.917,6021/1000,67,102.0
9217,E-3,621.917,0.031,68,102.0
9218,F#2,621.917,0.031,68,102.0
9219,B-4,621.917,0.031,68,102.0
9220,B1,621.917,0.031,68,102.0
9221,D5,621.927,271/1000,127,102.0
9222,A4,622.094,3823/1000,120,102.0
9223,A2,622.156,0.25,110,102.0
9224,C4,622.156,167/1000,71,102.0
9225,F#2,622.156,0.062,41,102.0
9226,B-4,622.156,0.062,41,102.0
9227,G2,622.406,6/25,107,102.0
9228,F#2,622.406,0.062,52,102.0
9229,B-4,622.406,0.062,52,102.0
9230,B3,622.417,73/500,68,102.0
9231,A2,622.646,177/1000,84,102.0
9232,G4,622.646,177/1000,84,102.0
9233,C5,622.646,177/1000,84,102.0
9234,F#2,622.656,0.062,54,102.0
9235,C4,622.656,0.062,54,102.0
9236,B-4,622.656,0.062,54,102.0
9237,E-3,622.885,0.062,67,102.0
9238,D2,622.885,0.062,67,102.0
9239,F#2,622.885,0.062,67,102.0
9240,B-4,622.885,0.062,67,102.0
9241,C4,622.896,99/100,64,102.0
9242,A3,622.896,99/100,64,102.0
9243,E3,623.177,27/200,66,102.0
9244,F#2,623.177,0.062,44,102.0
9245,B-4,623.177,0.062,44,102.0
9246,D5,623.406,0.125,73,102.0
9247,A4,623.406,0.125,73,102.0
9248,A3,623.406,0.125,73,102.0
9249,F#2,623.417,0.062,46,102.0
9250,B-4,623.417,0.062,46,102.0
9251,F#2,623.667,0.062,42,102.0
9252,B-4,623.667,0.062,42,102.0
9253,B3,623.677,0.062,52,102.0
9254,B-4,623.677,0.062,52,102.0
9255,E4,623.896,99/100,62,102.0
9256,C4,623.896,99/100,62,102.0
9257,A3,623.896,99/100,62,102.0
9258,F#2,623.906,0.062,54,102.0
9259,E-3,623.906,0.062,54,102.0
9260,B-4,623.906,0.062,54,102.0
9261,C4,623.927,0.062,56,102.0
9262,B-4,623.927,0.062,56,102.0
9263,F#2,624.156,0.062,45,102.0
9264,B-4,624.156,0.062,45,102.0
9265,F#2,624.406,13/125,56,102.0
9266,B-4,624.406,13/125,56,102.0
9267,A3,624.406,13/125,56,102.0
9268,F#2,624.656,0.062,42,102.0
9269,B-4,624.656,0.062,42,102.0
9270,C4,624.677,0.062,54,102.0
9271,B-4,624.677,0.062,54,102.0
9272,C5,624.896,99/100,62,102.0
9273,C4,624.896,99/100,62,102.0
9274,A3,624.896,99/100,62,102.0
9275,E4,624.896,99/100,62,102.0
9276,B1,624.906,0.062,71,102.0
9277,A2,624.906,0.062,71,102.0
9278,F#2,624.906,0.062,71,102.0
9279,E-3,624.906,0.062,71,102.0
9280,B-4,624.906,0.062,71,102.0
9281,D5,624.927,73/250,112,102.0
9282,A4,624.927,73/250,112,102.0
9283,A1,625.156,0.281,106,102.0
9284,F#2,625.156,0.062,46,102.0
9285,B-4,625.156,0.062,46,102.0
9286,E3,625.177,0.156,71,102.0
9287,E2,625.406,0.312,110,102.0
9288,B-4,625.406,0.062,49,102.0
9289,F#2,625.406,0.062,49,102.0
9290,A3,625.427,0.125,70,102.0
9291,G2,625.667,0.25,107,102.0
9292,F#2,625.667,23/200,53,102.0
9293,B-4,625.667,23/200,53,102.0
9294,C4,625.667,23/200,53,102.0
9295,E-3,625.885,0.031,66,102.0
9296,F#3,625.885,0.031,66,102.0
9297,B-4,625.885,0.031,66,102.0
9298,F#2,625.885,0.031,66,102.0
9299,B1,625.885,0.031,66,102.0
9300,A3,625.896,21/1000,61,102.0
9301,C4,625.896,21/1000,61,102.0
9302,C5,625.896,21/1000,61,102.0
9303,E4,625.896,21/1000,61,102.0
9304,A2,627.938,0.188,107,102.0
9305,A4,627.938,323/500,120,102.0
9306,G2,627.938,21/1000,107,102.0
9307,E-3,627.938,0.031,66,102.0
9308,F#3,627.938,0.031,66,102.0
9309,B-4,627.938,0.031,66,102.0
9310,F#2,627.938,0.031,66,102.0
9311,B1,627.938,0.031,66,102.0
9312,A3,627.938,979/1000,61,102.0
9313,C4,627.938,979/1000,61,102.0
9314,C5,627.938,979/1000,61,102.0
9315,E4,627.938,979/1000,61,102.0
9316,F#2,628.177,0.062,39,102.0
9317,B-4,628.177,0.062,39,102.0
9318,A2,628.188,13/50,108,102.0
9319,E3,628.198,73/500,67,102.0
9320,D4,628.406,167/1000,109,102.0
9321,F#2,628.427,0.062,44,102.0
9322,B-4,628.427,0.062,44,102.0
9323,G4,628.427,0.438,109,102.0
9324,E-4,628.427,0.438,109,102.0
9325,G2,628.438,0.219,107,102.0
9326,A2,628.677,0.25,107,102.0
9327,F#2,628.677,0.062,42,102.0
9328,B-4,628.677,0.062,42,102.0
9329,C4,628.688,0.062,50,102.0
9330,B-4,628.688,0.062,50,102.0
9331,B3,628.917,1.0,63,102.0
9332,D4,628.917,1.0,63,102.0
9333,D5,628.917,1.0,63,102.0
9334,F#4,628.917,1.0,63,102.0
9335,E-3,628.917,0.062,65,102.0
9336,C#2,628.917,0.062,65,102.0
9337,F#2,628.917,0.062,65,102.0
9338,B-4,628.917,0.062,65,102.0
9339,D4,628.948,73/200,94,102.0
9340,G4,628.948,127/200,94,102.0
9341,F#2,629.167,0.062,46,102.0
9342,B-4,629.167,0.062,46,102.0
9343,E3,629.177,0.188,66,102.0
9344,G2,629.188,13/50,108,102.0
9345,E4,629.344,56/125,71,102.0
9346,B-4,629.417,0.062,43,102.0
9347,F#2,629.417,0.062,43,102.0
9348,E2,629.427,99/500,91,102.0
9349,C4,629.427,99/500,91,102.0
9350,B3,629.427,99/500,72,102.0
9351,C4,629.427,99/500,72,102.0
9352,B-4,629.667,0.062,46,102.0
9353,F#2,629.667,0.062,46,102.0
9354,E-5,629.677,56/125,105,102.0
9355,G2,629.677,99/500,108,102.0
9356,C4,629.677,0.125,66,102.0
9357,B3,629.917,2021/1000,68,102.0
9358,F#3,629.917,2021/1000,68,102.0
9359,D4,629.917,2021/1000,68,102.0
9360,B3,629.917,2021/1000,68,102.0
9361,D4,629.917,1.0,63,102.0
9362,G3,629.917,1.0,63,102.0
9363,B4,629.917,1.0,63,102.0
9364,E-3,629.917,0.062,54,102.0
9365,B-4,629.917,0.062,54,102.0
9366,F#2,629.917,0.062,54,102.0
9367,D4,629.927,73/500,70,102.0
9368,F#2,630.177,0.062,38,102.0
9369,B-4,630.177,0.062,38,102.0
9370,D5,630.188,0.344,106,102.0
9371,E-4,630.198,73/500,96,102.0
9372,C4,630.198,73/500,96,102.0
9373,G4,630.219,271/500,98,102.0
9374,E4,630.219,0.625,114,102.0
9375,B-4,630.427,0.062,50,102.0
9376,F#2,630.427,0.062,50,102.0
9377,D5,630.677,427/1000,109,102.0
9378,F#2,630.677,0.062,47,102.0
9379,B-4,630.677,0.062,47,102.0
9380,F#3,630.917,1.0,57,102.0
9381,A3,630.917,1.0,57,102.0
9382,E-3,630.917,0.062,73,102.0
9383,B1,630.917,0.062,73,102.0
9384,A2,630.917,0.062,73,102.0
9385,B-4,630.917,0.062,73,102.0
9386,F#2,630.917,0.062,73,102.0
9387,E-4,630.938,0.375,94,102.0
9388,G4,630.938,0.375,94,102.0
9389,A4,631.177,417/1000,101,102.0
9390,A1,631.177,0.281,107,102.0
9391,E3,631.177,0.156,75,102.0
9392,F#2,631.177,0.062,46,102.0
9393,B-4,631.177,0.062,46,102.0
9394,E2,631.427,73/250,107,102.0
9395,B-2,631.427,0.062,56,102.0
9396,B-4,631.427,0.062,56,102.0
9397,G4,631.427,73/500,71,102.0
9398,D4,631.427,73/500,71,102.0
9399,A3,631.427,73/500,71,102.0
9400,B1,631.677,0.062,54,102.0
9401,B-4,631.677,0.062,54,102.0
9402,G2,631.677,0.125,90,102.0
9403,B3,631.677,0.125,90,102.0
9404,A4,631.698,6/25,102,102.0
9405,G3,631.896,21/500,65,102.0
9406,C4,631.896,21/500,65,102.0
9407,E4,631.896,21/500,65,102.0
9408,A3,631.896,21/500,65,102.0
9409,D5,631.917,21/1000,84,102.0
9410,G4,631.917,21/1000,84,102.0
9411,D4,631.917,21/1000,84,102.0
9412,A4,631.917,21/1000,84,102.0
9413,C4,631.917,21/1000,84,102.0
9414,E-3,631.917,21/1000,68,102.0
9415,B-4,631.917,21/1000,68,102.0
9416,B1,631.917,21/1000,68,102.0
9417,F#3,631.917,21/1000,68,102.0
9418,F#2,631.917,21/1000,68,102.0
9419,A4,631.938,0.469,102,102.0
9420,D5,631.938,83/1000,84,102.0
9421,G4,631.938,83/1000,84,102.0
9422,D4,631.938,83/1000,84,102.0
9423,A4,631.938,83/1000,84,102.0
9424,C4,631.938,83/1000,84,102.0
9425,G3,631.938,1487/250,65,102.0
9426,C4,631.938,1487/250,65,102.0
9427,E4,631.938,1487/250,65,102.0
9428,A3,631.938,1487/250,65,102.0
9429,E-3,631.938,21/500,68,102.0
9430,B-4,631.938,21/500,68,102.0
9431,B1,631.938,21/500,68,102.0
9432,F#3,631.938,21/500,68,102.0
9433,F#2,631.938,21/500,68,102.0
9434,A1,631.948,0.25,112,102.0
9435,B-4,632.167,0.062,49,102.0
9436,F#2,632.167,0.062,49,102.0
9437,G1,632.177,0.312,104,102.0
9438,C4,632.198,73/500,77,102.0
9439,C4,632.198,73/500,77,102.0
9440,A5,632.396,167/1000,93,102.0
9441,A3,632.396,167/1000,93,102.0
9442,B3,632.396,167/1000,93,102.0
9443,B-2,632.427,0.062,54,102.0
9444,B-4,632.427,0.062,54,102.0
9445,A5,632.667,0.219,93,102.0
9446,G4,632.667,0.219,93,102.0
9447,C5,632.667,0.219,93,102.0
9448,G4,632.667,0.219,93,102.0
9449,D4,632.667,0.219,93,102.0
9450,B-4,632.677,13/125,51,102.0
9451,C4,632.677,13/125,51,102.0
9452,A5,632.906,49/100,113,102.0
9453,A3,632.917,99/100,64,102.0
9454,C4,632.917,99/100,64,102.0
9455,E-3,632.917,0.062,66,102.0
9456,D2,632.917,0.062,66,102.0
9457,B-4,632.917,0.062,66,102.0
9458,F#2,632.917,0.062,66,102.0
9459,G1,633.177,0.062,69,102.0
9460,E3,633.177,0.062,69,102.0
9461,F#2,633.177,0.062,69,102.0
9462,B-4,633.188,0.062,32,102.0
9463,F#2,633.188,0.062,32,102.0
9464,A5,633.417,229/1000,95,102.0
9465,G1,633.417,229/1000,95,102.0
9466,A3,633.417,229/1000,95,102.0
9467,F#2,633.427,0.062,48,102.0
9468,B-4,633.427,0.062,48,102.0
9469,A5,633.646,27/200,95,102.0
9470,G1,633.646,27/200,95,102.0
9471,B3,633.646,27/200,95,102.0
9472,F#2,633.667,0.062,42,102.0
9473,B-4,633.667,0.062,42,102.0
9474,A5,633.875,0.688,124,102.0
9475,G1,633.917,13/50,108,102.0
9476,C4,633.917,99/100,64,102.0
9477,A3,633.917,99/100,64,102.0
9478,E4,633.917,99/100,64,102.0
9479,F#2,633.927,13/125,58,102.0
9480,E-3,633.927,13/125,58,102.0
9481,B-4,633.927,13/125,58,102.0
9482,C4,633.927,13/125,58,102.0
9483,F#2,634.177,0.062,42,102.0
9484,B-4,634.177,0.062,42,102.0
9485,F#2,634.427,0.062,53,102.0
9486,A3,634.427,0.062,53,102.0
9487,B-4,634.427,0.062,53,102.0
9488,G1,634.438,6/25,110,102.0
9489,G5,634.5,0.188,54,102.0
9490,F5,634.635,0.062,60,102.0
9491,F#2,634.635,0.062,60,102.0
9492,C4,634.698,23/200,60,102.0
9493,B-4,634.698,23/200,60,102.0
9494,E5,634.698,23/200,60,102.0
9495,D5,634.833,0.094,90,102.0
9496,C5,634.896,0.062,74,102.0
9497,B1,634.896,0.062,74,102.0
9498,A2,634.896,0.062,74,102.0
9499,F#2,634.896,0.062,74,102.0
9500,E-3,634.896,0.062,74,102.0
9501,B-4,634.896,0.062,74,102.0
9502,C4,634.917,99/100,64,102.0
9503,A3,634.917,99/100,64,102.0
9504,E4,634.917,99/100,64,102.0
9505,C5,634.917,99/100,64,102.0
9506,A1,634.938,151/500,109,102.0
9507,B4,634.969,23/200,84,102.0
9508,A4,635.052,73/1000,76,102.0
9509,F#2,635.167,0.062,40,102.0
9510,B-4,635.167,0.062,40,102.0
9511,E3,635.177,0.156,65,102.0
9512,F#2,635.427,0.062,41,102.0
9513,B-4,635.427,0.062,41,102.0
9514,G1,635.438,271/1000,109,102.0
9515,A3,635.438,0.062,50,102.0
9516,B-4,635.438,0.062,50,102.0
9517,F#2,635.677,0.094,59,102.0
9518,B-4,635.677,0.094,59,102.0
9519,C4,635.677,0.094,59,102.0
9520,F#2,635.802,0.062,64,102.0
9521,E4,635.917,21/1000,63,102.0
9522,C4,635.917,21/1000,63,102.0
9523,A3,635.917,21/1000,63,102.0
9524,C5,635.917,21/1000,63,102.0
9525,A1,635.927,1/100,110,102.0
9526,F#2,635.927,1/100,66,102.0
9527,E-3,635.927,1/100,66,102.0
9528,B-4,635.927,1/100,66,102.0
9529,B1,635.927,1/100,66,102.0
9530,A1,637.885,13/50,110,102.0
9531,E4,637.885,979/1000,63,102.0
9532,C4,637.885,979/1000,63,102.0
9533,A3,637.885,979/1000,63,102.0
9534,C5,637.885,979/1000,63,102.0
9535,F#2,637.885,13/250,66,102.0
9536,E-3,637.885,13/250,66,102.0
9537,B-4,637.885,13/250,66,102.0
9538,B1,637.885,13/250,66,102.0
9539,G1,638.115,151/500,107,102.0
9540,B-4,638.125,0.062,46,102.0
9541,F#2,638.125,0.062,46,102.0
9542,E3,638.135,27/200,65,102.0
9543,F#2,638.365,0.062,52,102.0
9544,B-4,638.365,0.062,52,102.0
9545,F#2,638.615,0.062,42,102.0
9546,B-4,638.615,0.062,42,102.0
9547,C4,638.635,27/200,71,102.0
9548,F#4,638.865,1.0,62,102.0
9549,D4,638.865,1.0,62,102.0
9550,B3,638.865,1.0,62,102.0
9551,D5,638.865,1.0,62,102.0
9552,E-3,638.865,0.062,67,102.0
9553,C#2,638.865,0.062,67,102.0
9554,F#2,638.865,0.062,67,102.0
9555,B-4,638.865,0.062,67,102.0
9556,F#2,639.115,0.062,40,102.0
9557,B-4,639.115,0.062,40,102.0
9558,G1,639.125,0.062,69,102.0
9559,E3,639.125,0.062,69,102.0
9560,B-4,639.125,0.062,69,102.0
9561,E4,639.292,49/100,71,102.0
9562,F#2,639.365,0.062,50,102.0
9563,B-4,639.365,0.062,50,102.0
9564,G1,639.375,0.125,88,102.0
9565,B3,639.375,0.125,88,102.0
9566,F#2,639.615,0.062,67,102.0
9567,G1,639.615,0.062,67,102.0
9568,B-4,639.615,0.062,67,102.0
9569,E-5,639.625,49/100,109,102.0
9570,C4,639.625,0.062,52,102.0
9571,B-4,639.625,0.062,52,102.0
9572,F#3,639.844,2.0,65,102.0
9573,B3,639.844,2.0,65,102.0
9574,B3,639.844,2.0,65,102.0
9575,D4,639.844,2.0,65,102.0
9576,B3,639.844,2.0,65,102.0
9577,B3,639.844,2.0,65,102.0
9578,G1,639.865,0.25,110,102.0
9579,G3,639.865,1.0,62,102.0
9580,D4,639.865,1.0,62,102.0
9581,B4,639.865,1.0,62,102.0
9582,F#2,639.865,0.062,56,102.0
9583,E-3,639.865,0.062,56,102.0
9584,B-4,639.865,0.062,56,102.0
9585,D4,639.875,27/200,70,102.0
9586,F#2,640.0,0.062,67,102.0
9587,F#2,640.115,0.062,42,102.0
9588,B-4,640.115,0.062,42,102.0
9589,D4,640.115,0.125,90,102.0
9590,C4,640.115,0.125,90,102.0
9591,D5,640.156,177/500,104,102.0
9592,E-4,640.156,583/1000,114,102.0
9593,G4,640.156,583/1000,114,102.0
9594,B-4,640.365,0.062,61,102.0
9595,A2,640.365,0.062,61,102.0
9596,F#2,640.365,0.062,61,102.0
9597,G1,640.375,73/250,110,102.0
9598,F#2,640.615,0.062,48,102.0
9599,B-4,640.615,0.062,48,102.0
9600,D5,640.646,229/500,108,102.0
9601,E-3,640.854,0.062,72,102.0
9602,B1,640.854,0.062,72,102.0
9603,A2,640.854,0.062,72,102.0
9604,F#2,640.854,0.062,72,102.0
9605,B-4,640.854,0.062,72,102.0
9606,F#3,640.865,1.0,56,102.0
9607,A3,640.865,1.0,56,102.0
9608,A1,640.875,229/1000,116,102.0
9609,A5,640.875,229/1000,116,102.0
9610,D4,640.875,417/1000,88,102.0
9611,G4,640.875,417/1000,88,102.0
9612,F#2,641.125,0.062,44,102.0
9613,B-4,641.125,0.062,44,102.0
9614,E3,641.135,27/200,67,102.0
9615,A5,641.146,229/1000,121,102.0
9616,A4,641.156,0.438,99,102.0
9617,G4,641.375,0.219,81,102.0
9618,C4,641.375,0.219,81,102.0
9619,A3,641.375,0.219,81,102.0
9620,A5,641.375,0.219,81,102.0
9621,B-4,641.375,0.062,52,102.0
9622,F#2,641.375,0.062,52,102.0
9623,G1,641.385,0.219,114,102.0
9624,A5,641.385,0.219,114,102.0
9625,B1,641.625,0.062,59,102.0
9626,F#2,641.625,0.062,59,102.0
9627,B-4,641.625,0.062,59,102.0
9628,B3,641.635,27/200,69,102.0
9629,A5,641.635,0.219,120,102.0
9630,A4,641.677,26/125,97,102.0
9631,A3,641.854,0.031,68,102.0
9632,G3,641.854,0.031,68,102.0
9633,E4,641.854,0.031,68,102.0
9634,E-3,641.854,0.031,59,102.0
9635,B1,641.854,0.031,59,102.0
9636,B-4,641.854,0.031,59,102.0
9637,C#3,641.854,0.031,59,102.0
9638,F#2,641.854,0.031,59,102.0
9639,C4,641.865,21/1000,72,102.0
9640,G4,641.875,1/100,101,102.0
9641,C4,641.875,1/100,114,102.0
9642,A5,641.875,1/100,122,102.0
9643,A1,641.875,1/100,92,102.0
9644,D5,641.875,1/100,92,102.0
9645,A4,641.875,1/100,72,102.0
9646,C4,641.875,1/100,72,102.0
9647,C4,641.885,5927/1000,72,102.0
9648,G4,641.885,583/1000,101,102.0
9649,C4,641.885,677/1000,114,102.0
9650,A4,641.885,521/1000,97,102.0
9651,A5,641.885,1083/1000,122,102.0
9652,A3,641.885,1487/250,68,102.0
9653,G3,641.885,1487/250,68,102.0
9654,E4,641.885,1487/250,68,102.0
9655,E-3,641.885,0.031,59,102.0
9656,B1,641.885,0.031,59,102.0
9657,B-4,641.885,0.031,59,102.0
9658,C#3,641.885,0.031,59,102.0
9659,F#2,641.885,0.031,59,102.0
9660,A1,641.885,99/500,92,102.0
9661,D5,641.885,99/500,92,102.0
9662,A4,641.885,0.094,72,102.0
9663,C4,641.885,0.094,72,102.0
9664,G1,642.115,0.312,107,102.0
9665,C4,642.125,0.156,70,102.0
9666,F#2,642.125,0.062,42,102.0
9667,B-4,642.125,0.062,42,102.0
9668,B3,642.375,73/500,70,102.0
9669,F#2,642.385,0.062,46,102.0
9670,B-4,642.385,0.062,46,102.0
9671,F#2,642.615,0.062,42,102.0
9672,B-4,642.615,0.062,42,102.0
9673,G4,642.615,0.156,70,102.0
9674,C4,642.615,0.156,70,102.0
9675,C5,642.615,0.156,70,102.0
9676,D4,642.646,13/50,92,102.0
9677,A3,642.646,13/50,92,102.0
9678,G4,642.646,13/50,92,102.0
9679,E-3,642.854,0.062,67,102.0
9680,D2,642.854,0.062,67,102.0
9681,F#2,642.854,0.062,67,102.0
9682,B-4,642.854,0.062,67,102.0
9683,C4,642.865,99/100,64,102.0
9684,A3,642.865,99/100,64,102.0
9685,G5,642.896,99/500,55,102.0
9686,F5,643.021,177/1000,82,102.0
9687,F#2,643.125,0.062,60,102.0
9688,G1,643.125,0.062,60,102.0
9689,B-4,643.125,0.062,60,102.0
9690,E5,643.135,27/200,70,102.0
9691,E3,643.135,27/200,70,102.0
9692,D5,643.24,167/1000,81,102.0
9693,C5,643.333,0.062,72,102.0
9694,G1,643.333,0.062,72,102.0
9695,A3,643.333,0.062,72,102.0
9696,B-4,643.333,0.062,72,102.0
9697,F#2,643.375,0.062,50,102.0
9698,B-4,643.375,0.062,50,102.0
9699,B4,643.448,167/1000,73,102.0
9700,A4,643.562,27/200,77,102.0
9701,F#2,643.562,27/200,77,102.0
9702,G1,643.562,27/200,77,102.0
9703,B3,643.625,0.062,48,102.0
9704,B-4,643.625,0.062,48,102.0
9705,G4,643.698,13/250,69,102.0
9706,G1,643.865,13/50,110,102.0
9707,C4,643.865,99/100,62,102.0
9708,A3,643.865,99/100,62,102.0
9709,E4,643.865,99/100,62,102.0
9710,F#2,643.875,0.062,56,102.0
9711,F#3,643.875,0.062,56,102.0
9712,E-3,643.875,0.062,56,102.0
9713,B-4,643.875,0.062,56,102.0
9714,C4,643.885,0.156,68,102.0
9715,F#2,644.115,0.062,41,102.0
9716,B-4,644.115,0.062,41,102.0
9717,G1,644.375,271/1000,108,102.0
9718,F#2,644.375,0.062,52,102.0
9719,B-4,644.375,0.062,52,102.0
9720,A3,644.396,73/500,64,102.0
9721,F#2,644.625,0.062,44,102.0
9722,B-4,644.625,0.062,44,102.0
9723,C4,644.646,27/200,72,102.0
9724,E-3,644.844,0.062,72,102.0
9725,B1,644.844,0.062,72,102.0
9726,A2,644.844,0.062,72,102.0
9727,F#2,644.844,0.062,72,102.0
9728,B-4,644.844,0.062,72,102.0
9729,C4,644.865,99/100,62,102.0
9730,A3,644.865,99/100,62,102.0
9731,C5,644.865,99/100,62,102.0
9732,E4,644.865,99/100,62,102.0
9733,A1,644.875,73/250,108,102.0
9734,F#2,645.125,0.062,44,102.0
9735,B-4,645.125,0.062,44,102.0
9736,E3,645.135,99/500,63,102.0
9737,G1,645.375,271/1000,109,102.0
9738,F#2,645.375,0.062,44,102.0
9739,B-4,645.375,0.062,44,102.0
9740,A3,645.385,73/500,66,102.0
9741,F#2,645.615,0.062,44,102.0
9742,B-4,645.615,0.062,44,102.0
9743,C4,645.646,23/200,70,102.0
9744,A1,645.865,21/1000,110,102.0
9745,C4,645.865,21/1000,62,102.0
9746,C5,645.865,21/1000,62,102.0
9747,A3,645.865,21/1000,62,102.0
9748,E4,645.865,21/1000,62,102.0
9749,F#2,645.875,1/100,68,102.0
9750,E-3,645.875,1/100,68,102.0
9751,B-4,645.875,1/100,68,102.0
9752,B1,645.875,1/100,68,102.0
9753,A1,647.833,0.25,110,102.0
9754,C4,647.833,979/1000,62,102.0
9755,C5,647.833,979/1000,62,102.0
9756,A3,647.833,979/1000,62,102.0
9757,E4,647.833,979/1000,62,102.0
9758,F#2,647.833,13/250,68,102.0
9759,E-3,647.833,13/250,68,102.0
9760,B-4,647.833,13/250,68,102.0
9761,B1,647.833,13/250,68,102.0
9762,G1,648.062,0.281,111,102.0
9763,F#2,648.062,0.062,37,102.0
9764,B-4,648.062,0.062,37,102.0
9765,E3,648.094,177/1000,63,102.0
9766,F#2,648.312,0.062,44,102.0
9767,B-4,648.312,0.062,44,102.0
9768,F#2,648.562,0.062,38,102.0
9769,B-4,648.562,0.062,38,102.0
9770,C4,648.583,0.062,49,102.0
9771,B-4,648.583,0.062,49,102.0
9772,D5,648.812,1.0,63,102.0
9773,B3,648.812,1.0,63,102.0
9774,D4,648.812,1.0,63,102.0
9775,F#4,648.812,1.0,63,102.0
9776,E-3,648.812,0.062,69,102.0
9777,C#2,648.812,0.062,69,102.0
9778,F#2,648.812,0.062,69,102.0
9779,B-4,648.812,0.062,69,102.0
9780,F#2,649.062,0.062,59,102.0
9781,G1,649.062,0.062,59,102.0
9782,B-4,649.062,0.062,59,102.0
9783,E3,649.073,0.156,66,102.0
9784,E4,649.26,0.469,71,102.0
9785,F#2,649.312,0.062,65,102.0
9786,G1,649.312,0.062,65,102.0
9787,B-4,649.312,0.062,65,102.0
9788,B3,649.333,0.062,52,102.0
9789,B-4,649.333,0.062,52,102.0
9790,F#2,649.562,0.062,56,102.0
9791,G1,649.562,0.062,56,102.0
9792,B-4,649.562,0.062,56,102.0
9793,C4,649.573,27/200,69,102.0
9794,E-5,649.594,0.469,112,102.0
9795,F#3,649.802,1927/1000,69,102.0
9796,B3,649.802,1927/1000,69,102.0
9797,B3,649.802,1927/1000,69,102.0
9798,D4,649.802,1927/1000,69,102.0
9799,E-3,649.802,0.062,58,102.0
9800,F#2,649.802,0.062,58,102.0
9801,F#3,649.802,0.062,58,102.0
9802,B-4,649.802,0.062,58,102.0
9803,B4,649.812,1.0,62,102.0
9804,G3,649.812,1.0,62,102.0
9805,D4,649.812,1.0,62,102.0
9806,G1,649.823,0.25,108,102.0
9807,D4,649.823,73/500,69,102.0
9808,F#2,650.062,0.062,38,102.0
9809,B-4,650.062,0.062,38,102.0
9810,E-4,650.073,0.062,71,102.0
9811,C4,650.073,0.062,71,102.0
9812,B-4,650.073,0.062,71,102.0
9813,E4,650.094,323/500,109,102.0
9814,G4,650.094,0.562,107,102.0
9815,D5,650.104,0.312,107,102.0
9816,G1,650.323,6/25,108,102.0
9817,F#2,650.323,0.062,46,102.0
9818,B-4,650.323,0.062,46,102.0
9819,F#2,650.573,0.062,32,102.0
9820,B-4,650.573,0.062,32,102.0
9821,D5,650.594,0.438,107,102.0
9822,A3,650.812,1.0,57,102.0
9823,F#3,650.812,1.0,57,102.0
9824,E-3,650.812,0.062,73,102.0
9825,B1,650.812,0.062,73,102.0
9826,A2,650.812,0.062,73,102.0
9827,F#2,650.812,0.062,73,102.0
9828,B-4,650.812,0.062,73,102.0
9829,A1,650.823,13/50,109,102.0
9830,G4,650.823,73/200,76,102.0
9831,E-4,650.823,479/1000,101,102.0
9832,E3,651.083,0.156,70,102.0
9833,F#2,651.094,0.062,38,102.0
9834,B-4,651.094,0.062,38,102.0
9835,A4,651.104,417/1000,102,102.0
9836,C6,651.26,573/1000,110,102.0
9837,F#2,651.323,0.062,46,102.0
9838,B-4,651.323,0.062,46,102.0
9839,G4,651.323,0.125,71,102.0
9840,D4,651.323,0.125,71,102.0
9841,A3,651.323,0.125,71,102.0
9842,G1,651.344,73/250,110,102.0
9843,F#2,651.573,0.062,53,102.0
9844,B1,651.573,0.062,53,102.0
9845,B-4,651.573,0.062,53,102.0
9846,B3,651.573,0.062,59,102.0
9847,B1,651.573,0.062,59,102.0
9848,B-4,651.573,0.062,59,102.0
9849,A4,651.615,0.219,100,102.0
9850,G3,651.792,21/500,67,102.0
9851,A3,651.792,21/500,67,102.0
9852,E4,651.792,21/500,67,102.0
9853,C4,651.802,0.031,72,102.0
9854,E-3,651.802,0.031,68,102.0
9855,F#2,651.802,0.031,68,102.0
9856,B-4,651.802,0.031,68,102.0
9857,B1,651.802,0.031,68,102.0
9858,A1,651.823,1/100,108,102.0
9859,D4,651.823,1/100,108,102.0
9860,G4,651.823,1/100,78,102.0
9861,D5,651.823,1/100,78,102.0
9862,A4,651.823,1/100,78,102.0
9863,C4,651.823,1/100,78,102.0
9864,C6,651.833,487/250,110,102.0
9865,C4,651.833,2979/500,72,102.0
9866,A4,651.833,0.469,100,102.0
9867,A1,651.833,229/1000,108,102.0
9868,D4,651.833,229/1000,108,102.0
9869,G3,651.833,6.0,67,102.0
9870,A3,651.833,6.0,67,102.0
9871,E4,651.833,6.0,67,102.0
9872,E-3,651.833,0.031,68,102.0
9873,F#2,651.833,0.031,68,102.0
9874,B-4,651.833,0.031,68,102.0
9875,B1,651.833,0.031,68,102.0
9876,G4,651.833,0.094,78,102.0
9877,D5,651.833,0.094,78,102.0
9878,A4,651.833,0.094,78,102.0
9879,C4,651.833,0.094,78,102.0
9880,F#2,652.073,0.062,36,102.0
9881,B-4,652.073,0.062,36,102.0
9882,G1,652.073,26/125,85,102.0
9883,C4,652.073,26/125,85,102.0
9884,C4,652.073,26/125,85,102.0
9885,F#2,652.323,0.062,48,102.0
9886,B-4,652.323,0.062,48,102.0
9887,A3,652.323,0.156,80,102.0
9888,B3,652.323,0.156,80,102.0
9889,F#2,652.562,0.094,49,102.0
9890,B-4,652.562,0.094,49,102.0
9891,C4,652.562,0.094,49,102.0
9892,G4,652.573,0.094,69,102.0
9893,C5,652.573,0.094,69,102.0
9894,C4,652.573,0.094,69,102.0
9895,G4,652.594,13/50,100,102.0
9896,D4,652.594,13/50,100,102.0
9897,E-3,652.802,0.062,67,102.0
9898,D2,652.802,0.062,67,102.0
9899,F#2,652.802,0.062,67,102.0
9900,B-4,652.802,0.062,67,102.0
9901,C4,652.812,99/100,64,102.0
9902,A3,652.812,99/100,64,102.0
9903,F#2,653.073,0.062,38,102.0
9904,B-4,653.073,0.062,38,102.0
9905,G1,653.073,0.125,86,102.0
9906,E3,653.073,0.125,86,102.0
9907,G1,653.312,23/200,88,102.0
9908,A3,653.312,23/200,88,102.0
9909,F#2,653.323,23/200,55,102.0
9910,B-4,653.323,23/200,55,102.0
9911,A3,653.323,23/200,55,102.0
9912,G1,653.562,27/200,88,102.0
9913,B3,653.562,27/200,88,102.0
9914,B-4,653.562,0.062,37,102.0
9915,F#2,653.562,0.062,37,102.0
9916,C4,653.812,99/100,60,102.0
9917,A3,653.812,99/100,60,102.0
9918,E4,653.812,99/100,60,102.0
9919,E-3,653.812,0.094,58,102.0
9920,F#2,653.812,0.094,58,102.0
9921,B-4,653.812,0.094,58,102.0
9922,C4,653.812,0.094,58,102.0
9923,G1,653.823,271/1000,108,102.0
9924,F#2,654.062,0.062,37,102.0
9925,B-4,654.062,0.062,37,102.0
9926,G1,654.323,271/1000,109,102.0
9927,F#2,654.323,13/125,50,102.0
9928,B-4,654.323,13/125,50,102.0
9929,A3,654.323,13/125,50,102.0
9930,F#2,654.562,0.062,30,102.0
9931,B-4,654.562,0.062,30,102.0
9932,C4,654.594,27/200,72,102.0
9933,E-3,654.802,0.062,72,102.0
9934,F#2,654.802,0.062,72,102.0
9935,B-4,654.802,0.062,72,102.0
9936,B1,654.802,0.062,72,102.0
9937,A2,654.802,0.062,72,102.0
9938,C5,654.812,99/100,64,102.0
9939,C4,654.812,99/100,64,102.0
9940,A3,654.812,99/100,64,102.0
9941,E4,654.812,99/100,64,102.0
9942,A1,654.823,0.281,107,102.0
9943,F#2,655.062,0.062,46,102.0
9944,B-4,655.062,0.062,46,102.0
9945,E3,655.094,0.156,69,102.0
9946,B-2,655.312,0.062,50,102.0
9947,B-4,655.312,0.062,50,102.0
9948,G1,655.323,73/250,107,102.0
9949,A3,655.344,167/1000,69,102.0
9950,B-4,655.573,0.062,22,102.0
9951,C4,655.594,27/200,73,102.0
9952,C4,655.812,21/1000,62,102.0
9953,A3,655.812,21/1000,62,102.0
9954,C5,655.812,21/1000,62,102.0
9955,E4,655.812,21/1000,62,102.0
9956,E-3,655.812,21/1000,63,102.0
9957,B1,655.812,21/1000,63,102.0
9958,F#2,655.812,21/1000,63,102.0
9959,B-4,655.812,21/1000,63,102.0
9960,A1,655.823,1/100,109,102.0
9961,A1,657.833,229/1000,109,102.0
9962,C4,657.833,979/1000,62,102.0
9963,A3,657.833,979/1000,62,102.0
9964,C5,657.833,979/1000,62,102.0
9965,E4,657.833,979/1000,62,102.0
9966,E-3,657.833,21/500,63,102.0
9967,B1,657.833,21/500,63,102.0
9968,F#2,657.833,21/500,63,102.0
9969,B-4,657.833,21/500,63,102.0
9970,B-4,658.062,0.062,33,102.0
9971,F#2,658.062,0.062,33,102.0
9972,G1,658.073,0.281,104,102.0
9973,E3,658.094,0.156,68,102.0
9974,F#2,658.323,0.062,43,102.0
9975,B-4,658.323,0.062,43,102.0
9976,F#2,658.562,0.062,46,102.0
9977,C#2,658.562,0.062,46,102.0
9978,B-4,658.562,0.062,46,102.0
9979,C4,658.573,0.188,73,102.0
9980,D5,658.812,1.0,63,102.0
9981,D4,658.812,1.0,63,102.0
9982,B3,658.812,1.0,63,102.0
9983,F#4,658.812,1.0,63,102.0
9984,F#2,658.812,0.062,64,102.0
9985,E-3,658.812,0.062,64,102.0
9986,C#2,658.812,0.062,64,102.0
9987,F#3,658.812,0.062,64,102.0
9988,B-4,658.812,0.062,64,102.0
9989,B-4,659.062,0.062,30,102.0
9990,F#2,659.062,0.062,30,102.0
9991,G1,659.073,0.188,88,102.0
9992,E3,659.073,0.188,88,102.0
9993,E4,659.219,479/1000,71,102.0
9994,B-4,659.312,0.062,63,102.0
9995,C#2,659.312,0.062,63,102.0
9996,F#2,659.312,0.062,63,102.0
9997,G1,659.323,167/1000,88,102.0
9998,B3,659.323,167/1000,88,102.0
9999,E-5,659.552,479/1000,104,102.0
10000,F#2,659.562,0.062,45,102.0
10001,B-4,659.562,0.062,45,102.0
10002,G1,659.573,0.188,88,102.0
10003,C4,659.573,0.188,88,102.0
10004,D4,659.812,1.0,61,102.0
10005,G3,659.812,1.0,61,102.0
10006,B4,659.812,1.0,61,102.0
10007,B3,659.812,1927/1000,67,102.0
10008,F#3,659.812,1927/1000,67,102.0
10009,B3,659.812,1927/1000,67,102.0
10010,D4,659.812,1927/1000,67,102.0
10011,F#2,659.812,0.062,57,102.0
10012,E-3,659.812,0.062,57,102.0
10013,B-4,659.812,0.062,57,102.0
10014,G1,659.823,6/25,108,102.0
10015,D4,659.833,73/500,72,102.0
10016,F#2,659.938,0.062,70,102.0
10017,B-4,660.062,0.062,47,102.0
10018,F#2,660.062,0.062,47,102.0
10019,D5,660.094,77/200,105,102.0
10020,D5,660.094,73/500,98,102.0
10021,G5,660.094,73/500,98,102.0
10022,C4,660.094,73/500,98,102.0
10023,B-4,660.312,23/200,77,102.0
10024,F#2,660.312,23/200,77,102.0
10025,E-5,660.312,23/200,77,102.0
10026,G1,660.323,0.281,109,102.0
10027,G5,660.323,23/200,105,102.0
10028,E-5,660.323,23/200,105,102.0
10029,F#2,660.562,0.062,44,102.0
10030,B-4,660.562,0.062,44,102.0
10031,G5,660.594,73/500,90,102.0
10032,E5,660.594,73/500,90,102.0
10033,D5,660.604,77/200,106,102.0
10034,A5,660.812,99/250,124,102.0
10035,A3,660.812,1.0,52,102.0
10036,F#3,660.812,1.0,52,102.0
10037,B1,660.823,0.062,73,102.0
10038,A2,660.823,0.062,73,102.0
10039,F#2,660.823,0.062,73,102.0
10040,E-3,660.823,0.062,73,102.0
10041,B-4,660.823,0.062,73,102.0
10042,A1,660.823,177/1000,92,102.0
10043,G5,660.823,177/1000,92,102.0
10044,E-5,660.823,177/1000,92,102.0
10045,F#2,661.062,0.062,37,102.0
10046,B-4,661.062,0.062,37,102.0
10047,G5,661.062,0.062,37,102.0
10048,G5,661.083,27/200,96,102.0
10049,E3,661.083,27/200,96,102.0
10050,D5,661.094,0.062,64,102.0
10051,E3,661.094,0.062,64,102.0
10052,G5,661.094,0.062,64,102.0
10053,A4,661.104,77/200,99,102.0
10054,E5,661.292,271/500,121,102.0
10055,F#2,661.312,0.062,50,102.0
10056,B-4,661.312,0.062,50,102.0
10057,G1,661.323,73/250,108,102.0
10058,G5,661.344,177/1000,89,102.0
10059,C5,661.344,177/1000,89,102.0
10060,A3,661.344,177/1000,89,102.0
10061,F#2,661.562,0.062,47,102.0
10062,B-4,661.562,0.062,47,102.0
10063,B3,661.594,0.125,67,102.0
10064,A4,661.615,0.219,101,102.0
10065,F#2,661.812,21/1000,68,102.0
10066,E-3,661.812,21/1000,68,102.0
10067,B-4,661.812,21/1000,68,102.0
10068,B1,661.812,21/1000,68,102.0
10069,F#3,661.812,21/1000,68,102.0
10070,G3,661.812,21/1000,68,102.0
10071,C4,661.812,21/1000,68,102.0
10072,E4,661.812,21/1000,68,102.0
10073,A3,661.812,21/1000,68,102.0
10074,C5,661.823,1/100,111,102.0
10075,A1,661.823,1/100,92,102.0
10076,D5,661.823,1/100,92,102.0
10077,A4,661.823,1/100,72,102.0
10078,C4,661.823,1/100,72,102.0
10079,E5,661.833,0.094,121,102.0
10080,A4,661.833,69/125,101,102.0
10081,C5,661.833,0.375,111,102.0
10082,F#2,661.833,21/500,68,102.0
10083,E-3,661.833,21/500,68,102.0
10084,B-4,661.833,21/500,68,102.0
10085,B1,661.833,21/500,68,102.0
10086,F#3,661.833,21/500,68,102.0
10087,G3,661.833,6.0,68,102.0
10088,C4,661.833,6.0,68,102.0
10089,E4,661.833,6.0,68,102.0
10090,A3,661.833,6.0,68,102.0
10091,A1,661.833,167/1000,92,102.0
10092,D5,661.833,167/1000,92,102.0
10093,A4,661.833,0.125,72,102.0
10094,C4,661.833,0.125,72,102.0
10095,G5,661.844,0.688,115,102.0
10096,C5,661.844,0.688,115,102.0
10097,G1,662.062,151/500,106,102.0
10098,F#2,662.073,0.062,43,102.0
10099,B-4,662.073,0.062,43,102.0
10100,C4,662.094,167/1000,72,102.0
10101,A4,662.125,2.719,105,102.0
10102,F#2,662.323,0.062,46,102.0
10103,B-4,662.323,0.062,46,102.0
10104,B3,662.344,167/1000,68,102.0
10105,F#2,662.562,0.062,41,102.0
10106,B-4,662.562,0.062,41,102.0
10107,G4,662.573,23/200,71,102.0
10108,C5,662.573,23/200,71,102.0
10109,C4,662.573,23/200,71,102.0
10110,D5,662.615,99/500,76,102.0
10111,A4,662.615,151/500,68,102.0
10112,C4,662.812,99/100,64,102.0
10113,A3,662.812,99/100,64,102.0
10114,B-4,662.812,0.062,67,102.0
10115,F#2,662.812,0.062,67,102.0
10116,E-3,662.812,0.062,67,102.0
10117,D2,662.812,0.062,67,102.0
10118,B-4,663.062,0.062,38,102.0
10119,F#2,663.062,0.062,38,102.0
10120,G1,663.073,167/1000,86,102.0
10121,E3,663.073,167/1000,86,102.0
10122,G4,663.115,271/1000,58,102.0
10123,C5,663.115,271/1000,58,102.0
10124,F#2,663.323,0.062,50,102.0
10125,B-4,663.323,0.062,50,102.0
10126,G1,663.323,73/500,87,102.0
10127,A3,663.323,73/500,87,102.0
10128,G1,663.562,27/200,87,102.0
10129,B3,663.562,27/200,87,102.0
10130,F#2,663.573,0.062,38,102.0
10131,B-4,663.573,0.062,38,102.0
10132,E4,663.812,99/100,62,102.0
10133,C4,663.812,99/100,62,102.0
10134,A3,663.812,99/100,62,102.0
10135,G1,663.823,271/1000,108,102.0
10136,F#2,663.823,0.062,53,102.0
10137,E-3,663.823,0.062,53,102.0
10138,B-4,663.823,0.062,53,102.0
10139,C4,663.833,73/500,70,102.0
10140,F#2,664.062,0.062,40,102.0
10141,B-4,664.062,0.062,40,102.0
10142,F#2,664.312,0.062,46,102.0
10143,B-4,664.312,0.062,46,102.0
10144,G1,664.323,0.312,108,102.0
10145,A3,664.323,167/1000,69,102.0
10146,F#2,664.562,0.062,42,102.0
10147,B-4,664.562,0.062,42,102.0
10148,C4,664.583,0.156,70,102.0
10149,C5,664.812,99/100,62,102.0
10150,C4,664.812,99/100,62,102.0
10151,A3,664.812,99/100,62,102.0
10152,E4,664.812,99/100,62,102.0
10153,F#2,664.812,0.062,70,102.0
10154,B-4,664.812,0.062,70,102.0
10155,B1,664.812,0.062,70,102.0
10156,A2,664.812,0.062,70,102.0
10157,E-3,664.812,0.062,70,102.0
10158,A1,664.823,271/1000,108,102.0
10159,C5,664.823,0.406,92,102.0
10160,G4,664.823,0.406,92,102.0
10161,F#2,665.062,0.062,46,102.0
10162,B-4,665.062,0.062,46,102.0
10163,E3,665.083,167/1000,66,102.0
10164,G1,665.312,26/125,96,102.0
10165,E4,665.312,26/125,96,102.0
10166,B-4,665.312,0.062,52,102.0
10167,B-2,665.312,0.062,52,102.0
10168,A4,665.333,73/500,73,102.0
10169,A3,665.333,73/500,73,102.0
10170,B-4,665.562,0.062,48,102.0
10171,B1,665.562,0.062,48,102.0
10172,C4,665.594,23/200,70,102.0
10173,A3,665.812,21/1000,65,102.0
10174,C4,665.812,21/1000,65,102.0
10175,C5,665.812,21/1000,65,102.0
10176,E4,665.812,21/1000,65,102.0
10177,G4,665.812,21/1000,65,102.0
10178,E-3,665.812,21/1000,65,102.0
10179,B-4,665.812,21/1000,65,102.0
10180,B1,665.812,21/1000,65,102.0
10181,F#2,665.812,21/1000,65,102.0
10182,F#3,665.812,21/1000,65,102.0
10183,A1,665.823,1/100,109,102.0
10184,E-4,665.823,1/100,101,102.0
10185,A1,667.833,229/1000,109,102.0
10186,E-4,667.833,271/500,101,102.0
10187,A3,667.833,99/100,65,102.0
10188,C4,667.833,99/100,65,102.0
10189,C5,667.833,99/100,65,102.0
10190,E4,667.833,99/100,65,102.0
10191,G4,667.833,99/100,65,102.0
10192,E-3,667.833,21/500,65,102.0
10193,B-4,667.833,21/500,65,102.0
10194,B1,667.833,21/500,65,102.0
10195,F#2,667.833,21/500,65,102.0
10196,F#3,667.833,21/500,65,102.0
10197,B-4,668.062,0.062,36,102.0
10198,F#2,668.062,0.062,36,102.0
10199,G1,668.073,271/1000,104,102.0
10200,E3,668.094,167/1000,69,102.0
10201,F#2,668.323,0.062,49,102.0
10202,B-4,668.323,0.062,49,102.0
10203,F#2,668.562,0.062,40,102.0
10204,B-4,668.562,0.062,40,102.0
10205,D4,668.583,151/500,69,102.0
10206,C4,668.594,0.125,72,102.0
10207,E-3,668.802,0.062,62,102.0
10208,C#2,668.802,0.062,62,102.0
10209,F#2,668.802,0.062,62,102.0
10210,B-4,668.802,0.062,62,102.0
10211,B3,668.812,1.0,63,102.0
10212,D4,668.812,1.0,63,102.0
10213,D5,668.812,1.0,63,102.0
10214,F#4,668.812,1.0,63,102.0
10215,F#2,669.073,0.062,64,102.0
10216,G1,669.073,0.062,64,102.0
10217,B-4,669.073,0.062,64,102.0
10218,E3,669.094,0.156,68,102.0
10219,G4,669.094,0.312,50,102.0
10220,C4,669.094,0.312,50,102.0
10221,E4,669.271,56/125,71,102.0
10222,F#2,669.323,0.062,68,102.0
10223,G1,669.323,0.062,68,102.0
10224,B-4,669.323,0.062,68,102.0
10225,B3,669.344,27/200,71,102.0
10226,F#2,669.562,0.062,49,102.0
10227,C#2,669.562,0.062,49,102.0
10228,B-4,669.562,0.062,49,102.0
10229,G1,669.573,73/500,88,102.0
10230,C4,669.573,73/500,88,102.0
10231,E-5,669.604,56/125,107,102.0
10232,F#3,669.802,979/500,68,102.0
10233,B3,669.802,979/500,68,102.0
10234,B3,669.802,979/500,68,102.0
10235,D4,669.802,979/500,68,102.0
10236,E-3,669.802,0.062,66,102.0
10237,C#2,669.802,0.062,66,102.0
10238,F#2,669.802,0.062,66,102.0
10239,B-4,669.802,0.062,66,102.0
10240,D4,669.812,1.0,63,102.0
10241,G3,669.812,1.0,63,102.0
10242,B4,669.812,1.0,63,102.0
10243,G1,669.823,323/1000,106,102.0
10244,D4,669.833,73/500,72,102.0
10245,B-4,670.062,0.062,38,102.0
10246,F#2,670.062,0.062,38,102.0
10247,E4,670.094,0.594,95,102.0
10248,G4,670.094,0.5,93,102.0
10249,E-4,670.094,0.156,88,102.0
10250,C4,670.094,0.156,88,102.0
10251,D5,670.115,0.344,107,102.0
10252,B-4,670.312,0.062,47,102.0
10253,F#2,670.312,0.062,47,102.0
10254,G1,670.323,323/1000,108,102.0
10255,F#2,670.562,0.062,40,102.0
10256,B-4,670.562,0.062,40,102.0
10257,D5,670.604,0.469,107,102.0
10258,E5,670.792,323/1000,103,102.0
10259,A1,670.792,323/1000,103,102.0
10260,E-4,670.792,323/1000,103,102.0
10261,G4,670.792,323/1000,103,102.0
10262,E-3,670.802,0.062,70,102.0
10263,F#2,670.802,0.062,70,102.0
10264,B-4,670.802,0.062,70,102.0
10265,B1,670.802,0.062,70,102.0
10266,A2,670.802,0.062,70,102.0
10267,F#3,670.812,1.0,57,102.0
10268,A3,670.812,1.0,57,102.0
10269,G5,671.062,271/1000,116,102.0
10270,F#2,671.062,0.062,41,102.0
10271,B-4,671.062,0.062,41,102.0
10272,E3,671.083,0.156,69,102.0
10273,A4,671.115,77/200,99,102.0
10274,E5,671.281,0.281,108,102.0
10275,G1,671.281,0.281,108,102.0
10276,F#2,671.312,0.062,46,102.0
10277,B-4,671.312,0.062,46,102.0
10278,G4,671.323,167/1000,74,102.0
10279,D4,671.323,167/1000,74,102.0
10280,A3,671.323,167/1000,74,102.0
10281,F#5,671.542,73/250,127,102.0
10282,F#2,671.562,0.062,38,102.0
10283,B-4,671.562,0.062,38,102.0
10284,B3,671.583,27/200,70,102.0
10285,A4,671.625,26/125,98,102.0
10286,F#2,671.812,21/1000,64,102.0
10287,F#3,671.812,21/1000,64,102.0
10288,E-3,671.812,21/1000,64,102.0
10289,B-4,671.812,21/1000,64,102.0
10290,B1,671.812,21/1000,64,102.0
10291,C4,671.812,21/1000,68,102.0
10292,G3,671.812,21/1000,68,102.0
10293,A3,671.812,21/1000,68,102.0
10294,E4,671.812,21/1000,68,102.0
10295,D5,671.812,21/1000,90,102.0
10296,A1,671.812,21/1000,90,102.0
10297,G4,671.812,21/1000,90,102.0
10298,D4,671.812,21/1000,90,102.0
10299,A4,671.812,21/1000,90,102.0
10300,C4,671.812,21/1000,90,102.0
10301,F#5,671.833,521/1000,127,102.0
10302,A4,671.833,49/100,98,102.0
10303,F#2,671.833,21/500,64,102.0
10304,F#3,671.833,21/500,64,102.0
10305,E-3,671.833,21/500,64,102.0
10306,B-4,671.833,21/500,64,102.0
10307,B1,671.833,21/500,64,102.0
10308,C4,671.833,5.906,68,102.0
10309,G3,671.833,5.906,68,102.0
10310,A3,671.833,5.906,68,102.0
10311,E4,671.833,5.906,68,102.0
10312,D5,671.833,0.094,90,102.0
10313,A1,671.833,0.094,90,102.0
10314,G4,671.833,0.094,90,102.0
10315,D4,671.833,0.094,90,102.0
10316,A4,671.833,0.094,90,102.0
10317,C4,671.833,0.094,90,102.0
10318,G1,672.062,73/250,105,102.0
10319,F#2,672.062,0.062,43,102.0
10320,B-4,672.062,0.062,43,102.0
10321,C4,672.083,0.188,70,102.0
10322,C4,672.083,0.188,70,102.0
10323,G5,672.302,927/1000,110,102.0
10324,F#2,672.323,0.062,48,102.0
10325,B-4,672.323,0.062,48,102.0
10326,A3,672.323,0.156,70,102.0
10327,B3,672.323,0.156,70,102.0
10328,G4,672.562,0.125,71,102.0
10329,C5,672.562,0.125,71,102.0
10330,C4,672.562,0.125,71,102.0
10331,F#2,672.573,0.062,49,102.0
10332,C4,672.573,0.062,49,102.0
10333,B-4,672.573,0.062,49,102.0
10334,A3,672.812,99/100,64,102.0
10335,C4,672.812,99/100,64,102.0
10336,E-3,672.812,0.062,66,102.0
10337,D2,672.812,0.062,66,102.0
10338,F#2,672.812,0.062,66,102.0
10339,B-4,672.812,0.062,66,102.0
10340,G1,673.062,0.062,62,102.0
10341,F#2,673.062,0.062,62,102.0
10342,B-4,673.062,0.062,62,102.0
10343,E3,673.083,177/1000,69,102.0
10344,F5,673.167,0.156,92,102.0
10345,E5,673.271,0.062,73,102.0
10346,G1,673.271,0.062,73,102.0
10347,F#2,673.271,0.062,73,102.0
10348,B-4,673.271,0.062,73,102.0
10349,A3,673.323,27/200,79,102.0
10350,D5,673.323,27/200,79,102.0
10351,C5,673.438,27/200,84,102.0
10352,B4,673.531,0.062,68,102.0
10353,G1,673.531,0.062,68,102.0
10354,F#2,673.531,0.062,68,102.0
10355,B-4,673.531,0.062,68,102.0
10356,B3,673.573,73/1000,73,102.0
10357,A4,673.573,73/1000,73,102.0
10358,C4,673.812,99/100,64,102.0
10359,A3,673.812,99/100,64,102.0
10360,E4,673.812,99/100,64,102.0
10361,B-4,673.812,0.062,52,102.0
10362,F#2,673.812,0.062,52,102.0
10363,E-3,673.812,0.062,52,102.0
10364,G1,673.823,99/500,100,102.0
10365,A3,673.823,99/500,100,102.0
10366,C4,673.823,0.062,60,102.0
10367,E-3,673.823,0.062,60,102.0
10368,F#2,674.062,0.062,41,102.0
10369,B-4,674.062,0.062,41,102.0
10370,B-4,674.312,0.062,47,102.0
10371,F#2,674.312,0.062,47,102.0
10372,A3,674.323,0.125,68,102.0
10373,G1,674.333,0.25,107,102.0
10374,F#2,674.562,0.062,38,102.0
10375,B-4,674.562,0.062,38,102.0
10376,C4,674.594,0.125,71,102.0
10377,C4,674.812,99/100,64,102.0
10378,A3,674.812,99/100,64,102.0
10379,E4,674.812,99/100,64,102.0
10380,C5,674.812,99/100,64,102.0
10381,E-3,674.812,0.062,69,102.0
10382,B-4,674.812,0.062,69,102.0
10383,B1,674.812,0.062,69,102.0
10384,A2,674.812,0.062,69,102.0
10385,F#2,674.812,0.062,69,102.0
10386,A1,674.823,0.281,108,102.0
10387,B-4,675.062,0.062,38,102.0
10388,F#2,675.062,0.062,38,102.0
10389,E3,675.083,73/500,70,102.0
10390,F#2,675.323,0.062,44,102.0
10391,B-4,675.323,0.062,44,102.0
10392,G1,675.323,271/1000,111,102.0
10393,A3,675.323,271/1000,111,102.0
10394,A3,675.344,0.125,68,102.0
10395,B1,675.573,0.062,66,102.0
10396,F#2,675.573,0.062,66,102.0
10397,C4,675.573,0.062,66,102.0
10398,B-4,675.573,0.062,66,102.0
10399,F#2,675.708,0.062,60,102.0
10400,E4,675.812,21/1000,63,102.0
10401,C4,675.812,21/1000,63,102.0
10402,A3,675.812,21/1000,63,102.0
10403,C5,675.812,21/1000,63,102.0
10404,E-3,675.812,21/1000,62,102.0
10405,B1,675.812,21/1000,62,102.0
10406,B-4,675.812,21/1000,62,102.0
10407,F#2,675.812,21/1000,62,102.0
10408,A1,675.823,1/100,109,102.0
10409,A1,677.74,229/1000,109,102.0
10410,E4,677.74,979/1000,63,102.0
10411,C4,677.74,979/1000,63,102.0
10412,A3,677.74,979/1000,63,102.0
10413,C5,677.74,979/1000,63,102.0
10414,E-3,677.74,21/500,62,102.0
10415,B1,677.74,21/500,62,102.0
10416,B-4,677.74,21/500,62,102.0
10417,F#2,677.74,21/500,62,102.0
10418,G1,677.969,0.281,106,102.0
10419,B-4,677.99,0.062,42,102.0
10420,F#2,677.99,0.062,42,102.0
10421,E3,678.0,0.156,68,102.0
10422,F#2,678.229,0.062,48,102.0
10423,B-4,678.229,0.062,48,102.0
10424,F#2,678.479,0.062,51,102.0
10425,C4,678.479,0.062,51,102.0
10426,B-4,678.479,0.062,51,102.0
10427,A3,678.719,333/1000,104,102.0
10428,F#4,678.719,1.0,62,102.0
10429,D4,678.719,1.0,62,102.0
10430,B3,678.719,1.0,62,102.0
10431,D5,678.719,1.0,62,102.0
10432,E-3,678.719,0.062,64,102.0
10433,B-4,678.719,0.062,64,102.0
10434,C#2,678.719,0.062,64,102.0
10435,F#2,678.719,0.062,64,102.0
10436,G1,678.969,0.188,88,102.0
10437,E3,678.969,0.188,88,102.0
10438,F#2,678.979,0.062,40,102.0
10439,B-4,678.979,0.062,40,102.0
10440,E4,679.135,51/100,71,102.0
10441,F#2,679.219,0.062,50,102.0
10442,B-4,679.219,0.062,50,102.0
10443,G1,679.219,27/200,89,102.0
10444,B3,679.219,27/200,89,102.0
10445,E-5,679.469,51/100,102,102.0
10446,F#2,679.469,0.062,46,102.0
10447,B-4,679.469,0.062,46,102.0
10448,G1,679.469,0.062,67,102.0
10449,C4,679.469,0.062,67,102.0
10450,B-4,679.469,0.062,67,102.0
10451,F#3,679.708,2.0,66,102.0
10452,D4,679.708,2.0,66,102.0
10453,B3,679.708,2.0,66,102.0
10454,B3,679.708,2.0,66,102.0
10455,G1,679.719,73/250,108,102.0
10456,G3,679.719,1.0,62,102.0
10457,D4,679.719,1.0,62,102.0
10458,B4,679.719,1.0,62,102.0
10459,F#2,679.719,0.062,54,102.0
10460,E-3,679.719,0.062,54,102.0
10461,B-4,679.719,0.062,54,102.0
10462,D4,679.74,73/500,70,102.0
10463,F#2,679.844,0.062,60,102.0
10464,F#2,679.979,0.062,44,102.0
10465,B-4,679.979,0.062,44,102.0
10466,C4,680.0,0.062,47,102.0
10467,B-4,680.0,0.062,47,102.0
10468,D5,680.01,323/1000,109,102.0
10469,G1,680.219,0.312,104,102.0
10470,A3,680.219,0.312,104,102.0
10471,C#2,680.229,0.062,67,102.0
10472,F#2,680.229,0.062,67,102.0
10473,B-4,680.229,0.062,67,102.0
10474,F#2,680.479,0.062,42,102.0
10475,B-4,680.479,0.062,42,102.0
10476,D5,680.51,56/125,109,102.0
10477,F#3,680.719,1.0,56,102.0
10478,A3,680.719,1.0,56,102.0
10479,A1,680.729,271/1000,108,102.0
10480,F#2,680.729,0.062,71,102.0
10481,E-3,680.729,0.062,71,102.0
10482,B-4,680.729,0.062,71,102.0
10483,B1,680.729,0.062,71,102.0
10484,A2,680.729,0.062,71,102.0
10485,F#3,680.729,0.062,71,102.0
10486,F#2,680.979,0.062,46,102.0
10487,B-4,680.979,0.062,46,102.0
10488,A4,681.01,73/200,102,102.0
10489,G1,681.219,73/250,107,102.0
10490,F#2,681.229,0.062,50,102.0
10491,B-4,681.229,0.062,50,102.0
10492,F#2,681.479,0.062,54,102.0
10493,B-4,681.479,0.062,54,102.0
10494,B1,681.479,0.062,54,102.0
10495,A4,681.521,0.219,97,102.0
10496,G3,681.698,21/500,67,102.0
10497,A3,681.698,21/500,67,102.0
10498,E4,681.698,21/500,67,102.0
10499,C4,681.698,21/500,67,102.0
10500,E4,681.719,21/1000,74,102.0
10501,A4,681.719,21/1000,74,102.0
10502,A1,681.729,1/100,109,102.0
10503,A3,681.729,1/100,109,102.0
10504,E-3,681.729,1/100,68,102.0
10505,B-4,681.729,1/100,68,102.0
10506,F#2,681.729,1/100,68,102.0
10507,B1,681.729,1/100,68,102.0
10508,A4,681.74,479/1000,97,102.0
10509,E4,681.74,27/200,74,102.0
10510,A4,681.74,27/200,74,102.0
10511,A1,681.74,13/50,109,102.0
10512,A3,681.74,13/50,109,102.0
10513,G3,681.74,271/500,67,102.0
10514,A3,681.74,271/500,67,102.0
10515,E4,681.74,271/500,67,102.0
10516,C4,681.74,271/500,67,102.0
10517,E-3,681.74,13/250,68,102.0
10518,B-4,681.74,13/250,68,102.0
10519,F#2,681.74,13/250,68,102.0
10520,B1,681.74,13/250,68,102.0
10521,B-4,681.979,0.062,39,102.0
10522,F#2,681.979,0.062,39,102.0
10523,F#2,682.229,0.062,44,102.0
10524,B-4,682.229,0.062,44,102.0
10525,B-2,682.479,0.062,82,102.0
10526,B-4,682.479,0.062,82,102.0
10527,B1,682.479,0.062,82,102.0
10528,D2,682.479,0.062,82,102.0
10529,A2,682.479,0.062,82,102.0
10530,A4,682.479,0.156,68,102.0
10531,E4,682.479,0.156,68,102.0
10532,A1,682.49,73/200,88,102.0
10533,A3,682.49,73/200,88,102.0
10534,A3,682.51,177/500,85,102.0
10535,F#2,682.729,0.062,67,102.0
