,note_name,start_time,duration,velocity,tempo
0,C#3,7.992,1/125,92,188.0
1,B1,8.0,0.25,70,188.0
2,C#2,8.0,0.25,94,188.0
3,F#2,8.0,0.25,72,188.0
4,C#3,8.0,121/500,92,188.0
5,F#2,8.5,0.25,52,188.0
6,F#2,9.0,0.25,72,188.0
7,B1,9.5,0.25,70,188.0
8,C#2,9.5,0.25,94,188.0
9,F#2,9.5,0.25,52,188.0
10,B1,10.0,0.25,70,188.0
11,F#2,10.0,0.25,72,188.0
12,F#2,10.5,0.25,52,188.0
13,C#2,11.0,0.25,94,188.0
14,F#2,11.0,0.25,72,188.0
15,B1,11.5,0.25,70,188.0
16,F#2,11.5,0.25,52,188.0
17,B1,12.0,0.25,70,188.0
18,F#2,12.0,0.25,72,188.0
19,F#2,12.5,0.25,52,188.0
20,C#2,13.0,0.25,94,188.0
21,F#2,13.0,0.25,72,188.0
22,B1,13.5,0.25,70,188.0
23,F#2,13.5,0.25,52,188.0
24,B1,14.0,0.25,70,188.0
25,F#2,14.0,0.25,72,188.0
26,C#2,14.5,0.25,94,188.0
27,F#2,14.5,0.25,52,188.0
28,F#2,15.0,0.25,72,188.0
29,B1,15.5,0.25,70,188.0
30,C#2,15.5,0.25,94,188.0
31,F#2,15.5,0.25,52,188.0
32,B1,16.0,0.25,70,188.0
33,F#2,16.0,0.25,72,188.0
34,C#2,16.5,0.25,94,188.0
35,F#2,16.5,0.25,52,188.0
36,F#2,17.0,0.25,72,188.0
37,B1,17.5,0.25,70,188.0
38,F#2,17.5,0.25,52,188.0
39,B1,18.0,0.25,70,188.0
40,C#2,18.0,0.25,94,188.0
41,F#2,18.0,0.25,72,188.0
42,F#2,18.5,0.25,52,188.0
43,C#2,19.0,0.25,94,188.0
44,F#2,19.0,0.25,72,188.0
45,B1,19.5,0.25,70,188.0
46,F#2,19.5,0.25,52,188.0
47,B1,20.0,0.25,70,188.0
48,C#2,20.0,0.25,94,188.0
49,F#2,20.0,0.25,72,188.0
50,F#2,20.5,0.25,52,188.0
51,C#2,21.0,0.25,94,188.0
52,F#2,21.0,0.25,72,188.0
53,B1,21.5,0.25,70,188.0
54,F#2,21.5,0.25,52,188.0
55,B1,22.0,0.25,70,188.0
56,C#2,22.0,0.25,94,188.0
57,F#2,22.0,0.25,72,188.0
58,F#2,22.5,0.25,52,188.0
59,F#2,23.0,0.25,72,188.0
60,B1,23.5,0.25,70,188.0
61,C#2,23.5,0.25,94,188.0
62,F#2,23.5,0.25,52,188.0
63,B1,24.0,0.25,70,188.0
64,F#2,24.0,0.25,72,188.0
65,C#2,24.5,0.25,94,188.0
66,F#2,24.5,0.25,52,188.0
67,F#2,25.0,0.25,72,188.0
68,B1,25.5,0.25,70,188.0
69,F#2,25.5,0.25,52,188.0
70,B1,26.0,0.25,70,188.0
71,C#2,26.0,0.25,94,188.0
72,F#2,26.0,0.25,72,188.0
73,F#2,26.5,0.25,52,188.0
74,F#2,27.0,0.25,72,188.0
75,B1,27.5,0.25,70,188.0
76,C#2,27.5,0.25,94,188.0
77,F#2,27.5,0.25,52,188.0
78,B1,28.0,0.25,70,188.0
79,F#2,28.0,0.25,72,188.0
80,C#2,28.5,0.25,94,188.0
81,F#2,28.5,0.25,52,188.0
82,F#2,29.0,0.25,72,188.0
83,B1,29.5,0.25,70,188.0
84,F#2,29.5,0.25,52,188.0
85,B1,30.0,0.25,70,188.0
86,C#2,30.0,0.25,94,188.0
87,F#2,30.0,0.25,72,188.0
88,C#2,30.5,0.25,94,188.0
89,F#2,30.5,0.25,52,188.0
90,C#2,31.0,0.25,94,188.0
91,F#2,31.0,0.25,72,188.0
92,B1,31.5,0.25,70,188.0
93,F#2,31.5,0.25,52,188.0
94,B1,32.0,0.25,70,188.0
95,F#2,32.0,0.25,72,188.0
96,E2,32.5,0.25,86,188.0
97,F#2,32.5,0.25,52,188.0
98,F#2,33.0,0.25,72,188.0
99,B1,33.5,0.25,70,188.0
100,F#2,33.5,0.25,52,188.0
101,B1,34.0,0.25,70,188.0
102,F#2,34.0,0.25,72,188.0
103,C3,34.0,0.25,94,188.0
104,F#2,34.5,0.25,52,188.0
105,F#2,35.0,0.25,72,188.0
106,C3,35.0,0.25,94,188.0
107,B1,35.5,0.25,70,188.0
108,F#2,35.5,0.25,52,188.0
109,A2,35.5,0.25,94,188.0
110,B1,36.0,0.25,70,188.0
111,F#2,36.0,0.25,72,188.0
112,F#2,36.5,0.25,52,188.0
113,B2,36.5,0.25,94,188.0
114,F#2,37.0,0.25,72,188.0
115,B1,37.5,0.25,70,188.0
116,F#2,37.5,0.25,52,188.0
117,B1,38.0,0.25,70,188.0
118,F#2,38.0,0.25,72,188.0
119,C3,38.0,0.25,94,188.0
120,F#2,38.5,0.25,52,188.0
121,A2,38.5,0.25,94,188.0
122,G2,38.992,0.25,84,188.0
123,F2,38.992,0.25,84,188.0
124,B1,39.0,0.25,70,188.0
125,F#2,39.0,0.25,72,188.0
126,F#2,39.5,0.25,52,188.0
127,B2,39.983,17/1000,59,188.0
128,C#3,39.992,1/125,92,188.0
129,F#2,40.0,124/125,91,188.0
130,B3,40.0,9/20,101,188.0
131,B2,40.0,0.5,81,188.0
132,B2,40.0,433/1000,59,188.0
133,B1,40.0,0.25,70,188.0
134,F#2,40.0,0.25,72,188.0
135,C#3,40.0,121/500,92,188.0
136,F#4,40.0,2.0,105,188.0
137,E4,40.0,2.0,105,188.0
138,B3,40.0,2.0,105,188.0
139,G#3,40.0,2.0,105,188.0
140,B3,40.25,9/20,58,188.0
141,B3,40.375,9/20,59,188.0
142,B2,40.483,9/20,62,188.0
143,B3,40.5,9/20,104,188.0
144,B2,40.5,0.5,81,188.0
145,F3,40.5,0.25,56,188.0
146,B3,40.875,9/20,62,188.0
147,E1,40.967,79/500,86,188.0
148,E3,40.983,9/20,58,188.0
149,E4,41.0,9/20,100,188.0
150,E3,41.0,0.5,81,188.0
151,C#2,41.0,0.25,94,188.0
152,E-3,41.0,0.25,76,188.0
153,E4,41.375,9/20,58,188.0
154,G#3,41.483,9/20,62,188.0
155,B1,41.5,121/500,91,188.0
156,G#4,41.5,9/20,104,188.0
157,G#3,41.5,0.5,81,188.0
158,B1,41.5,0.25,70,188.0
159,E-3,41.5,0.25,56,188.0
160,G#4,41.875,9/20,62,188.0
161,F#3,41.983,9/20,61,188.0
162,B1,42.0,124/125,91,188.0
163,F#4,42.0,9/20,103,188.0
164,F#3,42.0,0.5,81,188.0
165,B1,42.0,0.25,70,188.0
166,E-3,42.0,0.25,76,188.0
167,F#3,42.0,2.0,105,188.0
168,E4,42.0,2.0,105,188.0
169,F#4,42.0,2.0,105,188.0
170,B3,42.0,2.0,105,188.0
171,F#4,42.375,9/20,61,188.0
172,E-3,42.5,0.25,56,188.0
173,B3,42.983,9/20,62,188.0
174,E1,42.992,79/500,86,188.0
175,B4,43.0,9/20,104,188.0
176,B3,43.0,0.5,81,188.0
177,C#2,43.0,0.25,94,188.0
178,E-3,43.0,0.25,76,188.0
179,B4,43.375,9/20,62,188.0
180,C#4,43.483,9/20,59,188.0
181,A1,43.5,121/500,91,188.0
182,C#5,43.5,9/20,101,188.0
183,C#4,43.5,0.5,81,188.0
184,B1,43.5,0.25,70,188.0
185,E-3,43.5,0.25,56,188.0
186,C#5,43.875,0.125,59,188.0
187,D4,43.983,17/1000,54,188.0
188,A1,44.0,124/125,91,188.0
189,D5,44.0,9/20,96,188.0
190,C#5,44.0,13/40,59,188.0
191,D4,44.0,0.5,81,188.0
192,D4,44.0,433/1000,54,188.0
193,B1,44.0,0.25,70,188.0
194,E-3,44.0,0.25,76,188.0
195,D5,44.375,9/20,54,188.0
196,B3,44.483,9/20,57,188.0
197,B4,44.5,9/20,99,188.0
198,B3,44.5,0.5,81,188.0
199,E-3,44.5,0.25,56,188.0
200,B3,44.5,0.5,105,188.0
201,F#3,44.5,0.5,105,188.0
202,D4,44.5,0.5,105,188.0
203,B4,44.875,9/20,57,188.0
204,E1,44.983,79/500,86,188.0
205,C#2,45.0,0.25,94,188.0
206,E-3,45.0,0.25,76,188.0
207,A1,45.5,121/500,91,188.0
208,B1,45.5,0.25,70,188.0
209,E-3,45.5,0.25,56,188.0
210,B3,45.5,0.5,105,188.0
211,F#3,45.5,0.5,105,188.0
212,D4,45.5,0.5,105,188.0
213,E2,46.0,124/125,91,188.0
214,B1,46.0,0.25,70,188.0
215,E-3,46.0,0.25,76,188.0
216,C#2,46.5,0.25,94,188.0
217,E-3,46.5,0.25,56,188.0
218,B3,46.5,1.5,105,188.0
219,F#3,46.5,1.5,105,188.0
220,D4,46.5,1.5,105,188.0
221,B3,46.983,9/20,55,188.0
222,A2,47.0,124/125,91,188.0
223,B4,47.0,9/20,97,188.0
224,B3,47.0,0.5,81,188.0
225,C#2,47.0,0.25,94,188.0
226,E-3,47.0,0.25,76,188.0
227,B4,47.375,9/20,55,188.0
228,A3,47.483,9/20,58,188.0
229,A4,47.5,9/20,100,188.0
230,A3,47.5,0.5,81,188.0
231,B1,47.5,0.25,70,188.0
232,E-3,47.5,0.25,56,188.0
233,A4,47.875,0.125,58,188.0
234,B3,47.983,17/1000,54,188.0
235,D2,48.0,124/125,91,188.0
236,B4,48.0,9/20,96,188.0
237,A4,48.0,13/40,58,188.0
238,B3,48.0,0.5,81,188.0
239,B3,48.0,433/1000,54,188.0
240,B1,48.0,0.25,70,188.0
241,E-3,48.0,0.25,76,188.0
242,C#4,48.0,2.0,105,188.0
243,A3,48.0,2.0,105,188.0
244,F#3,48.0,2.0,105,188.0
245,B4,48.375,9/20,54,188.0
246,C#4,48.483,9/20,57,188.0
247,C#5,48.5,9/20,99,188.0
248,C#4,48.5,0.5,81,188.0
249,E-3,48.5,0.25,56,188.0
250,C#5,48.875,9/20,57,188.0
251,A3,48.983,9/20,59,188.0
252,E1,48.992,79/500,86,188.0
253,A4,49.0,9/20,101,188.0
254,A3,49.0,0.5,81,188.0
255,C#2,49.0,0.25,94,188.0
256,E-3,49.0,0.25,76,188.0
257,A4,49.375,9/20,59,188.0
258,D2,49.5,121/500,91,188.0
259,B1,49.5,0.25,70,188.0
260,E-3,49.5,0.25,56,188.0
261,D4,49.983,9/20,60,188.0
262,G#2,50.0,124/125,91,188.0
263,D5,50.0,9/20,102,188.0
264,D4,50.0,0.5,81,188.0
265,B1,50.0,0.25,70,188.0
266,E-3,50.0,0.25,76,188.0
267,D4,50.0,2.0,105,188.0
268,E4,50.0,2.0,105,188.0
269,C4,50.0,2.0,105,188.0
270,G#3,50.0,2.0,105,188.0
271,D5,50.375,9/20,60,188.0
272,E-3,50.5,0.25,56,188.0
273,F#3,50.983,9/20,60,188.0
274,F#4,51.0,9/20,102,188.0
275,F#3,51.0,0.5,81,188.0
276,C#2,51.0,0.25,94,188.0
277,E-3,51.0,0.25,76,188.0
278,E1,51.008,79/500,86,188.0
279,F#4,51.375,9/20,60,188.0
280,E3,51.483,9/20,57,188.0
281,G#2,51.5,121/500,91,188.0
282,E4,51.5,9/20,99,188.0
283,E3,51.5,0.5,81,188.0
284,B1,51.5,0.25,70,188.0
285,E-3,51.5,0.25,56,188.0
286,E4,51.875,0.125,57,188.0
287,F#3,51.983,17/1000,60,188.0
288,G2,52.0,124/125,91,188.0
289,F#4,52.0,9/20,102,188.0
290,E4,52.0,13/40,57,188.0
291,F#3,52.0,0.5,81,188.0
292,F#3,52.0,433/1000,60,188.0
293,B1,52.0,0.25,70,188.0
294,E-3,52.0,0.25,76,188.0
295,B3,52.0,4.0,105,188.0
296,D4,52.0,4.0,105,188.0
297,F#4,52.0,4.0,105,188.0
298,G4,52.0,4.0,105,188.0
299,F#4,52.375,9/20,60,188.0
300,D3,52.483,9/20,62,188.0
301,D4,52.5,9/20,104,188.0
302,D3,52.5,0.5,81,188.0
303,C#2,52.5,0.25,94,188.0
304,E-3,52.5,0.25,56,188.0
305,D4,52.875,9/20,62,188.0
306,E1,52.992,79/500,86,188.0
307,E-3,53.0,0.25,76,188.0
308,D2,53.5,121/500,91,188.0
309,C#2,53.5,0.25,94,188.0
310,E-3,53.5,0.25,56,188.0
311,G2,54.0,124/125,91,188.0
312,B1,54.0,0.25,70,188.0
313,E-3,54.0,0.25,76,188.0
314,C#2,54.5,0.25,94,188.0
315,E-3,54.5,0.25,56,188.0
316,F#2,55.0,124/125,91,188.0
317,C#2,55.0,0.25,94,188.0
318,E-3,55.0,0.25,76,188.0
319,B1,55.5,0.25,70,188.0
320,E-3,55.5,0.25,56,188.0
321,B2,55.983,17/1000,57,188.0
322,E2,56.0,124/125,91,188.0
323,B3,56.0,9/20,99,188.0
324,B2,56.0,0.5,81,188.0
325,B2,56.0,433/1000,57,188.0
326,B1,56.0,0.25,70,188.0
327,E-3,56.0,0.25,76,188.0
328,G3,56.0,2.0,105,188.0
329,B3,56.0,2.0,105,188.0
330,E4,56.0,2.0,105,188.0
331,B3,56.375,9/20,57,188.0
332,B2,56.483,9/20,61,188.0
333,B3,56.5,9/20,103,188.0
334,B2,56.5,0.5,81,188.0
335,E-3,56.5,0.25,56,188.0
336,B3,56.875,9/20,61,188.0
337,E3,56.983,9/20,63,188.0
338,E1,56.992,79/500,86,188.0
339,E4,57.0,9/20,105,188.0
340,E3,57.0,0.5,81,188.0
341,C#2,57.0,0.25,94,188.0
342,E-3,57.0,0.25,76,188.0
343,E4,57.375,9/20,63,188.0
344,B2,57.483,9/20,55,188.0
345,E2,57.5,121/500,91,188.0
346,B3,57.5,9/20,97,188.0
347,B2,57.5,0.5,81,188.0
348,B1,57.5,0.25,70,188.0
349,E-3,57.5,0.25,56,188.0
350,B3,57.875,9/20,55,188.0
351,C#3,57.983,9/20,56,188.0
352,F#2,58.0,124/125,91,188.0
353,C#4,58.0,9/20,98,188.0
354,C#3,58.0,0.5,81,188.0
355,B1,58.0,0.25,70,188.0
356,E-3,58.0,0.25,76,188.0
357,E4,58.0,2.0,105,188.0
358,C#4,58.0,2.0,105,188.0
359,A3,58.0,2.0,105,188.0
360,C#4,58.375,9/20,56,188.0
361,E3,58.483,9/20,56,188.0
362,E4,58.5,9/20,98,188.0
363,E3,58.5,0.5,81,188.0
364,E-3,58.5,0.25,56,188.0
365,E4,58.875,9/20,56,188.0
366,A3,58.983,9/20,62,188.0
367,E1,58.992,79/500,86,188.0
368,A4,59.0,9/20,104,188.0
369,A3,59.0,0.5,81,188.0
370,C#2,59.0,0.25,94,188.0
371,E-3,59.0,0.25,76,188.0
372,A4,59.375,9/20,62,188.0
373,B3,59.483,517/1000,63,188.0
374,F#2,59.5,121/500,91,188.0
375,B4,59.5,0.5,105,188.0
376,B3,59.5,0.5,81,188.0
377,B1,59.5,0.25,70,188.0
378,E-3,59.5,0.25,56,188.0
379,B3,59.5,0.5,105,188.0
380,D4,59.5,0.5,105,188.0
381,F#4,59.5,0.5,105,188.0
382,B4,59.875,0.125,63,188.0
383,B2,60.0,124/125,91,188.0
384,B4,60.0,19/20,105,188.0
385,B4,60.0,53/40,63,188.0
386,B3,60.0,1.0,81,188.0
387,B3,60.0,933/1000,63,188.0
388,B1,60.0,0.25,70,188.0
389,E-3,60.0,0.25,76,188.0
390,B3,60.0,2.0,105,188.0
391,D4,60.0,2.0,105,188.0
392,F#4,60.0,2.0,105,188.0
393,E-3,60.5,0.25,56,188.0
394,E1,60.983,79/500,86,188.0
395,A3,60.983,9/20,57,188.0
396,A4,61.0,9/20,99,188.0
397,A3,61.0,0.5,81,188.0
398,C#2,61.0,0.25,94,188.0
399,E-3,61.0,0.25,76,188.0
400,A4,61.375,9/20,57,188.0
401,B3,61.483,9/20,56,188.0
402,B4,61.5,9/20,98,188.0
403,B3,61.5,0.5,81,188.0
404,B1,61.5,0.25,70,188.0
405,E-3,61.5,0.25,56,188.0
406,B4,61.875,9/20,56,188.0
407,C4,61.983,19/20,54,188.0
408,A2,62.0,124/125,91,188.0
409,C5,62.0,19/20,96,188.0
410,C4,62.0,1.0,81,188.0
411,B1,62.0,0.25,70,188.0
412,E-3,62.0,0.25,76,188.0
413,C4,62.0,2.0,105,188.0
414,E4,62.0,2.0,105,188.0
415,G3,62.0,2.0,105,188.0
416,C5,62.375,19/20,54,188.0
417,E-3,62.5,0.25,56,188.0
418,D4,62.983,9/20,54,188.0
419,E1,63.0,79/500,86,188.0
420,D5,63.0,9/20,96,188.0
421,D4,63.0,0.5,81,188.0
422,C#2,63.0,0.25,94,188.0
423,E-3,63.0,0.25,76,188.0
424,D5,63.375,9/20,54,188.0
425,B3,63.483,517/1000,54,188.0
426,D3,63.5,0.5,91,188.0
427,B4,63.5,0.5,96,188.0
428,B3,63.5,0.5,81,188.0
429,B1,63.5,0.25,70,188.0
430,E-3,63.5,0.25,56,188.0
431,C4,63.5,0.5,105,188.0
432,F#3,63.5,0.5,105,188.0
433,E4,63.5,0.5,105,188.0
434,B4,63.875,0.125,54,188.0
435,D3,64.0,123/250,91,188.0
436,B4,64.0,9/20,96,188.0
437,B4,64.0,33/40,54,188.0
438,B3,64.0,0.5,81,188.0
439,B3,64.0,433/1000,54,188.0
440,E-3,64.0,0.25,76,188.0
441,E1,64.492,79/500,86,188.0
442,C#2,64.5,0.25,94,188.0
443,E-3,64.5,0.25,56,188.0
444,B-3,64.983,9/20,63,188.0
445,B-2,65.0,124/125,91,188.0
446,B-4,65.0,9/20,105,188.0
447,B-3,65.0,0.5,81,188.0
448,B1,65.0,0.25,70,188.0
449,F3,65.0,0.25,76,188.0
450,B-3,65.0,1.5,105,188.0
451,F#3,65.0,1.5,105,188.0
452,E-4,65.0,1.5,105,188.0
453,B-4,65.375,9/20,63,188.0
454,C#4,65.483,9/20,56,188.0
455,C#5,65.5,9/20,98,188.0
456,C#4,65.5,0.5,81,188.0
457,E-3,65.5,0.25,56,188.0
458,C#5,65.875,9/20,56,188.0
459,B3,65.983,9/20,60,188.0
460,E1,66.0,79/500,86,188.0
461,B4,66.0,9/20,102,188.0
462,B3,66.0,0.5,81,188.0
463,C#2,66.0,0.25,94,188.0
464,E-3,66.0,0.25,76,188.0
465,B4,66.375,9/20,60,188.0
466,G#3,66.483,9/20,61,188.0
467,C#2,66.5,124/125,91,188.0
468,G#4,66.5,9/20,103,188.0
469,G#3,66.5,0.5,81,188.0
470,B1,66.5,0.25,70,188.0
471,F3,66.5,0.25,56,188.0
472,B-3,66.5,0.5,105,188.0
473,E-4,66.5,0.5,105,188.0
474,F3,66.5,0.5,105,188.0
475,G#4,66.875,9/20,61,188.0
476,E-3,67.0,0.25,76,188.0
477,C#3,67.483,9/20,56,188.0
478,E1,67.5,79/500,86,188.0
479,C#4,67.5,9/20,98,188.0
480,C#3,67.5,0.5,81,188.0
481,E-3,67.5,0.25,56,188.0
482,C#4,67.875,0.125,56,188.0
483,A3,67.983,17/1000,58,188.0
484,G3,67.992,1/125,72,188.0
485,F#2,68.0,124/125,91,188.0
486,C#4,68.0,0.25,105,188.0
487,A4,68.0,67/1000,100,188.0
488,C#4,68.0,13/40,56,188.0
489,A3,68.0,117/1000,81,188.0
490,A3,68.0,1/20,58,188.0
491,B1,68.0,0.25,70,188.0
492,G3,68.0,121/500,72,188.0
493,F4,68.0,4.0,105,188.0
494,B-3,68.0,4.0,105,188.0
495,F#3,68.0,4.0,105,188.0
496,B-3,68.108,83/40,63,188.0
497,B-4,68.125,83/40,105,188.0
498,B-3,68.125,2.125,71,188.0
499,A4,68.375,67/1000,58,188.0
500,C#4,68.5,2.5,105,188.0
501,B-4,68.5,83/40,63,188.0
502,E-3,68.5,0.25,56,188.0
503,E1,69.0,79/500,86,188.0
504,D4,69.0,2.5,105,188.0
505,C#2,69.0,0.25,94,188.0
506,E-3,69.0,0.25,76,188.0
507,C#2,69.5,121/500,91,188.0
508,E-4,69.5,2.5,105,188.0
509,B1,69.5,0.25,70,188.0
510,E-3,69.5,0.25,56,188.0
511,F#2,70.0,373/250,91,188.0
512,B1,70.0,0.25,70,188.0
513,E-3,70.0,0.25,76,188.0
514,C#2,70.5,0.25,94,188.0
515,E-3,70.5,0.25,56,188.0
516,B3,70.983,9/20,49,188.0
517,B4,71.0,9/20,91,188.0
518,B3,71.0,0.5,81,188.0
519,E-3,71.0,0.25,76,188.0
520,B4,71.375,9/20,49,188.0
521,B-3,71.483,9/20,54,188.0
522,E-1,71.5,79/500,86,188.0
523,B-4,71.5,9/20,96,188.0
524,B-3,71.5,0.5,81,188.0
525,B1,71.5,0.25,70,188.0
526,E-3,71.5,0.25,56,188.0
527,B-4,71.875,0.125,54,188.0
528,B-3,71.983,17/1000,57,188.0
529,F2,72.0,124/125,91,188.0
530,B-4,72.0,9/20,99,188.0
531,B-4,72.0,13/40,54,188.0
532,B-3,72.0,0.5,81,188.0
533,B-3,72.0,433/1000,57,188.0
534,B1,72.0,0.25,70,188.0
535,E-3,72.0,0.25,76,188.0
536,B-4,72.0,2.0,105,188.0
537,B3,72.0,2.0,105,188.0
538,E-4,72.0,2.0,105,188.0
539,F4,72.0,2.0,105,188.0
540,B-4,72.375,9/20,57,188.0
541,G#3,72.483,9/20,53,188.0
542,G#4,72.5,9/20,95,188.0
543,G#3,72.5,0.5,81,188.0
544,E-3,72.5,0.25,56,188.0
545,G#4,72.875,9/20,53,188.0
546,G3,72.983,9/20,51,188.0
547,E1,73.0,79/500,86,188.0
548,G4,73.0,9/20,93,188.0
549,G3,73.0,0.5,81,188.0
550,C#2,73.0,0.25,94,188.0
551,E-3,73.0,0.25,76,188.0
552,G4,73.375,9/20,51,188.0
553,G#3,73.483,9/20,60,188.0
554,F2,73.5,121/500,91,188.0
555,G#4,73.5,9/20,102,188.0
556,G#3,73.5,0.5,81,188.0
557,B1,73.5,0.25,70,188.0
558,E-3,73.5,0.25,56,188.0
559,G#4,73.875,9/20,60,188.0
560,B3,73.983,19/20,63,188.0
561,B-1,74.0,124/125,91,188.0
562,B4,74.0,19/20,105,188.0
563,B3,74.0,1.0,81,188.0
564,B1,74.0,0.25,70,188.0
565,E-3,74.0,0.25,76,188.0
566,G#4,74.0,2.0,105,188.0
567,B3,74.0,2.0,105,188.0
568,F#4,74.0,2.0,105,188.0
569,D4,74.0,2.0,105,188.0
570,B4,74.375,19/20,63,188.0
571,E-3,74.5,0.25,56,188.0
572,B-3,74.983,9/20,53,188.0
573,E1,75.0,79/500,86,188.0
574,B-4,75.0,9/20,95,188.0
575,B-3,75.0,0.5,81,188.0
576,C#2,75.0,0.25,94,188.0
577,E-3,75.0,0.25,76,188.0
578,B-4,75.375,9/20,53,188.0
579,F#3,75.483,517/1000,58,188.0
580,B-1,75.5,121/500,91,188.0
581,F#3,75.5,0.5,105,188.0
582,F#4,75.5,0.5,100,188.0
583,F#3,75.5,0.5,81,188.0
584,B1,75.5,0.25,70,188.0
585,E-3,75.5,0.25,56,188.0
586,F#4,75.875,0.125,58,188.0
587,E-2,76.0,124/125,91,188.0
588,F#3,76.0,4.0,105,188.0
589,F#4,76.0,9/20,100,188.0
590,F#4,76.0,33/40,58,188.0
591,F#3,76.0,0.5,81,188.0
592,F#3,76.0,433/1000,58,188.0
593,B1,76.0,0.25,70,188.0
594,E-3,76.0,0.25,76,188.0
595,C#4,76.0,2.0,105,188.0
596,F#4,76.0,2.0,105,188.0
597,B-3,76.0,2.0,105,188.0
598,G#3,76.483,19/20,49,188.0
599,G#4,76.5,19/20,91,188.0
600,G#3,76.5,1.0,81,188.0
601,E-3,76.5,0.25,56,188.0
602,G#4,76.875,19/20,49,188.0
603,E1,77.0,79/500,86,188.0
604,C#2,77.0,0.25,94,188.0
605,E-3,77.0,0.25,76,188.0
606,E-3,77.483,9/20,56,188.0
607,E-2,77.5,121/500,91,188.0
608,E-4,77.5,9/20,98,188.0
609,E-3,77.5,0.5,81,188.0
610,B1,77.5,0.25,70,188.0
611,E-3,77.5,0.25,56,188.0
612,E-4,77.875,9/20,56,188.0
613,G#2,78.0,124/125,91,188.0
614,B1,78.0,0.25,70,188.0
615,E-3,78.0,0.25,76,188.0
616,G#4,78.0,2.0,105,188.0
617,E-4,78.0,2.0,105,188.0
618,C4,78.0,2.0,105,188.0
619,C#2,78.5,0.25,94,188.0
620,E-3,78.5,0.25,56,188.0
621,B3,78.983,9/20,63,188.0
622,E-1,79.0,79/500,86,188.0
623,B4,79.0,9/20,105,188.0
624,B3,79.0,0.5,81,188.0
625,C#2,79.0,0.25,94,188.0
626,E-3,79.0,0.25,76,188.0
627,B4,79.375,9/20,63,188.0
628,B-3,79.483,9/20,62,188.0
629,G#2,79.5,121/500,91,188.0
630,B-4,79.5,9/20,104,188.0
631,B-3,79.5,0.5,81,188.0
632,B1,79.5,0.25,70,188.0
633,E-3,79.5,0.25,56,188.0
634,B-4,79.875,0.125,62,188.0
635,B-3,79.983,17/1000,52,188.0
636,G#2,80.0,124/125,91,188.0
637,B-4,80.0,9/20,94,188.0
638,B-4,80.0,13/40,62,188.0
639,B-3,80.0,0.5,81,188.0
640,B-3,80.0,433/1000,52,188.0
641,B1,80.0,0.25,70,188.0
642,E-3,80.0,0.25,76,188.0
643,B-4,80.375,9/20,52,188.0
644,G#3,80.483,9/20,49,188.0
645,G#4,80.5,9/20,91,188.0
646,G#3,80.5,0.5,81,188.0
647,E-3,80.5,0.25,56,188.0
648,B3,80.5,1.5,105,188.0
649,E-4,80.5,1.5,105,188.0
650,G#4,80.5,1.5,105,188.0
651,G#4,80.875,9/20,49,188.0
652,G3,80.983,9/20,58,188.0
653,E1,81.0,79/500,86,188.0
654,G4,81.0,9/20,100,188.0
655,G3,81.0,0.5,81,188.0
656,C#2,81.0,0.25,94,188.0
657,E-3,81.0,0.25,76,188.0
658,G4,81.375,9/20,58,188.0
659,G#3,81.483,9/20,62,188.0
660,G#2,81.5,121/500,91,188.0
661,G#4,81.5,9/20,104,188.0
662,G#3,81.5,0.5,81,188.0
663,B1,81.5,0.25,70,188.0
664,E-3,81.5,0.25,56,188.0
665,G#4,81.875,9/20,62,188.0
666,B3,81.983,19/20,57,188.0
667,C#2,82.0,124/125,91,188.0
668,B4,82.0,19/20,99,188.0
669,B3,82.0,1.0,81,188.0
670,B1,82.0,0.25,70,188.0
671,E-3,82.0,0.25,76,188.0
672,F#4,82.0,2.0,105,188.0
673,C#4,82.0,2.0,105,188.0
674,G#3,82.0,2.0,105,188.0
675,B4,82.375,19/20,57,188.0
676,E-3,82.5,0.25,56,188.0
677,B-3,82.983,9/20,50,188.0
678,E1,83.0,79/500,86,188.0
679,B-4,83.0,9/20,92,188.0
680,B-3,83.0,0.5,81,188.0
681,C#2,83.0,0.25,94,188.0
682,E-3,83.0,0.25,76,188.0
683,B-4,83.375,9/20,50,188.0
684,C#4,83.483,517/1000,55,188.0
685,C#2,83.5,121/500,91,188.0
686,C#5,83.5,0.5,97,188.0
687,C#4,83.5,0.5,81,188.0
688,B1,83.5,0.25,70,188.0
689,E-3,83.5,0.25,56,188.0
690,C#5,83.875,0.125,55,188.0
691,F#2,84.0,124/125,91,188.0
692,C#5,84.0,9/20,97,188.0
693,C#5,84.0,33/40,55,188.0
694,C#4,84.0,0.5,81,188.0
695,C#4,84.0,433/1000,55,188.0
696,B1,84.0,0.25,70,188.0
697,E-3,84.0,0.25,76,188.0
698,F4,84.0,2.0,105,188.0
699,G#4,84.0,2.0,105,188.0
700,C#4,84.0,2.0,105,188.0
701,F#3,84.483,9/20,56,188.0
702,F#4,84.5,9/20,98,188.0
703,F#3,84.5,0.5,81,188.0
704,C#2,84.5,0.25,94,188.0
705,E-3,84.5,0.25,56,188.0
706,F#4,84.875,9/20,56,188.0
707,B-3,84.983,9/20,54,188.0
708,E1,85.0,79/500,86,188.0
709,B-4,85.0,9/20,96,188.0
710,B-3,85.0,0.5,81,188.0
711,E-3,85.0,0.25,76,188.0
712,B-4,85.375,9/20,54,188.0
713,D4,85.483,19/20,57,188.0
714,F#2,85.5,121/500,91,188.0
715,D5,85.5,19/20,99,188.0
716,D4,85.5,1.0,81,188.0
717,C#2,85.5,0.25,94,188.0
718,E-3,85.5,0.25,56,188.0
719,D5,85.875,19/20,57,188.0
720,C2,86.0,124/125,91,188.0
721,B1,86.0,0.25,70,188.0
722,E-3,86.0,0.25,76,188.0
723,E4,86.0,2.0,105,188.0
724,C#4,86.0,2.0,105,188.0
725,B-4,86.0,2.0,105,188.0
726,F#3,86.483,9/20,60,188.0
727,F#4,86.5,9/20,102,188.0
728,F#3,86.5,0.5,81,188.0
729,C#2,86.5,0.25,94,188.0
730,E-3,86.5,0.25,56,188.0
731,F#4,86.875,9/20,60,188.0
732,B-3,86.983,9/20,55,188.0
733,E1,87.0,79/500,86,188.0
734,B-4,87.0,9/20,97,188.0
735,B-3,87.0,0.5,81,188.0
736,C#2,87.0,0.25,94,188.0
737,E-3,87.0,0.25,76,188.0
738,B-4,87.375,9/20,55,188.0
739,C2,87.5,121/500,91,188.0
740,B1,87.5,0.25,70,188.0
741,E-3,87.5,0.25,56,188.0
742,E-4,87.983,17/1000,53,188.0
743,B1,88.0,124/125,91,188.0
744,E-5,88.0,29/20,95,188.0
745,E-4,88.0,1.5,81,188.0
746,E-4,88.0,1433/1000,53,188.0
747,B1,88.0,0.25,70,188.0
748,E-3,88.0,0.25,76,188.0
749,E-5,88.375,29/20,53,188.0
750,E-3,88.5,0.25,56,188.0
751,B-3,88.5,1.5,105,188.0
752,B3,88.5,1.5,105,188.0
753,E-4,88.5,1.5,105,188.0
754,E1,89.0,79/500,86,188.0
755,C#2,89.0,0.25,94,188.0
756,E-3,89.0,0.25,76,188.0
757,F4,89.483,19/20,48,188.0
758,B1,89.5,121/500,91,188.0
759,F5,89.5,19/20,90,188.0
760,F4,89.5,1.0,81,188.0
761,B1,89.5,0.25,70,188.0
762,E-3,89.5,0.25,56,188.0
763,F5,89.875,19/20,48,188.0
764,B-1,90.0,124/125,91,188.0
765,B1,90.0,0.25,70,188.0
766,E-3,90.0,0.25,76,188.0
767,C#4,90.483,9/20,58,188.0
768,C#5,90.5,9/20,100,188.0
769,C#4,90.5,0.5,81,188.0
770,E-3,90.5,0.25,56,188.0
771,G#3,90.5,1.5,105,188.0
772,B-3,90.5,1.5,105,188.0
773,C#4,90.5,1.5,105,188.0
774,F4,90.5,1.5,105,188.0
775,C#5,90.875,9/20,58,188.0
776,E1,91.0,79/500,86,188.0
777,C#2,91.0,0.25,94,188.0
778,E-3,91.0,0.25,76,188.0
779,F#4,91.483,517/1000,49,188.0
780,B-1,91.5,121/500,91,188.0
781,F#5,91.5,0.5,91,188.0
782,F#4,91.5,0.5,81,188.0
783,B1,91.5,0.25,70,188.0
784,E-3,91.5,0.25,56,188.0
785,F#5,91.875,0.125,49,188.0
786,G#1,92.0,124/125,91,188.0
787,F#5,92.0,9/20,91,188.0
788,F#5,92.0,33/40,49,188.0
789,F#4,92.0,0.5,81,188.0
790,F#4,92.0,433/1000,49,188.0
791,B1,92.0,0.25,70,188.0
792,E-3,92.0,0.25,76,188.0
793,F#4,92.483,9/20,62,188.0
794,F#4,92.5,3.0,105,188.0
795,F#5,92.5,9/20,104,188.0
796,F#4,92.5,0.5,81,188.0
797,E-3,92.5,0.25,56,188.0
798,E-4,92.5,3.5,105,188.0
799,B-3,92.5,3.5,105,188.0
800,C#4,92.5,3.5,105,188.0
801,F#5,92.875,9/20,62,188.0
802,C#4,92.983,9/20,53,188.0
803,E1,93.0,79/500,86,188.0
804,C#5,93.0,9/20,95,188.0
805,C#4,93.0,0.5,81,188.0
806,C#2,93.0,0.25,94,188.0
807,E-3,93.0,0.25,76,188.0
808,C#5,93.375,9/20,53,188.0
809,B-3,93.483,9/20,53,188.0
810,G#1,93.5,121/500,91,188.0
811,B-4,93.5,9/20,95,188.0
812,B-3,93.5,0.5,81,188.0
813,B1,93.5,0.25,70,188.0
814,E-3,93.5,0.25,56,188.0
815,B-4,93.875,9/20,53,188.0
816,A3,93.983,67/1000,53,188.0
817,C#2,94.0,124/125,91,188.0
818,A4,94.0,67/1000,95,188.0
819,A3,94.0,117/1000,71,188.0
820,B1,94.0,0.25,70,188.0
821,E-3,94.0,0.25,76,188.0
822,G#3,94.108,33/40,52,188.0
823,G#4,94.125,33/40,94,188.0
824,G#3,94.125,0.875,81,188.0
825,A4,94.375,67/1000,53,188.0
826,E4,94.5,0.5,105,188.0
827,G#4,94.5,33/40,52,188.0
828,C#2,94.5,0.25,94,188.0
829,E-3,94.5,0.25,56,188.0
830,F#3,94.983,9/20,52,188.0
831,E1,95.0,79/500,86,188.0
832,F#4,95.0,1.0,105,188.0
833,F#4,95.0,9/20,94,188.0
834,F#3,95.0,0.5,81,188.0
835,C#2,95.0,0.25,94,188.0
836,E-3,95.0,0.25,76,188.0
837,F#4,95.375,9/20,52,188.0
838,E-4,95.483,517/1000,57,188.0
839,G#1,95.5,121/500,91,188.0
840,F#4,95.5,0.5,105,188.0
841,E-5,95.5,0.5,99,188.0
842,E-4,95.5,0.5,81,188.0
843,B1,95.5,0.25,70,188.0
844,E-3,95.5,0.25,56,188.0
845,E-5,95.875,0.125,57,188.0
846,C2,96.0,124/125,91,188.0
847,E-5,96.0,79/20,99,188.0
848,E-5,96.0,4.0,57,188.0
849,E-4,96.0,4.0,81,188.0
850,E-4,96.0,3933/1000,57,188.0
851,B1,96.0,0.25,70,188.0
852,E-3,96.0,0.25,76,188.0
853,F#3,96.0,4.0,105,188.0
854,B-3,96.0,4.0,105,188.0
855,F#4,96.5,2.5,105,188.0
856,E-3,96.5,0.25,56,188.0
857,E1,97.0,79/500,86,188.0
858,E-4,97.0,2.5,105,188.0
859,C#2,97.0,0.25,94,188.0
860,E-3,97.0,0.25,76,188.0
861,C2,97.5,121/500,91,188.0
862,B-4,97.5,2.5,105,188.0
863,B1,97.5,0.25,70,188.0
864,E-3,97.5,0.25,56,188.0
865,C2,98.0,124/125,91,188.0
866,B1,98.0,0.25,70,188.0
867,E-3,98.0,0.25,76,188.0
868,F#4,98.5,1.5,105,188.0
869,E-3,98.5,0.25,56,188.0
870,E1,99.0,79/500,86,188.0
871,E-4,99.0,1.0,105,188.0
872,C#2,99.0,0.25,94,188.0
873,E-3,99.0,0.25,76,188.0
874,C2,99.5,121/500,91,188.0
875,G#4,99.5,0.5,105,188.0
876,B1,99.5,0.25,70,188.0
877,E-3,99.5,0.25,56,188.0
878,B1,100.0,371/500,91,188.0
879,E-4,100.0,0.5,105,188.0
880,G#4,100.0,0.5,105,188.0
881,F#4,100.0,1.0,105,188.0
882,E-5,100.0,13/40,57,188.0
883,B1,100.0,0.25,70,188.0
884,E-3,100.0,0.25,76,188.0
885,B3,100.5,3.5,105,188.0
886,C#2,100.5,0.25,94,188.0
887,E-3,100.5,0.25,56,188.0
888,B1,101.0,373/250,91,188.0
889,E-3,101.0,0.25,76,188.0
890,G#4,101.0,3.0,105,188.0
891,C#4,101.0,3.0,105,188.0
892,F4,101.0,3.0,105,188.0
893,C#2,101.5,0.25,94,188.0
894,E-3,101.5,0.25,56,188.0
895,F#4,101.983,9/20,60,188.0
896,F#5,102.0,9/20,102,188.0
897,F#4,102.0,0.5,81,188.0
898,B1,102.0,0.25,70,188.0
899,E-3,102.0,0.25,76,188.0
900,F#5,102.375,9/20,60,188.0
901,F#4,102.483,9/20,54,188.0
902,E1,102.5,79/500,86,188.0
903,B-5,102.5,1.5,95,188.0
904,F#5,102.5,9/20,96,188.0
905,F#4,102.5,0.5,81,188.0
906,C#2,102.5,0.25,94,188.0
907,E-3,102.5,0.25,56,188.0
908,F#5,102.875,9/20,54,188.0
909,F4,102.983,9/20,62,188.0
910,B1,103.0,9/20,91,188.0
911,G#5,103.0,1.0,95,188.0
912,F5,103.0,9/20,104,188.0
913,F4,103.0,0.5,81,188.0
914,C#2,103.0,0.25,94,188.0
915,E-3,103.0,0.25,76,188.0
916,F5,103.375,9/20,62,188.0
917,E-4,103.483,9/20,63,188.0
918,B1,103.5,121/500,96,188.0
919,F#5,103.5,0.5,95,188.0
920,E-5,103.5,9/20,105,188.0
921,E-4,103.5,0.5,81,188.0
922,B1,103.5,0.25,70,188.0
923,E-3,103.5,0.25,56,188.0
924,E-5,103.875,0.125,63,188.0
925,C#4,103.983,17/1000,48,188.0
926,F#1,104.0,124/125,91,188.0
927,G#5,104.0,0.5,95,188.0
928,F#5,104.0,1.0,95,188.0
929,C#5,104.0,29/20,90,188.0
930,E-5,104.0,13/40,63,188.0
931,C#4,104.0,1.5,81,188.0
932,C#4,104.0,1433/1000,48,188.0
933,B1,104.0,0.25,70,188.0
934,E-3,104.0,0.25,76,188.0
935,B-3,104.0,4.0,105,188.0
936,G#4,104.0,4.0,105,188.0
937,C#4,104.0,4.0,105,188.0
938,F4,104.0,4.0,105,188.0
939,F5,104.0,4.0,105,188.0
940,C#5,104.375,29/20,48,188.0
941,E-3,104.5,0.25,56,188.0
942,E1,105.0,79/500,86,188.0
943,C#2,105.0,0.25,94,188.0
944,E-3,105.0,0.25,76,188.0
945,C#4,105.483,2517/1000,51,188.0
946,F#2,105.5,121/500,91,188.0
947,C#5,105.5,2.5,93,188.0
948,C#4,105.5,2.5,81,188.0
949,B1,105.5,0.25,70,188.0
950,E-3,105.5,0.25,56,188.0
951,C#5,105.875,2.125,51,188.0
952,F#2,106.0,124/125,91,188.0
953,B1,106.0,0.25,70,188.0
954,E-3,106.0,0.25,76,188.0
955,A3,106.0,2.0,105,188.0
956,E4,106.0,2.0,105,188.0
957,E-3,106.5,0.25,56,188.0
958,E1,107.0,79/500,86,188.0
959,C#2,107.0,0.25,94,188.0
960,E-3,107.0,0.25,76,188.0
961,F#2,107.5,3/10,96,188.0
962,B1,107.5,0.25,70,188.0
963,E-3,107.5,0.25,56,188.0
964,F#1,108.0,124/125,91,188.0
965,C#5,108.0,4.0,93,188.0
966,C#5,108.0,4.0,51,188.0
967,C#4,108.0,4.0,81,188.0
968,C#4,108.0,4.0,51,188.0
969,B1,108.0,0.25,70,188.0
970,E-3,108.0,0.25,76,188.0
971,E-4,108.0,2.0,105,188.0
972,G#3,108.0,2.0,105,188.0
973,E-3,108.5,0.25,56,188.0
974,E1,109.0,79/500,86,188.0
975,C#2,109.0,0.25,94,188.0
976,E-3,109.0,0.25,76,188.0
977,F#2,109.5,121/500,91,188.0
978,E-5,109.5,0.5,105,188.0
979,B1,109.5,0.25,70,188.0
980,E-3,109.5,0.25,56,188.0
981,F#2,110.0,124/125,91,188.0
982,E5,110.0,0.5,105,188.0
983,B1,110.0,0.25,70,188.0
984,E-3,110.0,0.25,76,188.0
985,A3,110.0,2.0,105,188.0
986,E4,110.0,2.0,105,188.0
987,E-5,110.5,0.5,105,188.0
988,C#2,110.5,0.25,94,188.0
989,E-3,110.5,0.25,56,188.0
990,E1,111.0,79/500,86,188.0
991,C#5,111.0,0.5,105,188.0
992,C#2,111.0,0.25,94,188.0
993,E-3,111.0,0.25,76,188.0
994,F#1,111.5,121/500,91,188.0
995,F#4,111.5,0.5,105,188.0
996,B1,111.5,0.25,70,188.0
997,E-3,111.5,0.25,56,188.0
998,F#1,112.0,124/125,91,188.0
999,B-4,112.0,1.0,105,188.0
1000,C#5,112.0,4.0,93,188.0
1001,C#5,112.0,4.0,51,188.0
1002,C#4,112.0,4.0,81,188.0
1003,C#4,112.0,4.0,51,188.0
1004,B1,112.0,0.25,70,188.0
1005,E-3,112.0,0.25,76,188.0
1006,C#4,112.0,2.0,105,188.0
1007,B-3,112.0,2.0,105,188.0
1008,F4,112.0,2.0,105,188.0
1009,E-3,112.5,0.25,56,188.0
1010,E1,113.0,79/500,86,188.0
1011,C#5,113.0,0.5,105,188.0
1012,C#2,113.0,0.25,94,188.0
1013,E-3,113.0,0.25,76,188.0
1014,F#2,113.5,121/500,91,188.0
1015,G#4,113.5,1.0,105,188.0
1016,B1,113.5,0.25,70,188.0
1017,E-3,113.5,0.25,56,188.0
1018,F#2,114.0,124/125,91,188.0
1019,B1,114.0,0.25,70,188.0
1020,E-3,114.0,0.25,76,188.0
1021,C#4,114.0,2.0,105,188.0
1022,A3,114.0,2.0,105,188.0
1023,E4,114.0,2.0,105,188.0
1024,C#5,114.5,1.5,105,188.0
1025,E-3,114.5,0.25,56,188.0
1026,E1,115.0,79/500,86,188.0
1027,C#2,115.0,0.25,94,188.0
1028,E-3,115.0,0.25,76,188.0
1029,F#1,115.5,0.5,91,188.0
1030,F#4,115.5,0.5,105,188.0
1031,B1,115.5,0.25,70,188.0
1032,E-3,115.5,0.25,56,188.0
1033,F#1,116.0,124/125,91,188.0
1034,F#4,116.0,1.0,105,188.0
1035,C#5,116.0,283/1000,93,188.0
1036,C#5,116.0,329/500,51,188.0
1037,C#4,116.0,333/1000,81,188.0
1038,C#4,116.0,267/1000,51,188.0
1039,B1,116.0,0.25,70,188.0
1040,E-3,116.0,0.25,76,188.0
1041,G#3,116.0,2.0,105,188.0
1042,E-4,116.0,2.0,105,188.0
1043,C#2,116.5,0.25,94,188.0
1044,E-3,116.5,0.25,56,188.0
1045,E1,117.0,79/500,86,188.0
1046,E-3,117.0,0.25,76,188.0
1047,F#2,117.5,121/500,91,188.0
1048,C#4,117.5,0.5,105,188.0
1049,C#2,117.5,0.25,94,188.0
1050,E-3,117.5,0.25,56,188.0
1051,F#2,118.0,124/125,91,188.0
1052,B1,118.0,0.25,70,188.0
1053,E-3,118.0,0.25,76,188.0
1054,F#3,118.483,9/20,58,188.0
1055,E1,118.5,79/500,86,188.0
1056,F#4,118.5,9/20,100,188.0
1057,F#3,118.5,0.5,81,188.0
1058,C#2,118.5,0.25,94,188.0
1059,E-3,118.5,0.25,56,188.0
1060,B-3,118.5,1.5,105,188.0
1061,B-4,118.5,1.5,105,188.0
1062,E-4,118.5,1.5,105,188.0
1063,F#4,118.5,1.5,105,188.0
1064,F#4,118.875,9/20,58,188.0
1065,C#4,118.983,9/20,51,188.0
1066,F#2,119.0,2/5,86,188.0
1067,C#5,119.0,9/20,93,188.0
1068,C#4,119.0,0.5,81,188.0
1069,C#2,119.0,0.25,94,188.0
1070,E-3,119.0,0.25,76,188.0
1071,C#5,119.375,9/20,51,188.0
1072,B3,119.483,9/20,49,188.0
1073,F#2,119.5,2/5,86,188.0
1074,B4,119.5,9/20,91,188.0
1075,B3,119.5,0.5,81,188.0
1076,B1,119.5,0.25,70,188.0
1077,E-3,119.5,0.25,56,188.0
1078,B4,119.875,0.125,49,188.0
1079,B-3,119.983,17/1000,59,188.0
1080,E-2,120.0,124/125,91,188.0
1081,B-4,120.0,9/20,101,188.0
1082,B4,120.0,13/40,49,188.0
1083,B-3,120.0,0.5,81,188.0
1084,B-3,120.0,433/1000,59,188.0
1085,B1,120.0,0.25,70,188.0
1086,E-3,120.0,0.25,76,188.0
1087,E-4,120.0,2.0,105,188.0
1088,B-3,120.0,2.0,105,188.0
1089,F#4,120.0,2.0,105,188.0
1090,C#4,120.0,2.0,105,188.0
1091,B-4,120.375,9/20,59,188.0
1092,E-3,120.5,0.25,56,188.0
1093,B-3,120.983,9/20,63,188.0
1094,E1,121.0,79/500,86,188.0
1095,B-4,121.0,9/20,105,188.0
1096,B-3,121.0,0.5,81,188.0
1097,C#2,121.0,0.25,94,188.0
1098,E-3,121.0,0.25,76,188.0
1099,B-4,121.375,9/20,63,188.0
1100,E-4,121.483,9/20,53,188.0
1101,E-2,121.5,121/500,91,188.0
1102,E-5,121.5,9/20,95,188.0
1103,E-4,121.5,0.5,81,188.0
1104,B1,121.5,0.25,70,188.0
1105,E-3,121.5,0.25,56,188.0
1106,E-5,121.875,9/20,53,188.0
1107,B-3,121.983,9/20,59,188.0
1108,G#1,122.0,124/125,91,188.0
1109,B-4,122.0,9/20,101,188.0
1110,B-3,122.0,0.5,81,188.0
1111,B1,122.0,0.25,70,188.0
1112,E-3,122.0,0.25,76,188.0
1113,E-4,122.0,2.0,105,188.0
1114,G#3,122.0,2.0,105,188.0
1115,F#4,122.0,2.0,105,188.0
1116,C4,122.0,2.0,105,188.0
1117,B-4,122.375,9/20,59,188.0
1118,G#3,122.483,9/20,59,188.0
1119,G#4,122.5,9/20,101,188.0
1120,G#3,122.5,0.5,81,188.0
1121,E-3,122.5,0.25,56,188.0
1122,G#4,122.875,9/20,59,188.0
1123,F#3,122.983,9/20,59,188.0
1124,E1,123.0,79/500,86,188.0
1125,F#4,123.0,9/20,101,188.0
1126,F#3,123.0,0.5,81,188.0
1127,C#2,123.0,0.25,94,188.0
1128,E-3,123.0,0.25,76,188.0
1129,F#4,123.375,9/20,59,188.0
1130,B3,123.483,9/20,50,188.0
1131,G#1,123.5,121/500,91,188.0
1132,B4,123.5,9/20,92,188.0
1133,B3,123.5,0.5,81,188.0
1134,B1,123.5,0.25,70,188.0
1135,E-3,123.5,0.25,56,188.0
1136,B4,123.875,0.125,50,188.0
1137,B-3,123.983,17/1000,48,188.0
1138,G#1,124.0,124/125,91,188.0
1139,B-4,124.0,9/20,90,188.0
1140,B4,124.0,13/40,50,188.0
1141,B-3,124.0,0.5,81,188.0
1142,B-3,124.0,433/1000,48,188.0
1143,B1,124.0,0.25,70,188.0
1144,E-3,124.0,0.25,76,188.0
1145,B-4,124.375,9/20,48,188.0
1146,G#3,124.483,49/20,61,188.0
1147,G#4,124.5,49/20,103,188.0
1148,G#3,124.5,2.5,81,188.0
1149,E-3,124.5,0.25,56,188.0
1150,C4,124.5,0.5,105,188.0
1151,G#4,124.5,0.5,105,188.0
1152,E-4,124.5,0.5,105,188.0
1153,G#4,124.875,49/20,61,188.0
1154,E1,125.0,79/500,86,188.0
1155,C#2,125.0,0.25,94,188.0
1156,E-3,125.0,0.25,76,188.0
1157,G#1,125.5,121/500,91,188.0
1158,B1,125.5,0.25,70,188.0
1159,E-3,125.5,0.25,56,188.0
1160,D4,125.5,2.0,105,188.0
1161,B3,125.5,2.0,105,188.0
1162,G#4,125.5,2.0,105,188.0
1163,C#2,126.0,124/125,91,188.0
1164,B1,126.0,0.25,70,188.0
1165,E-3,126.0,0.25,76,188.0
1166,C#2,126.5,0.25,94,188.0
1167,E-3,126.5,0.25,56,188.0
1168,C#3,126.983,9/20,49,188.0
1169,E1,127.0,79/500,86,188.0
1170,C#4,127.0,9/20,91,188.0
1171,C#3,127.0,0.5,81,188.0
1172,C#2,127.0,0.25,94,188.0
1173,E-3,127.0,0.25,76,188.0
1174,C#4,127.375,9/20,49,188.0
1175,F#3,127.483,517/1000,48,188.0
1176,A3,127.492,0.25,92,188.0
1177,G1,127.5,0.5,91,188.0
1178,G4,127.5,0.5,105,188.0
1179,F#4,127.5,0.5,90,188.0
1180,F#3,127.5,0.5,81,188.0
1181,B1,127.5,0.25,70,188.0
1182,E-3,127.5,0.25,56,188.0
1183,C#5,127.5,0.5,105,188.0
1184,F4,127.5,0.5,105,188.0
1185,D4,127.5,0.5,105,188.0
1186,F#4,127.875,0.125,48,188.0
1187,G1,128.0,373/250,91,188.0
1188,G4,128.0,1.0,105,188.0
1189,F#4,128.0,79/20,90,188.0
1190,F#4,128.0,4.0,48,188.0
1191,F#3,128.0,4.0,81,188.0
1192,F#3,128.0,3933/1000,48,188.0
1193,B1,128.0,0.25,70,188.0
1194,E-3,128.0,0.25,76,188.0
1195,C#5,128.0,4.0,105,188.0
1196,F4,128.0,4.0,105,188.0
1197,D4,128.0,4.0,105,188.0
1198,G4,128.5,1.5,105,188.0
1199,E-3,128.5,0.25,56,188.0
1200,A4,129.0,0.5,105,188.0
1201,C#2,129.0,0.25,94,188.0
1202,E-3,129.0,0.25,76,188.0
1203,G1,129.5,121/500,91,188.0
1204,G4,129.5,1.5,105,188.0
1205,B1,129.5,0.25,70,188.0
1206,E-3,129.5,0.25,56,188.0
1207,G2,130.0,173/250,91,188.0
1208,F#4,130.0,0.5,105,188.0
1209,B1,130.0,0.25,70,188.0
1210,E-3,130.0,0.25,76,188.0
1211,G4,130.5,1.5,105,188.0
1212,E-3,130.5,0.25,56,188.0
1213,G2,131.0,124/125,86,188.0
1214,F#4,131.0,0.5,105,188.0
1215,C#2,131.0,0.25,94,188.0
1216,E-3,131.0,0.25,76,188.0
1217,G4,131.5,0.5,105,188.0
1218,B1,131.5,0.25,70,188.0
1219,E-3,131.5,0.25,56,188.0
1220,B2,131.983,17/1000,55,188.0
1221,C#3,131.992,1/125,82,188.0
1222,F#2,132.0,124/125,91,188.0
1223,B3,132.0,9/20,97,188.0
1224,F#4,132.0,13/40,48,188.0
1225,B2,132.0,0.5,81,188.0
1226,B2,132.0,433/1000,55,188.0
1227,B1,132.0,0.25,70,188.0
1228,F#2,132.0,0.25,72,188.0
1229,C#3,132.0,121/500,82,188.0
1230,F#4,132.0,2.0,105,188.0
1231,E4,132.0,2.0,105,188.0
1232,B3,132.0,2.0,105,188.0
1233,G#3,132.0,2.0,105,188.0
1234,B3,132.375,9/20,55,188.0
1235,B2,132.483,9/20,58,188.0
1236,B3,132.5,9/20,100,188.0
1237,B2,132.5,0.5,81,188.0
1238,F3,132.5,0.25,56,188.0
1239,B3,132.875,9/20,58,188.0
1240,E3,132.983,9/20,49,188.0
1241,E1,133.0,79/500,86,188.0
1242,E4,133.0,9/20,91,188.0
1243,E3,133.0,0.5,81,188.0
1244,C#2,133.0,0.25,94,188.0
1245,E-3,133.0,0.25,76,188.0
1246,E4,133.375,9/20,49,188.0
1247,G#3,133.483,9/20,51,188.0
1248,B1,133.5,121/500,91,188.0
1249,G#4,133.5,9/20,93,188.0
1250,G#3,133.5,0.5,81,188.0
1251,B1,133.5,0.25,70,188.0
1252,E-3,133.5,0.25,56,188.0
1253,G#4,133.875,9/20,51,188.0
1254,F#3,133.983,9/20,52,188.0
1255,B1,134.0,124/125,91,188.0
1256,F#4,134.0,9/20,94,188.0
1257,F#3,134.0,0.5,81,188.0
1258,B1,134.0,0.25,70,188.0
1259,E-3,134.0,0.25,76,188.0
1260,F#3,134.0,2.0,105,188.0
1261,E4,134.0,2.0,105,188.0
1262,F#4,134.0,2.0,105,188.0
1263,B3,134.0,2.0,105,188.0
1264,F#4,134.375,9/20,52,188.0
1265,E-3,134.5,0.25,56,188.0
1266,B3,134.983,9/20,51,188.0
1267,E1,135.0,79/500,86,188.0
1268,B4,135.0,9/20,93,188.0
1269,B3,135.0,0.5,81,188.0
1270,C#2,135.0,0.25,94,188.0
1271,E-3,135.0,0.25,76,188.0
1272,B4,135.375,9/20,51,188.0
1273,C#4,135.483,9/20,56,188.0
1274,A1,135.5,121/500,91,188.0
1275,C#5,135.5,9/20,98,188.0
1276,C#4,135.5,0.5,81,188.0
1277,B1,135.5,0.25,70,188.0
1278,E-3,135.5,0.25,56,188.0
1279,C#5,135.875,0.125,56,188.0
1280,D4,135.983,17/1000,50,188.0
1281,A1,136.0,124/125,91,188.0
1282,D5,136.0,9/20,92,188.0
1283,C#5,136.0,13/40,56,188.0
1284,D4,136.0,0.5,81,188.0
1285,D4,136.0,433/1000,50,188.0
1286,B1,136.0,0.25,70,188.0
1287,E-3,136.0,0.25,76,188.0
1288,D5,136.375,9/20,50,188.0
1289,B3,136.483,9/20,63,188.0
1290,B4,136.5,9/20,105,188.0
1291,B3,136.5,0.5,81,188.0
1292,E-3,136.5,0.25,56,188.0
1293,B3,136.5,0.5,105,188.0
1294,F#3,136.5,0.5,105,188.0
1295,D4,136.5,0.5,105,188.0
1296,B4,136.875,9/20,63,188.0
1297,E1,137.0,79/500,86,188.0
1298,C#2,137.0,0.25,94,188.0
1299,E-3,137.0,0.25,76,188.0
1300,A1,137.5,121/500,91,188.0
1301,B1,137.5,0.25,70,188.0
1302,E-3,137.5,0.25,56,188.0
1303,B3,137.5,0.5,105,188.0
1304,F#3,137.5,0.5,105,188.0
1305,D4,137.5,0.5,105,188.0
1306,E2,138.0,124/125,91,188.0
1307,B1,138.0,0.25,70,188.0
1308,E-3,138.0,0.25,76,188.0
1309,C#2,138.5,0.25,94,188.0
1310,E-3,138.5,0.25,56,188.0
1311,B3,138.5,1.5,105,188.0
1312,F#3,138.5,1.5,105,188.0
1313,D4,138.5,1.5,105,188.0
1314,B3,138.983,9/20,62,188.0
1315,A2,139.0,124/125,91,188.0
1316,B4,139.0,9/20,104,188.0
1317,B3,139.0,0.5,81,188.0
1318,C#2,139.0,0.25,94,188.0
1319,E-3,139.0,0.25,76,188.0
1320,B4,139.375,9/20,62,188.0
1321,A3,139.483,9/20,53,188.0
1322,A4,139.5,9/20,95,188.0
1323,A3,139.5,0.5,81,188.0
1324,B1,139.5,0.25,70,188.0
1325,E-3,139.5,0.25,56,188.0
1326,A4,139.875,0.125,53,188.0
1327,B3,139.983,17/1000,63,188.0
1328,D2,140.0,124/125,91,188.0
1329,B4,140.0,9/20,105,188.0
1330,A4,140.0,13/40,53,188.0
1331,B3,140.0,0.5,81,188.0
1332,B3,140.0,433/1000,63,188.0
1333,B1,140.0,0.25,70,188.0
1334,E-3,140.0,0.25,76,188.0
1335,C#4,140.0,2.0,105,188.0
1336,A3,140.0,2.0,105,188.0
1337,F#3,140.0,2.0,105,188.0
1338,B4,140.375,9/20,63,188.0
1339,C#4,140.483,9/20,63,188.0
1340,C#5,140.5,9/20,105,188.0
1341,C#4,140.5,0.5,81,188.0
1342,E-3,140.5,0.25,56,188.0
1343,C#5,140.875,9/20,63,188.0
1344,A3,140.983,9/20,58,188.0
1345,E1,141.0,79/500,86,188.0
1346,A4,141.0,9/20,100,188.0
1347,A3,141.0,0.5,81,188.0
1348,C#2,141.0,0.25,94,188.0
1349,E-3,141.0,0.25,76,188.0
1350,A4,141.375,9/20,58,188.0
1351,D2,141.5,121/500,91,188.0
1352,B1,141.5,0.25,70,188.0
1353,E-3,141.5,0.25,56,188.0
1354,D4,141.983,9/20,55,188.0
1355,G#2,142.0,124/125,91,188.0
1356,D5,142.0,9/20,97,188.0
1357,D4,142.0,0.5,81,188.0
1358,B1,142.0,0.25,70,188.0
1359,E-3,142.0,0.25,76,188.0
1360,D4,142.0,2.0,105,188.0
1361,E4,142.0,2.0,105,188.0
1362,C4,142.0,2.0,105,188.0
1363,G#3,142.0,2.0,105,188.0
1364,D5,142.375,9/20,55,188.0
1365,E-3,142.5,0.25,56,188.0
1366,F#3,142.983,9/20,48,188.0
1367,E1,143.0,79/500,86,188.0
1368,F#4,143.0,9/20,90,188.0
1369,F#3,143.0,0.5,81,188.0
1370,C#2,143.0,0.25,94,188.0
1371,E-3,143.0,0.25,76,188.0
1372,F#4,143.375,9/20,48,188.0
1373,E3,143.483,9/20,52,188.0
1374,G#2,143.5,121/500,91,188.0
1375,E4,143.5,9/20,94,188.0
1376,E3,143.5,0.5,81,188.0
1377,B1,143.5,0.25,70,188.0
1378,E-3,143.5,0.25,56,188.0
1379,E4,143.875,0.125,52,188.0
1380,F#3,143.983,17/1000,60,188.0
1381,G2,144.0,124/125,91,188.0
1382,F#4,144.0,9/20,102,188.0
1383,E4,144.0,13/40,52,188.0
1384,F#3,144.0,0.5,81,188.0
1385,F#3,144.0,433/1000,60,188.0
1386,B1,144.0,0.25,70,188.0
1387,E-3,144.0,0.25,76,188.0
1388,B3,144.0,4.0,105,188.0
1389,D4,144.0,4.0,105,188.0
1390,F#4,144.0,4.0,105,188.0
1391,G4,144.0,4.0,105,188.0
1392,F#4,144.375,9/20,60,188.0
1393,D3,144.483,9/20,51,188.0
1394,D4,144.5,9/20,93,188.0
1395,D3,144.5,0.5,81,188.0
1396,C#2,144.5,0.25,94,188.0
1397,E-3,144.5,0.25,56,188.0
1398,D4,144.875,9/20,51,188.0
1399,E1,145.0,79/500,86,188.0
1400,E-3,145.0,0.25,76,188.0
1401,D2,145.5,121/500,91,188.0
1402,C#2,145.5,0.25,94,188.0
1403,E-3,145.5,0.25,56,188.0
1404,G2,146.0,124/125,91,188.0
1405,B1,146.0,0.25,70,188.0
1406,E-3,146.0,0.25,76,188.0
1407,C#2,146.5,0.25,94,188.0
1408,E-3,146.5,0.25,56,188.0
1409,F#2,147.0,124/125,91,188.0
1410,C#2,147.0,0.25,94,188.0
1411,E-3,147.0,0.25,76,188.0
1412,B1,147.5,0.25,70,188.0
1413,E-3,147.5,0.25,56,188.0
1414,B2,147.983,17/1000,57,188.0
1415,E2,148.0,124/125,91,188.0
1416,B3,148.0,9/20,99,188.0
1417,B2,148.0,0.5,81,188.0
1418,B2,148.0,433/1000,57,188.0
1419,B1,148.0,0.25,70,188.0
1420,E-3,148.0,0.25,76,188.0
1421,G3,148.0,2.0,105,188.0
1422,B3,148.0,2.0,105,188.0
1423,E4,148.0,2.0,105,188.0
1424,B3,148.375,9/20,57,188.0
1425,B2,148.483,9/20,55,188.0
1426,B3,148.5,9/20,97,188.0
1427,B2,148.5,0.5,81,188.0
1428,E-3,148.5,0.25,56,188.0
1429,B3,148.875,9/20,55,188.0
1430,E3,148.983,9/20,58,188.0
1431,E1,149.0,79/500,86,188.0
1432,E4,149.0,9/20,100,188.0
1433,E3,149.0,0.5,81,188.0
1434,C#2,149.0,0.25,94,188.0
1435,E-3,149.0,0.25,76,188.0
1436,E4,149.375,9/20,58,188.0
1437,B2,149.483,9/20,61,188.0
1438,E2,149.5,121/500,91,188.0
1439,B3,149.5,9/20,103,188.0
1440,B2,149.5,0.5,81,188.0
1441,B1,149.5,0.25,70,188.0
1442,E-3,149.5,0.25,56,188.0
1443,B3,149.875,9/20,61,188.0
1444,C#3,149.983,9/20,59,188.0
1445,F#2,150.0,124/125,91,188.0
1446,C#4,150.0,9/20,101,188.0
1447,C#3,150.0,0.5,81,188.0
1448,B1,150.0,0.25,70,188.0
1449,E-3,150.0,0.25,76,188.0
1450,E4,150.0,2.0,105,188.0
1451,C#4,150.0,2.0,105,188.0
1452,A3,150.0,2.0,105,188.0
1453,C#4,150.375,9/20,59,188.0
1454,E3,150.483,9/20,54,188.0
1455,E4,150.5,9/20,96,188.0
1456,E3,150.5,0.5,81,188.0
1457,E-3,150.5,0.25,56,188.0
1458,E4,150.875,9/20,54,188.0
1459,A3,150.983,9/20,59,188.0
1460,E1,151.0,79/500,86,188.0
1461,A4,151.0,9/20,101,188.0
1462,A3,151.0,0.5,81,188.0
1463,C#2,151.0,0.25,94,188.0
1464,E-3,151.0,0.25,76,188.0
1465,A4,151.375,9/20,59,188.0
1466,B3,151.483,517/1000,62,188.0
1467,F#2,151.5,121/500,91,188.0
1468,B4,151.5,0.5,104,188.0
1469,B3,151.5,0.5,81,188.0
1470,B1,151.5,0.25,70,188.0
1471,E-3,151.5,0.25,56,188.0
1472,B3,151.5,0.5,105,188.0
1473,D4,151.5,0.5,105,188.0
1474,F#4,151.5,0.5,105,188.0
1475,B4,151.875,0.125,62,188.0
1476,B2,152.0,124/125,91,188.0
1477,B4,152.0,19/20,104,188.0
1478,B4,152.0,53/40,62,188.0
1479,B3,152.0,1.0,81,188.0
1480,B3,152.0,933/1000,62,188.0
1481,B1,152.0,0.25,70,188.0
1482,E-3,152.0,0.25,76,188.0
1483,B3,152.0,2.0,105,188.0
1484,D4,152.0,2.0,105,188.0
1485,F#4,152.0,2.0,105,188.0
1486,E-3,152.5,0.25,56,188.0
1487,A3,152.983,9/20,51,188.0
1488,E1,153.0,79/500,86,188.0
1489,A4,153.0,9/20,93,188.0
1490,A3,153.0,0.5,81,188.0
1491,C#2,153.0,0.25,94,188.0
1492,E-3,153.0,0.25,76,188.0
1493,A4,153.375,9/20,51,188.0
1494,B3,153.483,9/20,59,188.0
1495,B4,153.5,9/20,101,188.0
1496,B3,153.5,0.5,81,188.0
1497,B1,153.5,0.25,70,188.0
1498,E-3,153.5,0.25,56,188.0
1499,B4,153.875,9/20,59,188.0
1500,C4,153.983,19/20,53,188.0
1501,A2,154.0,124/125,91,188.0
1502,C5,154.0,19/20,95,188.0
1503,C4,154.0,1.0,81,188.0
1504,B1,154.0,0.25,70,188.0
1505,E-3,154.0,0.25,76,188.0
1506,C4,154.0,2.0,105,188.0
1507,E4,154.0,2.0,105,188.0
1508,G3,154.0,2.0,105,188.0
1509,C5,154.375,19/20,53,188.0
1510,E-3,154.5,0.25,56,188.0
1511,D4,154.983,9/20,49,188.0
1512,E1,155.0,79/500,86,188.0
1513,D5,155.0,9/20,91,188.0
1514,D4,155.0,0.5,81,188.0
1515,C#2,155.0,0.25,94,188.0
1516,E-3,155.0,0.25,76,188.0
1517,D5,155.375,9/20,49,188.0
1518,B3,155.483,517/1000,57,188.0
1519,D3,155.5,0.5,91,188.0
1520,B4,155.5,0.5,99,188.0
1521,B3,155.5,0.5,81,188.0
1522,B1,155.5,0.25,70,188.0
1523,E-3,155.5,0.25,56,188.0
1524,C4,155.5,0.5,105,188.0
1525,F#3,155.5,0.5,105,188.0
1526,E4,155.5,0.5,105,188.0
1527,B4,155.875,0.125,57,188.0
1528,D3,156.0,123/250,91,188.0
1529,B4,156.0,9/20,99,188.0
1530,B4,156.0,33/40,57,188.0
1531,B3,156.0,0.5,81,188.0
1532,B3,156.0,433/1000,57,188.0
1533,E-3,156.0,0.25,76,188.0
1534,E1,156.5,79/500,86,188.0
1535,C#2,156.5,0.25,94,188.0
1536,E-3,156.5,0.25,56,188.0
1537,B-3,156.983,9/20,59,188.0
1538,G3,156.992,0.25,72,188.0
1539,B-2,157.0,124/125,91,188.0
1540,B-4,157.0,9/20,101,188.0
1541,B-3,157.0,0.5,81,188.0
1542,B1,157.0,0.25,70,188.0
1543,B-3,157.0,1.5,105,188.0
1544,F#3,157.0,1.5,105,188.0
1545,E-4,157.0,1.5,105,188.0
1546,B-4,157.375,9/20,59,188.0
1547,C#4,157.483,9/20,50,188.0
1548,C#5,157.5,9/20,92,188.0
1549,C#4,157.5,0.5,81,188.0
1550,E-3,157.5,0.25,56,188.0
1551,C#5,157.875,9/20,50,188.0
1552,B3,157.983,9/20,61,188.0
1553,E1,158.0,79/500,86,188.0
1554,B4,158.0,9/20,103,188.0
1555,B3,158.0,0.5,81,188.0
1556,C#2,158.0,0.25,94,188.0
1557,E-3,158.0,0.25,76,188.0
1558,B4,158.375,9/20,61,188.0
1559,G#3,158.483,9/20,57,188.0
1560,G3,158.492,0.25,52,188.0
1561,C#2,158.5,124/125,91,188.0
1562,G#4,158.5,9/20,99,188.0
1563,G#3,158.5,0.5,81,188.0
1564,B1,158.5,0.25,70,188.0
1565,B-3,158.5,0.5,105,188.0
1566,E-4,158.5,0.5,105,188.0
1567,F3,158.5,0.5,105,188.0
1568,G#4,158.875,9/20,57,188.0
1569,E-3,159.0,0.25,76,188.0
1570,C#3,159.483,9/20,48,188.0
1571,E1,159.5,79/500,86,188.0
1572,C#4,159.5,9/20,90,188.0
1573,C#3,159.5,0.5,81,188.0
1574,E-3,159.5,0.25,56,188.0
1575,C#4,159.875,0.125,48,188.0
1576,A3,159.983,17/1000,63,188.0
1577,G3,159.992,1/125,72,188.0
1578,F#2,160.0,124/125,91,188.0
1579,C#4,160.0,0.25,105,188.0
1580,A4,160.0,67/1000,105,188.0
1581,C#4,160.0,13/40,48,188.0
1582,A3,160.0,117/1000,81,188.0
1583,A3,160.0,1/20,63,188.0
1584,B1,160.0,0.25,70,188.0
1585,G3,160.0,121/500,72,188.0
1586,F4,160.0,4.0,105,188.0
1587,B-3,160.0,4.0,105,188.0
1588,F#3,160.0,4.0,105,188.0
1589,B-3,160.108,83/40,57,188.0
1590,B-4,160.125,83/40,99,188.0
1591,B-3,160.125,2.125,71,188.0
1592,A4,160.375,67/1000,63,188.0
1593,C#4,160.5,2.5,105,188.0
1594,B-4,160.5,83/40,57,188.0
1595,E-3,160.5,0.25,56,188.0
1596,E1,161.0,79/500,86,188.0
1597,D4,161.0,2.5,105,188.0
1598,C#2,161.0,0.25,94,188.0
1599,E-3,161.0,0.25,76,188.0
1600,C#2,161.5,121/500,91,188.0
1601,E-4,161.5,2.5,105,188.0
1602,B1,161.5,0.25,70,188.0
1603,E-3,161.5,0.25,56,188.0
1604,F#2,162.0,123/250,91,188.0
1605,B1,162.0,0.25,70,188.0
1606,E-3,162.0,0.25,76,188.0
1607,E1,162.5,79/500,86,188.0
1608,C#2,162.5,0.25,94,188.0
1609,E-3,162.5,0.25,56,188.0
1610,B3,162.983,9/20,50,188.0
1611,F#2,163.0,123/250,91,188.0
1612,B4,163.0,9/20,92,188.0
1613,B3,163.0,0.5,81,188.0
1614,E-3,163.0,0.25,76,188.0
1615,B4,163.375,9/20,50,188.0
1616,B-3,163.483,9/20,61,188.0
1617,E1,163.5,79/500,86,188.0
1618,B-4,163.5,9/20,103,188.0
1619,B-3,163.5,0.5,81,188.0
1620,B1,163.5,0.25,70,188.0
1621,E-3,163.5,0.25,56,188.0
1622,B-4,163.875,0.125,61,188.0
1623,B-3,163.983,17/1000,59,188.0
1624,F2,164.0,124/125,91,188.0
1625,B-4,164.0,9/20,101,188.0
1626,B-4,164.0,13/40,61,188.0
1627,B-3,164.0,0.5,81,188.0
1628,B-3,164.0,433/1000,59,188.0
1629,B1,164.0,0.25,70,188.0
1630,E-3,164.0,0.25,76,188.0
1631,B-4,164.0,2.0,105,188.0
1632,B3,164.0,2.0,105,188.0
1633,E-4,164.0,2.0,105,188.0
1634,F4,164.0,2.0,105,188.0
1635,B-4,164.375,9/20,59,188.0
1636,G#3,164.483,9/20,53,188.0
1637,G#4,164.5,9/20,95,188.0
1638,G#3,164.5,0.5,81,188.0
1639,E-3,164.5,0.25,56,188.0
1640,G#4,164.875,9/20,53,188.0
1641,G3,164.983,9/20,49,188.0
1642,E1,165.0,79/500,86,188.0
1643,G4,165.0,9/20,91,188.0
1644,G3,165.0,0.5,81,188.0
1645,C#2,165.0,0.25,94,188.0
1646,E-3,165.0,0.25,76,188.0
1647,G4,165.375,9/20,49,188.0
1648,G#3,165.483,9/20,61,188.0
1649,F2,165.5,121/500,91,188.0
1650,G#4,165.5,9/20,103,188.0
1651,G#3,165.5,0.5,81,188.0
1652,B1,165.5,0.25,70,188.0
1653,E-3,165.5,0.25,56,188.0
1654,G#4,165.875,9/20,61,188.0
1655,B3,165.983,19/20,55,188.0
1656,B-1,166.0,124/125,91,188.0
1657,B4,166.0,19/20,97,188.0
1658,B3,166.0,1.0,81,188.0
1659,B1,166.0,0.25,70,188.0
1660,E-3,166.0,0.25,76,188.0
1661,G#4,166.0,2.0,105,188.0
1662,B3,166.0,2.0,105,188.0
1663,F#4,166.0,2.0,105,188.0
1664,D4,166.0,2.0,105,188.0
1665,B4,166.375,19/20,55,188.0
1666,E-3,166.5,0.25,56,188.0
1667,B-3,166.983,9/20,52,188.0
1668,E1,167.0,79/500,86,188.0
1669,B-4,167.0,9/20,94,188.0
1670,B-3,167.0,0.5,81,188.0
1671,C#2,167.0,0.25,94,188.0
1672,E-3,167.0,0.25,76,188.0
1673,B-4,167.375,9/20,52,188.0
1674,F#3,167.483,517/1000,56,188.0
1675,B-1,167.5,121/500,91,188.0
1676,F#3,167.5,0.5,105,188.0
1677,F#4,167.5,0.5,98,188.0
1678,F#3,167.5,0.5,81,188.0
1679,B1,167.5,0.25,70,188.0
1680,E-3,167.5,0.25,56,188.0
1681,F#4,167.875,0.125,56,188.0
1682,E-2,168.0,124/125,91,188.0
1683,F#3,168.0,4.0,105,188.0
1684,F#4,168.0,9/20,98,188.0
1685,F#4,168.0,33/40,56,188.0
1686,F#3,168.0,0.5,81,188.0
1687,F#3,168.0,433/1000,56,188.0
1688,B1,168.0,0.25,70,188.0
1689,E-3,168.0,0.25,76,188.0
1690,C#4,168.0,2.0,105,188.0
1691,F#4,168.0,2.0,105,188.0
1692,B-3,168.0,2.0,105,188.0
1693,G#3,168.483,19/20,53,188.0
1694,G#4,168.5,19/20,95,188.0
1695,G#3,168.5,1.0,81,188.0
1696,E-3,168.5,0.25,56,188.0
1697,G#4,168.875,19/20,53,188.0
1698,E1,169.0,79/500,86,188.0
1699,C#2,169.0,0.25,94,188.0
1700,E-3,169.0,0.25,76,188.0
1701,E-3,169.483,9/20,53,188.0
1702,E-2,169.5,121/500,91,188.0
1703,E-4,169.5,9/20,95,188.0
1704,E-3,169.5,0.5,81,188.0
1705,B1,169.5,0.25,70,188.0
1706,E-3,169.5,0.25,56,188.0
1707,E-4,169.875,9/20,53,188.0
1708,G#2,170.0,124/125,91,188.0
1709,B1,170.0,0.25,70,188.0
1710,E-3,170.0,0.25,76,188.0
1711,G#4,170.0,2.0,105,188.0
1712,E-4,170.0,2.0,105,188.0
1713,C4,170.0,2.0,105,188.0
1714,C#2,170.5,0.25,94,188.0
1715,E-3,170.5,0.25,56,188.0
1716,B3,170.983,9/20,63,188.0
1717,E1,171.0,79/500,86,188.0
1718,B4,171.0,9/20,105,188.0
1719,B3,171.0,0.5,81,188.0
1720,C#2,171.0,0.25,94,188.0
1721,E-3,171.0,0.25,76,188.0
1722,B4,171.375,9/20,63,188.0
1723,B-3,171.483,9/20,59,188.0
1724,G#2,171.5,121/500,91,188.0
1725,B-4,171.5,9/20,101,188.0
1726,B-3,171.5,0.5,81,188.0
1727,B1,171.5,0.25,70,188.0
1728,E-3,171.5,0.25,56,188.0
1729,B-4,171.875,0.125,59,188.0
1730,B-3,171.983,17/1000,63,188.0
1731,G#2,172.0,124/125,91,188.0
1732,B-4,172.0,9/20,105,188.0
1733,B-4,172.0,13/40,59,188.0
1734,B-3,172.0,0.5,81,188.0
1735,B-3,172.0,433/1000,63,188.0
1736,B1,172.0,0.25,70,188.0
1737,E-3,172.0,0.25,76,188.0
1738,B-4,172.375,9/20,63,188.0
1739,G#3,172.483,9/20,49,188.0
1740,G#4,172.5,9/20,91,188.0
1741,G#3,172.5,0.5,81,188.0
1742,E-3,172.5,0.25,56,188.0
1743,B3,172.5,1.5,105,188.0
1744,E-4,172.5,1.5,105,188.0
1745,G#4,172.5,1.5,105,188.0
1746,G#4,172.875,9/20,49,188.0
1747,G3,172.983,9/20,56,188.0
1748,E1,173.0,79/500,86,188.0
1749,G4,173.0,9/20,98,188.0
1750,G3,173.0,0.5,81,188.0
1751,C#2,173.0,0.25,94,188.0
1752,E-3,173.0,0.25,76,188.0
1753,G4,173.375,9/20,56,188.0
1754,G#3,173.483,9/20,63,188.0
1755,G#2,173.5,121/500,91,188.0
1756,G#4,173.5,9/20,105,188.0
1757,G#3,173.5,0.5,81,188.0
1758,B1,173.5,0.25,70,188.0
1759,E-3,173.5,0.25,56,188.0
1760,G#4,173.875,9/20,63,188.0
1761,B3,173.983,19/20,62,188.0
1762,C#2,174.0,124/125,91,188.0
1763,B4,174.0,19/20,104,188.0
1764,B3,174.0,1.0,81,188.0
1765,B1,174.0,0.25,70,188.0
1766,E-3,174.0,0.25,76,188.0
1767,F#4,174.0,2.0,105,188.0
1768,C#4,174.0,2.0,105,188.0
1769,G#3,174.0,2.0,105,188.0
1770,B4,174.375,19/20,62,188.0
1771,E-3,174.5,0.25,56,188.0
1772,B-3,174.983,9/20,53,188.0
1773,E1,175.0,79/500,86,188.0
1774,B-4,175.0,9/20,95,188.0
1775,B-3,175.0,0.5,81,188.0
1776,C#2,175.0,0.25,94,188.0
1777,E-3,175.0,0.25,76,188.0
1778,B-4,175.375,9/20,53,188.0
1779,C#4,175.483,517/1000,56,188.0
1780,C#2,175.5,121/500,91,188.0
1781,C#5,175.5,0.5,98,188.0
1782,C#4,175.5,0.5,81,188.0
1783,B1,175.5,0.25,70,188.0
1784,E-3,175.5,0.25,56,188.0
1785,C#5,175.875,0.125,56,188.0
1786,F#2,176.0,124/125,91,188.0
1787,C#5,176.0,9/20,98,188.0
1788,C#5,176.0,33/40,56,188.0
1789,C#4,176.0,0.5,81,188.0
1790,C#4,176.0,433/1000,56,188.0
1791,B1,176.0,0.25,70,188.0
1792,E-3,176.0,0.25,76,188.0
1793,F4,176.0,2.0,105,188.0
1794,G#4,176.0,2.0,105,188.0
1795,C#4,176.0,2.0,105,188.0
1796,F#3,176.483,9/20,52,188.0
1797,F#4,176.5,9/20,94,188.0
1798,F#3,176.5,0.5,81,188.0
1799,C#2,176.5,0.25,94,188.0
1800,E-3,176.5,0.25,56,188.0
1801,F#4,176.875,9/20,52,188.0
1802,B-3,176.983,9/20,56,188.0
1803,E1,177.0,79/500,86,188.0
1804,B-4,177.0,9/20,98,188.0
1805,B-3,177.0,0.5,81,188.0
1806,E-3,177.0,0.25,76,188.0
1807,B-4,177.375,9/20,56,188.0
1808,D4,177.483,19/20,49,188.0
1809,F#2,177.5,121/500,91,188.0
1810,D5,177.5,19/20,91,188.0
1811,D4,177.5,1.0,81,188.0
1812,C#2,177.5,0.25,94,188.0
1813,E-3,177.5,0.25,56,188.0
1814,D5,177.875,19/20,49,188.0
1815,C2,178.0,124/125,91,188.0
1816,B1,178.0,0.25,70,188.0
1817,E-3,178.0,0.25,76,188.0
1818,E4,178.0,2.0,105,188.0
1819,C#4,178.0,2.0,105,188.0
1820,B-4,178.0,2.0,105,188.0
1821,F#3,178.483,9/20,54,188.0
1822,F#4,178.5,9/20,96,188.0
1823,F#3,178.5,0.5,81,188.0
1824,C#2,178.5,0.25,94,188.0
1825,E-3,178.5,0.25,56,188.0
1826,F#4,178.875,9/20,54,188.0
1827,B-3,178.983,9/20,60,188.0
1828,E1,179.0,79/500,86,188.0
1829,B-4,179.0,9/20,102,188.0
1830,B-3,179.0,0.5,81,188.0
1831,C#2,179.0,0.25,94,188.0
1832,E-3,179.0,0.25,76,188.0
1833,B-4,179.375,9/20,60,188.0
1834,C2,179.5,121/500,91,188.0
1835,B1,179.5,0.25,70,188.0
1836,E-3,179.5,0.25,56,188.0
1837,E-4,179.983,17/1000,54,188.0
1838,B1,180.0,124/125,91,188.0
1839,E-5,180.0,29/20,96,188.0
1840,E-4,180.0,1.5,81,188.0
1841,E-4,180.0,1433/1000,54,188.0
1842,B1,180.0,0.25,70,188.0
1843,E-3,180.0,0.25,76,188.0
1844,E-5,180.375,29/20,54,188.0
1845,E-3,180.5,0.25,56,188.0
1846,B-3,180.5,1.5,105,188.0
1847,B3,180.5,1.5,105,188.0
1848,E-4,180.5,1.5,105,188.0
1849,E1,181.0,79/500,86,188.0
1850,C#2,181.0,0.25,94,188.0
1851,E-3,181.0,0.25,76,188.0
1852,F4,181.483,19/20,56,188.0
1853,B1,181.5,121/500,91,188.0
1854,F5,181.5,19/20,98,188.0
1855,F4,181.5,1.0,81,188.0
1856,B1,181.5,0.25,70,188.0
1857,E-3,181.5,0.25,56,188.0
1858,F5,181.875,19/20,56,188.0
1859,B-1,182.0,124/125,91,188.0
1860,B1,182.0,0.25,70,188.0
1861,E-3,182.0,0.25,76,188.0
1862,C#4,182.483,9/20,54,188.0
1863,C#5,182.5,9/20,96,188.0
1864,C#4,182.5,0.5,81,188.0
1865,E-3,182.5,0.25,56,188.0
1866,G#3,182.5,1.5,105,188.0
1867,B-3,182.5,1.5,105,188.0
1868,C#4,182.5,1.5,105,188.0
1869,F4,182.5,1.5,105,188.0
1870,C#5,182.875,9/20,54,188.0
1871,E1,183.0,79/500,86,188.0
1872,C#2,183.0,0.25,94,188.0
1873,E-3,183.0,0.25,76,188.0
1874,F#4,183.483,517/1000,59,188.0
1875,B-1,183.5,121/500,91,188.0
1876,F#5,183.5,0.5,101,188.0
1877,F#4,183.5,0.5,81,188.0
1878,B1,183.5,0.25,70,188.0
1879,E-3,183.5,0.25,56,188.0
1880,F#5,183.875,0.125,59,188.0
1881,G#1,184.0,124/125,91,188.0
1882,F#5,184.0,9/20,101,188.0
1883,F#5,184.0,33/40,59,188.0
1884,F#4,184.0,0.5,81,188.0
1885,F#4,184.0,433/1000,59,188.0
1886,B1,184.0,0.25,70,188.0
1887,E-3,184.0,0.25,76,188.0
1888,F#4,184.483,9/20,57,188.0
1889,F#4,184.5,3.0,105,188.0
1890,F#5,184.5,9/20,99,188.0
1891,F#4,184.5,0.5,81,188.0
1892,E-3,184.5,0.25,56,188.0
1893,E-4,184.5,3.5,105,188.0
1894,B-3,184.5,3.5,105,188.0
1895,C#4,184.5,3.5,105,188.0
1896,F#5,184.875,9/20,57,188.0
1897,C#4,184.983,9/20,55,188.0
1898,E1,185.0,79/500,86,188.0
1899,C#5,185.0,9/20,97,188.0
1900,C#4,185.0,0.5,81,188.0
1901,C#2,185.0,0.25,94,188.0
1902,E-3,185.0,0.25,76,188.0
1903,C#5,185.375,9/20,55,188.0
1904,B-3,185.483,9/20,55,188.0
1905,G#1,185.5,121/500,91,188.0
1906,B-4,185.5,9/20,97,188.0
1907,B-3,185.5,0.5,81,188.0
1908,B1,185.5,0.25,70,188.0
1909,E-3,185.5,0.25,56,188.0
1910,B-4,185.875,9/20,55,188.0
1911,A3,185.983,67/1000,60,188.0
1912,C#2,186.0,124/125,91,188.0
1913,A4,186.0,67/1000,102,188.0
1914,A3,186.0,117/1000,71,188.0
1915,B1,186.0,0.25,70,188.0
1916,E-3,186.0,0.25,76,188.0
1917,G#3,186.108,33/40,53,188.0
1918,G#4,186.125,33/40,95,188.0
1919,G#3,186.125,0.875,81,188.0
1920,A4,186.375,67/1000,60,188.0
1921,E4,186.5,0.5,105,188.0
1922,G#4,186.5,33/40,53,188.0
1923,C#2,186.5,0.25,94,188.0
1924,E-3,186.5,0.25,56,188.0
1925,F#3,186.983,9/20,58,188.0
1926,E1,187.0,79/500,86,188.0
1927,F#4,187.0,1.0,105,188.0
1928,F#4,187.0,9/20,100,188.0
1929,F#3,187.0,0.5,81,188.0
1930,C#2,187.0,0.25,94,188.0
1931,E-3,187.0,0.25,76,188.0
1932,F#4,187.375,9/20,58,188.0
1933,E-4,187.483,517/1000,53,188.0
1934,G#1,187.5,121/500,91,188.0
1935,F#4,187.5,0.5,105,188.0
1936,E-5,187.5,0.5,95,188.0
1937,E-4,187.5,0.5,81,188.0
1938,B1,187.5,0.25,70,188.0
1939,E-3,187.5,0.25,56,188.0
1940,E-5,187.875,0.125,53,188.0
1941,C2,188.0,124/125,91,188.0
1942,E-5,188.0,79/20,95,188.0
1943,E-5,188.0,4.0,53,188.0
1944,E-4,188.0,4.0,81,188.0
1945,E-4,188.0,3933/1000,53,188.0
1946,B1,188.0,0.25,70,188.0
1947,E-3,188.0,0.25,76,188.0
1948,F#3,188.0,4.0,105,188.0
1949,B-3,188.0,4.0,105,188.0
1950,F#4,188.5,2.5,105,188.0
1951,E-3,188.5,0.25,56,188.0
1952,E1,189.0,79/500,86,188.0
1953,E-4,189.0,2.5,105,188.0
1954,C#2,189.0,0.25,94,188.0
1955,E-3,189.0,0.25,76,188.0
1956,C2,189.5,121/500,91,188.0
1957,B-4,189.5,2.5,105,188.0
1958,B1,189.5,0.25,70,188.0
1959,E-3,189.5,0.25,56,188.0
1960,C2,190.0,124/125,91,188.0
1961,B1,190.0,0.25,70,188.0
1962,E-3,190.0,0.25,76,188.0
1963,F#4,190.5,1.5,105,188.0
1964,E-3,190.5,0.25,56,188.0
1965,E1,191.0,79/500,86,188.0
1966,E-4,191.0,1.0,105,188.0
1967,C#2,191.0,0.25,94,188.0
1968,E-3,191.0,0.25,76,188.0
1969,C2,191.5,121/500,91,188.0
1970,G#4,191.5,0.5,105,188.0
1971,B1,191.5,0.25,70,188.0
1972,E-3,191.5,0.25,56,188.0
1973,B1,192.0,4/5,91,188.0
1974,E-4,192.0,0.5,105,188.0
1975,G#4,192.0,0.5,105,188.0
1976,F#4,192.0,1.0,105,188.0
1977,E-5,192.0,13/40,53,188.0
1978,B1,192.0,0.25,70,188.0
1979,E-3,192.0,0.25,76,188.0
1980,B3,192.5,3.5,105,188.0
1981,C#2,192.5,0.25,94,188.0
1982,E-3,192.5,0.25,56,188.0
1983,B1,193.0,1517/1000,91,188.0
1984,E-3,193.0,0.25,76,188.0
1985,G#4,193.0,3.0,105,188.0
1986,C#4,193.0,3.0,105,188.0
1987,F4,193.0,3.0,105,188.0
1988,C#2,193.5,0.25,94,188.0
1989,E-3,193.5,0.25,56,188.0
1990,F#4,193.983,9/20,59,188.0
1991,F#5,194.0,9/20,101,188.0
1992,F#4,194.0,0.5,81,188.0
1993,B1,194.0,0.25,70,188.0
1994,E-3,194.0,0.25,76,188.0
1995,F#5,194.375,9/20,59,188.0
1996,F#4,194.483,9/20,57,188.0
1997,E1,194.5,79/500,86,188.0
1998,B-6,194.5,1.5,95,188.0
1999,F#5,194.5,9/20,99,188.0
2000,F#4,194.5,0.5,81,188.0
2001,C#2,194.5,0.25,94,188.0
2002,E-3,194.5,0.25,56,188.0
2003,F#5,194.875,9/20,57,188.0
2004,F4,194.983,9/20,53,188.0
2005,B1,195.0,433/1000,91,188.0
2006,G#6,195.0,1.0,95,188.0
2007,F5,195.0,9/20,95,188.0
2008,F4,195.0,0.5,81,188.0
2009,C#2,195.0,0.25,94,188.0
2010,E-3,195.0,0.25,76,188.0
2011,F5,195.375,9/20,53,188.0
2012,E-4,195.483,9/20,58,188.0
2013,B1,195.5,333/1000,96,188.0
2014,F#6,195.5,0.5,95,188.0
2015,E-5,195.5,9/20,100,188.0
2016,E-4,195.5,0.5,81,188.0
2017,B1,195.5,0.25,70,188.0
2018,E-3,195.5,0.25,56,188.0
2019,E-5,195.875,0.125,58,188.0
2020,C#4,195.983,17/1000,61,188.0
2021,F#1,196.0,124/125,91,188.0
2022,G#6,196.0,0.5,95,188.0
2023,F#6,196.0,1.0,95,188.0
2024,C#5,196.0,29/20,103,188.0
2025,E-5,196.0,13/40,58,188.0
2026,C#4,196.0,1.5,81,188.0
2027,C#4,196.0,1433/1000,61,188.0
2028,B1,196.0,0.25,70,188.0
2029,E-3,196.0,0.25,76,188.0
2030,F6,196.0,4.0,105,188.0
2031,B-3,196.0,4.0,105,188.0
2032,G#4,196.0,4.0,105,188.0
2033,C#4,196.0,4.0,105,188.0
2034,F4,196.0,4.0,105,188.0
2035,C#5,196.375,29/20,61,188.0
2036,E-3,196.5,0.25,56,188.0
2037,E1,197.0,79/500,86,188.0
2038,C#6,197.0,0.5,95,188.0
2039,C#2,197.0,0.25,94,188.0
2040,E-3,197.0,0.25,76,188.0
2041,C#4,197.483,2517/1000,57,188.0
2042,F#1,197.5,121/500,91,188.0
2043,B-5,197.5,0.5,95,188.0
2044,C#5,197.5,2.5,99,188.0
2045,C#4,197.5,2.5,81,188.0
2046,B1,197.5,0.25,70,188.0
2047,E-3,197.5,0.25,56,188.0
2048,C#5,197.875,2.125,57,188.0
2049,F#2,198.0,373/250,91,188.0
2050,B1,198.0,0.25,70,188.0
2051,E-3,198.0,0.25,76,188.0
2052,A3,198.0,2.0,105,188.0
2053,E4,198.0,2.0,105,188.0
2054,G#5,198.5,0.5,95,188.0
2055,E-3,198.5,0.25,56,188.0
2056,C#5,199.0,0.5,105,188.0
2057,C#2,199.0,0.25,94,188.0
2058,E-3,199.0,0.25,76,188.0
2059,E1,199.5,79/500,86,188.0
2060,F#5,199.5,0.5,95,188.0
2061,B1,199.5,0.25,70,188.0
2062,E-3,199.5,0.25,56,188.0
2063,F#1,200.0,124/125,91,188.0
2064,C#5,200.0,4.0,99,188.0
2065,C#5,200.0,4.0,57,188.0
2066,C#4,200.0,4.0,81,188.0
2067,C#4,200.0,4.0,57,188.0
2068,B1,200.0,0.25,70,188.0
2069,E-3,200.0,0.25,76,188.0
2070,E-4,200.0,2.0,105,188.0
2071,G#3,200.0,2.0,105,188.0
2072,C#6,200.5,0.5,95,188.0
2073,E-3,200.5,0.25,56,188.0
2074,E1,201.0,79/500,86,188.0
2075,C#2,201.0,0.25,94,188.0
2076,E-3,201.0,0.25,76,188.0
2077,F#1,201.5,121/500,91,188.0
2078,B-5,201.5,0.5,95,188.0
2079,B1,201.5,0.25,70,188.0
2080,E-3,201.5,0.25,56,188.0
2081,F#2,202.0,124/125,91,188.0
2082,B1,202.0,0.25,70,188.0
2083,E-3,202.0,0.25,76,188.0
2084,A3,202.0,2.0,105,188.0
2085,E4,202.0,2.0,105,188.0
2086,G#5,202.5,0.5,105,188.0
2087,C#2,202.5,0.25,94,188.0
2088,E-3,202.5,0.25,56,188.0
2089,E1,203.0,79/500,86,188.0
2090,C#5,203.0,0.5,105,188.0
2091,C#2,203.0,0.25,94,188.0
2092,E-3,203.0,0.25,76,188.0
2093,F#1,203.5,121/500,91,188.0
2094,F#5,203.5,0.5,105,188.0
2095,B1,203.5,0.25,70,188.0
2096,E-3,203.5,0.25,56,188.0
2097,F#1,204.0,124/125,91,188.0
2098,B-4,204.0,1.0,105,188.0
2099,C#5,204.0,4.0,99,188.0
2100,C#5,204.0,4.0,57,188.0
2101,C#4,204.0,4.0,81,188.0
2102,C#4,204.0,4.0,57,188.0
2103,B1,204.0,0.25,70,188.0
2104,E-3,204.0,0.25,76,188.0
2105,C#4,204.0,2.0,105,188.0
2106,B-3,204.0,2.0,105,188.0
2107,F4,204.0,2.0,105,188.0
2108,C#5,204.5,0.5,105,188.0
2109,E-3,204.5,0.25,56,188.0
2110,E1,205.0,79/500,86,188.0
2111,C#2,205.0,0.25,94,188.0
2112,E-3,205.0,0.25,76,188.0
2113,F#2,205.5,121/500,91,188.0
2114,G#4,205.5,0.5,105,188.0
2115,B1,205.5,0.25,70,188.0
2116,E-3,205.5,0.25,56,188.0
2117,F#2,206.0,124/125,91,188.0
2118,B1,206.0,0.25,70,188.0
2119,E-3,206.0,0.25,76,188.0
2120,C#4,206.0,2.0,105,188.0
2121,A3,206.0,2.0,105,188.0
2122,E4,206.0,2.0,105,188.0
2123,C#5,206.5,1.5,105,188.0
2124,E-3,206.5,0.25,56,188.0
2125,E1,207.0,79/500,86,188.0
2126,C#2,207.0,0.25,94,188.0
2127,E-3,207.0,0.25,76,188.0
2128,F#1,207.5,0.5,91,188.0
2129,G#4,207.5,0.5,105,188.0
2130,B1,207.5,0.25,70,188.0
2131,E-3,207.5,0.25,56,188.0
2132,F#1,208.0,124/125,91,188.0
2133,G#4,208.0,1.0,105,188.0
2134,C#5,208.0,283/1000,99,188.0
2135,C#5,208.0,329/500,57,188.0
2136,C#4,208.0,333/1000,81,188.0
2137,C#4,208.0,267/1000,57,188.0
2138,B1,208.0,0.25,70,188.0
2139,E-3,208.0,0.25,76,188.0
2140,G#3,208.0,2.0,105,188.0
2141,E-4,208.0,2.0,105,188.0
2142,F#4,208.5,1.5,105,188.0
2143,C#2,208.5,0.25,94,188.0
2144,E-3,208.5,0.25,56,188.0
2145,E1,209.0,79/500,86,188.0
2146,E-3,209.0,0.25,76,188.0
2147,F#1,209.5,121/500,91,188.0
2148,C#4,209.5,1.0,105,188.0
2149,C#2,209.5,0.25,94,188.0
2150,E-3,209.5,0.25,56,188.0
2151,F#2,210.0,373/250,91,188.0
2152,B1,210.0,0.25,70,188.0
2153,E-3,210.0,0.25,76,188.0
2154,F#3,210.483,9/20,61,188.0
2155,G3,210.492,0.25,52,188.0
2156,F#4,210.5,9/20,103,188.0
2157,F#3,210.5,0.5,81,188.0
2158,C#2,210.5,0.25,94,188.0
2159,B-3,210.5,1.5,105,188.0
2160,B-4,210.5,1.5,105,188.0
2161,E-4,210.5,1.5,105,188.0
2162,F#4,210.5,1.5,105,188.0
2163,F#4,210.875,9/20,61,188.0
2164,C#4,210.983,9/20,50,188.0
2165,C#5,211.0,9/20,92,188.0
2166,C#4,211.0,0.5,81,188.0
2167,C#2,211.0,0.25,94,188.0
2168,E-3,211.0,0.25,76,188.0
2169,C#5,211.375,9/20,50,188.0
2170,B3,211.483,9/20,57,188.0
2171,E1,211.5,79/500,86,188.0
2172,B4,211.5,9/20,99,188.0
2173,B3,211.5,0.5,81,188.0
2174,B1,211.5,0.25,70,188.0
2175,E-3,211.5,0.25,56,188.0
2176,B4,211.875,0.125,57,188.0
2177,B-3,211.983,17/1000,49,188.0
2178,G3,211.992,1/125,72,188.0
2179,E-2,212.0,124/125,91,188.0
2180,B-4,212.0,9/20,91,188.0
2181,B4,212.0,13/40,57,188.0
2182,B-3,212.0,0.5,81,188.0
2183,B-3,212.0,433/1000,49,188.0
2184,B1,212.0,0.25,70,188.0
2185,G3,212.0,121/500,72,188.0
2186,E-4,212.0,2.0,105,188.0
2187,B-3,212.0,2.0,105,188.0
2188,F#4,212.0,2.0,105,188.0
2189,C#4,212.0,2.0,105,188.0
2190,B-4,212.375,9/20,49,188.0
2191,E-3,212.5,0.25,56,188.0
2192,B-3,212.983,9/20,57,188.0
2193,E1,213.0,79/500,86,188.0
2194,B-4,213.0,9/20,99,188.0
2195,B-3,213.0,0.5,81,188.0
2196,C#2,213.0,0.25,94,188.0
2197,E-3,213.0,0.25,76,188.0
2198,B-4,213.375,9/20,57,188.0
2199,E-4,213.483,9/20,53,188.0
2200,E-2,213.5,121/500,91,188.0
2201,E-5,213.5,9/20,95,188.0
2202,E-4,213.5,0.5,81,188.0
2203,B1,213.5,0.25,70,188.0
2204,E-3,213.5,0.25,56,188.0
2205,E-5,213.875,9/20,53,188.0
2206,B-3,213.983,9/20,58,188.0
2207,G#1,214.0,124/125,91,188.0
2208,B-4,214.0,9/20,100,188.0
2209,B-3,214.0,0.5,81,188.0
2210,B1,214.0,0.25,70,188.0
2211,E-3,214.0,0.25,76,188.0
2212,E-4,214.0,2.0,105,188.0
2213,G#3,214.0,2.0,105,188.0
2214,F#4,214.0,2.0,105,188.0
2215,C4,214.0,2.0,105,188.0
2216,B-4,214.375,9/20,58,188.0
2217,G#3,214.483,9/20,60,188.0
2218,G#4,214.5,9/20,102,188.0
2219,G#3,214.5,0.5,81,188.0
2220,E-3,214.5,0.25,56,188.0
2221,G#4,214.875,9/20,60,188.0
2222,F#3,214.983,9/20,57,188.0
2223,E1,215.0,79/500,86,188.0
2224,F#4,215.0,9/20,99,188.0
2225,F#3,215.0,0.5,81,188.0
2226,C#2,215.0,0.25,94,188.0
2227,E-3,215.0,0.25,76,188.0
2228,F#4,215.375,9/20,57,188.0
2229,B3,215.483,9/20,62,188.0
2230,G#1,215.5,121/500,91,188.0
2231,B4,215.5,9/20,104,188.0
2232,B3,215.5,0.5,81,188.0
2233,B1,215.5,0.25,70,188.0
2234,E-3,215.5,0.25,56,188.0
2235,B4,215.875,0.125,62,188.0
2236,B-3,215.983,17/1000,58,188.0
2237,G#1,216.0,124/125,91,188.0
2238,B-4,216.0,9/20,100,188.0
2239,B4,216.0,13/40,62,188.0
2240,B-3,216.0,0.5,81,188.0
2241,B-3,216.0,433/1000,58,188.0
2242,B1,216.0,0.25,70,188.0
2243,E-3,216.0,0.25,76,188.0
2244,B-4,216.375,9/20,58,188.0
2245,G#3,216.483,49/20,52,188.0
2246,G#4,216.5,49/20,94,188.0
2247,G#3,216.5,2.5,81,188.0
2248,E-3,216.5,0.25,56,188.0
2249,C4,216.5,0.5,105,188.0
2250,G#4,216.5,0.5,105,188.0
2251,E-4,216.5,0.5,105,188.0
2252,G#4,216.875,49/20,52,188.0
2253,E1,217.0,79/500,86,188.0
2254,C#2,217.0,0.25,94,188.0
2255,E-3,217.0,0.25,76,188.0
2256,G#1,217.5,121/500,91,188.0
2257,B1,217.5,0.25,70,188.0
2258,E-3,217.5,0.25,56,188.0
2259,D4,217.5,2.0,105,188.0
2260,B3,217.5,2.0,105,188.0
2261,G#4,217.5,2.0,105,188.0
2262,C#2,218.0,124/125,91,188.0
2263,B1,218.0,0.25,70,188.0
2264,E-3,218.0,0.25,76,188.0
2265,C#2,218.5,0.25,94,188.0
2266,E-3,218.5,0.25,56,188.0
2267,C#3,218.983,9/20,61,188.0
2268,E1,219.0,79/500,86,188.0
2269,C#4,219.0,9/20,103,188.0
2270,C#3,219.0,0.5,81,188.0
2271,C#2,219.0,0.25,94,188.0
2272,E-3,219.0,0.25,76,188.0
2273,C#4,219.375,9/20,61,188.0
2274,F#3,219.483,517/1000,54,188.0
2275,A3,219.492,0.25,92,188.0
2276,G1,219.5,0.5,91,188.0
2277,F#4,219.5,0.5,96,188.0
2278,F#3,219.5,0.5,81,188.0
2279,B1,219.5,0.25,70,188.0
2280,E-3,219.5,0.25,56,188.0
2281,C#5,219.5,0.5,105,188.0
2282,F4,219.5,0.5,105,188.0
2283,D4,219.5,0.5,105,188.0
2284,G4,219.5,0.5,105,188.0
2285,F#4,219.875,0.125,54,188.0
2286,G1,220.0,373/250,91,188.0
2287,F#4,220.0,79/20,96,188.0
2288,F#4,220.0,4.0,54,188.0
2289,F#3,220.0,4.0,81,188.0
2290,F#3,220.0,3933/1000,54,188.0
2291,B1,220.0,0.25,70,188.0
2292,E-3,220.0,0.25,76,188.0
2293,C#5,220.0,4.0,105,188.0
2294,F4,220.0,4.0,105,188.0
2295,D4,220.0,4.0,105,188.0
2296,G4,220.0,4.0,105,188.0
2297,C#6,220.5,0.5,112,188.0
2298,E-3,220.5,0.25,56,188.0
2299,C#2,221.0,0.25,94,188.0
2300,E-3,221.0,0.25,76,188.0
2301,G1,221.5,121/500,91,188.0
2302,F#6,221.5,0.5,112,188.0
2303,B1,221.5,0.25,70,188.0
2304,E-3,221.5,0.25,56,188.0
2305,G2,222.0,0.75,81,188.0
2306,B1,222.0,0.25,70,188.0
2307,E-3,222.0,0.25,76,188.0
2308,E1,222.5,79/500,86,188.0
2309,F6,222.5,0.5,112,188.0
2310,C#2,222.5,0.25,94,188.0
2311,E-3,222.5,0.25,56,188.0
2312,G2,223.0,0.75,91,188.0
2313,C3,223.0,0.25,79,188.0
2314,E-3,223.0,0.25,76,188.0
2315,E6,223.5,0.5,112,188.0
2316,B1,223.5,0.25,70,188.0
2317,E-3,223.5,0.25,56,188.0
2318,C#3,223.992,1/125,92,188.0
2319,F#2,224.0,124/125,91,188.0
2320,C#6,224.0,0.25,112,188.0
2321,F#4,224.0,13/40,54,188.0
2322,B1,224.0,0.25,70,188.0
2323,F#2,224.0,0.25,72,188.0
2324,C#3,224.0,121/500,92,188.0
2325,F#4,224.0,2.0,95,188.0
2326,E4,224.0,2.0,95,188.0
2327,B3,224.0,2.0,95,188.0
2328,G#3,224.0,2.0,95,188.0
2329,E-6,224.25,0.5,112,188.0
2330,F3,224.5,0.25,56,188.0
2331,E1,225.0,79/500,86,188.0
2332,F#6,225.0,0.5,112,188.0
2333,C#2,225.0,0.25,94,188.0
2334,E-3,225.0,0.25,76,188.0
2335,F#2,225.5,121/500,91,188.0
2336,B5,225.5,0.25,112,188.0
2337,B1,225.5,0.25,70,188.0
2338,E-3,225.5,0.25,56,188.0
2339,C#6,225.75,0.5,112,188.0
2340,B1,226.0,124/125,91,188.0
2341,B1,226.0,0.25,70,188.0
2342,E-3,226.0,0.25,76,188.0
2343,F#3,226.0,2.0,95,188.0
2344,E4,226.0,2.0,95,188.0
2345,F#4,226.0,2.0,95,188.0
2346,B3,226.0,2.0,95,188.0
2347,B5,226.5,0.5,112,188.0
2348,E-3,226.5,0.25,56,188.0
2349,E1,227.0,79/500,86,188.0
2350,C#2,227.0,0.25,94,188.0
2351,E-3,227.0,0.25,76,188.0
2352,A1,227.5,121/500,91,188.0
2353,A5,227.5,0.5,112,188.0
2354,B1,227.5,0.25,70,188.0
2355,E-3,227.5,0.25,56,188.0
2356,A1,228.0,124/125,91,188.0
2357,B1,228.0,0.25,70,188.0
2358,E-3,228.0,0.25,76,188.0
2359,C#6,228.5,0.5,112,188.0
2360,E-3,228.5,0.25,56,188.0
2361,F#3,228.5,1.5,95,188.0
2362,B3,228.5,1.5,95,188.0
2363,D4,228.5,1.5,95,188.0
2364,E1,229.0,79/500,86,188.0
2365,C#2,229.0,0.25,94,188.0
2366,E-3,229.0,0.25,76,188.0
2367,A1,229.5,121/500,91,188.0
2368,G#5,229.5,0.25,112,188.0
2369,B1,229.5,0.25,70,188.0
2370,E-3,229.5,0.25,56,188.0
2371,B-5,229.75,0.5,112,188.0
2372,E2,230.0,124/125,91,188.0
2373,B1,230.0,0.25,70,188.0
2374,E-3,230.0,0.25,76,188.0
2375,G#5,230.5,0.5,112,188.0
2376,C#2,230.5,0.25,94,188.0
2377,E-3,230.5,0.25,56,188.0
2378,D4,230.5,1.5,95,188.0
2379,B3,230.5,1.5,95,188.0
2380,F#3,230.5,1.5,95,188.0
2381,A2,231.0,124/125,91,188.0
2382,C#2,231.0,0.25,94,188.0
2383,E-3,231.0,0.25,76,188.0
2384,G5,231.5,0.5,112,188.0
2385,B1,231.5,0.25,70,188.0
2386,E-3,231.5,0.25,56,188.0
2387,D2,232.0,124/125,91,188.0
2388,F#5,232.0,0.5,112,188.0
2389,B1,232.0,0.25,70,188.0
2390,E-3,232.0,0.25,76,188.0
2391,C#4,232.0,2.0,95,188.0
2392,A3,232.0,2.0,95,188.0
2393,F#3,232.0,2.0,95,188.0
2394,A5,232.5,0.5,112,188.0
2395,E-3,232.5,0.25,56,188.0
2396,E1,233.0,79/500,86,188.0
2397,F#5,233.0,0.5,112,188.0
2398,C#2,233.0,0.25,94,188.0
2399,E-3,233.0,0.25,76,188.0
2400,D2,233.5,121/500,91,188.0
2401,F5,233.5,0.5,112,188.0
2402,B1,233.5,0.25,70,188.0
2403,E-3,233.5,0.25,56,188.0
2404,G#2,234.0,124/125,91,188.0
2405,E5,234.0,0.5,112,188.0
2406,B1,234.0,0.25,70,188.0
2407,E-3,234.0,0.25,76,188.0
2408,D4,234.0,2.0,95,188.0
2409,E4,234.0,2.0,95,188.0
2410,C4,234.0,2.0,95,188.0
2411,G#3,234.0,2.0,95,188.0
2412,E-3,234.5,0.25,56,188.0
2413,E1,235.0,79/500,86,188.0
2414,D5,235.0,0.5,112,188.0
2415,C#2,235.0,0.25,94,188.0
2416,E-3,235.0,0.25,76,188.0
2417,G#2,235.5,121/500,91,188.0
2418,E5,235.5,0.5,112,188.0
2419,B1,235.5,0.25,70,188.0
2420,E-3,235.5,0.25,56,188.0
2421,G2,236.0,124/125,91,188.0
2422,F#5,236.0,0.5,112,188.0
2423,B1,236.0,0.25,70,188.0
2424,E-3,236.0,0.25,76,188.0
2425,B3,236.0,2.0,95,188.0
2426,D4,236.0,2.0,95,188.0
2427,F#4,236.0,2.0,95,188.0
2428,G4,236.0,2.0,95,188.0
2429,F#5,236.5,0.5,112,188.0
2430,C#2,236.5,0.25,94,188.0
2431,E-3,236.5,0.25,56,188.0
2432,E1,237.0,79/500,86,188.0
2433,E-3,237.0,0.25,76,188.0
2434,D2,237.5,121/500,91,188.0
2435,B4,237.5,0.5,112,188.0
2436,C#2,237.5,0.25,94,188.0
2437,E-3,237.5,0.25,56,188.0
2438,G2,238.0,124/125,91,188.0
2439,D5,238.0,167/1000,112,188.0
2440,B1,238.0,0.25,70,188.0
2441,E-3,238.0,0.25,76,188.0
2442,B3,238.0,1.0,95,188.0
2443,D4,238.0,1.0,95,188.0
2444,F#4,238.0,1.0,95,188.0
2445,G4,238.0,1.0,95,188.0
2446,E5,238.167,0.5,112,188.0
2447,C#2,238.5,0.25,94,188.0
2448,E-3,238.5,0.25,56,188.0
2449,F#2,239.0,124/125,91,188.0
2450,D5,239.0,0.5,112,188.0
2451,C#2,239.0,0.25,94,188.0
2452,E-3,239.0,0.25,76,188.0
2453,B3,239.0,1.0,95,188.0
2454,D4,239.0,1.0,95,188.0
2455,F#4,239.0,1.0,95,188.0
2456,G4,239.0,1.0,95,188.0
2457,B1,239.5,0.25,70,188.0
2458,E-3,239.5,0.25,56,188.0
2459,E2,240.0,124/125,91,188.0
2460,B1,240.0,0.25,70,188.0
2461,E-3,240.0,0.25,76,188.0
2462,D4,240.0,2.0,95,188.0
2463,G3,240.0,2.0,95,188.0
2464,B3,240.0,2.0,95,188.0
2465,E4,240.0,2.0,95,188.0
2466,E-3,240.5,0.25,56,188.0
2467,E1,241.0,79/500,86,188.0
2468,C#2,241.0,0.25,94,188.0
2469,E-3,241.0,0.25,76,188.0
2470,E2,241.5,121/500,91,188.0
2471,C#5,241.5,0.5,112,188.0
2472,B1,241.5,0.25,70,188.0
2473,E-3,241.5,0.25,56,188.0
2474,F#2,242.0,124/125,91,188.0
2475,B1,242.0,0.25,70,188.0
2476,E-3,242.0,0.25,76,188.0
2477,F#3,242.0,2.0,95,188.0
2478,E4,242.0,2.0,95,188.0
2479,C#4,242.0,2.0,95,188.0
2480,A3,242.0,2.0,95,188.0
2481,C5,242.5,0.5,112,188.0
2482,E-3,242.5,0.25,56,188.0
2483,E1,243.0,79/500,86,188.0
2484,B4,243.0,0.5,112,188.0
2485,C#2,243.0,0.25,94,188.0
2486,E-3,243.0,0.25,76,188.0
2487,F#2,243.5,121/500,91,188.0
2488,F#4,243.5,0.5,95,188.0
2489,B-4,243.5,0.5,112,188.0
2490,B1,243.5,0.25,70,188.0
2491,E-3,243.5,0.25,56,188.0
2492,A3,243.5,0.5,95,188.0
2493,B3,243.5,0.5,95,188.0
2494,D4,243.5,0.5,95,188.0
2495,B2,244.0,124/125,91,188.0
2496,A4,244.0,0.5,112,188.0
2497,F#4,244.0,1.0,95,188.0
2498,B1,244.0,0.25,70,188.0
2499,E-3,244.0,0.25,76,188.0
2500,A3,244.0,2.0,95,188.0
2501,B3,244.0,2.0,95,188.0
2502,D4,244.0,2.0,95,188.0
2503,F#4,244.5,1.5,112,188.0
2504,E-3,244.5,0.25,56,188.0
2505,E1,245.0,79/500,86,188.0
2506,C#4,245.0,0.5,112,188.0
2507,C#2,245.0,0.25,94,188.0
2508,E-3,245.0,0.25,76,188.0
2509,B1,245.5,0.25,70,188.0
2510,E-3,245.5,0.25,56,188.0
2511,A2,246.0,124/125,91,188.0
2512,G4,246.0,0.5,112,188.0
2513,B1,246.0,0.25,70,188.0
2514,E-3,246.0,0.25,76,188.0
2515,F#3,246.0,2.0,95,188.0
2516,A3,246.0,2.0,95,188.0
2517,C4,246.0,2.0,95,188.0
2518,E4,246.0,2.0,95,188.0
2519,E-3,246.5,0.25,56,188.0
2520,E1,247.0,79/500,86,188.0
2521,F#4,247.0,0.5,112,188.0
2522,C#2,247.0,0.25,94,188.0
2523,E-3,247.0,0.25,76,188.0
2524,D3,247.5,0.5,91,188.0
2525,B1,247.5,0.25,70,188.0
2526,E-3,247.5,0.25,56,188.0
2527,B3,247.5,0.5,99,188.0
2528,G3,247.5,0.5,99,188.0
2529,E4,247.5,0.5,99,188.0
2530,D4,247.5,0.5,99,188.0
2531,D3,248.0,123/250,91,188.0
2532,E-3,248.0,0.25,76,188.0
2533,E1,248.5,79/500,86,188.0
2534,C#2,248.5,0.25,94,188.0
2535,E-3,248.5,0.25,56,188.0
2536,G3,248.992,0.25,72,188.0
2537,B-2,249.0,124/125,91,188.0
2538,F#4,249.0,0.5,112,188.0
2539,B1,249.0,0.25,70,188.0
2540,B-3,249.0,1.5,95,188.0
2541,F#3,249.0,1.5,95,188.0
2542,E-4,249.0,1.5,95,188.0
2543,E-3,249.5,0.25,56,188.0
2544,E1,250.0,79/500,86,188.0
2545,F4,250.0,0.5,112,188.0
2546,C#2,250.0,0.25,94,188.0
2547,E-3,250.0,0.25,76,188.0
2548,G3,250.492,0.25,52,188.0
2549,C#2,250.5,124/125,91,188.0
2550,B1,250.5,0.25,70,188.0
2551,B3,250.5,0.5,99,188.0
2552,E-4,250.5,0.5,99,188.0
2553,F3,250.5,0.5,99,188.0
2554,C#4,250.5,0.5,99,188.0
2555,E-3,251.0,0.25,76,188.0
2556,E1,251.5,79/500,86,188.0
2557,B3,251.5,0.5,112,188.0
2558,E-3,251.5,0.25,56,188.0
2559,G3,251.992,1/125,72,188.0
2560,F#2,252.0,124/125,91,188.0
2561,C#4,252.0,1.5,95,188.0
2562,F4,252.0,2.5,95,188.0
2563,B-3,252.0,0.5,95,188.0
2564,F#3,252.0,1.0,95,188.0
2565,B-3,252.0,2.0,112,188.0
2566,B1,252.0,0.25,70,188.0
2567,G3,252.0,121/500,72,188.0
2568,F#3,252.5,3.5,112,188.0
2569,E-3,252.5,0.25,56,188.0
2570,E1,253.0,79/500,86,188.0
2571,C#4,253.0,2.0,112,188.0
2572,C#2,253.0,0.25,94,188.0
2573,E-3,253.0,0.25,76,188.0
2574,C#2,253.5,121/500,91,188.0
2575,B-3,253.5,2.5,112,188.0
2576,B1,253.5,0.25,70,188.0
2577,E-3,253.5,0.25,56,188.0
2578,F#2,254.0,123/250,81,188.0
2579,F4,254.0,2.0,112,188.0
2580,B1,254.0,0.25,70,188.0
2581,E-3,254.0,0.25,76,188.0
2582,C#2,254.5,267/1000,81,188.0
2583,C#4,254.5,1.5,112,188.0
2584,C#2,254.5,0.25,94,188.0
2585,E-3,254.5,0.25,56,188.0
2586,F#2,255.0,123/250,91,188.0
2587,C#5,255.0,0.5,112,188.0
2588,E-3,255.0,0.25,76,188.0
2589,E1,255.5,79/500,86,188.0
2590,C5,255.5,0.5,112,188.0
2591,B1,255.5,0.25,70,188.0
2592,E-3,255.5,0.25,56,188.0
2593,F2,256.0,124/125,91,188.0
2594,B4,256.0,0.5,112,188.0
2595,B1,256.0,0.25,70,188.0
2596,E-3,256.0,0.25,76,188.0
2597,B-4,256.0,2.0,95,188.0
2598,B3,256.0,2.0,95,188.0
2599,E-4,256.0,2.0,95,188.0
2600,F4,256.0,2.0,95,188.0
2601,G#4,256.5,0.5,112,188.0
2602,E-3,256.5,0.25,56,188.0
2603,E1,257.0,79/500,86,188.0
2604,E4,257.0,0.5,112,188.0
2605,C#2,257.0,0.25,94,188.0
2606,E-3,257.0,0.25,76,188.0
2607,F2,257.5,121/500,91,188.0
2608,E-4,257.5,0.5,112,188.0
2609,B1,257.5,0.25,70,188.0
2610,E-3,257.5,0.25,56,188.0
2611,B-1,258.0,124/125,91,188.0
2612,D4,258.0,0.5,95,188.0
2613,B1,258.0,0.25,70,188.0
2614,E-3,258.0,0.25,76,188.0
2615,G#4,258.0,2.0,99,188.0
2616,B3,258.0,2.0,99,188.0
2617,F#4,258.0,2.0,99,188.0
2618,D4,258.0,2.0,99,188.0
2619,E-3,258.5,0.25,56,188.0
2620,E1,259.0,79/500,86,188.0
2621,C#2,259.0,0.25,94,188.0
2622,E-3,259.0,0.25,76,188.0
2623,B-1,259.5,121/500,91,188.0
2624,B4,259.5,0.5,112,188.0
2625,B1,259.5,0.25,70,188.0
2626,E-3,259.5,0.25,56,188.0
2627,E-2,260.0,124/125,91,188.0
2628,F#4,260.0,1.5,95,188.0
2629,B1,260.0,0.25,70,188.0
2630,E-3,260.0,0.25,76,188.0
2631,C#4,260.0,2.0,95,188.0
2632,B-3,260.0,2.0,95,188.0
2633,B-4,260.5,0.5,112,188.0
2634,E-3,260.5,0.25,56,188.0
2635,E1,261.0,79/500,86,188.0
2636,F#4,261.0,1.0,112,188.0
2637,C#2,261.0,0.25,94,188.0
2638,E-3,261.0,0.25,76,188.0
2639,E-2,261.5,121/500,91,188.0
2640,F4,261.5,0.5,112,188.0
2641,B1,261.5,0.25,70,188.0
2642,E-3,261.5,0.25,56,188.0
2643,G#2,262.0,124/125,91,188.0
2644,E4,262.0,0.5,112,188.0
2645,B1,262.0,0.25,70,188.0
2646,E-3,262.0,0.25,76,188.0
2647,G#4,262.0,2.0,95,188.0
2648,E-4,262.0,2.0,95,188.0
2649,C4,262.0,2.0,95,188.0
2650,C#2,262.5,0.25,94,188.0
2651,E-3,262.5,0.25,56,188.0
2652,E1,263.0,79/500,86,188.0
2653,A4,263.0,0.5,112,188.0
2654,C#2,263.0,0.25,94,188.0
2655,E-3,263.0,0.25,76,188.0
2656,E-2,263.5,121/500,91,188.0
2657,B1,263.5,0.25,70,188.0
2658,E-3,263.5,0.25,56,188.0
2659,G#2,264.0,124/125,91,188.0
2660,G#4,264.0,0.5,112,188.0
2661,B1,264.0,0.25,70,188.0
2662,E-3,264.0,0.25,76,188.0
2663,E-4,264.5,1.0,95,188.0
2664,F#4,264.5,0.5,112,188.0
2665,E-3,264.5,0.25,56,188.0
2666,B3,264.5,1.5,95,188.0
2667,G#4,264.5,1.5,95,188.0
2668,E1,265.0,79/500,86,188.0
2669,E-4,265.0,1.0,112,188.0
2670,C#2,265.0,0.25,94,188.0
2671,E-3,265.0,0.25,76,188.0
2672,G#2,265.5,121/500,91,188.0
2673,B1,265.5,0.25,70,188.0
2674,E-3,265.5,0.25,56,188.0
2675,C#2,266.0,124/125,91,188.0
2676,D4,266.0,0.5,112,188.0
2677,B1,266.0,0.25,70,188.0
2678,E-3,266.0,0.25,76,188.0
2679,B3,266.0,2.0,95,188.0
2680,F#4,266.0,2.0,95,188.0
2681,C#4,266.0,2.0,95,188.0
2682,G#3,266.0,2.0,95,188.0
2683,F4,266.5,0.5,112,188.0
2684,E-3,266.5,0.25,56,188.0
2685,E1,267.0,79/500,86,188.0
2686,C#2,267.0,0.25,94,188.0
2687,E-3,267.0,0.25,76,188.0
2688,C#2,267.5,121/500,91,188.0
2689,B1,267.5,0.25,70,188.0
2690,E-3,267.5,0.25,56,188.0
2691,C#4,267.5,0.5,98,188.0
2692,F#3,267.5,0.5,98,188.0
2693,B3,267.5,0.5,98,188.0
2694,E-4,267.5,0.5,98,188.0
2695,F#4,267.5,0.5,98,188.0
2696,F#2,268.0,124/125,91,188.0
2697,B1,268.0,0.25,70,188.0
2698,E-3,268.0,0.25,76,188.0
2699,G#4,268.5,0.5,112,188.0
2700,C#2,268.5,0.25,94,188.0
2701,E-3,268.5,0.25,56,188.0
2702,E1,269.0,79/500,86,188.0
2703,A4,269.0,0.5,112,188.0
2704,E-3,269.0,0.25,76,188.0
2705,A3,269.0,1.5,95,188.0
2706,D4,269.0,1.5,95,188.0
2707,E-3,269.0,1.5,95,188.0
2708,B-3,269.0,1.5,95,188.0
2709,F#2,269.5,121/500,91,188.0
2710,B-4,269.5,0.5,112,188.0
2711,C#2,269.5,0.25,94,188.0
2712,E-3,269.5,0.25,56,188.0
2713,C2,270.0,124/125,91,188.0
2714,B1,270.0,0.25,70,188.0
2715,E-3,270.0,0.25,76,188.0
2716,C#2,270.5,0.25,94,188.0
2717,E-3,270.5,0.25,56,188.0
2718,A3,270.5,0.5,98,188.0
2719,E-3,270.5,0.5,98,188.0
2720,B-3,270.5,0.5,98,188.0
2721,D4,270.5,0.5,98,188.0
2722,C5,270.5,0.5,98,188.0
2723,E1,271.0,79/500,86,188.0
2724,C#2,271.0,0.25,94,188.0
2725,E-3,271.0,0.25,76,188.0
2726,C2,271.5,121/500,91,188.0
2727,C#5,271.5,0.5,112,188.0
2728,B1,271.5,0.25,70,188.0
2729,E-3,271.5,0.25,56,188.0
2730,B1,272.0,124/125,91,188.0
2731,E-5,272.0,0.5,112,188.0
2732,B1,272.0,0.25,70,188.0
2733,E-3,272.0,0.25,76,188.0
2734,F#3,272.0,1.5,95,188.0
2735,B-3,272.0,1.5,95,188.0
2736,C#4,272.0,1.5,95,188.0
2737,E-4,272.0,1.5,95,188.0
2738,F5,272.5,0.5,112,188.0
2739,E-3,272.5,0.25,56,188.0
2740,E1,273.0,79/500,86,188.0
2741,C#2,273.0,0.25,94,188.0
2742,E-3,273.0,0.25,76,188.0
2743,B1,273.5,121/500,91,188.0
2744,B1,273.5,0.25,70,188.0
2745,E-3,273.5,0.25,56,188.0
2746,F3,273.5,0.5,98,188.0
2747,B-3,273.5,0.5,98,188.0
2748,C#4,273.5,0.5,98,188.0
2749,E-4,273.5,0.5,98,188.0
2750,F#5,273.5,0.5,98,188.0
2751,B-1,274.0,124/125,91,188.0
2752,B1,274.0,0.25,70,188.0
2753,E-3,274.0,0.25,76,188.0
2754,G#5,274.5,0.5,112,188.0
2755,E-3,274.5,0.25,56,188.0
2756,E1,275.0,79/500,86,188.0
2757,B-5,275.0,0.5,112,188.0
2758,C#2,275.0,0.25,94,188.0
2759,E-3,275.0,0.25,76,188.0
2760,G#3,275.0,1.0,95,188.0
2761,B-3,275.0,1.0,95,188.0
2762,C#4,275.0,1.0,95,188.0
2763,F4,275.0,1.0,95,188.0
2764,B-1,275.5,121/500,91,188.0
2765,F5,275.5,0.5,112,188.0
2766,B1,275.5,0.25,70,188.0
2767,E-3,275.5,0.25,56,188.0
2768,G#1,276.0,124/125,91,188.0
2769,B1,276.0,0.25,70,188.0
2770,E-3,276.0,0.25,76,188.0
2771,G#3,276.0,1.5,95,188.0
2772,B-3,276.0,1.5,95,188.0
2773,C#4,276.0,1.5,95,188.0
2774,F4,276.0,1.5,95,188.0
2775,C#2,276.5,0.25,94,188.0
2776,E-3,276.5,0.25,56,188.0
2777,E1,277.0,79/500,86,188.0
2778,C#2,277.0,0.25,94,188.0
2779,E-3,277.0,0.25,76,188.0
2780,G#1,277.5,121/500,91,188.0
2781,G#5,277.5,0.5,112,188.0
2782,B1,277.5,0.25,70,188.0
2783,E-3,277.5,0.25,56,188.0
2784,C#2,278.0,124/125,91,188.0
2785,E-5,278.0,0.5,112,188.0
2786,B1,278.0,0.25,70,188.0
2787,E-3,278.0,0.25,76,188.0
2788,C#2,278.5,0.25,94,188.0
2789,E-3,278.5,0.25,56,188.0
2790,C#4,278.5,1.5,95,188.0
2791,B-3,278.5,1.5,95,188.0
2792,E-4,278.5,1.5,95,188.0
2793,F#4,278.5,1.5,95,188.0
2794,E1,279.0,79/500,86,188.0
2795,C#2,279.0,0.25,94,188.0
2796,E-3,279.0,0.25,76,188.0
2797,G#1,279.5,121/500,91,188.0
2798,F#5,279.5,0.5,112,188.0
2799,B1,279.5,0.25,70,188.0
2800,E-3,279.5,0.25,56,188.0
2801,C2,280.0,124/125,91,188.0
2802,D5,280.0,0.5,112,188.0
2803,B1,280.0,0.25,70,188.0
2804,E-3,280.0,0.25,76,188.0
2805,E-4,280.5,3.5,95,188.0
2806,F#4,280.5,2.0,95,188.0
2807,B-4,280.5,1.5,95,188.0
2808,F5,280.5,0.5,112,188.0
2809,E-3,280.5,0.25,56,188.0
2810,F#3,280.5,3.5,95,188.0
2811,B-3,280.5,3.5,95,188.0
2812,E1,281.0,79/500,86,188.0
2813,E-5,281.0,0.5,112,188.0
2814,C#2,281.0,0.25,94,188.0
2815,E-3,281.0,0.25,76,188.0
2816,C2,281.5,121/500,91,188.0
2817,B-4,281.5,2.5,112,188.0
2818,B1,281.5,0.25,70,188.0
2819,E-3,281.5,0.25,56,188.0
2820,C2,282.0,124/125,91,188.0
2821,F#4,282.0,2.0,112,188.0
2822,B1,282.0,0.25,70,188.0
2823,E-3,282.0,0.25,76,188.0
2824,F4,282.5,0.5,112,188.0
2825,E-3,282.5,0.25,56,188.0
2826,E1,283.0,79/500,86,188.0
2827,E4,283.0,0.5,112,188.0
2828,C#2,283.0,0.25,94,188.0
2829,E-3,283.0,0.25,76,188.0
2830,C2,283.5,121/500,91,188.0
2831,E-4,283.5,0.5,112,188.0
2832,B1,283.5,0.25,70,188.0
2833,E-3,283.5,0.25,56,188.0
2834,B1,284.0,371/500,91,188.0
2835,B1,284.0,0.25,70,188.0
2836,E-3,284.0,0.25,76,188.0
2837,C#2,284.5,0.25,94,188.0
2838,E-3,284.5,0.25,56,188.0
2839,B1,285.0,373/250,91,188.0
2840,D4,285.0,0.5,112,188.0
2841,E-4,285.0,1.0,112,188.0
2842,F#4,285.0,1.0,112,188.0
2843,B-4,285.0,1.0,112,188.0
2844,E-3,285.0,0.25,76,188.0
2845,F#3,285.0,1.0,95,188.0
2846,B-3,285.0,1.0,95,188.0
2847,B3,285.5,3.5,95,188.0
2848,F#4,285.5,0.5,112,188.0
2849,C#2,285.5,0.25,94,188.0
2850,E-3,285.5,0.25,56,188.0
2851,A4,286.0,0.5,112,188.0
2852,B1,286.0,0.25,70,188.0
2853,E-3,286.0,0.25,76,188.0
2854,B-4,286.0,3.0,95,188.0
2855,F#4,286.0,3.0,95,188.0
2856,E-1,286.5,79/500,86,188.0
2857,C5,286.5,0.25,112,188.0
2858,E5,286.5,0.5,112,188.0
2859,C#2,286.5,0.25,94,188.0
2860,E-3,286.5,0.25,56,188.0
2861,C#5,286.667,0.25,112,188.0
2862,B1,287.0,367/1000,91,188.0
2863,C#2,287.0,0.25,94,188.0
2864,E-3,287.0,0.25,76,188.0
2865,B1,287.5,121/500,96,188.0
2866,B1,287.5,0.25,70,188.0
2867,E-3,287.5,0.25,56,188.0
2868,E5,287.5,0.5,112,188.0
2869,B4,287.5,0.5,112,188.0
2870,F#1,288.0,124/125,91,188.0
2871,A4,288.0,0.5,112,188.0
2872,B1,288.0,0.25,70,188.0
2873,E-3,288.0,0.25,76,188.0
2874,B4,288.5,0.5,112,188.0
2875,E-3,288.5,0.25,56,188.0
2876,E1,289.0,79/500,86,188.0
2877,G#4,289.0,3.5,95,188.0
2878,B-4,289.0,0.5,112,188.0
2879,C#2,289.0,0.25,94,188.0
2880,E-3,289.0,0.25,76,188.0
2881,B-3,289.0,4.0,95,188.0
2882,C#4,289.0,4.0,95,188.0
2883,F4,289.0,4.0,95,188.0
2884,F#1,289.5,121/500,91,188.0
2885,B1,289.5,0.25,70,188.0
2886,E-3,289.5,0.25,56,188.0
2887,F#2,290.0,373/250,91,188.0
2888,C#5,290.0,0.5,112,188.0
2889,B1,290.0,0.25,70,188.0
2890,E-3,290.0,0.25,76,188.0
2891,E-3,290.5,0.25,56,188.0
2892,C#2,291.0,0.25,94,188.0
2893,E-3,291.0,0.25,76,188.0
2894,F#4,291.0,0.5,112,188.0
2895,F#5,291.0,0.5,112,188.0
2896,E1,291.5,79/500,86,188.0
2897,B1,291.5,0.25,70,188.0
2898,E-3,291.5,0.25,56,188.0
2899,A3,291.5,1.5,95,188.0
2900,E4,291.5,1.5,95,188.0
2901,F#1,292.0,124/125,91,188.0
2902,G#4,292.0,1.0,112,188.0
2903,G#5,292.0,0.5,112,188.0
2904,B1,292.0,0.25,70,188.0
2905,E-3,292.0,0.25,76,188.0
2906,E-3,292.5,0.25,56,188.0
2907,A4,292.5,0.5,112,188.0
2908,A5,292.5,0.5,112,188.0
2909,E1,293.0,79/500,86,188.0
2910,C#2,293.0,0.25,94,188.0
2911,E-3,293.0,0.25,76,188.0
2912,C#4,293.0,2.0,95,188.0
2913,E-4,293.0,2.0,95,188.0
2914,G#3,293.0,2.0,95,188.0
2915,F#1,293.5,121/500,91,188.0
2916,B1,293.5,0.25,70,188.0
2917,E-3,293.5,0.25,56,188.0
2918,G#4,293.5,0.5,112,188.0
2919,G#5,293.5,0.5,112,188.0
2920,F#2,294.0,124/125,91,188.0
2921,B1,294.0,0.25,70,188.0
2922,E-3,294.0,0.25,76,188.0
2923,C#2,294.5,0.25,94,188.0
2924,E-3,294.5,0.25,56,188.0
2925,F#4,294.5,0.5,112,188.0
2926,F#5,294.5,0.5,112,188.0
2927,E1,295.0,79/500,86,188.0
2928,C#2,295.0,0.25,94,188.0
2929,E-3,295.0,0.25,76,188.0
2930,F#1,295.5,121/500,91,188.0
2931,B1,295.5,0.25,70,188.0
2932,E-3,295.5,0.25,56,188.0
2933,E4,295.5,1.5,95,188.0
2934,A3,295.5,1.5,95,188.0
2935,G#4,295.5,0.5,112,188.0
2936,G#5,295.5,0.5,112,188.0
2937,F#1,296.0,124/125,91,188.0
2938,B1,296.0,0.25,70,188.0
2939,E-3,296.0,0.25,76,188.0
2940,C#4,296.0,0.5,112,188.0
2941,C#5,296.0,0.5,112,188.0
2942,E-3,296.5,0.25,56,188.0
2943,C#4,296.5,0.5,112,188.0
2944,C#5,296.5,0.5,112,188.0
2945,E1,297.0,79/500,86,188.0
2946,F5,297.0,0.5,112,188.0
2947,C#2,297.0,0.25,94,188.0
2948,E-3,297.0,0.25,76,188.0
2949,C#4,297.0,2.0,95,188.0
2950,B-3,297.0,2.0,95,188.0
2951,F4,297.0,2.0,95,188.0
2952,F#1,297.5,121/500,91,188.0
2953,E5,297.5,0.5,112,188.0
2954,B1,297.5,0.25,70,188.0
2955,E-3,297.5,0.25,56,188.0
2956,F#2,298.0,124/125,91,188.0
2957,E-5,298.0,0.5,112,188.0
2958,B1,298.0,0.25,70,188.0
2959,E-3,298.0,0.25,76,188.0
2960,D5,298.5,0.5,112,188.0
2961,E-3,298.5,0.25,56,188.0
2962,E1,299.0,79/500,86,188.0
2963,C#5,299.0,0.5,112,188.0
2964,C#2,299.0,0.25,94,188.0
2965,E-3,299.0,0.25,76,188.0
2966,F#1,299.5,0.5,91,188.0
2967,E5,299.5,0.5,112,188.0
2968,B1,299.5,0.25,70,188.0
2969,E-3,299.5,0.25,56,188.0
2970,A3,299.5,1.5,95,188.0
2971,C#4,299.5,1.5,95,188.0
2972,E4,299.5,1.5,95,188.0
2973,F#1,300.0,124/125,91,188.0
2974,E-5,300.0,0.5,112,188.0
2975,B1,300.0,0.25,70,188.0
2976,E-3,300.0,0.25,76,188.0
2977,D5,300.5,0.5,112,188.0
2978,C#2,300.5,0.25,94,188.0
2979,E-3,300.5,0.25,56,188.0
2980,E1,301.0,79/500,86,188.0
2981,C#5,301.0,0.5,112,188.0
2982,E-3,301.0,0.25,76,188.0
2983,C#4,301.0,2.0,95,188.0
2984,G#3,301.0,2.0,95,188.0
2985,E-4,301.0,2.0,95,188.0
2986,F#1,301.5,121/500,91,188.0
2987,E-5,301.5,0.5,112,188.0
2988,C#2,301.5,0.25,94,188.0
2989,E-3,301.5,0.25,56,188.0
2990,F#2,302.0,373/250,91,188.0
2991,D5,302.0,0.5,112,188.0
2992,B1,302.0,0.25,70,188.0
2993,E-3,302.0,0.25,76,188.0
2994,C#2,302.5,0.25,94,188.0
2995,E-3,302.5,0.25,56,188.0
2996,C#4,302.5,0.5,104,188.0
2997,C5,302.5,0.5,104,188.0
2998,C#5,303.0,0.5,112,188.0
2999,B1,303.0,0.25,70,188.0
3000,E-3,303.0,0.25,76,188.0
3001,E1,303.5,79/500,86,188.0
3002,D5,303.5,0.5,112,188.0
3003,C#2,303.5,0.25,94,188.0
3004,E-3,303.5,0.25,56,188.0
3005,B-3,303.5,1.5,95,188.0
3006,B-4,303.5,1.5,95,188.0
3007,E-4,303.5,1.5,95,188.0
3008,F#4,303.5,1.5,95,188.0
3009,E-2,304.0,124/125,91,188.0
3010,F#5,304.0,0.5,112,188.0
3011,B1,304.0,0.25,70,188.0
3012,E-3,304.0,0.25,76,188.0
3013,A5,304.5,0.5,112,188.0
3014,E-3,304.5,0.25,56,188.0
3015,E1,305.0,79/500,86,188.0
3016,C6,305.0,0.5,112,188.0
3017,C#2,305.0,0.25,94,188.0
3018,E-3,305.0,0.25,76,188.0
3019,E-4,305.0,2.0,95,188.0
3020,B-3,305.0,2.0,95,188.0
3021,F#4,305.0,2.0,95,188.0
3022,C#4,305.0,2.0,95,188.0
3023,E-2,305.5,121/500,91,188.0
3024,B-5,305.5,0.5,112,188.0
3025,B1,305.5,0.25,70,188.0
3026,E-3,305.5,0.25,56,188.0
3027,G#1,306.0,124/125,91,188.0
3028,B1,306.0,0.25,70,188.0
3029,E-3,306.0,0.25,76,188.0
3030,E-3,306.5,0.25,56,188.0
3031,B-3,306.5,0.5,98,188.0
3032,C#4,306.5,0.5,98,188.0
3033,E-4,306.5,0.5,98,188.0
3034,F#4,306.5,0.5,98,188.0
3035,C6,306.5,0.5,98,188.0
3036,E1,307.0,79/500,86,188.0
3037,C#2,307.0,0.25,94,188.0
3038,E-3,307.0,0.25,76,188.0
3039,G#1,307.5,121/500,91,188.0
3040,B1,307.5,0.25,70,188.0
3041,E-3,307.5,0.25,56,188.0
3042,C#4,307.5,0.5,98,188.0
3043,B-3,307.5,0.5,98,188.0
3044,E-4,307.5,0.5,98,188.0
3045,F#4,307.5,0.5,98,188.0
3046,C#6,307.5,0.5,98,188.0
3047,G#1,308.0,124/125,91,188.0
3048,B-5,308.0,0.5,112,188.0
3049,B1,308.0,0.25,70,188.0
3050,E-3,308.0,0.25,76,188.0
3051,G#3,308.0,1.0,95,188.0
3052,B3,308.0,1.0,95,188.0
3053,E-4,308.0,1.0,95,188.0
3054,F#4,308.0,1.0,95,188.0
3055,G#5,308.5,0.5,112,188.0
3056,E-3,308.5,0.25,56,188.0
3057,E1,309.0,79/500,86,188.0
3058,C#2,309.0,0.25,94,188.0
3059,E-3,309.0,0.25,76,188.0
3060,G#3,309.0,0.5,95,188.0
3061,B3,309.0,0.5,95,188.0
3062,E-4,309.0,0.5,95,188.0
3063,F#4,309.0,0.5,95,188.0
3064,G#1,309.5,121/500,91,188.0
3065,B1,309.5,0.25,70,188.0
3066,E-3,309.5,0.25,56,188.0
3067,F#3,309.5,0.5,99,188.0
3068,C4,309.5,0.5,99,188.0
3069,E-4,309.5,0.5,99,188.0
3070,B-5,309.5,0.5,99,188.0
3071,C#2,310.0,124/125,91,188.0
3072,B1,310.0,0.25,70,188.0
3073,E-3,310.0,0.25,76,188.0
3074,C#2,310.5,0.25,94,188.0
3075,E-3,310.5,0.25,56,188.0
3076,G3,310.5,0.5,99,188.0
3077,E4,310.5,0.5,99,188.0
3078,B3,310.5,0.5,99,188.0
3079,B5,310.5,0.5,99,188.0
3080,E1,311.0,79/500,86,188.0
3081,G5,311.0,0.5,112,188.0
3082,C#2,311.0,0.25,94,188.0
3083,E-3,311.0,0.25,76,188.0
3084,G3,311.0,1.5,95,188.0
3085,B3,311.0,1.5,95,188.0
3086,E4,311.0,1.5,95,188.0
3087,G1,311.5,0.5,91,188.0
3088,F5,311.5,0.5,112,188.0
3089,B1,311.5,0.25,70,188.0
3090,E-3,311.5,0.25,56,188.0
3091,C#3,311.992,1/125,92,188.0
3092,G1,312.0,373/250,91,188.0
3093,B1,312.0,0.25,70,188.0
3094,C#3,312.0,121/500,92,188.0
3095,F3,312.5,0.25,56,188.0
3096,F3,312.5,0.5,99,188.0
3097,B3,312.5,0.5,99,188.0
3098,E-4,312.5,0.5,99,188.0
3099,G5,312.5,0.5,99,188.0
3100,E-3,313.0,0.25,76,188.0
3101,G1,313.5,121/500,91,188.0
3102,B1,313.5,0.25,70,188.0
3103,E-3,313.5,0.25,56,188.0
3104,F#3,313.5,0.5,99,188.0
3105,C4,313.5,0.5,99,188.0
3106,E4,313.5,0.5,99,188.0
3107,A5,313.5,0.5,99,188.0
3108,G2,314.0,249/125,91,188.0
3109,F#5,314.0,0.5,112,188.0
3110,B1,314.0,0.25,70,188.0
3111,E2,314.0,0.25,86,188.0
3112,E-3,314.0,0.25,76,188.0
3113,E4,314.0,1.5,95,188.0
3114,C4,314.0,1.5,95,188.0
3115,F#3,314.0,1.5,95,188.0
3116,E5,314.5,0.5,112,188.0
3117,E-3,314.5,0.25,56,188.0
3118,E-3,315.0,0.25,76,188.0
3119,B1,315.5,0.25,70,188.0
3120,E-3,315.5,0.25,56,188.0
3121,E4,315.5,0.5,99,188.0
3122,C#4,315.5,0.5,99,188.0
3123,F#3,315.5,0.5,99,188.0
3124,F#5,315.5,0.5,99,188.0
3125,F#2,316.0,124/125,91,188.0
3126,B1,316.0,0.25,70,188.0
3127,E-3,316.0,0.25,76,188.0
3128,E-3,316.5,0.25,56,188.0
3129,B-3,316.5,0.5,98,188.0
3130,E4,316.5,0.5,98,188.0
3131,C#4,316.5,0.5,98,188.0
3132,F#3,316.5,0.5,98,188.0
3133,G5,316.5,0.5,98,188.0
3134,E1,317.0,79/500,86,188.0
3135,E5,317.0,0.5,112,188.0
3136,E-3,317.0,0.25,76,188.0
3137,F#4,317.0,2.0,95,188.0
3138,E4,317.0,2.0,95,188.0
3139,B3,317.0,2.0,95,188.0
3140,G#3,317.0,2.0,95,188.0
3141,B1,317.5,121/500,91,188.0
3142,E-5,317.5,0.5,112,188.0
3143,B1,317.5,0.25,70,188.0
3144,E-3,317.5,0.25,56,188.0
3145,B1,318.0,124/125,91,188.0
3146,E5,318.0,0.5,112,188.0
3147,B1,318.0,0.25,70,188.0
3148,E2,318.0,0.25,86,188.0
3149,E-3,318.0,0.25,76,188.0
3150,F5,318.5,0.5,112,188.0
3151,E-3,318.5,0.25,56,188.0
3152,E1,319.0,79/500,86,188.0
3153,F#5,319.0,0.5,112,188.0
3154,E-3,319.0,0.25,76,188.0
3155,F#3,319.0,2.0,95,188.0
3156,E4,319.0,2.0,95,188.0
3157,F#4,319.0,2.0,95,188.0
3158,B3,319.0,2.0,95,188.0
3159,A1,319.5,121/500,91,188.0
3160,E-5,319.5,0.5,112,188.0
3161,B1,319.5,0.25,70,188.0
3162,E-3,319.5,0.25,56,188.0
3163,A1,320.0,124/125,91,188.0
3164,D5,320.0,0.5,112,188.0
3165,B1,320.0,0.25,70,188.0
3166,E-3,320.0,0.25,76,188.0
3167,C#5,320.5,0.5,112,188.0
3168,E-3,320.5,0.25,56,188.0
3169,E1,321.0,79/500,86,188.0
3170,C5,321.0,0.5,112,188.0
3171,E-3,321.0,0.25,76,188.0
3172,A1,321.5,121/500,91,188.0
3173,B-4,321.5,0.5,112,188.0
3174,B1,321.5,0.25,70,188.0
3175,E-3,321.5,0.25,56,188.0
3176,F#3,321.5,1.5,95,188.0
3177,B3,321.5,1.5,95,188.0
3178,D4,321.5,1.5,95,188.0
3179,E2,322.0,124/125,91,188.0
3180,B4,322.0,0.5,112,188.0
3181,B1,322.0,0.25,70,188.0
3182,E2,322.0,0.25,86,188.0
3183,E-3,322.0,0.25,76,188.0
3184,E-3,322.5,0.25,56,188.0
3185,A5,322.5,0.5,112,188.0
3186,E5,322.5,0.5,112,188.0
3187,F#5,322.5,0.5,112,188.0
3188,A2,323.0,124/125,91,188.0
3189,E-3,323.0,0.25,76,188.0
3190,F#5,323.5,0.5,112,188.0
3191,B1,323.5,0.25,70,188.0
3192,E-3,323.5,0.25,56,188.0
3193,D4,323.5,1.5,95,188.0
3194,B3,323.5,1.5,95,188.0
3195,F#3,323.5,1.5,95,188.0
3196,D2,324.0,124/125,91,188.0
3197,D5,324.0,0.5,112,188.0
3198,B1,324.0,0.25,70,188.0
3199,E-3,324.0,0.25,76,188.0
3200,B4,324.5,0.5,112,188.0
3201,E-3,324.5,0.25,56,188.0
3202,E1,325.0,79/500,86,188.0
3203,G#4,325.0,0.5,112,188.0
3204,E-3,325.0,0.25,76,188.0
3205,C#4,325.0,2.0,95,188.0
3206,A3,325.0,2.0,95,188.0
3207,F#3,325.0,2.0,95,188.0
3208,D2,325.5,121/500,91,188.0
3209,B1,325.5,0.25,70,188.0
3210,E-3,325.5,0.25,56,188.0
3211,G#2,326.0,124/125,91,188.0
3212,B5,326.0,0.5,112,188.0
3213,B1,326.0,0.25,70,188.0
3214,E2,326.0,0.25,86,188.0
3215,E-3,326.0,0.25,76,188.0
3216,G#5,326.5,0.5,112,188.0
3217,E-3,326.5,0.25,56,188.0
3218,E1,327.0,79/500,86,188.0
3219,C6,327.0,0.5,112,188.0
3220,E-3,327.0,0.25,76,188.0
3221,D4,327.0,2.0,95,188.0
3222,E4,327.0,2.0,95,188.0
3223,C4,327.0,2.0,95,188.0
3224,G#3,327.0,2.0,95,188.0
3225,G#2,327.5,121/500,91,188.0
3226,G#5,327.5,0.5,112,188.0
3227,B1,327.5,0.25,70,188.0
3228,E-3,327.5,0.25,56,188.0
3229,G2,328.0,124/125,91,188.0
3230,E-5,328.0,0.5,112,188.0
3231,B1,328.0,0.25,70,188.0
3232,E-3,328.0,0.25,76,188.0
3233,C5,328.5,0.5,112,188.0
3234,E-3,328.5,0.25,56,188.0
3235,E1,329.0,79/500,86,188.0
3236,C#5,329.0,0.5,112,188.0
3237,E-3,329.0,0.25,76,188.0
3238,B3,329.0,4.0,95,188.0
3239,D4,329.0,4.0,95,188.0
3240,F#4,329.0,4.0,95,188.0
3241,G4,329.0,4.0,95,188.0
3242,D2,329.5,121/500,91,188.0
3243,D5,329.5,0.5,112,188.0
3244,B1,329.5,0.25,70,188.0
3245,E-3,329.5,0.25,56,188.0
3246,G2,330.0,371/500,91,188.0
3247,B1,330.0,0.25,70,188.0
3248,E2,330.0,0.25,86,188.0
3249,E-3,330.0,0.25,76,188.0
3250,F#5,330.5,0.5,112,188.0
3251,E-3,330.5,0.25,56,188.0
3252,F#2,331.0,371/500,91,188.0
3253,E-3,331.0,0.25,76,188.0
3254,A5,331.5,0.5,112,188.0
3255,B1,331.5,0.25,70,188.0
3256,E-3,331.5,0.25,56,188.0
3257,E2,332.0,124/125,91,188.0
3258,B1,332.0,0.25,70,188.0
3259,E-3,332.0,0.25,76,188.0
3260,B5,332.5,0.5,112,188.0
3261,E-3,332.5,0.25,56,188.0
3262,E1,333.0,79/500,86,188.0
3263,C#6,333.0,0.5,112,188.0
3264,E-3,333.0,0.25,76,188.0
3265,G3,333.0,2.0,95,188.0
3266,B3,333.0,2.0,95,188.0
3267,E4,333.0,2.0,95,188.0
3268,E2,333.5,121/500,91,188.0
3269,E6,333.5,0.5,112,188.0
3270,B1,333.5,0.25,70,188.0
3271,E-3,333.5,0.25,56,188.0
3272,F#2,334.0,124/125,91,188.0
3273,C6,334.0,167/1000,112,188.0
3274,B1,334.0,0.25,70,188.0
3275,E2,334.0,0.25,86,188.0
3276,E-3,334.0,0.25,76,188.0
3277,C#6,334.167,667/1000,112,188.0
3278,E-3,334.5,0.25,56,188.0
3279,E1,335.0,79/500,86,188.0
3280,E-3,335.0,0.25,76,188.0
3281,E4,335.0,2.0,95,188.0
3282,C#4,335.0,2.0,95,188.0
3283,A3,335.0,2.0,95,188.0
3284,F#2,335.5,121/500,91,188.0
3285,B1,335.5,0.25,70,188.0
3286,E-3,335.5,0.25,56,188.0
3287,B2,336.0,124/125,91,188.0
3288,B1,336.0,0.25,70,188.0
3289,E-3,336.0,0.25,76,188.0
3290,C#5,336.5,0.5,112,188.0
3291,E-3,336.5,0.25,56,188.0
3292,B3,336.5,0.5,95,188.0
3293,D4,336.5,0.5,95,188.0
3294,F#4,336.5,0.5,95,188.0
3295,E1,337.0,79/500,86,188.0
3296,E-3,337.0,0.25,76,188.0
3297,B3,337.0,2.0,95,188.0
3298,D4,337.0,2.0,95,188.0
3299,F#4,337.0,2.0,95,188.0
3300,D5,337.5,0.5,112,188.0
3301,B1,337.5,0.25,70,188.0
3302,E-3,337.5,0.25,56,188.0
3303,A2,338.0,124/125,91,188.0
3304,F#5,338.0,0.5,112,188.0
3305,E2,338.0,0.25,86,188.0
3306,E-3,338.0,0.25,76,188.0
3307,A5,338.5,0.5,112,188.0
3308,E-3,338.5,0.25,56,188.0
3309,E1,339.0,79/500,86,188.0
3310,B-5,339.0,0.5,112,188.0
3311,E-3,339.0,0.25,76,188.0
3312,C4,339.0,2.0,95,188.0
3313,E4,339.0,2.0,95,188.0
3314,G3,339.0,2.0,95,188.0
3315,D3,339.5,0.5,91,188.0
3316,B5,339.5,0.5,112,188.0
3317,B1,339.5,0.25,70,188.0
3318,E-3,339.5,0.25,56,188.0
3319,D3,340.0,123/250,91,188.0
3320,C6,340.0,0.5,112,188.0
3321,B1,340.0,0.25,70,188.0
3322,E-3,340.0,0.25,76,188.0
3323,E1,340.5,79/500,86,188.0
3324,E-3,340.5,0.25,56,188.0
3325,C4,340.5,0.5,99,188.0
3326,F#3,340.5,0.5,99,188.0
3327,E4,340.5,0.5,99,188.0
3328,C#6,340.5,0.5,99,188.0
3329,B-2,341.0,124/125,91,188.0
3330,D6,341.0,0.5,112,188.0
3331,E-3,341.0,0.25,76,188.0
3332,C6,341.5,0.5,112,188.0
3333,B1,341.5,0.25,70,188.0
3334,E-3,341.5,0.25,56,188.0
3335,E1,342.0,79/500,86,188.0
3336,C#6,342.0,0.5,112,188.0
3337,B1,342.0,0.25,70,188.0
3338,E2,342.0,0.25,86,188.0
3339,E-3,342.0,0.25,76,188.0
3340,B-3,342.0,1.5,95,188.0
3341,F#3,342.0,1.5,95,188.0
3342,E-4,342.0,1.5,95,188.0
3343,C#2,342.5,124/125,91,188.0
3344,F6,342.5,0.5,112,188.0
3345,E-3,342.5,0.25,56,188.0
3346,C#6,343.0,0.5,112,188.0
3347,E-3,343.0,0.25,76,188.0
3348,E1,343.5,79/500,86,188.0
3349,B1,343.5,0.25,70,188.0
3350,E-3,343.5,0.25,56,188.0
3351,B-3,343.5,0.5,99,188.0
3352,E-4,343.5,0.5,99,188.0
3353,F3,343.5,0.5,99,188.0
3354,B5,343.5,0.5,99,188.0
3355,G3,343.992,1/125,82,188.0
3356,F#2,344.0,124/125,91,188.0
3357,B-5,344.0,0.5,112,188.0
3358,B1,344.0,0.25,70,188.0
3359,G3,344.0,121/500,82,188.0
3360,E-3,344.0,0.25,76,188.0
3361,E-3,344.5,0.25,56,188.0
3362,E1,345.0,79/500,86,188.0
3363,E-3,345.0,0.25,76,188.0
3364,C#4,345.0,4.0,95,188.0
3365,F4,345.0,4.0,95,188.0
3366,B-3,345.0,4.0,95,188.0
3367,F#3,345.0,4.0,95,188.0
3368,C#2,345.5,121/500,91,188.0
3369,A5,345.5,0.5,112,188.0
3370,B1,345.5,0.25,70,188.0
3371,E-3,345.5,0.25,56,188.0
3372,F#2,346.0,123/250,91,188.0
3373,B-5,346.0,0.5,112,188.0
3374,B1,346.0,0.25,70,188.0
3375,E2,346.0,0.25,86,188.0
3376,E-3,346.0,0.25,76,188.0
3377,E1,346.5,79/500,86,188.0
3378,B5,346.5,0.5,112,188.0
3379,E-3,346.5,0.25,56,188.0
3380,F#2,347.0,124/125,96,188.0
3381,C6,347.0,0.5,112,188.0
3382,E-3,347.0,0.25,76,188.0
3383,C#6,347.5,0.5,112,188.0
3384,B1,347.5,0.25,70,188.0
3385,E-3,347.5,0.25,56,188.0
3386,F2,348.0,124/125,91,188.0
3387,D6,348.0,0.5,112,188.0
3388,B1,348.0,0.25,70,188.0
3389,E-3,348.0,0.25,76,188.0
3390,E-6,348.5,0.5,112,188.0
3391,E-3,348.5,0.25,56,188.0
3392,E1,349.0,79/500,86,188.0
3393,E6,349.0,0.5,112,188.0
3394,E-3,349.0,0.25,76,188.0
3395,B-4,349.0,2.0,95,188.0
3396,B3,349.0,2.0,95,188.0
3397,E-4,349.0,2.0,95,188.0
3398,F4,349.0,2.0,95,188.0
3399,F2,349.5,121/500,91,188.0
3400,F6,349.5,0.5,112,188.0
3401,B1,349.5,0.25,70,188.0
3402,E-3,349.5,0.25,56,188.0
3403,B-1,350.0,124/125,91,188.0
3404,B1,350.0,0.25,70,188.0
3405,E2,350.0,0.25,86,188.0
3406,E-3,350.0,0.25,76,188.0
3407,F#6,350.5,0.5,112,188.0
3408,E-3,350.5,0.25,56,188.0
3409,E1,351.0,79/500,86,188.0
3410,E-3,351.0,0.25,76,188.0
3411,G#4,351.0,2.0,95,188.0
3412,B3,351.0,2.0,95,188.0
3413,F#4,351.0,2.0,95,188.0
3414,D4,351.0,2.0,95,188.0
3415,B-1,351.5,121/500,91,188.0
3416,E6,351.5,0.5,112,188.0
3417,B1,351.5,0.25,70,188.0
3418,E-3,351.5,0.25,56,188.0
3419,E-2,352.0,124/125,91,188.0
3420,F6,352.0,0.5,112,188.0
3421,B1,352.0,0.25,70,188.0
3422,E-3,352.0,0.25,76,188.0
3423,F#3,352.5,0.5,95,188.0
3424,F#6,352.5,0.5,112,188.0
3425,E-3,352.5,0.25,56,188.0
3426,E1,353.0,79/500,86,188.0
3427,F#3,353.0,4.0,95,188.0
3428,E-3,353.0,0.25,76,188.0
3429,E-2,353.5,121/500,91,188.0
3430,B1,353.5,0.25,70,188.0
3431,E-3,353.5,0.25,56,188.0
3432,B-3,353.667,667/1000,99,188.0
3433,C#4,353.667,667/1000,99,188.0
3434,F#4,353.667,667/1000,99,188.0
3435,E6,353.667,667/1000,99,188.0
3436,G#2,354.0,124/125,91,188.0
3437,B1,354.0,0.25,70,188.0
3438,E2,354.0,0.25,86,188.0
3439,E-3,354.0,0.25,76,188.0
3440,B-3,354.333,667/1000,99,188.0
3441,C#4,354.333,667/1000,99,188.0
3442,F#4,354.333,667/1000,99,188.0
3443,F6,354.333,667/1000,99,188.0
3444,E-3,354.5,0.25,56,188.0
3445,E1,355.0,79/500,86,188.0
3446,E-3,355.0,0.25,76,188.0
3447,B-3,355.0,667/1000,99,188.0
3448,F4,355.0,667/1000,99,188.0
3449,C#4,355.0,667/1000,99,188.0
3450,G#6,355.0,667/1000,99,188.0
3451,E-2,355.5,121/500,91,188.0
3452,B1,355.5,0.25,70,188.0
3453,E-3,355.5,0.25,56,188.0
3454,B-3,355.667,667/1000,99,188.0
3455,F4,355.667,667/1000,99,188.0
3456,C#4,355.667,667/1000,99,188.0
3457,G6,355.667,667/1000,99,188.0
3458,G#2,356.0,124/125,91,188.0
3459,B1,356.0,0.25,70,188.0
3460,E-3,356.0,0.25,76,188.0
3461,B-3,356.333,667/1000,99,188.0
3462,F4,356.333,667/1000,99,188.0
3463,C4,356.333,667/1000,99,188.0
3464,F#6,356.333,667/1000,99,188.0
3465,E-3,356.5,0.25,56,188.0
3466,E1,357.0,79/500,86,188.0
3467,E-3,357.0,0.25,76,188.0
3468,G#2,357.5,121/500,91,188.0
3469,E-6,357.5,0.5,112,188.0
3470,B1,357.5,0.25,70,188.0
3471,E-3,357.5,0.25,56,188.0
3472,B3,357.5,1.0,95,188.0
3473,E-4,357.5,1.0,95,188.0
3474,G#4,357.5,1.0,95,188.0
3475,C#2,358.0,123/250,91,188.0
3476,E6,358.0,0.5,112,188.0
3477,B1,358.0,0.25,70,188.0
3478,E-3,358.0,0.25,76,188.0
3479,E1,358.5,79/500,86,188.0
3480,F#6,358.5,0.5,112,188.0
3481,E2,358.5,0.25,86,188.0
3482,E-3,358.5,0.25,56,188.0
3483,B3,358.5,1.5,95,188.0
3484,G#3,358.5,1.5,95,188.0
3485,C#4,358.5,1.5,95,188.0
3486,F#4,358.5,1.5,95,188.0
3487,F2,359.0,371/500,91,188.0
3488,E-3,359.0,0.25,76,188.0
3489,F6,359.5,0.5,112,188.0
3490,B1,359.5,0.25,70,188.0
3491,E-3,359.5,0.25,56,188.0
3492,F#2,360.0,124/125,91,188.0
3493,C#6,360.0,0.5,112,188.0
3494,B1,360.0,0.25,70,188.0
3495,E-3,360.0,0.25,76,188.0
3496,F#3,360.0,1.0,95,188.0
3497,B-3,360.0,1.0,95,188.0
3498,E-4,360.0,1.0,95,188.0
3499,F#4,360.0,1.0,95,188.0
3500,E-3,360.5,0.25,56,188.0
3501,E1,361.0,79/500,86,188.0
3502,E-3,361.0,0.25,76,188.0
3503,F#3,361.0,1.5,95,188.0
3504,B-3,361.0,1.5,95,188.0
3505,E-4,361.0,1.5,95,188.0
3506,F#4,361.0,1.5,95,188.0
3507,F#2,361.5,121/500,91,188.0
3508,B-5,361.5,0.5,112,188.0
3509,B1,361.5,0.25,70,188.0
3510,E-3,361.5,0.25,56,188.0
3511,C2,362.0,124/125,91,188.0
3512,C#6,362.0,0.5,112,188.0
3513,B1,362.0,0.25,70,188.0
3514,E2,362.0,0.25,86,188.0
3515,E-3,362.0,0.25,76,188.0
3516,F6,362.5,0.5,112,188.0
3517,E-3,362.5,0.25,56,188.0
3518,E1,363.0,79/500,86,188.0
3519,G#6,363.0,0.5,112,188.0
3520,E-3,363.0,0.25,76,188.0
3521,E4,363.0,2.0,95,188.0
3522,C#4,363.0,2.0,95,188.0
3523,B-4,363.0,2.0,95,188.0
3524,C2,363.5,121/500,91,188.0
3525,A6,363.5,0.5,112,188.0
3526,B1,363.5,0.25,70,188.0
3527,E-3,363.5,0.25,56,188.0
3528,B1,364.0,124/125,91,188.0
3529,G#6,364.0,0.5,112,188.0
3530,B1,364.0,0.25,70,188.0
3531,E-3,364.0,0.25,76,188.0
3532,G6,364.5,0.5,112,188.0
3533,E-3,364.5,0.25,56,188.0
3534,E1,365.0,79/500,86,188.0
3535,F#6,365.0,0.5,112,188.0
3536,E-3,365.0,0.25,76,188.0
3537,B1,365.5,121/500,91,188.0
3538,E-6,365.5,0.5,112,188.0
3539,B1,365.5,0.25,70,188.0
3540,E-3,365.5,0.25,56,188.0
3541,B-3,365.5,1.5,95,188.0
3542,B3,365.5,1.5,95,188.0
3543,E-4,365.5,1.5,95,188.0
3544,B-1,366.0,124/125,91,188.0
3545,B-5,366.0,0.5,112,188.0
3546,B1,366.0,0.25,70,188.0
3547,E2,366.0,0.25,86,188.0
3548,E-3,366.0,0.25,76,188.0
3549,A5,366.5,0.5,112,188.0
3550,E-3,366.5,0.25,56,188.0
3551,E1,367.0,79/500,86,188.0
3552,G#5,367.0,0.5,112,188.0
3553,E-3,367.0,0.25,76,188.0
3554,B-1,367.5,121/500,91,188.0
3555,F6,367.5,0.5,112,188.0
3556,B1,367.5,0.25,70,188.0
3557,E-3,367.5,0.25,56,188.0
3558,G#3,367.5,1.5,95,188.0
3559,B-3,367.5,1.5,95,188.0
3560,C#4,367.5,1.5,95,188.0
3561,F4,367.5,1.5,95,188.0
3562,G#1,368.0,124/125,91,188.0
3563,C#6,368.0,0.5,112,188.0
3564,B1,368.0,0.25,70,188.0
3565,E-3,368.0,0.25,76,188.0
3566,E-6,368.5,0.5,112,188.0
3567,E-3,368.5,0.25,56,188.0
3568,E1,369.0,79/500,86,188.0
3569,B-5,369.0,0.5,112,188.0
3570,E-3,369.0,0.25,76,188.0
3571,G#1,369.5,121/500,91,188.0
3572,C#6,369.5,0.5,112,188.0
3573,B1,369.5,0.25,70,188.0
3574,E-3,369.5,0.25,56,188.0
3575,E-4,369.5,3.5,95,188.0
3576,B-3,369.5,3.5,95,188.0
3577,C#4,369.5,3.5,95,188.0
3578,F#4,369.5,3.5,95,188.0
3579,C#2,370.0,124/125,91,188.0
3580,G#5,370.0,0.5,112,188.0
3581,B1,370.0,0.25,70,188.0
3582,E2,370.0,0.25,86,188.0
3583,E-3,370.0,0.25,76,188.0
3584,B5,370.5,0.5,112,188.0
3585,E-3,370.5,0.25,56,188.0
3586,E1,371.0,79/500,86,188.0
3587,F#5,371.0,0.5,112,188.0
3588,E-3,371.0,0.25,76,188.0
3589,G#1,371.5,121/500,91,188.0
3590,B-5,371.5,0.5,112,188.0
3591,B1,371.5,0.25,70,188.0
3592,E-3,371.5,0.25,56,188.0
3593,C2,372.0,124/125,91,188.0
3594,F#5,372.0,0.5,112,188.0
3595,B1,372.0,0.25,70,188.0
3596,E-3,372.0,0.25,76,188.0
3597,G#5,372.5,0.5,112,188.0
3598,E-3,372.5,0.25,56,188.0
3599,E1,373.0,79/500,86,188.0
3600,F5,373.0,0.5,112,188.0
3601,E-3,373.0,0.25,76,188.0
3602,B-4,373.0,4.0,95,188.0
3603,F#4,373.0,4.0,95,188.0
3604,E-4,373.0,4.0,95,188.0
3605,F#3,373.0,4.0,95,188.0
3606,B-3,373.0,4.0,95,188.0
3607,C2,373.5,121/500,91,188.0
3608,F#5,373.5,0.5,112,188.0
3609,B1,373.5,0.25,70,188.0
3610,E-3,373.5,0.25,56,188.0
3611,C2,374.0,124/125,91,188.0
3612,E-5,374.0,0.5,112,188.0
3613,B1,374.0,0.25,70,188.0
3614,E2,374.0,0.25,86,188.0
3615,E-3,374.0,0.25,76,188.0
3616,F5,374.5,0.5,112,188.0
3617,E-3,374.5,0.25,56,188.0
3618,E1,375.0,79/500,86,188.0
3619,D5,375.0,0.5,112,188.0
3620,E-3,375.0,0.25,76,188.0
3621,C2,375.5,121/500,91,188.0
3622,E-5,375.5,0.5,112,188.0
3623,B1,375.5,0.25,70,188.0
3624,E-3,375.5,0.25,56,188.0
3625,G3,375.992,1/125,72,188.0
3626,B1,376.0,371/500,91,188.0
3627,C5,376.0,0.5,112,188.0
3628,B1,376.0,0.25,70,188.0
3629,G3,376.0,121/500,72,188.0
3630,C#5,376.5,0.5,112,188.0
3631,E-3,376.5,0.25,56,188.0
3632,B1,377.0,373/250,91,188.0
3633,E-3,377.0,0.25,76,188.0
3634,D5,377.5,0.5,112,188.0
3635,B1,377.5,0.25,70,188.0
3636,E-3,377.5,0.25,56,188.0
3637,B-4,377.5,0.5,95,188.0
3638,F#4,377.5,0.5,95,188.0
3639,B3,378.0,3.5,95,188.0
3640,F#5,378.0,0.5,112,188.0
3641,B1,378.0,0.25,70,188.0
3642,E-3,378.0,0.25,76,188.0
3643,E1,378.5,79/500,86,188.0
3644,A5,378.5,0.5,112,188.0
3645,E2,378.5,0.25,86,188.0
3646,E-3,378.5,0.25,56,188.0
3647,B-4,378.5,3.0,95,188.0
3648,F#4,378.5,3.0,95,188.0
3649,B1,379.0,367/1000,91,188.0
3650,E2,379.0,0.25,86,188.0
3651,E-3,379.0,0.25,76,188.0
3652,D5,379.0,0.5,112,188.0
3653,C#6,379.0,0.5,112,188.0
3654,G3,379.492,0.25,52,188.0
3655,B1,379.5,121/500,96,188.0
3656,B1,379.5,0.25,70,188.0
3657,G3,379.992,1/125,72,188.0
3658,F#1,380.0,124/125,91,188.0
3659,B1,380.0,0.25,70,188.0
3660,G3,380.0,121/500,72,188.0
3661,C#5,380.0,0.5,112,188.0
3662,C6,380.0,0.5,112,188.0
3663,E-3,380.5,0.25,56,188.0
3664,E1,381.0,79/500,86,188.0
3665,E-3,381.0,0.25,76,188.0
3666,B4,381.0,0.5,112,188.0
3667,B5,381.0,0.5,112,188.0
3668,F#1,381.5,121/500,91,188.0
3669,G#4,381.5,2.0,95,188.0
3670,B1,381.5,0.25,70,188.0
3671,E2,381.5,0.25,86,188.0
3672,E-3,381.5,0.25,56,188.0
3673,B-3,381.5,4.0,95,188.0
3674,C#4,381.5,4.0,95,188.0
3675,F4,381.5,4.0,95,188.0
3676,B-4,381.5,0.5,112,188.0
3677,B-5,381.5,0.5,112,188.0
3678,F#2,382.0,373/250,91,188.0
3679,B1,382.0,0.25,70,188.0
3680,E-3,382.0,0.25,76,188.0
3681,E-3,382.5,0.25,56,188.0
3682,G#5,382.5,0.5,112,188.0
3683,A4,382.5,0.5,112,188.0
3684,F#5,383.0,0.5,112,188.0
3685,G#4,383.0,2.5,112,188.0
3686,E-3,383.0,0.25,76,188.0
3687,E1,383.5,79/500,86,188.0
3688,B1,383.5,0.25,70,188.0
3689,E-3,383.5,0.25,56,188.0
3690,A3,383.5,2.0,95,188.0
3691,E4,383.5,2.0,95,188.0
3692,F#1,384.0,124/125,91,188.0
3693,F#5,384.0,0.5,112,188.0
3694,B1,384.0,0.25,70,188.0
3695,E-3,384.0,0.25,76,188.0
3696,E-3,384.5,0.25,56,188.0
3697,E1,385.0,79/500,86,188.0
3698,E4,385.0,0.5,112,188.0
3699,E-3,385.0,0.25,76,188.0
3700,F#1,385.5,121/500,91,188.0
3701,B1,385.5,0.25,70,188.0
3702,E-3,385.5,0.25,56,188.0
3703,E-4,385.5,2.0,95,188.0
3704,G#3,385.5,2.0,95,188.0
3705,F#2,386.0,124/125,91,188.0
3706,E5,386.0,0.5,112,188.0
3707,B1,386.0,0.25,70,188.0
3708,E-3,386.0,0.25,76,188.0
3709,E2,386.5,0.25,86,188.0
3710,E-3,386.5,0.25,56,188.0
3711,E1,387.0,79/500,86,188.0
3712,E-5,387.0,0.5,112,188.0
3713,E-3,387.0,0.25,76,188.0
3714,F#1,387.5,121/500,91,188.0
3715,B1,387.5,0.25,70,188.0
3716,E-3,387.5,0.25,56,188.0
3717,A3,387.5,2.0,95,188.0
3718,E4,387.5,2.0,95,188.0
3719,F#1,388.0,124/125,91,188.0
3720,D5,388.0,0.5,112,188.0
3721,B1,388.0,0.25,70,188.0
3722,E-3,388.0,0.25,76,188.0
3723,E-3,388.5,0.25,56,188.0
3724,E1,389.0,79/500,86,188.0
3725,C#5,389.0,0.5,112,188.0
3726,E-3,389.0,0.25,76,188.0
3727,F#1,389.5,121/500,91,188.0
3728,B1,389.5,0.25,70,188.0
3729,E-3,389.5,0.25,56,188.0
3730,C#4,389.5,2.0,95,188.0
3731,B-3,389.5,2.0,95,188.0
3732,F4,389.5,2.0,95,188.0
3733,F#2,390.0,124/125,91,188.0
3734,B1,390.0,0.25,70,188.0
3735,E2,390.0,0.25,86,188.0
3736,E-3,390.0,0.25,76,188.0
3737,A4,390.0,0.5,112,188.0
3738,C#5,390.0,0.5,112,188.0
3739,E-3,390.5,0.25,56,188.0
3740,E1,391.0,79/500,86,188.0
3741,E-3,391.0,0.25,76,188.0
3742,G#4,391.0,0.5,112,188.0
3743,C#5,391.0,0.5,112,188.0
3744,F#1,391.5,0.5,91,188.0
3745,B1,391.5,0.25,70,188.0
3746,E-3,391.5,0.25,56,188.0
3747,C#4,391.5,2.0,95,188.0
3748,A3,391.5,2.0,95,188.0
3749,E4,391.5,2.0,95,188.0
3750,F#1,392.0,124/125,91,188.0
3751,B1,392.0,0.25,70,188.0
3752,E-3,392.0,0.25,76,188.0
3753,G4,392.0,0.5,112,188.0
3754,C#5,392.0,0.5,112,188.0
3755,F#4,392.5,0.5,112,188.0
3756,E-3,392.5,0.25,56,188.0
3757,E1,393.0,79/500,86,188.0
3758,G4,393.0,0.5,112,188.0
3759,E-3,393.0,0.25,76,188.0
3760,F#1,393.5,121/500,91,188.0
3761,B-4,393.5,0.5,112,188.0
3762,E-3,393.5,0.25,56,188.0
3763,G#3,393.5,2.0,95,188.0
3764,E-4,393.5,2.0,95,188.0
3765,F#2,394.0,373/250,91,188.0
3766,B4,394.0,0.5,112,188.0
3767,B1,394.0,0.25,70,188.0
3768,E-3,394.0,0.25,76,188.0
3769,C#5,394.5,0.5,112,188.0
3770,B1,394.5,0.25,70,188.0
3771,E2,394.5,0.25,86,188.0
3772,E-3,394.5,0.25,56,188.0
3773,E-3,395.0,0.25,76,188.0
3774,C#4,395.0,0.5,104,188.0
3775,D5,395.0,0.5,104,188.0
3776,E1,395.5,79/500,86,188.0
3777,F#5,395.5,0.5,112,188.0
3778,B1,395.5,0.25,70,188.0
3779,E-3,395.5,0.25,56,188.0
3780,E-2,396.0,124/125,91,188.0
3781,G#5,396.0,0.5,112,188.0
3782,B1,396.0,0.25,70,188.0
3783,E-3,396.0,0.25,76,188.0
3784,B-3,396.0,1.5,95,188.0
3785,B-4,396.0,1.5,95,188.0
3786,E-4,396.0,1.5,95,188.0
3787,F#4,396.0,1.5,95,188.0
3788,B-5,396.5,0.5,112,188.0
3789,E-3,396.5,0.25,56,188.0
3790,E1,397.0,79/500,86,188.0
3791,B5,397.0,0.5,112,188.0
3792,E-3,397.0,0.25,76,188.0
3793,E-2,397.5,121/500,91,188.0
3794,C#6,397.5,0.5,112,188.0
3795,B1,397.5,0.25,70,188.0
3796,E-3,397.5,0.25,56,188.0
3797,E-4,397.5,2.0,95,188.0
3798,B-3,397.5,2.0,95,188.0
3799,F#4,397.5,2.0,95,188.0
3800,C#4,397.5,2.0,95,188.0
3801,G#1,398.0,124/125,91,188.0
3802,E-6,398.0,0.5,112,188.0
3803,B1,398.0,0.25,70,188.0
3804,E2,398.0,0.25,86,188.0
3805,E-3,398.0,0.25,76,188.0
3806,F6,398.5,0.5,112,188.0
3807,E-3,398.5,0.25,56,188.0
3808,E1,399.0,79/500,86,188.0
3809,F#6,399.0,0.5,112,188.0
3810,E-3,399.0,0.25,76,188.0
3811,G#1,399.5,121/500,91,188.0
3812,G#6,399.5,0.5,112,188.0
3813,B1,399.5,0.25,70,188.0
3814,E-3,399.5,0.25,56,188.0
3815,E-4,399.5,2.0,95,188.0
3816,G#3,399.5,2.0,95,188.0
3817,F#4,399.5,2.0,95,188.0
3818,C4,399.5,2.0,95,188.0
3819,G#1,400.0,124/125,91,188.0
3820,B-6,400.0,0.5,112,188.0
3821,B1,400.0,0.25,70,188.0
3822,E-3,400.0,0.25,76,188.0
3823,B6,400.5,0.5,112,188.0
3824,E-3,400.5,0.25,56,188.0
3825,E1,401.0,79/500,86,188.0
3826,C7,401.0,0.5,112,188.0
3827,E-3,401.0,0.25,76,188.0
3828,G#1,401.5,121/500,91,188.0
3829,C#7,401.5,0.5,112,188.0
3830,B1,401.5,0.25,70,188.0
3831,E-3,401.5,0.25,56,188.0
3832,C#2,402.0,124/125,91,188.0
3833,B1,402.0,0.25,70,188.0
3834,E-3,402.0,0.25,76,188.0
3835,C4,402.0,0.5,99,188.0
3836,G#4,402.0,0.5,99,188.0
3837,E-4,402.0,0.5,99,188.0
3838,E-7,402.0,0.5,99,188.0
3839,E7,402.5,0.5,112,188.0
3840,E2,402.5,0.25,86,188.0
3841,E-3,402.5,0.25,56,188.0
3842,E1,403.0,79/500,86,188.0
3843,E-7,403.0,0.5,112,188.0
3844,E2,403.0,0.25,86,188.0
3845,E-3,403.0,0.25,76,188.0
3846,D4,403.0,2.0,95,188.0
3847,B3,403.0,2.0,95,188.0
3848,G#4,403.0,2.0,95,188.0
3849,G3,403.492,0.25,52,188.0
3850,G1,403.5,0.5,91,188.0
3851,B6,403.5,0.5,112,188.0
3852,B1,403.5,0.25,70,188.0
3853,A3,403.992,1/125,82,188.0
3854,G1,404.0,124/125,91,188.0
3855,G6,404.0,0.5,112,188.0
3856,B1,404.0,0.25,70,188.0
3857,A3,404.0,121/500,82,188.0
3858,E-3,404.0,0.25,76,188.0
3859,F#6,404.5,0.5,112,188.0
3860,E-3,404.5,0.25,56,188.0
3861,E1,405.0,79/500,86,188.0
3862,F6,405.0,0.5,112,188.0
3863,E-3,405.0,0.25,76,188.0
3864,B4,405.0,0.5,95,188.0
3865,F#4,405.0,0.5,95,188.0
3866,C#5,405.0,0.5,95,188.0
3867,D4,405.0,0.5,95,188.0
3868,G1,405.5,121/500,91,188.0
3869,B1,405.5,0.25,70,188.0
3870,E-3,405.5,0.25,56,188.0
3871,G2,406.0,817/1000,81,188.0
3872,B1,406.0,0.25,70,188.0
3873,E2,406.0,0.25,86,188.0
3874,E-3,406.0,0.25,76,188.0
3875,E2,406.5,0.25,86,188.0
3876,E-3,406.5,0.25,56,188.0
3877,G2,407.0,123/250,91,188.0
3878,E-3,407.0,0.25,76,188.0
3879,E1,407.5,79/500,86,188.0
3880,B1,407.5,0.25,70,188.0
3881,E-3,407.5,0.25,56,188.0
3882,C#3,407.992,1/125,92,188.0
3883,F#2,408.0,124/125,91,188.0
3884,B1,408.0,0.25,70,188.0
3885,F#2,408.0,0.25,72,188.0
3886,C#3,408.0,121/500,92,188.0
3887,F3,408.5,0.25,56,188.0
3888,E1,409.0,79/500,86,188.0
3889,E-3,409.0,0.25,76,188.0
3890,B1,409.5,121/500,91,188.0
3891,E6,409.5,0.5,112,188.0
3892,B1,409.5,0.25,70,188.0
3893,E-3,409.5,0.25,56,188.0
3894,B4,409.5,4.0,95,188.0
3895,F#4,409.5,4.0,95,188.0
3896,C#5,409.5,4.0,95,188.0
3897,D4,409.5,4.0,95,188.0
3898,B1,410.0,124/125,91,188.0
3899,B1,410.0,0.25,70,188.0
3900,E2,410.0,0.25,86,188.0
3901,E-3,410.0,0.25,76,188.0
3902,E-3,410.5,0.25,56,188.0
3903,F#6,410.5,0.5,112,188.0
3904,F#7,410.5,0.5,112,188.0
3905,E1,411.0,79/500,86,188.0
3906,E-3,411.0,0.25,76,188.0
3907,A1,411.5,121/500,91,188.0
3908,B1,411.5,0.25,70,188.0
3909,E-3,411.5,0.25,56,188.0
3910,F#6,411.5,0.5,112,188.0
3911,F#7,411.5,0.5,112,188.0
3912,A1,412.0,124/125,91,188.0
3913,B1,412.0,0.25,70,188.0
3914,E-3,412.0,0.25,76,188.0
3915,E-3,412.5,0.25,56,188.0
3916,F#6,412.5,0.5,112,188.0
3917,F#7,412.5,0.5,112,188.0
3918,E1,413.0,79/500,86,188.0
3919,E-3,413.0,0.25,76,188.0
3920,A1,413.5,121/500,91,188.0
3921,B1,413.5,0.25,70,188.0
3922,E-3,413.5,0.25,56,188.0
3923,F#4,413.5,2.0,95,188.0
3924,E4,413.5,2.0,95,188.0
3925,B3,413.5,2.0,95,188.0
3926,G#3,413.5,2.0,95,188.0
3927,F#6,413.5,0.5,112,188.0
3928,F#7,413.5,0.5,112,188.0
3929,E2,414.0,124/125,91,188.0
3930,B1,414.0,0.25,70,188.0
3931,E2,414.0,0.25,86,188.0
3932,E-3,414.0,0.25,76,188.0
3933,E-3,414.5,0.25,56,188.0
3934,F#6,414.5,0.5,112,188.0
3935,F#7,414.5,0.5,112,188.0
3936,A2,415.0,124/125,91,188.0
3937,E-3,415.0,0.25,76,188.0
3938,G6,415.0,0.5,112,188.0
3939,G7,415.0,0.5,112,188.0
3940,B1,415.5,0.25,70,188.0
3941,E-3,415.5,0.25,56,188.0
3942,F#3,415.5,2.0,95,188.0
3943,E4,415.5,2.0,95,188.0
3944,F#4,415.5,2.0,95,188.0
3945,B3,415.5,2.0,95,188.0
3946,D2,416.0,124/125,91,188.0
3947,B1,416.0,0.25,70,188.0
3948,E-3,416.0,0.25,76,188.0
3949,F#6,416.0,0.5,112,188.0
3950,F#7,416.0,0.5,112,188.0
3951,E-3,416.5,0.25,56,188.0
3952,E1,417.0,79/500,86,188.0
3953,E-3,417.0,0.25,76,188.0
3954,D2,417.5,121/500,91,188.0
3955,B1,417.5,0.25,70,188.0
3956,E-3,417.5,0.25,56,188.0
3957,G#2,418.0,124/125,91,188.0
3958,B1,418.0,0.25,70,188.0
3959,E2,418.0,0.25,86,188.0
3960,E-3,418.0,0.25,76,188.0
3961,F#3,418.0,1.5,95,188.0
3962,B3,418.0,1.5,95,188.0
3963,D4,418.0,1.5,95,188.0
3964,E-3,418.5,0.25,56,188.0
3965,E1,419.0,79/500,86,188.0
3966,E-3,419.0,0.25,76,188.0
3967,F#6,419.0,0.5,112,188.0
3968,F#7,419.0,0.5,112,188.0
3969,D2,419.5,121/500,91,188.0
3970,B1,419.5,0.25,70,188.0
3971,E-3,419.5,0.25,56,188.0
3972,G2,420.0,124/125,91,188.0
3973,B1,420.0,0.25,70,188.0
3974,E-3,420.0,0.25,76,188.0
3975,D4,420.0,1.5,95,188.0
3976,B3,420.0,1.5,95,188.0
3977,F#3,420.0,1.5,95,188.0
3978,E6,420.0,0.5,112,188.0
3979,E7,420.0,0.5,112,188.0
3980,E-3,420.5,0.25,56,188.0
3981,E1,421.0,79/500,86,188.0
3982,E-3,421.0,0.25,76,188.0
3983,F#6,421.0,0.5,112,188.0
3984,F#7,421.0,0.5,112,188.0
3985,D2,421.5,121/500,91,188.0
3986,B1,421.5,0.25,70,188.0
3987,E-3,421.5,0.25,56,188.0
3988,F#6,421.5,167/1000,112,188.0
3989,F#7,421.5,167/1000,112,188.0
3990,C#4,421.5,2.0,95,188.0
3991,A3,421.5,2.0,95,188.0
3992,F#3,421.5,2.0,95,188.0
3993,G6,421.667,0.5,112,188.0
3994,G7,421.667,0.5,112,188.0
3995,G2,422.0,101/125,91,188.0
3996,B1,422.0,0.25,70,188.0
3997,E-3,422.0,0.25,76,188.0
3998,E2,422.5,0.25,86,188.0
3999,E-3,422.5,0.25,56,188.0
4000,F#6,422.5,0.5,112,188.0
4001,F#7,422.5,0.5,112,188.0
4002,F#2,423.0,124/125,91,188.0
4003,E-3,423.0,0.25,76,188.0
4004,F#6,423.0,167/1000,112,188.0
4005,F#7,423.0,167/1000,112,188.0
4006,G6,423.167,0.5,112,188.0
4007,G7,423.167,0.5,112,188.0
4008,B1,423.5,0.25,70,188.0
4009,E-3,423.5,0.25,56,188.0
4010,D4,423.5,2.0,95,188.0
4011,E4,423.5,2.0,95,188.0
4012,C4,423.5,2.0,95,188.0
4013,G#3,423.5,2.0,95,188.0
4014,E2,424.0,124/125,91,188.0
4015,B1,424.0,0.25,70,188.0
4016,E-3,424.0,0.25,76,188.0
4017,F#6,424.0,0.5,112,188.0
4018,F#7,424.0,0.5,112,188.0
4019,E-3,424.5,0.25,56,188.0
4020,F#6,424.5,167/1000,112,188.0
4021,F#7,424.5,167/1000,112,188.0
4022,G6,424.667,0.5,112,188.0
4023,G7,424.667,0.5,112,188.0
4024,E1,425.0,79/500,86,188.0
4025,E-3,425.0,0.25,76,188.0
4026,E2,425.5,121/500,91,188.0
4027,B1,425.5,0.25,70,188.0
4028,E-3,425.5,0.25,56,188.0
4029,B3,425.5,4.0,95,188.0
4030,D4,425.5,4.0,95,188.0
4031,F#4,425.5,4.0,95,188.0
4032,G4,425.5,4.0,95,188.0
4033,F#6,425.5,0.5,112,188.0
4034,F#7,425.5,0.5,112,188.0
4035,F#2,426.0,124/125,91,188.0
4036,B1,426.0,0.25,70,188.0
4037,E2,426.0,0.25,86,188.0
4038,E-3,426.0,0.25,76,188.0
4039,F#6,426.0,167/1000,112,188.0
4040,F#7,426.0,167/1000,112,188.0
4041,G6,426.167,0.5,112,188.0
4042,G7,426.167,0.5,112,188.0
4043,E-3,426.5,0.25,56,188.0
4044,E1,427.0,79/500,86,188.0
4045,E-3,427.0,0.25,76,188.0
4046,F#6,427.0,0.5,112,188.0
4047,F#7,427.0,0.5,112,188.0
4048,F#2,427.5,121/500,91,188.0
4049,B1,427.5,0.25,70,188.0
4050,E-3,427.5,0.25,56,188.0
4051,F#7,427.5,167/1000,112,188.0
4052,F#6,427.5,167/1000,112,188.0
4053,G7,427.667,0.5,112,188.0
4054,G6,427.667,0.5,112,188.0
4055,B2,428.0,124/125,91,188.0
4056,B1,428.0,0.25,70,188.0
4057,E-3,428.0,0.25,76,188.0
4058,E-3,428.5,0.25,56,188.0
4059,F#7,428.5,0.5,112,188.0
4060,F#6,428.5,0.5,112,188.0
4061,E1,429.0,79/500,86,188.0
4062,E-3,429.0,0.25,76,188.0
4063,E6,429.0,0.5,112,188.0
4064,E7,429.0,0.5,112,188.0
4065,B1,429.5,0.25,70,188.0
4066,E-3,429.5,0.25,56,188.0
4067,G3,429.5,2.0,95,188.0
4068,B3,429.5,2.0,95,188.0
4069,E4,429.5,2.0,95,188.0
4070,A2,430.0,124/125,91,188.0
4071,C#6,430.0,0.5,112,188.0
4072,B1,430.0,0.25,70,188.0
4073,E2,430.0,0.25,86,188.0
4074,E-3,430.0,0.25,76,188.0
4075,E-6,430.5,0.5,112,188.0
4076,E-3,430.5,0.25,56,188.0
4077,E1,431.0,79/500,86,188.0
4078,E-3,431.0,0.25,76,188.0
4079,D3,431.5,0.5,91,188.0
4080,B1,431.5,0.25,70,188.0
4081,E-3,431.5,0.25,56,188.0
4082,E4,431.5,2.0,95,188.0
4083,C#4,431.5,2.0,95,188.0
4084,A3,431.5,2.0,95,188.0
4085,D3,432.0,123/250,91,188.0
4086,E-3,432.0,0.25,76,188.0
4087,E1,432.5,79/500,86,188.0
4088,E2,432.5,0.25,86,188.0
4089,E-3,432.5,0.25,56,188.0
4090,B-2,433.0,124/125,91,188.0
4091,C#7,433.0,0.5,112,188.0
4092,B1,433.0,0.25,70,188.0
4093,F3,433.0,0.25,76,188.0
4094,B3,433.0,0.5,95,188.0
4095,D4,433.0,0.5,95,188.0
4096,F#4,433.0,0.5,95,188.0
4097,E-3,433.5,0.25,56,188.0
4098,B3,433.5,2.0,95,188.0
4099,D4,433.5,2.0,95,188.0
4100,F#4,433.5,2.0,95,188.0
4101,E1,434.0,79/500,86,188.0
4102,E7,434.0,0.5,112,188.0
4103,B1,434.0,0.25,70,188.0
4104,E-3,434.0,0.25,76,188.0
4105,C#2,434.5,124/125,91,188.0
4106,E-7,434.5,0.5,112,188.0
4107,E2,434.5,0.25,86,188.0
4108,F3,434.5,0.25,56,188.0
4109,D7,435.0,0.5,112,188.0
4110,E-3,435.0,0.25,76,188.0
4111,E1,435.5,79/500,86,188.0
4112,A6,435.5,0.5,112,188.0
4113,E2,435.5,0.25,86,188.0
4114,E-3,435.5,0.25,56,188.0
4115,C4,435.5,2.0,95,188.0
4116,E4,435.5,2.0,95,188.0
4117,G3,435.5,2.0,95,188.0
4118,G3,435.992,1/125,72,188.0
4119,F#2,436.0,124/125,91,188.0
4120,G6,436.0,0.5,112,188.0
4121,B1,436.0,0.25,70,188.0
4122,G3,436.0,121/500,72,188.0
4123,E6,436.5,0.5,112,188.0
4124,E-3,436.5,0.25,56,188.0
4125,E1,437.0,79/500,86,188.0
4126,B-2,437.0,0.25,72,188.0
4127,C4,437.0,0.5,99,188.0
4128,F#3,437.0,0.5,99,188.0
4129,E4,437.0,0.5,99,188.0
4130,E-6,437.0,0.5,99,188.0
4131,C#2,437.5,121/500,91,188.0
4132,D6,437.5,0.5,112,188.0
4133,C3,437.5,0.25,74,188.0
4134,E-3,437.5,0.25,56,188.0
4135,F#2,438.0,373/250,91,188.0
4136,C#6,438.0,0.5,112,188.0
4137,B2,438.0,0.25,94,188.0
4138,E-3,438.0,0.25,76,188.0
4139,B1,438.5,0.25,70,188.0
4140,E-3,438.5,0.25,56,188.0
4141,B-3,438.5,1.5,95,188.0
4142,F#3,438.5,1.5,95,188.0
4143,E-4,438.5,1.5,95,188.0
4144,B5,439.0,0.5,112,188.0
4145,E-3,439.0,0.25,76,188.0
4146,E1,439.5,79/500,86,188.0
4147,C#6,439.5,0.5,112,188.0
4148,B1,439.5,0.25,70,188.0
4149,E-3,439.5,0.25,56,188.0
4150,G3,439.992,1/125,82,188.0
4151,F2,440.0,124/125,91,188.0
4152,B1,440.0,0.25,70,188.0
4153,G3,440.0,121/500,82,188.0
4154,E-3,440.0,0.25,76,188.0
4155,B-3,440.0,0.5,99,188.0
4156,E-4,440.0,0.5,99,188.0
4157,F3,440.0,0.5,99,188.0
4158,F6,440.0,0.5,99,188.0
4159,E6,440.5,0.5,112,188.0
4160,E-3,440.5,0.25,56,188.0
4161,E1,441.0,79/500,86,188.0
4162,E-6,441.0,0.5,112,188.0
4163,E-3,441.0,0.25,76,188.0
4164,F2,441.5,121/500,91,188.0
4165,D6,441.5,0.5,112,188.0
4166,B1,441.5,0.25,70,188.0
4167,E-3,441.5,0.25,56,188.0
4168,C#4,441.5,4.0,95,188.0
4169,F4,441.5,4.0,95,188.0
4170,B-3,441.5,4.0,95,188.0
4171,F#3,441.5,4.0,95,188.0
4172,B-1,442.0,124/125,91,188.0
4173,C#6,442.0,0.5,112,188.0
4174,B1,442.0,0.25,70,188.0
4175,E2,442.0,0.25,86,188.0
4176,E-3,442.0,0.25,76,188.0
4177,F6,442.5,0.5,112,188.0
4178,E-3,442.5,0.25,56,188.0
4179,E1,443.0,79/500,86,188.0
4180,B5,443.0,0.5,112,188.0
4181,E-3,443.0,0.25,76,188.0
4182,B-1,443.5,121/500,91,188.0
4183,C#6,443.5,0.5,112,188.0
4184,B1,443.5,0.25,70,188.0
4185,E-3,443.5,0.25,56,188.0
4186,E-2,444.0,124/125,91,188.0
4187,F#5,444.0,0.5,112,188.0
4188,B1,444.0,0.25,70,188.0
4189,E-3,444.0,0.25,76,188.0
4190,B-5,444.5,0.5,112,188.0
4191,E-3,444.5,0.25,56,188.0
4192,E1,445.0,79/500,86,188.0
4193,E-5,445.0,0.5,112,188.0
4194,E-3,445.0,0.25,76,188.0
4195,E-2,445.5,121/500,91,188.0
4196,F#5,445.5,0.5,112,188.0
4197,B1,445.5,0.25,70,188.0
4198,E-3,445.5,0.25,56,188.0
4199,B-4,445.5,2.0,95,188.0
4200,B3,445.5,2.0,95,188.0
4201,E-4,445.5,2.0,95,188.0
4202,F4,445.5,2.0,95,188.0
4203,G#2,446.0,124/125,91,188.0
4204,B1,446.0,0.25,70,188.0
4205,E2,446.0,0.25,86,188.0
4206,E-3,446.0,0.25,76,188.0
4207,E-5,446.5,0.5,112,188.0
4208,E-3,446.5,0.25,56,188.0
4209,E1,447.0,79/500,86,188.0
4210,E-3,447.0,0.25,76,188.0
4211,E-2,447.5,121/500,91,188.0
4212,C#7,447.5,333/1000,16,188.0
4213,B1,447.5,0.25,70,188.0
4214,E-3,447.5,0.25,56,188.0
4215,G#4,447.5,2.0,95,188.0
4216,B3,447.5,2.0,95,188.0
4217,F#4,447.5,2.0,95,188.0
4218,D4,447.5,2.0,95,188.0
4219,D6,447.833,333/1000,112,188.0
4220,G#2,448.0,124/125,91,188.0
4221,B1,448.0,0.25,70,188.0
4222,E-3,448.0,0.25,76,188.0
4223,F6,448.167,333/1000,112,188.0
4224,B5,448.5,333/1000,112,188.0
4225,E-3,448.5,0.25,56,188.0
4226,D6,448.833,333/1000,112,188.0
4227,E1,449.0,33/1000,86,188.0
4228,F#3,449.0,0.5,95,188.0
4229,E-3,449.0,0.25,76,188.0
4230,F5,449.167,333/1000,112,188.0
4231,G#2,449.5,121/500,91,188.0
4232,C#6,449.5,333/1000,112,188.0
4233,F#3,449.5,4.0,95,188.0
4234,B1,449.5,0.25,70,188.0
4235,E-3,449.5,0.25,56,188.0
4236,C#4,449.5,2.0,95,188.0
4237,F#4,449.5,2.0,95,188.0
4238,B-3,449.5,2.0,95,188.0
4239,F6,449.833,333/1000,112,188.0
4240,C#2,450.0,124/125,91,188.0
4241,B1,450.0,0.25,70,188.0
4242,E2,450.0,0.25,86,188.0
4243,E-3,450.0,0.25,76,188.0
4244,B-5,450.167,333/1000,112,188.0
4245,C#6,450.5,333/1000,112,188.0
4246,E-3,450.5,0.25,56,188.0
4247,F5,450.833,333/1000,112,188.0
4248,E1,451.0,33/1000,86,188.0
4249,E-3,451.0,0.25,76,188.0
4250,C6,451.167,333/1000,112,188.0
4251,C#2,451.5,121/500,91,188.0
4252,F6,451.5,333/1000,112,188.0
4253,B1,451.5,0.25,70,188.0
4254,E-3,451.5,0.25,56,188.0
4255,G#4,451.5,2.0,95,188.0
4256,E-4,451.5,2.0,95,188.0
4257,C4,451.5,2.0,95,188.0
4258,C6,451.833,333/1000,112,188.0
4259,F#2,452.0,124/125,91,188.0
4260,B1,452.0,0.25,70,188.0
4261,E-3,452.0,0.25,76,188.0
4262,G#5,452.167,333/1000,112,188.0
4263,C6,452.5,333/1000,112,188.0
4264,E-3,452.5,0.25,56,188.0
4265,F6,452.833,333/1000,112,188.0
4266,E1,453.0,79/500,86,188.0
4267,E2,453.0,0.25,86,188.0
4268,E-3,453.0,0.25,76,188.0
4269,C6,453.167,333/1000,112,188.0
4270,F#2,453.5,121/500,91,188.0
4271,E-6,453.5,333/1000,112,188.0
4272,B1,453.5,0.25,70,188.0
4273,E-3,453.5,0.25,56,188.0
4274,B5,453.833,333/1000,112,188.0
4275,C2,454.0,124/125,91,188.0
4276,B1,454.0,0.25,70,188.0
4277,E-3,454.0,0.25,76,188.0
4278,B3,454.0,1.5,95,188.0
4279,E-4,454.0,1.5,95,188.0
4280,G#4,454.0,1.5,95,188.0
4281,F5,454.167,333/1000,112,188.0
4282,B5,454.5,333/1000,112,188.0
4283,E2,454.5,0.25,86,188.0
4284,E-3,454.5,0.25,56,188.0
4285,E-6,454.833,333/1000,112,188.0
4286,E1,455.0,79/500,86,188.0
4287,E2,455.0,0.25,86,188.0
4288,E-3,455.0,0.25,76,188.0
4289,B5,455.167,333/1000,112,188.0
4290,C2,455.5,121/500,91,188.0
4291,F5,455.5,333/1000,112,188.0
4292,B1,455.5,0.25,70,188.0
4293,E-3,455.5,0.25,56,188.0
4294,F#4,455.5,2.0,95,188.0
4295,C#4,455.5,2.0,95,188.0
4296,G#3,455.5,2.0,95,188.0
4297,G#5,455.833,333/1000,112,188.0
4298,C#3,455.992,1/125,72,188.0
4299,B1,456.0,124/125,91,188.0
4300,B1,456.0,0.25,70,188.0
4301,C#3,456.0,121/500,72,188.0
4302,B5,456.167,333/1000,112,188.0
4303,C#6,456.5,333/1000,112,188.0
4304,E-3,456.5,0.25,56,188.0
4305,F#5,456.833,333/1000,112,188.0
4306,E1,457.0,79/500,86,188.0
4307,E-3,457.0,0.25,76,188.0
4308,G#5,457.167,333/1000,112,188.0
4309,B1,457.5,121/500,91,188.0
4310,B5,457.5,333/1000,112,188.0
4311,B1,457.5,0.25,70,188.0
4312,E-3,457.5,0.25,56,188.0
4313,F4,457.5,2.0,95,188.0
4314,G#4,457.5,2.0,95,188.0
4315,C#4,457.5,2.0,95,188.0
4316,C#6,457.833,333/1000,112,188.0
4317,B-1,458.0,124/125,91,188.0
4318,B1,458.0,0.25,70,188.0
4319,E2,458.0,0.25,86,188.0
4320,E-3,458.0,0.25,76,188.0
4321,B5,458.167,333/1000,112,188.0
4322,G#5,458.5,333/1000,112,188.0
4323,E-3,458.5,0.25,56,188.0
4324,B-5,458.833,333/1000,112,188.0
4325,E1,459.0,79/500,86,188.0
4326,E-3,459.0,0.25,76,188.0
4327,G#5,459.167,333/1000,112,188.0
4328,B-1,459.5,121/500,91,188.0
4329,F#5,459.5,333/1000,112,188.0
4330,B1,459.5,0.25,70,188.0
4331,E-3,459.5,0.25,56,188.0
4332,E4,459.5,2.0,95,188.0
4333,C#4,459.5,2.0,95,188.0
4334,B-4,459.5,2.0,95,188.0
4335,F5,459.833,333/1000,112,188.0
4336,G#1,460.0,124/125,91,188.0
4337,B1,460.0,0.25,70,188.0
4338,E-3,460.0,0.25,76,188.0
4339,E-5,460.167,333/1000,112,188.0
4340,C#5,460.5,333/1000,112,188.0
4341,E-3,460.5,0.25,56,188.0
4342,B4,460.833,333/1000,112,188.0
4343,E-3,461.0,0.25,76,188.0
4344,B-4,461.167,333/1000,112,188.0
4345,G#1,461.5,121/500,91,188.0
4346,G#4,461.5,0.5,112,188.0
4347,B1,461.5,0.25,70,188.0
4348,E-3,461.5,0.25,56,188.0
4349,C#2,462.0,124/125,91,188.0
4350,B1,462.0,0.25,70,188.0
4351,E2,462.0,0.25,86,188.0
4352,E-3,462.0,0.25,76,188.0
4353,B-3,462.0,1.5,95,188.0
4354,B3,462.0,1.5,95,188.0
4355,E-4,462.0,1.5,95,188.0
4356,E-3,462.5,0.25,56,188.0
4357,F5,463.0,0.5,112,188.0
4358,E-3,463.0,0.25,76,188.0
4359,G#1,463.5,121/500,91,188.0
4360,C#5,463.5,0.5,112,188.0
4361,B1,463.5,0.25,70,188.0
4362,E-3,463.5,0.25,56,188.0
4363,C2,464.0,124/125,91,188.0
4364,B1,464.0,0.25,70,188.0
4365,E-3,464.0,0.25,76,188.0
4366,G#3,464.0,1.5,95,188.0
4367,B-3,464.0,1.5,95,188.0
4368,C#4,464.0,1.5,95,188.0
4369,F4,464.0,1.5,95,188.0
4370,E-3,464.5,0.25,56,188.0
4371,E1,465.0,79/500,86,188.0
4372,F#5,465.0,0.5,112,188.0
4373,E-3,465.0,0.25,76,188.0
4374,C2,465.5,121/500,91,188.0
4375,B1,465.5,0.25,70,188.0
4376,E-3,465.5,0.25,56,188.0
4377,C2,466.0,124/125,91,188.0
4378,E-5,466.0,0.5,112,188.0
4379,B1,466.0,0.25,70,188.0
4380,E2,466.0,0.25,86,188.0
4381,E-3,466.0,0.25,76,188.0
4382,E-4,466.0,3.5,95,188.0
4383,B-3,466.0,3.5,95,188.0
4384,C#4,466.0,3.5,95,188.0
4385,F#4,466.0,3.5,95,188.0
4386,C5,466.5,0.5,112,188.0
4387,E-3,466.5,0.25,56,188.0
4388,E1,467.0,79/500,86,188.0
4389,C#5,467.0,0.5,112,188.0
4390,E-3,467.0,0.25,76,188.0
4391,C2,467.5,121/500,91,188.0
4392,D5,467.5,0.5,112,188.0
4393,B1,467.5,0.25,70,188.0
4394,E-3,467.5,0.25,56,188.0
4395,B1,468.0,371/500,91,188.0
4396,F#5,468.0,0.5,112,188.0
4397,B1,468.0,0.25,70,188.0
4398,E-3,468.0,0.25,76,188.0
4399,A5,468.5,0.5,112,188.0
4400,E-3,468.5,0.25,56,188.0
4401,B1,469.0,373/250,91,188.0
4402,B-5,469.0,0.5,112,188.0
4403,E-3,469.0,0.25,76,188.0
4404,B5,469.5,0.5,112,188.0
4405,B1,469.5,0.25,70,188.0
4406,E-3,469.5,0.25,56,188.0
4407,B-4,469.5,4.0,95,188.0
4408,F#4,469.5,4.0,95,188.0
4409,E-4,469.5,4.0,95,188.0
4410,F#3,469.5,4.0,95,188.0
4411,B-3,469.5,4.0,95,188.0
4412,C6,470.0,0.5,112,188.0
4413,B1,470.0,0.25,70,188.0
4414,E2,470.0,0.25,86,188.0
4415,E-3,470.0,0.25,76,188.0
4416,E1,470.5,79/500,86,188.0
4417,C#6,470.5,0.5,112,188.0
4418,E-3,470.5,0.25,56,188.0
4419,B1,471.0,367/1000,91,188.0
4420,D6,471.0,0.5,112,188.0
4421,E-3,471.0,0.25,76,188.0
4422,B1,471.5,121/500,96,188.0
4423,E-6,471.5,0.5,112,188.0
4424,B1,471.5,0.25,70,188.0
4425,E-3,471.5,0.25,56,188.0
4426,G3,471.992,1/125,72,188.0
4427,F#1,472.0,124/125,91,188.0
4428,E6,472.0,0.5,112,188.0
4429,B1,472.0,0.25,70,188.0
4430,G3,472.0,121/500,72,188.0
4431,F6,472.5,0.5,112,188.0
4432,E-3,472.5,0.25,56,188.0
4433,E1,473.0,79/500,86,188.0
4434,F#6,473.0,0.5,112,188.0
4435,E-3,473.0,0.25,76,188.0
4436,F#1,473.5,121/500,91,188.0
4437,B1,473.5,0.25,70,188.0
4438,E2,473.5,0.25,86,188.0
4439,E-3,473.5,0.25,56,188.0
4440,F#2,474.0,373/250,91,188.0
4441,B1,474.0,0.25,70,188.0
4442,E-3,474.0,0.25,76,188.0
4443,B-4,474.0,0.5,95,188.0
4444,F#4,474.0,0.5,95,188.0
4445,B3,474.5,3.5,95,188.0
4446,D6,474.5,0.5,112,188.0
4447,E-3,474.5,0.25,56,188.0
4448,C#6,475.0,0.5,112,188.0
4449,E-3,475.0,0.25,76,188.0
4450,B-4,475.0,3.0,95,188.0
4451,F#4,475.0,3.0,95,188.0
4452,E1,475.5,79/500,86,188.0
4453,D6,475.5,0.5,112,188.0
4454,B1,475.5,0.25,70,188.0
4455,E-3,475.5,0.25,56,188.0
4456,F#1,476.0,124/125,91,188.0
4457,F6,476.0,0.5,112,188.0
4458,B1,476.0,0.25,70,188.0
4459,E-3,476.0,0.25,76,188.0
4460,F#6,476.5,0.5,112,188.0
4461,E-3,476.5,0.25,56,188.0
4462,E1,477.0,79/500,86,188.0
4463,G6,477.0,0.5,112,188.0
4464,E-3,477.0,0.25,76,188.0
4465,F#1,477.5,121/500,91,188.0
4466,G#6,477.5,0.5,112,188.0
4467,B1,477.5,0.25,70,188.0
4468,E2,477.5,0.25,86,188.0
4469,E-3,477.5,0.25,56,188.0
4470,F#2,478.0,124/125,91,188.0
4471,B1,478.0,0.25,70,188.0
4472,E-3,478.0,0.25,76,188.0
4473,B-3,478.0,4.0,95,188.0
4474,G#4,478.0,4.0,95,188.0
4475,C#4,478.0,4.0,95,188.0
4476,F4,478.0,4.0,95,188.0
4477,F#6,478.5,0.5,112,188.0
4478,E-3,478.5,0.25,56,188.0
4479,E1,479.0,79/500,86,188.0
4480,E-3,479.0,0.25,76,188.0
4481,F#1,479.5,121/500,91,188.0
4482,G#6,479.5,0.5,112,188.0
4483,B1,479.5,0.25,70,188.0
4484,E-3,479.5,0.25,56,188.0
4485,F#1,480.0,124/125,91,188.0
4486,B1,480.0,0.25,70,188.0
4487,E-3,480.0,0.25,76,188.0
4488,A3,480.0,2.0,95,188.0
4489,E4,480.0,2.0,95,188.0
4490,G#6,480.5,167/1000,112,188.0
4491,E-3,480.5,0.25,56,188.0
4492,A6,480.667,0.25,112,188.0
4493,E1,481.0,79/500,86,188.0
4494,E-3,481.0,0.25,76,188.0
4495,F#1,481.5,121/500,91,188.0
4496,G#6,481.5,0.5,112,188.0
4497,B1,481.5,0.25,70,188.0
4498,E2,481.5,0.25,86,188.0
4499,E-3,481.5,0.25,56,188.0
4500,F#2,482.0,124/125,91,188.0
4501,B1,482.0,0.25,70,188.0
4502,E-3,482.0,0.25,76,188.0
4503,E-4,482.0,2.0,95,188.0
4504,G#3,482.0,2.0,95,188.0
4505,F#6,482.5,0.5,112,188.0
4506,E-3,482.5,0.25,56,188.0
4507,E1,483.0,79/500,86,188.0
4508,E-3,483.0,0.25,76,188.0
4509,F#1,483.5,0.5,91,188.0
4510,G#6,483.5,0.5,112,188.0
4511,B1,483.5,0.25,70,188.0
4512,E-3,483.5,0.25,56,188.0
4513,F#1,484.0,124/125,91,188.0
4514,B1,484.0,0.25,70,188.0
4515,E-3,484.0,0.25,76,188.0
4516,A3,484.0,2.0,95,188.0
4517,E4,484.0,2.0,95,188.0
4518,G#6,484.5,167/1000,112,188.0
4519,E-3,484.5,0.25,56,188.0
4520,A6,484.667,0.5,112,188.0
4521,E1,485.0,79/500,86,188.0
4522,E2,485.0,0.25,86,188.0
4523,E-3,485.0,0.25,76,188.0
4524,F#1,485.5,121/500,91,188.0
4525,G#6,485.5,0.5,112,188.0
4526,B1,485.5,0.25,70,188.0
4527,E-3,485.5,0.25,56,188.0
4528,F#2,486.0,249/125,91,188.0
4529,B1,486.0,0.25,70,188.0
4530,E-3,486.0,0.25,76,188.0
4531,C#4,486.0,2.0,95,188.0
4532,B-3,486.0,2.0,95,188.0
4533,F4,486.0,2.0,95,188.0
4534,F#6,486.5,0.5,112,188.0
4535,E2,486.5,0.25,86,188.0
4536,E-3,486.5,0.25,56,188.0
4537,C#4,486.983,9/20,52,188.0
4538,C#5,487.0,9/20,94,188.0
4539,B2,487.0,0.25,84,188.0
4540,E-3,487.0,0.25,76,188.0
4541,C#5,487.375,9/20,52,188.0
4542,B3,487.483,9/20,51,188.0
4543,G#6,487.5,0.5,112,188.0
4544,B4,487.5,9/20,93,188.0
4545,B1,487.5,0.25,70,188.0
4546,E-3,487.5,0.25,56,188.0
4547,B4,487.875,0.125,51,188.0
4548,B-3,487.983,17/1000,49,188.0
4549,G3,487.992,1/125,72,188.0
4550,E-2,488.0,124/125,91,188.0
4551,B-4,488.0,9/20,91,188.0
4552,B4,488.0,13/40,51,188.0
4553,B-3,488.0,433/1000,49,188.0
4554,B1,488.0,0.25,70,188.0
4555,G3,488.0,121/500,72,188.0
4556,C#4,488.0,2.0,95,188.0
4557,A3,488.0,2.0,95,188.0
4558,E4,488.0,2.0,95,188.0
4559,B-4,488.375,9/20,49,188.0
4560,G#6,488.5,167/1000,112,188.0
4561,E-3,488.5,0.25,56,188.0
4562,A6,488.667,0.5,112,188.0
4563,B-3,488.983,9/20,50,188.0
4564,E1,489.0,79/500,86,188.0
4565,B-4,489.0,9/20,92,188.0
4566,E-3,489.0,0.25,76,188.0
4567,B-4,489.375,9/20,50,188.0
4568,E-4,489.483,9/20,60,188.0
4569,E-2,489.5,121/500,91,188.0
4570,G#6,489.5,0.5,112,188.0
4571,E-5,489.5,9/20,102,188.0
4572,B1,489.5,0.25,70,188.0
4573,E-3,489.5,0.25,56,188.0
4574,E-5,489.875,9/20,60,188.0
4575,B-3,489.983,9/20,60,188.0
4576,G#1,490.0,124/125,91,188.0
4577,B-4,490.0,9/20,102,188.0
4578,E2,490.0,0.25,86,188.0
4579,E-3,490.0,0.25,76,188.0
4580,G#3,490.0,2.0,95,188.0
4581,E-4,490.0,2.0,95,188.0
4582,B-4,490.375,9/20,60,188.0
4583,G#3,490.483,9/20,57,188.0
4584,F#6,490.5,0.5,112,188.0
4585,G#4,490.5,9/20,99,188.0
4586,E-3,490.5,0.25,56,188.0
4587,G#4,490.875,9/20,57,188.0
4588,F#3,490.983,9/20,61,188.0
4589,E1,491.0,79/500,86,188.0
4590,F#4,491.0,9/20,103,188.0
4591,E-3,491.0,0.25,76,188.0
4592,F#4,491.375,9/20,61,188.0
4593,B3,491.483,9/20,61,188.0
4594,G#1,491.5,121/500,91,188.0
4595,B4,491.5,9/20,103,188.0
4596,B1,491.5,0.25,70,188.0
4597,E-3,491.5,0.25,56,188.0
4598,C#4,491.5,0.5,104,188.0
4599,C#6,491.5,0.5,104,188.0
4600,B4,491.875,0.125,61,188.0
4601,B-3,491.983,17/1000,51,188.0
4602,G#1,492.0,124/125,91,188.0
4603,B-4,492.0,9/20,93,188.0
4604,B4,492.0,13/40,61,188.0
4605,B-3,492.0,433/1000,51,188.0
4606,B1,492.0,0.25,70,188.0
4607,E-3,492.0,0.25,76,188.0
4608,B-4,492.375,9/20,51,188.0
4609,G#3,492.483,49/20,63,188.0
4610,G#4,492.5,49/20,105,188.0
4611,E-3,492.5,0.25,56,188.0
4612,B-3,492.5,1.5,95,188.0
4613,B-4,492.5,1.5,95,188.0
4614,E-4,492.5,1.5,95,188.0
4615,F#4,492.5,1.5,95,188.0
4616,G#4,492.875,49/20,63,188.0
4617,E1,493.0,79/500,86,188.0
4618,C#6,493.0,0.5,112,188.0
4619,E-3,493.0,0.25,76,188.0
4620,G#1,493.5,121/500,91,188.0
4621,B5,493.5,0.5,112,188.0
4622,B1,493.5,0.25,70,188.0
4623,E-3,493.5,0.25,56,188.0
4624,C#2,494.0,124/125,91,188.0
4625,B-5,494.0,0.5,112,188.0
4626,E2,494.0,0.25,86,188.0
4627,E-3,494.0,0.25,76,188.0
4628,E-4,494.0,2.0,95,188.0
4629,B-3,494.0,2.0,95,188.0
4630,F#4,494.0,2.0,95,188.0
4631,C#4,494.0,2.0,95,188.0
4632,E-3,494.5,0.25,56,188.0
4633,C#3,494.983,9/20,49,188.0
4634,E1,495.0,79/500,86,188.0
4635,B-5,495.0,0.5,112,188.0
4636,C#4,495.0,9/20,91,188.0
4637,B1,495.0,0.25,70,188.0
4638,E-3,495.0,0.25,76,188.0
4639,C#4,495.375,9/20,49,188.0
4640,F#3,495.483,517/1000,54,188.0
4641,G3,495.492,0.25,92,188.0
4642,G1,495.5,0.5,91,188.0
4643,E-6,495.5,0.5,112,188.0
4644,F#4,495.5,0.5,96,188.0
4645,B1,495.5,0.25,70,188.0
4646,E-3,495.5,0.25,56,188.0
4647,F#4,495.875,0.125,54,188.0
4648,G1,496.0,373/250,91,188.0
4649,B-5,496.0,0.5,112,188.0
4650,F#4,496.0,39/20,96,188.0
4651,F#4,496.0,93/40,54,188.0
4652,F#3,496.0,1933/1000,54,188.0
4653,E-3,496.0,0.25,76,188.0
4654,E-4,496.0,2.0,95,188.0
4655,G#3,496.0,2.0,95,188.0
4656,F#4,496.0,2.0,95,188.0
4657,C4,496.0,2.0,95,188.0
4658,G#5,496.5,0.5,112,188.0
4659,B1,496.5,0.25,70,188.0
4660,E-3,496.5,0.25,56,188.0
4661,G3,496.992,0.25,72,188.0
4662,F#5,497.0,0.5,112,188.0
4663,B1,497.0,0.25,70,188.0
4664,G1,497.5,121/500,91,188.0
4665,B5,497.5,0.5,112,188.0
4666,G2,498.0,249/125,91,188.0
4667,B-5,498.0,0.5,112,188.0
4668,B1,498.0,0.25,70,188.0
4669,E-3,498.0,0.25,76,188.0
4670,G3,498.492,0.25,72,188.0
4671,G#5,498.5,2.5,112,188.0
4672,B1,498.5,0.25,70,188.0
4673,E-3,498.5,0.25,56,188.0
4674,C4,498.5,0.5,95,188.0
4675,G#4,498.5,0.5,95,188.0
4676,E-4,498.5,0.5,95,188.0
4677,F#3,498.983,9/20,52,188.0
4678,F#4,499.0,9/20,94,188.0
4679,B-2,499.0,0.25,72,188.0
4680,F#4,499.375,9/20,52,188.0
4681,G#3,499.483,9/20,51,188.0
4682,G#4,499.5,9/20,93,188.0
4683,B1,499.5,0.25,70,188.0
4684,D4,499.5,2.0,95,188.0
4685,B3,499.5,2.0,95,188.0
4686,G#4,499.5,2.0,95,188.0
4687,G#4,499.875,0.125,51,188.0
4688,B-3,499.983,17/1000,50,188.0
4689,G3,499.992,1/125,92,188.0
4690,F#2,500.0,124/125,91,188.0
4691,B-4,500.0,9/20,92,188.0
4692,G#4,500.0,13/40,51,188.0
4693,B-3,500.0,433/1000,50,188.0
4694,B1,500.0,0.25,70,188.0
4695,G3,500.0,121/500,92,188.0
4696,B-4,500.375,9/20,50,188.0
4697,F#3,500.483,9/20,49,188.0
4698,F#4,500.5,9/20,91,188.0
4699,E-3,500.5,0.25,56,188.0
4700,F#4,500.875,9/20,49,188.0
4701,G#3,500.983,9/20,48,188.0
4702,E1,501.0,79/500,86,188.0
4703,C#5,501.0,0.5,112,188.0
4704,G#4,501.0,9/20,90,188.0
4705,E-3,501.0,0.25,76,188.0
4706,G#4,501.375,9/20,48,188.0
4707,B-3,501.483,9/20,62,188.0
4708,F#2,501.5,121/500,91,188.0
4709,F#5,501.5,0.5,112,188.0
4710,B-4,501.5,9/20,104,188.0
4711,B1,501.5,0.25,70,188.0
4712,E-3,501.5,0.25,56,188.0
4713,C#5,501.5,0.5,95,188.0
4714,F4,501.5,0.5,95,188.0
4715,D4,501.5,0.5,95,188.0
4716,G4,501.5,0.5,95,188.0
4717,B-4,501.875,9/20,62,188.0
4718,B3,501.983,9/20,54,188.0
4719,B1,502.0,124/125,91,188.0
4720,F#5,502.0,1.0,112,188.0
4721,B4,502.0,9/20,96,188.0
4722,B1,502.0,0.25,70,188.0
4723,E-3,502.0,0.25,76,188.0
4724,C#5,502.0,4.0,95,188.0
4725,F4,502.0,4.0,95,188.0
4726,D4,502.0,4.0,95,188.0
4727,G4,502.0,4.0,95,188.0
4728,B4,502.375,9/20,54,188.0
4729,B-3,502.483,9/20,61,188.0
4730,B-4,502.5,9/20,103,188.0
4731,E-3,502.5,0.25,56,188.0
4732,B-4,502.875,9/20,61,188.0
4733,G#3,502.983,9/20,61,188.0
4734,E1,503.0,79/500,86,188.0
4735,G#4,503.0,9/20,103,188.0
4736,E-3,503.0,0.25,76,188.0
4737,G#4,503.375,9/20,61,188.0
4738,F#3,503.483,9/20,54,188.0
4739,A1,503.5,121/500,91,188.0
4740,F#4,503.5,9/20,96,188.0
4741,B1,503.5,0.25,70,188.0
4742,E-3,503.5,0.25,56,188.0
4743,F#4,503.875,0.125,54,188.0
4744,E3,503.983,17/1000,48,188.0
4745,A1,504.0,124/125,91,188.0
4746,E4,504.0,617/1000,90,188.0
4747,F#4,504.0,13/40,54,188.0
4748,E3,504.0,3/5,48,188.0
4749,B1,504.0,0.25,70,188.0
4750,E-3,504.0,0.25,76,188.0
4751,E4,504.375,617/1000,48,188.0
4752,E-3,504.5,0.25,56,188.0
4753,F#3,504.65,617/1000,63,188.0
4754,F#4,504.667,617/1000,105,188.0
4755,E1,505.0,79/500,86,188.0
4756,E-3,505.0,0.25,76,188.0
4757,F#4,505.042,617/1000,63,188.0
4758,G3,505.317,617/1000,51,188.0
4759,G4,505.333,617/1000,93,188.0
4760,A1,505.5,121/500,91,188.0
4761,B1,505.5,0.25,70,188.0
4762,E-3,505.5,0.25,56,188.0
4763,G4,505.708,617/1000,51,188.0
4764,B3,505.983,19/20,52,188.0
4765,E2,506.0,124/125,91,188.0
4766,B4,506.0,19/20,94,188.0
4767,B1,506.0,0.25,70,188.0
4768,E-3,506.0,0.25,76,188.0
4769,E4,506.0,4.0,95,188.0
4770,G#3,506.0,4.0,95,188.0
4771,B3,506.0,4.0,95,188.0
4772,F#4,506.0,4.0,95,188.0
4773,B4,506.375,19/20,52,188.0
4774,E-3,506.5,0.25,56,188.0
4775,A3,506.983,9/20,63,188.0
4776,A2,507.0,124/125,91,188.0
4777,A4,507.0,9/20,105,188.0
4778,E-3,507.0,0.25,76,188.0
4779,A4,507.375,9/20,63,188.0
4780,G3,507.483,9/20,62,188.0
4781,G4,507.5,9/20,104,188.0
4782,B1,507.5,0.25,70,188.0
4783,E-3,507.5,0.25,56,188.0
4784,G4,507.875,0.125,62,188.0
4785,F#3,507.983,17/1000,63,188.0
4786,D2,508.0,124/125,91,188.0
4787,F#4,508.0,19/20,105,188.0
4788,G4,508.0,13/40,62,188.0
4789,F#3,508.0,933/1000,63,188.0
4790,B1,508.0,0.25,70,188.0
4791,E-3,508.0,0.25,76,188.0
4792,F#4,508.375,19/20,63,188.0
4793,E-3,508.5,0.25,56,188.0
4794,G3,508.983,9/20,60,188.0
4795,E1,509.0,79/500,86,188.0
4796,G4,509.0,9/20,102,188.0
4797,E-3,509.0,0.25,76,188.0
4798,G4,509.375,9/20,60,188.0
4799,F#3,509.483,9/20,50,188.0
4800,D2,509.5,121/500,91,188.0
4801,F#4,509.5,9/20,92,188.0
4802,B1,509.5,0.25,70,188.0
4803,E-3,509.5,0.25,56,188.0
4804,F#4,509.875,9/20,50,188.0
4805,G#2,510.0,124/125,91,188.0
4806,B1,510.0,0.25,70,188.0
4807,E-3,510.0,0.25,76,188.0
4808,F#4,510.0,4.0,98,188.0
4809,D4,510.0,4.0,98,188.0
4810,F#3,510.0,4.0,98,188.0
4811,B3,510.0,4.0,98,188.0
4812,E3,510.483,9/20,54,188.0
4813,E4,510.5,9/20,96,188.0
4814,E-3,510.5,0.25,56,188.0
4815,E4,510.875,9/20,54,188.0
4816,E1,511.0,79/500,86,188.0
4817,E-3,511.0,0.25,76,188.0
4818,D3,511.483,9/20,54,188.0
4819,G#2,511.5,121/500,91,188.0
4820,D4,511.5,9/20,96,188.0
4821,B1,511.5,0.25,70,188.0
4822,E-3,511.5,0.25,56,188.0
4823,D4,511.875,0.125,54,188.0
4824,G2,512.0,124/125,91,188.0
4825,D4,512.0,13/40,54,188.0
4826,B1,512.0,0.25,70,188.0
4827,E-3,512.0,0.25,76,188.0
4828,E-3,512.5,0.25,56,188.0
4829,E1,513.0,79/500,86,188.0
4830,E-3,513.0,0.25,76,188.0
4831,D2,513.5,121/500,91,188.0
4832,B1,513.5,0.25,70,188.0
4833,E-3,513.5,0.25,56,188.0
4834,G2,514.0,371/500,91,188.0
4835,B1,514.0,0.25,70,188.0
4836,E-3,514.0,0.25,76,188.0
4837,C#4,514.0,2.0,95,188.0
4838,A3,514.0,2.0,95,188.0
4839,F#3,514.0,2.0,95,188.0
4840,B2,514.483,9/20,58,188.0
4841,B3,514.5,9/20,100,188.0
4842,E-3,514.5,0.25,56,188.0
4843,B3,514.875,9/20,58,188.0
4844,C#3,514.983,9/20,49,188.0
4845,F#2,515.0,371/500,91,188.0
4846,C#4,515.0,9/20,91,188.0
4847,E-3,515.0,0.25,76,188.0
4848,C#4,515.375,9/20,49,188.0
4849,D3,515.483,9/20,58,188.0
4850,D4,515.5,9/20,100,188.0
4851,B1,515.5,0.25,70,188.0
4852,E-3,515.5,0.25,56,188.0
4853,D4,515.875,0.125,58,188.0
4854,E2,516.0,124/125,91,188.0
4855,D4,516.0,13/40,58,188.0
4856,B1,516.0,0.25,70,188.0
4857,E-3,516.0,0.25,76,188.0
4858,D4,516.0,2.0,95,188.0
4859,E4,516.0,2.0,95,188.0
4860,C4,516.0,2.0,95,188.0
4861,G#3,516.0,2.0,95,188.0
4862,B2,516.483,9/20,60,188.0
4863,B3,516.5,9/20,102,188.0
4864,E-3,516.5,0.25,56,188.0
4865,B3,516.875,9/20,60,188.0
4866,C#3,516.983,9/20,58,188.0
4867,E1,517.0,79/500,86,188.0
4868,C#4,517.0,9/20,100,188.0
4869,E-3,517.0,0.25,76,188.0
4870,C#4,517.375,9/20,58,188.0
4871,D3,517.483,9/20,59,188.0
4872,E2,517.5,121/500,91,188.0
4873,D4,517.5,9/20,101,188.0
4874,B1,517.5,0.25,70,188.0
4875,E-3,517.5,0.25,56,188.0
4876,D4,517.875,9/20,59,188.0
4877,F#2,518.0,124/125,91,188.0
4878,B1,518.0,0.25,70,188.0
4879,E-3,518.0,0.25,76,188.0
4880,B3,518.0,4.0,95,188.0
4881,D4,518.0,4.0,95,188.0
4882,F#4,518.0,4.0,95,188.0
4883,G4,518.0,4.0,95,188.0
4884,E3,518.483,9/20,60,188.0
4885,E4,518.5,9/20,102,188.0
4886,E-3,518.5,0.25,56,188.0
4887,E4,518.875,9/20,60,188.0
4888,D3,518.983,9/20,61,188.0
4889,E1,519.0,79/500,86,188.0
4890,D4,519.0,9/20,103,188.0
4891,E-3,519.0,0.25,76,188.0
4892,D4,519.375,9/20,61,188.0
4893,C#3,519.483,9/20,59,188.0
4894,F#2,519.5,121/500,91,188.0
4895,C#4,519.5,9/20,101,188.0
4896,B1,519.5,0.25,70,188.0
4897,E-3,519.5,0.25,56,188.0
4898,C#4,519.875,0.125,59,188.0
4899,B2,520.0,124/125,91,188.0
4900,C#4,520.0,13/40,59,188.0
4901,B1,520.0,0.25,70,188.0
4902,E-3,520.0,0.25,76,188.0
4903,A2,520.483,9/20,56,188.0
4904,A3,520.5,9/20,98,188.0
4905,E-3,520.5,0.25,56,188.0
4906,A3,520.875,9/20,56,188.0
4907,B2,520.983,9/20,48,188.0
4908,E1,521.0,79/500,86,188.0
4909,B3,521.0,9/20,90,188.0
4910,E-3,521.0,0.25,76,188.0
4911,B3,521.375,9/20,48,188.0
4912,C3,521.483,9/20,50,188.0
4913,C4,521.5,9/20,92,188.0
4914,B1,521.5,0.25,70,188.0
4915,E-3,521.5,0.25,56,188.0
4916,C4,521.875,9/20,50,188.0
4917,B2,521.983,9/20,57,188.0
4918,A2,522.0,124/125,91,188.0
4919,B3,522.0,9/20,99,188.0
4920,B1,522.0,0.25,70,188.0
4921,E-3,522.0,0.25,76,188.0
4922,G3,522.0,2.0,95,188.0
4923,B3,522.0,2.0,95,188.0
4924,E4,522.0,2.0,95,188.0
4925,B3,522.375,9/20,57,188.0
4926,C3,522.483,9/20,62,188.0
4927,C4,522.5,9/20,104,188.0
4928,E-3,522.5,0.25,56,188.0
4929,C4,522.875,9/20,62,188.0
4930,D3,522.983,9/20,59,188.0
4931,E1,523.0,79/500,86,188.0
4932,D4,523.0,9/20,101,188.0
4933,E-3,523.0,0.25,76,188.0
4934,D4,523.375,9/20,59,188.0
4935,E3,523.483,9/20,50,188.0
4936,D3,523.5,0.5,91,188.0
4937,E4,523.5,9/20,92,188.0
4938,B1,523.5,0.25,70,188.0
4939,E-3,523.5,0.25,56,188.0
4940,E4,523.875,0.125,50,188.0
4941,D3,523.983,17/1000,56,188.0
4942,D3,524.0,123/250,91,188.0
4943,D4,524.0,9/20,98,188.0
4944,E4,524.0,13/40,50,188.0
4945,D3,524.0,433/1000,56,188.0
4946,E-3,524.0,0.25,76,188.0
4947,E4,524.0,2.0,95,188.0
4948,C#4,524.0,2.0,95,188.0
4949,A3,524.0,2.0,95,188.0
4950,D4,524.375,9/20,56,188.0
4951,C3,524.483,9/20,49,188.0
4952,E1,524.5,79/500,86,188.0
4953,C4,524.5,9/20,91,188.0
4954,E-3,524.5,0.25,56,188.0
4955,C4,524.875,9/20,49,188.0
4956,B2,524.983,9/20,55,188.0
4957,G3,524.992,0.25,72,188.0
4958,B-2,525.0,124/125,91,188.0
4959,B3,525.0,9/20,97,188.0
4960,B1,525.0,0.25,70,188.0
4961,B3,525.375,9/20,55,188.0
4962,C#3,525.483,9/20,60,188.0
4963,C#4,525.5,9/20,102,188.0
4964,E-3,525.5,0.25,56,188.0
4965,B3,525.5,0.5,95,188.0
4966,D4,525.5,0.5,95,188.0
4967,F#4,525.5,0.5,95,188.0
4968,C#4,525.875,9/20,60,188.0
4969,E-3,525.983,9/20,63,188.0
4970,E1,526.0,79/500,86,188.0
4971,E-4,526.0,9/20,105,188.0
4972,E-3,526.0,0.25,76,188.0
4973,B3,526.0,2.0,95,188.0
4974,D4,526.0,2.0,95,188.0
4975,F#4,526.0,2.0,95,188.0
4976,E-4,526.375,9/20,63,188.0
4977,C#3,526.483,9/20,61,188.0
4978,G3,526.492,0.25,52,188.0
4979,C#2,526.5,124/125,91,188.0
4980,C#4,526.5,9/20,103,188.0
4981,B1,526.5,0.25,70,188.0
4982,C#4,526.875,9/20,61,188.0
4983,E-3,527.0,0.25,76,188.0
4984,B2,527.483,9/20,55,188.0
4985,E1,527.5,79/500,86,188.0
4986,B3,527.5,9/20,97,188.0
4987,E-3,527.5,0.25,56,188.0
4988,B3,527.875,0.125,55,188.0
4989,B-2,527.983,17/1000,60,188.0
4990,G3,527.992,1/125,72,188.0
4991,F#2,528.0,124/125,91,188.0
4992,B-3,528.0,9/20,102,188.0
4993,B3,528.0,13/40,55,188.0
4994,B-2,528.0,433/1000,60,188.0
4995,B1,528.0,0.25,70,188.0
4996,G3,528.0,121/500,72,188.0
4997,C4,528.0,2.0,95,188.0
4998,E4,528.0,2.0,95,188.0
4999,G3,528.0,2.0,95,188.0
5000,B-3,528.375,9/20,60,188.0
5001,E-3,528.5,0.25,56,188.0
5002,E1,529.0,79/500,86,188.0
5003,E-3,529.0,0.25,76,188.0
5004,C#2,529.483,9/20,54,188.0
5005,C#2,529.5,121/500,91,188.0
5006,C#3,529.5,9/20,96,188.0
5007,B1,529.5,0.25,70,188.0
5008,E-3,529.5,0.25,56,188.0
5009,C4,529.5,0.5,95,188.0
5010,F#3,529.5,0.5,95,188.0
5011,E4,529.5,0.5,95,188.0
5012,C#3,529.875,9/20,54,188.0
5013,E-2,529.983,9/20,63,188.0
5014,F#2,530.0,123/250,91,188.0
5015,E-3,530.0,9/20,105,188.0
5016,B1,530.0,0.25,70,188.0
5017,E-3,530.0,0.25,76,188.0
5018,E-3,530.375,9/20,63,188.0
5019,F2,530.483,9/20,52,188.0
5020,C#2,530.5,123/250,81,188.0
5021,F3,530.5,9/20,94,188.0
5022,E-3,530.5,0.25,56,188.0
5023,F3,530.875,9/20,52,188.0
5024,F#2,530.983,9/20,51,188.0
5025,F#2,531.0,123/250,91,188.0
5026,F#3,531.0,9/20,93,188.0
5027,E-3,531.0,0.25,76,188.0
5028,B-3,531.0,1.5,95,188.0
5029,F#3,531.0,1.5,95,188.0
5030,E-4,531.0,1.5,95,188.0
5031,F#3,531.375,9/20,51,188.0
5032,G#2,531.483,9/20,57,188.0
5033,E1,531.5,79/500,86,188.0
5034,G#3,531.5,9/20,99,188.0
5035,B1,531.5,0.25,70,188.0
5036,E-3,531.5,0.25,56,188.0
5037,G#3,531.875,0.125,57,188.0
5038,B2,531.983,17/1000,63,188.0
5039,F2,532.0,124/125,91,188.0
5040,B3,532.0,9/20,105,188.0
5041,G#3,532.0,13/40,57,188.0
5042,B2,532.0,433/1000,63,188.0
5043,B1,532.0,0.25,70,188.0
5044,E-3,532.0,0.25,76,188.0
5045,B3,532.375,9/20,63,188.0
5046,G#2,532.483,9/20,60,188.0
5047,G#3,532.5,9/20,102,188.0
5048,E-3,532.5,0.25,56,188.0
5049,B-3,532.5,0.5,95,188.0
5050,E-4,532.5,0.5,95,188.0
5051,F3,532.5,0.5,95,188.0
5052,G#3,532.875,9/20,60,188.0
5053,D3,532.983,9/20,58,188.0
5054,E1,533.0,79/500,86,188.0
5055,D4,533.0,9/20,100,188.0
5056,E-3,533.0,0.25,76,188.0
5057,D4,533.375,9/20,58,188.0
5058,F2,533.5,121/500,91,188.0
5059,B1,533.5,0.25,70,188.0
5060,E-3,533.5,0.25,56,188.0
5061,F3,533.983,9/20,55,188.0
5062,B-1,534.0,124/125,91,188.0
5063,F4,534.0,9/20,97,188.0
5064,B1,534.0,0.25,70,188.0
5065,E-3,534.0,0.25,76,188.0
5066,C#4,534.0,4.0,105,188.0
5067,F4,534.0,4.0,105,188.0
5068,B-3,534.0,4.0,105,188.0
5069,F#3,534.0,4.0,105,188.0
5070,F4,534.375,9/20,55,188.0
5071,E-3,534.5,0.25,56,188.0
5072,G#3,534.983,9/20,58,188.0
5073,E1,535.0,79/500,86,188.0
5074,G#4,535.0,9/20,100,188.0
5075,E-3,535.0,0.25,76,188.0
5076,G#4,535.375,9/20,58,188.0
5077,B-1,535.5,121/500,91,188.0
5078,B1,535.5,0.25,70,188.0
5079,E-3,535.5,0.25,56,188.0
5080,B-3,535.983,17/1000,58,188.0
5081,E-2,536.0,124/125,91,188.0
5082,B-4,536.0,9/20,100,188.0
5083,B-3,536.0,433/1000,58,188.0
5084,B1,536.0,0.25,70,188.0
5085,E-3,536.0,0.25,76,188.0
5086,B-4,536.375,9/20,58,188.0
5087,B3,536.483,9/20,54,188.0
5088,B4,536.5,9/20,96,188.0
5089,E-3,536.5,0.25,56,188.0
5090,B4,536.875,9/20,54,188.0
5091,B-3,536.983,9/20,56,188.0
5092,E1,537.0,79/500,86,188.0
5093,B-4,537.0,9/20,98,188.0
5094,E-3,537.0,0.25,76,188.0
5095,B-4,537.375,9/20,56,188.0
5096,G#3,537.483,9/20,56,188.0
5097,E-2,537.5,121/500,91,188.0
5098,G#4,537.5,9/20,98,188.0
5099,B1,537.5,0.25,70,188.0
5100,E-3,537.5,0.25,56,188.0
5101,G#4,537.875,9/20,56,188.0
5102,G#2,538.0,124/125,91,188.0
5103,B1,538.0,0.25,70,188.0
5104,E-3,538.0,0.25,76,188.0
5105,B-4,538.0,2.0,95,188.0
5106,B3,538.0,2.0,95,188.0
5107,E-4,538.0,2.0,95,188.0
5108,F4,538.0,2.0,95,188.0
5109,F#3,538.483,9/20,54,188.0
5110,F#4,538.5,9/20,96,188.0
5111,E-3,538.5,0.25,56,188.0
5112,F#4,538.875,9/20,54,188.0
5113,E1,539.0,79/500,86,188.0
5114,E-3,539.0,0.25,76,188.0
5115,E-3,539.483,9/20,48,188.0
5116,E-2,539.5,121/500,91,188.0
5117,E-4,539.5,9/20,90,188.0
5118,B1,539.5,0.25,70,188.0
5119,E-3,539.5,0.25,56,188.0
5120,E-4,539.875,0.125,48,188.0
5121,F#3,539.983,17/1000,51,188.0
5122,G#2,540.0,124/125,91,188.0
5123,F#4,540.0,617/1000,93,188.0
5124,E-4,540.0,13/40,48,188.0
5125,F#3,540.0,3/5,51,188.0
5126,B1,540.0,0.25,70,188.0
5127,E-3,540.0,0.25,76,188.0
5128,G#4,540.0,2.0,95,188.0
5129,B3,540.0,2.0,95,188.0
5130,F#4,540.0,2.0,95,188.0
5131,D4,540.0,2.0,95,188.0
5132,F#4,540.375,617/1000,51,188.0
5133,E-3,540.5,0.25,56,188.0
5134,G#3,540.65,617/1000,54,188.0
5135,G#4,540.667,617/1000,96,188.0
5136,E1,541.0,79/500,86,188.0
5137,E-3,541.0,0.25,76,188.0
5138,G#4,541.042,617/1000,54,188.0
5139,F#3,541.317,617/1000,49,188.0
5140,F#4,541.333,617/1000,91,188.0
5141,G#2,541.5,121/500,91,188.0
5142,B1,541.5,0.25,70,188.0
5143,E-3,541.5,0.25,56,188.0
5144,F#4,541.708,617/1000,49,188.0
5145,F3,541.983,617/1000,50,188.0
5146,C#2,542.0,124/125,91,188.0
5147,F#3,542.0,4.0,95,188.0
5148,F4,542.0,617/1000,92,188.0
5149,B1,542.0,0.25,70,188.0
5150,E-3,542.0,0.25,76,188.0
5151,C#4,542.0,2.0,95,188.0
5152,F#4,542.0,2.0,95,188.0
5153,B-3,542.0,2.0,95,188.0
5154,F4,542.375,617/1000,50,188.0
5155,E-3,542.5,0.25,56,188.0
5156,F#3,542.65,617/1000,55,188.0
5157,F#4,542.667,617/1000,97,188.0
5158,E1,543.0,79/500,86,188.0
5159,E-3,543.0,0.25,76,188.0
5160,F#4,543.042,617/1000,55,188.0
5161,G#3,543.317,617/1000,59,188.0
5162,G#4,543.333,617/1000,101,188.0
5163,C#2,543.5,121/500,91,188.0
5164,B1,543.5,0.25,70,188.0
5165,E-3,543.5,0.25,56,188.0
5166,G#4,543.708,73/250,59,188.0
5167,B-3,543.983,17/1000,58,188.0
5168,F#2,544.0,124/125,91,188.0
5169,B-4,544.0,19/20,100,188.0
5170,G#4,544.0,13/40,59,188.0
5171,B-3,544.0,933/1000,58,188.0
5172,B1,544.0,0.25,70,188.0
5173,E-3,544.0,0.25,76,188.0
5174,G#4,544.0,2.0,95,188.0
5175,E-4,544.0,2.0,95,188.0
5176,C4,544.0,2.0,95,188.0
5177,B-4,544.375,19/20,58,188.0
5178,E-3,544.5,0.25,56,188.0
5179,E1,545.0,79/500,86,188.0
5180,E-3,545.0,0.25,76,188.0
5181,F#3,545.483,9/20,61,188.0
5182,F#2,545.5,121/500,91,188.0
5183,F#4,545.5,9/20,103,188.0
5184,B1,545.5,0.25,70,188.0
5185,E-3,545.5,0.25,56,188.0
5186,F#4,545.875,9/20,61,188.0
5187,C#3,545.983,29/20,51,188.0
5188,C2,546.0,124/125,91,188.0
5189,F#3,546.0,0.5,95,188.0
5190,C#4,546.0,29/20,93,188.0
5191,B1,546.0,0.25,70,188.0
5192,E-3,546.0,0.25,76,188.0
5193,C#4,546.375,29/20,51,188.0
5194,E-3,546.5,0.25,56,188.0
5195,B3,546.5,1.5,95,188.0
5196,E-4,546.5,1.5,95,188.0
5197,G#4,546.5,1.5,95,188.0
5198,E1,547.0,79/500,86,188.0
5199,E-3,547.0,0.25,76,188.0
5200,C#3,547.483,9/20,62,188.0
5201,C2,547.5,121/500,91,188.0
5202,C#4,547.5,9/20,104,188.0
5203,B1,547.5,0.25,70,188.0
5204,E-3,547.5,0.25,56,188.0
5205,C#4,547.875,0.125,62,188.0
5206,E-3,547.983,17/1000,63,188.0
5207,B1,548.0,124/125,91,188.0
5208,E-4,548.0,9/20,105,188.0
5209,C#4,548.0,13/40,62,188.0
5210,E-3,548.0,433/1000,63,188.0
5211,B1,548.0,0.25,70,188.0
5212,E-3,548.0,0.25,76,188.0
5213,F#4,548.0,2.0,95,188.0
5214,C#4,548.0,2.0,95,188.0
5215,G#3,548.0,2.0,95,188.0
5216,E-4,548.375,9/20,63,188.0
5217,E-3,548.5,0.25,56,188.0
5218,F#3,548.983,9/20,62,188.0
5219,E1,549.0,79/500,86,188.0
5220,F#4,549.0,9/20,104,188.0
5221,E-3,549.0,0.25,76,188.0
5222,F#4,549.375,9/20,62,188.0
5223,B1,549.5,121/500,91,188.0
5224,B1,549.5,0.25,70,188.0
5225,E-3,549.5,0.25,56,188.0
5226,C#4,549.983,27/250,55,188.0
5227,B-1,550.0,124/125,91,188.0
5228,C#5,550.0,27/250,97,188.0
5229,B1,550.0,0.25,70,188.0
5230,E-3,550.0,0.25,76,188.0
5231,F4,550.0,2.0,95,188.0
5232,G#4,550.0,2.0,95,188.0
5233,C#4,550.0,2.0,95,188.0
5234,E-4,550.15,1117/1000,59,188.0
5235,E-5,550.167,1117/1000,101,188.0
5236,C#5,550.375,27/250,55,188.0
5237,E-3,550.5,0.25,56,188.0
5238,E-5,550.542,1117/1000,59,188.0
5239,E1,551.0,79/500,86,188.0
5240,E-3,551.0,0.25,76,188.0
5241,C#4,551.483,9/20,52,188.0
5242,B-1,551.5,121/500,91,188.0
5243,C#5,551.5,9/20,94,188.0
5244,B1,551.5,0.25,70,188.0
5245,E-3,551.5,0.25,56,188.0
5246,C#5,551.875,0.125,52,188.0
5247,C#4,551.983,17/1000,54,188.0
5248,G#1,552.0,124/125,91,188.0
5249,C#5,552.0,19/20,96,188.0
5250,C#5,552.0,13/40,52,188.0
5251,C#4,552.0,933/1000,54,188.0
5252,B1,552.0,0.25,70,188.0
5253,E-3,552.0,0.25,76,188.0
5254,E4,552.0,2.0,95,188.0
5255,C#4,552.0,2.0,95,188.0
5256,B-4,552.0,2.0,95,188.0
5257,C#5,552.375,19/20,54,188.0
5258,E-3,552.5,0.25,56,188.0
5259,B-3,552.983,9/20,59,188.0
5260,E1,553.0,79/500,86,188.0
5261,B-4,553.0,9/20,101,188.0
5262,E-3,553.0,0.25,76,188.0
5263,B-4,553.375,9/20,59,188.0
5264,G#1,553.5,121/500,91,188.0
5265,B1,553.5,0.25,70,188.0
5266,E-3,553.5,0.25,56,188.0
5267,C#2,554.0,124/125,91,188.0
5268,B1,554.0,0.25,70,188.0
5269,E-3,554.0,0.25,76,188.0
5270,F#3,554.483,9/20,62,188.0
5271,F#4,554.5,9/20,104,188.0
5272,E-3,554.5,0.25,56,188.0
5273,B-3,554.5,1.5,95,188.0
5274,B3,554.5,1.5,95,188.0
5275,E-4,554.5,1.5,95,188.0
5276,F#4,554.875,9/20,62,188.0
5277,G#3,554.983,9/20,54,188.0
5278,E1,555.0,79/500,86,188.0
5279,G#4,555.0,9/20,96,188.0
5280,E-3,555.0,0.25,76,188.0
5281,G#4,555.375,9/20,54,188.0
5282,B-3,555.483,9/20,52,188.0
5283,G#1,555.5,121/500,91,188.0
5284,B-4,555.5,9/20,94,188.0
5285,B1,555.5,0.25,70,188.0
5286,E-3,555.5,0.25,56,188.0
5287,B-4,555.875,0.125,52,188.0
5288,B3,555.983,17/1000,57,188.0
5289,C2,556.0,124/125,91,188.0
5290,B4,556.0,9/20,99,188.0
5291,B-4,556.0,13/40,52,188.0
5292,B3,556.0,433/1000,57,188.0
5293,B1,556.0,0.25,70,188.0
5294,E-3,556.0,0.25,76,188.0
5295,B4,556.375,9/20,57,188.0
5296,B-3,556.483,9/20,59,188.0
5297,B-4,556.5,9/20,101,188.0
5298,E-3,556.5,0.25,56,188.0
5299,G#3,556.5,1.5,95,188.0
5300,B-3,556.5,1.5,95,188.0
5301,C#4,556.5,1.5,95,188.0
5302,F4,556.5,1.5,95,188.0
5303,B-4,556.875,9/20,59,188.0
5304,G#3,556.983,9/20,59,188.0
5305,E1,557.0,79/500,86,188.0
5306,G#4,557.0,9/20,101,188.0
5307,E-3,557.0,0.25,76,188.0
5308,G#4,557.375,9/20,59,188.0
5309,B3,557.483,9/20,50,188.0
5310,C2,557.5,121/500,91,188.0
5311,B4,557.5,9/20,92,188.0
5312,B1,557.5,0.25,70,188.0
5313,E-3,557.5,0.25,56,188.0
5314,B4,557.875,9/20,50,188.0
5315,B-3,557.983,9/20,52,188.0
5316,C2,558.0,124/125,91,188.0
5317,B-4,558.0,9/20,94,188.0
5318,B1,558.0,0.25,70,188.0
5319,E-3,558.0,0.25,76,188.0
5320,B-4,558.375,9/20,52,188.0
5321,G#3,558.483,9/20,62,188.0
5322,G#4,558.5,9/20,104,188.0
5323,E-3,558.5,0.25,56,188.0
5324,E-4,558.5,3.5,95,188.0
5325,B-3,558.5,3.5,95,188.0
5326,C#4,558.5,3.5,95,188.0
5327,F#4,558.5,3.5,95,188.0
5328,G#4,558.875,9/20,62,188.0
5329,F#3,558.983,9/20,56,188.0
5330,E1,559.0,79/500,86,188.0
5331,F#4,559.0,9/20,98,188.0
5332,E-3,559.0,0.25,76,188.0
5333,F#4,559.375,9/20,56,188.0
5334,E-3,559.483,9/20,62,188.0
5335,C2,559.5,121/500,91,188.0
5336,E-4,559.5,9/20,104,188.0
5337,B1,559.5,0.25,70,188.0
5338,E-3,559.5,0.25,56,188.0
5339,E-4,559.875,0.125,62,188.0
5340,D3,559.983,17/1000,56,188.0
5341,B1,560.0,124/125,91,188.0
5342,D4,560.0,19/20,98,188.0
5343,E-4,560.0,13/40,62,188.0
5344,D3,560.0,933/1000,56,188.0
5345,B1,560.0,0.25,70,188.0
5346,E-3,560.0,0.25,76,188.0
5347,D4,560.375,19/20,56,188.0
5348,E-3,560.5,0.25,56,188.0
5349,B2,560.983,9/20,55,188.0
5350,E1,561.0,79/500,86,188.0
5351,B3,561.0,9/20,97,188.0
5352,E-3,561.0,0.25,76,188.0
5353,B3,561.375,9/20,55,188.0
5354,C#3,561.483,9/20,49,188.0
5355,B1,561.5,121/500,91,188.0
5356,C#4,561.5,9/20,91,188.0
5357,B1,561.5,0.25,70,188.0
5358,E-3,561.5,0.25,56,188.0
5359,C#4,561.875,9/20,49,188.0
5360,B1,562.0,124/125,91,188.0
5361,B1,562.0,0.25,70,188.0
5362,E-3,562.0,0.25,76,188.0
5363,B-4,562.0,4.0,95,188.0
5364,F#4,562.0,4.0,95,188.0
5365,E-4,562.0,4.0,95,188.0
5366,F#3,562.0,4.0,95,188.0
5367,B-3,562.0,4.0,95,188.0
5368,E-3,562.5,0.25,56,188.0
5369,E1,563.0,79/500,86,188.0
5370,E-3,563.0,0.25,76,188.0
5371,B2,563.483,9/20,49,188.0
5372,B1,563.5,121/500,91,188.0
5373,B3,563.5,9/20,91,188.0
5374,B1,563.5,0.25,70,188.0
5375,E-3,563.5,0.25,56,188.0
5376,B3,563.875,0.125,49,188.0
5377,B-2,563.983,17/1000,53,188.0
5378,F#1,564.0,124/125,91,188.0
5379,B-3,564.0,9/20,95,188.0
5380,B3,564.0,13/40,49,188.0
5381,B-2,564.0,433/1000,53,188.0
5382,B1,564.0,0.25,70,188.0
5383,E-3,564.0,0.25,76,188.0
5384,B-3,564.375,9/20,53,188.0
5385,C#3,564.483,9/20,59,188.0
5386,C#4,564.5,9/20,101,188.0
5387,E-3,564.5,0.25,56,188.0
5388,C#4,564.875,9/20,59,188.0
5389,F#3,564.983,9/20,54,188.0
5390,E1,565.0,79/500,86,188.0
5391,F#4,565.0,9/20,96,188.0
5392,E-3,565.0,0.25,76,188.0
5393,F#4,565.375,9/20,54,188.0
5394,A2,565.483,9/20,58,188.0
5395,F#1,565.5,121/500,91,188.0
5396,A3,565.5,9/20,100,188.0
5397,B1,565.5,0.25,70,188.0
5398,E-3,565.5,0.25,56,188.0
5399,A3,565.875,9/20,58,188.0
5400,C#3,565.983,9/20,51,188.0
5401,F#2,566.0,373/250,91,188.0
5402,C#4,566.0,9/20,93,188.0
5403,B1,566.0,0.25,70,188.0
5404,E-3,566.0,0.25,76,188.0
5405,C#4,566.375,9/20,51,188.0
5406,F#3,566.483,9/20,57,188.0
5407,F#4,566.5,9/20,99,188.0
5408,E-3,566.5,0.25,56,188.0
5409,B-4,566.5,0.5,95,188.0
5410,F#4,566.5,0.5,95,188.0
5411,F#4,566.875,9/20,57,188.0
5412,G#2,566.983,9/20,56,188.0
5413,B3,567.0,3.5,95,188.0
5414,G#3,567.0,9/20,98,188.0
5415,E-3,567.0,0.25,76,188.0
5416,G#3,567.375,9/20,56,188.0
5417,C#3,567.483,9/20,56,188.0
5418,E1,567.5,79/500,86,188.0
5419,C#4,567.5,9/20,98,188.0
5420,B1,567.5,0.25,70,188.0
5421,E-3,567.5,0.25,56,188.0
5422,B-4,567.5,3.0,95,188.0
5423,F#4,567.5,3.0,95,188.0
5424,C#4,567.875,0.125,56,188.0
5425,F#3,567.983,17/1000,63,188.0
5426,F#1,568.0,124/125,91,188.0
5427,F#4,568.0,9/20,105,188.0
5428,C#4,568.0,13/40,56,188.0
5429,F#3,568.0,433/1000,63,188.0
5430,B1,568.0,0.25,70,188.0
5431,E-3,568.0,0.25,76,188.0
5432,F#4,568.375,9/20,63,188.0
5433,E-3,568.5,0.25,56,188.0
5434,A2,568.983,9/20,63,188.0
5435,E1,569.0,79/500,86,188.0
5436,A3,569.0,9/20,105,188.0
5437,E-3,569.0,0.25,76,188.0
5438,A3,569.375,9/20,63,188.0
5439,C#3,569.483,9/20,56,188.0
5440,F#1,569.5,121/500,91,188.0
5441,C#4,569.5,9/20,98,188.0
5442,B1,569.5,0.25,70,188.0
5443,E-3,569.5,0.25,56,188.0
5444,C#4,569.875,9/20,56,188.0
5445,F#3,569.983,9/20,59,188.0
5446,F#2,570.0,124/125,91,188.0
5447,F#4,570.0,9/20,101,188.0
5448,B1,570.0,0.25,70,188.0
5449,E-3,570.0,0.25,76,188.0
5450,F#4,570.375,9/20,59,188.0
5451,E-3,570.5,0.25,56,188.0
5452,B-3,570.5,4.0,95,188.0
5453,G#4,570.5,4.0,95,188.0
5454,C#4,570.5,4.0,95,188.0
5455,F4,570.5,4.0,95,188.0
5456,B-2,570.983,9/20,54,188.0
5457,E1,571.0,79/500,86,188.0
5458,B-3,571.0,9/20,96,188.0
5459,E-3,571.0,0.25,76,188.0
5460,B-3,571.375,9/20,54,188.0
5461,C#3,571.483,9/20,60,188.0
5462,F#1,571.5,121/500,91,188.0
5463,C#4,571.5,9/20,102,188.0
5464,B1,571.5,0.25,70,188.0
5465,E-3,571.5,0.25,56,188.0
5466,C#4,571.875,0.125,60,188.0
5467,F#3,571.983,17/1000,48,188.0
5468,F#1,572.0,124/125,91,188.0
5469,F#4,572.0,9/20,90,188.0
5470,C#4,572.0,13/40,60,188.0
5471,F#3,572.0,433/1000,48,188.0
5472,B1,572.0,0.25,70,188.0
5473,E-3,572.0,0.25,76,188.0
5474,F#4,572.375,9/20,48,188.0
5475,E-3,572.5,0.25,56,188.0
5476,A3,572.5,2.0,95,188.0
5477,E4,572.5,2.0,95,188.0
5478,E1,573.0,79/500,86,188.0
5479,E-3,573.0,0.25,76,188.0
5480,A2,573.483,9/20,60,188.0
5481,F#1,573.5,121/500,91,188.0
5482,A3,573.5,9/20,102,188.0
5483,B1,573.5,0.25,70,188.0
5484,E-3,573.5,0.25,56,188.0
5485,A3,573.875,9/20,60,188.0
5486,C#3,573.983,9/20,53,188.0
5487,F#2,574.0,124/125,91,188.0
5488,C#4,574.0,9/20,95,188.0
5489,B1,574.0,0.25,70,188.0
5490,E-3,574.0,0.25,76,188.0
5491,C#4,574.375,9/20,53,188.0
5492,F#3,574.483,9/20,48,188.0
5493,F#4,574.5,9/20,90,188.0
5494,E-3,574.5,0.25,56,188.0
5495,E-4,574.5,2.0,95,188.0
5496,G#3,574.5,2.0,95,188.0
5497,F#4,574.875,9/20,48,188.0
5498,G#2,574.983,9/20,56,188.0
5499,E1,575.0,79/500,86,188.0
5500,G#3,575.0,9/20,98,188.0
5501,E-3,575.0,0.25,76,188.0
5502,G#3,575.375,9/20,56,188.0
5503,C#3,575.483,9/20,60,188.0
5504,F#1,575.5,0.5,91,188.0
5505,C#4,575.5,9/20,102,188.0
5506,B1,575.5,0.25,70,188.0
5507,E-3,575.5,0.25,56,188.0
5508,C#4,575.875,0.125,60,188.0
5509,F#3,575.983,17/1000,53,188.0
5510,F#1,576.0,124/125,91,188.0
5511,F#4,576.0,9/20,95,188.0
5512,C#4,576.0,13/40,60,188.0
5513,F#3,576.0,433/1000,53,188.0
5514,B1,576.0,0.25,70,188.0
5515,E-3,576.0,0.25,76,188.0
5516,F#4,576.375,9/20,53,188.0
5517,E-3,576.5,0.25,56,188.0
5518,A3,576.5,2.0,95,188.0
5519,E4,576.5,2.0,95,188.0
5520,G2,576.983,9/20,63,188.0
5521,E1,577.0,79/500,86,188.0
5522,G3,577.0,9/20,105,188.0
5523,E-3,577.0,0.25,76,188.0
5524,G3,577.375,9/20,63,188.0
5525,C#3,577.483,9/20,63,188.0
5526,F#1,577.5,121/500,91,188.0
5527,C#4,577.5,9/20,105,188.0
5528,B1,577.5,0.25,70,188.0
5529,E-3,577.5,0.25,56,188.0
5530,C#4,577.875,9/20,63,188.0
5531,F#2,578.0,124/125,91,188.0
5532,B1,578.0,0.25,70,188.0
5533,E-3,578.0,0.25,76,188.0
5534,F#2,578.483,9/20,57,188.0
5535,F#3,578.5,9/20,99,188.0
5536,E-3,578.5,0.25,56,188.0
5537,C#4,578.5,2.0,95,188.0
5538,B-3,578.5,2.0,95,188.0
5539,F4,578.5,2.0,95,188.0
5540,F#3,578.875,9/20,57,188.0
5541,E1,579.0,79/500,86,188.0
5542,E-3,579.0,0.25,76,188.0
5543,E1,579.5,79/500,86,188.0
5544,B1,579.5,0.25,70,188.0
5545,E-3,579.5,0.25,56,188.0
5546,F#2,579.983,17/1000,54,188.0
5547,E-2,580.0,124/125,91,188.0
5548,F#3,580.0,9/20,96,188.0
5549,F#2,580.0,433/1000,54,188.0
5550,B1,580.0,0.25,70,188.0
5551,E-3,580.0,0.25,76,188.0
5552,F#3,580.375,9/20,54,188.0
5553,G#2,580.483,9/20,52,188.0
5554,G#3,580.5,9/20,94,188.0
5555,E-3,580.5,0.25,56,188.0
5556,C#4,580.5,2.0,95,188.0
5557,A3,580.5,2.0,95,188.0
5558,E4,580.5,2.0,95,188.0
5559,G#3,580.875,9/20,52,188.0
5560,B-2,580.983,9/20,57,188.0
5561,E1,581.0,79/500,86,188.0
5562,B-3,581.0,9/20,99,188.0
5563,E-3,581.0,0.25,76,188.0
5564,B-3,581.375,9/20,57,188.0
5565,C#3,581.483,9/20,48,188.0
5566,E-2,581.5,121/500,91,188.0
5567,C#4,581.5,9/20,90,188.0
5568,B1,581.5,0.25,70,188.0
5569,E-3,581.5,0.25,56,188.0
5570,C#4,581.875,9/20,48,188.0
5571,C3,581.983,9/20,55,188.0
5572,G#1,582.0,124/125,91,188.0
5573,C4,582.0,9/20,97,188.0
5574,B1,582.0,0.25,70,188.0
5575,E-3,582.0,0.25,76,188.0
5576,C4,582.375,9/20,55,188.0
5577,G#3,582.483,9/20,62,188.0
5578,G#4,582.5,9/20,104,188.0
5579,E-3,582.5,0.25,56,188.0
5580,G#3,582.5,2.0,95,188.0
5581,E-4,582.5,2.0,95,188.0
5582,G#4,582.875,9/20,62,188.0
5583,B2,582.983,9/20,59,188.0
5584,E1,583.0,79/500,86,188.0
5585,B3,583.0,9/20,101,188.0
5586,E-3,583.0,0.25,76,188.0
5587,B3,583.375,9/20,59,188.0
5588,C#3,583.483,9/20,60,188.0
5589,G#1,583.5,121/500,91,188.0
5590,C#4,583.5,9/20,102,188.0
5591,B1,583.5,0.25,70,188.0
5592,E-3,583.5,0.25,56,188.0
5593,C#4,583.875,0.125,60,188.0
5594,E-3,583.983,17/1000,57,188.0
5595,G#1,584.0,124/125,91,188.0
5596,C#4,584.0,0.5,95,188.0
5597,E-4,584.0,9/20,99,188.0
5598,C#4,584.0,13/40,60,188.0
5599,E-3,584.0,433/1000,57,188.0
5600,B1,584.0,0.25,70,188.0
5601,E-3,584.0,0.25,76,188.0
5602,E-4,584.375,9/20,57,188.0
5603,F#3,584.483,9/20,49,188.0
5604,F#4,584.5,9/20,91,188.0
5605,E-3,584.5,0.25,56,188.0
5606,F#4,584.875,9/20,49,188.0
5607,F3,584.983,9/20,55,188.0
5608,E1,585.0,79/500,86,188.0
5609,F4,585.0,9/20,97,188.0
5610,E-3,585.0,0.25,76,188.0
5611,B-3,585.0,1.5,95,188.0
5612,B-4,585.0,1.5,95,188.0
5613,E-4,585.0,1.5,95,188.0
5614,F#4,585.0,1.5,95,188.0
5615,F4,585.375,9/20,55,188.0
5616,C#4,585.483,9/20,57,188.0
5617,G#1,585.5,121/500,91,188.0
5618,C#5,585.5,9/20,99,188.0
5619,B1,585.5,0.25,70,188.0
5620,E-3,585.5,0.25,56,188.0
5621,C#5,585.875,9/20,57,188.0
5622,C#2,586.0,124/125,91,188.0
5623,B1,586.0,0.25,70,188.0
5624,E-3,586.0,0.25,76,188.0
5625,C#3,586.483,9/20,61,188.0
5626,C#4,586.5,9/20,103,188.0
5627,E-3,586.5,0.25,56,188.0
5628,E-4,586.5,2.0,105,188.0
5629,B-3,586.5,2.0,105,188.0
5630,F#4,586.5,2.0,105,188.0
5631,C#4,586.5,2.0,105,188.0
5632,C#4,586.875,9/20,61,188.0
5633,E-3,586.983,9/20,53,188.0
5634,E1,587.0,79/500,86,188.0
5635,E-4,587.0,9/20,95,188.0
5636,E-3,587.0,0.25,76,188.0
5637,E-4,587.375,9/20,53,188.0
5638,F3,587.483,9/20,52,188.0
5639,G1,587.5,0.5,91,188.0
5640,F4,587.5,9/20,94,188.0
5641,B1,587.5,0.25,70,188.0
5642,E-3,587.5,0.25,56,188.0
5643,F4,587.875,0.125,52,188.0
5644,F#3,587.983,17/1000,51,188.0
5645,A3,587.992,1/125,82,188.0
5646,G1,588.0,124/125,91,188.0
5647,F#4,588.0,9/20,93,188.0
5648,F4,588.0,13/40,52,188.0
5649,F#3,588.0,433/1000,51,188.0
5650,B1,588.0,0.25,70,188.0
5651,A3,588.0,121/500,82,188.0
5652,F#4,588.375,9/20,51,188.0
5653,G3,588.483,9/20,53,188.0
5654,G4,588.5,9/20,95,188.0
5655,E-3,588.5,0.25,56,188.0
5656,E-4,588.5,2.0,105,188.0
5657,G#3,588.5,2.0,105,188.0
5658,F#4,588.5,2.0,105,188.0
5659,C4,588.5,2.0,105,188.0
5660,G4,588.875,9/20,53,188.0
5661,A3,588.983,9/20,49,188.0
5662,E1,589.0,79/500,86,188.0
5663,A4,589.0,9/20,91,188.0
5664,E-3,589.0,0.25,76,188.0
5665,A4,589.375,9/20,49,188.0
5666,B-3,589.483,9/20,58,188.0
5667,G1,589.5,121/500,91,188.0
5668,B-4,589.5,9/20,100,188.0
5669,B1,589.5,0.25,70,188.0
5670,E-3,589.5,0.25,56,188.0
5671,B-4,589.875,9/20,58,188.0
5672,B3,589.983,9/20,50,188.0
5673,G2,590.0,371/500,91,188.0
5674,B4,590.0,9/20,92,188.0
5675,B1,590.0,0.25,70,188.0
5676,E-3,590.0,0.25,76,188.0
5677,B4,590.375,9/20,50,188.0
5678,B-3,590.483,9/20,62,188.0
5679,E1,590.5,79/500,86,188.0
5680,B-4,590.5,9/20,104,188.0
5681,E-3,590.5,0.25,56,188.0
5682,B-4,590.875,9/20,62,188.0
5683,A3,590.983,9/20,63,188.0
5684,G2,591.0,371/500,91,188.0
5685,A4,591.0,9/20,105,188.0
5686,E-3,591.0,0.25,76,188.0
5687,C4,591.0,0.5,105,188.0
5688,G#4,591.0,0.5,105,188.0
5689,E-4,591.0,0.5,105,188.0
5690,A4,591.375,9/20,63,188.0
5691,G3,591.483,9/20,62,188.0
5692,G4,591.5,9/20,104,188.0
5693,B1,591.5,0.25,70,188.0
5694,E-3,591.5,0.25,56,188.0
5695,G4,591.875,0.125,62,188.0
5696,F#3,591.983,17/1000,63,188.0
5697,C#3,591.992,1/125,92,188.0
5698,F#2,592.0,124/125,91,188.0
5699,F#4,592.0,9/20,105,188.0
5700,G4,592.0,13/40,62,188.0
5701,F#3,592.0,433/1000,63,188.0
5702,B1,592.0,0.25,70,188.0
5703,C#3,592.0,121/500,92,188.0
5704,D4,592.0,2.0,105,188.0
5705,B3,592.0,2.0,105,188.0
5706,G#4,592.0,2.0,105,188.0
5707,F#4,592.375,9/20,63,188.0
5708,E3,592.483,9/20,62,188.0
5709,E4,592.5,9/20,104,188.0
5710,F3,592.5,0.25,56,188.0
5711,E4,592.875,9/20,62,188.0
5712,E-3,592.983,9/20,50,188.0
5713,E1,593.0,79/500,86,188.0
5714,E-4,593.0,9/20,92,188.0
5715,E-3,593.0,0.25,76,188.0
5716,E-4,593.375,9/20,50,188.0
5717,C#3,593.483,9/20,52,188.0
5718,F#2,593.5,121/500,91,188.0
5719,C#4,593.5,9/20,94,188.0
5720,B1,593.5,0.25,70,188.0
5721,E-3,593.5,0.25,56,188.0
5722,C#4,593.875,9/20,52,188.0
5723,B2,593.983,9/20,59,188.0
5724,B1,594.0,124/125,91,188.0
5725,B3,594.0,9/20,101,188.0
5726,B1,594.0,0.25,70,188.0
5727,E2,594.0,0.25,86,188.0
5728,E-3,594.0,0.25,76,188.0
5729,B4,594.0,0.5,105,188.0
5730,F#4,594.0,0.5,105,188.0
5731,C#5,594.0,0.5,105,188.0
5732,D4,594.0,0.5,105,188.0
5733,B3,594.375,9/20,59,188.0
5734,G#2,594.483,9/20,50,188.0
5735,G#3,594.5,9/20,92,188.0
5736,E-3,594.5,0.25,56,188.0
5737,B4,594.5,4.0,105,188.0
5738,F#4,594.5,4.0,105,188.0
5739,C#5,594.5,4.0,105,188.0
5740,D4,594.5,4.0,105,188.0
5741,G#3,594.875,9/20,50,188.0
5742,F#2,594.983,9/20,55,188.0
5743,E1,595.0,79/500,86,188.0
5744,F#3,595.0,9/20,97,188.0
5745,E-3,595.0,0.25,76,188.0
5746,F#3,595.375,9/20,55,188.0
5747,E-2,595.483,9/20,60,188.0
5748,A1,595.5,121/500,91,188.0
5749,E-3,595.5,9/20,102,188.0
5750,B1,595.5,0.25,70,188.0
5751,E-3,595.5,0.25,56,188.0
5752,E-3,595.875,0.125,60,188.0
5753,E2,595.983,17/1000,49,188.0
5754,A1,596.0,124/125,91,188.0
5755,E3,596.0,9/20,91,188.0
5756,E-3,596.0,13/40,60,188.0
5757,E2,596.0,433/1000,49,188.0
5758,B1,596.0,0.25,70,188.0
5759,E-3,596.0,0.25,76,188.0
5760,E3,596.375,9/20,49,188.0
5761,E-3,596.5,0.25,56,188.0
5762,E1,597.0,79/500,86,188.0
5763,E-3,597.0,0.25,76,188.0
5764,D2,597.483,9/20,57,188.0
5765,A1,597.5,121/500,91,188.0
5766,D3,597.5,9/20,99,188.0
5767,B1,597.5,0.25,70,188.0
5768,E-3,597.5,0.25,56,188.0
5769,D3,597.875,9/20,57,188.0
5770,C#2,597.983,9/20,60,188.0
5771,E2,598.0,124/125,91,188.0
5772,C#3,598.0,9/20,102,188.0
5773,B1,598.0,0.25,70,188.0
5774,E2,598.0,0.25,86,188.0
5775,E-3,598.0,0.25,76,188.0
5776,C#3,598.375,9/20,60,188.0
5777,E-3,598.5,0.25,56,188.0
5778,F#4,598.5,2.0,95,188.0
5779,E4,598.5,2.0,95,188.0
5780,B3,598.5,2.0,95,188.0
5781,G#3,598.5,2.0,95,188.0
5782,A2,599.0,124/125,91,188.0
5783,E-3,599.0,0.25,76,188.0
5784,B1,599.483,9/20,59,188.0
5785,B2,599.5,9/20,101,188.0
5786,B1,599.5,0.25,70,188.0
5787,E-3,599.5,0.25,56,188.0
5788,B2,599.875,0.125,59,188.0
5789,A1,599.983,17/1000,48,188.0
5790,D2,600.0,124/125,91,188.0
5791,A2,600.0,9/20,90,188.0
5792,B2,600.0,13/40,59,188.0
5793,A1,600.0,433/1000,48,188.0
5794,B1,600.0,0.25,70,188.0
5795,E-3,600.0,0.25,76,188.0
5796,A2,600.375,9/20,48,188.0
5797,B1,600.483,9/20,59,188.0
5798,B2,600.5,9/20,101,188.0
5799,E-3,600.5,0.25,56,188.0
5800,F#3,600.5,2.0,95,188.0
5801,E4,600.5,2.0,95,188.0
5802,F#4,600.5,2.0,95,188.0
5803,B3,600.5,2.0,95,188.0
5804,B2,600.875,9/20,59,188.0
5805,D2,600.983,9/20,49,188.0
5806,E1,601.0,79/500,86,188.0
5807,D3,601.0,9/20,91,188.0
5808,E-3,601.0,0.25,76,188.0
5809,D3,601.375,9/20,49,188.0
5810,E2,601.483,9/20,58,188.0
5811,D2,601.5,121/500,91,188.0
5812,E3,601.5,9/20,100,188.0
5813,B1,601.5,0.25,70,188.0
5814,E-3,601.5,0.25,56,188.0
5815,E3,601.875,9/20,58,188.0
5816,B-1,601.983,9/20,56,188.0
5817,G#2,602.0,124/125,91,188.0
5818,B-2,602.0,9/20,98,188.0
5819,B1,602.0,0.25,70,188.0
5820,E2,602.0,0.25,86,188.0
5821,E-3,602.0,0.25,76,188.0
5822,B-2,602.375,9/20,56,188.0
5823,D2,602.483,9/20,60,188.0
5824,D3,602.5,9/20,102,188.0
5825,E-3,602.5,0.25,56,188.0
5826,D3,602.875,9/20,60,188.0
5827,F#2,602.983,9/20,58,188.0
5828,E1,603.0,79/500,86,188.0
5829,F#3,603.0,9/20,100,188.0
5830,E-3,603.0,0.25,76,188.0
5831,F#3,603.0,1.5,95,188.0
5832,B3,603.0,1.5,95,188.0
5833,D4,603.0,1.5,95,188.0
5834,F#3,603.375,9/20,58,188.0
5835,A2,603.483,9/20,51,188.0
5836,G#2,603.5,121/500,91,188.0
5837,A3,603.5,9/20,93,188.0
5838,B1,603.5,0.25,70,188.0
5839,E-3,603.5,0.25,56,188.0
5840,A3,603.875,0.125,51,188.0
5841,D2,603.983,17/1000,52,188.0
5842,G2,604.0,124/125,91,188.0
5843,D3,604.0,9/20,94,188.0
5844,A3,604.0,13/40,51,188.0
5845,D2,604.0,433/1000,52,188.0
5846,B1,604.0,0.25,70,188.0
5847,E-3,604.0,0.25,76,188.0
5848,D3,604.375,9/20,52,188.0
5849,E-3,604.5,0.25,56,188.0
5850,E1,605.0,79/500,86,188.0
5851,E-3,605.0,0.25,76,188.0
5852,D4,605.0,1.5,95,188.0
5853,B3,605.0,1.5,95,188.0
5854,F#3,605.0,1.5,95,188.0
5855,F#2,605.483,9/20,60,188.0
5856,D2,605.5,121/500,91,188.0
5857,F#3,605.5,9/20,102,188.0
5858,B1,605.5,0.25,70,188.0
5859,E-3,605.5,0.25,56,188.0
5860,F#3,605.875,9/20,60,188.0
5861,A2,605.983,9/20,48,188.0
5862,G2,606.0,371/500,91,188.0
5863,A3,606.0,9/20,90,188.0
5864,B1,606.0,0.25,70,188.0
5865,E-3,606.0,0.25,76,188.0
5866,A3,606.375,9/20,48,188.0
5867,F#2,606.483,9/20,53,188.0
5868,F#3,606.5,9/20,95,188.0
5869,E2,606.5,0.25,86,188.0
5870,E-3,606.5,0.25,56,188.0
5871,C#4,606.5,2.0,95,188.0
5872,A3,606.5,2.0,95,188.0
5873,F#3,606.5,2.0,95,188.0
5874,F#3,606.875,9/20,53,188.0
5875,G2,606.983,9/20,53,188.0
5876,F#2,607.0,371/500,91,188.0
5877,G3,607.0,9/20,95,188.0
5878,E-3,607.0,0.25,76,188.0
5879,B2,607.233,1/5,54,188.0
5880,B3,607.25,1/5,96,188.0
5881,G3,607.375,9/20,53,188.0
5882,D3,607.483,9/20,56,188.0
5883,D4,607.5,9/20,98,188.0
5884,B1,607.5,0.25,70,188.0
5885,E-3,607.5,0.25,56,188.0
5886,B3,607.625,1/5,54,188.0
5887,D4,607.875,0.125,56,188.0
5888,F#3,607.983,17/1000,53,188.0
5889,E2,608.0,124/125,91,188.0
5890,F#4,608.0,9/20,95,188.0
5891,D4,608.0,13/40,56,188.0
5892,F#3,608.0,433/1000,53,188.0
5893,B1,608.0,0.25,70,188.0
5894,E-3,608.0,0.25,76,188.0
5895,F#4,608.375,9/20,53,188.0
5896,A3,608.483,9/20,62,188.0
5897,A4,608.5,9/20,104,188.0
5898,E-3,608.5,0.25,56,188.0
5899,D4,608.5,2.0,95,188.0
5900,E4,608.5,2.0,95,188.0
5901,C4,608.5,2.0,95,188.0
5902,G#3,608.5,2.0,95,188.0
5903,A4,608.875,9/20,62,188.0
5904,B3,608.983,9/20,57,188.0
5905,E1,609.0,79/500,86,188.0
5906,B4,609.0,9/20,99,188.0
5907,E-3,609.0,0.25,76,188.0
5908,B4,609.375,9/20,57,188.0
5909,D4,609.483,9/20,55,188.0
5910,E2,609.5,121/500,91,188.0
5911,D5,609.5,9/20,97,188.0
5912,B1,609.5,0.25,70,188.0
5913,E-3,609.5,0.25,56,188.0
5914,D5,609.875,9/20,55,188.0
5915,E3,609.983,1/5,54,188.0
5916,F#2,610.0,124/125,91,188.0
5917,E4,610.0,1/5,96,188.0
5918,B1,610.0,0.25,70,188.0
5919,E2,610.0,0.25,86,188.0
5920,E-3,610.0,0.25,76,188.0
5921,F3,610.233,1/5,55,188.0
5922,F4,610.25,1/5,97,188.0
5923,E4,610.375,1/5,54,188.0
5924,E3,610.483,1/5,57,188.0
5925,E4,610.5,1/5,99,188.0
5926,E-3,610.5,0.25,56,188.0
5927,B3,610.5,4.0,95,188.0
5928,D4,610.5,4.0,95,188.0
5929,F#4,610.5,4.0,95,188.0
5930,G4,610.5,4.0,95,188.0
5931,F4,610.625,1/5,55,188.0
5932,D3,610.733,1/5,60,188.0
5933,D4,610.75,1/5,102,188.0
5934,E4,610.875,1/5,57,188.0
5935,B2,610.983,9/20,61,188.0
5936,E1,611.0,79/500,86,188.0
5937,B3,611.0,9/20,103,188.0
5938,E-3,611.0,0.25,76,188.0
5939,D4,611.125,1/5,60,188.0
5940,B3,611.375,9/20,61,188.0
5941,A2,611.483,9/20,61,188.0
5942,F#2,611.5,121/500,91,188.0
5943,A3,611.5,9/20,103,188.0
5944,B1,611.5,0.25,70,188.0
5945,E-3,611.5,0.25,56,188.0
5946,A3,611.875,0.125,61,188.0
5947,D3,611.983,17/1000,59,188.0
5948,B2,612.0,124/125,91,188.0
5949,D4,612.0,19/20,101,188.0
5950,A3,612.0,13/40,61,188.0
5951,D3,612.0,933/1000,59,188.0
5952,B1,612.0,0.25,70,188.0
5953,E-3,612.0,0.25,76,188.0
5954,D4,612.375,19/20,59,188.0
5955,E-3,612.5,0.25,56,188.0
5956,B2,612.983,9/20,60,188.0
5957,E1,613.0,79/500,86,188.0
5958,B3,613.0,9/20,102,188.0
5959,E-3,613.0,0.25,76,188.0
5960,B3,613.375,9/20,60,188.0
5961,A2,613.483,9/20,62,188.0
5962,A3,613.5,9/20,104,188.0
5963,B1,613.5,0.25,70,188.0
5964,E-3,613.5,0.25,56,188.0
5965,A3,613.875,9/20,62,188.0
5966,G2,613.983,9/20,56,188.0
5967,A2,614.0,124/125,91,188.0
5968,G3,614.0,9/20,98,188.0
5969,B1,614.0,0.25,70,188.0
5970,E2,614.0,0.25,86,188.0
5971,E-3,614.0,0.25,76,188.0
5972,G3,614.375,9/20,56,188.0
5973,A2,614.483,9/20,49,188.0
5974,A3,614.5,9/20,91,188.0
5975,E-3,614.5,0.25,56,188.0
5976,G3,614.5,2.0,95,188.0
5977,B3,614.5,2.0,95,188.0
5978,E4,614.5,2.0,95,188.0
5979,A3,614.875,9/20,49,188.0
5980,C3,614.983,9/20,61,188.0
5981,E1,615.0,79/500,86,188.0
5982,C4,615.0,9/20,103,188.0
5983,E-3,615.0,0.25,76,188.0
5984,C4,615.375,9/20,61,188.0
5985,D3,615.483,9/20,50,188.0
5986,D3,615.5,0.5,91,188.0
5987,D4,615.5,9/20,92,188.0
5988,B1,615.5,0.25,70,188.0
5989,E-3,615.5,0.25,56,188.0
5990,D4,615.875,0.125,50,188.0
5991,E3,615.983,17/1000,58,188.0
5992,D3,616.0,123/250,91,188.0
5993,E4,616.0,9/20,100,188.0
5994,D4,616.0,13/40,50,188.0
5995,E3,616.0,433/1000,58,188.0
5996,E-3,616.0,0.25,76,188.0
5997,E4,616.375,9/20,58,188.0
5998,F#3,616.483,9/20,49,188.0
5999,E1,616.5,79/500,86,188.0
6000,F#4,616.5,9/20,91,188.0
6001,E-3,616.5,0.25,56,188.0
6002,E4,616.5,2.0,95,188.0
6003,C#4,616.5,2.0,95,188.0
6004,A3,616.5,2.0,95,188.0
6005,F#4,616.875,9/20,49,188.0
6006,B-2,617.0,124/125,91,188.0
6007,B1,617.0,0.25,70,188.0
6008,F3,617.0,0.25,76,188.0
6009,B-3,617.483,9/20,54,188.0
6010,B-4,617.5,9/20,96,188.0
6011,E2,617.5,0.25,86,188.0
6012,E-3,617.5,0.25,56,188.0
6013,B-4,617.875,9/20,54,188.0
6014,F#3,617.983,9/20,60,188.0
6015,E1,618.0,79/500,86,188.0
6016,F#4,618.0,9/20,102,188.0
6017,E2,618.0,0.25,86,188.0
6018,E-3,618.0,0.25,76,188.0
6019,B3,618.0,0.5,95,188.0
6020,D4,618.0,0.5,95,188.0
6021,F#4,618.0,0.5,95,188.0
6022,F#4,618.375,9/20,60,188.0
6023,G#3,618.483,9/20,50,188.0
6024,C#2,618.5,124/125,91,188.0
6025,G#4,618.5,9/20,92,188.0
6026,B1,618.5,0.25,70,188.0
6027,F3,618.5,0.25,56,188.0
6028,B3,618.5,2.0,95,188.0
6029,D4,618.5,2.0,95,188.0
6030,F#4,618.5,2.0,95,188.0
6031,G#4,618.875,9/20,50,188.0
6032,E-3,619.0,0.25,76,188.0
6033,F3,619.483,9/20,53,188.0
6034,E1,619.5,79/500,86,188.0
6035,F4,619.5,9/20,95,188.0
6036,B1,619.5,0.25,70,188.0
6037,E-3,619.5,0.25,56,188.0
6038,F4,619.875,0.125,53,188.0
6039,C#3,619.983,17/1000,63,188.0
6040,G3,619.992,1/125,72,188.0
6041,F#2,620.0,124/125,91,188.0
6042,C#4,620.0,9/20,105,188.0
6043,F4,620.0,13/40,53,188.0
6044,C#3,620.0,433/1000,63,188.0
6045,B1,620.0,0.25,70,188.0
6046,G3,620.0,121/500,72,188.0
6047,C#4,620.375,9/20,63,188.0
6048,E-3,620.5,0.25,56,188.0
6049,C4,620.5,2.0,95,188.0
6050,E4,620.5,2.0,95,188.0
6051,G3,620.5,2.0,95,188.0
6052,E1,621.0,79/500,86,188.0
6053,B-2,621.0,0.25,72,188.0
6054,F#2,621.483,9/20,48,188.0
6055,C#2,621.5,121/500,91,188.0
6056,F#3,621.5,9/20,90,188.0
6057,C3,621.5,0.25,74,188.0
6058,E-3,621.5,0.25,56,188.0
6059,F#3,621.875,9/20,48,188.0
6060,G#2,621.983,9/20,58,188.0
6061,F#2,622.0,123/250,91,188.0
6062,G#3,622.0,9/20,100,188.0
6063,B2,622.0,0.25,94,188.0
6064,E-3,622.0,0.25,76,188.0
6065,C4,622.0,0.5,95,188.0
6066,F#3,622.0,0.5,95,188.0
6067,E4,622.0,0.5,95,188.0
6068,G#3,622.375,9/20,58,188.0
6069,B-2,622.483,9/20,48,188.0
6070,E1,622.5,79/500,86,188.0
6071,B-3,622.5,9/20,90,188.0
6072,B1,622.5,0.25,70,188.0
6073,E-3,622.5,0.25,56,188.0
6074,B-3,622.875,9/20,48,188.0
6075,B2,622.983,9/20,54,188.0
6076,F#2,623.0,371/500,91,188.0
6077,B3,623.0,9/20,96,188.0
6078,E-3,623.0,0.25,76,188.0
6079,B3,623.375,9/20,54,188.0
6080,G#2,623.483,9/20,60,188.0
6081,E1,623.5,79/500,86,188.0
6082,G#3,623.5,9/20,102,188.0
6083,B1,623.5,0.25,70,188.0
6084,E-3,623.5,0.25,56,188.0
6085,B-3,623.5,1.5,95,188.0
6086,F#3,623.5,1.5,95,188.0
6087,E-4,623.5,1.5,95,188.0
6088,G#3,623.875,0.125,60,188.0
6089,D3,623.983,17/1000,61,188.0
6090,G3,623.992,1/125,82,188.0
6091,F2,624.0,124/125,91,188.0
6092,D4,624.0,9/20,103,188.0
6093,G#3,624.0,13/40,60,188.0
6094,D3,624.0,433/1000,61,188.0
6095,B1,624.0,0.25,70,188.0
6096,G3,624.0,121/500,82,188.0
6097,E-3,624.0,0.25,76,188.0
6098,D4,624.375,9/20,61,188.0
6099,E-3,624.5,0.25,56,188.0
6100,F3,624.983,9/20,58,188.0
6101,E1,625.0,79/500,86,188.0
6102,F4,625.0,9/20,100,188.0
6103,E-3,625.0,0.25,76,188.0
6104,B-3,625.0,0.5,95,188.0
6105,E-4,625.0,0.5,95,188.0
6106,F3,625.0,0.5,95,188.0
6107,F4,625.375,9/20,58,188.0
6108,F2,625.5,121/500,91,188.0
6109,B1,625.5,0.25,70,188.0
6110,E-3,625.5,0.25,56,188.0
6111,G#3,625.983,9/20,63,188.0
6112,B-1,626.0,124/125,91,188.0
6113,G#4,626.0,9/20,105,188.0
6114,B1,626.0,0.25,70,188.0
6115,E2,626.0,0.25,86,188.0
6116,E-3,626.0,0.25,76,188.0
6117,G#4,626.375,9/20,63,188.0
6118,E-3,626.5,0.25,56,188.0
6119,C#4,626.5,4.0,95,188.0
6120,F4,626.5,4.0,95,188.0
6121,B-3,626.5,4.0,95,188.0
6122,F#3,626.5,4.0,95,188.0
6123,B3,626.983,9/20,51,188.0
6124,E1,627.0,79/500,86,188.0
6125,B4,627.0,9/20,93,188.0
6126,E-3,627.0,0.25,76,188.0
6127,B4,627.375,9/20,51,188.0
6128,G#3,627.483,9/20,60,188.0
6129,B-1,627.5,121/500,91,188.0
6130,G#4,627.5,9/20,102,188.0
6131,B1,627.5,0.25,70,188.0
6132,E-3,627.5,0.25,56,188.0
6133,G#4,627.875,0.125,60,188.0
6134,B-3,627.983,17/1000,55,188.0
6135,E-2,628.0,124/125,91,188.0
6136,B-4,628.0,9/20,97,188.0
6137,G#4,628.0,13/40,60,188.0
6138,B-3,628.0,433/1000,55,188.0
6139,B1,628.0,0.25,70,188.0
6140,E-3,628.0,0.25,76,188.0
6141,B-4,628.375,9/20,55,188.0
6142,E-3,628.5,0.25,56,188.0
6143,E1,629.0,79/500,86,188.0
6144,E-3,629.0,0.25,76,188.0
6145,E-4,629.483,9/20,49,188.0
6146,E-2,629.5,121/500,91,188.0
6147,E-5,629.5,9/20,91,188.0
6148,B1,629.5,0.25,70,188.0
6149,E-3,629.5,0.25,56,188.0
6150,E-5,629.875,9/20,49,188.0
6151,G#2,630.0,124/125,91,188.0
6152,B1,630.0,0.25,70,188.0
6153,E2,630.0,0.25,86,188.0
6154,E-3,630.0,0.25,76,188.0
6155,G#3,630.483,1/5,60,188.0
6156,G#4,630.5,1/5,102,188.0
6157,E-3,630.5,0.25,56,188.0
6158,B-4,630.5,2.0,95,188.0
6159,B3,630.5,2.0,95,188.0
6160,E-4,630.5,2.0,95,188.0
6161,F4,630.5,2.0,95,188.0
6162,A3,630.817,1/5,55,188.0
6163,A4,630.833,1/5,97,188.0
6164,G#4,630.875,1/5,60,188.0
6165,E1,631.0,79/500,86,188.0
6166,E-3,631.0,0.25,76,188.0
6167,G#3,631.067,367/1000,63,188.0
6168,G#4,631.083,367/1000,105,188.0
6169,A4,631.208,1/5,55,188.0
6170,G#4,631.458,367/1000,63,188.0
6171,F#3,631.483,9/20,58,188.0
6172,E-2,631.5,121/500,91,188.0
6173,F#4,631.5,9/20,100,188.0
6174,B1,631.5,0.25,70,188.0
6175,E-3,631.5,0.25,56,188.0
6176,F#4,631.875,0.125,58,188.0
6177,G#3,631.983,17/1000,63,188.0
6178,G#2,632.0,124/125,91,188.0
6179,G#4,632.0,9/20,105,188.0
6180,F#4,632.0,13/40,58,188.0
6181,G#3,632.0,433/1000,63,188.0
6182,B1,632.0,0.25,70,188.0
6183,E-3,632.0,0.25,76,188.0
6184,G#4,632.375,9/20,63,188.0
6185,F#3,632.483,9/20,52,188.0
6186,F#4,632.5,9/20,94,188.0
6187,E-3,632.5,0.25,56,188.0
6188,G#4,632.5,2.0,95,188.0
6189,B3,632.5,2.0,95,188.0
6190,F#4,632.5,2.0,95,188.0
6191,D4,632.5,2.0,95,188.0
6192,F#4,632.875,9/20,52,188.0
6193,G#3,632.983,9/20,52,188.0
6194,E1,633.0,79/500,86,188.0
6195,G#4,633.0,9/20,94,188.0
6196,E-3,633.0,0.25,76,188.0
6197,G#4,633.375,9/20,52,188.0
6198,B-3,633.483,9/20,59,188.0
6199,G#2,633.5,121/500,91,188.0
6200,B-4,633.5,9/20,101,188.0
6201,B1,633.5,0.25,70,188.0
6202,E-3,633.5,0.25,56,188.0
6203,B-4,633.875,9/20,59,188.0
6204,B3,633.983,9/20,56,188.0
6205,C#2,634.0,124/125,91,188.0
6206,F#3,634.0,0.5,95,188.0
6207,B4,634.0,9/20,98,188.0
6208,B1,634.0,0.25,70,188.0
6209,E2,634.0,0.25,86,188.0
6210,E-3,634.0,0.25,76,188.0
6211,B4,634.375,9/20,56,188.0
6212,G#3,634.483,9/20,63,188.0
6213,F#3,634.5,4.0,95,188.0
6214,G#4,634.5,9/20,105,188.0
6215,E-3,634.5,0.25,56,188.0
6216,C#4,634.5,2.0,95,188.0
6217,F#4,634.5,2.0,95,188.0
6218,B-3,634.5,2.0,95,188.0
6219,G#4,634.875,9/20,63,188.0
6220,F#3,634.983,9/20,60,188.0
6221,E1,635.0,79/500,86,188.0
6222,F#4,635.0,9/20,102,188.0
6223,E-3,635.0,0.25,76,188.0
6224,F#4,635.375,9/20,60,188.0
6225,E-3,635.483,9/20,55,188.0
6226,C#2,635.5,121/500,91,188.0
6227,E-4,635.5,9/20,97,188.0
6228,B1,635.5,0.25,70,188.0
6229,E-3,635.5,0.25,56,188.0
6230,E-4,635.875,0.125,55,188.0
6231,F3,635.983,17/1000,59,188.0
6232,F#2,636.0,124/125,91,188.0
6233,F4,636.0,9/20,101,188.0
6234,E-4,636.0,13/40,55,188.0
6235,F3,636.0,433/1000,59,188.0
6236,B1,636.0,0.25,70,188.0
6237,E-3,636.0,0.25,76,188.0
6238,F4,636.375,9/20,59,188.0
6239,G#3,636.483,9/20,51,188.0
6240,G#4,636.5,9/20,93,188.0
6241,E-3,636.5,0.25,56,188.0
6242,G#4,636.5,2.0,95,188.0
6243,E-4,636.5,2.0,95,188.0
6244,C4,636.5,2.0,95,188.0
6245,G#4,636.875,9/20,51,188.0
6246,E1,637.0,79/500,86,188.0
6247,E2,637.0,0.25,86,188.0
6248,E-3,637.0,0.25,76,188.0
6249,F3,637.483,9/20,62,188.0
6250,F#2,637.5,121/500,91,188.0
6251,F4,637.5,9/20,104,188.0
6252,B1,637.5,0.25,70,188.0
6253,E-3,637.5,0.25,56,188.0
6254,F4,637.875,9/20,62,188.0
6255,E-3,637.983,9/20,62,188.0
6256,C2,638.0,124/125,91,188.0
6257,E-4,638.0,9/20,104,188.0
6258,B1,638.0,0.25,70,188.0
6259,E-3,638.0,0.25,76,188.0
6260,E-4,638.375,9/20,62,188.0
6261,D3,638.483,9/20,55,188.0
6262,D4,638.5,9/20,97,188.0
6263,E2,638.5,0.25,86,188.0
6264,E-3,638.5,0.25,56,188.0
6265,D4,638.875,9/20,55,188.0
6266,C#3,638.983,9/20,62,188.0
6267,E1,639.0,79/500,86,188.0
6268,C#4,639.0,9/20,104,188.0
6269,E2,639.0,0.25,86,188.0
6270,E-3,639.0,0.25,76,188.0
6271,B3,639.0,1.5,95,188.0
6272,E-4,639.0,1.5,95,188.0
6273,G#4,639.0,1.5,95,188.0
6274,C#4,639.375,9/20,62,188.0
6275,C3,639.483,9/20,50,188.0
6276,C2,639.5,121/500,91,188.0
6277,C4,639.5,9/20,92,188.0
6278,B1,639.5,0.25,70,188.0
6279,E-3,639.5,0.25,56,188.0
6280,C4,639.875,0.125,50,188.0
6281,B2,639.983,17/1000,51,188.0
6282,B1,640.0,124/125,91,188.0
6283,B3,640.0,9/20,93,188.0
6284,C4,640.0,13/40,50,188.0
6285,B2,640.0,433/1000,51,188.0
6286,B1,640.0,0.25,70,188.0
6287,E-3,640.0,0.25,76,188.0
6288,B3,640.375,9/20,51,188.0
6289,C#3,640.483,9/20,63,188.0
6290,C#4,640.5,9/20,105,188.0
6291,E-3,640.5,0.25,56,188.0
6292,F#4,640.5,2.0,95,188.0
6293,C#4,640.5,2.0,95,188.0
6294,G#3,640.5,2.0,95,188.0
6295,C#4,640.875,9/20,63,188.0
6296,E-3,640.983,9/20,48,188.0
6297,E1,641.0,79/500,86,188.0
6298,E-4,641.0,9/20,90,188.0
6299,E-3,641.0,0.25,76,188.0
6300,E-4,641.375,9/20,48,188.0
6301,C#3,641.483,19/20,48,188.0
6302,B1,641.5,121/500,91,188.0
6303,C#4,641.5,19/20,90,188.0
6304,B1,641.5,0.25,70,188.0
6305,E-3,641.5,0.25,56,188.0
6306,C#4,641.875,19/20,48,188.0
6307,B-1,642.0,124/125,91,188.0
6308,B1,642.0,0.25,70,188.0
6309,E2,642.0,0.25,86,188.0
6310,E-3,642.0,0.25,76,188.0
6311,E-3,642.483,9/20,56,188.0
6312,E-4,642.5,9/20,98,188.0
6313,E-3,642.5,0.25,56,188.0
6314,F4,642.5,2.0,95,188.0
6315,G#4,642.5,2.0,95,188.0
6316,C#4,642.5,2.0,95,188.0
6317,E-4,642.875,9/20,56,188.0
6318,F3,642.983,9/20,48,188.0
6319,E1,643.0,79/500,86,188.0
6320,F4,643.0,9/20,90,188.0
6321,E-3,643.0,0.25,76,188.0
6322,F4,643.375,9/20,48,188.0
6323,E-3,643.483,517/1000,50,188.0
6324,B-1,643.5,121/500,91,188.0
6325,E-4,643.5,0.5,92,188.0
6326,B1,643.5,0.25,70,188.0
6327,E-3,643.5,0.25,56,188.0
6328,E-4,643.875,0.125,50,188.0
6329,G#1,644.0,124/125,91,188.0
6330,E-4,644.0,9/20,92,188.0
6331,E-4,644.0,33/40,50,188.0
6332,E-3,644.0,433/1000,50,188.0
6333,B1,644.0,0.25,70,188.0
6334,E-3,644.0,0.25,76,188.0
6335,F3,644.483,9/20,48,188.0
6336,F4,644.5,9/20,90,188.0
6337,E-3,644.5,0.25,56,188.0
6338,E4,644.5,2.0,95,188.0
6339,C#4,644.5,2.0,95,188.0
6340,B-4,644.5,2.0,95,188.0
6341,F4,644.875,9/20,48,188.0
6342,F#3,644.983,9/20,58,188.0
6343,E1,645.0,79/500,86,188.0
6344,F#4,645.0,9/20,100,188.0
6345,E-3,645.0,0.25,76,188.0
6346,F#4,645.375,9/20,58,188.0
6347,E3,645.483,19/20,53,188.0
6348,G#1,645.5,121/500,91,188.0
6349,E4,645.5,19/20,95,188.0
6350,B1,645.5,0.25,70,188.0
6351,E-3,645.5,0.25,56,188.0
6352,E4,645.875,19/20,53,188.0
6353,C#2,646.0,124/125,91,188.0
6354,B1,646.0,0.25,70,188.0
6355,E2,646.0,0.25,86,188.0
6356,E-3,646.0,0.25,76,188.0
6357,F#3,646.483,9/20,54,188.0
6358,F#4,646.5,9/20,96,188.0
6359,E-3,646.5,0.25,56,188.0
6360,F#4,646.875,9/20,54,188.0
6361,G#3,646.983,9/20,51,188.0
6362,E1,647.0,79/500,86,188.0
6363,G#4,647.0,9/20,93,188.0
6364,E-3,647.0,0.25,76,188.0
6365,B-3,647.0,1.5,95,188.0
6366,B3,647.0,1.5,95,188.0
6367,E-4,647.0,1.5,95,188.0
6368,G#4,647.375,9/20,51,188.0
6369,F#3,647.483,517/1000,50,188.0
6370,G#1,647.5,121/500,91,188.0
6371,F#4,647.5,0.5,92,188.0
6372,B1,647.5,0.25,70,188.0
6373,E-3,647.5,0.25,56,188.0
6374,F#4,647.875,0.125,50,188.0
6375,C2,648.0,124/125,91,188.0
6376,F#4,648.0,9/20,92,188.0
6377,F#4,648.0,33/40,50,188.0
6378,F#3,648.0,433/1000,50,188.0
6379,B1,648.0,0.25,70,188.0
6380,E-3,648.0,0.25,76,188.0
6381,G#3,648.483,9/20,56,188.0
6382,G#4,648.5,9/20,98,188.0
6383,E-3,648.5,0.25,56,188.0
6384,G#4,648.875,9/20,56,188.0
6385,B-3,648.983,9/20,54,188.0
6386,E1,649.0,79/500,86,188.0
6387,B-4,649.0,9/20,96,188.0
6388,E-3,649.0,0.25,76,188.0
6389,G#3,649.0,1.5,95,188.0
6390,B-3,649.0,1.5,95,188.0
6391,C#4,649.0,1.5,95,188.0
6392,F4,649.0,1.5,95,188.0
6393,B-4,649.375,9/20,54,188.0
6394,G#3,649.483,19/20,53,188.0
6395,C2,649.5,121/500,91,188.0
6396,G#4,649.5,19/20,95,188.0
6397,B1,649.5,0.25,70,188.0
6398,E-3,649.5,0.25,56,188.0
6399,G#4,649.875,19/20,53,188.0
6400,C2,650.0,124/125,91,188.0
6401,B1,650.0,0.25,70,188.0
6402,E2,650.0,0.25,86,188.0
6403,E-3,650.0,0.25,76,188.0
6404,B-3,650.483,9/20,50,188.0
6405,B-4,650.5,9/20,92,188.0
6406,E-3,650.5,0.25,56,188.0
6407,B-4,650.875,9/20,50,188.0
6408,B3,650.983,9/20,59,188.0
6409,E1,651.0,79/500,86,188.0
6410,B4,651.0,9/20,101,188.0
6411,E-3,651.0,0.25,76,188.0
6412,E-4,651.0,3.5,95,188.0
6413,B-3,651.0,3.5,95,188.0
6414,C#4,651.0,3.5,95,188.0
6415,F#4,651.0,3.5,95,188.0
6416,B4,651.375,9/20,59,188.0
6417,B-3,651.483,517/1000,58,188.0
6418,C2,651.5,121/500,91,188.0
6419,B-4,651.5,0.5,100,188.0
6420,B1,651.5,0.25,70,188.0
6421,E-3,651.5,0.25,56,188.0
6422,B-4,651.875,0.125,58,188.0
6423,B1,652.0,817/1000,91,188.0
6424,B-4,652.0,9/20,100,188.0
6425,B-4,652.0,33/40,58,188.0
6426,B-3,652.0,433/1000,58,188.0
6427,B1,652.0,0.25,70,188.0
6428,E-3,652.0,0.25,76,188.0
6429,B3,652.483,9/20,56,188.0
6430,B4,652.5,9/20,98,188.0
6431,E-3,652.5,0.25,56,188.0
6432,B4,652.875,9/20,56,188.0
6433,C#4,652.983,9/20,59,188.0
6434,B1,653.0,249/125,86,188.0
6435,C#5,653.0,9/20,101,188.0
6436,E-3,653.0,0.25,76,188.0
6437,C#5,653.375,9/20,59,188.0
6438,C#4,653.483,117/1000,55,188.0
6439,C#5,653.5,117/1000,97,188.0
6440,B1,653.5,0.25,70,188.0
6441,E-3,653.5,0.25,56,188.0
6442,D4,653.65,9/20,49,188.0
6443,D5,653.667,9/20,91,188.0
6444,C#5,653.875,117/1000,55,188.0
6445,B1,654.0,0.25,70,188.0
6446,E-3,654.0,0.25,76,188.0
6447,D5,654.042,9/20,49,188.0
6448,E1,654.5,79/500,86,188.0
6449,E2,654.5,0.25,86,188.0
6450,E-3,654.5,0.25,56,188.0
6451,B-4,654.5,4.0,95,188.0
6452,F#4,654.5,4.0,95,188.0
6453,E-4,654.5,4.0,95,188.0
6454,F#3,654.5,4.0,95,188.0
6455,B-3,654.5,4.0,95,188.0
6456,B1,655.0,367/1000,91,188.0
6457,E-3,655.0,0.25,76,188.0
6458,C#4,655.483,9/20,61,188.0
6459,B1,655.5,123/250,91,188.0
6460,C#5,655.5,9/20,103,188.0
6461,E2,655.5,0.25,86,188.0
6462,E-3,655.5,0.25,56,188.0
6463,C#5,655.875,0.125,61,188.0
6464,B3,655.983,17/1000,49,188.0
6465,G3,655.992,1/125,72,188.0
6466,F#1,656.0,124/125,91,188.0
6467,B4,656.0,9/20,91,188.0
6468,C#5,656.0,13/40,61,188.0
6469,B3,656.0,433/1000,49,188.0
6470,B1,656.0,0.25,70,188.0
6471,G3,656.0,121/500,72,188.0
6472,B4,656.375,9/20,49,188.0
6473,B3,656.483,9/20,60,188.0
6474,B4,656.5,9/20,102,188.0
6475,E-3,656.5,0.25,56,188.0
6476,B4,656.875,9/20,60,188.0
6477,C#4,656.983,9/20,54,188.0
6478,E1,657.0,79/500,86,188.0
6479,C#5,657.0,9/20,96,188.0
6480,E-3,657.0,0.25,76,188.0
6481,C#5,657.375,9/20,54,188.0
6482,F#1,657.5,121/500,91,188.0
6483,B1,657.5,0.25,70,188.0
6484,E2,657.5,0.25,86,188.0
6485,E-3,657.5,0.25,56,188.0
6486,F#2,658.0,373/250,91,188.0
6487,B1,658.0,0.25,70,188.0
6488,E-3,658.0,0.25,76,188.0
6489,B3,658.108,283/1000,49,188.0
6490,B4,658.125,283/1000,91,188.0
6491,C4,658.442,283/1000,51,188.0
6492,C5,658.458,283/1000,93,188.0
6493,B4,658.5,283/1000,49,188.0
6494,E-3,658.5,0.25,56,188.0
6495,B3,658.65,283/1000,57,188.0
6496,B4,658.667,283/1000,99,188.0
6497,C5,658.833,283/1000,51,188.0
6498,A3,658.983,9/20,57,188.0
6499,A4,659.0,9/20,99,188.0
6500,E-3,659.0,0.25,76,188.0
6501,B-4,659.0,0.5,95,188.0
6502,F#4,659.0,0.5,95,188.0
6503,B4,659.042,283/1000,57,188.0
6504,A4,659.375,9/20,57,188.0
6505,F#3,659.483,9/20,59,188.0
6506,E1,659.5,79/500,86,188.0
6507,B3,659.5,3.5,95,188.0
6508,F#4,659.5,9/20,101,188.0
6509,B1,659.5,0.25,70,188.0
6510,E-3,659.5,0.25,56,188.0
6511,F#4,659.875,0.125,59,188.0
6512,A3,659.983,17/1000,62,188.0
6513,F#1,660.0,124/125,91,188.0
6514,A4,660.0,9/20,104,188.0
6515,F#4,660.0,13/40,59,188.0
6516,A3,660.0,433/1000,62,188.0
6517,B1,660.0,0.25,70,188.0
6518,E-3,660.0,0.25,76,188.0
6519,B-4,660.0,3.0,95,188.0
6520,F#4,660.0,3.0,95,188.0
6521,A4,660.375,9/20,62,188.0
6522,A3,660.483,9/20,52,188.0
6523,A4,660.5,9/20,94,188.0
6524,E-3,660.5,0.25,56,188.0
6525,A4,660.875,9/20,52,188.0
6526,B3,660.983,9/20,54,188.0
6527,E1,661.0,79/500,86,188.0
6528,B4,661.0,9/20,96,188.0
6529,E-3,661.0,0.25,76,188.0
6530,B4,661.375,9/20,54,188.0
6531,F#1,661.5,121/500,91,188.0
6532,B1,661.5,0.25,70,188.0
6533,E2,661.5,0.25,86,188.0
6534,E-3,661.5,0.25,56,188.0
6535,C#4,661.983,9/20,60,188.0
6536,F#2,662.0,124/125,91,188.0
6537,C#5,662.0,9/20,102,188.0
6538,B1,662.0,0.25,70,188.0
6539,E-3,662.0,0.25,76,188.0
6540,C#5,662.375,9/20,60,188.0
6541,E-3,662.5,0.25,56,188.0
6542,E1,663.0,79/500,86,188.0
6543,E-3,663.0,0.25,76,188.0
6544,B-3,663.0,4.0,95,188.0
6545,G#4,663.0,4.0,95,188.0
6546,C#4,663.0,4.0,95,188.0
6547,F4,663.0,4.0,95,188.0
6548,F4,663.483,117/1000,50,188.0
6549,F#1,663.5,121/500,91,188.0
6550,F5,663.5,117/1000,92,188.0
6551,B1,663.5,0.25,70,188.0
6552,E-3,663.5,0.25,56,188.0
6553,F#4,663.65,7/20,50,188.0
6554,F#5,663.667,333/1000,92,188.0
6555,F5,663.875,117/1000,50,188.0
6556,F#1,664.0,124/125,91,188.0
6557,F#5,664.0,117/1000,92,188.0
6558,F#4,664.0,1/10,50,188.0
6559,B1,664.0,0.25,70,188.0
6560,E-3,664.0,0.25,76,188.0
6561,F#5,664.042,9/20,50,188.0
6562,E4,664.483,9/20,51,188.0
6563,E5,664.5,9/20,93,188.0
6564,E-3,664.5,0.25,56,188.0
6565,E5,664.875,9/20,51,188.0
6566,E1,665.0,79/500,86,188.0
6567,E-3,665.0,0.25,76,188.0
6568,A3,665.0,2.0,95,188.0
6569,E4,665.0,2.0,95,188.0
6570,C#4,665.483,9/20,51,188.0
6571,F#1,665.5,121/500,91,188.0
6572,C#5,665.5,9/20,93,188.0
6573,B1,665.5,0.25,70,188.0
6574,E2,665.5,0.25,86,188.0
6575,E-3,665.5,0.25,56,188.0
6576,C#5,665.875,9/20,51,188.0
6577,B3,665.983,9/20,52,188.0
6578,F#2,666.0,124/125,91,188.0
6579,B4,666.0,9/20,94,188.0
6580,B1,666.0,0.25,70,188.0
6581,E-3,666.0,0.25,76,188.0
6582,B4,666.375,9/20,52,188.0
6583,A3,666.483,9/20,51,188.0
6584,A4,666.5,9/20,93,188.0
6585,E-3,666.5,0.25,56,188.0
6586,A4,666.875,9/20,51,188.0
6587,F#3,666.983,9/20,60,188.0
6588,E1,667.0,79/500,86,188.0
6589,F#4,667.0,9/20,102,188.0
6590,E-3,667.0,0.25,76,188.0
6591,E-4,667.0,2.0,95,188.0
6592,G#3,667.0,2.0,95,188.0
6593,F#4,667.375,9/20,60,188.0
6594,E3,667.483,9/20,62,188.0
6595,F#1,667.5,0.5,91,188.0
6596,E4,667.5,9/20,104,188.0
6597,B1,667.5,0.25,70,188.0
6598,E-3,667.5,0.25,56,188.0
6599,E4,667.875,0.125,62,188.0
6600,C#3,667.983,17/1000,55,188.0
6601,F#1,668.0,124/125,91,188.0
6602,C#4,668.0,9/20,97,188.0
6603,E4,668.0,13/40,62,188.0
6604,C#3,668.0,433/1000,55,188.0
6605,B1,668.0,0.25,70,188.0
6606,E-3,668.0,0.25,76,188.0
6607,C#4,668.375,9/20,55,188.0
6608,C3,668.483,9/20,60,188.0
6609,C4,668.5,9/20,102,188.0
6610,E-3,668.5,0.25,56,188.0
6611,C4,668.875,9/20,60,188.0
6612,B2,668.983,9/20,55,188.0
6613,E1,669.0,79/500,86,188.0
6614,B3,669.0,9/20,97,188.0
6615,E-3,669.0,0.25,76,188.0
6616,A3,669.0,2.0,95,188.0
6617,E4,669.0,2.0,95,188.0
6618,B3,669.375,9/20,55,188.0
6619,G2,669.483,9/20,51,188.0
6620,F#1,669.5,121/500,91,188.0
6621,G3,669.5,9/20,93,188.0
6622,B1,669.5,0.25,70,188.0
6623,E-3,669.5,0.25,56,188.0
6624,G3,669.875,9/20,51,188.0
6625,B-2,669.983,9/20,49,188.0
6626,F#2,670.0,124/125,91,188.0
6627,B-3,670.0,9/20,91,188.0
6628,B1,670.0,0.25,70,188.0
6629,E-3,670.0,0.25,76,188.0
6630,B-3,670.375,9/20,49,188.0
6631,C3,670.483,9/20,62,188.0
6632,C4,670.5,9/20,104,188.0
6633,E2,670.5,0.25,86,188.0
6634,E-3,670.5,0.25,56,188.0
6635,C4,670.875,9/20,62,188.0
6636,C#3,670.983,9/20,48,188.0
6637,E1,671.0,79/500,86,188.0
6638,C#4,671.0,9/20,90,188.0
6639,E-3,671.0,0.25,76,188.0
6640,C#4,671.0,2.0,95,188.0
6641,B-3,671.0,2.0,95,188.0
6642,F4,671.0,2.0,95,188.0
6643,C#4,671.375,9/20,48,188.0
6644,E-3,671.483,9/20,58,188.0
6645,E1,671.5,79/500,86,188.0
6646,E-4,671.5,9/20,100,188.0
6647,B1,671.5,0.25,70,188.0
6648,E-3,671.5,0.25,56,188.0
6649,E-4,671.875,0.125,58,188.0
6650,F3,671.983,17/1000,60,188.0
6651,G3,671.992,1/125,72,188.0
6652,E-2,672.0,124/125,91,188.0
6653,F4,672.0,9/20,102,188.0
6654,E-4,672.0,13/40,58,188.0
6655,F3,672.0,433/1000,60,188.0
6656,B1,672.0,0.25,70,188.0
6657,G3,672.0,121/500,72,188.0
6658,F4,672.375,9/20,60,188.0
6659,E-3,672.5,0.25,56,188.0
6660,F#3,672.983,9/20,62,188.0
6661,E1,673.0,79/500,86,188.0
6662,F#4,673.0,9/20,104,188.0
6663,E-3,673.0,0.25,76,188.0
6664,C#4,673.0,2.0,95,188.0
6665,A3,673.0,2.0,95,188.0
6666,E4,673.0,2.0,95,188.0
6667,F#4,673.375,9/20,62,188.0
6668,B-3,673.483,9/20,51,188.0
6669,E-2,673.5,121/500,91,188.0
6670,B-4,673.5,9/20,93,188.0
6671,B1,673.5,0.25,70,188.0
6672,E-3,673.5,0.25,56,188.0
6673,B-4,673.875,9/20,51,188.0
6674,C#4,673.983,9/20,48,188.0
6675,G#1,674.0,124/125,91,188.0
6676,C#5,674.0,9/20,90,188.0
6677,B1,674.0,0.25,70,188.0
6678,E2,674.0,0.25,86,188.0
6679,E-3,674.0,0.25,76,188.0
6680,C#5,674.375,9/20,48,188.0
6681,E-4,674.483,117/1000,60,188.0
6682,E-5,674.5,117/1000,102,188.0
6683,E-3,674.5,0.25,56,188.0
6684,F4,674.733,9/20,48,188.0
6685,F5,674.75,9/20,90,188.0
6686,E-5,674.875,117/1000,60,188.0
6687,E1,675.0,79/500,86,188.0
6688,E-3,675.0,0.25,76,188.0
6689,G#3,675.0,2.0,95,188.0
6690,E-4,675.0,2.0,95,188.0
6691,F5,675.125,9/20,48,188.0
6692,E4,675.483,9/20,56,188.0
6693,G#1,675.5,121/500,91,188.0
6694,E5,675.5,9/20,98,188.0
6695,B1,675.5,0.25,70,188.0
6696,E-3,675.5,0.25,56,188.0
6697,E5,675.875,0.125,56,188.0
6698,E-4,675.983,17/1000,62,188.0
6699,G#1,676.0,124/125,91,188.0
6700,E-5,676.0,9/20,104,188.0
6701,E5,676.0,13/40,56,188.0
6702,E-4,676.0,433/1000,62,188.0
6703,B1,676.0,0.25,70,188.0
6704,E-3,676.0,0.25,76,188.0
6705,E-5,676.375,9/20,62,188.0
6706,B3,676.483,1/5,52,188.0
6707,C#4,676.5,0.5,95,188.0
6708,B4,676.5,1/5,94,188.0
6709,E-3,676.5,0.25,56,188.0
6710,B-3,676.733,1/5,55,188.0
6711,B-4,676.75,1/5,97,188.0
6712,B4,676.875,1/5,52,188.0
6713,G#3,676.983,9/20,58,188.0
6714,E1,677.0,79/500,86,188.0
6715,G#4,677.0,9/20,100,188.0
6716,E-3,677.0,0.25,76,188.0
6717,B-4,677.125,1/5,55,188.0
6718,G#4,677.375,9/20,58,188.0
6719,F#3,677.483,9/20,60,188.0
6720,G#1,677.5,121/500,91,188.0
6721,F#4,677.5,9/20,102,188.0
6722,B1,677.5,0.25,70,188.0
6723,E2,677.5,0.25,86,188.0
6724,E-3,677.5,0.25,56,188.0
6725,B-3,677.5,1.5,95,188.0
6726,B-4,677.5,1.5,95,188.0
6727,E-4,677.5,1.5,95,188.0
6728,F#4,677.5,1.5,95,188.0
6729,F#4,677.875,9/20,60,188.0
6730,F3,677.983,9/20,51,188.0
6731,C#2,678.0,124/125,91,188.0
6732,F4,678.0,9/20,93,188.0
6733,B1,678.0,0.25,70,188.0
6734,E-3,678.0,0.25,76,188.0
6735,F4,678.375,9/20,51,188.0
6736,E-4,678.483,9/20,48,188.0
6737,E-5,678.5,9/20,90,188.0
6738,E-3,678.5,0.25,56,188.0
6739,E-5,678.875,9/20,48,188.0
6740,D4,678.983,9/20,48,188.0
6741,E1,679.0,79/500,86,188.0
6742,D5,679.0,9/20,90,188.0
6743,E-3,679.0,0.25,76,188.0
6744,E-4,679.0,2.0,105,188.0
6745,B-3,679.0,2.0,105,188.0
6746,F#4,679.0,2.0,105,188.0
6747,C#4,679.0,2.0,105,188.0
6748,D5,679.375,9/20,48,188.0
6749,G3,679.492,0.25,52,188.0
6750,G1,679.5,0.5,91,188.0
6751,B1,679.5,0.25,70,188.0
6752,C#4,679.983,17/1000,59,188.0
6753,A3,679.992,1/125,82,188.0
6754,G1,680.0,124/125,91,188.0
6755,C#5,680.0,9/20,101,188.0
6756,C#4,680.0,433/1000,59,188.0
6757,B1,680.0,0.25,70,188.0
6758,A3,680.0,121/500,82,188.0
6759,E-3,680.0,0.25,76,188.0
6760,C#5,680.375,9/20,59,188.0
6761,E4,680.483,1/5,54,188.0
6762,E5,680.5,1/5,96,188.0
6763,E-3,680.5,0.25,56,188.0
6764,C#4,680.733,1/5,58,188.0
6765,C#5,680.75,1/5,100,188.0
6766,E5,680.875,1/5,54,188.0
6767,A3,680.983,9/20,55,188.0
6768,E1,681.0,79/500,86,188.0
6769,A4,681.0,9/20,97,188.0
6770,E-3,681.0,0.25,76,188.0
6771,E-4,681.0,2.0,105,188.0
6772,G#3,681.0,2.0,105,188.0
6773,F#4,681.0,2.0,105,188.0
6774,C4,681.0,2.0,105,188.0
6775,C#5,681.125,1/5,58,188.0
6776,A4,681.375,9/20,55,188.0
6777,F#3,681.483,9/20,49,188.0
6778,G1,681.5,121/500,91,188.0
6779,F#4,681.5,9/20,91,188.0
6780,B1,681.5,0.25,70,188.0
6781,E-3,681.5,0.25,56,188.0
6782,F#4,681.875,9/20,49,188.0
6783,B3,681.983,9/20,50,188.0
6784,G2,682.0,249/125,91,188.0
6785,B4,682.0,9/20,92,188.0
6786,B1,682.0,0.25,70,188.0
6787,E2,682.0,0.25,86,188.0
6788,E-3,682.0,0.25,76,188.0
6789,B4,682.375,9/20,50,188.0
6790,D4,682.483,1/5,62,188.0
6791,D5,682.5,1/5,104,188.0
6792,E-3,682.5,0.25,56,188.0
6793,B3,682.733,1/5,53,188.0
6794,B4,682.75,1/5,95,188.0
6795,D5,682.875,1/5,62,188.0
6796,G3,682.983,9/20,48,188.0
6797,G4,683.0,9/20,90,188.0
6798,E-3,683.0,0.25,76,188.0
6799,B4,683.125,1/5,53,188.0
6800,G4,683.375,9/20,48,188.0
6801,D3,683.483,9/20,51,188.0
6802,D4,683.5,9/20,93,188.0
6803,B1,683.5,0.25,70,188.0
6804,E-3,683.5,0.25,56,188.0
6805,C4,683.5,0.5,105,188.0
6806,G#4,683.5,0.5,105,188.0
6807,E-4,683.5,0.5,105,188.0
6808,D4,683.875,0.125,51,188.0
6809,B-3,683.983,17/1000,52,188.0
6810,C#3,683.992,1/125,92,188.0
6811,F#2,684.0,124/125,91,188.0
6812,B-4,684.0,9/20,94,188.0
6813,D4,684.0,13/40,51,188.0
6814,B-3,684.0,433/1000,52,188.0
6815,B1,684.0,0.25,70,188.0
6816,C#3,684.0,121/500,92,188.0
6817,B-4,684.375,9/20,52,188.0
6818,C#4,684.483,9/20,51,188.0
6819,C#5,684.5,9/20,93,188.0
6820,E-3,684.5,0.25,56,188.0
6821,D4,684.5,2.0,105,188.0
6822,B3,684.5,2.0,105,188.0
6823,G#4,684.5,2.0,105,188.0
6824,C#5,684.875,9/20,51,188.0
6825,F#3,684.983,9/20,61,188.0
6826,E1,685.0,79/500,86,188.0
6827,F#4,685.0,9/20,103,188.0
6828,E-3,685.0,0.25,76,188.0
6829,F#4,685.375,9/20,61,188.0
6830,F#2,685.5,121/500,91,188.0
6831,B1,685.5,0.25,70,188.0
6832,E-3,685.5,0.25,56,188.0
6833,G#3,685.983,9/20,62,188.0
6834,B1,686.0,124/125,91,188.0
6835,G#4,686.0,9/20,104,188.0
6836,B1,686.0,0.25,70,188.0
6837,E2,686.0,0.25,86,188.0
6838,E-3,686.0,0.25,76,188.0
6839,G#4,686.375,9/20,62,188.0
6840,B3,686.483,9/20,57,188.0
6841,B4,686.5,9/20,99,188.0
6842,E-3,686.5,0.25,56,188.0
6843,G3,686.5,0.5,105,188.0
6844,B4,686.5,0.5,105,188.0
6845,F#4,686.5,0.5,105,188.0
6846,D4,686.5,0.5,105,188.0
6847,B4,686.875,9/20,57,188.0
6848,E3,686.983,9/20,50,188.0
6849,E1,687.0,79/500,86,188.0
6850,E4,687.0,9/20,92,188.0
6851,E-3,687.0,0.25,76,188.0
6852,G3,687.0,4.0,105,188.0
6853,B4,687.0,4.0,105,188.0
6854,F#4,687.0,4.0,105,188.0
6855,D4,687.0,4.0,105,188.0
6856,E4,687.375,9/20,50,188.0
6857,A1,687.5,121/500,91,188.0
6858,B1,687.5,0.25,70,188.0
6859,E-3,687.5,0.25,56,188.0
6860,G3,687.983,17/1000,53,188.0
6861,A1,688.0,124/125,91,188.0
6862,G4,688.0,9/20,95,188.0
6863,G3,688.0,433/1000,53,188.0
6864,B1,688.0,0.25,70,188.0
6865,E-3,688.0,0.25,76,188.0
6866,G4,688.375,9/20,53,188.0
6867,E-3,688.5,0.25,56,188.0
6868,B3,688.983,9/20,50,188.0
6869,E1,689.0,79/500,86,188.0
6870,B4,689.0,9/20,92,188.0
6871,E-3,689.0,0.25,76,188.0
6872,B4,689.375,9/20,50,188.0
6873,G3,689.483,9/20,57,188.0
6874,A1,689.5,121/500,91,188.0
6875,G4,689.5,9/20,99,188.0
6876,B1,689.5,0.25,70,188.0
6877,E-3,689.5,0.25,56,188.0
6878,G4,689.875,9/20,57,188.0
6879,E2,690.0,124/125,91,188.0
6880,B1,690.0,0.25,70,188.0
6881,E2,690.0,0.25,86,188.0
6882,E-3,690.0,0.25,76,188.0
6883,D3,690.483,9/20,62,188.0
6884,D4,690.5,9/20,104,188.0
6885,E-3,690.5,0.25,56,188.0
6886,D4,690.875,9/20,62,188.0
6887,B2,690.983,9/20,59,188.0
6888,A2,691.0,124/125,91,188.0
6889,B3,691.0,9/20,101,188.0
6890,E-3,691.0,0.25,76,188.0
6891,F#4,691.0,2.0,95,188.0
6892,E4,691.0,2.0,95,188.0
6893,B3,691.0,2.0,95,188.0
6894,G#3,691.0,2.0,95,188.0
6895,B3,691.375,9/20,59,188.0
6896,D3,691.483,9/20,63,188.0
6897,D4,691.5,9/20,105,188.0
6898,B1,691.5,0.25,70,188.0
6899,E-3,691.5,0.25,56,188.0
6900,D4,691.875,0.125,63,188.0
6901,D2,692.0,124/125,91,188.0
6902,D4,692.0,13/40,63,188.0
6903,B1,692.0,0.25,70,188.0
6904,E-3,692.0,0.25,76,188.0
6905,E-3,692.5,0.25,56,188.0
6906,E1,693.0,79/500,86,188.0
6907,E-3,693.0,0.25,76,188.0
6908,F#3,693.0,2.0,95,188.0
6909,E4,693.0,2.0,95,188.0
6910,F#4,693.0,2.0,95,188.0
6911,B3,693.0,2.0,95,188.0
6912,A2,693.483,9/20,61,188.0
6913,D2,693.5,121/500,91,188.0
6914,A3,693.5,9/20,103,188.0
6915,B1,693.5,0.25,70,188.0
6916,E-3,693.5,0.25,56,188.0
6917,A3,693.875,9/20,61,188.0
6918,B2,693.983,9/20,53,188.0
6919,G#2,694.0,124/125,91,188.0
6920,B3,694.0,9/20,95,188.0
6921,B1,694.0,0.25,70,188.0
6922,E2,694.0,0.25,86,188.0
6923,E-3,694.0,0.25,76,188.0
6924,B3,694.375,9/20,53,188.0
6925,D3,694.483,9/20,50,188.0
6926,D4,694.5,9/20,92,188.0
6927,E-3,694.5,0.25,56,188.0
6928,D4,694.875,9/20,50,188.0
6929,E3,694.983,9/20,59,188.0
6930,E1,695.0,79/500,86,188.0
6931,E4,695.0,9/20,101,188.0
6932,E-3,695.0,0.25,76,188.0
6933,E4,695.375,9/20,59,188.0
6934,D3,695.483,9/20,48,188.0
6935,G#2,695.5,121/500,91,188.0
6936,D4,695.5,9/20,90,188.0
6937,B1,695.5,0.25,70,188.0
6938,E-3,695.5,0.25,56,188.0
6939,F#3,695.5,1.5,95,188.0
6940,B3,695.5,1.5,95,188.0
6941,D4,695.5,1.5,95,188.0
6942,D4,695.875,0.125,48,188.0
6943,F#3,695.983,17/1000,61,188.0
6944,G2,696.0,124/125,91,188.0
6945,F#4,696.0,9/20,103,188.0
6946,D4,696.0,13/40,48,188.0
6947,F#3,696.0,433/1000,61,188.0
6948,B1,696.0,0.25,70,188.0
6949,E-3,696.0,0.25,76,188.0
6950,F#4,696.375,9/20,61,188.0
6951,A3,696.483,9/20,61,188.0
6952,A4,696.5,9/20,103,188.0
6953,E-3,696.5,0.25,56,188.0
6954,A4,696.875,9/20,61,188.0
6955,A3,696.983,9/20,59,188.0
6956,E1,697.0,79/500,86,188.0
6957,A4,697.0,9/20,101,188.0
6958,E-3,697.0,0.25,76,188.0
6959,A4,697.375,9/20,59,188.0
6960,B3,697.483,9/20,58,188.0
6961,D2,697.5,121/500,91,188.0
6962,B4,697.5,9/20,100,188.0
6963,B1,697.5,0.25,70,188.0
6964,E-3,697.5,0.25,56,188.0
6965,D4,697.5,1.5,95,188.0
6966,B3,697.5,1.5,95,188.0
6967,F#3,697.5,1.5,95,188.0
6968,B4,697.875,9/20,58,188.0
6969,F3,697.983,27/250,62,188.0
6970,G2,698.0,371/500,91,188.0
6971,F4,698.0,27/250,104,188.0
6972,B1,698.0,0.25,70,188.0
6973,E2,698.0,0.25,86,188.0
6974,E-3,698.0,0.25,76,188.0
6975,E3,698.15,9/20,60,188.0
6976,E4,698.167,9/20,102,188.0
6977,F4,698.375,27/250,62,188.0
6978,D3,698.483,9/20,48,188.0
6979,D4,698.5,9/20,90,188.0
6980,E-3,698.5,0.25,56,188.0
6981,E4,698.542,9/20,60,188.0
6982,D4,698.875,9/20,48,188.0
6983,B2,698.983,9/20,54,188.0
6984,F#2,699.0,371/500,91,188.0
6985,B3,699.0,9/20,96,188.0
6986,E-3,699.0,0.25,76,188.0
6987,C#4,699.0,2.0,95,188.0
6988,A3,699.0,2.0,95,188.0
6989,F#3,699.0,2.0,95,188.0
6990,B3,699.375,9/20,54,188.0
6991,F#4,699.483,9/20,62,188.0
6992,F#5,699.5,9/20,104,188.0
6993,B1,699.5,0.25,70,188.0
6994,E-3,699.5,0.25,56,188.0
6995,F#5,699.875,0.125,62,188.0
6996,E2,700.0,124/125,91,188.0
6997,F#5,700.0,13/40,62,188.0
6998,B1,700.0,0.25,70,188.0
6999,E-3,700.0,0.25,76,188.0
7000,D4,700.483,9/20,51,188.0
7001,D5,700.5,9/20,93,188.0
7002,E-3,700.5,0.25,56,188.0
7003,D5,700.875,9/20,51,188.0
7004,E1,701.0,79/500,86,188.0
7005,E-3,701.0,0.25,76,188.0
7006,D4,701.0,2.0,95,188.0
7007,E4,701.0,2.0,95,188.0
7008,C4,701.0,2.0,95,188.0
7009,G#3,701.0,2.0,95,188.0
7010,C#4,701.483,9/20,62,188.0
7011,E2,701.5,121/500,91,188.0
7012,C#5,701.5,9/20,104,188.0
7013,B1,701.5,0.25,70,188.0
7014,E-3,701.5,0.25,56,188.0
7015,C#5,701.875,9/20,62,188.0
7016,B3,701.983,9/20,48,188.0
7017,F#2,702.0,124/125,91,188.0
7018,B4,702.0,9/20,90,188.0
7019,B1,702.0,0.25,70,188.0
7020,E2,702.0,0.25,86,188.0
7021,E-3,702.0,0.25,76,188.0
7022,B4,702.375,9/20,48,188.0
7023,E-3,702.5,0.25,56,188.0
7024,C#4,702.983,9/20,51,188.0
7025,E1,703.0,79/500,86,188.0
7026,C#5,703.0,9/20,93,188.0
7027,E-3,703.0,0.25,76,188.0
7028,B3,703.0,4.0,95,188.0
7029,D4,703.0,4.0,95,188.0
7030,F#4,703.0,4.0,95,188.0
7031,G4,703.0,4.0,95,188.0
7032,C#5,703.375,9/20,51,188.0
7033,A3,703.483,517/1000,60,188.0
7034,F#2,703.5,121/500,91,188.0
7035,A4,703.5,0.5,102,188.0
7036,B1,703.5,0.25,70,188.0
7037,E-3,703.5,0.25,56,188.0
7038,A4,703.875,0.125,60,188.0
7039,B2,704.0,124/125,91,188.0
7040,A4,704.0,19/20,102,188.0
7041,A4,704.0,53/40,60,188.0
7042,A3,704.0,933/1000,60,188.0
7043,B1,704.0,0.25,70,188.0
7044,E-3,704.0,0.25,76,188.0
7045,E-3,704.5,0.25,56,188.0
7046,F#3,704.983,283/1000,53,188.0
7047,E1,705.0,79/500,86,188.0
7048,F#4,705.0,283/1000,95,188.0
7049,E-3,705.0,0.25,76,188.0
7050,E3,705.317,283/1000,63,188.0
7051,E4,705.333,283/1000,105,188.0
7052,F#4,705.375,283/1000,53,188.0
7053,B1,705.5,0.25,70,188.0
7054,E-3,705.5,0.25,56,188.0
7055,D3,705.65,283/1000,58,188.0
7056,D4,705.667,283/1000,100,188.0
7057,E4,705.708,283/1000,63,188.0
7058,C#3,705.983,9/20,61,188.0
7059,A2,706.0,124/125,91,188.0
7060,C#4,706.0,9/20,103,188.0
7061,B1,706.0,0.25,70,188.0
7062,E2,706.0,0.25,86,188.0
7063,E-3,706.0,0.25,76,188.0
7064,D4,706.042,283/1000,58,188.0
7065,C#4,706.375,9/20,61,188.0
7066,D3,706.483,9/20,53,188.0
7067,D4,706.5,9/20,95,188.0
7068,E-3,706.5,0.25,56,188.0
7069,D4,706.875,9/20,53,188.0
7070,E3,706.983,9/20,56,188.0
7071,E1,707.0,79/500,86,188.0
7072,E4,707.0,9/20,98,188.0
7073,E-3,707.0,0.25,76,188.0
7074,G3,707.0,2.0,95,188.0
7075,B3,707.0,2.0,95,188.0
7076,E4,707.0,2.0,95,188.0
7077,E4,707.375,9/20,56,188.0
7078,G3,707.483,9/20,49,188.0
7079,D3,707.5,0.5,91,188.0
7080,G4,707.5,9/20,91,188.0
7081,B1,707.5,0.25,70,188.0
7082,E-3,707.5,0.25,56,188.0
7083,G4,707.875,0.125,49,188.0
7084,F3,707.983,17/1000,62,188.0
7085,D3,708.0,123/250,91,188.0
7086,F4,708.0,9/20,104,188.0
7087,G4,708.0,13/40,49,188.0
7088,F3,708.0,433/1000,62,188.0
7089,E-3,708.0,0.25,76,188.0
7090,F4,708.375,9/20,62,188.0
7091,F#3,708.483,9/20,63,188.0
7092,E1,708.5,79/500,86,188.0
7093,F#4,708.5,9/20,105,188.0
7094,E-3,708.5,0.25,56,188.0
7095,F#4,708.875,9/20,63,188.0
7096,B-2,709.0,124/125,91,188.0
7097,E2,709.0,0.25,86,188.0
7098,F3,709.0,0.25,76,188.0
7099,E4,709.0,2.0,95,188.0
7100,C#4,709.0,2.0,95,188.0
7101,A3,709.0,2.0,95,188.0
7102,B-3,709.483,9/20,61,188.0
7103,B-4,709.5,9/20,103,188.0
7104,B1,709.5,0.25,70,188.0
7105,E-3,709.5,0.25,56,188.0
7106,B-4,709.875,9/20,61,188.0
7107,B3,709.983,9/20,55,188.0
7108,E1,710.0,79/500,86,188.0
7109,B4,710.0,9/20,97,188.0
7110,B1,710.0,0.25,70,188.0
7111,E-3,710.0,0.25,76,188.0
7112,B4,710.375,9/20,55,188.0
7113,C#4,710.483,9/20,58,188.0
7114,C#2,710.5,124/125,91,188.0
7115,C#5,710.5,9/20,100,188.0
7116,E2,710.5,0.25,86,188.0
7117,F3,710.5,0.25,56,188.0
7118,B3,710.5,0.5,95,188.0
7119,D4,710.5,0.5,95,188.0
7120,F#4,710.5,0.5,95,188.0
7121,C#5,710.875,9/20,58,188.0
7122,E-4,710.983,9/20,57,188.0
7123,E-5,711.0,9/20,99,188.0
7124,E-3,711.0,0.25,76,188.0
7125,B3,711.0,2.0,95,188.0
7126,D4,711.0,2.0,95,188.0
7127,F#4,711.0,2.0,95,188.0
7128,E-5,711.375,9/20,57,188.0
7129,E4,711.483,9/20,48,188.0
7130,E1,711.5,79/500,86,188.0
7131,E5,711.5,9/20,90,188.0
7132,B1,711.5,0.25,70,188.0
7133,E-3,711.5,0.25,56,188.0
7134,E5,711.875,0.125,48,188.0
7135,F4,711.983,17/1000,50,188.0
7136,G3,711.992,1/125,72,188.0
7137,F#2,712.0,124/125,91,188.0
7138,F5,712.0,9/20,92,188.0
7139,E5,712.0,13/40,48,188.0
7140,F4,712.0,433/1000,50,188.0
7141,B1,712.0,0.25,70,188.0
7142,G3,712.0,121/500,72,188.0
7143,F5,712.375,9/20,50,188.0
7144,F#4,712.483,9/20,52,188.0
7145,F#5,712.5,9/20,94,188.0
7146,E-3,712.5,0.25,56,188.0
7147,F#5,712.875,9/20,52,188.0
7148,E1,713.0,79/500,86,188.0
7149,E-3,713.0,0.25,76,188.0
7150,C4,713.0,2.0,95,188.0
7151,E4,713.0,2.0,95,188.0
7152,G3,713.0,2.0,95,188.0
7153,E4,713.483,9/20,56,188.0
7154,C#2,713.5,121/500,91,188.0
7155,E5,713.5,9/20,98,188.0
7156,E2,713.5,0.25,86,188.0
7157,E-3,713.5,0.25,56,188.0
7158,E5,713.875,9/20,56,188.0
7159,E-4,713.983,9/20,57,188.0
7160,F#2,714.0,123/250,91,188.0
7161,E-5,714.0,9/20,99,188.0
7162,B1,714.0,0.25,70,188.0
7163,E-3,714.0,0.25,76,188.0
7164,E-5,714.375,9/20,57,188.0
7165,D4,714.483,9/20,54,188.0
7166,E1,714.5,79/500,91,188.0
7167,D5,714.5,9/20,96,188.0
7168,B1,714.5,0.25,70,188.0
7169,E-3,714.5,0.25,56,188.0
7170,C4,714.5,0.5,95,188.0
7171,F#3,714.5,0.5,95,188.0
7172,E4,714.5,0.5,95,188.0
7173,D5,714.875,9/20,54,188.0
7174,C#4,714.983,9/20,59,188.0
7175,F#2,715.0,123/250,91,188.0
7176,C#5,715.0,9/20,101,188.0
7177,A2,715.0,0.25,74,188.0
7178,E-3,715.0,0.25,76,188.0
7179,C#5,715.375,9/20,59,188.0
7180,C4,715.483,9/20,56,188.0
7181,E1,715.5,79/500,86,188.0
7182,C5,715.5,9/20,98,188.0
7183,G2,715.5,0.25,74,188.0
7184,E-3,715.5,0.25,56,188.0
7185,C5,715.875,0.125,56,188.0
7186,B3,715.983,17/1000,48,188.0
7187,G3,715.992,1/125,82,188.0
7188,F2,716.0,124/125,91,188.0
7189,B4,716.0,9/20,90,188.0
7190,C5,716.0,13/40,56,188.0
7191,B3,716.0,433/1000,48,188.0
7192,B1,716.0,0.25,70,188.0
7193,G3,716.0,121/500,82,188.0
7194,E-3,716.0,0.25,76,188.0
7195,B-3,716.0,1.5,95,188.0
7196,F#3,716.0,1.5,95,188.0
7197,E-4,716.0,1.5,95,188.0
7198,B4,716.375,9/20,48,188.0
7199,G#3,716.483,9/20,53,188.0
7200,G#4,716.5,9/20,95,188.0
7201,E-3,716.5,0.25,56,188.0
7202,G#4,716.875,9/20,53,188.0
7203,E-3,716.983,9/20,55,188.0
7204,E1,717.0,79/500,86,188.0
7205,E-4,717.0,9/20,97,188.0
7206,E-3,717.0,0.25,76,188.0
7207,E-4,717.375,9/20,55,188.0
7208,B2,717.483,9/20,48,188.0
7209,F2,717.5,121/500,91,188.0
7210,B3,717.5,9/20,90,188.0
7211,B1,717.5,0.25,70,188.0
7212,E2,717.5,0.25,86,188.0
7213,E-3,717.5,0.25,56,188.0
7214,B-3,717.5,0.5,95,188.0
7215,E-4,717.5,0.5,95,188.0
7216,F3,717.5,0.5,95,188.0
7217,B3,717.875,9/20,48,188.0
7218,D3,717.983,9/20,48,188.0
7219,B-1,718.0,124/125,91,188.0
7220,D4,718.0,9/20,90,188.0
7221,B1,718.0,0.25,70,188.0
7222,E-3,718.0,0.25,76,188.0
7223,D4,718.375,9/20,48,188.0
7224,E-3,718.5,0.25,56,188.0
7225,B-3,718.983,9/20,63,188.0
7226,E1,719.0,79/500,86,188.0
7227,B-4,719.0,9/20,105,188.0
7228,E-3,719.0,0.25,76,188.0
7229,C#4,719.0,4.0,95,188.0
7230,F4,719.0,4.0,95,188.0
7231,B-3,719.0,4.0,95,188.0
7232,F#3,719.0,4.0,95,188.0
7233,B-4,719.375,9/20,63,188.0
7234,G#3,719.483,9/20,59,188.0
7235,B-1,719.5,121/500,91,188.0
7236,G#4,719.5,9/20,101,188.0
7237,B1,719.5,0.25,70,188.0
7238,E-3,719.5,0.25,56,188.0
7239,G#4,719.875,0.125,59,188.0
7240,F#3,719.983,17/1000,61,188.0
7241,E-2,720.0,124/125,91,188.0
7242,F#4,720.0,9/20,103,188.0
7243,G#4,720.0,13/40,59,188.0
7244,F#3,720.0,433/1000,61,188.0
7245,B1,720.0,0.25,70,188.0
7246,E-3,720.0,0.25,76,188.0
7247,F#4,720.375,9/20,61,188.0
7248,B-3,720.483,9/20,57,188.0
7249,B-4,720.5,9/20,99,188.0
7250,E-3,720.5,0.25,56,188.0
7251,B-4,720.875,9/20,57,188.0
7252,F3,720.983,9/20,61,188.0
7253,E1,721.0,79/500,86,188.0
7254,F4,721.0,9/20,103,188.0
7255,E-3,721.0,0.25,76,188.0
7256,F4,721.375,9/20,61,188.0
7257,D3,721.483,9/20,59,188.0
7258,E-2,721.5,121/500,91,188.0
7259,D4,721.5,9/20,101,188.0
7260,B1,721.5,0.25,70,188.0
7261,E-3,721.5,0.25,56,188.0
7262,D4,721.875,9/20,59,188.0
7263,C#3,721.983,9/20,48,188.0
7264,G#2,722.0,124/125,91,188.0
7265,C#4,722.0,9/20,90,188.0
7266,B1,722.0,0.25,70,188.0
7267,E2,722.0,0.25,86,188.0
7268,E-3,722.0,0.25,76,188.0
7269,C#4,722.375,9/20,48,188.0
7270,G#2,722.483,9/20,58,188.0
7271,G#3,722.5,9/20,100,188.0
7272,E-3,722.5,0.25,56,188.0
7273,G#3,722.875,9/20,58,188.0
7274,C3,722.983,9/20,54,188.0
7275,E1,723.0,79/500,86,188.0
7276,C4,723.0,9/20,96,188.0
7277,E-3,723.0,0.25,76,188.0
7278,B-4,723.0,2.0,95,188.0
7279,B3,723.0,2.0,95,188.0
7280,E-4,723.0,2.0,95,188.0
7281,F4,723.0,2.0,95,188.0
7282,C4,723.375,9/20,54,188.0
7283,G#2,723.483,9/20,52,188.0
7284,G#2,723.5,121/500,91,188.0
7285,G#3,723.5,9/20,94,188.0
7286,B1,723.5,0.25,70,188.0
7287,E-3,723.5,0.25,56,188.0
7288,G#3,723.875,0.125,52,188.0
7289,B2,723.983,17/1000,62,188.0
7290,G#2,724.0,124/125,91,188.0
7291,B3,724.0,9/20,104,188.0
7292,G#3,724.0,13/40,52,188.0
7293,B2,724.0,433/1000,62,188.0
7294,B1,724.0,0.25,70,188.0
7295,E-3,724.0,0.25,76,188.0
7296,B3,724.375,9/20,62,188.0
7297,C#3,724.483,9/20,62,188.0
7298,C#4,724.5,9/20,104,188.0
7299,E-3,724.5,0.25,56,188.0
7300,C#4,724.875,9/20,62,188.0
7301,E-3,724.983,9/20,56,188.0
7302,E1,725.0,79/500,86,188.0
7303,E-4,725.0,9/20,98,188.0
7304,E-3,725.0,0.25,76,188.0
7305,G#4,725.0,2.0,95,188.0
7306,B3,725.0,2.0,95,188.0
7307,F#4,725.0,2.0,95,188.0
7308,D4,725.0,2.0,95,188.0
7309,E-4,725.375,9/20,56,188.0
7310,F#3,725.483,9/20,63,188.0
7311,G#2,725.5,121/500,91,188.0
7312,F#4,725.5,9/20,105,188.0
7313,B1,725.5,0.25,70,188.0
7314,E2,725.5,0.25,86,188.0
7315,E-3,725.5,0.25,56,188.0
7316,F#4,725.875,9/20,63,188.0
7317,F3,725.983,9/20,54,188.0
7318,C#2,726.0,124/125,91,188.0
7319,F4,726.0,9/20,96,188.0
7320,B1,726.0,0.25,70,188.0
7321,E-3,726.0,0.25,76,188.0
7322,F4,726.375,9/20,54,188.0
7323,G#3,726.483,9/20,53,188.0
7324,F#3,726.5,0.5,95,188.0
7325,G#4,726.5,9/20,95,188.0
7326,E-3,726.5,0.25,56,188.0
7327,G#4,726.875,9/20,53,188.0
7328,E1,727.0,79/500,86,188.0
7329,F#3,727.0,4.0,95,188.0
7330,E2,727.0,0.25,86,188.0
7331,E-3,727.0,0.25,76,188.0
7332,C#4,727.0,2.0,95,188.0
7333,F#4,727.0,2.0,95,188.0
7334,B-3,727.0,2.0,95,188.0
7335,C#3,727.483,9/20,52,188.0
7336,C#4,727.483,9/20,52,188.0
7337,C#2,727.5,121/500,91,188.0
7338,B1,727.5,0.25,70,188.0
7339,E-3,727.5,0.25,56,188.0
7340,C#4,727.5,9/20,94,188.0
7341,C#5,727.5,9/20,94,188.0
7342,C#4,727.875,0.125,52,188.0
7343,C#5,727.875,0.125,52,188.0
7344,F#2,728.0,124/125,91,188.0
7345,B1,728.0,0.25,70,188.0
7346,E-3,728.0,0.25,76,188.0
7347,C#4,728.0,13/40,52,188.0
7348,C#5,728.0,13/40,52,188.0
7349,C#3,728.483,9/20,56,188.0
7350,C#4,728.483,9/20,56,188.0
7351,E-3,728.5,0.25,56,188.0
7352,C#4,728.5,9/20,98,188.0
7353,C#5,728.5,9/20,98,188.0
7354,C#4,728.875,9/20,56,188.0
7355,C#5,728.875,9/20,56,188.0
7356,E1,729.0,79/500,86,188.0
7357,E2,729.0,0.25,86,188.0
7358,E-3,729.0,0.25,76,188.0
7359,G#4,729.0,2.0,95,188.0
7360,E-4,729.0,2.0,95,188.0
7361,C4,729.0,2.0,95,188.0
7362,C#3,729.483,9/20,53,188.0
7363,C#4,729.483,9/20,53,188.0
7364,F#2,729.5,121/500,91,188.0
7365,B1,729.5,0.25,70,188.0
7366,E-3,729.5,0.25,56,188.0
7367,C#4,729.5,9/20,95,188.0
7368,C#5,729.5,9/20,95,188.0
7369,C#4,729.875,9/20,53,188.0
7370,C#5,729.875,9/20,53,188.0
7371,D3,729.983,9/20,50,188.0
7372,D4,729.983,9/20,50,188.0
7373,C2,730.0,124/125,91,188.0
7374,B1,730.0,0.25,70,188.0
7375,E-3,730.0,0.25,76,188.0
7376,D4,730.0,9/20,92,188.0
7377,D5,730.0,9/20,92,188.0
7378,D4,730.375,9/20,50,188.0
7379,D5,730.375,9/20,50,188.0
7380,E2,730.5,0.25,86,188.0
7381,E-3,730.5,0.25,56,188.0
7382,D4,730.983,9/20,57,188.0
7383,D3,730.983,9/20,57,188.0
7384,E1,731.0,79/500,86,188.0
7385,E2,731.0,0.25,86,188.0
7386,E-3,731.0,0.25,76,188.0
7387,D5,731.0,9/20,99,188.0
7388,D4,731.0,9/20,99,188.0
7389,D5,731.375,9/20,57,188.0
7390,D4,731.375,9/20,57,188.0
7391,C2,731.5,121/500,91,188.0
7392,B1,731.5,0.25,70,188.0
7393,E-3,731.5,0.25,56,188.0
7394,B3,731.5,1.5,95,188.0
7395,E-4,731.5,1.5,95,188.0
7396,G#4,731.5,1.5,95,188.0
7397,E-3,731.983,17/1000,54,188.0
7398,E-4,731.983,17/1000,54,188.0
7399,G3,731.992,1/125,92,188.0
7400,B1,732.0,124/125,91,188.0
7401,B1,732.0,0.25,70,188.0
7402,G3,732.0,121/500,92,188.0
7403,E-4,732.0,9/20,96,188.0
7404,E-5,732.0,9/20,96,188.0
7405,E-3,732.0,433/1000,54,188.0
7406,E-4,732.0,433/1000,54,188.0
7407,E-4,732.375,9/20,54,188.0
7408,E-5,732.375,9/20,54,188.0
7409,E-3,732.5,0.25,56,188.0
7410,E-3,732.983,9/20,56,188.0
7411,E-4,732.983,9/20,56,188.0
7412,E1,733.0,79/500,86,188.0
7413,E-3,733.0,0.25,76,188.0
7414,F#4,733.0,2.0,95,188.0
7415,C#4,733.0,2.0,95,188.0
7416,G#3,733.0,2.0,95,188.0
7417,E-4,733.0,9/20,98,188.0
7418,E-5,733.0,9/20,98,188.0
7419,E-4,733.375,9/20,56,188.0
7420,E-5,733.375,9/20,56,188.0
7421,F#3,733.483,9/20,53,188.0
7422,F#4,733.483,9/20,53,188.0
7423,B1,733.5,121/500,91,188.0
7424,B1,733.5,0.25,70,188.0
7425,E-3,733.5,0.25,56,188.0
7426,F#4,733.5,9/20,95,188.0
7427,F#5,733.5,9/20,95,188.0
7428,F#4,733.875,9/20,53,188.0
7429,F#5,733.875,9/20,53,188.0
7430,B-1,734.0,124/125,91,188.0
7431,B1,734.0,0.25,70,188.0
7432,E2,734.0,0.25,86,188.0
7433,E-3,734.0,0.25,76,188.0
7434,B-2,734.483,9/20,60,188.0
7435,B-3,734.483,9/20,60,188.0
7436,E-3,734.5,0.25,56,188.0
7437,B-3,734.5,9/20,102,188.0
7438,B-4,734.5,9/20,102,188.0
7439,B-3,734.875,9/20,60,188.0
7440,B-4,734.875,9/20,60,188.0
7441,E1,735.0,79/500,86,188.0
7442,E-3,735.0,0.25,76,188.0
7443,F4,735.0,2.0,95,188.0
7444,G#4,735.0,2.0,95,188.0
7445,C#4,735.0,2.0,95,188.0
7446,D3,735.483,117/1000,54,188.0
7447,D4,735.483,117/1000,54,188.0
7448,B-1,735.5,121/500,91,188.0
7449,B1,735.5,0.25,70,188.0
7450,E-3,735.5,0.25,56,188.0
7451,D4,735.5,117/1000,96,188.0
7452,D5,735.5,117/1000,96,188.0
7453,E-3,735.733,267/1000,57,188.0
7454,E-4,735.733,267/1000,57,188.0
7455,E-4,735.75,0.25,99,188.0
7456,E-5,735.75,0.25,99,188.0
7457,D4,735.875,117/1000,54,188.0
7458,D5,735.875,117/1000,54,188.0
7459,G#1,736.0,124/125,91,188.0
7460,B1,736.0,0.25,70,188.0
7461,E-3,736.0,0.25,76,188.0
7462,E-4,736.0,867/1000,99,188.0
7463,E-5,736.0,867/1000,99,188.0
7464,E-3,736.0,17/20,57,188.0
7465,E-4,736.0,17/20,57,188.0
7466,E-4,736.125,1117/1000,57,188.0
7467,E-5,736.125,1117/1000,57,188.0
7468,E-3,736.5,0.25,56,188.0
7469,E1,737.0,79/500,86,188.0
7470,E-3,737.0,0.25,76,188.0
7471,E4,737.0,2.0,95,188.0
7472,C#4,737.0,2.0,95,188.0
7473,B-4,737.0,2.0,95,188.0
7474,G#1,737.5,121/500,91,188.0
7475,B1,737.5,0.25,70,188.0
7476,E-3,737.5,0.25,56,188.0
7477,G#3,737.983,1/5,49,188.0
7478,C#2,738.0,124/125,91,188.0
7479,G#4,738.0,1/5,91,188.0
7480,B1,738.0,0.25,70,188.0
7481,E2,738.0,0.25,86,188.0
7482,E-3,738.0,0.25,76,188.0
7483,B-3,738.233,1/5,52,188.0
7484,B-4,738.25,1/5,94,188.0
7485,G#4,738.375,1/5,49,188.0
7486,G#3,738.483,1/5,55,188.0
7487,G#4,738.5,1/5,97,188.0
7488,E-3,738.5,0.25,56,188.0
7489,B-4,738.625,1/5,52,188.0
7490,F#3,738.733,283/1000,62,188.0
7491,F#4,738.75,283/1000,104,188.0
7492,G#4,738.875,1/5,55,188.0
7493,E-3,738.983,9/20,52,188.0
7494,E1,739.0,79/500,86,188.0
7495,E-4,739.0,9/20,94,188.0
7496,E-3,739.0,0.25,76,188.0
7497,F#4,739.125,283/1000,62,188.0
7498,E-4,739.375,9/20,52,188.0
7499,F#3,739.483,517/1000,54,188.0
7500,G#1,739.5,121/500,91,188.0
7501,F#4,739.5,0.5,96,188.0
7502,B1,739.5,0.25,70,188.0
7503,E-3,739.5,0.25,56,188.0
7504,B-3,739.5,1.5,95,188.0
7505,B3,739.5,1.5,95,188.0
7506,E-4,739.5,1.5,95,188.0
7507,F#4,739.875,0.125,54,188.0
7508,C2,740.0,124/125,91,188.0
7509,F#4,740.0,59/20,96,188.0
7510,F#4,740.0,133/40,54,188.0
7511,F#3,740.0,2933/1000,54,188.0
7512,B1,740.0,0.25,70,188.0
7513,E-3,740.0,0.25,76,188.0
7514,E-3,740.5,0.25,56,188.0
7515,E1,741.0,79/500,86,188.0
7516,E2,741.0,0.25,86,188.0
7517,E-3,741.0,0.25,76,188.0
7518,C2,741.5,121/500,91,188.0
7519,B1,741.5,0.25,70,188.0
7520,E-3,741.5,0.25,56,188.0
7521,G#3,741.5,1.5,95,188.0
7522,B-3,741.5,1.5,95,188.0
7523,C#4,741.5,1.5,95,188.0
7524,F4,741.5,1.5,95,188.0
7525,C2,742.0,124/125,91,188.0
7526,B1,742.0,0.25,70,188.0
7527,E-3,742.0,0.25,76,188.0
7528,E-3,742.5,0.25,56,188.0
7529,E1,743.0,79/500,86,188.0
7530,E-3,743.0,0.25,76,188.0
7531,F#4,743.483,9/20,56,188.0
7532,C2,743.5,121/500,91,188.0
7533,F#5,743.5,9/20,98,188.0
7534,B1,743.5,0.25,70,188.0
7535,E-3,743.5,0.25,56,188.0
7536,E-4,743.5,3.5,95,188.0
7537,B-3,743.5,3.5,95,188.0
7538,C#4,743.5,3.5,95,188.0
7539,F#4,743.5,3.5,95,188.0
7540,F#5,743.875,0.125,56,188.0
7541,B1,744.0,124/125,91,188.0
7542,F#5,744.0,13/40,56,188.0
7543,B1,744.0,0.25,70,188.0
7544,E-3,744.0,0.25,76,188.0
7545,C#4,744.483,9/20,60,188.0
7546,C#5,744.5,9/20,102,188.0
7547,E-3,744.5,0.25,56,188.0
7548,C#5,744.875,9/20,60,188.0
7549,C#4,744.983,9/20,57,188.0
7550,E1,745.0,79/500,86,188.0
7551,C#5,745.0,9/20,99,188.0
7552,E-3,745.0,0.25,76,188.0
7553,C#5,745.375,9/20,57,188.0
7554,B3,745.483,29/20,53,188.0
7555,B1,745.5,121/500,91,188.0
7556,B4,745.5,29/20,95,188.0
7557,B1,745.5,0.25,70,188.0
7558,E2,745.5,0.25,86,188.0
7559,E-3,745.5,0.25,56,188.0
7560,B4,745.875,29/20,53,188.0
7561,B1,746.0,124/125,91,188.0
7562,B1,746.0,0.25,70,188.0
7563,E-3,746.0,0.25,76,188.0
7564,E-3,746.5,0.25,56,188.0
7565,C#4,746.983,9/20,52,188.0
7566,E1,747.0,33/1000,86,188.0
7567,C#5,747.0,9/20,94,188.0
7568,E-3,747.0,0.25,76,188.0
7569,B-4,747.0,4.0,95,188.0
7570,F#4,747.0,4.0,95,188.0
7571,E-4,747.0,4.0,95,188.0
7572,F#3,747.0,4.0,95,188.0
7573,B-3,747.0,4.0,95,188.0
7574,C#5,747.375,9/20,52,188.0
7575,C#4,747.483,9/20,59,188.0
7576,B1,747.5,121/500,91,188.0
7577,C#5,747.5,9/20,101,188.0
7578,B1,747.5,0.25,70,188.0
7579,E-3,747.5,0.25,56,188.0
7580,C#5,747.875,0.125,59,188.0
7581,C#4,747.983,17/1000,60,188.0
7582,C#3,747.992,1/125,72,188.0
7583,F#1,748.0,124/125,91,188.0
7584,C#5,748.0,9/20,102,188.0
7585,C#5,748.0,13/40,59,188.0
7586,C#4,748.0,433/1000,60,188.0
7587,B1,748.0,0.25,70,188.0
7588,C#3,748.0,121/500,72,188.0
7589,C#5,748.375,9/20,60,188.0
7590,C#4,748.483,9/20,50,188.0
7591,C#5,748.5,9/20,92,188.0
7592,E-3,748.5,0.25,56,188.0
7593,C#5,748.875,9/20,50,188.0
7594,C#4,748.983,9/20,48,188.0
7595,E1,749.0,79/500,86,188.0
7596,C#5,749.0,9/20,90,188.0
7597,E-3,749.0,0.25,76,188.0
7598,C#5,749.375,9/20,48,188.0
7599,C#4,749.483,9/20,61,188.0
7600,F#1,749.5,121/500,91,188.0
7601,C#5,749.5,9/20,103,188.0
7602,B1,749.5,0.25,70,188.0
7603,E2,749.5,0.25,86,188.0
7604,E-3,749.5,0.25,56,188.0
7605,C#5,749.875,9/20,61,188.0
7606,C#4,749.983,9/20,48,188.0
7607,F#2,750.0,373/250,91,188.0
7608,C#5,750.0,9/20,90,188.0
7609,B1,750.0,0.25,70,188.0
7610,E-3,750.0,0.25,76,188.0
7611,C#5,750.375,9/20,48,188.0
7612,C#4,750.483,9/20,61,188.0
7613,C#5,750.5,9/20,103,188.0
7614,E-3,750.5,0.25,56,188.0
7615,C#5,750.875,9/20,61,188.0
7616,C#4,750.983,9/20,60,188.0
7617,C#5,751.0,9/20,102,188.0
7618,E-3,751.0,0.25,76,188.0
7619,C#5,751.375,9/20,60,188.0
7620,C#4,751.483,9/20,52,188.0
7621,E1,751.5,79/500,86,188.0
7622,C#5,751.5,9/20,94,188.0
7623,B1,751.5,0.25,70,188.0
7624,E-3,751.5,0.25,56,188.0
7625,B-4,751.5,0.5,95,188.0
7626,F#4,751.5,0.5,95,188.0
7627,C#5,751.875,0.125,52,188.0
7628,C#4,751.983,17/1000,62,188.0
7629,F#1,752.0,124/125,91,188.0
7630,B3,752.0,3.5,95,188.0
7631,C#5,752.0,9/20,104,188.0
7632,C#5,752.0,13/40,52,188.0
7633,C#4,752.0,433/1000,62,188.0
7634,B1,752.0,0.25,70,188.0
7635,E-3,752.0,0.25,76,188.0
7636,C#5,752.375,9/20,62,188.0
7637,C#4,752.483,9/20,51,188.0
7638,C#5,752.5,9/20,93,188.0
7639,E-3,752.5,0.25,56,188.0
7640,E-4,752.5,3.0,95,188.0
7641,B-4,752.5,3.0,95,188.0
7642,F#4,752.5,3.0,95,188.0
7643,C#5,752.875,9/20,51,188.0
7644,C#4,752.983,9/20,48,188.0
7645,E1,753.0,79/500,86,188.0
7646,C#5,753.0,9/20,90,188.0
7647,E-3,753.0,0.25,76,188.0
7648,C#5,753.375,9/20,48,188.0
7649,F#4,753.483,9/20,48,188.0
7650,F#1,753.5,121/500,91,188.0
7651,F#5,753.5,9/20,90,188.0
7652,B1,753.5,0.25,70,188.0
7653,E2,753.5,0.25,86,188.0
7654,E-3,753.5,0.25,56,188.0
7655,F#5,753.875,9/20,48,188.0
7656,F#2,754.0,124/125,91,188.0
7657,B1,754.0,0.25,70,188.0
7658,E-3,754.0,0.25,76,188.0
7659,E-3,754.5,0.25,56,188.0
7660,C#4,754.983,9/20,59,188.0
7661,E1,755.0,79/500,86,188.0
7662,C#5,755.0,9/20,101,188.0
7663,E-3,755.0,0.25,76,188.0
7664,C#5,755.375,9/20,59,188.0
7665,C#4,755.483,9/20,50,188.0
7666,F#1,755.5,121/500,91,188.0
7667,C#5,755.5,9/20,92,188.0
7668,B1,755.5,0.25,70,188.0
7669,E-3,755.5,0.25,56,188.0
7670,B-3,755.5,4.0,95,188.0
7671,G#4,755.5,4.0,95,188.0
7672,C#4,755.5,4.0,95,188.0
7673,F4,755.5,4.0,95,188.0
7674,C#5,755.875,0.125,50,188.0
7675,C#4,755.983,17/1000,50,188.0
7676,F#1,756.0,124/125,91,188.0
7677,C#5,756.0,9/20,92,188.0
7678,C#5,756.0,13/40,50,188.0
7679,C#4,756.0,433/1000,50,188.0
7680,B1,756.0,0.25,70,188.0
7681,E-3,756.0,0.25,76,188.0
7682,C#5,756.375,9/20,50,188.0
7683,C#4,756.483,9/20,50,188.0
7684,C#5,756.5,9/20,92,188.0
7685,E-3,756.5,0.25,56,188.0
7686,C#5,756.875,9/20,50,188.0
7687,F#3,756.983,9/20,56,188.0
7688,E1,757.0,79/500,86,188.0
7689,F#4,757.0,9/20,98,188.0
7690,E-3,757.0,0.25,76,188.0
7691,F#4,757.375,9/20,56,188.0
7692,F#1,757.5,121/500,91,188.0
7693,B1,757.5,0.25,70,188.0
7694,E2,757.5,0.25,86,188.0
7695,E-3,757.5,0.25,56,188.0
7696,A3,757.5,2.0,95,188.0
7697,E4,757.5,2.0,95,188.0
7698,C#4,757.983,9/20,60,188.0
7699,F#2,758.0,124/125,91,188.0
7700,C#5,758.0,9/20,102,188.0
7701,B1,758.0,0.25,70,188.0
7702,E-3,758.0,0.25,76,188.0
7703,C#5,758.375,9/20,60,188.0
7704,C#4,758.483,9/20,62,188.0
7705,C#5,758.5,9/20,104,188.0
7706,E-3,758.5,0.25,56,188.0
7707,C#5,758.875,9/20,62,188.0
7708,C#4,758.983,9/20,48,188.0
7709,E1,759.0,79/500,86,188.0
7710,C#5,759.0,9/20,90,188.0
7711,E-3,759.0,0.25,76,188.0
7712,C#5,759.375,9/20,48,188.0
7713,F#1,759.5,0.5,91,188.0
7714,B1,759.5,0.25,70,188.0
7715,E-3,759.5,0.25,56,188.0
7716,E-4,759.5,2.0,95,188.0
7717,G#3,759.5,2.0,95,188.0
7718,C#4,759.983,17/1000,61,188.0
7719,F#1,760.0,124/125,91,188.0
7720,C#5,760.0,9/20,103,188.0
7721,C#4,760.0,433/1000,61,188.0
7722,B1,760.0,0.25,70,188.0
7723,E-3,760.0,0.25,76,188.0
7724,C#5,760.375,9/20,61,188.0
7725,C#4,760.483,9/20,57,188.0
7726,C#5,760.5,9/20,99,188.0
7727,E-3,760.5,0.25,56,188.0
7728,C#5,760.875,9/20,57,188.0
7729,E1,761.0,79/500,86,188.0
7730,E2,761.0,0.25,86,188.0
7731,E-3,761.0,0.25,76,188.0
7732,C#4,761.483,9/20,56,188.0
7733,F#1,761.5,121/500,91,188.0
7734,C#5,761.5,9/20,98,188.0
7735,B1,761.5,0.25,70,188.0
7736,E-3,761.5,0.25,56,188.0
7737,A3,761.5,2.0,95,188.0
7738,E4,761.5,2.0,95,188.0
7739,C#5,761.875,9/20,56,188.0
7740,F#2,762.0,124/125,91,188.0
7741,B1,762.0,0.25,70,188.0
7742,E-3,762.0,0.25,76,188.0
7743,E2,762.5,0.25,86,188.0
7744,E-3,762.5,0.25,56,188.0
7745,C#4,762.983,9/20,61,188.0
7746,E1,763.0,79/500,86,188.0
7747,C#5,763.0,9/20,103,188.0
7748,E-3,763.0,0.25,76,188.0
7749,C#5,763.375,9/20,61,188.0
7750,B3,763.483,9/20,63,188.0
7751,E1,763.5,79/500,86,188.0
7752,B4,763.5,9/20,105,188.0
7753,B1,763.5,0.25,70,188.0
7754,E-3,763.5,0.25,56,188.0
7755,C#4,763.5,2.0,95,188.0
7756,B-3,763.5,2.0,95,188.0
7757,F4,763.5,2.0,95,188.0
7758,B4,763.875,0.125,63,188.0
7759,B-3,763.983,17/1000,50,188.0
7760,G3,763.992,1/125,72,188.0
7761,E-2,764.0,124/125,91,188.0
7762,B-4,764.0,9/20,92,188.0
7763,B4,764.0,13/40,63,188.0
7764,B-3,764.0,433/1000,50,188.0
7765,B1,764.0,0.25,70,188.0
7766,G3,764.0,121/500,72,188.0
7767,B-4,764.375,9/20,50,188.0
7768,E-3,764.5,0.25,56,188.0
7769,B-3,764.983,9/20,60,188.0
7770,E1,765.0,79/500,86,188.0
7771,B-4,765.0,9/20,102,188.0
7772,E-3,765.0,0.25,76,188.0
7773,B-4,765.375,9/20,60,188.0
7774,E-4,765.483,9/20,49,188.0
7775,E-2,765.5,121/500,91,188.0
7776,E-5,765.5,9/20,91,188.0
7777,B1,765.5,0.25,70,188.0
7778,E-3,765.5,0.25,56,188.0
7779,C#4,765.5,2.0,95,188.0
7780,A3,765.5,2.0,95,188.0
7781,E4,765.5,2.0,95,188.0
7782,E-5,765.875,9/20,49,188.0
7783,B-3,765.983,9/20,61,188.0
7784,G#1,766.0,124/125,91,188.0
7785,B-4,766.0,9/20,103,188.0
7786,B1,766.0,0.25,70,188.0
7787,E2,766.0,0.25,86,188.0
7788,E-3,766.0,0.25,76,188.0
7789,B-4,766.375,9/20,61,188.0
7790,G#3,766.483,9/20,56,188.0
7791,G#4,766.5,9/20,98,188.0
7792,E-3,766.5,0.25,56,188.0
7793,G#4,766.875,9/20,56,188.0
7794,F#3,766.983,9/20,55,188.0
7795,E1,767.0,79/500,86,188.0
7796,F#4,767.0,9/20,97,188.0
7797,E-3,767.0,0.25,76,188.0
7798,F#4,767.375,9/20,55,188.0
7799,B3,767.483,9/20,63,188.0
7800,G#1,767.5,121/500,91,188.0
7801,B4,767.5,9/20,105,188.0
7802,B1,767.5,0.25,70,188.0
7803,E-3,767.5,0.25,56,188.0
7804,G#3,767.5,2.0,95,188.0
7805,E-4,767.5,2.0,95,188.0
7806,B4,767.875,0.125,63,188.0
7807,B-3,767.983,17/1000,59,188.0
7808,G#1,768.0,124/125,91,188.0
7809,B-4,768.0,9/20,101,188.0
7810,B4,768.0,13/40,63,188.0
7811,B-3,768.0,433/1000,59,188.0
7812,B1,768.0,0.25,70,188.0
7813,E-3,768.0,0.25,76,188.0
7814,B-4,768.375,9/20,59,188.0
7815,G#3,768.483,49/20,52,188.0
7816,G#4,768.5,49/20,94,188.0
7817,E-3,768.5,0.25,56,188.0
7818,G#4,768.875,49/20,52,188.0
7819,E1,769.0,79/500,86,188.0
7820,C#4,769.0,0.5,95,188.0
7821,E-3,769.0,0.25,76,188.0
7822,G#1,769.5,121/500,91,188.0
7823,B1,769.5,0.25,70,188.0
7824,E2,769.5,0.25,86,188.0
7825,E-3,769.5,0.25,56,188.0
7826,C#2,770.0,124/125,91,188.0
7827,B1,770.0,0.25,70,188.0
7828,E-3,770.0,0.25,76,188.0
7829,B-3,770.0,1.5,95,188.0
7830,B-4,770.0,1.5,95,188.0
7831,E-4,770.0,1.5,95,188.0
7832,F#4,770.0,1.5,95,188.0
7833,C#6,770.5,0.5,105,188.0
7834,E-3,770.5,0.25,56,188.0
7835,C#3,770.983,9/20,51,188.0
7836,E1,771.0,79/500,86,188.0
7837,B5,771.0,0.5,105,188.0
7838,C#4,771.0,9/20,93,188.0
7839,E-3,771.0,0.25,76,188.0
7840,C#4,771.375,9/20,51,188.0
7841,F#3,771.483,517/1000,55,188.0
7842,A3,771.492,0.25,92,188.0
7843,G1,771.5,0.5,91,188.0
7844,B-5,771.5,0.5,105,188.0
7845,F#4,771.5,0.5,97,188.0
7846,B1,771.5,0.25,70,188.0
7847,E-3,771.5,0.25,56,188.0
7848,E-4,771.5,2.0,95,188.0
7849,B-3,771.5,2.0,95,188.0
7850,F#4,771.5,2.0,95,188.0
7851,C#4,771.5,2.0,95,188.0
7852,F#4,771.875,0.125,55,188.0
7853,G1,772.0,124/125,91,188.0
7854,F#4,772.0,79/20,97,188.0
7855,F#4,772.0,4.0,55,188.0
7856,F#3,772.0,3933/1000,55,188.0
7857,B1,772.0,0.25,70,188.0
7858,E-3,772.0,0.25,76,188.0
7859,B-5,772.5,0.5,105,188.0
7860,E-3,772.5,0.25,56,188.0
7861,E1,773.0,79/500,86,188.0
7862,E-6,773.0,0.5,105,188.0
7863,E-3,773.0,0.25,76,188.0
7864,G1,773.5,121/500,91,188.0
7865,B-5,773.5,0.5,105,188.0
7866,B1,773.5,0.25,70,188.0
7867,E-3,773.5,0.25,56,188.0
7868,E-4,773.5,2.0,95,188.0
7869,G#3,773.5,2.0,95,188.0
7870,F#4,773.5,2.0,95,188.0
7871,C4,773.5,2.0,95,188.0
7872,G2,774.0,124/125,91,188.0
7873,G#5,774.0,0.5,105,188.0
7874,B1,774.0,0.25,70,188.0
7875,E2,774.0,0.25,86,188.0
7876,E-3,774.0,0.25,76,188.0
7877,F#5,774.5,0.5,105,188.0
7878,E2,774.5,0.25,86,188.0
7879,E-3,774.5,0.25,56,188.0
7880,G1,775.0,51/125,91,188.0
7881,B5,775.0,0.5,105,188.0
7882,A2,775.0,0.25,94,188.0
7883,E-3,775.0,0.25,76,188.0
7884,G1,775.5,51/125,91,188.0
7885,B-5,775.5,0.5,105,188.0
7886,B1,775.5,0.25,70,188.0
7887,E-3,775.5,0.25,56,188.0
7888,B2,775.983,17/1000,51,188.0
7889,C#3,775.992,1/125,92,188.0
7890,F#2,776.0,124/125,91,188.0
7891,G#5,776.0,1.5,105,188.0
7892,B3,776.0,9/20,93,188.0
7893,F#4,776.0,13/40,55,188.0
7894,B2,776.0,0.5,81,188.0
7895,B2,776.0,433/1000,51,188.0
7896,B1,776.0,0.25,70,188.0
7897,C#3,776.0,121/500,92,188.0
7898,C4,776.0,0.5,95,188.0
7899,G#4,776.0,0.5,95,188.0
7900,E-4,776.0,0.5,95,188.0
7901,B3,776.375,9/20,51,188.0
7902,B2,776.483,9/20,59,188.0
7903,B3,776.5,9/20,101,188.0
7904,B2,776.5,0.5,81,188.0
7905,F3,776.5,0.25,56,188.0
7906,B3,776.875,9/20,59,188.0
7907,E1,776.967,79/500,86,188.0
7908,E3,776.983,9/20,58,188.0
7909,E4,777.0,9/20,100,188.0
7910,E3,777.0,0.5,81,188.0
7911,C#2,777.0,0.25,94,188.0
7912,E-3,777.0,0.25,76,188.0
7913,D4,777.0,2.0,95,188.0
7914,B3,777.0,2.0,95,188.0
7915,G#4,777.0,2.0,95,188.0
7916,E4,777.375,9/20,58,188.0
7917,G#3,777.483,9/20,51,188.0
7918,F#2,777.5,121/500,91,188.0
7919,G#4,777.5,9/20,93,188.0
7920,G#3,777.5,0.5,81,188.0
7921,B1,777.5,0.25,70,188.0
7922,E-3,777.5,0.25,56,188.0
7923,G#4,777.875,9/20,51,188.0
7924,F#3,777.983,9/20,51,188.0
7925,B1,778.0,124/125,91,188.0
7926,F#4,778.0,9/20,93,188.0
7927,F#3,778.0,0.5,81,188.0
7928,B1,778.0,0.25,70,188.0
7929,E-3,778.0,0.25,76,188.0
7930,F#4,778.375,9/20,51,188.0
7931,C#5,778.5,0.5,105,188.0
7932,E-3,778.5,0.25,56,188.0
7933,B3,778.983,9/20,55,188.0
7934,E1,778.992,79/500,86,188.0
7935,B4,779.0,9/20,97,188.0
7936,B3,779.0,0.5,81,188.0
7937,C#2,779.0,0.25,94,188.0
7938,E-3,779.0,0.25,76,188.0
7939,F#5,779.0,0.5,97,188.0
7940,C#5,779.0,0.5,97,188.0
7941,F4,779.0,0.5,97,188.0
7942,D4,779.0,0.5,97,188.0
7943,G4,779.0,0.5,97,188.0
7944,B4,779.375,9/20,55,188.0
7945,C#4,779.483,9/20,56,188.0
7946,A1,779.5,121/500,91,188.0
7947,C#5,779.5,9/20,98,188.0
7948,C#4,779.5,0.5,81,188.0
7949,B1,779.5,0.25,70,188.0
7950,E-3,779.5,0.25,56,188.0
7951,F#5,779.5,4.0,97,188.0
7952,C#5,779.5,4.0,97,188.0
7953,F4,779.5,4.0,97,188.0
7954,D4,779.5,4.0,97,188.0
7955,G4,779.5,4.0,97,188.0
7956,C#5,779.875,0.125,56,188.0
7957,D4,779.983,17/1000,53,188.0
7958,A1,780.0,124/125,91,188.0
7959,D5,780.0,9/20,95,188.0
7960,C#5,780.0,13/40,56,188.0
7961,D4,780.0,0.5,81,188.0
7962,D4,780.0,433/1000,53,188.0
7963,B1,780.0,0.25,70,188.0
7964,E-3,780.0,0.25,76,188.0
7965,D5,780.375,9/20,53,188.0
7966,B3,780.483,9/20,50,188.0
7967,B4,780.5,9/20,92,188.0
7968,B3,780.5,0.5,81,188.0
7969,E-3,780.5,0.25,56,188.0
7970,B4,780.875,9/20,50,188.0
7971,E1,780.983,79/500,86,188.0
7972,C#2,781.0,0.25,94,188.0
7973,E-3,781.0,0.25,76,188.0
7974,A1,781.5,121/500,91,188.0
7975,B1,781.5,0.25,70,188.0
7976,E-3,781.5,0.25,56,188.0
7977,E2,782.0,124/125,91,188.0
7978,B1,782.0,0.25,70,188.0
7979,E-3,782.0,0.25,76,188.0
7980,C#2,782.5,0.25,94,188.0
7981,E-3,782.5,0.25,56,188.0
7982,B3,782.983,9/20,51,188.0
7983,A2,783.0,124/125,91,188.0
7984,B4,783.0,9/20,93,188.0
7985,B3,783.0,0.5,81,188.0
7986,C#2,783.0,0.25,94,188.0
7987,E-3,783.0,0.25,76,188.0
7988,B4,783.375,9/20,51,188.0
7989,A3,783.483,9/20,59,188.0
7990,A4,783.5,9/20,101,188.0
7991,A3,783.5,0.5,81,188.0
7992,B1,783.5,0.25,70,188.0
7993,E-3,783.5,0.25,56,188.0
7994,F#4,783.5,2.0,105,188.0
7995,E4,783.5,2.0,105,188.0
7996,B3,783.5,2.0,105,188.0
7997,G#3,783.5,2.0,105,188.0
7998,A4,783.875,0.125,59,188.0
7999,B3,783.983,17/1000,58,188.0
8000,D2,784.0,124/125,91,188.0
8001,B4,784.0,9/20,100,188.0
8002,A4,784.0,13/40,59,188.0
8003,B3,784.0,0.5,81,188.0
8004,B3,784.0,433/1000,58,188.0
8005,B1,784.0,0.25,70,188.0
8006,E-3,784.0,0.25,76,188.0
8007,B4,784.375,9/20,58,188.0
8008,C#4,784.483,9/20,52,188.0
8009,C#5,784.5,9/20,94,188.0
8010,C#4,784.5,0.5,81,188.0
8011,E-3,784.5,0.25,56,188.0
8012,C#5,784.875,9/20,52,188.0
8013,A3,784.983,9/20,49,188.0
8014,E1,784.992,79/500,86,188.0
8015,A4,785.0,9/20,91,188.0
8016,A3,785.0,0.5,81,188.0
8017,C#2,785.0,0.25,94,188.0
8018,E-3,785.0,0.25,76,188.0
8019,A4,785.375,9/20,49,188.0
8020,D2,785.5,121/500,91,188.0
8021,B1,785.5,0.25,70,188.0
8022,E-3,785.5,0.25,56,188.0
8023,F#3,785.5,2.0,105,188.0
8024,E4,785.5,2.0,105,188.0
8025,F#4,785.5,2.0,105,188.0
8026,B3,785.5,2.0,105,188.0
8027,D4,785.983,9/20,61,188.0
8028,G#2,786.0,124/125,91,188.0
8029,D5,786.0,9/20,103,188.0
8030,D4,786.0,0.5,81,188.0
8031,B1,786.0,0.25,70,188.0
8032,E-3,786.0,0.25,76,188.0
8033,D5,786.375,9/20,61,188.0
8034,E-3,786.5,0.25,56,188.0
8035,F#3,786.983,9/20,48,188.0
8036,F#4,787.0,9/20,90,188.0
8037,F#3,787.0,0.5,81,188.0
8038,C#2,787.0,0.25,94,188.0
8039,E-3,787.0,0.25,76,188.0
8040,E1,787.008,79/500,86,188.0
8041,F#4,787.375,9/20,48,188.0
8042,E3,787.483,9/20,48,188.0
8043,G#2,787.5,121/500,91,188.0
8044,E4,787.5,9/20,90,188.0
8045,E3,787.5,0.5,81,188.0
8046,B1,787.5,0.25,70,188.0
8047,E-3,787.5,0.25,56,188.0
8048,E4,787.875,0.125,48,188.0
8049,F#3,787.983,17/1000,57,188.0
8050,G2,788.0,124/125,91,188.0
8051,F#4,788.0,9/20,99,188.0
8052,E4,788.0,13/40,48,188.0
8053,F#3,788.0,0.5,81,188.0
8054,F#3,788.0,433/1000,57,188.0
8055,B1,788.0,0.25,70,188.0
8056,E-3,788.0,0.25,76,188.0
8057,B3,788.0,0.5,105,188.0
8058,F#3,788.0,0.5,105,188.0
8059,D4,788.0,0.5,105,188.0
8060,F#4,788.375,9/20,57,188.0
8061,D3,788.483,9/20,57,188.0
8062,D4,788.5,9/20,99,188.0
8063,D3,788.5,0.5,81,188.0
8064,C#2,788.5,0.25,94,188.0
8065,E-3,788.5,0.25,56,188.0
8066,D4,788.875,9/20,57,188.0
8067,E1,788.992,79/500,86,188.0
8068,E-3,789.0,0.25,76,188.0
8069,B3,789.0,0.5,105,188.0
8070,F#3,789.0,0.5,105,188.0
8071,D4,789.0,0.5,105,188.0
8072,D2,789.5,121/500,91,188.0
8073,C#2,789.5,0.25,94,188.0
8074,E-3,789.5,0.25,56,188.0
8075,G2,790.0,371/500,91,188.0
8076,B1,790.0,0.25,70,188.0
8077,E-3,790.0,0.25,76,188.0
8078,B3,790.0,1.5,105,188.0
8079,F#3,790.0,1.5,105,188.0
8080,D4,790.0,1.5,105,188.0
8081,C#2,790.5,0.25,94,188.0
8082,E-3,790.5,0.25,56,188.0
8083,F#2,791.0,371/500,91,188.0
8084,C#2,791.0,0.25,94,188.0
8085,E-3,791.0,0.25,76,188.0
8086,B1,791.5,0.25,70,188.0
8087,E-3,791.5,0.25,56,188.0
8088,C#4,791.5,2.0,105,188.0
8089,A3,791.5,2.0,105,188.0
8090,F#3,791.5,2.0,105,188.0
8091,B2,791.983,17/1000,60,188.0
8092,E2,792.0,124/125,91,188.0
8093,B3,792.0,9/20,102,188.0
8094,B2,792.0,0.5,81,188.0
8095,B2,792.0,433/1000,60,188.0
8096,B1,792.0,0.25,70,188.0
8097,E-3,792.0,0.25,76,188.0
8098,B3,792.375,9/20,60,188.0
8099,B2,792.483,9/20,59,188.0
8100,B3,792.5,9/20,101,188.0
8101,B2,792.5,0.5,81,188.0
8102,E-3,792.5,0.25,56,188.0
8103,B3,792.875,9/20,59,188.0
8104,E3,792.983,9/20,61,188.0
8105,E1,792.992,79/500,86,188.0
8106,E4,793.0,9/20,103,188.0
8107,E3,793.0,0.5,81,188.0
8108,C#2,793.0,0.25,94,188.0
8109,E-3,793.0,0.25,76,188.0
8110,E4,793.375,9/20,61,188.0
8111,B2,793.483,9/20,54,188.0
8112,E2,793.5,121/500,91,188.0
8113,B3,793.5,9/20,96,188.0
8114,B2,793.5,0.5,81,188.0
8115,B1,793.5,0.25,70,188.0
8116,E-3,793.5,0.25,56,188.0
8117,D4,793.5,2.0,105,188.0
8118,E4,793.5,2.0,105,188.0
8119,C4,793.5,2.0,105,188.0
8120,G#3,793.5,2.0,105,188.0
8121,B3,793.875,9/20,54,188.0
8122,C#3,793.983,9/20,48,188.0
8123,F#2,794.0,124/125,91,188.0
8124,C#4,794.0,9/20,90,188.0
8125,C#3,794.0,0.5,81,188.0
8126,B1,794.0,0.25,70,188.0
8127,E-3,794.0,0.25,76,188.0
8128,C#4,794.375,9/20,48,188.0
8129,E3,794.483,9/20,48,188.0
8130,E4,794.5,9/20,90,188.0
8131,E3,794.5,0.5,81,188.0
8132,E-3,794.5,0.25,56,188.0
8133,E4,794.875,9/20,48,188.0
8134,A3,794.983,9/20,52,188.0
8135,E1,794.992,79/500,86,188.0
8136,A4,795.0,9/20,94,188.0
8137,A3,795.0,0.5,81,188.0
8138,C#2,795.0,0.25,94,188.0
8139,E-3,795.0,0.25,76,188.0
8140,A4,795.375,9/20,52,188.0
8141,B3,795.483,517/1000,51,188.0
8142,F#2,795.5,121/500,91,188.0
8143,B4,795.5,0.5,93,188.0
8144,B3,795.5,0.5,81,188.0
8145,B1,795.5,0.25,70,188.0
8146,E-3,795.5,0.25,56,188.0
8147,B3,795.5,4.0,105,188.0
8148,D4,795.5,4.0,105,188.0
8149,F#4,795.5,4.0,105,188.0
8150,G4,795.5,4.0,105,188.0
8151,B4,795.875,0.125,51,188.0
8152,B2,796.0,124/125,91,188.0
8153,B4,796.0,19/20,93,188.0
8154,B4,796.0,53/40,51,188.0
8155,B3,796.0,1.0,81,188.0
8156,B3,796.0,933/1000,51,188.0
8157,B1,796.0,0.25,70,188.0
8158,E-3,796.0,0.25,76,188.0
8159,E-3,796.5,0.25,56,188.0
8160,E1,796.983,79/500,86,188.0
8161,A3,796.983,9/20,56,188.0
8162,A4,797.0,9/20,98,188.0
8163,A3,797.0,0.5,81,188.0
8164,C#2,797.0,0.25,94,188.0
8165,E-3,797.0,0.25,76,188.0
8166,A4,797.375,9/20,56,188.0
8167,B3,797.483,9/20,49,188.0
8168,B4,797.5,9/20,91,188.0
8169,B3,797.5,0.5,81,188.0
8170,B1,797.5,0.25,70,188.0
8171,E-3,797.5,0.25,56,188.0
8172,B4,797.875,9/20,49,188.0
8173,C4,797.983,19/20,63,188.0
8174,A2,798.0,124/125,91,188.0
8175,C5,798.0,19/20,105,188.0
8176,C4,798.0,1.0,81,188.0
8177,B1,798.0,0.25,70,188.0
8178,E-3,798.0,0.25,76,188.0
8179,C5,798.375,19/20,63,188.0
8180,E-3,798.5,0.25,56,188.0
8181,D4,798.983,9/20,53,188.0
8182,E1,799.0,79/500,86,188.0
8183,D5,799.0,9/20,95,188.0
8184,D4,799.0,0.5,81,188.0
8185,C#2,799.0,0.25,94,188.0
8186,E-3,799.0,0.25,76,188.0
8187,D5,799.375,9/20,53,188.0
8188,B3,799.483,517/1000,52,188.0
8189,D3,799.5,0.5,91,188.0
8190,B4,799.5,0.5,94,188.0
8191,B3,799.5,0.5,81,188.0
8192,B1,799.5,0.25,70,188.0
8193,E-3,799.5,0.25,56,188.0
8194,G3,799.5,2.0,105,188.0
8195,B3,799.5,2.0,105,188.0
8196,E4,799.5,2.0,105,188.0
8197,B4,799.875,0.125,52,188.0
8198,D3,800.0,123/250,91,188.0
8199,B4,800.0,9/20,94,188.0
8200,B4,800.0,33/40,52,188.0
8201,B3,800.0,0.5,81,188.0
8202,B3,800.0,433/1000,52,188.0
8203,E-3,800.0,0.25,76,188.0
8204,E1,800.492,79/500,86,188.0
8205,C#2,800.5,0.25,94,188.0
8206,E-3,800.5,0.25,56,188.0
8207,B-3,800.983,9/20,63,188.0
8208,B-2,801.0,124/125,91,188.0
8209,B-4,801.0,9/20,105,188.0
8210,B-3,801.0,0.5,81,188.0
8211,B1,801.0,0.25,70,188.0
8212,F3,801.0,0.25,76,188.0
8213,B-4,801.375,9/20,63,188.0
8214,C#4,801.483,9/20,49,188.0
8215,C#5,801.5,9/20,91,188.0
8216,C#4,801.5,0.5,81,188.0
8217,E-3,801.5,0.25,56,188.0
8218,E4,801.5,2.0,105,188.0
8219,C#4,801.5,2.0,105,188.0
8220,A3,801.5,2.0,105,188.0
8221,C#5,801.875,9/20,49,188.0
8222,B3,801.983,9/20,52,188.0
8223,E1,802.0,79/500,86,188.0
8224,B4,802.0,9/20,94,188.0
8225,B3,802.0,0.5,81,188.0
8226,C#2,802.0,0.25,94,188.0
8227,E-3,802.0,0.25,76,188.0
8228,B4,802.375,9/20,52,188.0
8229,G#3,802.483,9/20,58,188.0
8230,C#2,802.5,124/125,91,188.0
8231,G#4,802.5,9/20,100,188.0
8232,G#3,802.5,0.5,81,188.0
8233,B1,802.5,0.25,70,188.0
8234,F3,802.5,0.25,56,188.0
8235,G#4,802.875,9/20,58,188.0
8236,E-3,803.0,0.25,76,188.0
8237,B3,803.0,0.5,105,188.0
8238,D4,803.0,0.5,105,188.0
8239,F#4,803.0,0.5,105,188.0
8240,C#3,803.483,9/20,52,188.0
8241,E1,803.5,79/500,86,188.0
8242,C#4,803.5,9/20,94,188.0
8243,C#3,803.5,0.5,81,188.0
8244,E-3,803.5,0.25,56,188.0
8245,B3,803.5,2.0,105,188.0
8246,D4,803.5,2.0,105,188.0
8247,F#4,803.5,2.0,105,188.0
8248,C#4,803.875,0.125,52,188.0
8249,A3,803.983,17/1000,51,188.0
8250,G3,803.992,1/125,72,188.0
8251,F#2,804.0,124/125,91,188.0
8252,A4,804.0,67/1000,93,188.0
8253,C#4,804.0,13/40,52,188.0
8254,A3,804.0,117/1000,81,188.0
8255,A3,804.0,1/20,51,188.0
8256,B1,804.0,0.25,70,188.0
8257,G3,804.0,121/500,72,188.0
8258,B-3,804.108,83/40,50,188.0
8259,B-4,804.125,83/40,92,188.0
8260,B-3,804.125,2.125,71,188.0
8261,A4,804.375,67/1000,51,188.0
8262,B-4,804.5,83/40,50,188.0
8263,E-3,804.5,0.25,56,188.0
8264,E1,805.0,79/500,86,188.0
8265,C#2,805.0,0.25,94,188.0
8266,E-3,805.0,0.25,76,188.0
8267,C#2,805.5,121/500,91,188.0
8268,B1,805.5,0.25,70,188.0
8269,E-3,805.5,0.25,56,188.0
8270,C4,805.5,2.0,105,188.0
8271,E4,805.5,2.0,105,188.0
8272,G3,805.5,2.0,105,188.0
8273,F#2,806.0,373/250,91,188.0
8274,B1,806.0,0.25,70,188.0
8275,E-3,806.0,0.25,76,188.0
8276,C#2,806.5,0.25,94,188.0
8277,E-3,806.5,0.25,56,188.0
8278,B3,806.983,9/20,49,188.0
8279,B4,807.0,9/20,91,188.0
8280,B3,807.0,0.5,81,188.0
8281,E-3,807.0,0.25,76,188.0
8282,C4,807.0,0.5,105,188.0
8283,F#3,807.0,0.5,105,188.0
8284,E4,807.0,0.5,105,188.0
8285,B4,807.375,9/20,49,188.0
8286,B-3,807.483,9/20,60,188.0
8287,E-1,807.5,79/500,86,188.0
8288,B-4,807.5,9/20,102,188.0
8289,B-3,807.5,0.5,81,188.0
8290,B1,807.5,0.25,70,188.0
8291,E-3,807.5,0.25,56,188.0
8292,B-4,807.875,0.125,60,188.0
8293,B-3,807.983,17/1000,48,188.0
8294,F2,808.0,124/125,91,188.0
8295,B-4,808.0,9/20,90,188.0
8296,B-4,808.0,13/40,60,188.0
8297,B-3,808.0,0.5,81,188.0
8298,B-3,808.0,433/1000,48,188.0
8299,B1,808.0,0.25,70,188.0
8300,E-3,808.0,0.25,76,188.0
8301,B-4,808.375,9/20,48,188.0
8302,G#3,808.483,9/20,59,188.0
8303,G#4,808.5,9/20,101,188.0
8304,G#3,808.5,0.5,81,188.0
8305,E-3,808.5,0.25,56,188.0
8306,B-3,808.5,1.5,105,188.0
8307,F#3,808.5,1.5,105,188.0
8308,E-4,808.5,1.5,105,188.0
8309,G#4,808.875,9/20,59,188.0
8310,G3,808.983,9/20,57,188.0
8311,E1,809.0,79/500,86,188.0
8312,G4,809.0,9/20,99,188.0
8313,G3,809.0,0.5,81,188.0
8314,C#2,809.0,0.25,94,188.0
8315,E-3,809.0,0.25,76,188.0
8316,G4,809.375,9/20,57,188.0
8317,G#3,809.483,9/20,49,188.0
8318,F2,809.5,121/500,91,188.0
8319,G#4,809.5,9/20,91,188.0
8320,G#3,809.5,0.5,81,188.0
8321,B1,809.5,0.25,70,188.0
8322,E-3,809.5,0.25,56,188.0
8323,G#4,809.875,9/20,49,188.0
8324,B3,809.983,19/20,63,188.0
8325,B-1,810.0,124/125,91,188.0
8326,B4,810.0,19/20,105,188.0
8327,B3,810.0,1.0,81,188.0
8328,B1,810.0,0.25,70,188.0
8329,E-3,810.0,0.25,76,188.0
8330,B-3,810.0,0.5,105,188.0
8331,E-4,810.0,0.5,105,188.0
8332,F3,810.0,0.5,105,188.0
8333,B4,810.375,19/20,63,188.0
8334,E-3,810.5,0.25,56,188.0
8335,B-3,810.983,9/20,57,188.0
8336,E1,811.0,79/500,86,188.0
8337,B-4,811.0,9/20,99,188.0
8338,B-3,811.0,0.5,81,188.0
8339,C#2,811.0,0.25,94,188.0
8340,E-3,811.0,0.25,76,188.0
8341,B-4,811.375,9/20,57,188.0
8342,F#3,811.483,517/1000,57,188.0
8343,B-1,811.5,121/500,91,188.0
8344,C#4,811.5,0.25,105,188.0
8345,F#4,811.5,0.5,99,188.0
8346,F#3,811.5,0.5,81,188.0
8347,B1,811.5,0.25,70,188.0
8348,E-3,811.5,0.25,56,188.0
8349,F4,811.5,4.0,105,188.0
8350,B-3,811.5,4.0,105,188.0
8351,F#3,811.5,4.0,105,188.0
8352,F#4,811.875,0.125,57,188.0
8353,E-2,812.0,124/125,91,188.0
8354,C#4,812.0,2.5,105,188.0
8355,F#4,812.0,9/20,99,188.0
8356,F#4,812.0,33/40,57,188.0
8357,F#3,812.0,0.5,81,188.0
8358,F#3,812.0,433/1000,57,188.0
8359,B1,812.0,0.25,70,188.0
8360,E-3,812.0,0.25,76,188.0
8361,G#3,812.483,19/20,63,188.0
8362,D4,812.5,2.5,105,188.0
8363,G#4,812.5,19/20,105,188.0
8364,G#3,812.5,1.0,81,188.0
8365,E-3,812.5,0.25,56,188.0
8366,G#4,812.875,19/20,63,188.0
8367,E1,813.0,79/500,86,188.0
8368,E-4,813.0,2.5,105,188.0
8369,C#2,813.0,0.25,94,188.0
8370,E-3,813.0,0.25,76,188.0
8371,E-3,813.483,9/20,48,188.0
8372,E-2,813.5,121/500,91,188.0
8373,E-4,813.5,9/20,90,188.0
8374,E-3,813.5,0.5,81,188.0
8375,B1,813.5,0.25,70,188.0
8376,E-3,813.5,0.25,56,188.0
8377,E-4,813.875,9/20,48,188.0
8378,G#2,814.0,124/125,91,188.0
8379,B1,814.0,0.25,70,188.0
8380,E-3,814.0,0.25,76,188.0
8381,C#2,814.5,0.25,94,188.0
8382,E-3,814.5,0.25,56,188.0
8383,B3,814.983,9/20,52,188.0
8384,E-1,815.0,79/500,86,188.0
8385,B4,815.0,9/20,94,188.0
8386,B3,815.0,0.5,81,188.0
8387,C#2,815.0,0.25,94,188.0
8388,E-3,815.0,0.25,76,188.0
8389,B4,815.375,9/20,52,188.0
8390,B-3,815.483,9/20,60,188.0
8391,E-2,815.5,121/500,91,188.0
8392,B-4,815.5,9/20,102,188.0
8393,B-3,815.5,0.5,81,188.0
8394,B1,815.5,0.25,70,188.0
8395,E-3,815.5,0.25,56,188.0
8396,B-4,815.5,2.0,105,188.0
8397,B3,815.5,2.0,105,188.0
8398,E-4,815.5,2.0,105,188.0
8399,F4,815.5,2.0,105,188.0
8400,B-4,815.875,0.125,60,188.0
8401,B-3,815.983,17/1000,62,188.0
8402,G#2,816.0,124/125,91,188.0
8403,B-4,816.0,9/20,104,188.0
8404,B-4,816.0,13/40,60,188.0
8405,B-3,816.0,0.5,81,188.0
8406,B-3,816.0,433/1000,62,188.0
8407,B1,816.0,0.25,70,188.0
8408,E-3,816.0,0.25,76,188.0
8409,B-4,816.375,9/20,62,188.0
8410,G#3,816.483,9/20,59,188.0
8411,G#4,816.5,9/20,101,188.0
8412,G#3,816.5,0.5,81,188.0
8413,E-3,816.5,0.25,56,188.0
8414,G#4,816.875,9/20,59,188.0
8415,G3,816.983,9/20,48,188.0
8416,E1,817.0,79/500,86,188.0
8417,G4,817.0,9/20,90,188.0
8418,G3,817.0,0.5,81,188.0
8419,C#2,817.0,0.25,94,188.0
8420,E-3,817.0,0.25,76,188.0
8421,G4,817.375,9/20,48,188.0
8422,G#3,817.483,9/20,53,188.0
8423,G#2,817.5,121/500,91,188.0
8424,G#4,817.5,9/20,95,188.0
8425,G#3,817.5,0.5,81,188.0
8426,B1,817.5,0.25,70,188.0
8427,E-3,817.5,0.25,56,188.0
8428,G#4,817.5,2.0,105,188.0
8429,B3,817.5,2.0,105,188.0
8430,F#4,817.5,2.0,105,188.0
8431,D4,817.5,2.0,105,188.0
8432,G#4,817.875,9/20,53,188.0
8433,B3,817.983,19/20,58,188.0
8434,C#2,818.0,124/125,91,188.0
8435,B4,818.0,19/20,100,188.0
8436,B3,818.0,1.0,81,188.0
8437,B1,818.0,0.25,70,188.0
8438,E-3,818.0,0.25,76,188.0
8439,B4,818.375,19/20,58,188.0
8440,E-3,818.5,0.25,56,188.0
8441,B-3,818.983,9/20,51,188.0
8442,E1,819.0,79/500,86,188.0
8443,F#3,819.0,0.5,105,188.0
8444,B-4,819.0,9/20,93,188.0
8445,B-3,819.0,0.5,81,188.0
8446,C#2,819.0,0.25,94,188.0
8447,E-3,819.0,0.25,76,188.0
8448,B-4,819.375,9/20,51,188.0
8449,C#4,819.483,517/1000,53,188.0
8450,C#2,819.5,121/500,91,188.0
8451,F#3,819.5,4.0,105,188.0
8452,C#5,819.5,0.5,95,188.0
8453,C#4,819.5,0.5,81,188.0
8454,B1,819.5,0.25,70,188.0
8455,E-3,819.5,0.25,56,188.0
8456,C#4,819.5,2.0,105,188.0
8457,F#4,819.5,2.0,105,188.0
8458,B-3,819.5,2.0,105,188.0
8459,C#5,819.875,0.125,53,188.0
8460,F#2,820.0,124/125,91,188.0
8461,C#5,820.0,9/20,95,188.0
8462,C#5,820.0,33/40,53,188.0
8463,C#4,820.0,0.5,81,188.0
8464,C#4,820.0,433/1000,53,188.0
8465,B1,820.0,0.25,70,188.0
8466,E-3,820.0,0.25,76,188.0
8467,F#3,820.483,9/20,58,188.0
8468,F#4,820.5,9/20,100,188.0
8469,F#3,820.5,0.5,81,188.0
8470,C#2,820.5,0.25,94,188.0
8471,E-3,820.5,0.25,56,188.0
8472,F#4,820.875,9/20,58,188.0
8473,B-3,820.983,9/20,52,188.0
8474,E1,821.0,79/500,86,188.0
8475,B-4,821.0,9/20,94,188.0
8476,B-3,821.0,0.5,81,188.0
8477,E-3,821.0,0.25,76,188.0
8478,B-4,821.375,9/20,52,188.0
8479,D4,821.483,19/20,56,188.0
8480,F#2,821.5,121/500,91,188.0
8481,D5,821.5,19/20,98,188.0
8482,D4,821.5,1.0,81,188.0
8483,C#2,821.5,0.25,94,188.0
8484,E-3,821.5,0.25,56,188.0
8485,G#4,821.5,2.0,105,188.0
8486,E-4,821.5,2.0,105,188.0
8487,C4,821.5,2.0,105,188.0
8488,D5,821.875,19/20,56,188.0
8489,C2,822.0,124/125,91,188.0
8490,B1,822.0,0.25,70,188.0
8491,E-3,822.0,0.25,76,188.0
8492,F#3,822.483,9/20,51,188.0
8493,F#4,822.5,9/20,93,188.0
8494,F#3,822.5,0.5,81,188.0
8495,C#2,822.5,0.25,94,188.0
8496,E-3,822.5,0.25,56,188.0
8497,F#4,822.875,9/20,51,188.0
8498,B-3,822.983,9/20,49,188.0
8499,E1,823.0,79/500,86,188.0
8500,B-4,823.0,9/20,91,188.0
8501,B-3,823.0,0.5,81,188.0
8502,C#2,823.0,0.25,94,188.0
8503,E-3,823.0,0.25,76,188.0
8504,B-4,823.375,9/20,49,188.0
8505,C2,823.5,121/500,91,188.0
8506,B1,823.5,0.25,70,188.0
8507,E-3,823.5,0.25,56,188.0
8508,E-4,823.983,17/1000,61,188.0
8509,B1,824.0,124/125,91,188.0
8510,E-5,824.0,29/20,103,188.0
8511,E-4,824.0,1.5,81,188.0
8512,E-4,824.0,1433/1000,61,188.0
8513,B1,824.0,0.25,70,188.0
8514,E-3,824.0,0.25,76,188.0
8515,B3,824.0,1.5,105,188.0
8516,E-4,824.0,1.5,105,188.0
8517,G#4,824.0,1.5,105,188.0
8518,E-5,824.375,29/20,61,188.0
8519,E-3,824.5,0.25,56,188.0
8520,E1,825.0,79/500,86,188.0
8521,C#2,825.0,0.25,94,188.0
8522,E-3,825.0,0.25,76,188.0
8523,F4,825.483,19/20,61,188.0
8524,B1,825.5,121/500,91,188.0
8525,F5,825.5,19/20,103,188.0
8526,F4,825.5,1.0,81,188.0
8527,B1,825.5,0.25,70,188.0
8528,E-3,825.5,0.25,56,188.0
8529,F#4,825.5,2.0,105,188.0
8530,C#4,825.5,2.0,105,188.0
8531,G#3,825.5,2.0,105,188.0
8532,F5,825.875,19/20,61,188.0
8533,B-1,826.0,124/125,91,188.0
8534,B1,826.0,0.25,70,188.0
8535,E-3,826.0,0.25,76,188.0
8536,C#4,826.483,9/20,55,188.0
8537,C#5,826.5,9/20,97,188.0
8538,C#4,826.5,0.5,81,188.0
8539,E-3,826.5,0.25,56,188.0
8540,C#5,826.875,9/20,55,188.0
8541,E1,827.0,79/500,86,188.0
8542,C#2,827.0,0.25,94,188.0
8543,E-3,827.0,0.25,76,188.0
8544,F#4,827.483,517/1000,62,188.0
8545,B-1,827.5,121/500,91,188.0
8546,F#5,827.5,0.5,104,188.0
8547,F#4,827.5,0.5,81,188.0
8548,B1,827.5,0.25,70,188.0
8549,E-3,827.5,0.25,56,188.0
8550,F4,827.5,2.0,105,188.0
8551,G#4,827.5,2.0,105,188.0
8552,C#4,827.5,2.0,105,188.0
8553,F#5,827.875,0.125,62,188.0
8554,G#1,828.0,124/125,91,188.0
8555,F#5,828.0,9/20,104,188.0
8556,F#5,828.0,33/40,62,188.0
8557,F#4,828.0,0.5,81,188.0
8558,F#4,828.0,433/1000,62,188.0
8559,B1,828.0,0.25,70,188.0
8560,E-3,828.0,0.25,76,188.0
8561,F#4,828.483,9/20,57,188.0
8562,F#5,828.5,9/20,99,188.0
8563,F#4,828.5,0.5,81,188.0
8564,E-3,828.5,0.25,56,188.0
8565,F#5,828.875,9/20,57,188.0
8566,C#4,828.983,9/20,61,188.0
8567,E1,829.0,79/500,86,188.0
8568,C#5,829.0,9/20,103,188.0
8569,C#4,829.0,0.5,81,188.0
8570,C#2,829.0,0.25,94,188.0
8571,E-3,829.0,0.25,76,188.0
8572,C#5,829.375,9/20,61,188.0
8573,B-3,829.483,9/20,61,188.0
8574,G#1,829.5,121/500,91,188.0
8575,B-4,829.5,9/20,103,188.0
8576,B-3,829.5,0.5,81,188.0
8577,B1,829.5,0.25,70,188.0
8578,E-3,829.5,0.25,56,188.0
8579,E4,829.5,2.0,105,188.0
8580,C#4,829.5,2.0,105,188.0
8581,B-4,829.5,2.0,105,188.0
8582,B-4,829.875,9/20,61,188.0
8583,A3,829.983,67/1000,52,188.0
8584,C#2,830.0,124/125,91,188.0
8585,A4,830.0,67/1000,94,188.0
8586,A3,830.0,117/1000,71,188.0
8587,B1,830.0,0.25,70,188.0
8588,E-3,830.0,0.25,76,188.0
8589,G#3,830.108,33/40,50,188.0
8590,G#4,830.125,33/40,92,188.0
8591,G#3,830.125,0.875,81,188.0
8592,A4,830.375,67/1000,52,188.0
8593,G#4,830.5,33/40,50,188.0
8594,C#2,830.5,0.25,94,188.0
8595,E-3,830.5,0.25,56,188.0
8596,F#3,830.983,9/20,59,188.0
8597,E1,831.0,79/500,86,188.0
8598,F#4,831.0,9/20,101,188.0
8599,F#3,831.0,0.5,81,188.0
8600,C#2,831.0,0.25,94,188.0
8601,E-3,831.0,0.25,76,188.0
8602,F#4,831.375,9/20,59,188.0
8603,E-4,831.483,517/1000,63,188.0
8604,G#1,831.5,121/500,91,188.0
8605,E-5,831.5,0.5,105,188.0
8606,E-4,831.5,0.5,81,188.0
8607,B1,831.5,0.25,70,188.0
8608,E-3,831.5,0.25,56,188.0
8609,E-5,831.875,0.125,63,188.0
8610,C2,832.0,124/125,91,188.0
8611,E-5,832.0,79/20,105,188.0
8612,E-5,832.0,4.0,63,188.0
8613,E-4,832.0,4.0,81,188.0
8614,E-4,832.0,3933/1000,63,188.0
8615,B1,832.0,0.25,70,188.0
8616,E-3,832.0,0.25,76,188.0
8617,B-3,832.0,1.5,105,188.0
8618,B3,832.0,1.5,105,188.0
8619,E-4,832.0,1.5,105,188.0
8620,E-3,832.5,0.25,56,188.0
8621,E1,833.0,79/500,86,188.0
8622,C#2,833.0,0.25,94,188.0
8623,E-3,833.0,0.25,76,188.0
8624,C2,833.5,121/500,91,188.0
8625,B1,833.5,0.25,70,188.0
8626,E-3,833.5,0.25,56,188.0
8627,C2,834.0,124/125,91,188.0
8628,B1,834.0,0.25,70,188.0
8629,E-3,834.0,0.25,76,188.0
8630,G#3,834.0,1.5,105,188.0
8631,B-3,834.0,1.5,105,188.0
8632,C#4,834.0,1.5,105,188.0
8633,F4,834.0,1.5,105,188.0
8634,E-3,834.5,0.25,56,188.0
8635,E1,835.0,79/500,86,188.0
8636,C#2,835.0,0.25,94,188.0
8637,E-3,835.0,0.25,76,188.0
8638,C2,835.5,121/500,91,188.0
8639,B1,835.5,0.25,70,188.0
8640,E-3,835.5,0.25,56,188.0
8641,B1,836.0,371/500,91,188.0
8642,F#4,836.0,3.0,105,188.0
8643,E-5,836.0,13/40,63,188.0
8644,B1,836.0,0.25,70,188.0
8645,E-3,836.0,0.25,76,188.0
8646,E-4,836.0,3.5,105,188.0
8647,B-3,836.0,3.5,105,188.0
8648,C#4,836.0,3.5,105,188.0
8649,C#2,836.5,0.25,94,188.0
8650,E-3,836.5,0.25,56,188.0
8651,B1,837.0,373/250,91,188.0
8652,E-3,837.0,0.25,76,188.0
8653,C#2,837.5,0.25,94,188.0
8654,E-3,837.5,0.25,56,188.0
8655,F#4,837.983,9/20,54,188.0
8656,E4,838.0,0.5,105,188.0
8657,F#5,838.0,9/20,96,188.0
8658,F#4,838.0,0.5,81,188.0
8659,B1,838.0,0.25,70,188.0
8660,E-3,838.0,0.25,76,188.0
8661,F#5,838.375,9/20,54,188.0
8662,F#4,838.483,9/20,58,188.0
8663,E1,838.5,79/500,86,188.0
8664,F#4,838.5,1.0,105,188.0
8665,F#5,838.5,9/20,100,188.0
8666,F#4,838.5,0.5,81,188.0
8667,B2,838.5,0.25,94,188.0
8668,E-3,838.5,0.25,56,188.0
8669,F#5,838.875,9/20,58,188.0
8670,F4,838.983,9/20,50,188.0
8671,B1,839.0,367/1000,91,188.0
8672,F#4,839.0,0.5,105,188.0
8673,F5,839.0,9/20,92,188.0
8674,F4,839.0,0.5,81,188.0
8675,B2,839.0,0.25,94,188.0
8676,E-3,839.0,0.25,76,188.0
8677,F5,839.375,9/20,50,188.0
8678,E-4,839.483,9/20,51,188.0
8679,B1,839.5,121/500,96,188.0
8680,E-5,839.5,9/20,93,188.0
8681,E-4,839.5,0.5,81,188.0
8682,B1,839.5,0.25,70,188.0
8683,A2,839.5,0.25,94,188.0
8684,E-3,839.5,0.25,56,188.0
8685,F#3,839.5,4.0,105,188.0
8686,B-3,839.5,4.0,105,188.0
8687,E-5,839.875,0.125,51,188.0
8688,C#4,839.983,17/1000,60,188.0
8689,F#1,840.0,124/125,91,188.0
8690,F#4,840.0,2.5,105,188.0
8691,C#5,840.0,9/20,102,188.0
8692,E-5,840.0,13/40,51,188.0
8693,C#4,840.0,1.5,81,188.0
8694,C#4,840.0,433/1000,60,188.0
8695,B1,840.0,0.25,70,188.0
8696,E-3,840.0,0.25,76,188.0
8697,C#5,840.375,9/20,60,188.0
8698,E-4,840.5,2.5,105,188.0
8699,E-3,840.5,0.25,56,188.0
8700,C#4,840.983,9/20,55,188.0
8701,E1,841.0,79/500,86,188.0
8702,B-4,841.0,2.5,105,188.0
8703,C#5,841.0,9/20,97,188.0
8704,C#2,841.0,0.25,94,188.0
8705,E-3,841.0,0.25,76,188.0
8706,C#5,841.375,9/20,55,188.0
8707,C#4,841.483,9/20,63,188.0
8708,F#2,841.5,121/500,91,188.0
8709,C#5,841.5,9/20,105,188.0
8710,C#4,841.5,2.5,81,188.0
8711,B1,841.5,0.25,70,188.0
8712,E-3,841.5,0.25,56,188.0
8713,C#5,841.875,9/20,63,188.0
8714,F#2,842.0,124/125,91,188.0
8715,F#4,842.0,1.5,105,188.0
8716,B1,842.0,0.25,70,188.0
8717,E-3,842.0,0.25,76,188.0
8718,C#4,842.483,9/20,52,188.0
8719,E-4,842.5,1.0,105,188.0
8720,C#5,842.5,9/20,94,188.0
8721,E-3,842.5,0.25,56,188.0
8722,C#5,842.875,9/20,52,188.0
8723,E1,843.0,79/500,86,188.0
8724,G#4,843.0,0.5,105,188.0
8725,C#2,843.0,0.25,94,188.0
8726,E-3,843.0,0.25,76,188.0
8727,C#4,843.483,9/20,52,188.0
8728,F#2,843.5,3/10,96,188.0
8729,E-4,843.5,0.5,105,188.0
8730,G#4,843.5,0.5,105,188.0
8731,F#4,843.5,1.0,105,188.0
8732,C#5,843.5,9/20,94,188.0
8733,B1,843.5,0.25,70,188.0
8734,E-3,843.5,0.25,56,188.0
8735,C#5,843.875,0.125,52,188.0
8736,F#1,844.0,124/125,91,188.0
8737,B3,844.0,3.5,105,188.0
8738,C#5,844.0,13/40,52,188.0
8739,C#4,844.0,4.0,81,188.0
8740,B1,844.0,0.25,70,188.0
8741,E-3,844.0,0.25,76,188.0
8742,C#4,844.483,9/20,48,188.0
8743,C#5,844.5,9/20,90,188.0
8744,E-3,844.5,0.25,56,188.0
8745,G#4,844.5,3.0,105,188.0
8746,C#4,844.5,3.0,105,188.0
8747,F4,844.5,3.0,105,188.0
8748,C#5,844.875,9/20,48,188.0
8749,E1,845.0,79/500,86,188.0
8750,C#2,845.0,0.25,94,188.0
8751,E-3,845.0,0.25,76,188.0
8752,C#3,845.483,9/20,48,188.0
8753,F#2,845.5,121/500,91,188.0
8754,C#4,845.5,9/20,90,188.0
8755,B1,845.5,0.25,70,188.0
8756,E-3,845.5,0.25,56,188.0
8757,C#4,845.875,9/20,48,188.0
8758,F#2,846.0,124/125,91,188.0
8759,B-5,846.0,1.5,95,188.0
8760,B1,846.0,0.25,70,188.0
8761,E-3,846.0,0.25,76,188.0
8762,C#3,846.483,9/20,59,188.0
8763,G#5,846.5,1.0,95,188.0
8764,C#4,846.5,9/20,101,188.0
8765,C#2,846.5,0.25,94,188.0
8766,E-3,846.5,0.25,56,188.0
8767,C#4,846.875,9/20,59,188.0
8768,E1,847.0,79/500,86,188.0
8769,F#5,847.0,0.5,95,188.0
8770,C#2,847.0,0.25,94,188.0
8771,E-3,847.0,0.25,76,188.0
8772,F#1,847.5,121/500,91,188.0
8773,G#5,847.5,0.5,95,188.0
8774,F#5,847.5,1.0,95,188.0
8775,B1,847.5,0.25,70,188.0
8776,E-3,847.5,0.25,56,188.0
8777,B-3,847.5,4.0,105,188.0
8778,G#4,847.5,4.0,105,188.0
8779,C#4,847.5,4.0,105,188.0
8780,F4,847.5,4.0,105,188.0
8781,F5,847.5,4.0,105,188.0
8782,C#4,847.983,17/1000,45,188.0
8783,F#1,848.0,124/125,91,188.0
8784,C#5,848.0,9/20,87,188.0
8785,C#4,848.0,4.0,81,188.0
8786,C#4,848.0,433/1000,45,188.0
8787,B1,848.0,0.25,70,188.0
8788,E-3,848.0,0.25,76,188.0
8789,C#5,848.375,9/20,45,188.0
8790,C#6,848.5,0.5,105,188.0
8791,E-3,848.5,0.25,56,188.0
8792,C#4,848.983,9/20,54,188.0
8793,E-1,849.0,79/500,86,188.0
8794,C#6,849.0,0.5,105,188.0
8795,C#5,849.0,9/20,96,188.0
8796,C#2,849.0,0.25,94,188.0
8797,E-3,849.0,0.25,76,188.0
8798,C#5,849.375,9/20,54,188.0
8799,F#1,849.5,121/500,91,188.0
8800,B1,849.5,0.25,70,188.0
8801,E-3,849.5,0.25,56,188.0
8802,A3,849.5,2.0,105,188.0
8803,E4,849.5,2.0,105,188.0
8804,C#4,849.983,9/20,55,188.0
8805,F#2,850.0,124/125,91,188.0
8806,F#6,850.0,0.5,105,188.0
8807,C#5,850.0,9/20,97,188.0
8808,B1,850.0,0.25,70,188.0
8809,E-3,850.0,0.25,76,188.0
8810,C#5,850.375,9/20,55,188.0
8811,E-3,850.5,0.25,56,188.0
8812,C#4,850.983,9/20,62,188.0
8813,E1,851.0,79/500,86,188.0
8814,F#5,851.0,0.5,105,188.0
8815,C#5,851.0,9/20,104,188.0
8816,C#2,851.0,0.25,94,188.0
8817,E-3,851.0,0.25,76,188.0
8818,C#5,851.375,9/20,62,188.0
8819,F#1,851.5,0.5,91,188.0
8820,B1,851.5,0.25,70,188.0
8821,E-3,851.5,0.25,56,188.0
8822,E-4,851.5,2.0,105,188.0
8823,G#3,851.5,2.0,105,188.0
8824,F#1,852.0,124/125,91,188.0
8825,C#6,852.0,0.5,105,188.0
8826,C#4,852.0,333/1000,81,188.0
8827,B1,852.0,0.25,70,188.0
8828,E-3,852.0,0.25,76,188.0
8829,F#3,852.483,9/20,43,188.0
8830,F#4,852.5,9/20,85,188.0
8831,E-3,852.5,0.25,56,188.0
8832,F#4,852.875,9/20,43,188.0
8833,E1,853.0,79/500,86,188.0
8834,C#5,853.0,0.5,105,188.0
8835,C#2,853.0,0.25,94,188.0
8836,E-3,853.0,0.25,76,188.0
8837,G#3,853.483,9/20,46,188.0
8838,F#1,853.5,121/500,91,188.0
8839,G#4,853.5,9/20,88,188.0
8840,E-3,853.5,0.25,56,188.0
8841,A3,853.5,2.0,105,188.0
8842,E4,853.5,2.0,105,188.0
8843,G#4,853.875,9/20,46,188.0
8844,F#2,854.0,373/250,91,188.0
8845,G#5,854.0,0.5,105,188.0
8846,B1,854.0,0.25,70,188.0
8847,E-3,854.0,0.25,76,188.0
8848,F#3,854.483,9/20,59,188.0
8849,F#4,854.5,9/20,101,188.0
8850,C#2,854.5,0.25,94,188.0
8851,E-3,854.5,0.25,56,188.0
8852,F#4,854.875,9/20,59,188.0
8853,G#4,855.0,0.5,105,188.0
8854,C#2,855.0,0.25,94,188.0
8855,E-3,855.0,0.25,76,188.0
8856,E1,855.5,79/500,86,188.0
8857,B1,855.5,0.25,70,188.0
8858,E-3,855.5,0.25,56,188.0
8859,C#4,855.5,2.0,105,188.0
8860,B-3,855.5,2.0,105,188.0
8861,F4,855.5,2.0,105,188.0
8862,G#3,855.983,17/1000,40,188.0
8863,F#1,856.0,983/1000,91,188.0
8864,C#5,856.0,0.5,105,188.0
8865,G#4,856.0,9/20,82,188.0
8866,G#3,856.0,433/1000,40,188.0
8867,B1,856.0,0.25,70,188.0
8868,E-3,856.0,0.25,76,188.0
8869,G#4,856.375,9/20,40,188.0
8870,E-3,856.5,0.25,56,188.0
8871,G#3,856.983,9/20,45,188.0
8872,E1,857.0,79/500,86,188.0
8873,F#5,857.0,0.5,105,188.0
8874,G#4,857.0,9/20,87,188.0
8875,C#2,857.0,0.25,94,188.0
8876,E-3,857.0,0.25,76,188.0
8877,G#4,857.375,9/20,45,188.0
8878,F#1,857.5,121/500,91,188.0
8879,B1,857.5,0.25,70,188.0
8880,E-3,857.5,0.25,56,188.0
8881,C#4,857.5,2.0,105,188.0
8882,A3,857.5,2.0,105,188.0
8883,E4,857.5,2.0,105,188.0
8884,F#2,858.0,373/250,91,188.0
8885,G#4,858.0,0.5,105,188.0
8886,B1,858.0,0.25,70,188.0
8887,E-3,858.0,0.25,76,188.0
8888,F#3,858.483,9/20,59,188.0
8889,C#5,858.5,0.5,105,188.0
8890,F#4,858.5,9/20,101,188.0
8891,E-3,858.5,0.25,56,188.0
8892,F#4,858.875,9/20,59,188.0
8893,C#2,859.0,0.25,94,188.0
8894,E-3,859.0,0.25,76,188.0
8895,G#3,859.483,9/20,46,188.0
8896,E1,859.5,79/500,86,188.0
8897,F#4,859.5,0.5,105,188.0
8898,G#4,859.5,9/20,88,188.0
8899,B1,859.5,0.25,70,188.0
8900,E-3,859.5,0.25,56,188.0
8901,G#3,859.5,2.0,105,188.0
8902,E-4,859.5,2.0,105,188.0
8903,G#4,859.875,0.125,46,188.0
8904,F#1,860.0,124/125,91,188.0
8905,G#4,860.0,13/40,46,188.0
8906,B1,860.0,0.25,70,188.0
8907,E-3,860.0,0.25,76,188.0
8908,G#3,860.483,9/20,52,188.0
8909,G#4,860.5,9/20,94,188.0
8910,E-3,860.5,0.25,56,188.0
8911,G#4,860.875,9/20,52,188.0
8912,E1,861.0,79/500,86,188.0
8913,C#4,861.0,0.5,105,188.0
8914,C#2,861.0,0.25,94,188.0
8915,E-3,861.0,0.25,76,188.0
8916,F#1,861.5,121/500,91,188.0
8917,B1,861.5,0.25,70,188.0
8918,E-3,861.5,0.25,56,188.0
8919,F#3,861.983,9/20,63,188.0
8920,F#2,862.0,124/125,91,188.0
8921,F#4,862.0,9/20,105,188.0
8922,B1,862.0,0.25,70,188.0
8923,E-3,862.0,0.25,76,188.0
8924,B-3,862.0,1.5,105,188.0
8925,B-4,862.0,1.5,105,188.0
8926,E-4,862.0,1.5,105,188.0
8927,F#4,862.0,1.5,105,188.0
8928,F#4,862.375,9/20,63,188.0
8929,C#2,862.5,0.25,94,188.0
8930,E-3,862.5,0.25,56,188.0
8931,G#3,862.983,9/20,47,188.0
8932,E1,863.0,79/500,86,188.0
8933,G#4,863.0,9/20,89,188.0
8934,E-3,863.0,0.25,76,188.0
8935,G#4,863.375,9/20,47,188.0
8936,F#1,863.5,121/500,91,188.0
8937,B1,863.5,0.25,70,188.0
8938,E-3,863.5,0.25,56,188.0
8939,B-3,863.5,4.0,105,188.0
8940,G#4,863.5,4.0,105,188.0
8941,C#4,863.5,4.0,105,188.0
8942,F4,863.5,4.0,105,188.0
8943,F#3,863.983,17/1000,48,188.0
8944,F#1,864.0,124/125,91,188.0
8945,F#4,864.0,9/20,90,188.0
8946,F#3,864.0,433/1000,48,188.0
8947,B1,864.0,0.25,70,188.0
8948,E-3,864.0,0.25,76,188.0
8949,E-6,864.0,0.5,105,188.0
8950,G#6,864.0,0.5,105,188.0
8951,G#5,864.0,0.5,105,188.0
8952,F#4,864.375,9/20,48,188.0
8953,E-3,864.5,0.25,56,188.0
8954,C#4,864.983,9/20,60,188.0
8955,E1,865.0,79/500,86,188.0
8956,C#5,865.0,9/20,102,188.0
8957,E-3,865.0,0.25,76,188.0
8958,C#6,865.0,0.5,105,188.0
8959,F#6,865.0,0.5,105,188.0
8960,F#5,865.0,0.5,105,188.0
8961,C#5,865.375,9/20,60,188.0
8962,F#1,865.5,121/500,91,188.0
8963,E2,865.5,0.25,86,188.0
8964,E-3,865.5,0.25,56,188.0
8965,A3,865.5,2.0,105,188.0
8966,E4,865.5,2.0,105,188.0
8967,F#2,866.0,124/125,91,188.0
8968,B1,866.0,0.25,70,188.0
8969,E-3,866.0,0.25,76,188.0
8970,F#3,866.483,9/20,48,188.0
8971,F#4,866.5,9/20,90,188.0
8972,E2,866.5,0.25,86,188.0
8973,E-3,866.5,0.25,56,188.0
8974,F#4,866.875,9/20,48,188.0
8975,E1,867.0,79/500,86,188.0
8976,E-3,867.0,0.25,76,188.0
8977,E-6,867.0,0.5,105,188.0
8978,G#5,867.0,0.5,105,188.0
8979,G#6,867.0,0.5,105,188.0
8980,C#4,867.483,9/20,51,188.0
8981,F#1,867.5,0.5,91,188.0
8982,C#5,867.5,9/20,93,188.0
8983,B1,867.5,0.25,70,188.0
8984,E2,867.5,0.25,86,188.0
8985,E-3,867.5,0.25,56,188.0
8986,E-4,867.5,2.0,105,188.0
8987,G#3,867.5,2.0,105,188.0
8988,C#5,867.875,0.125,51,188.0
8989,F#1,868.0,124/125,91,188.0
8990,C#5,868.0,13/40,51,188.0
8991,B1,868.0,0.25,70,188.0
8992,E-3,868.0,0.25,76,188.0
8993,E-6,868.0,0.5,105,188.0
8994,G#5,868.0,0.5,105,188.0
8995,G#6,868.0,0.5,105,188.0
8996,F#3,868.483,9/20,53,188.0
8997,F#4,868.5,9/20,95,188.0
8998,E-3,868.5,0.25,56,188.0
8999,F#4,868.875,9/20,53,188.0
9000,E1,869.0,79/500,86,188.0
9001,E2,869.0,0.25,86,188.0
9002,B-2,869.0,0.25,72,188.0
9003,C#6,869.0,0.5,105,188.0
9004,F#5,869.0,0.5,105,188.0
9005,F#6,869.0,0.5,105,188.0
9006,F#1,869.5,121/500,91,188.0
9007,B1,869.5,0.25,70,188.0
9008,E-3,869.5,0.25,56,188.0
9009,E-6,869.5,0.5,105,188.0
9010,G#5,869.5,0.5,105,188.0
9011,G#6,869.5,0.5,105,188.0
9012,A3,869.5,2.0,105,188.0
9013,E4,869.5,2.0,105,188.0
9014,F#2,870.0,373/250,91,188.0
9015,B1,870.0,0.25,70,188.0
9016,E-3,870.0,0.25,76,188.0
9017,F#3,870.483,9/20,40,188.0
9018,F#4,870.5,9/20,82,188.0
9019,F#3,870.5,0.5,81,188.0
9020,C3,870.5,0.25,84,188.0
9021,E-3,870.5,0.25,56,188.0
9022,C#6,870.5,0.5,105,188.0
9023,F#5,870.5,0.5,105,188.0
9024,F#6,870.5,0.5,105,188.0
9025,F#4,870.875,9/20,40,188.0
9026,C#4,870.983,9/20,43,188.0
9027,C#5,871.0,9/20,85,188.0
9028,C#4,871.0,0.5,81,188.0
9029,C3,871.0,0.25,84,188.0
9030,E-3,871.0,0.25,76,188.0
9031,C#5,871.375,9/20,43,188.0
9032,B3,871.483,9/20,46,188.0
9033,E1,871.5,79/500,86,188.0
9034,B4,871.5,9/20,88,188.0
9035,B3,871.5,0.5,81,188.0
9036,B1,871.5,0.25,70,188.0
9037,E-3,871.5,0.25,56,188.0
9038,F#6,871.5,0.5,105,188.0
9039,C#6,871.5,0.5,105,188.0
9040,C#7,871.5,0.5,105,188.0
9041,C#4,871.5,2.0,105,188.0
9042,B-3,871.5,2.0,105,188.0
9043,F4,871.5,2.0,105,188.0
9044,B4,871.875,0.125,46,188.0
9045,B-3,871.983,17/1000,54,188.0
9046,G3,871.992,1/125,72,188.0
9047,E-2,872.0,124/125,91,188.0
9048,B-4,872.0,9/20,96,188.0
9049,B4,872.0,13/40,46,188.0
9050,B-3,872.0,0.5,81,188.0
9051,B-3,872.0,433/1000,54,188.0
9052,B1,872.0,0.25,70,188.0
9053,G3,872.0,121/500,72,188.0
9054,B-4,872.375,9/20,54,188.0
9055,E-3,872.5,0.25,56,188.0
9056,C#6,872.5,0.5,105,188.0
9057,F#5,872.5,0.5,105,188.0
9058,F#6,872.5,0.5,105,188.0
9059,B-3,872.983,9/20,40,188.0
9060,E1,873.0,79/500,86,188.0
9061,B-4,873.0,9/20,82,188.0
9062,B-3,873.0,0.5,81,188.0
9063,E-3,873.0,0.25,76,188.0
9064,F#5,873.0,0.5,105,188.0
9065,C#6,873.0,0.5,105,188.0
9066,F#6,873.0,0.5,105,188.0
9067,B-4,873.375,9/20,40,188.0
9068,E-4,873.483,9/20,41,188.0
9069,E-2,873.5,121/500,91,188.0
9070,E-5,873.5,9/20,83,188.0
9071,E-4,873.5,0.5,81,188.0
9072,B1,873.5,0.25,70,188.0
9073,E-3,873.5,0.25,56,188.0
9074,C#4,873.5,2.0,105,188.0
9075,A3,873.5,2.0,105,188.0
9076,E4,873.5,2.0,105,188.0
9077,E-5,873.875,9/20,41,188.0
9078,B-3,873.983,9/20,59,188.0
9079,G#1,874.0,124/125,91,188.0
9080,B-4,874.0,9/20,101,188.0
9081,B-3,874.0,0.5,81,188.0
9082,B1,874.0,0.25,70,188.0
9083,E2,874.0,0.25,86,188.0
9084,E-3,874.0,0.25,76,188.0
9085,C#6,874.0,0.5,105,188.0
9086,F#6,874.0,0.5,105,188.0
9087,C#7,874.0,0.5,105,188.0
9088,B-4,874.375,9/20,59,188.0
9089,G#3,874.483,9/20,63,188.0
9090,G#4,874.5,9/20,105,188.0
9091,G#3,874.5,0.5,81,188.0
9092,E-3,874.5,0.25,56,188.0
9093,G#4,874.875,9/20,63,188.0
9094,F#3,874.983,9/20,40,188.0
9095,E1,875.0,79/500,86,188.0
9096,F#4,875.0,9/20,82,188.0
9097,F#3,875.0,0.5,81,188.0
9098,E-3,875.0,0.25,76,188.0
9099,F#5,875.0,0.5,105,188.0
9100,C#6,875.0,0.5,105,188.0
9101,F#6,875.0,0.5,105,188.0
9102,F#4,875.375,9/20,40,188.0
9103,B3,875.483,9/20,44,188.0
9104,G#1,875.5,121/500,91,188.0
9105,B4,875.5,9/20,86,188.0
9106,B3,875.5,0.5,81,188.0
9107,B1,875.5,0.25,70,188.0
9108,E-3,875.5,0.25,56,188.0
9109,G#3,875.5,2.0,105,188.0
9110,E-4,875.5,2.0,105,188.0
9111,B4,875.875,0.125,44,188.0
9112,B-3,875.983,17/1000,52,188.0
9113,G#1,876.0,124/125,91,188.0
9114,B-4,876.0,9/20,94,188.0
9115,B4,876.0,13/40,44,188.0
9116,B-3,876.0,0.5,81,188.0
9117,B-3,876.0,433/1000,52,188.0
9118,B1,876.0,0.25,70,188.0
9119,E-3,876.0,0.25,76,188.0
9120,C#6,876.0,0.5,105,188.0
9121,F#6,876.0,0.5,105,188.0
9122,C#7,876.0,0.5,105,188.0
9123,B-4,876.375,9/20,52,188.0
9124,G#3,876.483,49/20,40,188.0
9125,G#4,876.5,49/20,82,188.0
9126,G#3,876.5,2.5,81,188.0
9127,E-3,876.5,0.25,56,188.0
9128,G#4,876.875,49/20,40,188.0
9129,E1,877.0,79/500,86,188.0
9130,E-3,877.0,0.25,76,188.0
9131,F#5,877.0,0.5,105,188.0
9132,C#6,877.0,0.5,105,188.0
9133,F#6,877.0,0.5,105,188.0
9134,G#1,877.5,121/500,91,188.0
9135,B1,877.5,0.25,70,188.0
9136,E-3,877.5,0.25,56,188.0
9137,F#5,877.5,0.5,105,188.0
9138,C#6,877.5,0.5,105,188.0
9139,F#6,877.5,0.5,105,188.0
9140,C#2,878.0,124/125,91,188.0
9141,B1,878.0,0.25,70,188.0
9142,E2,878.0,0.25,86,188.0
9143,E-3,878.0,0.25,76,188.0
9144,B-3,878.0,1.5,105,188.0
9145,B-4,878.0,1.5,105,188.0
9146,E-4,878.0,1.5,105,188.0
9147,F#4,878.0,1.5,105,188.0
9148,E-3,878.5,0.25,56,188.0
9149,C#6,878.5,0.5,105,188.0
9150,F#6,878.5,0.5,105,188.0
9151,C#7,878.5,0.5,105,188.0
9152,E1,879.0,79/500,86,188.0
9153,E-3,879.0,0.25,76,188.0
9154,C#4,879.483,9/20,47,188.0
9155,G3,879.492,0.25,92,188.0
9156,B-1,879.5,0.5,91,188.0
9157,C#5,879.5,9/20,89,188.0
9158,C#4,879.5,0.5,81,188.0
9159,B1,879.5,0.25,70,188.0
9160,E-4,879.5,2.0,105,188.0
9161,B-3,879.5,2.0,105,188.0
9162,F#4,879.5,2.0,105,188.0
9163,C#4,879.5,2.0,105,188.0
9164,C#5,879.875,0.125,47,188.0
9165,B-1,880.0,124/125,91,188.0
9166,C#5,880.0,13/40,47,188.0
9167,B1,880.0,0.25,70,188.0
9168,E-3,880.0,0.25,76,188.0
9169,B3,880.483,9/20,51,188.0
9170,B4,880.5,9/20,93,188.0
9171,B3,880.5,0.5,81,188.0
9172,E-3,880.5,0.25,56,188.0
9173,B4,880.875,9/20,51,188.0
9174,B-3,880.983,49/20,45,188.0
9175,E1,881.0,79/500,86,188.0
9176,B-4,881.0,49/20,87,188.0
9177,B-3,881.0,1.5,81,188.0
9178,E-3,881.0,0.25,76,188.0
9179,B-4,881.375,49/20,45,188.0
9180,E-2,881.5,121/500,91,188.0
9181,B1,881.5,0.25,70,188.0
9182,E-3,881.5,0.25,56,188.0
9183,E-4,881.5,2.0,105,188.0
9184,G#3,881.5,2.0,105,188.0
9185,F#4,881.5,2.0,105,188.0
9186,C4,881.5,2.0,105,188.0
9187,E-2,882.0,124/125,91,188.0
9188,B1,882.0,0.25,70,188.0
9189,E2,882.0,0.25,86,188.0
9190,E-3,882.0,0.25,76,188.0
9191,E-3,882.5,0.25,56,188.0
9192,E1,883.0,79/500,86,188.0
9193,E-3,883.0,0.25,76,188.0
9194,D4,883.483,9/20,46,188.0
9195,G3,883.492,0.25,92,188.0
9196,B1,883.5,0.5,91,188.0
9197,D5,883.5,9/20,88,188.0
9198,D4,883.5,0.5,81,188.0
9199,B1,883.5,0.25,70,188.0
9200,D5,883.875,0.125,46,188.0
9201,C#4,883.983,17/1000,57,188.0
9202,B1,884.0,124/125,91,188.0
9203,C#5,884.0,9/20,99,188.0
9204,D5,884.0,13/40,46,188.0
9205,C#4,884.0,0.5,81,188.0
9206,C#4,884.0,433/1000,57,188.0
9207,B1,884.0,0.25,70,188.0
9208,E-3,884.0,0.25,76,188.0
9209,C4,884.0,0.5,105,188.0
9210,G#4,884.0,0.5,105,188.0
9211,E-4,884.0,0.5,105,188.0
9212,C#5,884.375,9/20,57,188.0
9213,B3,884.483,69/20,48,188.0
9214,B4,884.5,69/20,90,188.0
9215,B3,884.5,1.5,81,188.0
9216,E2,884.5,0.25,86,188.0
9217,E-3,884.5,0.25,56,188.0
9218,B4,884.875,3.125,48,188.0
9219,E1,885.0,79/500,86,188.0
9220,E-3,885.0,0.25,76,188.0
9221,D4,885.0,2.0,105,188.0
9222,B3,885.0,2.0,105,188.0
9223,G#4,885.0,2.0,105,188.0
9224,E2,885.5,121/500,91,188.0
9225,B1,885.5,0.25,70,188.0
9226,E-3,885.5,0.25,56,188.0
9227,E2,886.0,124/125,91,188.0
9228,B1,886.0,0.25,70,188.0
9229,E2,886.0,0.25,86,188.0
9230,E-3,886.0,0.25,76,188.0
9231,E2,886.5,0.25,86,188.0
9232,E-3,886.5,0.25,56,188.0
9233,E1,887.0,79/500,86,188.0
9234,E-3,887.0,0.25,76,188.0
9235,D4,887.0,0.5,105,188.0
9236,C#5,887.0,0.5,105,188.0
9237,F4,887.0,0.5,105,188.0
9238,G4,887.0,0.5,105,188.0
9239,B1,887.5,0.25,70,188.0
9240,E-3,887.5,0.25,56,188.0
9241,D4,887.5,4.0,105,188.0
9242,C#5,887.5,4.0,105,188.0
9243,F4,887.5,4.0,105,188.0
9244,G4,887.5,4.0,105,188.0
9245,B-3,887.983,17/1000,56,188.0
9246,G3,887.992,1/125,72,188.0
9247,E-2,888.0,124/125,91,188.0
9248,B-4,888.0,9/20,98,188.0
9249,B4,888.0,13/40,48,188.0
9250,B-3,888.0,0.5,81,188.0
9251,B-3,888.0,433/1000,56,188.0
9252,B1,888.0,0.25,70,188.0
9253,G3,888.0,121/500,72,188.0
9254,B-4,888.375,9/20,56,188.0
9255,E-3,888.5,0.25,56,188.0
9256,B-3,888.983,9/20,40,188.0
9257,E1,889.0,79/500,86,188.0
9258,B-4,889.0,9/20,82,188.0
9259,B-3,889.0,0.5,81,188.0
9260,E-3,889.0,0.25,76,188.0
9261,B-4,889.375,9/20,40,188.0
9262,E-4,889.483,9/20,57,188.0
9263,E-2,889.5,121/500,91,188.0
9264,E-5,889.5,9/20,99,188.0
9265,E-4,889.5,0.5,81,188.0
9266,B1,889.5,0.25,70,188.0
9267,E2,889.5,0.25,86,188.0
9268,E-3,889.5,0.25,56,188.0
9269,E-5,889.875,9/20,57,188.0
9270,B-3,889.983,9/20,54,188.0
9271,G#1,890.0,124/125,91,188.0
9272,B-4,890.0,9/20,96,188.0
9273,B-3,890.0,0.5,81,188.0
9274,B1,890.0,0.25,70,188.0
9275,E-3,890.0,0.25,76,188.0
9276,B-4,890.375,9/20,54,188.0
9277,G#3,890.483,9/20,50,188.0
9278,G#4,890.5,9/20,92,188.0
9279,G#3,890.5,0.5,81,188.0
9280,E-3,890.5,0.25,56,188.0
9281,G#4,890.875,9/20,50,188.0
9282,F#3,890.983,9/20,48,188.0
9283,E1,891.0,79/500,86,188.0
9284,F#4,891.0,9/20,90,188.0
9285,F#3,891.0,0.5,81,188.0
9286,E-3,891.0,0.25,76,188.0
9287,D4,891.0,0.5,105,188.0
9288,B-4,891.0,0.5,105,188.0
9289,B3,891.0,0.5,105,188.0
9290,F#4,891.0,0.5,105,188.0
9291,F#4,891.375,9/20,48,188.0
9292,B3,891.483,9/20,46,188.0
9293,G#1,891.5,121/500,91,188.0
9294,B4,891.5,9/20,88,188.0
9295,B3,891.5,0.5,81,188.0
9296,B1,891.5,0.25,70,188.0
9297,E-3,891.5,0.25,56,188.0
9298,B4,891.875,0.125,46,188.0
9299,B-3,891.983,17/1000,43,188.0
9300,G#1,892.0,124/125,91,188.0
9301,B-4,892.0,9/20,85,188.0
9302,B4,892.0,13/40,46,188.0
9303,B-3,892.0,0.5,81,188.0
9304,B-3,892.0,433/1000,43,188.0
9305,B1,892.0,0.25,70,188.0
9306,E-3,892.0,0.25,76,188.0
9307,B-4,892.375,9/20,43,188.0
9308,G#3,892.483,49/20,42,188.0
9309,G#4,892.5,49/20,84,188.0
9310,G#3,892.5,2.5,81,188.0
9311,E-3,892.5,0.25,56,188.0
9312,G#4,892.875,49/20,42,188.0
9313,E1,893.0,79/500,86,188.0
9314,E-3,893.0,0.25,76,188.0
9315,G#1,893.5,121/500,91,188.0
9316,B1,893.5,0.25,70,188.0
9317,E2,893.5,0.25,86,188.0
9318,E-3,893.5,0.25,56,188.0
9319,C#2,894.0,124/125,91,188.0
9320,B1,894.0,0.25,70,188.0
9321,E2,894.0,0.25,86,188.0
9322,E-3,894.0,0.25,76,188.0
9323,E-3,894.5,0.25,56,188.0
9324,C#4,894.983,9/20,42,188.0
9325,E1,895.0,79/500,86,188.0
9326,C#5,895.0,9/20,84,188.0
9327,C#4,895.0,0.5,81,188.0
9328,E-3,895.0,0.25,76,188.0
9329,C#5,895.375,9/20,42,188.0
9330,F#4,895.483,517/1000,43,188.0
9331,A3,895.492,0.25,92,188.0
9332,G1,895.5,0.5,91,188.0
9333,F#5,895.5,0.5,85,188.0
9334,F#4,895.5,0.5,81,188.0
9335,B1,895.5,0.25,70,188.0
9336,E-3,895.5,0.25,56,188.0
9337,D4,895.5,4.0,105,188.0
9338,B-4,895.5,4.0,105,188.0
9339,B3,895.5,4.0,105,188.0
9340,F#4,895.5,4.0,105,188.0
9341,F#5,895.875,0.125,43,188.0
9342,G1,896.0,4.0,91,188.0
9343,F#5,896.0,4.0,85,188.0
9344,F#5,896.0,4.0,43,188.0
9345,F#4,896.0,4.0,81,188.0
9346,F#4,896.0,4.0,43,188.0
9347,G3,897.492,0.25,62,188.0
9348,G3,897.742,1/125,72,188.0
9349,G3,897.992,0.25,92,188.0
9350,E-4,899.5,2.0,105,188.0
9351,B-3,899.5,2.0,105,188.0
9352,F#4,899.5,2.0,105,188.0
9353,C#4,899.5,2.0,105,188.0
9354,G1,900.0,4.0,91,188.0
9355,F#5,900.0,4.0,85,188.0
9356,F#5,900.0,4.0,43,188.0
9357,F#4,900.0,4.0,81,188.0
9358,F#4,900.0,4.0,43,188.0
9359,E-4,901.5,2.0,105,188.0
9360,G#3,901.5,2.0,105,188.0
9361,F#4,901.5,2.0,105,188.0
9362,C4,901.5,2.0,105,188.0
9363,G1,904.0,3.5,91,188.0
9364,F#5,904.0,3383/1000,85,188.0
9365,F#5,904.0,1879/500,43,188.0
9366,F#4,904.0,3433/1000,81,188.0
9367,F#4,904.0,3367/1000,43,188.0
9368,C4,904.0,0.5,105,188.0
9369,G#4,904.0,0.5,105,188.0
9370,E-4,904.0,0.5,105,188.0
9371,D4,905.0,2.0,105,188.0
9372,B3,905.0,2.0,105,188.0
9373,G#4,905.0,2.0,105,188.0
9374,E4,907.0,0.5,105,188.0
9375,G3,907.0,0.5,105,188.0
9376,C#4,907.0,0.5,105,188.0
9377,F#4,907.0,0.5,105,188.0
9378,B4,907.0,0.5,105,188.0
9379,E4,907.5,4.0,105,188.0
9380,G3,907.5,4.0,105,188.0
9381,C#4,907.5,4.0,105,188.0
9382,F#4,907.5,4.0,105,188.0
9383,B4,907.5,4.0,105,188.0
9384,E4,915.5,4.0,105,188.0
9385,G3,915.5,4.0,105,188.0
9386,C#4,915.5,4.0,105,188.0
9387,F#4,915.5,4.0,105,188.0
9388,B4,915.5,4.0,105,188.0
