,note_name,start_time,duration,velocity,tempo
0,E3,0.0,0.75,78,91.45
1,B3,0.0,0.75,78,91.45
2,E4,0.0,0.75,78,91.45
3,G#4,0.0,0.75,78,91.45
4,G#3,0.25,0.25,65,91.45
5,B3,0.5,0.25,65,91.45
6,E4,0.75,0.5,70,91.45
7,B4,0.75,0.75,100,91.45
8,G#3,1.0,0.25,65,91.45
9,B3,1.25,0.25,65,91.45
10,E4,1.5,0.5,82,91.45
11,E5,1.5,0.5,82,91.45
12,F#4,1.75,0.25,65,91.45
13,D4,2.0,0.5,80,91.45
14,B2,2.0,2.0,65,91.45
15,D5,2.0,0.75,100,91.45
16,D4,2.25,0.5,65,91.45
17,F#4,2.5,0.5,65,91.45
18,B4,2.75,0.75,100,91.45
19,B3,3.0,0.25,65,91.45
20,D4,3.25,0.25,65,91.45
21,F#4,3.5,0.5,110,91.45
22,G#4,4.0,0.75,78,91.45
23,E3,4.0,0.75,78,91.45
24,B3,4.0,0.75,78,91.45
25,E4,4.0,0.75,78,91.45
26,G#3,4.25,0.25,65,91.45
27,B3,4.5,0.25,65,91.45
28,B4,4.75,0.75,100,91.45
29,E4,4.75,0.5,70,91.45
30,G#3,5.0,0.25,65,91.45
31,B3,5.25,0.25,65,91.45
32,E5,5.5,0.5,85,91.45
33,E4,5.5,0.5,85,91.45
34,F#4,5.75,0.25,65,91.45
35,G5,6.0,0.75,100,91.45
36,C4,6.0,0.25,80,91.45
37,E3,6.0,2.0,65,91.45
38,G3,6.0,2.0,65,91.45
39,E4,6.25,0.25,65,91.45
40,G4,6.5,0.25,65,91.45
41,F#5,6.75,0.75,100,91.45
42,C4,6.75,0.25,70,91.45
43,E4,7.0,0.25,65,91.45
44,G4,7.25,0.5,65,91.45
45,E5,7.5,0.5,100,91.45
46,D3,8.0,1.0,65,91.45
47,G3,8.0,0.75,82,91.45
48,D5,8.0,0.75,82,91.45
49,B3,8.25,0.25,65,91.45
50,D4,8.5,0.25,65,91.45
51,B4,8.75,0.75,100,91.45
52,B3,8.75,0.25,65,91.45
53,G4,8.75,0.25,65,91.45
54,D4,9.0,0.25,70,91.45
55,G4,9.25,0.5,65,91.45
56,D3,9.5,0.5,65,91.45
57,B3,9.5,0.5,65,91.45
58,D4,9.5,0.5,65,91.45
59,G4,9.75,0.25,65,91.45
60,B-3,10.0,1.0,65,91.45
61,F3,10.0,0.75,82,91.45
62,D5,10.0,0.75,82,91.45
63,F3,10.25,0.75,65,91.45
64,D4,10.5,0.25,65,91.45
65,E4,10.75,0.25,65,91.45
66,E5,10.75,0.75,100,91.45
67,B-3,11.0,1.0,65,91.45
68,D4,11.25,0.25,65,91.45
69,E4,11.5,0.25,65,91.45
70,F5,11.5,0.5,100,91.45
71,F4,11.75,0.25,65,91.45
72,A3,12.0,1.5,65,91.45
73,F4,12.0,0.75,100,91.45
74,C5,12.0,0.75,100,91.45
75,C4,12.25,0.25,65,91.45
76,F4,12.5,0.25,65,91.45
77,A4,12.75,0.75,100,91.45
78,C4,13.25,0.25,65,91.45
79,C4,13.5,0.5,77,91.45
80,C3,13.5,0.5,77,91.45
81,F4,13.5,0.5,77,91.45
82,E4,13.5,0.5,77,91.45
83,G4,13.5,0.5,77,91.45
84,D4,14.0,1.0,81,91.45
85,D3,14.0,1.0,81,91.45
86,E4,14.0,1.0,81,91.45
87,F#4,14.0,1.0,81,91.45
88,A4,14.0,1.0,81,91.45
89,D4,15.0,1.0,100,91.45
90,A3,15.25,0.25,65,91.45
91,D2,15.5,0.5,80,91.45
92,E3,15.75,0.25,65,91.45
93,E1,16.0,2.0,120,91.45
94,E3,16.0,0.75,82,91.45
95,B3,16.0,0.75,82,91.45
96,E4,16.0,0.75,82,91.45
97,G#4,16.0,0.75,82,91.45
98,G#3,16.25,0.25,65,91.45
99,B3,16.5,0.25,65,91.45
100,E4,16.75,0.5,70,91.45
101,B4,16.75,0.75,100,91.45
102,G#3,17.0,0.25,65,91.45
103,B3,17.25,0.25,65,91.45
104,E4,17.5,0.5,82,91.45
105,E5,17.5,0.5,82,91.45
106,F#4,17.75,0.25,65,91.45
107,D4,18.0,0.5,100,91.45
108,D5,18.0,0.75,100,91.45
109,B1,18.0,2.0,72,91.45
110,B2,18.0,2.0,72,91.45
111,D4,18.25,0.5,65,91.45
112,F#4,18.5,0.5,65,91.45
113,B4,18.75,0.75,100,91.45
114,B3,19.0,0.25,65,91.45
115,D4,19.25,0.25,65,91.45
116,F#4,19.5,0.5,110,91.45
117,D4,19.75,0.25,55,91.45
118,E1,20.0,2.0,80,91.45
119,G#4,20.0,0.75,82,91.45
120,E3,20.0,0.75,82,91.45
121,B3,20.0,0.75,82,91.45
122,E4,20.0,0.75,82,91.45
123,G#3,20.25,0.25,65,91.45
124,B3,20.5,0.25,65,91.45
125,B4,20.75,0.75,100,91.45
126,E4,20.75,0.5,70,91.45
127,G#3,21.0,0.25,65,91.45
128,B3,21.25,0.25,65,91.45
129,E5,21.5,0.5,85,91.45
130,E4,21.5,0.5,85,91.45
131,F#4,21.75,0.25,65,91.45
132,G5,22.0,0.75,100,91.45
133,C4,22.0,0.25,70,91.45
134,C2,22.0,2.0,70,91.45
135,E3,22.0,2.0,70,91.45
136,G3,22.0,2.0,70,91.45
137,E4,22.25,0.25,65,91.45
138,G4,22.5,0.25,65,91.45
139,F#5,22.75,0.75,100,91.45
140,C4,22.75,0.25,65,91.45
141,E4,23.0,0.25,65,91.45
142,G4,23.25,0.5,65,91.45
143,E5,23.5,0.5,100,91.45
144,E4,23.75,0.25,65,91.45
145,D3,24.0,1.0,65,91.45
146,G1,24.0,2.0,80,91.45
147,G3,24.0,0.75,82,91.45
148,D5,24.0,0.75,82,91.45
149,B3,24.25,0.25,65,91.45
150,D4,24.5,0.25,65,91.45
151,B4,24.75,0.75,100,91.45
152,B3,24.75,0.25,68,91.45
153,G4,24.75,0.25,68,91.45
154,D4,25.0,0.25,65,91.45
155,G4,25.25,0.5,65,91.45
156,D3,25.5,0.5,67,91.45
157,B3,25.5,0.5,67,91.45
158,D4,25.5,0.5,67,91.45
159,B-3,26.0,1.0,65,91.45
160,B-1,26.0,2.0,80,91.45
161,F3,26.0,0.75,82,91.45
162,D5,26.0,0.75,82,91.45
163,F3,26.25,0.75,65,91.45
164,D4,26.5,0.25,65,91.45
165,E4,26.75,0.25,65,91.45
166,E5,26.75,0.75,100,91.45
167,B-3,27.0,1.0,65,91.45
168,D4,27.25,0.25,65,91.45
169,E4,27.5,0.25,65,91.45
170,F5,27.5,0.5,100,91.45
171,F4,27.75,0.25,65,91.45
172,A3,28.0,2.0,72,91.45
173,A1,28.0,2.0,72,91.45
174,F4,28.0,0.75,100,91.45
175,C5,28.0,0.75,100,91.45
176,C4,28.25,0.25,65,91.45
177,F4,28.5,0.25,65,91.45
178,A4,28.75,0.75,100,91.45
179,C4,29.25,0.25,65,91.45
180,C3,29.5,0.5,86,91.45
181,F4,29.5,0.5,86,91.45
182,E4,29.5,0.5,86,91.45
183,G4,29.5,0.5,86,91.45
184,D2,30.0,4.0,80,91.45
185,A3,30.0,4.0,80,91.45
186,D4,30.0,4.0,80,91.45
187,D3,30.0,4.0,80,91.45
188,D3,30.0,0.75,100,91.45
189,F#3,30.0,0.75,100,91.45
190,D4,30.0,0.75,100,91.45
191,F#4,30.0,0.75,100,91.45
192,F#5,30.0,4.0,55,91.45
193,A4,30.0,4.0,55,91.45
194,D5,30.0,4.0,55,91.45
195,B1,30.0,2.0,90,91.45
196,C#3,30.0,2.0,90,91.45
197,G#2,30.5,0.5,90,91.45
198,E2,30.75,0.5,90,91.45
199,F#3,30.75,0.75,100,91.45
200,A3,30.75,0.75,100,91.45
201,F#4,30.75,0.75,100,91.45
202,A4,30.75,0.75,100,91.45
203,G#2,31.0,0.5,90,91.45
204,A3,31.5,2.5,100,91.45
205,D4,31.5,2.5,100,91.45
206,A4,31.5,2.5,100,91.45
207,D5,31.5,2.5,100,91.45
208,A2,31.5,0.5,90,91.45
209,G#2,31.5,0.5,90,91.45
210,G#2,32.0,0.5,90,91.45
211,G#2,32.5,0.5,90,91.45
212,G#2,33.0,0.5,90,91.45
213,G#2,33.5,0.5,90,91.45
214,A1,34.0,4.0,80,91.45
215,A3,34.0,4.0,80,91.45
216,E3,34.0,4.0,80,91.45
217,A2,34.0,4.0,80,91.45
218,E3,34.0,0.75,100,91.45
219,C4,34.0,0.75,100,91.45
220,E4,34.0,0.75,100,91.45
221,A3,34.0,0.75,100,91.45
222,E5,34.0,4.0,55,91.45
223,G4,34.0,4.0,55,91.45
224,C5,34.0,4.0,55,91.45
225,B1,34.0,0.5,90,91.45
226,C#3,34.0,0.5,90,91.45
227,G#2,34.5,0.5,90,91.45
228,E2,34.708,0.25,90,91.45
229,E2,34.708,0.25,90,91.45
230,A3,34.75,0.75,100,91.45
231,E4,34.75,0.75,100,91.45
232,A4,34.75,0.75,100,91.45
233,C4,34.75,0.75,100,91.45
234,G#2,35.0,0.5,90,91.45
235,B2,35.458,0.25,90,91.45
236,E4,35.5,2.0,100,91.45
237,A4,35.5,2.0,100,91.45
238,C5,35.5,2.5,100,91.45
239,C4,35.5,2.5,100,91.45
240,A2,35.5,0.5,90,91.45
241,G#2,35.5,0.5,90,91.45
242,A2,35.967,0.25,90,91.45
243,G#2,36.0,0.5,90,91.45
244,G2,36.0,0.5,90,91.45
245,G#2,36.5,0.5,90,91.45
246,G#2,37.0,0.5,90,91.45
247,G#2,37.5,0.5,90,91.45
248,D2,38.0,2.0,80,91.45
249,A2,38.0,2.0,80,91.45
250,D4,38.0,2.0,80,91.45
251,A3,38.0,2.0,80,91.45
252,D3,38.0,2.0,80,91.45
253,F#5,38.0,0.75,100,91.45
254,D4,38.0,0.75,100,91.45
255,F#4,38.0,0.75,100,91.45
256,A4,38.0,2.0,55,91.45
257,D5,38.0,2.0,55,91.45
258,F#5,38.0,2.0,55,91.45
259,B1,38.0,0.5,90,91.45
260,C#3,38.0,0.5,90,91.45
261,G#2,38.5,0.5,90,91.45
262,E2,38.75,0.5,90,91.45
263,G5,38.75,0.75,100,91.45
264,D4,38.75,0.75,100,91.45
265,G4,38.75,0.75,100,91.45
266,G#2,39.0,0.5,90,91.45
267,A5,39.5,0.5,100,91.45
268,D4,39.5,0.5,100,91.45
269,A4,39.5,0.5,100,91.45
270,A2,39.5,0.5,90,91.45
271,G#2,39.5,0.5,90,91.45
272,G1,40.0,2.0,80,91.45
273,G4,40.0,2.0,80,91.45
274,D4,40.0,2.0,80,91.45
275,G2,40.0,2.0,80,91.45
276,G3,40.0,2.0,80,91.45
277,D3,40.0,2.0,80,91.45
278,B-5,40.0,0.75,100,91.45
279,G4,40.0,0.75,100,91.45
280,B-4,40.0,0.75,100,91.45
281,G4,40.0,2.0,55,91.45
282,A4,40.0,2.0,55,91.45
283,D5,40.0,2.0,55,91.45
284,B1,40.0,0.5,90,91.45
285,A3,40.0,0.5,90,91.45
286,G#2,40.0,0.5,90,91.45
287,G#2,40.5,0.5,90,91.45
288,E2,40.75,0.25,90,91.45
289,C6,40.75,0.75,100,91.45
290,G4,40.75,0.75,100,91.45
291,C5,40.75,0.75,100,91.45
292,E2,40.875,0.25,90,91.45
293,E2,41.0,0.25,90,91.45
294,G#2,41.0,0.5,90,91.45
295,B2,41.25,0.25,90,91.45
296,A2,41.5,0.25,90,91.45
297,G#2,41.5,0.5,90,91.45
298,D6,41.5,0.5,100,91.45
299,G4,41.5,0.5,100,91.45
300,D5,41.5,0.5,100,91.45
301,C2,42.0,4.0,80,91.45
302,C#3,42.0,0.25,90,91.45
303,G4,42.0,4.0,80,91.45
304,D4,42.0,4.0,80,91.45
305,C4,42.0,4.0,80,91.45
306,G3,42.0,4.0,80,91.45
307,G2,42.0,4.0,80,91.45
308,C3,42.0,4.0,80,91.45
309,G5,42.0,0.75,100,91.45
310,E4,42.0,0.75,100,91.45
311,G4,42.0,0.75,100,91.45
312,G4,42.0,4.0,55,91.45
313,C5,42.0,4.0,55,91.45
314,E5,42.0,4.0,55,91.45
315,G#2,42.0,0.5,90,91.45
316,B1,42.0,0.5,90,91.45
317,G#2,42.5,0.5,90,91.45
318,F5,42.75,0.75,100,91.45
319,C4,42.75,0.75,100,91.45
320,F4,42.75,0.75,100,91.45
321,G#2,43.0,0.5,90,91.45
322,G#2,43.5,0.5,90,91.45
323,E5,43.5,0.5,100,91.45
324,C4,43.5,0.5,100,91.45
325,E4,43.5,0.5,100,91.45
326,G#2,44.0,0.5,90,91.45
327,C5,44.0,2.0,100,91.45
328,G3,44.0,2.0,100,91.45
329,C4,44.0,2.0,100,91.45
330,G#2,44.5,0.5,90,91.45
331,G#2,45.0,0.5,90,91.45
332,G#2,45.5,0.5,90,91.45
333,D2,46.0,4.0,80,91.45
334,A3,46.0,4.0,80,91.45
335,D4,46.0,4.0,80,91.45
336,D3,46.0,4.0,80,91.45
337,D3,46.0,0.75,100,91.45
338,F#3,46.0,0.75,100,91.45
339,D4,46.0,0.75,100,91.45
340,F#4,46.0,0.75,100,91.45
341,F#5,46.0,4.0,55,91.45
342,A4,46.0,4.0,55,91.45
343,D5,46.0,4.0,55,91.45
344,B1,46.0,0.25,90,91.45
345,C#3,46.0,0.25,90,91.45
346,G#2,46.5,0.25,90,91.45
347,E2,46.717,0.25,90,91.45
348,E2,46.717,0.25,90,91.45
349,F#3,46.75,0.75,100,91.45
350,A3,46.75,0.75,100,91.45
351,F#4,46.75,0.75,100,91.45
352,A4,46.75,0.75,100,91.45
353,G#2,47.0,0.25,90,91.45
354,G2,47.483,0.25,90,91.45
355,F2,47.483,0.25,90,91.45
356,G#2,47.483,0.25,90,91.45
357,A3,47.5,2.5,100,91.45
358,D4,47.5,2.5,100,91.45
359,A4,47.5,2.5,100,91.45
360,D5,47.5,2.5,100,91.45
361,G#2,48.0,0.25,90,91.45
362,G#2,48.5,0.25,90,91.45
363,E2,48.75,0.25,90,91.45
364,E2,48.875,0.25,90,91.45
365,G#2,49.0,0.25,90,91.45
366,E2,49.0,0.25,90,91.45
367,B2,49.25,0.25,90,91.45
368,G#2,49.5,0.25,90,91.45
369,A2,49.5,0.25,90,91.45
370,F2,49.75,0.25,90,91.45
371,A1,50.0,4.0,80,91.45
372,A3,50.0,4.0,80,91.45
373,E3,50.0,4.0,80,91.45
374,A2,50.0,4.0,80,91.45
375,E3,50.0,0.75,100,91.45
376,C4,50.0,0.75,100,91.45
377,E4,50.0,0.75,100,91.45
378,A3,50.0,0.75,100,91.45
379,E5,50.0,4.0,55,91.45
380,G4,50.0,4.0,55,91.45
381,C5,50.0,4.0,55,91.45
382,C#3,50.0,0.25,90,91.45
383,B1,50.0,0.25,90,91.45
384,G#2,50.0,0.25,90,91.45
385,G#2,50.5,0.25,90,91.45
386,E2,50.75,0.25,90,91.45
387,A3,50.75,0.75,100,91.45
388,E4,50.75,0.75,100,91.45
389,A4,50.75,0.75,100,91.45
390,C4,50.75,0.75,100,91.45
391,G#2,51.0,0.25,90,91.45
392,G2,51.467,0.25,90,91.45
393,G2,51.467,0.25,90,91.45
394,G#2,51.467,0.25,90,91.45
395,E4,51.5,2.0,100,91.45
396,A4,51.5,2.0,100,91.45
397,C5,51.5,2.5,100,91.45
398,C4,51.5,2.5,100,91.45
399,F2,51.975,0.25,90,91.45
400,G#2,51.975,0.25,90,91.45
401,F2,51.975,0.25,90,91.45
402,G#2,52.5,0.25,90,91.45
403,G#2,53.0,0.25,90,91.45
404,G#2,53.5,0.25,90,91.45
405,D2,54.0,2.0,80,91.45
406,A2,54.0,2.0,80,91.45
407,D4,54.0,2.0,80,91.45
408,A3,54.0,2.0,80,91.45
409,D3,54.0,2.0,80,91.45
410,F#5,54.0,0.75,100,91.45
411,D4,54.0,0.75,100,91.45
412,F#4,54.0,0.75,100,91.45
413,A4,54.0,2.0,55,91.45
414,D5,54.0,2.0,55,91.45
415,F#5,54.0,2.0,55,91.45
416,C#3,54.0,0.25,90,91.45
417,B1,54.0,0.25,90,91.45
418,G#2,54.0,0.25,90,91.45
419,G#2,54.5,0.25,90,91.45
420,E2,54.75,0.25,90,91.45
421,G5,54.75,0.75,100,91.45
422,D4,54.75,0.75,100,91.45
423,G4,54.75,0.75,100,91.45
424,E2,55.0,0.25,90,91.45
425,G#2,55.0,0.25,90,91.45
426,B2,55.25,0.25,90,91.45
427,A5,55.5,0.5,100,91.45
428,D4,55.5,0.5,100,91.45
429,A4,55.5,0.5,100,91.45
430,A2,55.5,0.25,90,91.45
431,G#2,55.5,0.25,90,91.45
432,G1,56.0,2.0,80,91.45
433,G4,56.0,2.0,80,91.45
434,D4,56.0,2.0,80,91.45
435,G2,56.0,2.0,80,91.45
436,G3,56.0,2.0,80,91.45
437,D3,56.0,2.0,80,91.45
438,B-5,56.0,0.75,100,91.45
439,G4,56.0,0.75,100,91.45
440,B-4,56.0,0.75,100,91.45
441,G4,56.0,2.0,55,91.45
442,A4,56.0,2.0,55,91.45
443,D5,56.0,2.0,55,91.45
444,C#3,56.0,0.25,90,91.45
445,B1,56.0,0.25,90,91.45
446,G#2,56.0,0.25,90,91.45
447,G#2,56.5,0.25,90,91.45
448,C6,56.75,0.75,100,91.45
449,G4,56.75,0.75,100,91.45
450,C5,56.75,0.75,100,91.45
451,E2,57.0,0.25,90,91.45
452,G#2,57.0,0.25,90,91.45
453,D6,57.5,0.5,100,91.45
454,G4,57.5,0.5,100,91.45
455,D5,57.5,0.5,100,91.45
456,G2,57.5,0.25,90,91.45
457,A2,57.5,0.25,90,91.45
458,G#2,57.5,0.25,90,91.45
459,C2,58.0,4.0,80,91.45
460,G4,58.0,4.0,80,91.45
461,D4,58.0,4.0,80,91.45
462,C4,58.0,4.0,80,91.45
463,G3,58.0,4.0,80,91.45
464,G2,58.0,4.0,80,91.45
465,C3,58.0,4.0,80,91.45
466,G5,58.0,0.75,100,91.45
467,E4,58.0,0.75,100,91.45
468,G4,58.0,0.75,100,91.45
469,G4,58.0,4.0,55,91.45
470,C5,58.0,4.0,55,91.45
471,E5,58.0,4.0,55,91.45
472,C#3,58.0,0.25,90,91.45
473,B1,58.0,0.25,90,91.45
474,F5,58.75,0.75,100,91.45
475,C4,58.75,0.75,100,91.45
476,F4,58.75,0.75,100,91.45
477,E5,59.5,0.5,100,91.45
478,C4,59.5,0.5,100,91.45
479,E4,59.5,0.5,100,91.45
480,C5,60.0,2.0,100,91.45
481,G3,60.0,2.0,100,91.45
482,C4,60.0,2.0,100,91.45
483,G6,60.0,2.0,1,91.45
484,A2,60.0,2.0,1,91.45
485,C2,62.0,4.0,80,91.45
486,G6,62.0,4.0,1,91.45
487,A2,62.0,4.0,1,91.45
488,F#4,66.0,0.75,80,91.45
489,D4,66.0,2.0,75,91.45
490,G4,66.0,4.0,80,91.45
491,D4,66.0,4.0,80,91.45
492,C4,66.0,4.0,80,91.45
493,G3,66.0,4.0,80,91.45
494,G2,66.0,4.0,80,91.45
495,C3,66.0,4.0,80,91.45
496,D3,66.0,4.0,75,91.45
497,A3,66.0,4.0,75,91.45
498,C5,66.0,4.0,100,91.45
499,G3,66.0,4.0,100,91.45
500,C4,66.0,4.0,100,91.45
501,G4,66.0,4.0,55,91.45
502,C5,66.0,4.0,55,91.45
503,E5,66.0,4.0,55,91.45
504,G4,66.75,0.75,80,91.45
505,A4,67.5,1.0,80,91.45
506,F#4,68.0,1.0,75,91.45
507,D5,68.0,1.0,75,91.45
508,D5,68.5,1.5,80,91.45
509,D4,69.0,1.0,75,91.45
510,A4,69.0,1.0,75,91.45
511,C5,70.0,0.75,80,91.45
512,A3,70.0,4.0,75,91.45
513,A2,70.0,4.0,75,91.45
514,E4,70.0,2.0,75,91.45
515,A4,70.0,2.0,75,91.45
516,B4,70.75,0.75,80,91.45
517,C5,71.5,0.5,80,91.45
518,A4,72.0,1.0,80,91.45
519,E4,72.0,0.75,75,91.45
520,C5,72.0,0.75,75,91.45
521,D4,72.75,0.75,75,91.45
522,B4,72.75,0.75,75,91.45
523,G4,73.0,1.0,80,91.45
524,B3,73.5,0.5,75,91.45
525,G4,73.5,0.5,75,91.45
526,F#4,74.0,0.75,80,91.45
527,D3,74.0,2.0,75,91.45
528,F#4,74.0,2.0,75,91.45
529,A3,74.0,2.0,75,91.45
530,D4,74.0,2.0,75,91.45
531,G4,74.75,0.75,80,91.45
532,A4,75.5,0.5,80,91.45
533,D4,76.0,0.75,80,91.45
534,F#3,76.0,2.0,75,91.45
535,F#4,76.0,2.0,75,91.45
536,D4,76.0,2.0,75,91.45
537,B2,76.0,2.0,75,91.45
538,E4,76.75,0.75,80,91.45
539,F#4,77.5,0.5,80,91.45
540,E4,78.0,0.75,80,91.45
541,E4,78.0,2.0,75,91.45
542,C3,78.0,2.0,75,91.45
543,G3,78.0,2.0,75,91.45
544,C4,78.0,2.0,75,91.45
545,D4,78.75,3.0,80,91.45
546,C4,80.0,0.5,75,91.45
547,G5,80.0,0.5,75,91.45
548,C5,80.0,0.5,75,91.45
549,C5,80.5,0.5,75,91.45
550,D5,80.5,0.5,75,91.45
551,D4,80.5,0.5,75,91.45
552,C5,81.0,0.5,75,91.45
553,D4,81.0,0.5,75,91.45
554,D5,81.0,0.5,75,91.45
555,D4,81.5,0.25,75,91.45
556,G4,81.5,0.25,75,91.45
557,A2,81.75,0.25,80,91.45
558,F#4,82.0,0.75,80,91.45
559,D3,82.0,3.5,80,91.45
560,D3,82.0,4.0,75,91.45
561,A3,82.0,4.0,75,91.45
562,D4,82.0,2.0,75,91.45
563,F#4,82.0,2.0,75,91.45
564,G4,82.75,0.75,80,91.45
565,A4,83.5,1.0,80,91.45
566,D4,84.0,0.75,75,91.45
567,F#4,84.0,0.75,75,91.45
568,D5,84.5,1.5,80,91.45
569,E4,84.75,0.75,75,91.45
570,G4,84.75,0.75,75,91.45
571,D3,85.5,0.25,80,91.45
572,F#4,85.5,0.5,75,91.45
573,A4,85.5,0.5,75,91.45
574,E3,85.75,0.25,80,91.45
575,E5,86.0,0.75,80,91.45
576,A2,86.0,4.0,80,91.45
577,A4,86.0,2.0,75,91.45
578,A2,86.0,2.0,75,91.45
579,A3,86.0,2.0,75,91.45
580,C4,86.0,2.0,75,91.45
581,E4,86.0,2.0,75,91.45
582,D5,86.75,0.75,80,91.45
583,E5,87.5,0.5,80,91.45
584,C5,88.0,1.0,80,91.45
585,E5,88.5,0.25,75,91.45
586,G4,88.75,0.25,75,91.45
587,C5,88.75,0.25,75,91.45
588,B4,89.0,1.0,80,91.45
589,G4,89.0,0.25,75,91.45
590,C5,89.0,0.25,75,91.45
591,E4,89.25,0.25,75,91.45
592,G4,89.25,0.25,75,91.45
593,E4,89.5,0.25,75,91.45
594,G4,89.5,0.25,75,91.45
595,E4,89.75,0.25,75,91.45
596,A3,89.75,0.25,75,91.45
597,F#4,90.0,0.75,80,91.45
598,D2,90.0,2.0,80,91.45
599,D3,90.0,1.5,75,91.45
600,A3,90.0,1.5,75,91.45
601,F#4,90.0,1.5,75,91.45
602,A4,90.0,1.5,75,91.45
603,G4,90.75,0.75,80,91.45
604,A4,91.5,0.5,80,91.45
605,F#4,91.5,0.5,75,91.45
606,A4,91.5,0.5,75,91.45
607,D3,91.5,0.5,75,91.45
608,A3,91.5,0.5,75,91.45
609,D4,92.0,0.75,80,91.45
610,B1,92.0,2.0,80,91.45
611,F#3,92.0,1.5,75,91.45
612,F#4,92.0,1.5,75,91.45
613,D4,92.0,1.5,75,91.45
614,B2,92.0,1.5,75,91.45
615,E4,92.75,0.75,80,91.45
616,F#4,93.5,0.5,80,91.45
617,B2,93.5,0.5,75,91.45
618,F#3,93.5,0.5,75,91.45
619,D4,93.5,0.5,75,91.45
620,F#4,93.5,0.5,75,91.45
621,G4,94.0,0.75,80,91.45
622,C2,94.0,4.0,80,91.45
623,C4,94.0,4.0,75,91.45
624,G4,94.0,4.0,75,91.45
625,E4,94.0,4.0,75,91.45
626,G3,94.0,4.0,75,91.45
627,C3,94.0,4.0,75,91.45
628,A4,94.75,0.75,80,91.45
629,F#4,95.5,0.5,80,91.45
630,E4,95.5,0.5,58,91.45
631,E3,95.5,0.5,58,91.45
632,D4,96.0,2.0,80,91.45
633,E4,96.0,2.0,58,91.45
634,E3,96.0,2.0,58,91.45
635,G3,97.0,1.0,48,91.45
636,D4,98.0,4.0,80,91.45
637,C2,98.0,4.0,80,91.45
638,G4,98.0,1.0,50,91.45
639,E4,98.0,4.0,58,91.45
640,E3,98.0,4.0,58,91.45
641,D4,98.25,1.0,52,91.45
642,C4,98.5,1.0,54,91.45
643,G3,98.75,1.0,56,91.45
644,G4,99.0,1.0,58,91.45
645,D4,99.25,1.0,60,91.45
646,C4,99.5,1.0,62,91.45
647,G3,99.75,1.0,64,91.45
648,G4,100.0,1.0,66,91.45
649,D4,100.25,1.0,68,91.45
650,C4,100.5,1.0,70,91.45
651,G3,100.75,1.0,72,91.45
652,G4,101.0,1.0,74,91.45
653,D4,101.25,0.75,76,91.45
654,C4,101.5,0.5,78,91.45
655,G3,101.75,0.25,80,91.45
656,G2,102.0,2.5,100,91.45
657,G1,102.0,2.5,75,91.45
658,G1,102.0,2.5,80,91.45
659,F#2,102.0,0.25,70,91.45
660,F#2,102.25,0.25,70,91.45
661,G3,102.5,2.25,105,91.45
662,B-2,102.5,0.25,70,91.45
663,D4,102.75,2.25,105,91.45
664,F#2,103.0,0.25,70,91.45
665,F#2,103.25,0.25,70,91.45
666,G3,103.5,2.0,105,91.45
667,B-2,103.5,0.25,70,91.45
668,F#2,104.0,0.25,70,91.45
669,F#2,104.25,0.25,70,91.45
670,A2,104.5,1.0,100,91.45
671,A1,104.5,1.0,75,91.45
672,A1,104.5,1.0,80,91.45
673,B-2,104.5,0.25,70,91.45
674,G3,105.0,0.5,105,91.45
675,F#2,105.0,0.25,70,91.45
676,F#2,105.25,0.25,70,91.45
677,B2,105.5,2.0,100,91.45
678,B1,105.5,2.5,75,91.45
679,B1,105.5,2.5,80,91.45
680,F#2,105.5,0.25,70,91.45
681,F#2,105.75,0.25,70,91.45
682,G3,106.0,2.25,105,91.45
683,B-2,106.0,0.25,70,91.45
684,D4,106.25,2.25,105,91.45
685,F#2,106.5,0.25,70,91.45
686,F#2,106.75,0.25,70,91.45
687,G3,107.0,2.0,105,91.45
688,B-2,107.0,0.25,70,91.45
689,F#2,107.5,0.25,70,91.45
690,F#2,107.75,0.25,70,91.45
691,E3,108.0,1.0,105,91.45
692,E2,108.0,1.0,75,91.45
693,E2,108.0,1.0,80,91.45
694,B-2,108.0,0.25,70,91.45
695,G3,108.5,0.5,105,91.45
696,F#2,108.5,0.25,70,91.45
697,F#2,108.75,0.25,70,91.45
698,C3,109.0,2.0,100,91.45
699,C2,109.0,2.5,75,91.45
700,C2,109.0,2.5,80,91.45
701,F#2,109.0,0.25,70,91.45
702,F#2,109.25,0.25,70,91.45
703,G3,109.5,2.25,105,91.45
704,B-2,109.5,0.25,70,91.45
705,D4,109.75,2.25,105,91.45
706,F#2,110.0,0.25,70,91.45
707,F#2,110.25,0.25,70,91.45
708,G3,110.5,2.0,105,91.45
709,B-2,110.5,0.25,70,91.45
710,F#2,111.0,0.25,70,91.45
711,F#2,111.25,0.25,70,91.45
712,B2,111.5,1.0,100,91.45
713,B1,111.5,1.0,75,91.45
714,B1,111.5,1.0,80,91.45
715,B-2,111.5,0.25,70,91.45
716,G3,112.0,0.5,105,91.45
717,F#2,112.0,0.25,70,91.45
718,F#2,112.25,0.25,70,91.45
719,A2,112.5,2.0,100,91.45
720,A1,112.5,2.0,75,91.45
721,A1,112.5,2.0,80,91.45
722,F#2,112.5,0.25,70,91.45
723,F#2,112.75,0.25,70,91.45
724,G3,113.0,1.5,105,91.45
725,B-2,113.0,0.25,70,91.45
726,D4,113.25,1.25,105,91.45
727,F#2,113.5,0.25,70,91.45
728,F#2,113.75,0.25,70,91.45
729,G3,114.0,0.5,105,91.45
730,B-2,114.0,0.25,70,91.45
731,F2,114.5,2.0,100,91.45
732,F1,114.5,2.0,75,91.45
733,F1,114.5,2.0,80,91.45
734,F#2,114.5,0.25,70,91.45
735,F#2,114.75,0.25,70,91.45
736,G3,115.0,1.5,105,91.45
737,B-2,115.0,0.25,70,91.45
738,D4,115.25,1.25,105,91.45
739,F#2,115.5,0.25,70,91.45
740,F#2,115.75,0.25,70,91.45
741,G3,116.0,0.5,105,91.45
742,B-2,116.0,0.25,70,91.45
743,G2,116.5,2.5,100,91.45
744,G1,116.5,2.5,75,91.45
745,G1,116.5,2.5,80,91.45
746,G3,116.5,0.25,70,91.45
747,F#2,116.5,0.25,70,91.45
748,G3,116.75,0.25,80,91.45
749,F#2,116.75,0.25,70,91.45
750,G3,117.0,2.25,105,91.45
751,A3,117.0,0.25,80,91.45
752,B-2,117.0,0.25,70,91.45
753,D4,117.25,2.25,105,91.45
754,B3,117.25,0.25,80,91.45
755,D4,117.5,0.25,80,91.45
756,F#2,117.5,0.25,70,91.45
757,G4,117.75,0.25,80,91.45
758,F#2,117.75,0.25,70,91.45
759,G3,118.0,2.0,105,91.45
760,B-2,118.0,0.25,70,91.45
761,D5,118.0,1.75,80,91.45
762,G5,118.0,1.75,80,91.45
763,A4,118.25,0.25,80,91.45
764,G4,118.5,0.25,80,91.45
765,F#2,118.5,0.25,70,91.45
766,F#2,118.75,0.25,70,91.45
767,B4,118.75,1.0,80,91.45
768,D5,118.75,1.0,80,91.45
769,A2,119.0,1.0,100,91.45
770,A1,119.0,1.0,75,91.45
771,A4,119.0,0.25,80,91.45
772,A1,119.0,1.0,80,91.45
773,B-2,119.0,0.25,70,91.45
774,G4,119.25,0.25,80,91.45
775,G3,119.5,0.5,105,91.45
776,D4,119.5,0.25,80,91.45
777,F#2,119.5,0.25,70,91.45
778,B3,119.75,0.25,80,91.45
779,F#2,119.75,0.25,70,91.45
780,B2,120.0,2.0,100,91.45
781,B1,120.0,2.5,75,91.45
782,G3,120.0,0.25,80,91.45
783,B1,120.0,2.5,80,91.45
784,F#2,120.0,0.25,70,91.45
785,A3,120.25,0.125,80,91.45
786,F#2,120.25,0.25,70,91.45
787,B3,120.375,0.125,80,91.45
788,G3,120.5,2.25,105,91.45
789,D4,120.5,0.25,80,91.45
790,B-2,120.5,0.25,70,91.45
791,D4,120.75,2.25,105,91.45
792,G4,120.75,0.25,80,91.45
793,A4,121.0,0.25,80,91.45
794,F#2,121.0,0.25,70,91.45
795,F#2,121.25,0.25,70,91.45
796,D5,121.25,1.75,80,91.45
797,G5,121.25,1.75,80,91.45
798,G3,121.5,2.0,105,91.45
799,A4,121.5,0.25,80,91.45
800,B-2,121.5,0.25,70,91.45
801,G4,121.75,0.25,80,91.45
802,F#2,122.0,0.25,70,91.45
803,B4,122.0,1.0,80,91.45
804,D5,122.0,1.0,80,91.45
805,A4,122.25,1.25,80,91.45
806,F#2,122.25,0.25,70,91.45
807,E3,122.5,1.0,100,91.45
808,E2,122.5,1.0,75,91.45
809,B-2,122.5,0.25,70,91.45
810,E2,122.5,1.0,80,91.45
811,G4,122.5,1.0,80,91.45
812,D4,122.75,0.25,80,91.45
813,G3,123.0,0.5,105,91.45
814,B3,123.0,0.25,80,91.45
815,F#2,123.0,0.25,70,91.45
816,A3,123.25,0.25,80,91.45
817,F#2,123.25,0.25,70,91.45
818,F3,123.5,2.0,100,91.45
819,F2,123.5,2.5,75,91.45
820,F2,123.5,2.0,80,91.45
821,F#2,123.5,0.25,70,91.45
822,G3,123.75,0.25,80,91.45
823,F#2,123.75,0.25,70,91.45
824,G3,124.0,2.25,105,91.45
825,A3,124.0,0.25,80,91.45
826,B-2,124.0,0.25,70,91.45
827,D4,124.25,2.25,105,91.45
828,B3,124.25,0.25,80,91.45
829,D4,124.5,0.25,80,91.45
830,F#2,124.5,0.25,70,91.45
831,G4,124.75,0.25,80,91.45
832,F#2,124.75,0.25,70,91.45
833,G3,125.0,2.0,105,91.45
834,B-2,125.0,0.25,70,91.45
835,D5,125.0,1.75,80,91.45
836,G5,125.0,1.75,80,91.45
837,A4,125.25,0.25,80,91.45
838,G4,125.5,0.25,80,91.45
839,F#2,125.5,0.25,70,91.45
840,F#2,125.75,0.25,70,91.45
841,B4,125.75,1.0,80,91.45
842,D5,125.75,1.0,80,91.45
843,E3,126.0,1.0,100,91.45
844,E2,126.0,1.0,75,91.45
845,E2,126.0,1.0,80,91.45
846,A4,126.0,0.25,80,91.45
847,B-2,126.0,0.25,70,91.45
848,G4,126.25,0.25,80,91.45
849,G3,126.5,0.5,105,91.45
850,D4,126.5,0.25,80,91.45
851,F#2,126.5,0.25,70,91.45
852,B3,126.75,0.25,80,91.45
853,F#2,126.75,0.25,70,91.45
854,D3,127.0,4.0,100,91.45
855,D2,127.0,2.0,75,91.45
856,F#2,127.0,0.25,70,91.45
857,F#3,127.0,2.0,70,91.45
858,A3,127.0,2.0,70,91.45
859,D4,127.0,2.0,70,91.45
860,D2,127.0,2.0,70,91.45
861,F#2,127.25,0.25,70,91.45
862,A3,127.5,3.5,105,91.45
863,B-2,127.5,0.25,70,91.45
864,D4,127.75,3.25,105,91.45
865,F#2,128.0,0.25,70,91.45
866,F#2,128.25,0.25,70,91.45
867,F#4,128.5,0.5,105,91.45
868,B-2,128.5,0.25,70,91.45
869,G4,129.0,1.0,105,91.45
870,D2,129.0,1.0,75,91.45
871,F#2,129.0,0.25,70,91.45
872,F#4,129.0,0.5,100,91.45
873,D4,129.0,0.5,100,91.45
874,D3,129.0,0.5,100,91.45
875,F#2,129.25,0.25,70,91.45
876,B-2,129.5,0.25,70,91.45
877,G4,129.5,0.5,100,91.45
878,E4,129.5,0.5,100,91.45
879,E3,129.5,0.5,100,91.45
880,A4,130.0,1.0,105,91.45
881,D2,130.0,1.0,75,91.45
882,F#2,130.0,0.25,70,91.45
883,A4,130.0,1.0,100,91.45
884,F#3,130.0,1.0,100,91.45
885,F#4,130.0,1.0,100,91.45
886,F#2,130.25,0.25,70,91.45
887,B-2,130.5,0.25,70,91.45
888,E2,130.75,0.125,70,91.45
889,B2,130.833,0.125,70,91.45
890,E3,130.917,83/1000,70,91.45
891,G#3,131.0,0.125,70,91.45
892,E3,131.0,21/500,70,91.45
893,E3,131.0,1.25,100,91.45
894,G#3,131.0,0.75,60,91.45
895,G#4,131.0,0.75,60,91.45
896,G3,131.0,0.25,90,91.45
897,B1,131.0,0.25,90,91.45
898,B3,131.083,0.125,70,91.45
899,E4,131.167,0.125,70,91.45
900,F#2,131.25,0.25,60,91.45
901,F#2,131.5,0.25,60,91.45
902,F#2,131.75,0.25,60,91.45
903,G6,131.75,0.25,110,91.45
904,B3,131.75,0.75,60,91.45
905,B4,131.75,0.75,60,91.45
906,F#3,132.0,0.25,127,91.45
907,B2,132.25,0.25,70,91.45
908,F#2,132.25,0.25,60,91.45
909,E3,132.5,2.0,100,91.45
910,F#2,132.5,0.25,60,91.45
911,G5,132.5,0.25,110,91.45
912,E4,132.5,2.5,60,91.45
913,E5,132.5,2.5,60,91.45
914,F#2,132.75,0.25,60,91.45
915,F#2,133.0,0.25,100,91.45
916,F#2,133.25,0.25,60,91.45
917,F#2,133.5,0.25,60,91.45
918,F#2,133.75,0.25,60,91.45
919,F#3,134.0,0.25,127,91.45
920,F#2,134.25,0.25,60,91.45
921,E3,134.5,0.25,100,91.45
922,F#2,134.5,0.25,60,91.45
923,F#2,134.75,0.125,70,91.45
924,F#3,134.75,0.25,100,91.45
925,B-2,134.75,0.25,60,91.45
926,B2,134.833,0.125,70,91.45
927,F#3,134.917,83/1000,70,91.45
928,F#3,135.0,21/500,70,91.45
929,B2,135.0,3.0,100,91.45
930,D4,135.0,0.125,70,91.45
931,B3,135.0,0.125,70,91.45
932,E3,135.0,1.5,90,91.45
933,B3,135.0,1.5,90,91.45
934,G#4,135.0,1.5,90,91.45
935,E4,135.0,1.5,90,91.45
936,F#4,135.0,0.75,60,91.45
937,F#3,135.0,0.75,60,91.45
938,B1,135.0,0.25,100,91.45
939,F#2,135.0,0.25,100,91.45
940,F#4,135.167,0.125,70,91.45
941,F#2,135.25,0.25,60,91.45
942,F#2,135.5,0.25,60,91.45
943,F#2,135.75,0.25,60,91.45
944,G6,135.75,0.25,110,91.45
945,B3,135.75,0.75,60,91.45
946,B4,135.75,0.75,60,91.45
947,F#3,136.0,0.25,127,91.45
948,F#2,136.25,0.25,60,91.45
949,F#2,136.5,0.25,60,91.45
950,G5,136.5,0.25,110,91.45
951,E5,136.5,1.0,90,91.45
952,E3,136.5,1.0,90,91.45
953,B3,136.5,1.0,90,91.45
954,E4,136.5,1.0,90,91.45
955,G#4,136.5,1.0,90,91.45
956,B4,136.5,1.0,90,91.45
957,D4,136.5,2.0,60,91.45
958,D5,136.5,2.0,60,91.45
959,F#2,136.75,0.25,60,91.45
960,F#2,137.0,0.25,100,91.45
961,F#2,137.25,0.25,60,91.45
962,E4,137.5,0.125,100,91.45
963,F#2,137.5,0.25,60,91.45
964,G#4,137.625,0.125,100,91.45
965,B4,137.75,0.125,100,91.45
966,F#2,137.75,0.25,60,91.45
967,E5,137.875,0.125,100,91.45
968,B2,138.0,1.0,100,91.45
969,F#3,138.0,0.25,127,91.45
970,E5,138.0,0.25,100,91.45
971,B5,138.0,0.25,100,91.45
972,F#2,138.25,0.25,60,91.45
973,E5,138.25,0.25,100,91.45
974,G#5,138.25,0.25,100,91.45
975,F#2,138.5,0.25,60,91.45
976,E5,138.5,0.25,100,91.45
977,G#5,138.5,0.25,100,91.45
978,E2,138.75,0.125,70,91.45
979,B-2,138.75,0.25,60,91.45
980,B4,138.75,0.25,100,91.45
981,E5,138.75,0.25,100,91.45
982,B2,138.833,0.125,70,91.45
983,E3,138.917,83/1000,70,91.45
984,G#3,139.0,0.125,70,91.45
985,E3,139.0,21/500,70,91.45
986,E2,139.0,2.0,100,91.45
987,B3,139.0,2.75,90,91.45
988,F#4,139.0,3.25,90,91.45
989,B4,139.0,2.0,90,91.45
990,D5,139.0,2.0,90,91.45
991,G#4,139.0,0.75,60,91.45
992,G#3,139.0,0.75,60,91.45
993,B1,139.0,0.25,100,91.45
994,F#2,139.0,0.25,100,91.45
995,B3,139.083,0.125,70,91.45
996,E4,139.167,0.125,70,91.45
997,F#2,139.25,0.25,60,91.45
998,F#2,139.5,0.25,60,91.45
999,F#2,139.75,0.25,60,91.45
1000,G6,139.75,0.25,110,91.45
1001,A4,139.75,0.75,60,91.45
1002,A3,139.75,0.75,60,91.45
1003,F#3,140.0,0.25,127,91.45
1004,F#2,140.25,0.25,60,91.45
1005,F#2,140.5,0.25,60,91.45
1006,G5,140.5,0.25,110,91.45
1007,B3,140.5,0.5,60,91.45
1008,B4,140.5,0.5,60,91.45
1009,A2,140.75,0.125,70,91.45
1010,F#2,140.75,0.25,60,91.45
1011,E3,140.833,0.125,70,91.45
1012,A3,140.917,0.125,70,91.45
1013,C4,141.0,0.125,70,91.45
1014,A2,141.0,2.0,100,91.45
1015,F#2,141.0,0.25,100,91.45
1016,A5,141.0,0.75,90,91.45
1017,D5,141.0,0.75,90,91.45
1018,D6,141.0,0.75,90,91.45
1019,C4,141.0,0.75,60,91.45
1020,C5,141.0,0.75,60,91.45
1021,E4,141.083,0.125,70,91.45
1022,A4,141.167,0.125,70,91.45
1023,D4,141.25,0.25,90,91.45
1024,F#2,141.25,0.25,60,91.45
1025,B3,141.5,1.5,90,91.45
1026,F#2,141.5,0.25,60,91.45
1027,F#2,141.75,0.25,60,91.45
1028,G6,141.75,0.25,110,91.45
1029,A5,141.75,0.75,90,91.45
1030,C#5,141.75,0.75,90,91.45
1031,C#6,141.75,0.75,90,91.45
1032,D4,141.75,0.75,60,91.45
1033,D5,141.75,0.75,60,91.45
1034,F#4,142.0,1.0,90,91.45
1035,F#3,142.0,0.25,127,91.45
1036,D4,142.25,0.25,90,91.45
1037,F#2,142.25,0.25,60,91.45
1038,F#2,142.5,0.25,60,91.45
1039,G5,142.5,0.25,110,91.45
1040,F#5,142.5,0.5,90,91.45
1041,B4,142.5,0.5,90,91.45
1042,B5,142.5,0.5,90,91.45
1043,E4,142.5,0.5,60,91.45
1044,E5,142.5,0.5,60,91.45
1045,A2,142.75,0.125,70,91.45
1046,E4,142.75,0.25,90,91.45
1047,B-2,142.75,0.25,60,91.45
1048,D3,142.833,0.125,70,91.45
1049,A3,142.917,83/1000,70,91.45
1050,D4,143.0,0.125,70,91.45
1051,A3,143.0,21/500,70,91.45
1052,D2,143.0,4.0,100,91.45
1053,B4,143.0,0.75,90,91.45
1054,E5,143.0,0.75,90,91.45
1055,G#5,143.0,0.75,90,91.45
1056,A3,143.0,4.0,60,91.45
1057,A4,143.0,4.0,60,91.45
1058,B1,143.0,0.25,100,91.45
1059,F#2,143.0,0.25,100,91.45
1060,E4,143.083,0.125,70,91.45
1061,A4,143.167,0.125,70,91.45
1062,G#4,143.25,0.5,90,91.45
1063,F#2,143.25,0.25,60,91.45
1064,F#2,143.5,0.25,60,91.45
1065,F#2,143.75,0.25,60,91.45
1066,G6,143.75,0.25,110,91.45
1067,E5,143.75,0.75,90,91.45
1068,A5,143.75,0.75,90,91.45
1069,A4,144.0,0.25,90,91.45
1070,F#3,144.0,0.25,127,91.45
1071,E4,144.25,0.25,90,91.45
1072,F#2,144.25,0.25,60,91.45
1073,F#2,144.5,0.25,60,91.45
1074,G5,144.5,0.25,110,91.45
1075,E5,144.5,0.5,90,91.45
1076,B5,144.5,0.5,90,91.45
1077,F#2,144.75,0.25,60,91.45
1078,F#2,145.0,0.25,100,91.45
1079,C5,145.0,0.75,90,91.45
1080,A5,145.0,0.75,90,91.45
1081,C6,145.0,0.75,90,91.45
1082,F#2,145.25,0.25,60,91.45
1083,G3,145.5,1.5,100,91.45
1084,F#2,145.5,0.25,60,91.45
1085,F#2,145.75,0.25,60,91.45
1086,D5,145.75,0.75,90,91.45
1087,B5,145.75,0.75,90,91.45
1088,D6,145.75,0.75,90,91.45
1089,F#3,146.0,0.25,127,91.45
1090,F#2,146.25,0.25,100,91.45
1091,F#2,146.5,0.25,100,91.45
1092,E5,146.5,0.5,90,91.45
1093,A5,146.5,0.5,90,91.45
1094,E6,146.5,0.5,90,91.45
1095,E2,146.75,0.125,70,91.45
1096,G3,146.75,0.25,60,91.45
1097,B2,146.833,0.125,70,91.45
1098,E3,146.917,83/1000,70,91.45
1099,G#3,147.0,0.125,70,91.45
1100,E3,147.0,21/500,70,91.45
1101,E1,147.0,1.5,100,91.45
1102,F#5,147.0,0.75,90,91.45
1103,A4,147.0,0.75,90,91.45
1104,A5,147.0,0.75,90,91.45
1105,G#3,147.0,0.75,60,91.45
1106,G#4,147.0,0.75,60,91.45
1107,E3,147.0,0.25,80,91.45
1108,B1,147.0,0.25,80,91.45
1109,B3,147.083,0.125,70,91.45
1110,E4,147.167,0.125,70,91.45
1111,F#2,147.25,0.25,60,91.45
1112,F#2,147.5,0.25,60,91.45
1113,F#2,147.75,0.25,60,91.45
1114,G6,147.75,0.25,110,91.45
1115,G4,147.75,0.75,90,91.45
1116,G5,147.75,0.75,90,91.45
1117,B3,147.75,0.75,60,91.45
1118,B4,147.75,0.75,60,91.45
1119,F#3,148.0,0.25,127,91.45
1120,B3,148.25,0.25,100,91.45
1121,F#2,148.25,0.25,60,91.45
1122,E4,148.5,1.0,100,91.45
1123,E1,148.5,2.5,100,91.45
1124,F#2,148.5,0.25,60,91.45
1125,G5,148.5,0.25,110,91.45
1126,F#4,148.5,0.5,90,91.45
1127,F#5,148.5,0.5,90,91.45
1128,E4,148.5,2.5,60,91.45
1129,E5,148.5,2.5,60,91.45
1130,F#2,148.75,0.25,60,91.45
1131,F#2,149.0,0.25,100,91.45
1132,F#4,149.0,2.0,90,91.45
1133,D4,149.0,2.0,90,91.45
1134,D5,149.0,2.0,90,91.45
1135,F#2,149.25,0.25,60,91.45
1136,F#2,149.5,0.25,60,91.45
1137,F#2,149.75,0.25,60,91.45
1138,F#3,150.0,0.25,127,91.45
1139,F#2,150.25,0.25,60,91.45
1140,F#2,150.5,0.25,60,91.45
1141,F#2,150.75,0.125,70,91.45
1142,B-2,150.75,0.25,60,91.45
1143,B2,150.833,0.125,70,91.45
1144,F#3,150.917,83/1000,70,91.45
1145,F#3,151.0,21/500,70,91.45
1146,B1,151.0,1.5,100,91.45
1147,D4,151.0,0.125,70,91.45
1148,B3,151.0,0.125,70,91.45
1149,G#4,151.0,1.5,90,91.45
1150,B3,151.0,1.5,90,91.45
1151,E3,151.0,1.5,90,91.45
1152,E4,151.0,1.5,90,91.45
1153,F#4,151.0,0.75,60,91.45
1154,F#3,151.0,0.75,60,91.45
1155,B1,151.0,0.25,100,91.45
1156,F#2,151.0,0.25,100,91.45
1157,F#4,151.167,0.125,70,91.45
1158,F#2,151.25,0.25,60,91.45
1159,F#2,151.5,0.25,60,91.45
1160,F#2,151.75,0.25,60,91.45
1161,G6,151.75,0.25,110,91.45
1162,B3,151.75,0.75,60,91.45
1163,B4,151.75,0.75,60,91.45
1164,F#3,152.0,0.25,127,91.45
1165,F#2,152.25,0.25,60,91.45
1166,B1,152.5,1.5,100,91.45
1167,F#2,152.5,0.25,60,91.45
1168,G5,152.5,0.25,110,91.45
1169,D4,152.5,2.0,60,91.45
1170,D5,152.5,2.0,60,91.45
1171,F#2,152.75,0.25,60,91.45
1172,F#2,153.0,0.25,100,91.45
1173,F#2,153.25,0.25,60,91.45
1174,F#2,153.5,0.25,60,91.45
1175,B5,153.5,0.125,90,91.45
1176,E6,153.5,0.125,90,91.45
1177,G#5,153.625,0.125,90,91.45
1178,B5,153.625,0.125,90,91.45
1179,F#2,153.75,0.25,60,91.45
1180,E5,153.75,0.125,90,91.45
1181,G#5,153.75,0.125,90,91.45
1182,B4,153.875,0.125,90,91.45
1183,E5,153.875,0.125,90,91.45
1184,B1,154.0,1.0,100,91.45
1185,F#3,154.0,0.25,127,91.45
1186,G#5,154.0,0.125,90,91.45
1187,B5,154.0,0.125,90,91.45
1188,E5,154.125,0.125,90,91.45
1189,G#5,154.125,0.125,90,91.45
1190,F#2,154.25,0.25,60,91.45
1191,B4,154.25,0.125,90,91.45
1192,E5,154.25,0.125,90,91.45
1193,G#4,154.375,0.125,90,91.45
1194,B4,154.375,0.125,90,91.45
1195,F#2,154.5,0.25,60,91.45
1196,E5,154.5,0.125,90,91.45
1197,G#5,154.5,0.125,90,91.45
1198,B4,154.625,0.125,90,91.45
1199,E5,154.625,0.125,90,91.45
1200,E2,154.75,0.125,70,91.45
1201,B-2,154.75,0.25,60,91.45
1202,G#4,154.75,0.125,90,91.45
1203,B4,154.75,0.125,90,91.45
1204,B2,154.833,0.125,70,91.45
1205,E4,154.875,0.125,90,91.45
1206,G#4,154.875,0.125,90,91.45
1207,E3,154.917,83/1000,70,91.45
1208,G#3,155.0,0.125,70,91.45
1209,E3,155.0,21/500,70,91.45
1210,E1,155.0,2.0,100,91.45
1211,B3,155.0,2.0,90,91.45
1212,D4,155.0,2.0,90,91.45
1213,B4,155.0,2.0,90,91.45
1214,F#4,155.0,2.0,90,91.45
1215,G#4,155.0,0.75,60,91.45
1216,G#3,155.0,0.75,60,91.45
1217,B1,155.0,0.25,100,91.45
1218,F#2,155.0,0.25,100,91.45
1219,B3,155.083,0.125,70,91.45
1220,E4,155.167,0.125,70,91.45
1221,F#2,155.25,0.25,60,91.45
1222,F#2,155.5,0.25,60,91.45
1223,F#2,155.75,0.25,60,91.45
1224,G6,155.75,0.25,110,91.45
1225,A4,155.75,0.75,60,91.45
1226,A3,155.75,0.75,60,91.45
1227,F#3,156.0,0.25,127,91.45
1228,F#2,156.25,0.25,60,91.45
1229,F#2,156.5,0.25,60,91.45
1230,G5,156.5,0.25,110,91.45
1231,B3,156.5,0.5,60,91.45
1232,B4,156.5,0.5,60,91.45
1233,A2,156.75,0.125,70,91.45
1234,F#2,156.75,0.25,60,91.45
1235,E3,156.833,0.125,70,91.45
1236,A3,156.917,0.125,70,91.45
1237,C4,157.0,0.125,70,91.45
1238,A1,157.0,2.0,100,91.45
1239,D4,157.0,1.0,90,91.45
1240,F#2,157.0,0.25,100,91.45
1241,D5,157.0,0.5,90,91.45
1242,A5,157.0,0.5,90,91.45
1243,D6,157.0,0.5,90,91.45
1244,C4,157.0,0.75,60,91.45
1245,C5,157.0,0.75,60,91.45
1246,E4,157.083,0.125,70,91.45
1247,A4,157.167,0.125,70,91.45
1248,F#2,157.25,0.25,60,91.45
1249,F#2,157.5,0.25,60,91.45
1250,C#5,157.5,0.5,90,91.45
1251,G#5,157.5,0.5,90,91.45
1252,C#6,157.5,0.5,90,91.45
1253,F#2,157.75,0.25,60,91.45
1254,D4,157.75,0.75,60,91.45
1255,D5,157.75,0.75,60,91.45
1256,D4,158.0,1.0,90,91.45
1257,F#3,158.0,0.25,127,91.45
1258,B4,158.0,0.5,90,91.45
1259,F#5,158.0,0.5,90,91.45
1260,B5,158.0,0.5,90,91.45
1261,F#2,158.25,0.25,60,91.45
1262,F#2,158.5,0.25,60,91.45
1263,A4,158.5,0.5,90,91.45
1264,E5,158.5,0.5,90,91.45
1265,A5,158.5,0.5,90,91.45
1266,E4,158.5,0.5,60,91.45
1267,E5,158.5,0.5,60,91.45
1268,A2,158.75,0.125,70,91.45
1269,B-2,158.75,0.25,60,91.45
1270,D3,158.833,0.125,70,91.45
1271,A3,158.917,83/1000,70,91.45
1272,D4,159.0,0.125,70,91.45
1273,A3,159.0,21/500,70,91.45
1274,D1,159.0,4.0,80,91.45
1275,E5,159.0,0.75,90,91.45
1276,G#4,159.0,0.75,90,91.45
1277,G#5,159.0,0.75,90,91.45
1278,A3,159.0,4.0,60,91.45
1279,A4,159.0,4.0,60,91.45
1280,E2,159.0,0.25,100,91.45
1281,F2,159.0,0.25,100,91.45
1282,B1,159.0,0.25,100,91.45
1283,E4,159.083,0.125,70,91.45
1284,A4,159.167,0.125,70,91.45
1285,F2,159.25,0.25,50,91.45
1286,E2,159.25,0.25,50,91.45
1287,B1,159.25,0.25,50,91.45
1288,F2,159.5,0.25,53,91.45
1289,E2,159.5,0.25,53,91.45
1290,B1,159.5,0.25,53,91.45
1291,E5,159.75,0.75,90,91.45
1292,A4,159.75,0.75,90,91.45
1293,A5,159.75,0.75,90,91.45
1294,F2,159.75,0.25,57,91.45
1295,E2,159.75,0.25,57,91.45
1296,B1,159.75,0.25,57,91.45
1297,G#4,160.0,0.25,90,91.45
1298,F2,160.0,0.25,60,91.45
1299,E2,160.0,0.25,60,91.45
1300,B1,160.0,0.25,60,91.45
1301,E4,160.25,0.25,90,91.45
1302,F2,160.25,0.25,64,91.45
1303,E2,160.25,0.25,64,91.45
1304,B1,160.25,0.25,64,91.45
1305,E5,160.5,0.5,90,91.45
1306,B4,160.5,0.5,90,91.45
1307,B5,160.5,0.5,90,91.45
1308,F2,160.5,0.25,67,91.45
1309,E2,160.5,0.25,67,91.45
1310,B1,160.5,0.25,67,91.45
1311,F2,160.75,0.25,71,91.45
1312,E2,160.75,0.25,71,91.45
1313,B1,160.75,0.25,71,91.45
1314,A5,161.0,0.75,90,91.45
1315,C5,161.0,0.75,90,91.45
1316,C6,161.0,0.75,90,91.45
1317,F2,161.0,0.25,75,91.45
1318,E2,161.0,0.25,75,91.45
1319,B1,161.0,0.25,75,91.45
1320,E4,161.25,0.25,90,91.45
1321,F2,161.25,0.25,78,91.45
1322,E2,161.25,0.25,78,91.45
1323,B1,161.25,0.25,78,91.45
1324,F2,161.5,0.25,82,91.45
1325,E2,161.5,0.25,82,91.45
1326,B1,161.5,0.25,82,91.45
1327,A5,161.75,0.75,90,91.45
1328,D5,161.75,0.75,90,91.45
1329,D6,161.75,0.75,90,91.45
1330,F2,161.75,0.25,85,91.45
1331,E2,161.75,0.25,85,91.45
1332,B1,161.75,0.25,85,91.45
1333,E4,162.0,0.25,90,91.45
1334,F2,162.0,0.25,89,91.45
1335,E2,162.0,0.25,89,91.45
1336,B1,162.0,0.25,89,91.45
1337,C4,162.25,0.25,90,91.45
1338,F2,162.25,0.25,92,91.45
1339,E2,162.25,0.25,92,91.45
1340,B1,162.25,0.25,92,91.45
1341,A5,162.5,0.5,90,91.45
1342,E5,162.5,0.5,90,91.45
1343,E6,162.5,0.5,90,91.45
1344,F2,162.5,0.25,96,91.45
1345,E2,162.5,0.25,96,91.45
1346,B1,162.5,0.25,96,91.45
1347,F2,162.75,0.25,100,91.45
1348,E2,162.75,0.25,100,91.45
1349,B1,162.75,0.25,100,91.45
1350,E3,163.0,0.25,127,91.45
1351,F#5,163.0,0.75,90,91.45
1352,A4,163.0,0.75,90,91.45
1353,A5,163.0,0.75,90,91.45
1354,E2,163.5,1.0,100,91.45
1355,B1,163.5,0.25,100,91.45
1356,G4,163.75,0.75,90,91.45
1357,G5,163.75,0.75,90,91.45
1358,B-2,164.0,0.25,100,91.45
1359,F2,164.5,0.75,100,91.45
1360,B1,164.5,0.25,100,91.45
1361,D5,164.5,0.5,90,91.45
1362,F#4,164.5,0.5,90,91.45
1363,F#5,164.5,0.5,90,91.45
1364,A4,165.0,2.0,90,91.45
1365,D4,165.0,2.0,90,91.45
1366,D5,165.0,2.0,90,91.45
1367,B-2,165.0,0.25,100,91.45
1368,E2,165.0,0.25,100,91.45
1369,D2,165.5,0.625,100,91.45
1370,B-2,166.0,0.25,100,91.45
1371,E2,166.5,0.5,100,91.45
1372,B1,166.5,0.25,100,91.45
1373,E2,167.0,1.0,100,91.45
1374,B-2,167.0,0.25,100,91.45
1375,E3,167.5,1.0,100,91.45
1376,B4,167.5,1.0,50,91.45
1377,E5,167.5,1.0,50,91.45
1378,B1,168.0,1.5,100,91.45
1379,B1,168.0,0.25,100,91.45
1380,B-2,168.0,0.25,100,91.45
1381,F3,168.5,0.75,100,91.45
1382,C5,168.5,0.75,50,91.45
1383,F5,168.5,0.75,50,91.45
1384,E2,169.0,0.25,100,91.45
1385,B-2,169.0,0.25,100,91.45
1386,D3,169.5,0.625,100,91.45
1387,D2,169.5,1.5,100,91.45
1388,B1,169.5,0.25,100,91.45
1389,A4,169.5,0.625,50,91.45
1390,D5,169.5,0.625,50,91.45
1391,B-2,170.0,0.25,100,91.45
1392,E3,170.5,0.5,100,91.45
1393,B4,170.5,0.5,50,91.45
1394,E5,170.5,0.5,50,91.45
1395,E3,171.0,1.0,100,91.45
1396,E2,171.0,0.75,100,91.45
1397,B4,171.0,1.0,50,91.45
1398,E5,171.0,1.0,50,91.45
1399,B1,171.0,0.25,100,91.45
1400,B-2,171.0,0.25,100,91.45
1401,E2,171.5,0.25,70,91.45
1402,B2,172.0,1.5,100,91.45
1403,F2,172.0,0.5,100,91.45
1404,F#4,172.0,1.5,50,91.45
1405,B4,172.0,1.5,50,91.45
1406,B-2,172.0,0.25,100,91.45
1407,B1,172.0,0.25,100,91.45
1408,E2,172.5,0.5,100,91.45
1409,B-2,172.5,0.25,100,91.45
1410,B1,172.5,0.25,100,91.45
1411,B1,173.0,0.5,100,91.45
1412,D3,173.5,1.5,100,91.45
1413,E1,173.5,0.5,100,91.45
1414,B-2,173.5,0.25,100,91.45
1415,A4,173.5,1.5,50,91.45
1416,D5,173.5,1.5,50,91.45
1417,E2,174.0,1.0,100,91.45
1418,B1,174.0,0.25,100,91.45
1419,B-2,174.5,0.25,100,91.45
1420,E3,175.0,0.75,100,91.45
1421,F2,175.0,0.75,100,91.45
1422,B1,175.0,0.25,100,91.45
1423,B4,175.0,0.75,50,91.45
1424,E5,175.0,0.75,50,91.45
1425,E2,175.5,0.25,100,91.45
1426,B-2,175.5,0.25,100,91.45
1427,F3,176.0,0.5,100,91.45
1428,D2,176.0,0.625,100,91.45
1429,B1,176.0,0.25,100,91.45
1430,C5,176.0,0.5,50,91.45
1431,F5,176.0,0.5,50,91.45
1432,E3,176.5,1.0,100,91.45
1433,B-2,176.5,0.25,100,91.45
1434,B4,176.5,1.0,50,91.45
1435,E5,176.5,1.0,50,91.45
1436,E2,177.0,0.5,100,91.45
1437,B1,177.0,0.25,100,91.45
1438,E3,177.5,0.25,100,91.45
1439,E2,177.5,1.0,100,91.45
1440,B-2,177.5,0.25,100,91.45
1441,B4,177.5,0.25,50,91.45
1442,E5,177.5,0.25,50,91.45
1443,E3,178.0,1.0,100,91.45
1444,B4,178.0,1.0,50,91.45
1445,E5,178.0,1.0,50,91.45
1446,B1,178.5,1.5,100,91.45
1447,B-2,178.5,0.25,100,91.45
1448,B1,178.5,0.25,100,91.45
1449,F3,179.0,0.75,100,91.45
1450,C5,179.0,0.75,50,91.45
1451,F5,179.0,0.75,50,91.45
1452,B-2,179.5,0.25,100,91.45
1453,E2,179.5,0.25,100,91.45
1454,D3,180.0,0.625,100,91.45
1455,D2,180.0,1.5,100,91.45
1456,B1,180.0,0.25,100,91.45
1457,A4,180.0,0.625,50,91.45
1458,D5,180.0,0.625,50,91.45
1459,B-2,180.5,0.25,100,91.45
1460,E3,181.0,0.5,100,91.45
1461,B4,181.0,0.5,50,91.45
1462,E5,181.0,0.5,50,91.45
1463,E3,181.5,1.0,100,91.45
1464,A1,181.5,0.5,100,91.45
1465,B4,181.5,1.0,50,91.45
1466,E5,181.5,1.0,50,91.45
1467,B1,181.5,0.25,100,91.45
1468,B-2,181.5,0.25,100,91.45
1469,G#1,182.0,0.5,100,91.45
1470,E2,182.0,0.25,80,91.45
1471,B2,182.5,1.5,100,91.45
1472,A1,182.5,0.5,100,91.45
1473,F#4,182.5,1.5,50,91.45
1474,B4,182.5,1.5,50,91.45
1475,B1,182.5,0.25,100,91.45
1476,B-2,182.5,0.25,100,91.45
1477,B1,183.0,0.5,100,91.45
1478,E2,183.0,0.25,80,91.45
1479,A1,183.5,0.5,100,91.45
1480,B1,183.5,0.25,100,91.45
1481,B-2,183.5,0.25,100,91.45
1482,D3,184.0,1.5,100,91.45
1483,G#1,184.0,0.5,100,91.45
1484,E2,184.0,0.25,80,91.45
1485,A4,184.0,1.5,50,91.45
1486,D5,184.0,1.5,50,91.45
1487,E-1,184.5,0.5,100,91.45
1488,B-2,184.5,0.25,100,91.45
1489,B1,184.5,0.25,100,91.45
1490,E1,185.0,0.375,100,91.45
1491,G3,185.0,0.25,80,91.45
1492,E3,185.0,0.25,80,91.45
1493,B1,185.0,0.25,80,91.45
1494,A2,185.5,0.5,100,91.45
1495,E2,185.5,1.0,100,91.45
1496,E4,185.5,0.5,50,91.45
1497,A4,185.5,0.5,50,91.45
1498,G#2,186.0,0.5,100,91.45
1499,B-2,186.0,0.25,100,91.45
1500,E-4,186.0,0.5,50,91.45
1501,G#4,186.0,0.5,50,91.45
1502,A2,186.5,0.5,100,91.45
1503,F2,186.5,0.75,100,91.45
1504,B1,186.5,0.25,100,91.45
1505,E4,186.5,0.5,50,91.45
1506,A4,186.5,0.5,50,91.45
1507,B2,187.0,0.5,100,91.45
1508,F#4,187.0,0.5,50,91.45
1509,B4,187.0,0.5,50,91.45
1510,E2,187.0,0.25,100,91.45
1511,B-2,187.0,0.25,100,91.45
1512,A2,187.5,0.5,100,91.45
1513,D2,187.5,0.625,100,91.45
1514,E4,187.5,0.5,50,91.45
1515,A4,187.5,0.5,50,91.45
1516,G#2,188.0,0.5,100,91.45
1517,B-2,188.0,0.25,100,91.45
1518,E-4,188.0,0.5,50,91.45
1519,G#4,188.0,0.5,50,91.45
1520,D3,188.5,0.5,100,91.45
1521,E2,188.5,0.5,100,91.45
1522,B1,188.5,0.25,100,91.45
1523,A4,188.5,0.5,50,91.45
1524,D5,188.5,0.5,50,91.45
1525,E3,189.0,0.375,100,91.45
1526,E2,189.0,1.0,100,91.45
1527,B-2,189.0,0.25,100,91.45
1528,B4,189.0,0.375,50,91.45
1529,E5,189.0,0.375,50,91.45
1530,E3,189.5,1.0,100,91.45
1531,B4,189.5,1.0,50,91.45
1532,E5,189.5,1.0,50,91.45
1533,B1,190.0,1.5,100,91.45
1534,B1,190.0,0.25,100,91.45
1535,B-2,190.0,0.25,100,91.45
1536,F3,190.5,0.75,100,91.45
1537,C5,190.5,0.75,50,91.45
1538,F5,190.5,0.75,50,91.45
1539,E2,191.0,0.25,100,91.45
1540,B-2,191.0,0.25,100,91.45
1541,D3,191.5,0.625,100,91.45
1542,D2,191.5,1.5,100,91.45
1543,B1,191.5,0.25,100,91.45
1544,A4,191.5,0.625,50,91.45
1545,D5,191.5,0.625,50,91.45
1546,B-2,192.0,0.25,100,91.45
1547,E3,192.5,0.5,100,91.45
1548,B4,192.5,0.5,50,91.45
1549,E5,192.5,0.5,50,91.45
1550,E3,193.0,1.0,100,91.45
1551,E2,193.0,0.75,100,91.45
1552,B4,193.0,1.0,50,91.45
1553,E5,193.0,1.0,50,91.45
1554,B1,193.0,0.25,100,91.45
1555,B-2,193.0,0.25,100,91.45
1556,E2,193.5,0.25,70,91.45
1557,B2,194.0,1.5,100,91.45
1558,F2,194.0,0.5,100,91.45
1559,F#4,194.0,1.5,50,91.45
1560,B4,194.0,1.5,50,91.45
1561,B1,194.0,0.25,90,91.45
1562,B-2,194.0,0.25,90,91.45
1563,E2,194.5,0.5,127,91.45
1564,B1,194.5,0.25,100,91.45
1565,B-2,194.5,0.25,100,91.45
1566,B1,195.0,0.5,127,91.45
1567,D3,195.5,1.5,100,91.45
1568,E1,195.5,0.5,127,91.45
1569,B-2,195.5,0.25,100,91.45
1570,A4,195.5,1.5,50,91.45
1571,D5,195.5,1.5,50,91.45
1572,E2,196.0,1.0,100,91.45
1573,B1,196.0,0.25,100,91.45
1574,B-2,196.5,0.25,100,91.45
1575,E3,197.0,0.75,100,91.45
1576,F2,197.0,0.75,100,91.45
1577,B1,197.0,0.25,100,91.45
1578,B4,197.0,0.75,50,91.45
1579,E5,197.0,0.75,50,91.45
1580,B-2,197.5,0.25,100,91.45
1581,E2,197.5,0.25,100,91.45
1582,F3,198.0,0.5,100,91.45
1583,D2,198.0,0.625,100,91.45
1584,C5,198.0,0.5,50,91.45
1585,F5,198.0,0.5,50,91.45
1586,E3,198.5,1.0,100,91.45
1587,B-2,198.5,0.25,100,91.45
1588,B4,198.5,1.0,50,91.45
1589,E5,198.5,1.0,50,91.45
1590,E2,199.0,0.5,100,91.45
1591,B1,199.0,0.25,100,91.45
1592,E3,199.5,0.25,100,91.45
1593,E2,199.5,1.0,100,91.45
1594,B-2,199.5,0.25,100,91.45
1595,B4,199.5,0.25,50,91.45
1596,E5,199.5,0.25,50,91.45
1597,E3,200.0,1.0,100,91.45
1598,B4,200.0,1.0,50,91.45
1599,E5,200.0,1.0,50,91.45
1600,B1,200.5,1.5,100,91.45
1601,B1,200.5,0.25,100,91.45
1602,B-2,200.5,0.25,100,91.45
1603,F3,201.0,0.75,100,91.45
1604,C5,201.0,0.75,50,91.45
1605,F5,201.0,0.75,50,91.45
1606,E2,201.5,0.25,100,91.45
1607,B-2,201.5,0.25,100,91.45
1608,D3,202.0,0.625,100,91.45
1609,D2,202.0,1.5,100,91.45
1610,B1,202.0,0.25,100,91.45
1611,A4,202.0,0.625,50,91.45
1612,D5,202.0,0.625,50,91.45
1613,B-2,202.5,0.25,100,91.45
1614,E3,203.0,0.5,100,91.45
1615,B4,203.0,0.5,50,91.45
1616,E5,203.0,0.5,50,91.45
1617,E3,203.5,1.0,100,91.45
1618,B-2,203.5,0.25,100,91.45
1619,B4,203.5,1.0,50,91.45
1620,E5,203.5,1.0,50,91.45
1621,G#1,204.0,667/1000,100,91.45
1622,E2,204.0,0.25,100,91.45
1623,B2,204.5,1.5,100,91.45
1624,B-2,204.5,0.25,100,91.45
1625,F#4,204.5,1.5,50,91.45
1626,B4,204.5,1.5,50,91.45
1627,A1,205.0,0.5,100,91.45
1628,E2,205.0,0.25,100,91.45
1629,B1,205.5,1.0,100,91.45
1630,E2,205.5,0.25,100,91.45
1631,D3,206.0,1.5,100,91.45
1632,A4,206.0,1.5,50,91.45
1633,D5,206.0,1.5,50,91.45
1634,B-2,206.5,0.25,100,91.45
1635,C2,207.0,667/1000,100,91.45
1636,E2,207.0,0.25,100,91.45
1637,B-2,207.5,0.25,100,91.45
1638,G#2,208.0,667/1000,100,91.45
1639,D2,208.0,0.5,100,91.45
1640,E2,208.0,0.25,100,91.45
1641,E-4,208.0,667/1000,50,91.45
1642,G#4,208.0,667/1000,50,91.45
1643,E2,208.5,1.0,100,91.45
1644,E2,208.5,0.25,100,91.45
1645,A2,209.0,0.5,100,91.45
1646,E4,209.0,0.5,50,91.45
1647,A4,209.0,0.5,50,91.45
1648,B2,209.5,1.0,100,91.45
1649,B1,209.5,3.0,85,91.45
1650,F#4,209.5,1.0,50,91.45
1651,B4,209.5,1.0,50,91.45
1652,B1,209.5,0.25,75,91.45
1653,C#3,209.5,0.25,75,91.45
1654,F#2,210.0,0.25,65,91.45
1655,G#4,210.0,0.5,100,91.45
1656,E4,210.0,0.5,100,91.45
1657,F#2,210.5,0.25,65,91.45
1658,C3,211.0,667/1000,100,91.45
1659,B1,211.0,0.25,75,91.45
1660,G#4,211.0,1.0,100,91.45
1661,E4,211.0,1.0,100,91.45
1662,G4,211.0,667/1000,50,91.45
1663,C5,211.0,667/1000,50,91.45
1664,F#2,211.5,0.25,65,91.45
1665,D3,212.0,0.5,100,91.45
1666,B1,212.0,0.25,75,91.45
1667,E4,212.0,333/1000,100,91.45
1668,G#4,212.0,333/1000,100,91.45
1669,A4,212.0,0.5,50,91.45
1670,D5,212.0,0.5,50,91.45
1671,E3,212.5,1.0,100,91.45
1672,A1,212.5,3.0,85,91.45
1673,B3,212.5,3.0,100,91.45
1674,E4,212.5,3.0,100,91.45
1675,G#4,212.5,3.0,100,91.45
1676,B4,212.5,1.0,50,91.45
1677,E5,212.5,1.0,50,91.45
1678,E2,212.5,0.25,75,91.45
1679,F#2,212.5,0.25,75,91.45
1680,F#2,213.0,0.25,65,91.45
1681,F#2,213.5,0.25,65,91.45
1682,G#4,214.0,0.5,115,91.45
1683,B1,214.0,0.25,75,91.45
1684,G#4,214.0,0.5,60,91.45
1685,E4,214.0,0.5,60,91.45
1686,F#2,214.5,0.25,65,91.45
1687,G#4,215.0,1.0,115,91.45
1688,B1,215.0,0.25,75,91.45
1689,G#4,215.0,1.0,60,91.45
1690,E4,215.0,1.0,60,91.45
1691,C2,215.5,3.0,85,91.45
1692,D5,215.5,3.0,100,91.45
1693,G4,215.5,3.0,100,91.45
1694,C4,215.5,3.0,100,91.45
1695,B1,215.5,0.25,75,91.45
1696,F#2,215.5,0.25,75,91.45
1697,A4,216.0,0.5,115,91.45
1698,F#2,216.0,0.25,65,91.45
1699,E4,216.0,333/1000,60,91.45
1700,G#4,216.0,333/1000,60,91.45
1701,B4,216.5,1229/500,115,91.45
1702,F#2,216.5,0.25,65,91.45
1703,B3,216.5,3.0,60,91.45
1704,E4,216.5,3.0,60,91.45
1705,G#4,216.5,3.0,60,91.45
1706,B1,217.0,0.25,75,91.45
1707,F#2,217.5,0.25,65,91.45
1708,B1,218.0,0.25,75,91.45
1709,D2,218.5,3.0,85,91.45
1710,D5,218.5,3.0,100,91.45
1711,F#4,218.5,3.0,100,91.45
1712,D4,218.5,3.0,100,91.45
1713,A4,218.5,3.0,100,91.45
1714,F#2,218.5,0.25,75,91.45
1715,E2,218.5,0.25,75,91.45
1716,D5,219.0,0.25,115,91.45
1717,F#2,219.0,0.25,65,91.45
1718,E5,219.25,0.25,115,91.45
1719,D5,219.5,1.0,115,91.45
1720,F#2,219.5,0.25,65,91.45
1721,D5,219.5,3.0,60,91.45
1722,G4,219.5,3.0,60,91.45
1723,C4,219.5,3.0,60,91.45
1724,B1,220.0,0.25,75,91.45
1725,B4,220.5,0.5,115,91.45
1726,F#2,220.5,0.25,65,91.45
1727,G4,221.0,1.0,115,91.45
1728,B1,221.0,0.25,75,91.45
1729,B1,221.5,3.0,85,91.45
1730,B3,221.5,3.0,100,91.45
1731,E4,221.5,3.0,100,91.45
1732,G#4,221.5,3.0,100,91.45
1733,B1,221.5,0.25,75,91.45
1734,C#3,221.5,0.25,75,91.45
1735,B4,222.0,0.5,115,91.45
1736,F#2,222.0,0.25,65,91.45
1737,A4,222.5,79/500,115,91.45
1738,F#2,222.5,0.25,65,91.45
1739,D5,222.5,3.0,60,91.45
1740,F#4,222.5,3.0,60,91.45
1741,D4,222.5,3.0,60,91.45
1742,A4,222.5,3.0,60,91.45
1743,B4,222.658,11/40,115,91.45
1744,A4,222.908,74/125,115,91.45
1745,B1,223.0,0.25,75,91.45
1746,F#4,223.5,0.5,115,91.45
1747,F#2,223.5,0.25,65,91.45
1748,D4,224.0,1.5,115,91.45
1749,B1,224.0,0.25,75,91.45
1750,A1,224.5,3.0,85,91.45
1751,A3,224.5,3.0,100,91.45
1752,E4,224.5,3.0,100,91.45
1753,G#4,224.5,3.0,100,91.45
1754,F#2,224.5,0.25,75,91.45
1755,E2,224.5,0.25,75,91.45
1756,F#2,225.0,0.25,65,91.45
1757,F#2,225.5,0.25,65,91.45
1758,B3,225.5,3.0,60,91.45
1759,E4,225.5,3.0,60,91.45
1760,G#4,225.5,3.0,60,91.45
1761,G#4,226.0,0.5,115,91.45
1762,B1,226.0,0.25,75,91.45
1763,F#2,226.5,0.25,65,91.45
1764,G#4,227.0,1.0,115,91.45
1765,B1,227.0,0.25,75,91.45
1766,C2,227.5,1.5,85,91.45
1767,D5,227.5,3.0,100,91.45
1768,G4,227.5,3.0,100,91.45
1769,C4,227.5,3.0,100,91.45
1770,F#2,227.5,0.25,75,91.45
1771,B1,227.5,0.25,75,91.45
1772,A4,228.0,0.5,115,91.45
1773,F#2,228.0,0.25,65,91.45
1774,B4,228.5,1229/500,115,91.45
1775,F#2,228.5,0.25,65,91.45
1776,A3,228.5,3.0,60,91.45
1777,E4,228.5,3.0,60,91.45
1778,G#4,228.5,3.0,60,91.45
1779,E2,229.0,1.5,85,91.45
1780,B1,229.0,0.25,75,91.45
1781,F#2,229.5,0.25,65,91.45
1782,B1,230.0,0.25,75,91.45
1783,D2,230.5,0.5,85,91.45
1784,D5,230.5,0.5,100,91.45
1785,F#4,230.5,0.5,100,91.45
1786,D4,230.5,0.5,100,91.45
1787,A4,230.5,0.5,100,91.45
1788,G3,230.5,0.25,80,91.45
1789,E2,230.5,0.25,80,91.45
1790,D5,231.0,0.25,115,91.45
1791,E5,231.25,0.25,115,91.45
1792,D5,231.5,1.0,115,91.45
1793,D2,231.5,0.5,85,91.45
1794,D5,231.5,0.5,100,91.45
1795,F#4,231.5,0.5,100,91.45
1796,D4,231.5,0.5,100,91.45
1797,A4,231.5,0.5,100,91.45
1798,D5,231.5,3.0,60,91.45
1799,G4,231.5,3.0,60,91.45
1800,C4,231.5,3.0,60,91.45
1801,A3,231.5,0.25,75,91.45
1802,E2,231.5,0.25,75,91.45
1803,B4,232.5,0.5,115,91.45
1804,B1,232.5,3.0,85,91.45
1805,B3,232.5,3.0,100,91.45
1806,E4,232.5,3.0,100,91.45
1807,G#4,232.5,3.0,100,91.45
1808,B1,232.5,0.25,100,91.45
1809,F#2,232.5,0.25,100,91.45
1810,G4,233.0,0.5,115,91.45
1811,F#2,233.0,0.25,100,91.45
1812,B4,233.5,0.5,115,91.45
1813,F#2,233.5,0.25,100,91.45
1814,A4,234.0,0.5,115,91.45
1815,B1,234.0,0.25,100,91.45
1816,A4,234.5,2.0,115,91.45
1817,F#2,234.5,0.25,100,91.45
1818,D5,234.5,0.5,60,91.45
1819,F#4,234.5,0.5,60,91.45
1820,D4,234.5,0.5,60,91.45
1821,A4,234.5,0.5,60,91.45
1822,B1,235.0,0.25,100,91.45
1823,A1,235.5,3.0,85,91.45
1824,A3,235.5,3.0,100,91.45
1825,E4,235.5,3.0,100,91.45
1826,G#4,235.5,3.0,100,91.45
1827,D5,235.5,0.5,60,91.45
1828,F#4,235.5,0.5,60,91.45
1829,D4,235.5,0.5,60,91.45
1830,A4,235.5,0.5,60,91.45
1831,F#2,235.5,0.25,100,91.45
1832,E2,235.5,0.25,100,91.45
1833,F#2,236.0,0.25,100,91.45
1834,F#2,236.5,0.25,100,91.45
1835,B3,236.5,3.0,60,91.45
1836,E4,236.5,3.0,60,91.45
1837,G#4,236.5,3.0,60,91.45
1838,G#4,237.0,0.5,115,91.45
1839,B1,237.0,0.25,100,91.45
1840,F#2,237.5,0.25,100,91.45
1841,G#4,238.0,1.0,115,91.45
1842,B1,238.0,0.25,100,91.45
1843,G1,238.5,3.0,85,91.45
1844,D5,238.5,3.0,100,91.45
1845,G4,238.5,3.0,100,91.45
1846,C4,238.5,3.0,100,91.45
1847,F#2,238.5,0.25,100,91.45
1848,B1,238.5,0.25,100,91.45
1849,A4,239.0,0.5,115,91.45
1850,F#2,239.0,0.25,100,91.45
1851,B4,239.5,2.25,115,91.45
1852,F#2,239.5,0.25,100,91.45
1853,A3,239.5,3.0,60,91.45
1854,E4,239.5,3.0,60,91.45
1855,G#4,239.5,3.0,60,91.45
1856,B1,240.0,0.25,100,91.45
1857,F#2,240.5,0.25,100,91.45
1858,B1,241.0,0.25,100,91.45
1859,F#1,241.5,1.0,85,91.45
1860,D5,241.5,3.0,100,91.45
1861,F#4,241.5,3.0,100,91.45
1862,D4,241.5,3.0,100,91.45
1863,A4,241.5,3.0,100,91.45
1864,F#2,241.5,0.25,100,91.45
1865,E2,241.5,0.25,100,91.45
1866,D5,241.808,24/125,115,91.45
1867,E5,242.0,0.5,115,91.45
1868,F#2,242.0,0.25,100,91.45
1869,G5,242.5,1.0,115,91.45
1870,A1,242.5,1.0,85,91.45
1871,F#2,242.5,0.25,100,91.45
1872,D5,242.5,3.0,60,91.45
1873,G4,242.5,3.0,60,91.45
1874,C4,242.5,3.0,60,91.45
1875,B1,243.0,0.25,100,91.45
1876,F#5,243.5,0.5,115,91.45
1877,D2,243.5,1.0,85,91.45
1878,F#2,243.5,0.25,100,91.45
1879,E5,244.0,1.0,115,91.45
1880,E2,244.0,0.25,80,91.45
1881,A1,244.5,0.5,85,91.45
1882,C5,244.5,0.5,100,91.45
1883,A4,244.5,0.5,100,91.45
1884,F4,244.5,0.5,100,91.45
1885,C4,244.5,0.5,100,91.45
1886,B1,244.5,0.25,80,91.45
1887,C#3,244.5,0.25,80,91.45
1888,F#5,245.0,0.5,115,91.45
1889,A1,245.0,0.5,85,91.45
1890,F#2,245.0,0.25,100,91.45
1891,C4,245.0,0.5,100,91.45
1892,F4,245.0,0.5,100,91.45
1893,A4,245.0,0.5,100,91.45
1894,C5,245.0,0.5,100,91.45
1895,D5,245.5,3.0,115,91.45
1896,F#2,245.5,0.25,100,91.45
1897,D5,245.5,3.0,60,91.45
1898,F#4,245.5,3.0,60,91.45
1899,D4,245.5,3.0,60,91.45
1900,A4,245.5,3.0,60,91.45
1901,A1,246.0,1.0,85,91.45
1902,B1,246.0,0.25,100,91.45
1903,C5,246.0,1.0,80,91.45
1904,A4,246.0,1.0,80,91.45
1905,F4,246.0,1.0,80,91.45
1906,C4,246.0,1.0,80,91.45
1907,F#2,246.5,0.25,100,91.45
1908,A1,247.0,0.5,85,91.45
1909,B1,247.0,0.25,100,91.45
1910,C4,247.0,0.5,80,91.45
1911,F4,247.0,0.5,80,91.45
1912,A4,247.0,0.5,80,91.45
1913,C5,247.0,0.5,80,91.45
1914,G1,247.5,1.0,85,91.45
1915,C5,247.5,3.0,100,91.45
1916,E4,247.5,3.0,100,91.45
1917,G4,247.5,3.0,100,91.45
1918,C4,247.5,3.0,100,91.45
1919,G3,247.5,0.25,85,91.45
1920,E2,247.5,0.25,85,91.45
1921,E2,248.25,0.25,80,91.45
1922,B4,248.5,1.0,115,91.45
1923,C2,248.5,1.0,85,91.45
1924,E2,248.5,0.25,100,91.45
1925,C5,248.5,17/40,60,91.45
1926,A4,248.5,17/40,60,91.45
1927,F4,248.5,17/40,60,91.45
1928,C4,248.5,17/40,60,91.45
1929,E2,249.0,0.25,100,91.45
1930,C4,249.0,17/40,60,91.45
1931,F4,249.0,17/40,60,91.45
1932,A4,249.0,17/40,60,91.45
1933,C5,249.0,17/40,60,91.45
1934,B4,249.5,0.5,115,91.45
1935,E2,249.5,1.0,85,91.45
1936,E2,249.5,0.25,100,91.45
1937,A4,250.0,0.5,115,91.45
1938,E2,250.0,0.25,100,91.45
1939,C5,250.0,17/20,60,91.45
1940,A4,250.0,17/20,60,91.45
1941,F4,250.0,17/20,60,91.45
1942,C4,250.0,17/20,60,91.45
1943,B4,250.5,0.5,115,91.45
1944,A1,250.5,3.0,100,91.45
1945,B1,250.5,0.25,100,91.45
1946,A3,250.5,0.25,100,91.45
1947,G4,251.0,0.5,115,91.45
1948,F#2,251.0,0.25,75,91.45
1949,E4,251.0,1.0,100,91.45
1950,C#5,251.0,1.0,100,91.45
1951,C#4,251.0,1.0,100,91.45
1952,C4,251.0,17/40,60,91.45
1953,F4,251.0,17/40,60,91.45
1954,A4,251.0,17/40,60,91.45
1955,C5,251.0,17/40,60,91.45
1956,G4,251.5,3.0,115,91.45
1957,F#2,251.5,0.25,100,91.45
1958,C4,251.5,3.0,60,91.45
1959,E4,251.5,3.0,60,91.45
1960,G4,251.5,3.0,60,91.45
1961,C5,251.5,3.0,60,91.45
1962,E4,252.0,1.0,100,91.45
1963,D5,252.0,1.0,100,91.45
1964,D4,252.0,1.0,100,91.45
1965,B1,252.0,0.25,88,91.45
1966,F#2,252.0,0.25,88,91.45
1967,F#2,252.5,0.25,100,91.45
1968,E2,252.5,0.25,100,91.45
1969,F#2,253.0,0.25,75,91.45
1970,A4,253.0,583/1000,100,91.45
1971,E5,253.0,583/1000,100,91.45
1972,E4,253.0,583/1000,100,91.45
1973,F#2,253.5,0.25,100,91.45
1974,A1,254.0,833/1000,100,91.45
1975,B1,254.0,0.25,100,91.45
1976,A4,254.0,1.5,100,91.45
1977,E4,254.0,1.5,100,91.45
1978,E5,254.0,1.5,100,91.45
1979,A2,254.5,0.5,93,91.45
1980,F#2,254.5,0.25,100,91.45
1981,E3,255.0,0.5,93,91.45
1982,B1,255.0,0.25,100,91.45
1983,E4,255.0,1.0,70,91.45
1984,C#5,255.0,1.0,70,91.45
1985,C#4,255.0,1.0,70,91.45
1986,B1,255.5,1.0,100,91.45
1987,B4,255.5,1.0,100,91.45
1988,C#5,255.5,1.0,100,91.45
1989,E5,255.5,1.0,100,91.45
1990,E4,255.5,1.0,100,91.45
1991,E2,255.5,0.25,100,91.45
1992,B-2,255.5,0.25,100,91.45
1993,A3,256.0,0.5,93,91.45
1994,E4,256.0,1.0,70,91.45
1995,D5,256.0,1.0,70,91.45
1996,D4,256.0,1.0,70,91.45
1997,C2,256.5,3.0,100,91.45
1998,B1,256.5,0.25,85,91.45
1999,C#3,256.5,0.25,85,91.45
2000,E4,257.0,0.5,93,91.45
2001,F#2,257.0,0.25,100,91.45
2002,G4,257.0,1.0,100,91.45
2003,C4,257.0,1.0,100,91.45
2004,C5,257.0,1.0,100,91.45
2005,A4,257.0,583/1000,70,91.45
2006,E5,257.0,583/1000,70,91.45
2007,E4,257.0,583/1000,70,91.45
2008,B-2,257.5,0.25,120,91.45
2009,A3,258.0,0.5,93,91.45
2010,B1,258.0,0.25,100,91.45
2011,G4,258.0,1.0,100,91.45
2012,D4,258.0,1.0,100,91.45
2013,D5,258.0,1.0,100,91.45
2014,A4,258.0,1.5,70,91.45
2015,E4,258.0,1.5,70,91.45
2016,E5,258.0,1.5,70,91.45
2017,F#2,258.5,0.25,100,91.45
2018,E2,258.5,0.25,100,91.45
2019,A2,259.0,0.5,93,91.45
2020,F#2,259.0,0.25,100,91.45
2021,C5,259.0,583/1000,100,91.45
2022,E4,259.0,583/1000,100,91.45
2023,E5,259.0,583/1000,100,91.45
2024,B2,259.5,0.5,93,91.45
2025,F#2,259.5,0.25,100,91.45
2026,A4,259.5,1.0,70,91.45
2027,C#5,259.5,1.0,70,91.45
2028,E5,259.5,1.0,70,91.45
2029,E4,259.5,1.0,70,91.45
2030,D2,260.0,833/1000,100,91.45
2031,B1,260.0,0.25,100,91.45
2032,A4,260.0,1.5,100,91.45
2033,D4,260.0,1.5,100,91.45
2034,D5,260.0,1.5,100,91.45
2035,C3,260.5,0.5,93,91.45
2036,F#2,260.5,0.25,100,91.45
2037,E3,261.0,0.5,93,91.45
2038,A1,261.0,0.5,100,91.45
2039,B1,261.0,0.25,100,91.45
2040,G4,261.0,1.0,70,91.45
2041,C4,261.0,1.0,70,91.45
2042,C5,261.0,1.0,70,91.45
2043,D1,261.5,1.0,93,91.45
2044,A4,261.5,1.0,100,91.45
2045,D4,261.5,1.0,100,91.45
2046,D5,261.5,1.0,100,91.45
2047,E2,261.5,0.25,100,91.45
2048,B-2,261.5,0.25,100,91.45
2049,G3,262.0,0.5,93,91.45
2050,G4,262.0,1.0,70,91.45
2051,D4,262.0,1.0,70,91.45
2052,D5,262.0,1.0,70,91.45
2053,A1,262.5,3.0,100,91.45
2054,B1,262.5,0.25,100,91.45
2055,C3,263.0,0.5,93,91.45
2056,F#2,263.0,0.25,60,91.45
2057,E4,263.0,1.0,100,91.45
2058,C#5,263.0,1.0,100,91.45
2059,C#4,263.0,1.0,100,91.45
2060,C5,263.0,583/1000,70,91.45
2061,E4,263.0,583/1000,70,91.45
2062,E5,263.0,583/1000,70,91.45
2063,D3,263.5,0.5,93,91.45
2064,F#2,263.5,0.25,100,91.45
2065,F#3,264.0,0.5,93,91.45
2066,B1,264.0,0.25,100,91.45
2067,E4,264.0,1.0,100,91.45
2068,D5,264.0,1.0,100,91.45
2069,D4,264.0,1.0,100,91.45
2070,A4,264.0,1.5,70,91.45
2071,D4,264.0,1.5,70,91.45
2072,D5,264.0,1.5,70,91.45
2073,E2,264.5,0.25,100,91.45
2074,G3,265.0,0.5,93,91.45
2075,F#2,265.0,0.25,100,91.45
2076,A4,265.0,583/1000,100,91.45
2077,E5,265.0,583/1000,100,91.45
2078,E4,265.0,583/1000,100,91.45
2079,F#2,265.5,0.25,100,91.45
2080,A4,265.5,1.0,70,91.45
2081,D4,265.5,1.0,70,91.45
2082,D5,265.5,1.0,70,91.45
2083,F#3,266.0,0.5,93,91.45
2084,A1,266.0,833/1000,100,91.45
2085,B1,266.0,0.25,100,91.45
2086,A4,266.0,1.5,100,91.45
2087,E4,266.0,1.5,100,91.45
2088,E5,266.0,1.5,100,91.45
2089,A2,266.5,0.5,93,91.45
2090,F#2,266.5,0.25,100,91.45
2091,E3,267.0,0.5,93,91.45
2092,B1,267.0,0.25,100,91.45
2093,E4,267.0,1.0,70,91.45
2094,C#5,267.0,1.0,70,91.45
2095,C#4,267.0,1.0,70,91.45
2096,B1,267.5,1.0,100,91.45
2097,B4,267.5,1.0,100,91.45
2098,C#5,267.5,1.0,100,91.45
2099,E5,267.5,1.0,100,91.45
2100,E4,267.5,1.0,100,91.45
2101,B-2,267.5,0.25,100,91.45
2102,E2,267.5,0.25,100,91.45
2103,A3,268.0,0.5,93,91.45
2104,E4,268.0,1.0,70,91.45
2105,D5,268.0,1.0,70,91.45
2106,D4,268.0,1.0,70,91.45
2107,C2,268.5,0.75,100,91.45
2108,C5,268.5,7/20,85,91.45
2109,G#2,268.5,1.0,100,91.45
2110,E2,268.5,0.25,100,91.45
2111,E4,269.0,0.5,93,91.45
2112,B4,269.0,7/20,85,91.45
2113,A4,269.0,583/1000,70,91.45
2114,E5,269.0,583/1000,70,91.45
2115,E4,269.0,583/1000,70,91.45
2116,A4,269.5,7/20,85,91.45
2117,G#2,269.5,0.25,100,91.45
2118,A3,270.0,0.5,93,91.45
2119,G4,270.0,7/20,85,91.45
2120,A4,270.0,1.5,70,91.45
2121,E4,270.0,1.5,70,91.45
2122,E5,270.0,1.5,70,91.45
2123,A4,270.5,7/20,85,91.45
2124,G#2,270.5,0.25,100,91.45
2125,A2,271.0,0.5,93,91.45
2126,B4,271.0,7/20,85,91.45
2127,B1,271.0,0.25,100,91.45
2128,B2,271.5,0.5,93,91.45
2129,D1,271.5,1.0,100,91.45
2130,A4,271.5,2.0,85,91.45
2131,E3,271.5,1.0,80,91.45
2132,E2,271.5,0.25,100,91.45
2133,A4,271.5,1.0,70,91.45
2134,C#5,271.5,1.0,70,91.45
2135,E5,271.5,1.0,70,91.45
2136,E4,271.5,1.0,70,91.45
2137,D1,272.5,1.0,100,91.45
2138,C4,272.5,7/20,105,91.45
2139,E2,272.5,0.25,100,91.45
2140,E3,272.5,1.0,80,91.45
2141,C4,272.5,0.75,100,91.45
2142,G3,272.5,0.75,100,91.45
2143,C3,272.5,0.75,100,91.45
2144,B3,273.0,7/20,105,91.45
2145,A1,273.5,3.0,100,91.45
2146,A3,273.5,7/20,105,91.45
2147,B1,273.5,0.25,100,91.45
2148,A3,273.5,0.25,100,91.45
2149,G3,274.0,7/20,105,91.45
2150,F#2,274.0,0.25,75,91.45
2151,E4,274.0,1.0,100,91.45
2152,C#5,274.0,1.0,100,91.45
2153,C#4,274.0,1.0,100,91.45
2154,A3,274.5,7/20,105,91.45
2155,F#2,274.5,0.25,100,91.45
2156,B3,275.0,7/20,105,91.45
2157,E4,275.0,1.0,100,91.45
2158,D5,275.0,1.0,100,91.45
2159,D4,275.0,1.0,100,91.45
2160,B1,275.0,0.25,88,91.45
2161,F#2,275.0,0.25,88,91.45
2162,A3,275.5,2.0,105,91.45
2163,D4,275.5,1.0,100,91.45
2164,A3,275.5,1.0,100,91.45
2165,D3,275.5,1.0,100,91.45
2166,F#2,275.5,0.25,100,91.45
2167,E2,275.5,0.25,100,91.45
2168,F#2,276.0,0.25,75,91.45
2169,A4,276.0,583/1000,100,91.45
2170,E5,276.0,583/1000,100,91.45
2171,E4,276.0,583/1000,100,91.45
2172,F#2,276.5,0.25,100,91.45
2173,D3,276.5,1.0,100,91.45
2174,A3,276.5,1.0,100,91.45
2175,D4,276.5,1.0,100,91.45
2176,A1,277.0,833/1000,100,91.45
2177,B1,277.0,0.25,100,91.45
2178,A4,277.0,1.5,100,91.45
2179,E4,277.0,1.5,100,91.45
2180,E5,277.0,1.5,100,91.45
2181,A2,277.5,0.5,93,91.45
2182,F#2,277.5,0.25,100,91.45
2183,E3,278.0,0.5,93,91.45
2184,B1,278.0,0.25,100,91.45
2185,E4,278.0,1.0,70,91.45
2186,C#5,278.0,1.0,70,91.45
2187,C#4,278.0,1.0,70,91.45
2188,B1,278.5,1.0,100,91.45
2189,B4,278.5,1.0,100,91.45
2190,C#5,278.5,1.0,100,91.45
2191,E5,278.5,1.0,100,91.45
2192,E4,278.5,1.0,100,91.45
2193,E2,278.5,0.25,100,91.45
2194,B-2,278.5,0.25,100,91.45
2195,A3,279.0,0.5,93,91.45
2196,E4,279.0,1.0,70,91.45
2197,D5,279.0,1.0,70,91.45
2198,D4,279.0,1.0,70,91.45
2199,C2,279.5,3.0,100,91.45
2200,B1,279.5,0.25,85,91.45
2201,C#3,279.5,0.25,85,91.45
2202,E4,280.0,0.5,93,91.45
2203,F#2,280.0,0.25,100,91.45
2204,G4,280.0,1.0,100,91.45
2205,C4,280.0,1.0,100,91.45
2206,C5,280.0,1.0,100,91.45
2207,A4,280.0,583/1000,70,91.45
2208,E5,280.0,583/1000,70,91.45
2209,E4,280.0,583/1000,70,91.45
2210,F#2,280.5,0.25,120,91.45
2211,A3,281.0,0.5,93,91.45
2212,B1,281.0,0.25,100,91.45
2213,G4,281.0,1.0,100,91.45
2214,D4,281.0,1.0,100,91.45
2215,D5,281.0,1.0,100,91.45
2216,A4,281.0,1.5,70,91.45
2217,E4,281.0,1.5,70,91.45
2218,E5,281.0,1.5,70,91.45
2219,F#2,281.5,0.25,100,91.45
2220,E2,281.5,0.25,100,91.45
2221,A2,282.0,0.5,93,91.45
2222,F#2,282.0,0.25,100,91.45
2223,C5,282.0,583/1000,100,91.45
2224,E4,282.0,583/1000,100,91.45
2225,E5,282.0,583/1000,100,91.45
2226,B2,282.5,0.5,93,91.45
2227,F#2,282.5,0.25,100,91.45
2228,A4,282.5,1.0,70,91.45
2229,C#5,282.5,1.0,70,91.45
2230,E5,282.5,1.0,70,91.45
2231,E4,282.5,1.0,70,91.45
2232,D2,283.0,833/1000,100,91.45
2233,B1,283.0,0.25,100,91.45
2234,A4,283.0,1.5,100,91.45
2235,D4,283.0,1.5,100,91.45
2236,D5,283.0,1.5,100,91.45
2237,C3,283.5,0.5,93,91.45
2238,F#2,283.5,0.25,100,91.45
2239,E3,284.0,0.5,93,91.45
2240,A1,284.0,0.5,100,91.45
2241,B1,284.0,0.25,100,91.45
2242,G4,284.0,1.0,70,91.45
2243,C4,284.0,1.0,70,91.45
2244,C5,284.0,1.0,70,91.45
2245,D1,284.5,1.0,100,91.45
2246,A4,284.5,1.0,100,91.45
2247,D4,284.5,1.0,100,91.45
2248,D5,284.5,1.0,100,91.45
2249,E2,284.5,0.25,100,91.45
2250,B-2,284.5,0.25,100,91.45
2251,G3,285.0,0.5,93,91.45
2252,G4,285.0,1.0,70,91.45
2253,D4,285.0,1.0,70,91.45
2254,D5,285.0,1.0,70,91.45
2255,A1,285.5,3.0,100,91.45
2256,G#2,285.5,0.25,110,91.45
2257,B1,285.5,0.25,110,91.45
2258,C3,286.0,0.5,93,91.45
2259,F#2,286.0,0.25,60,91.45
2260,C5,286.0,1.0,100,91.45
2261,C4,286.0,1.0,100,91.45
2262,F4,286.0,1.0,100,91.45
2263,C5,286.0,583/1000,70,91.45
2264,E4,286.0,583/1000,70,91.45
2265,E5,286.0,583/1000,70,91.45
2266,D3,286.5,0.5,93,91.45
2267,F#2,286.5,0.25,100,91.45
2268,F#3,287.0,0.5,93,91.45
2269,B1,287.0,0.25,100,91.45
2270,C5,287.0,1.0,100,91.45
2271,C4,287.0,1.0,100,91.45
2272,F4,287.0,1.0,100,91.45
2273,A4,287.0,1.5,70,91.45
2274,D4,287.0,1.5,70,91.45
2275,D5,287.0,1.5,70,91.45
2276,E2,287.5,0.25,100,91.45
2277,G3,288.0,0.5,93,91.45
2278,F#2,288.0,0.25,100,91.45
2279,C5,288.0,0.5,100,91.45
2280,C4,288.0,0.5,100,91.45
2281,G4,288.0,0.5,100,91.45
2282,F#2,288.5,0.25,100,91.45
2283,A4,288.5,1.0,70,91.45
2284,D4,288.5,1.0,70,91.45
2285,D5,288.5,1.0,70,91.45
2286,F#3,289.0,0.5,93,91.45
2287,A1,289.0,833/1000,100,91.45
2288,B1,289.0,0.25,100,91.45
2289,C5,289.0,1.5,100,91.45
2290,C4,289.0,1.5,100,91.45
2291,A4,289.0,1.5,100,91.45
2292,A2,289.5,0.5,93,91.45
2293,F#2,289.5,0.25,100,91.45
2294,F3,290.0,0.5,93,91.45
2295,B1,290.0,0.25,100,91.45
2296,A4,290.0,1.0,85,91.45
2297,F4,290.0,1.0,85,91.45
2298,B1,290.5,1.0,100,91.45
2299,G4,290.5,1.0,100,91.45
2300,B4,290.5,1.0,100,91.45
2301,B-2,290.5,0.25,100,91.45
2302,E2,290.5,0.25,100,91.45
2303,A3,291.0,0.5,93,91.45
2304,A4,291.0,1.0,85,91.45
2305,F4,291.0,1.0,85,91.45
2306,C2,291.5,1.5,100,91.45
2307,E4,291.5,1.5,100,91.45
2308,G4,291.5,1.5,100,91.45
2309,G3,291.5,1.5,100,91.45
2310,C3,291.5,1.5,100,91.45
2311,B1,291.5,0.25,100,91.45
2312,C#3,291.5,0.25,100,91.45
2313,E3,292.0,0.5,93,91.45
2314,D4,292.0,0.5,80,91.45
2315,B4,292.0,0.5,80,91.45
2316,G4,292.0,0.5,80,91.45
2317,E2,292.5,0.25,100,91.45
2318,D2,293.0,1.5,100,91.45
2319,A3,293.0,0.75,110,91.45
2320,A2,293.0,0.75,110,91.45
2321,D4,293.0,1.5,100,91.45
2322,G4,293.0,1.5,100,91.45
2323,B4,293.0,1.5,100,91.45
2324,C3,293.0,1.5,100,91.45
2325,C4,293.0,1.5,100,91.45
2326,F4,293.0,1.5,100,91.45
2327,A4,293.0,1.5,100,91.45
2328,A3,293.0,0.25,100,91.45
2329,B1,293.0,0.25,100,91.45
2330,A2,294.0,0.5,93,91.45
2331,B1,294.0,0.25,100,91.45
2332,D2,294.5,2.0,100,91.45
2333,F#4,294.5,1.5,100,91.45
2334,G4,294.5,0.5,80,91.45
2335,G3,294.5,1.0,93,91.45
2336,B2,294.5,1.0,93,91.45
2337,D4,294.5,2.0,100,91.45
2338,A4,294.5,2.0,100,91.45
2339,D3,294.5,2.0,100,91.45
2340,D5,294.5,1.0,95,91.45
2341,B4,294.5,1.0,95,91.45
2342,C#3,294.5,0.25,100,91.45
2343,B1,294.5,0.25,100,91.45
2344,C3,295.5,1.5,115,91.45
2345,E2,295.5,0.25,100,91.45
2346,G4,295.5,1.5,80,91.45
2347,E4,295.5,1.5,80,91.45
2348,C4,295.5,1.5,80,91.45
2349,C5,295.5,1.5,80,91.45
2350,E2,296.0,0.25,100,91.45
2351,B1,296.5,3.0,85,91.45
2352,B1,296.5,0.25,90,91.45
2353,E3,296.5,0.25,90,91.45
2354,E3,297.0,1.5,115,91.45
2355,G#4,297.0,0.5,100,91.45
2356,E4,297.0,0.5,100,91.45
2357,G4,297.0,1.5,80,91.45
2358,C5,297.0,1.5,80,91.45
2359,E4,297.0,1.5,80,91.45
2360,E5,297.0,1.5,80,91.45
2361,F3,297.5,0.25,100,91.45
2362,B1,298.0,0.25,100,91.45
2363,G#4,298.0,1.0,100,91.45
2364,E4,298.0,1.0,100,91.45
2365,E3,298.5,1.5,115,91.45
2366,F3,298.5,0.25,100,91.45
2367,A4,298.5,2.0,80,91.45
2368,D4,298.5,2.0,80,91.45
2369,D5,298.5,2.0,80,91.45
2370,B1,299.0,0.25,100,91.45
2371,E4,299.0,333/1000,100,91.45
2372,G#4,299.0,333/1000,100,91.45
2373,A1,299.5,3.0,85,91.45
2374,B3,299.5,3.0,100,91.45
2375,E4,299.5,3.0,100,91.45
2376,G#4,299.5,3.0,100,91.45
2377,E2,299.5,0.25,100,91.45
2378,F3,299.5,0.25,100,91.45
2379,F3,300.5,0.25,100,91.45
2380,G#4,301.0,0.5,115,91.45
2381,B1,301.0,0.25,100,91.45
2382,G#4,301.0,0.5,60,91.45
2383,E4,301.0,0.5,60,91.45
2384,F3,301.5,0.25,100,91.45
2385,G#4,302.0,1.0,115,91.45
2386,E2,302.0,0.25,100,91.45
2387,G#4,302.0,1.0,60,91.45
2388,E4,302.0,1.0,60,91.45
2389,C2,302.5,3.0,85,91.45
2390,D5,302.5,3.0,100,91.45
2391,G4,302.5,3.0,100,91.45
2392,C4,302.5,3.0,100,91.45
2393,B1,302.5,0.25,90,91.45
2394,C#3,302.5,0.25,90,91.45
2395,A4,303.0,0.5,115,91.45
2396,E4,303.0,333/1000,60,91.45
2397,G#4,303.0,333/1000,60,91.45
2398,B4,303.5,1229/500,115,91.45
2399,F3,303.5,0.25,100,91.45
2400,B3,303.5,3.0,60,91.45
2401,E4,303.5,3.0,60,91.45
2402,G#4,303.5,3.0,60,91.45
2403,B1,304.0,0.25,100,91.45
2404,F3,304.5,0.25,100,91.45
2405,B1,305.0,0.25,100,91.45
2406,D2,305.5,3.0,85,91.45
2407,D5,305.5,3.0,100,91.45
2408,F#4,305.5,3.0,100,91.45
2409,D4,305.5,3.0,100,91.45
2410,A4,305.5,3.0,100,91.45
2411,F3,305.5,0.25,100,91.45
2412,E2,305.5,0.25,100,91.45
2413,D5,306.0,0.25,115,91.45
2414,E5,306.25,0.25,115,91.45
2415,D5,306.5,1.0,115,91.45
2416,D5,306.5,3.0,60,91.45
2417,G4,306.5,3.0,60,91.45
2418,C4,306.5,3.0,60,91.45
2419,B1,306.5,0.25,100,91.45
2420,F3,306.5,0.25,100,91.45
2421,B1,307.0,0.25,100,91.45
2422,B4,307.5,0.5,115,91.45
2423,E2,307.5,0.25,100,91.45
2424,F3,307.5,0.25,100,91.45
2425,G4,308.0,1.0,115,91.45
2426,E2,308.0,0.25,100,91.45
2427,B1,308.5,3.0,85,91.45
2428,B3,308.5,3.0,100,91.45
2429,E4,308.5,3.0,100,91.45
2430,G#4,308.5,3.0,100,91.45
2431,B1,308.5,0.25,90,91.45
2432,A3,308.5,0.25,90,91.45
2433,B4,309.0,0.5,115,91.45
2434,A4,309.5,79/500,115,91.45
2435,F3,309.5,0.25,100,91.45
2436,D5,309.5,3.0,60,91.45
2437,F#4,309.5,3.0,60,91.45
2438,D4,309.5,3.0,60,91.45
2439,A4,309.5,3.0,60,91.45
2440,B4,309.658,11/40,115,91.45
2441,A4,309.908,74/125,115,91.45
2442,B1,310.0,0.25,100,91.45
2443,F#4,310.5,0.5,115,91.45
2444,F3,310.5,0.25,100,91.45
2445,D4,311.0,1.5,115,91.45
2446,B1,311.0,0.25,100,91.45
2447,A1,311.5,3.0,85,91.45
2448,A3,311.5,3.0,100,91.45
2449,E4,311.5,3.0,100,91.45
2450,G#4,311.5,3.0,100,91.45
2451,E2,311.5,0.25,100,91.45
2452,F3,311.5,0.25,100,91.45
2453,F3,312.5,0.25,100,91.45
2454,B3,312.5,3.0,60,91.45
2455,E4,312.5,3.0,60,91.45
2456,G#4,312.5,3.0,60,91.45
2457,G#4,313.0,0.5,115,91.45
2458,B1,313.0,0.25,100,91.45
2459,F3,313.5,0.25,100,91.45
2460,G#4,314.0,1.0,115,91.45
2461,B1,314.0,0.25,100,91.45
2462,C2,314.5,1.5,85,91.45
2463,D5,314.5,3.0,100,91.45
2464,G4,314.5,3.0,100,91.45
2465,C4,314.5,3.0,100,91.45
2466,E2,314.5,0.25,100,91.45
2467,F3,314.5,0.25,100,91.45
2468,A4,315.0,0.5,115,91.45
2469,B4,315.5,1229/500,115,91.45
2470,F3,315.5,0.25,100,91.45
2471,A3,315.5,3.0,60,91.45
2472,E4,315.5,3.0,60,91.45
2473,G#4,315.5,3.0,60,91.45
2474,E2,316.0,1.5,85,91.45
2475,E2,316.0,0.25,100,91.45
2476,F3,316.5,0.25,100,91.45
2477,B1,317.0,0.25,100,91.45
2478,D2,317.5,0.5,85,91.45
2479,D5,317.5,0.5,100,91.45
2480,F#4,317.5,0.5,100,91.45
2481,D4,317.5,0.5,100,91.45
2482,A4,317.5,0.5,100,91.45
2483,E3,317.5,0.25,90,91.45
2484,E2,317.5,0.25,90,91.45
2485,D5,318.0,0.25,115,91.45
2486,E5,318.25,0.25,115,91.45
2487,D5,318.5,1.0,115,91.45
2488,D2,318.5,0.5,85,91.45
2489,D5,318.5,0.5,100,91.45
2490,F#4,318.5,0.5,100,91.45
2491,D4,318.5,0.5,100,91.45
2492,A4,318.5,0.5,100,91.45
2493,D5,318.5,3.0,60,91.45
2494,G4,318.5,3.0,60,91.45
2495,C4,318.5,3.0,60,91.45
2496,E3,318.5,0.25,90,91.45
2497,E2,318.5,0.25,90,91.45
2498,B4,319.5,0.5,115,91.45
2499,B1,319.5,3.0,85,91.45
2500,B3,319.5,3.0,100,91.45
2501,E4,319.5,3.0,100,91.45
2502,G#4,319.5,3.0,100,91.45
2503,B1,319.5,0.25,100,91.45
2504,C#3,319.5,0.25,100,91.45
2505,G4,320.0,0.5,115,91.45
2506,B4,320.5,0.5,115,91.45
2507,F3,320.5,0.25,100,91.45
2508,A4,321.0,0.5,115,91.45
2509,B1,321.0,0.25,100,91.45
2510,A4,321.5,2.0,115,91.45
2511,F3,321.5,0.25,100,91.45
2512,D5,321.5,0.5,60,91.45
2513,F#4,321.5,0.5,60,91.45
2514,D4,321.5,0.5,60,91.45
2515,A4,321.5,0.5,60,91.45
2516,B1,322.0,0.25,100,91.45
2517,A1,322.5,3.0,85,91.45
2518,A3,322.5,3.0,100,91.45
2519,E4,322.5,3.0,100,91.45
2520,G#4,322.5,3.0,100,91.45
2521,D5,322.5,0.5,60,91.45
2522,F#4,322.5,0.5,60,91.45
2523,D4,322.5,0.5,60,91.45
2524,A4,322.5,0.5,60,91.45
2525,E2,322.5,0.25,100,91.45
2526,F3,322.5,0.25,100,91.45
2527,F3,323.5,0.25,100,91.45
2528,B3,323.5,3.0,60,91.45
2529,E4,323.5,3.0,60,91.45
2530,G#4,323.5,3.0,60,91.45
2531,G#4,324.0,0.5,115,91.45
2532,E2,324.0,0.25,80,91.45
2533,F3,324.5,0.25,100,91.45
2534,G#4,325.0,1.0,115,91.45
2535,E2,325.0,0.25,70,91.45
2536,G1,325.5,3.0,85,91.45
2537,D5,325.5,3.0,100,91.45
2538,G4,325.5,3.0,100,91.45
2539,C4,325.5,3.0,100,91.45
2540,B1,325.5,0.25,90,91.45
2541,C#3,325.5,0.25,90,91.45
2542,A4,326.0,0.5,115,91.45
2543,B4,326.5,2.25,115,91.45
2544,F3,326.5,0.25,100,91.45
2545,A3,326.5,3.0,60,91.45
2546,E4,326.5,3.0,60,91.45
2547,G#4,326.5,3.0,60,91.45
2548,B1,327.0,0.25,100,91.45
2549,F3,327.5,0.25,100,91.45
2550,B1,328.0,0.25,100,91.45
2551,F#1,328.5,1.0,85,91.45
2552,D5,328.5,3.0,100,91.45
2553,F#4,328.5,3.0,100,91.45
2554,D4,328.5,3.0,100,91.45
2555,A4,328.5,3.0,100,91.45
2556,E2,328.5,0.25,90,91.45
2557,A3,328.5,0.25,90,91.45
2558,D5,328.808,24/125,115,91.45
2559,E5,329.0,0.5,115,91.45
2560,G5,329.5,1.0,115,91.45
2561,A1,329.5,1.0,85,91.45
2562,B2,329.5,0.25,100,91.45
2563,D5,329.5,3.0,60,91.45
2564,G4,329.5,3.0,60,91.45
2565,C4,329.5,3.0,60,91.45
2566,B2,330.0,0.25,100,91.45
2567,F#5,330.5,0.5,115,91.45
2568,D2,330.5,1.0,85,91.45
2569,A2,330.5,0.25,100,91.45
2570,E5,331.0,1.0,115,91.45
2571,A2,331.0,0.25,100,91.45
2572,A1,331.5,0.5,85,91.45
2573,C5,331.5,0.5,100,91.45
2574,A4,331.5,0.5,100,91.45
2575,F4,331.5,0.5,100,91.45
2576,C4,331.5,0.5,100,91.45
2577,B1,331.5,0.25,100,91.45
2578,C#3,331.5,0.25,100,91.45
2579,F#5,332.0,0.5,115,91.45
2580,A1,332.0,0.5,85,91.45
2581,C4,332.0,0.5,100,91.45
2582,F4,332.0,0.5,100,91.45
2583,A4,332.0,0.5,100,91.45
2584,C5,332.0,0.5,100,91.45
2585,D5,332.5,3.0,115,91.45
2586,F3,332.5,0.25,100,91.45
2587,D5,332.5,3.0,60,91.45
2588,F#4,332.5,3.0,60,91.45
2589,D4,332.5,3.0,60,91.45
2590,A4,332.5,3.0,60,91.45
2591,A1,333.0,1.0,85,91.45
2592,B1,333.0,0.25,100,91.45
2593,C5,333.0,1.0,80,91.45
2594,A4,333.0,1.0,80,91.45
2595,F4,333.0,1.0,80,91.45
2596,C4,333.0,1.0,80,91.45
2597,F3,333.5,0.25,100,91.45
2598,A1,334.0,0.5,85,91.45
2599,B1,334.0,0.25,100,91.45
2600,C4,334.0,0.5,80,91.45
2601,F4,334.0,0.5,80,91.45
2602,A4,334.0,0.5,80,91.45
2603,C5,334.0,0.5,80,91.45
2604,G1,334.5,1.0,85,91.45
2605,C5,334.5,3.0,100,91.45
2606,E4,334.5,3.0,100,91.45
2607,G4,334.5,3.0,100,91.45
2608,C4,334.5,3.0,100,91.45
2609,E2,334.5,0.25,85,91.45
2610,E3,334.5,0.25,85,91.45
2611,B4,335.5,1.0,115,91.45
2612,C2,335.5,1.0,85,91.45
2613,E2,335.5,0.25,100,91.45
2614,C5,335.5,17/40,60,91.45
2615,A4,335.5,17/40,60,91.45
2616,F4,335.5,17/40,60,91.45
2617,C4,335.5,17/40,60,91.45
2618,E2,336.0,0.25,100,91.45
2619,C4,336.0,17/40,60,91.45
2620,F4,336.0,17/40,60,91.45
2621,A4,336.0,17/40,60,91.45
2622,C5,336.0,17/40,60,91.45
2623,B4,336.5,0.5,115,91.45
2624,E2,336.5,1.0,85,91.45
2625,E2,336.5,0.25,100,91.45
2626,A4,337.0,0.5,115,91.45
2627,E2,337.0,0.25,100,91.45
2628,C5,337.0,17/20,60,91.45
2629,A4,337.0,17/20,60,91.45
2630,F4,337.0,17/20,60,91.45
2631,C4,337.0,17/20,60,91.45
2632,B4,337.5,0.5,115,91.45
2633,A1,337.5,3.0,100,91.45
2634,B1,337.5,0.25,100,91.45
2635,C#3,337.5,0.25,100,91.45
2636,G4,338.0,0.5,115,91.45
2637,E4,338.0,1.0,80,91.45
2638,C#5,338.0,1.0,80,91.45
2639,C#4,338.0,1.0,80,91.45
2640,C4,338.0,17/40,60,91.45
2641,F4,338.0,17/40,60,91.45
2642,A4,338.0,17/40,60,91.45
2643,C5,338.0,17/40,60,91.45
2644,G4,338.5,3.0,115,91.45
2645,F3,338.5,0.25,100,91.45
2646,C4,338.5,3.0,60,91.45
2647,E4,338.5,3.0,60,91.45
2648,G4,338.5,3.0,60,91.45
2649,C5,338.5,3.0,60,91.45
2650,B1,339.0,0.25,100,91.45
2651,E4,339.0,1.0,80,91.45
2652,D5,339.0,1.0,80,91.45
2653,D4,339.0,1.0,80,91.45
2654,E2,339.5,0.25,100,91.45
2655,F3,339.5,0.25,100,91.45
2656,A4,340.0,583/1000,80,91.45
2657,E5,340.0,583/1000,80,91.45
2658,E4,340.0,583/1000,80,91.45
2659,F3,340.5,0.25,100,91.45
2660,A1,341.0,833/1000,100,91.45
2661,B1,341.0,0.25,100,91.45
2662,A4,341.0,1.5,80,91.45
2663,E4,341.0,1.5,80,91.45
2664,E5,341.0,1.5,80,91.45
2665,F3,341.5,0.25,100,91.45
2666,B1,342.0,0.25,100,91.45
2667,C#4,342.0,1.0,100,91.45
2668,A3,342.0,1.0,100,91.45
2669,E3,342.0,1.0,100,91.45
2670,A2,342.0,1.0,100,91.45
2671,E4,342.0,1.0,55,91.45
2672,C#5,342.0,1.0,55,91.45
2673,C#4,342.0,1.0,55,91.45
2674,B1,342.5,1.0,100,91.45
2675,B4,342.5,1.0,80,91.45
2676,C#5,342.5,1.0,80,91.45
2677,E5,342.5,1.0,80,91.45
2678,E4,342.5,1.0,80,91.45
2679,E2,342.5,0.25,100,91.45
2680,F3,342.5,0.25,100,91.45
2681,E2,343.0,0.25,100,91.45
2682,D4,343.0,1.0,100,91.45
2683,A3,343.0,1.0,100,91.45
2684,E3,343.0,1.0,100,91.45
2685,A2,343.0,1.0,100,91.45
2686,E4,343.0,1.0,55,91.45
2687,D5,343.0,1.0,55,91.45
2688,D4,343.0,1.0,55,91.45
2689,C2,343.5,3.0,100,91.45
2690,B1,343.5,0.25,100,91.45
2691,A3,343.5,0.25,100,91.45
2692,E4,344.0,583/1000,100,91.45
2693,A3,344.0,583/1000,100,91.45
2694,E3,344.0,583/1000,100,91.45
2695,A2,344.0,583/1000,100,91.45
2696,G4,344.0,1.0,80,91.45
2697,C4,344.0,1.0,80,91.45
2698,C5,344.0,1.0,80,91.45
2699,A4,344.0,583/1000,55,91.45
2700,E5,344.0,583/1000,55,91.45
2701,E4,344.0,583/1000,55,91.45
2702,F3,344.5,0.25,100,91.45
2703,B1,345.0,0.25,100,91.45
2704,A2,345.0,1.5,100,91.45
2705,E3,345.0,1.5,100,91.45
2706,E4,345.0,1.5,100,91.45
2707,A3,345.0,1.5,100,91.45
2708,G4,345.0,1.0,80,91.45
2709,D4,345.0,1.0,80,91.45
2710,D5,345.0,1.0,80,91.45
2711,A4,345.0,1.5,55,91.45
2712,E4,345.0,1.5,55,91.45
2713,E5,345.0,1.5,55,91.45
2714,E2,345.5,0.25,100,91.45
2715,F3,345.5,0.25,100,91.45
2716,C5,346.0,583/1000,80,91.45
2717,E4,346.0,583/1000,80,91.45
2718,E5,346.0,583/1000,80,91.45
2719,F3,346.5,0.25,100,91.45
2720,B2,346.5,1.0,100,91.45
2721,F#3,346.5,1.0,100,91.45
2722,B3,346.5,1.0,100,91.45
2723,E4,346.5,1.0,100,91.45
2724,A4,346.5,1.0,55,91.45
2725,C#5,346.5,1.0,55,91.45
2726,E5,346.5,1.0,55,91.45
2727,E4,346.5,1.0,55,91.45
2728,D2,347.0,833/1000,100,91.45
2729,B1,347.0,0.25,100,91.45
2730,A4,347.0,1.5,80,91.45
2731,D4,347.0,1.5,80,91.45
2732,D5,347.0,1.5,80,91.45
2733,F3,347.5,0.25,100,91.45
2734,A1,348.0,0.5,100,91.45
2735,B1,348.0,0.25,100,91.45
2736,C4,348.0,1.0,100,91.45
2737,G3,348.0,1.0,100,91.45
2738,C3,348.0,1.0,100,91.45
2739,G4,348.0,1.0,55,91.45
2740,C4,348.0,1.0,55,91.45
2741,C5,348.0,1.0,55,91.45
2742,D1,348.5,1.0,93,91.45
2743,A4,348.5,1.0,80,91.45
2744,D4,348.5,1.0,80,91.45
2745,D5,348.5,1.0,80,91.45
2746,E2,348.5,0.25,100,91.45
2747,E3,348.5,0.25,100,91.45
2748,D4,349.0,1.0,100,91.45
2749,G3,349.0,1.0,100,91.45
2750,C3,349.0,1.0,100,91.45
2751,G4,349.0,1.0,55,91.45
2752,D4,349.0,1.0,55,91.45
2753,D5,349.0,1.0,55,91.45
2754,A1,349.5,3.0,100,91.45
2755,B1,349.5,0.25,100,91.45
2756,A3,349.5,0.25,100,91.45
2757,E4,350.0,583/1000,100,91.45
2758,G3,350.0,583/1000,100,91.45
2759,C3,350.0,583/1000,100,91.45
2760,E4,350.0,1.0,80,91.45
2761,C#5,350.0,1.0,80,91.45
2762,C#4,350.0,1.0,80,91.45
2763,C5,350.0,583/1000,55,91.45
2764,E4,350.0,583/1000,55,91.45
2765,E5,350.0,583/1000,55,91.45
2766,F3,350.5,0.25,100,91.45
2767,B1,351.0,0.25,100,91.45
2768,D3,351.0,2.5,100,91.45
2769,A3,351.0,2.5,100,91.45
2770,D4,351.0,2.5,100,91.45
2771,E4,351.0,1.0,80,91.45
2772,D5,351.0,1.0,80,91.45
2773,D4,351.0,1.0,80,91.45
2774,A4,351.0,1.5,55,91.45
2775,D4,351.0,1.5,55,91.45
2776,D5,351.0,1.5,55,91.45
2777,E2,351.5,0.25,100,91.45
2778,F3,351.5,0.25,100,91.45
2779,A4,352.0,583/1000,80,91.45
2780,E5,352.0,583/1000,80,91.45
2781,E4,352.0,583/1000,80,91.45
2782,F3,352.5,0.25,100,91.45
2783,A4,352.5,1.0,55,91.45
2784,D4,352.5,1.0,55,91.45
2785,D5,352.5,1.0,55,91.45
2786,A1,353.0,833/1000,100,91.45
2787,B1,353.0,0.25,100,91.45
2788,A4,353.0,1.5,80,91.45
2789,E4,353.0,1.5,80,91.45
2790,E5,353.0,1.5,80,91.45
2791,F3,353.5,0.25,100,91.45
2792,B1,354.0,0.25,100,91.45
2793,C#4,354.0,1.0,100,91.45
2794,A3,354.0,1.0,100,91.45
2795,E3,354.0,1.0,100,91.45
2796,A2,354.0,1.0,100,91.45
2797,E4,354.0,1.0,55,91.45
2798,C#5,354.0,1.0,55,91.45
2799,C#4,354.0,1.0,55,91.45
2800,B1,354.5,1.0,100,91.45
2801,B4,354.5,1.0,80,91.45
2802,C#5,354.5,1.0,80,91.45
2803,E5,354.5,1.0,80,91.45
2804,E4,354.5,1.0,80,91.45
2805,E2,354.5,0.25,100,91.45
2806,E3,354.5,0.25,100,91.45
2807,D4,355.0,1.0,100,91.45
2808,A3,355.0,1.0,100,91.45
2809,E3,355.0,1.0,100,91.45
2810,A2,355.0,1.0,100,91.45
2811,E4,355.0,1.0,55,91.45
2812,D5,355.0,1.0,55,91.45
2813,D4,355.0,1.0,55,91.45
2814,C2,355.5,0.75,100,91.45
2815,A3,355.5,0.25,100,91.45
2816,E2,355.5,0.25,100,91.45
2817,E4,356.0,583/1000,100,91.45
2818,A3,356.0,583/1000,100,91.45
2819,E3,356.0,583/1000,100,91.45
2820,A2,356.0,583/1000,100,91.45
2821,A4,356.0,583/1000,55,91.45
2822,E5,356.0,583/1000,55,91.45
2823,E4,356.0,583/1000,55,91.45
2824,G#2,356.5,0.25,100,91.45
2825,A2,357.0,1.5,100,91.45
2826,E3,357.0,1.5,100,91.45
2827,E4,357.0,1.5,100,91.45
2828,A3,357.0,1.5,100,91.45
2829,A4,357.0,1.5,55,91.45
2830,E4,357.0,1.5,55,91.45
2831,E5,357.0,1.5,55,91.45
2832,G#2,357.5,0.25,100,91.45
2833,B1,358.0,0.25,100,91.45
2834,D1,358.5,1.0,100,91.45
2835,B2,358.5,1.0,100,91.45
2836,F#3,358.5,1.0,100,91.45
2837,B3,358.5,1.0,100,91.45
2838,E4,358.5,1.0,100,91.45
2839,A4,358.5,1.0,55,91.45
2840,C#5,358.5,1.0,55,91.45
2841,E5,358.5,1.0,55,91.45
2842,E4,358.5,1.0,55,91.45
2843,E3,358.5,0.25,100,91.45
2844,E2,358.5,0.25,100,91.45
2845,C4,359.5,0.5,100,91.45
2846,D1,359.5,1.0,100,91.45
2847,E3,359.5,0.25,100,91.45
2848,E2,359.5,0.25,100,91.45
2849,B3,360.0,0.5,100,91.45
2850,A3,360.5,0.5,100,91.45
2851,A1,360.5,3.0,100,91.45
2852,B1,360.5,0.25,100,91.45
2853,C#3,360.5,0.25,100,91.45
2854,G3,361.0,0.5,100,91.45
2855,E4,361.0,1.0,80,91.45
2856,C#5,361.0,1.0,80,91.45
2857,C#4,361.0,1.0,80,91.45
2858,A3,361.5,0.5,100,91.45
2859,F3,361.5,0.25,100,91.45
2860,B3,362.0,0.5,100,91.45
2861,B1,362.0,0.25,100,91.45
2862,E4,362.0,1.0,80,91.45
2863,D5,362.0,1.0,80,91.45
2864,D4,362.0,1.0,80,91.45
2865,A3,362.5,2.0,100,91.45
2866,E2,362.5,0.25,100,91.45
2867,F3,362.5,0.25,100,91.45
2868,A4,363.0,583/1000,80,91.45
2869,E5,363.0,583/1000,80,91.45
2870,E4,363.0,583/1000,80,91.45
2871,F3,363.5,0.25,100,91.45
2872,A1,364.0,833/1000,100,91.45
2873,B1,364.0,0.25,100,91.45
2874,A4,364.0,1.5,80,91.45
2875,E4,364.0,1.5,80,91.45
2876,E5,364.0,1.5,80,91.45
2877,F3,364.5,0.25,100,91.45
2878,B1,365.0,0.25,100,91.45
2879,C#4,365.0,1.0,100,91.45
2880,A3,365.0,1.0,100,91.45
2881,E3,365.0,1.0,100,91.45
2882,A2,365.0,1.0,100,91.45
2883,E4,365.0,1.0,55,91.45
2884,C#5,365.0,1.0,55,91.45
2885,C#4,365.0,1.0,55,91.45
2886,B1,365.5,1.0,100,91.45
2887,B4,365.5,1.0,80,91.45
2888,C#5,365.5,1.0,80,91.45
2889,E5,365.5,1.0,80,91.45
2890,E4,365.5,1.0,80,91.45
2891,E2,365.5,0.25,100,91.45
2892,F3,365.5,0.25,100,91.45
2893,E2,366.0,0.25,100,91.45
2894,D4,366.0,1.0,100,91.45
2895,A3,366.0,1.0,100,91.45
2896,E3,366.0,1.0,100,91.45
2897,A2,366.0,1.0,100,91.45
2898,E4,366.0,1.0,55,91.45
2899,D5,366.0,1.0,55,91.45
2900,D4,366.0,1.0,55,91.45
2901,C2,366.5,3.0,100,91.45
2902,B1,366.5,0.25,100,91.45
2903,A3,366.5,0.25,100,91.45
2904,E4,367.0,583/1000,100,91.45
2905,A3,367.0,583/1000,100,91.45
2906,E3,367.0,583/1000,100,91.45
2907,A2,367.0,583/1000,100,91.45
2908,G4,367.0,1.0,80,91.45
2909,C4,367.0,1.0,80,91.45
2910,C5,367.0,1.0,80,91.45
2911,A4,367.0,583/1000,55,91.45
2912,E5,367.0,583/1000,55,91.45
2913,E4,367.0,583/1000,55,91.45
2914,F3,367.5,0.25,100,91.45
2915,B1,368.0,0.25,100,91.45
2916,A2,368.0,1.5,100,91.45
2917,E3,368.0,1.5,100,91.45
2918,E4,368.0,1.5,100,91.45
2919,A3,368.0,1.5,100,91.45
2920,G4,368.0,1.0,80,91.45
2921,D4,368.0,1.0,80,91.45
2922,D5,368.0,1.0,80,91.45
2923,A4,368.0,1.5,55,91.45
2924,E4,368.0,1.5,55,91.45
2925,E5,368.0,1.5,55,91.45
2926,E2,368.5,0.25,100,91.45
2927,F3,368.5,0.25,100,91.45
2928,C5,369.0,583/1000,80,91.45
2929,E4,369.0,583/1000,80,91.45
2930,E5,369.0,583/1000,80,91.45
2931,F3,369.5,0.25,100,91.45
2932,B2,369.5,1.0,100,91.45
2933,F#3,369.5,1.0,100,91.45
2934,B3,369.5,1.0,100,91.45
2935,E4,369.5,1.0,100,91.45
2936,A4,369.5,1.0,55,91.45
2937,C#5,369.5,1.0,55,91.45
2938,E5,369.5,1.0,55,91.45
2939,E4,369.5,1.0,55,91.45
2940,D2,370.0,833/1000,100,91.45
2941,B1,370.0,0.25,100,91.45
2942,A4,370.0,1.5,80,91.45
2943,D4,370.0,1.5,80,91.45
2944,D5,370.0,1.5,80,91.45
2945,F3,370.5,0.25,100,91.45
2946,A1,371.0,0.5,100,91.45
2947,B1,371.0,0.25,100,91.45
2948,C4,371.0,1.0,100,91.45
2949,G3,371.0,1.0,100,91.45
2950,C3,371.0,1.0,100,91.45
2951,G4,371.0,1.0,55,91.45
2952,C4,371.0,1.0,55,91.45
2953,C5,371.0,1.0,55,91.45
2954,D1,371.5,1.0,100,91.45
2955,A4,371.5,1.0,80,91.45
2956,D4,371.5,1.0,80,91.45
2957,D5,371.5,1.0,80,91.45
2958,E2,371.5,0.25,100,91.45
2959,F3,371.5,0.25,100,91.45
2960,E2,372.0,0.25,100,91.45
2961,D4,372.0,1.0,100,91.45
2962,G3,372.0,1.0,100,91.45
2963,C3,372.0,1.0,100,91.45
2964,G4,372.0,1.0,55,91.45
2965,D4,372.0,1.0,55,91.45
2966,D5,372.0,1.0,55,91.45
2967,A1,372.5,3.0,100,91.45
2968,B1,372.5,0.25,100,91.45
2969,A3,372.5,0.25,100,91.45
2970,E4,373.0,583/1000,100,91.45
2971,G3,373.0,583/1000,100,91.45
2972,C3,373.0,583/1000,100,91.45
2973,C5,373.0,1.0,80,91.45
2974,C4,373.0,1.0,80,91.45
2975,F4,373.0,1.0,80,91.45
2976,C5,373.0,583/1000,55,91.45
2977,E4,373.0,583/1000,55,91.45
2978,E5,373.0,583/1000,55,91.45
2979,F3,373.5,0.25,100,91.45
2980,B1,374.0,0.25,100,91.45
2981,D3,374.0,1.5,100,91.45
2982,A3,374.0,1.5,100,91.45
2983,D4,374.0,1.5,100,91.45
2984,C5,374.0,1.0,80,91.45
2985,C4,374.0,1.0,80,91.45
2986,F4,374.0,1.0,80,91.45
2987,A4,374.0,1.5,55,91.45
2988,D4,374.0,1.5,55,91.45
2989,D5,374.0,1.5,55,91.45
2990,E2,374.5,0.25,100,91.45
2991,F3,374.5,0.25,100,91.45
2992,C5,375.0,0.5,80,91.45
2993,C4,375.0,0.5,80,91.45
2994,G4,375.0,0.5,80,91.45
2995,F3,375.5,0.25,100,91.45
2996,D3,375.5,1.0,100,91.45
2997,A3,375.5,1.0,100,91.45
2998,D4,375.5,1.0,100,91.45
2999,A4,375.5,1.0,55,91.45
3000,D4,375.5,1.0,55,91.45
3001,D5,375.5,1.0,55,91.45
3002,A1,376.0,833/1000,100,91.45
3003,B1,376.0,0.25,100,91.45
3004,C5,376.0,1.5,80,91.45
3005,C4,376.0,1.5,80,91.45
3006,A4,376.0,1.5,80,91.45
3007,F3,376.5,0.25,100,91.45
3008,B1,377.0,0.25,100,91.45
3009,F4,377.0,1.0,100,91.45
3010,A3,377.0,1.0,100,91.45
3011,F3,377.0,1.0,100,91.45
3012,A4,377.0,1.0,55,91.45
3013,F4,377.0,1.0,55,91.45
3014,B1,377.5,1.0,100,91.45
3015,G4,377.5,1.0,80,91.45
3016,B4,377.5,1.0,80,91.45
3017,E2,377.5,0.25,100,91.45
3018,F3,377.5,0.25,100,91.45
3019,E2,378.0,0.25,100,91.45
3020,G4,378.0,1.0,100,91.45
3021,A3,378.0,1.0,100,91.45
3022,F3,378.0,1.0,100,91.45
3023,A4,378.0,1.0,55,91.45
3024,F4,378.0,1.0,55,91.45
3025,C2,378.5,1.5,100,91.45
3026,E4,378.5,1.5,80,91.45
3027,G4,378.5,1.5,80,91.45
3028,G3,378.5,1.5,80,91.45
3029,C3,378.5,1.5,80,91.45
3030,B1,378.5,0.25,100,91.45
3031,C#3,378.5,0.25,100,91.45
3032,A4,379.0,583/1000,100,91.45
3033,A3,379.0,583/1000,100,91.45
3034,F3,379.0,583/1000,100,91.45
3035,D4,379.0,0.5,55,91.45
3036,B4,379.0,0.5,55,91.45
3037,G4,379.0,0.5,55,91.45
3038,E2,379.5,0.25,80,91.45
3039,D2,380.0,1.5,100,91.45
3040,F3,380.0,1.5,100,91.45
3041,A4,380.0,1.5,100,91.45
3042,A3,380.0,1.5,100,91.45
3043,D4,380.0,1.5,80,91.45
3044,G4,380.0,1.5,80,91.45
3045,B4,380.0,1.5,80,91.45
3046,C3,380.0,1.5,80,91.45
3047,C4,380.0,1.5,55,91.45
3048,F4,380.0,1.5,55,91.45
3049,A4,380.0,1.5,55,91.45
3050,A3,380.0,0.25,100,91.45
3051,B1,380.0,0.25,100,91.45
3052,E2,381.0,0.25,80,91.45
3053,D2,381.5,1.0,100,91.45
3054,G4,381.5,0.5,55,91.45
3055,G3,381.5,1.0,100,91.45
3056,B3,381.5,1.0,100,91.45
3057,B4,381.5,1.0,100,91.45
3058,D4,381.5,1.0,80,91.45
3059,F#4,381.5,1.0,80,91.45
3060,A4,381.5,1.0,80,91.45
3061,D3,381.5,1.0,80,91.45
3062,D5,381.5,1.0,55,91.45
3063,B4,381.5,1.0,55,91.45
3064,G3,381.5,0.25,100,91.45
3065,B1,381.5,0.25,100,91.45
3066,D2,382.5,4.0,100,91.45
3067,C4,382.5,1.5,100,91.45
3068,G4,382.5,1.5,100,91.45
3069,C5,382.5,1.5,100,91.45
3070,G4,382.5,1.5,55,91.45
3071,E4,382.5,1.5,55,91.45
3072,C4,382.5,1.5,55,91.45
3073,C5,382.5,1.5,55,91.45
3074,C#3,382.5,0.25,100,91.45
3075,B1,382.5,0.25,100,91.45
3076,E2,382.75,0.25,55,91.45
3077,E2,383.0,0.25,63,91.45
3078,E2,383.25,0.25,71,91.45
3079,E2,383.5,0.25,79,91.45
3080,E2,384.0,0.25,95,91.45
3081,C4,384.0,1.5,100,91.45
3082,G4,384.0,1.5,100,91.45
3083,C5,384.0,1.5,100,91.45
3084,G4,384.0,1.5,55,91.45
3085,C5,384.0,1.5,55,91.45
3086,E4,384.0,1.5,55,91.45
3087,E5,384.0,1.5,55,91.45
3088,E2,384.5,0.25,100,91.45
3089,B2,385.0,0.25,100,91.45
3090,A2,385.5,0.25,100,91.45
3091,D4,385.5,1.0,100,91.45
3092,A4,385.5,1.0,100,91.45
3093,D5,385.5,1.0,100,91.45
3094,A4,385.5,1.0,55,91.45
3095,D4,385.5,1.0,55,91.45
3096,D5,385.5,1.0,55,91.45
3097,F2,386.0,0.25,100,91.45
3098,E1,386.5,3.0,75,91.45
3099,D4,386.5,4.0,80,91.45
3100,F#4,386.5,4.0,80,91.45
3101,A4,386.5,4.0,80,91.45
3102,D3,386.5,4.0,80,91.45
3103,B1,386.5,0.25,75,91.45
3104,C#3,386.5,0.25,75,91.45
3105,E-3,387.5,0.25,75,91.45
3106,B1,388.0,0.25,75,91.45
3107,E2,388.5,0.25,75,91.45
3108,E-3,388.5,0.25,75,91.45
3109,E1,389.5,1.0,75,91.45
3110,B1,389.5,0.25,75,91.45
3111,E-3,389.5,0.25,75,91.45
3112,E1,390.5,4.0,75,91.45
3113,E-3,390.5,0.25,75,91.45
3114,D4,390.5,4.0,100,91.45
3115,A4,390.5,4.0,100,91.45
3116,D5,390.5,4.0,100,91.45
3117,E4,390.5,1.5,127,91.45
3118,G#4,390.5,1.5,127,91.45
3119,A4,390.5,4.0,55,91.45
3120,D4,390.5,4.0,55,91.45
3121,D5,390.5,4.0,55,91.45
3122,B1,391.0,0.25,75,91.45
3123,B1,391.5,0.25,75,91.45
3124,E-3,391.5,0.25,75,91.45
3125,G#4,392.0,1.5,127,91.45
3126,B4,392.0,1.5,127,91.45
3127,E2,392.5,0.25,75,91.45
3128,E-3,392.5,0.25,75,91.45
3129,E5,393.5,1.0,127,91.45
3130,E4,393.5,1.0,127,91.45
3131,B4,393.5,1.0,127,91.45
3132,B1,393.5,0.25,75,91.45
3133,E-3,393.5,0.25,75,91.45
3134,E2,394.5,1.0,80,91.45
3135,B1,394.5,3.0,75,91.45
3136,B1,394.5,0.25,75,91.45
3137,E-3,394.5,0.25,75,91.45
3138,E5,395.0,1.0,127,91.45
3139,E4,395.0,0.5,127,91.45
3140,B4,395.0,0.5,127,91.45
3141,G#3,395.25,0.25,85,91.45
3142,B2,395.5,1.0,80,91.45
3143,B3,395.5,0.25,110,91.45
3144,E-3,395.5,0.25,75,91.45
3145,E4,395.75,0.25,127,91.45
3146,G#4,396.0,0.25,127,91.45
3147,B1,396.0,0.25,75,91.45
3148,B4,396.25,0.25,127,91.45
3149,E3,396.5,1.0,80,91.45
3150,E5,396.5,0.25,127,91.45
3151,E2,396.5,0.25,75,91.45
3152,E-3,396.5,0.25,75,91.45
3153,G#5,396.75,0.25,127,91.45
3154,B4,397.0,0.5,127,91.45
3155,B5,397.0,0.5,127,91.45
3156,E4,397.5,1.0,80,91.45
3157,B1,397.5,1.0,75,91.45
3158,A4,397.5,0.5,127,91.45
3159,A5,397.5,0.5,127,91.45
3160,B1,397.5,0.25,75,91.45
3161,E-3,397.5,0.25,75,91.45
3162,G#4,398.0,0.5,127,91.45
3163,G#5,398.0,0.5,127,91.45
3164,B3,398.5,1.0,80,91.45
3165,B1,398.5,2.0,75,91.45
3166,E-3,398.5,0.25,75,91.45
3167,F#4,398.5,0.5,127,91.45
3168,F#5,398.5,0.5,127,91.45
3169,B1,399.0,0.25,75,91.45
3170,F#4,399.0,1.5,127,91.45
3171,B3,399.0,1.5,127,91.45
3172,D4,399.0,1.5,127,91.45
3173,G#3,399.5,1.0,80,91.45
3174,B1,399.5,0.25,75,91.45
3175,E-3,399.5,0.25,75,91.45
3176,E3,400.5,1.0,80,91.45
3177,E2,400.5,0.5,75,91.45
3178,B5,400.5,1.5,121,91.45
3179,F#5,400.5,1.5,121,91.45
3180,F#4,400.5,1.5,121,91.45
3181,D4,400.5,1.5,121,91.45
3182,B4,400.5,1.5,121,91.45
3183,E2,400.5,0.25,75,91.45
3184,E-3,400.5,0.25,75,91.45
3185,F#2,401.0,1.5,75,91.45
3186,B1,401.0,0.25,75,91.45
3187,B2,401.5,1.0,80,91.45
3188,B1,401.5,0.25,75,91.45
3189,E-3,401.5,0.25,75,91.45
3190,F#5,402.0,1.0,112,91.45
3191,B5,402.0,1.0,112,91.45
3192,B4,402.0,1.0,117,91.45
3193,F#4,402.0,1.0,117,91.45
3194,D6,402.0,1.0,117,91.45
3195,B2,402.5,1.0,80,91.45
3196,E1,402.5,1.5,75,91.45
3197,B1,402.5,0.25,75,91.45
3198,E-3,402.5,0.25,75,91.45
3199,F#3,403.5,1.0,80,91.45
3200,E-3,403.5,0.25,75,91.45
3201,E1,404.0,1.5,75,91.45
3202,B1,404.0,0.25,75,91.45
3203,F#5,404.0,1.0,112,91.45
3204,B5,404.0,1.0,112,91.45
3205,B4,404.0,0.5,117,91.45
3206,F#4,404.0,0.5,117,91.45
3207,D6,404.0,0.5,117,91.45
3208,B3,404.5,1.0,80,91.45
3209,E2,404.5,0.25,75,91.45
3210,E-3,404.5,0.25,75,91.45
3211,F#4,405.0,0.5,65,91.45
3212,E4,405.5,1.0,80,91.45
3213,E1,405.5,1.0,75,91.45
3214,D4,405.5,0.5,73,91.45
3215,B1,405.5,0.25,75,91.45
3216,E-3,405.5,0.25,75,91.45
3217,B4,406.0,0.5,81,91.45
3218,D4,406.5,1.0,80,91.45
3219,A1,406.5,1.5,75,91.45
3220,F#4,406.5,0.5,89,91.45
3221,B1,406.5,0.25,75,91.45
3222,E-3,406.5,0.25,75,91.45
3223,D4,407.0,0.5,97,91.45
3224,B3,407.5,1.0,80,91.45
3225,B3,407.5,0.5,105,91.45
3226,E-3,407.5,0.25,75,91.45
3227,A1,408.0,1.5,75,91.45
3228,B1,408.0,0.25,75,91.45
3229,G#3,408.0,1.5,127,91.45
3230,E4,408.0,1.5,127,91.45
3231,E3,408.0,1.5,127,91.45
3232,G#4,408.0,1.5,127,91.45
3233,D3,408.5,1.0,80,91.45
3234,E2,408.5,0.25,75,91.45
3235,E-3,408.5,0.25,75,91.45
3236,B2,409.5,1.0,80,91.45
3237,A1,409.5,1.0,75,91.45
3238,B3,409.5,1.5,127,91.45
3239,E4,409.5,1.5,127,91.45
3240,A4,409.5,1.5,127,91.45
3241,B1,409.5,0.25,75,91.45
3242,E-3,409.5,0.25,75,91.45
3243,E2,410.5,1.0,80,91.45
3244,D1,410.5,1.5,75,91.45
3245,B1,410.5,0.25,75,91.45
3246,E-3,410.5,0.25,75,91.45
3247,G#3,411.0,1.0,117,91.45
3248,E4,411.0,1.0,117,91.45
3249,B4,411.0,1.0,117,91.45
3250,B2,411.5,1.0,80,91.45
3251,E-3,411.5,0.25,75,91.45
3252,D1,412.0,1.5,75,91.45
3253,B1,412.0,0.25,75,91.45
3254,C4,412.0,1.5,127,91.45
3255,A4,412.0,1.5,127,91.45
3256,C5,412.0,1.5,127,91.45
3257,E4,412.5,1.0,80,91.45
3258,E2,412.5,0.25,75,91.45
3259,E-3,412.5,0.25,75,91.45
3260,B3,413.5,1.0,80,91.45
3261,D2,413.5,1.0,75,91.45
3262,D4,413.5,1.5,127,91.45
3263,A4,413.5,1.5,127,91.45
3264,D5,413.5,1.5,127,91.45
3265,B1,413.5,0.25,75,91.45
3266,E-3,413.5,0.25,75,91.45
3267,A2,414.5,1.0,80,91.45
3268,D2,414.5,2.0,75,91.45
3269,D5,414.5,0.5,87,91.45
3270,B1,414.5,0.25,75,91.45
3271,E-3,414.5,0.25,75,91.45
3272,C5,415.0,0.5,127,91.45
3273,E2,415.0,0.25,75,91.45
3274,E4,415.0,1.0,127,91.45
3275,E5,415.0,1.0,127,91.45
3276,E2,415.25,0.25,75,91.45
3277,E3,415.5,1.0,80,91.45
3278,E2,415.5,0.25,75,91.45
3279,E2,416.0,0.25,75,91.45
3280,F#4,416.0,1.5,127,91.45
3281,A3,416.0,1.5,127,91.45
3282,A4,416.0,1.5,127,91.45
3283,B3,416.5,1.0,80,91.45
3284,A1,416.5,249/125,75,91.45
3285,E2,416.5,0.25,75,91.45
3286,E2,417.0,0.25,75,91.45
3287,A3,417.5,1.0,80,91.45
3288,D4,417.5,1.5,127,91.45
3289,G3,417.5,1.5,127,91.45
3290,G4,417.5,1.5,127,91.45
3291,A3,417.5,0.25,75,91.45
3292,B1,417.5,0.25,75,91.45
3293,G3,418.0,0.25,75,91.45
3294,B1,418.0,0.25,75,91.45
3295,D3,418.5,1.0,80,91.45
3296,E1,418.5,3.0,75,91.45
3297,B1,418.5,0.25,75,91.45
3298,C#3,418.5,0.25,75,91.45
3299,D4,419.0,1.0,107,91.45
3300,F#3,419.0,0.5,127,91.45
3301,F#4,419.0,0.5,127,91.45
3302,A3,419.5,1.0,80,91.45
3303,E-3,419.5,0.25,75,91.45
3304,B1,420.0,0.25,75,91.45
3305,F#3,420.0,4.0,127,91.45
3306,D3,420.0,4.0,127,91.45
3307,A3,420.0,4.0,127,91.45
3308,D4,420.0,4.0,127,91.45
3309,D4,420.5,1.0,80,91.45
3310,E2,420.5,0.25,75,91.45
3311,E3,420.5,0.25,75,91.45
3312,A4,421.5,1.0,80,91.45
3313,E1,421.5,1.0,75,91.45
3314,B1,421.5,0.25,75,91.45
3315,E-3,421.5,0.25,75,91.45
3316,E4,422.5,1.0,80,91.45
3317,E1,422.5,2.0,75,91.45
3318,E-3,422.5,0.25,75,91.45
3319,D4,423.5,1.0,80,91.45
3320,B1,423.5,0.25,75,91.45
3321,E-3,423.5,0.25,75,91.45
3322,E4,424.0,1.5,127,91.45
3323,G#4,424.0,1.5,127,91.45
3324,A3,424.5,1.0,80,91.45
3325,E2,424.5,0.25,75,91.45
3326,E-3,424.5,0.25,75,91.45
3327,B1,424.508,123/250,75,91.45
3328,D2,425.0,1.5,75,91.45
3329,B1,425.0,0.25,75,91.45
3330,D3,425.5,1.0,80,91.45
3331,G#4,425.5,1.5,127,91.45
3332,B4,425.5,1.5,127,91.45
3333,B1,425.5,0.25,75,91.45
3334,E-3,425.5,0.25,75,91.45
3335,E2,426.5,1.0,80,91.45
3336,B1,426.5,3.0,75,91.45
3337,B1,426.5,0.25,75,91.45
3338,E-3,426.5,0.25,75,91.45
3339,E5,427.0,1.0,127,91.45
3340,E4,427.0,1.0,127,91.45
3341,B4,427.0,1.0,127,91.45
3342,B2,427.5,1.0,80,91.45
3343,E-3,427.5,0.25,75,91.45
3344,B1,428.0,0.25,75,91.45
3345,E3,428.5,1.0,80,91.45
3346,E5,428.5,1.0,127,91.45
3347,E4,428.5,0.5,127,91.45
3348,B4,428.5,0.5,127,91.45
3349,E2,428.5,0.25,75,91.45
3350,E-3,428.5,0.25,75,91.45
3351,G#3,428.75,0.25,85,91.45
3352,B3,429.0,0.25,110,91.45
3353,E4,429.25,0.25,127,91.45
3354,E4,429.5,1.0,80,91.45
3355,B1,429.5,1.0,75,91.45
3356,G#4,429.5,0.25,127,91.45
3357,B1,429.5,0.25,75,91.45
3358,E-3,429.5,0.25,75,91.45
3359,B4,429.75,0.25,127,91.45
3360,E5,430.0,0.25,127,91.45
3361,G#5,430.25,0.25,127,91.45
3362,B3,430.5,1.0,80,91.45
3363,B1,430.5,4.0,75,91.45
3364,E-3,430.5,0.25,75,91.45
3365,B4,430.5,0.5,127,91.45
3366,B5,430.5,0.5,127,91.45
3367,B1,431.0,0.25,75,91.45
3368,A4,431.0,0.5,127,91.45
3369,A5,431.0,0.5,127,91.45
3370,G#3,431.5,1.0,80,91.45
3371,E-3,431.5,0.25,75,91.45
3372,G#4,431.5,0.5,127,91.45
3373,G#5,431.5,0.5,127,91.45
3374,F#4,432.0,0.5,127,91.45
3375,F#5,432.0,0.5,127,91.45
3376,E3,432.5,1.0,80,91.45
3377,F#4,432.5,1.5,127,91.45
3378,B3,432.5,1.5,127,91.45
3379,D4,432.5,1.5,127,91.45
3380,E2,432.5,0.25,75,91.45
3381,E-3,432.5,0.25,75,91.45
3382,B1,433.0,0.25,75,91.45
3383,B2,433.5,1.0,80,91.45
3384,B1,433.5,0.25,75,91.45
3385,E-3,433.5,0.25,75,91.45
3386,B5,434.0,1.5,121,91.45
3387,F#5,434.0,1.5,121,91.45
3388,F#4,434.0,1.5,121,91.45
3389,D4,434.0,1.5,121,91.45
3390,B4,434.0,1.5,121,91.45
3391,B2,434.5,1.0,80,91.45
3392,E1,434.5,3.0,75,91.45
3393,B1,434.5,0.25,75,91.45
3394,E-3,434.5,0.25,75,91.45
3395,F#3,435.5,1.0,80,91.45
3396,E-3,435.5,0.25,75,91.45
3397,F#5,435.5,1.0,112,91.45
3398,B5,435.5,1.0,112,91.45
3399,B4,435.5,1.0,117,91.45
3400,F#4,435.5,1.0,117,91.45
3401,D6,435.5,1.0,117,91.45
3402,B1,436.0,0.25,75,91.45
3403,B3,436.5,1.0,80,91.45
3404,E2,436.5,0.25,75,91.45
3405,E-3,436.5,0.25,75,91.45
3406,E4,437.5,1.0,80,91.45
3407,E1,437.5,1.0,75,91.45
3408,F#5,437.5,1.0,112,91.45
3409,B5,437.5,1.0,112,91.45
3410,B4,437.5,0.5,117,91.45
3411,F#4,437.5,0.5,117,91.45
3412,D6,437.5,0.5,117,91.45
3413,B1,437.5,0.25,75,91.45
3414,A3,437.5,0.25,75,91.45
3415,D4,438.5,1.0,80,91.45
3416,A1,438.5,3.0,75,91.45
3417,E5,438.5,0.5,127,91.45
3418,C#6,438.5,0.5,127,91.45
3419,B1,438.5,0.25,75,91.45
3420,C#3,438.5,0.25,75,91.45
3421,D5,439.0,0.5,127,91.45
3422,B5,439.0,0.5,127,91.45
3423,B3,439.5,1.0,80,91.45
3424,E-3,439.5,0.25,75,91.45
3425,C#5,439.5,0.5,127,91.45
3426,A5,439.5,0.5,127,91.45
3427,B1,440.0,0.25,75,91.45
3428,B4,440.0,0.5,127,91.45
3429,G#5,440.0,0.5,127,91.45
3430,D3,440.5,1.0,80,91.45
3431,A4,440.5,0.5,127,91.45
3432,F#5,440.5,0.5,127,91.45
3433,E2,440.5,0.25,75,91.45
3434,E-3,440.5,0.25,75,91.45
3435,G#4,441.0,0.5,127,91.45
3436,E5,441.0,0.5,127,91.45
3437,B2,441.5,1.0,80,91.45
3438,A1,441.5,1.0,75,91.45
3439,G#3,441.5,1.5,127,91.45
3440,E4,441.5,1.5,127,91.45
3441,E3,441.5,1.5,127,91.45
3442,G#4,441.5,1.5,127,91.45
3443,B1,441.5,0.25,75,91.45
3444,A3,441.5,0.25,75,91.45
3445,E2,442.5,1.0,80,91.45
3446,D2,442.5,4.0,100,91.45
3447,B1,442.5,0.25,100,91.45
3448,C#3,442.5,0.25,100,91.45
3449,B3,443.0,1.5,127,91.45
3450,E4,443.0,1.5,127,91.45
3451,A4,443.0,1.5,127,91.45
3452,B2,443.5,1.0,80,91.45
3453,E2,443.5,0.25,35,91.45
3454,F2,443.5,0.25,35,91.45
3455,B1,443.5,0.25,35,91.45
3456,E2,444.0,0.25,39,91.45
3457,F2,444.0,0.25,39,91.45
3458,B1,444.0,0.25,39,91.45
3459,E4,444.5,1.0,80,91.45
3460,G#3,444.5,1.0,117,91.45
3461,E4,444.5,1.0,117,91.45
3462,B4,444.5,1.0,117,91.45
3463,E2,444.5,0.25,44,91.45
3464,F2,444.5,0.25,44,91.45
3465,B1,444.5,0.25,44,91.45
3466,E2,445.0,0.25,48,91.45
3467,F2,445.0,0.25,48,91.45
3468,B1,445.0,0.25,48,91.45
3469,B3,445.5,1.0,80,91.45
3470,C4,445.5,1.5,127,91.45
3471,A4,445.5,1.5,127,91.45
3472,C5,445.5,1.5,127,91.45
3473,E2,445.5,0.25,53,91.45
3474,F2,445.5,0.25,53,91.45
3475,B1,445.5,0.25,53,91.45
3476,E2,446.0,0.25,58,91.45
3477,F2,446.0,0.25,58,91.45
3478,B1,446.0,0.25,58,91.45
3479,A2,446.5,1.0,80,91.45
3480,D2,446.5,4.0,100,91.45
3481,E2,446.5,0.25,62,91.45
3482,F2,446.5,0.25,62,91.45
3483,B1,446.5,0.25,62,91.45
3484,D4,447.0,1.5,127,91.45
3485,A4,447.0,1.5,127,91.45
3486,D5,447.0,1.5,127,91.45
3487,E2,447.0,0.25,67,91.45
3488,B1,447.0,0.25,67,91.45
3489,F2,447.0,0.25,67,91.45
3490,E3,447.5,1.0,80,91.45
3491,E2,447.5,0.25,71,91.45
3492,F2,447.5,0.25,71,91.45
3493,B1,447.5,0.25,71,91.45
3494,D5,448.0,0.5,87,91.45
3495,E2,448.0,0.25,76,91.45
3496,F2,448.0,0.25,76,91.45
3497,B1,448.0,0.25,76,91.45
3498,B3,448.5,1.0,80,91.45
3499,C5,448.5,0.5,127,91.45
3500,E4,448.5,1.0,127,91.45
3501,E5,448.5,1.0,127,91.45
3502,E2,448.5,0.25,81,91.45
3503,F2,448.5,0.25,81,91.45
3504,B1,448.5,0.25,81,91.45
3505,E2,449.0,0.25,85,91.45
3506,F2,449.0,0.25,85,91.45
3507,B1,449.0,0.25,85,91.45
3508,A3,449.5,1.0,80,91.45
3509,F#4,449.5,1.5,127,91.45
3510,A3,449.5,1.5,127,91.45
3511,A4,449.5,1.5,127,91.45
3512,E2,449.5,0.25,90,91.45
3513,F2,449.5,0.25,90,91.45
3514,B1,449.5,0.25,90,91.45
3515,E2,450.0,0.25,95,91.45
3516,F2,450.0,0.25,95,91.45
3517,B1,450.0,0.25,95,91.45
3518,D3,450.5,1.0,80,91.45
3519,E3,450.5,0.25,127,91.45
3520,E2,451.0,1.0,100,91.45
3521,B1,451.0,0.25,100,91.45
3522,D4,451.0,1.5,127,91.45
3523,G3,451.0,1.5,127,91.45
3524,G4,451.0,1.5,127,91.45
3525,A3,451.5,1.0,80,91.45
3526,B-2,451.5,0.25,100,91.45
3527,F2,452.0,0.75,100,91.45
3528,B1,452.0,0.25,100,91.45
3529,D4,452.5,1.0,80,91.45
3530,D4,452.5,1.0,107,91.45
3531,F#3,452.5,0.5,127,91.45
3532,F#4,452.5,0.5,127,91.45
3533,B-2,452.5,0.25,100,91.45
3534,E2,452.5,0.25,100,91.45
3535,D2,453.0,0.625,100,91.45
3536,A4,453.5,1.0,80,91.45
3537,B-2,453.5,0.25,100,91.45
3538,F#3,453.5,4.0,127,91.45
3539,D3,453.5,4.0,127,91.45
3540,A3,453.5,4.0,127,91.45
3541,D4,453.5,4.0,127,91.45
3542,E2,454.0,0.5,100,91.45
3543,B1,454.0,0.25,100,91.45
3544,E4,454.5,1.0,80,91.45
3545,E2,454.5,1.0,100,91.45
3546,B-2,454.5,0.25,100,91.45
3547,G4,455.5,1.5,100,91.45
3548,B1,455.5,1.5,100,91.45
3549,B1,455.5,0.25,100,91.45
3550,B-2,455.5,0.25,100,91.45
3551,E2,456.5,0.25,100,91.45
3552,B-2,456.5,0.25,100,91.45
3553,F#4,457.0,1.5,100,91.45
3554,D2,457.0,1.5,100,91.45
3555,B1,457.0,0.25,100,91.45
3556,B-2,457.5,0.25,100,91.45
3557,E2,458.5,0.75,100,91.45
3558,B1,458.5,0.25,100,91.45
3559,B-2,458.5,0.25,100,91.45
3560,E3,459.0,1.0,100,91.45
3561,E2,459.0,0.25,70,91.45
3562,B4,459.0,1.0,50,91.45
3563,E5,459.0,1.0,50,91.45
3564,F2,459.5,0.5,100,91.45
3565,B-2,459.5,0.25,100,91.45
3566,B1,459.5,0.25,100,91.45
3567,F3,460.0,0.75,100,91.45
3568,E2,460.0,0.5,100,91.45
3569,C5,460.0,0.75,50,91.45
3570,F5,460.0,0.75,50,91.45
3571,B-2,460.0,0.25,100,91.45
3572,B1,460.0,0.25,100,91.45
3573,B1,460.5,0.5,100,91.45
3574,D3,461.0,0.625,100,91.45
3575,E1,461.0,0.5,100,91.45
3576,B-2,461.0,0.25,100,91.45
3577,A4,461.0,0.625,50,91.45
3578,D5,461.0,0.625,50,91.45
3579,E2,461.5,1.0,100,91.45
3580,B1,461.5,0.25,100,91.45
3581,E3,462.0,0.5,100,91.45
3582,B-2,462.0,0.25,100,91.45
3583,B4,462.0,0.5,50,91.45
3584,E5,462.0,0.5,50,91.45
3585,E3,462.5,1.0,100,91.45
3586,F2,462.5,0.75,100,91.45
3587,B1,462.5,0.25,100,91.45
3588,B4,462.5,1.0,50,91.45
3589,E5,462.5,1.0,50,91.45
3590,E2,463.0,0.25,100,91.45
3591,B-2,463.0,0.25,100,91.45
3592,B2,463.5,1.5,100,91.45
3593,D2,463.5,0.625,100,91.45
3594,B1,463.5,0.25,100,91.45
3595,F#4,463.5,1.5,50,91.45
3596,B4,463.5,1.5,50,91.45
3597,B-2,464.0,0.25,100,91.45
3598,E2,464.5,0.5,100,91.45
3599,B1,464.5,0.25,100,91.45
3600,D3,465.0,1.5,100,91.45
3601,E2,465.0,1.0,100,91.45
3602,B-2,465.0,0.25,100,91.45
3603,A4,465.0,1.5,50,91.45
3604,D5,465.0,1.5,50,91.45
3605,B1,466.0,1.5,100,91.45
3606,B-2,466.0,0.25,100,91.45
3607,B1,466.0,0.25,100,91.45
3608,E3,466.5,0.75,100,91.45
3609,B4,466.5,0.75,50,91.45
3610,E5,466.5,0.75,50,91.45
3611,B-2,467.0,0.25,100,91.45
3612,E2,467.0,0.25,100,91.45
3613,F3,467.5,0.5,100,91.45
3614,D2,467.5,1.5,100,91.45
3615,B1,467.5,0.25,100,91.45
3616,C5,467.5,0.5,50,91.45
3617,F5,467.5,0.5,50,91.45
3618,E3,468.0,1.0,100,91.45
3619,B-2,468.0,0.25,100,91.45
3620,B4,468.0,1.0,50,91.45
3621,E5,468.0,1.0,50,91.45
3622,E3,469.0,0.25,100,91.45
3623,A1,469.0,0.5,100,91.45
3624,B4,469.0,0.25,50,91.45
3625,E5,469.0,0.25,50,91.45
3626,B1,469.0,0.25,100,91.45
3627,B-2,469.0,0.25,100,91.45
3628,E3,469.5,1.0,100,91.45
3629,G#1,469.5,0.5,100,91.45
3630,E2,469.5,0.25,80,91.45
3631,B4,469.5,1.0,50,91.45
3632,E5,469.5,1.0,50,91.45
3633,A1,470.0,0.5,100,91.45
3634,B1,470.0,0.25,100,91.45
3635,B-2,470.0,0.25,100,91.45
3636,F3,470.5,0.75,100,91.45
3637,B1,470.5,0.5,100,91.45
3638,E2,470.5,0.25,80,91.45
3639,C5,470.5,0.75,50,91.45
3640,F5,470.5,0.75,50,91.45
3641,A1,471.0,0.5,100,91.45
3642,B1,471.0,0.25,100,91.45
3643,B-2,471.0,0.25,100,91.45
3644,D3,471.5,0.625,100,91.45
3645,G#1,471.5,0.5,100,91.45
3646,E2,471.5,0.25,80,91.45
3647,A4,471.5,0.625,50,91.45
3648,D5,471.5,0.625,50,91.45
3649,E-1,472.0,0.5,100,91.45
3650,B-2,472.0,0.25,100,91.45
3651,B1,472.0,0.25,100,91.45
3652,E3,472.5,0.5,100,91.45
3653,E1,472.5,0.375,100,91.45
3654,B4,472.5,0.5,50,91.45
3655,E5,472.5,0.5,50,91.45
3656,G3,472.5,0.25,80,91.45
3657,E3,472.5,0.25,80,91.45
3658,B1,472.5,0.25,80,91.45
3659,E3,473.0,1.0,100,91.45
3660,E2,473.0,1.0,100,91.45
3661,B4,473.0,1.0,50,91.45
3662,E5,473.0,1.0,50,91.45
3663,B-2,473.5,0.25,100,91.45
3664,B2,474.0,1.5,100,91.45
3665,F2,474.0,0.75,100,91.45
3666,B1,474.0,0.25,100,91.45
3667,F#4,474.0,1.5,50,91.45
3668,B4,474.0,1.5,50,91.45
3669,E2,474.5,0.25,100,91.45
3670,B-2,474.5,0.25,100,91.45
3671,D2,475.0,0.625,100,91.45
3672,D3,475.5,1.5,100,91.45
3673,B-2,475.5,0.25,100,91.45
3674,A4,475.5,1.5,50,91.45
3675,D5,475.5,1.5,50,91.45
3676,E2,476.0,0.5,100,91.45
3677,B1,476.0,0.25,100,91.45
3678,E2,476.5,1.0,100,91.45
3679,B-2,476.5,0.25,100,91.45
3680,A2,477.0,0.5,100,91.45
3681,E4,477.0,0.5,50,91.45
3682,A4,477.0,0.5,50,91.45
3683,G#2,477.5,0.5,100,91.45
3684,B1,477.5,1.5,100,91.45
3685,E-4,477.5,0.5,50,91.45
3686,G#4,477.5,0.5,50,91.45
3687,B1,477.5,0.25,100,91.45
3688,B-2,477.5,0.25,100,91.45
3689,A2,478.0,0.5,100,91.45
3690,E4,478.0,0.5,50,91.45
3691,A4,478.0,0.5,50,91.45
3692,B2,478.5,0.5,100,91.45
3693,F#4,478.5,0.5,50,91.45
3694,B4,478.5,0.5,50,91.45
3695,E2,478.5,0.25,100,91.45
3696,B-2,478.5,0.25,100,91.45
3697,A2,479.0,0.5,100,91.45
3698,D2,479.0,1.5,100,91.45
3699,B1,479.0,0.25,100,91.45
3700,E4,479.0,0.5,50,91.45
3701,A4,479.0,0.5,50,91.45
3702,G#2,479.5,0.5,100,91.45
3703,B-2,479.5,0.25,100,91.45
3704,E-4,479.5,0.5,50,91.45
3705,G#4,479.5,0.5,50,91.45
3706,D3,480.0,0.5,100,91.45
3707,A4,480.0,0.5,50,91.45
3708,D5,480.0,0.5,50,91.45
3709,E3,480.5,0.375,100,91.45
3710,E2,480.5,0.75,100,91.45
3711,B4,480.5,0.375,50,91.45
3712,E5,480.5,0.375,50,91.45
3713,B1,480.5,0.25,100,91.45
3714,B-2,480.5,0.25,100,91.45
3715,E3,481.0,1.0,100,91.45
3716,E2,481.0,0.25,70,91.45
3717,B4,481.0,1.0,50,91.45
3718,E5,481.0,1.0,50,91.45
3719,F2,481.5,0.5,100,91.45
3720,B1,481.5,0.25,90,91.45
3721,B-2,481.5,0.25,90,91.45
3722,F3,482.0,0.75,100,91.45
3723,E2,482.0,0.5,127,91.45
3724,C5,482.0,0.75,50,91.45
3725,F5,482.0,0.75,50,91.45
3726,B1,482.0,0.25,100,91.45
3727,B-2,482.0,0.25,100,91.45
3728,B1,482.5,0.5,127,91.45
3729,D3,483.0,0.625,100,91.45
3730,E1,483.0,0.5,127,91.45
3731,B-2,483.0,0.25,100,91.45
3732,A4,483.0,0.625,50,91.45
3733,D5,483.0,0.625,50,91.45
3734,E2,483.5,1.0,100,91.45
3735,B1,483.5,0.25,100,91.45
3736,E3,484.0,0.5,100,91.45
3737,B-2,484.0,0.25,100,91.45
3738,B4,484.0,0.5,50,91.45
3739,E5,484.0,0.5,50,91.45
3740,E3,484.5,1.0,100,91.45
3741,F2,484.5,0.75,100,91.45
3742,B1,484.5,0.25,100,91.45
3743,B4,484.5,1.0,50,91.45
3744,E5,484.5,1.0,50,91.45
3745,B-2,485.0,0.25,100,91.45
3746,E2,485.0,0.25,100,91.45
3747,B2,485.5,1.5,100,91.45
3748,D2,485.5,0.625,100,91.45
3749,F#4,485.5,1.5,50,91.45
3750,B4,485.5,1.5,50,91.45
3751,B-2,486.0,0.25,100,91.45
3752,E2,486.5,0.5,100,91.45
3753,B1,486.5,0.25,100,91.45
3754,D3,487.0,1.5,100,91.45
3755,E2,487.0,1.0,100,91.45
3756,B-2,487.0,0.25,100,91.45
3757,A4,487.0,1.5,50,91.45
3758,D5,487.0,1.5,50,91.45
3759,B1,488.0,1.5,100,91.45
3760,B1,488.0,0.25,100,91.45
3761,B-2,488.0,0.25,100,91.45
3762,E3,488.5,0.75,100,91.45
3763,B4,488.5,0.75,50,91.45
3764,E5,488.5,0.75,50,91.45
3765,E2,489.0,0.25,100,91.45
3766,B-2,489.0,0.25,100,91.45
3767,F3,489.5,0.5,100,91.45
3768,D2,489.5,1.5,100,91.45
3769,B1,489.5,0.25,100,91.45
3770,C5,489.5,0.5,50,91.45
3771,F5,489.5,0.5,50,91.45
3772,E3,490.0,1.0,100,91.45
3773,B-2,490.0,0.25,100,91.45
3774,B4,490.0,1.0,50,91.45
3775,E5,490.0,1.0,50,91.45
3776,E3,491.0,0.25,100,91.45
3777,B-2,491.0,0.25,100,91.45
3778,B4,491.0,0.25,50,91.45
3779,E5,491.0,0.25,50,91.45
3780,E3,491.5,1.0,100,91.45
3781,G#1,491.5,667/1000,100,91.45
3782,E2,491.5,0.25,100,91.45
3783,B4,491.5,1.0,50,91.45
3784,E5,491.5,1.0,50,91.45
3785,B-2,492.0,0.25,100,91.45
3786,F3,492.5,0.75,100,91.45
3787,A1,492.5,0.5,100,91.45
3788,E2,492.5,0.25,100,91.45
3789,C5,492.5,0.75,50,91.45
3790,F5,492.5,0.75,50,91.45
3791,B1,493.0,1.0,100,91.45
3792,E2,493.0,0.25,100,91.45
3793,D3,493.5,0.625,100,91.45
3794,A4,493.5,0.625,50,91.45
3795,D5,493.5,0.625,50,91.45
3796,B-2,494.0,0.25,100,91.45
3797,E3,494.5,0.5,100,91.45
3798,C2,494.5,667/1000,100,91.45
3799,E2,494.5,0.25,100,91.45
3800,B4,494.5,0.5,50,91.45
3801,E5,494.5,0.5,50,91.45
3802,E3,495.0,1.0,100,91.45
3803,B-2,495.0,0.25,100,91.45
3804,B4,495.0,1.0,50,91.45
3805,E5,495.0,1.0,50,91.45
3806,D2,495.5,0.5,100,91.45
3807,E2,495.5,0.25,100,91.45
3808,B2,496.0,1.5,100,91.45
3809,E2,496.0,1.0,100,91.45
3810,E2,496.0,0.25,100,91.45
3811,F#4,496.0,1.5,50,91.45
3812,B4,496.0,1.5,50,91.45
3813,A1,497.0,3.0,80,91.45
3814,B1,497.0,0.25,100,91.45
3815,C#3,497.0,0.25,100,91.45
3816,D3,497.5,1.5,100,91.45
3817,F3,497.5,0.25,100,91.45
3818,A4,497.5,1.5,50,91.45
3819,D5,497.5,1.5,50,91.45
3820,G#2,498.0,0.25,70,91.45
3821,F3,498.5,0.25,100,91.45
3822,G#2,499.0,0.25,70,91.45
3823,G#2,499.5,667/1000,100,91.45
3824,F3,499.5,0.25,65,91.45
3825,E-4,499.5,667/1000,50,91.45
3826,G#4,499.5,667/1000,50,91.45
3827,F1,500.0,1.0,80,91.45
3828,E2,500.0,0.25,100,91.45
3829,A2,500.5,0.5,100,91.45
3830,F3,500.5,0.25,100,91.45
3831,E4,500.5,0.5,50,91.45
3832,A4,500.5,0.5,50,91.45
3833,B2,501.0,1.0,100,91.45
3834,E1,501.0,1.0,80,91.45
3835,F#4,501.0,1.0,50,91.45
3836,B4,501.0,1.0,50,91.45
3837,G#2,501.0,0.25,100,91.45
3838,F3,501.0,0.25,100,91.45
3839,A1,502.0,1.0,80,91.45
3840,G#2,502.0,0.25,100,91.45
3841,F3,502.0,0.25,100,91.45
3842,C3,502.5,667/1000,100,91.45
3843,G4,502.5,667/1000,50,91.45
3844,C5,502.5,667/1000,50,91.45
3845,E1,503.0,3.0,80,91.45
3846,B1,503.0,0.25,80,91.45
3847,A3,503.0,0.25,80,91.45
3848,D3,503.5,0.5,100,91.45
3849,F3,503.5,0.25,100,91.45
3850,A4,503.5,0.5,50,91.45
3851,D5,503.5,0.5,50,91.45
3852,E3,504.0,1.0,100,91.45
3853,A1,504.0,3.0,100,91.45
3854,G#2,504.0,0.25,70,91.45
3855,B4,504.0,1.0,50,91.45
3856,E5,504.0,1.0,50,91.45
3857,F3,504.5,0.25,100,91.45
3858,E4,504.5,0.25,80,91.45
3859,C4,504.5,0.25,80,91.45
3860,E3,504.5,0.25,80,91.45
3861,A3,504.5,0.25,80,91.45
3862,G#2,505.0,0.25,70,91.45
3863,F3,505.5,0.25,65,91.45
3864,E4,505.5,1.5,80,91.45
3865,C4,505.5,1.5,80,91.45
3866,E3,505.5,1.5,80,91.45
3867,A3,505.5,1.5,80,91.45
3868,A3,506.0,0.5,100,91.45
3869,E-2,506.0,1.0,80,91.45
3870,E2,506.0,0.25,100,91.45
3871,C4,506.5,0.5,100,91.45
3872,F3,506.5,0.25,100,91.45
3873,E-4,507.0,333/1000,100,91.45
3874,D2,507.0,1.0,80,91.45
3875,F2,507.0,3.0,80,91.45
3876,F1,507.0,1.0,100,91.45
3877,E4,507.0,1.5,80,91.45
3878,C4,507.0,1.5,80,91.45
3879,E3,507.0,1.5,80,91.45
3880,A3,507.0,1.5,80,91.45
3881,G#2,507.0,0.25,100,91.45
3882,F3,507.0,0.25,100,91.45
3883,D4,507.333,333/1000,90,91.45
3884,C4,507.667,333/1000,80,91.45
3885,F#3,508.0,2.0,100,91.45
3886,C2,508.0,1.0,80,91.45
3887,E1,508.0,1.0,100,91.45
3888,G#2,508.0,0.25,100,91.45
3889,F3,508.0,0.25,100,91.45
3890,A1,509.0,3.0,80,91.45
3891,A1,509.0,1.0,100,91.45
3892,C#3,509.0,0.25,80,91.45
3893,B1,509.0,0.25,80,91.45
3894,F3,509.5,0.25,100,91.45
3895,E1,510.0,3.0,100,91.45
3896,G#2,510.0,0.25,70,91.45
3897,C4,510.5,0.5,100,91.45
3898,F3,510.5,0.25,100,91.45
3899,D3,510.5,0.25,80,91.45
3900,D4,510.5,0.25,80,91.45
3901,E2,510.5,0.25,80,91.45
3902,B2,510.5,0.25,80,91.45
3903,G#3,510.5,0.25,80,91.45
3904,D4,511.0,1.0,100,91.45
3905,G#2,511.0,0.25,70,91.45
3906,F3,511.5,0.25,65,91.45
3907,E2,511.5,1.5,80,91.45
3908,D4,511.5,1.5,80,91.45
3909,B2,511.5,1.5,80,91.45
3910,D3,511.5,1.5,80,91.45
3911,G#3,511.5,1.5,80,91.45
3912,F1,512.0,3.0,80,91.45
3913,E2,512.0,0.25,100,91.45
3914,A4,512.008,123/250,80,91.45
3915,A4,512.5,1.5,120,91.45
3916,F3,512.5,0.25,100,91.45
3917,E-2,513.0,1.0,80,91.45
3918,E2,513.0,1.5,80,91.45
3919,D4,513.0,1.5,80,91.45
3920,B2,513.0,1.5,80,91.45
3921,D3,513.0,1.5,80,91.45
3922,G#3,513.0,1.5,80,91.45
3923,G#2,513.0,0.25,100,91.45
3924,F3,513.0,0.25,100,91.45
3925,A4,514.0,3.0,120,91.45
3926,D2,514.0,1.0,80,91.45
3927,G#2,514.0,0.25,100,91.45
3928,F3,514.0,0.25,100,91.45
3929,E1,515.0,3.0,80,91.45
3930,C2,515.0,1.0,100,91.45
3931,B1,515.0,0.25,80,91.45
3932,A3,515.0,0.25,80,91.45
3933,F3,515.5,0.25,100,91.45
3934,A1,516.0,3.0,100,91.45
3935,G#2,516.0,0.25,70,91.45
3936,F3,516.5,0.25,100,91.45
3937,E4,516.5,0.25,80,91.45
3938,C4,516.5,0.25,80,91.45
3939,E3,516.5,0.25,80,91.45
3940,A3,516.5,0.25,80,91.45
3941,G#2,517.0,0.25,70,91.45
3942,G4,517.5,0.75,100,91.45
3943,B1,517.5,0.25,65,91.45
3944,E4,517.5,1.5,80,91.45
3945,C4,517.5,1.5,80,91.45
3946,E3,517.5,1.5,80,91.45
3947,A3,517.5,1.5,80,91.45
3948,A1,518.0,1.0,80,91.45
3949,F2,518.0,0.25,90,91.45
3950,E2,518.0,0.25,90,91.45
3951,B1,518.0,0.25,90,91.45
3952,E4,518.25,0.25,100,91.45
3953,D4,518.5,0.5,100,91.45
3954,E4,519.0,0.5,100,91.45
3955,F1,519.0,3.0,90,91.45
3956,F2,519.0,3.0,90,91.45
3957,E4,519.0,1.5,80,91.45
3958,C4,519.0,1.5,80,91.45
3959,E3,519.0,1.5,80,91.45
3960,A3,519.0,1.5,80,91.45
3961,C4,519.5,0.5,100,91.45
3962,A3,520.0,0.5,100,91.45
3963,C4,520.5,0.5,100,91.45
3964,E4,521.0,0.5,100,91.45
3965,A1,521.0,3.0,80,91.45
3966,B1,521.0,0.25,100,91.45
3967,C#3,521.0,0.25,100,91.45
3968,A4,521.5,0.5,100,91.45
3969,F3,521.5,0.25,100,91.45
3970,C5,522.0,0.5,100,91.45
3971,E1,522.0,3.0,100,91.45
3972,G#2,522.0,0.25,70,91.45
3973,A4,522.5,0.5,100,91.45
3974,F3,522.5,0.25,100,91.45
3975,D3,522.5,0.25,80,91.45
3976,D4,522.5,0.25,80,91.45
3977,E2,522.5,0.25,80,91.45
3978,B2,522.5,0.25,80,91.45
3979,G#3,522.5,0.25,80,91.45
3980,B4,523.0,0.5,100,91.45
3981,G#2,523.0,0.25,70,91.45
3982,C5,523.5,0.25,100,91.45
3983,F3,523.5,0.25,65,91.45
3984,E2,523.5,1.5,80,91.45
3985,D4,523.5,1.5,80,91.45
3986,B2,523.5,1.5,80,91.45
3987,D3,523.5,1.5,80,91.45
3988,G#3,523.5,1.5,80,91.45
3989,B4,523.75,0.25,100,91.45
3990,A4,524.0,0.5,100,91.45
3991,F1,524.0,1.0,80,91.45
3992,E2,524.0,0.25,100,91.45
3993,E4,524.5,0.5,100,91.45
3994,F3,524.5,0.25,100,91.45
3995,G#4,525.0,0.5,100,91.45
3996,F1,525.0,1.0,80,91.45
3997,A1,525.0,1.0,87,91.45
3998,E3,525.0,1.0,87,91.45
3999,A2,525.0,1.0,87,91.45
4000,G#2,525.0,0.25,100,91.45
4001,F3,525.0,0.25,100,91.45
4002,E4,525.5,0.5,100,91.45
4003,E4,526.0,2.0,100,91.45
4004,C2,526.0,1.0,80,91.45
4005,G#2,526.0,0.25,100,91.45
4006,F3,526.0,0.25,100,91.45
4007,B-2,526.5,0.25,100,91.45
4008,E1,527.0,3.0,80,91.45
4009,G#2,527.0,0.25,78,91.45
4010,B1,527.0,0.25,78,91.45
4011,C#3,527.0,0.25,78,91.45
4012,F3,527.5,0.25,100,91.45
4013,D4,528.0,0.5,100,91.45
4014,A1,528.0,3.0,100,91.45
4015,G#2,528.0,0.25,70,91.45
4016,E4,528.5,0.5,100,91.45
4017,F3,528.5,0.25,100,91.45
4018,E4,528.5,0.25,80,91.45
4019,C4,528.5,0.25,80,91.45
4020,E3,528.5,0.25,80,91.45
4021,A3,528.5,0.25,80,91.45
4022,G#2,529.0,0.25,70,91.45
4023,B4,529.008,373/250,100,91.45
4024,F3,529.5,0.25,65,91.45
4025,E4,529.5,1.5,80,91.45
4026,C4,529.5,1.5,80,91.45
4027,E3,529.5,1.5,80,91.45
4028,A3,529.5,1.5,80,91.45
4029,E-2,530.0,1.0,80,91.45
4030,E2,530.0,0.25,100,91.45
4031,A4,530.5,0.5,80,91.45
4032,F3,530.5,0.25,100,91.45
4033,E4,531.0,0.5,100,91.45
4034,D2,531.0,1.0,80,91.45
4035,F1,531.0,1.0,100,91.45
4036,F2,531.0,3.0,80,91.45
4037,G#2,531.0,0.25,100,91.45
4038,F3,531.0,0.25,100,91.45
4039,F4,531.5,0.5,100,91.45
4040,E2,531.5,0.25,65,91.45
4041,F#4,532.0,0.5,100,91.45
4042,C2,532.0,1.0,80,91.45
4043,F1,532.0,1.0,100,91.45
4044,G3,532.0,0.25,93,91.45
4045,G#2,532.0,0.25,93,91.45
4046,F3,532.0,0.25,93,91.45
4047,A4,532.5,0.5,100,91.45
4048,C#3,532.5,0.25,85,91.45
4049,C5,533.0,0.5,100,91.45
4050,A1,533.0,3.0,80,91.45
4051,C2,533.0,1.0,100,91.45
4052,E3,533.0,0.25,95,91.45
4053,B1,533.0,0.25,95,91.45
4054,E-5,533.5,0.5,100,91.45
4055,F3,533.5,0.25,100,91.45
4056,D5,534.0,0.5,100,91.45
4057,E1,534.0,3.0,100,91.45
4058,G#2,534.0,0.25,70,91.45
4059,C5,534.5,0.5,100,91.45
4060,F3,534.5,0.25,100,91.45
4061,D3,534.5,0.25,80,91.45
4062,D4,534.5,0.25,80,91.45
4063,E2,534.5,0.25,80,91.45
4064,B2,534.5,0.25,80,91.45
4065,G#3,534.5,0.25,80,91.45
4066,B4,535.0,1.5,100,91.45
4067,G#2,535.0,0.25,70,91.45
4068,F3,535.5,0.25,65,91.45
4069,E2,535.5,1.5,80,91.45
4070,D4,535.5,1.5,80,91.45
4071,B2,535.5,1.5,80,91.45
4072,D3,535.5,1.5,80,91.45
4073,G#3,535.5,1.5,80,91.45
4074,F1,536.0,3.0,80,91.45
4075,E2,536.0,0.25,100,91.45
4076,D5,536.5,0.5,100,91.45
4077,F3,536.5,0.25,100,91.45
4078,B4,537.0,0.5,100,91.45
4079,E-2,537.0,1.0,100,91.45
4080,G#2,537.0,0.25,100,91.45
4081,F3,537.0,0.25,100,91.45
4082,B4,537.5,0.5,100,91.45
4083,A3,537.5,0.5,80,91.45
4084,A4,538.0,3.0,100,91.45
4085,D2,538.0,1.0,100,91.45
4086,G3,538.0,0.5,82,91.45
4087,C4,538.0,0.5,82,91.45
4088,G#2,538.0,0.25,100,91.45
4089,F3,538.0,0.25,100,91.45
4090,A3,538.5,0.5,85,91.45
4091,E1,539.0,3.0,80,91.45
4092,C2,539.0,1.0,100,91.45
4093,G3,539.0,0.5,87,91.45
4094,D4,539.0,0.5,87,91.45
4095,B1,539.0,0.25,100,91.45
4096,C#3,539.0,0.25,100,91.45
4097,F3,539.5,0.25,100,91.45
4098,E3,539.5,0.5,90,91.45
4099,A3,539.5,0.5,90,91.45
4100,A1,540.0,3.0,100,91.45
4101,G#2,540.0,0.25,70,91.45
4102,F3,540.5,0.25,100,91.45
4103,E4,540.5,0.25,80,91.45
4104,C4,540.5,0.25,80,91.45
4105,E3,540.5,0.25,80,91.45
4106,A3,540.5,0.25,80,91.45
4107,G#2,541.0,0.25,70,91.45
4108,E-4,541.5,0.5,100,91.45
4109,F3,541.5,0.25,65,91.45
4110,E4,541.5,1.5,80,91.45
4111,C4,541.5,1.5,80,91.45
4112,E3,541.5,1.5,80,91.45
4113,A3,541.5,1.5,80,91.45
4114,E4,542.0,0.5,100,91.45
4115,A1,542.0,3.0,80,91.45
4116,E2,542.0,0.25,100,91.45
4117,A4,542.5,0.5,100,91.45
4118,F3,542.5,0.25,100,91.45
4119,C5,543.0,0.5,127,91.45
4120,F1,543.0,3.0,90,91.45
4121,F2,543.0,3.0,90,91.45
4122,G#2,543.0,0.25,100,91.45
4123,F3,543.0,0.25,100,91.45
4124,E5,543.5,0.5,100,91.45
4125,F5,544.0,0.5,100,91.45
4126,G#2,544.0,0.25,100,91.45
4127,F3,544.0,0.25,100,91.45
4128,C5,544.5,0.5,70,91.45
4129,C5,545.0,0.5,100,91.45
4130,G#2,545.0,0.25,65,91.45
4131,A4,545.5,0.5,100,91.45
4132,G#1,545.5,467/1000,80,91.45
4133,E2,545.5,0.25,60,91.45
4134,G4,546.0,0.5,100,91.45
4135,B1,546.0,467/1000,81,91.45
4136,E1,546.0,3.0,100,91.45
4137,E2,546.0,0.25,64,91.45
4138,G#2,546.0,0.25,64,91.45
4139,E4,546.5,0.5,100,91.45
4140,E2,546.5,467/1000,83,91.45
4141,E2,546.5,0.25,68,91.45
4142,D3,546.5,0.25,80,91.45
4143,D4,546.5,0.25,80,91.45
4144,E2,546.5,0.25,80,91.45
4145,B2,546.5,0.25,80,91.45
4146,G#3,546.5,0.25,80,91.45
4147,F#4,547.0,0.5,100,91.45
4148,C2,547.0,467/1000,85,91.45
4149,E2,547.0,0.25,68,91.45
4150,G#2,547.0,0.25,68,91.45
4151,G4,547.5,0.25,100,91.45
4152,E2,547.5,467/1000,87,91.45
4153,E2,547.5,0.25,76,91.45
4154,E2,547.5,1.5,80,91.45
4155,D4,547.5,1.5,80,91.45
4156,B2,547.5,1.5,80,91.45
4157,D3,547.5,1.5,80,91.45
4158,G#3,547.5,1.5,80,91.45
4159,F#4,547.75,0.25,100,91.45
4160,E4,548.0,0.5,100,91.45
4161,A2,548.0,467/1000,89,91.45
4162,G#2,548.0,0.25,72,91.45
4163,E2,548.0,0.25,72,91.45
4164,E-4,548.5,0.5,100,91.45
4165,G#2,548.5,467/1000,90,91.45
4166,E2,548.5,0.25,84,91.45
4167,D4,549.0,0.5,100,91.45
4168,B2,549.0,467/1000,92,91.45
4169,A1,549.0,3.0,100,91.45
4170,E4,549.0,3.0,100,91.45
4171,C4,549.0,3.0,100,91.45
4172,A3,549.0,3.0,100,91.45
4173,E3,549.0,3.0,100,91.45
4174,G#2,549.0,0.25,76,91.45
4175,E2,549.0,0.25,76,91.45
4176,C4,549.5,0.5,100,91.45
4177,D3,549.5,467/1000,94,91.45
4178,E2,549.5,0.25,92,91.45
4179,A3,550.0,3.0,100,91.45
4180,B2,550.0,467/1000,96,91.45
4181,G#2,550.0,0.25,80,91.45
4182,E2,550.0,0.25,80,91.45
4183,C3,550.5,467/1000,98,91.45
4184,E2,550.5,0.25,100,91.45
4185,A1,551.0,3.0,80,91.45
4186,B1,551.0,0.25,100,91.45
4187,C#3,551.0,0.25,100,91.45
4188,F3,551.5,0.25,100,91.45
4189,A1,552.0,3.0,100,91.45
4190,G#2,552.0,0.25,70,91.45
4191,G#1,552.5,467/1000,80,91.45
4192,F3,552.5,0.25,100,91.45
4193,B1,553.0,467/1000,81,91.45
4194,G#2,553.0,0.25,70,91.45
4195,G#2,553.5,467/1000,80,91.45
4196,E2,553.5,467/1000,83,91.45
4197,F3,553.5,0.25,65,91.45
4198,B2,554.0,467/1000,81,91.45
4199,F1,554.0,1.0,80,91.45
4200,C2,554.0,467/1000,85,91.45
4201,E2,554.0,0.25,100,91.45
4202,E3,554.5,467/1000,83,91.45
4203,E2,554.5,467/1000,87,91.45
4204,F3,554.5,0.25,100,91.45
4205,C3,555.0,467/1000,85,91.45
4206,E1,555.0,1.0,80,91.45
4207,A2,555.0,467/1000,89,91.45
4208,G#2,555.0,0.25,100,91.45
4209,F3,555.0,0.25,100,91.45
4210,E3,555.5,467/1000,87,91.45
4211,G#2,555.5,467/1000,90,91.45
4212,A3,556.0,467/1000,89,91.45
4213,A1,556.0,1.0,80,91.45
4214,B2,556.0,467/1000,92,91.45
4215,G#2,556.0,0.25,100,91.45
4216,F3,556.0,0.25,100,91.45
4217,G#3,556.5,467/1000,90,91.45
4218,D3,556.5,467/1000,94,91.45
4219,B-2,556.5,0.25,115,91.45
4220,B3,557.0,467/1000,92,91.45
4221,E1,557.0,3.0,80,91.45
4222,B2,557.0,467/1000,96,91.45
4223,G#2,557.0,0.25,82,91.45
4224,B1,557.0,0.25,82,91.45
4225,D4,557.5,467/1000,94,91.45
4226,C3,557.5,467/1000,98,91.45
4227,B-2,557.5,0.25,108,91.45
4228,F3,557.5,0.25,108,91.45
4229,B3,558.0,467/1000,96,91.45
4230,A1,558.0,3.0,100,91.45
4231,G#2,558.0,0.25,70,91.45
4232,C4,558.5,467/1000,98,91.45
4233,F3,558.5,0.25,100,91.45
4234,E4,558.5,0.25,100,91.45
4235,C4,558.5,0.25,100,91.45
4236,E3,558.5,0.25,100,91.45
4237,A3,558.5,0.25,100,91.45
4238,G#2,559.0,0.25,70,91.45
4239,A5,559.5,1417/1000,127,91.45
4240,F3,559.5,0.25,65,91.45
4241,E4,559.5,1.5,100,91.45
4242,C4,559.5,1.5,100,91.45
4243,E3,559.5,1.5,100,91.45
4244,A3,559.5,1.5,100,91.45
4245,E-2,560.0,1.0,80,91.45
4246,E2,560.0,0.25,100,91.45
4247,G3,560.5,0.25,90,91.45
4248,G3,560.75,0.25,90,91.45
4249,D5,561.0,0.5,127,91.45
4250,D2,561.0,1.0,80,91.45
4251,F2,561.0,3.0,100,91.45
4252,F1,561.0,1.0,100,91.45
4253,E4,561.0,1.5,100,91.45
4254,C4,561.0,1.5,100,91.45
4255,E3,561.0,1.5,100,91.45
4256,A3,561.0,1.5,100,91.45
4257,E2,561.0,0.25,100,91.45
4258,G#2,561.0,0.25,100,91.45
4259,F3,561.0,0.25,100,91.45
4260,C5,561.5,0.5,127,91.45
4261,E2,561.5,0.25,100,91.45
4262,F#4,561.5,0.25,100,91.45
4263,F#4,561.75,0.25,100,91.45
4264,D5,562.0,2.0,127,91.45
4265,C2,562.0,1.0,80,91.45
4266,E1,562.0,1.0,100,91.45
4267,F4,562.0,0.25,100,91.45
4268,G#2,562.0,0.25,100,91.45
4269,F3,562.0,0.25,100,91.45
4270,F4,562.5,0.25,100,91.45
4271,A1,563.0,3.0,80,91.45
4272,A1,563.0,1.0,100,91.45
4273,G3,563.0,0.25,100,91.45
4274,B1,563.0,0.25,100,91.45
4275,E3,563.5,0.25,114,91.45
4276,F3,563.5,0.25,114,91.45
4277,E1,564.0,3.0,100,91.45
4278,G#2,564.0,0.25,70,91.45
4279,A4,564.5,0.5,127,91.45
4280,F3,564.5,0.25,100,91.45
4281,D3,564.5,0.25,100,91.45
4282,D4,564.5,0.25,100,91.45
4283,E2,564.5,0.25,100,91.45
4284,B2,564.5,0.25,100,91.45
4285,G#3,564.5,0.25,100,91.45
4286,G#2,565.0,0.25,70,91.45
4287,C6,565.0,0.5,104,91.45
4288,C5,565.0,0.5,104,91.45
4289,D5,565.5,0.5,127,91.45
4290,F3,565.5,0.25,65,91.45
4291,E2,565.5,1.5,100,91.45
4292,D4,565.5,1.5,100,91.45
4293,B2,565.5,1.5,100,91.45
4294,D3,565.5,1.5,100,91.45
4295,G#3,565.5,1.5,100,91.45
4296,F1,566.0,3.0,80,91.45
4297,E2,566.0,0.25,100,91.45
4298,E-6,566.0,0.5,104,91.45
4299,D5,566.0,0.5,104,91.45
4300,C5,566.5,0.5,127,91.45
4301,F3,566.5,0.25,100,91.45
4302,E-2,567.0,1.0,100,91.45
4303,D6,567.0,0.5,104,91.45
4304,D5,567.0,0.5,104,91.45
4305,E2,567.0,1.5,100,91.45
4306,D4,567.0,1.5,100,91.45
4307,B2,567.0,1.5,100,91.45
4308,D3,567.0,1.5,100,91.45
4309,G#3,567.0,1.5,100,91.45
4310,G#2,567.0,0.25,100,91.45
4311,F3,567.0,0.25,100,91.45
4312,C5,567.5,0.5,127,91.45
4313,D2,568.0,1.0,100,91.45
4314,G#2,568.0,0.25,100,91.45
4315,F3,568.0,0.25,100,91.45
4316,E4,568.5,0.5,127,91.45
4317,A4,569.0,0.5,127,91.45
4318,E1,569.0,3.0,80,91.45
4319,C2,569.0,1.0,100,91.45
4320,B1,569.0,0.25,80,91.45
4321,G#2,569.0,0.25,80,91.45
4322,F3,569.5,0.25,100,91.45
4323,C5,570.0,0.5,127,91.45
4324,A1,570.0,3.0,100,91.45
4325,G#2,570.0,0.25,70,91.45
4326,F3,570.5,0.25,100,91.45
4327,E4,570.5,0.25,100,91.45
4328,C4,570.5,0.25,100,91.45
4329,E3,570.5,0.25,100,91.45
4330,A3,570.5,0.25,100,91.45
4331,A4,571.0,0.5,127,91.45
4332,G#2,571.0,0.25,70,91.45
4333,E4,571.5,0.5,127,91.45
4334,F3,571.5,0.25,65,91.45
4335,E4,571.5,1.5,100,91.45
4336,C4,571.5,1.5,100,91.45
4337,E3,571.5,1.5,100,91.45
4338,A3,571.5,1.5,100,91.45
4339,G4,572.0,2.0,127,91.45
4340,A1,572.0,1.0,80,91.45
4341,E3,572.0,0.25,90,91.45
4342,E2,572.0,0.25,90,91.45
4343,F3,573.0,0.25,100,91.45
4344,F1,573.0,3.0,100,91.45
4345,F2,573.0,3.0,100,91.45
4346,E4,573.0,1.5,100,91.45
4347,C4,573.0,1.5,100,91.45
4348,E3,573.0,1.5,100,91.45
4349,A3,573.0,1.5,100,91.45
4350,F#3,573.5,0.25,85,91.45
4351,G3,573.5,0.25,85,91.45
4352,D4,574.0,0.5,127,91.45
4353,A5,574.0,1.0,80,91.45
4354,D4,574.5,0.5,127,91.45
4355,C4,575.0,1.0,127,91.45
4356,A1,575.0,3.0,80,91.45
4357,B1,575.0,0.25,100,91.45
4358,C#3,575.0,0.25,100,91.45
4359,F3,575.5,0.25,100,91.45
4360,A3,576.0,1.0,127,91.45
4361,E1,576.0,3.0,100,91.45
4362,G#2,576.0,0.25,70,91.45
4363,F3,576.5,0.25,100,91.45
4364,D3,576.5,0.25,100,91.45
4365,D4,576.5,0.25,100,91.45
4366,E2,576.5,0.25,100,91.45
4367,B2,576.5,0.25,100,91.45
4368,G#3,576.5,0.25,100,91.45
4369,G#2,577.0,0.25,70,91.45
4370,G3,577.25,0.25,127,91.45
4371,A3,577.5,0.25,127,91.45
4372,F3,577.5,0.25,65,91.45
4373,E2,577.5,1.5,100,91.45
4374,D4,577.5,1.5,100,91.45
4375,B2,577.5,1.5,100,91.45
4376,D3,577.5,1.5,100,91.45
4377,G#3,577.5,1.5,100,91.45
4378,A3,577.75,0.25,127,91.45
4379,F1,578.0,1.0,80,91.45
4380,E2,578.0,0.25,100,91.45
4381,C4,578.0,0.5,127,91.45
4382,A3,578.0,0.5,127,91.45
4383,F3,578.5,0.25,100,91.45
4384,D4,578.75,0.5,127,91.45
4385,B3,578.75,0.5,127,91.45
4386,F1,579.0,1.0,80,91.45
4387,A1,579.0,1.0,100,91.45
4388,E3,579.0,1.0,100,91.45
4389,A2,579.0,1.0,100,91.45
4390,G#2,579.0,0.25,100,91.45
4391,F3,579.0,0.25,100,91.45
4392,E4,580.0,0.5,127,91.45
4393,C2,580.0,1.0,80,91.45
4394,G#2,580.0,0.25,100,91.45
4395,F3,580.0,0.25,100,91.45
4396,G4,580.5,0.5,127,91.45
4397,B-2,580.5,0.25,115,91.45
4398,A4,581.0,0.5,127,91.45
4399,E1,581.0,3.0,80,91.45
4400,G#2,581.0,0.25,82,91.45
4401,B1,581.0,0.25,82,91.45
4402,C5,581.5,0.5,127,91.45
4403,B-2,581.5,0.25,108,91.45
4404,F3,581.5,0.25,108,91.45
4405,E5,582.0,0.5,127,91.45
4406,A1,582.0,3.0,100,91.45
4407,G#2,582.0,0.25,70,91.45
4408,G5,582.5,0.5,127,91.45
4409,F3,582.5,0.25,100,91.45
4410,E4,582.5,0.25,100,91.45
4411,C4,582.5,0.25,100,91.45
4412,E3,582.5,0.25,100,91.45
4413,A3,582.5,0.25,100,91.45
4414,A5,583.0,3.0,127,91.45
4415,G#2,583.0,0.25,70,91.45
4416,F3,583.5,0.25,65,91.45
4417,E4,583.5,1.5,100,91.45
4418,C4,583.5,1.5,100,91.45
4419,E3,583.5,1.5,100,91.45
4420,A3,583.5,1.5,100,91.45
4421,E-2,584.0,1.0,80,91.45
4422,E2,584.0,0.25,100,91.45
4423,G3,584.5,0.25,90,91.45
4424,G3,584.75,0.25,85,91.45
4425,D2,585.0,1.0,80,91.45
4426,F1,585.0,1.0,100,91.45
4427,F2,585.0,3.0,100,91.45
4428,E2,585.0,0.25,100,91.45
4429,G#2,585.0,0.25,100,91.45
4430,F3,585.0,0.25,100,91.45
4431,E2,585.5,0.25,100,91.45
4432,F#4,585.5,0.25,100,91.45
4433,F4,585.75,0.25,100,91.45
4434,B5,586.0,3.0,127,91.45
4435,C2,586.0,1.0,80,91.45
4436,F1,586.0,1.0,100,91.45
4437,F4,586.0,0.25,100,91.45
4438,G#2,586.0,0.25,100,91.45
4439,F3,586.0,0.25,100,91.45
4440,F4,586.5,0.25,100,91.45
4441,A1,587.0,3.0,80,91.45
4442,C2,587.0,1.0,100,91.45
4443,G3,587.0,0.25,100,91.45
4444,B1,587.0,0.25,100,91.45
4445,E3,587.5,0.25,114,91.45
4446,F3,587.5,0.25,114,91.45
4447,E1,588.0,3.0,100,91.45
4448,G#2,588.0,0.25,70,91.45
4449,F3,588.5,0.25,100,91.45
4450,D3,588.5,0.25,100,91.45
4451,D4,588.5,0.25,100,91.45
4452,E2,588.5,0.25,100,91.45
4453,B2,588.5,0.25,100,91.45
4454,G#3,588.5,0.25,100,91.45
4455,C6,589.0,0.5,127,91.45
4456,G#2,589.0,0.25,70,91.45
4457,G#5,589.5,0.5,127,91.45
4458,F3,589.5,0.25,65,91.45
4459,E2,589.5,1.5,100,91.45
4460,D4,589.5,1.5,100,91.45
4461,B2,589.5,1.5,100,91.45
4462,D3,589.5,1.5,100,91.45
4463,G#3,589.5,1.5,100,91.45
4464,B5,590.0,0.5,127,91.45
4465,F1,590.0,3.0,80,91.45
4466,E2,590.0,0.25,100,91.45
4467,G#5,590.5,0.5,127,91.45
4468,F3,590.5,0.25,100,91.45
4469,E5,591.0,0.5,127,91.45
4470,E-2,591.0,1.0,100,91.45
4471,G#2,591.0,0.25,100,91.45
4472,F3,591.0,0.25,100,91.45
4473,C5,591.5,0.5,127,91.45
4474,A3,591.5,0.5,80,91.45
4475,G#4,592.0,0.5,127,91.45
4476,D2,592.0,1.0,100,91.45
4477,G3,592.0,0.5,82,91.45
4478,C4,592.0,0.5,82,91.45
4479,G#2,592.0,0.25,100,91.45
4480,F3,592.0,0.25,100,91.45
4481,E4,592.5,0.5,127,91.45
4482,A3,592.5,0.5,85,91.45
4483,G4,593.0,0.5,127,91.45
4484,E1,593.0,3.0,80,91.45
4485,C2,593.0,1.0,100,91.45
4486,G3,593.0,0.5,87,91.45
4487,D4,593.0,0.5,87,91.45
4488,B1,593.0,0.25,80,91.45
4489,G#2,593.0,0.25,80,91.45
4490,G#4,593.5,0.5,127,91.45
4491,F3,593.5,0.25,100,91.45
4492,E3,593.5,0.5,90,91.45
4493,A3,593.5,0.5,90,91.45
4494,A4,594.0,0.5,127,91.45
4495,A1,594.0,3.0,100,91.45
4496,G#2,594.0,0.25,70,91.45
4497,C5,594.5,0.5,127,91.45
4498,F3,594.5,0.25,100,91.45
4499,E4,594.5,0.25,100,91.45
4500,C4,594.5,0.25,100,91.45
4501,E3,594.5,0.25,100,91.45
4502,A3,594.5,0.25,100,91.45
4503,D5,595.0,0.5,127,91.45
4504,G#2,595.0,0.25,70,91.45
4505,C5,595.5,0.5,127,91.45
4506,F3,595.5,0.25,65,91.45
4507,E4,595.5,1.5,100,91.45
4508,C4,595.5,1.5,100,91.45
4509,E3,595.5,1.5,100,91.45
4510,A3,595.5,1.5,100,91.45
4511,F5,596.0,2.0,127,91.45
4512,A1,596.0,3.0,80,91.45
4513,G#2,596.0,0.25,90,91.45
4514,E2,596.0,0.25,90,91.45
4515,F3,596.5,0.25,60,91.45
4516,F1,597.0,3.0,100,91.45
4517,F2,597.0,3.0,100,91.45
4518,F3,597.0,0.25,70,91.45
4519,G#2,597.0,0.25,70,91.45
4520,F#5,598.0,0.5,127,91.45
4521,F3,598.0,0.25,70,91.45
4522,G#2,598.0,0.25,70,91.45
4523,G5,598.5,0.5,127,91.45
4524,G#5,599.0,0.5,127,91.45
4525,G#2,599.0,0.25,65,91.45
4526,A5,599.5,0.5,127,91.45
4527,G#2,599.5,9/20,100,91.45
4528,E2,599.5,0.25,60,91.45
4529,B5,600.0,0.5,127,91.45
4530,B2,600.0,9/20,100,91.45
4531,E1,600.0,3.0,100,91.45
4532,E2,600.0,0.25,64,91.45
4533,G#2,600.0,0.25,64,91.45
4534,C6,600.5,0.5,127,91.45
4535,E3,600.5,9/20,100,91.45
4536,E2,600.5,0.25,68,91.45
4537,D3,600.5,0.25,100,91.45
4538,D4,600.5,0.25,100,91.45
4539,E2,600.5,0.25,100,91.45
4540,B2,600.5,0.25,100,91.45
4541,G#3,600.5,0.25,100,91.45
4542,C#6,601.0,0.5,127,91.45
4543,C3,601.0,9/20,100,91.45
4544,E2,601.0,0.25,68,91.45
4545,G#2,601.0,0.25,68,91.45
4546,D6,601.5,0.5,127,91.45
4547,E3,601.5,9/20,100,91.45
4548,E2,601.5,0.25,76,91.45
4549,E2,601.5,1.5,100,91.45
4550,D4,601.5,1.5,100,91.45
4551,B2,601.5,1.5,100,91.45
4552,D3,601.5,1.5,100,91.45
4553,G#3,601.5,1.5,100,91.45
4554,C6,602.0,0.5,127,91.45
4555,A3,602.0,9/20,100,91.45
4556,G#2,602.0,0.25,72,91.45
4557,E2,602.0,0.25,72,91.45
4558,E6,602.5,1.25,127,91.45
4559,G#3,602.5,9/20,100,91.45
4560,E2,602.5,0.25,84,91.45
4561,B3,603.0,9/20,100,91.45
4562,A1,603.0,3.0,100,91.45
4563,E4,603.0,3.0,100,91.45
4564,C4,603.0,3.0,100,91.45
4565,A3,603.0,3.0,100,91.45
4566,E3,603.0,3.0,100,91.45
4567,G#2,603.0,0.25,76,91.45
4568,E2,603.0,0.25,76,91.45
4569,D4,603.5,9/20,100,91.45
4570,E2,603.5,0.25,92,91.45
4571,C6,603.767,233/1000,107,91.45
4572,A5,604.0,3.0,127,91.45
4573,B3,604.0,9/20,100,91.45
4574,G#2,604.0,0.25,80,91.45
4575,E2,604.0,0.25,80,91.45
4576,C4,604.5,9/20,100,91.45
4577,E2,604.5,0.25,100,91.45
4578,A3,605.0,9/20,100,91.45
4579,E2,605.0,0.25,80,91.45
4580,G#3,606.0,0.25,100,91.45
4581,A1,606.0,3.0,100,91.45
4582,E2,606.0,0.25,80,91.45
4583,A3,606.25,0.25,100,91.45
4584,E2,606.25,0.25,80,91.45
4585,B3,606.5,0.5,100,91.45
4586,G#1,606.5,9/20,100,91.45
4587,E2,606.5,0.25,80,91.45
4588,F3,607.0,0.5,100,91.45
4589,B1,607.0,9/20,100,91.45
4590,E2,607.0,0.25,80,91.45
4591,G#2,607.5,9/20,100,91.45
4592,E3,607.5,0.5,100,91.45
4593,E2,607.5,9/20,100,91.45
4594,E2,607.5,0.25,80,91.45
4595,B2,608.0,9/20,100,91.45
4596,A3,608.0,0.5,100,91.45
4597,C2,608.0,9/20,100,91.45
4598,E2,608.0,0.25,80,91.45
4599,E3,608.5,9/20,100,91.45
4600,F3,608.5,0.25,100,91.45
4601,E2,608.5,9/20,100,91.45
4602,E2,608.5,0.25,80,91.45
4603,E3,608.75,0.25,100,91.45
4604,E2,608.75,0.25,80,91.45
4605,C3,609.0,9/20,100,91.45
4606,C3,609.0,0.5,100,91.45
4607,A2,609.0,9/20,100,91.45
4608,E2,609.0,0.25,80,91.45
4609,E3,609.5,9/20,100,91.45
4610,F3,609.5,0.5,100,91.45
4611,G#2,609.5,9/20,100,91.45
4612,E2,609.5,0.25,80,91.45
4613,A3,610.0,9/20,100,91.45
4614,E3,610.0,0.5,100,91.45
4615,B2,610.0,9/20,100,91.45
4616,E2,610.0,0.25,80,91.45
4617,G#3,610.5,9/20,100,91.45
4618,C2,610.5,333/1000,100,91.45
4619,D3,610.5,9/20,100,91.45
4620,E2,610.5,26/125,80,91.45
4621,C2,610.833,333/1000,100,91.45
4622,E2,610.833,26/125,80,91.45
4623,B3,611.0,9/20,100,91.45
4624,B2,611.0,9/20,100,91.45
4625,A1,611.167,333/1000,100,91.45
4626,B1,611.167,26/125,80,91.45
4627,D4,611.5,9/20,100,91.45
4628,G1,611.5,333/1000,100,91.45
4629,C3,611.5,9/20,100,91.45
4630,C3,611.5,26/125,80,91.45
4631,C2,611.833,333/1000,100,91.45
4632,C3,611.833,26/125,80,91.45
4633,B3,612.0,9/20,100,91.45
4634,A2,612.0,9/20,100,91.45
4635,E2,612.167,333/1000,100,91.45
4636,B1,612.167,26/125,80,91.45
4637,C4,612.5,9/20,100,91.45
4638,D1,612.5,3.0,80,91.45
4639,B1,612.5,0.25,80,91.45
4640,C#3,612.5,0.25,80,91.45
4641,A3,613.0,9/20,100,91.45
4642,G#2,613.0,0.25,100,91.45
4643,A2,613.25,0.25,100,91.45
4644,B2,613.5,0.5,100,91.45
4645,B-2,613.5,0.25,80,91.45
4646,G#3,614.0,0.25,100,91.45
4647,F2,614.0,0.5,100,91.45
4648,B1,614.0,0.25,80,91.45
4649,A3,614.25,0.25,100,91.45
4650,B3,614.5,0.5,100,91.45
4651,E2,614.5,0.5,100,91.45
4652,B-2,614.5,0.25,80,91.45
4653,F3,615.0,0.5,100,91.45
4654,A2,615.0,0.5,100,91.45
4655,E3,615.5,0.5,100,91.45
4656,C2,615.5,1.0,80,91.45
4657,F2,615.5,0.25,100,91.45
4658,E2,615.5,0.25,80,91.45
4659,B-2,615.5,0.25,80,91.45
4660,E2,615.75,0.25,100,91.45
4661,A3,616.0,0.5,100,91.45
4662,C2,616.0,0.5,100,91.45
4663,F3,616.5,0.25,100,91.45
4664,B1,616.5,1.0,80,91.45
4665,F2,616.5,0.5,100,91.45
4666,B-2,616.5,0.25,80,91.45
4667,E3,616.75,0.25,100,91.45
4668,C3,617.0,0.5,100,91.45
4669,E2,617.0,0.5,100,91.45
4670,B1,617.0,0.25,80,91.45
4671,D5,617.0,9/20,100,91.45
4672,D4,617.0,9/20,100,91.45
4673,F3,617.5,0.5,100,91.45
4674,E2,617.5,1.0,80,91.45
4675,E2,617.5,333/1000,60,91.45
4676,B-2,617.5,0.25,80,91.45
4677,F5,617.5,9/20,100,91.45
4678,F4,617.5,9/20,100,91.45
4679,G2,617.833,333/1000,60,91.45
4680,E3,618.0,0.5,100,91.45
4681,B1,618.0,0.25,80,91.45
4682,G5,618.0,9/20,100,91.45
4683,G4,618.0,9/20,100,91.45
4684,C3,618.167,333/1000,60,91.45
4685,C3,618.5,26/125,110,91.45
4686,A1,618.5,3.0,80,91.45
4687,G2,618.5,333/1000,60,91.45
4688,G#5,618.5,9/20,100,91.45
4689,G#4,618.5,9/20,100,91.45
4690,B1,618.5,0.25,80,91.45
4691,B-2,618.5,0.25,80,91.45
4692,C3,618.833,26/125,110,91.45
4693,C3,618.833,333/1000,60,91.45
4694,A4,619.0,9/20,100,91.45
4695,A5,619.0,9/20,100,91.45
4696,C3,619.167,167/1000,110,91.45
4697,E3,619.167,333/1000,60,91.45
4698,C3,619.5,167/1000,110,91.45
4699,C5,619.5,167/1000,100,91.45
4700,B-2,619.5,0.25,80,91.45
4701,C6,619.667,167/1000,100,91.45
4702,C3,619.833,167/1000,110,91.45
4703,C5,619.833,167/1000,100,91.45
4704,C6,620.0,167/1000,100,91.45
4705,B1,620.0,0.25,80,91.45
4706,A4,620.0,0.25,80,91.45
4707,F4,620.0,0.25,80,91.45
4708,A3,620.0,0.25,80,91.45
4709,D4,620.0,0.25,80,91.45
4710,E3,620.167,167/1000,110,91.45
4711,C5,620.167,167/1000,100,91.45
4712,C6,620.333,167/1000,100,91.45
4713,D3,620.5,3.0,100,91.45
4714,C5,620.5,167/1000,100,91.45
4715,B-2,620.5,0.25,80,91.45
4716,C6,620.667,167/1000,100,91.45
4717,C5,620.833,167/1000,100,91.45
4718,C6,621.0,167/1000,100,91.45
4719,B1,621.0,0.25,80,91.45
4720,A4,621.0,1.5,80,91.45
4721,F4,621.0,1.5,80,91.45
4722,A3,621.0,1.5,80,91.45
4723,D4,621.0,1.5,80,91.45
4724,C5,621.167,167/1000,100,91.45
4725,C6,621.333,167/1000,100,91.45
4726,G#1,621.5,1.0,80,91.45
4727,C5,621.5,167/1000,100,91.45
4728,B-2,621.5,0.25,80,91.45
4729,E2,621.5,0.25,80,91.45
4730,C6,621.667,167/1000,100,91.45
4731,C5,621.833,167/1000,100,91.45
4732,C6,622.0,167/1000,100,91.45
4733,C5,622.167,167/1000,100,91.45
4734,C6,622.333,167/1000,100,91.45
4735,G1,622.5,1.0,80,91.45
4736,B-2,622.5,0.25,80,91.45
4737,A4,622.5,1.5,80,91.45
4738,F4,622.5,1.5,80,91.45
4739,A3,622.5,1.5,80,91.45
4740,D4,622.5,1.5,80,91.45
4741,C6,623.0,0.25,100,91.45
4742,B1,623.0,0.25,80,91.45
4743,B5,623.25,0.25,100,91.45
4744,F1,623.5,1.0,80,91.45
4745,B-5,623.5,0.25,100,91.45
4746,B-2,623.5,0.25,80,91.45
4747,A5,623.75,0.25,100,91.45
4748,G5,624.0,0.25,100,91.45
4749,B1,624.0,0.25,80,91.45
4750,A5,624.25,0.25,100,91.45
4751,D1,624.5,1.5,80,91.45
4752,F5,624.5,0.25,100,91.45
4753,B1,624.5,0.25,75,91.45
4754,C#3,624.5,0.25,75,91.45
4755,A5,624.75,0.25,100,91.45
4756,G#5,625.0,0.25,100,91.45
4757,G5,625.25,0.25,100,91.45
4758,F5,625.5,0.25,100,91.45
4759,B-2,625.5,0.25,80,91.45
4760,D5,625.75,0.25,100,91.45
4761,D1,626.0,0.5,80,91.45
4762,G5,626.0,0.25,100,91.45
4763,B1,626.0,0.25,80,91.45
4764,G3,626.0,0.25,80,91.45
4765,G4,626.0,0.25,80,91.45
4766,A2,626.0,0.25,80,91.45
4767,E3,626.0,0.25,80,91.45
4768,C#4,626.0,0.25,80,91.45
4769,F5,626.25,0.25,100,91.45
4770,D5,626.5,0.25,100,91.45
4771,B-2,626.5,0.25,80,91.45
4772,C5,626.75,0.25,100,91.45
4773,D1,627.0,0.5,80,91.45
4774,F5,627.0,0.25,100,91.45
4775,B1,627.0,0.25,80,91.45
4776,A2,627.0,1.5,80,91.45
4777,G4,627.0,1.5,80,91.45
4778,E3,627.0,1.5,80,91.45
4779,G3,627.0,1.5,80,91.45
4780,C#4,627.0,1.5,80,91.45
4781,D5,627.25,0.25,100,91.45
4782,E1,627.5,1.5,80,91.45
4783,C5,627.5,0.25,100,91.45
4784,B-2,627.5,0.25,80,91.45
4785,E2,627.5,0.25,80,91.45
4786,A4,627.75,0.25,100,91.45
4787,G4,628.0,0.25,100,91.45
4788,F4,628.25,0.25,100,91.45
4789,D4,628.5,1.0,100,91.45
4790,B-2,628.5,0.25,80,91.45
4791,A2,628.5,1.5,80,91.45
4792,G4,628.5,1.5,80,91.45
4793,E3,628.5,1.5,80,91.45
4794,G3,628.5,1.5,80,91.45
4795,C#4,628.5,1.5,80,91.45
4796,E1,629.0,0.5,80,91.45
4797,B1,629.0,0.25,80,91.45
4798,F4,629.5,0.5,100,91.45
4799,B-2,629.5,0.25,80,91.45
4800,E1,630.0,0.5,80,91.45
4801,B1,630.0,0.25,80,91.45
4802,A3,630.0,0.5,100,91.45
4803,F4,630.0,0.5,100,91.45
4804,C#2,630.5,1.5,80,91.45
4805,B-2,630.5,0.25,80,91.45
4806,B1,630.5,0.25,80,91.45
4807,D4,631.0,0.5,100,91.45
4808,G4,631.5,167/1000,100,91.45
4809,B-2,631.5,0.25,80,91.45
4810,G#4,631.667,167/1000,100,91.45
4811,A4,631.833,167/1000,100,91.45
4812,A1,632.0,1.5,80,91.45
4813,C5,632.0,0.5,100,91.45
4814,B1,632.0,0.25,80,91.45
4815,A4,632.0,0.25,80,91.45
4816,F4,632.0,0.25,80,91.45
4817,A3,632.0,0.25,80,91.45
4818,D4,632.0,0.25,80,91.45
4819,G4,632.5,0.25,100,91.45
4820,B-2,632.5,0.25,80,91.45
4821,G#4,632.75,0.25,100,91.45
4822,G4,633.0,0.25,100,91.45
4823,B1,633.0,0.25,80,91.45
4824,A4,633.0,1.5,80,91.45
4825,F4,633.0,1.5,80,91.45
4826,A3,633.0,1.5,80,91.45
4827,D4,633.0,1.5,80,91.45
4828,F4,633.25,0.25,100,91.45
4829,E2,633.417,83/1000,60,91.45
4830,D2,633.5,1.0,80,91.45
4831,G4,633.5,0.5,100,91.45
4832,E2,633.5,167/1000,100,91.45
4833,E2,633.5,0.125,60,91.45
4834,F4,634.0,0.5,100,91.45
4835,F3,634.5,0.25,60,91.45
4836,A4,634.5,1.5,80,91.45
4837,F4,634.5,1.5,80,91.45
4838,A3,634.5,1.5,80,91.45
4839,D4,634.5,1.5,80,91.45
4840,A4,635.0,0.25,100,91.45
4841,C5,635.25,0.25,100,91.45
4842,D5,635.5,0.25,100,91.45
4843,F3,635.5,0.25,60,91.45
4844,G5,635.75,0.25,100,91.45
4845,A5,636.0,0.25,100,91.45
4846,C6,636.25,0.25,100,91.45
4847,D1,636.5,3.0,80,91.45
4848,D6,636.5,0.25,100,91.45
4849,B1,636.5,0.25,80,91.45
4850,C#3,636.5,0.25,80,91.45
4851,C6,636.75,0.25,100,91.45
4852,G5,637.0,0.25,100,91.45
4853,D5,637.25,0.25,100,91.45
4854,G4,637.5,0.25,100,91.45
4855,B-2,637.5,0.25,80,91.45
4856,A4,637.75,0.25,100,91.45
4857,D5,638.0,0.25,100,91.45
4858,B1,638.0,0.25,80,91.45
4859,G3,638.0,0.25,80,91.45
4860,G4,638.0,0.25,80,91.45
4861,A2,638.0,0.25,80,91.45
4862,E3,638.0,0.25,80,91.45
4863,C#4,638.0,0.25,80,91.45
4864,G5,638.25,0.25,100,91.45
4865,A5,638.5,0.25,100,91.45
4866,B-2,638.5,0.25,80,91.45
4867,D6,638.75,0.25,100,91.45
4868,G6,639.0,0.25,100,91.45
4869,A2,639.0,1.5,80,91.45
4870,G4,639.0,1.5,80,91.45
4871,E3,639.0,1.5,80,91.45
4872,G3,639.0,1.5,80,91.45
4873,C#4,639.0,1.5,80,91.45
4874,A6,639.25,0.25,100,91.45
4875,C2,639.5,1.0,80,91.45
4876,G6,639.5,1.0,100,91.45
4877,E2,639.5,0.25,80,91.45
4878,B-2,639.5,0.25,80,91.45
4879,B1,640.5,1.0,80,91.45
4880,B-2,640.5,0.25,80,91.45
4881,D2,640.5,1.0,87,91.45
4882,A3,640.5,1.0,87,91.45
4883,D3,640.5,1.0,87,91.45
4884,G6,641.0,0.5,100,91.45
4885,B1,641.0,0.25,80,91.45
4886,E2,641.5,1.0,80,91.45
4887,E6,641.5,0.5,100,91.45
4888,B-2,641.5,0.25,80,91.45
4889,F#6,642.0,0.5,100,91.45
4890,E2,642.0,0.25,80,91.45
4891,A1,642.5,3.0,80,91.45
4892,F6,642.5,0.5,100,91.45
4893,B1,642.5,0.25,80,91.45
4894,B-2,642.5,0.25,80,91.45
4895,D6,643.0,0.5,100,91.45
4896,E6,643.5,0.5,100,91.45
4897,B-2,643.5,0.25,80,91.45
4898,E-6,644.0,0.25,100,91.45
4899,E2,644.0,0.25,80,91.45
4900,A4,644.0,0.25,80,91.45
4901,F4,644.0,0.25,80,91.45
4902,A3,644.0,0.25,80,91.45
4903,D4,644.0,0.25,80,91.45
4904,D6,644.25,0.25,100,91.45
4905,C6,644.5,0.25,100,91.45
4906,B-2,644.5,0.25,80,91.45
4907,A5,644.75,0.25,100,91.45
4908,D6,645.0,0.25,100,91.45
4909,B1,645.0,0.25,80,91.45
4910,A4,645.0,1.5,80,91.45
4911,F4,645.0,1.5,80,91.45
4912,A3,645.0,1.5,80,91.45
4913,D4,645.0,1.5,80,91.45
4914,C6,645.25,0.25,100,91.45
4915,G#1,645.5,1.0,80,91.45
4916,A5,645.5,0.25,100,91.45
4917,B-2,645.5,0.25,80,91.45
4918,B1,645.5,0.25,80,91.45
4919,G#5,645.75,0.25,100,91.45
4920,G5,646.0,0.25,100,91.45
4921,F#4,646.0,0.25,100,91.45
4922,F5,646.25,0.25,100,91.45
4923,F#4,646.25,0.25,100,91.45
4924,G1,646.5,1.0,80,91.45
4925,G5,646.5,1.0,100,91.45
4926,B-2,646.5,0.25,80,91.45
4927,F4,646.5,0.25,100,91.45
4928,E2,647.0,0.25,80,91.45
4929,F4,647.0,0.25,100,91.45
4930,F1,647.5,1.0,80,91.45
4931,C6,647.5,1.0,100,91.45
4932,B-2,647.5,0.25,80,91.45
4933,F4,647.5,0.25,100,91.45
4934,B1,648.0,0.25,80,91.45
4935,F#4,648.0,0.25,100,91.45
4936,D1,648.5,1.5,80,91.45
4937,F5,648.5,0.5,100,91.45
4938,B1,648.5,0.25,75,91.45
4939,C#3,648.5,0.25,75,91.45
4940,G5,649.0,0.5,100,91.45
4941,D5,649.5,0.5,100,91.45
4942,B-2,649.5,0.25,80,91.45
4943,D1,650.0,0.5,80,91.45
4944,F5,650.0,0.5,100,91.45
4945,B1,650.0,0.25,80,91.45
4946,G3,650.0,0.25,80,91.45
4947,G4,650.0,0.25,80,91.45
4948,A2,650.0,0.25,80,91.45
4949,E3,650.0,0.25,80,91.45
4950,C#4,650.0,0.25,80,91.45
4951,D5,650.5,1.0,100,91.45
4952,B-2,650.5,0.25,80,91.45
4953,D1,651.0,0.5,80,91.45
4954,B1,651.0,0.25,80,91.45
4955,A2,651.0,1.5,80,91.45
4956,G4,651.0,1.5,80,91.45
4957,E3,651.0,1.5,80,91.45
4958,G3,651.0,1.5,80,91.45
4959,C#4,651.0,1.5,80,91.45
4960,E1,651.5,1.5,80,91.45
4961,C5,651.5,0.5,100,91.45
4962,A3,651.5,0.25,80,91.45
4963,E2,651.5,0.25,80,91.45
4964,D5,652.0,0.5,100,91.45
4965,B-2,652.5,0.25,80,91.45
4966,E1,653.0,0.5,80,91.45
4967,D4,653.0,0.5,80,91.45
4968,B1,653.0,0.25,80,91.45
4969,D5,653.0,0.5,100,91.45
4970,D4,653.0,0.5,100,91.45
4971,B-2,653.5,0.25,80,91.45
4972,C4,653.5,0.5,82,91.45
4973,F4,653.5,0.5,82,91.45
4974,F5,653.5,0.5,100,91.45
4975,F4,653.5,0.5,100,91.45
4976,E1,654.0,0.5,80,91.45
4977,D4,654.0,0.5,85,91.45
4978,B1,654.0,0.25,80,91.45
4979,G5,654.0,0.5,100,91.45
4980,G4,654.0,0.5,100,91.45
4981,A1,654.5,1.5,80,91.45
4982,C4,654.5,0.5,87,91.45
4983,G4,654.5,0.5,87,91.45
4984,G#5,654.5,0.5,100,91.45
4985,G#4,654.5,0.5,100,91.45
4986,B1,654.5,0.25,100,91.45
4987,B-2,654.5,0.25,100,91.45
4988,A3,655.0,0.5,90,91.45
4989,D4,655.0,0.5,90,91.45
4990,A5,655.0,0.5,100,91.45
4991,A4,655.0,0.5,100,91.45
4992,B-2,655.5,0.25,100,91.45
4993,C6,655.5,0.5,100,91.45
4994,C5,655.5,0.5,100,91.45
4995,C#2,656.0,1.5,80,91.45
4996,B1,656.0,0.25,100,91.45
4997,A4,656.0,0.25,80,91.45
4998,F4,656.0,0.25,80,91.45
4999,A3,656.0,0.25,80,91.45
5000,D4,656.0,0.25,80,91.45
5001,E6,656.0,0.5,100,91.45
5002,E5,656.0,0.5,100,91.45
5003,B-2,656.5,0.25,100,91.45
5004,G6,656.5,0.5,100,91.45
5005,G5,656.5,0.5,100,91.45
5006,A4,657.0,1.5,80,91.45
5007,F4,657.0,1.5,80,91.45
5008,A3,657.0,1.5,80,91.45
5009,D4,657.0,1.5,80,91.45
5010,F6,657.0,0.5,100,91.45
5011,F5,657.0,0.5,100,91.45
5012,B-2,657.5,0.25,100,91.45
5013,D2,658.0,0.5,100,91.45
5014,D5,658.0,0.5,100,91.45
5015,D6,658.0,0.5,100,91.45
5016,E2,658.0,0.25,100,91.45
5017,G2,658.0,0.25,100,91.45
5018,G#2,658.5,0.25,100,91.45
5019,F2,659.0,0.5,100,91.45
5020,D5,659.0,0.25,110,91.45
5021,E2,659.0,0.25,100,91.45
5022,G2,659.0,0.25,100,91.45
5023,D5,659.25,0.25,110,91.45
5024,D5,659.5,0.25,110,91.45
5025,G#2,659.5,0.25,100,91.45
5026,F5,659.75,0.25,110,91.45
5027,A2,660.0,0.5,100,91.45
5028,F5,660.0,0.25,110,91.45
5029,E2,660.0,0.25,100,91.45
5030,G2,660.0,0.25,100,91.45
5031,F5,660.25,0.25,110,91.45
5032,A5,660.5,0.25,110,91.45
5033,G#2,660.5,0.25,100,91.45
5034,A5,660.75,0.25,110,91.45
5035,G#3,661.0,167/1000,83,91.45
5036,G#2,661.0,1.0,100,91.45
5037,A5,661.0,0.25,110,91.45
5038,E2,661.0,0.25,100,91.45
5039,G2,661.0,0.25,100,91.45
5040,A3,661.167,167/1000,83,91.45
5041,C6,661.25,0.25,110,91.45
5042,G#3,661.333,167/1000,83,91.45
5043,A3,661.5,167/1000,83,91.45
5044,D6,661.5,1.0,110,91.45
5045,G#2,661.5,0.25,100,91.45
5046,G#3,661.667,167/1000,83,91.45
5047,A3,661.833,167/1000,83,91.45
5048,F3,662.0,0.5,83,91.45
5049,F2,662.0,0.5,100,91.45
5050,G3,662.0,0.25,80,91.45
5051,G4,662.0,0.25,80,91.45
5052,A2,662.0,0.25,80,91.45
5053,E3,662.0,0.25,80,91.45
5054,C#4,662.0,0.25,80,91.45
5055,A2,662.0,0.25,100,91.45
5056,G2,662.0,0.25,100,91.45
5057,E3,662.5,0.5,83,91.45
5058,E2,662.5,0.5,100,91.45
5059,E2,662.5,0.25,100,91.45
5060,G2,662.5,0.25,100,91.45
5061,G#2,662.5,0.25,100,91.45
5062,A2,663.0,1.5,80,91.45
5063,G4,663.0,1.5,80,91.45
5064,E3,663.0,1.5,80,91.45
5065,G3,663.0,1.5,80,91.45
5066,C#4,663.0,1.5,80,91.45
5067,G#2,663.5,0.25,100,91.45
5068,D2,664.0,0.5,100,91.45
5069,E2,664.0,0.25,100,91.45
5070,G2,664.0,0.25,100,91.45
5071,G#2,664.5,0.25,100,91.45
5072,A4,664.5,3.0,100,91.45
5073,F4,664.5,3.0,100,91.45
5074,D4,664.5,3.0,100,91.45
5075,A3,664.5,3.0,100,91.45
5076,F2,665.0,0.5,100,91.45
5077,D3,665.0,0.5,100,91.45
5078,A2,665.0,0.25,100,91.45
5079,G2,665.0,0.25,100,91.45
5080,G#2,665.5,0.25,100,91.45
5081,D3,666.0,0.5,100,91.45
5082,A2,666.0,0.5,100,91.45
5083,F3,666.0,0.5,100,91.45
5084,E2,666.0,0.25,100,91.45
5085,G2,666.0,0.25,100,91.45
5086,G#2,666.5,0.25,100,91.45
5087,F3,667.0,0.5,100,91.45
5088,G#2,667.0,0.5,100,91.45
5089,A3,667.0,0.5,100,91.45
5090,E2,667.0,0.25,100,91.45
5091,G2,667.0,0.25,100,91.45
5092,G#2,667.5,0.25,100,91.45
5093,A3,668.0,0.5,100,91.45
5094,B2,668.0,0.5,100,91.45
5095,A2,668.0,0.25,100,91.45
5096,G2,668.0,0.25,100,91.45
5097,G#2,668.5,0.25,100,91.45
5098,D3,669.0,0.5,100,91.45
5099,E2,669.0,0.25,100,91.45
5100,G2,669.0,0.25,100,91.45
5101,G#2,669.5,0.25,100,91.45
5102,F3,670.0,0.5,100,91.45
5103,B2,670.0,0.5,100,91.45
5104,E2,670.0,0.25,100,91.45
5105,G2,670.0,0.25,100,91.45
5106,E3,670.5,0.5,100,91.45
5107,C4,670.5,167/1000,83,91.45
5108,C3,670.5,1.0,100,91.45
5109,E2,670.5,0.25,100,91.45
5110,G2,670.5,0.25,100,91.45
5111,G#2,670.5,0.25,100,91.45
5112,D4,670.667,167/1000,83,91.45
5113,C4,670.833,167/1000,83,91.45
5114,D4,671.0,167/1000,83,91.45
5115,D3,671.0,0.5,100,91.45
5116,C4,671.167,167/1000,83,91.45
5117,D4,671.333,167/1000,83,91.45
5118,B2,671.5,0.5,100,91.45
5119,A2,671.5,0.25,100,91.45
5120,G2,671.5,0.25,100,91.45
5121,G#2,671.5,0.25,100,91.45
5122,D3,672.0,0.5,100,91.45
5123,A2,672.0,0.5,100,91.45
5124,F3,672.0,0.5,100,91.45
5125,E2,672.0,0.25,100,91.45
5126,G2,672.0,0.25,100,91.45
5127,G#2,672.5,0.25,100,91.45
5128,F3,673.0,0.5,100,91.45
5129,A3,673.0,0.5,100,91.45
5130,D1,673.5,3.0,80,91.45
5131,B1,673.5,0.25,80,91.45
5132,C#3,673.5,0.25,80,91.45
5133,A3,674.0,0.5,100,91.45
5134,G#3,674.0,0.5,100,91.45
5135,B-2,674.5,0.25,80,91.45
5136,G#3,675.0,0.5,100,91.45
5137,B3,675.0,0.5,100,91.45
5138,B1,675.0,0.25,80,91.45
5139,B-2,675.5,0.25,80,91.45
5140,B3,676.0,0.5,100,91.45
5141,D4,676.0,0.5,100,91.45
5142,B1,676.0,0.25,80,91.45
5143,C2,676.5,1.0,80,91.45
5144,A3,676.5,0.25,80,91.45
5145,E2,676.5,0.25,80,91.45
5146,D4,677.0,0.5,100,91.45
5147,B3,677.0,0.5,100,91.45
5148,B1,677.5,1.0,80,91.45
5149,B-2,677.5,0.25,80,91.45
5150,B3,678.0,0.5,100,91.45
5151,B1,678.0,0.25,80,91.45
5152,E2,678.5,1.0,80,91.45
5153,B3,678.5,0.5,100,91.45
5154,B-2,678.5,0.25,80,91.45
5155,A3,679.0,0.5,100,91.45
5156,B1,679.0,0.25,80,91.45
5157,B3,679.5,0.5,100,91.45
5158,A1,679.5,3.0,80,91.45
5159,B1,679.5,0.25,80,91.45
5160,C#3,679.5,0.25,80,91.45
5161,A3,680.0,0.5,100,91.45
5162,A4,680.0,0.5,100,91.45
5163,D5,680.5,0.5,100,91.45
5164,G3,680.5,0.25,80,91.45
5165,F5,681.0,0.5,100,91.45
5166,B1,681.0,0.25,80,91.45
5167,A4,681.0,0.25,80,91.45
5168,F4,681.0,0.25,80,91.45
5169,A3,681.0,0.25,80,91.45
5170,D4,681.0,0.25,80,91.45
5171,A5,681.5,0.5,100,91.45
5172,B-2,681.5,0.25,80,91.45
5173,F5,682.0,0.5,100,91.45
5174,B1,682.0,0.25,80,91.45
5175,A4,682.0,1.5,80,91.45
5176,F4,682.0,1.5,80,91.45
5177,A3,682.0,1.5,80,91.45
5178,D4,682.0,1.5,80,91.45
5179,G#1,682.5,1.0,80,91.45
5180,G#5,682.5,0.5,100,91.45
5181,G3,682.5,0.25,80,91.45
5182,E2,682.5,0.25,80,91.45
5183,E5,683.0,0.5,100,91.45
5184,G1,683.5,1.0,80,91.45
5185,G5,683.5,1.0,100,91.45
5186,B-2,683.5,0.25,80,91.45
5187,A4,683.5,1.5,80,91.45
5188,F4,683.5,1.5,80,91.45
5189,A3,683.5,1.5,80,91.45
5190,D4,683.5,1.5,80,91.45
5191,B1,684.0,0.25,80,91.45
5192,F1,684.5,1.0,80,91.45
5193,F5,684.5,0.5,100,91.45
5194,G3,684.5,0.25,80,91.45
5195,B1,685.0,0.25,80,91.45
5196,D6,685.0,0.5,100,91.45
5197,D5,685.0,0.5,100,91.45
5198,D1,685.5,1.5,80,91.45
5199,E6,685.5,0.5,100,91.45
5200,E5,685.5,0.5,100,91.45
5201,B1,685.5,0.25,80,91.45
5202,B-2,685.5,0.25,80,91.45
5203,F6,686.0,0.5,100,91.45
5204,F5,686.0,0.5,100,91.45
5205,G3,686.5,0.25,80,91.45
5206,G5,686.5,0.5,100,91.45
5207,G6,686.5,0.5,100,91.45
5208,D1,687.0,0.5,80,91.45
5209,G#6,687.0,0.25,100,91.45
5210,B1,687.0,0.25,80,91.45
5211,G3,687.0,0.25,80,91.45
5212,G4,687.0,0.25,80,91.45
5213,A2,687.0,0.25,80,91.45
5214,E3,687.0,0.25,80,91.45
5215,C#4,687.0,0.25,80,91.45
5216,G#5,687.25,0.25,100,91.45
5217,G#6,687.5,167/1000,100,91.45
5218,B-2,687.5,0.25,80,91.45
5219,G#5,687.667,167/1000,100,91.45
5220,G#6,687.833,167/1000,100,91.45
5221,D1,688.0,0.5,80,91.45
5222,G#5,688.0,167/1000,100,91.45
5223,B1,688.0,0.25,80,91.45
5224,A2,688.0,1.5,80,91.45
5225,G4,688.0,1.5,80,91.45
5226,E3,688.0,1.5,80,91.45
5227,G3,688.0,1.5,80,91.45
5228,C#4,688.0,1.5,80,91.45
5229,G#6,688.167,167/1000,100,91.45
5230,G#5,688.333,167/1000,100,91.45
5231,E1,688.5,1.5,80,91.45
5232,G#6,688.5,167/1000,100,91.45
5233,E2,688.5,0.25,80,91.45
5234,G3,688.5,0.25,80,91.45
5235,G#5,688.667,167/1000,100,91.45
5236,G#6,688.833,167/1000,100,91.45
5237,E6,689.0,0.5,100,91.45
5238,G#5,689.0,167/1000,100,91.45
5239,G#6,689.167,167/1000,100,91.45
5240,B-2,689.5,0.25,80,91.45
5241,A2,689.5,1.5,80,91.45
5242,G4,689.5,1.5,80,91.45
5243,E3,689.5,1.5,80,91.45
5244,G3,689.5,1.5,80,91.45
5245,C#4,689.5,1.5,80,91.45
5246,A5,689.5,1.0,100,91.45
5247,A6,689.5,1.0,100,91.45
5248,E1,690.0,0.5,80,91.45
5249,B1,690.0,0.25,80,91.45
5250,G3,690.5,0.25,80,91.45
5251,A6,690.5,0.5,100,91.45
5252,D6,690.5,0.5,100,91.45
5253,E1,691.0,0.5,80,91.45
5254,B1,691.0,0.25,80,91.45
5255,A6,691.0,1.0,100,91.45
5256,F6,691.0,1.0,100,91.45
5257,C#2,691.5,1.5,80,91.45
5258,B1,691.5,0.25,80,91.45
5259,B-2,691.5,0.25,80,91.45
5260,A6,692.0,0.5,100,91.45
5261,D6,692.0,0.5,100,91.45
5262,G3,692.5,0.25,80,91.45
5263,A1,693.0,1.5,80,91.45
5264,D6,693.0,0.5,100,91.45
5265,G6,693.0,0.25,100,91.45
5266,B1,693.0,0.25,80,91.45
5267,A4,693.0,0.25,80,91.45
5268,F4,693.0,0.25,80,91.45
5269,A3,693.0,0.25,80,91.45
5270,D4,693.0,0.25,80,91.45
5271,F6,693.25,0.25,100,91.45
5272,A5,693.5,0.25,100,91.45
5273,B-2,693.5,0.25,80,91.45
5274,D6,693.75,0.25,100,91.45
5275,G6,693.75,0.25,100,91.45
5276,B1,694.0,0.25,80,91.45
5277,A4,694.0,1.5,80,91.45
5278,F4,694.0,1.5,80,91.45
5279,A3,694.0,1.5,80,91.45
5280,D4,694.0,1.5,80,91.45
5281,C6,694.0,0.25,100,91.45
5282,F6,694.0,0.25,100,91.45
5283,A5,694.25,0.25,100,91.45
5284,D2,694.5,1.0,80,91.45
5285,C6,694.5,0.25,100,91.45
5286,G#5,694.5,0.25,100,91.45
5287,G3,694.5,0.25,80,91.45
5288,E2,694.5,0.25,80,91.45
5289,C6,694.75,0.25,100,91.45
5290,G5,694.75,0.25,100,91.45
5291,F5,695.0,0.25,100,91.45
5292,C6,695.25,0.25,100,91.45
5293,G#5,695.25,0.25,100,91.45
5294,C6,695.5,0.5,100,91.45
5295,G5,695.5,0.25,100,91.45
5296,G#2,695.5,0.25,80,91.45
5297,A4,695.5,1.5,80,91.45
5298,F4,695.5,1.5,80,91.45
5299,A3,695.5,1.5,80,91.45
5300,D4,695.5,1.5,80,91.45
5301,F5,695.75,0.25,100,91.45
5302,C6,696.0,0.5,100,91.45
5303,G5,696.0,0.25,100,91.45
5304,F5,696.25,0.25,100,91.45
5305,D5,696.5,0.25,100,91.45
5306,G#2,696.5,0.25,80,91.45
5307,C6,696.75,0.5,100,91.45
5308,G5,696.75,0.25,100,91.45
5309,F5,697.0,0.25,100,91.45
5310,D5,697.25,0.25,100,91.45
5311,D1,697.5,3.0,80,91.45
5312,C5,697.5,0.25,100,91.45
5313,B1,697.5,0.25,80,91.45
5314,C#3,697.5,0.25,80,91.45
5315,A4,697.75,0.25,100,91.45
5316,D5,698.0,0.25,100,91.45
5317,C5,698.25,0.25,100,91.45
5318,D5,698.5,0.25,100,91.45
5319,B-2,698.5,0.25,80,91.45
5320,C5,698.75,0.25,100,91.45
5321,A4,699.0,0.25,100,91.45
5322,B1,699.0,0.25,80,91.45
5323,G3,699.0,0.25,80,91.45
5324,G4,699.0,0.25,80,91.45
5325,A2,699.0,0.25,80,91.45
5326,E3,699.0,0.25,80,91.45
5327,C#4,699.0,0.25,80,91.45
5328,G#4,699.25,0.25,100,91.45
5329,G4,699.5,0.25,100,91.45
5330,B-2,699.5,0.25,80,91.45
5331,F4,699.75,0.25,100,91.45
5332,G4,700.0,0.25,100,91.45
5333,C5,700.0,0.5,100,91.45
5334,B1,700.0,0.25,80,91.45
5335,A2,700.0,1.5,80,91.45
5336,G4,700.0,1.5,80,91.45
5337,E3,700.0,1.5,80,91.45
5338,G3,700.0,1.5,80,91.45
5339,C#4,700.0,1.5,80,91.45
5340,F4,700.25,0.25,100,91.45
5341,C2,700.5,1.0,80,91.45
5342,D4,700.5,0.25,100,91.45
5343,B-2,700.5,0.25,80,91.45
5344,E2,700.5,0.25,80,91.45
5345,C5,700.75,0.25,83,91.45
5346,G4,700.75,0.25,83,91.45
5347,C5,701.0,0.5,83,91.45
5348,F4,701.0,0.5,83,91.45
5349,D4,701.25,0.25,83,91.45
5350,B1,701.5,1.0,80,91.45
5351,B-2,701.5,0.25,80,91.45
5352,D2,701.5,1.0,87,91.45
5353,A3,701.5,1.0,87,91.45
5354,D3,701.5,1.0,87,91.45
5355,C5,701.5,1.0,100,91.45
5356,F4,701.5,1.0,100,91.45
5357,B1,702.0,0.25,80,91.45
5358,E2,702.5,1.0,80,91.45
5359,C5,702.5,1.0,100,91.45
5360,G4,702.5,0.5,100,91.45
5361,B-2,702.5,0.25,80,91.45
5362,D4,703.0,0.5,100,91.45
5363,B1,703.0,0.25,80,91.45
5364,A1,703.5,3.0,80,91.45
5365,C5,703.5,0.5,100,91.45
5366,G4,703.5,0.5,100,91.45
5367,B1,703.5,0.25,80,91.45
5368,B-2,703.5,0.25,80,91.45
5369,B-2,704.5,0.25,80,91.45
5370,G4,704.5,1.0,100,91.45
5371,C5,704.5,1.0,100,91.45
5372,E2,705.0,0.25,80,91.45
5373,A4,705.0,0.25,80,91.45
5374,F4,705.0,0.25,80,91.45
5375,A3,705.0,0.25,80,91.45
5376,D4,705.0,0.25,80,91.45
5377,B-2,705.5,0.25,80,91.45
5378,F4,705.5,0.5,100,91.45
5379,C5,705.5,0.5,100,91.45
5380,B1,706.0,0.25,80,91.45
5381,A4,706.0,1.5,80,91.45
5382,F4,706.0,1.5,80,91.45
5383,A3,706.0,1.5,80,91.45
5384,D4,706.0,1.5,80,91.45
5385,G4,706.0,0.5,100,91.45
5386,C5,706.0,0.5,100,91.45
5387,G#1,706.5,1.0,80,91.45
5388,B-2,706.5,0.25,80,91.45
5389,B1,706.5,0.25,80,91.45
5390,D4,707.0,0.25,100,91.45
5391,G4,707.25,0.25,100,91.45
5392,G1,707.5,1.0,80,91.45
5393,C5,707.5,0.25,100,91.45
5394,B-2,707.5,0.25,80,91.45
5395,D5,707.75,0.25,100,91.45
5396,A5,708.0,0.25,100,91.45
5397,E2,708.0,0.25,80,91.45
5398,C6,708.25,0.25,100,91.45
5399,F1,708.5,1.0,80,91.45
5400,D6,708.5,0.25,100,91.45
5401,B-2,708.5,0.25,80,91.45
5402,C6,708.75,0.25,100,91.45
5403,A5,709.0,0.25,100,91.45
5404,B1,709.0,0.25,80,91.45
5405,D5,709.25,0.25,100,91.45
5406,D1,709.5,1.5,80,91.45
5407,D6,709.5,0.25,100,91.45
5408,B1,709.5,0.25,80,91.45
5409,B-2,709.5,0.25,80,91.45
5410,C6,709.75,0.25,100,91.45
5411,A5,710.0,0.25,100,91.45
5412,D5,710.25,0.25,100,91.45
5413,D6,710.5,0.25,100,91.45
5414,B-2,710.5,0.25,80,91.45
5415,C6,710.75,0.25,100,91.45
5416,D1,711.0,0.5,80,91.45
5417,A5,711.0,0.25,100,91.45
5418,E2,711.0,0.25,80,91.45
5419,G3,711.0,0.25,80,91.45
5420,G4,711.0,0.25,80,91.45
5421,A2,711.0,0.25,80,91.45
5422,E3,711.0,0.25,80,91.45
5423,C#4,711.0,0.25,80,91.45
5424,D5,711.25,0.25,100,91.45
5425,D6,711.5,167/1000,100,91.45
5426,B-2,711.5,0.25,80,91.45
5427,C6,711.667,167/1000,100,91.45
5428,A5,711.833,167/1000,100,91.45
5429,D1,712.0,0.5,80,91.45
5430,D5,712.0,167/1000,100,91.45
5431,A2,712.0,1.5,80,91.45
5432,G4,712.0,1.5,80,91.45
5433,E3,712.0,1.5,80,91.45
5434,G3,712.0,1.5,80,91.45
5435,C#4,712.0,1.5,80,91.45
5436,D6,712.167,167/1000,100,91.45
5437,C6,712.333,167/1000,100,91.45
5438,E1,712.5,1.5,80,91.45
5439,A5,712.5,167/1000,100,91.45
5440,B-2,712.5,0.25,80,91.45
5441,B1,712.5,0.25,80,91.45
5442,D5,712.667,167/1000,100,91.45
5443,D6,712.833,167/1000,100,91.45
5444,C6,713.0,167/1000,100,91.45
5445,A5,713.167,167/1000,100,91.45
5446,D5,713.333,167/1000,100,91.45
5447,D6,713.5,167/1000,100,91.45
5448,B-2,713.5,0.25,80,91.45
5449,C6,713.667,167/1000,100,91.45
5450,A5,713.833,167/1000,100,91.45
5451,E1,714.0,0.5,80,91.45
5452,D4,714.0,0.5,80,91.45
5453,D5,714.0,0.125,100,91.45
5454,E2,714.0,0.25,80,91.45
5455,D6,714.125,0.125,100,91.45
5456,C6,714.25,0.125,100,91.45
5457,F5,714.375,0.125,100,91.45
5458,D6,714.5,1.0,100,91.45
5459,B-2,714.5,0.25,80,91.45
5460,C4,714.5,0.5,82,91.45
5461,F4,714.5,0.5,82,91.45
5462,E1,715.0,0.5,80,91.45
5463,D4,715.0,0.5,85,91.45
5464,A1,715.5,1.5,80,91.45
5465,C4,715.5,0.5,87,91.45
5466,G4,715.5,0.5,87,91.45
5467,B1,715.5,0.25,80,91.45
5468,B-2,715.5,0.25,80,91.45
5469,D6,716.0,0.25,100,91.45
5470,A3,716.0,0.5,90,91.45
5471,D4,716.0,0.5,90,91.45
5472,A5,716.25,0.25,100,91.45
5473,F5,716.5,0.25,100,91.45
5474,B-2,716.5,0.25,80,91.45
5475,E5,716.75,0.25,100,91.45
5476,C#2,717.0,1.5,80,91.45
5477,D5,717.0,0.25,100,91.45
5478,E2,717.0,0.25,80,91.45
5479,A4,717.0,0.25,80,91.45
5480,F4,717.0,0.25,80,91.45
5481,A3,717.0,0.25,80,91.45
5482,D4,717.0,0.25,80,91.45
5483,F5,717.25,0.25,100,91.45
5484,E5,717.5,0.25,100,91.45
5485,B-2,717.5,0.25,80,91.45
5486,D5,717.75,0.25,100,91.45
5487,C5,718.0,0.25,100,91.45
5488,A4,718.0,1.5,80,91.45
5489,F4,718.0,1.5,80,91.45
5490,A3,718.0,1.5,80,91.45
5491,D4,718.0,1.5,80,91.45
5492,E5,718.25,0.25,100,91.45
5493,A4,718.5,0.25,80,91.45
5494,G#2,718.5,0.25,80,91.45
5495,F4,718.75,0.25,80,91.45
5496,D2,719.0,0.5,100,91.45
5497,A4,719.0,167/1000,80,91.45
5498,E2,719.0,0.25,80,91.45
5499,G4,719.167,167/1000,80,91.45
5500,F4,719.333,167/1000,80,91.45
5501,G#2,719.5,0.25,80,91.45
5502,B-1,719.5,3.0,90,91.45
5503,B-2,719.5,3.0,90,91.45
5504,G4,719.5,1.0,100,91.45
5505,C5,719.5,1.0,100,91.45
5506,F2,720.0,0.5,100,91.45
5507,E2,720.0,0.25,80,91.45
5508,F4,720.5,0.5,100,91.45
5509,G#2,720.5,0.25,80,91.45
5510,A2,721.0,0.5,100,91.45
5511,D4,721.0,0.5,100,91.45
5512,E2,721.0,0.25,80,91.45
5513,A3,721.5,0.5,70,91.45
5514,G#2,721.5,0.25,80,91.45
5515,G#3,722.0,167/1000,83,91.45
5516,G#2,722.0,1.0,100,91.45
5517,E2,722.0,0.25,80,91.45
5518,A4,722.0,0.5,100,91.45
5519,D4,722.0,0.5,100,91.45
5520,A3,722.167,167/1000,83,91.45
5521,G#3,722.333,167/1000,83,91.45
5522,A3,722.5,167/1000,83,91.45
5523,G#2,722.5,0.25,80,91.45
5524,G#3,722.667,167/1000,83,91.45
5525,A3,722.833,167/1000,83,91.45
5526,F2,723.0,0.5,100,91.45
5527,E2,723.0,0.25,80,91.45
5528,G3,723.0,0.25,80,91.45
5529,G4,723.0,0.25,80,91.45
5530,A2,723.0,0.25,80,91.45
5531,E3,723.0,0.25,80,91.45
5532,C#4,723.0,0.25,80,91.45
5533,E2,723.5,0.5,100,91.45
5534,A4,723.5,1.0,100,91.45
5535,D4,723.5,1.0,100,91.45
5536,G#2,723.5,0.25,80,91.45
5537,E2,723.5,0.25,80,91.45
5538,A2,724.0,1.5,80,91.45
5539,G4,724.0,1.5,80,91.45
5540,E3,724.0,1.5,80,91.45
5541,G3,724.0,1.5,80,91.45
5542,C#4,724.0,1.5,80,91.45
5543,G#2,724.5,0.25,80,91.45
5544,D2,725.0,0.5,100,91.45
5545,E2,725.0,0.25,80,91.45
5546,G#2,725.5,0.25,80,91.45
5547,F2,726.0,0.5,100,91.45
5548,D3,726.0,0.5,100,91.45
5549,E2,726.0,0.25,80,91.45
5550,G#2,726.5,0.25,80,91.45
5551,D3,727.0,0.5,100,91.45
5552,A2,727.0,0.5,100,91.45
5553,F3,727.0,0.5,100,91.45
5554,E2,727.0,0.25,80,91.45
5555,G#2,727.5,0.25,80,91.45
5556,F3,728.0,0.5,100,91.45
5557,G#2,728.0,0.5,100,91.45
5558,A3,728.0,0.5,100,91.45
5559,E2,728.0,0.25,80,91.45
5560,G#2,728.5,0.25,80,91.45
5561,A3,729.0,0.5,100,91.45
5562,B2,729.0,0.5,100,91.45
5563,E2,729.0,0.25,80,91.45
5564,G#2,729.5,0.25,80,91.45
5565,G#3,730.0,1.0,100,91.45
5566,D3,730.0,0.5,100,91.45
5567,F3,730.0,0.5,100,91.45
5568,E2,730.0,0.25,80,91.45
5569,E3,730.5,0.5,100,91.45
5570,G#2,730.5,0.25,80,91.45
5571,F3,731.0,0.5,100,91.45
5572,B2,731.0,0.5,100,91.45
5573,E2,731.0,0.25,80,91.45
5574,E3,731.5,0.5,100,91.45
5575,C3,731.5,1.0,100,91.45
5576,D3,731.5,0.25,80,91.45
5577,G#2,731.5,0.25,80,91.45
5578,E2,731.5,0.25,80,91.45
5579,D3,732.0,0.5,100,91.45
5580,B2,732.5,0.5,100,91.45
5581,A4,732.5,0.25,85,91.45
5582,D3,732.5,0.25,85,91.45
5583,D3,732.5,0.25,80,91.45
5584,G#2,732.5,0.25,80,91.45
5585,E2,732.5,0.25,80,91.45
5586,D3,733.0,0.5,100,91.45
5587,A2,733.0,0.5,100,91.45
5588,F3,733.0,0.5,100,91.45
5589,D3,733.0,0.25,80,91.45
5590,E2,733.0,0.25,80,91.45
5591,G#2,733.5,0.25,80,91.45
5592,F3,734.0,0.5,100,91.45
5593,A3,734.0,0.5,100,91.45
5594,C3,734.458,21/500,72,91.45
5595,G#2,734.458,21/500,72,91.45
5596,C3,734.458,21/500,72,91.45
5597,G#2,734.5,1.0,100,91.45
5598,C3,734.5,26/125,72,91.45
5599,G#2,734.5,26/125,72,91.45
5600,C3,734.5,26/125,72,91.45
5601,A3,735.0,0.5,100,91.45
5602,G#3,735.0,0.5,100,91.45
5603,C3,735.458,0.25,75,91.45
5604,G#2,735.458,0.25,75,91.45
5605,C3,735.458,0.25,75,91.45
5606,F2,735.5,0.5,100,91.45
5607,C3,735.958,0.25,72,91.45
5608,C3,735.958,0.25,72,91.45
5609,G#3,736.0,0.5,100,91.45
5610,E2,736.0,0.5,100,91.45
5611,B3,736.0,0.5,100,91.45
5612,G#2,736.5,0.25,80,91.45
5613,B3,737.0,0.5,100,91.45
5614,D4,737.0,0.5,100,91.45
5615,B1,737.5,1.0,100,91.45
5616,G#2,737.5,0.25,96,91.45
5617,F#3,737.5,0.25,96,91.45
5618,B2,737.5,0.25,96,91.45
5619,D4,738.0,0.5,100,91.45
5620,B3,738.0,0.5,100,91.45
5621,A1,738.5,0.5,100,91.45
5622,C4,738.5,1.0,100,91.45
5623,G#2,738.5,0.25,96,91.45
5624,F#3,738.5,0.25,96,91.45
5625,B2,738.5,0.25,96,91.45
5626,B3,739.0,0.5,100,91.45
5627,G#1,739.0,0.5,100,91.45
5628,F#3,739.0,0.25,104,91.45
5629,B2,739.0,0.25,104,91.45
5630,C4,739.5,1.0,100,91.45
5631,B3,739.5,0.5,100,91.45
5632,G#2,739.5,0.25,100,91.45
5633,A3,740.0,0.5,100,91.45
5634,B3,740.5,0.5,100,91.45
5635,B1,740.5,3.0,85,91.45
5636,B1,740.5,0.25,100,91.45
5637,A3,740.5,0.25,100,91.45
5638,A3,741.0,0.5,100,91.45
5639,F#2,741.0,0.25,100,91.45
5640,F#2,741.25,0.25,100,91.45
5641,G#3,741.5,1.0,100,91.45
5642,F3,741.5,0.25,100,91.45
5643,E2,742.0,0.25,100,91.45
5644,G#3,742.5,1.0,100,91.45
5645,F3,742.5,0.5,100,91.45
5646,E-3,742.5,0.25,100,91.45
5647,E3,743.0,0.5,100,91.45
5648,B-2,743.0,0.25,100,91.45
5649,F3,743.5,0.5,100,91.45
5650,A1,743.5,3.0,85,91.45
5651,E-3,743.5,0.25,100,91.45
5652,G#2,743.5,0.25,100,91.45
5653,B1,743.5,0.25,100,91.45
5654,E3,744.0,0.5,100,91.45
5655,F#2,744.0,0.25,100,91.45
5656,B2,744.5,1.0,100,91.45
5657,E-3,744.5,0.25,100,91.45
5658,B1,745.0,0.25,100,91.45
5659,B2,745.5,1.0,100,91.45
5660,A2,745.5,0.5,100,91.45
5661,E2,745.5,0.25,100,91.45
5662,E3,745.5,0.25,100,91.45
5663,G#2,746.0,0.5,100,91.45
5664,E5,746.0,0.5,70,91.45
5665,G#5,746.0,0.5,70,91.45
5666,A2,746.5,0.5,100,91.45
5667,C2,746.5,3.0,85,91.45
5668,B1,746.5,0.25,100,91.45
5669,A3,746.5,0.25,100,91.45
5670,G#2,747.0,0.5,100,91.45
5671,F#2,747.0,0.25,100,91.45
5672,E5,747.0,1.0,70,91.45
5673,G#5,747.0,1.0,70,91.45
5674,F#2,747.25,0.25,100,91.45
5675,F3,747.5,0.25,100,91.45
5676,A5,748.0,0.5,70,91.45
5677,E2,748.0,0.25,100,91.45
5678,E5,748.0,0.5,90,91.45
5679,G#5,748.0,0.5,90,91.45
5680,B2,748.5,3.0,100,91.45
5681,E-3,748.5,0.25,100,91.45
5682,G#5,748.5,3.0,70,91.45
5683,B5,748.5,3.0,70,91.45
5684,B-2,749.0,0.25,100,91.45
5685,E5,749.0,1.0,90,91.45
5686,G#5,749.0,1.0,90,91.45
5687,B3,749.0,0.5,75,91.45
5688,G#5,749.0,0.5,75,91.45
5689,G#4,749.0,0.5,75,91.45
5690,B3,749.5,2.0,100,91.45
5691,D2,749.5,3.0,85,91.45
5692,G#2,749.5,0.25,100,91.45
5693,B1,749.5,0.25,100,91.45
5694,E-3,749.5,0.25,100,91.45
5695,A5,750.0,0.5,90,91.45
5696,F#2,750.0,0.25,100,91.45
5697,B3,750.0,1.0,75,91.45
5698,G#5,750.0,1.0,75,91.45
5699,G#4,750.0,1.0,75,91.45
5700,E4,750.5,1.0,100,91.45
5701,E-3,750.5,0.25,100,91.45
5702,G#5,750.5,3.0,90,91.45
5703,B5,750.5,3.0,90,91.45
5704,B1,751.0,0.25,100,91.45
5705,B3,751.0,0.5,75,91.45
5706,A5,751.0,0.5,75,91.45
5707,A4,751.0,0.5,75,91.45
5708,A2,751.5,3.0,100,91.45
5709,G5,751.5,1.0,70,91.45
5710,D6,751.5,1.0,70,91.45
5711,E4,751.5,3.0,75,91.45
5712,B5,751.5,3.0,75,91.45
5713,B4,751.5,3.0,75,91.45
5714,E3,751.5,0.25,100,91.45
5715,E2,751.5,0.25,100,91.45
5716,B3,752.5,2.0,100,91.45
5717,B1,752.5,3.0,85,91.45
5718,G5,752.5,0.5,70,91.45
5719,B5,752.5,0.5,70,91.45
5720,B1,752.5,0.25,100,91.45
5721,E-3,752.5,0.25,100,91.45
5722,F#2,753.0,0.25,100,91.45
5723,D5,753.0,1.0,70,91.45
5724,G5,753.0,1.0,70,91.45
5725,F#2,753.25,0.25,100,91.45
5726,E4,753.5,1.0,100,91.45
5727,F3,753.5,0.25,100,91.45
5728,G5,753.5,1.0,90,91.45
5729,D6,753.5,1.0,90,91.45
5730,E2,754.0,0.25,100,91.45
5731,G5,754.0,0.5,70,91.45
5732,B5,754.0,0.5,70,91.45
5733,C3,754.5,3.0,100,91.45
5734,D4,754.5,3.0,75,91.45
5735,E-3,754.5,0.25,100,91.45
5736,G5,754.5,0.5,90,91.45
5737,B5,754.5,0.5,90,91.45
5738,F#5,754.5,1.0,70,91.45
5739,A5,754.5,1.0,70,91.45
5740,D6,754.5,1.0,75,91.45
5741,D5,754.5,1.0,75,91.45
5742,B-2,755.0,0.25,100,91.45
5743,D5,755.0,1.0,90,91.45
5744,G5,755.0,1.0,90,91.45
5745,D4,755.5,2.0,100,91.45
5746,A1,755.5,3.0,85,91.45
5747,D5,755.5,0.5,70,91.45
5748,F#5,755.5,0.5,70,91.45
5749,B5,755.5,0.5,75,91.45
5750,B4,755.5,0.5,75,91.45
5751,G#2,755.5,0.25,100,91.45
5752,B1,755.5,0.25,100,91.45
5753,E-3,755.5,0.25,100,91.45
5754,F#2,756.0,0.25,100,91.45
5755,G5,756.0,0.5,90,91.45
5756,B5,756.0,0.5,90,91.45
5757,A4,756.0,1.5,70,91.45
5758,D5,756.0,1.5,70,91.45
5759,G5,756.0,1.0,75,91.45
5760,G4,756.0,1.0,75,91.45
5761,G4,756.5,1.0,100,91.45
5762,E-3,756.5,0.25,100,91.45
5763,F#5,756.5,1.0,90,91.45
5764,A5,756.5,1.0,90,91.45
5765,B1,757.0,0.25,100,91.45
5766,B5,757.0,0.5,75,91.45
5767,B4,757.0,0.5,75,91.45
5768,D3,757.5,3.0,100,91.45
5769,D4,757.5,3.0,75,91.45
5770,D5,757.5,0.5,90,91.45
5771,F#5,757.5,0.5,90,91.45
5772,A5,757.5,1.0,75,91.45
5773,A4,757.5,1.0,75,91.45
5774,E3,757.5,0.25,100,91.45
5775,E2,757.5,0.25,100,91.45
5776,A4,758.0,1.5,90,91.45
5777,D5,758.0,1.5,90,91.45
5778,E5,758.0,0.5,70,91.45
5779,G#5,758.0,0.5,70,91.45
5780,F#4,758.5,2.0,100,91.45
5781,C2,758.5,1.5,85,91.45
5782,F#5,758.5,0.5,75,91.45
5783,F#4,758.5,0.5,75,91.45
5784,B1,758.5,0.25,100,91.45
5785,F#2,758.5,0.25,100,91.45
5786,F#2,759.0,0.25,100,91.45
5787,E5,759.0,1.0,70,91.45
5788,G#5,759.0,1.0,70,91.45
5789,D5,759.0,1.5,75,91.45
5790,D4,759.0,1.5,75,91.45
5791,F#2,759.25,0.25,100,91.45
5792,D4,759.5,1.0,100,91.45
5793,F3,759.5,0.25,100,91.45
5794,E2,760.0,1.5,85,91.45
5795,A5,760.0,0.5,70,91.45
5796,E2,760.0,0.25,100,91.45
5797,E5,760.0,0.5,90,91.45
5798,G#5,760.0,0.5,90,91.45
5799,B2,760.5,3.0,100,91.45
5800,E-3,760.5,0.25,100,91.45
5801,G#5,760.5,3.0,70,91.45
5802,B5,760.5,3.0,70,91.45
5803,B1,761.0,0.25,100,91.45
5804,E5,761.0,1.0,90,91.45
5805,G#5,761.0,1.0,90,91.45
5806,B3,761.0,0.5,75,91.45
5807,G#5,761.0,0.5,75,91.45
5808,G#4,761.0,0.5,75,91.45
5809,B3,761.5,2.0,100,91.45
5810,D2,761.5,0.5,85,91.45
5811,A3,761.5,0.25,100,91.45
5812,E2,761.5,0.25,100,91.45
5813,A5,762.0,0.5,90,91.45
5814,B3,762.0,1.0,75,91.45
5815,G#5,762.0,1.0,75,91.45
5816,G#4,762.0,1.0,75,91.45
5817,E4,762.5,1.0,100,91.45
5818,D2,762.5,0.5,85,91.45
5819,G#5,762.5,3.0,90,91.45
5820,B5,762.5,3.0,90,91.45
5821,E3,762.5,0.25,100,91.45
5822,E2,762.5,0.25,100,91.45
5823,B3,763.0,0.5,75,91.45
5824,A5,763.0,0.5,75,91.45
5825,A4,763.0,0.5,75,91.45
5826,A2,763.5,3.0,100,91.45
5827,B1,763.5,3.0,85,91.45
5828,G5,763.5,1.0,70,91.45
5829,D6,763.5,1.0,70,91.45
5830,E4,763.5,3.0,75,91.45
5831,B5,763.5,3.0,75,91.45
5832,B4,763.5,3.0,75,91.45
5833,B1,763.5,0.25,100,91.45
5834,A3,763.5,0.25,100,91.45
5835,F#2,764.0,0.25,100,91.45
5836,F#2,764.25,0.25,100,91.45
5837,B3,764.5,2.0,100,91.45
5838,F3,764.5,0.25,100,91.45
5839,G5,764.5,0.5,70,91.45
5840,B5,764.5,0.5,70,91.45
5841,E2,765.0,0.25,100,91.45
5842,D5,765.0,0.5,70,91.45
5843,G5,765.0,0.5,70,91.45
5844,E4,765.5,1.0,100,91.45
5845,E-3,765.5,0.25,100,91.45
5846,G5,765.5,1.0,90,91.45
5847,D6,765.5,1.0,90,91.45
5848,G5,765.5,0.5,70,91.45
5849,B5,765.5,0.5,70,91.45
5850,B-2,766.0,0.25,100,91.45
5851,F#5,766.0,1.5,70,91.45
5852,A5,766.0,1.5,70,91.45
5853,C3,766.5,1.5,100,91.45
5854,A1,766.5,3.0,85,91.45
5855,D4,766.5,3.0,75,91.45
5856,G4,766.5,1.0,100,91.45
5857,D4,766.5,1.0,100,91.45
5858,G5,766.5,0.5,90,91.45
5859,B5,766.5,0.5,90,91.45
5860,D5,766.5,1.0,75,91.45
5861,D6,766.5,1.0,75,91.45
5862,B1,766.5,0.25,100,91.45
5863,E-3,766.5,0.25,100,91.45
5864,F#2,767.0,0.25,100,91.45
5865,D5,767.0,0.5,90,91.45
5866,G5,767.0,0.5,90,91.45
5867,E-3,767.5,0.25,100,91.45
5868,G5,767.5,0.5,90,91.45
5869,B5,767.5,0.5,90,91.45
5870,B4,767.5,0.5,75,91.45
5871,B5,767.5,0.5,75,91.45
5872,E3,768.0,1.5,100,91.45
5873,B1,768.0,0.25,100,91.45
5874,F#5,768.0,1.5,90,91.45
5875,A5,768.0,1.5,90,91.45
5876,G4,768.0,0.5,75,91.45
5877,G5,768.0,0.5,75,91.45
5878,B4,768.5,0.5,75,91.45
5879,B5,768.5,0.5,75,91.45
5880,E3,768.5,0.25,100,91.45
5881,E2,768.5,0.25,100,91.45
5882,E5,769.0,0.5,70,91.45
5883,G#5,769.0,0.5,70,91.45
5884,A4,769.0,1.5,75,91.45
5885,A5,769.0,1.5,75,91.45
5886,G1,769.5,3.0,85,91.45
5887,F#4,769.5,1.0,92,91.45
5888,D4,769.5,1.0,92,91.45
5889,A3,769.5,1.0,92,91.45
5890,D3,769.5,1.0,92,91.45
5891,B1,769.5,0.25,100,91.45
5892,A3,769.5,0.25,100,91.45
5893,F#2,770.0,0.25,100,91.45
5894,E5,770.0,1.0,70,91.45
5895,G#5,770.0,1.0,70,91.45
5896,F#2,770.25,0.25,100,91.45
5897,F3,770.5,0.25,100,91.45
5898,D4,770.5,1.0,92,91.45
5899,A3,770.5,1.0,92,91.45
5900,F#4,770.5,1.0,92,91.45
5901,D3,770.5,1.0,92,91.45
5902,A5,771.0,0.5,70,91.45
5903,E2,771.0,0.25,100,91.45
5904,E5,771.0,0.5,90,91.45
5905,G#5,771.0,0.5,90,91.45
5906,B2,771.5,3.0,100,91.45
5907,E-3,771.5,0.25,100,91.45
5908,G#5,771.5,2.5,70,91.45
5909,B5,771.5,2.5,70,91.45
5910,B-2,772.0,0.25,100,91.45
5911,E5,772.0,1.0,90,91.45
5912,G#5,772.0,1.0,90,91.45
5913,B3,772.0,0.5,75,91.45
5914,G#5,772.0,0.5,75,91.45
5915,G#4,772.0,0.5,75,91.45
5916,B3,772.5,2.0,100,91.45
5917,F#1,772.5,1.0,85,91.45
5918,B1,772.5,0.25,100,91.45
5919,E-3,772.5,0.25,100,91.45
5920,A5,773.0,0.5,90,91.45
5921,F#2,773.0,0.25,100,91.45
5922,B3,773.0,1.0,75,91.45
5923,G#5,773.0,1.0,75,91.45
5924,G#4,773.0,1.0,75,91.45
5925,E4,773.5,1.0,100,91.45
5926,A1,773.5,1.0,85,91.45
5927,E-3,773.5,0.25,100,91.45
5928,G#5,773.5,2.5,90,91.45
5929,B5,773.5,2.5,90,91.45
5930,B1,774.0,0.25,100,91.45
5931,C6,774.0,0.5,70,91.45
5932,E6,774.0,0.5,70,91.45
5933,B3,774.0,0.5,75,91.45
5934,A5,774.0,0.5,75,91.45
5935,A4,774.0,0.5,75,91.45
5936,A2,774.5,3.0,100,91.45
5937,D2,774.5,1.0,85,91.45
5938,G6,774.5,1.0,70,91.45
5939,C6,774.5,1.0,70,91.45
5940,G5,774.5,1.0,70,91.45
5941,E4,774.5,2.5,75,91.45
5942,B4,774.5,2.5,75,91.45
5943,B5,774.5,2.5,75,91.45
5944,E3,774.5,0.25,100,91.45
5945,E2,774.5,0.25,100,91.45
5946,B3,775.5,2.0,100,91.45
5947,A1,775.5,0.5,85,91.45
5948,F#6,775.5,0.5,70,91.45
5949,G5,775.5,0.5,70,91.45
5950,F#5,775.5,0.5,70,91.45
5951,B1,775.5,0.25,100,91.45
5952,A3,775.5,0.25,100,91.45
5953,A1,776.0,0.5,85,91.45
5954,F#2,776.0,0.25,100,91.45
5955,C6,776.0,0.5,90,91.45
5956,E6,776.0,0.5,90,91.45
5957,E6,776.0,1.0,70,91.45
5958,C6,776.0,1.0,70,91.45
5959,E5,776.0,1.0,70,91.45
5960,F#2,776.25,0.25,100,91.45
5961,E4,776.5,1.0,100,91.45
5962,F3,776.5,0.25,100,91.45
5963,G6,776.5,1.0,90,91.45
5964,C6,776.5,1.0,90,91.45
5965,G5,776.5,1.0,90,91.45
5966,A1,777.0,1.0,85,91.45
5967,E2,777.0,0.25,100,91.45
5968,F#6,777.0,0.5,70,91.45
5969,D6,777.0,0.5,70,91.45
5970,F#5,777.0,0.5,70,91.45
5971,C5,777.0,0.5,75,91.45
5972,E6,777.0,0.5,75,91.45
5973,G2,777.5,3.0,100,91.45
5974,E5,777.5,2.5,75,91.45
5975,G5,777.5,1.0,75,91.45
5976,E-3,777.5,0.25,100,91.45
5977,F#6,777.5,0.5,90,91.45
5978,G5,777.5,0.5,90,91.45
5979,F#5,777.5,0.5,90,91.45
5980,D6,777.5,3.0,70,91.45
5981,A5,777.5,3.0,70,91.45
5982,D5,777.5,3.0,70,91.45
5983,A1,778.0,0.5,85,91.45
5984,B-2,778.0,0.25,100,91.45
5985,E6,778.0,1.0,90,91.45
5986,C6,778.0,1.0,90,91.45
5987,E5,778.0,1.0,90,91.45
5988,G3,778.5,2.0,80,91.45
5989,G1,778.5,1.0,85,91.45
5990,F#5,778.5,0.5,75,91.45
5991,B1,778.5,0.25,100,91.45
5992,C#3,778.5,0.25,100,91.45
5993,E5,779.0,1.5,75,91.45
5994,F#6,779.0,0.5,90,91.45
5995,D6,779.0,0.5,90,91.45
5996,F#5,779.0,0.5,90,91.45
5997,C2,779.5,1.0,85,91.45
5998,E2,779.5,0.25,100,91.45
5999,D6,779.5,3.0,90,91.45
6000,A5,779.5,3.0,90,91.45
6001,D5,779.5,3.0,90,91.45
6002,F#5,780.0,0.5,75,91.45
6003,E2,780.0,0.25,100,91.45
6004,F#2,780.5,1.0,100,91.45
6005,E2,780.5,1.0,85,91.45
6006,F5,780.5,1.5,70,91.45
6007,C6,780.5,1.0,70,91.45
6008,E2,780.5,0.25,100,91.45
6009,A4,780.5,3.0,75,91.45
6010,F#5,780.5,3.0,75,91.45
6011,D5,780.5,3.0,75,91.45
6012,E2,781.0,0.25,100,91.45
6013,A2,781.5,1.0,100,91.45
6014,A1,781.5,3.0,100,91.45
6015,B5,781.5,0.5,70,91.45
6016,B1,781.5,0.25,127,91.45
6017,A3,781.5,0.25,127,91.45
6018,A5,782.0,0.5,70,91.45
6019,D3,782.5,1.0,100,91.45
6020,F5,782.5,1.5,100,91.45
6021,C6,782.5,1.0,100,91.45
6022,B5,782.5,0.5,70,91.45
6023,E5,783.0,1.5,70,91.45
6024,G5,783.0,3.5,70,91.45
6025,F3,783.0,0.25,127,91.45
6026,B1,783.0,0.25,127,91.45
6027,A2,783.5,0.25,100,91.45
6028,B5,783.5,0.5,100,91.45
6029,A4,783.5,2.0,75,91.45
6030,C6,783.5,1.0,75,91.45
6031,E2,783.5,0.25,127,91.45
6032,A2,784.0,0.25,100,91.45
6033,A5,784.0,0.5,100,91.45
6034,F3,784.0,0.25,127,91.45
6035,B1,784.0,0.25,127,91.45
6036,B5,784.5,0.5,100,91.45
6037,B5,784.5,0.5,75,91.45
6038,A3,785.0,0.5,100,91.45
6039,A1,785.0,833/1000,100,91.45
6040,E5,785.0,1.5,100,91.45
6041,G5,785.0,3.5,100,91.45
6042,A5,785.0,0.5,75,91.45
6043,F3,785.0,0.25,127,91.45
6044,B1,785.0,0.25,127,91.45
6045,C4,785.5,333/1000,100,91.45
6046,B5,785.5,0.5,75,91.45
6047,B3,785.833,333/1000,100,91.45
6048,E5,786.0,3.0,75,91.45
6049,G4,786.0,2.0,75,91.45
6050,G5,786.0,3.5,75,91.45
6051,B1,786.0,0.25,127,91.45
6052,G3,786.167,0.375,100,91.45
6053,G2,786.5,1.0,100,91.45
6054,B1,786.5,1.0,100,91.45
6055,E3,786.5,0.25,127,91.45
6056,E2,786.5,0.25,127,91.45
6057,C3,787.5,1.0,100,91.45
6058,C2,787.5,3.0,100,91.45
6059,B1,787.5,0.25,127,91.45
6060,C#3,787.5,0.25,127,91.45
6061,E3,788.5,1.0,100,91.45
6062,G#2,788.5,0.25,127,91.45
6063,E4,789.0,1.0,90,91.45
6064,C#5,789.0,1.0,90,91.45
6065,C#4,789.0,1.0,90,91.45
6066,B1,789.0,0.25,127,91.45
6067,F3,789.0,0.25,127,91.45
6068,E2,789.5,0.25,127,91.45
6069,C#4,790.0,1.0,100,91.45
6070,A3,790.0,1.0,100,91.45
6071,E3,790.0,1.0,100,91.45
6072,A2,790.0,1.0,100,91.45
6073,E4,790.0,1.0,90,91.45
6074,D5,790.0,1.0,90,91.45
6075,D4,790.0,1.0,90,91.45
6076,E4,790.0,1.0,55,91.45
6077,C#5,790.0,1.0,55,91.45
6078,C#4,790.0,1.0,55,91.45
6079,B1,790.0,0.25,127,91.45
6080,F3,790.0,0.25,127,91.45
6081,D2,791.0,833/1000,100,91.45
6082,D4,791.0,1.0,100,91.45
6083,A3,791.0,1.0,100,91.45
6084,E3,791.0,1.0,100,91.45
6085,A2,791.0,1.0,100,91.45
6086,A4,791.0,583/1000,90,91.45
6087,E5,791.0,583/1000,90,91.45
6088,E4,791.0,583/1000,90,91.45
6089,E4,791.0,1.0,55,91.45
6090,D5,791.0,1.0,55,91.45
6091,D4,791.0,1.0,55,91.45
6092,B1,791.0,0.25,127,91.45
6093,F3,791.0,0.25,127,91.45
6094,A1,792.0,0.5,100,91.45
6095,B1,792.0,0.25,127,91.45
6096,E4,792.0,583/1000,100,91.45
6097,A3,792.0,583/1000,100,91.45
6098,E3,792.0,583/1000,100,91.45
6099,A2,792.0,583/1000,100,91.45
6100,A4,792.0,1.5,90,91.45
6101,E4,792.0,1.5,90,91.45
6102,E5,792.0,1.5,90,91.45
6103,A4,792.0,583/1000,55,91.45
6104,E5,792.0,583/1000,55,91.45
6105,E4,792.0,583/1000,55,91.45
6106,E2,792.417,0.25,127,91.45
6107,D1,792.5,1.0,93,91.45
6108,E2,792.5,0.25,127,91.45
6109,E2,793.0,0.25,127,91.45
6110,A2,793.0,1.5,100,91.45
6111,E3,793.0,1.5,100,91.45
6112,E4,793.0,1.5,100,91.45
6113,A3,793.0,1.5,100,91.45
6114,A4,793.0,1.5,55,91.45
6115,E4,793.0,1.5,55,91.45
6116,E5,793.0,1.5,55,91.45
6117,A1,793.5,3.0,100,91.45
6118,B4,793.5,1.0,90,91.45
6119,C#5,793.5,1.0,90,91.45
6120,E5,793.5,1.0,90,91.45
6121,E4,793.5,1.0,90,91.45
6122,B1,793.5,0.25,127,91.45
6123,C#3,793.5,0.25,127,91.45
6124,G#2,794.5,0.25,127,91.45
6125,B2,794.5,1.0,100,91.45
6126,F#3,794.5,1.0,100,91.45
6127,B3,794.5,1.0,100,91.45
6128,E4,794.5,1.0,100,91.45
6129,A4,794.5,1.0,55,91.45
6130,C#5,794.5,1.0,55,91.45
6131,E5,794.5,1.0,55,91.45
6132,E4,794.5,1.0,55,91.45
6133,G4,795.0,1.0,90,91.45
6134,C4,795.0,1.0,90,91.45
6135,C5,795.0,1.0,90,91.45
6136,B1,795.0,0.25,127,91.45
6137,F3,795.0,0.25,127,91.45
6138,E2,795.5,0.25,127,91.45
6139,C4,796.0,1.0,100,91.45
6140,G3,796.0,1.0,100,91.45
6141,C3,796.0,1.0,100,91.45
6142,G4,796.0,1.0,90,91.45
6143,D4,796.0,1.0,90,91.45
6144,D5,796.0,1.0,90,91.45
6145,G4,796.0,1.0,55,91.45
6146,C4,796.0,1.0,55,91.45
6147,C5,796.0,1.0,55,91.45
6148,F3,796.0,0.25,127,91.45
6149,B1,796.0,0.25,127,91.45
6150,A1,797.0,833/1000,100,91.45
6151,D4,797.0,1.0,100,91.45
6152,G3,797.0,1.0,100,91.45
6153,C3,797.0,1.0,100,91.45
6154,C5,797.0,583/1000,90,91.45
6155,E4,797.0,583/1000,90,91.45
6156,E5,797.0,583/1000,90,91.45
6157,G4,797.0,1.0,55,91.45
6158,D4,797.0,1.0,55,91.45
6159,D5,797.0,1.0,55,91.45
6160,B1,797.0,0.25,127,91.45
6161,F3,797.0,0.25,127,91.45
6162,B1,798.0,0.25,127,91.45
6163,E4,798.0,583/1000,100,91.45
6164,G3,798.0,583/1000,100,91.45
6165,C3,798.0,583/1000,100,91.45
6166,A4,798.0,1.5,90,91.45
6167,D4,798.0,1.5,90,91.45
6168,D5,798.0,1.5,90,91.45
6169,C5,798.0,583/1000,55,91.45
6170,E4,798.0,583/1000,55,91.45
6171,E5,798.0,583/1000,55,91.45
6172,B1,798.5,1.0,100,91.45
6173,A3,798.5,0.25,127,91.45
6174,E2,798.5,0.25,127,91.45
6175,D3,799.0,2.5,100,91.45
6176,A3,799.0,2.5,100,91.45
6177,D4,799.0,2.5,100,91.45
6178,A4,799.0,1.5,55,91.45
6179,D4,799.0,1.5,55,91.45
6180,D5,799.0,1.5,55,91.45
6181,C2,799.5,0.75,100,91.45
6182,A4,799.5,1.0,90,91.45
6183,D4,799.5,1.0,90,91.45
6184,D5,799.5,1.0,90,91.45
6185,E2,799.5,0.25,127,91.45
6186,E3,799.5,0.25,127,91.45
6187,G#2,800.5,0.25,127,91.45
6188,A4,800.5,1.0,55,91.45
6189,D4,800.5,1.0,55,91.45
6190,D5,800.5,1.0,55,91.45
6191,E4,801.0,1.0,90,91.45
6192,C#5,801.0,1.0,90,91.45
6193,C#4,801.0,1.0,90,91.45
6194,G#2,801.5,0.25,127,91.45
6195,B1,802.0,0.25,127,91.45
6196,C#4,802.0,1.0,100,91.45
6197,A3,802.0,1.0,100,91.45
6198,E3,802.0,1.0,100,91.45
6199,A2,802.0,1.0,100,91.45
6200,E4,802.0,1.0,90,91.45
6201,D5,802.0,1.0,90,91.45
6202,D4,802.0,1.0,90,91.45
6203,E4,802.0,1.0,55,91.45
6204,C#5,802.0,1.0,55,91.45
6205,C#4,802.0,1.0,55,91.45
6206,D1,802.5,1.0,100,91.45
6207,A3,802.5,0.25,127,91.45
6208,E2,802.5,0.25,127,91.45
6209,D4,803.0,1.0,100,91.45
6210,A3,803.0,1.0,100,91.45
6211,E3,803.0,1.0,100,91.45
6212,A2,803.0,1.0,100,91.45
6213,A4,803.0,583/1000,90,91.45
6214,E5,803.0,583/1000,90,91.45
6215,E4,803.0,583/1000,90,91.45
6216,E4,803.0,1.0,55,91.45
6217,D5,803.0,1.0,55,91.45
6218,D4,803.0,1.0,55,91.45
6219,D1,803.5,1.0,100,91.45
6220,E2,803.5,0.25,127,91.45
6221,A3,803.5,0.25,127,91.45
6222,E4,804.0,583/1000,100,91.45
6223,A3,804.0,583/1000,100,91.45
6224,E3,804.0,583/1000,100,91.45
6225,A2,804.0,583/1000,100,91.45
6226,A4,804.0,1.5,90,91.45
6227,E4,804.0,1.5,90,91.45
6228,E5,804.0,1.5,90,91.45
6229,A4,804.0,583/1000,55,91.45
6230,E5,804.0,583/1000,55,91.45
6231,E4,804.0,583/1000,55,91.45
6232,A1,804.5,3.0,100,91.45
6233,B1,804.5,0.25,127,91.45
6234,C#3,804.5,0.25,127,91.45
6235,A2,805.0,1.5,100,91.45
6236,E3,805.0,1.5,100,91.45
6237,E4,805.0,1.5,100,91.45
6238,A3,805.0,1.5,100,91.45
6239,A4,805.0,1.5,55,91.45
6240,E4,805.0,1.5,55,91.45
6241,E5,805.0,1.5,55,91.45
6242,B4,805.5,1.0,90,91.45
6243,C#5,805.5,1.0,90,91.45
6244,E5,805.5,1.0,90,91.45
6245,E4,805.5,1.0,90,91.45
6246,E3,806.0,0.25,127,91.45
6247,B1,806.0,0.25,127,91.45
6248,E2,806.5,0.25,127,91.45
6249,B2,806.5,1.0,100,91.45
6250,F#3,806.5,1.0,100,91.45
6251,B3,806.5,1.0,100,91.45
6252,E4,806.5,1.0,100,91.45
6253,A4,806.5,1.0,55,91.45
6254,C#5,806.5,1.0,55,91.45
6255,E5,806.5,1.0,55,91.45
6256,E4,806.5,1.0,55,91.45
6257,E3,807.0,0.25,127,91.45
6258,B1,807.0,0.25,127,91.45
6259,C4,807.5,0.5,100,91.45
6260,B3,808.0,0.5,100,91.45
6261,A1,808.0,833/1000,100,91.45
6262,B1,808.0,0.25,127,91.45
6263,E3,808.0,0.25,127,91.45
6264,A3,808.5,0.5,100,91.45
6265,G3,809.0,0.5,100,91.45
6266,B1,809.0,0.25,127,91.45
6267,A3,809.5,0.5,100,91.45
6268,B1,809.5,1.0,100,91.45
6269,E2,809.5,0.25,127,91.45
6270,B3,810.0,0.5,100,91.45
6271,E2,810.0,0.25,127,91.45
6272,A3,810.5,2.0,100,91.45
6273,C2,810.5,3.0,100,91.45
6274,B1,810.5,0.25,127,91.45
6275,C#3,810.5,0.25,127,91.45
6276,E4,812.0,1.0,90,91.45
6277,C#5,812.0,1.0,90,91.45
6278,C#4,812.0,1.0,90,91.45
6279,E3,812.0,0.25,127,91.45
6280,B1,812.0,0.25,127,91.45
6281,E2,812.5,0.25,127,91.45
6282,C#4,813.0,1.0,100,91.45
6283,A3,813.0,1.0,100,91.45
6284,E3,813.0,1.0,100,91.45
6285,A2,813.0,1.0,100,91.45
6286,E4,813.0,1.0,90,91.45
6287,D5,813.0,1.0,90,91.45
6288,D4,813.0,1.0,90,91.45
6289,E4,813.0,1.0,55,91.45
6290,C#5,813.0,1.0,55,91.45
6291,C#4,813.0,1.0,55,91.45
6292,E3,813.0,0.25,127,91.45
6293,B1,813.0,0.25,127,91.45
6294,D2,814.0,833/1000,100,91.45
6295,D4,814.0,1.0,100,91.45
6296,A3,814.0,1.0,100,91.45
6297,E3,814.0,1.0,100,91.45
6298,A2,814.0,1.0,100,91.45
6299,A4,814.0,583/1000,90,91.45
6300,E5,814.0,583/1000,90,91.45
6301,E4,814.0,583/1000,90,91.45
6302,E4,814.0,1.0,55,91.45
6303,D5,814.0,1.0,55,91.45
6304,D4,814.0,1.0,55,91.45
6305,B1,814.0,0.25,127,91.45
6306,E3,814.0,0.25,127,91.45
6307,A1,815.0,0.5,100,91.45
6308,B1,815.0,0.25,127,91.45
6309,E4,815.0,583/1000,100,91.45
6310,A3,815.0,583/1000,100,91.45
6311,E3,815.0,583/1000,100,91.45
6312,A2,815.0,583/1000,100,91.45
6313,A4,815.0,1.5,90,91.45
6314,E4,815.0,1.5,90,91.45
6315,E5,815.0,1.5,90,91.45
6316,A4,815.0,583/1000,55,91.45
6317,E5,815.0,583/1000,55,91.45
6318,E4,815.0,583/1000,55,91.45
6319,D1,815.5,1.0,100,91.45
6320,E2,815.5,0.25,127,91.45
6321,E2,816.0,0.25,127,91.45
6322,A2,816.0,1.5,100,91.45
6323,E3,816.0,1.5,100,91.45
6324,E4,816.0,1.5,100,91.45
6325,A3,816.0,1.5,100,91.45
6326,A4,816.0,1.5,55,91.45
6327,E4,816.0,1.5,55,91.45
6328,E5,816.0,1.5,55,91.45
6329,A1,816.5,3.0,100,91.45
6330,B4,816.5,1.0,90,91.45
6331,C#5,816.5,1.0,90,91.45
6332,E5,816.5,1.0,90,91.45
6333,E4,816.5,1.0,90,91.45
6334,B1,816.5,0.25,127,91.45
6335,C#3,816.5,0.25,127,91.45
6336,B2,817.5,1.0,100,91.45
6337,F#3,817.5,1.0,100,91.45
6338,B3,817.5,1.0,100,91.45
6339,E4,817.5,1.0,100,91.45
6340,A4,817.5,1.0,55,91.45
6341,C#5,817.5,1.0,55,91.45
6342,E5,817.5,1.0,55,91.45
6343,E4,817.5,1.0,55,91.45
6344,G4,818.0,1.0,90,91.45
6345,C4,818.0,1.0,90,91.45
6346,C5,818.0,1.0,90,91.45
6347,E3,818.0,0.25,127,91.45
6348,B1,818.0,0.25,127,91.45
6349,E2,818.5,0.25,127,91.45
6350,C4,819.0,1.0,100,91.45
6351,G3,819.0,1.0,100,91.45
6352,C3,819.0,1.0,100,91.45
6353,G4,819.0,1.0,90,91.45
6354,D4,819.0,1.0,90,91.45
6355,D5,819.0,1.0,90,91.45
6356,G4,819.0,1.0,55,91.45
6357,C4,819.0,1.0,55,91.45
6358,C5,819.0,1.0,55,91.45
6359,E3,819.0,0.25,127,91.45
6360,B1,819.0,0.25,127,91.45
6361,A1,820.0,833/1000,100,91.45
6362,D4,820.0,1.0,100,91.45
6363,G3,820.0,1.0,100,91.45
6364,C3,820.0,1.0,100,91.45
6365,C5,820.0,583/1000,90,91.45
6366,E4,820.0,583/1000,90,91.45
6367,E5,820.0,583/1000,90,91.45
6368,G4,820.0,1.0,55,91.45
6369,D4,820.0,1.0,55,91.45
6370,D5,820.0,1.0,55,91.45
6371,B1,820.0,0.25,127,91.45
6372,E3,820.0,0.25,127,91.45
6373,B1,821.0,0.25,127,91.45
6374,E4,821.0,583/1000,100,91.45
6375,G3,821.0,583/1000,100,91.45
6376,C3,821.0,583/1000,100,91.45
6377,A4,821.0,1.5,90,91.45
6378,D4,821.0,1.5,90,91.45
6379,D5,821.0,1.5,90,91.45
6380,C5,821.0,583/1000,55,91.45
6381,E4,821.0,583/1000,55,91.45
6382,E5,821.0,583/1000,55,91.45
6383,E2,821.417,0.25,127,91.45
6384,B1,821.5,1.0,100,91.45
6385,E2,821.5,0.25,127,91.45
6386,B1,822.0,0.25,127,91.45
6387,D3,822.0,1.5,100,91.45
6388,A3,822.0,1.5,100,91.45
6389,D4,822.0,1.5,100,91.45
6390,A4,822.0,1.5,55,91.45
6391,D4,822.0,1.5,55,91.45
6392,D5,822.0,1.5,55,91.45
6393,C2,822.5,249/125,100,91.45
6394,A4,822.5,1.0,90,91.45
6395,D4,822.5,1.0,90,91.45
6396,D5,822.5,1.0,90,91.45
6397,G4,822.5,2.0,80,91.45
6398,E4,822.5,2.0,80,91.45
6399,C4,822.5,2.0,80,91.45
6400,B1,822.5,0.25,127,91.45
6401,A3,822.5,0.25,127,91.45
6402,D3,823.5,1.0,100,91.45
6403,A3,823.5,1.0,100,91.45
6404,D4,823.5,1.0,100,91.45
6405,A4,823.5,1.0,55,91.45
6406,D4,823.5,1.0,55,91.45
6407,D5,823.5,1.0,55,91.45
6408,C5,824.0,1.0,90,91.45
6409,C4,824.0,1.0,90,91.45
6410,F4,824.0,1.0,90,91.45
6411,D2,824.5,249/125,100,91.45
6412,G4,824.5,2.0,80,91.45
6413,E4,824.5,2.0,80,91.45
6414,C4,824.5,2.0,80,91.45
6415,B1,824.5,0.25,127,91.45
6416,E3,824.5,0.25,127,91.45
6417,F4,825.0,1.0,100,91.45
6418,A3,825.0,1.0,100,91.45
6419,F3,825.0,1.0,100,91.45
6420,C5,825.0,1.0,90,91.45
6421,C4,825.0,1.0,90,91.45
6422,F4,825.0,1.0,90,91.45
6423,A4,825.0,1.0,55,91.45
6424,F4,825.0,1.0,55,91.45
6425,G4,826.0,1.0,100,91.45
6426,A3,826.0,1.0,100,91.45
6427,F3,826.0,1.0,100,91.45
6428,C5,826.0,0.5,90,91.45
6429,C4,826.0,0.5,90,91.45
6430,G4,826.0,0.5,90,91.45
6431,A4,826.0,1.0,55,91.45
6432,F4,826.0,1.0,55,91.45
6433,F#4,826.5,1.5,90,91.45
6434,D2,826.5,4.0,100,91.45
6435,E4,826.5,4.0,69,91.45
6436,A3,826.5,4.0,69,91.45
6437,D4,826.5,4.0,69,91.45
6438,F#4,826.5,4.0,69,91.45
6439,B1,826.5,0.25,114,91.45
6440,C#3,826.5,0.25,114,91.45
6441,A4,827.0,583/1000,100,91.45
6442,A3,827.0,583/1000,100,91.45
6443,F3,827.0,583/1000,100,91.45
6444,C5,827.0,1.5,90,91.45
6445,C4,827.0,1.5,90,91.45
6446,A4,827.0,1.5,90,91.45
6447,D4,827.0,0.5,55,91.45
6448,B4,827.0,0.5,55,91.45
6449,G4,827.0,0.5,55,91.45
6450,B-2,827.5,0.25,100,91.45
6451,G4,828.0,1.5,90,91.45
6452,F3,828.0,1.5,100,91.45
6453,A4,828.0,1.5,100,91.45
6454,A3,828.0,1.5,100,91.45
6455,C4,828.0,1.5,55,91.45
6456,F4,828.0,1.5,55,91.45
6457,A4,828.0,1.5,55,91.45
6458,G4,828.5,1.0,90,91.45
6459,B4,828.5,1.0,90,91.45
6460,E2,828.5,0.25,100,91.45
6461,F#2,828.5,0.25,100,91.45
6462,F#2,829.0,0.25,100,91.45
6463,A4,829.5,1.0,90,91.45
6464,G4,829.5,0.5,55,91.45
6465,B-2,829.5,0.25,100,91.45
6466,G3,829.5,1.0,100,91.45
6467,B3,829.5,1.0,100,91.45
6468,B4,829.5,1.0,100,91.45
6469,E4,829.5,249/125,85,91.45
6470,G4,829.5,249/125,85,91.45
6471,G3,829.5,249/125,85,91.45
6472,C3,829.5,249/125,85,91.45
6473,D5,829.5,1.0,55,91.45
6474,B4,829.5,1.0,55,91.45
6475,A4,830.5,1.0,90,91.45
6476,D2,830.5,2.0,100,91.45
6477,F#2,830.5,0.25,100,91.45
6478,C4,830.5,249/125,100,91.45
6479,G4,830.5,249/125,100,91.45
6480,C5,830.5,249/125,100,91.45
6481,G4,830.5,249/125,55,91.45
6482,E4,830.5,249/125,55,91.45
6483,C4,830.5,249/125,55,91.45
6484,C5,830.5,249/125,55,91.45
6485,F#2,831.0,0.25,100,91.45
6486,F#2,831.25,0.25,100,91.45
6487,D5,831.5,3.0,90,91.45
6488,B-2,831.5,0.25,100,91.45
6489,D4,831.5,249/125,88,91.45
6490,G4,831.5,249/125,88,91.45
6491,B4,831.5,249/125,88,91.45
6492,C3,831.5,249/125,88,91.45
6493,C3,832.5,0.5,100,91.45
6494,G4,832.5,249/125,100,91.45
6495,C4,832.5,249/125,100,91.45
6496,C5,832.5,249/125,100,91.45
6497,G4,832.5,249/125,55,91.45
6498,C5,832.5,249/125,55,91.45
6499,E4,832.5,249/125,55,91.45
6500,E5,832.5,249/125,55,91.45
6501,E2,832.5,0.25,100,91.45
6502,F#2,832.5,0.25,100,91.45
6503,D3,833.0,1.5,100,91.45
6504,F#2,833.0,0.25,100,91.45
6505,F#2,833.25,0.25,100,91.45
6506,B-2,833.5,0.25,80,91.45
6507,D4,833.5,4.0,80,91.45
6508,F#4,833.5,4.0,80,91.45
6509,A4,833.5,4.0,80,91.45
6510,D3,833.5,4.0,80,91.45
6511,B-2,834.0,0.25,100,91.45
6512,F#4,834.5,1.5,100,91.45
6513,C5,834.5,3.0,90,91.45
6514,A2,834.5,4.0,100,91.45
6515,A4,834.5,4.0,55,91.45
6516,D4,834.5,4.0,55,91.45
6517,D5,834.5,4.0,55,91.45
6518,E4,834.5,4.0,69,91.45
6519,A3,834.5,4.0,69,91.45
6520,D4,834.5,4.0,69,91.45
6521,F#4,834.5,4.0,69,91.45
6522,B1,834.5,0.25,114,91.45
6523,C#3,834.5,0.25,114,91.45
6524,B-2,835.5,0.25,100,91.45
6525,G4,836.0,1.5,100,91.45
6526,E2,836.5,0.25,100,91.45
6527,F#2,836.5,0.25,100,91.45
6528,F#2,837.0,0.25,100,91.45
6529,A4,837.5,1.0,100,91.45
6530,B-2,837.5,0.25,100,91.45
6531,C5,837.517,983/1000,90,91.45
6532,A4,838.5,1.0,100,91.45
6533,A4,838.5,1.5,90,91.45
6534,A2,838.5,2.0,100,91.45
6535,F#2,838.5,0.25,100,91.45
6536,D4,838.5,1.0,80,91.45
6537,F#4,838.5,1.0,80,91.45
6538,A4,838.5,1.0,80,91.45
6539,D3,838.5,1.0,80,91.45
6540,C4,838.5,4.0,70,91.45
6541,A3,838.5,4.0,70,91.45
6542,E4,838.5,4.0,70,91.45
6543,F#2,839.0,0.25,100,91.45
6544,F#2,839.25,0.25,100,91.45
6545,D5,839.5,3.0,100,91.45
6546,B-2,839.5,0.25,100,91.45
6547,A4,839.5,1.0,55,91.45
6548,D4,839.5,1.0,55,91.45
6549,D5,839.5,1.0,55,91.45
6550,B4,840.0,0.25,90,91.45
6551,A4,840.25,0.25,90,91.45
6552,G4,840.5,2.0,90,91.45
6553,E2,840.5,2.0,100,91.45
6554,E2,840.5,0.25,100,91.45
6555,F#2,840.5,0.25,100,91.45
6556,F#2,841.0,0.25,100,91.45
6557,B-2,841.5,0.25,80,91.45
6558,B-2,842.0,0.25,100,91.45
6559,C5,842.5,3.0,110,91.45
6560,F#4,842.5,1.5,90,91.45
6561,D2,842.5,3.0,100,91.45
6562,B1,842.5,0.25,114,91.45
6563,C#3,842.5,0.25,114,91.45
6564,B-2,843.5,0.25,100,91.45
6565,G4,844.0,1.5,90,91.45
6566,E2,844.5,0.25,100,91.45
6567,F#2,844.5,0.25,100,91.45
6568,F#2,845.0,0.25,100,91.45
6569,A4,845.5,1.0,90,91.45
6570,D2,845.5,1.0,100,91.45
6571,B-2,845.5,0.25,100,91.45
6572,C5,845.517,983/1000,80,91.45
6573,A4,846.5,1.5,100,91.45
6574,D4,846.5,1.5,90,91.45
6575,B1,846.5,3.0,100,91.45
6576,F#2,846.5,0.25,100,91.45
6577,C4,846.5,4.0,70,91.45
6578,A3,846.5,4.0,70,91.45
6579,E4,846.5,4.0,70,91.45
6580,F#2,847.0,0.25,100,91.45
6581,F#2,847.25,0.25,100,91.45
6582,B-2,847.5,0.25,100,91.45
6583,B4,848.0,0.25,80,91.45
6584,E4,848.0,1.5,90,91.45
6585,A4,848.25,0.25,80,91.45
6586,G4,848.5,2.0,100,91.45
6587,E2,848.5,0.25,100,91.45
6588,F#2,848.5,0.25,100,91.45
6589,F#2,849.0,0.25,100,91.45
6590,F#4,849.5,1.0,90,91.45
6591,B1,849.5,1.0,100,91.45
6592,B-2,849.5,0.25,100,91.45
6593,B-2,850.0,0.25,100,91.45
6594,F#4,850.5,1.5,100,91.45
6595,E4,850.5,1.5,90,91.45
6596,C2,850.5,3.0,100,91.45
6597,F#4,850.5,4.0,70,91.45
6598,D4,850.5,4.0,70,91.45
6599,A3,850.5,4.0,70,91.45
6600,B1,850.5,0.25,114,91.45
6601,C#3,850.5,0.25,114,91.45
6602,B-2,851.5,0.25,100,91.45
6603,G4,852.0,1.5,100,91.45
6604,F#4,852.05,1/5,90,91.45
6605,E4,852.25,0.25,90,91.45
6606,D4,852.5,1.0,90,91.45
6607,E2,852.5,0.25,100,91.45
6608,F#2,852.5,0.25,100,91.45
6609,F#2,853.0,0.25,100,91.45
6610,F#2,853.25,0.25,100,91.45
6611,A4,853.5,1.0,100,91.45
6612,D4,853.5,1.0,90,91.45
6613,C2,853.5,1.0,100,91.45
6614,B-2,853.5,0.25,100,91.45
6615,D4,854.5,1.5,100,91.45
6616,D4,854.5,4.0,90,91.45
6617,C2,854.5,4.0,100,91.45
6618,F#2,854.5,0.25,100,91.45
6619,B3,854.5,4.0,67,91.45
6620,D4,854.5,4.0,67,91.45
6621,E4,854.5,4.0,67,91.45
6622,F#2,855.0,0.25,100,91.45
6623,B-2,855.5,0.25,100,91.45
6624,E4,856.0,1.5,100,91.45
6625,E2,856.5,0.25,100,91.45
6626,F#2,856.5,0.25,100,91.45
6627,D3,857.0,0.25,100,91.45
6628,D3,857.25,0.25,100,91.45
6629,F#4,857.5,1.0,100,91.45
6630,D3,857.5,0.25,100,91.45
6631,D3,858.0,0.25,100,91.45
6632,E4,858.5,1.5,100,91.45
6633,F#4,858.5,1.5,90,91.45
6634,D1,858.5,3.0,100,91.45
6635,G3,858.5,4.0,70,91.45
6636,E4,858.5,4.0,70,91.45
6637,C4,858.5,4.0,70,91.45
6638,B1,858.5,0.25,114,91.45
6639,C#3,858.5,0.25,114,91.45
6640,B-2,859.5,0.25,100,91.45
6641,G4,860.0,1.5,90,91.45
6642,F#4,860.05,1/5,80,91.45
6643,E4,860.25,0.25,80,91.45
6644,D4,860.5,1.0,100,91.45
6645,E2,860.5,0.25,100,91.45
6646,F#2,860.5,0.25,100,91.45
6647,F#2,861.0,0.25,100,91.45
6648,D4,861.5,1.0,100,91.45
6649,A4,861.5,1.0,90,91.45
6650,D2,861.5,1.0,100,91.45
6651,B-2,861.5,0.25,100,91.45
6652,D4,862.5,4.0,100,91.45
6653,A4,862.5,1.0,90,91.45
6654,D2,862.5,3.0,100,91.45
6655,F#2,862.5,0.25,100,91.45
6656,F#2,863.0,0.25,100,91.45
6657,F#2,863.25,0.25,100,91.45
6658,D5,863.5,3.0,90,91.45
6659,B-2,863.5,0.25,100,91.45
6660,E2,864.5,0.25,100,91.45
6661,F#2,864.5,0.25,100,91.45
6662,F#2,865.0,0.25,100,91.45
6663,F#2,865.25,0.25,100,91.45
6664,G2,865.5,0.5,100,91.45
6665,F#3,865.5,0.25,127,91.45
6666,G#2,866.0,0.5,100,91.45
6667,G3,866.0,0.25,100,91.45
6668,F#4,866.5,1.5,100,91.45
6669,D5,866.5,4.0,90,91.45
6670,A2,866.5,3.0,100,91.45
6671,G3,866.5,4.0,70,91.45
6672,E4,866.5,4.0,70,91.45
6673,C4,866.5,4.0,70,91.45
6674,B1,866.5,0.25,88,91.45
6675,C#3,866.5,0.25,88,91.45
6676,B-2,867.5,0.25,100,91.45
6677,G4,868.0,1.5,100,91.45
6678,E2,868.5,0.25,100,91.45
6679,F#2,868.5,0.25,100,91.45
6680,F#2,869.0,0.25,100,91.45
6681,A4,869.5,1.0,100,91.45
6682,A1,869.5,1.0,100,91.45
6683,B-2,869.5,0.25,100,91.45
6684,A4,870.5,1.0,100,91.45
6685,C5,870.5,167/1000,90,91.45
6686,A1,870.5,2.0,100,91.45
6687,A3,870.5,4.0,70,91.45
6688,D4,870.5,1.5,70,91.45
6689,F#2,870.5,0.25,100,91.45
6690,D5,870.667,167/1000,90,91.45
6691,C5,870.833,1667/1000,90,91.45
6692,F#2,871.0,0.25,100,91.45
6693,F#2,871.25,0.25,100,91.45
6694,D5,871.5,3.0,100,91.45
6695,B-2,871.5,0.25,100,91.45
6696,E4,872.0,1.5,70,91.45
6697,F#4,872.5,333/1000,90,91.45
6698,A1,872.5,2.0,100,91.45
6699,E2,872.5,0.25,100,91.45
6700,F#2,872.5,0.25,100,91.45
6701,G4,872.833,333/1000,90,91.45
6702,F#2,873.0,0.25,100,91.45
6703,A4,873.167,333/1000,90,91.45
6704,B4,873.5,333/1000,90,91.45
6705,B-2,873.5,0.25,100,91.45
6706,D4,873.5,1.0,75,91.45
6707,F#4,873.5,1.0,75,91.45
6708,A4,873.833,333/1000,90,91.45
6709,B-2,874.0,0.25,100,91.45
6710,G4,874.167,333/1000,90,91.45
6711,D5,874.5,4.0,110,91.45
6712,F#4,874.5,1.5,90,91.45
6713,D2,874.5,3.0,100,91.45
6714,B1,874.5,0.25,114,91.45
6715,C#3,874.5,0.25,114,91.45
6716,B-2,875.5,0.25,100,91.45
6717,G4,876.0,1.5,90,91.45
6718,E2,876.5,0.25,100,91.45
6719,F#2,876.5,0.25,100,91.45
6720,F#2,877.0,0.25,100,91.45
6721,A4,877.5,1.0,90,91.45
6722,D2,877.5,1.0,100,91.45
6723,B-2,877.5,0.25,100,91.45
6724,C5,878.5,167/1000,100,91.45
6725,D4,878.5,1.5,90,91.45
6726,B1,878.5,4.0,100,91.45
6727,A3,878.5,4.0,70,91.45
6728,D4,878.5,4.0,75,91.45
6729,F#4,878.5,4.0,75,91.45
6730,B1,878.5,0.25,100,91.45
6731,C#3,878.5,0.25,100,91.45
6732,D5,878.667,167/1000,77,91.45
6733,C5,878.833,1667/1000,100,91.45
6734,F#2,879.0,0.25,100,91.45
6735,B-2,879.5,0.25,100,91.45
6736,E4,880.0,1.5,90,91.45
6737,F#4,880.5,333/1000,100,91.45
6738,E2,880.5,0.25,100,91.45
6739,F#2,880.5,0.25,100,91.45
6740,G4,880.833,333/1000,100,91.45
6741,F#2,881.0,0.25,100,91.45
6742,A4,881.167,333/1000,100,91.45
6743,F#2,881.25,0.25,100,91.45
6744,B4,881.5,333/1000,100,91.45
6745,F#4,881.5,1.0,90,91.45
6746,B-2,881.5,0.25,100,91.45
6747,A4,881.833,333/1000,100,91.45
6748,B-2,882.0,0.25,100,91.45
6749,G4,882.167,333/1000,100,91.45
6750,F#4,882.5,1.5,100,91.45
6751,G4,882.5,2.75,90,91.45
6752,C2,882.5,3.0,100,91.45
6753,C4,882.5,4.0,70,91.45
6754,A3,882.5,4.0,70,91.45
6755,E4,882.5,4.0,70,91.45
6756,B1,882.5,0.25,100,91.45
6757,A3,882.5,0.25,100,91.45
6758,F#2,883.0,0.25,100,91.45
6759,B-2,883.5,0.25,100,91.45
6760,G4,884.0,1.5,100,91.45
6761,E2,884.5,0.25,100,91.45
6762,F#2,885.0,0.25,70,91.45
6763,G4,885.25,0.25,90,91.45
6764,F#2,885.25,0.25,70,91.45
6765,A4,885.5,1.0,100,91.45
6766,F#4,885.5,1.0,90,91.45
6767,C2,885.5,1.0,100,91.45
6768,B-2,885.5,0.25,100,91.45
6769,B-2,886.0,0.25,100,91.45
6770,D4,886.5,1.5,100,91.45
6771,D4,886.5,4.0,90,91.45
6772,C2,886.5,0.5,100,91.45
6773,F#2,886.5,0.25,100,91.45
6774,F#2,886.75,0.25,90,91.45
6775,C2,887.0,3.5,100,91.45
6776,F#2,887.0,0.25,83,91.45
6777,F#2,887.25,0.25,75,91.45
6778,B-2,887.5,0.25,100,91.45
6779,E4,888.0,1.5,100,91.45
6780,E2,888.5,0.25,100,91.45
6781,E2,889.0,0.25,65,91.45
6782,F#4,889.5,1.0,100,91.45
6783,E2,889.5,0.25,100,91.45
6784,E2,890.0,0.25,100,91.45
6785,G4,890.5,2.75,100,91.45
6786,G1,890.5,5.0,75,91.45
6787,C4,890.5,4.0,70,91.45
6788,A3,890.5,4.0,70,91.45
6789,E4,890.5,4.0,70,91.45
6790,B1,890.5,0.25,100,91.45
6791,C#3,890.5,0.25,100,91.45
6792,E3,891.5,0.25,100,91.45
6793,E2,892.5,0.25,100,91.45
6794,E-3,892.5,0.25,100,91.45
6795,G4,893.25,0.25,90,91.45
6796,F#4,893.5,1.0,100,91.45
6797,E3,893.5,0.25,100,91.45
6798,D4,894.5,4.0,100,91.45
6799,E-3,894.5,0.25,100,91.45
6800,A3,894.5,4.0,70,91.45
6801,F#4,894.5,4.0,70,91.45
6802,D4,894.5,4.0,70,91.45
6803,A1,895.5,2.0,75,91.45
6804,B1,895.5,0.25,100,91.45
6805,E3,895.5,0.25,100,91.45
6806,G5,896.0,0.5,70,91.45
6807,F#5,896.5,0.5,70,91.45
6808,E2,896.5,0.25,100,91.45
6809,E-3,896.5,0.25,100,91.45
6810,A5,897.0,0.5,70,91.45
6811,B1,897.5,5.0,75,91.45
6812,G5,897.5,0.5,70,91.45
6813,B1,897.5,0.25,100,91.45
6814,C#3,897.5,0.25,100,91.45
6815,D5,898.0,0.5,70,91.45
6816,C5,898.5,0.25,70,91.45
6817,E3,898.5,0.25,100,91.45
6818,D4,898.5,5.0,75,91.45
6819,G4,898.5,5.0,75,91.45
6820,E4,898.5,4.0,70,91.45
6821,B3,898.5,4.0,70,91.45
6822,D4,898.5,4.0,70,91.45
6823,D5,898.75,0.25,70,91.45
6824,G5,899.0,0.5,127,91.45
6825,E5,899.0,0.5,70,91.45
6826,B1,899.0,0.25,100,91.45
6827,F#5,899.5,0.5,127,91.45
6828,D5,899.5,0.5,70,91.45
6829,E2,899.5,0.25,100,91.45
6830,E-3,899.5,0.25,100,91.45
6831,A5,900.0,0.5,127,91.45
6832,A4,900.0,0.5,70,91.45
6833,G5,900.0,0.5,100,91.45
6834,G5,900.5,0.5,127,91.45
6835,G4,900.5,1.0,70,91.45
6836,F#5,900.5,0.5,100,91.45
6837,E3,900.5,0.25,100,91.45
6838,D5,901.0,0.5,127,91.45
6839,D5,901.0,0.5,70,91.45
6840,A5,901.0,0.5,100,91.45
6841,C5,901.5,0.25,127,91.45
6842,G5,901.5,0.5,100,91.45
6843,E-3,901.5,0.25,100,91.45
6844,D5,901.75,0.25,127,91.45
6845,E5,902.0,0.5,127,91.45
6846,C5,902.0,0.5,70,91.45
6847,D5,902.0,0.5,100,91.45
6848,E2,902.5,2.0,75,91.45
6849,D5,902.5,0.5,127,91.45
6850,B4,902.5,0.5,70,91.45
6851,C5,902.5,0.25,100,91.45
6852,E4,902.5,4.0,70,91.45
6853,G3,902.5,4.0,70,91.45
6854,C4,902.5,4.0,70,91.45
6855,B1,902.5,0.25,100,91.45
6856,E3,902.5,0.25,100,91.45
6857,D5,902.75,0.25,100,91.45
6858,A4,903.0,0.5,127,91.45
6859,C5,903.0,0.5,70,91.45
6860,E5,903.0,0.5,100,91.45
6861,G4,903.5,1.0,127,91.45
6862,B4,903.5,0.5,70,91.45
6863,D5,903.5,0.5,100,91.45
6864,D4,903.5,2.0,75,91.45
6865,G4,903.5,2.0,75,91.45
6866,E2,903.5,0.25,100,91.45
6867,E-3,903.5,0.25,100,91.45
6868,D5,904.0,0.5,127,91.45
6869,G4,904.0,0.5,70,91.45
6870,A4,904.0,0.5,100,91.45
6871,C2,904.5,5.0,75,91.45
6872,D4,904.5,0.5,70,91.45
6873,G4,904.5,1.0,100,91.45
6874,B1,904.5,0.25,100,91.45
6875,C#3,904.5,0.25,100,91.45
6876,C5,905.0,0.5,127,91.45
6877,G4,905.0,0.5,70,91.45
6878,D5,905.0,0.5,100,91.45
6879,B4,905.5,0.5,127,91.45
6880,A4,905.5,1.0,70,91.45
6881,E3,905.5,0.25,100,91.45
6882,D4,905.5,5.0,75,91.45
6883,G4,905.5,5.0,75,91.45
6884,C5,906.0,0.5,127,91.45
6885,C5,906.0,0.5,100,91.45
6886,B1,906.0,0.25,100,91.45
6887,B4,906.5,0.5,127,91.45
6888,G4,906.5,1.0,70,91.45
6889,B4,906.5,0.5,100,91.45
6890,E2,906.5,0.25,100,91.45
6891,E-3,906.5,0.25,100,91.45
6892,G4,907.0,0.5,127,91.45
6893,C5,907.0,0.5,100,91.45
6894,D4,907.5,0.5,127,91.45
6895,B4,907.5,0.5,100,91.45
6896,E3,907.5,0.25,100,91.45
6897,G4,908.0,0.5,127,91.45
6898,A4,908.0,0.25,70,91.45
6899,G4,908.0,0.5,100,91.45
6900,G4,908.25,0.25,70,91.45
6901,A4,908.5,1.0,127,91.45
6902,A4,908.5,0.25,70,91.45
6903,D4,908.5,0.5,100,91.45
6904,E-3,908.5,0.25,100,91.45
6905,G4,908.75,0.25,70,91.45
6906,E4,909.0,0.25,70,91.45
6907,G4,909.0,0.5,100,91.45
6908,D4,909.25,0.25,70,91.45
6909,B1,909.5,2.0,75,91.45
6910,G4,909.5,1.0,127,91.45
6911,G4,909.5,0.25,70,91.45
6912,A4,909.5,1.0,100,91.45
6913,B1,909.5,0.25,100,91.45
6914,E3,909.5,0.25,100,91.45
6915,E4,909.75,0.25,70,91.45
6916,D4,910.0,0.25,70,91.45
6917,B3,910.25,0.25,70,91.45
6918,A3,910.5,0.25,70,91.45
6919,G4,910.5,1.0,100,91.45
6920,D4,910.5,2.0,75,91.45
6921,G4,910.5,2.0,75,91.45
6922,E4,910.5,4.0,70,91.45
6923,G3,910.5,4.0,70,91.45
6924,C4,910.5,4.0,70,91.45
6925,E2,910.5,0.25,100,91.45
6926,E-3,910.5,0.25,100,91.45
6927,A4,911.0,0.25,127,91.45
6928,B3,911.0,0.25,70,91.45
6929,G4,911.25,0.25,127,91.45
6930,A1,911.5,4.0,75,91.45
6931,A4,911.5,0.25,127,91.45
6932,G3,911.5,1.0,70,91.45
6933,B1,911.5,0.25,100,91.45
6934,C#3,911.5,0.25,100,91.45
6935,G4,911.75,0.25,127,91.45
6936,E4,912.0,0.25,127,91.45
6937,A4,912.0,0.25,100,91.45
6938,D4,912.25,0.25,127,91.45
6939,G4,912.25,0.25,100,91.45
6940,G4,912.5,0.25,127,91.45
6941,A4,912.5,0.25,100,91.45
6942,E3,912.5,0.25,100,91.45
6943,D4,912.5,5.0,75,91.45
6944,G4,912.5,5.0,75,91.45
6945,E4,912.75,0.25,127,91.45
6946,G4,912.75,0.25,100,91.45
6947,D4,913.0,0.25,127,91.45
6948,E4,913.0,0.25,100,91.45
6949,B1,913.0,0.25,100,91.45
6950,B3,913.25,0.25,127,91.45
6951,D4,913.25,0.25,100,91.45
6952,A3,913.5,0.25,127,91.45
6953,G3,913.5,0.25,70,91.45
6954,G4,913.5,0.25,100,91.45
6955,E2,913.5,0.25,100,91.45
6956,E-3,913.5,0.25,100,91.45
6957,D4,913.75,0.25,70,91.45
6958,E4,913.75,0.25,100,91.45
6959,B3,914.0,0.25,127,91.45
6960,G4,914.0,0.25,70,91.45
6961,D4,914.0,0.25,100,91.45
6962,A4,914.25,0.25,70,91.45
6963,B3,914.25,0.25,100,91.45
6964,G3,914.5,1.0,127,91.45
6965,D5,914.5,0.25,70,91.45
6966,A3,914.5,0.25,100,91.45
6967,E3,914.5,0.25,100,91.45
6968,A4,914.75,0.25,70,91.45
6969,G4,915.0,0.25,70,91.45
6970,B3,915.0,0.25,100,91.45
6971,D4,915.25,0.25,70,91.45
6972,F1,915.5,3.0,75,91.45
6973,A3,915.5,0.25,70,91.45
6974,G3,915.5,1.0,100,91.45
6975,E-3,915.5,0.25,100,91.45
6976,G3,915.75,0.25,70,91.45
6977,A2,916.0,0.25,70,91.45
6978,E2,916.0,0.25,100,91.45
6979,G2,916.25,0.25,70,91.45
6980,G3,916.5,0.25,127,91.45
6981,G4,916.5,0.25,70,91.45
6982,E3,916.5,0.25,100,91.45
6983,D4,916.75,0.25,127,91.45
6984,A4,916.75,0.25,70,91.45
6985,G4,917.0,0.25,127,91.45
6986,D5,917.0,0.25,70,91.45
6987,B1,917.0,0.25,100,91.45
6988,A4,917.25,0.25,127,91.45
6989,G5,917.25,0.25,70,91.45
6990,D5,917.5,0.25,127,91.45
6991,E5,917.5,1.5,70,91.45
6992,G3,917.5,0.25,100,91.45
6993,D4,917.5,2.0,75,91.45
6994,G4,917.5,2.0,75,91.45
6995,E2,917.5,0.25,100,91.45
6996,E-3,917.5,0.25,100,91.45
6997,A4,917.75,0.25,127,91.45
6998,D4,917.75,0.25,100,91.45
6999,G4,918.0,0.25,127,91.45
7000,G4,918.0,0.25,100,91.45
7001,D4,918.25,0.25,127,91.45
7002,A4,918.25,0.25,100,91.45
7003,A3,918.5,0.25,127,91.45
7004,D5,918.5,0.25,100,91.45
7005,E3,918.5,0.25,100,91.45
7006,F1,918.517,983/1000,75,91.45
7007,G3,918.75,0.25,127,91.45
7008,A4,918.75,0.25,100,91.45
7009,A2,919.0,0.25,70,91.45
7010,D5,919.0,1.0,70,91.45
7011,G4,919.0,0.25,100,91.45
7012,G2,919.25,0.25,70,91.45
7013,D4,919.25,0.25,100,91.45
7014,G1,919.5,7.0,85,91.45
7015,G4,919.5,0.25,127,91.45
7016,A3,919.5,0.25,100,91.45
7017,D4,919.5,4.0,75,91.45
7018,G4,919.5,4.0,75,91.45
7019,B1,919.5,0.25,100,91.45
7020,C#3,919.5,0.25,100,91.45
7021,A4,919.75,0.25,127,91.45
7022,G3,919.75,0.25,100,91.45
7023,D5,920.0,0.25,127,91.45
7024,E5,920.0,0.25,70,91.45
7025,A2,920.0,0.25,100,91.45
7026,G5,920.25,0.25,127,91.45
7027,D5,920.25,0.25,70,91.45
7028,G2,920.25,0.25,100,91.45
7029,E5,920.5,1.5,127,91.45
7030,E5,920.5,0.25,70,91.45
7031,G4,920.5,0.25,100,91.45
7032,E3,920.5,0.25,100,91.45
7033,D5,920.75,0.25,70,91.45
7034,A4,920.75,0.25,100,91.45
7035,C5,921.0,0.25,70,91.45
7036,D5,921.0,0.25,100,91.45
7037,B1,921.0,0.25,100,91.45
7038,B4,921.25,0.25,70,91.45
7039,G5,921.25,0.25,100,91.45
7040,D5,921.5,0.25,70,91.45
7041,E5,921.5,1.5,100,91.45
7042,E2,921.5,0.25,100,91.45
7043,E-3,921.5,0.25,100,91.45
7044,C5,921.75,0.25,70,91.45
7045,D5,922.0,1.0,127,91.45
7046,B4,922.0,0.25,70,91.45
7047,A4,922.25,0.25,70,91.45
7048,C5,922.5,0.25,70,91.45
7049,E3,922.5,0.25,100,91.45
7050,B4,922.75,0.25,70,91.45
7051,E5,923.0,0.25,127,91.45
7052,A4,923.0,0.25,70,91.45
7053,D5,923.0,1.0,100,91.45
7054,D5,923.25,0.25,127,91.45
7055,G4,923.25,0.25,70,91.45
7056,F4,923.5,2.0,75,91.45
7057,E5,923.5,0.25,127,91.45
7058,B4,923.5,0.25,70,91.45
7059,E-3,923.5,0.25,100,91.45
7060,D5,923.75,0.25,127,91.45
7061,A4,923.75,0.25,70,91.45
7062,C5,924.0,0.25,127,91.45
7063,G4,924.0,0.25,70,91.45
7064,E5,924.0,0.25,100,91.45
7065,B4,924.25,0.25,127,91.45
7066,E4,924.25,0.25,70,91.45
7067,D5,924.25,0.25,100,91.45
7068,D5,924.5,0.25,127,91.45
7069,E5,924.5,0.25,100,91.45
7070,B1,924.5,0.25,100,91.45
7071,E3,924.5,0.25,100,91.45
7072,C5,924.75,0.25,127,91.45
7073,D5,924.75,0.25,100,91.45
7074,B4,925.0,0.25,127,91.45
7075,C5,925.0,0.25,100,91.45
7076,A4,925.25,0.25,127,91.45
7077,B4,925.25,0.25,100,91.45
7078,C5,925.5,0.25,127,91.45
7079,D5,925.5,0.25,100,91.45
7080,E-4,925.5,2.0,70,91.45
7081,G4,925.5,2.0,70,91.45
7082,D5,925.5,0.5,70,91.45
7083,G5,925.5,0.5,70,91.45
7084,E2,925.5,0.25,100,91.45
7085,E-3,925.5,0.25,100,91.45
7086,B4,925.75,0.25,127,91.45
7087,C5,925.75,0.25,100,91.45
7088,A4,926.0,0.25,127,91.45
7089,B4,926.0,0.25,100,91.45
7090,G4,926.25,0.25,127,91.45
7091,A4,926.25,0.25,100,91.45
7092,B1,926.5,5.0,75,91.45
7093,B4,926.5,0.25,127,91.45
7094,C5,926.5,0.25,100,91.45
7095,D5,926.5,1.0,70,91.45
7096,G5,926.5,1.0,70,91.45
7097,B1,926.5,0.25,100,91.45
7098,C#3,926.5,0.25,100,91.45
7099,A4,926.75,0.25,127,91.45
7100,B4,926.75,0.25,100,91.45
7101,G4,927.0,0.25,127,91.45
7102,A4,927.0,0.25,100,91.45
7103,E4,927.25,0.25,127,91.45
7104,G4,927.25,0.25,100,91.45
7105,B4,927.5,0.25,100,91.45
7106,E3,927.5,0.25,100,91.45
7107,D4,927.5,5.0,75,91.45
7108,G4,927.5,5.0,75,91.45
7109,D5,927.5,0.5,70,91.45
7110,A4,927.5,0.5,70,91.45
7111,A4,927.75,0.25,100,91.45
7112,G4,928.0,0.25,100,91.45
7113,B1,928.0,0.25,100,91.45
7114,E4,928.25,0.25,100,91.45
7115,D5,928.5,0.5,127,91.45
7116,G5,928.5,0.5,127,91.45
7117,D5,928.5,1.0,70,91.45
7118,A4,928.5,1.0,70,91.45
7119,E2,928.5,0.25,100,91.45
7120,E-3,928.5,0.25,100,91.45
7121,B4,929.5,0.5,70,91.45
7122,E3,929.5,0.25,100,91.45
7123,D5,929.5,1.0,127,91.45
7124,G5,929.5,1.0,127,91.45
7125,D5,929.5,0.5,100,91.45
7126,G5,929.5,0.5,100,91.45
7127,B4,930.5,1.0,70,91.45
7128,E-3,930.5,0.25,100,91.45
7129,D5,930.5,0.5,127,91.45
7130,A4,930.5,0.5,127,91.45
7131,D5,930.5,1.0,100,91.45
7132,G5,930.5,1.0,100,91.45
7133,E2,931.5,2.0,75,91.45
7134,E3,931.5,0.25,100,91.45
7135,D5,931.5,1.0,127,91.45
7136,A4,931.5,1.0,127,91.45
7137,D5,931.5,0.5,100,91.45
7138,A4,931.5,0.5,100,91.45
7139,G5,932.0,0.5,70,91.45
7140,B4,932.5,0.5,127,91.45
7141,F#5,932.5,0.5,70,91.45
7142,D4,932.5,2.0,75,91.45
7143,G4,932.5,2.0,75,91.45
7144,D5,932.5,1.0,100,91.45
7145,A4,932.5,1.0,100,91.45
7146,E2,932.5,0.25,100,91.45
7147,E-3,932.5,0.25,100,91.45
7148,A5,933.0,0.5,70,91.45
7149,F2,933.5,5.0,75,91.45
7150,B4,933.5,1.0,127,91.45
7151,G5,933.5,0.5,70,91.45
7152,A4,933.5,0.5,100,91.45
7153,B1,933.5,0.25,100,91.45
7154,C#3,933.5,0.25,100,91.45
7155,D5,934.0,0.5,70,91.45
7156,D5,934.5,0.5,70,91.45
7157,A4,934.5,1.0,100,91.45
7158,E3,934.5,0.25,100,91.45
7159,D4,934.5,5.0,75,91.45
7160,G4,934.5,5.0,75,91.45
7161,G5,935.0,0.5,127,91.45
7162,C5,935.0,0.25,70,91.45
7163,B1,935.0,0.25,100,91.45
7164,D5,935.25,0.25,70,91.45
7165,F#5,935.5,0.5,127,91.45
7166,E5,935.5,0.5,70,91.45
7167,E2,935.5,0.25,100,91.45
7168,E-3,935.5,0.25,100,91.45
7169,A5,936.0,0.5,127,91.45
7170,D5,936.0,0.5,70,91.45
7171,G5,936.0,0.5,100,91.45
7172,G5,936.5,0.5,127,91.45
7173,F#5,936.5,0.5,100,91.45
7174,E3,936.5,0.25,100,91.45
7175,D5,937.0,0.5,127,91.45
7176,G4,937.0,0.25,70,91.45
7177,A5,937.0,0.5,100,91.45
7178,A4,937.25,0.25,70,91.45
7179,D5,937.5,0.5,127,91.45
7180,B4,937.5,0.25,70,91.45
7181,G5,937.5,0.5,100,91.45
7182,E-3,937.5,0.25,100,91.45
7183,D5,937.75,0.25,70,91.45
7184,C5,938.0,0.25,127,91.45
7185,G5,938.0,0.25,70,91.45
7186,D5,938.0,0.5,100,91.45
7187,D5,938.25,0.25,127,91.45
7188,B5,938.25,0.25,70,91.45
7189,E2,938.5,2.0,75,91.45
7190,E5,938.5,0.5,127,91.45
7191,D5,938.5,0.5,100,91.45
7192,G5,938.5,2.0,70,91.45
7193,C6,938.5,2.0,70,91.45
7194,B1,938.5,0.25,100,91.45
7195,E3,938.5,0.25,100,91.45
7196,D5,939.0,0.5,127,91.45
7197,C5,939.0,0.25,100,91.45
7198,D5,939.25,0.25,100,91.45
7199,E5,939.5,0.5,100,91.45
7200,D4,939.5,2.0,75,91.45
7201,G4,939.5,2.0,75,91.45
7202,E2,939.5,0.25,100,91.45
7203,E-3,939.5,0.25,100,91.45
7204,G4,940.0,0.25,127,91.45
7205,D5,940.0,0.5,100,91.45
7206,A4,940.25,0.25,127,91.45
7207,D2,940.5,4.0,75,91.45
7208,B4,940.5,0.25,127,91.45
7209,G5,940.5,1.0,70,91.45
7210,C6,940.5,1.0,70,91.45
7211,B1,940.5,0.25,100,91.45
7212,C#3,940.5,0.25,100,91.45
7213,D5,940.75,0.25,127,91.45
7214,G5,941.0,0.25,127,91.45
7215,G4,941.0,0.25,100,91.45
7216,B5,941.25,0.25,127,91.45
7217,A4,941.25,0.25,100,91.45
7218,B4,941.5,0.25,100,91.45
7219,E3,941.5,0.25,100,91.45
7220,D4,941.5,5.0,75,91.45
7221,G4,941.5,5.0,75,91.45
7222,G5,941.5,2.0,127,91.45
7223,C6,941.5,2.0,127,91.45
7224,D5,941.75,0.25,100,91.45
7225,F4,942.0,0.25,70,91.45
7226,G5,942.0,0.25,100,91.45
7227,B1,942.0,0.25,100,91.45
7228,C4,942.25,0.25,70,91.45
7229,B5,942.25,0.25,100,91.45
7230,C5,942.5,0.25,70,91.45
7231,G5,942.5,2.0,100,91.45
7232,C6,942.5,2.0,100,91.45
7233,E2,942.5,0.25,100,91.45
7234,E-3,942.5,0.25,100,91.45
7235,G4,942.75,0.25,70,91.45
7236,D5,943.0,0.25,70,91.45
7237,D4,943.25,0.25,70,91.45
7238,E4,943.5,0.5,70,91.45
7239,E3,943.5,0.25,100,91.45
7240,G5,943.5,1.0,127,91.45
7241,C6,943.5,1.0,127,91.45
7242,C5,944.0,0.5,70,91.45
7243,D1,944.5,2.0,75,91.45
7244,D5,944.5,0.5,70,91.45
7245,E-3,944.5,0.25,100,91.45
7246,G5,944.5,1.0,100,91.45
7247,C6,944.5,1.0,100,91.45
7248,F4,945.0,0.25,127,91.45
7249,E4,945.0,0.5,70,91.45
7250,E2,945.0,0.25,100,91.45
7251,C5,945.5,0.25,127,91.45
7252,E3,945.5,0.25,100,91.45
7253,D5,946.0,0.25,127,91.45
7254,B1,946.0,0.25,100,91.45
7255,C4,946.25,0.25,100,91.45
7256,E2,946.417,0.25,100,91.45
7257,D1,946.5,2.0,75,91.45
7258,E2,946.5,0.25,100,91.45
7259,D4,946.5,2.0,75,91.45
7260,G4,946.5,2.0,75,91.45
7261,G4,946.75,0.25,100,91.45
7262,C5,947.0,0.5,127,91.45
7263,B1,947.0,0.25,100,91.45
7264,D4,947.25,0.25,100,91.45
7265,D5,947.5,0.5,127,91.45
7266,E4,947.5,0.5,100,91.45
7267,E2,947.5,0.25,100,91.45
7268,E2,948.0,0.25,100,91.45
7269,G#5,948.5,1.5,100,91.45
7270,E1,948.5,3.0,100,91.45
7271,D4,948.5,4.0,75,91.45
7272,G4,948.5,4.0,75,91.45
7273,C4,948.5,1.5,127,91.45
7274,E4,948.5,1.5,127,91.45
7275,G4,948.5,1.5,127,91.45
7276,B1,948.5,0.25,100,91.45
7277,C#3,948.5,0.25,100,91.45
7278,E4,949.0,0.5,100,91.45
7279,B-2,949.5,0.25,100,91.45
7280,C4,949.5,1.5,80,91.45
7281,E4,949.5,1.5,80,91.45
7282,G4,949.5,1.5,80,91.45
7283,B5,950.0,1.5,100,91.45
7284,G4,950.0,1.5,127,91.45
7285,B1,950.0,0.25,100,91.45
7286,C4,950.0,0.5,127,91.45
7287,E4,950.0,0.5,127,91.45
7288,C4,950.5,0.5,127,91.45
7289,E4,950.5,0.5,127,91.45
7290,E2,950.5,0.25,100,91.45
7291,B-2,950.5,0.25,100,91.45
7292,B4,951.0,0.5,127,91.45
7293,G4,951.0,0.5,127,91.45
7294,E5,951.0,0.5,127,91.45
7295,C4,951.0,0.5,80,91.45
7296,E4,951.0,0.5,80,91.45
7297,E6,951.5,1.0,127,91.45
7298,E1,951.5,1.0,100,91.45
7299,A4,951.5,1.0,127,91.45
7300,D4,951.5,1.0,127,91.45
7301,F#4,951.5,1.0,127,91.45
7302,D5,951.5,1.0,127,91.45
7303,C4,951.5,0.5,80,91.45
7304,E4,951.5,0.5,80,91.45
7305,B1,951.5,0.25,100,91.45
7306,B-2,951.5,0.25,100,91.45
7307,G4,952.0,0.5,80,91.45
7308,E5,952.0,0.5,80,91.45
7309,E6,952.5,3.625,127,91.45
7310,E1,952.5,3.0,100,91.45
7311,B-2,952.5,0.25,100,91.45
7312,D4,952.5,1.0,80,91.45
7313,F#4,952.5,1.0,80,91.45
7314,D5,952.5,1.0,80,91.45
7315,B1,953.0,0.25,100,91.45
7316,A4,953.5,1.0,127,91.45
7317,D4,953.5,1.0,127,91.45
7318,F#4,953.5,1.0,127,91.45
7319,D5,953.5,1.0,127,91.45
7320,E3,953.5,1.5,90,91.45
7321,G#3,953.5,1.5,90,91.45
7322,E4,953.5,1.5,90,91.45
7323,G#4,953.5,1.5,90,91.45
7324,B1,953.5,0.25,100,91.45
7325,B-2,953.5,0.25,100,91.45
7326,D4,954.5,1.0,80,91.45
7327,F#4,954.5,1.0,80,91.45
7328,D5,954.5,1.0,80,91.45
7329,E2,954.5,0.25,100,91.45
7330,B-2,954.5,0.25,100,91.45
7331,B1,955.0,0.25,100,91.45
7332,G5,955.0,1.5,127,91.45
7333,E4,955.0,1.5,127,91.45
7334,G4,955.0,1.5,127,91.45
7335,G#3,955.0,1.5,90,91.45
7336,B3,955.0,1.5,90,91.45
7337,G#4,955.0,1.5,90,91.45
7338,B4,955.0,1.5,90,91.45
7339,A1,955.5,0.5,80,91.45
7340,B1,955.5,0.25,100,91.45
7341,B-2,955.5,0.25,100,91.45
7342,B-1,956.0,0.5,90,91.45
7343,E4,956.0,1.5,80,91.45
7344,G4,956.0,1.5,80,91.45
7345,F#5,956.5,1.5,100,91.45
7346,B1,956.5,3.0,100,91.45
7347,D4,956.5,4.0,75,91.45
7348,G4,956.5,4.0,75,91.45
7349,A5,956.5,1.0,127,91.45
7350,A4,956.5,1.0,127,91.45
7351,F#4,956.5,1.0,127,91.45
7352,B3,956.5,1.0,90,91.45
7353,E4,956.5,1.0,90,91.45
7354,B4,956.5,1.0,90,91.45
7355,E5,956.5,1.0,90,91.45
7356,B1,956.5,0.25,100,91.45
7357,C#3,956.5,0.25,100,91.45
7358,B-2,957.5,0.25,100,91.45
7359,A4,957.5,1.0,80,91.45
7360,F#4,957.5,1.0,80,91.45
7361,B5,958.0,1.5,100,91.45
7362,B1,958.0,0.25,100,91.45
7363,E2,958.5,0.25,100,91.45
7364,B-2,958.5,0.25,100,91.45
7365,D6,959.5,1.0,100,91.45
7366,B1,959.5,1.0,100,91.45
7367,B1,959.5,0.25,100,91.45
7368,B-2,959.5,0.25,100,91.45
7369,D6,960.5,1.0,100,91.45
7370,B1,960.5,1.0,100,91.45
7371,B-2,960.5,0.25,100,91.45
7372,B1,961.0,0.25,100,91.45
7373,C#6,961.5,1.5,100,91.45
7374,B1,961.5,1.0,80,91.45
7375,B3,961.5,4.0,90,91.45
7376,E4,961.5,4.0,90,91.45
7377,B4,961.5,4.0,90,91.45
7378,E5,961.5,4.0,90,91.45
7379,B1,961.5,0.25,100,91.45
7380,B-2,961.5,0.25,100,91.45
7381,B1,962.5,0.5,70,91.45
7382,E2,962.5,0.25,100,91.45
7383,B-2,962.5,0.25,100,91.45
7384,B5,963.0,1.5,100,91.45
7385,B1,963.0,0.5,70,91.45
7386,B1,963.5,0.5,70,91.45
7387,B1,963.5,0.25,100,91.45
7388,B-2,963.5,0.25,100,91.45
7389,B1,964.0,0.5,70,91.45
7390,G#5,964.5,1.5,100,91.45
7391,E1,964.5,1.5,100,91.45
7392,B1,964.5,0.25,100,91.45
7393,A3,964.5,0.25,100,91.45
7394,B-2,965.5,0.25,100,91.45
7395,F#3,965.5,1.5,90,91.45
7396,D4,965.5,1.5,90,91.45
7397,F#4,965.5,1.5,90,91.45
7398,B3,965.5,1.5,90,91.45
7399,A5,966.0,1.5,100,91.45
7400,E1,966.0,1.5,100,91.45
7401,B1,966.0,0.25,100,91.45
7402,E2,966.5,0.25,100,91.45
7403,B-2,966.5,0.25,100,91.45
7404,B3,967.0,1.5,90,91.45
7405,F#4,967.0,1.5,90,91.45
7406,B4,967.0,1.5,90,91.45
7407,D4,967.0,1.5,90,91.45
7408,B5,967.5,1.0,100,91.45
7409,E1,967.5,1.0,100,91.45
7410,B1,967.5,0.25,100,91.45
7411,C#3,967.5,0.25,100,91.45
7412,C6,968.5,1.5,100,91.45
7413,A1,968.5,1.5,100,91.45
7414,F#4,968.5,1.0,90,91.45
7415,B4,968.5,1.0,90,91.45
7416,D5,968.5,1.0,90,91.45
7417,D4,968.5,1.0,90,91.45
7418,B1,968.5,0.25,100,91.45
7419,A3,968.5,0.25,100,91.45
7420,B-2,969.5,0.25,100,91.45
7421,D6,970.0,1.0,127,91.45
7422,A1,970.0,1.5,100,91.45
7423,B1,970.0,0.25,100,91.45
7424,E2,970.5,0.25,100,91.45
7425,B-2,970.5,0.25,100,91.45
7426,E6,971.0,1.5,107,91.45
7427,A1,971.5,1.0,100,91.45
7428,C#3,971.5,0.25,100,91.45
7429,B1,971.5,0.25,100,91.45
7430,G5,972.5,0.25,90,91.45
7431,D2,972.5,0.5,80,91.45
7432,B4,972.5,4.0,60,91.45
7433,G#4,972.5,4.0,60,91.45
7434,E4,972.5,4.0,60,91.45
7435,B1,972.5,0.25,100,91.45
7436,A3,972.5,0.25,100,91.45
7437,A5,972.75,1.25,100,91.45
7438,D2,973.0,0.5,80,91.45
7439,D2,973.5,0.5,80,91.45
7440,B-2,973.5,0.25,100,91.45
7441,F#4,973.5,4.0,90,91.45
7442,B4,973.5,4.0,90,91.45
7443,D5,973.5,4.0,90,91.45
7444,D4,973.5,4.0,90,91.45
7445,G5,974.0,1.0,100,91.45
7446,D2,974.0,0.5,80,91.45
7447,B1,974.0,0.25,100,91.45
7448,E2,974.5,0.25,100,91.45
7449,B-2,974.5,0.25,100,91.45
7450,A5,975.0,0.25,90,91.45
7451,G5,975.25,0.25,90,91.45
7452,F#5,975.5,1.0,100,91.45
7453,D2,975.5,1.0,80,91.45
7454,B1,975.5,0.25,100,91.45
7455,B-2,975.5,0.25,100,91.45
7456,D5,976.5,3.5,100,91.45
7457,D2,976.5,3.0,80,91.45
7458,B-2,976.5,0.25,100,91.45
7459,B1,976.5,0.25,100,91.45
7460,D3,977.0,0.5,80,91.45
7461,E2,977.0,0.25,80,91.45
7462,E2,977.25,0.25,90,91.45
7463,A3,977.5,0.5,80,91.45
7464,E2,977.5,0.25,100,91.45
7465,G#3,977.5,1.5,90,91.45
7466,G#5,977.5,1.5,90,91.45
7467,E4,977.5,1.5,90,91.45
7468,G#4,977.5,1.5,90,91.45
7469,D3,978.0,0.5,80,91.45
7470,E2,978.0,0.25,100,91.45
7471,A3,978.5,0.5,80,91.45
7472,B1,978.5,0.25,100,91.45
7473,C#3,978.5,0.25,100,91.45
7474,D3,979.0,0.5,80,91.45
7475,B1,979.0,0.25,80,91.45
7476,A3,979.0,1.5,90,91.45
7477,A5,979.0,1.5,90,91.45
7478,E4,979.0,1.5,90,91.45
7479,A4,979.0,1.5,90,91.45
7480,D2,979.5,1.0,80,91.45
7481,A3,979.5,0.25,100,91.45
7482,B1,979.5,0.25,100,91.45
7483,B4,980.5,0.5,100,91.45
7484,E2,980.5,1.5,100,91.45
7485,B3,980.5,1.0,90,91.45
7486,B5,980.5,1.0,90,91.45
7487,E4,980.5,1.0,90,91.45
7488,B4,980.5,1.0,90,91.45
7489,B4,980.5,4.0,60,91.45
7490,G#4,980.5,4.0,60,91.45
7491,E4,980.5,4.0,60,91.45
7492,B1,980.5,0.25,100,91.45
7493,C#3,980.5,0.25,100,91.45
7494,E5,981.0,0.5,100,91.45
7495,G#5,981.5,0.5,100,91.45
7496,B-2,981.5,0.25,100,91.45
7497,C4,981.5,1.5,90,91.45
7498,C6,981.5,1.5,90,91.45
7499,A4,981.5,1.5,90,91.45
7500,C5,981.5,1.5,90,91.45
7501,B5,982.0,0.5,100,91.45
7502,E2,982.0,1.5,100,91.45
7503,B1,982.0,0.25,100,91.45
7504,A5,982.5,2.0,100,91.45
7505,E2,982.5,0.25,100,91.45
7506,B-2,982.5,0.25,100,91.45
7507,D4,983.0,1.5,90,91.45
7508,D6,983.0,1.5,90,91.45
7509,A4,983.0,1.5,90,91.45
7510,D5,983.0,1.5,90,91.45
7511,E1,983.5,1.0,100,91.45
7512,B1,983.5,0.25,100,91.45
7513,A3,983.5,0.25,100,91.45
7514,A5,984.5,0.5,100,91.45
7515,E1,984.5,1.0,100,91.45
7516,B-2,984.5,0.25,100,91.45
7517,E4,984.5,1.0,90,91.45
7518,E6,984.5,1.0,90,91.45
7519,A4,984.5,1.0,90,91.45
7520,E5,984.5,1.0,90,91.45
7521,B4,984.5,4.0,60,91.45
7522,B3,984.5,4.0,60,91.45
7523,D4,984.5,4.0,60,91.45
7524,F#4,984.5,4.0,60,91.45
7525,G#5,985.0,0.5,80,91.45
7526,B1,985.0,0.25,100,91.45
7527,E5,985.5,0.5,80,91.45
7528,E1,985.5,1.0,100,91.45
7529,A3,985.5,1.5,90,91.45
7530,A5,985.5,1.5,90,91.45
7531,F#4,985.5,1.5,90,91.45
7532,A4,985.5,1.5,90,91.45
7533,B1,985.5,0.25,100,91.45
7534,B-2,985.5,0.25,100,91.45
7535,B4,986.0,1.5,78,91.45
7536,E1,986.5,1.0,100,91.45
7537,E2,986.5,0.25,100,91.45
7538,B-2,986.5,0.25,100,91.45
7539,G3,987.0,1.5,90,91.45
7540,G5,987.0,1.5,90,91.45
7541,D4,987.0,1.5,90,91.45
7542,G4,987.0,1.5,90,91.45
7543,F#5,987.5,1.0,100,91.45
7544,E1,987.5,1.0,100,91.45
7545,B-2,987.5,0.25,100,91.45
7546,D5,988.5,1.5,100,91.45
7547,B1,988.5,1.5,100,91.45
7548,F#3,988.5,1.0,90,91.45
7549,F#5,988.5,1.0,90,91.45
7550,D4,988.5,1.0,90,91.45
7551,F#4,988.5,1.0,90,91.45
7552,B1,988.5,0.25,100,91.45
7553,A3,988.5,0.25,100,91.45
7554,B-2,989.5,0.25,100,91.45
7555,D3,989.5,4.0,90,91.45
7556,D5,989.5,4.0,90,91.45
7557,A3,989.5,4.0,90,91.45
7558,D4,989.5,4.0,90,91.45
7559,A5,990.0,1.5,100,91.45
7560,B2,990.0,1.5,100,91.45
7561,B1,990.0,0.25,100,91.45
7562,E2,990.5,0.25,100,91.45
7563,B-2,990.5,0.25,100,91.45
7564,C#5,991.5,1.0,87,91.45
7565,B1,991.5,1.0,100,91.45
7566,B1,991.5,0.25,100,91.45
7567,C#3,991.5,0.25,100,91.45
7568,C#5,992.5,1.0,87,91.45
7569,B1,992.5,1.0,100,91.45
7570,B-2,992.5,0.25,100,91.45
7571,B4,992.5,4.0,60,91.45
7572,B3,992.5,4.0,60,91.45
7573,D4,992.5,4.0,60,91.45
7574,F#4,992.5,4.0,60,91.45
7575,B1,993.0,0.25,100,91.45
7576,D5,993.5,333/1000,80,91.45
7577,B1,993.5,1.0,100,91.45
7578,E3,993.5,1.5,90,91.45
7579,G#3,993.5,1.5,90,91.45
7580,E4,993.5,1.5,90,91.45
7581,G#4,993.5,1.5,90,91.45
7582,B1,993.5,0.25,100,91.45
7583,B-2,993.5,0.25,100,91.45
7584,C#5,993.833,333/1000,82,91.45
7585,B4,994.167,333/1000,85,91.45
7586,C#5,994.5,333/1000,87,91.45
7587,B1,994.5,2.0,100,91.45
7588,E2,994.5,0.25,100,91.45
7589,B-2,994.5,0.25,100,91.45
7590,D5,994.833,333/1000,90,91.45
7591,B1,995.0,0.25,100,91.45
7592,G#3,995.0,1.5,90,91.45
7593,B3,995.0,1.5,90,91.45
7594,G#4,995.0,1.5,90,91.45
7595,B4,995.0,1.5,90,91.45
7596,E5,995.167,333/1000,92,91.45
7597,F#5,995.5,333/1000,95,91.45
7598,B1,995.5,0.25,100,91.45
7599,B-2,995.5,0.25,100,91.45
7600,G#5,995.833,333/1000,97,91.45
7601,A5,996.167,333/1000,100,91.45
7602,G#5,996.5,1.5,100,91.45
7603,E1,996.5,1.5,100,91.45
7604,B3,996.5,1.0,90,91.45
7605,E4,996.5,1.0,90,91.45
7606,B4,996.5,1.0,90,91.45
7607,E5,996.5,1.0,90,91.45
7608,B4,996.5,4.0,60,91.45
7609,G#4,996.5,4.0,60,91.45
7610,E4,996.5,4.0,60,91.45
7611,B1,996.5,0.25,100,91.45
7612,A3,996.5,0.25,100,91.45
7613,B-2,997.5,0.25,100,91.45
7614,A5,998.0,1.5,100,91.45
7615,E1,998.0,1.5,100,91.45
7616,B1,998.0,0.25,100,91.45
7617,E2,998.5,0.25,100,91.45
7618,B-2,998.5,0.25,100,91.45
7619,B5,999.5,1.0,100,91.45
7620,B1,999.5,1.0,100,91.45
7621,C#3,999.5,0.25,100,91.45
7622,B1,999.5,0.25,100,91.45
7623,C6,1000.5,0.5,100,91.45
7624,A1,1000.5,1.5,100,91.45
7625,C4,1000.5,4.0,60,91.45
7626,E4,1000.5,4.0,60,91.45
7627,C5,1000.5,4.0,60,91.45
7628,A4,1000.5,4.0,60,91.45
7629,B1,1000.5,0.25,100,91.45
7630,A3,1000.5,0.25,100,91.45
7631,C6,1001.0,167/1000,100,91.45
7632,B5,1001.167,167/1000,100,91.45
7633,A5,1001.333,167/1000,100,91.45
7634,G5,1001.5,167/1000,100,91.45
7635,B-2,1001.5,0.25,100,91.45
7636,B3,1001.5,4.0,90,91.45
7637,E4,1001.5,4.0,90,91.45
7638,B4,1001.5,4.0,90,91.45
7639,E5,1001.5,4.0,90,91.45
7640,G5,1001.667,167/1000,100,91.45
7641,F#5,1001.833,167/1000,100,91.45
7642,E5,1002.0,167/1000,100,91.45
7643,A1,1002.0,1.5,100,91.45
7644,B1,1002.0,0.25,100,91.45
7645,D5,1002.167,167/1000,100,91.45
7646,C5,1002.333,167/1000,100,91.45
7647,B4,1002.5,167/1000,100,91.45
7648,E2,1002.5,0.25,100,91.45
7649,B-2,1002.5,0.25,100,91.45
7650,A4,1002.667,167/1000,100,91.45
7651,G4,1002.833,167/1000,100,91.45
7652,F#4,1003.0,0.5,80,91.45
7653,D5,1003.5,1.0,100,91.45
7654,E2,1003.5,1.0,100,91.45
7655,B1,1003.5,0.25,100,91.45
7656,C#3,1003.5,0.25,100,91.45
7657,D5,1004.5,1.25,100,91.45
7658,D2,1004.5,1.5,100,91.45
7659,A3,1004.5,4.0,60,91.45
7660,A4,1004.5,4.0,60,91.45
7661,F#4,1004.5,4.0,60,91.45
7662,D4,1004.5,4.0,60,91.45
7663,B1,1004.5,0.25,100,91.45
7664,A3,1004.5,0.25,100,91.45
7665,B-2,1005.5,0.25,100,91.45
7666,F#3,1005.5,1.5,90,91.45
7667,D4,1005.5,1.5,90,91.45
7668,F#4,1005.5,1.5,90,91.45
7669,B3,1005.5,1.5,90,91.45
7670,A4,1006.0,0.5,100,91.45
7671,D2,1006.0,2.5,100,91.45
7672,B1,1006.0,0.25,100,91.45
7673,D5,1006.5,0.5,100,91.45
7674,E2,1006.5,0.25,100,91.45
7675,B-2,1006.5,0.25,100,91.45
7676,F#5,1007.0,0.5,100,91.45
7677,B3,1007.0,1.5,90,91.45
7678,F#4,1007.0,1.5,90,91.45
7679,B4,1007.0,1.5,90,91.45
7680,D4,1007.0,1.5,90,91.45
7681,A5,1007.5,0.5,100,91.45
7682,B1,1007.5,0.25,100,91.45
7683,B-2,1007.5,0.25,100,91.45
7684,G5,1008.0,0.5,110,91.45
7685,B1,1008.0,0.25,100,91.45
7686,D2,1008.5,0.5,100,91.45
7687,F#4,1008.5,1.0,90,91.45
7688,B4,1008.5,1.0,90,91.45
7689,D5,1008.5,1.0,90,91.45
7690,D4,1008.5,1.0,90,91.45
7691,B-2,1008.5,0.25,100,91.45
7692,E2,1008.5,0.25,100,91.45
7693,A5,1008.542,73/250,90,91.45
7694,G5,1008.833,333/1000,100,91.45
7695,A1,1009.0,0.5,100,91.45
7696,E2,1009.0,0.25,80,91.45
7697,F#5,1009.167,333/1000,100,91.45
7698,D5,1009.5,0.5,100,91.45
7699,D2,1009.5,1.5,100,91.45
7700,B-2,1009.5,0.25,100,91.45
7701,B1,1009.5,0.25,100,91.45
7702,A4,1010.0,0.5,100,91.45
7703,B1,1010.0,0.25,100,91.45
7704,G4,1010.5,0.5,110,91.45
7705,B-2,1010.5,0.25,100,91.45
7706,E2,1010.5,0.25,100,91.45
7707,F#4,1011.0,0.5,100,91.45
7708,A1,1011.0,0.5,100,91.45
7709,E2,1011.0,0.25,80,91.45
7710,D4,1011.5,1.0,100,91.45
7711,D2,1011.5,1.0,100,91.45
7712,B-2,1011.5,0.25,100,91.45
7713,B1,1011.5,0.25,100,91.45
7714,B1,1012.0,0.25,100,91.45
7715,E2,1012.5,1.5,100,91.45
7716,F#4,1012.5,3.0,90,91.45
7717,B4,1012.5,3.0,90,91.45
7718,D5,1012.5,4.0,90,91.45
7719,D4,1012.5,4.0,90,91.45
7720,A3,1012.5,4.0,60,91.45
7721,A4,1012.5,4.0,60,91.45
7722,F#4,1012.5,4.0,60,91.45
7723,D4,1012.5,4.0,60,91.45
7724,E2,1012.5,0.25,100,91.45
7725,A3,1012.5,0.25,100,91.45
7726,E-3,1013.5,0.25,100,91.45
7727,E2,1014.0,1.5,100,91.45
7728,B1,1014.0,0.25,100,91.45
7729,E2,1014.5,0.25,100,91.45
7730,E-3,1014.5,0.25,100,91.45
7731,E2,1015.5,1.0,100,91.45
7732,B1,1015.5,0.25,100,91.45
7733,E-3,1015.5,0.25,100,91.45
7734,B1,1016.0,0.25,100,91.45
7735,B1,1016.5,1.5,100,91.45
7736,G#5,1016.5,1.5,90,91.45
7737,E4,1016.5,1.5,90,91.45
7738,G#4,1016.5,1.5,90,91.45
7739,B4,1016.5,4.0,60,91.45
7740,G#4,1016.5,4.0,60,91.45
7741,E4,1016.5,4.0,60,91.45
7742,E2,1016.5,0.25,100,91.45
7743,C#3,1016.5,0.25,100,91.45
7744,E-3,1017.5,0.25,100,91.45
7745,B1,1018.0,1.5,100,91.45
7746,B1,1018.0,0.25,100,91.45
7747,A5,1018.0,1.5,90,91.45
7748,E4,1018.0,1.5,90,91.45
7749,A4,1018.0,1.5,90,91.45
7750,E2,1018.5,0.25,100,91.45
7751,E-3,1018.5,0.25,100,91.45
7752,B1,1019.5,1.0,100,91.45
7753,B5,1019.5,1.0,90,91.45
7754,E4,1019.5,1.0,90,91.45
7755,B4,1019.5,1.0,90,91.45
7756,B1,1019.5,0.25,100,91.45
7757,E-3,1019.5,0.25,100,91.45
7758,B1,1020.0,0.25,100,91.45
7759,E2,1020.5,1.5,100,91.45
7760,C6,1020.5,1.5,90,91.45
7761,A4,1020.5,1.5,90,91.45
7762,C5,1020.5,1.5,90,91.45
7763,E2,1020.5,0.25,100,91.45
7764,A3,1020.5,0.25,100,91.45
7765,E-3,1021.5,0.25,100,91.45
7766,G#4,1021.5,4.0,100,91.45
7767,E3,1021.5,4.0,100,91.45
7768,E5,1021.5,4.0,100,91.45
7769,B4,1021.5,4.0,100,91.45
7770,E4,1021.5,4.0,100,91.45
7771,E2,1022.0,1.5,100,91.45
7772,B1,1022.0,0.25,100,91.45
7773,D6,1022.0,1.5,90,91.45
7774,A4,1022.0,1.5,90,91.45
7775,D5,1022.0,1.5,90,91.45
7776,G#4,1022.5,4.0,75,91.45
7777,B4,1022.5,4.0,75,91.45
7778,E4,1022.5,4.0,75,91.45
7779,E2,1022.5,0.25,100,91.45
7780,E-3,1022.5,0.25,100,91.45
7781,E2,1023.5,1.0,100,91.45
7782,E6,1023.5,1.0,90,91.45
7783,A4,1023.5,1.0,90,91.45
7784,E5,1023.5,1.0,90,91.45
7785,B1,1023.5,0.25,100,91.45
7786,C#3,1023.5,0.25,100,91.45
7787,G#4,1024.5,1.5,115,91.45
7788,E3,1024.5,2.0,100,91.45
7789,A5,1024.5,1.5,90,91.45
7790,F#4,1024.5,1.5,90,91.45
7791,A4,1024.5,1.5,90,91.45
7792,B4,1024.5,4.0,60,91.45
7793,G#4,1024.5,4.0,60,91.45
7794,E4,1024.5,4.0,60,91.45
7795,E2,1024.5,0.25,100,91.45
7796,A3,1024.5,0.25,100,91.45
7797,E-3,1025.5,0.25,100,91.45
7798,B4,1025.5,4.0,100,91.45
7799,F#4,1025.5,4.0,100,91.45
7800,D4,1025.5,4.0,100,91.45
7801,B3,1025.5,4.0,100,91.45
7802,B2,1025.5,4.0,100,91.45
7803,B4,1026.0,1.5,115,91.45
7804,B1,1026.0,0.25,100,91.45
7805,G5,1026.0,1.5,90,91.45
7806,D4,1026.0,1.5,90,91.45
7807,G4,1026.0,1.5,90,91.45
7808,E2,1026.5,1.0,100,91.45
7809,F#4,1026.5,4.0,75,91.45
7810,D4,1026.5,4.0,75,91.45
7811,B3,1026.5,4.0,75,91.45
7812,E2,1026.5,0.25,100,91.45
7813,E-3,1026.5,0.25,100,91.45
7814,E5,1027.5,1.0,115,91.45
7815,E2,1027.5,1.0,100,91.45
7816,F#5,1027.5,1.0,90,91.45
7817,D4,1027.5,1.0,90,91.45
7818,F#4,1027.5,1.0,90,91.45
7819,B1,1027.5,0.25,100,91.45
7820,E-3,1027.5,0.25,100,91.45
7821,B1,1028.0,0.25,100,91.45
7822,D5,1028.5,1.5,115,91.45
7823,B1,1028.5,2.0,100,91.45
7824,D5,1028.5,4.0,90,91.45
7825,A3,1028.5,4.0,90,91.45
7826,D4,1028.5,4.0,90,91.45
7827,B4,1028.5,4.0,60,91.45
7828,B3,1028.5,4.0,60,91.45
7829,D4,1028.5,4.0,60,91.45
7830,F#4,1028.5,4.0,60,91.45
7831,E2,1028.5,0.25,100,91.45
7832,C#3,1028.5,0.25,100,91.45
7833,E-3,1029.5,0.25,100,91.45
7834,G#4,1029.5,4.0,100,91.45
7835,E3,1029.5,4.0,100,91.45
7836,E5,1029.5,4.0,100,91.45
7837,B4,1029.5,4.0,100,91.45
7838,E4,1029.5,4.0,100,91.45
7839,B4,1030.0,1.5,115,91.45
7840,B1,1030.0,0.25,100,91.45
7841,B1,1030.5,1.0,100,91.45
7842,G#4,1030.5,4.0,75,91.45
7843,B4,1030.5,4.0,75,91.45
7844,E4,1030.5,4.0,75,91.45
7845,E2,1030.5,0.25,100,91.45
7846,E-3,1030.5,0.25,100,91.45
7847,F#4,1031.5,1.0,115,91.45
7848,B1,1031.5,1.0,100,91.45
7849,B1,1031.5,0.25,100,91.45
7850,E-3,1031.5,0.25,100,91.45
7851,B1,1032.0,0.25,100,91.45
7852,G#4,1032.5,1.5,115,91.45
7853,B-1,1032.5,2.0,100,91.45
7854,E2,1032.5,0.25,100,91.45
7855,A3,1032.5,0.25,100,91.45
7856,E-3,1033.5,0.25,100,91.45
7857,C4,1033.5,4.0,100,91.45
7858,C3,1033.5,4.0,100,91.45
7859,E4,1033.5,4.0,100,91.45
7860,G4,1033.5,4.0,100,91.45
7861,C5,1033.5,4.0,100,91.45
7862,B4,1034.0,1.5,115,91.45
7863,B1,1034.0,0.25,100,91.45
7864,B-1,1034.5,1.0,100,91.45
7865,C4,1034.5,4.0,75,91.45
7866,E4,1034.5,4.0,75,91.45
7867,G4,1034.5,4.0,75,91.45
7868,E2,1034.5,0.25,100,91.45
7869,E-3,1034.5,0.25,100,91.45
7870,E5,1035.5,1.0,115,91.45
7871,B-1,1035.5,1.0,100,91.45
7872,B1,1035.5,0.25,100,91.45
7873,C#3,1035.5,0.25,100,91.45
7874,G5,1036.5,1.5,115,91.45
7875,A1,1036.5,2.0,100,91.45
7876,B4,1036.5,4.0,60,91.45
7877,B3,1036.5,4.0,60,91.45
7878,D4,1036.5,4.0,60,91.45
7879,F#4,1036.5,4.0,60,91.45
7880,E2,1036.5,0.25,100,91.45
7881,A3,1036.5,0.25,100,91.45
7882,E-3,1037.5,0.25,100,91.45
7883,G4,1037.5,4.0,100,91.45
7884,D4,1037.5,4.0,100,91.45
7885,B3,1037.5,4.0,100,91.45
7886,G3,1037.5,4.0,100,91.45
7887,G2,1037.5,4.0,100,91.45
7888,F#5,1038.0,1.5,115,91.45
7889,B1,1038.0,0.25,100,91.45
7890,A1,1038.5,1.0,100,91.45
7891,D4,1038.5,4.0,75,91.45
7892,B3,1038.5,4.0,75,91.45
7893,G3,1038.5,4.0,75,91.45
7894,E2,1038.5,0.25,100,91.45
7895,E-3,1038.5,0.25,100,91.45
7896,E5,1039.5,1.0,115,91.45
7897,C2,1039.5,1.0,100,91.45
7898,B1,1039.5,0.25,100,91.45
7899,A3,1039.5,0.25,100,91.45
7900,D5,1040.5,1.5,115,91.45
7901,D2,1040.5,3.0,100,91.45
7902,B4,1040.5,4.0,60,91.45
7903,G#4,1040.5,4.0,60,91.45
7904,E4,1040.5,4.0,60,91.45
7905,C#3,1040.5,0.25,100,91.45
7906,B1,1040.5,0.25,100,91.45
7907,E2,1041.5,0.25,100,91.45
7908,B-4,1041.5,4.0,100,91.45
7909,F4,1041.5,4.0,100,91.45
7910,D4,1041.5,4.0,100,91.45
7911,B-3,1041.5,4.0,100,91.45
7912,B-2,1041.5,4.0,100,91.45
7913,B4,1042.0,1.5,115,91.45
7914,E2,1042.0,0.25,100,91.45
7915,E2,1042.5,0.25,100,91.45
7916,F4,1042.5,4.0,75,91.45
7917,D4,1042.5,4.0,75,91.45
7918,B-3,1042.5,4.0,75,91.45
7919,E2,1043.0,0.25,100,91.45
7920,G4,1043.5,1.0,115,91.45
7921,D2,1043.5,1.0,100,91.45
7922,A3,1043.5,0.25,100,91.45
7923,B1,1043.5,0.25,100,91.45
7924,D5,1044.5,1.5,115,91.45
7925,E2,1044.5,0.5,100,91.45
7926,C4,1044.5,4.0,60,91.45
7927,E4,1044.5,4.0,60,91.45
7928,C5,1044.5,4.0,60,91.45
7929,A4,1044.5,4.0,60,91.45
7930,E2,1044.5,0.25,100,91.45
7931,A3,1044.5,0.25,100,91.45
7932,E2,1045.0,0.5,100,91.45
7933,E2,1045.5,0.5,100,91.45
7934,E-3,1045.5,0.25,100,91.45
7935,A2,1045.5,3.0,100,91.45
7936,A3,1045.5,3.0,100,91.45
7937,F4,1045.5,3.0,100,91.45
7938,C4,1045.5,3.0,100,91.45
7939,A4,1045.5,3.0,100,91.45
7940,E5,1046.0,1.5,115,91.45
7941,E2,1046.0,1.5,100,91.45
7942,B1,1046.0,0.25,100,91.45
7943,A3,1046.5,3.0,75,91.45
7944,F4,1046.5,3.0,75,91.45
7945,C4,1046.5,3.0,75,91.45
7946,E2,1046.5,0.25,100,91.45
7947,E-3,1046.5,0.25,100,91.45
7948,F5,1047.5,1.0,115,91.45
7949,E2,1047.5,0.5,100,91.45
7950,B1,1047.5,0.25,100,91.45
7951,E-3,1047.5,0.25,100,91.45
7952,E2,1048.0,0.5,100,91.45
7953,B1,1048.0,0.25,100,91.45
7954,C5,1048.5,1.5,115,91.45
7955,B1,1048.5,1.5,100,91.45
7956,G3,1048.5,1.0,100,91.45
7957,G4,1048.5,1.0,100,91.45
7958,E4,1048.5,1.0,100,91.45
7959,A3,1048.5,4.0,60,91.45
7960,A4,1048.5,4.0,60,91.45
7961,F#4,1048.5,4.0,60,91.45
7962,D4,1048.5,4.0,60,91.45
7963,E2,1048.5,0.25,100,91.45
7964,C#3,1048.5,0.25,100,91.45
7965,E-3,1049.5,0.25,100,91.45
7966,D3,1049.5,4.0,100,91.45
7967,A3,1049.5,4.0,100,91.45
7968,F#4,1049.5,4.0,100,91.45
7969,A4,1049.5,4.0,100,91.45
7970,D4,1049.5,4.0,100,91.45
7971,G3,1049.5,1.0,75,91.45
7972,G4,1049.5,1.0,75,91.45
7973,E4,1049.5,1.0,75,91.45
7974,A4,1050.0,1.5,115,91.45
7975,B1,1050.0,1.5,100,91.45
7976,B1,1050.0,0.25,100,91.45
7977,A3,1050.5,4.0,75,91.45
7978,F#4,1050.5,4.0,75,91.45
7979,D4,1050.5,4.0,75,91.45
7980,E2,1050.5,0.25,100,91.45
7981,E-3,1050.5,0.25,100,91.45
7982,G4,1051.5,1.0,115,91.45
7983,B1,1051.5,0.5,100,91.45
7984,B1,1051.5,0.25,100,91.45
7985,E-3,1051.5,0.25,100,91.45
7986,B1,1052.0,0.5,100,91.45
7987,B1,1052.0,0.25,100,91.45
7988,A4,1052.5,3.5,115,91.45
7989,E2,1052.5,0.5,100,91.45
7990,E2,1052.5,0.25,100,91.45
7991,A3,1052.5,0.25,100,91.45
7992,E2,1053.0,0.5,100,91.45
7993,E2,1053.5,0.5,100,91.45
7994,E-3,1053.5,0.25,100,91.45
7995,G#4,1053.5,4.0,100,91.45
7996,E3,1053.5,4.0,100,91.45
7997,E5,1053.5,4.0,100,91.45
7998,B4,1053.5,4.0,100,91.45
7999,E4,1053.5,4.0,100,91.45
8000,E2,1054.0,1.5,100,91.45
8001,B1,1054.0,0.25,100,91.45
8002,E2,1054.5,0.25,100,91.45
8003,E-3,1054.5,0.25,100,91.45
8004,E2,1055.5,0.5,100,91.45
8005,B1,1055.5,0.25,100,91.45
8006,E-3,1055.5,0.25,100,91.45
8007,E2,1056.0,0.5,100,91.45
8008,B1,1056.0,0.25,100,91.45
8009,G#4,1056.5,1.5,115,91.45
8010,C2,1056.5,1.5,100,91.45
8011,A3,1056.5,4.0,60,91.45
8012,A4,1056.5,4.0,60,91.45
8013,F#4,1056.5,4.0,60,91.45
8014,D4,1056.5,4.0,60,91.45
8015,E2,1056.5,0.25,100,91.45
8016,C#3,1056.5,0.25,100,91.45
8017,E-3,1057.5,0.25,100,91.45
8018,B4,1057.5,4.0,100,91.45
8019,F#4,1057.5,4.0,100,91.45
8020,D4,1057.5,4.0,100,91.45
8021,B3,1057.5,4.0,100,91.45
8022,B2,1057.5,4.0,100,91.45
8023,B4,1058.0,1.5,115,91.45
8024,C2,1058.0,1.5,100,91.45
8025,B1,1058.0,0.25,100,91.45
8026,E2,1058.5,0.25,100,91.45
8027,E-3,1058.5,0.25,100,91.45
8028,E5,1059.5,1.0,115,91.45
8029,C2,1059.5,0.5,100,91.45
8030,B1,1059.5,0.25,100,91.45
8031,E-3,1059.5,0.25,100,91.45
8032,A1,1060.0,0.5,100,91.45
8033,B1,1060.0,0.25,100,91.45
8034,D5,1060.5,1.5,115,91.45
8035,G1,1060.5,1.5,100,91.45
8036,E2,1060.5,0.25,100,91.45
8037,A3,1060.5,0.25,100,91.45
8038,E-3,1061.5,0.25,100,91.45
8039,G#4,1061.5,4.0,100,91.45
8040,E3,1061.5,4.0,100,91.45
8041,E5,1061.5,4.0,100,91.45
8042,B4,1061.5,4.0,100,91.45
8043,E4,1061.5,4.0,100,91.45
8044,B4,1062.0,1.5,115,91.45
8045,G1,1062.0,1.5,100,91.45
8046,B1,1062.0,0.25,100,91.45
8047,E2,1062.5,0.25,100,91.45
8048,E-3,1062.5,0.25,100,91.45
8049,F#4,1063.5,1.0,115,91.45
8050,G1,1063.5,0.5,100,91.45
8051,B1,1063.5,0.25,100,91.45
8052,E-3,1063.5,0.25,100,91.45
8053,G1,1064.0,0.5,100,91.45
8054,B1,1064.0,0.25,100,91.45
8055,G#4,1064.5,1.5,115,91.45
8056,B-1,1064.5,1.5,100,91.45
8057,E2,1064.5,0.25,100,91.45
8058,C#3,1064.5,0.25,100,91.45
8059,E-3,1065.5,0.25,100,91.45
8060,C4,1065.5,4.0,100,91.45
8061,C3,1065.5,4.0,100,91.45
8062,E4,1065.5,4.0,100,91.45
8063,G4,1065.5,4.0,100,91.45
8064,C5,1065.5,4.0,100,91.45
8065,B4,1066.0,1.5,115,91.45
8066,B-1,1066.0,1.5,100,91.45
8067,B1,1066.0,0.25,100,91.45
8068,E2,1066.5,0.25,100,91.45
8069,E-3,1066.5,0.25,100,91.45
8070,E5,1067.5,1.0,115,91.45
8071,B-1,1067.5,0.5,100,91.45
8072,B1,1067.5,0.25,100,91.45
8073,E-3,1067.5,0.25,100,91.45
8074,B-1,1068.0,0.5,100,91.45
8075,B1,1068.0,0.25,100,91.45
8076,G5,1068.5,1.5,115,91.45
8077,F1,1068.5,1.5,100,91.45
8078,E2,1068.5,0.25,100,91.45
8079,E-3,1068.5,0.25,100,91.45
8080,E2,1069.0,0.25,100,91.45
8081,E-3,1069.5,0.25,100,91.45
8082,G4,1069.5,4.0,100,91.45
8083,D4,1069.5,4.0,100,91.45
8084,B3,1069.5,4.0,100,91.45
8085,G3,1069.5,4.0,100,91.45
8086,G2,1069.5,4.0,100,91.45
8087,F#5,1070.0,1.5,115,91.45
8088,F1,1070.0,1.5,100,91.45
8089,B1,1070.0,0.25,100,91.45
8090,E2,1070.5,0.25,100,91.45
8091,E-3,1070.5,0.25,100,91.45
8092,E5,1071.5,1.0,115,91.45
8093,C2,1071.5,1.0,100,91.45
8094,B1,1071.5,0.25,100,91.45
8095,C#3,1071.5,0.25,100,91.45
8096,D5,1072.5,1.5,115,91.45
8097,D2,1072.5,4.0,100,91.45
8098,B1,1072.5,0.25,100,91.45
8099,A3,1072.5,0.25,100,91.45
8100,E-3,1073.5,0.25,100,91.45
8101,B-4,1073.5,4.0,100,91.45
8102,F4,1073.5,4.0,100,91.45
8103,D4,1073.5,4.0,100,91.45
8104,B-3,1073.5,4.0,100,91.45
8105,B-2,1073.5,4.0,100,91.45
8106,B4,1074.0,1.5,115,91.45
8107,B1,1074.0,0.25,100,91.45
8108,E2,1074.5,0.25,100,91.45
8109,E-3,1074.5,0.25,100,91.45
8110,G4,1075.5,1.0,115,91.45
8111,E-3,1075.5,0.25,100,91.45
8112,B1,1076.0,0.25,100,91.45
8113,D5,1076.5,1.5,115,91.45
8114,D2,1076.5,1.0,100,91.45
8115,E3,1076.5,0.25,127,91.45
8116,E2,1076.5,0.25,127,91.45
8117,F2,1077.5,3.0,100,91.45
8118,F3,1077.5,3.0,100,91.45
8119,F4,1077.5,3.0,100,91.45
8120,C4,1077.5,3.0,100,91.45
8121,A4,1077.5,3.0,100,91.45
8122,E5,1078.0,1.5,115,91.45
8123,F5,1079.5,1.0,115,91.45
8124,C5,1080.5,1.5,115,91.45
8125,G3,1080.5,1.0,100,91.45
8126,G4,1080.5,1.0,100,91.45
8127,E4,1080.5,1.0,100,91.45
8128,E2,1081.5,0.25,100,91.45
8129,D3,1081.5,4.0,100,91.45
8130,A3,1081.5,4.0,100,91.45
8131,F#4,1081.5,4.0,100,91.45
8132,A4,1081.5,4.0,100,91.45
8133,D4,1081.5,4.0,100,91.45
8134,A4,1082.0,1.5,115,91.45
8135,E1,1082.0,0.5,100,91.45
8136,B1,1082.0,0.25,100,91.45
8137,C#3,1082.0,0.25,100,91.45
8138,E1,1082.5,0.5,100,91.45
8139,B1,1083.0,0.5,100,91.45
8140,B1,1083.0,0.25,100,91.45
8141,G4,1083.5,1.0,115,91.45
8142,D2,1083.5,0.5,100,91.45
8143,B-2,1083.5,0.25,100,91.45
8144,E2,1083.5,0.25,100,91.45
8145,B1,1084.0,0.5,100,91.45
8146,A4,1084.5,3.5,115,91.45
8147,E2,1084.5,0.5,100,91.45
8148,B1,1084.5,0.25,100,91.45
8149,B-2,1084.5,0.25,100,91.45
8150,B1,1085.0,0.5,100,91.45
8151,B1,1085.0,0.25,100,91.45
8152,D2,1085.5,0.5,100,91.45
8153,E2,1085.5,0.25,100,91.45
8154,B-2,1085.5,0.25,100,91.45
8155,A1,1086.0,0.5,100,91.45
8156,B1,1086.0,0.5,100,91.45
8157,B1,1086.5,0.5,100,91.45
8158,D2,1086.5,0.5,100,91.45
8159,B1,1086.5,0.25,100,91.45
8160,B-2,1086.5,0.25,100,91.45
8161,G1,1087.0,0.5,100,91.45
8162,B1,1087.0,0.5,100,91.45
8163,B-2,1087.0,0.25,100,91.45
8164,B1,1087.0,0.25,100,91.45
8165,A1,1087.5,0.5,100,91.45
8166,E2,1087.5,0.5,100,91.45
8167,E2,1087.5,0.25,100,91.45
8168,E1,1088.0,0.5,100,91.45
8169,B1,1088.0,0.5,100,91.45
8170,A3,1088.0,0.25,100,91.45
8171,B1,1088.0,0.25,100,91.45
8172,E1,1088.5,0.5,100,91.45
8173,D2,1088.5,0.5,100,91.45
8174,B1,1089.0,0.5,100,91.45
8175,A1,1089.0,0.5,100,91.45
8176,B1,1089.0,0.25,100,91.45
8177,D2,1089.5,0.5,100,91.45
8178,B1,1089.5,0.5,100,91.45
8179,B-2,1089.5,0.25,100,91.45
8180,E2,1089.5,0.25,100,91.45
8181,B1,1090.0,0.5,100,91.45
8182,G1,1090.0,0.5,100,91.45
8183,E2,1090.5,0.5,100,91.45
8184,A1,1090.5,0.5,100,91.45
8185,B1,1090.5,0.25,100,91.45
8186,B-2,1090.5,0.25,100,91.45
8187,B1,1091.0,0.5,100,91.45
8188,E1,1091.0,0.5,100,91.45
8189,B1,1091.0,0.25,100,91.45
8190,D2,1091.5,0.5,100,91.45
8191,E1,1091.5,0.5,100,91.45
8192,E2,1091.5,0.25,100,91.45
8193,B-2,1091.5,0.25,100,91.45
8194,A1,1092.0,0.5,100,91.45
8195,B1,1092.0,0.5,100,91.45
8196,B3,1092.0,0.5,80,91.45
8197,E4,1092.0,0.5,80,91.45
8198,G#4,1092.0,0.5,80,91.45
8199,B1,1092.5,0.5,100,91.45
8200,D2,1092.5,0.5,100,91.45
8201,B3,1092.5,5.5,80,91.45
8202,E4,1092.5,5.5,80,91.45
8203,G#4,1092.5,5.5,80,91.45
8204,G#4,1092.5,4.0,65,91.45
8205,E5,1092.5,4.0,65,91.45
8206,B4,1092.5,4.0,65,91.45
8207,E4,1092.5,4.0,65,91.45
8208,B1,1092.5,0.25,100,91.45
8209,B-2,1092.5,0.25,100,91.45
8210,G1,1093.0,0.5,100,91.45
8211,B1,1093.0,0.5,100,91.45
8212,B-2,1093.0,0.25,100,91.45
8213,B1,1093.0,0.25,100,91.45
8214,A1,1093.5,0.5,100,91.45
8215,E2,1093.5,0.5,100,91.45
8216,G#2,1093.5,0.25,100,91.45
8217,E2,1093.5,0.25,100,91.45
8218,E2,1094.0,0.5,100,91.45
8219,E1,1094.0,0.5,100,91.45
8220,B1,1094.0,0.5,100,91.45
8221,A3,1094.0,0.25,100,91.45
8222,B1,1094.0,0.25,100,91.45
8223,E2,1094.5,0.5,100,91.45
8224,E1,1094.5,0.5,100,91.45
8225,D2,1094.5,0.5,100,91.45
8226,B2,1095.0,0.5,100,91.45
8227,B1,1095.0,0.5,100,91.45
8228,A1,1095.0,0.5,100,91.45
8229,B1,1095.0,0.25,100,91.45
8230,D3,1095.5,0.5,100,91.45
8231,D2,1095.5,0.5,100,91.45
8232,B1,1095.5,0.5,100,91.45
8233,B-2,1095.5,0.25,100,91.45
8234,E2,1095.5,0.25,100,91.45
8235,B2,1096.0,0.5,100,91.45
8236,B1,1096.0,0.5,100,91.45
8237,G1,1096.0,0.5,100,91.45
8238,E3,1096.5,0.5,100,91.45
8239,E2,1096.5,0.5,100,91.45
8240,A1,1096.5,0.5,100,91.45
8241,B4,1096.5,4.0,65,91.45
8242,F#4,1096.5,4.0,65,91.45
8243,D4,1096.5,4.0,65,91.45
8244,B3,1096.5,4.0,65,91.45
8245,B1,1096.5,0.25,100,91.45
8246,B-2,1096.5,0.25,100,91.45
8247,B2,1097.0,0.5,100,91.45
8248,B1,1097.0,0.5,100,91.45
8249,E1,1097.0,0.5,100,91.45
8250,B1,1097.0,0.25,100,91.45
8251,D3,1097.5,0.5,100,91.45
8252,D2,1097.5,0.5,100,91.45
8253,E1,1097.5,0.5,100,91.45
8254,E2,1097.5,0.25,100,91.45
8255,B-2,1097.5,0.25,100,91.45
8256,A2,1098.0,0.5,100,91.45
8257,A1,1098.0,0.5,100,91.45
8258,G4,1098.0,0.5,80,91.45
8259,E4,1098.0,0.5,80,91.45
8260,C4,1098.0,0.5,80,91.45
8261,B1,1098.008,0.5,100,91.45
8262,B2,1098.5,0.5,100,91.45
8263,B1,1098.5,0.5,100,91.45
8264,B1,1098.5,0.25,100,91.45
8265,B-2,1098.5,0.25,100,91.45
8266,D2,1098.508,0.5,100,91.45
8267,G2,1099.0,0.5,100,91.45
8268,G1,1099.0,0.5,100,91.45
8269,B-2,1099.0,0.25,100,91.45
8270,B1,1099.0,0.25,100,91.45
8271,B1,1099.008,0.5,100,91.45
8272,A2,1099.5,0.5,100,91.45
8273,A1,1099.5,0.5,100,91.45
8274,E2,1099.5,0.25,100,91.45
8275,E2,1099.508,0.5,100,91.45
8276,E2,1100.0,0.5,100,91.45
8277,E1,1100.0,0.5,100,91.45
8278,A3,1100.0,0.25,100,91.45
8279,B1,1100.0,0.25,100,91.45
8280,B1,1100.008,0.5,100,91.45
8281,E2,1100.5,0.5,100,91.45
8282,E1,1100.5,0.5,100,91.45
8283,G#4,1100.5,4.0,65,91.45
8284,E5,1100.5,4.0,65,91.45
8285,B4,1100.5,4.0,65,91.45
8286,E4,1100.5,4.0,65,91.45
8287,D2,1100.508,0.5,100,91.45
8288,B1,1101.0,0.5,100,91.45
8289,B1,1101.0,0.25,100,91.45
8290,B2,1101.008,0.5,100,91.45
8291,A1,1101.008,0.5,100,91.45
8292,D2,1101.5,0.5,100,91.45
8293,B-2,1101.5,0.25,100,91.45
8294,E2,1101.5,0.25,100,91.45
8295,D3,1101.508,0.5,100,91.45
8296,B1,1101.508,0.5,100,91.45
8297,B1,1102.0,0.5,100,91.45
8298,B2,1102.008,0.5,100,91.45
8299,G1,1102.008,0.5,100,91.45
8300,E2,1102.5,0.5,100,91.45
8301,B1,1102.5,0.25,100,91.45
8302,B-2,1102.5,0.25,100,91.45
8303,E3,1102.508,0.5,100,91.45
8304,A1,1102.508,0.5,100,91.45
8305,B1,1103.0,0.5,100,91.45
8306,B1,1103.0,0.25,100,91.45
8307,B2,1103.008,0.5,100,91.45
8308,E1,1103.008,123/250,100,91.45
8309,D2,1103.5,0.5,100,91.45
8310,E1,1103.5,127/250,100,91.45
8311,E2,1103.5,0.25,100,91.45
8312,B-2,1103.5,0.25,100,91.45
8313,D3,1103.508,0.5,100,91.45
8314,A1,1104.0,0.5,100,91.45
8315,G4,1104.0,5.5,80,91.45
8316,E4,1104.0,5.5,80,91.45
8317,C4,1104.0,5.5,80,91.45
8318,A2,1104.008,0.5,100,91.45
8319,B1,1104.017,0.5,100,91.45
8320,B1,1104.5,0.5,100,91.45
8321,C4,1104.5,4.0,65,91.45
8322,E4,1104.5,4.0,65,91.45
8323,G4,1104.5,4.0,65,91.45
8324,C5,1104.5,4.0,65,91.45
8325,B1,1104.5,0.25,100,91.45
8326,B-2,1104.5,0.25,100,91.45
8327,B2,1104.508,0.5,100,91.45
8328,D2,1104.517,0.5,100,91.45
8329,G1,1105.0,0.5,100,91.45
8330,B-2,1105.0,0.25,100,91.45
8331,B1,1105.0,0.25,100,91.45
8332,G2,1105.008,0.5,100,91.45
8333,B1,1105.017,0.5,100,91.45
8334,G#2,1105.25,0.25,100,91.45
8335,A1,1105.5,0.5,100,91.45
8336,E2,1105.5,0.25,100,91.45
8337,A2,1105.508,0.5,100,91.45
8338,E2,1105.517,0.5,100,91.45
8339,E1,1106.0,0.5,100,91.45
8340,A3,1106.0,0.25,100,91.45
8341,B1,1106.0,0.25,100,91.45
8342,E2,1106.008,123/250,100,91.45
8343,B1,1106.017,0.5,100,91.45
8344,E2,1106.5,127/250,100,91.45
8345,E1,1106.5,0.5,100,91.45
8346,D2,1106.517,0.5,100,91.45
8347,B1,1107.0,0.5,100,91.45
8348,B1,1107.0,0.25,100,91.45
8349,B2,1107.017,0.5,100,91.45
8350,A1,1107.017,0.5,100,91.45
8351,D2,1107.5,0.5,100,91.45
8352,B-2,1107.5,0.25,100,91.45
8353,E2,1107.5,0.25,100,91.45
8354,D3,1107.517,0.5,100,91.45
8355,B1,1107.517,0.5,100,91.45
8356,B1,1108.0,0.5,100,91.45
8357,B2,1108.017,0.5,100,91.45
8358,G1,1108.017,0.5,100,91.45
8359,E2,1108.5,0.5,100,91.45
8360,G4,1108.5,4.0,65,91.45
8361,D4,1108.5,4.0,65,91.45
8362,B3,1108.5,4.0,65,91.45
8363,G3,1108.5,4.0,65,91.45
8364,B1,1108.5,0.25,100,91.45
8365,B-2,1108.5,0.25,100,91.45
8366,E3,1108.517,0.5,100,91.45
8367,A1,1108.517,0.5,100,91.45
8368,B1,1109.0,0.5,100,91.45
8369,B1,1109.0,0.25,100,91.45
8370,B2,1109.017,0.5,100,91.45
8371,E1,1109.017,483/1000,100,91.45
8372,D2,1109.5,0.5,100,91.45
8373,E1,1109.5,517/1000,100,91.45
8374,F#4,1109.5,0.5,80,91.45
8375,A4,1109.5,0.5,80,91.45
8376,D4,1109.5,0.5,80,91.45
8377,E2,1109.5,0.25,100,91.45
8378,B-2,1109.5,0.25,100,91.45
8379,D3,1109.517,0.5,100,91.45
8380,A1,1110.0,0.5,100,91.45
8381,A2,1110.017,0.5,100,91.45
8382,B1,1110.025,0.5,100,91.45
8383,B1,1110.5,0.5,100,91.45
8384,B1,1110.5,0.25,100,91.45
8385,B-2,1110.5,0.25,100,91.45
8386,B2,1110.517,0.5,100,91.45
8387,D2,1110.525,0.5,100,91.45
8388,G1,1111.0,0.5,100,91.45
8389,B-2,1111.0,0.25,100,91.45
8390,B1,1111.0,0.25,100,91.45
8391,G2,1111.017,0.5,100,91.45
8392,B1,1111.025,0.5,100,91.45
8393,A1,1111.5,0.5,100,91.45
8394,E2,1111.5,0.25,100,91.45
8395,A2,1111.517,0.5,100,91.45
8396,E2,1111.525,0.5,100,91.45
8397,E1,1112.0,0.5,100,91.45
8398,A3,1112.0,0.25,100,91.45
8399,B1,1112.0,0.25,100,91.45
8400,E2,1112.017,483/1000,100,91.45
8401,B1,1112.025,0.5,100,91.45
8402,E2,1112.5,517/1000,100,91.45
8403,E1,1112.5,0.5,100,91.45
8404,B-4,1112.5,4.0,65,91.45
8405,F4,1112.5,4.0,65,91.45
8406,D4,1112.5,4.0,65,91.45
8407,B-3,1112.5,4.0,65,91.45
8408,D2,1112.525,0.5,100,91.45
8409,B1,1113.0,0.5,100,91.45
8410,B1,1113.0,0.25,100,91.45
8411,B2,1113.025,0.5,100,91.45
8412,A1,1113.025,0.5,100,91.45
8413,D2,1113.5,0.5,100,91.45
8414,B-2,1113.5,0.25,100,91.45
8415,E2,1113.5,0.25,100,91.45
8416,D3,1113.525,0.5,100,91.45
8417,B1,1113.525,0.5,100,91.45
8418,B1,1114.0,0.5,100,91.45
8419,B2,1114.025,0.5,100,91.45
8420,G1,1114.025,0.5,100,91.45
8421,E2,1114.5,0.5,100,91.45
8422,B1,1114.5,0.25,100,91.45
8423,B-2,1114.5,0.25,100,91.45
8424,E3,1114.525,0.5,100,91.45
8425,A1,1114.525,0.5,100,91.45
8426,B1,1115.0,0.5,100,91.45
8427,B-2,1115.0,0.25,100,91.45
8428,B1,1115.0,0.25,100,91.45
8429,B2,1115.025,0.5,100,91.45
8430,E1,1115.025,19/40,100,91.45
8431,D2,1115.5,0.5,100,91.45
8432,E1,1115.5,21/40,100,91.45
8433,F#4,1115.5,5.5,80,91.45
8434,A4,1115.5,5.5,80,91.45
8435,D4,1115.5,5.5,80,91.45
8436,E2,1115.5,0.25,100,91.45
8437,G#2,1115.5,0.25,100,91.45
8438,D3,1115.525,0.5,100,91.45
8439,A1,1116.0,0.5,100,91.45
8440,B-2,1116.0,0.25,100,91.45
8441,B1,1116.0,0.25,100,91.45
8442,A2,1116.025,0.5,100,91.45
8443,B1,1116.033,0.5,100,91.45
8444,B1,1116.5,0.5,100,91.45
8445,G#2,1116.5,0.25,100,91.45
8446,F3,1116.5,3.0,65,91.45
8447,F4,1116.5,3.0,65,91.45
8448,C4,1116.5,3.0,65,91.45
8449,A4,1116.5,3.0,65,91.45
8450,B2,1116.525,0.5,100,91.45
8451,D2,1116.533,0.5,100,91.45
8452,G1,1117.0,0.5,100,91.45
8453,B-2,1117.0,0.25,100,91.45
8454,B1,1117.0,0.25,100,91.45
8455,G2,1117.025,0.5,100,91.45
8456,B1,1117.033,0.5,100,91.45
8457,A1,1117.5,0.5,100,91.45
8458,G#2,1117.5,0.25,100,91.45
8459,E2,1117.5,0.25,100,91.45
8460,A2,1117.525,0.5,100,91.45
8461,E2,1117.533,0.5,100,91.45
8462,E1,1118.0,0.5,100,91.45
8463,A3,1118.0,0.25,100,91.45
8464,B1,1118.0,0.25,100,91.45
8465,E2,1118.025,19/40,100,91.45
8466,B1,1118.033,0.5,100,91.45
8467,E2,1118.5,21/40,100,91.45
8468,E1,1118.5,0.5,100,91.45
8469,D2,1118.533,0.5,100,91.45
8470,B1,1119.0,0.5,100,91.45
8471,B1,1119.0,0.25,100,91.45
8472,B2,1119.033,0.5,100,91.45
8473,A1,1119.033,0.5,100,91.45
8474,D2,1119.5,0.5,100,91.45
8475,G3,1119.5,1.0,65,91.45
8476,G4,1119.5,1.0,65,91.45
8477,E4,1119.5,1.0,65,91.45
8478,B-2,1119.5,0.25,100,91.45
8479,E2,1119.5,0.25,100,91.45
8480,D3,1119.533,0.5,100,91.45
8481,B1,1119.533,0.5,100,91.45
8482,B1,1120.0,0.5,100,91.45
8483,B2,1120.033,0.5,100,91.45
8484,G1,1120.033,0.5,100,91.45
8485,E2,1120.5,0.5,100,91.45
8486,A3,1120.5,4.0,65,91.45
8487,F#4,1120.5,4.0,65,91.45
8488,A4,1120.5,4.0,65,91.45
8489,D4,1120.5,4.0,65,91.45
8490,B1,1120.5,0.25,100,91.45
8491,B-2,1120.5,0.25,100,91.45
8492,E3,1120.533,0.5,100,91.45
8493,A1,1120.533,0.5,100,91.45
8494,B1,1121.0,0.5,100,91.45
8495,B1,1121.0,0.25,100,91.45
8496,E4,1121.0,0.5,80,91.45
8497,A4,1121.0,0.5,80,91.45
8498,C#4,1121.0,0.5,80,91.45
8499,B2,1121.033,0.5,100,91.45
8500,E1,1121.033,467/1000,100,91.45
8501,D2,1121.5,0.5,100,91.45
8502,E1,1121.5,533/1000,100,91.45
8503,E2,1121.5,0.25,100,91.45
8504,B-2,1121.5,0.25,100,91.45
8505,D3,1121.533,0.5,100,91.45
8506,A1,1122.0,0.5,100,91.45
8507,A2,1122.033,0.5,100,91.45
8508,B1,1122.042,0.5,100,91.45
8509,B1,1122.5,0.5,100,91.45
8510,B1,1122.5,0.25,100,91.45
8511,B-2,1122.5,0.25,100,91.45
8512,B2,1122.533,0.5,100,91.45
8513,D2,1122.542,0.5,100,91.45
8514,G1,1123.0,0.5,100,91.45
8515,B-2,1123.0,0.25,100,91.45
8516,B1,1123.0,0.25,100,91.45
8517,G2,1123.033,0.5,100,91.45
8518,B1,1123.042,0.5,100,91.45
8519,A1,1123.5,0.5,100,91.45
8520,G#2,1123.5,0.25,100,91.45
8521,E2,1123.5,0.25,100,91.45
8522,A2,1123.533,0.5,100,91.45
8523,E2,1123.542,0.5,100,91.45
8524,E1,1124.0,0.5,100,91.45
8525,A3,1124.0,0.25,100,91.45
8526,B1,1124.0,0.25,100,91.45
8527,E2,1124.033,467/1000,100,91.45
8528,B1,1124.042,0.5,100,91.45
8529,E2,1124.5,533/1000,100,91.45
8530,E1,1124.5,0.5,100,91.45
8531,A4,1124.5,1.0,65,91.45
8532,F#4,1124.5,1.0,65,91.45
8533,D4,1124.5,1.0,65,91.45
8534,A3,1124.5,1.0,65,91.45
8535,D2,1124.542,0.5,100,91.45
8536,B1,1125.0,0.5,100,91.45
8537,B1,1125.0,0.25,100,91.45
8538,B2,1125.042,0.5,100,91.45
8539,A1,1125.042,0.5,100,91.45
8540,D2,1125.5,0.5,100,91.45
8541,B-2,1125.5,0.25,100,91.45
8542,E2,1125.5,0.25,100,91.45
8543,D3,1125.542,0.5,100,91.45
8544,B1,1125.542,0.5,100,91.45
8545,B1,1126.0,0.5,100,91.45
8546,B2,1126.042,0.5,100,91.45
8547,G1,1126.042,0.5,100,91.45
8548,E2,1126.5,0.5,100,91.45
8549,B1,1126.5,0.25,100,91.45
8550,B-2,1126.5,0.25,100,91.45
8551,E3,1126.542,0.5,100,91.45
8552,A1,1126.542,0.5,100,91.45
8553,B1,1127.0,0.5,100,91.45
8554,B1,1127.0,0.25,100,91.45
8555,E4,1127.0,5.5,80,91.45
8556,A4,1127.0,5.5,80,91.45
8557,C#4,1127.0,5.5,80,91.45
8558,B2,1127.042,0.5,100,91.45
8559,E1,1127.042,229/500,100,91.45
8560,D2,1127.5,0.5,100,91.45
8561,E1,1127.5,271/500,100,91.45
8562,E2,1127.5,0.25,100,91.45
8563,B-2,1127.5,0.25,100,91.45
8564,D3,1127.542,0.5,100,91.45
8565,A1,1128.0,0.5,100,91.45
8566,A2,1128.042,0.5,100,91.45
8567,B1,1128.05,0.5,100,91.45
8568,B1,1128.5,0.5,100,91.45
8569,E2,1128.5,0.25,100,91.45
8570,B2,1128.542,0.5,100,91.45
8571,D2,1128.55,0.5,100,91.45
8572,E2,1128.75,0.25,100,91.45
8573,G1,1129.0,0.5,100,91.45
8574,B1,1129.0,0.25,100,91.45
8575,G2,1129.042,0.5,100,91.45
8576,B1,1129.05,0.5,100,91.45
8577,B1,1129.25,0.25,100,91.45
8578,E2,1129.417,0.25,80,91.45
8579,A1,1129.5,0.5,100,91.45
8580,E2,1129.5,0.25,100,91.45
8581,A2,1129.542,0.5,100,91.45
8582,E2,1129.55,0.5,100,91.45
8583,E1,1130.0,0.5,100,91.45
8584,C#3,1130.0,0.25,100,91.45
8585,B1,1130.0,0.25,100,91.45
8586,E2,1130.042,229/500,100,91.45
8587,B1,1130.05,0.5,100,91.45
8588,E2,1130.5,271/500,100,91.45
8589,E1,1130.5,0.5,100,91.45
8590,D2,1130.55,0.5,100,91.45
8591,B1,1131.0,0.5,100,91.45
8592,B1,1131.0,0.25,100,91.45
8593,B2,1131.05,0.5,100,91.45
8594,A1,1131.05,0.5,100,91.45
8595,D2,1131.5,0.5,100,91.45
8596,E2,1131.5,0.25,100,91.45
8597,G3,1131.5,0.25,100,91.45
8598,D3,1131.55,0.5,100,91.45
8599,B1,1131.55,0.5,100,91.45
8600,B1,1132.0,0.5,100,91.45
8601,B2,1132.05,0.5,100,91.45
8602,G1,1132.05,0.5,100,91.45
8603,E2,1132.5,0.5,100,91.45
8604,B3,1132.5,0.5,80,91.45
8605,E4,1132.5,0.5,80,91.45
8606,G#4,1132.5,0.5,80,91.45
8607,F3,1132.5,0.25,100,91.45
8608,B1,1132.5,0.25,100,91.45
8609,E3,1132.55,0.5,100,91.45
8610,A1,1132.55,0.5,100,91.45
8611,B1,1133.0,0.5,100,91.45
8612,B1,1133.0,0.25,100,91.45
8613,B2,1133.05,0.5,100,91.45
8614,E1,1133.05,9/20,100,91.45
8615,D2,1133.5,0.5,100,91.45
8616,E1,1133.5,11/20,100,91.45
8617,F3,1133.5,0.25,100,91.45
8618,E2,1133.5,0.25,100,91.45
8619,D3,1133.55,0.5,100,91.45
8620,A1,1134.0,0.5,100,91.45
8621,B1,1134.0,0.5,100,91.45
8622,A2,1134.05,0.5,100,91.45
8623,B1,1134.5,0.5,100,91.45
8624,D2,1134.5,0.5,100,91.45
8625,F3,1134.5,0.25,100,91.45
8626,B1,1134.5,0.25,100,91.45
8627,B2,1134.55,0.5,100,91.45
8628,G1,1135.0,0.5,100,91.45
8629,B1,1135.0,0.5,100,91.45
8630,F3,1135.0,0.25,100,91.45
8631,B1,1135.0,0.25,100,91.45
8632,G2,1135.05,0.5,100,91.45
8633,A1,1135.5,0.5,100,91.45
8634,E2,1135.5,0.5,100,91.45
8635,E2,1135.5,0.25,100,91.45
8636,A2,1135.55,0.5,100,91.45
8637,E1,1136.0,0.5,100,91.45
8638,B1,1136.0,0.5,100,91.45
8639,E3,1136.0,0.25,100,91.45
8640,B1,1136.0,0.25,100,91.45
8641,E2,1136.05,9/20,100,91.45
8642,E2,1136.5,11/20,100,91.45
8643,E1,1136.5,0.5,100,91.45
8644,D2,1136.5,0.5,100,91.45
8645,B2,1137.0,0.5,100,91.45
8646,B1,1137.0,0.5,100,91.45
8647,A1,1137.0,0.5,100,91.45
8648,B1,1137.0,0.25,100,91.45
8649,D3,1137.5,0.5,100,91.45
8650,D2,1137.5,0.5,100,91.45
8651,B1,1137.5,0.5,100,91.45
8652,E2,1137.5,0.25,100,91.45
8653,F3,1137.5,0.25,100,91.45
8654,B2,1138.0,0.5,100,91.45
8655,B1,1138.0,0.5,100,91.45
8656,G1,1138.0,0.5,100,91.45
8657,E3,1138.5,0.5,100,91.45
8658,E2,1138.5,0.5,100,91.45
8659,A1,1138.5,0.5,100,91.45
8660,B3,1138.5,5.5,80,91.45
8661,E4,1138.5,5.5,80,91.45
8662,G#4,1138.5,5.5,80,91.45
8663,F3,1138.5,0.25,100,91.45
8664,B1,1138.5,0.25,100,91.45
8665,B2,1139.0,0.5,100,91.45
8666,B1,1139.0,0.5,100,91.45
8667,E1,1139.0,0.5,100,91.45
8668,B1,1139.0,0.25,100,91.45
8669,D3,1139.5,0.5,100,91.45
8670,D2,1139.5,0.5,100,91.45
8671,E1,1139.5,0.5,100,91.45
8672,F3,1139.5,0.25,100,91.45
8673,E2,1139.5,0.25,100,91.45
8674,A2,1140.0,0.5,100,91.45
8675,A1,1140.0,0.5,100,91.45
8676,B1,1140.008,0.5,100,91.45
8677,B2,1140.5,0.5,100,91.45
8678,B1,1140.5,0.5,100,91.45
8679,F3,1140.5,0.25,100,91.45
8680,B1,1140.5,0.25,100,91.45
8681,D2,1140.508,0.5,100,91.45
8682,G2,1141.0,0.5,100,91.45
8683,G1,1141.0,0.5,100,91.45
8684,F3,1141.0,0.25,100,91.45
8685,B1,1141.0,0.25,100,91.45
8686,B1,1141.008,0.5,100,91.45
8687,A2,1141.5,0.5,100,91.45
8688,A1,1141.5,0.5,100,91.45
8689,E2,1141.5,0.25,100,91.45
8690,E2,1141.508,0.5,100,91.45
8691,E2,1142.0,0.5,100,91.45
8692,E1,1142.0,0.5,100,91.45
8693,E3,1142.0,0.25,100,91.45
8694,B1,1142.0,0.25,100,91.45
8695,B1,1142.008,0.5,100,91.45
8696,E2,1142.5,0.5,100,91.45
8697,E1,1142.5,0.5,100,91.45
8698,D2,1142.508,0.5,100,91.45
8699,B1,1143.0,0.5,100,91.45
8700,B1,1143.0,0.25,100,91.45
8701,B2,1143.008,0.5,100,91.45
8702,A1,1143.008,0.5,100,91.45
8703,D2,1143.5,0.5,100,91.45
8704,E2,1143.5,0.25,100,91.45
8705,F3,1143.5,0.25,100,91.45
8706,D3,1143.508,0.5,100,91.45
8707,B1,1143.508,0.5,100,91.45
8708,B1,1144.0,0.5,100,91.45
8709,G4,1144.0,0.5,80,91.45
8710,E4,1144.0,0.5,80,91.45
8711,C4,1144.0,0.5,80,91.45
8712,B2,1144.008,0.5,100,91.45
8713,G1,1144.008,0.5,100,91.45
8714,E2,1144.5,0.5,100,91.45
8715,F3,1144.5,0.25,100,91.45
8716,B1,1144.5,0.25,100,91.45
8717,E3,1144.508,0.5,100,91.45
8718,A1,1144.508,0.5,100,91.45
8719,B1,1145.0,0.5,100,91.45
8720,B1,1145.0,0.25,100,91.45
8721,B2,1145.008,0.5,100,91.45
8722,E1,1145.008,123/250,100,91.45
8723,D2,1145.5,0.5,100,91.45
8724,E1,1145.5,127/250,100,91.45
8725,F3,1145.5,0.25,100,91.45
8726,E2,1145.5,0.25,100,91.45
8727,D3,1145.508,0.5,100,91.45
8728,A1,1146.0,0.5,100,91.45
8729,A2,1146.008,0.5,100,91.45
8730,B1,1146.017,0.5,100,91.45
8731,B1,1146.5,0.5,100,91.45
8732,F3,1146.5,0.25,100,91.45
8733,B1,1146.5,0.25,100,91.45
8734,B2,1146.508,0.5,100,91.45
8735,D2,1146.517,0.5,100,91.45
8736,G1,1147.0,0.5,100,91.45
8737,F3,1147.0,0.25,100,91.45
8738,B1,1147.0,0.25,100,91.45
8739,G2,1147.008,0.5,100,91.45
8740,B1,1147.017,0.5,100,91.45
8741,A1,1147.5,0.5,100,91.45
8742,E2,1147.5,0.25,100,91.45
8743,A2,1147.508,0.5,100,91.45
8744,E2,1147.517,0.5,100,91.45
8745,E1,1148.0,0.5,100,91.45
8746,E3,1148.0,0.25,100,91.45
8747,B1,1148.0,0.25,100,91.45
8748,E2,1148.008,123/250,100,91.45
8749,B1,1148.017,0.5,100,91.45
8750,E2,1148.5,127/250,100,91.45
8751,E1,1148.5,0.5,100,91.45
8752,D2,1148.517,0.5,100,91.45
8753,B1,1149.0,0.5,100,91.45
8754,B1,1149.0,0.25,100,91.45
8755,B2,1149.017,0.5,100,91.45
8756,A1,1149.017,0.5,100,91.45
8757,D2,1149.5,0.5,100,91.45
8758,E2,1149.5,0.25,100,91.45
8759,F3,1149.5,0.25,100,91.45
8760,D3,1149.517,0.5,100,91.45
8761,B1,1149.517,0.5,100,91.45
8762,B1,1150.0,0.5,100,91.45
8763,B1,1150.0,0.25,100,91.45
8764,G4,1150.0,5.5,80,91.45
8765,E4,1150.0,5.5,80,91.45
8766,C4,1150.0,5.5,80,91.45
8767,B2,1150.017,0.5,100,91.45
8768,G1,1150.017,0.5,100,91.45
8769,E2,1150.5,0.5,100,91.45
8770,F3,1150.5,0.25,100,91.45
8771,E2,1150.5,0.25,100,91.45
8772,E3,1150.517,0.5,100,91.45
8773,A1,1150.517,0.5,100,91.45
8774,B1,1151.0,0.5,100,91.45
8775,B1,1151.0,0.25,100,91.45
8776,B2,1151.017,0.5,100,91.45
8777,E1,1151.017,483/1000,100,91.45
8778,D2,1151.5,0.5,100,91.45
8779,E1,1151.5,517/1000,100,91.45
8780,F3,1151.5,0.25,100,91.45
8781,E2,1151.5,0.25,100,91.45
8782,D3,1151.517,0.5,100,91.45
8783,A1,1152.0,0.5,100,91.45
8784,B1,1152.0,0.25,100,91.45
8785,A2,1152.017,0.5,100,91.45
8786,B1,1152.025,0.5,100,91.45
8787,B1,1152.5,0.5,100,91.45
8788,F3,1152.5,0.25,100,91.45
8789,E2,1152.5,0.25,100,91.45
8790,B2,1152.517,0.5,100,91.45
8791,D2,1152.525,0.5,100,91.45
8792,G1,1153.0,0.5,100,91.45
8793,F3,1153.0,0.25,100,91.45
8794,B1,1153.0,0.25,100,91.45
8795,G2,1153.017,0.5,100,91.45
8796,B1,1153.025,0.5,100,91.45
8797,A1,1153.5,0.5,100,91.45
8798,E2,1153.5,0.25,100,91.45
8799,A2,1153.517,0.5,100,91.45
8800,E2,1153.525,0.5,100,91.45
8801,E1,1154.0,0.5,100,91.45
8802,E3,1154.0,0.25,100,91.45
8803,B1,1154.0,0.25,100,91.45
8804,E2,1154.017,483/1000,100,91.45
8805,B1,1154.025,0.5,100,91.45
8806,E2,1154.5,517/1000,100,91.45
8807,E1,1154.5,0.5,100,91.45
8808,D2,1154.525,0.5,100,91.45
8809,B1,1155.0,0.5,100,91.45
8810,B1,1155.0,0.25,100,91.45
8811,B2,1155.025,0.5,100,91.45
8812,A1,1155.025,0.5,100,91.45
8813,D2,1155.5,0.5,100,91.45
8814,F#4,1155.5,0.5,80,91.45
8815,A4,1155.5,0.5,80,91.45
8816,D4,1155.5,0.5,80,91.45
8817,E2,1155.5,0.25,100,91.45
8818,E-3,1155.5,0.25,100,91.45
8819,D3,1155.525,0.5,100,91.45
8820,B1,1155.525,0.5,100,91.45
8821,B1,1156.0,0.5,100,91.45
8822,B2,1156.025,0.5,100,91.45
8823,G1,1156.025,0.5,100,91.45
8824,E2,1156.5,0.5,100,91.45
8825,F3,1156.5,0.25,100,91.45
8826,B1,1156.5,0.25,100,91.45
8827,E3,1156.525,0.5,100,91.45
8828,A1,1156.525,0.5,100,91.45
8829,B1,1157.0,0.5,100,91.45
8830,B1,1157.0,0.25,100,91.45
8831,B2,1157.025,0.5,100,91.45
8832,E1,1157.025,19/40,100,91.45
8833,D2,1157.5,0.5,100,91.45
8834,E1,1157.5,21/40,100,91.45
8835,F3,1157.5,0.25,100,91.45
8836,E2,1157.5,0.25,100,91.45
8837,D3,1157.525,0.5,100,91.45
8838,A1,1158.0,0.5,100,91.45
8839,A2,1158.025,0.5,100,91.45
8840,B1,1158.033,0.5,100,91.45
8841,B1,1158.5,0.5,100,91.45
8842,F3,1158.5,0.25,100,91.45
8843,B1,1158.5,0.25,100,91.45
8844,B2,1158.525,0.5,100,91.45
8845,D2,1158.533,0.5,100,91.45
8846,G1,1159.0,0.5,100,91.45
8847,F3,1159.0,0.25,100,91.45
8848,B1,1159.0,0.25,100,91.45
8849,G2,1159.025,0.5,100,91.45
8850,B1,1159.033,0.5,100,91.45
8851,A1,1159.5,0.5,100,91.45
8852,E2,1159.5,0.25,100,91.45
8853,A2,1159.525,0.5,100,91.45
8854,E2,1159.533,0.5,100,91.45
8855,E1,1160.0,0.5,100,91.45
8856,E3,1160.0,0.25,100,91.45
8857,B1,1160.0,0.25,100,91.45
8858,E2,1160.025,19/40,100,91.45
8859,B1,1160.033,0.5,100,91.45
8860,E2,1160.5,21/40,100,91.45
8861,E1,1160.5,0.5,100,91.45
8862,D2,1160.533,0.5,100,91.45
8863,B1,1161.0,0.5,100,91.45
8864,B1,1161.0,0.25,100,91.45
8865,B2,1161.033,0.5,100,91.45
8866,A1,1161.033,0.5,100,91.45
8867,D2,1161.5,0.5,100,91.45
8868,F#4,1161.5,5.5,80,91.45
8869,A4,1161.5,5.5,80,91.45
8870,D4,1161.5,5.5,80,91.45
8871,E2,1161.5,0.25,100,91.45
8872,F3,1161.5,0.25,100,91.45
8873,D3,1161.533,0.5,100,91.45
8874,B1,1161.533,0.5,100,91.45
8875,B1,1162.0,0.5,100,91.45
8876,B2,1162.033,0.5,100,91.45
8877,G1,1162.033,0.5,100,91.45
8878,E2,1162.5,0.5,100,91.45
8879,F3,1162.5,0.25,100,91.45
8880,B1,1162.5,0.25,100,91.45
8881,E3,1162.533,0.5,100,91.45
8882,A1,1162.533,0.5,100,91.45
8883,B1,1163.0,0.5,100,91.45
8884,B1,1163.0,0.25,100,91.45
8885,B2,1163.033,0.5,100,91.45
8886,E1,1163.033,467/1000,100,91.45
8887,D2,1163.5,0.5,100,91.45
8888,E1,1163.5,533/1000,100,91.45
8889,F3,1163.5,0.25,100,91.45
8890,E2,1163.5,0.25,100,91.45
8891,D3,1163.533,0.5,100,91.45
8892,A1,1164.0,0.5,100,91.45
8893,A2,1164.033,0.5,100,91.45
8894,B1,1164.042,0.5,100,91.45
8895,B1,1164.5,0.5,100,91.45
8896,F3,1164.5,0.25,100,91.45
8897,B1,1164.5,0.25,100,91.45
8898,B2,1164.533,0.5,100,91.45
8899,D2,1164.542,0.5,100,91.45
8900,G1,1165.0,0.5,100,91.45
8901,F3,1165.0,0.25,100,91.45
8902,B1,1165.0,0.25,100,91.45
8903,G2,1165.033,0.5,100,91.45
8904,B1,1165.042,0.5,100,91.45
8905,B1,1165.25,0.25,100,91.45
8906,A1,1165.5,0.5,100,91.45
8907,E2,1165.5,0.25,100,91.45
8908,A2,1165.533,0.5,100,91.45
8909,E2,1165.542,0.5,100,91.45
8910,E1,1166.0,0.5,100,91.45
8911,E3,1166.0,0.25,100,91.45
8912,B1,1166.0,0.25,100,91.45
8913,E2,1166.033,467/1000,100,91.45
8914,B1,1166.042,0.5,100,91.45
8915,E2,1166.5,533/1000,100,91.45
8916,E1,1166.5,0.5,100,91.45
8917,D2,1166.542,0.5,100,91.45
8918,B1,1167.0,0.5,100,91.45
8919,B1,1167.0,0.25,100,91.45
8920,E4,1167.0,0.5,80,91.45
8921,A4,1167.0,0.5,80,91.45
8922,C#4,1167.0,0.5,80,91.45
8923,B2,1167.042,0.5,100,91.45
8924,A1,1167.042,0.5,100,91.45
8925,D2,1167.5,0.5,100,91.45
8926,E2,1167.5,0.25,100,91.45
8927,F3,1167.5,0.25,100,91.45
8928,D3,1167.542,0.5,100,91.45
8929,B1,1167.542,0.5,100,91.45
8930,B1,1168.0,0.5,100,91.45
8931,B2,1168.042,0.5,100,91.45
8932,G1,1168.042,0.5,100,91.45
8933,E2,1168.5,0.5,100,91.45
8934,F3,1168.5,0.25,100,91.45
8935,B1,1168.5,0.25,100,91.45
8936,E3,1168.542,0.5,100,91.45
8937,A1,1168.542,0.5,100,91.45
8938,B1,1169.0,0.5,100,91.45
8939,B1,1169.0,0.25,100,91.45
8940,B2,1169.042,0.5,100,91.45
8941,E1,1169.042,229/500,100,91.45
8942,D2,1169.5,0.5,100,91.45
8943,E1,1169.5,271/500,100,91.45
8944,F3,1169.5,0.25,100,91.45
8945,E2,1169.5,0.25,100,91.45
8946,D3,1169.542,0.5,100,91.45
8947,A1,1170.0,0.5,100,91.45
8948,A2,1170.042,0.5,100,91.45
8949,B1,1170.05,0.5,100,91.45
8950,B1,1170.5,0.5,100,91.45
8951,F3,1170.5,0.25,100,91.45
8952,B1,1170.5,0.25,100,91.45
8953,B2,1170.542,0.5,100,91.45
8954,D2,1170.55,0.5,100,91.45
8955,G1,1171.0,0.5,100,91.45
8956,F3,1171.0,0.25,100,91.45
8957,B1,1171.0,0.25,100,91.45
8958,G2,1171.042,0.5,100,91.45
8959,B1,1171.05,0.5,100,91.45
8960,A1,1171.5,0.5,100,91.45
8961,E2,1171.5,0.25,100,91.45
8962,A2,1171.542,0.5,100,91.45
8963,E2,1171.55,0.5,100,91.45
8964,E1,1172.0,0.5,100,91.45
8965,E3,1172.0,0.25,100,91.45
8966,B1,1172.0,0.25,100,91.45
8967,E2,1172.042,229/500,100,91.45
8968,B1,1172.05,0.5,100,91.45
8969,E2,1172.5,271/500,100,91.45
8970,E1,1172.5,0.5,100,91.45
8971,D2,1172.55,0.5,100,91.45
8972,B1,1173.0,0.5,100,91.45
8973,B1,1173.0,0.25,100,91.45
8974,E4,1173.0,5.5,80,91.45
8975,A4,1173.0,5.5,80,91.45
8976,C#4,1173.0,5.5,80,91.45
8977,B2,1173.05,0.5,100,91.45
8978,A1,1173.05,0.5,100,91.45
8979,D2,1173.5,0.5,100,91.45
8980,E2,1173.5,0.25,100,91.45
8981,G3,1173.5,0.25,100,91.45
8982,D3,1173.55,0.5,100,91.45
8983,B1,1173.55,0.5,100,91.45
8984,B1,1174.0,0.5,100,91.45
8985,B2,1174.05,0.5,100,91.45
8986,G1,1174.05,0.5,100,91.45
8987,E2,1174.5,0.5,100,91.45
8988,F3,1174.5,0.25,100,91.45
8989,B1,1174.5,0.25,100,91.45
8990,E3,1174.55,0.5,100,91.45
8991,A1,1174.55,0.5,100,91.45
8992,B1,1175.0,0.5,100,91.45
8993,B1,1175.0,0.25,100,91.45
8994,B2,1175.05,0.5,100,91.45
8995,E1,1175.05,9/20,100,91.45
8996,D2,1175.5,0.5,100,91.45
8997,E1,1175.5,11/20,100,91.45
8998,F3,1175.5,0.25,100,91.45
8999,E2,1175.5,0.25,100,91.45
9000,D3,1175.55,0.5,100,91.45
9001,A1,1176.0,0.5,100,91.45
9002,A2,1176.05,0.5,100,91.45
9003,B1,1176.058,0.5,100,91.45
9004,B1,1176.5,0.5,100,91.45
9005,F3,1176.5,0.25,100,91.45
9006,B1,1176.5,0.25,100,91.45
9007,B2,1176.55,0.5,100,91.45
9008,D2,1176.558,0.5,100,91.45
9009,G1,1177.0,0.5,100,91.45
9010,F3,1177.0,0.25,100,91.45
9011,B1,1177.0,0.25,100,91.45
9012,G2,1177.05,0.5,100,91.45
9013,B1,1177.058,0.5,100,91.45
9014,A1,1177.5,0.5,100,91.45
9015,E2,1177.5,0.25,100,91.45
9016,A2,1177.55,0.5,100,91.45
9017,E2,1177.558,0.5,100,91.45
9018,D1,1178.0,1.0,100,91.45
9019,A3,1178.0,0.25,100,91.45
9020,B1,1178.0,0.25,100,91.45
9021,E2,1178.05,9/20,100,91.45
9022,B1,1178.058,0.5,100,91.45
9023,E2,1178.5,11/20,100,91.45
9024,B3,1178.5,0.5,80,91.45
9025,E4,1178.5,0.5,80,91.45
9026,G#4,1178.5,0.5,80,91.45
9027,D2,1178.558,0.5,100,91.45
9028,B4,1179.0,0.5,100,91.45
9029,E1,1179.0,0.5,100,91.45
9030,B1,1179.0,0.25,100,91.45
9031,C#3,1179.0,0.25,100,91.45
9032,B2,1179.058,0.5,100,91.45
9033,A1,1179.058,0.5,100,91.45
9034,B4,1179.5,0.5,100,91.45
9035,E1,1179.5,0.5,100,91.45
9036,D3,1179.558,0.5,100,91.45
9037,B1,1179.558,0.5,100,91.45
9038,B4,1180.0,0.5,100,91.45
9039,E1,1180.0,0.5,100,91.45
9040,B1,1180.0,0.25,100,91.45
9041,B2,1180.058,0.5,100,91.45
9042,G1,1180.058,0.5,100,91.45
9043,B4,1180.5,0.5,100,91.45
9044,E2,1180.5,0.5,100,91.45
9045,E2,1180.5,0.25,100,91.45
9046,E3,1180.5,0.25,100,91.45
9047,E3,1180.558,0.5,100,91.45
9048,A1,1180.558,0.5,100,91.45
9049,B4,1181.0,0.5,100,91.45
9050,E2,1181.0,0.5,100,91.45
9051,B2,1181.058,0.5,100,91.45
9052,E1,1181.058,221/500,100,91.45
9053,B4,1181.5,1.0,100,91.45
9054,E1,1181.5,0.5,100,91.45
9055,E1,1181.5,279/500,100,91.45
9056,B1,1181.5,0.25,100,91.45
9057,E3,1181.5,0.25,100,91.45
9058,D3,1181.558,0.5,100,91.45
9059,E1,1182.0,0.5,100,91.45
9060,B1,1182.0,0.5,100,91.45
9061,B1,1182.0,0.25,100,91.45
9062,A2,1182.058,0.5,100,91.45
9063,B4,1182.5,0.5,100,91.45
9064,E2,1182.5,0.5,100,91.45
9065,D2,1182.5,0.5,100,91.45
9066,E2,1182.5,0.25,100,91.45
9067,E3,1182.5,0.25,100,91.45
9068,B2,1182.558,0.5,100,91.45
9069,B4,1183.0,0.5,100,91.45
9070,E2,1183.0,0.5,100,91.45
9071,B1,1183.0,0.5,100,91.45
9072,G2,1183.058,0.5,100,91.45
9073,B4,1183.5,1.0,100,91.45
9074,E1,1183.5,0.5,100,91.45
9075,E2,1183.5,0.5,100,91.45
9076,B1,1183.5,0.25,100,91.45
9077,E3,1183.5,0.25,100,91.45
9078,A2,1183.558,0.5,100,91.45
9079,E1,1184.0,0.5,100,91.45
9080,B1,1184.0,0.5,100,91.45
9081,B1,1184.0,0.25,100,91.45
9082,E3,1184.0,0.25,100,91.45
9083,E2,1184.058,221/500,100,91.45
9084,E2,1184.5,279/500,100,91.45
9085,B4,1184.5,0.5,100,91.45
9086,E2,1184.5,0.5,100,91.45
9087,D2,1184.5,0.5,100,91.45
9088,E2,1184.5,0.25,100,91.45
9089,B3,1184.5,5.5,80,91.45
9090,E4,1184.5,5.5,80,91.45
9091,G#4,1184.5,5.5,80,91.45
9092,B2,1185.0,0.5,100,91.45
9093,C5,1185.0,0.5,100,91.45
9094,G2,1185.0,0.5,100,91.45
9095,A1,1185.0,0.5,100,91.45
9096,B1,1185.0,0.25,100,91.45
9097,C#3,1185.0,0.25,100,91.45
9098,D3,1185.5,0.5,100,91.45
9099,C5,1185.5,0.5,100,91.45
9100,G2,1185.5,0.5,100,91.45
9101,B1,1185.5,0.5,100,91.45
9102,B2,1186.0,0.5,100,91.45
9103,C5,1186.0,0.5,100,91.45
9104,G2,1186.0,0.5,100,91.45
9105,G1,1186.0,0.5,100,91.45
9106,B1,1186.0,0.25,100,91.45
9107,E3,1186.5,0.5,100,91.45
9108,C5,1186.5,0.5,100,91.45
9109,G3,1186.5,0.5,100,91.45
9110,A1,1186.5,0.5,100,91.45
9111,E2,1186.5,0.25,100,91.45
9112,E3,1186.5,0.25,100,91.45
9113,B2,1187.0,0.5,100,91.45
9114,C5,1187.0,0.5,100,91.45
9115,G3,1187.0,0.5,100,91.45
9116,D1,1187.0,1.0,100,91.45
9117,D3,1187.5,0.5,100,91.45
9118,C5,1187.5,1.0,100,91.45
9119,G2,1187.5,0.5,100,91.45
9120,B1,1187.5,0.25,100,91.45
9121,E3,1187.5,0.25,100,91.45
9122,A2,1188.0,0.5,100,91.45
9123,G2,1188.0,0.5,100,91.45
9124,B1,1188.0,0.25,100,91.45
9125,B2,1188.5,0.5,100,91.45
9126,C5,1188.5,0.5,100,91.45
9127,G3,1188.5,0.5,100,91.45
9128,E2,1188.5,0.25,100,91.45
9129,E3,1188.5,0.25,100,91.45
9130,G2,1189.0,0.5,100,91.45
9131,C5,1189.0,0.5,100,91.45
9132,G3,1189.0,0.5,100,91.45
9133,A2,1189.5,0.5,100,91.45
9134,C5,1189.5,1.0,100,91.45
9135,G2,1189.5,0.5,100,91.45
9136,B1,1189.5,0.25,100,91.45
9137,E3,1189.5,0.25,100,91.45
9138,D2,1190.0,1.0,100,91.45
9139,G2,1190.0,0.5,100,91.45
9140,G4,1190.0,0.5,80,91.45
9141,E4,1190.0,0.5,80,91.45
9142,C4,1190.0,0.5,80,91.45
9143,B1,1190.0,0.25,100,91.45
9144,E3,1190.0,0.25,100,91.45
9145,C5,1190.5,0.5,100,91.45
9146,G3,1190.5,0.5,100,91.45
9147,E2,1190.5,0.25,100,91.45
9148,D5,1191.0,0.5,100,91.45
9149,A3,1191.0,0.5,100,91.45
9150,B1,1191.0,0.25,100,91.45
9151,C#3,1191.0,0.25,100,91.45
9152,D5,1191.5,0.5,100,91.45
9153,A3,1191.5,0.5,100,91.45
9154,A2,1192.0,0.5,100,91.45
9155,B1,1192.0,0.25,100,91.45
9156,D5,1192.5,0.5,100,91.45
9157,A3,1192.5,0.5,100,91.45
9158,E2,1192.5,0.25,100,91.45
9159,E3,1192.5,0.25,100,91.45
9160,D5,1193.0,0.5,100,91.45
9161,A3,1193.0,0.5,100,91.45
9162,D5,1193.5,1.0,100,91.45
9163,A2,1193.5,0.5,100,91.45
9164,B1,1193.5,0.25,100,91.45
9165,E3,1193.5,0.25,100,91.45
9166,A2,1194.0,0.5,100,91.45
9167,B1,1194.0,0.25,100,91.45
9168,D5,1194.5,0.5,100,91.45
9169,A3,1194.5,0.5,100,91.45
9170,E2,1194.5,0.25,100,91.45
9171,E3,1194.5,0.25,100,91.45
9172,D5,1195.0,0.5,100,91.45
9173,A3,1195.0,0.5,100,91.45
9174,D5,1195.5,1.0,100,91.45
9175,A2,1195.5,0.5,100,91.45
9176,B1,1195.5,0.25,100,91.45
9177,E3,1195.5,0.25,100,91.45
9178,A2,1196.0,0.5,100,91.45
9179,G4,1196.0,5.5,80,91.45
9180,E4,1196.0,5.5,80,91.45
9181,C4,1196.0,5.5,80,91.45
9182,B1,1196.0,0.25,100,91.45
9183,E3,1196.0,0.25,100,91.45
9184,D5,1196.5,0.5,100,91.45
9185,A3,1196.5,0.5,100,91.45
9186,E2,1196.5,0.25,100,91.45
9187,E5,1197.0,0.5,100,91.45
9188,A2,1197.0,0.5,100,91.45
9189,B1,1197.0,0.25,100,91.45
9190,C#3,1197.0,0.25,100,91.45
9191,E5,1197.5,0.5,100,91.45
9192,A2,1197.5,0.5,100,91.45
9193,E5,1198.0,0.5,100,91.45
9194,A2,1198.0,0.5,100,91.45
9195,B1,1198.0,0.25,100,91.45
9196,E5,1198.5,0.5,100,91.45
9197,A3,1198.5,0.5,100,91.45
9198,E2,1198.5,0.25,100,91.45
9199,E3,1198.5,0.25,100,91.45
9200,E5,1199.0,0.5,100,91.45
9201,A3,1199.0,0.5,100,91.45
9202,E5,1199.5,1.0,100,91.45
9203,A2,1199.5,0.5,100,91.45
9204,B1,1199.5,0.25,100,91.45
9205,E3,1199.5,0.25,100,91.45
9206,A2,1200.0,0.5,100,91.45
9207,B1,1200.0,0.25,100,91.45
9208,E5,1200.5,0.5,100,91.45
9209,A3,1200.5,0.5,100,91.45
9210,E2,1200.5,0.25,100,91.45
9211,E3,1200.5,0.25,100,91.45
9212,E5,1201.0,0.5,100,91.45
9213,A3,1201.0,0.5,100,91.45
9214,B1,1201.0,0.25,100,91.45
9215,E5,1201.5,1.0,100,91.45
9216,A2,1201.5,0.5,100,91.45
9217,F#4,1201.5,0.5,80,91.45
9218,A4,1201.5,0.5,80,91.45
9219,D4,1201.5,0.5,80,91.45
9220,E2,1201.5,0.25,100,91.45
9221,E3,1201.5,0.25,100,91.45
9222,A2,1202.0,0.5,100,91.45
9223,B1,1202.0,0.25,100,91.45
9224,E5,1202.5,0.5,100,91.45
9225,A2,1202.5,0.5,100,91.45
9226,E2,1202.5,0.25,100,91.45
9227,E5,1203.0,0.5,100,91.45
9228,B2,1203.0,0.5,100,91.45
9229,B1,1203.0,0.25,100,91.45
9230,C#3,1203.0,0.25,100,91.45
9231,E5,1203.5,0.5,100,91.45
9232,B2,1203.5,0.5,100,91.45
9233,E5,1204.0,0.5,100,91.45
9234,B2,1204.0,0.5,100,91.45
9235,B1,1204.0,0.25,100,91.45
9236,E5,1204.5,0.5,100,91.45
9237,B2,1204.5,0.5,100,91.45
9238,E2,1204.5,0.25,100,91.45
9239,E3,1204.5,0.25,100,91.45
9240,E5,1205.0,0.5,100,91.45
9241,B2,1205.0,0.5,100,91.45
9242,E5,1205.5,1.0,100,91.45
9243,B2,1205.5,0.5,100,91.45
9244,B1,1205.5,0.25,100,91.45
9245,E3,1205.5,0.25,100,91.45
9246,B2,1206.0,0.5,100,91.45
9247,B1,1206.0,0.25,100,91.45
9248,E5,1206.5,0.5,100,91.45
9249,B2,1206.5,0.5,100,91.45
9250,E2,1206.5,0.25,100,91.45
9251,E3,1206.5,0.25,100,91.45
9252,E5,1207.0,0.5,100,91.45
9253,B2,1207.0,0.5,100,91.45
9254,E5,1207.5,1.0,100,91.45
9255,B2,1207.5,0.5,100,91.45
9256,F#4,1207.5,5.5,80,91.45
9257,A4,1207.5,5.5,80,91.45
9258,D4,1207.5,5.5,80,91.45
9259,B1,1207.5,0.25,100,91.45
9260,E3,1207.5,0.25,100,91.45
9261,B2,1208.0,0.5,100,91.45
9262,B1,1208.0,0.25,100,91.45
9263,E3,1208.0,0.25,100,91.45
9264,E5,1208.5,0.5,100,91.45
9265,B2,1208.5,0.5,100,91.45
9266,E2,1208.5,0.25,100,91.45
9267,G5,1209.0,0.5,115,91.45
9268,C3,1209.0,0.5,100,91.45
9269,B1,1209.0,0.25,100,91.45
9270,C#3,1209.0,0.25,100,91.45
9271,G5,1209.5,0.5,115,91.45
9272,C3,1209.5,0.5,100,91.45
9273,G5,1210.0,0.5,115,91.45
9274,C3,1210.0,0.5,100,91.45
9275,B1,1210.0,0.25,100,91.45
9276,G5,1210.5,0.5,116,91.45
9277,C3,1210.5,0.5,100,91.45
9278,E2,1210.5,0.25,100,91.45
9279,E3,1210.5,0.25,100,91.45
9280,G5,1211.0,0.5,116,91.45
9281,C3,1211.0,0.5,100,91.45
9282,G5,1211.5,1.0,116,91.45
9283,C3,1211.5,0.5,100,91.45
9284,B1,1211.5,0.25,100,91.45
9285,E3,1211.5,0.25,100,91.45
9286,C3,1212.0,0.5,100,91.45
9287,B1,1212.0,0.25,100,91.45
9288,G5,1212.5,0.5,117,91.45
9289,C3,1212.5,0.5,100,91.45
9290,E2,1212.5,0.25,100,91.45
9291,E3,1212.5,0.25,100,91.45
9292,G5,1213.0,0.5,117,91.45
9293,C3,1213.0,0.5,100,91.45
9294,E4,1213.0,0.5,80,91.45
9295,A4,1213.0,0.5,80,91.45
9296,C#4,1213.0,0.5,80,91.45
9297,G5,1213.5,1.0,118,91.45
9298,C3,1213.5,0.5,100,91.45
9299,B1,1213.5,0.25,100,91.45
9300,E3,1213.5,0.25,100,91.45
9301,C3,1214.0,0.5,100,91.45
9302,B1,1214.0,0.25,100,91.45
9303,E3,1214.0,0.25,100,91.45
9304,G5,1214.5,0.5,118,91.45
9305,C3,1214.5,0.5,100,91.45
9306,E2,1214.5,0.25,100,91.45
9307,A5,1215.0,0.5,119,91.45
9308,D3,1215.0,0.5,100,91.45
9309,B1,1215.0,0.25,100,91.45
9310,C#3,1215.0,0.25,100,91.45
9311,A5,1215.5,0.5,119,91.45
9312,D3,1215.5,0.5,100,91.45
9313,A5,1216.0,0.5,120,91.45
9314,D3,1216.0,0.5,100,91.45
9315,B1,1216.0,0.25,100,91.45
9316,A5,1216.5,0.5,120,91.45
9317,D3,1216.5,0.5,100,91.45
9318,E2,1216.5,0.25,100,91.45
9319,E3,1216.5,0.25,100,91.45
9320,A5,1217.0,0.5,120,91.45
9321,D3,1217.0,0.5,100,91.45
9322,A5,1217.5,1.0,121,91.45
9323,D3,1217.5,0.5,100,91.45
9324,B1,1217.5,0.25,100,91.45
9325,E3,1217.5,0.25,100,91.45
9326,D3,1218.0,0.5,100,91.45
9327,B1,1218.0,0.25,100,91.45
9328,A5,1218.5,0.5,121,91.45
9329,D3,1218.5,0.5,100,91.45
9330,E2,1218.5,0.25,100,91.45
9331,E3,1218.5,0.25,100,91.45
9332,A5,1219.0,0.5,122,91.45
9333,D3,1219.0,0.5,100,91.45
9334,E4,1219.0,5.5,80,91.45
9335,A4,1219.0,5.5,80,91.45
9336,C#4,1219.0,5.5,80,91.45
9337,A5,1219.5,1.0,122,91.45
9338,D3,1219.5,0.5,100,91.45
9339,B1,1219.5,0.25,100,91.45
9340,E3,1219.5,0.25,100,91.45
9341,D3,1220.0,0.5,100,91.45
9342,B1,1220.0,0.25,100,91.45
9343,E3,1220.0,0.25,100,91.45
9344,A5,1220.5,0.5,123,91.45
9345,D3,1220.5,0.5,100,91.45
9346,E2,1220.5,0.25,100,91.45
9347,D6,1221.0,0.5,123,91.45
9348,C#3,1221.0,0.5,100,91.45
9349,B1,1221.0,0.25,100,91.45
9350,C#3,1221.0,0.25,100,91.45
9351,D6,1221.5,0.5,123,91.45
9352,C#3,1221.5,0.5,100,91.45
9353,E6,1222.0,0.5,124,91.45
9354,C#3,1222.0,0.5,100,91.45
9355,B1,1222.0,0.25,100,91.45
9356,E6,1222.5,0.5,124,91.45
9357,C#3,1222.5,0.5,100,91.45
9358,E2,1222.5,0.25,100,91.45
9359,E3,1222.5,0.25,100,91.45
9360,E6,1223.0,0.5,125,91.45
9361,C#3,1223.0,0.5,100,91.45
9362,E6,1223.5,1.0,125,91.45
9363,C#3,1223.5,0.5,100,91.45
9364,E3,1223.5,0.25,100,91.45
9365,B1,1223.5,0.25,100,91.45
9366,C#3,1224.0,0.5,100,91.45
9367,B1,1224.0,0.25,100,91.45
9368,E6,1224.5,0.5,126,91.45
9369,C#3,1224.5,0.5,100,91.45
9370,B3,1224.5,0.5,80,91.45
9371,E4,1224.5,0.5,80,91.45
9372,G#4,1224.5,0.5,80,91.45
9373,E3,1224.5,0.25,100,91.45
9374,E2,1224.5,0.25,100,91.45
9375,E6,1225.0,0.5,126,91.45
9376,C#3,1225.0,0.5,100,91.45
9377,E6,1225.5,1.0,126,91.45
9378,C#3,1225.5,0.5,100,91.45
9379,E3,1225.5,0.25,100,91.45
9380,B1,1225.5,0.25,100,91.45
9381,C#3,1226.0,0.5,100,91.45
9382,E3,1226.0,0.25,100,91.45
9383,B1,1226.0,0.25,100,91.45
9384,E6,1226.5,0.5,127,91.45
9385,C#3,1226.5,0.5,100,91.45
9386,E2,1226.5,0.25,100,91.45
9387,E6,1227.0,0.5,127,91.45
9388,D3,1227.0,0.5,100,91.45
9389,C#3,1227.0,0.25,100,91.45
9390,B1,1227.0,0.25,100,91.45
9391,E6,1227.5,2.0,127,91.45
9392,D3,1227.5,0.5,100,91.45
9393,E3,1228.0,3.0,100,91.45
9394,B1,1228.0,0.25,100,91.45
9395,A3,1228.0,0.25,100,91.45
9396,D5,1229.5,1.125,65,91.45
9397,B3,1230.5,5.5,80,91.45
9398,E4,1230.5,5.5,80,91.45
9399,G#4,1230.5,5.5,80,91.45
9400,G4,1236.0,0.5,80,91.45
9401,E4,1236.0,0.5,80,91.45
9402,C4,1236.0,0.5,80,91.45
9403,G4,1242.0,5.5,80,91.45
9404,E4,1242.0,5.5,80,91.45
9405,C4,1242.0,5.5,80,91.45
9406,F#4,1247.5,0.5,80,91.45
9407,A4,1247.5,0.5,80,91.45
9408,D4,1247.5,0.5,80,91.45
9409,F#4,1253.5,5.5,80,91.45
9410,A4,1253.5,5.5,80,91.45
9411,D4,1253.5,5.5,80,91.45
9412,E4,1259.0,0.5,80,91.45
9413,A4,1259.0,0.5,80,91.45
9414,C#4,1259.0,0.5,80,91.45
9415,E4,1265.0,5.5,80,91.45
9416,A4,1265.0,5.5,80,91.45
9417,C#4,1265.0,5.5,80,91.45
9418,A4,1270.5,1.0,80,91.45
9419,F#4,1270.5,1.0,80,91.45
9420,D4,1270.5,1.0,80,91.45
9421,B4,1271.5,0.5,80,91.45
9422,B3,1271.5,0.5,80,91.45
9423,E4,1271.5,0.5,80,91.45
9424,G#4,1271.5,0.5,80,91.45
9425,B4,1277.5,5.5,80,91.45
9426,B3,1277.5,5.5,80,91.45
9427,E4,1277.5,5.5,80,91.45
9428,G#4,1277.5,5.5,80,91.45
9429,C5,1283.0,0.5,80,91.45
9430,G4,1283.0,0.5,80,91.45
9431,E4,1283.0,0.5,80,91.45
9432,C4,1283.0,0.5,80,91.45
9433,C5,1289.0,5.5,80,91.45
9434,G4,1289.0,5.5,80,91.45
9435,E4,1289.0,5.5,80,91.45
9436,C4,1289.0,5.5,80,91.45
9437,D5,1294.5,0.5,80,91.45
9438,F#4,1294.5,0.5,80,91.45
9439,A4,1294.5,0.5,80,91.45
9440,D4,1294.5,0.5,80,91.45
9441,D5,1300.5,5.5,80,91.45
9442,F#4,1300.5,5.5,80,91.45
9443,A4,1300.5,5.5,80,91.45
9444,D4,1300.5,5.5,80,91.45
9445,C#5,1306.0,0.5,80,91.45
9446,E4,1306.0,0.5,80,91.45
9447,A4,1306.0,0.5,80,91.45
9448,C#4,1306.0,0.5,80,91.45
9449,C#5,1312.0,5.5,80,91.45
9450,E4,1312.0,5.5,80,91.45
9451,A4,1312.0,5.5,80,91.45
9452,C#4,1312.0,5.5,80,91.45
9453,B4,1317.5,0.5,80,91.45
9454,B3,1317.5,0.5,80,91.45
9455,E4,1317.5,0.5,80,91.45
9456,G#4,1317.5,0.5,80,91.45
9457,B4,1323.5,5.5,80,91.45
9458,B3,1323.5,5.5,80,91.45
9459,E4,1323.5,5.5,80,91.45
9460,G#4,1323.5,5.5,80,91.45
9461,C5,1329.0,0.5,80,91.45
9462,G4,1329.0,0.5,80,91.45
9463,E4,1329.0,0.5,80,91.45
9464,C4,1329.0,0.5,80,91.45
9465,C5,1335.0,5.5,80,91.45
9466,G4,1335.0,5.5,80,91.45
9467,E4,1335.0,5.5,80,91.45
9468,C4,1335.0,5.5,80,91.45
9469,D5,1340.5,0.5,80,91.45
9470,F#4,1340.5,0.5,80,91.45
9471,A4,1340.5,0.5,80,91.45
9472,D4,1340.5,0.5,80,91.45
9473,D5,1346.5,5.5,80,91.45
9474,F#4,1346.5,5.5,80,91.45
9475,A4,1346.5,5.5,80,91.45
9476,D4,1346.5,5.5,80,91.45
9477,C#5,1352.0,0.5,80,91.45
9478,E4,1352.0,0.5,80,91.45
9479,A4,1352.0,0.5,80,91.45
9480,C#4,1352.0,0.5,80,91.45
9481,C#5,1358.0,5.5,80,91.45
9482,E4,1358.0,5.5,80,91.45
9483,A4,1358.0,5.5,80,91.45
9484,C#4,1358.0,5.5,80,91.45
9485,D5,1363.5,0.5,80,91.45
9486,A4,1363.5,0.5,80,91.45
9487,F#4,1363.5,0.5,80,91.45
9488,D4,1363.5,0.5,80,91.45
9489,D5,1364.5,0.5,80,91.45
9490,A4,1364.5,0.5,80,91.45
9491,F#4,1364.5,0.5,80,91.45
9492,D4,1364.5,0.5,80,91.45
9493,E4,1365.0,2.0,80,91.45
9494,G#4,1365.0,2.0,80,91.45
9495,B4,1365.0,2.0,80,91.45
9496,E5,1365.0,2.0,80,91.45
