,note_name,start_time,duration,velocity,tempo
0,B2,0.0,0.5,95,135.0
1,B2,0.25,0.5,95,135.0
2,F#3,0.5,0.5,95,135.0
3,B2,0.5,0.5,95,135.0
4,F#3,0.75,0.5,95,135.0
5,B2,0.75,0.5,95,135.0
6,E3,1.0,0.25,95,135.0
7,F#3,1.0,0.5,95,135.0
8,B2,1.0,0.5,95,135.0
9,F#3,1.25,0.25,95,135.0
10,E3,1.25,0.25,95,135.0
11,F#3,1.25,0.5,95,135.0
12,F#3,1.5,0.5,95,135.0
13,F#3,1.5,0.25,95,135.0
14,E3,1.5,0.25,95,135.0
15,F#3,1.5,0.5,95,135.0
16,F#3,1.75,0.5,95,135.0
17,F#3,1.75,0.25,95,135.0
18,E3,1.75,0.25,95,135.0
19,D3,2.0,0.5,95,135.0
20,F#3,2.0,0.5,95,135.0
21,F#3,2.0,0.25,95,135.0
22,E3,2.0,0.25,95,135.0
23,D3,2.25,0.5,95,135.0
24,F#3,2.25,0.5,95,135.0
25,F#3,2.25,0.25,95,135.0
26,F#3,2.5,0.5,95,135.0
27,D3,2.5,0.5,95,135.0
28,F#3,2.5,0.5,95,135.0
29,F#3,2.75,0.5,95,135.0
30,D3,2.75,0.5,95,135.0
31,C#3,3.0,0.25,95,135.0
32,F#3,3.0,0.5,95,135.0
33,D3,3.0,0.5,95,135.0
34,F#3,3.25,0.25,95,135.0
35,C#3,3.25,0.25,95,135.0
36,F#3,3.25,0.5,95,135.0
37,F#3,3.5,0.5,95,135.0
38,F#3,3.5,0.25,95,135.0
39,C#3,3.5,0.25,95,135.0
40,F#3,3.5,0.5,95,135.0
41,F#3,3.75,0.25,95,135.0
42,F#3,3.75,0.25,95,135.0
43,C#3,3.75,0.25,95,135.0
44,B2,4.0,0.5,95,135.0
45,F#3,4.0,0.25,95,135.0
46,F#3,4.0,0.5,95,135.0
47,F#3,4.0,0.25,95,135.0
48,C#3,4.0,0.25,95,135.0
49,B2,4.25,0.5,95,135.0
50,F#3,4.25,0.5,95,135.0
51,F#3,4.25,0.25,95,135.0
52,F#3,4.5,0.5,95,135.0
53,B2,4.5,0.5,95,135.0
54,F#3,4.5,0.5,95,135.0
55,F#3,4.75,0.5,95,135.0
56,B2,4.75,0.5,95,135.0
57,E3,5.0,0.25,95,135.0
58,F#3,5.0,0.5,95,135.0
59,B2,5.0,0.5,95,135.0
60,F#3,5.25,0.25,95,135.0
61,E3,5.25,0.25,95,135.0
62,F#3,5.25,0.5,95,135.0
63,F#3,5.5,0.5,95,135.0
64,F#3,5.5,0.25,95,135.0
65,E3,5.5,0.25,95,135.0
66,F#3,5.5,0.5,95,135.0
67,F#3,5.75,0.5,95,135.0
68,F#3,5.75,0.25,95,135.0
69,E3,5.75,0.25,95,135.0
70,D3,6.0,0.5,95,135.0
71,F#3,6.0,0.5,95,135.0
72,F#3,6.0,0.25,95,135.0
73,E3,6.0,0.25,95,135.0
74,D3,6.25,0.5,95,135.0
75,F#3,6.25,0.5,95,135.0
76,F#3,6.25,0.25,95,135.0
77,F#3,6.5,0.5,95,135.0
78,D3,6.5,0.5,95,135.0
79,F#3,6.5,0.5,95,135.0
80,F#3,6.75,0.5,95,135.0
81,D3,6.75,0.5,95,135.0
82,C#3,7.0,0.25,95,135.0
83,F#3,7.0,0.5,95,135.0
84,D3,7.0,0.5,95,135.0
85,F#3,7.25,0.25,95,135.0
86,C#3,7.25,0.25,95,135.0
87,F#3,7.25,0.5,95,135.0
88,F#3,7.5,0.5,95,135.0
89,F#3,7.5,0.25,95,135.0
90,C#3,7.5,0.25,95,135.0
91,F#3,7.5,0.5,95,135.0
92,F#3,7.75,0.25,95,135.0
93,F#3,7.75,0.25,95,135.0
94,C#3,7.75,0.25,95,135.0
95,G2,8.0,0.5,95,135.0
96,F#3,8.0,0.25,95,135.0
97,F#3,8.0,0.5,95,135.0
98,F#3,8.0,0.25,95,135.0
99,C#3,8.0,0.25,95,135.0
100,G2,8.25,0.5,95,135.0
101,F#3,8.25,0.5,95,135.0
102,F#3,8.25,0.25,95,135.0
103,D3,8.5,0.5,95,135.0
104,G2,8.5,0.5,95,135.0
105,F#3,8.5,0.5,95,135.0
106,D3,8.75,0.5,95,135.0
107,G2,8.75,0.5,95,135.0
108,C#3,9.0,0.25,95,135.0
109,D3,9.0,0.5,95,135.0
110,G2,9.0,0.5,95,135.0
111,D3,9.25,0.25,95,135.0
112,C#3,9.25,0.25,95,135.0
113,D3,9.25,0.5,95,135.0
114,D3,9.5,0.5,95,135.0
115,D3,9.5,0.25,95,135.0
116,C#3,9.5,0.25,95,135.0
117,D3,9.5,0.5,95,135.0
118,D3,9.75,0.5,95,135.0
119,D3,9.75,0.25,95,135.0
120,C#3,9.75,0.25,95,135.0
121,B2,10.0,0.5,95,135.0
122,D3,10.0,0.5,95,135.0
123,D3,10.0,0.25,95,135.0
124,C#3,10.0,0.25,95,135.0
125,B2,10.25,0.5,95,135.0
126,D3,10.25,0.5,95,135.0
127,D3,10.25,0.25,95,135.0
128,D3,10.5,0.5,95,135.0
129,B2,10.5,0.5,95,135.0
130,D3,10.5,0.5,95,135.0
131,D3,10.75,0.5,95,135.0
132,B2,10.75,0.5,95,135.0
133,A2,11.0,0.25,95,135.0
134,D3,11.0,0.5,95,135.0
135,B2,11.0,0.5,95,135.0
136,D3,11.25,0.25,95,135.0
137,A2,11.25,0.25,95,135.0
138,D3,11.25,0.5,95,135.0
139,D3,11.5,0.5,95,135.0
140,D3,11.5,0.25,95,135.0
141,A2,11.5,0.25,95,135.0
142,D3,11.5,0.5,95,135.0
143,D3,11.75,0.25,95,135.0
144,D3,11.75,0.25,95,135.0
145,A2,11.75,0.25,95,135.0
146,G2,12.0,0.5,95,135.0
147,D3,12.0,0.25,95,135.0
148,D3,12.0,0.5,95,135.0
149,D3,12.0,0.25,95,135.0
150,A2,12.0,0.25,95,135.0
151,G2,12.25,0.5,95,135.0
152,D3,12.25,0.5,95,135.0
153,D3,12.25,0.25,95,135.0
154,D3,12.5,0.5,95,135.0
155,G2,12.5,0.5,95,135.0
156,D3,12.5,0.5,95,135.0
157,D3,12.75,0.5,95,135.0
158,G2,12.75,0.5,95,135.0
159,C#3,13.0,0.25,95,135.0
160,D3,13.0,0.5,95,135.0
161,G2,13.0,0.5,95,135.0
162,D3,13.25,0.25,95,135.0
163,C#3,13.25,0.25,95,135.0
164,D3,13.25,0.5,95,135.0
165,D3,13.5,0.5,95,135.0
166,D3,13.5,0.25,95,135.0
167,C#3,13.5,0.25,95,135.0
168,D3,13.5,0.5,95,135.0
169,D3,13.75,0.5,95,135.0
170,D3,13.75,0.25,95,135.0
171,C#3,13.75,0.25,95,135.0
172,B2,14.0,0.5,95,135.0
173,D3,14.0,0.5,95,135.0
174,D3,14.0,0.25,95,135.0
175,C#3,14.0,0.25,95,135.0
176,B2,14.25,0.5,95,135.0
177,D3,14.25,0.5,95,135.0
178,D3,14.25,0.25,95,135.0
179,D3,14.5,0.5,95,135.0
180,B2,14.5,0.5,95,135.0
181,D3,14.5,0.5,95,135.0
182,D3,14.75,0.5,95,135.0
183,B2,14.75,0.5,95,135.0
184,A2,15.0,0.25,95,135.0
185,D3,15.0,0.5,95,135.0
186,B2,15.0,0.5,95,135.0
187,D3,15.25,0.25,95,135.0
188,A2,15.25,0.25,95,135.0
189,D3,15.25,0.5,95,135.0
190,D3,15.5,0.5,95,135.0
191,D3,15.5,0.25,95,135.0
192,A2,15.5,0.25,95,135.0
193,D3,15.5,0.5,95,135.0
194,D3,15.75,0.25,95,135.0
195,D3,15.75,0.25,95,135.0
196,A2,15.75,0.25,95,135.0
197,B-2,16.0,0.5,95,135.0
198,D3,16.0,0.25,95,135.0
199,D3,16.0,0.5,95,135.0
200,D3,16.0,0.25,95,135.0
201,A2,16.0,0.25,95,135.0
202,B-2,16.25,0.5,95,135.0
203,D3,16.25,0.5,95,135.0
204,D3,16.25,0.25,95,135.0
205,F#3,16.5,0.5,95,135.0
206,B-2,16.5,0.5,95,135.0
207,D3,16.5,0.5,95,135.0
208,F#3,16.75,0.5,95,135.0
209,B-2,16.75,0.5,95,135.0
210,E3,17.0,0.25,95,135.0
211,F#3,17.0,0.5,95,135.0
212,B-2,17.0,0.5,95,135.0
213,F#3,17.25,0.25,95,135.0
214,E3,17.25,0.25,95,135.0
215,F#3,17.25,0.5,95,135.0
216,F#3,17.5,0.5,95,135.0
217,F#3,17.5,0.25,95,135.0
218,E3,17.5,0.25,95,135.0
219,F#3,17.5,0.5,95,135.0
220,F#3,17.75,0.5,95,135.0
221,F#3,17.75,0.25,95,135.0
222,E3,17.75,0.25,95,135.0
223,D3,18.0,0.5,95,135.0
224,F#3,18.0,0.5,95,135.0
225,F#3,18.0,0.25,95,135.0
226,E3,18.0,0.25,95,135.0
227,D3,18.25,0.5,95,135.0
228,F#3,18.25,0.5,95,135.0
229,F#3,18.25,0.25,95,135.0
230,F#3,18.5,0.5,95,135.0
231,D3,18.5,0.5,95,135.0
232,F#3,18.5,0.5,95,135.0
233,F#3,18.75,0.5,95,135.0
234,D3,18.75,0.5,95,135.0
235,C#3,19.0,0.25,95,135.0
236,F#3,19.0,0.5,95,135.0
237,D3,19.0,0.5,95,135.0
238,F#3,19.25,0.25,95,135.0
239,C#3,19.25,0.25,95,135.0
240,F#3,19.25,0.5,95,135.0
241,F#3,19.5,0.5,95,135.0
242,F#3,19.5,0.25,95,135.0
243,C#3,19.5,0.25,95,135.0
244,F#3,19.5,0.5,95,135.0
245,F#3,19.75,0.25,95,135.0
246,F#3,19.75,0.25,95,135.0
247,C#3,19.75,0.25,95,135.0
248,B2,20.0,0.5,95,135.0
249,F#3,20.0,0.25,95,135.0
250,F#3,20.0,0.5,95,135.0
251,F#3,20.0,0.25,95,135.0
252,C#3,20.0,0.25,95,135.0
253,B2,20.25,0.5,95,135.0
254,F#3,20.25,0.5,95,135.0
255,F#3,20.25,0.25,95,135.0
256,F#3,20.5,0.5,95,135.0
257,B2,20.5,0.5,95,135.0
258,F#3,20.5,0.5,95,135.0
259,F#3,20.75,0.5,95,135.0
260,B2,20.75,0.5,95,135.0
261,E3,21.0,0.25,95,135.0
262,F#3,21.0,0.5,95,135.0
263,B2,21.0,0.5,95,135.0
264,F#3,21.25,0.25,95,135.0
265,E3,21.25,0.25,95,135.0
266,F#3,21.25,0.5,95,135.0
267,F#3,21.5,0.5,95,135.0
268,F#3,21.5,0.25,95,135.0
269,E3,21.5,0.25,95,135.0
270,F#3,21.5,0.5,95,135.0
271,F#3,21.75,0.5,95,135.0
272,F#3,21.75,0.25,95,135.0
273,E3,21.75,0.25,95,135.0
274,D3,22.0,0.5,95,135.0
275,F#3,22.0,0.5,95,135.0
276,F#3,22.0,0.25,95,135.0
277,E3,22.0,0.25,95,135.0
278,D3,22.25,0.5,95,135.0
279,F#3,22.25,0.5,95,135.0
280,F#3,22.25,0.25,95,135.0
281,F#3,22.5,0.5,95,135.0
282,D3,22.5,0.5,95,135.0
283,F#3,22.5,0.5,95,135.0
284,F#3,22.75,0.5,95,135.0
285,D3,22.75,0.5,95,135.0
286,C#3,23.0,0.25,95,135.0
287,F#3,23.0,0.5,95,135.0
288,D3,23.0,0.5,95,135.0
289,F#3,23.25,0.25,95,135.0
290,C#3,23.25,0.25,95,135.0
291,F#3,23.25,0.5,95,135.0
292,F#3,23.5,0.5,95,135.0
293,F#3,23.5,0.25,95,135.0
294,C#3,23.5,0.25,95,135.0
295,F#3,23.5,0.5,95,135.0
296,F#3,23.75,0.25,95,135.0
297,F#3,23.75,0.25,95,135.0
298,C#3,23.75,0.25,95,135.0
299,G2,24.0,0.5,95,135.0
300,F#3,24.0,0.25,95,135.0
301,F#3,24.0,0.5,95,135.0
302,F#3,24.0,0.25,95,135.0
303,C#3,24.0,0.25,95,135.0
304,G2,24.25,0.5,95,135.0
305,F#3,24.25,0.5,95,135.0
306,F#3,24.25,0.25,95,135.0
307,D3,24.5,0.5,95,135.0
308,G2,24.5,0.5,95,135.0
309,F#3,24.5,0.5,95,135.0
310,D3,24.75,0.5,95,135.0
311,G2,24.75,0.5,95,135.0
312,C#3,25.0,0.25,95,135.0
313,D3,25.0,0.5,95,135.0
314,G2,25.0,0.5,95,135.0
315,D3,25.25,0.25,95,135.0
316,C#3,25.25,0.25,95,135.0
317,D3,25.25,0.5,95,135.0
318,D3,25.5,0.5,95,135.0
319,D3,25.5,0.25,95,135.0
320,C#3,25.5,0.25,95,135.0
321,D3,25.5,0.5,95,135.0
322,D3,25.75,0.5,95,135.0
323,D3,25.75,0.25,95,135.0
324,C#3,25.75,0.25,95,135.0
325,A2,26.0,0.5,95,135.0
326,D3,26.0,0.5,95,135.0
327,D3,26.0,0.25,95,135.0
328,C#3,26.0,0.25,95,135.0
329,A2,26.25,0.5,95,135.0
330,D3,26.25,0.5,95,135.0
331,D3,26.25,0.25,95,135.0
332,B2,26.5,0.5,95,135.0
333,A2,26.5,0.5,95,135.0
334,D3,26.5,0.5,95,135.0
335,B2,26.75,0.5,95,135.0
336,A2,26.75,0.5,95,135.0
337,D3,27.0,0.5,95,135.0
338,B2,27.0,0.5,95,135.0
339,A2,27.0,0.5,95,135.0
340,D3,27.25,0.5,95,135.0
341,B2,27.25,0.5,95,135.0
342,C#3,27.5,0.25,95,135.0
343,D3,27.5,0.5,95,135.0
344,B2,27.5,0.5,95,135.0
345,D3,27.75,0.25,95,135.0
346,C#3,27.75,0.25,95,135.0
347,D3,27.75,0.25,95,135.0
348,G2,28.0,0.5,95,135.0
349,D3,28.0,0.25,95,135.0
350,C#3,28.0,0.25,95,135.0
351,D3,28.0,0.25,95,135.0
352,D3,28.0,0.5,95,135.0
353,G2,28.25,0.5,95,135.0
354,D3,28.25,0.25,95,135.0
355,C#3,28.25,0.25,95,135.0
356,D3,28.5,0.5,95,135.0
357,G2,28.5,0.5,95,135.0
358,D3,28.5,0.25,95,135.0
359,C#3,28.5,0.25,95,135.0
360,D3,28.75,0.5,95,135.0
361,G2,28.75,0.5,95,135.0
362,D3,28.75,0.25,95,135.0
363,C#3,29.0,0.25,95,135.0
364,D3,29.0,0.5,95,135.0
365,G2,29.0,0.5,95,135.0
366,D3,29.25,0.25,95,135.0
367,C#3,29.25,0.25,95,135.0
368,D3,29.25,0.5,95,135.0
369,D3,29.5,0.5,95,135.0
370,D3,29.5,0.25,95,135.0
371,C#3,29.5,0.25,95,135.0
372,D3,29.5,0.5,95,135.0
373,D3,29.75,0.5,95,135.0
374,D3,29.75,0.25,95,135.0
375,C#3,29.75,0.25,95,135.0
376,A2,30.0,0.5,95,135.0
377,D3,30.0,0.5,95,135.0
378,D3,30.0,0.25,95,135.0
379,C#3,30.0,0.25,95,135.0
380,A2,30.25,0.5,95,135.0
381,D3,30.25,0.5,95,135.0
382,D3,30.25,0.25,95,135.0
383,B2,30.5,0.5,95,135.0
384,A2,30.5,0.5,95,135.0
385,D3,30.5,0.5,95,135.0
386,B2,30.75,0.5,95,135.0
387,A2,30.75,0.5,95,135.0
388,D3,31.0,0.5,95,135.0
389,B2,31.0,0.5,95,135.0
390,A2,31.0,0.5,95,135.0
391,D3,31.25,0.5,95,135.0
392,B2,31.25,0.5,95,135.0
393,C#3,31.5,0.25,95,135.0
394,D3,31.5,0.5,95,135.0
395,B2,31.5,0.5,95,135.0
396,D3,31.75,0.25,95,135.0
397,C#3,31.75,0.25,95,135.0
398,D3,31.75,0.25,95,135.0
399,F#3,32.0,0.5,95,135.0
400,D3,32.0,0.25,95,135.0
401,C#3,32.0,0.25,95,135.0
402,D3,32.0,0.25,95,135.0
403,D3,32.0,0.5,95,135.0
404,F#3,32.25,0.5,95,135.0
405,D3,32.25,0.25,95,135.0
406,C#3,32.25,0.25,95,135.0
407,B3,32.5,0.5,95,135.0
408,F#3,32.5,0.5,95,135.0
409,D3,32.5,0.25,95,135.0
410,C#3,32.5,0.25,95,135.0
411,B3,32.75,0.5,95,135.0
412,F#3,32.75,0.5,95,135.0
413,D3,32.75,0.25,95,135.0
414,D4,33.0,0.25,95,135.0
415,B3,33.0,0.5,95,135.0
416,F#3,33.0,0.5,95,135.0
417,B3,33.25,0.25,95,135.0
418,D4,33.25,0.25,95,135.0
419,B3,33.25,0.5,95,135.0
420,B3,33.5,0.5,95,135.0
421,B3,33.5,0.25,95,135.0
422,D4,33.5,0.25,95,135.0
423,B3,33.5,0.5,95,135.0
424,B3,33.75,0.5,95,135.0
425,B3,33.75,0.25,95,135.0
426,D4,33.75,0.25,95,135.0
427,F#3,34.0,0.5,95,135.0
428,B3,34.0,0.5,95,135.0
429,B3,34.0,0.25,95,135.0
430,D4,34.0,0.25,95,135.0
431,F#3,34.25,0.5,95,135.0
432,B3,34.25,0.5,95,135.0
433,B3,34.25,0.25,95,135.0
434,B3,34.5,0.5,95,135.0
435,F#3,34.5,0.5,95,135.0
436,B3,34.5,0.5,95,135.0
437,B3,34.75,0.5,95,135.0
438,F#3,34.75,0.5,95,135.0
439,D4,35.0,0.25,95,135.0
440,B3,35.0,0.5,95,135.0
441,F#3,35.0,0.5,95,135.0
442,B3,35.25,0.25,95,135.0
443,D4,35.25,0.25,95,135.0
444,B3,35.25,0.5,95,135.0
445,B3,35.5,0.5,95,135.0
446,B3,35.5,0.25,95,135.0
447,D4,35.5,0.25,95,135.0
448,B3,35.5,0.5,95,135.0
449,B3,35.75,0.25,95,135.0
450,B3,35.75,0.25,95,135.0
451,D4,35.75,0.25,95,135.0
452,F#3,36.0,0.5,95,135.0
453,B3,36.0,0.25,95,135.0
454,B3,36.0,0.5,95,135.0
455,B3,36.0,0.25,95,135.0
456,D4,36.0,0.25,95,135.0
457,F#3,36.25,0.5,95,135.0
458,B3,36.25,0.5,95,135.0
459,B3,36.25,0.25,95,135.0
460,B3,36.5,0.5,95,135.0
461,F#3,36.5,0.5,95,135.0
462,B3,36.5,0.5,95,135.0
463,B3,36.75,0.5,95,135.0
464,F#3,36.75,0.5,95,135.0
465,D4,37.0,0.25,95,135.0
466,B3,37.0,0.5,95,135.0
467,F#3,37.0,0.5,95,135.0
468,B3,37.25,0.25,95,135.0
469,D4,37.25,0.25,95,135.0
470,B3,37.25,0.5,95,135.0
471,B3,37.5,0.5,95,135.0
472,B3,37.5,0.25,95,135.0
473,D4,37.5,0.25,95,135.0
474,B3,37.5,0.5,95,135.0
475,B3,37.75,0.5,95,135.0
476,B3,37.75,0.25,95,135.0
477,D4,37.75,0.25,95,135.0
478,E3,38.0,0.5,95,135.0
479,B3,38.0,0.5,95,135.0
480,B3,38.0,0.25,95,135.0
481,D4,38.0,0.25,95,135.0
482,E3,38.25,0.5,95,135.0
483,B3,38.25,0.5,95,135.0
484,B3,38.25,0.25,95,135.0
485,A3,38.5,0.5,95,135.0
486,E3,38.5,0.5,95,135.0
487,B3,38.5,0.5,95,135.0
488,A3,38.75,0.5,95,135.0
489,E3,38.75,0.5,95,135.0
490,C#4,39.0,0.25,95,135.0
491,A3,39.0,0.5,95,135.0
492,E3,39.0,0.5,95,135.0
493,A3,39.25,0.25,95,135.0
494,C#4,39.25,0.25,95,135.0
495,A3,39.25,0.5,95,135.0
496,A3,39.5,0.5,95,135.0
497,A3,39.5,0.25,95,135.0
498,C#4,39.5,0.25,95,135.0
499,A3,39.5,0.5,95,135.0
500,A3,39.75,0.25,95,135.0
501,A3,39.75,0.25,95,135.0
502,C#4,39.75,0.25,95,135.0
503,F#3,40.0,0.5,95,135.0
504,A3,40.0,0.25,95,135.0
505,A3,40.0,0.5,95,135.0
506,A3,40.0,0.25,95,135.0
507,C#4,40.0,0.25,95,135.0
508,F#3,40.25,0.5,95,135.0
509,A3,40.25,0.5,95,135.0
510,A3,40.25,0.25,95,135.0
511,B3,40.5,0.5,95,135.0
512,F#3,40.5,0.5,95,135.0
513,A3,40.5,0.5,95,135.0
514,B3,40.75,0.5,95,135.0
515,F#3,40.75,0.5,95,135.0
516,D4,41.0,0.25,95,135.0
517,B3,41.0,0.5,95,135.0
518,F#3,41.0,0.5,95,135.0
519,B3,41.25,0.25,95,135.0
520,D4,41.25,0.25,95,135.0
521,B3,41.25,0.5,95,135.0
522,B3,41.5,0.5,95,135.0
523,B3,41.5,0.25,95,135.0
524,D4,41.5,0.25,95,135.0
525,B3,41.5,0.5,95,135.0
526,B3,41.75,0.5,95,135.0
527,B3,41.75,0.25,95,135.0
528,D4,41.75,0.25,95,135.0
529,F#3,42.0,0.5,95,135.0
530,B3,42.0,0.5,95,135.0
531,B3,42.0,0.25,95,135.0
532,D4,42.0,0.25,95,135.0
533,F#3,42.25,0.5,95,135.0
534,B3,42.25,0.5,95,135.0
535,B3,42.25,0.25,95,135.0
536,B3,42.5,0.5,95,135.0
537,F#3,42.5,0.5,95,135.0
538,B3,42.5,0.5,95,135.0
539,B3,42.75,0.5,95,135.0
540,F#3,42.75,0.5,95,135.0
541,D4,43.0,0.25,95,135.0
542,B3,43.0,0.5,95,135.0
543,F#3,43.0,0.5,95,135.0
544,B3,43.25,0.25,95,135.0
545,D4,43.25,0.25,95,135.0
546,B3,43.25,0.5,95,135.0
547,B3,43.5,0.5,95,135.0
548,B3,43.5,0.25,95,135.0
549,D4,43.5,0.25,95,135.0
550,B3,43.5,0.5,95,135.0
551,B3,43.75,0.25,95,135.0
552,B3,43.75,0.25,95,135.0
553,D4,43.75,0.25,95,135.0
554,D3,44.0,0.5,95,135.0
555,B3,44.0,0.25,95,135.0
556,B3,44.0,0.5,95,135.0
557,B3,44.0,0.25,95,135.0
558,D4,44.0,0.25,95,135.0
559,D3,44.25,0.5,95,135.0
560,B3,44.25,0.5,95,135.0
561,B3,44.25,0.25,95,135.0
562,G3,44.5,0.5,95,135.0
563,D3,44.5,0.5,95,135.0
564,B3,44.5,0.5,95,135.0
565,G3,44.75,0.5,95,135.0
566,D3,44.75,0.5,95,135.0
567,B3,45.0,0.25,95,135.0
568,G3,45.0,0.5,95,135.0
569,D3,45.0,0.5,95,135.0
570,G3,45.25,0.25,95,135.0
571,B3,45.25,0.25,95,135.0
572,G3,45.25,0.5,95,135.0
573,G3,45.5,0.5,95,135.0
574,G3,45.5,0.25,95,135.0
575,B3,45.5,0.25,95,135.0
576,G3,45.5,0.5,95,135.0
577,G3,45.75,0.5,95,135.0
578,G3,45.75,0.25,95,135.0
579,B3,45.75,0.25,95,135.0
580,E3,46.0,0.5,95,135.0
581,G3,46.0,0.5,95,135.0
582,G3,46.0,0.25,95,135.0
583,B3,46.0,0.25,95,135.0
584,E3,46.25,0.5,95,135.0
585,G3,46.25,0.5,95,135.0
586,G3,46.25,0.25,95,135.0
587,A3,46.5,0.5,95,135.0
588,E3,46.5,0.5,95,135.0
589,G3,46.5,0.5,95,135.0
590,A3,46.75,0.5,95,135.0
591,E3,46.75,0.5,95,135.0
592,C#4,47.0,0.25,95,135.0
593,A3,47.0,0.5,95,135.0
594,E3,47.0,0.5,95,135.0
595,A3,47.25,0.25,95,135.0
596,C#4,47.25,0.25,95,135.0
597,A3,47.25,0.5,95,135.0
598,A3,47.5,0.5,95,135.0
599,A3,47.5,0.25,95,135.0
600,C#4,47.5,0.25,95,135.0
601,A3,47.5,0.5,95,135.0
602,A3,47.75,0.25,95,135.0
603,A3,47.75,0.25,95,135.0
604,C#4,47.75,0.25,95,135.0
605,F#3,48.0,0.5,95,135.0
606,A3,48.0,0.25,95,135.0
607,A3,48.0,0.5,95,135.0
608,A3,48.0,0.25,95,135.0
609,C#4,48.0,0.25,95,135.0
610,F#3,48.25,0.5,95,135.0
611,A3,48.25,0.5,95,135.0
612,A3,48.25,0.25,95,135.0
613,B3,48.5,0.5,95,135.0
614,F#3,48.5,0.5,95,135.0
615,A3,48.5,0.5,95,135.0
616,B3,48.75,0.5,95,135.0
617,F#3,48.75,0.5,95,135.0
618,D4,49.0,0.25,95,135.0
619,B3,49.0,0.5,95,135.0
620,F#3,49.0,0.5,95,135.0
621,B3,49.25,0.25,95,135.0
622,D4,49.25,0.25,95,135.0
623,B3,49.25,0.5,95,135.0
624,B3,49.5,0.5,95,135.0
625,B3,49.5,0.25,95,135.0
626,D4,49.5,0.25,95,135.0
627,B3,49.5,0.5,95,135.0
628,B3,49.75,0.5,95,135.0
629,B3,49.75,0.25,95,135.0
630,D4,49.75,0.25,95,135.0
631,F#3,50.0,0.5,95,135.0
632,B3,50.0,0.5,95,135.0
633,B3,50.0,0.25,95,135.0
634,D4,50.0,0.25,95,135.0
635,F#3,50.25,0.5,95,135.0
636,B3,50.25,0.5,95,135.0
637,B3,50.25,0.25,95,135.0
638,B3,50.5,0.5,95,135.0
639,F#3,50.5,0.5,95,135.0
640,B3,50.5,0.5,95,135.0
641,B3,50.75,0.5,95,135.0
642,F#3,50.75,0.5,95,135.0
643,D4,51.0,0.25,95,135.0
644,B3,51.0,0.5,95,135.0
645,F#3,51.0,0.5,95,135.0
646,B3,51.25,0.25,95,135.0
647,D4,51.25,0.25,95,135.0
648,B3,51.25,0.5,95,135.0
649,B3,51.5,0.5,95,135.0
650,B3,51.5,0.25,95,135.0
651,D4,51.5,0.25,95,135.0
652,B3,51.5,0.5,95,135.0
653,B3,51.75,0.25,95,135.0
654,B3,51.75,0.25,95,135.0
655,D4,51.75,0.25,95,135.0
656,F#3,52.0,0.5,95,135.0
657,B3,52.0,0.25,95,135.0
658,B3,52.0,0.5,95,135.0
659,B3,52.0,0.25,95,135.0
660,D4,52.0,0.25,95,135.0
661,F#3,52.25,0.5,95,135.0
662,B3,52.25,0.5,95,135.0
663,B3,52.25,0.25,95,135.0
664,B3,52.5,0.5,95,135.0
665,F#3,52.5,0.5,95,135.0
666,B3,52.5,0.5,95,135.0
667,B3,52.75,0.5,95,135.0
668,F#3,52.75,0.5,95,135.0
669,D4,53.0,0.25,95,135.0
670,B3,53.0,0.5,95,135.0
671,F#3,53.0,0.5,95,135.0
672,B3,53.25,0.25,95,135.0
673,D4,53.25,0.25,95,135.0
674,B3,53.25,0.5,95,135.0
675,B3,53.5,0.5,95,135.0
676,B3,53.5,0.25,95,135.0
677,D4,53.5,0.25,95,135.0
678,B3,53.5,0.5,95,135.0
679,B3,53.75,0.5,95,135.0
680,B3,53.75,0.25,95,135.0
681,D4,53.75,0.25,95,135.0
682,E3,54.0,0.5,95,135.0
683,B3,54.0,0.5,95,135.0
684,B3,54.0,0.25,95,135.0
685,D4,54.0,0.25,95,135.0
686,E3,54.25,0.5,95,135.0
687,B3,54.25,0.5,95,135.0
688,B3,54.25,0.25,95,135.0
689,A3,54.5,0.5,95,135.0
690,E3,54.5,0.5,95,135.0
691,B3,54.5,0.5,95,135.0
692,A3,54.75,0.5,95,135.0
693,E3,54.75,0.5,95,135.0
694,C#4,55.0,0.25,95,135.0
695,A3,55.0,0.5,95,135.0
696,E3,55.0,0.5,95,135.0
697,A3,55.25,0.25,95,135.0
698,C#4,55.25,0.25,95,135.0
699,A3,55.25,0.5,95,135.0
700,A3,55.5,0.5,95,135.0
701,A3,55.5,0.25,95,135.0
702,C#4,55.5,0.25,95,135.0
703,A3,55.5,0.5,95,135.0
704,A3,55.75,0.25,95,135.0
705,A3,55.75,0.25,95,135.0
706,C#4,55.75,0.25,95,135.0
707,D3,56.0,0.5,95,135.0
708,A3,56.0,0.25,95,135.0
709,A3,56.0,0.5,95,135.0
710,A3,56.0,0.25,95,135.0
711,C#4,56.0,0.25,95,135.0
712,D3,56.25,0.5,95,135.0
713,A3,56.25,0.5,95,135.0
714,A3,56.25,0.25,95,135.0
715,G3,56.5,0.5,95,135.0
716,D3,56.5,0.5,95,135.0
717,A3,56.5,0.5,95,135.0
718,G3,56.75,0.5,95,135.0
719,D3,56.75,0.5,95,135.0
720,B3,57.0,0.25,95,135.0
721,G3,57.0,0.5,95,135.0
722,D3,57.0,0.5,95,135.0
723,G3,57.25,0.25,95,135.0
724,B3,57.25,0.25,95,135.0
725,G3,57.25,0.5,95,135.0
726,G3,57.5,0.5,95,135.0
727,G3,57.5,0.25,95,135.0
728,B3,57.5,0.25,95,135.0
729,G3,57.5,0.5,95,135.0
730,G3,57.75,0.5,95,135.0
731,G3,57.75,0.25,95,135.0
732,B3,57.75,0.25,95,135.0
733,D3,58.0,0.5,95,135.0
734,G3,58.0,0.5,95,135.0
735,G3,58.0,0.25,95,135.0
736,B3,58.0,0.25,95,135.0
737,D3,58.25,0.5,95,135.0
738,G3,58.25,0.5,95,135.0
739,G3,58.25,0.25,95,135.0
740,G3,58.5,0.5,95,135.0
741,D3,58.5,0.5,95,135.0
742,G3,58.5,0.5,95,135.0
743,G3,58.75,0.5,95,135.0
744,D3,58.75,0.5,95,135.0
745,B3,59.0,0.25,95,135.0
746,G3,59.0,0.5,95,135.0
747,D3,59.0,0.5,95,135.0
748,G3,59.25,0.25,95,135.0
749,B3,59.25,0.25,95,135.0
750,G3,59.25,0.5,95,135.0
751,G3,59.5,0.5,95,135.0
752,G3,59.5,0.25,95,135.0
753,B3,59.5,0.25,95,135.0
754,G3,59.5,0.5,95,135.0
755,G3,59.75,0.25,95,135.0
756,G3,59.75,0.25,95,135.0
757,B3,59.75,0.25,95,135.0
758,D3,60.0,0.5,95,135.0
759,G3,60.0,0.25,95,135.0
760,G3,60.0,0.5,95,135.0
761,G3,60.0,0.25,95,135.0
762,B3,60.0,0.25,95,135.0
763,D3,60.25,0.5,95,135.0
764,G3,60.25,0.5,95,135.0
765,G3,60.25,0.25,95,135.0
766,G3,60.5,0.5,95,135.0
767,D3,60.5,0.5,95,135.0
768,G3,60.5,0.5,95,135.0
769,G3,60.75,0.5,95,135.0
770,D3,60.75,0.5,95,135.0
771,B3,61.0,0.25,95,135.0
772,G3,61.0,0.5,95,135.0
773,D3,61.0,0.5,95,135.0
774,G3,61.25,0.25,95,135.0
775,B3,61.25,0.25,95,135.0
776,G3,61.25,0.5,95,135.0
777,G3,61.5,0.5,95,135.0
778,G3,61.5,0.25,95,135.0
779,B3,61.5,0.25,95,135.0
780,G3,61.5,0.5,95,135.0
781,G3,61.75,0.5,95,135.0
782,G3,61.75,0.25,95,135.0
783,B3,61.75,0.25,95,135.0
784,D3,62.0,0.5,95,135.0
785,G3,62.0,0.5,95,135.0
786,G3,62.0,0.25,95,135.0
787,B3,62.0,0.25,95,135.0
788,D3,62.25,0.5,95,135.0
789,G3,62.25,0.5,95,135.0
790,G3,62.25,0.25,95,135.0
791,G3,62.5,0.5,95,135.0
792,D3,62.5,0.5,95,135.0
793,G3,62.5,0.5,95,135.0
794,G3,62.75,0.5,95,135.0
795,D3,62.75,0.5,95,135.0
796,B3,63.0,0.25,95,135.0
797,G3,63.0,0.5,95,135.0
798,D3,63.0,0.5,95,135.0
799,G3,63.25,0.25,95,135.0
800,B3,63.25,0.25,95,135.0
801,G3,63.25,0.5,95,135.0
802,G3,63.5,0.5,95,135.0
803,G3,63.5,0.25,95,135.0
804,B3,63.5,0.25,95,135.0
805,G3,63.5,0.5,95,135.0
806,G3,63.75,0.25,95,135.0
807,G3,63.75,0.25,95,135.0
808,B3,63.75,0.25,95,135.0
809,B2,64.0,0.5,95,135.0
810,G3,64.0,0.25,95,135.0
811,G3,64.0,0.5,95,135.0
812,G3,64.0,0.25,95,135.0
813,B3,64.0,0.25,95,135.0
814,B2,64.25,0.5,95,135.0
815,G3,64.25,0.5,95,135.0
816,G3,64.25,0.25,95,135.0
817,D3,64.5,0.5,95,135.0
818,B2,64.5,0.5,95,135.0
819,G3,64.5,0.5,95,135.0
820,D3,64.75,0.5,95,135.0
821,B2,64.75,0.5,95,135.0
822,F#3,65.0,0.5,95,135.0
823,D3,65.0,0.5,95,135.0
824,B2,65.0,0.5,95,135.0
825,F#3,65.25,0.5,95,135.0
826,D3,65.25,0.5,95,135.0
827,B3,65.5,0.5,95,135.0
828,F#3,65.5,0.5,95,135.0
829,D3,65.5,0.5,95,135.0
830,B3,65.75,0.5,95,135.0
831,F#3,65.75,0.5,95,135.0
832,A3,66.0,0.5,95,135.0
833,B3,66.0,0.5,95,135.0
834,F#3,66.0,0.5,95,135.0
835,A3,66.25,0.5,95,135.0
836,B3,66.25,0.5,95,135.0
837,C#4,66.5,0.5,95,135.0
838,A3,66.5,0.5,95,135.0
839,B3,66.5,0.5,95,135.0
840,C#4,66.75,0.5,95,135.0
841,A3,66.75,0.5,95,135.0
842,D4,67.0,0.5,95,135.0
843,C#4,67.0,0.5,95,135.0
844,A3,67.0,0.5,95,135.0
845,D4,67.25,0.5,95,135.0
846,C#4,67.25,0.5,95,135.0
847,F#4,67.5,0.5,95,135.0
848,D4,67.5,0.5,95,135.0
849,C#4,67.5,0.5,95,135.0
850,F#4,67.75,0.25,95,135.0
851,D4,67.75,0.25,95,135.0
852,B4,68.0,0.5,95,135.0
853,F#4,68.0,0.25,95,135.0
854,F#4,68.0,0.5,95,135.0
855,D4,68.0,0.25,95,135.0
856,D4,68.0,0.5,95,135.0
857,B4,68.25,0.5,95,135.0
858,F#4,68.25,0.5,95,135.0
859,D5,68.5,0.5,95,135.0
860,B4,68.5,0.5,95,135.0
861,F#4,68.5,0.5,95,135.0
862,D5,68.75,0.5,95,135.0
863,B4,68.75,0.5,95,135.0
864,C#5,69.0,0.5,95,135.0
865,D5,69.0,0.5,95,135.0
866,B4,69.0,0.5,95,135.0
867,C#5,69.25,0.5,95,135.0
868,D5,69.25,0.5,95,135.0
869,D5,69.5,0.5,95,135.0
870,C#5,69.5,0.5,95,135.0
871,D5,69.5,0.5,95,135.0
872,D5,69.75,0.5,95,135.0
873,C#5,69.75,0.5,95,135.0
874,B4,70.0,0.5,95,135.0
875,D5,70.0,0.5,95,135.0
876,C#5,70.0,0.5,95,135.0
877,B4,70.25,0.5,95,135.0
878,D5,70.25,0.5,95,135.0
879,F#4,70.5,0.5,95,135.0
880,B4,70.5,0.5,95,135.0
881,D5,70.5,0.5,95,135.0
882,F#4,70.75,0.5,95,135.0
883,B4,70.75,0.5,95,135.0
884,D4,71.0,0.5,95,135.0
885,F#4,71.0,0.5,95,135.0
886,B4,71.0,0.5,95,135.0
887,D4,71.25,0.5,95,135.0
888,F#4,71.25,0.5,95,135.0
889,B3,71.5,0.5,95,135.0
890,D4,71.5,0.5,95,135.0
891,F#4,71.5,0.5,95,135.0
892,B3,71.75,0.25,95,135.0
893,D4,71.75,0.25,95,135.0
894,F#3,72.0,0.5,95,135.0
895,B3,72.0,0.25,95,135.0
896,B3,72.0,0.5,95,135.0
897,D4,72.0,0.25,95,135.0
898,D4,72.0,0.5,95,135.0
899,F#3,72.25,0.5,95,135.0
900,B3,72.25,0.5,95,135.0
901,D3,72.5,0.5,95,135.0
902,F#3,72.5,0.5,95,135.0
903,B3,72.5,0.5,95,135.0
904,D3,72.75,0.5,95,135.0
905,F#3,72.75,0.5,95,135.0
906,C#3,73.0,0.5,95,135.0
907,D3,73.0,0.5,95,135.0
908,F#3,73.0,0.5,95,135.0
909,C#3,73.25,0.5,95,135.0
910,D3,73.25,0.5,95,135.0
911,D3,73.5,0.5,95,135.0
912,C#3,73.5,0.5,95,135.0
913,D3,73.5,0.5,95,135.0
914,D3,73.75,0.5,95,135.0
915,C#3,73.75,0.5,95,135.0
916,C#3,74.0,0.5,95,135.0
917,D3,74.0,0.5,95,135.0
918,C#3,74.0,0.5,95,135.0
919,C#3,74.25,0.5,95,135.0
920,D3,74.25,0.5,95,135.0
921,B2,74.5,0.5,95,135.0
922,C#3,74.5,0.5,95,135.0
923,D3,74.5,0.5,95,135.0
924,B2,74.75,0.5,95,135.0
925,C#3,74.75,0.5,95,135.0
926,D3,75.0,0.5,95,135.0
927,B2,75.0,0.5,95,135.0
928,C#3,75.0,0.5,95,135.0
929,D3,75.25,0.5,95,135.0
930,B2,75.25,0.5,95,135.0
931,F#3,75.5,0.5,95,135.0
932,D3,75.5,0.5,95,135.0
933,B2,75.5,0.5,95,135.0
934,F#3,75.75,0.25,95,135.0
935,D3,75.75,0.25,95,135.0
936,B3,76.0,0.5,95,135.0
937,F#3,76.0,0.25,95,135.0
938,F#3,76.0,0.5,95,135.0
939,D3,76.0,0.25,95,135.0
940,D3,76.0,0.5,95,135.0
941,B3,76.25,0.5,95,135.0
942,F#3,76.25,0.5,95,135.0
943,A3,76.5,0.5,95,135.0
944,B3,76.5,0.5,95,135.0
945,F#3,76.5,0.5,95,135.0
946,A3,76.75,0.5,95,135.0
947,B3,76.75,0.5,95,135.0
948,C#4,77.0,0.5,95,135.0
949,A3,77.0,0.5,95,135.0
950,B3,77.0,0.5,95,135.0
951,C#4,77.25,0.5,95,135.0
952,A3,77.25,0.5,95,135.0
953,D4,77.5,0.5,95,135.0
954,C#4,77.5,0.5,95,135.0
955,A3,77.5,0.5,95,135.0
956,D4,77.75,0.5,95,135.0
957,C#4,77.75,0.5,95,135.0
958,F#4,78.0,0.5,95,135.0
959,D4,78.0,0.5,95,135.0
960,C#4,78.0,0.5,95,135.0
961,F#4,78.25,0.5,95,135.0
962,D4,78.25,0.5,95,135.0
963,B4,78.5,0.5,95,135.0
964,F#4,78.5,0.5,95,135.0
965,D4,78.5,0.5,95,135.0
966,B4,78.75,0.5,95,135.0
967,F#4,78.75,0.5,95,135.0
968,D5,79.0,0.5,95,135.0
969,B4,79.0,0.5,95,135.0
970,F#4,79.0,0.5,95,135.0
971,D5,79.25,0.5,95,135.0
972,B4,79.25,0.5,95,135.0
973,C#5,79.5,0.5,95,135.0
974,D5,79.5,0.5,95,135.0
975,B4,79.5,0.5,95,135.0
976,C#5,79.75,0.25,95,135.0
977,D5,79.75,0.25,95,135.0
978,D5,80.0,0.5,95,135.0
979,C#5,80.0,0.25,95,135.0
980,C#5,80.0,0.5,95,135.0
981,D5,80.0,0.25,95,135.0
982,D5,80.0,0.5,95,135.0
983,D5,80.25,0.5,95,135.0
984,C#5,80.25,0.5,95,135.0
985,B4,80.5,0.5,95,135.0
986,D5,80.5,0.5,95,135.0
987,C#5,80.5,0.5,95,135.0
988,B4,80.75,0.5,95,135.0
989,D5,80.75,0.5,95,135.0
990,F#4,81.0,0.5,95,135.0
991,B4,81.0,0.5,95,135.0
992,D5,81.0,0.5,95,135.0
993,F#4,81.25,0.5,95,135.0
994,B4,81.25,0.5,95,135.0
995,D4,81.5,0.5,95,135.0
996,F#4,81.5,0.5,95,135.0
997,B4,81.5,0.5,95,135.0
998,D4,81.75,0.5,95,135.0
999,F#4,81.75,0.5,95,135.0
1000,B3,82.0,0.5,95,135.0
1001,D4,82.0,0.5,95,135.0
1002,F#4,82.0,0.5,95,135.0
1003,B3,82.25,0.5,95,135.0
1004,D4,82.25,0.5,95,135.0
1005,F#3,82.5,0.5,95,135.0
1006,B3,82.5,0.5,95,135.0
1007,D4,82.5,0.5,95,135.0
1008,F#3,82.75,0.5,95,135.0
1009,B3,82.75,0.5,95,135.0
1010,D3,83.0,0.5,95,135.0
1011,F#3,83.0,0.5,95,135.0
1012,B3,83.0,0.5,95,135.0
1013,D3,83.25,0.5,95,135.0
1014,F#3,83.25,0.5,95,135.0
1015,C#3,83.5,0.5,95,135.0
1016,D3,83.5,0.5,95,135.0
1017,F#3,83.5,0.5,95,135.0
1018,C#3,83.75,0.25,95,135.0
1019,D3,83.75,0.25,95,135.0
1020,D3,84.0,0.5,95,135.0
1021,C#3,84.0,0.25,95,135.0
1022,C#3,84.0,0.5,95,135.0
1023,D3,84.0,0.25,95,135.0
1024,D3,84.0,0.5,95,135.0
1025,D3,84.25,0.5,95,135.0
1026,C#3,84.25,0.5,95,135.0
1027,C#3,84.5,0.5,95,135.0
1028,D3,84.5,0.5,95,135.0
1029,C#3,84.5,0.5,95,135.0
1030,C#3,84.75,0.5,95,135.0
1031,D3,84.75,0.5,95,135.0
1032,B2,85.0,0.5,95,135.0
1033,C#3,85.0,0.5,95,135.0
1034,D3,85.0,0.5,95,135.0
1035,B2,85.25,0.5,95,135.0
1036,C#3,85.25,0.5,95,135.0
1037,C#3,85.5,0.5,95,135.0
1038,B2,85.5,0.5,95,135.0
1039,C#3,85.5,0.5,95,135.0
1040,C#3,85.75,0.5,95,135.0
1041,B2,85.75,0.5,95,135.0
1042,D3,86.0,0.5,95,135.0
1043,C#3,86.0,0.5,95,135.0
1044,B2,86.0,0.5,95,135.0
1045,D3,86.25,0.5,95,135.0
1046,C#3,86.25,0.5,95,135.0
1047,F#3,86.5,0.5,95,135.0
1048,D3,86.5,0.5,95,135.0
1049,C#3,86.5,0.5,95,135.0
1050,F#3,86.75,0.5,95,135.0
1051,D3,86.75,0.5,95,135.0
1052,B3,87.0,0.5,95,135.0
1053,F#3,87.0,0.5,95,135.0
1054,D3,87.0,0.5,95,135.0
1055,B3,87.25,0.5,95,135.0
1056,F#3,87.25,0.5,95,135.0
1057,C#4,87.5,0.5,95,135.0
1058,B3,87.5,0.5,95,135.0
1059,F#3,87.5,0.5,95,135.0
1060,C#4,87.75,0.25,95,135.0
1061,B3,87.75,0.25,95,135.0
1062,D4,88.0,0.5,95,135.0
1063,C#4,88.0,0.25,95,135.0
1064,C#4,88.0,0.5,95,135.0
1065,B3,88.0,0.25,95,135.0
1066,B3,88.0,0.5,95,135.0
1067,D4,88.25,0.5,95,135.0
1068,C#4,88.25,0.5,95,135.0
1069,F#4,88.5,0.5,95,135.0
1070,D4,88.5,0.5,95,135.0
1071,C#4,88.5,0.5,95,135.0
1072,F#4,88.75,0.5,95,135.0
1073,D4,88.75,0.5,95,135.0
1074,B4,89.0,0.5,95,135.0
1075,F#4,89.0,0.5,95,135.0
1076,D4,89.0,0.5,95,135.0
1077,B4,89.25,0.5,95,135.0
1078,F#4,89.25,0.5,95,135.0
1079,C#5,89.5,0.5,95,135.0
1080,B4,89.5,0.5,95,135.0
1081,F#4,89.5,0.5,95,135.0
1082,C#5,89.75,0.5,95,135.0
1083,B4,89.75,0.5,95,135.0
1084,D5,90.0,0.5,95,135.0
1085,C#5,90.0,0.5,95,135.0
1086,B4,90.0,0.5,95,135.0
1087,D5,90.25,0.5,95,135.0
1088,C#5,90.25,0.5,95,135.0
1089,F#5,90.5,0.5,95,135.0
1090,D5,90.5,0.5,95,135.0
1091,C#5,90.5,0.5,95,135.0
1092,F#5,90.75,0.5,95,135.0
1093,D5,90.75,0.5,95,135.0
1094,D5,91.0,0.5,95,135.0
1095,F#5,91.0,0.5,95,135.0
1096,D5,91.0,0.5,95,135.0
1097,D5,91.25,0.5,95,135.0
1098,F#5,91.25,0.5,95,135.0
1099,C#5,91.5,0.5,95,135.0
1100,D5,91.5,0.5,95,135.0
1101,F#5,91.5,0.5,95,135.0
1102,C#5,91.75,0.25,95,135.0
1103,D5,91.75,0.25,95,135.0
1104,D5,92.0,0.5,95,135.0
1105,C#5,92.0,0.25,95,135.0
1106,C#5,92.0,0.5,95,135.0
1107,D5,92.0,0.25,95,135.0
1108,D5,92.0,0.5,95,135.0
1109,D5,92.25,0.5,95,135.0
1110,C#5,92.25,0.5,95,135.0
1111,F#5,92.5,0.5,95,135.0
1112,D5,92.5,0.5,95,135.0
1113,C#5,92.5,0.5,95,135.0
1114,F#5,92.75,0.5,95,135.0
1115,D5,92.75,0.5,95,135.0
1116,D5,93.0,0.5,95,135.0
1117,F#5,93.0,0.5,95,135.0
1118,D5,93.0,0.5,95,135.0
1119,D5,93.25,0.5,95,135.0
1120,F#5,93.25,0.5,95,135.0
1121,C#5,93.5,0.5,95,135.0
1122,D5,93.5,0.5,95,135.0
1123,F#5,93.5,0.5,95,135.0
1124,C#5,93.75,0.5,95,135.0
1125,D5,93.75,0.5,95,135.0
1126,C#5,94.0,0.5,95,135.0
1127,D5,94.0,0.5,95,135.0
1128,C#5,94.25,0.5,95,135.0
1129,F#5,94.5,0.5,95,135.0
1130,C#5,94.5,0.5,95,135.0
1131,F#5,94.75,0.5,95,135.0
1132,E5,95.0,0.5,95,135.0
1133,F#5,95.0,0.5,95,135.0
1134,E5,95.25,0.5,95,135.0
1135,F#5,95.25,0.5,95,135.0
1136,D5,95.5,0.5,95,135.0
1137,E5,95.5,0.5,95,135.0
1138,F#5,95.5,0.5,95,135.0
1139,D5,95.75,0.25,95,135.0
1140,E5,95.75,0.25,95,135.0
1141,C#5,96.0,0.5,95,135.0
1142,D5,96.0,0.25,95,135.0
1143,D5,96.0,0.5,95,135.0
1144,E5,96.0,0.25,95,135.0
1145,E5,96.0,0.5,95,135.0
1146,C#5,96.25,0.5,95,135.0
1147,D5,96.25,0.5,95,135.0
1148,A4,96.5,0.5,95,135.0
1149,C#5,96.5,0.5,95,135.0
1150,D5,96.5,0.5,95,135.0
1151,A4,96.75,0.5,95,135.0
1152,C#5,96.75,0.5,95,135.0
1153,G4,97.0,0.5,95,135.0
1154,A4,97.0,0.5,95,135.0
1155,C#5,97.0,0.5,95,135.0
1156,G4,97.25,0.5,95,135.0
1157,A4,97.25,0.5,95,135.0
1158,F#4,97.5,0.5,95,135.0
1159,G4,97.5,0.5,95,135.0
1160,A4,97.5,0.5,95,135.0
1161,F#4,97.75,0.5,95,135.0
1162,G4,97.75,0.5,95,135.0
1163,D4,98.0,0.5,95,135.0
1164,F#4,98.0,0.5,95,135.0
1165,G4,98.0,0.5,95,135.0
1166,D4,98.25,0.5,95,135.0
1167,F#4,98.25,0.5,95,135.0
1168,C#4,98.5,0.5,95,135.0
1169,D4,98.5,0.5,95,135.0
1170,F#4,98.5,0.5,95,135.0
1171,C#4,98.75,0.5,95,135.0
1172,D4,98.75,0.5,95,135.0
1173,B3,99.0,0.5,95,135.0
1174,C#4,99.0,0.5,95,135.0
1175,D4,99.0,0.5,95,135.0
1176,B3,99.25,0.5,95,135.0
1177,C#4,99.25,0.5,95,135.0
1178,G3,99.5,0.5,95,135.0
1179,B3,99.5,0.5,95,135.0
1180,C#4,99.5,0.5,95,135.0
1181,G3,99.75,0.25,95,135.0
1182,B3,99.75,0.25,95,135.0
1183,F#3,100.0,0.5,95,135.0
1184,G3,100.0,0.25,95,135.0
1185,G3,100.0,0.5,95,135.0
1186,B3,100.0,0.25,95,135.0
1187,B3,100.0,0.5,95,135.0
1188,F#3,100.25,0.5,95,135.0
1189,G3,100.25,0.5,95,135.0
1190,D3,100.5,0.5,95,135.0
1191,F#3,100.5,0.5,95,135.0
1192,G3,100.5,0.5,95,135.0
1193,D3,100.75,0.5,95,135.0
1194,F#3,100.75,0.5,95,135.0
1195,C#3,101.0,0.5,95,135.0
1196,D3,101.0,0.5,95,135.0
1197,F#3,101.0,0.5,95,135.0
1198,C#3,101.25,0.5,95,135.0
1199,D3,101.25,0.5,95,135.0
1200,B2,101.5,0.5,95,135.0
1201,C#3,101.5,0.5,95,135.0
1202,D3,101.5,0.5,95,135.0
1203,B2,101.75,0.5,95,135.0
1204,C#3,101.75,0.5,95,135.0
1205,C#3,102.0,0.5,95,135.0
1206,B2,102.0,0.5,95,135.0
1207,C#3,102.0,0.5,95,135.0
1208,C#3,102.25,0.5,95,135.0
1209,B2,102.25,0.5,95,135.0
1210,D3,102.5,0.5,95,135.0
1211,C#3,102.5,0.5,95,135.0
1212,B2,102.5,0.5,95,135.0
1213,D3,102.75,0.5,95,135.0
1214,C#3,102.75,0.5,95,135.0
1215,F#3,103.0,0.5,95,135.0
1216,D3,103.0,0.5,95,135.0
1217,C#3,103.0,0.5,95,135.0
1218,F#3,103.25,0.5,95,135.0
1219,D3,103.25,0.5,95,135.0
1220,B3,103.5,0.5,95,135.0
1221,F#3,103.5,0.5,95,135.0
1222,D3,103.5,0.5,95,135.0
1223,B3,103.75,0.25,95,135.0
1224,F#3,103.75,0.25,95,135.0
1225,C#4,104.0,0.5,95,135.0
1226,B3,104.0,0.25,95,135.0
1227,B3,104.0,0.5,95,135.0
1228,F#3,104.0,0.25,95,135.0
1229,F#3,104.0,0.5,95,135.0
1230,C#4,104.25,0.5,95,135.0
1231,B3,104.25,0.5,95,135.0
1232,D4,104.5,0.5,95,135.0
1233,C#4,104.5,0.5,95,135.0
1234,B3,104.5,0.5,95,135.0
1235,D4,104.75,0.5,95,135.0
1236,C#4,104.75,0.5,95,135.0
1237,F#4,105.0,0.5,95,135.0
1238,D4,105.0,0.5,95,135.0
1239,C#4,105.0,0.5,95,135.0
1240,F#4,105.25,0.5,95,135.0
1241,D4,105.25,0.5,95,135.0
1242,B4,105.5,0.5,95,135.0
1243,F#4,105.5,0.5,95,135.0
1244,D4,105.5,0.5,95,135.0
1245,B4,105.75,0.5,95,135.0
1246,F#4,105.75,0.5,95,135.0
1247,C#5,106.0,0.5,95,135.0
1248,B4,106.0,0.5,95,135.0
1249,F#4,106.0,0.5,95,135.0
1250,C#5,106.25,0.5,95,135.0
1251,B4,106.25,0.5,95,135.0
1252,D5,106.5,0.5,95,135.0
1253,C#5,106.5,0.5,95,135.0
1254,B4,106.5,0.5,95,135.0
1255,D5,106.75,0.5,95,135.0
1256,C#5,106.75,0.5,95,135.0
1257,C#5,107.0,0.5,95,135.0
1258,D5,107.0,0.5,95,135.0
1259,C#5,107.0,0.5,95,135.0
1260,C#5,107.25,0.5,95,135.0
1261,D5,107.25,0.5,95,135.0
1262,A4,107.5,0.5,95,135.0
1263,C#5,107.5,0.5,95,135.0
1264,D5,107.5,0.5,95,135.0
1265,A4,107.75,0.25,95,135.0
1266,C#5,107.75,0.25,95,135.0
1267,E4,108.0,0.5,95,135.0
1268,A4,108.0,0.25,95,135.0
1269,A4,108.0,0.5,95,135.0
1270,C#5,108.0,0.25,95,135.0
1271,C#5,108.0,0.5,95,135.0
1272,E4,108.25,0.5,95,135.0
1273,A4,108.25,0.5,95,135.0
1274,D4,108.5,0.5,95,135.0
1275,E4,108.5,0.5,95,135.0
1276,A4,108.5,0.5,95,135.0
1277,D4,108.75,0.5,95,135.0
1278,E4,108.75,0.5,95,135.0
1279,C#4,109.0,0.5,95,135.0
1280,D4,109.0,0.5,95,135.0
1281,E4,109.0,0.5,95,135.0
1282,C#4,109.25,0.5,95,135.0
1283,D4,109.25,0.5,95,135.0
1284,A3,109.5,0.5,95,135.0
1285,C#4,109.5,0.5,95,135.0
1286,D4,109.5,0.5,95,135.0
1287,A3,109.75,0.5,95,135.0
1288,C#4,109.75,0.5,95,135.0
1289,E-4,110.0,0.5,95,135.0
1290,A3,110.0,0.5,95,135.0
1291,C#4,110.0,0.5,95,135.0
1292,E-4,110.25,0.5,95,135.0
1293,A3,110.25,0.5,95,135.0
1294,C#4,110.5,0.5,95,135.0
1295,E-4,110.5,0.5,95,135.0
1296,A3,110.5,0.5,95,135.0
1297,C#4,110.75,0.5,95,135.0
1298,E-4,110.75,0.5,95,135.0
1299,D4,111.0,0.5,95,135.0
1300,C#4,111.0,0.5,95,135.0
1301,E-4,111.0,0.5,95,135.0
1302,D4,111.25,0.5,95,135.0
1303,C#4,111.25,0.5,95,135.0
1304,E4,111.5,0.5,95,135.0
1305,D4,111.5,0.5,95,135.0
1306,C#4,111.5,0.5,95,135.0
1307,E4,111.75,0.25,95,135.0
1308,D4,111.75,0.25,95,135.0
1309,D4,112.0,0.5,95,135.0
1310,E4,112.0,0.25,95,135.0
1311,E4,112.0,0.5,95,135.0
1312,D4,112.0,0.25,95,135.0
1313,D4,112.0,0.5,95,135.0
1314,D4,112.25,0.5,95,135.0
1315,E4,112.25,0.5,95,135.0
1316,C#4,112.5,0.5,95,135.0
1317,D4,112.5,0.5,95,135.0
1318,E4,112.5,0.5,95,135.0
1319,C#4,112.75,0.5,95,135.0
1320,D4,112.75,0.5,95,135.0
1321,A3,113.0,0.5,95,135.0
1322,C#4,113.0,0.5,95,135.0
1323,D4,113.0,0.5,95,135.0
1324,A3,113.25,0.5,95,135.0
1325,C#4,113.25,0.5,95,135.0
1326,E3,113.5,0.5,95,135.0
1327,A3,113.5,0.5,95,135.0
1328,C#4,113.5,0.5,95,135.0
1329,E3,113.75,0.5,95,135.0
1330,A3,113.75,0.5,95,135.0
1331,A3,114.0,0.5,95,135.0
1332,E3,114.0,0.5,95,135.0
1333,A3,114.0,0.5,95,135.0
1334,A3,114.25,0.5,95,135.0
1335,E3,114.25,0.5,95,135.0
1336,A3,114.5,1.0,95,135.0
1337,A3,114.5,0.5,95,135.0
1338,E3,114.5,0.5,95,135.0
1339,A3,114.75,1.0,95,135.0
1340,A3,114.75,0.5,95,135.0
1341,A3,115.0,1.0,95,135.0
1342,A3,115.0,0.5,95,135.0
1343,A3,115.25,0.75,95,135.0
1344,D4,115.5,0.5,95,135.0
1345,A3,115.5,0.5,95,135.0
1346,D4,115.75,0.25,95,135.0
1347,C#4,116.0,0.5,95,135.0
1348,D4,116.0,0.25,95,135.0
1349,D4,116.0,0.5,95,135.0
1350,A3,116.0,0.25,95,135.0
1351,A3,116.0,0.5,95,135.0
1352,C#4,116.25,0.5,95,135.0
1353,D4,116.25,0.5,95,135.0
1354,A3,116.5,0.5,95,135.0
1355,C#4,116.5,0.5,95,135.0
1356,D4,116.5,0.5,95,135.0
1357,A3,116.75,0.5,95,135.0
1358,C#4,116.75,0.5,95,135.0
1359,E3,117.0,0.5,95,135.0
1360,A3,117.0,0.5,95,135.0
1361,C#4,117.0,0.5,95,135.0
1362,E3,117.25,0.5,95,135.0
1363,A3,117.25,0.5,95,135.0
1364,D3,117.5,0.5,95,135.0
1365,E3,117.5,0.5,95,135.0
1366,A3,117.5,0.5,95,135.0
1367,D3,117.75,0.5,95,135.0
1368,E3,117.75,0.5,95,135.0
1369,C#3,118.0,0.5,95,135.0
1370,D3,118.0,0.5,95,135.0
1371,E3,118.0,0.5,95,135.0
1372,C#3,118.25,0.5,95,135.0
1373,D3,118.25,0.5,95,135.0
1374,A2,118.5,0.5,95,135.0
1375,C#3,118.5,0.5,95,135.0
1376,D3,118.5,0.5,95,135.0
1377,A2,118.75,0.5,95,135.0
1378,C#3,118.75,0.5,95,135.0
1379,D3,119.0,0.5,95,135.0
1380,A2,119.0,0.5,95,135.0
1381,C#3,119.0,0.5,95,135.0
1382,D3,119.25,0.5,95,135.0
1383,A2,119.25,0.5,95,135.0
1384,E3,119.5,0.5,95,135.0
1385,D3,119.5,0.5,95,135.0
1386,A2,119.5,0.5,95,135.0
1387,E3,119.75,0.25,95,135.0
1388,D3,119.75,0.25,95,135.0
1389,D3,120.0,0.5,95,135.0
1390,E3,120.0,0.25,95,135.0
1391,E3,120.0,0.5,95,135.0
1392,D3,120.0,0.25,95,135.0
1393,D3,120.0,0.5,95,135.0
1394,D3,120.25,0.5,95,135.0
1395,E3,120.25,0.5,95,135.0
1396,C#3,120.5,0.5,95,135.0
1397,D3,120.5,0.5,95,135.0
1398,E3,120.5,0.5,95,135.0
1399,C#3,120.75,0.5,95,135.0
1400,D3,120.75,0.5,95,135.0
1401,A2,121.0,0.5,95,135.0
1402,C#3,121.0,0.5,95,135.0
1403,D3,121.0,0.5,95,135.0
1404,A2,121.25,0.5,95,135.0
1405,C#3,121.25,0.5,95,135.0
1406,G2,121.5,0.5,95,135.0
1407,A2,121.5,0.5,95,135.0
1408,C#3,121.5,0.5,95,135.0
1409,G2,121.75,0.5,95,135.0
1410,A2,121.75,0.5,95,135.0
1411,B2,122.0,0.5,95,135.0
1412,G2,122.0,0.5,95,135.0
1413,A2,122.0,0.5,95,135.0
1414,B2,122.25,0.5,95,135.0
1415,G2,122.25,0.5,95,135.0
1416,C#3,122.5,0.5,95,135.0
1417,B2,122.5,0.5,95,135.0
1418,G2,122.5,0.5,95,135.0
1419,C#3,122.75,0.5,95,135.0
1420,B2,122.75,0.5,95,135.0
1421,D3,123.0,0.5,95,135.0
1422,C#3,123.0,0.5,95,135.0
1423,B2,123.0,0.5,95,135.0
1424,D3,123.25,0.5,95,135.0
1425,C#3,123.25,0.5,95,135.0
1426,F#3,123.5,0.5,95,135.0
1427,D3,123.5,0.5,95,135.0
1428,C#3,123.5,0.5,95,135.0
1429,F#3,123.75,0.25,95,135.0
1430,D3,123.75,0.25,95,135.0
1431,B3,124.0,0.5,95,135.0
1432,F#3,124.0,0.25,95,135.0
1433,F#3,124.0,0.5,95,135.0
1434,D3,124.0,0.25,95,135.0
1435,D3,124.0,0.5,95,135.0
1436,B3,124.25,0.5,95,135.0
1437,F#3,124.25,0.5,95,135.0
1438,C#4,124.5,0.5,95,135.0
1439,B3,124.5,0.5,95,135.0
1440,F#3,124.5,0.5,95,135.0
1441,C#4,124.75,0.5,95,135.0
1442,B3,124.75,0.5,95,135.0
1443,D4,125.0,0.5,95,135.0
1444,C#4,125.0,0.5,95,135.0
1445,B3,125.0,0.5,95,135.0
1446,D4,125.25,0.5,95,135.0
1447,C#4,125.25,0.5,95,135.0
1448,F#4,125.5,0.5,95,135.0
1449,D4,125.5,0.5,95,135.0
1450,C#4,125.5,0.5,95,135.0
1451,F#4,125.75,0.5,95,135.0
1452,D4,125.75,0.5,95,135.0
1453,B4,126.0,0.5,95,135.0
1454,F#4,126.0,0.5,95,135.0
1455,D4,126.0,0.5,95,135.0
1456,B4,126.25,0.5,95,135.0
1457,F#4,126.25,0.5,95,135.0
1458,A4,126.5,0.5,95,135.0
1459,B4,126.5,0.5,95,135.0
1460,F#4,126.5,0.5,95,135.0
1461,A4,126.75,0.5,95,135.0
1462,B4,126.75,0.5,95,135.0
1463,G4,127.0,0.5,95,135.0
1464,A4,127.0,0.5,95,135.0
1465,B4,127.0,0.5,95,135.0
1466,G4,127.25,0.5,95,135.0
1467,A4,127.25,0.5,95,135.0
1468,F#4,127.5,0.5,95,135.0
1469,G4,127.5,0.5,95,135.0
1470,A4,127.5,0.5,95,135.0
1471,F#4,127.75,0.25,95,135.0
1472,G4,127.75,0.25,95,135.0
1473,G4,128.0,0.5,95,135.0
1474,F#4,128.0,0.25,95,135.0
1475,F#4,128.0,0.5,95,135.0
1476,G4,128.0,0.25,95,135.0
1477,G4,128.0,0.5,95,135.0
1478,G4,128.25,0.5,95,135.0
1479,F#4,128.25,0.5,95,135.0
1480,E4,128.5,0.5,95,135.0
1481,G4,128.5,0.5,95,135.0
1482,F#4,128.5,0.5,95,135.0
1483,E4,128.75,0.5,95,135.0
1484,G4,128.75,0.5,95,135.0
1485,G3,129.0,7/100,95,135.0
1486,E4,129.0,0.5,95,135.0
1487,G4,129.0,0.5,95,135.0
1488,G3,129.25,7/100,95,135.0
1489,E4,129.25,0.5,95,135.0
1490,E4,129.5,0.5,95,135.0
1491,G3,129.5,7/100,95,135.0
1492,E4,129.5,0.5,95,135.0
1493,E4,129.75,0.5,95,135.0
1494,G3,129.75,7/100,95,135.0
1495,G4,130.0,0.5,95,135.0
1496,E4,130.0,0.5,95,135.0
1497,G3,130.0,7/100,95,135.0
1498,G4,130.25,0.5,95,135.0
1499,E4,130.25,0.5,95,135.0
1500,D4,130.5,0.5,95,135.0
1501,G4,130.5,0.5,95,135.0
1502,E4,130.5,0.5,95,135.0
1503,D4,130.75,0.5,95,135.0
1504,G4,130.75,0.5,95,135.0
1505,C#4,131.0,0.5,95,135.0
1506,D4,131.0,0.5,95,135.0
1507,G4,131.0,0.5,95,135.0
1508,C#4,131.25,0.5,95,135.0
1509,D4,131.25,0.5,95,135.0
1510,D4,131.5,0.5,95,135.0
1511,C#4,131.5,0.5,95,135.0
1512,D4,131.5,0.5,95,135.0
1513,D4,131.75,0.25,95,135.0
1514,C#4,131.75,0.25,95,135.0
1515,C#4,132.0,0.5,95,135.0
1516,D4,132.0,0.25,95,135.0
1517,D4,132.0,0.5,95,135.0
1518,C#4,132.0,0.25,95,135.0
1519,C#4,132.0,0.5,95,135.0
1520,C#4,132.25,0.5,95,135.0
1521,D4,132.25,0.5,95,135.0
1522,B3,132.5,0.5,95,135.0
1523,C#4,132.5,0.5,95,135.0
1524,D4,132.5,0.5,95,135.0
1525,B3,132.75,0.5,95,135.0
1526,C#4,132.75,0.5,95,135.0
1527,A3,133.0,0.5,95,135.0
1528,B3,133.0,0.5,95,135.0
1529,C#4,133.0,0.5,95,135.0
1530,A3,133.25,0.5,95,135.0
1531,B3,133.25,0.5,95,135.0
1532,B3,133.5,0.5,95,135.0
1533,A3,133.5,0.5,95,135.0
1534,B3,133.5,0.5,95,135.0
1535,B3,133.75,0.5,95,135.0
1536,A3,133.75,0.5,95,135.0
1537,F#3,134.0,0.5,95,135.0
1538,B3,134.0,0.5,95,135.0
1539,A3,134.0,0.5,95,135.0
1540,F#3,134.25,0.5,95,135.0
1541,B3,134.25,0.5,95,135.0
1542,B3,134.5,0.5,95,135.0
1543,F#3,134.5,0.5,95,135.0
1544,B3,134.5,0.5,95,135.0
1545,B3,134.75,0.5,95,135.0
1546,F#3,134.75,0.5,95,135.0
1547,D4,135.0,0.25,95,135.0
1548,B3,135.0,0.5,95,135.0
1549,F#3,135.0,0.5,95,135.0
1550,B3,135.25,0.25,95,135.0
1551,D4,135.25,0.25,95,135.0
1552,B3,135.25,0.5,95,135.0
1553,B3,135.5,0.5,95,135.0
1554,B3,135.5,0.25,95,135.0
1555,D4,135.5,0.25,95,135.0
1556,B3,135.5,0.5,95,135.0
1557,B3,135.75,0.25,95,135.0
1558,B3,135.75,0.25,95,135.0
1559,D4,135.75,0.25,95,135.0
1560,F#3,136.0,0.5,95,135.0
1561,B3,136.0,0.25,95,135.0
1562,B3,136.0,0.5,95,135.0
1563,B3,136.0,0.25,95,135.0
1564,D4,136.0,0.25,95,135.0
1565,F#3,136.25,0.5,95,135.0
1566,B3,136.25,0.5,95,135.0
1567,B3,136.25,0.25,95,135.0
1568,B3,136.5,0.5,95,135.0
1569,F#3,136.5,0.5,95,135.0
1570,B3,136.5,0.5,95,135.0
1571,B3,136.75,0.5,95,135.0
1572,F#3,136.75,0.5,95,135.0
1573,D4,137.0,0.25,95,135.0
1574,B3,137.0,0.5,95,135.0
1575,F#3,137.0,0.5,95,135.0
1576,B3,137.25,0.25,95,135.0
1577,D4,137.25,0.25,95,135.0
1578,B3,137.25,0.5,95,135.0
1579,B3,137.5,0.5,95,135.0
1580,B3,137.5,0.25,95,135.0
1581,D4,137.5,0.25,95,135.0
1582,B3,137.5,0.5,95,135.0
1583,B3,137.75,0.5,95,135.0
1584,B3,137.75,0.25,95,135.0
1585,D4,137.75,0.25,95,135.0
1586,F#3,138.0,0.5,95,135.0
1587,B3,138.0,0.5,95,135.0
1588,B3,138.0,0.25,95,135.0
1589,D4,138.0,0.25,95,135.0
1590,F#3,138.25,0.5,95,135.0
1591,B3,138.25,0.5,95,135.0
1592,B3,138.25,0.25,95,135.0
1593,B3,138.5,0.5,95,135.0
1594,F#3,138.5,0.5,95,135.0
1595,B3,138.5,0.5,95,135.0
1596,B3,138.75,0.5,95,135.0
1597,F#3,138.75,0.5,95,135.0
1598,D4,139.0,0.25,95,135.0
1599,B3,139.0,0.5,95,135.0
1600,F#3,139.0,0.5,95,135.0
1601,B3,139.25,0.25,95,135.0
1602,D4,139.25,0.25,95,135.0
1603,B3,139.25,0.5,95,135.0
1604,B3,139.5,0.5,95,135.0
1605,B3,139.5,0.25,95,135.0
1606,D4,139.5,0.25,95,135.0
1607,B3,139.5,0.5,95,135.0
1608,B3,139.75,0.25,95,135.0
1609,B3,139.75,0.25,95,135.0
1610,D4,139.75,0.25,95,135.0
1611,E3,140.0,0.5,95,135.0
1612,B3,140.0,0.25,95,135.0
1613,B3,140.0,0.5,95,135.0
1614,B3,140.0,0.25,95,135.0
1615,D4,140.0,0.25,95,135.0
1616,E3,140.25,0.5,95,135.0
1617,B3,140.25,0.5,95,135.0
1618,B3,140.25,0.25,95,135.0
1619,A3,140.5,0.5,95,135.0
1620,E3,140.5,0.5,95,135.0
1621,B3,140.5,0.5,95,135.0
1622,A3,140.75,0.5,95,135.0
1623,E3,140.75,0.5,95,135.0
1624,C#4,141.0,0.25,95,135.0
1625,A3,141.0,0.5,95,135.0
1626,E3,141.0,0.5,95,135.0
1627,A3,141.25,0.25,95,135.0
1628,C#4,141.25,0.25,95,135.0
1629,A3,141.25,0.5,95,135.0
1630,A3,141.5,0.5,95,135.0
1631,A3,141.5,0.25,95,135.0
1632,C#4,141.5,0.25,95,135.0
1633,A3,141.5,0.5,95,135.0
1634,A3,141.75,0.5,95,135.0
1635,A3,141.75,0.25,95,135.0
1636,C#4,141.75,0.25,95,135.0
1637,F#3,142.0,0.5,95,135.0
1638,A3,142.0,0.5,95,135.0
1639,A3,142.0,0.25,95,135.0
1640,C#4,142.0,0.25,95,135.0
1641,F#3,142.25,0.5,95,135.0
1642,A3,142.25,0.5,95,135.0
1643,A3,142.25,0.25,95,135.0
1644,B3,142.5,0.5,95,135.0
1645,F#3,142.5,0.5,95,135.0
1646,A3,142.5,0.5,95,135.0
1647,B3,142.75,0.5,95,135.0
1648,F#3,142.75,0.5,95,135.0
1649,D4,143.0,0.25,95,135.0
1650,B3,143.0,0.5,95,135.0
1651,F#3,143.0,0.5,95,135.0
1652,B3,143.25,0.25,95,135.0
1653,D4,143.25,0.25,95,135.0
1654,B3,143.25,0.5,95,135.0
1655,B3,143.5,0.5,95,135.0
1656,B3,143.5,0.25,95,135.0
1657,D4,143.5,0.25,95,135.0
1658,B3,143.5,0.5,95,135.0
1659,B3,143.75,0.25,95,135.0
1660,B3,143.75,0.25,95,135.0
1661,D4,143.75,0.25,95,135.0
1662,F#3,144.0,0.5,95,135.0
1663,B3,144.0,0.25,95,135.0
1664,B3,144.0,0.5,95,135.0
1665,B3,144.0,0.25,95,135.0
1666,D4,144.0,0.25,95,135.0
1667,F#3,144.25,0.5,95,135.0
1668,B3,144.25,0.5,95,135.0
1669,B3,144.25,0.25,95,135.0
1670,B3,144.5,0.5,95,135.0
1671,F#3,144.5,0.5,95,135.0
1672,B3,144.5,0.5,95,135.0
1673,B3,144.75,0.5,95,135.0
1674,F#3,144.75,0.5,95,135.0
1675,D4,145.0,0.25,95,135.0
1676,B3,145.0,0.5,95,135.0
1677,F#3,145.0,0.5,95,135.0
1678,B3,145.25,0.25,95,135.0
1679,D4,145.25,0.25,95,135.0
1680,B3,145.25,0.5,95,135.0
1681,B3,145.5,0.5,95,135.0
1682,B3,145.5,0.25,95,135.0
1683,D4,145.5,0.25,95,135.0
1684,B3,145.5,0.5,95,135.0
1685,B3,145.75,0.5,95,135.0
1686,B3,145.75,0.25,95,135.0
1687,D4,145.75,0.25,95,135.0
1688,F#3,146.0,0.5,95,135.0
1689,B3,146.0,0.5,95,135.0
1690,B3,146.0,0.25,95,135.0
1691,D4,146.0,0.25,95,135.0
1692,F#3,146.25,0.5,95,135.0
1693,B3,146.25,0.5,95,135.0
1694,B3,146.25,0.25,95,135.0
1695,B3,146.5,0.5,95,135.0
1696,F#3,146.5,0.5,95,135.0
1697,B3,146.5,0.5,95,135.0
1698,B3,146.75,0.5,95,135.0
1699,F#3,146.75,0.5,95,135.0
1700,D4,147.0,0.25,95,135.0
1701,B3,147.0,0.5,95,135.0
1702,F#3,147.0,0.5,95,135.0
1703,B3,147.25,0.25,95,135.0
1704,D4,147.25,0.25,95,135.0
1705,B3,147.25,0.5,95,135.0
1706,B3,147.5,0.5,95,135.0
1707,B3,147.5,0.25,95,135.0
1708,D4,147.5,0.25,95,135.0
1709,B3,147.5,0.5,95,135.0
1710,B3,147.75,0.25,95,135.0
1711,B3,147.75,0.25,95,135.0
1712,D4,147.75,0.25,95,135.0
1713,E3,148.0,0.5,95,135.0
1714,B3,148.0,0.25,95,135.0
1715,B3,148.0,0.5,95,135.0
1716,B3,148.0,0.25,95,135.0
1717,D4,148.0,0.25,95,135.0
1718,E3,148.25,0.5,95,135.0
1719,B3,148.25,0.5,95,135.0
1720,B3,148.25,0.25,95,135.0
1721,A3,148.5,0.5,95,135.0
1722,E3,148.5,0.5,95,135.0
1723,B3,148.5,0.5,95,135.0
1724,A3,148.75,0.5,95,135.0
1725,E3,148.75,0.5,95,135.0
1726,C#4,149.0,0.25,95,135.0
1727,A3,149.0,0.5,95,135.0
1728,E3,149.0,0.5,95,135.0
1729,A3,149.25,0.25,95,135.0
1730,C#4,149.25,0.25,95,135.0
1731,A3,149.25,0.5,95,135.0
1732,A3,149.5,0.5,95,135.0
1733,A3,149.5,0.25,95,135.0
1734,C#4,149.5,0.25,95,135.0
1735,A3,149.5,0.5,95,135.0
1736,A3,149.75,0.5,95,135.0
1737,A3,149.75,0.25,95,135.0
1738,C#4,149.75,0.25,95,135.0
1739,A3,150.0,0.5,95,135.0
1740,A3,150.0,0.5,95,135.0
1741,A3,150.0,0.25,95,135.0
1742,C#4,150.0,0.25,95,135.0
1743,A3,150.25,0.5,95,135.0
1744,A3,150.25,0.5,95,135.0
1745,A3,150.25,0.25,95,135.0
1746,B3,150.5,0.5,95,135.0
1747,A3,150.5,0.5,95,135.0
1748,A3,150.5,0.5,95,135.0
1749,B3,150.75,0.5,95,135.0
1750,A3,150.75,0.5,95,135.0
1751,A3,151.0,0.5,95,135.0
1752,B3,151.0,0.5,95,135.0
1753,A3,151.0,0.5,95,135.0
1754,A3,151.25,0.5,95,135.0
1755,B3,151.25,0.5,95,135.0
1756,B3,151.5,0.5,95,135.0
1757,A3,151.5,0.5,95,135.0
1758,B3,151.5,0.5,95,135.0
1759,B3,151.75,0.25,95,135.0
1760,A3,151.75,0.25,95,135.0
1761,A3,152.0,0.5,95,135.0
1762,B3,152.0,0.25,95,135.0
1763,B3,152.0,0.5,95,135.0
1764,A3,152.0,0.25,95,135.0
1765,A3,152.0,0.5,95,135.0
1766,A3,152.25,0.5,95,135.0
1767,B3,152.25,0.5,95,135.0
1768,B3,152.5,0.5,95,135.0
1769,A3,152.5,0.5,95,135.0
1770,B3,152.5,0.5,95,135.0
1771,B3,152.75,0.5,95,135.0
1772,A3,152.75,0.5,95,135.0
1773,A3,153.0,0.5,95,135.0
1774,B3,153.0,0.5,95,135.0
1775,A3,153.0,0.5,95,135.0
1776,A3,153.25,0.5,95,135.0
1777,B3,153.25,0.5,95,135.0
1778,B3,153.5,0.5,95,135.0
1779,A3,153.5,0.5,95,135.0
1780,B3,153.5,0.5,95,135.0
1781,B3,153.75,0.5,95,135.0
1782,A3,153.75,0.5,95,135.0
1783,B2,154.0,0.5,95,135.0
1784,B3,154.0,0.5,95,135.0
1785,A3,154.0,0.5,95,135.0
1786,B2,154.25,0.5,95,135.0
1787,B3,154.25,0.5,95,135.0
1788,F#3,154.5,0.5,95,135.0
1789,B2,154.5,0.5,95,135.0
1790,B3,154.5,0.5,95,135.0
1791,F#3,154.75,0.5,95,135.0
1792,B2,154.75,0.5,95,135.0
1793,B3,155.0,0.5,95,135.0
1794,F#3,155.0,0.5,95,135.0
1795,B2,155.0,0.5,95,135.0
1796,B3,155.25,0.5,95,135.0
1797,F#3,155.25,0.5,95,135.0
1798,D4,155.5,0.5,95,135.0
1799,B3,155.5,0.5,95,135.0
1800,F#3,155.5,0.5,95,135.0
1801,D4,155.75,0.25,95,135.0
1802,B3,155.75,0.25,95,135.0
1803,F#4,156.0,0.5,95,135.0
1804,D4,156.0,0.25,95,135.0
1805,D4,156.0,0.5,95,135.0
1806,B3,156.0,0.25,95,135.0
1807,B3,156.0,0.5,95,135.0
1808,F#4,156.25,0.5,95,135.0
1809,D4,156.25,0.5,95,135.0
1810,B4,156.5,2.5,95,135.0
1811,F#4,156.5,0.5,95,135.0
1812,D4,156.5,0.5,95,135.0
1813,B4,156.75,2.5,95,135.0
1814,F#4,156.75,0.5,95,135.0
1815,B4,157.0,2.5,95,135.0
1816,F#4,157.0,0.5,95,135.0
1817,B4,157.25,2.5,95,135.0
1818,B4,157.5,2.5,95,135.0
