,note_name,start_time,duration,velocity,tempo
0,E1,4.0,0.75,95,110.0
1,B3,4.0,0.75,95,110.0
2,G#3,4.0,0.75,95,110.0
3,F#3,4.0,0.75,95,110.0
4,E3,4.0,0.75,95,110.0
5,F#4,4.0,0.5,95,110.0
6,E-4,4.0,0.5,95,110.0
7,F#4,4.5,0.25,63,110.0
8,E-4,4.5,0.25,63,110.0
9,E1,4.75,0.25,95,110.0
10,B3,4.75,0.25,95,110.0
11,G#3,4.75,0.25,95,110.0
12,F#3,4.75,0.25,95,110.0
13,E3,4.75,0.25,95,110.0
14,G#4,4.75,0.75,95,110.0
15,E4,4.75,0.75,95,110.0
16,E1,5.5,2.0,95,110.0
17,B3,5.5,1.5,95,110.0
18,G#3,5.5,1.5,95,110.0
19,F#3,5.5,1.5,95,110.0
20,E3,5.5,1.5,95,110.0
21,G#4,5.5,1.0,95,110.0
22,E4,5.5,1.0,95,110.0
23,F#4,6.5,0.75,95,110.0
24,E-4,6.5,0.75,95,110.0
25,B3,7.0,1.0,95,110.0
26,G#3,7.0,1.0,95,110.0
27,F#3,7.0,1.0,95,110.0
28,E3,7.0,1.0,95,110.0
29,F#4,7.25,0.75,95,110.0
30,C#4,7.25,0.75,95,110.0
31,E1,7.5,0.25,95,110.0
32,F#1,7.75,0.25,95,110.0
33,G#1,8.0,0.75,95,110.0
34,E-4,8.0,0.75,95,110.0
35,B3,8.0,0.75,95,110.0
36,F#3,8.0,0.75,95,110.0
37,F#4,8.0,0.75,95,110.0
38,C#4,8.0,0.75,95,110.0
39,G#1,8.75,0.25,95,110.0
40,E-4,8.75,0.25,95,110.0
41,B3,8.75,0.25,95,110.0
42,F#3,8.75,0.25,95,110.0
43,B4,8.75,0.75,95,110.0
44,E-4,8.75,0.75,95,110.0
45,C#4,9.5,2.5,95,110.0
46,F#1,9.5,2.0,95,110.0
47,B-3,9.5,1.0,95,110.0
48,F#3,9.5,1.0,95,110.0
49,B4,9.5,1.0,95,110.0
50,E-4,9.5,1.0,95,110.0
51,B3,10.5,0.75,95,110.0
52,F#3,10.5,0.75,95,110.0
53,B-4,10.5,0.5,95,110.0
54,C#4,10.5,0.5,95,110.0
55,B-4,11.0,0.25,63,110.0
56,C#4,11.0,0.25,63,110.0
57,B-3,11.25,0.75,95,110.0
58,F#3,11.25,0.75,95,110.0
59,B4,11.25,0.75,95,110.0
60,B3,11.25,0.75,95,110.0
61,E1,12.0,0.75,95,110.0
62,B3,12.0,0.75,95,110.0
63,G#3,12.0,0.75,95,110.0
64,F#3,12.0,0.75,95,110.0
65,E3,12.0,0.75,95,110.0
66,F#4,12.0,0.5,95,110.0
67,E-4,12.0,0.5,95,110.0
68,F#4,12.5,0.25,63,110.0
69,E-4,12.5,0.25,63,110.0
70,E1,12.75,0.25,95,110.0
71,B3,12.75,0.25,95,110.0
72,G#3,12.75,0.25,95,110.0
73,F#3,12.75,0.25,95,110.0
74,E3,12.75,0.25,95,110.0
75,G#4,12.75,0.75,95,110.0
76,E4,12.75,0.75,95,110.0
77,E1,13.5,2.0,95,110.0
78,B3,13.5,1.5,95,110.0
79,G#3,13.5,1.5,95,110.0
80,F#3,13.5,1.5,95,110.0
81,E3,13.5,1.5,95,110.0
82,G#4,13.5,1.0,95,110.0
83,E4,13.5,1.0,95,110.0
84,F#4,14.5,0.75,95,110.0
85,E-4,14.5,0.75,95,110.0
86,B3,15.0,1.0,95,110.0
87,G#3,15.0,1.0,95,110.0
88,F#3,15.0,1.0,95,110.0
89,E3,15.0,1.0,95,110.0
90,F#4,15.25,0.75,95,110.0
91,C#4,15.25,0.75,95,110.0
92,E1,15.5,0.25,95,110.0
93,F#1,15.75,0.25,95,110.0
94,G#1,16.0,0.75,95,110.0
95,E-4,16.0,0.75,95,110.0
96,B3,16.0,0.75,95,110.0
97,F#3,16.0,0.75,95,110.0
98,F#4,16.0,0.75,95,110.0
99,C#4,16.0,0.75,95,110.0
100,G#1,16.75,0.25,95,110.0
101,E-4,16.75,0.25,95,110.0
102,B3,16.75,0.25,95,110.0
103,F#3,16.75,0.25,95,110.0
104,F#4,16.75,0.75,95,110.0
105,E-4,16.75,0.75,95,110.0
106,C#4,17.5,2.5,95,110.0
107,F#1,17.5,2.0,95,110.0
108,B-3,17.5,1.0,95,110.0
109,F#3,17.5,1.0,95,110.0
110,F#4,17.5,1.0,95,110.0
111,E-4,17.5,1.0,95,110.0
112,B3,18.5,0.75,95,110.0
113,F#3,18.5,0.75,95,110.0
114,F#4,18.5,0.5,95,110.0
115,C#4,18.5,0.5,95,110.0
116,F#4,19.0,0.25,63,110.0
117,C#4,19.0,0.25,63,110.0
118,B-3,19.25,0.75,95,110.0
119,F#3,19.25,0.75,95,110.0
120,F#4,19.25,0.75,95,110.0
121,B3,19.25,0.75,95,110.0
122,E2,19.5,0.25,63,110.0
123,E-2,19.75,0.25,63,110.0
124,E1,20.0,0.75,95,110.0
125,B3,20.0,0.75,95,110.0
126,G#3,20.0,0.75,95,110.0
127,F#3,20.0,0.75,95,110.0
128,E3,20.0,0.75,95,110.0
129,F#4,20.0,0.5,95,110.0
130,E-4,20.0,0.5,95,110.0
131,F#4,20.5,0.25,63,110.0
132,E-4,20.5,0.25,63,110.0
133,E1,20.75,0.25,95,110.0
134,B3,20.75,0.25,95,110.0
135,G#3,20.75,0.25,95,110.0
136,F#3,20.75,0.25,95,110.0
137,E3,20.75,0.25,95,110.0
138,G#4,20.75,0.75,95,110.0
139,E4,20.75,0.75,95,110.0
140,E1,21.5,2.0,95,110.0
141,B3,21.5,1.5,95,110.0
142,G#3,21.5,1.5,95,110.0
143,F#3,21.5,1.5,95,110.0
144,E3,21.5,1.5,95,110.0
145,G#4,21.5,1.0,95,110.0
146,E4,21.5,1.0,95,110.0
147,F#4,22.5,0.75,95,110.0
148,E-4,22.5,0.75,95,110.0
149,B3,23.0,1.0,95,110.0
150,G#3,23.0,1.0,95,110.0
151,F#3,23.0,1.0,95,110.0
152,E3,23.0,1.0,95,110.0
153,F#4,23.25,0.75,95,110.0
154,C#4,23.25,0.75,95,110.0
155,E1,23.5,0.25,95,110.0
156,F#1,23.75,0.25,95,110.0
157,G#1,24.0,0.75,95,110.0
158,E-4,24.0,0.75,95,110.0
159,B3,24.0,0.75,95,110.0
160,F#3,24.0,0.75,95,110.0
161,F#4,24.0,0.75,95,110.0
162,C#4,24.0,0.75,95,110.0
163,G#1,24.75,0.25,95,110.0
164,E-4,24.75,0.25,95,110.0
165,B3,24.75,0.25,95,110.0
166,F#3,24.75,0.25,95,110.0
167,B4,24.75,0.75,95,110.0
168,E-4,24.75,0.75,95,110.0
169,C#4,25.5,2.5,95,110.0
170,F#1,25.5,2.0,95,110.0
171,B-3,25.5,1.0,95,110.0
172,F#3,25.5,1.0,95,110.0
173,B4,25.5,1.0,95,110.0
174,E-4,25.5,1.0,95,110.0
175,B3,26.5,0.75,95,110.0
176,F#3,26.5,0.75,95,110.0
177,B-4,26.5,0.5,95,110.0
178,C#4,26.5,0.5,95,110.0
179,B-4,27.0,0.25,63,110.0
180,C#4,27.0,0.25,63,110.0
181,B-3,27.25,0.75,95,110.0
182,F#3,27.25,0.75,95,110.0
183,B4,27.25,0.75,95,110.0
184,B3,27.25,0.75,95,110.0
185,G#1,27.5,0.25,95,110.0
186,C#5,28.0,4.0,95,110.0
187,A1,28.0,0.75,95,110.0
188,C#4,28.0,0.75,95,110.0
189,B3,28.0,0.75,95,110.0
190,A3,28.0,0.75,95,110.0
191,E3,28.0,0.75,95,110.0
192,E4,28.0,0.75,95,110.0
193,C#4,28.0,0.75,95,110.0
194,A1,28.75,0.25,95,110.0
195,C#4,28.75,0.25,95,110.0
196,B3,28.75,0.25,95,110.0
197,A3,28.75,0.25,95,110.0
198,E3,28.75,0.25,95,110.0
199,E4,28.75,0.75,95,110.0
200,C#4,28.75,0.75,95,110.0
201,A1,29.5,2.0,95,110.0
202,C#4,29.5,1.5,95,110.0
203,B3,29.5,1.5,95,110.0
204,A3,29.5,1.5,95,110.0
205,E3,29.5,1.5,95,110.0
206,E4,29.5,1.0,95,110.0
207,C#4,29.5,1.0,95,110.0
208,B3,30.5,0.75,95,110.0
209,C#4,31.0,1.0,95,110.0
210,B3,31.0,1.0,95,110.0
211,A3,31.0,1.0,95,110.0
212,E3,31.0,1.0,95,110.0
213,B3,31.25,0.75,95,110.0
214,A1,31.5,0.25,95,110.0
215,B1,31.75,0.25,95,110.0
216,B3,32.0,0.75,95,110.0
217,G#3,32.0,0.75,95,110.0
218,F#3,32.0,0.75,95,110.0
219,E3,32.0,0.75,95,110.0
220,B3,32.0,1.5,95,110.0
221,G#3,32.0,1.5,95,110.0
222,E3,32.0,1.5,95,110.0
223,E2,32.0,0.75,87,110.0
224,E1,32.0,0.75,87,110.0
225,B3,32.75,0.25,95,110.0
226,G#3,32.75,0.25,95,110.0
227,F#3,32.75,0.25,95,110.0
228,E3,32.75,0.25,95,110.0
229,E2,32.75,0.25,87,110.0
230,E1,32.75,0.25,87,110.0
231,B3,33.5,1.5,95,110.0
232,G#3,33.5,1.5,95,110.0
233,F#3,33.5,1.5,95,110.0
234,E3,33.5,1.5,95,110.0
235,B3,33.5,2.0,95,110.0
236,G#3,33.5,2.0,95,110.0
237,E3,33.5,2.0,95,110.0
238,E2,33.5,2.0,87,110.0
239,E1,33.5,2.0,87,110.0
240,B3,35.0,1.0,63,110.0
241,G#3,35.0,1.0,63,110.0
242,F#3,35.0,1.0,63,110.0
243,E3,35.0,1.0,63,110.0
244,B3,36.0,3.0,95,110.0
245,B3,36.0,3.0,95,110.0
246,B3,36.0,0.75,95,110.0
247,G#3,36.0,0.75,95,110.0
248,F#3,36.0,0.75,95,110.0
249,E3,36.0,0.75,95,110.0
250,E2,36.0,0.75,87,110.0
251,E1,36.0,0.75,87,110.0
252,B3,36.75,0.25,95,110.0
253,G#3,36.75,0.25,95,110.0
254,F#3,36.75,0.25,95,110.0
255,E3,36.75,0.25,95,110.0
256,E2,36.75,0.25,87,110.0
257,E1,36.75,0.25,87,110.0
258,B3,37.5,2.0,95,110.0
259,G#3,37.5,2.0,95,110.0
260,F#3,37.5,2.0,95,110.0
261,E3,37.5,2.0,95,110.0
262,E2,37.5,2.0,87,110.0
263,E1,37.5,2.0,87,110.0
264,G#3,39.5,0.25,95,110.0
265,F#3,39.5,0.25,95,110.0
266,E1,39.5,0.25,95,110.0
267,B-3,39.75,0.25,95,110.0
268,G#3,39.75,0.25,95,110.0
269,F#1,39.75,0.25,95,110.0
270,B3,40.0,0.75,95,110.0
271,B3,40.0,0.75,95,110.0
272,G#1,40.0,0.75,95,110.0
273,E-4,40.0,0.75,95,110.0
274,B3,40.0,0.75,95,110.0
275,G#3,40.0,0.75,95,110.0
276,C#4,40.75,0.75,95,110.0
277,B3,40.75,0.75,95,110.0
278,G#1,40.75,0.25,95,110.0
279,E-4,40.75,0.25,95,110.0
280,B3,40.75,0.25,95,110.0
281,G#3,40.75,0.25,95,110.0
282,C#4,41.5,1.0,95,110.0
283,C#4,41.5,2.5,95,110.0
284,C#4,41.5,1.0,95,110.0
285,F#1,41.5,2.0,95,110.0
286,B-3,41.5,1.0,95,110.0
287,F#3,41.5,1.0,95,110.0
288,B3,42.5,0.75,95,110.0
289,B3,42.5,0.75,95,110.0
290,B3,42.5,0.75,95,110.0
291,F#3,42.5,0.75,95,110.0
292,B-3,43.25,0.75,95,110.0
293,B-3,43.25,0.75,95,110.0
294,B-3,43.25,0.75,95,110.0
295,F#3,43.25,0.75,95,110.0
296,E2,43.5,0.25,63,110.0
297,E-2,43.75,0.25,47,110.0
298,B3,44.0,3.0,95,110.0
299,B3,44.0,3.0,95,110.0
300,E2,44.0,0.75,95,110.0
301,B3,44.0,0.75,95,110.0
302,G#3,44.0,0.75,95,110.0
303,F#3,44.0,0.75,95,110.0
304,E3,44.0,0.75,95,110.0
305,B1,44.75,0.75,95,110.0
306,B3,44.75,0.25,95,110.0
307,G#3,44.75,0.25,95,110.0
308,F#3,44.75,0.25,95,110.0
309,E3,44.75,0.25,95,110.0
310,E1,45.5,2.0,95,110.0
311,B3,45.5,2.0,95,110.0
312,G#3,45.5,2.0,95,110.0
313,F#3,45.5,2.0,95,110.0
314,E3,45.5,2.0,95,110.0
315,B3,47.5,0.25,95,110.0
316,F#3,47.5,0.25,95,110.0
317,E1,47.5,0.25,95,110.0
318,C#4,47.75,0.25,95,110.0
319,G#3,47.75,0.25,95,110.0
320,F#1,47.75,0.25,95,110.0
321,C#4,48.0,0.75,95,110.0
322,B3,48.0,0.75,95,110.0
323,G#1,48.0,0.75,95,110.0
324,E-4,48.0,0.75,95,110.0
325,B3,48.0,0.75,95,110.0
326,G#3,48.0,0.75,95,110.0
327,F#4,48.75,0.75,95,110.0
328,B3,48.75,0.75,95,110.0
329,G#1,48.75,0.25,95,110.0
330,E-4,48.75,0.25,95,110.0
331,B3,48.75,0.25,95,110.0
332,G#3,48.75,0.25,95,110.0
333,F#4,49.5,1.0,95,110.0
334,C#4,49.5,2.0,95,110.0
335,F#1,49.5,2.0,95,110.0
336,C#4,49.5,2.0,95,110.0
337,B-3,49.5,2.0,95,110.0
338,F#3,49.5,2.0,95,110.0
339,B4,51.5,0.25,95,110.0
340,C#2,51.5,0.25,95,110.0
341,B-4,51.75,0.25,95,110.0
342,E-2,51.75,0.25,95,110.0
343,G#4,52.0,0.75,95,110.0
344,B3,52.0,3.0,95,110.0
345,B3,52.0,0.75,95,110.0
346,G#3,52.0,0.75,95,110.0
347,F#3,52.0,0.75,95,110.0
348,E3,52.0,0.75,95,110.0
349,E2,52.0,0.75,95,110.0
350,E1,52.0,0.75,95,110.0
351,F#4,52.75,0.5,95,110.0
352,B3,52.75,0.25,95,110.0
353,G#3,52.75,0.25,95,110.0
354,F#3,52.75,0.25,95,110.0
355,E3,52.75,0.25,95,110.0
356,E2,52.75,0.25,95,110.0
357,E1,52.75,0.25,95,110.0
358,E-4,53.25,0.25,95,110.0
359,F#4,53.5,2.0,95,110.0
360,B3,53.5,2.0,95,110.0
361,G#3,53.5,2.0,95,110.0
362,F#3,53.5,2.0,95,110.0
363,E3,53.5,2.0,95,110.0
364,E2,53.5,2.5,95,110.0
365,E1,53.5,2.5,95,110.0
366,F#4,55.5,0.25,95,110.0
367,F#3,55.5,0.25,95,110.0
368,E4,55.75,0.25,95,110.0
369,G#3,55.75,0.25,95,110.0
370,E-4,56.0,0.75,95,110.0
371,B3,56.0,0.75,95,110.0
372,B1,56.0,0.75,95,110.0
373,E-4,56.0,0.75,95,110.0
374,B3,56.0,0.75,95,110.0
375,F#3,56.0,0.75,95,110.0
376,F#4,56.75,0.75,95,110.0
377,B3,56.75,0.75,95,110.0
378,B1,56.75,0.25,95,110.0
379,E-4,56.75,0.25,95,110.0
380,B3,56.75,0.25,95,110.0
381,F#3,56.75,0.25,95,110.0
382,F#4,57.5,1.0,95,110.0
383,C#4,57.5,2.0,95,110.0
384,F#1,57.5,2.0,95,110.0
385,C#4,57.5,2.0,95,110.0
386,B-3,57.5,2.0,95,110.0
387,F#3,57.5,2.0,95,110.0
388,C#4,59.5,0.25,95,110.0
389,F#1,59.5,0.25,95,110.0
390,E-4,59.75,0.25,95,110.0
391,G#1,59.75,0.25,95,110.0
392,E4,60.0,0.75,95,110.0
393,B3,60.0,3.0,95,110.0
394,A1,60.0,0.75,95,110.0
395,C#4,60.0,0.75,95,110.0
396,B3,60.0,0.75,95,110.0
397,A3,60.0,0.75,95,110.0
398,E3,60.0,0.75,95,110.0
399,E4,60.75,0.75,95,110.0
400,E1,60.75,0.75,95,110.0
401,C#4,60.75,0.25,95,110.0
402,B3,60.75,0.25,95,110.0
403,A3,60.75,0.25,95,110.0
404,E3,60.75,0.25,95,110.0
405,C#4,61.5,0.5,95,110.0
406,A1,61.5,0.75,95,110.0
407,C#4,61.5,2.0,95,110.0
408,B3,61.5,2.0,95,110.0
409,A3,61.5,2.0,95,110.0
410,E3,61.5,2.0,95,110.0
411,C#4,62.0,1.0,95,110.0
412,E1,62.25,0.25,95,110.0
413,E1,62.75,0.25,95,110.0
414,B3,63.0,0.5,95,110.0
415,A1,63.0,0.25,95,110.0
416,B3,63.5,0.5,95,110.0
417,F#3,63.5,0.25,95,110.0
418,G#1,63.5,0.25,95,110.0
419,G#3,63.75,0.25,95,110.0
420,F#1,63.75,0.25,95,110.0
421,B3,64.0,2.0,95,110.0
422,B3,64.0,0.75,95,110.0
423,B3,64.0,0.75,95,110.0
424,G#3,64.0,0.75,95,110.0
425,F#3,64.0,0.75,95,110.0
426,E3,64.0,0.75,95,110.0
427,E2,64.0,0.75,95,110.0
428,E1,64.0,0.75,95,110.0
429,B3,64.75,0.75,95,110.0
430,B1,64.75,0.75,95,110.0
431,B3,64.75,0.25,95,110.0
432,G#3,64.75,0.25,95,110.0
433,F#3,64.75,0.25,95,110.0
434,E3,64.75,0.25,95,110.0
435,B3,65.5,2.0,95,110.0
436,E1,65.5,2.5,95,110.0
437,B3,65.5,2.0,95,110.0
438,G#3,65.5,2.0,95,110.0
439,F#3,65.5,2.0,95,110.0
440,E3,65.5,2.0,95,110.0
441,B3,68.0,3.0,95,110.0
442,B3,68.0,3.0,95,110.0
443,B3,68.0,3.0,95,110.0
444,B3,68.0,0.75,95,110.0
445,G#3,68.0,0.75,95,110.0
446,F#3,68.0,0.75,95,110.0
447,E3,68.0,0.75,95,110.0
448,E2,68.0,0.75,87,110.0
449,E1,68.0,0.75,87,110.0
450,B3,68.75,0.25,95,110.0
451,G#3,68.75,0.25,95,110.0
452,F#3,68.75,0.25,95,110.0
453,E3,68.75,0.25,95,110.0
454,E2,68.75,0.25,87,110.0
455,E1,68.75,0.25,87,110.0
456,B3,69.5,2.0,95,110.0
457,G#3,69.5,2.0,95,110.0
458,F#3,69.5,2.0,95,110.0
459,E3,69.5,2.0,95,110.0
460,E2,69.5,2.0,87,110.0
461,E1,69.5,2.0,87,110.0
462,B3,71.5,0.25,95,110.0
463,G#3,71.5,0.25,95,110.0
464,F#3,71.5,0.25,95,110.0
465,E1,71.5,0.25,95,110.0
466,C#4,71.75,0.25,95,110.0
467,B-3,71.75,0.25,95,110.0
468,G#3,71.75,0.25,95,110.0
469,F#1,71.75,0.25,95,110.0
470,E-4,72.0,0.75,95,110.0
471,B3,72.0,0.75,95,110.0
472,B3,72.0,0.75,95,110.0
473,G#1,72.0,0.75,95,110.0
474,E-4,72.0,0.75,95,110.0
475,B3,72.0,0.75,95,110.0
476,G#3,72.0,0.75,95,110.0
477,E-4,72.75,0.75,95,110.0
478,C#4,72.75,0.75,95,110.0
479,B3,72.75,0.75,95,110.0
480,G#1,72.75,0.25,95,110.0
481,E-4,72.75,0.25,95,110.0
482,B3,72.75,0.25,95,110.0
483,G#3,72.75,0.25,95,110.0
484,E4,73.5,1.0,95,110.0
485,C#4,73.5,1.0,95,110.0
486,C#4,73.5,2.5,95,110.0
487,C#4,73.5,1.0,95,110.0
488,F#1,73.5,2.0,95,110.0
489,B-3,73.5,1.0,95,110.0
490,F#3,73.5,1.0,95,110.0
491,E-4,74.5,0.75,95,110.0
492,B3,74.5,0.75,95,110.0
493,B3,74.5,0.75,95,110.0
494,B3,74.5,0.75,95,110.0
495,F#3,74.5,0.75,95,110.0
496,B-3,75.25,0.75,95,110.0
497,B-3,75.25,0.75,95,110.0
498,B-3,75.25,0.75,95,110.0
499,B-3,75.25,0.75,95,110.0
500,F#3,75.25,0.75,95,110.0
501,E2,75.5,0.25,63,110.0
502,E-2,75.75,0.25,47,110.0
503,B3,76.0,3.0,95,110.0
504,B3,76.0,3.0,95,110.0
505,B3,76.0,3.0,95,110.0
506,E2,76.0,0.75,95,110.0
507,B3,76.0,0.75,95,110.0
508,G#3,76.0,0.75,95,110.0
509,F#3,76.0,0.75,95,110.0
510,E3,76.0,0.75,95,110.0
511,B1,76.75,0.75,95,110.0
512,B3,76.75,0.25,95,110.0
513,G#3,76.75,0.25,95,110.0
514,F#3,76.75,0.25,95,110.0
515,E3,76.75,0.25,95,110.0
516,E1,77.5,2.0,95,110.0
517,B3,77.5,2.0,95,110.0
518,G#3,77.5,2.0,95,110.0
519,F#3,77.5,2.0,95,110.0
520,E3,77.5,2.0,95,110.0
521,B3,79.5,0.25,95,110.0
522,B3,79.5,0.25,95,110.0
523,F#3,79.5,0.25,95,110.0
524,E1,79.5,0.25,95,110.0
525,C#4,79.75,0.25,95,110.0
526,C#4,79.75,0.25,95,110.0
527,G#3,79.75,0.25,95,110.0
528,F#1,79.75,0.25,95,110.0
529,C#4,80.0,0.75,95,110.0
530,C#4,80.0,0.75,95,110.0
531,B3,80.0,0.75,95,110.0
532,G#1,80.0,0.75,95,110.0
533,E-4,80.0,0.75,95,110.0
534,B3,80.0,0.75,95,110.0
535,G#3,80.0,0.75,95,110.0
536,F#4,80.75,0.75,95,110.0
537,F#4,80.75,0.75,95,110.0
538,B3,80.75,0.75,95,110.0
539,G#1,80.75,0.25,95,110.0
540,E-4,80.75,0.25,95,110.0
541,B3,80.75,0.25,95,110.0
542,G#3,80.75,0.25,95,110.0
543,F#4,81.5,1.0,95,110.0
544,F#4,81.5,1.0,95,110.0
545,C#4,81.5,2.0,95,110.0
546,F#1,81.5,2.0,95,110.0
547,C#4,81.5,2.0,95,110.0
548,B-3,81.5,2.0,95,110.0
549,F#3,81.5,2.0,95,110.0
550,B4,83.5,0.25,95,110.0
551,B4,83.5,0.25,95,110.0
552,C#2,83.5,0.25,95,110.0
553,B-4,83.75,0.25,95,110.0
554,B-4,83.75,0.25,95,110.0
555,E-2,83.75,0.25,95,110.0
556,G#4,84.0,0.75,95,110.0
557,G#4,84.0,0.75,95,110.0
558,B3,84.0,3.0,95,110.0
559,B3,84.0,0.75,95,110.0
560,G#3,84.0,0.75,95,110.0
561,F#3,84.0,0.75,95,110.0
562,E3,84.0,0.75,95,110.0
563,E2,84.0,0.75,95,110.0
564,E1,84.0,0.75,95,110.0
565,F#4,84.75,0.5,95,110.0
566,F#4,84.75,0.5,95,110.0
567,B3,84.75,0.25,95,110.0
568,G#3,84.75,0.25,95,110.0
569,F#3,84.75,0.25,95,110.0
570,E3,84.75,0.25,95,110.0
571,E2,84.75,0.25,95,110.0
572,E1,84.75,0.25,95,110.0
573,E-4,85.25,0.25,95,110.0
574,E-4,85.25,0.25,95,110.0
575,F#4,85.5,2.0,95,110.0
576,F#4,85.5,2.0,95,110.0
577,B3,85.5,2.0,95,110.0
578,G#3,85.5,2.0,95,110.0
579,F#3,85.5,2.0,95,110.0
580,E3,85.5,2.0,95,110.0
581,E2,85.5,2.5,95,110.0
582,E1,85.5,2.5,95,110.0
583,F#4,87.5,0.25,95,110.0
584,F#4,87.5,0.25,95,110.0
585,F#3,87.5,0.25,95,110.0
586,E4,87.75,0.25,95,110.0
587,E4,87.75,0.25,95,110.0
588,G#3,87.75,0.25,95,110.0
589,E-4,88.0,0.75,95,110.0
590,E-4,88.0,0.75,95,110.0
591,B3,88.0,0.75,95,110.0
592,B1,88.0,0.75,95,110.0
593,E-4,88.0,0.75,95,110.0
594,B3,88.0,0.75,95,110.0
595,F#3,88.0,0.75,95,110.0
596,F#4,88.75,0.75,95,110.0
597,F#4,88.75,0.75,95,110.0
598,B3,88.75,0.75,95,110.0
599,B1,88.75,0.25,95,110.0
600,E-4,88.75,0.25,95,110.0
601,B3,88.75,0.25,95,110.0
602,F#3,88.75,0.25,95,110.0
603,F#4,89.5,1.0,95,110.0
604,F#4,89.5,1.0,95,110.0
605,C#4,89.5,2.0,95,110.0
606,F#1,89.5,2.0,95,110.0
607,C#4,89.5,2.0,95,110.0
608,B-3,89.5,2.0,95,110.0
609,F#3,89.5,2.0,95,110.0
610,C#4,91.5,0.25,95,110.0
611,C#4,91.5,0.25,95,110.0
612,F#1,91.5,0.25,95,110.0
613,E-4,91.75,0.25,95,110.0
614,E-4,91.75,0.25,95,110.0
615,G#1,91.75,0.25,95,110.0
616,E4,92.0,0.75,95,110.0
617,E4,92.0,0.75,95,110.0
618,B3,92.0,3.0,95,110.0
619,A1,92.0,0.75,95,110.0
620,C#4,92.0,0.75,95,110.0
621,B3,92.0,0.75,95,110.0
622,A3,92.0,0.75,95,110.0
623,E3,92.0,0.75,95,110.0
624,E4,92.75,0.75,95,110.0
625,E4,92.75,0.75,95,110.0
626,E1,92.75,0.75,95,110.0
627,C#4,92.75,0.25,95,110.0
628,B3,92.75,0.25,95,110.0
629,A3,92.75,0.25,95,110.0
630,E3,92.75,0.25,95,110.0
631,C#4,93.5,0.5,95,110.0
632,C#4,93.5,0.5,95,110.0
633,A1,93.5,0.75,95,110.0
634,C#4,93.5,2.0,95,110.0
635,B3,93.5,2.0,95,110.0
636,A3,93.5,2.0,95,110.0
637,E3,93.5,2.0,95,110.0
638,C#4,94.0,0.5,95,110.0
639,C#4,94.0,0.5,95,110.0
640,E1,94.25,0.25,95,110.0
641,B3,94.5,0.5,95,110.0
642,B3,94.5,0.5,95,110.0
643,E1,94.75,0.25,95,110.0
644,B3,95.0,0.5,95,110.0
645,B3,95.0,0.5,95,110.0
646,A1,95.0,0.25,95,110.0
647,B3,95.5,0.5,95,110.0
648,B3,95.5,0.5,95,110.0
649,F#3,95.5,0.25,95,110.0
650,G#1,95.5,0.25,95,110.0
651,G#3,95.75,0.25,95,110.0
652,F#1,95.75,0.25,95,110.0
653,B3,96.0,1.5,95,110.0
654,B3,96.0,2.0,95,110.0
655,B3,96.0,0.75,95,110.0
656,B3,96.0,0.75,95,110.0
657,G#3,96.0,0.75,95,110.0
658,F#3,96.0,0.75,95,110.0
659,E3,96.0,0.75,95,110.0
660,E2,96.0,0.75,95,110.0
661,E1,96.0,0.75,95,110.0
662,B3,96.75,0.75,95,110.0
663,B1,96.75,0.75,95,110.0
664,B3,96.75,0.25,95,110.0
665,G#3,96.75,0.25,95,110.0
666,F#3,96.75,0.25,95,110.0
667,E3,96.75,0.25,95,110.0
668,F#4,97.5,0.5,95,110.0
669,B3,97.5,2.0,95,110.0
670,E1,97.5,0.75,95,110.0
671,B3,97.5,1.0,95,110.0
672,G#3,97.5,1.0,95,110.0
673,F#3,97.5,1.0,95,110.0
674,E3,97.5,1.0,95,110.0
675,F#4,98.0,0.5,95,110.0
676,E1,98.25,0.75,95,110.0
677,B4,98.5,0.5,95,110.0
678,B3,98.5,0.5,95,110.0
679,G#3,98.5,0.5,95,110.0
680,F#3,98.5,0.5,95,110.0
681,E3,98.5,0.5,95,110.0
682,B4,99.0,0.5,95,110.0
683,B1,99.0,0.5,95,110.0
684,B3,99.0,0.5,95,110.0
685,G#3,99.0,0.5,95,110.0
686,F#3,99.0,0.5,95,110.0
687,E3,99.0,0.5,95,110.0
688,C#5,99.5,0.5,95,110.0
689,C#2,99.5,0.25,95,110.0
690,B3,99.5,0.5,95,110.0
691,G#3,99.5,0.5,95,110.0
692,F#3,99.5,0.5,95,110.0
693,E3,99.5,0.5,95,110.0
694,C#2,99.75,0.25,95,110.0
695,B4,100.5,0.5,95,110.0
696,B3,100.5,0.5,95,110.0
697,B1,100.5,0.5,95,110.0
698,F#4,100.5,0.5,63,110.0
699,B3,100.5,0.5,63,110.0
700,F#3,100.5,0.5,63,110.0
701,E-4,100.5,0.5,95,110.0
702,B3,100.5,0.5,95,110.0
703,F#3,100.5,0.5,95,110.0
704,B4,101.0,0.5,95,110.0
705,B3,101.0,0.5,95,110.0
706,B1,101.0,0.5,95,110.0
707,F#4,101.0,0.5,63,110.0
708,B3,101.0,0.5,63,110.0
709,F#3,101.0,0.5,63,110.0
710,E-4,101.0,1.0,95,110.0
711,B3,101.0,1.0,95,110.0
712,F#3,101.0,1.0,95,110.0
713,C#5,101.5,0.5,95,110.0
714,B3,101.5,0.5,95,110.0
715,B1,101.5,0.5,95,110.0
716,C#5,102.0,0.5,95,110.0
717,F#3,102.0,0.5,95,110.0
718,B1,102.0,0.25,95,110.0
719,C#4,102.0,0.5,95,110.0
720,B-3,102.0,0.5,95,110.0
721,F#3,102.0,0.5,95,110.0
722,B1,102.25,0.25,47,110.0
723,B1,102.5,0.25,63,110.0
724,B1,102.75,0.25,47,110.0
725,C#4,102.75,0.5,95,110.0
726,B-3,102.75,0.5,95,110.0
727,F#3,102.75,0.5,95,110.0
728,B1,103.0,0.25,95,110.0
729,C#5,103.5,0.25,95,110.0
730,F#3,103.5,0.25,95,110.0
731,E-5,103.75,0.25,95,110.0
732,G#3,103.75,0.25,95,110.0
733,E5,104.0,0.75,95,110.0
734,B3,104.0,0.75,95,110.0
735,A1,104.0,0.75,95,110.0
736,C#4,104.0,0.75,95,110.0
737,A3,104.0,0.75,95,110.0
738,E3,104.0,0.75,95,110.0
739,E5,104.75,0.75,95,110.0
740,B3,104.75,0.75,95,110.0
741,A1,104.75,0.5,95,110.0
742,C#4,104.75,0.75,95,110.0
743,A3,104.75,0.75,95,110.0
744,E3,104.75,0.75,95,110.0
745,C#5,105.5,0.5,95,110.0
746,C#4,105.5,1.0,95,110.0
747,E1,105.5,2.0,95,110.0
748,B3,105.5,1.0,95,110.0
749,G#3,105.5,1.0,95,110.0
750,E3,105.5,1.0,95,110.0
751,C#5,106.0,0.5,95,110.0
752,B4,106.5,0.5,95,110.0
753,B3,106.5,0.5,95,110.0
754,G#3,106.5,0.5,95,110.0
755,E3,106.5,0.5,95,110.0
756,B4,107.0,0.75,95,110.0
757,B3,107.0,0.5,95,110.0
758,B3,107.0,0.5,95,110.0
759,G#3,107.0,0.5,95,110.0
760,E3,107.0,0.5,95,110.0
761,F#3,107.5,0.25,95,110.0
762,F#1,107.5,0.25,95,110.0
763,G#3,107.75,0.25,95,110.0
764,G#1,107.75,0.25,95,110.0
765,B3,108.0,0.75,95,110.0
766,B1,108.0,0.25,95,110.0
767,B1,108.5,0.25,95,110.0
768,E-4,108.5,0.25,95,110.0
769,B3,108.5,0.25,95,110.0
770,F#3,108.5,0.25,95,110.0
771,B3,108.75,0.75,95,110.0
772,B1,108.75,0.25,95,110.0
773,B1,109.0,0.5,95,110.0
774,E-4,109.25,0.25,95,110.0
775,B3,109.25,0.5,95,110.0
776,F#3,109.25,0.5,95,110.0
777,F#4,109.5,0.5,95,110.0
778,C#4,109.5,0.25,95,110.0
779,B3,109.5,0.75,95,110.0
780,G#4,110.0,0.5,95,110.0
781,G#1,110.0,2.0,95,110.0
782,E-4,110.0,0.5,95,110.0
783,B3,110.0,0.5,95,110.0
784,F#3,110.0,0.5,95,110.0
785,B4,110.5,0.5,95,110.0
786,E-4,110.75,0.5,95,110.0
787,B3,110.75,0.5,95,110.0
788,F#3,110.75,0.5,95,110.0
789,B4,111.0,0.5,95,110.0
790,B4,111.5,0.5,95,110.0
791,B4,112.0,0.5,95,110.0
792,B3,112.0,0.75,95,110.0
793,G1,112.0,1.0,95,110.0
794,F#4,112.0,0.75,95,110.0
795,D4,112.0,0.75,95,110.0
796,B3,112.0,0.75,95,110.0
797,G3,112.0,0.75,95,110.0
798,B4,112.5,1.0,95,110.0
799,B3,112.75,0.75,95,110.0
800,F#4,112.75,0.75,95,110.0
801,D4,112.75,0.75,95,110.0
802,B3,112.75,0.75,95,110.0
803,G3,112.75,0.75,95,110.0
804,A3,113.5,1.0,95,110.0
805,E3,113.5,1.5,95,110.0
806,B3,113.5,0.5,95,110.0
807,G1,113.5,0.25,95,110.0
808,E4,113.5,2.5,95,110.0
809,C#4,113.5,2.5,95,110.0
810,G1,113.75,0.25,95,110.0
811,C#4,114.0,0.75,95,110.0
812,A1,114.0,0.25,95,110.0
813,B3,114.5,0.5,95,110.0
814,G1,114.5,0.25,95,110.0
815,A3,114.75,0.75,95,110.0
816,G1,114.75,0.25,95,110.0
817,A1,115.0,0.25,95,110.0
818,A3,115.0,0.5,95,110.0
819,E3,115.0,0.5,95,110.0
820,B3,115.5,0.5,95,110.0
821,A1,115.5,0.5,95,110.0
822,B3,115.5,0.5,95,110.0
823,F#3,115.5,0.5,95,110.0
824,B4,116.5,0.5,95,110.0
825,B3,116.5,0.5,95,110.0
826,B1,116.5,0.5,95,110.0
827,E-4,116.5,0.5,95,110.0
828,B3,116.5,0.5,95,110.0
829,F#3,116.5,0.5,95,110.0
830,B4,117.0,0.5,95,110.0
831,B3,117.0,0.5,95,110.0
832,B1,117.0,0.5,95,110.0
833,E-4,117.0,1.0,95,110.0
834,B3,117.0,1.0,95,110.0
835,F#3,117.0,1.0,95,110.0
836,C#5,117.5,0.5,95,110.0
837,B3,117.5,0.5,95,110.0
838,B1,117.5,0.5,95,110.0
839,C#5,118.0,0.5,95,110.0
840,F#3,118.0,0.5,95,110.0
841,B1,118.0,0.25,95,110.0
842,C#4,118.0,0.5,95,110.0
843,B-3,118.0,0.5,95,110.0
844,F#3,118.0,0.5,95,110.0
845,B1,118.25,0.25,47,110.0
846,B1,118.5,0.25,63,110.0
847,B1,118.75,0.25,47,110.0
848,C#4,118.75,0.5,95,110.0
849,B-3,118.75,0.5,95,110.0
850,F#3,118.75,0.5,95,110.0
851,B1,119.0,0.25,95,110.0
852,C#5,119.5,0.25,95,110.0
853,F#3,119.5,0.25,95,110.0
854,E-5,119.75,0.25,95,110.0
855,G#3,119.75,0.25,95,110.0
856,E5,120.0,0.75,95,110.0
857,B3,120.0,0.75,95,110.0
858,A1,120.0,0.75,95,110.0
859,C#4,120.0,0.75,95,110.0
860,A3,120.0,0.75,95,110.0
861,E3,120.0,0.75,95,110.0
862,E5,120.75,0.75,95,110.0
863,B3,120.75,0.75,95,110.0
864,A1,120.75,0.5,95,110.0
865,C#4,120.75,0.75,95,110.0
866,A3,120.75,0.75,95,110.0
867,E3,120.75,0.75,95,110.0
868,E5,121.5,1.0,95,110.0
869,C#4,121.5,1.0,95,110.0
870,E1,121.5,2.0,95,110.0
871,B3,121.5,1.0,95,110.0
872,G#3,121.5,1.0,95,110.0
873,E3,121.5,1.0,95,110.0
874,C#5,122.5,0.5,95,110.0
875,B3,122.5,0.5,95,110.0
876,G#3,122.5,0.5,95,110.0
877,E3,122.5,0.5,95,110.0
878,C#5,123.0,0.5,95,110.0
879,B3,123.0,0.5,95,110.0
880,B3,123.0,0.5,95,110.0
881,G#3,123.0,0.5,95,110.0
882,E3,123.0,0.5,95,110.0
883,B4,123.5,0.5,95,110.0
884,F#3,123.5,0.25,95,110.0
885,E1,123.5,0.25,95,110.0
886,G#3,123.75,0.25,95,110.0
887,B4,124.0,1.5,95,110.0
888,B3,124.0,0.75,95,110.0
889,F#1,124.0,0.75,95,110.0
890,E4,124.0,0.75,95,110.0
891,B3,124.0,0.75,95,110.0
892,A3,124.0,0.75,95,110.0
893,E3,124.0,0.75,95,110.0
894,B3,124.75,0.75,95,110.0
895,F#1,124.75,0.5,95,110.0
896,E4,124.75,0.75,95,110.0
897,B3,124.75,0.75,95,110.0
898,A3,124.75,0.75,95,110.0
899,E3,124.75,0.75,95,110.0
900,B3,125.5,0.75,95,110.0
901,F#1,125.5,2.5,95,110.0
902,E4,125.5,1.5,95,110.0
903,B3,125.5,1.5,95,110.0
904,A3,125.5,1.0,95,110.0
905,E3,125.5,1.0,95,110.0
906,A3,126.5,0.5,95,110.0
907,E3,126.5,0.5,95,110.0
908,E4,127.0,1.0,95,110.0
909,B3,127.0,1.0,95,110.0
910,A3,127.0,1.0,95,110.0
911,E3,127.0,1.0,95,110.0
912,B4,127.5,0.5,95,110.0
913,E5,128.0,0.75,95,110.0
914,B3,128.0,0.75,95,110.0
915,G1,128.0,1.5,95,110.0
916,F#4,128.0,0.75,95,110.0
917,D4,128.0,0.75,95,110.0
918,B3,128.0,0.75,95,110.0
919,G3,128.0,0.75,95,110.0
920,E5,128.75,0.75,95,110.0
921,B3,128.75,0.75,95,110.0
922,F#4,128.75,0.75,95,110.0
923,D4,128.75,0.75,95,110.0
924,B3,128.75,0.75,95,110.0
925,G3,128.75,0.75,95,110.0
926,B4,129.5,0.5,95,110.0
927,A3,129.5,1.5,95,110.0
928,E3,129.5,1.0,95,110.0
929,B3,129.5,0.5,95,110.0
930,G1,129.5,0.25,95,110.0
931,E4,129.5,2.5,95,110.0
932,C#4,129.5,2.5,95,110.0
933,C5,130.0,1.0,95,110.0
934,C#4,130.0,0.75,95,110.0
935,A1,130.0,0.75,95,110.0
936,E3,130.5,0.5,95,110.0
937,A3,130.75,0.75,95,110.0
938,A1,130.75,0.75,95,110.0
939,C#5,131.0,1.0,95,110.0
940,A3,131.0,1.0,95,110.0
941,E3,131.0,1.0,95,110.0
942,B3,131.5,0.5,95,110.0
943,G1,131.5,0.25,95,110.0
944,A1,131.75,0.25,95,110.0
945,B4,132.0,2.0,95,110.0
946,B3,132.0,3.0,95,110.0
947,B3,132.0,0.75,95,110.0
948,G#3,132.0,0.75,95,110.0
949,F#3,132.0,0.75,95,110.0
950,E3,132.0,0.75,95,110.0
951,E2,132.0,0.75,87,110.0
952,E1,132.0,0.75,87,110.0
953,B3,132.75,0.25,95,110.0
954,G#3,132.75,0.25,95,110.0
955,F#3,132.75,0.25,95,110.0
956,E3,132.75,0.25,95,110.0
957,E2,132.75,0.25,87,110.0
958,E1,132.75,0.25,87,110.0
959,B3,133.5,2.0,95,110.0
960,G#3,133.5,2.0,95,110.0
961,F#3,133.5,2.0,95,110.0
962,E3,133.5,2.0,95,110.0
963,E2,133.5,2.0,87,110.0
964,E1,133.5,2.0,87,110.0
965,B3,135.5,0.25,95,110.0
966,F#3,135.5,0.25,95,110.0
967,E1,135.5,0.25,95,110.0
968,C#4,135.75,0.25,95,110.0
969,G#3,135.75,0.25,95,110.0
970,F#1,135.75,0.25,95,110.0
971,E-4,136.0,0.75,95,110.0
972,B3,136.0,0.75,95,110.0
973,G#1,136.0,0.75,95,110.0
974,E-4,136.0,0.75,95,110.0
975,B3,136.0,0.75,95,110.0
976,G#3,136.0,0.75,95,110.0
977,F#4,136.75,0.75,95,110.0
978,B3,136.75,0.75,95,110.0
979,G#1,136.75,0.25,95,110.0
980,E-4,136.75,0.25,95,110.0
981,B3,136.75,0.25,95,110.0
982,G#3,136.75,0.25,95,110.0
983,E-4,137.5,1.0,95,110.0
984,C#4,137.5,2.5,95,110.0
985,C#4,137.5,1.0,95,110.0
986,F#1,137.5,2.0,95,110.0
987,B-3,137.5,1.0,95,110.0
988,F#3,137.5,1.0,95,110.0
989,B3,138.5,0.75,95,110.0
990,B3,138.5,0.75,95,110.0
991,B3,138.5,0.75,95,110.0
992,F#3,138.5,0.75,95,110.0
993,B-3,139.25,0.75,95,110.0
994,B-3,139.25,0.75,95,110.0
995,B-3,139.25,0.75,95,110.0
996,F#3,139.25,0.75,95,110.0
997,E2,139.5,0.25,63,110.0
998,E-2,139.75,0.25,47,110.0
999,B3,140.0,3.0,95,110.0
1000,B3,140.0,3.0,95,110.0
1001,E2,140.0,0.75,95,110.0
1002,B3,140.0,0.75,95,110.0
1003,G#3,140.0,0.75,95,110.0
1004,F#3,140.0,0.75,95,110.0
1005,E3,140.0,0.75,95,110.0
1006,B1,140.75,0.75,95,110.0
1007,B3,140.75,0.25,95,110.0
1008,G#3,140.75,0.25,95,110.0
1009,F#3,140.75,0.25,95,110.0
1010,E3,140.75,0.25,95,110.0
1011,E1,141.5,2.0,95,110.0
1012,B3,141.5,2.0,95,110.0
1013,G#3,141.5,2.0,95,110.0
1014,F#3,141.5,2.0,95,110.0
1015,E3,141.5,2.0,95,110.0
1016,B3,143.5,0.25,95,110.0
1017,F#3,143.5,0.25,95,110.0
1018,E1,143.5,0.25,95,110.0
1019,C#4,143.75,0.25,95,110.0
1020,G#3,143.75,0.25,95,110.0
1021,F#1,143.75,0.25,95,110.0
1022,C#4,144.0,0.75,95,110.0
1023,B3,144.0,0.75,95,110.0
1024,G#1,144.0,0.75,95,110.0
1025,E-4,144.0,0.75,95,110.0
1026,B3,144.0,0.75,95,110.0
1027,G#3,144.0,0.75,95,110.0
1028,F#4,144.75,0.75,95,110.0
1029,B3,144.75,0.75,95,110.0
1030,G#1,144.75,0.25,95,110.0
1031,E-4,144.75,0.25,95,110.0
1032,B3,144.75,0.25,95,110.0
1033,G#3,144.75,0.25,95,110.0
1034,F#4,145.5,1.0,95,110.0
1035,C#4,145.5,2.0,95,110.0
1036,F#1,145.5,2.0,95,110.0
1037,C#4,145.5,2.0,95,110.0
1038,B-3,145.5,2.0,95,110.0
1039,F#3,145.5,2.0,95,110.0
1040,B4,147.5,0.25,95,110.0
1041,C#2,147.5,0.25,95,110.0
1042,B-4,147.75,0.25,95,110.0
1043,E-2,147.75,0.25,95,110.0
1044,G#4,148.0,0.75,95,110.0
1045,B3,148.0,3.0,95,110.0
1046,B3,148.0,0.75,95,110.0
1047,G#3,148.0,0.75,95,110.0
1048,F#3,148.0,0.75,95,110.0
1049,E3,148.0,0.75,95,110.0
1050,E2,148.0,0.75,95,110.0
1051,E1,148.0,0.75,95,110.0
1052,F#4,148.75,0.5,95,110.0
1053,B3,148.75,0.25,95,110.0
1054,G#3,148.75,0.25,95,110.0
1055,F#3,148.75,0.25,95,110.0
1056,E3,148.75,0.25,95,110.0
1057,E2,148.75,0.25,95,110.0
1058,E1,148.75,0.25,95,110.0
1059,E-4,149.25,0.25,95,110.0
1060,F#4,149.5,2.0,95,110.0
1061,B3,149.5,2.0,95,110.0
1062,G#3,149.5,2.0,95,110.0
1063,F#3,149.5,2.0,95,110.0
1064,E3,149.5,2.0,95,110.0
1065,E2,149.5,2.5,95,110.0
1066,E1,149.5,2.5,95,110.0
1067,F#4,151.5,0.25,95,110.0
1068,F#3,151.5,0.25,95,110.0
1069,E4,151.75,0.25,95,110.0
1070,G#3,151.75,0.25,95,110.0
1071,E-4,152.0,0.75,95,110.0
1072,B3,152.0,0.75,95,110.0
1073,B1,152.0,0.75,95,110.0
1074,E-4,152.0,0.75,95,110.0
1075,B3,152.0,0.75,95,110.0
1076,F#3,152.0,0.75,95,110.0
1077,F#4,152.75,0.75,95,110.0
1078,B3,152.75,0.75,95,110.0
1079,B1,152.75,0.25,95,110.0
1080,E-4,152.75,0.25,95,110.0
1081,B3,152.75,0.25,95,110.0
1082,F#3,152.75,0.25,95,110.0
1083,F#4,153.5,1.0,95,110.0
1084,C#4,153.5,2.0,95,110.0
1085,F#1,153.5,2.0,95,110.0
1086,C#4,153.5,2.0,95,110.0
1087,B-3,153.5,2.0,95,110.0
1088,F#3,153.5,2.0,95,110.0
1089,C#4,155.5,0.25,95,110.0
1090,F#1,155.5,0.25,95,110.0
1091,E-4,155.75,0.25,95,110.0
1092,G#1,155.75,0.25,95,110.0
1093,E4,156.0,0.75,95,110.0
1094,B3,156.0,3.0,95,110.0
1095,A1,156.0,0.75,95,110.0
1096,C#4,156.0,0.75,95,110.0
1097,B3,156.0,0.75,95,110.0
1098,A3,156.0,0.75,95,110.0
1099,E3,156.0,0.75,95,110.0
1100,E4,156.75,0.75,95,110.0
1101,E1,156.75,0.75,95,110.0
1102,C#4,156.75,0.25,95,110.0
1103,B3,156.75,0.25,95,110.0
1104,A3,156.75,0.25,95,110.0
1105,E3,156.75,0.25,95,110.0
1106,C#4,157.5,0.5,95,110.0
1107,A1,157.5,0.75,95,110.0
1108,C#4,157.5,2.0,95,110.0
1109,B3,157.5,2.0,95,110.0
1110,A3,157.5,2.0,95,110.0
1111,E3,157.5,2.0,95,110.0
1112,C#4,158.0,0.5,95,110.0
1113,E1,158.25,0.25,95,110.0
1114,B3,158.5,0.5,95,110.0
1115,E1,158.75,0.25,95,110.0
1116,B3,159.0,0.5,95,110.0
1117,A1,159.0,0.25,95,110.0
1118,B3,159.5,0.5,95,110.0
1119,F#3,159.5,0.25,95,110.0
1120,G#1,159.5,0.25,95,110.0
1121,G#3,159.75,0.25,95,110.0
1122,F#1,159.75,0.25,95,110.0
1123,B3,160.0,2.0,95,110.0
1124,B3,160.0,0.75,95,110.0
1125,B3,160.0,0.75,95,110.0
1126,G#3,160.0,0.75,95,110.0
1127,F#3,160.0,0.75,95,110.0
1128,E3,160.0,0.75,95,110.0
1129,E2,160.0,0.75,95,110.0
1130,E1,160.0,0.75,95,110.0
1131,B3,160.75,0.75,95,110.0
1132,B1,160.75,0.75,95,110.0
1133,B3,160.75,0.25,95,110.0
1134,G#3,160.75,0.25,95,110.0
1135,F#3,160.75,0.25,95,110.0
1136,E3,160.75,0.25,95,110.0
1137,B3,161.5,2.0,95,110.0
1138,E1,161.5,2.5,95,110.0
1139,B3,161.5,2.0,95,110.0
1140,G#3,161.5,2.0,95,110.0
1141,F#3,161.5,2.0,95,110.0
1142,E3,161.5,2.0,95,110.0
1143,B3,164.0,0.75,95,110.0
1144,B3,164.0,0.75,95,110.0
1145,F#3,164.0,1.5,95,110.0
1146,G#2,164.0,0.75,95,110.0
1147,G#1,164.0,0.75,95,110.0
1148,B-3,164.75,0.75,95,110.0
1149,B-3,164.75,0.75,95,110.0
1150,F#2,164.75,0.75,95,110.0
1151,F#1,164.75,0.75,95,110.0
1152,F#3,165.5,0.5,95,110.0
1153,F#3,165.5,0.5,95,110.0
1154,F#2,165.5,0.5,95,110.0
1155,F#1,165.5,0.5,95,110.0
1156,B3,166.0,0.75,95,110.0
1157,B3,166.0,0.75,95,110.0
1158,F#3,166.0,1.5,95,110.0
1159,G#2,166.0,0.25,95,110.0
1160,G#1,166.0,0.25,95,110.0
1161,B-3,166.75,0.75,95,110.0
1162,B-3,166.75,0.75,95,110.0
1163,F#3,167.5,0.5,95,110.0
1164,F#1,169.25,0.25,47,110.0
1165,G#1,169.5,0.25,63,110.0
1166,C#5,169.5,0.25,63,110.0
1167,E-4,169.5,0.25,63,110.0
1168,B1,169.75,0.25,79,110.0
1169,C#5,169.75,0.25,79,110.0
1170,E-4,169.75,0.25,79,110.0
1171,C#2,170.0,0.25,79,110.0
1172,C#5,170.0,0.25,63,110.0
1173,E-4,170.0,0.25,63,110.0
1174,E-2,170.25,0.25,63,110.0
1175,C#5,170.25,0.25,79,110.0
1176,E-4,170.25,0.25,79,110.0
1177,B1,170.5,0.25,63,110.0
1178,C#5,170.5,0.25,63,110.0
1179,E-4,170.5,0.25,63,110.0
1180,G#1,170.75,0.25,63,110.0
1181,C#5,170.75,0.25,47,110.0
1182,E-4,170.75,0.25,47,110.0
1183,G#1,171.0,0.5,63,110.0
1184,C#5,171.0,1.0,63,110.0
1185,E-4,171.0,1.0,63,110.0
1186,F#1,171.5,0.5,95,110.0
1187,B3,172.0,0.75,95,110.0
1188,B3,172.0,0.75,95,110.0
1189,F#3,172.0,1.5,95,110.0
1190,G#2,172.0,0.75,95,110.0
1191,G#1,172.0,0.75,95,110.0
1192,B-3,172.75,0.75,95,110.0
1193,B-3,172.75,0.75,95,110.0
1194,F#2,172.75,0.75,95,110.0
1195,F#1,172.75,0.75,95,110.0
1196,F#3,173.5,0.5,95,110.0
1197,F#3,173.5,0.5,95,110.0
1198,F#2,173.5,0.5,95,110.0
1199,F#1,173.5,0.5,95,110.0
1200,B3,174.0,0.75,95,110.0
1201,B3,174.0,0.75,95,110.0
1202,F#3,174.0,1.5,95,110.0
1203,G#2,174.0,0.25,95,110.0
1204,G#1,174.0,0.25,95,110.0
1205,B-3,174.75,0.75,95,110.0
1206,B-3,174.75,0.75,95,110.0
1207,F#3,175.5,0.5,95,110.0
1208,E-3,179.0,0.25,95,110.0
1209,G#3,179.25,0.25,95,110.0
1210,B3,179.5,0.25,95,110.0
1211,B-3,179.75,0.25,95,110.0
1212,B4,180.0,3.0,63,110.0
1213,B3,180.0,3.0,95,110.0
1214,B3,180.0,0.75,95,110.0
1215,G#3,180.0,0.75,95,110.0
1216,F#3,180.0,0.75,95,110.0
1217,E3,180.0,0.75,95,110.0
1218,B3,180.0,3.5,95,110.0
1219,G#3,180.0,3.5,95,110.0
1220,E2,180.0,0.75,87,110.0
1221,E1,180.0,0.75,87,110.0
1222,B3,180.75,0.25,95,110.0
1223,G#3,180.75,0.25,95,110.0
1224,F#3,180.75,0.25,95,110.0
1225,E3,180.75,0.25,95,110.0
1226,E2,180.75,0.25,87,110.0
1227,E1,180.75,0.25,87,110.0
1228,B3,181.5,2.0,95,110.0
1229,G#3,181.5,2.0,95,110.0
1230,F#3,181.5,2.0,95,110.0
1231,E3,181.5,2.0,95,110.0
1232,E2,181.5,2.0,87,110.0
1233,E1,181.5,2.0,87,110.0
1234,G#4,183.5,0.25,47,110.0
1235,F#3,183.5,0.25,95,110.0
1236,G#3,183.5,0.25,95,110.0
1237,E1,183.5,0.25,95,110.0
1238,B-4,183.75,0.25,47,110.0
1239,G#3,183.75,0.25,95,110.0
1240,B-3,183.75,0.25,95,110.0
1241,F#1,183.75,0.25,95,110.0
1242,B4,184.0,0.75,95,110.0
1243,B3,184.0,0.75,95,110.0
1244,B3,184.0,4.0,95,110.0
1245,G#1,184.0,0.75,95,110.0
1246,E-4,184.0,0.75,95,110.0
1247,B3,184.0,0.75,95,110.0
1248,G#3,184.0,0.75,95,110.0
1249,C#5,184.75,0.75,95,110.0
1250,B3,184.75,0.75,95,110.0
1251,G#1,184.75,0.25,95,110.0
1252,E-4,184.75,0.25,95,110.0
1253,B3,184.75,0.25,95,110.0
1254,G#3,184.75,0.25,95,110.0
1255,C#5,185.5,1.0,95,110.0
1256,C#4,185.5,2.5,95,110.0
1257,C#4,185.5,1.0,95,110.0
1258,F#1,185.5,2.0,95,110.0
1259,B-3,185.5,1.0,95,110.0
1260,F#3,185.5,1.0,95,110.0
1261,B4,186.5,0.75,95,110.0
1262,B3,186.5,0.75,95,110.0
1263,B3,186.5,0.75,95,110.0
1264,F#3,186.5,0.75,95,110.0
1265,B-4,187.25,0.75,95,110.0
1266,B-3,187.25,0.75,95,110.0
1267,B-3,187.25,0.75,95,110.0
1268,F#3,187.25,0.75,95,110.0
1269,E2,187.5,0.25,63,110.0
1270,E-2,187.75,0.25,47,110.0
1271,B4,188.0,3.0,95,110.0
1272,B3,188.0,3.0,95,110.0
1273,B3,188.0,4.0,95,110.0
1274,G#3,188.0,3.5,95,110.0
1275,E2,188.0,0.75,95,110.0
1276,B3,188.0,0.75,95,110.0
1277,G#3,188.0,0.75,95,110.0
1278,F#3,188.0,0.75,95,110.0
1279,E3,188.0,0.75,95,110.0
1280,B1,188.75,0.75,95,110.0
1281,B3,188.75,0.25,95,110.0
1282,G#3,188.75,0.25,95,110.0
1283,F#3,188.75,0.25,95,110.0
1284,E3,188.75,0.25,95,110.0
1285,E1,189.5,2.0,95,110.0
1286,B3,189.5,2.0,95,110.0
1287,G#3,189.5,2.0,95,110.0
1288,F#3,189.5,2.0,95,110.0
1289,E3,189.5,2.0,95,110.0
1290,B4,191.5,0.25,95,110.0
1291,F#3,191.5,0.25,95,110.0
1292,G#3,191.5,0.25,95,110.0
1293,E1,191.5,0.25,95,110.0
1294,C#5,191.75,0.25,95,110.0
1295,G#3,191.75,0.25,95,110.0
1296,B-3,191.75,0.25,95,110.0
1297,F#1,191.75,0.25,95,110.0
1298,E-5,192.0,0.75,95,110.0
1299,B3,192.0,0.75,95,110.0
1300,E-4,192.0,3.5,95,110.0
1301,B3,192.0,3.5,95,110.0
1302,G#1,192.0,0.75,95,110.0
1303,E-4,192.0,0.75,95,110.0
1304,B3,192.0,0.75,95,110.0
1305,G#3,192.0,0.75,95,110.0
1306,F#5,192.75,0.75,95,110.0
1307,B3,192.75,0.75,95,110.0
1308,G#1,192.75,0.25,95,110.0
1309,E-4,192.75,0.25,95,110.0
1310,B3,192.75,0.25,95,110.0
1311,G#3,192.75,0.25,95,110.0
1312,F#5,193.5,1.0,95,110.0
1313,C#4,193.5,2.0,95,110.0
1314,F#1,193.5,2.0,95,110.0
1315,C#4,193.5,2.0,95,110.0
1316,B-3,193.5,2.0,95,110.0
1317,F#3,193.5,2.0,95,110.0
1318,B5,195.5,0.25,95,110.0
1319,G#3,195.5,0.25,95,110.0
1320,C#2,195.5,0.25,95,110.0
1321,B-5,195.75,0.25,95,110.0
1322,B-3,195.75,0.25,95,110.0
1323,E-2,195.75,0.25,95,110.0
1324,G#5,196.0,0.75,95,110.0
1325,B3,196.0,3.0,95,110.0
1326,B3,196.0,0.75,95,110.0
1327,G#3,196.0,0.75,95,110.0
1328,F#3,196.0,0.75,95,110.0
1329,E3,196.0,0.75,95,110.0
1330,B3,196.0,3.5,95,110.0
1331,G#3,196.0,3.5,95,110.0
1332,E2,196.0,0.75,95,110.0
1333,E1,196.0,0.75,95,110.0
1334,F#5,196.75,0.5,95,110.0
1335,B3,196.75,0.25,95,110.0
1336,G#3,196.75,0.25,95,110.0
1337,F#3,196.75,0.25,95,110.0
1338,E3,196.75,0.25,95,110.0
1339,E2,196.75,0.25,95,110.0
1340,E1,196.75,0.25,95,110.0
1341,E-5,197.25,0.25,95,110.0
1342,F#5,197.5,2.0,95,110.0
1343,B3,197.5,2.0,95,110.0
1344,G#3,197.5,2.0,95,110.0
1345,F#3,197.5,2.0,95,110.0
1346,E3,197.5,2.0,95,110.0
1347,E2,197.5,2.5,95,110.0
1348,E1,197.5,2.5,95,110.0
1349,F#5,199.5,0.25,95,110.0
1350,F#3,199.5,0.25,95,110.0
1351,B3,199.5,0.25,95,110.0
1352,E5,199.75,0.25,95,110.0
1353,G#3,199.75,0.25,95,110.0
1354,B-3,199.75,0.25,95,110.0
1355,E-5,200.0,0.75,95,110.0
1356,B3,200.0,0.75,95,110.0
1357,B1,200.0,0.75,95,110.0
1358,E-4,200.0,0.75,95,110.0
1359,B3,200.0,0.75,95,110.0
1360,F#3,200.0,0.75,95,110.0
1361,B3,200.0,3.5,95,110.0
1362,B3,200.0,3.5,95,110.0
1363,F#5,200.75,0.75,95,110.0
1364,B3,200.75,0.75,95,110.0
1365,B1,200.75,0.25,95,110.0
1366,E-4,200.75,0.25,95,110.0
1367,B3,200.75,0.25,95,110.0
1368,F#3,200.75,0.25,95,110.0
1369,F#5,201.5,1.0,95,110.0
1370,C#4,201.5,2.0,95,110.0
1371,F#1,201.5,2.0,95,110.0
1372,C#4,201.5,2.0,95,110.0
1373,B-3,201.5,2.0,95,110.0
1374,F#3,201.5,2.0,95,110.0
1375,C#5,203.5,0.25,95,110.0
1376,G#3,203.5,0.25,95,110.0
1377,F#1,203.5,0.25,95,110.0
1378,E-5,203.75,0.25,95,110.0
1379,B-3,203.75,0.25,95,110.0
1380,G#1,203.75,0.25,95,110.0
1381,E5,204.0,0.75,95,110.0
1382,B3,204.0,3.0,95,110.0
1383,A1,204.0,0.75,95,110.0
1384,C#4,204.0,0.75,95,110.0
1385,B3,204.0,0.75,95,110.0
1386,A3,204.0,0.75,95,110.0
1387,E3,204.0,0.75,95,110.0
1388,B3,204.0,3.5,95,110.0
1389,B3,204.0,3.5,95,110.0
1390,E5,204.75,0.75,95,110.0
1391,E1,204.75,0.75,95,110.0
1392,C#4,204.75,0.25,95,110.0
1393,B3,204.75,0.25,95,110.0
1394,A3,204.75,0.25,95,110.0
1395,E3,204.75,0.25,95,110.0
1396,C#5,205.5,0.5,95,110.0
1397,A1,205.5,0.75,95,110.0
1398,C#4,205.5,2.0,95,110.0
1399,B3,205.5,2.0,95,110.0
1400,A3,205.5,2.0,95,110.0
1401,E3,205.5,2.0,95,110.0
1402,C#5,206.0,0.5,95,110.0
1403,E1,206.25,0.25,95,110.0
1404,B4,206.5,0.5,95,110.0
1405,E1,206.75,0.25,95,110.0
1406,B4,207.0,1.0,95,110.0
1407,A1,207.0,0.25,95,110.0
1408,F#3,207.5,0.25,95,110.0
1409,G#1,207.5,0.25,95,110.0
1410,G#3,207.75,0.25,95,110.0
1411,F#1,207.75,0.25,95,110.0
1412,B3,208.0,0.75,95,110.0
1413,B3,208.0,0.75,95,110.0
1414,B3,208.0,0.75,95,110.0
1415,G#3,208.0,0.75,95,110.0
1416,F#3,208.0,0.75,95,110.0
1417,E3,208.0,0.75,95,110.0
1418,E2,208.0,0.75,95,110.0
1419,E1,208.0,0.75,95,110.0
1420,B3,208.75,0.75,95,110.0
1421,B3,208.75,0.75,95,110.0
1422,B1,208.75,0.75,95,110.0
1423,B3,208.75,0.25,95,110.0
1424,G#3,208.75,0.25,95,110.0
1425,F#3,208.75,0.25,95,110.0
1426,E3,208.75,0.25,95,110.0
1427,F#4,209.5,0.5,95,110.0
1428,B3,209.5,2.0,95,110.0
1429,B3,209.5,2.0,95,110.0
1430,E1,209.5,0.75,95,110.0
1431,B3,209.5,1.0,95,110.0
1432,G#3,209.5,1.0,95,110.0
1433,F#3,209.5,1.0,95,110.0
1434,E3,209.5,1.0,95,110.0
1435,F#4,210.0,0.5,95,110.0
1436,E1,210.25,0.75,95,110.0
1437,B4,210.5,0.5,95,110.0
1438,B3,210.5,0.5,95,110.0
1439,G#3,210.5,0.5,95,110.0
1440,F#3,210.5,0.5,95,110.0
1441,E3,210.5,0.5,95,110.0
1442,B4,211.0,0.5,95,110.0
1443,B1,211.0,0.5,95,110.0
1444,B3,211.0,0.5,95,110.0
1445,G#3,211.0,0.5,95,110.0
1446,F#3,211.0,0.5,95,110.0
1447,E3,211.0,0.5,95,110.0
1448,C#5,211.5,0.5,95,110.0
1449,C#2,211.5,0.25,95,110.0
1450,B3,211.5,0.5,95,110.0
1451,G#3,211.5,0.5,95,110.0
1452,F#3,211.5,0.5,95,110.0
1453,E3,211.5,0.5,95,110.0
1454,C#2,211.75,0.25,95,110.0
1455,B4,212.5,0.5,95,110.0
1456,B3,212.5,0.5,95,110.0
1457,B3,212.5,0.5,95,110.0
1458,B1,212.5,0.5,95,110.0
1459,E-4,212.5,0.5,95,110.0
1460,B3,212.5,0.5,95,110.0
1461,F#3,212.5,0.5,95,110.0
1462,B4,213.0,0.5,95,110.0
1463,B3,213.0,0.5,95,110.0
1464,B3,213.0,0.5,95,110.0
1465,B1,213.0,0.5,95,110.0
1466,E-4,213.0,1.0,95,110.0
1467,B3,213.0,1.0,95,110.0
1468,F#3,213.0,1.0,95,110.0
1469,C#5,213.5,0.5,95,110.0
1470,B3,213.5,0.5,95,110.0
1471,C#4,213.5,0.5,95,110.0
1472,B1,213.5,0.5,95,110.0
1473,C#5,214.0,0.5,95,110.0
1474,F#3,214.0,0.5,95,110.0
1475,C#4,214.0,0.5,95,110.0
1476,B1,214.0,0.25,95,110.0
1477,C#4,214.0,0.5,95,110.0
1478,B-3,214.0,0.5,95,110.0
1479,F#3,214.0,0.5,95,110.0
1480,B1,214.25,0.25,47,110.0
1481,B1,214.5,0.25,63,110.0
1482,B1,214.75,0.25,47,110.0
1483,C#4,214.75,0.5,95,110.0
1484,B-3,214.75,0.5,95,110.0
1485,F#3,214.75,0.5,95,110.0
1486,B1,215.0,0.25,95,110.0
1487,C#5,215.5,0.25,95,110.0
1488,F#3,215.5,0.25,95,110.0
1489,E-5,215.75,0.25,95,110.0
1490,G#3,215.75,0.25,95,110.0
1491,E5,216.0,0.75,95,110.0
1492,B3,216.0,0.75,95,110.0
1493,A1,216.0,0.75,95,110.0
1494,C#4,216.0,0.75,95,110.0
1495,A3,216.0,0.75,95,110.0
1496,E3,216.0,0.75,95,110.0
1497,E5,216.75,0.75,95,110.0
1498,B3,216.75,0.75,95,110.0
1499,A1,216.75,0.5,95,110.0
1500,C#4,216.75,0.75,95,110.0
1501,A3,216.75,0.75,95,110.0
1502,E3,216.75,0.75,95,110.0
1503,C#5,217.5,0.5,95,110.0
1504,C#4,217.5,1.0,95,110.0
1505,E1,217.5,2.0,95,110.0
1506,B3,217.5,1.0,95,110.0
1507,G#3,217.5,1.0,95,110.0
1508,E3,217.5,1.0,95,110.0
1509,C#5,218.0,0.5,95,110.0
1510,B4,218.5,0.5,95,110.0
1511,B3,218.5,0.5,95,110.0
1512,G#3,218.5,0.5,95,110.0
1513,E3,218.5,0.5,95,110.0
1514,B4,219.0,0.75,95,110.0
1515,B3,219.0,0.5,95,110.0
1516,B3,219.0,0.5,95,110.0
1517,G#3,219.0,0.5,95,110.0
1518,E3,219.0,0.5,95,110.0
1519,F#3,219.5,0.25,95,110.0
1520,F#1,219.5,0.25,95,110.0
1521,G#3,219.75,0.25,95,110.0
1522,G#1,219.75,0.25,95,110.0
1523,B3,220.0,0.75,95,110.0
1524,B1,220.0,0.25,95,110.0
1525,B1,220.5,0.25,95,110.0
1526,E-4,220.5,0.25,95,110.0
1527,B3,220.5,0.25,95,110.0
1528,F#3,220.5,0.25,95,110.0
1529,B3,220.75,0.75,95,110.0
1530,B1,220.75,0.25,95,110.0
1531,B1,221.0,0.5,95,110.0
1532,E-4,221.25,0.25,95,110.0
1533,B3,221.25,0.5,95,110.0
1534,F#3,221.25,0.5,95,110.0
1535,F#4,221.5,0.5,95,110.0
1536,C#4,221.5,0.25,95,110.0
1537,B3,221.5,0.75,95,110.0
1538,G#4,222.0,0.5,95,110.0
1539,G#1,222.0,2.0,95,110.0
1540,E-4,222.0,0.5,95,110.0
1541,B3,222.0,0.5,95,110.0
1542,F#3,222.0,0.5,95,110.0
1543,B4,222.5,0.5,95,110.0
1544,E-4,222.75,0.5,95,110.0
1545,B3,222.75,0.5,95,110.0
1546,F#3,222.75,0.5,95,110.0
1547,B4,223.0,0.5,95,110.0
1548,B4,223.5,0.5,95,110.0
1549,B4,224.0,0.5,95,110.0
1550,B3,224.0,0.75,95,110.0
1551,G1,224.0,1.0,95,110.0
1552,F#4,224.0,0.75,95,110.0
1553,D4,224.0,0.75,95,110.0
1554,B3,224.0,0.75,95,110.0
1555,G3,224.0,0.75,95,110.0
1556,B4,224.5,1.0,95,110.0
1557,B3,224.75,0.75,95,110.0
1558,F#4,224.75,0.75,95,110.0
1559,D4,224.75,0.75,95,110.0
1560,B3,224.75,0.75,95,110.0
1561,G3,224.75,0.75,95,110.0
1562,A3,225.5,1.0,95,110.0
1563,E3,225.5,1.5,95,110.0
1564,B3,225.5,0.5,95,110.0
1565,G1,225.5,0.25,95,110.0
1566,E4,225.5,2.5,95,110.0
1567,C#4,225.5,2.5,95,110.0
1568,G1,225.75,0.25,95,110.0
1569,C#4,226.0,0.75,95,110.0
1570,A1,226.0,0.25,95,110.0
1571,B3,226.5,0.5,95,110.0
1572,G1,226.5,0.25,95,110.0
1573,A3,226.75,0.75,95,110.0
1574,G1,226.75,0.25,95,110.0
1575,A1,227.0,0.25,95,110.0
1576,A3,227.0,0.5,95,110.0
1577,E3,227.0,0.5,95,110.0
1578,B3,227.5,0.5,95,110.0
1579,A1,227.5,0.5,95,110.0
1580,B3,227.5,0.5,95,110.0
1581,F#3,227.5,0.5,95,110.0
1582,B4,228.5,0.5,95,110.0
1583,B3,228.5,0.5,95,110.0
1584,B3,228.5,0.5,95,110.0
1585,B1,228.5,0.5,95,110.0
1586,E-4,228.5,0.5,95,110.0
1587,B3,228.5,0.5,95,110.0
1588,F#3,228.5,0.5,95,110.0
1589,B4,229.0,0.5,95,110.0
1590,B3,229.0,0.5,95,110.0
1591,B3,229.0,0.5,95,110.0
1592,B1,229.0,0.5,95,110.0
1593,E-4,229.0,1.0,95,110.0
1594,B3,229.0,1.0,95,110.0
1595,F#3,229.0,1.0,95,110.0
1596,C#5,229.5,0.5,95,110.0
1597,B3,229.5,0.5,95,110.0
1598,C#4,229.5,0.5,95,110.0
1599,B1,229.5,0.5,95,110.0
1600,C#5,230.0,0.5,95,110.0
1601,F#3,230.0,0.5,95,110.0
1602,C#4,230.0,0.5,95,110.0
1603,B1,230.0,0.25,95,110.0
1604,C#4,230.0,0.5,95,110.0
1605,B-3,230.0,0.5,95,110.0
1606,F#3,230.0,0.5,95,110.0
1607,B1,230.25,0.25,47,110.0
1608,B1,230.5,0.25,63,110.0
1609,B1,230.75,0.25,47,110.0
1610,C#4,230.75,0.5,95,110.0
1611,B-3,230.75,0.5,95,110.0
1612,F#3,230.75,0.5,95,110.0
1613,B1,231.0,0.25,95,110.0
1614,C#5,231.5,0.25,95,110.0
1615,F#3,231.5,0.25,95,110.0
1616,E-5,231.75,0.25,95,110.0
1617,G#3,231.75,0.25,95,110.0
1618,E5,232.0,0.75,95,110.0
1619,B3,232.0,0.75,95,110.0
1620,A1,232.0,0.75,95,110.0
1621,C#4,232.0,0.75,95,110.0
1622,A3,232.0,0.75,95,110.0
1623,E3,232.0,0.75,95,110.0
1624,E5,232.75,0.75,95,110.0
1625,B3,232.75,0.75,95,110.0
1626,A1,232.75,0.5,95,110.0
1627,C#4,232.75,0.75,95,110.0
1628,A3,232.75,0.75,95,110.0
1629,E3,232.75,0.75,95,110.0
1630,E5,233.5,1.0,95,110.0
1631,C#4,233.5,1.0,95,110.0
1632,E1,233.5,2.0,95,110.0
1633,B3,233.5,1.0,95,110.0
1634,G#3,233.5,1.0,95,110.0
1635,E3,233.5,1.0,95,110.0
1636,C#5,234.5,0.5,95,110.0
1637,B3,234.5,0.5,95,110.0
1638,G#3,234.5,0.5,95,110.0
1639,E3,234.5,0.5,95,110.0
1640,C#5,235.0,0.5,95,110.0
1641,B3,235.0,0.5,95,110.0
1642,B3,235.0,0.5,95,110.0
1643,G#3,235.0,0.5,95,110.0
1644,E3,235.0,0.5,95,110.0
1645,B4,235.5,0.5,95,110.0
1646,F#3,235.5,0.25,95,110.0
1647,E1,235.5,0.25,95,110.0
1648,G#3,235.75,0.25,95,110.0
1649,B4,236.0,1.5,95,110.0
1650,E4,236.0,0.75,95,110.0
1651,B3,236.0,0.75,95,110.0
1652,F#1,236.0,0.75,95,110.0
1653,B3,236.0,0.25,95,110.0
1654,A3,236.0,0.25,95,110.0
1655,E3,236.0,0.25,95,110.0
1656,B3,236.25,0.25,63,110.0
1657,A3,236.25,0.25,63,110.0
1658,E3,236.25,0.25,63,110.0
1659,B3,236.5,0.25,63,110.0
1660,A3,236.5,0.25,63,110.0
1661,E3,236.5,0.25,63,110.0
1662,E4,236.75,0.75,95,110.0
1663,B3,236.75,0.75,95,110.0
1664,F#1,236.75,0.5,95,110.0
1665,B3,236.75,0.5,95,110.0
1666,A3,236.75,0.5,95,110.0
1667,E3,236.75,0.5,95,110.0
1668,B3,237.25,0.25,63,110.0
1669,A3,237.25,0.25,63,110.0
1670,E3,237.25,0.25,63,110.0
1671,B3,237.5,0.75,95,110.0
1672,F#1,237.5,2.5,95,110.0
1673,E4,237.5,1.5,95,110.0
1674,B3,237.5,1.5,95,110.0
1675,A3,237.5,1.0,95,110.0
1676,E3,237.5,1.0,95,110.0
1677,A3,238.5,0.5,95,110.0
1678,E3,238.5,0.5,95,110.0
1679,E4,239.0,1.0,95,110.0
1680,B3,239.0,1.0,95,110.0
1681,A3,239.0,1.0,95,110.0
1682,E3,239.0,1.0,95,110.0
1683,B4,239.5,0.5,95,110.0
1684,B3,239.5,0.5,95,110.0
1685,E5,240.0,0.75,95,110.0
1686,F#4,240.0,0.75,95,110.0
1687,B3,240.0,0.75,95,110.0
1688,G1,240.0,1.5,95,110.0
1689,F#4,240.0,0.75,95,110.0
1690,D4,240.0,0.75,95,110.0
1691,B3,240.0,0.75,95,110.0
1692,G3,240.0,0.75,95,110.0
1693,E5,240.75,0.75,95,110.0
1694,E4,240.75,0.75,95,110.0
1695,B3,240.75,0.75,95,110.0
1696,F#4,240.75,0.75,95,110.0
1697,D4,240.75,0.75,95,110.0
1698,B3,240.75,0.75,95,110.0
1699,G3,240.75,0.75,95,110.0
1700,B4,241.5,0.5,95,110.0
1701,B3,241.5,0.5,95,110.0
1702,A3,241.5,1.5,95,110.0
1703,E3,241.5,1.0,95,110.0
1704,B3,241.5,0.5,95,110.0
1705,G1,241.5,0.25,95,110.0
1706,E4,241.5,2.5,95,110.0
1707,C#4,241.5,2.5,95,110.0
1708,C5,242.0,1.0,95,110.0
1709,D4,242.0,1.0,95,110.0
1710,C#4,242.0,0.75,95,110.0
1711,A1,242.0,0.75,95,110.0
1712,E3,242.5,0.5,95,110.0
1713,A3,242.75,0.75,95,110.0
1714,A1,242.75,0.75,95,110.0
1715,C#5,243.0,1.0,95,110.0
1716,C#4,243.0,1.0,95,110.0
1717,A3,243.0,1.0,95,110.0
1718,E3,243.0,1.0,95,110.0
1719,B3,243.5,0.5,95,110.0
1720,G1,243.5,0.25,95,110.0
1721,A1,243.75,0.25,95,110.0
1722,B4,244.5,0.5,95,110.0
1723,B3,244.5,0.5,95,110.0
1724,B3,244.5,0.5,95,110.0
1725,B1,244.5,0.5,95,110.0
1726,E-4,244.5,0.5,95,110.0
1727,B3,244.5,0.5,95,110.0
1728,F#3,244.5,0.5,95,110.0
1729,B4,245.0,0.5,95,110.0
1730,B3,245.0,0.5,95,110.0
1731,B3,245.0,0.5,95,110.0
1732,B1,245.0,0.5,95,110.0
1733,E-4,245.0,1.0,95,110.0
1734,B3,245.0,1.0,95,110.0
1735,F#3,245.0,1.0,95,110.0
1736,C#5,245.5,0.5,95,110.0
1737,B3,245.5,0.5,95,110.0
1738,C#4,245.5,0.5,95,110.0
1739,B1,245.5,0.5,95,110.0
1740,C#5,246.0,0.5,95,110.0
1741,F#3,246.0,0.5,95,110.0
1742,C#4,246.0,0.5,95,110.0
1743,B1,246.0,0.25,95,110.0
1744,C#4,246.0,0.5,95,110.0
1745,B-3,246.0,0.5,95,110.0
1746,F#3,246.0,0.5,95,110.0
1747,B1,246.25,0.25,47,110.0
1748,B1,246.5,0.25,63,110.0
1749,B1,246.75,0.25,47,110.0
1750,C#4,246.75,0.5,95,110.0
1751,B-3,246.75,0.5,95,110.0
1752,F#3,246.75,0.5,95,110.0
1753,B1,247.0,0.25,95,110.0
1754,C#5,247.5,0.25,95,110.0
1755,F#3,247.5,0.25,95,110.0
1756,E-5,247.75,0.25,95,110.0
1757,G#3,247.75,0.25,95,110.0
1758,E5,248.0,0.75,95,110.0
1759,B3,248.0,0.75,95,110.0
1760,A1,248.0,0.75,95,110.0
1761,C#4,248.0,0.75,95,110.0
1762,A3,248.0,0.75,95,110.0
1763,E3,248.0,0.75,95,110.0
1764,E5,248.75,0.75,95,110.0
1765,B3,248.75,0.75,95,110.0
1766,A1,248.75,0.5,95,110.0
1767,C#4,248.75,0.75,95,110.0
1768,A3,248.75,0.75,95,110.0
1769,E3,248.75,0.75,95,110.0
1770,C#5,249.5,0.5,95,110.0
1771,C#4,249.5,1.0,95,110.0
1772,E1,249.5,2.0,95,110.0
1773,B3,249.5,1.0,95,110.0
1774,G#3,249.5,1.0,95,110.0
1775,E3,249.5,1.0,95,110.0
1776,C#5,250.0,0.5,95,110.0
1777,B4,250.5,0.5,95,110.0
1778,B3,250.5,0.5,95,110.0
1779,G#3,250.5,0.5,95,110.0
1780,E3,250.5,0.5,95,110.0
1781,B4,251.0,0.75,95,110.0
1782,B3,251.0,0.5,95,110.0
1783,B3,251.0,0.5,95,110.0
1784,G#3,251.0,0.5,95,110.0
1785,E3,251.0,0.5,95,110.0
1786,F#3,251.5,0.25,95,110.0
1787,F#1,251.5,0.25,95,110.0
1788,G#3,251.75,0.25,95,110.0
1789,G#1,251.75,0.25,95,110.0
1790,B3,252.0,0.75,95,110.0
1791,B1,252.0,0.25,95,110.0
1792,B1,252.5,0.25,95,110.0
1793,E-4,252.5,0.25,95,110.0
1794,B3,252.5,0.25,95,110.0
1795,F#3,252.5,0.25,95,110.0
1796,B3,252.75,0.75,95,110.0
1797,B1,252.75,0.25,95,110.0
1798,B1,253.0,0.5,95,110.0
1799,E-4,253.25,0.25,95,110.0
1800,B3,253.25,0.5,95,110.0
1801,F#3,253.25,0.5,95,110.0
1802,F#4,253.5,0.5,95,110.0
1803,C#4,253.5,0.25,95,110.0
1804,B3,253.5,0.75,95,110.0
1805,G#4,254.0,0.5,95,110.0
1806,G#1,254.0,2.0,95,110.0
1807,E-4,254.0,0.5,95,110.0
1808,B3,254.0,0.5,95,110.0
1809,F#3,254.0,0.5,95,110.0
1810,B4,254.5,0.5,95,110.0
1811,E-4,254.75,0.5,95,110.0
1812,B3,254.75,0.5,95,110.0
1813,F#3,254.75,0.5,95,110.0
1814,B4,255.0,0.5,95,110.0
1815,B4,255.5,0.5,95,110.0
1816,B4,256.0,0.5,95,110.0
1817,B3,256.0,0.75,95,110.0
1818,G1,256.0,1.0,95,110.0
1819,F#4,256.0,0.75,95,110.0
1820,D4,256.0,0.75,95,110.0
1821,B3,256.0,0.75,95,110.0
1822,G3,256.0,0.75,95,110.0
1823,B4,256.5,1.0,95,110.0
1824,B3,256.75,0.75,95,110.0
1825,F#4,256.75,0.75,95,110.0
1826,D4,256.75,0.75,95,110.0
1827,B3,256.75,0.75,95,110.0
1828,G3,256.75,0.75,95,110.0
1829,A3,257.5,1.0,95,110.0
1830,E3,257.5,1.5,95,110.0
1831,B3,257.5,0.5,95,110.0
1832,G1,257.5,0.25,95,110.0
1833,E4,257.5,2.5,95,110.0
1834,C#4,257.5,2.5,95,110.0
1835,G1,257.75,0.25,95,110.0
1836,C#4,258.0,0.75,95,110.0
1837,A1,258.0,0.25,95,110.0
1838,B3,258.5,0.5,95,110.0
1839,G1,258.5,0.25,95,110.0
1840,A3,258.75,0.75,95,110.0
1841,G1,258.75,0.25,95,110.0
1842,A1,259.0,0.25,95,110.0
1843,A3,259.0,0.5,95,110.0
1844,E3,259.0,0.5,95,110.0
1845,B3,259.5,0.5,95,110.0
1846,A1,259.5,0.5,95,110.0
1847,B3,259.5,0.5,95,110.0
1848,F#3,259.5,0.5,95,110.0
1849,B4,260.5,0.5,95,110.0
1850,B3,260.5,0.5,95,110.0
1851,B3,260.5,0.5,95,110.0
1852,B1,260.5,0.5,95,110.0
1853,E-4,260.5,0.5,95,110.0
1854,B3,260.5,0.5,95,110.0
1855,F#3,260.5,0.5,95,110.0
1856,B4,261.0,0.5,95,110.0
1857,B3,261.0,0.5,95,110.0
1858,B3,261.0,0.5,95,110.0
1859,B1,261.0,0.5,95,110.0
1860,E-4,261.0,1.0,95,110.0
1861,B3,261.0,1.0,95,110.0
1862,F#3,261.0,1.0,95,110.0
1863,C#5,261.5,0.5,95,110.0
1864,B3,261.5,0.5,95,110.0
1865,C#4,261.5,0.5,95,110.0
1866,B1,261.5,0.5,95,110.0
1867,C#5,262.0,0.5,95,110.0
1868,F#3,262.0,0.5,95,110.0
1869,C#4,262.0,0.5,95,110.0
1870,B1,262.0,0.25,95,110.0
1871,C#4,262.0,0.5,95,110.0
1872,B-3,262.0,0.5,95,110.0
1873,F#3,262.0,0.5,95,110.0
1874,B1,262.25,0.25,47,110.0
1875,B1,262.5,0.25,63,110.0
1876,B1,262.75,0.25,47,110.0
1877,C#4,262.75,0.5,95,110.0
1878,B-3,262.75,0.5,95,110.0
1879,F#3,262.75,0.5,95,110.0
1880,B1,263.0,0.25,95,110.0
1881,C#5,263.5,0.25,95,110.0
1882,F#3,263.5,0.25,95,110.0
1883,E-5,263.75,0.25,95,110.0
1884,G#3,263.75,0.25,95,110.0
1885,E5,264.0,0.75,95,110.0
1886,B3,264.0,0.75,95,110.0
1887,A1,264.0,0.75,95,110.0
1888,C#4,264.0,0.75,95,110.0
1889,A3,264.0,0.75,95,110.0
1890,E3,264.0,0.75,95,110.0
1891,E5,264.75,0.75,95,110.0
1892,B3,264.75,0.75,95,110.0
1893,A1,264.75,0.5,95,110.0
1894,C#4,264.75,0.75,95,110.0
1895,A3,264.75,0.75,95,110.0
1896,E3,264.75,0.75,95,110.0
1897,E5,265.5,1.0,95,110.0
1898,C#4,265.5,1.0,95,110.0
1899,E1,265.5,2.0,95,110.0
1900,B3,265.5,1.0,95,110.0
1901,G#3,265.5,1.0,95,110.0
1902,E3,265.5,1.0,95,110.0
1903,C#5,266.5,0.5,95,110.0
1904,B3,266.5,0.5,95,110.0
1905,G#3,266.5,0.5,95,110.0
1906,E3,266.5,0.5,95,110.0
1907,C#5,267.0,0.5,95,110.0
1908,B3,267.0,0.5,95,110.0
1909,B3,267.0,0.5,95,110.0
1910,G#3,267.0,0.5,95,110.0
1911,E3,267.0,0.5,95,110.0
1912,B4,267.5,0.5,95,110.0
1913,F#3,267.5,0.25,95,110.0
1914,E1,267.5,0.25,95,110.0
1915,G#3,267.75,0.25,95,110.0
1916,B4,268.0,1.5,95,110.0
1917,E4,268.0,0.75,95,110.0
1918,B3,268.0,0.75,95,110.0
1919,F#1,268.0,0.75,95,110.0
1920,B3,268.0,0.25,95,110.0
1921,A3,268.0,0.25,95,110.0
1922,E3,268.0,0.25,95,110.0
1923,B3,268.25,0.25,63,110.0
1924,A3,268.25,0.25,63,110.0
1925,E3,268.25,0.25,63,110.0
1926,B3,268.5,0.25,63,110.0
1927,A3,268.5,0.25,63,110.0
1928,E3,268.5,0.25,63,110.0
1929,E4,268.75,0.75,95,110.0
1930,B3,268.75,0.75,95,110.0
1931,F#1,268.75,0.5,95,110.0
1932,B3,268.75,0.5,95,110.0
1933,A3,268.75,0.5,95,110.0
1934,E3,268.75,0.5,95,110.0
1935,B3,269.25,0.25,63,110.0
1936,A3,269.25,0.25,63,110.0
1937,E3,269.25,0.25,63,110.0
1938,B3,269.5,0.75,95,110.0
1939,F#1,269.5,2.5,95,110.0
1940,E4,269.5,1.5,95,110.0
1941,B3,269.5,1.5,95,110.0
1942,A3,269.5,1.0,95,110.0
1943,E3,269.5,1.0,95,110.0
1944,A3,270.5,0.5,95,110.0
1945,E3,270.5,0.5,95,110.0
1946,E4,271.0,1.0,95,110.0
1947,B3,271.0,1.0,95,110.0
1948,A3,271.0,1.0,95,110.0
1949,E3,271.0,1.0,95,110.0
1950,B4,271.5,0.5,95,110.0
1951,B3,271.5,0.5,95,110.0
1952,E5,272.0,0.75,95,110.0
1953,F#4,272.0,0.75,95,110.0
1954,B3,272.0,0.75,95,110.0
1955,G1,272.0,1.5,95,110.0
1956,F#4,272.0,0.75,95,110.0
1957,D4,272.0,0.75,95,110.0
1958,B3,272.0,0.75,95,110.0
1959,G3,272.0,0.75,95,110.0
1960,E5,272.75,0.75,95,110.0
1961,E4,272.75,0.75,95,110.0
1962,B3,272.75,0.75,95,110.0
1963,F#4,272.75,0.75,95,110.0
1964,D4,272.75,0.75,95,110.0
1965,B3,272.75,0.75,95,110.0
1966,G3,272.75,0.75,95,110.0
1967,B4,273.5,0.5,95,110.0
1968,B3,273.5,0.5,95,110.0
1969,A3,273.5,1.5,95,110.0
1970,E3,273.5,1.0,95,110.0
1971,B3,273.5,0.5,95,110.0
1972,G1,273.5,0.25,95,110.0
1973,E4,273.5,2.5,95,110.0
1974,C#4,273.5,2.5,95,110.0
1975,C5,274.0,1.0,95,110.0
1976,D4,274.0,1.0,95,110.0
1977,C#4,274.0,0.75,95,110.0
1978,A1,274.0,0.75,95,110.0
1979,E3,274.5,0.5,95,110.0
1980,A3,274.75,0.75,95,110.0
1981,A1,274.75,0.75,95,110.0
1982,C#5,275.0,1.0,95,110.0
1983,C#4,275.0,1.0,95,110.0
1984,A3,275.0,1.0,95,110.0
1985,E3,275.0,1.0,95,110.0
1986,B3,275.5,0.5,95,110.0
1987,G1,275.5,0.25,95,110.0
1988,A1,275.75,0.25,95,110.0
1989,E1,276.0,0.75,95,110.0
1990,B3,276.0,0.75,95,110.0
1991,G#3,276.0,0.75,95,110.0
1992,F#3,276.0,0.75,95,110.0
1993,E3,276.0,0.75,95,110.0
1994,F#4,276.0,0.5,79,110.0
1995,E-4,276.0,0.5,79,110.0
1996,F#4,276.5,0.25,63,110.0
1997,E-4,276.5,0.25,63,110.0
1998,E1,276.75,0.25,95,110.0
1999,B3,276.75,0.25,95,110.0
2000,G#3,276.75,0.25,95,110.0
2001,F#3,276.75,0.25,95,110.0
2002,E3,276.75,0.25,95,110.0
2003,G#4,276.75,0.75,79,110.0
2004,E4,276.75,0.75,79,110.0
2005,E1,277.5,2.0,95,110.0
2006,B3,277.5,1.5,95,110.0
2007,G#3,277.5,1.5,95,110.0
2008,F#3,277.5,1.5,95,110.0
2009,E3,277.5,1.5,95,110.0
2010,G#4,277.5,1.0,79,110.0
2011,E4,277.5,1.0,79,110.0
2012,F#4,277.5,0.25,95,110.0
2013,F#3,277.5,0.25,95,110.0
2014,G#4,277.75,0.25,95,110.0
2015,G#3,277.75,0.25,95,110.0
2016,B4,278.0,0.5,95,110.0
2017,B3,278.0,0.5,95,110.0
2018,F#4,278.5,0.75,79,110.0
2019,E-4,278.5,0.75,79,110.0
2020,B4,278.75,0.5,95,110.0
2021,B3,278.75,0.5,95,110.0
2022,B3,279.0,1.0,95,110.0
2023,G#3,279.0,1.0,95,110.0
2024,F#3,279.0,1.0,95,110.0
2025,E3,279.0,1.0,95,110.0
2026,F#4,279.25,0.75,79,110.0
2027,C#4,279.25,0.75,79,110.0
2028,C#5,279.5,0.25,95,110.0
2029,E1,279.5,0.25,95,110.0
2030,F#1,279.75,0.25,95,110.0
2031,G#1,280.0,0.75,95,110.0
2032,E-4,280.0,0.75,95,110.0
2033,B3,280.0,0.75,95,110.0
2034,F#3,280.0,0.75,95,110.0
2035,F#4,280.0,0.75,79,110.0
2036,C#4,280.0,0.75,79,110.0
2037,G#1,280.75,0.25,95,110.0
2038,E-4,280.75,0.25,95,110.0
2039,B3,280.75,0.25,95,110.0
2040,F#3,280.75,0.25,95,110.0
2041,B4,280.75,0.75,79,110.0
2042,E-4,280.75,0.75,79,110.0
2043,C#4,281.5,2.5,95,110.0
2044,F#1,281.5,2.0,95,110.0
2045,B-3,281.5,1.0,95,110.0
2046,F#3,281.5,1.0,95,110.0
2047,B4,281.5,1.0,79,110.0
2048,E-4,281.5,1.0,79,110.0
2049,B4,282.0,0.25,95,110.0
2050,B3,282.0,0.25,95,110.0
2051,B-4,282.25,0.25,95,110.0
2052,B-3,282.25,0.25,95,110.0
2053,B3,282.5,0.75,95,110.0
2054,F#3,282.5,0.75,95,110.0
2055,B-4,282.5,0.5,79,110.0
2056,C#4,282.5,0.5,79,110.0
2057,B-4,282.75,0.75,95,110.0
2058,B-3,282.75,0.75,95,110.0
2059,B-4,283.0,0.25,63,110.0
2060,C#4,283.0,0.25,63,110.0
2061,B-3,283.25,0.75,95,110.0
2062,F#3,283.25,0.75,95,110.0
2063,B4,283.25,0.75,79,110.0
2064,B3,283.25,0.75,79,110.0
2065,B4,283.5,0.5,95,110.0
2066,B3,283.5,0.5,95,110.0
2067,E1,284.0,0.75,95,110.0
2068,B3,284.0,0.75,95,110.0
2069,G#3,284.0,0.75,95,110.0
2070,F#3,284.0,0.75,95,110.0
2071,E3,284.0,0.75,95,110.0
2072,F#4,284.0,0.5,79,110.0
2073,E-4,284.0,0.5,79,110.0
2074,B4,284.0,0.5,95,110.0
2075,B3,284.0,0.5,95,110.0
2076,F#4,284.5,0.25,63,110.0
2077,E-4,284.5,0.25,63,110.0
2078,E1,284.75,0.25,95,110.0
2079,B3,284.75,0.25,95,110.0
2080,G#3,284.75,0.25,95,110.0
2081,F#3,284.75,0.25,95,110.0
2082,E3,284.75,0.25,95,110.0
2083,G#4,284.75,0.75,79,110.0
2084,E4,284.75,0.75,79,110.0
2085,E1,285.5,2.0,95,110.0
2086,B3,285.5,1.5,95,110.0
2087,G#3,285.5,1.5,95,110.0
2088,F#3,285.5,1.5,95,110.0
2089,E3,285.5,1.5,95,110.0
2090,G#4,285.5,1.0,79,110.0
2091,E4,285.5,1.0,79,110.0
2092,F#4,286.0,0.75,79,110.0
2093,F#3,286.0,0.75,79,110.0
2094,F#4,286.5,0.75,79,110.0
2095,E-4,286.5,0.75,79,110.0
2096,B4,286.75,0.75,79,110.0
2097,B3,286.75,0.75,79,110.0
2098,B3,287.0,1.0,95,110.0
2099,G#3,287.0,1.0,95,110.0
2100,F#3,287.0,1.0,95,110.0
2101,E3,287.0,1.0,95,110.0
2102,F#4,287.25,0.75,79,110.0
2103,C#4,287.25,0.75,79,110.0
2104,E1,287.5,0.25,95,110.0
2105,C#5,287.5,0.5,79,110.0
2106,C#4,287.5,0.5,79,110.0
2107,F#1,287.75,0.25,95,110.0
2108,G#1,288.0,0.75,95,110.0
2109,E-4,288.0,0.75,95,110.0
2110,B3,288.0,0.75,95,110.0
2111,F#3,288.0,0.75,95,110.0
2112,F#4,288.0,0.75,79,110.0
2113,C#4,288.0,0.75,79,110.0
2114,C#5,288.0,0.75,79,110.0
2115,E-4,288.0,0.75,79,110.0
2116,G#1,288.75,0.25,95,110.0
2117,E-4,288.75,0.25,95,110.0
2118,B3,288.75,0.25,95,110.0
2119,F#3,288.75,0.25,95,110.0
2120,F#4,288.75,0.75,79,110.0
2121,E-4,288.75,0.75,79,110.0
2122,C#5,288.75,0.75,79,110.0
2123,C#4,288.75,0.75,79,110.0
2124,C#4,289.5,2.5,95,110.0
2125,F#1,289.5,2.0,95,110.0
2126,B-3,289.5,1.0,95,110.0
2127,F#3,289.5,1.0,95,110.0
2128,F#4,289.5,1.0,79,110.0
2129,E-4,289.5,1.0,79,110.0
2130,B4,289.5,0.5,79,110.0
2131,B3,289.5,0.5,79,110.0
2132,B4,290.0,0.5,79,110.0
2133,B3,290.0,0.5,79,110.0
2134,B3,290.5,0.75,95,110.0
2135,F#3,290.5,0.75,95,110.0
2136,F#4,290.5,0.5,79,110.0
2137,C#4,290.5,0.5,79,110.0
2138,B-4,290.75,0.75,79,110.0
2139,B-3,290.75,0.75,79,110.0
2140,F#4,291.0,0.25,63,110.0
2141,C#4,291.0,0.25,63,110.0
2142,B-3,291.25,0.75,95,110.0
2143,F#3,291.25,0.75,95,110.0
2144,F#4,291.25,0.75,79,110.0
2145,B3,291.25,0.75,79,110.0
2146,E2,291.5,0.25,63,110.0
2147,B4,291.5,0.5,79,110.0
2148,B3,291.5,0.5,79,110.0
2149,E-2,291.75,0.25,63,110.0
2150,E1,292.0,0.75,95,110.0
2151,B3,292.0,0.75,95,110.0
2152,G#3,292.0,0.75,95,110.0
2153,F#3,292.0,0.75,95,110.0
2154,E3,292.0,0.75,95,110.0
2155,F#4,292.0,0.5,79,110.0
2156,E-4,292.0,0.5,79,110.0
2157,F#4,292.5,0.25,63,110.0
2158,E-4,292.5,0.25,63,110.0
2159,E1,292.75,0.25,95,110.0
2160,B3,292.75,0.25,95,110.0
2161,G#3,292.75,0.25,95,110.0
2162,F#3,292.75,0.25,95,110.0
2163,E3,292.75,0.25,95,110.0
2164,G#4,292.75,0.75,79,110.0
2165,E4,292.75,0.75,79,110.0
2166,E1,293.5,2.0,95,110.0
2167,B3,293.5,1.5,95,110.0
2168,G#3,293.5,1.5,95,110.0
2169,F#3,293.5,1.5,95,110.0
2170,E3,293.5,1.5,95,110.0
2171,G#4,293.5,1.0,79,110.0
2172,E4,293.5,1.0,79,110.0
2173,F#4,293.5,0.25,95,110.0
2174,F#3,293.5,0.25,95,110.0
2175,G#4,293.75,0.25,95,110.0
2176,G#3,293.75,0.25,95,110.0
2177,B4,294.0,17/1000,47,110.0
2178,B3,294.0,0.5,47,110.0
2179,B4,294.25,0.25,95,110.0
2180,B3,294.25,0.25,95,110.0
2181,F#4,294.5,0.75,79,110.0
2182,E-4,294.5,0.75,79,110.0
2183,B4,294.5,0.25,47,110.0
2184,B3,294.5,0.25,47,110.0
2185,B4,294.75,17/1000,95,110.0
2186,B3,294.75,0.5,95,110.0
2187,B3,295.0,1.0,95,110.0
2188,G#3,295.0,1.0,95,110.0
2189,F#3,295.0,1.0,95,110.0
2190,E3,295.0,1.0,95,110.0
2191,B4,295.0,0.5,47,110.0
2192,B3,295.0,0.5,47,110.0
2193,F#4,295.25,0.75,79,110.0
2194,C#4,295.25,0.75,79,110.0
2195,C#5,295.5,0.25,95,110.0
2196,E1,295.5,0.25,95,110.0
2197,F#1,295.75,0.25,95,110.0
2198,G#1,296.0,0.75,95,110.0
2199,E-4,296.0,0.75,95,110.0
2200,B3,296.0,0.75,95,110.0
2201,F#3,296.0,0.75,95,110.0
2202,F#4,296.0,0.75,79,110.0
2203,C#4,296.0,0.75,79,110.0
2204,G#1,296.75,0.25,95,110.0
2205,E-4,296.75,0.25,95,110.0
2206,B3,296.75,0.25,95,110.0
2207,F#3,296.75,0.25,95,110.0
2208,B4,296.75,0.75,79,110.0
2209,E-4,296.75,0.75,79,110.0
2210,C#4,297.5,2.5,95,110.0
2211,F#1,297.5,2.0,95,110.0
2212,B-3,297.5,1.0,95,110.0
2213,F#3,297.5,1.0,95,110.0
2214,B4,297.5,1.0,79,110.0
2215,E-4,297.5,1.0,79,110.0
2216,B4,297.5,0.25,79,110.0
2217,B3,297.5,0.25,79,110.0
2218,C#5,297.75,0.25,79,110.0
2219,C#4,297.75,0.25,79,110.0
2220,E-5,298.0,0.75,79,110.0
2221,E-4,298.0,0.75,79,110.0
2222,B3,298.5,0.75,95,110.0
2223,F#3,298.5,0.75,95,110.0
2224,B-4,298.5,0.5,79,110.0
2225,C#4,298.5,0.5,79,110.0
2226,F#5,298.75,0.75,79,110.0
2227,F#4,298.75,0.75,79,110.0
2228,B-4,299.0,0.25,63,110.0
2229,C#4,299.0,0.25,63,110.0
2230,B-3,299.25,0.75,95,110.0
2231,F#3,299.25,0.75,95,110.0
2232,B4,299.25,0.75,79,110.0
2233,B3,299.25,0.75,79,110.0
2234,F#1,299.5,0.25,95,110.0
2235,C#5,299.5,0.5,79,110.0
2236,C#4,299.5,0.5,79,110.0
2237,E1,300.0,0.75,95,110.0
2238,B3,300.0,0.75,95,110.0
2239,G#3,300.0,0.75,95,110.0
2240,F#3,300.0,0.75,95,110.0
2241,E3,300.0,0.75,95,110.0
2242,F#4,300.0,0.5,79,110.0
2243,E-4,300.0,0.5,79,110.0
2244,C#5,300.0,0.75,79,110.0
2245,C#4,300.0,0.75,79,110.0
2246,F#4,300.5,0.25,63,110.0
2247,E-4,300.5,0.25,63,110.0
2248,E1,300.75,0.25,95,110.0
2249,B3,300.75,0.25,95,110.0
2250,G#3,300.75,0.25,95,110.0
2251,F#3,300.75,0.25,95,110.0
2252,E3,300.75,0.25,95,110.0
2253,G#4,300.75,0.75,79,110.0
2254,E4,300.75,0.75,79,110.0
2255,B4,300.75,0.75,79,110.0
2256,B3,300.75,0.75,79,110.0
2257,E1,301.5,2.0,95,110.0
2258,B3,301.5,1.5,95,110.0
2259,G#3,301.5,1.5,95,110.0
2260,F#3,301.5,1.5,95,110.0
2261,E3,301.5,1.5,95,110.0
2262,G#4,301.5,1.0,79,110.0
2263,E4,301.5,1.0,79,110.0
2264,C#5,301.5,2.0,79,110.0
2265,C#4,301.5,2.0,79,110.0
2266,F#4,302.5,0.75,79,110.0
2267,E-4,302.5,0.75,79,110.0
2268,B3,303.0,1.0,95,110.0
2269,G#3,303.0,1.0,95,110.0
2270,F#3,303.0,1.0,95,110.0
2271,E3,303.0,1.0,95,110.0
2272,F#4,303.25,0.75,79,110.0
2273,C#4,303.25,0.75,79,110.0
2274,E1,303.5,0.25,95,110.0
2275,F#4,303.5,0.25,79,110.0
2276,F#3,303.5,0.25,79,110.0
2277,F#1,303.75,0.25,95,110.0
2278,G#4,303.75,0.25,79,110.0
2279,G#3,303.75,0.25,79,110.0
2280,B1,304.0,0.75,95,110.0
2281,E-4,304.0,0.75,95,110.0
2282,B3,304.0,0.75,95,110.0
2283,F#3,304.0,0.75,95,110.0
2284,F#4,304.0,0.75,79,110.0
2285,C#4,304.0,0.75,79,110.0
2286,B4,304.0,0.75,79,110.0
2287,B3,304.0,0.75,79,110.0
2288,B1,304.75,0.25,95,110.0
2289,E-4,304.75,0.25,95,110.0
2290,B3,304.75,0.25,95,110.0
2291,F#3,304.75,0.25,95,110.0
2292,B4,304.75,0.75,79,110.0
2293,E-4,304.75,0.75,79,110.0
2294,B4,304.75,0.75,79,110.0
2295,B3,304.75,0.75,79,110.0
2296,C#4,305.5,2.5,95,110.0
2297,F#1,305.5,2.0,95,110.0
2298,B-3,305.5,1.0,95,110.0
2299,F#3,305.5,1.0,95,110.0
2300,B4,305.5,1.0,79,110.0
2301,E-4,305.5,1.0,79,110.0
2302,B4,305.5,1.0,79,110.0
2303,B3,305.5,1.0,79,110.0
2304,B3,306.5,0.75,95,110.0
2305,F#3,306.5,0.75,95,110.0
2306,B-4,306.5,0.5,79,110.0
2307,C#4,306.5,0.5,79,110.0
2308,B-4,306.5,1.0,79,110.0
2309,B-3,306.5,1.0,79,110.0
2310,B-4,307.0,0.25,63,110.0
2311,C#4,307.0,0.25,63,110.0
2312,B-3,307.25,0.75,95,110.0
2313,F#3,307.25,0.75,95,110.0
2314,B4,307.25,0.75,79,110.0
2315,B3,307.25,0.75,79,110.0
2316,F#5,308.0,0.5,95,110.0
2317,G#4,308.0,0.5,95,110.0
2318,E4,308.0,0.5,95,110.0
2319,B4,308.75,0.5,95,110.0
2320,B4,308.75,0.25,47,110.0
2321,F#5,308.75,0.25,95,110.0
2322,G#4,308.75,0.25,95,110.0
2323,E4,308.75,0.25,95,110.0
2324,B4,309.0,0.25,47,110.0
2325,B4,309.25,0.25,95,110.0
2326,B4,309.25,0.25,47,110.0
2327,G#4,309.5,0.25,95,110.0
2328,G#4,309.5,0.25,47,110.0
2329,F#5,309.5,0.25,95,110.0
2330,E5,309.5,0.25,95,110.0
2331,G#5,309.75,0.25,95,110.0
2332,E5,309.75,0.25,95,110.0
2333,B5,310.0,0.25,95,110.0
2334,E5,310.0,0.25,95,110.0
2335,B4,310.75,0.5,95,110.0
2336,B4,310.75,0.25,47,110.0
2337,B5,310.75,0.75,95,110.0
2338,E5,310.75,0.75,95,110.0
2339,B4,311.0,0.25,47,110.0
2340,B4,311.25,0.25,95,110.0
2341,B4,311.25,0.25,47,110.0
2342,G#4,311.5,0.25,95,110.0
2343,G#4,311.5,0.25,47,110.0
2344,C#6,311.5,0.25,95,110.0
2345,E5,311.5,0.25,95,110.0
2346,G#5,312.0,0.25,95,110.0
2347,G#4,312.0,0.25,95,110.0
2348,E-4,312.0,0.25,95,110.0
2349,B4,312.75,0.5,95,110.0
2350,B4,312.75,0.25,47,110.0
2351,G#5,312.75,0.25,95,110.0
2352,G#4,312.75,0.25,95,110.0
2353,E-4,312.75,0.25,95,110.0
2354,B4,313.0,0.25,47,110.0
2355,B4,313.25,0.25,95,110.0
2356,B4,313.25,0.25,47,110.0
2357,C#5,313.5,0.25,95,110.0
2358,C#5,313.5,0.25,47,110.0
2359,F#5,313.5,2.0,95,110.0
2360,F#4,313.5,2.0,95,110.0
2361,C#4,313.5,2.0,95,110.0
2362,B4,313.75,0.25,95,110.0
2363,B4,313.75,0.25,47,110.0
2364,C#5,314.0,0.5,95,110.0
2365,E-5,314.0,0.25,47,110.0
2366,E-5,314.25,0.25,47,110.0
2367,C#5,314.5,0.25,95,110.0
2368,C#5,314.5,0.25,47,110.0
2369,B4,314.75,0.25,95,110.0
2370,B4,314.75,0.25,47,110.0
2371,G#4,315.0,0.5,95,110.0
2372,G#4,315.0,0.25,47,110.0
2373,F1,315.0,1.0,95,110.0
2374,G#4,315.25,0.25,47,110.0
2375,B4,315.5,0.5,95,110.0
2376,B4,315.5,0.25,47,110.0
2377,B4,315.75,0.25,47,110.0
2378,C#4,316.0,0.75,47,110.0
2379,B5,316.0,0.75,95,110.0
2380,G#4,316.0,0.75,95,110.0
2381,E4,316.0,0.75,95,110.0
2382,B4,316.25,0.25,95,110.0
2383,B4,316.25,0.25,47,110.0
2384,B4,316.5,0.25,47,110.0
2385,B4,316.75,0.5,95,110.0
2386,B3,316.75,0.75,63,110.0
2387,B4,316.75,0.25,47,110.0
2388,B5,316.75,0.25,95,110.0
2389,B4,317.0,0.25,47,110.0
2390,B4,317.25,0.25,95,110.0
2391,B4,317.25,0.25,47,110.0
2392,G#4,317.5,0.5,95,110.0
2393,E-4,317.5,0.25,63,110.0
2394,G#4,317.5,0.25,47,110.0
2395,G#5,317.5,2.0,95,110.0
2396,G#4,317.5,2.0,95,110.0
2397,E-4,317.5,2.0,95,110.0
2398,G#4,317.75,0.25,47,110.0
2399,B3,318.0,0.25,63,110.0
2400,C#4,318.5,0.25,63,110.0
2401,B4,318.75,0.5,95,110.0
2402,B4,318.75,0.25,47,110.0
2403,B4,319.0,0.25,47,110.0
2404,B4,319.25,0.25,95,110.0
2405,B4,319.25,0.25,47,110.0
2406,C#5,319.5,0.25,95,110.0
2407,C#5,319.5,0.25,47,110.0
2408,B4,319.75,0.25,95,110.0
2409,B4,319.75,0.25,47,110.0
2410,E-5,320.0,0.5,95,110.0
2411,C#4,320.0,0.75,47,110.0
2412,E-5,320.0,0.25,47,110.0
2413,F#6,320.0,2.0,95,110.0
2414,F#4,320.0,2.0,95,110.0
2415,C#4,320.0,2.0,95,110.0
2416,E-5,320.25,0.25,47,110.0
2417,E-5,320.5,0.25,63,110.0
2418,E-5,320.5,0.25,47,110.0
2419,F#5,320.75,0.5,95,110.0
2420,B3,320.75,0.75,63,110.0
2421,F#5,320.75,0.25,47,110.0
2422,F#5,321.0,0.25,47,110.0
2423,F#5,321.25,0.25,95,110.0
2424,F#5,321.25,0.25,47,110.0
2425,G#5,321.5,0.25,95,110.0
2426,E-4,321.5,0.25,63,110.0
2427,G#5,321.5,0.25,47,110.0
2428,F#5,321.75,0.25,95,110.0
2429,F#5,321.75,0.25,47,110.0
2430,B5,322.0,0.25,95,110.0
2431,B3,322.0,0.25,63,110.0
2432,B5,322.0,0.25,47,110.0
2433,C#6,322.0,2.0,95,110.0
2434,F#4,322.0,2.0,95,110.0
2435,C#4,322.0,2.0,95,110.0
2436,B5,322.25,0.25,95,110.0
2437,B5,322.25,0.25,47,110.0
2438,B-5,322.5,0.25,95,110.0
2439,C#4,322.5,0.25,63,110.0
2440,B-5,322.5,0.25,47,110.0
2441,B-5,322.75,0.25,95,110.0
2442,B-5,322.75,0.25,47,110.0
2443,F#5,323.0,0.25,95,110.0
2444,G#3,323.0,0.25,63,110.0
2445,F#5,323.0,0.25,47,110.0
2446,F#5,323.25,0.25,95,110.0
2447,F#5,323.25,0.25,47,110.0
2448,E-5,323.5,0.25,95,110.0
2449,F#3,323.5,0.25,63,110.0
2450,E-5,323.5,0.25,47,110.0
2451,E5,323.75,0.25,95,110.0
2452,E5,323.75,0.25,47,110.0
2453,C#4,324.0,0.75,47,110.0
2454,F#5,324.0,0.5,95,110.0
2455,G#4,324.0,0.5,95,110.0
2456,E4,324.0,0.5,95,110.0
2457,F#5,324.25,0.5,95,110.0
2458,F#5,324.25,0.25,47,110.0
2459,F#5,324.5,0.25,47,110.0
2460,F#5,324.75,0.5,95,110.0
2461,B3,324.75,0.75,63,110.0
2462,F#5,324.75,0.25,47,110.0
2463,F#5,324.75,0.25,95,110.0
2464,G#4,324.75,0.25,95,110.0
2465,E4,324.75,0.25,95,110.0
2466,F#5,325.0,0.25,47,110.0
2467,F#5,325.25,0.25,95,110.0
2468,F#5,325.25,0.25,47,110.0
2469,E-5,325.5,0.5,95,110.0
2470,E-4,325.5,0.25,63,110.0
2471,E-5,325.5,0.25,47,110.0
2472,F#5,325.5,0.25,95,110.0
2473,E5,325.5,0.25,95,110.0
2474,E-5,325.75,0.25,47,110.0
2475,G#5,325.75,0.25,95,110.0
2476,E5,325.75,0.25,95,110.0
2477,C#5,326.0,0.25,95,110.0
2478,B3,326.0,0.25,63,110.0
2479,C#5,326.0,0.25,47,110.0
2480,B5,326.0,0.25,95,110.0
2481,E5,326.0,0.25,95,110.0
2482,B4,326.25,0.5,95,110.0
2483,B4,326.25,0.25,47,110.0
2484,C#4,326.5,0.25,63,110.0
2485,B4,326.5,0.25,47,110.0
2486,B4,326.75,0.5,95,110.0
2487,B4,326.75,0.25,47,110.0
2488,B5,326.75,0.75,95,110.0
2489,E5,326.75,0.75,95,110.0
2490,G#3,327.0,0.25,63,110.0
2491,B4,327.0,0.25,47,110.0
2492,B4,327.25,0.25,95,110.0
2493,B4,327.25,0.25,47,110.0
2494,G#4,327.5,0.5,95,110.0
2495,F#3,327.5,0.25,63,110.0
2496,G#4,327.5,0.25,47,110.0
2497,C#6,327.5,0.25,95,110.0
2498,E5,327.5,0.25,95,110.0
2499,G#4,327.75,0.25,47,110.0
2500,C#4,328.0,0.75,47,110.0
2501,B5,328.0,0.25,95,110.0
2502,F#4,328.0,0.25,95,110.0
2503,E-4,328.0,0.25,95,110.0
2504,B4,328.75,0.5,95,110.0
2505,B3,328.75,0.75,63,110.0
2506,B4,328.75,0.25,47,110.0
2507,B5,328.75,0.25,95,110.0
2508,F#4,328.75,0.25,95,110.0
2509,E-4,328.75,0.25,95,110.0
2510,B4,329.0,0.25,47,110.0
2511,B4,329.25,0.25,95,110.0
2512,B4,329.25,0.25,47,110.0
2513,C#5,329.5,0.25,95,110.0
2514,E-4,329.5,0.25,63,110.0
2515,C#5,329.5,0.25,47,110.0
2516,B5,329.5,1.0,95,110.0
2517,F#4,329.5,1.25,95,110.0
2518,C#4,329.5,1.25,95,110.0
2519,B4,329.75,0.25,95,110.0
2520,B4,329.75,0.25,47,110.0
2521,E-5,330.0,0.5,95,110.0
2522,B3,330.0,0.25,63,110.0
2523,E-5,330.0,0.25,47,110.0
2524,E-5,330.25,0.25,47,110.0
2525,F#5,330.5,0.25,95,110.0
2526,C#4,330.5,0.25,63,110.0
2527,F#5,330.5,0.25,47,110.0
2528,C#6,330.5,0.25,95,110.0
2529,G#5,330.75,0.25,95,110.0
2530,G#5,330.75,0.25,47,110.0
2531,E-5,331.0,0.25,95,110.0
2532,G#3,331.0,0.25,63,110.0
2533,E-5,331.0,0.25,47,110.0
2534,C#5,331.25,0.25,95,110.0
2535,C#5,331.25,0.25,47,110.0
2536,B4,331.5,0.25,95,110.0
2537,F#3,331.5,0.25,63,110.0
2538,B4,331.5,0.25,47,110.0
2539,G#4,331.75,0.25,95,110.0
2540,G#4,331.75,0.25,47,110.0
2541,C#4,332.0,0.75,47,110.0
2542,B5,332.0,0.75,95,110.0
2543,G#4,332.0,0.75,95,110.0
2544,E4,332.0,0.75,95,110.0
2545,B4,332.25,0.5,95,110.0
2546,B4,332.25,0.25,47,110.0
2547,B4,332.5,0.25,47,110.0
2548,B4,332.75,0.5,95,110.0
2549,B3,332.75,0.75,63,110.0
2550,B4,332.75,0.25,47,110.0
2551,B5,332.75,0.25,95,110.0
2552,B4,333.0,0.25,47,110.0
2553,B4,333.25,0.25,95,110.0
2554,B4,333.25,0.25,47,110.0
2555,G#4,333.5,0.5,95,110.0
2556,E-4,333.5,0.25,63,110.0
2557,G#4,333.5,0.25,47,110.0
2558,G#5,333.5,2.0,95,110.0
2559,G#4,333.5,2.0,95,110.0
2560,E-4,333.5,2.0,95,110.0
2561,G#4,333.75,0.25,47,110.0
2562,B3,334.0,0.25,63,110.0
2563,C#4,334.5,0.25,63,110.0
2564,B4,334.75,0.5,95,110.0
2565,B4,334.75,0.25,47,110.0
2566,G#3,335.0,0.25,63,110.0
2567,B4,335.0,0.25,47,110.0
2568,B4,335.25,0.25,95,110.0
2569,B4,335.25,0.25,47,110.0
2570,C#5,335.5,0.25,95,110.0
2571,F#3,335.5,0.25,63,110.0
2572,C#5,335.5,0.25,47,110.0
2573,B4,335.75,0.25,95,110.0
2574,B4,335.75,0.25,47,110.0
2575,E-5,336.0,0.5,95,110.0
2576,E-5,336.0,0.25,47,110.0
2577,F#6,336.0,2.0,95,110.0
2578,F#4,336.0,2.0,95,110.0
2579,C#4,336.0,2.0,95,110.0
2580,E-5,336.25,0.25,47,110.0
2581,E-5,336.5,0.25,63,110.0
2582,E-5,336.5,0.25,47,110.0
2583,F#5,336.75,0.5,95,110.0
2584,F#5,336.75,0.25,47,110.0
2585,F#5,337.0,0.25,47,110.0
2586,F#5,337.25,0.25,95,110.0
2587,F#5,337.25,0.25,47,110.0
2588,G#5,337.5,0.25,95,110.0
2589,G#5,337.5,0.25,47,110.0
2590,B2,337.5,0.25,95,110.0
2591,F#5,337.75,0.25,95,110.0
2592,F#5,337.75,0.25,47,110.0
2593,C#3,337.75,0.25,95,110.0
2594,E-5,338.0,0.25,95,110.0
2595,E-5,338.0,0.25,47,110.0
2596,F#2,338.0,0.25,95,110.0
2597,G#4,338.0,0.5,95,110.0
2598,E-4,338.0,0.5,95,110.0
2599,C#6,338.0,2.0,95,110.0
2600,F#4,338.0,2.0,95,110.0
2601,C#4,338.0,2.0,95,110.0
2602,C#5,338.25,0.25,95,110.0
2603,C#5,338.25,0.25,47,110.0
2604,G#2,338.25,0.25,47,110.0
2605,C#5,338.5,0.25,95,110.0
2606,C#5,338.5,0.25,47,110.0
2607,F#2,338.5,0.25,95,110.0
2608,G#4,338.5,0.5,95,110.0
2609,E-4,338.5,0.5,95,110.0
2610,B4,338.75,0.25,95,110.0
2611,B4,338.75,0.25,47,110.0
2612,C#2,338.75,0.25,63,110.0
2613,B4,339.0,0.25,95,110.0
2614,B4,339.0,0.25,47,110.0
2615,B1,339.0,0.25,95,110.0
2616,F#4,339.0,0.25,95,110.0
2617,C#4,339.0,0.25,95,110.0
2618,G#4,339.25,0.25,95,110.0
2619,G#4,339.25,0.25,47,110.0
2620,C#2,339.25,0.25,95,110.0
2621,E-4,339.25,0.25,95,110.0
2622,B3,339.25,0.25,95,110.0
2623,B4,339.5,0.25,95,110.0
2624,B4,339.5,0.25,47,110.0
2625,B1,339.5,0.25,95,110.0
2626,C#4,339.5,0.25,95,110.0
2627,G#3,339.5,0.25,95,110.0
2628,G#4,339.75,0.25,95,110.0
2629,G#4,339.75,0.25,47,110.0
2630,C#2,339.75,0.25,63,110.0
2631,E1,340.0,0.75,95,110.0
2632,B3,340.0,0.75,95,110.0
2633,G#3,340.0,0.75,95,110.0
2634,F#3,340.0,0.75,95,110.0
2635,E3,340.0,0.75,95,110.0
2636,F#4,340.0,0.5,79,110.0
2637,E-4,340.0,0.5,79,110.0
2638,F#4,340.5,0.25,63,110.0
2639,E-4,340.5,0.25,63,110.0
2640,E1,340.75,0.25,95,110.0
2641,B3,340.75,0.25,95,110.0
2642,G#3,340.75,0.25,95,110.0
2643,F#3,340.75,0.25,95,110.0
2644,E3,340.75,0.25,95,110.0
2645,G#4,340.75,0.75,79,110.0
2646,E4,340.75,0.75,79,110.0
2647,E1,341.5,2.0,95,110.0
2648,B3,341.5,1.5,95,110.0
2649,G#3,341.5,1.5,95,110.0
2650,F#3,341.5,1.5,95,110.0
2651,E3,341.5,1.5,95,110.0
2652,G#4,341.5,1.0,79,110.0
2653,E4,341.5,1.0,79,110.0
2654,F#4,341.5,0.25,95,110.0
2655,F#3,341.5,0.25,95,110.0
2656,G#4,341.75,0.25,95,110.0
2657,G#3,341.75,0.25,95,110.0
2658,F#4,342.0,0.25,95,110.0
2659,B3,342.0,0.25,95,110.0
2660,B4,342.0,0.5,95,110.0
2661,B3,342.0,0.5,95,110.0
2662,F#4,342.5,0.75,79,110.0
2663,E-4,342.5,0.75,79,110.0
2664,F#4,342.75,0.75,95,110.0
2665,B3,342.75,0.75,95,110.0
2666,B4,342.75,0.5,95,110.0
2667,B3,342.75,0.5,95,110.0
2668,B3,343.0,1.0,95,110.0
2669,G#3,343.0,1.0,95,110.0
2670,F#3,343.0,1.0,95,110.0
2671,E3,343.0,1.0,95,110.0
2672,F#4,343.25,0.75,79,110.0
2673,C#4,343.25,0.75,79,110.0
2674,C#5,343.5,0.25,95,110.0
2675,E1,343.5,0.25,95,110.0
2676,F#4,343.5,0.25,95,110.0
2677,B3,343.5,0.25,95,110.0
2678,F#1,343.75,0.25,95,110.0
2679,G#1,344.0,0.75,95,110.0
2680,E-4,344.0,0.75,95,110.0
2681,B3,344.0,0.75,95,110.0
2682,F#3,344.0,0.75,95,110.0
2683,F#4,344.0,0.75,79,110.0
2684,C#4,344.0,0.75,79,110.0
2685,G#1,344.75,0.25,95,110.0
2686,E-4,344.75,0.25,95,110.0
2687,B3,344.75,0.25,95,110.0
2688,F#3,344.75,0.25,95,110.0
2689,B4,344.75,0.75,79,110.0
2690,E-4,344.75,0.75,79,110.0
2691,C#4,345.5,2.5,95,110.0
2692,F#1,345.5,2.0,95,110.0
2693,B-3,345.5,1.0,95,110.0
2694,F#3,345.5,1.0,95,110.0
2695,B4,345.5,1.0,79,110.0
2696,E-4,345.5,1.0,79,110.0
2697,G#4,346.0,0.25,79,110.0
2698,C#4,346.0,0.25,79,110.0
2699,B4,346.0,0.25,95,110.0
2700,B3,346.0,0.25,95,110.0
2701,F#4,346.25,0.25,79,110.0
2702,B3,346.25,0.25,79,110.0
2703,B-4,346.25,0.25,95,110.0
2704,B-3,346.25,0.25,95,110.0
2705,B3,346.5,0.75,95,110.0
2706,F#3,346.5,0.75,95,110.0
2707,B-4,346.5,0.5,79,110.0
2708,C#4,346.5,0.5,79,110.0
2709,F#4,346.75,0.75,79,110.0
2710,B-3,346.75,0.75,79,110.0
2711,B-4,346.75,0.75,95,110.0
2712,B-3,346.75,0.75,95,110.0
2713,B-4,347.0,0.25,63,110.0
2714,C#4,347.0,0.25,63,110.0
2715,B-3,347.25,0.75,95,110.0
2716,F#3,347.25,0.75,95,110.0
2717,B4,347.25,0.75,79,110.0
2718,B3,347.25,0.75,79,110.0
2719,B4,347.5,0.5,95,110.0
2720,B3,347.5,0.5,95,110.0
2721,E1,348.0,0.75,95,110.0
2722,B3,348.0,0.75,95,110.0
2723,G#3,348.0,0.75,95,110.0
2724,F#3,348.0,0.75,95,110.0
2725,E3,348.0,0.75,95,110.0
2726,F#4,348.0,0.5,79,110.0
2727,E-4,348.0,0.5,79,110.0
2728,B4,348.0,0.5,95,110.0
2729,B3,348.0,0.5,95,110.0
2730,F#4,348.5,0.25,63,110.0
2731,E-4,348.5,0.25,63,110.0
2732,E1,348.75,0.25,95,110.0
2733,B3,348.75,0.25,95,110.0
2734,G#3,348.75,0.25,95,110.0
2735,F#3,348.75,0.25,95,110.0
2736,E3,348.75,0.25,95,110.0
2737,G#4,348.75,0.75,79,110.0
2738,E4,348.75,0.75,79,110.0
2739,E1,349.5,2.0,95,110.0
2740,B3,349.5,1.5,95,110.0
2741,G#3,349.5,1.5,95,110.0
2742,F#3,349.5,1.5,95,110.0
2743,E3,349.5,1.5,95,110.0
2744,G#4,349.5,1.0,79,110.0
2745,E4,349.5,1.0,79,110.0
2746,F#4,350.0,0.75,79,110.0
2747,G#3,350.0,0.75,79,110.0
2748,F#4,350.0,0.75,79,110.0
2749,F#3,350.0,0.75,79,110.0
2750,F#4,350.5,0.75,79,110.0
2751,E-4,350.5,0.75,79,110.0
2752,F#4,350.75,0.75,63,110.0
2753,B3,350.75,0.75,63,110.0
2754,B4,350.75,0.75,79,110.0
2755,B3,350.75,0.75,79,110.0
2756,B3,351.0,1.0,95,110.0
2757,G#3,351.0,1.0,95,110.0
2758,F#3,351.0,1.0,95,110.0
2759,E3,351.0,1.0,95,110.0
2760,F#4,351.25,0.75,79,110.0
2761,C#4,351.25,0.75,79,110.0
2762,E1,351.5,0.25,95,110.0
2763,G#4,351.5,0.5,63,110.0
2764,C#4,351.5,0.5,63,110.0
2765,C#5,351.5,0.5,79,110.0
2766,C#4,351.5,0.5,79,110.0
2767,F#1,351.75,0.25,95,110.0
2768,G#1,352.0,0.75,95,110.0
2769,G#4,352.0,0.75,63,110.0
2770,E-4,352.0,0.75,63,110.0
2771,E-4,352.0,0.75,95,110.0
2772,B3,352.0,0.75,95,110.0
2773,F#3,352.0,0.75,95,110.0
2774,F#4,352.0,0.75,79,110.0
2775,C#4,352.0,0.75,79,110.0
2776,C#5,352.0,0.75,79,110.0
2777,E-4,352.0,0.75,79,110.0
2778,G#1,352.75,0.25,95,110.0
2779,F#4,352.75,0.75,63,110.0
2780,C#4,352.75,0.75,63,110.0
2781,E-4,352.75,0.25,95,110.0
2782,B3,352.75,0.25,95,110.0
2783,F#3,352.75,0.25,95,110.0
2784,F#4,352.75,0.75,79,110.0
2785,E-4,352.75,0.75,79,110.0
2786,C#5,352.75,0.75,79,110.0
2787,C#4,352.75,0.75,79,110.0
2788,C#4,353.5,2.5,95,110.0
2789,F#1,353.5,2.0,95,110.0
2790,F#4,353.5,0.5,63,110.0
2791,B3,353.5,0.5,63,110.0
2792,B-3,353.5,1.0,95,110.0
2793,F#3,353.5,1.0,95,110.0
2794,F#4,353.5,1.0,79,110.0
2795,E-4,353.5,1.0,79,110.0
2796,B4,353.5,0.5,79,110.0
2797,B3,353.5,0.5,79,110.0
2798,F#4,354.0,0.75,63,110.0
2799,B3,354.0,0.5,63,110.0
2800,B4,354.0,0.5,79,110.0
2801,B3,354.0,0.5,79,110.0
2802,B3,354.5,0.75,95,110.0
2803,F#3,354.5,0.75,95,110.0
2804,F#4,354.5,0.5,79,110.0
2805,C#4,354.5,0.5,79,110.0
2806,F#4,354.75,0.75,63,110.0
2807,B-3,354.75,0.75,63,110.0
2808,B-4,354.75,0.75,79,110.0
2809,B-3,354.75,0.75,79,110.0
2810,F#4,355.0,0.25,63,110.0
2811,C#4,355.0,0.25,63,110.0
2812,B-3,355.25,0.75,95,110.0
2813,F#3,355.25,0.75,95,110.0
2814,F#4,355.25,0.75,79,110.0
2815,B3,355.25,0.75,79,110.0
2816,E2,355.5,0.25,63,110.0
2817,F#4,355.5,0.5,63,110.0
2818,B3,355.5,0.5,63,110.0
2819,B4,355.5,0.5,79,110.0
2820,B3,355.5,0.5,79,110.0
2821,E-2,355.75,0.25,63,110.0
2822,E1,356.0,0.75,95,110.0
2823,B3,356.0,0.75,95,110.0
2824,G#3,356.0,0.75,95,110.0
2825,F#3,356.0,0.75,95,110.0
2826,E3,356.0,0.75,95,110.0
2827,F#4,356.0,0.5,79,110.0
2828,E-4,356.0,0.5,79,110.0
2829,F#4,356.5,0.25,63,110.0
2830,E-4,356.5,0.25,63,110.0
2831,E1,356.75,0.25,95,110.0
2832,B3,356.75,0.25,95,110.0
2833,G#3,356.75,0.25,95,110.0
2834,F#3,356.75,0.25,95,110.0
2835,E3,356.75,0.25,95,110.0
2836,G#4,356.75,0.75,79,110.0
2837,E4,356.75,0.75,79,110.0
2838,E1,357.5,2.0,95,110.0
2839,C#4,357.5,0.25,79,110.0
2840,F#3,357.5,0.25,79,110.0
2841,B3,357.5,1.5,95,110.0
2842,G#3,357.5,1.5,95,110.0
2843,F#3,357.5,1.5,95,110.0
2844,E3,357.5,1.5,95,110.0
2845,G#4,357.5,1.0,79,110.0
2846,E4,357.5,1.0,79,110.0
2847,F#4,357.5,0.25,95,110.0
2848,F#3,357.5,0.25,95,110.0
2849,E-4,357.75,0.25,79,110.0
2850,G#3,357.75,0.25,79,110.0
2851,G#4,357.75,0.25,95,110.0
2852,G#3,357.75,0.25,95,110.0
2853,B4,358.0,0.5,95,110.0
2854,B3,358.0,0.5,95,110.0
2855,F#4,358.25,0.25,79,110.0
2856,B3,358.25,0.25,79,110.0
2857,F#4,358.5,0.75,79,110.0
2858,E-4,358.5,0.75,79,110.0
2859,F#4,358.75,0.75,63,110.0
2860,B3,358.75,0.5,95,110.0
2861,B4,358.75,0.5,95,110.0
2862,B3,358.75,0.5,95,110.0
2863,B3,359.0,1.0,95,110.0
2864,G#3,359.0,1.0,95,110.0
2865,F#3,359.0,1.0,95,110.0
2866,E3,359.0,1.0,95,110.0
2867,F#4,359.25,0.75,79,110.0
2868,C#4,359.25,0.75,79,110.0
2869,E1,359.5,0.25,95,110.0
2870,G#4,359.5,0.25,79,110.0
2871,C#4,359.5,0.25,79,110.0
2872,C#5,359.5,0.25,79,110.0
2873,C#4,359.5,0.25,79,110.0
2874,F#1,359.75,0.25,95,110.0
2875,G#1,360.0,0.75,95,110.0
2876,E-4,360.0,0.75,95,110.0
2877,B3,360.0,0.75,95,110.0
2878,F#3,360.0,0.75,95,110.0
2879,F#4,360.0,0.75,79,110.0
2880,C#4,360.0,0.75,79,110.0
2881,G#1,360.75,0.25,95,110.0
2882,E-4,360.75,0.25,95,110.0
2883,B3,360.75,0.25,95,110.0
2884,F#3,360.75,0.25,95,110.0
2885,B4,360.75,0.75,79,110.0
2886,E-4,360.75,0.75,79,110.0
2887,C#4,361.5,2.5,95,110.0
2888,F#1,361.5,2.0,95,110.0
2889,B-3,361.5,1.0,95,110.0
2890,F#3,361.5,1.0,95,110.0
2891,B4,361.5,1.0,79,110.0
2892,E-4,361.5,1.0,79,110.0
2893,B4,361.5,0.25,79,110.0
2894,B3,361.5,0.25,79,110.0
2895,C#5,361.75,0.25,79,110.0
2896,C#4,361.75,0.25,79,110.0
2897,G#4,362.0,0.75,79,110.0
2898,E-4,362.0,0.75,79,110.0
2899,E-5,362.0,0.75,79,110.0
2900,E-4,362.0,0.75,79,110.0
2901,B3,362.5,0.75,95,110.0
2902,F#3,362.5,0.75,95,110.0
2903,B-4,362.5,0.5,79,110.0
2904,C#4,362.5,0.5,79,110.0
2905,G#4,362.75,0.75,79,110.0
2906,F#4,362.75,0.75,79,110.0
2907,F#5,362.75,0.75,79,110.0
2908,F#4,362.75,0.75,79,110.0
2909,B-4,363.0,0.25,63,110.0
2910,C#4,363.0,0.25,63,110.0
2911,B-3,363.25,0.75,95,110.0
2912,F#3,363.25,0.75,95,110.0
2913,B4,363.25,0.75,79,110.0
2914,B3,363.25,0.75,79,110.0
2915,G#4,363.5,0.5,95,110.0
2916,C#4,363.5,0.5,95,110.0
2917,C#5,363.5,0.5,79,110.0
2918,C#4,363.5,0.5,79,110.0
2919,E1,364.0,0.75,95,110.0
2920,G#4,364.0,0.75,79,110.0
2921,C#4,364.0,0.75,79,110.0
2922,B3,364.0,0.75,95,110.0
2923,G#3,364.0,0.75,95,110.0
2924,F#3,364.0,0.75,95,110.0
2925,E3,364.0,0.75,95,110.0
2926,F#4,364.0,0.5,79,110.0
2927,E-4,364.0,0.5,79,110.0
2928,C#5,364.0,0.75,79,110.0
2929,C#4,364.0,0.75,79,110.0
2930,F#4,364.5,0.25,63,110.0
2931,E-4,364.5,0.25,63,110.0
2932,E1,364.75,0.25,95,110.0
2933,F#4,364.75,0.75,79,110.0
2934,B3,364.75,0.75,79,110.0
2935,B3,364.75,0.25,95,110.0
2936,G#3,364.75,0.25,95,110.0
2937,F#3,364.75,0.25,95,110.0
2938,E3,364.75,0.25,95,110.0
2939,G#4,364.75,0.75,79,110.0
2940,E4,364.75,0.75,79,110.0
2941,B4,364.75,0.75,79,110.0
2942,B3,364.75,0.75,79,110.0
2943,E1,365.5,2.0,95,110.0
2944,G#4,365.5,2.0,79,110.0
2945,C#4,365.5,2.0,79,110.0
2946,B3,365.5,1.5,95,110.0
2947,G#3,365.5,1.5,95,110.0
2948,F#3,365.5,1.5,95,110.0
2949,E3,365.5,1.5,95,110.0
2950,G#4,365.5,1.0,79,110.0
2951,E4,365.5,1.0,79,110.0
2952,C#5,365.5,2.0,79,110.0
2953,C#4,365.5,2.0,79,110.0
2954,F#4,366.5,0.75,79,110.0
2955,E-4,366.5,0.75,79,110.0
2956,B3,367.0,1.0,95,110.0
2957,G#3,367.0,1.0,95,110.0
2958,F#3,367.0,1.0,95,110.0
2959,E3,367.0,1.0,95,110.0
2960,F#4,367.25,0.75,79,110.0
2961,C#4,367.25,0.75,79,110.0
2962,F#4,367.5,0.25,95,110.0
2963,E1,367.5,0.25,95,110.0
2964,G#4,367.75,0.25,95,110.0
2965,F#1,367.75,0.25,95,110.0
2966,G#1,368.0,0.75,95,110.0
2967,G#4,368.0,0.25,79,110.0
2968,B3,368.0,0.25,79,110.0
2969,E-4,368.0,0.75,95,110.0
2970,B3,368.0,0.75,95,110.0
2971,F#3,368.0,0.75,95,110.0
2972,F#4,368.0,0.75,79,110.0
2973,C#4,368.0,0.75,79,110.0
2974,B4,368.0,0.75,79,110.0
2975,B3,368.0,0.75,79,110.0
2976,G#1,368.75,0.25,95,110.0
2977,G#4,368.75,0.25,79,110.0
2978,B3,368.75,0.25,79,110.0
2979,E-4,368.75,0.25,95,110.0
2980,B3,368.75,0.25,95,110.0
2981,F#3,368.75,0.25,95,110.0
2982,F#4,368.75,0.75,79,110.0
2983,E-4,368.75,0.75,79,110.0
2984,B4,368.75,0.75,79,110.0
2985,B3,368.75,0.75,79,110.0
2986,C#4,369.5,2.5,95,110.0
2987,F#1,369.5,2.0,95,110.0
2988,G#4,369.5,1.0,79,110.0
2989,B3,369.5,1.0,79,110.0
2990,B-3,369.5,1.0,95,110.0
2991,F#3,369.5,1.0,95,110.0
2992,F#4,369.5,1.0,79,110.0
2993,E-4,369.5,1.0,79,110.0
2994,B4,369.5,1.0,79,110.0
2995,B3,369.5,1.0,79,110.0
2996,F#4,370.5,1.5,79,110.0
2997,B-3,370.5,1.5,79,110.0
2998,B3,370.5,0.75,95,110.0
2999,F#3,370.5,0.75,95,110.0
3000,F#4,370.5,0.5,79,110.0
3001,C#4,370.5,0.5,79,110.0
3002,B-4,370.5,1.5,79,110.0
3003,B-3,370.5,1.5,79,110.0
3004,F#4,371.0,0.25,63,110.0
3005,C#4,371.0,0.25,63,110.0
3006,B-3,371.25,0.75,95,110.0
3007,F#3,371.25,0.75,95,110.0
3008,F#4,371.25,0.75,79,110.0
3009,B3,371.25,0.75,79,110.0
3010,E-5,371.5,0.25,95,110.0
3011,E2,371.5,0.25,63,110.0
3012,E5,371.75,0.25,95,110.0
3013,E-2,371.75,0.25,63,110.0
3014,F#5,372.0,4.0,95,110.0
3015,E1,372.0,0.75,95,110.0
3016,B3,372.0,0.75,95,110.0
3017,G#3,372.0,0.75,95,110.0
3018,F#3,372.0,0.75,95,110.0
3019,E3,372.0,0.75,95,110.0
3020,F#4,372.0,0.5,79,110.0
3021,E-4,372.0,0.5,79,110.0
3022,F#4,372.5,0.25,63,110.0
3023,E-4,372.5,0.25,63,110.0
3024,E1,372.75,0.25,95,110.0
3025,B3,372.75,0.25,95,110.0
3026,G#3,372.75,0.25,95,110.0
3027,F#3,372.75,0.25,95,110.0
3028,E3,372.75,0.25,95,110.0
3029,G#4,372.75,0.75,79,110.0
3030,E4,372.75,0.75,79,110.0
3031,E1,373.5,2.0,95,110.0
3032,B3,373.5,1.5,95,110.0
3033,G#3,373.5,1.5,95,110.0
3034,F#3,373.5,1.5,95,110.0
3035,E3,373.5,1.5,95,110.0
3036,G#4,373.5,1.0,79,110.0
3037,E4,373.5,1.0,79,110.0
3038,F#4,373.5,0.25,95,110.0
3039,F#3,373.5,0.25,95,110.0
3040,G#4,373.75,0.25,95,110.0
3041,G#3,373.75,0.25,95,110.0
3042,F#4,374.0,0.25,95,110.0
3043,B3,374.0,0.25,95,110.0
3044,B4,374.0,0.5,95,110.0
3045,B3,374.0,0.5,95,110.0
3046,F#4,374.5,0.75,79,110.0
3047,E-4,374.5,0.75,79,110.0
3048,F#4,374.75,0.75,95,110.0
3049,B3,374.75,0.75,95,110.0
3050,B4,374.75,0.5,95,110.0
3051,B3,374.75,0.5,95,110.0
3052,B3,375.0,1.0,95,110.0
3053,G#3,375.0,1.0,95,110.0
3054,F#3,375.0,1.0,95,110.0
3055,E3,375.0,1.0,95,110.0
3056,F#4,375.25,0.75,79,110.0
3057,C#4,375.25,0.75,79,110.0
3058,C#5,375.5,0.25,95,110.0
3059,E1,375.5,0.25,95,110.0
3060,F#4,375.5,0.25,95,110.0
3061,B3,375.5,0.25,95,110.0
3062,F#1,375.75,0.25,95,110.0
3063,F#5,376.0,3.5,95,110.0
3064,G#1,376.0,0.75,95,110.0
3065,E-4,376.0,0.75,95,110.0
3066,B3,376.0,0.75,95,110.0
3067,F#3,376.0,0.75,95,110.0
3068,F#4,376.0,0.75,79,110.0
3069,C#4,376.0,0.75,79,110.0
3070,G#1,376.75,0.25,95,110.0
3071,E-4,376.75,0.25,95,110.0
3072,B3,376.75,0.25,95,110.0
3073,F#3,376.75,0.25,95,110.0
3074,B4,376.75,0.75,79,110.0
3075,E-4,376.75,0.75,79,110.0
3076,C#4,377.5,2.5,95,110.0
3077,F#1,377.5,2.0,95,110.0
3078,B-3,377.5,1.0,95,110.0
3079,F#3,377.5,1.0,95,110.0
3080,B4,377.5,1.0,79,110.0
3081,E-4,377.5,1.0,79,110.0
3082,G#4,378.0,0.25,79,110.0
3083,C#4,378.0,0.25,79,110.0
3084,B4,378.0,0.25,95,110.0
3085,B3,378.0,0.25,95,110.0
3086,F#4,378.25,0.25,79,110.0
3087,B3,378.25,0.25,79,110.0
3088,B-4,378.25,0.25,95,110.0
3089,B-3,378.25,0.25,95,110.0
3090,B3,378.5,0.75,95,110.0
3091,F#3,378.5,0.75,95,110.0
3092,B-4,378.5,0.5,79,110.0
3093,C#4,378.5,0.5,79,110.0
3094,F#4,378.75,0.75,79,110.0
3095,B-3,378.75,0.75,79,110.0
3096,B-4,378.75,0.75,95,110.0
3097,B-3,378.75,0.75,95,110.0
3098,B-4,379.0,0.25,63,110.0
3099,C#4,379.0,0.25,63,110.0
3100,B-3,379.25,0.75,95,110.0
3101,F#3,379.25,0.75,95,110.0
3102,B4,379.25,0.75,79,110.0
3103,B3,379.25,0.75,79,110.0
3104,B5,379.5,0.25,95,110.0
3105,B4,379.5,0.5,95,110.0
3106,B3,379.5,0.5,95,110.0
3107,B-5,379.75,0.25,95,110.0
3108,F#5,380.0,0.75,95,110.0
3109,E1,380.0,0.75,95,110.0
3110,B3,380.0,0.75,95,110.0
3111,G#3,380.0,0.75,95,110.0
3112,F#3,380.0,0.75,95,110.0
3113,E3,380.0,0.75,95,110.0
3114,F#4,380.0,0.5,79,110.0
3115,E-4,380.0,0.5,79,110.0
3116,B4,380.0,0.5,95,110.0
3117,B3,380.0,0.5,95,110.0
3118,F#4,380.5,0.25,63,110.0
3119,E-4,380.5,0.25,63,110.0
3120,F#5,380.75,0.75,95,110.0
3121,E1,380.75,0.25,95,110.0
3122,B3,380.75,0.25,95,110.0
3123,G#3,380.75,0.25,95,110.0
3124,F#3,380.75,0.25,95,110.0
3125,E3,380.75,0.25,95,110.0
3126,G#4,380.75,0.75,79,110.0
3127,E4,380.75,0.75,79,110.0
3128,E-5,381.5,0.5,95,110.0
3129,E1,381.5,2.0,95,110.0
3130,B3,381.5,1.5,95,110.0
3131,G#3,381.5,1.5,95,110.0
3132,F#3,381.5,1.5,95,110.0
3133,E3,381.5,1.5,95,110.0
3134,G#4,381.5,1.0,79,110.0
3135,E4,381.5,1.0,79,110.0
3136,F#5,382.0,0.75,95,110.0
3137,F#4,382.0,0.75,79,110.0
3138,G#3,382.0,0.75,79,110.0
3139,F#4,382.0,0.75,79,110.0
3140,F#3,382.0,0.75,79,110.0
3141,F#4,382.5,0.75,79,110.0
3142,E-4,382.5,0.75,79,110.0
3143,F#5,382.75,1.25,95,110.0
3144,F#4,382.75,0.75,63,110.0
3145,B3,382.75,0.75,63,110.0
3146,B4,382.75,0.75,79,110.0
3147,B3,382.75,0.75,79,110.0
3148,B3,383.0,1.0,95,110.0
3149,G#3,383.0,1.0,95,110.0
3150,F#3,383.0,1.0,95,110.0
3151,E3,383.0,1.0,95,110.0
3152,F#4,383.25,0.75,79,110.0
3153,C#4,383.25,0.75,79,110.0
3154,E1,383.5,0.25,95,110.0
3155,G#4,383.5,0.5,63,110.0
3156,C#4,383.5,0.5,63,110.0
3157,C#5,383.5,0.5,79,110.0
3158,C#4,383.5,0.5,79,110.0
3159,F#1,383.75,0.25,95,110.0
3160,F#5,384.0,2.0,95,110.0
3161,G#1,384.0,0.75,95,110.0
3162,G#4,384.0,0.75,63,110.0
3163,E-4,384.0,0.75,63,110.0
3164,E-4,384.0,0.75,95,110.0
3165,B3,384.0,0.75,95,110.0
3166,F#3,384.0,0.75,95,110.0
3167,F#4,384.0,0.75,79,110.0
3168,C#4,384.0,0.75,79,110.0
3169,C#5,384.0,0.75,79,110.0
3170,E-4,384.0,0.75,79,110.0
3171,G#1,384.75,0.25,95,110.0
3172,F#4,384.75,0.75,63,110.0
3173,C#4,384.75,0.75,63,110.0
3174,E-4,384.75,0.25,95,110.0
3175,B3,384.75,0.25,95,110.0
3176,F#3,384.75,0.25,95,110.0
3177,F#4,384.75,0.75,79,110.0
3178,E-4,384.75,0.75,79,110.0
3179,C#5,384.75,0.75,79,110.0
3180,C#4,384.75,0.75,79,110.0
3181,C#4,385.5,2.5,95,110.0
3182,F#1,385.5,2.0,95,110.0
3183,F#4,385.5,0.5,63,110.0
3184,B3,385.5,0.5,63,110.0
3185,B-3,385.5,1.0,95,110.0
3186,F#3,385.5,1.0,95,110.0
3187,F#4,385.5,1.0,79,110.0
3188,E-4,385.5,1.0,79,110.0
3189,B4,385.5,0.5,79,110.0
3190,B3,385.5,0.5,79,110.0
3191,F#4,386.0,0.75,63,110.0
3192,B3,386.0,0.5,63,110.0
3193,B4,386.0,0.5,79,110.0
3194,B3,386.0,0.5,79,110.0
3195,B3,386.5,0.75,95,110.0
3196,F#3,386.5,0.75,95,110.0
3197,F#4,386.5,0.5,79,110.0
3198,C#4,386.5,0.5,79,110.0
3199,C#5,386.75,1.0,95,110.0
3200,F#4,386.75,0.75,63,110.0
3201,B-3,386.75,0.75,63,110.0
3202,B-4,386.75,0.75,79,110.0
3203,B-3,386.75,0.75,79,110.0
3204,F#4,387.0,0.25,63,110.0
3205,C#4,387.0,0.25,63,110.0
3206,B-3,387.25,0.75,95,110.0
3207,F#3,387.25,0.75,95,110.0
3208,F#4,387.25,0.75,79,110.0
3209,B3,387.25,0.75,79,110.0
3210,E2,387.5,0.25,63,110.0
3211,F#4,387.5,0.5,63,110.0
3212,B3,387.5,0.5,63,110.0
3213,B4,387.5,0.5,79,110.0
3214,B3,387.5,0.5,79,110.0
3215,C#5,387.75,0.25,95,110.0
3216,E-2,387.75,0.25,63,110.0
3217,B4,388.0,4.0,95,110.0
3218,E1,388.0,0.75,95,110.0
3219,B3,388.0,0.75,95,110.0
3220,G#3,388.0,0.75,95,110.0
3221,F#3,388.0,0.75,95,110.0
3222,E3,388.0,0.75,95,110.0
3223,F#4,388.0,0.5,79,110.0
3224,E-4,388.0,0.5,79,110.0
3225,F#4,388.5,0.25,63,110.0
3226,E-4,388.5,0.25,63,110.0
3227,E1,388.75,0.25,95,110.0
3228,B3,388.75,0.25,95,110.0
3229,G#3,388.75,0.25,95,110.0
3230,F#3,388.75,0.25,95,110.0
3231,E3,388.75,0.25,95,110.0
3232,G#4,388.75,0.75,79,110.0
3233,E4,388.75,0.75,79,110.0
3234,E1,389.5,2.0,95,110.0
3235,C#4,389.5,0.25,79,110.0
3236,F#3,389.5,0.25,79,110.0
3237,B3,389.5,1.5,95,110.0
3238,G#3,389.5,1.5,95,110.0
3239,F#3,389.5,1.5,95,110.0
3240,E3,389.5,1.5,95,110.0
3241,G#4,389.5,1.0,79,110.0
3242,E4,389.5,1.0,79,110.0
3243,F#4,389.5,0.25,95,110.0
3244,F#3,389.5,0.25,95,110.0
3245,E-4,389.75,0.25,79,110.0
3246,G#3,389.75,0.25,79,110.0
3247,G#4,389.75,0.25,95,110.0
3248,G#3,389.75,0.25,95,110.0
3249,B4,390.0,0.5,95,110.0
3250,B3,390.0,0.5,95,110.0
3251,F#4,390.25,0.25,79,110.0
3252,B3,390.25,0.25,79,110.0
3253,F#4,390.5,0.75,79,110.0
3254,E-4,390.5,0.75,79,110.0
3255,F#4,390.75,0.75,63,110.0
3256,B3,390.75,0.5,95,110.0
3257,B4,390.75,0.5,95,110.0
3258,B3,390.75,0.5,95,110.0
3259,B3,391.0,1.0,95,110.0
3260,G#3,391.0,1.0,95,110.0
3261,F#3,391.0,1.0,95,110.0
3262,E3,391.0,1.0,95,110.0
3263,F#4,391.25,0.75,79,110.0
3264,C#4,391.25,0.75,79,110.0
3265,E1,391.5,0.25,95,110.0
3266,G#4,391.5,0.25,79,110.0
3267,C#4,391.5,0.25,79,110.0
3268,C#5,391.5,0.25,79,110.0
3269,C#4,391.5,0.25,79,110.0
3270,F#1,391.75,0.25,95,110.0
3271,G#1,392.0,0.75,95,110.0
3272,E-4,392.0,0.75,95,110.0
3273,B3,392.0,0.75,95,110.0
3274,F#3,392.0,0.75,95,110.0
3275,F#4,392.0,0.75,79,110.0
3276,C#4,392.0,0.75,79,110.0
3277,G#1,392.75,0.25,95,110.0
3278,E-4,392.75,0.25,95,110.0
3279,B3,392.75,0.25,95,110.0
3280,F#3,392.75,0.25,95,110.0
3281,B4,392.75,0.75,79,110.0
3282,E-4,392.75,0.75,79,110.0
3283,C#4,393.5,2.5,95,110.0
3284,F#1,393.5,2.0,95,110.0
3285,B-3,393.5,1.0,95,110.0
3286,F#3,393.5,1.0,95,110.0
3287,B4,393.5,1.0,79,110.0
3288,E-4,393.5,1.0,79,110.0
3289,B4,393.5,0.25,79,110.0
3290,B3,393.5,0.25,79,110.0
3291,C#5,393.75,0.25,79,110.0
3292,C#4,393.75,0.25,79,110.0
3293,G#4,394.0,0.75,79,110.0
3294,E-4,394.0,0.75,79,110.0
3295,E-5,394.0,0.75,79,110.0
3296,E-4,394.0,0.75,79,110.0
3297,B3,394.5,0.75,95,110.0
3298,F#3,394.5,0.75,95,110.0
3299,B-4,394.5,0.5,79,110.0
3300,C#4,394.5,0.5,79,110.0
3301,G#4,394.75,0.75,79,110.0
3302,F#4,394.75,0.75,79,110.0
3303,F#5,394.75,0.75,79,110.0
3304,F#4,394.75,0.75,79,110.0
3305,B-4,395.0,0.25,63,110.0
3306,C#4,395.0,0.25,63,110.0
3307,B-3,395.25,0.75,95,110.0
3308,F#3,395.25,0.75,95,110.0
3309,B4,395.25,0.75,79,110.0
3310,B3,395.25,0.75,79,110.0
3311,G#4,395.5,0.5,95,110.0
3312,C#4,395.5,0.5,95,110.0
3313,C#5,395.5,0.5,79,110.0
3314,C#4,395.5,0.5,79,110.0
3315,E1,396.0,0.75,95,110.0
3316,G#4,396.0,0.75,79,110.0
3317,C#4,396.0,0.75,79,110.0
3318,B3,396.0,0.75,95,110.0
3319,G#3,396.0,0.75,95,110.0
3320,F#3,396.0,0.75,95,110.0
3321,E3,396.0,0.75,95,110.0
3322,F#4,396.0,0.5,79,110.0
3323,E-4,396.0,0.5,79,110.0
3324,C#5,396.0,0.75,79,110.0
3325,C#4,396.0,0.75,79,110.0
3326,F#4,396.5,0.25,63,110.0
3327,E-4,396.5,0.25,63,110.0
3328,E1,396.75,0.25,95,110.0
3329,F#4,396.75,0.75,79,110.0
3330,B3,396.75,0.75,79,110.0
3331,B3,396.75,0.25,95,110.0
3332,G#3,396.75,0.25,95,110.0
3333,F#3,396.75,0.25,95,110.0
3334,E3,396.75,0.25,95,110.0
3335,G#4,396.75,0.75,79,110.0
3336,E4,396.75,0.75,79,110.0
3337,B4,396.75,0.75,79,110.0
3338,B3,396.75,0.75,79,110.0
3339,E1,397.5,2.0,95,110.0
3340,G#4,397.5,2.0,79,110.0
3341,C#4,397.5,2.0,79,110.0
3342,B3,397.5,1.5,95,110.0
3343,G#3,397.5,1.5,95,110.0
3344,F#3,397.5,1.5,95,110.0
3345,E3,397.5,1.5,95,110.0
3346,G#4,397.5,1.0,79,110.0
3347,E4,397.5,1.0,79,110.0
3348,C#5,397.5,2.0,79,110.0
3349,C#4,397.5,2.0,79,110.0
3350,F#4,398.5,0.75,79,110.0
3351,E-4,398.5,0.75,79,110.0
3352,B3,399.0,1.0,95,110.0
3353,G#3,399.0,1.0,95,110.0
3354,F#3,399.0,1.0,95,110.0
3355,E3,399.0,1.0,95,110.0
3356,F#4,399.25,0.75,79,110.0
3357,C#4,399.25,0.75,79,110.0
3358,F#4,399.5,0.25,95,110.0
3359,E1,399.5,0.25,95,110.0
3360,G#4,399.75,0.25,95,110.0
3361,F#1,399.75,0.25,95,110.0
3362,G#1,400.0,0.75,95,110.0
3363,G#4,400.0,0.25,79,110.0
3364,B3,400.0,0.25,79,110.0
3365,E-4,400.0,0.75,95,110.0
3366,B3,400.0,0.75,95,110.0
3367,F#3,400.0,0.75,95,110.0
3368,F#4,400.0,0.75,79,110.0
3369,C#4,400.0,0.75,79,110.0
3370,B4,400.0,0.75,79,110.0
3371,B3,400.0,0.75,79,110.0
3372,G#1,400.75,0.25,95,110.0
3373,G#4,400.75,0.25,79,110.0
3374,B3,400.75,0.25,79,110.0
3375,E-4,400.75,0.25,95,110.0
3376,B3,400.75,0.25,95,110.0
3377,F#3,400.75,0.25,95,110.0
3378,F#4,400.75,0.75,79,110.0
3379,E-4,400.75,0.75,79,110.0
3380,B4,400.75,0.75,79,110.0
3381,B3,400.75,0.75,79,110.0
3382,C#4,401.5,2.5,95,110.0
3383,F#1,401.5,2.0,95,110.0
3384,G#4,401.5,1.0,79,110.0
3385,B3,401.5,1.0,79,110.0
3386,B-3,401.5,1.0,95,110.0
3387,F#3,401.5,1.0,95,110.0
3388,F#4,401.5,1.0,79,110.0
3389,E-4,401.5,1.0,79,110.0
3390,B4,401.5,1.0,79,110.0
3391,B3,401.5,1.0,79,110.0
3392,F#4,402.5,1.5,79,110.0
3393,B-3,402.5,1.5,79,110.0
3394,B3,402.5,0.75,95,110.0
3395,F#3,402.5,0.75,95,110.0
3396,F#4,402.5,0.5,79,110.0
3397,C#4,402.5,0.5,79,110.0
3398,B-4,402.5,1.5,79,110.0
3399,B-3,402.5,1.5,79,110.0
3400,F#4,403.0,0.25,63,110.0
3401,C#4,403.0,0.25,63,110.0
3402,B-3,403.25,0.75,95,110.0
3403,F#3,403.25,0.75,95,110.0
3404,F#4,403.25,0.75,79,110.0
3405,B3,403.25,0.75,79,110.0
3406,E-5,403.5,0.25,95,110.0
3407,E2,403.5,0.25,63,110.0
3408,E5,403.75,0.25,95,110.0
3409,E-2,403.75,0.25,63,110.0
3410,F#5,404.0,4.0,95,110.0
3411,E1,404.0,0.75,95,110.0
3412,B3,404.0,0.75,95,110.0
3413,G#3,404.0,0.75,95,110.0
3414,F#3,404.0,0.75,95,110.0
3415,E3,404.0,0.75,95,110.0
3416,F#4,404.0,0.5,79,110.0
3417,E-4,404.0,0.5,79,110.0
3418,F#4,404.5,0.25,63,110.0
3419,E-4,404.5,0.25,63,110.0
3420,E1,404.75,0.25,95,110.0
3421,B3,404.75,0.25,95,110.0
3422,G#3,404.75,0.25,95,110.0
3423,F#3,404.75,0.25,95,110.0
3424,E3,404.75,0.25,95,110.0
3425,G#4,404.75,0.75,79,110.0
3426,E4,404.75,0.75,79,110.0
3427,E1,405.5,2.0,95,110.0
3428,B3,405.5,1.5,95,110.0
3429,G#3,405.5,1.5,95,110.0
3430,F#3,405.5,1.5,95,110.0
3431,E3,405.5,1.5,95,110.0
3432,G#4,405.5,1.0,79,110.0
3433,E4,405.5,1.0,79,110.0
3434,F#4,405.5,0.25,95,110.0
3435,F#3,405.5,0.25,95,110.0
3436,G#4,405.75,0.25,95,110.0
3437,G#3,405.75,0.25,95,110.0
3438,F#4,406.0,0.25,95,110.0
3439,B3,406.0,0.25,95,110.0
3440,B4,406.0,0.5,95,110.0
3441,B3,406.0,0.5,95,110.0
3442,F#4,406.5,0.75,79,110.0
3443,E-4,406.5,0.75,79,110.0
3444,F#4,406.75,0.75,95,110.0
3445,B3,406.75,0.75,95,110.0
3446,B4,406.75,0.5,95,110.0
3447,B3,406.75,0.5,95,110.0
3448,B3,407.0,1.0,95,110.0
3449,G#3,407.0,1.0,95,110.0
3450,F#3,407.0,1.0,95,110.0
3451,E3,407.0,1.0,95,110.0
3452,F#4,407.25,0.75,79,110.0
3453,C#4,407.25,0.75,79,110.0
3454,C#5,407.5,0.25,95,110.0
3455,E1,407.5,0.25,95,110.0
3456,F#4,407.5,0.25,95,110.0
3457,B3,407.5,0.25,95,110.0
3458,F#1,407.75,0.25,95,110.0
3459,F#5,408.0,3.5,95,110.0
3460,G#1,408.0,0.75,95,110.0
3461,E-4,408.0,0.75,95,110.0
3462,B3,408.0,0.75,95,110.0
3463,F#3,408.0,0.75,95,110.0
3464,F#4,408.0,0.75,79,110.0
3465,C#4,408.0,0.75,79,110.0
3466,G#1,408.75,0.25,95,110.0
3467,E-4,408.75,0.25,95,110.0
3468,B3,408.75,0.25,95,110.0
3469,F#3,408.75,0.25,95,110.0
3470,B4,408.75,0.75,79,110.0
3471,E-4,408.75,0.75,79,110.0
3472,C#4,409.5,2.5,95,110.0
3473,F#1,409.5,2.0,95,110.0
3474,B-3,409.5,1.0,95,110.0
3475,F#3,409.5,1.0,95,110.0
3476,B4,409.5,1.0,79,110.0
3477,E-4,409.5,1.0,79,110.0
3478,G#4,410.0,0.25,79,110.0
3479,C#4,410.0,0.25,79,110.0
3480,B4,410.0,0.25,95,110.0
3481,B3,410.0,0.25,95,110.0
3482,F#4,410.25,0.25,79,110.0
3483,B3,410.25,0.25,79,110.0
3484,B-4,410.25,0.25,95,110.0
3485,B-3,410.25,0.25,95,110.0
3486,B3,410.5,0.75,95,110.0
3487,F#3,410.5,0.75,95,110.0
3488,B-4,410.5,0.5,79,110.0
3489,C#4,410.5,0.5,79,110.0
3490,F#4,410.75,0.75,79,110.0
3491,B-3,410.75,0.75,79,110.0
3492,B-4,410.75,0.75,95,110.0
3493,B-3,410.75,0.75,95,110.0
3494,B-4,411.0,0.25,63,110.0
3495,C#4,411.0,0.25,63,110.0
3496,B-3,411.25,0.75,95,110.0
3497,F#3,411.25,0.75,95,110.0
3498,B4,411.25,0.75,79,110.0
3499,B3,411.25,0.75,79,110.0
3500,B5,411.5,0.25,95,110.0
3501,B4,411.5,0.5,95,110.0
3502,B3,411.5,0.5,95,110.0
3503,B-5,411.75,0.25,95,110.0
3504,F#5,412.0,0.75,95,110.0
3505,E1,412.0,0.75,95,110.0
3506,B3,412.0,0.75,95,110.0
3507,G#3,412.0,0.75,95,110.0
3508,F#3,412.0,0.75,95,110.0
3509,E3,412.0,0.75,95,110.0
3510,F#4,412.0,0.5,79,110.0
3511,E-4,412.0,0.5,79,110.0
3512,B4,412.0,0.5,95,110.0
3513,B3,412.0,0.5,95,110.0
3514,F#4,412.5,0.25,63,110.0
3515,E-4,412.5,0.25,63,110.0
3516,F#5,412.75,0.75,95,110.0
3517,E1,412.75,0.25,95,110.0
3518,B3,412.75,0.25,95,110.0
3519,G#3,412.75,0.25,95,110.0
3520,F#3,412.75,0.25,95,110.0
3521,E3,412.75,0.25,95,110.0
3522,G#4,412.75,0.75,79,110.0
3523,E4,412.75,0.75,79,110.0
3524,E-5,413.5,0.5,95,110.0
3525,E1,413.5,2.0,95,110.0
3526,B3,413.5,1.5,95,110.0
3527,G#3,413.5,1.5,95,110.0
3528,F#3,413.5,1.5,95,110.0
3529,E3,413.5,1.5,95,110.0
3530,G#4,413.5,1.0,79,110.0
3531,E4,413.5,1.0,79,110.0
3532,F#5,414.0,0.75,95,110.0
3533,F#4,414.0,0.75,79,110.0
3534,G#3,414.0,0.75,79,110.0
3535,F#4,414.0,0.75,79,110.0
3536,F#3,414.0,0.75,79,110.0
3537,F#4,414.5,0.75,79,110.0
3538,E-4,414.5,0.75,79,110.0
3539,F#5,414.75,1.25,95,110.0
3540,F#4,414.75,0.75,63,110.0
3541,B3,414.75,0.75,63,110.0
3542,B4,414.75,0.75,79,110.0
3543,B3,414.75,0.75,79,110.0
3544,B3,415.0,1.0,95,110.0
3545,G#3,415.0,1.0,95,110.0
3546,F#3,415.0,1.0,95,110.0
3547,E3,415.0,1.0,95,110.0
3548,F#4,415.25,0.75,79,110.0
3549,C#4,415.25,0.75,79,110.0
3550,E1,415.5,0.25,95,110.0
3551,G#4,415.5,0.5,63,110.0
3552,C#4,415.5,0.5,63,110.0
3553,C#5,415.5,0.5,79,110.0
3554,C#4,415.5,0.5,79,110.0
3555,F#1,415.75,0.25,95,110.0
3556,F#5,416.0,2.0,95,110.0
3557,G#1,416.0,0.75,95,110.0
3558,G#4,416.0,0.75,63,110.0
3559,E-4,416.0,0.75,63,110.0
3560,E-4,416.0,0.75,95,110.0
3561,B3,416.0,0.75,95,110.0
3562,F#3,416.0,0.75,95,110.0
3563,F#4,416.0,0.75,79,110.0
3564,C#4,416.0,0.75,79,110.0
3565,C#5,416.0,0.75,79,110.0
3566,E-4,416.0,0.75,79,110.0
3567,G#1,416.75,0.25,95,110.0
3568,F#4,416.75,0.75,63,110.0
3569,C#4,416.75,0.75,63,110.0
3570,E-4,416.75,0.25,95,110.0
3571,B3,416.75,0.25,95,110.0
3572,F#3,416.75,0.25,95,110.0
3573,F#4,416.75,0.75,79,110.0
3574,E-4,416.75,0.75,79,110.0
3575,C#5,416.75,0.75,79,110.0
3576,C#4,416.75,0.75,79,110.0
3577,C#4,417.5,2.5,95,110.0
3578,F#1,417.5,2.0,95,110.0
3579,F#4,417.5,0.5,63,110.0
3580,B3,417.5,0.5,63,110.0
3581,B-3,417.5,1.0,95,110.0
3582,F#3,417.5,1.0,95,110.0
3583,F#4,417.5,1.0,79,110.0
3584,E-4,417.5,1.0,79,110.0
3585,B4,417.5,0.5,79,110.0
3586,B3,417.5,0.5,79,110.0
3587,F#4,418.0,0.75,63,110.0
3588,B3,418.0,0.5,63,110.0
3589,B4,418.0,0.5,79,110.0
3590,B3,418.0,0.5,79,110.0
3591,B3,418.5,0.75,95,110.0
3592,F#3,418.5,0.75,95,110.0
3593,F#4,418.5,0.5,79,110.0
3594,C#4,418.5,0.5,79,110.0
3595,C#5,418.75,1.0,95,110.0
3596,F#4,418.75,0.75,63,110.0
3597,B-3,418.75,0.75,63,110.0
3598,B-4,418.75,0.75,79,110.0
3599,B-3,418.75,0.75,79,110.0
3600,F#4,419.0,0.25,63,110.0
3601,C#4,419.0,0.25,63,110.0
3602,B-3,419.25,0.75,95,110.0
3603,F#3,419.25,0.75,95,110.0
3604,F#4,419.25,0.75,79,110.0
3605,B3,419.25,0.75,79,110.0
3606,E2,419.5,0.25,63,110.0
3607,F#4,419.5,0.5,63,110.0
3608,B3,419.5,0.5,63,110.0
3609,B4,419.5,0.5,79,110.0
3610,B3,419.5,0.5,79,110.0
3611,C#5,419.75,0.25,95,110.0
3612,E-2,419.75,0.25,63,110.0
3613,B4,420.0,4.0,95,110.0
3614,E1,420.0,0.75,95,110.0
3615,B3,420.0,0.75,95,110.0
3616,G#3,420.0,0.75,95,110.0
3617,F#3,420.0,0.75,95,110.0
3618,E3,420.0,0.75,95,110.0
3619,F#4,420.0,0.5,79,110.0
3620,E-4,420.0,0.5,79,110.0
3621,F#4,420.5,0.25,63,110.0
3622,E-4,420.5,0.25,63,110.0
3623,E1,420.75,0.25,95,110.0
3624,B3,420.75,0.25,95,110.0
3625,G#3,420.75,0.25,95,110.0
3626,F#3,420.75,0.25,95,110.0
3627,E3,420.75,0.25,95,110.0
3628,G#4,420.75,0.75,79,110.0
3629,E4,420.75,0.75,79,110.0
3630,E1,421.5,2.0,95,110.0
3631,C#4,421.5,0.25,79,110.0
3632,F#3,421.5,0.25,79,110.0
3633,B3,421.5,1.5,95,110.0
3634,G#3,421.5,1.5,95,110.0
3635,F#3,421.5,1.5,95,110.0
3636,E3,421.5,1.5,95,110.0
3637,G#4,421.5,1.0,79,110.0
3638,E4,421.5,1.0,79,110.0
3639,F#4,421.5,0.25,95,110.0
3640,F#3,421.5,0.25,95,110.0
3641,E-4,421.75,0.25,79,110.0
3642,G#3,421.75,0.25,79,110.0
3643,G#4,421.75,0.25,95,110.0
3644,G#3,421.75,0.25,95,110.0
3645,B4,422.0,0.5,95,110.0
3646,B3,422.0,0.5,95,110.0
3647,F#4,422.25,0.25,79,110.0
3648,B3,422.25,0.25,79,110.0
3649,F#4,422.5,0.75,79,110.0
3650,E-4,422.5,0.75,79,110.0
3651,F#4,422.75,0.75,63,110.0
3652,B3,422.75,0.5,95,110.0
3653,B4,422.75,0.5,95,110.0
3654,B3,422.75,0.5,95,110.0
3655,B3,423.0,1.0,95,110.0
3656,G#3,423.0,1.0,95,110.0
3657,F#3,423.0,1.0,95,110.0
3658,E3,423.0,1.0,95,110.0
3659,F#4,423.25,0.75,79,110.0
3660,C#4,423.25,0.75,79,110.0
3661,E1,423.5,0.25,95,110.0
3662,G#4,423.5,0.25,79,110.0
3663,C#4,423.5,0.25,79,110.0
3664,C#5,423.5,0.25,79,110.0
3665,C#4,423.5,0.25,79,110.0
3666,F#1,423.75,0.25,95,110.0
3667,G#1,424.0,0.75,95,110.0
3668,E-4,424.0,0.75,95,110.0
3669,B3,424.0,0.75,95,110.0
3670,F#3,424.0,0.75,95,110.0
3671,F#4,424.0,0.75,79,110.0
3672,C#4,424.0,0.75,79,110.0
3673,G#1,424.75,0.25,95,110.0
3674,E-4,424.75,0.25,95,110.0
3675,B3,424.75,0.25,95,110.0
3676,F#3,424.75,0.25,95,110.0
3677,B4,424.75,0.75,79,110.0
3678,E-4,424.75,0.75,79,110.0
3679,C#4,425.5,2.5,95,110.0
3680,F#1,425.5,2.0,95,110.0
3681,B-3,425.5,1.0,95,110.0
3682,F#3,425.5,1.0,95,110.0
3683,B4,425.5,1.0,79,110.0
3684,E-4,425.5,1.0,79,110.0
3685,B4,425.5,0.25,79,110.0
3686,B3,425.5,0.25,79,110.0
3687,C#5,425.75,0.25,79,110.0
3688,C#4,425.75,0.25,79,110.0
3689,G#4,426.0,0.75,79,110.0
3690,E-4,426.0,0.75,79,110.0
3691,E-5,426.0,0.75,79,110.0
3692,E-4,426.0,0.75,79,110.0
3693,B3,426.5,0.75,95,110.0
3694,F#3,426.5,0.75,95,110.0
3695,B-4,426.5,0.5,79,110.0
3696,C#4,426.5,0.5,79,110.0
3697,G#4,426.75,0.75,79,110.0
3698,F#4,426.75,0.75,79,110.0
3699,F#5,426.75,0.75,79,110.0
3700,F#4,426.75,0.75,79,110.0
3701,B-4,427.0,0.25,63,110.0
3702,C#4,427.0,0.25,63,110.0
3703,B-3,427.25,0.75,95,110.0
3704,F#3,427.25,0.75,95,110.0
3705,B4,427.25,0.75,79,110.0
3706,B3,427.25,0.75,79,110.0
3707,G#4,427.5,0.5,95,110.0
3708,C#4,427.5,0.5,95,110.0
3709,C#5,427.5,0.5,79,110.0
3710,C#4,427.5,0.5,79,110.0
3711,E1,428.0,0.75,95,110.0
3712,G#4,428.0,0.75,79,110.0
3713,C#4,428.0,0.75,79,110.0
3714,B3,428.0,0.75,95,110.0
3715,G#3,428.0,0.75,95,110.0
3716,F#3,428.0,0.75,95,110.0
3717,E3,428.0,0.75,95,110.0
3718,F#4,428.0,0.5,79,110.0
3719,E-4,428.0,0.5,79,110.0
3720,C#5,428.0,0.75,79,110.0
3721,C#4,428.0,0.75,79,110.0
3722,F#4,428.5,0.25,63,110.0
3723,E-4,428.5,0.25,63,110.0
3724,E1,428.75,0.25,95,110.0
3725,F#4,428.75,0.75,79,110.0
3726,B3,428.75,0.75,79,110.0
3727,B3,428.75,0.25,95,110.0
3728,G#3,428.75,0.25,95,110.0
3729,F#3,428.75,0.25,95,110.0
3730,E3,428.75,0.25,95,110.0
3731,G#4,428.75,0.75,79,110.0
3732,E4,428.75,0.75,79,110.0
3733,B4,428.75,0.75,79,110.0
3734,B3,428.75,0.75,79,110.0
3735,E1,429.5,2.0,95,110.0
3736,G#4,429.5,2.0,79,110.0
3737,C#4,429.5,2.0,79,110.0
3738,B3,429.5,1.5,95,110.0
3739,G#3,429.5,1.5,95,110.0
3740,F#3,429.5,1.5,95,110.0
3741,E3,429.5,1.5,95,110.0
3742,G#4,429.5,1.0,79,110.0
3743,E4,429.5,1.0,79,110.0
3744,C#5,429.5,2.0,79,110.0
3745,C#4,429.5,2.0,79,110.0
3746,F#4,430.5,0.75,79,110.0
3747,E-4,430.5,0.75,79,110.0
3748,B3,431.0,1.0,95,110.0
3749,G#3,431.0,1.0,95,110.0
3750,F#3,431.0,1.0,95,110.0
3751,E3,431.0,1.0,95,110.0
3752,F#4,431.25,0.75,79,110.0
3753,C#4,431.25,0.75,79,110.0
3754,F#4,431.5,0.25,95,110.0
3755,E1,431.5,0.25,95,110.0
3756,G#4,431.75,0.25,95,110.0
3757,F#1,431.75,0.25,95,110.0
3758,G#1,432.0,0.75,95,110.0
3759,G#4,432.0,0.25,79,110.0
3760,B3,432.0,0.25,79,110.0
3761,E-4,432.0,0.75,95,110.0
3762,B3,432.0,0.75,95,110.0
3763,F#3,432.0,0.75,95,110.0
3764,F#4,432.0,0.75,79,110.0
3765,C#4,432.0,0.75,79,110.0
3766,B4,432.0,0.75,79,110.0
3767,B3,432.0,0.75,79,110.0
3768,G#1,432.75,0.25,95,110.0
3769,G#4,432.75,0.25,79,110.0
3770,B3,432.75,0.25,79,110.0
3771,E-4,432.75,0.25,95,110.0
3772,B3,432.75,0.25,95,110.0
3773,F#3,432.75,0.25,95,110.0
3774,F#4,432.75,0.75,79,110.0
3775,E-4,432.75,0.75,79,110.0
3776,B4,432.75,0.75,79,110.0
3777,B3,432.75,0.75,79,110.0
3778,C#4,433.5,2.5,95,110.0
3779,F#1,433.5,2.0,95,110.0
3780,G#4,433.5,1.0,79,110.0
3781,B3,433.5,1.0,79,110.0
3782,B-3,433.5,1.0,95,110.0
3783,F#3,433.5,1.0,95,110.0
3784,F#4,433.5,1.0,79,110.0
3785,E-4,433.5,1.0,79,110.0
3786,B4,433.5,1.0,79,110.0
3787,B3,433.5,1.0,79,110.0
3788,F#4,434.5,1.5,79,110.0
3789,B-3,434.5,1.5,79,110.0
3790,B3,434.5,0.75,95,110.0
3791,F#3,434.5,0.75,95,110.0
3792,F#4,434.5,0.5,79,110.0
3793,C#4,434.5,0.5,79,110.0
3794,B-4,434.5,1.5,79,110.0
3795,B-3,434.5,1.5,79,110.0
3796,F#4,435.0,0.25,63,110.0
3797,C#4,435.0,0.25,63,110.0
3798,B-3,435.25,0.75,95,110.0
3799,F#3,435.25,0.75,95,110.0
3800,F#4,435.25,0.75,79,110.0
3801,B3,435.25,0.75,79,110.0
3802,E-5,435.5,0.25,95,110.0
3803,E2,435.5,0.25,63,110.0
3804,E5,435.75,0.25,95,110.0
3805,E-2,435.75,0.25,63,110.0
3806,F#5,436.0,4.0,95,110.0
3807,E1,436.0,0.75,95,110.0
3808,B3,436.0,0.75,95,110.0
3809,G#3,436.0,0.75,95,110.0
3810,F#3,436.0,0.75,95,110.0
3811,E3,436.0,0.75,95,110.0
3812,F#4,436.0,0.5,79,110.0
3813,E-4,436.0,0.5,79,110.0
3814,F#4,436.5,0.25,63,110.0
3815,E-4,436.5,0.25,63,110.0
3816,E1,436.75,0.25,95,110.0
3817,B3,436.75,0.25,95,110.0
3818,G#3,436.75,0.25,95,110.0
3819,F#3,436.75,0.25,95,110.0
3820,E3,436.75,0.25,95,110.0
3821,G#4,436.75,0.75,79,110.0
3822,E4,436.75,0.75,79,110.0
3823,E1,437.5,2.0,95,110.0
3824,B3,437.5,1.5,95,110.0
3825,G#3,437.5,1.5,95,110.0
3826,F#3,437.5,1.5,95,110.0
3827,E3,437.5,1.5,95,110.0
3828,G#4,437.5,1.0,79,110.0
3829,E4,437.5,1.0,79,110.0
3830,F#4,437.5,0.25,95,110.0
3831,F#3,437.5,0.25,95,110.0
3832,G#4,437.75,0.25,95,110.0
3833,G#3,437.75,0.25,95,110.0
3834,F#4,438.0,0.25,95,110.0
3835,B3,438.0,0.25,95,110.0
3836,B4,438.0,0.5,95,110.0
3837,B3,438.0,0.5,95,110.0
3838,F#4,438.5,0.75,79,110.0
3839,E-4,438.5,0.75,79,110.0
3840,F#4,438.75,0.75,95,110.0
3841,B3,438.75,0.75,95,110.0
3842,B4,438.75,0.5,95,110.0
3843,B3,438.75,0.5,95,110.0
3844,B3,439.0,1.0,95,110.0
3845,G#3,439.0,1.0,95,110.0
3846,F#3,439.0,1.0,95,110.0
3847,E3,439.0,1.0,95,110.0
3848,F#4,439.25,0.75,79,110.0
3849,C#4,439.25,0.75,79,110.0
3850,C#5,439.5,0.25,95,110.0
3851,E1,439.5,0.25,95,110.0
3852,F#4,439.5,0.25,95,110.0
3853,B3,439.5,0.25,95,110.0
3854,F#1,439.75,0.25,95,110.0
3855,F#5,440.0,3.5,95,110.0
3856,G#1,440.0,0.75,95,110.0
3857,E-4,440.0,0.75,95,110.0
3858,B3,440.0,0.75,95,110.0
3859,F#3,440.0,0.75,95,110.0
3860,F#4,440.0,0.75,79,110.0
3861,C#4,440.0,0.75,79,110.0
3862,G#1,440.75,0.25,95,110.0
3863,E-4,440.75,0.25,95,110.0
3864,B3,440.75,0.25,95,110.0
3865,F#3,440.75,0.25,95,110.0
3866,B4,440.75,0.75,79,110.0
3867,E-4,440.75,0.75,79,110.0
3868,C#4,441.5,2.5,95,110.0
3869,F#1,441.5,2.0,95,110.0
3870,B-3,441.5,1.0,95,110.0
3871,F#3,441.5,1.0,95,110.0
3872,B4,441.5,1.0,79,110.0
3873,E-4,441.5,1.0,79,110.0
3874,G#4,442.0,0.25,79,110.0
3875,C#4,442.0,0.25,79,110.0
3876,B4,442.0,0.25,95,110.0
3877,B3,442.0,0.25,95,110.0
3878,F#4,442.25,0.25,79,110.0
3879,B3,442.25,0.25,79,110.0
3880,B-4,442.25,0.25,95,110.0
3881,B-3,442.25,0.25,95,110.0
3882,B3,442.5,0.75,95,110.0
3883,F#3,442.5,0.75,95,110.0
3884,B-4,442.5,0.5,79,110.0
3885,C#4,442.5,0.5,79,110.0
3886,F#4,442.75,0.75,79,110.0
3887,B-3,442.75,0.75,79,110.0
3888,B-4,442.75,0.75,95,110.0
3889,B-3,442.75,0.75,95,110.0
3890,B-4,443.0,0.25,63,110.0
3891,C#4,443.0,0.25,63,110.0
3892,B-3,443.25,0.75,95,110.0
3893,F#3,443.25,0.75,95,110.0
3894,B4,443.25,0.75,79,110.0
3895,B3,443.25,0.75,79,110.0
3896,B5,443.5,0.25,95,110.0
3897,B4,443.5,0.5,95,110.0
3898,B3,443.5,0.5,95,110.0
3899,B-5,443.75,0.25,95,110.0
3900,F#5,444.0,0.75,95,110.0
3901,E1,444.0,0.75,95,110.0
3902,B3,444.0,0.75,95,110.0
3903,G#3,444.0,0.75,95,110.0
3904,F#3,444.0,0.75,95,110.0
3905,E3,444.0,0.75,95,110.0
3906,F#4,444.0,0.5,79,110.0
3907,E-4,444.0,0.5,79,110.0
3908,B4,444.0,0.5,95,110.0
3909,B3,444.0,0.5,95,110.0
3910,F#4,444.5,0.25,63,110.0
3911,E-4,444.5,0.25,63,110.0
3912,F#5,444.75,0.75,95,110.0
3913,E1,444.75,0.25,95,110.0
3914,B3,444.75,0.25,95,110.0
3915,G#3,444.75,0.25,95,110.0
3916,F#3,444.75,0.25,95,110.0
3917,E3,444.75,0.25,95,110.0
3918,G#4,444.75,0.75,79,110.0
3919,E4,444.75,0.75,79,110.0
3920,E-5,445.5,0.5,95,110.0
3921,E1,445.5,2.0,95,110.0
3922,B3,445.5,1.5,95,110.0
3923,G#3,445.5,1.5,95,110.0
3924,F#3,445.5,1.5,95,110.0
3925,E3,445.5,1.5,95,110.0
3926,G#4,445.5,1.0,79,110.0
3927,E4,445.5,1.0,79,110.0
3928,F#5,446.0,0.75,95,110.0
3929,F#4,446.0,0.75,79,110.0
3930,G#3,446.0,0.75,79,110.0
3931,F#4,446.0,0.75,79,110.0
3932,F#3,446.0,0.75,79,110.0
3933,F#4,446.5,0.75,79,110.0
3934,E-4,446.5,0.75,79,110.0
3935,F#5,446.75,1.25,95,110.0
3936,F#4,446.75,0.75,63,110.0
3937,B3,446.75,0.75,63,110.0
3938,B4,446.75,0.75,79,110.0
3939,B3,446.75,0.75,79,110.0
3940,B3,447.0,1.0,95,110.0
3941,G#3,447.0,1.0,95,110.0
3942,F#3,447.0,1.0,95,110.0
3943,E3,447.0,1.0,95,110.0
3944,F#4,447.25,0.75,79,110.0
3945,C#4,447.25,0.75,79,110.0
3946,E1,447.5,0.25,95,110.0
3947,G#4,447.5,0.5,63,110.0
3948,C#4,447.5,0.5,63,110.0
3949,C#5,447.5,0.5,79,110.0
3950,C#4,447.5,0.5,79,110.0
3951,F#1,447.75,0.25,95,110.0
3952,F#5,448.0,2.0,95,110.0
3953,G#1,448.0,0.75,95,110.0
3954,G#4,448.0,0.75,63,110.0
3955,E-4,448.0,0.75,63,110.0
3956,E-4,448.0,0.75,95,110.0
3957,B3,448.0,0.75,95,110.0
3958,F#3,448.0,0.75,95,110.0
3959,F#4,448.0,0.75,79,110.0
3960,C#4,448.0,0.75,79,110.0
3961,C#5,448.0,0.75,79,110.0
3962,E-4,448.0,0.75,79,110.0
3963,G#1,448.75,0.25,95,110.0
3964,F#4,448.75,0.75,63,110.0
3965,C#4,448.75,0.75,63,110.0
3966,E-4,448.75,0.25,95,110.0
3967,B3,448.75,0.25,95,110.0
3968,F#3,448.75,0.25,95,110.0
3969,F#4,448.75,0.75,79,110.0
3970,E-4,448.75,0.75,79,110.0
3971,C#5,448.75,0.75,79,110.0
3972,C#4,448.75,0.75,79,110.0
3973,C#4,449.5,2.5,95,110.0
3974,F#1,449.5,2.0,95,110.0
3975,F#4,449.5,0.5,63,110.0
3976,B3,449.5,0.5,63,110.0
3977,B-3,449.5,1.0,95,110.0
3978,F#3,449.5,1.0,95,110.0
3979,F#4,449.5,1.0,79,110.0
3980,E-4,449.5,1.0,79,110.0
3981,B4,449.5,0.5,79,110.0
3982,B3,449.5,0.5,79,110.0
3983,F#4,450.0,0.75,63,110.0
3984,B3,450.0,0.5,63,110.0
3985,B4,450.0,0.5,79,110.0
3986,B3,450.0,0.5,79,110.0
3987,B3,450.5,0.75,95,110.0
3988,F#3,450.5,0.75,95,110.0
3989,F#4,450.5,0.5,79,110.0
3990,C#4,450.5,0.5,79,110.0
3991,C#5,450.75,1.0,95,110.0
3992,F#4,450.75,0.75,63,110.0
3993,B-3,450.75,0.75,63,110.0
3994,B-4,450.75,0.75,79,110.0
3995,B-3,450.75,0.75,79,110.0
3996,F#4,451.0,0.25,63,110.0
3997,C#4,451.0,0.25,63,110.0
3998,B-3,451.25,0.75,95,110.0
3999,F#3,451.25,0.75,95,110.0
4000,F#4,451.25,0.75,79,110.0
4001,B3,451.25,0.75,79,110.0
4002,E2,451.5,0.25,63,110.0
4003,F#4,451.5,0.5,63,110.0
4004,B3,451.5,0.5,63,110.0
4005,B4,451.5,0.5,79,110.0
4006,B3,451.5,0.5,79,110.0
4007,C#5,451.75,0.25,95,110.0
4008,E-2,451.75,0.25,63,110.0
4009,B4,452.0,4.0,95,110.0
4010,E1,452.0,0.75,95,110.0
4011,B3,452.0,0.75,95,110.0
4012,G#3,452.0,0.75,95,110.0
4013,F#3,452.0,0.75,95,110.0
4014,E3,452.0,0.75,95,110.0
4015,F#4,452.0,0.5,79,110.0
4016,E-4,452.0,0.5,79,110.0
4017,F#4,452.5,0.25,63,110.0
4018,E-4,452.5,0.25,63,110.0
4019,E1,452.75,0.25,95,110.0
4020,B3,452.75,0.25,95,110.0
4021,G#3,452.75,0.25,95,110.0
4022,F#3,452.75,0.25,95,110.0
4023,E3,452.75,0.25,95,110.0
4024,G#4,452.75,0.75,79,110.0
4025,E4,452.75,0.75,79,110.0
4026,E1,453.5,2.0,95,110.0
4027,C#4,453.5,0.25,79,110.0
4028,F#3,453.5,0.25,79,110.0
4029,B3,453.5,1.5,95,110.0
4030,G#3,453.5,1.5,95,110.0
4031,F#3,453.5,1.5,95,110.0
4032,E3,453.5,1.5,95,110.0
4033,G#4,453.5,1.0,79,110.0
4034,E4,453.5,1.0,79,110.0
4035,F#4,453.5,0.25,95,110.0
4036,F#3,453.5,0.25,95,110.0
4037,E-4,453.75,0.25,79,110.0
4038,G#3,453.75,0.25,79,110.0
4039,G#4,453.75,0.25,95,110.0
4040,G#3,453.75,0.25,95,110.0
4041,B4,454.0,0.5,95,110.0
4042,B3,454.0,0.5,95,110.0
4043,F#4,454.25,0.25,79,110.0
4044,B3,454.25,0.25,79,110.0
4045,F#4,454.5,0.75,79,110.0
4046,E-4,454.5,0.75,79,110.0
4047,F#4,454.75,0.75,63,110.0
4048,B3,454.75,0.5,95,110.0
4049,B4,454.75,0.5,95,110.0
4050,B3,454.75,0.5,95,110.0
4051,B3,455.0,1.0,95,110.0
4052,G#3,455.0,1.0,95,110.0
4053,F#3,455.0,1.0,95,110.0
4054,E3,455.0,1.0,95,110.0
4055,F#4,455.25,0.75,79,110.0
4056,C#4,455.25,0.75,79,110.0
4057,E1,455.5,0.25,95,110.0
4058,G#4,455.5,0.25,79,110.0
4059,C#4,455.5,0.25,79,110.0
4060,C#5,455.5,0.25,79,110.0
4061,C#4,455.5,0.25,79,110.0
4062,F#1,455.75,0.25,95,110.0
4063,G#1,456.0,0.75,95,110.0
4064,E-4,456.0,0.75,95,110.0
4065,B3,456.0,0.75,95,110.0
4066,F#3,456.0,0.75,95,110.0
4067,F#4,456.0,0.75,79,110.0
4068,C#4,456.0,0.75,79,110.0
4069,G#1,456.75,0.25,95,110.0
4070,E-4,456.75,0.25,95,110.0
4071,B3,456.75,0.25,95,110.0
4072,F#3,456.75,0.25,95,110.0
4073,B4,456.75,0.75,79,110.0
4074,E-4,456.75,0.75,79,110.0
4075,C#4,457.5,2.5,95,110.0
4076,F#1,457.5,2.0,95,110.0
4077,B-3,457.5,1.0,95,110.0
4078,F#3,457.5,1.0,95,110.0
4079,B4,457.5,1.0,79,110.0
4080,E-4,457.5,1.0,79,110.0
4081,B4,457.5,0.25,79,110.0
4082,B3,457.5,0.25,79,110.0
4083,C#5,457.75,0.25,79,110.0
4084,C#4,457.75,0.25,79,110.0
4085,G#4,458.0,0.75,79,110.0
4086,E-4,458.0,0.75,79,110.0
4087,E-5,458.0,0.75,79,110.0
4088,E-4,458.0,0.75,79,110.0
4089,B3,458.5,0.75,95,110.0
4090,F#3,458.5,0.75,95,110.0
4091,B-4,458.5,0.5,79,110.0
4092,C#4,458.5,0.5,79,110.0
4093,G#4,458.75,0.75,79,110.0
4094,F#4,458.75,0.75,79,110.0
4095,F#5,458.75,0.75,79,110.0
4096,F#4,458.75,0.75,79,110.0
4097,B-4,459.0,0.25,63,110.0
4098,C#4,459.0,0.25,63,110.0
4099,B-3,459.25,0.75,95,110.0
4100,F#3,459.25,0.75,95,110.0
4101,B4,459.25,0.75,79,110.0
4102,B3,459.25,0.75,79,110.0
4103,G#4,459.5,0.5,95,110.0
4104,C#4,459.5,0.5,95,110.0
4105,C#5,459.5,0.5,79,110.0
4106,C#4,459.5,0.5,79,110.0
4107,E2,2528.1,0.5,95,110.0
4108,E2,2528.6,0.25,95,110.0
4109,E2,2528.85,0.5,95,110.0
4110,F#2,2529.6,0.25,95,110.0
4111,C2,2529.6,0.25,95,110.0
4112,F#2,2529.85,0.25,95,110.0
4113,G#2,2530.1,0.25,95,110.0
4114,G#2,2530.35,0.25,95,110.0
4115,F#2,2530.6,0.25,95,110.0
4116,D2,2530.6,0.25,95,110.0
4117,F#2,2530.85,0.25,95,110.0
4118,G#2,2531.1,0.25,95,110.0
4119,G#2,2531.35,0.25,95,110.0
4120,F#2,2531.6,0.25,95,110.0
4121,C2,2531.6,0.25,95,110.0
4122,F#2,2531.85,3/20,95,110.0
4123,F#2,2532.0,1/10,95,110.0
4124,G#2,2532.1,0.25,95,110.0
4125,G#2,2532.35,0.25,95,110.0
4126,F#2,2532.6,0.25,95,110.0
4127,D2,2532.6,0.25,95,110.0
4128,F#2,2532.85,0.25,95,110.0
4129,G#2,2533.1,0.25,95,110.0
4130,G#2,2533.35,0.25,95,110.0
4131,F#2,2533.6,0.25,95,110.0
4132,C2,2533.6,0.25,95,110.0
4133,F#2,2533.85,0.25,95,110.0
4134,G#2,2534.1,0.25,95,110.0
4135,G#2,2534.35,0.25,95,110.0
4136,F#2,2534.6,0.25,95,110.0
4137,D2,2534.6,0.25,95,110.0
4138,F#2,2534.85,0.25,95,110.0
4139,G#2,2535.1,0.25,95,110.0
4140,G#2,2535.35,0.25,95,110.0
4141,F#2,2535.6,0.25,95,110.0
4142,C2,2535.6,0.25,95,110.0
4143,F#2,2535.85,3/20,95,110.0
4144,F#2,2536.0,1/10,95,110.0
4145,G#2,2536.1,0.25,95,110.0
4146,G#2,2536.35,0.25,95,110.0
4147,F#2,2536.6,0.25,95,110.0
4148,D2,2536.6,0.25,95,110.0
4149,F#2,2536.85,0.25,95,110.0
4150,G#2,2537.1,0.25,95,110.0
4151,G#2,2537.35,0.25,95,110.0
4152,F#2,2537.6,0.25,95,110.0
4153,C2,2537.6,0.25,95,110.0
4154,F#2,2537.85,0.25,95,110.0
4155,G#2,2538.1,0.25,95,110.0
4156,G#2,2538.35,0.25,95,110.0
4157,F#2,2538.6,0.25,95,110.0
4158,D2,2538.6,0.25,95,110.0
4159,F#2,2538.85,0.25,95,110.0
4160,G#2,2539.1,0.25,95,110.0
4161,G#2,2539.35,0.25,95,110.0
4162,F#2,2539.6,0.25,95,110.0
4163,C2,2539.6,0.25,95,110.0
4164,F#2,2539.85,3/20,95,110.0
4165,F#2,2540.0,1/10,95,110.0
4166,G#2,2540.1,0.25,95,110.0
4167,G#2,2540.35,0.25,95,110.0
4168,F#2,2540.6,0.25,95,110.0
4169,D2,2540.6,0.25,95,110.0
4170,F#2,2540.85,0.25,95,110.0
4171,G#2,2541.1,0.25,95,110.0
4172,G#2,2541.35,0.25,95,110.0
4173,F#2,2541.6,0.25,95,110.0
4174,C2,2541.6,0.25,95,110.0
4175,F#2,2541.85,0.25,95,110.0
4176,G#2,2542.1,0.25,95,110.0
4177,G#2,2542.35,0.25,95,110.0
4178,F#2,2542.6,0.25,95,110.0
4179,D2,2542.6,0.25,95,110.0
4180,F#2,2542.85,0.25,95,110.0
4181,G#2,2543.1,0.25,95,110.0
4182,G#2,2543.35,0.25,95,110.0
4183,F#2,2543.6,0.25,95,110.0
4184,C2,2543.6,0.25,95,110.0
4185,F#2,2543.85,3/20,95,110.0
4186,F#2,2544.0,1/10,95,110.0
4187,G#2,2544.1,0.25,95,110.0
4188,G#2,2544.35,0.25,95,110.0
4189,F#2,2544.6,0.25,95,110.0
4190,D2,2544.6,0.25,95,110.0
4191,F#2,2544.85,0.25,95,110.0
4192,G#2,2545.1,0.25,95,110.0
4193,G#2,2545.35,0.25,95,110.0
4194,F#2,2545.6,0.25,95,110.0
4195,C2,2545.6,0.25,95,110.0
4196,E3,2545.6,0.25,95,110.0
4197,F#2,2545.85,0.25,95,110.0
4198,G#2,2546.1,0.25,95,110.0
4199,G#2,2546.35,0.25,95,110.0
4200,F#2,2546.6,0.25,95,110.0
4201,D2,2546.6,0.25,95,110.0
4202,F#2,2546.85,0.25,95,110.0
4203,G#2,2547.1,0.25,95,110.0
4204,G#2,2547.35,0.25,95,110.0
4205,F#2,2547.6,0.25,95,110.0
4206,C2,2547.6,0.25,95,110.0
4207,F#2,2547.85,3/20,95,110.0
4208,F#2,2548.0,1/10,95,110.0
4209,G#2,2548.1,0.25,95,110.0
4210,G#2,2548.35,0.25,95,110.0
4211,F#2,2548.6,0.25,95,110.0
4212,D2,2548.6,0.25,95,110.0
4213,F#2,2548.85,0.25,95,110.0
4214,G#2,2549.1,0.25,95,110.0
4215,G#2,2549.35,0.25,95,110.0
4216,F#2,2549.6,0.25,95,110.0
4217,C2,2549.6,0.25,95,110.0
4218,F#2,2549.85,0.25,95,110.0
4219,G#2,2550.1,0.25,95,110.0
4220,G#2,2550.35,0.25,95,110.0
4221,F#2,2550.6,0.25,95,110.0
4222,D2,2550.6,0.25,95,110.0
4223,F#2,2550.85,0.25,95,110.0
4224,G#2,2551.1,0.25,95,110.0
4225,G#2,2551.35,0.25,95,110.0
4226,F#2,2551.6,0.25,95,110.0
4227,C2,2551.6,0.25,95,110.0
4228,F#2,2551.85,3/20,95,110.0
4229,F#2,2552.0,1/10,95,110.0
4230,G#2,2552.1,0.25,95,110.0
4231,G#2,2552.35,0.25,95,110.0
4232,F#2,2552.6,0.25,95,110.0
4233,D2,2552.6,0.25,95,110.0
4234,F#2,2552.85,0.25,95,110.0
4235,G#2,2553.1,0.25,95,110.0
4236,G#2,2553.35,0.25,95,110.0
4237,F#2,2553.6,0.25,95,110.0
4238,C2,2553.6,0.25,95,110.0
4239,F#2,2553.85,0.25,95,110.0
4240,G#2,2554.1,0.25,95,110.0
4241,G#2,2554.35,0.25,95,110.0
4242,F#2,2554.6,0.25,95,110.0
4243,D2,2554.6,0.25,95,110.0
4244,F#2,2554.85,0.25,95,110.0
4245,G#2,2555.1,0.25,95,110.0
4246,G#2,2555.35,0.25,95,110.0
4247,F#2,2555.6,0.25,95,110.0
4248,C2,2555.6,0.25,95,110.0
4249,F#2,2555.85,3/20,95,110.0
4250,F#2,2556.0,1/10,95,110.0
4251,G#2,2556.1,0.25,95,110.0
4252,G#2,2556.35,0.25,95,110.0
4253,F#2,2556.6,0.25,95,110.0
4254,D2,2556.6,0.25,95,110.0
4255,F#2,2556.85,0.25,95,110.0
4256,G#2,2557.1,0.25,95,110.0
4257,G#2,2557.35,0.25,95,110.0
4258,F#2,2557.6,0.25,95,110.0
4259,C2,2557.6,0.25,95,110.0
4260,F#2,2557.85,0.25,95,110.0
4261,G#2,2558.1,0.25,95,110.0
4262,G#2,2558.35,0.25,95,110.0
4263,F#2,2558.6,0.25,95,110.0
4264,D2,2558.6,0.25,95,110.0
4265,F#2,2558.85,0.25,95,110.0
4266,G#2,2559.1,0.25,95,110.0
4267,G#2,2559.35,0.25,95,110.0
4268,F#2,2559.6,0.25,95,110.0
4269,C2,2559.6,0.25,95,110.0
4270,F#2,2559.85,3/20,95,110.0
4271,F#2,2560.0,1/10,95,110.0
4272,G#2,2560.1,0.25,95,110.0
4273,G#2,2560.35,0.25,95,110.0
4274,F#2,2560.6,0.25,95,110.0
4275,D2,2560.6,0.25,95,110.0
4276,F#2,2560.85,0.25,95,110.0
4277,G#2,2561.1,0.25,95,110.0
4278,G#2,2561.35,0.25,95,110.0
4279,F#2,2561.6,0.25,95,110.0
4280,C2,2561.6,0.25,95,110.0
4281,E3,2561.6,0.25,95,110.0
4282,G#2,2561.85,0.25,95,110.0
4283,F#2,2562.1,0.25,95,110.0
4284,G#2,2562.35,0.25,95,110.0
4285,C2,2562.35,0.25,95,110.0
4286,F#2,2562.6,0.25,95,110.0
4287,G#2,2562.85,0.25,95,110.0
4288,G#2,2563.1,0.25,95,110.0
4289,C2,2563.1,0.25,95,110.0
4290,G#2,2563.35,0.25,95,110.0
4291,F#2,2563.6,0.25,95,110.0
4292,G#2,2563.85,3/20,95,110.0
4293,G#2,2564.0,1/10,95,110.0
4294,F#2,2564.1,0.25,95,110.0
4295,G#2,2564.35,0.25,71,110.0
4296,C2,2564.35,0.25,71,110.0
4297,F#2,2564.6,0.25,95,110.0
4298,D2,2564.6,0.25,95,110.0
4299,G#2,2564.85,0.25,95,110.0
4300,G#2,2565.1,0.25,95,110.0
4301,G#2,2565.35,0.25,95,110.0
4302,F#2,2565.6,0.25,95,110.0
4303,C2,2565.6,0.25,95,110.0
4304,G#2,2565.85,0.25,95,110.0
4305,F#2,2566.1,0.25,95,110.0
4306,G#2,2566.35,0.25,95,110.0
4307,C2,2566.35,0.25,95,110.0
4308,F#2,2566.6,0.25,95,110.0
4309,G#2,2566.85,0.25,95,110.0
4310,G#2,2567.1,0.25,95,110.0
4311,C2,2567.1,0.25,95,110.0
4312,G#2,2567.35,0.25,95,110.0
4313,F#2,2567.6,0.25,95,110.0
4314,G#2,2567.85,3/20,95,110.0
4315,G#2,2568.0,1/10,95,110.0
4316,F#2,2568.1,0.25,95,110.0
4317,G#2,2568.35,0.25,71,110.0
4318,C2,2568.35,0.25,71,110.0
4319,F#2,2568.6,0.25,95,110.0
4320,D2,2568.6,0.25,95,110.0
4321,G#2,2568.85,0.25,95,110.0
4322,G#2,2569.1,0.25,95,110.0
4323,G#2,2569.35,0.25,95,110.0
4324,F#2,2569.6,0.25,95,110.0
4325,C2,2569.6,0.25,95,110.0
4326,G#2,2569.85,0.25,95,110.0
4327,F#2,2570.1,0.25,95,110.0
4328,G#2,2570.35,0.25,95,110.0
4329,C2,2570.35,0.25,95,110.0
4330,F#2,2570.6,0.25,95,110.0
4331,G#2,2570.85,0.25,95,110.0
4332,G#2,2571.1,0.25,95,110.0
4333,C2,2571.1,0.25,95,110.0
4334,G#2,2571.35,0.25,95,110.0
4335,F#2,2571.6,0.25,95,110.0
4336,G#2,2571.85,3/20,95,110.0
4337,G#2,2572.0,1/10,95,110.0
4338,F#2,2572.1,0.25,95,110.0
4339,G#2,2572.35,0.25,71,110.0
4340,C2,2572.35,0.25,71,110.0
4341,F#2,2572.6,0.25,95,110.0
4342,D2,2572.6,0.25,95,110.0
4343,G#2,2572.85,0.25,95,110.0
4344,G#2,2573.1,0.25,95,110.0
4345,G#2,2573.35,0.25,95,110.0
4346,F#2,2573.6,0.25,95,110.0
4347,C2,2573.6,0.25,95,110.0
4348,G#2,2573.85,0.25,95,110.0
4349,F#2,2574.1,0.25,95,110.0
4350,G#2,2574.35,0.25,95,110.0
4351,C2,2574.35,0.25,95,110.0
4352,F#2,2574.6,0.25,95,110.0
4353,G#2,2574.85,0.25,95,110.0
4354,G#2,2575.1,0.25,95,110.0
4355,C2,2575.1,0.25,95,110.0
4356,G#2,2575.35,0.25,95,110.0
4357,F#2,2575.6,0.25,95,110.0
4358,G#2,2575.85,3/20,95,110.0
4359,G#2,2576.0,1/10,95,110.0
4360,F#2,2576.1,0.25,95,110.0
4361,G#2,2576.35,0.25,71,110.0
4362,C2,2576.35,0.25,71,110.0
4363,F#2,2576.6,0.25,95,110.0
4364,D2,2576.6,0.25,95,110.0
4365,G#2,2576.85,0.25,95,110.0
4366,G#2,2577.1,0.25,95,110.0
4367,G#2,2577.35,0.25,95,110.0
4368,F#2,2577.6,0.25,95,110.0
4369,C2,2577.6,0.25,95,110.0
4370,G#2,2577.85,0.25,95,110.0
4371,F#2,2578.1,0.25,95,110.0
4372,G#2,2578.35,0.25,95,110.0
4373,C2,2578.35,0.25,95,110.0
4374,F#2,2578.6,0.25,95,110.0
4375,G#2,2578.85,0.25,95,110.0
4376,G#2,2579.1,0.25,95,110.0
4377,C2,2579.1,0.25,95,110.0
4378,G#2,2579.35,0.25,95,110.0
4379,F#2,2579.6,0.25,95,110.0
4380,G#2,2579.85,3/20,95,110.0
4381,G#2,2580.0,1/10,95,110.0
4382,F#2,2580.1,0.25,95,110.0
4383,G#2,2580.35,0.25,71,110.0
4384,C2,2580.35,0.25,71,110.0
4385,F#2,2580.6,0.25,95,110.0
4386,D2,2580.6,0.25,95,110.0
4387,G#2,2580.85,0.25,95,110.0
4388,G#2,2581.1,0.25,95,110.0
4389,G#2,2581.35,0.25,95,110.0
4390,F#2,2581.6,0.25,95,110.0
4391,C2,2581.6,0.25,95,110.0
4392,G#2,2581.85,0.25,95,110.0
4393,F#2,2582.1,0.25,95,110.0
4394,G#2,2582.35,0.25,95,110.0
4395,C2,2582.35,0.25,95,110.0
4396,F#2,2582.6,0.25,95,110.0
4397,G#2,2582.85,0.25,95,110.0
4398,G#2,2583.1,0.25,95,110.0
4399,C2,2583.1,0.25,95,110.0
4400,G#2,2583.35,0.25,95,110.0
4401,F#2,2583.6,0.25,95,110.0
4402,G#2,2583.85,3/20,95,110.0
4403,G#2,2584.0,1/10,95,110.0
4404,F#2,2584.1,0.25,95,110.0
4405,G#2,2584.35,0.25,71,110.0
4406,C2,2584.35,0.25,71,110.0
4407,F#2,2584.6,0.25,95,110.0
4408,D2,2584.6,0.25,95,110.0
4409,G#2,2584.85,0.25,95,110.0
4410,G#2,2585.1,0.25,95,110.0
4411,G#2,2585.35,0.25,95,110.0
4412,F#2,2585.6,0.25,95,110.0
4413,C2,2585.6,0.25,95,110.0
4414,G#2,2585.85,0.25,95,110.0
4415,F#2,2586.1,0.25,95,110.0
4416,G#2,2586.35,0.25,95,110.0
4417,C2,2586.35,0.25,95,110.0
4418,F#2,2586.6,0.25,95,110.0
4419,G#2,2586.85,0.25,95,110.0
4420,G#2,2587.1,0.25,95,110.0
4421,C2,2587.1,0.25,95,110.0
4422,G#2,2587.35,0.25,95,110.0
4423,F#2,2587.6,0.25,95,110.0
4424,G#2,2587.85,3/20,95,110.0
4425,G#2,2588.0,1/10,95,110.0
4426,F#2,2588.1,0.25,95,110.0
4427,G#2,2588.35,0.25,71,110.0
4428,C2,2588.35,0.25,71,110.0
4429,F#2,2588.6,0.25,95,110.0
4430,D2,2588.6,0.25,95,110.0
4431,G#2,2588.85,0.25,95,110.0
4432,G#2,2589.1,0.25,95,110.0
4433,G#2,2589.35,0.25,95,110.0
4434,F#2,2589.6,0.25,95,110.0
4435,C2,2589.6,0.25,95,110.0
4436,G#2,2589.85,0.25,95,110.0
4437,F#2,2590.1,0.25,95,110.0
4438,G#2,2590.35,0.25,95,110.0
4439,C2,2590.35,0.25,95,110.0
4440,F#2,2590.6,0.25,95,110.0
4441,G#2,2590.85,0.25,95,110.0
4442,G#2,2591.1,0.25,95,110.0
4443,C2,2591.1,0.25,95,110.0
4444,G#2,2591.35,0.25,95,110.0
4445,F#2,2591.6,0.25,95,110.0
4446,G#2,2591.85,3/20,95,110.0
4447,G#2,2592.0,1/10,95,110.0
4448,F#2,2592.1,0.25,95,110.0
4449,G#2,2592.35,0.25,71,110.0
4450,C2,2592.35,0.25,71,110.0
4451,F#2,2592.6,0.25,95,110.0
4452,D2,2592.6,0.25,95,110.0
4453,G#2,2592.85,0.25,95,110.0
4454,G#2,2593.1,0.25,95,110.0
4455,G#2,2593.35,0.25,95,110.0
4456,F#2,2593.6,0.25,95,110.0
4457,C2,2593.6,0.25,95,110.0
4458,E3,2593.6,0.25,95,110.0
4459,G#2,2593.85,0.25,95,110.0
4460,F#2,2594.1,0.25,95,110.0
4461,G#2,2594.35,0.25,95,110.0
4462,C2,2594.35,0.25,95,110.0
4463,F#2,2594.6,0.25,95,110.0
4464,G#2,2594.85,0.25,95,110.0
4465,G#2,2595.1,0.25,95,110.0
4466,C2,2595.1,0.25,95,110.0
4467,G#2,2595.35,0.25,95,110.0
4468,F#2,2595.6,0.25,95,110.0
4469,G#2,2595.85,3/20,95,110.0
4470,G#2,2596.0,1/10,95,110.0
4471,F#2,2596.1,0.25,95,110.0
4472,G#2,2596.35,0.25,71,110.0
4473,C2,2596.35,0.25,71,110.0
4474,F#2,2596.6,0.25,95,110.0
4475,D2,2596.6,0.25,95,110.0
4476,G#2,2596.85,0.25,95,110.0
4477,G#2,2597.1,0.25,95,110.0
4478,G#2,2597.35,0.25,95,110.0
4479,F#2,2597.6,0.25,95,110.0
4480,C2,2597.6,0.25,95,110.0
4481,G#2,2597.85,0.25,95,110.0
4482,F#2,2598.1,0.25,95,110.0
4483,G#2,2598.35,0.25,95,110.0
4484,C2,2598.35,0.25,95,110.0
4485,F#2,2598.6,0.25,95,110.0
4486,G#2,2598.85,0.25,95,110.0
4487,G#2,2599.1,0.25,95,110.0
4488,C2,2599.1,0.25,95,110.0
4489,G#2,2599.35,0.25,95,110.0
4490,F#2,2599.6,0.25,95,110.0
4491,G#2,2599.85,3/20,95,110.0
4492,G#2,2600.0,1/10,95,110.0
4493,F#2,2600.1,0.25,95,110.0
4494,G#2,2600.35,0.25,71,110.0
4495,C2,2600.35,0.25,71,110.0
4496,F#2,2600.6,0.25,95,110.0
4497,D2,2600.6,0.25,95,110.0
4498,G#2,2600.85,0.25,95,110.0
4499,G#2,2601.1,0.25,95,110.0
4500,G#2,2601.35,0.25,95,110.0
4501,F#2,2601.6,0.25,95,110.0
4502,C2,2601.6,0.25,95,110.0
4503,G#2,2601.85,0.25,95,110.0
4504,F#2,2602.1,0.25,95,110.0
4505,G#2,2602.35,0.25,95,110.0
4506,C2,2602.35,0.25,95,110.0
4507,F#2,2602.6,0.25,95,110.0
4508,G#2,2602.85,0.25,95,110.0
4509,G#2,2603.1,0.25,95,110.0
4510,C2,2603.1,0.25,95,110.0
4511,G#2,2603.35,0.25,95,110.0
4512,F#2,2603.6,0.25,95,110.0
4513,G#2,2603.85,3/20,95,110.0
4514,G#2,2604.0,1/10,95,110.0
4515,F#2,2604.1,0.25,95,110.0
4516,G#2,2604.35,0.25,71,110.0
4517,C2,2604.35,0.25,71,110.0
4518,F#2,2604.6,0.25,95,110.0
4519,D2,2604.6,0.25,95,110.0
4520,G#2,2604.85,0.25,95,110.0
4521,G#2,2605.1,0.25,95,110.0
4522,G#2,2605.35,0.25,95,110.0
4523,F#2,2605.6,0.25,95,110.0
4524,C2,2605.6,0.25,95,110.0
4525,G#2,2605.85,0.25,95,110.0
4526,F#2,2606.1,0.25,95,110.0
4527,G#2,2606.35,0.25,95,110.0
4528,C2,2606.35,0.25,95,110.0
4529,F#2,2606.6,0.25,95,110.0
4530,G#2,2606.85,0.25,95,110.0
4531,G#2,2607.1,0.25,95,110.0
4532,C2,2607.1,0.25,95,110.0
4533,G#2,2607.35,0.25,95,110.0
4534,F#2,2607.6,0.25,95,110.0
4535,G#2,2607.85,3/20,95,110.0
4536,G#2,2608.0,1/10,95,110.0
4537,F#2,2608.1,0.25,95,110.0
4538,G#2,2608.35,0.25,71,110.0
4539,C2,2608.35,0.25,71,110.0
4540,F#2,2608.6,0.25,95,110.0
4541,D2,2608.6,0.25,95,110.0
4542,G#2,2608.85,0.25,95,110.0
4543,G#2,2609.1,0.25,95,110.0
4544,G#2,2609.35,0.25,95,110.0
4545,F#2,2609.6,0.25,95,110.0
4546,C2,2609.6,0.25,95,110.0
4547,G#2,2609.85,0.25,95,110.0
4548,F#2,2610.1,0.25,95,110.0
4549,G#2,2610.35,0.25,95,110.0
4550,C2,2610.35,0.25,95,110.0
4551,F#2,2610.6,0.25,95,110.0
4552,G#2,2610.85,0.25,95,110.0
4553,G#2,2611.1,0.25,95,110.0
4554,C2,2611.1,0.25,95,110.0
4555,G#2,2611.35,0.25,95,110.0
4556,F#2,2611.6,0.25,95,110.0
4557,G#2,2611.85,3/20,95,110.0
4558,G#2,2612.0,1/10,95,110.0
4559,F#2,2612.1,0.25,95,110.0
4560,G#2,2612.35,0.25,71,110.0
4561,C2,2612.35,0.25,71,110.0
4562,F#2,2612.6,0.25,95,110.0
4563,D2,2612.6,0.25,95,110.0
4564,G#2,2612.85,0.25,95,110.0
4565,G#2,2613.1,0.25,95,110.0
4566,G#2,2613.35,0.25,95,110.0
4567,F#2,2613.6,0.25,95,110.0
4568,C2,2613.6,0.25,95,110.0
4569,G#2,2613.85,0.25,95,110.0
4570,F#2,2614.1,0.25,95,110.0
4571,G#2,2614.35,0.25,95,110.0
4572,C2,2614.35,0.25,95,110.0
4573,F#2,2614.6,0.25,95,110.0
4574,G#2,2614.85,0.25,95,110.0
4575,G#2,2615.1,0.25,95,110.0
4576,C2,2615.1,0.25,95,110.0
4577,G#2,2615.35,0.25,95,110.0
4578,F#2,2615.6,0.25,95,110.0
4579,G#2,2615.85,3/20,95,110.0
4580,G#2,2616.0,1/10,95,110.0
4581,F#2,2616.1,0.25,95,110.0
4582,G#2,2616.35,0.25,71,110.0
4583,C2,2616.35,0.25,71,110.0
4584,F#2,2616.6,0.25,95,110.0
4585,D2,2616.6,0.25,95,110.0
4586,G#2,2616.85,0.25,95,110.0
4587,G#2,2617.1,0.25,95,110.0
4588,G#2,2617.35,0.25,95,110.0
4589,F#2,2617.6,0.25,95,110.0
4590,C2,2617.6,0.25,95,110.0
4591,G#2,2617.85,0.25,95,110.0
4592,F#2,2618.1,0.25,95,110.0
4593,G#2,2618.35,0.25,95,110.0
4594,C2,2618.35,0.25,95,110.0
4595,F#2,2618.6,0.25,95,110.0
4596,G#2,2618.85,0.25,95,110.0
4597,G#2,2619.1,0.25,95,110.0
4598,C2,2619.1,0.25,95,110.0
4599,G#2,2619.35,0.25,95,110.0
4600,F#2,2619.6,0.25,95,110.0
4601,G#2,2619.85,3/20,95,110.0
4602,G#2,2620.0,1/10,95,110.0
4603,F#2,2620.1,0.25,95,110.0
4604,G#2,2620.35,0.25,71,110.0
4605,C2,2620.35,0.25,71,110.0
4606,F#2,2620.6,0.25,95,110.0
4607,D2,2620.6,0.25,95,110.0
4608,G#2,2620.85,0.25,95,110.0
4609,G#2,2621.1,0.25,95,110.0
4610,G#2,2621.35,0.25,95,110.0
4611,F#2,2621.6,0.25,95,110.0
4612,C2,2621.6,0.25,95,110.0
4613,G#2,2621.85,0.25,95,110.0
4614,F#2,2622.1,0.25,95,110.0
4615,B2,2622.1,0.25,95,110.0
4616,G#2,2622.35,0.25,95,110.0
4617,F#2,2622.6,0.25,95,110.0
4618,G#2,2622.85,0.25,95,110.0
4619,G#2,2623.1,0.25,95,110.0
4620,C3,2623.1,0.25,95,110.0
4621,G#2,2623.35,0.25,95,110.0
4622,F#2,2623.6,0.25,95,110.0
4623,G#2,2623.85,3/20,95,110.0
4624,G#2,2624.0,1/10,95,110.0
4625,F#2,2624.1,0.25,95,110.0
4626,D2,2624.1,0.25,95,110.0
4627,G#2,2624.35,0.25,95,110.0
4628,F#2,2624.6,0.25,95,110.0
4629,D2,2624.6,0.25,95,110.0
4630,G#2,2624.85,0.25,95,110.0
4631,G#2,2625.1,0.25,95,110.0
4632,B2,2625.1,0.25,95,110.0
4633,G#2,2625.35,0.25,95,110.0
4634,F#2,2625.6,0.25,95,110.0
4635,C2,2625.6,0.25,95,110.0
4636,C#3,2625.6,0.25,95,110.0
4637,E3,2625.6,0.25,95,110.0
4638,G#2,2625.85,0.25,95,110.0
4639,F#2,2626.1,0.25,95,110.0
4640,G#2,2626.35,0.25,95,110.0
4641,F#2,2626.6,0.25,95,110.0
4642,D2,2626.6,0.25,95,110.0
4643,G#2,2626.85,0.25,95,110.0
4644,G#2,2627.1,0.25,95,110.0
4645,G#2,2627.35,0.25,95,110.0
4646,F#2,2627.6,0.25,95,110.0
4647,C2,2627.6,0.25,95,110.0
4648,G#2,2627.85,3/20,95,110.0
4649,G#2,2628.0,1/10,95,110.0
4650,F#2,2628.1,0.25,95,110.0
4651,G#2,2628.35,0.25,95,110.0
4652,F#2,2628.6,0.25,95,110.0
4653,D2,2628.6,0.25,95,110.0
4654,G#2,2628.85,0.25,95,110.0
4655,G#2,2629.1,0.25,95,110.0
4656,G#2,2629.35,0.25,95,110.0
4657,F#2,2629.6,0.25,95,110.0
4658,C2,2629.6,0.25,95,110.0
4659,G#2,2629.85,0.25,95,110.0
4660,F#2,2630.1,0.25,95,110.0
4661,G#2,2630.35,0.25,95,110.0
4662,F#2,2630.6,0.25,95,110.0
4663,D2,2630.6,0.25,95,110.0
4664,G#2,2630.85,0.25,95,110.0
4665,G#2,2631.1,0.25,95,110.0
4666,G#2,2631.35,0.25,95,110.0
4667,F#2,2631.6,0.25,95,110.0
4668,C2,2631.6,0.25,95,110.0
4669,G#2,2631.85,3/20,95,110.0
4670,G#2,2632.0,1/10,95,110.0
4671,F#2,2632.1,0.25,95,110.0
4672,D2,2632.1,0.25,95,110.0
4673,G#2,2632.35,0.25,95,110.0
4674,F#2,2632.6,0.25,95,110.0
4675,D2,2632.6,0.25,95,110.0
4676,G#2,2632.85,0.25,95,110.0
4677,G#2,2633.1,0.25,95,110.0
4678,G#2,2633.35,0.25,95,110.0
4679,F#2,2633.6,0.25,95,110.0
4680,C2,2633.6,0.25,95,110.0
4681,G#2,2633.85,0.25,95,110.0
4682,F#2,2634.1,0.25,95,110.0
4683,G#2,2634.35,0.25,95,110.0
4684,F#2,2634.6,0.25,95,110.0
4685,D2,2634.6,0.25,95,110.0
4686,G#2,2634.85,0.25,95,110.0
4687,G#2,2635.1,0.25,95,110.0
4688,G#2,2635.35,0.25,95,110.0
4689,F#2,2635.6,0.25,95,110.0
4690,C2,2635.6,0.25,95,110.0
4691,G#2,2635.85,3/20,95,110.0
4692,G#2,2636.0,1/10,95,110.0
4693,F#2,2636.1,0.25,95,110.0
4694,G#2,2636.35,0.25,95,110.0
4695,F#2,2636.6,0.25,95,110.0
4696,D2,2636.6,0.25,95,110.0
4697,G#2,2636.85,0.25,95,110.0
4698,G#2,2637.1,0.25,95,110.0
4699,G#2,2637.35,0.25,95,110.0
4700,F#2,2637.6,0.25,95,110.0
4701,C2,2637.6,0.25,95,110.0
4702,G#2,2637.85,0.25,95,110.0
4703,F#2,2638.1,0.25,95,110.0
4704,G#2,2638.35,0.25,95,110.0
4705,F#2,2638.6,0.25,95,110.0
4706,D2,2638.6,0.25,95,110.0
4707,G#2,2638.85,0.25,95,110.0
4708,G#2,2639.1,0.25,95,110.0
4709,G#2,2639.35,0.25,95,110.0
4710,F#2,2639.6,0.25,95,110.0
4711,C2,2639.6,0.25,95,110.0
4712,G#2,2639.85,3/20,95,110.0
4713,G#2,2640.0,1/10,95,110.0
4714,F#2,2640.1,0.25,95,110.0
4715,G#2,2640.35,0.25,95,110.0
4716,F#2,2640.6,0.25,95,110.0
4717,D2,2640.6,0.25,95,110.0
4718,G#2,2640.85,0.25,95,110.0
4719,G#2,2641.1,0.25,95,110.0
4720,G#2,2641.35,0.25,95,110.0
4721,F#2,2641.6,0.25,95,110.0
4722,C2,2641.6,0.25,95,110.0
4723,G3,2641.6,0.25,95,110.0
4724,E3,2641.6,0.25,95,110.0
4725,G#2,2641.85,0.25,95,110.0
4726,F#2,2642.1,0.25,95,110.0
4727,G#2,2642.35,0.25,95,110.0
4728,F#2,2642.6,0.25,95,110.0
4729,D2,2642.6,0.25,95,110.0
4730,G#2,2642.85,0.25,95,110.0
4731,G#2,2643.1,0.25,95,110.0
4732,G#2,2643.35,0.25,95,110.0
4733,F#2,2643.6,0.25,95,110.0
4734,C2,2643.6,0.25,95,110.0
4735,G#2,2643.85,3/20,95,110.0
4736,G#2,2644.0,1/10,95,110.0
4737,F#2,2644.1,0.25,95,110.0
4738,G#2,2644.35,0.25,95,110.0
4739,F#2,2644.6,0.25,95,110.0
4740,D2,2644.6,0.25,95,110.0
4741,G#2,2644.85,0.25,95,110.0
4742,G#2,2645.1,0.25,95,110.0
4743,G#2,2645.35,0.25,95,110.0
4744,F#2,2645.6,0.25,95,110.0
4745,C2,2645.6,0.25,95,110.0
4746,G#2,2645.85,0.25,95,110.0
4747,F#2,2646.1,0.25,95,110.0
4748,G#2,2646.35,0.25,95,110.0
4749,F#2,2646.6,0.25,95,110.0
4750,D2,2646.6,0.25,95,110.0
4751,G#2,2646.85,0.25,95,110.0
4752,G#2,2647.1,0.25,95,110.0
4753,G#2,2647.35,0.25,95,110.0
4754,F#2,2647.6,0.25,95,110.0
4755,C2,2647.6,0.25,95,110.0
4756,G#2,2647.85,3/20,95,110.0
4757,G#2,2648.0,1/10,95,110.0
4758,F#2,2648.1,0.25,95,110.0
4759,G#2,2648.35,0.25,95,110.0
4760,F#2,2648.6,0.25,95,110.0
4761,D2,2648.6,0.25,95,110.0
4762,G#2,2648.85,0.25,95,110.0
4763,G#2,2649.1,0.25,95,110.0
4764,G#2,2649.35,0.25,95,110.0
4765,F#2,2649.6,0.25,95,110.0
4766,C2,2649.6,0.25,95,110.0
4767,G#2,2649.85,0.25,95,110.0
4768,F#2,2650.1,0.25,95,110.0
4769,G#2,2650.35,0.25,95,110.0
4770,F#2,2650.6,0.25,95,110.0
4771,D2,2650.6,0.25,95,110.0
4772,G#2,2650.85,0.25,95,110.0
4773,G#2,2651.1,0.25,95,110.0
4774,G#2,2651.35,0.25,95,110.0
4775,F#2,2651.6,0.25,95,110.0
4776,G#2,2651.85,3/20,95,110.0
4777,D2,2651.85,3/20,95,110.0
4778,G#2,2652.1,1/10,95,110.0
4779,D2,2652.1,1/10,95,110.0
4780,F#2,2652.2,0.25,95,110.0
4781,G#2,2652.45,0.25,95,110.0
4782,F#2,2652.7,0.25,95,110.0
4783,D2,2652.7,0.25,95,110.0
4784,G#2,2652.95,0.25,95,110.0
4785,G#2,2653.2,0.25,95,110.0
4786,G#2,2653.45,0.25,95,110.0
4787,F#2,2653.7,0.25,95,110.0
4788,C2,2653.7,0.25,95,110.0
4789,G#2,2653.95,0.25,95,110.0
4790,F#2,2654.2,0.25,95,110.0
4791,G#2,2654.45,0.25,95,110.0
4792,F#2,2654.7,0.25,95,110.0
4793,D2,2654.7,0.25,95,110.0
4794,G#2,2654.95,0.25,95,110.0
4795,G#2,2655.2,0.25,95,110.0
4796,G#2,2655.45,0.25,95,110.0
4797,F#2,2655.7,0.25,95,110.0
4798,C2,2655.7,0.25,95,110.0
4799,G#2,2655.95,3/20,95,110.0
4800,G#2,2656.1,1/10,95,110.0
4801,F#2,2656.2,0.25,95,110.0
4802,D2,2656.2,0.25,95,110.0
4803,G#2,2656.45,0.25,95,110.0
4804,F#2,2656.7,0.25,95,110.0
4805,D2,2656.7,0.25,95,110.0
4806,G#2,2656.95,0.25,95,110.0
4807,G#2,2657.2,0.25,95,110.0
4808,G#2,2657.45,0.25,95,110.0
4809,F#2,2657.7,0.25,95,110.0
4810,C2,2657.7,0.25,95,110.0
4811,E3,2657.7,0.25,95,110.0
4812,G#2,2657.95,0.25,95,110.0
4813,F#2,2658.2,0.25,95,110.0
4814,G#2,2658.45,0.25,95,110.0
4815,C2,2658.45,0.25,95,110.0
4816,F#2,2658.7,0.25,95,110.0
4817,G#2,2658.95,0.25,95,110.0
4818,G#2,2659.2,0.25,95,110.0
4819,C2,2659.2,0.25,95,110.0
4820,G#2,2659.45,0.25,95,110.0
4821,F#2,2659.7,0.25,95,110.0
4822,G#2,2659.95,3/20,95,110.0
4823,G#2,2660.1,1/10,95,110.0
4824,F#2,2660.2,0.25,95,110.0
4825,G#2,2660.45,0.25,71,110.0
4826,C2,2660.45,0.25,71,110.0
4827,F#2,2660.7,0.25,95,110.0
4828,D2,2660.7,0.25,95,110.0
4829,G#2,2660.95,0.25,95,110.0
4830,G#2,2661.2,0.25,95,110.0
4831,G#2,2661.45,0.25,95,110.0
4832,F#2,2661.7,0.25,95,110.0
4833,C2,2661.7,0.25,95,110.0
4834,G#2,2661.95,0.25,95,110.0
4835,F#2,2662.2,0.25,95,110.0
4836,G#2,2662.45,0.25,95,110.0
4837,C2,2662.45,0.25,95,110.0
4838,F#2,2662.7,0.25,95,110.0
4839,G#2,2662.95,0.25,95,110.0
4840,G#2,2663.2,0.25,95,110.0
4841,C2,2663.2,0.25,95,110.0
4842,G#2,2663.45,0.25,95,110.0
4843,F#2,2663.7,0.25,95,110.0
4844,G#2,2663.95,3/20,95,110.0
4845,G#2,2664.1,1/10,95,110.0
4846,F#2,2664.2,0.25,95,110.0
4847,G#2,2664.45,0.25,71,110.0
4848,C2,2664.45,0.25,71,110.0
4849,F#2,2664.7,0.25,95,110.0
4850,D2,2664.7,0.25,95,110.0
4851,G#2,2664.95,0.25,95,110.0
4852,G#2,2665.2,0.25,95,110.0
4853,G#2,2665.45,0.25,95,110.0
4854,F#2,2665.7,0.25,95,110.0
4855,C2,2665.7,0.25,95,110.0
4856,G#2,2665.95,0.25,95,110.0
4857,F#2,2666.2,0.25,95,110.0
4858,G#2,2666.45,0.25,95,110.0
4859,C2,2666.45,0.25,95,110.0
4860,F#2,2666.7,0.25,95,110.0
4861,G#2,2666.95,0.25,95,110.0
4862,G#2,2667.2,0.25,95,110.0
4863,C2,2667.2,0.25,95,110.0
4864,G#2,2667.45,0.25,95,110.0
4865,F#2,2667.7,0.25,95,110.0
4866,G#2,2667.95,3/20,95,110.0
4867,G#2,2668.1,1/10,95,110.0
4868,F#2,2668.2,0.25,95,110.0
4869,G#2,2668.45,0.25,71,110.0
4870,C2,2668.45,0.25,71,110.0
4871,F#2,2668.7,0.25,95,110.0
4872,D2,2668.7,0.25,95,110.0
4873,G#2,2668.95,0.25,95,110.0
4874,G#2,2669.2,0.25,95,110.0
4875,G#2,2669.45,0.25,95,110.0
4876,F#2,2669.7,0.25,95,110.0
4877,C2,2669.7,0.25,95,110.0
4878,G#2,2669.95,0.25,95,110.0
4879,F#2,2670.2,0.25,95,110.0
4880,G#2,2670.45,0.25,95,110.0
4881,C2,2670.45,0.25,95,110.0
4882,F#2,2670.7,0.25,95,110.0
4883,G#2,2670.95,0.25,95,110.0
4884,G#2,2671.2,0.25,95,110.0
4885,C2,2671.2,0.25,95,110.0
4886,G#2,2671.45,0.25,95,110.0
4887,F#2,2671.7,0.25,95,110.0
4888,G#2,2671.95,3/20,95,110.0
4889,G#2,2672.1,1/10,95,110.0
4890,F#2,2672.2,0.25,95,110.0
4891,G#2,2672.45,0.25,71,110.0
4892,C2,2672.45,0.25,71,110.0
4893,F#2,2672.7,0.25,95,110.0
4894,D2,2672.7,0.25,95,110.0
4895,G#2,2672.95,0.25,95,110.0
4896,G#2,2673.2,0.25,95,110.0
4897,G#2,2673.45,0.25,95,110.0
4898,F#2,2673.7,0.25,95,110.0
4899,C2,2673.7,0.25,95,110.0
4900,G#2,2673.95,0.25,95,110.0
4901,F#2,2674.2,0.25,95,110.0
4902,G#2,2674.45,0.25,95,110.0
4903,C2,2674.45,0.25,95,110.0
4904,F#2,2674.7,0.25,95,110.0
4905,G#2,2674.95,0.25,95,110.0
4906,G#2,2675.2,0.25,95,110.0
4907,C2,2675.2,0.25,95,110.0
4908,G#2,2675.45,0.25,95,110.0
4909,F#2,2675.7,0.25,95,110.0
4910,G#2,2675.95,3/20,95,110.0
4911,G#2,2676.1,1/10,95,110.0
4912,F#2,2676.2,0.25,95,110.0
4913,G#2,2676.45,0.25,71,110.0
4914,C2,2676.45,0.25,71,110.0
4915,F#2,2676.7,0.25,95,110.0
4916,D2,2676.7,0.25,95,110.0
4917,G#2,2676.95,0.25,95,110.0
4918,G#2,2677.2,0.25,95,110.0
4919,G#2,2677.45,0.25,95,110.0
4920,F#2,2677.7,0.25,95,110.0
4921,C2,2677.7,0.25,95,110.0
4922,G#2,2677.95,0.25,95,110.0
4923,F#2,2678.2,0.25,95,110.0
4924,G#2,2678.45,0.25,95,110.0
4925,C2,2678.45,0.25,95,110.0
4926,F#2,2678.7,0.25,95,110.0
4927,G#2,2678.95,0.25,95,110.0
4928,G#2,2679.2,0.25,95,110.0
4929,C2,2679.2,0.25,95,110.0
4930,G#2,2679.45,0.25,95,110.0
4931,F#2,2679.7,0.25,95,110.0
4932,G#2,2679.95,3/20,95,110.0
4933,G#2,2680.1,1/10,95,110.0
4934,F#2,2680.2,0.25,95,110.0
4935,G#2,2680.45,0.25,71,110.0
4936,C2,2680.45,0.25,71,110.0
4937,F#2,2680.7,0.25,95,110.0
4938,D2,2680.7,0.25,95,110.0
4939,G#2,2680.95,0.25,95,110.0
4940,G#2,2681.2,0.25,95,110.0
4941,G#2,2681.45,0.25,95,110.0
4942,F#2,2681.7,0.25,95,110.0
4943,C2,2681.7,0.25,95,110.0
4944,G#2,2681.95,0.25,95,110.0
4945,F#2,2682.2,0.25,95,110.0
4946,G#2,2682.45,0.25,95,110.0
4947,C2,2682.45,0.25,95,110.0
4948,F#2,2682.7,0.25,95,110.0
4949,G#2,2682.95,0.25,95,110.0
4950,G#2,2683.2,0.25,95,110.0
4951,C2,2683.2,0.25,95,110.0
4952,G#2,2683.45,0.25,95,110.0
4953,F#2,2683.7,0.25,95,110.0
4954,G#2,2683.95,3/20,95,110.0
4955,G#2,2684.1,1/10,95,110.0
4956,F#2,2684.2,0.25,95,110.0
4957,G#2,2684.45,0.25,71,110.0
4958,C2,2684.45,0.25,71,110.0
4959,F#2,2684.7,0.25,95,110.0
4960,D2,2684.7,0.25,95,110.0
4961,G#2,2684.95,0.25,95,110.0
4962,G#2,2685.2,0.25,95,110.0
4963,G#2,2685.45,0.25,95,110.0
4964,F#2,2685.7,0.25,95,110.0
4965,C2,2685.7,0.25,95,110.0
4966,G#2,2685.95,0.25,95,110.0
4967,F#2,2686.2,0.25,95,110.0
4968,G#2,2686.45,0.25,95,110.0
4969,C2,2686.45,0.25,95,110.0
4970,F#2,2686.7,0.25,95,110.0
4971,G#2,2686.95,0.25,95,110.0
4972,G#2,2687.2,0.25,95,110.0
4973,C2,2687.2,0.25,95,110.0
4974,G#2,2687.45,0.25,95,110.0
4975,F#2,2687.7,0.25,95,110.0
4976,G#2,2687.95,3/20,95,110.0
4977,G#2,2688.1,1/10,95,110.0
4978,F#2,2688.2,0.25,95,110.0
4979,G#2,2688.45,0.25,71,110.0
4980,C2,2688.45,0.25,71,110.0
4981,F#2,2688.7,0.25,95,110.0
4982,D2,2688.7,0.25,95,110.0
4983,G#2,2688.95,0.25,95,110.0
4984,G#2,2689.2,0.25,95,110.0
4985,G#2,2689.45,0.25,95,110.0
4986,F#2,2689.7,0.25,95,110.0
4987,C2,2689.7,0.25,95,110.0
4988,G#2,2689.95,0.25,95,110.0
4989,F#2,2690.2,0.25,95,110.0
4990,G#2,2690.45,0.25,95,110.0
4991,C2,2690.45,0.25,95,110.0
4992,F#2,2690.7,0.25,95,110.0
4993,G#2,2690.95,0.25,95,110.0
4994,G#2,2691.2,0.25,95,110.0
4995,C2,2691.2,0.25,95,110.0
4996,G#2,2691.45,0.25,95,110.0
4997,F#2,2691.7,0.25,95,110.0
4998,G#2,2691.95,3/20,95,110.0
4999,G#2,2692.1,1/10,95,110.0
5000,F#2,2692.2,0.25,95,110.0
5001,G#2,2692.45,0.25,71,110.0
5002,C2,2692.45,0.25,71,110.0
5003,F#2,2692.7,0.25,95,110.0
5004,D2,2692.7,0.25,95,110.0
5005,G#2,2692.95,0.25,95,110.0
5006,G#2,2693.2,0.25,95,110.0
5007,G#2,2693.45,0.25,95,110.0
5008,F#2,2693.7,0.25,95,110.0
5009,C2,2693.7,0.25,95,110.0
5010,G#2,2693.95,0.25,95,110.0
5011,F#2,2694.2,0.25,95,110.0
5012,G#2,2694.45,0.25,95,110.0
5013,C2,2694.45,0.25,95,110.0
5014,F#2,2694.7,0.25,95,110.0
5015,G#2,2694.95,0.25,95,110.0
5016,G#2,2695.2,0.25,95,110.0
5017,C2,2695.2,0.25,95,110.0
5018,G#2,2695.45,0.25,95,110.0
5019,F#2,2695.7,0.25,95,110.0
5020,G#2,2695.95,3/20,95,110.0
5021,G#2,2696.1,1/10,95,110.0
5022,F#2,2696.2,0.25,95,110.0
5023,G#2,2696.45,0.25,95,110.0
5024,F#2,2696.7,0.25,95,110.0
5025,F#3,2696.7,0.25,95,110.0
5026,G#2,2696.95,0.25,95,110.0
5027,G#2,2697.2,0.25,95,110.0
5028,G#2,2697.45,0.25,95,110.0
5029,F#2,2697.7,0.25,95,110.0
5030,C2,2697.7,0.25,95,110.0
5031,G#2,2697.95,0.25,95,110.0
5032,F#2,2698.2,0.25,95,110.0
5033,G#2,2698.45,0.25,95,110.0
5034,C2,2698.45,0.25,95,110.0
5035,F#2,2698.7,0.25,95,110.0
5036,G#2,2698.95,0.25,95,110.0
5037,G#2,2699.2,0.25,95,110.0
5038,C2,2699.2,0.25,95,110.0
5039,G#2,2699.45,0.25,95,110.0
5040,F#2,2699.7,0.25,95,110.0
5041,G#2,2699.95,3/20,95,110.0
5042,G#2,2700.1,1/10,95,110.0
5043,F#2,2700.2,0.25,95,110.0
5044,G#2,2700.45,0.25,71,110.0
5045,C2,2700.45,0.25,71,110.0
5046,F#2,2700.7,0.25,95,110.0
5047,D2,2700.7,0.25,95,110.0
5048,G#2,2700.95,0.25,95,110.0
5049,G#2,2701.2,0.25,95,110.0
5050,G#2,2701.45,0.25,95,110.0
5051,F#2,2701.7,0.25,95,110.0
5052,C2,2701.7,0.25,95,110.0
5053,G#2,2701.95,0.25,95,110.0
5054,F#2,2702.2,0.25,95,110.0
5055,G#2,2702.45,0.25,95,110.0
5056,C2,2702.45,0.25,95,110.0
5057,F#2,2702.7,0.25,95,110.0
5058,G#2,2702.95,0.25,95,110.0
5059,G#2,2703.2,0.25,95,110.0
5060,C2,2703.2,0.25,95,110.0
5061,G#2,2703.45,0.25,95,110.0
5062,F#2,2703.7,0.25,95,110.0
5063,G#2,2703.95,3/20,95,110.0
5064,G#2,2704.1,1/10,95,110.0
5065,F#2,2704.2,0.25,95,110.0
5066,G#2,2704.45,0.25,95,110.0
5067,F#2,2704.7,0.25,95,110.0
5068,C2,2704.7,0.25,95,110.0
5069,G#2,2704.95,0.25,95,110.0
5070,G#2,2705.2,0.25,95,110.0
5071,G#2,2705.45,0.25,95,110.0
5072,F#2,2705.7,0.25,95,110.0
5073,C2,2705.7,0.25,95,110.0
5074,E3,2705.7,0.25,95,110.0
5075,G#2,2705.95,0.25,95,110.0
5076,F#2,2706.2,0.25,95,110.0
5077,G#2,2706.45,0.25,95,110.0
5078,C2,2706.45,0.25,95,110.0
5079,F#2,2706.7,0.25,95,110.0
5080,G#2,2706.95,0.25,95,110.0
5081,G#2,2707.2,0.25,95,110.0
5082,C2,2707.2,0.25,95,110.0
5083,G#2,2707.45,0.25,95,110.0
5084,F#2,2707.7,0.25,95,110.0
5085,G#2,2707.95,3/20,95,110.0
5086,G#2,2708.1,1/10,95,110.0
5087,F#2,2708.2,0.25,95,110.0
5088,G#2,2708.45,0.25,71,110.0
5089,C2,2708.45,0.25,71,110.0
5090,F#2,2708.7,0.25,95,110.0
5091,D2,2708.7,0.25,95,110.0
5092,G#2,2708.95,0.25,95,110.0
5093,G#2,2709.2,0.25,95,110.0
5094,G#2,2709.45,0.25,95,110.0
5095,F#2,2709.7,0.25,95,110.0
5096,C2,2709.7,0.25,95,110.0
5097,G#2,2709.95,0.25,95,110.0
5098,F#2,2710.2,0.25,95,110.0
5099,G#2,2710.45,0.25,95,110.0
5100,C2,2710.45,0.25,95,110.0
5101,F#2,2710.7,0.25,95,110.0
5102,G#2,2710.95,0.25,95,110.0
5103,G#2,2711.2,0.25,95,110.0
5104,C2,2711.2,0.25,95,110.0
5105,G#2,2711.45,0.25,95,110.0
5106,F#2,2711.7,0.25,95,110.0
5107,G#2,2711.95,3/20,95,110.0
5108,G#2,2712.1,1/10,95,110.0
5109,F#2,2712.2,0.25,95,110.0
5110,G#2,2712.45,0.25,71,110.0
5111,C2,2712.45,0.25,71,110.0
5112,F#2,2712.7,0.25,95,110.0
5113,D2,2712.7,0.25,95,110.0
5114,G#2,2712.95,0.25,95,110.0
5115,G#2,2713.2,0.25,95,110.0
5116,G#2,2713.45,0.25,95,110.0
5117,F#2,2713.7,0.25,95,110.0
5118,C2,2713.7,0.25,95,110.0
5119,G#2,2713.95,0.25,95,110.0
5120,F#2,2714.2,0.25,95,110.0
5121,G#2,2714.45,0.25,95,110.0
5122,C2,2714.45,0.25,95,110.0
5123,F#2,2714.7,0.25,95,110.0
5124,G#2,2714.95,0.25,95,110.0
5125,G#2,2715.2,0.25,95,110.0
5126,C2,2715.2,0.25,95,110.0
5127,G#2,2715.45,0.25,95,110.0
5128,F#2,2715.7,0.25,95,110.0
5129,G#2,2715.95,3/20,95,110.0
5130,G#2,2716.1,1/10,95,110.0
5131,F#2,2716.2,0.25,95,110.0
5132,G#2,2716.45,0.25,71,110.0
5133,C2,2716.45,0.25,71,110.0
5134,F#2,2716.7,0.25,95,110.0
5135,D2,2716.7,0.25,95,110.0
5136,G#2,2716.95,0.25,95,110.0
5137,G#2,2717.2,0.25,95,110.0
5138,G#2,2717.45,0.25,95,110.0
5139,F#2,2717.7,0.25,95,110.0
5140,C2,2717.7,0.25,95,110.0
5141,G#2,2717.95,0.25,95,110.0
5142,F#2,2718.2,0.25,95,110.0
5143,G#2,2718.45,0.25,95,110.0
5144,C2,2718.45,0.25,95,110.0
5145,F#2,2718.7,0.25,95,110.0
5146,G#2,2718.95,0.25,95,110.0
5147,G#2,2719.2,0.25,95,110.0
5148,C2,2719.2,0.25,95,110.0
5149,G#2,2719.45,0.25,95,110.0
5150,F#2,2719.7,0.25,95,110.0
5151,G#2,2719.95,3/20,95,110.0
5152,G#2,2720.1,1/10,95,110.0
5153,F#2,2720.2,0.25,95,110.0
5154,G#2,2720.45,0.25,71,110.0
5155,C2,2720.45,0.25,71,110.0
5156,F#2,2720.7,0.25,95,110.0
5157,D2,2720.7,0.25,95,110.0
5158,G#2,2720.95,0.25,95,110.0
5159,G#2,2721.2,0.25,95,110.0
5160,G#2,2721.45,0.25,95,110.0
5161,F#2,2721.7,0.25,95,110.0
5162,C2,2721.7,0.25,95,110.0
5163,G#2,2721.95,0.25,95,110.0
5164,F#2,2722.2,0.25,95,110.0
5165,G#2,2722.45,0.25,95,110.0
5166,C2,2722.45,0.25,95,110.0
5167,F#2,2722.7,0.25,95,110.0
5168,G#2,2722.95,0.25,95,110.0
5169,G#2,2723.2,0.25,95,110.0
5170,C2,2723.2,0.25,95,110.0
5171,G#2,2723.45,0.25,95,110.0
5172,F#2,2723.7,0.25,95,110.0
5173,G#2,2723.95,3/20,95,110.0
5174,G#2,2724.1,1/10,95,110.0
5175,F#2,2724.2,0.25,95,110.0
5176,G#2,2724.45,0.25,71,110.0
5177,C2,2724.45,0.25,71,110.0
5178,F#2,2724.7,0.25,95,110.0
5179,D2,2724.7,0.25,95,110.0
5180,G#2,2724.95,0.25,95,110.0
5181,G#2,2725.2,0.25,95,110.0
5182,G#2,2725.45,0.25,95,110.0
5183,F#2,2725.7,0.25,95,110.0
5184,C2,2725.7,0.25,95,110.0
5185,G#2,2725.95,0.25,95,110.0
5186,F#2,2726.2,0.25,95,110.0
5187,G#2,2726.45,0.25,95,110.0
5188,C2,2726.45,0.25,95,110.0
5189,F#2,2726.7,0.25,95,110.0
5190,G#2,2726.95,0.25,95,110.0
5191,G#2,2727.2,0.25,95,110.0
5192,C2,2727.2,0.25,95,110.0
5193,G#2,2727.45,0.25,95,110.0
5194,F#2,2727.7,0.25,95,110.0
5195,G#2,2727.95,3/20,95,110.0
5196,G#2,2728.1,1/10,95,110.0
5197,F#2,2728.2,0.25,95,110.0
5198,G#2,2728.45,0.25,71,110.0
5199,C2,2728.45,0.25,71,110.0
5200,F#2,2728.7,0.25,95,110.0
5201,D2,2728.7,0.25,95,110.0
5202,G#2,2728.95,0.25,95,110.0
5203,G#2,2729.2,0.25,95,110.0
5204,G#2,2729.45,0.25,95,110.0
5205,F#2,2729.7,0.25,95,110.0
5206,C2,2729.7,0.25,95,110.0
5207,G#2,2729.95,0.25,95,110.0
5208,F#2,2730.2,0.25,95,110.0
5209,G#2,2730.45,0.25,95,110.0
5210,C2,2730.45,0.25,95,110.0
5211,F#2,2730.7,0.25,95,110.0
5212,G#2,2730.95,0.25,95,110.0
5213,G#2,2731.2,0.25,95,110.0
5214,C2,2731.2,0.25,95,110.0
5215,G#2,2731.45,0.25,95,110.0
5216,F#2,2731.7,0.25,95,110.0
5217,G#2,2731.95,3/20,95,110.0
5218,G#2,2732.1,1/10,95,110.0
5219,F#2,2732.2,0.25,95,110.0
5220,G#2,2732.45,0.25,71,110.0
5221,C2,2732.45,0.25,71,110.0
5222,F#2,2732.7,0.25,95,110.0
5223,D2,2732.7,0.25,95,110.0
5224,G#2,2732.95,0.25,95,110.0
5225,G#2,2733.2,0.25,95,110.0
5226,G#2,2733.45,0.25,95,110.0
5227,F#2,2733.7,0.25,95,110.0
5228,C2,2733.7,0.25,95,110.0
5229,G#2,2733.95,0.25,95,110.0
5230,F#2,2734.2,0.25,95,110.0
5231,B2,2734.2,0.25,95,110.0
5232,G#2,2734.45,0.25,95,110.0
5233,F#2,2734.7,0.25,95,110.0
5234,G#2,2734.95,0.25,95,110.0
5235,G#2,2735.2,0.25,95,110.0
5236,C3,2735.2,0.25,95,110.0
5237,G#2,2735.45,0.25,95,110.0
5238,F#2,2735.7,0.25,95,110.0
5239,G#2,2735.95,3/20,95,110.0
5240,G#2,2736.1,1/10,95,110.0
5241,F#2,2736.2,0.25,95,110.0
5242,D2,2736.2,0.25,95,110.0
5243,G#2,2736.45,0.25,95,110.0
5244,F#2,2736.7,0.25,95,110.0
5245,D2,2736.7,0.25,95,110.0
5246,G#2,2736.95,0.25,95,110.0
5247,G#2,2737.2,0.25,95,110.0
5248,B2,2737.2,0.25,95,110.0
5249,G#2,2737.45,0.25,95,110.0
5250,F#2,2737.7,0.25,95,110.0
5251,C2,2737.7,0.25,95,110.0
5252,C#3,2737.7,0.25,95,110.0
5253,E3,2737.7,0.25,95,110.0
5254,G#2,2737.95,0.25,95,110.0
5255,F#2,2738.2,0.25,95,110.0
5256,G#2,2738.45,0.25,95,110.0
5257,F#2,2738.7,0.25,95,110.0
5258,D2,2738.7,0.25,95,110.0
5259,G#2,2738.95,0.25,95,110.0
5260,G#2,2739.2,0.25,95,110.0
5261,G#2,2739.45,0.25,95,110.0
5262,F#2,2739.7,0.25,95,110.0
5263,C2,2739.7,0.25,95,110.0
5264,G#2,2739.95,3/20,95,110.0
5265,G#2,2740.1,1/10,95,110.0
5266,F#2,2740.2,0.25,95,110.0
5267,G#2,2740.45,0.25,95,110.0
5268,F#2,2740.7,0.25,95,110.0
5269,D2,2740.7,0.25,95,110.0
5270,G#2,2740.95,0.25,95,110.0
5271,G#2,2741.2,0.25,95,110.0
5272,G#2,2741.45,0.25,95,110.0
5273,F#2,2741.7,0.25,95,110.0
5274,C2,2741.7,0.25,95,110.0
5275,G#2,2741.95,0.25,95,110.0
5276,F#2,2742.2,0.25,95,110.0
5277,G#2,2742.45,0.25,95,110.0
5278,F#2,2742.7,0.25,95,110.0
5279,D2,2742.7,0.25,95,110.0
5280,G#2,2742.95,0.25,95,110.0
5281,G#2,2743.2,0.25,95,110.0
5282,G#2,2743.45,0.25,95,110.0
5283,F#2,2743.7,0.25,95,110.0
5284,C2,2743.7,0.25,95,110.0
5285,G#2,2743.95,3/20,95,110.0
5286,G#2,2744.1,1/10,95,110.0
5287,F#2,2744.2,0.25,95,110.0
5288,D2,2744.2,0.25,95,110.0
5289,G#2,2744.45,0.25,95,110.0
5290,F#2,2744.7,0.25,95,110.0
5291,D2,2744.7,0.25,95,110.0
5292,G#2,2744.95,0.25,95,110.0
5293,G#2,2745.2,0.25,95,110.0
5294,G#2,2745.45,0.25,95,110.0
5295,F#2,2745.7,0.25,95,110.0
5296,C2,2745.7,0.25,95,110.0
5297,G#2,2745.95,0.25,95,110.0
5298,F#2,2746.2,0.25,95,110.0
5299,G#2,2746.45,0.25,95,110.0
5300,F#2,2746.7,0.25,95,110.0
5301,D2,2746.7,0.25,95,110.0
5302,G#2,2746.95,0.25,95,110.0
5303,G#2,2747.2,0.25,95,110.0
5304,G#2,2747.45,0.25,95,110.0
5305,F#2,2747.7,0.25,95,110.0
5306,C2,2747.7,0.25,95,110.0
5307,G#2,2747.95,3/20,95,110.0
5308,G#2,2748.1,1/10,95,110.0
5309,F#2,2748.2,0.25,95,110.0
5310,G#2,2748.45,0.25,95,110.0
5311,F#2,2748.7,0.25,95,110.0
5312,D2,2748.7,0.25,95,110.0
5313,G#2,2748.95,0.25,95,110.0
5314,G#2,2749.2,0.25,95,110.0
5315,G#2,2749.45,0.25,95,110.0
5316,F#2,2749.7,0.25,95,110.0
5317,C2,2749.7,0.25,95,110.0
5318,G#2,2749.95,0.25,95,110.0
5319,F#2,2750.2,0.25,95,110.0
5320,G#2,2750.45,0.25,95,110.0
5321,F#2,2750.7,0.25,95,110.0
5322,D2,2750.7,0.25,95,110.0
5323,G#2,2750.95,0.25,95,110.0
5324,G#2,2751.2,0.25,95,110.0
5325,G#2,2751.45,0.25,95,110.0
5326,F#2,2751.7,0.25,95,110.0
5327,C2,2751.7,0.25,95,110.0
5328,G#2,2751.95,3/20,95,110.0
5329,G#2,2752.1,1/10,95,110.0
5330,F#2,2752.2,0.25,95,110.0
5331,G#2,2752.45,0.25,95,110.0
5332,F#2,2752.7,0.25,95,110.0
5333,D2,2752.7,0.25,95,110.0
5334,G#2,2752.95,0.25,95,110.0
5335,G#2,2753.2,0.25,95,110.0
5336,G#2,2753.45,0.25,95,110.0
5337,F#2,2753.7,0.25,95,110.0
5338,C2,2753.7,0.25,95,110.0
5339,G3,2753.7,0.25,95,110.0
5340,E3,2753.7,0.25,95,110.0
5341,G#2,2753.95,0.25,95,110.0
5342,F#2,2754.2,0.25,95,110.0
5343,G#2,2754.45,0.25,95,110.0
5344,F#2,2754.7,0.25,95,110.0
5345,D2,2754.7,0.25,95,110.0
5346,G#2,2754.95,0.25,95,110.0
5347,G#2,2755.2,0.25,95,110.0
5348,G#2,2755.45,0.25,95,110.0
5349,F#2,2755.7,0.25,95,110.0
5350,C2,2755.7,0.25,95,110.0
5351,G#2,2755.95,3/20,95,110.0
5352,G#2,2756.1,1/10,95,110.0
5353,F#2,2756.2,0.25,95,110.0
5354,G#2,2756.45,0.25,95,110.0
5355,F#2,2756.7,0.25,95,110.0
5356,D2,2756.7,0.25,95,110.0
5357,G#2,2756.95,0.25,95,110.0
5358,G#2,2757.2,0.25,95,110.0
5359,G#2,2757.45,0.25,95,110.0
5360,F#2,2757.7,0.25,95,110.0
5361,C2,2757.7,0.25,95,110.0
5362,G#2,2757.95,0.25,95,110.0
5363,F#2,2758.2,0.25,95,110.0
5364,G#2,2758.45,0.25,95,110.0
5365,F#2,2758.7,0.25,95,110.0
5366,D2,2758.7,0.25,95,110.0
5367,G#2,2758.95,0.25,95,110.0
5368,G#2,2759.2,0.25,95,110.0
5369,G#2,2759.45,0.25,95,110.0
5370,F#2,2759.7,0.25,95,110.0
5371,C2,2759.7,0.25,95,110.0
5372,G#2,2759.95,3/20,95,110.0
5373,G#2,2760.1,1/10,95,110.0
5374,F#2,2760.2,0.25,95,110.0
5375,G#2,2760.45,0.25,95,110.0
5376,F#2,2760.7,0.25,95,110.0
5377,D2,2760.7,0.25,95,110.0
5378,G#2,2760.95,0.25,95,110.0
5379,G#2,2761.2,0.25,95,110.0
5380,G#2,2761.45,0.25,95,110.0
5381,F#2,2761.7,0.25,95,110.0
5382,C2,2761.7,0.25,95,110.0
5383,G#2,2761.95,0.25,95,110.0
5384,F#2,2762.2,0.25,95,110.0
5385,G#2,2762.45,0.25,95,110.0
5386,F#2,2762.7,0.25,95,110.0
5387,D2,2762.7,0.25,95,110.0
5388,G#2,2762.95,0.25,95,110.0
5389,G#2,2763.2,0.25,95,110.0
5390,G#2,2763.45,0.25,95,110.0
5391,F#2,2763.7,0.25,95,110.0
5392,G#2,2763.95,3/20,95,110.0
5393,D2,2763.95,3/20,95,110.0
5394,G#2,2764.2,1/10,95,110.0
5395,D2,2764.2,1/10,95,110.0
5396,F#2,2764.3,0.25,95,110.0
5397,G#2,2764.55,0.25,95,110.0
5398,F#2,2764.8,0.25,95,110.0
5399,D2,2764.8,0.25,95,110.0
5400,G#2,2765.05,0.25,95,110.0
5401,G#2,2765.3,0.25,95,110.0
5402,G#2,2765.55,0.25,95,110.0
5403,F#2,2765.8,0.25,95,110.0
5404,C2,2765.8,0.25,95,110.0
5405,G#2,2766.05,0.25,95,110.0
5406,F#2,2766.3,0.25,95,110.0
5407,G#2,2766.55,0.25,95,110.0
5408,F#2,2766.8,0.25,95,110.0
5409,D2,2766.8,0.25,95,110.0
5410,G#2,2767.05,0.25,95,110.0
5411,G#2,2767.3,0.25,95,110.0
5412,G#2,2767.55,0.25,95,110.0
5413,F#2,2767.8,0.25,95,110.0
5414,C2,2767.8,0.25,95,110.0
5415,G#2,2768.05,3/20,95,110.0
5416,G#2,2768.2,1/10,95,110.0
5417,F#2,2768.3,0.25,95,110.0
5418,D2,2768.3,0.25,95,110.0
5419,G#2,2768.55,0.25,95,110.0
5420,F#2,2768.8,0.25,95,110.0
5421,D2,2768.8,0.25,95,110.0
5422,G#2,2769.05,0.25,95,110.0
5423,G#2,2769.3,0.25,95,110.0
5424,G#2,2769.55,0.25,95,110.0
5425,F#2,2769.8,0.25,95,110.0
5426,C2,2769.8,0.25,95,110.0
5427,C#3,2769.8,0.25,95,110.0
5428,G#2,2770.05,0.25,95,110.0
5429,F#2,2770.3,0.25,95,110.0
5430,G#2,2770.55,0.25,95,110.0
5431,F#2,2770.8,0.25,95,110.0
5432,D2,2770.8,0.25,95,110.0
5433,G#2,2771.05,0.25,95,110.0
5434,G#2,2771.3,0.25,95,110.0
5435,G#2,2771.55,0.25,95,110.0
5436,F#2,2771.8,0.25,95,110.0
5437,C2,2771.8,0.25,95,110.0
5438,G#2,2772.05,3/20,95,110.0
5439,G#2,2772.2,1/10,95,110.0
5440,F#2,2772.3,0.25,95,110.0
5441,G#2,2772.55,0.25,95,110.0
5442,F#2,2772.8,0.25,95,110.0
5443,D2,2772.8,0.25,95,110.0
5444,G#2,2773.05,0.25,95,110.0
5445,G#2,2773.3,0.25,95,110.0
5446,G#2,2773.55,0.25,95,110.0
5447,F#2,2773.8,0.25,95,110.0
5448,C2,2773.8,0.25,95,110.0
5449,G#2,2774.05,0.25,95,110.0
5450,F#2,2774.3,0.25,95,110.0
5451,G#2,2774.55,0.25,95,110.0
5452,F#2,2774.8,0.25,95,110.0
5453,D2,2774.8,0.25,95,110.0
5454,G#2,2775.05,0.25,95,110.0
5455,G#2,2775.3,0.25,95,110.0
5456,G#2,2775.55,0.25,95,110.0
5457,F#2,2775.8,0.25,95,110.0
5458,C2,2775.8,0.25,95,110.0
5459,G#2,2776.05,3/20,95,110.0
5460,G#2,2776.2,1/10,95,110.0
5461,F#2,2776.3,0.25,95,110.0
5462,D2,2776.3,0.25,95,110.0
5463,G#2,2776.55,0.25,95,110.0
5464,F#2,2776.8,0.25,95,110.0
5465,D2,2776.8,0.25,95,110.0
5466,G#2,2777.05,0.25,95,110.0
5467,G#2,2777.3,0.25,95,110.0
5468,G#2,2777.55,0.25,95,110.0
5469,F#2,2777.8,0.25,95,110.0
5470,C2,2777.8,0.25,95,110.0
5471,G#2,2778.05,0.25,95,110.0
5472,F#2,2778.3,0.25,95,110.0
5473,G#2,2778.55,0.25,95,110.0
5474,F#2,2778.8,0.25,95,110.0
5475,D2,2778.8,0.25,95,110.0
5476,G#2,2779.05,0.25,95,110.0
5477,G#2,2779.3,0.25,95,110.0
5478,G#2,2779.55,0.25,95,110.0
5479,F#2,2779.8,0.25,95,110.0
5480,C2,2779.8,0.25,95,110.0
5481,G#2,2780.05,3/20,95,110.0
5482,G#2,2780.2,1/10,95,110.0
5483,F#2,2780.3,0.25,95,110.0
5484,G#2,2780.55,0.25,95,110.0
5485,F#2,2780.8,0.25,95,110.0
5486,D2,2780.8,0.25,95,110.0
5487,G#2,2781.05,0.25,95,110.0
5488,G#2,2781.3,0.25,95,110.0
5489,G#2,2781.55,0.25,95,110.0
5490,F#2,2781.8,0.25,95,110.0
5491,C2,2781.8,0.25,95,110.0
5492,G#2,2782.05,0.25,95,110.0
5493,F#2,2782.3,0.25,95,110.0
5494,G#2,2782.55,0.25,95,110.0
5495,F#2,2782.8,0.25,95,110.0
5496,D2,2782.8,0.25,95,110.0
5497,G#2,2783.05,0.25,95,110.0
5498,G#2,2783.3,0.25,95,110.0
5499,G#2,2783.55,0.25,95,110.0
5500,F#2,2783.8,0.25,95,110.0
5501,C2,2783.8,0.25,95,110.0
5502,G#2,2784.05,3/20,95,110.0
5503,G#2,2784.2,1/10,95,110.0
5504,F#2,2784.3,0.25,95,110.0
5505,G#2,2784.55,0.25,95,110.0
5506,F#2,2784.8,0.25,95,110.0
5507,D2,2784.8,0.25,95,110.0
5508,G#2,2785.05,0.25,95,110.0
5509,G#2,2785.3,0.25,95,110.0
5510,G#2,2785.55,0.25,95,110.0
5511,F#2,2785.8,0.25,95,110.0
5512,C2,2785.8,0.25,95,110.0
5513,G3,2785.8,0.25,95,110.0
5514,E3,2785.8,0.25,95,110.0
5515,G#2,2786.05,0.25,95,110.0
5516,F#2,2786.3,0.25,95,110.0
5517,G#2,2786.55,0.25,95,110.0
5518,F#2,2786.8,0.25,95,110.0
5519,D2,2786.8,0.25,95,110.0
5520,G#2,2787.05,0.25,95,110.0
5521,G#2,2787.3,0.25,95,110.0
5522,G#2,2787.55,0.25,95,110.0
5523,F#2,2787.8,0.25,95,110.0
5524,C2,2787.8,0.25,95,110.0
5525,G#2,2788.05,3/20,95,110.0
5526,G#2,2788.2,1/10,95,110.0
5527,F#2,2788.3,0.25,95,110.0
5528,G#2,2788.55,0.25,95,110.0
5529,F#2,2788.8,0.25,95,110.0
5530,D2,2788.8,0.25,95,110.0
5531,G#2,2789.05,0.25,95,110.0
5532,G#2,2789.3,0.25,95,110.0
5533,G#2,2789.55,0.25,95,110.0
5534,F#2,2789.8,0.25,95,110.0
5535,C2,2789.8,0.25,95,110.0
5536,G#2,2790.05,0.25,95,110.0
5537,F#2,2790.3,0.25,95,110.0
5538,G#2,2790.55,0.25,95,110.0
5539,F#2,2790.8,0.25,95,110.0
5540,D2,2790.8,0.25,95,110.0
5541,G#2,2791.05,0.25,95,110.0
5542,G#2,2791.3,0.25,95,110.0
5543,G#2,2791.55,0.25,95,110.0
5544,F#2,2791.8,0.25,95,110.0
5545,C2,2791.8,0.25,95,110.0
5546,G#2,2792.05,3/20,95,110.0
5547,G#2,2792.2,1/10,95,110.0
5548,F#2,2792.3,0.25,95,110.0
5549,G#2,2792.55,0.25,95,110.0
5550,F#2,2792.8,0.25,95,110.0
5551,D2,2792.8,0.25,95,110.0
5552,G#2,2793.05,0.25,95,110.0
5553,G#2,2793.3,0.25,95,110.0
5554,G#2,2793.55,0.25,95,110.0
5555,F#2,2793.8,0.25,95,110.0
5556,C2,2793.8,0.25,95,110.0
5557,G#2,2794.05,0.25,95,110.0
5558,F#2,2794.3,0.25,95,110.0
5559,G#2,2794.55,0.25,95,110.0
5560,F#2,2794.8,0.25,95,110.0
5561,D2,2794.8,0.25,95,110.0
5562,G#2,2795.05,0.25,95,110.0
5563,G#2,2795.3,0.25,95,110.0
5564,G#2,2795.55,0.25,95,110.0
5565,F#2,2795.8,0.25,95,110.0
5566,G#2,2796.05,3/20,95,110.0
5567,D2,2796.05,3/20,95,110.0
5568,G#2,2796.3,1/10,95,110.0
5569,D2,2796.3,1/10,95,110.0
5570,F#2,2796.4,0.25,95,110.0
5571,G#2,2796.65,0.25,95,110.0
5572,F#2,2796.9,0.25,95,110.0
5573,D2,2796.9,0.25,95,110.0
5574,G#2,2797.15,0.25,95,110.0
5575,G#2,2797.4,0.25,95,110.0
5576,G#2,2797.65,0.25,95,110.0
5577,F#2,2797.9,0.25,95,110.0
5578,C2,2797.9,0.25,95,110.0
5579,G#2,2798.15,0.25,95,110.0
5580,F#2,2798.4,0.25,95,110.0
5581,G#2,2798.65,0.25,95,110.0
5582,F#2,2798.9,0.25,95,110.0
5583,D2,2798.9,0.25,95,110.0
5584,G#2,2799.15,0.25,95,110.0
5585,G#2,2799.4,0.25,95,110.0
5586,G#2,2799.65,0.25,95,110.0
5587,F#2,2799.9,0.25,95,110.0
5588,C2,2799.9,0.25,95,110.0
5589,G#2,2800.15,3/20,95,110.0
5590,G#2,2800.3,1/10,95,110.0
5591,F#2,2800.4,0.25,95,110.0
5592,D2,2800.4,0.25,95,110.0
5593,G#2,2800.65,0.25,95,110.0
5594,F#2,2800.9,0.25,95,110.0
5595,D2,2800.9,0.25,95,110.0
5596,G#2,2801.15,0.25,95,110.0
5597,G#2,2801.4,0.25,95,110.0
5598,G#2,2801.65,0.25,95,110.0
5599,F#2,2801.9,0.25,95,110.0
5600,C2,2801.9,0.25,95,110.0
5601,C#3,2801.9,0.25,95,110.0
5602,F#2,2802.15,0.25,95,110.0
5603,G#2,2802.4,0.25,95,110.0
5604,G#2,2802.65,0.25,95,110.0
5605,F#2,2802.9,0.25,95,110.0
5606,D2,2802.9,0.25,95,110.0
5607,F#2,2803.15,0.25,95,110.0
5608,G#2,2803.4,0.25,95,110.0
5609,G#2,2803.65,0.25,95,110.0
5610,F#2,2803.9,0.25,95,110.0
5611,C2,2803.9,0.25,95,110.0
5612,F#2,2804.15,3/20,95,110.0
5613,F#2,2804.3,1/10,95,110.0
5614,G#2,2804.4,0.25,95,110.0
5615,G#2,2804.65,0.25,95,110.0
5616,F#2,2804.9,0.25,95,110.0
5617,D2,2804.9,0.25,95,110.0
5618,F#2,2805.15,0.25,95,110.0
5619,G#2,2805.4,0.25,95,110.0
5620,G#2,2805.65,0.25,95,110.0
5621,F#2,2805.9,0.25,95,110.0
5622,C2,2805.9,0.25,95,110.0
5623,F#2,2806.15,0.25,95,110.0
5624,G#2,2806.4,0.25,95,110.0
5625,G#2,2806.65,0.25,95,110.0
5626,F#2,2806.9,0.25,95,110.0
5627,D2,2806.9,0.25,95,110.0
5628,F#2,2807.15,0.25,95,110.0
5629,G#2,2807.4,0.25,95,110.0
5630,G#2,2807.65,0.25,95,110.0
5631,F#2,2807.9,0.25,95,110.0
5632,C2,2807.9,0.25,95,110.0
5633,F#2,2808.15,3/20,95,110.0
5634,F#2,2808.3,1/10,95,110.0
5635,G#2,2808.4,0.25,95,110.0
5636,G#2,2808.65,0.25,95,110.0
5637,F#2,2808.9,0.25,95,110.0
5638,D2,2808.9,0.25,95,110.0
5639,F#2,2809.15,0.25,95,110.0
5640,G#2,2809.4,0.25,95,110.0
5641,G#2,2809.65,0.25,95,110.0
5642,F#2,2809.9,0.25,95,110.0
5643,C2,2809.9,0.25,95,110.0
5644,F#2,2810.15,0.25,95,110.0
5645,G#2,2810.4,0.25,95,110.0
5646,G#2,2810.65,0.25,95,110.0
5647,F#2,2810.9,0.25,95,110.0
5648,D2,2810.9,0.25,95,110.0
5649,F#2,2811.15,0.25,95,110.0
5650,G#2,2811.4,0.25,95,110.0
5651,G#2,2811.65,0.25,95,110.0
5652,F#2,2811.9,0.25,95,110.0
5653,C2,2811.9,0.25,95,110.0
5654,F#2,2812.15,3/20,95,110.0
5655,F#2,2812.3,1/10,95,110.0
5656,G#2,2812.4,0.25,95,110.0
5657,G#2,2812.65,0.25,95,110.0
5658,F#2,2812.9,0.25,95,110.0
5659,D2,2812.9,0.25,95,110.0
5660,F#2,2813.15,0.25,95,110.0
5661,G#2,2813.4,0.25,95,110.0
5662,G#2,2813.65,0.25,95,110.0
5663,F#2,2813.9,0.25,95,110.0
5664,C2,2813.9,0.25,95,110.0
5665,F#2,2814.15,0.25,95,110.0
5666,G#2,2814.4,0.25,95,110.0
5667,G#2,2814.65,0.25,95,110.0
5668,F#2,2814.9,0.25,95,110.0
5669,D2,2814.9,0.25,95,110.0
5670,F#2,2815.15,0.25,95,110.0
5671,G#2,2815.4,0.25,95,110.0
5672,G#2,2815.65,0.25,95,110.0
5673,F#2,2815.9,0.25,95,110.0
5674,C2,2815.9,0.25,95,110.0
5675,F#2,2816.15,3/20,95,110.0
5676,F#2,2816.3,1/10,95,110.0
5677,G#2,2816.4,0.25,95,110.0
5678,G#2,2816.65,0.25,95,110.0
5679,F#2,2816.9,0.25,95,110.0
5680,D2,2816.9,0.25,95,110.0
5681,F#2,2817.15,0.25,95,110.0
5682,G#2,2817.4,0.25,95,110.0
5683,G#2,2817.65,0.25,95,110.0
5684,F#2,2817.9,0.25,95,110.0
5685,C2,2817.9,0.25,95,110.0
5686,E3,2817.9,0.25,95,110.0
5687,F#2,2818.15,0.25,95,110.0
5688,G#2,2818.4,0.25,95,110.0
5689,G#2,2818.65,0.25,95,110.0
5690,F#2,2818.9,0.25,95,110.0
5691,D2,2818.9,0.25,95,110.0
5692,F#2,2819.15,0.25,95,110.0
5693,G#2,2819.4,0.25,95,110.0
5694,G#2,2819.65,0.25,95,110.0
5695,F#2,2819.9,0.25,95,110.0
5696,C2,2819.9,0.25,95,110.0
5697,F#2,2820.15,3/20,95,110.0
5698,F#2,2820.3,1/10,95,110.0
5699,G#2,2820.4,0.25,95,110.0
5700,G#2,2820.65,0.25,95,110.0
5701,F#2,2820.9,0.25,95,110.0
5702,D2,2820.9,0.25,95,110.0
5703,F#2,2821.15,0.25,95,110.0
5704,G#2,2821.4,0.25,95,110.0
5705,G#2,2821.65,0.25,95,110.0
5706,F#2,2821.9,0.25,95,110.0
5707,C2,2821.9,0.25,95,110.0
5708,F#2,2822.15,0.25,95,110.0
5709,G#2,2822.4,0.25,95,110.0
5710,G#2,2822.65,0.25,95,110.0
5711,F#2,2822.9,0.25,95,110.0
5712,D2,2822.9,0.25,95,110.0
5713,F#2,2823.15,0.25,95,110.0
5714,G#2,2823.4,0.25,95,110.0
5715,G#2,2823.65,0.25,95,110.0
5716,F#2,2823.9,0.25,95,110.0
5717,C2,2823.9,0.25,95,110.0
5718,F#2,2824.15,3/20,95,110.0
5719,F#2,2824.3,1/10,95,110.0
5720,G#2,2824.4,0.25,95,110.0
5721,G#2,2824.65,0.25,95,110.0
5722,F#2,2824.9,0.25,95,110.0
5723,D2,2824.9,0.25,95,110.0
5724,F#2,2825.15,0.25,95,110.0
5725,G#2,2825.4,0.25,95,110.0
5726,G#2,2825.65,0.25,95,110.0
5727,F#2,2825.9,0.25,95,110.0
5728,C2,2825.9,0.25,95,110.0
5729,F#2,2826.15,0.25,95,110.0
5730,G#2,2826.4,0.25,95,110.0
5731,G#2,2826.65,0.25,95,110.0
5732,F#2,2826.9,0.25,95,110.0
5733,D2,2826.9,0.25,95,110.0
5734,F#2,2827.15,0.25,95,110.0
5735,G#2,2827.4,0.25,95,110.0
5736,G#2,2827.65,0.25,95,110.0
5737,F#2,2827.9,0.25,95,110.0
5738,C2,2827.9,0.25,95,110.0
5739,F#2,2828.15,3/20,95,110.0
5740,F#2,2828.3,1/10,95,110.0
5741,G#2,2828.4,0.25,95,110.0
5742,G#2,2828.65,0.25,95,110.0
5743,F#2,2828.9,0.25,95,110.0
5744,D2,2828.9,0.25,95,110.0
5745,F#2,2829.15,0.25,95,110.0
5746,G#2,2829.4,0.25,95,110.0
5747,G#2,2829.65,0.25,95,110.0
5748,F#2,2829.9,0.25,95,110.0
5749,C2,2829.9,0.25,95,110.0
5750,F#2,2830.15,0.25,95,110.0
5751,G#2,2830.4,0.25,95,110.0
5752,G#2,2830.65,0.25,95,110.0
5753,F#2,2830.9,0.25,95,110.0
5754,D2,2830.9,0.25,95,110.0
5755,F#2,2831.15,0.25,95,110.0
5756,G#2,2831.4,0.25,95,110.0
5757,G#2,2831.65,0.25,95,110.0
5758,F#2,2831.9,0.25,95,110.0
5759,C2,2831.9,0.25,95,110.0
5760,F#2,2832.15,3/20,95,110.0
5761,F#2,2832.3,1/10,95,110.0
5762,G#2,2832.4,0.25,95,110.0
5763,G#2,2832.65,0.25,95,110.0
5764,F#2,2832.9,0.25,95,110.0
5765,D2,2832.9,0.25,95,110.0
5766,F#2,2833.15,0.25,95,110.0
5767,G#2,2833.4,0.25,95,110.0
5768,G#2,2833.65,0.25,95,110.0
5769,F#2,2833.9,0.25,95,110.0
5770,G2,2833.9,0.25,95,110.0
5771,G3,2833.9,0.25,95,110.0
5772,F#2,2834.15,0.25,95,110.0
5773,G#2,2834.4,0.25,95,110.0
5774,G#2,2834.65,0.25,95,110.0
5775,F#2,2834.9,0.25,95,110.0
5776,F#2,2835.15,0.25,95,110.0
5777,G#2,2835.4,0.25,95,110.0
5778,G#2,2835.65,0.25,95,110.0
5779,F#2,2835.9,0.25,95,110.0
5780,F#2,2836.15,3/20,95,110.0
5781,F#2,2836.3,1/10,95,110.0
5782,G#2,2836.4,0.25,95,110.0
5783,G#2,2836.65,0.25,95,110.0
5784,F#2,2836.9,0.25,95,110.0
5785,F#2,2837.15,0.25,95,110.0
5786,G#2,2837.4,0.25,95,110.0
5787,G#2,2837.65,0.25,95,110.0
5788,F#2,2837.9,0.25,95,110.0
5789,C2,2837.9,0.25,95,110.0
5790,F#2,2838.15,0.25,95,110.0
5791,G#2,2838.4,0.25,95,110.0
5792,G#2,2838.65,0.25,95,110.0
5793,F#2,2838.9,0.25,95,110.0
5794,F#2,2839.15,0.25,95,110.0
5795,G#2,2839.4,0.25,95,110.0
5796,G#2,2839.65,0.25,95,110.0
5797,F#2,2839.9,0.25,95,110.0
5798,F#2,2840.15,3/20,95,110.0
5799,F#2,2840.3,1/10,95,110.0
5800,G#2,2840.4,0.25,95,110.0
5801,G#2,2840.65,0.25,95,110.0
5802,F#2,2840.9,0.25,95,110.0
5803,D2,2840.9,0.25,95,110.0
5804,C3,2840.9,0.25,95,110.0
5805,F#2,2841.15,0.25,95,110.0
5806,G#2,2841.4,0.25,95,110.0
5807,G#2,2841.65,0.25,95,110.0
5808,F#2,2841.9,0.25,95,110.0
5809,G3,2841.9,0.25,95,110.0
5810,F#2,2842.15,0.25,95,110.0
5811,G#2,2842.4,0.25,95,110.0
5812,G#2,2842.65,0.25,95,110.0
5813,F#2,2842.9,0.25,95,110.0
5814,F#2,2843.15,0.25,95,110.0
5815,G#2,2843.4,0.25,95,110.0
5816,G#2,2843.65,0.25,95,110.0
5817,F#2,2843.9,0.25,95,110.0
5818,F#2,2844.15,3/20,95,110.0
5819,F#2,2844.3,1/10,95,110.0
5820,G#2,2844.4,0.25,95,110.0
5821,G#2,2844.65,0.25,95,110.0
5822,F#2,2844.9,0.25,95,110.0
5823,F#2,2845.15,0.25,95,110.0
5824,G#2,2845.4,0.25,95,110.0
5825,G#2,2845.65,0.25,95,110.0
5826,F#2,2845.9,0.25,95,110.0
5827,C2,2845.9,0.25,95,110.0
5828,F#2,2846.15,0.25,95,110.0
5829,G#2,2846.4,0.25,95,110.0
5830,G#2,2846.65,0.25,95,110.0
5831,F#2,2846.9,0.25,95,110.0
5832,F#2,2847.15,0.25,95,110.0
5833,G#2,2847.4,0.25,95,110.0
5834,G#2,2847.65,0.25,95,110.0
5835,F#2,2847.9,0.25,95,110.0
5836,F#2,2848.15,3/20,95,110.0
5837,F#2,2848.3,1/10,95,110.0
5838,G#2,2848.4,0.25,95,110.0
5839,G#2,2848.65,0.25,95,110.0
5840,F#2,2848.9,0.25,95,110.0
5841,D2,2848.9,0.25,95,110.0
5842,C3,2848.9,0.25,95,110.0
5843,F#2,2849.15,0.25,95,110.0
5844,G#2,2849.4,0.25,95,110.0
5845,G#2,2849.65,0.25,95,110.0
5846,F#2,2849.9,0.25,90,110.0
5847,G2,2849.9,0.25,90,110.0
5848,G3,2849.9,0.25,90,110.0
5849,F#2,2850.15,0.25,95,110.0
5850,G#2,2850.4,0.25,95,110.0
5851,G#2,2850.65,0.25,95,110.0
5852,F#2,2850.9,0.25,95,110.0
5853,F#2,2851.15,0.25,95,110.0
5854,G#2,2851.4,0.25,95,110.0
5855,G#2,2851.65,0.25,95,110.0
5856,F#2,2851.9,0.25,95,110.0
5857,F#2,2852.15,3/20,95,110.0
5858,F#2,2852.3,1/10,95,110.0
5859,G#2,2852.4,0.25,95,110.0
5860,G#2,2852.65,0.25,95,110.0
5861,F#2,2852.9,0.25,95,110.0
5862,F#2,2853.15,0.25,95,110.0
5863,G#2,2853.4,0.25,95,110.0
5864,G#2,2853.65,0.25,95,110.0
5865,F#2,2853.9,0.25,95,110.0
5866,C2,2853.9,0.25,95,110.0
5867,F#2,2854.15,0.25,95,110.0
5868,G#2,2854.4,0.25,95,110.0
5869,G#2,2854.65,0.25,95,110.0
5870,F#2,2854.9,0.25,95,110.0
5871,F#2,2855.15,0.25,95,110.0
5872,G#2,2855.4,0.25,95,110.0
5873,G#2,2855.65,0.25,95,110.0
5874,F#2,2855.9,0.25,95,110.0
5875,F#2,2856.15,3/20,95,110.0
5876,F#2,2856.3,1/10,95,110.0
5877,G#2,2856.4,0.25,95,110.0
5878,G#2,2856.65,0.25,95,110.0
5879,F#2,2856.9,0.25,95,110.0
5880,D2,2856.9,0.25,95,110.0
5881,C3,2856.9,0.25,95,110.0
5882,F#2,2857.15,0.25,95,110.0
5883,G#2,2857.4,0.25,95,110.0
5884,G#2,2857.65,0.25,95,110.0
5885,F#2,2857.9,0.25,90,110.0
5886,G2,2857.9,0.25,90,110.0
5887,G3,2857.9,0.25,90,110.0
5888,F#2,2858.15,0.25,95,110.0
5889,G#2,2858.4,0.25,95,110.0
5890,G#2,2858.65,0.25,95,110.0
5891,F#2,2858.9,0.25,95,110.0
5892,F#2,2859.15,0.25,95,110.0
5893,G#2,2859.4,0.25,95,110.0
5894,G#2,2859.65,0.25,95,110.0
5895,F#2,2859.9,0.25,95,110.0
5896,F#2,2860.15,3/20,95,110.0
5897,F#2,2860.3,1/10,95,110.0
5898,G#2,2860.4,0.25,95,110.0
5899,G#2,2860.65,0.25,95,110.0
5900,F#2,2860.9,0.25,95,110.0
5901,F#2,2861.15,0.25,95,110.0
5902,G#2,2861.4,0.25,95,110.0
5903,G#2,2861.65,0.25,95,110.0
5904,F#2,2861.9,0.25,95,110.0
5905,C2,2861.9,0.25,95,110.0
5906,F#2,2862.15,0.25,95,110.0
5907,G#2,2862.4,0.25,95,110.0
5908,G#2,2862.65,0.25,95,110.0
5909,F#2,2862.9,0.25,95,110.0
5910,F#2,2863.15,0.25,95,110.0
5911,G#2,2863.4,0.25,95,110.0
5912,D2,2863.4,0.25,95,110.0
5913,G#2,2863.65,0.25,95,110.0
5914,D2,2863.65,0.25,95,110.0
5915,F#2,2863.9,0.25,95,110.0
5916,G2,2863.9,0.25,95,110.0
5917,F#2,2864.15,3/20,95,110.0
5918,D2,2864.15,3/20,95,110.0
5919,F#2,2864.4,1/10,95,110.0
5920,D2,2864.4,1/10,95,110.0
5921,G#2,2864.5,0.25,95,110.0
5922,G2,2864.5,0.25,95,110.0
5923,G#2,2864.75,0.25,95,110.0
5924,F#2,2865.0,0.25,95,110.0
5925,C2,2865.0,0.25,95,110.0
5926,F#2,2865.25,0.25,95,110.0
5927,G#2,2865.5,0.25,95,110.0
5928,D2,2865.5,0.25,95,110.0
5929,C3,2865.5,0.25,95,110.0
5930,G#2,2865.75,0.25,95,110.0
5931,F#2,2866.0,0.25,95,110.0
5932,C2,2866.0,0.25,95,110.0
5933,C#3,2866.0,0.25,95,110.0
5934,F#2,2866.25,0.25,95,110.0
5935,G#2,2866.5,0.25,95,110.0
5936,G#2,2866.75,0.25,95,110.0
5937,F#2,2867.0,0.25,95,110.0
5938,D2,2867.0,0.25,95,110.0
5939,F#2,2867.25,0.25,95,110.0
5940,G#2,2867.5,0.25,95,110.0
5941,G#2,2867.75,0.25,95,110.0
5942,F#2,2868.0,0.25,95,110.0
5943,C2,2868.0,0.25,95,110.0
5944,F#2,2868.25,3/20,95,110.0
5945,F#2,2868.4,1/10,95,110.0
5946,G#2,2868.5,0.25,95,110.0
5947,G#2,2868.75,0.25,95,110.0
5948,F#2,2869.0,0.25,95,110.0
5949,D2,2869.0,0.25,95,110.0
5950,F#2,2869.25,0.25,95,110.0
5951,G#2,2869.5,0.25,95,110.0
5952,G#2,2869.75,0.25,95,110.0
5953,F#2,2870.0,0.25,95,110.0
5954,C2,2870.0,0.25,95,110.0
5955,F#2,2870.25,0.25,95,110.0
5956,G#2,2870.5,0.25,95,110.0
5957,G#2,2870.75,0.25,95,110.0
5958,F#2,2871.0,0.25,95,110.0
5959,D2,2871.0,0.25,95,110.0
5960,F#2,2871.25,0.25,95,110.0
5961,G#2,2871.5,0.25,95,110.0
5962,G#2,2871.75,0.25,95,110.0
5963,F#2,2872.0,0.25,95,110.0
5964,C2,2872.0,0.25,95,110.0
5965,F#2,2872.25,3/20,95,110.0
5966,F#2,2872.4,1/10,95,110.0
5967,G#2,2872.5,0.25,95,110.0
5968,G#2,2872.75,0.25,95,110.0
5969,F#2,2873.0,0.25,95,110.0
5970,D2,2873.0,0.25,95,110.0
5971,F#2,2873.25,0.25,95,110.0
5972,G#2,2873.5,0.25,95,110.0
5973,G#2,2873.75,0.25,95,110.0
5974,F#2,2874.0,0.25,95,110.0
5975,C2,2874.0,0.25,95,110.0
5976,F#2,2874.25,0.25,95,110.0
5977,G#2,2874.5,0.25,95,110.0
5978,G#2,2874.75,0.25,95,110.0
5979,F#2,2875.0,0.25,95,110.0
5980,D2,2875.0,0.25,95,110.0
5981,F#2,2875.25,0.25,95,110.0
5982,G#2,2875.5,0.25,95,110.0
5983,G#2,2875.75,0.25,95,110.0
5984,F#2,2876.0,0.25,95,110.0
5985,C2,2876.0,0.25,95,110.0
5986,F#2,2876.25,3/20,95,110.0
5987,F#2,2876.4,1/10,95,110.0
5988,G#2,2876.5,0.25,95,110.0
5989,G#2,2876.75,0.25,95,110.0
5990,F#2,2877.0,0.25,95,110.0
5991,D2,2877.0,0.25,95,110.0
5992,F#2,2877.25,0.25,95,110.0
5993,G#2,2877.5,0.25,95,110.0
5994,G#2,2877.75,0.25,95,110.0
5995,F#2,2878.0,0.25,95,110.0
5996,C2,2878.0,0.25,95,110.0
5997,F#2,2878.25,0.25,95,110.0
5998,G#2,2878.5,0.25,95,110.0
5999,G#2,2878.75,0.25,95,110.0
6000,F#2,2879.0,0.25,95,110.0
6001,D2,2879.0,0.25,95,110.0
6002,F#2,2879.25,0.25,95,110.0
6003,G#2,2879.5,0.25,95,110.0
6004,G#2,2879.75,0.25,95,110.0
6005,F#2,2880.0,0.25,95,110.0
6006,C2,2880.0,0.25,95,110.0
6007,F#2,2880.25,3/20,95,110.0
6008,F#2,2880.4,1/10,95,110.0
6009,G#2,2880.5,0.25,95,110.0
6010,G#2,2880.75,0.25,95,110.0
6011,F#2,2881.0,0.25,95,110.0
6012,D2,2881.0,0.25,95,110.0
6013,F#2,2881.25,0.25,95,110.0
6014,G#2,2881.5,0.25,95,110.0
6015,G#2,2881.75,0.25,95,110.0
6016,F#2,2882.0,0.25,95,110.0
6017,C2,2882.0,0.25,95,110.0
6018,C#3,2882.0,0.25,95,110.0
6019,F#2,2882.25,0.25,95,110.0
6020,G#2,2882.5,0.25,95,110.0
6021,G#2,2882.75,0.25,95,110.0
6022,F#2,2883.0,0.25,95,110.0
6023,D2,2883.0,0.25,95,110.0
6024,F#2,2883.25,0.25,95,110.0
6025,G#2,2883.5,0.25,95,110.0
6026,G#2,2883.75,0.25,95,110.0
6027,F#2,2884.0,0.25,95,110.0
6028,C2,2884.0,0.25,95,110.0
6029,F#2,2884.25,3/20,95,110.0
6030,F#2,2884.4,1/10,95,110.0
6031,G#2,2884.5,0.25,95,110.0
6032,G#2,2884.75,0.25,95,110.0
6033,F#2,2885.0,0.25,95,110.0
6034,D2,2885.0,0.25,95,110.0
6035,F#2,2885.25,0.25,95,110.0
6036,G#2,2885.5,0.25,95,110.0
6037,G#2,2885.75,0.25,95,110.0
6038,F#2,2886.0,0.25,95,110.0
6039,C2,2886.0,0.25,95,110.0
6040,F#2,2886.25,0.25,95,110.0
6041,G#2,2886.5,0.25,95,110.0
6042,G#2,2886.75,0.25,95,110.0
6043,F#2,2887.0,0.25,95,110.0
6044,D2,2887.0,0.25,95,110.0
6045,F#2,2887.25,0.25,95,110.0
6046,G#2,2887.5,0.25,95,110.0
6047,G#2,2887.75,0.25,95,110.0
6048,F#2,2888.0,0.25,95,110.0
6049,C2,2888.0,0.25,95,110.0
6050,F#2,2888.25,3/20,95,110.0
6051,F#2,2888.4,1/10,95,110.0
6052,G#2,2888.5,0.25,95,110.0
6053,G#2,2888.75,0.25,95,110.0
6054,F#2,2889.0,0.25,95,110.0
6055,D2,2889.0,0.25,95,110.0
6056,F#2,2889.25,0.25,95,110.0
6057,G#2,2889.5,0.25,95,110.0
6058,G#2,2889.75,0.25,95,110.0
6059,F#2,2890.0,0.25,95,110.0
6060,C2,2890.0,0.25,95,110.0
6061,F#2,2890.25,0.25,95,110.0
6062,G#2,2890.5,0.25,95,110.0
6063,G#2,2890.75,0.25,95,110.0
6064,F#2,2891.0,0.25,95,110.0
6065,D2,2891.0,0.25,95,110.0
6066,F#2,2891.25,0.25,95,110.0
6067,G#2,2891.5,0.25,95,110.0
6068,G#2,2891.75,0.25,95,110.0
6069,F#2,2892.0,0.25,95,110.0
6070,C2,2892.0,0.25,95,110.0
6071,F#2,2892.25,3/20,95,110.0
6072,F#2,2892.4,1/10,95,110.0
6073,G#2,2892.5,0.25,95,110.0
6074,G#2,2892.75,0.25,95,110.0
6075,F#2,2893.0,0.25,95,110.0
6076,D2,2893.0,0.25,95,110.0
6077,F#2,2893.25,0.25,95,110.0
6078,G#2,2893.5,0.25,95,110.0
6079,G#2,2893.75,0.25,95,110.0
6080,F#2,2894.0,0.25,95,110.0
6081,C2,2894.0,0.25,95,110.0
6082,F#2,2894.25,0.25,95,110.0
6083,G#2,2894.5,0.25,95,110.0
6084,G#2,2894.75,0.25,95,110.0
6085,F#2,2895.0,0.25,95,110.0
6086,D2,2895.0,0.25,95,110.0
6087,F#2,2895.25,0.25,95,110.0
6088,G#2,2895.5,0.25,95,110.0
6089,G#2,2895.75,0.25,95,110.0
6090,F#2,2896.0,0.25,95,110.0
6091,C2,2896.0,0.25,95,110.0
6092,F#2,2896.25,3/20,95,110.0
6093,F#2,2896.4,1/10,95,110.0
6094,G#2,2896.5,0.25,95,110.0
6095,G#2,2896.75,0.25,95,110.0
6096,F#2,2897.0,0.25,95,110.0
6097,D2,2897.0,0.25,95,110.0
6098,F#2,2897.25,0.25,95,110.0
6099,G#2,2897.5,0.25,95,110.0
6100,G#2,2897.75,0.25,95,110.0
6101,F#2,2898.0,0.25,95,110.0
6102,C2,2898.0,0.25,95,110.0
6103,C#3,2898.0,0.25,95,110.0
6104,F#2,2898.25,0.25,95,110.0
6105,G#2,2898.5,0.25,95,110.0
6106,G#2,2898.75,0.25,95,110.0
6107,F#2,2899.0,0.25,95,110.0
6108,D2,2899.0,0.25,95,110.0
6109,F#2,2899.25,0.25,95,110.0
6110,G#2,2899.5,0.25,95,110.0
6111,G#2,2899.75,0.25,95,110.0
6112,F#2,2900.0,0.25,95,110.0
6113,C2,2900.0,0.25,95,110.0
6114,F#2,2900.25,3/20,95,110.0
6115,F#2,2900.4,1/10,95,110.0
6116,G#2,2900.5,0.25,95,110.0
6117,G#2,2900.75,0.25,95,110.0
6118,F#2,2901.0,0.25,95,110.0
6119,D2,2901.0,0.25,95,110.0
6120,F#2,2901.25,0.25,95,110.0
6121,G#2,2901.5,0.25,95,110.0
6122,G#2,2901.75,0.25,95,110.0
6123,F#2,2902.0,0.25,95,110.0
6124,C2,2902.0,0.25,95,110.0
6125,F#2,2902.25,0.25,95,110.0
6126,G#2,2902.5,0.25,95,110.0
6127,G#2,2902.75,0.25,95,110.0
6128,F#2,2903.0,0.25,95,110.0
6129,D2,2903.0,0.25,95,110.0
6130,F#2,2903.25,0.25,95,110.0
6131,G#2,2903.5,0.25,95,110.0
6132,G#2,2903.75,0.25,95,110.0
6133,F#2,2904.0,0.25,95,110.0
6134,C2,2904.0,0.25,95,110.0
6135,F#2,2904.25,3/20,95,110.0
6136,F#2,2904.4,1/10,95,110.0
6137,G#2,2904.5,0.25,95,110.0
6138,G#2,2904.75,0.25,95,110.0
6139,F#2,2905.0,0.25,95,110.0
6140,D2,2905.0,0.25,95,110.0
6141,F#2,2905.25,0.25,95,110.0
6142,G#2,2905.5,0.25,95,110.0
6143,G#2,2905.75,0.25,95,110.0
6144,F#2,2906.0,0.25,95,110.0
6145,C2,2906.0,0.25,95,110.0
6146,F#2,2906.25,0.25,95,110.0
6147,G#2,2906.5,0.25,95,110.0
6148,G#2,2906.75,0.25,95,110.0
6149,F#2,2907.0,0.25,95,110.0
6150,D2,2907.0,0.25,95,110.0
6151,F#2,2907.25,0.25,95,110.0
6152,G#2,2907.5,0.25,95,110.0
6153,G#2,2907.75,0.25,95,110.0
6154,F#2,2908.0,0.25,95,110.0
6155,C2,2908.0,0.25,95,110.0
6156,F#2,2908.25,3/20,95,110.0
6157,F#2,2908.4,1/10,95,110.0
6158,G#2,2908.5,0.25,95,110.0
6159,G#2,2908.75,0.25,95,110.0
6160,F#2,2909.0,0.25,95,110.0
6161,D2,2909.0,0.25,95,110.0
6162,F#2,2909.25,0.25,95,110.0
6163,G#2,2909.5,0.25,95,110.0
6164,G#2,2909.75,0.25,95,110.0
6165,F#2,2910.0,0.25,95,110.0
6166,C2,2910.0,0.25,95,110.0
6167,F#2,2910.25,0.25,95,110.0
6168,G#2,2910.5,0.25,95,110.0
6169,G#2,2910.75,0.25,95,110.0
6170,F#2,2911.0,0.25,95,110.0
6171,D2,2911.0,0.25,95,110.0
6172,F#2,2911.25,0.25,95,110.0
6173,G#2,2911.5,0.25,95,110.0
6174,G#2,2911.75,0.25,95,110.0
6175,F#2,2912.0,0.25,95,110.0
6176,C2,2912.0,0.25,95,110.0
6177,F#2,2912.25,3/20,95,110.0
6178,F#2,2912.4,1/10,95,110.0
6179,G#2,2912.5,0.25,95,110.0
6180,G#2,2912.75,0.25,95,110.0
6181,F#2,2913.0,0.25,95,110.0
6182,D2,2913.0,0.25,95,110.0
6183,F#2,2913.25,0.25,95,110.0
6184,G#2,2913.5,0.25,95,110.0
6185,G#2,2913.75,0.25,95,110.0
6186,F#2,2914.0,0.25,95,110.0
6187,C2,2914.0,0.25,95,110.0
6188,C#3,2914.0,0.25,95,110.0
6189,F#2,2914.25,0.25,95,110.0
6190,G#2,2914.5,0.25,95,110.0
6191,G#2,2914.75,0.25,95,110.0
6192,F#2,2915.0,0.25,95,110.0
6193,D2,2915.0,0.25,95,110.0
6194,F#2,2915.25,0.25,95,110.0
6195,G#2,2915.5,0.25,95,110.0
6196,G#2,2915.75,0.25,95,110.0
6197,F#2,2916.0,0.25,95,110.0
6198,C2,2916.0,0.25,95,110.0
6199,F#2,2916.25,3/20,95,110.0
6200,F#2,2916.4,1/10,95,110.0
6201,G#2,2916.5,0.25,95,110.0
6202,G#2,2916.75,0.25,95,110.0
6203,F#2,2917.0,0.25,95,110.0
6204,D2,2917.0,0.25,95,110.0
6205,F#2,2917.25,0.25,95,110.0
6206,G#2,2917.5,0.25,95,110.0
6207,G#2,2917.75,0.25,95,110.0
6208,F#2,2918.0,0.25,95,110.0
6209,C2,2918.0,0.25,95,110.0
6210,F#2,2918.25,0.25,95,110.0
6211,G#2,2918.5,0.25,95,110.0
6212,G#2,2918.75,0.25,95,110.0
6213,F#2,2919.0,0.25,95,110.0
6214,D2,2919.0,0.25,95,110.0
6215,F#2,2919.25,0.25,95,110.0
6216,G#2,2919.5,0.25,95,110.0
6217,G#2,2919.75,0.25,95,110.0
6218,F#2,2920.0,0.25,95,110.0
6219,C2,2920.0,0.25,95,110.0
6220,F#2,2920.25,3/20,95,110.0
6221,F#2,2920.4,1/10,95,110.0
6222,G#2,2920.5,0.25,95,110.0
6223,G#2,2920.75,0.25,95,110.0
6224,F#2,2921.0,0.25,95,110.0
6225,D2,2921.0,0.25,95,110.0
6226,F#2,2921.25,0.25,95,110.0
6227,G#2,2921.5,0.25,95,110.0
6228,G#2,2921.75,0.25,95,110.0
6229,F#2,2922.0,0.25,95,110.0
6230,C2,2922.0,0.25,95,110.0
6231,F#2,2922.25,0.25,95,110.0
6232,G#2,2922.5,0.25,95,110.0
6233,G#2,2922.75,0.25,95,110.0
6234,F#2,2923.0,0.25,95,110.0
6235,D2,2923.0,0.25,95,110.0
6236,F#2,2923.25,0.25,95,110.0
6237,G#2,2923.5,0.25,95,110.0
6238,G#2,2923.75,0.25,95,110.0
6239,F#2,2924.0,0.25,95,110.0
6240,C2,2924.0,0.25,95,110.0
6241,F#2,2924.25,3/20,95,110.0
6242,F#2,2924.4,1/10,95,110.0
6243,G#2,2924.5,0.25,95,110.0
6244,G#2,2924.75,0.25,95,110.0
6245,F#2,2925.0,0.25,95,110.0
6246,D2,2925.0,0.25,95,110.0
6247,F#2,2925.25,0.25,95,110.0
6248,G#2,2925.5,0.25,95,110.0
6249,G#2,2925.75,0.25,95,110.0
6250,F#2,2926.0,0.25,95,110.0
6251,C2,2926.0,0.25,95,110.0
6252,F#2,2926.25,0.25,95,110.0
6253,G#2,2926.5,0.25,95,110.0
6254,G#2,2926.75,0.25,95,110.0
6255,F#2,2927.0,0.25,95,110.0
6256,D2,2927.0,0.25,95,110.0
6257,F#2,2927.25,0.25,95,110.0
6258,G#2,2927.5,0.25,95,110.0
6259,G#2,2927.75,0.25,95,110.0
6260,F#2,2928.0,0.25,95,110.0
6261,C2,2928.0,0.25,95,110.0
6262,F#2,2928.25,3/20,95,110.0
6263,F#2,2928.4,1/10,95,110.0
6264,G#2,2928.5,0.25,95,110.0
6265,G#2,2928.75,0.25,95,110.0
6266,F#2,2929.0,0.25,95,110.0
6267,D2,2929.0,0.25,95,110.0
6268,F#2,2929.25,0.25,95,110.0
6269,G#2,2929.5,0.25,95,110.0
6270,G#2,2929.75,0.25,95,110.0
6271,F#2,2930.0,0.25,95,110.0
6272,C2,2930.0,0.25,95,110.0
6273,C#3,2930.0,0.25,95,110.0
6274,F#2,2930.25,0.25,95,110.0
6275,G#2,2930.5,0.25,95,110.0
6276,G#2,2930.75,0.25,95,110.0
6277,F#2,2931.0,0.25,95,110.0
6278,D2,2931.0,0.25,95,110.0
6279,F#2,2931.25,0.25,95,110.0
6280,G#2,2931.5,0.25,95,110.0
6281,G#2,2931.75,0.25,95,110.0
6282,F#2,2932.0,0.25,95,110.0
6283,C2,2932.0,0.25,95,110.0
6284,F#2,2932.25,3/20,95,110.0
6285,F#2,2932.4,1/10,95,110.0
6286,G#2,2932.5,0.25,95,110.0
6287,G#2,2932.75,0.25,95,110.0
6288,F#2,2933.0,0.25,95,110.0
6289,D2,2933.0,0.25,95,110.0
6290,F#2,2933.25,0.25,95,110.0
6291,G#2,2933.5,0.25,95,110.0
6292,G#2,2933.75,0.25,95,110.0
6293,F#2,2934.0,0.25,95,110.0
6294,C2,2934.0,0.25,95,110.0
6295,F#2,2934.25,0.25,95,110.0
6296,G#2,2934.5,0.25,95,110.0
6297,G#2,2934.75,0.25,95,110.0
6298,F#2,2935.0,0.25,95,110.0
6299,D2,2935.0,0.25,95,110.0
6300,F#2,2935.25,0.25,95,110.0
6301,G#2,2935.5,0.25,95,110.0
6302,G#2,2935.75,0.25,95,110.0
6303,F#2,2936.0,0.25,95,110.0
6304,C2,2936.0,0.25,95,110.0
6305,F#2,2936.25,3/20,95,110.0
6306,F#2,2936.4,1/10,95,110.0
6307,G#2,2936.5,0.25,95,110.0
6308,G#2,2936.75,0.25,95,110.0
6309,F#2,2937.0,0.25,95,110.0
6310,D2,2937.0,0.25,95,110.0
6311,F#2,2937.25,0.25,95,110.0
6312,G#2,2937.5,0.25,95,110.0
6313,G#2,2937.75,0.25,95,110.0
6314,F#2,2938.0,0.25,95,110.0
6315,C2,2938.0,0.25,95,110.0
6316,F#2,2938.25,0.25,95,110.0
6317,G#2,2938.5,0.25,95,110.0
6318,G#2,2938.75,0.25,95,110.0
6319,F#2,2939.0,0.25,95,110.0
6320,D2,2939.0,0.25,95,110.0
6321,F#2,2939.25,0.25,95,110.0
6322,G#2,2939.5,0.25,95,110.0
6323,G#2,2939.75,0.25,95,110.0
6324,F#2,2940.0,0.25,95,110.0
6325,C2,2940.0,0.25,95,110.0
6326,F#2,2940.25,3/20,95,110.0
6327,F#2,2940.4,1/10,95,110.0
6328,G#2,2940.5,0.25,95,110.0
6329,G#2,2940.75,0.25,95,110.0
6330,F#2,2941.0,0.25,95,110.0
6331,D2,2941.0,0.25,95,110.0
6332,F#2,2941.25,0.25,95,110.0
6333,G#2,2941.5,0.25,95,110.0
6334,G#2,2941.75,0.25,95,110.0
6335,F#2,2942.0,0.25,95,110.0
6336,C2,2942.0,0.25,95,110.0
6337,F#2,2942.25,0.25,95,110.0
6338,G#2,2942.5,0.25,95,110.0
6339,G#2,2942.75,0.25,95,110.0
6340,F#2,2943.0,0.25,95,110.0
6341,D2,2943.0,0.25,95,110.0
6342,F#2,2943.25,0.25,95,110.0
6343,G#2,2943.5,0.25,95,110.0
6344,G#2,2943.75,0.25,95,110.0
6345,F#2,2944.0,0.25,95,110.0
6346,C2,2944.0,0.25,95,110.0
6347,F#2,2944.25,3/20,95,110.0
6348,F#2,2944.4,1/10,95,110.0
6349,G#2,2944.5,0.25,95,110.0
6350,G#2,2944.75,0.25,95,110.0
6351,F#2,2945.0,0.25,95,110.0
6352,D2,2945.0,0.25,95,110.0
6353,F#2,2945.25,0.25,95,110.0
6354,G#2,2945.5,0.25,95,110.0
6355,G#2,2945.75,0.25,95,110.0
6356,F#2,2946.0,0.25,95,110.0
6357,C2,2946.0,0.25,95,110.0
6358,C#3,2946.0,0.25,95,110.0
6359,F#2,2946.25,0.25,95,110.0
6360,G#2,2946.5,0.25,95,110.0
6361,G#2,2946.75,0.25,95,110.0
6362,F#2,2947.0,0.25,95,110.0
6363,D2,2947.0,0.25,95,110.0
6364,F#2,2947.25,0.25,95,110.0
6365,G#2,2947.5,0.25,95,110.0
6366,G#2,2947.75,0.25,95,110.0
6367,F#2,2948.0,0.25,95,110.0
6368,C2,2948.0,0.25,95,110.0
6369,F#2,2948.25,3/20,95,110.0
6370,F#2,2948.4,1/10,95,110.0
6371,G#2,2948.5,0.25,95,110.0
6372,G#2,2948.75,0.25,95,110.0
6373,F#2,2949.0,0.25,95,110.0
6374,D2,2949.0,0.25,95,110.0
6375,F#2,2949.25,0.25,95,110.0
6376,G#2,2949.5,0.25,95,110.0
6377,G#2,2949.75,0.25,95,110.0
6378,F#2,2950.0,0.25,95,110.0
6379,C2,2950.0,0.25,95,110.0
6380,F#2,2950.25,0.25,95,110.0
6381,G#2,2950.5,0.25,95,110.0
6382,G#2,2950.75,0.25,95,110.0
6383,F#2,2951.0,0.25,95,110.0
6384,D2,2951.0,0.25,95,110.0
6385,F#2,2951.25,0.25,95,110.0
6386,G#2,2951.5,0.25,95,110.0
6387,G#2,2951.75,0.25,95,110.0
6388,F#2,2952.0,0.25,95,110.0
6389,C2,2952.0,0.25,95,110.0
6390,F#2,2952.25,3/20,95,110.0
6391,F#2,2952.4,1/10,95,110.0
6392,G#2,2952.5,0.25,95,110.0
6393,G#2,2952.75,0.25,95,110.0
6394,F#2,2953.0,0.25,95,110.0
6395,D2,2953.0,0.25,95,110.0
6396,F#2,2953.25,0.25,95,110.0
6397,G#2,2953.5,0.25,95,110.0
6398,G#2,2953.75,0.25,95,110.0
6399,F#2,2954.0,0.25,95,110.0
6400,C2,2954.0,0.25,95,110.0
6401,F#2,2954.25,0.25,95,110.0
6402,G#2,2954.5,0.25,95,110.0
6403,G#2,2954.75,0.25,95,110.0
6404,F#2,2955.0,0.25,95,110.0
6405,D2,2955.0,0.25,95,110.0
6406,F#2,2955.25,0.25,95,110.0
6407,G#2,2955.5,0.25,95,110.0
6408,G#2,2955.75,0.25,95,110.0
6409,F#2,2956.0,0.25,95,110.0
6410,C2,2956.0,0.25,95,110.0
6411,F#2,2956.25,3/20,95,110.0
6412,F#2,2956.4,1/10,95,110.0
6413,G#2,2956.5,0.25,95,110.0
6414,G#2,2956.75,0.25,95,110.0
6415,F#2,2957.0,0.25,95,110.0
6416,D2,2957.0,0.25,95,110.0
6417,F#2,2957.25,0.25,95,110.0
6418,G#2,2957.5,0.25,95,110.0
6419,G#2,2957.75,0.25,95,110.0
6420,F#2,2958.0,0.25,95,110.0
6421,C2,2958.0,0.25,95,110.0
6422,F#2,2958.25,0.25,95,110.0
6423,G#2,2958.5,0.25,95,110.0
6424,G#2,2958.75,0.25,95,110.0
6425,F#2,2959.0,0.25,95,110.0
6426,D2,2959.0,0.25,95,110.0
6427,F#2,2959.25,0.25,95,110.0
6428,G#2,2959.5,0.25,95,110.0
6429,G#2,2959.75,0.25,95,110.0
6430,F#2,2960.0,0.25,95,110.0
6431,C2,2960.0,0.25,95,110.0
6432,F#2,2960.25,3/20,95,110.0
6433,F#2,2960.4,1/10,95,110.0
6434,G#2,2960.5,0.25,95,110.0
6435,G#2,2960.75,0.25,95,110.0
6436,F#2,2961.0,0.25,95,110.0
6437,D2,2961.0,0.25,95,110.0
6438,F#2,2961.25,0.25,95,110.0
6439,G#2,2961.5,0.25,95,110.0
6440,G#2,2961.75,0.25,95,110.0
6441,F#2,2962.0,0.25,95,110.0
6442,C2,2962.0,0.25,95,110.0
6443,C#3,2962.0,0.25,95,110.0
6444,F#2,2962.25,0.25,95,110.0
6445,G#2,2962.5,0.25,95,110.0
6446,G#2,2962.75,0.25,95,110.0
6447,F#2,2963.0,0.25,95,110.0
6448,D2,2963.0,0.25,95,110.0
6449,F#2,2963.25,0.25,95,110.0
6450,G#2,2963.5,0.25,95,110.0
6451,G#2,2963.75,0.25,95,110.0
6452,F#2,2964.0,0.25,95,110.0
6453,C2,2964.0,0.25,95,110.0
6454,F#2,2964.25,3/20,95,110.0
6455,F#2,2964.4,1/10,95,110.0
6456,G#2,2964.5,0.25,95,110.0
6457,G#2,2964.75,0.25,95,110.0
6458,F#2,2965.0,0.25,95,110.0
6459,D2,2965.0,0.25,95,110.0
6460,F#2,2965.25,0.25,95,110.0
6461,G#2,2965.5,0.25,95,110.0
6462,G#2,2965.75,0.25,95,110.0
6463,F#2,2966.0,0.25,95,110.0
6464,C2,2966.0,0.25,95,110.0
6465,F#2,2966.25,0.25,95,110.0
6466,G#2,2966.5,0.25,95,110.0
6467,G#2,2966.75,0.25,95,110.0
6468,F#2,2967.0,0.25,95,110.0
6469,D2,2967.0,0.25,95,110.0
6470,F#2,2967.25,0.25,95,110.0
6471,G#2,2967.5,0.25,95,110.0
6472,G#2,2967.75,0.25,95,110.0
6473,F#2,2968.0,0.25,95,110.0
6474,C2,2968.0,0.25,95,110.0
6475,F#2,2968.25,3/20,95,110.0
6476,F#2,2968.4,1/10,95,110.0
6477,G#2,2968.5,0.25,95,110.0
6478,G#2,2968.75,0.25,95,110.0
6479,F#2,2969.0,0.25,95,110.0
6480,D2,2969.0,0.25,95,110.0
6481,F#2,2969.25,0.25,95,110.0
6482,G#2,2969.5,0.25,95,110.0
6483,G#2,2969.75,0.25,95,110.0
6484,F#2,2970.0,0.25,95,110.0
6485,C2,2970.0,0.25,95,110.0
6486,F#2,2970.25,0.25,95,110.0
6487,G#2,2970.5,0.25,95,110.0
6488,G#2,2970.75,0.25,95,110.0
6489,F#2,2971.0,0.25,95,110.0
6490,D2,2971.0,0.25,95,110.0
6491,F#2,2971.25,0.25,95,110.0
6492,G#2,2971.5,0.25,95,110.0
6493,G#2,2971.75,0.25,95,110.0
6494,F#2,2972.0,0.25,95,110.0
6495,C2,2972.0,0.25,95,110.0
6496,F#2,2972.25,3/20,95,110.0
6497,F#2,2972.4,1/10,95,110.0
6498,G#2,2972.5,0.25,95,110.0
6499,G#2,2972.75,0.25,95,110.0
6500,F#2,2973.0,0.25,95,110.0
6501,D2,2973.0,0.25,95,110.0
6502,F#2,2973.25,0.25,95,110.0
6503,G#2,2973.5,0.25,95,110.0
6504,G#2,2973.75,0.25,95,110.0
6505,F#2,2974.0,0.25,95,110.0
6506,C2,2974.0,0.25,95,110.0
6507,F#2,2974.25,0.25,95,110.0
6508,G#2,2974.5,0.25,95,110.0
6509,G#2,2974.75,0.25,95,110.0
6510,F#2,2975.0,0.25,95,110.0
6511,D2,2975.0,0.25,95,110.0
6512,F#2,2975.25,0.25,95,110.0
6513,G#2,2975.5,0.25,95,110.0
6514,G#2,2975.75,0.25,95,110.0
6515,F#2,2976.0,0.25,95,110.0
6516,C2,2976.0,0.25,95,110.0
6517,F#2,2976.25,3/20,95,110.0
6518,F#2,2976.4,1/10,95,110.0
6519,G#2,2976.5,0.25,95,110.0
6520,G#2,2976.75,0.25,95,110.0
6521,F#2,2977.0,0.25,95,110.0
6522,D2,2977.0,0.25,95,110.0
6523,F#2,2977.25,0.25,95,110.0
6524,G#2,2977.5,0.25,95,110.0
6525,G#2,2977.75,0.25,95,110.0
6526,F#2,2978.0,0.25,95,110.0
6527,C2,2978.0,0.25,95,110.0
6528,C#3,2978.0,0.25,95,110.0
6529,F#2,2978.25,0.25,95,110.0
6530,G#2,2978.5,0.25,95,110.0
6531,G#2,2978.75,0.25,95,110.0
6532,F#2,2979.0,0.25,95,110.0
6533,D2,2979.0,0.25,95,110.0
6534,F#2,2979.25,0.25,95,110.0
6535,G#2,2979.5,0.25,95,110.0
6536,G#2,2979.75,0.25,95,110.0
6537,F#2,2980.0,0.25,95,110.0
6538,C2,2980.0,0.25,95,110.0
6539,F#2,2980.25,3/20,95,110.0
6540,F#2,2980.4,1/10,95,110.0
6541,G#2,2980.5,0.25,95,110.0
6542,G#2,2980.75,0.25,95,110.0
6543,F#2,2981.0,0.25,95,110.0
6544,D2,2981.0,0.25,95,110.0
6545,F#2,2981.25,0.25,95,110.0
6546,G#2,2981.5,0.25,95,110.0
6547,G#2,2981.75,0.25,95,110.0
6548,F#2,2982.0,0.25,95,110.0
6549,C2,2982.0,0.25,95,110.0
6550,F#2,2982.25,0.25,95,110.0
6551,G#2,2982.5,0.25,95,110.0
6552,G#2,2982.75,0.25,95,110.0
6553,F#2,2983.0,0.25,95,110.0
6554,D2,2983.0,0.25,95,110.0
6555,F#2,2983.25,0.25,95,110.0
6556,G#2,2983.5,0.25,95,110.0
6557,G#2,2983.75,0.25,95,110.0
6558,F#2,2984.0,0.25,95,110.0
6559,C2,2984.0,0.25,95,110.0
6560,F#2,2984.25,3/20,95,110.0
6561,F#2,2984.4,1/10,95,110.0
6562,G#2,2984.5,0.25,95,110.0
6563,G#2,2984.75,0.25,95,110.0
6564,F#2,2985.0,0.25,95,110.0
6565,D2,2985.0,0.25,95,110.0
6566,F#2,2985.25,0.25,95,110.0
6567,G#2,2985.5,0.25,95,110.0
6568,G#2,2985.75,0.25,95,110.0
