,note_name,start_time,duration,velocity,tempo
0,G2,0.188,19/250,2,160.0
1,E3,0.427,0.125,2,160.0
2,F0,0.555,0.195,2,160.0
3,E4,0.927,1/100,2,160.0
4,B-0,1.039,89/1000,2,160.0
5,E-4,1.211,169/1000,2,160.0
6,B-4,1.396,103/500,2,160.0
7,E3,1.69,159/1000,2,160.0
8,C#2,2.021,91/500,2,160.0
9,G1,2.406,0.195,2,160.0
10,C5,2.792,0.055,2,160.0
11,G#-1,2.94,13/250,2,160.0
12,E-3,3.195,0.172,2,160.0
13,C#-1,3.547,3/50,2,160.0
14,C0,3.635,73/500,2,160.0
15,E-0,3.878,81/1000,2,160.0
16,E2,4.0,1.5,83,160.0
17,G#2,4.0,1.0,72,160.0
18,E5,4.0,4.0,33,160.0
19,B3,4.0,0.5,99,160.0
20,E4,4.0,0.5,99,160.0
21,G#4,4.0,0.5,99,160.0
22,B4,4.0,0.5,99,160.0
23,E-3,4.055,0.156,2,160.0
24,G1,4.37,0.031,2,160.0
25,B4,4.5,1.0,83,160.0
26,B3,4.5,0.5,31,160.0
27,E4,4.5,0.5,31,160.0
28,G#4,4.5,0.5,31,160.0
29,D1,4.547,0.133,2,160.0
30,E-0,4.87,61/500,2,160.0
31,B4,5.0,1.0,31,160.0
32,B3,5.0,0.5,34,160.0
33,G#4,5.0,0.5,34,160.0
34,D5,5.135,193/1000,2,160.0
35,F2,5.495,13/200,2,160.0
36,E2,5.5,0.5,83,160.0
37,E3,5.5,0.5,83,160.0
38,G#3,5.5,0.5,83,160.0
39,E4,5.5,0.5,83,160.0
40,A3,5.716,26/125,2,160.0
41,E-1,5.969,13/100,2,160.0
42,E3,6.0,0.5,44,160.0
43,B2,6.0,0.5,44,160.0
44,C#2,6.128,3/25,2,160.0
45,D-1,6.312,57/1000,2,160.0
46,E5,6.477,0.094,2,160.0
47,G#3,6.5,0.5,49,160.0
48,B3,6.5,0.5,49,160.0
49,G#4,6.5,0.5,49,160.0
50,E2,6.5,0.5,49,160.0
51,G0,6.654,151/1000,2,160.0
52,D0,6.935,81/1000,2,160.0
53,G#3,7.0,0.5,44,160.0
54,B3,7.0,0.5,44,160.0
55,G#-1,7.188,26/125,2,160.0
56,B3,7.5,0.5,31,160.0
57,E-4,7.5,0.5,31,160.0
58,F#4,7.5,0.5,31,160.0
59,G#2,7.5,0.5,31,160.0
60,C#-1,7.586,0.102,2,160.0
61,D4,7.706,13/1000,2,160.0
62,F5,7.854,0.062,2,160.0
63,F#3,7.924,19/250,2,160.0
64,F#2,8.0,1.5,83,160.0
65,B2,8.0,1.0,72,160.0
66,E-5,8.0,4.0,49,160.0
67,F#3,8.0,3/1000,2,160.0
68,B3,8.0,0.5,99,160.0
69,E-4,8.0,0.5,99,160.0
70,F#4,8.0,0.5,99,160.0
71,B4,8.0,0.5,99,160.0
72,G#3,8.206,14/125,2,160.0
73,E-1,8.419,1/200,2,160.0
74,B3,8.5,0.5,31,160.0
75,E-4,8.5,0.5,31,160.0
76,F#4,8.5,0.5,31,160.0
77,C2,8.581,1/100,2,160.0
78,A1,8.742,23/200,2,160.0
79,B2,9.0,0.5,33,160.0
80,B3,9.0,0.5,33,160.0
81,E-4,9.0,0.5,33,160.0
82,B2,9.052,91/500,2,160.0
83,D0,9.404,0.102,2,160.0
84,F#2,9.5,0.5,83,160.0
85,B3,9.5,0.5,83,160.0
86,F#4,9.5,0.5,83,160.0
87,B4,9.5,0.5,83,160.0
88,B3,10.0,0.5,58,160.0
89,B2,10.5,0.5,49,160.0
90,F#4,10.5,0.5,49,160.0
91,E-4,10.5,0.5,49,160.0
92,B3,10.5,0.5,49,160.0
93,F#2,11.0,0.5,31,160.0
94,B3,11.0,0.5,31,160.0
95,E-4,11.0,0.5,31,160.0
96,B2,11.5,0.5,31,160.0
97,B3,11.5,0.5,31,160.0
98,E-4,11.5,0.5,31,160.0
99,F#4,11.5,0.5,31,160.0
100,A2,12.0,1.0,72,160.0
101,C#5,12.0,4.0,70,160.0
102,A3,12.0,0.5,99,160.0
103,C#4,12.0,0.5,99,160.0
104,E4,12.0,0.5,99,160.0
105,A4,12.0,0.5,99,160.0
106,A3,12.5,0.5,31,160.0
107,C#4,12.5,0.5,31,160.0
108,E4,12.5,0.5,31,160.0
109,A2,13.0,0.5,33,160.0
110,A3,13.0,0.5,33,160.0
111,C#4,13.0,0.5,33,160.0
112,A2,13.5,0.5,83,160.0
113,E4,13.5,0.5,83,160.0
114,A4,13.5,0.5,83,160.0
115,E3,13.5,0.5,83,160.0
116,A2,14.0,0.5,44,160.0
117,E3,14.0,0.5,44,160.0
118,A2,14.5,0.5,49,160.0
119,A3,14.5,0.5,49,160.0
120,C#4,14.5,0.5,49,160.0
121,E4,14.5,0.5,49,160.0
122,A3,15.0,0.5,44,160.0
123,B2,15.0,0.5,44,160.0
124,A2,15.5,0.5,31,160.0
125,A3,15.5,0.5,31,160.0
126,C#4,15.5,0.5,31,160.0
127,E4,15.5,0.5,31,160.0
128,F#2,16.0,1.5,83,160.0
129,B2,16.0,1.0,72,160.0
130,E-5,16.0,4.0,70,160.0
131,B3,16.0,0.5,99,160.0
132,E-4,16.0,0.5,99,160.0
133,F#4,16.0,0.5,99,160.0
134,B4,16.0,0.5,99,160.0
135,B3,16.5,0.5,32,160.0
136,F#4,16.5,0.5,32,160.0
137,B2,17.0,0.5,33,160.0
138,B3,17.0,0.5,33,160.0
139,E-4,17.0,0.5,33,160.0
140,F#2,17.5,0.5,83,160.0
141,F#4,17.5,0.5,83,160.0
142,E-4,17.5,0.5,83,160.0
143,B3,17.5,0.5,83,160.0
144,B3,18.0,0.5,58,160.0
145,B2,18.5,0.5,49,160.0
146,F#4,18.5,0.5,49,160.0
147,E-4,18.5,0.5,49,160.0
148,B3,18.5,0.5,49,160.0
149,F#2,19.0,0.5,31,160.0
150,B2,19.0,0.5,31,160.0
151,E-4,19.0,0.5,31,160.0
152,B2,19.5,0.5,31,160.0
153,B3,19.5,0.5,31,160.0
154,E-4,19.5,0.5,31,160.0
155,F#4,19.5,0.5,31,160.0
156,E2,20.0,1.5,83,160.0
157,G#2,20.0,1.0,72,160.0
158,E5,20.0,4.0,70,160.0
159,B3,20.0,0.5,99,160.0
160,E4,20.0,0.5,99,160.0
161,G#4,20.0,0.5,99,160.0
162,B4,20.0,0.5,99,160.0
163,E3,20.062,3.938,34,160.0
164,B4,20.5,1.0,83,160.0
165,B3,20.5,0.5,31,160.0
166,E4,20.5,0.5,31,160.0
167,G#4,20.5,0.5,31,160.0
168,B4,21.0,1.0,31,160.0
169,B3,21.0,0.5,34,160.0
170,G#4,21.0,0.5,34,160.0
171,E2,21.5,0.5,83,160.0
172,E3,21.5,0.5,83,160.0
173,G#3,21.5,0.5,83,160.0
174,E4,21.5,0.5,83,160.0
175,E3,22.0,0.5,44,160.0
176,B2,22.0,0.5,44,160.0
177,G#3,22.5,0.5,49,160.0
178,B3,22.5,0.5,49,160.0
179,G#4,22.5,0.5,49,160.0
180,E2,22.5,0.5,49,160.0
181,G#3,23.0,0.5,44,160.0
182,B3,23.0,0.5,44,160.0
183,B3,23.5,0.5,31,160.0
184,E-4,23.5,0.5,31,160.0
185,F#4,23.5,0.5,31,160.0
186,G#2,23.5,0.5,31,160.0
187,F#2,24.0,1.5,83,160.0
188,B2,24.0,1.0,72,160.0
189,E-5,24.0,4.0,70,160.0
190,E-3,24.0,4.0,53,160.0
191,E3,24.0,0.062,34,160.0
192,B3,24.0,0.5,99,160.0
193,E-4,24.0,0.5,99,160.0
194,F#4,24.0,0.5,99,160.0
195,B4,24.0,0.5,99,160.0
196,B3,24.5,0.5,31,160.0
197,E-4,24.5,0.5,31,160.0
198,F#4,24.5,0.5,31,160.0
199,B2,25.0,0.5,33,160.0
200,B3,25.0,0.5,33,160.0
201,E-4,25.0,0.5,33,160.0
202,B3,25.5,0.5,83,160.0
203,F#4,25.5,0.5,83,160.0
204,B4,25.5,0.5,83,160.0
205,E2,25.5,0.5,83,160.0
206,B3,26.0,0.5,58,160.0
207,B2,26.5,0.5,49,160.0
208,F#4,26.5,0.5,49,160.0
209,E-4,26.5,0.5,49,160.0
210,B3,26.5,0.5,49,160.0
211,F#2,27.0,0.5,31,160.0
212,B3,27.0,0.5,31,160.0
213,E-4,27.0,0.5,31,160.0
214,B2,27.5,0.5,31,160.0
215,B3,27.5,0.5,31,160.0
216,E-4,27.5,0.5,31,160.0
217,F#4,27.5,0.5,31,160.0
218,A2,28.0,1.0,72,160.0
219,E2,28.0,1.5,83,160.0
220,C#5,28.0,4.0,70,160.0
221,C#3,28.0,4.0,70,160.0
222,A3,28.0,0.5,99,160.0
223,C#4,28.0,0.5,99,160.0
224,E4,28.0,0.5,99,160.0
225,A4,28.0,0.5,99,160.0
226,A3,28.5,0.5,31,160.0
227,C#4,28.5,0.5,31,160.0
228,E4,28.5,0.5,31,160.0
229,A2,29.0,0.5,33,160.0
230,A3,29.0,0.5,33,160.0
231,C#4,29.0,0.5,33,160.0
232,A2,29.5,0.5,83,160.0
233,E4,29.5,0.5,83,160.0
234,A4,29.5,0.5,83,160.0
235,E3,29.5,0.5,83,160.0
236,A2,30.0,0.5,44,160.0
237,E3,30.0,0.5,44,160.0
238,A2,30.5,0.5,49,160.0
239,A3,30.5,0.5,49,160.0
240,C#4,30.5,0.5,49,160.0
241,E4,30.5,0.5,49,160.0
242,A3,31.0,0.5,44,160.0
243,B2,31.0,0.5,44,160.0
244,A2,31.5,0.5,31,160.0
245,A3,31.5,0.5,31,160.0
246,C#4,31.5,0.5,31,160.0
247,E4,31.5,0.5,31,160.0
248,F#2,32.0,1.5,83,160.0
249,B2,32.0,1.0,72,160.0
250,E-5,32.0,4.0,70,160.0
251,E-3,32.0,4.0,70,160.0
252,B3,32.0,0.5,99,160.0
253,E-4,32.0,0.5,99,160.0
254,F#4,32.0,0.5,99,160.0
255,B4,32.0,0.5,99,160.0
256,B3,32.5,0.5,31,160.0
257,E-4,32.5,0.5,31,160.0
258,F#4,32.5,0.5,31,160.0
259,B2,33.0,0.5,33,160.0
260,B3,33.0,0.5,33,160.0
261,E-4,33.0,0.5,33,160.0
262,F#2,33.5,0.5,83,160.0
263,F#4,33.5,0.5,83,160.0
264,E-4,33.5,0.5,83,160.0
265,B3,33.5,0.5,83,160.0
266,B3,34.0,0.5,58,160.0
267,B2,34.5,0.5,49,160.0
268,F#4,34.5,0.5,49,160.0
269,E-4,34.5,0.5,49,160.0
270,B3,34.5,0.5,49,160.0
271,F#2,35.0,0.5,31,160.0
272,B2,35.0,0.5,31,160.0
273,E-4,35.0,0.5,31,160.0
274,B2,35.5,0.5,31,160.0
275,B3,35.5,0.5,31,160.0
276,E-4,35.5,0.5,31,160.0
277,F#4,35.5,0.5,31,160.0
278,E4,36.0,1.0,105,160.0
279,E2,36.0,1.0,105,160.0
280,B2,36.0,0.5,90,160.0
281,G#3,36.0,0.5,90,160.0
282,E3,36.0,0.5,90,160.0
283,E5,36.094,3.906,50,160.0
284,B2,36.5,0.5,32,160.0
285,G#3,36.5,0.5,32,160.0
286,E4,37.0,1.0,127,160.0
287,A3,37.0,0.5,91,160.0
288,E2,37.0,0.5,91,160.0
289,A2,37.0,0.5,91,160.0
290,C#4,37.0,0.5,91,160.0
291,G#2,37.5,0.5,33,160.0
292,E3,37.5,0.5,33,160.0
293,G#3,37.5,0.5,33,160.0
294,E4,38.0,1.0,127,160.0
295,B3,38.0,0.5,102,160.0
296,G#2,38.0,0.5,102,160.0
297,E2,38.0,0.5,102,160.0
298,E3,38.0,0.5,102,160.0
299,G#2,38.5,0.5,44,160.0
300,E3,38.5,0.5,44,160.0
301,B2,39.0,0.5,31,160.0
302,G#3,39.5,0.5,31,160.0
303,E2,39.5,0.5,31,160.0
304,B2,39.5,0.5,31,160.0
305,E3,39.5,0.5,31,160.0
306,B4,40.0,4.0,50,160.0
307,E5,40.0,4.0,50,160.0
308,E4,40.0,1.0,100,160.0
309,A2,40.0,1.0,100,160.0
310,E3,40.0,0.5,90,160.0
311,A3,40.0,0.5,90,160.0
312,C#4,40.0,0.5,90,160.0
313,G#2,40.5,0.5,32,160.0
314,G#3,40.5,0.5,32,160.0
315,E4,41.0,1.0,127,160.0
316,E2,41.0,0.5,56,160.0
317,E3,41.0,0.5,56,160.0
318,A3,41.0,0.5,56,160.0
319,B2,41.5,0.5,36,160.0
320,G#3,41.5,0.5,36,160.0
321,C#4,42.0,0.5,96,160.0
322,E4,42.0,0.5,96,160.0
323,E3,42.0,0.5,96,160.0
324,E2,42.0,0.5,96,160.0
325,E4,42.5,1.0,127,160.0
326,E3,42.5,0.5,58,160.0
327,G#3,42.5,0.5,58,160.0
328,G#2,42.5,0.5,58,160.0
329,E2,42.5,0.5,58,160.0
330,E2,43.0,0.5,86,160.0
331,G#3,43.0,0.5,86,160.0
332,G#2,43.5,0.5,31,160.0
333,G#3,43.5,0.5,31,160.0
334,E2,43.5,0.5,31,160.0
335,B2,43.5,0.5,31,160.0
336,E2,44.0,1.0,83,160.0
337,E5,44.0,4.0,50,160.0
338,B2,44.0,0.5,100,160.0
339,E4,44.0,0.5,100,160.0
340,G#3,44.0,0.5,100,160.0
341,B2,44.5,0.5,32,160.0
342,G#3,44.5,0.5,32,160.0
343,A3,45.0,0.5,98,160.0
344,E2,45.0,0.5,98,160.0
345,A2,45.0,0.5,98,160.0
346,E3,45.0,0.5,98,160.0
347,C#4,45.0,0.5,98,160.0
348,E4,45.0,0.5,98,160.0
349,G#2,45.5,0.5,34,160.0
350,G#3,45.5,0.5,34,160.0
351,E3,46.0,0.5,80,160.0
352,B2,46.0,0.5,80,160.0
353,B3,46.0,0.5,80,160.0
354,E2,46.0,0.5,80,160.0
355,E4,46.0,0.5,80,160.0
356,G#2,46.5,0.5,44,160.0
357,E3,46.5,0.5,44,160.0
358,B2,47.0,0.5,44,160.0
359,E3,47.0,0.5,44,160.0
360,G#3,47.5,0.5,31,160.0
361,E2,47.5,0.5,31,160.0
362,B2,47.5,0.5,31,160.0
363,E3,47.5,0.5,31,160.0
364,E5,48.0,4.0,50,160.0
365,E2,48.0,1.0,78,160.0
366,A2,48.0,1.0,78,160.0
367,E3,48.0,0.5,99,160.0
368,A3,48.0,0.5,99,160.0
369,C#4,48.0,0.5,99,160.0
370,E4,48.0,0.5,99,160.0
371,G#2,48.5,0.5,32,160.0
372,G#3,48.5,0.5,32,160.0
373,E2,49.0,0.5,62,160.0
374,A2,49.0,0.5,62,160.0
375,C#4,49.0,0.5,62,160.0
376,E4,49.0,0.5,62,160.0
377,G#2,49.458,1.0,73,160.0
378,E2,49.458,1.0,73,160.0
379,B2,49.458,1.0,73,160.0
380,E3,49.458,1.0,73,160.0
381,G#3,49.458,1.0,73,160.0
382,E4,49.5,1.5,104,160.0
383,A2,50.5,0.5,36,160.0
384,G#3,50.5,0.5,36,160.0
385,G#3,51.0,0.5,60,160.0
386,B2,51.0,0.5,60,160.0
387,G#3,51.5,0.5,31,160.0
388,E2,51.5,0.5,31,160.0
389,E3,51.5,0.5,31,160.0
390,B4,52.0,4.0,50,160.0
391,E5,52.0,0.094,50,160.0
392,B2,52.0,99/250,42,160.0
393,E4,52.0,1.0,105,160.0
394,E2,52.0,1.0,105,160.0
395,B2,52.0,0.5,90,160.0
396,G#3,52.0,0.5,90,160.0
397,E3,52.0,0.5,90,160.0
398,B2,52.5,0.5,32,160.0
399,G#3,52.5,0.5,32,160.0
400,E-3,52.51,0.438,38,160.0
401,E4,53.0,1.0,127,160.0
402,A3,53.0,0.5,91,160.0
403,E2,53.0,0.5,91,160.0
404,A2,53.0,0.5,91,160.0
405,C#4,53.0,0.5,91,160.0
406,E3,53.052,737/250,54,160.0
407,G#2,53.5,0.5,33,160.0
408,E3,53.5,0.5,33,160.0
409,G#3,53.5,0.5,33,160.0
410,E4,54.0,1.0,127,160.0
411,B3,54.0,0.5,102,160.0
412,G#2,54.0,0.5,102,160.0
413,E2,54.0,0.5,102,160.0
414,E3,54.0,0.5,102,160.0
415,G#2,54.5,0.5,44,160.0
416,E3,54.5,0.5,44,160.0
417,B2,55.0,0.5,31,160.0
418,G#3,55.5,0.5,31,160.0
419,E2,55.5,0.5,31,160.0
420,B2,55.5,0.5,31,160.0
421,E3,55.5,0.5,31,160.0
422,E3,56.0,13/250,54,160.0
423,E4,56.0,1.0,100,160.0
424,A2,56.0,1.0,100,160.0
425,E3,56.0,0.5,90,160.0
426,A3,56.0,0.5,90,160.0
427,C#4,56.0,0.5,90,160.0
428,E3,56.5,0.5,75,160.0
429,G#2,56.5,0.5,32,160.0
430,G#3,56.5,0.5,32,160.0
431,E4,57.0,1.0,127,160.0
432,F#3,57.0,0.5,75,160.0
433,E2,57.0,0.5,56,160.0
434,E3,57.0,0.5,56,160.0
435,A3,57.0,0.5,56,160.0
436,G#3,57.5,0.5,75,160.0
437,B2,57.5,0.5,36,160.0
438,G#3,57.5,0.5,36,160.0
439,F#3,58.0,0.5,75,160.0
440,C#4,58.0,0.5,96,160.0
441,E4,58.0,0.5,96,160.0
442,E3,58.0,0.5,96,160.0
443,E2,58.0,0.5,96,160.0
444,E4,58.5,1.0,127,160.0
445,E3,58.5,1.0,75,160.0
446,E3,58.5,0.5,58,160.0
447,G#3,58.5,0.5,58,160.0
448,G#2,58.5,0.5,58,160.0
449,E2,58.5,0.5,58,160.0
450,E2,59.0,0.5,86,160.0
451,G#3,59.0,0.5,86,160.0
452,G#2,59.5,0.5,31,160.0
453,G#3,59.5,0.5,31,160.0
454,E2,59.5,0.5,31,160.0
455,B2,59.5,0.5,31,160.0
456,E2,60.0,1.0,83,160.0
457,B2,60.0,2.5,75,160.0
458,B2,60.0,0.5,100,160.0
459,E4,60.0,0.5,100,160.0
460,G#3,60.0,0.5,100,160.0
461,B2,60.5,0.5,32,160.0
462,G#3,60.5,0.5,32,160.0
463,E4,60.552,0.5,106,160.0
464,F#4,61.0,0.5,104,160.0
465,A3,61.0,0.5,98,160.0
466,E2,61.0,0.5,98,160.0
467,A2,61.0,0.5,98,160.0
468,E3,61.0,0.5,98,160.0
469,C#4,61.0,0.5,98,160.0
470,E4,61.0,0.5,98,160.0
471,G#4,61.5,0.5,107,160.0
472,G#2,61.5,0.5,34,160.0
473,G#3,61.5,0.5,34,160.0
474,F#4,62.0,0.5,106,160.0
475,E3,62.0,0.5,80,160.0
476,B2,62.0,0.5,80,160.0
477,B3,62.0,0.5,80,160.0
478,E2,62.0,0.5,80,160.0
479,E4,62.0,0.5,80,160.0
480,E4,62.5,1.0,111,160.0
481,G#2,62.5,0.5,44,160.0
482,E3,62.5,0.5,44,160.0
483,B2,63.0,0.5,44,160.0
484,E3,63.0,0.5,44,160.0
485,G#3,63.5,0.5,31,160.0
486,E2,63.5,0.5,31,160.0
487,B2,63.5,0.5,31,160.0
488,E3,63.5,0.5,31,160.0
489,B3,64.0,2.5,98,160.0
490,E2,64.0,1.0,78,160.0
491,A2,64.0,1.0,78,160.0
492,E3,64.0,0.5,99,160.0
493,A3,64.0,0.5,99,160.0
494,C#4,64.0,0.5,99,160.0
495,E4,64.0,0.5,99,160.0
496,G#2,64.5,0.5,32,160.0
497,G#3,64.5,0.5,32,160.0
498,E2,65.0,0.5,62,160.0
499,A2,65.0,0.5,62,160.0
500,C#4,65.0,0.5,62,160.0
501,E4,65.0,0.5,62,160.0
502,G#2,65.458,1.0,73,160.0
503,E2,65.458,1.0,73,160.0
504,B2,65.458,1.0,73,160.0
505,E3,65.458,1.0,73,160.0
506,G#3,65.458,1.0,73,160.0
507,E4,65.5,1.5,104,160.0
508,A2,66.5,0.5,36,160.0
509,G#3,66.5,0.5,36,160.0
510,G#3,67.0,0.5,60,160.0
511,B2,67.0,0.5,60,160.0
512,G#3,67.5,0.5,77,160.0
513,G#3,67.5,0.5,111,160.0
514,G#3,67.5,0.5,31,160.0
515,E2,67.5,0.5,31,160.0
516,E3,67.5,0.5,31,160.0
517,B3,68.0,0.812,83,160.0
518,B3,68.0,0.812,111,160.0
519,B2,68.0,0.5,85,160.0
520,F#2,68.0,0.5,85,160.0
521,F#3,68.0,0.5,85,160.0
522,B3,68.0,0.5,85,160.0
523,E-4,68.0,0.5,85,160.0
524,B2,68.115,2.0,87,160.0
525,F#3,68.5,0.5,31,160.0
526,B3,68.5,0.5,31,160.0
527,B2,68.5,0.5,31,160.0
528,E4,69.0,0.5,87,160.0
529,E4,69.0,0.5,111,160.0
530,A3,69.0,0.5,31,160.0
531,F#3,69.0,0.5,31,160.0
532,F#4,69.5,0.5,78,160.0
533,F#4,69.5,0.5,111,160.0
534,B2,69.5,0.5,83,160.0
535,F#3,69.5,0.5,83,160.0
536,B3,69.5,0.5,83,160.0
537,E-4,69.5,0.5,83,160.0
538,F#3,70.0,0.5,58,160.0
539,F#4,70.0,833/1000,100,160.0
540,F#4,70.0,833/1000,111,160.0
541,B2,70.5,0.5,49,160.0
542,F#3,70.5,0.5,49,160.0
543,B3,70.5,0.5,49,160.0
544,E-4,70.5,0.5,49,160.0
545,F#4,71.0,917/1000,122,160.0
546,F#4,71.0,917/1000,111,160.0
547,B2,71.0,0.5,31,160.0
548,F#3,71.0,0.5,31,160.0
549,F#2,71.5,0.5,31,160.0
550,F#3,71.5,0.5,31,160.0
551,E-4,71.5,0.5,31,160.0
552,B2,71.5,0.5,31,160.0
553,C#3,72.0,1.0,83,160.0
554,E4,72.0,0.5,111,160.0
555,C#4,72.0,0.5,86,160.0
556,A3,72.0,0.5,86,160.0
557,E3,72.0,0.5,86,160.0
558,A2,72.0,0.5,86,160.0
559,E4,72.021,479/1000,55,160.0
560,F#4,72.5,0.5,111,160.0
561,A2,72.5,0.5,31,160.0
562,E3,72.5,0.5,31,160.0
563,A3,72.5,0.5,31,160.0
564,F#4,72.51,479/1000,56,160.0
565,F#4,73.0,0.5,111,160.0
566,A3,73.0,0.5,31,160.0
567,F#3,73.0,0.5,31,160.0
568,F#4,73.021,479/1000,61,160.0
569,G#4,73.5,1333/1000,127,160.0
570,G#4,73.5,1333/1000,111,160.0
571,B2,73.5,0.5,83,160.0
572,F#3,73.5,0.5,83,160.0
573,B3,73.5,0.5,83,160.0
574,E-4,73.5,0.5,83,160.0
575,F#3,74.0,0.5,58,160.0
576,G#4,74.5,0.5,49,160.0
577,B2,74.5,0.5,49,160.0
578,F#3,74.5,0.5,49,160.0
579,B3,74.5,0.5,49,160.0
580,F#4,74.979,917/1000,76,160.0
581,F#4,75.0,917/1000,111,160.0
582,E-5,75.0,0.5,31,160.0
583,B2,75.0,0.5,31,160.0
584,B3,75.5,0.5,31,160.0
585,E-4,75.5,0.5,31,160.0
586,F#4,75.5,0.5,31,160.0
587,F#2,75.5,0.5,31,160.0
588,B2,75.5,0.5,31,160.0
589,E2,76.0,1.5,83,160.0
590,G#2,76.0,1.0,72,160.0
591,B2,76.0,0.5,99,160.0
592,E4,76.0,0.5,99,160.0
593,G#3,76.0,0.5,99,160.0
594,E3,76.0,0.5,99,160.0
595,E4,76.25,2.0,111,160.0
596,E4,76.302,2.0,32,160.0
597,B2,76.5,0.5,31,160.0
598,E3,76.5,0.5,31,160.0
599,G#3,76.5,0.5,31,160.0
600,G#3,77.0,0.5,33,160.0
601,G#2,77.0,0.5,33,160.0
602,E3,77.0,0.5,33,160.0
603,E2,77.5,0.5,83,160.0
604,E3,77.5,0.5,83,160.0
605,G#3,77.5,0.5,83,160.0
606,E4,77.5,0.5,83,160.0
607,E3,78.0,0.5,44,160.0
608,B2,78.0,0.5,44,160.0
609,E2,78.5,0.5,49,160.0
610,G#3,78.5,0.5,49,160.0
611,E3,78.5,0.5,49,160.0
612,E4,78.5,0.5,49,160.0
613,G#4,79.0,0.5,44,160.0
614,B2,79.0,0.5,44,160.0
615,E3,79.5,0.5,31,160.0
616,E4,79.5,0.5,31,160.0
617,B4,79.5,0.5,31,160.0
618,G#2,79.5,0.5,31,160.0
619,E2,80.0,1.5,83,160.0
620,G#2,80.0,1.0,72,160.0
621,B2,80.0,0.5,99,160.0
622,E4,80.0,0.5,99,160.0
623,G#3,80.0,0.5,99,160.0
624,E3,80.0,0.5,99,160.0
625,B2,80.5,0.5,31,160.0
626,E3,80.5,0.5,31,160.0
627,G#3,80.5,0.5,31,160.0
628,G#3,81.0,0.5,33,160.0
629,G#2,81.0,0.5,33,160.0
630,E3,81.0,0.5,33,160.0
631,E2,81.5,0.5,83,160.0
632,E3,81.5,0.5,83,160.0
633,G#3,81.5,0.5,83,160.0
634,E4,81.5,0.5,83,160.0
635,E3,82.0,0.5,58,160.0
636,E2,82.5,0.5,49,160.0
637,G#3,82.5,0.5,49,160.0
638,E3,82.5,0.5,49,160.0
639,E4,82.5,0.5,49,160.0
640,B3,83.0,0.5,52,160.0
641,B3,83.0,0.5,110,160.0
642,E2,83.0,0.5,31,160.0
643,B2,83.0,0.5,31,160.0
644,G#2,83.0,0.5,31,160.0
645,B3,83.5,0.5,59,160.0
646,B3,83.5,0.5,110,160.0
647,G#2,83.5,0.5,31,160.0
648,B2,83.5,0.5,31,160.0
649,E3,83.5,0.5,31,160.0
650,G#3,83.5,0.5,31,160.0
651,B3,84.0,0.5,65,160.0
652,B3,84.0,0.5,110,160.0
653,B2,84.0,0.5,85,160.0
654,F#2,84.0,0.5,85,160.0
655,F#3,84.0,0.5,85,160.0
656,B3,84.0,0.5,85,160.0
657,E-4,84.0,0.5,85,160.0
658,E4,84.5,0.5,55,160.0
659,E4,84.5,0.5,110,160.0
660,F#3,84.5,0.5,31,160.0
661,B3,84.5,0.5,31,160.0
662,B2,84.5,0.5,31,160.0
663,F#4,85.0,0.5,66,160.0
664,F#4,85.0,0.5,111,160.0
665,A3,85.0,0.5,31,160.0
666,F#3,85.0,0.5,31,160.0
667,F#4,85.5,1.25,114,160.0
668,F#4,85.5,1.25,111,160.0
669,B2,85.5,0.5,83,160.0
670,F#3,85.5,0.5,83,160.0
671,B3,85.5,0.5,83,160.0
672,E-4,85.5,0.5,83,160.0
673,F#3,86.0,0.5,58,160.0
674,B2,86.5,0.5,49,160.0
675,F#3,86.5,0.5,49,160.0
676,B3,86.5,0.5,49,160.0
677,E-4,86.5,0.5,49,160.0
678,B2,87.0,0.5,31,160.0
679,F#3,87.0,0.5,31,160.0
680,F#4,87.5,0.5,111,160.0
681,F#2,87.5,0.5,31,160.0
682,F#3,87.5,0.5,31,160.0
683,E-4,87.5,0.5,31,160.0
684,B2,87.5,0.5,31,160.0
685,F#4,87.51,49/100,66,160.0
686,F#4,88.0,1/100,66,160.0
687,F#4,88.0,0.469,111,160.0
688,C#4,88.0,0.5,86,160.0
689,A3,88.0,0.5,86,160.0
690,E3,88.0,0.5,86,160.0
691,A2,88.0,0.5,86,160.0
692,F#4,88.042,229/500,76,160.0
693,F#4,88.5,833/1000,111,160.0
694,A2,88.5,0.5,31,160.0
695,E3,88.5,0.5,31,160.0
696,A3,88.5,0.5,31,160.0
697,F#4,88.51,0.844,73,160.0
698,A3,89.0,0.5,31,160.0
699,F#3,89.0,0.5,31,160.0
700,E4,89.5,0.5,51,160.0
701,E4,89.5,0.5,111,160.0
702,B2,89.5,0.5,83,160.0
703,F#3,89.5,0.5,83,160.0
704,B3,89.5,0.5,83,160.0
705,E-4,89.5,0.5,83,160.0
706,F#3,90.0,0.5,58,160.0
707,F#4,90.0,0.5,76,160.0
708,F#4,90.0,0.5,111,160.0
709,G#4,90.5,833/1000,127,160.0
710,G#4,90.5,833/1000,111,160.0
711,G#4,90.5,0.5,49,160.0
712,B2,90.5,0.5,49,160.0
713,F#3,90.5,0.5,49,160.0
714,B3,90.5,0.5,49,160.0
715,E-5,91.0,0.5,31,160.0
716,B2,91.0,0.5,31,160.0
717,F#4,91.5,0.5,85,160.0
718,F#4,91.5,0.5,111,160.0
719,B3,91.5,0.5,31,160.0
720,E-4,91.5,0.5,31,160.0
721,F#4,91.5,0.5,31,160.0
722,F#2,91.5,0.5,31,160.0
723,B2,91.5,0.5,31,160.0
724,F#4,92.0,667/1000,85,160.0
725,F#4,92.0,667/1000,111,160.0
726,E2,92.0,1.0,78,160.0
727,G#2,92.0,1.0,78,160.0
728,B2,92.0,0.5,99,160.0
729,E4,92.0,0.5,99,160.0
730,G#3,92.0,0.5,99,160.0
731,E3,92.0,0.5,99,160.0
732,B2,92.5,0.5,31,160.0
733,E3,92.5,0.5,31,160.0
734,G#3,92.5,0.5,31,160.0
735,E4,93.0,917/1000,111,160.0
736,A3,93.0,0.5,98,160.0
737,E2,93.0,0.5,98,160.0
738,A2,93.0,0.5,98,160.0
739,E3,93.0,0.5,98,160.0
740,C#4,93.0,0.5,98,160.0
741,E4,93.0,0.5,98,160.0
742,E4,93.021,917/1000,69,160.0
743,G#2,93.5,0.5,33,160.0
744,E3,93.5,0.5,33,160.0
745,G#3,93.5,0.5,33,160.0
746,B3,94.0,0.5,98,160.0
747,G#2,94.0,0.5,98,160.0
748,G#3,94.0,0.5,98,160.0
749,E2,94.0,0.5,98,160.0
750,E3,94.0,0.5,98,160.0
751,E4,94.0,0.5,98,160.0
752,E4,94.156,1.844,111,160.0
753,E4,94.188,1.812,37,160.0
754,G#2,94.5,0.5,44,160.0
755,E3,94.5,0.5,44,160.0
756,B2,95.0,0.5,44,160.0
757,E3,95.0,0.5,44,160.0
758,G#2,95.5,0.5,31,160.0
759,G#3,95.5,0.5,31,160.0
760,E2,95.5,0.5,31,160.0
761,B2,95.5,0.5,31,160.0
762,E3,95.5,0.5,31,160.0
763,E4,96.0,0.188,37,160.0
764,E4,96.0,0.156,111,160.0
765,E2,96.0,1.0,78,160.0
766,A2,96.0,1.0,78,160.0
767,E3,96.0,0.5,99,160.0
768,A3,96.0,0.5,99,160.0
769,C#4,96.0,0.5,99,160.0
770,E4,96.0,0.5,99,160.0
771,G#2,96.5,0.5,31,160.0
772,G#3,96.5,0.5,31,160.0
773,E3,96.5,0.5,31,160.0
774,E2,97.0,0.5,59,160.0
775,A2,97.0,0.5,59,160.0
776,E3,97.0,0.5,59,160.0
777,A3,97.0,0.5,59,160.0
778,C#4,97.0,0.5,59,160.0
779,E4,97.0,0.5,59,160.0
780,B2,97.5,0.5,36,160.0
781,E3,97.5,0.5,36,160.0
782,G#3,97.5,0.5,36,160.0
783,C#4,98.0,0.5,87,160.0
784,E4,98.0,0.5,87,160.0
785,A3,98.0,0.5,87,160.0
786,E3,98.0,0.5,87,160.0
787,E2,98.0,0.5,87,160.0
788,E3,98.5,0.5,81,160.0
789,G#3,98.5,0.5,81,160.0
790,E4,98.5,0.5,81,160.0
791,G#2,98.5,0.5,81,160.0
792,B2,98.5,0.5,81,160.0
793,E2,98.5,0.5,81,160.0
794,E2,99.0,0.5,66,160.0
795,G#3,99.0,0.5,66,160.0
796,B2,99.0,0.5,66,160.0
797,E3,99.0,0.5,66,160.0
798,G#2,99.5,0.5,31,160.0
799,G#3,99.5,0.5,31,160.0
800,E2,99.5,0.5,31,160.0
801,B2,99.5,0.5,31,160.0
802,E3,99.5,0.5,31,160.0
803,B4,100.0,1.0,120,160.0
804,B4,100.0,1.0,111,160.0
805,B3,100.0,1.5,84,160.0
806,E4,100.0,1.5,84,160.0
807,G#4,100.0,1.5,84,160.0
808,B4,100.0,1.5,84,160.0
809,E2,100.0,2.0,72,160.0
810,G#2,100.0,2.0,72,160.0
811,B4,101.5,0.5,74,160.0
812,B4,101.5,0.5,111,160.0
813,B3,101.5,0.5,44,160.0
814,E4,101.5,0.5,44,160.0
815,G#4,101.5,0.5,44,160.0
816,B4,101.5,0.5,44,160.0
817,B4,102.0,917/1000,121,160.0
818,B4,102.0,917/1000,111,160.0
819,E2,102.0,2.0,80,160.0
820,G#2,102.0,2.0,80,160.0
821,B3,102.0,2.0,80,160.0
822,E4,102.0,2.0,80,160.0
823,G#4,102.0,2.0,80,160.0
824,B4,102.0,2.0,80,160.0
825,G#4,103.0,229/500,111,160.0
826,G#4,103.031,229/500,46,160.0
827,A4,103.5,0.5,111,160.0
828,A4,103.562,0.438,123,160.0
829,A4,104.0,0.375,123,160.0
830,A4,104.0,0.312,111,160.0
831,B3,104.0,1.5,78,160.0
832,E-4,104.0,1.5,78,160.0
833,F#4,104.0,1.5,78,160.0
834,B4,104.0,1.5,78,160.0
835,F#2,104.0,2.0,76,160.0
836,B2,104.0,2.0,76,160.0
837,G#4,104.5,0.5,66,160.0
838,G#4,104.5,0.5,111,160.0
839,B4,105.0,1.0,127,160.0
840,B4,105.0,1.0,111,160.0
841,B3,105.5,0.5,44,160.0
842,E-4,105.5,0.5,44,160.0
843,F#4,105.5,0.5,44,160.0
844,B4,105.5,0.5,44,160.0
845,F#2,106.0,2.0,77,160.0
846,B2,106.0,2.0,77,160.0
847,B3,106.0,2.0,77,160.0
848,E-4,106.0,2.0,77,160.0
849,F#4,106.0,2.0,77,160.0
850,B4,106.0,2.0,77,160.0
851,E4,107.0,479/1000,56,160.0
852,E4,107.0,0.469,111,160.0
853,E4,107.5,0.5,61,160.0
854,E4,107.5,0.5,111,160.0
855,A2,108.0,2.0,77,160.0
856,A4,108.0,0.5,123,160.0
857,A4,108.0,0.5,111,160.0
858,A3,108.0,1.5,84,160.0
859,C#4,108.0,1.5,84,160.0
860,E4,108.0,1.5,84,160.0
861,A4,108.0,1.5,84,160.0
862,G#4,108.708,0.5,80,160.0
863,G#4,108.708,0.5,111,160.0
864,A3,109.5,0.5,44,160.0
865,C#4,109.5,0.5,44,160.0
866,E4,109.5,0.5,44,160.0
867,A4,109.5,0.5,44,160.0
868,F#4,109.583,0.5,80,160.0
869,F#4,109.583,0.5,111,160.0
870,A4,110.0,2.0,78,160.0
871,A2,110.0,2.0,78,160.0
872,A3,110.0,2.0,78,160.0
873,E4,110.0,2.0,78,160.0
874,C#4,110.0,2.0,78,160.0
875,E4,110.646,0.5,80,160.0
876,E4,110.646,0.5,111,160.0
877,C#4,111.5,0.5,80,160.0
878,C#4,111.5,0.5,111,160.0
879,C#4,112.5,0.5,70,160.0
880,A3,112.5,0.5,44,160.0
881,C#4,112.5,0.5,44,160.0
882,E4,112.5,0.5,44,160.0
883,A4,112.5,0.5,44,160.0
884,C#4,112.51,0.5,111,160.0
885,E4,113.0,1.0,59,160.0
886,C#4,113.0,1.0,59,160.0
887,A3,113.0,1.0,59,160.0
888,E3,113.0,1.0,59,160.0
889,A2,113.0,1.0,59,160.0
890,E4,113.01,0.75,45,160.0
891,E4,113.01,0.75,111,160.0
892,B3,114.0,1.0,32,160.0
893,B3,114.0,1.0,111,160.0
894,E4,114.0,2.0,79,160.0
895,B3,114.0,2.0,79,160.0
896,G#3,114.0,2.0,79,160.0
897,E3,114.0,2.0,79,160.0
898,E2,114.0,2.0,79,160.0
899,B2,114.0,2.0,79,160.0
900,B3,115.5,0.5,39,160.0
901,B3,115.5,0.5,111,160.0
902,B2,116.0,1.0,83,160.0
903,C#4,116.0,0.75,37,160.0
904,C#4,116.0,0.75,111,160.0
905,F#2,116.0,0.5,86,160.0
906,F#3,116.0,0.5,86,160.0
907,B3,116.0,0.5,86,160.0
908,E-4,116.0,0.5,86,160.0
909,B2,116.5,1.0,36,160.0
910,F#3,116.5,0.5,29,160.0
911,B3,116.5,0.5,29,160.0
912,E4,117.0,0.5,52,160.0
913,E4,117.0,0.5,111,160.0
914,A3,117.0,0.5,31,160.0
915,F#3,117.0,0.5,31,160.0
916,F#4,117.5,0.5,54,160.0
917,F#4,117.5,0.5,111,160.0
918,B2,117.5,0.5,83,160.0
919,F#3,117.5,0.5,83,160.0
920,B3,117.5,0.5,83,160.0
921,E-4,117.5,0.5,83,160.0
922,F#3,118.0,0.5,58,160.0
923,F#4,118.0,0.75,100,160.0
924,F#4,118.0,0.75,111,160.0
925,B2,118.5,0.5,49,160.0
926,F#3,118.5,0.5,49,160.0
927,B3,118.5,0.5,49,160.0
928,E-4,118.5,0.5,49,160.0
929,F#4,119.0,0.75,100,160.0
930,F#4,119.0,0.75,111,160.0
931,B2,119.0,0.5,31,160.0
932,F#3,119.0,0.5,31,160.0
933,F#2,119.5,0.5,31,160.0
934,F#3,119.5,0.5,31,160.0
935,E-4,119.5,0.5,31,160.0
936,B2,119.5,0.5,31,160.0
937,C#3,120.0,1.5,83,160.0
938,E4,120.0,0.5,71,160.0
939,E4,120.0,0.5,111,160.0
940,C#4,120.0,0.5,86,160.0
941,A3,120.0,0.5,86,160.0
942,E3,120.0,0.5,86,160.0
943,A2,120.0,0.5,86,160.0
944,F#4,120.5,0.5,60,160.0
945,F#4,120.5,0.5,111,160.0
946,A2,120.5,0.5,31,160.0
947,E3,120.5,0.5,31,160.0
948,A3,120.5,0.5,31,160.0
949,F#4,121.0,479/1000,59,160.0
950,F#4,121.0,0.5,111,160.0
951,A3,121.0,0.5,31,160.0
952,F#3,121.0,0.5,31,160.0
953,G#4,121.5,1.5,119,160.0
954,G#4,121.5,1.5,111,160.0
955,B2,121.5,0.5,83,160.0
956,F#3,121.5,0.5,83,160.0
957,B3,121.5,0.5,83,160.0
958,E-4,121.5,0.5,83,160.0
959,F#3,122.0,0.5,58,160.0
960,G#4,122.5,0.5,49,160.0
961,B2,122.5,0.5,49,160.0
962,F#3,122.5,0.5,49,160.0
963,B3,122.5,0.5,49,160.0
964,E-5,123.0,0.5,31,160.0
965,B2,123.0,0.5,31,160.0
966,F#4,123.354,323/500,39,160.0
967,F#4,123.354,323/500,111,160.0
968,B3,123.5,0.5,31,160.0
969,E-4,123.5,0.5,31,160.0
970,F#4,123.5,0.5,31,160.0
971,F#2,123.5,0.5,31,160.0
972,B2,123.5,0.5,31,160.0
973,E2,124.0,1.5,83,160.0
974,G#2,124.0,1.0,72,160.0
975,F#4,124.0,13/125,39,160.0
976,F#4,124.0,13/125,111,160.0
977,B2,124.0,0.5,99,160.0
978,E4,124.0,0.5,99,160.0
979,G#3,124.0,0.5,99,160.0
980,E3,124.0,0.5,99,160.0
981,B2,124.5,0.5,31,160.0
982,E3,124.5,0.5,31,160.0
983,G#3,124.5,0.5,31,160.0
984,E4,124.51,2.0,37,160.0
985,E4,124.51,2.0,111,160.0
986,G#3,125.0,0.5,33,160.0
987,G#2,125.0,0.5,33,160.0
988,E3,125.0,0.5,33,160.0
989,E2,125.5,0.5,83,160.0
990,E3,125.5,0.5,83,160.0
991,G#3,125.5,0.5,83,160.0
992,E4,125.5,0.5,83,160.0
993,E3,126.0,0.5,44,160.0
994,B2,126.0,0.5,44,160.0
995,E2,126.5,0.5,49,160.0
996,G#3,126.5,0.5,49,160.0
997,E3,126.5,0.5,49,160.0
998,E4,126.5,0.5,49,160.0
999,G#4,127.0,0.5,44,160.0
1000,B2,127.0,0.5,44,160.0
1001,E3,127.5,0.5,31,160.0
1002,E4,127.5,0.5,31,160.0
1003,B4,127.5,0.5,31,160.0
1004,G#2,127.5,0.5,31,160.0
1005,E4,128.0,1.0,105,160.0
1006,E2,128.0,1.0,105,160.0
1007,B2,128.0,0.5,90,160.0
1008,G#3,128.0,0.5,90,160.0
1009,E3,128.0,0.5,90,160.0
1010,G#4,128.0,1.0,111,160.0
1011,B4,128.0,1.0,111,160.0
1012,B2,128.5,0.5,32,160.0
1013,G#3,128.5,0.5,32,160.0
1014,E4,129.0,1.0,127,160.0
1015,A3,129.0,0.5,91,160.0
1016,E2,129.0,0.5,91,160.0
1017,A2,129.0,0.5,91,160.0
1018,C#4,129.0,0.5,91,160.0
1019,G#2,129.5,0.5,33,160.0
1020,E3,129.5,0.5,33,160.0
1021,G#3,129.5,0.5,33,160.0
1022,G#4,129.5,0.5,111,160.0
1023,B4,129.5,0.5,111,160.0
1024,E4,130.0,1.0,127,160.0
1025,B3,130.0,0.5,102,160.0
1026,G#2,130.0,0.5,102,160.0
1027,E2,130.0,0.5,102,160.0
1028,E3,130.0,0.5,102,160.0
1029,G#2,130.5,0.5,44,160.0
1030,E3,130.5,0.5,44,160.0
1031,G#4,130.5,0.5,111,160.0
1032,B4,130.5,0.5,111,160.0
1033,B2,131.0,0.5,31,160.0
1034,G#3,131.5,0.5,31,160.0
1035,E2,131.5,0.5,31,160.0
1036,B2,131.5,0.5,31,160.0
1037,E3,131.5,0.5,31,160.0
1038,G#4,131.5,0.5,111,160.0
1039,B4,131.5,0.5,111,160.0
1040,E4,132.0,1.0,100,160.0
1041,A2,132.0,1.0,100,160.0
1042,E3,132.0,0.5,90,160.0
1043,A3,132.0,0.5,90,160.0
1044,C#4,132.0,0.5,90,160.0
1045,G#2,132.5,0.5,32,160.0
1046,G#3,132.5,0.5,32,160.0
1047,G#4,132.5,0.5,111,160.0
1048,B4,132.5,0.5,111,160.0
1049,E4,133.0,1.0,127,160.0
1050,E2,133.0,0.5,56,160.0
1051,E3,133.0,0.5,56,160.0
1052,A3,133.0,0.5,56,160.0
1053,B2,133.5,0.5,36,160.0
1054,G#3,133.5,0.5,36,160.0
1055,C#4,134.0,0.5,96,160.0
1056,E4,134.0,0.5,96,160.0
1057,E3,134.0,0.5,96,160.0
1058,E2,134.0,0.5,96,160.0
1059,E4,134.5,1.0,127,160.0
1060,E3,134.5,0.5,58,160.0
1061,G#3,134.5,0.5,58,160.0
1062,G#2,134.5,0.5,58,160.0
1063,E2,134.5,0.5,58,160.0
1064,E2,135.0,0.5,86,160.0
1065,G#3,135.0,0.5,86,160.0
1066,G#2,135.5,0.5,31,160.0
1067,G#3,135.5,0.5,31,160.0
1068,E2,135.5,0.5,31,160.0
1069,B2,135.5,0.5,31,160.0
1070,E2,136.0,1.0,83,160.0
1071,G#4,136.0,0.5,111,160.0
1072,B4,136.0,1.0,111,160.0
1073,B2,136.0,0.5,100,160.0
1074,E4,136.0,0.5,100,160.0
1075,G#3,136.0,0.5,100,160.0
1076,B2,136.5,0.5,32,160.0
1077,G#3,136.5,0.5,32,160.0
1078,A3,137.0,0.5,98,160.0
1079,E2,137.0,0.5,98,160.0
1080,A2,137.0,0.5,98,160.0
1081,E3,137.0,0.5,98,160.0
1082,C#4,137.0,0.5,98,160.0
1083,E4,137.0,0.5,98,160.0
1084,G#2,137.5,0.5,34,160.0
1085,G#3,137.5,0.5,34,160.0
1086,G#4,137.5,0.5,111,160.0
1087,B4,137.5,0.5,111,160.0
1088,E3,138.0,0.5,80,160.0
1089,B2,138.0,0.5,80,160.0
1090,B3,138.0,0.5,80,160.0
1091,E2,138.0,0.5,80,160.0
1092,E4,138.0,0.5,80,160.0
1093,G#2,138.5,0.5,44,160.0
1094,E3,138.5,0.5,44,160.0
1095,G#4,138.5,0.5,111,160.0
1096,B4,138.5,0.5,111,160.0
1097,B2,139.0,0.5,44,160.0
1098,E3,139.0,0.5,44,160.0
1099,G#3,139.5,0.5,31,160.0
1100,E2,139.5,0.5,31,160.0
1101,B2,139.5,0.5,31,160.0
1102,E3,139.5,0.5,31,160.0
1103,G#4,139.5,0.5,111,160.0
1104,B4,139.5,0.5,111,160.0
1105,E2,140.0,1.0,78,160.0
1106,A2,140.0,1.0,78,160.0
1107,E3,140.0,0.5,99,160.0
1108,A3,140.0,0.5,99,160.0
1109,C#4,140.0,0.5,99,160.0
1110,E4,140.0,0.5,99,160.0
1111,G#2,140.5,0.5,32,160.0
1112,G#3,140.5,0.5,32,160.0
1113,E2,141.0,0.5,62,160.0
1114,A2,141.0,0.5,62,160.0
1115,C#4,141.0,0.5,62,160.0
1116,E4,141.0,0.5,62,160.0
1117,G#2,141.458,1.0,73,160.0
1118,E2,141.458,1.0,73,160.0
1119,B2,141.458,1.0,73,160.0
1120,E3,141.458,1.0,73,160.0
1121,G#3,141.458,1.0,73,160.0
1122,E4,141.5,1.5,104,160.0
1123,A2,142.5,0.5,36,160.0
1124,G#3,142.5,0.5,36,160.0
1125,G#3,143.0,0.5,60,160.0
1126,B2,143.0,0.5,60,160.0
1127,G#3,143.5,0.5,77,160.0
1128,G#3,143.5,0.5,111,160.0
1129,G#3,143.5,0.5,31,160.0
1130,E2,143.5,0.5,31,160.0
1131,E3,143.5,0.5,31,160.0
1132,B3,144.0,0.812,83,160.0
1133,B3,144.0,0.812,111,160.0
1134,B2,144.0,4.0,64,160.0
1135,B-4,144.0,23/200,127,160.0
1136,B2,144.0,0.5,85,160.0
1137,F#2,144.0,0.5,85,160.0
1138,F#3,144.0,0.5,85,160.0
1139,B3,144.0,0.5,85,160.0
1140,E-4,144.0,0.5,85,160.0
1141,B-4,144.5,23/200,18,160.0
1142,F#3,144.5,0.5,31,160.0
1143,B3,144.5,0.5,31,160.0
1144,B2,144.5,0.5,31,160.0
1145,E4,145.0,0.5,87,160.0
1146,E4,145.0,0.5,111,160.0
1147,B-4,145.0,23/200,20,160.0
1148,A3,145.0,0.5,31,160.0
1149,F#3,145.0,0.5,31,160.0
1150,F#4,145.5,0.5,78,160.0
1151,F#4,145.5,0.5,111,160.0
1152,B-4,145.5,23/200,12,160.0
1153,B2,145.5,0.5,83,160.0
1154,F#3,145.5,0.5,83,160.0
1155,B3,145.5,0.5,83,160.0
1156,E-4,145.5,0.5,83,160.0
1157,F#3,146.0,0.5,58,160.0
1158,F#4,146.0,833/1000,43,160.0
1159,F#4,146.0,833/1000,111,160.0
1160,B-4,146.0,23/200,17,160.0
1161,B-4,146.5,23/200,18,160.0
1162,B2,146.5,0.5,49,160.0
1163,F#3,146.5,0.5,49,160.0
1164,B3,146.5,0.5,49,160.0
1165,E-4,146.5,0.5,49,160.0
1166,F#4,147.0,917/1000,122,160.0
1167,F#4,147.0,917/1000,111,160.0
1168,B-4,147.0,23/200,20,160.0
1169,B2,147.0,0.5,31,160.0
1170,F#3,147.0,0.5,31,160.0
1171,B-4,147.5,23/200,12,160.0
1172,F#2,147.5,0.5,31,160.0
1173,F#3,147.5,0.5,31,160.0
1174,E-4,147.5,0.5,31,160.0
1175,B2,147.5,0.5,31,160.0
1176,C#3,148.0,1.0,83,160.0
1177,E4,148.0,0.5,111,160.0
1178,F#3,148.0,4.0,53,160.0
1179,B-4,148.0,23/200,127,160.0
1180,C#4,148.0,0.5,86,160.0
1181,A3,148.0,0.5,86,160.0
1182,E3,148.0,0.5,86,160.0
1183,A2,148.0,0.5,86,160.0
1184,E4,148.021,0.5,55,160.0
1185,F#4,148.5,0.5,111,160.0
1186,B-4,148.5,23/200,18,160.0
1187,A2,148.5,0.5,31,160.0
1188,E3,148.5,0.5,31,160.0
1189,A3,148.5,0.5,31,160.0
1190,F#4,148.51,0.5,56,160.0
1191,F#4,149.0,0.5,111,160.0
1192,B-4,149.0,23/200,20,160.0
1193,A3,149.0,0.5,31,160.0
1194,F#3,149.0,0.5,31,160.0
1195,F#4,149.021,0.5,61,160.0
1196,G#4,149.5,479/1000,92,160.0
1197,G#4,149.5,49/100,110,160.0
1198,B-4,149.5,23/200,12,160.0
1199,B2,149.5,0.5,83,160.0
1200,F#3,149.5,0.5,83,160.0
1201,B3,149.5,0.5,83,160.0
1202,E-4,149.5,0.5,83,160.0
1203,F#3,150.0,0.5,58,160.0
1204,G#4,150.0,833/1000,93,160.0
1205,G#4,150.0,833/1000,111,160.0
1206,B-4,150.0,23/200,127,160.0
1207,B-4,150.5,23/200,18,160.0
1208,G#4,150.5,0.5,49,160.0
1209,B2,150.5,0.5,49,160.0
1210,F#3,150.5,0.5,49,160.0
1211,B3,150.5,0.5,49,160.0
1212,F#4,150.979,917/1000,76,160.0
1213,F#4,151.0,917/1000,111,160.0
1214,B-4,151.0,23/200,20,160.0
1215,E-5,151.0,0.5,31,160.0
1216,B2,151.0,0.5,31,160.0
1217,B-4,151.5,23/200,12,160.0
1218,B3,151.5,0.5,31,160.0
1219,E-4,151.5,0.5,31,160.0
1220,F#4,151.5,0.5,31,160.0
1221,F#2,151.5,0.5,31,160.0
1222,B2,151.5,0.5,31,160.0
1223,E2,152.0,1.5,83,160.0
1224,G#2,152.0,1.0,72,160.0
1225,G#3,152.0,4.0,70,160.0
1226,B-4,152.0,23/200,127,160.0
1227,B2,152.0,0.5,99,160.0
1228,E4,152.0,0.5,99,160.0
1229,G#3,152.0,0.5,99,160.0
1230,E3,152.0,0.5,99,160.0
1231,E4,152.25,2.0,111,160.0
1232,E4,152.26,2.0,45,160.0
1233,B-4,152.5,23/200,18,160.0
1234,B2,152.5,0.5,31,160.0
1235,E3,152.5,0.5,31,160.0
1236,G#3,152.5,0.5,31,160.0
1237,B-4,153.0,23/200,20,160.0
1238,G#3,153.0,0.5,33,160.0
1239,G#2,153.0,0.5,33,160.0
1240,E3,153.0,0.5,33,160.0
1241,B-4,153.5,23/200,12,160.0
1242,E2,153.5,0.5,83,160.0
1243,E3,153.5,0.5,83,160.0
1244,G#3,153.5,0.5,83,160.0
1245,E4,153.5,0.5,83,160.0
1246,B-4,154.0,23/200,17,160.0
1247,E3,154.0,0.5,44,160.0
1248,B2,154.0,0.5,44,160.0
1249,B-4,154.5,23/200,18,160.0
1250,E2,154.5,0.5,49,160.0
1251,G#3,154.5,0.5,49,160.0
1252,E3,154.5,0.5,49,160.0
1253,E4,154.5,0.5,49,160.0
1254,B-4,155.0,23/200,20,160.0
1255,G#4,155.0,0.5,44,160.0
1256,B2,155.0,0.5,44,160.0
1257,B-4,155.5,23/200,12,160.0
1258,E3,155.5,0.5,31,160.0
1259,E4,155.5,0.5,31,160.0
1260,B4,155.5,0.5,31,160.0
1261,G#2,155.5,0.5,31,160.0
1262,E2,156.0,1.5,83,160.0
1263,G#2,156.0,1.0,72,160.0
1264,E3,156.0,4.0,70,160.0
1265,B-4,156.0,23/200,127,160.0
1266,B2,156.0,0.5,99,160.0
1267,E4,156.0,0.5,99,160.0
1268,G#3,156.0,0.5,99,160.0
1269,E3,156.0,0.5,99,160.0
1270,B-4,156.5,23/200,18,160.0
1271,B2,156.5,0.5,31,160.0
1272,E3,156.5,0.5,31,160.0
1273,G#3,156.5,0.5,31,160.0
1274,B-4,157.0,23/200,20,160.0
1275,G#3,157.0,0.5,33,160.0
1276,G#2,157.0,0.5,33,160.0
1277,E3,157.0,0.5,33,160.0
1278,B-4,157.5,23/200,12,160.0
1279,E2,157.5,0.5,83,160.0
1280,E3,157.5,0.5,83,160.0
1281,G#3,157.5,0.5,83,160.0
1282,E4,157.5,0.5,83,160.0
1283,E3,158.0,0.5,58,160.0
1284,B-4,158.0,23/200,127,160.0
1285,B-4,158.5,23/200,18,160.0
1286,E2,158.5,0.5,49,160.0
1287,G#3,158.5,0.5,49,160.0
1288,E3,158.5,0.5,49,160.0
1289,E4,158.5,0.5,49,160.0
1290,B3,158.938,0.5,52,160.0
1291,B3,159.0,0.5,110,160.0
1292,B-4,159.0,23/200,20,160.0
1293,E2,159.0,0.5,31,160.0
1294,B2,159.0,0.5,31,160.0
1295,G#2,159.0,0.5,31,160.0
1296,B3,159.438,0.5,59,160.0
1297,B3,159.5,0.5,110,160.0
1298,B-4,159.5,23/200,12,160.0
1299,G#2,159.5,0.5,31,160.0
1300,B2,159.5,0.5,31,160.0
1301,E3,159.5,0.5,31,160.0
1302,G#3,159.5,0.5,31,160.0
1303,B3,160.0,0.5,65,160.0
1304,B3,160.0,229/500,110,160.0
1305,B2,160.0,4.0,64,160.0
1306,B2,160.0,0.5,85,160.0
1307,F#2,160.0,0.5,85,160.0
1308,F#3,160.0,0.5,85,160.0
1309,B3,160.0,0.5,85,160.0
1310,E-4,160.0,0.5,85,160.0
1311,F#3,160.0,23/200,127,160.0
1312,B-4,160.0,23/200,127,160.0
1313,B-4,160.0,23/200,127,160.0
1314,E4,160.458,0.5,110,160.0
1315,E4,160.5,0.5,55,160.0
1316,F#3,160.5,0.5,31,160.0
1317,B3,160.5,0.5,31,160.0
1318,B2,160.5,0.5,31,160.0
1319,F#3,160.5,23/200,18,160.0
1320,B-4,160.5,23/200,18,160.0
1321,B-4,160.5,23/200,18,160.0
1322,F#4,161.0,0.5,66,160.0
1323,F#4,161.0,0.5,111,160.0
1324,A3,161.0,0.5,31,160.0
1325,F#3,161.0,0.5,31,160.0
1326,F#3,161.0,23/200,20,160.0
1327,B-4,161.0,23/200,20,160.0
1328,B-4,161.0,23/200,20,160.0
1329,F#4,161.5,229/500,114,160.0
1330,F#4,161.5,229/500,111,160.0
1331,B2,161.5,0.5,83,160.0
1332,F#3,161.5,0.5,83,160.0
1333,B3,161.5,0.5,83,160.0
1334,E-4,161.5,0.5,83,160.0
1335,F#3,161.5,23/200,12,160.0
1336,B-4,161.5,23/200,12,160.0
1337,B-4,161.5,23/200,12,160.0
1338,F#3,162.0,0.5,58,160.0
1339,F#4,162.0,729/1000,114,160.0
1340,F#4,162.0,729/1000,110,160.0
1341,F#3,162.0,23/200,17,160.0
1342,B-4,162.0,23/200,17,160.0
1343,B-4,162.0,23/200,17,160.0
1344,B2,162.5,0.5,49,160.0
1345,F#3,162.5,0.5,49,160.0
1346,B3,162.5,0.5,49,160.0
1347,E-4,162.5,0.5,49,160.0
1348,F#3,162.5,23/200,18,160.0
1349,B-4,162.5,23/200,18,160.0
1350,B-4,162.5,23/200,18,160.0
1351,B2,163.0,0.5,31,160.0
1352,F#3,163.0,0.5,31,160.0
1353,F#3,163.0,23/200,20,160.0
1354,B-4,163.0,23/200,20,160.0
1355,B-4,163.0,23/200,20,160.0
1356,F#4,163.5,0.5,111,160.0
1357,F#2,163.5,0.5,31,160.0
1358,F#3,163.5,0.5,31,160.0
1359,E-4,163.5,0.5,31,160.0
1360,B2,163.5,0.5,31,160.0
1361,F#3,163.5,23/200,12,160.0
1362,B-4,163.5,23/200,12,160.0
1363,B-4,163.5,23/200,12,160.0
1364,F#4,163.51,49/100,66,160.0
1365,C#3,164.0,1.5,83,160.0
1366,F#4,164.0,1/100,66,160.0
1367,F#4,164.0,0.469,111,160.0
1368,B3,164.0,4.0,53,160.0
1369,C#4,164.0,0.5,86,160.0
1370,A3,164.0,0.5,86,160.0
1371,E3,164.0,0.5,86,160.0
1372,A2,164.0,0.5,86,160.0
1373,F#3,164.0,23/200,127,160.0
1374,B-4,164.0,23/200,127,160.0
1375,B-4,164.0,23/200,127,160.0
1376,F#4,164.042,229/500,76,160.0
1377,F#4,164.5,833/1000,111,160.0
1378,A2,164.5,0.5,31,160.0
1379,E3,164.5,0.5,31,160.0
1380,A3,164.5,0.5,31,160.0
1381,F#3,164.5,23/200,18,160.0
1382,B-4,164.5,23/200,18,160.0
1383,B-4,164.5,23/200,18,160.0
1384,F#4,164.51,0.844,73,160.0
1385,A3,165.0,0.5,31,160.0
1386,F#3,165.0,0.5,31,160.0
1387,F#3,165.0,23/200,20,160.0
1388,B-4,165.0,23/200,20,160.0
1389,B-4,165.0,23/200,20,160.0
1390,E4,165.5,0.5,51,160.0
1391,E4,165.5,0.5,111,160.0
1392,B2,165.5,0.5,83,160.0
1393,F#3,165.5,0.5,83,160.0
1394,B3,165.5,0.5,83,160.0
1395,E-4,165.5,0.5,83,160.0
1396,F#3,165.5,23/200,12,160.0
1397,B-4,165.5,23/200,12,160.0
1398,B-4,165.5,23/200,12,160.0
1399,F#3,166.0,0.5,58,160.0
1400,F#4,166.0,0.5,76,160.0
1401,F#4,166.0,0.5,111,160.0
1402,F#3,166.0,23/200,127,160.0
1403,B-4,166.0,23/200,127,160.0
1404,B-4,166.0,23/200,127,160.0
1405,G#4,166.5,833/1000,123,160.0
1406,G#4,166.5,833/1000,111,160.0
1407,G#4,166.5,0.5,49,160.0
1408,B2,166.5,0.5,49,160.0
1409,F#3,166.5,0.5,49,160.0
1410,B3,166.5,0.5,49,160.0
1411,F#3,166.5,23/200,18,160.0
1412,B-4,166.5,23/200,18,160.0
1413,B-4,166.5,23/200,18,160.0
1414,E-5,167.0,0.5,31,160.0
1415,B2,167.0,0.5,31,160.0
1416,F#3,167.0,23/200,20,160.0
1417,B-4,167.0,23/200,20,160.0
1418,B-4,167.0,23/200,20,160.0
1419,F#4,167.5,0.5,64,160.0
1420,F#4,167.5,0.5,111,160.0
1421,B3,167.5,0.5,31,160.0
1422,E-4,167.5,0.5,31,160.0
1423,F#4,167.5,0.5,31,160.0
1424,F#2,167.5,0.5,31,160.0
1425,B2,167.5,0.5,31,160.0
1426,F#3,167.5,23/200,12,160.0
1427,B-4,167.5,23/200,12,160.0
1428,B-4,167.5,23/200,12,160.0
1429,F#4,168.0,1167/1000,64,160.0
1430,F#4,168.0,1167/1000,111,160.0
1431,G#3,168.0,4.0,70,160.0
1432,E2,168.0,1.0,78,160.0
1433,G#2,168.0,1.0,78,160.0
1434,B2,168.0,0.5,99,160.0
1435,E4,168.0,0.5,99,160.0
1436,G#3,168.0,0.5,99,160.0
1437,E3,168.0,0.5,99,160.0
1438,F#3,168.0,23/200,127,160.0
1439,B-4,168.0,23/200,127,160.0
1440,B-4,168.0,23/200,127,160.0
1441,B2,168.5,0.5,31,160.0
1442,E3,168.5,0.5,31,160.0
1443,G#3,168.5,0.5,31,160.0
1444,F#3,168.5,23/200,18,160.0
1445,B-4,168.5,23/200,18,160.0
1446,B-4,168.5,23/200,18,160.0
1447,A3,169.0,0.5,98,160.0
1448,E2,169.0,0.5,98,160.0
1449,A2,169.0,0.5,98,160.0
1450,E3,169.0,0.5,98,160.0
1451,C#4,169.0,0.5,98,160.0
1452,E4,169.0,0.5,98,160.0
1453,F#3,169.0,23/200,20,160.0
1454,B-4,169.0,23/200,20,160.0
1455,B-4,169.0,23/200,20,160.0
1456,E4,169.25,2.75,52,160.0
1457,E4,169.271,2729/1000,111,160.0
1458,G#2,169.5,0.5,33,160.0
1459,E3,169.5,0.5,33,160.0
1460,G#3,169.5,0.5,33,160.0
1461,F#3,169.5,23/200,12,160.0
1462,B-4,169.5,23/200,12,160.0
1463,B-4,169.5,23/200,12,160.0
1464,B3,170.0,0.5,98,160.0
1465,G#2,170.0,0.5,98,160.0
1466,G#3,170.0,0.5,98,160.0
1467,E2,170.0,0.5,98,160.0
1468,E3,170.0,0.5,98,160.0
1469,E4,170.0,0.5,98,160.0
1470,F#3,170.0,23/200,17,160.0
1471,B-4,170.0,23/200,17,160.0
1472,B-4,170.0,23/200,17,160.0
1473,G#2,170.5,0.5,44,160.0
1474,E3,170.5,0.5,44,160.0
1475,F#3,170.5,23/200,18,160.0
1476,B-4,170.5,23/200,18,160.0
1477,B-4,170.5,23/200,18,160.0
1478,B2,171.0,0.5,44,160.0
1479,E3,171.0,0.5,44,160.0
1480,F#3,171.0,23/200,20,160.0
1481,B-4,171.0,23/200,20,160.0
1482,B-4,171.0,23/200,20,160.0
1483,G#2,171.5,0.5,31,160.0
1484,G#3,171.5,0.5,31,160.0
1485,E2,171.5,0.5,31,160.0
1486,B2,171.5,0.5,31,160.0
1487,E3,171.5,0.5,31,160.0
1488,F#3,171.5,23/200,12,160.0
1489,B-4,171.5,23/200,12,160.0
1490,B-4,171.5,23/200,12,160.0
1491,E4,172.0,0.25,52,160.0
1492,E4,172.0,771/1000,111,160.0
1493,G#3,172.0,4.0,70,160.0
1494,E2,172.0,1.0,78,160.0
1495,A2,172.0,1.0,78,160.0
1496,E3,172.0,0.5,99,160.0
1497,A3,172.0,0.5,99,160.0
1498,C#4,172.0,0.5,99,160.0
1499,E4,172.0,0.5,99,160.0
1500,C#4,172.0,23/200,120,160.0
1501,F#3,172.0,23/200,120,160.0
1502,B-4,172.0,23/200,120,160.0
1503,B-4,172.0,23/200,120,160.0
1504,C#4,172.25,23/200,100,160.0
1505,G#2,172.5,0.5,31,160.0
1506,G#3,172.5,0.5,31,160.0
1507,E3,172.5,0.5,31,160.0
1508,F#3,172.5,23/200,38,160.0
1509,B-4,172.5,23/200,38,160.0
1510,B-4,172.5,23/200,38,160.0
1511,C4,172.5,23/200,38,160.0
1512,E2,173.0,0.5,59,160.0
1513,A2,173.0,0.5,59,160.0
1514,E3,173.0,0.5,59,160.0
1515,A3,173.0,0.5,59,160.0
1516,C#4,173.0,0.5,59,160.0
1517,E4,173.0,0.5,59,160.0
1518,C#4,173.0,23/200,40,160.0
1519,F#3,173.0,23/200,40,160.0
1520,B-4,173.0,23/200,40,160.0
1521,B-4,173.0,23/200,40,160.0
1522,C#4,173.25,23/200,100,160.0
1523,B2,173.5,0.5,36,160.0
1524,E3,173.5,0.5,36,160.0
1525,G#3,173.5,0.5,36,160.0
1526,C4,173.5,23/200,34,160.0
1527,F#3,173.5,23/200,34,160.0
1528,B-4,173.5,23/200,34,160.0
1529,B-4,173.5,23/200,34,160.0
1530,C#4,174.0,0.5,87,160.0
1531,E4,174.0,0.5,87,160.0
1532,A3,174.0,0.5,87,160.0
1533,E3,174.0,0.5,87,160.0
1534,E2,174.0,0.5,87,160.0
1535,F#3,174.0,23/200,127,160.0
1536,B-4,174.0,23/200,127,160.0
1537,B-4,174.0,23/200,127,160.0
1538,E3,174.5,0.5,81,160.0
1539,G#3,174.5,0.5,81,160.0
1540,E4,174.5,0.5,81,160.0
1541,G#2,174.5,0.5,81,160.0
1542,B2,174.5,0.5,81,160.0
1543,E2,174.5,0.5,81,160.0
1544,F#3,174.5,23/200,18,160.0
1545,B-4,174.5,23/200,18,160.0
1546,B-4,174.5,23/200,18,160.0
1547,E2,175.0,0.5,66,160.0
1548,G#3,175.0,0.5,66,160.0
1549,B2,175.0,0.5,66,160.0
1550,E3,175.0,0.5,66,160.0
1551,F#3,175.0,23/200,20,160.0
1552,B-4,175.0,23/200,20,160.0
1553,B-4,175.0,23/200,20,160.0
1554,G#2,175.5,0.5,31,160.0
1555,G#3,175.5,0.5,31,160.0
1556,E2,175.5,0.5,31,160.0
1557,B2,175.5,0.5,31,160.0
1558,E3,175.5,0.5,31,160.0
1559,C#4,175.5,23/200,47,160.0
1560,C4,175.5,23/200,47,160.0
1561,F#3,175.5,23/200,47,160.0
1562,B-4,175.5,23/200,47,160.0
1563,B-4,175.5,23/200,47,160.0
1564,C#4,175.75,23/200,100,160.0
1565,B4,176.0,1.0,120,160.0
1566,B4,176.0,1.0,111,160.0
1567,E3,176.0,4.0,64,160.0
1568,B-4,176.0,23/200,127,160.0
1569,B3,176.0,1.5,84,160.0
1570,E4,176.0,1.5,84,160.0
1571,G#4,176.0,1.5,84,160.0
1572,B4,176.0,1.5,84,160.0
1573,E2,176.0,2.0,72,160.0
1574,G#2,176.0,2.0,72,160.0
1575,B-4,176.5,23/200,18,160.0
1576,B-4,177.0,23/200,20,160.0
1577,B4,177.5,0.5,74,160.0
1578,B4,177.5,0.5,111,160.0
1579,B-4,177.5,23/200,12,160.0
1580,B3,177.5,0.5,44,160.0
1581,E4,177.5,0.5,44,160.0
1582,G#4,177.5,0.5,44,160.0
1583,B4,177.5,0.5,44,160.0
1584,B4,178.0,917/1000,121,160.0
1585,B4,178.0,917/1000,111,160.0
1586,B-4,178.0,23/200,17,160.0
1587,E2,178.0,2.0,80,160.0
1588,G#2,178.0,2.0,80,160.0
1589,B3,178.0,2.0,80,160.0
1590,E4,178.0,2.0,80,160.0
1591,G#4,178.0,2.0,80,160.0
1592,B4,178.0,2.0,80,160.0
1593,B-4,178.5,23/200,18,160.0
1594,G#4,179.0,229/500,111,160.0
1595,B-4,179.0,23/200,20,160.0
1596,G#4,179.031,229/500,46,160.0
1597,A4,179.5,0.5,111,160.0
1598,B-4,179.5,23/200,12,160.0
1599,A4,179.562,0.438,123,160.0
1600,A4,180.0,0.375,123,160.0
1601,A4,180.0,0.312,111,160.0
1602,E-3,180.0,4.0,53,160.0
1603,B-4,180.0,23/200,127,160.0
1604,B3,180.0,1.5,78,160.0
1605,E-4,180.0,1.5,78,160.0
1606,F#4,180.0,1.5,78,160.0
1607,B4,180.0,1.5,78,160.0
1608,F#2,180.0,2.0,76,160.0
1609,B2,180.0,2.0,76,160.0
1610,G#4,180.5,0.5,66,160.0
1611,G#4,180.5,0.5,111,160.0
1612,B-4,180.5,23/200,18,160.0
1613,B4,181.0,1.0,127,160.0
1614,B4,181.0,1.0,111,160.0
1615,B-4,181.0,23/200,20,160.0
1616,B-4,181.5,23/200,12,160.0
1617,B3,181.5,0.5,44,160.0
1618,E-4,181.5,0.5,44,160.0
1619,F#4,181.5,0.5,44,160.0
1620,B4,181.5,0.5,44,160.0
1621,B-4,182.0,23/200,127,160.0
1622,F#2,182.0,2.0,77,160.0
1623,B2,182.0,2.0,77,160.0
1624,B3,182.0,2.0,77,160.0
1625,E-4,182.0,2.0,77,160.0
1626,F#4,182.0,2.0,77,160.0
1627,B4,182.0,2.0,77,160.0
1628,B-4,182.5,23/200,18,160.0
1629,E4,183.0,479/1000,56,160.0
1630,E4,183.0,0.469,111,160.0
1631,B-4,183.0,23/200,20,160.0
1632,E4,183.5,0.5,61,160.0
1633,E4,183.5,0.5,111,160.0
1634,B-4,183.5,23/200,12,160.0
1635,A2,184.0,2.0,77,160.0
1636,A4,184.0,0.5,123,160.0
1637,A4,184.0,0.5,111,160.0
1638,C#3,184.0,4.0,70,160.0
1639,A3,184.0,1.5,84,160.0
1640,C#4,184.0,1.5,84,160.0
1641,E4,184.0,1.5,84,160.0
1642,A4,184.0,1.5,84,160.0
1643,F#3,184.0,23/200,127,160.0
1644,B-4,184.0,23/200,127,160.0
1645,G#4,184.708,0.5,80,160.0
1646,G#4,184.708,0.5,111,160.0
1647,A3,185.5,0.5,44,160.0
1648,C#4,185.5,0.5,44,160.0
1649,E4,185.5,0.5,44,160.0
1650,A4,185.5,0.5,44,160.0
1651,F#4,185.583,0.5,80,160.0
1652,F#4,185.583,0.5,111,160.0
1653,A4,186.0,2.0,78,160.0
1654,A2,186.0,2.0,78,160.0
1655,A3,186.0,2.0,78,160.0
1656,E4,186.0,2.0,78,160.0
1657,C#4,186.0,2.0,78,160.0
1658,E4,186.646,0.5,80,160.0
1659,E4,186.646,0.5,111,160.0
1660,C#4,187.5,0.5,80,160.0
1661,C#4,187.5,0.5,111,160.0
1662,F#3,187.5,23/200,70,160.0
1663,B-4,187.5,23/200,70,160.0
1664,B2,188.0,4.0,70,160.0
1665,F#3,188.0,23/200,127,160.0
1666,B-4,188.0,23/200,127,160.0
1667,C#4,188.5,0.5,70,160.0
1668,B-4,188.5,23/200,18,160.0
1669,A3,188.5,0.5,44,160.0
1670,C#4,188.5,0.5,44,160.0
1671,E4,188.5,0.5,44,160.0
1672,A4,188.5,0.5,44,160.0
1673,C#4,188.51,0.5,111,160.0
1674,B-4,189.0,23/200,20,160.0
1675,E4,189.0,1.0,59,160.0
1676,C#4,189.0,1.0,59,160.0
1677,A3,189.0,1.0,59,160.0
1678,E3,189.0,1.0,59,160.0
1679,A2,189.0,1.0,59,160.0
1680,E4,189.01,0.75,45,160.0
1681,E4,189.01,0.75,111,160.0
1682,B-4,189.5,23/200,12,160.0
1683,B3,190.0,1.0,32,160.0
1684,B3,190.0,1.0,111,160.0
1685,B-4,190.0,23/200,127,160.0
1686,E4,190.0,2.0,79,160.0
1687,B3,190.0,2.0,79,160.0
1688,G#3,190.0,2.0,79,160.0
1689,E3,190.0,2.0,79,160.0
1690,E2,190.0,2.0,79,160.0
1691,B2,190.0,2.0,79,160.0
1692,B-4,190.5,23/200,18,160.0
1693,B-4,191.0,23/200,20,160.0
1694,B3,191.5,0.5,39,160.0
1695,B3,191.5,0.5,111,160.0
1696,B-4,191.5,23/200,12,160.0
1697,B2,192.0,1.0,83,160.0
1698,C#4,192.0,0.75,37,160.0
1699,C#4,192.0,0.75,111,160.0
1700,B2,192.0,4.0,64,160.0
1701,B-4,192.0,23/200,127,160.0
1702,F#2,192.0,0.5,86,160.0
1703,F#3,192.0,0.5,86,160.0
1704,B3,192.0,0.5,86,160.0
1705,E-4,192.0,0.5,86,160.0
1706,B2,192.5,1.0,36,160.0
1707,B-4,192.5,23/200,18,160.0
1708,F#3,192.5,0.5,29,160.0
1709,B3,192.5,0.5,29,160.0
1710,E4,193.0,0.5,52,160.0
1711,E4,193.0,0.5,111,160.0
1712,B-4,193.0,23/200,20,160.0
1713,A3,193.0,0.5,31,160.0
1714,F#3,193.0,0.5,31,160.0
1715,F#4,193.5,0.5,54,160.0
1716,F#4,193.5,0.5,111,160.0
1717,B-4,193.5,23/200,12,160.0
1718,B2,193.5,0.5,83,160.0
1719,F#3,193.5,0.5,83,160.0
1720,B3,193.5,0.5,83,160.0
1721,E-4,193.5,0.5,83,160.0
1722,F#3,194.0,0.5,58,160.0
1723,F#4,194.0,0.75,100,160.0
1724,F#4,194.0,0.75,111,160.0
1725,B-4,194.0,23/200,17,160.0
1726,B-4,194.5,23/200,18,160.0
1727,B2,194.5,0.5,49,160.0
1728,F#3,194.5,0.5,49,160.0
1729,B3,194.5,0.5,49,160.0
1730,E-4,194.5,0.5,49,160.0
1731,F#4,195.0,0.75,100,160.0
1732,F#4,195.0,0.75,111,160.0
1733,B-4,195.0,23/200,20,160.0
1734,B2,195.0,0.5,31,160.0
1735,F#3,195.0,0.5,31,160.0
1736,B-4,195.5,23/200,12,160.0
1737,F#2,195.5,0.5,31,160.0
1738,F#3,195.5,0.5,31,160.0
1739,E-4,195.5,0.5,31,160.0
1740,B2,195.5,0.5,31,160.0
1741,C#3,196.0,1.5,83,160.0
1742,E4,196.0,0.5,71,160.0
1743,E4,196.0,0.5,111,160.0
1744,F#3,196.0,4.0,53,160.0
1745,B-4,196.0,23/200,127,160.0
1746,C#4,196.0,0.5,86,160.0
1747,A3,196.0,0.5,86,160.0
1748,E3,196.0,0.5,86,160.0
1749,A2,196.0,0.5,86,160.0
1750,F#4,196.5,0.5,60,160.0
1751,F#4,196.5,0.5,111,160.0
1752,B-4,196.5,23/200,18,160.0
1753,A2,196.5,0.5,31,160.0
1754,E3,196.5,0.5,31,160.0
1755,A3,196.5,0.5,31,160.0
1756,F#4,197.0,479/1000,59,160.0
1757,F#4,197.0,0.5,111,160.0
1758,B-4,197.0,23/200,20,160.0
1759,A3,197.0,0.5,31,160.0
1760,F#3,197.0,0.5,31,160.0
1761,G#4,197.5,1.5,119,160.0
1762,B-4,197.5,23/200,12,160.0
1763,B2,197.5,0.5,83,160.0
1764,F#3,197.5,0.5,83,160.0
1765,B3,197.5,0.5,83,160.0
1766,E-4,197.5,0.5,83,160.0
1767,G#4,197.646,1.5,111,160.0
1768,F#3,198.0,0.5,58,160.0
1769,B-4,198.0,23/200,127,160.0
1770,B-4,198.5,23/200,18,160.0
1771,G#4,198.5,0.5,49,160.0
1772,B2,198.5,0.5,49,160.0
1773,F#3,198.5,0.5,49,160.0
1774,B3,198.5,0.5,49,160.0
1775,B-4,199.0,23/200,20,160.0
1776,E-5,199.0,0.5,31,160.0
1777,B2,199.0,0.5,31,160.0
1778,F#4,199.354,323/500,39,160.0
1779,F#4,199.354,323/500,111,160.0
1780,B-4,199.5,23/200,12,160.0
1781,B3,199.5,0.5,31,160.0
1782,E-4,199.5,0.5,31,160.0
1783,F#4,199.5,0.5,31,160.0
1784,F#2,199.5,0.5,31,160.0
1785,B2,199.5,0.5,31,160.0
1786,E2,200.0,1.5,83,160.0
1787,G#2,200.0,1.0,72,160.0
1788,F#4,200.0,13/125,39,160.0
1789,F#4,200.0,13/125,111,160.0
1790,G#3,200.0,4.0,70,160.0
1791,B-4,200.0,23/200,127,160.0
1792,B2,200.0,0.5,99,160.0
1793,E4,200.0,0.5,99,160.0
1794,G#3,200.0,0.5,99,160.0
1795,E3,200.0,0.5,99,160.0
1796,B-4,200.5,23/200,18,160.0
1797,B2,200.5,0.5,31,160.0
1798,E3,200.5,0.5,31,160.0
1799,G#3,200.5,0.5,31,160.0
1800,E4,200.51,2.0,37,160.0
1801,E4,200.51,2.0,111,160.0
1802,B-4,201.0,23/200,20,160.0
1803,G#3,201.0,0.5,33,160.0
1804,G#2,201.0,0.5,33,160.0
1805,E3,201.0,0.5,33,160.0
1806,B-4,201.5,23/200,12,160.0
1807,E2,201.5,0.5,83,160.0
1808,E3,201.5,0.5,83,160.0
1809,G#3,201.5,0.5,83,160.0
1810,E4,201.5,0.5,83,160.0
1811,E3,202.0,0.5,44,160.0
1812,B2,202.0,0.5,44,160.0
1813,F#3,202.0,23/200,72,160.0
1814,B-4,202.0,23/200,72,160.0
1815,F#3,202.25,23/200,41,160.0
1816,E2,202.5,0.5,49,160.0
1817,G#3,202.5,0.5,49,160.0
1818,E3,202.5,0.5,49,160.0
1819,E4,202.5,0.5,49,160.0
1820,F#3,202.5,23/200,30,160.0
1821,B-4,202.5,23/200,30,160.0
1822,G#4,203.0,0.5,44,160.0
1823,B2,203.0,0.5,44,160.0
1824,F#3,203.0,23/200,74,160.0
1825,B-4,203.0,23/200,74,160.0
1826,F#3,203.25,23/200,41,160.0
1827,E3,203.5,0.5,31,160.0
1828,E4,203.5,0.5,31,160.0
1829,B4,203.5,0.5,31,160.0
1830,G#2,203.5,0.5,31,160.0
1831,F#3,203.5,23/200,26,160.0
1832,B-4,203.5,23/200,26,160.0
1833,E3,204.0,4.0,70,160.0
1834,B-4,204.0,23/200,127,160.0
1835,E4,204.0,1.0,105,160.0
1836,E2,204.0,1.0,105,160.0
1837,B2,204.0,0.5,90,160.0
1838,G#3,204.0,0.5,90,160.0
1839,E3,204.0,0.5,90,160.0
1840,G#4,204.0,1.0,111,160.0
1841,B4,204.0,1.0,111,160.0
1842,B-4,204.5,23/200,18,160.0
1843,B2,204.5,0.5,32,160.0
1844,G#3,204.5,0.5,32,160.0
1845,E4,205.0,1.0,127,160.0
1846,B-4,205.0,23/200,20,160.0
1847,A3,205.0,0.5,91,160.0
1848,E2,205.0,0.5,91,160.0
1849,A2,205.0,0.5,91,160.0
1850,C#4,205.0,0.5,91,160.0
1851,B-4,205.5,23/200,12,160.0
1852,G#2,205.5,0.5,33,160.0
1853,E3,205.5,0.5,33,160.0
1854,G#3,205.5,0.5,33,160.0
1855,G#4,205.5,0.5,111,160.0
1856,B4,205.5,0.5,111,160.0
1857,E4,206.0,1.0,127,160.0
1858,B-4,206.0,23/200,127,160.0
1859,B3,206.0,0.5,102,160.0
1860,G#2,206.0,0.5,102,160.0
1861,E2,206.0,0.5,102,160.0
1862,E3,206.0,0.5,102,160.0
1863,B-4,206.5,23/200,18,160.0
1864,G#2,206.5,0.5,44,160.0
1865,E3,206.5,0.5,44,160.0
1866,G#4,206.5,0.5,111,160.0
1867,B4,206.5,0.5,111,160.0
1868,B2,207.0,0.5,31,160.0
1869,B-4,207.0,23/200,20,160.0
1870,B-4,207.5,23/200,12,160.0
1871,G#3,207.5,0.5,31,160.0
1872,E2,207.5,0.5,31,160.0
1873,B2,207.5,0.5,31,160.0
1874,E3,207.5,0.5,31,160.0
1875,G#4,207.5,0.5,111,160.0
1876,B4,207.5,0.5,111,160.0
1877,B-4,208.0,23/200,127,160.0
1878,E4,208.0,1.0,100,160.0
1879,A2,208.0,1.0,100,160.0
1880,E3,208.0,0.5,90,160.0
1881,A3,208.0,0.5,90,160.0
1882,C#4,208.0,0.5,90,160.0
1883,B-4,208.5,23/200,18,160.0
1884,G#2,208.5,0.5,32,160.0
1885,G#3,208.5,0.5,32,160.0
1886,G#4,208.5,0.5,111,160.0
1887,B4,208.5,0.5,111,160.0
1888,E4,209.0,1.0,127,160.0
1889,B-4,209.0,23/200,20,160.0
1890,E2,209.0,0.5,56,160.0
1891,E3,209.0,0.5,56,160.0
1892,A3,209.0,0.5,56,160.0
1893,B-4,209.5,23/200,12,160.0
1894,B2,209.5,0.5,36,160.0
1895,G#3,209.5,0.5,36,160.0
1896,B-4,210.0,23/200,17,160.0
1897,C#4,210.0,0.5,96,160.0
1898,E4,210.0,0.5,96,160.0
1899,E3,210.0,0.5,96,160.0
1900,E2,210.0,0.5,96,160.0
1901,E4,210.5,1.0,127,160.0
1902,B-4,210.5,23/200,18,160.0
1903,E3,210.5,0.5,58,160.0
1904,G#3,210.5,0.5,58,160.0
1905,G#2,210.5,0.5,58,160.0
1906,E2,210.5,0.5,58,160.0
1907,B-4,211.0,23/200,20,160.0
1908,E2,211.0,0.5,86,160.0
1909,G#3,211.0,0.5,86,160.0
1910,B-4,211.5,23/200,12,160.0
1911,G#2,211.5,0.5,31,160.0
1912,G#3,211.5,0.5,31,160.0
1913,E2,211.5,0.5,31,160.0
1914,B2,211.5,0.5,31,160.0
1915,E2,212.0,1.0,83,160.0
1916,B4,212.0,1.0,111,160.0
1917,E3,212.0,4.0,70,160.0
1918,B-4,212.0,23/200,127,160.0
1919,B2,212.0,0.5,100,160.0
1920,E4,212.0,0.5,100,160.0
1921,G#3,212.0,0.5,100,160.0
1922,B-4,212.5,23/200,18,160.0
1923,B2,212.5,0.5,32,160.0
1924,G#3,212.5,0.5,32,160.0
1925,B-4,213.0,23/200,20,160.0
1926,A3,213.0,0.5,98,160.0
1927,E2,213.0,0.5,98,160.0
1928,A2,213.0,0.5,98,160.0
1929,E3,213.0,0.5,98,160.0
1930,C#4,213.0,0.5,98,160.0
1931,E4,213.0,0.5,98,160.0
1932,B-4,213.5,23/200,12,160.0
1933,G#2,213.5,0.5,34,160.0
1934,G#3,213.5,0.5,34,160.0
1935,G#4,213.5,0.5,111,160.0
1936,B4,213.5,0.5,111,160.0
1937,B-4,214.0,23/200,127,160.0
1938,E3,214.0,0.5,80,160.0
1939,B2,214.0,0.5,80,160.0
1940,B3,214.0,0.5,80,160.0
1941,E2,214.0,0.5,80,160.0
1942,E4,214.0,0.5,80,160.0
1943,B-4,214.5,23/200,18,160.0
1944,G#2,214.5,0.5,44,160.0
1945,E3,214.5,0.5,44,160.0
1946,G#4,214.5,0.5,111,160.0
1947,B4,214.5,0.5,111,160.0
1948,B-4,215.0,23/200,20,160.0
1949,B2,215.0,0.5,44,160.0
1950,E3,215.0,0.5,44,160.0
1951,B-4,215.5,23/200,12,160.0
1952,G#3,215.5,0.5,31,160.0
1953,E2,215.5,0.5,31,160.0
1954,B2,215.5,0.5,31,160.0
1955,E3,215.5,0.5,31,160.0
1956,G#4,215.5,0.5,111,160.0
1957,B4,215.5,0.5,111,160.0
1958,E2,216.0,1.0,78,160.0
1959,A2,216.0,1.0,78,160.0
1960,E3,216.0,0.5,99,160.0
1961,A3,216.0,0.5,99,160.0
1962,C#4,216.0,0.5,99,160.0
1963,E4,216.0,0.5,99,160.0
1964,G#2,216.5,0.5,32,160.0
1965,G#3,216.5,0.5,32,160.0
1966,E2,217.0,0.5,62,160.0
1967,A2,217.0,0.5,62,160.0
1968,C#4,217.0,0.5,62,160.0
1969,E4,217.0,0.5,62,160.0
1970,G#2,217.458,1.0,73,160.0
1971,E2,217.458,1.0,73,160.0
1972,B2,217.458,1.0,73,160.0
1973,E3,217.458,1.0,73,160.0
1974,G#3,217.458,1.0,73,160.0
1975,E4,217.5,1.5,104,160.0
1976,A2,218.5,0.5,36,160.0
1977,G#3,218.5,0.5,36,160.0
1978,G#3,219.0,0.5,60,160.0
1979,B2,219.0,0.5,60,160.0
1980,B3,219.458,271/500,61,160.0
1981,B3,219.458,271/500,111,160.0
1982,G#3,219.5,0.5,31,160.0
1983,E2,219.5,0.5,31,160.0
1984,E3,219.5,0.5,31,160.0
1985,C#4,219.865,27/200,69,160.0
1986,C#4,219.865,27/200,111,160.0
1987,B3,220.0,13/250,61,160.0
1988,C#4,220.0,417/1000,69,160.0
1989,B3,220.0,13/250,111,160.0
1990,C#4,220.0,417/1000,111,160.0
1991,B-4,220.0,23/200,127,160.0
1992,B2,220.0,0.5,85,160.0
1993,F#2,220.0,0.5,85,160.0
1994,F#3,220.0,0.5,85,160.0
1995,B3,220.0,0.5,85,160.0
1996,E-4,220.0,0.5,85,160.0
1997,B-4,220.5,23/200,18,160.0
1998,F#3,220.5,0.5,31,160.0
1999,B3,220.5,0.5,31,160.0
2000,B2,220.5,0.5,31,160.0
2001,E4,220.854,573/1000,48,160.0
2002,E4,220.854,573/1000,111,160.0
2003,B-4,221.0,23/200,20,160.0
2004,A3,221.0,0.5,31,160.0
2005,F#3,221.0,0.5,31,160.0
2006,B-4,221.5,23/200,12,160.0
2007,B2,221.5,0.5,83,160.0
2008,F#3,221.5,0.5,83,160.0
2009,B3,221.5,0.5,83,160.0
2010,E-4,221.5,0.5,83,160.0
2011,F#4,221.885,323/500,114,160.0
2012,F#4,221.885,323/500,111,160.0
2013,F#3,222.0,0.5,58,160.0
2014,B-4,222.0,23/200,17,160.0
2015,E4,222.396,323/500,60,160.0
2016,E4,222.396,323/500,111,160.0
2017,B-4,222.5,23/200,18,160.0
2018,B2,222.5,0.5,49,160.0
2019,F#3,222.5,0.5,49,160.0
2020,B3,222.5,0.5,49,160.0
2021,E-4,222.5,0.5,49,160.0
2022,B-4,223.0,23/200,20,160.0
2023,B2,223.0,0.5,31,160.0
2024,F#3,223.0,0.5,31,160.0
2025,C#4,223.396,151/250,69,160.0
2026,C#4,223.396,151/250,111,160.0
2027,B-4,223.5,23/200,12,160.0
2028,F#2,223.5,0.5,31,160.0
2029,F#3,223.5,0.5,31,160.0
2030,E-4,223.5,0.5,31,160.0
2031,B2,223.5,0.5,31,160.0
2032,C#3,224.0,1.0,83,160.0
2033,C#4,224.0,0.031,69,160.0
2034,C#4,224.0,0.031,111,160.0
2035,B-4,224.0,23/200,127,160.0
2036,C#4,224.0,0.5,86,160.0
2037,A3,224.0,0.5,86,160.0
2038,E3,224.0,0.5,86,160.0
2039,A2,224.0,0.5,86,160.0
2040,E4,224.438,323/500,71,160.0
2041,E4,224.438,323/500,87,160.0
2042,B-4,224.5,23/200,18,160.0
2043,A2,224.5,0.5,31,160.0
2044,E3,224.5,0.5,31,160.0
2045,A3,224.5,0.5,31,160.0
2046,B-4,225.0,23/200,20,160.0
2047,A3,225.0,0.5,31,160.0
2048,F#3,225.0,0.5,31,160.0
2049,F#4,225.49,0.75,115,160.0
2050,F#4,225.49,0.75,122,160.0
2051,B-4,225.5,23/200,12,160.0
2052,B2,225.5,0.5,83,160.0
2053,F#3,225.5,0.5,83,160.0
2054,B3,225.5,0.5,83,160.0
2055,E-4,225.5,0.5,83,160.0
2056,F#3,226.0,0.5,58,160.0
2057,B-4,226.0,23/200,127,160.0
2058,E4,226.448,1.0,91,160.0
2059,E4,226.448,1.0,125,160.0
2060,B-4,226.5,23/200,18,160.0
2061,G#4,226.5,0.5,49,160.0
2062,B2,226.5,0.5,49,160.0
2063,F#3,226.5,0.5,49,160.0
2064,B3,226.5,0.5,49,160.0
2065,B-4,227.0,23/200,20,160.0
2066,E-5,227.0,0.5,31,160.0
2067,B2,227.0,0.5,31,160.0
2068,B-4,227.5,23/200,12,160.0
2069,B3,227.5,0.5,31,160.0
2070,E-4,227.5,0.5,31,160.0
2071,F#4,227.5,0.5,31,160.0
2072,F#2,227.5,0.5,31,160.0
2073,B2,227.5,0.5,31,160.0
2074,E2,228.0,1.5,83,160.0
2075,G#2,228.0,1.0,72,160.0
2076,B-4,228.0,23/200,127,160.0
2077,B2,228.0,0.5,99,160.0
2078,E4,228.0,0.5,99,160.0
2079,G#3,228.0,0.5,99,160.0
2080,E3,228.0,0.5,99,160.0
2081,G#3,228.042,667/1000,96,160.0
2082,G#3,228.042,667/1000,127,160.0
2083,B-4,228.5,23/200,18,160.0
2084,B2,228.5,0.5,31,160.0
2085,E3,228.5,0.5,31,160.0
2086,G#3,228.5,0.5,31,160.0
2087,B-4,229.0,23/200,20,160.0
2088,G#3,229.0,0.5,33,160.0
2089,G#2,229.0,0.5,33,160.0
2090,E3,229.0,0.5,33,160.0
2091,G#3,229.208,349/125,96,160.0
2092,G#3,229.208,349/125,127,160.0
2093,B-4,229.5,23/200,12,160.0
2094,E2,229.5,0.5,83,160.0
2095,E3,229.5,0.5,83,160.0
2096,G#3,229.5,0.5,83,160.0
2097,E4,229.5,0.5,83,160.0
2098,B-4,230.0,23/200,17,160.0
2099,E3,230.0,0.5,44,160.0
2100,B2,230.0,0.5,44,160.0
2101,B-4,230.5,23/200,18,160.0
2102,E2,230.5,0.5,49,160.0
2103,G#3,230.5,0.5,49,160.0
2104,E3,230.5,0.5,49,160.0
2105,E4,230.5,0.5,49,160.0
2106,B-4,231.0,23/200,20,160.0
2107,G#4,231.0,0.5,44,160.0
2108,B2,231.0,0.5,44,160.0
2109,B-4,231.5,23/200,12,160.0
2110,E3,231.5,0.5,31,160.0
2111,E4,231.5,0.5,31,160.0
2112,B4,231.5,0.5,31,160.0
2113,G#2,231.5,0.5,31,160.0
2114,E2,232.0,1.5,83,160.0
2115,G#2,232.0,1.0,72,160.0
2116,G#3,232.0,101/100,96,160.0
2117,G#3,232.0,101/100,127,160.0
2118,B-4,232.0,23/200,127,160.0
2119,B2,232.0,0.5,99,160.0
2120,E4,232.0,0.5,99,160.0
2121,G#3,232.0,0.5,99,160.0
2122,E3,232.0,0.5,99,160.0
2123,B-4,232.5,23/200,18,160.0
2124,B2,232.5,0.5,31,160.0
2125,E3,232.5,0.5,31,160.0
2126,G#3,232.5,0.5,31,160.0
2127,B-4,233.0,23/200,20,160.0
2128,G#3,233.0,0.5,33,160.0
2129,G#2,233.0,0.5,33,160.0
2130,E3,233.0,0.5,33,160.0
2131,B-4,233.5,23/200,12,160.0
2132,E2,233.5,0.5,83,160.0
2133,E3,233.5,0.5,83,160.0
2134,G#3,233.5,0.5,83,160.0
2135,E4,233.5,0.5,83,160.0
2136,E3,234.0,0.5,58,160.0
2137,B-4,234.0,23/200,127,160.0
2138,B-4,234.5,23/200,18,160.0
2139,E2,234.5,0.5,49,160.0
2140,G#3,234.5,0.5,49,160.0
2141,E3,234.5,0.5,49,160.0
2142,E4,234.5,0.5,49,160.0
2143,B-4,235.0,23/200,20,160.0
2144,E2,235.0,0.5,31,160.0
2145,B2,235.0,0.5,31,160.0
2146,G#2,235.0,0.5,31,160.0
2147,B3,235.438,0.562,96,160.0
2148,B3,235.438,0.562,127,160.0
2149,B-4,235.5,23/200,12,160.0
2150,G#2,235.5,0.5,31,160.0
2151,B2,235.5,0.5,31,160.0
2152,E3,235.5,0.5,31,160.0
2153,G#3,235.5,0.5,31,160.0
2154,C#4,235.875,0.125,96,160.0
2155,C#4,235.875,0.125,127,160.0
2156,B3,236.0,0.031,96,160.0
2157,C#4,236.0,77/200,96,160.0
2158,B3,236.0,0.031,127,160.0
2159,C#4,236.0,77/200,127,160.0
2160,B2,236.0,0.5,85,160.0
2161,F#2,236.0,0.5,85,160.0
2162,F#3,236.0,0.5,85,160.0
2163,B3,236.0,0.5,85,160.0
2164,E-4,236.0,0.5,85,160.0
2165,F#3,236.0,23/200,127,160.0
2166,B-4,236.0,23/200,127,160.0
2167,B-4,236.0,23/200,127,160.0
2168,F#3,236.5,0.5,31,160.0
2169,B3,236.5,0.5,31,160.0
2170,B2,236.5,0.5,31,160.0
2171,F#3,236.5,23/200,18,160.0
2172,B-4,236.5,23/200,18,160.0
2173,B-4,236.5,23/200,18,160.0
2174,E4,236.854,0.562,87,160.0
2175,E4,236.854,0.562,122,160.0
2176,A3,237.0,0.5,31,160.0
2177,F#3,237.0,0.5,31,160.0
2178,F#3,237.0,23/200,20,160.0
2179,B-4,237.0,23/200,20,160.0
2180,B-4,237.0,23/200,20,160.0
2181,B2,237.5,0.5,83,160.0
2182,F#3,237.5,0.5,83,160.0
2183,B3,237.5,0.5,83,160.0
2184,E-4,237.5,0.5,83,160.0
2185,F#3,237.5,23/200,12,160.0
2186,B-4,237.5,23/200,12,160.0
2187,B-4,237.5,23/200,12,160.0
2188,F#4,237.865,323/500,87,160.0
2189,F#4,237.865,323/500,122,160.0
2190,F#3,238.0,0.5,58,160.0
2191,F#3,238.0,23/200,17,160.0
2192,B-4,238.0,23/200,17,160.0
2193,B-4,238.0,23/200,17,160.0
2194,E4,238.375,127/200,87,160.0
2195,E4,238.375,127/200,122,160.0
2196,B2,238.5,0.5,49,160.0
2197,F#3,238.5,0.5,49,160.0
2198,B3,238.5,0.5,49,160.0
2199,E-4,238.5,0.5,49,160.0
2200,F#3,238.5,23/200,18,160.0
2201,B-4,238.5,23/200,18,160.0
2202,B-4,238.5,23/200,18,160.0
2203,B2,239.0,0.5,31,160.0
2204,F#3,239.0,0.5,31,160.0
2205,F#3,239.0,23/200,20,160.0
2206,B-4,239.0,23/200,20,160.0
2207,B-4,239.0,23/200,20,160.0
2208,F#2,239.5,0.5,31,160.0
2209,F#3,239.5,0.5,31,160.0
2210,E-4,239.5,0.5,31,160.0
2211,B2,239.5,0.5,31,160.0
2212,F#3,239.5,23/200,12,160.0
2213,B-4,239.5,23/200,12,160.0
2214,B-4,239.5,23/200,12,160.0
2215,B3,239.552,56/125,82,160.0
2216,B3,239.552,56/125,118,160.0
2217,C#3,240.0,1.5,83,160.0
2218,B3,240.0,13/125,82,160.0
2219,B3,240.0,13/125,118,160.0
2220,C#4,240.0,0.5,86,160.0
2221,A3,240.0,0.5,86,160.0
2222,E3,240.0,0.5,86,160.0
2223,A2,240.0,0.5,86,160.0
2224,F#3,240.0,23/200,127,160.0
2225,B-4,240.0,23/200,127,160.0
2226,B-4,240.0,23/200,127,160.0
2227,A2,240.5,0.5,31,160.0
2228,E3,240.5,0.5,31,160.0
2229,A3,240.5,0.5,31,160.0
2230,F#3,240.5,23/200,18,160.0
2231,B-4,240.5,23/200,18,160.0
2232,B-4,240.5,23/200,18,160.0
2233,F#4,240.625,0.5,87,160.0
2234,F#4,240.625,0.5,119,160.0
2235,A3,241.0,0.5,31,160.0
2236,F#3,241.0,0.5,31,160.0
2237,F#3,241.0,23/200,20,160.0
2238,B-4,241.0,23/200,20,160.0
2239,B-4,241.0,23/200,20,160.0
2240,B2,241.5,0.5,83,160.0
2241,F#3,241.5,0.5,83,160.0
2242,B3,241.5,0.5,83,160.0
2243,E-4,241.5,0.5,83,160.0
2244,F#3,241.5,23/200,12,160.0
2245,B-4,241.5,23/200,12,160.0
2246,B-4,241.5,23/200,12,160.0
2247,G#4,241.604,521/1000,91,160.0
2248,G#4,241.604,521/1000,122,160.0
2249,F#3,242.0,0.5,58,160.0
2250,F#3,242.0,23/200,127,160.0
2251,B-4,242.0,23/200,127,160.0
2252,B-4,242.0,23/200,127,160.0
2253,G#4,242.5,0.5,49,160.0
2254,B2,242.5,0.5,49,160.0
2255,F#3,242.5,0.5,49,160.0
2256,B3,242.5,0.5,49,160.0
2257,F#3,242.5,23/200,18,160.0
2258,B-4,242.5,23/200,18,160.0
2259,B-4,242.5,23/200,18,160.0
2260,F#4,242.542,479/1000,87,160.0
2261,F#4,242.542,479/1000,120,160.0
2262,E-5,243.0,0.5,31,160.0
2263,B2,243.0,0.5,31,160.0
2264,F#3,243.0,23/200,20,160.0
2265,B-4,243.0,23/200,20,160.0
2266,B-4,243.0,23/200,20,160.0
2267,E4,243.469,0.5,87,160.0
2268,E4,243.469,0.5,119,160.0
2269,B4,243.5,0.5,119,160.0
2270,B3,243.5,0.5,31,160.0
2271,E-4,243.5,0.5,31,160.0
2272,F#4,243.5,0.5,31,160.0
2273,F#2,243.5,0.5,31,160.0
2274,B2,243.5,0.5,31,160.0
2275,F#3,243.5,23/200,12,160.0
2276,B-4,243.5,23/200,12,160.0
2277,B-4,243.5,23/200,12,160.0
2278,E2,244.0,1.0,78,160.0
2279,G#2,244.0,1.0,78,160.0
2280,B2,244.0,0.5,99,160.0
2281,E4,244.0,0.5,99,160.0
2282,G#3,244.0,0.5,99,160.0
2283,E3,244.0,0.5,99,160.0
2284,F#3,244.0,23/200,127,160.0
2285,B-4,244.0,23/200,127,160.0
2286,B-4,244.0,23/200,127,160.0
2287,B4,244.5,1.0,119,160.0
2288,B2,244.5,0.5,31,160.0
2289,E3,244.5,0.5,31,160.0
2290,G#3,244.5,0.5,31,160.0
2291,F#3,244.5,23/200,18,160.0
2292,B-4,244.5,23/200,18,160.0
2293,B-4,244.5,23/200,18,160.0
2294,E4,244.562,3083/1000,96,160.0
2295,E4,244.562,3083/1000,127,160.0
2296,A3,245.0,0.5,98,160.0
2297,E2,245.0,0.5,98,160.0
2298,A2,245.0,0.5,98,160.0
2299,E3,245.0,0.5,98,160.0
2300,C#4,245.0,0.5,98,160.0
2301,E4,245.0,0.5,98,160.0
2302,F#3,245.0,23/200,20,160.0
2303,B-4,245.0,23/200,20,160.0
2304,B-4,245.0,23/200,20,160.0
2305,G#2,245.5,0.5,33,160.0
2306,E3,245.5,0.5,33,160.0
2307,G#3,245.5,0.5,33,160.0
2308,F#3,245.5,23/200,12,160.0
2309,B-4,245.5,23/200,12,160.0
2310,B-4,245.5,23/200,12,160.0
2311,B3,246.0,0.5,98,160.0
2312,G#2,246.0,0.5,98,160.0
2313,G#3,246.0,0.5,98,160.0
2314,E2,246.0,0.5,98,160.0
2315,E3,246.0,0.5,98,160.0
2316,E4,246.0,0.5,98,160.0
2317,F#3,246.0,23/200,17,160.0
2318,B-4,246.0,23/200,17,160.0
2319,B-4,246.0,23/200,17,160.0
2320,G#2,246.5,0.5,44,160.0
2321,E3,246.5,0.5,44,160.0
2322,F#3,246.5,23/200,18,160.0
2323,B-4,246.5,23/200,18,160.0
2324,B-4,246.5,23/200,18,160.0
2325,B2,247.0,0.5,44,160.0
2326,E3,247.0,0.5,44,160.0
2327,F#3,247.0,23/200,20,160.0
2328,B-4,247.0,23/200,20,160.0
2329,B-4,247.0,23/200,20,160.0
2330,G#2,247.5,0.5,31,160.0
2331,G#3,247.5,0.5,31,160.0
2332,E2,247.5,0.5,31,160.0
2333,B2,247.5,0.5,31,160.0
2334,E3,247.5,0.5,31,160.0
2335,F#3,247.5,23/200,12,160.0
2336,B-4,247.5,23/200,12,160.0
2337,B-4,247.5,23/200,12,160.0
2338,E5,247.948,13/250,127,160.0
2339,E5,247.948,13/250,127,160.0
2340,E5,248.0,149/100,127,160.0
2341,E5,248.0,149/100,127,160.0
2342,E2,248.0,1.0,78,160.0
2343,A2,248.0,1.0,78,160.0
2344,E3,248.0,0.5,99,160.0
2345,A3,248.0,0.5,99,160.0
2346,C#4,248.0,0.5,99,160.0
2347,E4,248.0,0.5,99,160.0
2348,C#4,248.0,23/200,120,160.0
2349,F#3,248.0,23/200,120,160.0
2350,B-4,248.0,23/200,120,160.0
2351,B-4,248.0,23/200,120,160.0
2352,C#4,248.25,23/200,100,160.0
2353,G#2,248.5,0.5,31,160.0
2354,G#3,248.5,0.5,31,160.0
2355,E3,248.5,0.5,31,160.0
2356,F#3,248.5,23/200,38,160.0
2357,B-4,248.5,23/200,38,160.0
2358,B-4,248.5,23/200,38,160.0
2359,C4,248.5,23/200,38,160.0
2360,E2,249.0,0.5,59,160.0
2361,A2,249.0,0.5,59,160.0
2362,E3,249.0,0.5,59,160.0
2363,A3,249.0,0.5,59,160.0
2364,C#4,249.0,0.5,59,160.0
2365,E4,249.0,0.5,59,160.0
2366,C#4,249.0,23/200,40,160.0
2367,F#3,249.0,23/200,40,160.0
2368,B-4,249.0,23/200,40,160.0
2369,B-4,249.0,23/200,40,160.0
2370,C#5,249.25,19/25,127,160.0
2371,C#5,249.25,19/25,127,160.0
2372,C#4,249.25,23/200,100,160.0
2373,B2,249.5,0.5,36,160.0
2374,E3,249.5,0.5,36,160.0
2375,G#3,249.5,0.5,36,160.0
2376,C4,249.5,23/200,34,160.0
2377,F#3,249.5,23/200,34,160.0
2378,B-4,249.5,23/200,34,160.0
2379,B-4,249.5,23/200,34,160.0
2380,B4,249.812,1323/1000,123,160.0
2381,B4,249.812,1323/1000,118,160.0
2382,C#4,250.0,0.5,87,160.0
2383,E4,250.0,0.5,87,160.0
2384,A3,250.0,0.5,87,160.0
2385,E3,250.0,0.5,87,160.0
2386,E2,250.0,0.5,87,160.0
2387,F#3,250.0,23/200,127,160.0
2388,B-4,250.0,23/200,127,160.0
2389,B-4,250.0,23/200,127,160.0
2390,E3,250.5,0.5,81,160.0
2391,G#3,250.5,0.5,81,160.0
2392,E4,250.5,0.5,81,160.0
2393,G#2,250.5,0.5,81,160.0
2394,B2,250.5,0.5,81,160.0
2395,E2,250.5,0.5,81,160.0
2396,F#3,250.5,23/200,18,160.0
2397,B-4,250.5,23/200,18,160.0
2398,B-4,250.5,23/200,18,160.0
2399,E2,251.0,0.5,66,160.0
2400,G#3,251.0,0.5,66,160.0
2401,B2,251.0,0.5,66,160.0
2402,E3,251.0,0.5,66,160.0
2403,F#3,251.0,23/200,20,160.0
2404,B-4,251.0,23/200,20,160.0
2405,B-4,251.0,23/200,20,160.0
2406,G#2,251.5,0.5,31,160.0
2407,G#3,251.5,0.5,31,160.0
2408,E2,251.5,0.5,31,160.0
2409,B2,251.5,0.5,31,160.0
2410,E3,251.5,0.5,31,160.0
2411,C#4,251.5,23/200,47,160.0
2412,C4,251.5,23/200,47,160.0
2413,F#3,251.5,23/200,47,160.0
2414,B-4,251.5,23/200,47,160.0
2415,B-4,251.5,23/200,47,160.0
2416,C#4,251.75,23/200,100,160.0
2417,E3,252.0,4.0,64,160.0
2418,B-4,252.0,23/200,127,160.0
2419,B3,252.0,1.5,84,160.0
2420,E4,252.0,1.5,84,160.0
2421,G#4,252.0,1.5,84,160.0
2422,B4,252.0,1.5,84,160.0
2423,E2,252.0,2.0,72,160.0
2424,G#2,252.0,2.0,72,160.0
2425,G#4,252.0,3.0,111,160.0
2426,B4,252.0,3.0,111,160.0
2427,B4,252.042,0.594,96,160.0
2428,B4,252.042,0.594,127,160.0
2429,B-4,252.5,23/200,18,160.0
2430,B4,253.0,271/1000,96,160.0
2431,B4,253.0,271/1000,127,160.0
2432,B-4,253.0,23/200,20,160.0
2433,B-4,253.5,23/200,12,160.0
2434,B3,253.5,0.5,44,160.0
2435,E4,253.5,0.5,44,160.0
2436,G#4,253.5,0.5,44,160.0
2437,B4,253.5,0.5,44,160.0
2438,B4,253.583,0.75,96,160.0
2439,B4,253.583,0.75,127,160.0
2440,B-4,254.0,23/200,17,160.0
2441,E2,254.0,2.0,80,160.0
2442,G#2,254.0,2.0,80,160.0
2443,B3,254.0,2.0,80,160.0
2444,E4,254.0,2.0,80,160.0
2445,G#4,254.0,2.0,80,160.0
2446,B4,254.0,2.0,80,160.0
2447,B-4,254.5,23/200,18,160.0
2448,G#4,254.583,51/100,91,160.0
2449,G#4,254.583,51/100,125,160.0
2450,B-4,255.0,23/200,20,160.0
2451,A4,255.49,49/100,82,160.0
2452,A4,255.49,49/100,111,160.0
2453,B-4,255.5,23/200,12,160.0
2454,E-3,256.0,4.0,53,160.0
2455,B-4,256.0,23/200,127,160.0
2456,B3,256.0,1.5,78,160.0
2457,E-4,256.0,1.5,78,160.0
2458,F#4,256.0,1.5,78,160.0
2459,B4,256.0,1.5,78,160.0
2460,F#2,256.0,2.0,76,160.0
2461,B2,256.0,2.0,76,160.0
2462,F#4,256.0,3.0,111,160.0
2463,A4,256.0,3.0,111,160.0
2464,G#4,256.406,56/125,87,160.0
2465,G#4,256.406,56/125,111,160.0
2466,B-4,256.5,23/200,18,160.0
2467,B4,256.979,1.25,87,160.0
2468,B4,256.979,1.25,111,160.0
2469,B-4,257.0,23/200,20,160.0
2470,B-4,257.5,23/200,12,160.0
2471,B3,257.5,0.5,44,160.0
2472,E-4,257.5,0.5,44,160.0
2473,F#4,257.5,0.5,44,160.0
2474,B4,257.5,0.5,44,160.0
2475,B-4,258.0,23/200,127,160.0
2476,F#2,258.0,2.0,77,160.0
2477,B2,258.0,2.0,77,160.0
2478,B3,258.0,2.0,77,160.0
2479,E-4,258.0,2.0,77,160.0
2480,F#4,258.0,2.0,77,160.0
2481,B4,258.0,2.0,77,160.0
2482,B-4,258.5,23/200,18,160.0
2483,E4,258.99,49/100,87,160.0
2484,E4,258.99,49/100,111,160.0
2485,B-4,259.0,23/200,20,160.0
2486,E4,259.5,0.5,87,160.0
2487,E4,259.5,0.5,111,160.0
2488,B-4,259.5,23/200,12,160.0
2489,A4,259.99,1/100,87,160.0
2490,A4,259.99,1/100,111,160.0
2491,A2,260.0,2.0,77,160.0
2492,E4,260.0,0.031,87,160.0
2493,A4,260.0,127/200,87,160.0
2494,E4,260.0,0.031,111,160.0
2495,A4,260.0,127/200,111,160.0
2496,C#3,260.0,4.0,70,160.0
2497,A3,260.0,1.5,84,160.0
2498,C#4,260.0,1.5,84,160.0
2499,E4,260.0,1.5,84,160.0
2500,A4,260.0,1.5,84,160.0
2501,C#4,260.0,3.0,111,160.0
2502,G#4,260.0,3.0,111,160.0
2503,F#3,260.0,23/200,127,160.0
2504,B-4,260.0,23/200,127,160.0
2505,G#4,260.49,583/1000,87,160.0
2506,G#4,260.49,583/1000,111,160.0
2507,F#4,261.417,229/500,78,160.0
2508,F#4,261.417,229/500,112,160.0
2509,A3,261.5,0.5,44,160.0
2510,C#4,261.5,0.5,44,160.0
2511,E4,261.5,0.5,44,160.0
2512,A4,261.5,0.5,44,160.0
2513,A4,262.0,2.0,78,160.0
2514,A2,262.0,2.0,78,160.0
2515,A3,262.0,2.0,78,160.0
2516,E4,262.0,2.0,78,160.0
2517,C#4,262.0,2.0,78,160.0
2518,E4,262.344,0.562,87,160.0
2519,E4,262.344,0.562,114,160.0
2520,C#4,263.458,0.375,82,160.0
2521,C#4,263.458,0.375,112,160.0
2522,F#3,263.5,23/200,70,160.0
2523,B-4,263.5,23/200,70,160.0
2524,B2,264.0,4.0,70,160.0
2525,F#3,264.0,23/200,127,160.0
2526,B-4,264.0,23/200,127,160.0
2527,C#4,264.438,177/250,91,160.0
2528,C#4,264.438,177/250,111,160.0
2529,B-4,264.5,23/200,18,160.0
2530,A3,264.5,0.5,44,160.0
2531,C#4,264.5,0.5,44,160.0
2532,E4,264.5,0.5,44,160.0
2533,A4,264.5,0.5,44,160.0
2534,E4,264.958,229/500,87,160.0
2535,E4,264.958,229/500,111,160.0
2536,B-4,265.0,23/200,20,160.0
2537,E4,265.0,1.0,59,160.0
2538,C#4,265.0,1.0,59,160.0
2539,A3,265.0,1.0,59,160.0
2540,E3,265.0,1.0,59,160.0
2541,A2,265.0,1.0,59,160.0
2542,B-4,265.5,23/200,12,160.0
2543,G#3,265.938,1.312,87,160.0
2544,G#3,265.938,1.312,111,160.0
2545,B-4,266.0,23/200,127,160.0
2546,E4,266.0,2.0,79,160.0
2547,B3,266.0,2.0,79,160.0
2548,G#3,266.0,2.0,79,160.0
2549,E3,266.0,2.0,79,160.0
2550,E2,266.0,2.0,79,160.0
2551,B2,266.0,2.0,79,160.0
2552,B-4,266.5,23/200,18,160.0
2553,B-4,267.0,23/200,20,160.0
2554,B-4,267.5,23/200,12,160.0
2555,B2,268.0,1.0,83,160.0
2556,G#3,268.0,0.5,100,160.0
2557,G#3,268.0,0.5,111,160.0
2558,B2,268.0,4.0,64,160.0
2559,B-4,268.0,23/200,127,160.0
2560,F#2,268.0,0.5,86,160.0
2561,F#3,268.0,0.5,86,160.0
2562,B3,268.0,0.5,86,160.0
2563,E-4,268.0,0.5,86,160.0
2564,B2,268.5,1.0,36,160.0
2565,B3,268.5,0.5,100,160.0
2566,B3,268.5,0.5,111,160.0
2567,B-4,268.5,23/200,18,160.0
2568,F#3,268.5,0.5,29,160.0
2569,B3,268.5,0.5,29,160.0
2570,E4,269.0,0.75,100,160.0
2571,E4,269.0,0.75,111,160.0
2572,B-4,269.0,23/200,20,160.0
2573,A3,269.0,0.5,31,160.0
2574,F#3,269.0,0.5,31,160.0
2575,B-4,269.5,23/200,12,160.0
2576,B2,269.5,0.5,83,160.0
2577,F#3,269.5,0.5,83,160.0
2578,B3,269.5,0.5,83,160.0
2579,E-4,269.5,0.5,83,160.0
2580,F#3,270.0,0.5,58,160.0
2581,F#4,270.0,0.75,100,160.0
2582,F#4,270.0,0.75,111,160.0
2583,B-4,270.0,23/200,17,160.0
2584,B-4,270.5,23/200,18,160.0
2585,B2,270.5,0.5,49,160.0
2586,F#3,270.5,0.5,49,160.0
2587,B3,270.5,0.5,49,160.0
2588,E-4,270.5,0.5,49,160.0
2589,F#4,271.0,0.75,100,160.0
2590,F#4,271.0,0.75,111,160.0
2591,B-4,271.0,23/200,20,160.0
2592,B2,271.0,0.5,31,160.0
2593,F#3,271.0,0.5,31,160.0
2594,B-4,271.5,23/200,12,160.0
2595,F#2,271.5,0.5,31,160.0
2596,F#3,271.5,0.5,31,160.0
2597,E-4,271.5,0.5,31,160.0
2598,B2,271.5,0.5,31,160.0
2599,C#3,272.0,1.5,83,160.0
2600,F#3,272.0,4.0,53,160.0
2601,B-4,272.0,23/200,127,160.0
2602,C#4,272.0,0.5,86,160.0
2603,A3,272.0,0.5,86,160.0
2604,E3,272.0,0.5,86,160.0
2605,A2,272.0,0.5,86,160.0
2606,B3,272.5,0.5,100,160.0
2607,B3,272.5,0.5,111,160.0
2608,B-4,272.5,23/200,18,160.0
2609,A2,272.5,0.5,31,160.0
2610,E3,272.5,0.5,31,160.0
2611,A3,272.5,0.5,31,160.0
2612,F#4,273.0,0.5,100,160.0
2613,F#4,273.0,0.5,111,160.0
2614,B-4,273.0,23/200,20,160.0
2615,A3,273.0,0.5,31,160.0
2616,F#3,273.0,0.5,31,160.0
2617,B-4,273.5,23/200,12,160.0
2618,B2,273.5,0.5,83,160.0
2619,F#3,273.5,0.5,83,160.0
2620,B3,273.5,0.5,83,160.0
2621,E-4,273.5,0.5,83,160.0
2622,G#4,273.958,0.75,100,160.0
2623,G#4,273.958,0.75,111,160.0
2624,F#3,274.0,0.5,58,160.0
2625,B-4,274.0,23/200,127,160.0
2626,B-4,274.5,23/200,18,160.0
2627,G#4,274.5,0.5,49,160.0
2628,B2,274.5,0.5,49,160.0
2629,F#3,274.5,0.5,49,160.0
2630,B3,274.5,0.5,49,160.0
2631,F#4,275.0,0.75,100,160.0
2632,F#4,275.0,0.75,111,160.0
2633,B-4,275.0,23/200,20,160.0
2634,E-5,275.0,0.5,31,160.0
2635,B2,275.0,0.5,31,160.0
2636,B-4,275.5,23/200,12,160.0
2637,B3,275.5,0.5,31,160.0
2638,E-4,275.5,0.5,31,160.0
2639,F#4,275.5,0.5,31,160.0
2640,F#2,275.5,0.5,31,160.0
2641,B2,275.5,0.5,31,160.0
2642,E2,276.0,1.5,83,160.0
2643,G#2,276.0,1.0,72,160.0
2644,E4,276.0,1.5,100,160.0
2645,E4,276.0,1.5,111,160.0
2646,G#3,276.0,4.0,70,160.0
2647,B-4,276.0,23/200,127,160.0
2648,B2,276.0,0.5,99,160.0
2649,E4,276.0,0.5,99,160.0
2650,G#3,276.0,0.5,99,160.0
2651,E3,276.0,0.5,99,160.0
2652,B-4,276.5,23/200,18,160.0
2653,B2,276.5,0.5,31,160.0
2654,E3,276.5,0.5,31,160.0
2655,G#3,276.5,0.5,31,160.0
2656,B-4,277.0,23/200,20,160.0
2657,G#3,277.0,0.5,33,160.0
2658,G#2,277.0,0.5,33,160.0
2659,E3,277.0,0.5,33,160.0
2660,B-4,277.5,23/200,12,160.0
2661,E2,277.5,0.5,83,160.0
2662,E3,277.5,0.5,83,160.0
2663,G#3,277.5,0.5,83,160.0
2664,E4,277.5,0.5,83,160.0
2665,E3,278.0,0.5,44,160.0
2666,B2,278.0,0.5,44,160.0
2667,F#3,278.0,23/200,72,160.0
2668,B-4,278.0,23/200,72,160.0
2669,F#3,278.25,23/200,41,160.0
2670,E2,278.5,0.5,49,160.0
2671,G#3,278.5,0.5,49,160.0
2672,E3,278.5,0.5,49,160.0
2673,E4,278.5,0.5,49,160.0
2674,F#3,278.5,23/200,30,160.0
2675,B-4,278.5,23/200,30,160.0
2676,G#4,279.0,0.5,44,160.0
2677,B2,279.0,0.5,44,160.0
2678,F#3,279.0,23/200,74,160.0
2679,B-4,279.0,23/200,74,160.0
2680,F#3,279.25,23/200,41,160.0
2681,E3,279.5,0.5,31,160.0
2682,E4,279.5,0.5,31,160.0
2683,B4,279.5,0.5,31,160.0
2684,G#2,279.5,0.5,31,160.0
2685,F#3,279.5,23/200,26,160.0
2686,B-4,279.5,23/200,26,160.0
2687,E3,280.0,4.0,70,160.0
2688,B-4,280.0,23/200,127,160.0
2689,E4,280.0,1.0,105,160.0
2690,E2,280.0,1.0,105,160.0
2691,B2,280.0,0.5,90,160.0
2692,G#3,280.0,0.5,90,160.0
2693,E3,280.0,0.5,90,160.0
2694,B-4,280.5,23/200,18,160.0
2695,B2,280.5,0.5,32,160.0
2696,G#3,280.5,0.5,32,160.0
2697,E4,281.0,1.0,127,160.0
2698,B-4,281.0,23/200,20,160.0
2699,E4,281.0,99/250,72,160.0
2700,A4,281.0,99/250,72,160.0
2701,C#5,281.0,99/250,72,160.0
2702,A3,281.0,0.5,91,160.0
2703,E2,281.0,0.5,91,160.0
2704,A2,281.0,0.5,91,160.0
2705,C#4,281.0,0.5,91,160.0
2706,B-4,281.5,23/200,12,160.0
2707,G#2,281.5,0.5,33,160.0
2708,E3,281.5,0.5,33,160.0
2709,G#3,281.5,0.5,33,160.0
2710,E4,281.979,583/1000,78,160.0
2711,G#4,281.979,583/1000,78,160.0
2712,B4,281.979,583/1000,78,160.0
2713,E4,282.0,1.0,127,160.0
2714,B-4,282.0,23/200,127,160.0
2715,B3,282.0,0.5,102,160.0
2716,G#2,282.0,0.5,102,160.0
2717,E2,282.0,0.5,102,160.0
2718,E3,282.0,0.5,102,160.0
2719,B-4,282.5,23/200,18,160.0
2720,G#2,282.5,0.5,44,160.0
2721,E3,282.5,0.5,44,160.0
2722,B2,283.0,0.5,31,160.0
2723,B-4,283.0,23/200,20,160.0
2724,B-4,283.5,23/200,12,160.0
2725,G#3,283.5,0.5,31,160.0
2726,E2,283.5,0.5,31,160.0
2727,B2,283.5,0.5,31,160.0
2728,E3,283.5,0.5,31,160.0
2729,A4,283.906,0.094,84,160.0
2730,E4,283.906,0.094,84,160.0
2731,C#5,283.906,0.094,84,160.0
2732,B-4,284.0,23/200,127,160.0
2733,A4,284.0,237/250,84,160.0
2734,E4,284.0,237/250,84,160.0
2735,C#5,284.0,237/250,84,160.0
2736,E4,284.0,1.0,100,160.0
2737,A2,284.0,1.0,100,160.0
2738,E3,284.0,0.5,90,160.0
2739,A3,284.0,0.5,90,160.0
2740,C#4,284.0,0.5,90,160.0
2741,B-4,284.5,23/200,18,160.0
2742,G#2,284.5,0.5,32,160.0
2743,G#3,284.5,0.5,32,160.0
2744,E4,285.0,1.0,127,160.0
2745,B-4,285.0,23/200,20,160.0
2746,E2,285.0,0.5,56,160.0
2747,E3,285.0,0.5,56,160.0
2748,A3,285.0,0.5,56,160.0
2749,B-4,285.5,23/200,12,160.0
2750,B2,285.5,0.5,36,160.0
2751,G#3,285.5,0.5,36,160.0
2752,E4,285.51,1927/1000,88,160.0
2753,G#4,285.51,1927/1000,88,160.0
2754,B4,285.51,1927/1000,88,160.0
2755,B-4,286.0,23/200,17,160.0
2756,C#4,286.0,0.5,96,160.0
2757,E4,286.0,0.5,96,160.0
2758,E3,286.0,0.5,96,160.0
2759,E2,286.0,0.5,96,160.0
2760,E4,286.5,1.0,127,160.0
2761,B-4,286.5,23/200,18,160.0
2762,E3,286.5,0.5,58,160.0
2763,G#3,286.5,0.5,58,160.0
2764,G#2,286.5,0.5,58,160.0
2765,E2,286.5,0.5,58,160.0
2766,B-4,287.0,23/200,20,160.0
2767,E2,287.0,0.5,86,160.0
2768,G#3,287.0,0.5,86,160.0
2769,B-4,287.5,23/200,12,160.0
2770,G#2,287.5,0.5,31,160.0
2771,G#3,287.5,0.5,31,160.0
2772,E2,287.5,0.5,31,160.0
2773,B2,287.5,0.5,31,160.0
2774,E2,288.0,1.0,83,160.0
2775,E3,288.0,4.0,70,160.0
2776,B-4,288.0,23/200,127,160.0
2777,B2,288.0,0.5,100,160.0
2778,E4,288.0,0.5,100,160.0
2779,G#3,288.0,0.5,100,160.0
2780,B-4,288.5,23/200,18,160.0
2781,B2,288.5,0.5,32,160.0
2782,G#3,288.5,0.5,32,160.0
2783,B-4,289.0,23/200,20,160.0
2784,E4,289.0,99/250,72,160.0
2785,A4,289.0,99/250,72,160.0
2786,C#5,289.0,99/250,72,160.0
2787,A3,289.0,0.5,98,160.0
2788,E2,289.0,0.5,98,160.0
2789,A2,289.0,0.5,98,160.0
2790,E3,289.0,0.5,98,160.0
2791,C#4,289.0,0.5,98,160.0
2792,E4,289.0,0.5,98,160.0
2793,B-4,289.5,23/200,12,160.0
2794,G#2,289.5,0.5,34,160.0
2795,G#3,289.5,0.5,34,160.0
2796,E4,289.979,583/1000,78,160.0
2797,G#4,289.979,583/1000,78,160.0
2798,B4,289.979,583/1000,78,160.0
2799,B-4,290.0,23/200,127,160.0
2800,E3,290.0,0.5,80,160.0
2801,B2,290.0,0.5,80,160.0
2802,B3,290.0,0.5,80,160.0
2803,E2,290.0,0.5,80,160.0
2804,E4,290.0,0.5,80,160.0
2805,B-4,290.5,23/200,18,160.0
2806,G#2,290.5,0.5,44,160.0
2807,E3,290.5,0.5,44,160.0
2808,B-4,291.0,23/200,20,160.0
2809,B2,291.0,0.5,44,160.0
2810,E3,291.0,0.5,44,160.0
2811,B-4,291.5,23/200,12,160.0
2812,G#3,291.5,0.5,31,160.0
2813,E2,291.5,0.5,31,160.0
2814,B2,291.5,0.5,31,160.0
2815,E3,291.5,0.5,31,160.0
2816,A4,291.906,0.094,84,160.0
2817,E4,291.906,0.094,84,160.0
2818,C#5,291.906,0.094,84,160.0
2819,A4,292.0,237/250,84,160.0
2820,E4,292.0,237/250,84,160.0
2821,C#5,292.0,237/250,84,160.0
2822,E2,292.0,1.0,78,160.0
2823,A2,292.0,1.0,78,160.0
2824,E3,292.0,0.5,99,160.0
2825,A3,292.0,0.5,99,160.0
2826,C#4,292.0,0.5,99,160.0
2827,E4,292.0,0.5,99,160.0
2828,G#2,292.5,0.5,32,160.0
2829,G#3,292.5,0.5,32,160.0
2830,E2,293.0,0.5,62,160.0
2831,A2,293.0,0.5,62,160.0
2832,C#4,293.0,0.5,62,160.0
2833,E4,293.0,0.5,62,160.0
2834,G#2,293.458,1.0,73,160.0
2835,E2,293.458,1.0,73,160.0
2836,B2,293.458,1.0,73,160.0
2837,E3,293.458,1.0,73,160.0
2838,G#3,293.458,1.0,73,160.0
2839,E4,293.5,1.5,104,160.0
2840,E4,293.51,1927/1000,88,160.0
2841,G#4,293.51,1927/1000,88,160.0
2842,B4,293.51,1927/1000,88,160.0
2843,A2,294.5,0.5,36,160.0
2844,G#3,294.5,0.5,36,160.0
2845,G#3,295.0,0.5,60,160.0
2846,B2,295.0,0.5,60,160.0
2847,G#3,295.5,0.5,31,160.0
2848,E2,295.5,0.5,31,160.0
2849,E3,295.5,0.5,31,160.0
2850,E2,296.0,1.5,83,160.0
2851,G#2,296.0,1.0,72,160.0
2852,B3,296.0,0.5,99,160.0
2853,E4,296.0,0.5,99,160.0
2854,G#4,296.0,0.5,99,160.0
2855,B4,296.0,0.5,99,160.0
2856,B3,296.5,0.5,31,160.0
2857,E4,296.5,0.5,31,160.0
2858,G#4,296.5,0.5,31,160.0
2859,B3,297.0,0.5,33,160.0
2860,G#4,297.0,0.5,33,160.0
2861,B4,297.0,0.5,33,160.0
2862,E2,297.5,0.5,83,160.0
2863,E3,297.5,0.5,83,160.0
2864,G#3,297.5,0.5,83,160.0
2865,E4,297.5,0.5,83,160.0
2866,E3,298.0,0.5,44,160.0
2867,B2,298.0,0.5,44,160.0
2868,G#3,298.5,0.5,49,160.0
2869,B3,298.5,0.5,49,160.0
2870,G#4,298.5,0.5,49,160.0
2871,E2,298.5,0.5,49,160.0
2872,G#3,299.0,0.5,44,160.0
2873,B3,299.0,0.5,44,160.0
2874,B3,299.5,0.5,31,160.0
2875,E-4,299.5,0.5,31,160.0
2876,F#4,299.5,0.5,31,160.0
2877,G#2,299.5,0.5,31,160.0
2878,F#2,300.0,1.5,83,160.0
2879,B2,300.0,1.0,72,160.0
2880,B3,300.0,0.5,99,160.0
2881,E-4,300.0,0.5,99,160.0
2882,F#4,300.0,0.5,99,160.0
2883,B4,300.0,0.5,99,160.0
2884,B3,300.5,0.5,31,160.0
2885,E-4,300.5,0.5,31,160.0
2886,F#4,300.5,0.5,31,160.0
2887,B2,301.0,0.5,33,160.0
2888,B3,301.0,0.5,33,160.0
2889,E-4,301.0,0.5,33,160.0
2890,F#2,301.5,0.5,83,160.0
2891,B3,301.5,0.5,83,160.0
2892,F#4,301.5,0.5,83,160.0
2893,B4,301.5,0.5,83,160.0
2894,B3,302.0,0.5,58,160.0
2895,B2,302.5,0.5,49,160.0
2896,F#4,302.5,0.5,49,160.0
2897,E-4,302.5,0.5,49,160.0
2898,B3,302.5,0.5,49,160.0
2899,F#2,303.0,0.5,31,160.0
2900,B3,303.0,0.5,31,160.0
2901,E-4,303.0,0.5,31,160.0
2902,B2,303.5,0.5,31,160.0
2903,B3,303.5,0.5,31,160.0
2904,E-4,303.5,0.5,31,160.0
2905,F#4,303.5,0.5,31,160.0
2906,A2,304.0,1.0,72,160.0
2907,A3,304.0,0.5,99,160.0
2908,C#4,304.0,0.5,99,160.0
2909,E4,304.0,0.5,99,160.0
2910,A4,304.0,0.5,99,160.0
2911,A3,304.5,0.5,31,160.0
2912,C#4,304.5,0.5,31,160.0
2913,E4,304.5,0.5,31,160.0
2914,A2,305.0,0.5,33,160.0
2915,A3,305.0,0.5,33,160.0
2916,C#4,305.0,0.5,33,160.0
2917,A2,305.5,0.5,83,160.0
2918,E4,305.5,0.5,83,160.0
2919,A4,305.5,0.5,83,160.0
2920,E3,305.5,0.5,83,160.0
2921,A2,306.0,0.5,44,160.0
2922,E3,306.0,0.5,44,160.0
2923,A2,306.5,0.5,49,160.0
2924,A3,306.5,0.5,49,160.0
2925,C#4,306.5,0.5,49,160.0
2926,E4,306.5,0.5,49,160.0
2927,A3,307.0,0.5,44,160.0
2928,B2,307.0,0.5,44,160.0
2929,A2,307.5,0.5,31,160.0
2930,A3,307.5,0.5,31,160.0
2931,C#4,307.5,0.5,31,160.0
2932,E4,307.5,0.5,31,160.0
2933,F#2,308.0,1.5,83,160.0
2934,B2,308.0,1.0,72,160.0
2935,C#4,308.0,4.0,75,160.0
2936,B3,308.0,0.5,99,160.0
2937,E-4,308.0,0.5,99,160.0
2938,F#4,308.0,0.5,99,160.0
2939,B4,308.0,0.5,99,160.0
2940,B3,308.5,0.5,31,160.0
2941,E-4,308.5,0.5,31,160.0
2942,F#4,308.5,0.5,31,160.0
2943,B2,309.0,0.5,33,160.0
2944,B3,309.0,0.5,33,160.0
2945,E-4,309.0,0.5,33,160.0
2946,F#2,309.5,0.5,83,160.0
2947,F#4,309.5,0.5,83,160.0
2948,E-4,309.5,0.5,83,160.0
2949,B3,309.5,0.5,83,160.0
2950,B3,310.0,0.5,58,160.0
2951,B2,310.5,0.5,49,160.0
2952,F#4,310.5,0.5,49,160.0
2953,E-4,310.5,0.5,49,160.0
2954,B3,310.5,0.5,49,160.0
2955,F#2,311.0,0.5,31,160.0
2956,B2,311.0,0.5,31,160.0
2957,E-4,311.0,0.5,31,160.0
2958,B2,311.5,0.5,31,160.0
2959,B3,311.5,0.5,31,160.0
2960,E-4,311.5,0.5,31,160.0
2961,F#4,311.5,0.5,31,160.0
2962,E2,312.0,1.5,83,160.0
2963,G#2,312.0,1.0,72,160.0
2964,E5,312.0,4.0,70,160.0
2965,D4,312.0,4.0,75,160.0
2966,C#4,312.0,0.125,75,160.0
2967,B3,312.0,0.5,99,160.0
2968,E4,312.0,0.5,99,160.0
2969,G#4,312.0,0.5,99,160.0
2970,B4,312.0,0.5,99,160.0
2971,B4,312.5,0.5,44,160.0
2972,B3,312.5,0.5,44,160.0
2973,E4,312.5,0.5,44,160.0
2974,G#4,312.5,0.5,44,160.0
2975,B3,313.0,0.5,33,160.0
2976,G#4,313.0,0.5,33,160.0
2977,B4,313.0,0.5,33,160.0
2978,E2,313.5,0.5,83,160.0
2979,E3,313.5,0.5,83,160.0
2980,G#3,313.5,0.5,83,160.0
2981,E4,313.5,0.5,83,160.0
2982,E3,314.0,0.5,44,160.0
2983,B2,314.0,0.5,44,160.0
2984,G#3,314.5,0.5,49,160.0
2985,B3,314.5,0.5,49,160.0
2986,G#4,314.5,0.5,49,160.0
2987,E2,314.5,0.5,49,160.0
2988,G#3,315.0,0.5,44,160.0
2989,B3,315.0,0.5,44,160.0
2990,B3,315.5,0.5,31,160.0
2991,E-4,315.5,0.5,31,160.0
2992,F#4,315.5,0.5,31,160.0
2993,G#2,315.5,0.5,31,160.0
2994,E5,315.5,167/1000,100,160.0
2995,E5,315.5,167/1000,100,160.0
2996,E5,315.75,167/1000,100,160.0
2997,E5,315.75,167/1000,100,160.0
2998,F#2,316.0,1.5,83,160.0
2999,B2,316.0,1.0,72,160.0
3000,E-5,316.0,4.0,70,160.0
3001,D4,316.0,3.0,75,160.0
3002,B3,316.0,0.5,99,160.0
3003,E-4,316.0,0.5,99,160.0
3004,F#4,316.0,0.5,99,160.0
3005,B4,316.0,0.5,99,160.0
3006,E5,316.0,3.5,100,160.0
3007,E5,316.0,3.5,100,160.0
3008,B3,316.5,0.5,31,160.0
3009,E-4,316.5,0.5,31,160.0
3010,F#4,316.5,0.5,31,160.0
3011,B2,317.0,0.5,33,160.0
3012,B3,317.0,0.5,33,160.0
3013,E-4,317.0,0.5,33,160.0
3014,B3,317.5,0.5,83,160.0
3015,F#4,317.5,0.5,83,160.0
3016,B4,317.5,0.5,83,160.0
3017,E2,317.5,0.5,83,160.0
3018,B3,318.0,0.5,58,160.0
3019,B2,318.5,0.5,49,160.0
3020,F#4,318.5,0.5,49,160.0
3021,E-4,318.5,0.5,49,160.0
3022,B3,318.5,0.5,49,160.0
3023,E-5,319.0,1.0,69,160.0
3024,F#2,319.0,0.5,31,160.0
3025,B3,319.0,0.5,31,160.0
3026,E-4,319.0,0.5,31,160.0
3027,C#5,319.0,1.0,100,160.0
3028,C#5,319.0,1.0,100,160.0
3029,B2,319.5,0.5,31,160.0
3030,B3,319.5,0.5,31,160.0
3031,E-4,319.5,0.5,31,160.0
3032,F#4,319.5,0.5,31,160.0
3033,A2,320.0,1.0,72,160.0
3034,E2,320.0,1.5,83,160.0
3035,C#5,320.0,4.0,70,160.0
3036,C#5,320.0,2.0,64,160.0
3037,A3,320.0,0.5,99,160.0
3038,C#4,320.0,0.5,99,160.0
3039,E4,320.0,0.5,99,160.0
3040,A4,320.0,0.5,99,160.0
3041,B4,320.125,4.0,100,160.0
3042,B4,320.125,4.0,100,160.0
3043,C#5,320.125,0.125,100,160.0
3044,C#5,320.125,0.125,100,160.0
3045,A3,320.5,0.5,31,160.0
3046,C#4,320.5,0.5,31,160.0
3047,E4,320.5,0.5,31,160.0
3048,A2,321.0,0.5,33,160.0
3049,A3,321.0,0.5,33,160.0
3050,C#4,321.0,0.5,33,160.0
3051,A2,321.5,0.5,83,160.0
3052,E4,321.5,0.5,83,160.0
3053,A4,321.5,0.5,83,160.0
3054,E3,321.5,0.5,83,160.0
3055,A2,322.0,0.5,44,160.0
3056,E3,322.0,0.5,44,160.0
3057,A2,322.5,0.5,49,160.0
3058,A3,322.5,0.5,49,160.0
3059,C#4,322.5,0.5,49,160.0
3060,E4,322.5,0.5,49,160.0
3061,A3,323.0,0.5,44,160.0
3062,B2,323.0,0.5,44,160.0
3063,A2,323.5,0.5,31,160.0
3064,A3,323.5,0.5,31,160.0
3065,C#4,323.5,0.5,31,160.0
3066,E4,323.5,0.5,31,160.0
3067,F#2,324.0,1.5,83,160.0
3068,B2,324.0,1.0,72,160.0
3069,E-5,324.0,4.0,70,160.0
3070,B4,324.0,4.0,56,160.0
3071,B3,324.0,0.5,99,160.0
3072,E-4,324.0,0.5,99,160.0
3073,F#4,324.0,0.5,99,160.0
3074,B4,324.0,0.5,99,160.0
3075,B4,324.125,4.0,100,160.0
3076,B4,324.125,4.0,100,160.0
3077,B3,324.5,0.5,31,160.0
3078,E-4,324.5,0.5,31,160.0
3079,F#4,324.5,0.5,31,160.0
3080,B2,325.0,0.5,33,160.0
3081,B3,325.0,0.5,33,160.0
3082,E-4,325.0,0.5,33,160.0
3083,F#2,325.5,0.5,83,160.0
3084,F#4,325.5,0.5,83,160.0
3085,E-4,325.5,0.5,83,160.0
3086,B3,325.5,0.5,83,160.0
3087,B3,326.0,0.5,58,160.0
3088,B2,326.5,0.5,49,160.0
3089,F#4,326.5,0.5,49,160.0
3090,E-4,326.5,0.5,49,160.0
3091,B3,326.5,0.5,49,160.0
3092,F#2,327.0,0.5,31,160.0
3093,B2,327.0,0.5,31,160.0
3094,E-4,327.0,0.5,31,160.0
3095,B2,327.5,0.5,31,160.0
3096,B3,327.5,0.5,31,160.0
3097,E-4,327.5,0.5,31,160.0
3098,F#4,327.5,0.5,31,160.0
3099,E2,328.0,1.5,83,160.0
3100,G#2,328.0,1.0,72,160.0
3101,E5,328.0,4.0,70,160.0
3102,B3,328.0,0.5,99,160.0
3103,E4,328.0,0.5,99,160.0
3104,G#4,328.0,0.5,99,160.0
3105,B4,328.0,0.5,99,160.0
3106,B4,328.5,0.5,44,160.0
3107,B3,328.5,0.5,44,160.0
3108,E4,328.5,0.5,44,160.0
3109,G#4,328.5,0.5,44,160.0
3110,B3,329.0,0.5,33,160.0
3111,G#4,329.0,0.5,33,160.0
3112,B4,329.0,0.5,33,160.0
3113,E2,329.5,0.5,83,160.0
3114,E3,329.5,0.5,83,160.0
3115,G#3,329.5,0.5,83,160.0
3116,E4,329.5,0.5,83,160.0
3117,E3,330.0,0.5,44,160.0
3118,B2,330.0,0.5,44,160.0
3119,G#3,330.5,0.5,49,160.0
3120,B3,330.5,0.5,49,160.0
3121,G#4,330.5,0.5,49,160.0
3122,E2,330.5,0.5,49,160.0
3123,G#3,331.0,0.5,44,160.0
3124,B3,331.0,0.5,44,160.0
3125,B3,331.5,0.5,31,160.0
3126,E-4,331.5,0.5,31,160.0
3127,F#4,331.5,0.5,31,160.0
3128,G#2,331.5,0.5,31,160.0
3129,F#2,332.0,1.5,83,160.0
3130,B2,332.0,1.0,72,160.0
3131,E-5,332.0,4.0,70,160.0
3132,B3,332.0,0.5,99,160.0
3133,E-4,332.0,0.5,99,160.0
3134,F#4,332.0,0.5,99,160.0
3135,B4,332.0,0.5,99,160.0
3136,B3,332.5,0.5,31,160.0
3137,E-4,332.5,0.5,31,160.0
3138,F#4,332.5,0.5,31,160.0
3139,B2,333.0,0.5,33,160.0
3140,B3,333.0,0.5,33,160.0
3141,E-4,333.0,0.5,33,160.0
3142,F#2,333.5,0.5,83,160.0
3143,B3,333.5,0.5,83,160.0
3144,F#4,333.5,0.5,83,160.0
3145,B4,333.5,0.5,83,160.0
3146,B3,334.0,0.5,58,160.0
3147,B2,334.5,0.5,49,160.0
3148,F#4,334.5,0.5,49,160.0
3149,E-4,334.5,0.5,49,160.0
3150,B3,334.5,0.5,49,160.0
3151,F#2,335.0,0.5,31,160.0
3152,B3,335.0,0.5,31,160.0
3153,E-4,335.0,0.5,31,160.0
3154,B4,335.125,4.0,100,160.0
3155,B4,335.125,4.0,100,160.0
3156,B2,335.5,0.5,31,160.0
3157,B3,335.5,0.5,31,160.0
3158,E-4,335.5,0.5,31,160.0
3159,F#4,335.5,0.5,31,160.0
3160,A2,336.0,1.0,72,160.0
3161,C#5,336.0,0.25,100,160.0
3162,A3,336.0,0.5,99,160.0
3163,C#4,336.0,0.5,99,160.0
3164,E4,336.0,0.5,99,160.0
3165,A4,336.0,0.5,99,160.0
3166,E5,336.0,4.0,70,160.0
3167,C#5,336.0,4.0,70,160.0
3168,E-5,336.25,0.25,100,160.0
3169,E5,336.5,0.25,100,160.0
3170,A3,336.5,0.5,31,160.0
3171,C#4,336.5,0.5,31,160.0
3172,E4,336.5,0.5,31,160.0
3173,E-5,336.75,0.25,100,160.0
3174,C#5,337.0,0.25,100,160.0
3175,A2,337.0,0.5,33,160.0
3176,A3,337.0,0.5,33,160.0
3177,C#4,337.0,0.5,33,160.0
3178,B4,337.25,0.25,100,160.0
3179,A2,337.5,0.5,83,160.0
3180,E4,337.5,0.5,83,160.0
3181,A4,337.5,0.5,83,160.0
3182,E3,337.5,0.5,83,160.0
3183,B4,338.0,2.0,100,160.0
3184,A2,338.0,0.5,44,160.0
3185,E3,338.0,0.5,44,160.0
3186,A2,338.5,0.5,49,160.0
3187,A3,338.5,0.5,49,160.0
3188,C#4,338.5,0.5,49,160.0
3189,E4,338.5,0.5,49,160.0
3190,A3,339.0,0.5,44,160.0
3191,B2,339.0,0.5,44,160.0
3192,A2,339.5,0.5,31,160.0
3193,A3,339.5,0.5,31,160.0
3194,C#4,339.5,0.5,31,160.0
3195,E4,339.5,0.5,31,160.0
3196,F#2,340.0,1.5,83,160.0
3197,B2,340.0,1.0,72,160.0
3198,B4,340.0,4.0,100,160.0
3199,B3,340.0,0.5,99,160.0
3200,E-4,340.0,0.5,99,160.0
3201,F#4,340.0,0.5,99,160.0
3202,B4,340.0,0.5,99,160.0
3203,F#5,340.0,4.0,70,160.0
3204,B4,340.0,4.0,70,160.0
3205,B3,340.5,0.5,31,160.0
3206,E-4,340.5,0.5,31,160.0
3207,F#4,340.5,0.5,31,160.0
3208,B2,341.0,0.5,33,160.0
3209,B3,341.0,0.5,33,160.0
3210,E-4,341.0,0.5,33,160.0
3211,F#2,341.5,0.5,83,160.0
3212,F#4,341.5,0.5,83,160.0
3213,E-4,341.5,0.5,83,160.0
3214,B3,341.5,0.5,83,160.0
3215,B3,342.0,0.5,58,160.0
3216,B4,342.125,3.0,100,160.0
3217,B4,342.125,3.0,100,160.0
3218,B2,342.5,0.5,49,160.0
3219,F#4,342.5,0.5,49,160.0
3220,E-4,342.5,0.5,49,160.0
3221,B3,342.5,0.5,49,160.0
3222,F#2,343.0,0.5,31,160.0
3223,B2,343.0,0.5,31,160.0
3224,E-4,343.0,0.5,31,160.0
3225,E5,343.5,0.25,100,160.0
3226,B2,343.5,0.5,31,160.0
3227,B3,343.5,0.5,31,160.0
3228,E-4,343.5,0.5,31,160.0
3229,F#4,343.5,0.5,31,160.0
3230,E5,343.75,0.25,100,160.0
3231,E2,344.0,1.5,83,160.0
3232,G#2,344.0,1.0,72,160.0
3233,E5,344.0,4.0,100,160.0
3234,B4,344.0,2.0,100,160.0
3235,B3,344.0,0.5,99,160.0
3236,E4,344.0,0.5,99,160.0
3237,G#4,344.0,0.5,99,160.0
3238,B4,344.0,0.5,99,160.0
3239,B5,344.0,4.0,70,160.0
3240,E5,344.0,4.0,70,160.0
3241,B4,344.5,1.0,83,160.0
3242,B3,344.5,0.5,31,160.0
3243,E4,344.5,0.5,31,160.0
3244,G#4,344.5,0.5,31,160.0
3245,B4,345.0,1.0,31,160.0
3246,B3,345.0,0.5,34,160.0
3247,G#4,345.0,0.5,34,160.0
3248,E2,345.5,0.5,83,160.0
3249,E3,345.5,0.5,83,160.0
3250,G#3,345.5,0.5,83,160.0
3251,E4,345.5,0.5,83,160.0
3252,E3,346.0,0.5,44,160.0
3253,B2,346.0,0.5,44,160.0
3254,C#5,346.125,0.25,100,160.0
3255,C#5,346.125,0.25,100,160.0
3256,E-5,346.375,0.25,100,160.0
3257,E-5,346.375,0.25,100,160.0
3258,G#3,346.5,0.5,49,160.0
3259,B3,346.5,0.5,49,160.0
3260,G#4,346.5,0.5,49,160.0
3261,E2,346.5,0.5,49,160.0
3262,E5,346.625,0.25,100,160.0
3263,E5,346.625,0.25,100,160.0
3264,E-5,346.875,0.25,100,160.0
3265,E-5,346.875,0.25,100,160.0
3266,G#3,347.0,0.5,44,160.0
3267,B3,347.0,0.5,44,160.0
3268,C#5,347.125,0.25,100,160.0
3269,C#5,347.125,0.25,100,160.0
3270,B4,347.375,0.25,100,160.0
3271,B4,347.375,0.25,100,160.0
3272,B3,347.5,0.5,31,160.0
3273,E-4,347.5,0.5,31,160.0
3274,F#4,347.5,0.5,31,160.0
3275,G#2,347.5,0.5,31,160.0
3276,F#2,348.0,1.5,83,160.0
3277,B2,348.0,1.0,72,160.0
3278,E5,348.0,2.0,100,160.0
3279,B3,348.0,0.5,99,160.0
3280,E-4,348.0,0.5,99,160.0
3281,F#4,348.0,0.5,99,160.0
3282,B4,348.0,0.5,99,160.0
3283,G#5,348.0,4.0,70,160.0
3284,E-5,348.0,4.0,70,160.0
3285,B4,348.125,2.0,100,160.0
3286,B4,348.125,2.0,100,160.0
3287,B3,348.5,0.5,31,160.0
3288,E-4,348.5,0.5,31,160.0
3289,F#4,348.5,0.5,31,160.0
3290,B2,349.0,0.5,33,160.0
3291,B3,349.0,0.5,33,160.0
3292,E-4,349.0,0.5,33,160.0
3293,B3,349.5,0.5,83,160.0
3294,F#4,349.5,0.5,83,160.0
3295,B4,349.5,0.5,83,160.0
3296,E2,349.5,0.5,83,160.0
3297,B3,350.0,0.5,58,160.0
3298,B5,350.125,229/1000,100,160.0
3299,B4,350.125,4.0,100,160.0
3300,B4,350.125,4.0,100,160.0
3301,E-6,350.375,77/200,100,160.0
3302,B2,350.5,0.5,49,160.0
3303,F#4,350.5,0.5,49,160.0
3304,E-4,350.5,0.5,49,160.0
3305,B3,350.5,0.5,49,160.0
3306,E6,351.0,0.75,100,160.0
3307,F#2,351.0,0.5,31,160.0
3308,B3,351.0,0.5,31,160.0
3309,E-4,351.0,0.5,31,160.0
3310,B4,351.5,0.5,100,160.0
3311,B2,351.5,0.5,31,160.0
3312,B3,351.5,0.5,31,160.0
3313,E-4,351.5,0.5,31,160.0
3314,F#4,351.5,0.5,31,160.0
3315,A2,352.0,1.0,72,160.0
3316,E2,352.0,1.5,83,160.0
3317,F#5,352.0,0.5,100,160.0
3318,A3,352.0,0.5,99,160.0
3319,C#4,352.0,0.5,99,160.0
3320,E4,352.0,0.5,99,160.0
3321,A4,352.0,0.5,99,160.0
3322,A5,352.0,4.0,70,160.0
3323,C#5,352.0,4.0,70,160.0
3324,E5,352.5,0.5,100,160.0
3325,A3,352.5,0.5,31,160.0
3326,C#4,352.5,0.5,31,160.0
3327,E4,352.5,0.5,31,160.0
3328,F#5,353.0,1.0,100,160.0
3329,A2,353.0,0.5,33,160.0
3330,A3,353.0,0.5,33,160.0
3331,C#4,353.0,0.5,33,160.0
3332,A2,353.5,0.5,83,160.0
3333,E4,353.5,0.5,83,160.0
3334,A4,353.5,0.5,83,160.0
3335,E3,353.5,0.5,83,160.0
3336,E6,353.625,0.25,100,160.0
3337,E6,353.875,0.25,100,160.0
3338,E6,353.875,0.25,100,160.0
3339,F#5,354.0,2.0,100,160.0
3340,A2,354.0,0.5,44,160.0
3341,E3,354.0,0.5,44,160.0
3342,A2,354.5,0.5,49,160.0
3343,A3,354.5,0.5,49,160.0
3344,C#4,354.5,0.5,49,160.0
3345,E4,354.5,0.5,49,160.0
3346,A3,355.0,0.5,44,160.0
3347,B2,355.0,0.5,44,160.0
3348,A2,355.5,0.5,31,160.0
3349,A3,355.5,0.5,31,160.0
3350,C#4,355.5,0.5,31,160.0
3351,E4,355.5,0.5,31,160.0
3352,F#2,356.0,1.5,83,160.0
3353,B2,356.0,1.0,72,160.0
3354,F#5,356.0,1.0,100,160.0
3355,B3,356.0,0.5,99,160.0
3356,E-4,356.0,0.5,99,160.0
3357,F#4,356.0,0.5,99,160.0
3358,B4,356.0,0.5,99,160.0
3359,B5,356.0,4.0,70,160.0
3360,E-5,356.0,4.0,70,160.0
3361,E6,356.125,4.0,100,160.0
3362,E6,356.125,4.0,100,160.0
3363,B4,356.125,2.0,100,160.0
3364,B4,356.125,2.0,100,160.0
3365,B3,356.5,0.5,31,160.0
3366,E-4,356.5,0.5,31,160.0
3367,F#4,356.5,0.5,31,160.0
3368,B2,357.0,0.5,33,160.0
3369,B3,357.0,0.5,33,160.0
3370,E-4,357.0,0.5,33,160.0
3371,F#2,357.5,0.5,83,160.0
3372,F#4,357.5,0.5,83,160.0
3373,E-4,357.5,0.5,83,160.0
3374,B3,357.5,0.5,83,160.0
3375,B3,358.0,0.5,58,160.0
3376,B2,358.5,0.5,49,160.0
3377,F#4,358.5,0.5,49,160.0
3378,E-4,358.5,0.5,49,160.0
3379,B3,358.5,0.5,49,160.0
3380,F#2,359.0,0.5,31,160.0
3381,B2,359.0,0.5,31,160.0
3382,E-4,359.0,0.5,31,160.0
3383,B2,359.5,0.5,31,160.0
3384,B3,359.5,0.5,31,160.0
3385,E-4,359.5,0.5,31,160.0
3386,F#4,359.5,0.5,31,160.0
3387,E2,360.0,1.5,83,160.0
3388,G#2,360.0,1.0,72,160.0
3389,F#4,360.0,0.25,100,160.0
3390,B3,360.0,0.5,99,160.0
3391,E4,360.0,0.5,99,160.0
3392,G#4,360.0,0.5,99,160.0
3393,B4,360.0,0.5,99,160.0
3394,G#6,360.0,4.0,70,160.0
3395,E5,360.0,4.0,70,160.0
3396,B3,360.25,0.25,100,160.0
3397,B4,360.5,1.0,83,160.0
3398,G#4,360.5,0.25,100,160.0
3399,B3,360.5,0.5,31,160.0
3400,E4,360.5,0.5,31,160.0
3401,G#4,360.5,0.5,31,160.0
3402,B3,360.75,0.25,100,160.0
3403,B4,361.0,1.0,31,160.0
3404,A4,361.0,0.375,100,160.0
3405,B3,361.0,0.5,34,160.0
3406,G#4,361.0,0.5,34,160.0
3407,B4,361.5,0.375,100,160.0
3408,E2,361.5,0.5,83,160.0
3409,E3,361.5,0.5,83,160.0
3410,G#3,361.5,0.5,83,160.0
3411,E4,361.5,0.5,83,160.0
3412,C#5,362.0,0.375,100,160.0
3413,E3,362.0,0.5,44,160.0
3414,B2,362.0,0.5,44,160.0
3415,E6,362.125,2.0,100,160.0
3416,E6,362.125,2.0,100,160.0
3417,G#3,362.5,0.5,49,160.0
3418,B3,362.5,0.5,49,160.0
3419,G#4,362.5,0.5,49,160.0
3420,E2,362.5,0.5,49,160.0
3421,E5,362.75,0.375,100,160.0
3422,G#3,363.0,0.5,44,160.0
3423,B3,363.0,0.5,44,160.0
3424,C#5,363.5,0.375,100,160.0
3425,B3,363.5,0.5,31,160.0
3426,E-4,363.5,0.5,31,160.0
3427,F#4,363.5,0.5,31,160.0
3428,G#2,363.5,0.5,31,160.0
3429,F#2,364.0,1.5,83,160.0
3430,B2,364.0,1.0,72,160.0
3431,B4,364.0,4.0,100,160.0
3432,B3,364.0,0.5,99,160.0
3433,E-4,364.0,0.5,99,160.0
3434,F#4,364.0,0.5,99,160.0
3435,B4,364.0,0.5,99,160.0
3436,F#6,364.0,4.0,70,160.0
3437,E-5,364.0,4.0,70,160.0
3438,B5,364.25,229/1000,100,160.0
3439,B5,364.25,229/1000,100,160.0
3440,B3,364.5,0.5,31,160.0
3441,E-4,364.5,0.5,31,160.0
3442,F#4,364.5,0.5,31,160.0
3443,E-6,364.5,77/200,100,160.0
3444,E-6,364.5,77/200,100,160.0
3445,B2,365.0,0.5,33,160.0
3446,B3,365.0,0.5,33,160.0
3447,E-4,365.0,0.5,33,160.0
3448,E6,365.125,0.75,100,160.0
3449,E6,365.125,0.75,100,160.0
3450,F#2,365.5,0.5,83,160.0
3451,B3,365.5,0.5,83,160.0
3452,F#4,365.5,0.5,83,160.0
3453,B4,365.5,0.5,83,160.0
3454,B4,365.625,0.5,100,160.0
3455,B4,365.625,0.5,100,160.0
3456,B3,366.0,0.5,58,160.0
3457,F#5,366.125,0.5,100,160.0
3458,F#5,366.125,0.5,100,160.0
3459,B2,366.5,0.5,49,160.0
3460,F#4,366.5,0.5,49,160.0
3461,E-4,366.5,0.5,49,160.0
3462,B3,366.5,0.5,49,160.0
3463,E5,366.625,0.5,100,160.0
3464,E5,366.625,0.5,100,160.0
3465,F#2,367.0,0.5,31,160.0
3466,B3,367.0,0.5,31,160.0
3467,E-4,367.0,0.5,31,160.0
3468,F#5,367.125,1.0,100,160.0
3469,F#5,367.125,1.0,100,160.0
3470,B2,367.5,0.5,31,160.0
3471,B3,367.5,0.5,31,160.0
3472,E-4,367.5,0.5,31,160.0
3473,F#4,367.5,0.5,31,160.0
3474,A2,368.0,1.0,72,160.0
3475,F#5,368.0,0.25,100,160.0
3476,A3,368.0,0.5,99,160.0
3477,C#4,368.0,0.5,99,160.0
3478,E4,368.0,0.5,99,160.0
3479,A4,368.0,0.5,99,160.0
3480,E6,368.0,4.0,70,160.0
3481,E5,368.0,4.0,70,160.0
3482,C#5,368.0,4.0,70,160.0
3483,F#5,368.125,2.0,100,160.0
3484,F#5,368.125,2.0,100,160.0
3485,B4,368.25,0.25,100,160.0
3486,G#5,368.5,0.25,100,160.0
3487,A3,368.5,0.5,31,160.0
3488,C#4,368.5,0.5,31,160.0
3489,E4,368.5,0.5,31,160.0
3490,B4,368.75,0.25,100,160.0
3491,A5,369.0,0.375,100,160.0
3492,A2,369.0,0.5,33,160.0
3493,A3,369.0,0.5,33,160.0
3494,C#4,369.0,0.5,33,160.0
3495,B5,369.5,0.375,100,160.0
3496,A2,369.5,0.5,83,160.0
3497,E4,369.5,0.5,83,160.0
3498,A4,369.5,0.5,83,160.0
3499,E3,369.5,0.5,83,160.0
3500,C#6,370.0,0.375,100,160.0
3501,A2,370.0,0.5,44,160.0
3502,E3,370.0,0.5,44,160.0
3503,A2,370.5,0.5,49,160.0
3504,A3,370.5,0.5,49,160.0
3505,C#4,370.5,0.5,49,160.0
3506,E4,370.5,0.5,49,160.0
3507,E6,370.75,0.375,100,160.0
3508,A3,371.0,0.5,44,160.0
3509,B2,371.0,0.5,44,160.0
3510,F#5,371.125,1.0,100,160.0
3511,F#5,371.125,1.0,100,160.0
3512,C#6,371.5,0.375,100,160.0
3513,A2,371.5,0.5,31,160.0
3514,A3,371.5,0.5,31,160.0
3515,C#4,371.5,0.5,31,160.0
3516,E4,371.5,0.5,31,160.0
3517,F#2,372.0,1.5,83,160.0
3518,B2,372.0,1.0,72,160.0
3519,B5,372.0,4.0,100,160.0
3520,B3,372.0,0.5,99,160.0
3521,E-4,372.0,0.5,99,160.0
3522,F#4,372.0,0.5,99,160.0
3523,B4,372.0,0.5,99,160.0
3524,B5,372.0,4.0,70,160.0
3525,B4,372.0,4.0,70,160.0
3526,B3,372.5,0.5,31,160.0
3527,E-4,372.5,0.5,31,160.0
3528,F#4,372.5,0.5,31,160.0
3529,B2,373.0,0.5,33,160.0
3530,B3,373.0,0.5,33,160.0
3531,E-4,373.0,0.5,33,160.0
3532,F#2,373.5,0.5,83,160.0
3533,F#4,373.5,0.5,83,160.0
3534,E-4,373.5,0.5,83,160.0
3535,B3,373.5,0.5,83,160.0
3536,B3,374.0,0.5,58,160.0
3537,B2,374.5,0.5,49,160.0
3538,F#4,374.5,0.5,49,160.0
3539,E-4,374.5,0.5,49,160.0
3540,B3,374.5,0.5,49,160.0
3541,F#2,375.0,0.5,31,160.0
3542,B2,375.0,0.5,31,160.0
3543,E-4,375.0,0.5,31,160.0
3544,F#4,375.125,0.25,100,160.0
3545,F#4,375.125,0.25,100,160.0
3546,B3,375.375,0.25,100,160.0
3547,B3,375.375,0.25,100,160.0
3548,B2,375.5,0.5,31,160.0
3549,B3,375.5,0.5,31,160.0
3550,E-4,375.5,0.5,31,160.0
3551,F#4,375.5,0.5,31,160.0
3552,G#4,375.625,0.25,100,160.0
3553,G#4,375.625,0.25,100,160.0
3554,B3,375.875,0.25,100,160.0
3555,B3,375.875,0.25,100,160.0
3556,E2,376.0,1.5,83,160.0
3557,G#2,376.0,1.0,72,160.0
3558,B2,376.0,4.0,53,160.0
3559,B3,376.0,0.5,99,160.0
3560,E4,376.0,0.5,99,160.0
3561,G#4,376.0,0.5,99,160.0
3562,B4,376.0,0.5,99,160.0
3563,A4,376.125,0.375,100,160.0
3564,A4,376.125,0.375,100,160.0
3565,B4,376.5,1.0,83,160.0
3566,B3,376.5,0.5,31,160.0
3567,E4,376.5,0.5,31,160.0
3568,G#4,376.5,0.5,31,160.0
3569,B4,376.625,0.375,100,160.0
3570,B4,376.625,0.375,100,160.0
3571,B4,377.0,1.0,31,160.0
3572,B3,377.0,0.5,34,160.0
3573,G#4,377.0,0.5,34,160.0
3574,C#5,377.125,0.375,100,160.0
3575,C#5,377.125,0.375,100,160.0
3576,E2,377.5,0.5,83,160.0
3577,E3,377.5,0.5,83,160.0
3578,G#3,377.5,0.5,83,160.0
3579,E4,377.5,0.5,83,160.0
3580,E5,377.875,0.375,100,160.0
3581,E5,377.875,0.375,100,160.0
3582,E3,378.0,0.5,44,160.0
3583,B2,378.0,0.5,44,160.0
3584,G#3,378.5,0.5,49,160.0
3585,B3,378.5,0.5,49,160.0
3586,G#4,378.5,0.5,49,160.0
3587,E2,378.5,0.5,49,160.0
3588,C#5,378.625,0.375,100,160.0
3589,C#5,378.625,0.375,100,160.0
3590,G#3,379.0,0.5,44,160.0
3591,B3,379.0,0.5,44,160.0
3592,B4,379.125,4.0,100,160.0
3593,B4,379.125,4.0,100,160.0
3594,B3,379.5,0.5,31,160.0
3595,E-4,379.5,0.5,31,160.0
3596,F#4,379.5,0.5,31,160.0
3597,G#2,379.5,0.5,31,160.0
3598,F#2,380.0,1.5,83,160.0
3599,B2,380.0,1.0,72,160.0
3600,F#3,380.0,4.0,53,160.0
3601,B3,380.0,0.5,99,160.0
3602,E-4,380.0,0.5,99,160.0
3603,F#4,380.0,0.5,99,160.0
3604,B4,380.0,0.5,99,160.0
3605,B3,380.5,0.5,31,160.0
3606,E-4,380.5,0.5,31,160.0
3607,F#4,380.5,0.5,31,160.0
3608,B2,381.0,0.5,33,160.0
3609,B3,381.0,0.5,33,160.0
3610,E-4,381.0,0.5,33,160.0
3611,B3,381.5,0.5,83,160.0
3612,F#4,381.5,0.5,83,160.0
3613,B4,381.5,0.5,83,160.0
3614,E2,381.5,0.5,83,160.0
3615,B3,382.0,0.5,58,160.0
3616,B2,382.5,0.5,49,160.0
3617,F#4,382.5,0.5,49,160.0
3618,E-4,382.5,0.5,49,160.0
3619,B3,382.5,0.5,49,160.0
3620,F#2,383.0,0.5,31,160.0
3621,B3,383.0,0.5,31,160.0
3622,E-4,383.0,0.5,31,160.0
3623,F#5,383.125,0.25,100,160.0
3624,F#5,383.125,0.25,100,160.0
3625,B4,383.375,0.25,100,160.0
3626,B4,383.375,0.25,100,160.0
3627,B2,383.5,0.5,31,160.0
3628,B3,383.5,0.5,31,160.0
3629,E-4,383.5,0.5,31,160.0
3630,F#4,383.5,0.5,31,160.0
3631,G#5,383.625,0.25,100,160.0
3632,G#5,383.625,0.25,100,160.0
3633,B4,383.875,0.25,100,160.0
3634,B4,383.875,0.25,100,160.0
3635,A2,384.0,1.0,72,160.0
3636,E2,384.0,1.5,83,160.0
3637,G#3,384.0,4.0,53,160.0
3638,A3,384.0,0.5,99,160.0
3639,C#4,384.0,0.5,99,160.0
3640,E4,384.0,0.5,99,160.0
3641,A4,384.0,0.5,99,160.0
3642,A5,384.125,0.375,100,160.0
3643,A5,384.125,0.375,100,160.0
3644,A3,384.5,0.5,31,160.0
3645,C#4,384.5,0.5,31,160.0
3646,E4,384.5,0.5,31,160.0
3647,B5,384.625,0.375,100,160.0
3648,B5,384.625,0.375,100,160.0
3649,A2,385.0,0.5,33,160.0
3650,A3,385.0,0.5,33,160.0
3651,C#4,385.0,0.5,33,160.0
3652,C#6,385.125,0.375,100,160.0
3653,C#6,385.125,0.375,100,160.0
3654,A2,385.5,0.5,83,160.0
3655,E4,385.5,0.5,83,160.0
3656,A4,385.5,0.5,83,160.0
3657,E3,385.5,0.5,83,160.0
3658,E6,385.875,0.375,100,160.0
3659,E6,385.875,0.375,100,160.0
3660,A2,386.0,0.5,44,160.0
3661,E3,386.0,0.5,44,160.0
3662,A2,386.5,0.5,49,160.0
3663,A3,386.5,0.5,49,160.0
3664,C#4,386.5,0.5,49,160.0
3665,E4,386.5,0.5,49,160.0
3666,C#6,386.625,0.375,100,160.0
3667,C#6,386.625,0.375,100,160.0
3668,A3,387.0,0.5,44,160.0
3669,B2,387.0,0.5,44,160.0
3670,B5,387.125,4.0,100,160.0
3671,B5,387.125,4.0,100,160.0
3672,A2,387.5,0.5,31,160.0
3673,A3,387.5,0.5,31,160.0
3674,C#4,387.5,0.5,31,160.0
3675,E4,387.5,0.5,31,160.0
3676,F#2,388.0,1.5,83,160.0
3677,B2,388.0,1.0,72,160.0
3678,F#3,388.0,4.0,52,160.0
3679,B3,388.0,0.5,99,160.0
3680,E-4,388.0,0.5,99,160.0
3681,F#4,388.0,0.5,99,160.0
3682,B4,388.0,0.5,99,160.0
3683,B3,388.5,0.5,31,160.0
3684,E-4,388.5,0.5,31,160.0
3685,F#4,388.5,0.5,31,160.0
3686,B2,389.0,0.5,33,160.0
3687,B3,389.0,0.5,33,160.0
3688,E-4,389.0,0.5,33,160.0
3689,F#2,389.5,0.5,83,160.0
3690,F#4,389.5,0.5,83,160.0
3691,E-4,389.5,0.5,83,160.0
3692,B3,389.5,0.5,83,160.0
3693,B3,390.0,0.5,58,160.0
3694,B2,390.5,0.5,49,160.0
3695,F#4,390.5,0.5,49,160.0
3696,E-4,390.5,0.5,49,160.0
3697,B3,390.5,0.5,49,160.0
3698,F#2,391.0,0.5,31,160.0
3699,B2,391.0,0.5,31,160.0
3700,E-4,391.0,0.5,31,160.0
3701,B2,391.5,0.5,31,160.0
3702,B3,391.5,0.5,31,160.0
3703,E-4,391.5,0.5,31,160.0
3704,F#4,391.5,0.5,31,160.0
3705,B2,392.0,0.5,85,160.0
3706,F#2,392.0,0.5,85,160.0
3707,F#3,392.0,0.5,85,160.0
3708,B3,392.0,0.5,85,160.0
3709,E-4,392.0,0.5,85,160.0
3710,F#3,392.5,0.5,31,160.0
3711,B3,392.5,0.5,31,160.0
3712,B2,392.5,0.5,31,160.0
3713,A3,393.0,0.5,31,160.0
3714,B2,393.5,0.5,83,160.0
3715,F#3,393.5,0.5,83,160.0
3716,B3,393.5,0.5,83,160.0
3717,E-4,393.5,0.5,83,160.0
3718,F#3,394.0,0.5,58,160.0
3719,B2,394.5,0.5,49,160.0
3720,F#3,394.5,0.5,49,160.0
3721,B3,394.5,0.5,49,160.0
3722,E-4,394.5,0.5,49,160.0
3723,B2,395.0,0.5,31,160.0
3724,F#2,395.5,0.5,31,160.0
3725,F#3,395.5,0.5,31,160.0
3726,E-4,395.5,0.5,31,160.0
3727,B2,395.5,0.5,31,160.0
3728,C#3,396.0,1.0,83,160.0
3729,C#4,396.0,0.5,86,160.0
3730,A3,396.0,0.5,86,160.0
3731,E3,396.0,0.5,86,160.0
3732,A2,396.0,0.5,86,160.0
3733,A2,396.5,0.5,31,160.0
3734,E3,396.5,0.5,31,160.0
3735,A3,396.5,0.5,31,160.0
3736,A3,397.0,0.5,31,160.0
3737,F#3,397.0,0.5,31,160.0
3738,B2,397.5,0.5,83,160.0
3739,F#3,397.5,0.5,83,160.0
3740,B3,397.5,0.5,83,160.0
3741,E-4,397.5,0.5,83,160.0
3742,F#3,398.0,0.5,58,160.0
3743,G#4,398.5,0.5,49,160.0
3744,B2,398.5,0.5,49,160.0
3745,F#3,398.5,0.5,49,160.0
3746,B3,398.5,0.5,49,160.0
3747,E-5,399.0,0.5,31,160.0
3748,B2,399.0,0.5,31,160.0
3749,B3,399.5,0.5,31,160.0
3750,E-4,399.5,0.5,31,160.0
3751,F#4,399.5,0.5,31,160.0
3752,F#2,399.5,0.5,31,160.0
3753,B2,399.5,0.5,31,160.0
3754,E2,400.0,1.0,78,160.0
3755,G#2,400.0,1.0,78,160.0
3756,B2,400.0,0.5,99,160.0
3757,E4,400.0,0.5,99,160.0
3758,G#3,400.0,0.5,99,160.0
3759,E3,400.0,0.5,99,160.0
3760,B2,400.5,0.5,31,160.0
3761,E3,400.5,0.5,31,160.0
3762,G#3,400.5,0.5,31,160.0
3763,A3,401.0,0.5,98,160.0
3764,E2,401.0,0.5,98,160.0
3765,A2,401.0,0.5,98,160.0
3766,E3,401.0,0.5,98,160.0
3767,C#4,401.0,0.5,98,160.0
3768,E4,401.0,0.5,98,160.0
3769,G#2,401.5,0.5,33,160.0
3770,E3,401.5,0.5,33,160.0
3771,G#3,401.5,0.5,33,160.0
3772,B3,402.0,0.5,98,160.0
3773,G#2,402.0,0.5,98,160.0
3774,G#3,402.0,0.5,98,160.0
3775,E2,402.0,0.5,98,160.0
3776,E3,402.0,0.5,98,160.0
3777,E4,402.0,0.5,98,160.0
3778,G#2,402.5,0.5,44,160.0
3779,E3,402.5,0.5,44,160.0
3780,B2,403.0,0.5,44,160.0
3781,E3,403.0,0.5,44,160.0
3782,G#2,403.5,0.5,31,160.0
3783,G#3,403.5,0.5,31,160.0
3784,E2,403.5,0.5,31,160.0
3785,B2,403.5,0.5,31,160.0
3786,E3,403.5,0.5,31,160.0
3787,E2,404.0,1.0,78,160.0
3788,A2,404.0,1.0,78,160.0
3789,E3,404.0,0.5,99,160.0
3790,A3,404.0,0.5,99,160.0
3791,C#4,404.0,0.5,99,160.0
3792,E4,404.0,0.5,99,160.0
3793,G#2,404.5,0.5,32,160.0
3794,G#3,404.5,0.5,32,160.0
3795,E2,405.0,0.5,59,160.0
3796,A2,405.0,0.5,59,160.0
3797,E3,405.0,0.5,59,160.0
3798,A3,405.0,0.5,59,160.0
3799,C#4,405.0,0.5,59,160.0
3800,E4,405.0,0.5,59,160.0
3801,B2,405.5,0.5,36,160.0
3802,E3,405.5,0.5,36,160.0
3803,G#3,405.5,0.5,36,160.0
3804,C#4,406.0,0.5,87,160.0
3805,E4,406.0,0.5,87,160.0
3806,A3,406.0,0.5,87,160.0
3807,E3,406.0,0.5,87,160.0
3808,E2,406.0,0.5,87,160.0
3809,G#3,406.5,0.5,85,160.0
3810,E4,406.5,0.5,85,160.0
3811,G#2,406.5,0.5,85,160.0
3812,B2,406.5,0.5,85,160.0
3813,E2,406.5,0.5,85,160.0
3814,E2,407.0,0.5,66,160.0
3815,G#3,407.0,0.5,66,160.0
3816,B2,407.0,0.5,66,160.0
3817,E3,407.0,0.5,66,160.0
3818,G#2,407.5,0.5,31,160.0
3819,G#3,407.5,0.5,31,160.0
3820,E2,407.5,0.5,31,160.0
3821,E3,407.5,0.5,31,160.0
3822,B2,408.0,0.5,85,160.0
3823,F#2,408.0,0.5,85,160.0
3824,F#3,408.0,0.5,85,160.0
3825,B3,408.0,0.5,85,160.0
3826,E-4,408.0,0.5,85,160.0
3827,F#3,408.5,0.5,31,160.0
3828,B3,408.5,0.5,31,160.0
3829,B2,408.5,0.5,31,160.0
3830,A3,409.0,0.5,31,160.0
3831,F#3,409.0,0.5,31,160.0
3832,B2,409.5,0.5,83,160.0
3833,F#3,409.5,0.5,83,160.0
3834,B3,409.5,0.5,83,160.0
3835,E-4,409.5,0.5,83,160.0
3836,F#3,410.0,0.5,58,160.0
3837,B2,410.5,0.5,49,160.0
3838,F#3,410.5,0.5,49,160.0
3839,B3,410.5,0.5,49,160.0
3840,E-4,410.5,0.5,49,160.0
3841,B2,411.0,0.5,31,160.0
3842,F#3,411.0,0.5,31,160.0
3843,F#2,411.5,0.5,31,160.0
3844,F#3,411.5,0.5,31,160.0
3845,E-4,411.5,0.5,31,160.0
3846,B2,411.5,0.5,31,160.0
3847,C#4,412.0,0.5,86,160.0
3848,A3,412.0,0.5,86,160.0
3849,E3,412.0,0.5,86,160.0
3850,A2,412.0,0.5,86,160.0
3851,A2,412.5,0.5,31,160.0
3852,E3,412.5,0.5,31,160.0
3853,A3,412.5,0.5,31,160.0
3854,A3,413.0,0.5,31,160.0
3855,F#3,413.0,0.5,31,160.0
3856,B2,413.5,0.5,83,160.0
3857,F#3,413.5,0.5,83,160.0
3858,B3,413.5,0.5,83,160.0
3859,E-4,413.5,0.5,83,160.0
3860,F#3,414.0,0.5,58,160.0
3861,G#4,414.5,0.5,49,160.0
3862,B2,414.5,0.5,49,160.0
3863,F#3,414.5,0.5,49,160.0
3864,B3,414.5,0.5,49,160.0
3865,E-5,415.0,0.5,31,160.0
3866,B2,415.0,0.5,31,160.0
3867,B3,415.5,0.5,31,160.0
3868,E-4,415.5,0.5,31,160.0
3869,F#4,415.5,0.5,31,160.0
3870,F#2,415.5,0.5,31,160.0
3871,B2,415.5,0.5,31,160.0
3872,E2,416.0,1.0,78,160.0
3873,G#2,416.0,1.0,78,160.0
3874,B2,416.0,0.5,99,160.0
3875,E4,416.0,0.5,99,160.0
3876,G#3,416.0,0.5,99,160.0
3877,E3,416.0,0.5,99,160.0
3878,B2,416.5,0.5,31,160.0
3879,E3,416.5,0.5,31,160.0
3880,G#3,416.5,0.5,31,160.0
3881,A3,417.0,0.5,98,160.0
3882,E2,417.0,0.5,98,160.0
3883,A2,417.0,0.5,98,160.0
3884,C#4,417.0,0.5,98,160.0
3885,E4,417.0,0.5,98,160.0
3886,G#2,417.5,0.5,33,160.0
3887,E3,417.5,0.5,33,160.0
3888,G#3,417.5,0.5,33,160.0
3889,B3,418.0,0.5,107,160.0
3890,G#2,418.0,0.5,107,160.0
3891,E2,418.0,0.5,107,160.0
3892,E3,418.0,0.5,107,160.0
3893,E4,418.0,0.5,107,160.0
3894,G#2,418.5,0.5,44,160.0
3895,E3,418.5,0.5,44,160.0
3896,B2,419.0,0.5,44,160.0
3897,E3,419.0,0.5,44,160.0
3898,G#2,419.5,0.5,31,160.0
3899,G#3,419.5,0.5,31,160.0
3900,E2,419.5,0.5,31,160.0
3901,B2,419.5,0.5,31,160.0
3902,E3,419.5,0.5,31,160.0
3903,B2,420.0,0.25,89,160.0
3904,E2,420.0,1.0,78,160.0
3905,A2,420.0,1.0,78,160.0
3906,E3,420.0,0.5,102,160.0
3907,A3,420.0,0.5,102,160.0
3908,E4,420.0,0.5,102,160.0
3909,C#3,420.5,0.25,89,160.0
3910,G#2,420.5,0.5,31,160.0
3911,G#3,420.5,0.5,31,160.0
3912,E3,420.5,0.5,31,160.0
3913,E-3,421.0,0.25,89,160.0
3914,E2,421.0,0.5,59,160.0
3915,A2,421.0,0.5,59,160.0
3916,E3,421.0,0.5,59,160.0
3917,A3,421.0,0.5,59,160.0
3918,C#4,421.0,0.5,59,160.0
3919,E4,421.0,0.5,59,160.0
3920,E3,421.5,0.25,89,160.0
3921,B2,421.5,0.5,36,160.0
3922,G#3,421.5,0.5,36,160.0
3923,F#3,422.0,0.25,89,160.0
3924,C#4,422.0,0.5,87,160.0
3925,E4,422.0,0.5,87,160.0
3926,A3,422.0,0.5,87,160.0
3927,E3,422.0,0.5,87,160.0
3928,E2,422.0,0.5,87,160.0
3929,G#3,422.5,0.25,89,160.0
3930,E3,422.5,0.5,91,160.0
3931,G#3,422.5,0.5,91,160.0
3932,E4,422.5,0.5,91,160.0
3933,G#2,422.5,0.5,91,160.0
3934,B2,422.5,0.5,91,160.0
3935,A3,423.0,0.25,89,160.0
3936,E2,423.0,0.5,68,160.0
3937,G#3,423.0,0.5,68,160.0
3938,B2,423.0,0.5,68,160.0
3939,B3,423.5,0.25,89,160.0
3940,G#2,423.5,0.5,31,160.0
3941,G#3,423.5,0.5,31,160.0
3942,E2,423.5,0.5,31,160.0
3943,B2,423.5,0.5,31,160.0
3944,E3,423.5,0.5,31,160.0
3945,B4,424.0,1.0,120,160.0
3946,B4,424.0,1.0,111,160.0
3947,E5,424.0,3.0,111,160.0
3948,B3,424.0,1.5,84,160.0
3949,E4,424.0,1.5,84,160.0
3950,G#4,424.0,1.5,84,160.0
3951,B4,424.0,1.5,84,160.0
3952,E2,424.0,2.0,72,160.0
3953,G#2,424.0,2.0,72,160.0
3954,B4,425.5,0.5,74,160.0
3955,B4,425.5,0.5,111,160.0
3956,B3,425.5,0.5,44,160.0
3957,E4,425.5,0.5,44,160.0
3958,G#4,425.5,0.5,44,160.0
3959,B4,425.5,0.5,44,160.0
3960,B4,426.0,917/1000,121,160.0
3961,B4,426.0,917/1000,111,160.0
3962,B-4,426.0,23/200,17,160.0
3963,E2,426.0,2.0,80,160.0
3964,G#2,426.0,2.0,80,160.0
3965,B3,426.0,2.0,80,160.0
3966,E4,426.0,2.0,80,160.0
3967,G#4,426.0,2.0,80,160.0
3968,B4,426.0,2.0,80,160.0
3969,B-4,426.5,23/200,18,160.0
3970,G#4,427.0,229/500,111,160.0
3971,B-4,427.0,23/200,20,160.0
3972,G#4,427.031,229/500,46,160.0
3973,A4,427.5,0.5,123,160.0
3974,A4,427.5,0.5,111,160.0
3975,B-4,427.5,23/200,12,160.0
3976,A4,428.0,0.312,123,160.0
3977,A4,428.0,0.312,111,160.0
3978,B4,428.0,3.0,111,160.0
3979,E-3,428.0,4.0,53,160.0
3980,B-4,428.0,23/200,127,160.0
3981,B3,428.0,1.5,78,160.0
3982,E-4,428.0,1.5,78,160.0
3983,F#4,428.0,1.5,78,160.0
3984,B4,428.0,1.5,78,160.0
3985,F#2,428.0,2.0,76,160.0
3986,B2,428.0,2.0,76,160.0
3987,G#4,428.5,0.5,66,160.0
3988,G#4,428.5,0.5,111,160.0
3989,B-4,428.5,23/200,18,160.0
3990,B4,429.0,1.0,127,160.0
3991,B4,429.0,1.0,111,160.0
3992,B-4,429.0,23/200,20,160.0
3993,B-4,429.5,23/200,12,160.0
3994,B3,429.5,0.5,44,160.0
3995,E-4,429.5,0.5,44,160.0
3996,F#4,429.5,0.5,44,160.0
3997,B4,429.5,0.5,44,160.0
3998,B-4,430.0,23/200,127,160.0
3999,F#2,430.0,2.0,77,160.0
4000,B2,430.0,2.0,77,160.0
4001,B3,430.0,2.0,77,160.0
4002,E-4,430.0,2.0,77,160.0
4003,F#4,430.0,2.0,77,160.0
4004,B4,430.0,2.0,77,160.0
4005,B-4,430.5,23/200,18,160.0
4006,E4,431.0,479/1000,56,160.0
4007,E4,431.0,0.469,111,160.0
4008,B-4,431.0,23/200,20,160.0
4009,E4,431.5,479/1000,61,160.0
4010,E4,431.5,0.5,111,160.0
4011,B-4,431.5,23/200,12,160.0
4012,A2,432.0,2.0,77,160.0
4013,A4,432.0,0.5,123,160.0
4014,A4,432.0,0.5,111,160.0
4015,G#4,432.0,3.0,111,160.0
4016,C#3,432.0,4.0,70,160.0
4017,A3,432.0,1.5,84,160.0
4018,C#4,432.0,1.5,84,160.0
4019,E4,432.0,1.5,84,160.0
4020,A4,432.0,1.5,84,160.0
4021,F#3,432.0,23/200,127,160.0
4022,B-4,432.0,23/200,127,160.0
4023,G#4,432.708,0.5,80,160.0
4024,G#4,432.708,0.5,111,160.0
4025,A3,433.5,0.5,44,160.0
4026,C#4,433.5,0.5,44,160.0
4027,E4,433.5,0.5,44,160.0
4028,A4,433.5,0.5,44,160.0
4029,F#4,433.583,0.5,80,160.0
4030,F#4,433.583,0.5,111,160.0
4031,A4,434.0,2.0,78,160.0
4032,A2,434.0,2.0,78,160.0
4033,A3,434.0,2.0,78,160.0
4034,E4,434.0,2.0,78,160.0
4035,C#4,434.0,2.0,78,160.0
4036,E4,434.646,0.5,80,160.0
4037,E4,434.646,0.5,111,160.0
4038,C#4,435.5,0.5,66,160.0
4039,C#4,435.5,0.5,111,160.0
4040,F#3,435.5,23/200,70,160.0
4041,B-4,435.5,23/200,70,160.0
4042,B2,436.0,4.0,70,160.0
4043,F#3,436.0,23/200,127,160.0
4044,B-4,436.0,23/200,127,160.0
4045,C#4,436.5,0.5,70,160.0
4046,G#4,436.5,0.5,122,160.0
4047,B-4,436.5,23/200,18,160.0
4048,A3,436.5,0.5,44,160.0
4049,C#4,436.5,0.5,44,160.0
4050,E4,436.5,0.5,44,160.0
4051,A4,436.5,0.5,44,160.0
4052,C#4,436.51,0.5,111,160.0
4053,A4,437.0,0.75,122,160.0
4054,B-4,437.0,23/200,20,160.0
4055,E4,437.0,1.0,59,160.0
4056,C#4,437.0,1.0,59,160.0
4057,A3,437.0,1.0,59,160.0
4058,E3,437.0,1.0,59,160.0
4059,A2,437.0,1.0,59,160.0
4060,E4,437.01,0.75,45,160.0
4061,E4,437.01,0.75,111,160.0
4062,B-4,437.5,23/200,12,160.0
4063,B3,438.0,1.0,111,160.0
4064,G#4,438.0,0.75,122,160.0
4065,B-4,438.0,23/200,127,160.0
4066,E4,438.0,2.0,79,160.0
4067,B3,438.0,2.0,79,160.0
4068,G#3,438.0,2.0,79,160.0
4069,E3,438.0,2.0,79,160.0
4070,E2,438.0,2.0,79,160.0
4071,B2,438.0,2.0,79,160.0
4072,B3,438.01,1.0,77,160.0
4073,B-4,438.5,23/200,18,160.0
4074,B-4,439.0,23/200,20,160.0
4075,B3,439.5,0.5,52,160.0
4076,B3,439.5,0.5,111,160.0
4077,B-4,439.5,23/200,12,160.0
4078,B2,440.0,1.0,83,160.0
4079,C#4,440.0,0.75,100,160.0
4080,C#4,440.0,0.75,111,160.0
4081,B2,440.0,4.0,64,160.0
4082,B-4,440.0,23/200,127,160.0
4083,F#2,440.0,0.5,86,160.0
4084,F#3,440.0,0.5,86,160.0
4085,B3,440.0,0.5,86,160.0
4086,E-4,440.0,0.5,86,160.0
4087,B2,440.5,1.0,36,160.0
4088,B-4,440.5,23/200,18,160.0
4089,F#3,440.5,0.5,29,160.0
4090,B3,440.5,0.5,29,160.0
4091,E4,441.0,479/1000,71,160.0
4092,E4,441.0,0.5,111,160.0
4093,B-4,441.0,23/200,20,160.0
4094,A3,441.0,0.5,31,160.0
4095,F#3,441.0,0.5,31,160.0
4096,F#4,441.5,479/1000,77,160.0
4097,F#4,441.5,0.5,111,160.0
4098,B-4,441.5,23/200,12,160.0
4099,B2,441.5,0.5,83,160.0
4100,F#3,441.5,0.5,83,160.0
4101,B3,441.5,0.5,83,160.0
4102,E-4,441.5,0.5,83,160.0
4103,F#3,442.0,0.5,58,160.0
4104,F#4,442.0,0.75,61,160.0
4105,F#4,442.0,0.75,111,160.0
4106,B-4,442.0,23/200,17,160.0
4107,B-4,442.5,23/200,18,160.0
4108,B2,442.5,0.5,49,160.0
4109,F#3,442.5,0.5,49,160.0
4110,B3,442.5,0.5,49,160.0
4111,E-4,442.5,0.5,49,160.0
4112,F#4,443.0,0.75,105,160.0
4113,F#4,443.0,0.75,111,160.0
4114,B-4,443.0,23/200,20,160.0
4115,B2,443.0,0.5,31,160.0
4116,F#3,443.0,0.5,31,160.0
4117,B-4,443.5,23/200,12,160.0
4118,F#2,443.5,0.5,31,160.0
4119,F#3,443.5,0.5,31,160.0
4120,E-4,443.5,0.5,31,160.0
4121,B2,443.5,0.5,31,160.0
4122,C#3,444.0,1.5,83,160.0
4123,E4,444.0,0.5,56,160.0
4124,E4,444.0,0.5,111,160.0
4125,F#3,444.0,4.0,53,160.0
4126,B-4,444.0,23/200,127,160.0
4127,C#4,444.0,0.5,86,160.0
4128,A3,444.0,0.5,86,160.0
4129,E3,444.0,0.5,86,160.0
4130,A2,444.0,0.5,86,160.0
4131,F#4,444.5,229/500,31,160.0
4132,F#4,444.5,229/500,111,160.0
4133,B-4,444.5,23/200,18,160.0
4134,A2,444.5,0.5,31,160.0
4135,E3,444.5,0.5,31,160.0
4136,A3,444.5,0.5,31,160.0
4137,F#4,445.0,479/1000,54,160.0
4138,F#4,445.0,0.5,111,160.0
4139,B-4,445.0,23/200,20,160.0
4140,A3,445.0,0.5,31,160.0
4141,F#3,445.0,0.5,31,160.0
4142,B-4,445.5,23/200,12,160.0
4143,B2,445.5,0.5,83,160.0
4144,F#3,445.5,0.5,83,160.0
4145,B3,445.5,0.5,83,160.0
4146,E-4,445.5,0.5,83,160.0
4147,G#4,445.562,1.5,100,160.0
4148,G#4,445.646,1.5,111,160.0
4149,F#3,446.0,0.5,58,160.0
4150,B-4,446.0,23/200,127,160.0
4151,B-4,446.5,23/200,18,160.0
4152,G#4,446.5,0.5,49,160.0
4153,B2,446.5,0.5,49,160.0
4154,F#3,446.5,0.5,49,160.0
4155,B3,446.5,0.5,49,160.0
4156,B-4,447.0,23/200,20,160.0
4157,E-5,447.0,0.5,31,160.0
4158,B2,447.0,0.5,31,160.0
4159,F#4,447.354,323/500,62,160.0
4160,F#4,447.354,323/500,111,160.0
4161,B-4,447.5,23/200,12,160.0
4162,B3,447.5,0.5,31,160.0
4163,E-4,447.5,0.5,31,160.0
4164,F#4,447.5,0.5,31,160.0
4165,F#2,447.5,0.5,31,160.0
4166,B2,447.5,0.5,31,160.0
4167,E2,448.0,1.5,83,160.0
4168,G#2,448.0,1.0,72,160.0
4169,F#4,448.0,13/125,62,160.0
4170,F#4,448.0,13/125,111,160.0
4171,G#3,448.0,4.0,70,160.0
4172,B-4,448.0,23/200,127,160.0
4173,B2,448.0,0.5,99,160.0
4174,E4,448.0,0.5,99,160.0
4175,G#3,448.0,0.5,99,160.0
4176,E3,448.0,0.5,99,160.0
4177,B-4,448.5,23/200,18,160.0
4178,B2,448.5,0.5,31,160.0
4179,E3,448.5,0.5,31,160.0
4180,G#3,448.5,0.5,31,160.0
4181,E4,448.51,2.0,40,160.0
4182,E4,448.51,2.0,111,160.0
4183,B-4,449.0,23/200,20,160.0
4184,G#3,449.0,0.5,33,160.0
4185,G#2,449.0,0.5,33,160.0
4186,E3,449.0,0.5,33,160.0
4187,B-4,449.5,23/200,12,160.0
4188,E2,449.5,0.5,83,160.0
4189,E3,449.5,0.5,83,160.0
4190,G#3,449.5,0.5,83,160.0
4191,E4,449.5,0.5,83,160.0
4192,E3,450.0,0.5,44,160.0
4193,B2,450.0,0.5,44,160.0
4194,F#3,450.0,23/200,72,160.0
4195,B-4,450.0,23/200,72,160.0
4196,F#3,450.25,23/200,41,160.0
4197,E2,450.5,0.5,49,160.0
4198,G#3,450.5,0.5,49,160.0
4199,E3,450.5,0.5,49,160.0
4200,E4,450.5,0.5,49,160.0
4201,F#3,450.5,23/200,30,160.0
4202,B-4,450.5,23/200,30,160.0
4203,G#4,451.0,0.5,44,160.0
4204,B2,451.0,0.5,44,160.0
4205,F#3,451.0,23/200,74,160.0
4206,B-4,451.0,23/200,74,160.0
4207,F#3,451.25,23/200,41,160.0
4208,E3,451.5,0.5,31,160.0
4209,E4,451.5,0.5,31,160.0
4210,B4,451.5,0.5,31,160.0
4211,G#2,451.5,0.5,31,160.0
4212,F#3,451.5,23/200,26,160.0
4213,B-4,451.5,23/200,26,160.0
4214,E2,452.0,1.5,83,160.0
4215,G#2,452.0,1.0,72,160.0
4216,B4,452.0,1.0,111,160.0
4217,E3,452.0,4.0,70,160.0
4218,B2,452.0,0.5,99,160.0
4219,E4,452.0,0.5,99,160.0
4220,G#3,452.0,0.5,99,160.0
4221,E3,452.0,0.5,99,160.0
4222,B-4,452.0,23/200,127,160.0
4223,B-4,452.0,23/200,127,160.0
4224,B2,452.5,0.5,31,160.0
4225,E3,452.5,0.5,31,160.0
4226,G#3,452.5,0.5,31,160.0
4227,B-4,452.5,23/200,18,160.0
4228,B-4,452.5,23/200,18,160.0
4229,A3,453.0,0.5,98,160.0
4230,E2,453.0,0.5,98,160.0
4231,A2,453.0,0.5,98,160.0
4232,E3,453.0,0.5,98,160.0
4233,C#4,453.0,0.5,98,160.0
4234,E4,453.0,0.5,98,160.0
4235,B-4,453.0,23/200,20,160.0
4236,B-4,453.0,23/200,20,160.0
4237,G#2,453.5,0.5,33,160.0
4238,E3,453.5,0.5,33,160.0
4239,G#3,453.5,0.5,33,160.0
4240,G#4,453.5,0.5,111,160.0
4241,B4,453.5,0.5,111,160.0
4242,B-4,453.5,23/200,12,160.0
4243,B-4,453.5,23/200,12,160.0
4244,B3,454.0,0.5,98,160.0
4245,G#2,454.0,0.5,98,160.0
4246,G#3,454.0,0.5,98,160.0
4247,E2,454.0,0.5,98,160.0
4248,E3,454.0,0.5,98,160.0
4249,E4,454.0,0.5,98,160.0
4250,F#3,454.0,23/200,90,160.0
4251,B-4,454.0,23/200,90,160.0
4252,B-4,454.0,23/200,90,160.0
4253,F#3,454.25,23/200,41,160.0
4254,G#2,454.5,0.5,44,160.0
4255,E3,454.5,0.5,44,160.0
4256,G#4,454.5,0.5,111,160.0
4257,B4,454.5,0.5,111,160.0
4258,F#3,454.5,23/200,26,160.0
4259,B-4,454.5,23/200,26,160.0
4260,B-4,454.5,23/200,26,160.0
4261,B2,455.0,0.5,44,160.0
4262,E3,455.0,0.5,44,160.0
4263,F#3,455.0,23/200,56,160.0
4264,B-4,455.0,23/200,56,160.0
4265,B-4,455.0,23/200,56,160.0
4266,F#3,455.25,23/200,41,160.0
4267,G#3,455.5,0.5,100,160.0
4268,G#3,455.5,0.5,111,160.0
4269,G#2,455.5,0.5,31,160.0
4270,G#3,455.5,0.5,31,160.0
4271,E2,455.5,0.5,31,160.0
4272,B2,455.5,0.5,31,160.0
4273,E3,455.5,0.5,31,160.0
4274,F#3,455.5,23/200,22,160.0
4275,B-4,455.5,23/200,22,160.0
4276,B-4,455.5,23/200,22,160.0
4277,B3,456.0,0.812,100,160.0
4278,B3,456.0,0.812,111,160.0
4279,B2,456.0,4.0,64,160.0
4280,B-4,456.0,23/200,127,160.0
4281,B2,456.0,0.5,85,160.0
4282,F#2,456.0,0.5,85,160.0
4283,F#3,456.0,0.5,85,160.0
4284,B3,456.0,0.5,85,160.0
4285,E-4,456.0,0.5,85,160.0
4286,B-4,456.5,23/200,18,160.0
4287,F#3,456.5,0.5,31,160.0
4288,B3,456.5,0.5,31,160.0
4289,B2,456.5,0.5,31,160.0
4290,E4,457.0,0.5,62,160.0
4291,E4,457.0,0.5,111,160.0
4292,B-4,457.0,23/200,20,160.0
4293,A3,457.0,0.5,31,160.0
4294,F#3,457.0,0.5,31,160.0
4295,F#4,457.5,1.25,52,160.0
4296,F#4,457.5,1.25,111,160.0
4297,B-4,457.5,23/200,12,160.0
4298,B2,457.5,0.5,83,160.0
4299,F#3,457.5,0.5,83,160.0
4300,B3,457.5,0.5,83,160.0
4301,E-4,457.5,0.5,83,160.0
4302,F#3,458.0,0.5,58,160.0
4303,B-4,458.0,23/200,17,160.0
4304,B-4,458.5,23/200,18,160.0
4305,B2,458.5,0.5,49,160.0
4306,F#3,458.5,0.5,49,160.0
4307,B3,458.5,0.5,49,160.0
4308,E-4,458.5,0.5,49,160.0
4309,F#4,459.0,917/1000,59,160.0
4310,F#4,459.0,917/1000,111,160.0
4311,B-4,459.0,23/200,20,160.0
4312,B2,459.0,0.5,31,160.0
4313,F#3,459.0,0.5,31,160.0
4314,B-4,459.5,23/200,12,160.0
4315,F#2,459.5,0.5,31,160.0
4316,F#3,459.5,0.5,31,160.0
4317,E-4,459.5,0.5,31,160.0
4318,B2,459.5,0.5,31,160.0
4319,C#3,460.0,1.0,83,160.0
4320,E4,460.0,0.75,65,160.0
4321,E4,460.0,0.75,111,160.0
4322,F#3,460.0,4.0,53,160.0
4323,B-4,460.0,23/200,127,160.0
4324,C#4,460.0,0.5,86,160.0
4325,A3,460.0,0.5,86,160.0
4326,E3,460.0,0.5,86,160.0
4327,A2,460.0,0.5,86,160.0
4328,B-4,460.5,23/200,18,160.0
4329,A2,460.5,0.5,31,160.0
4330,E3,460.5,0.5,31,160.0
4331,A3,460.5,0.5,31,160.0
4332,F#4,461.0,0.5,43,160.0
4333,F#4,461.0,0.5,111,160.0
4334,B-4,461.0,23/200,20,160.0
4335,A3,461.0,0.5,31,160.0
4336,F#3,461.0,0.5,31,160.0
4337,G#4,461.5,1333/1000,108,160.0
4338,G#4,461.5,1333/1000,111,160.0
4339,B-4,461.5,23/200,12,160.0
4340,B2,461.5,0.5,83,160.0
4341,F#3,461.5,0.5,83,160.0
4342,B3,461.5,0.5,83,160.0
4343,E-4,461.5,0.5,83,160.0
4344,F#3,462.0,0.5,58,160.0
4345,B-4,462.0,23/200,127,160.0
4346,B-4,462.5,23/200,18,160.0
4347,G#4,462.5,0.5,49,160.0
4348,B2,462.5,0.5,49,160.0
4349,F#3,462.5,0.5,49,160.0
4350,B3,462.5,0.5,49,160.0
4351,F#4,463.0,917/1000,77,160.0
4352,F#4,463.0,917/1000,111,160.0
4353,B-4,463.0,23/200,20,160.0
4354,E-5,463.0,0.5,31,160.0
4355,B2,463.0,0.5,31,160.0
4356,B-4,463.5,23/200,12,160.0
4357,B3,463.5,0.5,31,160.0
4358,E-4,463.5,0.5,31,160.0
4359,F#4,463.5,0.5,31,160.0
4360,F#2,463.5,0.5,31,160.0
4361,B2,463.5,0.5,31,160.0
4362,E2,464.0,1.5,83,160.0
4363,G#2,464.0,1.0,72,160.0
4364,E4,464.0,2.0,47,160.0
4365,E4,464.0,2.0,111,160.0
4366,G#3,464.0,4.0,70,160.0
4367,B-4,464.0,23/200,127,160.0
4368,B2,464.0,0.5,99,160.0
4369,E4,464.0,0.5,99,160.0
4370,G#3,464.0,0.5,99,160.0
4371,E3,464.0,0.5,99,160.0
4372,B-4,464.5,23/200,18,160.0
4373,B2,464.5,0.5,31,160.0
4374,E3,464.5,0.5,31,160.0
4375,G#3,464.5,0.5,31,160.0
4376,B-4,465.0,23/200,20,160.0
4377,G#3,465.0,0.5,33,160.0
4378,G#2,465.0,0.5,33,160.0
4379,E3,465.0,0.5,33,160.0
4380,B-4,465.5,23/200,12,160.0
4381,E2,465.5,0.5,83,160.0
4382,E3,465.5,0.5,83,160.0
4383,G#3,465.5,0.5,83,160.0
4384,E4,465.5,0.5,83,160.0
4385,B-4,466.0,23/200,17,160.0
4386,E3,466.0,0.5,44,160.0
4387,B2,466.0,0.5,44,160.0
4388,B-4,466.5,23/200,18,160.0
4389,E2,466.5,0.5,49,160.0
4390,G#3,466.5,0.5,49,160.0
4391,E3,466.5,0.5,49,160.0
4392,E4,466.5,0.5,49,160.0
4393,B-4,467.0,23/200,20,160.0
4394,G#4,467.0,0.5,44,160.0
4395,B2,467.0,0.5,44,160.0
4396,B-4,467.5,23/200,12,160.0
4397,E3,467.5,0.5,31,160.0
4398,E4,467.5,0.5,31,160.0
4399,B4,467.5,0.5,31,160.0
4400,G#2,467.5,0.5,31,160.0
4401,E2,468.0,1.5,83,160.0
4402,G#2,468.0,1.0,72,160.0
4403,E3,468.0,4.0,70,160.0
4404,B-4,468.0,23/200,127,160.0
4405,B2,468.0,0.5,99,160.0
4406,E4,468.0,0.5,99,160.0
4407,G#3,468.0,0.5,99,160.0
4408,E3,468.0,0.5,99,160.0
4409,B-4,468.5,23/200,18,160.0
4410,B2,468.5,0.5,31,160.0
4411,E3,468.5,0.5,31,160.0
4412,G#3,468.5,0.5,31,160.0
4413,B-4,469.0,23/200,20,160.0
4414,G#3,469.0,0.5,33,160.0
4415,G#2,469.0,0.5,33,160.0
4416,E3,469.0,0.5,33,160.0
4417,B-4,469.5,23/200,12,160.0
4418,E2,469.5,0.5,83,160.0
4419,E3,469.5,0.5,83,160.0
4420,G#3,469.5,0.5,83,160.0
4421,E4,469.5,0.5,83,160.0
4422,E3,470.0,0.5,58,160.0
4423,B-4,470.0,23/200,127,160.0
4424,B-4,470.5,23/200,18,160.0
4425,E2,470.5,0.5,49,160.0
4426,G#3,470.5,0.5,49,160.0
4427,E3,470.5,0.5,49,160.0
4428,E4,470.5,0.5,49,160.0
4429,B3,471.0,229/500,43,160.0
4430,B3,471.0,0.5,111,160.0
4431,B-4,471.0,23/200,20,160.0
4432,E2,471.0,0.5,31,160.0
4433,B2,471.0,0.5,31,160.0
4434,G#2,471.0,0.5,31,160.0
4435,B3,471.5,229/500,50,160.0
4436,B3,471.5,0.5,111,160.0
4437,B-4,471.5,23/200,12,160.0
4438,G#2,471.5,0.5,31,160.0
4439,B2,471.5,0.5,31,160.0
4440,E3,471.5,0.5,31,160.0
4441,G#3,471.5,0.5,31,160.0
4442,B3,472.0,0.469,51,160.0
4443,B3,472.0,0.5,111,160.0
4444,B2,472.0,4.0,64,160.0
4445,B2,472.0,0.5,85,160.0
4446,F#2,472.0,0.5,85,160.0
4447,F#3,472.0,0.5,85,160.0
4448,B3,472.0,0.5,85,160.0
4449,E-4,472.0,0.5,85,160.0
4450,F#3,472.0,23/200,127,160.0
4451,B-4,472.0,23/200,127,160.0
4452,B-4,472.0,23/200,127,160.0
4453,E4,472.5,0.5,110,160.0
4454,E4,472.5,0.5,111,160.0
4455,F#3,472.5,0.5,31,160.0
4456,B3,472.5,0.5,31,160.0
4457,B2,472.5,0.5,31,160.0
4458,F#3,472.5,23/200,18,160.0
4459,B-4,472.5,23/200,18,160.0
4460,B-4,472.5,23/200,18,160.0
4461,F#4,473.0,0.5,42,160.0
4462,F#4,473.0,0.5,111,160.0
4463,A3,473.0,0.5,31,160.0
4464,F#3,473.0,0.5,31,160.0
4465,F#3,473.0,23/200,20,160.0
4466,B-4,473.0,23/200,20,160.0
4467,B-4,473.0,23/200,20,160.0
4468,B2,473.5,0.5,83,160.0
4469,F#3,473.5,0.5,83,160.0
4470,B3,473.5,0.5,83,160.0
4471,E-4,473.5,0.5,83,160.0
4472,F#3,473.5,23/200,12,160.0
4473,B-4,473.5,23/200,12,160.0
4474,B-4,473.5,23/200,12,160.0
4475,F#4,473.604,0.5,111,160.0
4476,F#4,473.646,0.5,109,160.0
4477,F#3,474.0,0.5,58,160.0
4478,F#3,474.0,23/200,17,160.0
4479,B-4,474.0,23/200,17,160.0
4480,B-4,474.0,23/200,17,160.0
4481,F#4,474.5,0.5,53,160.0
4482,B2,474.5,0.5,49,160.0
4483,F#3,474.5,0.5,49,160.0
4484,B3,474.5,0.5,49,160.0
4485,E-4,474.5,0.5,49,160.0
4486,F#3,474.5,23/200,18,160.0
4487,B-4,474.5,23/200,18,160.0
4488,B-4,474.5,23/200,18,160.0
4489,F#4,474.51,0.5,111,160.0
4490,F#4,475.0,0.5,100,160.0
4491,F#4,475.0,0.5,111,160.0
4492,B2,475.0,0.5,31,160.0
4493,F#3,475.0,0.5,31,160.0
4494,F#3,475.0,23/200,20,160.0
4495,B-4,475.0,23/200,20,160.0
4496,B-4,475.0,23/200,20,160.0
4497,F#4,475.5,0.5,100,160.0
4498,F#4,475.5,0.5,111,160.0
4499,F#2,475.5,0.5,31,160.0
4500,F#3,475.5,0.5,31,160.0
4501,E-4,475.5,0.5,31,160.0
4502,B2,475.5,0.5,31,160.0
4503,F#3,475.5,23/200,12,160.0
4504,B-4,475.5,23/200,12,160.0
4505,B-4,475.5,23/200,12,160.0
4506,C#3,476.0,1.5,83,160.0
4507,E4,476.0,0.5,100,160.0
4508,E4,476.0,0.5,111,160.0
4509,B3,476.0,4.0,53,160.0
4510,C#4,476.0,0.5,86,160.0
4511,A3,476.0,0.5,86,160.0
4512,E3,476.0,0.5,86,160.0
4513,A2,476.0,0.5,86,160.0
4514,F#3,476.0,23/200,127,160.0
4515,B-4,476.0,23/200,127,160.0
4516,B-4,476.0,23/200,127,160.0
4517,F#4,476.5,0.5,65,160.0
4518,F#4,476.5,0.5,111,160.0
4519,A2,476.5,0.5,31,160.0
4520,E3,476.5,0.5,31,160.0
4521,A3,476.5,0.5,31,160.0
4522,F#3,476.5,23/200,18,160.0
4523,B-4,476.5,23/200,18,160.0
4524,B-4,476.5,23/200,18,160.0
4525,F#4,477.0,0.5,65,160.0
4526,F#4,477.0,0.5,65,160.0
4527,A3,477.0,0.5,31,160.0
4528,F#3,477.0,0.5,31,160.0
4529,F#3,477.0,23/200,20,160.0
4530,B-4,477.0,23/200,20,160.0
4531,B-4,477.0,23/200,20,160.0
4532,G#4,477.5,1.0,111,160.0
4533,B2,477.5,0.5,83,160.0
4534,F#3,477.5,0.5,83,160.0
4535,B3,477.5,0.5,83,160.0
4536,E-4,477.5,0.5,83,160.0
4537,F#3,477.5,23/200,12,160.0
4538,B-4,477.5,23/200,12,160.0
4539,B-4,477.5,23/200,12,160.0
4540,G#4,477.531,1.0,122,160.0
4541,F#3,478.0,0.5,58,160.0
4542,F#3,478.0,23/200,127,160.0
4543,B-4,478.0,23/200,127,160.0
4544,B-4,478.0,23/200,127,160.0
4545,G#4,478.5,0.5,49,160.0
4546,B2,478.5,0.5,49,160.0
4547,F#3,478.5,0.5,49,160.0
4548,B3,478.5,0.5,49,160.0
4549,F#3,478.5,23/200,18,160.0
4550,B-4,478.5,23/200,18,160.0
4551,B-4,478.5,23/200,18,160.0
4552,F#4,479.0,1.0,53,160.0
4553,E-5,479.0,0.5,31,160.0
4554,B2,479.0,0.5,31,160.0
4555,F#3,479.0,23/200,20,160.0
4556,B-4,479.0,23/200,20,160.0
4557,B-4,479.0,23/200,20,160.0
4558,F#4,479.01,99/100,111,160.0
4559,B3,479.5,0.5,31,160.0
4560,E-4,479.5,0.5,31,160.0
4561,F#4,479.5,0.5,31,160.0
4562,F#2,479.5,0.5,31,160.0
4563,B2,479.5,0.5,31,160.0
4564,F#3,479.5,23/200,12,160.0
4565,B-4,479.5,23/200,12,160.0
4566,B-4,479.5,23/200,12,160.0
4567,F#4,480.0,1/100,111,160.0
4568,G#3,480.0,4.0,70,160.0
4569,E2,480.0,1.0,78,160.0
4570,G#2,480.0,1.0,78,160.0
4571,B2,480.0,0.5,99,160.0
4572,E4,480.0,0.5,99,160.0
4573,G#3,480.0,0.5,99,160.0
4574,E3,480.0,0.5,99,160.0
4575,F#3,480.0,23/200,127,160.0
4576,B-4,480.0,23/200,127,160.0
4577,B-4,480.0,23/200,127,160.0
4578,E4,480.031,2.0,100,160.0
4579,E4,480.042,2.0,111,160.0
4580,B2,480.5,0.5,31,160.0
4581,E3,480.5,0.5,31,160.0
4582,G#3,480.5,0.5,31,160.0
4583,F#3,480.5,23/200,18,160.0
4584,B-4,480.5,23/200,18,160.0
4585,B-4,480.5,23/200,18,160.0
4586,A3,481.0,0.5,98,160.0
4587,E2,481.0,0.5,98,160.0
4588,A2,481.0,0.5,98,160.0
4589,E3,481.0,0.5,98,160.0
4590,C#4,481.0,0.5,98,160.0
4591,E4,481.0,0.5,98,160.0
4592,F#3,481.0,23/200,20,160.0
4593,B-4,481.0,23/200,20,160.0
4594,B-4,481.0,23/200,20,160.0
4595,G#2,481.5,0.5,33,160.0
4596,E3,481.5,0.5,33,160.0
4597,G#3,481.5,0.5,33,160.0
4598,F#3,481.5,23/200,12,160.0
4599,B-4,481.5,23/200,12,160.0
4600,B-4,481.5,23/200,12,160.0
4601,B3,482.0,0.5,98,160.0
4602,G#2,482.0,0.5,98,160.0
4603,G#3,482.0,0.5,98,160.0
4604,E2,482.0,0.5,98,160.0
4605,E3,482.0,0.5,98,160.0
4606,E4,482.0,0.5,98,160.0
4607,F#3,482.0,23/200,17,160.0
4608,B-4,482.0,23/200,17,160.0
4609,B-4,482.0,23/200,17,160.0
4610,G#2,482.5,0.5,44,160.0
4611,E3,482.5,0.5,44,160.0
4612,F#3,482.5,23/200,18,160.0
4613,B-4,482.5,23/200,18,160.0
4614,B-4,482.5,23/200,18,160.0
4615,B2,483.0,0.5,44,160.0
4616,E3,483.0,0.5,44,160.0
4617,F#3,483.0,23/200,20,160.0
4618,B-4,483.0,23/200,20,160.0
4619,B-4,483.0,23/200,20,160.0
4620,G#2,483.5,0.5,31,160.0
4621,G#3,483.5,0.5,31,160.0
4622,E2,483.5,0.5,31,160.0
4623,B2,483.5,0.5,31,160.0
4624,E3,483.5,0.5,31,160.0
4625,F#3,483.5,23/200,12,160.0
4626,B-4,483.5,23/200,12,160.0
4627,B-4,483.5,23/200,12,160.0
4628,B2,484.0,0.25,89,160.0
4629,E2,484.0,1.0,78,160.0
4630,A2,484.0,1.0,78,160.0
4631,E3,484.0,0.5,99,160.0
4632,A3,484.0,0.5,99,160.0
4633,C#4,484.0,0.5,99,160.0
4634,E4,484.0,0.5,99,160.0
4635,C#4,484.0,23/200,120,160.0
4636,F#3,484.0,23/200,120,160.0
4637,B-4,484.0,23/200,120,160.0
4638,B-4,484.0,23/200,120,160.0
4639,C#4,484.25,23/200,100,160.0
4640,C#3,484.5,0.25,89,160.0
4641,G#2,484.5,0.5,31,160.0
4642,G#3,484.5,0.5,31,160.0
4643,E3,484.5,0.5,31,160.0
4644,F#3,484.5,23/200,38,160.0
4645,B-4,484.5,23/200,38,160.0
4646,B-4,484.5,23/200,38,160.0
4647,C4,484.5,23/200,38,160.0
4648,E-3,485.0,0.25,89,160.0
4649,E2,485.0,0.5,59,160.0
4650,A2,485.0,0.5,59,160.0
4651,E3,485.0,0.5,59,160.0
4652,A3,485.0,0.5,59,160.0
4653,C#4,485.0,0.5,59,160.0
4654,E4,485.0,0.5,59,160.0
4655,C#4,485.0,23/200,40,160.0
4656,F#3,485.0,23/200,40,160.0
4657,B-4,485.0,23/200,40,160.0
4658,B-4,485.0,23/200,40,160.0
4659,C#4,485.25,23/200,100,160.0
4660,E3,485.5,0.25,89,160.0
4661,B2,485.5,0.5,36,160.0
4662,E3,485.5,0.5,36,160.0
4663,G#3,485.5,0.5,36,160.0
4664,C4,485.5,23/200,34,160.0
4665,F#3,485.5,23/200,34,160.0
4666,B-4,485.5,23/200,34,160.0
4667,B-4,485.5,23/200,34,160.0
4668,F#3,486.0,0.25,89,160.0
4669,C#4,486.0,0.5,87,160.0
4670,E4,486.0,0.5,87,160.0
4671,A3,486.0,0.5,87,160.0
4672,E3,486.0,0.5,87,160.0
4673,E2,486.0,0.5,87,160.0
4674,F#3,486.0,23/200,127,160.0
4675,B-4,486.0,23/200,127,160.0
4676,B-4,486.0,23/200,127,160.0
4677,G#3,486.5,0.25,89,160.0
4678,E3,486.5,0.5,81,160.0
4679,G#3,486.5,0.5,81,160.0
4680,E4,486.5,0.5,81,160.0
4681,G#2,486.5,0.5,81,160.0
4682,B2,486.5,0.5,81,160.0
4683,E2,486.5,0.5,81,160.0
4684,F#3,486.5,23/200,18,160.0
4685,B-4,486.5,23/200,18,160.0
4686,B-4,486.5,23/200,18,160.0
4687,A3,487.0,0.25,89,160.0
4688,E2,487.0,0.5,66,160.0
4689,G#3,487.0,0.5,66,160.0
4690,B2,487.0,0.5,66,160.0
4691,E3,487.0,0.5,66,160.0
4692,F#3,487.0,23/200,20,160.0
4693,B-4,487.0,23/200,20,160.0
4694,B-4,487.0,23/200,20,160.0
4695,B3,487.5,0.25,89,160.0
4696,G#2,487.5,0.5,31,160.0
4697,G#3,487.5,0.5,31,160.0
4698,E2,487.5,0.5,31,160.0
4699,B2,487.5,0.5,31,160.0
4700,E3,487.5,0.5,31,160.0
4701,C#4,487.5,23/200,47,160.0
4702,C4,487.5,23/200,47,160.0
4703,F#3,487.5,23/200,47,160.0
4704,B-4,487.5,23/200,47,160.0
4705,B-4,487.5,23/200,47,160.0
4706,C#4,487.75,23/200,100,160.0
4707,B4,488.0,1.0,120,160.0
4708,B4,488.0,1.0,111,160.0
4709,E5,488.0,3.0,111,160.0
4710,E3,488.0,4.0,64,160.0
4711,B-4,488.0,23/200,127,160.0
4712,B3,488.0,1.5,84,160.0
4713,E4,488.0,1.5,84,160.0
4714,G#4,488.0,1.5,84,160.0
4715,B4,488.0,1.5,84,160.0
4716,E2,488.0,2.0,72,160.0
4717,G#2,488.0,2.0,72,160.0
4718,B-4,488.5,23/200,18,160.0
4719,B-4,489.0,23/200,20,160.0
4720,B4,489.5,0.5,74,160.0
4721,B4,489.5,0.5,111,160.0
4722,B-4,489.5,23/200,12,160.0
4723,B3,489.5,0.5,44,160.0
4724,E4,489.5,0.5,44,160.0
4725,G#4,489.5,0.5,44,160.0
4726,B4,489.5,0.5,44,160.0
4727,B4,490.0,917/1000,121,160.0
4728,B4,490.0,917/1000,111,160.0
4729,B-4,490.0,23/200,17,160.0
4730,E2,490.0,2.0,80,160.0
4731,G#2,490.0,2.0,80,160.0
4732,B3,490.0,2.0,80,160.0
4733,E4,490.0,2.0,80,160.0
4734,G#4,490.0,2.0,80,160.0
4735,B4,490.0,2.0,80,160.0
4736,B-4,490.5,23/200,18,160.0
4737,G#4,491.0,229/500,111,160.0
4738,B-4,491.0,23/200,20,160.0
4739,G#4,491.031,229/500,46,160.0
4740,A4,491.5,0.5,111,160.0
4741,B-4,491.5,23/200,12,160.0
4742,A4,491.562,0.438,123,160.0
4743,A4,492.0,0.375,123,160.0
4744,A4,492.0,0.312,111,160.0
4745,B4,492.0,3.0,111,160.0
4746,E-3,492.0,4.0,53,160.0
4747,B-4,492.0,23/200,127,160.0
4748,B3,492.0,1.5,78,160.0
4749,E-4,492.0,1.5,78,160.0
4750,F#4,492.0,1.5,78,160.0
4751,B4,492.0,1.5,78,160.0
4752,F#2,492.0,2.0,76,160.0
4753,B2,492.0,2.0,76,160.0
4754,G#4,492.5,0.5,66,160.0
4755,G#4,492.5,0.5,111,160.0
4756,B-4,492.5,23/200,18,160.0
4757,B4,493.0,1.0,127,160.0
4758,B4,493.0,1.0,111,160.0
4759,B-4,493.0,23/200,20,160.0
4760,B-4,493.5,23/200,12,160.0
4761,B3,493.5,0.5,44,160.0
4762,E-4,493.5,0.5,44,160.0
4763,F#4,493.5,0.5,44,160.0
4764,B4,493.5,0.5,44,160.0
4765,B-4,494.0,23/200,127,160.0
4766,F#2,494.0,2.0,77,160.0
4767,B2,494.0,2.0,77,160.0
4768,B3,494.0,2.0,77,160.0
4769,E-4,494.0,2.0,77,160.0
4770,F#4,494.0,2.0,77,160.0
4771,B4,494.0,2.0,77,160.0
4772,B-4,494.5,23/200,18,160.0
4773,E4,495.0,0.469,110,160.0
4774,B-4,495.0,23/200,20,160.0
4775,E4,495.01,49/100,56,160.0
4776,E4,495.5,229/500,109,160.0
4777,B-4,495.5,23/200,12,160.0
4778,E4,495.51,479/1000,61,160.0
4779,A2,496.0,2.0,77,160.0
4780,A4,496.0,0.5,123,160.0
4781,A4,496.0,0.5,111,160.0
4782,G#4,496.0,3.0,111,160.0
4783,C#3,496.0,4.0,70,160.0
4784,A3,496.0,1.5,84,160.0
4785,C#4,496.0,1.5,84,160.0
4786,E4,496.0,1.5,84,160.0
4787,A4,496.0,1.5,84,160.0
4788,F#3,496.0,23/200,127,160.0
4789,B-4,496.0,23/200,127,160.0
4790,G#4,496.708,0.5,80,160.0
4791,G#4,496.708,0.5,111,160.0
4792,A3,497.5,0.5,44,160.0
4793,C#4,497.5,0.5,44,160.0
4794,E4,497.5,0.5,44,160.0
4795,A4,497.5,0.5,44,160.0
4796,F#4,497.583,0.5,80,160.0
4797,F#4,497.583,0.5,111,160.0
4798,A4,498.0,2.0,78,160.0
4799,A2,498.0,2.0,78,160.0
4800,A3,498.0,2.0,78,160.0
4801,E4,498.0,2.0,78,160.0
4802,C#4,498.0,2.0,78,160.0
4803,E4,498.646,0.5,80,160.0
4804,E4,498.646,0.5,111,160.0
4805,C#4,499.5,0.5,66,160.0
4806,C#4,499.5,0.5,111,160.0
4807,F#3,499.5,23/200,70,160.0
4808,B-4,499.5,23/200,70,160.0
4809,B2,500.0,4.0,70,160.0
4810,F#3,500.0,23/200,127,160.0
4811,B-4,500.0,23/200,127,160.0
4812,C#4,500.5,0.5,70,160.0
4813,G#4,500.5,0.5,122,160.0
4814,B-4,500.5,23/200,18,160.0
4815,A3,500.5,0.5,44,160.0
4816,C#4,500.5,0.5,44,160.0
4817,E4,500.5,0.5,44,160.0
4818,A4,500.5,0.5,44,160.0
4819,C#4,500.51,49/100,112,160.0
4820,A4,501.0,0.75,122,160.0
4821,B-4,501.0,23/200,20,160.0
4822,E4,501.0,1.0,59,160.0
4823,C#4,501.0,1.0,59,160.0
4824,A3,501.0,1.0,59,160.0
4825,E3,501.0,1.0,59,160.0
4826,A2,501.0,1.0,59,160.0
4827,E4,501.01,729/1000,45,160.0
4828,E4,501.01,729/1000,112,160.0
4829,B-4,501.5,23/200,12,160.0
4830,B3,502.0,1.0,32,160.0
4831,B3,502.0,1.0,107,160.0
4832,G#4,502.0,0.75,122,160.0
4833,B-4,502.0,23/200,127,160.0
4834,E4,502.0,2.0,79,160.0
4835,B3,502.0,2.0,79,160.0
4836,G#3,502.0,2.0,79,160.0
4837,E3,502.0,2.0,79,160.0
4838,E2,502.0,2.0,79,160.0
4839,B2,502.0,2.0,79,160.0
4840,B-4,502.5,23/200,18,160.0
4841,B-4,503.0,23/200,20,160.0
4842,B3,503.5,0.5,52,160.0
4843,B3,503.5,0.5,111,160.0
4844,B-4,503.5,23/200,12,160.0
4845,B2,504.0,1.0,83,160.0
4846,C#4,504.0,0.75,100,160.0
4847,C#4,504.0,0.75,111,160.0
4848,B2,504.0,4.0,64,160.0
4849,B-4,504.0,23/200,127,160.0
4850,F#2,504.0,0.5,86,160.0
4851,F#3,504.0,0.5,86,160.0
4852,B3,504.0,0.5,86,160.0
4853,E-4,504.0,0.5,86,160.0
4854,B2,504.5,1.0,36,160.0
4855,B-4,504.5,23/200,18,160.0
4856,F#3,504.5,0.5,29,160.0
4857,B3,504.5,0.5,29,160.0
4858,E4,505.0,0.5,100,160.0
4859,E4,505.0,0.5,111,160.0
4860,B-4,505.0,23/200,20,160.0
4861,A3,505.0,0.5,31,160.0
4862,F#3,505.0,0.5,31,160.0
4863,F#4,505.5,0.5,100,160.0
4864,F#4,505.5,0.5,111,160.0
4865,B-4,505.5,23/200,12,160.0
4866,B2,505.5,0.5,83,160.0
4867,F#3,505.5,0.5,83,160.0
4868,B3,505.5,0.5,83,160.0
4869,E-4,505.5,0.5,83,160.0
4870,F#3,506.0,0.5,58,160.0
4871,F#4,506.0,0.75,100,160.0
4872,F#4,506.0,0.75,111,160.0
4873,B-4,506.0,23/200,17,160.0
4874,B-4,506.5,23/200,18,160.0
4875,B2,506.5,0.5,49,160.0
4876,F#3,506.5,0.5,49,160.0
4877,B3,506.5,0.5,49,160.0
4878,E-4,506.5,0.5,49,160.0
4879,F#4,507.0,0.75,100,160.0
4880,F#4,507.0,0.75,111,160.0
4881,B-4,507.0,23/200,20,160.0
4882,B2,507.0,0.5,31,160.0
4883,F#3,507.0,0.5,31,160.0
4884,B-4,507.5,23/200,12,160.0
4885,F#2,507.5,0.5,31,160.0
4886,F#3,507.5,0.5,31,160.0
4887,E-4,507.5,0.5,31,160.0
4888,B2,507.5,0.5,31,160.0
4889,C#3,508.0,1.5,83,160.0
4890,E4,508.0,229/500,56,160.0
4891,E4,508.0,479/1000,111,160.0
4892,F#3,508.0,4.0,53,160.0
4893,B-4,508.0,23/200,127,160.0
4894,C#4,508.0,0.5,86,160.0
4895,A3,508.0,0.5,86,160.0
4896,E3,508.0,0.5,86,160.0
4897,A2,508.0,0.5,86,160.0
4898,F#4,508.5,229/500,31,160.0
4899,F#4,508.5,479/1000,111,160.0
4900,B-4,508.5,23/200,18,160.0
4901,A2,508.5,0.5,31,160.0
4902,E3,508.5,0.5,31,160.0
4903,A3,508.5,0.5,31,160.0
4904,F#4,509.0,479/1000,54,160.0
4905,F#4,509.0,479/1000,111,160.0
4906,B-4,509.0,23/200,20,160.0
4907,A3,509.0,0.5,31,160.0
4908,F#3,509.0,0.5,31,160.0
4909,G#4,509.5,1.5,100,160.0
4910,G#4,509.5,1.5,111,160.0
4911,B-4,509.5,23/200,12,160.0
4912,B2,509.5,0.5,83,160.0
4913,F#3,509.5,0.5,83,160.0
4914,B3,509.5,0.5,83,160.0
4915,E-4,509.5,0.5,83,160.0
4916,F#3,510.0,0.5,58,160.0
4917,B-4,510.0,23/200,127,160.0
4918,B-4,510.5,23/200,18,160.0
4919,G#4,510.5,0.5,49,160.0
4920,B2,510.5,0.5,49,160.0
4921,F#3,510.5,0.5,49,160.0
4922,B3,510.5,0.5,49,160.0
4923,B-4,511.0,23/200,20,160.0
4924,E-5,511.0,0.5,31,160.0
4925,B2,511.0,0.5,31,160.0
4926,F#4,511.354,323/500,62,160.0
4927,F#4,511.354,323/500,111,160.0
4928,B-4,511.5,23/200,12,160.0
4929,B3,511.5,0.5,31,160.0
4930,E-4,511.5,0.5,31,160.0
4931,F#4,511.5,0.5,31,160.0
4932,F#2,511.5,0.5,31,160.0
4933,B2,511.5,0.5,31,160.0
4934,E2,512.0,1.5,83,160.0
4935,G#2,512.0,1.0,72,160.0
4936,F#4,512.0,13/125,62,160.0
4937,F#4,512.0,13/125,111,160.0
4938,G#3,512.0,4.0,70,160.0
4939,B2,512.0,0.5,99,160.0
4940,E4,512.0,0.5,99,160.0
4941,G#3,512.0,0.5,99,160.0
4942,E3,512.0,0.5,99,160.0
4943,G#4,512.0,1.0,111,160.0
4944,B4,512.0,1.0,111,160.0
4945,B-4,512.0,23/200,127,160.0
4946,B-4,512.0,23/200,127,160.0
4947,B2,512.5,0.5,31,160.0
4948,E3,512.5,0.5,31,160.0
4949,G#3,512.5,0.5,31,160.0
4950,B-4,512.5,23/200,18,160.0
4951,B-4,512.5,23/200,18,160.0
4952,E4,512.51,2.0,40,160.0
4953,E4,512.51,2.0,111,160.0
4954,G#3,513.0,0.5,33,160.0
4955,G#2,513.0,0.5,33,160.0
4956,E3,513.0,0.5,33,160.0
4957,B-4,513.0,23/200,20,160.0
4958,B-4,513.0,23/200,20,160.0
4959,E2,513.5,0.5,83,160.0
4960,E3,513.5,0.5,83,160.0
4961,G#3,513.5,0.5,83,160.0
4962,E4,513.5,0.5,83,160.0
4963,G#4,513.5,0.5,111,160.0
4964,B4,513.5,0.5,111,160.0
4965,B-4,513.5,23/200,12,160.0
4966,B-4,513.5,23/200,12,160.0
4967,E3,514.0,0.5,44,160.0
4968,B2,514.0,0.5,44,160.0
4969,F#3,514.0,23/200,72,160.0
4970,B-4,514.0,23/200,72,160.0
4971,F#3,514.0,23/200,72,160.0
4972,B-4,514.0,23/200,72,160.0
4973,F#3,514.25,23/200,41,160.0
4974,F#3,514.25,23/200,41,160.0
4975,E2,514.5,0.5,49,160.0
4976,G#3,514.5,0.5,49,160.0
4977,E3,514.5,0.5,49,160.0
4978,E4,514.5,0.5,49,160.0
4979,G#4,514.5,0.5,111,160.0
4980,B4,514.5,0.5,111,160.0
4981,F#3,514.5,23/200,30,160.0
4982,B-4,514.5,23/200,30,160.0
4983,F#3,514.5,23/200,30,160.0
4984,B-4,514.5,23/200,30,160.0
4985,G#4,515.0,0.5,44,160.0
4986,B2,515.0,0.5,44,160.0
4987,F#3,515.0,23/200,74,160.0
4988,B-4,515.0,23/200,74,160.0
4989,F#3,515.0,23/200,74,160.0
4990,B-4,515.0,23/200,74,160.0
4991,F#3,515.25,23/200,41,160.0
4992,F#3,515.25,23/200,41,160.0
4993,E3,515.5,0.5,31,160.0
4994,E4,515.5,0.5,31,160.0
4995,B4,515.5,0.5,31,160.0
4996,G#2,515.5,0.5,31,160.0
4997,G#4,515.5,0.5,111,160.0
4998,B4,515.5,0.5,111,160.0
4999,F#3,515.5,23/200,26,160.0
5000,B-4,515.5,23/200,26,160.0
5001,F#3,515.5,23/200,26,160.0
5002,B-4,515.5,23/200,26,160.0
5003,E2,516.0,1.5,83,160.0
5004,G#2,516.0,1.0,72,160.0
5005,E3,516.0,4.0,70,160.0
5006,B-4,516.0,23/200,127,160.0
5007,B2,516.0,0.5,99,160.0
5008,E4,516.0,0.5,99,160.0
5009,G#3,516.0,0.5,99,160.0
5010,E3,516.0,0.5,99,160.0
5011,B-4,516.5,23/200,18,160.0
5012,B2,516.5,0.5,31,160.0
5013,E3,516.5,0.5,31,160.0
5014,G#3,516.5,0.5,31,160.0
5015,G#4,516.5,0.5,111,160.0
5016,B4,516.5,0.5,111,160.0
5017,B-4,517.0,23/200,20,160.0
5018,A3,517.0,0.5,98,160.0
5019,E2,517.0,0.5,98,160.0
5020,A2,517.0,0.5,98,160.0
5021,E3,517.0,0.5,98,160.0
5022,C#4,517.0,0.5,98,160.0
5023,E4,517.0,0.5,98,160.0
5024,B-4,517.5,23/200,12,160.0
5025,G#2,517.5,0.5,33,160.0
5026,E3,517.5,0.5,33,160.0
5027,G#3,517.5,0.5,33,160.0
5028,B-4,518.0,23/200,127,160.0
5029,B3,518.0,0.5,98,160.0
5030,G#2,518.0,0.5,98,160.0
5031,G#3,518.0,0.5,98,160.0
5032,E2,518.0,0.5,98,160.0
5033,E3,518.0,0.5,98,160.0
5034,E4,518.0,0.5,98,160.0
5035,B-4,518.5,23/200,18,160.0
5036,G#2,518.5,0.5,44,160.0
5037,E3,518.5,0.5,44,160.0
5038,B-4,519.0,23/200,20,160.0
5039,B2,519.0,0.5,44,160.0
5040,E3,519.0,0.5,44,160.0
5041,B-4,519.5,23/200,12,160.0
5042,G#2,519.5,0.5,31,160.0
5043,G#3,519.5,0.5,31,160.0
5044,E2,519.5,0.5,31,160.0
5045,B2,519.5,0.5,31,160.0
5046,E3,519.5,0.5,31,160.0
5047,B4,520.0,1.0,91,160.0
5048,B4,520.0,1.0,111,160.0
5049,B3,520.0,1.5,84,160.0
5050,E4,520.0,1.5,84,160.0
5051,G#4,520.0,1.5,84,160.0
5052,B4,520.0,1.5,84,160.0
5053,E2,520.0,2.0,72,160.0
5054,G#2,520.0,2.0,72,160.0
5055,B4,521.5,0.5,74,160.0
5056,B4,521.5,0.5,111,160.0
5057,B3,521.5,0.5,44,160.0
5058,E4,521.5,0.5,44,160.0
5059,G#4,521.5,0.5,44,160.0
5060,B4,521.5,0.5,44,160.0
5061,B4,522.0,917/1000,106,160.0
5062,B4,522.0,917/1000,111,160.0
5063,E2,522.0,2.0,80,160.0
5064,G#2,522.0,2.0,80,160.0
5065,B3,522.0,2.0,80,160.0
5066,E4,522.0,2.0,80,160.0
5067,G#4,522.0,2.0,80,160.0
5068,B4,522.0,2.0,80,160.0
5069,G#4,523.0,417/1000,111,160.0
5070,G#4,523.031,229/500,46,160.0
5071,A4,523.5,0.5,111,160.0
5072,A4,523.562,0.438,108,160.0
5073,A4,524.0,0.375,108,160.0
5074,A4,524.0,0.312,111,160.0
5075,B3,524.0,1.5,78,160.0
5076,E-4,524.0,1.5,78,160.0
5077,F#4,524.0,1.5,78,160.0
5078,B4,524.0,1.5,78,160.0
5079,F#2,524.0,2.0,76,160.0
5080,B2,524.0,2.0,76,160.0
5081,G#4,524.5,479/1000,66,160.0
5082,G#4,524.5,479/1000,111,160.0
5083,B4,525.0,1.0,97,160.0
5084,B4,525.0,1.0,111,160.0
5085,B3,525.5,0.5,44,160.0
5086,E-4,525.5,0.5,44,160.0
5087,F#4,525.5,0.5,44,160.0
5088,B4,525.5,0.5,44,160.0
5089,F#2,526.0,2.0,77,160.0
5090,B2,526.0,2.0,77,160.0
5091,B3,526.0,2.0,77,160.0
5092,E-4,526.0,2.0,77,160.0
5093,F#4,526.0,2.0,77,160.0
5094,B4,526.0,2.0,77,160.0
5095,E4,527.0,479/1000,56,160.0
5096,E4,527.0,0.469,111,160.0
5097,E4,527.5,0.5,61,160.0
5098,E4,527.5,0.5,111,160.0
5099,A2,528.0,2.0,77,160.0
5100,A4,528.0,0.5,123,160.0
5101,A4,528.0,0.5,111,160.0
5102,A3,528.0,1.5,84,160.0
5103,C#4,528.0,1.5,84,160.0
5104,E4,528.0,1.5,84,160.0
5105,A4,528.0,1.5,84,160.0
5106,G#4,528.708,0.5,80,160.0
5107,G#4,528.708,0.5,111,160.0
5108,A3,529.5,0.5,44,160.0
5109,C#4,529.5,0.5,44,160.0
5110,E4,529.5,0.5,44,160.0
5111,A4,529.5,0.5,44,160.0
5112,F#4,529.583,0.5,80,160.0
5113,F#4,529.583,0.5,111,160.0
5114,A4,530.0,2.0,78,160.0
5115,A2,530.0,2.0,78,160.0
5116,A3,530.0,2.0,78,160.0
5117,E4,530.0,2.0,78,160.0
5118,C#4,530.0,2.0,78,160.0
5119,E4,530.646,0.5,80,160.0
5120,E4,530.646,0.5,111,160.0
5121,C#4,531.5,0.5,66,160.0
5122,C#4,531.5,0.5,111,160.0
5123,C#4,532.5,0.5,70,160.0
5124,A3,532.5,0.5,44,160.0
5125,C#4,532.5,0.5,44,160.0
5126,E4,532.5,0.5,44,160.0
5127,A4,532.5,0.5,44,160.0
5128,C#4,532.51,0.5,111,160.0
5129,E4,533.0,1.0,59,160.0
5130,C#4,533.0,1.0,59,160.0
5131,A3,533.0,1.0,59,160.0
5132,E3,533.0,1.0,59,160.0
5133,A2,533.0,1.0,59,160.0
5134,E4,533.01,0.75,45,160.0
5135,E4,533.01,0.75,111,160.0
5136,B3,534.0,1.0,77,160.0
5137,B3,534.0,1.0,111,160.0
5138,E4,534.0,2.0,79,160.0
5139,B3,534.0,2.0,79,160.0
5140,G#3,534.0,2.0,79,160.0
5141,E3,534.0,2.0,79,160.0
5142,E2,534.0,2.0,79,160.0
5143,B2,534.0,2.0,79,160.0
5144,B3,535.5,0.5,52,160.0
5145,B3,535.5,0.5,111,160.0
5146,B2,536.0,1.0,83,160.0
5147,C#4,536.0,0.75,100,160.0
5148,C#4,536.0,0.75,111,160.0
5149,B-4,536.0,23/200,127,160.0
5150,F#2,536.0,0.5,86,160.0
5151,F#3,536.0,0.5,86,160.0
5152,B3,536.0,0.5,86,160.0
5153,E-4,536.0,0.5,86,160.0
5154,B2,536.5,1.0,36,160.0
5155,B-4,536.5,23/200,18,160.0
5156,F#3,536.5,0.5,29,160.0
5157,B3,536.5,0.5,29,160.0
5158,E4,537.0,0.5,100,160.0
5159,E4,537.0,0.5,111,160.0
5160,B-4,537.0,23/200,20,160.0
5161,A3,537.0,0.5,31,160.0
5162,F#3,537.0,0.5,31,160.0
5163,F#4,537.5,0.5,100,160.0
5164,F#4,537.5,0.5,111,160.0
5165,B-4,537.5,23/200,12,160.0
5166,B2,537.5,0.5,83,160.0
5167,F#3,537.5,0.5,83,160.0
5168,B3,537.5,0.5,83,160.0
5169,E-4,537.5,0.5,83,160.0
5170,F#3,538.0,0.5,58,160.0
5171,F#4,538.0,0.75,100,160.0
5172,F#4,538.0,0.75,111,160.0
5173,B-4,538.0,23/200,17,160.0
5174,B-4,538.5,23/200,18,160.0
5175,B2,538.5,0.5,49,160.0
5176,F#3,538.5,0.5,49,160.0
5177,B3,538.5,0.5,49,160.0
5178,E-4,538.5,0.5,49,160.0
5179,F#4,539.0,0.75,100,160.0
5180,F#4,539.0,0.75,111,160.0
5181,B-4,539.0,23/200,20,160.0
5182,B2,539.0,0.5,31,160.0
5183,F#3,539.0,0.5,31,160.0
5184,B-4,539.5,23/200,12,160.0
5185,F#2,539.5,0.5,31,160.0
5186,F#3,539.5,0.5,31,160.0
5187,E-4,539.5,0.5,31,160.0
5188,B2,539.5,0.5,31,160.0
5189,C#3,540.0,1.5,83,160.0
5190,E4,540.0,229/500,56,160.0
5191,E4,540.0,479/1000,111,160.0
5192,B-4,540.0,23/200,127,160.0
5193,C#4,540.0,0.5,86,160.0
5194,A3,540.0,0.5,86,160.0
5195,E3,540.0,0.5,86,160.0
5196,A2,540.0,0.5,86,160.0
5197,F#4,540.5,229/500,53,160.0
5198,F#4,540.5,479/1000,111,160.0
5199,B-4,540.5,23/200,18,160.0
5200,A2,540.5,0.5,31,160.0
5201,E3,540.5,0.5,31,160.0
5202,A3,540.5,0.5,31,160.0
5203,F#4,541.0,479/1000,54,160.0
5204,F#4,541.0,479/1000,111,160.0
5205,B-4,541.0,23/200,20,160.0
5206,A3,541.0,0.5,31,160.0
5207,F#3,541.0,0.5,31,160.0
5208,G#4,541.5,1.5,88,160.0
5209,G#4,541.5,1.5,111,160.0
5210,B-4,541.5,23/200,12,160.0
5211,B2,541.5,0.5,83,160.0
5212,F#3,541.5,0.5,83,160.0
5213,B3,541.5,0.5,83,160.0
5214,E-4,541.5,0.5,83,160.0
5215,F#3,542.0,0.5,58,160.0
5216,B-4,542.0,23/200,127,160.0
5217,B-4,542.5,23/200,18,160.0
5218,G#4,542.5,0.5,49,160.0
5219,B2,542.5,0.5,49,160.0
5220,F#3,542.5,0.5,49,160.0
5221,B3,542.5,0.5,49,160.0
5222,B-4,543.0,23/200,20,160.0
5223,E-5,543.0,0.5,31,160.0
5224,B2,543.0,0.5,31,160.0
5225,F#4,543.354,323/500,62,160.0
5226,F#4,543.354,323/500,111,160.0
5227,B-4,543.5,23/200,12,160.0
5228,B3,543.5,0.5,31,160.0
5229,E-4,543.5,0.5,31,160.0
5230,F#4,543.5,0.5,31,160.0
5231,F#2,543.5,0.5,31,160.0
5232,B2,543.5,0.5,31,160.0
5233,E2,544.0,1.5,83,160.0
5234,G#2,544.0,1.0,72,160.0
5235,F#4,544.0,13/125,62,160.0
5236,F#4,544.0,13/125,111,160.0
5237,B2,544.0,0.5,99,160.0
5238,E4,544.0,0.5,99,160.0
5239,G#3,544.0,0.5,99,160.0
5240,E3,544.0,0.5,99,160.0
5241,B-4,544.0,23/200,127,160.0
5242,B-4,544.0,23/200,127,160.0
5243,B2,544.5,0.5,31,160.0
5244,E3,544.5,0.5,31,160.0
5245,G#3,544.5,0.5,31,160.0
5246,B-4,544.5,23/200,18,160.0
5247,B-4,544.5,23/200,18,160.0
5248,E4,544.51,2.0,40,160.0
5249,E4,544.51,2.0,111,160.0
5250,G#3,545.0,0.5,33,160.0
5251,G#2,545.0,0.5,33,160.0
5252,E3,545.0,0.5,33,160.0
5253,B-4,545.0,23/200,20,160.0
5254,B-4,545.0,23/200,20,160.0
5255,E2,545.5,0.5,83,160.0
5256,E3,545.5,0.5,83,160.0
5257,G#3,545.5,0.5,83,160.0
5258,E4,545.5,0.5,83,160.0
5259,B-4,545.5,23/200,12,160.0
5260,B-4,545.5,23/200,12,160.0
5261,E3,546.0,0.5,44,160.0
5262,B2,546.0,0.5,44,160.0
5263,F#3,546.0,23/200,72,160.0
5264,B-4,546.0,23/200,72,160.0
5265,F#3,546.0,23/200,72,160.0
5266,B-4,546.0,23/200,72,160.0
5267,F#3,546.25,23/200,41,160.0
5268,F#3,546.25,23/200,41,160.0
5269,E2,546.5,0.5,49,160.0
5270,G#3,546.5,0.5,49,160.0
5271,E3,546.5,0.5,49,160.0
5272,E4,546.5,0.5,49,160.0
5273,F#3,546.5,23/200,30,160.0
5274,B-4,546.5,23/200,30,160.0
5275,F#3,546.5,23/200,30,160.0
5276,B-4,546.5,23/200,30,160.0
5277,G#4,547.0,0.5,44,160.0
5278,B2,547.0,0.5,44,160.0
5279,F#3,547.0,23/200,74,160.0
5280,B-4,547.0,23/200,74,160.0
5281,F#3,547.0,23/200,74,160.0
5282,B-4,547.0,23/200,74,160.0
5283,F#3,547.25,23/200,41,160.0
5284,F#3,547.25,23/200,41,160.0
5285,E3,547.5,0.5,31,160.0
5286,E4,547.5,0.5,31,160.0
5287,B4,547.5,0.5,31,160.0
5288,G#2,547.5,0.5,31,160.0
5289,F#3,547.5,23/200,26,160.0
5290,B-4,547.5,23/200,26,160.0
5291,F#3,547.5,23/200,26,160.0
5292,B-4,547.5,23/200,26,160.0
5293,E2,548.0,1.5,83,160.0
5294,G#2,548.0,1.0,72,160.0
5295,B-4,548.0,23/200,127,160.0
5296,B2,548.0,0.5,99,160.0
5297,E4,548.0,0.5,99,160.0
5298,G#3,548.0,0.5,99,160.0
5299,E3,548.0,0.5,99,160.0
5300,B-4,548.5,23/200,18,160.0
5301,B2,548.5,0.5,31,160.0
5302,E3,548.5,0.5,31,160.0
5303,G#3,548.5,0.5,31,160.0
5304,B-4,549.0,23/200,20,160.0
5305,A3,549.0,0.5,98,160.0
5306,E2,549.0,0.5,98,160.0
5307,A2,549.0,0.5,98,160.0
5308,E3,549.0,0.5,98,160.0
5309,C#4,549.0,0.5,98,160.0
5310,E4,549.0,0.5,98,160.0
5311,B-4,549.5,23/200,12,160.0
5312,G#2,549.5,0.5,33,160.0
5313,E3,549.5,0.5,33,160.0
5314,G#3,549.5,0.5,33,160.0
5315,B-4,550.0,23/200,127,160.0
5316,B3,550.0,0.5,98,160.0
5317,G#2,550.0,0.5,98,160.0
5318,G#3,550.0,0.5,98,160.0
5319,E2,550.0,0.5,98,160.0
5320,E3,550.0,0.5,98,160.0
5321,E4,550.0,0.5,98,160.0
5322,B-4,550.5,23/200,18,160.0
5323,G#2,550.5,0.5,44,160.0
5324,E3,550.5,0.5,44,160.0
5325,B-4,551.0,23/200,20,160.0
5326,B2,551.0,0.5,44,160.0
5327,E3,551.0,0.5,44,160.0
5328,B-4,551.5,23/200,12,160.0
5329,G#2,551.5,0.5,31,160.0
5330,G#3,551.5,0.5,31,160.0
5331,E2,551.5,0.5,31,160.0
5332,B2,551.5,0.5,31,160.0
5333,E3,551.5,0.5,31,160.0
5334,B4,552.0,1.25,71,160.0
5335,B4,552.0,1.25,90,160.0
5336,B3,552.0,1.5,84,160.0
5337,E4,552.0,1.5,84,160.0
5338,G#4,552.0,1.5,84,160.0
5339,B4,552.0,1.5,84,160.0
5340,E2,552.0,2.0,72,160.0
5341,G#2,552.0,2.0,72,160.0
5342,B4,553.5,0.5,54,160.0
5343,B4,553.5,0.5,90,160.0
5344,B3,553.5,0.5,44,160.0
5345,E4,553.5,0.5,44,160.0
5346,G#4,553.5,0.5,44,160.0
5347,B4,553.5,0.5,44,160.0
5348,B4,554.0,917/1000,84,160.0
5349,B4,554.0,917/1000,90,160.0
5350,E2,554.0,2.0,80,160.0
5351,G#2,554.0,2.0,80,160.0
5352,B3,554.0,2.0,80,160.0
5353,E4,554.0,2.0,80,160.0
5354,G#4,554.0,2.0,80,160.0
5355,B4,554.0,2.0,80,160.0
5356,G#4,555.0,417/1000,90,160.0
5357,G#4,555.031,229/500,46,160.0
5358,A4,555.5,0.5,90,160.0
5359,A4,555.562,0.438,88,160.0
5360,A4,556.0,0.375,88,160.0
5361,A4,556.0,0.312,90,160.0
5362,B3,556.0,1.5,78,160.0
5363,E-4,556.0,1.5,78,160.0
5364,F#4,556.0,1.5,78,160.0
5365,B4,556.0,1.5,78,160.0
5366,F#2,556.0,2.0,76,160.0
5367,B2,556.0,2.0,76,160.0
5368,G#4,556.5,0.5,55,160.0
5369,G#4,556.5,0.5,90,160.0
5370,B4,557.0,1.5,78,160.0
5371,B4,557.0,1.5,90,160.0
5372,B3,557.5,0.5,44,160.0
5373,E-4,557.5,0.5,44,160.0
5374,F#4,557.5,0.5,44,160.0
5375,B4,557.5,0.5,44,160.0
5376,F#2,558.0,2.0,77,160.0
5377,B2,558.0,2.0,77,160.0
5378,B3,558.0,2.0,77,160.0
5379,E-4,558.0,2.0,77,160.0
5380,F#4,558.0,2.0,77,160.0
5381,B4,558.0,2.0,77,160.0
5382,E4,559.0,479/1000,45,160.0
5383,E4,559.0,0.469,90,160.0
5384,E4,559.5,0.5,55,160.0
5385,E4,559.5,0.5,90,160.0
5386,A4,560.0,0.625,97,160.0
5387,A4,560.0,0.625,80,160.0
5388,G#4,560.708,0.5,60,160.0
5389,G#4,560.708,0.5,80,160.0
5390,F#4,561.583,0.625,60,160.0
5391,F#4,561.583,0.625,80,160.0
5392,E4,562.646,0.5,60,160.0
5393,E4,562.646,0.5,80,160.0
5394,C#4,563.5,0.5,55,160.0
5395,C#4,563.5,0.5,80,160.0
5396,C#4,564.0,0.25,55,160.0
5397,C#4,564.0,0.25,80,160.0
5398,C#4,564.5,0.5,42,160.0
5399,C#4,564.51,0.5,69,160.0
5400,E4,565.01,1.0,35,160.0
5401,E4,565.01,1.0,56,160.0
5402,B3,566.0,2.0,27,160.0
5403,B3,566.0,2.0,38,160.0
