,note_name,start_time,duration,velocity,tempo
0,E1,0.0,0.5,95,136.0
1,B3,0.0,0.5,95,136.0
2,E3,0.0,0.5,95,136.0
3,E2,0.0,0.5,95,136.0
4,C#3,0.0,4.0,95,136.0
5,B1,0.0,4.0,95,136.0
6,E3,1.0,0.5,95,136.0
7,B3,1.5,0.5,95,136.0
8,E3,2.0,0.5,95,136.0
9,C4,2.5,0.25,95,136.0
10,C#4,2.75,0.75,70,136.0
11,B3,3.5,0.5,95,136.0
12,B1,4.0,0.5,95,136.0
13,F#3,4.0,0.5,95,136.0
14,B2,4.0,0.5,95,136.0
15,C#3,4.0,4.0,95,136.0
16,B1,4.0,4.0,95,136.0
17,B2,5.0,0.5,95,136.0
18,F#3,5.5,0.5,95,136.0
19,B2,6.0,0.5,95,136.0
20,A3,6.5,0.5,95,136.0
21,G#3,7.0,0.5,95,136.0
22,F#3,7.5,0.5,95,136.0
23,A1,8.0,0.5,95,136.0
24,E3,8.0,0.5,95,136.0
25,A2,8.0,0.5,95,136.0
26,C#3,8.0,4.0,95,136.0
27,B1,8.0,4.0,95,136.0
28,E3,9.0,0.5,95,136.0
29,B3,9.5,0.5,95,136.0
30,E3,10.0,0.5,95,136.0
31,G#3,10.5,0.5,95,136.0
32,E3,11.0,0.5,95,136.0
33,A3,11.5,0.5,95,136.0
34,E3,12.0,0.5,95,136.0
35,C#4,12.5,0.5,95,136.0
36,A3,13.0,0.5,95,136.0
37,E-4,13.5,0.5,95,136.0
38,A3,14.0,0.5,95,136.0
39,E4,14.5,0.5,95,136.0
40,E-4,15.0,0.5,95,136.0
41,C#4,15.5,0.5,95,136.0
42,C#2,16.0,0.5,95,136.0
43,C#4,16.0,0.5,95,136.0
44,G#3,16.0,0.5,95,136.0
45,C#3,16.0,0.5,95,136.0
46,C#3,16.0,4.0,95,136.0
47,B1,16.0,4.0,95,136.0
48,C#4,17.0,0.5,95,136.0
49,G#3,17.0,0.5,95,136.0
50,C#3,17.0,0.5,95,136.0
51,E4,17.5,0.5,95,136.0
52,C#4,17.5,0.5,95,136.0
53,G#3,17.5,0.5,95,136.0
54,F#4,18.5,1.0,95,136.0
55,C#4,18.5,1.0,95,136.0
56,G#3,18.5,1.0,95,136.0
57,E4,19.5,0.5,95,136.0
58,C#4,19.5,0.5,95,136.0
59,G#3,19.5,0.5,95,136.0
60,B1,20.0,0.5,95,136.0
61,B3,20.0,0.5,95,136.0
62,F#3,20.0,0.5,95,136.0
63,B2,20.0,0.5,95,136.0
64,C#3,20.0,4.0,95,136.0
65,B1,20.0,4.0,95,136.0
66,B3,21.0,0.5,95,136.0
67,F#3,21.0,0.5,95,136.0
68,B2,21.0,0.5,95,136.0
69,E-4,21.5,0.5,95,136.0
70,B3,21.5,0.5,95,136.0
71,F#3,21.5,0.5,95,136.0
72,E4,22.5,1.0,95,136.0
73,B3,22.5,1.0,95,136.0
74,F#3,22.5,1.0,95,136.0
75,E-4,23.5,0.5,95,136.0
76,B3,23.5,0.5,95,136.0
77,F#3,23.5,0.5,95,136.0
78,A1,24.0,0.5,95,136.0
79,E3,24.0,1.0,95,136.0
80,A2,24.0,1.0,95,136.0
81,C#3,24.0,4.0,95,136.0
82,B1,24.0,4.0,95,136.0
83,E3,25.0,0.5,95,136.0
84,E-4,25.5,0.5,95,136.0
85,A3,26.0,0.5,95,136.0
86,E4,26.5,0.5,95,136.0
87,E-4,27.0,0.5,95,136.0
88,A3,27.5,0.5,95,136.0
89,E3,28.0,1.0,95,136.0
90,E3,29.0,0.5,95,136.0
91,E-4,29.5,0.5,95,136.0
92,A3,30.0,0.5,95,136.0
93,D2,30.0,1.0,95,136.0
94,E4,30.5,0.5,95,136.0
95,G#1,31.0,0.5,95,136.0
96,G#3,31.0,0.5,95,136.0
97,E-3,31.0,0.5,95,136.0
98,G#2,31.0,0.5,95,136.0
99,C#3,31.0,0.5,95,136.0
100,B1,31.0,0.5,95,136.0
101,F#1,31.5,0.5,95,136.0
102,F#3,31.5,0.5,95,136.0
103,C#3,31.5,0.5,95,136.0
104,F#2,31.5,0.5,95,136.0
105,A3,31.5,0.5,95,136.0
106,B1,31.5,0.5,95,136.0
107,E1,32.0,0.5,95,136.0
108,B3,32.0,0.5,95,136.0
109,E3,32.0,0.5,95,136.0
110,E2,32.0,0.5,95,136.0
111,C#3,32.0,4.0,95,136.0
112,B1,32.0,4.0,95,136.0
113,E3,33.0,0.5,95,136.0
114,B3,33.5,0.5,95,136.0
115,E3,34.0,0.5,95,136.0
116,C4,34.5,0.25,95,136.0
117,C#4,34.75,0.75,70,136.0
118,B3,35.5,0.5,95,136.0
119,B1,36.0,0.5,95,136.0
120,F#3,36.0,0.5,95,136.0
121,B2,36.0,0.5,95,136.0
122,C#3,36.0,4.0,95,136.0
123,B1,36.0,4.0,95,136.0
124,B2,37.0,0.5,95,136.0
125,F#3,37.5,0.5,95,136.0
126,B2,38.0,0.5,95,136.0
127,A3,38.5,0.5,95,136.0
128,G#3,39.0,0.5,95,136.0
129,F#3,39.5,0.5,95,136.0
130,A1,40.0,0.5,95,136.0
131,E3,40.0,0.5,95,136.0
132,A2,40.0,0.5,95,136.0
133,C#3,40.0,4.0,95,136.0
134,B1,40.0,4.0,95,136.0
135,E3,41.0,0.5,95,136.0
136,B3,41.5,0.5,95,136.0
137,E3,42.0,0.5,95,136.0
138,G#3,42.5,0.5,95,136.0
139,E3,43.0,0.5,95,136.0
140,A3,43.5,0.5,95,136.0
141,E3,44.0,0.5,95,136.0
142,C#4,44.5,0.5,95,136.0
143,A3,45.0,0.5,95,136.0
144,E-4,45.5,0.5,95,136.0
145,A3,46.0,0.5,95,136.0
146,E4,46.5,0.5,95,136.0
147,E-4,47.0,0.5,95,136.0
148,C#4,47.5,0.5,95,136.0
149,C#2,48.0,0.5,95,136.0
150,C#4,48.0,0.5,95,136.0
151,G#3,48.0,0.5,95,136.0
152,C#3,48.0,0.5,95,136.0
153,C#3,48.0,4.0,95,136.0
154,B1,48.0,4.0,95,136.0
155,C#4,49.0,0.5,95,136.0
156,G#3,49.0,0.5,95,136.0
157,C#3,49.0,0.5,95,136.0
158,E4,49.5,0.5,95,136.0
159,C#4,49.5,0.5,95,136.0
160,G#3,49.5,0.5,95,136.0
161,F#4,50.5,1.0,95,136.0
162,C#4,50.5,1.0,95,136.0
163,G#3,50.5,1.0,95,136.0
164,E4,51.5,0.5,95,136.0
165,C#4,51.5,0.5,95,136.0
166,G#3,51.5,0.5,95,136.0
167,B1,52.0,0.5,95,136.0
168,B3,52.0,0.5,95,136.0
169,F#3,52.0,0.5,95,136.0
170,B2,52.0,0.5,95,136.0
171,C#3,52.0,4.0,95,136.0
172,B1,52.0,4.0,95,136.0
173,B3,53.0,0.5,95,136.0
174,F#3,53.0,0.5,95,136.0
175,B2,53.0,0.5,95,136.0
176,E-4,53.5,0.5,95,136.0
177,B3,53.5,0.5,95,136.0
178,F#3,53.5,0.5,95,136.0
179,E4,54.5,1.0,95,136.0
180,B3,54.5,1.0,95,136.0
181,F#3,54.5,1.0,95,136.0
182,E-4,55.5,0.5,95,136.0
183,B3,55.5,0.5,95,136.0
184,F#3,55.5,0.5,95,136.0
185,A1,56.0,0.5,95,136.0
186,E3,56.0,1.0,95,136.0
187,A2,56.0,1.0,95,136.0
188,C#3,56.0,4.0,95,136.0
189,B1,56.0,4.0,95,136.0
190,E3,57.0,0.5,95,136.0
191,E-4,57.5,0.5,95,136.0
192,A3,58.0,0.5,95,136.0
193,E4,58.5,0.5,95,136.0
194,E-4,59.0,0.5,95,136.0
195,A3,59.5,0.5,95,136.0
196,E3,60.0,1.0,95,136.0
197,E3,61.0,0.5,95,136.0
198,E-4,61.5,0.5,95,136.0
199,A3,62.0,0.5,95,136.0
200,E4,62.5,0.5,95,136.0
201,G#1,63.0,0.5,95,136.0
202,G#3,63.0,0.5,95,136.0
203,E-3,63.0,0.5,95,136.0
204,G#2,63.0,0.5,95,136.0
205,C#3,63.0,0.5,95,136.0
206,B1,63.0,0.5,95,136.0
207,F#1,63.5,0.5,95,136.0
208,F#3,63.5,0.5,95,136.0
209,C#3,63.5,0.5,95,136.0
210,F#2,63.5,0.5,95,136.0
211,A3,63.5,0.5,95,136.0
212,B1,63.5,0.5,95,136.0
213,E2,64.0,4.0,95,136.0
214,B3,64.0,0.5,95,136.0
215,E3,64.0,0.5,95,136.0
216,E2,64.0,0.5,95,136.0
217,C#3,64.0,0.5,95,136.0
218,B1,64.0,0.5,95,136.0
219,F#2,64.5,0.5,95,136.0
220,E3,65.0,0.5,95,136.0
221,F#2,65.0,0.5,84,136.0
222,G1,65.0,0.5,84,136.0
223,D2,65.0,0.5,84,136.0
224,B3,65.5,0.5,95,136.0
225,F#2,65.5,0.5,95,136.0
226,E3,66.0,0.5,95,136.0
227,F#2,66.0,0.5,95,136.0
228,B1,66.0,0.5,95,136.0
229,C4,66.5,0.25,95,136.0
230,F#2,66.5,0.5,95,136.0
231,B1,66.5,0.5,95,136.0
232,C#4,66.75,0.75,70,136.0
233,F#2,67.0,0.5,84,136.0
234,G1,67.0,0.5,84,136.0
235,D2,67.0,0.5,84,136.0
236,B3,67.5,0.5,95,136.0
237,F#2,67.5,0.5,95,136.0
238,B1,68.0,4.0,95,136.0
239,F#3,68.0,0.5,95,136.0
240,B2,68.0,0.5,95,136.0
241,F#2,68.0,0.5,95,136.0
242,B1,68.0,0.5,95,136.0
243,F#2,68.5,0.5,95,136.0
244,B2,69.0,0.5,95,136.0
245,F#2,69.0,0.5,84,136.0
246,G1,69.0,0.5,84,136.0
247,D2,69.0,0.5,84,136.0
248,F#3,69.5,0.5,95,136.0
249,F#2,69.5,0.5,95,136.0
250,B2,70.0,0.5,95,136.0
251,F#2,70.0,0.5,95,136.0
252,B1,70.0,0.5,95,136.0
253,A3,70.5,0.5,95,136.0
254,F#2,70.5,0.5,95,136.0
255,B1,70.5,0.5,95,136.0
256,G#3,71.0,0.5,95,136.0
257,F#2,71.0,0.5,84,136.0
258,G1,71.0,0.5,84,136.0
259,D2,71.0,0.5,84,136.0
260,F#3,71.5,0.5,95,136.0
261,F#2,71.5,0.5,95,136.0
262,A1,72.0,4.0,95,136.0
263,E3,72.0,0.5,95,136.0
264,A2,72.0,0.5,95,136.0
265,F#2,72.0,0.5,95,136.0
266,B1,72.0,0.5,95,136.0
267,F#2,72.5,0.5,95,136.0
268,E3,73.0,0.5,95,136.0
269,F#2,73.0,0.5,84,136.0
270,G1,73.0,0.5,84,136.0
271,D2,73.0,0.5,84,136.0
272,B3,73.5,0.5,95,136.0
273,F#2,73.5,0.5,95,136.0
274,E3,74.0,0.5,95,136.0
275,F#2,74.0,0.5,95,136.0
276,B1,74.0,0.5,95,136.0
277,G#3,74.5,0.5,95,136.0
278,F#2,74.5,0.5,95,136.0
279,B1,74.5,0.5,95,136.0
280,E3,75.0,0.5,95,136.0
281,F#2,75.0,0.5,84,136.0
282,G1,75.0,0.5,84,136.0
283,D2,75.0,0.5,84,136.0
284,A3,75.5,0.5,95,136.0
285,F#2,75.5,0.5,95,136.0
286,E3,76.0,0.5,95,136.0
287,A1,76.0,4.0,95,136.0
288,F#2,76.0,0.5,95,136.0
289,B1,76.0,0.5,95,136.0
290,C#4,76.5,0.5,95,136.0
291,F#2,76.5,0.5,95,136.0
292,A3,77.0,0.5,95,136.0
293,F#2,77.0,0.5,84,136.0
294,G1,77.0,0.5,84,136.0
295,D2,77.0,0.5,84,136.0
296,E-4,77.5,0.5,95,136.0
297,F#2,77.5,0.5,95,136.0
298,A3,78.0,0.5,95,136.0
299,F#2,78.0,0.5,95,136.0
300,B1,78.0,0.5,95,136.0
301,E4,78.5,0.5,95,136.0
302,F#2,78.5,0.5,95,136.0
303,B1,78.5,0.5,95,136.0
304,E-4,79.0,0.5,95,136.0
305,F#2,79.0,0.5,84,136.0
306,G1,79.0,0.5,84,136.0
307,D2,79.0,0.5,84,136.0
308,C#4,79.5,0.5,95,136.0
309,F#2,79.5,0.5,95,136.0
310,C#2,80.0,4.0,95,136.0
311,C#4,80.0,0.5,95,136.0
312,G#3,80.0,0.5,95,136.0
313,C#3,80.0,0.5,95,136.0
314,C#3,80.0,0.5,95,136.0
315,B1,80.0,0.5,95,136.0
316,F#2,80.5,0.5,95,136.0
317,C#4,81.0,0.5,95,136.0
318,G#3,81.0,0.5,95,136.0
319,C#3,81.0,0.5,95,136.0
320,F#2,81.0,0.5,84,136.0
321,G1,81.0,0.5,84,136.0
322,D2,81.0,0.5,84,136.0
323,F#2,81.5,0.5,95,136.0
324,E4,81.5,0.5,95,136.0
325,C#4,81.5,0.5,95,136.0
326,G#3,81.5,0.5,95,136.0
327,F#2,82.0,0.5,95,136.0
328,B1,82.0,0.5,95,136.0
329,F#4,82.5,1.0,95,136.0
330,C#4,82.5,1.0,95,136.0
331,G#3,82.5,1.0,95,136.0
332,F#2,82.5,0.5,95,136.0
333,B1,82.5,0.5,95,136.0
334,F#2,83.0,0.5,84,136.0
335,G1,83.0,0.5,84,136.0
336,D2,83.0,0.5,84,136.0
337,F#2,83.5,0.5,95,136.0
338,E4,83.5,0.5,95,136.0
339,C#4,83.5,0.5,95,136.0
340,G#3,83.5,0.5,95,136.0
341,B1,84.0,4.0,95,136.0
342,B3,84.0,0.5,95,136.0
343,F#3,84.0,0.5,95,136.0
344,B2,84.0,0.5,95,136.0
345,C#3,84.0,0.5,95,136.0
346,B1,84.0,0.5,95,136.0
347,F#2,84.5,0.5,95,136.0
348,B3,85.0,0.5,95,136.0
349,F#3,85.0,0.5,95,136.0
350,B2,85.0,0.5,95,136.0
351,F#2,85.0,0.5,84,136.0
352,G1,85.0,0.5,84,136.0
353,D2,85.0,0.5,84,136.0
354,F#2,85.5,0.5,95,136.0
355,E-4,85.5,0.5,95,136.0
356,B3,85.5,0.5,95,136.0
357,F#3,85.5,0.5,95,136.0
358,F#2,86.0,0.5,95,136.0
359,B1,86.0,0.5,95,136.0
360,E4,86.5,1.0,95,136.0
361,B3,86.5,1.0,95,136.0
362,F#3,86.5,1.0,95,136.0
363,F#2,86.5,0.5,95,136.0
364,B1,86.5,0.5,95,136.0
365,F#2,87.0,0.5,84,136.0
366,G1,87.0,0.5,84,136.0
367,D2,87.0,0.5,84,136.0
368,F#2,87.5,0.5,95,136.0
369,E-4,87.5,0.5,95,136.0
370,B3,87.5,0.5,95,136.0
371,F#3,87.5,0.5,95,136.0
372,A1,88.0,4.0,95,136.0
373,E3,88.0,1.0,95,136.0
374,A2,88.0,1.0,95,136.0
375,C#3,88.0,0.5,95,136.0
376,B1,88.0,0.5,95,136.0
377,F#2,88.5,0.5,95,136.0
378,E3,89.0,0.5,95,136.0
379,F#2,89.0,0.5,84,136.0
380,G1,89.0,0.5,84,136.0
381,D2,89.0,0.5,84,136.0
382,E-4,89.5,0.5,95,136.0
383,F#2,89.5,0.5,95,136.0
384,A3,90.0,0.5,95,136.0
385,F#2,90.0,0.5,95,136.0
386,B1,90.0,0.5,95,136.0
387,E4,90.5,0.5,95,136.0
388,F#2,90.5,0.5,95,136.0
389,B1,90.5,0.5,95,136.0
390,E-4,91.0,0.5,95,136.0
391,F#2,91.0,0.5,84,136.0
392,G1,91.0,0.5,84,136.0
393,D2,91.0,0.5,84,136.0
394,A3,91.5,0.5,95,136.0
395,F#2,91.5,0.5,95,136.0
396,E3,92.0,1.0,95,136.0
397,A1,92.0,3.0,95,136.0
398,F#2,92.0,0.5,95,136.0
399,B1,92.0,0.5,95,136.0
400,F#2,92.5,0.5,95,136.0
401,E3,93.0,0.5,95,136.0
402,F#2,93.0,0.5,84,136.0
403,G1,93.0,0.5,84,136.0
404,D2,93.0,0.5,84,136.0
405,E-4,93.5,0.5,95,136.0
406,F#2,93.5,0.5,95,136.0
407,A3,94.0,0.5,95,136.0
408,F#2,94.0,0.5,95,136.0
409,B1,94.0,0.5,95,136.0
410,E4,94.5,0.5,95,136.0
411,F#2,94.5,0.5,95,136.0
412,B1,94.5,0.5,95,136.0
413,G#1,95.0,0.5,95,136.0
414,G#3,95.0,0.5,95,136.0
415,E-3,95.0,0.5,95,136.0
416,G#2,95.0,0.5,95,136.0
417,C#3,95.0,0.5,95,136.0
418,B1,95.0,0.5,95,136.0
419,F#1,95.5,0.5,95,136.0
420,F#3,95.5,0.5,95,136.0
421,C#3,95.5,0.5,95,136.0
422,F#2,95.5,0.5,95,136.0
423,A3,95.5,0.5,95,136.0
424,B1,95.5,0.5,95,136.0
425,E2,96.0,4.0,95,136.0
426,B3,96.0,0.5,95,136.0
427,E3,96.0,0.5,95,136.0
428,E2,96.0,0.5,95,136.0
429,C#3,96.0,0.5,95,136.0
430,B1,96.0,0.5,95,136.0
431,F#2,96.5,0.5,95,136.0
432,E3,97.0,0.5,95,136.0
433,F#2,97.0,0.5,84,136.0
434,G1,97.0,0.5,84,136.0
435,D2,97.0,0.5,84,136.0
436,B3,97.5,0.5,95,136.0
437,F#2,97.5,0.5,95,136.0
438,E3,98.0,0.5,95,136.0
439,F#2,98.0,0.5,95,136.0
440,B1,98.0,0.5,95,136.0
441,C4,98.5,0.25,95,136.0
442,F#2,98.5,0.5,95,136.0
443,B1,98.5,0.5,95,136.0
444,C#4,98.75,0.75,70,136.0
445,F#2,99.0,0.5,84,136.0
446,G1,99.0,0.5,84,136.0
447,D2,99.0,0.5,84,136.0
448,B3,99.5,0.5,95,136.0
449,F#2,99.5,0.5,95,136.0
450,B1,100.0,4.0,95,136.0
451,F#3,100.0,0.5,95,136.0
452,B2,100.0,0.5,95,136.0
453,F#2,100.0,0.5,95,136.0
454,B1,100.0,0.5,95,136.0
455,F#2,100.5,0.5,95,136.0
456,B2,101.0,0.5,95,136.0
457,F#2,101.0,0.5,84,136.0
458,G1,101.0,0.5,84,136.0
459,D2,101.0,0.5,84,136.0
460,F#3,101.5,0.5,95,136.0
461,F#2,101.5,0.5,95,136.0
462,B2,102.0,0.5,95,136.0
463,F#2,102.0,0.5,95,136.0
464,B1,102.0,0.5,95,136.0
465,A3,102.5,0.5,95,136.0
466,F#2,102.5,0.5,95,136.0
467,B1,102.5,0.5,95,136.0
468,G#3,103.0,0.5,95,136.0
469,F#2,103.0,0.5,84,136.0
470,G1,103.0,0.5,84,136.0
471,D2,103.0,0.5,84,136.0
472,F#3,103.5,0.5,95,136.0
473,F#2,103.5,0.5,95,136.0
474,A1,104.0,4.0,95,136.0
475,E3,104.0,0.5,95,136.0
476,A2,104.0,0.5,95,136.0
477,F#2,104.0,0.5,95,136.0
478,B1,104.0,0.5,95,136.0
479,F#2,104.5,0.5,95,136.0
480,E3,105.0,0.5,95,136.0
481,F#2,105.0,0.5,84,136.0
482,G1,105.0,0.5,84,136.0
483,D2,105.0,0.5,84,136.0
484,B3,105.5,0.5,95,136.0
485,F#2,105.5,0.5,95,136.0
486,E3,106.0,0.5,95,136.0
487,F#2,106.0,0.5,95,136.0
488,B1,106.0,0.5,95,136.0
489,G#3,106.5,0.5,95,136.0
490,F#2,106.5,0.5,95,136.0
491,B1,106.5,0.5,95,136.0
492,E3,107.0,0.5,95,136.0
493,F#2,107.0,0.5,84,136.0
494,G1,107.0,0.5,84,136.0
495,D2,107.0,0.5,84,136.0
496,A3,107.5,0.5,95,136.0
497,F#2,107.5,0.5,95,136.0
498,E3,108.0,0.5,95,136.0
499,A1,108.0,4.0,95,136.0
500,F#2,108.0,0.5,95,136.0
501,B1,108.0,0.5,95,136.0
502,C#4,108.5,0.5,95,136.0
503,F#2,108.5,0.5,95,136.0
504,A3,109.0,0.5,95,136.0
505,F#2,109.0,0.5,84,136.0
506,G1,109.0,0.5,84,136.0
507,D2,109.0,0.5,84,136.0
508,E-4,109.5,0.5,95,136.0
509,F#2,109.5,0.5,95,136.0
510,A3,110.0,0.5,95,136.0
511,F#2,110.0,0.5,95,136.0
512,B1,110.0,0.5,95,136.0
513,E4,110.5,0.5,95,136.0
514,F#2,110.5,0.5,95,136.0
515,B1,110.5,0.5,95,136.0
516,E-4,111.0,0.5,95,136.0
517,F#2,111.0,0.5,84,136.0
518,G1,111.0,0.5,84,136.0
519,D2,111.0,0.5,84,136.0
520,C#4,111.5,0.5,95,136.0
521,F#2,111.5,0.5,95,136.0
522,C#2,112.0,4.0,95,136.0
523,C#4,112.0,0.5,95,136.0
524,G#3,112.0,0.5,95,136.0
525,C#3,112.0,0.5,95,136.0
526,C#3,112.0,0.5,95,136.0
527,B1,112.0,0.5,95,136.0
528,F#2,112.5,0.5,95,136.0
529,C#4,113.0,0.5,95,136.0
530,G#3,113.0,0.5,95,136.0
531,C#3,113.0,0.5,95,136.0
532,F#2,113.0,0.5,84,136.0
533,G1,113.0,0.5,84,136.0
534,D2,113.0,0.5,84,136.0
535,F#2,113.5,0.5,95,136.0
536,E4,113.5,0.5,95,136.0
537,C#4,113.5,0.5,95,136.0
538,G#3,113.5,0.5,95,136.0
539,F#2,114.0,0.5,95,136.0
540,B1,114.0,0.5,95,136.0
541,F#4,114.5,1.0,95,136.0
542,C#4,114.5,1.0,95,136.0
543,G#3,114.5,1.0,95,136.0
544,F#2,114.5,0.5,95,136.0
545,B1,114.5,0.5,95,136.0
546,F#2,115.0,0.5,84,136.0
547,G1,115.0,0.5,84,136.0
548,D2,115.0,0.5,84,136.0
549,F#2,115.5,0.5,95,136.0
550,E4,115.5,0.5,95,136.0
551,C#4,115.5,0.5,95,136.0
552,G#3,115.5,0.5,95,136.0
553,B1,116.0,4.0,95,136.0
554,B3,116.0,0.5,95,136.0
555,F#3,116.0,0.5,95,136.0
556,B2,116.0,0.5,95,136.0
557,C#3,116.0,0.5,95,136.0
558,B1,116.0,0.5,95,136.0
559,F#2,116.5,0.5,95,136.0
560,B3,117.0,0.5,95,136.0
561,F#3,117.0,0.5,95,136.0
562,B2,117.0,0.5,95,136.0
563,F#2,117.0,0.5,84,136.0
564,G1,117.0,0.5,84,136.0
565,D2,117.0,0.5,84,136.0
566,F#2,117.5,0.5,95,136.0
567,E-4,117.5,0.5,95,136.0
568,B3,117.5,0.5,95,136.0
569,F#3,117.5,0.5,95,136.0
570,F#2,118.0,0.5,95,136.0
571,B1,118.0,0.5,95,136.0
572,E4,118.5,1.0,95,136.0
573,B3,118.5,1.0,95,136.0
574,F#3,118.5,1.0,95,136.0
575,F#2,118.5,0.5,95,136.0
576,B1,118.5,0.5,95,136.0
577,F#2,119.0,0.5,84,136.0
578,G1,119.0,0.5,84,136.0
579,D2,119.0,0.5,84,136.0
580,F#2,119.5,0.5,95,136.0
581,E-4,119.5,0.5,95,136.0
582,B3,119.5,0.5,95,136.0
583,F#3,119.5,0.5,95,136.0
584,A1,120.0,4.0,95,136.0
585,E3,120.0,1.0,95,136.0
586,A2,120.0,1.0,95,136.0
587,C#3,120.0,0.5,95,136.0
588,B1,120.0,0.5,95,136.0
589,F#2,120.5,0.5,95,136.0
590,E3,121.0,0.5,95,136.0
591,F#2,121.0,0.5,84,136.0
592,G1,121.0,0.5,84,136.0
593,D2,121.0,0.5,84,136.0
594,E-4,121.5,0.5,95,136.0
595,F#2,121.5,0.5,95,136.0
596,A3,122.0,0.5,95,136.0
597,F#2,122.0,0.5,95,136.0
598,B1,122.0,0.5,95,136.0
599,E4,122.5,0.5,95,136.0
600,F#2,122.5,0.5,95,136.0
601,B1,122.5,0.5,95,136.0
602,E-4,123.0,0.5,95,136.0
603,F#2,123.0,0.5,84,136.0
604,G1,123.0,0.5,84,136.0
605,D2,123.0,0.5,84,136.0
606,A3,123.5,0.5,95,136.0
607,F#2,123.5,0.5,95,136.0
608,E3,124.0,1.0,95,136.0
609,A1,124.0,3.0,95,136.0
610,F#2,124.0,0.5,95,136.0
611,B1,124.0,0.5,95,136.0
612,F#2,124.5,0.5,95,136.0
613,E3,125.0,0.5,95,136.0
614,F#2,125.0,0.5,84,136.0
615,G1,125.0,0.5,84,136.0
616,D2,125.0,0.5,84,136.0
617,E-4,125.5,0.5,95,136.0
618,F#2,125.5,0.5,95,136.0
619,A3,126.0,0.5,95,136.0
620,F#2,126.0,0.5,95,136.0
621,B1,126.0,0.5,95,136.0
622,E4,126.5,0.5,95,136.0
623,F#2,126.5,0.5,95,136.0
624,B1,126.5,0.5,95,136.0
625,G#1,127.0,0.5,95,136.0
626,G#3,127.0,0.5,95,136.0
627,E-3,127.0,0.5,95,136.0
628,G#2,127.0,0.5,95,136.0
629,C#3,127.0,0.5,95,136.0
630,B1,127.0,0.5,95,136.0
631,F#1,127.5,0.5,95,136.0
632,F#3,127.5,0.5,95,136.0
633,C#3,127.5,0.5,95,136.0
634,F#2,127.5,0.5,95,136.0
635,A3,127.5,0.5,95,136.0
636,B1,127.5,0.5,95,136.0
637,E2,128.0,4.0,95,136.0
638,B3,128.0,0.5,95,136.0
639,E3,128.0,0.5,95,136.0
640,E2,128.0,0.5,95,136.0
641,C#3,128.0,0.5,95,136.0
642,B1,128.0,0.5,95,136.0
643,F#2,128.5,0.5,95,136.0
644,E3,129.0,0.5,95,136.0
645,F#2,129.0,0.5,84,136.0
646,G1,129.0,0.5,84,136.0
647,D2,129.0,0.5,84,136.0
648,B3,129.5,0.5,95,136.0
649,F#2,129.5,0.5,95,136.0
650,E3,130.0,0.5,95,136.0
651,F#2,130.0,0.5,95,136.0
652,B1,130.0,0.5,95,136.0
653,C4,130.5,0.25,95,136.0
654,F#2,130.5,0.5,95,136.0
655,B1,130.5,0.5,95,136.0
656,C#4,130.75,0.75,70,136.0
657,F#2,131.0,0.5,84,136.0
658,G1,131.0,0.5,84,136.0
659,D2,131.0,0.5,84,136.0
660,B3,131.5,0.5,95,136.0
661,F#2,131.5,0.5,95,136.0
662,B1,132.0,4.0,95,136.0
663,F#3,132.0,0.5,95,136.0
664,B2,132.0,0.5,95,136.0
665,F#2,132.0,0.5,95,136.0
666,B1,132.0,0.5,95,136.0
667,F#2,132.5,0.5,95,136.0
668,B2,133.0,0.5,95,136.0
669,F#2,133.0,0.5,84,136.0
670,G1,133.0,0.5,84,136.0
671,D2,133.0,0.5,84,136.0
672,F#3,133.5,0.5,95,136.0
673,F#2,133.5,0.5,95,136.0
674,B2,134.0,0.5,95,136.0
675,F#2,134.0,0.5,95,136.0
676,B1,134.0,0.5,95,136.0
677,A3,134.5,0.5,95,136.0
678,F#2,134.5,0.5,95,136.0
679,B1,134.5,0.5,95,136.0
680,G#3,135.0,0.5,95,136.0
681,F#2,135.0,0.5,84,136.0
682,G1,135.0,0.5,84,136.0
683,D2,135.0,0.5,84,136.0
684,F#3,135.5,0.5,95,136.0
685,F#2,135.5,0.5,95,136.0
686,A1,136.0,4.0,95,136.0
687,E3,136.0,0.5,95,136.0
688,A2,136.0,0.5,95,136.0
689,F#2,136.0,0.5,95,136.0
690,B1,136.0,0.5,95,136.0
691,F#2,136.5,0.5,95,136.0
692,E3,137.0,0.5,95,136.0
693,F#2,137.0,0.5,84,136.0
694,G1,137.0,0.5,84,136.0
695,D2,137.0,0.5,84,136.0
696,B3,137.5,0.5,95,136.0
697,F#2,137.5,0.5,95,136.0
698,E3,138.0,0.5,95,136.0
699,F#2,138.0,0.5,95,136.0
700,B1,138.0,0.5,95,136.0
701,G#3,138.5,0.5,95,136.0
702,F#2,138.5,0.5,95,136.0
703,B1,138.5,0.5,95,136.0
704,E3,139.0,0.5,95,136.0
705,F#2,139.0,0.5,84,136.0
706,G1,139.0,0.5,84,136.0
707,D2,139.0,0.5,84,136.0
708,A3,139.5,0.5,95,136.0
709,F#2,139.5,0.5,95,136.0
710,E3,140.0,0.5,95,136.0
711,A1,140.0,4.0,95,136.0
712,F#2,140.0,0.5,95,136.0
713,B1,140.0,0.5,95,136.0
714,C#4,140.5,0.5,95,136.0
715,F#2,140.5,0.5,95,136.0
716,A3,141.0,0.5,95,136.0
717,F#2,141.0,0.5,84,136.0
718,G1,141.0,0.5,84,136.0
719,D2,141.0,0.5,84,136.0
720,E-4,141.5,0.5,95,136.0
721,F#2,141.5,0.5,95,136.0
722,A3,142.0,0.5,95,136.0
723,F#2,142.0,0.5,95,136.0
724,B1,142.0,0.5,95,136.0
725,E4,142.5,0.5,95,136.0
726,F#2,142.5,0.5,95,136.0
727,B1,142.5,0.5,95,136.0
728,E-4,143.0,0.5,95,136.0
729,F#2,143.0,0.5,84,136.0
730,G1,143.0,0.5,84,136.0
731,D2,143.0,0.5,84,136.0
732,C#4,143.5,0.5,95,136.0
733,F#2,143.5,0.5,95,136.0
734,C#2,144.0,4.0,95,136.0
735,C#4,144.0,0.5,95,136.0
736,G#3,144.0,0.5,95,136.0
737,C#3,144.0,0.5,95,136.0
738,C#3,144.0,0.5,95,136.0
739,B1,144.0,0.5,95,136.0
740,F#2,144.5,0.5,95,136.0
741,C#4,145.0,0.5,95,136.0
742,G#3,145.0,0.5,95,136.0
743,C#3,145.0,0.5,95,136.0
744,F#2,145.0,0.5,84,136.0
745,G1,145.0,0.5,84,136.0
746,D2,145.0,0.5,84,136.0
747,F#2,145.5,0.5,95,136.0
748,E4,145.5,0.5,95,136.0
749,C#4,145.5,0.5,95,136.0
750,G#3,145.5,0.5,95,136.0
751,F#2,146.0,0.5,95,136.0
752,B1,146.0,0.5,95,136.0
753,F#4,146.5,1.0,95,136.0
754,C#4,146.5,1.0,95,136.0
755,G#3,146.5,1.0,95,136.0
756,F#2,146.5,0.5,95,136.0
757,B1,146.5,0.5,95,136.0
758,F#2,147.0,0.5,84,136.0
759,G1,147.0,0.5,84,136.0
760,D2,147.0,0.5,84,136.0
761,F#2,147.5,0.5,95,136.0
762,E4,147.5,0.5,95,136.0
763,C#4,147.5,0.5,95,136.0
764,G#3,147.5,0.5,95,136.0
765,B1,148.0,4.0,95,136.0
766,B3,148.0,0.5,95,136.0
767,F#3,148.0,0.5,95,136.0
768,B2,148.0,0.5,95,136.0
769,C#3,148.0,0.5,95,136.0
770,B1,148.0,0.5,95,136.0
771,F#2,148.5,0.5,95,136.0
772,B3,149.0,0.5,95,136.0
773,F#3,149.0,0.5,95,136.0
774,B2,149.0,0.5,95,136.0
775,F#2,149.0,0.5,84,136.0
776,G1,149.0,0.5,84,136.0
777,D2,149.0,0.5,84,136.0
778,F#2,149.5,0.5,95,136.0
779,E-4,149.5,0.5,95,136.0
780,B3,149.5,0.5,95,136.0
781,F#3,149.5,0.5,95,136.0
782,F#2,150.0,0.5,95,136.0
783,B1,150.0,0.5,95,136.0
784,E4,150.5,1.0,95,136.0
785,B3,150.5,1.0,95,136.0
786,F#3,150.5,1.0,95,136.0
787,F#2,150.5,0.5,95,136.0
788,B1,150.5,0.5,95,136.0
789,F#2,151.0,0.5,84,136.0
790,G1,151.0,0.5,84,136.0
791,D2,151.0,0.5,84,136.0
792,F#2,151.5,0.5,95,136.0
793,E-4,151.5,0.5,95,136.0
794,B3,151.5,0.5,95,136.0
795,F#3,151.5,0.5,95,136.0
796,A1,152.0,4.0,95,136.0
797,E3,152.0,1.0,95,136.0
798,A2,152.0,1.0,95,136.0
799,C#3,152.0,0.5,95,136.0
800,B1,152.0,0.5,95,136.0
801,F#2,152.5,0.5,95,136.0
802,E3,153.0,0.5,95,136.0
803,F#2,153.0,0.5,84,136.0
804,G1,153.0,0.5,84,136.0
805,D2,153.0,0.5,84,136.0
806,E-4,153.5,0.5,95,136.0
807,F#2,153.5,0.5,95,136.0
808,A3,154.0,0.5,95,136.0
809,F#2,154.0,0.5,95,136.0
810,B1,154.0,0.5,95,136.0
811,E4,154.5,0.5,95,136.0
812,F#2,154.5,0.5,95,136.0
813,B1,154.5,0.5,95,136.0
814,E-4,155.0,0.5,95,136.0
815,F#2,155.0,0.5,84,136.0
816,G1,155.0,0.5,84,136.0
817,D2,155.0,0.5,84,136.0
818,A3,155.5,0.5,95,136.0
819,F#2,155.5,0.5,95,136.0
820,E3,156.0,1.0,95,136.0
821,A1,156.0,3.0,95,136.0
822,G#2,156.0,0.25,95,136.0
823,D2,156.0,0.25,95,136.0
824,D2,156.25,0.25,95,136.0
825,G#2,156.5,0.5,95,136.0
826,D2,156.5,0.5,95,136.0
827,E3,157.0,0.5,95,136.0
828,G#2,157.0,0.25,95,136.0
829,D2,157.0,0.25,95,136.0
830,D2,157.25,0.25,95,136.0
831,E-4,157.5,0.5,95,136.0
832,G#2,157.5,0.5,95,136.0
833,D2,157.5,0.5,95,136.0
834,A3,158.0,0.5,95,136.0
835,G#2,158.0,0.25,95,136.0
836,G2,158.0,0.25,95,136.0
837,G2,158.25,0.25,95,136.0
838,E4,158.5,0.5,95,136.0
839,G#2,158.5,0.25,95,136.0
840,G2,158.5,0.25,95,136.0
841,G2,158.75,0.25,95,136.0
842,G#1,159.0,0.5,95,136.0
843,G#3,159.0,0.5,95,136.0
844,E-3,159.0,0.5,95,136.0
845,G#2,159.0,0.5,95,136.0
846,G#2,159.0,0.25,95,136.0
847,F2,159.0,0.25,95,136.0
848,F2,159.25,0.25,95,136.0
849,F#1,159.5,0.5,95,136.0
850,F#3,159.5,0.5,95,136.0
851,C#3,159.5,0.5,95,136.0
852,F#2,159.5,0.5,95,136.0
853,G#2,159.5,0.25,95,136.0
854,F2,159.5,0.25,95,136.0
855,F2,159.75,0.25,95,136.0
856,G#3,160.0,3.0,95,136.0
857,C#3,160.0,3.0,95,136.0
858,C#3,160.0,1.0,95,136.0
859,B1,160.0,1.0,95,136.0
860,E-3,161.0,1.0,95,136.0
861,D2,161.0,1.0,95,136.0
862,E-3,162.0,1.0,95,136.0
863,B1,162.0,1.0,95,136.0
864,E-3,163.0,1.0,95,136.0
865,D2,163.0,1.0,95,136.0
866,F#3,163.5,0.5,95,136.0
867,C#3,163.5,0.5,95,136.0
868,E-3,164.0,1.0,95,136.0
869,B1,164.0,1.0,95,136.0
870,G#3,164.5,0.5,95,136.0
871,C#3,164.5,0.5,95,136.0
872,E-3,165.0,1.0,95,136.0
873,D2,165.0,1.0,95,136.0
874,E3,165.5,1.5,95,136.0
875,A2,165.5,1.5,95,136.0
876,E-3,166.0,1.0,95,136.0
877,B1,166.0,1.0,95,136.0
878,A2,167.0,0.5,95,136.0
879,E-3,167.0,1.0,95,136.0
880,D2,167.0,1.0,95,136.0
881,B2,167.5,0.5,95,136.0
882,G#3,168.0,3.0,95,136.0
883,C#3,168.0,3.0,95,136.0
884,E-3,168.0,1.0,95,136.0
885,B1,168.0,1.0,95,136.0
886,E-3,169.0,1.0,95,136.0
887,D2,169.0,1.0,95,136.0
888,E-3,170.0,1.0,95,136.0
889,B1,170.0,1.0,95,136.0
890,E-3,171.0,0.5,95,136.0
891,D2,171.0,0.5,95,136.0
892,B1,171.5,0.5,95,136.0
893,F#3,171.5,0.5,95,136.0
894,B2,171.5,0.5,95,136.0
895,C#3,171.5,0.5,95,136.0
896,B1,171.5,0.5,95,136.0
897,B1,172.0,0.5,95,136.0
898,F#3,172.0,0.5,95,136.0
899,B2,172.0,0.5,95,136.0
900,E-3,172.0,1.0,95,136.0
901,B1,172.0,1.0,95,136.0
902,E-3,172.5,0.5,95,136.0
903,E3,173.0,0.5,95,136.0
904,E-3,173.0,0.5,95,136.0
905,D2,173.0,0.5,95,136.0
906,A1,173.5,1.0,95,136.0
907,A3,173.5,1.0,95,136.0
908,E3,173.5,1.0,95,136.0
909,A2,173.5,1.0,95,136.0
910,C#3,173.5,0.5,95,136.0
911,B1,173.5,0.5,95,136.0
912,E-3,174.0,1.0,95,136.0
913,B1,174.0,1.0,95,136.0
914,A2,174.5,0.5,95,136.0
915,B2,175.0,0.5,95,136.0
916,E-3,175.0,1.0,95,136.0
917,D2,175.0,1.0,95,136.0
918,A2,175.5,0.5,95,136.0
919,G#3,176.0,3.0,95,136.0
920,C#3,176.0,3.0,95,136.0
921,C#3,176.0,1.0,95,136.0
922,B1,176.0,1.0,95,136.0
923,E-3,177.0,1.0,95,136.0
924,D2,177.0,1.0,95,136.0
925,E-3,178.0,1.0,95,136.0
926,B1,178.0,1.0,95,136.0
927,E-3,179.0,1.0,95,136.0
928,D2,179.0,1.0,95,136.0
929,F#3,179.5,0.5,95,136.0
930,C#3,179.5,0.5,95,136.0
931,E-3,180.0,1.0,95,136.0
932,B1,180.0,1.0,95,136.0
933,G#3,180.5,0.5,95,136.0
934,C#3,180.5,0.5,95,136.0
935,E-3,181.0,1.0,95,136.0
936,D2,181.0,1.0,95,136.0
937,E3,181.5,1.5,95,136.0
938,A2,181.5,1.5,95,136.0
939,E-3,182.0,1.0,95,136.0
940,B1,182.0,1.0,95,136.0
941,A2,183.0,0.5,95,136.0
942,E-3,183.0,1.0,95,136.0
943,D2,183.0,1.0,95,136.0
944,B2,183.5,0.5,95,136.0
945,G#3,184.0,3.0,95,136.0
946,C#3,184.0,3.0,95,136.0
947,E-3,184.0,1.0,95,136.0
948,B1,184.0,1.0,95,136.0
949,E-3,185.0,1.0,95,136.0
950,D2,185.0,1.0,95,136.0
951,E-3,186.0,1.0,95,136.0
952,B1,186.0,1.0,95,136.0
953,E-3,187.0,0.5,95,136.0
954,D2,187.0,0.5,95,136.0
955,B1,187.5,0.5,95,136.0
956,F#3,187.5,0.5,95,136.0
957,B2,187.5,0.5,95,136.0
958,C#3,187.5,0.5,95,136.0
959,B1,187.5,0.5,95,136.0
960,B1,188.0,0.5,95,136.0
961,F#3,188.0,0.5,95,136.0
962,B2,188.0,0.5,95,136.0
963,E-3,188.0,1.0,95,136.0
964,B1,188.0,1.0,95,136.0
965,E-3,188.5,0.5,95,136.0
966,E3,189.0,0.5,95,136.0
967,E-3,189.0,0.5,95,136.0
968,D2,189.0,0.5,95,136.0
969,A1,189.5,1.0,95,136.0
970,A3,189.5,1.0,95,136.0
971,E3,189.5,1.0,95,136.0
972,A2,189.5,1.0,95,136.0
973,C#3,189.5,2.5,95,136.0
974,B1,189.5,2.5,95,136.0
975,E4,190.5,0.5,95,136.0
976,E-4,191.0,0.5,95,136.0
977,B3,191.5,0.5,95,136.0
978,E4,192.0,0.5,95,136.0
979,E-4,192.5,0.5,95,136.0
980,B3,193.0,0.5,95,136.0
981,E4,193.5,2.0,95,136.0
982,B1,196.0,1.5,95,136.0
983,F#3,196.0,1.5,95,136.0
984,B2,196.0,1.5,95,136.0
985,C#3,196.0,4.0,95,136.0
986,B1,196.0,4.0,95,136.0
987,A1,197.5,1.0,95,136.0
988,A3,197.5,1.0,95,136.0
989,E3,197.5,1.0,95,136.0
990,A2,197.5,1.0,95,136.0
991,E4,198.5,0.5,95,136.0
992,E-4,199.0,0.5,95,136.0
993,B3,199.5,0.5,95,136.0
994,E4,200.0,0.5,95,136.0
995,C#3,200.0,1.5,95,136.0
996,B1,200.0,1.5,95,136.0
997,E-4,200.5,0.5,95,136.0
998,B3,201.0,0.5,95,136.0
999,E4,201.5,2.5,95,136.0
1000,E-4,201.5,2.5,95,136.0
1001,A3,201.5,2.5,95,136.0
1002,B1,201.5,2.5,95,136.0
1003,B1,204.0,1.5,95,136.0
1004,F#3,204.0,1.5,95,136.0
1005,B2,204.0,1.5,95,136.0
1006,A1,205.5,1.0,95,136.0
1007,A3,205.5,1.0,95,136.0
1008,E3,205.5,1.0,95,136.0
1009,A2,205.5,1.0,95,136.0
1010,E4,206.5,0.5,95,136.0
1011,E-4,207.0,0.5,95,136.0
1012,B3,207.5,0.5,95,136.0
1013,E4,208.0,0.5,95,136.0
1014,A3,208.0,4.0,95,136.0
1015,B1,208.0,4.0,95,136.0
1016,E-4,208.5,0.5,95,136.0
1017,B3,209.0,0.5,95,136.0
1018,E4,209.5,2.5,95,136.0
1019,C#3,212.0,1.5,95,136.0
1020,B1,212.0,1.5,95,136.0
1021,G#1,213.0,0.5,95,136.0
1022,G#3,213.0,0.5,95,136.0
1023,E-3,213.0,0.5,95,136.0
1024,G#2,213.0,0.5,95,136.0
1025,F#1,213.5,0.5,95,136.0
1026,F#3,213.5,0.5,95,136.0
1027,C#3,213.5,0.5,95,136.0
1028,F#2,213.5,0.5,95,136.0
1029,A3,213.5,2.5,95,136.0
1030,B1,213.5,2.5,95,136.0
1031,E2,214.0,4.0,95,136.0
1032,B3,214.0,0.5,95,136.0
1033,E3,214.0,0.5,95,136.0
1034,E2,214.0,0.5,95,136.0
1035,E3,215.0,0.5,95,136.0
1036,B3,215.5,0.5,95,136.0
1037,E3,216.0,0.5,95,136.0
1038,C4,216.5,0.25,95,136.0
1039,C#4,216.75,0.75,70,136.0
1040,B3,217.5,0.5,95,136.0
1041,B1,218.0,4.0,95,136.0
1042,F#3,218.0,0.5,95,136.0
1043,B2,218.0,0.5,95,136.0
1044,B2,219.0,0.5,95,136.0
1045,F#3,219.5,0.5,95,136.0
1046,B2,220.0,0.5,95,136.0
1047,A3,220.0,4.0,95,136.0
1048,B1,220.0,4.0,95,136.0
1049,A3,220.5,0.5,95,136.0
1050,G#3,221.0,0.5,95,136.0
1051,F#3,221.5,0.5,95,136.0
1052,A1,222.0,4.0,95,136.0
1053,E3,222.0,0.5,95,136.0
1054,A2,222.0,0.5,95,136.0
1055,E3,223.0,0.5,95,136.0
1056,B3,223.5,0.5,95,136.0
1057,E3,224.0,0.5,95,136.0
1058,D2,224.0,1.0,95,136.0
1059,G#3,224.5,0.5,95,136.0
1060,E3,225.0,0.5,95,136.0
1061,C#3,225.0,0.5,95,136.0
1062,B1,225.0,0.5,95,136.0
1063,A3,225.5,0.5,95,136.0
1064,A3,225.5,0.5,95,136.0
1065,B1,225.5,0.5,95,136.0
1066,E3,226.0,0.5,95,136.0
1067,A1,226.0,4.0,95,136.0
1068,C#3,226.0,0.5,95,136.0
1069,B1,226.0,0.5,95,136.0
1070,C#4,226.5,0.5,95,136.0
1071,F#2,226.5,0.5,95,136.0
1072,A3,227.0,0.5,95,136.0
1073,F#2,227.0,0.5,84,136.0
1074,G1,227.0,0.5,84,136.0
1075,D2,227.0,0.5,84,136.0
1076,E-4,227.5,0.5,95,136.0
1077,F#2,227.5,0.5,95,136.0
1078,A3,228.0,0.5,95,136.0
1079,F#2,228.0,0.5,95,136.0
1080,B1,228.0,0.5,95,136.0
1081,E4,228.5,0.5,95,136.0
1082,F#2,228.5,0.5,95,136.0
1083,B1,228.5,0.5,95,136.0
1084,E-4,229.0,0.5,95,136.0
1085,F#2,229.0,0.5,84,136.0
1086,G1,229.0,0.5,84,136.0
1087,D2,229.0,0.5,84,136.0
1088,C#4,229.5,0.5,95,136.0
1089,F#2,229.5,0.5,95,136.0
1090,C#2,230.0,4.0,95,136.0
1091,C#4,230.0,0.5,95,136.0
1092,G#3,230.0,0.5,95,136.0
1093,C#3,230.0,0.5,95,136.0
1094,F#2,230.0,0.5,95,136.0
1095,B1,230.0,0.5,95,136.0
1096,F#2,230.5,0.5,95,136.0
1097,C#4,231.0,0.5,95,136.0
1098,G#3,231.0,0.5,95,136.0
1099,C#3,231.0,0.5,95,136.0
1100,F#2,231.0,0.5,84,136.0
1101,G1,231.0,0.5,84,136.0
1102,D2,231.0,0.5,84,136.0
1103,F#2,231.5,0.5,95,136.0
1104,E4,231.5,0.5,95,136.0
1105,C#4,231.5,0.5,95,136.0
1106,G#3,231.5,0.5,95,136.0
1107,F#2,232.0,0.5,95,136.0
1108,B1,232.0,0.5,95,136.0
1109,F#4,232.5,1.0,95,136.0
1110,C#4,232.5,1.0,95,136.0
1111,G#3,232.5,1.0,95,136.0
1112,F#2,232.5,0.5,95,136.0
1113,B1,232.5,0.5,95,136.0
1114,F#2,233.0,0.5,84,136.0
1115,G1,233.0,0.5,84,136.0
1116,D2,233.0,0.5,84,136.0
1117,F#2,233.5,0.5,95,136.0
1118,E4,233.5,0.5,95,136.0
1119,C#4,233.5,0.5,95,136.0
1120,G#3,233.5,0.5,95,136.0
1121,B1,234.0,4.0,95,136.0
1122,B3,234.0,0.5,95,136.0
1123,F#3,234.0,0.5,95,136.0
1124,B2,234.0,0.5,95,136.0
1125,F#2,234.0,0.5,95,136.0
1126,B1,234.0,0.5,95,136.0
1127,F#2,234.5,0.5,95,136.0
1128,B3,235.0,0.5,95,136.0
1129,F#3,235.0,0.5,95,136.0
1130,B2,235.0,0.5,95,136.0
1131,F#2,235.0,0.5,84,136.0
1132,G1,235.0,0.5,84,136.0
1133,D2,235.0,0.5,84,136.0
1134,F#2,235.5,0.5,95,136.0
1135,E-4,235.5,0.5,95,136.0
1136,B3,235.5,0.5,95,136.0
1137,F#3,235.5,0.5,95,136.0
1138,F#2,236.0,0.5,95,136.0
1139,B1,236.0,0.5,95,136.0
1140,E4,236.5,1.0,95,136.0
1141,B3,236.5,1.0,95,136.0
1142,F#3,236.5,1.0,95,136.0
1143,F#2,236.5,0.5,95,136.0
1144,B1,236.5,0.5,95,136.0
1145,F#2,237.0,0.5,84,136.0
1146,G1,237.0,0.5,84,136.0
1147,D2,237.0,0.5,84,136.0
1148,F#2,237.5,0.5,95,136.0
1149,E-4,237.5,0.5,95,136.0
1150,B3,237.5,0.5,95,136.0
1151,F#3,237.5,0.5,95,136.0
1152,A1,238.0,4.0,95,136.0
1153,E3,238.0,1.0,95,136.0
1154,A2,238.0,1.0,95,136.0
1155,F#2,238.0,0.5,95,136.0
1156,B1,238.0,0.5,95,136.0
1157,F#2,238.5,0.5,95,136.0
1158,E3,239.0,0.5,95,136.0
1159,F#2,239.0,0.5,84,136.0
1160,G1,239.0,0.5,84,136.0
1161,D2,239.0,0.5,84,136.0
1162,E-4,239.5,0.5,95,136.0
1163,F#2,239.5,0.5,95,136.0
1164,A3,240.0,0.5,95,136.0
1165,F#2,240.0,0.5,95,136.0
1166,B1,240.0,0.5,95,136.0
1167,E4,240.5,0.5,95,136.0
1168,F#2,240.5,0.5,95,136.0
1169,B1,240.5,0.5,95,136.0
1170,E-4,241.0,0.5,95,136.0
1171,F#2,241.0,0.5,84,136.0
1172,G1,241.0,0.5,84,136.0
1173,D2,241.0,0.5,84,136.0
1174,A3,241.5,0.5,95,136.0
1175,F#2,241.5,0.5,95,136.0
1176,E3,242.0,1.0,95,136.0
1177,A1,242.0,3.0,95,136.0
1178,C#3,242.0,0.5,95,136.0
1179,B1,242.0,0.5,95,136.0
1180,F#2,242.5,0.5,95,136.0
1181,E3,243.0,0.5,95,136.0
1182,F#2,243.0,0.5,84,136.0
1183,G1,243.0,0.5,84,136.0
1184,D2,243.0,0.5,84,136.0
1185,E-4,243.5,0.5,95,136.0
1186,F#2,243.5,0.5,95,136.0
1187,A3,244.0,0.5,95,136.0
1188,F#2,244.0,0.5,95,136.0
1189,B1,244.0,0.5,95,136.0
1190,E4,244.5,0.5,95,136.0
1191,F#2,244.5,0.5,95,136.0
1192,B1,244.5,0.5,95,136.0
1193,G#1,245.0,0.5,95,136.0
1194,G#3,245.0,0.5,95,136.0
1195,E-3,245.0,0.5,95,136.0
1196,G#2,245.0,0.5,95,136.0
1197,F#2,245.0,0.5,84,136.0
1198,G1,245.0,0.5,84,136.0
1199,D2,245.0,0.5,84,136.0
1200,F#1,245.5,0.5,95,136.0
1201,F#2,245.5,0.5,95,136.0
1202,F#3,245.5,0.5,95,136.0
1203,C#3,245.5,0.5,95,136.0
1204,F#2,245.5,0.5,95,136.0
1205,E2,246.0,4.0,95,136.0
1206,B3,246.0,0.5,95,136.0
1207,E3,246.0,0.5,95,136.0
1208,E2,246.0,0.5,95,136.0
1209,C#3,246.0,0.5,95,136.0
1210,B1,246.0,0.5,95,136.0
1211,F#2,246.5,0.5,95,136.0
1212,E3,247.0,0.5,95,136.0
1213,F#2,247.0,0.5,84,136.0
1214,G1,247.0,0.5,84,136.0
1215,D2,247.0,0.5,84,136.0
1216,B3,247.5,0.5,95,136.0
1217,F#2,247.5,0.5,95,136.0
1218,E3,248.0,0.5,95,136.0
1219,F#2,248.0,0.5,95,136.0
1220,B1,248.0,0.5,95,136.0
1221,C4,248.5,0.25,95,136.0
1222,F#2,248.5,0.5,95,136.0
1223,B1,248.5,0.5,95,136.0
1224,C#4,248.75,0.75,70,136.0
1225,F#2,249.0,0.5,84,136.0
1226,G1,249.0,0.5,84,136.0
1227,D2,249.0,0.5,84,136.0
1228,B3,249.5,0.5,95,136.0
1229,F#2,249.5,0.5,95,136.0
1230,B1,250.0,4.0,95,136.0
1231,F#3,250.0,0.5,95,136.0
1232,B2,250.0,0.5,95,136.0
1233,C#3,250.0,0.5,95,136.0
1234,B1,250.0,0.5,95,136.0
1235,F#2,250.5,0.5,95,136.0
1236,B2,251.0,0.5,95,136.0
1237,F#2,251.0,0.5,84,136.0
1238,G1,251.0,0.5,84,136.0
1239,D2,251.0,0.5,84,136.0
1240,F#3,251.5,0.5,95,136.0
1241,F#2,251.5,0.5,95,136.0
1242,B2,252.0,0.5,95,136.0
1243,F#2,252.0,0.5,95,136.0
1244,B1,252.0,0.5,95,136.0
1245,A3,252.5,0.5,95,136.0
1246,F#2,252.5,0.5,95,136.0
1247,B1,252.5,0.5,95,136.0
1248,G#3,253.0,0.5,95,136.0
1249,F#2,253.0,0.5,84,136.0
1250,G1,253.0,0.5,84,136.0
1251,D2,253.0,0.5,84,136.0
1252,F#3,253.5,0.5,95,136.0
1253,F#2,253.5,0.5,95,136.0
1254,A1,254.0,4.0,95,136.0
1255,E3,254.0,0.5,95,136.0
1256,A2,254.0,0.5,95,136.0
1257,F#2,254.0,0.5,95,136.0
1258,B1,254.0,0.5,95,136.0
1259,F#2,254.5,0.5,95,136.0
1260,E3,255.0,0.5,95,136.0
1261,A2,255.0,0.5,95,136.0
1262,F#2,255.0,0.5,84,136.0
1263,G1,255.0,0.5,84,136.0
1264,D2,255.0,0.5,84,136.0
1265,B3,255.5,0.5,95,136.0
1266,F#2,255.5,0.5,95,136.0
1267,E3,256.0,0.5,95,136.0
1268,F#2,256.0,0.5,95,136.0
1269,B1,256.0,0.5,95,136.0
1270,G#3,256.5,0.5,95,136.0
1271,F#2,256.5,0.5,95,136.0
1272,B1,256.5,0.5,95,136.0
1273,E3,257.0,0.5,95,136.0
1274,C#3,257.0,0.5,95,136.0
1275,B1,257.0,0.5,95,136.0
1276,A3,257.5,0.5,95,136.0
1277,A3,257.5,0.5,95,136.0
1278,B1,257.5,0.5,95,136.0
1279,A1,258.0,4.0,95,136.0
1280,E3,258.0,0.5,95,136.0
1281,A2,258.0,0.5,95,136.0
1282,C#3,258.0,0.5,95,136.0
1283,B1,258.0,0.5,95,136.0
1284,C#4,258.5,0.5,95,136.0
1285,F#2,258.5,0.5,95,136.0
1286,A3,259.0,0.5,95,136.0
1287,F#2,259.0,0.5,84,136.0
1288,G1,259.0,0.5,84,136.0
1289,D2,259.0,0.5,84,136.0
1290,E-4,259.5,0.5,95,136.0
1291,F#2,259.5,0.5,95,136.0
1292,A3,260.0,0.5,95,136.0
1293,F#2,260.0,0.5,95,136.0
1294,B1,260.0,0.5,95,136.0
1295,E4,260.5,0.5,95,136.0
1296,F#2,260.5,0.5,95,136.0
1297,B1,260.5,0.5,95,136.0
1298,E-4,261.0,0.5,95,136.0
1299,F#2,261.0,0.5,84,136.0
1300,G1,261.0,0.5,84,136.0
1301,D2,261.0,0.5,84,136.0
1302,C#4,261.5,0.5,95,136.0
1303,F#2,261.5,0.5,95,136.0
1304,C#2,262.0,4.0,95,136.0
1305,C#4,262.0,0.5,95,136.0
1306,G#3,262.0,0.5,95,136.0
1307,C#3,262.0,0.5,95,136.0
1308,F#2,262.0,0.5,95,136.0
1309,B1,262.0,0.5,95,136.0
1310,F#2,262.5,0.5,95,136.0
1311,C#4,263.0,0.5,95,136.0
1312,G#3,263.0,0.5,95,136.0
1313,C#3,263.0,0.5,95,136.0
1314,F#2,263.0,0.5,84,136.0
1315,G1,263.0,0.5,84,136.0
1316,D2,263.0,0.5,84,136.0
1317,F#2,263.5,0.5,95,136.0
1318,E4,263.5,0.5,95,136.0
1319,C#4,263.5,0.5,95,136.0
1320,G#3,263.5,0.5,95,136.0
1321,F#2,264.0,0.5,95,136.0
1322,B1,264.0,0.5,95,136.0
1323,F#4,264.5,1.0,95,136.0
1324,C#4,264.5,1.0,95,136.0
1325,G#3,264.5,1.0,95,136.0
1326,F#2,264.5,0.5,95,136.0
1327,B1,264.5,0.5,95,136.0
1328,F#2,265.0,0.5,84,136.0
1329,G1,265.0,0.5,84,136.0
1330,D2,265.0,0.5,84,136.0
1331,F#2,265.5,0.5,95,136.0
1332,E4,265.5,0.5,95,136.0
1333,C#4,265.5,0.5,95,136.0
1334,G#3,265.5,0.5,95,136.0
1335,B1,266.0,4.0,95,136.0
1336,B3,266.0,0.5,95,136.0
1337,F#3,266.0,0.5,95,136.0
1338,B2,266.0,0.5,95,136.0
1339,F#2,266.0,0.5,95,136.0
1340,B1,266.0,0.5,95,136.0
1341,F#2,266.5,0.5,95,136.0
1342,B3,267.0,0.5,95,136.0
1343,F#3,267.0,0.5,95,136.0
1344,B2,267.0,0.5,95,136.0
1345,F#2,267.0,0.5,84,136.0
1346,G1,267.0,0.5,84,136.0
1347,D2,267.0,0.5,84,136.0
1348,F#2,267.5,0.5,95,136.0
1349,E-4,267.5,0.5,95,136.0
1350,B3,267.5,0.5,95,136.0
1351,F#3,267.5,0.5,95,136.0
1352,F#2,268.0,0.5,95,136.0
1353,B1,268.0,0.5,95,136.0
1354,E4,268.5,1.0,95,136.0
1355,B3,268.5,1.0,95,136.0
1356,F#3,268.5,1.0,95,136.0
1357,F#2,268.5,0.5,95,136.0
1358,B1,268.5,0.5,95,136.0
1359,F#2,269.0,0.5,84,136.0
1360,G1,269.0,0.5,84,136.0
1361,D2,269.0,0.5,84,136.0
1362,F#2,269.5,0.5,95,136.0
1363,E-4,269.5,0.5,95,136.0
1364,B3,269.5,0.5,95,136.0
1365,F#3,269.5,0.5,95,136.0
1366,A1,270.0,4.0,95,136.0
1367,E3,270.0,1.0,95,136.0
1368,A2,270.0,1.0,95,136.0
1369,F#2,270.0,0.5,95,136.0
1370,B1,270.0,0.5,95,136.0
1371,F#2,270.5,0.5,95,136.0
1372,E3,271.0,0.5,95,136.0
1373,F#2,271.0,0.5,84,136.0
1374,G1,271.0,0.5,84,136.0
1375,D2,271.0,0.5,84,136.0
1376,E-4,271.5,0.5,95,136.0
1377,F#2,271.5,0.5,95,136.0
1378,A3,272.0,0.5,95,136.0
1379,F#2,272.0,0.5,95,136.0
1380,B1,272.0,0.5,95,136.0
1381,E4,272.5,0.5,95,136.0
1382,F#2,272.5,0.5,95,136.0
1383,B1,272.5,0.5,95,136.0
1384,E-4,273.0,0.5,95,136.0
1385,F#2,273.0,0.5,84,136.0
1386,G1,273.0,0.5,84,136.0
1387,D2,273.0,0.5,84,136.0
1388,A3,273.5,0.5,95,136.0
1389,F#2,273.5,0.5,95,136.0
1390,E3,274.0,1.0,95,136.0
1391,A1,274.0,3.0,95,136.0
1392,C#3,274.0,0.5,95,136.0
1393,B1,274.0,0.5,95,136.0
1394,F#2,274.5,0.5,95,136.0
1395,E3,275.0,0.5,95,136.0
1396,F#2,275.0,0.5,84,136.0
1397,G1,275.0,0.5,84,136.0
1398,D2,275.0,0.5,84,136.0
1399,E-4,275.5,0.5,95,136.0
1400,F#2,275.5,0.5,95,136.0
1401,A3,276.0,0.5,95,136.0
1402,F#2,276.0,0.5,95,136.0
1403,B1,276.0,0.5,95,136.0
1404,E4,276.5,0.5,95,136.0
1405,F#2,276.5,0.5,95,136.0
1406,B1,276.5,0.5,95,136.0
1407,G#1,277.0,0.5,95,136.0
1408,G#3,277.0,0.5,95,136.0
1409,E-3,277.0,0.5,95,136.0
1410,G#2,277.0,0.5,95,136.0
1411,F#2,277.0,0.5,84,136.0
1412,G1,277.0,0.5,84,136.0
1413,D2,277.0,0.5,84,136.0
1414,F#1,277.5,0.5,95,136.0
1415,F#2,277.5,0.5,95,136.0
1416,F#3,277.5,0.5,95,136.0
1417,C#3,277.5,0.5,95,136.0
1418,F#2,277.5,0.5,95,136.0
1419,E2,278.0,4.0,95,136.0
1420,B3,278.0,0.5,95,136.0
1421,E3,278.0,0.5,95,136.0
1422,E2,278.0,0.5,95,136.0
1423,C#3,278.0,0.5,95,136.0
1424,B1,278.0,0.5,95,136.0
1425,F#2,278.5,0.5,95,136.0
1426,E3,279.0,0.5,95,136.0
1427,F#2,279.0,0.5,84,136.0
1428,G1,279.0,0.5,84,136.0
1429,D2,279.0,0.5,84,136.0
1430,B3,279.5,0.5,95,136.0
1431,F#2,279.5,0.5,95,136.0
1432,E3,280.0,0.5,95,136.0
1433,F#2,280.0,0.5,95,136.0
1434,B1,280.0,0.5,95,136.0
1435,C4,280.5,0.25,95,136.0
1436,F#2,280.5,0.5,95,136.0
1437,B1,280.5,0.5,95,136.0
1438,C#4,280.75,0.75,70,136.0
1439,F#2,281.0,0.5,84,136.0
1440,G1,281.0,0.5,84,136.0
1441,D2,281.0,0.5,84,136.0
1442,B3,281.5,0.5,95,136.0
1443,F#2,281.5,0.5,95,136.0
1444,B1,282.0,4.0,95,136.0
1445,F#3,282.0,0.5,95,136.0
1446,B2,282.0,0.5,95,136.0
1447,C#3,282.0,0.5,95,136.0
1448,B1,282.0,0.5,95,136.0
1449,F#2,282.5,0.5,95,136.0
1450,B2,283.0,0.5,95,136.0
1451,F#2,283.0,0.5,84,136.0
1452,G1,283.0,0.5,84,136.0
1453,D2,283.0,0.5,84,136.0
1454,F#3,283.5,0.5,95,136.0
1455,F#2,283.5,0.5,95,136.0
1456,B2,284.0,0.5,95,136.0
1457,F#2,284.0,0.5,95,136.0
1458,B1,284.0,0.5,95,136.0
1459,A3,284.5,0.5,95,136.0
1460,F#2,284.5,0.5,95,136.0
1461,B1,284.5,0.5,95,136.0
1462,G#3,285.0,0.5,95,136.0
1463,F#2,285.0,0.5,84,136.0
1464,G1,285.0,0.5,84,136.0
1465,D2,285.0,0.5,84,136.0
1466,F#3,285.5,0.5,95,136.0
1467,F#2,285.5,0.5,95,136.0
1468,A1,286.0,4.0,95,136.0
1469,E3,286.0,0.5,95,136.0
1470,A2,286.0,0.5,95,136.0
1471,F#2,286.0,0.5,95,136.0
1472,B1,286.0,0.5,95,136.0
1473,F#2,286.5,0.5,95,136.0
1474,E3,287.0,0.5,95,136.0
1475,A2,287.0,0.5,95,136.0
1476,F#2,287.0,0.5,84,136.0
1477,G1,287.0,0.5,84,136.0
1478,D2,287.0,0.5,84,136.0
1479,B3,287.5,0.5,95,136.0
1480,F#2,287.5,0.5,95,136.0
1481,E3,288.0,0.5,95,136.0
1482,F#2,288.0,0.5,95,136.0
1483,B1,288.0,0.5,95,136.0
1484,G#3,288.5,0.5,95,136.0
1485,F#2,288.5,0.5,95,136.0
1486,B1,288.5,0.5,95,136.0
1487,E3,289.0,0.5,95,136.0
1488,F#2,289.0,0.5,84,136.0
1489,G1,289.0,0.5,84,136.0
1490,D2,289.0,0.5,84,136.0
1491,A3,289.5,0.5,95,136.0
1492,F#2,289.5,0.5,95,136.0
1493,A1,290.0,4.0,95,136.0
1494,E3,290.0,0.5,95,136.0
1495,A2,290.0,0.5,95,136.0
1496,C#3,290.0,0.5,95,136.0
1497,B1,290.0,0.5,95,136.0
1498,C#4,290.5,0.5,95,136.0
1499,F#2,290.5,0.5,95,136.0
1500,A3,291.0,0.5,95,136.0
1501,F#2,291.0,0.5,84,136.0
1502,G1,291.0,0.5,84,136.0
1503,D2,291.0,0.5,84,136.0
1504,E-4,291.5,0.5,95,136.0
1505,F#2,291.5,0.5,95,136.0
1506,A3,292.0,0.5,95,136.0
1507,F#2,292.0,0.5,95,136.0
1508,B1,292.0,0.5,95,136.0
1509,E4,292.5,0.5,95,136.0
1510,F#2,292.5,0.5,95,136.0
1511,B1,292.5,0.5,95,136.0
1512,E-4,293.0,0.5,95,136.0
1513,F#2,293.0,0.5,84,136.0
1514,G1,293.0,0.5,84,136.0
1515,D2,293.0,0.5,84,136.0
1516,C#4,293.5,0.5,95,136.0
1517,F#2,293.5,0.5,95,136.0
1518,C#2,294.0,4.0,95,136.0
1519,C#4,294.0,0.5,95,136.0
1520,G#3,294.0,0.5,95,136.0
1521,C#3,294.0,0.5,95,136.0
1522,F#2,294.0,0.5,95,136.0
1523,B1,294.0,0.5,95,136.0
1524,F#2,294.5,0.5,95,136.0
1525,C#4,295.0,0.5,95,136.0
1526,G#3,295.0,0.5,95,136.0
1527,C#3,295.0,0.5,95,136.0
1528,F#2,295.0,0.5,84,136.0
1529,G1,295.0,0.5,84,136.0
1530,D2,295.0,0.5,84,136.0
1531,F#2,295.5,0.5,95,136.0
1532,E4,295.5,0.5,95,136.0
1533,C#4,295.5,0.5,95,136.0
1534,G#3,295.5,0.5,95,136.0
1535,F#2,296.0,0.5,95,136.0
1536,B1,296.0,0.5,95,136.0
1537,F#4,296.5,1.0,95,136.0
1538,C#4,296.5,1.0,95,136.0
1539,G#3,296.5,1.0,95,136.0
1540,F#2,296.5,0.5,95,136.0
1541,B1,296.5,0.5,95,136.0
1542,F#2,297.0,0.5,84,136.0
1543,G1,297.0,0.5,84,136.0
1544,D2,297.0,0.5,84,136.0
1545,F#2,297.5,0.5,95,136.0
1546,E4,297.5,0.5,95,136.0
1547,C#4,297.5,0.5,95,136.0
1548,G#3,297.5,0.5,95,136.0
1549,B1,298.0,4.0,95,136.0
1550,B3,298.0,0.5,95,136.0
1551,F#3,298.0,0.5,95,136.0
1552,B2,298.0,0.5,95,136.0
1553,F#2,298.0,0.5,95,136.0
1554,B1,298.0,0.5,95,136.0
1555,F#2,298.5,0.5,95,136.0
1556,B3,299.0,0.5,95,136.0
1557,F#3,299.0,0.5,95,136.0
1558,B2,299.0,0.5,95,136.0
1559,F#2,299.0,0.5,84,136.0
1560,G1,299.0,0.5,84,136.0
1561,D2,299.0,0.5,84,136.0
1562,F#2,299.5,0.5,95,136.0
1563,E-4,299.5,0.5,95,136.0
1564,B3,299.5,0.5,95,136.0
1565,F#3,299.5,0.5,95,136.0
1566,F#2,300.0,0.5,95,136.0
1567,B1,300.0,0.5,95,136.0
1568,E4,300.5,1.0,95,136.0
1569,B3,300.5,1.0,95,136.0
1570,F#3,300.5,1.0,95,136.0
1571,F#2,300.5,0.5,95,136.0
1572,B1,300.5,0.5,95,136.0
1573,F#2,301.0,0.5,84,136.0
1574,G1,301.0,0.5,84,136.0
1575,D2,301.0,0.5,84,136.0
1576,F#2,301.5,0.5,95,136.0
1577,E-4,301.5,0.5,95,136.0
1578,B3,301.5,0.5,95,136.0
1579,F#3,301.5,0.5,95,136.0
1580,A1,302.0,4.0,95,136.0
1581,E3,302.0,1.0,95,136.0
1582,A2,302.0,1.0,95,136.0
1583,F#2,302.0,0.5,95,136.0
1584,B1,302.0,0.5,95,136.0
1585,F#2,302.5,0.5,95,136.0
1586,E3,303.0,0.5,95,136.0
1587,F#2,303.0,0.5,84,136.0
1588,G1,303.0,0.5,84,136.0
1589,D2,303.0,0.5,84,136.0
1590,E-4,303.5,0.5,95,136.0
1591,F#2,303.5,0.5,95,136.0
1592,A3,304.0,0.5,95,136.0
1593,F#2,304.0,0.5,95,136.0
1594,B1,304.0,0.5,95,136.0
1595,E4,304.5,0.5,95,136.0
1596,F#2,304.5,0.5,95,136.0
1597,B1,304.5,0.5,95,136.0
1598,E-4,305.0,0.5,95,136.0
1599,F#2,305.0,0.5,84,136.0
1600,G1,305.0,0.5,84,136.0
1601,D2,305.0,0.5,84,136.0
1602,A3,305.5,0.5,95,136.0
1603,F#2,305.5,0.5,95,136.0
1604,E3,306.0,1.0,95,136.0
1605,A1,306.0,3.0,95,136.0
1606,C#3,306.0,0.5,95,136.0
1607,B1,306.0,0.5,95,136.0
1608,F#2,306.5,0.5,95,136.0
1609,E3,307.0,0.5,95,136.0
1610,F#2,307.0,0.5,84,136.0
1611,G1,307.0,0.5,84,136.0
1612,D2,307.0,0.5,84,136.0
1613,E-4,307.5,0.5,95,136.0
1614,F#2,307.5,0.5,95,136.0
1615,A3,308.0,0.5,95,136.0
1616,F#2,308.0,0.5,95,136.0
1617,B1,308.0,0.5,95,136.0
1618,E4,308.5,0.5,95,136.0
1619,F#2,308.5,0.5,95,136.0
1620,B1,308.5,0.5,95,136.0
1621,G#1,309.0,0.5,95,136.0
1622,G#3,309.0,0.5,95,136.0
1623,E-3,309.0,0.5,95,136.0
1624,G#2,309.0,0.5,95,136.0
1625,F#2,309.0,0.5,84,136.0
1626,G1,309.0,0.5,84,136.0
1627,D2,309.0,0.5,84,136.0
1628,F#1,309.5,0.5,95,136.0
1629,F#2,309.5,0.5,95,136.0
1630,F#3,309.5,0.5,95,136.0
1631,C#3,309.5,0.5,95,136.0
1632,F#2,309.5,0.5,95,136.0
1633,G#3,310.0,3.0,95,136.0
1634,C#3,310.0,3.0,95,136.0
1635,C#3,310.0,0.5,95,136.0
1636,B1,310.0,0.5,95,136.0
1637,F#2,310.5,0.5,95,136.0
1638,F#2,311.0,0.5,84,136.0
1639,G1,311.0,0.5,84,136.0
1640,D2,311.0,0.5,84,136.0
1641,F#2,311.5,0.5,95,136.0
1642,F#2,312.0,0.5,95,136.0
1643,B1,312.0,0.5,95,136.0
1644,F#2,312.5,0.5,95,136.0
1645,B1,312.5,0.5,95,136.0
1646,F#2,313.0,0.5,84,136.0
1647,G1,313.0,0.5,84,136.0
1648,D2,313.0,0.5,84,136.0
1649,F#2,313.5,0.5,95,136.0
1650,F#3,313.5,0.5,95,136.0
1651,C#3,313.5,0.5,95,136.0
1652,C#3,314.0,0.5,95,136.0
1653,B1,314.0,0.5,95,136.0
1654,F#2,314.5,0.5,95,136.0
1655,G#3,314.5,0.5,95,136.0
1656,C#3,314.5,0.5,95,136.0
1657,F#2,315.0,0.5,84,136.0
1658,G1,315.0,0.5,84,136.0
1659,D2,315.0,0.5,84,136.0
1660,F#2,315.5,0.5,95,136.0
1661,E3,315.5,1.5,95,136.0
1662,A2,315.5,1.5,95,136.0
1663,F#2,316.0,0.5,95,136.0
1664,B1,316.0,0.5,95,136.0
1665,F#2,316.5,0.5,95,136.0
1666,B1,316.5,0.5,95,136.0
1667,A2,317.0,0.5,95,136.0
1668,F#2,317.0,0.5,84,136.0
1669,G1,317.0,0.5,84,136.0
1670,D2,317.0,0.5,84,136.0
1671,B2,317.5,0.5,95,136.0
1672,F#2,317.5,0.5,95,136.0
1673,G#3,318.0,3.0,95,136.0
1674,C#3,318.0,3.0,95,136.0
1675,G#2,318.0,0.25,95,136.0
1676,D2,318.0,0.25,95,136.0
1677,D2,318.25,0.25,95,136.0
1678,G#2,318.5,0.5,95,136.0
1679,D2,318.5,0.5,95,136.0
1680,G#2,319.0,0.25,95,136.0
1681,D2,319.0,0.25,95,136.0
1682,D2,319.25,0.25,95,136.0
1683,G#2,319.5,0.5,95,136.0
1684,D2,319.5,0.5,95,136.0
1685,G#2,320.0,0.25,95,136.0
1686,D3,320.0,0.25,95,136.0
1687,D3,320.25,0.25,95,136.0
1688,G#2,320.5,0.25,95,136.0
1689,C3,320.5,0.25,95,136.0
1690,C3,320.75,0.25,95,136.0
1691,G#2,321.0,0.25,95,136.0
1692,B2,321.0,0.25,95,136.0
1693,B2,321.25,0.25,95,136.0
1694,B1,321.5,0.5,95,136.0
1695,F#3,321.5,0.5,95,136.0
1696,B2,321.5,0.5,95,136.0
1697,G#2,321.5,0.25,95,136.0
1698,A2,321.5,0.25,95,136.0
1699,A2,321.75,0.25,95,136.0
1700,B1,322.0,0.5,95,136.0
1701,F#3,322.0,0.5,95,136.0
1702,B2,322.0,0.5,95,136.0
1703,C#3,322.0,0.5,95,136.0
1704,B1,322.0,0.5,95,136.0
1705,E-3,322.5,0.5,95,136.0
1706,E-3,322.5,0.5,95,136.0
1707,E3,323.0,0.5,95,136.0
1708,E-3,323.0,0.5,95,136.0
1709,A1,323.5,1.0,95,136.0
1710,E-3,323.5,0.5,95,136.0
1711,A3,323.5,1.0,95,136.0
1712,E3,323.5,1.0,95,136.0
1713,A2,323.5,1.0,95,136.0
1714,E-3,324.0,0.5,95,136.0
1715,D2,324.0,0.5,95,136.0
1716,A2,324.5,0.5,95,136.0
1717,E-3,324.5,0.5,95,136.0
1718,B2,325.0,0.5,95,136.0
1719,E-3,325.0,0.5,95,136.0
1720,A2,325.5,0.5,95,136.0
1721,E-3,325.5,0.5,95,136.0
1722,G#3,326.0,3.0,95,136.0
1723,C#3,326.0,3.0,95,136.0
1724,E-3,326.0,0.5,95,136.0
1725,B1,326.0,0.5,95,136.0
1726,E-3,326.5,0.5,95,136.0
1727,E-3,327.0,0.5,95,136.0
1728,E-3,327.5,0.5,95,136.0
1729,E-3,328.0,0.5,95,136.0
1730,D2,328.0,0.5,95,136.0
1731,E-3,328.5,0.5,95,136.0
1732,E-3,329.0,0.5,95,136.0
1733,E-3,329.5,0.5,95,136.0
1734,F#3,329.5,0.5,95,136.0
1735,C#3,329.5,0.5,95,136.0
1736,E-3,330.0,0.5,95,136.0
1737,B1,330.0,0.5,95,136.0
1738,E-3,330.5,0.5,95,136.0
1739,G#3,330.5,0.5,95,136.0
1740,C#3,330.5,0.5,95,136.0
1741,E-3,331.0,0.5,95,136.0
1742,E-3,331.5,0.5,95,136.0
1743,E3,331.5,1.5,95,136.0
1744,A2,331.5,1.5,95,136.0
1745,E-3,332.0,0.5,95,136.0
1746,D2,332.0,0.5,95,136.0
1747,E-3,332.5,0.5,95,136.0
1748,D2,332.5,0.5,95,136.0
1749,A2,333.0,0.5,95,136.0
1750,E-3,333.0,0.5,95,136.0
1751,B2,333.5,0.5,95,136.0
1752,C#3,333.5,0.5,95,136.0
1753,B1,333.5,0.5,95,136.0
1754,G#3,334.0,3.0,95,136.0
1755,C#3,334.0,3.0,95,136.0
1756,E-3,334.0,0.5,95,136.0
1757,B1,334.0,0.5,95,136.0
1758,E-3,334.5,0.5,95,136.0
1759,E-3,335.0,0.5,95,136.0
1760,C#3,335.5,0.5,95,136.0
1761,B1,335.5,0.5,95,136.0
1762,E-3,336.0,0.5,95,136.0
1763,D2,336.0,0.5,95,136.0
1764,E-3,336.5,0.5,95,136.0
1765,E-3,337.0,0.5,95,136.0
1766,B1,337.5,0.5,95,136.0
1767,E-3,337.5,0.5,95,136.0
1768,F#3,337.5,0.5,95,136.0
1769,B2,337.5,0.5,95,136.0
1770,B1,338.0,0.5,95,136.0
1771,F#3,338.0,0.5,95,136.0
1772,B2,338.0,0.5,95,136.0
1773,C#3,338.0,0.5,95,136.0
1774,B1,338.0,0.5,95,136.0
1775,E-3,338.5,0.5,95,136.0
1776,E-3,338.5,0.5,95,136.0
1777,E3,339.0,0.5,95,136.0
1778,E-3,339.0,0.5,95,136.0
1779,A1,339.5,1.0,95,136.0
1780,E-3,339.5,0.5,95,136.0
1781,A3,339.5,1.0,95,136.0
1782,E3,339.5,1.0,95,136.0
1783,A2,339.5,1.0,95,136.0
1784,E-3,340.0,0.5,95,136.0
1785,G2,340.0,0.5,95,136.0
1786,E4,340.5,0.5,95,136.0
1787,E-3,340.5,0.5,95,136.0
1788,E-4,341.0,0.5,95,136.0
1789,E-3,341.0,0.5,95,136.0
1790,B3,341.5,0.5,95,136.0
1791,E-3,341.5,0.5,95,136.0
1792,E4,342.0,0.5,95,136.0
1793,E-3,342.0,0.5,95,136.0
1794,B1,342.0,0.5,95,136.0
1795,E-4,342.5,0.5,95,136.0
1796,E-3,342.5,0.5,95,136.0
1797,B3,343.0,0.5,95,136.0
1798,E-3,343.0,0.5,95,136.0
1799,E4,343.5,2.0,95,136.0
1800,E-3,343.5,0.5,95,136.0
1801,E-3,344.0,0.5,95,136.0
1802,D2,344.0,0.5,95,136.0
1803,E-3,344.5,0.5,95,136.0
1804,E-3,345.0,0.5,95,136.0
1805,E-3,345.5,0.5,95,136.0
1806,B1,346.0,1.5,95,136.0
1807,F#3,346.0,1.5,95,136.0
1808,B2,346.0,1.5,95,136.0
1809,E-3,346.0,0.5,95,136.0
1810,B1,346.0,0.5,95,136.0
1811,E-3,346.5,0.5,95,136.0
1812,E-3,347.0,0.5,95,136.0
1813,A1,347.5,1.0,95,136.0
1814,E-3,347.5,0.5,95,136.0
1815,A3,347.5,1.0,95,136.0
1816,E3,347.5,1.0,95,136.0
1817,A2,347.5,1.0,95,136.0
1818,E-3,348.0,0.5,95,136.0
1819,D2,348.0,0.5,95,136.0
1820,E4,348.5,0.5,95,136.0
1821,E-3,348.5,0.5,95,136.0
1822,D2,348.5,0.5,95,136.0
1823,E-4,349.0,0.5,95,136.0
1824,E-3,349.0,0.5,95,136.0
1825,B3,349.5,0.5,95,136.0
1826,C#3,349.5,0.5,95,136.0
1827,B1,349.5,0.5,95,136.0
1828,E4,350.0,0.5,95,136.0
1829,E-3,350.0,0.25,95,136.0
1830,D2,350.0,0.25,95,136.0
1831,B1,350.0,0.25,95,136.0
1832,D2,350.25,0.25,95,136.0
1833,E-4,350.5,0.5,95,136.0
1834,E-3,350.5,0.25,95,136.0
1835,D2,350.5,0.25,95,136.0
1836,D2,350.75,0.25,95,136.0
1837,B3,351.0,0.5,95,136.0
1838,E-3,351.0,0.5,95,136.0
1839,E4,351.5,2.5,95,136.0
1840,E-4,351.5,2.5,95,136.0
1841,C#3,351.5,2.5,95,136.0
1842,B1,351.5,2.5,95,136.0
1843,B1,354.0,1.5,95,136.0
1844,F#3,354.0,1.5,95,136.0
1845,B2,354.0,1.5,95,136.0
1846,A1,355.5,1.0,95,136.0
1847,A3,355.5,1.0,95,136.0
1848,E3,355.5,1.0,95,136.0
1849,A2,355.5,1.0,95,136.0
1850,E4,356.5,0.5,95,136.0
1851,E-4,357.0,0.5,95,136.0
1852,B3,357.5,0.5,95,136.0
1853,E4,358.0,0.5,95,136.0
1854,C#3,358.0,4.0,95,136.0
1855,B1,358.0,4.0,95,136.0
1856,E-4,358.5,0.5,95,136.0
1857,B3,359.0,0.5,95,136.0
1858,B1,359.5,2.5,95,136.0
1859,F#3,359.5,2.5,95,136.0
1860,B2,359.5,2.5,95,136.0
1861,C#3,362.0,0.25,95,136.0
1862,C#3,362.0,1.5,95,136.0
1863,B1,362.0,1.5,95,136.0
1864,B2,362.25,0.25,70,136.0
1865,C#3,362.5,0.25,70,136.0
1866,G#3,362.75,0.25,95,136.0
1867,E3,363.0,0.25,70,136.0
1868,E-3,363.25,0.25,95,136.0
1869,C#3,363.5,0.25,70,136.0
1870,A3,363.5,2.5,95,136.0
1871,B1,363.5,2.5,95,136.0
1872,B2,363.75,0.25,70,136.0
1873,C#3,364.0,0.25,70,136.0
1874,G#3,364.25,0.25,95,136.0
1875,E3,364.5,0.25,70,136.0
1876,E-3,364.75,0.25,95,136.0
1877,A1,365.0,0.5,95,136.0
1878,A3,365.0,0.5,95,136.0
1879,E3,365.0,0.5,95,136.0
1880,A2,365.0,0.5,95,136.0
1881,A3,365.0,0.5,95,136.0
1882,E3,365.0,0.5,95,136.0
1883,A2,365.0,0.5,95,136.0
1884,B1,365.5,0.5,95,136.0
1885,B3,365.5,0.5,95,136.0
1886,F#3,365.5,0.5,95,136.0
1887,B2,365.5,0.5,95,136.0
1888,B3,365.5,0.5,95,136.0
1889,F#3,365.5,0.5,95,136.0
1890,B2,365.5,0.5,95,136.0
1891,C#3,366.0,0.25,95,136.0
1892,C#2,366.0,0.5,95,136.0
1893,C#4,366.0,0.5,95,136.0
1894,G#3,366.0,0.5,95,136.0
1895,C#3,366.0,0.5,95,136.0
1896,B2,366.25,0.25,70,136.0
1897,C#3,366.5,0.25,70,136.0
1898,G#3,366.75,0.25,95,136.0
1899,E3,367.0,0.25,70,136.0
1900,E-3,367.25,0.25,95,136.0
1901,C#3,367.5,0.25,70,136.0
1902,B2,367.75,0.25,70,136.0
1903,C#3,368.0,0.25,70,136.0
1904,G#3,368.25,0.25,95,136.0
1905,E3,368.5,0.25,70,136.0
1906,E-3,368.75,0.25,95,136.0
1907,E2,369.0,0.5,95,136.0
1908,E4,369.0,0.5,95,136.0
1909,B3,369.0,0.5,95,136.0
1910,E3,369.0,0.5,95,136.0
1911,E4,369.0,0.5,95,136.0
1912,B3,369.0,0.5,95,136.0
1913,E3,369.0,0.5,95,136.0
1914,E-2,369.5,0.5,95,136.0
1915,E-4,369.5,0.5,95,136.0
1916,B-3,369.5,0.5,95,136.0
1917,E-3,369.5,0.5,95,136.0
1918,E-4,369.5,0.5,95,136.0
1919,B-3,369.5,0.5,95,136.0
1920,E-3,369.5,0.5,95,136.0
1921,C#3,370.0,0.25,95,136.0
1922,C#2,370.0,0.5,95,136.0
1923,C#4,370.0,0.5,95,136.0
1924,G#3,370.0,0.5,95,136.0
1925,C#3,370.0,0.5,95,136.0
1926,A3,370.0,4.0,95,136.0
1927,B1,370.0,4.0,95,136.0
1928,B2,370.25,0.25,70,136.0
1929,C#3,370.5,0.25,70,136.0
1930,G#3,370.75,0.25,95,136.0
1931,E3,371.0,0.25,70,136.0
1932,E-3,371.25,0.25,95,136.0
1933,C#3,371.5,0.25,70,136.0
1934,B2,371.75,0.25,70,136.0
1935,C#3,372.0,0.25,70,136.0
1936,G#3,372.25,0.25,95,136.0
1937,E3,372.5,0.25,70,136.0
1938,E-3,372.75,0.25,95,136.0
1939,A1,373.0,0.5,95,136.0
1940,A3,373.0,0.5,95,136.0
1941,E3,373.0,0.5,95,136.0
1942,A2,373.0,0.5,95,136.0
1943,A3,373.0,0.5,95,136.0
1944,E3,373.0,0.5,95,136.0
1945,A2,373.0,0.5,95,136.0
1946,B1,373.5,0.5,95,136.0
1947,B3,373.5,0.5,95,136.0
1948,F#3,373.5,0.5,95,136.0
1949,B2,373.5,0.5,95,136.0
1950,B3,373.5,0.5,95,136.0
1951,F#3,373.5,0.5,95,136.0
1952,B2,373.5,0.5,95,136.0
1953,A1,374.0,2.0,95,136.0
1954,A3,374.0,2.0,95,136.0
1955,E3,374.0,2.0,95,136.0
1956,A2,374.0,2.0,95,136.0
1957,A3,374.0,2.0,95,136.0
1958,E3,374.0,2.0,95,136.0
1959,A2,374.0,2.0,95,136.0
1960,C#3,374.0,1.5,95,136.0
1961,B1,374.0,1.5,95,136.0
1962,A3,375.5,2.5,95,136.0
1963,B1,375.5,2.5,95,136.0
1964,B1,376.0,2.0,95,136.0
1965,B3,376.0,2.0,95,136.0
1966,F#3,376.0,2.0,95,136.0
1967,B2,376.0,2.0,95,136.0
1968,B3,376.0,2.0,95,136.0
1969,F#3,376.0,2.0,95,136.0
1970,B2,376.0,2.0,95,136.0
1971,C#3,378.0,0.25,95,136.0
1972,C#2,378.0,0.5,95,136.0
1973,C#4,378.0,0.5,95,136.0
1974,G#3,378.0,0.5,95,136.0
1975,C#3,378.0,0.5,95,136.0
1976,B2,378.25,0.25,70,136.0
1977,C#3,378.5,0.25,70,136.0
1978,G#3,378.75,0.25,95,136.0
1979,E3,379.0,0.25,70,136.0
1980,E-3,379.25,0.25,95,136.0
1981,C#3,379.5,0.25,70,136.0
1982,A3,379.5,1.5,95,136.0
1983,B1,379.5,1.5,95,136.0
1984,B2,379.75,0.25,70,136.0
1985,C#3,380.0,0.25,70,136.0
1986,G#3,380.25,0.25,95,136.0
1987,E3,380.5,0.25,70,136.0
1988,E-3,380.75,0.25,95,136.0
1989,A1,381.0,0.5,95,136.0
1990,A3,381.0,0.5,95,136.0
1991,E3,381.0,0.5,95,136.0
1992,A2,381.0,0.5,95,136.0
1993,A3,381.0,0.5,95,136.0
1994,E3,381.0,0.5,95,136.0
1995,A2,381.0,0.5,95,136.0
1996,A3,381.0,2.5,95,136.0
1997,C2,381.0,2.5,95,136.0
1998,B1,381.5,0.5,95,136.0
1999,B3,381.5,0.5,95,136.0
2000,F#3,381.5,0.5,95,136.0
2001,B2,381.5,0.5,95,136.0
2002,B3,381.5,0.5,95,136.0
2003,F#3,381.5,0.5,95,136.0
2004,B2,381.5,0.5,95,136.0
2005,C#3,382.0,0.25,95,136.0
2006,C#2,382.0,0.5,95,136.0
2007,C#4,382.0,0.5,95,136.0
2008,G#3,382.0,0.5,95,136.0
2009,C#3,382.0,0.5,95,136.0
2010,B2,382.25,0.25,70,136.0
2011,C#3,382.5,0.25,70,136.0
2012,G#3,382.75,0.25,95,136.0
2013,E3,383.0,0.25,70,136.0
2014,E-3,383.25,0.25,95,136.0
2015,C#3,383.5,0.25,70,136.0
2016,B2,383.75,0.25,70,136.0
2017,C#3,384.0,0.25,70,136.0
2018,G#3,384.25,0.25,95,136.0
2019,E3,384.5,0.25,70,136.0
2020,E-3,384.75,0.25,95,136.0
2021,E2,385.0,0.5,95,136.0
2022,E4,385.0,0.5,95,136.0
2023,B3,385.0,0.5,95,136.0
2024,E3,385.0,0.5,95,136.0
2025,E4,385.0,0.5,95,136.0
2026,B3,385.0,0.5,95,136.0
2027,E3,385.0,0.5,95,136.0
2028,E-2,385.5,0.5,95,136.0
2029,E-4,385.5,0.5,95,136.0
2030,B-3,385.5,0.5,95,136.0
2031,E-3,385.5,0.5,95,136.0
2032,E-4,385.5,0.5,95,136.0
2033,B-3,385.5,0.5,95,136.0
2034,E-3,385.5,0.5,95,136.0
2035,C#3,386.0,0.25,95,136.0
2036,C#2,386.0,0.5,95,136.0
2037,C#4,386.0,0.5,95,136.0
2038,G#3,386.0,0.5,95,136.0
2039,C#3,386.0,0.5,95,136.0
2040,B2,386.25,0.25,70,136.0
2041,C#3,386.5,0.25,70,136.0
2042,A3,386.5,3.0,95,136.0
2043,C2,386.5,3.0,95,136.0
2044,G#3,386.75,0.25,95,136.0
2045,E3,387.0,0.25,70,136.0
2046,E-3,387.25,0.25,95,136.0
2047,C#3,387.5,0.25,70,136.0
2048,B2,387.75,0.25,70,136.0
2049,C#3,388.0,0.25,70,136.0
2050,G#3,388.25,0.25,95,136.0
2051,E3,388.5,0.25,70,136.0
2052,E-3,388.75,0.25,95,136.0
2053,A1,389.0,0.5,95,136.0
2054,A3,389.0,0.5,95,136.0
2055,E3,389.0,0.5,95,136.0
2056,A2,389.0,0.5,95,136.0
2057,A3,389.0,0.5,95,136.0
2058,E3,389.0,0.5,95,136.0
2059,A2,389.0,0.5,95,136.0
2060,B1,389.5,0.5,95,136.0
2061,B3,389.5,0.5,95,136.0
2062,F#3,389.5,0.5,95,136.0
2063,B2,389.5,0.5,95,136.0
2064,B3,389.5,0.5,95,136.0
2065,F#3,389.5,0.5,95,136.0
2066,B2,389.5,0.5,95,136.0
2067,C#3,389.5,0.5,95,136.0
2068,C2,389.5,0.5,95,136.0
2069,A1,390.0,4.0,95,136.0
2070,A3,390.0,4.0,95,136.0
2071,E3,390.0,4.0,95,136.0
2072,A2,390.0,4.0,95,136.0
2073,A3,390.0,4.0,95,136.0
2074,E3,390.0,4.0,95,136.0
2075,A2,390.0,4.0,95,136.0
2076,C#3,390.0,0.5,95,136.0
2077,C2,390.0,0.5,95,136.0
2078,C#3,390.5,3.0,95,136.0
2079,C2,390.5,3.0,95,136.0
2080,C#3,393.5,0.5,95,136.0
2081,C2,393.5,0.5,95,136.0
2082,B1,394.0,4.0,95,136.0
2083,B3,394.0,4.0,95,136.0
2084,F#3,394.0,4.0,95,136.0
2085,B2,394.0,4.0,95,136.0
2086,B3,394.0,3.0,95,136.0
2087,F#3,394.0,3.0,95,136.0
2088,B2,394.0,3.0,95,136.0
2089,C#3,394.0,0.5,95,136.0
2090,C2,394.0,0.5,95,136.0
2091,C#3,394.5,3.0,95,136.0
2092,C2,394.5,3.0,95,136.0
2093,F#2,397.0,1.0,95,136.0
2094,C#3,397.5,0.5,95,136.0
2095,C2,397.5,0.5,95,136.0
2096,E4,398.0,0.5,95,136.0
2097,E2,398.0,4.0,95,136.0
2098,E4,398.0,4.0,95,136.0
2099,B3,398.0,4.0,95,136.0
2100,E3,398.0,4.0,95,136.0
2101,C#3,398.0,0.5,95,136.0
2102,C2,398.0,0.5,95,136.0
2103,B4,398.5,0.5,95,136.0
2104,C#3,398.5,2.0,95,136.0
2105,C2,398.5,2.0,95,136.0
2106,C#5,399.0,0.5,95,136.0
2107,E4,399.5,0.5,95,136.0
2108,B4,400.0,0.5,95,136.0
2109,E4,400.5,0.5,95,136.0
2110,C#3,400.5,2.0,95,136.0
2111,C2,400.5,2.0,95,136.0
2112,G#4,401.0,0.5,95,136.0
2113,E4,401.5,0.5,95,136.0
2114,F#4,402.0,0.5,95,136.0
2115,E2,402.0,4.0,95,136.0
2116,E4,402.0,4.0,95,136.0
2117,B3,402.0,4.0,95,136.0
2118,E3,402.0,4.0,95,136.0
2119,G#4,402.5,0.5,70,136.0
2120,C#3,402.5,3.0,95,136.0
2121,C2,402.5,3.0,95,136.0
2122,E4,403.5,2.0,95,136.0
2123,A4,405.5,0.5,95,136.0
2124,E4,405.5,0.5,95,136.0
2125,C#3,405.5,0.5,95,136.0
2126,C2,405.5,0.5,95,136.0
2127,B1,406.0,4.0,95,136.0
2128,B3,406.0,4.0,95,136.0
2129,F#3,406.0,4.0,95,136.0
2130,B2,406.0,4.0,95,136.0
2131,B4,406.0,0.5,95,136.0
2132,F#4,406.0,0.5,95,136.0
2133,C#3,406.0,0.5,95,136.0
2134,C2,406.0,0.5,95,136.0
2135,B4,406.5,0.5,95,136.0
2136,F#4,406.5,0.5,95,136.0
2137,C#3,406.5,3.0,95,136.0
2138,C2,406.5,3.0,95,136.0
2139,B4,407.0,0.5,95,136.0
2140,F#4,407.0,0.5,95,136.0
2141,B4,407.5,0.5,95,136.0
2142,F#4,407.5,0.5,95,136.0
2143,B4,408.0,0.5,95,136.0
2144,G#4,408.0,0.5,95,136.0
2145,B4,408.5,0.5,95,136.0
2146,F#4,408.5,0.5,95,136.0
2147,A4,409.0,0.25,95,136.0
2148,E4,409.0,0.5,95,136.0
2149,E-5,409.5,0.5,95,136.0
2150,C#3,409.5,0.5,95,136.0
2151,C2,409.5,0.5,95,136.0
2152,E-5,410.0,0.5,95,136.0
2153,B1,410.0,4.0,95,136.0
2154,B3,410.0,4.0,95,136.0
2155,F#3,410.0,4.0,95,136.0
2156,B2,410.0,4.0,95,136.0
2157,C#3,410.0,0.5,95,136.0
2158,C2,410.0,0.5,95,136.0
2159,C#5,410.5,1.0,95,136.0
2160,C#3,410.5,3.0,95,136.0
2161,C2,410.5,3.0,95,136.0
2162,B4,411.5,1.5,95,136.0
2163,B4,413.0,1.0,95,136.0
2164,C#3,413.5,0.5,95,136.0
2165,C2,413.5,0.5,95,136.0
2166,B4,414.0,0.5,95,136.0
2167,A1,414.0,4.0,95,136.0
2168,A3,414.0,4.0,95,136.0
2169,E3,414.0,4.0,95,136.0
2170,A2,414.0,4.0,95,136.0
2171,C#3,414.0,0.5,95,136.0
2172,C2,414.0,0.5,95,136.0
2173,A4,414.5,0.5,95,136.0
2174,C#3,414.5,4.0,95,136.0
2175,C2,414.5,4.0,95,136.0
2176,G#4,415.0,0.5,95,136.0
2177,G#4,415.5,2.0,95,136.0
2178,E-5,417.5,0.5,95,136.0
2179,C#5,417.5,0.5,95,136.0
2180,E-5,418.0,0.5,95,136.0
2181,C#2,418.0,2.0,95,136.0
2182,C#4,418.0,2.0,95,136.0
2183,G#3,418.0,2.0,95,136.0
2184,C#3,418.0,2.0,95,136.0
2185,E-5,418.5,1.0,95,136.0
2186,C#5,418.5,1.0,95,136.0
2187,C#3,418.5,4.0,95,136.0
2188,C2,418.5,4.0,95,136.0
2189,E5,419.5,1.0,95,136.0
2190,D5,419.5,1.0,95,136.0
2191,B1,420.0,2.0,95,136.0
2192,B3,420.0,2.0,95,136.0
2193,F#3,420.0,2.0,95,136.0
2194,B2,420.0,2.0,95,136.0
2195,F#5,420.5,0.5,95,136.0
2196,E5,421.0,0.5,95,136.0
2197,E-5,421.5,0.5,95,136.0
2198,C#5,421.5,0.5,95,136.0
2199,A1,422.0,4.0,95,136.0
2200,A3,422.0,4.0,95,136.0
2201,E3,422.0,4.0,95,136.0
2202,A2,422.0,4.0,95,136.0
2203,E-5,422.0,0.5,95,136.0
2204,C#5,422.0,0.5,95,136.0
2205,E5,422.5,0.5,95,136.0
2206,C#3,422.5,0.5,95,136.0
2207,B1,422.5,0.5,95,136.0
2208,C#5,423.0,2.5,95,136.0
2209,F#2,423.0,0.5,95,136.0
2210,F#2,423.5,0.5,84,136.0
2211,G1,423.5,0.5,84,136.0
2212,D2,423.5,0.5,84,136.0
2213,F#2,424.0,0.5,95,136.0
2214,F#2,424.5,0.5,95,136.0
2215,B1,424.5,0.5,95,136.0
2216,F#2,425.0,0.5,95,136.0
2217,B1,425.0,0.5,95,136.0
2218,B3,425.5,0.25,95,136.0
2219,F#2,425.5,0.5,84,136.0
2220,G1,425.5,0.5,84,136.0
2221,D2,425.5,0.5,84,136.0
2222,C#4,425.75,0.25,95,136.0
2223,C#4,426.0,0.25,95,136.0
2224,C#2,426.0,2.0,95,136.0
2225,F#2,426.0,0.5,95,136.0
2226,C#4,426.0,2.0,95,136.0
2227,G#3,426.0,2.0,95,136.0
2228,C#3,426.0,2.0,95,136.0
2229,E4,426.25,0.25,95,136.0
2230,E-4,426.5,0.5,95,136.0
2231,F#2,426.5,0.5,95,136.0
2232,B1,426.5,0.5,95,136.0
2233,A4,427.0,0.5,95,136.0
2234,F#2,427.0,0.5,95,136.0
2235,G#4,427.5,0.5,95,136.0
2236,F#2,427.5,0.5,84,136.0
2237,G1,427.5,0.5,84,136.0
2238,D2,427.5,0.5,84,136.0
2239,F#4,428.0,0.5,95,136.0
2240,B1,428.0,2.0,95,136.0
2241,F#2,428.0,0.5,95,136.0
2242,B3,428.0,2.0,95,136.0
2243,F#3,428.0,2.0,95,136.0
2244,B2,428.0,2.0,95,136.0
2245,B4,428.5,0.5,95,136.0
2246,F#2,428.5,0.5,95,136.0
2247,B1,428.5,0.5,95,136.0
2248,A4,429.0,0.5,95,136.0
2249,F#2,429.0,0.5,95,136.0
2250,B1,429.0,0.5,95,136.0
2251,G#4,429.5,0.5,95,136.0
2252,F#2,429.5,0.5,84,136.0
2253,G1,429.5,0.5,84,136.0
2254,D2,429.5,0.5,84,136.0
2255,G#4,430.0,1.0,95,136.0
2256,A1,430.0,4.0,95,136.0
2257,F#2,430.0,0.5,95,136.0
2258,A3,430.0,4.0,95,136.0
2259,E3,430.0,4.0,95,136.0
2260,A2,430.0,4.0,95,136.0
2261,F#2,430.5,0.5,95,136.0
2262,B1,430.5,0.5,95,136.0
2263,A4,431.0,0.5,95,136.0
2264,F#2,431.0,0.5,95,136.0
2265,E4,431.5,2.0,95,136.0
2266,F#2,431.5,0.5,84,136.0
2267,G1,431.5,0.5,84,136.0
2268,D2,431.5,0.5,84,136.0
2269,F#2,432.0,0.5,95,136.0
2270,F#2,432.5,0.5,95,136.0
2271,B1,432.5,0.5,95,136.0
2272,F#2,433.0,0.5,95,136.0
2273,B1,433.0,0.5,95,136.0
2274,B3,433.5,0.25,95,136.0
2275,F#2,433.5,0.5,84,136.0
2276,G1,433.5,0.5,84,136.0
2277,D2,433.5,0.5,84,136.0
2278,C#4,433.75,0.25,95,136.0
2279,C#4,434.0,0.25,95,136.0
2280,A1,434.0,0.5,95,136.0
2281,F#2,434.0,0.5,95,136.0
2282,A3,434.0,0.5,95,136.0
2283,E3,434.0,0.5,95,136.0
2284,A2,434.0,0.5,95,136.0
2285,E4,434.25,0.25,95,136.0
2286,E-4,434.5,0.5,95,136.0
2287,A1,434.5,0.5,95,136.0
2288,A3,434.5,0.5,95,136.0
2289,E3,434.5,0.5,95,136.0
2290,A2,434.5,0.5,95,136.0
2291,F#2,434.5,0.5,95,136.0
2292,B1,434.5,0.5,95,136.0
2293,G#3,435.0,0.5,95,136.0
2294,A1,435.0,0.5,95,136.0
2295,F#2,435.0,0.5,95,136.0
2296,A3,435.0,0.5,95,136.0
2297,E3,435.0,0.5,95,136.0
2298,A2,435.0,0.5,95,136.0
2299,F#3,435.5,0.5,95,136.0
2300,A1,435.5,0.5,95,136.0
2301,A3,435.5,0.5,95,136.0
2302,E3,435.5,0.5,95,136.0
2303,A2,435.5,0.5,95,136.0
2304,F#2,435.5,0.5,84,136.0
2305,G1,435.5,0.5,84,136.0
2306,D2,435.5,0.5,84,136.0
2307,E3,436.0,2.0,95,136.0
2308,A1,436.0,0.5,95,136.0
2309,F#2,436.0,0.5,95,136.0
2310,A3,436.0,0.5,95,136.0
2311,E3,436.0,0.5,95,136.0
2312,A2,436.0,0.5,95,136.0
2313,A1,436.5,0.5,95,136.0
2314,A3,436.5,0.5,95,136.0
2315,E3,436.5,0.5,95,136.0
2316,A2,436.5,0.5,95,136.0
2317,F#2,436.5,0.5,95,136.0
2318,B1,436.5,0.5,95,136.0
2319,A1,437.0,0.5,95,136.0
2320,A3,437.0,0.5,95,136.0
2321,E3,437.0,0.5,95,136.0
2322,A2,437.0,0.5,95,136.0
2323,F#2,437.0,0.5,95,136.0
2324,B1,437.0,0.5,95,136.0
2325,A1,437.5,0.5,95,136.0
2326,A3,437.5,0.5,95,136.0
2327,E3,437.5,0.5,95,136.0
2328,A2,437.5,0.5,95,136.0
2329,F#2,437.5,0.5,84,136.0
2330,G1,437.5,0.5,84,136.0
2331,D2,437.5,0.5,84,136.0
2332,C#3,438.0,167/1000,95,136.0
2333,C#2,438.0,0.5,95,136.0
2334,F#2,438.0,0.5,95,136.0
2335,C#4,438.0,0.5,95,136.0
2336,G#3,438.0,0.5,95,136.0
2337,C#3,438.0,0.5,95,136.0
2338,B2,438.167,167/1000,95,136.0
2339,A2,438.333,167/1000,95,136.0
2340,G#2,438.5,167/1000,95,136.0
2341,F#2,438.5,0.5,95,136.0
2342,B1,438.5,0.5,95,136.0
2343,A2,438.667,167/1000,95,136.0
2344,B2,438.833,167/1000,95,136.0
2345,E-3,439.0,167/1000,95,136.0
2346,F#2,439.0,0.5,95,136.0
2347,C#3,439.167,167/1000,95,136.0
2348,B2,439.333,167/1000,95,136.0
2349,A2,439.5,167/1000,95,136.0
2350,F#2,439.5,0.5,84,136.0
2351,G1,439.5,0.5,84,136.0
2352,D2,439.5,0.5,84,136.0
2353,B2,439.667,167/1000,95,136.0
2354,C#3,439.833,167/1000,95,136.0
2355,E3,440.0,167/1000,95,136.0
2356,F#2,440.0,0.5,95,136.0
2357,E-3,440.167,167/1000,95,136.0
2358,C#3,440.333,167/1000,95,136.0
2359,B2,440.5,167/1000,95,136.0
2360,F#2,440.5,0.5,95,136.0
2361,B1,440.5,0.5,95,136.0
2362,C#3,440.667,167/1000,95,136.0
2363,E-3,440.833,167/1000,95,136.0
2364,F#3,441.0,167/1000,95,136.0
2365,F#2,441.0,0.5,95,136.0
2366,B1,441.0,0.5,95,136.0
2367,E3,441.167,167/1000,95,136.0
2368,E-3,441.333,167/1000,95,136.0
2369,C#3,441.5,167/1000,95,136.0
2370,G#1,441.5,0.5,95,136.0
2371,G#3,441.5,0.5,95,136.0
2372,E-3,441.5,0.5,95,136.0
2373,G#2,441.5,0.5,95,136.0
2374,F#2,441.5,0.5,84,136.0
2375,G1,441.5,0.5,84,136.0
2376,D2,441.5,0.5,84,136.0
2377,E-3,441.667,167/1000,95,136.0
2378,E3,441.833,167/1000,95,136.0
2379,E-3,442.0,167/1000,95,136.0
2380,B1,442.0,0.5,95,136.0
2381,F#2,442.0,0.5,95,136.0
2382,B3,442.0,0.5,95,136.0
2383,F#3,442.0,0.5,95,136.0
2384,B2,442.0,0.5,95,136.0
2385,E3,442.167,167/1000,95,136.0
2386,F#3,442.333,167/1000,95,136.0
2387,E-3,442.5,167/1000,95,136.0
2388,F#2,442.5,0.5,95,136.0
2389,B1,442.5,0.5,95,136.0
2390,E3,442.667,167/1000,95,136.0
2391,F#3,442.833,167/1000,95,136.0
2392,G#3,443.0,167/1000,95,136.0
2393,F#2,443.0,0.5,95,136.0
2394,F#3,443.167,167/1000,95,136.0
2395,E3,443.333,167/1000,95,136.0
2396,E-3,443.5,167/1000,95,136.0
2397,F#2,443.5,0.5,84,136.0
2398,G1,443.5,0.5,84,136.0
2399,D2,443.5,0.5,84,136.0
2400,E3,443.667,167/1000,95,136.0
2401,F#3,443.833,167/1000,95,136.0
2402,G#3,444.0,167/1000,95,136.0
2403,F#2,444.0,0.5,95,136.0
2404,A3,444.167,167/1000,95,136.0
2405,B3,444.333,167/1000,95,136.0
2406,G#3,444.5,167/1000,95,136.0
2407,F#2,444.5,0.5,95,136.0
2408,B1,444.5,0.5,95,136.0
2409,A3,444.667,167/1000,95,136.0
2410,B3,444.833,167/1000,95,136.0
2411,C#4,445.0,167/1000,95,136.0
2412,F#2,445.0,0.5,95,136.0
2413,B1,445.0,0.5,95,136.0
2414,B3,445.167,167/1000,95,136.0
2415,A3,445.333,167/1000,95,136.0
2416,G#3,445.5,167/1000,95,136.0
2417,G#1,445.5,0.5,95,136.0
2418,G#3,445.5,0.5,95,136.0
2419,E-3,445.5,0.5,95,136.0
2420,G#2,445.5,0.5,95,136.0
2421,F#2,445.5,0.5,84,136.0
2422,G1,445.5,0.5,84,136.0
2423,D2,445.5,0.5,84,136.0
2424,A3,445.667,167/1000,95,136.0
2425,B3,445.833,167/1000,95,136.0
2426,E-4,446.0,167/1000,95,136.0
2427,A1,446.0,0.5,95,136.0
2428,F#2,446.0,0.5,95,136.0
2429,A3,446.0,0.5,95,136.0
2430,E3,446.0,0.5,95,136.0
2431,A2,446.0,0.5,95,136.0
2432,E4,446.167,167/1000,95,136.0
2433,F#4,446.333,167/1000,95,136.0
2434,E-4,446.5,167/1000,95,136.0
2435,F#2,446.5,0.5,95,136.0
2436,B1,446.5,0.5,95,136.0
2437,E4,446.667,167/1000,95,136.0
2438,F#4,446.833,167/1000,95,136.0
2439,G#4,447.0,167/1000,95,136.0
2440,F#2,447.0,0.5,95,136.0
2441,F#4,447.167,167/1000,95,136.0
2442,E4,447.333,167/1000,95,136.0
2443,E-4,447.5,167/1000,95,136.0
2444,F#2,447.5,0.5,84,136.0
2445,G1,447.5,0.5,84,136.0
2446,D2,447.5,0.5,84,136.0
2447,E4,447.667,167/1000,95,136.0
2448,F#4,447.833,167/1000,95,136.0
2449,G#4,448.0,167/1000,95,136.0
2450,F#2,448.0,0.5,95,136.0
2451,A4,448.167,167/1000,95,136.0
2452,G#4,448.333,167/1000,95,136.0
2453,G#4,448.5,167/1000,95,136.0
2454,F#2,448.5,0.5,95,136.0
2455,B1,448.5,0.5,95,136.0
2456,A4,448.667,167/1000,95,136.0
2457,B4,448.833,167/1000,95,136.0
2458,E-5,449.0,167/1000,95,136.0
2459,F#2,449.0,0.5,95,136.0
2460,B1,449.0,0.5,95,136.0
2461,E5,449.167,167/1000,95,136.0
2462,E-5,449.333,167/1000,95,136.0
2463,E-5,449.5,167/1000,95,136.0
2464,F#2,449.5,0.5,84,136.0
2465,G1,449.5,0.5,84,136.0
2466,D2,449.5,0.5,84,136.0
2467,E5,449.667,167/1000,95,136.0
2468,F#5,449.833,167/1000,95,136.0
2469,E5,450.0,167/1000,95,136.0
2470,A1,450.0,1.5,95,136.0
2471,F#2,450.0,0.5,95,136.0
2472,A3,450.0,1.5,95,136.0
2473,E3,450.0,1.5,95,136.0
2474,A2,450.0,1.5,95,136.0
2475,E5,450.167,167/1000,95,136.0
2476,F#5,450.333,167/1000,95,136.0
2477,F#5,450.5,167/1000,95,136.0
2478,F#2,450.5,0.5,95,136.0
2479,B1,450.5,0.5,95,136.0
2480,G#5,450.667,167/1000,95,136.0
2481,F#5,450.833,167/1000,95,136.0
2482,E5,451.0,167/1000,95,136.0
2483,F#2,451.0,0.5,95,136.0
2484,F#5,451.167,167/1000,95,136.0
2485,E5,451.333,167/1000,95,136.0
2486,E-5,451.5,167/1000,95,136.0
2487,G#1,451.5,1.0,95,136.0
2488,G#3,451.5,1.0,95,136.0
2489,E-3,451.5,1.0,95,136.0
2490,G#2,451.5,1.0,95,136.0
2491,F#2,451.5,0.5,84,136.0
2492,G1,451.5,0.5,84,136.0
2493,D2,451.5,0.5,84,136.0
2494,E5,451.667,167/1000,95,136.0
2495,E-5,451.833,167/1000,95,136.0
2496,C#5,452.0,167/1000,95,136.0
2497,F#2,452.0,0.5,95,136.0
2498,E-5,452.167,167/1000,95,136.0
2499,C#5,452.333,167/1000,95,136.0
2500,B4,452.5,167/1000,95,136.0
2501,A1,452.5,1.0,95,136.0
2502,A3,452.5,1.0,95,136.0
2503,E3,452.5,1.0,95,136.0
2504,A2,452.5,1.0,95,136.0
2505,F#2,452.5,0.5,95,136.0
2506,B1,452.5,0.5,95,136.0
2507,A4,452.667,167/1000,95,136.0
2508,G4,452.833,167/1000,95,136.0
2509,B4,453.0,1.0,95,136.0
2510,F#2,453.0,0.5,95,136.0
2511,B1,453.0,0.5,95,136.0
2512,G#1,453.5,0.5,95,136.0
2513,G#3,453.5,0.5,95,136.0
2514,E-3,453.5,0.5,95,136.0
2515,G#2,453.5,0.5,95,136.0
2516,F#2,453.5,0.5,84,136.0
2517,G1,453.5,0.5,84,136.0
2518,D2,453.5,0.5,84,136.0
2519,C#5,454.0,167/1000,95,136.0
2520,C#2,454.0,0.5,95,136.0
2521,F#2,454.0,0.5,95,136.0
2522,C#4,454.0,0.5,95,136.0
2523,G#3,454.0,0.5,95,136.0
2524,C#3,454.0,0.5,95,136.0
2525,E-5,454.167,167/1000,95,136.0
2526,E5,454.333,167/1000,95,136.0
2527,C#5,454.5,167/1000,95,136.0
2528,F#2,454.5,0.5,95,136.0
2529,B1,454.5,0.5,95,136.0
2530,E-5,454.667,167/1000,95,136.0
2531,E5,454.833,167/1000,95,136.0
2532,F#5,455.0,167/1000,95,136.0
2533,F#2,455.0,0.5,95,136.0
2534,G#5,455.167,167/1000,95,136.0
2535,A5,455.333,167/1000,95,136.0
2536,F#5,455.5,167/1000,95,136.0
2537,F#2,455.5,0.5,84,136.0
2538,G1,455.5,0.5,84,136.0
2539,D2,455.5,0.5,84,136.0
2540,G#5,455.667,167/1000,95,136.0
2541,A5,455.833,167/1000,95,136.0
2542,E-5,456.0,167/1000,95,136.0
2543,F#2,456.0,0.5,95,136.0
2544,E5,456.167,167/1000,95,136.0
2545,F#5,456.333,167/1000,95,136.0
2546,E-5,456.5,167/1000,95,136.0
2547,F#2,456.5,0.5,95,136.0
2548,B1,456.5,0.5,95,136.0
2549,E5,456.667,167/1000,95,136.0
2550,F#5,456.833,167/1000,95,136.0
2551,G#5,457.0,167/1000,95,136.0
2552,F#2,457.0,0.5,95,136.0
2553,B1,457.0,0.5,95,136.0
2554,A5,457.167,167/1000,95,136.0
2555,B5,457.333,167/1000,95,136.0
2556,G#5,457.5,167/1000,95,136.0
2557,G#1,457.5,0.5,95,136.0
2558,G#3,457.5,0.5,95,136.0
2559,E-3,457.5,0.5,95,136.0
2560,G#2,457.5,0.5,95,136.0
2561,F#2,457.5,0.5,84,136.0
2562,G1,457.5,0.5,84,136.0
2563,D2,457.5,0.5,84,136.0
2564,A5,457.667,167/1000,95,136.0
2565,B5,457.833,167/1000,95,136.0
2566,E5,458.0,167/1000,95,136.0
2567,B1,458.0,0.5,95,136.0
2568,F#2,458.0,0.5,95,136.0
2569,B3,458.0,0.5,95,136.0
2570,F#3,458.0,0.5,95,136.0
2571,B2,458.0,0.5,95,136.0
2572,F#5,458.167,167/1000,95,136.0
2573,G#5,458.333,167/1000,95,136.0
2574,E5,458.5,167/1000,95,136.0
2575,F#2,458.5,0.5,95,136.0
2576,B1,458.5,0.5,95,136.0
2577,F#5,458.667,167/1000,95,136.0
2578,G#5,458.833,167/1000,95,136.0
2579,A5,459.0,167/1000,95,136.0
2580,F#2,459.0,0.5,95,136.0
2581,B5,459.167,167/1000,95,136.0
2582,C#6,459.333,167/1000,95,136.0
2583,A5,459.5,167/1000,95,136.0
2584,F#2,459.5,0.5,84,136.0
2585,G1,459.5,0.5,84,136.0
2586,D2,459.5,0.5,84,136.0
2587,B5,459.667,167/1000,95,136.0
2588,C#6,459.833,167/1000,95,136.0
2589,F#5,460.0,167/1000,95,136.0
2590,F#2,460.0,0.5,95,136.0
2591,G#5,460.167,167/1000,95,136.0
2592,A5,460.333,167/1000,95,136.0
2593,F#5,460.5,167/1000,95,136.0
2594,F#2,460.5,0.5,95,136.0
2595,B1,460.5,0.5,95,136.0
2596,G#5,460.667,167/1000,95,136.0
2597,A5,460.833,167/1000,95,136.0
2598,B5,461.0,167/1000,95,136.0
2599,F#2,461.0,0.5,95,136.0
2600,B1,461.0,0.5,95,136.0
2601,C#6,461.167,167/1000,95,136.0
2602,E-6,461.333,167/1000,95,136.0
2603,B5,461.5,167/1000,95,136.0
2604,G#1,461.5,0.5,95,136.0
2605,G#3,461.5,0.5,95,136.0
2606,E-3,461.5,0.5,95,136.0
2607,G#2,461.5,0.5,95,136.0
2608,F#2,461.5,0.5,84,136.0
2609,G1,461.5,0.5,84,136.0
2610,D2,461.5,0.5,84,136.0
2611,C#6,461.667,167/1000,95,136.0
2612,E-6,461.833,167/1000,95,136.0
2613,G#5,462.0,167/1000,95,136.0
2614,A1,462.0,0.5,95,136.0
2615,F#2,462.0,0.5,95,136.0
2616,A3,462.0,0.5,95,136.0
2617,E3,462.0,0.5,95,136.0
2618,A2,462.0,0.5,95,136.0
2619,A5,462.167,167/1000,95,136.0
2620,B5,462.333,167/1000,95,136.0
2621,G#5,462.5,167/1000,95,136.0
2622,C#3,462.5,3.5,95,136.0
2623,B1,462.5,3.5,95,136.0
2624,A5,462.667,167/1000,95,136.0
2625,B5,462.833,167/1000,95,136.0
2626,C#6,463.0,167/1000,95,136.0
2627,E-6,463.167,167/1000,95,136.0
2628,E6,463.333,167/1000,95,136.0
2629,C#6,463.5,167/1000,95,136.0
2630,E-6,463.667,167/1000,95,136.0
2631,E6,463.833,167/1000,95,136.0
2632,C#6,464.0,167/1000,95,136.0
2633,E-6,464.167,167/1000,95,136.0
2634,E6,464.333,167/1000,95,136.0
2635,E6,464.5,1.5,95,136.0
2636,E6,466.0,1.0,95,136.0
2637,A1,466.0,1.5,95,136.0
2638,A3,466.0,1.5,95,136.0
2639,E3,466.0,1.5,95,136.0
2640,A2,466.0,1.5,95,136.0
2641,C#3,466.0,0.5,95,136.0
2642,B1,466.0,0.5,95,136.0
2643,C#3,466.5,3.5,95,136.0
2644,B1,466.5,3.5,95,136.0
2645,E6,467.0,1.0,95,136.0
2646,B5,467.0,667/1000,95,136.0
2647,G#1,467.5,1.0,95,136.0
2648,G#3,467.5,1.0,95,136.0
2649,E-3,467.5,1.0,95,136.0
2650,G#2,467.5,1.0,95,136.0
2651,E6,468.0,333/1000,95,136.0
2652,B5,468.0,333/1000,95,136.0
2653,E6,468.333,333/1000,95,136.0
2654,B5,468.333,333/1000,95,136.0
2655,A1,468.5,1.0,95,136.0
2656,A3,468.5,1.0,95,136.0
2657,E3,468.5,1.0,95,136.0
2658,A2,468.5,1.0,95,136.0
2659,E6,468.667,333/1000,95,136.0
2660,B5,468.667,333/1000,95,136.0
2661,E6,469.0,1.0,95,136.0
2662,B5,469.0,333/1000,95,136.0
2663,G#1,469.5,0.5,95,136.0
2664,G#3,469.5,0.5,95,136.0
2665,E-3,469.5,0.5,95,136.0
2666,G#2,469.5,0.5,95,136.0
2667,F#5,470.0,0.625,95,136.0
2668,C#2,470.0,4.0,95,136.0
2669,C#4,470.0,4.0,95,136.0
2670,G#3,470.0,4.0,95,136.0
2671,C#3,470.0,4.0,95,136.0
2672,C#3,470.0,0.5,95,136.0
2673,B1,470.0,0.5,95,136.0
2674,C#3,470.5,4.0,95,136.0
2675,B1,470.5,4.0,95,136.0
2676,B5,470.625,0.5,95,136.0
2677,F#5,471.125,0.5,95,136.0
2678,F#5,471.625,1.0,95,136.0
2679,F#5,472.625,1.375,95,136.0
2680,G#5,474.0,333/1000,95,136.0
2681,C2,474.0,4.0,95,136.0
2682,C4,474.0,4.0,95,136.0
2683,G3,474.0,4.0,95,136.0
2684,C3,474.0,4.0,95,136.0
2685,F#5,474.333,333/1000,95,136.0
2686,C#3,474.5,1.5,95,136.0
2687,B1,474.5,1.5,95,136.0
2688,E5,474.667,333/1000,95,136.0
2689,E-5,475.0,333/1000,95,136.0
2690,E5,475.333,333/1000,95,136.0
2691,E-5,475.667,667/1000,95,136.0
2692,C#3,476.0,1.0,95,136.0
2693,B1,476.0,1.0,95,136.0
2694,E-5,476.333,667/1000,95,136.0
2695,C#5,477.0,0.25,95,136.0
2696,C#3,477.0,1.0,95,136.0
2697,B1,477.0,1.0,95,136.0
2698,E-5,477.25,0.25,70,136.0
2699,C#5,477.5,0.25,95,136.0
2700,E-5,477.75,0.25,70,136.0
2701,C#5,478.0,0.25,95,136.0
2702,B1,478.0,4.0,95,136.0
2703,B3,478.0,4.0,95,136.0
2704,F#3,478.0,4.0,95,136.0
2705,B2,478.0,4.0,95,136.0
2706,C#3,478.0,0.5,95,136.0
2707,B1,478.0,0.5,95,136.0
2708,C#5,478.25,0.75,95,136.0
2709,C#3,478.5,3.5,95,136.0
2710,B1,478.5,3.5,95,136.0
2711,C#5,479.0,0.25,95,136.0
2712,E-5,479.25,0.25,70,136.0
2713,C#5,479.5,0.25,70,136.0
2714,B4,479.75,0.25,95,136.0
2715,C#5,480.0,0.25,70,136.0
2716,B4,480.25,0.25,70,136.0
2717,G#4,480.5,0.25,95,136.0
2718,B4,480.75,0.25,95,136.0
2719,G#4,481.0,0.25,95,136.0
2720,F#4,481.25,0.25,95,136.0
2721,G#4,481.5,0.25,70,136.0
2722,F#4,481.75,0.25,70,136.0
2723,B4,482.0,0.5,95,136.0
2724,B-1,482.0,4.0,95,136.0
2725,B-3,482.0,4.0,95,136.0
2726,F3,482.0,4.0,95,136.0
2727,B-2,482.0,4.0,95,136.0
2728,C#3,482.0,0.5,95,136.0
2729,B1,482.0,0.5,95,136.0
2730,B4,482.5,3.5,95,136.0
2731,C#3,482.5,3.5,95,136.0
2732,B1,482.5,3.5,95,136.0
2733,E4,486.0,0.5,95,136.0
2734,A1,486.0,4.0,95,136.0
2735,A3,486.0,4.0,95,136.0
2736,E3,486.0,4.0,95,136.0
2737,A2,486.0,4.0,95,136.0
2738,C#3,486.0,0.5,95,136.0
2739,B1,486.0,0.5,95,136.0
2740,C#4,486.5,0.25,95,136.0
2741,C#3,486.5,4.0,95,136.0
2742,B1,486.5,4.0,95,136.0
2743,E4,486.75,0.25,95,136.0
2744,F#4,487.0,0.5,95,136.0
2745,E4,487.5,0.25,95,136.0
2746,F#4,487.75,0.25,95,136.0
2747,G#4,488.0,0.5,95,136.0
2748,F#4,488.5,0.25,95,136.0
2749,G#4,488.75,0.25,70,136.0
2750,B4,489.0,0.5,95,136.0
2751,F#4,489.5,0.5,95,136.0
2752,B4,490.0,0.5,95,136.0
2753,A1,490.0,4.0,95,136.0
2754,A3,490.0,4.0,95,136.0
2755,E3,490.0,4.0,95,136.0
2756,A2,490.0,4.0,95,136.0
2757,E-5,490.5,1.5,95,136.0
2758,C#3,490.5,1.5,95,136.0
2759,B1,490.5,1.5,95,136.0
2760,E-5,492.0,0.5,95,136.0
2761,C#3,492.0,1.0,95,136.0
2762,B1,492.0,1.0,95,136.0
2763,E-5,492.5,0.75,95,136.0
2764,C#3,493.0,1.0,95,136.0
2765,B1,493.0,1.0,95,136.0
2766,E-5,493.25,0.25,95,136.0
2767,E-5,493.5,0.5,95,136.0
2768,G#4,494.0,4.0,95,136.0
2769,C#2,494.0,4.0,95,136.0
2770,C#4,494.0,4.0,95,136.0
2771,G#3,494.0,4.0,95,136.0
2772,C#3,494.0,4.0,95,136.0
2773,C#3,494.0,0.5,95,136.0
2774,B1,494.0,0.5,95,136.0
2775,C#3,494.5,1.0,95,136.0
2776,B1,494.5,1.0,95,136.0
2777,E-3,495.5,1.0,95,136.0
2778,D2,495.5,1.0,95,136.0
2779,E-3,496.5,1.0,95,136.0
2780,B1,496.5,1.0,95,136.0
2781,E-3,497.5,1.0,95,136.0
2782,D2,497.5,1.0,95,136.0
2783,E2,498.0,0.5,95,136.0
2784,E4,498.0,0.5,95,136.0
2785,B3,498.0,0.5,95,136.0
2786,E3,498.0,0.5,95,136.0
2787,B4,498.0,1.0,95,136.0
2788,G#4,498.0,1.0,95,136.0
2789,E2,498.5,0.5,95,136.0
2790,E4,498.5,0.5,95,136.0
2791,B3,498.5,0.5,95,136.0
2792,E3,498.5,0.5,95,136.0
2793,E-3,498.5,1.0,95,136.0
2794,B1,498.5,1.0,95,136.0
2795,B4,499.0,1.0,95,136.0
2796,G#4,499.0,1.0,95,136.0
2797,E-3,499.5,1.0,95,136.0
2798,D2,499.5,1.0,95,136.0
2799,B1,500.0,0.5,95,136.0
2800,B3,500.0,0.5,95,136.0
2801,F#3,500.0,0.5,95,136.0
2802,B2,500.0,0.5,95,136.0
2803,B4,500.0,1.0,95,136.0
2804,G#4,500.0,1.0,95,136.0
2805,B1,500.5,0.5,95,136.0
2806,B3,500.5,0.5,95,136.0
2807,F#3,500.5,0.5,95,136.0
2808,B2,500.5,0.5,95,136.0
2809,E-3,500.5,1.0,95,136.0
2810,B1,500.5,1.0,95,136.0
2811,B4,501.0,1.0,95,136.0
2812,G#4,501.0,1.0,95,136.0
2813,E-3,501.5,1.0,95,136.0
2814,D2,501.5,1.0,95,136.0
2815,C#2,502.0,4.0,95,136.0
2816,C#4,502.0,4.0,95,136.0
2817,G#3,502.0,4.0,95,136.0
2818,C#3,502.0,4.0,95,136.0
2819,E-3,502.5,1.0,95,136.0
2820,B1,502.5,1.0,95,136.0
2821,B4,503.0,1.0,95,136.0
2822,G#4,503.0,1.0,95,136.0
2823,E-3,503.5,1.0,95,136.0
2824,D2,503.5,1.0,95,136.0
2825,B3,504.0,71/1000,95,136.0
2826,C#5,504.0,0.25,95,136.0
2827,C#4,504.0,0.25,95,136.0
2828,B3,504.25,71/1000,95,136.0
2829,C#5,504.25,0.25,95,136.0
2830,C#4,504.25,0.25,95,136.0
2831,B3,504.5,71/1000,95,136.0
2832,C#5,504.5,0.25,95,136.0
2833,C#4,504.5,0.25,95,136.0
2834,E-3,504.5,1.0,95,136.0
2835,B1,504.5,1.0,95,136.0
2836,B3,504.75,71/1000,95,136.0
2837,E-5,504.75,0.25,95,136.0
2838,E-4,504.75,0.25,95,136.0
2839,B3,505.0,71/1000,95,136.0
2840,E-5,505.0,0.25,95,136.0
2841,E-4,505.0,0.25,95,136.0
2842,B3,505.25,71/1000,95,136.0
2843,E-5,505.25,0.25,95,136.0
2844,E-4,505.25,0.25,95,136.0
2845,B3,505.5,71/1000,95,136.0
2846,E-5,505.5,0.25,95,136.0
2847,E-4,505.5,0.25,95,136.0
2848,E-3,505.5,1.0,95,136.0
2849,D2,505.5,1.0,95,136.0
2850,B3,505.75,71/1000,95,136.0
2851,E5,505.75,0.25,95,136.0
2852,E4,505.75,0.25,95,136.0
2853,B3,506.0,71/1000,95,136.0
2854,C2,506.0,4.0,95,136.0
2855,C4,506.0,4.0,95,136.0
2856,G3,506.0,4.0,95,136.0
2857,C3,506.0,4.0,95,136.0
2858,E5,506.0,0.25,95,136.0
2859,E4,506.0,0.25,95,136.0
2860,B3,506.25,71/1000,95,136.0
2861,E5,506.25,0.25,95,136.0
2862,E4,506.25,0.25,95,136.0
2863,B3,506.5,71/1000,95,136.0
2864,E5,506.5,0.25,95,136.0
2865,E4,506.5,0.25,95,136.0
2866,E-3,506.5,1.0,95,136.0
2867,B1,506.5,1.0,95,136.0
2868,B3,506.75,71/1000,95,136.0
2869,F#5,506.75,0.25,95,136.0
2870,F#4,506.75,0.25,95,136.0
2871,B3,507.0,71/1000,95,136.0
2872,F#5,507.0,0.25,95,136.0
2873,F#4,507.0,0.25,95,136.0
2874,B3,507.25,71/1000,95,136.0
2875,F#5,507.25,0.25,95,136.0
2876,F#4,507.25,0.25,95,136.0
2877,B3,507.5,71/1000,95,136.0
2878,F#5,507.5,0.25,95,136.0
2879,F#4,507.5,0.25,95,136.0
2880,E-3,507.5,1.0,95,136.0
2881,D2,507.5,1.0,95,136.0
2882,B3,507.75,71/1000,95,136.0
2883,G#5,507.75,0.25,95,136.0
2884,G#4,507.75,0.25,95,136.0
2885,B3,508.0,71/1000,95,136.0
2886,G#5,508.0,0.25,95,136.0
2887,G#4,508.0,0.25,95,136.0
2888,B3,508.25,71/1000,95,136.0
2889,G#5,508.25,0.25,95,136.0
2890,G#4,508.25,0.25,95,136.0
2891,B3,508.5,71/1000,95,136.0
2892,G#5,508.5,0.25,95,136.0
2893,G#4,508.5,0.25,95,136.0
2894,E-3,508.5,1.0,95,136.0
2895,B1,508.5,1.0,95,136.0
2896,B3,508.75,71/1000,95,136.0
2897,A5,508.75,0.25,95,136.0
2898,A4,508.75,0.25,95,136.0
2899,B3,509.0,71/1000,95,136.0
2900,A5,509.0,0.25,95,136.0
2901,A4,509.0,0.25,95,136.0
2902,B3,509.25,71/1000,95,136.0
2903,A5,509.25,0.25,95,136.0
2904,A4,509.25,0.25,95,136.0
2905,B3,509.5,71/1000,95,136.0
2906,A5,509.5,0.25,95,136.0
2907,A4,509.5,0.25,95,136.0
2908,E-3,509.5,0.5,95,136.0
2909,D2,509.5,0.5,95,136.0
2910,B3,509.75,71/1000,95,136.0
2911,G#5,509.75,0.25,95,136.0
2912,G#4,509.75,0.25,95,136.0
2913,B3,510.0,71/1000,95,136.0
2914,B1,510.0,4.0,95,136.0
2915,D2,510.0,0.5,95,136.0
2916,B3,510.0,4.0,95,136.0
2917,F#3,510.0,4.0,95,136.0
2918,B2,510.0,4.0,95,136.0
2919,G#5,510.0,0.25,95,136.0
2920,G#4,510.0,0.25,95,136.0
2921,B3,510.25,71/1000,95,136.0
2922,G#5,510.25,0.25,95,136.0
2923,G#4,510.25,0.25,95,136.0
2924,B3,510.5,71/1000,95,136.0
2925,G#5,510.5,0.25,95,136.0
2926,G#4,510.5,0.25,95,136.0
2927,E-3,510.5,0.5,95,136.0
2928,B1,510.5,0.5,95,136.0
2929,B3,510.75,71/1000,95,136.0
2930,F#5,510.75,0.25,95,136.0
2931,F#4,510.75,0.25,95,136.0
2932,B3,511.0,71/1000,95,136.0
2933,E-3,511.0,0.5,95,136.0
2934,F#5,511.0,0.25,95,136.0
2935,F#4,511.0,0.25,95,136.0
2936,B3,511.25,71/1000,95,136.0
2937,F#5,511.25,0.25,95,136.0
2938,F#4,511.25,0.25,95,136.0
2939,B3,511.5,71/1000,95,136.0
2940,F#5,511.5,0.25,95,136.0
2941,F#4,511.5,0.25,95,136.0
2942,E-3,511.5,0.5,95,136.0
2943,D2,511.5,0.5,95,136.0
2944,B3,511.75,71/1000,95,136.0
2945,E5,511.75,0.25,95,136.0
2946,E4,511.75,0.25,95,136.0
2947,B3,512.0,71/1000,95,136.0
2948,E-3,512.0,0.5,95,136.0
2949,E5,512.0,0.25,95,136.0
2950,E4,512.0,0.25,95,136.0
2951,B3,512.25,71/1000,95,136.0
2952,E5,512.25,0.25,95,136.0
2953,E4,512.25,0.25,95,136.0
2954,B3,512.5,71/1000,95,136.0
2955,E5,512.5,0.25,95,136.0
2956,E4,512.5,0.25,95,136.0
2957,E-3,512.5,0.5,95,136.0
2958,B1,512.5,0.5,95,136.0
2959,B3,512.75,71/1000,95,136.0
2960,F#5,512.75,0.25,95,136.0
2961,F#4,512.75,0.25,95,136.0
2962,B3,513.0,71/1000,95,136.0
2963,E-3,513.0,0.5,95,136.0
2964,F#5,513.0,0.25,95,136.0
2965,F#4,513.0,0.25,95,136.0
2966,B3,513.25,71/1000,95,136.0
2967,F#5,513.25,0.25,95,136.0
2968,F#4,513.25,0.25,95,136.0
2969,B3,513.5,71/1000,95,136.0
2970,F#5,513.5,0.25,95,136.0
2971,F#4,513.5,0.25,95,136.0
2972,E-3,513.5,0.5,95,136.0
2973,D2,513.5,0.5,95,136.0
2974,B3,513.75,71/1000,95,136.0
2975,E5,513.75,0.25,95,136.0
2976,E4,513.75,0.25,95,136.0
2977,B3,514.0,71/1000,95,136.0
2978,B-1,514.0,4.0,95,136.0
2979,E-3,514.0,0.5,95,136.0
2980,B-3,514.0,4.0,95,136.0
2981,F3,514.0,4.0,95,136.0
2982,B-2,514.0,4.0,95,136.0
2983,E5,514.0,0.25,95,136.0
2984,E4,514.0,0.25,95,136.0
2985,B3,514.25,71/1000,95,136.0
2986,E5,514.25,0.25,95,136.0
2987,E4,514.25,0.25,95,136.0
2988,B3,514.5,71/1000,95,136.0
2989,E5,514.5,0.5,95,136.0
2990,E4,514.5,0.5,95,136.0
2991,E-3,514.5,1.0,95,136.0
2992,B1,514.5,1.0,95,136.0
2993,B4,515.0,1.0,95,136.0
2994,B3,515.0,71/1000,95,136.0
2995,B3,515.0,1.5,95,136.0
2996,E-3,515.5,1.0,95,136.0
2997,D2,515.5,1.0,95,136.0
2998,E5,516.5,0.25,95,136.0
2999,E-3,516.5,1.0,95,136.0
3000,B1,516.5,1.0,95,136.0
3001,E-5,516.75,0.25,95,136.0
3002,E5,517.0,2.0,95,136.0
3003,E-3,517.5,1.0,95,136.0
3004,D2,517.5,1.0,95,136.0
3005,A1,518.0,4.0,95,136.0
3006,A3,518.0,4.0,95,136.0
3007,E3,518.0,4.0,95,136.0
3008,A2,518.0,4.0,95,136.0
3009,E-3,518.5,1.0,95,136.0
3010,B1,518.5,1.0,95,136.0
3011,E4,519.0,1.0,95,136.0
3012,E-3,519.5,1.0,95,136.0
3013,D2,519.5,1.0,95,136.0
3014,C#4,520.0,0.25,95,136.0
3015,B3,520.25,0.25,95,136.0
3016,C#4,520.5,1.5,95,136.0
3017,E-3,520.5,1.0,95,136.0
3018,B1,520.5,1.0,95,136.0
3019,E-3,521.5,0.5,95,136.0
3020,D2,521.5,0.5,95,136.0
3021,E4,522.0,0.25,95,136.0
3022,A1,522.0,3.0,95,136.0
3023,D2,522.0,0.5,95,136.0
3024,A3,522.0,3.0,95,136.0
3025,E3,522.0,3.0,95,136.0
3026,A2,522.0,3.0,95,136.0
3027,C#4,522.25,0.25,95,136.0
3028,E4,522.5,0.5,95,136.0
3029,C#3,522.5,0.5,95,136.0
3030,B1,522.5,0.5,95,136.0
3031,E4,523.0,1.0,95,136.0
3032,C#3,523.0,1.5,95,136.0
3033,B1,523.0,1.5,95,136.0
3034,F#4,524.0,0.25,95,136.0
3035,E4,524.25,0.25,95,136.0
3036,F#5,524.5,1.125,95,136.0
3037,C#3,524.5,0.5,95,136.0
3038,B1,524.5,0.5,95,136.0
3039,G#1,525.0,0.5,95,136.0
3040,G#3,525.0,0.5,95,136.0
3041,E-3,525.0,0.5,95,136.0
3042,G#2,525.0,0.5,95,136.0
3043,C#3,525.0,1.5,95,136.0
3044,B1,525.0,1.5,95,136.0
3045,F#1,525.5,0.5,95,136.0
3046,F#3,525.5,0.5,95,136.0
3047,C#3,525.5,0.5,95,136.0
3048,F#2,525.5,0.5,95,136.0
3049,B5,525.625,0.25,95,136.0
3050,F#5,525.875,1.125,95,136.0
3051,E1,526.0,0.5,95,136.0
3052,B3,526.0,0.5,95,136.0
3053,E3,526.0,0.5,95,136.0
3054,E2,526.0,0.5,95,136.0
3055,C#3,526.5,1.0,95,136.0
3056,B1,526.5,1.0,95,136.0
3057,E3,527.0,0.5,95,136.0
3058,E5,527.0,1.0,95,136.0
3059,B3,527.5,0.5,95,136.0
3060,E-3,527.5,1.0,95,136.0
3061,D2,527.5,1.0,95,136.0
3062,E3,528.0,0.5,95,136.0
3063,C4,528.5,0.25,95,136.0
3064,E-3,528.5,1.0,95,136.0
3065,B1,528.5,1.0,95,136.0
3066,C#4,528.75,0.75,70,136.0
3067,B3,529.5,0.5,95,136.0
3068,E-3,529.5,1.0,95,136.0
3069,D2,529.5,1.0,95,136.0
3070,B1,530.0,0.5,95,136.0
3071,F#3,530.0,0.5,95,136.0
3072,B2,530.0,0.5,95,136.0
3073,E-3,530.5,1.0,95,136.0
3074,B1,530.5,1.0,95,136.0
3075,B2,531.0,0.5,95,136.0
3076,F#3,531.5,0.5,95,136.0
3077,E-3,531.5,1.0,95,136.0
3078,D2,531.5,1.0,95,136.0
3079,B2,532.0,0.5,95,136.0
3080,A3,532.5,0.5,95,136.0
3081,E-3,532.5,1.0,95,136.0
3082,B1,532.5,1.0,95,136.0
3083,G#3,533.0,0.5,95,136.0
3084,F#3,533.5,0.5,95,136.0
3085,E-3,533.5,1.0,95,136.0
3086,D2,533.5,1.0,95,136.0
3087,A1,534.0,0.5,95,136.0
3088,E3,534.0,0.5,95,136.0
3089,A2,534.0,0.5,95,136.0
3090,E-3,534.5,1.0,95,136.0
3091,B1,534.5,1.0,95,136.0
3092,E3,535.0,0.5,95,136.0
3093,B3,535.5,0.5,95,136.0
3094,E-3,535.5,1.0,95,136.0
3095,D2,535.5,1.0,95,136.0
3096,E3,536.0,0.5,95,136.0
3097,G#3,536.5,0.5,95,136.0
3098,E-3,536.5,1.0,95,136.0
3099,B1,536.5,1.0,95,136.0
3100,E3,537.0,0.5,95,136.0
3101,A3,537.5,0.5,95,136.0
3102,E-3,537.5,1.0,95,136.0
3103,D2,537.5,1.0,95,136.0
3104,E3,538.0,0.5,95,136.0
3105,C#4,538.5,0.5,95,136.0
3106,E-3,538.5,1.0,95,136.0
3107,B1,538.5,1.0,95,136.0
3108,A3,539.0,0.5,95,136.0
3109,E-4,539.5,0.5,95,136.0
3110,E-3,539.5,1.0,95,136.0
3111,D2,539.5,1.0,95,136.0
3112,A3,540.0,0.5,95,136.0
3113,E4,540.5,0.5,95,136.0
3114,E-3,540.5,1.0,95,136.0
3115,B1,540.5,1.0,95,136.0
3116,E-4,541.0,0.5,95,136.0
3117,C#4,541.5,0.5,95,136.0
3118,E-3,541.5,1.0,95,136.0
3119,D2,541.5,1.0,95,136.0
3120,C#2,542.0,0.5,95,136.0
3121,C#4,542.0,0.5,95,136.0
3122,G#3,542.0,0.5,95,136.0
3123,C#3,542.0,0.5,95,136.0
3124,C#3,542.5,1.0,95,136.0
3125,B1,542.5,1.0,95,136.0
3126,C#4,543.0,0.5,95,136.0
3127,G#3,543.0,0.5,95,136.0
3128,C#3,543.0,0.5,95,136.0
3129,E4,543.5,0.5,95,136.0
3130,C#4,543.5,0.5,95,136.0
3131,G#3,543.5,0.5,95,136.0
3132,E-3,543.5,1.0,95,136.0
3133,D2,543.5,1.0,95,136.0
3134,F#4,544.5,1.0,95,136.0
3135,C#4,544.5,1.0,95,136.0
3136,G#3,544.5,1.0,95,136.0
3137,E-3,544.5,1.0,95,136.0
3138,B1,544.5,1.0,95,136.0
3139,E4,545.5,0.5,95,136.0
3140,C#4,545.5,0.5,95,136.0
3141,G#3,545.5,0.5,95,136.0
3142,E-3,545.5,1.0,95,136.0
3143,D2,545.5,1.0,95,136.0
3144,B1,546.0,0.5,95,136.0
3145,B3,546.0,0.5,95,136.0
3146,F#3,546.0,0.5,95,136.0
3147,B2,546.0,0.5,95,136.0
3148,E-3,546.5,1.0,95,136.0
3149,B1,546.5,1.0,95,136.0
3150,B3,547.0,0.5,95,136.0
3151,F#3,547.0,0.5,95,136.0
3152,B2,547.0,0.5,95,136.0
3153,E-4,547.5,0.5,95,136.0
3154,B3,547.5,0.5,95,136.0
3155,F#3,547.5,0.5,95,136.0
3156,E-3,547.5,1.0,95,136.0
3157,D2,547.5,1.0,95,136.0
3158,E4,548.5,1.0,95,136.0
3159,B3,548.5,1.0,95,136.0
3160,F#3,548.5,1.0,95,136.0
3161,D2,548.75,0.25,95,136.0
3162,D2,549.0,0.5,95,136.0
3163,E-4,549.5,0.5,95,136.0
3164,B3,549.5,0.5,95,136.0
3165,F#3,549.5,0.5,95,136.0
3166,C#3,549.5,0.5,95,136.0
3167,B1,549.5,0.5,95,136.0
3168,A1,550.0,0.5,95,136.0
3169,E3,550.0,1.0,95,136.0
3170,A2,550.0,1.0,95,136.0
3171,C#3,550.0,0.5,95,136.0
3172,B1,550.0,0.5,95,136.0
3173,C#3,550.5,4.0,95,136.0
3174,B1,550.5,4.0,95,136.0
3175,E3,551.0,0.5,95,136.0
3176,E-4,551.5,0.5,95,136.0
3177,A3,552.0,0.5,95,136.0
3178,E4,552.5,0.5,95,136.0
3179,E-4,553.0,0.5,95,136.0
3180,A3,553.5,0.5,95,136.0
3181,E3,554.0,1.0,95,136.0
3182,C#3,554.5,4.0,95,136.0
3183,B1,554.5,4.0,95,136.0
3184,E3,555.0,0.5,95,136.0
3185,E-4,555.5,0.5,95,136.0
3186,A3,556.0,0.5,95,136.0
3187,E4,556.5,0.5,95,136.0
3188,E-4,557.0,0.5,95,136.0
3189,A3,557.5,0.5,95,136.0
3190,G#3,558.0,3.0,95,136.0
3191,C#3,558.0,3.0,95,136.0
3192,C#3,558.5,4.0,95,136.0
3193,B1,558.5,4.0,95,136.0
3194,F#3,561.5,0.5,95,136.0
3195,C#3,561.5,0.5,95,136.0
3196,G#3,562.5,0.5,95,136.0
3197,C#3,562.5,0.5,95,136.0
3198,E3,563.5,1.5,95,136.0
3199,A2,563.5,1.5,95,136.0
3200,A2,565.0,0.5,95,136.0
3201,B2,565.5,0.5,95,136.0
3202,G#3,566.0,3.0,95,136.0
3203,C#3,566.0,3.0,95,136.0
3204,C#3,566.5,4.0,95,136.0
3205,B1,566.5,4.0,95,136.0
3206,B1,569.5,0.5,95,136.0
3207,F#3,569.5,0.5,95,136.0
3208,B2,569.5,0.5,95,136.0
3209,B1,570.0,0.5,95,136.0
3210,F#3,570.0,0.5,95,136.0
3211,B2,570.0,0.5,95,136.0
3212,E-3,570.5,0.5,95,136.0
3213,C#3,570.5,4.0,95,136.0
3214,B1,570.5,4.0,95,136.0
3215,E3,571.0,0.5,95,136.0
3216,A1,571.5,1.0,95,136.0
3217,A3,571.5,2.5,95,136.0
3218,E3,571.5,2.5,95,136.0
3219,A2,571.5,2.5,95,136.0
3220,G#3,574.0,3.0,95,136.0
3221,C#3,574.0,3.0,95,136.0
3222,C#3,574.5,4.0,95,136.0
3223,B1,574.5,4.0,95,136.0
3224,F#3,577.5,0.5,95,136.0
3225,C#3,577.5,0.5,95,136.0
3226,D2,578.5,0.25,95,136.0
3227,G#3,578.5,0.5,95,136.0
3228,C#3,578.5,0.5,95,136.0
3229,D2,578.75,0.75,95,136.0
3230,D2,579.5,0.25,95,136.0
3231,E3,579.5,1.5,95,136.0
3232,A2,579.5,1.5,95,136.0
3233,D2,579.75,0.75,95,136.0
3234,C3,580.5,0.25,95,136.0
3235,C3,580.75,0.25,95,136.0
3236,A2,581.0,0.5,95,136.0
3237,C3,581.0,0.5,95,136.0
3238,B2,581.5,0.5,95,136.0
3239,A2,581.5,0.25,95,136.0
3240,A2,581.75,0.25,95,136.0
3241,A2,582.0,0.5,95,136.0
3242,G#3,582.0,3.0,95,136.0
3243,C#3,582.0,3.0,95,136.0
3244,C#3,582.5,1.0,95,136.0
3245,B1,582.5,1.0,95,136.0
3246,E-3,583.5,1.0,95,136.0
3247,D2,583.5,1.0,95,136.0
3248,E-3,584.5,1.0,95,136.0
3249,B1,584.5,1.0,95,136.0
3250,B1,585.5,0.5,95,136.0
3251,F#3,585.5,0.5,95,136.0
3252,B2,585.5,0.5,95,136.0
3253,E-3,585.5,1.0,95,136.0
3254,D2,585.5,1.0,95,136.0
3255,B1,586.0,0.5,95,136.0
3256,F#3,586.0,0.5,95,136.0
3257,B2,586.0,0.5,95,136.0
3258,E-3,586.5,0.5,95,136.0
3259,E-3,586.5,1.0,95,136.0
3260,B1,586.5,1.0,95,136.0
3261,E3,587.0,0.5,95,136.0
3262,A1,587.5,1.0,95,136.0
3263,A3,587.5,2.5,95,136.0
3264,E3,587.5,2.5,95,136.0
3265,A2,587.5,2.5,95,136.0
3266,E-3,587.5,1.0,95,136.0
3267,D2,587.5,1.0,95,136.0
3268,E-3,588.5,1.0,95,136.0
3269,B1,588.5,1.0,95,136.0
3270,E-3,589.5,1.0,95,136.0
3271,D2,589.5,1.0,95,136.0
3272,G#3,590.0,3.0,95,136.0
3273,C#3,590.0,3.0,95,136.0
3274,E-3,590.5,1.0,95,136.0
3275,B1,590.5,1.0,95,136.0
3276,E-3,591.5,1.0,95,136.0
3277,D2,591.5,1.0,95,136.0
3278,E-3,592.5,1.0,95,136.0
3279,B1,592.5,1.0,95,136.0
3280,F#3,593.5,0.5,95,136.0
3281,C#3,593.5,0.5,95,136.0
3282,E-3,593.5,0.5,95,136.0
3283,D2,593.5,0.5,95,136.0
3284,C#3,594.0,0.5,95,136.0
3285,B1,594.0,0.5,95,136.0
3286,G#3,594.5,0.5,95,136.0
3287,C#3,594.5,0.5,95,136.0
3288,E-3,594.5,1.0,95,136.0
3289,B1,594.5,1.0,95,136.0
3290,E3,595.5,1.5,95,136.0
3291,A2,595.5,1.5,95,136.0
3292,E-3,595.5,0.5,95,136.0
3293,D2,595.5,0.5,95,136.0
3294,C#3,596.0,0.5,95,136.0
3295,B1,596.0,0.5,95,136.0
3296,E-3,596.5,1.0,95,136.0
3297,B1,596.5,1.0,95,136.0
3298,A2,597.0,0.5,95,136.0
3299,B2,597.5,0.5,95,136.0
3300,E-3,597.5,1.0,95,136.0
3301,D2,597.5,1.0,95,136.0
3302,G#3,598.0,3.0,95,136.0
3303,C#3,598.0,3.0,95,136.0
3304,C#3,598.5,1.0,95,136.0
3305,B1,598.5,1.0,95,136.0
3306,E-3,599.5,1.0,95,136.0
3307,D2,599.5,1.0,95,136.0
3308,E-3,600.5,1.0,95,136.0
3309,B1,600.5,1.0,95,136.0
3310,B1,601.5,0.5,95,136.0
3311,F#3,601.5,0.5,95,136.0
3312,B2,601.5,0.5,95,136.0
3313,E-3,601.5,1.0,95,136.0
3314,D2,601.5,1.0,95,136.0
3315,B1,602.0,0.5,95,136.0
3316,F#3,602.0,0.5,95,136.0
3317,B2,602.0,0.5,95,136.0
3318,E-3,602.5,0.5,95,136.0
3319,E-3,602.5,1.0,95,136.0
3320,B1,602.5,1.0,95,136.0
3321,E3,603.0,0.5,95,136.0
3322,A1,603.5,1.0,95,136.0
3323,A3,603.5,2.5,95,136.0
3324,E3,603.5,2.5,95,136.0
3325,A2,603.5,2.5,95,136.0
3326,E-3,603.5,1.0,95,136.0
3327,D2,603.5,1.0,95,136.0
3328,E-3,604.5,1.0,95,136.0
3329,B1,604.5,1.0,95,136.0
3330,E-3,605.5,1.0,95,136.0
3331,D2,605.5,1.0,95,136.0
3332,G#3,606.0,3.0,95,136.0
3333,C#3,606.0,3.0,95,136.0
3334,E-3,606.5,1.0,95,136.0
3335,B1,606.5,1.0,95,136.0
3336,E-3,607.5,1.0,95,136.0
3337,D2,607.5,1.0,95,136.0
3338,E-3,608.5,1.0,95,136.0
3339,B1,608.5,1.0,95,136.0
3340,F#3,609.5,0.5,95,136.0
3341,C#3,609.5,0.5,95,136.0
3342,E-3,609.5,0.5,95,136.0
3343,D2,609.5,0.5,95,136.0
3344,C#3,610.0,0.5,95,136.0
3345,B1,610.0,0.5,95,136.0
3346,G#3,610.5,0.5,95,136.0
3347,C#3,610.5,0.5,95,136.0
3348,E-3,610.5,1.0,95,136.0
3349,B1,610.5,1.0,95,136.0
3350,E3,611.5,1.5,95,136.0
3351,A2,611.5,1.5,95,136.0
3352,E-3,611.5,0.5,95,136.0
3353,D2,611.5,0.5,95,136.0
3354,C#3,612.0,0.5,95,136.0
3355,B1,612.0,0.5,95,136.0
3356,E-3,612.5,1.0,95,136.0
3357,B1,612.5,1.0,95,136.0
3358,A2,613.0,0.5,95,136.0
3359,B2,613.5,0.5,95,136.0
3360,E-3,613.5,1.0,95,136.0
3361,D2,613.5,1.0,95,136.0
3362,G#3,614.0,3.0,95,136.0
3363,C#3,614.0,3.0,95,136.0
3364,C#3,614.5,1.0,95,136.0
3365,B1,614.5,1.0,95,136.0
3366,E-3,615.5,1.0,95,136.0
3367,D2,615.5,1.0,95,136.0
3368,E-3,616.5,1.0,95,136.0
3369,B1,616.5,1.0,95,136.0
3370,B1,617.5,0.5,95,136.0
3371,F#3,617.5,0.5,95,136.0
3372,B2,617.5,0.5,95,136.0
3373,E-3,617.5,1.0,95,136.0
3374,D2,617.5,1.0,95,136.0
3375,B1,618.0,0.5,95,136.0
3376,F#3,618.0,0.5,95,136.0
3377,B2,618.0,0.5,95,136.0
3378,E-3,618.5,0.5,95,136.0
3379,E-3,618.5,1.0,95,136.0
3380,B1,618.5,1.0,95,136.0
3381,E3,619.0,0.5,95,136.0
3382,A1,619.5,1.0,95,136.0
3383,A3,619.5,2.5,95,136.0
3384,E3,619.5,2.5,95,136.0
3385,A2,619.5,2.5,95,136.0
3386,E-3,619.5,1.0,95,136.0
3387,D2,619.5,1.0,95,136.0
3388,E-3,620.5,1.0,95,136.0
3389,B1,620.5,1.0,95,136.0
3390,E-3,621.5,1.0,95,136.0
3391,D2,621.5,1.0,95,136.0
3392,G#3,622.0,2.0,95,136.0
3393,C#3,622.0,2.0,95,136.0
3394,E-3,622.5,1.0,95,136.0
3395,B1,622.5,1.0,95,136.0
3396,E-3,623.5,1.0,95,136.0
3397,D2,623.5,1.0,95,136.0
3398,G#3,624.0,0.5,95,136.0
3399,C#3,624.0,0.5,95,136.0
3400,G#3,624.5,0.5,95,136.0
3401,C#3,624.5,0.5,95,136.0
3402,E-3,624.5,1.0,95,136.0
3403,B1,624.5,1.0,95,136.0
3404,G#3,625.0,0.5,95,136.0
3405,C#3,625.0,0.5,95,136.0
3406,F#3,625.5,0.5,95,136.0
3407,E-3,625.5,0.5,95,136.0
3408,D2,625.5,0.5,95,136.0
3409,F#3,626.0,0.5,95,136.0
3410,C#3,626.0,0.5,95,136.0
3411,B1,626.0,0.5,95,136.0
3412,G#3,626.5,1.0,95,136.0
3413,E-3,626.5,1.0,95,136.0
3414,B1,626.5,1.0,95,136.0
3415,C#3,627.5,1.5,95,136.0
3416,E-3,627.5,0.5,95,136.0
3417,D2,627.5,0.5,95,136.0
3418,C#3,628.0,0.5,95,136.0
3419,B1,628.0,0.5,95,136.0
3420,E-3,628.5,1.0,95,136.0
3421,B1,628.5,1.0,95,136.0
3422,A2,629.0,0.5,95,136.0
3423,B2,629.5,0.5,95,136.0
3424,E-3,629.5,1.0,95,136.0
3425,D2,629.5,1.0,95,136.0
3426,G#3,630.0,2.0,95,136.0
3427,C#3,630.0,2.0,95,136.0
3428,C#3,630.5,1.0,95,136.0
3429,B1,630.5,1.0,95,136.0
3430,E-3,631.5,1.0,95,136.0
3431,D2,631.5,1.0,95,136.0
3432,G#3,632.0,0.5,95,136.0
3433,C#3,632.0,0.5,95,136.0
3434,G#3,632.5,0.5,95,136.0
3435,C#3,632.5,0.5,95,136.0
3436,E-3,632.5,1.0,95,136.0
3437,B1,632.5,1.0,95,136.0
3438,G#3,633.0,0.5,95,136.0
3439,C#3,633.0,0.5,95,136.0
3440,F#3,633.5,0.5,95,136.0
3441,B2,633.5,0.5,95,136.0
3442,E-3,633.5,1.0,95,136.0
3443,D2,633.5,1.0,95,136.0
3444,F#3,634.5,0.5,95,136.0
3445,B2,634.5,0.5,95,136.0
3446,E-3,634.5,1.0,95,136.0
3447,B1,634.5,1.0,95,136.0
3448,E-3,635.0,0.5,95,136.0
3449,E3,635.5,0.5,95,136.0
3450,E-3,635.5,1.0,95,136.0
3451,D2,635.5,1.0,95,136.0
3452,A3,636.0,2.5,95,136.0
3453,E3,636.0,2.5,95,136.0
3454,A2,636.0,2.5,95,136.0
3455,E-3,636.5,1.0,95,136.0
3456,B1,636.5,1.0,95,136.0
3457,E-3,637.5,1.0,95,136.0
3458,D2,637.5,1.0,95,136.0
3459,G#3,638.5,3.0,95,136.0
3460,C#3,638.5,3.0,95,136.0
3461,E-3,638.5,1.0,95,136.0
3462,B1,638.5,1.0,95,136.0
3463,E-3,639.5,1.0,95,136.0
3464,D2,639.5,1.0,95,136.0
3465,E-3,640.5,1.0,95,136.0
3466,B1,640.5,1.0,95,136.0
3467,E-3,641.5,0.5,95,136.0
3468,D2,641.5,0.5,95,136.0
3469,F#3,642.0,0.5,95,136.0
3470,C#3,642.0,0.5,95,136.0
3471,C#3,642.0,0.5,95,136.0
3472,B1,642.0,0.5,95,136.0
3473,D2,642.5,0.25,95,136.0
3474,D2,642.75,0.25,95,136.0
3475,D2,643.0,0.5,95,136.0
3476,G#3,643.0,0.5,95,136.0
3477,C#3,643.0,0.5,95,136.0
3478,D2,643.5,0.25,95,136.0
3479,D2,643.75,0.25,95,136.0
3480,D2,644.0,0.5,95,136.0
3481,E3,644.0,1.5,95,136.0
3482,A2,644.0,1.5,95,136.0
3483,C3,644.5,0.25,95,136.0
3484,C3,644.75,0.25,95,136.0
3485,B2,645.0,0.25,95,136.0
3486,B2,645.25,0.25,95,136.0
3487,A2,645.5,0.5,95,136.0
3488,A2,645.5,0.25,95,136.0
3489,A2,645.75,0.25,95,136.0
3490,B2,646.0,0.5,95,136.0
3491,G2,646.0,0.25,95,136.0
3492,G2,646.25,0.25,95,136.0
3493,G#3,646.5,3.0,95,136.0
3494,C#3,646.5,3.0,95,136.0
3495,C#3,646.5,4.0,95,136.0
3496,B1,646.5,4.0,95,136.0
3497,B1,649.5,0.5,95,136.0
3498,B1,650.0,0.5,95,136.0
3499,F#3,650.0,0.5,95,136.0
3500,B2,650.0,0.5,95,136.0
3501,F#3,650.5,0.5,95,136.0
3502,B2,650.5,0.5,95,136.0
3503,E-3,651.0,0.5,95,136.0
3504,E3,651.5,0.5,95,136.0
3505,A1,651.5,1.0,95,136.0
3506,A3,652.0,1.0,95,136.0
3507,E3,652.0,1.0,95,136.0
3508,A2,652.0,1.0,95,136.0
3509,A2,653.0,0.5,95,136.0
3510,B2,653.5,0.5,95,136.0
3511,A2,654.0,0.5,95,136.0
3512,G#3,654.5,3.0,95,136.0
3513,C#3,654.5,3.0,95,136.0
3514,F#3,658.0,0.5,95,136.0
3515,C#3,658.0,0.5,95,136.0
3516,D2,658.5,1.0,95,136.0
3517,G#3,659.0,0.5,95,136.0
3518,C#3,659.0,0.5,95,136.0
3519,G2,659.5,0.5,95,136.0
3520,F2,659.5,0.5,95,136.0
3521,B1,659.5,0.5,95,136.0
3522,E3,660.0,1.5,95,136.0
3523,A2,660.0,1.5,95,136.0
3524,G2,660.0,0.5,95,136.0
3525,F2,660.0,0.5,95,136.0
3526,B1,660.0,0.5,95,136.0
3527,G2,660.5,1.0,95,136.0
3528,F2,660.5,1.0,95,136.0
3529,B1,660.5,1.0,95,136.0
3530,A2,661.5,0.5,95,136.0
3531,G2,661.5,1.0,95,136.0
3532,F2,661.5,1.0,95,136.0
3533,B1,661.5,1.0,95,136.0
3534,B2,662.0,0.5,95,136.0
3535,G#3,662.5,3.0,95,136.0
3536,C#3,662.5,3.0,95,136.0
3537,C#3,662.5,1.0,95,136.0
3538,B1,662.5,1.0,95,136.0
3539,E-3,663.5,1.0,95,136.0
3540,D2,663.5,1.0,95,136.0
3541,E-3,664.5,1.0,95,136.0
3542,B1,664.5,1.0,95,136.0
3543,B1,665.5,0.5,95,136.0
3544,E-3,665.5,1.0,95,136.0
3545,D2,665.5,1.0,95,136.0
3546,B1,666.0,0.5,95,136.0
3547,F#3,666.0,0.5,95,136.0
3548,B2,666.0,0.5,95,136.0
3549,F#3,666.5,0.5,95,136.0
3550,B2,666.5,0.5,95,136.0
3551,E-3,666.5,1.0,95,136.0
3552,B1,666.5,1.0,95,136.0
3553,E-3,667.0,0.5,95,136.0
3554,E3,667.5,0.5,95,136.0
3555,A1,667.5,1.0,95,136.0
3556,E-3,667.5,1.0,95,136.0
3557,D2,667.5,1.0,95,136.0
3558,A3,668.0,1.0,95,136.0
3559,E3,668.0,1.0,95,136.0
3560,A2,668.0,1.0,95,136.0
3561,E-3,668.5,1.0,95,136.0
3562,B1,668.5,1.0,95,136.0
3563,E4,669.0,0.5,95,136.0
3564,E-4,669.5,0.5,95,136.0
3565,E-3,669.5,1.0,95,136.0
3566,D2,669.5,1.0,95,136.0
3567,B3,670.0,0.5,95,136.0
3568,E4,670.5,0.5,95,136.0
3569,E-3,670.5,1.0,95,136.0
3570,B1,670.5,1.0,95,136.0
3571,E-4,671.0,0.5,95,136.0
3572,B3,671.5,0.5,95,136.0
3573,E-3,671.5,1.0,95,136.0
3574,D2,671.5,1.0,95,136.0
3575,E4,672.0,2.0,95,136.0
3576,E-4,672.0,2.0,95,136.0
3577,B3,672.0,2.0,95,136.0
3578,E-3,672.5,1.0,95,136.0
3579,B1,672.5,1.0,95,136.0
3580,E-3,673.5,1.0,95,136.0
3581,D2,673.5,1.0,95,136.0
3582,B1,674.0,1.5,95,136.0
3583,F#3,674.5,1.5,95,136.0
3584,B2,674.5,1.5,95,136.0
3585,E-3,674.5,1.0,95,136.0
3586,B1,674.5,1.0,95,136.0
3587,A1,675.5,1.0,95,136.0
3588,E-3,675.5,1.0,95,136.0
3589,D2,675.5,1.0,95,136.0
3590,A3,676.0,1.0,95,136.0
3591,E3,676.0,1.0,95,136.0
3592,A2,676.0,1.0,95,136.0
3593,E-3,676.5,1.0,95,136.0
3594,B1,676.5,1.0,95,136.0
3595,E4,677.0,0.5,95,136.0
3596,E-4,677.5,0.5,95,136.0
3597,E4,677.5,0.5,95,136.0
3598,E-3,677.5,1.0,95,136.0
3599,D2,677.5,1.0,95,136.0
3600,B3,678.0,0.5,95,136.0
3601,E-4,678.0,0.5,95,136.0
3602,E4,678.5,0.5,95,136.0
3603,B3,678.5,0.5,95,136.0
3604,E-3,678.5,1.0,95,136.0
3605,B1,678.5,1.0,95,136.0
3606,E-4,679.0,0.5,95,136.0
3607,E4,679.0,0.5,95,136.0
3608,B3,679.5,0.5,95,136.0
3609,E-4,679.5,0.5,95,136.0
3610,E-3,679.5,1.0,95,136.0
3611,D2,679.5,1.0,95,136.0
3612,B3,680.0,0.5,95,136.0
3613,E4,680.0,2.5,95,136.0
3614,E-4,680.0,2.5,95,136.0
3615,E4,680.5,2.5,95,136.0
3616,E-4,680.5,2.5,95,136.0
3617,E-3,680.5,1.0,95,136.0
3618,B1,680.5,1.0,95,136.0
3619,E-3,681.5,1.0,95,136.0
3620,D2,681.5,1.0,95,136.0
3621,B1,682.0,1.5,95,136.0
3622,F#3,682.5,1.5,95,136.0
3623,B2,682.5,1.5,95,136.0
3624,E-3,682.5,1.0,95,136.0
3625,B1,682.5,1.0,95,136.0
3626,A1,683.5,1.0,95,136.0
3627,E-3,683.5,1.0,95,136.0
3628,D2,683.5,1.0,95,136.0
3629,A3,684.0,1.0,95,136.0
3630,E3,684.0,1.0,95,136.0
3631,A2,684.0,1.0,95,136.0
3632,E-3,684.5,1.0,95,136.0
3633,B1,684.5,1.0,95,136.0
3634,E4,685.0,0.5,95,136.0
3635,E-4,685.5,0.5,95,136.0
3636,E4,685.5,0.5,95,136.0
3637,E-3,685.5,1.0,95,136.0
3638,D2,685.5,1.0,95,136.0
3639,B3,686.0,0.5,95,136.0
3640,E-4,686.0,0.5,95,136.0
3641,E4,686.5,0.5,95,136.0
3642,B3,686.5,0.5,95,136.0
3643,E-3,686.5,1.0,95,136.0
3644,B1,686.5,1.0,95,136.0
3645,E-4,687.0,0.5,95,136.0
3646,E4,687.0,0.5,95,136.0
3647,B3,687.5,0.5,95,136.0
3648,E-4,687.5,0.5,95,136.0
3649,E-3,687.5,1.0,95,136.0
3650,D2,687.5,1.0,95,136.0
3651,B3,688.0,0.5,95,136.0
3652,E4,688.0,2.5,95,136.0
3653,E-4,688.0,2.5,95,136.0
3654,E4,688.5,2.5,95,136.0
3655,E-4,688.5,2.5,95,136.0
3656,E-3,688.5,1.0,95,136.0
3657,B1,688.5,1.0,95,136.0
3658,E-3,689.5,1.0,95,136.0
3659,D2,689.5,1.0,95,136.0
3660,B1,690.0,1.5,95,136.0
3661,F#3,690.5,1.5,95,136.0
3662,B2,690.5,1.5,95,136.0
3663,E-3,690.5,1.0,95,136.0
3664,B1,690.5,1.0,95,136.0
3665,A1,691.5,1.0,95,136.0
3666,E-3,691.5,0.5,95,136.0
3667,D2,691.5,0.5,95,136.0
3668,A3,692.0,1.0,95,136.0
3669,E3,692.0,1.0,95,136.0
3670,A2,692.0,1.0,95,136.0
3671,C#3,692.0,2.5,95,136.0
3672,B1,692.0,2.5,95,136.0
3673,E4,693.0,0.5,95,136.0
3674,E-4,693.5,0.5,95,136.0
3675,E4,693.5,0.5,95,136.0
3676,B3,694.0,0.5,95,136.0
3677,E-4,694.0,0.5,95,136.0
3678,E4,694.5,0.5,95,136.0
3679,B3,694.5,0.5,95,136.0
3680,E-4,695.0,0.5,95,136.0
3681,E4,695.0,0.5,95,136.0
3682,B3,695.5,0.5,95,136.0
3683,E-4,695.5,0.5,95,136.0
3684,B3,696.0,0.5,95,136.0
3685,E4,696.0,2.5,95,136.0
3686,E-4,696.0,2.5,95,136.0
3687,E4,696.5,2.5,95,136.0
3688,E-4,696.5,2.5,95,136.0
3689,B1,698.0,1.5,95,136.0
3690,F#3,698.5,1.5,95,136.0
3691,B2,698.5,1.5,95,136.0
3692,C#3,698.5,4.0,95,136.0
3693,B1,698.5,4.0,95,136.0
3694,A1,699.5,1.0,95,136.0
3695,A3,700.0,1.0,95,136.0
3696,E3,700.0,1.0,95,136.0
3697,A2,700.0,1.0,95,136.0
3698,E4,701.0,0.5,95,136.0
3699,E-4,701.5,0.5,95,136.0
3700,E4,701.5,0.5,95,136.0
3701,B3,702.0,0.5,95,136.0
3702,E-4,702.0,0.5,95,136.0
3703,E4,702.5,0.5,95,136.0
3704,B3,702.5,0.5,95,136.0
3705,C#3,702.5,1.5,95,136.0
3706,B1,702.5,1.5,95,136.0
3707,E-4,703.0,0.5,95,136.0
3708,E4,703.0,0.5,95,136.0
3709,B3,703.5,0.5,95,136.0
3710,E-4,703.5,0.5,95,136.0
3711,B3,704.0,0.5,95,136.0
3712,E4,704.0,2.5,95,136.0
3713,E-4,704.0,2.5,95,136.0
3714,B3,704.0,2.5,95,136.0
3715,C#3,704.0,2.5,95,136.0
3716,B1,704.0,2.5,95,136.0
3717,E4,704.5,2.5,95,136.0
3718,E-4,704.5,2.5,95,136.0
3719,B3,704.5,2.5,95,136.0
3720,C#3,710.5,4.0,95,136.0
3721,B1,710.5,4.0,95,136.0
3722,C#3,714.5,1.5,95,136.0
3723,B1,714.5,1.5,95,136.0
3724,C#3,716.0,2.5,95,136.0
3725,B1,716.0,2.5,95,136.0
3726,E4,718.5,4.0,95,136.0
3727,E-4,718.5,4.0,95,136.0
3728,B3,718.5,4.0,95,136.0
3729,E4,719.0,4.0,95,136.0
3730,E-4,719.0,4.0,95,136.0
3731,B3,719.0,4.0,95,136.0
3732,C#3,722.5,4.0,95,136.0
3733,B1,722.5,4.0,95,136.0
3734,C#3,726.5,1.5,95,136.0
3735,B1,726.5,1.5,95,136.0
3736,C#3,728.0,2.5,95,136.0
3737,B1,728.0,2.5,95,136.0
3738,E4,730.5,4.0,95,136.0
3739,E-4,730.5,4.0,95,136.0
3740,B3,730.5,4.0,95,136.0
3741,E4,731.0,4.0,95,136.0
3742,E-4,731.0,4.0,95,136.0
3743,B3,731.0,4.0,95,136.0
3744,C#3,734.5,4.0,95,136.0
3745,B1,734.5,4.0,95,136.0
3746,E4,738.5,4.0,95,136.0
3747,E-4,738.5,4.0,95,136.0
3748,B3,738.5,4.0,95,136.0
3749,C#3,738.5,1.5,95,136.0
3750,B1,738.5,1.5,95,136.0
3751,E4,739.0,4.0,95,136.0
3752,E-4,739.0,4.0,95,136.0
3753,B3,739.0,4.0,95,136.0
3754,C#3,740.0,2.5,95,136.0
3755,B1,740.0,2.5,95,136.0
3756,C#3,758.5,4.0,95,136.0
3757,B1,758.5,4.0,95,136.0
3758,C#3,774.5,4.0,95,136.0
3759,B1,774.5,4.0,95,136.0
3760,C#3,786.5,4.0,95,136.0
3761,B1,786.5,4.0,95,136.0
3762,C#3,794.5,4.0,95,136.0
3763,B1,794.5,4.0,95,136.0
