,note_name,start_time,duration,velocity,tempo
0,E3,4.0,373/250,127,96.0
1,B3,4.5,123/250,127,96.0
2,C4,5.0,0.5,127,96.0
3,G4,5.0,1/10,127,96.0
4,D4,5.0,1/10,127,96.0
5,B2,5.5,0.75,127,96.0
6,D4,5.5,1.25,127,96.0
7,A3,5.5,1.25,127,96.0
8,B2,6.5,0.75,127,96.0
9,A3,7.0,1/10,127,96.0
10,D4,7.0,1/10,127,96.0
11,D3,7.5,0.5,127,96.0
12,F#4,7.5,0.5,127,96.0
13,D4,7.5,0.5,127,96.0
14,D3,8.0,0.25,127,96.0
15,F#4,8.0,667/1000,127,96.0
16,D4,8.0,667/1000,127,96.0
17,D3,8.5,0.75,127,96.0
18,F#4,9.0,1/10,127,96.0
19,D4,9.0,1/10,127,96.0
20,A2,9.5,0.75,127,96.0
21,E4,9.5,1167/1000,127,96.0
22,C4,9.5,1167/1000,127,96.0
23,G3,9.5,1167/1000,127,96.0
24,A2,10.5,0.75,127,96.0
25,C4,11.0,0.75,127,96.0
26,E4,11.0,0.75,127,96.0
27,G3,11.0,0.75,127,96.0
28,A2,11.5,0.25,127,96.0
29,E2,12.0,373/250,127,96.0
30,E3,12.0,373/250,127,96.0
31,B3,12.5,123/250,127,96.0
32,C4,13.0,0.5,127,96.0
33,G4,13.0,1/10,127,96.0
34,D4,13.0,1/10,127,96.0
35,B2,13.5,0.75,127,96.0
36,D4,13.5,1.25,127,96.0
37,A3,13.5,1.25,127,96.0
38,B2,14.5,0.75,127,96.0
39,A3,15.0,1/10,127,96.0
40,D4,15.0,1/10,127,96.0
41,D3,15.5,0.5,127,96.0
42,F#4,15.5,0.5,127,96.0
43,D4,15.5,0.5,127,96.0
44,D3,16.0,0.25,127,96.0
45,F#4,16.0,667/1000,127,96.0
46,D4,16.0,667/1000,127,96.0
47,D3,16.5,0.75,127,96.0
48,F#4,17.0,1/10,127,96.0
49,D4,17.0,1/10,127,96.0
50,A2,17.5,0.75,127,96.0
51,E4,17.5,1167/1000,127,96.0
52,C4,17.5,1167/1000,127,96.0
53,G3,17.5,1167/1000,127,96.0
54,A2,18.5,0.75,127,96.0
55,C4,19.0,0.75,127,96.0
56,E4,19.0,0.75,127,96.0
57,G3,19.0,0.75,127,96.0
58,A2,19.5,0.25,127,96.0
59,B-2,19.5,0.5,127,96.0
60,E2,20.0,1.25,127,96.0
61,E3,20.0,373/250,127,96.0
62,C2,20.0,0.25,127,96.0
63,G#2,20.0,0.125,127,96.0
64,G3,20.0,1.25,127,96.0
65,E4,20.0,1.25,127,96.0
66,E2,20.0,1.25,127,96.0
67,B3,20.0,1.25,127,96.0
68,B3,20.5,123/250,127,96.0
69,F#2,20.5,0.125,60,96.0
70,B3,20.508,121/500,127,96.0
71,B3,20.975,11/20,127,96.0
72,C4,21.0,0.5,127,96.0
73,C#2,21.0,0.25,127,96.0
74,F#2,21.0,0.125,127,96.0
75,G4,21.0,1/10,127,96.0
76,D4,21.0,1/10,127,96.0
77,D4,21.467,24/125,127,96.0
78,B1,21.5,1.75,127,96.0
79,B2,21.5,0.75,127,96.0
80,C2,21.5,0.25,127,96.0
81,F#2,21.5,0.125,60,96.0
82,D4,21.5,1.25,127,96.0
83,A3,21.5,1.25,127,96.0
84,B3,21.5,1.75,127,96.0
85,F#3,21.5,1.75,127,96.0
86,B1,21.5,1.75,127,96.0
87,D4,21.5,1.75,127,96.0
88,D4,21.933,1.125,127,96.0
89,C2,22.0,0.25,127,96.0
90,F#2,22.0,0.125,127,96.0
91,B2,22.5,0.75,127,96.0
92,F#2,22.5,0.125,60,96.0
93,C#2,23.0,0.25,127,96.0
94,F#2,23.0,0.125,127,96.0
95,A3,23.0,1/10,127,96.0
96,D4,23.0,1/10,127,96.0
97,A3,23.008,183/1000,127,96.0
98,A3,23.467,533/1000,127,96.0
99,D2,23.5,0.5,127,96.0
100,D3,23.5,0.5,127,96.0
101,C2,23.5,0.25,127,96.0
102,F#2,23.5,0.125,60,96.0
103,F#4,23.5,0.5,127,96.0
104,D4,23.5,0.5,127,96.0
105,D2,23.5,0.5,127,96.0
106,A3,23.5,0.5,127,96.0
107,F#3,23.5,0.5,127,96.0
108,D4,23.5,0.5,127,96.0
109,D2,24.0,1.25,127,96.0
110,D3,24.0,0.25,127,96.0
111,A3,24.0,533/1000,127,96.0
112,F#2,24.0,0.125,127,96.0
113,F#4,24.0,667/1000,127,96.0
114,D4,24.0,667/1000,127,96.0
115,D2,24.0,1.25,127,96.0
116,A3,24.0,1.25,127,96.0
117,F#3,24.0,1.25,127,96.0
118,D4,24.0,1.25,127,96.0
119,D3,24.5,0.75,127,96.0
120,F#2,24.5,0.125,60,96.0
121,C4,24.508,617/1000,127,96.0
122,C#2,25.0,0.25,127,96.0
123,F#2,25.0,0.125,127,96.0
124,F#4,25.0,1/10,127,96.0
125,D4,25.0,1/10,127,96.0
126,A1,25.5,2033/1000,127,96.0
127,A2,25.5,0.75,127,96.0
128,C2,25.5,0.25,127,96.0
129,F#2,25.5,0.125,60,96.0
130,E4,25.5,1167/1000,127,96.0
131,C4,25.5,1167/1000,127,96.0
132,G3,25.5,1167/1000,127,96.0
133,C4,25.5,249/125,127,96.0
134,E3,25.5,249/125,127,96.0
135,A1,25.5,249/125,127,96.0
136,G3,25.5,249/125,127,96.0
137,C4,25.508,1067/1000,127,96.0
138,C2,26.0,0.25,127,96.0
139,F#2,26.0,0.125,127,96.0
140,A2,26.5,0.75,127,96.0
141,B3,26.5,1/5,127,96.0
142,F#2,26.5,0.125,60,96.0
143,B3,26.975,41/40,127,96.0
144,C#2,27.0,0.25,127,96.0
145,F#2,27.0,0.125,127,96.0
146,C4,27.0,0.75,127,96.0
147,E4,27.0,0.75,127,96.0
148,G3,27.0,0.75,127,96.0
149,A2,27.5,0.25,127,96.0
150,B-2,27.5,0.5,127,96.0
151,E2,28.0,1.25,127,96.0
152,B3,28.0,3/20,127,96.0
153,C2,28.0,0.25,127,96.0
154,G#2,28.0,0.125,127,96.0
155,E2,28.0,373/250,127,96.0
156,E3,28.0,373/250,127,96.0
157,E4,28.0,1.25,127,96.0
158,G3,28.0,1.25,127,96.0
159,E2,28.0,1.25,127,96.0
160,B3,28.0,1.25,127,96.0
161,B3,28.5,123/250,127,96.0
162,F#2,28.5,0.125,60,96.0
163,B3,28.517,121/500,127,96.0
164,B3,28.992,483/1000,127,96.0
165,C4,29.0,0.5,127,96.0
166,C#2,29.0,0.25,127,96.0
167,F#2,29.0,0.125,127,96.0
168,G4,29.0,1/10,127,96.0
169,D4,29.0,1/10,127,96.0
170,D4,29.433,24/125,127,96.0
171,B1,29.5,1.75,127,96.0
172,B2,29.5,0.75,127,96.0
173,C2,29.5,0.25,127,96.0
174,F#2,29.5,0.125,60,96.0
175,D4,29.5,1.25,127,96.0
176,A3,29.5,1.25,127,96.0
177,F#3,29.5,1.75,127,96.0
178,D4,29.5,1.75,127,96.0
179,B1,29.5,1.75,127,96.0
180,B3,29.5,1.75,127,96.0
181,D4,29.95,21/20,127,96.0
182,C2,30.0,0.25,127,96.0
183,F#2,30.0,0.125,127,96.0
184,B2,30.5,0.75,127,96.0
185,F#2,30.5,0.125,60,96.0
186,A3,30.942,333/1000,127,96.0
187,C#2,31.0,0.25,127,96.0
188,F#2,31.0,0.125,127,96.0
189,A3,31.0,1/10,127,96.0
190,D4,31.0,1/10,127,96.0
191,D2,31.5,0.5,127,96.0
192,D3,31.5,0.5,127,96.0
193,C2,31.5,0.25,127,96.0
194,F#2,31.5,0.125,60,96.0
195,F#4,31.5,0.5,127,96.0
196,D4,31.5,0.5,127,96.0
197,D4,31.5,0.5,127,96.0
198,A3,31.5,0.5,127,96.0
199,D2,31.5,0.5,127,96.0
200,F#3,31.5,0.5,127,96.0
201,A3,31.508,0.25,127,96.0
202,D2,32.0,1.25,127,96.0
203,D3,32.0,0.25,127,96.0
204,F#2,32.0,0.125,127,96.0
205,F#4,32.0,667/1000,127,96.0
206,D4,32.0,667/1000,127,96.0
207,D4,32.0,1.25,127,96.0
208,A3,32.0,1.25,127,96.0
209,D2,32.0,1.25,127,96.0
210,F#3,32.0,1.25,127,96.0
211,D3,32.5,0.75,127,96.0
212,F#2,32.5,0.125,60,96.0
213,C4,32.542,333/1000,127,96.0
214,C#2,33.0,0.25,127,96.0
215,F#2,33.0,0.125,127,96.0
216,F#4,33.0,1/10,127,96.0
217,D4,33.0,1/10,127,96.0
218,A1,33.5,427/250,127,96.0
219,A2,33.5,0.75,127,96.0
220,C4,33.5,2.375,127,96.0
221,C2,33.5,0.25,127,96.0
222,F#2,33.5,0.125,60,96.0
223,E4,33.5,1167/1000,127,96.0
224,C4,33.5,1167/1000,127,96.0
225,G3,33.5,1167/1000,127,96.0
226,E3,33.5,249/125,127,96.0
227,G3,33.5,249/125,127,96.0
228,A1,33.5,249/125,127,96.0
229,C4,33.5,249/125,127,96.0
230,C2,34.0,0.25,127,96.0
231,F#2,34.0,0.125,127,96.0
232,A2,34.5,0.75,127,96.0
233,F#2,34.5,0.125,60,96.0
234,C#2,35.0,0.25,127,96.0
235,F#2,35.0,0.125,127,96.0
236,C4,35.0,0.75,127,96.0
237,E4,35.0,0.75,127,96.0
238,G3,35.0,0.75,127,96.0
239,A1,35.5,123/250,127,96.0
240,A2,35.5,0.25,127,96.0
241,B-2,35.5,0.5,127,96.0
242,G1,36.0,1.25,127,96.0
243,G2,36.0,1167/1000,127,96.0
244,C2,36.0,0.25,127,96.0
245,G#2,36.0,0.125,127,96.0
246,G2,36.0,1.25,127,96.0
247,B3,36.0,1.25,127,96.0
248,G3,36.0,1.25,127,96.0
249,D4,36.0,1.25,127,96.0
250,F#2,36.5,0.125,60,96.0
251,B3,36.525,26/125,127,96.0
252,B3,36.75,167/1000,127,96.0
253,D4,36.875,167/1000,127,96.0
254,B3,36.95,583/1000,127,96.0
255,G4,37.0,167/1000,127,96.0
256,C4,37.0,0.5,127,96.0
257,C#2,37.0,0.25,127,96.0
258,F#2,37.0,0.125,127,96.0
259,D4,37.458,233/1000,127,96.0
260,D2,37.5,1.75,127,96.0
261,C2,37.5,0.25,127,96.0
262,F#2,37.5,0.125,60,96.0
263,D3,37.5,124/125,127,96.0
264,F#4,37.5,124/125,127,96.0
265,D4,37.5,124/125,127,96.0
266,A3,37.5,124/125,127,96.0
267,F#3,37.5,1.75,127,96.0
268,A3,37.5,1.75,127,96.0
269,D4,37.5,1.75,127,96.0
270,D2,37.5,1.75,127,96.0
271,D4,37.942,1133/1000,127,96.0
272,C2,38.0,0.25,127,96.0
273,F#2,38.0,0.125,127,96.0
274,D3,38.5,667/1000,127,96.0
275,F#2,38.5,0.125,60,96.0
276,C#2,39.0,0.25,127,96.0
277,F#2,39.0,0.125,127,96.0
278,D4,39.0,1/10,127,96.0
279,F#4,39.0,1/10,127,96.0
280,A3,39.0,1/10,127,96.0
281,A3,39.017,26/125,127,96.0
282,F2,39.5,0.5,127,96.0
283,A3,39.5,0.5,127,96.0
284,C2,39.5,0.25,127,96.0
285,F#2,39.5,0.125,60,96.0
286,A3,39.5,0.5,127,96.0
287,D4,39.5,0.5,127,96.0
288,F4,39.5,0.5,127,96.0
289,F3,39.5,0.5,127,96.0
290,F2,39.5,0.5,127,96.0
291,D4,39.5,0.5,127,96.0
292,A3,39.5,0.5,127,96.0
293,F3,39.5,0.5,127,96.0
294,F2,40.0,1.25,127,96.0
295,A3,40.0,1017/1000,127,96.0
296,F#2,40.0,0.125,127,96.0
297,A3,40.0,123/250,127,96.0
298,D4,40.0,123/250,127,96.0
299,F4,40.0,123/250,127,96.0
300,F3,40.0,123/250,127,96.0
301,F2,40.0,1.25,127,96.0
302,D4,40.0,1.25,127,96.0
303,A3,40.0,1.25,127,96.0
304,F3,40.0,1.25,127,96.0
305,F3,40.5,667/1000,127,96.0
306,F#2,40.5,0.125,60,96.0
307,B3,41.0,11/40,127,96.0
308,C#2,41.0,0.25,127,96.0
309,F#2,41.0,0.125,127,96.0
310,F4,41.0,1/10,127,96.0
311,A3,41.0,1/10,127,96.0
312,D4,41.0,1/10,127,96.0
313,C2,41.5,2.125,127,96.0
314,C4,41.5,124/125,127,96.0
315,C2,41.5,0.25,127,96.0
316,F#2,41.5,0.125,60,96.0
317,E4,41.5,124/125,127,96.0
318,G3,41.5,124/125,127,96.0
319,C3,41.5,124/125,127,96.0
320,C4,41.5,124/125,127,96.0
321,C4,41.5,249/125,127,96.0
322,E3,41.5,249/125,127,96.0
323,G3,41.5,249/125,127,96.0
324,C2,41.5,249/125,127,96.0
325,C2,42.0,0.25,127,96.0
326,F#2,42.0,0.125,127,96.0
327,C3,42.5,667/1000,127,96.0
328,B3,42.5,19/20,127,96.0
329,F#2,42.5,0.125,60,96.0
330,C#2,43.0,0.25,127,96.0
331,F#2,43.0,0.125,127,96.0
332,E4,43.0,124/125,127,96.0
333,G3,43.0,124/125,127,96.0
334,C4,43.0,124/125,127,96.0
335,C3,43.5,167/1000,127,96.0
336,G3,43.5,129/500,127,96.0
337,F#2,43.5,0.125,60,96.0
338,G1,44.0,1333/1000,127,96.0
339,G2,44.0,1167/1000,127,96.0
340,C2,44.0,0.25,127,96.0
341,F#2,44.0,0.125,127,96.0
342,G3,44.0,1.25,127,96.0
343,B3,44.0,1.25,127,96.0
344,D4,44.0,1.25,127,96.0
345,G2,44.0,1.25,127,96.0
346,F#2,44.5,0.125,60,96.0
347,G3,44.55,26/125,127,96.0
348,B3,44.75,167/1000,127,96.0
349,D4,44.875,167/1000,127,96.0
350,G4,45.0,167/1000,127,96.0
351,C4,45.0,0.5,127,96.0
352,C#2,45.0,0.25,127,96.0
353,F#2,45.0,0.125,127,96.0
354,G3,45.017,271/500,127,96.0
355,C2,45.5,0.25,127,96.0
356,F#2,45.5,0.125,60,96.0
357,F2,45.5,1.75,127,96.0
358,F1,45.5,1.75,127,96.0
359,A3,45.5,124/125,127,96.0
360,F4,45.5,124/125,127,96.0
361,D4,45.5,124/125,127,96.0
362,F2,45.5,124/125,127,96.0
363,D4,45.5,1.75,127,96.0
364,A3,45.5,1.75,127,96.0
365,F2,45.5,1.75,127,96.0
366,F3,45.5,1.75,127,96.0
367,A3,45.517,217/1000,127,96.0
368,A3,46.0,279/500,127,96.0
369,C2,46.0,0.25,127,96.0
370,F#2,46.0,0.125,127,96.0
371,F2,46.5,667/1000,127,96.0
372,F#2,46.5,0.125,60,96.0
373,B3,46.517,617/1000,127,96.0
374,C#2,47.0,0.25,127,96.0
375,F#2,47.0,0.125,127,96.0
376,F4,47.0,1/10,127,96.0
377,A3,47.0,1/10,127,96.0
378,D4,47.0,1/10,127,96.0
379,B3,47.467,533/1000,127,96.0
380,C2,47.5,0.25,127,96.0
381,F#2,47.5,0.125,60,96.0
382,E2,47.5,0.5,127,96.0
383,E1,47.5,0.5,127,96.0
384,B3,47.5,0.5,127,96.0
385,G3,47.5,0.5,127,96.0
386,E4,47.5,0.5,127,96.0
387,E2,47.5,0.5,127,96.0
388,E3,47.5,0.5,127,96.0
389,D4,47.5,0.5,127,96.0
390,G3,47.5,0.5,127,96.0
391,E2,47.5,0.5,127,96.0
392,B3,48.0,1371/500,127,96.0
393,F#2,48.0,0.125,127,96.0
394,E2,48.0,3667/1000,127,96.0
395,E1,48.0,3667/1000,127,96.0
396,B3,48.0,3.25,127,96.0
397,G3,48.0,3.25,127,96.0
398,E4,48.0,3.25,127,96.0
399,E2,48.0,3.25,127,96.0
400,E3,48.0,873/250,127,96.0
401,D4,48.0,873/250,127,96.0
402,G3,48.0,873/250,127,96.0
403,E2,48.0,873/250,127,96.0
404,F#2,48.5,0.125,60,96.0
405,C#2,49.0,0.25,127,96.0
406,F#2,49.0,0.125,127,96.0
407,C2,49.5,0.25,127,96.0
408,F#2,49.5,0.125,60,96.0
409,C2,50.0,0.25,127,96.0
410,F#2,50.0,0.125,127,96.0
411,F#2,50.5,0.125,60,96.0
412,C#2,51.0,0.25,127,96.0
413,F#2,51.0,0.125,127,96.0
414,B-2,51.5,0.5,127,96.0
415,C6,51.75,0.25,127,96.0
416,E2,52.0,1.25,127,96.0
417,E3,52.0,373/250,127,96.0
418,C2,52.0,0.25,127,96.0
419,G#2,52.0,0.125,127,96.0
420,C6,52.0,0.75,127,96.0
421,G3,52.0,1.25,127,96.0
422,E4,52.0,1.25,127,96.0
423,E2,52.0,1.25,127,96.0
424,B3,52.0,1.25,127,96.0
425,B3,52.5,123/250,127,96.0
426,F#2,52.5,0.125,60,96.0
427,B3,52.55,217/1000,127,96.0
428,C4,53.0,0.5,127,96.0
429,C#2,53.0,0.25,127,96.0
430,F#2,53.0,0.125,127,96.0
431,G4,53.0,1/10,127,96.0
432,D4,53.0,1/10,127,96.0
433,B3,53.008,271/500,127,96.0
434,D4,53.483,24/125,127,96.0
435,B1,53.5,1.75,127,96.0
436,B2,53.5,0.75,127,96.0
437,C2,53.5,0.25,127,96.0
438,F#2,53.5,0.125,60,96.0
439,D4,53.5,1.25,127,96.0
440,A3,53.5,1.25,127,96.0
441,B3,53.5,1.75,127,96.0
442,F#3,53.5,1.75,127,96.0
443,B1,53.5,1.75,127,96.0
444,D4,53.5,1.75,127,96.0
445,D4,54.0,41/40,127,96.0
446,C2,54.0,0.25,127,96.0
447,F#2,54.0,0.125,127,96.0
448,B2,54.5,0.75,127,96.0
449,F#2,54.5,0.125,60,96.0
450,A3,54.983,121/500,127,96.0
451,C#2,55.0,0.25,127,96.0
452,F#2,55.0,0.125,127,96.0
453,A3,55.0,1/10,127,96.0
454,D4,55.0,1/10,127,96.0
455,D2,55.5,0.5,127,96.0
456,D3,55.5,0.5,127,96.0
457,A3,55.5,0.5,127,96.0
458,C2,55.5,0.25,127,96.0
459,F#2,55.5,0.125,60,96.0
460,F#4,55.5,0.5,127,96.0
461,D4,55.5,0.5,127,96.0
462,D2,55.5,0.5,127,96.0
463,A3,55.5,0.5,127,96.0
464,F#3,55.5,0.5,127,96.0
465,D4,55.5,0.5,127,96.0
466,D2,56.0,1.25,127,96.0
467,D3,56.0,0.25,127,96.0
468,A3,56.0,9/20,127,96.0
469,F#2,56.0,0.125,127,96.0
470,F#4,56.0,667/1000,127,96.0
471,D4,56.0,667/1000,127,96.0
472,D2,56.0,1.25,127,96.0
473,A3,56.0,1.25,127,96.0
474,F#3,56.0,1.25,127,96.0
475,D4,56.0,1.25,127,96.0
476,C4,56.492,683/1000,127,96.0
477,D3,56.5,0.75,127,96.0
478,F#2,56.5,0.125,60,96.0
479,C#2,57.0,0.25,127,96.0
480,F#2,57.0,0.125,127,96.0
481,F#4,57.0,1/10,127,96.0
482,D4,57.0,1/10,127,96.0
483,A1,57.5,2033/1000,127,96.0
484,A2,57.5,0.75,127,96.0
485,C4,57.5,11/10,127,96.0
486,C2,57.5,0.25,127,96.0
487,F#2,57.5,0.125,60,96.0
488,E4,57.5,1167/1000,127,96.0
489,C4,57.5,1167/1000,127,96.0
490,G3,57.5,1167/1000,127,96.0
491,C4,57.5,249/125,127,96.0
492,E3,57.5,249/125,127,96.0
493,A1,57.5,249/125,127,96.0
494,G3,57.5,249/125,127,96.0
495,C2,58.0,0.25,127,96.0
496,F#2,58.0,0.125,127,96.0
497,A2,58.5,0.75,127,96.0
498,F#2,58.5,0.125,60,96.0
499,B3,58.55,217/1000,127,96.0
500,C#2,59.0,0.25,127,96.0
501,F#2,59.0,0.125,127,96.0
502,C4,59.0,0.75,127,96.0
503,E4,59.0,0.75,127,96.0
504,G3,59.0,0.75,127,96.0
505,B3,59.017,39/40,127,96.0
506,A2,59.5,0.25,127,96.0
507,F#2,59.5,0.125,60,96.0
508,E2,60.0,1.25,127,96.0
509,C2,60.0,0.25,127,96.0
510,F#2,60.0,0.125,127,96.0
511,E2,60.0,373/250,127,96.0
512,E3,60.0,373/250,127,96.0
513,E4,60.0,1.25,127,96.0
514,G3,60.0,1.25,127,96.0
515,E2,60.0,1.25,127,96.0
516,B3,60.0,1.25,127,96.0
517,B3,60.5,123/250,127,96.0
518,F#2,60.5,0.125,60,96.0
519,B3,60.525,26/125,127,96.0
520,B3,60.967,517/1000,127,96.0
521,C4,61.0,0.5,127,96.0
522,C#2,61.0,0.25,127,96.0
523,F#2,61.0,0.125,127,96.0
524,G4,61.0,1/10,127,96.0
525,D4,61.0,1/10,127,96.0
526,D4,61.433,26/125,127,96.0
527,B1,61.5,1.75,127,96.0
528,B2,61.5,0.75,127,96.0
529,C2,61.5,0.25,127,96.0
530,F#2,61.5,0.125,60,96.0
531,D4,61.5,1.25,127,96.0
532,A3,61.5,1.25,127,96.0
533,F#3,61.5,1.75,127,96.0
534,D4,61.5,1.75,127,96.0
535,B1,61.5,1.75,127,96.0
536,B3,61.5,1.75,127,96.0
537,D4,61.967,21/20,127,96.0
538,C2,62.0,0.25,127,96.0
539,F#2,62.0,0.125,127,96.0
540,B2,62.5,0.75,127,96.0
541,F#2,62.5,0.125,60,96.0
542,A3,62.975,9/40,127,96.0
543,C#2,63.0,0.25,127,96.0
544,F#2,63.0,0.125,127,96.0
545,A3,63.0,1/10,127,96.0
546,D4,63.0,1/10,127,96.0
547,A3,63.483,517/1000,127,96.0
548,D2,63.5,0.5,127,96.0
549,D3,63.5,0.5,127,96.0
550,C2,63.5,0.25,127,96.0
551,F#2,63.5,0.125,60,96.0
552,F#4,63.5,0.5,127,96.0
553,D4,63.5,0.5,127,96.0
554,D4,63.5,0.5,127,96.0
555,A3,63.5,0.5,127,96.0
556,D2,63.5,0.5,127,96.0
557,F#3,63.5,0.5,127,96.0
558,D2,64.0,1.25,127,96.0
559,D3,64.0,0.25,127,96.0
560,A3,64.0,271/500,127,96.0
561,F#2,64.0,0.125,127,96.0
562,F#4,64.0,667/1000,127,96.0
563,D4,64.0,667/1000,127,96.0
564,D4,64.0,1.25,127,96.0
565,A3,64.0,1.25,127,96.0
566,D2,64.0,1.25,127,96.0
567,F#3,64.0,1.25,127,96.0
568,C4,64.483,279/500,127,96.0
569,D3,64.5,0.75,127,96.0
570,F#2,64.5,0.125,60,96.0
571,C#2,65.0,0.25,127,96.0
572,F#2,65.0,0.125,127,96.0
573,F#4,65.0,1/10,127,96.0
574,D4,65.0,1/10,127,96.0
575,C4,65.467,1.0,127,96.0
576,A1,65.5,427/250,127,96.0
577,A2,65.5,0.75,127,96.0
578,C2,65.5,0.25,127,96.0
579,F#2,65.5,0.125,60,96.0
580,E4,65.5,1167/1000,127,96.0
581,C4,65.5,1167/1000,127,96.0
582,G3,65.5,1167/1000,127,96.0
583,E3,65.5,249/125,127,96.0
584,G3,65.5,249/125,127,96.0
585,A1,65.5,249/125,127,96.0
586,C4,65.5,249/125,127,96.0
587,C2,66.0,0.25,127,96.0
588,F#2,66.0,0.125,127,96.0
589,B3,66.45,521/500,127,96.0
590,A2,66.5,0.75,127,96.0
591,F#2,66.5,0.125,60,96.0
592,C#2,67.0,0.25,127,96.0
593,F#2,67.0,0.125,127,96.0
594,C4,67.0,0.75,127,96.0
595,E4,67.0,0.75,127,96.0
596,G3,67.0,0.75,127,96.0
597,A1,67.5,123/250,127,96.0
598,A2,67.5,0.25,127,96.0
599,B-2,67.5,0.5,127,96.0
600,G1,68.0,1.25,127,96.0
601,G2,68.0,1167/1000,127,96.0
602,C2,68.0,0.25,127,96.0
603,G#2,68.0,0.125,127,96.0
604,G2,68.0,1.25,127,96.0
605,B3,68.0,1.25,127,96.0
606,G3,68.0,1.25,127,96.0
607,D4,68.0,1.25,127,96.0
608,F#2,68.5,0.125,60,96.0
609,B3,68.542,233/1000,127,96.0
610,B3,68.75,167/1000,127,96.0
611,D4,68.875,167/1000,127,96.0
612,B3,68.975,74/125,127,96.0
613,G4,69.0,167/1000,127,96.0
614,C4,69.0,0.5,127,96.0
615,C#2,69.0,0.25,127,96.0
616,F#2,69.0,0.125,127,96.0
617,D4,69.492,567/1000,127,96.0
618,D2,69.5,1.75,127,96.0
619,C2,69.5,0.25,127,96.0
620,F#2,69.5,0.125,60,96.0
621,D3,69.5,124/125,127,96.0
622,F#4,69.5,124/125,127,96.0
623,D4,69.5,124/125,127,96.0
624,A3,69.5,124/125,127,96.0
625,F#3,69.5,1.75,127,96.0
626,A3,69.5,1.75,127,96.0
627,D4,69.5,1.75,127,96.0
628,D2,69.5,1.75,127,96.0
629,E4,69.992,21/40,127,96.0
630,C2,70.0,0.25,127,96.0
631,F#2,70.0,0.125,127,96.0
632,D4,70.475,73/250,127,96.0
633,D3,70.5,667/1000,127,96.0
634,F#2,70.5,0.125,60,96.0
635,D4,70.975,3/20,127,96.0
636,C#2,71.0,0.25,127,96.0
637,F#2,71.0,0.125,127,96.0
638,D4,71.0,1/10,127,96.0
639,F#4,71.0,1/10,127,96.0
640,A3,71.0,1/10,127,96.0
641,D4,71.492,127/250,127,96.0
642,F2,71.5,0.5,127,96.0
643,C2,71.5,0.25,127,96.0
644,F#2,71.5,0.125,60,96.0
645,A3,71.5,0.5,127,96.0
646,D4,71.5,0.5,127,96.0
647,F4,71.5,0.5,127,96.0
648,F3,71.5,0.5,127,96.0
649,F2,71.5,0.5,127,96.0
650,D4,71.5,0.5,127,96.0
651,A3,71.5,0.5,127,96.0
652,F3,71.5,0.5,127,96.0
653,F2,72.0,1.25,127,96.0
654,D4,72.0,271/500,127,96.0
655,F#2,72.0,0.125,127,96.0
656,A3,72.0,123/250,127,96.0
657,D4,72.0,123/250,127,96.0
658,F4,72.0,123/250,127,96.0
659,F3,72.0,123/250,127,96.0
660,F2,72.0,1.25,127,96.0
661,D4,72.0,1.25,127,96.0
662,A3,72.0,1.25,127,96.0
663,F3,72.0,1.25,127,96.0
664,F3,72.5,667/1000,127,96.0
665,F#2,72.5,0.125,60,96.0
666,C4,72.542,19/20,127,96.0
667,C#2,73.0,0.25,127,96.0
668,F#2,73.0,0.125,127,96.0
669,F4,73.0,1/10,127,96.0
670,A3,73.0,1/10,127,96.0
671,D4,73.0,1/10,127,96.0
672,B3,73.467,1033/1000,127,96.0
673,C2,73.5,2.125,127,96.0
674,C2,73.5,0.25,127,96.0
675,F#2,73.5,0.125,60,96.0
676,E4,73.5,124/125,127,96.0
677,G3,73.5,124/125,127,96.0
678,C3,73.5,124/125,127,96.0
679,C4,73.5,124/125,127,96.0
680,C4,73.5,249/125,127,96.0
681,E3,73.5,249/125,127,96.0
682,G3,73.5,249/125,127,96.0
683,C2,73.5,249/125,127,96.0
684,C2,74.0,0.25,127,96.0
685,F#2,74.0,0.125,127,96.0
686,C3,74.5,667/1000,127,96.0
687,F#2,74.5,0.125,60,96.0
688,G3,74.508,217/1000,127,96.0
689,C#2,75.0,0.25,127,96.0
690,F#2,75.0,0.125,127,96.0
691,E4,75.0,124/125,127,96.0
692,G3,75.0,124/125,127,96.0
693,C4,75.0,124/125,127,96.0
694,G3,75.008,4/5,127,96.0
695,C3,75.5,167/1000,127,96.0
696,F#2,75.5,0.125,60,96.0
697,G1,76.0,1333/1000,127,96.0
698,G2,76.0,1167/1000,127,96.0
699,C2,76.0,0.25,127,96.0
700,F#2,76.0,0.125,127,96.0
701,G3,76.0,1.25,127,96.0
702,B3,76.0,1.25,127,96.0
703,D4,76.0,1.25,127,96.0
704,G2,76.0,1.25,127,96.0
705,F#2,76.5,0.125,60,96.0
706,G3,76.542,233/1000,127,96.0
707,B3,76.75,167/1000,127,96.0
708,D4,76.875,167/1000,127,96.0
709,G4,77.0,167/1000,127,96.0
710,C4,77.0,0.5,127,96.0
711,C#2,77.0,0.25,127,96.0
712,F#2,77.0,0.125,127,96.0
713,G3,77.05,127/250,127,96.0
714,C2,77.5,0.25,127,96.0
715,F#2,77.5,0.125,60,96.0
716,F2,77.5,1.75,127,96.0
717,F1,77.5,1.75,127,96.0
718,A3,77.5,124/125,127,96.0
719,F4,77.5,124/125,127,96.0
720,D4,77.5,124/125,127,96.0
721,F2,77.5,124/125,127,96.0
722,D4,77.5,1.75,127,96.0
723,A3,77.5,1.75,127,96.0
724,F2,77.5,1.75,127,96.0
725,F3,77.5,1.75,127,96.0
726,A3,77.508,9/40,127,96.0
727,C2,78.0,0.25,127,96.0
728,F#2,78.0,0.125,127,96.0
729,A3,78.025,127/250,127,96.0
730,B3,78.475,74/125,127,96.0
731,F2,78.5,667/1000,127,96.0
732,F#2,78.5,0.125,60,96.0
733,C#2,79.0,0.25,127,96.0
734,F#2,79.0,0.125,127,96.0
735,F4,79.0,1/10,127,96.0
736,A3,79.0,1/10,127,96.0
737,D4,79.0,1/10,127,96.0
738,B3,79.5,0.5,127,96.0
739,C2,79.5,0.25,127,96.0
740,F#2,79.5,0.125,60,96.0
741,E2,79.5,0.5,127,96.0
742,E1,79.5,0.5,127,96.0
743,B3,79.5,0.5,127,96.0
744,G3,79.5,0.5,127,96.0
745,E4,79.5,0.5,127,96.0
746,E2,79.5,0.5,127,96.0
747,E3,79.5,0.5,127,96.0
748,D4,79.5,0.5,127,96.0
749,G3,79.5,0.5,127,96.0
750,E2,79.5,0.5,127,96.0
751,B3,80.0,101/40,127,96.0
752,F#2,80.0,0.125,127,96.0
753,E2,80.0,3667/1000,127,96.0
754,E1,80.0,3667/1000,127,96.0
755,B3,80.0,3.25,127,96.0
756,G3,80.0,3.25,127,96.0
757,E4,80.0,3.25,127,96.0
758,E2,80.0,3.25,127,96.0
759,E3,80.0,873/250,127,96.0
760,D4,80.0,873/250,127,96.0
761,G3,80.0,873/250,127,96.0
762,E2,80.0,873/250,127,96.0
763,C2,80.5,0.25,55,96.0
764,E2,80.5,0.25,55,96.0
765,F#2,80.5,0.125,60,96.0
766,C2,81.0,0.25,70,96.0
767,E2,81.0,0.25,70,96.0
768,F#2,81.0,0.125,127,96.0
769,C2,81.5,0.25,85,96.0
770,E2,81.5,0.25,85,96.0
771,F#2,81.5,0.125,60,96.0
772,C2,82.0,0.25,100,96.0
773,E2,82.0,0.25,100,96.0
774,F#2,82.0,0.125,127,96.0
775,C2,82.5,0.25,115,96.0
776,E2,82.5,0.25,115,96.0
777,C3,82.5,0.25,127,96.0
778,F#2,82.5,0.125,60,96.0
779,B3,83.0,1.0,127,96.0
780,C2,83.0,0.25,127,96.0
781,E2,83.0,0.25,127,96.0
782,A2,83.0,0.25,127,96.0
783,F#2,83.0,0.125,127,96.0
784,C2,83.5,0.25,127,96.0
785,E2,83.5,0.25,127,96.0
786,F2,83.5,0.25,127,96.0
787,F#2,83.5,0.125,60,96.0
788,E1,84.0,1.75,127,96.0
789,E3,84.0,123/250,127,96.0
790,B3,84.0,3383/1000,127,96.0
791,C2,84.0,0.25,127,96.0
792,C#3,84.0,0.5,127,96.0
793,F#2,84.0,0.125,127,96.0
794,F#3,84.0,0.125,127,96.0
795,G4,84.0,623/250,127,96.0
796,E4,84.0,623/250,127,96.0
797,E2,84.083,3917/1000,127,96.0
798,E3,84.083,3917/1000,127,96.0
799,B3,84.083,3917/1000,127,96.0
800,F#3,84.5,123/250,127,96.0
801,F#2,84.5,0.125,60,96.0
802,F#3,84.5,0.125,127,96.0
803,G3,85.0,123/250,127,96.0
804,E2,85.0,0.25,127,96.0
805,F#2,85.0,0.125,127,96.0
806,F#3,85.0,0.125,127,96.0
807,D4,85.5,249/125,127,96.0
808,F#2,85.5,0.125,60,96.0
809,F#3,85.5,0.125,127,96.0
810,G1,86.0,123/250,127,96.0
811,C2,86.0,0.25,127,96.0
812,F#2,86.0,0.125,127,96.0
813,F#3,86.0,0.125,127,96.0
814,A1,86.5,123/250,127,96.0
815,F#4,86.5,517/1000,127,96.0
816,F#2,86.5,0.125,60,96.0
817,F#3,86.5,0.125,127,96.0
818,B1,87.0,167/1000,127,96.0
819,E2,87.0,0.25,127,96.0
820,F#2,87.0,0.125,127,96.0
821,F#3,87.0,0.125,127,96.0
822,E4,87.0,2/5,127,96.0
823,D4,87.0,2/5,127,96.0
824,A1,87.5,0.5,127,96.0
825,A3,87.5,0.5,127,96.0
826,C2,87.5,0.25,127,96.0
827,F#2,87.5,0.125,60,96.0
828,F#3,87.5,0.125,127,96.0
829,D4,87.5,0.5,127,96.0
830,E4,87.5,0.5,127,96.0
831,A1,88.0,2.75,127,96.0
832,E3,88.0,123/250,127,96.0
833,A3,88.0,3067/1000,127,96.0
834,C2,88.0,0.25,127,96.0
835,F#2,88.0,0.125,127,96.0
836,F#3,88.0,0.125,127,96.0
837,E2,88.0,3/40,127,96.0
838,E3,88.0,3/40,127,96.0
839,B3,88.0,3/40,127,96.0
840,D4,88.0,0.5,127,96.0
841,E4,88.0,0.5,127,96.0
842,A2,88.083,3917/1000,127,96.0
843,E3,88.083,3917/1000,127,96.0
844,C#4,88.083,3917/1000,127,96.0
845,F#3,88.5,123/250,127,96.0
846,F#2,88.5,0.125,60,96.0
847,F#3,88.5,0.125,127,96.0
848,B3,88.5,1.75,127,96.0
849,C#4,88.5,1.75,127,96.0
850,G3,89.0,123/250,127,96.0
851,E2,89.0,0.25,127,96.0
852,F#2,89.0,0.125,127,96.0
853,F#3,89.0,0.125,127,96.0
854,C#4,89.5,249/125,127,96.0
855,F#2,89.5,0.125,60,96.0
856,F#3,89.5,0.125,127,96.0
857,C2,90.0,0.25,127,96.0
858,F#2,90.0,0.125,127,96.0
859,F#3,90.0,0.125,127,96.0
860,F#2,90.5,0.125,60,96.0
861,F#3,90.5,0.125,127,96.0
862,C#4,90.5,0.75,127,96.0
863,E4,90.5,0.75,127,96.0
864,D1,91.0,123/250,127,96.0
865,E2,91.0,0.25,127,96.0
866,F#2,91.0,0.125,127,96.0
867,F#3,91.0,0.125,127,96.0
868,E4,91.35,583/1000,127,96.0
869,A4,91.35,583/1000,127,96.0
870,E-1,91.5,123/250,127,96.0
871,F#3,91.5,123/250,127,96.0
872,C2,91.5,0.25,127,96.0
873,F#2,91.5,0.125,60,96.0
874,F#3,91.5,0.125,127,96.0
875,E1,92.0,1.75,127,96.0
876,E3,92.0,123/250,127,96.0
877,B3,92.0,39/10,127,96.0
878,C2,92.0,0.25,127,96.0
879,F#2,92.0,0.125,127,96.0
880,F#3,92.0,0.125,127,96.0
881,A2,92.0,3/40,127,96.0
882,E3,92.0,3/40,127,96.0
883,C#4,92.0,3/40,127,96.0
884,G4,92.0,929/500,127,96.0
885,D4,92.0,929/500,127,96.0
886,E3,92.083,3917/1000,127,96.0
887,E2,92.083,3917/1000,127,96.0
888,B3,92.083,3917/1000,127,96.0
889,F#3,92.5,123/250,127,96.0
890,F#2,92.5,0.125,60,96.0
891,F#3,92.5,0.125,127,96.0
892,G3,93.0,123/250,127,96.0
893,E2,93.0,0.25,127,96.0
894,F#2,93.0,0.125,127,96.0
895,F#3,93.0,0.125,127,96.0
896,D4,93.5,249/125,127,96.0
897,F#2,93.5,0.125,60,96.0
898,F#3,93.5,0.125,127,96.0
899,G1,94.0,123/250,127,96.0
900,C2,94.0,0.25,127,96.0
901,F#2,94.0,0.125,127,96.0
902,F#3,94.0,0.125,127,96.0
903,D4,94.0,371/500,127,96.0
904,G4,94.0,371/500,127,96.0
905,A1,94.5,123/250,127,96.0
906,F#2,94.5,0.125,60,96.0
907,F#3,94.5,0.125,127,96.0
908,F#4,94.808,833/1000,127,96.0
909,B1,95.0,167/1000,127,96.0
910,E2,95.0,0.25,127,96.0
911,F#2,95.0,0.125,127,96.0
912,F#3,95.0,0.125,127,96.0
913,A1,95.5,0.5,127,96.0
914,F#3,95.5,123/250,127,96.0
915,C2,95.5,0.25,127,96.0
916,F#2,95.5,0.125,60,96.0
917,F#3,95.5,0.125,127,96.0
918,E4,95.5,467/1000,127,96.0
919,D4,95.5,467/1000,127,96.0
920,A1,96.0,2.75,127,96.0
921,E3,96.0,123/250,127,96.0
922,A3,96.0,4.0,127,96.0
923,C2,96.0,0.25,127,96.0
924,F#2,96.0,0.125,127,96.0
925,F#3,96.0,0.125,127,96.0
926,E3,96.0,3/40,127,96.0
927,E2,96.0,3/40,127,96.0
928,B3,96.0,3/40,127,96.0
929,E4,96.0,124/125,127,96.0
930,D4,96.0,124/125,127,96.0
931,A2,96.083,3917/1000,127,96.0
932,C#4,96.083,3917/1000,127,96.0
933,E3,96.083,3917/1000,127,96.0
934,F#3,96.5,123/250,127,96.0
935,F#2,96.5,0.125,60,96.0
936,F#3,96.5,0.125,127,96.0
937,G3,97.0,123/250,127,96.0
938,E2,97.0,0.25,127,96.0
939,F#2,97.0,0.125,127,96.0
940,F#3,97.0,0.125,127,96.0
941,B3,97.0,921/500,127,96.0
942,C#4,97.0,921/500,127,96.0
943,C#4,97.5,249/125,127,96.0
944,F#2,97.5,0.125,60,96.0
945,F#3,97.5,0.125,127,96.0
946,C2,98.0,0.25,127,96.0
947,F#2,98.0,0.125,127,96.0
948,F#3,98.0,0.125,127,96.0
949,F#2,98.5,0.125,60,96.0
950,F#3,98.5,0.125,127,96.0
951,A1,99.0,124/125,127,96.0
952,E2,99.0,0.25,127,96.0
953,F#2,99.0,0.125,127,96.0
954,F#3,99.0,0.125,127,96.0
955,C#4,99.0,9/10,127,96.0
956,B3,99.0,9/10,127,96.0
957,F#2,99.5,0.125,60,96.0
958,F#3,99.5,0.125,127,96.0
959,G1,100.0,124/125,127,96.0
960,E3,100.0,123/250,127,96.0
961,G3,100.0,19/5,127,96.0
962,A3,100.0,33/1000,127,96.0
963,C2,100.0,0.25,127,96.0
964,C#3,100.0,0.5,127,96.0
965,F#2,100.0,0.125,127,96.0
966,F#3,100.0,0.125,127,96.0
967,A2,100.0,3/40,127,96.0
968,C#4,100.0,3/40,127,96.0
969,E3,100.0,3/40,127,96.0
970,C#4,100.0,1383/1000,127,96.0
971,B3,100.0,1383/1000,127,96.0
972,D4,100.083,3917/1000,127,96.0
973,G3,100.083,3917/1000,127,96.0
974,G2,100.083,3917/1000,127,96.0
975,F#3,100.5,123/250,127,96.0
976,F#2,100.5,0.125,60,96.0
977,F#3,100.5,0.125,127,96.0
978,A2,101.0,167/1000,127,96.0
979,G3,101.0,123/250,127,96.0
980,E2,101.0,0.25,127,96.0
981,F#2,101.0,0.125,127,96.0
982,F#3,101.0,0.125,127,96.0
983,D4,101.5,249/125,127,96.0
984,C2,101.5,0.25,127,96.0
985,A3,101.5,0.5,127,96.0
986,F#2,101.5,0.125,60,96.0
987,F#3,101.5,0.125,127,96.0
988,G1,101.5,2333/1000,127,96.0
989,G2,101.5,2333/1000,127,96.0
990,A3,101.5,577/250,127,96.0
991,B3,101.5,577/250,127,96.0
992,F#2,102.0,0.125,127,96.0
993,F#3,102.0,0.125,127,96.0
994,F#2,102.5,0.125,60,96.0
995,F#3,102.5,0.125,127,96.0
996,D5,103.0,123/250,127,96.0
997,E2,103.0,0.25,127,96.0
998,F#2,103.0,0.125,127,96.0
999,F#3,103.0,0.125,127,96.0
1000,G3,103.5,123/250,127,96.0
1001,C5,103.5,123/250,127,96.0
1002,C2,103.5,0.25,127,96.0
1003,F#2,103.5,0.125,60,96.0
1004,F#3,103.5,0.125,127,96.0
1005,F1,104.0,124/125,127,96.0
1006,F3,104.0,123/250,127,96.0
1007,B4,104.0,1333/1000,127,96.0
1008,F3,104.0,3733/1000,127,96.0
1009,C2,104.0,0.25,127,96.0
1010,C#3,104.0,0.5,127,96.0
1011,F#2,104.0,0.125,127,96.0
1012,F#3,104.0,0.125,127,96.0
1013,D4,104.0,3/40,127,96.0
1014,G3,104.0,3/40,127,96.0
1015,G2,104.0,3/40,127,96.0
1016,G3,104.0,59/40,127,96.0
1017,B3,104.0,59/40,127,96.0
1018,F3,104.083,3917/1000,127,96.0
1019,F2,104.083,3917/1000,127,96.0
1020,E4,104.083,3917/1000,127,96.0
1021,G3,104.5,123/250,127,96.0
1022,F#2,104.5,0.125,60,96.0
1023,F#3,104.5,0.125,127,96.0
1024,C2,105.0,167/1000,127,96.0
1025,A3,105.0,123/250,127,96.0
1026,E2,105.0,0.25,127,96.0
1027,F#2,105.0,0.125,127,96.0
1028,F#3,105.0,0.125,127,96.0
1029,E4,105.5,249/125,127,96.0
1030,C5,105.5,2.0,127,96.0
1031,C2,105.5,0.25,127,96.0
1032,A3,105.5,0.5,127,96.0
1033,F#2,105.5,0.125,60,96.0
1034,F#3,105.5,0.125,127,96.0
1035,F2,105.5,2333/1000,127,96.0
1036,F1,105.5,2333/1000,127,96.0
1037,A3,105.5,573/250,127,96.0
1038,C4,105.5,573/250,127,96.0
1039,F#2,106.0,0.125,127,96.0
1040,F#3,106.0,0.125,127,96.0
1041,C3,106.417,0.25,127,96.0
1042,B3,106.5,121/500,105,96.0
1043,F#2,106.5,0.125,60,96.0
1044,F#3,106.5,0.125,127,96.0
1045,B2,106.583,0.25,127,96.0
1046,D4,106.75,124/125,101,96.0
1047,C2,107.0,0.25,127,96.0
1048,F2,107.0,0.25,127,96.0
1049,F#2,107.0,0.125,127,96.0
1050,F#3,107.0,0.125,127,96.0
1051,B-2,107.5,0.5,127,96.0
1052,B3,107.75,121/500,86,96.0
1053,C6,107.75,0.25,127,96.0
1054,E2,108.0,1.25,127,96.0
1055,E3,108.0,373/250,127,96.0
1056,E4,108.0,4.0,108,96.0
1057,C2,108.0,0.25,127,96.0
1058,G#2,108.0,0.125,127,96.0
1059,C6,108.0,0.75,127,96.0
1060,G3,108.0,1.25,127,96.0
1061,E4,108.0,1.25,127,96.0
1062,E2,108.0,1.25,127,96.0
1063,B3,108.0,1.25,127,96.0
1064,F3,108.0,3/40,127,96.0
1065,F2,108.0,3/40,127,96.0
1066,E4,108.0,3/40,127,96.0
1067,B3,108.5,123/250,127,96.0
1068,B3,108.5,233/1000,127,96.0
1069,F#2,108.5,0.125,60,96.0
1070,C4,109.0,0.5,127,96.0
1071,B3,109.0,21/40,127,96.0
1072,C#2,109.0,0.25,127,96.0
1073,F#2,109.0,0.125,127,96.0
1074,G4,109.0,1/10,127,96.0
1075,D4,109.0,1/10,127,96.0
1076,D4,109.45,11/40,127,96.0
1077,B1,109.5,1.75,127,96.0
1078,B2,109.5,0.75,127,96.0
1079,C2,109.5,0.25,127,96.0
1080,F#2,109.5,0.125,60,96.0
1081,D4,109.5,1.25,127,96.0
1082,A3,109.5,1.25,127,96.0
1083,B3,109.5,1.75,127,96.0
1084,F#3,109.5,1.75,127,96.0
1085,B1,109.5,1.75,127,96.0
1086,D4,109.5,1.75,127,96.0
1087,D4,109.975,1117/1000,127,96.0
1088,C2,110.0,0.25,127,96.0
1089,F#2,110.0,0.125,127,96.0
1090,B2,110.5,0.75,127,96.0
1091,F#2,110.5,0.125,60,96.0
1092,C#2,111.0,0.25,127,96.0
1093,F#2,111.0,0.125,127,96.0
1094,A3,111.0,1/10,127,96.0
1095,D4,111.0,1/10,127,96.0
1096,A3,111.033,267/1000,127,96.0
1097,D2,111.5,0.5,127,96.0
1098,D3,111.5,0.5,127,96.0
1099,C2,111.5,0.25,127,96.0
1100,F#2,111.5,0.125,60,96.0
1101,F#4,111.5,0.5,127,96.0
1102,D4,111.5,0.5,127,96.0
1103,D2,111.5,0.5,127,96.0
1104,A3,111.5,0.5,127,96.0
1105,F#3,111.5,0.5,127,96.0
1106,D4,111.5,0.5,127,96.0
1107,A3,111.517,483/1000,127,96.0
1108,D2,112.0,1.25,127,96.0
1109,D3,112.0,0.25,127,96.0
1110,A3,112.0,221/500,127,96.0
1111,F#2,112.0,0.125,127,96.0
1112,F#4,112.0,667/1000,127,96.0
1113,D4,112.0,667/1000,127,96.0
1114,D2,112.0,1.25,127,96.0
1115,A3,112.0,1.25,127,96.0
1116,F#3,112.0,1.25,127,96.0
1117,D4,112.0,1.25,127,96.0
1118,D3,112.5,0.75,127,96.0
1119,F#2,112.5,0.125,60,96.0
1120,C4,112.55,329/500,127,96.0
1121,C#2,113.0,0.25,127,96.0
1122,F#2,113.0,0.125,127,96.0
1123,F#4,113.0,1/10,127,96.0
1124,D4,113.0,1/10,127,96.0
1125,A1,113.5,2033/1000,127,96.0
1126,A2,113.5,0.75,127,96.0
1127,C2,113.5,0.25,127,96.0
1128,F#2,113.5,0.125,60,96.0
1129,E4,113.5,1167/1000,127,96.0
1130,C4,113.5,1167/1000,127,96.0
1131,G3,113.5,1167/1000,127,96.0
1132,C4,113.5,249/125,127,96.0
1133,E3,113.5,249/125,127,96.0
1134,A1,113.5,249/125,127,96.0
1135,G3,113.5,249/125,127,96.0
1136,C4,113.583,523/250,127,96.0
1137,C2,114.0,0.25,127,96.0
1138,F#2,114.0,0.125,127,96.0
1139,A2,114.5,0.75,127,96.0
1140,F#2,114.5,0.125,60,96.0
1141,C#2,115.0,0.25,127,96.0
1142,F#2,115.0,0.125,127,96.0
1143,C4,115.0,0.75,127,96.0
1144,E4,115.0,0.75,127,96.0
1145,G3,115.0,0.75,127,96.0
1146,A2,115.5,0.25,127,96.0
1147,F#2,115.5,0.125,60,96.0
1148,E2,116.0,1.25,127,96.0
1149,C2,116.0,0.25,127,96.0
1150,F#2,116.0,0.125,127,96.0
1151,E2,116.0,373/250,127,96.0
1152,E3,116.0,373/250,127,96.0
1153,E4,116.0,1.25,127,96.0
1154,G3,116.0,1.25,127,96.0
1155,E2,116.0,1.25,127,96.0
1156,B3,116.0,1.25,127,96.0
1157,B3,116.492,183/1000,127,96.0
1158,B3,116.5,123/250,127,96.0
1159,F#2,116.5,0.125,60,96.0
1160,B3,116.933,3/5,127,96.0
1161,C4,117.0,0.5,127,96.0
1162,C#2,117.0,0.25,127,96.0
1163,F#2,117.0,0.125,127,96.0
1164,G4,117.0,1/10,127,96.0
1165,D4,117.0,1/10,127,96.0
1166,D4,117.458,9/40,127,96.0
1167,B1,117.5,1.75,127,96.0
1168,B2,117.5,0.75,127,96.0
1169,C2,117.5,0.25,127,96.0
1170,F#2,117.5,0.125,60,96.0
1171,D4,117.5,1.25,127,96.0
1172,A3,117.5,1.25,127,96.0
1173,F#3,117.5,1.75,127,96.0
1174,D4,117.5,1.75,127,96.0
1175,B1,117.5,1.75,127,96.0
1176,B3,117.5,1.75,127,96.0
1177,D4,117.933,76/125,127,96.0
1178,C2,118.0,0.25,127,96.0
1179,F#2,118.0,0.125,127,96.0
1180,A3,118.492,9/40,127,96.0
1181,B2,118.5,0.75,127,96.0
1182,F#2,118.5,0.125,60,96.0
1183,A3,118.958,73/250,127,96.0
1184,C#2,119.0,0.25,127,96.0
1185,F#2,119.0,0.125,127,96.0
1186,A3,119.0,1/10,127,96.0
1187,D4,119.0,1/10,127,96.0
1188,D2,119.5,0.5,127,96.0
1189,D3,119.5,0.5,127,96.0
1190,C2,119.5,0.25,127,96.0
1191,F#2,119.5,0.125,60,96.0
1192,F#4,119.5,0.5,127,96.0
1193,D4,119.5,0.5,127,96.0
1194,D4,119.5,0.5,127,96.0
1195,A3,119.5,0.5,127,96.0
1196,D2,119.5,0.5,127,96.0
1197,F#3,119.5,0.5,127,96.0
1198,A3,119.533,467/1000,127,96.0
1199,D2,120.0,1.25,127,96.0
1200,D3,120.0,0.25,127,96.0
1201,A3,120.0,127/250,127,96.0
1202,F#2,120.0,0.125,127,96.0
1203,F#4,120.0,667/1000,127,96.0
1204,D4,120.0,667/1000,127,96.0
1205,D4,120.0,1.25,127,96.0
1206,A3,120.0,1.25,127,96.0
1207,D2,120.0,1.25,127,96.0
1208,F#3,120.0,1.25,127,96.0
1209,D3,120.5,0.75,127,96.0
1210,F#2,120.5,0.125,60,96.0
1211,C4,120.533,533/1000,127,96.0
1212,C#2,121.0,0.25,127,96.0
1213,F#2,121.0,0.125,127,96.0
1214,F#4,121.0,1/10,127,96.0
1215,D4,121.0,1/10,127,96.0
1216,C4,121.492,2067/1000,127,96.0
1217,A1,121.5,427/250,127,96.0
1218,A2,121.5,0.75,127,96.0
1219,C2,121.5,0.25,127,96.0
1220,F#2,121.5,0.125,60,96.0
1221,E4,121.5,1167/1000,127,96.0
1222,C4,121.5,1167/1000,127,96.0
1223,G3,121.5,1167/1000,127,96.0
1224,E3,121.5,249/125,127,96.0
1225,G3,121.5,249/125,127,96.0
1226,A1,121.5,249/125,127,96.0
1227,C4,121.5,249/125,127,96.0
1228,C2,122.0,0.25,127,96.0
1229,F#2,122.0,0.125,127,96.0
1230,A2,122.5,0.75,127,96.0
1231,B4,122.5,123/250,127,96.0
1232,F#2,122.5,0.125,60,96.0
1233,F#5,123.0,123/250,127,96.0
1234,C#2,123.0,0.25,127,96.0
1235,F#2,123.0,0.125,127,96.0
1236,C4,123.0,0.75,127,96.0
1237,E4,123.0,0.75,127,96.0
1238,G3,123.0,0.75,127,96.0
1239,A1,123.5,123/250,127,96.0
1240,A2,123.5,0.25,127,96.0
1241,E5,123.5,121/500,127,96.0
1242,B-2,123.5,0.5,127,96.0
1243,F#5,123.75,0.25,127,96.0
1244,C6,123.75,0.25,127,96.0
1245,G1,124.0,1.25,127,96.0
1246,G2,124.0,1167/1000,127,96.0
1247,F#5,124.0,1.75,127,96.0
1248,C2,124.0,0.25,127,96.0
1249,G#2,124.0,0.125,127,96.0
1250,C6,124.0,0.75,127,96.0
1251,G2,124.0,1.25,127,96.0
1252,B3,124.0,1.25,127,96.0
1253,G3,124.0,1.25,127,96.0
1254,D4,124.0,1.25,127,96.0
1255,F#2,124.5,0.125,60,96.0
1256,B3,124.525,217/1000,127,96.0
1257,B3,124.75,167/1000,127,96.0
1258,D4,124.875,167/1000,127,96.0
1259,B3,124.975,3/5,127,96.0
1260,G4,125.0,167/1000,127,96.0
1261,C4,125.0,0.5,127,96.0
1262,C#2,125.0,0.25,127,96.0
1263,F#2,125.0,0.125,127,96.0
1264,D2,125.5,1.75,127,96.0
1265,C2,125.5,0.25,127,96.0
1266,F#2,125.5,0.125,60,96.0
1267,D3,125.5,124/125,127,96.0
1268,F#4,125.5,124/125,127,96.0
1269,D4,125.5,124/125,127,96.0
1270,A3,125.5,124/125,127,96.0
1271,F#3,125.5,1.75,127,96.0
1272,A3,125.5,1.75,127,96.0
1273,D4,125.5,1.75,127,96.0
1274,D2,125.5,1.75,127,96.0
1275,D4,125.525,21/40,127,96.0
1276,C2,126.0,0.25,127,96.0
1277,F#2,126.0,0.125,127,96.0
1278,E4,126.008,533/1000,127,96.0
1279,D4,126.483,283/1000,127,96.0
1280,D3,126.5,667/1000,127,96.0
1281,F#2,126.5,0.125,60,96.0
1282,D4,126.975,167/1000,127,96.0
1283,C#2,127.0,0.25,127,96.0
1284,F#2,127.0,0.125,127,96.0
1285,D4,127.0,1/10,127,96.0
1286,F#4,127.0,1/10,127,96.0
1287,A3,127.0,1/10,127,96.0
1288,F2,127.5,0.5,127,96.0
1289,C2,127.5,0.25,127,96.0
1290,F#2,127.5,0.125,60,96.0
1291,A3,127.5,0.5,127,96.0
1292,D4,127.5,0.5,127,96.0
1293,F4,127.5,0.5,127,96.0
1294,F3,127.5,0.5,127,96.0
1295,F2,127.5,0.5,127,96.0
1296,D4,127.5,0.5,127,96.0
1297,A3,127.5,0.5,127,96.0
1298,F3,127.5,0.5,127,96.0
1299,D4,127.517,483/1000,127,96.0
1300,F2,128.0,1.25,127,96.0
1301,D4,128.0,533/1000,127,96.0
1302,F#2,128.0,0.125,127,96.0
1303,A3,128.0,123/250,127,96.0
1304,D4,128.0,123/250,127,96.0
1305,F4,128.0,123/250,127,96.0
1306,F3,128.0,123/250,127,96.0
1307,F2,128.0,1.25,127,96.0
1308,D4,128.0,1.25,127,96.0
1309,A3,128.0,1.25,127,96.0
1310,F3,128.0,1.25,127,96.0
1311,F3,128.5,667/1000,127,96.0
1312,F#2,128.5,0.125,60,96.0
1313,C4,128.55,917/1000,127,96.0
1314,C#2,129.0,0.25,127,96.0
1315,F#2,129.0,0.125,127,96.0
1316,F4,129.0,1/10,127,96.0
1317,A3,129.0,1/10,127,96.0
1318,D4,129.0,1/10,127,96.0
1319,C2,129.5,2.125,127,96.0
1320,C2,129.5,0.25,127,96.0
1321,F#2,129.5,0.125,60,96.0
1322,E4,129.5,124/125,127,96.0
1323,G3,129.5,124/125,127,96.0
1324,C3,129.5,124/125,127,96.0
1325,C4,129.5,124/125,127,96.0
1326,C4,129.5,249/125,127,96.0
1327,E3,129.5,249/125,127,96.0
1328,G3,129.5,249/125,127,96.0
1329,C2,129.5,249/125,127,96.0
1330,B3,129.533,1083/1000,127,96.0
1331,C2,130.0,0.25,127,96.0
1332,F#2,130.0,0.125,127,96.0
1333,C3,130.5,667/1000,127,96.0
1334,F#2,130.5,0.125,60,96.0
1335,A3,130.55,9/20,127,96.0
1336,C#2,131.0,0.25,127,96.0
1337,F#2,131.0,0.125,127,96.0
1338,E4,131.0,124/125,127,96.0
1339,G3,131.0,124/125,127,96.0
1340,C4,131.0,124/125,127,96.0
1341,G3,131.042,479/500,127,96.0
1342,C3,131.5,167/1000,127,96.0
1343,B-2,131.5,0.5,127,96.0
1344,G1,132.0,1333/1000,127,96.0
1345,G2,132.0,1167/1000,127,96.0
1346,G3,132.0,133/1000,127,96.0
1347,C2,132.0,0.25,127,96.0
1348,G#2,132.0,0.125,127,96.0
1349,G3,132.0,1.25,127,96.0
1350,B3,132.0,1.25,127,96.0
1351,D4,132.0,1.25,127,96.0
1352,G2,132.0,1.25,127,96.0
1353,G3,132.475,121/500,127,96.0
1354,F#2,132.5,0.125,60,96.0
1355,B3,132.75,167/1000,127,96.0
1356,D4,132.875,167/1000,127,96.0
1357,G4,133.0,167/1000,127,96.0
1358,C4,133.0,0.5,127,96.0
1359,C#2,133.0,0.25,127,96.0
1360,F#2,133.0,0.125,127,96.0
1361,G3,133.008,583/1000,127,96.0
1362,C2,133.5,0.25,127,96.0
1363,F#2,133.5,0.125,60,96.0
1364,F2,133.5,1.75,127,96.0
1365,F1,133.5,1.75,127,96.0
1366,A3,133.5,124/125,127,96.0
1367,F4,133.5,124/125,127,96.0
1368,D4,133.5,124/125,127,96.0
1369,F2,133.5,124/125,127,96.0
1370,D4,133.5,1.75,127,96.0
1371,A3,133.5,1.75,127,96.0
1372,F2,133.5,1.75,127,96.0
1373,F3,133.5,1.75,127,96.0
1374,A3,133.517,233/1000,127,96.0
1375,A3,133.992,271/500,127,96.0
1376,C2,134.0,0.25,127,96.0
1377,F#2,134.0,0.125,127,96.0
1378,B3,134.475,321/500,127,96.0
1379,F2,134.5,667/1000,127,96.0
1380,F#2,134.5,0.125,60,96.0
1381,C#2,135.0,0.25,127,96.0
1382,F#2,135.0,0.125,127,96.0
1383,F4,135.0,1/10,127,96.0
1384,A3,135.0,1/10,127,96.0
1385,D4,135.0,1/10,127,96.0
1386,B3,135.458,271/500,127,96.0
1387,C2,135.5,0.25,127,96.0
1388,F#2,135.5,0.125,60,96.0
1389,E2,135.5,0.5,127,96.0
1390,E1,135.5,0.5,127,96.0
1391,B3,135.5,0.5,127,96.0
1392,G3,135.5,0.5,127,96.0
1393,E4,135.5,0.5,127,96.0
1394,E2,135.5,0.5,127,96.0
1395,E3,135.5,0.5,127,96.0
1396,D4,135.5,0.5,127,96.0
1397,G3,135.5,0.5,127,96.0
1398,E2,135.5,0.5,127,96.0
1399,B3,136.0,823/250,127,96.0
1400,F#2,136.0,0.125,127,96.0
1401,E2,136.0,3667/1000,127,96.0
1402,E1,136.0,3667/1000,127,96.0
1403,B3,136.0,3.25,127,96.0
1404,G3,136.0,3.25,127,96.0
1405,E4,136.0,3.25,127,96.0
1406,E2,136.0,3.25,127,96.0
1407,E3,136.0,873/250,127,96.0
1408,D4,136.0,873/250,127,96.0
1409,G3,136.0,873/250,127,96.0
1410,E2,136.0,873/250,127,96.0
1411,F#2,136.5,0.125,60,96.0
1412,C#2,137.0,0.25,127,96.0
1413,F#2,137.0,0.125,127,96.0
1414,C2,137.5,0.25,127,96.0
1415,F#2,137.5,0.125,60,96.0
1416,C2,138.0,0.25,127,96.0
1417,F#2,138.0,0.125,127,96.0
1418,F#2,138.5,0.125,60,96.0
1419,C#2,139.0,0.25,127,96.0
1420,F#2,139.0,0.125,127,96.0
1421,B-2,139.5,0.5,127,96.0
1422,E2,140.0,1.25,127,96.0
1423,E3,140.0,373/250,127,96.0
1424,C2,140.0,0.25,127,96.0
1425,G#2,140.0,0.125,127,96.0
1426,G3,140.0,1.25,127,96.0
1427,E4,140.0,1.25,127,96.0
1428,E2,140.0,1.25,127,96.0
1429,B3,140.0,1.25,127,96.0
1430,B4,140.0,373/250,127,96.0
1431,G4,140.0,373/250,127,96.0
1432,B3,140.5,123/250,127,96.0
1433,F#2,140.5,0.125,60,96.0
1434,B3,140.55,233/1000,127,96.0
1435,B3,140.983,533/1000,127,96.0
1436,C4,141.0,0.5,127,96.0
1437,C#2,141.0,0.25,127,96.0
1438,F#2,141.0,0.125,127,96.0
1439,G4,141.0,1/10,127,96.0
1440,D4,141.0,1/10,127,96.0
1441,D4,141.458,233/1000,127,96.0
1442,B1,141.5,1.75,127,96.0
1443,B2,141.5,0.75,127,96.0
1444,C2,141.5,0.25,127,96.0
1445,F#2,141.5,0.125,60,96.0
1446,D4,141.5,1.25,127,96.0
1447,A3,141.5,1.25,127,96.0
1448,B3,141.5,1.75,127,96.0
1449,F#3,141.5,1.75,127,96.0
1450,B1,141.5,1.75,127,96.0
1451,D4,141.5,1.75,127,96.0
1452,A4,141.5,1.75,127,96.0
1453,F#4,141.5,1.75,127,96.0
1454,D4,141.958,1033/1000,127,96.0
1455,C2,142.0,0.25,127,96.0
1456,F#2,142.0,0.125,127,96.0
1457,B2,142.5,0.75,127,96.0
1458,F#2,142.5,0.125,60,96.0
1459,A3,142.983,121/500,127,96.0
1460,C#2,143.0,0.25,127,96.0
1461,F#2,143.0,0.125,127,96.0
1462,A3,143.0,1/10,127,96.0
1463,D4,143.0,1/10,127,96.0
1464,A3,143.475,21/40,127,96.0
1465,D2,143.5,0.5,127,96.0
1466,D3,143.5,0.5,127,96.0
1467,C2,143.5,0.25,127,96.0
1468,F#2,143.5,0.125,60,96.0
1469,F#4,143.5,0.5,127,96.0
1470,D4,143.5,0.5,127,96.0
1471,D2,143.5,0.5,127,96.0
1472,A3,143.5,0.5,127,96.0
1473,F#3,143.5,0.5,127,96.0
1474,D4,143.5,0.5,127,96.0
1475,F#4,143.5,0.5,127,96.0
1476,A4,143.5,0.5,127,96.0
1477,D2,144.0,1.25,127,96.0
1478,D3,144.0,0.25,127,96.0
1479,A3,144.0,0.5,127,96.0
1480,F#2,144.0,0.125,127,96.0
1481,F#4,144.0,667/1000,127,96.0
1482,D4,144.0,667/1000,127,96.0
1483,D2,144.0,1.25,127,96.0
1484,A3,144.0,1.25,127,96.0
1485,F#3,144.0,1.25,127,96.0
1486,D4,144.0,1.25,127,96.0
1487,F#4,144.0,373/250,127,96.0
1488,A4,144.0,373/250,127,96.0
1489,D3,144.5,0.75,127,96.0
1490,F#2,144.5,0.125,60,96.0
1491,C4,144.533,667/1000,127,96.0
1492,C#2,145.0,0.25,127,96.0
1493,F#2,145.0,0.125,127,96.0
1494,F#4,145.0,1/10,127,96.0
1495,D4,145.0,1/10,127,96.0
1496,C4,145.492,273/250,127,96.0
1497,A1,145.5,2033/1000,127,96.0
1498,A2,145.5,0.75,127,96.0
1499,C2,145.5,0.25,127,96.0
1500,F#2,145.5,0.125,60,96.0
1501,E4,145.5,1167/1000,127,96.0
1502,C4,145.5,1167/1000,127,96.0
1503,G3,145.5,1167/1000,127,96.0
1504,C4,145.5,249/125,127,96.0
1505,E3,145.5,249/125,127,96.0
1506,A1,145.5,249/125,127,96.0
1507,G3,145.5,249/125,127,96.0
1508,G4,145.5,249/125,127,96.0
1509,E4,145.5,249/125,127,96.0
1510,C2,146.0,0.25,127,96.0
1511,F#2,146.0,0.125,127,96.0
1512,A2,146.5,0.75,127,96.0
1513,F#2,146.5,0.125,60,96.0
1514,B3,146.533,9/40,127,96.0
1515,C#2,147.0,0.25,127,96.0
1516,F#2,147.0,0.125,127,96.0
1517,C4,147.0,0.75,127,96.0
1518,E4,147.0,0.75,127,96.0
1519,G3,147.0,0.75,127,96.0
1520,B3,147.008,0.875,127,96.0
1521,A2,147.5,0.25,127,96.0
1522,B-2,147.5,0.5,127,96.0
1523,E2,148.0,1.25,127,96.0
1524,C2,148.0,0.25,127,96.0
1525,G#2,148.0,0.125,127,96.0
1526,E2,148.0,373/250,127,96.0
1527,E3,148.0,373/250,127,96.0
1528,E4,148.0,1.25,127,96.0
1529,G3,148.0,1.25,127,96.0
1530,E2,148.0,1.25,127,96.0
1531,B3,148.0,1.25,127,96.0
1532,G4,148.0,373/250,127,96.0
1533,B4,148.0,373/250,127,96.0
1534,B3,148.5,123/250,127,96.0
1535,F#2,148.5,0.125,60,96.0
1536,B3,148.517,9/40,127,96.0
1537,B3,148.95,23/40,127,96.0
1538,C4,149.0,0.5,127,96.0
1539,C#2,149.0,0.25,127,96.0
1540,F#2,149.0,0.125,127,96.0
1541,G4,149.0,1/10,127,96.0
1542,D4,149.0,1/10,127,96.0
1543,D4,149.458,217/1000,127,96.0
1544,B1,149.5,1.75,127,96.0
1545,B2,149.5,0.75,127,96.0
1546,C2,149.5,0.25,127,96.0
1547,F#2,149.5,0.125,60,96.0
1548,D4,149.5,1.25,127,96.0
1549,A3,149.5,1.25,127,96.0
1550,F#3,149.5,1.75,127,96.0
1551,D4,149.5,1.75,127,96.0
1552,B1,149.5,1.75,127,96.0
1553,B3,149.5,1.75,127,96.0
1554,A4,149.5,1.75,127,96.0
1555,F#4,149.5,1.75,127,96.0
1556,D4,149.95,1083/1000,127,96.0
1557,C2,150.0,0.25,127,96.0
1558,F#2,150.0,0.125,127,96.0
1559,B2,150.5,0.75,127,96.0
1560,F#2,150.5,0.125,60,96.0
1561,A3,150.992,317/1000,127,96.0
1562,C#2,151.0,0.25,127,96.0
1563,F#2,151.0,0.125,127,96.0
1564,A3,151.0,1/10,127,96.0
1565,D4,151.0,1/10,127,96.0
1566,D2,151.5,0.5,127,96.0
1567,D3,151.5,0.5,127,96.0
1568,C2,151.5,0.25,127,96.0
1569,F#2,151.5,0.125,60,96.0
1570,F#4,151.5,0.5,127,96.0
1571,D4,151.5,0.5,127,96.0
1572,D4,151.5,0.5,127,96.0
1573,A3,151.5,0.5,127,96.0
1574,D2,151.5,0.5,127,96.0
1575,F#3,151.5,0.5,127,96.0
1576,A4,151.5,0.5,127,96.0
1577,F#4,151.5,0.5,127,96.0
1578,A3,151.558,221/500,127,96.0
1579,D2,152.0,1.25,127,96.0
1580,D3,152.0,0.25,127,96.0
1581,A3,152.0,19/40,127,96.0
1582,F#2,152.0,0.125,127,96.0
1583,F#4,152.0,667/1000,127,96.0
1584,D4,152.0,667/1000,127,96.0
1585,D4,152.0,1.25,127,96.0
1586,A3,152.0,1.25,127,96.0
1587,D2,152.0,1.25,127,96.0
1588,F#3,152.0,1.25,127,96.0
1589,A4,152.0,373/250,127,96.0
1590,F#4,152.0,373/250,127,96.0
1591,C4,152.458,123/250,127,96.0
1592,D3,152.5,0.75,127,96.0
1593,F#2,152.5,0.125,60,96.0
1594,C#2,153.0,0.25,127,96.0
1595,F#2,153.0,0.125,127,96.0
1596,F#4,153.0,1/10,127,96.0
1597,D4,153.0,1/10,127,96.0
1598,C4,153.483,2217/1000,127,96.0
1599,A1,153.5,427/250,127,96.0
1600,A2,153.5,0.75,127,96.0
1601,C2,153.5,0.25,127,96.0
1602,F#2,153.5,0.125,60,96.0
1603,E4,153.5,1167/1000,127,96.0
1604,C4,153.5,1167/1000,127,96.0
1605,G3,153.5,1167/1000,127,96.0
1606,E3,153.5,249/125,127,96.0
1607,G3,153.5,249/125,127,96.0
1608,A1,153.5,249/125,127,96.0
1609,C4,153.5,249/125,127,96.0
1610,G4,153.5,2.0,127,96.0
1611,E4,153.5,2.0,127,96.0
1612,C2,154.0,0.25,127,96.0
1613,F#2,154.0,0.125,127,96.0
1614,A2,154.5,0.75,127,96.0
1615,F#2,154.5,0.125,60,96.0
1616,C#2,155.0,0.25,127,96.0
1617,F#2,155.0,0.125,127,96.0
1618,C4,155.0,0.75,127,96.0
1619,E4,155.0,0.75,127,96.0
1620,G3,155.0,0.75,127,96.0
1621,A1,155.5,123/250,127,96.0
1622,A2,155.5,0.25,127,96.0
1623,B-2,155.5,0.5,127,96.0
1624,G1,156.0,1.25,127,96.0
1625,G2,156.0,1167/1000,127,96.0
1626,C2,156.0,0.25,127,96.0
1627,G#2,156.0,0.125,127,96.0
1628,G2,156.0,1.25,127,96.0
1629,B3,156.0,1.25,127,96.0
1630,G3,156.0,1.25,127,96.0
1631,D4,156.0,1.25,127,96.0
1632,F#2,156.5,0.125,60,96.0
1633,B3,156.517,121/500,127,96.0
1634,B3,156.75,167/1000,127,96.0
1635,D4,156.875,167/1000,127,96.0
1636,B3,156.958,271/500,127,96.0
1637,G4,157.0,167/1000,127,96.0
1638,C4,157.0,0.5,127,96.0
1639,C#2,157.0,0.25,127,96.0
1640,F#2,157.0,0.125,127,96.0
1641,D4,157.442,271/500,127,96.0
1642,D2,157.5,1.75,127,96.0
1643,C2,157.5,0.25,127,96.0
1644,F#2,157.5,0.125,60,96.0
1645,D3,157.5,124/125,127,96.0
1646,F#4,157.5,124/125,127,96.0
1647,D4,157.5,124/125,127,96.0
1648,A3,157.5,124/125,127,96.0
1649,F#3,157.5,1.75,127,96.0
1650,A3,157.5,1.75,127,96.0
1651,D4,157.5,1.75,127,96.0
1652,D2,157.5,1.75,127,96.0
1653,E4,157.925,23/40,127,96.0
1654,C2,158.0,0.25,127,96.0
1655,F#2,158.0,0.125,127,96.0
1656,D4,158.433,417/1000,127,96.0
1657,D3,158.5,667/1000,127,96.0
1658,F#2,158.5,0.125,60,96.0
1659,C#2,159.0,0.25,127,96.0
1660,F#2,159.0,0.125,127,96.0
1661,D4,159.0,1/10,127,96.0
1662,F#4,159.0,1/10,127,96.0
1663,A3,159.0,1/10,127,96.0
1664,D4,159.025,1/5,127,96.0
1665,D4,159.492,127/250,127,96.0
1666,F2,159.5,0.5,127,96.0
1667,C2,159.5,0.25,127,96.0
1668,F#2,159.5,0.125,60,96.0
1669,A3,159.5,0.5,127,96.0
1670,D4,159.5,0.5,127,96.0
1671,F4,159.5,0.5,127,96.0
1672,F3,159.5,0.5,127,96.0
1673,F2,159.5,0.5,127,96.0
1674,D4,159.5,0.5,127,96.0
1675,A3,159.5,0.5,127,96.0
1676,F3,159.5,0.5,127,96.0
1677,F2,160.0,1.25,127,96.0
1678,D4,160.0,517/1000,127,96.0
1679,F#2,160.0,0.125,127,96.0
1680,A3,160.0,123/250,127,96.0
1681,D4,160.0,123/250,127,96.0
1682,F4,160.0,123/250,127,96.0
1683,F3,160.0,123/250,127,96.0
1684,F2,160.0,1.25,127,96.0
1685,D4,160.0,1.25,127,96.0
1686,A3,160.0,1.25,127,96.0
1687,F3,160.0,1.25,127,96.0
1688,C4,160.492,273/250,127,96.0
1689,F3,160.5,667/1000,127,96.0
1690,F#2,160.5,0.125,60,96.0
1691,C#2,161.0,0.25,127,96.0
1692,F#2,161.0,0.125,127,96.0
1693,F4,161.0,1/10,127,96.0
1694,A3,161.0,1/10,127,96.0
1695,D4,161.0,1/10,127,96.0
1696,C2,161.5,2.125,127,96.0
1697,C2,161.5,0.25,127,96.0
1698,F#2,161.5,0.125,60,96.0
1699,E4,161.5,124/125,127,96.0
1700,G3,161.5,124/125,127,96.0
1701,C3,161.5,124/125,127,96.0
1702,C4,161.5,124/125,127,96.0
1703,C4,161.5,249/125,127,96.0
1704,E3,161.5,249/125,127,96.0
1705,G3,161.5,249/125,127,96.0
1706,C2,161.5,249/125,127,96.0
1707,B3,161.567,1083/1000,127,96.0
1708,C2,162.0,0.25,127,96.0
1709,F#2,162.0,0.125,127,96.0
1710,C3,162.5,667/1000,127,96.0
1711,F#2,162.5,0.125,60,96.0
1712,G3,162.525,26/125,127,96.0
1713,G3,162.992,983/1000,127,96.0
1714,C#2,163.0,0.25,127,96.0
1715,F#2,163.0,0.125,127,96.0
1716,E4,163.0,124/125,127,96.0
1717,G3,163.0,124/125,127,96.0
1718,C4,163.0,124/125,127,96.0
1719,C3,163.5,167/1000,127,96.0
1720,F#2,163.5,0.125,60,96.0
1721,G1,164.0,1333/1000,127,96.0
1722,G2,164.0,1167/1000,127,96.0
1723,C2,164.0,0.25,127,96.0
1724,F#2,164.0,0.125,127,96.0
1725,G3,164.0,1.25,127,96.0
1726,B3,164.0,1.25,127,96.0
1727,D4,164.0,1.25,127,96.0
1728,G2,164.0,1.25,127,96.0
1729,F#2,164.5,0.125,60,96.0
1730,G3,164.517,26/125,127,96.0
1731,B3,164.75,167/1000,127,96.0
1732,D4,164.875,167/1000,127,96.0
1733,G3,164.992,567/1000,127,96.0
1734,G4,165.0,167/1000,127,96.0
1735,C4,165.0,0.5,127,96.0
1736,C#2,165.0,0.25,127,96.0
1737,F#2,165.0,0.125,127,96.0
1738,A3,165.492,267/1000,127,96.0
1739,C2,165.5,0.25,127,96.0
1740,F#2,165.5,0.125,60,96.0
1741,F2,165.5,1.75,127,96.0
1742,F1,165.5,1.75,127,96.0
1743,A3,165.5,124/125,127,96.0
1744,F4,165.5,124/125,127,96.0
1745,D4,165.5,124/125,127,96.0
1746,F2,165.5,124/125,127,96.0
1747,D4,165.5,1.75,127,96.0
1748,A3,165.5,1.75,127,96.0
1749,F2,165.5,1.75,127,96.0
1750,F3,165.5,1.75,127,96.0
1751,A3,165.992,11/20,127,96.0
1752,C2,166.0,0.25,127,96.0
1753,F#2,166.0,0.125,127,96.0
1754,B3,166.475,567/1000,127,96.0
1755,F2,166.5,667/1000,127,96.0
1756,F#2,166.5,0.125,60,96.0
1757,C#2,167.0,0.25,127,96.0
1758,F#2,167.0,0.125,127,96.0
1759,F4,167.0,1/10,127,96.0
1760,A3,167.0,1/10,127,96.0
1761,D4,167.0,1/10,127,96.0
1762,B3,167.425,23/40,127,96.0
1763,C2,167.5,0.25,127,96.0
1764,F#2,167.5,0.125,60,96.0
1765,E2,167.5,0.5,127,96.0
1766,E1,167.5,0.5,127,96.0
1767,B3,167.5,0.5,127,96.0
1768,G3,167.5,0.5,127,96.0
1769,E4,167.5,0.5,127,96.0
1770,E2,167.5,0.5,127,96.0
1771,E3,167.5,0.5,127,96.0
1772,D4,167.5,0.5,127,96.0
1773,G3,167.5,0.5,127,96.0
1774,E2,167.5,0.5,127,96.0
1775,B3,168.0,2.75,127,96.0
1776,F#2,168.0,0.125,127,96.0
1777,E2,168.0,3667/1000,127,96.0
1778,E1,168.0,3667/1000,127,96.0
1779,B3,168.0,3.25,127,96.0
1780,G3,168.0,3.25,127,96.0
1781,E4,168.0,3.25,127,96.0
1782,E2,168.0,3.25,127,96.0
1783,E3,168.0,873/250,127,96.0
1784,D4,168.0,873/250,127,96.0
1785,G3,168.0,873/250,127,96.0
1786,E2,168.0,873/250,127,96.0
1787,C2,168.5,0.25,55,96.0
1788,E2,168.5,0.25,55,96.0
1789,F#2,168.5,0.125,60,96.0
1790,C2,169.0,0.25,70,96.0
1791,E2,169.0,0.25,70,96.0
1792,F#2,169.0,0.125,127,96.0
1793,B4,169.5,123/250,127,96.0
1794,C2,169.5,0.25,85,96.0
1795,E2,169.5,0.25,85,96.0
1796,F#2,169.5,0.125,60,96.0
1797,C#5,170.0,123/250,127,96.0
1798,C2,170.0,0.25,100,96.0
1799,E2,170.0,0.25,100,96.0
1800,D3,170.0,0.25,127,96.0
1801,F#2,170.0,0.125,127,96.0
1802,F#5,170.5,123/250,127,96.0
1803,C2,170.5,0.25,115,96.0
1804,E2,170.5,0.25,115,96.0
1805,C3,170.5,0.25,127,96.0
1806,F#2,170.5,0.125,60,96.0
1807,B5,171.0,123/250,127,96.0
1808,B3,171.0,1.0,127,96.0
1809,C2,171.0,0.25,127,96.0
1810,E2,171.0,0.25,127,96.0
1811,A2,171.0,0.25,127,96.0
1812,F#2,171.0,0.125,127,96.0
1813,C#6,171.5,123/250,127,96.0
1814,C2,171.5,0.25,127,96.0
1815,E2,171.5,0.25,127,96.0
1816,F2,171.5,0.25,127,96.0
1817,F#2,171.5,0.125,60,96.0
1818,C6,171.75,0.25,127,96.0
1819,E1,172.0,1.75,127,96.0
1820,E3,172.0,123/250,127,96.0
1821,D6,172.0,2.0,127,96.0
1822,B3,172.0,3383/1000,127,96.0
1823,C2,172.0,0.25,127,96.0
1824,C#3,172.0,0.5,127,96.0
1825,F#2,172.0,0.125,127,96.0
1826,F#3,172.0,0.125,127,96.0
1827,C6,172.0,0.75,127,96.0
1828,G4,172.0,623/250,127,96.0
1829,E4,172.0,623/250,127,96.0
1830,E2,172.083,3917/1000,127,96.0
1831,E3,172.083,3917/1000,127,96.0
1832,B3,172.083,3917/1000,127,96.0
1833,F#3,172.5,123/250,127,96.0
1834,F#2,172.5,0.125,60,96.0
1835,F#3,172.5,0.125,127,96.0
1836,G3,173.0,123/250,127,96.0
1837,E2,173.0,0.25,127,96.0
1838,F#2,173.0,0.125,127,96.0
1839,F#3,173.0,0.125,127,96.0
1840,D4,173.5,249/125,127,96.0
1841,F#2,173.5,0.125,60,96.0
1842,F#3,173.5,0.125,127,96.0
1843,G1,174.0,123/250,127,96.0
1844,C2,174.0,0.25,127,96.0
1845,F#2,174.0,0.125,127,96.0
1846,F#3,174.0,0.125,127,96.0
1847,A1,174.5,123/250,127,96.0
1848,F#4,174.5,517/1000,127,96.0
1849,F#2,174.5,0.125,60,96.0
1850,F#3,174.5,0.125,127,96.0
1851,B1,175.0,167/1000,127,96.0
1852,E2,175.0,0.25,127,96.0
1853,F#2,175.0,0.125,127,96.0
1854,F#3,175.0,0.125,127,96.0
1855,E4,175.0,2/5,127,96.0
1856,D4,175.0,2/5,127,96.0
1857,A1,175.5,0.5,127,96.0
1858,A3,175.5,0.5,127,96.0
1859,C2,175.5,0.25,127,96.0
1860,F#2,175.5,0.125,60,96.0
1861,F#3,175.5,0.125,127,96.0
1862,D4,175.5,0.5,127,96.0
1863,E4,175.5,0.5,127,96.0
1864,A1,176.0,2.75,127,96.0
1865,E3,176.0,123/250,127,96.0
1866,A3,176.0,3067/1000,127,96.0
1867,C2,176.0,0.25,127,96.0
1868,F#2,176.0,0.125,127,96.0
1869,F#3,176.0,0.125,127,96.0
1870,E2,176.0,3/40,127,96.0
1871,E3,176.0,3/40,127,96.0
1872,B3,176.0,3/40,127,96.0
1873,D4,176.0,0.5,127,96.0
1874,E4,176.0,0.5,127,96.0
1875,A2,176.083,3917/1000,127,96.0
1876,E3,176.083,3917/1000,127,96.0
1877,C#4,176.083,3917/1000,127,96.0
1878,F#3,176.5,123/250,127,96.0
1879,F#2,176.5,0.125,60,96.0
1880,F#3,176.5,0.125,127,96.0
1881,B3,176.5,1.75,127,96.0
1882,C#4,176.5,1.75,127,96.0
1883,G3,177.0,123/250,127,96.0
1884,E2,177.0,0.25,127,96.0
1885,F#2,177.0,0.125,127,96.0
1886,F#3,177.0,0.125,127,96.0
1887,C#4,177.5,249/125,127,96.0
1888,F#2,177.5,0.125,60,96.0
1889,F#3,177.5,0.125,127,96.0
1890,C2,178.0,0.25,127,96.0
1891,F#2,178.0,0.125,127,96.0
1892,F#3,178.0,0.125,127,96.0
1893,F#2,178.5,0.125,60,96.0
1894,F#3,178.5,0.125,127,96.0
1895,C#4,178.5,0.75,127,96.0
1896,E4,178.5,0.75,127,96.0
1897,D1,179.0,123/250,127,96.0
1898,E2,179.0,0.25,127,96.0
1899,F#2,179.0,0.125,127,96.0
1900,F#3,179.0,0.125,127,96.0
1901,E4,179.35,583/1000,127,96.0
1902,A4,179.35,583/1000,127,96.0
1903,E-1,179.5,123/250,127,96.0
1904,F#3,179.5,123/250,127,96.0
1905,C2,179.5,0.25,127,96.0
1906,F#2,179.5,0.125,60,96.0
1907,F#3,179.5,0.125,127,96.0
1908,E1,180.0,1.75,127,96.0
1909,E3,180.0,123/250,127,96.0
1910,B3,180.0,39/10,127,96.0
1911,C2,180.0,0.25,127,96.0
1912,F#2,180.0,0.125,127,96.0
1913,F#3,180.0,0.125,127,96.0
1914,A2,180.0,3/40,127,96.0
1915,E3,180.0,3/40,127,96.0
1916,C#4,180.0,3/40,127,96.0
1917,G4,180.0,929/500,127,96.0
1918,D4,180.0,929/500,127,96.0
1919,E3,180.083,3917/1000,127,96.0
1920,E2,180.083,3917/1000,127,96.0
1921,B3,180.083,3917/1000,127,96.0
1922,F#3,180.5,123/250,127,96.0
1923,F#2,180.5,0.125,60,96.0
1924,F#3,180.5,0.125,127,96.0
1925,G3,181.0,123/250,127,96.0
1926,E2,181.0,0.25,127,96.0
1927,C#3,181.0,0.5,127,96.0
1928,F#2,181.0,0.125,127,96.0
1929,F#3,181.0,0.125,127,96.0
1930,D4,181.5,249/125,127,96.0
1931,F#2,181.5,0.125,60,96.0
1932,F#3,181.5,0.125,127,96.0
1933,G1,182.0,123/250,127,96.0
1934,C2,182.0,0.25,127,96.0
1935,F#2,182.0,0.125,127,96.0
1936,F#3,182.0,0.125,127,96.0
1937,D4,182.0,371/500,127,96.0
1938,G4,182.0,371/500,127,96.0
1939,A1,182.5,123/250,127,96.0
1940,F#2,182.5,0.125,60,96.0
1941,F#3,182.5,0.125,127,96.0
1942,F#4,182.808,833/1000,127,96.0
1943,B1,183.0,167/1000,127,96.0
1944,E2,183.0,0.25,127,96.0
1945,F#2,183.0,0.125,127,96.0
1946,F#3,183.0,0.125,127,96.0
1947,A1,183.5,0.5,127,96.0
1948,F#3,183.5,123/250,127,96.0
1949,C2,183.5,0.25,127,96.0
1950,F#2,183.5,0.125,60,96.0
1951,F#3,183.5,0.125,127,96.0
1952,E4,183.5,467/1000,127,96.0
1953,D4,183.5,467/1000,127,96.0
1954,A1,184.0,2.75,127,96.0
1955,E3,184.0,123/250,127,96.0
1956,A3,184.0,4.0,127,96.0
1957,C2,184.0,0.25,127,96.0
1958,F#2,184.0,0.125,127,96.0
1959,F#3,184.0,0.125,127,96.0
1960,E3,184.0,3/40,127,96.0
1961,E2,184.0,3/40,127,96.0
1962,B3,184.0,3/40,127,96.0
1963,E4,184.0,124/125,127,96.0
1964,D4,184.0,124/125,127,96.0
1965,A2,184.083,3917/1000,127,96.0
1966,C#4,184.083,3917/1000,127,96.0
1967,E3,184.083,3917/1000,127,96.0
1968,F#3,184.5,123/250,127,96.0
1969,F#2,184.5,0.125,60,96.0
1970,F#3,184.5,0.125,127,96.0
1971,G3,185.0,123/250,127,96.0
1972,E2,185.0,0.25,127,96.0
1973,F#2,185.0,0.125,127,96.0
1974,F#3,185.0,0.125,127,96.0
1975,B3,185.0,921/500,127,96.0
1976,C#4,185.0,921/500,127,96.0
1977,C#4,185.5,249/125,127,96.0
1978,F#2,185.5,0.125,60,96.0
1979,F#3,185.5,0.125,127,96.0
1980,C2,186.0,0.25,127,96.0
1981,F#2,186.0,0.125,127,96.0
1982,F#3,186.0,0.125,127,96.0
1983,F#2,186.5,0.125,60,96.0
1984,F#3,186.5,0.125,127,96.0
1985,A1,187.0,124/125,127,96.0
1986,E2,187.0,0.25,127,96.0
1987,F#2,187.0,0.125,127,96.0
1988,F#3,187.0,0.125,127,96.0
1989,C#4,187.0,9/10,127,96.0
1990,B3,187.0,9/10,127,96.0
1991,F#2,187.5,0.125,60,96.0
1992,F#3,187.5,0.125,127,96.0
1993,G1,188.0,124/125,127,96.0
1994,E3,188.0,123/250,127,96.0
1995,G3,188.0,19/5,127,96.0
1996,A3,188.0,33/1000,127,96.0
1997,C2,188.0,0.25,127,96.0
1998,C#3,188.0,0.5,127,96.0
1999,F#2,188.0,0.125,127,96.0
2000,F#3,188.0,0.125,127,96.0
2001,A2,188.0,3/40,127,96.0
2002,C#4,188.0,3/40,127,96.0
2003,E3,188.0,3/40,127,96.0
2004,C#4,188.0,1383/1000,127,96.0
2005,B3,188.0,1383/1000,127,96.0
2006,D4,188.083,3917/1000,127,96.0
2007,G3,188.083,3917/1000,127,96.0
2008,G2,188.083,3917/1000,127,96.0
2009,F#3,188.5,123/250,127,96.0
2010,F#2,188.5,0.125,60,96.0
2011,F#3,188.5,0.125,127,96.0
2012,A2,189.0,167/1000,127,96.0
2013,G3,189.0,123/250,127,96.0
2014,E2,189.0,0.25,127,96.0
2015,F#2,189.0,0.125,127,96.0
2016,F#3,189.0,0.125,127,96.0
2017,D4,189.5,249/125,127,96.0
2018,C2,189.5,0.25,127,96.0
2019,A3,189.5,0.5,127,96.0
2020,F#2,189.5,0.125,60,96.0
2021,F#3,189.5,0.125,127,96.0
2022,G1,189.5,2333/1000,127,96.0
2023,G2,189.5,2333/1000,127,96.0
2024,A3,189.5,577/250,127,96.0
2025,B3,189.5,577/250,127,96.0
2026,F#2,190.0,0.125,127,96.0
2027,F#3,190.0,0.125,127,96.0
2028,F#2,190.5,0.125,60,96.0
2029,F#3,190.5,0.125,127,96.0
2030,D5,191.0,123/250,127,96.0
2031,E2,191.0,0.25,127,96.0
2032,F#2,191.0,0.125,127,96.0
2033,F#3,191.0,0.125,127,96.0
2034,G3,191.5,123/250,127,96.0
2035,C5,191.5,123/250,127,96.0
2036,C2,191.5,0.25,127,96.0
2037,F#2,191.5,0.125,60,96.0
2038,F#3,191.5,0.125,127,96.0
2039,F1,192.0,124/125,127,96.0
2040,F3,192.0,123/250,127,96.0
2041,B4,192.0,1333/1000,127,96.0
2042,F3,192.0,4.0,127,96.0
2043,C2,192.0,0.25,127,96.0
2044,C#3,192.0,0.5,127,96.0
2045,F#2,192.0,0.125,127,96.0
2046,F#3,192.0,0.125,127,96.0
2047,D4,192.0,3/40,127,96.0
2048,G3,192.0,3/40,127,96.0
2049,G2,192.0,3/40,127,96.0
2050,G3,192.0,59/40,127,96.0
2051,B3,192.0,59/40,127,96.0
2052,F3,192.083,3917/1000,127,96.0
2053,F2,192.083,3917/1000,127,96.0
2054,E4,192.083,3917/1000,127,96.0
2055,G3,192.5,123/250,127,96.0
2056,F#2,192.5,0.125,60,96.0
2057,F#3,192.5,0.125,127,96.0
2058,G2,193.0,167/1000,127,96.0
2059,A3,193.0,123/250,127,96.0
2060,E2,193.0,0.25,127,96.0
2061,F#2,193.0,0.125,127,96.0
2062,F#3,193.0,0.125,127,96.0
2063,E4,193.5,249/125,127,96.0
2064,C5,193.5,2.0,127,96.0
2065,C2,193.5,0.25,127,96.0
2066,A3,193.5,0.5,127,96.0
2067,F#2,193.5,0.125,60,96.0
2068,F#3,193.5,0.125,127,96.0
2069,F2,193.5,2333/1000,127,96.0
2070,F1,193.5,2333/1000,127,96.0
2071,A3,193.5,1583/1000,127,96.0
2072,C4,193.5,1583/1000,127,96.0
2073,F#2,194.0,0.125,127,96.0
2074,F#3,194.0,0.125,127,96.0
2075,D3,194.417,0.25,127,96.0
2076,F#2,194.5,0.125,60,96.0
2077,F#3,194.5,0.125,127,96.0
2078,C3,194.583,0.25,127,96.0
2079,B2,194.75,0.25,127,96.0
2080,B3,195.0,1.0,127,96.0
2081,C2,195.0,0.25,127,96.0
2082,E2,195.0,0.25,127,96.0
2083,G2,195.0,0.25,127,96.0
2084,F#2,195.0,0.125,127,96.0
2085,F#3,195.0,0.125,127,96.0
2086,F2,195.5,0.25,127,96.0
2087,F#2,195.5,0.125,60,96.0
2088,F#3,195.5,0.125,127,96.0
2089,E1,196.0,1.75,127,96.0
2090,E3,196.0,123/250,127,96.0
2091,B3,196.0,3383/1000,127,96.0
2092,C2,196.0,0.25,127,96.0
2093,C#3,196.0,0.5,127,96.0
2094,F#2,196.0,0.125,127,96.0
2095,F#3,196.0,0.125,127,96.0
2096,F3,196.0,3/40,127,96.0
2097,F2,196.0,3/40,127,96.0
2098,E4,196.0,3/40,127,96.0
2099,G4,196.0,623/250,127,96.0
2100,E4,196.0,623/250,127,96.0
2101,E2,196.083,3917/1000,127,96.0
2102,E3,196.083,3917/1000,127,96.0
2103,B3,196.083,3917/1000,127,96.0
2104,F#3,196.5,123/250,127,96.0
2105,F#2,196.5,0.125,60,96.0
2106,F#3,196.5,0.125,127,96.0
2107,G3,197.0,123/250,127,96.0
2108,E2,197.0,0.25,127,96.0
2109,F#2,197.0,0.125,127,96.0
2110,F#3,197.0,0.125,127,96.0
2111,D4,197.5,249/125,127,96.0
2112,F#2,197.5,0.125,60,96.0
2113,F#3,197.5,0.125,127,96.0
2114,G1,198.0,123/250,127,96.0
2115,C2,198.0,0.25,127,96.0
2116,F#2,198.0,0.125,127,96.0
2117,F#3,198.0,0.125,127,96.0
2118,A1,198.5,123/250,127,96.0
2119,F#4,198.5,517/1000,127,96.0
2120,F#2,198.5,0.125,60,96.0
2121,F#3,198.5,0.125,127,96.0
2122,B1,199.0,167/1000,127,96.0
2123,E2,199.0,0.25,127,96.0
2124,F#2,199.0,0.125,127,96.0
2125,F#3,199.0,0.125,127,96.0
2126,E4,199.0,2/5,127,96.0
2127,D4,199.0,2/5,127,96.0
2128,A1,199.5,0.5,127,96.0
2129,A3,199.5,0.5,127,96.0
2130,C2,199.5,0.25,127,96.0
2131,F#2,199.5,0.125,60,96.0
2132,F#3,199.5,0.125,127,96.0
2133,D4,199.5,0.5,127,96.0
2134,E4,199.5,0.5,127,96.0
2135,A1,200.0,2.75,127,96.0
2136,E3,200.0,123/250,127,96.0
2137,A3,200.0,3067/1000,127,96.0
2138,C2,200.0,0.25,127,96.0
2139,F#2,200.0,0.125,127,96.0
2140,F#3,200.0,0.125,127,96.0
2141,E2,200.0,3/40,127,96.0
2142,E3,200.0,3/40,127,96.0
2143,B3,200.0,3/40,127,96.0
2144,D4,200.0,0.5,127,96.0
2145,E4,200.0,0.5,127,96.0
2146,A2,200.083,3917/1000,127,96.0
2147,E3,200.083,3917/1000,127,96.0
2148,C#4,200.083,3917/1000,127,96.0
2149,F#3,200.5,123/250,127,96.0
2150,F#2,200.5,0.125,60,96.0
2151,F#3,200.5,0.125,127,96.0
2152,B3,200.5,1.75,127,96.0
2153,C#4,200.5,1.75,127,96.0
2154,G3,201.0,123/250,127,96.0
2155,E2,201.0,0.25,127,96.0
2156,F#2,201.0,0.125,127,96.0
2157,F#3,201.0,0.125,127,96.0
2158,C#4,201.5,249/125,127,96.0
2159,F#2,201.5,0.125,60,96.0
2160,F#3,201.5,0.125,127,96.0
2161,C2,202.0,0.25,127,96.0
2162,F#2,202.0,0.125,127,96.0
2163,F#3,202.0,0.125,127,96.0
2164,F#2,202.5,0.125,60,96.0
2165,F#3,202.5,0.125,127,96.0
2166,C#4,202.5,0.75,127,96.0
2167,E4,202.5,0.75,127,96.0
2168,D1,203.0,123/250,127,96.0
2169,E2,203.0,0.25,127,96.0
2170,F#2,203.0,0.125,127,96.0
2171,F#3,203.0,0.125,127,96.0
2172,E4,203.35,583/1000,127,96.0
2173,A4,203.35,583/1000,127,96.0
2174,E-1,203.5,123/250,127,96.0
2175,F#3,203.5,123/250,127,96.0
2176,C2,203.5,0.25,127,96.0
2177,F#2,203.5,0.125,60,96.0
2178,F#3,203.5,0.125,127,96.0
2179,E1,204.0,1.75,127,96.0
2180,E3,204.0,123/250,127,96.0
2181,B3,204.0,39/10,127,96.0
2182,C2,204.0,0.25,127,96.0
2183,F#2,204.0,0.125,127,96.0
2184,F#3,204.0,0.125,127,96.0
2185,A2,204.0,3/40,127,96.0
2186,E3,204.0,3/40,127,96.0
2187,C#4,204.0,3/40,127,96.0
2188,G4,204.0,929/500,127,96.0
2189,D4,204.0,929/500,127,96.0
2190,E3,204.083,3917/1000,127,96.0
2191,E2,204.083,3917/1000,127,96.0
2192,B3,204.083,3917/1000,127,96.0
2193,F#3,204.5,123/250,127,96.0
2194,F#2,204.5,0.125,60,96.0
2195,F#3,204.5,0.125,127,96.0
2196,G3,205.0,123/250,127,96.0
2197,E2,205.0,0.25,127,96.0
2198,C#3,205.0,0.5,127,96.0
2199,F#2,205.0,0.125,127,96.0
2200,F#3,205.0,0.125,127,96.0
2201,D4,205.5,249/125,127,96.0
2202,F#2,205.5,0.125,60,96.0
2203,F#3,205.5,0.125,127,96.0
2204,G1,206.0,123/250,127,96.0
2205,C2,206.0,0.25,127,96.0
2206,F#2,206.0,0.125,127,96.0
2207,F#3,206.0,0.125,127,96.0
2208,D4,206.0,371/500,127,96.0
2209,G4,206.0,371/500,127,96.0
2210,A1,206.5,123/250,127,96.0
2211,F#2,206.5,0.125,60,96.0
2212,F#3,206.5,0.125,127,96.0
2213,F#4,206.808,833/1000,127,96.0
2214,B1,207.0,167/1000,127,96.0
2215,E2,207.0,0.25,127,96.0
2216,F#2,207.0,0.125,127,96.0
2217,F#3,207.0,0.125,127,96.0
2218,A1,207.5,0.5,127,96.0
2219,F#3,207.5,123/250,127,96.0
2220,C2,207.5,0.25,127,96.0
2221,F#2,207.5,0.125,60,96.0
2222,F#3,207.5,0.125,127,96.0
2223,E4,207.5,467/1000,127,96.0
2224,D4,207.5,467/1000,127,96.0
2225,A1,208.0,2.75,127,96.0
2226,E3,208.0,123/250,127,96.0
2227,A3,208.0,4.0,127,96.0
2228,C2,208.0,0.25,127,96.0
2229,F#2,208.0,0.125,127,96.0
2230,F#3,208.0,0.125,127,96.0
2231,E3,208.0,3/40,127,96.0
2232,E2,208.0,3/40,127,96.0
2233,B3,208.0,3/40,127,96.0
2234,E4,208.0,124/125,127,96.0
2235,D4,208.0,124/125,127,96.0
2236,A2,208.083,3917/1000,127,96.0
2237,C#4,208.083,3917/1000,127,96.0
2238,E3,208.083,3917/1000,127,96.0
2239,F#3,208.5,123/250,127,96.0
2240,F#2,208.5,0.125,60,96.0
2241,F#3,208.5,0.125,127,96.0
2242,G3,209.0,123/250,127,96.0
2243,E2,209.0,0.25,127,96.0
2244,F#2,209.0,0.125,127,96.0
2245,F#3,209.0,0.125,127,96.0
2246,B3,209.0,921/500,127,96.0
2247,C#4,209.0,921/500,127,96.0
2248,C#4,209.5,249/125,127,96.0
2249,F#2,209.5,0.125,60,96.0
2250,F#3,209.5,0.125,127,96.0
2251,C2,210.0,0.25,127,96.0
2252,F#2,210.0,0.125,127,96.0
2253,F#3,210.0,0.125,127,96.0
2254,F#2,210.5,0.125,60,96.0
2255,F#3,210.5,0.125,127,96.0
2256,A1,211.0,124/125,127,96.0
2257,E2,211.0,0.25,127,96.0
2258,F#2,211.0,0.125,127,96.0
2259,F#3,211.0,0.125,127,96.0
2260,C#4,211.0,9/10,127,96.0
2261,B3,211.0,9/10,127,96.0
2262,F#2,211.5,0.125,60,96.0
2263,F#3,211.5,0.125,127,96.0
2264,G1,212.0,124/125,127,96.0
2265,E3,212.0,123/250,127,96.0
2266,G3,212.0,19/5,127,96.0
2267,A3,212.0,33/1000,127,96.0
2268,C2,212.0,0.25,127,96.0
2269,C#3,212.0,0.5,127,96.0
2270,F#2,212.0,0.125,127,96.0
2271,F#3,212.0,0.125,127,96.0
2272,A2,212.0,3/40,127,96.0
2273,C#4,212.0,3/40,127,96.0
2274,E3,212.0,3/40,127,96.0
2275,C#4,212.0,1383/1000,127,96.0
2276,B3,212.0,1383/1000,127,96.0
2277,D4,212.083,3917/1000,127,96.0
2278,G3,212.083,3917/1000,127,96.0
2279,G2,212.083,3917/1000,127,96.0
2280,F#3,212.5,123/250,127,96.0
2281,F#2,212.5,0.125,60,96.0
2282,F#3,212.5,0.125,127,96.0
2283,A2,213.0,167/1000,127,96.0
2284,G3,213.0,123/250,127,96.0
2285,E2,213.0,0.25,127,96.0
2286,F#2,213.0,0.125,127,96.0
2287,F#3,213.0,0.125,127,96.0
2288,D4,213.5,249/125,127,96.0
2289,C2,213.5,0.25,127,96.0
2290,A3,213.5,0.5,127,96.0
2291,F#2,213.5,0.125,60,96.0
2292,F#3,213.5,0.125,127,96.0
2293,G1,213.5,2333/1000,127,96.0
2294,G2,213.5,2333/1000,127,96.0
2295,A3,213.5,577/250,127,96.0
2296,B3,213.5,577/250,127,96.0
2297,F#2,214.0,0.125,127,96.0
2298,F#3,214.0,0.125,127,96.0
2299,F#2,214.5,0.125,60,96.0
2300,F#3,214.5,0.125,127,96.0
2301,D5,215.0,123/250,127,96.0
2302,E2,215.0,0.25,127,96.0
2303,F#2,215.0,0.125,127,96.0
2304,F#3,215.0,0.125,127,96.0
2305,G3,215.5,123/250,127,96.0
2306,C5,215.5,123/250,127,96.0
2307,C2,215.5,0.25,127,96.0
2308,F#2,215.5,0.125,60,96.0
2309,F#3,215.5,0.125,127,96.0
2310,F1,216.0,124/125,127,96.0
2311,F3,216.0,123/250,127,96.0
2312,B4,216.0,1333/1000,127,96.0
2313,F3,216.0,4.0,127,96.0
2314,C2,216.0,0.25,127,96.0
2315,C#3,216.0,0.5,127,96.0
2316,F#2,216.0,0.125,127,96.0
2317,F#3,216.0,0.125,127,96.0
2318,D4,216.0,3/40,127,96.0
2319,G3,216.0,3/40,127,96.0
2320,G2,216.0,3/40,127,96.0
2321,G3,216.0,59/40,127,96.0
2322,B3,216.0,59/40,127,96.0
2323,F3,216.083,3917/1000,127,96.0
2324,F2,216.083,3917/1000,127,96.0
2325,E4,216.083,3917/1000,127,96.0
2326,G3,216.5,123/250,127,96.0
2327,F#2,216.5,0.125,60,96.0
2328,F#3,216.5,0.125,127,96.0
2329,G2,217.0,167/1000,127,96.0
2330,A3,217.0,123/250,127,96.0
2331,E2,217.0,0.25,127,96.0
2332,F#2,217.0,0.125,127,96.0
2333,F#3,217.0,0.125,127,96.0
2334,E4,217.5,249/125,127,96.0
2335,C5,217.5,2.0,127,96.0
2336,C2,217.5,0.25,127,96.0
2337,A3,217.5,0.5,127,96.0
2338,F#2,217.5,0.125,60,96.0
2339,F#3,217.5,0.125,127,96.0
2340,F2,217.5,2333/1000,127,96.0
2341,F1,217.5,2333/1000,127,96.0
2342,A3,217.5,1583/1000,127,96.0
2343,C4,217.5,1583/1000,127,96.0
2344,F#2,218.0,0.125,127,96.0
2345,F#3,218.0,0.125,127,96.0
2346,E2,218.5,0.25,127,96.0
2347,F#2,218.5,0.125,60,96.0
2348,F#3,218.5,0.125,127,96.0
2349,C2,219.0,0.25,127,96.0
2350,F#2,219.0,0.125,127,96.0
2351,F#3,219.0,0.125,127,96.0
2352,D3,219.417,0.25,127,96.0
2353,C3,219.417,0.25,127,96.0
2354,F#2,219.5,0.125,60,96.0
2355,F#3,219.5,0.125,127,96.0
2356,B2,219.583,0.25,127,96.0
2357,A2,219.667,0.25,127,96.0
2358,C6,219.75,0.25,127,96.0
2359,F2,219.833,167/1000,127,96.0
2360,E2,220.0,1.25,127,96.0
2361,E3,220.0,373/250,127,96.0
2362,E4,220.0,4.0,127,96.0
2363,C2,220.0,0.25,127,96.0
2364,C#3,220.0,0.5,127,96.0
2365,F2,220.0,83/1000,127,96.0
2366,F#2,220.0,0.125,127,96.0
2367,C6,220.0,0.75,127,96.0
2368,F3,220.0,3/40,127,96.0
2369,F2,220.0,3/40,127,96.0
2370,E4,220.0,3/40,127,96.0
2371,B3,220.5,123/250,116,96.0
2372,B5,220.5,123/250,127,96.0
2373,G5,221.0,123/250,127,96.0
2374,C4,221.0,0.5,127,96.0
2375,G4,221.0,1/10,104,96.0
2376,D4,221.0,1/10,104,96.0
2377,B1,221.5,1.75,127,96.0
2378,B2,221.5,0.75,92,96.0
2379,E5,221.5,123/250,127,96.0
2380,D4,221.5,1.25,92,96.0
2381,A3,221.5,1.25,92,96.0
2382,F#3,221.608,0.125,34,96.0
2383,F#3,221.883,0.125,56,96.0
2384,F#5,222.0,123/250,127,96.0
2385,F#3,222.067,0.125,71,96.0
2386,F#3,222.233,0.125,84,96.0
2387,F#3,222.458,0.125,103,96.0
2388,B2,222.5,0.75,69,96.0
2389,D5,222.5,123/250,127,96.0
2390,F#3,222.608,0.125,115,96.0
2391,F#3,222.825,0.125,127,96.0
2392,B4,223.0,123/250,127,96.0
2393,A3,223.0,1/10,57,96.0
2394,D4,223.0,1/10,57,96.0
2395,F#3,223.008,0.125,127,96.0
2396,F#3,223.192,0.125,127,96.0
2397,F#3,223.367,0.125,127,96.0
2398,D2,223.5,0.5,127,96.0
2399,D3,223.5,0.5,46,96.0
2400,A4,223.5,0.5,127,96.0
2401,F#4,223.5,0.5,46,96.0
2402,D4,223.5,0.5,46,96.0
2403,F#3,223.542,0.125,127,96.0
2404,F#3,223.717,0.125,127,96.0
2405,F#3,223.867,0.125,127,96.0
2406,D2,224.0,1.25,127,96.0
2407,D3,224.0,0.25,46,96.0
2408,A4,224.0,123/250,127,96.0
2409,E4,224.0,4.0,127,96.0
2410,F#4,224.0,667/1000,46,96.0
2411,D4,224.0,667/1000,46,96.0
2412,F#3,224.067,0.125,127,96.0
2413,F#3,224.2,0.125,127,96.0
2414,F#3,224.425,0.125,127,96.0
2415,D3,224.5,0.75,22,96.0
2416,F#4,224.5,124/125,127,96.0
2417,F#5,224.5,124/125,127,96.0
2418,F#3,224.575,0.125,127,96.0
2419,F#3,224.808,0.125,121,96.0
2420,F#4,225.0,1/10,10,96.0
2421,D4,225.0,1/10,10,96.0
2422,F#3,225.017,0.125,115,96.0
2423,F#3,225.358,0.125,106,96.0
2424,A1,225.5,427/250,127,96.0
2425,D4,225.5,124/125,127,96.0
2426,G5,225.5,124/125,127,96.0
2427,F#3,225.658,0.125,97,96.0
2428,F#3,226.025,0.125,87,96.0
2429,F#3,226.408,0.125,77,96.0
2430,E4,226.5,124/125,127,96.0
2431,A5,226.5,124/125,127,96.0
2432,A1,227.5,167/1000,127,96.0
2433,B3,227.5,0.5,127,96.0
2434,B5,227.5,0.5,127,96.0
2435,F#3,227.667,0.125,42,96.0
2436,E2,228.0,1.25,127,96.0
2437,G5,228.0,373/250,127,96.0
2438,E3,228.0,373/250,127,96.0
2439,B3,228.0,1.5,127,96.0
2440,B5,228.0,1.5,127,96.0
2441,B6,228.5,0.25,127,96.0
2442,E7,229.0,0.25,127,96.0
2443,B1,229.5,1.75,127,96.0
2444,F#5,229.5,249/125,127,96.0
2445,B2,229.5,249/125,127,96.0
2446,B6,229.5,0.25,127,96.0
2447,D7,230.0,0.25,127,96.0
2448,B6,230.5,0.25,127,96.0
2449,A6,231.0,0.25,127,96.0
2450,D2,231.5,0.5,127,96.0
2451,F5,231.5,0.5,127,96.0
2452,D3,231.5,0.5,127,96.0
2453,E-3,231.5,0.25,127,96.0
2454,D2,232.0,1.25,127,96.0
2455,F5,232.0,373/250,127,96.0
2456,D3,232.0,373/250,127,96.0
2457,B3,232.5,0.25,127,96.0
2458,A1,233.5,427/250,127,96.0
2459,E5,233.5,2.5,127,96.0
2460,A2,233.5,2.25,127,96.0
2461,E-3,233.5,0.25,127,96.0
2462,B3,234.5,0.25,127,96.0
2463,G1,235.5,167/1000,127,96.0
2464,B3,235.5,0.25,127,96.0
2465,E2,236.0,1.25,127,96.0
2466,E-3,236.0,0.25,127,96.0
2467,E2,236.0,1.25,127,96.0
2468,D4,236.0,1.25,127,96.0
2469,B3,236.0,1.25,127,96.0
2470,G3,236.0,1.25,127,96.0
2471,B4,236.417,0.25,127,96.0
2472,B3,236.417,0.25,127,96.0
2473,E4,236.583,0.25,127,96.0
2474,E5,236.583,0.25,127,96.0
2475,D4,237.0,101/125,127,96.0
2476,F#2,237.0,0.125,127,96.0
2477,B3,237.083,0.25,127,96.0
2478,B4,237.083,0.25,127,96.0
2479,E4,237.25,0.25,127,96.0
2480,E5,237.25,0.25,127,96.0
2481,B1,237.5,1.75,127,96.0
2482,B1,237.5,1.75,127,96.0
2483,A3,237.5,1.75,127,96.0
2484,F#3,237.5,1.75,127,96.0
2485,D4,237.5,1.75,127,96.0
2486,B3,237.75,0.25,127,96.0
2487,B4,237.75,0.25,127,96.0
2488,E4,237.917,0.25,127,96.0
2489,E5,237.917,0.25,127,96.0
2490,D4,238.0,101/125,127,96.0
2491,A3,238.083,129/500,127,96.0
2492,B4,238.417,0.25,127,96.0
2493,B3,238.417,0.25,127,96.0
2494,A3,238.583,279/500,127,96.0
2495,E4,238.583,0.25,127,96.0
2496,E5,238.583,0.25,127,96.0
2497,D4,239.0,101/125,127,96.0
2498,F#2,239.0,0.125,127,96.0
2499,G3,239.075,279/500,127,96.0
2500,A3,239.083,129/500,127,96.0
2501,B4,239.083,0.25,127,96.0
2502,B3,239.083,0.25,127,96.0
2503,E4,239.25,0.25,127,96.0
2504,E5,239.25,0.25,127,96.0
2505,D2,239.5,0.5,127,96.0
2506,A3,239.5,0.5,127,96.0
2507,C4,239.5,0.5,127,96.0
2508,F3,239.5,0.5,127,96.0
2509,D2,239.5,0.5,127,96.0
2510,A3,239.567,26/125,127,96.0
2511,A3,239.583,417/1000,127,96.0
2512,B4,239.75,0.25,127,96.0
2513,B3,239.75,0.25,127,96.0
2514,E4,239.917,83/1000,127,96.0
2515,E5,239.917,83/1000,127,96.0
2516,D2,240.0,1.25,127,96.0
2517,A3,240.0,71/500,127,96.0
2518,A3,240.0,1.25,127,96.0
2519,C4,240.0,1.25,127,96.0
2520,F3,240.0,1.25,127,96.0
2521,D2,240.0,1.25,127,96.0
2522,E4,240.0,167/1000,127,96.0
2523,E5,240.0,167/1000,127,96.0
2524,A3,240.025,271/500,127,96.0
2525,G3,240.075,279/500,127,96.0
2526,A3,240.083,129/500,127,96.0
2527,B3,240.417,0.25,127,96.0
2528,B4,240.417,0.25,127,96.0
2529,G3,240.517,567/1000,127,96.0
2530,A3,240.567,26/125,127,96.0
2531,A3,240.583,279/500,127,96.0
2532,E4,240.583,0.25,127,96.0
2533,E5,240.583,0.25,127,96.0
2534,F#2,241.0,0.125,127,96.0
2535,A3,241.025,271/500,127,96.0
2536,B3,241.033,1367/1000,127,96.0
2537,G3,241.075,279/500,127,96.0
2538,B4,241.083,0.25,127,96.0
2539,B3,241.083,0.25,127,96.0
2540,E4,241.25,0.25,127,96.0
2541,E5,241.25,0.25,127,96.0
2542,A1,241.5,427/250,127,96.0
2543,G3,241.5,249/125,127,96.0
2544,E3,241.5,249/125,127,96.0
2545,C4,241.5,249/125,127,96.0
2546,A1,241.5,249/125,127,96.0
2547,G3,241.517,567/1000,127,96.0
2548,A3,241.567,26/125,127,96.0
2549,B3,241.75,0.25,127,96.0
2550,B4,241.75,0.25,127,96.0
2551,E4,241.917,0.25,127,96.0
2552,E5,241.917,0.25,127,96.0
2553,A3,242.025,271/500,127,96.0
2554,B3,242.033,1367/1000,127,96.0
2555,B3,242.417,0.25,127,96.0
2556,B4,242.417,0.25,127,96.0
2557,G3,242.517,567/1000,127,96.0
2558,E4,242.583,0.25,127,96.0
2559,E5,242.583,0.25,127,96.0
2560,F#2,243.0,0.125,127,96.0
2561,B3,243.033,967/1000,127,96.0
2562,B3,243.083,0.25,127,96.0
2563,B4,243.083,0.25,127,96.0
2564,E5,243.25,0.25,127,96.0
2565,E4,243.25,0.25,127,96.0
2566,A1,243.5,167/1000,127,96.0
2567,B3,243.75,0.25,127,96.0
2568,B4,243.75,0.25,127,96.0
2569,E5,243.917,83/1000,127,96.0
2570,E4,243.917,83/1000,127,96.0
2571,E2,244.0,1.25,127,96.0
2572,B3,244.0,2/5,127,96.0
2573,G3,244.0,1.25,127,96.0
2574,B3,244.0,1.25,127,96.0
2575,D4,244.0,1.25,127,96.0
2576,E2,244.0,1.25,127,96.0
2577,E5,244.0,167/1000,127,96.0
2578,E4,244.0,167/1000,127,96.0
2579,B3,244.533,583/1000,127,96.0
2580,F#2,245.0,0.125,127,96.0
2581,E4,245.017,483/1000,127,96.0
2582,D4,245.483,233/1000,127,96.0
2583,B1,245.5,1.75,127,96.0
2584,A3,245.5,1.75,127,96.0
2585,F#3,245.5,1.75,127,96.0
2586,D4,245.5,1.75,127,96.0
2587,B1,245.5,1.75,127,96.0
2588,B3,245.533,583/1000,127,96.0
2589,D4,245.983,533/1000,127,96.0
2590,E4,246.017,483/1000,127,96.0
2591,B3,246.483,271/500,127,96.0
2592,D4,246.483,233/1000,127,96.0
2593,B3,246.533,583/1000,127,96.0
2594,G3,246.975,51/125,127,96.0
2595,D4,246.983,533/1000,127,96.0
2596,F#2,247.0,0.125,127,96.0
2597,E4,247.017,483/1000,127,96.0
2598,A3,247.45,11/20,127,96.0
2599,B3,247.483,517/1000,127,96.0
2600,D4,247.483,233/1000,127,96.0
2601,D2,247.5,0.5,127,96.0
2602,A3,247.5,0.5,127,96.0
2603,F3,247.5,0.5,127,96.0
2604,C4,247.5,0.5,127,96.0
2605,D2,247.5,0.5,127,96.0
2606,G3,247.975,1/40,127,96.0
2607,D4,247.983,17/1000,127,96.0
2608,D2,248.0,1.25,127,96.0
2609,A3,248.0,127/250,127,96.0
2610,B3,248.0,1/40,127,96.0
2611,G3,248.0,383/1000,127,96.0
2612,D4,248.0,517/1000,127,96.0
2613,A3,248.0,1.25,127,96.0
2614,F3,248.0,1.25,127,96.0
2615,C4,248.0,1.25,127,96.0
2616,D2,248.0,1.25,127,96.0
2617,B4,248.417,0.25,127,96.0
2618,B3,248.417,0.25,127,96.0
2619,A3,248.45,529/500,127,96.0
2620,G3,248.467,583/1000,127,96.0
2621,B3,248.483,271/500,127,96.0
2622,E4,248.583,0.25,127,96.0
2623,E5,248.583,0.25,127,96.0
2624,G3,248.975,51/125,127,96.0
2625,B3,248.992,0.5,127,96.0
2626,F#2,249.0,0.125,127,96.0
2627,B3,249.083,0.25,127,96.0
2628,B4,249.083,0.25,127,96.0
2629,E4,249.25,0.25,127,96.0
2630,E5,249.25,0.25,127,96.0
2631,A3,249.45,529/500,127,96.0
2632,G3,249.467,583/1000,127,96.0
2633,A1,249.5,427/250,127,96.0
2634,G3,249.5,983/1000,127,96.0
2635,G3,249.5,249/125,127,96.0
2636,C4,249.5,249/125,127,96.0
2637,E3,249.5,249/125,127,96.0
2638,A1,249.5,249/125,127,96.0
2639,B3,249.75,0.25,127,96.0
2640,B4,249.75,0.25,127,96.0
2641,E4,249.917,0.25,127,96.0
2642,E5,249.917,0.25,127,96.0
2643,B3,249.992,0.5,127,96.0
2644,B4,250.417,0.25,127,96.0
2645,B3,250.417,0.25,127,96.0
2646,G3,250.467,583/1000,127,96.0
2647,G3,250.5,983/1000,127,96.0
2648,E4,250.583,0.25,127,96.0
2649,E5,250.583,0.25,127,96.0
2650,B3,250.992,0.5,127,96.0
2651,F#2,251.0,0.125,127,96.0
2652,B4,251.083,0.25,127,96.0
2653,B3,251.083,0.25,127,96.0
2654,E4,251.25,0.25,127,96.0
2655,E5,251.25,0.25,127,96.0
2656,G1,251.5,167/1000,127,96.0
2657,G3,251.5,0.5,127,96.0
2658,B4,251.75,0.25,127,96.0
2659,B3,251.75,0.25,127,96.0
2660,E4,251.917,83/1000,127,96.0
2661,E5,251.917,83/1000,127,96.0
2662,E2,252.0,1.25,127,96.0
2663,G3,252.0,483/1000,127,96.0
2664,E2,252.0,1.25,127,96.0
2665,D4,252.0,1.25,127,96.0
2666,B3,252.0,1.25,127,96.0
2667,G3,252.0,1.25,127,96.0
2668,E4,252.0,167/1000,127,96.0
2669,E5,252.0,167/1000,127,96.0
2670,B3,252.417,0.25,127,96.0
2671,B4,252.417,0.25,127,96.0
2672,E4,252.583,0.25,127,96.0
2673,E5,252.583,0.25,127,96.0
2674,G3,252.817,121/500,127,96.0
2675,F#2,253.0,0.125,127,96.0
2676,B3,253.017,11/20,127,96.0
2677,B4,253.083,0.25,127,96.0
2678,B3,253.083,0.25,127,96.0
2679,E4,253.25,0.25,127,96.0
2680,E5,253.25,0.25,127,96.0
2681,B1,253.5,1.75,127,96.0
2682,E4,253.5,1583/1000,40,96.0
2683,B1,253.5,1.75,127,96.0
2684,A3,253.5,1.75,127,96.0
2685,F#3,253.5,1.75,127,96.0
2686,D4,253.5,1.75,127,96.0
2687,D4,253.508,79/500,127,96.0
2688,B3,253.75,0.25,127,96.0
2689,B4,253.75,0.25,127,96.0
2690,D4,253.792,1183/1000,127,96.0
2691,G3,253.817,121/500,127,96.0
2692,E4,253.917,0.25,127,96.0
2693,E5,253.917,0.25,127,96.0
2694,B3,254.017,11/20,127,96.0
2695,B3,254.417,0.25,127,96.0
2696,B4,254.417,0.25,127,96.0
2697,D4,254.508,79/500,127,96.0
2698,E4,254.583,0.25,127,96.0
2699,E5,254.583,0.25,127,96.0
2700,D4,254.792,1183/1000,127,96.0
2701,G3,254.817,121/500,127,96.0
2702,F#2,255.0,0.125,127,96.0
2703,B3,255.017,11/20,127,96.0
2704,G3,255.025,11/40,127,96.0
2705,B3,255.083,0.25,127,96.0
2706,B4,255.083,0.25,127,96.0
2707,E5,255.25,0.25,127,96.0
2708,E4,255.25,0.25,127,96.0
2709,A3,255.475,21/40,127,96.0
2710,D2,255.5,0.5,127,96.0
2711,E4,255.5,0.5,54,96.0
2712,A3,255.5,0.5,127,96.0
2713,C4,255.5,0.5,127,96.0
2714,F3,255.5,0.5,127,96.0
2715,D2,255.5,0.5,127,96.0
2716,D4,255.508,79/500,127,96.0
2717,B3,255.75,0.25,127,96.0
2718,B4,255.75,0.25,127,96.0
2719,D4,255.792,26/125,127,96.0
2720,E5,255.917,83/1000,127,96.0
2721,E4,255.917,83/1000,127,96.0
2722,D2,256.0,1.25,127,96.0
2723,E4,256.0,1083/1000,54,96.0
2724,A3,256.0,76/125,127,96.0
2725,D4,256.0,39/40,127,96.0
2726,A3,256.0,1.25,127,96.0
2727,C4,256.0,1.25,127,96.0
2728,F3,256.0,1.25,127,96.0
2729,D2,256.0,1.25,127,96.0
2730,E5,256.0,167/1000,127,96.0
2731,E4,256.0,167/1000,127,96.0
2732,G3,256.025,11/40,127,96.0
2733,A3,256.475,1133/1000,127,96.0
2734,G3,256.55,3/5,127,96.0
2735,F#2,257.0,0.125,127,96.0
2736,G3,257.025,11/40,127,96.0
2737,E3,257.067,233/1000,127,96.0
2738,A3,257.475,1133/1000,127,96.0
2739,A1,257.5,427/250,127,96.0
2740,E4,257.5,1583/1000,69,96.0
2741,G3,257.5,249/125,127,96.0
2742,E3,257.5,249/125,127,96.0
2743,C4,257.5,249/125,127,96.0
2744,A1,257.5,249/125,127,96.0
2745,B3,257.542,43/40,127,96.0
2746,G3,257.55,3/5,127,96.0
2747,E3,258.067,233/1000,127,96.0
2748,B3,258.542,43/40,127,96.0
2749,G3,258.55,3/5,127,96.0
2750,F#2,259.0,0.125,127,96.0
2751,E3,259.067,233/1000,127,96.0
2752,A1,259.5,167/1000,127,96.0
2753,B3,259.542,229/500,127,96.0
2754,E2,260.0,1.25,127,96.0
2755,B3,260.0,617/1000,127,96.0
2756,G3,260.0,1.25,127,96.0
2757,B3,260.0,1.25,127,96.0
2758,D4,260.0,1.25,127,96.0
2759,E2,260.0,1.25,127,96.0
2760,G4,260.558,21/40,127,96.0
2761,F#4,260.992,517/1000,127,96.0
2762,F#2,261.0,0.125,127,96.0
2763,E4,261.483,283/1000,127,96.0
2764,B1,261.5,1.75,127,96.0
2765,E4,261.5,1583/1000,98,96.0
2766,A3,261.5,1.75,127,96.0
2767,F#3,261.5,1.75,127,96.0
2768,D4,261.5,1.75,127,96.0
2769,B1,261.5,1.75,127,96.0
2770,G4,261.558,21/40,127,96.0
2771,E4,261.975,273/250,127,96.0
2772,F#4,261.992,517/1000,127,96.0
2773,E4,262.483,283/1000,127,96.0
2774,G4,262.558,21/40,127,96.0
2775,E4,262.975,41/40,127,96.0
2776,F#4,262.992,517/1000,127,96.0
2777,F#2,263.0,0.125,127,96.0
2778,D4,263.008,271/500,127,96.0
2779,E4,263.483,283/1000,127,96.0
2780,D2,263.5,0.5,127,96.0
2781,E4,263.5,0.5,112,96.0
2782,A3,263.5,0.5,127,96.0
2783,F3,263.5,0.5,127,96.0
2784,C4,263.5,0.5,127,96.0
2785,D2,263.5,0.5,127,96.0
2786,E4,263.508,123/250,127,96.0
2787,E4,263.975,1/40,127,96.0
2788,D2,264.0,1.25,127,96.0
2789,E4,264.0,1083/1000,112,96.0
2790,E4,264.0,617/1000,127,96.0
2791,E4,264.0,67/1000,127,96.0
2792,E4,264.0,1067/1000,127,96.0
2793,A3,264.0,1.25,127,96.0
2794,F3,264.0,1.25,127,96.0
2795,C4,264.0,1.25,127,96.0
2796,D2,264.0,1.25,127,96.0
2797,D4,264.008,271/500,127,96.0
2798,B4,264.417,0.25,127,96.0
2799,B3,264.417,0.25,127,96.0
2800,E4,264.508,277/250,127,96.0
2801,D4,264.583,9/20,127,96.0
2802,E4,264.583,0.25,127,96.0
2803,E5,264.583,0.25,127,96.0
2804,F#2,265.0,0.125,127,96.0
2805,D4,265.008,271/500,127,96.0
2806,B3,265.083,171/500,127,96.0
2807,B3,265.083,0.25,127,96.0
2808,B4,265.083,0.25,127,96.0
2809,E4,265.25,0.25,127,96.0
2810,E5,265.25,0.25,127,96.0
2811,A1,265.5,427/250,127,96.0
2812,E4,265.5,1583/1000,127,96.0
2813,G3,265.5,273/250,127,96.0
2814,G3,265.5,249/125,127,96.0
2815,C4,265.5,249/125,127,96.0
2816,E3,265.5,249/125,127,96.0
2817,A1,265.5,249/125,127,96.0
2818,E4,265.508,277/250,127,96.0
2819,D4,265.583,9/20,127,96.0
2820,B3,265.75,0.25,127,96.0
2821,B4,265.75,0.25,127,96.0
2822,E4,265.917,0.25,127,96.0
2823,E5,265.917,0.25,127,96.0
2824,B3,266.083,171/500,127,96.0
2825,B4,266.417,0.25,127,96.0
2826,B3,266.417,0.25,127,96.0
2827,G3,266.5,273/250,127,96.0
2828,D4,266.583,9/20,127,96.0
2829,E4,266.583,0.25,127,96.0
2830,E5,266.583,0.25,127,96.0
2831,B5,267.0,123/250,127,96.0
2832,E2,267.0,0.25,127,96.0
2833,F#2,267.0,0.125,127,96.0
2834,B3,267.083,171/500,127,96.0
2835,B4,267.083,0.25,127,96.0
2836,B3,267.083,0.25,127,96.0
2837,E4,267.25,0.25,127,96.0
2838,E5,267.25,0.25,127,96.0
2839,G1,267.5,167/1000,127,96.0
2840,A5,267.5,123/250,127,96.0
2841,G3,267.5,0.5,127,96.0
2842,B-2,267.5,0.5,127,96.0
2843,C6,267.75,0.25,127,96.0
2844,B4,267.75,0.25,127,96.0
2845,B3,267.75,0.25,127,96.0
2846,E4,267.917,83/1000,127,96.0
2847,E5,267.917,83/1000,127,96.0
2848,E2,268.0,1.25,127,96.0
2849,G5,268.0,123/250,127,96.0
2850,E6,268.0,4.0,127,96.0
2851,G3,268.0,74/125,127,96.0
2852,C2,268.0,0.25,127,96.0
2853,G#2,268.0,0.125,127,96.0
2854,C6,268.0,0.75,127,96.0
2855,E2,268.0,1.25,127,96.0
2856,D4,268.0,1.25,127,96.0
2857,B3,268.0,1.25,127,96.0
2858,G3,268.0,1.25,127,96.0
2859,E4,268.0,167/1000,127,96.0
2860,E5,268.0,167/1000,127,96.0
2861,B3,268.417,0.25,127,96.0
2862,B4,268.417,0.25,127,96.0
2863,B4,268.5,123/250,127,96.0
2864,F#2,268.5,0.125,60,96.0
2865,E4,268.583,0.25,127,96.0
2866,E5,268.583,0.25,127,96.0
2867,B3,268.983,21/40,127,96.0
2868,E5,269.0,123/250,127,96.0
2869,E2,269.0,0.25,127,96.0
2870,F#2,269.0,0.125,127,96.0
2871,B4,269.083,0.25,127,96.0
2872,B3,269.083,0.25,127,96.0
2873,E4,269.25,0.25,127,96.0
2874,E5,269.25,0.25,127,96.0
2875,D4,269.467,11/40,127,96.0
2876,B1,269.5,1.75,127,96.0
2877,E4,269.5,1583/1000,127,96.0
2878,G5,269.5,123/250,127,96.0
2879,C2,269.5,0.25,127,96.0
2880,F#2,269.5,0.125,60,96.0
2881,B1,269.5,1.75,127,96.0
2882,A3,269.5,1.75,127,96.0
2883,F#3,269.5,1.75,127,96.0
2884,D4,269.5,1.75,127,96.0
2885,B3,269.75,0.25,127,96.0
2886,B4,269.75,0.25,127,96.0
2887,E4,269.917,0.25,127,96.0
2888,E5,269.917,0.25,127,96.0
2889,B3,269.983,21/40,127,96.0
2890,D4,269.992,273/250,127,96.0
2891,F#5,270.0,123/250,127,96.0
2892,C2,270.0,0.25,127,96.0
2893,F#2,270.0,0.125,127,96.0
2894,B3,270.417,0.25,127,96.0
2895,B4,270.417,0.25,127,96.0
2896,D4,270.467,11/40,127,96.0
2897,D5,270.5,123/250,127,96.0
2898,F#2,270.5,0.125,60,96.0
2899,E4,270.583,0.25,127,96.0
2900,E5,270.583,0.25,127,96.0
2901,B3,270.983,21/40,127,96.0
2902,D4,270.992,126/125,127,96.0
2903,A4,271.0,123/250,127,96.0
2904,E2,271.0,0.25,127,96.0
2905,F#2,271.0,0.125,127,96.0
2906,B3,271.017,19/40,127,96.0
2907,B3,271.083,0.25,127,96.0
2908,B4,271.083,0.25,127,96.0
2909,E5,271.25,0.25,127,96.0
2910,E4,271.25,0.25,127,96.0
2911,G3,271.45,179/500,127,96.0
2912,D4,271.467,11/40,127,96.0
2913,D2,271.5,0.5,127,96.0
2914,E4,271.5,0.5,127,96.0
2915,F#5,271.5,123/250,127,96.0
2916,C2,271.5,0.25,127,96.0
2917,F#2,271.5,0.125,60,96.0
2918,A3,271.5,0.5,127,96.0
2919,C4,271.5,0.5,127,96.0
2920,F3,271.5,0.5,127,96.0
2921,D2,271.5,0.5,127,96.0
2922,B3,271.75,0.25,127,96.0
2923,B4,271.75,0.25,127,96.0
2924,E5,271.917,83/1000,127,96.0
2925,E4,271.917,83/1000,127,96.0
2926,A3,271.95,1/20,127,96.0
2927,D4,271.992,1/125,127,96.0
2928,D2,272.0,1.25,127,96.0
2929,E4,272.0,1083/1000,127,96.0
2930,F5,272.0,123/250,127,96.0
2931,E6,272.0,4.0,127,96.0
2932,A3,272.0,73/250,127,96.0
2933,D4,272.0,83/1000,127,96.0
2934,D4,272.0,1083/1000,127,96.0
2935,C2,272.0,0.25,127,96.0
2936,F#2,272.0,0.125,127,96.0
2937,A3,272.0,1.25,127,96.0
2938,C4,272.0,1.25,127,96.0
2939,F3,272.0,1.25,127,96.0
2940,D2,272.0,1.25,127,96.0
2941,E5,272.0,167/1000,127,96.0
2942,E4,272.0,167/1000,127,96.0
2943,B3,272.017,19/40,127,96.0
2944,G3,272.25,267/1000,127,96.0
2945,G3,272.45,179/500,127,96.0
2946,D5,272.5,123/250,127,96.0
2947,F#2,272.5,0.125,60,96.0
2948,G3,272.725,221/500,127,96.0
2949,A3,272.95,171/500,127,96.0
2950,A4,273.0,123/250,127,96.0
2951,E2,273.0,0.25,127,96.0
2952,F#2,273.0,0.125,127,96.0
2953,B3,273.017,19/40,127,96.0
2954,E3,273.117,267/1000,127,96.0
2955,G3,273.25,267/1000,127,96.0
2956,B3,273.442,917/1000,127,96.0
2957,G3,273.45,179/500,127,96.0
2958,A1,273.5,427/250,127,96.0
2959,E4,273.5,1583/1000,127,96.0
2960,F5,273.5,123/250,127,96.0
2961,C2,273.5,0.25,127,96.0
2962,F#2,273.5,0.125,60,96.0
2963,G3,273.5,249/125,127,96.0
2964,E3,273.5,249/125,127,96.0
2965,C4,273.5,249/125,127,96.0
2966,A1,273.5,249/125,127,96.0
2967,G3,273.725,221/500,127,96.0
2968,A3,273.95,171/500,127,96.0
2969,E5,274.0,123/250,127,96.0
2970,C2,274.0,0.25,127,96.0
2971,F#2,274.0,0.125,127,96.0
2972,E3,274.117,267/1000,127,96.0
2973,G3,274.25,267/1000,127,96.0
2974,B3,274.442,917/1000,127,96.0
2975,C5,274.5,123/250,127,96.0
2976,F#2,274.5,0.125,60,96.0
2977,G3,274.725,221/500,127,96.0
2978,G4,275.0,124/125,127,96.0
2979,E2,275.0,0.25,127,96.0
2980,F#2,275.0,0.125,127,96.0
2981,B-4,275.0,0.125,127,96.0
2982,E3,275.117,267/1000,127,96.0
2983,B-4,275.125,0.125,127,96.0
2984,B-4,275.25,0.125,127,96.0
2985,B-4,275.375,0.125,127,96.0
2986,B3,275.442,279/500,127,96.0
2987,A1,275.5,167/1000,127,96.0
2988,F#2,275.5,0.125,60,96.0
2989,B-4,275.5,0.125,127,96.0
2990,B-4,275.625,0.125,127,96.0
2991,B-4,275.75,0.125,127,96.0
2992,B-4,275.875,0.125,127,96.0
2993,E2,276.0,1.25,127,96.0
2994,E6,276.0,4.0,127,96.0
2995,B3,276.0,179/500,127,96.0
2996,C2,276.0,0.25,127,96.0
2997,F#2,276.0,0.125,127,96.0
2998,B-4,276.0,0.125,127,96.0
2999,G3,276.0,1.25,127,96.0
3000,B3,276.0,1.25,127,96.0
3001,D4,276.0,1.25,127,96.0
3002,E2,276.0,1.25,127,96.0
3003,B4,276.417,0.25,127,96.0
3004,B3,276.417,0.25,127,96.0
3005,B4,276.5,123/250,127,96.0
3006,F#2,276.5,0.125,60,96.0
3007,E4,276.583,0.25,127,96.0
3008,E5,276.583,0.25,127,96.0
3009,G3,276.775,11/40,127,96.0
3010,B3,276.983,171/500,127,96.0
3011,E5,277.0,123/250,127,96.0
3012,E2,277.0,0.25,127,96.0
3013,F#2,277.0,0.125,127,96.0
3014,B3,277.083,0.25,127,96.0
3015,B4,277.083,0.25,127,96.0
3016,E4,277.25,0.25,127,96.0
3017,E5,277.25,0.25,127,96.0
3018,D4,277.258,121/500,127,96.0
3019,B1,277.5,1.75,127,96.0
3020,E4,277.5,1583/1000,127,96.0
3021,G5,277.5,123/250,127,96.0
3022,C2,277.5,0.25,127,96.0
3023,F#2,277.5,0.125,60,96.0
3024,A3,277.5,1.75,127,96.0
3025,F#3,277.5,1.75,127,96.0
3026,D4,277.5,1.75,127,96.0
3027,B1,277.5,1.75,127,96.0
3028,D4,277.75,323/250,127,96.0
3029,B3,277.75,0.25,127,96.0
3030,B4,277.75,0.25,127,96.0
3031,G3,277.775,11/40,127,96.0
3032,E4,277.917,0.25,127,96.0
3033,E5,277.917,0.25,127,96.0
3034,B3,277.983,171/500,127,96.0
3035,F#5,278.0,123/250,127,96.0
3036,C2,278.0,0.25,127,96.0
3037,F#2,278.0,0.125,127,96.0
3038,D4,278.258,121/500,127,96.0
3039,B4,278.417,0.25,127,96.0
3040,B3,278.417,0.25,127,96.0
3041,D5,278.5,123/250,127,96.0
3042,F#2,278.5,0.125,60,96.0
3043,E4,278.583,0.25,127,96.0
3044,E5,278.583,0.25,127,96.0
3045,D4,278.75,1.25,127,96.0
3046,G3,278.775,11/40,127,96.0
3047,B3,278.975,49/125,127,96.0
3048,B3,278.983,171/500,127,96.0
3049,A4,279.0,123/250,127,96.0
3050,E2,279.0,0.25,127,96.0
3051,F#2,279.0,0.125,127,96.0
3052,B4,279.083,0.25,127,96.0
3053,B3,279.083,0.25,127,96.0
3054,E4,279.25,0.25,127,96.0
3055,E5,279.25,0.25,127,96.0
3056,D4,279.258,121/500,127,96.0
3057,G3,279.317,217/1000,127,96.0
3058,D2,279.5,0.5,127,96.0
3059,E4,279.5,0.5,127,96.0
3060,F#5,279.5,123/250,127,96.0
3061,C2,279.5,0.25,127,96.0
3062,F#2,279.5,0.125,60,96.0
3063,A3,279.5,0.5,127,96.0
3064,F3,279.5,0.5,127,96.0
3065,C4,279.5,0.5,127,96.0
3066,D2,279.5,0.5,127,96.0
3067,A3,279.558,221/500,127,96.0
3068,D4,279.75,0.25,127,96.0
3069,B4,279.75,0.25,127,96.0
3070,B3,279.75,0.25,127,96.0
3071,E4,279.917,83/1000,127,96.0
3072,E5,279.917,83/1000,127,96.0
3073,B3,279.975,1/40,127,96.0
3074,D2,280.0,1.25,127,96.0
3075,E4,280.0,1083/1000,127,96.0
3076,F5,280.0,123/250,127,96.0
3077,E6,280.0,4.0,127,96.0
3078,A3,280.0,21/40,127,96.0
3079,D4,280.0,21/500,127,96.0
3080,B3,280.0,367/1000,127,96.0
3081,D4,280.0,521/500,127,96.0
3082,C2,280.0,0.25,127,96.0
3083,F#2,280.0,0.125,127,96.0
3084,A3,280.0,1.25,127,96.0
3085,F3,280.0,1.25,127,96.0
3086,C4,280.0,1.25,127,96.0
3087,D2,280.0,1.25,127,96.0
3088,E4,280.0,167/1000,127,96.0
3089,E5,280.0,167/1000,127,96.0
3090,G3,280.317,217/1000,127,96.0
3091,B3,280.417,0.25,127,96.0
3092,B4,280.417,0.25,127,96.0
3093,G3,280.483,23/40,127,96.0
3094,D5,280.5,123/250,127,96.0
3095,F#2,280.5,0.125,60,96.0
3096,A3,280.558,967/1000,127,96.0
3097,E4,280.583,0.25,127,96.0
3098,E5,280.583,0.25,127,96.0
3099,B3,280.975,49/125,127,96.0
3100,B3,280.992,233/1000,127,96.0
3101,A4,281.0,123/250,127,96.0
3102,E2,281.0,0.25,127,96.0
3103,F#2,281.0,0.125,127,96.0
3104,B4,281.083,0.25,127,96.0
3105,B3,281.083,0.25,127,96.0
3106,E4,281.25,0.25,127,96.0
3107,E5,281.25,0.25,127,96.0
3108,G3,281.317,217/1000,127,96.0
3109,B3,281.458,127/250,127,96.0
3110,G3,281.483,23/40,127,96.0
3111,A1,281.5,427/250,127,96.0
3112,E4,281.5,1583/1000,127,96.0
3113,F5,281.5,123/250,127,96.0
3114,C2,281.5,0.25,127,96.0
3115,F#2,281.5,0.125,60,96.0
3116,G3,281.5,249/125,127,96.0
3117,C4,281.5,249/125,127,96.0
3118,E3,281.5,249/125,127,96.0
3119,A1,281.5,249/125,127,96.0
3120,A3,281.558,967/1000,127,96.0
3121,B3,281.75,0.25,127,96.0
3122,B4,281.75,0.25,127,96.0
3123,E4,281.917,0.25,127,96.0
3124,E5,281.917,0.25,127,96.0
3125,G3,281.975,33/40,127,96.0
3126,B3,281.992,233/1000,127,96.0
3127,E5,282.0,123/250,127,96.0
3128,C2,282.0,0.25,127,96.0
3129,F#2,282.0,0.125,127,96.0
3130,B3,282.417,0.25,127,96.0
3131,B4,282.417,0.25,127,96.0
3132,B3,282.458,127/250,127,96.0
3133,G3,282.483,23/40,127,96.0
3134,C5,282.5,123/250,127,96.0
3135,F#2,282.5,0.125,60,96.0
3136,E4,282.583,0.25,127,96.0
3137,E5,282.583,0.25,127,96.0
3138,G3,282.975,33/40,127,96.0
3139,B3,282.992,233/1000,127,96.0
3140,G4,283.0,123/250,127,96.0
3141,E2,283.0,0.25,127,96.0
3142,F#2,283.0,0.125,127,96.0
3143,B-4,283.0,0.125,127,96.0
3144,B3,283.083,0.25,127,96.0
3145,B4,283.083,0.25,127,96.0
3146,B-4,283.125,0.125,127,96.0
3147,B-4,283.25,0.125,127,96.0
3148,E5,283.25,0.25,127,96.0
3149,E4,283.25,0.25,127,96.0
3150,B-4,283.375,0.125,127,96.0
3151,B3,283.458,127/250,127,96.0
3152,G1,283.5,167/1000,127,96.0
3153,D5,283.5,123/250,127,96.0
3154,F#2,283.5,0.125,60,96.0
3155,B-4,283.5,0.125,127,96.0
3156,B-4,283.625,0.125,127,96.0
3157,B-4,283.75,0.125,127,96.0
3158,B3,283.75,0.25,127,96.0
3159,B4,283.75,0.25,127,96.0
3160,B-4,283.875,0.125,127,96.0
3161,E5,283.917,83/1000,127,96.0
3162,E4,283.917,83/1000,127,96.0
3163,G3,283.975,1/40,127,96.0
3164,E2,284.0,1.25,127,96.0
3165,E5,284.0,123/250,127,96.0
3166,E6,284.0,4.0,127,96.0
3167,G3,284.0,4/5,127,96.0
3168,C2,284.0,0.25,127,96.0
3169,F#2,284.0,0.125,127,96.0
3170,B-4,284.0,0.125,127,96.0
3171,E2,284.0,1.25,127,96.0
3172,D4,284.0,1.25,127,96.0
3173,B3,284.0,1.25,127,96.0
3174,G3,284.0,1.25,127,96.0
3175,E5,284.0,167/1000,127,96.0
3176,E4,284.0,167/1000,127,96.0
3177,B4,284.5,123/250,127,96.0
3178,F#2,284.5,0.125,60,96.0
3179,G3,284.808,73/250,127,96.0
3180,E5,285.0,123/250,127,96.0
3181,E2,285.0,0.25,127,96.0
3182,F#2,285.0,0.125,127,96.0
3183,B3,285.042,533/1000,127,96.0
3184,B1,285.5,1.75,127,96.0
3185,E4,285.5,1583/1000,127,96.0
3186,G5,285.5,123/250,127,96.0
3187,C2,285.5,0.25,127,96.0
3188,F#2,285.5,0.125,60,96.0
3189,B1,285.5,1.75,127,96.0
3190,A3,285.5,1.75,127,96.0
3191,F#3,285.5,1.75,127,96.0
3192,D4,285.5,1.75,127,96.0
3193,D4,285.508,3/10,127,96.0
3194,G3,285.808,73/250,127,96.0
3195,F#5,286.0,123/250,127,96.0
3196,C2,286.0,0.25,127,96.0
3197,F#2,286.0,0.125,127,96.0
3198,D4,286.017,521/500,127,96.0
3199,B3,286.042,533/1000,127,96.0
3200,D5,286.5,123/250,127,96.0
3201,F#2,286.5,0.125,60,96.0
3202,D4,286.508,3/10,127,96.0
3203,G3,286.808,73/250,127,96.0
3204,B3,286.958,567/1000,127,96.0
3205,A4,287.0,123/250,127,96.0
3206,E2,287.0,0.25,127,96.0
3207,F#2,287.0,0.125,127,96.0
3208,D4,287.017,983/1000,127,96.0
3209,B3,287.042,533/1000,127,96.0
3210,G3,287.475,21/40,127,96.0
3211,D2,287.5,0.5,127,96.0
3212,E4,287.5,0.5,127,96.0
3213,F#5,287.5,123/250,127,96.0
3214,C2,287.5,0.25,127,96.0
3215,F#2,287.5,0.125,60,96.0
3216,A3,287.5,0.5,127,96.0
3217,C4,287.5,0.5,127,96.0
3218,F3,287.5,0.5,127,96.0
3219,D2,287.5,0.5,127,96.0
3220,D4,287.508,3/10,127,96.0
3221,B3,287.958,21/500,127,96.0
3222,D2,288.0,1.25,127,96.0
3223,E4,288.0,1083/1000,127,96.0
3224,F5,288.0,123/250,127,96.0
3225,E6,288.0,4.0,127,96.0
3226,G3,288.0,83/1000,127,96.0
3227,D4,288.0,29/500,127,96.0
3228,B3,288.0,21/40,127,96.0
3229,C2,288.0,0.25,127,96.0
3230,F#2,288.0,0.125,127,96.0
3231,A3,288.0,1.25,127,96.0
3232,C4,288.0,1.25,127,96.0
3233,F3,288.0,1.25,127,96.0
3234,D2,288.0,1.25,127,96.0
3235,A3,288.017,73/250,127,96.0
3236,D4,288.017,521/500,127,96.0
3237,E3,288.275,77/250,127,96.0
3238,G3,288.475,76/125,127,96.0
3239,D5,288.5,123/250,127,96.0
3240,F#2,288.5,0.125,60,96.0
3241,E3,288.817,171/500,127,96.0
3242,B3,288.958,567/1000,127,96.0
3243,A4,289.0,123/250,127,96.0
3244,E2,289.0,0.25,127,96.0
3245,F#2,289.0,0.125,127,96.0
3246,A3,289.017,73/250,127,96.0
3247,E3,289.275,77/250,127,96.0
3248,E3,289.392,3/10,127,96.0
3249,G3,289.475,76/125,127,96.0
3250,A1,289.5,427/250,127,96.0
3251,E4,289.5,1583/1000,127,96.0
3252,F5,289.5,123/250,127,96.0
3253,C2,289.5,0.25,127,96.0
3254,F#2,289.5,0.125,60,96.0
3255,G3,289.5,249/125,127,96.0
3256,E3,289.5,249/125,127,96.0
3257,C4,289.5,249/125,127,96.0
3258,A1,289.5,249/125,127,96.0
3259,B3,289.625,1133/1000,127,96.0
3260,E3,289.817,171/500,127,96.0
3261,E5,290.0,123/250,127,96.0
3262,C2,290.0,0.25,127,96.0
3263,F#2,290.0,0.125,127,96.0
3264,A3,290.017,73/250,127,96.0
3265,E3,290.275,77/250,127,96.0
3266,E3,290.392,3/10,127,96.0
3267,C5,290.5,123/250,127,96.0
3268,F#2,290.5,0.125,60,96.0
3269,B3,290.625,1133/1000,127,96.0
3270,E3,290.817,171/500,127,96.0
3271,G4,291.0,124/125,127,96.0
3272,B6,291.0,124/125,100,96.0
3273,E2,291.0,0.25,127,96.0
3274,F#2,291.0,0.125,127,96.0
3275,B-4,291.0,0.125,127,96.0
3276,B-4,291.125,0.125,127,96.0
3277,B-4,291.25,0.125,127,96.0
3278,B-4,291.375,0.125,127,96.0
3279,E3,291.392,3/10,127,96.0
3280,A1,291.5,167/1000,127,96.0
3281,F#2,291.5,0.125,60,96.0
3282,B-4,291.5,0.125,127,96.0
3283,B3,291.625,0.375,127,96.0
3284,B-4,291.625,0.125,127,96.0
3285,B-4,291.75,0.125,127,96.0
3286,B-4,291.875,0.125,127,96.0
3287,E2,292.0,1.25,127,96.0
3288,E6,292.0,4.0,127,96.0
3289,B3,292.0,379/500,127,96.0
3290,C2,292.0,0.25,127,96.0
3291,F#2,292.0,0.125,127,96.0
3292,B-4,292.0,0.125,127,96.0
3293,G3,292.0,1.25,127,96.0
3294,B3,292.0,1.25,127,96.0
3295,D4,292.0,1.25,127,96.0
3296,E2,292.0,1.25,127,96.0
3297,B4,292.5,123/250,127,96.0
3298,F#2,292.5,0.125,60,96.0
3299,B3,292.992,7/20,127,96.0
3300,E5,293.0,123/250,127,96.0
3301,E2,293.0,0.25,127,96.0
3302,F#2,293.0,0.125,127,96.0
3303,D4,293.25,217/1000,127,96.0
3304,B1,293.5,1.75,127,96.0
3305,E4,293.5,1583/1000,127,96.0
3306,G5,293.5,123/250,127,96.0
3307,A6,293.5,2.5,100,96.0
3308,C2,293.5,0.25,127,96.0
3309,F#2,293.5,0.125,60,96.0
3310,A3,293.5,1.75,127,96.0
3311,F#3,293.5,1.75,127,96.0
3312,D4,293.5,1.75,127,96.0
3313,B1,293.5,1.75,127,96.0
3314,D4,293.642,679/500,127,96.0
3315,B3,293.992,7/20,127,96.0
3316,F#5,294.0,123/250,127,96.0
3317,C2,294.0,0.25,127,96.0
3318,F#2,294.0,0.125,127,96.0
3319,D4,294.25,217/1000,127,96.0
3320,D5,294.5,123/250,127,96.0
3321,F#2,294.5,0.125,60,96.0
3322,D4,294.642,679/500,127,96.0
3323,A3,294.975,183/1000,127,96.0
3324,B3,294.992,7/20,127,96.0
3325,A4,295.0,123/250,127,96.0
3326,E2,295.0,0.25,127,96.0
3327,F#2,295.0,0.125,127,96.0
3328,D4,295.25,217/1000,127,96.0
3329,A3,295.442,279/500,127,96.0
3330,D2,295.5,0.5,127,96.0
3331,E4,295.5,0.5,127,96.0
3332,F#5,295.5,123/250,127,96.0
3333,C2,295.5,0.25,127,96.0
3334,F#2,295.5,0.125,60,96.0
3335,A3,295.5,0.5,127,96.0
3336,F3,295.5,0.5,127,96.0
3337,C4,295.5,0.5,127,96.0
3338,D2,295.5,0.5,127,96.0
3339,D4,295.642,179/500,127,96.0
3340,A3,295.975,1/40,127,96.0
3341,D2,296.0,1.25,127,96.0
3342,E4,296.0,1083/1000,127,96.0
3343,F5,296.0,123/250,127,96.0
3344,E6,296.0,4.0,127,96.0
3345,A6,296.0,0.5,100,96.0
3346,A3,296.0,617/1000,127,96.0
3347,A3,296.0,79/500,127,96.0
3348,D4,296.0,1.0,127,96.0
3349,C2,296.0,0.25,127,96.0
3350,F#2,296.0,0.125,127,96.0
3351,A3,296.0,1.25,127,96.0
3352,F3,296.0,1.25,127,96.0
3353,C4,296.0,1.25,127,96.0
3354,D2,296.0,1.25,127,96.0
3355,B4,296.417,0.25,127,96.0
3356,B3,296.417,0.25,127,96.0
3357,A3,296.442,47/40,127,96.0
3358,D5,296.5,123/250,127,96.0
3359,F#2,296.5,0.125,60,96.0
3360,G3,296.542,127/250,127,96.0
3361,E4,296.583,0.25,127,96.0
3362,E5,296.583,0.25,127,96.0
3363,A3,296.975,183/1000,127,96.0
3364,B3,296.983,283/1000,127,96.0
3365,A4,297.0,123/250,127,96.0
3366,E2,297.0,0.25,127,96.0
3367,F#2,297.0,0.125,127,96.0
3368,B3,297.083,0.25,127,96.0
3369,B4,297.083,0.25,127,96.0
3370,E4,297.25,0.25,127,96.0
3371,E5,297.25,0.25,127,96.0
3372,A3,297.442,47/40,127,96.0
3373,B3,297.483,467/1000,127,96.0
3374,A1,297.5,427/250,127,96.0
3375,E4,297.5,1583/1000,127,96.0
3376,F5,297.5,123/250,127,96.0
3377,C2,297.5,0.25,127,96.0
3378,F#2,297.5,0.125,60,96.0
3379,G3,297.5,249/125,127,96.0
3380,C4,297.5,249/125,127,96.0
3381,E3,297.5,249/125,127,96.0
3382,A1,297.5,249/125,127,96.0
3383,G3,297.542,127/250,127,96.0
3384,B3,297.75,0.25,127,96.0
3385,B4,297.75,0.25,127,96.0
3386,E4,297.917,0.25,127,96.0
3387,E5,297.917,0.25,127,96.0
3388,G3,297.958,0.75,127,96.0
3389,B3,297.983,283/1000,127,96.0
3390,E5,298.0,123/250,127,96.0
3391,C5,298.0,124/125,127,96.0
3392,C2,298.0,0.25,127,96.0
3393,F#2,298.0,0.125,127,96.0
3394,B4,298.417,0.25,127,96.0
3395,B3,298.417,0.25,127,96.0
3396,B3,298.483,467/1000,127,96.0
3397,C5,298.5,123/250,127,96.0
3398,F#2,298.5,0.125,60,96.0
3399,G3,298.542,127/250,127,96.0
3400,E4,298.583,0.25,127,96.0
3401,E5,298.583,0.25,127,96.0
3402,G3,298.958,0.75,127,96.0
3403,B3,298.983,283/1000,127,96.0
3404,G4,299.0,123/250,127,96.0
3405,D5,299.0,124/125,127,96.0
3406,E2,299.0,0.25,127,96.0
3407,F#2,299.0,0.125,127,96.0
3408,B-4,299.0,0.125,127,96.0
3409,B4,299.083,0.25,127,96.0
3410,B3,299.083,0.25,127,96.0
3411,B-4,299.125,0.125,127,96.0
3412,B-4,299.25,0.125,127,96.0
3413,E4,299.25,0.25,127,96.0
3414,E5,299.25,0.25,127,96.0
3415,B-4,299.375,0.125,127,96.0
3416,B3,299.483,467/1000,127,96.0
3417,G1,299.5,167/1000,127,96.0
3418,D5,299.5,123/250,127,96.0
3419,F#2,299.5,0.125,60,96.0
3420,B-4,299.5,0.125,127,96.0
3421,B-4,299.625,0.125,127,96.0
3422,B-4,299.75,0.125,127,96.0
3423,B4,299.75,0.25,127,96.0
3424,B3,299.75,0.25,127,96.0
3425,B-4,299.875,0.125,127,96.0
3426,E4,299.917,83/1000,127,96.0
3427,E5,299.917,83/1000,127,96.0
3428,G3,299.958,21/500,127,96.0
3429,E2,300.0,1.25,127,96.0
3430,E5,300.0,123/250,127,96.0
3431,B4,300.0,2.25,127,96.0
3432,E6,300.0,4.0,127,96.0
3433,G3,300.0,177/250,127,96.0
3434,C2,300.0,0.25,127,96.0
3435,F#2,300.0,0.125,127,96.0
3436,B-4,300.0,0.125,127,96.0
3437,E2,300.0,1.25,127,96.0
3438,D4,300.0,1.25,127,96.0
3439,B3,300.0,1.25,127,96.0
3440,G3,300.0,1.25,127,96.0
3441,B4,300.0,373/250,127,96.0
3442,G4,300.0,373/250,127,96.0
3443,E4,300.0,167/1000,127,96.0
3444,E5,300.0,167/1000,127,96.0
3445,B3,300.417,0.25,127,96.0
3446,B4,300.417,0.25,127,96.0
3447,B4,300.5,123/250,127,96.0
3448,F#2,300.5,0.125,60,96.0
3449,B3,300.542,49/125,127,96.0
3450,E4,300.583,0.25,127,96.0
3451,E5,300.583,0.25,127,96.0
3452,E5,301.0,123/250,127,96.0
3453,E2,301.0,0.25,127,96.0
3454,F#2,301.0,0.125,127,96.0
3455,G4,301.033,33/40,127,96.0
3456,B4,301.083,0.25,127,96.0
3457,B3,301.083,0.25,127,96.0
3458,E4,301.25,0.25,127,96.0
3459,E5,301.25,0.25,127,96.0
3460,B1,301.5,1.75,127,96.0
3461,E4,301.5,1583/1000,127,96.0
3462,G5,301.5,123/250,127,96.0
3463,C2,301.5,0.25,127,96.0
3464,F#2,301.5,0.125,60,96.0
3465,B1,301.5,1.75,127,96.0
3466,A3,301.5,1.75,127,96.0
3467,F#3,301.5,1.75,127,96.0
3468,D4,301.5,1.75,127,96.0
3469,A4,301.5,1.75,127,96.0
3470,F#4,301.5,1.75,127,96.0
3471,B3,301.542,49/125,127,96.0
3472,B3,301.75,0.25,127,96.0
3473,B4,301.75,0.25,127,96.0
3474,E4,301.917,0.25,127,96.0
3475,E5,301.917,0.25,127,96.0
3476,F#5,302.0,123/250,127,96.0
3477,C2,302.0,0.25,127,96.0
3478,F#2,302.0,0.125,127,96.0
3479,F#4,302.008,529/500,127,96.0
3480,G4,302.033,33/40,127,96.0
3481,B3,302.417,0.25,127,96.0
3482,B4,302.417,0.25,127,96.0
3483,D5,302.5,123/250,127,96.0
3484,F#2,302.5,0.125,60,96.0
3485,B3,302.542,49/125,127,96.0
3486,E4,302.583,0.25,127,96.0
3487,E5,302.583,0.25,127,96.0
3488,A4,303.0,123/250,127,96.0
3489,E2,303.0,0.25,127,96.0
3490,F#2,303.0,0.125,127,96.0
3491,F#4,303.008,124/125,127,96.0
3492,G4,303.033,33/40,127,96.0
3493,D4,303.042,0.5,127,96.0
3494,B3,303.083,0.25,127,96.0
3495,B4,303.083,0.25,127,96.0
3496,E5,303.25,0.25,127,96.0
3497,E4,303.25,0.25,127,96.0
3498,D2,303.5,0.5,127,96.0
3499,E4,303.5,0.5,127,96.0
3500,F#5,303.5,123/250,127,96.0
3501,C2,303.5,0.25,127,96.0
3502,F#2,303.5,0.125,60,96.0
3503,A3,303.5,0.5,127,96.0
3504,C4,303.5,0.5,127,96.0
3505,F3,303.5,0.5,127,96.0
3506,D2,303.5,0.5,127,96.0
3507,F#4,303.5,0.5,127,96.0
3508,A4,303.5,0.5,127,96.0
3509,B3,303.517,483/1000,127,96.0
3510,B3,303.75,0.25,127,96.0
3511,B4,303.75,0.25,127,96.0
3512,E5,303.917,83/1000,127,96.0
3513,E4,303.917,83/1000,127,96.0
3514,D2,304.0,1.25,127,96.0
3515,E4,304.0,1083/1000,127,96.0
3516,F5,304.0,123/250,127,96.0
3517,E6,304.0,4.0,127,96.0
3518,F4,304.0,483/1000,127,96.0
3519,B3,304.0,21/500,127,96.0
3520,F#4,304.0,67/1000,127,96.0
3521,C2,304.0,0.25,127,96.0
3522,F#2,304.0,0.125,127,96.0
3523,A3,304.0,1.25,127,96.0
3524,C4,304.0,1.25,127,96.0
3525,F3,304.0,1.25,127,96.0
3526,D2,304.0,1.25,127,96.0
3527,F#4,304.0,373/250,127,96.0
3528,A4,304.0,373/250,127,96.0
3529,E5,304.0,167/1000,127,96.0
3530,E4,304.0,167/1000,127,96.0
3531,F#4,304.008,529/500,127,96.0
3532,D4,304.042,0.5,127,96.0
3533,D5,304.5,123/250,127,96.0
3534,D4,304.5,333/1000,127,96.0
3535,F#2,304.5,0.125,60,96.0
3536,B3,304.517,21/40,127,96.0
3537,F4,304.958,123/250,127,96.0
3538,A4,305.0,123/250,127,96.0
3539,F4,305.0,483/1000,127,96.0
3540,E2,305.0,0.25,127,96.0
3541,F#2,305.0,0.125,127,96.0
3542,D4,305.042,0.5,127,96.0
3543,E4,305.492,373/250,127,96.0
3544,A1,305.5,427/250,127,96.0
3545,E4,305.5,1583/1000,127,96.0
3546,F5,305.5,123/250,127,96.0
3547,D4,305.5,333/1000,127,96.0
3548,C2,305.5,0.25,127,96.0
3549,F#2,305.5,0.125,60,96.0
3550,G3,305.5,249/125,127,96.0
3551,E3,305.5,249/125,127,96.0
3552,C4,305.5,249/125,127,96.0
3553,A1,305.5,249/125,127,96.0
3554,G4,305.5,249/125,127,96.0
3555,E4,305.5,249/125,127,96.0
3556,B3,305.517,21/40,127,96.0
3557,F4,305.958,123/250,127,96.0
3558,E5,306.0,123/250,127,96.0
3559,F4,306.0,483/1000,127,96.0
3560,C2,306.0,0.25,127,96.0
3561,F#2,306.0,0.125,127,96.0
3562,E4,306.492,373/250,127,96.0
3563,C5,306.5,123/250,127,96.0
3564,D4,306.5,333/1000,127,96.0
3565,F#2,306.5,0.125,60,96.0
3566,F4,306.958,123/250,127,96.0
3567,G4,307.0,124/125,127,96.0
3568,E2,307.0,0.25,127,96.0
3569,F#2,307.0,0.125,127,96.0
3570,B-4,307.0,0.125,127,96.0
3571,B-4,307.125,0.125,127,96.0
3572,B-4,307.25,0.125,127,96.0
3573,B-4,307.375,0.125,127,96.0
3574,E4,307.492,127/250,127,96.0
3575,A1,307.5,167/1000,127,96.0
3576,F#2,307.5,0.125,60,96.0
3577,B-4,307.5,0.125,127,96.0
3578,B-4,307.625,0.125,127,96.0
3579,B-4,307.75,0.125,127,96.0
3580,B-4,307.875,0.125,127,96.0
3581,E2,308.0,1.25,127,96.0
3582,E6,308.0,4.0,127,96.0
3583,E4,308.0,983/1000,127,96.0
3584,C2,308.0,0.25,127,96.0
3585,F#2,308.0,0.125,127,96.0
3586,B-4,308.0,0.125,127,96.0
3587,G3,308.0,1.25,127,96.0
3588,B3,308.0,1.25,127,96.0
3589,D4,308.0,1.25,127,96.0
3590,E2,308.0,1.25,127,96.0
3591,G4,308.0,373/250,127,96.0
3592,B4,308.0,373/250,127,96.0
3593,B4,308.5,123/250,127,96.0
3594,F#2,308.5,0.125,60,96.0
3595,B3,308.75,383/1000,127,96.0
3596,E5,309.0,123/250,127,96.0
3597,E2,309.0,0.25,127,96.0
3598,F#2,309.0,0.125,127,96.0
3599,G4,309.008,13/40,127,96.0
3600,B1,309.5,1.75,127,96.0
3601,E4,309.5,1583/1000,127,96.0
3602,G5,309.5,123/250,127,96.0
3603,C2,309.5,0.25,127,96.0
3604,F#2,309.5,0.125,60,96.0
3605,A3,309.5,1.75,127,96.0
3606,F#3,309.5,1.75,127,96.0
3607,D4,309.5,1.75,127,96.0
3608,B1,309.5,1.75,127,96.0
3609,A4,309.5,1.75,127,96.0
3610,F#4,309.5,1.75,127,96.0
3611,G4,309.508,11/20,127,96.0
3612,B3,309.75,383/1000,127,96.0
3613,F#4,309.992,21/40,127,96.0
3614,F#5,310.0,123/250,127,96.0
3615,C2,310.0,0.25,127,96.0
3616,F#2,310.0,0.125,127,96.0
3617,G4,310.008,13/40,127,96.0
3618,D4,310.475,267/1000,127,96.0
3619,D5,310.5,123/250,127,96.0
3620,F#2,310.5,0.125,60,96.0
3621,G4,310.508,11/20,127,96.0
3622,B3,310.75,383/1000,127,96.0
3623,D4,310.933,179/500,127,96.0
3624,F#4,310.992,21/40,127,96.0
3625,A4,311.0,123/250,127,96.0
3626,E2,311.0,0.25,127,96.0
3627,F#2,311.0,0.125,127,96.0
3628,G4,311.008,13/40,127,96.0
3629,D4,311.475,267/1000,127,96.0
3630,D2,311.5,0.5,127,96.0
3631,E4,311.5,0.5,127,96.0
3632,F#5,311.5,123/250,127,96.0
3633,C2,311.5,0.25,127,96.0
3634,F#2,311.5,0.125,60,96.0
3635,A3,311.5,0.5,127,96.0
3636,F3,311.5,0.5,127,96.0
3637,C4,311.5,0.5,127,96.0
3638,D2,311.5,0.5,127,96.0
3639,A4,311.5,0.5,127,96.0
3640,F#4,311.5,0.5,127,96.0
3641,D4,311.508,77/250,127,96.0
3642,G4,311.508,123/250,127,96.0
3643,B3,311.758,121/500,127,96.0
3644,D4,311.933,67/1000,127,96.0
3645,F4,311.992,1/125,127,96.0
3646,F#4,311.992,1/125,127,96.0
3647,D2,312.0,1.25,127,96.0
3648,E4,312.0,1083/1000,127,96.0
3649,F5,312.0,123/250,127,96.0
3650,E6,312.0,4.0,127,96.0
3651,B3,312.0,1/20,127,96.0
3652,F4,312.0,2/5,127,96.0
3653,D4,312.0,73/250,127,96.0
3654,G4,312.0,29/500,127,96.0
3655,F#4,312.0,517/1000,127,96.0
3656,C2,312.0,0.25,127,96.0
3657,F#2,312.0,0.125,127,96.0
3658,A3,312.0,1.25,127,96.0
3659,F3,312.0,1.25,127,96.0
3660,C4,312.0,1.25,127,96.0
3661,D2,312.0,1.25,127,96.0
3662,A4,312.0,373/250,127,96.0
3663,F#4,312.0,373/250,127,96.0
3664,D4,312.342,171/500,127,96.0
3665,B4,312.417,0.25,127,96.0
3666,B3,312.417,0.25,127,96.0
3667,D4,312.475,267/1000,127,96.0
3668,D5,312.5,123/250,127,96.0
3669,F#2,312.5,0.125,60,96.0
3670,D4,312.508,77/250,127,96.0
3671,E4,312.583,0.25,127,96.0
3672,E5,312.583,0.25,127,96.0
3673,F4,312.75,633/1000,127,96.0
3674,B3,312.758,73/250,127,96.0
3675,D4,312.933,179/500,127,96.0
3676,F4,312.992,51/125,127,96.0
3677,A4,313.0,123/250,127,96.0
3678,E2,313.0,0.25,127,96.0
3679,F#2,313.0,0.125,127,96.0
3680,B3,313.083,0.25,127,96.0
3681,B4,313.083,0.25,127,96.0
3682,G4,313.25,177/250,127,96.0
3683,E4,313.25,0.25,127,96.0
3684,E5,313.25,0.25,127,96.0
3685,D4,313.342,171/500,127,96.0
3686,A1,313.5,427/250,127,96.0
3687,E4,313.5,1583/1000,127,96.0
3688,F5,313.5,123/250,127,96.0
3689,C2,313.5,0.25,127,96.0
3690,F#2,313.5,0.125,60,96.0
3691,G3,313.5,249/125,127,96.0
3692,C4,313.5,249/125,127,96.0
3693,E3,313.5,249/125,127,96.0
3694,A1,313.5,249/125,127,96.0
3695,G4,313.5,2.0,127,96.0
3696,E4,313.5,2.0,127,96.0
3697,D4,313.508,77/250,127,96.0
3698,F4,313.75,633/1000,127,96.0
3699,B3,313.75,0.25,127,96.0
3700,B4,313.75,0.25,127,96.0
3701,B3,313.758,73/250,127,96.0
3702,E4,313.858,1467/1000,127,96.0
3703,E4,313.917,0.25,127,96.0
3704,E5,313.917,0.25,127,96.0
3705,F4,313.992,51/125,127,96.0
3706,E5,314.0,123/250,127,96.0
3707,C5,314.0,124/125,127,96.0
3708,C2,314.0,0.25,127,96.0
3709,F#2,314.0,0.125,127,96.0
3710,G4,314.25,177/250,127,96.0
3711,D4,314.342,171/500,127,96.0
3712,B4,314.417,0.25,127,96.0
3713,B3,314.417,0.25,127,96.0
3714,C5,314.5,123/250,127,96.0
3715,F#2,314.5,0.125,60,96.0
3716,E4,314.583,0.25,127,96.0
3717,E5,314.583,0.25,127,96.0
3718,F4,314.75,633/1000,127,96.0
3719,E4,314.858,571/500,127,96.0
3720,G4,315.0,123/250,127,96.0
3721,D5,315.0,124/125,127,96.0
3722,E2,315.0,0.25,127,96.0
3723,F#2,315.0,0.125,127,96.0
3724,B-4,315.0,0.125,127,96.0
3725,B4,315.083,0.25,127,96.0
3726,B3,315.083,0.25,127,96.0
3727,B-4,315.125,0.125,127,96.0
3728,G4,315.25,177/250,127,96.0
3729,B-4,315.25,0.125,127,96.0
3730,E4,315.25,0.25,127,96.0
3731,E5,315.25,0.25,127,96.0
3732,B-4,315.375,0.125,127,96.0
3733,G1,315.5,167/1000,127,96.0
3734,D5,315.5,123/250,127,96.0
3735,F#2,315.5,0.125,60,96.0
3736,B-4,315.5,0.125,127,96.0
3737,B-4,315.625,0.125,127,96.0
3738,B-4,315.75,0.125,127,96.0
3739,B4,315.75,0.25,127,96.0
3740,B3,315.75,0.25,127,96.0
3741,E4,315.858,71/500,127,96.0
3742,B-4,315.875,0.125,127,96.0
3743,E4,315.917,83/1000,127,96.0
3744,E5,315.917,83/1000,127,96.0
3745,E2,316.0,1.25,127,96.0
3746,E5,316.0,123/250,127,96.0
3747,B4,316.0,2.25,127,96.0
3748,E6,316.0,4.0,127,96.0
3749,E4,316.0,13/40,127,96.0
3750,E4,316.0,53/40,127,96.0
3751,C2,316.0,0.25,127,96.0
3752,F#2,316.0,0.125,127,96.0
3753,B-4,316.0,0.125,127,96.0
3754,E2,316.0,1.25,127,96.0
3755,D4,316.0,1.25,127,96.0
3756,B3,316.0,1.25,127,96.0
3757,G3,316.0,1.25,127,96.0
3758,B4,316.0,373/250,127,96.0
3759,G4,316.0,373/250,127,96.0
3760,E4,316.0,167/1000,127,96.0
3761,E5,316.0,167/1000,127,96.0
3762,B3,316.417,0.25,127,96.0
3763,B4,316.417,0.25,127,96.0
3764,B4,316.5,123/250,127,96.0
3765,F#2,316.5,0.125,60,96.0
3766,B3,316.508,271/500,127,96.0
3767,E4,316.583,0.25,127,96.0
3768,E5,316.583,0.25,127,96.0
3769,E5,317.0,123/250,127,96.0
3770,E2,317.0,0.25,127,96.0
3771,F#2,317.0,0.125,127,96.0
3772,G4,317.025,0.875,127,96.0
3773,B4,317.083,0.25,127,96.0
3774,B3,317.083,0.25,127,96.0
3775,E4,317.25,0.25,127,96.0
3776,E5,317.25,0.25,127,96.0
3777,B1,317.5,1.75,127,96.0
3778,E4,317.5,1583/1000,127,96.0
3779,G5,317.5,123/250,127,96.0
3780,C2,317.5,0.25,127,96.0
3781,F#2,317.5,0.125,60,96.0
3782,B1,317.5,1.75,127,96.0
3783,A3,317.5,1.75,127,96.0
3784,F#3,317.5,1.75,127,96.0
3785,D4,317.5,1.75,127,96.0
3786,A4,317.5,1.75,127,96.0
3787,F#4,317.5,1.75,127,96.0
3788,B3,317.508,271/500,127,96.0
3789,B3,317.75,0.25,127,96.0
3790,B4,317.75,0.25,127,96.0
3791,E4,317.917,0.25,127,96.0
3792,E5,317.917,0.25,127,96.0
3793,F#5,318.0,123/250,127,96.0
3794,C2,318.0,0.25,127,96.0
3795,F#2,318.0,0.125,127,96.0
3796,F#4,318.025,126/125,127,96.0
3797,G4,318.025,0.875,127,96.0
3798,B3,318.417,0.25,127,96.0
3799,B4,318.417,0.25,127,96.0
3800,D5,318.5,123/250,127,96.0
3801,F#2,318.5,0.125,60,96.0
3802,B3,318.508,271/500,127,96.0
3803,E4,318.583,0.25,127,96.0
3804,E5,318.583,0.25,127,96.0
3805,D4,318.992,271/500,127,96.0
3806,A4,319.0,123/250,127,96.0
3807,E2,319.0,0.25,127,96.0
3808,F#2,319.0,0.125,127,96.0
3809,F#4,319.025,39/40,127,96.0
3810,G4,319.025,0.875,127,96.0
3811,B3,319.083,0.25,127,96.0
3812,B4,319.083,0.25,127,96.0
3813,E5,319.25,0.25,127,96.0
3814,E4,319.25,0.25,127,96.0
3815,F4,319.492,127/250,127,96.0
3816,D2,319.5,0.5,127,96.0
3817,E4,319.5,0.5,127,96.0
3818,F#5,319.5,123/250,127,96.0
3819,C2,319.5,0.25,127,96.0
3820,F#2,319.5,0.125,60,96.0
3821,A3,319.5,0.5,127,96.0
3822,C4,319.5,0.5,127,96.0
3823,F3,319.5,0.5,127,96.0
3824,D2,319.5,0.5,127,96.0
3825,F#4,319.5,0.5,127,96.0
3826,A4,319.5,0.5,127,96.0
3827,B3,319.75,0.25,127,96.0
3828,B4,319.75,0.25,127,96.0
3829,E5,319.917,83/1000,127,96.0
3830,E4,319.917,83/1000,127,96.0
3831,D4,319.992,1/125,127,96.0
3832,D2,320.0,1.25,127,96.0
3833,E4,320.0,1083/1000,127,96.0
3834,F5,320.0,123/250,127,96.0
3835,E6,320.0,4.0,127,96.0
3836,F4,320.0,483/1000,127,96.0
3837,F#4,320.0,33/1000,127,96.0
3838,D4,320.0,533/1000,127,96.0
3839,C2,320.0,0.25,127,96.0
3840,F#2,320.0,0.125,127,96.0
3841,A3,320.0,1.25,127,96.0
3842,C4,320.0,1.25,127,96.0
3843,F3,320.0,1.25,127,96.0
3844,D2,320.0,1.25,127,96.0
3845,F#4,320.0,373/250,127,96.0
3846,A4,320.0,373/250,127,96.0
3847,E5,320.0,167/1000,127,96.0
3848,E4,320.0,167/1000,127,96.0
3849,F#4,320.025,126/125,127,96.0
3850,F4,320.492,124/125,127,96.0
3851,D5,320.5,123/250,127,96.0
3852,F#2,320.5,0.125,60,96.0
3853,D4,320.525,221/500,127,96.0
3854,F4,320.983,221/500,127,96.0
3855,D4,320.992,271/500,127,96.0
3856,A4,321.0,123/250,127,96.0
3857,E2,321.0,0.25,127,96.0
3858,F#2,321.0,0.125,127,96.0
3859,E4,321.483,473/250,127,96.0
3860,F4,321.492,124/125,127,96.0
3861,A1,321.5,427/250,127,96.0
3862,E4,321.5,1583/1000,127,96.0
3863,F5,321.5,123/250,127,96.0
3864,C2,321.5,0.25,127,96.0
3865,F#2,321.5,0.125,60,96.0
3866,G3,321.5,249/125,127,96.0
3867,E3,321.5,249/125,127,96.0
3868,C4,321.5,249/125,127,96.0
3869,A1,321.5,249/125,127,96.0
3870,G4,321.5,249/125,127,96.0
3871,E4,321.5,249/125,127,96.0
3872,D4,321.525,221/500,127,96.0
3873,F4,321.983,221/500,127,96.0
3874,E5,322.0,123/250,127,96.0
3875,C2,322.0,0.25,127,96.0
3876,F#2,322.0,0.125,127,96.0
3877,E4,322.483,1517/1000,127,96.0
3878,C5,322.5,123/250,127,96.0
3879,F#2,322.5,0.125,60,96.0
3880,D4,322.525,221/500,127,96.0
3881,F4,322.983,221/500,127,96.0
3882,G4,323.0,124/125,127,96.0
3883,B6,323.0,124/125,100,96.0
3884,E2,323.0,0.25,127,96.0
3885,F#2,323.0,0.125,127,96.0
3886,B-4,323.0,0.125,127,96.0
3887,B-4,323.125,0.125,127,96.0
3888,B-4,323.25,0.125,127,96.0
3889,B-4,323.375,0.125,127,96.0
3890,E4,323.483,517/1000,127,96.0
3891,A1,323.5,167/1000,127,96.0
3892,F#2,323.5,0.125,60,96.0
3893,B-4,323.5,0.125,127,96.0
3894,B-4,323.625,0.125,127,96.0
3895,B-4,323.75,0.125,127,96.0
3896,B-4,323.875,0.125,127,96.0
3897,E2,324.0,1.25,127,96.0
3898,E6,324.0,4.0,127,96.0
3899,E4,324.0,0.375,127,96.0
3900,E4,324.0,1.375,127,96.0
3901,C2,324.0,0.25,127,96.0
3902,F#2,324.0,0.125,127,96.0
3903,B-4,324.0,0.125,127,96.0
3904,G3,324.0,1.25,127,96.0
3905,B3,324.0,1.25,127,96.0
3906,D4,324.0,1.25,127,96.0
3907,E2,324.0,1.25,127,96.0
3908,G4,324.0,373/250,127,96.0
3909,B4,324.0,373/250,127,96.0
3910,B4,324.417,0.25,127,96.0
3911,B3,324.417,0.25,127,96.0
3912,G4,324.458,317/1000,127,96.0
3913,B4,324.5,123/250,127,96.0
3914,F#2,324.5,0.125,60,96.0
3915,E4,324.583,0.25,127,96.0
3916,E5,324.583,0.25,127,96.0
3917,G4,324.958,283/1000,127,96.0
3918,E5,325.0,123/250,127,96.0
3919,E2,325.0,0.25,127,96.0
3920,F#2,325.0,0.125,127,96.0
3921,B3,325.083,0.25,127,96.0
3922,B4,325.083,0.25,127,96.0
3923,E4,325.25,0.25,127,96.0
3924,E5,325.25,0.25,127,96.0
3925,G4,325.442,483/1000,127,96.0
3926,G4,325.458,317/1000,127,96.0
3927,B1,325.5,1.75,127,96.0
3928,E4,325.5,1583/1000,127,96.0
3929,G5,325.5,123/250,127,96.0
3930,A6,325.5,2.5,100,96.0
3931,C2,325.5,0.25,127,96.0
3932,F#2,325.5,0.125,60,96.0
3933,A3,325.5,1.75,127,96.0
3934,F#3,325.5,1.75,127,96.0
3935,D4,325.5,1.75,127,96.0
3936,B1,325.5,1.75,127,96.0
3937,A4,325.5,1.75,127,96.0
3938,F#4,325.5,1.75,127,96.0
3939,B3,325.75,0.25,127,96.0
3940,B4,325.75,0.25,127,96.0
3941,E4,325.917,0.25,127,96.0
3942,E5,325.917,0.25,127,96.0
3943,G4,325.958,283/1000,127,96.0
3944,F#4,325.975,39/40,127,96.0
3945,F#5,326.0,123/250,127,96.0
3946,C2,326.0,0.25,127,96.0
3947,F#2,326.0,0.125,127,96.0
3948,B4,326.417,0.25,127,96.0
3949,B3,326.417,0.25,127,96.0
3950,G4,326.442,483/1000,127,96.0
3951,G4,326.458,317/1000,127,96.0
3952,D5,326.5,123/250,127,96.0
3953,F#2,326.5,0.125,60,96.0
3954,E4,326.583,0.25,127,96.0
3955,E5,326.583,0.25,127,96.0
3956,D4,326.95,73/250,127,96.0
3957,G4,326.958,283/1000,127,96.0
3958,F#4,326.975,39/40,127,96.0
3959,A4,327.0,123/250,127,96.0
3960,E2,327.0,0.25,127,96.0
3961,F#2,327.0,0.125,127,96.0
3962,B4,327.083,0.25,127,96.0
3963,B3,327.083,0.25,127,96.0
3964,E4,327.25,0.25,127,96.0
3965,E5,327.25,0.25,127,96.0
3966,F4,327.425,23/40,127,96.0
3967,G4,327.442,483/1000,127,96.0
3968,D2,327.5,0.5,127,96.0
3969,E4,327.5,0.5,127,96.0
3970,F#5,327.5,123/250,127,96.0
3971,C2,327.5,0.25,127,96.0
3972,C#3,327.5,0.5,127,96.0
3973,F#2,327.5,0.125,60,96.0
3974,A3,327.5,0.5,127,96.0
3975,F3,327.5,0.5,127,96.0
3976,C4,327.5,0.5,127,96.0
3977,D2,327.5,0.5,127,96.0
3978,A4,327.5,0.5,127,96.0
3979,F#4,327.5,0.5,127,96.0
3980,B4,327.75,0.25,127,96.0
3981,B3,327.75,0.25,127,96.0
3982,E4,327.917,83/1000,127,96.0
3983,E5,327.917,83/1000,127,96.0
3984,D4,327.95,1/20,127,96.0
3985,F#4,327.975,1/40,127,96.0
3986,D2,328.0,1.25,127,96.0
3987,E4,328.0,1083/1000,127,96.0
3988,F5,328.0,123/250,127,96.0
3989,E6,328.0,4.0,127,96.0
3990,A6,328.0,3.5,100,96.0
3991,F4,328.0,271/500,127,96.0
3992,D4,328.0,121/500,127,96.0
3993,F#4,328.0,19/20,127,96.0
3994,F#2,328.0,0.125,127,96.0
3995,A3,328.0,1.25,127,96.0
3996,F3,328.0,1.25,127,96.0
3997,C4,328.0,1.25,127,96.0
3998,D2,328.0,1.25,127,96.0
3999,A4,328.0,373/250,127,96.0
4000,F#4,328.0,373/250,127,96.0
4001,E4,328.0,167/1000,127,96.0
4002,E5,328.0,167/1000,127,96.0
4003,B3,328.417,0.25,127,96.0
4004,B4,328.417,0.25,127,96.0
4005,F4,328.425,1117/1000,127,96.0
4006,G4,328.483,123/250,127,96.0
4007,D5,328.5,123/250,127,96.0
4008,E2,328.5,0.25,127,96.0
4009,F#2,328.5,0.125,60,96.0
4010,E4,328.583,0.25,127,96.0
4011,E5,328.583,0.25,127,96.0
4012,D4,328.95,73/250,127,96.0
4013,E4,328.958,129/500,127,96.0
4014,A4,329.0,123/250,127,96.0
4015,F#2,329.0,0.125,127,96.0
4016,B4,329.083,0.25,127,96.0
4017,B3,329.083,0.25,127,96.0
4018,E4,329.25,0.25,127,96.0
4019,E5,329.25,0.25,127,96.0
4020,F4,329.425,1117/1000,127,96.0
4021,G4,329.483,123/250,127,96.0
4022,E4,329.492,1083/1000,127,96.0
4023,A1,329.5,427/250,127,96.0
4024,E4,329.5,1583/1000,127,96.0
4025,F5,329.5,123/250,127,96.0
4026,C2,329.5,0.25,127,96.0
4027,F#2,329.5,0.125,60,96.0
4028,G3,329.5,249/125,127,96.0
4029,C4,329.5,249/125,127,96.0
4030,E3,329.5,249/125,127,96.0
4031,A1,329.5,249/125,127,96.0
4032,G4,329.5,2.0,127,96.0
4033,E4,329.5,2.0,127,96.0
4034,B3,329.75,0.25,127,96.0
4035,B4,329.75,0.25,127,96.0
4036,E4,329.917,0.25,127,96.0
4037,E5,329.917,0.25,127,96.0
4038,E4,329.958,129/500,127,96.0
4039,E5,330.0,123/250,127,96.0
4040,F#2,330.0,0.125,127,96.0
4041,B3,330.417,0.25,127,96.0
4042,B4,330.417,0.25,127,96.0
4043,G4,330.483,123/250,127,96.0
4044,E4,330.492,1083/1000,127,96.0
4045,C5,330.5,123/250,127,96.0
4046,C2,330.5,0.25,85,96.0
4047,E2,330.5,0.25,85,96.0
4048,D3,330.5,0.25,127,96.0
4049,F#2,330.5,0.125,60,96.0
4050,E4,330.583,0.25,127,96.0
4051,E5,330.583,0.25,127,96.0
4052,E4,330.958,129/500,127,96.0
4053,B1,331.0,167/1000,127,96.0
4054,G4,331.0,123/250,127,96.0
4055,B3,331.0,1.0,127,96.0
4056,C2,331.0,0.25,100,96.0
4057,E2,331.0,0.25,100,96.0
4058,C3,331.0,0.25,127,96.0
4059,F#2,331.0,0.125,127,96.0
4060,B-4,331.0,0.125,127,96.0
4061,B3,331.083,0.25,127,96.0
4062,B4,331.083,0.25,127,96.0
4063,B-4,331.125,0.125,127,96.0
4064,B2,331.25,0.25,127,96.0
4065,B-4,331.25,0.125,127,96.0
4066,E5,331.25,0.25,127,96.0
4067,E4,331.25,0.25,127,96.0
4068,B-4,331.375,0.125,127,96.0
4069,E4,331.492,127/250,127,96.0
4070,G1,331.5,167/1000,127,96.0
4071,D5,331.5,123/250,127,96.0
4072,C2,331.5,0.25,115,96.0
4073,E2,331.5,0.25,115,96.0
4074,A2,331.5,0.25,127,96.0
4075,F#2,331.5,0.125,60,96.0
4076,B-4,331.5,0.125,127,96.0
4077,B-4,331.625,0.125,127,96.0
4078,G2,331.75,0.25,127,96.0
4079,B-4,331.75,0.125,127,96.0
4080,B3,331.75,0.25,127,96.0
4081,B4,331.75,0.25,127,96.0
4082,B-4,331.875,0.125,127,96.0
4083,E5,331.917,83/1000,127,96.0
4084,E4,331.917,83/1000,127,96.0
4085,E1,332.0,1.75,127,96.0
4086,E3,332.0,123/250,127,96.0
4087,E5,332.0,124/125,127,96.0
4088,D5,332.0,499/125,127,96.0
4089,B3,332.0,3383/1000,127,96.0
4090,E4,332.0,23/40,127,96.0
4091,C2,332.0,0.25,127,96.0
4092,C#3,332.0,0.5,127,96.0
4093,F#2,332.0,0.125,127,96.0
4094,F#3,332.0,0.125,127,96.0
4095,B-4,332.0,0.125,127,96.0
4096,E5,332.0,167/1000,127,96.0
4097,E4,332.0,167/1000,127,96.0
4098,G4,332.0,623/250,127,96.0
4099,E4,332.0,623/250,127,96.0
4100,E2,332.083,3917/1000,127,96.0
4101,E3,332.083,3917/1000,127,96.0
4102,B3,332.083,3917/1000,127,96.0
4103,F#3,332.5,123/250,127,96.0
4104,F#2,332.5,0.125,60,96.0
4105,F#3,332.5,0.125,127,96.0
4106,G3,333.0,123/250,127,96.0
4107,E2,333.0,0.25,127,96.0
4108,F#2,333.0,0.125,127,96.0
4109,F#3,333.0,0.125,127,96.0
4110,D4,333.5,249/125,127,96.0
4111,F#2,333.5,0.125,60,96.0
4112,F#3,333.5,0.125,127,96.0
4113,G1,334.0,123/250,127,96.0
4114,C2,334.0,0.25,127,96.0
4115,F#2,334.0,0.125,127,96.0
4116,F#3,334.0,0.125,127,96.0
4117,A1,334.5,123/250,127,96.0
4118,F#4,334.5,517/1000,127,96.0
4119,F#2,334.5,0.125,60,96.0
4120,F#3,334.5,0.125,127,96.0
4121,B1,335.0,167/1000,127,96.0
4122,E2,335.0,0.25,127,96.0
4123,F#2,335.0,0.125,127,96.0
4124,F#3,335.0,0.125,127,96.0
4125,E4,335.0,2/5,127,96.0
4126,D4,335.0,2/5,127,96.0
4127,A1,335.5,0.5,127,96.0
4128,A3,335.5,0.5,127,96.0
4129,C2,335.5,0.25,127,96.0
4130,F#2,335.5,0.125,60,96.0
4131,F#3,335.5,0.125,127,96.0
4132,D4,335.5,0.5,127,96.0
4133,E4,335.5,0.5,127,96.0
4134,A1,336.0,2.75,127,96.0
4135,E3,336.0,123/250,127,96.0
4136,C#5,336.0,499/125,127,96.0
4137,A3,336.0,3067/1000,127,96.0
4138,C2,336.0,0.25,127,96.0
4139,F#2,336.0,0.125,127,96.0
4140,F#3,336.0,0.125,127,96.0
4141,E2,336.0,3/40,127,96.0
4142,E3,336.0,3/40,127,96.0
4143,B3,336.0,3/40,127,96.0
4144,D4,336.0,0.5,127,96.0
4145,E4,336.0,0.5,127,96.0
4146,A2,336.083,3917/1000,127,96.0
4147,E3,336.083,3917/1000,127,96.0
4148,C#4,336.083,3917/1000,127,96.0
4149,F#3,336.5,123/250,127,96.0
4150,F#2,336.5,0.125,60,96.0
4151,F#3,336.5,0.125,127,96.0
4152,B3,336.5,1.75,127,96.0
4153,C#4,336.5,1.75,127,96.0
4154,G3,337.0,123/250,127,96.0
4155,E2,337.0,0.25,127,96.0
4156,F#2,337.0,0.125,127,96.0
4157,F#3,337.0,0.125,127,96.0
4158,C#4,337.5,249/125,127,96.0
4159,F#2,337.5,0.125,60,96.0
4160,F#3,337.5,0.125,127,96.0
4161,C2,338.0,0.25,127,96.0
4162,F#2,338.0,0.125,127,96.0
4163,F#3,338.0,0.125,127,96.0
4164,F#2,338.5,0.125,60,96.0
4165,F#3,338.5,0.125,127,96.0
4166,C#4,338.5,0.75,127,96.0
4167,E4,338.5,0.75,127,96.0
4168,D1,339.0,123/250,127,96.0
4169,E2,339.0,0.25,127,96.0
4170,F#2,339.0,0.125,127,96.0
4171,F#3,339.0,0.125,127,96.0
4172,E4,339.35,583/1000,127,96.0
4173,A4,339.35,583/1000,127,96.0
4174,E-1,339.5,123/250,127,96.0
4175,F#3,339.5,123/250,127,96.0
4176,C2,339.5,0.25,127,96.0
4177,F#2,339.5,0.125,60,96.0
4178,F#3,339.5,0.125,127,96.0
4179,E1,340.0,1.75,127,96.0
4180,E3,340.0,123/250,127,96.0
4181,D5,340.0,499/125,127,96.0
4182,B3,340.0,39/10,127,96.0
4183,C2,340.0,0.25,127,96.0
4184,F#2,340.0,0.125,127,96.0
4185,F#3,340.0,0.125,127,96.0
4186,A2,340.0,3/40,127,96.0
4187,E3,340.0,3/40,127,96.0
4188,C#4,340.0,3/40,127,96.0
4189,G4,340.0,929/500,127,96.0
4190,D4,340.0,929/500,127,96.0
4191,E3,340.083,3917/1000,127,96.0
4192,E2,340.083,3917/1000,127,96.0
4193,B3,340.083,3917/1000,127,96.0
4194,F#3,340.5,123/250,127,96.0
4195,F#2,340.5,0.125,60,96.0
4196,F#3,340.5,0.125,127,96.0
4197,G3,341.0,123/250,127,96.0
4198,E2,341.0,0.25,127,96.0
4199,C#3,341.0,0.5,127,96.0
4200,F#2,341.0,0.125,127,96.0
4201,F#3,341.0,0.125,127,96.0
4202,D4,341.5,249/125,127,96.0
4203,F#2,341.5,0.125,60,96.0
4204,F#3,341.5,0.125,127,96.0
4205,G1,342.0,123/250,127,96.0
4206,C2,342.0,0.25,127,96.0
4207,F#2,342.0,0.125,127,96.0
4208,F#3,342.0,0.125,127,96.0
4209,D4,342.0,371/500,127,96.0
4210,G4,342.0,371/500,127,96.0
4211,A1,342.5,123/250,127,96.0
4212,F#2,342.5,0.125,60,96.0
4213,F#3,342.5,0.125,127,96.0
4214,F#4,342.808,833/1000,127,96.0
4215,B1,343.0,167/1000,127,96.0
4216,E2,343.0,0.25,127,96.0
4217,F#2,343.0,0.125,127,96.0
4218,F#3,343.0,0.125,127,96.0
4219,A1,343.5,0.5,127,96.0
4220,F#3,343.5,123/250,127,96.0
4221,C2,343.5,0.25,127,96.0
4222,F#2,343.5,0.125,60,96.0
4223,F#3,343.5,0.125,127,96.0
4224,E4,343.5,467/1000,127,96.0
4225,D4,343.5,467/1000,127,96.0
4226,A1,344.0,2.75,127,96.0
4227,E3,344.0,123/250,127,96.0
4228,C#5,344.0,499/125,127,96.0
4229,A3,344.0,4.0,127,96.0
4230,C2,344.0,0.25,127,96.0
4231,F#2,344.0,0.125,127,96.0
4232,F#3,344.0,0.125,127,96.0
4233,E3,344.0,3/40,127,96.0
4234,E2,344.0,3/40,127,96.0
4235,B3,344.0,3/40,127,96.0
4236,E4,344.0,124/125,127,96.0
4237,D4,344.0,124/125,127,96.0
4238,A2,344.083,3917/1000,127,96.0
4239,C#4,344.083,3917/1000,127,96.0
4240,E3,344.083,3917/1000,127,96.0
4241,F#3,344.5,123/250,127,96.0
4242,F#2,344.5,0.125,60,96.0
4243,F#3,344.5,0.125,127,96.0
4244,G3,345.0,123/250,127,96.0
4245,E2,345.0,0.25,127,96.0
4246,F#2,345.0,0.125,127,96.0
4247,F#3,345.0,0.125,127,96.0
4248,B3,345.0,921/500,127,96.0
4249,C#4,345.0,921/500,127,96.0
4250,C#4,345.5,249/125,127,96.0
4251,F#2,345.5,0.125,60,96.0
4252,F#3,345.5,0.125,127,96.0
4253,C2,346.0,0.25,127,96.0
4254,F#2,346.0,0.125,127,96.0
4255,F#3,346.0,0.125,127,96.0
4256,F#2,346.5,0.125,60,96.0
4257,F#3,346.5,0.125,127,96.0
4258,A1,347.0,124/125,127,96.0
4259,E2,347.0,0.25,127,96.0
4260,F#2,347.0,0.125,127,96.0
4261,F#3,347.0,0.125,127,96.0
4262,C#4,347.0,9/10,127,96.0
4263,B3,347.0,9/10,127,96.0
4264,F#2,347.5,0.125,60,96.0
4265,F#3,347.5,0.125,127,96.0
4266,G1,348.0,124/125,127,96.0
4267,E3,348.0,123/250,127,96.0
4268,C#5,348.0,373/250,127,96.0
4269,G3,348.0,19/5,127,96.0
4270,A3,348.0,33/1000,127,96.0
4271,C2,348.0,0.25,127,96.0
4272,C#3,348.0,0.5,127,96.0
4273,F#2,348.0,0.125,127,96.0
4274,F#3,348.0,0.125,127,96.0
4275,A2,348.0,3/40,127,96.0
4276,C#4,348.0,3/40,127,96.0
4277,E3,348.0,3/40,127,96.0
4278,C#4,348.0,1383/1000,127,96.0
4279,B3,348.0,1383/1000,127,96.0
4280,D4,348.083,3917/1000,127,96.0
4281,G3,348.083,3917/1000,127,96.0
4282,G2,348.083,3917/1000,127,96.0
4283,F#3,348.5,123/250,127,96.0
4284,F#2,348.5,0.125,60,96.0
4285,F#3,348.5,0.125,127,96.0
4286,A2,349.0,167/1000,127,96.0
4287,G3,349.0,123/250,127,96.0
4288,E2,349.0,0.25,127,96.0
4289,F#2,349.0,0.125,127,96.0
4290,F#3,349.0,0.125,127,96.0
4291,D4,349.5,249/125,127,96.0
4292,B4,349.5,2167/1000,127,96.0
4293,C2,349.5,0.25,127,96.0
4294,A3,349.5,0.5,127,96.0
4295,F#2,349.5,0.125,60,96.0
4296,F#3,349.5,0.125,127,96.0
4297,G1,349.5,2333/1000,127,96.0
4298,G2,349.5,2333/1000,127,96.0
4299,A3,349.5,577/250,127,96.0
4300,B3,349.5,577/250,127,96.0
4301,F#2,350.0,0.125,127,96.0
4302,F#3,350.0,0.125,127,96.0
4303,F#2,350.5,0.125,60,96.0
4304,F#3,350.5,0.125,127,96.0
4305,D5,351.0,123/250,127,96.0
4306,E2,351.0,0.25,127,96.0
4307,F#2,351.0,0.125,127,96.0
4308,F#3,351.0,0.125,127,96.0
4309,G3,351.5,123/250,127,96.0
4310,C5,351.5,123/250,127,96.0
4311,C2,351.5,0.25,127,96.0
4312,F#2,351.5,0.125,60,96.0
4313,F#3,351.5,0.125,127,96.0
4314,F1,352.0,124/125,127,96.0
4315,F3,352.0,123/250,127,96.0
4316,B4,352.0,1333/1000,127,96.0
4317,B4,352.0,373/250,127,96.0
4318,F3,352.0,4.0,127,96.0
4319,C2,352.0,0.25,127,96.0
4320,C#3,352.0,0.5,127,96.0
4321,F#2,352.0,0.125,127,96.0
4322,F#3,352.0,0.125,127,96.0
4323,D4,352.0,3/40,127,96.0
4324,G3,352.0,3/40,127,96.0
4325,G2,352.0,3/40,127,96.0
4326,G3,352.0,59/40,127,96.0
4327,B3,352.0,59/40,127,96.0
4328,F3,352.083,3917/1000,127,96.0
4329,F2,352.083,3917/1000,127,96.0
4330,E4,352.083,3917/1000,127,96.0
4331,G3,352.5,123/250,127,96.0
4332,F#2,352.5,0.125,60,96.0
4333,F#3,352.5,0.125,127,96.0
4334,G2,353.0,167/1000,127,96.0
4335,A3,353.0,123/250,127,96.0
4336,E2,353.0,0.25,127,96.0
4337,F#2,353.0,0.125,127,96.0
4338,F#3,353.0,0.125,127,96.0
4339,E4,353.5,249/125,127,96.0
4340,C5,353.5,2.0,127,96.0
4341,C5,353.5,2167/1000,127,96.0
4342,C2,353.5,0.25,127,96.0
4343,A3,353.5,0.5,127,96.0
4344,F#2,353.5,0.125,60,96.0
4345,F#3,353.5,0.125,127,96.0
4346,F2,353.5,2333/1000,127,96.0
4347,F1,353.5,2333/1000,127,96.0
4348,A3,353.5,1583/1000,127,96.0
4349,C4,353.5,1583/1000,127,96.0
4350,F#2,354.0,0.125,127,96.0
4351,F#3,354.0,0.125,127,96.0
4352,E2,354.5,0.25,127,96.0
4353,F#2,354.5,0.125,60,96.0
4354,F#3,354.5,0.125,127,96.0
4355,B3,355.0,1.0,127,96.0
4356,F#2,355.0,0.125,127,96.0
4357,F#3,355.0,0.125,127,96.0
4358,E2,355.5,0.25,127,96.0
4359,F#2,355.5,0.125,60,96.0
4360,F#3,355.5,0.125,127,96.0
4361,E1,356.0,1.75,127,96.0
4362,E3,356.0,123/250,127,96.0
4363,B3,356.0,3383/1000,127,96.0
4364,C2,356.0,0.25,127,96.0
4365,C#3,356.0,0.5,127,96.0
4366,F#2,356.0,0.125,127,96.0
4367,F#3,356.0,0.125,127,96.0
4368,F3,356.0,3/40,127,96.0
4369,F2,356.0,3/40,127,96.0
4370,E4,356.0,3/40,127,96.0
4371,D5,356.0,499/125,127,96.0
4372,D6,356.0,499/125,127,96.0
4373,G4,356.0,623/250,127,96.0
4374,E4,356.0,623/250,127,96.0
4375,E2,356.083,3917/1000,127,96.0
4376,E3,356.083,3917/1000,127,96.0
4377,B3,356.083,3917/1000,127,96.0
4378,F#3,356.5,123/250,127,96.0
4379,F#2,356.5,0.125,60,96.0
4380,F#3,356.5,0.125,127,96.0
4381,G3,357.0,123/250,127,96.0
4382,E2,357.0,0.25,127,96.0
4383,F#2,357.0,0.125,127,96.0
4384,F#3,357.0,0.125,127,96.0
4385,D4,357.5,249/125,127,96.0
4386,F#2,357.5,0.125,60,96.0
4387,F#3,357.5,0.125,127,96.0
4388,G1,358.0,123/250,127,96.0
4389,C2,358.0,0.25,127,96.0
4390,F#2,358.0,0.125,127,96.0
4391,F#3,358.0,0.125,127,96.0
4392,A1,358.5,123/250,127,96.0
4393,F#4,358.5,517/1000,127,96.0
4394,F#2,358.5,0.125,60,96.0
4395,F#3,358.5,0.125,127,96.0
4396,B1,359.0,167/1000,127,96.0
4397,E2,359.0,0.25,127,96.0
4398,F#2,359.0,0.125,127,96.0
4399,F#3,359.0,0.125,127,96.0
4400,E4,359.0,2/5,127,96.0
4401,D4,359.0,2/5,127,96.0
4402,A1,359.5,0.5,127,96.0
4403,A3,359.5,0.5,127,96.0
4404,C2,359.5,0.25,127,96.0
4405,F#2,359.5,0.125,60,96.0
4406,F#3,359.5,0.125,127,96.0
4407,D4,359.5,0.5,127,96.0
4408,E4,359.5,0.5,127,96.0
4409,A1,360.0,2.75,127,96.0
4410,E3,360.0,123/250,127,96.0
4411,A3,360.0,3067/1000,127,96.0
4412,C2,360.0,0.25,127,96.0
4413,F#2,360.0,0.125,127,96.0
4414,F#3,360.0,0.125,127,96.0
4415,E2,360.0,3/40,127,96.0
4416,E3,360.0,3/40,127,96.0
4417,B3,360.0,3/40,127,96.0
4418,C#6,360.0,499/125,127,96.0
4419,C#5,360.0,499/125,127,96.0
4420,D4,360.0,0.5,127,96.0
4421,E4,360.0,0.5,127,96.0
4422,A2,360.083,3917/1000,127,96.0
4423,E3,360.083,3917/1000,127,96.0
4424,C#4,360.083,3917/1000,127,96.0
4425,F#3,360.5,123/250,127,96.0
4426,F#2,360.5,0.125,60,96.0
4427,F#3,360.5,0.125,127,96.0
4428,B3,360.5,1.75,127,96.0
4429,C#4,360.5,1.75,127,96.0
4430,G3,361.0,123/250,127,96.0
4431,E2,361.0,0.25,127,96.0
4432,F#2,361.0,0.125,127,96.0
4433,F#3,361.0,0.125,127,96.0
4434,C#4,361.5,249/125,127,96.0
4435,F#2,361.5,0.125,60,96.0
4436,F#3,361.5,0.125,127,96.0
4437,C2,362.0,0.25,127,96.0
4438,F#2,362.0,0.125,127,96.0
4439,F#3,362.0,0.125,127,96.0
4440,F#2,362.5,0.125,60,96.0
4441,F#3,362.5,0.125,127,96.0
4442,C#4,362.5,0.75,127,96.0
4443,E4,362.5,0.75,127,96.0
4444,D1,363.0,123/250,127,96.0
4445,E2,363.0,0.25,127,96.0
4446,F#2,363.0,0.125,127,96.0
4447,F#3,363.0,0.125,127,96.0
4448,E4,363.35,583/1000,127,96.0
4449,A4,363.35,583/1000,127,96.0
4450,E-1,363.5,123/250,127,96.0
4451,F#3,363.5,123/250,127,96.0
4452,C2,363.5,0.25,127,96.0
4453,F#2,363.5,0.125,60,96.0
4454,F#3,363.5,0.125,127,96.0
4455,E1,364.0,1.75,127,96.0
4456,E3,364.0,123/250,127,96.0
4457,B3,364.0,39/10,127,96.0
4458,C2,364.0,0.25,127,96.0
4459,F#2,364.0,0.125,127,96.0
4460,F#3,364.0,0.125,127,96.0
4461,A2,364.0,3/40,127,96.0
4462,E3,364.0,3/40,127,96.0
4463,C#4,364.0,3/40,127,96.0
4464,D6,364.0,499/125,127,96.0
4465,D5,364.0,499/125,127,96.0
4466,G4,364.0,929/500,127,96.0
4467,D4,364.0,929/500,127,96.0
4468,E3,364.083,3917/1000,127,96.0
4469,E2,364.083,3917/1000,127,96.0
4470,B3,364.083,3917/1000,127,96.0
4471,F#3,364.5,123/250,127,96.0
4472,F#2,364.5,0.125,60,96.0
4473,F#3,364.5,0.125,127,96.0
4474,G3,365.0,123/250,127,96.0
4475,E2,365.0,0.25,127,96.0
4476,C#3,365.0,0.5,127,96.0
4477,F#2,365.0,0.125,127,96.0
4478,F#3,365.0,0.125,127,96.0
4479,D4,365.5,249/125,127,96.0
4480,F#2,365.5,0.125,60,96.0
4481,F#3,365.5,0.125,127,96.0
4482,G1,366.0,123/250,127,96.0
4483,C2,366.0,0.25,127,96.0
4484,F#2,366.0,0.125,127,96.0
4485,F#3,366.0,0.125,127,96.0
4486,D4,366.0,371/500,127,96.0
4487,G4,366.0,371/500,127,96.0
4488,A1,366.5,123/250,127,96.0
4489,F#2,366.5,0.125,60,96.0
4490,F#3,366.5,0.125,127,96.0
4491,F#4,366.808,833/1000,127,96.0
4492,B1,367.0,167/1000,127,96.0
4493,E2,367.0,0.25,127,96.0
4494,F#2,367.0,0.125,127,96.0
4495,F#3,367.0,0.125,127,96.0
4496,A1,367.5,0.5,127,96.0
4497,F#3,367.5,123/250,127,96.0
4498,C2,367.5,0.25,127,96.0
4499,F#2,367.5,0.125,60,96.0
4500,F#3,367.5,0.125,127,96.0
4501,E4,367.5,467/1000,127,96.0
4502,D4,367.5,467/1000,127,96.0
4503,A1,368.0,2.75,127,96.0
4504,E3,368.0,123/250,127,96.0
4505,A3,368.0,4.0,127,96.0
4506,C2,368.0,0.25,127,96.0
4507,F#2,368.0,0.125,127,96.0
4508,F#3,368.0,0.125,127,96.0
4509,E3,368.0,3/40,127,96.0
4510,E2,368.0,3/40,127,96.0
4511,B3,368.0,3/40,127,96.0
4512,C#6,368.0,499/125,127,96.0
4513,C#5,368.0,499/125,127,96.0
4514,E4,368.0,124/125,127,96.0
4515,D4,368.0,124/125,127,96.0
4516,A2,368.083,3917/1000,127,96.0
4517,C#4,368.083,3917/1000,127,96.0
4518,E3,368.083,3917/1000,127,96.0
4519,F#3,368.5,123/250,127,96.0
4520,F#2,368.5,0.125,60,96.0
4521,F#3,368.5,0.125,127,96.0
4522,G3,369.0,123/250,127,96.0
4523,E2,369.0,0.25,127,96.0
4524,F#2,369.0,0.125,127,96.0
4525,F#3,369.0,0.125,127,96.0
4526,B3,369.0,921/500,127,96.0
4527,C#4,369.0,921/500,127,96.0
4528,C#4,369.5,249/125,127,96.0
4529,F#2,369.5,0.125,60,96.0
4530,F#3,369.5,0.125,127,96.0
4531,C2,370.0,0.25,127,96.0
4532,F#2,370.0,0.125,127,96.0
4533,F#3,370.0,0.125,127,96.0
4534,F#2,370.5,0.125,60,96.0
4535,F#3,370.5,0.125,127,96.0
4536,A1,371.0,124/125,127,96.0
4537,E2,371.0,0.25,127,96.0
4538,F#2,371.0,0.125,127,96.0
4539,F#3,371.0,0.125,127,96.0
4540,C#4,371.0,9/10,127,96.0
4541,B3,371.0,9/10,127,96.0
4542,F#2,371.5,0.125,60,96.0
4543,F#3,371.5,0.125,127,96.0
4544,G1,372.0,124/125,127,96.0
4545,E3,372.0,123/250,127,96.0
4546,G3,372.0,19/5,127,96.0
4547,A3,372.0,33/1000,127,96.0
4548,C2,372.0,0.25,127,96.0
4549,C#3,372.0,0.5,127,96.0
4550,F#2,372.0,0.125,127,96.0
4551,F#3,372.0,0.125,127,96.0
4552,A2,372.0,3/40,127,96.0
4553,C#4,372.0,3/40,127,96.0
4554,E3,372.0,3/40,127,96.0
4555,C#5,372.0,373/250,127,96.0
4556,C#6,372.0,373/250,127,96.0
4557,C#4,372.0,1383/1000,127,96.0
4558,B3,372.0,1383/1000,127,96.0
4559,D4,372.083,3917/1000,127,96.0
4560,G3,372.083,3917/1000,127,96.0
4561,G2,372.083,3917/1000,127,96.0
4562,F#3,372.5,123/250,127,96.0
4563,F#2,372.5,0.125,60,96.0
4564,F#3,372.5,0.125,127,96.0
4565,A2,373.0,167/1000,127,96.0
4566,G3,373.0,123/250,127,96.0
4567,E2,373.0,0.25,127,96.0
4568,F#2,373.0,0.125,127,96.0
4569,F#3,373.0,0.125,127,96.0
4570,D4,373.5,249/125,127,96.0
4571,C2,373.5,0.25,127,96.0
4572,A3,373.5,0.5,127,96.0
4573,F#2,373.5,0.125,60,96.0
4574,F#3,373.5,0.125,127,96.0
4575,G1,373.5,2333/1000,127,96.0
4576,G2,373.5,2333/1000,127,96.0
4577,B5,373.5,2167/1000,127,96.0
4578,B4,373.5,2167/1000,127,96.0
4579,A3,373.5,577/250,127,96.0
4580,B3,373.5,577/250,127,96.0
4581,F#2,374.0,0.125,127,96.0
4582,F#3,374.0,0.125,127,96.0
4583,D3,374.5,0.25,127,96.0
4584,F#2,374.5,0.125,60,96.0
4585,F#3,374.5,0.125,127,96.0
4586,B2,374.75,0.25,127,96.0
4587,D5,375.0,123/250,127,96.0
4588,E2,375.0,0.25,127,96.0
4589,A2,375.0,0.25,127,96.0
4590,F#2,375.0,0.125,127,96.0
4591,F#3,375.0,0.125,127,96.0
4592,G3,375.5,123/250,127,96.0
4593,C5,375.5,123/250,127,96.0
4594,C2,375.5,0.25,127,96.0
4595,F2,375.5,0.25,127,96.0
4596,F#2,375.5,0.125,60,96.0
4597,F#3,375.5,0.125,127,96.0
4598,F1,376.0,124/125,127,96.0
4599,F3,376.0,123/250,127,96.0
4600,B4,376.0,1333/1000,127,96.0
4601,F3,376.0,4.0,127,96.0
4602,C2,376.0,0.25,127,96.0
4603,C#3,376.0,0.5,127,96.0
4604,F#2,376.0,0.125,127,96.0
4605,F#3,376.0,0.125,127,96.0
4606,D4,376.0,3/40,127,96.0
4607,G3,376.0,3/40,127,96.0
4608,G2,376.0,3/40,127,96.0
4609,B5,376.0,373/250,127,96.0
4610,B4,376.0,373/250,127,96.0
4611,G3,376.0,59/40,127,96.0
4612,B3,376.0,59/40,127,96.0
4613,F3,376.083,3917/1000,127,96.0
4614,F2,376.083,3917/1000,127,96.0
4615,E4,376.083,3917/1000,127,96.0
4616,G3,376.5,123/250,127,96.0
4617,F#2,376.5,0.125,60,96.0
4618,F#3,376.5,0.125,127,96.0
4619,G2,377.0,167/1000,127,96.0
4620,A3,377.0,123/250,127,96.0
4621,E2,377.0,0.25,127,96.0
4622,F#2,377.0,0.125,127,96.0
4623,F#3,377.0,0.125,127,96.0
4624,E4,377.5,249/125,127,96.0
4625,C5,377.5,2.0,127,96.0
4626,C2,377.5,0.25,127,96.0
4627,A3,377.5,0.5,127,96.0
4628,D3,377.5,0.25,127,96.0
4629,F#2,377.5,0.125,60,96.0
4630,F#3,377.5,0.125,127,96.0
4631,F2,377.5,2333/1000,127,96.0
4632,F1,377.5,2333/1000,127,96.0
4633,C5,377.5,2167/1000,127,96.0
4634,C6,377.5,2167/1000,127,96.0
4635,A3,377.5,1583/1000,127,96.0
4636,C4,377.5,1583/1000,127,96.0
4637,C3,378.0,0.25,127,96.0
4638,F#2,378.0,0.125,127,96.0
4639,F#3,378.0,0.125,127,96.0
4640,E2,378.5,0.25,127,96.0
4641,B2,378.5,0.25,127,96.0
4642,F#2,378.5,0.125,60,96.0
4643,F#3,378.5,0.125,127,96.0
4644,C2,379.0,0.25,127,96.0
4645,A2,379.0,0.25,127,96.0
4646,F#2,379.0,0.125,127,96.0
4647,F#3,379.0,0.125,127,96.0
4648,G2,379.25,0.25,127,96.0
4649,E2,379.5,0.25,127,96.0
4650,F2,379.5,0.25,127,96.0
4651,F#2,379.5,0.125,60,96.0
4652,F#3,379.5,0.125,127,96.0
4653,F#4,379.783,217/1000,127,96.0
4654,D3,379.783,217/1000,127,96.0
4655,A4,379.892,27/250,127,96.0
4656,A4,380.0,223/250,127,96.0
4657,D3,380.0,123/250,127,96.0
4658,D5,380.0,1333/1000,127,96.0
4659,C2,380.0,0.25,127,96.0
4660,A3,380.0,0.5,127,96.0
4661,F#2,380.0,0.125,127,96.0
4662,D2,380.0,1333/1000,127,96.0
4663,D1,380.0,1333/1000,127,96.0
4664,F#4,380.0,783/1000,127,96.0
4665,D3,380.0,783/1000,127,96.0
4666,F3,380.0,3/40,127,96.0
4667,F2,380.0,3/40,127,96.0
4668,E4,380.0,3/40,127,96.0
4669,D5,380.0,779/500,127,96.0
4670,D6,380.0,779/500,127,96.0
4671,D5,380.033,1.0,127,96.0
4672,A3,380.083,373/250,127,96.0
4673,D3,380.083,373/250,127,96.0
4674,D2,380.083,373/250,127,96.0
4675,F#3,380.5,123/250,127,96.0
4676,D3,380.5,0.25,127,96.0
4677,F#2,380.5,0.125,60,96.0
4678,B2,380.75,0.25,127,96.0
4679,A3,381.0,123/250,127,96.0
4680,G2,381.0,0.25,127,96.0
4681,F#2,381.0,0.125,127,96.0
4682,C6,381.25,1.0,127,96.0
4683,E3,381.433,2567/1000,127,96.0
4684,G#4,381.433,2567/1000,127,96.0
4685,E3,381.5,2.5,127,96.0
4686,E5,381.5,2.0,127,96.0
4687,C2,381.5,0.25,127,96.0
4688,C#3,381.5,0.5,127,96.0
4689,F#2,381.5,0.125,60,96.0
4690,E2,381.5,2.5,127,96.0
4691,E1,381.5,2.5,127,96.0
4692,E5,381.5,2.5,127,96.0
4693,E6,381.5,2.5,127,96.0
4694,B3,381.583,2417/1000,127,96.0
4695,E3,381.583,2417/1000,127,96.0
4696,E2,381.583,2417/1000,127,96.0
4697,B4,381.608,299/125,127,96.0
4698,F#3,381.608,0.125,34,96.0
4699,E5,381.75,2.25,127,96.0
4700,F#3,381.883,0.125,56,96.0
4701,F#3,382.067,0.125,71,96.0
4702,F#3,382.233,0.125,84,96.0
4703,F#3,382.458,0.125,103,96.0
4704,F#3,382.608,0.125,115,96.0
4705,F#3,382.825,0.125,127,96.0
4706,F#3,383.008,0.125,127,96.0
4707,F#3,383.192,0.125,127,96.0
4708,F#3,383.367,0.125,127,96.0
4709,F#3,383.542,0.125,127,96.0
4710,F#3,383.717,0.125,127,96.0
4711,F#3,383.867,0.125,127,96.0
4712,B4,384.0,4.0,127,96.0
4713,E5,384.0,4.0,127,96.0
4714,E3,384.0,4.0,127,96.0
4715,E2,384.0,4.0,127,96.0
4716,E1,384.0,4.0,127,96.0
4717,E3,384.0,4.0,127,96.0
4718,G#4,384.0,4.0,127,96.0
4719,B3,384.0,4.0,127,96.0
4720,E3,384.0,4.0,127,96.0
4721,E2,384.0,4.0,127,96.0
4722,F#3,384.067,0.125,127,96.0
4723,F#3,384.2,0.125,127,96.0
4724,F#3,384.425,0.125,127,96.0
4725,F#3,384.575,0.125,127,96.0
4726,F#3,384.808,0.125,121,96.0
4727,F#3,385.017,0.125,115,96.0
4728,F#3,385.358,0.125,106,96.0
4729,F#3,385.658,0.125,97,96.0
4730,F#3,386.025,0.125,87,96.0
4731,F#3,386.408,0.125,77,96.0
4732,F#3,387.667,0.125,42,96.0
4733,B4,388.0,201/125,127,96.0
4734,E5,388.0,1.75,127,96.0
4735,E3,388.0,1433/1000,127,96.0
4736,G#4,388.0,1433/1000,127,96.0
4737,E5,388.0,4.0,127,96.0
4738,E6,388.0,4.0,127,96.0
4739,B3,388.083,83/1000,127,96.0
4740,E3,388.083,83/1000,127,96.0
4741,E2,388.083,83/1000,127,96.0
4742,E2,389.5,1.5,127,96.0
4743,E1,389.5,1.5,127,96.0
