,note_name,start_time,duration,velocity,tempo
0,B-2,0.0,0.75,95,120.0
1,B-2,0.75,0.25,95,120.0
2,G2,1.0,0.75,95,120.0
3,F2,1.75,0.25,95,120.0
4,F2,2.0,0.5,95,120.0
5,F2,2.5,0.5,95,120.0
6,F2,3.25,0.25,95,120.0
7,G2,3.5,0.25,95,120.0
8,F2,3.75,0.25,95,120.0
9,B-2,4.0,0.75,95,120.0
10,B-2,4.75,0.25,95,120.0
11,G2,5.0,0.75,95,120.0
12,F2,5.75,0.25,95,120.0
13,F2,6.0,0.5,95,120.0
14,F2,6.5,0.5,95,120.0
15,F2,7.25,0.25,95,120.0
16,G2,7.5,0.25,95,120.0
17,F2,7.75,0.25,95,120.0
18,B-2,8.0,0.75,95,120.0
19,B-2,8.75,0.25,95,120.0
20,G2,9.0,0.75,95,120.0
21,F#2,9.0,1.0,95,120.0
22,F2,9.75,0.25,95,120.0
23,F2,10.0,0.5,95,120.0
24,F#2,10.0,1.0,95,120.0
25,F2,10.5,0.5,95,120.0
26,F#2,11.0,0.5,95,120.0
27,F2,11.25,0.25,95,120.0
28,G2,11.5,0.25,95,120.0
29,F#2,11.5,0.5,95,120.0
30,F2,11.75,0.25,95,120.0
31,D5,12.0,0.5,95,120.0
32,B-1,12.0,0.75,95,120.0
33,C#4,12.0,0.75,95,120.0
34,C#2,12.0,0.25,79,120.0
35,F#2,12.0,0.25,79,120.0
36,F5,12.5,0.25,95,120.0
37,B-2,12.5,0.375,79,120.0
38,D5,12.75,0.25,95,120.0
39,B-1,12.75,0.25,95,120.0
40,D4,12.75,0.25,95,120.0
41,C5,13.0,0.5,95,120.0
42,G1,13.0,0.75,95,120.0
43,C#4,13.0,0.75,95,120.0
44,C#2,13.0,0.25,71,120.0
45,F#2,13.0,0.25,71,120.0
46,B-4,13.5,0.25,95,120.0
47,B-2,13.5,0.375,79,120.0
48,G4,13.75,0.25,95,120.0
49,F1,13.75,0.25,95,120.0
50,D4,13.75,0.25,95,120.0
51,F4,14.0,0.25,95,120.0
52,F1,14.0,0.5,95,120.0
53,C#4,14.0,0.5,95,120.0
54,C#2,14.0,0.25,71,120.0
55,F#2,14.0,0.25,71,120.0
56,B-4,14.25,0.25,95,120.0
57,G4,14.5,0.25,95,120.0
58,F1,14.5,0.5,95,120.0
59,E4,14.5,1.5,95,120.0
60,B-2,14.5,0.25,63,120.0
61,D4,14.75,0.5,95,120.0
62,C#2,15.0,0.25,71,120.0
63,F#2,15.0,0.25,71,120.0
64,F4,15.25,0.25,95,120.0
65,F1,15.25,0.25,95,120.0
66,G4,15.5,0.25,95,120.0
67,G1,15.5,0.25,95,120.0
68,B-2,15.5,0.5,95,120.0
69,D4,15.75,0.25,95,120.0
70,F1,15.75,0.25,95,120.0
71,F4,16.0,0.5,95,120.0
72,B-1,16.0,0.75,95,120.0
73,C#4,16.0,0.75,95,120.0
74,C#2,16.0,0.25,79,120.0
75,F#2,16.0,0.25,79,120.0
76,G4,16.5,0.25,95,120.0
77,B-2,16.5,0.375,79,120.0
78,B-4,16.75,0.25,95,120.0
79,B-1,16.75,0.25,95,120.0
80,D4,16.75,0.25,95,120.0
81,C5,17.0,0.25,95,120.0
82,G1,17.0,0.75,95,120.0
83,C#4,17.0,0.75,95,120.0
84,C#2,17.0,0.25,71,120.0
85,F#2,17.0,0.25,71,120.0
86,G4,17.25,0.25,95,120.0
87,B-4,17.5,0.25,95,120.0
88,B-2,17.5,0.375,79,120.0
89,D5,17.75,0.25,95,120.0
90,F1,17.75,0.25,95,120.0
91,D4,17.75,0.25,95,120.0
92,F1,18.0,0.5,95,120.0
93,C#4,18.0,0.5,95,120.0
94,C#2,18.0,0.25,71,120.0
95,F#2,18.0,0.25,71,120.0
96,C5,18.25,0.25,95,120.0
97,D5,18.5,1.5,95,120.0
98,F1,18.5,0.5,95,120.0
99,E4,18.5,0.5,95,120.0
100,B-2,18.5,0.25,63,120.0
101,C#2,19.0,0.25,71,120.0
102,F#2,19.0,0.25,71,120.0
103,F1,19.25,0.25,95,120.0
104,C#4,19.25,0.25,95,120.0
105,G1,19.5,0.25,95,120.0
106,E4,19.5,0.25,95,120.0
107,B-2,19.5,0.5,95,120.0
108,F1,19.75,0.25,95,120.0
109,C#4,19.75,0.25,95,120.0
110,B-1,20.0,0.75,95,120.0
111,C#4,20.0,0.75,95,120.0
112,C#2,20.0,0.25,79,120.0
113,F#2,20.0,0.25,79,120.0
114,B-2,20.5,0.375,79,120.0
115,B-1,20.75,0.25,95,120.0
116,D4,20.75,0.25,95,120.0
117,G1,21.0,0.75,95,120.0
118,C#4,21.0,0.75,95,120.0
119,C#2,21.0,0.25,71,120.0
120,F#2,21.0,0.25,71,120.0
121,B-2,21.5,0.375,79,120.0
122,F1,21.75,0.25,95,120.0
123,D4,21.75,0.25,95,120.0
124,F1,22.0,0.5,95,120.0
125,C#4,22.0,0.5,95,120.0
126,C#2,22.0,0.25,71,120.0
127,F#2,22.0,0.25,71,120.0
128,A5,22.5,0.25,95,120.0
129,F1,22.5,0.5,95,120.0
130,E4,22.5,1.5,95,120.0
131,B-2,22.5,0.25,63,120.0
132,G5,22.75,0.25,95,120.0
133,F5,23.0,0.5,95,120.0
134,C#2,23.0,0.25,71,120.0
135,F#2,23.0,0.25,71,120.0
136,F1,23.25,0.25,95,120.0
137,G5,23.5,0.5,95,120.0
138,G1,23.5,0.25,95,120.0
139,B-2,23.5,0.5,95,120.0
140,F1,23.75,0.25,95,120.0
141,D5,24.0,4.0,95,120.0
142,B-1,24.0,0.75,95,120.0
143,C#4,24.0,0.75,95,120.0
144,C#2,24.0,0.25,79,120.0
145,F#2,24.0,0.25,79,120.0
146,B-2,24.5,0.375,79,120.0
147,B-1,24.75,0.25,95,120.0
148,D4,24.75,0.25,95,120.0
149,G1,25.0,0.75,95,120.0
150,C#4,25.0,0.75,95,120.0
151,C#2,25.0,0.25,71,120.0
152,F#2,25.0,0.25,71,120.0
153,B-2,25.5,0.375,79,120.0
154,F1,25.75,0.25,95,120.0
155,D4,25.75,0.25,95,120.0
156,F1,26.0,0.5,95,120.0
157,C#4,26.0,0.5,95,120.0
158,C#2,26.0,0.25,71,120.0
159,F#2,26.0,0.25,71,120.0
160,F1,26.5,0.5,95,120.0
161,E4,26.5,0.5,95,120.0
162,B-2,26.5,0.25,63,120.0
163,C#2,27.0,0.25,71,120.0
164,F#2,27.0,0.25,71,120.0
165,F1,27.25,0.25,95,120.0
166,C#4,27.25,0.25,95,120.0
167,G1,27.5,0.25,95,120.0
168,E4,27.5,0.25,95,120.0
169,B-2,27.5,0.5,95,120.0
170,F1,27.75,0.25,95,120.0
171,C#4,27.75,0.25,95,120.0
172,D5,28.0,0.5,95,120.0
173,B-1,28.0,0.75,95,120.0
174,C#4,28.0,0.75,95,120.0
175,C#2,28.0,0.25,79,120.0
176,F#2,28.0,0.25,79,120.0
177,F5,28.5,0.25,95,120.0
178,B-2,28.5,0.375,79,120.0
179,D5,28.75,0.25,95,120.0
180,B-1,28.75,0.25,95,120.0
181,D4,28.75,0.25,95,120.0
182,C5,29.0,0.5,95,120.0
183,G1,29.0,0.75,95,120.0
184,C#4,29.0,0.75,95,120.0
185,C#2,29.0,0.25,71,120.0
186,F#2,29.0,0.25,71,120.0
187,B-4,29.5,0.25,95,120.0
188,B-2,29.5,0.375,79,120.0
189,G4,29.75,0.25,95,120.0
190,F1,29.75,0.25,95,120.0
191,D4,29.75,0.25,95,120.0
192,F4,30.0,0.25,95,120.0
193,F1,30.0,0.5,95,120.0
194,C#4,30.0,0.5,95,120.0
195,C#2,30.0,0.25,71,120.0
196,F#2,30.0,0.25,71,120.0
197,B-4,30.25,0.25,95,120.0
198,G4,30.5,0.25,95,120.0
199,F1,30.5,0.5,95,120.0
200,E4,30.5,1.5,95,120.0
201,B-2,30.5,0.25,63,120.0
202,D4,30.75,0.25,95,120.0
203,F4,31.0,0.75,95,120.0
204,C#2,31.0,0.25,71,120.0
205,F#2,31.0,0.25,71,120.0
206,F1,31.25,0.25,95,120.0
207,G1,31.5,0.25,95,120.0
208,B-2,31.5,0.5,95,120.0
209,G4,31.75,0.25,95,120.0
210,F1,31.75,0.25,95,120.0
211,B-1,32.0,0.75,95,120.0
212,C#4,32.0,0.75,95,120.0
213,C#2,32.0,0.25,79,120.0
214,F#2,32.0,0.25,79,120.0
215,D4,32.25,0.25,95,120.0
216,G4,32.5,0.25,95,120.0
217,B-2,32.5,0.375,79,120.0
218,F4,32.75,0.25,95,120.0
219,B-1,32.75,0.25,95,120.0
220,D4,32.75,0.25,95,120.0
221,B-4,33.0,0.5,95,120.0
222,G1,33.0,0.75,95,120.0
223,C#4,33.0,0.75,95,120.0
224,C#2,33.0,0.25,71,120.0
225,F#2,33.0,0.25,71,120.0
226,G4,33.5,0.25,95,120.0
227,B-2,33.5,0.375,79,120.0
228,D4,33.75,0.25,95,120.0
229,F1,33.75,0.25,95,120.0
230,D4,33.75,0.25,95,120.0
231,G4,34.0,0.25,95,120.0
232,F1,34.0,0.5,95,120.0
233,C#4,34.0,0.5,95,120.0
234,C#2,34.0,0.25,71,120.0
235,F#2,34.0,0.25,71,120.0
236,F4,34.25,0.25,95,120.0
237,B-4,34.5,0.25,95,120.0
238,F1,34.5,0.5,95,120.0
239,E4,34.5,0.5,95,120.0
240,B-2,34.5,0.25,63,120.0
241,G4,34.75,0.25,95,120.0
242,C5,35.0,0.75,95,120.0
243,C#2,35.0,0.25,71,120.0
244,F#2,35.0,0.25,71,120.0
245,F1,35.25,0.25,95,120.0
246,C#4,35.25,0.25,95,120.0
247,G1,35.5,0.25,95,120.0
248,E4,35.5,0.25,95,120.0
249,B-2,35.5,0.5,95,120.0
250,B0,35.5,0.5,95,120.0
251,D5,35.75,0.25,95,120.0
252,F1,35.75,0.25,95,120.0
253,C#4,35.75,0.25,95,120.0
254,B-4,36.0,2.0,95,120.0
255,B-1,36.0,0.75,95,120.0
256,C#4,36.0,0.75,95,120.0
257,C#2,36.0,0.25,79,120.0
258,F#2,36.0,0.25,79,120.0
259,B-2,36.5,0.375,79,120.0
260,B-1,36.75,0.25,95,120.0
261,D4,36.75,0.25,95,120.0
262,G1,37.0,0.75,95,120.0
263,C#4,37.0,0.75,95,120.0
264,C#2,37.0,0.25,71,120.0
265,F#2,37.0,0.25,71,120.0
266,B-2,37.5,0.375,79,120.0
267,F1,37.75,0.25,95,120.0
268,D4,37.75,0.25,95,120.0
269,F1,38.0,0.5,95,120.0
270,C#4,38.0,0.5,95,120.0
271,C#2,38.0,0.25,71,120.0
272,F#2,38.0,0.25,71,120.0
273,F1,38.5,0.5,95,120.0
274,E4,38.5,1.5,95,120.0
275,B-2,38.5,0.25,63,120.0
276,C#2,39.0,0.25,71,120.0
277,F#2,39.0,0.25,71,120.0
278,F1,39.25,0.25,95,120.0
279,G1,39.5,0.25,95,120.0
280,B-2,39.5,0.5,95,120.0
281,F1,39.75,0.25,95,120.0
282,D4,40.0,0.5,95,120.0
283,B-1,40.0,0.75,95,120.0
284,C#4,40.0,0.75,95,120.0
285,C#2,40.0,0.25,79,120.0
286,F#2,40.0,0.25,79,120.0
287,F4,40.5,0.25,95,120.0
288,B-2,40.5,0.375,79,120.0
289,D4,40.75,0.25,95,120.0
290,B-1,40.75,0.25,95,120.0
291,D4,40.75,0.25,95,120.0
292,C4,41.0,0.5,95,120.0
293,G1,41.0,0.75,95,120.0
294,C#4,41.0,0.75,95,120.0
295,C#2,41.0,0.25,71,120.0
296,F#2,41.0,0.25,71,120.0
297,B-3,41.5,0.25,95,120.0
298,B-2,41.5,0.375,79,120.0
299,G3,41.75,0.25,95,120.0
300,F1,41.75,0.25,95,120.0
301,D4,41.75,0.25,95,120.0
302,F3,42.0,0.25,95,120.0
303,F1,42.0,0.5,95,120.0
304,C#4,42.0,0.5,95,120.0
305,C#2,42.0,0.25,71,120.0
306,F#2,42.0,0.25,71,120.0
307,B-3,42.25,0.25,95,120.0
308,G3,42.5,0.25,95,120.0
309,F1,42.5,0.5,95,120.0
310,E4,42.5,0.5,95,120.0
311,B-2,42.5,0.25,63,120.0
312,D3,42.75,0.5,95,120.0
313,C#2,43.0,0.25,71,120.0
314,F#2,43.0,0.25,71,120.0
315,F3,43.25,0.25,95,120.0
316,F1,43.25,0.25,95,120.0
317,C#4,43.25,0.25,95,120.0
318,G3,43.5,0.25,95,120.0
319,G1,43.5,0.25,95,120.0
320,E4,43.5,0.25,95,120.0
321,B-2,43.5,0.5,95,120.0
322,D3,43.75,0.25,95,120.0
323,F1,43.75,0.25,95,120.0
324,C#4,43.75,0.25,95,120.0
325,F3,44.0,0.5,95,120.0
326,B-1,44.0,0.75,95,120.0
327,C#4,44.0,0.75,95,120.0
328,C#2,44.0,0.25,79,120.0
329,F#2,44.0,0.25,79,120.0
330,G3,44.5,0.25,95,120.0
331,B-2,44.5,0.375,79,120.0
332,B-3,44.75,0.25,95,120.0
333,B-1,44.75,0.25,95,120.0
334,D4,44.75,0.25,95,120.0
335,C4,45.0,0.25,95,120.0
336,G1,45.0,0.75,95,120.0
337,C#4,45.0,0.75,95,120.0
338,C#2,45.0,0.25,71,120.0
339,F#2,45.0,0.25,71,120.0
340,G3,45.25,0.25,95,120.0
341,B-3,45.5,0.25,95,120.0
342,B-2,45.5,0.375,79,120.0
343,D4,45.75,0.25,95,120.0
344,F1,45.75,0.25,95,120.0
345,D4,45.75,0.25,95,120.0
346,F1,46.0,0.5,95,120.0
347,C#4,46.0,0.5,95,120.0
348,C#2,46.0,0.25,71,120.0
349,F#2,46.0,0.25,71,120.0
350,C4,46.25,0.25,95,120.0
351,D4,46.5,1.5,95,120.0
352,F1,46.5,0.5,95,120.0
353,E4,46.5,1.5,95,120.0
354,B-2,46.5,0.25,63,120.0
355,C#2,47.0,0.25,71,120.0
356,F#2,47.0,0.25,71,120.0
357,F1,47.25,0.25,95,120.0
358,G1,47.5,0.25,95,120.0
359,B-2,47.5,0.5,95,120.0
360,F1,47.75,0.25,95,120.0
361,B-1,48.0,0.75,95,120.0
362,C#4,48.0,0.75,95,120.0
363,C#2,48.0,0.25,79,120.0
364,F#2,48.0,0.25,79,120.0
365,B-2,48.5,0.375,79,120.0
366,B-1,48.75,0.25,95,120.0
367,D4,48.75,0.25,95,120.0
368,G1,49.0,0.75,95,120.0
369,C#4,49.0,0.75,95,120.0
370,C#2,49.0,0.25,71,120.0
371,F#2,49.0,0.25,71,120.0
372,B-2,49.5,0.375,79,120.0
373,F1,49.75,0.25,95,120.0
374,D4,49.75,0.25,95,120.0
375,F1,50.0,0.5,95,120.0
376,C#4,50.0,0.5,95,120.0
377,C#2,50.0,0.25,71,120.0
378,F#2,50.0,0.25,71,120.0
379,A4,50.5,0.25,95,120.0
380,F1,50.5,0.5,95,120.0
381,E4,50.5,0.5,95,120.0
382,B-2,50.5,0.25,63,120.0
383,G4,50.75,0.25,95,120.0
384,F4,51.0,0.5,95,120.0
385,C#2,51.0,0.25,71,120.0
386,F#2,51.0,0.25,71,120.0
387,F1,51.25,0.25,95,120.0
388,C#4,51.25,0.25,95,120.0
389,G4,51.5,0.5,95,120.0
390,G1,51.5,0.25,95,120.0
391,E4,51.5,0.25,95,120.0
392,B-2,51.5,0.5,95,120.0
393,F1,51.75,0.25,95,120.0
394,C#4,51.75,0.25,95,120.0
395,D4,52.0,4.0,95,120.0
396,B-1,52.0,0.75,95,120.0
397,C#4,52.0,0.75,95,120.0
398,C#2,52.0,0.25,79,120.0
399,F#2,52.0,0.25,79,120.0
400,B-2,52.5,0.375,79,120.0
401,B-1,52.75,0.25,95,120.0
402,D4,52.75,0.25,95,120.0
403,G1,53.0,0.75,95,120.0
404,C#4,53.0,0.75,95,120.0
405,C#2,53.0,0.25,71,120.0
406,F#2,53.0,0.25,71,120.0
407,B-2,53.5,0.375,79,120.0
408,F1,53.75,0.25,95,120.0
409,D4,53.75,0.25,95,120.0
410,F1,54.0,0.5,95,120.0
411,C#4,54.0,0.5,95,120.0
412,C#2,54.0,0.25,71,120.0
413,F#2,54.0,0.25,71,120.0
414,F1,54.5,0.5,95,120.0
415,E4,54.5,1.5,95,120.0
416,B-2,54.5,0.25,63,120.0
417,C#2,55.0,0.25,71,120.0
418,F#2,55.0,0.25,71,120.0
419,F1,55.25,0.25,95,120.0
420,G1,55.5,0.25,95,120.0
421,B-2,55.5,0.5,95,120.0
422,F1,55.75,0.25,95,120.0
423,D4,56.0,0.5,95,120.0
424,B-1,56.0,0.75,95,120.0
425,C#4,56.0,0.75,95,120.0
426,C#2,56.0,0.25,79,120.0
427,F#2,56.0,0.25,79,120.0
428,F4,56.5,0.25,95,120.0
429,B-2,56.5,0.375,79,120.0
430,D4,56.75,0.25,95,120.0
431,B-1,56.75,0.25,95,120.0
432,D4,56.75,0.25,95,120.0
433,C4,57.0,0.5,95,120.0
434,G1,57.0,0.75,95,120.0
435,C#4,57.0,0.75,95,120.0
436,C#2,57.0,0.25,71,120.0
437,F#2,57.0,0.25,71,120.0
438,B-3,57.5,0.25,95,120.0
439,B-2,57.5,0.375,79,120.0
440,G3,57.75,0.25,95,120.0
441,F1,57.75,0.25,95,120.0
442,D4,57.75,0.25,95,120.0
443,F3,58.0,0.25,95,120.0
444,F1,58.0,0.5,95,120.0
445,C#4,58.0,0.5,95,120.0
446,C#2,58.0,0.25,71,120.0
447,F#2,58.0,0.25,71,120.0
448,B-3,58.25,0.25,95,120.0
449,G3,58.5,0.25,95,120.0
450,F1,58.5,0.5,95,120.0
451,E4,58.5,0.5,95,120.0
452,B-2,58.5,0.25,63,120.0
453,D3,58.75,0.25,95,120.0
454,F3,59.0,0.75,95,120.0
455,C#2,59.0,0.25,71,120.0
456,F#2,59.0,0.25,71,120.0
457,F1,59.25,0.25,95,120.0
458,C#4,59.25,0.25,95,120.0
459,G1,59.5,0.25,95,120.0
460,E4,59.5,0.25,95,120.0
461,B-2,59.5,0.5,95,120.0
462,G3,59.75,0.25,95,120.0
463,F1,59.75,0.25,95,120.0
464,C#4,59.75,0.25,95,120.0
465,B-1,60.0,0.75,95,120.0
466,C#4,60.0,0.75,95,120.0
467,C#2,60.0,0.25,79,120.0
468,F#2,60.0,0.25,79,120.0
469,D3,60.25,0.25,95,120.0
470,G3,60.5,0.25,95,120.0
471,B-2,60.5,0.375,79,120.0
472,F3,60.75,0.25,95,120.0
473,B-1,60.75,0.25,95,120.0
474,D4,60.75,0.25,95,120.0
475,B-3,61.0,0.5,95,120.0
476,G1,61.0,0.75,95,120.0
477,C#4,61.0,0.75,95,120.0
478,C#2,61.0,0.25,71,120.0
479,F#2,61.0,0.25,71,120.0
480,G3,61.5,0.25,95,120.0
481,B-2,61.5,0.375,79,120.0
482,D3,61.75,0.25,95,120.0
483,F1,61.75,0.25,95,120.0
484,D4,61.75,0.25,95,120.0
485,G3,62.0,0.25,95,120.0
486,F1,62.0,0.5,95,120.0
487,C#4,62.0,0.5,95,120.0
488,C#2,62.0,0.25,71,120.0
489,F#2,62.0,0.25,71,120.0
490,F3,62.25,0.25,95,120.0
491,B-3,62.5,0.25,95,120.0
492,F1,62.5,0.5,95,120.0
493,E4,62.5,1.5,95,120.0
494,B-2,62.5,0.25,63,120.0
495,G3,62.75,0.25,95,120.0
496,C4,63.0,0.75,95,120.0
497,C#2,63.0,0.25,71,120.0
498,F#2,63.0,0.25,71,120.0
499,F1,63.25,0.25,95,120.0
500,G1,63.5,0.25,95,120.0
501,B-2,63.5,0.5,95,120.0
502,D4,63.75,0.25,95,120.0
503,F1,63.75,0.25,95,120.0
504,B-3,64.0,2.0,95,120.0
505,B-1,64.0,0.75,95,120.0
506,D4,64.0,0.25,95,120.0
507,C#4,64.25,0.25,95,120.0
508,E4,64.5,0.25,95,120.0
509,B-1,64.75,0.25,95,120.0
510,C#4,64.75,0.25,95,120.0
511,G1,65.0,0.75,95,120.0
512,C4,65.0,0.25,95,120.0
513,C4,65.25,0.25,95,120.0
514,E-4,65.5,0.25,95,120.0
515,F1,65.75,0.25,95,120.0
516,C4,65.75,0.25,95,120.0
517,F1,66.0,0.5,95,120.0
518,C#4,66.0,0.25,95,120.0
519,E4,66.25,0.25,95,120.0
520,F1,66.5,0.5,95,120.0
521,E-4,66.5,0.25,95,120.0
522,E4,66.75,0.25,95,120.0
523,F1,67.25,0.25,95,120.0
524,C#4,67.25,0.25,95,120.0
525,G1,67.5,0.25,95,120.0
526,E4,67.5,0.25,95,120.0
527,F1,67.75,0.25,95,120.0
528,C#4,67.75,0.25,95,120.0
529,D5,68.0,0.5,95,120.0
530,B-1,68.0,0.75,95,120.0
531,C#4,68.0,0.75,95,120.0
532,C#2,68.0,0.25,79,120.0
533,F#2,68.0,0.25,79,120.0
534,F5,68.5,0.25,95,120.0
535,B-2,68.5,0.375,79,120.0
536,D5,68.75,0.25,95,120.0
537,B-1,68.75,0.25,95,120.0
538,D4,68.75,0.25,95,120.0
539,C5,69.0,0.5,95,120.0
540,G1,69.0,0.75,95,120.0
541,C#4,69.0,0.75,95,120.0
542,C#2,69.0,0.25,71,120.0
543,F#2,69.0,0.25,71,120.0
544,B-4,69.5,0.25,95,120.0
545,B-2,69.5,0.375,79,120.0
546,G4,69.75,0.25,95,120.0
547,F1,69.75,0.25,95,120.0
548,D4,69.75,0.25,95,120.0
549,F4,70.0,0.25,95,120.0
550,F1,70.0,0.5,95,120.0
551,C#4,70.0,0.5,95,120.0
552,C#2,70.0,0.25,71,120.0
553,F#2,70.0,0.25,71,120.0
554,B-4,70.25,0.25,95,120.0
555,G4,70.5,0.25,95,120.0
556,F1,70.5,0.5,95,120.0
557,E4,70.5,1.5,95,120.0
558,B-2,70.5,0.25,63,120.0
559,D4,70.75,0.5,95,120.0
560,C#2,71.0,0.25,71,120.0
561,F#2,71.0,0.25,71,120.0
562,F4,71.25,0.25,95,120.0
563,F1,71.25,0.25,95,120.0
564,G4,71.5,0.25,95,120.0
565,G1,71.5,0.25,95,120.0
566,B-2,71.5,0.5,95,120.0
567,D4,71.75,0.25,95,120.0
568,F1,71.75,0.25,95,120.0
569,F4,72.0,0.5,95,120.0
570,B-1,72.0,0.75,95,120.0
571,C#4,72.0,0.75,95,120.0
572,C#2,72.0,0.25,79,120.0
573,F#2,72.0,0.25,79,120.0
574,G4,72.5,0.25,95,120.0
575,B-2,72.5,0.375,79,120.0
576,B-4,72.75,0.25,95,120.0
577,B-1,72.75,0.25,95,120.0
578,D4,72.75,0.25,95,120.0
579,C5,73.0,0.25,95,120.0
580,G1,73.0,0.75,95,120.0
581,C#4,73.0,0.75,95,120.0
582,C#2,73.0,0.25,71,120.0
583,F#2,73.0,0.25,71,120.0
584,G4,73.25,0.25,95,120.0
585,B-4,73.5,0.25,95,120.0
586,B-2,73.5,0.375,79,120.0
587,D5,73.75,0.25,95,120.0
588,F1,73.75,0.25,95,120.0
589,D4,73.75,0.25,95,120.0
590,F1,74.0,0.5,95,120.0
591,C#4,74.0,0.5,95,120.0
592,C#2,74.0,0.25,71,120.0
593,F#2,74.0,0.25,71,120.0
594,C5,74.25,0.25,95,120.0
595,D5,74.5,1.5,95,120.0
596,F1,74.5,0.5,95,120.0
597,E4,74.5,0.5,95,120.0
598,B-2,74.5,0.25,63,120.0
599,C#2,75.0,0.25,71,120.0
600,F#2,75.0,0.25,71,120.0
601,F1,75.25,0.25,95,120.0
602,C#4,75.25,0.25,95,120.0
603,G1,75.5,0.25,95,120.0
604,E4,75.5,0.25,95,120.0
605,B-2,75.5,0.5,95,120.0
606,F1,75.75,0.25,95,120.0
607,C#4,75.75,0.25,95,120.0
608,B-1,76.0,0.75,95,120.0
609,C#4,76.0,0.75,95,120.0
610,C#2,76.0,0.25,79,120.0
611,F#2,76.0,0.25,79,120.0
612,B-2,76.5,0.375,79,120.0
613,B-1,76.75,0.25,95,120.0
614,D4,76.75,0.25,95,120.0
615,G1,77.0,0.75,95,120.0
616,C#4,77.0,0.75,95,120.0
617,C#2,77.0,0.25,71,120.0
618,F#2,77.0,0.25,71,120.0
619,B-2,77.5,0.375,79,120.0
620,F1,77.75,0.25,95,120.0
621,D4,77.75,0.25,95,120.0
622,F1,78.0,0.5,95,120.0
623,C#4,78.0,0.5,95,120.0
624,C#2,78.0,0.25,71,120.0
625,F#2,78.0,0.25,71,120.0
626,A5,78.5,0.25,95,120.0
627,F1,78.5,0.5,95,120.0
628,E4,78.5,1.5,95,120.0
629,B-2,78.5,0.25,63,120.0
630,G5,78.75,0.25,95,120.0
631,F5,79.0,0.5,95,120.0
632,C#2,79.0,0.25,71,120.0
633,F#2,79.0,0.25,71,120.0
634,F1,79.25,0.25,95,120.0
635,G5,79.5,0.5,95,120.0
636,G1,79.5,0.25,95,120.0
637,B-2,79.5,0.5,95,120.0
638,F1,79.75,0.25,95,120.0
639,D5,80.0,4.0,95,120.0
640,B-1,80.0,0.75,95,120.0
641,C#4,80.0,0.75,95,120.0
642,C#2,80.0,0.25,79,120.0
643,F#2,80.0,0.25,79,120.0
644,B-2,80.5,0.375,79,120.0
645,B-1,80.75,0.25,95,120.0
646,D4,80.75,0.25,95,120.0
647,G1,81.0,0.75,95,120.0
648,C#4,81.0,0.75,95,120.0
649,C#2,81.0,0.25,71,120.0
650,F#2,81.0,0.25,71,120.0
651,B-2,81.5,0.375,79,120.0
652,F1,81.75,0.25,95,120.0
653,D4,81.75,0.25,95,120.0
654,F1,82.0,0.5,95,120.0
655,C#4,82.0,0.5,95,120.0
656,C#2,82.0,0.25,71,120.0
657,F#2,82.0,0.25,71,120.0
658,F1,82.5,0.5,95,120.0
659,E4,82.5,0.5,95,120.0
660,B-2,82.5,0.25,63,120.0
661,C#2,83.0,0.25,71,120.0
662,F#2,83.0,0.25,71,120.0
663,F1,83.25,0.25,95,120.0
664,C#4,83.25,0.25,95,120.0
665,G1,83.5,0.25,95,120.0
666,E4,83.5,0.25,95,120.0
667,B-2,83.5,0.5,95,120.0
668,F1,83.75,0.25,95,120.0
669,C#4,83.75,0.25,95,120.0
670,D5,84.0,0.5,95,120.0
671,B-1,84.0,0.75,95,120.0
672,C#4,84.0,0.75,95,120.0
673,C#2,84.0,0.25,79,120.0
674,F#2,84.0,0.25,79,120.0
675,F5,84.5,0.25,95,120.0
676,B-2,84.5,0.375,79,120.0
677,D5,84.75,0.25,95,120.0
678,B-1,84.75,0.25,95,120.0
679,D4,84.75,0.25,95,120.0
680,C5,85.0,0.5,95,120.0
681,G1,85.0,0.75,95,120.0
682,C#4,85.0,0.75,95,120.0
683,C#2,85.0,0.25,71,120.0
684,F#2,85.0,0.25,71,120.0
685,B-4,85.5,0.25,95,120.0
686,B-2,85.5,0.375,79,120.0
687,G4,85.75,0.25,95,120.0
688,F1,85.75,0.25,95,120.0
689,D4,85.75,0.25,95,120.0
690,F4,86.0,0.25,95,120.0
691,F1,86.0,0.5,95,120.0
692,C#4,86.0,0.5,95,120.0
693,C#2,86.0,0.25,71,120.0
694,F#2,86.0,0.25,71,120.0
695,B-4,86.25,0.25,95,120.0
696,G4,86.5,0.25,95,120.0
697,F1,86.5,0.5,95,120.0
698,E4,86.5,1.5,95,120.0
699,B-2,86.5,0.25,63,120.0
700,D4,86.75,0.25,95,120.0
701,F4,87.0,0.75,95,120.0
702,C#2,87.0,0.25,71,120.0
703,F#2,87.0,0.25,71,120.0
704,F1,87.25,0.25,95,120.0
705,G1,87.5,0.25,95,120.0
706,B-2,87.5,0.5,95,120.0
707,G4,87.75,0.25,95,120.0
708,F1,87.75,0.25,95,120.0
709,B-1,88.0,0.75,95,120.0
710,C#4,88.0,0.75,95,120.0
711,C#2,88.0,0.25,79,120.0
712,F#2,88.0,0.25,79,120.0
713,D4,88.25,0.25,95,120.0
714,G4,88.5,0.25,95,120.0
715,B-2,88.5,0.375,79,120.0
716,F4,88.75,0.25,95,120.0
717,B-1,88.75,0.25,95,120.0
718,D4,88.75,0.25,95,120.0
719,B-4,89.0,0.5,95,120.0
720,G1,89.0,0.75,95,120.0
721,C#4,89.0,0.75,95,120.0
722,C#2,89.0,0.25,71,120.0
723,F#2,89.0,0.25,71,120.0
724,G4,89.5,0.25,95,120.0
725,B-2,89.5,0.375,79,120.0
726,D4,89.75,0.25,95,120.0
727,F1,89.75,0.25,95,120.0
728,D4,89.75,0.25,95,120.0
729,G4,90.0,0.25,95,120.0
730,F1,90.0,0.5,95,120.0
731,C#4,90.0,0.5,95,120.0
732,C#2,90.0,0.25,71,120.0
733,F#2,90.0,0.25,71,120.0
734,F4,90.25,0.25,95,120.0
735,B-4,90.5,0.25,95,120.0
736,F1,90.5,0.5,95,120.0
737,E4,90.5,0.5,95,120.0
738,B-2,90.5,0.25,63,120.0
739,G4,90.75,0.25,95,120.0
740,C5,91.0,0.75,95,120.0
741,C#2,91.0,0.25,71,120.0
742,F#2,91.0,0.25,71,120.0
743,F1,91.25,0.25,95,120.0
744,C#4,91.25,0.25,95,120.0
745,G1,91.5,0.25,95,120.0
746,E4,91.5,0.25,95,120.0
747,B-2,91.5,0.5,95,120.0
748,B0,91.5,0.5,95,120.0
749,D5,91.75,0.25,95,120.0
750,F1,91.75,0.25,95,120.0
751,C#4,91.75,0.25,95,120.0
752,B-4,92.0,2.0,95,120.0
753,B-1,92.0,0.75,95,120.0
754,C#4,92.0,0.75,95,120.0
755,C#2,92.0,0.25,79,120.0
756,F#2,92.0,0.25,79,120.0
757,B-2,92.5,0.375,79,120.0
758,B-1,92.75,0.25,95,120.0
759,D4,92.75,0.25,95,120.0
760,G1,93.0,0.75,95,120.0
761,C#4,93.0,0.75,95,120.0
762,C#2,93.0,0.25,71,120.0
763,F#2,93.0,0.25,71,120.0
764,B-2,93.5,0.375,79,120.0
765,F1,93.75,0.25,95,120.0
766,D4,93.75,0.25,95,120.0
767,F1,94.0,0.5,95,120.0
768,C#4,94.0,0.5,95,120.0
769,C#2,94.0,0.25,71,120.0
770,F#2,94.0,0.25,71,120.0
771,F1,94.5,0.5,95,120.0
772,E4,94.5,1.5,95,120.0
773,B-2,94.5,0.25,63,120.0
774,C#2,95.0,0.25,71,120.0
775,F#2,95.0,0.25,71,120.0
776,F1,95.25,0.25,95,120.0
777,G1,95.5,0.25,95,120.0
778,B-2,95.5,0.5,95,120.0
779,F1,95.75,0.25,95,120.0
780,D4,96.0,0.5,95,120.0
781,B-1,96.0,0.75,95,120.0
782,C#4,96.0,0.75,95,120.0
783,C#2,96.0,0.25,79,120.0
784,F#2,96.0,0.25,79,120.0
785,F4,96.5,0.25,95,120.0
786,B-2,96.5,0.375,79,120.0
787,D4,96.75,0.25,95,120.0
788,B-1,96.75,0.25,95,120.0
789,D4,96.75,0.25,95,120.0
790,C4,97.0,0.5,95,120.0
791,G1,97.0,0.75,95,120.0
792,C#4,97.0,0.75,95,120.0
793,C#2,97.0,0.25,71,120.0
794,F#2,97.0,0.25,71,120.0
795,B-3,97.5,0.25,95,120.0
796,B-2,97.5,0.375,79,120.0
797,G3,97.75,0.25,95,120.0
798,F1,97.75,0.25,95,120.0
799,D4,97.75,0.25,95,120.0
800,F3,98.0,0.25,95,120.0
801,F1,98.0,0.5,95,120.0
802,C#4,98.0,0.5,95,120.0
803,C#2,98.0,0.25,71,120.0
804,F#2,98.0,0.25,71,120.0
805,B-3,98.25,0.25,95,120.0
806,G3,98.5,0.25,95,120.0
807,F1,98.5,0.5,95,120.0
808,E4,98.5,0.5,95,120.0
809,B-2,98.5,0.25,63,120.0
810,D3,98.75,0.5,95,120.0
811,C#2,99.0,0.25,71,120.0
812,F#2,99.0,0.25,71,120.0
813,F3,99.25,0.25,95,120.0
814,F1,99.25,0.25,95,120.0
815,C#4,99.25,0.25,95,120.0
816,G3,99.5,0.25,95,120.0
817,G1,99.5,0.25,95,120.0
818,E4,99.5,0.25,95,120.0
819,B-2,99.5,0.5,95,120.0
820,D3,99.75,0.25,95,120.0
821,F1,99.75,0.25,95,120.0
822,C#4,99.75,0.25,95,120.0
823,F3,100.0,0.5,95,120.0
824,B-1,100.0,0.75,95,120.0
825,C#4,100.0,0.75,95,120.0
826,C#2,100.0,0.25,79,120.0
827,F#2,100.0,0.25,79,120.0
828,G3,100.5,0.25,95,120.0
829,B-2,100.5,0.375,79,120.0
830,B-3,100.75,0.25,95,120.0
831,B-1,100.75,0.25,95,120.0
832,D4,100.75,0.25,95,120.0
833,C4,101.0,0.25,95,120.0
834,G1,101.0,0.75,95,120.0
835,C#4,101.0,0.75,95,120.0
836,C#2,101.0,0.25,71,120.0
837,F#2,101.0,0.25,71,120.0
838,G3,101.25,0.25,95,120.0
839,B-3,101.5,0.25,95,120.0
840,B-2,101.5,0.375,79,120.0
841,D4,101.75,0.25,95,120.0
842,F1,101.75,0.25,95,120.0
843,D4,101.75,0.25,95,120.0
844,F1,102.0,0.5,95,120.0
845,C#4,102.0,0.5,95,120.0
846,C#2,102.0,0.25,71,120.0
847,F#2,102.0,0.25,71,120.0
848,C4,102.25,0.25,95,120.0
849,D4,102.5,1.5,95,120.0
850,F1,102.5,0.5,95,120.0
851,E4,102.5,1.5,95,120.0
852,B-2,102.5,0.25,63,120.0
853,C#2,103.0,0.25,71,120.0
854,F#2,103.0,0.25,71,120.0
855,F1,103.25,0.25,95,120.0
856,G1,103.5,0.25,95,120.0
857,B-2,103.5,0.5,95,120.0
858,F1,103.75,0.25,95,120.0
859,B-1,104.0,0.75,95,120.0
860,C#4,104.0,0.75,95,120.0
861,C#2,104.0,0.25,79,120.0
862,F#2,104.0,0.25,79,120.0
863,B-2,104.5,0.375,79,120.0
864,B-1,104.75,0.25,95,120.0
865,D4,104.75,0.25,95,120.0
866,G1,105.0,0.75,95,120.0
867,C#4,105.0,0.75,95,120.0
868,C#2,105.0,0.25,71,120.0
869,F#2,105.0,0.25,71,120.0
870,B-2,105.5,0.375,79,120.0
871,F1,105.75,0.25,95,120.0
872,D4,105.75,0.25,95,120.0
873,F1,106.0,0.5,95,120.0
874,C#4,106.0,0.5,95,120.0
875,C#2,106.0,0.25,71,120.0
876,F#2,106.0,0.25,71,120.0
877,A4,106.5,0.25,95,120.0
878,F1,106.5,0.5,95,120.0
879,E4,106.5,0.5,95,120.0
880,B-2,106.5,0.25,63,120.0
881,G4,106.75,0.25,95,120.0
882,F4,107.0,0.5,95,120.0
883,C#2,107.0,0.25,71,120.0
884,F#2,107.0,0.25,71,120.0
885,F1,107.25,0.25,95,120.0
886,C#4,107.25,0.25,95,120.0
887,G4,107.5,0.5,95,120.0
888,G1,107.5,0.25,95,120.0
889,E4,107.5,0.25,95,120.0
890,B-2,107.5,0.5,95,120.0
891,F1,107.75,0.25,95,120.0
892,C#4,107.75,0.25,95,120.0
893,D4,108.0,4.0,95,120.0
894,B-1,108.0,0.75,95,120.0
895,C#4,108.0,0.75,95,120.0
896,C#2,108.0,0.25,79,120.0
897,F#2,108.0,0.25,79,120.0
898,B-2,108.5,0.375,79,120.0
899,B-1,108.75,0.25,95,120.0
900,D4,108.75,0.25,95,120.0
901,G1,109.0,0.75,95,120.0
902,C#4,109.0,0.75,95,120.0
903,C#2,109.0,0.25,71,120.0
904,F#2,109.0,0.25,71,120.0
905,B-2,109.5,0.375,79,120.0
906,F1,109.75,0.25,95,120.0
907,D4,109.75,0.25,95,120.0
908,F1,110.0,0.5,95,120.0
909,C#4,110.0,0.5,95,120.0
910,C#2,110.0,0.25,71,120.0
911,F#2,110.0,0.25,71,120.0
912,F1,110.5,0.5,95,120.0
913,E4,110.5,1.5,95,120.0
914,B-2,110.5,0.25,63,120.0
915,C#2,111.0,0.25,71,120.0
916,F#2,111.0,0.25,71,120.0
917,F1,111.25,0.25,95,120.0
918,G1,111.5,0.25,95,120.0
919,B-2,111.5,0.5,95,120.0
920,F1,111.75,0.25,95,120.0
921,D4,112.0,0.5,95,120.0
922,B-1,112.0,0.75,95,120.0
923,C#4,112.0,0.75,95,120.0
924,C#2,112.0,0.25,79,120.0
925,F#2,112.0,0.25,79,120.0
926,F4,112.5,0.25,95,120.0
927,B-2,112.5,0.375,79,120.0
928,D4,112.75,0.25,95,120.0
929,B-1,112.75,0.25,95,120.0
930,D4,112.75,0.25,95,120.0
931,C4,113.0,0.5,95,120.0
932,G1,113.0,0.75,95,120.0
933,C#4,113.0,0.75,95,120.0
934,C#2,113.0,0.25,71,120.0
935,F#2,113.0,0.25,71,120.0
936,B-3,113.5,0.25,95,120.0
937,B-2,113.5,0.375,79,120.0
938,G3,113.75,0.25,95,120.0
939,F1,113.75,0.25,95,120.0
940,D4,113.75,0.25,95,120.0
941,F3,114.0,0.25,95,120.0
942,F1,114.0,0.5,95,120.0
943,C#4,114.0,0.5,95,120.0
944,C#2,114.0,0.25,71,120.0
945,F#2,114.0,0.25,71,120.0
946,B-3,114.25,0.25,95,120.0
947,G3,114.5,0.25,95,120.0
948,F1,114.5,0.5,95,120.0
949,E4,114.5,0.5,95,120.0
950,B-2,114.5,0.25,63,120.0
951,D3,114.75,0.25,95,120.0
952,F3,115.0,0.75,95,120.0
953,C#2,115.0,0.25,71,120.0
954,F#2,115.0,0.25,71,120.0
955,F1,115.25,0.25,95,120.0
956,C#4,115.25,0.25,95,120.0
957,G1,115.5,0.25,95,120.0
958,E4,115.5,0.25,95,120.0
959,B-2,115.5,0.5,95,120.0
960,G3,115.75,0.25,95,120.0
961,F1,115.75,0.25,95,120.0
962,C#4,115.75,0.25,95,120.0
963,B-1,116.0,0.75,95,120.0
964,C#4,116.0,0.75,95,120.0
965,C#2,116.0,0.25,79,120.0
966,F#2,116.0,0.25,79,120.0
967,D3,116.25,0.25,95,120.0
968,G3,116.5,0.25,95,120.0
969,B-2,116.5,0.375,79,120.0
970,F3,116.75,0.25,95,120.0
971,B-1,116.75,0.25,95,120.0
972,D4,116.75,0.25,95,120.0
973,B-3,117.0,0.5,95,120.0
974,G1,117.0,0.75,95,120.0
975,C#4,117.0,0.75,95,120.0
976,C#2,117.0,0.25,71,120.0
977,F#2,117.0,0.25,71,120.0
978,G3,117.5,0.25,95,120.0
979,B-2,117.5,0.375,79,120.0
980,D3,117.75,0.25,95,120.0
981,F1,117.75,0.25,95,120.0
982,D4,117.75,0.25,95,120.0
983,G3,118.0,0.25,95,120.0
984,F1,118.0,0.5,95,120.0
985,C#4,118.0,0.5,95,120.0
986,C#2,118.0,0.25,71,120.0
987,F#2,118.0,0.25,71,120.0
988,F3,118.25,0.25,95,120.0
989,B-3,118.5,0.25,95,120.0
990,F1,118.5,0.5,95,120.0
991,E4,118.5,1.5,95,120.0
992,B-2,118.5,0.25,63,120.0
993,G3,118.75,0.25,95,120.0
994,C4,119.0,0.75,95,120.0
995,C#2,119.0,0.25,71,120.0
996,F#2,119.0,0.25,71,120.0
997,F1,119.25,0.25,95,120.0
998,G1,119.5,0.25,95,120.0
999,B-2,119.5,0.5,95,120.0
1000,D4,119.75,0.25,95,120.0
1001,F1,119.75,0.25,95,120.0
1002,B-3,120.0,2.0,95,120.0
1003,B-1,120.0,0.75,95,120.0
1004,D4,120.0,0.25,95,120.0
1005,C#4,120.25,0.25,95,120.0
1006,E4,120.5,0.25,95,120.0
1007,B-1,120.75,0.25,95,120.0
1008,C#4,120.75,0.25,95,120.0
1009,G1,121.0,0.75,95,120.0
1010,C4,121.0,0.25,95,120.0
1011,C4,121.25,0.25,95,120.0
1012,E-4,121.5,0.25,95,120.0
1013,F1,121.75,0.25,95,120.0
1014,C4,121.75,0.25,95,120.0
1015,F1,122.0,0.5,95,120.0
1016,C#4,122.0,0.25,95,120.0
1017,E4,122.25,0.25,95,120.0
1018,F1,122.5,0.5,95,120.0
1019,E-4,122.5,0.25,95,120.0
1020,E4,122.75,0.25,95,120.0
1021,F1,123.25,0.25,95,120.0
1022,C#4,123.25,0.25,95,120.0
1023,G1,123.5,0.25,95,120.0
1024,E4,123.5,0.25,95,120.0
1025,F1,123.75,0.25,95,120.0
1026,C#4,123.75,0.25,95,120.0
1027,B-1,124.0,0.75,95,120.0
1028,C#4,124.0,0.75,95,120.0
1029,C#2,124.0,0.25,79,120.0
1030,F#2,124.0,0.25,79,120.0
1031,B-2,124.5,0.375,79,120.0
1032,B-1,124.75,0.25,95,120.0
1033,D4,124.75,0.25,95,120.0
1034,G1,125.0,0.75,95,120.0
1035,C#4,125.0,0.75,95,120.0
1036,C#2,125.0,0.25,71,120.0
1037,F#2,125.0,0.25,71,120.0
1038,B-2,125.5,0.375,79,120.0
1039,F1,125.75,0.25,95,120.0
1040,D4,125.75,0.25,95,120.0
1041,F1,126.0,0.5,95,120.0
1042,C#4,126.0,0.5,95,120.0
1043,C#2,126.0,0.25,71,120.0
1044,F#2,126.0,0.25,71,120.0
1045,F1,126.5,0.5,95,120.0
1046,E4,126.5,1.5,95,120.0
1047,B-2,126.5,0.25,63,120.0
1048,C#2,127.0,0.25,71,120.0
1049,F#2,127.0,0.25,71,120.0
1050,F1,127.25,0.25,95,120.0
1051,G1,127.5,0.25,95,120.0
1052,B-2,127.5,0.5,95,120.0
1053,F1,127.75,0.25,95,120.0
1054,B-1,128.0,0.75,95,120.0
1055,C#4,128.0,0.75,95,120.0
1056,C#2,128.0,0.25,79,120.0
1057,F#2,128.0,0.25,79,120.0
1058,B-2,128.5,0.375,79,120.0
1059,B-1,128.75,0.25,95,120.0
1060,D4,128.75,0.25,95,120.0
1061,G1,129.0,0.75,95,120.0
1062,C#4,129.0,0.75,95,120.0
1063,C#2,129.0,0.25,71,120.0
1064,F#2,129.0,0.25,71,120.0
1065,B-2,129.5,0.375,79,120.0
1066,F1,129.75,0.25,95,120.0
1067,D4,129.75,0.25,95,120.0
1068,F1,130.0,0.5,95,120.0
1069,C#4,130.0,0.5,95,120.0
1070,C#2,130.0,0.25,71,120.0
1071,F#2,130.0,0.25,71,120.0
1072,F1,130.5,0.5,95,120.0
1073,E4,130.5,0.5,95,120.0
1074,B-2,130.5,0.25,63,120.0
1075,C#2,131.0,0.25,71,120.0
1076,F#2,131.0,0.25,71,120.0
1077,F1,131.25,0.25,95,120.0
1078,C#4,131.25,0.25,95,120.0
1079,G1,131.5,0.25,95,120.0
1080,E4,131.5,0.25,95,120.0
1081,B-2,131.5,0.5,95,120.0
1082,F1,131.75,0.25,95,120.0
1083,C#4,131.75,0.25,95,120.0
1084,B-1,132.0,0.75,95,120.0
1085,C#4,132.0,0.75,95,120.0
1086,D5,132.0,0.25,95,120.0
1087,B-4,132.0,0.25,95,120.0
1088,C#2,132.0,0.25,79,120.0
1089,F#2,132.0,0.25,79,120.0
1090,C5,132.25,0.25,95,120.0
1091,G4,132.25,0.25,95,120.0
1092,B-2,132.5,0.375,79,120.0
1093,B-4,132.5,0.25,95,120.0
1094,F4,132.5,0.25,95,120.0
1095,B-1,132.75,0.25,95,120.0
1096,D4,132.75,0.25,95,120.0
1097,D5,132.75,0.25,95,120.0
1098,B-4,132.75,0.25,95,120.0
1099,G1,133.0,0.75,95,120.0
1100,C#4,133.0,0.75,95,120.0
1101,C#2,133.0,0.25,71,120.0
1102,F#2,133.0,0.25,71,120.0
1103,C5,133.25,0.25,95,120.0
1104,G4,133.25,0.25,95,120.0
1105,B-2,133.5,0.375,79,120.0
1106,B-4,133.5,0.25,95,120.0
1107,F4,133.5,0.25,95,120.0
1108,F1,133.75,0.25,95,120.0
1109,D4,133.75,0.25,95,120.0
1110,C5,133.75,0.25,95,120.0
1111,G4,133.75,0.25,95,120.0
1112,F1,134.0,0.5,95,120.0
1113,C#4,134.0,0.5,95,120.0
1114,C#2,134.0,0.25,71,120.0
1115,F#2,134.0,0.25,71,120.0
1116,B-4,134.25,0.25,95,120.0
1117,F4,134.25,0.25,95,120.0
1118,F1,134.5,0.5,95,120.0
1119,E4,134.5,1.5,95,120.0
1120,B-2,134.5,0.25,63,120.0
1121,C5,134.5,0.5,95,120.0
1122,G4,134.5,0.5,95,120.0
1123,C#2,135.0,0.25,71,120.0
1124,F#2,135.0,0.25,71,120.0
1125,F1,135.25,0.25,95,120.0
1126,B-4,135.25,0.5,95,120.0
1127,F4,135.25,0.5,95,120.0
1128,G1,135.5,0.25,95,120.0
1129,B-2,135.5,0.5,95,120.0
1130,F1,135.75,0.25,95,120.0
1131,B-1,136.0,0.75,95,120.0
1132,C#4,136.0,0.75,95,120.0
1133,C#2,136.0,0.25,79,120.0
1134,F#2,136.0,0.25,79,120.0
1135,B-2,136.5,0.375,79,120.0
1136,B-1,136.75,0.25,95,120.0
1137,D4,136.75,0.25,95,120.0
1138,G1,137.0,0.75,95,120.0
1139,C#4,137.0,0.75,95,120.0
1140,C#2,137.0,0.25,71,120.0
1141,F#2,137.0,0.25,71,120.0
1142,B-2,137.5,0.375,79,120.0
1143,F1,137.75,0.25,95,120.0
1144,D4,137.75,0.25,95,120.0
1145,F1,138.0,0.5,95,120.0
1146,C#4,138.0,0.5,95,120.0
1147,C#2,138.0,0.25,71,120.0
1148,F#2,138.0,0.25,71,120.0
1149,F1,138.5,0.5,95,120.0
1150,E4,138.5,0.5,95,120.0
1151,B-2,138.5,0.25,63,120.0
1152,C#2,139.0,0.25,71,120.0
1153,F#2,139.0,0.25,71,120.0
1154,F1,139.25,0.25,95,120.0
1155,C#4,139.25,0.25,95,120.0
1156,G1,139.5,0.25,95,120.0
1157,E4,139.5,0.25,95,120.0
1158,B-2,139.5,0.5,95,120.0
1159,F1,139.75,0.25,95,120.0
1160,C#4,139.75,0.25,95,120.0
1161,D5,140.0,0.25,95,120.0
1162,B-1,140.0,0.75,95,120.0
1163,C#4,140.0,0.75,95,120.0
1164,C#2,140.0,0.25,79,120.0
1165,F#2,140.0,0.25,79,120.0
1166,G5,140.25,0.25,95,120.0
1167,F5,140.5,0.5,95,120.0
1168,B-2,140.5,0.375,79,120.0
1169,B-1,140.75,0.25,95,120.0
1170,D4,140.75,0.25,95,120.0
1171,G1,141.0,0.75,95,120.0
1172,C#4,141.0,0.75,95,120.0
1173,C#2,141.0,0.25,71,120.0
1174,F#2,141.0,0.25,71,120.0
1175,B-2,141.5,0.375,79,120.0
1176,F1,141.75,0.25,95,120.0
1177,D4,141.75,0.25,95,120.0
1178,F1,142.0,0.5,95,120.0
1179,C#4,142.0,0.5,95,120.0
1180,C#2,142.0,0.25,71,120.0
1181,F#2,142.0,0.25,71,120.0
1182,F1,142.5,0.5,95,120.0
1183,E4,142.5,1.5,95,120.0
1184,B-2,142.5,0.25,63,120.0
1185,C#2,143.0,0.25,71,120.0
1186,F#2,143.0,0.25,71,120.0
1187,F1,143.25,0.25,95,120.0
1188,G1,143.5,0.25,95,120.0
1189,B-2,143.5,0.5,95,120.0
1190,F1,143.75,0.25,95,120.0
1191,D5,144.0,0.25,95,120.0
1192,B-1,144.0,0.75,95,120.0
1193,C#4,144.0,0.75,95,120.0
1194,C#2,144.0,0.25,79,120.0
1195,F#2,144.0,0.25,79,120.0
1196,G5,144.25,0.25,95,120.0
1197,F5,144.5,0.5,95,120.0
1198,B-2,144.5,0.375,79,120.0
1199,B-1,144.75,0.25,95,120.0
1200,D4,144.75,0.25,95,120.0
1201,G1,145.0,0.75,95,120.0
1202,C#4,145.0,0.75,95,120.0
1203,C#2,145.0,0.25,71,120.0
1204,F#2,145.0,0.25,71,120.0
1205,B-2,145.5,0.375,79,120.0
1206,F1,145.75,0.25,95,120.0
1207,D4,145.75,0.25,95,120.0
1208,F1,146.0,0.5,95,120.0
1209,C#4,146.0,0.5,95,120.0
1210,C#2,146.0,0.25,71,120.0
1211,F#2,146.0,0.25,71,120.0
1212,F1,146.5,0.5,95,120.0
1213,E4,146.5,0.5,95,120.0
1214,B-2,146.5,0.25,63,120.0
1215,C#2,147.0,0.25,71,120.0
1216,F#2,147.0,0.25,71,120.0
1217,F1,147.25,0.25,95,120.0
1218,C#4,147.25,0.25,95,120.0
1219,G1,147.5,0.25,95,120.0
1220,E4,147.5,0.25,95,120.0
1221,B-2,147.5,0.5,95,120.0
1222,F1,147.75,0.25,95,120.0
1223,C#4,147.75,0.25,95,120.0
1224,B-1,148.0,0.75,95,120.0
1225,C#4,148.0,0.75,95,120.0
1226,C#2,148.0,0.25,79,120.0
1227,F#2,148.0,0.25,79,120.0
1228,B-2,148.5,0.375,79,120.0
1229,B-1,148.75,0.25,95,120.0
1230,D4,148.75,0.25,95,120.0
1231,G1,149.0,0.75,95,120.0
1232,C#4,149.0,0.75,95,120.0
1233,C#2,149.0,0.25,71,120.0
1234,F#2,149.0,0.25,71,120.0
1235,B-2,149.5,0.375,79,120.0
1236,F1,149.75,0.25,95,120.0
1237,D4,149.75,0.25,95,120.0
1238,F1,150.0,0.5,95,120.0
1239,C#4,150.0,0.5,95,120.0
1240,C#2,150.0,0.25,71,120.0
1241,F#2,150.0,0.25,71,120.0
1242,F1,150.5,0.5,95,120.0
1243,E4,150.5,1.5,95,120.0
1244,B-2,150.5,0.25,63,120.0
1245,C#2,151.0,0.25,71,120.0
1246,F#2,151.0,0.25,71,120.0
1247,F1,151.25,0.25,95,120.0
1248,G1,151.5,0.25,95,120.0
1249,B-2,151.5,0.5,95,120.0
1250,F1,151.75,0.25,95,120.0
1251,B-1,152.0,0.75,95,120.0
1252,C#4,152.0,0.75,95,120.0
1253,C#2,152.0,0.25,79,120.0
1254,F#2,152.0,0.25,79,120.0
1255,B-2,152.5,0.375,79,120.0
1256,B-1,152.75,0.25,95,120.0
1257,D4,152.75,0.25,95,120.0
1258,G1,153.0,0.75,95,120.0
1259,C#4,153.0,0.75,95,120.0
1260,C#2,153.0,0.25,71,120.0
1261,F#2,153.0,0.25,71,120.0
1262,B-2,153.5,0.375,79,120.0
1263,F1,153.75,0.25,95,120.0
1264,D4,153.75,0.25,95,120.0
1265,F1,154.0,0.5,95,120.0
1266,C#4,154.0,0.5,95,120.0
1267,C#2,154.0,0.25,71,120.0
1268,F#2,154.0,0.25,71,120.0
1269,F1,154.5,0.5,95,120.0
1270,E4,154.5,0.5,95,120.0
1271,B-2,154.5,0.25,63,120.0
1272,C#2,155.0,0.25,71,120.0
1273,F#2,155.0,0.25,71,120.0
1274,F1,155.25,0.25,95,120.0
1275,C#4,155.25,0.25,95,120.0
1276,G1,155.5,0.25,95,120.0
1277,E4,155.5,0.25,95,120.0
1278,B-2,155.5,0.5,95,120.0
1279,F1,155.75,0.25,95,120.0
1280,C#4,155.75,0.25,95,120.0
1281,D5,156.0,0.25,95,120.0
1282,B-1,156.0,0.75,95,120.0
1283,C#4,156.0,0.75,95,120.0
1284,C#2,156.0,0.25,79,120.0
1285,F#2,156.0,0.25,79,120.0
1286,F5,156.25,0.25,95,120.0
1287,F5,156.5,0.5,95,120.0
1288,B-2,156.5,0.375,79,120.0
1289,B-1,156.75,0.25,95,120.0
1290,D4,156.75,0.25,95,120.0
1291,G1,157.0,0.75,95,120.0
1292,C#4,157.0,0.75,95,120.0
1293,C#2,157.0,0.25,71,120.0
1294,F#2,157.0,0.25,71,120.0
1295,B-2,157.5,0.375,79,120.0
1296,F1,157.75,0.25,95,120.0
1297,D4,157.75,0.25,95,120.0
1298,F1,158.0,0.5,95,120.0
1299,C#4,158.0,0.5,95,120.0
1300,C#2,158.0,0.25,71,120.0
1301,F#2,158.0,0.25,71,120.0
1302,F1,158.5,0.5,95,120.0
1303,E4,158.5,1.5,95,120.0
1304,B-2,158.5,0.25,63,120.0
1305,D5,159.0,0.25,95,120.0
1306,C#2,159.0,0.25,71,120.0
1307,F#2,159.0,0.25,71,120.0
1308,C5,159.25,0.25,95,120.0
1309,F1,159.25,0.25,95,120.0
1310,B-4,159.5,0.5,95,120.0
1311,G1,159.5,0.25,95,120.0
1312,B-2,159.5,0.5,95,120.0
1313,F1,159.75,0.25,95,120.0
1314,D5,160.0,0.25,95,120.0
1315,B-1,160.0,0.75,95,120.0
1316,C#4,160.0,0.75,95,120.0
1317,C#2,160.0,0.25,79,120.0
1318,F#2,160.0,0.25,79,120.0
1319,G5,160.25,0.25,95,120.0
1320,F5,160.5,0.5,95,120.0
1321,B-2,160.5,0.375,79,120.0
1322,B-1,160.75,0.25,95,120.0
1323,D4,160.75,0.25,95,120.0
1324,G1,161.0,0.75,95,120.0
1325,C#4,161.0,0.75,95,120.0
1326,C#2,161.0,0.25,71,120.0
1327,F#2,161.0,0.25,71,120.0
1328,B-2,161.5,0.375,79,120.0
1329,F1,161.75,0.25,95,120.0
1330,D4,161.75,0.25,95,120.0
1331,F1,162.0,0.5,95,120.0
1332,C#4,162.0,0.5,95,120.0
1333,C#2,162.0,0.25,71,120.0
1334,F#2,162.0,0.25,71,120.0
1335,F1,162.5,0.5,95,120.0
1336,E4,162.5,0.5,95,120.0
1337,B-2,162.5,0.25,63,120.0
1338,C#2,163.0,0.25,71,120.0
1339,F#2,163.0,0.25,71,120.0
1340,F1,163.25,0.25,95,120.0
1341,C#4,163.25,0.25,95,120.0
1342,G1,163.5,0.25,95,120.0
1343,E4,163.5,0.25,95,120.0
1344,B-2,163.5,0.5,95,120.0
1345,F1,163.75,0.25,95,120.0
1346,C#4,163.75,0.25,95,120.0
1347,B-1,164.0,0.75,95,120.0
1348,C#4,164.0,0.75,95,120.0
1349,C#2,164.0,0.25,79,120.0
1350,F#2,164.0,0.25,79,120.0
1351,B-2,164.5,0.375,79,120.0
1352,B-1,164.75,0.25,95,120.0
1353,D4,164.75,0.25,95,120.0
1354,G1,165.0,0.75,95,120.0
1355,C#4,165.0,0.75,95,120.0
1356,C#2,165.0,0.25,71,120.0
1357,F#2,165.0,0.25,71,120.0
1358,G5,165.25,0.25,95,120.0
1359,B-5,165.5,0.25,95,120.0
1360,B-2,165.5,0.375,79,120.0
1361,G5,165.75,0.25,95,120.0
1362,F1,165.75,0.25,95,120.0
1363,D4,165.75,0.25,95,120.0
1364,F5,166.0,0.25,95,120.0
1365,F1,166.0,0.5,95,120.0
1366,C#4,166.0,0.5,95,120.0
1367,C#2,166.0,0.25,71,120.0
1368,F#2,166.0,0.25,71,120.0
1369,D5,166.25,0.25,95,120.0
1370,F5,166.5,0.25,95,120.0
1371,F1,166.5,0.5,95,120.0
1372,E4,166.5,1.5,95,120.0
1373,B-2,166.5,0.25,63,120.0
1374,G5,166.75,0.25,95,120.0
1375,B-5,167.0,0.5,95,120.0
1376,C#2,167.0,0.25,71,120.0
1377,F#2,167.0,0.25,71,120.0
1378,F1,167.25,0.25,95,120.0
1379,G5,167.5,0.25,95,120.0
1380,G1,167.5,0.25,95,120.0
1381,B-2,167.5,0.5,95,120.0
1382,F5,167.75,0.25,95,120.0
1383,F1,167.75,0.25,95,120.0
1384,D5,168.0,0.75,95,120.0
1385,B-1,168.0,0.75,95,120.0
1386,C#4,168.0,0.75,95,120.0
1387,C#2,168.0,0.25,79,120.0
1388,F#2,168.0,0.25,79,120.0
1389,B-2,168.5,0.375,79,120.0
1390,F5,168.75,0.25,95,120.0
1391,B-1,168.75,0.25,95,120.0
1392,D4,168.75,0.25,95,120.0
1393,F5,169.0,1.0,95,120.0
1394,G1,169.0,0.75,95,120.0
1395,C#4,169.0,0.75,95,120.0
1396,C#2,169.0,0.25,71,120.0
1397,F#2,169.0,0.25,71,120.0
1398,B-2,169.5,0.375,79,120.0
1399,F1,169.75,0.25,95,120.0
1400,D4,169.75,0.25,95,120.0
1401,F1,170.0,0.5,95,120.0
1402,C#4,170.0,0.5,95,120.0
1403,C#2,170.0,0.25,71,120.0
1404,F#2,170.0,0.25,71,120.0
1405,F1,170.5,0.5,95,120.0
1406,E4,170.5,0.5,95,120.0
1407,B-2,170.5,0.25,63,120.0
1408,C#2,171.0,0.25,71,120.0
1409,F#2,171.0,0.25,71,120.0
1410,F1,171.25,0.25,95,120.0
1411,C#4,171.25,0.25,95,120.0
1412,G1,171.5,0.25,95,120.0
1413,E4,171.5,0.25,95,120.0
1414,B-2,171.5,0.5,95,120.0
1415,F1,171.75,0.25,95,120.0
1416,C#4,171.75,0.25,95,120.0
1417,B-1,172.0,0.75,95,120.0
1418,C#4,172.0,0.75,95,120.0
1419,C#2,172.0,0.25,79,120.0
1420,F#2,172.0,0.25,79,120.0
1421,B-2,172.5,0.375,79,120.0
1422,B-1,172.75,0.25,95,120.0
1423,D4,172.75,0.25,95,120.0
1424,G1,173.0,0.75,95,120.0
1425,C#4,173.0,0.75,95,120.0
1426,C#2,173.0,0.25,71,120.0
1427,F#2,173.0,0.25,71,120.0
1428,B-2,173.5,0.375,79,120.0
1429,F1,173.75,0.25,95,120.0
1430,D4,173.75,0.25,95,120.0
1431,F1,174.0,0.5,95,120.0
1432,C#4,174.0,0.5,95,120.0
1433,C#2,174.0,0.25,71,120.0
1434,F#2,174.0,0.25,71,120.0
1435,F1,174.5,0.5,95,120.0
1436,E4,174.5,1.5,95,120.0
1437,B-2,174.5,0.25,63,120.0
1438,C#2,175.0,0.25,71,120.0
1439,F#2,175.0,0.25,71,120.0
1440,G5,175.25,0.25,95,120.0
1441,F1,175.25,0.25,95,120.0
1442,F5,175.5,0.25,95,120.0
1443,G1,175.5,0.25,95,120.0
1444,B-2,175.5,0.5,95,120.0
1445,D5,175.75,0.25,95,120.0
1446,F1,175.75,0.25,95,120.0
1447,G5,176.0,1.0,95,120.0
1448,B-1,176.0,0.75,95,120.0
1449,C#4,176.0,0.75,95,120.0
1450,C#2,176.0,0.25,79,120.0
1451,F#2,176.0,0.25,79,120.0
1452,B-2,176.5,0.375,79,120.0
1453,B-1,176.75,0.25,95,120.0
1454,D4,176.75,0.25,95,120.0
1455,G1,177.0,0.75,95,120.0
1456,C#4,177.0,0.75,95,120.0
1457,C#2,177.0,0.25,71,120.0
1458,F#2,177.0,0.25,71,120.0
1459,B-2,177.5,0.375,79,120.0
1460,F1,177.75,0.25,95,120.0
1461,D4,177.75,0.25,95,120.0
1462,F1,178.0,0.5,95,120.0
1463,C#4,178.0,0.5,95,120.0
1464,C#2,178.0,0.25,71,120.0
1465,F#2,178.0,0.25,71,120.0
1466,F1,178.5,0.5,95,120.0
1467,E4,178.5,0.5,95,120.0
1468,B-2,178.5,0.25,63,120.0
1469,C#2,179.0,0.25,71,120.0
1470,F#2,179.0,0.25,71,120.0
1471,G5,179.25,0.25,95,120.0
1472,F1,179.25,0.25,95,120.0
1473,C#4,179.25,0.25,95,120.0
1474,B-5,179.5,0.25,95,120.0
1475,G1,179.5,0.25,95,120.0
1476,E4,179.5,0.25,95,120.0
1477,B-2,179.5,0.5,95,120.0
1478,G5,179.75,0.25,95,120.0
1479,F1,179.75,0.25,95,120.0
1480,C#4,179.75,0.25,95,120.0
1481,F5,180.0,0.75,95,120.0
1482,B-1,180.0,0.75,95,120.0
1483,C#4,180.0,0.75,95,120.0
1484,C#2,180.0,0.25,79,120.0
1485,F#2,180.0,0.25,79,120.0
1486,B-2,180.5,0.375,79,120.0
1487,D5,180.75,0.25,95,120.0
1488,B-1,180.75,0.25,95,120.0
1489,D4,180.75,0.25,95,120.0
1490,F5,181.0,0.25,95,120.0
1491,G1,181.0,0.75,95,120.0
1492,C#4,181.0,0.75,95,120.0
1493,C#2,181.0,0.25,71,120.0
1494,F#2,181.0,0.25,71,120.0
1495,G5,181.25,0.25,95,120.0
1496,B-5,181.5,0.5,95,120.0
1497,B-2,181.5,0.375,79,120.0
1498,F1,181.75,0.25,95,120.0
1499,D4,181.75,0.25,95,120.0
1500,F1,182.0,0.5,95,120.0
1501,C#4,182.0,0.5,95,120.0
1502,C#2,182.0,0.25,71,120.0
1503,F#2,182.0,0.25,71,120.0
1504,F1,182.5,0.5,95,120.0
1505,E4,182.5,1.5,95,120.0
1506,B-2,182.5,0.25,63,120.0
1507,C#2,183.0,0.25,71,120.0
1508,F#2,183.0,0.25,71,120.0
1509,F1,183.25,0.25,95,120.0
1510,G1,183.5,0.25,95,120.0
1511,B-2,183.5,0.5,95,120.0
1512,F1,183.75,0.25,95,120.0
1513,B-1,184.0,0.75,95,120.0
1514,C#4,184.0,0.75,95,120.0
1515,C#2,184.0,0.25,79,120.0
1516,F#2,184.0,0.25,79,120.0
1517,B-2,184.5,0.375,79,120.0
1518,B-1,184.75,0.25,95,120.0
1519,D4,184.75,0.25,95,120.0
1520,G1,185.0,0.75,95,120.0
1521,C#4,185.0,0.75,95,120.0
1522,C#2,185.0,0.25,71,120.0
1523,F#2,185.0,0.25,71,120.0
1524,B-2,185.5,0.375,79,120.0
1525,F1,185.75,0.25,95,120.0
1526,D4,185.75,0.25,95,120.0
1527,F1,186.0,0.5,95,120.0
1528,C#4,186.0,0.5,95,120.0
1529,C#2,186.0,0.25,71,120.0
1530,F#2,186.0,0.25,71,120.0
1531,F1,186.5,0.5,95,120.0
1532,E4,186.5,0.5,95,120.0
1533,B-2,186.5,0.25,63,120.0
1534,C#2,187.0,0.25,71,120.0
1535,F#2,187.0,0.25,71,120.0
1536,F1,187.25,0.25,95,120.0
1537,C#4,187.25,0.25,95,120.0
1538,G1,187.5,0.25,95,120.0
1539,E4,187.5,0.25,95,120.0
1540,B-2,187.5,0.5,95,120.0
1541,F1,187.75,0.25,95,120.0
1542,C#4,187.75,0.25,95,120.0
1543,D5,188.0,0.5,95,120.0
1544,B-1,188.0,0.75,95,120.0
1545,C#4,188.0,0.75,95,120.0
1546,C#2,188.0,0.25,79,120.0
1547,F#2,188.0,0.25,79,120.0
1548,F5,188.5,0.25,95,120.0
1549,B-2,188.5,0.375,79,120.0
1550,D5,188.75,0.25,95,120.0
1551,B-1,188.75,0.25,95,120.0
1552,D4,188.75,0.25,95,120.0
1553,C5,189.0,0.5,95,120.0
1554,G1,189.0,0.75,95,120.0
1555,C#4,189.0,0.75,95,120.0
1556,C#2,189.0,0.25,71,120.0
1557,F#2,189.0,0.25,71,120.0
1558,B-4,189.5,0.25,95,120.0
1559,B-2,189.5,0.375,79,120.0
1560,G4,189.75,0.25,95,120.0
1561,F1,189.75,0.25,95,120.0
1562,D4,189.75,0.25,95,120.0
1563,F4,190.0,0.25,95,120.0
1564,F1,190.0,0.5,95,120.0
1565,C#4,190.0,0.5,95,120.0
1566,C#2,190.0,0.25,71,120.0
1567,F#2,190.0,0.25,71,120.0
1568,B-4,190.25,0.25,95,120.0
1569,G4,190.5,0.25,95,120.0
1570,F1,190.5,0.5,95,120.0
1571,E4,190.5,1.5,95,120.0
1572,B-2,190.5,0.25,63,120.0
1573,D4,190.75,0.5,95,120.0
1574,C#2,191.0,0.25,71,120.0
1575,F#2,191.0,0.25,71,120.0
1576,F4,191.25,0.25,95,120.0
1577,F1,191.25,0.25,95,120.0
1578,G4,191.5,0.25,95,120.0
1579,G1,191.5,0.25,95,120.0
1580,B-2,191.5,0.5,95,120.0
1581,D4,191.75,0.25,95,120.0
1582,F1,191.75,0.25,95,120.0
1583,F4,192.0,0.5,95,120.0
1584,B-1,192.0,0.75,95,120.0
1585,C#4,192.0,0.75,95,120.0
1586,C#2,192.0,0.25,79,120.0
1587,F#2,192.0,0.25,79,120.0
1588,G4,192.5,0.25,95,120.0
1589,B-2,192.5,0.375,79,120.0
1590,B-4,192.75,0.25,95,120.0
1591,B-1,192.75,0.25,95,120.0
1592,D4,192.75,0.25,95,120.0
1593,C5,193.0,0.25,95,120.0
1594,G1,193.0,0.75,95,120.0
1595,C#4,193.0,0.75,95,120.0
1596,C#2,193.0,0.25,71,120.0
1597,F#2,193.0,0.25,71,120.0
1598,G4,193.25,0.25,95,120.0
1599,B-4,193.5,0.25,95,120.0
1600,B-2,193.5,0.375,79,120.0
1601,D5,193.75,0.25,95,120.0
1602,F1,193.75,0.25,95,120.0
1603,D4,193.75,0.25,95,120.0
1604,F1,194.0,0.5,95,120.0
1605,C#4,194.0,0.5,95,120.0
1606,C#2,194.0,0.25,71,120.0
1607,F#2,194.0,0.25,71,120.0
1608,C5,194.25,0.25,95,120.0
1609,D5,194.5,1.5,95,120.0
1610,F1,194.5,0.5,95,120.0
1611,E4,194.5,0.5,95,120.0
1612,B-2,194.5,0.25,63,120.0
1613,C#2,195.0,0.25,71,120.0
1614,F#2,195.0,0.25,71,120.0
1615,F1,195.25,0.25,95,120.0
1616,C#4,195.25,0.25,95,120.0
1617,G1,195.5,0.25,95,120.0
1618,E4,195.5,0.25,95,120.0
1619,B-2,195.5,0.5,95,120.0
1620,F1,195.75,0.25,95,120.0
1621,C#4,195.75,0.25,95,120.0
1622,D5,196.0,1.0,95,120.0
1623,B-1,196.0,0.75,95,120.0
1624,C#4,196.0,0.75,95,120.0
1625,C#2,196.0,0.25,79,120.0
1626,F#2,196.0,0.25,79,120.0
1627,B-2,196.5,0.375,79,120.0
1628,B-1,196.75,0.25,95,120.0
1629,D4,196.75,0.25,95,120.0
1630,G1,197.0,0.75,95,120.0
1631,C#4,197.0,0.75,95,120.0
1632,C#2,197.0,0.25,71,120.0
1633,F#2,197.0,0.25,71,120.0
1634,B-2,197.5,0.375,79,120.0
1635,F1,197.75,0.25,95,120.0
1636,D4,197.75,0.25,95,120.0
1637,F1,198.0,0.5,95,120.0
1638,C#4,198.0,0.5,95,120.0
1639,C#2,198.0,0.25,71,120.0
1640,F#2,198.0,0.25,71,120.0
1641,B-5,198.25,0.25,95,120.0
1642,G5,198.5,0.25,95,120.0
1643,F1,198.5,0.5,95,120.0
1644,E4,198.5,1.5,95,120.0
1645,B-2,198.5,0.25,63,120.0
1646,F5,198.75,0.25,95,120.0
1647,C#2,199.0,0.25,71,120.0
1648,F#2,199.0,0.25,71,120.0
1649,F1,199.25,0.25,95,120.0
1650,G1,199.5,0.25,95,120.0
1651,B-2,199.5,0.5,95,120.0
1652,F1,199.75,0.25,95,120.0
1653,B-5,200.0,1.0,95,120.0
1654,B-1,200.0,0.75,95,120.0
1655,C#4,200.0,0.75,95,120.0
1656,C#2,200.0,0.25,79,120.0
1657,F#2,200.0,0.25,79,120.0
1658,B-2,200.5,0.375,79,120.0
1659,B-1,200.75,0.25,95,120.0
1660,D4,200.75,0.25,95,120.0
1661,G5,201.0,1.0,95,120.0
1662,G1,201.0,0.75,95,120.0
1663,C#4,201.0,0.75,95,120.0
1664,C#2,201.0,0.25,71,120.0
1665,F#2,201.0,0.25,71,120.0
1666,B-2,201.5,0.375,79,120.0
1667,F1,201.75,0.25,95,120.0
1668,D4,201.75,0.25,95,120.0
1669,F1,202.0,0.5,95,120.0
1670,C#4,202.0,0.5,95,120.0
1671,C#2,202.0,0.25,71,120.0
1672,F#2,202.0,0.25,71,120.0
1673,F1,202.5,0.5,95,120.0
1674,E4,202.5,0.5,95,120.0
1675,B-2,202.5,0.25,63,120.0
1676,C#2,203.0,0.25,71,120.0
1677,F#2,203.0,0.25,71,120.0
1678,F1,203.25,0.25,95,120.0
1679,C#4,203.25,0.25,95,120.0
1680,G1,203.5,0.25,95,120.0
1681,E4,203.5,0.25,95,120.0
1682,B-2,203.5,0.5,95,120.0
1683,F1,203.75,0.25,95,120.0
1684,C#4,203.75,0.25,95,120.0
1685,D5,204.0,0.5,95,120.0
1686,B-1,204.0,0.75,95,120.0
1687,C#4,204.0,0.75,95,120.0
1688,C#2,204.0,0.25,79,120.0
1689,F#2,204.0,0.25,79,120.0
1690,F5,204.5,0.25,95,120.0
1691,B-2,204.5,0.375,79,120.0
1692,D5,204.75,0.25,95,120.0
1693,B-1,204.75,0.25,95,120.0
1694,D4,204.75,0.25,95,120.0
1695,C5,205.0,0.5,95,120.0
1696,G1,205.0,0.75,95,120.0
1697,C#4,205.0,0.75,95,120.0
1698,C#2,205.0,0.25,71,120.0
1699,F#2,205.0,0.25,71,120.0
1700,B-4,205.5,0.25,95,120.0
1701,B-2,205.5,0.375,79,120.0
1702,G4,205.75,0.25,95,120.0
1703,F1,205.75,0.25,95,120.0
1704,D4,205.75,0.25,95,120.0
1705,F4,206.0,0.25,95,120.0
1706,F1,206.0,0.5,95,120.0
1707,C#4,206.0,0.5,95,120.0
1708,C#2,206.0,0.25,71,120.0
1709,F#2,206.0,0.25,71,120.0
1710,B-4,206.25,0.25,95,120.0
1711,G4,206.5,0.25,95,120.0
1712,F1,206.5,0.5,95,120.0
1713,E4,206.5,1.5,95,120.0
1714,B-2,206.5,0.25,63,120.0
1715,D4,206.75,0.25,95,120.0
1716,F4,207.0,0.75,95,120.0
1717,C#2,207.0,0.25,71,120.0
1718,F#2,207.0,0.25,71,120.0
1719,F1,207.25,0.25,95,120.0
1720,G1,207.5,0.25,95,120.0
1721,B-2,207.5,0.5,95,120.0
1722,G4,207.75,0.25,95,120.0
1723,F1,207.75,0.25,95,120.0
1724,B-1,208.0,0.75,95,120.0
1725,C#4,208.0,0.75,95,120.0
1726,C#2,208.0,0.25,79,120.0
1727,F#2,208.0,0.25,79,120.0
1728,D4,208.25,0.25,95,120.0
1729,G4,208.5,0.25,95,120.0
1730,B-2,208.5,0.375,79,120.0
1731,F4,208.75,0.25,95,120.0
1732,B-1,208.75,0.25,95,120.0
1733,D4,208.75,0.25,95,120.0
1734,B-4,209.0,0.5,95,120.0
1735,G1,209.0,0.75,95,120.0
1736,C#4,209.0,0.75,95,120.0
1737,C#2,209.0,0.25,71,120.0
1738,F#2,209.0,0.25,71,120.0
1739,G4,209.5,0.25,95,120.0
1740,B-2,209.5,0.375,79,120.0
1741,D4,209.75,0.25,95,120.0
1742,F1,209.75,0.25,95,120.0
1743,D4,209.75,0.25,95,120.0
1744,G4,210.0,0.25,95,120.0
1745,F1,210.0,0.5,95,120.0
1746,C#4,210.0,0.5,95,120.0
1747,C#2,210.0,0.25,71,120.0
1748,F#2,210.0,0.25,71,120.0
1749,F4,210.25,0.25,95,120.0
1750,B-4,210.5,0.25,95,120.0
1751,F1,210.5,0.5,95,120.0
1752,E4,210.5,0.5,95,120.0
1753,B-2,210.5,0.25,63,120.0
1754,G4,210.75,0.25,95,120.0
1755,C5,211.0,0.75,95,120.0
1756,C#2,211.0,0.25,71,120.0
1757,F#2,211.0,0.25,71,120.0
1758,F1,211.25,0.25,95,120.0
1759,C#4,211.25,0.25,95,120.0
1760,G1,211.5,0.25,95,120.0
1761,E4,211.5,0.25,95,120.0
1762,B-2,211.5,0.5,95,120.0
1763,D5,211.75,0.25,95,120.0
1764,F1,211.75,0.25,95,120.0
1765,C#4,211.75,0.25,95,120.0
1766,B-4,212.0,4.0,95,120.0
1767,B-1,212.0,0.75,95,120.0
1768,C#4,212.0,0.75,95,120.0
1769,C#2,212.0,0.25,79,120.0
1770,F#2,212.0,0.25,79,120.0
1771,B-2,212.5,0.375,79,120.0
1772,B-1,212.75,0.25,95,120.0
1773,D4,212.75,0.25,95,120.0
1774,G1,213.0,0.75,95,120.0
1775,C#4,213.0,0.75,95,120.0
1776,C#2,213.0,0.25,71,120.0
1777,F#2,213.0,0.25,71,120.0
1778,B-2,213.5,0.375,79,120.0
1779,F1,213.75,0.25,95,120.0
1780,D4,213.75,0.25,95,120.0
1781,F1,214.0,0.5,95,120.0
1782,C#4,214.0,0.5,95,120.0
1783,C#2,214.0,0.25,71,120.0
1784,F#2,214.0,0.25,71,120.0
1785,F1,214.5,0.5,95,120.0
1786,E4,214.5,1.5,95,120.0
1787,B-2,214.5,0.25,63,120.0
1788,C#2,215.0,0.25,71,120.0
1789,F#2,215.0,0.25,71,120.0
1790,F1,215.25,0.25,95,120.0
1791,G1,215.5,0.25,95,120.0
1792,B-2,215.5,0.5,95,120.0
1793,F1,215.75,0.25,95,120.0
1794,B-4,216.0,4.0,95,120.0
1795,B-1,216.0,0.75,95,120.0
1796,C#4,216.0,0.75,95,120.0
1797,C#2,216.0,0.25,79,120.0
1798,F#2,216.0,0.25,79,120.0
1799,B-2,216.5,0.375,79,120.0
1800,B-1,216.75,0.25,95,120.0
1801,D4,216.75,0.25,95,120.0
1802,G1,217.0,0.75,95,120.0
1803,C#4,217.0,0.75,95,120.0
1804,C#2,217.0,0.25,71,120.0
1805,F#2,217.0,0.25,71,120.0
1806,B-2,217.5,0.375,79,120.0
1807,F1,217.75,0.25,95,120.0
1808,D4,217.75,0.25,95,120.0
1809,F1,218.0,0.5,95,120.0
1810,C#4,218.0,0.5,95,120.0
1811,C#2,218.0,0.25,71,120.0
1812,F#2,218.0,0.25,71,120.0
1813,F1,218.5,0.5,95,120.0
1814,E4,218.5,1.5,95,120.0
1815,B-2,218.5,0.25,63,120.0
1816,C#2,219.0,0.25,71,120.0
1817,F#2,219.0,0.25,71,120.0
1818,F1,219.25,0.25,95,120.0
1819,G1,219.5,0.25,95,120.0
1820,B-2,219.5,0.5,95,120.0
1821,F1,219.75,0.25,95,120.0
