,note_name,start_time,duration,velocity,tempo
0,G1,2.0,0.25,95,108.0
1,G#2,2.0,0.25,74,108.0
2,B1,2.0,0.25,74,108.0
3,E-5,2.0,0.25,74,108.0
4,A1,2.25,0.25,95,108.0
5,G#2,2.25,0.25,63,108.0
6,E-5,2.25,0.25,63,108.0
7,A1,2.5,0.25,95,108.0
8,G#2,2.5,0.25,74,108.0
9,B1,2.5,0.25,74,108.0
10,E-3,2.5,0.25,74,108.0
11,G1,2.75,0.25,95,108.0
12,G#2,2.75,0.25,63,108.0
13,A1,3.0,0.5,95,108.0
14,G#2,3.0,0.25,74,108.0
15,D2,3.0,0.25,74,108.0
16,E-5,3.0,0.25,74,108.0
17,G#2,3.25,0.25,63,108.0
18,E-3,3.25,0.25,63,108.0
19,G1,3.5,0.25,95,108.0
20,G#2,3.5,0.25,79,108.0
21,B1,3.5,0.25,79,108.0
22,A1,3.75,0.25,95,108.0
23,G#2,3.75,0.25,63,108.0
24,E-5,3.75,0.25,63,108.0
25,G1,4.0,0.25,95,108.0
26,G#2,4.0,0.25,63,108.0
27,E-3,4.0,0.25,63,108.0
28,A1,4.25,0.25,95,108.0
29,G#2,4.25,0.25,79,108.0
30,B1,4.25,0.25,79,108.0
31,A1,4.5,0.25,95,108.0
32,G#2,4.5,0.25,79,108.0
33,B1,4.5,0.25,79,108.0
34,G1,4.75,0.25,95,108.0
35,G#2,4.75,0.25,63,108.0
36,E-5,4.75,0.25,63,108.0
37,A1,5.0,0.5,95,108.0
38,G#2,5.0,0.25,74,108.0
39,D2,5.0,0.25,74,108.0
40,E-3,5.0,0.25,74,108.0
41,G#2,5.25,0.25,63,108.0
42,G1,5.5,0.25,95,108.0
43,G#2,5.5,0.25,74,108.0
44,B1,5.5,0.25,74,108.0
45,E-5,5.5,0.25,74,108.0
46,A1,5.75,0.25,95,108.0
47,G#2,5.75,0.25,63,108.0
48,E-5,5.75,0.25,63,108.0
49,G1,6.0,0.25,95,108.0
50,G#2,6.0,0.25,74,108.0
51,B1,6.0,0.25,74,108.0
52,E-5,6.0,0.25,74,108.0
53,A1,6.25,0.25,95,108.0
54,G#2,6.25,0.25,63,108.0
55,E-5,6.25,0.25,63,108.0
56,A1,6.5,0.25,95,108.0
57,G#2,6.5,0.25,74,108.0
58,B1,6.5,0.25,74,108.0
59,E-3,6.5,0.25,74,108.0
60,G1,6.75,0.25,95,108.0
61,G#2,6.75,0.25,63,108.0
62,A1,7.0,0.5,95,108.0
63,G#2,7.0,0.25,74,108.0
64,D2,7.0,0.25,74,108.0
65,E-5,7.0,0.25,74,108.0
66,G#2,7.25,0.25,63,108.0
67,E-3,7.25,0.25,63,108.0
68,G1,7.5,0.25,95,108.0
69,G#2,7.5,0.25,79,108.0
70,B1,7.5,0.25,79,108.0
71,A1,7.75,0.25,95,108.0
72,G#2,7.75,0.25,63,108.0
73,E-5,7.75,0.25,63,108.0
74,G#2,8.0,0.25,63,108.0
75,E-3,8.0,0.25,63,108.0
76,G1,8.25,0.25,95,108.0
77,G#2,8.25,0.25,79,108.0
78,B1,8.25,0.25,79,108.0
79,G1,8.5,0.25,95,108.0
80,G#2,8.5,0.25,79,108.0
81,B1,8.5,0.25,79,108.0
82,A1,8.75,0.25,95,108.0
83,G#2,8.75,0.25,63,108.0
84,E-5,8.75,0.25,63,108.0
85,A1,9.0,0.5,95,108.0
86,G#2,9.0,0.25,74,108.0
87,D2,9.0,0.25,74,108.0
88,E-3,9.0,0.25,74,108.0
89,G#2,9.25,0.25,63,108.0
90,G1,9.5,0.25,95,108.0
91,G#2,9.5,0.25,74,108.0
92,B1,9.5,0.25,74,108.0
93,E-5,9.5,0.25,74,108.0
94,G1,9.75,0.25,95,108.0
95,G#2,9.75,0.25,63,108.0
96,E-5,9.75,0.25,63,108.0
97,A2,10.0,4.0,63,108.0
98,G1,10.0,0.25,95,108.0
99,G#2,10.0,0.25,74,108.0
100,B1,10.0,0.25,74,108.0
101,E-5,10.0,0.25,74,108.0
102,A1,10.25,0.25,95,108.0
103,G#2,10.25,0.25,63,108.0
104,E-5,10.25,0.25,63,108.0
105,A1,10.5,0.25,95,108.0
106,G#2,10.5,0.25,74,108.0
107,B1,10.5,0.25,74,108.0
108,E-3,10.5,0.25,74,108.0
109,G1,10.75,0.25,95,108.0
110,G#2,10.75,0.25,63,108.0
111,A1,11.0,0.5,95,108.0
112,G#2,11.0,0.25,74,108.0
113,D2,11.0,0.25,74,108.0
114,E-5,11.0,0.25,74,108.0
115,G#2,11.25,0.25,63,108.0
116,E-3,11.25,0.25,63,108.0
117,G1,11.5,0.25,95,108.0
118,G#2,11.5,0.25,79,108.0
119,B1,11.5,0.25,79,108.0
120,A1,11.75,0.25,95,108.0
121,G#2,11.75,0.25,63,108.0
122,E-5,11.75,0.25,63,108.0
123,G#2,12.0,0.25,63,108.0
124,E-3,12.0,0.25,63,108.0
125,G#2,12.25,0.25,79,108.0
126,B1,12.25,0.25,79,108.0
127,G1,12.5,0.5,95,108.0
128,G#2,12.5,0.25,79,108.0
129,B1,12.5,0.25,79,108.0
130,G#2,12.75,0.25,63,108.0
131,E-5,12.75,0.25,63,108.0
132,G1,13.0,0.5,95,108.0
133,G#2,13.0,0.25,74,108.0
134,D2,13.0,0.25,74,108.0
135,E-3,13.0,0.25,74,108.0
136,G#2,13.25,0.25,63,108.0
137,A1,13.5,0.5,95,108.0
138,G#2,13.5,0.25,74,108.0
139,B1,13.5,0.25,74,108.0
140,E-5,13.5,0.25,74,108.0
141,G#2,13.75,0.25,63,108.0
142,E-5,13.75,0.25,63,108.0
143,G5,14.0,4.0,47,108.0
144,E4,14.0,4.0,63,108.0
145,A2,14.0,4.0,63,108.0
146,G1,14.0,0.25,95,108.0
147,G#2,14.0,0.25,74,108.0
148,B1,14.0,0.25,74,108.0
149,E-5,14.0,0.25,74,108.0
150,G1,14.25,0.25,95,108.0
151,G#2,14.25,0.25,63,108.0
152,E-5,14.25,0.25,63,108.0
153,A1,14.5,0.25,95,108.0
154,G#2,14.5,0.25,74,108.0
155,B1,14.5,0.25,74,108.0
156,E-3,14.5,0.25,74,108.0
157,G1,14.75,0.25,95,108.0
158,G#2,14.75,0.25,63,108.0
159,A1,15.0,0.5,95,108.0
160,G#2,15.0,0.25,74,108.0
161,D2,15.0,0.25,74,108.0
162,E-5,15.0,0.25,74,108.0
163,G#2,15.25,0.25,63,108.0
164,E-3,15.25,0.25,63,108.0
165,G1,15.5,0.25,95,108.0
166,G#2,15.5,0.25,79,108.0
167,B1,15.5,0.25,79,108.0
168,A1,15.75,0.25,95,108.0
169,G#2,15.75,0.25,63,108.0
170,E-5,15.75,0.25,63,108.0
171,G#2,16.0,0.25,63,108.0
172,E-3,16.0,0.25,63,108.0
173,G#2,16.25,0.25,79,108.0
174,B1,16.25,0.25,79,108.0
175,G1,16.5,0.5,95,108.0
176,G#2,16.5,0.25,79,108.0
177,B1,16.5,0.25,79,108.0
178,G#2,16.75,0.25,63,108.0
179,E-5,16.75,0.25,63,108.0
180,G1,17.0,0.5,95,108.0
181,G#2,17.0,0.25,74,108.0
182,D2,17.0,0.25,74,108.0
183,E-3,17.0,0.25,74,108.0
184,G#2,17.25,0.25,63,108.0
185,A1,17.5,0.5,95,108.0
186,G#2,17.5,0.25,74,108.0
187,B1,17.5,0.25,74,108.0
188,E-5,17.5,0.25,74,108.0
189,G#2,17.75,0.25,63,108.0
190,E-5,17.75,0.25,63,108.0
191,G5,18.0,4.0,47,108.0
192,G4,18.0,4.0,63,108.0
193,E4,18.0,4.0,63,108.0
194,A2,18.0,4.0,63,108.0
195,G1,18.0,0.25,95,108.0
196,G#2,18.0,0.25,74,108.0
197,B1,18.0,0.25,74,108.0
198,E-5,18.0,0.25,74,108.0
199,A1,18.25,0.25,95,108.0
200,G#2,18.25,0.25,63,108.0
201,E-5,18.25,0.25,63,108.0
202,A1,18.5,0.25,95,108.0
203,G#2,18.5,0.25,74,108.0
204,B1,18.5,0.25,74,108.0
205,E-3,18.5,0.25,74,108.0
206,G1,18.75,0.25,95,108.0
207,G#2,18.75,0.25,63,108.0
208,A1,19.0,0.5,95,108.0
209,G#2,19.0,0.25,74,108.0
210,D2,19.0,0.25,74,108.0
211,E-5,19.0,0.25,74,108.0
212,G#2,19.25,0.25,63,108.0
213,E-3,19.25,0.25,63,108.0
214,G1,19.5,0.25,95,108.0
215,G#2,19.5,0.25,79,108.0
216,B1,19.5,0.25,79,108.0
217,A1,19.75,0.25,95,108.0
218,G#2,19.75,0.25,63,108.0
219,E-5,19.75,0.25,63,108.0
220,G#2,20.0,0.25,63,108.0
221,E-3,20.0,0.25,63,108.0
222,G1,20.25,0.25,95,108.0
223,G#2,20.25,0.25,79,108.0
224,B1,20.25,0.25,79,108.0
225,G1,20.5,0.25,95,108.0
226,G#2,20.5,0.25,79,108.0
227,B1,20.5,0.25,79,108.0
228,A1,20.75,0.25,95,108.0
229,G#2,20.75,0.25,63,108.0
230,E-5,20.75,0.25,63,108.0
231,A1,21.0,0.5,95,108.0
232,G#2,21.0,0.25,74,108.0
233,D2,21.0,0.25,74,108.0
234,E-3,21.0,0.25,74,108.0
235,G#2,21.25,0.25,63,108.0
236,G1,21.5,0.25,95,108.0
237,G#2,21.5,0.25,74,108.0
238,B1,21.5,0.25,74,108.0
239,E-5,21.5,0.25,74,108.0
240,G1,21.75,0.25,95,108.0
241,G#2,21.75,0.25,63,108.0
242,E-5,21.75,0.25,63,108.0
243,G5,22.0,4.0,47,108.0
244,G4,22.0,4.0,63,108.0
245,E4,22.0,4.0,63,108.0
246,A2,22.0,4.0,63,108.0
247,G1,22.0,0.25,95,108.0
248,G#2,22.0,0.25,74,108.0
249,B1,22.0,0.25,74,108.0
250,E-5,22.0,0.25,74,108.0
251,A1,22.25,0.25,95,108.0
252,G#2,22.25,0.25,63,108.0
253,E-5,22.25,0.25,63,108.0
254,A1,22.5,0.25,95,108.0
255,G#2,22.5,0.25,74,108.0
256,B1,22.5,0.25,74,108.0
257,E-3,22.5,0.25,74,108.0
258,G1,22.75,0.25,95,108.0
259,G#2,22.75,0.25,63,108.0
260,A1,23.0,0.5,95,108.0
261,G#2,23.0,0.25,74,108.0
262,D2,23.0,0.25,74,108.0
263,E-5,23.0,0.25,74,108.0
264,G#2,23.25,0.25,63,108.0
265,E-3,23.25,0.25,63,108.0
266,G1,23.5,0.25,95,108.0
267,G#2,23.5,0.25,79,108.0
268,B1,23.5,0.25,79,108.0
269,A1,23.75,0.25,95,108.0
270,G#2,23.75,0.25,63,108.0
271,E-5,23.75,0.25,63,108.0
272,G#2,24.0,0.25,63,108.0
273,E-3,24.0,0.25,63,108.0
274,G#2,24.25,0.25,79,108.0
275,B1,24.25,0.25,79,108.0
276,G1,24.5,0.5,95,108.0
277,G#2,24.5,0.25,79,108.0
278,B1,24.5,0.25,79,108.0
279,G#2,24.75,0.25,63,108.0
280,E-5,24.75,0.25,63,108.0
281,G1,25.0,0.5,95,108.0
282,G#2,25.0,0.25,74,108.0
283,D2,25.0,0.25,74,108.0
284,E-3,25.0,0.25,74,108.0
285,G#2,25.25,0.25,63,108.0
286,A1,25.5,0.5,95,108.0
287,G#2,25.5,0.25,74,108.0
288,B1,25.5,0.25,74,108.0
289,E-5,25.5,0.25,74,108.0
290,G#2,25.75,0.25,63,108.0
291,E-5,25.75,0.25,63,108.0
292,G5,26.0,4.0,47,108.0
293,E4,26.0,4.0,63,108.0
294,A2,26.0,4.0,63,108.0
295,G1,26.0,0.25,95,108.0
296,G#2,26.0,0.25,74,108.0
297,B1,26.0,0.25,74,108.0
298,E-5,26.0,0.25,74,108.0
299,A1,26.25,0.25,95,108.0
300,G#2,26.25,0.25,63,108.0
301,E-5,26.25,0.25,63,108.0
302,A1,26.5,0.25,95,108.0
303,G#2,26.5,0.25,74,108.0
304,B1,26.5,0.25,74,108.0
305,E-3,26.5,0.25,74,108.0
306,G1,26.75,0.25,95,108.0
307,G#2,26.75,0.25,63,108.0
308,A1,27.0,0.5,95,108.0
309,G#2,27.0,0.25,74,108.0
310,D2,27.0,0.25,74,108.0
311,E-5,27.0,0.25,74,108.0
312,G#2,27.25,0.25,63,108.0
313,E-3,27.25,0.25,63,108.0
314,G1,27.5,0.25,95,108.0
315,G#2,27.5,0.25,79,108.0
316,B1,27.5,0.25,79,108.0
317,A1,27.75,0.25,95,108.0
318,G#2,27.75,0.25,63,108.0
319,E-5,27.75,0.25,63,108.0
320,G#2,28.0,0.25,63,108.0
321,E-3,28.0,0.25,63,108.0
322,G#2,28.25,0.25,79,108.0
323,B1,28.25,0.25,79,108.0
324,G1,28.5,0.5,95,108.0
325,G#2,28.5,0.25,79,108.0
326,B1,28.5,0.25,79,108.0
327,G#2,28.75,0.25,63,108.0
328,E-5,28.75,0.25,63,108.0
329,G1,29.0,0.5,95,108.0
330,G#2,29.0,0.25,74,108.0
331,D2,29.0,0.25,74,108.0
332,E-3,29.0,0.25,74,108.0
333,G#2,29.25,0.25,63,108.0
334,A1,29.5,0.5,95,108.0
335,G#2,29.5,0.25,74,108.0
336,B1,29.5,0.25,74,108.0
337,E-5,29.5,0.25,74,108.0
338,G#2,29.75,0.25,63,108.0
339,E-5,29.75,0.25,63,108.0
340,G5,30.0,4.0,47,108.0
341,E4,30.0,4.0,63,108.0
342,A2,30.0,4.0,63,108.0
343,G1,30.0,0.25,95,108.0
344,G#2,30.0,0.25,74,108.0
345,B1,30.0,0.25,74,108.0
346,E-5,30.0,0.25,74,108.0
347,A1,30.25,0.25,95,108.0
348,G#2,30.25,0.25,63,108.0
349,E-5,30.25,0.25,63,108.0
350,A1,30.5,0.25,95,108.0
351,G#2,30.5,0.25,74,108.0
352,B1,30.5,0.25,74,108.0
353,E-3,30.5,0.25,74,108.0
354,G1,30.75,0.25,95,108.0
355,G#2,30.75,0.25,63,108.0
356,A1,31.0,0.5,95,108.0
357,G#2,31.0,0.25,74,108.0
358,D2,31.0,0.25,74,108.0
359,E-5,31.0,0.25,74,108.0
360,G#2,31.25,0.25,63,108.0
361,E-3,31.25,0.25,63,108.0
362,G1,31.5,0.25,95,108.0
363,G#2,31.5,0.25,79,108.0
364,B1,31.5,0.25,79,108.0
365,D2,31.5,0.25,79,108.0
366,A1,31.75,0.25,95,108.0
367,G#2,31.75,0.25,63,108.0
368,E-5,31.75,0.25,63,108.0
369,G#2,32.0,0.25,68,108.0
370,D2,32.0,0.25,68,108.0
371,E-3,32.0,0.25,68,108.0
372,G#2,32.25,0.25,79,108.0
373,B1,32.25,0.25,79,108.0
374,D2,32.25,0.25,79,108.0
375,G1,32.5,0.5,95,108.0
376,G#2,32.5,0.25,79,108.0
377,B1,32.5,0.25,79,108.0
378,G#2,32.75,0.25,68,108.0
379,D2,32.75,0.25,68,108.0
380,E-5,32.75,0.25,68,108.0
381,G1,33.0,0.5,95,108.0
382,G#2,33.0,0.25,74,108.0
383,D2,33.0,0.25,74,108.0
384,E-3,33.0,0.25,74,108.0
385,G#2,33.25,0.25,63,108.0
386,A1,33.5,0.5,95,108.0
387,G#2,33.5,0.25,75,108.0
388,B1,33.5,0.25,75,108.0
389,D2,33.5,0.25,75,108.0
390,E-5,33.5,0.25,75,108.0
391,G#2,33.75,0.25,68,108.0
392,D2,33.75,0.25,68,108.0
393,E-5,33.75,0.25,68,108.0
394,A1,34.0,0.25,95,108.0
395,E4,34.0,1.5,95,108.0
396,C4,34.0,1.5,95,108.0
397,A3,34.0,1.5,95,108.0
398,G#2,34.0,0.25,84,108.0
399,B1,34.0,0.25,84,108.0
400,E3,34.0,0.25,84,108.0
401,G1,34.25,0.25,79,108.0
402,G#2,34.25,0.25,63,108.0
403,F1,34.5,0.25,63,108.0
404,G#2,34.5,0.25,79,108.0
405,B1,34.5,0.25,79,108.0
406,G1,34.75,0.25,47,108.0
407,G#2,34.75,0.25,63,108.0
408,A1,35.0,0.5,95,108.0
409,G#2,35.0,0.25,79,108.0
410,D2,35.0,0.25,79,108.0
411,G#2,35.25,0.25,63,108.0
412,A1,35.5,0.5,95,108.0
413,D4,35.5,2.5,95,108.0
414,B3,35.5,2.5,95,108.0
415,G3,35.5,2.5,95,108.0
416,G#2,35.5,0.25,79,108.0
417,F#2,35.5,0.25,79,108.0
418,G#2,35.75,0.25,63,108.0
419,G#2,36.0,0.25,63,108.0
420,E1,36.25,0.125,95,108.0
421,G#2,36.25,0.25,84,108.0
422,B1,36.25,0.25,84,108.0
423,F#2,36.25,0.25,84,108.0
424,G1,36.5,0.5,95,108.0
425,G#2,36.5,0.25,84,108.0
426,B1,36.5,0.25,84,108.0
427,F#2,36.5,0.25,84,108.0
428,G#2,36.75,0.25,63,108.0
429,G1,37.0,1.0,95,108.0
430,G#2,37.0,0.25,79,108.0
431,D2,37.0,0.25,79,108.0
432,G#2,37.25,0.25,63,108.0
433,G#2,37.5,0.25,79,108.0
434,B1,37.5,0.25,79,108.0
435,G#2,37.75,0.25,79,108.0
436,F#2,37.75,0.25,79,108.0
437,C4,38.0,1.5,95,108.0
438,F1,38.0,0.5,95,108.0
439,E4,38.0,4.0,95,108.0
440,A3,38.0,4.0,95,108.0
441,F3,38.0,4.0,95,108.0
442,G#2,38.0,0.25,79,108.0
443,B1,38.0,0.25,79,108.0
444,G#2,38.25,0.25,63,108.0
445,F1,38.5,0.5,95,108.0
446,G#2,38.5,0.25,79,108.0
447,B1,38.5,0.25,79,108.0
448,G#2,38.75,0.25,63,108.0
449,G#2,39.0,0.25,79,108.0
450,D2,39.0,0.25,79,108.0
451,G#2,39.25,0.25,63,108.0
452,B3,39.5,2.5,95,108.0
453,F1,39.5,0.25,95,108.0
454,G#2,39.5,0.25,79,108.0
455,F#2,39.5,0.25,79,108.0
456,G#2,39.75,0.25,63,108.0
457,G#2,40.0,0.25,63,108.0
458,F1,40.25,0.25,95,108.0
459,G#2,40.25,0.25,84,108.0
460,B1,40.25,0.25,84,108.0
461,F#2,40.25,0.25,84,108.0
462,G1,40.5,0.5,95,108.0
463,G#2,40.5,0.25,84,108.0
464,B1,40.5,0.25,84,108.0
465,F#2,40.5,0.25,84,108.0
466,G#2,40.75,0.25,63,108.0
467,G1,41.0,0.5,95,108.0
468,G#2,41.0,0.25,79,108.0
469,D2,41.0,0.25,79,108.0
470,G#2,41.25,0.25,63,108.0
471,G#1,41.5,0.5,95,108.0
472,G#2,41.5,0.25,79,108.0
473,B1,41.5,0.25,79,108.0
474,G#2,41.75,0.25,79,108.0
475,F#2,41.75,0.25,79,108.0
476,A1,42.0,0.5,95,108.0
477,E4,42.0,1.5,95,108.0
478,C4,42.0,1.5,95,108.0
479,A3,42.0,1.5,95,108.0
480,G#2,42.0,0.25,79,108.0
481,B1,42.0,0.25,79,108.0
482,G#2,42.25,0.25,63,108.0
483,A1,42.5,0.5,95,108.0
484,G#2,42.5,0.25,79,108.0
485,B1,42.5,0.25,79,108.0
486,G#2,42.75,0.25,63,108.0
487,G#2,43.0,0.25,79,108.0
488,D2,43.0,0.25,79,108.0
489,G#2,43.25,0.25,63,108.0
490,A1,43.5,0.25,95,108.0
491,D4,43.5,2.5,95,108.0
492,B3,43.5,2.5,95,108.0
493,G3,43.5,2.5,95,108.0
494,G#2,43.5,0.25,79,108.0
495,F#2,43.5,0.25,79,108.0
496,G#2,43.75,0.25,63,108.0
497,G#2,44.0,0.25,63,108.0
498,E1,44.25,0.25,95,108.0
499,G#2,44.25,0.25,84,108.0
500,B1,44.25,0.25,84,108.0
501,F#2,44.25,0.25,84,108.0
502,G1,44.5,0.5,95,108.0
503,G#2,44.5,0.25,84,108.0
504,B1,44.5,0.25,84,108.0
505,F#2,44.5,0.25,84,108.0
506,G#2,44.75,0.25,63,108.0
507,G1,45.0,1.0,95,108.0
508,G#2,45.0,0.25,79,108.0
509,D2,45.0,0.25,79,108.0
510,G#2,45.25,0.25,63,108.0
511,G#2,45.5,0.25,79,108.0
512,B1,45.5,0.25,79,108.0
513,G#2,45.75,0.25,79,108.0
514,F#2,45.75,0.25,79,108.0
515,D4,46.0,1.5,95,108.0
516,F1,46.0,0.5,95,108.0
517,B3,46.0,4.0,95,108.0
518,G3,46.0,4.0,95,108.0
519,G#2,46.0,0.25,79,108.0
520,B1,46.0,0.25,79,108.0
521,G#2,46.25,0.25,63,108.0
522,F1,46.5,0.5,95,108.0
523,G#2,46.5,0.25,79,108.0
524,B1,46.5,0.25,79,108.0
525,G#2,46.75,0.25,63,108.0
526,G4,47.0,0.5,95,108.0
527,C2,47.0,0.5,95,108.0
528,G#2,47.0,0.25,79,108.0
529,D2,47.0,0.25,79,108.0
530,G#2,47.25,0.25,63,108.0
531,E4,47.5,0.5,95,108.0
532,C4,47.5,2.5,95,108.0
533,F1,47.5,1.0,95,108.0
534,G#2,47.5,0.25,79,108.0
535,F#2,47.5,0.25,79,108.0
536,G#2,47.75,0.25,63,108.0
537,B4,48.0,0.5,95,108.0
538,G#2,48.0,0.25,63,108.0
539,G#2,48.25,0.25,84,108.0
540,B1,48.25,0.25,84,108.0
541,F#2,48.25,0.25,84,108.0
542,A4,48.5,0.5,95,108.0
543,D2,48.5,0.5,95,108.0
544,G#2,48.5,0.25,84,108.0
545,B1,48.5,0.25,84,108.0
546,F#2,48.5,0.25,84,108.0
547,G#2,48.75,0.25,63,108.0
548,E5,49.0,0.5,95,108.0
549,C2,49.0,0.5,95,108.0
550,G#2,49.0,0.25,79,108.0
551,D2,49.0,0.25,79,108.0
552,G#2,49.25,0.25,63,108.0
553,D5,49.5,0.5,95,108.0
554,G1,49.5,0.5,95,108.0
555,G#2,49.5,0.25,79,108.0
556,B1,49.5,0.25,79,108.0
557,G#2,49.75,0.25,79,108.0
558,F#2,49.75,0.25,79,108.0
559,D5,50.0,1.0,95,108.0
560,A1,50.0,0.25,95,108.0
561,E4,50.0,1.5,95,108.0
562,C4,50.0,1.5,95,108.0
563,A3,50.0,1.5,95,108.0
564,G#2,50.0,0.25,79,108.0
565,B1,50.0,0.25,79,108.0
566,G1,50.25,0.25,79,108.0
567,G#2,50.25,0.25,63,108.0
568,F1,50.5,0.25,63,108.0
569,G#2,50.5,0.25,79,108.0
570,B1,50.5,0.25,79,108.0
571,G1,50.75,0.25,47,108.0
572,G#2,50.75,0.25,63,108.0
573,G5,51.0,0.5,95,108.0
574,A1,51.0,0.5,95,108.0
575,G#2,51.0,0.25,79,108.0
576,D2,51.0,0.25,79,108.0
577,G#2,51.25,0.25,63,108.0
578,E5,51.5,1.5,95,108.0
579,A1,51.5,0.5,95,108.0
580,D4,51.5,2.5,95,108.0
581,B3,51.5,2.5,95,108.0
582,G3,51.5,2.5,95,108.0
583,G#2,51.5,0.25,79,108.0
584,F#2,51.5,0.25,79,108.0
585,G#2,51.75,0.25,63,108.0
586,G#2,52.0,0.25,63,108.0
587,E1,52.25,0.125,95,108.0
588,G#2,52.25,0.25,84,108.0
589,B1,52.25,0.25,84,108.0
590,F#2,52.25,0.25,84,108.0
591,G1,52.5,0.5,95,108.0
592,G#2,52.5,0.25,84,108.0
593,B1,52.5,0.25,84,108.0
594,F#2,52.5,0.25,84,108.0
595,G#2,52.75,0.25,63,108.0
596,D5,53.0,0.5,95,108.0
597,G1,53.0,1.0,95,108.0
598,G#2,53.0,0.25,79,108.0
599,D2,53.0,0.25,79,108.0
600,G#2,53.25,0.25,63,108.0
601,B4,53.5,0.5,95,108.0
602,G#2,53.5,0.25,79,108.0
603,B1,53.5,0.25,79,108.0
604,G#2,53.75,0.25,79,108.0
605,F#2,53.75,0.25,79,108.0
606,C4,54.0,1.5,95,108.0
607,F1,54.0,0.5,95,108.0
608,E4,54.0,4.0,95,108.0
609,A3,54.0,4.0,95,108.0
610,F3,54.0,4.0,95,108.0
611,G#2,54.0,0.25,79,108.0
612,B1,54.0,0.25,79,108.0
613,G#2,54.25,0.25,63,108.0
614,A4,54.5,2.5,95,108.0
615,F1,54.5,0.5,95,108.0
616,G#2,54.5,0.25,79,108.0
617,B1,54.5,0.25,79,108.0
618,G#2,54.75,0.25,63,108.0
619,G#2,55.0,0.25,79,108.0
620,D2,55.0,0.25,79,108.0
621,G#2,55.25,0.25,63,108.0
622,B3,55.5,2.5,95,108.0
623,F1,55.5,0.25,95,108.0
624,G#2,55.5,0.25,79,108.0
625,F#2,55.5,0.25,79,108.0
626,G#2,55.75,0.25,63,108.0
627,G#2,56.0,0.25,63,108.0
628,F1,56.25,0.25,95,108.0
629,G#2,56.25,0.25,84,108.0
630,B1,56.25,0.25,84,108.0
631,F#2,56.25,0.25,84,108.0
632,G1,56.5,0.5,95,108.0
633,G#2,56.5,0.25,84,108.0
634,B1,56.5,0.25,84,108.0
635,F#2,56.5,0.25,84,108.0
636,G#2,56.75,0.25,63,108.0
637,E5,57.0,0.5,95,108.0
638,G1,57.0,1.0,95,108.0
639,G#2,57.0,0.25,79,108.0
640,D2,57.0,0.25,79,108.0
641,G#2,57.25,0.25,63,108.0
642,D5,57.5,0.5,95,108.0
643,G#2,57.5,0.25,79,108.0
644,B1,57.5,0.25,79,108.0
645,G#2,57.75,0.25,79,108.0
646,F#2,57.75,0.25,79,108.0
647,D5,58.0,0.5,95,108.0
648,A1,58.0,0.5,95,108.0
649,E4,58.0,1.5,95,108.0
650,C4,58.0,1.5,95,108.0
651,A3,58.0,1.5,95,108.0
652,G#2,58.0,0.25,79,108.0
653,B1,58.0,0.25,79,108.0
654,G#2,58.25,0.25,63,108.0
655,G4,58.5,3.0,95,108.0
656,A1,58.5,0.5,95,108.0
657,G#2,58.5,0.25,79,108.0
658,B1,58.5,0.25,79,108.0
659,G#2,58.75,0.25,63,108.0
660,G#2,59.0,0.25,79,108.0
661,D2,59.0,0.25,79,108.0
662,G#2,59.25,0.25,63,108.0
663,A1,59.5,0.25,95,108.0
664,D4,59.5,2.5,95,108.0
665,B3,59.5,2.5,95,108.0
666,G3,59.5,2.5,95,108.0
667,G#2,59.5,0.25,79,108.0
668,F#2,59.5,0.25,79,108.0
669,G#2,59.75,0.25,63,108.0
670,G#2,60.0,0.25,63,108.0
671,E1,60.25,0.25,95,108.0
672,G#2,60.25,0.25,84,108.0
673,B1,60.25,0.25,84,108.0
674,F#2,60.25,0.25,84,108.0
675,G1,60.5,0.5,95,108.0
676,G#2,60.5,0.25,84,108.0
677,B1,60.5,0.25,84,108.0
678,F#2,60.5,0.25,84,108.0
679,G#2,60.75,0.25,63,108.0
680,G1,61.0,1.0,95,108.0
681,G#2,61.0,0.25,79,108.0
682,D2,61.0,0.25,79,108.0
683,G#2,61.25,0.25,63,108.0
684,A4,61.5,0.5,95,108.0
685,G#2,61.5,0.25,79,108.0
686,B1,61.5,0.25,79,108.0
687,G#2,61.75,0.25,79,108.0
688,F#2,61.75,0.25,79,108.0
689,E4,62.0,1.5,79,108.0
690,D2,62.0,0.5,95,108.0
691,D4,62.0,4.0,95,108.0
692,A3,62.0,4.0,95,108.0
693,F#3,62.0,4.0,95,108.0
694,G#2,62.0,0.25,79,108.0
695,B1,62.0,0.25,79,108.0
696,G#2,62.25,0.25,63,108.0
697,D2,62.5,0.5,95,108.0
698,G#2,62.5,0.25,79,108.0
699,B1,62.5,0.25,79,108.0
700,G#2,62.75,0.25,63,108.0
701,G#2,63.0,0.25,79,108.0
702,D2,63.0,0.25,79,108.0
703,G#2,63.25,0.25,63,108.0
704,D4,63.5,2.5,63,108.0
705,D2,63.5,0.25,95,108.0
706,G#2,63.5,0.25,79,108.0
707,F#2,63.5,0.25,79,108.0
708,G#2,63.75,0.25,63,108.0
709,G#2,64.0,0.25,63,108.0
710,E1,64.25,0.25,95,108.0
711,G#2,64.25,0.25,84,108.0
712,B1,64.25,0.25,84,108.0
713,F#2,64.25,0.25,84,108.0
714,G1,64.5,0.25,95,108.0
715,G#2,64.5,0.25,84,108.0
716,B1,64.5,0.25,84,108.0
717,F#2,64.5,0.25,84,108.0
718,A1,64.75,0.25,95,108.0
719,G#2,64.75,0.25,63,108.0
720,D2,65.0,0.5,95,108.0
721,G#2,65.0,0.25,79,108.0
722,D2,65.0,0.25,79,108.0
723,G#2,65.25,0.25,63,108.0
724,D2,65.5,0.5,95,108.0
725,G#2,65.5,0.25,79,108.0
726,B1,65.5,0.25,79,108.0
727,G#2,65.75,0.25,79,108.0
728,F#2,65.75,0.25,79,108.0
729,D4,66.0,4.0,63,108.0
730,D2,66.0,0.5,95,108.0
731,G#2,66.0,0.25,79,108.0
732,B1,66.0,0.25,79,108.0
733,G#2,66.25,0.25,63,108.0
734,G1,66.5,0.25,95,108.0
735,G#2,66.5,0.25,79,108.0
736,B1,66.5,0.25,79,108.0
737,G2,66.75,0.25,95,108.0
738,G#2,66.75,0.25,63,108.0
739,A2,67.0,0.5,95,108.0
740,G#2,67.0,0.25,79,108.0
741,D2,67.0,0.25,79,108.0
742,G#2,67.25,0.25,63,108.0
743,A2,67.5,0.25,95,108.0
744,G#2,67.5,0.25,79,108.0
745,F#2,67.5,0.25,79,108.0
746,G2,67.75,0.75,95,108.0
747,G#2,67.75,0.25,63,108.0
748,G#2,68.0,0.25,63,108.0
749,G#2,68.25,0.25,84,108.0
750,B1,68.25,0.25,84,108.0
751,F#2,68.25,0.25,84,108.0
752,G2,68.5,0.5,95,108.0
753,G#2,68.5,0.25,87,108.0
754,B1,68.5,0.25,87,108.0
755,F#2,68.5,0.25,87,108.0
756,E-6,68.5,0.25,87,108.0
757,G#2,68.75,0.25,63,108.0
758,E2,69.0,0.25,63,108.0
759,G#2,69.0,0.25,84,108.0
760,D2,69.0,0.25,84,108.0
761,E-6,69.0,0.25,84,108.0
762,D2,69.25,0.25,79,108.0
763,G#2,69.25,0.25,79,108.0
764,E-6,69.25,0.25,79,108.0
765,C2,69.5,0.25,63,108.0
766,G#2,69.5,0.25,79,108.0
767,B1,69.5,0.25,79,108.0
768,B1,69.75,0.25,63,108.0
769,G#2,69.75,0.25,79,108.0
770,F#2,69.75,0.25,79,108.0
771,A1,70.0,0.25,95,108.0
772,D4,70.0,4.0,95,108.0
773,A3,70.0,4.0,95,108.0
774,F#3,70.0,4.0,95,108.0
775,G#2,70.0,0.25,84,108.0
776,B1,70.0,0.25,84,108.0
777,E3,70.0,0.25,84,108.0
778,G1,70.25,0.25,79,108.0
779,G#2,70.25,0.25,63,108.0
780,F1,70.5,0.25,63,108.0
781,G#2,70.5,0.25,79,108.0
782,B1,70.5,0.25,79,108.0
783,G1,70.75,0.25,47,108.0
784,G#2,70.75,0.25,63,108.0
785,G4,71.0,0.5,95,108.0
786,A1,71.0,0.5,95,108.0
787,G#2,71.0,0.25,79,108.0
788,D2,71.0,0.25,79,108.0
789,G#2,71.25,0.25,63,108.0
790,G4,71.5,1.5,95,108.0
791,A1,71.5,0.5,95,108.0
792,G#2,71.5,0.25,79,108.0
793,F#2,71.5,0.25,79,108.0
794,G#2,71.75,0.25,63,108.0
795,G#2,72.0,0.25,63,108.0
796,E1,72.25,0.125,95,108.0
797,G#2,72.25,0.25,84,108.0
798,B1,72.25,0.25,84,108.0
799,F#2,72.25,0.25,84,108.0
800,G1,72.5,0.5,95,108.0
801,G#2,72.5,0.25,84,108.0
802,B1,72.5,0.25,84,108.0
803,F#2,72.5,0.25,84,108.0
804,G#2,72.75,0.25,63,108.0
805,D4,73.0,0.5,79,108.0
806,G1,73.0,1.0,95,108.0
807,G#2,73.0,0.25,79,108.0
808,D2,73.0,0.25,79,108.0
809,G#2,73.25,0.25,63,108.0
810,E4,73.5,0.5,95,108.0
811,G#2,73.5,0.25,79,108.0
812,B1,73.5,0.25,79,108.0
813,G#2,73.75,0.25,79,108.0
814,F#2,73.75,0.25,79,108.0
815,E4,74.0,1.0,95,108.0
816,F1,74.0,0.5,95,108.0
817,E4,74.0,1.5,79,108.0
818,C4,74.0,1.5,79,108.0
819,A3,74.0,1.5,79,108.0
820,G#2,74.0,0.25,79,108.0
821,B1,74.0,0.25,79,108.0
822,G#2,74.25,0.25,63,108.0
823,F1,74.5,0.5,95,108.0
824,G#2,74.5,0.25,79,108.0
825,B1,74.5,0.25,79,108.0
826,G#2,74.75,0.25,63,108.0
827,G#2,75.0,0.25,79,108.0
828,D2,75.0,0.25,79,108.0
829,E4,75.25,0.25,63,108.0
830,G#2,75.25,0.25,63,108.0
831,A4,75.5,0.25,79,108.0
832,F1,75.5,0.25,95,108.0
833,D4,75.5,2.5,79,108.0
834,B3,75.5,2.5,79,108.0
835,G3,75.5,2.5,79,108.0
836,G#2,75.5,0.25,79,108.0
837,F#2,75.5,0.25,79,108.0
838,B4,75.75,0.25,95,108.0
839,G#2,75.75,0.25,63,108.0
840,B-4,76.0,0.75,95,108.0
841,G#2,76.0,0.25,63,108.0
842,F1,76.25,0.25,95,108.0
843,G#2,76.25,0.25,84,108.0
844,B1,76.25,0.25,84,108.0
845,F#2,76.25,0.25,84,108.0
846,G1,76.5,0.5,95,108.0
847,G#2,76.5,0.25,84,108.0
848,B1,76.5,0.25,84,108.0
849,F#2,76.5,0.25,84,108.0
850,B4,76.75,0.25,95,108.0
851,G#2,76.75,0.25,63,108.0
852,G1,77.0,0.5,95,108.0
853,G#2,77.0,0.25,79,108.0
854,D2,77.0,0.25,79,108.0
855,G#2,77.25,0.25,63,108.0
856,G4,77.5,0.5,95,108.0
857,G#1,77.5,0.5,95,108.0
858,G#2,77.5,0.25,79,108.0
859,B1,77.5,0.25,79,108.0
860,G#2,77.75,0.25,79,108.0
861,F#2,77.75,0.25,79,108.0
862,G4,78.0,0.5,95,108.0
863,C4,78.0,1.5,79,108.0
864,A1,78.0,0.5,95,108.0
865,E4,78.0,4.0,79,108.0
866,A3,78.0,4.0,79,108.0
867,F3,78.0,4.0,79,108.0
868,G#2,78.0,0.25,79,108.0
869,B1,78.0,0.25,79,108.0
870,G#2,78.25,0.25,63,108.0
871,A4,78.5,0.5,63,108.0
872,A1,78.5,0.5,95,108.0
873,G#2,78.5,0.25,79,108.0
874,B1,78.5,0.25,79,108.0
875,G#2,78.75,0.25,63,108.0
876,A4,79.0,2.0,95,108.0
877,G#2,79.0,0.25,79,108.0
878,D2,79.0,0.25,79,108.0
879,G#2,79.25,0.25,63,108.0
880,B3,79.5,2.5,79,108.0
881,A1,79.5,0.25,95,108.0
882,G#2,79.5,0.25,79,108.0
883,F#2,79.5,0.25,79,108.0
884,G#2,79.75,0.25,63,108.0
885,G#2,80.0,0.25,63,108.0
886,E1,80.25,0.25,95,108.0
887,G#2,80.25,0.25,84,108.0
888,B1,80.25,0.25,84,108.0
889,F#2,80.25,0.25,84,108.0
890,G1,80.5,0.5,95,108.0
891,G#2,80.5,0.25,84,108.0
892,B1,80.5,0.25,84,108.0
893,F#2,80.5,0.25,84,108.0
894,G#2,80.75,0.25,63,108.0
895,G4,81.0,0.25,63,108.0
896,G1,81.0,1.0,95,108.0
897,G#2,81.0,0.25,79,108.0
898,D2,81.0,0.25,79,108.0
899,G#2,81.25,0.25,63,108.0
900,D4,81.5,0.5,95,108.0
901,G#2,81.5,0.25,79,108.0
902,B1,81.5,0.25,79,108.0
903,G#2,81.75,0.25,79,108.0
904,F#2,81.75,0.25,79,108.0
905,D4,82.0,0.5,95,108.0
906,F1,82.0,0.5,95,108.0
907,E4,82.0,1.5,79,108.0
908,C4,82.0,1.5,79,108.0
909,A3,82.0,1.5,79,108.0
910,G#2,82.0,0.25,79,108.0
911,B1,82.0,0.25,79,108.0
912,G#2,82.25,0.25,63,108.0
913,G4,82.5,0.5,95,108.0
914,F1,82.5,0.5,95,108.0
915,G#2,82.5,0.25,79,108.0
916,B1,82.5,0.25,79,108.0
917,G#2,82.75,0.25,63,108.0
918,D4,83.0,0.5,95,108.0
919,C2,83.0,0.5,95,108.0
920,G#2,83.0,0.25,79,108.0
921,D2,83.0,0.25,79,108.0
922,G#2,83.25,0.25,63,108.0
923,D4,83.5,2.5,79,108.0
924,F1,83.5,1.0,95,108.0
925,D4,83.5,2.5,79,108.0
926,B3,83.5,2.5,79,108.0
927,G3,83.5,2.5,79,108.0
928,G#2,83.5,0.25,79,108.0
929,F#2,83.5,0.25,79,108.0
930,G#2,83.75,0.25,63,108.0
931,G#2,84.0,0.25,63,108.0
932,G#2,84.25,0.25,84,108.0
933,B1,84.25,0.25,84,108.0
934,F#2,84.25,0.25,84,108.0
935,E2,84.5,0.5,95,108.0
936,G#2,84.5,0.25,84,108.0
937,B1,84.5,0.25,84,108.0
938,F#2,84.5,0.25,84,108.0
939,G#2,84.75,0.25,63,108.0
940,D2,85.0,0.25,95,108.0
941,G#2,85.0,0.25,79,108.0
942,D2,85.0,0.25,79,108.0
943,C2,85.25,0.25,95,108.0
944,G#2,85.25,0.25,63,108.0
945,A1,85.5,0.5,95,108.0
946,G#2,85.5,0.25,79,108.0
947,B1,85.5,0.25,79,108.0
948,G#2,85.75,0.25,79,108.0
949,F#2,85.75,0.25,79,108.0
950,D4,86.0,1.5,79,108.0
951,A1,86.0,0.25,95,108.0
952,B3,86.0,4.0,79,108.0
953,G3,86.0,4.0,79,108.0
954,G#2,86.0,0.25,79,108.0
955,B1,86.0,0.25,79,108.0
956,G1,86.25,0.25,79,108.0
957,G#2,86.25,0.25,63,108.0
958,A1,86.5,0.25,79,108.0
959,G#2,86.5,0.25,79,108.0
960,B1,86.5,0.25,79,108.0
961,A1,86.75,0.25,63,108.0
962,G#2,86.75,0.25,63,108.0
963,G#2,87.0,0.25,79,108.0
964,D2,87.0,0.25,79,108.0
965,E4,87.25,0.25,63,108.0
966,G#2,87.25,0.25,63,108.0
967,A4,87.5,0.25,79,108.0
968,C4,87.5,2.5,79,108.0
969,A1,87.5,0.5,95,108.0
970,G#2,87.5,0.25,79,108.0
971,F#2,87.5,0.25,79,108.0
972,B4,87.75,0.25,95,108.0
973,G#2,87.75,0.25,63,108.0
974,B-4,88.0,0.75,95,108.0
975,G#2,88.0,0.25,63,108.0
976,E1,88.25,0.125,95,108.0
977,G#2,88.25,0.25,84,108.0
978,B1,88.25,0.25,84,108.0
979,F#2,88.25,0.25,84,108.0
980,G1,88.5,0.5,95,108.0
981,G#2,88.5,0.25,84,108.0
982,B1,88.5,0.25,84,108.0
983,F#2,88.5,0.25,84,108.0
984,D5,88.75,0.25,95,108.0
985,G#2,88.75,0.25,63,108.0
986,G1,89.0,1.0,95,108.0
987,G#2,89.0,0.25,79,108.0
988,D2,89.0,0.25,79,108.0
989,G#2,89.25,0.25,63,108.0
990,A4,89.5,0.5,95,108.0
991,G#2,89.5,0.25,79,108.0
992,B1,89.5,0.25,79,108.0
993,G#2,89.75,0.25,79,108.0
994,F#2,89.75,0.25,79,108.0
995,A4,90.0,0.5,95,108.0
996,F1,90.0,0.5,95,108.0
997,E4,90.0,1.5,79,108.0
998,C4,90.0,1.5,79,108.0
999,A3,90.0,1.5,79,108.0
1000,G#2,90.0,0.25,79,108.0
1001,B1,90.0,0.25,79,108.0
1002,G#2,90.25,0.25,63,108.0
1003,C5,90.5,0.125,95,108.0
1004,F1,90.5,0.5,95,108.0
1005,G#2,90.5,0.25,79,108.0
1006,B1,90.5,0.25,79,108.0
1007,B4,90.625,0.125,63,108.0
1008,A4,90.75,0.75,95,108.0
1009,G#2,90.75,0.25,63,108.0
1010,G#2,91.0,0.25,79,108.0
1011,D2,91.0,0.25,79,108.0
1012,G#2,91.25,0.25,63,108.0
1013,A4,91.5,1.5,95,108.0
1014,F1,91.5,0.25,95,108.0
1015,D4,91.5,2.5,79,108.0
1016,B3,91.5,2.5,79,108.0
1017,G3,91.5,2.5,79,108.0
1018,G#2,91.5,0.25,79,108.0
1019,F#2,91.5,0.25,79,108.0
1020,G#2,91.75,0.25,63,108.0
1021,G#2,92.0,0.25,63,108.0
1022,F1,92.25,0.25,95,108.0
1023,G#2,92.25,0.25,84,108.0
1024,B1,92.25,0.25,84,108.0
1025,F#2,92.25,0.25,84,108.0
1026,G1,92.5,0.5,95,108.0
1027,G#2,92.5,0.25,84,108.0
1028,B1,92.5,0.25,84,108.0
1029,F#2,92.5,0.25,84,108.0
1030,G#2,92.75,0.25,63,108.0
1031,F4,93.0,0.5,95,108.0
1032,G1,93.0,1.0,95,108.0
1033,G#2,93.0,0.25,79,108.0
1034,D2,93.0,0.25,79,108.0
1035,G#2,93.25,0.25,63,108.0
1036,D4,93.5,0.5,95,108.0
1037,G#2,93.5,0.25,79,108.0
1038,B1,93.5,0.25,79,108.0
1039,G#2,93.75,0.25,79,108.0
1040,F#2,93.75,0.25,79,108.0
1041,D4,94.0,0.5,95,108.0
1042,C4,94.0,1.5,79,108.0
1043,A1,94.0,0.5,95,108.0
1044,E4,94.0,4.0,79,108.0
1045,A3,94.0,4.0,79,108.0
1046,F3,94.0,4.0,79,108.0
1047,G#2,94.0,0.25,79,108.0
1048,B1,94.0,0.25,79,108.0
1049,G#2,94.25,0.25,63,108.0
1050,E4,94.5,0.5,95,108.0
1051,A1,94.5,0.5,95,108.0
1052,G#2,94.5,0.25,79,108.0
1053,B1,94.5,0.25,79,108.0
1054,G#2,94.75,0.25,63,108.0
1055,D4,95.0,2.0,95,108.0
1056,G#2,95.0,0.25,79,108.0
1057,D2,95.0,0.25,79,108.0
1058,G#2,95.25,0.25,63,108.0
1059,B3,95.5,2.5,79,108.0
1060,A1,95.5,0.25,95,108.0
1061,G#2,95.5,0.25,79,108.0
1062,F#2,95.5,0.25,79,108.0
1063,G#2,95.75,0.25,63,108.0
1064,G#2,96.0,0.25,63,108.0
1065,E1,96.25,0.25,95,108.0
1066,G#2,96.25,0.25,84,108.0
1067,B1,96.25,0.25,84,108.0
1068,F#2,96.25,0.25,84,108.0
1069,G1,96.5,0.5,95,108.0
1070,G#2,96.5,0.25,84,108.0
1071,B1,96.5,0.25,84,108.0
1072,F#2,96.5,0.25,84,108.0
1073,G#2,96.75,0.25,63,108.0
1074,G1,97.0,1.0,95,108.0
1075,G#2,97.0,0.25,79,108.0
1076,D2,97.0,0.25,79,108.0
1077,G#2,97.25,0.25,63,108.0
1078,G4,97.5,0.25,95,108.0
1079,G#2,97.5,0.25,79,108.0
1080,B1,97.5,0.25,79,108.0
1081,G#2,97.75,0.25,79,108.0
1082,F#2,97.75,0.25,79,108.0
1083,D4,98.0,1.5,95,108.0
1084,D2,98.0,0.5,95,108.0
1085,E4,98.0,1.5,79,108.0
1086,C4,98.0,1.5,79,108.0
1087,A3,98.0,1.5,79,108.0
1088,G#2,98.0,0.25,79,108.0
1089,B1,98.0,0.25,79,108.0
1090,G#2,98.25,0.25,63,108.0
1091,D2,98.5,0.5,95,108.0
1092,G#2,98.5,0.25,79,108.0
1093,B1,98.5,0.25,79,108.0
1094,G#2,98.75,0.25,63,108.0
1095,G#2,99.0,0.25,79,108.0
1096,D2,99.0,0.25,79,108.0
1097,G#2,99.25,0.25,63,108.0
1098,D4,99.5,1.0,79,108.0
1099,D2,99.5,0.25,95,108.0
1100,D4,99.5,2.5,79,108.0
1101,B3,99.5,2.5,79,108.0
1102,G3,99.5,2.5,79,108.0
1103,G#2,99.5,0.25,79,108.0
1104,F#2,99.5,0.25,79,108.0
1105,G#2,99.75,0.25,63,108.0
1106,G#2,100.0,0.25,63,108.0
1107,E1,100.25,0.25,95,108.0
1108,G#2,100.25,0.25,84,108.0
1109,B1,100.25,0.25,84,108.0
1110,F#2,100.25,0.25,84,108.0
1111,G1,100.5,0.25,95,108.0
1112,G#2,100.5,0.25,87,108.0
1113,B1,100.5,0.25,87,108.0
1114,F#2,100.5,0.25,87,108.0
1115,E-6,100.5,0.25,87,108.0
1116,A1,100.75,0.25,95,108.0
1117,G#2,100.75,0.25,63,108.0
1118,D2,101.0,0.5,95,108.0
1119,G#2,101.0,0.25,84,108.0
1120,D2,101.0,0.25,84,108.0
1121,E-6,101.0,0.25,84,108.0
1122,G#2,101.25,0.25,63,108.0
1123,D2,101.5,0.5,95,108.0
1124,G#2,101.5,0.25,79,108.0
1125,B1,101.5,0.25,79,108.0
1126,G#2,101.75,0.25,79,108.0
1127,F#2,101.75,0.25,79,108.0
1128,E4,102.0,1.5,95,108.0
1129,E5,102.0,1.5,95,108.0
1130,E1,102.0,0.5,95,108.0
1131,E4,102.0,4.0,63,108.0
1132,B3,102.0,4.0,63,108.0
1133,G#3,102.0,4.0,63,108.0
1134,E2,102.0,4.0,63,108.0
1135,D4,102.0,4.0,79,108.0
1136,A3,102.0,4.0,79,108.0
1137,F#3,102.0,4.0,79,108.0
1138,G#2,102.0,0.25,84,108.0
1139,B1,102.0,0.25,84,108.0
1140,A3,102.0,0.25,84,108.0
1141,G#2,102.25,0.25,63,108.0
1142,E1,102.5,0.25,95,108.0
1143,G#2,102.5,0.25,84,108.0
1144,B1,102.5,0.25,84,108.0
1145,F#2,102.5,0.25,84,108.0
1146,G#2,102.75,0.25,79,108.0
1147,F#2,102.75,0.25,79,108.0
1148,G#2,103.0,0.25,79,108.0
1149,D2,103.0,0.25,79,108.0
1150,G#2,103.25,0.25,63,108.0
1151,B3,103.5,2.5,95,108.0
1152,B4,103.5,2.5,95,108.0
1153,E1,103.5,0.75,95,108.0
1154,G#2,103.5,0.25,84,108.0
1155,B1,103.5,0.25,84,108.0
1156,F#2,103.5,0.25,84,108.0
1157,G#2,103.75,0.25,79,108.0
1158,F#2,103.75,0.25,79,108.0
1159,G#2,104.0,0.25,63,108.0
1160,E1,104.25,0.25,95,108.0
1161,G#2,104.25,0.25,79,108.0
1162,B1,104.25,0.25,79,108.0
1163,E1,104.5,0.25,95,108.0
1164,G#2,104.5,0.25,79,108.0
1165,B1,104.5,0.25,79,108.0
1166,G#2,104.75,0.25,63,108.0
1167,E1,105.0,0.25,95,108.0
1168,G#2,105.0,0.25,79,108.0
1169,D2,105.0,0.25,79,108.0
1170,F#1,105.25,0.25,95,108.0
1171,G#2,105.25,0.25,79,108.0
1172,F#2,105.25,0.25,79,108.0
1173,G#1,105.5,0.25,95,108.0
1174,G#2,105.5,0.25,63,108.0
1175,E1,105.75,0.25,95,108.0
1176,G#2,105.75,0.25,79,108.0
1177,F#2,105.75,0.25,79,108.0
1178,B3,106.0,1.5,95,108.0
1179,B4,106.0,1.5,95,108.0
1180,E1,106.0,0.5,95,108.0
1181,E4,106.0,4.0,95,108.0
1182,B3,106.0,4.0,95,108.0
1183,G#3,106.0,4.0,95,108.0
1184,G#2,106.0,0.25,79,108.0
1185,B1,106.0,0.25,79,108.0
1186,G#2,106.25,0.25,63,108.0
1187,E1,106.5,0.75,95,108.0
1188,G#2,106.5,0.25,84,108.0
1189,B1,106.5,0.25,84,108.0
1190,F#2,106.5,0.25,84,108.0
1191,G#2,106.75,0.25,79,108.0
1192,F#2,106.75,0.25,79,108.0
1193,G#2,107.0,0.25,79,108.0
1194,D2,107.0,0.25,79,108.0
1195,G#2,107.25,0.25,63,108.0
1196,B3,107.5,0.5,95,108.0
1197,B4,107.5,0.5,95,108.0
1198,E1,107.5,0.25,95,108.0
1199,G#2,107.5,0.25,84,108.0
1200,B1,107.5,0.25,84,108.0
1201,F#2,107.5,0.25,84,108.0
1202,E1,107.75,0.5,95,108.0
1203,G#2,107.75,0.25,79,108.0
1204,F#2,107.75,0.25,79,108.0
1205,G#4,108.0,0.5,95,108.0
1206,G#5,108.0,0.5,95,108.0
1207,G#2,108.0,0.25,63,108.0
1208,E1,108.25,0.25,95,108.0
1209,G#2,108.25,0.25,79,108.0
1210,B1,108.25,0.25,79,108.0
1211,A4,108.5,0.5,95,108.0
1212,A5,108.5,0.5,95,108.0
1213,E1,108.5,0.25,95,108.0
1214,G#2,108.5,0.25,79,108.0
1215,B1,108.5,0.25,79,108.0
1216,G#2,108.75,0.25,63,108.0
1217,A4,109.0,1.0,95,108.0
1218,B5,109.0,1.0,95,108.0
1219,E1,109.0,0.25,95,108.0
1220,G#2,109.0,0.25,79,108.0
1221,D2,109.0,0.25,79,108.0
1222,F#1,109.25,0.25,95,108.0
1223,G#2,109.25,0.25,79,108.0
1224,F#2,109.25,0.25,79,108.0
1225,G#1,109.5,0.25,95,108.0
1226,G#2,109.5,0.25,79,108.0
1227,B1,109.5,0.25,79,108.0
1228,F#1,109.75,0.25,95,108.0
1229,G#2,109.75,0.25,79,108.0
1230,F#2,109.75,0.25,79,108.0
1231,A4,110.0,1.5,95,108.0
1232,A5,110.0,1.5,95,108.0
1233,B1,110.0,0.5,95,108.0
1234,E4,110.0,4.0,63,108.0
1235,B3,110.0,4.0,63,108.0
1236,G#3,110.0,4.0,63,108.0
1237,E2,110.0,4.0,63,108.0
1238,G#2,110.0,0.25,79,108.0
1239,B1,110.0,0.25,79,108.0
1240,G#2,110.25,0.25,63,108.0
1241,B1,110.5,0.25,95,108.0
1242,G#2,110.5,0.25,84,108.0
1243,B1,110.5,0.25,84,108.0
1244,F#2,110.5,0.25,84,108.0
1245,G#2,110.75,0.25,79,108.0
1246,F#2,110.75,0.25,79,108.0
1247,G#2,111.0,0.25,79,108.0
1248,D2,111.0,0.25,79,108.0
1249,G#2,111.25,0.25,63,108.0
1250,G#4,111.5,1.5,95,108.0
1251,G#5,111.5,1.5,95,108.0
1252,B1,111.5,0.75,95,108.0
1253,G#2,111.5,0.25,84,108.0
1254,B1,111.5,0.25,84,108.0
1255,F#2,111.5,0.25,84,108.0
1256,G#2,111.75,0.25,79,108.0
1257,F#2,111.75,0.25,79,108.0
1258,G#2,112.0,0.25,63,108.0
1259,F#1,112.25,0.25,95,108.0
1260,G#2,112.25,0.25,79,108.0
1261,B1,112.25,0.25,79,108.0
1262,B1,112.5,0.25,95,108.0
1263,G#2,112.5,0.25,79,108.0
1264,B1,112.5,0.25,79,108.0
1265,F#1,112.75,0.25,95,108.0
1266,G#2,112.75,0.25,63,108.0
1267,F#4,113.0,1.0,95,108.0
1268,F#5,113.0,1.0,95,108.0
1269,B1,113.0,0.5,95,108.0
1270,G#2,113.0,0.25,79,108.0
1271,D2,113.0,0.25,79,108.0
1272,G#2,113.25,0.25,79,108.0
1273,F#2,113.25,0.25,79,108.0
1274,B1,113.5,0.5,95,108.0
1275,G#2,113.5,0.25,63,108.0
1276,G#2,113.75,0.25,79,108.0
1277,F#2,113.75,0.25,79,108.0
1278,F#4,114.0,2.0,95,108.0
1279,F#5,114.0,2.0,95,108.0
1280,B1,114.0,0.5,95,108.0
1281,F#4,114.0,4.0,63,108.0
1282,D4,114.0,4.0,63,108.0
1283,A3,114.0,4.0,63,108.0
1284,B2,114.0,4.0,63,108.0
1285,E4,114.0,4.0,95,108.0
1286,B3,114.0,4.0,95,108.0
1287,G#3,114.0,4.0,95,108.0
1288,G#2,114.0,0.25,79,108.0
1289,B1,114.0,0.25,79,108.0
1290,G#2,114.25,0.25,63,108.0
1291,B1,114.5,0.25,95,108.0
1292,G#2,114.5,0.25,84,108.0
1293,B1,114.5,0.25,84,108.0
1294,F#2,114.5,0.25,84,108.0
1295,G#2,114.75,0.25,79,108.0
1296,F#2,114.75,0.25,79,108.0
1297,G#2,115.0,0.25,79,108.0
1298,D2,115.0,0.25,79,108.0
1299,G#2,115.25,0.25,63,108.0
1300,B1,115.5,0.75,95,108.0
1301,G#2,115.5,0.25,84,108.0
1302,B1,115.5,0.25,84,108.0
1303,F#2,115.5,0.25,84,108.0
1304,G#2,115.75,0.25,79,108.0
1305,F#2,115.75,0.25,79,108.0
1306,F#4,116.0,0.5,95,108.0
1307,F#5,116.0,0.5,95,108.0
1308,G#2,116.0,0.25,63,108.0
1309,G#1,116.25,0.25,95,108.0
1310,G#2,116.25,0.25,79,108.0
1311,B1,116.25,0.25,79,108.0
1312,G4,116.5,0.5,95,108.0
1313,G5,116.5,0.5,95,108.0
1314,B1,116.5,0.25,95,108.0
1315,G#2,116.5,0.25,79,108.0
1316,B1,116.5,0.25,79,108.0
1317,G#2,116.75,0.25,63,108.0
1318,G4,117.0,0.5,95,108.0
1319,A5,117.0,0.5,95,108.0
1320,B1,117.0,0.5,95,108.0
1321,G#2,117.0,0.25,79,108.0
1322,D2,117.0,0.25,79,108.0
1323,G#2,117.25,0.25,79,108.0
1324,F#2,117.25,0.25,79,108.0
1325,G4,117.5,0.5,95,108.0
1326,G5,117.5,0.5,95,108.0
1327,B1,117.5,0.5,95,108.0
1328,G#2,117.5,0.25,79,108.0
1329,B1,117.5,0.25,79,108.0
1330,G#2,117.75,0.25,79,108.0
1331,F#2,117.75,0.25,79,108.0
1332,G4,118.0,0.5,95,108.0
1333,G5,118.0,0.5,95,108.0
1334,A1,118.0,0.5,95,108.0
1335,F#4,118.0,4.0,95,108.0
1336,D4,118.0,4.0,95,108.0
1337,A3,118.0,4.0,95,108.0
1338,G#2,118.0,0.25,79,108.0
1339,B1,118.0,0.25,79,108.0
1340,G#2,118.25,0.25,63,108.0
1341,E4,118.5,3.5,95,108.0
1342,E5,118.5,3.5,95,108.0
1343,A1,118.5,0.25,95,108.0
1344,G#2,118.5,0.25,84,108.0
1345,B1,118.5,0.25,84,108.0
1346,F#2,118.5,0.25,84,108.0
1347,G#2,118.75,0.25,79,108.0
1348,F#2,118.75,0.25,79,108.0
1349,G#2,119.0,0.25,79,108.0
1350,D2,119.0,0.25,79,108.0
1351,G#2,119.25,0.25,63,108.0
1352,A1,119.5,0.75,95,108.0
1353,G#2,119.5,0.25,84,108.0
1354,B1,119.5,0.25,84,108.0
1355,F#2,119.5,0.25,84,108.0
1356,G#2,119.75,0.25,79,108.0
1357,F#2,119.75,0.25,79,108.0
1358,G#2,120.0,0.25,63,108.0
1359,E1,120.25,0.25,95,108.0
1360,G#2,120.25,0.25,79,108.0
1361,B1,120.25,0.25,79,108.0
1362,G1,120.5,0.5,95,108.0
1363,G#2,120.5,0.25,79,108.0
1364,B1,120.5,0.25,79,108.0
1365,G#2,120.75,0.25,63,108.0
1366,A1,121.0,1.0,95,108.0
1367,G#2,121.0,0.25,79,108.0
1368,D2,121.0,0.25,79,108.0
1369,G#2,121.25,0.25,79,108.0
1370,F#2,121.25,0.25,79,108.0
1371,G#2,121.5,0.25,63,108.0
1372,G#2,121.75,0.25,79,108.0
1373,F#2,121.75,0.25,79,108.0
1374,E4,122.0,2.0,95,108.0
1375,E5,122.0,2.0,95,108.0
1376,A1,122.0,0.5,95,108.0
1377,F#4,122.0,4.0,63,108.0
1378,D4,122.0,4.0,63,108.0
1379,A3,122.0,4.0,63,108.0
1380,B2,122.0,4.0,63,108.0
1381,G#2,122.0,0.25,79,108.0
1382,B1,122.0,0.25,79,108.0
1383,G#2,122.25,0.25,63,108.0
1384,A1,122.5,0.25,95,108.0
1385,G#2,122.5,0.25,84,108.0
1386,B1,122.5,0.25,84,108.0
1387,F#2,122.5,0.25,84,108.0
1388,G#2,122.75,0.25,79,108.0
1389,F#2,122.75,0.25,79,108.0
1390,G#2,123.0,0.25,79,108.0
1391,D2,123.0,0.25,79,108.0
1392,G#2,123.25,0.25,63,108.0
1393,A1,123.5,0.75,95,108.0
1394,G#2,123.5,0.25,84,108.0
1395,B1,123.5,0.25,84,108.0
1396,F#2,123.5,0.25,84,108.0
1397,G#2,123.75,0.25,79,108.0
1398,F#2,123.75,0.25,79,108.0
1399,A3,124.0,0.5,95,108.0
1400,B4,124.0,0.5,95,108.0
1401,G#2,124.0,0.25,63,108.0
1402,G1,124.25,0.25,95,108.0
1403,G#2,124.25,0.25,79,108.0
1404,B1,124.25,0.25,79,108.0
1405,A3,124.5,0.5,95,108.0
1406,A4,124.5,0.5,95,108.0
1407,A1,124.5,0.25,95,108.0
1408,G#2,124.5,0.25,79,108.0
1409,B1,124.5,0.25,79,108.0
1410,G1,124.75,0.25,95,108.0
1411,G#2,124.75,0.25,63,108.0
1412,G3,125.0,0.5,95,108.0
1413,G4,125.0,0.5,95,108.0
1414,B1,125.0,0.5,95,108.0
1415,G#2,125.0,0.25,79,108.0
1416,D2,125.0,0.25,79,108.0
1417,G#2,125.25,0.25,79,108.0
1418,F#2,125.25,0.25,79,108.0
1419,A3,125.5,0.5,95,108.0
1420,A4,125.5,0.5,95,108.0
1421,C2,125.5,0.5,95,108.0
1422,G#2,125.5,0.25,79,108.0
1423,B1,125.5,0.25,79,108.0
1424,G#2,125.75,0.25,79,108.0
1425,F#2,125.75,0.25,79,108.0
1426,A3,126.0,1.5,95,108.0
1427,A4,126.0,1.5,95,108.0
1428,D2,126.0,0.5,95,108.0
1429,G4,126.0,4.0,63,108.0
1430,C4,126.0,4.0,63,108.0
1431,G3,126.0,4.0,63,108.0
1432,A2,126.0,4.0,63,108.0
1433,F#4,126.0,4.0,95,108.0
1434,D4,126.0,4.0,95,108.0
1435,A3,126.0,4.0,95,108.0
1436,G#2,126.0,0.25,79,108.0
1437,B1,126.0,0.25,79,108.0
1438,G#2,126.25,0.25,63,108.0
1439,D2,126.5,0.5,95,108.0
1440,G#2,126.5,0.25,84,108.0
1441,B1,126.5,0.25,84,108.0
1442,F#2,126.5,0.25,84,108.0
1443,G#2,126.75,0.25,79,108.0
1444,F#2,126.75,0.25,79,108.0
1445,G#2,127.0,0.25,79,108.0
1446,D2,127.0,0.25,79,108.0
1447,G#2,127.25,0.25,63,108.0
1448,D4,127.5,2.5,95,108.0
1449,D5,127.5,2.5,95,108.0
1450,D2,127.5,0.75,95,108.0
1451,G#2,127.5,0.25,84,108.0
1452,B1,127.5,0.25,84,108.0
1453,F#2,127.5,0.25,84,108.0
1454,G#2,127.75,0.25,79,108.0
1455,F#2,127.75,0.25,79,108.0
1456,G#2,128.0,0.25,63,108.0
1457,G1,128.25,0.25,95,108.0
1458,G#2,128.25,0.25,79,108.0
1459,B1,128.25,0.25,79,108.0
1460,A1,128.5,0.25,95,108.0
1461,G#2,128.5,0.25,79,108.0
1462,B1,128.5,0.25,79,108.0
1463,G1,128.75,0.25,95,108.0
1464,G#2,128.75,0.25,63,108.0
1465,B1,129.0,0.5,95,108.0
1466,G#2,129.0,0.25,79,108.0
1467,D2,129.0,0.25,79,108.0
1468,G#2,129.25,0.25,79,108.0
1469,F#2,129.25,0.25,79,108.0
1470,C2,129.5,0.5,95,108.0
1471,G#2,129.5,0.25,63,108.0
1472,G#2,129.75,0.25,79,108.0
1473,F#2,129.75,0.25,79,108.0
1474,D4,130.0,4.0,95,108.0
1475,D5,130.0,4.0,95,108.0
1476,D2,130.0,0.5,95,108.0
1477,E4,130.0,4.0,95,108.0
1478,C4,130.0,4.0,95,108.0
1479,G3,130.0,4.0,95,108.0
1480,G#2,130.0,0.25,79,108.0
1481,B1,130.0,0.25,79,108.0
1482,G#2,130.25,0.25,63,108.0
1483,A3,130.5,0.125,63,108.0
1484,D2,130.5,0.5,95,108.0
1485,G#2,130.5,0.25,84,108.0
1486,B1,130.5,0.25,84,108.0
1487,F#2,130.5,0.25,84,108.0
1488,D4,130.625,0.125,79,108.0
1489,E4,130.75,0.125,95,108.0
1490,G#2,130.75,0.25,79,108.0
1491,F#2,130.75,0.25,79,108.0
1492,A4,130.875,0.125,95,108.0
1493,F#4,131.0,0.125,95,108.0
1494,G#2,131.0,0.25,79,108.0
1495,D2,131.0,0.25,79,108.0
1496,E4,131.125,0.125,95,108.0
1497,D4,131.25,0.125,79,108.0
1498,G#2,131.25,0.25,63,108.0
1499,A3,131.375,0.25,63,108.0
1500,D2,131.5,0.25,95,108.0
1501,G#2,131.5,0.25,84,108.0
1502,B1,131.5,0.25,84,108.0
1503,F#2,131.5,0.25,84,108.0
1504,D2,131.75,0.5,95,108.0
1505,G#2,131.75,0.25,74,108.0
1506,F#2,131.75,0.25,74,108.0
1507,E-6,131.75,0.25,74,108.0
1508,G#2,132.0,0.25,63,108.0
1509,D4,132.125,0.125,63,108.0
1510,E4,132.25,0.125,79,108.0
1511,C2,132.25,0.25,95,108.0
1512,G#2,132.25,0.25,74,108.0
1513,B1,132.25,0.25,74,108.0
1514,E-6,132.25,0.25,74,108.0
1515,A4,132.375,0.125,95,108.0
1516,D5,132.5,0.125,95,108.0
1517,D2,132.5,0.5,95,108.0
1518,G#2,132.5,0.25,74,108.0
1519,B1,132.5,0.25,74,108.0
1520,E-6,132.5,0.25,74,108.0
1521,E5,132.625,0.125,95,108.0
1522,A5,132.75,0.125,95,108.0
1523,G#2,132.75,0.25,63,108.0
1524,E5,132.875,0.125,95,108.0
1525,D5,133.0,0.125,95,108.0
1526,D2,133.0,0.5,95,108.0
1527,G#2,133.0,0.25,74,108.0
1528,D2,133.0,0.25,74,108.0
1529,E-6,133.0,0.25,74,108.0
1530,A4,133.125,0.125,95,108.0
1531,G4,133.25,0.125,95,108.0
1532,G#2,133.25,0.25,79,108.0
1533,F#2,133.25,0.25,79,108.0
1534,E4,133.375,0.125,95,108.0
1535,D4,133.5,0.125,79,108.0
1536,D2,133.5,0.5,95,108.0
1537,G#2,133.5,0.25,63,108.0
1538,D4,133.625,0.125,63,108.0
1539,G#2,133.75,0.25,79,108.0
1540,F#2,133.75,0.25,79,108.0
1541,E4,134.0,1.5,95,108.0
1542,E5,134.0,1.5,95,108.0
1543,E1,134.0,0.5,95,108.0
1544,G4,134.0,4.0,63,108.0
1545,C4,134.0,4.0,63,108.0
1546,G3,134.0,4.0,63,108.0
1547,A2,134.0,4.0,63,108.0
1548,G#2,134.0,0.25,84,108.0
1549,B1,134.0,0.25,84,108.0
1550,A3,134.0,0.25,84,108.0
1551,G#2,134.25,0.25,63,108.0
1552,E1,134.5,0.25,95,108.0
1553,G#2,134.5,0.25,84,108.0
1554,B1,134.5,0.25,84,108.0
1555,F#2,134.5,0.25,84,108.0
1556,G#2,134.75,0.25,79,108.0
1557,F#2,134.75,0.25,79,108.0
1558,G#2,135.0,0.25,79,108.0
1559,D2,135.0,0.25,79,108.0
1560,G#2,135.25,0.25,63,108.0
1561,B3,135.5,2.5,95,108.0
1562,B4,135.5,2.5,95,108.0
1563,E1,135.5,0.75,95,108.0
1564,G#2,135.5,0.25,84,108.0
1565,B1,135.5,0.25,84,108.0
1566,F#2,135.5,0.25,84,108.0
1567,G#2,135.75,0.25,79,108.0
1568,F#2,135.75,0.25,79,108.0
1569,G#2,136.0,0.25,63,108.0
1570,E1,136.25,0.25,95,108.0
1571,G#2,136.25,0.25,79,108.0
1572,B1,136.25,0.25,79,108.0
1573,E1,136.5,0.25,95,108.0
1574,G#2,136.5,0.25,79,108.0
1575,B1,136.5,0.25,79,108.0
1576,G#2,136.75,0.25,63,108.0
1577,E1,137.0,0.25,95,108.0
1578,G#2,137.0,0.25,79,108.0
1579,D2,137.0,0.25,79,108.0
1580,F#1,137.25,0.25,95,108.0
1581,G#2,137.25,0.25,79,108.0
1582,F#2,137.25,0.25,79,108.0
1583,G#1,137.5,0.25,95,108.0
1584,G#2,137.5,0.25,63,108.0
1585,E1,137.75,0.25,95,108.0
1586,G#2,137.75,0.25,79,108.0
1587,F#2,137.75,0.25,79,108.0
1588,B3,138.0,1.5,95,108.0
1589,B4,138.0,1.5,95,108.0
1590,E1,138.0,0.5,95,108.0
1591,G4,138.0,4.0,63,108.0
1592,D4,138.0,4.0,63,108.0
1593,A3,138.0,4.0,63,108.0
1594,D3,138.0,4.0,63,108.0
1595,E4,138.0,4.0,95,108.0
1596,C4,138.0,4.0,95,108.0
1597,G3,138.0,4.0,95,108.0
1598,G#2,138.0,0.25,79,108.0
1599,B1,138.0,0.25,79,108.0
1600,G#2,138.25,0.25,63,108.0
1601,E1,138.5,0.75,95,108.0
1602,G#2,138.5,0.25,84,108.0
1603,B1,138.5,0.25,84,108.0
1604,F#2,138.5,0.25,84,108.0
1605,G#2,138.75,0.25,79,108.0
1606,F#2,138.75,0.25,79,108.0
1607,G#2,139.0,0.25,79,108.0
1608,D2,139.0,0.25,79,108.0
1609,G#2,139.25,0.25,63,108.0
1610,B3,139.5,0.5,95,108.0
1611,B4,139.5,0.5,95,108.0
1612,E1,139.5,0.25,95,108.0
1613,G#2,139.5,0.25,84,108.0
1614,B1,139.5,0.25,84,108.0
1615,F#2,139.5,0.25,84,108.0
1616,E1,139.75,0.5,95,108.0
1617,G#2,139.75,0.25,79,108.0
1618,F#2,139.75,0.25,79,108.0
1619,G#4,140.0,0.5,95,108.0
1620,G#5,140.0,0.5,95,108.0
1621,G#2,140.0,0.25,63,108.0
1622,E1,140.25,0.25,95,108.0
1623,G#2,140.25,0.25,79,108.0
1624,B1,140.25,0.25,79,108.0
1625,A4,140.5,0.5,95,108.0
1626,A5,140.5,0.5,95,108.0
1627,E1,140.5,0.25,95,108.0
1628,G#2,140.5,0.25,79,108.0
1629,B1,140.5,0.25,79,108.0
1630,G#2,140.75,0.25,63,108.0
1631,A4,141.0,1.0,95,108.0
1632,B5,141.0,1.0,95,108.0
1633,E1,141.0,0.25,95,108.0
1634,G#2,141.0,0.25,79,108.0
1635,D2,141.0,0.25,79,108.0
1636,F#1,141.25,0.25,95,108.0
1637,G#2,141.25,0.25,79,108.0
1638,F#2,141.25,0.25,79,108.0
1639,G#1,141.5,0.25,95,108.0
1640,G#2,141.5,0.25,79,108.0
1641,B1,141.5,0.25,79,108.0
1642,F#1,141.75,0.25,95,108.0
1643,G#2,141.75,0.25,79,108.0
1644,F#2,141.75,0.25,79,108.0
1645,A4,142.0,1.5,95,108.0
1646,A5,142.0,1.5,95,108.0
1647,B1,142.0,0.5,95,108.0
1648,D4,142.0,4.0,95,108.0
1649,A3,142.0,4.0,95,108.0
1650,F#3,142.0,4.0,95,108.0
1651,G#2,142.0,0.25,79,108.0
1652,B1,142.0,0.25,79,108.0
1653,G#2,142.25,0.25,63,108.0
1654,B1,142.5,0.25,95,108.0
1655,G#2,142.5,0.25,84,108.0
1656,B1,142.5,0.25,84,108.0
1657,F#2,142.5,0.25,84,108.0
1658,G#2,142.75,0.25,79,108.0
1659,F#2,142.75,0.25,79,108.0
1660,G#2,143.0,0.25,79,108.0
1661,D2,143.0,0.25,79,108.0
1662,G#2,143.25,0.25,63,108.0
1663,G#4,143.5,1.5,95,108.0
1664,G#5,143.5,1.5,95,108.0
1665,B1,143.5,0.75,95,108.0
1666,G#2,143.5,0.25,84,108.0
1667,B1,143.5,0.25,84,108.0
1668,F#2,143.5,0.25,84,108.0
1669,G#2,143.75,0.25,79,108.0
1670,F#2,143.75,0.25,79,108.0
1671,G#2,144.0,0.25,63,108.0
1672,F#1,144.25,0.25,95,108.0
1673,G#2,144.25,0.25,79,108.0
1674,B1,144.25,0.25,79,108.0
1675,B1,144.5,0.25,95,108.0
1676,G#2,144.5,0.25,79,108.0
1677,B1,144.5,0.25,79,108.0
1678,F#1,144.75,0.25,95,108.0
1679,G#2,144.75,0.25,63,108.0
1680,F#4,145.0,1.0,95,108.0
1681,F#5,145.0,1.0,95,108.0
1682,B1,145.0,0.5,95,108.0
1683,G#2,145.0,0.25,79,108.0
1684,D2,145.0,0.25,79,108.0
1685,G#2,145.25,0.25,79,108.0
1686,F#2,145.25,0.25,79,108.0
1687,B1,145.5,0.5,95,108.0
1688,G#2,145.5,0.25,63,108.0
1689,G#2,145.75,0.25,79,108.0
1690,F#2,145.75,0.25,79,108.0
1691,F#4,146.0,2.0,95,108.0
1692,F#5,146.0,2.0,95,108.0
1693,B1,146.0,0.5,95,108.0
1694,G4,146.0,4.0,63,108.0
1695,D4,146.0,4.0,63,108.0
1696,A3,146.0,4.0,63,108.0
1697,D3,146.0,4.0,63,108.0
1698,G#2,146.0,0.25,79,108.0
1699,B1,146.0,0.25,79,108.0
1700,G#2,146.25,0.25,63,108.0
1701,B1,146.5,0.25,95,108.0
1702,G#2,146.5,0.25,84,108.0
1703,B1,146.5,0.25,84,108.0
1704,F#2,146.5,0.25,84,108.0
1705,G#2,146.75,0.25,79,108.0
1706,F#2,146.75,0.25,79,108.0
1707,G#2,147.0,0.25,79,108.0
1708,D2,147.0,0.25,79,108.0
1709,G#2,147.25,0.25,63,108.0
1710,B1,147.5,0.75,95,108.0
1711,G#2,147.5,0.25,84,108.0
1712,B1,147.5,0.25,84,108.0
1713,F#2,147.5,0.25,84,108.0
1714,G#2,147.75,0.25,79,108.0
1715,F#2,147.75,0.25,79,108.0
1716,F#4,148.0,0.5,95,108.0
1717,F#5,148.0,0.5,95,108.0
1718,G#2,148.0,0.25,63,108.0
1719,G#1,148.25,0.25,95,108.0
1720,G#2,148.25,0.25,79,108.0
1721,B1,148.25,0.25,79,108.0
1722,G4,148.5,0.5,95,108.0
1723,G5,148.5,0.5,95,108.0
1724,B1,148.5,0.25,95,108.0
1725,G#2,148.5,0.25,79,108.0
1726,B1,148.5,0.25,79,108.0
1727,G#2,148.75,0.25,63,108.0
1728,G4,149.0,0.5,95,108.0
1729,A5,149.0,0.5,95,108.0
1730,B1,149.0,0.5,95,108.0
1731,G#2,149.0,0.25,79,108.0
1732,D2,149.0,0.25,79,108.0
1733,G#2,149.25,0.25,79,108.0
1734,F#2,149.25,0.25,79,108.0
1735,G4,149.5,0.5,95,108.0
1736,G5,149.5,0.5,95,108.0
1737,B1,149.5,0.5,95,108.0
1738,G#2,149.5,0.25,79,108.0
1739,B1,149.5,0.25,79,108.0
1740,G#2,149.75,0.25,79,108.0
1741,F#2,149.75,0.25,79,108.0
1742,G4,150.0,0.5,95,108.0
1743,G5,150.0,0.5,95,108.0
1744,A1,150.0,0.5,95,108.0
1745,E4,150.0,4.0,63,108.0
1746,B3,150.0,4.0,63,108.0
1747,G#3,150.0,4.0,63,108.0
1748,E2,150.0,4.0,63,108.0
1749,D4,150.0,4.0,95,108.0
1750,A3,150.0,4.0,95,108.0
1751,F#3,150.0,4.0,95,108.0
1752,G#2,150.0,0.25,79,108.0
1753,B1,150.0,0.25,79,108.0
1754,G#2,150.25,0.25,63,108.0
1755,E4,150.5,3.5,95,108.0
1756,E5,150.5,3.5,95,108.0
1757,A1,150.5,0.25,95,108.0
1758,G#2,150.5,0.25,84,108.0
1759,B1,150.5,0.25,84,108.0
1760,F#2,150.5,0.25,84,108.0
1761,G#2,150.75,0.25,79,108.0
1762,F#2,150.75,0.25,79,108.0
1763,G#2,151.0,0.25,79,108.0
1764,D2,151.0,0.25,79,108.0
1765,G#2,151.25,0.25,63,108.0
1766,A1,151.5,0.75,95,108.0
1767,G#2,151.5,0.25,84,108.0
1768,B1,151.5,0.25,84,108.0
1769,F#2,151.5,0.25,84,108.0
1770,G#2,151.75,0.25,79,108.0
1771,F#2,151.75,0.25,79,108.0
1772,G#2,152.0,0.25,63,108.0
1773,E1,152.25,0.25,95,108.0
1774,G#2,152.25,0.25,79,108.0
1775,B1,152.25,0.25,79,108.0
1776,G1,152.5,0.5,95,108.0
1777,G#2,152.5,0.25,79,108.0
1778,B1,152.5,0.25,79,108.0
1779,G#2,152.75,0.25,63,108.0
1780,A1,153.0,1.0,95,108.0
1781,G#2,153.0,0.25,79,108.0
1782,D2,153.0,0.25,79,108.0
1783,G#2,153.25,0.25,79,108.0
1784,F#2,153.25,0.25,79,108.0
1785,G#2,153.5,0.25,63,108.0
1786,G#2,153.75,0.25,79,108.0
1787,F#2,153.75,0.25,79,108.0
1788,E4,154.0,2.0,95,108.0
1789,E5,154.0,2.0,95,108.0
1790,A1,154.0,0.5,95,108.0
1791,E4,154.0,4.0,95,108.0
1792,B3,154.0,4.0,95,108.0
1793,G#3,154.0,4.0,95,108.0
1794,G#2,154.0,0.25,79,108.0
1795,B1,154.0,0.25,79,108.0
1796,G#2,154.25,0.25,63,108.0
1797,A1,154.5,0.25,95,108.0
1798,G#2,154.5,0.25,84,108.0
1799,B1,154.5,0.25,84,108.0
1800,F#2,154.5,0.25,84,108.0
1801,G#2,154.75,0.25,79,108.0
1802,F#2,154.75,0.25,79,108.0
1803,G#2,155.0,0.25,79,108.0
1804,D2,155.0,0.25,79,108.0
1805,G#2,155.25,0.25,63,108.0
1806,A1,155.5,0.75,95,108.0
1807,G#2,155.5,0.25,84,108.0
1808,B1,155.5,0.25,84,108.0
1809,F#2,155.5,0.25,84,108.0
1810,G#2,155.75,0.25,79,108.0
1811,F#2,155.75,0.25,79,108.0
1812,A3,156.0,0.5,95,108.0
1813,B4,156.0,0.5,95,108.0
1814,G#2,156.0,0.25,63,108.0
1815,G1,156.25,0.25,95,108.0
1816,G#2,156.25,0.25,79,108.0
1817,B1,156.25,0.25,79,108.0
1818,A3,156.5,0.5,95,108.0
1819,A4,156.5,0.5,95,108.0
1820,A1,156.5,0.25,95,108.0
1821,G#2,156.5,0.25,79,108.0
1822,B1,156.5,0.25,79,108.0
1823,G1,156.75,0.25,95,108.0
1824,G#2,156.75,0.25,63,108.0
1825,G3,157.0,0.5,95,108.0
1826,G4,157.0,0.5,95,108.0
1827,B1,157.0,0.5,95,108.0
1828,G#2,157.0,0.25,79,108.0
1829,D2,157.0,0.25,79,108.0
1830,G#2,157.25,0.25,79,108.0
1831,F#2,157.25,0.25,79,108.0
1832,A3,157.5,0.5,95,108.0
1833,A4,157.5,0.5,95,108.0
1834,C2,157.5,0.5,95,108.0
1835,G#2,157.5,0.25,79,108.0
1836,B1,157.5,0.25,79,108.0
1837,G#2,157.75,0.25,79,108.0
1838,F#2,157.75,0.25,79,108.0
1839,A3,158.0,1.5,95,108.0
1840,A4,158.0,1.5,95,108.0
1841,D2,158.0,0.5,95,108.0
1842,E4,158.0,4.0,63,108.0
1843,B3,158.0,4.0,63,108.0
1844,G#3,158.0,4.0,63,108.0
1845,E2,158.0,4.0,63,108.0
1846,G#2,158.0,0.25,79,108.0
1847,B1,158.0,0.25,79,108.0
1848,G#2,158.25,0.25,63,108.0
1849,D2,158.5,0.5,95,108.0
1850,G#2,158.5,0.25,84,108.0
1851,B1,158.5,0.25,84,108.0
1852,F#2,158.5,0.25,84,108.0
1853,G#2,158.75,0.25,79,108.0
1854,F#2,158.75,0.25,79,108.0
1855,G#2,159.0,0.25,79,108.0
1856,D2,159.0,0.25,79,108.0
1857,G#2,159.25,0.25,63,108.0
1858,D4,159.5,2.5,95,108.0
1859,D5,159.5,2.5,95,108.0
1860,D2,159.5,0.75,95,108.0
1861,G#2,159.5,0.25,84,108.0
1862,B1,159.5,0.25,84,108.0
1863,F#2,159.5,0.25,84,108.0
1864,G#2,159.75,0.25,79,108.0
1865,F#2,159.75,0.25,79,108.0
1866,G#2,160.0,0.25,63,108.0
1867,G1,160.25,0.25,95,108.0
1868,G#2,160.25,0.25,79,108.0
1869,B1,160.25,0.25,79,108.0
1870,A1,160.5,0.25,95,108.0
1871,G#2,160.5,0.25,79,108.0
1872,B1,160.5,0.25,79,108.0
1873,G1,160.75,0.25,95,108.0
1874,G#2,160.75,0.25,63,108.0
1875,B1,161.0,0.5,95,108.0
1876,G#2,161.0,0.25,79,108.0
1877,D2,161.0,0.25,79,108.0
1878,G#2,161.25,0.25,79,108.0
1879,F#2,161.25,0.25,79,108.0
1880,C2,161.5,0.5,95,108.0
1881,G#2,161.5,0.25,63,108.0
1882,G#2,161.75,0.25,79,108.0
1883,F#2,161.75,0.25,79,108.0
1884,D4,162.0,4.0,95,108.0
1885,D5,162.0,4.0,95,108.0
1886,D2,162.0,0.5,95,108.0
1887,F#4,162.0,4.0,63,108.0
1888,D4,162.0,4.0,63,108.0
1889,A3,162.0,4.0,63,108.0
1890,B2,162.0,4.0,63,108.0
1891,E4,162.0,4.0,95,108.0
1892,B3,162.0,4.0,95,108.0
1893,G#3,162.0,4.0,95,108.0
1894,G#2,162.0,0.25,79,108.0
1895,B1,162.0,0.25,79,108.0
1896,G#2,162.25,0.25,63,108.0
1897,A3,162.5,0.125,63,108.0
1898,D2,162.5,0.5,95,108.0
1899,G#2,162.5,0.25,84,108.0
1900,B1,162.5,0.25,84,108.0
1901,F#2,162.5,0.25,84,108.0
1902,D4,162.625,0.125,79,108.0
1903,E4,162.75,0.125,95,108.0
1904,G#2,162.75,0.25,79,108.0
1905,F#2,162.75,0.25,79,108.0
1906,A4,162.875,0.125,95,108.0
1907,F#4,163.0,0.125,95,108.0
1908,G#2,163.0,0.25,79,108.0
1909,D2,163.0,0.25,79,108.0
1910,E4,163.125,0.125,95,108.0
1911,D4,163.25,0.125,79,108.0
1912,G#2,163.25,0.25,63,108.0
1913,A3,163.375,0.25,63,108.0
1914,D2,163.5,0.25,95,108.0
1915,G#2,163.5,0.25,84,108.0
1916,B1,163.5,0.25,84,108.0
1917,F#2,163.5,0.25,84,108.0
1918,D2,163.75,0.5,95,108.0
1919,G#2,163.75,0.25,74,108.0
1920,F#2,163.75,0.25,74,108.0
1921,E-6,163.75,0.25,74,108.0
1922,G#2,164.0,0.25,63,108.0
1923,D4,164.125,0.125,63,108.0
1924,E4,164.25,0.125,79,108.0
1925,C2,164.25,0.25,95,108.0
1926,G#2,164.25,0.25,74,108.0
1927,B1,164.25,0.25,74,108.0
1928,E-6,164.25,0.25,74,108.0
1929,A4,164.375,0.125,95,108.0
1930,D5,164.5,0.125,95,108.0
1931,D2,164.5,0.5,95,108.0
1932,G#2,164.5,0.25,74,108.0
1933,B1,164.5,0.25,74,108.0
1934,E-6,164.5,0.25,74,108.0
1935,E5,164.625,0.125,95,108.0
1936,A5,164.75,0.125,95,108.0
1937,G#2,164.75,0.25,63,108.0
1938,E5,164.875,0.125,95,108.0
1939,D5,165.0,0.125,95,108.0
1940,D2,165.0,0.5,95,108.0
1941,G#2,165.0,0.25,74,108.0
1942,D2,165.0,0.25,74,108.0
1943,E-6,165.0,0.25,74,108.0
1944,A4,165.125,0.125,95,108.0
1945,G4,165.25,0.125,95,108.0
1946,G#2,165.25,0.25,79,108.0
1947,F#2,165.25,0.25,79,108.0
1948,E4,165.375,0.125,95,108.0
1949,D4,165.5,0.125,79,108.0
1950,D2,165.5,0.5,95,108.0
1951,G#2,165.5,0.25,63,108.0
1952,D4,165.625,0.125,63,108.0
1953,G#2,165.75,0.25,79,108.0
1954,F#2,165.75,0.25,79,108.0
1955,G1,166.0,0.25,95,108.0
1956,F#4,166.0,4.0,95,108.0
1957,D4,166.0,4.0,95,108.0
1958,A3,166.0,4.0,95,108.0
1959,G#2,166.0,0.25,74,108.0
1960,B1,166.0,0.25,74,108.0
1961,E-5,166.0,0.25,74,108.0
1962,A1,166.25,0.25,95,108.0
1963,G#2,166.25,0.25,63,108.0
1964,E-5,166.25,0.25,63,108.0
1965,A1,166.5,0.25,95,108.0
1966,G#2,166.5,0.25,74,108.0
1967,B1,166.5,0.25,74,108.0
1968,E-3,166.5,0.25,74,108.0
1969,G1,166.75,0.25,95,108.0
1970,G#2,166.75,0.25,63,108.0
1971,A1,167.0,0.5,95,108.0
1972,G#2,167.0,0.25,74,108.0
1973,D2,167.0,0.25,74,108.0
1974,E-5,167.0,0.25,74,108.0
1975,G#2,167.25,0.25,63,108.0
1976,E-3,167.25,0.25,63,108.0
1977,G1,167.5,0.25,95,108.0
1978,G#2,167.5,0.25,79,108.0
1979,B1,167.5,0.25,79,108.0
1980,A1,167.75,0.25,95,108.0
1981,G#2,167.75,0.25,63,108.0
1982,E-5,167.75,0.25,63,108.0
1983,G#2,168.0,0.25,63,108.0
1984,E-3,168.0,0.25,63,108.0
1985,G1,168.25,0.25,95,108.0
1986,G#2,168.25,0.25,79,108.0
1987,B1,168.25,0.25,79,108.0
1988,G1,168.5,0.25,95,108.0
1989,G#2,168.5,0.25,79,108.0
1990,B1,168.5,0.25,79,108.0
1991,A1,168.75,0.25,95,108.0
1992,G#2,168.75,0.25,63,108.0
1993,E-5,168.75,0.25,63,108.0
1994,A1,169.0,0.5,95,108.0
1995,G#2,169.0,0.25,74,108.0
1996,D2,169.0,0.25,74,108.0
1997,E-3,169.0,0.25,74,108.0
1998,G#2,169.25,0.25,63,108.0
1999,G1,169.5,0.25,95,108.0
2000,G#2,169.5,0.25,74,108.0
2001,B1,169.5,0.25,74,108.0
2002,E-5,169.5,0.25,74,108.0
2003,G1,169.75,0.25,95,108.0
2004,G#2,169.75,0.25,63,108.0
2005,E-5,169.75,0.25,63,108.0
2006,G5,170.0,4.0,47,108.0
2007,G1,170.0,0.25,95,108.0
2008,F#4,170.0,4.0,63,108.0
2009,D4,170.0,4.0,63,108.0
2010,A3,170.0,4.0,63,108.0
2011,B2,170.0,4.0,63,108.0
2012,G#2,170.0,0.25,74,108.0
2013,B1,170.0,0.25,74,108.0
2014,E-5,170.0,0.25,74,108.0
2015,A1,170.25,0.25,95,108.0
2016,G#2,170.25,0.25,63,108.0
2017,E-5,170.25,0.25,63,108.0
2018,A1,170.5,0.25,95,108.0
2019,G#2,170.5,0.25,74,108.0
2020,B1,170.5,0.25,74,108.0
2021,E-3,170.5,0.25,74,108.0
2022,G1,170.75,0.25,95,108.0
2023,G#2,170.75,0.25,63,108.0
2024,A1,171.0,0.5,95,108.0
2025,G#2,171.0,0.25,74,108.0
2026,D2,171.0,0.25,74,108.0
2027,E-5,171.0,0.25,74,108.0
2028,G#2,171.25,0.25,63,108.0
2029,E-3,171.25,0.25,63,108.0
2030,G1,171.5,0.25,95,108.0
2031,G#2,171.5,0.25,79,108.0
2032,B1,171.5,0.25,79,108.0
2033,A1,171.75,0.25,95,108.0
2034,G#2,171.75,0.25,63,108.0
2035,E-5,171.75,0.25,63,108.0
2036,G#2,172.0,0.25,63,108.0
2037,E-3,172.0,0.25,63,108.0
2038,G#2,172.25,0.25,79,108.0
2039,B1,172.25,0.25,79,108.0
2040,G1,172.5,0.5,95,108.0
2041,G#2,172.5,0.25,79,108.0
2042,B1,172.5,0.25,79,108.0
2043,G#2,172.75,0.25,63,108.0
2044,E-5,172.75,0.25,63,108.0
2045,G1,173.0,0.5,95,108.0
2046,G#2,173.0,0.25,74,108.0
2047,D2,173.0,0.25,74,108.0
2048,E-3,173.0,0.25,74,108.0
2049,G#2,173.25,0.25,63,108.0
2050,A1,173.5,0.5,95,108.0
2051,G#2,173.5,0.25,74,108.0
2052,B1,173.5,0.25,74,108.0
2053,E-5,173.5,0.25,74,108.0
2054,G#2,173.75,0.25,63,108.0
2055,E-5,173.75,0.25,63,108.0
2056,G5,174.0,4.0,47,108.0
2057,G1,174.0,0.25,95,108.0
2058,G4,174.0,4.0,63,108.0
2059,C4,174.0,4.0,63,108.0
2060,G3,174.0,4.0,63,108.0
2061,A2,174.0,4.0,63,108.0
2062,F#4,174.0,4.0,95,108.0
2063,D4,174.0,4.0,95,108.0
2064,A3,174.0,4.0,95,108.0
2065,G#2,174.0,0.25,74,108.0
2066,B1,174.0,0.25,74,108.0
2067,E-5,174.0,0.25,74,108.0
2068,A1,174.25,0.25,95,108.0
2069,G#2,174.25,0.25,63,108.0
2070,E-5,174.25,0.25,63,108.0
2071,A1,174.5,0.25,95,108.0
2072,G#2,174.5,0.25,74,108.0
2073,B1,174.5,0.25,74,108.0
2074,E-3,174.5,0.25,74,108.0
2075,G1,174.75,0.25,95,108.0
2076,G#2,174.75,0.25,63,108.0
2077,A1,175.0,0.5,95,108.0
2078,G#2,175.0,0.25,74,108.0
2079,D2,175.0,0.25,74,108.0
2080,E-5,175.0,0.25,74,108.0
2081,G#2,175.25,0.25,63,108.0
2082,E-3,175.25,0.25,63,108.0
2083,G1,175.5,0.25,95,108.0
2084,G#2,175.5,0.25,79,108.0
2085,B1,175.5,0.25,79,108.0
2086,A1,175.75,0.25,95,108.0
2087,G#2,175.75,0.25,63,108.0
2088,E-5,175.75,0.25,63,108.0
2089,G#2,176.0,0.25,63,108.0
2090,E-3,176.0,0.25,63,108.0
2091,G#2,176.25,0.25,79,108.0
2092,B1,176.25,0.25,79,108.0
2093,G1,176.5,0.5,95,108.0
2094,G#2,176.5,0.25,79,108.0
2095,B1,176.5,0.25,79,108.0
2096,G#2,176.75,0.25,63,108.0
2097,E-5,176.75,0.25,63,108.0
2098,G1,177.0,0.5,95,108.0
2099,G#2,177.0,0.25,74,108.0
2100,D2,177.0,0.25,74,108.0
2101,E-3,177.0,0.25,74,108.0
2102,G#2,177.25,0.25,63,108.0
2103,A1,177.5,0.5,95,108.0
2104,G#2,177.5,0.25,74,108.0
2105,B1,177.5,0.25,74,108.0
2106,E-5,177.5,0.25,74,108.0
2107,G#2,177.75,0.25,63,108.0
2108,E-5,177.75,0.25,63,108.0
2109,G5,178.0,4.0,47,108.0
2110,G1,178.0,0.25,95,108.0
2111,E4,178.0,4.0,95,108.0
2112,C4,178.0,4.0,95,108.0
2113,G3,178.0,4.0,95,108.0
2114,G#2,178.0,0.25,74,108.0
2115,B1,178.0,0.25,74,108.0
2116,E-5,178.0,0.25,74,108.0
2117,A1,178.25,0.25,95,108.0
2118,G#2,178.25,0.25,63,108.0
2119,E-5,178.25,0.25,63,108.0
2120,A1,178.5,0.25,95,108.0
2121,G#2,178.5,0.25,74,108.0
2122,B1,178.5,0.25,74,108.0
2123,E-3,178.5,0.25,74,108.0
2124,G1,178.75,0.25,95,108.0
2125,G#2,178.75,0.25,63,108.0
2126,A1,179.0,0.5,95,108.0
2127,G#2,179.0,0.25,74,108.0
2128,D2,179.0,0.25,74,108.0
2129,E-5,179.0,0.25,74,108.0
2130,G#2,179.25,0.25,63,108.0
2131,E-3,179.25,0.25,63,108.0
2132,G1,179.5,0.25,95,108.0
2133,G#2,179.5,0.25,79,108.0
2134,B1,179.5,0.25,79,108.0
2135,D2,179.5,0.25,79,108.0
2136,A1,179.75,0.25,95,108.0
2137,G#2,179.75,0.25,63,108.0
2138,E-5,179.75,0.25,63,108.0
2139,G#2,180.0,0.25,68,108.0
2140,D2,180.0,0.25,68,108.0
2141,E-3,180.0,0.25,68,108.0
2142,G#2,180.25,0.25,79,108.0
2143,B1,180.25,0.25,79,108.0
2144,D2,180.25,0.25,79,108.0
2145,G1,180.5,0.5,95,108.0
2146,G#2,180.5,0.25,79,108.0
2147,B1,180.5,0.25,79,108.0
2148,G#2,180.75,0.25,68,108.0
2149,D2,180.75,0.25,68,108.0
2150,E-5,180.75,0.25,68,108.0
2151,G1,181.0,0.5,95,108.0
2152,G#2,181.0,0.25,74,108.0
2153,D2,181.0,0.25,74,108.0
2154,E-3,181.0,0.25,74,108.0
2155,G#2,181.25,0.25,63,108.0
2156,A1,181.5,0.5,95,108.0
2157,G#2,181.5,0.25,75,108.0
2158,B1,181.5,0.25,75,108.0
2159,D2,181.5,0.25,75,108.0
2160,E-5,181.5,0.25,75,108.0
2161,G#2,181.75,0.25,68,108.0
2162,D2,181.75,0.25,68,108.0
2163,E-5,181.75,0.25,68,108.0
2164,A4,182.0,4.0,47,108.0
2165,G4,182.0,1.0,95,108.0
2166,G5,182.0,1.0,95,108.0
2167,A1,182.0,0.25,95,108.0
2168,G4,182.0,4.0,63,108.0
2169,C4,182.0,4.0,63,108.0
2170,G3,182.0,4.0,63,108.0
2171,A2,182.0,4.0,63,108.0
2172,G#2,182.0,0.25,84,108.0
2173,B1,182.0,0.25,84,108.0
2174,E3,182.0,0.25,84,108.0
2175,G1,182.25,0.25,79,108.0
2176,G#2,182.25,0.25,63,108.0
2177,F1,182.5,0.25,63,108.0
2178,G#2,182.5,0.25,79,108.0
2179,B1,182.5,0.25,79,108.0
2180,G1,182.75,0.25,47,108.0
2181,G#2,182.75,0.25,63,108.0
2182,A1,183.0,0.5,95,108.0
2183,G#2,183.0,0.25,79,108.0
2184,D2,183.0,0.25,79,108.0
2185,G#2,183.25,0.25,63,108.0
2186,A1,183.5,0.5,95,108.0
2187,G#2,183.5,0.25,79,108.0
2188,F#2,183.5,0.25,79,108.0
2189,G#2,183.75,0.25,63,108.0
2190,G#2,184.0,0.25,63,108.0
2191,E1,184.25,0.125,95,108.0
2192,G#2,184.25,0.25,84,108.0
2193,B1,184.25,0.25,84,108.0
2194,F#2,184.25,0.25,84,108.0
2195,G1,184.5,0.5,95,108.0
2196,G#2,184.5,0.25,84,108.0
2197,B1,184.5,0.25,84,108.0
2198,F#2,184.5,0.25,84,108.0
2199,G#2,184.75,0.25,63,108.0
2200,G1,185.0,1.0,95,108.0
2201,G#2,185.0,0.25,79,108.0
2202,D2,185.0,0.25,79,108.0
2203,G#2,185.25,0.25,63,108.0
2204,G#2,185.5,0.25,79,108.0
2205,B1,185.5,0.25,79,108.0
2206,G#2,185.75,0.25,79,108.0
2207,F#2,185.75,0.25,79,108.0
2208,A4,186.0,4.0,47,108.0
2209,F1,186.0,0.5,95,108.0
2210,G4,186.0,4.0,63,108.0
2211,D4,186.0,4.0,63,108.0
2212,A3,186.0,4.0,63,108.0
2213,D3,186.0,4.0,63,108.0
2214,E4,186.0,4.0,95,108.0
2215,C4,186.0,4.0,95,108.0
2216,G3,186.0,4.0,95,108.0
2217,G#2,186.0,0.25,79,108.0
2218,B1,186.0,0.25,79,108.0
2219,G#2,186.25,0.25,63,108.0
2220,F1,186.5,0.5,95,108.0
2221,G#2,186.5,0.25,79,108.0
2222,B1,186.5,0.25,79,108.0
2223,G#2,186.75,0.25,63,108.0
2224,G#2,187.0,0.25,79,108.0
2225,D2,187.0,0.25,79,108.0
2226,G#2,187.25,0.25,63,108.0
2227,F1,187.5,0.25,95,108.0
2228,G#2,187.5,0.25,79,108.0
2229,F#2,187.5,0.25,79,108.0
2230,G#2,187.75,0.25,63,108.0
2231,G#2,188.0,0.25,63,108.0
2232,F1,188.25,0.25,95,108.0
2233,G#2,188.25,0.25,84,108.0
2234,B1,188.25,0.25,84,108.0
2235,F#2,188.25,0.25,84,108.0
2236,G1,188.5,0.5,95,108.0
2237,G#2,188.5,0.25,84,108.0
2238,B1,188.5,0.25,84,108.0
2239,F#2,188.5,0.25,84,108.0
2240,G#2,188.75,0.25,63,108.0
2241,G1,189.0,0.5,95,108.0
2242,G#2,189.0,0.25,79,108.0
2243,D2,189.0,0.25,79,108.0
2244,G#2,189.25,0.25,63,108.0
2245,G#1,189.5,0.5,95,108.0
2246,G#2,189.5,0.25,79,108.0
2247,B1,189.5,0.25,79,108.0
2248,G#2,189.75,0.25,79,108.0
2249,F#2,189.75,0.25,79,108.0
2250,A4,190.0,4.0,47,108.0
2251,A1,190.0,0.5,95,108.0
2252,D4,190.0,4.0,95,108.0
2253,A3,190.0,4.0,95,108.0
2254,F#3,190.0,4.0,95,108.0
2255,G#2,190.0,0.25,79,108.0
2256,B1,190.0,0.25,79,108.0
2257,G#2,190.25,0.25,63,108.0
2258,A1,190.5,0.5,95,108.0
2259,G#2,190.5,0.25,79,108.0
2260,B1,190.5,0.25,79,108.0
2261,G#2,190.75,0.25,63,108.0
2262,G#2,191.0,0.25,79,108.0
2263,D2,191.0,0.25,79,108.0
2264,G#2,191.25,0.25,63,108.0
2265,A1,191.5,0.25,95,108.0
2266,G#2,191.5,0.25,79,108.0
2267,F#2,191.5,0.25,79,108.0
2268,G#2,191.75,0.25,63,108.0
2269,G#2,192.0,0.25,63,108.0
2270,E1,192.25,0.25,95,108.0
2271,G#2,192.25,0.25,84,108.0
2272,B1,192.25,0.25,84,108.0
2273,F#2,192.25,0.25,84,108.0
2274,G1,192.5,0.5,95,108.0
2275,G#2,192.5,0.25,84,108.0
2276,B1,192.5,0.25,84,108.0
2277,F#2,192.5,0.25,84,108.0
2278,G#2,192.75,0.25,63,108.0
2279,G1,193.0,1.0,95,108.0
2280,G#2,193.0,0.25,79,108.0
2281,D2,193.0,0.25,79,108.0
2282,G#2,193.25,0.25,63,108.0
2283,G#2,193.5,0.25,79,108.0
2284,B1,193.5,0.25,79,108.0
2285,G#2,193.75,0.25,79,108.0
2286,F#2,193.75,0.25,79,108.0
2287,A4,194.0,4.0,47,108.0
2288,F1,194.0,0.5,95,108.0
2289,G4,194.0,4.0,63,108.0
2290,D4,194.0,4.0,63,108.0
2291,A3,194.0,4.0,63,108.0
2292,D3,194.0,4.0,63,108.0
2293,G#2,194.0,0.25,79,108.0
2294,B1,194.0,0.25,79,108.0
2295,G#2,194.25,0.25,63,108.0
2296,F1,194.5,0.5,95,108.0
2297,G#2,194.5,0.25,79,108.0
2298,B1,194.5,0.25,79,108.0
2299,G#2,194.75,0.25,63,108.0
2300,C2,195.0,0.5,95,108.0
2301,G#2,195.0,0.25,79,108.0
2302,D2,195.0,0.25,79,108.0
2303,G#2,195.25,0.25,63,108.0
2304,F1,195.5,1.0,95,108.0
2305,G#2,195.5,0.25,79,108.0
2306,F#2,195.5,0.25,79,108.0
2307,G#2,195.75,0.25,63,108.0
2308,G#2,196.0,0.25,63,108.0
2309,G#2,196.25,0.25,84,108.0
2310,B1,196.25,0.25,84,108.0
2311,F#2,196.25,0.25,84,108.0
2312,E2,196.5,0.5,95,108.0
2313,G#2,196.5,0.25,84,108.0
2314,B1,196.5,0.25,84,108.0
2315,F#2,196.5,0.25,84,108.0
2316,G#2,196.75,0.25,63,108.0
2317,D2,197.0,0.25,95,108.0
2318,G#2,197.0,0.25,79,108.0
2319,D2,197.0,0.25,79,108.0
2320,C2,197.25,0.25,95,108.0
2321,G#2,197.25,0.25,63,108.0
2322,A1,197.5,0.5,95,108.0
2323,G#2,197.5,0.25,79,108.0
2324,B1,197.5,0.25,79,108.0
2325,G#2,197.75,0.25,79,108.0
2326,F#2,197.75,0.25,79,108.0
2327,A4,198.0,4.0,47,108.0
2328,A1,198.0,0.25,95,108.0
2329,D4,198.0,4.0,95,108.0
2330,A3,198.0,4.0,95,108.0
2331,F#3,198.0,4.0,95,108.0
2332,G#2,198.0,0.25,79,108.0
2333,B1,198.0,0.25,79,108.0
2334,G1,198.25,0.25,79,108.0
2335,G#2,198.25,0.25,63,108.0
2336,A1,198.5,0.25,79,108.0
2337,G#2,198.5,0.25,79,108.0
2338,B1,198.5,0.25,79,108.0
2339,A1,198.75,0.25,63,108.0
2340,G#2,198.75,0.25,63,108.0
2341,G#2,199.0,0.25,79,108.0
2342,D2,199.0,0.25,79,108.0
2343,G#2,199.25,0.25,63,108.0
2344,A1,199.5,0.5,95,108.0
2345,G#2,199.5,0.25,79,108.0
2346,F#2,199.5,0.25,79,108.0
2347,G#2,199.75,0.25,63,108.0
2348,G#2,200.0,0.25,63,108.0
2349,E1,200.25,0.125,95,108.0
2350,G#2,200.25,0.25,84,108.0
2351,B1,200.25,0.25,84,108.0
2352,F#2,200.25,0.25,84,108.0
2353,G1,200.5,0.5,95,108.0
2354,G#2,200.5,0.25,84,108.0
2355,B1,200.5,0.25,84,108.0
2356,F#2,200.5,0.25,84,108.0
2357,G#2,200.75,0.25,63,108.0
2358,G1,201.0,1.0,95,108.0
2359,G#2,201.0,0.25,79,108.0
2360,D2,201.0,0.25,79,108.0
2361,G#2,201.25,0.25,63,108.0
2362,G#2,201.5,0.25,79,108.0
2363,B1,201.5,0.25,79,108.0
2364,G#2,201.75,0.25,79,108.0
2365,F#2,201.75,0.25,79,108.0
2366,A4,202.0,4.0,47,108.0
2367,A2,202.0,4.0,63,108.0
2368,F1,202.0,0.5,95,108.0
2369,G#2,202.0,0.25,79,108.0
2370,B1,202.0,0.25,79,108.0
2371,G#2,202.25,0.25,63,108.0
2372,F1,202.5,0.5,95,108.0
2373,G#2,202.5,0.25,79,108.0
2374,B1,202.5,0.25,79,108.0
2375,G#2,202.75,0.25,63,108.0
2376,G#2,203.0,0.25,79,108.0
2377,D2,203.0,0.25,79,108.0
2378,G#2,203.25,0.25,63,108.0
2379,F1,203.5,0.25,95,108.0
2380,G#2,203.5,0.25,79,108.0
2381,F#2,203.5,0.25,79,108.0
2382,G#2,203.75,0.25,63,108.0
2383,G#2,204.0,0.25,63,108.0
2384,F1,204.25,0.25,95,108.0
2385,G#2,204.25,0.25,84,108.0
2386,B1,204.25,0.25,84,108.0
2387,F#2,204.25,0.25,84,108.0
2388,G1,204.5,0.5,95,108.0
2389,G#2,204.5,0.25,84,108.0
2390,B1,204.5,0.25,84,108.0
2391,F#2,204.5,0.25,84,108.0
2392,G#2,204.75,0.25,63,108.0
2393,G1,205.0,1.0,95,108.0
2394,G#2,205.0,0.25,79,108.0
2395,D2,205.0,0.25,79,108.0
2396,G#2,205.25,0.25,63,108.0
2397,G#2,205.5,0.25,79,108.0
2398,B1,205.5,0.25,79,108.0
2399,G#2,205.75,0.25,79,108.0
2400,F#2,205.75,0.25,79,108.0
2401,A4,206.0,4.0,47,108.0
2402,E4,206.0,4.0,63,108.0
2403,A2,206.0,4.0,63,108.0
2404,A1,206.0,0.5,95,108.0
2405,G#2,206.0,0.25,79,108.0
2406,B1,206.0,0.25,79,108.0
2407,G#2,206.25,0.25,63,108.0
2408,A1,206.5,0.5,95,108.0
2409,G#2,206.5,0.25,79,108.0
2410,B1,206.5,0.25,79,108.0
2411,G#2,206.75,0.25,63,108.0
2412,G#2,207.0,0.25,79,108.0
2413,D2,207.0,0.25,79,108.0
2414,G#2,207.25,0.25,63,108.0
2415,A1,207.5,0.25,95,108.0
2416,G#2,207.5,0.25,79,108.0
2417,F#2,207.5,0.25,79,108.0
2418,G#2,207.75,0.25,63,108.0
2419,G#2,208.0,0.25,63,108.0
2420,E1,208.25,0.25,95,108.0
2421,G#2,208.25,0.25,84,108.0
2422,B1,208.25,0.25,84,108.0
2423,F#2,208.25,0.25,84,108.0
2424,G1,208.5,0.5,95,108.0
2425,G#2,208.5,0.25,84,108.0
2426,B1,208.5,0.25,84,108.0
2427,F#2,208.5,0.25,84,108.0
2428,G#2,208.75,0.25,63,108.0
2429,G1,209.0,1.0,95,108.0
2430,G#2,209.0,0.25,79,108.0
2431,D2,209.0,0.25,79,108.0
2432,G#2,209.25,0.25,63,108.0
2433,G#2,209.5,0.25,79,108.0
2434,B1,209.5,0.25,79,108.0
2435,G#2,209.75,0.25,79,108.0
2436,F#2,209.75,0.25,79,108.0
2437,A4,210.0,4.0,47,108.0
2438,G4,210.0,4.0,63,108.0
2439,E4,210.0,4.0,63,108.0
2440,A2,210.0,4.0,63,108.0
2441,D2,210.0,0.5,95,108.0
2442,G#2,210.0,0.25,79,108.0
2443,B1,210.0,0.25,79,108.0
2444,G#2,210.25,0.25,63,108.0
2445,D2,210.5,0.5,95,108.0
2446,G#2,210.5,0.25,79,108.0
2447,B1,210.5,0.25,79,108.0
2448,G#2,210.75,0.25,63,108.0
2449,G#2,211.0,0.25,79,108.0
2450,D2,211.0,0.25,79,108.0
2451,G#2,211.25,0.25,63,108.0
2452,D2,211.5,0.25,95,108.0
2453,G#2,211.5,0.25,79,108.0
2454,F#2,211.5,0.25,79,108.0
2455,G#2,211.75,0.25,63,108.0
2456,G#2,212.0,0.25,63,108.0
2457,E1,212.25,0.25,95,108.0
2458,G#2,212.25,0.25,84,108.0
2459,B1,212.25,0.25,84,108.0
2460,F#2,212.25,0.25,84,108.0
2461,G1,212.5,0.25,95,108.0
2462,G#2,212.5,0.25,87,108.0
2463,B1,212.5,0.25,87,108.0
2464,F#2,212.5,0.25,87,108.0
2465,E-6,212.5,0.25,87,108.0
2466,A1,212.75,0.25,95,108.0
2467,G#2,212.75,0.25,63,108.0
2468,D2,213.0,0.5,95,108.0
2469,G#2,213.0,0.25,84,108.0
2470,D2,213.0,0.25,84,108.0
2471,E-6,213.0,0.25,84,108.0
2472,G#2,213.25,0.25,63,108.0
2473,E-6,213.25,0.25,63,108.0
2474,D2,213.5,0.5,95,108.0
2475,G#2,213.5,0.25,68,108.0
2476,B1,213.5,0.25,68,108.0
2477,E-6,213.5,0.25,68,108.0
2478,G#2,213.75,0.25,63,108.0
2479,F#2,213.75,0.25,63,108.0
2480,E-6,213.75,0.25,63,108.0
2481,A4,214.0,4.0,47,108.0
2482,G4,214.0,4.0,63,108.0
2483,A1,214.0,0.25,95,108.0
2484,G#2,214.0,0.25,84,108.0
2485,B1,214.0,0.25,84,108.0
2486,A3,214.0,0.25,84,108.0
2487,G1,214.25,0.25,79,108.0
2488,G#2,214.25,0.25,63,108.0
2489,F1,214.5,0.25,63,108.0
2490,G#2,214.5,0.25,79,108.0
2491,B1,214.5,0.25,79,108.0
2492,G1,214.75,0.25,47,108.0
2493,G#2,214.75,0.25,63,108.0
2494,G4,215.0,0.5,95,108.0
2495,A1,215.0,0.5,95,108.0
2496,G#2,215.0,0.25,79,108.0
2497,D2,215.0,0.25,79,108.0
2498,G#2,215.25,0.25,63,108.0
2499,G4,215.5,1.5,95,108.0
2500,A1,215.5,0.5,95,108.0
2501,G#2,215.5,0.25,79,108.0
2502,F#2,215.5,0.25,79,108.0
2503,G#2,215.75,0.25,63,108.0
2504,G#2,216.0,0.25,63,108.0
2505,E1,216.25,0.125,95,108.0
2506,G#2,216.25,0.25,84,108.0
2507,B1,216.25,0.25,84,108.0
2508,F#2,216.25,0.25,84,108.0
2509,G1,216.5,0.5,95,108.0
2510,G#2,216.5,0.25,84,108.0
2511,B1,216.5,0.25,84,108.0
2512,F#2,216.5,0.25,84,108.0
2513,G#2,216.75,0.25,63,108.0
2514,A4,217.0,0.5,95,108.0
2515,G1,217.0,1.0,95,108.0
2516,G#2,217.0,0.25,79,108.0
2517,D2,217.0,0.25,79,108.0
2518,G#2,217.25,0.25,63,108.0
2519,D4,217.5,0.5,95,108.0
2520,G#2,217.5,0.25,79,108.0
2521,B1,217.5,0.25,79,108.0
2522,G#2,217.75,0.25,79,108.0
2523,F#2,217.75,0.25,79,108.0
2524,D4,218.0,1.0,95,108.0
2525,A4,218.0,4.0,47,108.0
2526,F1,218.0,0.5,95,108.0
2527,E4,218.0,1.5,79,108.0
2528,C4,218.0,1.5,79,108.0
2529,A3,218.0,1.5,79,108.0
2530,G#2,218.0,0.25,79,108.0
2531,B1,218.0,0.25,79,108.0
2532,G#2,218.25,0.25,63,108.0
2533,F1,218.5,0.5,95,108.0
2534,G#2,218.5,0.25,79,108.0
2535,B1,218.5,0.25,79,108.0
2536,G#2,218.75,0.25,63,108.0
2537,G#2,219.0,0.25,79,108.0
2538,D2,219.0,0.25,79,108.0
2539,E4,219.25,0.25,63,108.0
2540,G#2,219.25,0.25,63,108.0
2541,A4,219.5,0.25,79,108.0
2542,F1,219.5,0.25,95,108.0
2543,D4,219.5,2.5,79,108.0
2544,B3,219.5,2.5,79,108.0
2545,G3,219.5,2.5,79,108.0
2546,G#2,219.5,0.25,79,108.0
2547,F#2,219.5,0.25,79,108.0
2548,B4,219.75,0.25,95,108.0
2549,G#2,219.75,0.25,63,108.0
2550,B-4,220.0,0.75,95,108.0
2551,G#2,220.0,0.25,63,108.0
2552,F1,220.25,0.25,95,108.0
2553,G#2,220.25,0.25,84,108.0
2554,B1,220.25,0.25,84,108.0
2555,F#2,220.25,0.25,84,108.0
2556,G1,220.5,0.5,95,108.0
2557,G#2,220.5,0.25,84,108.0
2558,B1,220.5,0.25,84,108.0
2559,F#2,220.5,0.25,84,108.0
2560,B4,220.75,0.25,95,108.0
2561,G#2,220.75,0.25,63,108.0
2562,G1,221.0,0.5,95,108.0
2563,G#2,221.0,0.25,79,108.0
2564,D2,221.0,0.25,79,108.0
2565,G#2,221.25,0.25,63,108.0
2566,G4,221.5,0.5,95,108.0
2567,G#1,221.5,0.5,95,108.0
2568,G#2,221.5,0.25,79,108.0
2569,B1,221.5,0.25,79,108.0
2570,G#2,221.75,0.25,79,108.0
2571,F#2,221.75,0.25,79,108.0
2572,G4,222.0,0.5,95,108.0
2573,A4,222.0,4.0,47,108.0
2574,C4,222.0,1.5,79,108.0
2575,A1,222.0,0.5,95,108.0
2576,E4,222.0,4.0,79,108.0
2577,A3,222.0,4.0,79,108.0
2578,F3,222.0,4.0,79,108.0
2579,G#2,222.0,0.25,79,108.0
2580,B1,222.0,0.25,79,108.0
2581,G#2,222.25,0.25,63,108.0
2582,A4,222.5,0.5,63,108.0
2583,A1,222.5,0.5,95,108.0
2584,G#2,222.5,0.25,79,108.0
2585,B1,222.5,0.25,79,108.0
2586,G#2,222.75,0.25,63,108.0
2587,A4,223.0,2.0,95,108.0
2588,G#2,223.0,0.25,79,108.0
2589,D2,223.0,0.25,79,108.0
2590,G#2,223.25,0.25,63,108.0
2591,B3,223.5,2.5,79,108.0
2592,A1,223.5,0.25,95,108.0
2593,G#2,223.5,0.25,79,108.0
2594,F#2,223.5,0.25,79,108.0
2595,G#2,223.75,0.25,63,108.0
2596,G#2,224.0,0.25,63,108.0
2597,E1,224.25,0.25,95,108.0
2598,G#2,224.25,0.25,84,108.0
2599,B1,224.25,0.25,84,108.0
2600,F#2,224.25,0.25,84,108.0
2601,G1,224.5,0.5,95,108.0
2602,G#2,224.5,0.25,84,108.0
2603,B1,224.5,0.25,84,108.0
2604,F#2,224.5,0.25,84,108.0
2605,G#2,224.75,0.25,63,108.0
2606,G4,225.0,0.25,63,108.0
2607,G1,225.0,1.0,95,108.0
2608,G#2,225.0,0.25,79,108.0
2609,D2,225.0,0.25,79,108.0
2610,G#2,225.25,0.25,63,108.0
2611,D4,225.5,0.5,95,108.0
2612,G#2,225.5,0.25,79,108.0
2613,B1,225.5,0.25,79,108.0
2614,G#2,225.75,0.25,79,108.0
2615,F#2,225.75,0.25,79,108.0
2616,D4,226.0,0.5,95,108.0
2617,A4,226.0,4.0,47,108.0
2618,F1,226.0,0.5,95,108.0
2619,E4,226.0,1.5,79,108.0
2620,C4,226.0,1.5,79,108.0
2621,A3,226.0,1.5,79,108.0
2622,G#2,226.0,0.25,79,108.0
2623,B1,226.0,0.25,79,108.0
2624,G#2,226.25,0.25,63,108.0
2625,G4,226.5,0.5,95,108.0
2626,F1,226.5,0.5,95,108.0
2627,G#2,226.5,0.25,79,108.0
2628,B1,226.5,0.25,79,108.0
2629,G#2,226.75,0.25,63,108.0
2630,D4,227.0,0.5,95,108.0
2631,C2,227.0,0.5,95,108.0
2632,G#2,227.0,0.25,79,108.0
2633,D2,227.0,0.25,79,108.0
2634,G#2,227.25,0.25,63,108.0
2635,D4,227.5,2.5,79,108.0
2636,F1,227.5,1.0,95,108.0
2637,D4,227.5,2.5,79,108.0
2638,B3,227.5,2.5,79,108.0
2639,G3,227.5,2.5,79,108.0
2640,G#2,227.5,0.25,79,108.0
2641,F#2,227.5,0.25,79,108.0
2642,G#2,227.75,0.25,63,108.0
2643,G#2,228.0,0.25,63,108.0
2644,G#2,228.25,0.25,84,108.0
2645,B1,228.25,0.25,84,108.0
2646,F#2,228.25,0.25,84,108.0
2647,E2,228.5,0.5,95,108.0
2648,G#2,228.5,0.25,84,108.0
2649,B1,228.5,0.25,84,108.0
2650,F#2,228.5,0.25,84,108.0
2651,G#2,228.75,0.25,63,108.0
2652,D2,229.0,0.25,95,108.0
2653,G#2,229.0,0.25,79,108.0
2654,D2,229.0,0.25,79,108.0
2655,C2,229.25,0.25,95,108.0
2656,G#2,229.25,0.25,63,108.0
2657,A1,229.5,0.5,95,108.0
2658,G#2,229.5,0.25,79,108.0
2659,B1,229.5,0.25,79,108.0
2660,G#2,229.75,0.25,79,108.0
2661,F#2,229.75,0.25,79,108.0
2662,A4,230.0,4.0,47,108.0
2663,D4,230.0,1.5,79,108.0
2664,A1,230.0,0.25,95,108.0
2665,B3,230.0,4.0,79,108.0
2666,G3,230.0,4.0,79,108.0
2667,G#2,230.0,0.25,79,108.0
2668,B1,230.0,0.25,79,108.0
2669,G1,230.25,0.25,79,108.0
2670,G#2,230.25,0.25,63,108.0
2671,A1,230.5,0.25,79,108.0
2672,G#2,230.5,0.25,79,108.0
2673,B1,230.5,0.25,79,108.0
2674,A1,230.75,0.25,63,108.0
2675,G#2,230.75,0.25,63,108.0
2676,G#2,231.0,0.25,79,108.0
2677,D2,231.0,0.25,79,108.0
2678,E4,231.25,0.25,63,108.0
2679,G#2,231.25,0.25,63,108.0
2680,A4,231.5,0.25,79,108.0
2681,C4,231.5,2.5,79,108.0
2682,A1,231.5,0.5,95,108.0
2683,G#2,231.5,0.25,79,108.0
2684,F#2,231.5,0.25,79,108.0
2685,B4,231.75,0.25,95,108.0
2686,G#2,231.75,0.25,63,108.0
2687,B-4,232.0,0.75,95,108.0
2688,G#2,232.0,0.25,63,108.0
2689,E1,232.25,0.125,95,108.0
2690,G#2,232.25,0.25,84,108.0
2691,B1,232.25,0.25,84,108.0
2692,F#2,232.25,0.25,84,108.0
2693,G1,232.5,0.5,95,108.0
2694,G#2,232.5,0.25,84,108.0
2695,B1,232.5,0.25,84,108.0
2696,F#2,232.5,0.25,84,108.0
2697,D5,232.75,0.25,95,108.0
2698,G#2,232.75,0.25,63,108.0
2699,G1,233.0,1.0,95,108.0
2700,G#2,233.0,0.25,79,108.0
2701,D2,233.0,0.25,79,108.0
2702,C5,233.25,0.25,95,108.0
2703,G#2,233.25,0.25,63,108.0
2704,D5,233.5,0.5,95,108.0
2705,G#2,233.5,0.25,79,108.0
2706,B1,233.5,0.25,79,108.0
2707,G#2,233.75,0.25,79,108.0
2708,F#2,233.75,0.25,79,108.0
2709,D5,234.0,0.5,95,108.0
2710,A4,234.0,4.0,47,108.0
2711,F1,234.0,0.5,95,108.0
2712,E4,234.0,1.5,79,108.0
2713,C4,234.0,1.5,79,108.0
2714,A3,234.0,1.5,79,108.0
2715,G#2,234.0,0.25,79,108.0
2716,B1,234.0,0.25,79,108.0
2717,G#2,234.25,0.25,63,108.0
2718,A4,234.5,0.5,79,108.0
2719,F1,234.5,0.5,95,108.0
2720,G#2,234.5,0.25,79,108.0
2721,B1,234.5,0.25,79,108.0
2722,G#2,234.75,0.25,63,108.0
2723,G#2,235.0,0.25,79,108.0
2724,D2,235.0,0.25,79,108.0
2725,G#2,235.25,0.25,63,108.0
2726,D5,235.5,0.125,95,108.0
2727,F1,235.5,0.25,95,108.0
2728,D4,235.5,2.5,79,108.0
2729,B3,235.5,2.5,79,108.0
2730,G3,235.5,2.5,79,108.0
2731,G#2,235.5,0.25,79,108.0
2732,F#2,235.5,0.25,79,108.0
2733,E5,235.625,0.375,95,108.0
2734,G#2,235.75,0.25,63,108.0
2735,D5,236.0,0.75,95,108.0
2736,G#2,236.0,0.25,63,108.0
2737,F1,236.25,0.25,95,108.0
2738,G#2,236.25,0.25,84,108.0
2739,B1,236.25,0.25,84,108.0
2740,F#2,236.25,0.25,84,108.0
2741,G1,236.5,0.5,95,108.0
2742,G#2,236.5,0.25,84,108.0
2743,B1,236.5,0.25,84,108.0
2744,F#2,236.5,0.25,84,108.0
2745,A4,236.75,0.75,95,108.0
2746,G#2,236.75,0.25,63,108.0
2747,G1,237.0,1.0,95,108.0
2748,G#2,237.0,0.25,79,108.0
2749,D2,237.0,0.25,79,108.0
2750,G#2,237.25,0.25,63,108.0
2751,G4,237.5,0.5,95,108.0
2752,G#2,237.5,0.25,79,108.0
2753,B1,237.5,0.25,79,108.0
2754,G#2,237.75,0.25,79,108.0
2755,F#2,237.75,0.25,79,108.0
2756,G4,238.0,0.5,95,108.0
2757,A4,238.0,4.0,47,108.0
2758,C4,238.0,1.5,79,108.0
2759,A1,238.0,0.5,95,108.0
2760,E4,238.0,4.0,79,108.0
2761,A3,238.0,4.0,79,108.0
2762,F3,238.0,4.0,79,108.0
2763,G#2,238.0,0.25,79,108.0
2764,B1,238.0,0.25,79,108.0
2765,G#2,238.25,0.25,63,108.0
2766,G4,238.5,0.5,95,108.0
2767,A1,238.5,0.5,95,108.0
2768,G#2,238.5,0.25,79,108.0
2769,B1,238.5,0.25,79,108.0
2770,G#2,238.75,0.25,63,108.0
2771,A4,239.0,2.0,95,108.0
2772,G#2,239.0,0.25,79,108.0
2773,D2,239.0,0.25,79,108.0
2774,G#2,239.25,0.25,63,108.0
2775,B3,239.5,2.5,79,108.0
2776,A1,239.5,0.25,95,108.0
2777,G#2,239.5,0.25,79,108.0
2778,F#2,239.5,0.25,79,108.0
2779,G#2,239.75,0.25,63,108.0
2780,G#2,240.0,0.25,63,108.0
2781,E1,240.25,0.25,95,108.0
2782,G#2,240.25,0.25,84,108.0
2783,B1,240.25,0.25,84,108.0
2784,F#2,240.25,0.25,84,108.0
2785,G1,240.5,0.5,95,108.0
2786,G#2,240.5,0.25,84,108.0
2787,B1,240.5,0.25,84,108.0
2788,F#2,240.5,0.25,84,108.0
2789,G#2,240.75,0.25,63,108.0
2790,G1,241.0,1.0,95,108.0
2791,G#2,241.0,0.25,79,108.0
2792,D2,241.0,0.25,79,108.0
2793,G#2,241.25,0.25,63,108.0
2794,G4,241.5,0.25,95,108.0
2795,G#2,241.5,0.25,79,108.0
2796,B1,241.5,0.25,79,108.0
2797,G#2,241.75,0.25,79,108.0
2798,F#2,241.75,0.25,79,108.0
2799,D4,242.0,1.5,95,108.0
2800,G4,242.0,4.0,47,108.0
2801,D2,242.0,0.5,95,108.0
2802,E4,242.0,1.5,79,108.0
2803,C4,242.0,1.5,79,108.0
2804,A3,242.0,1.5,79,108.0
2805,G#2,242.0,0.25,79,108.0
2806,B1,242.0,0.25,79,108.0
2807,G#2,242.25,0.25,63,108.0
2808,D2,242.5,0.5,95,108.0
2809,G#2,242.5,0.25,79,108.0
2810,B1,242.5,0.25,79,108.0
2811,G#2,242.75,0.25,63,108.0
2812,G#2,243.0,0.25,79,108.0
2813,D2,243.0,0.25,79,108.0
2814,G#2,243.25,0.25,63,108.0
2815,D4,243.5,1.0,79,108.0
2816,D2,243.5,0.25,95,108.0
2817,D4,243.5,2.5,79,108.0
2818,B3,243.5,2.5,79,108.0
2819,G3,243.5,2.5,79,108.0
2820,G#2,243.5,0.25,79,108.0
2821,F#2,243.5,0.25,79,108.0
2822,G#2,243.75,0.25,63,108.0
2823,G#2,244.0,0.25,63,108.0
2824,E1,244.25,0.25,95,108.0
2825,G#2,244.25,0.25,84,108.0
2826,B1,244.25,0.25,84,108.0
2827,F#2,244.25,0.25,84,108.0
2828,G1,244.5,0.25,95,108.0
2829,G#2,244.5,0.25,84,108.0
2830,B1,244.5,0.25,84,108.0
2831,F#2,244.5,0.25,84,108.0
2832,A1,244.75,0.25,95,108.0
2833,G#2,244.75,0.25,63,108.0
2834,D2,245.0,0.5,95,108.0
2835,G#2,245.0,0.25,79,108.0
2836,D2,245.0,0.25,79,108.0
2837,G#2,245.25,0.25,63,108.0
2838,D2,245.5,0.5,95,108.0
2839,G#2,245.5,0.25,79,108.0
2840,B1,245.5,0.25,79,108.0
2841,G#2,245.75,0.25,79,108.0
2842,F#2,245.75,0.25,79,108.0
2843,D2,246.0,0.5,95,108.0
2844,D4,246.0,4.0,79,108.0
2845,A3,246.0,4.0,79,108.0
2846,F#3,246.0,4.0,79,108.0
2847,G#2,246.0,0.25,74,108.0
2848,B1,246.0,0.25,74,108.0
2849,E-6,246.0,0.25,74,108.0
2850,G#2,246.25,0.25,63,108.0
2851,D2,246.5,0.5,95,108.0
2852,G#2,246.5,0.25,79,108.0
2853,B1,246.5,0.25,79,108.0
2854,G#2,246.75,0.25,63,108.0
2855,G#2,247.0,0.25,79,108.0
2856,D2,247.0,0.25,79,108.0
2857,E4,247.25,0.25,63,108.0
2858,G#2,247.25,0.25,63,108.0
2859,A4,247.5,0.25,79,108.0
2860,D2,247.5,0.25,95,108.0
2861,G#2,247.5,0.25,84,108.0
2862,F#2,247.5,0.25,84,108.0
2863,E-6,247.5,0.25,84,108.0
2864,B4,247.75,0.25,79,108.0
2865,G#2,247.75,0.25,63,108.0
2866,B4,248.0,0.5,95,108.0
2867,G#2,248.0,0.25,52,108.0
2868,E-6,248.0,0.25,52,108.0
2869,B-2,248.0,0.25,52,108.0
2870,E1,248.25,0.25,95,108.0
2871,G#2,248.25,0.25,69,108.0
2872,B1,248.25,0.25,69,108.0
2873,F#2,248.25,0.25,69,108.0
2874,E-6,248.25,0.25,69,108.0
2875,B-2,248.25,0.25,69,108.0
2876,D5,248.5,0.25,95,108.0
2877,G1,248.5,0.25,95,108.0
2878,G#2,248.5,0.25,69,108.0
2879,B1,248.5,0.25,69,108.0
2880,F#2,248.5,0.25,69,108.0
2881,E-6,248.5,0.25,69,108.0
2882,B-2,248.5,0.25,69,108.0
2883,B4,248.75,0.25,95,108.0
2884,A1,248.75,0.25,95,108.0
2885,G#2,248.75,0.25,58,108.0
2886,E-6,248.75,0.25,58,108.0
2887,B-2,248.75,0.25,58,108.0
2888,D2,249.0,0.5,95,108.0
2889,G#2,249.0,0.25,67,108.0
2890,D2,249.0,0.25,67,108.0
2891,E-6,249.0,0.25,67,108.0
2892,B-2,249.0,0.25,67,108.0
2893,C5,249.25,0.25,95,108.0
2894,G#2,249.25,0.25,63,108.0
2895,E-6,249.25,0.25,63,108.0
2896,B-2,249.25,0.25,63,108.0
2897,A4,249.5,0.5,95,108.0
2898,D2,249.5,0.5,95,108.0
2899,G#2,249.5,0.25,71,108.0
2900,B1,249.5,0.25,71,108.0
2901,E-6,249.5,0.25,71,108.0
2902,B-2,249.5,0.25,71,108.0
2903,G#2,249.75,0.25,75,108.0
2904,F#2,249.75,0.25,75,108.0
2905,E-6,249.75,0.25,75,108.0
2906,B-2,249.75,0.25,75,108.0
2907,A4,250.0,0.5,95,108.0
2908,E5,250.0,1.5,95,108.0
2909,E1,250.0,0.5,95,108.0
2910,E5,250.0,1.5,95,108.0
2911,E4,250.0,1.5,95,108.0
2912,E4,250.0,1.5,79,108.0
2913,C4,250.0,1.5,79,108.0
2914,A3,250.0,1.5,79,108.0
2915,G#2,250.0,0.25,84,108.0
2916,B1,250.0,0.25,84,108.0
2917,A3,250.0,0.25,84,108.0
2918,G#2,250.25,0.25,63,108.0
2919,B4,250.5,0.25,95,108.0
2920,E1,250.5,0.25,95,108.0
2921,G#2,250.5,0.25,84,108.0
2922,B1,250.5,0.25,84,108.0
2923,F#2,250.5,0.25,84,108.0
2924,A4,250.75,0.25,95,108.0
2925,G#2,250.75,0.25,79,108.0
2926,F#2,250.75,0.25,79,108.0
2927,G#2,251.0,0.25,74,108.0
2928,D2,251.0,0.25,74,108.0
2929,E2,251.0,0.25,74,108.0
2930,F4,251.25,0.25,63,108.0
2931,G#2,251.25,0.25,63,108.0
2932,E4,251.5,1.5,95,108.0
2933,B4,251.5,2.5,95,108.0
2934,E1,251.5,0.75,95,108.0
2935,B4,251.5,2.5,95,108.0
2936,B3,251.5,2.5,95,108.0
2937,D4,251.5,2.5,79,108.0
2938,B3,251.5,2.5,79,108.0
2939,G3,251.5,2.5,79,108.0
2940,G#2,251.5,0.25,84,108.0
2941,B1,251.5,0.25,84,108.0
2942,F#2,251.5,0.25,84,108.0
2943,G#2,251.75,0.25,79,108.0
2944,F#2,251.75,0.25,79,108.0
2945,G#2,252.0,0.25,63,108.0
2946,E1,252.25,0.25,95,108.0
2947,G#2,252.25,0.25,79,108.0
2948,B1,252.25,0.25,79,108.0
2949,E1,252.5,0.25,95,108.0
2950,G#2,252.5,0.25,79,108.0
2951,B1,252.5,0.25,79,108.0
2952,G#2,252.75,0.25,63,108.0
2953,D4,253.0,0.5,95,108.0
2954,E1,253.0,0.25,95,108.0
2955,G#2,253.0,0.25,74,108.0
2956,D2,253.0,0.25,74,108.0
2957,E2,253.0,0.25,74,108.0
2958,F#1,253.25,0.25,95,108.0
2959,G#2,253.25,0.25,79,108.0
2960,F#2,253.25,0.25,79,108.0
2961,D4,253.5,0.25,95,108.0
2962,G#1,253.5,0.25,95,108.0
2963,G#2,253.5,0.25,63,108.0
2964,C4,253.75,0.25,95,108.0
2965,E1,253.75,0.25,95,108.0
2966,G#2,253.75,0.25,79,108.0
2967,F#2,253.75,0.25,79,108.0
2968,E4,254.0,0.75,79,108.0
2969,B4,254.0,1.5,95,108.0
2970,C4,254.0,1.5,79,108.0
2971,E1,254.0,0.5,95,108.0
2972,E4,254.0,4.0,79,108.0
2973,A3,254.0,4.0,79,108.0
2974,F3,254.0,4.0,79,108.0
2975,G#2,254.0,0.25,79,108.0
2976,B1,254.0,0.25,79,108.0
2977,G#2,254.25,0.25,63,108.0
2978,E1,254.5,0.75,95,108.0
2979,G#2,254.5,0.25,84,108.0
2980,B1,254.5,0.25,84,108.0
2981,F#2,254.5,0.25,84,108.0
2982,A3,254.75,0.25,111,108.0
2983,G#2,254.75,0.25,79,108.0
2984,F#2,254.75,0.25,79,108.0
2985,G#2,255.0,0.25,74,108.0
2986,D2,255.0,0.25,74,108.0
2987,E2,255.0,0.25,74,108.0
2988,G3,255.25,0.25,79,108.0
2989,G#2,255.25,0.25,63,108.0
2990,G3,255.5,2.5,95,108.0
2991,B4,255.5,0.5,95,108.0
2992,B3,255.5,2.5,79,108.0
2993,E1,255.5,0.25,95,108.0
2994,B4,255.5,1.5,95,108.0
2995,B3,255.5,1.5,95,108.0
2996,G#2,255.5,0.25,84,108.0
2997,B1,255.5,0.25,84,108.0
2998,F#2,255.5,0.25,84,108.0
2999,E1,255.75,0.5,95,108.0
3000,G#2,255.75,0.25,79,108.0
3001,F#2,255.75,0.25,79,108.0
3002,G#5,256.0,0.5,95,108.0
3003,G#2,256.0,0.25,63,108.0
3004,E1,256.25,0.25,95,108.0
3005,G#2,256.25,0.25,79,108.0
3006,B1,256.25,0.25,79,108.0
3007,A5,256.5,0.5,95,108.0
3008,E1,256.5,0.25,95,108.0
3009,G#2,256.5,0.25,79,108.0
3010,B1,256.5,0.25,79,108.0
3011,G#2,256.75,0.25,63,108.0
3012,A5,257.0,1.0,95,108.0
3013,E1,257.0,0.25,95,108.0
3014,B4,257.0,0.5,95,108.0
3015,B3,257.0,0.5,95,108.0
3016,G#2,257.0,0.25,74,108.0
3017,D2,257.0,0.25,74,108.0
3018,E2,257.0,0.25,74,108.0
3019,F#1,257.25,0.25,95,108.0
3020,G#2,257.25,0.25,79,108.0
3021,F#2,257.25,0.25,79,108.0
3022,G#1,257.5,0.25,95,108.0
3023,G#5,257.5,0.5,95,108.0
3024,G#4,257.5,0.5,95,108.0
3025,G#2,257.5,0.25,79,108.0
3026,B1,257.5,0.25,79,108.0
3027,F#1,257.75,0.25,95,108.0
3028,G#2,257.75,0.25,79,108.0
3029,F#2,257.75,0.25,79,108.0
3030,G3,258.0,0.25,95,108.0
3031,A5,258.0,1.5,95,108.0
3032,B1,258.0,0.5,95,108.0
3033,A5,258.0,0.5,95,108.0
3034,A4,258.0,0.5,95,108.0
3035,E4,258.0,1.5,79,108.0
3036,C4,258.0,1.5,79,108.0
3037,A3,258.0,1.5,79,108.0
3038,G#2,258.0,0.25,79,108.0
3039,B1,258.0,0.25,79,108.0
3040,E3,258.25,0.25,95,108.0
3041,G#2,258.25,0.25,63,108.0
3042,A3,258.5,0.25,95,108.0
3043,B1,258.5,0.25,95,108.0
3044,A5,258.5,1.0,95,108.0
3045,A4,258.5,1.0,95,108.0
3046,G#2,258.5,0.25,84,108.0
3047,B1,258.5,0.25,84,108.0
3048,F#2,258.5,0.25,84,108.0
3049,C4,258.75,0.25,95,108.0
3050,G#2,258.75,0.25,79,108.0
3051,F#2,258.75,0.25,79,108.0
3052,B3,259.0,0.25,79,108.0
3053,G#2,259.0,0.25,74,108.0
3054,D2,259.0,0.25,74,108.0
3055,E2,259.0,0.25,74,108.0
3056,C4,259.25,0.25,63,108.0
3057,G#2,259.25,0.25,63,108.0
3058,E4,259.5,0.25,95,108.0
3059,G#5,259.5,1.5,95,108.0
3060,B1,259.5,0.75,95,108.0
3061,A5,259.5,1.5,95,108.0
3062,A4,259.5,1.5,95,108.0
3063,D4,259.5,2.5,79,108.0
3064,B3,259.5,2.5,79,108.0
3065,G3,259.5,2.5,79,108.0
3066,G#2,259.5,0.25,84,108.0
3067,B1,259.5,0.25,84,108.0
3068,F#2,259.5,0.25,84,108.0
3069,C4,259.75,0.25,95,108.0
3070,G#2,259.75,0.25,79,108.0
3071,F#2,259.75,0.25,79,108.0
3072,D4,260.0,0.25,95,108.0
3073,G#2,260.0,0.25,63,108.0
3074,E4,260.25,0.25,63,108.0
3075,F#1,260.25,0.25,95,108.0
3076,G#2,260.25,0.25,79,108.0
3077,B1,260.25,0.25,79,108.0
3078,A4,260.5,0.25,95,108.0
3079,B1,260.5,0.25,95,108.0
3080,G#2,260.5,0.25,79,108.0
3081,B1,260.5,0.25,79,108.0
3082,E4,260.75,0.25,63,108.0
3083,F#1,260.75,0.25,95,108.0
3084,G#2,260.75,0.25,63,108.0
3085,G4,261.0,0.25,95,108.0
3086,F#5,261.0,1.0,95,108.0
3087,B1,261.0,0.5,95,108.0
3088,G#5,261.0,1.5,95,108.0
3089,G#4,261.0,1.5,95,108.0
3090,G#2,261.0,0.25,74,108.0
3091,D2,261.0,0.25,74,108.0
3092,E2,261.0,0.25,74,108.0
3093,A4,261.25,0.25,63,108.0
3094,G#2,261.25,0.25,79,108.0
3095,F#2,261.25,0.25,79,108.0
3096,C5,261.5,0.25,79,108.0
3097,B1,261.5,0.5,95,108.0
3098,G#2,261.5,0.25,63,108.0
3099,D5,261.75,0.25,63,108.0
3100,G#2,261.75,0.25,79,108.0
3101,F#2,261.75,0.25,79,108.0
3102,D5,262.0,0.75,95,108.0
3103,F#5,262.0,2.0,95,108.0
3104,D4,262.0,1.5,79,108.0
3105,B1,262.0,0.5,95,108.0
3106,B3,262.0,4.0,79,108.0
3107,G3,262.0,4.0,79,108.0
3108,G#2,262.0,0.25,79,108.0
3109,B1,262.0,0.25,79,108.0
3110,G#2,262.25,0.25,63,108.0
3111,B1,262.5,0.25,95,108.0
3112,F#5,262.5,1.0,95,108.0
3113,F#4,262.5,1.0,95,108.0
3114,G#2,262.5,0.25,84,108.0
3115,B1,262.5,0.25,84,108.0
3116,F#2,262.5,0.25,84,108.0
3117,A4,262.75,0.125,79,108.0
3118,G#2,262.75,0.25,79,108.0
3119,F#2,262.75,0.25,79,108.0
3120,G#2,263.0,0.25,74,108.0
3121,D2,263.0,0.25,74,108.0
3122,E2,263.0,0.25,74,108.0
3123,G4,263.25,0.125,63,108.0
3124,G#2,263.25,0.25,63,108.0
3125,A4,263.5,1.5,95,108.0
3126,C4,263.5,2.5,79,108.0
3127,B1,263.5,0.75,95,108.0
3128,G#2,263.5,0.25,84,108.0
3129,B1,263.5,0.25,84,108.0
3130,F#2,263.5,0.25,84,108.0
3131,G#2,263.75,0.25,79,108.0
3132,F#2,263.75,0.25,79,108.0
3133,F#5,264.0,0.5,95,108.0
3134,G#2,264.0,0.25,63,108.0
3135,G#1,264.25,0.25,95,108.0
3136,G#2,264.25,0.25,79,108.0
3137,B1,264.25,0.25,79,108.0
3138,G5,264.5,0.5,95,108.0
3139,B1,264.5,0.25,95,108.0
3140,G#2,264.5,0.25,79,108.0
3141,B1,264.5,0.25,79,108.0
3142,G#2,264.75,0.25,63,108.0
3143,D5,265.0,0.25,95,108.0
3144,G5,265.0,0.5,95,108.0
3145,B1,265.0,0.5,95,108.0
3146,G#2,265.0,0.25,74,108.0
3147,D2,265.0,0.25,74,108.0
3148,E2,265.0,0.25,74,108.0
3149,G#2,265.25,0.25,79,108.0
3150,F#2,265.25,0.25,79,108.0
3151,A4,265.5,0.5,95,108.0
3152,G5,265.5,0.5,95,108.0
3153,B1,265.5,0.5,95,108.0
3154,F#5,265.5,2.0,95,108.0
3155,F#4,265.5,2.0,95,108.0
3156,G#2,265.5,0.25,79,108.0
3157,B1,265.5,0.25,79,108.0
3158,G#2,265.75,0.25,79,108.0
3159,F#2,265.75,0.25,79,108.0
3160,A4,266.0,0.5,95,108.0
3161,G5,266.0,0.5,95,108.0
3162,A1,266.0,0.5,95,108.0
3163,E4,266.0,1.5,79,108.0
3164,C4,266.0,1.5,79,108.0
3165,A3,266.0,1.5,79,108.0
3166,G#2,266.0,0.25,79,108.0
3167,B1,266.0,0.25,79,108.0
3168,G#2,266.25,0.25,63,108.0
3169,A4,266.5,0.5,79,108.0
3170,E5,266.5,3.5,95,108.0
3171,A1,266.5,0.25,95,108.0
3172,G#2,266.5,0.25,84,108.0
3173,B1,266.5,0.25,84,108.0
3174,F#2,266.5,0.25,84,108.0
3175,G#2,266.75,0.25,79,108.0
3176,F#2,266.75,0.25,79,108.0
3177,A4,267.0,0.5,63,108.0
3178,G#2,267.0,0.25,74,108.0
3179,D2,267.0,0.25,74,108.0
3180,E2,267.0,0.25,74,108.0
3181,G#2,267.25,0.25,63,108.0
3182,D5,267.5,0.25,95,108.0
3183,A1,267.5,0.75,95,108.0
3184,F#5,267.5,0.5,95,108.0
3185,F#4,267.5,0.5,95,108.0
3186,D4,267.5,2.5,79,108.0
3187,B3,267.5,2.5,79,108.0
3188,G3,267.5,2.5,79,108.0
3189,G#2,267.5,0.25,84,108.0
3190,B1,267.5,0.25,84,108.0
3191,F#2,267.5,0.25,84,108.0
3192,G#2,267.75,0.25,79,108.0
3193,F#2,267.75,0.25,79,108.0
3194,A4,268.0,0.75,95,108.0
3195,G#2,268.0,0.25,63,108.0
3196,G5,268.0,0.5,95,108.0
3197,G4,268.0,0.5,95,108.0
3198,E1,268.25,0.25,95,108.0
3199,G#2,268.25,0.25,79,108.0
3200,B1,268.25,0.25,79,108.0
3201,G1,268.5,0.5,95,108.0
3202,G5,268.5,0.5,95,108.0
3203,G4,268.5,0.5,95,108.0
3204,G#2,268.5,0.25,79,108.0
3205,B1,268.5,0.25,79,108.0
3206,G4,268.75,0.25,95,108.0
3207,G#2,268.75,0.25,63,108.0
3208,A1,269.0,1.0,95,108.0
3209,G5,269.0,0.5,95,108.0
3210,G4,269.0,0.5,95,108.0
3211,G#2,269.0,0.25,74,108.0
3212,D2,269.0,0.25,74,108.0
3213,E2,269.0,0.25,74,108.0
3214,E4,269.25,0.25,95,108.0
3215,G#2,269.25,0.25,79,108.0
3216,F#2,269.25,0.25,79,108.0
3217,F4,269.5,0.5,95,108.0
3218,G#2,269.5,0.25,63,108.0
3219,G#2,269.75,0.25,79,108.0
3220,F#2,269.75,0.25,79,108.0
3221,F4,270.0,0.5,95,108.0
3222,E5,270.0,2.0,95,108.0
3223,C4,270.0,1.5,79,108.0
3224,A1,270.0,0.5,95,108.0
3225,G5,270.0,0.5,95,108.0
3226,G4,270.0,0.5,95,108.0
3227,E4,270.0,4.0,79,108.0
3228,A3,270.0,4.0,79,108.0
3229,F3,270.0,4.0,79,108.0
3230,G#2,270.0,0.25,79,108.0
3231,B1,270.0,0.25,79,108.0
3232,G#2,270.25,0.25,63,108.0
3233,G4,270.5,0.5,95,108.0
3234,A1,270.5,0.25,95,108.0
3235,E5,270.5,3.5,95,108.0
3236,E4,270.5,3.5,95,108.0
3237,G#2,270.5,0.25,84,108.0
3238,B1,270.5,0.25,84,108.0
3239,F#2,270.5,0.25,84,108.0
3240,G#2,270.75,0.25,79,108.0
3241,F#2,270.75,0.25,79,108.0
3242,A4,271.0,1.5,95,108.0
3243,G#2,271.0,0.25,74,108.0
3244,D2,271.0,0.25,74,108.0
3245,E2,271.0,0.25,74,108.0
3246,G#2,271.25,0.25,63,108.0
3247,B3,271.5,2.5,79,108.0
3248,A1,271.5,0.75,95,108.0
3249,G#2,271.5,0.25,84,108.0
3250,B1,271.5,0.25,84,108.0
3251,F#2,271.5,0.25,84,108.0
3252,G#2,271.75,0.25,79,108.0
3253,F#2,271.75,0.25,79,108.0
3254,A4,272.0,0.5,95,108.0
3255,G#2,272.0,0.25,63,108.0
3256,G1,272.25,0.25,95,108.0
3257,G#2,272.25,0.25,79,108.0
3258,B1,272.25,0.25,79,108.0
3259,A4,272.5,0.5,95,108.0
3260,A1,272.5,0.25,95,108.0
3261,G#2,272.5,0.25,79,108.0
3262,B1,272.5,0.25,79,108.0
3263,G1,272.75,0.25,95,108.0
3264,G#2,272.75,0.25,63,108.0
3265,G4,273.0,0.5,95,108.0
3266,B1,273.0,0.5,95,108.0
3267,G#2,273.0,0.25,74,108.0
3268,D2,273.0,0.25,74,108.0
3269,E2,273.0,0.25,74,108.0
3270,A3,273.25,0.25,79,108.0
3271,G#2,273.25,0.25,79,108.0
3272,F#2,273.25,0.25,79,108.0
3273,C4,273.5,0.25,79,108.0
3274,A4,273.5,0.5,95,108.0
3275,C2,273.5,0.5,95,108.0
3276,G#2,273.5,0.25,79,108.0
3277,B1,273.5,0.25,79,108.0
3278,D4,273.75,0.25,95,108.0
3279,G#2,273.75,0.25,79,108.0
3280,F#2,273.75,0.25,79,108.0
3281,D4,274.0,0.75,95,108.0
3282,A4,274.0,1.5,95,108.0
3283,D2,274.0,0.5,95,108.0
3284,E4,274.0,1.5,79,108.0
3285,C4,274.0,1.5,79,108.0
3286,A3,274.0,1.5,79,108.0
3287,G#2,274.0,0.25,79,108.0
3288,B1,274.0,0.25,79,108.0
3289,G#2,274.25,0.25,63,108.0
3290,D2,274.5,0.5,95,108.0
3291,G#2,274.5,0.25,84,108.0
3292,B1,274.5,0.25,84,108.0
3293,F#2,274.5,0.25,84,108.0
3294,G4,274.75,0.5,95,108.0
3295,G#2,274.75,0.25,79,108.0
3296,F#2,274.75,0.25,79,108.0
3297,G#2,275.0,0.25,74,108.0
3298,D2,275.0,0.25,74,108.0
3299,E2,275.0,0.25,74,108.0
3300,A4,275.25,0.25,63,108.0
3301,G#2,275.25,0.25,63,108.0
3302,D4,275.5,2.5,95,108.0
3303,D5,275.5,2.5,95,108.0
3304,D2,275.5,0.75,95,108.0
3305,D4,275.5,2.5,79,108.0
3306,B3,275.5,2.5,79,108.0
3307,G3,275.5,2.5,79,108.0
3308,G#2,275.5,0.25,84,108.0
3309,B1,275.5,0.25,84,108.0
3310,F#2,275.5,0.25,84,108.0
3311,G#2,275.75,0.25,79,108.0
3312,F#2,275.75,0.25,79,108.0
3313,G#2,276.0,0.25,63,108.0
3314,E5,276.0,2.0,95,108.0
3315,E4,276.0,2.0,95,108.0
3316,G1,276.25,0.25,95,108.0
3317,G#2,276.25,0.25,79,108.0
3318,B1,276.25,0.25,79,108.0
3319,A1,276.5,0.25,95,108.0
3320,G#2,276.5,0.25,79,108.0
3321,B1,276.5,0.25,79,108.0
3322,G1,276.75,0.25,95,108.0
3323,G#2,276.75,0.25,63,108.0
3324,B1,277.0,0.5,95,108.0
3325,G#2,277.0,0.25,74,108.0
3326,D2,277.0,0.25,74,108.0
3327,E2,277.0,0.25,74,108.0
3328,G#2,277.25,0.25,79,108.0
3329,F#2,277.25,0.25,79,108.0
3330,C2,277.5,0.5,95,108.0
3331,G#2,277.5,0.25,63,108.0
3332,G#2,277.75,0.25,79,108.0
3333,F#2,277.75,0.25,79,108.0
3334,D5,278.0,4.0,95,108.0
3335,D2,278.0,0.5,95,108.0
3336,A4,278.0,0.5,95,108.0
3337,A3,278.0,0.5,95,108.0
3338,D4,278.0,4.0,79,108.0
3339,A3,278.0,4.0,79,108.0
3340,F#3,278.0,4.0,79,108.0
3341,G#2,278.0,0.25,79,108.0
3342,B1,278.0,0.25,79,108.0
3343,G#2,278.25,0.25,63,108.0
3344,A3,278.5,0.125,63,108.0
3345,D2,278.5,0.5,95,108.0
3346,A4,278.5,0.5,95,108.0
3347,A3,278.5,0.5,95,108.0
3348,G#2,278.5,0.25,84,108.0
3349,B1,278.5,0.25,84,108.0
3350,F#2,278.5,0.25,84,108.0
3351,D4,278.625,0.125,79,108.0
3352,E4,278.75,0.125,95,108.0
3353,G#2,278.75,0.25,79,108.0
3354,F#2,278.75,0.25,79,108.0
3355,A4,278.875,0.125,95,108.0
3356,F#4,279.0,0.125,95,108.0
3357,G4,279.0,0.5,95,108.0
3358,G3,279.0,0.5,95,108.0
3359,G#2,279.0,0.25,74,108.0
3360,D2,279.0,0.25,74,108.0
3361,E2,279.0,0.25,74,108.0
3362,E4,279.125,0.125,95,108.0
3363,D4,279.25,0.125,79,108.0
3364,G#2,279.25,0.25,63,108.0
3365,A3,279.375,0.25,63,108.0
3366,D4,279.5,0.25,95,108.0
3367,D2,279.5,0.25,95,108.0
3368,A4,279.5,0.5,95,108.0
3369,A3,279.5,0.5,95,108.0
3370,G#2,279.5,0.25,84,108.0
3371,B1,279.5,0.25,84,108.0
3372,F#2,279.5,0.25,84,108.0
3373,D2,279.75,0.5,95,108.0
3374,G#2,279.75,0.25,79,108.0
3375,F#2,279.75,0.25,79,108.0
3376,A3,280.0,0.75,95,108.0
3377,G#2,280.0,0.25,63,108.0
3378,D4,280.125,0.125,63,108.0
3379,E4,280.25,0.125,79,108.0
3380,C2,280.25,0.25,95,108.0
3381,G#2,280.25,0.25,79,108.0
3382,B1,280.25,0.25,79,108.0
3383,A4,280.375,0.125,95,108.0
3384,D5,280.5,0.125,95,108.0
3385,D2,280.5,0.5,95,108.0
3386,G#2,280.5,0.25,79,108.0
3387,B1,280.5,0.25,79,108.0
3388,E5,280.625,0.125,95,108.0
3389,G4,280.75,1.0,79,108.0
3390,A5,280.75,0.125,95,108.0
3391,G#2,280.75,0.25,63,108.0
3392,E5,280.875,0.125,95,108.0
3393,C4,281.0,0.25,79,108.0
3394,D5,281.0,0.125,95,108.0
3395,D2,281.0,0.5,95,108.0
3396,G#2,281.0,0.25,74,108.0
3397,D2,281.0,0.25,74,108.0
3398,E2,281.0,0.25,74,108.0
3399,A4,281.125,0.125,95,108.0
3400,D4,281.25,0.25,95,108.0
3401,G4,281.25,0.125,95,108.0
3402,G#2,281.25,0.25,79,108.0
3403,F#2,281.25,0.25,79,108.0
3404,E4,281.375,0.125,95,108.0
3405,B3,281.5,0.25,47,108.0
3406,D4,281.5,0.125,79,108.0
3407,D2,281.5,0.5,95,108.0
3408,G#2,281.5,0.25,63,108.0
3409,A4,281.5,1.5,95,108.0
3410,A3,281.5,1.5,95,108.0
3411,D4,281.625,0.125,63,108.0
3412,A4,281.75,0.25,63,108.0
3413,G#2,281.75,0.25,79,108.0
3414,F#2,281.75,0.25,79,108.0
3415,E5,282.0,1.5,95,108.0
3416,E1,282.0,0.5,95,108.0
3417,E4,282.0,4.0,63,108.0
3418,B3,282.0,4.0,63,108.0
3419,G#3,282.0,4.0,63,108.0
3420,E2,282.0,4.0,63,108.0
3421,E4,282.0,4.0,95,108.0
3422,B3,282.0,4.0,95,108.0
3423,G#3,282.0,4.0,95,108.0
3424,G#2,282.0,0.25,84,108.0
3425,B1,282.0,0.25,84,108.0
3426,A3,282.0,0.25,84,108.0
3427,G#2,282.25,0.25,63,108.0
3428,E1,282.5,0.25,95,108.0
3429,G#2,282.5,0.25,84,108.0
3430,B1,282.5,0.25,84,108.0
3431,F#2,282.5,0.25,84,108.0
3432,G#2,282.75,0.25,79,108.0
3433,F#2,282.75,0.25,79,108.0
3434,D5,283.0,2.5,95,108.0
3435,D4,283.0,2.5,95,108.0
3436,G#2,283.0,0.25,74,108.0
3437,D2,283.0,0.25,74,108.0
3438,E2,283.0,0.25,74,108.0
3439,G#2,283.25,0.25,63,108.0
3440,B4,283.5,2.5,95,108.0
3441,E1,283.5,0.75,95,108.0
3442,G#2,283.5,0.25,84,108.0
3443,B1,283.5,0.25,84,108.0
3444,F#2,283.5,0.25,84,108.0
3445,G#2,283.75,0.25,79,108.0
3446,F#2,283.75,0.25,79,108.0
3447,G#2,284.0,0.25,63,108.0
3448,E1,284.25,0.25,95,108.0
3449,G#2,284.25,0.25,79,108.0
3450,B1,284.25,0.25,79,108.0
3451,E1,284.5,0.25,95,108.0
3452,G#2,284.5,0.25,79,108.0
3453,B1,284.5,0.25,79,108.0
3454,G#2,284.75,0.25,63,108.0
3455,E1,285.0,0.25,95,108.0
3456,G#2,285.0,0.25,74,108.0
3457,D2,285.0,0.25,74,108.0
3458,E2,285.0,0.25,74,108.0
3459,F#1,285.25,0.25,95,108.0
3460,G#2,285.25,0.25,79,108.0
3461,F#2,285.25,0.25,79,108.0
3462,G#1,285.5,0.25,95,108.0
3463,G#2,285.5,0.25,63,108.0
3464,E1,285.75,0.25,95,108.0
3465,G#2,285.75,0.25,79,108.0
3466,F#2,285.75,0.25,79,108.0
3467,B4,286.0,1.5,95,108.0
3468,E1,286.0,0.5,95,108.0
3469,D4,286.0,4.0,79,108.0
3470,A3,286.0,4.0,79,108.0
3471,F#3,286.0,4.0,79,108.0
3472,G#2,286.0,0.25,79,108.0
3473,B1,286.0,0.25,79,108.0
3474,G#2,286.25,0.25,63,108.0
3475,E1,286.5,0.75,95,108.0
3476,G#2,286.5,0.25,84,108.0
3477,B1,286.5,0.25,84,108.0
3478,F#2,286.5,0.25,84,108.0
3479,G#2,286.75,0.25,79,108.0
3480,F#2,286.75,0.25,79,108.0
3481,G#2,287.0,0.25,74,108.0
3482,D2,287.0,0.25,74,108.0
3483,E2,287.0,0.25,74,108.0
3484,G#2,287.25,0.25,63,108.0
3485,B4,287.5,0.5,95,108.0
3486,E1,287.5,0.25,95,108.0
3487,G#2,287.5,0.25,84,108.0
3488,B1,287.5,0.25,84,108.0
3489,F#2,287.5,0.25,84,108.0
3490,E1,287.75,0.5,95,108.0
3491,G#2,287.75,0.25,79,108.0
3492,F#2,287.75,0.25,79,108.0
3493,G#5,288.0,0.5,95,108.0
3494,G#2,288.0,0.25,63,108.0
3495,E1,288.25,0.25,95,108.0
3496,G#2,288.25,0.25,79,108.0
3497,B1,288.25,0.25,79,108.0
3498,A5,288.5,0.5,95,108.0
3499,E1,288.5,0.25,95,108.0
3500,G#2,288.5,0.25,79,108.0
3501,B1,288.5,0.25,79,108.0
3502,G#2,288.75,0.25,63,108.0
3503,B5,289.0,1.0,95,108.0
3504,E1,289.0,0.25,95,108.0
3505,G#2,289.0,0.25,74,108.0
3506,D2,289.0,0.25,74,108.0
3507,E2,289.0,0.25,74,108.0
3508,F#1,289.25,0.25,95,108.0
3509,G#2,289.25,0.25,79,108.0
3510,F#2,289.25,0.25,79,108.0
3511,G#1,289.5,0.25,95,108.0
3512,D5,289.5,4.0,95,108.0
3513,D4,289.5,4.0,95,108.0
3514,G#2,289.5,0.25,79,108.0
3515,B1,289.5,0.25,79,108.0
3516,F#1,289.75,0.25,95,108.0
3517,G#2,289.75,0.25,79,108.0
3518,F#2,289.75,0.25,79,108.0
3519,A5,290.0,1.5,95,108.0
3520,B1,290.0,0.5,95,108.0
3521,E4,290.0,4.0,63,108.0
3522,B3,290.0,4.0,63,108.0
3523,G#3,290.0,4.0,63,108.0
3524,E2,290.0,4.0,63,108.0
3525,E4,290.0,4.0,95,108.0
3526,B3,290.0,4.0,95,108.0
3527,G#3,290.0,4.0,95,108.0
3528,E4,290.0,4.0,95,108.0
3529,B3,290.0,4.0,95,108.0
3530,G#3,290.0,4.0,95,108.0
3531,G#2,290.0,0.25,79,108.0
3532,B1,290.0,0.25,79,108.0
3533,G#2,290.25,0.25,63,108.0
3534,B1,290.5,0.25,95,108.0
3535,G#2,290.5,0.25,84,108.0
3536,B1,290.5,0.25,84,108.0
3537,F#2,290.5,0.25,84,108.0
3538,G#2,290.75,0.25,79,108.0
3539,F#2,290.75,0.25,79,108.0
3540,G#2,291.0,0.25,74,108.0
3541,D2,291.0,0.25,74,108.0
3542,E2,291.0,0.25,74,108.0
3543,G#2,291.25,0.25,63,108.0
3544,G#5,291.5,1.5,95,108.0
3545,B1,291.5,0.75,95,108.0
3546,G#2,291.5,0.25,84,108.0
3547,B1,291.5,0.25,84,108.0
3548,F#2,291.5,0.25,84,108.0
3549,G#2,291.75,0.25,79,108.0
3550,F#2,291.75,0.25,79,108.0
3551,G#2,292.0,0.25,63,108.0
3552,F#1,292.25,0.25,95,108.0
3553,G#2,292.25,0.25,79,108.0
3554,B1,292.25,0.25,79,108.0
3555,B1,292.5,0.25,95,108.0
3556,G#2,292.5,0.25,79,108.0
3557,B1,292.5,0.25,79,108.0
3558,F#1,292.75,0.25,95,108.0
3559,G#2,292.75,0.25,63,108.0
3560,F#5,293.0,1.0,95,108.0
3561,B1,293.0,0.5,95,108.0
3562,G#2,293.0,0.25,74,108.0
3563,D2,293.0,0.25,74,108.0
3564,E2,293.0,0.25,74,108.0
3565,G#2,293.25,0.25,79,108.0
3566,F#2,293.25,0.25,79,108.0
3567,B1,293.5,0.5,95,108.0
3568,G#2,293.5,0.25,63,108.0
3569,E5,293.5,1.5,95,108.0
3570,E4,293.5,1.5,95,108.0
3571,G#2,293.75,0.25,79,108.0
3572,F#2,293.75,0.25,79,108.0
3573,F#5,294.0,2.0,95,108.0
3574,B1,294.0,0.5,95,108.0
3575,F#4,294.0,4.0,63,108.0
3576,D4,294.0,4.0,63,108.0
3577,A3,294.0,4.0,63,108.0
3578,B2,294.0,4.0,63,108.0
3579,A4,294.0,4.0,95,108.0
3580,D4,294.0,4.0,95,108.0
3581,A3,294.0,4.0,95,108.0
3582,G#2,294.0,0.25,79,108.0
3583,B1,294.0,0.25,79,108.0
3584,G#2,294.25,0.25,63,108.0
3585,B1,294.5,0.25,95,108.0
3586,G#2,294.5,0.25,84,108.0
3587,B1,294.5,0.25,84,108.0
3588,F#2,294.5,0.25,84,108.0
3589,G#2,294.75,0.25,79,108.0
3590,F#2,294.75,0.25,79,108.0
3591,B4,295.0,2.5,95,108.0
3592,B3,295.0,2.5,95,108.0
3593,G#2,295.0,0.25,74,108.0
3594,D2,295.0,0.25,74,108.0
3595,E2,295.0,0.25,74,108.0
3596,G#2,295.25,0.25,63,108.0
3597,B1,295.5,0.75,95,108.0
3598,G#2,295.5,0.25,84,108.0
3599,B1,295.5,0.25,84,108.0
3600,F#2,295.5,0.25,84,108.0
3601,G#2,295.75,0.25,79,108.0
3602,F#2,295.75,0.25,79,108.0
3603,F#5,296.0,0.5,95,108.0
3604,G#2,296.0,0.25,63,108.0
3605,G#1,296.25,0.25,95,108.0
3606,G#2,296.25,0.25,79,108.0
3607,B1,296.25,0.25,79,108.0
3608,G5,296.5,0.5,95,108.0
3609,B1,296.5,0.25,95,108.0
3610,G#2,296.5,0.25,79,108.0
3611,B1,296.5,0.25,79,108.0
3612,G#2,296.75,0.25,63,108.0
3613,A5,297.0,0.5,95,108.0
3614,B1,297.0,0.5,95,108.0
3615,G#2,297.0,0.25,74,108.0
3616,D2,297.0,0.25,74,108.0
3617,E2,297.0,0.25,74,108.0
3618,G#2,297.25,0.25,79,108.0
3619,F#2,297.25,0.25,79,108.0
3620,G5,297.5,0.5,95,108.0
3621,B1,297.5,0.5,95,108.0
3622,G#2,297.5,0.25,79,108.0
3623,B1,297.5,0.25,79,108.0
3624,G#2,297.75,0.25,79,108.0
3625,F#2,297.75,0.25,79,108.0
3626,G5,298.0,0.5,95,108.0
3627,A1,298.0,0.5,95,108.0
3628,E4,298.0,4.0,95,108.0
3629,B3,298.0,4.0,95,108.0
3630,G#3,298.0,4.0,95,108.0
3631,G#2,298.0,0.25,79,108.0
3632,B1,298.0,0.25,79,108.0
3633,G#2,298.25,0.25,63,108.0
3634,E5,298.5,3.5,95,108.0
3635,A1,298.5,0.25,95,108.0
3636,G#2,298.5,0.25,84,108.0
3637,B1,298.5,0.25,84,108.0
3638,F#2,298.5,0.25,84,108.0
3639,G#2,298.75,0.25,79,108.0
3640,F#2,298.75,0.25,79,108.0
3641,B4,299.0,1.5,95,108.0
3642,B3,299.0,1.5,95,108.0
3643,G#2,299.0,0.25,74,108.0
3644,D2,299.0,0.25,74,108.0
3645,E2,299.0,0.25,74,108.0
3646,G#2,299.25,0.25,63,108.0
3647,A1,299.5,0.75,95,108.0
3648,G#2,299.5,0.25,84,108.0
3649,B1,299.5,0.25,84,108.0
3650,F#2,299.5,0.25,84,108.0
3651,G#2,299.75,0.25,79,108.0
3652,F#2,299.75,0.25,79,108.0
3653,G#2,300.0,0.25,63,108.0
3654,E1,300.25,0.25,95,108.0
3655,G#2,300.25,0.25,79,108.0
3656,B1,300.25,0.25,79,108.0
3657,G1,300.5,0.5,95,108.0
3658,B4,300.5,0.5,95,108.0
3659,B3,300.5,0.5,95,108.0
3660,G#2,300.5,0.25,79,108.0
3661,B1,300.5,0.25,79,108.0
3662,G#2,300.75,0.25,63,108.0
3663,A1,301.0,1.0,95,108.0
3664,G#5,301.0,0.5,95,108.0
3665,G#4,301.0,0.5,95,108.0
3666,G#2,301.0,0.25,74,108.0
3667,D2,301.0,0.25,74,108.0
3668,E2,301.0,0.25,74,108.0
3669,G#2,301.25,0.25,79,108.0
3670,F#2,301.25,0.25,79,108.0
3671,G#2,301.5,0.25,63,108.0
3672,A5,301.5,0.5,95,108.0
3673,A4,301.5,0.5,95,108.0
3674,G#2,301.75,0.25,79,108.0
3675,F#2,301.75,0.25,79,108.0
3676,E5,302.0,2.0,95,108.0
3677,A1,302.0,0.5,95,108.0
3678,A5,302.0,1.0,95,108.0
3679,A4,302.0,1.0,95,108.0
3680,F#4,302.0,4.0,63,108.0
3681,D4,302.0,4.0,63,108.0
3682,A3,302.0,4.0,63,108.0
3683,B2,302.0,4.0,63,108.0
3684,A4,302.0,4.0,95,108.0
3685,D4,302.0,4.0,95,108.0
3686,A3,302.0,4.0,95,108.0
3687,F#4,302.0,4.0,95,108.0
3688,D4,302.0,4.0,95,108.0
3689,A3,302.0,4.0,95,108.0
3690,G#2,302.0,0.25,79,108.0
3691,B1,302.0,0.25,79,108.0
3692,G#2,302.25,0.25,63,108.0
3693,A1,302.5,0.25,95,108.0
3694,G#2,302.5,0.25,84,108.0
3695,B1,302.5,0.25,84,108.0
3696,F#2,302.5,0.25,84,108.0
3697,G#2,302.75,0.25,79,108.0
3698,F#2,302.75,0.25,79,108.0
3699,A5,303.0,1.5,95,108.0
3700,A4,303.0,1.5,95,108.0
3701,G#2,303.0,0.25,74,108.0
3702,D2,303.0,0.25,74,108.0
3703,E2,303.0,0.25,74,108.0
3704,G#2,303.25,0.25,63,108.0
3705,A1,303.5,0.75,95,108.0
3706,G#2,303.5,0.25,84,108.0
3707,B1,303.5,0.25,84,108.0
3708,F#2,303.5,0.25,84,108.0
3709,G#2,303.75,0.25,79,108.0
3710,F#2,303.75,0.25,79,108.0
3711,B4,304.0,0.5,95,108.0
3712,G#2,304.0,0.25,63,108.0
3713,G1,304.25,0.25,95,108.0
3714,G#2,304.25,0.25,79,108.0
3715,B1,304.25,0.25,79,108.0
3716,A4,304.5,0.5,95,108.0
3717,A1,304.5,0.25,95,108.0
3718,G#5,304.5,1.5,95,108.0
3719,G#4,304.5,1.5,95,108.0
3720,G#2,304.5,0.25,79,108.0
3721,B1,304.5,0.25,79,108.0
3722,G1,304.75,0.25,95,108.0
3723,G#2,304.75,0.25,63,108.0
3724,G4,305.0,0.5,95,108.0
3725,B1,305.0,0.5,95,108.0
3726,G#2,305.0,0.25,74,108.0
3727,D2,305.0,0.25,74,108.0
3728,E2,305.0,0.25,74,108.0
3729,G#2,305.25,0.25,79,108.0
3730,F#2,305.25,0.25,79,108.0
3731,A4,305.5,0.5,95,108.0
3732,C2,305.5,0.5,95,108.0
3733,G#2,305.5,0.25,79,108.0
3734,B1,305.5,0.25,79,108.0
3735,G#2,305.75,0.25,79,108.0
3736,F#2,305.75,0.25,79,108.0
3737,A4,306.0,1.5,95,108.0
3738,D2,306.0,0.5,95,108.0
3739,F#5,306.0,1.0,95,108.0
3740,F#4,306.0,1.0,95,108.0
3741,G4,306.0,4.0,63,108.0
3742,C4,306.0,4.0,63,108.0
3743,G3,306.0,4.0,63,108.0
3744,A2,306.0,4.0,63,108.0
3745,E4,306.0,4.0,95,108.0
3746,C4,306.0,4.0,95,108.0
3747,G3,306.0,4.0,95,108.0
3748,G#2,306.0,0.25,79,108.0
3749,B1,306.0,0.25,79,108.0
3750,G#2,306.25,0.25,63,108.0
3751,D2,306.5,0.5,95,108.0
3752,G#2,306.5,0.25,84,108.0
3753,B1,306.5,0.25,84,108.0
3754,F#2,306.5,0.25,84,108.0
3755,G#2,306.75,0.25,79,108.0
3756,F#2,306.75,0.25,79,108.0
3757,G#2,307.0,0.25,74,108.0
3758,D2,307.0,0.25,74,108.0
3759,E2,307.0,0.25,74,108.0
3760,G#2,307.25,0.25,63,108.0
3761,D5,307.5,2.5,95,108.0
3762,D2,307.5,0.75,95,108.0
3763,G#2,307.5,0.25,84,108.0
3764,B1,307.5,0.25,84,108.0
3765,F#2,307.5,0.25,84,108.0
3766,G#2,307.75,0.25,79,108.0
3767,F#2,307.75,0.25,79,108.0
3768,G#2,308.0,0.25,63,108.0
3769,G1,308.25,0.25,95,108.0
3770,G#2,308.25,0.25,79,108.0
3771,B1,308.25,0.25,79,108.0
3772,A1,308.5,0.25,95,108.0
3773,G#2,308.5,0.25,79,108.0
3774,B1,308.5,0.25,79,108.0
3775,G1,308.75,0.25,95,108.0
3776,G#2,308.75,0.25,63,108.0
3777,B1,309.0,0.5,95,108.0
3778,F#5,309.0,2.0,95,108.0
3779,F#4,309.0,2.0,95,108.0
3780,G#2,309.0,0.25,74,108.0
3781,D2,309.0,0.25,74,108.0
3782,E2,309.0,0.25,74,108.0
3783,G#2,309.25,0.25,79,108.0
3784,F#2,309.25,0.25,79,108.0
3785,C2,309.5,0.5,95,108.0
3786,G#2,309.5,0.25,63,108.0
3787,G#2,309.75,0.25,79,108.0
3788,F#2,309.75,0.25,79,108.0
3789,D5,310.0,4.0,95,108.0
3790,D2,310.0,0.5,95,108.0
3791,F#4,310.0,4.0,95,108.0
3792,D4,310.0,4.0,95,108.0
3793,A3,310.0,4.0,95,108.0
3794,G#2,310.0,0.25,79,108.0
3795,B1,310.0,0.25,79,108.0
3796,G#2,310.25,0.25,63,108.0
3797,D2,310.5,0.5,95,108.0
3798,G#2,310.5,0.25,84,108.0
3799,B1,310.5,0.25,84,108.0
3800,F#2,310.5,0.25,84,108.0
3801,G#2,310.75,0.25,79,108.0
3802,F#2,310.75,0.25,79,108.0
3803,F#5,311.0,0.5,95,108.0
3804,F#4,311.0,0.5,95,108.0
3805,G#2,311.0,0.25,74,108.0
3806,D2,311.0,0.25,74,108.0
3807,E2,311.0,0.25,74,108.0
3808,G#2,311.25,0.25,63,108.0
3809,D2,311.5,0.25,95,108.0
3810,G5,311.5,0.5,95,108.0
3811,G4,311.5,0.5,95,108.0
3812,G#2,311.5,0.25,84,108.0
3813,B1,311.5,0.25,84,108.0
3814,F#2,311.5,0.25,84,108.0
3815,D2,311.75,0.5,95,108.0
3816,G#2,311.75,0.25,74,108.0
3817,F#2,311.75,0.25,74,108.0
3818,E-6,311.75,0.25,74,108.0
3819,G#2,312.0,0.25,63,108.0
3820,G5,312.0,0.5,95,108.0
3821,G4,312.0,0.5,95,108.0
3822,C2,312.25,0.25,95,108.0
3823,G#2,312.25,0.25,74,108.0
3824,B1,312.25,0.25,74,108.0
3825,E-6,312.25,0.25,74,108.0
3826,D2,312.5,0.5,95,108.0
3827,G5,312.5,0.5,95,108.0
3828,G4,312.5,0.5,95,108.0
3829,G#2,312.5,0.25,74,108.0
3830,B1,312.5,0.25,74,108.0
3831,E-6,312.5,0.25,74,108.0
3832,G#2,312.75,0.25,63,108.0
3833,D2,313.0,0.5,95,108.0
3834,G#2,313.0,0.25,71,108.0
3835,D2,313.0,0.25,71,108.0
3836,E2,313.0,0.25,71,108.0
3837,E-6,313.0,0.25,71,108.0
3838,G#2,313.25,0.25,79,108.0
3839,F#2,313.25,0.25,79,108.0
3840,D2,313.5,0.5,95,108.0
3841,G#2,313.5,0.25,63,108.0
3842,G5,313.5,0.5,95,108.0
3843,G4,313.5,0.5,95,108.0
3844,G#2,313.75,0.25,79,108.0
3845,F#2,313.75,0.25,79,108.0
3846,E1,314.0,0.5,95,108.0
3847,E5,314.0,3.5,95,108.0
3848,E4,314.0,3.5,95,108.0
3849,G4,314.0,4.0,63,108.0
3850,C4,314.0,4.0,63,108.0
3851,G3,314.0,4.0,63,108.0
3852,A2,314.0,4.0,63,108.0
3853,E4,314.0,4.0,95,108.0
3854,C4,314.0,4.0,95,108.0
3855,G3,314.0,4.0,95,108.0
3856,G#4,314.0,1.5,95,108.0
3857,E4,314.0,1.5,95,108.0
3858,B3,314.0,1.5,95,108.0
3859,G#3,314.0,1.5,95,108.0
3860,E3,314.0,1.5,95,108.0
3861,F#4,314.0,1.5,95,108.0
3862,E4,314.0,1.5,95,108.0
3863,B3,314.0,1.5,95,108.0
3864,E4,314.0,4.0,95,108.0
3865,C4,314.0,4.0,95,108.0
3866,G3,314.0,4.0,95,108.0
3867,G#2,314.0,0.25,79,108.0
3868,B1,314.0,0.25,79,108.0
3869,A3,314.0,0.25,79,108.0
3870,E-5,314.0,0.25,79,108.0
3871,G#2,314.25,0.25,63,108.0
3872,E-5,314.25,0.25,63,108.0
3873,E1,314.5,1.0,95,108.0
3874,G#2,314.5,0.25,74,108.0
3875,B1,314.5,0.25,74,108.0
3876,E-3,314.5,0.25,74,108.0
3877,G#2,314.75,0.25,63,108.0
3878,G#2,315.0,0.25,74,108.0
3879,D2,315.0,0.25,74,108.0
3880,E-5,315.0,0.25,74,108.0
3881,G#2,315.25,0.25,63,108.0
3882,E-3,315.25,0.25,63,108.0
3883,D2,315.5,1.5,95,108.0
3884,A4,315.5,2.0,95,108.0
3885,E4,315.5,2.0,95,108.0
3886,A3,315.5,2.0,95,108.0
3887,D3,315.5,2.0,95,108.0
3888,A4,315.5,2.0,95,108.0
3889,E4,315.5,2.0,95,108.0
3890,B3,315.5,2.0,95,108.0
3891,G#2,315.5,0.25,74,108.0
3892,B1,315.5,0.25,74,108.0
3893,A3,315.5,0.25,74,108.0
3894,G#2,315.75,0.25,63,108.0
3895,E-5,315.75,0.25,63,108.0
3896,G#2,316.0,0.25,63,108.0
3897,E-3,316.0,0.25,63,108.0
3898,G#2,316.25,0.25,79,108.0
3899,B1,316.25,0.25,79,108.0
3900,G#2,316.5,0.25,79,108.0
3901,B1,316.5,0.25,79,108.0
3902,G#2,316.75,0.25,63,108.0
3903,E-5,316.75,0.25,63,108.0
3904,D2,317.0,0.125,95,108.0
3905,G#2,317.0,0.25,74,108.0
3906,D2,317.0,0.25,74,108.0
3907,E-3,317.0,0.25,74,108.0
3908,G#2,317.25,0.25,63,108.0
3909,C2,317.5,0.5,95,108.0
3910,G4,317.5,0.5,95,108.0
3911,E4,317.5,0.5,95,108.0
3912,B3,317.5,0.5,95,108.0
3913,C3,317.5,0.5,95,108.0
3914,G4,317.5,0.5,95,108.0
3915,E4,317.5,0.5,95,108.0
3916,B3,317.5,0.5,95,108.0
3917,G#2,317.5,0.25,71,108.0
3918,B1,317.5,0.25,71,108.0
3919,A3,317.5,0.25,71,108.0
3920,E-5,317.5,0.25,71,108.0
3921,G#2,317.75,0.25,63,108.0
3922,E-5,317.75,0.25,63,108.0
3923,C2,318.0,0.5,95,108.0
3924,G4,318.0,4.0,63,108.0
3925,D4,318.0,4.0,63,108.0
3926,A3,318.0,4.0,63,108.0
3927,D3,318.0,4.0,63,108.0
3928,F#4,318.0,4.0,95,108.0
3929,D4,318.0,4.0,95,108.0
3930,A3,318.0,4.0,95,108.0
3931,G#2,318.0,0.25,74,108.0
3932,B1,318.0,0.25,74,108.0
3933,E-5,318.0,0.25,74,108.0
3934,G#2,318.25,0.25,63,108.0
3935,E-5,318.25,0.25,63,108.0
3936,F#1,318.5,0.5,79,108.0
3937,G#2,318.5,0.25,74,108.0
3938,B1,318.5,0.25,74,108.0
3939,E-3,318.5,0.25,74,108.0
3940,G#2,318.75,0.25,63,108.0
3941,C2,319.0,0.5,95,108.0
3942,G#2,319.0,0.25,74,108.0
3943,D2,319.0,0.25,74,108.0
3944,E-5,319.0,0.25,74,108.0
3945,G#2,319.25,0.25,63,108.0
3946,E-3,319.25,0.25,63,108.0
3947,B1,319.5,1.0,95,108.0
3948,E5,319.5,2.0,95,108.0
3949,E4,319.5,2.0,95,108.0
3950,G4,319.5,1.5,95,108.0
3951,E4,319.5,1.5,95,108.0
3952,B3,319.5,1.5,95,108.0
3953,C3,319.5,1.5,95,108.0
3954,G4,319.5,1.5,95,108.0
3955,E4,319.5,1.5,95,108.0
3956,B3,319.5,1.5,95,108.0
3957,G#2,319.5,0.25,74,108.0
3958,B1,319.5,0.25,74,108.0
3959,A3,319.5,0.25,74,108.0
3960,G#2,319.75,0.25,63,108.0
3961,E-5,319.75,0.25,63,108.0
3962,G#2,320.0,0.25,63,108.0
3963,E-3,320.0,0.25,63,108.0
3964,G#2,320.25,0.25,79,108.0
3965,B1,320.25,0.25,79,108.0
3966,B1,320.5,0.25,79,108.0
3967,G#2,320.5,0.25,79,108.0
3968,B1,320.5,0.25,79,108.0
3969,B1,320.75,0.25,63,108.0
3970,G#2,320.75,0.25,63,108.0
3971,E-5,320.75,0.25,63,108.0
3972,B1,321.0,0.25,63,108.0
3973,F#4,321.0,2.5,95,108.0
3974,D4,321.0,2.5,95,108.0
3975,A3,321.0,2.5,95,108.0
3976,B2,321.0,2.5,95,108.0
3977,F#4,321.0,2.5,95,108.0
3978,E4,321.0,2.5,95,108.0
3979,A3,321.0,2.5,95,108.0
3980,G#2,321.0,0.25,74,108.0
3981,D2,321.0,0.25,74,108.0
3982,E-3,321.0,0.25,74,108.0
3983,B1,321.25,0.25,63,108.0
3984,G#2,321.25,0.25,63,108.0
3985,B1,321.5,0.25,79,108.0
3986,A4,321.5,0.5,95,108.0
3987,A3,321.5,0.5,95,108.0
3988,G#2,321.5,0.25,74,108.0
3989,B1,321.5,0.25,74,108.0
3990,E-5,321.5,0.25,74,108.0
3991,B1,321.75,0.25,63,108.0
3992,G#2,321.75,0.25,63,108.0
3993,E-5,321.75,0.25,63,108.0
3994,E1,322.0,0.5,95,108.0
3995,A4,322.0,0.5,95,108.0
3996,A3,322.0,0.5,95,108.0
3997,E4,322.0,4.0,95,108.0
3998,C4,322.0,4.0,95,108.0
3999,G3,322.0,4.0,95,108.0
4000,G#2,322.0,0.25,79,108.0
4001,B1,322.0,0.25,79,108.0
4002,A3,322.0,0.25,79,108.0
4003,E-5,322.0,0.25,79,108.0
4004,G#2,322.25,0.25,63,108.0
4005,E-5,322.25,0.25,63,108.0
4006,E1,322.5,1.0,95,108.0
4007,G4,322.5,0.5,95,108.0
4008,G3,322.5,0.5,95,108.0
4009,F#4,322.5,0.5,95,108.0
4010,D4,322.5,0.5,95,108.0
4011,A3,322.5,0.5,95,108.0
4012,G#2,322.5,0.25,74,108.0
4013,B1,322.5,0.25,74,108.0
4014,E-3,322.5,0.25,74,108.0
4015,G#2,322.75,0.25,63,108.0
4016,A3,323.0,0.125,63,108.0
4017,A4,323.0,0.5,95,108.0
4018,A3,323.0,0.5,95,108.0
4019,G#2,323.0,0.25,74,108.0
4020,D2,323.0,0.25,74,108.0
4021,E-5,323.0,0.25,74,108.0
4022,D4,323.125,0.125,79,108.0
4023,E4,323.25,0.125,95,108.0
4024,G#2,323.25,0.25,63,108.0
4025,E-3,323.25,0.25,63,108.0
4026,A4,323.375,0.125,95,108.0
4027,F#4,323.5,0.125,95,108.0
4028,D2,323.5,1.5,95,108.0
4029,G#4,323.5,1.5,95,108.0
4030,E4,323.5,1.5,95,108.0
4031,B3,323.5,1.5,95,108.0
4032,G#3,323.5,1.5,95,108.0
4033,E3,323.5,1.5,95,108.0
4034,F#4,323.5,1.5,95,108.0
4035,E4,323.5,1.5,95,108.0
4036,B3,323.5,1.5,95,108.0
4037,G#2,323.5,0.25,74,108.0
4038,B1,323.5,0.25,74,108.0
4039,A3,323.5,0.25,74,108.0
4040,E4,323.625,0.125,95,108.0
4041,D4,323.75,0.125,79,108.0
4042,G#2,323.75,0.25,63,108.0
4043,E-5,323.75,0.25,63,108.0
4044,A3,323.875,0.25,63,108.0
4045,G#2,324.0,0.25,63,108.0
4046,E-3,324.0,0.25,63,108.0
4047,G#2,324.25,0.25,79,108.0
4048,B1,324.25,0.25,79,108.0
4049,G#2,324.5,0.25,79,108.0
4050,B1,324.5,0.25,79,108.0
4051,D4,324.625,0.125,63,108.0
4052,E4,324.75,0.125,79,108.0
4053,G#2,324.75,0.25,63,108.0
4054,E-5,324.75,0.25,63,108.0
4055,A4,324.875,0.125,95,108.0
4056,D5,325.0,0.125,95,108.0
4057,D2,325.0,0.125,95,108.0
4058,A4,325.0,1.5,95,108.0
4059,A3,325.0,1.5,95,108.0
4060,A4,325.0,2.0,95,108.0
4061,E4,325.0,2.0,95,108.0
4062,A3,325.0,2.0,95,108.0
4063,D3,325.0,2.0,95,108.0
4064,A4,325.0,2.0,95,108.0
4065,E4,325.0,2.0,95,108.0
4066,B3,325.0,2.0,95,108.0
4067,G#2,325.0,0.25,74,108.0
4068,D2,325.0,0.25,74,108.0
4069,E-3,325.0,0.25,74,108.0
4070,E5,325.125,0.125,95,108.0
4071,A5,325.25,0.125,95,108.0
4072,G#2,325.25,0.25,63,108.0
4073,E5,325.375,0.125,95,108.0
4074,D5,325.5,0.125,95,108.0
4075,C2,325.5,0.5,95,108.0
4076,G#2,325.5,0.25,71,108.0
4077,B1,325.5,0.25,71,108.0
4078,A3,325.5,0.25,71,108.0
4079,E-5,325.5,0.25,71,108.0
4080,A4,325.625,0.125,95,108.0
4081,G4,325.75,0.125,95,108.0
4082,G#2,325.75,0.25,63,108.0
4083,E-5,325.75,0.25,63,108.0
4084,E4,325.875,0.125,95,108.0
4085,D4,326.0,0.125,79,108.0
4086,C2,326.0,0.5,95,108.0
4087,G4,326.0,4.0,63,108.0
4088,D4,326.0,4.0,63,108.0
4089,A3,326.0,4.0,63,108.0
4090,D3,326.0,4.0,63,108.0
4091,D4,326.0,4.0,95,108.0
4092,A3,326.0,4.0,95,108.0
4093,F#3,326.0,4.0,95,108.0
4094,G#2,326.0,0.25,74,108.0
4095,B1,326.0,0.25,74,108.0
4096,E-5,326.0,0.25,74,108.0
4097,D4,326.125,0.125,63,108.0
4098,G#2,326.25,0.25,63,108.0
4099,E-5,326.25,0.25,63,108.0
4100,F#5,326.5,1.5,95,108.0
4101,F#1,326.5,0.5,79,108.0
4102,D5,326.5,2.5,95,108.0
4103,D4,326.5,2.5,95,108.0
4104,G#2,326.5,0.25,74,108.0
4105,B1,326.5,0.25,74,108.0
4106,E-3,326.5,0.25,74,108.0
4107,G#2,326.75,0.25,63,108.0
4108,C2,327.0,0.5,95,108.0
4109,G4,327.0,0.5,95,108.0
4110,E4,327.0,0.5,95,108.0
4111,B3,327.0,0.5,95,108.0
4112,C3,327.0,0.5,95,108.0
4113,G4,327.0,0.5,95,108.0
4114,E4,327.0,0.5,95,108.0
4115,B3,327.0,0.5,95,108.0
4116,G#2,327.0,0.25,74,108.0
4117,D2,327.0,0.25,74,108.0
4118,E-5,327.0,0.25,74,108.0
4119,G#2,327.25,0.25,63,108.0
4120,E-3,327.25,0.25,63,108.0
4121,B1,327.5,1.0,95,108.0
4122,G#2,327.5,0.25,74,108.0
4123,B1,327.5,0.25,74,108.0
4124,A3,327.5,0.25,74,108.0
4125,G#2,327.75,0.25,63,108.0
4126,E-5,327.75,0.25,63,108.0
4127,A5,328.0,1.0,95,108.0
4128,G#2,328.0,0.25,63,108.0
4129,E-3,328.0,0.25,63,108.0
4130,G#2,328.25,0.25,79,108.0
4131,B1,328.25,0.25,79,108.0
4132,B1,328.5,0.25,79,108.0
4133,G#2,328.5,0.25,79,108.0
4134,B1,328.5,0.25,79,108.0
4135,B1,328.75,0.25,63,108.0
4136,G#2,328.75,0.25,63,108.0
4137,E-5,328.75,0.25,63,108.0
4138,A5,329.0,1.0,95,108.0
4139,B1,329.0,0.25,63,108.0
4140,G4,329.0,1.5,95,108.0
4141,E4,329.0,1.5,95,108.0
4142,B3,329.0,1.5,95,108.0
4143,C3,329.0,1.5,95,108.0
4144,G4,329.0,1.5,95,108.0
4145,E4,329.0,1.5,95,108.0
4146,B3,329.0,1.5,95,108.0
4147,G#2,329.0,0.25,74,108.0
4148,D2,329.0,0.25,74,108.0
4149,E-3,329.0,0.25,74,108.0
4150,B1,329.25,0.25,63,108.0
4151,G#2,329.25,0.25,63,108.0
4152,B1,329.5,0.25,79,108.0
4153,G#2,329.5,0.25,74,108.0
4154,B1,329.5,0.25,74,108.0
4155,E-5,329.5,0.25,74,108.0
4156,B1,329.75,0.25,63,108.0
4157,G#2,329.75,0.25,63,108.0
4158,E-5,329.75,0.25,63,108.0
4159,F#5,330.0,0.5,95,108.0
4160,E1,330.0,0.5,95,108.0
4161,E4,330.0,0.5,47,108.0
4162,B3,330.0,0.5,47,108.0
4163,G#3,330.0,0.5,47,108.0
4164,E3,330.0,0.5,47,108.0
4165,B2,330.0,0.5,47,108.0
4166,G#2,330.0,0.25,79,108.0
4167,B1,330.0,0.25,79,108.0
4168,A3,330.0,0.25,79,108.0
4169,E-5,330.0,0.25,79,108.0
4170,G#2,330.25,0.25,63,108.0
4171,E-5,330.25,0.25,63,108.0
4172,F#5,330.5,0.5,95,108.0
4173,E1,330.5,1.0,95,108.0
4174,F#4,330.5,2.5,95,108.0
4175,D4,330.5,2.5,95,108.0
4176,A3,330.5,2.5,95,108.0
4177,B2,330.5,2.5,95,108.0
4178,F#4,330.5,2.5,95,108.0
4179,E4,330.5,2.5,95,108.0
4180,A3,330.5,2.5,95,108.0
4181,G#2,330.5,0.25,74,108.0
4182,B1,330.5,0.25,74,108.0
4183,E-3,330.5,0.25,74,108.0
4184,G#2,330.75,0.25,63,108.0
4185,E4,330.75,0.25,47,108.0
4186,B3,330.75,0.25,47,108.0
4187,G#3,330.75,0.25,47,108.0
4188,E3,330.75,0.25,47,108.0
4189,B2,330.75,0.25,47,108.0
4190,F#5,331.0,1.0,63,108.0
4191,G#2,331.0,0.25,74,108.0
4192,D2,331.0,0.25,74,108.0
4193,E-5,331.0,0.25,74,108.0
4194,G#2,331.25,0.25,63,108.0
4195,E-3,331.25,0.25,63,108.0
4196,D2,331.5,1.5,95,108.0
4197,E4,331.5,1.0,47,108.0
4198,B3,331.5,1.0,47,108.0
4199,G#3,331.5,1.0,47,108.0
4200,E3,331.5,1.0,47,108.0
4201,B2,331.5,1.0,47,108.0
4202,G#2,331.5,0.25,74,108.0
4203,B1,331.5,0.25,74,108.0
4204,A3,331.5,0.25,74,108.0
4205,G#2,331.75,0.25,63,108.0
4206,E-5,331.75,0.25,63,108.0
4207,F#5,332.0,2.5,95,108.0
4208,G#2,332.0,0.25,63,108.0
4209,E-3,332.0,0.25,63,108.0
4210,G#2,332.25,0.25,79,108.0
4211,B1,332.25,0.25,79,108.0
4212,E4,332.5,0.75,47,108.0
4213,B3,332.5,0.75,47,108.0
4214,A3,332.5,0.75,47,108.0
4215,E3,332.5,0.75,47,108.0
4216,B2,332.5,0.75,47,108.0
4217,G#2,332.5,0.25,79,108.0
4218,B1,332.5,0.25,79,108.0
4219,G#2,332.75,0.25,63,108.0
4220,E-5,332.75,0.25,63,108.0
4221,D2,333.0,0.125,95,108.0
4222,D5,333.0,4.0,95,108.0
4223,D4,333.0,4.0,95,108.0
4224,G#4,333.0,1.5,95,108.0
4225,E4,333.0,1.5,95,108.0
4226,B3,333.0,1.5,95,108.0
4227,G#3,333.0,1.5,95,108.0
4228,E3,333.0,1.5,95,108.0
4229,F#4,333.0,1.5,95,108.0
4230,E4,333.0,1.5,95,108.0
4231,B3,333.0,1.5,95,108.0
4232,G#2,333.0,0.25,74,108.0
4233,D2,333.0,0.25,74,108.0
4234,E-3,333.0,0.25,74,108.0
4235,G#2,333.25,0.25,63,108.0
4236,E4,333.25,0.25,47,108.0
4237,B3,333.25,0.25,47,108.0
4238,A3,333.25,0.25,47,108.0
4239,E3,333.25,0.25,47,108.0
4240,B2,333.25,0.25,47,108.0
4241,C2,333.5,0.5,95,108.0
4242,G#2,333.5,0.25,71,108.0
4243,B1,333.5,0.25,71,108.0
4244,A3,333.5,0.25,71,108.0
4245,E-5,333.5,0.25,71,108.0
4246,E4,333.75,0.25,47,108.0
4247,B3,333.75,0.25,47,108.0
4248,A3,333.75,0.25,47,108.0
4249,E3,333.75,0.25,47,108.0
4250,B2,333.75,0.25,47,108.0
4251,G#2,333.75,0.25,63,108.0
4252,E-5,333.75,0.25,63,108.0
4253,C2,334.0,0.5,95,108.0
4254,E4,334.0,0.5,47,108.0
4255,B3,334.0,0.5,47,108.0
4256,G#3,334.0,0.5,47,108.0
4257,E3,334.0,0.5,47,108.0
4258,B2,334.0,0.5,47,108.0
4259,D4,334.0,4.0,95,108.0
4260,A3,334.0,4.0,95,108.0
4261,F#3,334.0,4.0,95,108.0
4262,G#2,334.0,0.25,74,108.0
4263,B1,334.0,0.25,74,108.0
4264,E-5,334.0,0.25,74,108.0
4265,G#2,334.25,0.25,63,108.0
4266,E-5,334.25,0.25,63,108.0
4267,F#5,334.5,0.5,95,108.0
4268,F#1,334.5,0.5,79,108.0
4269,A4,334.5,2.0,95,108.0
4270,E4,334.5,2.0,95,108.0
4271,A3,334.5,2.0,95,108.0
4272,D3,334.5,2.0,95,108.0
4273,A4,334.5,2.0,95,108.0
4274,E4,334.5,2.0,95,108.0
4275,B3,334.5,2.0,95,108.0
4276,G#2,334.5,0.25,74,108.0
4277,B1,334.5,0.25,74,108.0
4278,E-3,334.5,0.25,74,108.0
4279,G#2,334.75,0.25,63,108.0
4280,E4,334.75,0.25,47,108.0
4281,B3,334.75,0.25,47,108.0
4282,G#3,334.75,0.25,47,108.0
4283,E3,334.75,0.25,47,108.0
4284,B2,334.75,0.25,47,108.0
4285,A5,335.0,0.5,95,108.0
4286,C2,335.0,0.5,95,108.0
4287,G#2,335.0,0.25,74,108.0
4288,D2,335.0,0.25,74,108.0
4289,E-5,335.0,0.25,74,108.0
4290,G#2,335.25,0.25,63,108.0
4291,E-3,335.25,0.25,63,108.0
4292,B5,335.5,0.5,95,108.0
4293,B1,335.5,1.0,95,108.0
4294,E4,335.5,1.0,47,108.0
4295,B3,335.5,1.0,47,108.0
4296,G#3,335.5,1.0,47,108.0
4297,E3,335.5,1.0,47,108.0
4298,B2,335.5,1.0,47,108.0
4299,G#2,335.5,0.25,74,108.0
4300,B1,335.5,0.25,74,108.0
4301,A3,335.5,0.25,74,108.0
4302,G#2,335.75,0.25,63,108.0
4303,E-5,335.75,0.25,63,108.0
4304,D6,336.0,1.5,95,108.0
4305,G#2,336.0,0.25,63,108.0
4306,E-3,336.0,0.25,63,108.0
4307,G#2,336.25,0.25,79,108.0
4308,B1,336.25,0.25,79,108.0
4309,B1,336.5,0.25,79,108.0
4310,E4,336.5,0.75,47,108.0
4311,B3,336.5,0.75,47,108.0
4312,A3,336.5,0.75,47,108.0
4313,E3,336.5,0.75,47,108.0
4314,B2,336.5,0.75,47,108.0
4315,G4,336.5,0.5,95,108.0
4316,E4,336.5,0.5,95,108.0
4317,B3,336.5,0.5,95,108.0
4318,C3,336.5,0.5,95,108.0
4319,G4,336.5,0.5,95,108.0
4320,E4,336.5,0.5,95,108.0
4321,B3,336.5,0.5,95,108.0
4322,G#2,336.5,0.25,79,108.0
4323,B1,336.5,0.25,79,108.0
4324,B1,336.75,0.25,63,108.0
4325,G#2,336.75,0.25,63,108.0
4326,E-5,336.75,0.25,63,108.0
4327,F#4,337.0,1.5,95,108.0
4328,B1,337.0,0.25,63,108.0
4329,G#2,337.0,0.25,79,108.0
4330,D2,337.0,0.25,79,108.0
4331,F#2,337.0,0.25,79,108.0
4332,E-3,337.0,0.25,79,108.0
4333,B1,337.25,0.25,63,108.0
4334,E4,337.25,0.25,47,108.0
4335,B3,337.25,0.25,47,108.0
4336,A3,337.25,0.25,47,108.0
4337,E3,337.25,0.25,47,108.0
4338,B2,337.25,0.25,47,108.0
4339,G#2,337.25,0.25,79,108.0
4340,F#2,337.25,0.25,79,108.0
4341,F#6,337.5,0.5,95,108.0
4342,B1,337.5,0.25,79,108.0
4343,G#2,337.5,0.25,79,108.0
4344,B1,337.5,0.25,79,108.0
4345,F#2,337.5,0.25,79,108.0
4346,E-5,337.5,0.25,79,108.0
4347,B1,337.75,0.25,63,108.0
4348,E4,337.75,0.25,47,108.0
4349,B3,337.75,0.25,47,108.0
4350,A3,337.75,0.25,47,108.0
4351,E3,337.75,0.25,47,108.0
4352,B2,337.75,0.25,47,108.0
4353,G#2,337.75,0.25,74,108.0
4354,F#2,337.75,0.25,74,108.0
4355,E-5,337.75,0.25,74,108.0
4356,G6,338.0,0.5,95,108.0
4357,A1,338.0,0.5,95,108.0
4358,F#4,338.0,0.5,47,108.0
4359,D4,338.0,0.5,47,108.0
4360,A3,338.0,0.5,47,108.0
4361,F#3,338.0,0.5,47,108.0
4362,B2,338.0,0.5,47,108.0
4363,E4,338.0,4.0,95,108.0
4364,B3,338.0,4.0,95,108.0
4365,G#3,338.0,4.0,95,108.0
4366,G#2,338.0,0.25,79,108.0
4367,B1,338.0,0.25,79,108.0
4368,E-5,338.0,0.25,79,108.0
4369,A3,338.0,0.25,79,108.0
4370,G#2,338.25,0.25,63,108.0
4371,E-5,338.25,0.25,63,108.0
4372,A4,338.5,1.0,95,108.0
4373,F#6,338.5,0.5,95,108.0
4374,A1,338.5,0.25,95,108.0
4375,G4,338.5,1.5,95,108.0
4376,E4,338.5,1.5,95,108.0
4377,B3,338.5,1.5,95,108.0
4378,C3,338.5,1.5,95,108.0
4379,G4,338.5,1.5,95,108.0
4380,E4,338.5,1.5,95,108.0
4381,B3,338.5,1.5,95,108.0
4382,G#2,338.5,0.25,74,108.0
4383,B1,338.5,0.25,74,108.0
4384,E-3,338.5,0.25,74,108.0
4385,G1,338.75,0.25,95,108.0
4386,G#2,338.75,0.25,63,108.0
4387,F#4,338.75,0.25,47,108.0
4388,D4,338.75,0.25,47,108.0
4389,A3,338.75,0.25,47,108.0
4390,F#3,338.75,0.25,47,108.0
4391,B2,338.75,0.25,47,108.0
4392,E6,339.0,3.5,95,108.0
4393,A1,339.0,0.25,95,108.0
4394,G#2,339.0,0.25,74,108.0
4395,D2,339.0,0.25,74,108.0
4396,E-5,339.0,0.25,74,108.0
4397,G#2,339.25,0.25,63,108.0
4398,E-3,339.25,0.25,63,108.0
4399,A4,339.5,1.0,95,108.0
4400,G1,339.5,1.0,95,108.0
4401,F#4,339.5,1.0,47,108.0
4402,D4,339.5,1.0,47,108.0
4403,A3,339.5,1.0,47,108.0
4404,F#3,339.5,1.0,47,108.0
4405,B2,339.5,1.0,47,108.0
4406,G#2,339.5,0.25,84,108.0
4407,B1,339.5,0.25,84,108.0
4408,A3,339.5,0.25,84,108.0
4409,G#2,339.75,0.25,63,108.0
4410,E-5,339.75,0.25,63,108.0
4411,F#4,340.0,2.5,95,108.0
4412,D4,340.0,2.5,95,108.0
4413,A3,340.0,2.5,95,108.0
4414,B2,340.0,2.5,95,108.0
4415,F#4,340.0,2.5,95,108.0
4416,E4,340.0,2.5,95,108.0
4417,A3,340.0,2.5,95,108.0
4418,G#2,340.0,0.25,63,108.0
4419,E-3,340.0,0.25,63,108.0
4420,G#2,340.25,0.25,79,108.0
4421,B1,340.25,0.25,79,108.0
4422,F#4,340.5,0.5,95,108.0
4423,G1,340.5,0.25,95,108.0
4424,F#4,340.5,0.75,47,108.0
4425,D4,340.5,0.75,47,108.0
4426,A3,340.5,0.75,47,108.0
4427,F#3,340.5,0.75,47,108.0
4428,B2,340.5,0.75,47,108.0
4429,G#2,340.5,0.25,79,108.0
4430,B1,340.5,0.25,79,108.0
4431,G#2,340.75,0.25,63,108.0
4432,E-5,340.75,0.25,63,108.0
4433,F#4,341.0,0.5,95,108.0
4434,G#2,341.0,0.25,74,108.0
4435,D2,341.0,0.25,74,108.0
4436,E-3,341.0,0.25,74,108.0
4437,G#2,341.25,0.25,63,108.0
4438,F#4,341.25,0.25,47,108.0
4439,D4,341.25,0.25,47,108.0
4440,A3,341.25,0.25,47,108.0
4441,F#3,341.25,0.25,47,108.0
4442,B2,341.25,0.25,47,108.0
4443,F#4,341.5,1.0,63,108.0
4444,F1,341.5,0.5,95,108.0
4445,G#2,341.5,0.25,79,108.0
4446,B1,341.5,0.25,79,108.0
4447,E-5,341.5,0.25,79,108.0
4448,A3,341.5,0.25,79,108.0
4449,F#4,341.75,0.25,47,108.0
4450,D4,341.75,0.25,47,108.0
4451,A3,341.75,0.25,47,108.0
4452,F#3,341.75,0.25,47,108.0
4453,B2,341.75,0.25,47,108.0
4454,G#2,341.75,0.25,63,108.0
4455,E-5,341.75,0.25,63,108.0
4456,F1,342.0,0.5,95,108.0
4457,F#4,342.0,0.5,47,108.0
4458,D4,342.0,0.5,47,108.0
4459,A3,342.0,0.5,47,108.0
4460,F#3,342.0,0.5,47,108.0
4461,B2,342.0,0.5,47,108.0
4462,G#2,342.0,0.25,74,108.0
4463,B1,342.0,0.25,74,108.0
4464,E-5,342.0,0.25,74,108.0
4465,G#2,342.25,0.25,63,108.0
4466,E-5,342.25,0.25,63,108.0
4467,F#4,342.5,2.5,95,108.0
4468,A5,342.5,1.5,95,108.0
4469,F2,342.5,0.5,95,108.0
4470,A4,342.5,1.5,95,108.0
4471,E4,342.5,1.5,95,108.0
4472,C4,342.5,1.5,95,108.0
4473,A2,342.5,1.5,95,108.0
4474,E4,342.5,1.5,95,108.0
4475,C4,342.5,1.5,95,108.0
4476,A3,342.5,1.5,95,108.0
4477,G#2,342.5,0.25,79,108.0
4478,B1,342.5,0.25,79,108.0
4479,E-3,342.5,0.25,79,108.0
4480,C#5,342.5,0.25,79,108.0
4481,G#2,342.75,0.25,63,108.0
4482,F#4,342.75,0.25,47,108.0
4483,D4,342.75,0.25,47,108.0
4484,A3,342.75,0.25,47,108.0
4485,F#3,342.75,0.25,47,108.0
4486,B2,342.75,0.25,47,108.0
4487,F2,343.0,2.0,95,108.0
4488,G#2,343.0,0.25,79,108.0
4489,D2,343.0,0.25,79,108.0
4490,E-5,343.0,0.25,79,108.0
4491,C#5,343.0,0.25,79,108.0
4492,G#2,343.25,0.25,63,108.0
4493,E-3,343.25,0.25,63,108.0
4494,F#4,343.5,1.0,47,108.0
4495,D4,343.5,1.0,47,108.0
4496,A3,343.5,1.0,47,108.0
4497,F#3,343.5,1.0,47,108.0
4498,B2,343.5,1.0,47,108.0
4499,G#2,343.5,0.25,79,108.0
4500,B1,343.5,0.25,79,108.0
4501,G#2,343.75,0.25,63,108.0
4502,E-5,343.75,0.25,63,108.0
4503,E5,344.0,1.0,95,108.0
4504,B4,344.0,1.0,95,108.0
4505,G4,344.0,2.0,95,108.0
4506,D4,344.0,2.0,95,108.0
4507,G2,344.0,2.0,95,108.0
4508,G4,344.0,2.0,95,108.0
4509,D4,344.0,2.0,95,108.0
4510,B3,344.0,2.0,95,108.0
4511,G#2,344.0,0.25,63,108.0
4512,E-3,344.0,0.25,63,108.0
4513,G#2,344.25,0.25,79,108.0
4514,B1,344.25,0.25,79,108.0
4515,F#4,344.5,0.75,47,108.0
4516,D4,344.5,0.75,47,108.0
4517,A3,344.5,0.75,47,108.0
4518,F#3,344.5,0.75,47,108.0
4519,B2,344.5,0.75,47,108.0
4520,G#2,344.5,0.25,79,108.0
4521,B1,344.5,0.25,79,108.0
4522,G#2,344.75,0.25,63,108.0
4523,E-5,344.75,0.25,63,108.0
4524,F#4,345.0,0.5,95,108.0
4525,F#5,345.0,0.5,95,108.0
4526,C5,345.0,1.0,95,108.0
4527,G1,345.0,1.0,95,108.0
4528,G#2,345.0,0.25,74,108.0
4529,D2,345.0,0.25,74,108.0
4530,E-3,345.0,0.25,74,108.0
4531,G#2,345.25,0.25,63,108.0
4532,F#4,345.25,0.25,47,108.0
4533,D4,345.25,0.25,47,108.0
4534,A3,345.25,0.25,47,108.0
4535,F#3,345.25,0.25,47,108.0
4536,B2,345.25,0.25,47,108.0
4537,A4,345.5,0.5,95,108.0
4538,E5,345.5,0.5,95,108.0
4539,G#2,345.5,0.25,74,108.0
4540,B1,345.5,0.25,74,108.0
4541,E-5,345.5,0.25,74,108.0
4542,F#4,345.75,0.25,47,108.0
4543,D4,345.75,0.25,47,108.0
4544,A3,345.75,0.25,47,108.0
4545,F#3,345.75,0.25,47,108.0
4546,B2,345.75,0.25,47,108.0
4547,G#2,345.75,0.25,63,108.0
4548,E-5,345.75,0.25,63,108.0
4549,B4,346.0,0.5,95,108.0
4550,B5,346.0,0.5,95,108.0
4551,F2,346.0,0.5,95,108.0
4552,A1,346.0,0.25,95,108.0
4553,G4,346.0,0.5,47,108.0
4554,C4,346.0,0.5,47,108.0
4555,G3,346.0,0.5,47,108.0
4556,E3,346.0,0.5,47,108.0
4557,A2,346.0,0.5,47,108.0
4558,B4,346.0,0.5,95,108.0
4559,E4,346.0,0.5,95,108.0
4560,C4,346.0,0.5,95,108.0
4561,A4,346.0,0.5,95,108.0
4562,E4,346.0,0.5,95,108.0
4563,C4,346.0,0.5,95,108.0
4564,E4,346.0,4.0,95,108.0
4565,B3,346.0,4.0,95,108.0
4566,G#3,346.0,4.0,95,108.0
4567,G#2,346.0,0.25,84,108.0
4568,B1,346.0,0.25,84,108.0
4569,E3,346.0,0.25,84,108.0
4570,G1,346.25,0.25,79,108.0
4571,G#2,346.25,0.25,63,108.0
4572,D5,346.5,1.5,95,108.0
4573,B5,346.5,4.0,95,108.0
4574,F1,346.5,0.25,63,108.0
4575,G#2,346.5,0.25,79,108.0
4576,B1,346.5,0.25,79,108.0
4577,G1,346.75,0.25,47,108.0
4578,G#2,346.75,0.25,63,108.0
4579,G4,346.75,0.25,47,108.0
4580,C4,346.75,0.25,47,108.0
4581,G3,346.75,0.25,47,108.0
4582,E3,346.75,0.25,47,108.0
4583,A2,346.75,0.25,47,108.0
4584,F2,347.0,4.0,95,108.0
4585,A1,347.0,0.5,95,108.0
4586,B4,347.0,0.5,95,108.0
4587,E4,347.0,0.5,95,108.0
4588,C4,347.0,0.5,95,108.0
4589,G#2,347.0,0.25,79,108.0
4590,D2,347.0,0.25,79,108.0
4591,G#2,347.25,0.25,63,108.0
4592,A1,347.5,0.5,95,108.0
4593,G4,347.5,1.0,47,108.0
4594,C4,347.5,1.0,47,108.0
4595,G3,347.5,1.0,47,108.0
4596,E3,347.5,1.0,47,108.0
4597,A2,347.5,1.0,47,108.0
4598,A4,347.5,0.5,95,108.0
4599,E4,347.5,0.5,95,108.0
4600,C4,347.5,0.5,95,108.0
4601,G#2,347.5,0.25,79,108.0
4602,F#2,347.5,0.25,79,108.0
4603,G#2,347.75,0.25,63,108.0
4604,F#5,348.0,0.5,95,108.0
4605,G#2,348.0,0.25,63,108.0
4606,A4,348.0,3.0,95,108.0
4607,E4,348.0,3.0,95,108.0
4608,C4,348.0,3.0,95,108.0
4609,E1,348.25,0.125,95,108.0
4610,G#2,348.25,0.25,84,108.0
4611,B1,348.25,0.25,84,108.0
4612,F#2,348.25,0.25,84,108.0
4613,G5,348.5,0.5,95,108.0
4614,G1,348.5,0.5,95,108.0
4615,G4,348.5,0.75,47,108.0
4616,C4,348.5,0.75,47,108.0
4617,G3,348.5,0.75,47,108.0
4618,E3,348.5,0.75,47,108.0
4619,A2,348.5,0.75,47,108.0
4620,G#2,348.5,0.25,84,108.0
4621,B1,348.5,0.25,84,108.0
4622,F#2,348.5,0.25,84,108.0
4623,G#2,348.75,0.25,63,108.0
4624,F#5,349.0,0.5,95,108.0
4625,G1,349.0,1.0,95,108.0
4626,G#2,349.0,0.25,79,108.0
4627,D2,349.0,0.25,79,108.0
4628,G#2,349.25,0.25,63,108.0
4629,G4,349.25,0.25,47,108.0
4630,C4,349.25,0.25,47,108.0
4631,G3,349.25,0.25,47,108.0
4632,E3,349.25,0.25,47,108.0
4633,A2,349.25,0.25,47,108.0
4634,E5,349.5,3.5,95,108.0
4635,G#2,349.5,0.25,79,108.0
4636,B1,349.5,0.25,79,108.0
4637,G4,349.75,0.25,47,108.0
4638,C4,349.75,0.25,47,108.0
4639,G3,349.75,0.25,47,108.0
4640,E3,349.75,0.25,47,108.0
4641,A2,349.75,0.25,47,108.0
4642,G#2,349.75,0.25,79,108.0
4643,F#2,349.75,0.25,79,108.0
4644,F1,350.0,0.5,95,108.0
4645,G4,350.0,0.5,47,108.0
4646,C4,350.0,0.5,47,108.0
4647,G3,350.0,0.5,47,108.0
4648,E3,350.0,0.5,47,108.0
4649,A2,350.0,0.5,47,108.0
4650,F#4,350.0,4.0,95,108.0
4651,D4,350.0,4.0,95,108.0
4652,A3,350.0,4.0,95,108.0
4653,G#2,350.0,0.25,79,108.0
4654,B1,350.0,0.25,79,108.0
4655,G#2,350.25,0.25,63,108.0
4656,A5,350.5,1.5,95,108.0
4657,F1,350.5,0.5,95,108.0
4658,A4,350.5,4.0,95,108.0
4659,E4,350.5,4.0,95,108.0
4660,C4,350.5,4.0,95,108.0
4661,G#2,350.5,0.25,79,108.0
4662,B1,350.5,0.25,79,108.0
4663,G#2,350.75,0.25,63,108.0
4664,G4,350.75,0.25,47,108.0
4665,C4,350.75,0.25,47,108.0
4666,G3,350.75,0.25,47,108.0
4667,E3,350.75,0.25,47,108.0
4668,A2,350.75,0.25,47,108.0
4669,G#2,351.0,0.25,79,108.0
4670,D2,351.0,0.25,79,108.0
4671,G#2,351.25,0.25,63,108.0
4672,F1,351.5,0.25,95,108.0
4673,G4,351.5,1.0,47,108.0
4674,C4,351.5,1.0,47,108.0
4675,G3,351.5,1.0,47,108.0
4676,E3,351.5,1.0,47,108.0
4677,A2,351.5,1.0,47,108.0
4678,G#2,351.5,0.25,79,108.0
4679,F#2,351.5,0.25,79,108.0
4680,G#2,351.75,0.25,63,108.0
4681,B5,352.0,0.5,95,108.0
4682,G#2,352.0,0.25,63,108.0
4683,F1,352.25,0.25,95,108.0
4684,G#2,352.25,0.25,84,108.0
4685,B1,352.25,0.25,84,108.0
4686,F#2,352.25,0.25,84,108.0
4687,G1,352.5,0.5,95,108.0
4688,G4,352.5,0.75,47,108.0
4689,C4,352.5,0.75,47,108.0
4690,G3,352.5,0.75,47,108.0
4691,E3,352.5,0.75,47,108.0
4692,A2,352.5,0.75,47,108.0
4693,G#2,352.5,0.25,84,108.0
4694,B1,352.5,0.25,84,108.0
4695,F#2,352.5,0.25,84,108.0
4696,G#2,352.75,0.25,63,108.0
4697,C6,353.0,0.5,95,108.0
4698,G1,353.0,0.5,95,108.0
4699,G#2,353.0,0.25,79,108.0
4700,D2,353.0,0.25,79,108.0
4701,G#2,353.25,0.25,63,108.0
4702,G4,353.25,0.25,47,108.0
4703,C4,353.25,0.25,47,108.0
4704,G3,353.25,0.25,47,108.0
4705,E3,353.25,0.25,47,108.0
4706,A2,353.25,0.25,47,108.0
4707,G#1,353.5,0.5,95,108.0
4708,G#2,353.5,0.25,79,108.0
4709,B1,353.5,0.25,79,108.0
4710,G4,353.75,0.25,47,108.0
4711,C4,353.75,0.25,47,108.0
4712,G3,353.75,0.25,47,108.0
4713,E3,353.75,0.25,47,108.0
4714,A2,353.75,0.25,47,108.0
4715,G#2,353.75,0.25,79,108.0
4716,F#2,353.75,0.25,79,108.0
4717,B5,354.0,0.5,95,108.0
4718,A1,354.0,0.5,95,108.0
4719,G4,354.0,0.5,57,108.0
4720,D4,354.0,0.5,57,108.0
4721,A3,354.0,0.5,57,108.0
4722,D3,354.0,0.5,57,108.0
4723,D3,354.0,0.5,57,108.0
4724,G#2,354.0,0.25,79,108.0
4725,B1,354.0,0.25,79,108.0
4726,G#2,354.25,0.25,63,108.0
4727,B5,354.5,0.5,95,108.0
4728,A1,354.5,0.5,95,108.0
4729,G#2,354.5,0.25,79,108.0
4730,B1,354.5,0.25,79,108.0
4731,G#2,354.75,0.25,63,108.0
4732,G4,354.75,0.25,47,108.0
4733,D4,354.75,0.25,47,108.0
4734,A3,354.75,0.25,47,108.0
4735,D3,354.75,0.25,47,108.0
4736,D3,354.75,0.25,47,108.0
4737,A5,355.0,0.5,95,108.0
4738,G#2,355.0,0.25,79,108.0
4739,D2,355.0,0.25,79,108.0
4740,G#2,355.25,0.25,63,108.0
4741,A5,355.5,2.0,95,108.0
4742,A1,355.5,0.25,95,108.0
4743,F#4,355.5,1.0,47,108.0
4744,D4,355.5,1.0,47,108.0
4745,A3,355.5,1.0,47,108.0
4746,D3,355.5,1.0,47,108.0
4747,D3,355.5,1.0,47,108.0
4748,G#2,355.5,0.25,79,108.0
4749,F#2,355.5,0.25,79,108.0
4750,G#2,355.75,0.25,63,108.0
4751,G#2,356.0,0.25,63,108.0
4752,E1,356.25,0.25,95,108.0
4753,G#2,356.25,0.25,84,108.0
4754,B1,356.25,0.25,84,108.0
4755,F#2,356.25,0.25,84,108.0
4756,G1,356.5,0.5,95,108.0
4757,F#4,356.5,0.75,47,108.0
4758,D4,356.5,0.75,47,108.0
4759,A3,356.5,0.75,47,108.0
4760,D3,356.5,0.75,47,108.0
4761,A2,356.5,0.75,47,108.0
4762,G#2,356.5,0.25,84,108.0
4763,B1,356.5,0.25,84,108.0
4764,F#2,356.5,0.25,84,108.0
4765,G#2,356.75,0.25,63,108.0
4766,G1,357.0,1.0,95,108.0
4767,G#2,357.0,0.25,79,108.0
4768,D2,357.0,0.25,79,108.0
4769,G#2,357.25,0.25,63,108.0
4770,F#4,357.25,0.25,47,108.0
4771,D4,357.25,0.25,47,108.0
4772,A3,357.25,0.25,47,108.0
4773,D3,357.25,0.25,47,108.0
4774,D3,357.25,0.25,47,108.0
4775,G#2,357.5,0.25,79,108.0
4776,B1,357.5,0.25,79,108.0
4777,F#4,357.75,0.25,47,108.0
4778,D4,357.75,0.25,47,108.0
4779,A3,357.75,0.25,47,108.0
4780,D3,357.75,0.25,47,108.0
4781,D3,357.75,0.25,47,108.0
4782,G#2,357.75,0.25,79,108.0
4783,F#2,357.75,0.25,79,108.0
4784,F1,358.0,0.5,95,108.0
4785,G4,358.0,0.5,57,108.0
4786,D4,358.0,0.5,57,108.0
4787,A3,358.0,0.5,57,108.0
4788,D3,358.0,0.5,57,108.0
4789,D3,358.0,0.5,57,108.0
4790,F#4,358.0,4.0,95,108.0
4791,D4,358.0,4.0,95,108.0
4792,A3,358.0,4.0,95,108.0
4793,G#2,358.0,0.25,79,108.0
4794,B1,358.0,0.25,79,108.0
4795,G#2,358.25,0.25,63,108.0
4796,F1,358.5,0.5,95,108.0
4797,G#2,358.5,0.25,79,108.0
4798,B1,358.5,0.25,79,108.0
4799,G#2,358.75,0.25,63,108.0
4800,G4,358.75,0.25,47,108.0
4801,D4,358.75,0.25,47,108.0
4802,A3,358.75,0.25,47,108.0
4803,D3,358.75,0.25,47,108.0
4804,D3,358.75,0.25,47,108.0
4805,C2,359.0,0.5,95,108.0
4806,G#2,359.0,0.25,79,108.0
4807,D2,359.0,0.25,79,108.0
4808,G#2,359.25,0.25,63,108.0
4809,F1,359.5,1.0,95,108.0
4810,F#4,359.5,1.0,47,108.0
4811,D4,359.5,1.0,47,108.0
4812,A3,359.5,1.0,47,108.0
4813,D3,359.5,1.0,47,108.0
4814,D3,359.5,1.0,47,108.0
4815,G#2,359.5,0.25,79,108.0
4816,F#2,359.5,0.25,79,108.0
4817,G#2,359.75,0.25,63,108.0
4818,G#2,360.0,0.25,63,108.0
4819,G#2,360.25,0.25,84,108.0
4820,B1,360.25,0.25,84,108.0
4821,F#2,360.25,0.25,84,108.0
4822,E2,360.5,0.5,95,108.0
4823,F#4,360.5,0.75,47,108.0
4824,D4,360.5,0.75,47,108.0
4825,A3,360.5,0.75,47,108.0
4826,D3,360.5,0.75,47,108.0
4827,A2,360.5,0.75,47,108.0
4828,G#2,360.5,0.25,84,108.0
4829,B1,360.5,0.25,84,108.0
4830,F#2,360.5,0.25,84,108.0
4831,G#2,360.75,0.25,63,108.0
4832,A4,361.0,1.5,95,108.0
4833,D2,361.0,0.25,95,108.0
4834,G#2,361.0,0.25,79,108.0
4835,D2,361.0,0.25,79,108.0
4836,C2,361.25,0.25,95,108.0
4837,G#2,361.25,0.25,63,108.0
4838,F#4,361.25,0.25,47,108.0
4839,D4,361.25,0.25,47,108.0
4840,A3,361.25,0.25,47,108.0
4841,D3,361.25,0.25,47,108.0
4842,D3,361.25,0.25,47,108.0
4843,A1,361.5,0.5,95,108.0
4844,G#2,361.5,0.25,79,108.0
4845,B1,361.5,0.25,79,108.0
4846,F#4,361.75,0.25,47,108.0
4847,D4,361.75,0.25,47,108.0
4848,A3,361.75,0.25,47,108.0
4849,D3,361.75,0.25,47,108.0
4850,D3,361.75,0.25,47,108.0
4851,G#2,361.75,0.25,79,108.0
4852,F#2,361.75,0.25,79,108.0
4853,A1,362.0,0.25,95,108.0
4854,E4,362.0,0.5,47,108.0
4855,B3,362.0,0.5,47,108.0
4856,G#3,362.0,0.5,47,108.0
4857,E3,362.0,0.5,47,108.0
4858,B2,362.0,0.5,47,108.0
4859,E4,362.0,4.0,95,108.0
4860,C4,362.0,4.0,95,108.0
4861,G3,362.0,4.0,95,108.0
4862,G#2,362.0,0.25,79,108.0
4863,B1,362.0,0.25,79,108.0
4864,G1,362.25,0.25,79,108.0
4865,G#2,362.25,0.25,63,108.0
4866,B4,362.5,0.5,95,108.0
4867,A1,362.5,0.25,79,108.0
4868,G#2,362.5,0.25,79,108.0
4869,B1,362.5,0.25,79,108.0
4870,A1,362.75,0.25,63,108.0
4871,G#2,362.75,0.25,63,108.0
4872,E4,362.75,0.25,47,108.0
4873,B3,362.75,0.25,47,108.0
4874,G#3,362.75,0.25,47,108.0
4875,E3,362.75,0.25,47,108.0
4876,B2,362.75,0.25,47,108.0
4877,G#2,363.0,0.25,79,108.0
4878,D2,363.0,0.25,79,108.0
4879,G#2,363.25,0.25,63,108.0
4880,C5,363.5,0.5,95,108.0
4881,A1,363.5,0.5,95,108.0
4882,E4,363.5,1.0,47,108.0
4883,D4,363.5,1.0,47,108.0
4884,A3,363.5,1.0,47,108.0
4885,D3,363.5,1.0,47,108.0
4886,G#2,363.5,0.25,79,108.0
4887,F#2,363.5,0.25,79,108.0
4888,G#2,363.75,0.25,63,108.0
4889,G#2,364.0,0.25,63,108.0
4890,E1,364.25,0.125,95,108.0
4891,G#2,364.25,0.25,84,108.0
4892,B1,364.25,0.25,84,108.0
4893,F#2,364.25,0.25,84,108.0
4894,B4,364.5,0.5,95,108.0
4895,G1,364.5,0.5,95,108.0
4896,E4,364.5,1.0,47,108.0
4897,D4,364.5,1.0,47,108.0
4898,A3,364.5,1.0,47,108.0
4899,D3,364.5,1.0,47,108.0
4900,G#2,364.5,0.25,84,108.0
4901,B1,364.5,0.25,84,108.0
4902,F#2,364.5,0.25,84,108.0
4903,G#2,364.75,0.25,63,108.0
4904,B4,365.0,0.5,95,108.0
4905,G1,365.0,1.0,95,108.0
4906,D6,365.0,0.25,47,108.0
4907,B5,365.0,0.25,47,108.0
4908,G5,365.0,0.25,47,108.0
4909,G#2,365.0,0.25,79,108.0
4910,D2,365.0,0.25,79,108.0
4911,G#2,365.25,0.25,63,108.0
4912,D6,365.25,0.25,47,108.0
4913,B5,365.25,0.25,47,108.0
4914,G5,365.25,0.25,47,108.0
4915,A4,365.5,0.5,95,108.0
4916,E4,365.5,0.5,47,108.0
4917,B3,365.5,0.5,47,108.0
4918,G3,365.5,0.5,47,108.0
4919,E3,365.5,0.5,47,108.0
4920,C3,365.5,0.5,47,108.0
4921,D6,365.5,0.25,31,108.0
4922,B5,365.5,0.25,31,108.0
4923,G5,365.5,0.25,31,108.0
4924,G#2,365.5,0.25,79,108.0
4925,B1,365.5,0.25,79,108.0
4926,D6,365.75,0.25,47,108.0
4927,B5,365.75,0.25,47,108.0
4928,G5,365.75,0.25,47,108.0
4929,G#2,365.75,0.25,79,108.0
4930,F#2,365.75,0.25,79,108.0
4931,A4,366.0,2.0,95,108.0
4932,F1,366.0,0.5,95,108.0
4933,E4,366.0,0.5,47,108.0
4934,B3,366.0,0.5,47,108.0
4935,G3,366.0,0.5,47,108.0
4936,E3,366.0,0.5,47,108.0
4937,C3,366.0,0.5,47,108.0
4938,D6,366.0,0.5,63,108.0
4939,B5,366.0,0.5,63,108.0
4940,G5,366.0,0.5,63,108.0
4941,G#2,366.0,0.25,79,108.0
4942,B1,366.0,0.25,79,108.0
4943,G#2,366.25,0.25,63,108.0
4944,F1,366.5,0.5,95,108.0
4945,E6,366.5,0.25,47,108.0
4946,C6,366.5,0.25,47,108.0
4947,A5,366.5,0.25,47,108.0
4948,G#2,366.5,0.25,79,108.0
4949,B1,366.5,0.25,79,108.0
4950,G#2,366.75,0.25,63,108.0
4951,E4,367.0,0.25,47,108.0
4952,B3,367.0,0.25,47,108.0
4953,G3,367.0,0.25,47,108.0
4954,E3,367.0,0.25,47,108.0
4955,C3,367.0,0.25,47,108.0
4956,G#2,367.0,0.25,79,108.0
4957,D2,367.0,0.25,79,108.0
4958,G#2,367.25,0.25,63,108.0
4959,F1,367.5,0.25,95,108.0
4960,E4,367.5,1.0,47,108.0
4961,D4,367.5,1.0,47,108.0
4962,A3,367.5,1.0,47,108.0
4963,D3,367.5,1.0,47,108.0
4964,D3,367.5,1.0,47,108.0
4965,G#2,367.5,0.25,79,108.0
4966,F#2,367.5,0.25,79,108.0
4967,G#2,367.75,0.25,63,108.0
4968,G#2,368.0,0.25,63,108.0
4969,F1,368.25,0.25,95,108.0
4970,G#2,368.25,0.25,84,108.0
4971,B1,368.25,0.25,84,108.0
4972,F#2,368.25,0.25,84,108.0
4973,G1,368.5,0.5,95,108.0
4974,E4,368.5,1.0,47,108.0
4975,D4,368.5,1.0,47,108.0
4976,A3,368.5,1.0,47,108.0
4977,D3,368.5,1.0,47,108.0
4978,D3,368.5,1.0,47,108.0
4979,G#2,368.5,0.25,84,108.0
4980,B1,368.5,0.25,84,108.0
4981,F#2,368.5,0.25,84,108.0
4982,G#2,368.75,0.25,63,108.0
4983,G1,369.0,1.0,95,108.0
4984,G#2,369.0,0.25,79,108.0
4985,D2,369.0,0.25,79,108.0
4986,G#2,369.25,0.25,63,108.0
4987,E4,369.5,0.5,47,108.0
4988,D4,369.5,0.5,47,108.0
4989,A3,369.5,0.5,47,108.0
4990,D3,369.5,0.5,47,108.0
4991,D3,369.5,0.5,47,108.0
4992,G#2,369.5,0.25,79,108.0
4993,B1,369.5,0.25,79,108.0
4994,G#2,369.75,0.25,79,108.0
4995,F#2,369.75,0.25,79,108.0
4996,A1,370.0,0.5,95,108.0
4997,E4,370.0,0.5,47,108.0
4998,B3,370.0,0.5,47,108.0
4999,G#3,370.0,0.5,47,108.0
5000,E3,370.0,0.5,47,108.0
5001,B2,370.0,0.5,47,108.0
5002,E4,370.0,4.0,95,108.0
5003,C4,370.0,4.0,95,108.0
5004,G3,370.0,4.0,95,108.0
5005,G#2,370.0,0.25,79,108.0
5006,B1,370.0,0.25,79,108.0
5007,G#2,370.25,0.25,63,108.0
5008,A1,370.5,0.5,95,108.0
5009,G#2,370.5,0.25,79,108.0
5010,B1,370.5,0.25,79,108.0
5011,G#2,370.75,0.25,63,108.0
5012,E4,370.75,0.25,47,108.0
5013,B3,370.75,0.25,47,108.0
5014,G#3,370.75,0.25,47,108.0
5015,E3,370.75,0.25,47,108.0
5016,B2,370.75,0.25,47,108.0
5017,G#2,371.0,0.25,79,108.0
5018,D2,371.0,0.25,79,108.0
5019,G#2,371.25,0.25,63,108.0
5020,A1,371.5,0.25,95,108.0
5021,E4,371.5,1.0,47,108.0
5022,D4,371.5,1.0,47,108.0
5023,A3,371.5,1.0,47,108.0
5024,D3,371.5,1.0,47,108.0
5025,D3,371.5,1.0,47,108.0
5026,G#2,371.5,0.25,79,108.0
5027,F#2,371.5,0.25,79,108.0
5028,G#2,371.75,0.25,63,108.0
5029,G#2,372.0,0.25,63,108.0
5030,E1,372.25,0.25,95,108.0
5031,G#2,372.25,0.25,84,108.0
5032,B1,372.25,0.25,84,108.0
5033,F#2,372.25,0.25,84,108.0
5034,G1,372.5,0.5,95,108.0
5035,E4,372.5,1.0,47,108.0
5036,D4,372.5,1.0,47,108.0
5037,A3,372.5,1.0,47,108.0
5038,D3,372.5,1.0,47,108.0
5039,A2,372.5,1.0,47,108.0
5040,G#2,372.5,0.25,84,108.0
5041,B1,372.5,0.25,84,108.0
5042,F#2,372.5,0.25,84,108.0
5043,G#2,372.75,0.25,63,108.0
5044,G1,373.0,1.0,95,108.0
5045,G#2,373.0,0.25,79,108.0
5046,D2,373.0,0.25,79,108.0
5047,G#2,373.25,0.25,63,108.0
5048,E4,373.5,0.5,47,108.0
5049,B3,373.5,0.5,47,108.0
5050,G3,373.5,0.5,47,108.0
5051,E3,373.5,0.5,47,108.0
5052,C3,373.5,0.5,47,108.0
5053,G#2,373.5,0.25,79,108.0
5054,B1,373.5,0.25,79,108.0
5055,G#2,373.75,0.25,79,108.0
5056,F#2,373.75,0.25,79,108.0
5057,D2,374.0,0.5,95,108.0
5058,E4,374.0,0.5,47,108.0
5059,B3,374.0,0.5,47,108.0
5060,G3,374.0,0.5,47,108.0
5061,E3,374.0,0.5,47,108.0
5062,C3,374.0,0.5,47,108.0
5063,D4,374.0,4.0,95,108.0
5064,A3,374.0,4.0,95,108.0
5065,F#3,374.0,4.0,95,108.0
5066,G#2,374.0,0.25,79,108.0
5067,B1,374.0,0.25,79,108.0
5068,G#2,374.25,0.25,63,108.0
5069,D2,374.5,0.5,95,108.0
5070,G#2,374.5,0.25,79,108.0
5071,B1,374.5,0.25,79,108.0
5072,G#2,374.75,0.25,63,108.0
5073,E4,375.0,0.25,47,108.0
5074,B3,375.0,0.25,47,108.0
5075,G3,375.0,0.25,47,108.0
5076,E3,375.0,0.25,47,108.0
5077,C3,375.0,0.25,47,108.0
5078,G#2,375.0,0.25,79,108.0
5079,D2,375.0,0.25,79,108.0
5080,G#2,375.25,0.25,63,108.0
5081,D2,375.5,0.25,95,108.0
5082,E4,375.5,1.0,47,108.0
5083,D4,375.5,1.0,47,108.0
5084,A3,375.5,1.0,47,108.0
5085,D3,375.5,1.0,47,108.0
5086,D3,375.5,1.0,47,108.0
5087,G#2,375.5,0.25,79,108.0
5088,F#2,375.5,0.25,79,108.0
5089,G#2,375.75,0.25,63,108.0
5090,G#2,376.0,0.25,63,108.0
5091,E1,376.25,0.25,95,108.0
5092,G#2,376.25,0.25,84,108.0
5093,B1,376.25,0.25,84,108.0
5094,F#2,376.25,0.25,84,108.0
5095,G1,376.5,0.25,95,108.0
5096,E4,376.5,1.0,47,108.0
5097,D4,376.5,1.0,47,108.0
5098,A3,376.5,1.0,47,108.0
5099,D3,376.5,1.0,47,108.0
5100,D3,376.5,1.0,47,108.0
5101,G#2,376.5,0.25,84,108.0
5102,B1,376.5,0.25,84,108.0
5103,F#2,376.5,0.25,84,108.0
5104,A1,376.75,0.25,95,108.0
5105,G#2,376.75,0.25,63,108.0
5106,D2,377.0,0.5,95,108.0
5107,G#2,377.0,0.25,79,108.0
5108,D2,377.0,0.25,79,108.0
5109,G#2,377.25,0.25,63,108.0
5110,D2,377.5,0.5,95,108.0
5111,E4,377.5,0.5,47,108.0
5112,D4,377.5,0.5,47,108.0
5113,A3,377.5,0.5,47,108.0
5114,D3,377.5,0.5,47,108.0
5115,D3,377.5,0.5,47,108.0
5116,G#2,377.5,0.25,79,108.0
5117,B1,377.5,0.25,79,108.0
5118,G#2,377.75,0.25,79,108.0
5119,F#2,377.75,0.25,79,108.0
5120,D2,378.0,0.5,95,108.0
5121,E4,378.0,0.5,47,108.0
5122,B3,378.0,0.5,47,108.0
5123,G#3,378.0,0.5,47,108.0
5124,E3,378.0,0.5,47,108.0
5125,B2,378.0,0.5,47,108.0
5126,G#2,378.0,0.25,74,108.0
5127,B1,378.0,0.25,74,108.0
5128,E-6,378.0,0.25,74,108.0
5129,G#2,378.25,0.25,63,108.0
5130,D2,378.5,0.5,95,108.0
5131,G#2,378.5,0.25,79,108.0
5132,B1,378.5,0.25,79,108.0
5133,G#2,378.75,0.25,63,108.0
5134,E4,378.75,0.25,47,108.0
5135,B3,378.75,0.25,47,108.0
5136,G#3,378.75,0.25,47,108.0
5137,E3,378.75,0.25,47,108.0
5138,B2,378.75,0.25,47,108.0
5139,G#2,379.0,0.25,79,108.0
5140,D2,379.0,0.25,79,108.0
5141,G#2,379.25,0.25,63,108.0
5142,D2,379.5,0.25,95,108.0
5143,E4,379.5,1.0,47,108.0
5144,D4,379.5,1.0,47,108.0
5145,A3,379.5,1.0,47,108.0
5146,D3,379.5,1.0,47,108.0
5147,G#2,379.5,0.25,84,108.0
5148,F#2,379.5,0.25,84,108.0
5149,E-6,379.5,0.25,84,108.0
5150,G#2,379.75,0.25,63,108.0
5151,G#2,380.0,0.25,52,108.0
5152,E-6,380.0,0.25,52,108.0
5153,B-2,380.0,0.25,52,108.0
5154,E1,380.25,0.25,95,108.0
5155,G#2,380.25,0.25,69,108.0
5156,B1,380.25,0.25,69,108.0
5157,F#2,380.25,0.25,69,108.0
5158,E-6,380.25,0.25,69,108.0
5159,B-2,380.25,0.25,69,108.0
5160,G1,380.5,0.25,95,108.0
5161,E4,380.5,1.0,47,108.0
5162,D4,380.5,1.0,47,108.0
5163,A3,380.5,1.0,47,108.0
5164,D3,380.5,1.0,47,108.0
5165,G#2,380.5,0.25,69,108.0
5166,B1,380.5,0.25,69,108.0
5167,F#2,380.5,0.25,69,108.0
5168,E-6,380.5,0.25,69,108.0
5169,B-2,380.5,0.25,69,108.0
5170,A1,380.75,0.25,95,108.0
5171,G#2,380.75,0.25,58,108.0
5172,E-6,380.75,0.25,58,108.0
5173,B-2,380.75,0.25,58,108.0
5174,D2,381.0,0.5,95,108.0
5175,G#2,381.0,0.25,67,108.0
5176,D2,381.0,0.25,67,108.0
5177,E-6,381.0,0.25,67,108.0
5178,B-2,381.0,0.25,67,108.0
5179,G#2,381.25,0.25,63,108.0
5180,E-6,381.25,0.25,63,108.0
5181,B-2,381.25,0.25,63,108.0
5182,D2,381.5,0.5,95,108.0
5183,E4,381.5,0.5,47,108.0
5184,B3,381.5,0.5,47,108.0
5185,G3,381.5,0.5,47,108.0
5186,E3,381.5,0.5,47,108.0
5187,C3,381.5,0.5,47,108.0
5188,G#2,381.5,0.25,71,108.0
5189,B1,381.5,0.25,71,108.0
5190,E-6,381.5,0.25,71,108.0
5191,B-2,381.5,0.25,71,108.0
5192,G#2,381.75,0.25,75,108.0
5193,F#2,381.75,0.25,75,108.0
5194,E-6,381.75,0.25,75,108.0
5195,B-2,381.75,0.25,75,108.0
5196,E1,382.0,0.5,95,108.0
5197,E4,382.0,0.5,47,108.0
5198,B3,382.0,0.5,47,108.0
5199,G3,382.0,0.5,47,108.0
5200,E3,382.0,0.5,47,108.0
5201,C3,382.0,0.5,47,108.0
5202,D4,382.0,4.0,95,108.0
5203,A3,382.0,4.0,95,108.0
5204,F#3,382.0,4.0,95,108.0
5205,G#2,382.0,0.25,84,108.0
5206,B1,382.0,0.25,84,108.0
5207,A3,382.0,0.25,84,108.0
5208,G#2,382.25,0.25,63,108.0
5209,E1,382.5,0.25,95,108.0
5210,G#2,382.5,0.25,84,108.0
5211,B1,382.5,0.25,84,108.0
5212,F#2,382.5,0.25,84,108.0
5213,G#2,382.75,0.25,79,108.0
5214,F#2,382.75,0.25,79,108.0
5215,E4,383.0,0.25,47,108.0
5216,B3,383.0,0.25,47,108.0
5217,G3,383.0,0.25,47,108.0
5218,E3,383.0,0.25,47,108.0
5219,C3,383.0,0.25,47,108.0
5220,G#2,383.0,0.25,74,108.0
5221,D2,383.0,0.25,74,108.0
5222,E2,383.0,0.25,74,108.0
5223,G#2,383.25,0.25,63,108.0
5224,E1,383.5,0.75,95,108.0
5225,E4,383.5,1.0,47,108.0
5226,D4,383.5,1.0,47,108.0
5227,A3,383.5,1.0,47,108.0
5228,D3,383.5,1.0,47,108.0
5229,D3,383.5,1.0,47,108.0
5230,G#2,383.5,0.25,84,108.0
5231,B1,383.5,0.25,84,108.0
5232,F#2,383.5,0.25,84,108.0
5233,G#2,383.75,0.25,79,108.0
5234,F#2,383.75,0.25,79,108.0
5235,G#2,384.0,0.25,63,108.0
5236,E1,384.25,0.25,95,108.0
5237,G#2,384.25,0.25,79,108.0
5238,B1,384.25,0.25,79,108.0
5239,E1,384.5,0.25,95,108.0
5240,E4,384.5,1.0,47,108.0
5241,D4,384.5,1.0,47,108.0
5242,A3,384.5,1.0,47,108.0
5243,D3,384.5,1.0,47,108.0
5244,D3,384.5,1.0,47,108.0
5245,G#2,384.5,0.25,79,108.0
5246,B1,384.5,0.25,79,108.0
5247,G#2,384.75,0.25,63,108.0
5248,E1,385.0,0.25,95,108.0
5249,G#2,385.0,0.25,74,108.0
5250,D2,385.0,0.25,74,108.0
5251,E2,385.0,0.25,74,108.0
5252,F#1,385.25,0.25,95,108.0
5253,G#2,385.25,0.25,79,108.0
5254,F#2,385.25,0.25,79,108.0
5255,G#1,385.5,0.25,95,108.0
5256,G#2,385.5,0.25,63,108.0
5257,E4,385.5,0.5,47,108.0
5258,D4,385.5,0.5,47,108.0
5259,A3,385.5,0.5,47,108.0
5260,D3,385.5,0.5,47,108.0
5261,D3,385.5,0.5,47,108.0
5262,E1,385.75,0.25,95,108.0
5263,G#2,385.75,0.25,79,108.0
5264,F#2,385.75,0.25,79,108.0
5265,E1,386.0,0.5,95,108.0
5266,E4,386.0,0.5,47,108.0
5267,C4,386.0,0.5,47,108.0
5268,A3,386.0,0.5,47,108.0
5269,E3,386.0,0.5,47,108.0
5270,A2,386.0,0.5,47,108.0
5271,G#4,386.0,1.5,95,108.0
5272,E4,386.0,1.5,95,108.0
5273,B3,386.0,1.5,95,108.0
5274,G#2,386.0,0.25,79,108.0
5275,B1,386.0,0.25,79,108.0
5276,G#2,386.25,0.25,63,108.0
5277,E1,386.5,0.75,95,108.0
5278,G#2,386.5,0.25,84,108.0
5279,B1,386.5,0.25,84,108.0
5280,F#2,386.5,0.25,84,108.0
5281,E4,386.75,0.25,47,108.0
5282,C4,386.75,0.25,47,108.0
5283,A3,386.75,0.25,47,108.0
5284,E3,386.75,0.25,47,108.0
5285,A2,386.75,0.25,47,108.0
5286,G#2,386.75,0.25,79,108.0
5287,F#2,386.75,0.25,79,108.0
5288,G#4,387.0,4.0,95,108.0
5289,E4,387.0,4.0,95,108.0
5290,B3,387.0,4.0,95,108.0
5291,E2,387.0,4.0,95,108.0
5292,G#2,387.0,0.25,74,108.0
5293,D2,387.0,0.25,74,108.0
5294,E2,387.0,0.25,74,108.0
5295,G#2,387.25,0.25,63,108.0
5296,E1,387.5,0.25,95,108.0
5297,G4,387.5,1.0,47,108.0
5298,B3,387.5,1.0,47,108.0
5299,G3,387.5,1.0,47,108.0
5300,D3,387.5,1.0,47,108.0
5301,A4,387.5,2.0,95,108.0
5302,E4,387.5,2.0,95,108.0
5303,B3,387.5,2.0,95,108.0
5304,G#2,387.5,0.25,84,108.0
5305,B1,387.5,0.25,84,108.0
5306,F#2,387.5,0.25,84,108.0
5307,E1,387.75,0.5,95,108.0
5308,G#2,387.75,0.25,79,108.0
5309,F#2,387.75,0.25,79,108.0
5310,G#2,388.0,0.25,63,108.0
5311,E1,388.25,0.25,95,108.0
5312,G#2,388.25,0.25,79,108.0
5313,B1,388.25,0.25,79,108.0
5314,E1,388.5,0.25,95,108.0
5315,G4,388.5,1.0,47,108.0
5316,B3,388.5,1.0,47,108.0
5317,G3,388.5,1.0,47,108.0
5318,D3,388.5,1.0,47,108.0
5319,G#2,388.5,0.25,79,108.0
5320,B1,388.5,0.25,79,108.0
5321,G#2,388.75,0.25,63,108.0
5322,E1,389.0,0.25,95,108.0
5323,G#2,389.0,0.25,74,108.0
5324,D2,389.0,0.25,74,108.0
5325,E2,389.0,0.25,74,108.0
5326,F#1,389.25,0.25,95,108.0
5327,G#2,389.25,0.25,79,108.0
5328,F#2,389.25,0.25,79,108.0
5329,G#1,389.5,0.25,95,108.0
5330,E4,389.5,0.5,47,108.0
5331,B3,389.5,0.5,47,108.0
5332,A3,389.5,0.5,47,108.0
5333,F3,389.5,0.5,47,108.0
5334,C3,389.5,0.5,47,108.0
5335,G4,389.5,0.5,95,108.0
5336,E4,389.5,0.5,95,108.0
5337,B3,389.5,0.5,95,108.0
5338,G#2,389.5,0.25,79,108.0
5339,B1,389.5,0.25,79,108.0
5340,F#1,389.75,0.25,95,108.0
5341,G#2,389.75,0.25,79,108.0
5342,F#2,389.75,0.25,79,108.0
5343,B1,390.0,0.5,95,108.0
5344,E4,390.0,0.5,47,108.0
5345,B3,390.0,0.5,47,108.0
5346,A3,390.0,0.5,47,108.0
5347,F3,390.0,0.5,47,108.0
5348,C3,390.0,0.5,47,108.0
5349,G#2,390.0,0.25,79,108.0
5350,B1,390.0,0.25,79,108.0
5351,G#2,390.25,0.25,63,108.0
5352,E5,390.5,1.5,95,108.0
5353,B1,390.5,0.25,95,108.0
5354,E4,390.5,0.5,47,108.0
5355,B3,390.5,0.5,47,108.0
5356,A3,390.5,0.5,47,108.0
5357,F3,390.5,0.5,47,108.0
5358,C3,390.5,0.5,47,108.0
5359,G#2,390.5,0.25,84,108.0
5360,B1,390.5,0.25,84,108.0
5361,F#2,390.5,0.25,84,108.0
5362,G#2,390.75,0.25,79,108.0
5363,F#2,390.75,0.25,79,108.0
5364,E4,391.0,3.0,47,108.0
5365,B3,391.0,3.0,47,108.0
5366,A3,391.0,3.0,47,108.0
5367,F3,391.0,3.0,47,108.0
5368,C3,391.0,3.0,47,108.0
5369,G#2,391.0,0.25,74,108.0
5370,D2,391.0,0.25,74,108.0
5371,E2,391.0,0.25,74,108.0
5372,G#2,391.25,0.25,63,108.0
5373,B1,391.5,0.75,95,108.0
5374,G4,391.5,1.5,95,108.0
5375,E4,391.5,1.5,95,108.0
5376,B3,391.5,1.5,95,108.0
5377,G#2,391.5,0.25,84,108.0
5378,B1,391.5,0.25,84,108.0
5379,F#2,391.5,0.25,84,108.0
5380,G#2,391.75,0.25,79,108.0
5381,F#2,391.75,0.25,79,108.0
5382,B4,392.0,2.5,95,108.0
5383,G#2,392.0,0.25,63,108.0
5384,F#1,392.25,0.25,95,108.0
5385,G#2,392.25,0.25,79,108.0
5386,B1,392.25,0.25,79,108.0
5387,B1,392.5,0.25,95,108.0
5388,G#2,392.5,0.25,79,108.0
5389,B1,392.5,0.25,79,108.0
5390,F#1,392.75,0.25,95,108.0
5391,G#2,392.75,0.25,63,108.0
5392,B1,393.0,0.5,95,108.0
5393,F#4,393.0,2.5,95,108.0
5394,D4,393.0,2.5,95,108.0
5395,A3,393.0,2.5,95,108.0
5396,G#2,393.0,0.25,74,108.0
5397,D2,393.0,0.25,74,108.0
5398,E2,393.0,0.25,74,108.0
5399,G#2,393.25,0.25,79,108.0
5400,F#2,393.25,0.25,79,108.0
5401,B1,393.5,0.5,95,108.0
5402,G#2,393.5,0.25,63,108.0
5403,G#2,393.75,0.25,79,108.0
5404,F#2,393.75,0.25,79,108.0
5405,B1,394.0,0.5,95,108.0
5406,G#2,394.0,0.25,79,108.0
5407,B1,394.0,0.25,79,108.0
5408,G#2,394.25,0.25,63,108.0
5409,B4,394.5,1.5,95,108.0
5410,B1,394.5,0.25,95,108.0
5411,E4,394.5,4.0,95,108.0
5412,B3,394.5,4.0,95,108.0
5413,G#3,394.5,4.0,95,108.0
5414,G#2,394.5,0.25,84,108.0
5415,B1,394.5,0.25,84,108.0
5416,F#2,394.5,0.25,84,108.0
5417,G#2,394.75,0.25,79,108.0
5418,F#2,394.75,0.25,79,108.0
5419,G4,395.0,0.5,95,108.0
5420,G#4,395.0,4.0,95,108.0
5421,E4,395.0,4.0,95,108.0
5422,B3,395.0,4.0,95,108.0
5423,E2,395.0,4.0,95,108.0
5424,G#2,395.0,0.25,74,108.0
5425,D2,395.0,0.25,74,108.0
5426,E2,395.0,0.25,74,108.0
5427,G#2,395.25,0.25,63,108.0
5428,G4,395.5,1.5,95,108.0
5429,B1,395.5,0.75,95,108.0
5430,G#4,395.5,1.5,95,108.0
5431,E4,395.5,1.5,95,108.0
5432,B3,395.5,1.5,95,108.0
5433,G#2,395.5,0.25,84,108.0
5434,B1,395.5,0.25,84,108.0
5435,F#2,395.5,0.25,84,108.0
5436,G#2,395.75,0.25,79,108.0
5437,F#2,395.75,0.25,79,108.0
5438,B4,396.0,0.5,95,108.0
5439,G#2,396.0,0.25,63,108.0
5440,G#1,396.25,0.25,95,108.0
5441,G#2,396.25,0.25,79,108.0
5442,B1,396.25,0.25,79,108.0
5443,G#5,396.5,0.5,95,108.0
5444,B1,396.5,0.25,95,108.0
5445,G#2,396.5,0.25,79,108.0
5446,B1,396.5,0.25,79,108.0
5447,G#2,396.75,0.25,63,108.0
5448,D4,397.0,0.5,79,108.0
5449,A5,397.0,0.5,95,108.0
5450,B1,397.0,0.5,95,108.0
5451,A4,397.0,2.0,95,108.0
5452,E4,397.0,2.0,95,108.0
5453,B3,397.0,2.0,95,108.0
5454,G#2,397.0,0.25,74,108.0
5455,D2,397.0,0.25,74,108.0
5456,E2,397.0,0.25,74,108.0
5457,G#2,397.25,0.25,79,108.0
5458,F#2,397.25,0.25,79,108.0
5459,E4,397.5,0.5,95,108.0
5460,B5,397.5,1.0,95,108.0
5461,B1,397.5,0.5,95,108.0
5462,G#2,397.5,0.25,79,108.0
5463,B1,397.5,0.25,79,108.0
5464,G#2,397.75,0.25,79,108.0
5465,F#2,397.75,0.25,79,108.0
5466,E4,398.0,1.0,95,108.0
5467,A1,398.0,0.5,95,108.0
5468,G#2,398.0,0.25,79,108.0
5469,B1,398.0,0.25,79,108.0
5470,G#2,398.25,0.25,63,108.0
5471,A5,398.5,1.5,95,108.0
5472,A1,398.5,0.25,95,108.0
5473,G#2,398.5,0.25,84,108.0
5474,B1,398.5,0.25,84,108.0
5475,F#2,398.5,0.25,84,108.0
5476,G#2,398.75,0.25,79,108.0
5477,F#2,398.75,0.25,79,108.0
5478,F#4,399.0,4.0,95,108.0
5479,D4,399.0,4.0,95,108.0
5480,A3,399.0,4.0,95,108.0
5481,B2,399.0,4.0,95,108.0
5482,G4,399.0,0.5,95,108.0
5483,E4,399.0,0.5,95,108.0
5484,B3,399.0,0.5,95,108.0
5485,G#2,399.0,0.25,74,108.0
5486,D2,399.0,0.25,74,108.0
5487,E2,399.0,0.25,74,108.0
5488,E4,399.25,0.25,63,108.0
5489,G#2,399.25,0.25,63,108.0
5490,A4,399.5,0.25,79,108.0
5491,A1,399.5,0.75,95,108.0
5492,G#2,399.5,0.25,84,108.0
5493,B1,399.5,0.25,84,108.0
5494,F#2,399.5,0.25,84,108.0
5495,B4,399.75,0.25,95,108.0
5496,G#2,399.75,0.25,79,108.0
5497,F#2,399.75,0.25,79,108.0
5498,B-4,400.0,0.75,95,108.0
5499,G#5,400.0,1.5,95,108.0
5500,G#2,400.0,0.25,63,108.0
5501,E1,400.25,0.25,95,108.0
5502,G#2,400.25,0.25,79,108.0
5503,B1,400.25,0.25,79,108.0
5504,G1,400.5,0.5,95,108.0
5505,G#2,400.5,0.25,79,108.0
5506,B1,400.5,0.25,79,108.0
5507,B4,400.75,0.25,95,108.0
5508,G#2,400.75,0.25,63,108.0
5509,A1,401.0,1.0,95,108.0
5510,G4,401.0,1.5,95,108.0
5511,E4,401.0,1.5,95,108.0
5512,B3,401.0,1.5,95,108.0
5513,G#2,401.0,0.25,74,108.0
5514,D2,401.0,0.25,74,108.0
5515,E2,401.0,0.25,74,108.0
5516,G#2,401.25,0.25,79,108.0
5517,F#2,401.25,0.25,79,108.0
5518,G4,401.5,0.5,95,108.0
5519,F#5,401.5,1.0,95,108.0
5520,G#2,401.5,0.25,63,108.0
5521,G#2,401.75,0.25,79,108.0
5522,F#2,401.75,0.25,79,108.0
5523,G4,402.0,0.5,95,108.0
5524,A1,402.0,0.5,95,108.0
5525,G#2,402.0,0.25,79,108.0
5526,B1,402.0,0.25,79,108.0
5527,G#2,402.25,0.25,63,108.0
5528,A4,402.5,0.5,63,108.0
5529,F#5,402.5,2.0,95,108.0
5530,A1,402.5,0.25,95,108.0
5531,E4,402.5,4.0,95,108.0
5532,B3,402.5,4.0,95,108.0
5533,G#3,402.5,4.0,95,108.0
5534,F#4,402.5,2.5,95,108.0
5535,D4,402.5,2.5,95,108.0
5536,A3,402.5,2.5,95,108.0
5537,G#2,402.5,0.25,84,108.0
5538,B1,402.5,0.25,84,108.0
5539,F#2,402.5,0.25,84,108.0
5540,G#2,402.75,0.25,79,108.0
5541,F#2,402.75,0.25,79,108.0
5542,A4,403.0,2.0,95,108.0
5543,G#2,403.0,0.25,74,108.0
5544,D2,403.0,0.25,74,108.0
5545,E2,403.0,0.25,74,108.0
5546,G#2,403.25,0.25,63,108.0
5547,A1,403.5,0.75,95,108.0
5548,G#2,403.5,0.25,84,108.0
5549,B1,403.5,0.25,84,108.0
5550,F#2,403.5,0.25,84,108.0
5551,G#2,403.75,0.25,79,108.0
5552,F#2,403.75,0.25,79,108.0
5553,G#2,404.0,0.25,63,108.0
5554,G1,404.25,0.25,95,108.0
5555,G#2,404.25,0.25,79,108.0
5556,B1,404.25,0.25,79,108.0
5557,F#5,404.5,0.5,95,108.0
5558,A1,404.5,0.25,95,108.0
5559,G#2,404.5,0.25,79,108.0
5560,B1,404.5,0.25,79,108.0
5561,G1,404.75,0.25,95,108.0
5562,G#2,404.75,0.25,63,108.0
5563,G4,405.0,0.25,63,108.0
5564,G5,405.0,0.5,95,108.0
5565,B1,405.0,0.5,95,108.0
5566,E5,405.0,1.5,95,108.0
5567,E4,405.0,1.5,95,108.0
5568,G#4,405.0,1.5,95,108.0
5569,E4,405.0,1.5,95,108.0
5570,B3,405.0,1.5,95,108.0
5571,G#2,405.0,0.25,74,108.0
5572,D2,405.0,0.25,74,108.0
5573,E2,405.0,0.25,74,108.0
5574,G#2,405.25,0.25,79,108.0
5575,F#2,405.25,0.25,79,108.0
5576,D4,405.5,0.5,95,108.0
5577,A5,405.5,0.5,95,108.0
5578,C2,405.5,0.5,95,108.0
5579,G#2,405.5,0.25,79,108.0
5580,B1,405.5,0.25,79,108.0
5581,G#2,405.75,0.25,79,108.0
5582,F#2,405.75,0.25,79,108.0
5583,D4,406.0,0.5,95,108.0
5584,G5,406.0,0.5,95,108.0
5585,D2,406.0,0.5,95,108.0
5586,G#2,406.0,0.25,79,108.0
5587,B1,406.0,0.25,79,108.0
5588,G#2,406.25,0.25,63,108.0
5589,G4,406.5,0.5,95,108.0
5590,G5,406.5,0.5,95,108.0
5591,D2,406.5,0.5,95,108.0
5592,B4,406.5,2.5,95,108.0
5593,B3,406.5,2.5,95,108.0
5594,A4,406.5,4.0,95,108.0
5595,D4,406.5,4.0,95,108.0
5596,A3,406.5,4.0,95,108.0
5597,A4,406.5,2.0,95,108.0
5598,E4,406.5,2.0,95,108.0
5599,B3,406.5,2.0,95,108.0
5600,G#2,406.5,0.25,84,108.0
5601,B1,406.5,0.25,84,108.0
5602,F#2,406.5,0.25,84,108.0
5603,G#2,406.75,0.25,79,108.0
5604,F#2,406.75,0.25,79,108.0
5605,D4,407.0,0.5,95,108.0
5606,E5,407.0,3.5,95,108.0
5607,F#4,407.0,4.0,95,108.0
5608,D4,407.0,4.0,95,108.0
5609,A3,407.0,4.0,95,108.0
5610,B2,407.0,4.0,95,108.0
5611,G#2,407.0,0.25,74,108.0
5612,D2,407.0,0.25,74,108.0
5613,E2,407.0,0.25,74,108.0
5614,G#2,407.25,0.25,63,108.0
5615,D4,407.5,2.5,79,108.0
5616,D2,407.5,0.75,95,108.0
5617,G#2,407.5,0.25,84,108.0
5618,B1,407.5,0.25,84,108.0
5619,F#2,407.5,0.25,84,108.0
5620,G#2,407.75,0.25,79,108.0
5621,F#2,407.75,0.25,79,108.0
5622,G#2,408.0,0.25,63,108.0
5623,G1,408.25,0.25,95,108.0
5624,G#2,408.25,0.25,79,108.0
5625,B1,408.25,0.25,79,108.0
5626,A1,408.5,0.25,95,108.0
5627,G4,408.5,0.5,95,108.0
5628,E4,408.5,0.5,95,108.0
5629,B3,408.5,0.5,95,108.0
5630,G#2,408.5,0.25,79,108.0
5631,B1,408.5,0.25,79,108.0
5632,G1,408.75,0.25,95,108.0
5633,G#2,408.75,0.25,63,108.0
5634,B1,409.0,0.5,95,108.0
5635,G#2,409.0,0.25,74,108.0
5636,D2,409.0,0.25,74,108.0
5637,E2,409.0,0.25,74,108.0
5638,G#2,409.25,0.25,79,108.0
5639,F#2,409.25,0.25,79,108.0
5640,C2,409.5,0.5,95,108.0
5641,G#2,409.5,0.25,63,108.0
5642,G#2,409.75,0.25,79,108.0
5643,F#2,409.75,0.25,79,108.0
5644,D2,410.0,0.5,95,108.0
5645,G#2,410.0,0.25,79,108.0
5646,B1,410.0,0.25,79,108.0
5647,G#2,410.25,0.25,63,108.0
5648,E5,410.5,2.0,95,108.0
5649,D2,410.5,0.5,95,108.0
5650,B4,410.5,1.5,95,108.0
5651,B3,410.5,1.5,95,108.0
5652,G4,410.5,1.5,95,108.0
5653,E4,410.5,1.5,95,108.0
5654,B3,410.5,1.5,95,108.0
5655,G#2,410.5,0.25,84,108.0
5656,B1,410.5,0.25,84,108.0
5657,F#2,410.5,0.25,84,108.0
5658,G#2,410.75,0.25,79,108.0
5659,F#2,410.75,0.25,79,108.0
5660,G4,411.0,4.0,95,108.0
5661,E4,411.0,4.0,95,108.0
5662,C4,411.0,4.0,95,108.0
5663,A2,411.0,4.0,95,108.0
5664,G#2,411.0,0.25,74,108.0
5665,D2,411.0,0.25,74,108.0
5666,E2,411.0,0.25,74,108.0
5667,E4,411.25,0.25,63,108.0
5668,G#2,411.25,0.25,63,108.0
5669,A4,411.5,0.25,79,108.0
5670,D2,411.5,0.25,95,108.0
5671,G#2,411.5,0.25,84,108.0
5672,B1,411.5,0.25,84,108.0
5673,F#2,411.5,0.25,84,108.0
5674,B4,411.75,0.25,95,108.0
5675,D2,411.75,0.5,95,108.0
5676,G#2,411.75,0.25,74,108.0
5677,F#2,411.75,0.25,74,108.0
5678,E-6,411.75,0.25,74,108.0
5679,B-4,412.0,0.75,95,108.0
5680,G#2,412.0,0.25,63,108.0
5681,B4,412.0,0.5,95,108.0
5682,B3,412.0,0.5,95,108.0
5683,F#4,412.0,2.5,95,108.0
5684,D4,412.0,2.5,95,108.0
5685,A3,412.0,2.5,95,108.0
5686,C2,412.25,0.25,95,108.0
5687,G#2,412.25,0.25,74,108.0
5688,B1,412.25,0.25,74,108.0
5689,E-6,412.25,0.25,74,108.0
5690,B4,412.5,0.5,95,108.0
5691,D2,412.5,0.5,95,108.0
5692,G#5,412.5,0.5,95,108.0
5693,G#4,412.5,0.5,95,108.0
5694,G#2,412.5,0.25,74,108.0
5695,B1,412.5,0.25,74,108.0
5696,E-6,412.5,0.25,74,108.0
5697,D5,412.75,0.25,95,108.0
5698,G#2,412.75,0.25,63,108.0
5699,A4,413.0,0.5,95,108.0
5700,D2,413.0,0.5,95,108.0
5701,A5,413.0,0.5,95,108.0
5702,A4,413.0,0.5,95,108.0
5703,G#2,413.0,0.25,71,108.0
5704,D2,413.0,0.25,71,108.0
5705,E2,413.0,0.25,71,108.0
5706,E-6,413.0,0.25,71,108.0
5707,C5,413.25,0.25,95,108.0
5708,G#2,413.25,0.25,79,108.0
5709,F#2,413.25,0.25,79,108.0
5710,D5,413.5,0.5,95,108.0
5711,G4,413.5,0.5,95,108.0
5712,D2,413.5,0.5,95,108.0
5713,G#2,413.5,0.25,63,108.0
5714,A5,413.5,1.0,95,108.0
5715,A4,413.5,1.0,95,108.0
5716,G#2,413.75,0.25,79,108.0
5717,F#2,413.75,0.25,79,108.0
5718,D5,414.0,0.5,95,108.0
5719,A4,414.0,0.5,95,108.0
5720,E1,414.0,0.5,95,108.0
5721,G#2,414.0,0.25,84,108.0
5722,B1,414.0,0.25,84,108.0
5723,A3,414.0,0.25,84,108.0
5724,G#2,414.25,0.25,63,108.0
5725,A4,414.5,0.5,79,108.0
5726,A4,414.5,1.5,95,108.0
5727,E1,414.5,0.25,95,108.0
5728,A5,414.5,1.5,95,108.0
5729,A4,414.5,1.5,95,108.0
5730,A4,414.5,4.0,95,108.0
5731,D4,414.5,4.0,95,108.0
5732,A3,414.5,4.0,95,108.0
5733,E4,414.5,1.5,95,108.0
5734,C4,414.5,1.5,95,108.0
5735,A3,414.5,1.5,95,108.0
5736,G#2,414.5,0.25,84,108.0
5737,B1,414.5,0.25,84,108.0
5738,F#2,414.5,0.25,84,108.0
5739,G#2,414.75,0.25,79,108.0
5740,F#2,414.75,0.25,79,108.0
5741,G#2,415.0,0.25,74,108.0
5742,D2,415.0,0.25,74,108.0
5743,E2,415.0,0.25,74,108.0
5744,G#2,415.25,0.25,63,108.0
5745,D5,415.5,0.125,95,108.0
5746,E1,415.5,0.75,95,108.0
5747,G#2,415.5,0.25,84,108.0
5748,B1,415.5,0.25,84,108.0
5749,F#2,415.5,0.25,84,108.0
5750,E5,415.625,0.375,95,108.0
5751,G#2,415.75,0.25,79,108.0
5752,F#2,415.75,0.25,79,108.0
5753,D5,416.0,0.75,95,108.0
5754,D5,416.0,2.5,95,108.0
5755,G#2,416.0,0.25,63,108.0
5756,G#5,416.0,1.5,95,108.0
5757,G#4,416.0,1.5,95,108.0
5758,D4,416.0,2.5,95,108.0
5759,B3,416.0,2.5,95,108.0
5760,G3,416.0,2.5,95,108.0
5761,E1,416.25,0.25,95,108.0
5762,G#2,416.25,0.25,79,108.0
5763,B1,416.25,0.25,79,108.0
5764,E1,416.5,0.25,95,108.0
5765,G#2,416.5,0.25,79,108.0
5766,B1,416.5,0.25,79,108.0
5767,A4,416.75,0.75,95,108.0
5768,G#2,416.75,0.25,63,108.0
5769,E1,417.0,0.25,95,108.0
5770,G#2,417.0,0.25,74,108.0
5771,D2,417.0,0.25,74,108.0
5772,E2,417.0,0.25,74,108.0
5773,F#1,417.25,0.25,95,108.0
5774,G#2,417.25,0.25,79,108.0
5775,F#2,417.25,0.25,79,108.0
5776,G4,417.5,0.5,95,108.0
5777,G#1,417.5,0.25,95,108.0
5778,G#2,417.5,0.25,63,108.0
5779,F#5,417.5,1.0,95,108.0
5780,F#4,417.5,1.0,95,108.0
5781,E1,417.75,0.25,95,108.0
5782,G#2,417.75,0.25,79,108.0
5783,F#2,417.75,0.25,79,108.0
5784,G4,418.0,0.5,95,108.0
5785,E1,418.0,0.5,95,108.0
5786,G#2,418.0,0.25,79,108.0
5787,B1,418.0,0.25,79,108.0
5788,G#2,418.25,0.25,63,108.0
5789,G4,418.5,0.5,95,108.0
5790,D5,418.5,4.0,95,108.0
5791,E1,418.5,0.75,95,108.0
5792,E4,418.5,4.0,95,108.0
5793,C4,418.5,4.0,95,108.0
5794,G3,418.5,4.0,95,108.0
5795,E4,418.5,4.0,95,108.0
5796,C4,418.5,4.0,95,108.0
5797,A3,418.5,4.0,95,108.0
5798,F3,418.5,4.0,95,108.0
5799,G#2,418.5,0.25,84,108.0
5800,B1,418.5,0.25,84,108.0
5801,F#2,418.5,0.25,84,108.0
5802,G#2,418.75,0.25,79,108.0
5803,F#2,418.75,0.25,79,108.0
5804,A4,419.0,2.0,95,108.0
5805,G4,419.0,4.0,95,108.0
5806,E4,419.0,4.0,95,108.0
5807,C4,419.0,4.0,95,108.0
5808,A2,419.0,4.0,95,108.0
5809,G#2,419.0,0.25,74,108.0
5810,D2,419.0,0.25,74,108.0
5811,E2,419.0,0.25,74,108.0
5812,G#2,419.25,0.25,63,108.0
5813,E1,419.5,0.25,95,108.0
5814,G#2,419.5,0.25,84,108.0
5815,B1,419.5,0.25,84,108.0
5816,F#2,419.5,0.25,84,108.0
5817,E1,419.75,0.5,95,108.0
5818,G#2,419.75,0.25,79,108.0
5819,F#2,419.75,0.25,79,108.0
5820,G#2,420.0,0.25,63,108.0
5821,E1,420.25,0.25,95,108.0
5822,G#2,420.25,0.25,79,108.0
5823,B1,420.25,0.25,79,108.0
5824,E1,420.5,0.25,95,108.0
5825,F#5,420.5,2.0,95,108.0
5826,F#4,420.5,2.0,95,108.0
5827,G#2,420.5,0.25,79,108.0
5828,B1,420.5,0.25,79,108.0
5829,G#2,420.75,0.25,63,108.0
5830,E1,421.0,0.25,95,108.0
5831,G#2,421.0,0.25,74,108.0
5832,D2,421.0,0.25,74,108.0
5833,E2,421.0,0.25,74,108.0
5834,F#1,421.25,0.25,95,108.0
5835,G#2,421.25,0.25,79,108.0
5836,F#2,421.25,0.25,79,108.0
5837,G4,421.5,0.25,95,108.0
5838,G#1,421.5,0.25,95,108.0
5839,G#2,421.5,0.25,79,108.0
5840,B1,421.5,0.25,79,108.0
5841,F#1,421.75,0.25,95,108.0
5842,G#2,421.75,0.25,79,108.0
5843,F#2,421.75,0.25,79,108.0
5844,D4,422.0,1.5,95,108.0
5845,B1,422.0,0.5,95,108.0
5846,G#2,422.0,0.25,79,108.0
5847,B1,422.0,0.25,79,108.0
5848,G#2,422.25,0.25,63,108.0
5849,E5,422.5,1.5,95,108.0
5850,B1,422.5,0.25,95,108.0
5851,F#5,422.5,0.5,95,108.0
5852,F#4,422.5,0.5,95,108.0
5853,E4,422.5,1.5,79,108.0
5854,C4,422.5,1.5,79,108.0
5855,A3,422.5,1.5,79,108.0
5856,G#2,422.5,0.25,84,108.0
5857,B1,422.5,0.25,84,108.0
5858,F#2,422.5,0.25,84,108.0
5859,G#2,422.75,0.25,79,108.0
5860,F#2,422.75,0.25,79,108.0
5861,G5,423.0,0.5,95,108.0
5862,G4,423.0,0.5,95,108.0
5863,F#4,423.0,4.0,95,108.0
5864,D4,423.0,4.0,95,108.0
5865,A3,423.0,4.0,95,108.0
5866,D3,423.0,4.0,95,108.0
5867,G#2,423.0,0.25,74,108.0
5868,D2,423.0,0.25,74,108.0
5869,E2,423.0,0.25,74,108.0
5870,G#2,423.25,0.25,63,108.0
5871,D4,423.5,1.0,79,108.0
5872,B1,423.5,0.75,95,108.0
5873,G5,423.5,0.5,95,108.0
5874,G4,423.5,0.5,95,108.0
5875,G#2,423.5,0.25,84,108.0
5876,B1,423.5,0.25,84,108.0
5877,F#2,423.5,0.25,84,108.0
5878,G#2,423.75,0.25,79,108.0
5879,F#2,423.75,0.25,79,108.0
5880,B4,424.0,2.5,95,108.0
5881,G#2,424.0,0.25,63,108.0
5882,G5,424.0,0.5,95,108.0
5883,G4,424.0,0.5,95,108.0
5884,D4,424.0,2.5,79,108.0
5885,B3,424.0,2.5,79,108.0
5886,G3,424.0,2.5,79,108.0
5887,F#1,424.25,0.25,95,108.0
5888,G#2,424.25,0.25,79,108.0
5889,B1,424.25,0.25,79,108.0
5890,B1,424.5,0.25,95,108.0
5891,G#2,424.5,0.25,79,108.0
5892,B1,424.5,0.25,79,108.0
5893,F#1,424.75,0.25,95,108.0
5894,G#2,424.75,0.25,63,108.0
5895,B1,425.0,0.5,95,108.0
5896,G5,425.0,0.5,95,108.0
5897,G4,425.0,0.5,95,108.0
5898,G#2,425.0,0.25,74,108.0
5899,D2,425.0,0.25,74,108.0
5900,E2,425.0,0.25,74,108.0
5901,G#2,425.25,0.25,79,108.0
5902,F#2,425.25,0.25,79,108.0
5903,B1,425.5,0.5,95,108.0
5904,G#2,425.5,0.25,63,108.0
5905,E5,425.5,3.5,95,108.0
5906,E4,425.5,3.5,95,108.0
5907,G#2,425.75,0.25,79,108.0
5908,F#2,425.75,0.25,79,108.0
5909,B1,426.0,0.5,95,108.0
5910,G#2,426.0,0.25,79,108.0
5911,B1,426.0,0.25,79,108.0
5912,G#2,426.25,0.25,63,108.0
5913,B4,426.5,1.5,95,108.0
5914,C4,426.5,1.5,79,108.0
5915,B1,426.5,0.25,95,108.0
5916,E4,426.5,4.0,95,108.0
5917,C4,426.5,4.0,95,108.0
5918,G3,426.5,4.0,95,108.0
5919,E4,426.5,4.0,79,108.0
5920,A3,426.5,4.0,79,108.0
5921,F3,426.5,4.0,79,108.0
5922,G#2,426.5,0.25,84,108.0
5923,B1,426.5,0.25,84,108.0
5924,F#2,426.5,0.25,84,108.0
5925,G#2,426.75,0.25,79,108.0
5926,F#2,426.75,0.25,79,108.0
5927,G#2,427.0,0.25,74,108.0
5928,D2,427.0,0.25,74,108.0
5929,E2,427.0,0.25,74,108.0
5930,G#2,427.25,0.25,63,108.0
5931,B1,427.5,0.75,95,108.0
5932,G#2,427.5,0.25,84,108.0
5933,B1,427.5,0.25,84,108.0
5934,F#2,427.5,0.25,84,108.0
5935,G#2,427.75,0.25,79,108.0
5936,F#2,427.75,0.25,79,108.0
5937,B4,428.0,0.5,95,108.0
5938,B3,428.0,2.5,79,108.0
5939,G#2,428.0,0.25,63,108.0
5940,G#1,428.25,0.25,95,108.0
5941,G#2,428.25,0.25,79,108.0
5942,B1,428.25,0.25,79,108.0
5943,G#5,428.5,0.5,95,108.0
5944,B1,428.5,0.25,95,108.0
5945,G#2,428.5,0.25,79,108.0
5946,B1,428.5,0.25,79,108.0
5947,G#2,428.75,0.25,63,108.0
5948,A5,429.0,0.5,95,108.0
5949,B1,429.0,0.5,95,108.0
5950,G#2,429.0,0.25,74,108.0
5951,D2,429.0,0.25,74,108.0
5952,E2,429.0,0.25,74,108.0
5953,G#2,429.25,0.25,79,108.0
5954,F#2,429.25,0.25,79,108.0
5955,B5,429.5,1.0,95,108.0
5956,B1,429.5,0.5,95,108.0
5957,G#2,429.5,0.25,79,108.0
5958,B1,429.5,0.25,79,108.0
5959,G#2,429.75,0.25,79,108.0
5960,F#2,429.75,0.25,79,108.0
5961,A1,430.0,0.5,95,108.0
5962,E4,430.0,0.5,47,108.0
5963,B3,430.0,0.5,47,108.0
5964,G#3,430.0,0.5,47,108.0
5965,E3,430.0,0.5,47,108.0
5966,B2,430.0,0.5,47,108.0
5967,G#2,430.0,0.25,79,108.0
5968,B1,430.0,0.25,79,108.0
5969,G#2,430.25,0.25,63,108.0
5970,A5,430.5,1.5,95,108.0
5971,A1,430.5,0.25,95,108.0
5972,F#4,430.5,4.0,95,108.0
5973,D4,430.5,4.0,95,108.0
5974,A3,430.5,4.0,95,108.0
5975,E4,430.5,1.5,79,108.0
5976,C4,430.5,1.5,79,108.0
5977,A3,430.5,1.5,79,108.0
5978,G#2,430.5,0.25,84,108.0
5979,B1,430.5,0.25,84,108.0
5980,F#2,430.5,0.25,84,108.0
5981,E4,430.75,0.25,47,108.0
5982,B3,430.75,0.25,47,108.0
5983,G#3,430.75,0.25,47,108.0
5984,E3,430.75,0.25,47,108.0
5985,B2,430.75,0.25,47,108.0
5986,G#2,430.75,0.25,79,108.0
5987,F#2,430.75,0.25,79,108.0
5988,E5,431.0,2.0,95,108.0
5989,E4,431.0,2.0,95,108.0
5990,F#4,431.0,4.0,95,108.0
5991,D4,431.0,4.0,95,108.0
5992,A3,431.0,4.0,95,108.0
5993,D3,431.0,4.0,95,108.0
5994,G#2,431.0,0.25,74,108.0
5995,D2,431.0,0.25,74,108.0
5996,E2,431.0,0.25,74,108.0
5997,G#2,431.25,0.25,63,108.0
5998,A1,431.5,0.75,95,108.0
5999,E4,431.5,1.0,47,108.0
6000,B3,431.5,1.0,47,108.0
6001,G#3,431.5,1.0,47,108.0
6002,E3,431.5,1.0,47,108.0
6003,B2,431.5,1.0,47,108.0
6004,G#2,431.5,0.25,84,108.0
6005,B1,431.5,0.25,84,108.0
6006,F#2,431.5,0.25,84,108.0
6007,G#2,431.75,0.25,79,108.0
6008,F#2,431.75,0.25,79,108.0
6009,G#5,432.0,1.5,95,108.0
6010,G#2,432.0,0.25,63,108.0
6011,D4,432.0,2.5,79,108.0
6012,B3,432.0,2.5,79,108.0
6013,G3,432.0,2.5,79,108.0
6014,E1,432.25,0.25,95,108.0
6015,G#2,432.25,0.25,79,108.0
6016,B1,432.25,0.25,79,108.0
6017,G1,432.5,0.5,95,108.0
6018,E4,432.5,0.75,47,108.0
6019,B3,432.5,0.75,47,108.0
6020,A3,432.5,0.75,47,108.0
6021,E3,432.5,0.75,47,108.0
6022,B2,432.5,0.75,47,108.0
6023,G#2,432.5,0.25,79,108.0
6024,B1,432.5,0.25,79,108.0
6025,G#2,432.75,0.25,63,108.0
6026,A1,433.0,1.0,95,108.0
6027,A4,433.0,0.5,95,108.0
6028,A3,433.0,0.5,95,108.0
6029,G#2,433.0,0.25,74,108.0
6030,D2,433.0,0.25,74,108.0
6031,E2,433.0,0.25,74,108.0
6032,E4,433.25,0.25,47,108.0
6033,B3,433.25,0.25,47,108.0
6034,A3,433.25,0.25,47,108.0
6035,E3,433.25,0.25,47,108.0
6036,B2,433.25,0.25,47,108.0
6037,G#2,433.25,0.25,79,108.0
6038,F#2,433.25,0.25,79,108.0
6039,F#5,433.5,1.0,95,108.0
6040,G#2,433.5,0.25,63,108.0
6041,A4,433.5,0.5,95,108.0
6042,A3,433.5,0.5,95,108.0
6043,E4,433.75,0.25,47,108.0
6044,B3,433.75,0.25,47,108.0
6045,A3,433.75,0.25,47,108.0
6046,E3,433.75,0.25,47,108.0
6047,B2,433.75,0.25,47,108.0
6048,G#2,433.75,0.25,79,108.0
6049,F#2,433.75,0.25,79,108.0
6050,A1,434.0,0.5,95,108.0
6051,G4,434.0,0.5,95,108.0
6052,G3,434.0,0.5,95,108.0
6053,E4,434.0,0.5,47,108.0
6054,B3,434.0,0.5,47,108.0
6055,G#3,434.0,0.5,47,108.0
6056,E3,434.0,0.5,47,108.0
6057,B2,434.0,0.5,47,108.0
6058,G#2,434.0,0.25,79,108.0
6059,B1,434.0,0.25,79,108.0
6060,G#2,434.25,0.25,63,108.0
6061,F#5,434.5,2.0,95,108.0
6062,D4,434.5,1.5,79,108.0
6063,A1,434.5,0.25,95,108.0
6064,A4,434.5,0.5,95,108.0
6065,A3,434.5,0.5,95,108.0
6066,B3,434.5,4.0,79,108.0
6067,G3,434.5,4.0,79,108.0
6068,G#2,434.5,0.25,84,108.0
6069,B1,434.5,0.25,84,108.0
6070,F#2,434.5,0.25,84,108.0
6071,E4,434.75,0.25,47,108.0
6072,B3,434.75,0.25,47,108.0
6073,G#3,434.75,0.25,47,108.0
6074,E3,434.75,0.25,47,108.0
6075,B2,434.75,0.25,47,108.0
6076,G#2,434.75,0.25,79,108.0
6077,F#2,434.75,0.25,79,108.0
6078,F#4,435.0,0.5,95,108.0
6079,D4,435.0,0.5,95,108.0
6080,A3,435.0,0.5,95,108.0
6081,G#4,435.0,4.0,95,108.0
6082,E4,435.0,4.0,95,108.0
6083,B3,435.0,4.0,95,108.0
6084,E2,435.0,4.0,95,108.0
6085,G#2,435.0,0.25,74,108.0
6086,D2,435.0,0.25,74,108.0
6087,E2,435.0,0.25,74,108.0
6088,G#2,435.25,0.25,63,108.0
6089,A3,435.5,0.125,63,108.0
6090,A1,435.5,0.75,95,108.0
6091,E4,435.5,1.0,47,108.0
6092,B3,435.5,1.0,47,108.0
6093,G#3,435.5,1.0,47,108.0
6094,E3,435.5,1.0,47,108.0
6095,B2,435.5,1.0,47,108.0
6096,G#2,435.5,0.25,84,108.0
6097,B1,435.5,0.25,84,108.0
6098,F#2,435.5,0.25,84,108.0
6099,D4,435.625,0.125,79,108.0
6100,E4,435.75,0.125,95,108.0
6101,G#2,435.75,0.25,79,108.0
6102,F#2,435.75,0.25,79,108.0
6103,A4,435.875,0.125,95,108.0
6104,F#4,436.0,0.125,95,108.0
6105,C4,436.0,2.5,79,108.0
6106,G#2,436.0,0.25,63,108.0
6107,E4,436.125,0.125,95,108.0
6108,D4,436.25,0.125,79,108.0
6109,G1,436.25,0.25,95,108.0
6110,G#2,436.25,0.25,79,108.0
6111,B1,436.25,0.25,79,108.0
6112,A3,436.375,0.25,63,108.0
6113,F#5,436.5,0.5,95,108.0
6114,A1,436.5,0.25,95,108.0
6115,A4,436.5,1.5,95,108.0
6116,A3,436.5,1.5,95,108.0
6117,E4,436.5,0.75,47,108.0
6118,B3,436.5,0.75,47,108.0
6119,A3,436.5,0.75,47,108.0
6120,E3,436.5,0.75,47,108.0
6121,B2,436.5,0.75,47,108.0
6122,G#2,436.5,0.25,79,108.0
6123,B1,436.5,0.25,79,108.0
6124,G1,436.75,0.25,95,108.0
6125,G#2,436.75,0.25,63,108.0
6126,G5,437.0,0.5,95,108.0
6127,B1,437.0,0.5,95,108.0
6128,G#2,437.0,0.25,74,108.0
6129,D2,437.0,0.25,74,108.0
6130,E2,437.0,0.25,74,108.0
6131,D4,437.125,0.125,63,108.0
6132,E4,437.25,0.125,79,108.0
6133,E4,437.25,0.25,47,108.0
6134,B3,437.25,0.25,47,108.0
6135,A3,437.25,0.25,47,108.0
6136,E3,437.25,0.25,47,108.0
6137,B2,437.25,0.25,47,108.0
6138,G#2,437.25,0.25,79,108.0
6139,F#2,437.25,0.25,79,108.0
6140,A4,437.375,0.125,95,108.0
6141,D5,437.5,0.125,95,108.0
6142,A5,437.5,0.5,95,108.0
6143,C2,437.5,0.5,95,108.0
6144,G#2,437.5,0.25,79,108.0
6145,B1,437.5,0.25,79,108.0
6146,E5,437.625,0.125,95,108.0
6147,A5,437.75,0.125,95,108.0
6148,E4,437.75,0.25,47,108.0
6149,B3,437.75,0.25,47,108.0
6150,A3,437.75,0.25,47,108.0
6151,E3,437.75,0.25,47,108.0
6152,B2,437.75,0.25,47,108.0
6153,G#2,437.75,0.25,79,108.0
6154,F#2,437.75,0.25,79,108.0
6155,E5,437.875,0.125,95,108.0
6156,D5,438.0,0.125,95,108.0
6157,G5,438.0,0.5,95,108.0
6158,D2,438.0,0.5,95,108.0
6159,D5,438.0,2.5,95,108.0
6160,D4,438.0,2.5,95,108.0
6161,F#4,438.0,0.5,47,108.0
6162,D4,438.0,0.5,47,108.0
6163,A3,438.0,0.5,47,108.0
6164,F#3,438.0,0.5,47,108.0
6165,B2,438.0,0.5,47,108.0
6166,G#2,438.0,0.25,79,108.0
6167,B1,438.0,0.25,79,108.0
6168,A4,438.125,0.125,95,108.0
6169,G4,438.25,0.125,95,108.0
6170,G#2,438.25,0.25,63,108.0
6171,E4,438.375,0.125,95,108.0
6172,D4,438.5,0.125,79,108.0
6173,G5,438.5,0.5,95,108.0
6174,D2,438.5,0.5,95,108.0
6175,E4,438.5,1.5,79,108.0
6176,C4,438.5,1.5,79,108.0
6177,A3,438.5,1.5,79,108.0
6178,G#2,438.5,0.25,84,108.0
6179,B1,438.5,0.25,84,108.0
6180,F#2,438.5,0.25,84,108.0
6181,D4,438.625,0.125,63,108.0
6182,F#4,438.75,0.25,47,108.0
6183,D4,438.75,0.25,47,108.0
6184,A3,438.75,0.25,47,108.0
6185,F#3,438.75,0.25,47,108.0
6186,B2,438.75,0.25,47,108.0
6187,G#2,438.75,0.25,79,108.0
6188,F#2,438.75,0.25,79,108.0
6189,E5,439.0,3.5,95,108.0
6190,E4,439.0,4.0,95,108.0
6191,B3,439.0,4.0,95,108.0
6192,G#3,439.0,4.0,95,108.0
6193,G#2,439.0,0.25,74,108.0
6194,D2,439.0,0.25,74,108.0
6195,E2,439.0,0.25,74,108.0
6196,G#2,439.25,0.25,63,108.0
6197,D2,439.5,0.75,95,108.0
6198,F#4,439.5,1.0,47,108.0
6199,D4,439.5,1.0,47,108.0
6200,A3,439.5,1.0,47,108.0
6201,F#3,439.5,1.0,47,108.0
6202,B2,439.5,1.0,47,108.0
6203,G#2,439.5,0.25,84,108.0
6204,B1,439.5,0.25,84,108.0
6205,F#2,439.5,0.25,84,108.0
6206,G#2,439.75,0.25,79,108.0
6207,F#2,439.75,0.25,79,108.0
6208,G#2,440.0,0.25,63,108.0
6209,D4,440.0,2.5,79,108.0
6210,B3,440.0,2.5,79,108.0
6211,G3,440.0,2.5,79,108.0
6212,G1,440.25,0.25,95,108.0
6213,G#2,440.25,0.25,79,108.0
6214,B1,440.25,0.25,79,108.0
6215,A1,440.5,0.25,95,108.0
6216,F#4,440.5,0.75,47,108.0
6217,D4,440.5,0.75,47,108.0
6218,A3,440.5,0.75,47,108.0
6219,F#3,440.5,0.75,47,108.0
6220,B2,440.5,0.75,47,108.0
6221,G#2,440.5,0.25,79,108.0
6222,B1,440.5,0.25,79,108.0
6223,G1,440.75,0.25,95,108.0
6224,G#2,440.75,0.25,63,108.0
6225,B1,441.0,0.5,95,108.0
6226,G#2,441.0,0.25,74,108.0
6227,D2,441.0,0.25,74,108.0
6228,E2,441.0,0.25,74,108.0
6229,F#4,441.25,0.25,47,108.0
6230,D4,441.25,0.25,47,108.0
6231,A3,441.25,0.25,47,108.0
6232,F#3,441.25,0.25,47,108.0
6233,B2,441.25,0.25,47,108.0
6234,G#2,441.25,0.25,79,108.0
6235,F#2,441.25,0.25,79,108.0
6236,C2,441.5,0.5,95,108.0
6237,G#2,441.5,0.25,63,108.0
6238,F#4,441.75,0.25,47,108.0
6239,D4,441.75,0.25,47,108.0
6240,A3,441.75,0.25,47,108.0
6241,F#3,441.75,0.25,47,108.0
6242,B2,441.75,0.25,47,108.0
6243,G#2,441.75,0.25,79,108.0
6244,F#2,441.75,0.25,79,108.0
6245,D2,442.0,0.5,95,108.0
6246,F#4,442.0,0.5,47,108.0
6247,D4,442.0,0.5,47,108.0
6248,A3,442.0,0.5,47,108.0
6249,F#3,442.0,0.5,47,108.0
6250,B2,442.0,0.5,47,108.0
6251,G#2,442.0,0.25,79,108.0
6252,B1,442.0,0.25,79,108.0
6253,G#2,442.25,0.25,63,108.0
6254,E5,442.5,2.0,95,108.0
6255,C4,442.5,1.5,79,108.0
6256,D2,442.5,0.5,95,108.0
6257,E4,442.5,4.0,79,108.0
6258,A3,442.5,4.0,79,108.0
6259,F3,442.5,4.0,79,108.0
6260,G#2,442.5,0.25,84,108.0
6261,B1,442.5,0.25,84,108.0
6262,F#2,442.5,0.25,84,108.0
6263,F#4,442.75,0.25,47,108.0
6264,D4,442.75,0.25,47,108.0
6265,A3,442.75,0.25,47,108.0
6266,F#3,442.75,0.25,47,108.0
6267,B2,442.75,0.25,47,108.0
6268,G#2,442.75,0.25,79,108.0
6269,F#2,442.75,0.25,79,108.0
6270,G#4,443.0,4.0,95,108.0
6271,E4,443.0,4.0,95,108.0
6272,B3,443.0,4.0,95,108.0
6273,E2,443.0,4.0,95,108.0
6274,G#2,443.0,0.25,74,108.0
6275,D2,443.0,0.25,74,108.0
6276,E2,443.0,0.25,74,108.0
6277,G#2,443.25,0.25,63,108.0
6278,D2,443.5,0.25,95,108.0
6279,F#4,443.5,1.0,47,108.0
6280,D4,443.5,1.0,47,108.0
6281,A3,443.5,1.0,47,108.0
6282,F#3,443.5,1.0,47,108.0
6283,B2,443.5,1.0,47,108.0
6284,G#2,443.5,0.25,84,108.0
6285,B1,443.5,0.25,84,108.0
6286,F#2,443.5,0.25,84,108.0
6287,D2,443.75,0.5,95,108.0
6288,G#2,443.75,0.25,74,108.0
6289,F#2,443.75,0.25,74,108.0
6290,E-6,443.75,0.25,74,108.0
6291,B3,444.0,2.5,79,108.0
6292,G#2,444.0,0.25,63,108.0
6293,C2,444.25,0.25,95,108.0
6294,G#2,444.25,0.25,74,108.0
6295,B1,444.25,0.25,74,108.0
6296,E-6,444.25,0.25,74,108.0
6297,B4,444.5,0.5,95,108.0
6298,D2,444.5,0.5,95,108.0
6299,D5,444.5,4.0,95,108.0
6300,D4,444.5,4.0,95,108.0
6301,F#4,444.5,0.75,47,108.0
6302,D4,444.5,0.75,47,108.0
6303,A3,444.5,0.75,47,108.0
6304,F#3,444.5,0.75,47,108.0
6305,B2,444.5,0.75,47,108.0
6306,G#2,444.5,0.25,74,108.0
6307,B1,444.5,0.25,74,108.0
6308,E-6,444.5,0.25,74,108.0
6309,G#2,444.75,0.25,63,108.0
6310,A4,445.0,0.5,95,108.0
6311,D2,445.0,0.5,95,108.0
6312,G#2,445.0,0.25,71,108.0
6313,D2,445.0,0.25,71,108.0
6314,E2,445.0,0.25,71,108.0
6315,E-6,445.0,0.25,71,108.0
6316,F#4,445.25,0.25,47,108.0
6317,D4,445.25,0.25,47,108.0
6318,A3,445.25,0.25,47,108.0
6319,F#3,445.25,0.25,47,108.0
6320,B2,445.25,0.25,47,108.0
6321,G#2,445.25,0.25,79,108.0
6322,F#2,445.25,0.25,79,108.0
6323,G4,445.5,0.5,95,108.0
6324,D2,445.5,0.5,95,108.0
6325,G#2,445.5,0.25,63,108.0
6326,F#4,445.75,0.25,47,108.0
6327,D4,445.75,0.25,47,108.0
6328,A3,445.75,0.25,47,108.0
6329,F#3,445.75,0.25,47,108.0
6330,B2,445.75,0.25,47,108.0
6331,G#2,445.75,0.25,79,108.0
6332,F#2,445.75,0.25,79,108.0
6333,A4,446.0,0.5,95,108.0
6334,B1,446.0,0.5,95,108.0
6335,G4,446.0,0.5,47,108.0
6336,C4,446.0,0.5,47,108.0
6337,G3,446.0,0.5,47,108.0
6338,E3,446.0,0.5,47,108.0
6339,A2,446.0,0.5,47,108.0
6340,G#2,446.0,0.25,84,108.0
6341,B1,446.0,0.25,84,108.0
6342,A3,446.0,0.25,84,108.0
6343,G#2,446.25,0.25,63,108.0
6344,A4,446.5,1.5,95,108.0
6345,B1,446.5,0.25,95,108.0
6346,E4,446.5,1.5,79,108.0
6347,C4,446.5,1.5,79,108.0
6348,A3,446.5,1.5,79,108.0
6349,G#2,446.5,0.25,84,108.0
6350,B1,446.5,0.25,84,108.0
6351,F#2,446.5,0.25,84,108.0
6352,G4,446.75,0.25,47,108.0
6353,C4,446.75,0.25,47,108.0
6354,G3,446.75,0.25,47,108.0
6355,E3,446.75,0.25,47,108.0
6356,A2,446.75,0.25,47,108.0
6357,G#2,446.75,0.25,79,108.0
6358,F#2,446.75,0.25,79,108.0
6359,E4,447.0,4.0,95,108.0
6360,B3,447.0,4.0,95,108.0
6361,G#3,447.0,4.0,95,108.0
6362,F#4,447.0,4.0,95,108.0
6363,D4,447.0,4.0,95,108.0
6364,A3,447.0,4.0,95,108.0
6365,B2,447.0,4.0,95,108.0
6366,G#2,447.0,0.25,74,108.0
6367,D2,447.0,0.25,74,108.0
6368,E2,447.0,0.25,74,108.0
6369,G#2,447.25,0.25,63,108.0
6370,B1,447.5,0.75,95,108.0
6371,G4,447.5,1.0,47,108.0
6372,C4,447.5,1.0,47,108.0
6373,G3,447.5,1.0,47,108.0
6374,E3,447.5,1.0,47,108.0
6375,A2,447.5,1.0,47,108.0
6376,G#2,447.5,0.25,84,108.0
6377,B1,447.5,0.25,84,108.0
6378,F#2,447.5,0.25,84,108.0
6379,G#2,447.75,0.25,79,108.0
6380,F#2,447.75,0.25,79,108.0
6381,D5,448.0,2.5,95,108.0
6382,G#2,448.0,0.25,63,108.0
6383,D4,448.0,2.5,79,108.0
6384,B3,448.0,2.5,79,108.0
6385,G3,448.0,2.5,79,108.0
6386,B1,448.25,0.25,95,108.0
6387,G#2,448.25,0.25,79,108.0
6388,B1,448.25,0.25,79,108.0
6389,B1,448.5,0.25,95,108.0
6390,E5,448.5,1.5,95,108.0
6391,E4,448.5,1.5,95,108.0
6392,G4,448.5,0.75,47,108.0
6393,C4,448.5,0.75,47,108.0
6394,G3,448.5,0.75,47,108.0
6395,E3,448.5,0.75,47,108.0
6396,A2,448.5,0.75,47,108.0
6397,G#2,448.5,0.25,79,108.0
6398,B1,448.5,0.25,79,108.0
6399,G#2,448.75,0.25,63,108.0
6400,B1,449.0,0.25,95,108.0
6401,G#2,449.0,0.25,74,108.0
6402,D2,449.0,0.25,74,108.0
6403,E2,449.0,0.25,74,108.0
6404,C#2,449.25,0.25,95,108.0
6405,G4,449.25,0.25,47,108.0
6406,C4,449.25,0.25,47,108.0
6407,G3,449.25,0.25,47,108.0
6408,E3,449.25,0.25,47,108.0
6409,A2,449.25,0.25,47,108.0
6410,G#2,449.25,0.25,79,108.0
6411,F#2,449.25,0.25,79,108.0
6412,E-2,449.5,0.25,95,108.0
6413,G#2,449.5,0.25,63,108.0
6414,B1,449.75,0.25,95,108.0
6415,G4,449.75,0.25,47,108.0
6416,C4,449.75,0.25,47,108.0
6417,G3,449.75,0.25,47,108.0
6418,E3,449.75,0.25,47,108.0
6419,A2,449.75,0.25,47,108.0
6420,G#2,449.75,0.25,79,108.0
6421,F#2,449.75,0.25,79,108.0
6422,B1,450.0,0.5,95,108.0
6423,B4,450.0,2.5,95,108.0
6424,B3,450.0,2.5,95,108.0
6425,G4,450.0,0.5,47,108.0
6426,C4,450.0,0.5,47,108.0
6427,G3,450.0,0.5,47,108.0
6428,E3,450.0,0.5,47,108.0
6429,A2,450.0,0.5,47,108.0
6430,G#2,450.0,0.25,79,108.0
6431,B1,450.0,0.25,79,108.0
6432,G#2,450.25,0.25,63,108.0
6433,D5,450.5,4.0,95,108.0
6434,B1,450.5,0.75,95,108.0
6435,D4,450.5,4.0,79,108.0
6436,A3,450.5,4.0,79,108.0
6437,F#3,450.5,4.0,79,108.0
6438,G#2,450.5,0.25,84,108.0
6439,B1,450.5,0.25,84,108.0
6440,F#2,450.5,0.25,84,108.0
6441,G4,450.75,0.25,47,108.0
6442,C4,450.75,0.25,47,108.0
6443,G3,450.75,0.25,47,108.0
6444,E3,450.75,0.25,47,108.0
6445,A2,450.75,0.25,47,108.0
6446,G#2,450.75,0.25,79,108.0
6447,F#2,450.75,0.25,79,108.0
6448,A4,451.0,4.0,95,108.0
6449,D4,451.0,4.0,95,108.0
6450,A3,451.0,4.0,95,108.0
6451,G#2,451.0,0.25,74,108.0
6452,D2,451.0,0.25,74,108.0
6453,E2,451.0,0.25,74,108.0
6454,G#2,451.25,0.25,63,108.0
6455,B1,451.5,0.25,95,108.0
6456,G4,451.5,1.0,47,108.0
6457,C4,451.5,1.0,47,108.0
6458,G3,451.5,1.0,47,108.0
6459,E3,451.5,1.0,47,108.0
6460,A2,451.5,1.0,47,108.0
6461,G#2,451.5,0.25,84,108.0
6462,B1,451.5,0.25,84,108.0
6463,F#2,451.5,0.25,84,108.0
6464,B1,451.75,0.5,95,108.0
6465,G#2,451.75,0.25,79,108.0
6466,F#2,451.75,0.25,79,108.0
6467,G#2,452.0,0.25,63,108.0
6468,B1,452.25,0.25,95,108.0
6469,G#2,452.25,0.25,79,108.0
6470,B1,452.25,0.25,79,108.0
6471,B1,452.5,0.25,95,108.0
6472,G4,452.5,0.75,47,108.0
6473,C4,452.5,0.75,47,108.0
6474,G3,452.5,0.75,47,108.0
6475,E3,452.5,0.75,47,108.0
6476,A2,452.5,0.75,47,108.0
6477,G#2,452.5,0.25,79,108.0
6478,B1,452.5,0.25,79,108.0
6479,G#2,452.75,0.25,63,108.0
6480,B1,453.0,0.25,95,108.0
6481,G#2,453.0,0.25,74,108.0
6482,D2,453.0,0.25,74,108.0
6483,E2,453.0,0.25,74,108.0
6484,C#2,453.25,0.25,95,108.0
6485,G4,453.25,0.25,47,108.0
6486,C4,453.25,0.25,47,108.0
6487,G3,453.25,0.25,47,108.0
6488,E3,453.25,0.25,47,108.0
6489,A2,453.25,0.25,47,108.0
6490,G#2,453.25,0.25,79,108.0
6491,F#2,453.25,0.25,79,108.0
6492,E-2,453.5,0.25,95,108.0
6493,G#2,453.5,0.25,79,108.0
6494,B1,453.5,0.25,79,108.0
6495,C#2,453.75,0.25,95,108.0
6496,G4,453.75,0.25,47,108.0
6497,C4,453.75,0.25,47,108.0
6498,G3,453.75,0.25,47,108.0
6499,E3,453.75,0.25,47,108.0
6500,A2,453.75,0.25,47,108.0
6501,G#2,453.75,0.25,79,108.0
6502,F#2,453.75,0.25,79,108.0
6503,F#1,454.0,0.5,95,108.0
6504,B4,454.0,1.5,95,108.0
6505,B3,454.0,1.5,95,108.0
6506,G4,454.0,0.5,57,108.0
6507,D4,454.0,0.5,57,108.0
6508,A3,454.0,0.5,57,108.0
6509,D3,454.0,0.5,57,108.0
6510,D3,454.0,0.5,57,108.0
6511,G#2,454.0,0.25,79,108.0
6512,B1,454.0,0.25,79,108.0
6513,G#2,454.25,0.25,63,108.0
6514,B4,454.5,1.5,95,108.0
6515,F#1,454.5,0.25,95,108.0
6516,G#2,454.5,0.25,84,108.0
6517,B1,454.5,0.25,84,108.0
6518,F#2,454.5,0.25,84,108.0
6519,G4,454.75,0.25,47,108.0
6520,D4,454.75,0.25,47,108.0
6521,A3,454.75,0.25,47,108.0
6522,D3,454.75,0.25,47,108.0
6523,D3,454.75,0.25,47,108.0
6524,G#2,454.75,0.25,79,108.0
6525,F#2,454.75,0.25,79,108.0
6526,F#4,455.0,4.0,95,108.0
6527,D4,455.0,4.0,95,108.0
6528,A3,455.0,4.0,95,108.0
6529,B2,455.0,4.0,95,108.0
6530,G#2,455.0,0.25,74,108.0
6531,D2,455.0,0.25,74,108.0
6532,E2,455.0,0.25,74,108.0
6533,G#2,455.25,0.25,63,108.0
6534,F#1,455.5,0.75,95,108.0
6535,B4,455.5,0.5,95,108.0
6536,B3,455.5,0.5,95,108.0
6537,F#4,455.5,1.0,47,108.0
6538,D4,455.5,1.0,47,108.0
6539,A3,455.5,1.0,47,108.0
6540,D3,455.5,1.0,47,108.0
6541,D3,455.5,1.0,47,108.0
6542,G#2,455.5,0.25,84,108.0
6543,B1,455.5,0.25,84,108.0
6544,F#2,455.5,0.25,84,108.0
6545,G#2,455.75,0.25,79,108.0
6546,F#2,455.75,0.25,79,108.0
6547,F#4,456.0,2.5,95,108.0
6548,G#2,456.0,0.25,63,108.0
6549,G#5,456.0,0.5,95,108.0
6550,G#4,456.0,0.5,95,108.0
6551,C#2,456.25,0.25,95,108.0
6552,G#2,456.25,0.25,79,108.0
6553,B1,456.25,0.25,79,108.0
6554,F#1,456.5,0.25,95,108.0
6555,A5,456.5,0.5,95,108.0
6556,A4,456.5,0.5,95,108.0
6557,F#4,456.5,0.75,47,108.0
6558,D4,456.5,0.75,47,108.0
6559,A3,456.5,0.75,47,108.0
6560,D3,456.5,0.75,47,108.0
6561,A2,456.5,0.75,47,108.0
6562,G#2,456.5,0.25,79,108.0
6563,B1,456.5,0.25,79,108.0
6564,C#2,456.75,0.25,95,108.0
6565,G#2,456.75,0.25,63,108.0
6566,F#1,457.0,0.5,95,108.0
6567,A5,457.0,1.0,95,108.0
6568,A4,457.0,1.0,95,108.0
6569,G#2,457.0,0.25,74,108.0
6570,D2,457.0,0.25,74,108.0
6571,E2,457.0,0.25,74,108.0
6572,F#4,457.25,0.25,47,108.0
6573,D4,457.25,0.25,47,108.0
6574,A3,457.25,0.25,47,108.0
6575,D3,457.25,0.25,47,108.0
6576,D3,457.25,0.25,47,108.0
6577,G#2,457.25,0.25,79,108.0
6578,F#2,457.25,0.25,79,108.0
6579,F#1,457.5,0.5,95,108.0
6580,G#2,457.5,0.25,63,108.0
6581,F#4,457.75,0.25,47,108.0
6582,D4,457.75,0.25,47,108.0
6583,A3,457.75,0.25,47,108.0
6584,D3,457.75,0.25,47,108.0
6585,D3,457.75,0.25,47,108.0
6586,G#2,457.75,0.25,79,108.0
6587,F#2,457.75,0.25,79,108.0
6588,F#1,458.0,0.5,95,108.0
6589,A5,458.0,1.5,95,108.0
6590,A4,458.0,1.5,95,108.0
6591,G4,458.0,0.5,57,108.0
6592,D4,458.0,0.5,57,108.0
6593,A3,458.0,0.5,57,108.0
6594,D3,458.0,0.5,57,108.0
6595,D3,458.0,0.5,57,108.0
6596,G#2,458.0,0.25,79,108.0
6597,B1,458.0,0.25,79,108.0
6598,G#2,458.25,0.25,63,108.0
6599,F#4,458.5,1.5,95,108.0
6600,F#1,458.5,0.25,95,108.0
6601,D4,458.5,4.0,79,108.0
6602,A3,458.5,4.0,79,108.0
6603,F#3,458.5,4.0,79,108.0
6604,G#2,458.5,0.25,84,108.0
6605,B1,458.5,0.25,84,108.0
6606,F#2,458.5,0.25,84,108.0
6607,G4,458.75,0.25,47,108.0
6608,D4,458.75,0.25,47,108.0
6609,A3,458.75,0.25,47,108.0
6610,D3,458.75,0.25,47,108.0
6611,D3,458.75,0.25,47,108.0
6612,G#2,458.75,0.25,79,108.0
6613,F#2,458.75,0.25,79,108.0
6614,A4,459.0,4.0,95,108.0
6615,D4,459.0,4.0,95,108.0
6616,A3,459.0,4.0,95,108.0
6617,G4,459.0,4.0,95,108.0
6618,E4,459.0,4.0,95,108.0
6619,C4,459.0,4.0,95,108.0
6620,A2,459.0,4.0,95,108.0
6621,G#2,459.0,0.25,74,108.0
6622,D2,459.0,0.25,74,108.0
6623,E2,459.0,0.25,74,108.0
6624,G#2,459.25,0.25,63,108.0
6625,F#1,459.5,0.75,95,108.0
6626,G#5,459.5,1.5,95,108.0
6627,G#4,459.5,1.5,95,108.0
6628,F#4,459.5,1.0,47,108.0
6629,D4,459.5,1.0,47,108.0
6630,A3,459.5,1.0,47,108.0
6631,D3,459.5,1.0,47,108.0
6632,D3,459.5,1.0,47,108.0
6633,G#2,459.5,0.25,84,108.0
6634,B1,459.5,0.25,84,108.0
6635,F#2,459.5,0.25,84,108.0
6636,G#2,459.75,0.25,79,108.0
6637,F#2,459.75,0.25,79,108.0
6638,F#4,460.0,0.5,95,108.0
6639,G#2,460.0,0.25,63,108.0
6640,E-2,460.25,0.25,95,108.0
6641,G#2,460.25,0.25,79,108.0
6642,B1,460.25,0.25,79,108.0
6643,E-5,460.5,0.5,95,108.0
6644,F#1,460.5,0.25,95,108.0
6645,F#4,460.5,0.75,47,108.0
6646,D4,460.5,0.75,47,108.0
6647,A3,460.5,0.75,47,108.0
6648,D3,460.5,0.75,47,108.0
6649,A2,460.5,0.75,47,108.0
6650,G#2,460.5,0.25,79,108.0
6651,B1,460.5,0.25,79,108.0
6652,G#2,460.75,0.25,63,108.0
6653,E5,461.0,0.5,95,108.0
6654,F#1,461.0,0.5,95,108.0
6655,F#5,461.0,1.0,95,108.0
6656,F#4,461.0,1.0,95,108.0
6657,G#2,461.0,0.25,74,108.0
6658,D2,461.0,0.25,74,108.0
6659,E2,461.0,0.25,74,108.0
6660,F#4,461.25,0.25,47,108.0
6661,D4,461.25,0.25,47,108.0
6662,A3,461.25,0.25,47,108.0
6663,D3,461.25,0.25,47,108.0
6664,D3,461.25,0.25,47,108.0
6665,G#2,461.25,0.25,79,108.0
6666,F#2,461.25,0.25,79,108.0
6667,F#5,461.5,1.0,95,108.0
6668,F#1,461.5,0.5,95,108.0
6669,G#2,461.5,0.25,79,108.0
6670,B1,461.5,0.25,79,108.0
6671,F#4,461.75,0.25,47,108.0
6672,D4,461.75,0.25,47,108.0
6673,A3,461.75,0.25,47,108.0
6674,D3,461.75,0.25,47,108.0
6675,D3,461.75,0.25,47,108.0
6676,G#2,461.75,0.25,79,108.0
6677,F#2,461.75,0.25,79,108.0
6678,E1,462.0,0.5,95,108.0
6679,E4,462.0,0.5,47,108.0
6680,B3,462.0,0.5,47,108.0
6681,G#3,462.0,0.5,47,108.0
6682,E3,462.0,0.5,47,108.0
6683,B2,462.0,0.5,47,108.0
6684,G#2,462.0,0.25,79,108.0
6685,B1,462.0,0.25,79,108.0
6686,G#2,462.25,0.25,63,108.0
6687,A5,462.5,1.5,95,108.0
6688,E1,462.5,0.25,95,108.0
6689,E4,462.5,4.0,95,108.0
6690,B3,462.5,4.0,95,108.0
6691,G#3,462.5,4.0,95,108.0
6692,G#2,462.5,0.25,84,108.0
6693,B1,462.5,0.25,84,108.0
6694,F#2,462.5,0.25,84,108.0
6695,E4,462.75,0.25,47,108.0
6696,B3,462.75,0.25,47,108.0
6697,G#3,462.75,0.25,47,108.0
6698,E3,462.75,0.25,47,108.0
6699,B2,462.75,0.25,47,108.0
6700,G#2,462.75,0.25,79,108.0
6701,F#2,462.75,0.25,79,108.0
6702,E4,463.0,4.0,95,108.0
6703,C4,463.0,4.0,95,108.0
6704,G3,463.0,4.0,95,108.0
6705,G#2,463.0,0.25,74,108.0
6706,D2,463.0,0.25,74,108.0
6707,E2,463.0,0.25,74,108.0
6708,G#2,463.25,0.25,63,108.0
6709,E1,463.5,0.75,95,108.0
6710,E4,463.5,1.0,47,108.0
6711,B3,463.5,1.0,47,108.0
6712,G#3,463.5,1.0,47,108.0
6713,E3,463.5,1.0,47,108.0
6714,B2,463.5,1.0,47,108.0
6715,G#2,463.5,0.25,84,108.0
6716,B1,463.5,0.25,84,108.0
6717,F#2,463.5,0.25,84,108.0
6718,G#2,463.75,0.25,79,108.0
6719,F#2,463.75,0.25,79,108.0
6720,G#5,464.0,1.5,95,108.0
6721,G#2,464.0,0.25,63,108.0
6722,F#5,464.0,2.0,95,108.0
6723,F#4,464.0,2.0,95,108.0
6724,B1,464.25,0.25,95,108.0
6725,G#2,464.25,0.25,79,108.0
6726,B1,464.25,0.25,79,108.0
6727,D2,464.5,0.5,95,108.0
6728,E4,464.5,0.75,47,108.0
6729,B3,464.5,0.75,47,108.0
6730,A3,464.5,0.75,47,108.0
6731,E3,464.5,0.75,47,108.0
6732,B2,464.5,0.75,47,108.0
6733,G#2,464.5,0.25,79,108.0
6734,B1,464.5,0.25,79,108.0
6735,G#2,464.75,0.25,63,108.0
6736,E1,465.0,1.0,95,108.0
6737,G#2,465.0,0.25,74,108.0
6738,D2,465.0,0.25,74,108.0
6739,E2,465.0,0.25,74,108.0
6740,E4,465.25,0.25,47,108.0
6741,B3,465.25,0.25,47,108.0
6742,A3,465.25,0.25,47,108.0
6743,E3,465.25,0.25,47,108.0
6744,B2,465.25,0.25,47,108.0
6745,G#2,465.25,0.25,79,108.0
6746,F#2,465.25,0.25,79,108.0
6747,E5,465.5,1.0,95,108.0
6748,G#2,465.5,0.25,63,108.0
6749,E4,465.75,0.25,47,108.0
6750,B3,465.75,0.25,47,108.0
6751,A3,465.75,0.25,47,108.0
6752,E3,465.75,0.25,47,108.0
6753,B2,465.75,0.25,47,108.0
6754,G#2,465.75,0.25,79,108.0
6755,F#2,465.75,0.25,79,108.0
6756,E1,466.0,0.5,95,108.0
6757,F#5,466.0,0.5,95,108.0
6758,F#4,466.0,0.5,95,108.0
6759,E4,466.0,0.5,47,108.0
6760,B3,466.0,0.5,47,108.0
6761,G#3,466.0,0.5,47,108.0
6762,E3,466.0,0.5,47,108.0
6763,B2,466.0,0.5,47,108.0
6764,G#2,466.0,0.25,79,108.0
6765,B1,466.0,0.25,79,108.0
6766,G#2,466.25,0.25,63,108.0
6767,E5,466.5,4.0,95,108.0
6768,E1,466.5,0.25,95,108.0
6769,G5,466.5,0.5,95,108.0
6770,G4,466.5,0.5,95,108.0
6771,G#2,466.5,0.25,84,108.0
6772,B1,466.5,0.25,84,108.0
6773,F#2,466.5,0.25,84,108.0
6774,E4,466.75,0.25,47,108.0
6775,B3,466.75,0.25,47,108.0
6776,G#3,466.75,0.25,47,108.0
6777,E3,466.75,0.25,47,108.0
6778,B2,466.75,0.25,47,108.0
6779,G#2,466.75,0.25,79,108.0
6780,F#2,466.75,0.25,79,108.0
6781,G5,467.0,0.5,95,108.0
6782,G4,467.0,0.5,95,108.0
6783,G4,467.0,4.0,95,108.0
6784,E4,467.0,4.0,95,108.0
6785,C4,467.0,4.0,95,108.0
6786,A2,467.0,4.0,95,108.0
6787,G#2,467.0,0.25,74,108.0
6788,D2,467.0,0.25,74,108.0
6789,E2,467.0,0.25,74,108.0
6790,G#2,467.25,0.25,63,108.0
6791,E1,467.5,0.75,95,108.0
6792,G5,467.5,0.5,95,108.0
6793,G4,467.5,0.5,95,108.0
6794,E4,467.5,1.0,47,108.0
6795,B3,467.5,1.0,47,108.0
6796,G#3,467.5,1.0,47,108.0
6797,E3,467.5,1.0,47,108.0
6798,B2,467.5,1.0,47,108.0
6799,G#2,467.5,0.25,84,108.0
6800,B1,467.5,0.25,84,108.0
6801,F#2,467.5,0.25,84,108.0
6802,G#2,467.75,0.25,79,108.0
6803,F#2,467.75,0.25,79,108.0
6804,G#2,468.0,0.25,63,108.0
6805,D2,468.25,0.25,95,108.0
6806,G#2,468.25,0.25,79,108.0
6807,B1,468.25,0.25,79,108.0
6808,E1,468.5,0.25,95,108.0
6809,G5,468.5,0.5,95,108.0
6810,G4,468.5,0.5,95,108.0
6811,E4,468.5,0.75,47,108.0
6812,B3,468.5,0.75,47,108.0
6813,A3,468.5,0.75,47,108.0
6814,E3,468.5,0.75,47,108.0
6815,B2,468.5,0.75,47,108.0
6816,G#2,468.5,0.25,79,108.0
6817,B1,468.5,0.25,79,108.0
6818,D2,468.75,0.25,95,108.0
6819,G#2,468.75,0.25,63,108.0
6820,F#1,469.0,0.5,95,108.0
6821,E5,469.0,3.5,95,108.0
6822,E4,469.0,3.5,95,108.0
6823,G#2,469.0,0.25,74,108.0
6824,D2,469.0,0.25,74,108.0
6825,E2,469.0,0.25,74,108.0
6826,E4,469.25,0.25,47,108.0
6827,B3,469.25,0.25,47,108.0
6828,A3,469.25,0.25,47,108.0
6829,E3,469.25,0.25,47,108.0
6830,B2,469.25,0.25,47,108.0
6831,G#2,469.25,0.25,79,108.0
6832,F#2,469.25,0.25,79,108.0
6833,G1,469.5,0.5,95,108.0
6834,G#2,469.5,0.25,79,108.0
6835,B1,469.5,0.25,79,108.0
6836,E4,469.75,0.25,47,108.0
6837,B3,469.75,0.25,47,108.0
6838,A3,469.75,0.25,47,108.0
6839,E3,469.75,0.25,47,108.0
6840,B2,469.75,0.25,47,108.0
6841,G#2,469.75,0.25,79,108.0
6842,F#2,469.75,0.25,79,108.0
6843,A1,470.0,0.5,95,108.0
6844,F#4,470.0,0.5,47,108.0
6845,D4,470.0,0.5,47,108.0
6846,A3,470.0,0.5,47,108.0
6847,F#3,470.0,0.5,47,108.0
6848,B2,470.0,0.5,47,108.0
6849,G#2,470.0,0.25,79,108.0
6850,B1,470.0,0.25,79,108.0
6851,G#2,470.25,0.25,63,108.0
6852,G5,470.5,1.5,95,108.0
6853,A1,470.5,0.5,95,108.0
6854,E4,470.5,4.0,95,108.0
6855,B3,470.5,4.0,95,108.0
6856,G#3,470.5,4.0,95,108.0
6857,G#2,470.5,0.25,84,108.0
6858,B1,470.5,0.25,84,108.0
6859,F#2,470.5,0.25,84,108.0
6860,F#4,470.75,0.25,47,108.0
6861,D4,470.75,0.25,47,108.0
6862,A3,470.75,0.25,47,108.0
6863,F#3,470.75,0.25,47,108.0
6864,B2,470.75,0.25,47,108.0
6865,G#2,470.75,0.25,79,108.0
6866,F#2,470.75,0.25,79,108.0
6867,E4,471.0,4.0,95,108.0
6868,C4,471.0,4.0,95,108.0
6869,G3,471.0,4.0,95,108.0
6870,F#4,471.0,4.0,95,108.0
6871,D4,471.0,4.0,95,108.0
6872,A3,471.0,4.0,95,108.0
6873,D3,471.0,4.0,95,108.0
6874,G#2,471.0,0.25,74,108.0
6875,D2,471.0,0.25,74,108.0
6876,E2,471.0,0.25,74,108.0
6877,G#2,471.25,0.25,63,108.0
6878,A1,471.5,0.75,95,108.0
6879,F#4,471.5,1.0,47,108.0
6880,D4,471.5,1.0,47,108.0
6881,A3,471.5,1.0,47,108.0
6882,F#3,471.5,1.0,47,108.0
6883,B2,471.5,1.0,47,108.0
6884,G#2,471.5,0.25,84,108.0
6885,B1,471.5,0.25,84,108.0
6886,F#2,471.5,0.25,84,108.0
6887,G#2,471.75,0.25,79,108.0
6888,F#2,471.75,0.25,79,108.0
6889,F#5,472.0,1.5,95,108.0
6890,G#2,472.0,0.25,63,108.0
6891,D2,472.25,0.25,95,108.0
6892,G#2,472.25,0.25,79,108.0
6893,B1,472.25,0.25,79,108.0
6894,E1,472.5,0.25,95,108.0
6895,F#4,472.5,0.75,47,108.0
6896,D4,472.5,0.75,47,108.0
6897,A3,472.5,0.75,47,108.0
6898,F#3,472.5,0.75,47,108.0
6899,B2,472.5,0.75,47,108.0
6900,G#2,472.5,0.25,79,108.0
6901,B1,472.5,0.25,79,108.0
6902,D2,472.75,0.25,95,108.0
6903,G#2,472.75,0.25,63,108.0
6904,G1,473.0,0.5,95,108.0
6905,G#2,473.0,0.25,74,108.0
6906,D2,473.0,0.25,74,108.0
6907,E2,473.0,0.25,74,108.0
6908,F#4,473.25,0.25,47,108.0
6909,D4,473.25,0.25,47,108.0
6910,A3,473.25,0.25,47,108.0
6911,F#3,473.25,0.25,47,108.0
6912,B2,473.25,0.25,47,108.0
6913,G#2,473.25,0.25,79,108.0
6914,F#2,473.25,0.25,79,108.0
6915,D5,473.5,1.0,95,108.0
6916,G1,473.5,0.5,95,108.0
6917,G#2,473.5,0.25,63,108.0
6918,F#4,473.75,0.25,47,108.0
6919,D4,473.75,0.25,47,108.0
6920,A3,473.75,0.25,47,108.0
6921,F#3,473.75,0.25,47,108.0
6922,B2,473.75,0.25,47,108.0
6923,G#2,473.75,0.25,79,108.0
6924,F#2,473.75,0.25,79,108.0
6925,A1,474.0,0.5,95,108.0
6926,F#4,474.0,0.5,47,108.0
6927,D4,474.0,0.5,47,108.0
6928,A3,474.0,0.5,47,108.0
6929,F#3,474.0,0.5,47,108.0
6930,B2,474.0,0.5,47,108.0
6931,G#2,474.0,0.25,79,108.0
6932,B1,474.0,0.25,79,108.0
6933,G#2,474.25,0.25,63,108.0
6934,D5,474.5,2.0,95,108.0
6935,A1,474.5,0.5,95,108.0
6936,E5,474.5,2.0,95,108.0
6937,E4,474.5,2.0,95,108.0
6938,F#4,474.5,4.0,95,108.0
6939,D4,474.5,4.0,95,108.0
6940,A3,474.5,4.0,95,108.0
6941,G#2,474.5,0.25,84,108.0
6942,B1,474.5,0.25,84,108.0
6943,F#2,474.5,0.25,84,108.0
6944,F#4,474.75,0.25,47,108.0
6945,D4,474.75,0.25,47,108.0
6946,A3,474.75,0.25,47,108.0
6947,F#3,474.75,0.25,47,108.0
6948,B2,474.75,0.25,47,108.0
6949,G#2,474.75,0.25,79,108.0
6950,F#2,474.75,0.25,79,108.0
6951,F#4,475.0,4.0,95,108.0
6952,D4,475.0,4.0,95,108.0
6953,A3,475.0,4.0,95,108.0
6954,G#2,475.0,0.25,74,108.0
6955,D2,475.0,0.25,74,108.0
6956,E2,475.0,0.25,74,108.0
6957,G#2,475.25,0.25,63,108.0
6958,A1,475.5,0.25,95,108.0
6959,F#4,475.5,1.0,47,108.0
6960,D4,475.5,1.0,47,108.0
6961,A3,475.5,1.0,47,108.0
6962,F#3,475.5,1.0,47,108.0
6963,B2,475.5,1.0,47,108.0
6964,G#2,475.5,0.25,84,108.0
6965,B1,475.5,0.25,84,108.0
6966,F#2,475.5,0.25,84,108.0
6967,A1,475.75,0.5,95,108.0
6968,G#2,475.75,0.25,74,108.0
6969,F#2,475.75,0.25,74,108.0
6970,E-6,475.75,0.25,74,108.0
6971,G#2,476.0,0.25,63,108.0
6972,G1,476.25,0.25,95,108.0
6973,G#2,476.25,0.25,74,108.0
6974,B1,476.25,0.25,74,108.0
6975,E-6,476.25,0.25,74,108.0
6976,F#4,476.5,0.5,95,108.0
6977,A1,476.5,0.5,95,108.0
6978,A4,476.5,0.5,95,108.0
6979,A3,476.5,0.5,95,108.0
6980,F#4,476.5,0.75,47,108.0
6981,D4,476.5,0.75,47,108.0
6982,A3,476.5,0.75,47,108.0
6983,F#3,476.5,0.75,47,108.0
6984,B2,476.5,0.75,47,108.0
6985,G#2,476.5,0.25,74,108.0
6986,B1,476.5,0.25,74,108.0
6987,E-6,476.5,0.25,74,108.0
6988,G#2,476.75,0.25,63,108.0
6989,E4,477.0,0.5,95,108.0
6990,A1,477.0,0.5,95,108.0
6991,A4,477.0,0.5,95,108.0
6992,A3,477.0,0.5,95,108.0
6993,G#2,477.0,0.25,71,108.0
6994,D2,477.0,0.25,71,108.0
6995,E2,477.0,0.25,71,108.0
6996,E-6,477.0,0.25,71,108.0
6997,F#4,477.25,0.25,47,108.0
6998,D4,477.25,0.25,47,108.0
6999,A3,477.25,0.25,47,108.0
7000,F#3,477.25,0.25,47,108.0
7001,B2,477.25,0.25,47,108.0
7002,G#2,477.25,0.25,79,108.0
7003,F#2,477.25,0.25,79,108.0
7004,D4,477.5,0.5,95,108.0
7005,A1,477.5,0.5,95,108.0
7006,G#2,477.5,0.25,63,108.0
7007,G4,477.5,0.5,95,108.0
7008,G3,477.5,0.5,95,108.0
7009,F#4,477.75,0.25,47,108.0
7010,D4,477.75,0.25,47,108.0
7011,A3,477.75,0.25,47,108.0
7012,F#3,477.75,0.25,47,108.0
7013,B2,477.75,0.25,47,108.0
7014,G#2,477.75,0.25,79,108.0
7015,F#2,477.75,0.25,79,108.0
7016,E4,478.0,0.5,95,108.0
7017,B1,478.0,0.5,95,108.0
7018,A4,478.0,0.5,95,108.0
7019,A3,478.0,0.5,95,108.0
7020,G4,478.0,0.5,47,108.0
7021,C4,478.0,0.5,47,108.0
7022,G3,478.0,0.5,47,108.0
7023,E3,478.0,0.5,47,108.0
7024,A2,478.0,0.5,47,108.0
7025,G#2,478.0,0.25,79,108.0
7026,B1,478.0,0.25,79,108.0
7027,A3,478.0,0.25,79,108.0
7028,E-5,478.0,0.25,79,108.0
7029,G#2,478.25,0.25,63,108.0
7030,E-5,478.25,0.25,63,108.0
7031,E4,478.5,1.5,95,108.0
7032,B1,478.5,1.0,95,108.0
7033,G#2,478.5,0.25,74,108.0
7034,B1,478.5,0.25,74,108.0
7035,E-3,478.5,0.25,74,108.0
7036,G#2,478.75,0.25,63,108.0
7037,G4,478.75,0.25,47,108.0
7038,C4,478.75,0.25,47,108.0
7039,G3,478.75,0.25,47,108.0
7040,E3,478.75,0.25,47,108.0
7041,A2,478.75,0.25,47,108.0
7042,F#4,479.0,4.0,95,108.0
7043,D4,479.0,4.0,95,108.0
7044,A3,479.0,4.0,95,108.0
7045,D3,479.0,4.0,95,108.0
7046,G#2,479.0,0.25,71,108.0
7047,D2,479.0,0.25,71,108.0
7048,E2,479.0,0.25,71,108.0
7049,E-5,479.0,0.25,71,108.0
7050,G#2,479.25,0.25,63,108.0
7051,E-3,479.25,0.25,63,108.0
7052,A1,479.5,1.5,95,108.0
7053,G4,479.5,1.0,47,108.0
7054,C4,479.5,1.0,47,108.0
7055,G3,479.5,1.0,47,108.0
7056,E3,479.5,1.0,47,108.0
7057,A2,479.5,1.0,47,108.0
7058,F#4,479.5,0.5,95,108.0
7059,D4,479.5,0.5,95,108.0
7060,A3,479.5,0.5,95,108.0
7061,G#2,479.5,0.25,74,108.0
7062,B1,479.5,0.25,74,108.0
7063,A3,479.5,0.25,74,108.0
7064,G#2,479.75,0.25,63,108.0
7065,E-5,479.75,0.25,63,108.0
7066,A3,480.0,0.125,63,108.0
7067,A4,480.0,2.5,95,108.0
7068,A4,480.0,1.5,95,108.0
7069,A3,480.0,1.5,95,108.0
7070,G#2,480.0,0.25,63,108.0
7071,E-3,480.0,0.25,63,108.0
7072,D4,480.125,0.125,79,108.0
7073,E4,480.25,0.125,95,108.0
7074,G#2,480.25,0.25,79,108.0
7075,B1,480.25,0.25,79,108.0
7076,A4,480.375,0.125,95,108.0
7077,F#4,480.5,0.125,95,108.0
7078,G4,480.5,0.75,47,108.0
7079,C4,480.5,0.75,47,108.0
7080,G3,480.5,0.75,47,108.0
7081,E3,480.5,0.75,47,108.0
7082,A2,480.5,0.75,47,108.0
7083,G#2,480.5,0.25,79,108.0
7084,B1,480.5,0.25,79,108.0
7085,E4,480.625,0.125,95,108.0
7086,D4,480.75,0.125,79,108.0
7087,G#2,480.75,0.25,63,108.0
7088,E-5,480.75,0.25,63,108.0
7089,A3,480.875,0.25,63,108.0
7090,A1,481.0,0.125,95,108.0
7091,G#2,481.0,0.25,71,108.0
7092,D2,481.0,0.25,71,108.0
7093,E2,481.0,0.25,71,108.0
7094,E-3,481.0,0.25,71,108.0
7095,G#2,481.25,0.25,63,108.0
7096,G4,481.25,0.25,47,108.0
7097,C4,481.25,0.25,47,108.0
7098,G3,481.25,0.25,47,108.0
7099,E3,481.25,0.25,47,108.0
7100,A2,481.25,0.25,47,108.0
7101,G1,481.5,0.5,95,108.0
7102,D5,481.5,2.5,95,108.0
7103,D4,481.5,2.5,95,108.0
7104,G#2,481.5,0.25,71,108.0
7105,B1,481.5,0.25,71,108.0
7106,A3,481.5,0.25,71,108.0
7107,E-5,481.5,0.25,71,108.0
7108,D4,481.625,0.125,63,108.0
7109,E4,481.75,0.125,79,108.0
7110,G4,481.75,0.25,47,108.0
7111,C4,481.75,0.25,47,108.0
7112,G3,481.75,0.25,47,108.0
7113,E3,481.75,0.25,47,108.0
7114,A2,481.75,0.25,47,108.0
7115,G#2,481.75,0.25,63,108.0
7116,E-5,481.75,0.25,63,108.0
7117,A4,481.875,0.125,95,108.0
7118,D5,482.0,0.125,95,108.0
7119,G1,482.0,0.5,95,108.0
7120,G4,482.0,0.5,47,108.0
7121,C4,482.0,0.5,47,108.0
7122,G3,482.0,0.5,47,108.0
7123,E3,482.0,0.5,47,108.0
7124,A2,482.0,0.5,47,108.0
7125,G#2,482.0,0.25,74,108.0
7126,B1,482.0,0.25,74,108.0
7127,E-5,482.0,0.25,74,108.0
7128,E5,482.125,0.125,95,108.0
7129,A5,482.25,0.125,95,108.0
7130,G#2,482.25,0.25,63,108.0
7131,E-5,482.25,0.25,63,108.0
7132,E5,482.375,0.125,95,108.0
7133,D5,482.5,0.125,95,108.0
7134,A4,482.5,4.0,95,108.0
7135,D2,482.5,0.5,79,108.0
7136,F#4,482.5,4.0,95,108.0
7137,D4,482.5,4.0,95,108.0
7138,A3,482.5,4.0,95,108.0
7139,G#2,482.5,0.25,74,108.0
7140,B1,482.5,0.25,74,108.0
7141,E-3,482.5,0.25,74,108.0
7142,A4,482.625,0.125,95,108.0
7143,G4,482.75,0.125,95,108.0
7144,G#2,482.75,0.25,63,108.0
7145,G4,482.75,0.25,47,108.0
7146,C4,482.75,0.25,47,108.0
7147,G3,482.75,0.25,47,108.0
7148,E3,482.75,0.25,47,108.0
7149,A2,482.75,0.25,47,108.0
7150,E4,482.875,0.125,95,108.0
7151,D4,483.0,0.125,79,108.0
7152,G1,483.0,0.5,95,108.0
7153,G#2,483.0,0.25,71,108.0
7154,D2,483.0,0.25,71,108.0
7155,E2,483.0,0.25,71,108.0
7156,E-5,483.0,0.25,71,108.0
7157,D4,483.125,0.125,63,108.0
7158,G#2,483.25,0.25,63,108.0
7159,E-3,483.25,0.25,63,108.0
7160,F#1,483.5,1.0,95,108.0
7161,G4,483.5,1.0,47,108.0
7162,C4,483.5,1.0,47,108.0
7163,G3,483.5,1.0,47,108.0
7164,E3,483.5,1.0,47,108.0
7165,A2,483.5,1.0,47,108.0
7166,E-4,483.5,4.0,95,108.0
7167,B3,483.5,4.0,95,108.0
7168,F#3,483.5,4.0,95,108.0
7169,G#2,483.5,0.25,74,108.0
7170,B1,483.5,0.25,74,108.0
7171,A3,483.5,0.25,74,108.0
7172,G#2,483.75,0.25,63,108.0
7173,E-5,483.75,0.25,63,108.0
7174,G#2,484.0,0.25,63,108.0
7175,E-3,484.0,0.25,63,108.0
7176,G#2,484.25,0.25,79,108.0
7177,B1,484.25,0.25,79,108.0
7178,F#1,484.5,0.25,79,108.0
7179,G4,484.5,0.75,47,108.0
7180,C4,484.5,0.75,47,108.0
7181,G3,484.5,0.75,47,108.0
7182,E3,484.5,0.75,47,108.0
7183,A2,484.5,0.75,47,108.0
7184,G#2,484.5,0.25,79,108.0
7185,B1,484.5,0.25,79,108.0
7186,F#1,484.75,0.25,63,108.0
7187,G#2,484.75,0.25,63,108.0
7188,E-5,484.75,0.25,63,108.0
7189,F#1,485.0,0.25,63,108.0
7190,G#2,485.0,0.25,71,108.0
7191,D2,485.0,0.25,71,108.0
7192,E2,485.0,0.25,71,108.0
7193,E-3,485.0,0.25,71,108.0
7194,F#1,485.25,0.25,63,108.0
7195,G#2,485.25,0.25,63,108.0
7196,G4,485.25,0.25,47,108.0
7197,C4,485.25,0.25,47,108.0
7198,G3,485.25,0.25,47,108.0
7199,E3,485.25,0.25,47,108.0
7200,A2,485.25,0.25,47,108.0
7201,F#1,485.5,0.25,79,108.0
7202,G#2,485.5,0.25,74,108.0
7203,B1,485.5,0.25,74,108.0
7204,E-5,485.5,0.25,74,108.0
7205,F#1,485.75,0.25,63,108.0
7206,G4,485.75,0.25,47,108.0
7207,C4,485.75,0.25,47,108.0
7208,G3,485.75,0.25,47,108.0
7209,E3,485.75,0.25,47,108.0
7210,A2,485.75,0.25,47,108.0
7211,G#2,485.75,0.25,63,108.0
7212,E-5,485.75,0.25,63,108.0
7213,B1,486.0,0.5,95,108.0
7214,G4,486.0,0.5,57,108.0
7215,D4,486.0,0.5,57,108.0
7216,A3,486.0,0.5,57,108.0
7217,D3,486.0,0.5,57,108.0
7218,D3,486.0,0.5,57,108.0
7219,G#2,486.0,0.25,79,108.0
7220,B1,486.0,0.25,79,108.0
7221,A3,486.0,0.25,79,108.0
7222,E-5,486.0,0.25,79,108.0
7223,G#2,486.25,0.25,63,108.0
7224,E-5,486.25,0.25,63,108.0
7225,B1,486.5,1.0,95,108.0
7226,F#4,486.5,1.5,95,108.0
7227,E-4,486.5,1.5,95,108.0
7228,B3,486.5,1.5,95,108.0
7229,E4,486.5,4.0,95,108.0
7230,C4,486.5,4.0,95,108.0
7231,G3,486.5,4.0,95,108.0
7232,G#2,486.5,0.25,74,108.0
7233,B1,486.5,0.25,74,108.0
7234,E-3,486.5,0.25,74,108.0
7235,G#2,486.75,0.25,63,108.0
7236,G4,486.75,0.25,47,108.0
7237,D4,486.75,0.25,47,108.0
7238,A3,486.75,0.25,47,108.0
7239,D3,486.75,0.25,47,108.0
7240,D3,486.75,0.25,47,108.0
7241,G#2,487.0,0.25,71,108.0
7242,D2,487.0,0.25,71,108.0
7243,E2,487.0,0.25,71,108.0
7244,E-5,487.0,0.25,71,108.0
7245,G#2,487.25,0.25,63,108.0
7246,E-3,487.25,0.25,63,108.0
7247,A1,487.5,1.5,95,108.0
7248,F#4,487.5,1.0,47,108.0
7249,D4,487.5,1.0,47,108.0
7250,A3,487.5,1.0,47,108.0
7251,D3,487.5,1.0,47,108.0
7252,D3,487.5,1.0,47,108.0
7253,G#2,487.5,0.25,74,108.0
7254,B1,487.5,0.25,74,108.0
7255,A3,487.5,0.25,74,108.0
7256,G#2,487.75,0.25,63,108.0
7257,E-5,487.75,0.25,63,108.0
7258,D5,488.0,4.0,95,108.0
7259,D4,488.0,4.0,95,108.0
7260,E4,488.0,2.0,95,108.0
7261,C#4,488.0,2.0,95,108.0
7262,A3,488.0,2.0,95,108.0
7263,G#2,488.0,0.25,63,108.0
7264,E-3,488.0,0.25,63,108.0
7265,G#2,488.25,0.25,79,108.0
7266,B1,488.25,0.25,79,108.0
7267,F#4,488.5,0.75,47,108.0
7268,D4,488.5,0.75,47,108.0
7269,A3,488.5,0.75,47,108.0
7270,D3,488.5,0.75,47,108.0
7271,A2,488.5,0.75,47,108.0
7272,G#2,488.5,0.25,79,108.0
7273,B1,488.5,0.25,79,108.0
7274,G#2,488.75,0.25,63,108.0
7275,E-5,488.75,0.25,63,108.0
7276,A1,489.0,0.125,95,108.0
7277,G#2,489.0,0.25,71,108.0
7278,D2,489.0,0.25,71,108.0
7279,E2,489.0,0.25,71,108.0
7280,E-3,489.0,0.25,71,108.0
7281,G#2,489.25,0.25,63,108.0
7282,F#4,489.25,0.25,47,108.0
7283,D4,489.25,0.25,47,108.0
7284,A3,489.25,0.25,47,108.0
7285,D3,489.25,0.25,47,108.0
7286,D3,489.25,0.25,47,108.0
7287,G1,489.5,0.5,95,108.0
7288,G#2,489.5,0.25,71,108.0
7289,B1,489.5,0.25,71,108.0
7290,A3,489.5,0.25,71,108.0
7291,E-5,489.5,0.25,71,108.0
7292,F#4,489.75,0.25,47,108.0
7293,D4,489.75,0.25,47,108.0
7294,A3,489.75,0.25,47,108.0
7295,D3,489.75,0.25,47,108.0
7296,D3,489.75,0.25,47,108.0
7297,G#2,489.75,0.25,63,108.0
7298,E-5,489.75,0.25,63,108.0
7299,G1,490.0,0.5,95,108.0
7300,G4,490.0,0.5,57,108.0
7301,D4,490.0,0.5,57,108.0
7302,A3,490.0,0.5,57,108.0
7303,D3,490.0,0.5,57,108.0
7304,D3,490.0,0.5,57,108.0
7305,F#4,490.0,0.5,95,108.0
7306,D4,490.0,0.5,95,108.0
7307,B3,490.0,0.5,95,108.0
7308,G#2,490.0,0.25,74,108.0
7309,B1,490.0,0.25,74,108.0
7310,E-5,490.0,0.25,74,108.0
7311,G#2,490.25,0.25,63,108.0
7312,E-5,490.25,0.25,63,108.0
7313,D2,490.5,0.5,79,108.0
7314,G#2,490.5,0.25,74,108.0
7315,B1,490.5,0.25,74,108.0
7316,E-3,490.5,0.25,74,108.0
7317,G#2,490.75,0.25,63,108.0
7318,G4,490.75,0.25,47,108.0
7319,D4,490.75,0.25,47,108.0
7320,A3,490.75,0.25,47,108.0
7321,D3,490.75,0.25,47,108.0
7322,D3,490.75,0.25,47,108.0
7323,G1,491.0,0.5,95,108.0
7324,G#2,491.0,0.25,71,108.0
7325,D2,491.0,0.25,71,108.0
7326,E2,491.0,0.25,71,108.0
7327,E-5,491.0,0.25,71,108.0
7328,G#2,491.25,0.25,63,108.0
7329,E-3,491.25,0.25,63,108.0
7330,F#1,491.5,1.0,95,108.0
7331,F#4,491.5,1.0,47,108.0
7332,D4,491.5,1.0,47,108.0
7333,A3,491.5,1.0,47,108.0
7334,D3,491.5,1.0,47,108.0
7335,D3,491.5,1.0,47,108.0
7336,E-4,491.5,4.0,95,108.0
7337,B3,491.5,4.0,95,108.0
7338,F#3,491.5,4.0,95,108.0
7339,G#2,491.5,0.25,74,108.0
7340,B1,491.5,0.25,74,108.0
7341,A3,491.5,0.25,74,108.0
7342,G#2,491.75,0.25,63,108.0
7343,E-5,491.75,0.25,63,108.0
7344,B4,492.0,1.5,95,108.0
7345,B3,492.0,1.5,95,108.0
7346,F#4,492.0,1.5,95,108.0
7347,D4,492.0,1.5,95,108.0
7348,B3,492.0,1.5,95,108.0
7349,G#2,492.0,0.25,63,108.0
7350,E-3,492.0,0.25,63,108.0
7351,G#2,492.25,0.25,79,108.0
7352,B1,492.25,0.25,79,108.0
7353,F#1,492.5,0.25,79,108.0
7354,F#4,492.5,0.75,47,108.0
7355,D4,492.5,0.75,47,108.0
7356,A3,492.5,0.75,47,108.0
7357,D3,492.5,0.75,47,108.0
7358,A2,492.5,0.75,47,108.0
7359,G#2,492.5,0.25,79,108.0
7360,B1,492.5,0.25,79,108.0
7361,F#1,492.75,0.25,63,108.0
7362,G#2,492.75,0.25,63,108.0
7363,E-5,492.75,0.25,63,108.0
7364,F#1,493.0,0.25,63,108.0
7365,G#2,493.0,0.25,71,108.0
7366,D2,493.0,0.25,71,108.0
7367,E2,493.0,0.25,71,108.0
7368,E-3,493.0,0.25,71,108.0
7369,F#1,493.25,0.25,63,108.0
7370,G#2,493.25,0.25,63,108.0
7371,F#4,493.25,0.25,47,108.0
7372,D4,493.25,0.25,47,108.0
7373,A3,493.25,0.25,47,108.0
7374,D3,493.25,0.25,47,108.0
7375,D3,493.25,0.25,47,108.0
7376,F#1,493.5,0.25,79,108.0
7377,F#4,493.5,2.5,95,108.0
7378,F#3,493.5,2.5,95,108.0
7379,E4,493.5,2.5,95,108.0
7380,C#4,493.5,2.5,95,108.0
7381,A3,493.5,2.5,95,108.0
7382,G#2,493.5,0.25,74,108.0
7383,B1,493.5,0.25,74,108.0
7384,E-5,493.5,0.25,74,108.0
7385,F#1,493.75,0.25,63,108.0
7386,F#4,493.75,0.25,47,108.0
7387,D4,493.75,0.25,47,108.0
7388,A3,493.75,0.25,47,108.0
7389,D3,493.75,0.25,47,108.0
7390,D3,493.75,0.25,47,108.0
7391,G#2,493.75,0.25,63,108.0
7392,E-5,493.75,0.25,63,108.0
7393,F#5,494.0,0.5,79,108.0
7394,B1,494.0,0.5,95,108.0
7395,E-4,494.0,0.5,47,108.0
7396,B3,494.0,0.5,47,108.0
7397,E-3,494.0,0.5,47,108.0
7398,B2,494.0,0.5,47,108.0
7399,G#2,494.0,0.25,79,108.0
7400,B1,494.0,0.25,79,108.0
7401,A3,494.0,0.25,79,108.0
7402,E-5,494.0,0.25,79,108.0
7403,G#2,494.25,0.25,63,108.0
7404,E-5,494.25,0.25,63,108.0
7405,F#5,494.5,0.25,31,108.0
7406,B1,494.5,1.0,95,108.0
7407,E4,494.5,4.0,95,108.0
7408,C4,494.5,4.0,95,108.0
7409,G3,494.5,4.0,95,108.0
7410,G#2,494.5,0.25,74,108.0
7411,B1,494.5,0.25,74,108.0
7412,E-3,494.5,0.25,74,108.0
7413,F#5,494.75,0.25,95,108.0
7414,G#2,494.75,0.25,63,108.0
7415,E-4,494.75,0.25,47,108.0
7416,B3,494.75,0.25,47,108.0
7417,E-3,494.75,0.25,47,108.0
7418,B2,494.75,0.25,47,108.0
7419,F#5,495.0,0.25,63,108.0
7420,G#2,495.0,0.25,71,108.0
7421,D2,495.0,0.25,71,108.0
7422,E2,495.0,0.25,71,108.0
7423,E-5,495.0,0.25,71,108.0
7424,F#5,495.25,0.25,31,108.0
7425,G#2,495.25,0.25,63,108.0
7426,E-3,495.25,0.25,63,108.0
7427,B5,495.5,0.25,79,108.0
7428,A1,495.5,1.5,95,108.0
7429,E-4,495.5,1.0,47,108.0
7430,B3,495.5,1.0,47,108.0
7431,E-3,495.5,1.0,47,108.0
7432,B2,495.5,1.0,47,108.0
7433,C#4,495.5,4.0,95,108.0
7434,A3,495.5,4.0,95,108.0
7435,F#3,495.5,4.0,95,108.0
7436,G#2,495.5,0.25,74,108.0
7437,B1,495.5,0.25,74,108.0
7438,A3,495.5,0.25,74,108.0
7439,G#2,495.75,0.25,63,108.0
7440,E-5,495.75,0.25,63,108.0
7441,F#4,496.0,1.5,95,108.0
7442,E-4,496.0,1.5,95,108.0
7443,B3,496.0,1.5,95,108.0
7444,G#2,496.0,0.25,63,108.0
7445,E-3,496.0,0.25,63,108.0
7446,F#5,496.25,0.25,47,108.0
7447,G#2,496.25,0.25,79,108.0
7448,B1,496.25,0.25,79,108.0
7449,F#5,496.5,0.25,63,108.0
7450,E-4,496.5,0.75,47,108.0
7451,B3,496.5,0.75,47,108.0
7452,E-3,496.5,0.75,47,108.0
7453,B2,496.5,0.75,47,108.0
7454,G#2,496.5,0.25,79,108.0
7455,B1,496.5,0.25,79,108.0
7456,G#2,496.75,0.25,63,108.0
7457,E-5,496.75,0.25,63,108.0
7458,F#5,497.0,0.25,63,108.0
7459,A1,497.0,0.125,95,108.0
7460,G#2,497.0,0.25,71,108.0
7461,D2,497.0,0.25,71,108.0
7462,E2,497.0,0.25,71,108.0
7463,E-3,497.0,0.25,71,108.0
7464,G#2,497.25,0.25,63,108.0
7465,E-4,497.25,0.25,47,108.0
7466,B3,497.25,0.25,47,108.0
7467,E-3,497.25,0.25,47,108.0
7468,B2,497.25,0.25,47,108.0
7469,B4,497.5,0.25,63,108.0
7470,G1,497.5,0.5,95,108.0
7471,F#4,497.5,1.5,95,108.0
7472,F#3,497.5,1.5,95,108.0
7473,E4,497.5,2.0,95,108.0
7474,C#4,497.5,2.0,95,108.0
7475,A3,497.5,2.0,95,108.0
7476,G#2,497.5,0.25,71,108.0
7477,B1,497.5,0.25,71,108.0
7478,A3,497.5,0.25,71,108.0
7479,E-5,497.5,0.25,71,108.0
7480,E5,497.75,0.25,79,108.0
7481,E-4,497.75,0.25,47,108.0
7482,B3,497.75,0.25,47,108.0
7483,E-3,497.75,0.25,47,108.0
7484,B2,497.75,0.25,47,108.0
7485,G#2,497.75,0.25,63,108.0
7486,E-5,497.75,0.25,63,108.0
7487,B5,498.0,0.25,95,108.0
7488,G1,498.0,0.5,95,108.0
7489,E-4,498.0,0.5,47,108.0
7490,B3,498.0,0.5,47,108.0
7491,E-3,498.0,0.5,47,108.0
7492,B2,498.0,0.5,47,108.0
7493,G#2,498.0,0.25,74,108.0
7494,B1,498.0,0.25,74,108.0
7495,E-5,498.0,0.25,74,108.0
7496,G#2,498.25,0.25,63,108.0
7497,E-5,498.25,0.25,63,108.0
7498,A5,498.5,1.0,95,108.0
7499,D2,498.5,0.5,79,108.0
7500,D4,498.5,4.0,95,108.0
7501,A3,498.5,4.0,95,108.0
7502,F#3,498.5,4.0,95,108.0
7503,G#2,498.5,0.25,74,108.0
7504,B1,498.5,0.25,74,108.0
7505,E-3,498.5,0.25,74,108.0
7506,G#2,498.75,0.25,63,108.0
7507,E-4,498.75,0.25,47,108.0
7508,B3,498.75,0.25,47,108.0
7509,E-3,498.75,0.25,47,108.0
7510,B2,498.75,0.25,47,108.0
7511,G1,499.0,0.5,95,108.0
7512,F#4,499.0,0.5,95,108.0
7513,F#3,499.0,0.5,95,108.0
7514,G#2,499.0,0.25,71,108.0
7515,D2,499.0,0.25,71,108.0
7516,E2,499.0,0.25,71,108.0
7517,E-5,499.0,0.25,71,108.0
7518,G#2,499.25,0.25,63,108.0
7519,E-3,499.25,0.25,63,108.0
7520,A5,499.5,0.25,95,108.0
7521,G1,499.5,1.0,95,108.0
7522,E-5,499.5,0.5,95,108.0
7523,E-4,499.5,0.5,95,108.0
7524,E-4,499.5,1.0,47,108.0
7525,B3,499.5,1.0,47,108.0
7526,E-3,499.5,1.0,47,108.0
7527,B2,499.5,1.0,47,108.0
7528,F#4,499.5,0.5,95,108.0
7529,D4,499.5,0.5,95,108.0
7530,B3,499.5,0.5,95,108.0
7531,G#2,499.5,0.25,74,108.0
7532,B1,499.5,0.25,74,108.0
7533,A3,499.5,0.25,74,108.0
7534,G#2,499.75,0.25,63,108.0
7535,E-5,499.75,0.25,63,108.0
7536,A5,500.0,2.0,95,108.0
7537,E5,500.0,0.5,95,108.0
7538,E4,500.0,0.5,95,108.0
7539,G#2,500.0,0.25,63,108.0
7540,E-3,500.0,0.25,63,108.0
7541,G#2,500.25,0.25,79,108.0
7542,B1,500.25,0.25,79,108.0
7543,G1,500.5,0.25,79,108.0
7544,E5,500.5,1.0,95,108.0
7545,E4,500.5,1.0,95,108.0
7546,E-4,500.5,0.75,47,108.0
7547,B3,500.5,0.75,47,108.0
7548,E-3,500.5,0.75,47,108.0
7549,B2,500.5,0.75,47,108.0
7550,G#2,500.5,0.25,79,108.0
7551,B1,500.5,0.25,79,108.0
7552,G1,500.75,0.25,63,108.0
7553,G#2,500.75,0.25,63,108.0
7554,E-5,500.75,0.25,63,108.0
7555,G1,501.0,0.25,63,108.0
7556,G#2,501.0,0.25,76,108.0
7557,D2,501.0,0.25,76,108.0
7558,F#2,501.0,0.25,76,108.0
7559,E-3,501.0,0.25,76,108.0
7560,E2,501.0,0.25,76,108.0
7561,G1,501.25,0.25,63,108.0
7562,E-4,501.25,0.25,47,108.0
7563,B3,501.25,0.25,47,108.0
7564,E-3,501.25,0.25,47,108.0
7565,B2,501.25,0.25,47,108.0
7566,G#2,501.25,0.25,79,108.0
7567,F#2,501.25,0.25,79,108.0
7568,G1,501.5,0.25,79,108.0
7569,A5,501.5,1.5,95,108.0
7570,A4,501.5,1.5,95,108.0
7571,F#4,501.5,1.5,95,108.0
7572,D4,501.5,1.5,95,108.0
7573,B3,501.5,1.5,95,108.0
7574,G#2,501.5,0.25,79,108.0
7575,B1,501.5,0.25,79,108.0
7576,F#2,501.5,0.25,79,108.0
7577,E-5,501.5,0.25,79,108.0
7578,G1,501.75,0.25,63,108.0
7579,E-4,501.75,0.25,47,108.0
7580,B3,501.75,0.25,47,108.0
7581,E-3,501.75,0.25,47,108.0
7582,B2,501.75,0.25,47,108.0
7583,G#2,501.75,0.25,74,108.0
7584,F#2,501.75,0.25,74,108.0
7585,E-5,501.75,0.25,74,108.0
7586,G5,502.0,0.25,95,108.0
7587,A5,502.0,1.0,95,108.0
7588,C2,502.0,0.25,95,108.0
7589,E4,502.0,0.5,47,108.0
7590,A3,502.0,0.5,47,108.0
7591,F#3,502.0,0.5,47,108.0
7592,F#2,502.0,0.5,47,108.0
7593,G#2,502.0,0.25,79,108.0
7594,B1,502.0,0.25,79,108.0
7595,A3,502.0,0.25,79,108.0
7596,E-5,502.0,0.25,79,108.0
7597,F#5,502.25,0.25,95,108.0
7598,B1,502.25,0.25,95,108.0
7599,G#2,502.25,0.25,63,108.0
7600,E-5,502.25,0.25,63,108.0
7601,G5,502.5,0.25,95,108.0
7602,C2,502.5,0.25,95,108.0
7603,G#2,502.5,0.25,63,108.0
7604,E-3,502.5,0.25,63,108.0
7605,E5,502.75,0.75,95,108.0
7606,C2,502.75,0.75,95,108.0
7607,G#2,502.75,0.25,63,108.0
7608,E4,502.75,0.25,47,108.0
7609,A3,502.75,0.25,47,108.0
7610,F#3,502.75,0.25,47,108.0
7611,F#2,502.75,0.25,47,108.0
7612,G#5,503.0,1.5,95,108.0
7613,G#4,503.0,1.5,95,108.0
7614,E4,503.0,2.5,95,108.0
7615,C#4,503.0,2.5,95,108.0
7616,A3,503.0,2.5,95,108.0
7617,G#2,503.0,0.25,74,108.0
7618,D2,503.0,0.25,74,108.0
7619,E-5,503.0,0.25,74,108.0
7620,G#2,503.25,0.25,63,108.0
7621,E-3,503.25,0.25,63,108.0
7622,G5,503.5,0.25,95,108.0
7623,B1,503.5,0.25,95,108.0
7624,E4,503.5,1.0,47,108.0
7625,A3,503.5,1.0,47,108.0
7626,F#3,503.5,1.0,47,108.0
7627,F#2,503.5,1.0,47,108.0
7628,C#4,503.5,4.0,95,108.0
7629,A3,503.5,4.0,95,108.0
7630,F#3,503.5,4.0,95,108.0
7631,G#2,503.5,0.25,84,108.0
7632,B1,503.5,0.25,84,108.0
7633,A3,503.5,0.25,84,108.0
7634,F#5,503.75,0.25,95,108.0
7635,A1,503.75,0.25,95,108.0
7636,G#2,503.75,0.25,63,108.0
7637,E-5,503.75,0.25,63,108.0
7638,G5,504.0,0.25,95,108.0
7639,B1,504.0,0.25,95,108.0
7640,G#2,504.0,0.25,63,108.0
7641,E-3,504.0,0.25,63,108.0
7642,D5,504.25,0.75,95,108.0
7643,A1,504.25,0.25,95,108.0
7644,G#2,504.25,0.25,55,108.0
7645,E-6,504.25,0.25,55,108.0
7646,G1,504.5,0.25,79,108.0
7647,E5,504.5,1.0,95,108.0
7648,E4,504.5,1.0,95,108.0
7649,E4,504.5,0.75,47,108.0
7650,A3,504.5,0.75,47,108.0
7651,F#3,504.5,0.75,47,108.0
7652,F#2,504.5,0.75,47,108.0
7653,G#2,504.5,0.25,63,108.0
7654,E-6,504.5,0.25,63,108.0
7655,A1,504.75,0.25,63,108.0
7656,G#2,504.75,0.25,58,108.0
7657,E-6,504.75,0.25,58,108.0
7658,E-5,504.75,0.25,58,108.0
7659,A5,505.0,0.25,95,108.0
7660,A1,505.0,1.0,95,108.0
7661,G#2,505.0,0.25,79,108.0
7662,B1,505.0,0.25,79,108.0
7663,F#2,505.0,0.25,79,108.0
7664,A3,505.0,0.25,79,108.0
7665,G5,505.25,0.25,95,108.0
7666,E4,505.25,0.25,47,108.0
7667,A3,505.25,0.25,47,108.0
7668,F#3,505.25,0.25,47,108.0
7669,F#2,505.25,0.25,47,108.0
7670,G#2,505.25,0.25,79,108.0
7671,F#2,505.25,0.25,79,108.0
7672,A5,505.5,0.25,95,108.0
7673,F#4,505.5,1.5,95,108.0
7674,E-4,505.5,1.5,95,108.0
7675,B3,505.5,1.5,95,108.0
7676,G#2,505.5,0.25,74,108.0
7677,F#2,505.5,0.25,74,108.0
7678,E-5,505.5,0.25,74,108.0
7679,E5,505.75,0.25,95,108.0
7680,E4,505.75,0.25,47,108.0
7681,A3,505.75,0.25,47,108.0
7682,F#3,505.75,0.25,47,108.0
7683,F#2,505.75,0.25,47,108.0
7684,G#2,505.75,0.25,74,108.0
7685,F#2,505.75,0.25,74,108.0
7686,E-5,505.75,0.25,74,108.0
7687,E5,506.0,0.5,95,108.0
7688,A1,506.0,0.5,95,108.0
7689,E4,506.0,0.5,47,108.0
7690,A3,506.0,0.5,47,108.0
7691,F#3,506.0,0.5,47,108.0
7692,F#2,506.0,0.5,47,108.0
7693,G#2,506.0,0.25,74,108.0
7694,B1,506.0,0.25,74,108.0
7695,E-5,506.0,0.25,74,108.0
7696,G#2,506.25,0.25,63,108.0
7697,E-5,506.25,0.25,63,108.0
7698,G4,506.5,1.0,95,108.0
7699,G1,506.5,1.25,95,108.0
7700,D4,506.5,4.0,95,108.0
7701,A3,506.5,4.0,95,108.0
7702,F#3,506.5,4.0,95,108.0
7703,G#2,506.5,0.25,76,108.0
7704,B1,506.5,0.25,76,108.0
7705,E2,506.5,0.25,76,108.0
7706,E-3,506.5,0.25,76,108.0
7707,A3,506.5,0.25,76,108.0
7708,G#2,506.75,0.25,63,108.0
7709,E4,506.75,0.25,47,108.0
7710,A3,506.75,0.25,47,108.0
7711,F#3,506.75,0.25,47,108.0
7712,F#2,506.75,0.25,47,108.0
7713,E4,507.0,2.0,95,108.0
7714,C#4,507.0,2.0,95,108.0
7715,A3,507.0,2.0,95,108.0
7716,G#2,507.0,0.25,74,108.0
7717,D2,507.0,0.25,74,108.0
7718,E-5,507.0,0.25,74,108.0
7719,G#2,507.25,0.25,63,108.0
7720,E-3,507.25,0.25,63,108.0
7721,A4,507.5,0.5,95,108.0
7722,E4,507.5,1.0,47,108.0
7723,A3,507.5,1.0,47,108.0
7724,F#3,507.5,1.0,47,108.0
7725,F#2,507.5,1.0,47,108.0
7726,E4,507.5,4.0,95,108.0
7727,B3,507.5,4.0,95,108.0
7728,G3,507.5,4.0,95,108.0
7729,G#2,507.5,0.25,79,108.0
7730,B1,507.5,0.25,79,108.0
7731,G1,507.75,0.25,63,108.0
7732,G#2,507.75,0.25,67,108.0
7733,F#2,507.75,0.25,67,108.0
7734,E-5,507.75,0.25,67,108.0
7735,E-6,507.75,0.25,67,108.0
7736,B4,508.0,0.25,95,108.0
7737,A1,508.0,0.25,63,108.0
7738,G#2,508.0,0.25,74,108.0
7739,F#2,508.0,0.25,74,108.0
7740,E-3,508.0,0.25,74,108.0
7741,D5,508.25,0.25,95,108.0
7742,B1,508.25,0.25,79,108.0
7743,G#2,508.25,0.25,74,108.0
7744,F#2,508.25,0.25,74,108.0
7745,E-6,508.25,0.25,74,108.0
7746,E5,508.5,0.25,95,108.0
7747,G1,508.5,0.25,63,108.0
7748,E4,508.5,0.75,47,108.0
7749,A3,508.5,0.75,47,108.0
7750,F#3,508.5,0.75,47,108.0
7751,F#2,508.5,0.75,47,108.0
7752,G#2,508.5,0.25,79,108.0
7753,B1,508.5,0.25,79,108.0
7754,F#5,508.75,0.25,95,108.0
7755,A1,508.75,0.25,47,108.0
7756,G#2,508.75,0.25,63,108.0
7757,E-5,508.75,0.25,63,108.0
7758,E-6,508.75,0.25,63,108.0
7759,D5,509.0,0.25,95,108.0
7760,B1,509.0,0.25,63,108.0
7761,F#4,509.0,0.5,95,108.0
7762,D4,509.0,0.5,95,108.0
7763,B3,509.0,0.5,95,108.0
7764,G#2,509.0,0.25,76,108.0
7765,E-6,509.0,0.25,76,108.0
7766,F#2,509.0,0.25,76,108.0
7767,E-3,509.0,0.25,76,108.0
7768,B1,509.0,0.25,76,108.0
7769,E5,509.25,0.25,95,108.0
7770,A1,509.25,0.25,63,108.0
7771,E4,509.25,0.25,47,108.0
7772,A3,509.25,0.25,47,108.0
7773,F#3,509.25,0.25,47,108.0
7774,F#2,509.25,0.25,47,108.0
7775,G#2,509.25,0.25,83,108.0
7776,E-6,509.25,0.25,83,108.0
7777,F#2,509.25,0.25,83,108.0
7778,B1,509.25,0.25,83,108.0
7779,F#5,509.5,0.25,95,108.0
7780,B1,509.5,0.25,79,108.0
7781,E5,509.5,4.0,95,108.0
7782,E4,509.5,4.0,95,108.0
7783,G#2,509.5,0.25,63,108.0
7784,E-6,509.5,0.25,63,108.0
7785,F#2,509.5,0.25,63,108.0
7786,E-5,509.5,0.25,63,108.0
7787,A5,509.75,0.25,95,108.0
7788,A1,509.75,0.25,63,108.0
7789,E4,509.75,0.25,47,108.0
7790,A3,509.75,0.25,47,108.0
7791,F#3,509.75,0.25,47,108.0
7792,F#2,509.75,0.25,47,108.0
7793,G#2,509.75,0.25,76,108.0
7794,E-6,509.75,0.25,76,108.0
7795,F#2,509.75,0.25,76,108.0
7796,E-5,509.75,0.25,76,108.0
7797,B1,509.75,0.25,76,108.0
7798,B5,510.0,0.5,95,108.0
7799,B1,510.0,1.0,95,108.0
7800,F#4,510.0,0.5,47,108.0
7801,D4,510.0,0.5,47,108.0
7802,G3,510.0,0.5,47,108.0
7803,E3,510.0,0.5,47,108.0
7804,E2,510.0,0.5,47,108.0
7805,B1,510.0,4.0,95,108.0
7806,A3,510.0,4.0,95,108.0
7807,E4,510.5,4.0,95,108.0
7808,B3,510.5,4.0,95,108.0
7809,G#3,510.5,4.0,95,108.0
7810,F#4,510.75,0.25,47,108.0
7811,D4,510.75,0.25,47,108.0
7812,G3,510.75,0.25,47,108.0
7813,E3,510.75,0.25,47,108.0
7814,E2,510.75,0.25,47,108.0
7815,F#4,511.0,1.5,95,108.0
7816,D4,511.0,1.5,95,108.0
7817,B3,511.0,1.5,95,108.0
7818,F#4,511.5,1.0,47,108.0
7819,D4,511.5,1.0,47,108.0
7820,G3,511.5,1.0,47,108.0
7821,E3,511.5,1.0,47,108.0
7822,E2,511.5,1.0,47,108.0
7823,F#4,512.5,0.75,47,108.0
7824,D4,512.5,0.75,47,108.0
7825,G3,512.5,0.75,47,108.0
7826,E3,512.5,0.75,47,108.0
7827,E2,512.5,0.75,47,108.0
7828,F#4,512.5,2.5,95,108.0
7829,D4,512.5,2.5,95,108.0
7830,B3,512.5,2.5,95,108.0
7831,F#4,513.25,0.25,47,108.0
7832,D4,513.25,0.25,47,108.0
7833,G3,513.25,0.25,47,108.0
7834,E3,513.25,0.25,47,108.0
7835,E2,513.25,0.25,47,108.0
7836,G5,513.5,1.5,95,108.0
7837,G4,513.5,1.5,95,108.0
7838,F#4,513.75,0.25,47,108.0
7839,D4,513.75,0.25,47,108.0
7840,G3,513.75,0.25,47,108.0
7841,E3,513.75,0.25,47,108.0
7842,E2,513.75,0.25,47,108.0
7843,F#4,514.0,0.5,47,108.0
7844,D4,514.0,0.5,47,108.0
7845,G3,514.0,0.5,47,108.0
7846,E3,514.0,0.5,47,108.0
7847,E2,514.0,0.5,47,108.0
7848,F#4,514.75,0.25,47,108.0
7849,D4,514.75,0.25,47,108.0
7850,G3,514.75,0.25,47,108.0
7851,E3,514.75,0.25,47,108.0
7852,E2,514.75,0.25,47,108.0
7853,F#5,515.0,1.5,95,108.0
7854,F#4,515.0,1.5,95,108.0
7855,F#4,515.0,1.5,95,108.0
7856,E-4,515.0,1.5,95,108.0
7857,C#4,515.0,1.5,95,108.0
7858,B3,515.0,1.5,95,108.0
7859,F#3,515.0,1.5,95,108.0
7860,G4,515.0,1.5,95,108.0
7861,D4,515.0,1.5,95,108.0
7862,B3,515.0,1.5,95,108.0
7863,G3,515.0,1.5,95,108.0
7864,F#4,515.5,1.0,47,108.0
7865,D4,515.5,1.0,47,108.0
7866,G3,515.5,1.0,47,108.0
7867,E3,515.5,1.0,47,108.0
7868,E2,515.5,1.0,47,108.0
7869,E4,515.5,4.0,95,108.0
7870,B3,515.5,4.0,95,108.0
7871,G3,515.5,4.0,95,108.0
7872,D5,516.5,1.0,95,108.0
7873,D4,516.5,1.0,95,108.0
7874,F#4,516.5,0.75,47,108.0
7875,D4,516.5,0.75,47,108.0
7876,G3,516.5,0.75,47,108.0
7877,E3,516.5,0.75,47,108.0
7878,E2,516.5,0.75,47,108.0
7879,E4,516.5,2.0,95,108.0
7880,B3,516.5,2.0,95,108.0
7881,F#3,516.5,2.0,95,108.0
7882,E3,516.5,2.0,95,108.0
7883,D4,516.5,1.5,95,108.0
7884,A3,516.5,1.5,95,108.0
7885,F#3,516.5,1.5,95,108.0
7886,F#4,517.25,0.25,47,108.0
7887,D4,517.25,0.25,47,108.0
7888,G3,517.25,0.25,47,108.0
7889,E3,517.25,0.25,47,108.0
7890,E2,517.25,0.25,47,108.0
7891,F#4,517.75,0.25,47,108.0
7892,D4,517.75,0.25,47,108.0
7893,G3,517.75,0.25,47,108.0
7894,E3,517.75,0.25,47,108.0
7895,E2,517.75,0.25,47,108.0
7896,E4,518.0,0.5,47,108.0
7897,B3,518.0,0.5,47,108.0
7898,A3,518.0,0.5,47,108.0
7899,E3,518.0,0.5,47,108.0
7900,A2,518.0,0.5,47,108.0
7901,A4,518.0,1.0,95,108.0
7902,E4,518.0,1.0,95,108.0
7903,C4,518.0,1.0,95,108.0
7904,F#4,518.5,0.5,95,108.0
7905,D4,518.5,0.5,95,108.0
7906,B3,518.5,0.5,95,108.0
7907,D3,518.5,0.5,95,108.0
7908,E4,518.5,4.0,95,108.0
7909,B3,518.5,4.0,95,108.0
7910,G#3,518.5,4.0,95,108.0
7911,E4,518.75,0.25,47,108.0
7912,B3,518.75,0.25,47,108.0
7913,A3,518.75,0.25,47,108.0
7914,E3,518.75,0.25,47,108.0
7915,A2,518.75,0.25,47,108.0
7916,D5,519.5,2.0,95,108.0
7917,D4,519.5,2.0,95,108.0
7918,E4,519.5,1.0,47,108.0
7919,B3,519.5,1.0,47,108.0
7920,A3,519.5,1.0,47,108.0
7921,E3,519.5,1.0,47,108.0
7922,A2,519.5,1.0,47,108.0
7923,E4,519.5,4.0,95,108.0
7924,C#4,519.5,4.0,95,108.0
7925,A3,519.5,4.0,95,108.0
7926,A4,519.5,0.5,95,108.0
7927,E4,519.5,0.5,95,108.0
7928,C4,519.5,0.5,95,108.0
7929,D4,520.0,3.5,95,108.0
7930,B3,520.0,3.5,95,108.0
7931,G3,520.0,3.5,95,108.0
7932,E4,520.5,0.75,47,108.0
7933,B3,520.5,0.75,47,108.0
7934,A3,520.5,0.75,47,108.0
7935,E3,520.5,0.75,47,108.0
7936,A2,520.5,0.75,47,108.0
7937,F#4,520.5,1.5,95,108.0
7938,D4,520.5,1.5,95,108.0
7939,B3,520.5,1.5,95,108.0
7940,D3,520.5,1.5,95,108.0
7941,E4,521.25,0.25,47,108.0
7942,B3,521.25,0.25,47,108.0
7943,A3,521.25,0.25,47,108.0
7944,E3,521.25,0.25,47,108.0
7945,A2,521.25,0.25,47,108.0
7946,E4,521.5,0.5,95,108.0
7947,E3,521.5,0.5,95,108.0
7948,E4,521.75,0.25,47,108.0
7949,B3,521.75,0.25,47,108.0
7950,A3,521.75,0.25,47,108.0
7951,E3,521.75,0.25,47,108.0
7952,A2,521.75,0.25,47,108.0
7953,E4,522.0,0.5,95,108.0
7954,E3,522.0,0.5,95,108.0
7955,E4,522.0,0.5,47,108.0
7956,B3,522.0,0.5,47,108.0
7957,A3,522.0,0.5,47,108.0
7958,E3,522.0,0.5,47,108.0
7959,A2,522.0,0.5,47,108.0
7960,E4,522.0,2.5,95,108.0
7961,C#4,522.0,2.5,95,108.0
7962,A3,522.0,2.5,95,108.0
7963,E3,522.0,2.5,95,108.0
7964,C#3,522.0,2.5,95,108.0
7965,D4,522.5,0.5,95,108.0
7966,D3,522.5,0.5,95,108.0
7967,F#4,522.5,4.0,95,108.0
7968,D4,522.5,4.0,95,108.0
7969,A3,522.5,4.0,95,108.0
7970,E4,522.75,0.25,47,108.0
7971,B3,522.75,0.25,47,108.0
7972,A3,522.75,0.25,47,108.0
7973,E3,522.75,0.25,47,108.0
7974,A2,522.75,0.25,47,108.0
7975,E4,523.0,0.5,95,108.0
7976,E3,523.0,0.5,95,108.0
7977,E4,523.5,1.0,47,108.0
7978,B3,523.5,1.0,47,108.0
7979,A3,523.5,1.0,47,108.0
7980,E3,523.5,1.0,47,108.0
7981,A2,523.5,1.0,47,108.0
7982,B5,523.5,1.0,95,108.0
7983,F#5,523.5,1.0,95,108.0
7984,B4,523.5,1.0,95,108.0
7985,E4,524.0,0.5,95,108.0
7986,C#4,524.0,0.5,95,108.0
7987,A3,524.0,0.5,95,108.0
7988,E3,524.5,0.125,63,108.0
7989,E4,524.5,0.75,47,108.0
7990,B3,524.5,0.75,47,108.0
7991,A3,524.5,0.75,47,108.0
7992,E3,524.5,0.75,47,108.0
7993,A2,524.5,0.75,47,108.0
7994,F#4,524.5,1.5,95,108.0
7995,E-4,524.5,1.5,95,108.0
7996,C#4,524.5,1.5,95,108.0
7997,B3,524.5,1.5,95,108.0
7998,F#3,524.5,1.5,95,108.0
7999,A3,524.625,0.125,79,108.0
8000,B3,524.75,0.125,95,108.0
8001,E4,524.875,0.125,95,108.0
8002,C#4,525.0,0.125,95,108.0
8003,E4,525.0,1.5,95,108.0
8004,E3,525.0,1.5,95,108.0
8005,B3,525.125,0.125,95,108.0
8006,A3,525.25,0.125,79,108.0
8007,E4,525.25,0.25,47,108.0
8008,B3,525.25,0.25,47,108.0
8009,A3,525.25,0.25,47,108.0
8010,E3,525.25,0.25,47,108.0
8011,A2,525.25,0.25,47,108.0
8012,E3,525.375,0.25,63,108.0
8013,E4,525.75,0.25,47,108.0
8014,B3,525.75,0.25,47,108.0
8015,A3,525.75,0.25,47,108.0
8016,E3,525.75,0.25,47,108.0
8017,A2,525.75,0.25,47,108.0
8018,E-4,526.0,0.5,47,108.0
8019,B3,526.0,0.5,47,108.0
8020,E-3,526.0,0.5,47,108.0
8021,B2,526.0,0.5,47,108.0
8022,E4,526.0,2.0,95,108.0
8023,B3,526.0,2.0,95,108.0
8024,F#3,526.0,2.0,95,108.0
8025,E3,526.0,2.0,95,108.0
8026,A3,526.125,0.125,63,108.0
8027,B3,526.25,0.125,79,108.0
8028,E4,526.375,0.125,95,108.0
8029,A4,526.5,0.125,95,108.0
8030,A4,526.5,2.5,95,108.0
8031,A3,526.5,2.5,95,108.0
8032,B4,526.625,0.125,95,108.0
8033,E5,526.75,0.125,95,108.0
8034,E-4,526.75,0.25,47,108.0
8035,B3,526.75,0.25,47,108.0
8036,E-3,526.75,0.25,47,108.0
8037,B2,526.75,0.25,47,108.0
8038,B4,526.875,0.125,95,108.0
8039,A4,527.0,0.125,95,108.0
8040,E4,527.125,0.125,95,108.0
8041,D4,527.25,0.125,95,108.0
8042,B3,527.375,0.125,95,108.0
8043,A3,527.5,0.125,79,108.0
8044,E4,527.5,1.0,47,108.0
8045,B3,527.5,1.0,47,108.0
8046,A3,527.5,1.0,47,108.0
8047,E3,527.5,1.0,47,108.0
8048,A2,527.5,1.0,47,108.0
8049,A3,527.625,0.125,63,108.0
8050,C#5,528.0,1.5,95,108.0
8051,F#4,528.0,0.5,95,108.0
8052,D4,528.0,0.5,95,108.0
8053,B3,528.0,0.5,95,108.0
8054,D3,528.0,0.5,95,108.0
8055,E4,528.5,1.0,47,108.0
8056,B3,528.5,1.0,47,108.0
8057,A3,528.5,1.0,47,108.0
8058,E3,528.5,1.0,47,108.0
8059,A2,528.5,1.0,47,108.0
8060,E5,529.5,1.0,95,108.0
8061,F#4,529.5,0.5,47,108.0
8062,C#4,529.5,0.5,47,108.0
8063,B3,529.5,0.5,47,108.0
8064,G3,529.5,0.5,47,108.0
8065,G2,529.5,0.5,47,108.0
8066,F#4,530.0,0.5,47,108.0
8067,C#4,530.0,0.5,47,108.0
8068,B3,530.0,0.5,47,108.0
8069,G3,530.0,0.5,47,108.0
8070,G2,530.0,0.5,47,108.0
8071,F#4,530.0,1.5,95,108.0
8072,D4,530.0,1.5,95,108.0
8073,B3,530.0,1.5,95,108.0
8074,D3,530.0,1.5,95,108.0
8075,E5,530.5,1.0,95,108.0
8076,F#4,530.5,4.0,95,108.0
8077,D4,530.5,4.0,95,108.0
8078,A3,530.5,4.0,95,108.0
8079,F#4,531.0,0.25,47,108.0
8080,C#4,531.0,0.25,47,108.0
8081,B3,531.0,0.25,47,108.0
8082,G3,531.0,0.25,47,108.0
8083,G2,531.0,0.25,47,108.0
8084,C#5,531.5,0.5,95,108.0
8085,E4,531.5,1.0,47,108.0
8086,B3,531.5,1.0,47,108.0
8087,A3,531.5,1.0,47,108.0
8088,E3,531.5,1.0,47,108.0
8089,A2,531.5,1.0,47,108.0
8090,E4,531.5,2.5,95,108.0
8091,C#4,531.5,2.5,95,108.0
8092,A3,531.5,2.5,95,108.0
8093,E3,531.5,2.5,95,108.0
8094,C#3,531.5,2.5,95,108.0
8095,C#5,532.0,0.5,95,108.0
8096,C#5,532.5,1.0,63,108.0
8097,E4,532.5,1.0,47,108.0
8098,B3,532.5,1.0,47,108.0
8099,A3,532.5,1.0,47,108.0
8100,E3,532.5,1.0,47,108.0
8101,A2,532.5,1.0,47,108.0
8102,A4,533.0,4.0,95,108.0
8103,A3,533.0,4.0,95,108.0
8104,C#5,533.5,2.5,95,108.0
8105,E4,533.5,0.5,47,108.0
8106,B3,533.5,0.5,47,108.0
8107,A3,533.5,0.5,47,108.0
8108,E3,533.5,0.5,47,108.0
8109,A2,533.5,0.5,47,108.0
8110,E-4,534.0,0.5,47,108.0
8111,B3,534.0,0.5,47,108.0
8112,E-3,534.0,0.5,47,108.0
8113,B2,534.0,0.5,47,108.0
8114,F#4,534.0,1.5,95,108.0
8115,E-4,534.0,1.5,95,108.0
8116,C#4,534.0,1.5,95,108.0
8117,B3,534.0,1.5,95,108.0
8118,F#3,534.0,1.5,95,108.0
8119,E4,534.5,4.0,95,108.0
8120,C4,534.5,4.0,95,108.0
8121,G3,534.5,4.0,95,108.0
8122,E-4,534.75,0.25,47,108.0
8123,B3,534.75,0.25,47,108.0
8124,E-3,534.75,0.25,47,108.0
8125,B2,534.75,0.25,47,108.0
8126,E4,535.5,1.0,47,108.0
8127,B3,535.5,1.0,47,108.0
8128,A3,535.5,1.0,47,108.0
8129,E3,535.5,1.0,47,108.0
8130,A2,535.5,1.0,47,108.0
8131,E4,535.5,2.0,95,108.0
8132,B3,535.5,2.0,95,108.0
8133,F#3,535.5,2.0,95,108.0
8134,E3,535.5,2.0,95,108.0
8135,C#5,536.0,0.5,95,108.0
8136,E5,536.5,0.5,95,108.0
8137,E4,536.5,1.0,47,108.0
8138,B3,536.5,1.0,47,108.0
8139,A3,536.5,1.0,47,108.0
8140,E3,536.5,1.0,47,108.0
8141,A2,536.5,1.0,47,108.0
8142,C#4,537.0,1.5,95,108.0
8143,F#5,537.0,0.5,95,108.0
8144,A5,537.5,1.5,95,108.0
8145,F#4,537.5,0.5,47,108.0
8146,C#4,537.5,0.5,47,108.0
8147,B3,537.5,0.5,47,108.0
8148,G3,537.5,0.5,47,108.0
8149,G2,537.5,0.5,47,108.0
8150,F#4,537.5,0.5,95,108.0
8151,D4,537.5,0.5,95,108.0
8152,B3,537.5,0.5,95,108.0
8153,D3,537.5,0.5,95,108.0
8154,F#4,538.0,0.5,47,108.0
8155,C#4,538.0,0.5,47,108.0
8156,B3,538.0,0.5,47,108.0
8157,G3,538.0,0.5,47,108.0
8158,G2,538.0,0.5,47,108.0
8159,E4,538.5,1.0,95,108.0
8160,C#6,539.0,0.5,95,108.0
8161,F#4,539.0,0.25,47,108.0
8162,C#4,539.0,0.25,47,108.0
8163,B3,539.0,0.25,47,108.0
8164,G3,539.0,0.25,47,108.0
8165,G2,539.0,0.25,47,108.0
8166,E4,539.5,1.0,95,108.0
8167,D6,539.5,0.5,95,108.0
8168,E4,539.5,1.0,47,108.0
8169,B3,539.5,1.0,47,108.0
8170,A3,539.5,1.0,47,108.0
8171,E3,539.5,1.0,47,108.0
8172,A2,539.5,1.0,47,108.0
8173,F#4,539.5,1.5,95,108.0
8174,D4,539.5,1.5,95,108.0
8175,B3,539.5,1.5,95,108.0
8176,D3,539.5,1.5,95,108.0
8177,C#6,540.0,0.5,95,108.0
8178,C#4,540.5,0.5,95,108.0
8179,B5,540.5,3.5,95,108.0
8180,E4,540.5,1.0,47,108.0
8181,B3,540.5,1.0,47,108.0
8182,A3,540.5,1.0,47,108.0
8183,E3,540.5,1.0,47,108.0
8184,A2,540.5,1.0,47,108.0
8185,C#4,541.0,0.5,95,108.0
8186,F#4,541.0,2.5,95,108.0
8187,D4,541.0,2.5,95,108.0
8188,B3,541.0,2.5,95,108.0
8189,D3,541.0,2.5,95,108.0
8190,C#4,541.5,1.0,63,108.0
8191,E4,541.5,0.5,47,108.0
8192,B3,541.5,0.5,47,108.0
8193,A3,541.5,0.5,47,108.0
8194,E3,541.5,0.5,47,108.0
8195,A2,541.5,0.5,47,108.0
8196,E-4,542.0,0.5,47,108.0
8197,B3,542.0,0.5,47,108.0
8198,E-3,542.0,0.5,47,108.0
8199,B2,542.0,0.5,47,108.0
8200,C#4,542.5,2.5,95,108.0
8201,E4,542.5,4.0,95,108.0
8202,C4,542.5,4.0,95,108.0
8203,G3,542.5,4.0,95,108.0
8204,E-4,542.75,0.25,47,108.0
8205,B3,542.75,0.25,47,108.0
8206,E-3,542.75,0.25,47,108.0
8207,B2,542.75,0.25,47,108.0
8208,E4,543.5,1.0,47,108.0
8209,B3,543.5,1.0,47,108.0
8210,A3,543.5,1.0,47,108.0
8211,E3,543.5,1.0,47,108.0
8212,A2,543.5,1.0,47,108.0
8213,E4,543.5,1.5,95,108.0
8214,D4,543.5,1.5,95,108.0
8215,B3,543.5,1.5,95,108.0
8216,G3,543.5,1.5,95,108.0
8217,E5,544.0,1.5,95,108.0
8218,E4,544.5,1.0,47,108.0
8219,B3,544.5,1.0,47,108.0
8220,A3,544.5,1.0,47,108.0
8221,E3,544.5,1.0,47,108.0
8222,A2,544.5,1.0,47,108.0
8223,C#4,545.0,0.5,95,108.0
8224,F#4,545.0,1.5,95,108.0
8225,D4,545.0,1.5,95,108.0
8226,A3,545.0,1.5,95,108.0
8227,F#3,545.0,1.5,95,108.0
8228,E4,545.5,0.5,95,108.0
8229,B4,545.5,1.0,95,108.0
8230,F#4,545.5,0.5,47,108.0
8231,C#4,545.5,0.5,47,108.0
8232,B3,545.5,0.5,47,108.0
8233,G3,545.5,0.5,47,108.0
8234,G2,545.5,0.5,47,108.0
8235,F#4,546.0,0.5,95,108.0
8236,F#4,546.0,0.5,47,108.0
8237,C#4,546.0,0.5,47,108.0
8238,B3,546.0,0.5,47,108.0
8239,G3,546.0,0.5,47,108.0
8240,G2,546.0,0.5,47,108.0
8241,A4,546.5,1.5,95,108.0
8242,C#5,546.5,0.5,95,108.0
8243,G4,546.5,1.0,95,108.0
8244,E4,546.5,1.0,95,108.0
8245,C4,546.5,1.0,95,108.0
8246,D4,546.5,4.0,95,108.0
8247,A3,546.5,4.0,95,108.0
8248,F#3,546.5,4.0,95,108.0
8249,B4,547.0,0.5,95,108.0
8250,F#4,547.0,0.25,47,108.0
8251,C#4,547.0,0.25,47,108.0
8252,B3,547.0,0.25,47,108.0
8253,G3,547.0,0.25,47,108.0
8254,G2,547.0,0.25,47,108.0
8255,F#5,547.5,0.5,95,108.0
8256,F#4,547.5,1.0,47,108.0
8257,C#4,547.5,1.0,47,108.0
8258,B3,547.5,1.0,47,108.0
8259,G3,547.5,1.0,47,108.0
8260,G2,547.5,1.0,47,108.0
8261,C#5,548.0,0.5,95,108.0
8262,F#5,548.0,4.0,95,108.0
8263,G4,548.0,0.5,95,108.0
8264,E4,548.0,0.5,95,108.0
8265,C4,548.0,0.5,95,108.0
8266,D5,548.5,0.5,95,108.0
8267,F#4,548.5,1.0,47,108.0
8268,C#4,548.5,1.0,47,108.0
8269,B3,548.5,1.0,47,108.0
8270,G3,548.5,1.0,47,108.0
8271,G2,548.5,1.0,47,108.0
8272,D4,548.5,1.0,95,108.0
8273,B3,548.5,1.0,95,108.0
8274,G3,548.5,1.0,95,108.0
8275,C#5,549.0,0.5,95,108.0
8276,B4,549.5,3.5,95,108.0
8277,F#4,549.5,0.5,47,108.0
8278,C#4,549.5,0.5,47,108.0
8279,B3,549.5,0.5,47,108.0
8280,G3,549.5,0.5,47,108.0
8281,G2,549.5,0.5,47,108.0
8282,A4,549.5,0.5,95,108.0
8283,A3,549.5,0.5,95,108.0
8284,G4,550.0,1.5,47,108.0
8285,D4,550.0,1.5,47,108.0
8286,B3,550.0,1.5,47,108.0
8287,B4,550.0,0.25,95,108.0
8288,B3,550.0,0.25,95,108.0
8289,D5,550.25,0.25,95,108.0
8290,D4,550.25,0.25,95,108.0
8291,E5,550.5,0.25,95,108.0
8292,E4,550.5,0.25,95,108.0
8293,F#5,550.75,0.25,95,108.0
8294,F#4,550.75,0.25,95,108.0
8295,D5,551.0,0.25,95,108.0
8296,D4,551.0,0.25,95,108.0
8297,E5,551.25,0.25,95,108.0
8298,E4,551.25,0.25,95,108.0
8299,F#4,551.5,1.5,47,108.0
8300,D4,551.5,1.5,47,108.0
8301,A3,551.5,1.5,47,108.0
8302,F#5,551.5,0.25,95,108.0
8303,F#4,551.5,0.25,95,108.0
8304,A5,551.75,0.25,95,108.0
8305,A4,551.75,0.25,95,108.0
8306,D5,552.0,1.5,63,108.0
8307,D4,552.0,1.5,63,108.0
8308,F#4,552.0,1.0,95,108.0
8309,B3,552.0,1.0,95,108.0
8310,F#3,552.0,1.0,95,108.0
8311,G4,553.0,1.0,47,108.0
8312,E4,553.0,1.0,47,108.0
8313,C4,553.0,1.0,47,108.0
8314,A4,553.5,1.5,63,108.0
8315,A3,553.5,1.5,63,108.0
8316,G4,554.5,0.5,47,108.0
8317,E4,554.5,0.5,47,108.0
8318,C4,554.5,0.5,47,108.0
8319,D4,554.5,4.0,95,108.0
8320,A3,554.5,4.0,95,108.0
8321,F#3,554.5,4.0,95,108.0
8322,D4,555.0,3.5,47,108.0
8323,B3,555.0,3.5,47,108.0
8324,G4,555.0,1.0,63,108.0
8325,G3,555.0,1.0,63,108.0
8326,G4,556.5,0.5,63,108.0
8327,G3,556.5,0.5,63,108.0
8328,A4,557.0,3.5,63,108.0
8329,A3,557.0,3.5,63,108.0
8330,C#4,558.5,1.0,63,108.0
8331,B3,558.5,1.0,63,108.0
8332,F#3,558.5,1.0,63,108.0
8333,E-4,558.5,4.0,95,108.0
8334,B3,558.5,4.0,95,108.0
8335,F#3,558.5,4.0,95,108.0
8336,B4,560.5,1.0,79,108.0
8337,F#4,560.5,1.0,79,108.0
8338,B3,560.5,1.0,79,108.0
8339,G4,561.0,0.25,95,108.0
8340,F#4,561.25,0.25,95,108.0
8341,G4,561.5,0.25,95,108.0
8342,E4,561.75,0.75,95,108.0
8343,G4,562.5,0.25,95,108.0
8344,F#4,562.75,0.25,95,108.0
8345,G4,563.0,0.25,95,108.0
8346,D4,563.25,0.75,95,108.0
8347,A4,564.0,0.25,95,108.0
8348,G4,564.25,0.25,95,108.0
8349,A4,564.5,0.25,95,108.0
8350,E4,564.75,0.25,95,108.0
8351,E4,565.0,0.5,95,108.0
8352,G3,565.5,1.0,95,108.0
8353,A3,566.5,0.5,95,108.0
8354,E-4,566.5,4.0,95,108.0
8355,B3,566.5,4.0,95,108.0
8356,F#3,566.5,4.0,95,108.0
8357,B3,567.0,0.25,95,108.0
8358,D4,567.25,0.25,95,108.0
8359,E4,567.5,0.25,95,108.0
8360,F#4,567.75,0.25,95,108.0
8361,D4,568.0,0.25,95,108.0
8362,E4,568.25,0.25,95,108.0
8363,F#4,568.5,0.25,95,108.0
8364,A4,568.75,0.25,95,108.0
8365,B4,569.0,1.0,95,108.0
8366,C#4,570.5,4.0,95,108.0
8367,A3,570.5,4.0,95,108.0
8368,E3,570.5,4.0,95,108.0
8369,C#4,578.5,4.0,95,108.0
8370,A3,578.5,4.0,95,108.0
8371,E3,578.5,4.0,95,108.0
8372,D4,582.5,4.0,95,108.0
8373,B3,582.5,4.0,95,108.0
8374,G3,582.5,4.0,95,108.0
8375,D4,590.5,4.0,95,108.0
8376,B3,590.5,4.0,95,108.0
8377,G3,590.5,4.0,95,108.0
8378,C#4,594.5,4.0,95,108.0
8379,A3,594.5,4.0,95,108.0
8380,E3,594.5,4.0,95,108.0
8381,C#4,602.5,4.0,95,108.0
8382,A3,602.5,4.0,95,108.0
8383,E3,602.5,4.0,95,108.0
8384,F#4,606.5,4.0,95,108.0
8385,E-4,606.5,1.5,95,108.0
8386,B3,606.5,1.5,95,108.0
8387,F#3,606.5,1.5,95,108.0
8388,E4,608.0,2.0,95,108.0
8389,B3,608.0,2.0,95,108.0
8390,F#3,608.0,2.0,95,108.0
8391,D4,610.0,0.5,95,108.0
8392,B3,610.0,0.5,95,108.0
8393,F#3,610.0,0.5,95,108.0
8394,F#4,612.0,4.0,95,108.0
8395,D4,612.0,1.5,95,108.0
8396,B3,612.0,1.5,95,108.0
8397,F#3,612.0,1.5,95,108.0
8398,C#4,613.5,2.5,95,108.0
8399,A3,613.5,2.5,95,108.0
8400,E3,613.5,2.5,95,108.0
8401,F#4,616.0,4.0,95,108.0
8402,E-4,616.0,1.5,95,108.0
8403,B3,616.0,1.5,95,108.0
8404,F#3,616.0,1.5,95,108.0
8405,E4,617.5,2.0,95,108.0
8406,B3,617.5,2.0,95,108.0
8407,F#3,617.5,2.0,95,108.0
8408,D4,619.5,0.5,95,108.0
8409,B3,619.5,0.5,95,108.0
8410,F#3,619.5,0.5,95,108.0
8411,F#4,621.5,4.0,95,108.0
8412,D4,621.5,1.5,95,108.0
8413,B3,621.5,1.5,95,108.0
8414,F#3,621.5,1.5,95,108.0
8415,C#4,623.0,2.5,95,108.0
8416,A3,623.0,2.5,95,108.0
8417,E3,623.0,2.5,95,108.0
8418,F#4,625.5,4.0,95,108.0
8419,E-4,625.5,1.5,95,108.0
8420,B3,625.5,1.5,95,108.0
8421,F#3,625.5,1.5,95,108.0
8422,E4,627.0,2.0,95,108.0
8423,B3,627.0,2.0,95,108.0
8424,F#3,627.0,2.0,95,108.0
8425,D4,629.0,0.5,95,108.0
8426,B3,629.0,0.5,95,108.0
8427,F#3,629.0,0.5,95,108.0
8428,F#4,631.0,4.0,95,108.0
8429,D4,631.0,1.5,95,108.0
8430,B3,631.0,1.5,95,108.0
8431,F#3,631.0,1.5,95,108.0
8432,D4,632.5,2.5,95,108.0
8433,B3,632.5,2.5,95,108.0
8434,F#3,632.5,2.5,95,108.0
8435,G5,635.0,0.25,95,108.0
8436,F#5,635.25,0.25,95,108.0
8437,G5,635.5,0.25,95,108.0
8438,E5,635.75,0.75,95,108.0
8439,G5,636.5,0.25,95,108.0
8440,F#5,636.75,0.25,95,108.0
8441,G5,637.0,0.25,95,108.0
8442,D5,637.25,0.75,95,108.0
8443,A5,638.0,0.25,95,108.0
8444,G5,638.25,0.25,95,108.0
8445,A5,638.5,0.25,95,108.0
8446,E5,638.75,0.25,95,108.0
8447,E5,639.0,0.5,95,108.0
8448,G4,639.5,1.0,95,108.0
8449,A4,640.5,0.5,95,108.0
8450,B4,641.0,0.25,95,108.0
8451,D5,641.25,0.25,95,108.0
8452,E5,641.5,0.25,95,108.0
8453,F#5,641.75,0.25,95,108.0
8454,D5,642.0,0.25,95,108.0
8455,E5,642.25,0.25,95,108.0
8456,F#5,642.5,0.25,95,108.0
8457,A5,642.75,0.25,95,108.0
8458,B4,643.0,1.0,95,108.0
8459,F#4,643.0,1.0,95,108.0
8460,B3,643.0,1.0,95,108.0
