,note_name,start_time,duration,velocity,tempo
0,B4,0.0,4.0,45,140.0
1,G2,0.0,0.25,55,140.0
2,B4,0.0,4.0,50,140.0
3,B4,0.0,0.125,50,140.0
4,B-2,0.0,1.0,64,140.0
5,C2,0.0,0.25,110,140.0
6,B4,0.125,0.125,50,140.0
7,G2,0.25,0.25,55,140.0
8,B4,0.25,0.125,50,140.0
9,C2,0.25,0.25,110,140.0
10,B4,0.375,0.125,50,140.0
11,B4,0.5,0.125,50,140.0
12,B4,0.625,0.125,50,140.0
13,B4,0.75,0.125,50,140.0
14,B4,0.875,0.125,50,140.0
15,B4,1.0,0.125,50,140.0
16,B-2,1.0,1.0,64,140.0
17,B4,1.125,0.125,50,140.0
18,B4,1.25,0.125,50,140.0
19,B4,1.375,0.125,50,140.0
20,G2,1.5,0.25,55,140.0
21,B4,1.5,0.125,50,140.0
22,C2,1.5,0.25,110,140.0
23,B4,1.625,0.125,50,140.0
24,G2,1.75,0.25,55,140.0
25,B4,1.75,0.125,50,140.0
26,C2,1.75,0.25,110,140.0
27,B4,1.875,0.125,50,140.0
28,B4,2.0,0.125,50,140.0
29,B-2,2.0,1.0,64,140.0
30,B4,2.125,0.125,50,140.0
31,B4,2.25,0.125,50,140.0
32,B4,2.375,0.125,50,140.0
33,B4,2.5,0.125,50,140.0
34,B4,2.625,0.125,50,140.0
35,B4,2.75,0.125,50,140.0
36,B4,2.875,0.125,50,140.0
37,B4,3.0,0.125,50,140.0
38,B-2,3.0,1.0,77,140.0
39,D2,3.0,1.0,77,140.0
40,B4,3.125,0.125,50,140.0
41,B4,3.25,0.125,50,140.0
42,B4,3.375,0.125,50,140.0
43,B4,3.5,0.125,50,140.0
44,B4,3.625,0.125,50,140.0
45,B4,3.75,0.125,50,140.0
46,B4,3.875,0.125,50,140.0
47,E5,3.875,0.125,50,140.0
48,F#5,4.0,0.5,45,140.0
49,G2,4.0,0.25,55,140.0
50,F#5,4.0,0.5,50,140.0
51,F#5,4.0,0.5,50,140.0
52,B-2,4.0,1.0,64,140.0
53,C2,4.0,0.5,110,140.0
54,G2,4.25,0.25,55,140.0
55,F#5,4.5,0.5,45,140.0
56,F#5,4.5,0.5,50,140.0
57,F#5,4.5,0.5,50,140.0
58,C2,4.5,0.5,110,140.0
59,C#5,5.0,0.75,45,140.0
60,C#5,5.0,0.75,50,140.0
61,C#5,5.0,0.75,50,140.0
62,B-2,5.0,1.0,64,140.0
63,D2,5.0,0.75,90,140.0
64,G2,5.5,0.25,55,140.0
65,B4,5.75,0.25,45,140.0
66,G2,5.75,0.25,55,140.0
67,B4,5.75,0.25,50,140.0
68,B4,5.75,0.25,50,140.0
69,C2,5.75,0.25,110,140.0
70,A5,6.0,1.25,45,140.0
71,A5,6.0,1.25,50,140.0
72,A5,6.0,1.25,50,140.0
73,B-2,6.0,1.0,64,140.0
74,C2,6.0,1.5,110,140.0
75,B-2,7.0,1.0,64,140.0
76,C6,7.25,0.25,45,140.0
77,C6,7.25,0.25,50,140.0
78,C6,7.25,0.25,50,140.0
79,D2,7.375,0.125,90,140.0
80,G5,7.5,0.5,45,140.0
81,G5,7.5,0.5,50,140.0
82,G5,7.5,0.5,50,140.0
83,D2,7.5,0.5,90,140.0
84,E5,8.0,0.25,45,140.0
85,G2,8.0,0.25,55,140.0
86,E5,8.0,0.25,50,140.0
87,E5,8.0,0.25,50,140.0
88,B-2,8.0,1.0,64,140.0
89,C2,8.0,0.25,110,140.0
90,A5,8.25,0.25,45,140.0
91,G2,8.25,0.25,55,140.0
92,A5,8.25,0.25,50,140.0
93,A5,8.25,0.25,50,140.0
94,C2,8.25,0.25,110,140.0
95,A5,8.5,3.5,45,140.0
96,A5,8.5,3.5,50,140.0
97,A5,8.5,0.625,50,140.0
98,D2,8.5,1.0,90,140.0
99,B-2,9.0,1.0,64,140.0
100,A5,9.125,0.125,50,140.0
101,A5,9.25,0.125,50,140.0
102,A5,9.375,0.125,50,140.0
103,G2,9.5,0.25,55,140.0
104,A5,9.5,0.125,50,140.0
105,C2,9.5,0.25,110,140.0
106,A5,9.625,0.125,50,140.0
107,G2,9.75,0.25,55,140.0
108,A5,9.75,0.125,50,140.0
109,C2,9.75,0.25,110,140.0
110,A5,9.875,0.125,50,140.0
111,A5,10.0,0.125,50,140.0
112,B-2,10.0,1.0,64,140.0
113,A5,10.125,0.125,50,140.0
114,A5,10.25,0.125,50,140.0
115,A5,10.375,0.125,50,140.0
116,A5,10.5,0.125,50,140.0
117,A5,10.625,0.125,50,140.0
118,A5,10.75,0.125,50,140.0
119,A5,10.875,0.125,50,140.0
120,A5,11.0,0.125,50,140.0
121,B-2,11.0,1.0,77,140.0
122,D2,11.0,1.0,77,140.0
123,A5,11.125,0.125,50,140.0
124,A5,11.25,0.125,50,140.0
125,A5,11.375,0.125,50,140.0
126,A5,11.5,0.125,50,140.0
127,A5,11.625,0.125,50,140.0
128,A5,11.75,0.125,50,140.0
129,A5,11.875,0.125,50,140.0
130,G2,12.0,0.25,55,140.0
131,B-2,12.0,1.0,64,140.0
132,C2,12.0,0.25,110,140.0
133,G2,12.25,0.25,55,140.0
134,C2,12.25,0.25,110,140.0
135,E5,12.5,0.25,45,140.0
136,E5,12.5,0.25,50,140.0
137,E5,12.5,0.25,50,140.0
138,A5,12.75,0.25,45,140.0
139,A5,12.75,0.25,50,140.0
140,A5,12.75,0.25,50,140.0
141,A5,13.0,2.5,45,140.0
142,A5,13.0,2.5,50,140.0
143,A5,13.0,0.125,50,140.0
144,B-2,13.0,1.0,64,140.0
145,A5,13.125,0.125,50,140.0
146,A5,13.25,0.125,50,140.0
147,A5,13.375,0.125,50,140.0
148,G2,13.5,0.25,55,140.0
149,A5,13.5,0.125,50,140.0
150,C2,13.5,0.25,110,140.0
151,A5,13.625,0.125,50,140.0
152,G2,13.75,0.25,55,140.0
153,A5,13.75,0.125,50,140.0
154,C2,13.75,0.25,110,140.0
155,A5,13.875,0.125,50,140.0
156,A5,14.0,0.125,50,140.0
157,B-2,14.0,1.0,64,140.0
158,A5,14.125,0.125,50,140.0
159,A5,14.25,0.125,50,140.0
160,A5,14.375,0.125,50,140.0
161,A5,14.5,0.125,50,140.0
162,A5,14.625,0.125,50,140.0
163,A5,14.75,0.125,50,140.0
164,A5,14.875,0.125,50,140.0
165,A5,15.0,0.5,50,140.0
166,B-2,15.0,1.0,64,140.0
167,D2,15.0,0.5,90,140.0
168,F#5,15.5,0.5,45,140.0
169,F#5,15.5,0.5,50,140.0
170,F#5,15.5,0.5,50,140.0
171,C2,15.5,0.5,110,140.0
172,G5,16.0,0.333,45,140.0
173,B-2,16.0,0.25,55,140.0
174,G5,16.0,0.333,50,140.0
175,G5,16.0,0.333,50,140.0
176,B-2,16.0,1.0,64,140.0
177,C2,16.0,0.333,110,140.0
178,B-2,16.25,0.25,55,140.0
179,C6,16.333,0.334,45,140.0
180,C6,16.333,0.334,50,140.0
181,C6,16.333,0.334,50,140.0
182,C2,16.333,0.334,110,140.0
183,F5,16.667,0.333,45,140.0
184,F5,16.667,0.333,50,140.0
185,F5,16.667,0.333,50,140.0
186,C2,16.667,0.333,110,140.0
187,A5,17.0,3.0,45,140.0
188,A5,17.0,3.0,50,140.0
189,A5,17.0,0.125,50,140.0
190,B-2,17.0,1.0,64,140.0
191,D2,17.0,0.5,90,140.0
192,A5,17.125,0.125,50,140.0
193,A5,17.25,0.125,50,140.0
194,A5,17.375,0.125,50,140.0
195,B-2,17.5,0.25,55,140.0
196,A5,17.5,0.125,50,140.0
197,C2,17.5,0.25,110,140.0
198,A5,17.625,0.125,50,140.0
199,B-2,17.75,0.25,55,140.0
200,A5,17.75,0.125,50,140.0
201,C2,17.75,0.25,110,140.0
202,A5,17.875,0.125,50,140.0
203,A5,18.0,0.125,50,140.0
204,B-2,18.0,1.0,64,140.0
205,A5,18.125,0.125,50,140.0
206,A5,18.25,0.125,50,140.0
207,A5,18.375,0.125,50,140.0
208,A5,18.5,0.125,50,140.0
209,A5,18.625,0.125,50,140.0
210,A5,18.75,0.125,50,140.0
211,A5,18.875,0.125,50,140.0
212,A5,19.0,0.125,50,140.0
213,B-2,19.0,1.0,77,140.0
214,D2,19.0,1.0,77,140.0
215,A5,19.125,0.125,50,140.0
216,A5,19.25,0.125,50,140.0
217,A5,19.375,0.125,50,140.0
218,A5,19.5,0.125,50,140.0
219,A5,19.625,0.125,50,140.0
220,A5,19.75,0.125,50,140.0
221,A5,19.875,0.125,50,140.0
222,A5,19.875,0.125,50,140.0
223,E5,20.0,0.667,45,140.0
224,B-2,20.0,0.25,55,140.0
225,E5,20.0,0.667,50,140.0
226,E5,20.0,0.667,50,140.0
227,B-2,20.0,1.0,64,140.0
228,C2,20.0,0.25,110,140.0
229,B-2,20.25,0.25,55,140.0
230,C2,20.25,0.25,110,140.0
231,D5,20.667,0.333,45,140.0
232,D5,20.667,0.333,50,140.0
233,D5,20.667,0.333,50,140.0
234,C6,21.0,3.0,45,140.0
235,C6,21.0,3.0,50,140.0
236,C6,21.0,0.125,50,140.0
237,B-2,21.0,1.0,64,140.0
238,C6,21.125,0.125,50,140.0
239,C6,21.25,0.125,50,140.0
240,C6,21.375,0.125,50,140.0
241,B-2,21.5,0.25,55,140.0
242,C6,21.5,0.125,50,140.0
243,C2,21.5,0.25,110,140.0
244,C6,21.625,0.125,50,140.0
245,B-2,21.75,0.25,55,140.0
246,C6,21.75,0.125,50,140.0
247,C2,21.75,0.25,110,140.0
248,C6,21.875,0.125,50,140.0
249,C6,22.0,0.125,50,140.0
250,B-2,22.0,1.0,64,140.0
251,C6,22.125,0.125,50,140.0
252,C6,22.25,0.125,50,140.0
253,C6,22.375,0.125,50,140.0
254,C6,22.5,0.125,50,140.0
255,C6,22.625,0.125,50,140.0
256,C6,22.75,0.125,50,140.0
257,C6,22.875,0.125,50,140.0
258,C6,23.0,0.125,50,140.0
259,B-2,23.0,1.0,77,140.0
260,D2,23.0,1.0,77,140.0
261,C6,23.125,0.125,50,140.0
262,C6,23.25,0.125,50,140.0
263,C6,23.375,0.125,50,140.0
264,C6,23.5,0.125,50,140.0
265,C6,23.625,0.125,50,140.0
266,C6,23.75,0.125,50,140.0
267,C6,23.875,0.125,50,140.0
268,C6,24.0,1.75,45,140.0
269,B-2,24.0,0.25,55,140.0
270,C6,24.0,1.75,50,140.0
271,C6,24.0,0.25,50,140.0
272,B-2,24.0,1.0,64,140.0
273,C2,24.0,0.25,110,140.0
274,B-2,24.25,0.25,55,140.0
275,C6,24.25,0.125,50,140.0
276,C2,24.25,0.25,110,140.0
277,C6,24.375,0.125,50,140.0
278,C6,24.5,0.125,50,140.0
279,C6,24.625,0.125,50,140.0
280,C6,24.75,0.125,50,140.0
281,C6,24.875,0.125,50,140.0
282,C6,25.0,0.125,50,140.0
283,B-2,25.0,1.0,64,140.0
284,C6,25.125,0.125,50,140.0
285,C6,25.25,0.125,50,140.0
286,C6,25.375,0.375,50,140.0
287,C2,25.5,0.25,110,140.0
288,C6,25.75,0.25,45,140.0
289,C6,25.75,0.25,50,140.0
290,C6,25.75,0.25,50,140.0
291,C2,25.75,0.25,110,140.0
292,C4,25.875,0.125,55,140.0
293,A5,26.0,1.5,45,140.0
294,A3,26.0,1.5,55,140.0
295,A5,26.0,1.5,50,140.0
296,A5,26.0,0.125,50,140.0
297,D3,26.0,0.125,64,140.0
298,G#2,26.0,1.0,64,140.0
299,A5,26.125,0.125,50,140.0
300,D3,26.125,0.125,64,140.0
301,A5,26.25,0.125,50,140.0
302,D3,26.25,0.125,64,140.0
303,A5,26.375,0.125,50,140.0
304,D3,26.375,0.125,64,140.0
305,A5,26.5,0.125,50,140.0
306,D3,26.5,0.125,64,140.0
307,A5,26.625,0.125,50,140.0
308,D3,26.625,0.125,64,140.0
309,A5,26.75,0.125,50,140.0
310,D3,26.75,0.125,64,140.0
311,A5,26.875,0.125,50,140.0
312,D3,26.875,0.125,64,140.0
313,A5,27.0,0.125,50,140.0
314,D3,27.0,0.125,64,140.0
315,G#2,27.0,1.0,64,140.0
316,A5,27.125,0.125,50,140.0
317,D3,27.125,0.125,64,140.0
318,A5,27.25,0.125,50,140.0
319,D3,27.25,0.125,64,140.0
320,A5,27.375,0.125,50,140.0
321,D3,27.375,0.125,64,140.0
322,G5,27.5,0.5,45,140.0
323,G3,27.5,0.5,55,140.0
324,G5,27.5,0.5,50,140.0
325,G5,27.5,0.125,50,140.0
326,C3,27.5,0.125,64,140.0
327,G5,27.625,0.125,50,140.0
328,C3,27.625,0.125,64,140.0
329,G5,27.75,0.125,50,140.0
330,C3,27.75,0.125,64,140.0
331,G5,27.875,0.125,50,140.0
332,C3,27.875,0.125,64,140.0
333,G5,28.0,1.0,45,140.0
334,G3,28.0,1.0,55,140.0
335,G5,28.0,1.0,50,140.0
336,G5,28.0,0.125,50,140.0
337,C3,28.0,0.125,64,140.0
338,G#2,28.0,1.0,64,140.0
339,G5,28.125,0.125,50,140.0
340,C3,28.125,0.125,64,140.0
341,G5,28.25,0.125,50,140.0
342,C3,28.25,0.125,64,140.0
343,G5,28.375,0.125,50,140.0
344,C3,28.375,0.125,64,140.0
345,G5,28.5,0.125,50,140.0
346,C3,28.5,0.125,64,140.0
347,G5,28.625,0.125,50,140.0
348,C3,28.625,0.125,64,140.0
349,G5,28.75,0.125,50,140.0
350,C3,28.75,0.125,64,140.0
351,G5,28.875,0.125,50,140.0
352,C3,28.875,0.125,64,140.0
353,F5,29.0,1.5,45,140.0
354,F3,29.0,1.5,55,140.0
355,F5,29.0,1.5,50,140.0
356,F5,29.0,0.125,50,140.0
357,A2,29.0,0.125,64,140.0
358,G#2,29.0,1.0,64,140.0
359,F5,29.125,0.125,50,140.0
360,A2,29.125,0.125,64,140.0
361,F5,29.25,0.125,50,140.0
362,A2,29.25,0.125,64,140.0
363,F5,29.375,0.125,50,140.0
364,A2,29.375,0.125,64,140.0
365,F5,29.5,0.125,50,140.0
366,A2,29.5,0.125,64,140.0
367,F5,29.625,0.125,50,140.0
368,A2,29.625,0.125,64,140.0
369,F5,29.75,0.125,50,140.0
370,A2,29.75,0.125,64,140.0
371,F5,29.875,0.125,50,140.0
372,A2,29.875,0.125,64,140.0
373,F5,30.0,0.125,50,140.0
374,A2,30.0,0.125,64,140.0
375,G#2,30.0,1.0,64,140.0
376,F5,30.125,0.125,50,140.0
377,A2,30.125,0.125,64,140.0
378,F5,30.25,0.125,50,140.0
379,G2,30.25,0.125,64,140.0
380,F5,30.375,0.125,50,140.0
381,G2,30.375,0.125,64,140.0
382,D5,30.5,1.5,45,140.0
383,D3,30.5,1.5,55,140.0
384,D5,30.5,1.5,50,140.0
385,D5,30.5,0.125,50,140.0
386,G2,30.5,0.125,64,140.0
387,D5,30.625,0.125,50,140.0
388,G2,30.625,0.125,64,140.0
389,D5,30.75,0.125,50,140.0
390,G2,30.75,0.125,64,140.0
391,D5,30.875,0.125,50,140.0
392,G2,30.875,0.125,64,140.0
393,D5,31.0,0.125,50,140.0
394,G2,31.0,0.125,64,140.0
395,G#2,31.0,1.0,64,140.0
396,D5,31.125,0.125,50,140.0
397,G2,31.125,0.125,64,140.0
398,D5,31.25,0.125,50,140.0
399,G2,31.25,0.125,64,140.0
400,D5,31.375,0.125,50,140.0
401,G2,31.375,0.125,64,140.0
402,D5,31.5,0.125,50,140.0
403,G2,31.5,0.125,64,140.0
404,D5,31.625,0.125,50,140.0
405,G2,31.625,0.125,64,140.0
406,D5,31.75,0.125,50,140.0
407,D5,31.875,0.125,50,140.0
408,C#5,32.0,1.5,45,140.0
409,G2,32.0,0.25,55,140.0
410,C#5,32.0,1.5,50,140.0
411,C#5,32.0,1.5,50,140.0
412,B-2,32.0,1.0,64,140.0
413,C2,32.0,0.25,110,140.0
414,G2,32.25,0.25,55,140.0
415,C2,32.25,0.25,110,140.0
416,B-2,33.0,1.0,64,140.0
417,D2,33.0,0.5,90,140.0
418,D5,33.5,0.25,45,140.0
419,G2,33.5,0.25,55,140.0
420,D5,33.5,0.25,50,140.0
421,D5,33.5,0.25,50,140.0
422,C2,33.5,0.25,110,140.0
423,G5,33.75,0.25,45,140.0
424,G2,33.75,0.25,55,140.0
425,G5,33.75,0.25,50,140.0
426,G5,33.75,0.25,50,140.0
427,C2,33.75,0.25,110,140.0
428,E5,34.0,2.0,45,140.0
429,E5,34.0,2.0,50,140.0
430,E5,34.0,0.125,50,140.0
431,B-2,34.0,1.0,64,140.0
432,E5,34.125,0.125,50,140.0
433,E5,34.25,0.125,50,140.0
434,E5,34.375,0.125,50,140.0
435,E5,34.5,0.125,50,140.0
436,E5,34.625,0.125,50,140.0
437,E5,34.75,0.125,50,140.0
438,E5,34.875,0.125,50,140.0
439,E5,35.0,0.125,50,140.0
440,B-2,35.0,1.0,64,140.0
441,D2,35.0,0.5,90,140.0
442,E5,35.125,0.125,50,140.0
443,E5,35.25,0.125,50,140.0
444,E5,35.375,0.125,50,140.0
445,E5,35.5,0.125,50,140.0
446,C2,35.5,0.25,110,140.0
447,E5,35.625,0.125,50,140.0
448,E5,35.75,0.125,50,140.0
449,C2,35.75,0.25,110,140.0
450,E5,35.875,0.125,50,140.0
451,E5,36.0,4.0,45,140.0
452,G2,36.0,0.25,55,140.0
453,E5,36.0,4.0,50,140.0
454,E5,36.0,0.125,50,140.0
455,B-2,36.0,1.0,64,140.0
456,C2,36.0,0.25,110,140.0
457,E5,36.125,0.125,50,140.0
458,G2,36.25,0.25,55,140.0
459,E5,36.25,0.125,50,140.0
460,C2,36.25,0.25,110,140.0
461,E5,36.375,0.125,50,140.0
462,E5,36.5,0.125,50,140.0
463,E5,36.625,0.125,50,140.0
464,E5,36.75,0.125,50,140.0
465,E5,36.875,0.125,50,140.0
466,E5,37.0,0.125,50,140.0
467,B-2,37.0,1.0,64,140.0
468,D2,37.0,0.5,90,140.0
469,E5,37.125,0.125,50,140.0
470,E5,37.25,0.125,50,140.0
471,E5,37.375,0.125,50,140.0
472,G2,37.5,0.25,55,140.0
473,E5,37.5,0.125,50,140.0
474,C2,37.5,0.25,110,140.0
475,E5,37.625,0.125,50,140.0
476,G2,37.75,0.25,55,140.0
477,E5,37.75,0.125,50,140.0
478,C2,37.75,0.25,110,140.0
479,E5,37.875,0.125,50,140.0
480,E5,38.0,0.125,50,140.0
481,B-2,38.0,1.0,64,140.0
482,E5,38.125,0.125,50,140.0
483,E5,38.25,0.125,50,140.0
484,E5,38.375,0.125,50,140.0
485,E5,38.5,0.125,50,140.0
486,E5,38.625,0.125,50,140.0
487,E5,38.75,0.125,50,140.0
488,E5,38.875,0.125,50,140.0
489,E5,39.0,0.125,50,140.0
490,B-2,39.0,1.0,64,140.0
491,D2,39.0,0.5,90,140.0
492,E5,39.125,0.125,50,140.0
493,E5,39.25,0.125,50,140.0
494,E5,39.375,0.125,50,140.0
495,E5,39.5,0.125,50,140.0
496,C2,39.5,0.25,110,140.0
497,E5,39.625,0.125,50,140.0
498,E5,39.75,0.125,50,140.0
499,C2,39.75,0.25,110,140.0
500,E5,39.875,0.125,50,140.0
501,E5,40.0,4.0,45,140.0
502,G2,40.0,0.25,55,140.0
503,E5,40.0,4.0,50,140.0
504,E5,40.0,0.125,50,140.0
505,B-2,40.0,1.0,64,140.0
506,C2,40.0,0.25,110,140.0
507,E5,40.125,0.125,50,140.0
508,G2,40.25,0.25,55,140.0
509,E5,40.25,0.125,50,140.0
510,C2,40.25,0.25,110,140.0
511,E5,40.375,0.125,50,140.0
512,E5,40.5,0.125,50,140.0
513,E5,40.625,0.125,50,140.0
514,E5,40.75,0.125,50,140.0
515,E5,40.875,0.125,50,140.0
516,E5,41.0,0.125,50,140.0
517,B-2,41.0,1.0,64,140.0
518,D2,41.0,0.5,90,140.0
519,E5,41.125,0.125,50,140.0
520,E5,41.25,0.125,50,140.0
521,E5,41.375,0.125,50,140.0
522,G2,41.5,0.25,55,140.0
523,E5,41.5,0.125,50,140.0
524,C2,41.5,0.25,110,140.0
525,E5,41.625,0.125,50,140.0
526,G2,41.75,0.25,55,140.0
527,E5,41.75,0.125,50,140.0
528,C2,41.75,0.25,110,140.0
529,E5,41.875,0.125,50,140.0
530,E5,42.0,0.125,50,140.0
531,B-2,42.0,1.0,64,140.0
532,E5,42.125,0.125,50,140.0
533,E5,42.25,0.125,50,140.0
534,E5,42.375,0.125,50,140.0
535,E5,42.5,0.125,50,140.0
536,E5,42.625,0.125,50,140.0
537,E5,42.75,0.125,50,140.0
538,E5,42.875,0.125,50,140.0
539,E5,43.0,0.125,50,140.0
540,B-2,43.0,1.0,64,140.0
541,D2,43.0,0.5,90,140.0
542,E5,43.125,0.125,50,140.0
543,E5,43.25,0.125,50,140.0
544,E5,43.375,0.125,50,140.0
545,E5,43.5,0.125,50,140.0
546,C2,43.5,0.25,110,140.0
547,E5,43.625,0.125,50,140.0
548,E5,43.75,0.125,50,140.0
549,C2,43.75,0.25,110,140.0
550,E5,43.875,0.125,50,140.0
551,E5,44.0,3.0,45,140.0
552,G2,44.0,0.25,55,140.0
553,E5,44.0,3.0,50,140.0
554,E5,44.0,0.125,50,140.0
555,B-2,44.0,1.0,64,140.0
556,C2,44.0,0.25,110,140.0
557,E5,44.125,0.125,50,140.0
558,G2,44.25,0.25,55,140.0
559,E5,44.25,0.125,50,140.0
560,C2,44.25,0.25,110,140.0
561,E5,44.375,0.125,50,140.0
562,E5,44.5,0.125,50,140.0
563,E5,44.625,0.125,50,140.0
564,E5,44.75,0.125,50,140.0
565,E5,44.875,0.125,50,140.0
566,E5,45.0,0.125,50,140.0
567,B-2,45.0,1.0,64,140.0
568,D2,45.0,0.5,90,140.0
569,E5,45.125,0.125,50,140.0
570,E5,45.25,0.125,50,140.0
571,E5,45.375,0.125,50,140.0
572,G2,45.5,0.25,55,140.0
573,E5,45.5,0.125,50,140.0
574,C2,45.5,0.25,110,140.0
575,E5,45.625,0.125,50,140.0
576,G2,45.75,0.25,55,140.0
577,E5,45.75,0.125,50,140.0
578,C2,45.75,0.25,110,140.0
579,E5,45.875,0.125,50,140.0
580,E5,46.0,0.125,50,140.0
581,B-2,46.0,1.0,64,140.0
582,E5,46.125,0.125,50,140.0
583,E5,46.25,0.125,50,140.0
584,E5,46.375,0.125,50,140.0
585,E5,46.5,0.125,50,140.0
586,E5,46.625,0.125,50,140.0
587,E5,46.75,0.125,50,140.0
588,E5,46.875,0.125,50,140.0
589,B-2,47.0,1.0,64,140.0
590,D2,47.0,0.5,90,140.0
591,C2,47.5,0.25,110,140.0
592,C2,47.75,0.25,110,140.0
593,C5,48.0,0.5,45,140.0
594,B-2,48.0,0.5,55,140.0
595,C5,48.0,0.5,50,140.0
596,C5,48.0,0.5,50,140.0
597,C2,48.0,0.5,110,140.0
598,E5,48.5,0.5,45,140.0
599,B-2,48.5,1.0,55,140.0
600,E5,48.5,0.5,50,140.0
601,E5,48.5,0.5,50,140.0
602,B-2,48.5,0.5,77,140.0
603,D2,48.5,0.5,77,140.0
604,D5,49.0,0.5,45,140.0
605,D5,49.0,0.5,50,140.0
606,D5,49.0,0.5,50,140.0
607,G2,49.0,0.5,64,140.0
608,F5,49.5,0.5,45,140.0
609,B-2,49.5,1.0,55,140.0
610,F5,49.5,0.5,50,140.0
611,F5,49.5,0.5,50,140.0
612,C2,49.5,0.5,110,140.0
613,E5,50.0,0.5,45,140.0
614,E5,50.0,0.5,50,140.0
615,E5,50.0,0.5,50,140.0
616,E-3,50.0,2.0,120,140.0
617,C2,50.0,0.5,110,140.0
618,G4,50.5,0.5,45,140.0
619,B-2,50.5,1.5,55,140.0
620,G4,50.5,0.5,50,140.0
621,G4,50.5,0.5,50,140.0
622,C2,50.5,0.5,110,140.0
623,F5,51.0,0.5,45,140.0
624,F5,51.0,0.5,50,140.0
625,F5,51.0,0.5,50,140.0
626,C2,51.0,0.5,110,140.0
627,D5,51.5,0.5,45,140.0
628,D5,51.5,0.5,50,140.0
629,D5,51.5,0.5,50,140.0
630,C2,51.5,0.5,110,140.0
631,A5,52.0,0.667,45,140.0
632,B-2,52.0,4.0,55,140.0
633,A5,52.0,0.667,50,140.0
634,A5,52.0,0.667,50,140.0
635,E3,52.0,1.0,64,140.0
636,C3,52.0,0.667,64,140.0
637,C6,52.667,0.666,45,140.0
638,C6,52.667,0.666,50,140.0
639,C6,52.667,0.666,50,140.0
640,A2,52.667,0.666,64,140.0
641,E3,53.0,1.0,64,140.0
642,E5,53.333,0.667,45,140.0
643,E5,53.333,0.667,50,140.0
644,E5,53.333,0.667,50,140.0
645,G2,53.333,0.667,64,140.0
646,D2,53.875,0.125,90,140.0
647,E5,54.0,0.4,45,140.0
648,E5,54.0,0.4,50,140.0
649,E5,54.0,0.4,50,140.0
650,D2,54.0,0.4,90,140.0
651,F5,54.4,0.399,45,140.0
652,F5,54.4,0.399,50,140.0
653,F5,54.4,0.399,50,140.0
654,D3,54.4,0.399,64,140.0
655,E5,54.8,0.4,45,140.0
656,E5,54.8,0.4,50,140.0
657,E5,54.8,0.4,50,140.0
658,C3,54.8,0.4,64,140.0
659,E3,55.0,1.0,64,140.0
660,D5,55.2,0.399,45,140.0
661,D5,55.2,0.399,50,140.0
662,D5,55.2,0.399,50,140.0
663,A2,55.2,0.399,64,140.0
664,A4,55.6,0.4,45,140.0
665,A4,55.6,0.4,50,140.0
666,A4,55.6,0.4,50,140.0
667,G2,55.6,0.4,64,140.0
668,B-4,56.0,0.286,45,140.0
669,B-2,56.0,0.286,55,140.0
670,B-4,56.0,0.286,50,140.0
671,B-4,56.0,0.286,50,140.0
672,B-2,56.0,1.0,64,140.0
673,C2,56.0,0.286,110,140.0
674,C5,56.286,0.285,45,140.0
675,C3,56.286,0.285,55,140.0
676,C5,56.286,0.285,50,140.0
677,C5,56.286,0.285,50,140.0
678,C3,56.286,0.285,64,140.0
679,C5,56.571,0.286,45,140.0
680,C3,56.571,0.286,55,140.0
681,C5,56.571,0.286,50,140.0
682,C5,56.571,0.286,50,140.0
683,A2,56.571,0.286,64,140.0
684,D5,56.857,0.285,45,140.0
685,D3,56.857,0.285,55,140.0
686,D5,56.857,0.285,50,140.0
687,D5,56.857,0.285,50,140.0
688,G2,56.857,0.285,64,140.0
689,B-2,57.0,1.0,64,140.0
690,D5,57.143,0.286,45,140.0
691,D3,57.143,0.286,55,140.0
692,D5,57.143,0.286,50,140.0
693,D5,57.143,0.286,50,140.0
694,C2,57.143,0.286,110,140.0
695,E5,57.429,0.285,45,140.0
696,E3,57.429,0.285,55,140.0
697,E5,57.429,0.285,50,140.0
698,E5,57.429,0.285,50,140.0
699,C2,57.429,0.285,110,140.0
700,F5,57.714,0.286,45,140.0
701,F3,57.714,0.286,55,140.0
702,F5,57.714,0.286,50,140.0
703,F5,57.714,0.286,50,140.0
704,C3,57.714,0.286,64,140.0
705,A5,58.0,0.286,45,140.0
706,A3,58.0,0.286,55,140.0
707,A5,58.0,0.286,50,140.0
708,A5,58.0,0.286,50,140.0
709,B-2,58.0,1.0,64,140.0
710,A2,58.0,0.286,64,140.0
711,G4,58.286,0.285,45,140.0
712,G2,58.286,0.285,55,140.0
713,G4,58.286,0.285,50,140.0
714,G4,58.286,0.285,50,140.0
715,G2,58.286,0.285,64,140.0
716,G4,58.571,0.286,45,140.0
717,G2,58.571,0.286,55,140.0
718,G4,58.571,0.286,50,140.0
719,G4,58.571,0.286,50,140.0
720,C2,58.571,0.286,110,140.0
721,D5,58.857,0.285,45,140.0
722,D3,58.857,0.285,55,140.0
723,D5,58.857,0.285,50,140.0
724,D5,58.857,0.285,50,140.0
725,C2,58.857,0.285,110,140.0
726,B-2,59.0,1.0,64,140.0
727,F4,59.143,0.286,45,140.0
728,F2,59.143,0.286,55,140.0
729,F4,59.143,0.286,50,140.0
730,F4,59.143,0.286,50,140.0
731,C3,59.143,0.286,64,140.0
732,F4,59.429,0.285,45,140.0
733,F2,59.429,0.285,55,140.0
734,F4,59.429,0.285,50,140.0
735,F4,59.429,0.285,50,140.0
736,A2,59.429,0.285,64,140.0
737,E4,59.714,0.286,45,140.0
738,E2,59.714,0.286,55,140.0
739,E4,59.714,0.286,50,140.0
740,E4,59.714,0.286,50,140.0
741,G2,59.714,0.286,64,140.0
742,G4,60.0,4.0,45,140.0
743,B-2,60.0,0.25,55,140.0
744,G4,60.0,4.0,50,140.0
745,G4,60.0,0.125,50,140.0
746,E-3,60.0,1.0,79,140.0
747,C#3,60.0,1.0,79,140.0
748,C2,60.0,1.0,79,140.0
749,G4,60.125,0.125,50,140.0
750,B-2,60.25,0.25,55,140.0
751,G4,60.25,0.125,50,140.0
752,G4,60.375,0.125,50,140.0
753,G4,60.5,0.125,50,140.0
754,G4,60.625,0.125,50,140.0
755,G4,60.75,0.125,50,140.0
756,G4,60.875,0.125,50,140.0
757,G4,61.0,0.125,50,140.0
758,G2,61.0,0.125,64,140.0
759,G#2,61.0,1.0,64,140.0
760,G4,61.125,0.125,50,140.0
761,G2,61.125,0.125,64,140.0
762,G4,61.25,0.125,50,140.0
763,G2,61.25,0.125,64,140.0
764,G4,61.375,0.125,50,140.0
765,G2,61.375,0.125,64,140.0
766,B-2,61.5,0.25,55,140.0
767,G4,61.5,0.125,50,140.0
768,G2,61.5,0.125,64,140.0
769,G4,61.625,0.125,50,140.0
770,G2,61.625,0.125,64,140.0
771,B-2,61.75,0.25,55,140.0
772,G4,61.75,0.125,50,140.0
773,G2,61.75,0.125,64,140.0
774,G4,61.875,0.125,50,140.0
775,G2,61.875,0.125,64,140.0
776,G4,62.0,0.125,50,140.0
777,G2,62.0,0.125,64,140.0
778,G#2,62.0,1.0,64,140.0
779,G4,62.125,0.125,50,140.0
780,G2,62.125,0.125,64,140.0
781,G4,62.25,0.125,50,140.0
782,G2,62.25,0.125,64,140.0
783,G4,62.375,0.125,50,140.0
784,G2,62.375,0.125,64,140.0
785,B-2,62.5,0.5,55,140.0
786,G4,62.5,0.125,50,140.0
787,C3,62.5,0.5,64,140.0
788,G4,62.625,0.125,50,140.0
789,G4,62.75,0.125,50,140.0
790,G4,62.875,0.125,50,140.0
791,A2,63.0,0.5,55,140.0
792,G4,63.0,0.125,50,140.0
793,A2,63.0,0.5,64,140.0
794,G#2,63.0,1.0,64,140.0
795,G4,63.125,0.125,50,140.0
796,G4,63.25,0.125,50,140.0
797,G4,63.375,0.125,50,140.0
798,G#2,63.5,0.5,55,140.0
799,G4,63.5,0.125,50,140.0
800,G2,63.5,0.5,64,140.0
801,G4,63.625,0.125,50,140.0
802,G4,63.75,0.125,50,140.0
803,G4,63.875,0.125,50,140.0
804,G4,64.0,4.0,45,140.0
805,G2,64.0,0.25,55,140.0
806,G4,64.0,4.0,50,140.0
807,G4,64.0,0.125,50,140.0
808,C2,64.0,0.25,110,140.0
809,B-2,64.0,1.0,64,140.0
810,C#3,64.0,1.0,64,140.0
811,E3,64.0,1.0,64,140.0
812,G4,64.125,0.125,50,140.0
813,G2,64.25,0.25,55,140.0
814,G4,64.25,0.125,50,140.0
815,C2,64.25,0.25,110,140.0
816,G4,64.375,0.125,50,140.0
817,G4,64.5,0.125,50,140.0
818,G4,64.625,0.125,50,140.0
819,G4,64.75,0.125,50,140.0
820,G4,64.875,0.125,50,140.0
821,G4,65.0,0.125,50,140.0
822,B-2,65.0,1.0,64,140.0
823,G4,65.125,0.125,50,140.0
824,G4,65.25,0.125,50,140.0
825,G4,65.375,0.125,50,140.0
826,G2,65.5,0.25,55,140.0
827,G4,65.5,0.125,50,140.0
828,C2,65.5,0.25,110,140.0
829,G4,65.625,0.125,50,140.0
830,G2,65.75,0.25,55,140.0
831,G4,65.75,0.125,50,140.0
832,C2,65.75,0.25,110,140.0
833,G4,65.875,0.125,50,140.0
834,G4,66.0,0.125,50,140.0
835,B-2,66.0,1.0,64,140.0
836,G4,66.125,0.125,50,140.0
837,G4,66.25,0.125,50,140.0
838,G4,66.375,0.125,50,140.0
839,G4,66.5,0.125,50,140.0
840,G4,66.625,0.125,50,140.0
841,G4,66.75,0.125,50,140.0
842,G4,66.875,0.125,50,140.0
843,G4,67.0,0.125,50,140.0
844,B-2,67.0,1.0,77,140.0
845,D2,67.0,1.0,77,140.0
846,G4,67.125,0.125,50,140.0
847,G4,67.25,0.125,50,140.0
848,G4,67.375,0.125,50,140.0
849,G4,67.5,0.125,50,140.0
850,G4,67.625,0.125,50,140.0
851,G4,67.75,0.125,50,140.0
852,G4,67.875,0.125,50,140.0
853,G2,68.0,0.25,55,140.0
854,B-2,68.0,1.0,64,140.0
855,C2,68.0,0.25,110,140.0
856,G2,68.25,0.25,55,140.0
857,C2,68.25,0.25,110,140.0
858,B4,69.0,0.5,45,140.0
859,B4,69.0,0.5,50,140.0
860,B4,69.0,0.5,50,140.0
861,B-2,69.0,1.0,64,140.0
862,C#5,69.5,0.5,45,140.0
863,G2,69.5,0.25,55,140.0
864,C#5,69.5,0.5,50,140.0
865,C#5,69.5,0.5,50,140.0
866,C2,69.5,0.25,110,140.0
867,G2,69.75,0.25,55,140.0
868,C2,69.75,0.25,110,140.0
869,C#5,70.0,0.667,45,140.0
870,C#5,70.0,0.667,50,140.0
871,C#5,70.0,0.667,50,140.0
872,B-2,70.0,1.0,64,140.0
873,B4,70.667,0.666,45,140.0
874,B4,70.667,0.666,50,140.0
875,B4,70.667,0.666,50,140.0
876,B-2,71.0,1.0,64,140.0
877,D2,71.0,0.5,90,140.0
878,D5,71.333,0.667,45,140.0
879,D3,71.333,0.667,55,140.0
880,D5,71.333,0.667,50,140.0
881,D5,71.333,0.667,50,140.0
882,C2,71.5,0.5,110,140.0
883,F5,72.0,0.667,45,140.0
884,F3,72.0,0.667,55,140.0
885,F5,72.0,0.667,50,140.0
886,F5,72.0,0.667,50,140.0
887,D2,72.0,0.083,90,140.0
888,G#2,72.0,1.0,64,140.0
889,D2,72.083,0.084,90,140.0
890,D2,72.167,0.083,90,140.0
891,D2,72.25,0.083,90,140.0
892,D2,72.333,0.084,90,140.0
893,D2,72.417,0.083,90,140.0
894,D2,72.5,0.083,90,140.0
895,D2,72.583,0.084,90,140.0
896,A4,72.667,0.666,45,140.0
897,A2,72.667,0.666,55,140.0
898,A4,72.667,0.666,50,140.0
899,A4,72.667,0.666,50,140.0
900,G#2,73.0,1.0,64,140.0
901,A4,73.333,0.667,45,140.0
902,A2,73.333,0.667,55,140.0
903,A4,73.333,0.667,50,140.0
904,A4,73.333,0.667,50,140.0
905,C2,73.333,0.667,64,140.0
906,B-4,74.0,1.5,45,140.0
907,B-2,74.0,1.5,55,140.0
908,B-4,74.0,1.5,50,140.0
909,B-4,74.0,1.5,50,140.0
910,C2,74.0,1.0,64,140.0
911,E-3,74.0,2.0,64,140.0
912,C#3,74.0,2.0,64,140.0
913,D2,75.0,0.5,90,140.0
914,C#5,75.5,0.5,45,140.0
915,C#3,75.5,0.5,55,140.0
916,C#5,75.5,0.5,50,140.0
917,C#5,75.5,0.5,50,140.0
918,C2,75.5,0.5,64,140.0
919,E5,76.0,0.667,45,140.0
920,E3,76.0,0.667,55,140.0
921,E5,76.0,0.667,50,140.0
922,E5,76.0,0.667,50,140.0
923,C2,76.0,0.667,87,140.0
924,B-2,76.0,0.667,87,140.0
925,A5,76.667,0.666,45,140.0
926,A3,76.667,0.666,55,140.0
927,A5,76.667,0.666,50,140.0
928,A5,76.667,0.666,50,140.0
929,G#2,76.667,0.666,64,140.0
930,C3,76.667,0.666,64,140.0
931,B-5,77.333,0.667,45,140.0
932,B-3,77.333,0.667,55,140.0
933,B-5,77.333,0.667,50,140.0
934,B-5,77.333,0.667,50,140.0
935,G2,77.333,0.667,64,140.0
936,B-2,77.333,0.667,64,140.0
937,F5,78.0,0.667,45,140.0
938,F3,78.0,0.667,55,140.0
939,F5,78.0,0.667,50,140.0
940,F5,78.0,0.667,50,140.0
941,G#2,78.0,0.667,64,140.0
942,C3,78.0,0.667,64,140.0
943,C5,78.667,0.666,45,140.0
944,C3,78.667,0.666,55,140.0
945,C5,78.667,0.666,50,140.0
946,C5,78.667,0.666,50,140.0
947,G2,78.667,0.666,64,140.0
948,B-2,78.667,0.666,64,140.0
949,G4,79.333,0.667,45,140.0
950,G2,79.333,0.667,55,140.0
951,G4,79.333,0.667,50,140.0
952,G4,79.333,0.667,50,140.0
953,G#2,79.333,0.667,64,140.0
954,C3,79.333,0.667,64,140.0
955,A4,80.0,4.0,45,140.0
956,A2,80.0,0.25,55,140.0
957,A4,80.0,4.0,50,140.0
958,A4,80.0,0.125,50,140.0
959,B-2,80.0,1.0,64,140.0
960,C2,80.0,0.25,110,140.0
961,A4,80.125,0.125,50,140.0
962,B-2,80.25,0.25,55,140.0
963,A4,80.25,0.125,50,140.0
964,C2,80.25,0.25,110,140.0
965,A4,80.375,0.125,50,140.0
966,B-2,80.5,0.25,55,140.0
967,A4,80.5,0.125,50,140.0
968,A4,80.625,0.125,50,140.0
969,B-2,80.75,0.25,55,140.0
970,A4,80.75,0.125,50,140.0
971,A4,80.875,0.125,50,140.0
972,B-2,81.0,0.5,55,140.0
973,A4,81.0,0.125,50,140.0
974,B-2,81.0,1.0,64,140.0
975,D2,81.0,0.5,90,140.0
976,A4,81.125,0.125,50,140.0
977,A4,81.25,0.125,50,140.0
978,A4,81.375,0.125,50,140.0
979,A4,81.5,0.125,50,140.0
980,C2,81.5,0.25,110,140.0
981,A4,81.625,0.125,50,140.0
982,A4,81.75,0.125,50,140.0
983,C2,81.75,0.25,110,140.0
984,A4,81.875,0.125,50,140.0
985,A4,82.0,0.125,50,140.0
986,B-2,82.0,1.0,64,140.0
987,A4,82.125,0.125,50,140.0
988,A4,82.25,0.125,50,140.0
989,A4,82.375,0.125,50,140.0
990,B-2,82.5,1.0,55,140.0
991,A4,82.5,0.125,50,140.0
992,A4,82.625,0.125,50,140.0
993,A4,82.75,0.125,50,140.0
994,A4,82.875,0.125,50,140.0
995,A4,83.0,0.125,50,140.0
996,B-2,83.0,1.0,64,140.0
997,D2,83.0,0.5,90,140.0
998,A4,83.125,0.125,50,140.0
999,A4,83.25,0.125,50,140.0
1000,A4,83.375,0.125,50,140.0
1001,F2,83.5,0.25,55,140.0
1002,A4,83.5,0.125,50,140.0
1003,C2,83.5,0.25,110,140.0
1004,A4,83.625,0.125,50,140.0
1005,F2,83.75,0.25,55,140.0
1006,A4,83.75,0.125,50,140.0
1007,C2,83.75,0.25,110,140.0
1008,A4,83.875,0.125,50,140.0
1009,A4,84.0,1.0,45,140.0
1010,B-2,84.0,0.25,55,140.0
1011,A4,84.0,1.0,50,140.0
1012,A4,84.0,0.125,50,140.0
1013,B-2,84.0,1.0,64,140.0
1014,C2,84.0,0.25,110,140.0
1015,A4,84.125,0.125,50,140.0
1016,B-2,84.25,0.25,55,140.0
1017,A4,84.25,0.125,50,140.0
1018,C2,84.25,0.25,110,140.0
1019,A4,84.375,0.125,50,140.0
1020,A4,84.5,0.125,50,140.0
1021,A4,84.625,0.125,50,140.0
1022,A4,84.75,0.125,50,140.0
1023,A4,84.875,0.125,50,140.0
1024,A5,85.0,3.0,45,140.0
1025,A5,85.0,3.0,50,140.0
1026,A5,85.0,0.125,50,140.0
1027,B-2,85.0,1.0,64,140.0
1028,D2,85.0,0.5,90,140.0
1029,A5,85.125,0.125,50,140.0
1030,A5,85.25,0.125,50,140.0
1031,A5,85.375,0.125,50,140.0
1032,B-2,85.5,0.25,55,140.0
1033,A5,85.5,0.125,50,140.0
1034,C2,85.5,0.25,110,140.0
1035,A5,85.625,0.125,50,140.0
1036,B-2,85.75,0.25,55,140.0
1037,A5,85.75,0.125,50,140.0
1038,C2,85.75,0.25,110,140.0
1039,A5,85.875,0.125,50,140.0
1040,A5,86.0,0.125,50,140.0
1041,B-2,86.0,1.0,64,140.0
1042,A5,86.125,0.125,50,140.0
1043,A5,86.25,0.125,50,140.0
1044,A5,86.375,0.125,50,140.0
1045,A5,86.5,0.125,50,140.0
1046,A5,86.625,0.125,50,140.0
1047,A5,86.75,0.125,50,140.0
1048,A5,86.875,0.125,50,140.0
1049,A5,87.0,0.125,50,140.0
1050,B-2,87.0,1.0,64,140.0
1051,D2,87.0,0.5,90,140.0
1052,A5,87.125,0.125,50,140.0
1053,A5,87.25,0.125,50,140.0
1054,A5,87.375,0.125,50,140.0
1055,F2,87.5,0.25,55,140.0
1056,A5,87.5,0.125,50,140.0
1057,C2,87.5,0.25,110,140.0
1058,A5,87.625,0.125,50,140.0
1059,G2,87.75,0.25,55,140.0
1060,A5,87.75,0.125,50,140.0
1061,C2,87.75,0.25,110,140.0
1062,A5,87.875,0.125,50,140.0
1063,A5,88.0,2.0,45,140.0
1064,A2,88.0,0.25,55,140.0
1065,A5,88.0,2.0,50,140.0
1066,A5,88.0,0.125,50,140.0
1067,B-2,88.0,1.0,64,140.0
1068,C2,88.0,0.25,110,140.0
1069,A5,88.125,0.125,50,140.0
1070,B-2,88.25,0.25,55,140.0
1071,A5,88.25,0.125,50,140.0
1072,C2,88.25,0.25,110,140.0
1073,A5,88.375,0.125,50,140.0
1074,B-2,88.5,0.25,55,140.0
1075,A5,88.5,0.125,50,140.0
1076,A5,88.625,0.125,50,140.0
1077,B-2,88.75,0.25,55,140.0
1078,A5,88.75,0.125,50,140.0
1079,A5,88.875,0.125,50,140.0
1080,B-2,89.0,0.5,55,140.0
1081,A5,89.0,0.125,50,140.0
1082,B-2,89.0,1.0,64,140.0
1083,D2,89.0,0.5,90,140.0
1084,A5,89.125,0.125,50,140.0
1085,A5,89.25,0.125,50,140.0
1086,A5,89.375,0.125,50,140.0
1087,A5,89.5,0.5,50,140.0
1088,C2,89.5,0.25,110,140.0
1089,C2,89.75,0.25,110,140.0
1090,A5,90.0,2.0,45,140.0
1091,A5,90.0,2.0,50,140.0
1092,A5,90.0,0.125,50,140.0
1093,B-2,90.0,1.0,64,140.0
1094,A5,90.125,0.125,50,140.0
1095,A5,90.25,0.125,50,140.0
1096,A5,90.375,0.125,50,140.0
1097,B-2,90.5,1.0,55,140.0
1098,A5,90.5,0.125,50,140.0
1099,A5,90.625,0.125,50,140.0
1100,A5,90.75,0.125,50,140.0
1101,A5,90.875,0.125,50,140.0
1102,A5,91.0,0.125,50,140.0
1103,B-2,91.0,1.0,64,140.0
1104,D2,91.0,0.5,90,140.0
1105,A5,91.125,0.125,50,140.0
1106,A5,91.25,0.125,50,140.0
1107,A5,91.375,0.125,50,140.0
1108,F2,91.5,0.25,55,140.0
1109,A5,91.5,0.125,50,140.0
1110,C2,91.5,0.25,110,140.0
1111,A5,91.625,0.125,50,140.0
1112,F2,91.75,0.25,55,140.0
1113,A5,91.75,0.125,50,140.0
1114,C2,91.75,0.25,110,140.0
1115,A5,91.875,0.125,50,140.0
1116,A5,92.0,3.0,45,140.0
1117,B-2,92.0,0.25,55,140.0
1118,A5,92.0,3.0,50,140.0
1119,A5,92.0,0.125,50,140.0
1120,B-2,92.0,1.0,64,140.0
1121,C2,92.0,0.25,110,140.0
1122,A5,92.125,0.125,50,140.0
1123,B-2,92.25,0.25,55,140.0
1124,A5,92.25,0.125,50,140.0
1125,C2,92.25,0.25,110,140.0
1126,A5,92.375,0.125,50,140.0
1127,A5,92.5,0.125,50,140.0
1128,A5,92.625,0.125,50,140.0
1129,A5,92.75,0.125,50,140.0
1130,A5,92.875,0.125,50,140.0
1131,A5,93.0,0.125,50,140.0
1132,B-2,93.0,1.0,64,140.0
1133,D2,93.0,0.5,90,140.0
1134,A5,93.125,0.125,50,140.0
1135,A5,93.25,0.125,50,140.0
1136,A5,93.375,0.125,50,140.0
1137,B-2,93.5,0.25,55,140.0
1138,A5,93.5,0.125,50,140.0
1139,C2,93.5,0.25,110,140.0
1140,A5,93.625,0.125,50,140.0
1141,B-2,93.75,0.25,55,140.0
1142,A5,93.75,0.125,50,140.0
1143,C2,93.75,0.25,110,140.0
1144,A5,93.875,0.125,50,140.0
1145,A5,94.0,0.125,50,140.0
1146,B-2,94.0,1.0,64,140.0
1147,A5,94.125,0.125,50,140.0
1148,A5,94.25,0.125,50,140.0
1149,A5,94.375,0.125,50,140.0
1150,B-2,94.5,0.5,55,140.0
1151,A4,95.0,1.0,45,140.0
1152,A2,95.0,0.5,55,140.0
1153,A4,95.0,1.0,50,140.0
1154,A4,95.0,0.125,50,140.0
1155,B-2,95.0,1.0,64,140.0
1156,D2,95.0,0.5,90,140.0
1157,A4,95.125,0.125,50,140.0
1158,A4,95.25,0.125,50,140.0
1159,A4,95.375,0.125,50,140.0
1160,G#2,95.5,0.5,55,140.0
1161,A4,95.5,0.125,50,140.0
1162,C2,95.5,0.25,110,140.0
1163,A4,95.625,0.125,50,140.0
1164,A4,95.75,0.125,50,140.0
1165,C2,95.75,0.25,110,140.0
1166,A4,95.875,0.125,50,140.0
1167,A4,96.0,4.0,45,140.0
1168,G2,96.0,0.25,55,140.0
1169,A4,96.0,4.0,50,140.0
1170,A4,96.0,0.125,50,140.0
1171,B-2,96.0,1.0,64,140.0
1172,C2,96.0,0.25,110,140.0
1173,A4,96.125,0.125,50,140.0
1174,G2,96.25,0.25,55,140.0
1175,A4,96.25,0.125,50,140.0
1176,C2,96.25,0.25,110,140.0
1177,A4,96.375,0.125,50,140.0
1178,A4,96.5,0.125,50,140.0
1179,A4,96.625,0.125,50,140.0
1180,A4,96.75,0.125,50,140.0
1181,A4,96.875,0.125,50,140.0
1182,A4,97.0,0.125,50,140.0
1183,B-2,97.0,1.0,64,140.0
1184,D2,97.0,0.5,90,140.0
1185,A4,97.125,0.125,50,140.0
1186,A4,97.25,0.125,50,140.0
1187,A4,97.375,0.125,50,140.0
1188,G2,97.5,0.25,55,140.0
1189,A4,97.5,0.125,50,140.0
1190,C2,97.5,0.25,110,140.0
1191,A4,97.625,0.125,50,140.0
1192,G2,97.75,0.25,55,140.0
1193,A4,97.75,0.125,50,140.0
1194,C2,97.75,0.25,110,140.0
1195,A4,97.875,0.125,50,140.0
1196,A4,98.0,0.125,50,140.0
1197,B-2,98.0,1.0,64,140.0
1198,A4,98.125,0.125,50,140.0
1199,A4,98.25,0.125,50,140.0
1200,A4,98.375,0.125,50,140.0
1201,A4,98.5,0.125,50,140.0
1202,A4,98.625,0.125,50,140.0
1203,A4,98.75,0.125,50,140.0
1204,A4,98.875,0.125,50,140.0
1205,A4,99.0,0.125,50,140.0
1206,B-2,99.0,1.0,64,140.0
1207,D2,99.0,0.5,90,140.0
1208,B4,99.125,0.125,50,140.0
1209,C5,99.25,0.125,50,140.0
1210,D5,99.375,0.125,50,140.0
1211,D2,99.5,0.25,55,140.0
1212,E5,99.5,0.125,50,140.0
1213,C2,99.5,0.25,110,140.0
1214,F5,99.625,0.125,50,140.0
1215,E2,99.75,0.25,55,140.0
1216,G5,99.75,0.125,50,140.0
1217,C2,99.75,0.25,110,140.0
1218,A5,99.875,0.125,50,140.0
1219,B5,100.0,4.0,45,140.0
1220,G2,100.0,0.25,55,140.0
1221,B5,100.0,4.0,50,140.0
1222,B5,100.0,0.125,50,140.0
1223,B-2,100.0,1.0,64,140.0
1224,C2,100.0,0.25,110,140.0
1225,B5,100.125,0.125,50,140.0
1226,G2,100.25,0.25,55,140.0
1227,B5,100.25,0.125,50,140.0
1228,C2,100.25,0.25,110,140.0
1229,B5,100.375,0.125,50,140.0
1230,B5,100.5,0.125,50,140.0
1231,B5,100.625,0.125,50,140.0
1232,B5,100.75,0.125,50,140.0
1233,B5,100.875,0.125,50,140.0
1234,B5,101.0,0.125,50,140.0
1235,B-2,101.0,1.0,64,140.0
1236,D2,101.0,0.5,90,140.0
1237,B5,101.125,0.125,50,140.0
1238,B5,101.25,0.125,50,140.0
1239,B5,101.375,0.125,50,140.0
1240,G2,101.5,0.25,55,140.0
1241,B5,101.5,0.125,50,140.0
1242,C2,101.5,0.25,110,140.0
1243,B5,101.625,0.125,50,140.0
1244,G2,101.75,0.25,55,140.0
1245,B5,101.75,0.125,50,140.0
1246,C2,101.75,0.25,110,140.0
1247,B5,101.875,0.125,50,140.0
1248,B5,102.0,0.125,50,140.0
1249,B-2,102.0,1.0,64,140.0
1250,B5,102.125,0.125,50,140.0
1251,B5,102.25,0.125,50,140.0
1252,B5,102.375,0.125,50,140.0
1253,B5,102.5,0.125,50,140.0
1254,B5,102.625,0.125,50,140.0
1255,B5,102.75,0.125,50,140.0
1256,B5,102.875,0.125,50,140.0
1257,B5,103.0,0.125,50,140.0
1258,B-2,103.0,1.0,64,140.0
1259,D2,103.0,0.5,90,140.0
1260,B5,103.125,0.125,50,140.0
1261,B5,103.25,0.125,50,140.0
1262,B5,103.375,0.125,50,140.0
1263,D3,103.5,0.25,55,140.0
1264,B5,103.5,0.125,50,140.0
1265,C2,103.5,0.25,110,140.0
1266,B5,103.625,0.125,50,140.0
1267,D3,103.75,0.25,55,140.0
1268,B5,103.75,0.125,50,140.0
1269,C2,103.75,0.25,110,140.0
1270,B5,103.875,0.125,50,140.0
1271,B5,104.0,1.0,45,140.0
1272,G2,104.0,0.25,55,140.0
1273,B5,104.0,1.0,50,140.0
1274,B5,104.0,0.125,50,140.0
1275,B-2,104.0,1.0,64,140.0
1276,C2,104.0,0.25,110,140.0
1277,B5,104.125,0.125,50,140.0
1278,G2,104.25,0.25,55,140.0
1279,B5,104.25,0.125,50,140.0
1280,C2,104.25,0.25,110,140.0
1281,B5,104.375,0.125,50,140.0
1282,B5,104.5,0.5,50,140.0
1283,C#5,105.0,3.0,45,140.0
1284,C#5,105.0,3.0,50,140.0
1285,C#5,105.0,0.125,50,140.0
1286,B-2,105.0,1.0,64,140.0
1287,D2,105.0,0.5,90,140.0
1288,C#5,105.125,0.125,50,140.0
1289,C#5,105.25,0.125,50,140.0
1290,C#5,105.375,0.125,50,140.0
1291,G2,105.5,0.25,55,140.0
1292,C#5,105.5,0.125,50,140.0
1293,C2,105.5,0.25,110,140.0
1294,C#5,105.625,0.125,50,140.0
1295,G2,105.75,0.25,55,140.0
1296,C#5,105.75,0.125,50,140.0
1297,C2,105.75,0.25,110,140.0
1298,C#5,105.875,0.125,50,140.0
1299,C#5,106.0,0.125,50,140.0
1300,B-2,106.0,1.0,64,140.0
1301,C#5,106.125,0.125,50,140.0
1302,C#5,106.25,0.125,50,140.0
1303,C#5,106.375,0.125,50,140.0
1304,C#5,106.5,0.125,50,140.0
1305,C#5,106.625,0.125,50,140.0
1306,C#5,106.75,0.125,50,140.0
1307,C#5,106.875,0.125,50,140.0
1308,C#5,107.0,0.125,50,140.0
1309,B-2,107.0,1.0,64,140.0
1310,D2,107.0,0.5,90,140.0
1311,C#5,107.125,0.125,50,140.0
1312,C#5,107.25,0.125,50,140.0
1313,C#5,107.375,0.125,50,140.0
1314,D2,107.5,0.25,55,140.0
1315,C#5,107.5,0.125,50,140.0
1316,C2,107.5,0.25,110,140.0
1317,C#5,107.625,0.125,50,140.0
1318,E2,107.75,0.25,55,140.0
1319,C#5,107.75,0.125,50,140.0
1320,C2,107.75,0.25,110,140.0
1321,C#5,107.875,0.125,50,140.0
1322,C#5,108.0,2.0,45,140.0
1323,G2,108.0,0.25,55,140.0
1324,C#5,108.0,2.0,50,140.0
1325,C#5,108.0,0.125,50,140.0
1326,B-2,108.0,1.0,64,140.0
1327,C2,108.0,0.25,110,140.0
1328,C#5,108.125,0.125,50,140.0
1329,G2,108.25,0.25,55,140.0
1330,C#5,108.25,0.125,50,140.0
1331,C2,108.25,0.25,110,140.0
1332,C#5,108.375,0.125,50,140.0
1333,C#5,108.5,0.125,50,140.0
1334,C#5,108.625,0.125,50,140.0
1335,C#5,108.75,0.125,50,140.0
1336,C#5,108.875,0.125,50,140.0
1337,C#5,109.0,0.125,50,140.0
1338,B-2,109.0,1.0,64,140.0
1339,D2,109.0,0.5,90,140.0
1340,C#5,109.125,0.125,50,140.0
1341,C#5,109.25,0.125,50,140.0
1342,C#5,109.375,0.125,50,140.0
1343,G2,109.5,0.25,55,140.0
1344,C#5,109.5,0.125,50,140.0
1345,C2,109.5,0.25,110,140.0
1346,C#5,109.625,0.125,50,140.0
1347,G2,109.75,0.25,55,140.0
1348,C#5,109.75,0.125,50,140.0
1349,C2,109.75,0.25,110,140.0
1350,C#5,109.875,0.125,50,140.0
1351,E5,110.0,2.0,45,140.0
1352,E5,110.0,2.0,50,140.0
1353,E5,110.0,0.125,50,140.0
1354,B-2,110.0,1.0,64,140.0
1355,E5,110.125,0.125,50,140.0
1356,E5,110.25,0.125,50,140.0
1357,E5,110.375,0.125,50,140.0
1358,G2,110.5,0.5,55,140.0
1359,E5,110.5,0.125,50,140.0
1360,E5,110.625,0.125,50,140.0
1361,E5,110.75,0.125,50,140.0
1362,E5,110.875,0.125,50,140.0
1363,G#2,111.0,0.5,55,140.0
1364,E5,111.0,0.125,50,140.0
1365,B-2,111.0,1.0,64,140.0
1366,D2,111.0,0.5,90,140.0
1367,E5,111.125,0.125,50,140.0
1368,E5,111.25,0.125,50,140.0
1369,E5,111.375,0.125,50,140.0
1370,A2,111.5,0.5,55,140.0
1371,E5,111.5,0.125,50,140.0
1372,C2,111.5,0.25,110,140.0
1373,E5,111.625,0.125,50,140.0
1374,E5,111.75,0.125,50,140.0
1375,C2,111.75,0.25,110,140.0
1376,E5,111.875,0.125,50,140.0
1377,E5,112.0,3.0,45,140.0
1378,B-2,112.0,0.25,55,140.0
1379,E5,112.0,3.0,50,140.0
1380,E5,112.0,0.125,50,140.0
1381,B-2,112.0,1.0,64,140.0
1382,C2,112.0,0.25,110,140.0
1383,E5,112.125,0.125,50,140.0
1384,B-2,112.25,0.25,55,140.0
1385,E5,112.25,0.125,50,140.0
1386,C2,112.25,0.25,110,140.0
1387,E5,112.375,0.125,50,140.0
1388,E5,112.5,0.125,50,140.0
1389,E5,112.625,0.125,50,140.0
1390,E5,112.75,0.125,50,140.0
1391,E5,112.875,0.125,50,140.0
1392,E5,113.0,0.125,50,140.0
1393,B-2,113.0,1.0,64,140.0
1394,D2,113.0,0.5,90,140.0
1395,E5,113.125,0.125,50,140.0
1396,E5,113.25,0.125,50,140.0
1397,E5,113.375,0.125,50,140.0
1398,B-2,113.5,0.25,55,140.0
1399,E5,113.5,0.125,50,140.0
1400,C2,113.5,0.25,110,140.0
1401,E5,113.625,0.125,50,140.0
1402,B-2,113.75,0.25,55,140.0
1403,E5,113.75,0.125,50,140.0
1404,C2,113.75,0.25,110,140.0
1405,E5,113.875,0.125,50,140.0
1406,E5,114.0,0.125,50,140.0
1407,B-2,114.0,1.0,64,140.0
1408,E5,114.125,0.125,50,140.0
1409,E5,114.25,0.125,50,140.0
1410,E5,114.375,0.125,50,140.0
1411,E5,114.5,0.125,50,140.0
1412,E5,114.625,0.125,50,140.0
1413,E5,114.75,0.125,50,140.0
1414,E5,114.875,0.125,50,140.0
1415,C#5,115.0,1.0,45,140.0
1416,C#5,115.0,1.0,50,140.0
1417,C#5,115.0,0.125,50,140.0
1418,B-2,115.0,1.0,64,140.0
1419,D2,115.0,0.5,90,140.0
1420,C#5,115.125,0.125,50,140.0
1421,C#5,115.25,0.125,50,140.0
1422,C#5,115.375,0.125,50,140.0
1423,F2,115.5,0.25,55,140.0
1424,C#5,115.5,0.125,50,140.0
1425,C2,115.5,0.25,110,140.0
1426,C#5,115.625,0.125,50,140.0
1427,G2,115.75,0.25,55,140.0
1428,C#5,115.75,0.125,50,140.0
1429,C2,115.75,0.25,110,140.0
1430,C#5,115.875,0.125,50,140.0
1431,C#5,116.0,3.0,45,140.0
1432,A2,116.0,0.25,55,140.0
1433,C#5,116.0,3.0,50,140.0
1434,C#5,116.0,0.125,50,140.0
1435,B-2,116.0,1.0,64,140.0
1436,C2,116.0,0.25,110,140.0
1437,C#5,116.125,0.125,50,140.0
1438,B-2,116.25,0.25,55,140.0
1439,C#5,116.25,0.125,50,140.0
1440,C2,116.25,0.25,110,140.0
1441,C#5,116.375,0.125,50,140.0
1442,B-2,116.5,0.25,55,140.0
1443,C#5,116.5,0.125,50,140.0
1444,C#5,116.625,0.125,50,140.0
1445,B-2,116.75,0.25,55,140.0
1446,C#5,116.75,0.125,50,140.0
1447,C#5,116.875,0.125,50,140.0
1448,B-2,117.0,0.5,55,140.0
1449,C#5,117.0,0.125,50,140.0
1450,B-2,117.0,1.0,64,140.0
1451,D2,117.0,0.5,90,140.0
1452,C#5,117.125,0.125,50,140.0
1453,C#5,117.25,0.125,50,140.0
1454,C#5,117.375,0.125,50,140.0
1455,C#5,117.5,0.125,50,140.0
1456,C2,117.5,0.25,110,140.0
1457,C#5,117.625,0.125,50,140.0
1458,C#5,117.75,0.125,50,140.0
1459,C2,117.75,0.25,110,140.0
1460,C#5,117.875,0.125,50,140.0
1461,C#5,118.0,0.125,50,140.0
1462,B-2,118.0,1.0,64,140.0
1463,C#5,118.125,0.125,50,140.0
1464,C#5,118.25,0.125,50,140.0
1465,C#5,118.375,0.125,50,140.0
1466,C3,118.5,1.0,55,140.0
1467,C#5,118.5,0.125,50,140.0
1468,C#5,118.625,0.125,50,140.0
1469,C#5,118.75,0.125,50,140.0
1470,C#5,118.875,0.125,50,140.0
1471,B-2,119.0,1.0,64,140.0
1472,D2,119.0,0.5,90,140.0
1473,D3,119.5,0.5,55,140.0
1474,C2,119.5,0.25,110,140.0
1475,C2,119.75,0.25,110,140.0
1476,B4,120.0,0.5,45,140.0
1477,B2,120.0,0.5,55,140.0
1478,B4,120.0,0.5,50,140.0
1479,B4,120.0,0.5,50,140.0
1480,D2,120.0,0.5,90,140.0
1481,G#2,120.0,1.0,80,140.0
1482,C5,120.5,0.5,45,140.0
1483,C3,120.5,0.5,55,140.0
1484,C5,120.5,0.5,50,140.0
1485,C5,120.5,0.5,50,140.0
1486,C2,120.5,0.5,110,140.0
1487,C5,121.0,0.333,45,140.0
1488,C3,121.0,0.333,55,140.0
1489,C5,121.0,0.333,50,140.0
1490,C5,121.0,0.333,50,140.0
1491,D2,121.0,0.333,90,140.0
1492,G#2,121.0,1.0,80,140.0
1493,A4,121.333,0.334,45,140.0
1494,A2,121.333,0.334,55,140.0
1495,A4,121.333,0.334,50,140.0
1496,A4,121.333,0.334,50,140.0
1497,C2,121.333,0.334,110,140.0
1498,D5,121.667,0.333,45,140.0
1499,D3,121.667,0.333,55,140.0
1500,D5,121.667,0.333,50,140.0
1501,D5,121.667,0.333,50,140.0
1502,D2,121.667,0.333,90,140.0
1503,E-5,122.0,0.4,45,140.0
1504,E-3,122.0,0.4,55,140.0
1505,E-5,122.0,0.4,50,140.0
1506,E-5,122.0,0.4,50,140.0
1507,D3,122.0,0.4,64,140.0
1508,G#2,122.0,1.0,80,140.0
1509,G4,122.4,0.399,45,140.0
1510,G2,122.4,0.399,55,140.0
1511,G4,122.4,0.399,50,140.0
1512,G4,122.4,0.399,50,140.0
1513,D2,122.4,0.399,90,140.0
1514,G4,122.8,0.4,45,140.0
1515,G2,122.8,0.4,55,140.0
1516,G4,122.8,0.4,50,140.0
1517,G4,122.8,0.4,50,140.0
1518,C3,122.8,0.4,64,140.0
1519,G#2,123.0,1.0,80,140.0
1520,A4,123.2,0.399,45,140.0
1521,A2,123.2,0.399,55,140.0
1522,A4,123.2,0.399,50,140.0
1523,A4,123.2,0.399,50,140.0
1524,A2,123.2,0.399,64,140.0
1525,F4,123.6,0.4,45,140.0
1526,F2,123.6,0.4,55,140.0
1527,F4,123.6,0.4,50,140.0
1528,F4,123.6,0.4,50,140.0
1529,G2,123.6,0.4,64,140.0
1530,E4,124.0,0.667,45,140.0
1531,E2,124.0,0.667,55,140.0
1532,E4,124.0,0.667,50,140.0
1533,E4,124.0,0.667,50,140.0
1534,C2,124.0,0.667,87,140.0
1535,B-2,124.0,0.667,87,140.0
1536,G4,124.667,0.666,45,140.0
1537,G2,124.667,0.666,55,140.0
1538,G4,124.667,0.666,50,140.0
1539,G4,124.667,0.666,50,140.0
1540,G#2,124.667,0.666,64,140.0
1541,C3,124.667,0.666,64,140.0
1542,G4,125.333,0.667,45,140.0
1543,G2,125.333,0.667,55,140.0
1544,G4,125.333,0.667,50,140.0
1545,G4,125.333,0.667,50,140.0
1546,G2,125.333,0.667,64,140.0
1547,B-2,125.333,0.667,64,140.0
1548,F4,126.0,0.667,45,140.0
1549,F2,126.0,0.667,55,140.0
1550,F4,126.0,0.667,50,140.0
1551,F4,126.0,0.667,50,140.0
1552,G#2,126.0,0.667,64,140.0
1553,C3,126.0,0.667,64,140.0
1554,F4,126.667,0.666,45,140.0
1555,F2,126.667,0.666,55,140.0
1556,F4,126.667,0.666,50,140.0
1557,F4,126.667,0.666,50,140.0
1558,G2,126.667,0.666,64,140.0
1559,B-2,126.667,0.666,64,140.0
1560,D5,127.333,0.667,45,140.0
1561,D3,127.333,0.667,55,140.0
1562,D5,127.333,0.667,50,140.0
1563,D5,127.333,0.667,50,140.0
1564,G#2,127.333,0.667,64,140.0
1565,C3,127.333,0.667,64,140.0
1566,C#5,128.0,4.0,45,140.0
1567,D2,128.0,1.75,55,140.0
1568,C#5,128.0,4.0,50,140.0
1569,C#5,128.0,0.125,50,140.0
1570,C3,128.0,0.25,64,140.0
1571,G#2,128.0,1.0,64,140.0
1572,C#5,128.125,0.125,50,140.0
1573,C#5,128.25,0.125,50,140.0
1574,D2,128.25,0.25,90,140.0
1575,C#5,128.375,0.125,50,140.0
1576,C#5,128.5,0.125,50,140.0
1577,G2,128.5,0.25,64,140.0
1578,C#5,128.625,0.125,50,140.0
1579,C#5,128.75,0.125,50,140.0
1580,B-2,128.75,0.25,64,140.0
1581,C#5,128.875,0.125,50,140.0
1582,C#5,129.0,0.125,50,140.0
1583,A2,129.0,0.179,64,140.0
1584,G#2,129.0,1.0,64,140.0
1585,C#5,129.125,0.125,50,140.0
1586,G2,129.179,0.179,64,140.0
1587,C#5,129.25,0.125,50,140.0
1588,B-2,129.357,0.179,64,140.0
1589,C#5,129.375,0.125,50,140.0
1590,C#5,129.5,0.125,50,140.0
1591,G#3,129.536,0.178,64,140.0
1592,C#5,129.625,0.125,50,140.0
1593,G#3,129.714,0.179,64,140.0
1594,A2,129.75,0.125,55,140.0
1595,C#5,129.75,0.125,50,140.0
1596,A2,129.875,0.125,55,140.0
1597,C#5,129.875,0.125,50,140.0
1598,C3,129.893,0.179,64,140.0
1599,D2,130.0,1.5,55,140.0
1600,C#5,130.0,0.125,50,140.0
1601,G#2,130.0,1.0,64,140.0
1602,D2,130.071,0.179,90,140.0
1603,C#5,130.125,0.125,50,140.0
1604,C#5,130.25,0.125,50,140.0
1605,G2,130.25,0.25,64,140.0
1606,C#5,130.375,0.125,50,140.0
1607,C#5,130.5,0.125,50,140.0
1608,D3,130.5,0.25,64,140.0
1609,C#5,130.625,0.125,50,140.0
1610,C#5,130.75,0.125,50,140.0
1611,C3,130.75,0.25,64,140.0
1612,C#5,130.875,0.125,50,140.0
1613,C#5,131.0,0.125,50,140.0
1614,D2,131.0,0.25,90,140.0
1615,G#2,131.0,1.0,64,140.0
1616,C#5,131.125,0.125,50,140.0
1617,C#5,131.25,0.125,50,140.0
1618,C3,131.25,0.25,64,140.0
1619,C#5,131.375,0.125,50,140.0
1620,E2,131.5,0.5,55,140.0
1621,C#5,131.5,0.125,50,140.0
1622,G2,131.5,0.25,64,140.0
1623,C#5,131.625,0.125,50,140.0
1624,C#5,131.75,0.125,50,140.0
1625,F2,131.75,0.25,64,140.0
1626,C#5,131.875,0.125,50,140.0
1627,C#5,132.0,4.0,45,140.0
1628,D2,132.0,1.75,55,140.0
1629,C#5,132.0,4.0,50,140.0
1630,C#5,132.0,0.125,50,140.0
1631,G#3,132.0,0.25,64,140.0
1632,G#2,132.0,1.0,64,140.0
1633,C#5,132.125,0.125,50,140.0
1634,C#5,132.25,0.125,50,140.0
1635,A2,132.25,0.25,64,140.0
1636,C#5,132.375,0.125,50,140.0
1637,C#5,132.5,0.125,50,140.0
1638,C3,132.5,0.25,64,140.0
1639,C#5,132.625,0.125,50,140.0
1640,C#5,132.75,0.125,50,140.0
1641,G#3,132.75,0.25,64,140.0
1642,C#5,132.875,0.125,50,140.0
1643,C#5,133.0,0.125,50,140.0
1644,G#3,133.0,0.25,64,140.0
1645,G#2,133.0,1.0,64,140.0
1646,C#5,133.125,0.125,50,140.0
1647,C#5,133.25,0.125,50,140.0
1648,A2,133.25,0.25,64,140.0
1649,C#5,133.375,0.125,50,140.0
1650,C#5,133.5,0.125,50,140.0
1651,C3,133.5,0.25,64,140.0
1652,C#5,133.625,0.125,50,140.0
1653,A2,133.75,0.125,55,140.0
1654,C#5,133.75,0.125,50,140.0
1655,A2,133.75,0.25,64,140.0
1656,A2,133.875,0.125,55,140.0
1657,C#5,133.875,0.125,50,140.0
1658,D2,134.0,1.5,55,140.0
1659,C#5,134.0,0.125,50,140.0
1660,D2,134.0,0.25,90,140.0
1661,G#2,134.0,1.0,64,140.0
1662,C#5,134.125,0.125,50,140.0
1663,C#5,134.25,0.125,50,140.0
1664,G2,134.25,0.25,64,140.0
1665,C#5,134.375,0.125,50,140.0
1666,C#5,134.5,0.125,50,140.0
1667,F2,134.5,0.25,64,140.0
1668,C#5,134.625,0.125,50,140.0
1669,C#5,134.75,0.125,50,140.0
1670,C3,134.75,0.25,64,140.0
1671,C#5,134.875,0.125,50,140.0
1672,C#5,135.0,0.125,50,140.0
1673,G2,135.0,0.25,64,140.0
1674,G#2,135.0,1.0,64,140.0
1675,C#5,135.125,0.125,50,140.0
1676,C#5,135.25,0.125,50,140.0
1677,F2,135.25,0.25,64,140.0
1678,C#5,135.375,0.125,50,140.0
1679,E2,135.5,0.5,55,140.0
1680,C#5,135.5,0.125,50,140.0
1681,A2,135.5,0.25,64,140.0
1682,C#5,135.625,0.125,50,140.0
1683,C#5,135.75,0.125,50,140.0
1684,C3,135.75,0.25,64,140.0
1685,C#5,135.875,0.125,50,140.0
1686,C#5,136.0,4.0,45,140.0
1687,D2,136.0,1.75,55,140.0
1688,C#5,136.0,4.0,50,140.0
1689,C#5,136.0,0.125,50,140.0
1690,D2,136.0,0.4,90,140.0
1691,G#2,136.0,1.0,64,140.0
1692,C#5,136.125,0.125,50,140.0
1693,C#5,136.25,0.125,50,140.0
1694,C#5,136.375,0.125,50,140.0
1695,C2,136.4,0.399,110,140.0
1696,C#5,136.5,0.125,50,140.0
1697,C#5,136.625,0.125,50,140.0
1698,C#5,136.75,0.125,50,140.0
1699,C3,136.8,0.4,64,140.0
1700,C#5,136.875,0.125,50,140.0
1701,C#5,137.0,0.125,50,140.0
1702,G#2,137.0,1.0,64,140.0
1703,C#5,137.125,0.125,50,140.0
1704,G2,137.2,0.399,64,140.0
1705,C#5,137.25,0.125,50,140.0
1706,C#5,137.375,0.125,50,140.0
1707,C#5,137.5,0.125,50,140.0
1708,F2,137.6,0.4,64,140.0
1709,C#5,137.625,0.125,50,140.0
1710,A2,137.75,0.125,55,140.0
1711,C#5,137.75,0.125,50,140.0
1712,A2,137.875,0.125,55,140.0
1713,C#5,137.875,0.125,50,140.0
1714,D2,138.0,1.5,55,140.0
1715,C#5,138.0,0.125,50,140.0
1716,D2,138.0,0.4,90,140.0
1717,G#2,138.0,1.0,64,140.0
1718,C#5,138.125,0.125,50,140.0
1719,C#5,138.25,0.125,50,140.0
1720,C#5,138.375,0.125,50,140.0
1721,C2,138.4,0.399,110,140.0
1722,C#5,138.5,0.125,50,140.0
1723,C#5,138.625,0.125,50,140.0
1724,C#5,138.75,0.125,50,140.0
1725,C3,138.8,0.4,64,140.0
1726,C#5,138.875,0.125,50,140.0
1727,C#5,139.0,0.125,50,140.0
1728,G#2,139.0,1.0,64,140.0
1729,C#5,139.125,0.125,50,140.0
1730,G2,139.2,0.399,64,140.0
1731,C#5,139.25,0.125,50,140.0
1732,C#5,139.375,0.125,50,140.0
1733,E2,139.5,0.5,55,140.0
1734,C#5,139.5,0.125,50,140.0
1735,F2,139.6,0.4,64,140.0
1736,C#5,139.625,0.125,50,140.0
1737,C#5,139.75,0.125,50,140.0
1738,C#5,139.875,0.125,50,140.0
1739,C#5,140.0,3.0,45,140.0
1740,D2,140.0,1.75,55,140.0
1741,C#5,140.0,3.0,50,140.0
1742,C#5,140.0,0.125,50,140.0
1743,C2,140.0,1.0,87,140.0
1744,G#2,140.0,1.0,87,140.0
1745,C#5,140.125,0.125,50,140.0
1746,C#5,140.25,0.125,50,140.0
1747,C#5,140.375,0.125,50,140.0
1748,C#5,140.5,0.125,50,140.0
1749,C#5,140.625,0.125,50,140.0
1750,C#5,140.75,0.125,50,140.0
1751,C#5,140.875,0.125,50,140.0
1752,C#5,141.0,0.125,50,140.0
1753,D2,141.0,0.125,90,140.0
1754,G#2,141.0,1.0,64,140.0
1755,C#5,141.125,0.125,50,140.0
1756,D2,141.125,0.125,90,140.0
1757,C#5,141.25,0.125,50,140.0
1758,D2,141.25,0.125,90,140.0
1759,C#5,141.375,0.125,50,140.0
1760,D2,141.375,0.125,90,140.0
1761,C#5,141.5,0.125,50,140.0
1762,D2,141.5,0.125,90,140.0
1763,C#5,141.625,0.125,50,140.0
1764,D2,141.625,0.125,90,140.0
1765,A2,141.75,0.125,55,140.0
1766,C#5,141.75,0.125,50,140.0
1767,D2,141.75,0.125,90,140.0
1768,A2,141.875,0.125,55,140.0
1769,C#5,141.875,0.125,50,140.0
1770,D2,141.875,0.125,90,140.0
1771,D2,142.0,1.5,55,140.0
1772,C#5,142.0,0.125,50,140.0
1773,D2,142.0,0.125,90,140.0
1774,G#2,142.0,1.0,64,140.0
1775,C#5,142.125,0.125,50,140.0
1776,D2,142.125,0.125,90,140.0
1777,C#5,142.25,0.125,50,140.0
1778,D2,142.25,0.125,90,140.0
1779,C#5,142.375,0.125,50,140.0
1780,D2,142.375,0.125,90,140.0
1781,C#5,142.5,0.125,50,140.0
1782,C#5,142.625,0.125,50,140.0
1783,C#5,142.75,0.125,50,140.0
1784,C#5,142.875,0.125,50,140.0
1785,D2,143.0,1.0,77,140.0
1786,G#2,143.0,1.0,77,140.0
1787,E2,143.5,0.5,55,140.0
1788,B5,144.0,1.25,45,140.0
1789,D2,144.0,0.25,55,140.0
1790,B5,144.0,1.25,50,140.0
1791,B5,144.0,1.25,50,140.0
1792,B-2,144.0,1.0,64,140.0
1793,C2,144.0,0.25,110,140.0
1794,D2,144.25,0.25,55,140.0
1795,C2,144.25,0.25,110,140.0
1796,B-2,145.0,1.0,64,140.0
1797,A5,145.25,0.25,45,140.0
1798,A5,145.25,0.25,50,140.0
1799,A5,145.25,0.25,50,140.0
1800,G#5,145.5,0.25,45,140.0
1801,D2,145.5,0.25,55,140.0
1802,G#5,145.5,0.25,50,140.0
1803,G#5,145.5,0.25,50,140.0
1804,C2,145.5,0.25,110,140.0
1805,D6,145.75,0.25,45,140.0
1806,D2,145.75,0.25,55,140.0
1807,D6,145.75,0.25,50,140.0
1808,D6,145.75,0.25,50,140.0
1809,C2,145.75,0.25,110,140.0
1810,E5,146.0,0.333,45,140.0
1811,E5,146.0,0.333,50,140.0
1812,E5,146.0,0.333,50,140.0
1813,B-2,146.0,1.0,64,140.0
1814,B5,146.333,0.334,45,140.0
1815,B5,146.333,0.334,50,140.0
1816,B5,146.333,0.334,50,140.0
1817,A5,146.667,0.333,45,140.0
1818,A5,146.667,0.333,50,140.0
1819,A5,146.667,0.333,50,140.0
1820,C#6,147.0,0.2,45,140.0
1821,C#6,147.0,0.2,50,140.0
1822,C#6,147.0,0.2,50,140.0
1823,B-2,147.0,1.0,77,140.0
1824,D2,147.0,1.0,77,140.0
1825,A5,147.2,0.2,45,140.0
1826,A5,147.2,0.2,50,140.0
1827,A5,147.2,0.2,50,140.0
1828,A5,147.4,0.199,45,140.0
1829,A5,147.4,0.199,50,140.0
1830,A5,147.4,0.199,50,140.0
1831,B5,147.6,0.2,45,140.0
1832,B5,147.6,0.2,50,140.0
1833,B5,147.6,0.2,50,140.0
1834,G#5,147.8,0.2,45,140.0
1835,G#5,147.8,0.2,50,140.0
1836,G#5,147.8,0.2,50,140.0
1837,D2,148.0,0.25,55,140.0
1838,B-2,148.0,1.0,64,140.0
1839,C2,148.0,0.25,110,140.0
1840,D2,148.25,0.25,55,140.0
1841,C2,148.25,0.25,110,140.0
1842,C#6,148.5,0.5,45,140.0
1843,C#6,148.5,0.5,50,140.0
1844,C#6,148.5,0.5,50,140.0
1845,F#5,149.0,0.333,45,140.0
1846,F#5,149.0,0.333,50,140.0
1847,F#5,149.0,0.333,50,140.0
1848,B-2,149.0,1.0,64,140.0
1849,B5,149.333,0.334,45,140.0
1850,B5,149.333,0.334,50,140.0
1851,B5,149.333,0.334,50,140.0
1852,D2,149.5,0.25,55,140.0
1853,C2,149.5,0.25,110,140.0
1854,G#5,149.667,0.333,45,140.0
1855,G#5,149.667,0.333,50,140.0
1856,G#5,149.667,0.333,50,140.0
1857,D2,149.75,0.25,55,140.0
1858,C2,149.75,0.25,110,140.0
1859,G#6,150.0,0.4,45,140.0
1860,G#6,150.0,0.4,50,140.0
1861,G#6,150.0,0.4,50,140.0
1862,B-2,150.0,1.0,64,140.0
1863,F#6,150.4,0.399,45,140.0
1864,F#6,150.4,0.399,50,140.0
1865,F#6,150.4,0.399,50,140.0
1866,C#6,150.8,0.4,45,140.0
1867,C#6,150.8,0.4,50,140.0
1868,C#6,150.8,0.4,50,140.0
1869,B-2,151.0,1.0,77,140.0
1870,D2,151.0,1.0,77,140.0
1871,E6,151.2,0.399,45,140.0
1872,E6,151.2,0.399,50,140.0
1873,E6,151.2,0.399,50,140.0
1874,F#5,151.6,0.4,45,140.0
1875,F#5,151.6,0.4,50,140.0
1876,F#5,151.6,0.4,50,140.0
1877,G#6,152.0,0.4,45,140.0
1878,D2,152.0,0.25,55,140.0
1879,G#6,152.0,0.4,50,140.0
1880,G#6,152.0,0.4,50,140.0
1881,B-2,152.0,1.0,64,140.0
1882,C2,152.0,0.25,110,140.0
1883,D2,152.25,0.25,55,140.0
1884,C2,152.25,0.25,110,140.0
1885,F#6,152.4,0.399,45,140.0
1886,F#6,152.4,0.399,50,140.0
1887,F#6,152.4,0.399,50,140.0
1888,C#6,152.8,0.4,45,140.0
1889,C#6,152.8,0.4,50,140.0
1890,C#6,152.8,0.4,50,140.0
1891,B-2,153.0,1.0,64,140.0
1892,E6,153.2,0.399,45,140.0
1893,E6,153.2,0.399,50,140.0
1894,E6,153.2,0.399,50,140.0
1895,D2,153.5,0.25,55,140.0
1896,C2,153.5,0.25,110,140.0
1897,F#5,153.6,2.4,45,140.0
1898,F#5,153.6,2.4,50,140.0
1899,F#5,153.6,0.525,50,140.0
1900,D2,153.75,0.25,55,140.0
1901,C2,153.75,0.25,110,140.0
1902,B-2,154.0,1.0,64,140.0
1903,F#5,154.125,0.125,50,140.0
1904,F#5,154.25,0.125,50,140.0
1905,F#5,154.375,0.125,50,140.0
1906,F#5,154.5,0.125,50,140.0
1907,F#5,154.625,0.125,50,140.0
1908,F#5,154.75,0.125,50,140.0
1909,F#5,154.875,0.125,50,140.0
1910,F#5,155.0,0.125,50,140.0
1911,B-2,155.0,1.0,77,140.0
1912,D2,155.0,1.0,77,140.0
1913,F#5,155.125,0.125,50,140.0
1914,F#5,155.25,0.125,50,140.0
1915,F#5,155.375,0.125,50,140.0
1916,F#5,155.5,0.125,50,140.0
1917,F#5,155.625,0.125,50,140.0
1918,F#5,155.75,0.125,50,140.0
1919,F#5,155.875,0.125,50,140.0
1920,F#5,156.0,4.0,45,140.0
1921,D2,156.0,0.25,55,140.0
1922,F#5,156.0,4.0,50,140.0
1923,F#5,156.0,0.125,50,140.0
1924,B-2,156.0,1.0,64,140.0
1925,C2,156.0,0.25,110,140.0
1926,F#5,156.125,0.125,50,140.0
1927,D2,156.25,0.25,55,140.0
1928,F#5,156.25,0.125,50,140.0
1929,C2,156.25,0.25,110,140.0
1930,F#5,156.375,0.125,50,140.0
1931,F#5,156.5,0.125,50,140.0
1932,F#5,156.625,0.125,50,140.0
1933,F#5,156.75,0.125,50,140.0
1934,F#5,156.875,0.125,50,140.0
1935,F#5,157.0,0.125,50,140.0
1936,B-2,157.0,1.0,64,140.0
1937,F#5,157.125,0.125,50,140.0
1938,F#5,157.25,0.125,50,140.0
1939,F#5,157.375,0.125,50,140.0
1940,D2,157.5,0.25,55,140.0
1941,F#5,157.5,0.125,50,140.0
1942,C2,157.5,0.25,110,140.0
1943,F#5,157.625,0.125,50,140.0
1944,D2,157.75,0.25,55,140.0
1945,F#5,157.75,0.125,50,140.0
1946,C2,157.75,0.25,110,140.0
1947,F#5,157.875,0.125,50,140.0
1948,F#5,158.0,0.125,50,140.0
1949,B-2,158.0,1.0,64,140.0
1950,F#5,158.125,0.125,50,140.0
1951,F#5,158.25,0.125,50,140.0
1952,F#5,158.375,0.125,50,140.0
1953,F#5,158.5,0.125,50,140.0
1954,F#5,158.625,0.125,50,140.0
1955,F#5,158.75,0.125,50,140.0
1956,F#5,158.875,0.125,50,140.0
1957,F#5,159.0,0.125,50,140.0
1958,B-2,159.0,1.0,77,140.0
1959,D2,159.0,1.0,77,140.0
1960,F#5,159.125,0.125,50,140.0
1961,F#5,159.25,0.125,50,140.0
1962,F#5,159.375,0.125,50,140.0
1963,F#5,159.5,0.125,50,140.0
1964,F#5,159.625,0.125,50,140.0
1965,F#5,159.75,0.125,50,140.0
1966,F#5,159.875,0.125,50,140.0
1967,F#5,160.0,3.0,45,140.0
1968,D2,160.0,0.25,55,140.0
1969,F#5,160.0,3.0,50,140.0
1970,F#5,160.0,0.125,50,140.0
1971,B-2,160.0,1.0,64,140.0
1972,C2,160.0,0.25,110,140.0
1973,F#5,160.125,0.125,50,140.0
1974,D2,160.25,0.25,55,140.0
1975,F#5,160.25,0.125,50,140.0
1976,C2,160.25,0.25,110,140.0
1977,F#5,160.375,0.125,50,140.0
1978,F#5,160.5,0.125,50,140.0
1979,F#5,160.625,0.125,50,140.0
1980,F#5,160.75,0.125,50,140.0
1981,F#5,160.875,0.125,50,140.0
1982,F#5,161.0,0.125,50,140.0
1983,B-2,161.0,1.0,64,140.0
1984,F#5,161.125,0.125,50,140.0
1985,F#5,161.25,0.125,50,140.0
1986,F#5,161.375,0.125,50,140.0
1987,D2,161.5,0.25,55,140.0
1988,F#5,161.5,0.125,50,140.0
1989,C2,161.5,0.25,110,140.0
1990,F#5,161.625,0.125,50,140.0
1991,D2,161.75,0.25,55,140.0
1992,F#5,161.75,0.125,50,140.0
1993,C2,161.75,0.25,110,140.0
1994,F#5,161.875,0.125,50,140.0
1995,F#5,162.0,0.125,50,140.0
1996,B-2,162.0,1.0,64,140.0
1997,F#5,162.125,0.125,50,140.0
1998,F#5,162.25,0.125,50,140.0
1999,F#5,162.375,0.125,50,140.0
2000,F#5,162.5,0.125,50,140.0
2001,F#5,162.625,0.125,50,140.0
2002,F#5,162.75,0.125,50,140.0
2003,F#5,162.875,0.125,50,140.0
2004,B-2,163.0,1.0,77,140.0
2005,D2,163.0,1.0,77,140.0
2006,G#5,164.0,0.25,45,140.0
2007,G#3,164.0,0.25,55,140.0
2008,G#5,164.0,0.25,50,140.0
2009,G#5,164.0,0.25,50,140.0
2010,C3,164.0,0.25,64,140.0
2011,G#2,164.0,1.0,64,140.0
2012,A5,164.25,0.25,45,140.0
2013,A3,164.25,0.25,55,140.0
2014,A5,164.25,0.25,50,140.0
2015,A5,164.25,0.25,50,140.0
2016,D3,164.25,0.25,64,140.0
2017,G#5,164.5,0.5,45,140.0
2018,G#3,164.5,0.5,55,140.0
2019,G#5,164.5,0.5,50,140.0
2020,G#5,164.5,0.5,50,140.0
2021,C2,164.5,0.5,110,140.0
2022,G#5,165.0,0.25,45,140.0
2023,G#3,165.0,0.25,55,140.0
2024,G#5,165.0,0.25,50,140.0
2025,G#5,165.0,0.25,50,140.0
2026,C3,165.0,0.25,64,140.0
2027,G#2,165.0,1.0,64,140.0
2028,A5,165.25,0.25,45,140.0
2029,A3,165.25,0.25,55,140.0
2030,A5,165.25,0.25,50,140.0
2031,A5,165.25,0.25,50,140.0
2032,D3,165.25,0.25,64,140.0
2033,G#5,165.5,0.5,45,140.0
2034,F#3,165.5,0.5,55,140.0
2035,G#5,165.5,0.5,50,140.0
2036,G#5,165.5,0.5,50,140.0
2037,C2,165.5,0.5,110,140.0
2038,G#5,166.0,0.5,45,140.0
2039,G#3,166.0,0.5,55,140.0
2040,G#5,166.0,0.5,50,140.0
2041,G#5,166.0,0.5,50,140.0
2042,D2,166.0,0.5,90,140.0
2043,G#2,166.0,1.0,64,140.0
2044,B4,166.5,0.25,45,140.0
2045,B2,166.5,0.25,55,140.0
2046,B4,166.5,0.25,50,140.0
2047,B4,166.5,0.25,50,140.0
2048,C3,166.5,0.25,64,140.0
2049,A5,166.75,0.25,45,140.0
2050,A3,166.75,0.25,55,140.0
2051,A5,166.75,0.25,50,140.0
2052,A5,166.75,0.25,50,140.0
2053,A2,166.75,0.25,64,140.0
2054,F#5,167.0,0.25,45,140.0
2055,F#3,167.0,0.25,55,140.0
2056,F#5,167.0,0.25,50,140.0
2057,F#5,167.0,0.25,50,140.0
2058,D2,167.0,0.25,90,140.0
2059,G#2,167.0,1.0,64,140.0
2060,C#5,167.25,0.25,45,140.0
2061,C#3,167.25,0.25,55,140.0
2062,C#5,167.25,0.25,50,140.0
2063,C#5,167.25,0.25,50,140.0
2064,D3,167.25,0.25,64,140.0
2065,B5,167.5,0.25,45,140.0
2066,B3,167.5,0.25,55,140.0
2067,B5,167.5,0.25,50,140.0
2068,B5,167.5,0.25,50,140.0
2069,C3,167.5,0.25,64,140.0
2070,F#5,167.75,0.25,45,140.0
2071,F#3,167.75,0.25,55,140.0
2072,F#5,167.75,0.25,50,140.0
2073,F#5,167.75,0.25,50,140.0
2074,A2,167.75,0.25,64,140.0
2075,G#5,168.0,0.25,45,140.0
2076,G#3,168.0,0.25,55,140.0
2077,G#5,168.0,0.25,50,140.0
2078,G#5,168.0,0.25,50,140.0
2079,D3,168.0,0.25,64,140.0
2080,G#2,168.0,1.0,64,140.0
2081,E5,168.25,0.25,45,140.0
2082,E3,168.25,0.25,55,140.0
2083,E5,168.25,0.25,50,140.0
2084,E5,168.25,0.25,50,140.0
2085,C3,168.25,0.25,64,140.0
2086,E5,168.5,0.25,45,140.0
2087,E3,168.5,0.25,55,140.0
2088,E5,168.5,0.25,50,140.0
2089,E5,168.5,0.25,50,140.0
2090,A2,168.5,0.25,64,140.0
2091,C#5,168.75,0.25,45,140.0
2092,C#3,168.75,0.25,55,140.0
2093,C#5,168.75,0.25,50,140.0
2094,C#5,168.75,0.25,50,140.0
2095,G2,168.75,0.25,64,140.0
2096,F#5,169.0,0.25,45,140.0
2097,F#3,169.0,0.25,55,140.0
2098,F#5,169.0,0.25,50,140.0
2099,F#5,169.0,0.25,50,140.0
2100,C2,169.0,0.25,110,140.0
2101,G#2,169.0,1.0,64,140.0
2102,G#5,169.25,0.25,45,140.0
2103,G#3,169.25,0.25,55,140.0
2104,G#5,169.25,0.25,50,140.0
2105,G#5,169.25,0.25,50,140.0
2106,C3,169.25,0.25,64,140.0
2107,G#5,169.5,0.25,45,140.0
2108,G#3,169.5,0.25,55,140.0
2109,G#5,169.5,0.25,50,140.0
2110,G#5,169.5,0.25,50,140.0
2111,G2,169.5,0.25,64,140.0
2112,B5,169.75,0.25,45,140.0
2113,B3,169.75,0.25,55,140.0
2114,B5,169.75,0.25,50,140.0
2115,B5,169.75,0.25,50,140.0
2116,C2,169.75,0.25,110,140.0
2117,A5,170.0,0.25,45,140.0
2118,A3,170.0,0.25,55,140.0
2119,A5,170.0,0.25,50,140.0
2120,A5,170.0,0.25,50,140.0
2121,C3,170.0,0.25,64,140.0
2122,G#2,170.0,1.0,64,140.0
2123,G#5,170.25,0.25,45,140.0
2124,G#3,170.25,0.25,55,140.0
2125,G#5,170.25,0.25,50,140.0
2126,G#5,170.25,0.25,50,140.0
2127,D3,170.25,0.25,64,140.0
2128,G#5,170.5,0.25,45,140.0
2129,G#3,170.5,0.25,55,140.0
2130,G#5,170.5,0.25,50,140.0
2131,G#5,170.5,0.25,50,140.0
2132,C2,170.5,0.25,110,140.0
2133,B5,170.75,0.25,45,140.0
2134,B3,170.75,0.25,55,140.0
2135,B5,170.75,0.25,50,140.0
2136,B5,170.75,0.25,50,140.0
2137,A2,170.75,0.25,64,140.0
2138,F#5,171.0,0.25,45,140.0
2139,F#3,171.0,0.25,55,140.0
2140,F#5,171.0,0.25,50,140.0
2141,F#5,171.0,0.25,50,140.0
2142,G2,171.0,0.25,64,140.0
2143,G#2,171.0,1.0,64,140.0
2144,F#4,171.25,0.25,45,140.0
2145,F#2,171.25,0.25,55,140.0
2146,F#4,171.25,0.25,50,140.0
2147,F#4,171.25,0.25,50,140.0
2148,C2,171.25,0.25,110,140.0
2149,F#4,171.5,0.25,45,140.0
2150,F#2,171.5,0.25,55,140.0
2151,F#4,171.5,0.25,50,140.0
2152,F#4,171.5,0.25,50,140.0
2153,A2,171.5,0.25,64,140.0
2154,B4,171.75,0.25,45,140.0
2155,B2,171.75,0.25,55,140.0
2156,B4,171.75,0.25,50,140.0
2157,B4,171.75,0.25,50,140.0
2158,C3,171.75,0.25,64,140.0
2159,C#5,172.0,0.25,45,140.0
2160,C#3,172.0,0.25,55,140.0
2161,C#5,172.0,0.25,50,140.0
2162,C#5,172.0,0.25,50,140.0
2163,G2,172.0,0.25,64,140.0
2164,G#2,172.0,1.0,64,140.0
2165,A4,172.25,0.25,45,140.0
2166,A2,172.25,0.25,55,140.0
2167,A4,172.25,0.25,50,140.0
2168,A4,172.25,0.25,50,140.0
2169,C2,172.25,0.25,110,140.0
2170,B4,172.5,0.25,45,140.0
2171,B2,172.5,0.25,55,140.0
2172,B4,172.5,0.25,50,140.0
2173,B4,172.5,0.25,50,140.0
2174,D3,172.5,0.25,64,140.0
2175,E5,172.75,0.25,45,140.0
2176,E3,172.75,0.25,55,140.0
2177,E5,172.75,0.25,50,140.0
2178,E5,172.75,0.25,50,140.0
2179,A2,172.75,0.25,64,140.0
2180,G#5,173.0,0.25,45,140.0
2181,G#3,173.0,0.25,55,140.0
2182,G#5,173.0,0.25,50,140.0
2183,G#5,173.0,0.25,50,140.0
2184,C3,173.0,0.25,64,140.0
2185,G#2,173.0,1.0,64,140.0
2186,F#4,173.25,0.25,45,140.0
2187,F#2,173.25,0.25,55,140.0
2188,F#4,173.25,0.25,50,140.0
2189,F#4,173.25,0.25,50,140.0
2190,D3,173.25,0.25,64,140.0
2191,B4,173.5,0.25,45,140.0
2192,B2,173.5,0.25,55,140.0
2193,B4,173.5,0.25,50,140.0
2194,B4,173.5,0.25,50,140.0
2195,G2,173.5,0.25,64,140.0
2196,C#5,173.75,0.25,45,140.0
2197,C#3,173.75,0.25,55,140.0
2198,C#5,173.75,0.25,50,140.0
2199,C#5,173.75,0.25,50,140.0
2200,C2,173.75,0.25,110,140.0
2201,D5,174.0,0.25,45,140.0
2202,D3,174.0,0.25,55,140.0
2203,D5,174.0,0.25,50,140.0
2204,D5,174.0,0.25,50,140.0
2205,C2,174.0,0.25,110,140.0
2206,G#2,174.0,1.0,64,140.0
2207,A5,174.25,0.25,45,140.0
2208,A3,174.25,0.25,55,140.0
2209,A5,174.25,0.25,50,140.0
2210,A5,174.25,0.25,50,140.0
2211,D3,174.25,0.25,64,140.0
2212,F#5,174.5,0.25,45,140.0
2213,F#3,174.5,0.25,55,140.0
2214,F#5,174.5,0.25,50,140.0
2215,F#5,174.5,0.25,50,140.0
2216,A2,174.5,0.25,64,140.0
2217,E5,174.75,0.25,45,140.0
2218,E3,174.75,0.25,55,140.0
2219,E5,174.75,0.25,50,140.0
2220,E5,174.75,0.25,50,140.0
2221,G2,174.75,0.25,64,140.0
2222,F#5,175.0,0.25,45,140.0
2223,F#3,175.0,0.25,55,140.0
2224,F#5,175.0,0.25,50,140.0
2225,F#5,175.0,0.25,50,140.0
2226,D2,175.0,0.25,90,140.0
2227,G#2,175.0,1.0,64,140.0
2228,G#5,175.25,0.25,45,140.0
2229,G#3,175.25,0.25,55,140.0
2230,G#5,175.25,0.25,50,140.0
2231,G#5,175.25,0.25,50,140.0
2232,D3,175.25,0.25,64,140.0
2233,E5,175.5,0.25,45,140.0
2234,E3,175.5,0.25,55,140.0
2235,E5,175.5,0.25,50,140.0
2236,E5,175.5,0.25,50,140.0
2237,G2,175.5,0.25,64,140.0
2238,B4,175.75,0.25,45,140.0
2239,B2,175.75,0.25,55,140.0
2240,B4,175.75,0.25,50,140.0
2241,B4,175.75,0.25,50,140.0
2242,C2,175.75,0.25,110,140.0
2243,G#2,176.0,1.0,64,140.0
2244,F#5,177.0,0.25,45,140.0
2245,F#3,177.0,0.25,55,140.0
2246,F#5,177.0,0.25,50,140.0
2247,F#5,177.0,0.25,50,140.0
2248,D2,177.0,0.25,90,140.0
2249,G#2,177.0,1.0,64,140.0
2250,G#5,177.25,0.25,45,140.0
2251,G#3,177.25,0.25,55,140.0
2252,G#5,177.25,0.25,50,140.0
2253,G#5,177.25,0.25,50,140.0
2254,D3,177.25,0.25,64,140.0
2255,E5,177.5,0.25,45,140.0
2256,E3,177.5,0.25,55,140.0
2257,E5,177.5,0.25,50,140.0
2258,E5,177.5,0.25,50,140.0
2259,G2,177.5,0.25,64,140.0
2260,B4,177.75,0.25,45,140.0
2261,B2,177.75,0.25,55,140.0
2262,B4,177.75,0.25,50,140.0
2263,B4,177.75,0.25,50,140.0
2264,C2,177.75,0.25,110,140.0
2265,G#2,178.0,1.0,64,140.0
2266,G#2,179.0,1.0,64,140.0
2267,F#5,180.0,0.25,45,140.0
2268,F#3,180.0,0.25,55,140.0
2269,F#5,180.0,0.25,50,140.0
2270,F#5,180.0,0.25,50,140.0
2271,D2,180.0,0.25,90,140.0
2272,G#2,180.0,1.0,64,140.0
2273,G#5,180.25,0.25,45,140.0
2274,G#3,180.25,0.25,55,140.0
2275,G#5,180.25,0.25,50,140.0
2276,G#5,180.25,0.25,50,140.0
2277,D3,180.25,0.25,64,140.0
2278,E5,180.5,0.25,45,140.0
2279,E3,180.5,0.25,55,140.0
2280,E5,180.5,0.25,50,140.0
2281,E5,180.5,0.25,50,140.0
2282,G2,180.5,0.25,64,140.0
2283,B4,180.75,0.25,45,140.0
2284,B2,180.75,0.25,55,140.0
2285,B4,180.75,0.25,50,140.0
2286,B4,180.75,0.25,50,140.0
2287,C2,180.75,0.25,110,140.0
2288,G#2,181.0,1.0,64,140.0
2289,G#2,182.0,1.0,64,140.0
2290,F#5,183.0,0.25,45,140.0
2291,F#3,183.0,0.25,55,140.0
2292,F#5,183.0,0.25,50,140.0
2293,F#5,183.0,0.25,50,140.0
2294,D2,183.0,0.25,90,140.0
2295,G#2,183.0,1.0,64,140.0
2296,G#5,183.25,0.25,45,140.0
2297,G#3,183.25,0.25,55,140.0
2298,G#5,183.25,0.25,50,140.0
2299,G#5,183.25,0.25,50,140.0
2300,D2,183.25,0.25,90,140.0
2301,E5,183.5,0.25,45,140.0
2302,E3,183.5,0.25,55,140.0
2303,E5,183.5,0.25,50,140.0
2304,E5,183.5,0.25,50,140.0
2305,G2,183.5,0.25,64,140.0
2306,B4,183.75,0.25,45,140.0
2307,B2,183.75,0.25,55,140.0
2308,B4,183.75,0.25,50,140.0
2309,B4,183.75,0.25,50,140.0
2310,C2,183.75,0.25,110,140.0
2311,A5,184.0,2.0,45,140.0
2312,D2,184.0,0.25,55,140.0
2313,A5,184.0,2.0,50,140.0
2314,A5,184.0,2.0,50,140.0
2315,B-2,184.0,1.0,87,140.0
2316,C2,184.0,1.0,87,140.0
2317,D2,184.25,0.25,55,140.0
2318,B-2,185.0,3.0,64,140.0
2319,D2,185.0,1.0,90,140.0
2320,D2,185.5,0.25,55,140.0
2321,D2,185.75,0.25,55,140.0
2322,A5,185.875,0.125,45,140.0
2323,A5,185.875,0.125,50,140.0
2324,A5,185.875,0.125,50,140.0
2325,G#5,186.0,0.5,45,140.0
2326,G#5,186.0,0.5,50,140.0
2327,G#5,186.0,0.5,50,140.0
2328,C2,186.0,1.0,87,140.0
2329,C3,186.0,1.0,87,140.0
2330,F#5,187.0,0.5,45,140.0
2331,F#5,187.0,0.5,50,140.0
2332,F#5,187.0,0.5,50,140.0
2333,C2,187.0,1.0,87,140.0
2334,G2,187.0,1.0,87,140.0
2335,E6,188.0,0.571,45,140.0
2336,D2,188.0,0.25,55,140.0
2337,E6,188.0,0.571,50,140.0
2338,E6,188.0,0.571,50,140.0
2339,B-2,188.0,1.0,87,140.0
2340,C2,188.0,1.0,87,140.0
2341,D2,188.25,0.25,55,140.0
2342,F#5,188.571,0.571,45,140.0
2343,F#5,188.571,0.571,50,140.0
2344,F#5,188.571,0.571,50,140.0
2345,B-2,189.0,2.0,64,140.0
2346,D2,189.0,0.75,90,140.0
2347,F#5,189.143,0.286,45,140.0
2348,F#5,189.143,0.286,50,140.0
2349,F#5,189.143,0.286,50,140.0
2350,B5,189.429,0.285,45,140.0
2351,B5,189.429,0.285,50,140.0
2352,B5,189.429,0.285,50,140.0
2353,D2,189.5,0.25,55,140.0
2354,D2,189.625,0.25,90,140.0
2355,G#5,189.714,0.286,45,140.0
2356,G#5,189.714,0.286,50,140.0
2357,G#5,189.714,0.286,50,140.0
2358,D2,189.75,0.25,55,140.0
2359,D2,189.75,0.25,90,140.0
2360,D2,189.875,0.125,90,140.0
2361,C#6,190.0,0.5,45,140.0
2362,C#6,190.0,0.5,50,140.0
2363,C#6,190.0,0.5,50,140.0
2364,D2,190.0,0.5,90,140.0
2365,B5,190.5,0.5,45,140.0
2366,B5,190.5,0.5,50,140.0
2367,B5,190.5,0.5,50,140.0
2368,C2,190.5,0.5,110,140.0
2369,B5,191.0,0.5,45,140.0
2370,B5,191.0,0.5,50,140.0
2371,B5,191.0,0.5,50,140.0
2372,E3,191.0,1.0,64,140.0
2373,G2,191.0,0.5,64,140.0
2374,A5,191.5,0.5,45,140.0
2375,A5,191.5,0.5,50,140.0
2376,A5,191.5,0.5,50,140.0
2377,C2,191.5,0.5,110,140.0
2378,G#5,192.0,1.5,45,140.0
2379,D2,192.0,0.25,55,140.0
2380,G#5,192.0,1.5,50,140.0
2381,G#5,192.0,1.5,50,140.0
2382,B-2,192.0,1.0,87,140.0
2383,C2,192.0,1.0,87,140.0
2384,D2,192.25,0.25,55,140.0
2385,B-2,193.0,1.0,64,140.0
2386,D2,193.0,0.5,90,140.0
2387,A5,193.5,0.5,45,140.0
2388,D2,193.5,0.25,55,140.0
2389,A5,193.5,0.5,50,140.0
2390,A5,193.5,0.5,50,140.0
2391,C2,193.5,0.5,110,140.0
2392,D2,193.75,0.25,55,140.0
2393,A5,193.875,0.125,45,140.0
2394,A5,193.875,0.125,50,140.0
2395,A5,193.875,0.125,50,140.0
2396,F#5,194.0,0.667,45,140.0
2397,F#5,194.0,0.667,50,140.0
2398,F#5,194.0,0.667,50,140.0
2399,B-2,194.0,1.0,64,140.0
2400,D2,194.0,0.667,90,140.0
2401,E5,194.667,0.666,45,140.0
2402,E5,194.667,0.666,50,140.0
2403,E5,194.667,0.666,50,140.0
2404,C2,194.667,0.666,110,140.0
2405,B-2,195.0,1.0,64,140.0
2406,E5,195.333,0.667,45,140.0
2407,E5,195.333,0.667,50,140.0
2408,E5,195.333,0.667,50,140.0
2409,C2,195.333,0.667,110,140.0
2410,F#5,196.0,2.0,45,140.0
2411,D2,196.0,0.25,55,140.0
2412,F#5,196.0,2.0,50,140.0
2413,F#5,196.0,0.125,50,140.0
2414,B-2,196.0,0.25,87,140.0
2415,C2,196.0,0.25,87,140.0
2416,F#5,196.125,0.125,50,140.0
2417,D2,196.25,0.25,55,140.0
2418,F#5,196.25,0.125,50,140.0
2419,B-2,196.25,0.25,87,140.0
2420,C2,196.25,0.25,87,140.0
2421,F#5,196.375,0.125,50,140.0
2422,F#5,196.5,0.125,50,140.0
2423,B-2,196.5,0.25,87,140.0
2424,C2,196.5,0.25,87,140.0
2425,F#5,196.625,0.125,50,140.0
2426,F#5,196.75,0.125,50,140.0
2427,B-2,196.75,0.25,87,140.0
2428,C2,196.75,0.25,87,140.0
2429,F#5,196.875,0.125,50,140.0
2430,F#5,197.0,0.125,50,140.0
2431,D2,197.0,0.25,90,140.0
2432,F#5,197.125,0.125,50,140.0
2433,F#5,197.25,0.125,50,140.0
2434,D2,197.25,0.25,90,140.0
2435,F#5,197.375,0.125,50,140.0
2436,D2,197.5,0.25,55,140.0
2437,F#5,197.5,0.125,50,140.0
2438,D2,197.5,0.25,90,140.0
2439,F#5,197.625,0.125,50,140.0
2440,D2,197.75,0.25,55,140.0
2441,F#5,197.75,0.125,50,140.0
2442,D2,197.75,0.25,90,140.0
2443,F#5,197.875,0.125,50,140.0
2444,F#4,198.0,0.25,45,140.0
2445,F#2,198.0,0.25,55,140.0
2446,F#4,198.0,0.25,50,140.0
2447,F#4,198.0,0.25,50,140.0
2448,B-2,198.0,1.0,64,140.0
2449,C2,198.0,0.25,110,140.0
2450,B4,198.25,0.25,45,140.0
2451,B2,198.25,0.25,55,140.0
2452,B4,198.25,0.25,50,140.0
2453,B4,198.25,0.25,50,140.0
2454,D2,198.25,0.25,90,140.0
2455,B4,198.5,0.25,45,140.0
2456,B2,198.5,0.25,55,140.0
2457,B4,198.5,0.25,50,140.0
2458,B4,198.5,0.25,50,140.0
2459,D2,198.5,0.25,90,140.0
2460,A4,198.75,0.25,45,140.0
2461,A2,198.75,0.25,55,140.0
2462,A4,198.75,0.25,50,140.0
2463,A4,198.75,0.25,50,140.0
2464,C2,198.75,0.25,110,140.0
2465,B4,199.0,1.0,45,140.0
2466,B2,199.0,1.0,55,140.0
2467,B4,199.0,1.0,50,140.0
2468,B4,199.0,1.0,50,140.0
2469,C2,199.0,1.0,110,140.0
2470,E-3,199.0,1.0,64,140.0
2471,C#3,199.0,1.0,64,140.0
2472,B4,200.0,0.25,45,140.0
2473,B2,200.0,0.25,55,140.0
2474,B4,200.0,0.25,50,140.0
2475,B4,200.0,0.25,50,140.0
2476,C#5,200.25,0.25,45,140.0
2477,C#3,200.25,0.25,55,140.0
2478,C#5,200.25,0.25,50,140.0
2479,C#5,200.25,0.25,50,140.0
2480,B4,200.5,0.5,45,140.0
2481,B2,200.5,0.5,55,140.0
2482,B4,200.5,0.5,50,140.0
2483,B4,200.5,0.5,50,140.0
2484,F#4,201.0,1.5,45,140.0
2485,F#2,201.0,1.5,55,140.0
2486,F#4,201.0,1.5,50,140.0
2487,F#4,201.0,1.5,50,140.0
2488,C2,201.0,0.25,110,140.0
2489,E-3,201.0,1.0,64,140.0
2490,C#3,201.0,1.0,64,140.0
2491,A2,201.25,0.25,64,140.0
2492,G2,201.5,0.25,64,140.0
2493,C2,201.75,0.25,110,140.0
2494,B-2,202.0,1.0,64,140.0
2495,C2,202.0,1.5,110,140.0
2496,G#4,202.5,1.0,45,140.0
2497,G#2,202.5,1.0,55,140.0
2498,G#4,202.5,1.0,50,140.0
2499,G#4,202.5,1.0,50,140.0
2500,B-2,203.0,1.0,64,140.0
2501,B3,203.5,0.5,45,140.0
2502,B1,203.5,0.5,55,140.0
2503,B3,203.5,0.5,50,140.0
2504,B3,203.5,0.5,50,140.0
2505,C2,203.5,0.5,110,140.0
2506,C4,204.0,0.667,45,140.0
2507,F#2,204.0,0.25,55,140.0
2508,C4,204.0,0.667,50,140.0
2509,C4,204.0,0.667,50,140.0
2510,B-2,204.0,1.0,64,140.0
2511,D2,204.0,0.5,90,140.0
2512,F#2,204.25,0.25,55,140.0
2513,C2,204.5,0.5,110,140.0
2514,B-4,204.667,0.666,45,140.0
2515,B-4,204.667,0.666,50,140.0
2516,B-4,204.667,0.666,50,140.0
2517,B-2,205.0,0.667,64,140.0
2518,C2,205.0,0.25,110,140.0
2519,C2,205.25,0.25,110,140.0
2520,F4,205.333,0.667,45,140.0
2521,F4,205.333,0.667,50,140.0
2522,F4,205.333,0.667,50,140.0
2523,F#2,205.5,0.25,55,140.0
2524,B-2,205.667,0.666,64,140.0
2525,F#2,205.75,0.25,55,140.0
2526,E-5,206.0,2.0,45,140.0
2527,E-5,206.0,2.0,50,140.0
2528,E-5,206.0,0.125,50,140.0
2529,D2,206.0,0.5,90,140.0
2530,E-5,206.125,0.125,50,140.0
2531,E-5,206.25,0.125,50,140.0
2532,B-2,206.333,0.667,64,140.0
2533,E-5,206.375,0.125,50,140.0
2534,E-5,206.5,0.125,50,140.0
2535,C2,206.5,0.25,110,140.0
2536,E-5,206.625,0.125,50,140.0
2537,E-5,206.75,0.125,50,140.0
2538,C2,206.75,0.25,110,140.0
2539,E-5,206.875,0.125,50,140.0
2540,E-5,207.0,0.125,50,140.0
2541,B-2,207.0,0.667,64,140.0
2542,E-5,207.125,0.125,50,140.0
2543,E-5,207.25,0.125,50,140.0
2544,E-5,207.375,0.125,50,140.0
2545,E-5,207.5,0.125,50,140.0
2546,E-5,207.625,0.125,50,140.0
2547,B-2,207.667,0.666,64,140.0
2548,C2,207.667,0.333,110,140.0
2549,E-5,207.75,0.125,50,140.0
2550,E-5,207.875,0.125,50,140.0
2551,C#5,208.0,0.667,45,140.0
2552,F#2,208.0,0.25,55,140.0
2553,C#5,208.0,0.667,50,140.0
2554,C#5,208.0,0.667,50,140.0
2555,D2,208.0,0.333,90,140.0
2556,F#2,208.25,0.25,55,140.0
2557,B-2,208.333,0.667,64,140.0
2558,C2,208.333,0.334,110,140.0
2559,B-4,208.667,0.333,45,140.0
2560,B-4,208.667,0.333,50,140.0
2561,B-4,208.667,0.333,50,140.0
2562,G#3,208.667,0.333,64,140.0
2563,C5,209.0,3.0,45,140.0
2564,C5,209.0,3.0,50,140.0
2565,C5,209.0,0.125,50,140.0
2566,B-2,209.0,0.667,64,140.0
2567,C2,209.0,0.25,110,140.0
2568,C5,209.125,0.125,50,140.0
2569,C5,209.25,0.125,50,140.0
2570,C2,209.25,0.25,110,140.0
2571,C5,209.375,0.125,50,140.0
2572,F#2,209.5,0.25,55,140.0
2573,C5,209.5,0.125,50,140.0
2574,C5,209.625,0.125,50,140.0
2575,B-2,209.667,0.666,64,140.0
2576,F#2,209.75,0.25,55,140.0
2577,C5,209.75,0.125,50,140.0
2578,C5,209.875,0.125,50,140.0
2579,C5,210.0,0.125,50,140.0
2580,D2,210.0,0.5,90,140.0
2581,C5,210.125,0.125,50,140.0
2582,C5,210.25,0.125,50,140.0
2583,B-2,210.333,0.667,64,140.0
2584,C5,210.375,0.125,50,140.0
2585,C5,210.5,0.125,50,140.0
2586,C2,210.5,0.25,110,140.0
2587,C5,210.625,0.125,50,140.0
2588,C5,210.75,0.125,50,140.0
2589,C2,210.75,0.25,110,140.0
2590,C5,210.875,0.125,50,140.0
2591,C5,211.0,0.125,50,140.0
2592,B-2,211.0,0.667,64,140.0
2593,C5,211.125,0.125,50,140.0
2594,C5,211.25,0.125,50,140.0
2595,C5,211.375,0.125,50,140.0
2596,C5,211.5,0.125,50,140.0
2597,C5,211.625,0.125,50,140.0
2598,B-2,211.667,0.666,64,140.0
2599,C2,211.667,0.333,110,140.0
2600,C5,211.75,0.125,50,140.0
2601,C5,211.875,0.125,50,140.0
2602,C5,212.0,0.75,45,140.0
2603,F#2,212.0,0.25,55,140.0
2604,C5,212.0,0.75,50,140.0
2605,C5,212.0,0.75,50,140.0
2606,D2,212.0,0.333,90,140.0
2607,F#2,212.25,0.25,55,140.0
2608,B-2,212.333,0.667,64,140.0
2609,C2,212.333,0.334,110,140.0
2610,G#3,212.667,0.333,64,140.0
2611,E-5,212.75,0.25,45,140.0
2612,E-5,212.75,0.25,50,140.0
2613,E-5,212.75,0.25,50,140.0
2614,G#4,213.0,1.0,45,140.0
2615,G#2,213.0,1.0,55,140.0
2616,G#4,213.0,1.0,50,140.0
2617,G#4,213.0,1.0,50,140.0
2618,B-2,213.0,0.667,64,140.0
2619,C2,213.0,0.25,110,140.0
2620,C2,213.25,0.25,110,140.0
2621,B-2,213.667,0.666,64,140.0
2622,C#5,214.0,0.667,45,140.0
2623,C#3,214.0,0.667,55,140.0
2624,C#5,214.0,0.667,50,140.0
2625,C#5,214.0,0.667,50,140.0
2626,D2,214.0,0.5,90,140.0
2627,B-2,214.333,0.667,64,140.0
2628,C2,214.5,0.25,110,140.0
2629,F#5,214.667,0.666,45,140.0
2630,F#3,214.667,0.666,55,140.0
2631,F#5,214.667,0.666,50,140.0
2632,F#5,214.667,0.666,50,140.0
2633,C2,214.75,0.25,110,140.0
2634,B-2,215.0,0.667,64,140.0
2635,B-4,215.333,0.667,45,140.0
2636,B-2,215.333,0.667,55,140.0
2637,B-4,215.333,0.667,50,140.0
2638,B-4,215.333,0.667,50,140.0
2639,B-2,215.667,0.666,64,140.0
2640,C2,215.667,0.333,110,140.0
2641,E-5,216.0,0.5,45,140.0
2642,E-3,216.0,0.5,55,140.0
2643,E-5,216.0,0.5,50,140.0
2644,E-5,216.0,0.5,50,140.0
2645,D2,216.0,0.333,90,140.0
2646,B-2,216.333,0.667,64,140.0
2647,C2,216.333,0.334,110,140.0
2648,C#5,216.5,0.25,45,140.0
2649,C#3,216.5,0.25,55,140.0
2650,C#5,216.5,0.25,50,140.0
2651,C#5,216.5,0.25,50,140.0
2652,G#3,216.667,0.333,64,140.0
2653,F5,216.75,0.25,45,140.0
2654,F3,216.75,0.25,55,140.0
2655,F5,216.75,0.25,50,140.0
2656,F5,216.75,0.25,50,140.0
2657,C5,217.0,3.0,45,140.0
2658,C3,217.0,3.0,55,140.0
2659,C5,217.0,3.0,50,140.0
2660,C5,217.0,0.125,50,140.0
2661,D2,217.0,0.5,90,140.0
2662,G#2,217.0,1.0,64,140.0
2663,C5,217.125,0.125,50,140.0
2664,C5,217.25,0.125,50,140.0
2665,C5,217.375,0.125,50,140.0
2666,C5,217.5,0.125,50,140.0
2667,C2,217.5,0.25,110,140.0
2668,C5,217.625,0.125,50,140.0
2669,C5,217.75,0.125,50,140.0
2670,D2,217.75,0.25,90,140.0
2671,C5,217.875,0.125,50,140.0
2672,C5,218.0,0.125,50,140.0
2673,G2,218.0,0.125,64,140.0
2674,C2,218.0,1.0,110,140.0
2675,C5,218.125,0.125,50,140.0
2676,G2,218.125,0.125,64,140.0
2677,C5,218.25,0.125,50,140.0
2678,G2,218.25,0.125,64,140.0
2679,C5,218.375,0.125,50,140.0
2680,G2,218.375,0.125,64,140.0
2681,C5,218.5,0.125,50,140.0
2682,G2,218.5,0.125,64,140.0
2683,C5,218.625,0.125,50,140.0
2684,G2,218.625,0.125,64,140.0
2685,C5,218.75,0.125,50,140.0
2686,G2,218.75,0.125,64,140.0
2687,C5,218.875,0.125,50,140.0
2688,G2,218.875,0.125,64,140.0
2689,C5,219.0,0.125,50,140.0
2690,G2,219.0,0.125,64,140.0
2691,G#2,219.0,1.0,64,140.0
2692,C5,219.125,0.125,50,140.0
2693,G2,219.125,0.125,64,140.0
2694,C5,219.25,0.125,50,140.0
2695,G2,219.25,0.125,64,140.0
2696,C5,219.375,0.125,50,140.0
2697,G2,219.375,0.125,64,140.0
2698,C5,219.5,0.125,50,140.0
2699,G2,219.5,0.125,64,140.0
2700,C5,219.625,0.125,50,140.0
2701,G2,219.625,0.125,64,140.0
2702,C5,219.75,0.125,50,140.0
2703,G2,219.75,0.125,64,140.0
2704,C5,219.875,0.125,50,140.0
2705,G2,219.875,0.125,64,140.0
2706,C5,220.0,0.5,45,140.0
2707,C3,220.0,0.5,55,140.0
2708,C5,220.0,0.5,50,140.0
2709,C5,220.0,0.5,50,140.0
2710,G2,220.0,0.125,64,140.0
2711,G#2,220.0,1.0,87,140.0
2712,C2,220.0,1.0,87,140.0
2713,G2,220.125,0.125,64,140.0
2714,G2,220.25,0.125,64,140.0
2715,G2,220.375,0.125,64,140.0
2716,E5,220.5,0.5,45,140.0
2717,E3,220.5,0.5,55,140.0
2718,E5,220.5,0.5,50,140.0
2719,E5,220.5,0.5,50,140.0
2720,G2,220.5,0.125,64,140.0
2721,G2,220.625,0.125,64,140.0
2722,G2,220.75,0.125,64,140.0
2723,G2,220.875,0.125,64,140.0
2724,D5,221.0,0.5,45,140.0
2725,D3,221.0,0.5,55,140.0
2726,D5,221.0,0.5,50,140.0
2727,D5,221.0,0.5,50,140.0
2728,C2,221.0,0.5,110,140.0
2729,F5,221.5,0.5,45,140.0
2730,F3,221.5,0.5,55,140.0
2731,F5,221.5,0.5,50,140.0
2732,F5,221.5,0.5,50,140.0
2733,B-2,221.5,0.5,77,140.0
2734,D2,221.5,0.5,77,140.0
2735,E5,222.0,0.5,45,140.0
2736,E3,222.0,0.5,55,140.0
2737,E5,222.0,0.5,50,140.0
2738,E5,222.0,0.5,50,140.0
2739,G2,222.0,0.5,50,140.0
2740,G4,222.5,0.5,45,140.0
2741,G2,222.5,0.5,55,140.0
2742,G4,222.5,0.5,50,140.0
2743,G4,222.5,0.5,50,140.0
2744,C2,222.5,0.5,110,140.0
2745,F5,223.0,0.5,45,140.0
2746,F3,223.0,0.5,55,140.0
2747,F5,223.0,0.5,50,140.0
2748,F5,223.0,0.5,50,140.0
2749,E-3,223.0,2.0,120,140.0
2750,C2,223.0,0.5,110,140.0
2751,D5,223.5,0.5,45,140.0
2752,D3,223.5,0.5,55,140.0
2753,D5,223.5,0.5,50,140.0
2754,D5,223.5,0.5,50,140.0
2755,C2,223.5,0.5,110,140.0
2756,A5,224.0,0.667,45,140.0
2757,A3,224.0,0.667,55,140.0
2758,A5,224.0,0.667,50,140.0
2759,A5,224.0,0.667,50,140.0
2760,C2,224.0,0.5,110,140.0
2761,C2,224.5,0.5,110,140.0
2762,C6,224.667,0.666,45,140.0
2763,C4,224.667,0.666,55,140.0
2764,C6,224.667,0.666,50,140.0
2765,C6,224.667,0.666,50,140.0
2766,E3,225.0,1.0,64,140.0
2767,C3,225.0,0.667,50,140.0
2768,E5,225.333,0.667,45,140.0
2769,E3,225.333,0.667,55,140.0
2770,E5,225.333,0.667,50,140.0
2771,E5,225.333,0.667,50,140.0
2772,A2,225.667,0.666,50,140.0
2773,E5,226.0,0.4,45,140.0
2774,E3,226.0,0.4,55,140.0
2775,E5,226.0,0.4,50,140.0
2776,E5,226.0,0.4,50,140.0
2777,E3,226.0,1.0,64,140.0
2778,G2,226.333,0.667,50,140.0
2779,F5,226.4,0.399,45,140.0
2780,F3,226.4,0.399,55,140.0
2781,F5,226.4,0.399,50,140.0
2782,F5,226.4,0.399,50,140.0
2783,E5,226.8,0.4,45,140.0
2784,E3,226.8,0.4,55,140.0
2785,E5,226.8,0.4,50,140.0
2786,E5,226.8,0.4,50,140.0
2787,D2,226.875,0.125,90,140.0
2788,D2,227.0,0.4,90,140.0
2789,D5,227.2,0.399,45,140.0
2790,D3,227.2,0.399,55,140.0
2791,D5,227.2,0.399,50,140.0
2792,D5,227.2,0.399,50,140.0
2793,D3,227.4,0.399,50,140.0
2794,A4,227.6,0.4,45,140.0
2795,A2,227.6,0.4,55,140.0
2796,A4,227.6,0.4,50,140.0
2797,A4,227.6,0.4,50,140.0
2798,C3,227.8,0.4,50,140.0
2799,B4,228.0,0.286,45,140.0
2800,B2,228.0,0.286,55,140.0
2801,B4,228.0,0.286,50,140.0
2802,B4,228.0,0.286,50,140.0
2803,E3,228.0,1.0,64,140.0
2804,A2,228.2,0.399,50,140.0
2805,C5,228.286,0.285,45,140.0
2806,C3,228.286,0.285,55,140.0
2807,C5,228.286,0.285,50,140.0
2808,C5,228.286,0.285,50,140.0
2809,C5,228.571,0.286,45,140.0
2810,C3,228.571,0.286,55,140.0
2811,C5,228.571,0.286,50,140.0
2812,C5,228.571,0.286,50,140.0
2813,G2,228.6,0.4,50,140.0
2814,D5,228.857,0.285,45,140.0
2815,D3,228.857,0.285,55,140.0
2816,D5,228.857,0.285,50,140.0
2817,D5,228.857,0.285,50,140.0
2818,B-2,229.0,1.0,64,140.0
2819,C2,229.0,0.286,110,140.0
2820,D5,229.143,0.286,45,140.0
2821,D3,229.143,0.286,55,140.0
2822,D5,229.143,0.286,50,140.0
2823,D5,229.143,0.286,50,140.0
2824,C3,229.286,0.285,50,140.0
2825,E5,229.429,0.285,45,140.0
2826,E3,229.429,0.285,55,140.0
2827,E5,229.429,0.285,50,140.0
2828,E5,229.429,0.285,50,140.0
2829,A2,229.571,0.286,50,140.0
2830,F5,229.714,0.286,45,140.0
2831,F3,229.714,0.286,55,140.0
2832,F5,229.714,0.286,50,140.0
2833,F5,229.714,0.286,50,140.0
2834,G2,229.857,0.285,50,140.0
2835,A5,230.0,0.286,45,140.0
2836,A3,230.0,0.286,55,140.0
2837,A5,230.0,0.286,50,140.0
2838,A5,230.0,0.286,50,140.0
2839,B-2,230.0,1.0,64,140.0
2840,C2,230.143,0.286,110,140.0
2841,G4,230.286,0.285,45,140.0
2842,G2,230.286,0.285,55,140.0
2843,G4,230.286,0.285,50,140.0
2844,G4,230.286,0.285,50,140.0
2845,C2,230.429,0.285,110,140.0
2846,G4,230.571,0.286,45,140.0
2847,G2,230.571,0.286,55,140.0
2848,G4,230.571,0.286,50,140.0
2849,G4,230.571,0.286,50,140.0
2850,C3,230.714,0.286,50,140.0
2851,D5,230.857,0.285,45,140.0
2852,D3,230.857,0.285,55,140.0
2853,D5,230.857,0.285,50,140.0
2854,D5,230.857,0.285,50,140.0
2855,B-2,231.0,1.0,64,140.0
2856,A2,231.0,0.286,50,140.0
2857,F4,231.143,0.286,45,140.0
2858,F2,231.143,0.286,55,140.0
2859,F4,231.143,0.286,50,140.0
2860,F4,231.143,0.286,50,140.0
2861,G2,231.286,0.285,50,140.0
2862,F4,231.429,0.285,45,140.0
2863,F2,231.429,0.285,55,140.0
2864,F4,231.429,0.285,50,140.0
2865,F4,231.429,0.285,50,140.0
2866,C2,231.571,0.286,110,140.0
2867,E4,231.714,0.286,45,140.0
2868,E2,231.714,0.286,55,140.0
2869,E4,231.714,0.286,50,140.0
2870,E4,231.714,0.286,50,140.0
2871,C2,231.857,0.285,110,140.0
2872,G4,232.0,4.0,45,140.0
2873,B-2,232.0,0.25,55,140.0
2874,G4,232.0,4.0,50,140.0
2875,G4,232.0,0.125,50,140.0
2876,B-2,232.0,1.0,64,140.0
2877,G4,232.125,0.125,50,140.0
2878,C3,232.143,0.286,50,140.0
2879,B-2,232.25,0.25,55,140.0
2880,G4,232.25,0.125,50,140.0
2881,G4,232.375,0.125,50,140.0
2882,A2,232.429,0.285,50,140.0
2883,G4,232.5,0.125,50,140.0
2884,G4,232.625,0.125,50,140.0
2885,G2,232.714,0.286,50,140.0
2886,G4,232.75,0.125,50,140.0
2887,G4,232.875,0.125,50,140.0
2888,G4,233.0,0.125,50,140.0
2889,E-3,233.0,1.0,79,140.0
2890,C#3,233.0,1.0,79,140.0
2891,C2,233.0,1.0,79,140.0
2892,G4,233.125,0.125,50,140.0
2893,G4,233.25,0.125,50,140.0
2894,G4,233.375,0.125,50,140.0
2895,B-2,233.5,0.25,55,140.0
2896,G4,233.5,0.125,50,140.0
2897,G4,233.625,0.125,50,140.0
2898,B-2,233.75,0.25,55,140.0
2899,G4,233.75,0.125,50,140.0
2900,G4,233.875,0.125,50,140.0
2901,G4,234.0,0.125,50,140.0
2902,G2,234.0,0.125,64,140.0
2903,G#2,234.0,1.0,64,140.0
2904,G4,234.125,0.125,50,140.0
2905,G2,234.125,0.125,64,140.0
2906,G4,234.25,0.125,50,140.0
2907,G2,234.25,0.125,64,140.0
2908,G4,234.375,0.125,50,140.0
2909,G2,234.375,0.125,64,140.0
2910,B-2,234.5,0.5,55,140.0
2911,G4,234.5,0.125,50,140.0
2912,G2,234.5,0.125,64,140.0
2913,G4,234.625,0.125,50,140.0
2914,G2,234.625,0.125,64,140.0
2915,G4,234.75,0.125,50,140.0
2916,G2,234.75,0.125,64,140.0
2917,G4,234.875,0.125,50,140.0
2918,G2,234.875,0.125,64,140.0
2919,A2,235.0,0.5,55,140.0
2920,G4,235.0,0.125,50,140.0
2921,G2,235.0,0.125,64,140.0
2922,G#2,235.0,1.0,64,140.0
2923,G4,235.125,0.125,50,140.0
2924,G2,235.125,0.125,64,140.0
2925,G4,235.25,0.125,50,140.0
2926,G2,235.25,0.125,64,140.0
2927,G4,235.375,0.125,50,140.0
2928,G2,235.375,0.125,64,140.0
2929,G#2,235.5,0.5,55,140.0
2930,G4,235.5,0.125,50,140.0
2931,C3,235.5,0.5,64,140.0
2932,G4,235.625,0.125,50,140.0
2933,G4,235.75,0.125,50,140.0
2934,G4,235.875,0.125,50,140.0
2935,G4,236.0,4.0,45,140.0
2936,G2,236.0,0.25,55,140.0
2937,G4,236.0,4.0,50,140.0
2938,G4,236.0,0.125,50,140.0
2939,A2,236.0,0.5,64,140.0
2940,G#2,236.0,1.0,64,140.0
2941,G4,236.125,0.125,50,140.0
2942,G2,236.25,0.25,55,140.0
2943,G4,236.25,0.125,50,140.0
2944,G4,236.375,0.125,50,140.0
2945,G4,236.5,0.125,50,140.0
2946,G2,236.5,0.5,64,140.0
2947,G4,236.625,0.125,50,140.0
2948,G4,236.75,0.125,50,140.0
2949,G4,236.875,0.125,50,140.0
2950,G4,237.0,0.125,50,140.0
2951,C2,237.0,0.25,110,140.0
2952,B-2,237.0,1.0,64,140.0
2953,C#3,237.0,1.0,64,140.0
2954,E3,237.0,1.0,64,140.0
2955,G4,237.125,0.125,50,140.0
2956,G4,237.25,0.125,50,140.0
2957,C2,237.25,0.25,110,140.0
2958,G4,237.375,0.125,50,140.0
2959,G2,237.5,0.25,55,140.0
2960,G4,237.5,0.125,50,140.0
2961,G4,237.625,0.125,50,140.0
2962,G2,237.75,0.25,55,140.0
2963,G4,237.75,0.125,50,140.0
2964,G4,237.875,0.125,50,140.0
2965,G4,238.0,0.125,50,140.0
2966,B-2,238.0,1.0,64,140.0
2967,G4,238.125,0.125,50,140.0
2968,G4,238.25,0.125,50,140.0
2969,G4,238.375,0.125,50,140.0
2970,G4,238.5,0.125,50,140.0
2971,C2,238.5,0.25,110,140.0
2972,G4,238.625,0.125,50,140.0
2973,G4,238.75,0.125,50,140.0
2974,C2,238.75,0.25,110,140.0
2975,G4,238.875,0.125,50,140.0
2976,G4,239.0,0.125,50,140.0
2977,B-2,239.0,1.0,64,140.0
2978,G4,239.125,0.125,50,140.0
2979,G4,239.25,0.125,50,140.0
2980,G4,239.375,0.125,50,140.0
2981,G4,239.5,0.125,50,140.0
2982,G4,239.625,0.125,50,140.0
2983,G4,239.75,0.125,50,140.0
2984,G4,239.875,0.125,50,140.0
2985,G2,240.0,0.25,55,140.0
2986,B-2,240.0,1.0,77,140.0
2987,D2,240.0,1.0,77,140.0
2988,G2,240.25,0.25,55,140.0
2989,B4,241.0,0.5,45,140.0
2990,B4,241.0,0.5,50,140.0
2991,B4,241.0,0.5,50,140.0
2992,B-2,241.0,1.0,64,140.0
2993,C2,241.0,0.25,110,140.0
2994,C2,241.25,0.25,110,140.0
2995,C#5,241.5,0.5,45,140.0
2996,G2,241.5,0.25,55,140.0
2997,C#5,241.5,0.5,50,140.0
2998,C#5,241.5,0.5,50,140.0
2999,G2,241.75,0.25,55,140.0
3000,C#5,242.0,0.667,45,140.0
3001,C#5,242.0,0.667,50,140.0
3002,C#5,242.0,0.667,50,140.0
3003,B-2,242.0,1.0,64,140.0
3004,C2,242.5,0.25,110,140.0
3005,B4,242.667,0.666,45,140.0
3006,B4,242.667,0.666,50,140.0
3007,B4,242.667,0.666,50,140.0
3008,C2,242.75,0.25,110,140.0
3009,B-2,243.0,1.0,64,140.0
3010,D5,243.333,0.667,45,140.0
3011,D3,243.333,0.667,55,140.0
3012,D5,243.333,0.667,50,140.0
3013,D5,243.333,0.667,50,140.0
3014,F5,244.0,0.667,45,140.0
3015,F3,244.0,0.667,55,140.0
3016,F5,244.0,0.667,50,140.0
3017,F5,244.0,0.667,50,140.0
3018,B-2,244.0,1.0,64,140.0
3019,D2,244.0,0.5,90,140.0
3020,C2,244.5,0.5,110,140.0
3021,A4,244.667,0.666,45,140.0
3022,A2,244.667,0.666,55,140.0
3023,A4,244.667,0.666,50,140.0
3024,A4,244.667,0.666,50,140.0
3025,D2,245.0,0.083,90,140.0
3026,G#2,245.0,1.0,64,140.0
3027,D2,245.083,0.084,90,140.0
3028,D2,245.167,0.083,90,140.0
3029,D2,245.25,0.083,90,140.0
3030,A4,245.333,0.667,45,140.0
3031,A2,245.333,0.667,55,140.0
3032,A4,245.333,0.667,50,140.0
3033,A4,245.333,0.667,50,140.0
3034,D2,245.333,0.084,90,140.0
3035,D2,245.417,0.083,90,140.0
3036,D2,245.5,0.083,90,140.0
3037,D2,245.583,0.084,90,140.0
3038,B-4,246.0,1.5,45,140.0
3039,B-2,246.0,1.5,55,140.0
3040,B-4,246.0,1.5,50,140.0
3041,B-4,246.0,1.5,50,140.0
3042,G#2,246.0,1.0,64,140.0
3043,C2,246.333,0.667,64,140.0
3044,C2,247.0,1.0,64,140.0
3045,E-3,247.0,2.0,64,140.0
3046,C#3,247.0,2.0,64,140.0
3047,C#5,247.5,0.5,45,140.0
3048,C#3,247.5,0.5,55,140.0
3049,C#5,247.5,0.5,50,140.0
3050,C#5,247.5,0.5,50,140.0
3051,E5,248.0,0.667,45,140.0
3052,E3,248.0,0.667,55,140.0
3053,E5,248.0,0.667,50,140.0
3054,E5,248.0,0.667,50,140.0
3055,D2,248.0,0.5,90,140.0
3056,C2,248.5,0.5,64,140.0
3057,A5,248.667,0.666,45,140.0
3058,A3,248.667,0.666,55,140.0
3059,A5,248.667,0.666,50,140.0
3060,A5,248.667,0.666,50,140.0
3061,C2,249.0,0.667,87,140.0
3062,B-2,249.0,0.667,87,140.0
3063,B-5,249.333,0.667,45,140.0
3064,B-3,249.333,0.667,55,140.0
3065,B-5,249.333,0.667,50,140.0
3066,B-5,249.333,0.667,50,140.0
3067,G#2,249.667,0.666,64,140.0
3068,C3,249.667,0.666,64,140.0
3069,F5,250.0,0.667,45,140.0
3070,F3,250.0,0.667,55,140.0
3071,F5,250.0,0.667,50,140.0
3072,F5,250.0,0.667,50,140.0
3073,G2,250.333,0.667,64,140.0
3074,B-2,250.333,0.667,64,140.0
3075,C5,250.667,0.666,45,140.0
3076,C3,250.667,0.666,55,140.0
3077,C5,250.667,0.666,50,140.0
3078,C5,250.667,0.666,50,140.0
3079,G#2,251.0,0.667,64,140.0
3080,C3,251.0,0.667,64,140.0
3081,G4,251.333,0.667,45,140.0
3082,G2,251.333,0.667,55,140.0
3083,G4,251.333,0.667,50,140.0
3084,G4,251.333,0.667,50,140.0
3085,G2,251.667,0.666,64,140.0
3086,B-2,251.667,0.666,64,140.0
3087,A4,252.0,4.0,45,140.0
3088,B-2,252.0,0.25,55,140.0
3089,A4,252.0,4.0,50,140.0
3090,A4,252.0,0.125,50,140.0
3091,A4,252.125,0.125,50,140.0
3092,B-2,252.25,0.25,55,140.0
3093,A4,252.25,0.125,50,140.0
3094,G#2,252.333,0.667,64,140.0
3095,C3,252.333,0.667,64,140.0
3096,A4,252.375,0.125,50,140.0
3097,A4,252.5,0.125,50,140.0
3098,A4,252.625,0.125,50,140.0
3099,A4,252.75,0.125,50,140.0
3100,A4,252.875,0.125,50,140.0
3101,A4,253.0,0.125,50,140.0
3102,B-2,253.0,1.0,64,140.0
3103,C2,253.0,0.25,110,140.0
3104,A4,253.125,0.125,50,140.0
3105,A4,253.25,0.125,50,140.0
3106,C2,253.25,0.25,110,140.0
3107,A4,253.375,0.125,50,140.0
3108,B-2,253.5,0.25,55,140.0
3109,A4,253.5,0.125,50,140.0
3110,A4,253.625,0.125,50,140.0
3111,B-2,253.75,0.25,55,140.0
3112,A4,253.75,0.125,50,140.0
3113,A4,253.875,0.125,50,140.0
3114,A4,254.0,0.125,50,140.0
3115,B-2,254.0,1.0,64,140.0
3116,D2,254.0,0.5,90,140.0
3117,A4,254.125,0.125,50,140.0
3118,A4,254.25,0.125,50,140.0
3119,A4,254.375,0.125,50,140.0
3120,A4,254.5,0.125,50,140.0
3121,C2,254.5,0.25,110,140.0
3122,A4,254.625,0.125,50,140.0
3123,A4,254.75,0.125,50,140.0
3124,C2,254.75,0.25,110,140.0
3125,A4,254.875,0.125,50,140.0
3126,A4,255.0,0.125,50,140.0
3127,B-2,255.0,1.0,64,140.0
3128,A4,255.125,0.125,50,140.0
3129,A4,255.25,0.125,50,140.0
3130,A4,255.375,0.125,50,140.0
3131,F2,255.5,0.25,55,140.0
3132,A4,255.5,0.125,50,140.0
3133,A4,255.625,0.125,50,140.0
3134,G2,255.75,0.25,55,140.0
3135,A4,255.75,0.125,50,140.0
3136,A4,255.875,0.125,50,140.0
3137,A4,256.0,1.0,45,140.0
3138,B-2,256.0,0.25,55,140.0
3139,A4,256.0,1.0,50,140.0
3140,A4,256.0,0.125,50,140.0
3141,B-2,256.0,1.0,64,140.0
3142,D2,256.0,0.5,90,140.0
3143,A4,256.125,0.125,50,140.0
3144,B-2,256.25,0.25,55,140.0
3145,A4,256.25,0.125,50,140.0
3146,A4,256.375,0.125,50,140.0
3147,A4,256.5,0.125,50,140.0
3148,C2,256.5,0.25,110,140.0
3149,A4,256.625,0.125,50,140.0
3150,A4,256.75,0.125,50,140.0
3151,C2,256.75,0.25,110,140.0
3152,A4,256.875,0.125,50,140.0
3153,A5,257.0,3.0,45,140.0
3154,A5,257.0,3.0,50,140.0
3155,A5,257.0,0.125,50,140.0
3156,B-2,257.0,1.0,64,140.0
3157,C2,257.0,0.25,110,140.0
3158,A5,257.125,0.125,50,140.0
3159,A5,257.25,0.125,50,140.0
3160,C2,257.25,0.25,110,140.0
3161,A5,257.375,0.125,50,140.0
3162,B-2,257.5,0.25,55,140.0
3163,A5,257.5,0.125,50,140.0
3164,A5,257.625,0.125,50,140.0
3165,B-2,257.75,0.25,55,140.0
3166,A5,257.75,0.125,50,140.0
3167,A5,257.875,0.125,50,140.0
3168,A5,258.0,0.125,50,140.0
3169,B-2,258.0,1.0,64,140.0
3170,D2,258.0,0.5,90,140.0
3171,A5,258.125,0.125,50,140.0
3172,A5,258.25,0.125,50,140.0
3173,A5,258.375,0.125,50,140.0
3174,A5,258.5,0.125,50,140.0
3175,C2,258.5,0.25,110,140.0
3176,A5,258.625,0.125,50,140.0
3177,A5,258.75,0.125,50,140.0
3178,C2,258.75,0.25,110,140.0
3179,A5,258.875,0.125,50,140.0
3180,A5,259.0,0.125,50,140.0
3181,B-2,259.0,1.0,64,140.0
3182,A5,259.125,0.125,50,140.0
3183,A5,259.25,0.125,50,140.0
3184,A5,259.375,0.125,50,140.0
3185,F3,259.5,0.25,55,140.0
3186,A5,259.5,0.125,50,140.0
3187,A5,259.625,0.125,50,140.0
3188,F3,259.75,0.25,55,140.0
3189,A5,259.75,0.125,50,140.0
3190,A5,259.875,0.125,50,140.0
3191,A5,260.0,2.0,45,140.0
3192,B-2,260.0,0.25,55,140.0
3193,A5,260.0,2.0,50,140.0
3194,A5,260.0,0.125,50,140.0
3195,B-2,260.0,1.0,64,140.0
3196,D2,260.0,0.5,90,140.0
3197,A5,260.125,0.125,50,140.0
3198,B-2,260.25,0.25,55,140.0
3199,A5,260.25,0.125,50,140.0
3200,A5,260.375,0.125,50,140.0
3201,A5,260.5,0.125,50,140.0
3202,C2,260.5,0.25,110,140.0
3203,A5,260.625,0.125,50,140.0
3204,A5,260.75,0.125,50,140.0
3205,C2,260.75,0.25,110,140.0
3206,A5,260.875,0.125,50,140.0
3207,A5,261.0,0.125,50,140.0
3208,B-2,261.0,1.0,64,140.0
3209,C2,261.0,0.25,110,140.0
3210,A5,261.125,0.125,50,140.0
3211,A5,261.25,0.125,50,140.0
3212,C2,261.25,0.25,110,140.0
3213,A5,261.375,0.125,50,140.0
3214,B-2,261.5,0.25,55,140.0
3215,A5,261.5,0.5,50,140.0
3216,B-2,261.75,0.25,55,140.0
3217,A5,262.0,2.0,45,140.0
3218,A5,262.0,2.0,50,140.0
3219,A5,262.0,0.125,50,140.0
3220,B-2,262.0,1.0,64,140.0
3221,D2,262.0,0.5,90,140.0
3222,A5,262.125,0.125,50,140.0
3223,A5,262.25,0.125,50,140.0
3224,A5,262.375,0.125,50,140.0
3225,A5,262.5,0.125,50,140.0
3226,C2,262.5,0.25,110,140.0
3227,A5,262.625,0.125,50,140.0
3228,A5,262.75,0.125,50,140.0
3229,C2,262.75,0.25,110,140.0
3230,A5,262.875,0.125,50,140.0
3231,A5,263.0,0.125,50,140.0
3232,B-2,263.0,1.0,64,140.0
3233,A5,263.125,0.125,50,140.0
3234,A5,263.25,0.125,50,140.0
3235,A5,263.375,0.125,50,140.0
3236,F2,263.5,0.25,55,140.0
3237,A5,263.5,0.125,50,140.0
3238,A5,263.625,0.125,50,140.0
3239,G2,263.75,0.25,55,140.0
3240,A5,263.75,0.125,50,140.0
3241,A5,263.875,0.125,50,140.0
3242,A5,264.0,3.0,45,140.0
3243,B-2,264.0,0.25,55,140.0
3244,A5,264.0,3.0,50,140.0
3245,A5,264.0,0.125,50,140.0
3246,B-2,264.0,1.0,64,140.0
3247,D2,264.0,0.5,90,140.0
3248,A5,264.125,0.125,50,140.0
3249,B-2,264.25,0.25,55,140.0
3250,A5,264.25,0.125,50,140.0
3251,A5,264.375,0.125,50,140.0
3252,A5,264.5,0.125,50,140.0
3253,C2,264.5,0.25,110,140.0
3254,A5,264.625,0.125,50,140.0
3255,A5,264.75,0.125,50,140.0
3256,C2,264.75,0.25,110,140.0
3257,A5,264.875,0.125,50,140.0
3258,A5,265.0,0.125,50,140.0
3259,B-2,265.0,1.0,64,140.0
3260,C2,265.0,0.25,110,140.0
3261,A5,265.125,0.125,50,140.0
3262,A5,265.25,0.125,50,140.0
3263,C2,265.25,0.25,110,140.0
3264,A5,265.375,0.125,50,140.0
3265,B-2,265.5,0.25,55,140.0
3266,A5,265.5,0.125,50,140.0
3267,A5,265.625,0.125,50,140.0
3268,B-2,265.75,0.25,55,140.0
3269,A5,265.75,0.125,50,140.0
3270,A5,265.875,0.125,50,140.0
3271,A5,266.0,0.125,50,140.0
3272,B-2,266.0,1.0,64,140.0
3273,D2,266.0,0.5,90,140.0
3274,A5,266.125,0.125,50,140.0
3275,A5,266.25,0.125,50,140.0
3276,A5,266.375,0.125,50,140.0
3277,B-2,266.5,0.5,55,140.0
3278,C2,266.5,0.25,110,140.0
3279,C2,266.75,0.25,110,140.0
3280,A4,267.0,1.0,45,140.0
3281,A2,267.0,0.5,55,140.0
3282,A4,267.0,1.0,50,140.0
3283,A4,267.0,0.125,50,140.0
3284,B-2,267.0,1.0,64,140.0
3285,A4,267.125,0.125,50,140.0
3286,A4,267.25,0.125,50,140.0
3287,A4,267.375,0.125,50,140.0
3288,G#2,267.5,0.5,55,140.0
3289,A4,267.5,0.125,50,140.0
3290,A4,267.625,0.125,50,140.0
3291,A4,267.75,0.125,50,140.0
3292,A4,267.875,0.125,50,140.0
3293,A4,268.0,4.0,45,140.0
3294,G2,268.0,0.25,55,140.0
3295,A4,268.0,4.0,50,140.0
3296,A4,268.0,0.125,50,140.0
3297,B-2,268.0,1.0,64,140.0
3298,D2,268.0,0.5,90,140.0
3299,A4,268.125,0.125,50,140.0
3300,G2,268.25,0.25,55,140.0
3301,A4,268.25,0.125,50,140.0
3302,A4,268.375,0.125,50,140.0
3303,A4,268.5,0.125,50,140.0
3304,C2,268.5,0.25,110,140.0
3305,A4,268.625,0.125,50,140.0
3306,A4,268.75,0.125,50,140.0
3307,C2,268.75,0.25,110,140.0
3308,A4,268.875,0.125,50,140.0
3309,A4,269.0,0.125,50,140.0
3310,B-2,269.0,1.0,64,140.0
3311,C2,269.0,0.25,110,140.0
3312,A4,269.125,0.125,50,140.0
3313,A4,269.25,0.125,50,140.0
3314,C2,269.25,0.25,110,140.0
3315,A4,269.375,0.125,50,140.0
3316,G2,269.5,0.25,55,140.0
3317,A4,269.5,0.125,50,140.0
3318,A4,269.625,0.125,50,140.0
3319,G2,269.75,0.25,55,140.0
3320,A4,269.75,0.125,50,140.0
3321,A4,269.875,0.125,50,140.0
3322,A4,270.0,0.125,50,140.0
3323,B-2,270.0,1.0,64,140.0
3324,D2,270.0,0.5,90,140.0
3325,A4,270.125,0.125,50,140.0
3326,A4,270.25,0.125,50,140.0
3327,A4,270.375,0.125,50,140.0
3328,A4,270.5,0.125,50,140.0
3329,C2,270.5,0.25,110,140.0
3330,A4,270.625,0.125,50,140.0
3331,A4,270.75,0.125,50,140.0
3332,C2,270.75,0.25,110,140.0
3333,A4,270.875,0.125,50,140.0
3334,A4,271.0,0.125,50,140.0
3335,B-2,271.0,1.0,64,140.0
3336,B4,271.125,0.125,50,140.0
3337,C5,271.25,0.125,50,140.0
3338,D5,271.375,0.125,50,140.0
3339,D2,271.5,0.25,55,140.0
3340,E5,271.5,0.125,50,140.0
3341,F5,271.625,0.125,50,140.0
3342,E2,271.75,0.25,55,140.0
3343,G5,271.75,0.125,50,140.0
3344,A5,271.875,0.125,50,140.0
3345,B5,272.0,4.0,45,140.0
3346,G2,272.0,0.25,55,140.0
3347,B5,272.0,4.0,50,140.0
3348,B5,272.0,0.125,50,140.0
3349,B-2,272.0,1.0,64,140.0
3350,D2,272.0,0.5,90,140.0
3351,B5,272.125,0.125,50,140.0
3352,G2,272.25,0.25,55,140.0
3353,B5,272.25,0.125,50,140.0
3354,B5,272.375,0.125,50,140.0
3355,B5,272.5,0.125,50,140.0
3356,C2,272.5,0.25,110,140.0
3357,B5,272.625,0.125,50,140.0
3358,B5,272.75,0.125,50,140.0
3359,C2,272.75,0.25,110,140.0
3360,B5,272.875,0.125,50,140.0
3361,B5,273.0,0.125,50,140.0
3362,B-2,273.0,1.0,64,140.0
3363,C2,273.0,0.25,110,140.0
3364,B5,273.125,0.125,50,140.0
3365,B5,273.25,0.125,50,140.0
3366,C2,273.25,0.25,110,140.0
3367,B5,273.375,0.125,50,140.0
3368,G2,273.5,0.25,55,140.0
3369,B5,273.5,0.125,50,140.0
3370,B5,273.625,0.125,50,140.0
3371,G2,273.75,0.25,55,140.0
3372,B5,273.75,0.125,50,140.0
3373,B5,273.875,0.125,50,140.0
3374,B5,274.0,0.125,50,140.0
3375,B-2,274.0,1.0,64,140.0
3376,D2,274.0,0.5,90,140.0
3377,B5,274.125,0.125,50,140.0
3378,B5,274.25,0.125,50,140.0
3379,B5,274.375,0.125,50,140.0
3380,B5,274.5,0.125,50,140.0
3381,C2,274.5,0.25,110,140.0
3382,B5,274.625,0.125,50,140.0
3383,B5,274.75,0.125,50,140.0
3384,C2,274.75,0.25,110,140.0
3385,B5,274.875,0.125,50,140.0
3386,B5,275.0,0.125,50,140.0
3387,B-2,275.0,1.0,64,140.0
3388,B5,275.125,0.125,50,140.0
3389,B5,275.25,0.125,50,140.0
3390,B5,275.375,0.125,50,140.0
3391,D3,275.5,0.25,55,140.0
3392,B5,275.5,0.125,50,140.0
3393,B5,275.625,0.125,50,140.0
3394,D3,275.75,0.25,55,140.0
3395,B5,275.75,0.125,50,140.0
3396,B5,275.875,0.125,50,140.0
3397,B5,276.0,1.0,45,140.0
3398,G2,276.0,0.25,55,140.0
3399,B5,276.0,1.0,50,140.0
3400,B5,276.0,0.125,50,140.0
3401,B-2,276.0,1.0,64,140.0
3402,D2,276.0,0.5,90,140.0
3403,B5,276.125,0.125,50,140.0
3404,G2,276.25,0.25,55,140.0
3405,B5,276.25,0.125,50,140.0
3406,B5,276.375,0.125,50,140.0
3407,B5,276.5,0.5,50,140.0
3408,C2,276.5,0.25,110,140.0
3409,C2,276.75,0.25,110,140.0
3410,C#5,277.0,3.0,45,140.0
3411,C#5,277.0,3.0,50,140.0
3412,C#5,277.0,0.125,50,140.0
3413,B-2,277.0,1.0,64,140.0
3414,C2,277.0,0.25,110,140.0
3415,C#5,277.125,0.125,50,140.0
3416,C#5,277.25,0.125,50,140.0
3417,C2,277.25,0.25,110,140.0
3418,C#5,277.375,0.125,50,140.0
3419,G2,277.5,0.25,55,140.0
3420,C#5,277.5,0.125,50,140.0
3421,C#5,277.625,0.125,50,140.0
3422,G2,277.75,0.25,55,140.0
3423,C#5,277.75,0.125,50,140.0
3424,C#5,277.875,0.125,50,140.0
3425,C#5,278.0,0.125,50,140.0
3426,B-2,278.0,1.0,64,140.0
3427,D2,278.0,0.5,90,140.0
3428,C#5,278.125,0.125,50,140.0
3429,C#5,278.25,0.125,50,140.0
3430,C#5,278.375,0.125,50,140.0
3431,C#5,278.5,0.125,50,140.0
3432,C2,278.5,0.25,110,140.0
3433,C#5,278.625,0.125,50,140.0
3434,C#5,278.75,0.125,50,140.0
3435,C2,278.75,0.25,110,140.0
3436,C#5,278.875,0.125,50,140.0
3437,C#5,279.0,0.125,50,140.0
3438,B-2,279.0,1.0,64,140.0
3439,C#5,279.125,0.125,50,140.0
3440,C#5,279.25,0.125,50,140.0
3441,C#5,279.375,0.125,50,140.0
3442,D2,279.5,0.25,55,140.0
3443,C#5,279.5,0.125,50,140.0
3444,C#5,279.625,0.125,50,140.0
3445,E2,279.75,0.25,55,140.0
3446,C#5,279.75,0.125,50,140.0
3447,C#5,279.875,0.125,50,140.0
3448,C#5,280.0,2.0,45,140.0
3449,G2,280.0,0.25,55,140.0
3450,C#5,280.0,2.0,50,140.0
3451,C#5,280.0,0.125,50,140.0
3452,B-2,280.0,1.0,64,140.0
3453,D2,280.0,0.5,90,140.0
3454,C#5,280.125,0.125,50,140.0
3455,G2,280.25,0.25,55,140.0
3456,C#5,280.25,0.125,50,140.0
3457,C#5,280.375,0.125,50,140.0
3458,C#5,280.5,0.125,50,140.0
3459,C2,280.5,0.25,110,140.0
3460,C#5,280.625,0.125,50,140.0
3461,C#5,280.75,0.125,50,140.0
3462,C2,280.75,0.25,110,140.0
3463,C#5,280.875,0.125,50,140.0
3464,C#5,281.0,0.125,50,140.0
3465,B-2,281.0,1.0,64,140.0
3466,C2,281.0,0.25,110,140.0
3467,C#5,281.125,0.125,50,140.0
3468,C#5,281.25,0.125,50,140.0
3469,C2,281.25,0.25,110,140.0
3470,C#5,281.375,0.125,50,140.0
3471,G2,281.5,0.25,55,140.0
3472,C#5,281.5,0.125,50,140.0
3473,C#5,281.625,0.125,50,140.0
3474,G2,281.75,0.25,55,140.0
3475,C#5,281.75,0.125,50,140.0
3476,C#5,281.875,0.125,50,140.0
3477,E5,282.0,2.0,45,140.0
3478,E5,282.0,2.0,50,140.0
3479,E5,282.0,0.125,50,140.0
3480,B-2,282.0,1.0,64,140.0
3481,D2,282.0,0.5,90,140.0
3482,E5,282.125,0.125,50,140.0
3483,E5,282.25,0.125,50,140.0
3484,E5,282.375,0.125,50,140.0
3485,G2,282.5,0.5,55,140.0
3486,E5,282.5,0.125,50,140.0
3487,C2,282.5,0.25,110,140.0
3488,E5,282.625,0.125,50,140.0
3489,E5,282.75,0.125,50,140.0
3490,C2,282.75,0.25,110,140.0
3491,E5,282.875,0.125,50,140.0
3492,G#2,283.0,0.5,55,140.0
3493,E5,283.0,0.125,50,140.0
3494,B-2,283.0,1.0,64,140.0
3495,E5,283.125,0.125,50,140.0
3496,E5,283.25,0.125,50,140.0
3497,E5,283.375,0.125,50,140.0
3498,A2,283.5,0.5,55,140.0
3499,E5,283.5,0.125,50,140.0
3500,E5,283.625,0.125,50,140.0
3501,E5,283.75,0.125,50,140.0
3502,E5,283.875,0.125,50,140.0
3503,E5,284.0,3.0,45,140.0
3504,B-2,284.0,0.25,55,140.0
3505,E5,284.0,3.0,50,140.0
3506,E5,284.0,0.125,50,140.0
3507,B-2,284.0,1.0,64,140.0
3508,D2,284.0,0.5,90,140.0
3509,E5,284.125,0.125,50,140.0
3510,B-2,284.25,0.25,55,140.0
3511,E5,284.25,0.125,50,140.0
3512,E5,284.375,0.125,50,140.0
3513,E5,284.5,0.125,50,140.0
3514,C2,284.5,0.25,110,140.0
3515,E5,284.625,0.125,50,140.0
3516,E5,284.75,0.125,50,140.0
3517,C2,284.75,0.25,110,140.0
3518,E5,284.875,0.125,50,140.0
3519,E5,285.0,0.125,50,140.0
3520,B-2,285.0,1.0,64,140.0
3521,C2,285.0,0.25,110,140.0
3522,E5,285.125,0.125,50,140.0
3523,E5,285.25,0.125,50,140.0
3524,C2,285.25,0.25,110,140.0
3525,E5,285.375,0.125,50,140.0
3526,B-2,285.5,0.25,55,140.0
3527,E5,285.5,0.125,50,140.0
3528,E5,285.625,0.125,50,140.0
3529,B-2,285.75,0.25,55,140.0
3530,E5,285.75,0.125,50,140.0
3531,E5,285.875,0.125,50,140.0
3532,E5,286.0,0.125,50,140.0
3533,B-2,286.0,1.0,64,140.0
3534,D2,286.0,0.5,90,140.0
3535,E5,286.125,0.125,50,140.0
3536,E5,286.25,0.125,50,140.0
3537,E5,286.375,0.125,50,140.0
3538,E5,286.5,0.125,50,140.0
3539,C2,286.5,0.25,110,140.0
3540,E5,286.625,0.125,50,140.0
3541,E5,286.75,0.125,50,140.0
3542,C2,286.75,0.25,110,140.0
3543,E5,286.875,0.125,50,140.0
3544,C#5,287.0,1.0,45,140.0
3545,C#5,287.0,1.0,50,140.0
3546,C#5,287.0,0.125,50,140.0
3547,B-2,287.0,1.0,64,140.0
3548,C#5,287.125,0.125,50,140.0
3549,C#5,287.25,0.125,50,140.0
3550,C#5,287.375,0.125,50,140.0
3551,F2,287.5,0.25,55,140.0
3552,C#5,287.5,0.125,50,140.0
3553,C#5,287.625,0.125,50,140.0
3554,G2,287.75,0.25,55,140.0
3555,C#5,287.75,0.125,50,140.0
3556,C#5,287.875,0.125,50,140.0
3557,C#5,288.0,4.0,45,140.0
3558,B-2,288.0,0.25,55,140.0
3559,C#5,288.0,4.0,50,140.0
3560,C#5,288.0,0.125,50,140.0
3561,B-2,288.0,1.0,64,140.0
3562,D2,288.0,0.5,90,140.0
3563,C#5,288.125,0.125,50,140.0
3564,B-2,288.25,0.25,55,140.0
3565,C#5,288.25,0.125,50,140.0
3566,C#5,288.375,0.125,50,140.0
3567,C#5,288.5,0.125,50,140.0
3568,C2,288.5,0.25,110,140.0
3569,C#5,288.625,0.125,50,140.0
3570,C#5,288.75,0.125,50,140.0
3571,C2,288.75,0.25,110,140.0
3572,C#5,288.875,0.125,50,140.0
3573,C#5,289.0,0.125,50,140.0
3574,B-2,289.0,1.0,64,140.0
3575,C2,289.0,0.25,110,140.0
3576,C#5,289.125,0.125,50,140.0
3577,C#5,289.25,0.125,50,140.0
3578,C2,289.25,0.25,110,140.0
3579,C#5,289.375,0.125,50,140.0
3580,B-2,289.5,0.25,55,140.0
3581,C#5,289.5,0.125,50,140.0
3582,C#5,289.625,0.125,50,140.0
3583,B-2,289.75,0.25,55,140.0
3584,C#5,289.75,0.125,50,140.0
3585,C#5,289.875,0.125,50,140.0
3586,C#5,290.0,0.125,50,140.0
3587,B-2,290.0,1.0,64,140.0
3588,D2,290.0,0.5,90,140.0
3589,C#5,290.125,0.125,50,140.0
3590,C#5,290.25,0.125,50,140.0
3591,C#5,290.375,0.125,50,140.0
3592,C#5,290.5,0.125,50,140.0
3593,C2,290.5,0.25,110,140.0
3594,C#5,290.625,0.125,50,140.0
3595,C#5,290.75,0.125,50,140.0
3596,C2,290.75,0.25,110,140.0
3597,C#5,290.875,0.125,50,140.0
3598,B-2,291.0,1.0,64,140.0
3599,B4,292.0,0.5,45,140.0
3600,B2,292.0,0.5,55,140.0
3601,B4,292.0,0.5,50,140.0
3602,B4,292.0,0.5,50,140.0
3603,B-2,292.0,1.0,64,140.0
3604,D2,292.0,0.5,90,140.0
3605,C5,292.5,0.5,45,140.0
3606,C3,292.5,0.5,55,140.0
3607,C5,292.5,0.5,50,140.0
3608,C5,292.5,0.5,50,140.0
3609,C2,292.5,0.25,110,140.0
3610,C2,292.75,0.25,110,140.0
3611,C5,293.0,0.333,45,140.0
3612,C3,293.0,0.333,55,140.0
3613,C5,293.0,0.333,50,140.0
3614,C5,293.0,0.333,50,140.0
3615,D2,293.0,0.5,90,140.0
3616,G#2,293.0,1.0,80,140.0
3617,A4,293.333,0.334,45,140.0
3618,A2,293.333,0.334,55,140.0
3619,A4,293.333,0.334,50,140.0
3620,A4,293.333,0.334,50,140.0
3621,C2,293.5,0.5,110,140.0
3622,D5,293.667,0.333,45,140.0
3623,D3,293.667,0.333,55,140.0
3624,D5,293.667,0.333,50,140.0
3625,D5,293.667,0.333,50,140.0
3626,E-5,294.0,0.4,45,140.0
3627,E-3,294.0,0.4,55,140.0
3628,E-5,294.0,0.4,50,140.0
3629,E-5,294.0,0.4,50,140.0
3630,D2,294.0,0.333,90,140.0
3631,G#2,294.0,1.0,80,140.0
3632,C2,294.333,0.334,110,140.0
3633,G4,294.4,0.399,45,140.0
3634,G2,294.4,0.399,55,140.0
3635,G4,294.4,0.399,50,140.0
3636,G4,294.4,0.399,50,140.0
3637,D2,294.667,0.333,90,140.0
3638,G4,294.8,0.4,45,140.0
3639,G2,294.8,0.4,55,140.0
3640,G4,294.8,0.4,50,140.0
3641,G4,294.8,0.4,50,140.0
3642,D3,295.0,0.4,64,140.0
3643,G#2,295.0,1.0,80,140.0
3644,A4,295.2,0.399,45,140.0
3645,A2,295.2,0.399,55,140.0
3646,A4,295.2,0.399,50,140.0
3647,A4,295.2,0.399,50,140.0
3648,D2,295.4,0.399,90,140.0
3649,F4,295.6,0.4,45,140.0
3650,F2,295.6,0.4,55,140.0
3651,F4,295.6,0.4,50,140.0
3652,F4,295.6,0.4,50,140.0
3653,C3,295.8,0.4,64,140.0
3654,E4,296.0,0.667,45,140.0
3655,E2,296.0,0.667,55,140.0
3656,E4,296.0,0.667,50,140.0
3657,E4,296.0,0.667,50,140.0
3658,G#2,296.0,1.0,80,140.0
3659,A2,296.2,0.399,64,140.0
3660,G2,296.6,0.4,64,140.0
3661,G4,296.667,0.666,45,140.0
3662,G2,296.667,0.666,55,140.0
3663,G4,296.667,0.666,50,140.0
3664,G4,296.667,0.666,50,140.0
3665,C2,297.0,0.667,87,140.0
3666,B-2,297.0,0.667,87,140.0
3667,G4,297.333,0.667,45,140.0
3668,G2,297.333,0.667,55,140.0
3669,G4,297.333,0.667,50,140.0
3670,G4,297.333,0.667,50,140.0
3671,G#2,297.667,0.666,64,140.0
3672,C3,297.667,0.666,64,140.0
3673,F4,298.0,0.667,45,140.0
3674,F2,298.0,0.667,55,140.0
3675,F4,298.0,0.667,50,140.0
3676,F4,298.0,0.667,50,140.0
3677,G2,298.333,0.667,64,140.0
3678,B-2,298.333,0.667,64,140.0
3679,F4,298.667,0.666,45,140.0
3680,F2,298.667,0.666,55,140.0
3681,F4,298.667,0.666,50,140.0
3682,F4,298.667,0.666,50,140.0
3683,G#2,299.0,0.667,64,140.0
3684,C3,299.0,0.667,64,140.0
3685,B-4,299.333,0.667,45,140.0
3686,B-2,299.333,0.667,55,140.0
3687,B-4,299.333,0.667,50,140.0
3688,B-4,299.333,0.667,50,140.0
3689,G2,299.667,0.666,64,140.0
3690,B-2,299.667,0.666,64,140.0
3691,B4,300.0,4.0,45,140.0
3692,C3,300.0,0.25,55,140.0
3693,B4,300.0,4.0,50,140.0
3694,B4,300.0,0.125,50,140.0
3695,B4,300.125,0.125,50,140.0
3696,C3,300.25,0.25,55,140.0
3697,B4,300.25,0.125,50,140.0
3698,G#2,300.333,0.667,64,140.0
3699,C3,300.333,0.667,64,140.0
3700,B4,300.375,0.125,50,140.0
3701,B4,300.5,0.125,50,140.0
3702,B4,300.625,0.125,50,140.0
3703,B4,300.75,0.125,50,140.0
3704,B4,300.875,0.125,50,140.0
3705,B4,301.0,0.125,50,140.0
3706,C3,301.0,0.25,64,140.0
3707,G#2,301.0,1.0,64,140.0
3708,B4,301.125,0.125,50,140.0
3709,B4,301.25,0.125,50,140.0
3710,D2,301.25,0.25,90,140.0
3711,B4,301.375,0.125,50,140.0
3712,C3,301.5,0.25,55,140.0
3713,B4,301.5,0.125,50,140.0
3714,G2,301.5,0.25,64,140.0
3715,B4,301.625,0.125,50,140.0
3716,C3,301.75,0.25,55,140.0
3717,B4,301.75,0.125,50,140.0
3718,B-2,301.75,0.25,64,140.0
3719,B4,301.875,0.125,50,140.0
3720,B4,302.0,0.125,50,140.0
3721,A2,302.0,0.179,64,140.0
3722,G#2,302.0,1.0,64,140.0
3723,B4,302.125,0.125,50,140.0
3724,G2,302.179,0.179,64,140.0
3725,B4,302.25,0.125,50,140.0
3726,B-2,302.357,0.179,64,140.0
3727,B4,302.375,0.125,50,140.0
3728,B4,302.5,0.125,50,140.0
3729,G#3,302.536,0.178,64,140.0
3730,B4,302.625,0.125,50,140.0
3731,G#3,302.714,0.179,64,140.0
3732,B4,302.75,0.125,50,140.0
3733,B4,302.875,0.125,50,140.0
3734,C3,302.893,0.179,64,140.0
3735,B4,303.0,0.125,50,140.0
3736,G#2,303.0,1.0,64,140.0
3737,D2,303.071,0.179,90,140.0
3738,B4,303.125,0.125,50,140.0
3739,B4,303.25,0.125,50,140.0
3740,G2,303.25,0.25,64,140.0
3741,B4,303.375,0.125,50,140.0
3742,B4,303.5,0.125,50,140.0
3743,D3,303.5,0.25,64,140.0
3744,B4,303.625,0.125,50,140.0
3745,B4,303.75,0.125,50,140.0
3746,C3,303.75,0.25,64,140.0
3747,B4,303.875,0.125,50,140.0
3748,B4,304.0,4.0,45,140.0
3749,C3,304.0,0.25,55,140.0
3750,B4,304.0,4.0,50,140.0
3751,B4,304.0,0.125,50,140.0
3752,D2,304.0,0.25,90,140.0
3753,G#2,304.0,1.0,64,140.0
3754,B4,304.125,0.125,50,140.0
3755,C3,304.25,0.25,55,140.0
3756,B4,304.25,0.125,50,140.0
3757,C3,304.25,0.25,64,140.0
3758,B4,304.375,0.125,50,140.0
3759,B4,304.5,0.125,50,140.0
3760,G2,304.5,0.25,64,140.0
3761,B4,304.625,0.125,50,140.0
3762,B4,304.75,0.125,50,140.0
3763,F2,304.75,0.25,64,140.0
3764,B4,304.875,0.125,50,140.0
3765,B4,305.0,0.125,50,140.0
3766,G#3,305.0,0.25,64,140.0
3767,G#2,305.0,1.0,64,140.0
3768,B4,305.125,0.125,50,140.0
3769,B4,305.25,0.125,50,140.0
3770,A2,305.25,0.25,64,140.0
3771,B4,305.375,0.125,50,140.0
3772,C3,305.5,0.25,55,140.0
3773,B4,305.5,0.125,50,140.0
3774,C3,305.5,0.25,64,140.0
3775,B4,305.625,0.125,50,140.0
3776,C3,305.75,0.25,55,140.0
3777,B4,305.75,0.125,50,140.0
3778,G#3,305.75,0.25,64,140.0
3779,B4,305.875,0.125,50,140.0
3780,B4,306.0,0.125,50,140.0
3781,G#3,306.0,0.25,64,140.0
3782,G#2,306.0,1.0,64,140.0
3783,B4,306.125,0.125,50,140.0
3784,B4,306.25,0.125,50,140.0
3785,A2,306.25,0.25,64,140.0
3786,B4,306.375,0.125,50,140.0
3787,B4,306.5,0.125,50,140.0
3788,C3,306.5,0.25,64,140.0
3789,B4,306.625,0.125,50,140.0
3790,B4,306.75,0.125,50,140.0
3791,A2,306.75,0.25,64,140.0
3792,B4,306.875,0.125,50,140.0
3793,B4,307.0,0.125,50,140.0
3794,D2,307.0,0.25,90,140.0
3795,G#2,307.0,1.0,64,140.0
3796,B4,307.125,0.125,50,140.0
3797,B4,307.25,0.125,50,140.0
3798,G2,307.25,0.25,64,140.0
3799,B4,307.375,0.125,50,140.0
3800,B4,307.5,0.125,50,140.0
3801,F2,307.5,0.25,64,140.0
3802,B4,307.625,0.125,50,140.0
3803,B4,307.75,0.125,50,140.0
3804,C3,307.75,0.25,64,140.0
3805,B4,307.875,0.125,50,140.0
3806,B4,308.0,4.0,45,140.0
3807,C3,308.0,0.25,55,140.0
3808,B4,308.0,4.0,50,140.0
3809,B4,308.0,0.125,50,140.0
3810,G2,308.0,0.25,64,140.0
3811,G#2,308.0,1.0,64,140.0
3812,B4,308.125,0.125,50,140.0
3813,C3,308.25,0.25,55,140.0
3814,B4,308.25,0.125,50,140.0
3815,F2,308.25,0.25,64,140.0
3816,B4,308.375,0.125,50,140.0
3817,B4,308.5,0.125,50,140.0
3818,A2,308.5,0.25,64,140.0
3819,B4,308.625,0.125,50,140.0
3820,B4,308.75,0.125,50,140.0
3821,C3,308.75,0.25,64,140.0
3822,B4,308.875,0.125,50,140.0
3823,B4,309.0,0.125,50,140.0
3824,D2,309.0,0.4,90,140.0
3825,G#2,309.0,1.0,64,140.0
3826,B4,309.125,0.125,50,140.0
3827,B4,309.25,0.125,50,140.0
3828,B4,309.375,0.125,50,140.0
3829,C2,309.4,0.399,110,140.0
3830,C3,309.5,0.25,55,140.0
3831,B4,309.5,0.125,50,140.0
3832,B4,309.625,0.125,50,140.0
3833,C3,309.75,0.25,55,140.0
3834,B4,309.75,0.125,50,140.0
3835,C3,309.8,0.4,64,140.0
3836,B4,309.875,0.125,50,140.0
3837,B4,310.0,0.125,50,140.0
3838,G#2,310.0,1.0,64,140.0
3839,B4,310.125,0.125,50,140.0
3840,G2,310.2,0.399,64,140.0
3841,B4,310.25,0.125,50,140.0
3842,B4,310.375,0.125,50,140.0
3843,B4,310.5,0.125,50,140.0
3844,F2,310.6,0.4,64,140.0
3845,B4,310.625,0.125,50,140.0
3846,B4,310.75,0.125,50,140.0
3847,B4,310.875,0.125,50,140.0
3848,B4,311.0,0.125,50,140.0
3849,D2,311.0,0.4,90,140.0
3850,G#2,311.0,1.0,64,140.0
3851,B4,311.125,0.125,50,140.0
3852,B4,311.25,0.125,50,140.0
3853,B4,311.375,0.125,50,140.0
3854,C2,311.4,0.399,110,140.0
3855,B4,311.5,0.125,50,140.0
3856,B4,311.625,0.125,50,140.0
3857,B4,311.75,0.125,50,140.0
3858,C3,311.8,0.4,64,140.0
3859,B4,311.875,0.125,50,140.0
3860,B4,312.0,4.0,45,140.0
3861,C3,312.0,0.25,55,140.0
3862,B4,312.0,4.0,50,140.0
3863,B4,312.0,0.125,50,140.0
3864,G#2,312.0,1.0,64,140.0
3865,B4,312.125,0.125,50,140.0
3866,G2,312.2,0.399,64,140.0
3867,C3,312.25,0.25,55,140.0
3868,B4,312.25,0.125,50,140.0
3869,B4,312.375,0.125,50,140.0
3870,B4,312.5,0.125,50,140.0
3871,F2,312.6,0.4,64,140.0
3872,B4,312.625,0.125,50,140.0
3873,B4,312.75,0.125,50,140.0
3874,B4,312.875,0.125,50,140.0
3875,B4,313.0,0.125,50,140.0
3876,C2,313.0,1.0,87,140.0
3877,G#2,313.0,1.0,87,140.0
3878,B4,313.125,0.125,50,140.0
3879,B4,313.25,0.125,50,140.0
3880,B4,313.375,0.125,50,140.0
3881,C3,313.5,0.25,55,140.0
3882,B4,313.5,0.125,50,140.0
3883,B4,313.625,0.125,50,140.0
3884,C3,313.75,0.25,55,140.0
3885,B4,313.75,0.125,50,140.0
3886,B4,313.875,0.125,50,140.0
3887,B4,314.0,0.125,50,140.0
3888,D2,314.0,0.125,90,140.0
3889,G#2,314.0,1.0,64,140.0
3890,B4,314.125,0.125,50,140.0
3891,D2,314.125,0.125,90,140.0
3892,B4,314.25,0.125,50,140.0
3893,D2,314.25,0.125,90,140.0
3894,B4,314.375,0.125,50,140.0
3895,D2,314.375,0.125,90,140.0
3896,B4,314.5,0.125,50,140.0
3897,D2,314.5,0.125,90,140.0
3898,B4,314.625,0.125,50,140.0
3899,D2,314.625,0.125,90,140.0
3900,B4,314.75,0.125,50,140.0
3901,D2,314.75,0.125,90,140.0
3902,D2,314.875,0.125,90,140.0
3903,D2,315.0,0.125,90,140.0
3904,G#2,315.0,1.0,64,140.0
3905,D2,315.125,0.125,90,140.0
3906,D2,315.25,0.125,90,140.0
3907,D2,315.375,0.125,90,140.0
3908,A4,316.0,1.0,45,140.0
3909,C2,316.0,0.25,55,140.0
3910,A4,316.0,1.0,50,140.0
3911,A4,316.0,1.0,50,140.0
3912,D2,316.0,1.0,77,140.0
3913,G#2,316.0,1.0,77,140.0
3914,C2,316.25,0.25,55,140.0
3915,A4,317.0,0.25,45,140.0
3916,A4,317.0,0.25,50,140.0
3917,A4,317.0,0.25,50,140.0
3918,E-3,317.0,1.0,90,140.0
3919,C2,317.0,0.25,110,140.0
3920,G4,317.25,0.25,45,140.0
3921,G4,317.25,0.25,50,140.0
3922,G4,317.25,0.25,50,140.0
3923,C2,317.25,0.25,110,140.0
3924,F#4,317.5,0.25,45,140.0
3925,C2,317.5,0.25,55,140.0
3926,F#4,317.5,0.25,50,140.0
3927,F#4,317.5,0.25,50,140.0
3928,C5,317.75,0.25,45,140.0
3929,C2,317.75,0.25,55,140.0
3930,C5,317.75,0.25,50,140.0
3931,C5,317.75,0.25,50,140.0
3932,D4,318.0,0.333,45,140.0
3933,D4,318.0,0.333,50,140.0
3934,D4,318.0,0.333,50,140.0
3935,A4,318.333,0.334,45,140.0
3936,A4,318.333,0.334,50,140.0
3937,A4,318.333,0.334,50,140.0
3938,C2,318.5,0.25,110,140.0
3939,G4,318.667,0.333,45,140.0
3940,G4,318.667,0.333,50,140.0
3941,G4,318.667,0.333,50,140.0
3942,C2,318.75,0.25,110,140.0
3943,B4,319.0,0.2,45,140.0
3944,B4,319.0,0.2,50,140.0
3945,B4,319.0,0.2,50,140.0
3946,E-3,319.0,0.5,90,140.0
3947,G4,319.2,0.2,45,140.0
3948,G4,319.2,0.2,50,140.0
3949,G4,319.2,0.2,50,140.0
3950,G4,319.4,0.199,45,140.0
3951,G4,319.4,0.199,50,140.0
3952,G4,319.4,0.199,50,140.0
3953,E-3,319.5,0.5,90,140.0
3954,A4,319.6,0.2,45,140.0
3955,A4,319.6,0.2,50,140.0
3956,A4,319.6,0.2,50,140.0
3957,F#4,319.8,0.2,45,140.0
3958,F#4,319.8,0.2,50,140.0
3959,F#4,319.8,0.2,50,140.0
3960,C2,320.0,0.25,55,140.0
3961,G#3,320.0,0.5,77,140.0
3962,D2,320.0,0.5,77,140.0
3963,C2,320.25,0.25,55,140.0
3964,B4,320.5,0.5,45,140.0
3965,B4,320.5,0.5,50,140.0
3966,B4,320.5,0.5,50,140.0
3967,C2,320.5,0.5,110,140.0
3968,E4,321.0,0.333,45,140.0
3969,E4,321.0,0.333,50,140.0
3970,E4,321.0,0.333,50,140.0
3971,E-3,321.0,1.0,90,140.0
3972,C2,321.0,0.25,110,140.0
3973,C2,321.25,0.25,110,140.0
3974,A4,321.333,0.334,45,140.0
3975,A4,321.333,0.334,50,140.0
3976,A4,321.333,0.334,50,140.0
3977,C2,321.5,0.25,55,140.0
3978,F#4,321.667,0.333,45,140.0
3979,F#4,321.667,0.333,50,140.0
3980,F#4,321.667,0.333,50,140.0
3981,C2,321.75,0.25,55,140.0
3982,F#5,322.0,0.4,45,140.0
3983,F#5,322.0,0.4,50,140.0
3984,F#5,322.0,0.4,50,140.0
3985,E5,322.4,0.399,45,140.0
3986,E5,322.4,0.399,50,140.0
3987,E5,322.4,0.399,50,140.0
3988,C2,322.5,0.25,110,140.0
3989,C2,322.75,0.25,110,140.0
3990,B4,322.8,0.4,45,140.0
3991,B4,322.8,0.4,50,140.0
3992,B4,322.8,0.4,50,140.0
3993,E-3,323.0,0.5,90,140.0
3994,D5,323.2,0.399,45,140.0
3995,D5,323.2,0.399,50,140.0
3996,D5,323.2,0.399,50,140.0
3997,E-3,323.5,0.5,90,140.0
3998,E4,323.6,0.4,45,140.0
3999,E4,323.6,0.4,50,140.0
4000,E4,323.6,0.4,50,140.0
4001,F#5,324.0,0.4,45,140.0
4002,C2,324.0,0.25,55,140.0
4003,F#5,324.0,0.4,50,140.0
4004,F#5,324.0,0.4,50,140.0
4005,G#3,324.0,0.5,77,140.0
4006,D2,324.0,0.5,77,140.0
4007,C2,324.25,0.25,55,140.0
4008,E5,324.4,0.399,45,140.0
4009,E5,324.4,0.399,50,140.0
4010,E5,324.4,0.399,50,140.0
4011,C2,324.5,0.5,110,140.0
4012,B4,324.8,0.4,45,140.0
4013,B4,324.8,0.4,50,140.0
4014,B4,324.8,0.4,50,140.0
4015,E-3,325.0,1.0,90,140.0
4016,C2,325.0,0.25,110,140.0
4017,D5,325.2,0.399,45,140.0
4018,D5,325.2,0.399,50,140.0
4019,D5,325.2,0.399,50,140.0
4020,C2,325.25,0.25,110,140.0
4021,C2,325.5,0.25,55,140.0
4022,E4,325.6,0.4,45,140.0
4023,E4,325.6,0.4,50,140.0
4024,E4,325.6,0.4,50,140.0
4025,C2,325.75,0.25,55,140.0
4026,E4,326.0,2.0,45,140.0
4027,E4,326.0,2.0,50,140.0
4028,E4,326.0,0.125,50,140.0
4029,E4,326.125,0.125,50,140.0
4030,E4,326.25,0.125,50,140.0
4031,E4,326.375,0.125,50,140.0
4032,E4,326.5,0.125,50,140.0
4033,C2,326.5,0.25,110,140.0
4034,E4,326.625,0.125,50,140.0
4035,E4,326.75,0.125,50,140.0
4036,C2,326.75,0.25,110,140.0
4037,E4,326.875,0.125,50,140.0
4038,E4,327.0,0.125,50,140.0
4039,E-3,327.0,0.5,90,140.0
4040,E4,327.125,0.125,50,140.0
4041,E4,327.25,0.125,50,140.0
4042,E4,327.375,0.125,50,140.0
4043,E4,327.5,0.125,50,140.0
4044,E-3,327.5,0.5,90,140.0
4045,E4,327.625,0.125,50,140.0
4046,E4,327.75,0.125,50,140.0
4047,E4,327.875,0.125,50,140.0
4048,E4,328.0,4.0,45,140.0
4049,C2,328.0,0.25,55,140.0
4050,E4,328.0,4.0,50,140.0
4051,E4,328.0,0.125,50,140.0
4052,G#3,328.0,0.5,77,140.0
4053,D2,328.0,0.5,77,140.0
4054,E4,328.125,0.125,50,140.0
4055,C2,328.25,0.25,55,140.0
4056,E4,328.25,0.125,50,140.0
4057,E4,328.375,0.125,50,140.0
4058,E4,328.5,0.125,50,140.0
4059,C2,328.5,0.5,110,140.0
4060,E4,328.625,0.125,50,140.0
4061,E4,328.75,0.125,50,140.0
4062,E4,328.875,0.125,50,140.0
4063,E4,329.0,0.125,50,140.0
4064,G2,329.0,0.125,50,140.0
4065,G#2,329.0,1.0,64,140.0
4066,E4,329.125,0.125,50,140.0
4067,G2,329.125,0.125,50,140.0
4068,E4,329.25,0.125,50,140.0
4069,G2,329.25,0.125,50,140.0
4070,E4,329.375,0.125,50,140.0
4071,G2,329.375,0.125,50,140.0
4072,C2,329.5,0.25,55,140.0
4073,E4,329.5,0.125,50,140.0
4074,G2,329.5,0.125,50,140.0
4075,E4,329.625,0.125,50,140.0
4076,G2,329.625,0.125,50,140.0
4077,C2,329.75,0.25,55,140.0
4078,E4,329.75,0.125,50,140.0
4079,G2,329.75,0.125,50,140.0
4080,E4,329.875,0.125,50,140.0
4081,G2,329.875,0.125,50,140.0
4082,E4,330.0,0.125,50,140.0
4083,G2,330.0,0.125,50,140.0
4084,G#2,330.0,1.0,64,140.0
4085,E4,330.125,0.125,50,140.0
4086,G2,330.125,0.125,50,140.0
4087,E4,330.25,0.125,50,140.0
4088,G2,330.25,0.125,50,140.0
4089,E4,330.375,0.125,50,140.0
4090,G2,330.375,0.125,50,140.0
4091,E4,330.5,0.125,50,140.0
4092,G2,330.5,0.125,50,140.0
4093,E4,330.625,0.125,50,140.0
4094,G2,330.625,0.125,50,140.0
4095,E4,330.75,0.125,50,140.0
4096,G2,330.75,0.125,50,140.0
4097,E4,330.875,0.125,50,140.0
4098,G2,330.875,0.125,50,140.0
4099,E4,331.0,0.125,50,140.0
4100,G2,331.0,0.125,50,140.0
4101,G#2,331.0,1.0,64,140.0
4102,E4,331.125,0.125,50,140.0
4103,G2,331.125,0.125,50,140.0
4104,E4,331.25,0.125,50,140.0
4105,G2,331.25,0.125,50,140.0
4106,E4,331.375,0.125,50,140.0
4107,G2,331.375,0.125,50,140.0
4108,E4,331.5,0.125,50,140.0
4109,G2,331.5,0.125,50,140.0
4110,E4,331.625,0.125,50,140.0
4111,G2,331.625,0.125,50,140.0
4112,E4,331.75,0.125,50,140.0
4113,G2,331.75,0.125,50,140.0
4114,E4,331.875,0.125,50,140.0
4115,G2,331.875,0.125,50,140.0
4116,E4,332.0,4.0,45,140.0
4117,C2,332.0,0.25,55,140.0
4118,E4,332.0,4.0,50,140.0
4119,E4,332.0,0.125,50,140.0
4120,G2,332.0,0.125,50,140.0
4121,G#2,332.0,1.0,64,140.0
4122,E4,332.125,0.125,50,140.0
4123,G2,332.125,0.125,50,140.0
4124,C2,332.25,0.25,55,140.0
4125,E4,332.25,0.125,50,140.0
4126,G2,332.25,0.125,50,140.0
4127,E4,332.375,0.125,50,140.0
4128,G2,332.375,0.125,50,140.0
4129,E4,332.5,0.125,50,140.0
4130,G2,332.5,0.125,50,140.0
4131,E4,332.625,0.125,50,140.0
4132,G2,332.625,0.125,50,140.0
4133,E4,332.75,0.125,50,140.0
4134,G2,332.75,0.125,50,140.0
4135,E4,332.875,0.125,50,140.0
4136,G2,332.875,0.125,50,140.0
4137,E4,333.0,0.125,50,140.0
4138,F2,333.0,0.125,50,140.0
4139,G#2,333.0,1.0,64,140.0
4140,E4,333.125,0.125,50,140.0
4141,F2,333.125,0.125,50,140.0
4142,E4,333.25,0.125,50,140.0
4143,F2,333.25,0.125,50,140.0
4144,E4,333.375,0.125,50,140.0
4145,F2,333.375,0.125,50,140.0
4146,C2,333.5,0.25,55,140.0
4147,E4,333.5,0.125,50,140.0
4148,F2,333.5,0.125,50,140.0
4149,E4,333.625,0.125,50,140.0
4150,F2,333.625,0.125,50,140.0
4151,C2,333.75,0.25,55,140.0
4152,E4,333.75,0.125,50,140.0
4153,F2,333.75,0.125,50,140.0
4154,E4,333.875,0.125,50,140.0
4155,F2,333.875,0.125,50,140.0
4156,E4,334.0,0.125,50,140.0
4157,F2,334.0,0.125,50,140.0
4158,G#2,334.0,1.0,64,140.0
4159,E4,334.125,0.125,50,140.0
4160,F2,334.125,0.125,50,140.0
4161,E4,334.25,0.125,50,140.0
4162,F2,334.25,0.125,50,140.0
4163,E4,334.375,0.125,50,140.0
4164,F2,334.375,0.125,50,140.0
4165,E4,334.5,0.125,50,140.0
4166,F2,334.5,0.125,50,140.0
4167,E4,334.625,0.125,50,140.0
4168,F2,334.625,0.125,50,140.0
4169,E4,334.75,0.125,50,140.0
4170,F2,334.75,0.125,50,140.0
4171,E4,334.875,0.125,50,140.0
4172,F2,334.875,0.125,50,140.0
4173,F2,335.0,0.125,50,140.0
4174,G#2,335.0,1.0,64,140.0
4175,F2,335.125,0.125,50,140.0
4176,F2,335.25,0.125,50,140.0
4177,F2,335.375,0.125,50,140.0
4178,F2,335.5,0.125,50,140.0
4179,F2,335.625,0.125,50,140.0
4180,F2,335.75,0.125,50,140.0
4181,F2,335.875,0.125,50,140.0
4182,C2,336.0,0.25,55,140.0
4183,D2,336.0,1.0,77,140.0
4184,G#2,336.0,1.0,77,140.0
4185,C2,336.25,0.25,55,140.0
4186,F#4,336.4,0.399,45,140.0
4187,F#4,336.4,0.399,50,140.0
4188,F#4,336.4,0.399,50,140.0
4189,G4,336.8,0.4,45,140.0
4190,G4,336.8,0.4,50,140.0
4191,G4,336.8,0.4,50,140.0
4192,E-3,337.0,1.0,64,140.0
4193,C#3,337.0,1.0,64,140.0
4194,C2,337.0,1.0,64,140.0
4195,C5,337.2,0.399,45,140.0
4196,C5,337.2,0.399,50,140.0
4197,C5,337.2,0.399,50,140.0
4198,C2,337.5,0.25,55,140.0
4199,B4,337.6,0.4,45,140.0
4200,B4,337.6,0.4,50,140.0
4201,B4,337.6,0.4,50,140.0
4202,C2,337.75,0.25,55,140.0
4203,F#5,338.0,0.4,45,140.0
4204,F#5,338.0,0.4,50,140.0
4205,F#5,338.0,0.4,50,140.0
4206,D2,338.0,0.75,90,140.0
4207,E-3,338.0,1.0,64,140.0
4208,C#3,338.0,1.0,64,140.0
4209,G5,338.4,0.399,45,140.0
4210,G5,338.4,0.399,50,140.0
4211,G5,338.4,0.399,50,140.0
4212,C2,338.75,0.25,64,140.0
4213,E5,338.8,0.4,45,140.0
4214,E5,338.8,0.4,50,140.0
4215,E5,338.8,0.4,50,140.0
4216,E-3,339.0,1.0,64,140.0
4217,C#3,339.0,1.0,64,140.0
4218,C2,339.0,1.0,64,140.0
4219,A5,339.2,0.399,45,140.0
4220,A5,339.2,0.399,50,140.0
4221,A5,339.2,0.399,50,140.0
4222,F#5,339.6,0.4,45,140.0
4223,F#5,339.6,0.4,50,140.0
4224,F#5,339.6,0.4,50,140.0
4225,G5,340.0,0.5,45,140.0
4226,C2,340.0,0.25,55,140.0
4227,G5,340.0,0.5,50,140.0
4228,G5,340.0,0.5,50,140.0
4229,E-3,340.0,1.0,73,140.0
4230,C#3,340.0,1.0,73,140.0
4231,D2,340.0,1.0,73,140.0
4232,C2,340.25,0.25,55,140.0
4233,F#5,340.5,0.5,45,140.0
4234,F#5,340.5,0.5,50,140.0
4235,F#5,340.5,0.5,50,140.0
4236,F#5,341.0,0.5,45,140.0
4237,F#5,341.0,0.5,50,140.0
4238,F#5,341.0,0.5,50,140.0
4239,C2,341.0,0.5,110,140.0
4240,G#2,341.0,1.0,64,140.0
4241,E5,341.5,0.5,45,140.0
4242,C2,341.5,0.25,55,140.0
4243,E5,341.5,0.5,50,140.0
4244,E5,341.5,0.5,50,140.0
4245,C2,341.5,0.5,110,140.0
4246,C2,341.75,0.25,55,140.0
4247,D6,342.0,0.182,45,140.0
4248,D3,342.0,0.182,55,140.0
4249,D6,342.0,0.182,50,140.0
4250,D6,342.0,0.182,50,140.0
4251,C2,342.0,0.5,110,140.0
4252,G#2,342.0,1.0,64,140.0
4253,A5,342.182,0.182,45,140.0
4254,A2,342.182,0.182,55,140.0
4255,A5,342.182,0.182,50,140.0
4256,A5,342.182,0.182,50,140.0
4257,A5,342.363,0.183,45,140.0
4258,A2,342.363,0.183,55,140.0
4259,A5,342.363,0.183,50,140.0
4260,A5,342.363,0.183,50,140.0
4261,C2,342.5,0.5,110,140.0
4262,B5,342.546,0.182,45,140.0
4263,B2,342.546,0.182,55,140.0
4264,B5,342.546,0.182,50,140.0
4265,B5,342.546,0.182,50,140.0
4266,C6,342.728,0.182,45,140.0
4267,C3,342.728,0.182,55,140.0
4268,C6,342.728,0.182,50,140.0
4269,C6,342.728,0.182,50,140.0
4270,E6,342.909,0.182,45,140.0
4271,E3,342.909,0.182,55,140.0
4272,E6,342.909,0.182,50,140.0
4273,E6,342.909,0.182,50,140.0
4274,D2,343.0,0.182,90,140.0
4275,G#2,343.0,1.0,64,140.0
4276,B5,343.091,0.182,45,140.0
4277,B2,343.091,0.182,55,140.0
4278,B5,343.091,0.182,50,140.0
4279,B5,343.091,0.182,50,140.0
4280,D2,343.182,0.182,90,140.0
4281,B5,343.272,0.183,45,140.0
4282,B2,343.272,0.183,55,140.0
4283,B5,343.272,0.183,50,140.0
4284,B5,343.272,0.183,50,140.0
4285,D2,343.363,0.183,90,140.0
4286,C6,343.455,0.182,45,140.0
4287,C3,343.455,0.182,55,140.0
4288,C6,343.455,0.182,50,140.0
4289,C6,343.455,0.182,50,140.0
4290,D2,343.546,0.182,90,140.0
4291,D5,343.637,0.182,45,140.0
4292,D2,343.637,0.182,55,140.0
4293,D5,343.637,0.182,50,140.0
4294,D5,343.637,0.182,50,140.0
4295,D2,343.728,0.182,90,140.0
4296,A5,343.818,0.182,45,140.0
4297,A2,343.818,0.182,55,140.0
4298,A5,343.818,0.182,50,140.0
4299,A5,343.818,0.182,50,140.0
4300,D2,343.909,0.182,90,140.0
4301,B5,344.0,0.182,45,140.0
4302,B2,344.0,0.182,55,140.0
4303,B5,344.0,0.182,50,140.0
4304,B5,344.0,0.182,50,140.0
4305,G#2,344.0,1.0,64,140.0
4306,D2,344.091,0.182,90,140.0
4307,E5,344.182,0.182,45,140.0
4308,E2,344.182,0.182,55,140.0
4309,E5,344.182,0.182,50,140.0
4310,E5,344.182,0.182,50,140.0
4311,D2,344.272,0.183,90,140.0
4312,E5,344.363,0.183,45,140.0
4313,E2,344.363,0.183,55,140.0
4314,E5,344.363,0.183,50,140.0
4315,E5,344.363,0.183,50,140.0
4316,D2,344.455,0.182,90,140.0
4317,G5,344.546,0.182,45,140.0
4318,G2,344.546,0.182,55,140.0
4319,G5,344.546,0.182,50,140.0
4320,G5,344.546,0.182,50,140.0
4321,G2,344.637,0.182,64,140.0
4322,G5,344.728,0.182,45,140.0
4323,G2,344.728,0.182,55,140.0
4324,G5,344.728,0.182,50,140.0
4325,G5,344.728,0.182,50,140.0
4326,D2,344.818,0.182,90,140.0
4327,D6,344.909,0.182,45,140.0
4328,D3,344.909,0.182,55,140.0
4329,D6,344.909,0.182,50,140.0
4330,D6,344.909,0.182,50,140.0
4331,D3,345.0,0.182,64,140.0
4332,G#2,345.0,1.0,64,140.0
4333,F#5,345.091,0.182,45,140.0
4334,F#2,345.091,0.182,55,140.0
4335,F#5,345.091,0.182,50,140.0
4336,F#5,345.091,0.182,50,140.0
4337,D2,345.182,0.182,90,140.0
4338,F#5,345.272,0.183,45,140.0
4339,F#2,345.272,0.183,55,140.0
4340,F#5,345.272,0.183,50,140.0
4341,F#5,345.272,0.183,50,140.0
4342,C3,345.363,0.183,64,140.0
4343,A5,345.455,0.182,45,140.0
4344,A2,345.455,0.182,55,140.0
4345,A5,345.455,0.182,50,140.0
4346,A5,345.455,0.182,50,140.0
4347,D2,345.546,0.182,90,140.0
4348,E5,345.637,0.182,45,140.0
4349,E2,345.637,0.182,55,140.0
4350,E5,345.637,0.182,50,140.0
4351,E5,345.637,0.182,50,140.0
4352,G2,345.728,0.182,64,140.0
4353,B4,345.818,0.182,45,140.0
4354,B1,345.818,0.182,55,140.0
4355,B4,345.818,0.182,50,140.0
4356,B4,345.818,0.182,50,140.0
4357,D3,345.909,0.182,64,140.0
4358,A5,346.0,0.667,45,140.0
4359,A2,346.0,0.667,55,140.0
4360,A5,346.0,0.667,50,140.0
4361,A5,346.0,0.667,50,140.0
4362,G#2,346.0,1.0,64,140.0
4363,D2,346.091,0.182,90,140.0
4364,C3,346.272,0.183,64,140.0
4365,D2,346.455,0.182,90,140.0
4366,G2,346.637,0.182,64,140.0
4367,C5,346.667,0.666,45,140.0
4368,C3,346.667,0.666,55,140.0
4369,C5,346.667,0.666,50,140.0
4370,C5,346.667,0.666,50,140.0
4371,F2,346.818,0.182,64,140.0
4372,C2,347.0,0.667,110,140.0
4373,G#2,347.0,1.0,64,140.0
4374,C5,347.333,0.667,45,140.0
4375,C3,347.333,0.667,55,140.0
4376,C5,347.333,0.667,50,140.0
4377,C5,347.333,0.667,50,140.0
4378,C2,347.667,0.666,110,140.0
4379,G5,348.0,4.0,45,140.0
4380,C2,348.0,0.25,55,140.0
4381,G5,348.0,4.0,50,140.0
4382,G5,348.0,0.125,50,140.0
4383,G#2,348.0,1.0,64,140.0
4384,G5,348.125,0.125,50,140.0
4385,C2,348.25,0.25,55,140.0
4386,G5,348.25,0.125,50,140.0
4387,C2,348.333,0.667,110,140.0
4388,G5,348.375,0.125,50,140.0
4389,G5,348.5,0.125,50,140.0
4390,G5,348.625,0.125,50,140.0
4391,G5,348.75,0.125,50,140.0
4392,G5,348.875,0.125,50,140.0
4393,G5,349.0,0.125,50,140.0
4394,B-2,349.0,1.0,64,140.0
4395,C2,349.0,0.25,110,140.0
4396,G5,349.125,0.125,50,140.0
4397,G5,349.25,0.125,50,140.0
4398,C2,349.25,0.25,110,140.0
4399,G5,349.375,0.125,50,140.0
4400,C2,349.5,0.25,55,140.0
4401,G5,349.5,0.125,50,140.0
4402,G5,349.625,0.125,50,140.0
4403,C2,349.75,0.25,55,140.0
4404,G5,349.75,0.125,50,140.0
4405,G5,349.875,0.125,50,140.0
4406,G5,350.0,0.125,50,140.0
4407,B-2,350.0,1.0,64,140.0
4408,G5,350.125,0.125,50,140.0
4409,G5,350.25,0.125,50,140.0
4410,G5,350.375,0.125,50,140.0
4411,G5,350.5,0.125,50,140.0
4412,C2,350.5,0.25,110,140.0
4413,G5,350.625,0.125,50,140.0
4414,G5,350.75,0.125,50,140.0
4415,C2,350.75,0.25,110,140.0
4416,G5,350.875,0.125,50,140.0
4417,G5,351.0,0.125,50,140.0
4418,B-2,351.0,1.0,64,140.0
4419,G5,351.125,0.125,50,140.0
4420,G5,351.25,0.125,50,140.0
4421,G5,351.375,0.125,50,140.0
4422,G5,351.5,0.125,50,140.0
4423,G5,351.625,0.125,50,140.0
4424,G5,351.75,0.125,50,140.0
4425,G5,351.875,0.125,50,140.0
4426,C#2,352.0,0.25,55,140.0
4427,B-2,352.0,1.0,77,140.0
4428,D2,352.0,1.0,77,140.0
4429,C#2,352.25,0.25,55,140.0
4430,E-5,353.0,1.0,45,140.0
4431,E-5,353.0,1.0,50,140.0
4432,E-5,353.0,1.0,50,140.0
4433,B-2,353.0,1.0,64,140.0
4434,C2,353.0,0.25,110,140.0
4435,C2,353.25,0.25,110,140.0
4436,C#2,353.5,0.25,55,140.0
4437,C#2,353.75,0.25,55,140.0
4438,B-5,354.0,0.667,45,140.0
4439,B-5,354.0,0.667,50,140.0
4440,B-5,354.0,0.667,50,140.0
4441,B-2,354.0,1.0,64,140.0
4442,D2,354.0,0.5,90,140.0
4443,C2,354.5,0.25,110,140.0
4444,G#5,354.667,0.666,45,140.0
4445,G#5,354.667,0.666,50,140.0
4446,G#5,354.667,0.666,50,140.0
4447,C2,354.75,0.25,110,140.0
4448,B-2,355.0,1.0,64,140.0
4449,F5,355.333,0.667,45,140.0
4450,F5,355.333,0.667,50,140.0
4451,F5,355.333,0.667,50,140.0
4452,F5,356.0,0.4,45,140.0
4453,C#2,356.0,0.25,55,140.0
4454,F5,356.0,0.4,50,140.0
4455,F5,356.0,0.4,50,140.0
4456,B-2,356.0,1.0,64,140.0
4457,D2,356.0,0.125,90,140.0
4458,D2,356.125,0.125,90,140.0
4459,C#2,356.25,0.25,55,140.0
4460,D2,356.25,0.125,90,140.0
4461,D2,356.375,0.125,90,140.0
4462,G5,356.4,0.399,45,140.0
4463,G5,356.4,0.399,50,140.0
4464,G5,356.4,0.399,50,140.0
4465,D2,356.5,0.125,90,140.0
4466,D2,356.625,0.125,90,140.0
4467,D2,356.75,0.125,90,140.0
4468,E-5,356.8,0.4,45,140.0
4469,E-5,356.8,0.4,50,140.0
4470,E-5,356.8,0.4,50,140.0
4471,D2,356.875,0.125,90,140.0
4472,B-2,357.0,1.0,64,140.0
4473,C2,357.0,0.25,110,140.0
4474,B-4,357.2,0.399,45,140.0
4475,B-4,357.2,0.399,50,140.0
4476,B-4,357.2,0.399,50,140.0
4477,C2,357.25,0.25,110,140.0
4478,C#2,357.5,0.25,55,140.0
4479,G#5,357.6,0.4,45,140.0
4480,G#5,357.6,0.4,50,140.0
4481,G#5,357.6,0.4,50,140.0
4482,C#2,357.75,0.25,55,140.0
4483,C6,358.0,0.333,45,140.0
4484,C6,358.0,0.333,50,140.0
4485,C6,358.0,0.333,50,140.0
4486,B-2,358.0,1.0,64,140.0
4487,D2,358.0,0.5,90,140.0
4488,B-5,358.333,0.334,45,140.0
4489,B-5,358.333,0.334,50,140.0
4490,B-5,358.333,0.334,50,140.0
4491,C2,358.5,0.25,110,140.0
4492,B-5,358.667,0.333,45,140.0
4493,B-5,358.667,0.333,50,140.0
4494,B-5,358.667,0.333,50,140.0
4495,C2,358.75,0.25,110,140.0
4496,G#5,359.0,0.333,45,140.0
4497,G#5,359.0,0.333,50,140.0
4498,G#5,359.0,0.333,50,140.0
4499,B-2,359.0,1.0,64,140.0
4500,G#5,359.333,0.334,45,140.0
4501,G#5,359.333,0.334,50,140.0
4502,G#5,359.333,0.334,50,140.0
4503,F5,359.667,0.333,45,140.0
4504,F5,359.667,0.333,50,140.0
4505,F5,359.667,0.333,50,140.0
4506,B-5,360.0,0.363,45,140.0
4507,B-3,360.0,0.363,55,140.0
4508,B-5,360.0,0.363,50,140.0
4509,B-5,360.0,0.363,50,140.0
4510,B-2,360.0,1.0,64,140.0
4511,D2,360.0,0.125,90,140.0
4512,D2,360.125,0.125,90,140.0
4513,D2,360.25,0.125,90,140.0
4514,F#5,360.363,0.364,45,140.0
4515,F#3,360.363,0.364,55,140.0
4516,F#5,360.363,0.364,50,140.0
4517,F#5,360.363,0.364,50,140.0
4518,D2,360.375,0.125,90,140.0
4519,D2,360.5,0.125,90,140.0
4520,D2,360.625,0.125,90,140.0
4521,F#5,360.728,0.363,45,140.0
4522,F#3,360.728,0.363,55,140.0
4523,F#5,360.728,0.363,50,140.0
4524,F#5,360.728,0.363,50,140.0
4525,D2,360.75,0.125,90,140.0
4526,D2,360.875,0.125,90,140.0
4527,D3,361.0,0.363,64,140.0
4528,G#2,361.0,1.0,80,140.0
4529,G#5,361.091,0.363,45,140.0
4530,G#3,361.091,0.363,55,140.0
4531,G#5,361.091,0.363,50,140.0
4532,G#5,361.091,0.363,50,140.0
4533,A2,361.363,0.364,64,140.0
4534,F5,361.454,0.364,45,140.0
4535,F3,361.454,0.364,55,140.0
4536,F5,361.454,0.364,50,140.0
4537,F5,361.454,0.364,50,140.0
4538,G2,361.728,0.363,64,140.0
4539,C#5,361.818,0.363,45,140.0
4540,C#3,361.818,0.363,55,140.0
4541,C#5,361.818,0.363,50,140.0
4542,C#5,361.818,0.363,50,140.0
4543,G#2,362.0,1.0,80,140.0
4544,D2,362.091,0.363,90,140.0
4545,C#5,362.182,0.364,45,140.0
4546,C#3,362.182,0.364,55,140.0
4547,C#5,362.182,0.364,50,140.0
4548,C#5,362.182,0.364,50,140.0
4549,C3,362.454,0.364,64,140.0
4550,E-5,362.546,0.363,45,140.0
4551,E-3,362.546,0.363,55,140.0
4552,E-5,362.546,0.363,50,140.0
4553,E-5,362.546,0.363,50,140.0
4554,G2,362.818,0.363,64,140.0
4555,B4,362.909,0.363,45,140.0
4556,B2,362.909,0.363,55,140.0
4557,B4,362.909,0.363,50,140.0
4558,B4,362.909,0.363,50,140.0
4559,G#2,363.0,1.0,80,140.0
4560,C3,363.182,0.364,64,140.0
4561,G#5,363.272,0.364,45,140.0
4562,G#3,363.272,0.364,55,140.0
4563,G#5,363.272,0.364,50,140.0
4564,G#5,363.272,0.364,50,140.0
4565,C2,363.546,0.363,64,140.0
4566,F5,363.637,0.363,45,140.0
4567,F3,363.637,0.363,55,140.0
4568,F5,363.637,0.363,50,140.0
4569,F5,363.637,0.363,50,140.0
4570,D2,363.909,0.363,90,140.0
4571,F5,364.0,0.363,45,140.0
4572,F3,364.0,0.363,55,140.0
4573,F5,364.0,0.363,50,140.0
4574,F5,364.0,0.363,50,140.0
4575,G#2,364.0,1.0,80,140.0
4576,G2,364.272,0.364,64,140.0
4577,E-5,364.363,0.364,45,140.0
4578,E-3,364.363,0.364,55,140.0
4579,E-5,364.363,0.364,50,140.0
4580,E-5,364.363,0.364,50,140.0
4581,C2,364.637,0.363,64,140.0
4582,F#5,364.728,0.363,45,140.0
4583,F#3,364.728,0.363,55,140.0
4584,F#5,364.728,0.363,50,140.0
4585,F#5,364.728,0.363,50,140.0
4586,A2,365.0,0.363,64,140.0
4587,G#2,365.0,1.0,80,140.0
4588,F5,365.091,0.363,45,140.0
4589,F3,365.091,0.363,55,140.0
4590,F5,365.091,0.363,50,140.0
4591,F5,365.091,0.363,50,140.0
4592,C2,365.363,0.364,64,140.0
4593,C#5,365.454,0.364,45,140.0
4594,C#3,365.454,0.364,55,140.0
4595,C#5,365.454,0.364,50,140.0
4596,C#5,365.454,0.364,50,140.0
4597,D3,365.728,0.363,64,140.0
4598,E-5,365.818,0.363,45,140.0
4599,E-3,365.818,0.363,55,140.0
4600,E-5,365.818,0.363,50,140.0
4601,E-5,365.818,0.363,50,140.0
4602,G#2,366.0,1.0,80,140.0
4603,C2,366.091,0.363,64,140.0
4604,G#5,366.182,0.364,45,140.0
4605,G#3,366.182,0.364,55,140.0
4606,G#5,366.182,0.364,50,140.0
4607,G#5,366.182,0.364,50,140.0
4608,G2,366.454,0.364,64,140.0
4609,C#5,366.546,0.363,45,140.0
4610,C#3,366.546,0.363,55,140.0
4611,C#5,366.546,0.363,50,140.0
4612,C#5,366.546,0.363,50,140.0
4613,C3,366.818,0.363,64,140.0
4614,F#5,366.909,0.363,45,140.0
4615,F#3,366.909,0.363,55,140.0
4616,F#5,366.909,0.363,50,140.0
4617,F#5,366.909,0.363,50,140.0
4618,G#2,367.0,1.0,80,140.0
4619,D2,367.182,0.364,90,140.0
4620,F4,367.272,0.364,45,140.0
4621,F2,367.272,0.364,55,140.0
4622,F4,367.272,0.364,50,140.0
4623,F4,367.272,0.364,50,140.0
4624,C2,367.546,0.363,64,140.0
4625,B4,367.637,0.363,45,140.0
4626,B2,367.637,0.363,55,140.0
4627,B4,367.637,0.363,50,140.0
4628,B4,367.637,0.363,50,140.0
4629,D3,367.909,0.363,64,140.0
4630,G#4,368.0,4.0,45,140.0
4631,G#2,368.0,0.25,55,140.0
4632,G#4,368.0,4.0,50,140.0
4633,G#4,368.0,0.125,50,140.0
4634,G#2,368.0,1.0,80,140.0
4635,G#4,368.125,0.125,50,140.0
4636,G#2,368.25,0.25,55,140.0
4637,G#4,368.25,0.125,50,140.0
4638,A2,368.272,0.364,64,140.0
4639,G#4,368.375,0.125,50,140.0
4640,G#4,368.5,0.125,50,140.0
4641,G#4,368.625,0.125,50,140.0
4642,G2,368.637,0.363,64,140.0
4643,G#4,368.75,0.125,50,140.0
4644,G#4,368.875,0.125,50,140.0
4645,G#4,369.0,0.125,50,140.0
4646,B-2,369.0,1.0,64,140.0
4647,C2,369.0,0.25,110,140.0
4648,G#4,369.125,0.125,50,140.0
4649,G#4,369.25,0.125,50,140.0
4650,C2,369.25,0.25,110,140.0
4651,G#4,369.375,0.125,50,140.0
4652,G#2,369.5,0.25,55,140.0
4653,G#4,369.5,0.125,50,140.0
4654,G#4,369.625,0.125,50,140.0
4655,G#2,369.75,0.25,55,140.0
4656,G#4,369.75,0.125,50,140.0
4657,G#4,369.875,0.125,50,140.0
4658,G#4,370.0,0.125,50,140.0
4659,B-2,370.0,1.0,64,140.0
4660,D2,370.0,0.5,90,140.0
4661,G#4,370.125,0.125,50,140.0
4662,G#4,370.25,0.125,50,140.0
4663,G#4,370.375,0.125,50,140.0
4664,G#4,370.5,0.125,50,140.0
4665,C2,370.5,0.25,110,140.0
4666,G#4,370.625,0.125,50,140.0
4667,G#4,370.75,0.125,50,140.0
4668,C2,370.75,0.25,110,140.0
4669,G#4,370.875,0.125,50,140.0
4670,G#4,371.0,0.125,50,140.0
4671,B-2,371.0,1.0,64,140.0
4672,G#4,371.125,0.125,50,140.0
4673,G#4,371.25,0.125,50,140.0
4674,G#4,371.375,0.125,50,140.0
4675,G#4,371.5,0.125,50,140.0
4676,G#4,371.625,0.125,50,140.0
4677,G#4,371.75,0.125,50,140.0
4678,G#4,371.875,0.125,50,140.0
4679,G#4,372.0,4.0,45,140.0
4680,G#2,372.0,0.25,55,140.0
4681,G#4,372.0,4.0,50,140.0
4682,G#4,372.0,0.125,50,140.0
4683,B-2,372.0,1.0,77,140.0
4684,D2,372.0,1.0,77,140.0
4685,G#4,372.125,0.125,50,140.0
4686,G#2,372.25,0.25,55,140.0
4687,G#4,372.25,0.125,50,140.0
4688,G#4,372.375,0.125,50,140.0
4689,G#4,372.5,0.125,50,140.0
4690,G#4,372.625,0.125,50,140.0
4691,G#4,372.75,0.125,50,140.0
4692,G#4,372.875,0.125,50,140.0
4693,G#4,373.0,0.125,50,140.0
4694,B-2,373.0,1.0,64,140.0
4695,C2,373.0,0.25,110,140.0
4696,G#4,373.125,0.125,50,140.0
4697,G#4,373.25,0.125,50,140.0
4698,C2,373.25,0.25,110,140.0
4699,G#4,373.375,0.125,50,140.0
4700,G#2,373.5,0.25,55,140.0
4701,G#4,373.5,0.125,50,140.0
4702,G#4,373.625,0.125,50,140.0
4703,G#2,373.75,0.25,55,140.0
4704,G#4,373.75,0.125,50,140.0
4705,G#4,373.875,0.125,50,140.0
4706,G#4,374.0,0.125,50,140.0
4707,B-2,374.0,1.0,64,140.0
4708,D2,374.0,0.5,90,140.0
4709,G#4,374.125,0.125,50,140.0
4710,G#4,374.25,0.125,50,140.0
4711,G#4,374.375,0.125,50,140.0
4712,G#4,374.5,0.125,50,140.0
4713,C2,374.5,0.25,110,140.0
4714,G#4,374.625,0.125,50,140.0
4715,G#4,374.75,0.125,50,140.0
4716,C2,374.75,0.25,110,140.0
4717,G#4,374.875,0.125,50,140.0
4718,G#4,375.0,0.125,50,140.0
4719,B-2,375.0,1.0,64,140.0
4720,G#4,375.125,0.125,50,140.0
4721,G#4,375.25,0.125,50,140.0
4722,G#4,375.375,0.125,50,140.0
4723,G#4,375.5,0.125,50,140.0
4724,G#4,375.625,0.125,50,140.0
4725,G#4,375.75,0.125,50,140.0
4726,G#4,375.875,0.125,50,140.0
4727,B-5,376.0,0.363,45,140.0
4728,B-3,376.0,0.363,55,140.0
4729,B-5,376.0,0.363,50,140.0
4730,B-5,376.0,0.363,50,140.0
4731,B-2,376.0,1.0,77,140.0
4732,D2,376.0,1.0,77,140.0
4733,F#5,376.363,0.364,45,140.0
4734,F#3,376.363,0.364,55,140.0
4735,F#5,376.363,0.364,50,140.0
4736,F#5,376.363,0.364,50,140.0
4737,F#5,376.728,0.363,45,140.0
4738,F#3,376.728,0.363,55,140.0
4739,F#5,376.728,0.363,50,140.0
4740,F#5,376.728,0.363,50,140.0
4741,D3,377.0,0.363,64,140.0
4742,G#2,377.0,1.0,80,140.0
4743,G#5,377.091,0.363,45,140.0
4744,G#3,377.091,0.363,55,140.0
4745,G#5,377.091,0.363,50,140.0
4746,G#5,377.091,0.363,50,140.0
4747,A2,377.363,0.364,64,140.0
4748,F5,377.454,0.364,45,140.0
4749,F3,377.454,0.364,55,140.0
4750,F5,377.454,0.364,50,140.0
4751,F5,377.454,0.364,50,140.0
4752,G2,377.728,0.363,64,140.0
4753,C#5,377.818,0.363,45,140.0
4754,C#3,377.818,0.363,55,140.0
4755,C#5,377.818,0.363,50,140.0
4756,C#5,377.818,0.363,50,140.0
4757,G#2,378.0,1.0,80,140.0
4758,D2,378.091,0.363,90,140.0
4759,C#5,378.182,0.364,45,140.0
4760,C#3,378.182,0.364,55,140.0
4761,C#5,378.182,0.364,50,140.0
4762,C#5,378.182,0.364,50,140.0
4763,C3,378.454,0.364,64,140.0
4764,E-5,378.546,0.363,45,140.0
4765,E-3,378.546,0.363,55,140.0
4766,E-5,378.546,0.363,50,140.0
4767,E-5,378.546,0.363,50,140.0
4768,G2,378.818,0.363,64,140.0
4769,B4,378.909,0.363,45,140.0
4770,B2,378.909,0.363,55,140.0
4771,B4,378.909,0.363,50,140.0
4772,B4,378.909,0.363,50,140.0
4773,G#2,379.0,1.0,80,140.0
4774,C3,379.182,0.364,64,140.0
4775,G#5,379.272,0.364,45,140.0
4776,G#3,379.272,0.364,55,140.0
4777,G#5,379.272,0.364,50,140.0
4778,G#5,379.272,0.364,50,140.0
4779,C2,379.546,0.363,64,140.0
4780,F5,379.637,0.363,45,140.0
4781,F3,379.637,0.363,55,140.0
4782,F5,379.637,0.363,50,140.0
4783,F5,379.637,0.363,50,140.0
4784,D2,379.909,0.363,90,140.0
4785,F5,380.0,0.363,45,140.0
4786,F3,380.0,0.363,55,140.0
4787,F5,380.0,0.363,50,140.0
4788,F5,380.0,0.363,50,140.0
4789,G#2,380.0,1.0,80,140.0
4790,G2,380.272,0.364,64,140.0
4791,E-5,380.363,0.364,45,140.0
4792,E-3,380.363,0.364,55,140.0
4793,E-5,380.363,0.364,50,140.0
4794,E-5,380.363,0.364,50,140.0
4795,C2,380.637,0.363,64,140.0
4796,F#5,380.728,0.363,45,140.0
4797,F#3,380.728,0.363,55,140.0
4798,F#5,380.728,0.363,50,140.0
4799,F#5,380.728,0.363,50,140.0
4800,A2,381.0,0.363,64,140.0
4801,G#2,381.0,1.0,80,140.0
4802,F5,381.091,0.363,45,140.0
4803,F3,381.091,0.363,55,140.0
4804,F5,381.091,0.363,50,140.0
4805,F5,381.091,0.363,50,140.0
4806,C2,381.363,0.364,64,140.0
4807,C#5,381.454,0.364,45,140.0
4808,C#3,381.454,0.364,55,140.0
4809,C#5,381.454,0.364,50,140.0
4810,C#5,381.454,0.364,50,140.0
4811,D3,381.728,0.363,64,140.0
4812,E-5,381.818,0.363,45,140.0
4813,E-3,381.818,0.363,55,140.0
4814,E-5,381.818,0.363,50,140.0
4815,E-5,381.818,0.363,50,140.0
4816,G#2,382.0,1.0,80,140.0
4817,C2,382.091,0.363,64,140.0
4818,G#5,382.182,0.364,45,140.0
4819,G#3,382.182,0.364,55,140.0
4820,G#5,382.182,0.364,50,140.0
4821,G#5,382.182,0.364,50,140.0
4822,G2,382.454,0.364,64,140.0
4823,C#5,382.546,0.363,45,140.0
4824,C#3,382.546,0.363,55,140.0
4825,C#5,382.546,0.363,50,140.0
4826,C#5,382.546,0.363,50,140.0
4827,C3,382.818,0.363,64,140.0
4828,F#5,382.909,0.363,45,140.0
4829,F#3,382.909,0.363,55,140.0
4830,F#5,382.909,0.363,50,140.0
4831,F#5,382.909,0.363,50,140.0
4832,G#2,383.0,1.0,80,140.0
4833,D2,383.182,0.364,90,140.0
4834,F4,383.272,0.364,45,140.0
4835,F2,383.272,0.364,55,140.0
4836,F4,383.272,0.364,50,140.0
4837,F4,383.272,0.364,50,140.0
4838,C2,383.546,0.363,64,140.0
4839,B4,383.637,0.363,45,140.0
4840,B2,383.637,0.363,55,140.0
4841,B4,383.637,0.363,50,140.0
4842,B4,383.637,0.363,50,140.0
4843,D3,383.909,0.363,64,140.0
4844,G#4,384.0,4.0,45,140.0
4845,G#2,384.0,0.25,55,140.0
4846,G#4,384.0,4.0,50,140.0
4847,G#4,384.0,0.125,50,140.0
4848,G#2,384.0,1.0,80,140.0
4849,G#4,384.125,0.125,50,140.0
4850,G#2,384.25,0.25,55,140.0
4851,G#4,384.25,0.125,50,140.0
4852,A2,384.272,0.364,64,140.0
4853,G#4,384.375,0.125,50,140.0
4854,G#4,384.5,0.125,50,140.0
4855,G#4,384.625,0.125,50,140.0
4856,G2,384.637,0.363,64,140.0
4857,G#4,384.75,0.125,50,140.0
4858,G#4,384.875,0.125,50,140.0
4859,G#4,385.0,0.125,50,140.0
4860,B-2,385.0,1.0,64,140.0
4861,C2,385.0,0.25,110,140.0
4862,G#4,385.125,0.125,50,140.0
4863,G#4,385.25,0.125,50,140.0
4864,C2,385.25,0.25,110,140.0
4865,G#4,385.375,0.125,50,140.0
4866,G#2,385.5,0.25,55,140.0
4867,G#4,385.5,0.125,50,140.0
4868,G#4,385.625,0.125,50,140.0
4869,G#2,385.75,0.25,55,140.0
4870,G#4,385.75,0.125,50,140.0
4871,G#4,385.875,0.125,50,140.0
4872,G#4,386.0,0.125,50,140.0
4873,B-2,386.0,1.0,64,140.0
4874,D2,386.0,0.5,90,140.0
4875,G#4,386.125,0.125,50,140.0
4876,G#4,386.25,0.125,50,140.0
4877,G#4,386.375,0.125,50,140.0
4878,G#4,386.5,0.125,50,140.0
4879,C2,386.5,0.25,110,140.0
4880,G#4,386.625,0.125,50,140.0
4881,G#4,386.75,0.125,50,140.0
4882,C2,386.75,0.25,110,140.0
4883,G#4,386.875,0.125,50,140.0
4884,G#4,387.0,0.125,50,140.0
4885,B-2,387.0,1.0,64,140.0
4886,G#4,387.125,0.125,50,140.0
4887,G#4,387.25,0.125,50,140.0
4888,G#4,387.375,0.125,50,140.0
4889,G#4,387.5,0.125,50,140.0
4890,G#4,387.625,0.125,50,140.0
4891,G#4,387.75,0.125,50,140.0
4892,G#4,387.875,0.125,50,140.0
4893,G#4,388.0,4.0,45,140.0
4894,G#2,388.0,0.25,55,140.0
4895,G#4,388.0,4.0,50,140.0
4896,G#4,388.0,0.125,50,140.0
4897,B-2,388.0,1.0,77,140.0
4898,D2,388.0,1.0,77,140.0
4899,G#4,388.125,0.125,50,140.0
4900,G#2,388.25,0.25,55,140.0
4901,G#4,388.25,0.125,50,140.0
4902,G#4,388.375,0.125,50,140.0
4903,G#4,388.5,0.125,50,140.0
4904,G#4,388.625,0.125,50,140.0
4905,G#4,388.75,0.125,50,140.0
4906,G#4,388.875,0.125,50,140.0
4907,G#4,389.0,0.125,50,140.0
4908,B-2,389.0,1.0,64,140.0
4909,C2,389.0,0.25,110,140.0
4910,G#4,389.125,0.125,50,140.0
4911,G#4,389.25,0.125,50,140.0
4912,C2,389.25,0.25,110,140.0
4913,G#4,389.375,0.125,50,140.0
4914,G#2,389.5,0.25,55,140.0
4915,G#4,389.5,0.125,50,140.0
4916,G#4,389.625,0.125,50,140.0
4917,G#2,389.75,0.25,55,140.0
4918,G#4,389.75,0.125,50,140.0
4919,G#4,389.875,0.125,50,140.0
4920,G#4,390.0,0.125,50,140.0
4921,B-2,390.0,1.0,64,140.0
4922,D2,390.0,0.5,90,140.0
4923,G#4,390.125,0.125,50,140.0
4924,G#4,390.25,0.125,50,140.0
4925,G#4,390.375,0.125,50,140.0
4926,G#4,390.5,0.125,50,140.0
4927,C2,390.5,0.25,110,140.0
4928,G#4,390.625,0.125,50,140.0
4929,G#4,390.75,0.125,50,140.0
4930,C2,390.75,0.25,110,140.0
4931,G#4,390.875,0.125,50,140.0
4932,G#4,391.0,0.125,50,140.0
4933,B-2,391.0,1.0,64,140.0
4934,G#4,391.125,0.125,50,140.0
4935,G#4,391.25,0.125,50,140.0
4936,G#4,391.375,0.125,50,140.0
4937,G#4,391.5,0.125,50,140.0
4938,G#4,391.625,0.125,50,140.0
4939,G#4,391.75,0.125,50,140.0
4940,G#4,391.875,0.125,50,140.0
4941,B-5,392.0,0.363,45,140.0
4942,B-3,392.0,0.363,55,140.0
4943,B-5,392.0,0.363,50,140.0
4944,B-5,392.0,0.363,50,140.0
4945,B-2,392.0,1.0,77,140.0
4946,D2,392.0,1.0,77,140.0
4947,F#5,392.363,0.364,45,140.0
4948,F#3,392.363,0.364,55,140.0
4949,F#5,392.363,0.364,50,140.0
4950,F#5,392.363,0.364,50,140.0
4951,F#5,392.728,0.363,45,140.0
4952,F#3,392.728,0.363,55,140.0
4953,F#5,392.728,0.363,50,140.0
4954,F#5,392.728,0.363,50,140.0
4955,D3,393.0,0.363,64,140.0
4956,G#2,393.0,1.0,80,140.0
4957,G#5,393.091,0.363,45,140.0
4958,G#3,393.091,0.363,55,140.0
4959,G#5,393.091,0.363,50,140.0
4960,G#5,393.091,0.363,50,140.0
4961,A2,393.363,0.364,64,140.0
4962,F5,393.454,0.364,45,140.0
4963,F3,393.454,0.364,55,140.0
4964,F5,393.454,0.364,50,140.0
4965,F5,393.454,0.364,50,140.0
4966,G2,393.728,0.363,64,140.0
4967,C#5,393.818,0.363,45,140.0
4968,C#3,393.818,0.363,55,140.0
4969,C#5,393.818,0.363,50,140.0
4970,C#5,393.818,0.363,50,140.0
4971,G#2,394.0,1.0,80,140.0
4972,D2,394.091,0.363,90,140.0
4973,C#5,394.182,0.364,45,140.0
4974,C#3,394.182,0.364,55,140.0
4975,C#5,394.182,0.364,50,140.0
4976,C#5,394.182,0.364,50,140.0
4977,C3,394.454,0.364,64,140.0
4978,E-5,394.546,0.363,45,140.0
4979,E-3,394.546,0.363,55,140.0
4980,E-5,394.546,0.363,50,140.0
4981,E-5,394.546,0.363,50,140.0
4982,G2,394.818,0.363,64,140.0
4983,B4,394.909,0.363,45,140.0
4984,B2,394.909,0.363,55,140.0
4985,B4,394.909,0.363,50,140.0
4986,B4,394.909,0.363,50,140.0
4987,G#2,395.0,1.0,80,140.0
4988,C3,395.182,0.364,64,140.0
4989,G#5,395.272,0.364,45,140.0
4990,G#3,395.272,0.364,55,140.0
4991,G#5,395.272,0.364,50,140.0
4992,G#5,395.272,0.364,50,140.0
4993,C2,395.546,0.363,64,140.0
4994,F5,395.637,0.363,45,140.0
4995,F3,395.637,0.363,55,140.0
4996,F5,395.637,0.363,50,140.0
4997,F5,395.637,0.363,50,140.0
4998,D2,395.909,0.363,90,140.0
4999,F5,396.0,0.363,45,140.0
5000,F3,396.0,0.363,55,140.0
5001,F5,396.0,0.363,50,140.0
5002,F5,396.0,0.363,50,140.0
5003,G#2,396.0,1.0,80,140.0
5004,G2,396.272,0.364,64,140.0
5005,E-5,396.363,0.364,45,140.0
5006,E-3,396.363,0.364,55,140.0
5007,E-5,396.363,0.364,50,140.0
5008,E-5,396.363,0.364,50,140.0
5009,C2,396.637,0.363,64,140.0
5010,F#5,396.728,0.363,45,140.0
5011,F#3,396.728,0.363,55,140.0
5012,F#5,396.728,0.363,50,140.0
5013,F#5,396.728,0.363,50,140.0
5014,A2,397.0,0.363,64,140.0
5015,G#2,397.0,1.0,80,140.0
5016,F5,397.091,0.363,45,140.0
5017,F3,397.091,0.363,55,140.0
5018,F5,397.091,0.363,50,140.0
5019,F5,397.091,0.363,50,140.0
5020,C2,397.363,0.364,64,140.0
5021,C#5,397.454,0.364,45,140.0
5022,C#3,397.454,0.364,55,140.0
5023,C#5,397.454,0.364,50,140.0
5024,C#5,397.454,0.364,50,140.0
5025,D3,397.728,0.363,64,140.0
5026,E-5,397.818,0.363,45,140.0
5027,E-3,397.818,0.363,55,140.0
5028,E-5,397.818,0.363,50,140.0
5029,E-5,397.818,0.363,50,140.0
5030,G#2,398.0,1.0,80,140.0
5031,C2,398.091,0.363,64,140.0
5032,G#5,398.182,0.364,45,140.0
5033,G#3,398.182,0.364,55,140.0
5034,G#5,398.182,0.364,50,140.0
5035,G#5,398.182,0.364,50,140.0
5036,G2,398.454,0.364,64,140.0
5037,C#5,398.546,0.363,45,140.0
5038,C#3,398.546,0.363,55,140.0
5039,C#5,398.546,0.363,50,140.0
5040,C#5,398.546,0.363,50,140.0
5041,C3,398.818,0.363,64,140.0
5042,F#5,398.909,0.363,45,140.0
5043,F#3,398.909,0.363,55,140.0
5044,F#5,398.909,0.363,50,140.0
5045,F#5,398.909,0.363,50,140.0
5046,G#2,399.0,1.0,80,140.0
5047,D2,399.182,0.364,90,140.0
5048,F4,399.272,0.364,45,140.0
5049,F2,399.272,0.364,55,140.0
5050,F4,399.272,0.364,50,140.0
5051,F4,399.272,0.364,50,140.0
5052,C2,399.546,0.363,64,140.0
5053,B4,399.637,0.363,45,140.0
5054,B2,399.637,0.363,55,140.0
5055,B4,399.637,0.363,50,140.0
5056,B4,399.637,0.363,50,140.0
5057,D3,399.909,0.363,64,140.0
5058,E2,400.0,4.0,55,140.0
5059,B3,400.0,4.0,50,140.0
5060,G#4,400.0,0.125,50,140.0
5061,G#2,400.0,1.0,80,140.0
5062,E3,400.0,4.0,45,140.0
5063,G#3,400.0,4.0,45,140.0
5064,B3,400.0,4.0,45,140.0
5065,E4,400.0,4.0,45,140.0
5066,G#4,400.0,4.0,45,140.0
5067,G#4,400.125,0.125,50,140.0
5068,G#4,400.25,0.125,50,140.0
5069,A2,400.272,0.364,64,140.0
5070,G#4,400.375,0.125,50,140.0
5071,G#4,400.5,0.125,50,140.0
5072,G#4,400.625,0.125,50,140.0
5073,G2,400.637,0.363,64,140.0
5074,G#4,400.75,0.125,50,140.0
5075,G#4,400.875,0.125,50,140.0
5076,G#4,401.0,0.125,50,140.0
5077,C2,401.0,4.0,64,140.0
5078,B-2,401.0,2.0,64,140.0
5079,E-3,401.0,2.0,64,140.0
5080,C#3,401.0,2.0,64,140.0
5081,G#4,401.125,0.125,50,140.0
5082,G#4,401.25,0.125,50,140.0
5083,G#4,401.375,0.125,50,140.0
5084,G#4,401.5,0.125,50,140.0
5085,G#4,401.625,0.125,50,140.0
5086,G#4,401.75,0.125,50,140.0
5087,G#4,401.875,0.125,50,140.0
5088,G#4,402.0,0.125,50,140.0
5089,G#4,402.125,0.125,50,140.0
5090,G#4,402.25,0.125,50,140.0
5091,G#4,402.375,0.125,50,140.0
5092,G#4,402.5,0.125,50,140.0
5093,G#4,402.625,0.125,50,140.0
5094,G#4,402.75,0.125,50,140.0
5095,G#4,402.875,0.125,50,140.0
5096,G#4,403.0,0.125,50,140.0
5097,B-2,403.0,0.125,64,140.0
5098,G#4,403.125,0.125,50,140.0
5099,B-2,403.125,0.125,64,140.0
5100,G#4,403.25,0.125,50,140.0
5101,B-2,403.25,0.125,64,140.0
5102,G#4,403.375,0.125,50,140.0
5103,B-2,403.375,0.125,64,140.0
5104,G#4,403.5,0.125,50,140.0
5105,B-2,403.5,0.125,64,140.0
5106,G#4,403.625,0.125,50,140.0
5107,B-2,403.625,0.125,64,140.0
5108,G#4,403.75,0.125,50,140.0
5109,B-2,403.75,0.125,64,140.0
5110,G#4,403.875,0.125,50,140.0
5111,B-2,403.875,0.125,64,140.0
5112,E2,404.0,4.0,55,140.0
5113,B3,404.0,4.0,50,140.0
5114,G#4,404.0,4.0,50,140.0
5115,B-2,404.0,0.125,64,140.0
5116,B-2,404.125,0.125,64,140.0
5117,B-2,404.25,0.125,64,140.0
5118,B-2,404.375,0.125,64,140.0
5119,B-2,404.5,0.125,64,140.0
5120,B-2,404.625,0.125,64,140.0
5121,B-2,404.75,0.125,64,140.0
5122,B-2,404.875,0.125,64,140.0
5123,B-2,405.0,2.0,64,140.0
5124,E3,408.0,4.0,45,140.0
5125,G#3,408.0,4.0,45,140.0
5126,B3,408.0,4.0,45,140.0
5127,E4,408.0,4.0,45,140.0
5128,G#4,408.0,4.0,45,140.0
