,note_name,start_time,duration,velocity,tempo
0,B-3,5.0,667/1000,94,87.0
1,B-3,5.667,333/1000,94,87.0
2,D4,6.0,333/1000,94,87.0
3,B-3,6.333,333/1000,94,87.0
4,D4,6.667,333/1000,94,87.0
5,F4,7.0,333/1000,94,87.0
6,D4,7.333,333/1000,94,87.0
7,F4,7.667,333/1000,94,87.0
8,E-3,8.0,0.656,100,87.0
9,G4,8.0,0.125,94,87.0
10,E-2,8.0,1583/1000,100,87.0
11,C2,8.0,0.031,113,87.0
12,E-3,8.0,0.031,113,87.0
13,E-4,8.125,0.125,94,87.0
14,G4,8.25,0.125,94,87.0
15,E-3,8.333,0.031,77,87.0
16,E-4,8.375,0.125,94,87.0
17,G4,8.5,0.125,94,87.0
18,E-4,8.625,0.031,86,87.0
19,E-3,8.625,0.031,86,87.0
20,G4,8.75,0.125,94,87.0
21,E-4,8.875,0.125,94,87.0
22,E-3,9.0,0.656,100,87.0
23,G4,9.0,0.125,94,87.0
24,B-4,9.0,0.25,90,87.0
25,G4,9.0,0.25,90,87.0
26,E-4,9.0,0.25,90,87.0
27,E-3,9.0,0.031,106,87.0
28,D2,9.0,0.031,106,87.0
29,E-4,9.125,0.125,94,87.0
30,G4,9.25,0.125,94,87.0
31,E-3,9.333,0.031,74,87.0
32,E-4,9.375,0.125,94,87.0
33,G4,9.5,0.125,94,87.0
34,E-4,9.625,0.031,99,87.0
35,C2,9.625,0.031,99,87.0
36,E-3,9.625,0.031,99,87.0
37,G3,9.667,73/250,100,87.0
38,G2,9.667,73/250,100,87.0
39,G4,9.75,0.125,94,87.0
40,E-4,9.875,0.125,94,87.0
41,B-3,10.0,323/1000,100,87.0
42,G4,10.0,0.125,94,87.0
43,B-2,10.0,917/1000,100,87.0
44,C2,10.0,0.031,106,87.0
45,E-3,10.0,0.031,106,87.0
46,E-4,10.125,0.125,94,87.0
47,G4,10.25,0.125,94,87.0
48,E-3,10.333,0.031,77,87.0
49,E-4,10.375,0.125,94,87.0
50,G4,10.5,0.125,94,87.0
51,E-4,10.625,0.031,90,87.0
52,E-3,10.625,0.031,90,87.0
53,B-3,10.667,323/1000,100,87.0
54,G4,10.75,0.125,94,87.0
55,E-4,10.875,0.125,94,87.0
56,F#3,11.0,323/1000,100,87.0
57,G4,11.0,0.125,94,87.0
58,G2,11.0,583/1000,100,87.0
59,B-4,11.0,0.25,90,87.0
60,G4,11.0,0.25,90,87.0
61,E-4,11.0,0.25,90,87.0
62,D2,11.0,0.031,103,87.0
63,E-3,11.0,0.031,103,87.0
64,E-4,11.125,0.125,94,87.0
65,G4,11.25,0.125,94,87.0
66,G3,11.333,323/1000,100,87.0
67,E-3,11.333,0.031,78,87.0
68,E-4,11.375,0.125,94,87.0
69,G4,11.5,0.125,94,87.0
70,E-4,11.625,0.031,92,87.0
71,E-3,11.625,0.031,92,87.0
72,B-3,11.667,73/250,100,87.0
73,B-2,11.667,73/250,100,87.0
74,G4,11.75,0.125,94,87.0
75,E-4,11.875,0.125,94,87.0
76,E-3,12.0,0.656,100,87.0
77,G4,12.0,0.125,94,87.0
78,E-2,12.0,1583/1000,100,87.0
79,C2,12.0,0.031,112,87.0
80,E-3,12.0,0.031,112,87.0
81,E-4,12.125,0.125,94,87.0
82,G4,12.25,0.125,94,87.0
83,E-3,12.333,0.031,74,87.0
84,E-4,12.375,0.125,94,87.0
85,G4,12.5,0.125,94,87.0
86,E-4,12.625,0.031,88,87.0
87,E-3,12.625,0.031,88,87.0
88,G4,13.0,0.25,90,87.0
89,B-4,13.0,0.25,90,87.0
90,E-4,13.0,0.25,90,87.0
91,E-3,13.0,667/1000,97,87.0
92,B-4,13.0,667/1000,97,87.0
93,E-3,13.0,0.031,107,87.0
94,D2,13.0,0.031,107,87.0
95,E-3,13.333,0.031,74,87.0
96,G3,13.667,73/250,98,87.0
97,G4,13.667,73/250,98,87.0
98,G2,13.667,73/250,98,87.0
99,C2,13.667,0.031,100,87.0
100,E-3,13.667,0.031,100,87.0
101,B-2,14.0,917/1000,100,87.0
102,B-3,14.0,333/1000,97,87.0
103,F4,14.0,333/1000,97,87.0
104,C2,14.0,0.031,102,87.0
105,E-3,14.0,0.031,102,87.0
106,G4,14.333,333/1000,94,87.0
107,E-3,14.333,0.031,77,87.0
108,E-3,14.667,0.031,87,87.0
109,B-3,14.667,333/1000,97,87.0
110,F4,14.667,333/1000,97,87.0
111,F#3,15.0,323/1000,100,87.0
112,C#4,15.0,667/1000,94,87.0
113,G2,15.0,583/1000,100,87.0
114,B-4,15.0,0.25,90,87.0
115,G4,15.0,0.25,90,87.0
116,E-4,15.0,0.25,90,87.0
117,D2,15.0,0.031,112,87.0
118,E-3,15.0,0.031,112,87.0
119,G3,15.333,323/1000,100,87.0
120,E-3,15.333,0.031,75,87.0
121,E-3,15.667,0.031,84,87.0
122,B-3,15.667,73/250,98,87.0
123,D4,15.667,73/250,98,87.0
124,B-2,15.667,73/250,98,87.0
125,B-3,16.0,0.656,100,87.0
126,F4,16.0,0.125,94,87.0
127,B-1,16.0,1583/1000,100,87.0
128,C2,16.0,0.031,113,87.0
129,E-3,16.0,0.031,113,87.0
130,D4,16.125,0.125,94,87.0
131,F4,16.25,0.125,94,87.0
132,E-3,16.333,0.031,77,87.0
133,D4,16.375,0.125,94,87.0
134,F4,16.5,0.125,94,87.0
135,D4,16.625,0.031,86,87.0
136,E-3,16.625,0.031,86,87.0
137,F4,16.75,0.125,94,87.0
138,D4,16.875,0.125,94,87.0
139,B-3,17.0,0.656,100,87.0
140,F4,17.0,0.125,94,87.0
141,F4,17.0,0.25,90,87.0
142,B-4,17.0,0.25,90,87.0
143,D4,17.0,0.25,90,87.0
144,E-3,17.0,0.031,106,87.0
145,D2,17.0,0.031,106,87.0
146,D4,17.125,0.125,94,87.0
147,F4,17.25,0.125,94,87.0
148,E-3,17.333,0.031,74,87.0
149,D4,17.375,0.125,94,87.0
150,F4,17.5,0.125,94,87.0
151,D4,17.625,0.031,99,87.0
152,C2,17.625,0.031,99,87.0
153,E-3,17.625,0.031,99,87.0
154,D4,17.667,73/250,100,87.0
155,D2,17.667,73/250,100,87.0
156,F4,17.75,0.125,94,87.0
157,D4,17.875,0.125,94,87.0
158,F4,18.0,323/1000,100,87.0
159,F4,18.0,0.125,94,87.0
160,F2,18.0,479/500,100,87.0
161,C2,18.0,0.031,106,87.0
162,E-3,18.0,0.031,106,87.0
163,D4,18.125,0.125,94,87.0
164,F4,18.25,0.125,94,87.0
165,E-3,18.333,0.031,77,87.0
166,D4,18.375,0.125,94,87.0
167,F4,18.5,0.125,94,87.0
168,D4,18.625,0.031,90,87.0
169,E-3,18.625,0.031,90,87.0
170,F4,18.667,323/1000,100,87.0
171,F4,18.75,0.125,94,87.0
172,D4,18.875,0.125,94,87.0
173,C#4,19.0,323/1000,100,87.0
174,F4,19.0,0.125,94,87.0
175,D2,19.0,583/1000,100,87.0
176,F4,19.0,0.25,90,87.0
177,D4,19.0,0.25,90,87.0
178,B-4,19.0,0.25,90,87.0
179,D2,19.0,0.031,103,87.0
180,E-3,19.0,0.031,103,87.0
181,D4,19.125,0.125,94,87.0
182,F4,19.25,0.125,94,87.0
183,D4,19.333,323/1000,100,87.0
184,E-3,19.333,0.031,78,87.0
185,D4,19.375,0.125,94,87.0
186,F4,19.5,0.125,94,87.0
187,D4,19.625,0.031,92,87.0
188,E-3,19.625,0.031,92,87.0
189,F4,19.667,73/250,100,87.0
190,F2,19.667,73/250,100,87.0
191,F4,19.75,0.125,94,87.0
192,D4,19.875,0.125,94,87.0
193,B-3,20.0,0.656,100,87.0
194,B-1,20.0,3417/1000,100,87.0
195,F4,20.0,0.25,90,87.0
196,B-4,20.0,0.25,90,87.0
197,D4,20.0,0.25,90,87.0
198,F4,20.0,2333/1000,94,87.0
199,B-3,20.0,2333/1000,94,87.0
200,D4,20.0,2333/1000,94,87.0
201,C#2,20.0,0.031,112,87.0
202,D2,20.0,0.031,112,87.0
203,C2,20.0,0.031,112,87.0
204,F#2,21.0,0.031,97,87.0
205,F#2,22.0,0.031,92,87.0
206,F#2,23.0,0.031,102,87.0
207,E-3,24.0,0.656,100,87.0
208,E-2,24.0,1583/1000,100,87.0
209,B-5,24.0,0.25,90,87.0
210,E-5,24.0,0.25,90,87.0
211,G5,24.0,0.25,90,87.0
212,B-3,24.0,4.0,70,87.0
213,G4,24.0,4.0,70,87.0
214,E-4,24.0,4.0,70,87.0
215,C2,24.0,0.031,113,87.0
216,E-3,24.0,0.031,113,87.0
217,E-3,24.333,0.031,77,87.0
218,B-5,24.333,0.25,90,87.0
219,E-5,24.333,0.25,90,87.0
220,G5,24.333,0.25,90,87.0
221,E-3,24.667,0.031,79,87.0
222,B-5,24.667,0.25,90,87.0
223,E-5,24.667,0.25,90,87.0
224,G5,24.667,0.25,90,87.0
225,E-3,25.0,0.656,100,87.0
226,B-4,25.0,0.25,90,87.0
227,G4,25.0,0.25,90,87.0
228,E-4,25.0,0.25,90,87.0
229,B-5,25.0,0.25,90,87.0
230,G5,25.0,0.25,90,87.0
231,E-5,25.0,0.25,90,87.0
232,E-3,25.0,0.031,106,87.0
233,D2,25.0,0.031,106,87.0
234,E-3,25.333,0.031,74,87.0
235,G5,25.333,0.25,90,87.0
236,B-5,25.333,0.25,90,87.0
237,E-5,25.333,0.25,90,87.0
238,G3,25.667,73/250,100,87.0
239,G2,25.667,73/250,100,87.0
240,B-5,25.667,73/250,92,87.0
241,E-5,25.667,73/250,92,87.0
242,G5,25.667,73/250,92,87.0
243,G2,25.667,73/250,92,87.0
244,C2,25.667,0.031,101,87.0
245,E-3,25.667,0.031,101,87.0
246,B-3,26.0,323/1000,100,87.0
247,B-2,26.0,917/1000,100,87.0
248,B-5,26.0,0.25,90,87.0
249,G5,26.0,0.25,90,87.0
250,E-5,26.0,0.25,90,87.0
251,C2,26.0,0.031,106,87.0
252,E-3,26.0,0.031,106,87.0
253,E-3,26.333,0.031,77,87.0
254,B-5,26.333,0.25,90,87.0
255,G5,26.333,0.25,90,87.0
256,E-5,26.333,0.25,90,87.0
257,B-3,26.667,323/1000,100,87.0
258,E-3,26.667,0.031,87,87.0
259,B-5,26.667,0.25,90,87.0
260,E-5,26.667,0.25,90,87.0
261,G5,26.667,0.25,90,87.0
262,F#3,27.0,323/1000,100,87.0
263,G2,27.0,583/1000,100,87.0
264,E-4,27.0,0.25,90,87.0
265,G4,27.0,0.25,90,87.0
266,B-4,27.0,0.25,90,87.0
267,B-5,27.0,0.25,90,87.0
268,G5,27.0,0.25,90,87.0
269,E-5,27.0,0.25,90,87.0
270,D2,27.0,0.031,103,87.0
271,E-3,27.0,0.031,103,87.0
272,G3,27.333,323/1000,100,87.0
273,E-3,27.333,0.031,78,87.0
274,G5,27.333,0.25,90,87.0
275,B-5,27.333,0.25,90,87.0
276,E-5,27.333,0.25,90,87.0
277,E-3,27.667,0.031,89,87.0
278,B-3,27.667,73/250,100,87.0
279,B-2,27.667,73/250,100,87.0
280,B-5,27.667,73/250,92,87.0
281,E-5,27.667,73/250,92,87.0
282,G5,27.667,73/250,92,87.0
283,B-2,27.667,73/250,92,87.0
284,E-3,31.5,0.656,100,87.0
285,E-2,31.5,1583/1000,100,87.0
286,B-5,31.5,0.25,90,87.0
287,E-5,31.5,0.25,90,87.0
288,G5,31.5,0.25,90,87.0
289,C2,31.5,0.031,112,87.0
290,E-3,31.5,0.031,112,87.0
291,B-3,31.5,3.5,70,87.0
292,G4,31.5,3.5,70,87.0
293,E-4,31.5,3.5,70,87.0
294,E-3,31.833,0.031,74,87.0
295,B-5,31.833,0.25,90,87.0
296,E-5,31.833,0.25,90,87.0
297,G5,31.833,0.25,90,87.0
298,E-3,32.167,0.031,82,87.0
299,E-5,32.167,0.25,90,87.0
300,G5,32.167,0.25,90,87.0
301,B-5,32.167,0.25,90,87.0
302,E-3,32.5,0.656,100,87.0
303,G4,32.5,0.25,90,87.0
304,B-4,32.5,0.25,90,87.0
305,E-4,32.5,0.25,90,87.0
306,G5,32.5,0.25,90,87.0
307,B-5,32.5,0.25,90,87.0
308,E-5,32.5,0.25,90,87.0
309,E-3,32.5,0.031,107,87.0
310,D2,32.5,0.031,107,87.0
311,E-3,32.833,0.031,74,87.0
312,B-5,32.833,0.25,90,87.0
313,G5,32.833,0.25,90,87.0
314,E-5,32.833,0.25,90,87.0
315,G3,33.167,73/250,100,87.0
316,G2,33.167,73/250,100,87.0
317,B-5,33.167,73/250,92,87.0
318,G5,33.167,73/250,92,87.0
319,E-5,33.167,73/250,92,87.0
320,G2,33.167,73/250,92,87.0
321,C2,33.167,0.031,100,87.0
322,E-3,33.167,0.031,100,87.0
323,B-3,33.5,323/1000,100,87.0
324,B-2,33.5,917/1000,100,87.0
325,B-5,33.5,0.25,90,87.0
326,G5,33.5,0.25,90,87.0
327,E-5,33.5,0.25,90,87.0
328,C2,33.5,0.031,102,87.0
329,E-3,33.5,0.031,102,87.0
330,E-3,33.833,0.031,77,87.0
331,B-5,33.833,0.25,90,87.0
332,G5,33.833,0.25,90,87.0
333,E-5,33.833,0.25,90,87.0
334,B-3,34.167,323/1000,100,87.0
335,E-3,34.167,0.031,87,87.0
336,B-5,34.167,0.25,90,87.0
337,G5,34.167,0.25,90,87.0
338,E-5,34.167,0.25,90,87.0
339,F#3,34.5,323/1000,100,87.0
340,G2,34.5,583/1000,100,87.0
341,G4,34.5,0.25,90,87.0
342,B-4,34.5,0.25,90,87.0
343,E-4,34.5,0.25,90,87.0
344,B-5,34.5,0.25,90,87.0
345,G5,34.5,0.25,90,87.0
346,E-5,34.5,0.25,90,87.0
347,D2,34.5,0.031,112,87.0
348,E-3,34.5,0.031,112,87.0
349,G3,34.833,323/1000,100,87.0
350,E-3,34.833,0.031,75,87.0
351,B-5,34.833,0.25,90,87.0
352,G5,34.833,0.25,90,87.0
353,E-5,34.833,0.25,90,87.0
354,E-3,35.167,0.031,84,87.0
355,B-3,35.167,73/250,100,87.0
356,B-2,35.167,73/250,100,87.0
357,G5,35.167,73/250,92,87.0
358,B-5,35.167,73/250,92,87.0
359,E-5,35.167,73/250,92,87.0
360,B-2,35.167,73/250,92,87.0
361,B-3,35.5,99/100,100,87.0
362,B-1,35.5,1583/1000,100,87.0
363,D5,35.5,0.25,90,87.0
364,B-5,35.5,0.25,90,87.0
365,F5,35.5,0.25,90,87.0
366,B-3,35.5,4.0,70,87.0
367,D4,35.5,4.0,70,87.0
368,F4,35.5,4.0,70,87.0
369,C2,35.5,0.031,113,87.0
370,E-3,35.5,0.031,113,87.0
371,E-3,35.833,0.031,77,87.0
372,F5,35.833,0.25,90,87.0
373,B-5,35.833,0.25,90,87.0
374,D5,35.833,0.25,90,87.0
375,E-3,36.167,0.031,79,87.0
376,D5,36.167,0.25,90,87.0
377,F5,36.167,0.25,90,87.0
378,B-5,36.167,0.25,90,87.0
379,B-3,36.5,0.656,100,87.0
380,F4,36.5,0.25,90,87.0
381,D4,36.5,0.25,90,87.0
382,B-4,36.5,0.25,90,87.0
383,D5,36.5,0.25,90,87.0
384,F5,36.5,0.25,90,87.0
385,B-5,36.5,0.25,90,87.0
386,E-3,36.5,0.031,106,87.0
387,D2,36.5,0.031,106,87.0
388,E-3,36.833,0.031,74,87.0
389,F5,36.833,0.25,90,87.0
390,D5,36.833,0.25,90,87.0
391,B-5,36.833,0.25,90,87.0
392,D4,37.167,73/250,100,87.0
393,D2,37.167,73/250,100,87.0
394,F5,37.167,73/250,92,87.0
395,D5,37.167,73/250,92,87.0
396,B-5,37.167,73/250,92,87.0
397,D2,37.167,73/250,92,87.0
398,C2,37.167,0.031,101,87.0
399,E-3,37.167,0.031,101,87.0
400,F4,37.5,323/1000,100,87.0
401,F2,37.5,479/500,100,87.0
402,F5,37.5,0.25,90,87.0
403,D5,37.5,0.25,90,87.0
404,B-5,37.5,0.25,90,87.0
405,C2,37.5,0.031,106,87.0
406,E-3,37.5,0.031,106,87.0
407,E-3,37.833,0.031,77,87.0
408,D5,37.833,0.25,90,87.0
409,F5,37.833,0.25,90,87.0
410,B-5,37.833,0.25,90,87.0
411,F4,38.167,323/1000,100,87.0
412,E-3,38.167,0.031,87,87.0
413,D5,38.167,0.25,90,87.0
414,F5,38.167,0.25,90,87.0
415,B-5,38.167,0.25,90,87.0
416,C#4,38.5,323/1000,100,87.0
417,D2,38.5,583/1000,100,87.0
418,F4,38.5,0.25,90,87.0
419,D4,38.5,0.25,90,87.0
420,B-4,38.5,0.25,90,87.0
421,D5,38.5,0.25,90,87.0
422,F5,38.5,0.25,90,87.0
423,B-5,38.5,0.25,90,87.0
424,D2,38.5,0.031,103,87.0
425,E-3,38.5,0.031,103,87.0
426,D4,38.833,323/1000,100,87.0
427,E-3,38.833,0.031,78,87.0
428,F5,38.833,0.25,90,87.0
429,D5,38.833,0.25,90,87.0
430,B-5,38.833,0.25,90,87.0
431,E-3,39.167,0.031,89,87.0
432,F4,39.167,73/250,100,87.0
433,F2,39.167,73/250,100,87.0
434,D5,39.167,73/250,92,87.0
435,B-5,39.167,73/250,92,87.0
436,F5,39.167,73/250,92,87.0
437,F2,39.167,73/250,92,87.0
438,B-3,43.0,0.656,100,87.0
439,B-1,43.0,1583/1000,100,87.0
440,F5,43.0,0.25,90,87.0
441,D5,43.0,0.25,90,87.0
442,B-5,43.0,0.25,90,87.0
443,C2,43.0,0.031,112,87.0
444,E-3,43.0,0.031,112,87.0
445,B-3,43.0,3.5,70,87.0
446,D4,43.0,3.5,70,87.0
447,F4,43.0,3.5,70,87.0
448,E-3,43.333,0.031,74,87.0
449,D5,43.333,0.25,90,87.0
450,F5,43.333,0.25,90,87.0
451,B-5,43.333,0.25,90,87.0
452,E-3,43.667,0.031,82,87.0
453,F5,43.667,0.25,90,87.0
454,D5,43.667,0.25,90,87.0
455,B-5,43.667,0.25,90,87.0
456,B-3,44.0,0.656,100,87.0
457,B-4,44.0,0.25,90,87.0
458,F4,44.0,0.25,90,87.0
459,D4,44.0,0.25,90,87.0
460,F5,44.0,0.25,90,87.0
461,D5,44.0,0.25,90,87.0
462,B-5,44.0,0.25,90,87.0
463,E-3,44.0,0.031,107,87.0
464,D2,44.0,0.031,107,87.0
465,E-3,44.333,0.031,74,87.0
466,F5,44.333,0.25,90,87.0
467,D5,44.333,0.25,90,87.0
468,B-5,44.333,0.25,90,87.0
469,D4,44.667,73/250,100,87.0
470,D2,44.667,73/250,100,87.0
471,F5,44.667,73/250,92,87.0
472,D5,44.667,73/250,92,87.0
473,B-5,44.667,73/250,92,87.0
474,D2,44.667,73/250,92,87.0
475,C2,44.667,0.031,100,87.0
476,E-3,44.667,0.031,100,87.0
477,F4,45.0,0.656,100,87.0
478,F2,45.0,917/1000,100,87.0
479,F5,45.0,0.25,90,87.0
480,B-5,45.0,0.25,90,87.0
481,D5,45.0,0.25,90,87.0
482,C2,45.0,0.031,102,87.0
483,E-3,45.0,0.031,102,87.0
484,E-3,45.333,0.031,77,87.0
485,D5,45.333,0.25,90,87.0
486,F5,45.333,0.25,90,87.0
487,B-5,45.333,0.25,90,87.0
488,F4,45.667,323/1000,100,87.0
489,E-3,45.667,0.031,87,87.0
490,F5,45.667,0.25,90,87.0
491,D5,45.667,0.25,90,87.0
492,B-5,45.667,0.25,90,87.0
493,C#4,46.0,323/1000,100,87.0
494,D2,46.0,583/1000,100,87.0
495,F4,46.0,0.25,90,87.0
496,B-4,46.0,0.25,90,87.0
497,D4,46.0,0.25,90,87.0
498,F5,46.0,0.25,90,87.0
499,D5,46.0,0.25,90,87.0
500,B-5,46.0,0.25,90,87.0
501,D2,46.0,0.031,112,87.0
502,E-3,46.0,0.031,112,87.0
503,D4,46.333,0.656,100,87.0
504,E-3,46.333,0.031,75,87.0
505,F5,46.333,0.25,90,87.0
506,B-5,46.333,0.25,90,87.0
507,D5,46.333,0.25,90,87.0
508,E-3,46.667,0.031,84,87.0
509,F5,46.667,73/250,92,87.0
510,D5,46.667,73/250,92,87.0
511,B-5,46.667,73/250,92,87.0
512,F2,46.667,73/250,92,87.0
513,F3,47.0,0.656,100,87.0
514,F1,47.0,1583/1000,100,87.0
515,F5,47.0,0.25,90,87.0
516,C5,47.0,0.25,90,87.0
517,A5,47.0,0.25,90,87.0
518,F4,47.0,4.0,70,87.0
519,A3,47.0,4.0,70,87.0
520,C4,47.0,4.0,70,87.0
521,C2,47.0,0.031,113,87.0
522,E-3,47.0,0.031,113,87.0
523,E-3,47.333,0.031,77,87.0
524,A5,47.333,0.25,90,87.0
525,C5,47.333,0.25,90,87.0
526,F5,47.333,0.25,90,87.0
527,E-3,47.667,0.031,79,87.0
528,F5,47.667,0.25,90,87.0
529,C5,47.667,0.25,90,87.0
530,A5,47.667,0.25,90,87.0
531,F3,48.0,0.656,100,87.0
532,C4,48.0,0.25,90,87.0
533,F4,48.0,0.25,90,87.0
534,A4,48.0,0.25,90,87.0
535,A5,48.0,0.25,90,87.0
536,C5,48.0,0.25,90,87.0
537,F5,48.0,0.25,90,87.0
538,E-3,48.0,0.031,106,87.0
539,D2,48.0,0.031,106,87.0
540,E-3,48.333,0.031,74,87.0
541,A5,48.333,0.25,90,87.0
542,C5,48.333,0.25,90,87.0
543,F5,48.333,0.25,90,87.0
544,A3,48.667,73/250,100,87.0
545,A1,48.667,73/250,100,87.0
546,A5,48.667,73/250,92,87.0
547,C5,48.667,73/250,92,87.0
548,F5,48.667,73/250,92,87.0
549,A1,48.667,73/250,92,87.0
550,C2,48.667,0.031,101,87.0
551,E-3,48.667,0.031,101,87.0
552,C4,49.0,0.656,100,87.0
553,C2,49.0,479/500,100,87.0
554,A5,49.0,0.25,90,87.0
555,C5,49.0,0.25,90,87.0
556,F5,49.0,0.25,90,87.0
557,C2,49.0,0.031,106,87.0
558,E-3,49.0,0.031,106,87.0
559,E-3,49.333,0.031,77,87.0
560,A5,49.333,0.25,90,87.0
561,F5,49.333,0.25,90,87.0
562,C5,49.333,0.25,90,87.0
563,C4,49.667,323/1000,100,87.0
564,E-3,49.667,0.031,87,87.0
565,A5,49.667,0.25,90,87.0
566,C5,49.667,0.25,90,87.0
567,F5,49.667,0.25,90,87.0
568,G#3,50.0,323/1000,100,87.0
569,A1,50.0,583/1000,100,87.0
570,C4,50.0,0.25,90,87.0
571,F4,50.0,0.25,90,87.0
572,A4,50.0,0.25,90,87.0
573,F5,50.0,0.25,90,87.0
574,C5,50.0,0.25,90,87.0
575,A5,50.0,0.25,90,87.0
576,D2,50.0,0.031,103,87.0
577,E-3,50.0,0.031,103,87.0
578,A3,50.333,323/1000,100,87.0
579,E-3,50.333,0.031,78,87.0
580,A5,50.333,0.25,90,87.0
581,C5,50.333,0.25,90,87.0
582,F5,50.333,0.25,90,87.0
583,E-3,50.667,0.031,89,87.0
584,C4,50.667,73/250,100,87.0
585,C2,50.667,73/250,100,87.0
586,A5,50.667,73/250,92,87.0
587,F5,50.667,73/250,92,87.0
588,C5,50.667,73/250,92,87.0
589,C2,50.667,73/250,92,87.0
590,F4,54.5,3.5,70,87.0
591,A3,54.5,3.5,70,87.0
592,C4,54.5,3.5,70,87.0
