,note_name,start_time,duration,velocity,tempo
0,G3,16.0,1.0,95,220.0
1,D3,16.0,1.0,95,220.0
2,G2,16.0,1.0,95,220.0
3,F3,17.5,2.5,95,220.0
4,C3,17.5,2.5,95,220.0
5,F2,17.5,2.5,95,220.0
6,F3,20.0,4.0,95,220.0
7,C3,20.0,4.0,95,220.0
8,F2,20.0,4.0,95,220.0
9,F3,32.0,4.0,95,220.0
10,C3,32.0,4.0,95,220.0
11,F2,32.0,4.0,95,220.0
12,F3,40.0,4.0,95,220.0
13,C3,40.0,4.0,95,220.0
14,F2,40.0,4.0,95,220.0
15,G3,44.0,1.0,95,220.0
16,D3,44.0,1.0,95,220.0
17,G2,44.0,1.0,95,220.0
18,F3,45.5,2.5,95,220.0
19,C3,45.5,2.5,95,220.0
20,F2,45.5,2.5,95,220.0
21,F3,48.0,4.0,95,220.0
22,C3,48.0,4.0,95,220.0
23,F2,48.0,4.0,95,220.0
24,F3,60.0,4.0,95,220.0
25,C3,60.0,4.0,95,220.0
26,F2,60.0,4.0,95,220.0
27,F3,68.0,4.0,95,220.0
28,C3,68.0,4.0,95,220.0
29,F2,68.0,4.0,95,220.0
30,G3,72.0,1.0,95,220.0
31,D3,72.0,1.0,95,220.0
32,G2,72.0,1.0,95,220.0
33,F3,73.5,1.0,95,220.0
34,C3,73.5,1.0,95,220.0
35,F2,73.5,1.0,95,220.0
36,A2,74.5,23/200,95,220.0
37,E2,74.5,23/200,95,220.0
38,F4,75.0,0.5,95,220.0
39,C4,75.0,1.0,95,220.0
40,G3,76.0,1.0,95,220.0
41,D3,76.0,1.0,95,220.0
42,G2,76.0,1.0,95,220.0
43,F3,77.5,1.0,95,220.0
44,C3,77.5,1.0,95,220.0
45,F2,77.5,1.0,95,220.0
46,B3,78.5,0.5,95,220.0
47,D4,78.5,0.5,95,220.0
48,A2,78.5,23/200,95,220.0
49,E2,78.5,23/200,95,220.0
50,F4,79.0,0.5,95,220.0
51,C4,79.0,1.0,95,220.0
52,C4,79.0,1.0,95,220.0
53,E4,79.0,1.0,95,220.0
54,C4,80.0,4.0,95,220.0
55,E4,80.0,4.0,95,220.0
56,G3,80.0,1.0,95,220.0
57,D3,80.0,1.0,95,220.0
58,G2,80.0,1.0,95,220.0
59,F3,81.5,1.0,95,220.0
60,C3,81.5,1.0,95,220.0
61,F2,81.5,1.0,95,220.0
62,A2,82.5,23/200,95,220.0
63,E2,82.5,23/200,95,220.0
64,F4,83.0,0.5,95,220.0
65,C4,83.0,1.0,95,220.0
66,C4,84.0,667/1000,95,220.0
67,E4,84.0,667/1000,95,220.0
68,G3,84.0,1.0,95,220.0
69,D3,84.0,1.0,95,220.0
70,G2,84.0,1.0,95,220.0
71,C4,84.667,667/1000,95,220.0
72,E4,84.667,667/1000,95,220.0
73,B3,85.333,667/1000,95,220.0
74,D4,85.333,667/1000,95,220.0
75,F3,85.5,1.0,95,220.0
76,C3,85.5,1.0,95,220.0
77,F2,85.5,1.0,95,220.0
78,C4,86.0,667/1000,95,220.0
79,E4,86.0,667/1000,95,220.0
80,A2,86.5,23/200,95,220.0
81,E2,86.5,23/200,95,220.0
82,B3,86.667,667/1000,70,220.0
83,D4,86.667,667/1000,70,220.0
84,F4,87.0,0.5,95,220.0
85,C4,87.0,1.0,95,220.0
86,A3,87.333,667/1000,95,220.0
87,C4,87.333,667/1000,95,220.0
88,G3,88.0,0.5,95,220.0
89,B3,88.0,0.5,95,220.0
90,G3,88.0,1.0,95,220.0
91,D3,88.0,1.0,95,220.0
92,G2,88.0,1.0,95,220.0
93,F3,88.5,0.25,95,220.0
94,A3,88.5,0.25,95,220.0
95,F3,88.75,0.25,95,220.0
96,A3,88.75,0.25,95,220.0
97,F3,89.0,0.25,95,220.0
98,A3,89.0,0.25,95,220.0
99,F3,89.25,0.25,95,220.0
100,A3,89.25,0.25,95,220.0
101,F3,89.5,0.25,95,220.0
102,A3,89.5,0.25,95,220.0
103,F3,89.5,1.0,95,220.0
104,C3,89.5,1.0,95,220.0
105,F2,89.5,1.0,95,220.0
106,F3,89.75,0.25,95,220.0
107,A3,89.75,0.25,95,220.0
108,F3,90.0,0.25,95,220.0
109,A3,90.0,0.25,95,220.0
110,F3,90.25,0.25,95,220.0
111,A3,90.25,0.25,95,220.0
112,F3,90.5,0.25,95,220.0
113,A3,90.5,0.25,95,220.0
114,A2,90.5,23/200,95,220.0
115,E2,90.5,23/200,95,220.0
116,F3,90.75,0.25,95,220.0
117,A3,90.75,0.25,95,220.0
118,F4,91.0,0.5,95,220.0
119,C4,91.0,1.0,95,220.0
120,F3,91.0,0.25,95,220.0
121,A3,91.0,0.25,95,220.0
122,F3,91.25,0.25,95,220.0
123,A3,91.25,0.25,95,220.0
124,F3,91.5,0.25,95,220.0
125,A3,91.5,0.25,95,220.0
126,F3,91.75,0.25,95,220.0
127,A3,91.75,0.25,95,220.0
128,F3,92.0,0.25,95,220.0
129,A3,92.0,0.25,95,220.0
130,G3,92.0,1.0,95,220.0
131,D3,92.0,1.0,95,220.0
132,G2,92.0,1.0,95,220.0
133,F3,92.25,0.25,95,220.0
134,A3,92.25,0.25,95,220.0
135,F3,92.5,0.25,95,220.0
136,A3,92.5,0.25,95,220.0
137,F3,92.75,0.25,95,220.0
138,A3,92.75,0.25,95,220.0
139,F3,93.0,0.25,95,220.0
140,A3,93.0,0.25,95,220.0
141,F3,93.25,0.25,95,220.0
142,A3,93.25,0.25,95,220.0
143,F3,93.5,0.25,95,220.0
144,A3,93.5,0.25,95,220.0
145,F3,93.5,1.0,95,220.0
146,C3,93.5,1.0,95,220.0
147,F2,93.5,1.0,95,220.0
148,F3,93.75,0.25,95,220.0
149,A3,93.75,0.25,95,220.0
150,F3,94.0,0.25,95,220.0
151,A3,94.0,0.25,95,220.0
152,F3,94.25,249/1000,95,220.0
153,A3,94.25,249/1000,95,220.0
154,B3,94.5,0.5,95,220.0
155,D4,94.5,0.5,95,220.0
156,A2,94.5,23/200,95,220.0
157,E2,94.5,23/200,95,220.0
158,F4,95.0,0.5,95,220.0
159,C4,95.0,1.0,95,220.0
160,C4,95.0,1.0,95,220.0
161,E4,95.0,1.0,95,220.0
162,C4,96.0,4.0,95,220.0
163,E4,96.0,4.0,95,220.0
164,G3,96.0,1.0,95,220.0
165,D3,96.0,1.0,95,220.0
166,G2,96.0,1.0,95,220.0
167,F3,97.5,1.0,95,220.0
168,C3,97.5,1.0,95,220.0
169,F2,97.5,1.0,95,220.0
170,A2,98.5,23/200,95,220.0
171,E2,98.5,23/200,95,220.0
172,F4,99.0,0.5,95,220.0
173,C4,99.0,1.0,95,220.0
174,C4,100.0,667/1000,95,220.0
175,E4,100.0,667/1000,95,220.0
176,G3,100.0,1.0,95,220.0
177,D3,100.0,1.0,95,220.0
178,G2,100.0,1.0,95,220.0
179,C4,100.667,667/1000,95,220.0
180,E4,100.667,667/1000,95,220.0
181,B3,101.333,667/1000,95,220.0
182,D4,101.333,667/1000,95,220.0
183,F3,101.5,1.0,95,220.0
184,C3,101.5,1.0,95,220.0
185,F2,101.5,1.0,95,220.0
186,C4,102.0,667/1000,95,220.0
187,E4,102.0,667/1000,95,220.0
188,A2,102.5,23/200,95,220.0
189,E2,102.5,23/200,95,220.0
190,B3,102.667,667/1000,70,220.0
191,D4,102.667,667/1000,70,220.0
192,F4,103.0,0.5,95,220.0
193,C4,103.0,1.0,95,220.0
194,A3,103.333,667/1000,95,220.0
195,C4,103.333,667/1000,95,220.0
196,G3,104.0,0.5,95,220.0
197,B3,104.0,0.5,95,220.0
198,G3,104.0,1.0,95,220.0
199,D3,104.0,1.0,95,220.0
200,G2,104.0,1.0,95,220.0
201,F3,104.5,0.25,95,220.0
202,A3,104.5,0.25,95,220.0
203,F3,104.75,0.25,95,220.0
204,A3,104.75,0.25,95,220.0
205,F3,105.0,0.25,95,220.0
206,A3,105.0,0.25,95,220.0
207,F3,105.25,0.25,95,220.0
208,A3,105.25,0.25,95,220.0
209,F3,105.5,0.25,95,220.0
210,A3,105.5,0.25,95,220.0
211,F3,105.5,1.0,95,220.0
212,C3,105.5,1.0,95,220.0
213,F2,105.5,1.0,95,220.0
214,F3,105.75,0.25,95,220.0
215,A3,105.75,0.25,95,220.0
216,F3,106.0,0.25,95,220.0
217,A3,106.0,0.25,95,220.0
218,F3,106.25,0.25,95,220.0
219,A3,106.25,0.25,95,220.0
220,F3,106.5,0.25,95,220.0
221,A3,106.5,0.25,95,220.0
222,A2,106.5,23/200,95,220.0
223,E2,106.5,23/200,95,220.0
224,F3,106.75,0.25,95,220.0
225,A3,106.75,0.25,95,220.0
226,F4,107.0,0.5,95,220.0
227,C4,107.0,1.0,95,220.0
228,F3,107.0,0.25,95,220.0
229,A3,107.0,0.25,95,220.0
230,F3,107.25,0.25,95,220.0
231,A3,107.25,0.25,95,220.0
232,F3,107.5,0.25,95,220.0
233,A3,107.5,0.25,95,220.0
234,F3,107.75,0.25,95,220.0
235,A3,107.75,0.25,95,220.0
236,G3,108.0,1.0,95,220.0
237,D3,108.0,1.0,95,220.0
238,G2,108.0,1.0,95,220.0
239,F3,108.0,0.25,95,220.0
240,F3,108.0,0.25,95,220.0
241,A3,108.0,0.25,95,220.0
242,A3,108.0,0.25,95,220.0
243,F3,108.25,0.25,95,220.0
244,F3,108.25,0.25,95,220.0
245,A3,108.25,0.25,95,220.0
246,A3,108.25,0.25,95,220.0
247,F3,108.5,0.25,95,220.0
248,F3,108.5,0.25,95,220.0
249,A3,108.5,0.25,95,220.0
250,A3,108.5,0.25,95,220.0
251,F3,108.75,0.25,95,220.0
252,F3,108.75,0.25,95,220.0
253,A3,108.75,0.25,95,220.0
254,A3,108.75,0.25,95,220.0
255,F3,109.0,0.25,95,220.0
256,F3,109.0,0.25,95,220.0
257,A3,109.0,0.25,95,220.0
258,A3,109.0,0.25,95,220.0
259,F3,109.25,0.25,95,220.0
260,F3,109.25,0.25,95,220.0
261,A3,109.25,0.25,95,220.0
262,A3,109.25,0.25,95,220.0
263,F3,109.5,1.0,95,220.0
264,C3,109.5,1.0,95,220.0
265,F2,109.5,1.0,95,220.0
266,F3,109.5,0.25,95,220.0
267,F3,109.5,0.25,95,220.0
268,A3,109.5,0.25,95,220.0
269,A3,109.5,0.25,95,220.0
270,F3,109.75,0.25,95,220.0
271,F3,109.75,0.25,95,220.0
272,A3,109.75,0.25,95,220.0
273,A3,109.75,0.25,95,220.0
274,F3,110.0,0.25,95,220.0
275,F3,110.0,0.25,95,220.0
276,A3,110.0,0.25,95,220.0
277,A3,110.0,0.25,95,220.0
278,F3,110.25,249/1000,95,220.0
279,F3,110.25,249/1000,95,220.0
280,A3,110.25,249/1000,95,220.0
281,A3,110.25,249/1000,95,220.0
282,B3,110.5,0.5,95,220.0
283,D4,110.5,0.5,95,220.0
284,F4,110.5,0.5,95,220.0
285,A2,110.5,23/200,95,220.0
286,E2,110.5,23/200,95,220.0
287,F4,111.0,0.5,95,220.0
288,C4,111.0,1.0,95,220.0
289,C4,111.0,1.0,95,220.0
290,E4,111.0,1.0,95,220.0
291,G4,111.0,1.0,95,220.0
292,C4,112.0,4.0,95,220.0
293,E4,112.0,4.0,95,220.0
294,G4,112.0,4.0,95,220.0
295,G3,112.0,1.0,95,220.0
296,D3,112.0,1.0,95,220.0
297,G2,112.0,1.0,95,220.0
298,F3,113.5,1.0,95,220.0
299,C3,113.5,1.0,95,220.0
300,F2,113.5,1.0,95,220.0
301,A2,114.5,23/200,95,220.0
302,E2,114.5,23/200,95,220.0
303,F4,115.0,0.5,95,220.0
304,C4,115.0,1.0,95,220.0
305,C4,116.0,667/1000,95,220.0
306,E4,116.0,667/1000,95,220.0
307,G4,116.0,667/1000,95,220.0
308,G3,116.0,1.0,95,220.0
309,D3,116.0,1.0,95,220.0
310,G2,116.0,1.0,95,220.0
311,C4,116.667,667/1000,95,220.0
312,E4,116.667,667/1000,95,220.0
313,G4,116.667,667/1000,95,220.0
314,B3,117.333,667/1000,95,220.0
315,D4,117.333,667/1000,95,220.0
316,F4,117.333,667/1000,95,220.0
317,F3,117.5,1.0,95,220.0
318,C3,117.5,1.0,95,220.0
319,F2,117.5,1.0,95,220.0
320,C4,118.0,667/1000,95,220.0
321,E4,118.0,667/1000,95,220.0
322,G4,118.0,667/1000,95,220.0
323,A2,118.5,23/200,95,220.0
324,E2,118.5,23/200,95,220.0
325,B3,118.667,667/1000,70,220.0
326,D4,118.667,667/1000,70,220.0
327,F4,118.667,667/1000,70,220.0
328,F4,119.0,0.5,95,220.0
329,C4,119.0,1.0,95,220.0
330,A3,119.333,667/1000,95,220.0
331,C4,119.333,667/1000,95,220.0
332,E4,119.333,667/1000,95,220.0
333,G3,120.0,333/1000,95,220.0
334,B3,120.0,333/1000,95,220.0
335,D4,120.0,333/1000,95,220.0
336,G3,120.0,1.0,95,220.0
337,D3,120.0,1.0,95,220.0
338,G2,120.0,1.0,95,220.0
339,A3,120.333,333/1000,95,220.0
340,C4,120.333,333/1000,95,220.0
341,E4,120.333,333/1000,95,220.0
342,G3,120.667,333/1000,95,220.0
343,B3,120.667,333/1000,95,220.0
344,D4,120.667,333/1000,95,220.0
345,F3,121.0,0.25,95,220.0
346,A3,121.0,0.25,95,220.0
347,C4,121.0,0.25,95,220.0
348,F3,121.25,0.25,95,220.0
349,A3,121.25,0.25,95,220.0
350,C4,121.25,0.25,95,220.0
351,F3,121.5,0.25,95,220.0
352,A3,121.5,0.25,95,220.0
353,C4,121.5,0.25,95,220.0
354,F3,121.5,1.0,95,220.0
355,C3,121.5,1.0,95,220.0
356,F2,121.5,1.0,95,220.0
357,F3,121.75,0.25,95,220.0
358,A3,121.75,0.25,95,220.0
359,C4,121.75,0.25,95,220.0
360,F3,122.0,0.25,95,220.0
361,A3,122.0,0.25,95,220.0
362,C4,122.0,0.25,95,220.0
363,F3,122.25,0.25,95,220.0
364,A3,122.25,0.25,95,220.0
365,C4,122.25,0.25,95,220.0
366,F3,122.5,0.25,95,220.0
367,A3,122.5,0.25,95,220.0
368,C4,122.5,0.25,95,220.0
369,A2,122.5,23/200,95,220.0
370,E2,122.5,23/200,95,220.0
371,F3,122.75,0.25,95,220.0
372,A3,122.75,0.25,95,220.0
373,C4,122.75,0.25,95,220.0
374,F4,123.0,0.5,95,220.0
375,C4,123.0,1.0,95,220.0
376,F3,123.0,0.25,95,220.0
377,A3,123.0,0.25,95,220.0
378,C4,123.0,0.25,95,220.0
379,F3,123.25,0.25,95,220.0
380,A3,123.25,0.25,95,220.0
381,C4,123.25,0.25,95,220.0
382,F3,123.5,0.25,95,220.0
383,A3,123.5,0.25,95,220.0
384,C4,123.5,0.25,95,220.0
385,F3,123.75,0.25,95,220.0
386,A3,123.75,0.25,95,220.0
387,C4,123.75,0.25,95,220.0
388,F3,124.0,0.25,95,220.0
389,A3,124.0,0.25,95,220.0
390,C4,124.0,0.25,95,220.0
391,G3,124.0,1.0,95,220.0
392,D3,124.0,1.0,95,220.0
393,G2,124.0,1.0,95,220.0
394,F3,124.25,0.25,95,220.0
395,A3,124.25,0.25,95,220.0
396,C4,124.25,0.25,95,220.0
397,F3,124.5,0.25,95,220.0
398,A3,124.5,0.25,95,220.0
399,C4,124.5,0.25,95,220.0
400,F3,124.75,0.25,95,220.0
401,A3,124.75,0.25,95,220.0
402,C4,124.75,0.25,95,220.0
403,F3,125.0,0.25,95,220.0
404,A3,125.0,0.25,95,220.0
405,C4,125.0,0.25,95,220.0
406,F3,125.25,0.25,95,220.0
407,A3,125.25,0.25,95,220.0
408,C4,125.25,0.25,95,220.0
409,F3,125.5,0.25,95,220.0
410,A3,125.5,0.25,95,220.0
411,C4,125.5,0.25,95,220.0
412,F3,125.5,1.0,95,220.0
413,C3,125.5,1.0,95,220.0
414,F2,125.5,1.0,95,220.0
415,F3,125.75,0.25,95,220.0
416,A3,125.75,0.25,95,220.0
417,C4,125.75,0.25,95,220.0
418,F3,126.0,0.25,95,220.0
419,A3,126.0,0.25,95,220.0
420,C4,126.0,0.25,95,220.0
421,F3,126.25,0.25,95,220.0
422,A3,126.25,0.25,95,220.0
423,C4,126.25,0.25,95,220.0
424,F3,126.5,0.25,95,220.0
425,B3,126.5,0.5,95,220.0
426,A3,126.5,0.25,95,220.0
427,D4,126.5,0.5,95,220.0
428,C4,126.5,0.25,95,220.0
429,A4,126.5,0.5,95,220.0
430,A2,126.5,23/200,95,220.0
431,E2,126.5,23/200,95,220.0
432,F3,126.75,0.25,95,220.0
433,A3,126.75,0.25,95,220.0
434,C4,126.75,0.25,95,220.0
435,F4,127.0,0.5,95,220.0
436,C4,127.0,1.0,95,220.0
437,F3,127.0,0.25,95,220.0
438,C4,127.0,1.0,95,220.0
439,A3,127.0,0.25,95,220.0
440,E4,127.0,1.0,95,220.0
441,C4,127.0,0.25,95,220.0
442,B4,127.0,1.0,95,220.0
443,F3,127.25,0.25,95,220.0
444,A3,127.25,0.25,95,220.0
445,C4,127.25,0.25,95,220.0
446,F3,127.5,0.25,95,220.0
447,A3,127.5,0.25,95,220.0
448,C4,127.5,0.25,95,220.0
449,F3,127.75,0.25,95,220.0
450,A3,127.75,0.25,95,220.0
451,C4,127.75,0.25,95,220.0
452,F3,128.0,0.25,95,220.0
453,C4,128.0,4.0,95,220.0
454,A3,128.0,0.25,95,220.0
455,E4,128.0,4.0,95,220.0
456,C4,128.0,0.25,95,220.0
457,G4,128.0,4.0,95,220.0
458,G3,128.0,1.0,95,220.0
459,D3,128.0,1.0,95,220.0
460,G2,128.0,1.0,95,220.0
461,F3,128.25,0.25,95,220.0
462,A3,128.25,0.25,95,220.0
463,C4,128.25,0.25,95,220.0
464,F3,128.5,0.25,95,220.0
465,A3,128.5,0.25,95,220.0
466,C4,128.5,0.25,95,220.0
467,F3,128.75,0.25,95,220.0
468,A3,128.75,0.25,95,220.0
469,C4,128.75,0.25,95,220.0
470,F3,129.0,0.25,95,220.0
471,A3,129.0,0.25,95,220.0
472,C4,129.0,0.25,95,220.0
473,F3,129.25,0.25,95,220.0
474,A3,129.25,0.25,95,220.0
475,C4,129.25,0.25,95,220.0
476,F3,129.5,0.25,95,220.0
477,A3,129.5,0.25,95,220.0
478,C4,129.5,0.25,95,220.0
479,F3,129.5,1.0,95,220.0
480,C3,129.5,1.0,95,220.0
481,F2,129.5,1.0,95,220.0
482,F3,129.75,0.25,95,220.0
483,A3,129.75,0.25,95,220.0
484,C4,129.75,249/1000,95,220.0
485,F3,130.0,0.25,95,220.0
486,A3,130.0,0.25,95,220.0
487,F3,130.25,249/1000,95,220.0
488,A3,130.25,249/1000,95,220.0
489,A2,130.5,23/200,95,220.0
490,E2,130.5,23/200,95,220.0
491,F4,131.0,0.5,95,220.0
492,C4,131.0,1.0,95,220.0
493,C4,132.0,667/1000,95,220.0
494,E4,132.0,667/1000,95,220.0
495,G4,132.0,667/1000,95,220.0
496,G3,132.0,1.0,95,220.0
497,D3,132.0,1.0,95,220.0
498,G2,132.0,1.0,95,220.0
499,C4,132.667,667/1000,95,220.0
500,E4,132.667,667/1000,95,220.0
501,G4,132.667,667/1000,95,220.0
502,B3,133.333,667/1000,95,220.0
503,D4,133.333,667/1000,95,220.0
504,F4,133.333,667/1000,95,220.0
505,F3,133.5,1.0,95,220.0
506,C3,133.5,1.0,95,220.0
507,F2,133.5,1.0,95,220.0
508,C4,134.0,667/1000,95,220.0
509,E4,134.0,667/1000,95,220.0
510,G4,134.0,667/1000,95,220.0
511,A2,134.5,23/200,95,220.0
512,E2,134.5,23/200,95,220.0
513,B3,134.667,667/1000,70,220.0
514,D4,134.667,667/1000,70,220.0
515,F4,134.667,667/1000,70,220.0
516,F4,135.0,0.5,95,220.0
517,C4,135.0,1.0,95,220.0
518,A3,135.333,667/1000,95,220.0
519,C4,135.333,667/1000,95,220.0
520,E4,135.333,667/1000,95,220.0
521,G3,136.0,333/1000,95,220.0
522,B3,136.0,333/1000,95,220.0
523,D4,136.0,333/1000,95,220.0
524,G3,136.0,1.0,95,220.0
525,D3,136.0,1.0,95,220.0
526,G2,136.0,1.0,95,220.0
527,A3,136.333,333/1000,95,220.0
528,C4,136.333,333/1000,95,220.0
529,E4,136.333,333/1000,95,220.0
530,G3,136.667,333/1000,95,220.0
531,B3,136.667,333/1000,95,220.0
532,D4,136.667,333/1000,95,220.0
533,F3,137.0,0.25,95,220.0
534,A3,137.0,0.25,95,220.0
535,C4,137.0,0.25,95,220.0
536,F3,137.25,0.25,95,220.0
537,A3,137.25,0.25,95,220.0
538,C4,137.25,0.25,95,220.0
539,F3,137.5,0.25,95,220.0
540,A3,137.5,0.25,95,220.0
541,C4,137.5,0.25,95,220.0
542,F3,137.5,1.0,95,220.0
543,C3,137.5,1.0,95,220.0
544,F2,137.5,1.0,95,220.0
545,F3,137.75,0.25,95,220.0
546,A3,137.75,0.25,95,220.0
547,C4,137.75,0.25,95,220.0
548,F3,138.0,0.25,95,220.0
549,A3,138.0,0.25,95,220.0
550,C4,138.0,0.25,95,220.0
551,F3,138.25,0.25,95,220.0
552,A3,138.25,0.25,95,220.0
553,C4,138.25,0.25,95,220.0
554,F3,138.5,0.25,95,220.0
555,A3,138.5,0.25,95,220.0
556,C4,138.5,0.25,95,220.0
557,A2,138.5,23/200,95,220.0
558,E2,138.5,23/200,95,220.0
559,F3,138.75,0.25,95,220.0
560,A3,138.75,0.25,95,220.0
561,C4,138.75,0.25,95,220.0
562,F4,139.0,0.5,95,220.0
563,C4,139.0,1.0,95,220.0
564,F3,139.0,0.25,95,220.0
565,A3,139.0,0.25,95,220.0
566,C4,139.0,0.25,95,220.0
567,F3,139.25,0.25,95,220.0
568,A3,139.25,0.25,95,220.0
569,C4,139.25,0.25,95,220.0
570,F3,139.5,0.25,95,220.0
571,A3,139.5,0.25,95,220.0
572,C4,139.5,0.25,95,220.0
573,F3,139.75,0.25,95,220.0
574,A3,139.75,0.25,95,220.0
575,C4,139.75,0.25,95,220.0
576,F3,140.0,0.25,95,220.0
577,A3,140.0,0.25,95,220.0
578,C4,140.0,0.25,95,220.0
579,G3,140.0,1.0,95,220.0
580,D3,140.0,1.0,95,220.0
581,G2,140.0,1.0,95,220.0
582,F3,140.25,0.25,95,220.0
583,A3,140.25,0.25,95,220.0
584,C4,140.25,0.25,95,220.0
585,F3,140.5,0.25,95,220.0
586,A3,140.5,0.25,95,220.0
587,C4,140.5,0.25,95,220.0
588,F3,140.75,0.25,95,220.0
589,A3,140.75,0.25,95,220.0
590,C4,140.75,0.25,95,220.0
591,F3,141.0,0.25,95,220.0
592,A3,141.0,0.25,95,220.0
593,C4,141.0,0.25,95,220.0
594,F3,141.25,0.25,95,220.0
595,A3,141.25,0.25,95,220.0
596,C4,141.25,0.25,95,220.0
597,F3,141.5,0.25,95,220.0
598,A3,141.5,0.25,95,220.0
599,C4,141.5,0.25,95,220.0
600,F3,141.5,1.0,95,220.0
601,C3,141.5,1.0,95,220.0
602,F2,141.5,1.0,95,220.0
603,F3,141.75,0.25,95,220.0
604,A3,141.75,0.25,95,220.0
605,C4,141.75,0.25,95,220.0
606,F3,142.0,0.25,95,220.0
607,A3,142.0,0.25,95,220.0
608,C4,142.0,0.25,95,220.0
609,C4,142.0,0.5,95,220.0
610,F3,142.25,0.25,95,220.0
611,A3,142.25,0.25,95,220.0
612,C4,142.25,0.25,95,220.0
613,F3,142.5,0.25,95,220.0
614,B3,142.5,0.5,95,220.0
615,A3,142.5,0.25,95,220.0
616,D4,142.5,0.5,95,220.0
617,C4,142.5,0.25,95,220.0
618,F4,142.5,0.5,95,220.0
619,A2,142.5,23/200,95,220.0
620,E2,142.5,23/200,95,220.0
621,F3,142.75,0.25,95,220.0
622,A3,142.75,0.25,95,220.0
623,C4,142.75,0.25,95,220.0
624,F4,143.0,0.5,95,220.0
625,C4,143.0,1.0,95,220.0
626,F3,143.0,0.25,95,220.0
627,C4,143.0,0.5,95,220.0
628,A3,143.0,0.25,95,220.0
629,E4,143.0,0.5,95,220.0
630,C4,143.0,0.25,95,220.0
631,G4,143.0,0.5,95,220.0
632,F3,143.25,0.25,95,220.0
633,A3,143.25,0.25,95,220.0
634,C4,143.25,0.25,95,220.0
635,F3,143.5,0.25,95,220.0
636,D4,143.5,0.5,95,220.0
637,A3,143.5,0.25,95,220.0
638,F4,143.5,0.5,95,220.0
639,C4,143.5,0.25,95,220.0
640,A4,143.5,0.5,95,220.0
641,F3,143.75,0.25,95,220.0
642,A3,143.75,0.25,95,220.0
643,C4,143.75,0.25,95,220.0
644,F3,144.0,0.25,95,220.0
645,A3,144.0,0.25,95,220.0
646,C4,144.0,0.25,95,220.0
647,G3,144.0,1.0,95,220.0
648,D3,144.0,1.0,95,220.0
649,G2,144.0,1.0,95,220.0
650,F3,144.25,0.25,95,220.0
651,A3,144.25,0.25,95,220.0
652,C4,144.25,0.25,95,220.0
653,F3,144.5,0.25,95,220.0
654,C4,144.5,0.5,95,220.0
655,A3,144.5,0.25,95,220.0
656,E4,144.5,0.5,95,220.0
657,C4,144.5,0.25,95,220.0
658,G4,144.5,0.5,95,220.0
659,F3,144.75,0.25,95,220.0
660,A3,144.75,0.25,95,220.0
661,C4,144.75,0.25,95,220.0
662,F3,145.0,0.25,95,220.0
663,A3,145.0,0.25,95,220.0
664,C4,145.0,0.25,95,220.0
665,F3,145.25,0.25,95,220.0
666,A3,145.25,0.25,95,220.0
667,C4,145.25,0.25,95,220.0
668,F3,145.5,0.25,95,220.0
669,D4,145.5,0.5,95,220.0
670,A3,145.5,0.25,95,220.0
671,F4,145.5,0.5,95,220.0
672,C4,145.5,0.25,95,220.0
673,A4,145.5,0.5,95,220.0
674,F3,145.5,1.0,95,220.0
675,C3,145.5,1.0,95,220.0
676,F2,145.5,1.0,95,220.0
677,F3,145.75,0.25,95,220.0
678,A3,145.75,0.25,95,220.0
679,C4,145.75,249/1000,95,220.0
680,F3,146.0,0.25,95,220.0
681,A3,146.0,0.25,95,220.0
682,F3,146.25,249/1000,95,220.0
683,A3,146.25,249/1000,95,220.0
684,E4,146.5,0.5,95,220.0
685,G4,146.5,0.5,95,220.0
686,B4,146.5,0.5,95,220.0
687,A2,146.5,23/200,95,220.0
688,E2,146.5,23/200,95,220.0
689,F4,147.0,0.5,95,220.0
690,C4,147.0,1.0,95,220.0
691,F4,147.5,0.5,95,220.0
692,A4,147.5,0.5,95,220.0
693,C5,147.5,0.5,95,220.0
694,G3,148.0,1.0,95,220.0
695,D3,148.0,1.0,95,220.0
696,G2,148.0,1.0,95,220.0
697,E4,148.5,0.5,95,220.0
698,G4,148.5,0.5,95,220.0
699,B4,148.5,0.5,95,220.0
700,F4,149.5,0.5,95,220.0
701,A4,149.5,0.5,95,220.0
702,C5,149.5,0.5,95,220.0
703,F3,149.5,1.0,95,220.0
704,C3,149.5,1.0,95,220.0
705,F2,149.5,1.0,95,220.0
706,G4,150.5,0.5,95,220.0
707,B4,150.5,0.5,95,220.0
708,D5,150.5,0.5,95,220.0
709,A2,150.5,23/200,95,220.0
710,E2,150.5,23/200,95,220.0
711,F4,151.0,0.5,95,220.0
712,C4,151.0,1.0,95,220.0
713,A4,151.5,0.5,95,220.0
714,C5,151.5,0.5,95,220.0
715,E5,151.5,0.5,95,220.0
716,G3,152.0,1.0,95,220.0
717,D3,152.0,1.0,95,220.0
718,G2,152.0,1.0,95,220.0
719,G4,152.5,0.5,95,220.0
720,B4,152.5,0.5,95,220.0
721,D5,152.5,0.5,95,220.0
722,F4,153.0,0.5,95,220.0
723,A4,153.0,0.5,95,220.0
724,C5,153.0,0.5,95,220.0
725,D4,153.5,0.25,95,220.0
726,F4,153.5,0.25,95,220.0
727,A4,153.5,0.25,95,220.0
728,F3,153.5,1.0,95,220.0
729,C3,153.5,1.0,95,220.0
730,F2,153.5,1.0,95,220.0
731,D4,153.75,0.25,95,220.0
732,F4,153.75,0.25,95,220.0
733,A4,153.75,0.25,95,220.0
734,D4,154.0,0.25,95,220.0
735,F4,154.0,0.25,95,220.0
736,A4,154.0,0.25,95,220.0
737,D4,154.25,0.25,95,220.0
738,F4,154.25,0.25,95,220.0
739,A4,154.25,0.25,95,220.0
740,D4,154.5,0.25,95,220.0
741,F4,154.5,0.25,95,220.0
742,A4,154.5,0.25,95,220.0
743,A2,154.5,23/200,95,220.0
744,E2,154.5,23/200,95,220.0
745,D4,154.75,0.25,95,220.0
746,F4,154.75,0.25,95,220.0
747,A4,154.75,0.25,95,220.0
748,F4,155.0,0.5,95,220.0
749,C4,155.0,1.0,95,220.0
750,D4,155.0,0.25,95,220.0
751,F4,155.0,0.25,95,220.0
752,A4,155.0,0.25,95,220.0
753,D4,155.25,0.25,95,220.0
754,F4,155.25,0.25,95,220.0
755,A4,155.25,0.25,95,220.0
756,D4,155.5,0.25,95,220.0
757,F4,155.5,0.25,95,220.0
758,A4,155.5,0.25,95,220.0
759,D4,155.75,0.25,95,220.0
760,F4,155.75,249/1000,95,220.0
761,A4,155.75,0.25,95,220.0
762,D4,156.0,0.25,95,220.0
763,F4,156.0,3.0,95,220.0
764,A4,156.0,0.25,95,220.0
765,G3,156.0,1.0,95,220.0
766,D3,156.0,1.0,95,220.0
767,G2,156.0,1.0,95,220.0
768,D4,156.25,0.25,95,220.0
769,A4,156.25,0.25,95,220.0
770,D4,156.5,0.25,95,220.0
771,A4,156.5,0.25,95,220.0
772,D4,156.75,0.25,95,220.0
773,A4,156.75,0.25,95,220.0
774,D4,157.0,0.25,95,220.0
775,A4,157.0,0.25,95,220.0
776,D4,157.25,0.25,95,220.0
777,A4,157.25,0.25,95,220.0
778,D4,157.5,0.25,95,220.0
779,A4,157.5,0.25,95,220.0
780,F3,157.5,1.0,95,220.0
781,C3,157.5,1.0,95,220.0
782,F2,157.5,1.0,95,220.0
783,D4,157.75,0.25,95,220.0
784,A4,157.75,0.25,95,220.0
785,D4,158.0,0.25,95,220.0
786,A4,158.0,0.25,95,220.0
787,D4,158.25,0.25,95,220.0
788,A4,158.25,0.25,95,220.0
789,D4,158.5,0.25,95,220.0
790,A4,158.5,0.25,95,220.0
791,A2,158.5,23/200,95,220.0
792,E2,158.5,23/200,95,220.0
793,D4,158.75,249/1000,95,220.0
794,A4,158.75,249/1000,95,220.0
795,F4,159.0,0.5,95,220.0
796,C4,159.0,1.0,95,220.0
797,G4,160.0,667/1000,95,220.0
798,B4,160.0,667/1000,95,220.0
799,D5,160.0,667/1000,95,220.0
800,G3,160.0,1.0,95,220.0
801,D3,160.0,1.0,95,220.0
802,G2,160.0,1.0,95,220.0
803,F4,160.667,667/1000,95,220.0
804,A4,160.667,667/1000,95,220.0
805,C5,160.667,667/1000,95,220.0
806,E4,161.333,667/1000,95,220.0
807,G4,161.333,667/1000,95,220.0
808,B4,161.333,667/1000,95,220.0
809,F3,161.5,1.0,95,220.0
810,C3,161.5,1.0,95,220.0
811,F2,161.5,1.0,95,220.0
812,D4,162.0,0.25,95,220.0
813,F4,162.0,0.25,95,220.0
814,A4,162.0,0.25,95,220.0
815,D4,162.25,0.25,95,220.0
816,F4,162.25,0.25,95,220.0
817,A4,162.25,0.25,95,220.0
818,D4,162.5,0.25,95,220.0
819,F4,162.5,0.25,95,220.0
820,A4,162.5,0.25,95,220.0
821,A2,162.5,23/200,95,220.0
822,E2,162.5,23/200,95,220.0
823,D4,162.75,0.25,95,220.0
824,F4,162.75,0.25,95,220.0
825,A4,162.75,0.25,95,220.0
826,F4,163.0,0.5,95,220.0
827,C4,163.0,1.0,95,220.0
828,D4,163.0,0.25,95,220.0
829,F4,163.0,0.25,95,220.0
830,A4,163.0,0.25,95,220.0
831,D4,163.25,0.25,95,220.0
832,F4,163.25,0.25,95,220.0
833,A4,163.25,0.25,95,220.0
834,D4,163.5,0.25,95,220.0
835,F4,163.5,0.25,95,220.0
836,A4,163.5,0.25,95,220.0
837,D4,163.75,249/1000,95,220.0
838,F4,163.75,249/1000,95,220.0
839,A4,163.75,249/1000,95,220.0
840,G3,164.0,1.0,106,220.0
841,D3,164.0,1.0,106,220.0
842,G2,164.0,1.0,106,220.0
843,B-2,165.5,0.5,95,220.0
844,B2,166.0,0.5,95,220.0
845,D3,166.5,0.5,95,220.0
846,B2,167.0,0.5,95,220.0
847,A2,167.5,0.5,95,220.0
848,G2,168.0,4.0,95,220.0
849,G2,172.0,4.0,95,220.0
850,G2,176.0,4.0,95,220.0
851,G2,180.0,1.5,95,220.0
852,B-2,181.5,0.5,95,220.0
853,B2,182.0,0.5,95,220.0
854,D3,182.5,0.5,95,220.0
855,E3,183.0,0.5,95,220.0
856,D3,183.5,0.5,95,220.0
857,G3,184.0,4.0,95,220.0
858,D3,184.0,4.0,95,220.0
859,G2,184.0,4.0,95,220.0
860,G3,195.0,4.0,95,220.0
861,D3,195.0,4.0,95,220.0
862,G2,195.0,4.0,95,220.0
863,G3,202.0,3.0,95,220.0
864,D3,202.0,3.0,95,220.0
865,G2,202.0,3.0,95,220.0
866,D5,206.0,1.0,101,220.0
867,A4,206.0,1.0,101,220.0
868,E4,206.0,1.0,101,220.0
869,B3,206.0,1.0,101,220.0
870,G3,206.0,1.0,101,220.0
871,G2,210.0,1.0,95,220.0
872,B-2,211.5,0.5,95,220.0
873,B2,212.0,0.5,95,220.0
874,D3,212.5,0.5,95,220.0
875,E3,213.0,1.0,95,220.0
876,G2,214.0,1.0,95,220.0
877,B-2,215.5,0.5,95,220.0
878,B2,216.0,0.5,95,220.0
879,D3,216.5,0.5,95,220.0
880,E3,217.0,1.0,95,220.0
881,G2,218.0,1.0,95,220.0
882,B-2,219.5,0.5,95,220.0
883,B2,220.0,0.5,95,220.0
884,D3,220.5,0.5,95,220.0
885,E3,221.0,1.0,95,220.0
886,G2,222.0,1.0,95,220.0
887,B-2,223.5,0.5,95,220.0
888,B2,224.0,0.5,95,220.0
889,D3,224.5,0.5,95,220.0
890,E3,225.0,1.0,95,220.0
891,C3,226.0,1.0,95,220.0
892,E-3,227.5,0.5,95,220.0
893,E3,228.0,0.5,95,220.0
894,G3,228.5,0.5,95,220.0
895,A3,229.0,1.0,95,220.0
896,C3,230.0,1.0,95,220.0
897,E-3,231.5,0.5,95,220.0
898,E3,232.0,0.5,95,220.0
899,G3,232.5,0.5,95,220.0
900,A3,233.0,1.0,95,220.0
901,G2,234.0,1.0,95,220.0
902,B-2,235.5,0.5,95,220.0
903,B2,236.0,0.5,95,220.0
904,D3,236.5,0.5,95,220.0
905,E3,237.0,1.0,95,220.0
906,G2,238.0,1.0,95,220.0
907,B-2,239.5,0.5,95,220.0
908,B2,240.0,0.5,95,220.0
909,D3,240.5,0.5,95,220.0
910,E3,241.0,1.0,95,220.0
911,E-3,242.0,1.0,95,220.0
912,G3,243.5,1.0,95,220.0
913,B-3,244.5,0.5,95,220.0
914,E-3,245.0,1.0,95,220.0
915,A3,246.0,1.0,95,220.0
916,A3,247.5,0.5,95,220.0
917,B-3,248.0,0.5,70,220.0
918,A3,248.5,0.5,70,220.0
919,F3,249.0,1.0,95,220.0
920,D3,250.0,1.0,95,220.0
921,F3,251.5,1.0,95,220.0
922,G3,252.5,0.5,95,220.0
923,C3,253.0,1.0,95,220.0
924,F3,254.0,1.0,95,220.0
925,F3,255.5,1.0,95,220.0
926,G3,256.5,0.5,95,220.0
927,D3,257.0,1.0,95,220.0
928,E-3,258.0,1.0,95,220.0
929,G3,259.5,1.0,95,220.0
930,B-3,260.5,0.5,95,220.0
931,G#3,261.0,1.0,95,220.0
932,F3,262.0,1.0,95,220.0
933,A3,263.5,1.0,95,220.0
934,C4,264.5,0.5,95,220.0
935,F3,265.0,1.0,95,220.0
936,G2,266.0,1.0,95,220.0
937,B-2,267.5,0.5,95,220.0
938,B2,268.0,0.5,95,220.0
939,D3,268.5,0.5,95,220.0
940,E3,269.0,1.0,95,220.0
941,G2,270.0,1.0,95,220.0
942,B-2,271.5,0.5,95,220.0
943,B2,272.0,0.5,95,220.0
944,D3,272.5,0.5,95,220.0
945,E3,273.0,1.0,95,220.0
946,G2,274.0,1.0,95,220.0
947,B-2,275.5,0.5,95,220.0
948,B2,276.0,0.5,95,220.0
949,D3,276.5,0.5,95,220.0
950,E3,277.0,1.0,95,220.0
951,G2,278.0,1.0,95,220.0
952,B-2,279.5,0.5,95,220.0
953,B2,280.0,0.5,95,220.0
954,D3,280.5,0.5,95,220.0
955,E3,281.0,1.0,95,220.0
956,G2,282.0,1.0,95,220.0
957,B-2,283.5,0.5,95,220.0
958,B2,284.0,0.5,95,220.0
959,D3,284.5,0.5,95,220.0
960,E3,285.0,1.0,95,220.0
961,G2,286.0,1.0,95,220.0
962,B-2,287.5,0.5,95,220.0
963,B2,288.0,0.5,95,220.0
964,D3,288.5,0.5,95,220.0
965,E3,289.0,1.0,95,220.0
966,C3,290.0,1.0,95,220.0
967,E-3,291.5,0.5,95,220.0
968,E3,292.0,0.5,95,220.0
969,G3,292.5,0.5,95,220.0
970,A3,293.0,1.0,95,220.0
971,C3,294.0,1.0,95,220.0
972,E-3,295.5,0.5,95,220.0
973,E3,296.0,0.5,95,220.0
974,G3,296.5,0.5,95,220.0
975,A3,297.0,1.0,95,220.0
976,G2,298.0,1.0,95,220.0
977,B-2,299.5,0.5,95,220.0
978,B2,300.0,0.5,95,220.0
979,D3,300.5,0.5,95,220.0
980,E3,301.0,1.0,95,220.0
981,G2,302.0,1.0,95,220.0
982,B-2,303.5,0.5,95,220.0
983,B2,304.0,0.5,95,220.0
984,D3,304.5,0.5,95,220.0
985,E3,305.0,1.0,95,220.0
986,E-3,306.0,1.0,95,220.0
987,G3,307.5,1.0,95,220.0
988,B-3,308.5,0.5,95,220.0
989,E-3,309.0,1.0,95,220.0
990,A3,310.0,1.0,95,220.0
991,A3,311.5,0.5,95,220.0
992,B-3,312.0,0.5,70,220.0
993,A3,312.5,0.5,70,220.0
994,F3,313.0,1.0,95,220.0
995,D3,314.0,1.0,95,220.0
996,F3,315.5,1.0,95,220.0
997,G3,316.5,0.5,95,220.0
998,C3,317.0,1.0,95,220.0
999,F3,318.0,1.0,95,220.0
1000,F3,319.5,1.0,95,220.0
1001,G3,320.5,0.5,95,220.0
1002,D3,321.0,1.0,95,220.0
1003,E-3,322.0,1.0,95,220.0
1004,G3,323.5,1.0,95,220.0
1005,B-3,324.5,0.5,95,220.0
1006,G#3,325.0,1.0,95,220.0
1007,F3,326.0,1.0,95,220.0
1008,A3,327.5,1.0,95,220.0
1009,C4,328.5,0.5,95,220.0
1010,F3,329.0,1.0,95,220.0
1011,G2,330.0,1.0,95,220.0
1012,B-2,331.5,0.5,95,220.0
1013,B2,332.0,0.5,95,220.0
1014,D3,332.5,0.5,95,220.0
1015,E3,333.0,1.0,95,220.0
1016,G2,334.0,1.0,95,220.0
1017,B-2,335.5,0.5,95,220.0
1018,B2,336.0,0.5,95,220.0
1019,D3,336.5,0.5,95,220.0
1020,E3,337.0,1.0,95,220.0
1021,G2,338.0,1.0,95,220.0
1022,B-2,339.5,0.5,95,220.0
1023,B2,340.0,0.5,95,220.0
1024,D3,340.5,0.5,95,220.0
1025,E3,341.0,1.0,95,220.0
1026,G2,342.0,1.0,95,220.0
1027,D4,342.5,0.5,95,220.0
1028,E4,343.0,333/1000,95,220.0
1029,F4,343.333,333/1000,70,220.0
1030,B-2,343.5,0.5,95,220.0
1031,E4,343.667,333/1000,70,220.0
1032,D4,344.0,0.5,95,220.0
1033,B2,344.0,0.5,95,220.0
1034,G4,344.5,0.5,95,220.0
1035,D3,344.5,0.5,95,220.0
1036,E3,345.0,1.0,95,220.0
1037,D4,345.5,0.5,95,220.0
1038,G4,346.0,1.0,95,220.0
1039,G2,346.0,333/1000,95,220.0
1040,G2,346.333,333/1000,95,220.0
1041,G2,346.667,333/1000,95,220.0
1042,B2,347.0,333/1000,95,220.0
1043,B2,347.333,333/1000,95,220.0
1044,G4,347.5,0.5,95,220.0
1045,B2,347.667,333/1000,95,220.0
1046,D3,348.0,333/1000,95,220.0
1047,D3,348.333,333/1000,95,220.0
1048,F4,348.5,0.5,95,220.0
1049,D3,348.667,333/1000,95,220.0
1050,E3,349.0,333/1000,95,220.0
1051,E3,349.333,333/1000,95,220.0
1052,D4,349.5,0.5,95,220.0
1053,E3,349.667,333/1000,95,220.0
1054,F3,350.0,333/1000,95,220.0
1055,F3,350.333,333/1000,95,220.0
1056,G3,350.5,0.5,95,220.0
1057,F3,350.667,333/1000,95,220.0
1058,C4,351.0,1.0,95,220.0
1059,E3,351.0,333/1000,95,220.0
1060,E3,351.333,333/1000,95,220.0
1061,E3,351.667,333/1000,95,220.0
1062,B-3,352.0,0.5,95,220.0
1063,D3,352.0,333/1000,95,220.0
1064,D3,352.333,333/1000,95,220.0
1065,B3,352.5,0.5,70,220.0
1066,D3,352.667,333/1000,95,220.0
1067,G3,353.0,0.5,95,220.0
1068,B2,353.0,333/1000,95,220.0
1069,B2,353.333,333/1000,95,220.0
1070,D3,353.5,0.5,95,220.0
1071,B2,353.667,333/1000,95,220.0
1072,F3,354.0,0.5,95,220.0
1073,G2,354.0,1.0,95,220.0
1074,G3,354.5,0.5,95,220.0
1075,B-2,355.5,0.5,95,220.0
1076,B2,356.0,0.5,95,220.0
1077,G3,356.5,0.5,95,220.0
1078,D3,356.5,0.5,95,220.0
1079,C3,357.0,333/1000,95,220.0
1080,E3,357.0,1.0,95,220.0
1081,C#3,357.333,333/1000,70,220.0
1082,D3,357.667,333/1000,70,220.0
1083,F3,358.0,333/1000,95,220.0
1084,G2,358.0,1.0,95,220.0
1085,F#3,358.333,333/1000,70,220.0
1086,G3,358.667,333/1000,70,220.0
1087,B-3,359.0,333/1000,95,220.0
1088,B3,359.333,333/1000,70,220.0
1089,B-2,359.5,0.5,95,220.0
1090,C4,359.667,333/1000,70,220.0
1091,D4,360.0,333/1000,95,220.0
1092,B2,360.0,0.5,95,220.0
1093,E-4,360.333,333/1000,70,220.0
1094,D3,360.5,0.5,95,220.0
1095,E4,360.667,333/1000,70,220.0
1096,D4,361.0,333/1000,95,220.0
1097,E3,361.0,1.0,95,220.0
1098,E-4,361.333,333/1000,70,220.0
1099,E4,361.667,333/1000,70,220.0
1100,A4,362.0,0.5,95,220.0
1101,G2,362.0,1.0,95,220.0
1102,G4,362.5,0.5,95,220.0
1103,E4,363.5,0.5,95,220.0
1104,B-2,363.5,0.5,95,220.0
1105,B2,364.0,0.5,95,220.0
1106,A4,364.5,0.5,95,220.0
1107,D3,364.5,0.5,95,220.0
1108,E3,365.0,1.0,95,220.0
1109,G4,365.5,0.5,95,220.0
1110,A4,366.0,333/1000,95,220.0
1111,G2,366.0,1.0,95,220.0
1112,B-4,366.333,333/1000,70,220.0
1113,A4,366.667,333/1000,70,220.0
1114,G4,367.0,0.5,95,220.0
1115,E4,367.5,0.5,95,220.0
1116,B-2,367.5,0.5,95,220.0
1117,A4,368.0,0.5,95,220.0
1118,B2,368.0,0.5,95,220.0
1119,G#4,368.5,0.5,95,220.0
1120,D3,368.5,0.5,95,220.0
1121,G4,369.0,0.5,95,220.0
1122,E3,369.0,1.0,95,220.0
1123,D4,369.5,0.5,47,220.0
1124,F4,370.0,0.5,95,220.0
1125,C3,370.0,1.0,95,220.0
1126,D4,370.5,0.5,70,220.0
1127,E4,371.0,0.5,95,220.0
1128,E-4,371.5,0.5,95,220.0
1129,E-3,371.5,0.5,95,220.0
1130,D4,372.0,0.5,95,220.0
1131,E3,372.0,0.5,95,220.0
1132,C4,372.5,0.5,95,220.0
1133,G3,372.5,0.5,95,220.0
1134,B3,373.0,0.5,95,220.0
1135,A3,373.0,1.0,95,220.0
1136,B-3,373.5,0.5,95,220.0
1137,B3,374.0,0.5,95,220.0
1138,C3,374.0,1.0,95,220.0
1139,G3,374.5,1.5,95,220.0
1140,E-3,375.5,0.5,95,220.0
1141,F3,376.0,333/1000,95,220.0
1142,E3,376.0,0.5,95,220.0
1143,F#3,376.333,333/1000,70,220.0
1144,G3,376.5,0.5,95,220.0
1145,G3,376.667,333/1000,70,220.0
1146,B-3,377.0,1.0,95,220.0
1147,A3,377.0,1.0,95,220.0
1148,G3,378.0,0.5,95,220.0
1149,G2,378.0,1.0,95,220.0
1150,E-3,378.5,0.5,95,220.0
1151,D3,379.5,0.5,95,220.0
1152,B-2,379.5,0.5,95,220.0
1153,C#3,380.0,0.5,95,220.0
1154,B2,380.0,0.5,95,220.0
1155,A2,380.5,0.5,95,220.0
1156,D3,380.5,0.5,95,220.0
1157,E3,381.0,1.0,95,220.0
1158,A2,381.5,0.5,95,220.0
1159,B2,382.0,0.5,95,220.0
1160,G2,382.0,1.0,95,220.0
1161,C#3,382.5,0.5,95,220.0
1162,E3,383.0,0.5,95,220.0
1163,D3,383.5,0.5,95,220.0
1164,B-2,383.5,0.5,95,220.0
1165,D3,384.0,0.5,95,220.0
1166,B2,384.0,0.5,95,220.0
1167,D3,384.5,0.5,95,220.0
1168,C3,385.0,0.5,95,220.0
1169,E3,385.0,1.0,95,220.0
1170,C#3,385.5,0.5,95,220.0
1171,D3,386.0,0.5,95,220.0
1172,E-3,386.0,1.0,95,220.0
1173,E3,386.5,0.5,95,220.0
1174,F3,387.0,0.5,95,220.0
1175,A3,387.5,0.5,95,220.0
1176,G3,387.5,1.0,95,220.0
1177,C4,388.0,0.5,95,220.0
1178,B3,388.5,0.5,95,220.0
1179,B-3,388.5,0.5,95,220.0
1180,B-3,389.0,0.5,95,220.0
1181,E-3,389.0,1.0,95,220.0
1182,A3,389.5,1.0,95,220.0
1183,A3,390.0,1.0,95,220.0
1184,A3,390.5,0.5,95,220.0
1185,C4,391.0,0.5,95,220.0
1186,B3,391.5,0.5,95,220.0
1187,A3,391.5,0.5,95,220.0
1188,B-3,392.0,0.5,95,220.0
1189,B-3,392.0,0.5,70,220.0
1190,A3,392.5,0.5,95,220.0
1191,A3,392.5,0.5,70,220.0
1192,B-3,393.0,0.5,95,220.0
1193,F3,393.0,1.0,95,220.0
1194,E-4,393.5,0.5,95,220.0
1195,F#4,394.0,0.5,95,220.0
1196,D3,394.0,1.0,95,220.0
1197,G4,394.5,0.5,70,220.0
1198,E-4,395.0,0.5,95,220.0
1199,G4,395.5,0.5,95,220.0
1200,F3,395.5,1.0,95,220.0
1201,B-4,396.0,0.5,95,220.0
1202,A4,396.5,0.5,95,220.0
1203,G3,396.5,0.5,95,220.0
1204,G#4,397.0,0.5,95,220.0
1205,C3,397.0,1.0,95,220.0
1206,G4,397.5,0.5,95,220.0
1207,G#4,398.0,333/1000,95,220.0
1208,F3,398.0,1.0,95,220.0
1209,A4,398.333,333/1000,70,220.0
1210,F4,398.667,333/1000,95,220.0
1211,A4,399.0,0.5,95,220.0
1212,B-4,399.5,0.5,95,220.0
1213,F3,399.5,1.0,95,220.0
1214,B4,400.0,0.5,95,220.0
1215,G4,400.5,0.5,95,220.0
1216,G3,400.5,0.5,95,220.0
1217,A4,401.0,1.0,95,220.0
1218,D3,401.0,1.0,95,220.0
1219,F4,402.0,0.5,95,220.0
1220,E-3,402.0,1.0,95,220.0
1221,G4,402.5,0.5,95,220.0
1222,D4,403.5,0.5,95,220.0
1223,G3,403.5,1.0,95,220.0
1224,F4,404.5,0.5,95,220.0
1225,B-3,404.5,0.5,95,220.0
1226,G#3,405.0,1.0,95,220.0
1227,E4,405.5,0.5,95,220.0
1228,F3,406.0,1.0,95,220.0
1229,C4,406.5,0.5,95,220.0
1230,D4,407.0,0.5,95,220.0
1231,B-3,407.5,0.5,95,220.0
1232,A3,407.5,1.0,95,220.0
1233,C4,408.5,0.5,95,220.0
1234,C#4,408.667,667/1000,95,220.0
1235,F3,409.0,1.0,95,220.0
1236,C4,409.333,667/1000,95,220.0
1237,B-3,409.875,0.125,95,220.0
1238,B3,410.0,1.0,95,220.0
1239,G2,410.0,1.0,95,220.0
1240,G3,411.0,0.5,95,220.0
1241,D3,411.5,0.5,95,220.0
1242,B-2,411.5,0.5,95,220.0
1243,F3,412.0,0.5,95,220.0
1244,B2,412.0,0.5,95,220.0
1245,D3,412.5,0.5,95,220.0
1246,D3,412.5,0.5,95,220.0
1247,C#3,413.0,0.5,95,220.0
1248,E3,413.0,1.0,95,220.0
1249,C3,413.5,0.5,95,220.0
1250,D3,414.0,0.5,95,220.0
1251,G2,414.0,1.0,95,220.0
1252,C#3,414.5,0.5,95,220.0
1253,C3,415.0,0.5,95,220.0
1254,B-2,415.5,0.5,95,220.0
1255,B-2,415.5,0.5,95,220.0
1256,B2,416.0,0.5,95,220.0
1257,B2,416.0,0.5,95,220.0
1258,G2,416.5,0.5,95,220.0
1259,D3,416.5,0.5,95,220.0
1260,F2,417.0,0.5,95,220.0
1261,E3,417.0,1.0,95,220.0
1262,G2,417.5,0.5,95,220.0
1263,B-2,418.0,0.5,95,220.0
1264,G2,418.0,1.0,95,220.0
1265,B2,418.5,0.5,95,220.0
1266,B2,419.5,0.5,95,220.0
1267,B-2,419.5,0.5,95,220.0
1268,C3,420.0,0.5,95,220.0
1269,B2,420.0,0.5,95,220.0
1270,B2,420.5,0.5,95,220.0
1271,D3,420.5,0.5,95,220.0
1272,C3,421.0,0.5,95,220.0
1273,E3,421.0,1.0,95,220.0
1274,C#3,421.5,1.0,95,220.0
1275,G2,422.0,1.0,95,220.0
1276,C#3,422.5,0.5,95,220.0
1277,D3,423.0,1.0,95,220.0
1278,B-2,423.5,0.5,95,220.0
1279,B2,424.0,0.5,95,220.0
1280,C3,424.5,0.25,95,220.0
1281,D3,424.5,0.5,95,220.0
1282,C#3,424.75,0.25,70,220.0
1283,D3,425.0,2.0,70,220.0
1284,E3,425.0,1.0,95,220.0
1285,G2,426.0,1.0,95,220.0
1286,G3,427.0,1.0,95,220.0
1287,F4,427.125,0.875,95,220.0
1288,B-4,427.25,0.75,95,220.0
1289,B-2,427.5,0.5,95,220.0
1290,G3,428.0,1.0,95,220.0
1291,F4,428.0,1.0,95,220.0
1292,B-4,428.0,1.0,95,220.0
1293,B2,428.0,0.5,95,220.0
1294,D3,428.5,0.5,95,220.0
1295,D4,429.0,2.0,95,220.0
1296,E3,429.0,1.0,95,220.0
1297,G2,430.0,1.0,95,220.0
1298,D4,430.875,0.125,95,220.0
1299,E4,431.0,1.0,95,220.0
1300,B-2,431.5,0.5,95,220.0
1301,E4,432.0,0.5,95,220.0
1302,B2,432.0,0.5,95,220.0
1303,C4,432.5,1.5,95,220.0
1304,D3,432.5,0.5,95,220.0
1305,E3,433.0,1.0,95,220.0
1306,A3,434.0,1.5,95,220.0
1307,C3,434.0,1.0,95,220.0
1308,F3,435.5,0.5,95,220.0
1309,E-3,435.5,0.5,95,220.0
1310,F3,436.0,1.0,95,220.0
1311,E3,436.0,0.5,95,220.0
1312,G3,436.5,0.5,95,220.0
1313,D3,437.0,1.5,95,220.0
1314,A3,437.0,1.0,95,220.0
1315,C3,438.0,1.0,95,220.0
1316,C3,438.5,1.5,95,220.0
1317,E-3,439.5,0.5,95,220.0
1318,B-2,440.0,1.5,95,220.0
1319,E3,440.0,0.5,95,220.0
1320,G3,440.5,0.5,95,220.0
1321,A3,441.0,1.0,95,220.0
1322,A2,441.5,1.5,95,220.0
1323,G2,442.0,1.0,95,220.0
1324,E2,443.0,1.0,95,220.0
1325,B-2,443.5,0.5,95,220.0
1326,E2,444.0,0.5,95,220.0
1327,B2,444.0,0.5,95,220.0
1328,G2,444.5,1.5,95,220.0
1329,D3,444.5,0.5,95,220.0
1330,E3,445.0,1.0,95,220.0
1331,B-2,446.0,0.5,95,220.0
1332,G2,446.0,1.0,95,220.0
1333,C3,446.5,1.5,70,220.0
1334,B-2,447.5,0.5,95,220.0
1335,E-3,448.0,1.5,95,220.0
1336,B2,448.0,0.5,95,220.0
1337,D3,448.5,0.5,95,220.0
1338,E3,449.0,1.0,95,220.0
1339,F3,449.375,0.125,95,220.0
1340,G3,449.5,1.5,95,220.0
1341,E-3,450.0,1.0,95,220.0
1342,B-3,451.0,1.0,95,220.0
1343,G3,451.5,1.0,95,220.0
1344,B-3,452.0,0.5,95,220.0
1345,B-3,452.375,0.125,95,220.0
1346,C#4,452.5,1.5,95,220.0
1347,B-3,452.5,0.5,95,220.0
1348,E-3,453.0,1.0,95,220.0
1349,E4,454.0,1.5,95,220.0
1350,A3,454.0,1.0,95,220.0
1351,G4,455.5,0.5,95,220.0
1352,A3,455.5,0.5,95,220.0
1353,G4,456.0,1.0,95,220.0
1354,B-3,456.0,0.5,70,220.0
1355,A3,456.5,0.5,70,220.0
1356,E4,456.875,0.125,95,220.0
1357,F4,457.0,1.5,95,220.0
1358,F3,457.0,1.0,95,220.0
1359,E-4,458.0,1.0,95,220.0
1360,B-3,458.0,1.0,95,220.0
1361,E-3,458.0,1.0,95,220.0
1362,D4,458.5,1.5,95,220.0
1363,C4,460.0,1.5,95,220.0
1364,B-3,461.5,1.5,95,220.0
1365,A3,461.5,0.5,95,220.0
1366,E3,461.5,0.5,95,220.0
1367,A2,461.5,0.5,95,220.0
1368,A3,462.0,0.5,95,220.0
1369,E3,462.0,0.5,95,220.0
1370,A2,462.0,0.5,95,220.0
1371,G3,463.0,1.0,95,220.0
1372,G3,464.0,0.5,95,220.0
1373,E-3,464.5,1.5,95,220.0
1374,D4,465.5,0.5,95,220.0
1375,A3,465.5,0.5,95,220.0
1376,D3,465.5,0.5,95,220.0
1377,D3,466.0,1.5,95,220.0
1378,D4,466.0,0.5,95,220.0
1379,A3,466.0,0.5,95,220.0
1380,D3,466.0,0.5,95,220.0
1381,F3,467.5,0.5,95,220.0
1382,F3,468.0,1.0,95,220.0
1383,A3,469.0,1.5,95,220.0
1384,F3,470.0,1.0,95,220.0
1385,C3,470.0,1.0,95,220.0
1386,F2,470.0,1.0,95,220.0
1387,C4,470.5,0.5,95,220.0
1388,A3,471.0,0.5,95,220.0
1389,B-3,471.5,0.5,95,220.0
1390,B3,472.0,0.5,95,220.0
1391,G3,472.5,0.5,95,220.0
1392,F3,473.0,0.5,95,220.0
1393,F#3,473.5,0.5,95,220.0
1394,E-4,473.5,0.5,95,220.0
1395,B-3,473.5,0.5,95,220.0
1396,E-3,473.5,0.5,95,220.0
1397,G3,474.0,0.5,95,220.0
1398,E-4,474.0,0.5,95,220.0
1399,B-3,474.0,0.5,95,220.0
1400,E-3,474.0,0.5,95,220.0
1401,B-3,474.5,0.5,95,220.0
1402,C4,475.0,0.5,95,220.0
1403,A3,475.5,0.5,95,220.0
1404,B3,476.0,0.5,95,220.0
1405,D4,476.5,0.5,95,220.0
1406,E4,477.0,0.5,95,220.0
1407,D4,477.5,0.5,95,220.0
1408,F4,477.5,0.5,95,220.0
1409,C4,477.5,0.5,95,220.0
1410,F3,477.5,0.5,95,220.0
1411,E4,478.0,333/1000,95,220.0
1412,F4,478.0,0.5,95,220.0
1413,C4,478.0,0.5,95,220.0
1414,F3,478.0,0.5,95,220.0
1415,F4,478.333,333/1000,70,220.0
1416,E4,478.667,333/1000,70,220.0
1417,D4,479.0,0.5,95,220.0
1418,G3,479.5,0.5,95,220.0
1419,C4,480.0,0.5,95,220.0
1420,B-3,480.5,0.5,95,220.0
1421,B3,481.0,0.5,70,220.0
1422,G3,481.5,0.5,95,220.0
1423,F#3,482.0,0.5,95,220.0
1424,G3,482.0,1.0,95,220.0
1425,D3,482.0,1.0,95,220.0
1426,G2,482.0,1.0,95,220.0
1427,F3,482.5,0.5,95,220.0
1428,D3,483.0,0.5,95,220.0
1429,C#3,483.5,0.5,95,220.0
1430,C3,484.0,0.5,95,220.0
1431,B-2,484.5,0.5,95,220.0
1432,B2,485.0,0.5,70,220.0
1433,G2,485.5,0.5,95,220.0
1434,B2,486.0,0.5,95,220.0
1435,C3,486.5,1.0,95,220.0
1436,C3,487.5,0.5,95,220.0
1437,D3,488.0,0.5,95,220.0
1438,G3,488.5,0.5,95,220.0
1439,D3,489.5,0.5,95,220.0
1440,G3,490.0,0.5,95,220.0
1441,D3,490.5,0.5,95,220.0
1442,F3,491.5,0.5,95,220.0
1443,G3,492.5,0.5,95,220.0
1444,C3,493.0,0.5,95,220.0
1445,C#3,493.5,0.5,95,220.0
1446,D3,494.0,0.5,95,220.0
1447,F3,494.5,0.5,95,220.0
1448,G3,495.0,0.5,95,220.0
1449,F3,495.5,0.25,95,220.0
1450,F#3,495.75,0.25,70,220.0
1451,F#3,496.0,0.5,70,220.0
1452,B-3,496.5,0.5,95,220.0
1453,C4,497.0,0.5,95,220.0
1454,F4,497.0,1.0,95,220.0
1455,C4,497.0,1.0,95,220.0
1456,A3,497.0,1.0,95,220.0
1457,F3,497.0,1.0,95,220.0
1458,C3,497.0,1.0,95,220.0
1459,F2,497.0,1.0,95,220.0
1460,B-3,497.5,0.5,95,220.0
1461,B3,498.0,0.5,95,220.0
1462,G2,498.0,1.0,95,220.0
1463,D4,498.5,0.5,95,220.0
1464,B-2,499.5,0.5,95,220.0
1465,B2,500.0,0.5,95,220.0
1466,G3,500.5,0.5,95,220.0
1467,D3,500.5,0.5,95,220.0
1468,C3,501.0,333/1000,95,220.0
1469,E3,501.0,1.0,95,220.0
1470,C#3,501.333,333/1000,70,220.0
1471,D3,501.667,333/1000,70,220.0
1472,F3,502.0,0.25,95,220.0
1473,G2,502.0,1.0,95,220.0
1474,F#3,502.25,0.25,95,220.0
1475,G3,502.5,0.25,95,220.0
1476,F#3,502.75,0.25,95,220.0
1477,F3,503.0,0.25,95,220.0
1478,F#3,503.25,0.25,95,220.0
1479,G3,503.5,0.25,95,220.0
1480,B-2,503.5,0.5,95,220.0
1481,G#3,503.75,0.25,95,220.0
1482,B-3,504.0,0.25,95,220.0
1483,B2,504.0,0.5,95,220.0
1484,B3,504.25,0.25,95,220.0
1485,C4,504.5,0.25,95,220.0
1486,D3,504.5,0.5,95,220.0
1487,C#4,504.75,0.25,95,220.0
1488,B-3,505.0,0.25,95,220.0
1489,E3,505.0,1.0,95,220.0
1490,B3,505.25,0.25,95,220.0
1491,C4,505.5,0.25,95,220.0
1492,C#4,505.75,0.25,95,220.0
1493,D3,506.0,0.25,95,220.0
1494,G2,506.0,1.0,95,220.0
1495,G3,506.25,0.25,95,220.0
1496,F#3,506.5,0.25,95,220.0
1497,F3,506.75,0.25,95,220.0
1498,D3,507.0,1.0,95,220.0
1499,B-2,507.5,0.5,95,220.0
1500,D3,508.0,4.0,95,220.0
1501,B2,508.0,0.5,95,220.0
1502,D3,508.5,0.5,95,220.0
1503,E3,509.0,1.0,95,220.0
1504,G2,510.0,1.0,95,220.0
1505,B-2,511.5,0.5,95,220.0
1506,D3,512.0,0.5,95,220.0
1507,B2,512.0,0.5,95,220.0
1508,G3,512.0,1.0,95,220.0
1509,D3,512.0,1.0,95,220.0
1510,G2,512.0,1.0,95,220.0
1511,F3,512.5,0.5,95,220.0
1512,D3,512.5,0.5,95,220.0
1513,E3,513.0,1.0,95,220.0
1514,D3,513.5,0.5,95,220.0
1515,F3,513.5,1.0,95,220.0
1516,C3,513.5,1.0,95,220.0
1517,F2,513.5,1.0,95,220.0
1518,F3,513.875,0.125,95,220.0
1519,G3,514.0,1.0,95,220.0
1520,C3,514.0,1.0,95,220.0
1521,A2,514.5,23/200,95,220.0
1522,E2,514.5,23/200,95,220.0
1523,F4,515.0,0.5,95,220.0
1524,C4,515.0,1.0,95,220.0
1525,B-3,515.0,0.5,95,220.0
1526,C4,515.5,0.5,95,220.0
1527,E-3,515.5,0.5,95,220.0
1528,B-3,515.875,0.125,95,220.0
1529,B3,516.0,0.5,95,220.0
1530,E3,516.0,0.5,95,220.0
1531,G3,516.0,1.0,95,220.0
1532,D3,516.0,1.0,95,220.0
1533,G2,516.0,1.0,95,220.0
1534,D4,516.5,0.5,95,220.0
1535,G3,516.5,0.5,95,220.0
1536,E4,517.0,0.5,70,220.0
1537,A3,517.0,1.0,95,220.0
1538,D4,517.5,0.5,70,220.0
1539,F3,517.5,1.0,95,220.0
1540,C3,517.5,1.0,95,220.0
1541,F2,517.5,1.0,95,220.0
1542,E4,518.0,333/1000,95,220.0
1543,C3,518.0,1.0,95,220.0
1544,F4,518.333,333/1000,70,220.0
1545,A2,518.5,23/200,95,220.0
1546,E2,518.5,23/200,95,220.0
1547,E4,518.667,333/1000,70,220.0
1548,F4,519.0,0.5,95,220.0
1549,C4,519.0,1.0,95,220.0
1550,D4,519.0,0.5,95,220.0
1551,C4,519.5,0.5,95,220.0
1552,E-3,519.5,0.5,95,220.0
1553,B3,520.0,0.5,95,220.0
1554,E3,520.0,0.5,95,220.0
1555,G3,520.0,1.0,95,220.0
1556,D3,520.0,1.0,95,220.0
1557,G2,520.0,1.0,95,220.0
1558,B-3,520.5,0.5,70,220.0
1559,G3,520.5,0.5,95,220.0
1560,C4,521.0,0.5,95,220.0
1561,A3,521.0,1.0,95,220.0
1562,B-3,521.5,0.5,70,220.0
1563,F3,521.5,1.0,95,220.0
1564,C3,521.5,1.0,95,220.0
1565,F2,521.5,1.0,95,220.0
1566,C4,522.0,0.5,95,220.0
1567,G2,522.0,1.0,95,220.0
1568,B-3,522.5,0.5,70,220.0
1569,A2,522.5,23/200,95,220.0
1570,E2,522.5,23/200,95,220.0
1571,F4,523.0,0.5,95,220.0
1572,C4,523.0,1.0,95,220.0
1573,C4,523.0,0.5,95,220.0
1574,B-3,523.5,0.5,70,220.0
1575,B-2,523.5,0.5,95,220.0
1576,C4,524.0,0.5,95,220.0
1577,B2,524.0,0.5,95,220.0
1578,G3,524.0,1.0,95,220.0
1579,D3,524.0,1.0,95,220.0
1580,G2,524.0,1.0,95,220.0
1581,B-3,524.5,0.5,70,220.0
1582,D3,524.5,0.5,95,220.0
1583,C#4,525.0,0.5,95,220.0
1584,E3,525.0,1.0,95,220.0
1585,B-3,525.5,0.5,70,220.0
1586,F3,525.5,1.0,95,220.0
1587,C3,525.5,1.0,95,220.0
1588,F2,525.5,1.0,95,220.0
1589,C#4,526.0,0.5,95,220.0
1590,G2,526.0,1.0,95,220.0
1591,B-3,526.5,0.5,70,220.0
1592,A2,526.5,23/200,95,220.0
1593,E2,526.5,23/200,95,220.0
1594,F4,527.0,0.5,95,220.0
1595,C4,527.0,1.0,95,220.0
1596,C#4,527.0,0.5,95,220.0
1597,C4,527.5,0.5,95,220.0
1598,B-2,527.5,0.5,95,220.0
1599,C3,528.0,1.0,95,220.0
1600,D4,528.0,0.5,95,220.0
1601,B2,528.0,0.5,95,220.0
1602,C4,528.5,0.5,70,220.0
1603,D3,528.5,0.5,95,220.0
1604,D4,529.0,0.5,95,220.0
1605,E3,529.0,1.0,95,220.0
1606,E-3,529.5,0.5,95,220.0
1607,C4,529.5,0.5,70,220.0
1608,E3,530.0,0.5,95,220.0
1609,D4,530.0,0.5,95,220.0
1610,E-3,530.0,1.0,95,220.0
1611,G3,530.5,0.5,95,220.0
1612,E4,530.5,0.5,95,220.0
1613,A3,531.0,1.0,95,220.0
1614,F4,531.0,0.5,95,220.0
1615,E4,531.5,0.5,70,220.0
1616,G3,531.5,1.0,95,220.0
1617,C3,532.0,1.0,95,220.0
1618,F4,532.0,0.5,95,220.0
1619,E4,532.5,0.5,70,220.0
1620,B-3,532.5,0.5,95,220.0
1621,F4,533.0,0.5,95,220.0
1622,E-3,533.0,1.0,95,220.0
1623,E-3,533.5,0.5,95,220.0
1624,E4,533.5,0.5,70,220.0
1625,E3,534.0,0.5,95,220.0
1626,G4,534.0,0.5,95,220.0
1627,A3,534.0,1.0,95,220.0
1628,G3,534.5,0.5,95,220.0
1629,F4,534.5,0.5,70,220.0
1630,A3,535.0,1.0,95,220.0
1631,G4,535.0,0.5,95,220.0
1632,F4,535.5,0.5,70,220.0
1633,A3,535.5,0.5,95,220.0
1634,G2,536.0,1.0,95,220.0
1635,G4,536.0,0.5,95,220.0
1636,B-3,536.0,0.5,70,220.0
1637,B-4,536.5,0.5,95,220.0
1638,A3,536.5,0.5,70,220.0
1639,G4,537.0,0.5,95,220.0
1640,F3,537.0,1.0,95,220.0
1641,B-2,537.5,0.5,95,220.0
1642,B-4,537.5,0.5,95,220.0
1643,B2,538.0,0.5,95,220.0
1644,C5,538.0,0.5,95,220.0
1645,D3,538.0,1.0,95,220.0
1646,D3,538.5,0.5,95,220.0
1647,C#5,538.5,0.5,70,220.0
1648,E3,539.0,1.0,95,220.0
1649,B-4,539.0,0.5,95,220.0
1650,G4,539.5,0.5,95,220.0
1651,F3,539.5,1.0,95,220.0
1652,G2,540.0,1.0,95,220.0
1653,C5,540.0,0.5,95,220.0
1654,B4,540.5,0.5,95,220.0
1655,G3,540.5,0.5,95,220.0
1656,B-4,541.0,0.5,95,220.0
1657,C3,541.0,1.0,95,220.0
1658,B-2,541.5,0.5,95,220.0
1659,A4,541.5,0.5,70,220.0
1660,B2,542.0,0.5,95,220.0
1661,A4,542.0,0.5,95,220.0
1662,F3,542.0,1.0,95,220.0
1663,D3,542.5,0.5,95,220.0
1664,B-4,542.5,0.5,95,220.0
1665,E3,543.0,1.0,95,220.0
1666,A4,543.0,0.5,95,220.0
1667,B-4,543.5,0.5,95,220.0
1668,F3,543.5,1.0,95,220.0
1669,B-4,543.875,0.125,95,220.0
1670,E-3,544.0,1.0,95,220.0
1671,B4,544.0,1.5,95,220.0
1672,G3,544.5,0.5,95,220.0
1673,D3,545.0,1.0,95,220.0
1674,G3,545.5,1.0,95,220.0
1675,A4,545.5,1.0,95,220.0
1676,E-3,546.0,1.0,95,220.0
1677,B-3,546.5,0.5,95,220.0
1678,F4,546.5,0.25,95,220.0
1679,D4,546.75,0.25,70,220.0
1680,E-3,547.0,1.0,95,220.0
1681,C4,547.0,0.5,95,220.0
1682,B-3,547.5,0.5,95,220.0
1683,G3,547.5,1.0,95,220.0
1684,A3,548.0,1.0,95,220.0
1685,B3,548.0,0.5,95,220.0
1686,G3,548.5,1.0,95,220.0
1687,B-3,548.5,0.5,95,220.0
1688,G#3,549.0,1.0,95,220.0
1689,A3,549.5,0.5,95,220.0
1690,A3,549.5,1.0,95,220.0
1691,B-3,550.0,0.5,70,220.0
1692,F3,550.0,1.0,95,220.0
1693,A3,550.5,0.5,70,220.0
1694,D3,550.5,0.5,95,220.0
1695,F3,551.0,1.0,95,220.0
1696,C3,551.0,1.0,95,220.0
1697,A3,551.5,1.0,95,220.0
1698,D3,552.0,1.0,95,220.0
1699,B2,552.0,1.0,95,220.0
1700,C4,552.5,0.5,95,220.0
1701,G2,553.0,0.5,95,220.0
1702,F3,553.0,1.0,95,220.0
1703,F3,553.5,1.0,95,220.0
1704,A2,553.5,1.0,95,220.0
1705,G2,554.0,1.0,95,220.0
1706,G3,554.5,0.5,95,220.0
1707,F2,554.5,1.0,95,220.0
1708,C3,555.0,1.0,95,220.0
1709,G2,555.5,0.5,95,220.0
1710,B-2,555.5,0.5,95,220.0
1711,F3,556.0,1.0,95,220.0
1712,G2,556.0,0.5,95,220.0
1713,B2,556.0,0.5,95,220.0
1714,E2,556.5,1.0,95,220.0
1715,D3,556.5,0.5,95,220.0
1716,E3,557.0,1.0,95,220.0
1717,F3,557.5,1.0,95,220.0
1718,F2,557.5,0.25,95,220.0
1719,F2,557.75,0.25,95,220.0
1720,F2,558.0,0.25,95,220.0
1721,G2,558.0,1.0,95,220.0
1722,F2,558.25,0.25,95,220.0
1723,G3,558.5,0.5,95,220.0
1724,F2,558.5,0.25,95,220.0
1725,F2,558.75,0.25,95,220.0
1726,D3,559.0,1.0,95,220.0
1727,F2,559.0,0.25,95,220.0
1728,F2,559.25,0.25,95,220.0
1729,F2,559.5,0.25,95,220.0
1730,B-2,559.5,0.5,95,220.0
1731,F2,559.75,249/1000,95,220.0
1732,E-3,560.0,1.0,95,220.0
1733,B2,560.0,0.5,95,220.0
1734,D3,560.5,0.5,95,220.0
1735,E3,561.0,1.0,95,220.0
1736,G3,561.5,1.0,95,220.0
1737,G2,562.0,1.0,95,220.0
1738,B-3,562.5,0.5,95,220.0
1739,G#3,563.0,1.0,95,220.0
1740,B-2,563.5,0.5,95,220.0
1741,F3,564.0,1.0,95,220.0
1742,B2,564.0,0.5,95,220.0
1743,D3,564.5,0.5,95,220.0
1744,E3,565.0,1.0,95,220.0
1745,A3,565.5,1.0,95,220.0
1746,G2,566.0,1.0,95,220.0
1747,C4,566.5,0.5,95,220.0
1748,F3,567.0,1.0,95,220.0
1749,B-2,567.5,0.5,95,220.0
1750,G2,568.0,1.0,95,220.0
1751,B2,568.0,0.5,95,220.0
1752,D3,568.5,0.5,95,220.0
1753,E3,569.0,1.0,95,220.0
1754,B-2,569.5,0.5,95,220.0
1755,B2,570.0,0.5,95,220.0
1756,D3,570.5,0.5,95,220.0
1757,E3,571.0,1.0,95,220.0
1758,G2,572.0,1.0,95,220.0
1759,B-2,573.5,0.5,95,220.0
1760,B2,574.0,0.5,95,220.0
1761,D3,574.5,0.5,95,220.0
1762,E3,575.0,1.0,95,220.0
1763,G2,576.0,1.0,95,220.0
1764,B-2,577.5,0.5,95,220.0
1765,B2,578.0,0.5,95,220.0
1766,D4,578.0,333/1000,95,220.0
1767,E4,578.333,333/1000,95,220.0
1768,D3,578.5,0.5,95,220.0
1769,F4,578.667,333/1000,95,220.0
1770,E3,579.0,1.0,95,220.0
1771,G4,579.0,333/1000,95,220.0
1772,F4,579.333,333/1000,95,220.0
1773,E4,579.667,333/1000,95,220.0
1774,G2,580.0,1.0,95,220.0
1775,D4,580.0,333/1000,95,220.0
1776,E4,580.333,333/1000,95,220.0
1777,F4,580.667,333/1000,95,220.0
1778,G4,581.0,333/1000,95,220.0
1779,F4,581.333,333/1000,95,220.0
1780,B-2,581.5,0.5,95,220.0
1781,E4,581.667,333/1000,95,220.0
1782,B2,582.0,0.5,95,220.0
1783,D4,582.0,333/1000,95,220.0
1784,E4,582.333,333/1000,95,220.0
1785,D3,582.5,0.5,95,220.0
1786,F4,582.667,333/1000,95,220.0
1787,E3,583.0,1.0,95,220.0
1788,G4,583.0,333/1000,95,220.0
1789,F4,583.333,333/1000,95,220.0
1790,E4,583.667,333/1000,95,220.0
1791,D4,584.0,333/1000,95,220.0
1792,E4,584.333,333/1000,95,220.0
1793,F4,584.667,333/1000,95,220.0
1794,G4,585.0,333/1000,95,220.0
1795,F4,585.333,333/1000,95,220.0
1796,E4,585.667,333/1000,95,220.0
1797,D4,586.0,1.0,95,220.0
1798,G3,592.0,1.0,95,220.0
1799,D3,592.0,1.0,95,220.0
1800,G3,593.5,1.0,95,220.0
1801,D3,593.5,1.0,95,220.0
1802,G4,594.0,333/1000,95,220.0
1803,D4,594.0,333/1000,95,220.0
1804,A4,594.333,333/1000,95,220.0
1805,E4,594.333,333/1000,95,220.0
1806,G3,594.5,0.5,95,220.0
1807,D3,594.5,0.5,95,220.0
1808,B-4,594.667,333/1000,95,220.0
1809,F4,594.667,333/1000,95,220.0
1810,C5,595.0,333/1000,95,220.0
1811,G4,595.0,333/1000,95,220.0
1812,B-4,595.333,333/1000,95,220.0
1813,F4,595.333,333/1000,95,220.0
1814,G3,595.5,0.5,95,220.0
1815,D3,595.5,0.5,95,220.0
1816,A4,595.667,333/1000,95,220.0
1817,E4,595.667,333/1000,95,220.0
1818,G3,596.0,0.5,95,220.0
1819,D3,596.0,0.5,95,220.0
1820,G4,596.0,333/1000,95,220.0
1821,D4,596.0,333/1000,95,220.0
1822,A4,596.333,333/1000,95,220.0
1823,E4,596.333,333/1000,95,220.0
1824,G3,596.5,1.0,95,220.0
1825,D3,596.5,1.0,95,220.0
1826,B-4,596.667,333/1000,95,220.0
1827,F4,596.667,333/1000,95,220.0
1828,C5,597.0,333/1000,95,220.0
1829,G4,597.0,333/1000,95,220.0
1830,B-4,597.333,333/1000,95,220.0
1831,F4,597.333,333/1000,95,220.0
1832,G3,597.5,1.0,95,220.0
1833,D3,597.5,1.0,95,220.0
1834,A4,597.667,333/1000,95,220.0
1835,E4,597.667,333/1000,95,220.0
1836,G4,598.0,333/1000,95,220.0
1837,D4,598.0,333/1000,95,220.0
1838,A4,598.333,333/1000,95,220.0
1839,E4,598.333,333/1000,95,220.0
1840,G3,598.5,0.5,95,220.0
1841,D3,598.5,0.5,95,220.0
1842,B-4,598.667,333/1000,95,220.0
1843,F4,598.667,333/1000,95,220.0
1844,C5,599.0,333/1000,95,220.0
1845,G4,599.0,333/1000,95,220.0
1846,B-4,599.333,333/1000,95,220.0
1847,F4,599.333,333/1000,95,220.0
1848,A4,599.667,333/1000,95,220.0
1849,E4,599.667,333/1000,95,220.0
1850,G4,600.0,333/1000,95,220.0
1851,D4,600.0,333/1000,95,220.0
1852,A4,600.333,333/1000,95,220.0
1853,E4,600.333,333/1000,95,220.0
1854,B-4,600.667,333/1000,95,220.0
1855,F4,600.667,333/1000,95,220.0
1856,C5,601.0,333/1000,95,220.0
1857,G4,601.0,333/1000,95,220.0
1858,B-4,601.333,333/1000,95,220.0
1859,F4,601.333,333/1000,95,220.0
1860,A4,601.667,333/1000,95,220.0
1861,E4,601.667,333/1000,95,220.0
1862,D4,602.0,1.0,95,220.0
1863,B-3,602.0,1.0,95,220.0
1864,G3,608.0,1.0,95,220.0
1865,D3,608.0,1.0,95,220.0
1866,G3,609.5,1.0,95,220.0
1867,D3,609.5,1.0,95,220.0
1868,B4,610.0,667/1000,95,220.0
1869,G4,610.0,667/1000,95,220.0
1870,G3,610.5,0.5,95,220.0
1871,D3,610.5,0.5,95,220.0
1872,A4,610.667,667/1000,95,220.0
1873,F4,610.667,667/1000,95,220.0
1874,G4,611.333,667/1000,95,220.0
1875,E4,611.333,667/1000,95,220.0
1876,G3,611.5,0.5,95,220.0
1877,D3,611.5,0.5,95,220.0
1878,G3,612.0,0.5,95,220.0
1879,D3,612.0,0.5,95,220.0
1880,F4,612.0,667/1000,95,220.0
1881,D4,612.0,667/1000,95,220.0
1882,G3,612.5,1.0,95,220.0
1883,D3,612.5,1.0,95,220.0
1884,F4,612.667,667/1000,95,220.0
1885,D4,612.667,667/1000,95,220.0
1886,D4,613.333,667/1000,95,220.0
1887,B3,613.333,667/1000,95,220.0
1888,G3,613.5,1.0,95,220.0
1889,D3,613.5,1.0,95,220.0
1890,C4,614.0,667/1000,95,220.0
1891,A3,614.0,667/1000,95,220.0
1892,G3,614.5,0.5,95,220.0
1893,D3,614.5,0.5,95,220.0
1894,B3,614.667,667/1000,95,220.0
1895,G3,614.667,667/1000,95,220.0
1896,A3,615.333,667/1000,95,220.0
1897,F3,615.333,667/1000,95,220.0
1898,B3,616.0,0.5,95,220.0
1899,B-3,616.5,0.5,95,220.0
1900,B3,617.0,333/1000,70,220.0
1901,G3,617.333,333/1000,95,220.0
1902,F3,617.667,333/1000,95,220.0
1903,G3,624.0,1.0,95,220.0
1904,D3,624.0,1.0,95,220.0
1905,G3,625.5,1.0,95,220.0
1906,D3,625.5,1.0,95,220.0
1907,G5,626.0,333/1000,95,220.0
1908,A5,626.333,333/1000,95,220.0
1909,G3,626.5,0.5,95,220.0
1910,D3,626.5,0.5,95,220.0
1911,B-5,626.667,333/1000,95,220.0
1912,A5,627.0,333/1000,95,220.0
1913,G3,627.5,0.5,95,220.0
1914,D3,627.5,0.5,95,220.0
1915,D5,627.667,333/1000,95,220.0
1916,D5,628.0,333/1000,95,220.0
1917,G3,628.0,0.5,95,220.0
1918,D3,628.0,0.5,95,220.0
1919,E5,628.333,333/1000,70,220.0
1920,G3,628.5,1.0,95,220.0
1921,D3,628.5,1.0,95,220.0
1922,G5,628.667,333/1000,95,220.0
1923,D5,629.0,333/1000,95,220.0
1924,G3,629.5,1.0,95,220.0
1925,D3,629.5,1.0,95,220.0
1926,A4,629.667,333/1000,95,220.0
1927,A4,630.0,333/1000,95,220.0
1928,B4,630.333,333/1000,95,220.0
1929,G3,630.5,0.5,95,220.0
1930,D3,630.5,0.5,95,220.0
1931,A4,630.667,333/1000,95,220.0
1932,G4,631.0,333/1000,95,220.0
1933,A4,631.333,333/1000,95,220.0
1934,G4,631.667,333/1000,95,220.0
1935,G4,632.0,0.5,95,220.0
1936,D4,632.5,0.5,95,220.0
1937,E-4,633.5,0.5,95,220.0
1938,B-3,633.5,0.5,95,220.0
1939,E-3,633.5,0.5,95,220.0
1940,E-4,634.0,3.5,95,220.0
1941,B-3,634.0,3.5,95,220.0
1942,E-3,634.0,3.5,95,220.0
1943,A3,637.5,0.5,95,220.0
1944,E3,637.5,0.5,95,220.0
1945,A2,637.5,0.5,95,220.0
1946,A3,641.0,3.0,95,220.0
1947,E3,641.0,3.0,95,220.0
1948,A2,641.0,3.0,95,220.0
1949,A3,644.0,0.5,95,220.0
1950,E3,644.0,0.5,95,220.0
1951,A2,644.0,0.5,95,220.0
1952,D4,644.5,0.5,95,220.0
1953,A3,644.5,0.5,95,220.0
1954,D3,644.5,0.5,95,220.0
1955,D4,647.0,2.0,95,220.0
1956,A3,647.0,2.0,95,220.0
1957,D3,647.0,2.0,95,220.0
1958,F3,651.0,3.5,95,220.0
1959,C3,651.0,3.5,95,220.0
1960,F2,651.0,3.5,95,220.0
1961,E-4,654.5,0.5,95,220.0
1962,B-3,654.5,0.5,95,220.0
1963,E-3,654.5,0.5,95,220.0
1964,E-4,658.5,3.5,95,220.0
1965,B-3,658.5,3.5,95,220.0
1966,E-3,658.5,3.5,95,220.0
1967,F3,662.0,0.5,95,220.0
1968,C3,662.0,0.5,95,220.0
1969,F2,662.0,0.5,95,220.0
1970,B3,662.5,0.5,95,220.0
1971,D4,662.5,0.5,95,220.0
1972,C4,663.0,1.0,95,220.0
1973,E4,663.0,1.0,95,220.0
1974,C4,664.0,4.0,95,220.0
1975,E4,664.0,4.0,95,220.0
1976,F3,665.5,3.0,95,220.0
1977,C3,665.5,3.0,95,220.0
1978,F2,665.5,3.0,95,220.0
1979,C4,668.0,1333/1000,95,220.0
1980,E4,668.0,1333/1000,95,220.0
1981,D3,668.5,23/200,95,220.0
1982,A2,668.5,23/200,95,220.0
1983,E2,668.5,23/200,95,220.0
1984,B3,669.333,667/1000,95,220.0
1985,D4,669.333,667/1000,95,220.0
1986,C4,670.0,667/1000,95,220.0
1987,E4,670.0,667/1000,95,220.0
1988,B3,670.667,667/1000,70,220.0
1989,D4,670.667,667/1000,70,220.0
1990,A3,671.333,667/1000,95,220.0
1991,C4,671.333,667/1000,95,220.0
1992,G3,672.0,0.5,95,220.0
1993,E4,672.0,0.5,95,220.0
1994,G3,672.0,1.0,95,220.0
1995,D3,672.0,1.0,95,220.0
1996,G2,672.0,1.0,95,220.0
1997,F3,672.5,2.0,95,220.0
1998,D4,672.5,2.0,95,220.0
1999,F3,673.5,1.0,95,220.0
2000,C3,673.5,1.0,95,220.0
2001,F2,673.5,1.0,95,220.0
2002,F3,674.5,0.5,95,220.0
2003,A3,674.5,0.5,95,220.0
2004,A2,674.5,23/200,95,220.0
2005,E2,674.5,23/200,95,220.0
2006,F4,675.0,0.5,95,220.0
2007,C4,675.0,1.0,95,220.0
2008,F3,675.0,0.5,95,220.0
2009,A3,675.0,0.5,95,220.0
2010,F3,675.5,0.5,95,220.0
2011,A3,675.5,0.5,95,220.0
2012,F3,676.0,0.5,95,220.0
2013,A3,676.0,0.5,95,220.0
2014,G3,676.0,1.0,95,220.0
2015,D3,676.0,1.0,95,220.0
2016,G2,676.0,1.0,95,220.0
2017,F3,676.5,0.5,95,220.0
2018,A3,676.5,0.5,95,220.0
2019,F3,677.0,0.5,95,220.0
2020,A3,677.0,0.5,95,220.0
2021,F3,677.5,0.5,95,220.0
2022,A3,677.5,0.5,95,220.0
2023,F3,677.5,1.0,95,220.0
2024,C3,677.5,1.0,95,220.0
2025,F2,677.5,1.0,95,220.0
2026,F3,678.0,0.5,95,220.0
2027,A3,678.0,0.5,95,220.0
2028,B3,678.5,0.5,95,220.0
2029,D4,678.5,0.5,95,220.0
2030,A2,678.5,23/200,95,220.0
2031,E2,678.5,23/200,95,220.0
2032,F4,679.0,0.5,95,220.0
2033,C4,679.0,1.0,95,220.0
2034,C4,679.0,1.0,95,220.0
2035,E4,679.0,1.0,95,220.0
2036,C4,680.0,4.0,95,220.0
2037,E4,680.0,4.0,95,220.0
2038,G3,680.0,1.0,95,220.0
2039,D3,680.0,1.0,95,220.0
2040,G2,680.0,1.0,95,220.0
2041,F3,681.5,1.0,95,220.0
2042,C3,681.5,1.0,95,220.0
2043,F2,681.5,1.0,95,220.0
2044,A2,682.5,23/200,95,220.0
2045,E2,682.5,23/200,95,220.0
2046,F4,683.0,0.5,95,220.0
2047,C4,683.0,1.0,95,220.0
2048,C4,684.0,1333/1000,95,220.0
2049,E4,684.0,1333/1000,95,220.0
2050,B3,685.333,667/1000,95,220.0
2051,D4,685.333,667/1000,95,220.0
2052,C4,686.0,667/1000,95,220.0
2053,E4,686.0,667/1000,95,220.0
2054,B3,686.667,667/1000,70,220.0
2055,D4,686.667,667/1000,70,220.0
2056,A3,687.333,667/1000,95,220.0
2057,C4,687.333,667/1000,95,220.0
2058,G3,688.0,0.5,95,220.0
2059,E4,688.0,0.5,95,220.0
2060,G3,688.0,1.0,95,220.0
2061,D3,688.0,1.0,95,220.0
2062,G2,688.0,1.0,95,220.0
2063,F3,688.5,2.0,95,220.0
2064,D4,688.5,2.0,95,220.0
2065,F3,689.5,1.0,95,220.0
2066,C3,689.5,1.0,95,220.0
2067,F2,689.5,1.0,95,220.0
2068,F3,690.5,0.5,95,220.0
2069,A3,690.5,0.5,95,220.0
2070,A2,690.5,23/200,95,220.0
2071,E2,690.5,23/200,95,220.0
2072,F4,691.0,0.5,95,220.0
2073,C4,691.0,1.0,95,220.0
2074,F3,691.0,0.5,95,220.0
2075,A3,691.0,0.5,95,220.0
2076,F3,691.5,0.5,95,220.0
2077,A3,691.5,0.5,95,220.0
2078,F3,692.0,0.5,95,220.0
2079,A3,692.0,0.5,95,220.0
2080,G3,692.0,1.0,95,220.0
2081,D3,692.0,1.0,95,220.0
2082,G2,692.0,1.0,95,220.0
2083,F3,692.5,0.5,95,220.0
2084,A3,692.5,0.5,95,220.0
2085,F3,693.0,0.5,95,220.0
2086,A3,693.0,0.5,95,220.0
2087,F3,693.5,0.5,95,220.0
2088,A3,693.5,0.5,95,220.0
2089,F3,693.5,1.0,95,220.0
2090,C3,693.5,1.0,95,220.0
2091,F2,693.5,1.0,95,220.0
2092,F3,694.0,0.5,95,220.0
2093,A3,694.0,0.5,95,220.0
2094,B3,694.5,0.5,95,220.0
2095,D4,694.5,0.5,95,220.0
2096,F4,694.5,0.5,95,220.0
2097,A2,694.5,23/200,95,220.0
2098,E2,694.5,23/200,95,220.0
2099,F4,695.0,0.5,95,220.0
2100,C4,695.0,1.0,95,220.0
2101,C4,695.0,1.0,95,220.0
2102,E4,695.0,1.0,95,220.0
2103,G4,695.0,1.0,95,220.0
2104,C4,696.0,4.0,95,220.0
2105,E4,696.0,4.0,95,220.0
2106,G4,696.0,4.0,95,220.0
2107,G3,696.0,1.0,95,220.0
2108,D3,696.0,1.0,95,220.0
2109,G2,696.0,1.0,95,220.0
2110,F3,697.5,1.0,95,220.0
2111,C3,697.5,1.0,95,220.0
2112,F2,697.5,1.0,95,220.0
2113,A2,698.5,23/200,95,220.0
2114,E2,698.5,23/200,95,220.0
2115,F4,699.0,0.5,95,220.0
2116,C4,699.0,1.0,95,220.0
2117,C4,700.0,1333/1000,95,220.0
2118,E4,700.0,1333/1000,95,220.0
2119,G4,700.0,1333/1000,95,220.0
2120,G3,700.0,1.0,95,220.0
2121,D3,700.0,1.0,95,220.0
2122,G2,700.0,1.0,95,220.0
2123,B3,701.333,667/1000,95,220.0
2124,D4,701.333,667/1000,95,220.0
2125,F4,701.333,667/1000,95,220.0
2126,F3,701.5,1.0,95,220.0
2127,C3,701.5,1.0,95,220.0
2128,F2,701.5,1.0,95,220.0
2129,C4,702.0,667/1000,95,220.0
2130,E4,702.0,667/1000,95,220.0
2131,G4,702.0,667/1000,95,220.0
2132,A2,702.5,23/200,95,220.0
2133,E2,702.5,23/200,95,220.0
2134,B3,702.667,667/1000,70,220.0
2135,D4,702.667,667/1000,70,220.0
2136,F4,702.667,667/1000,70,220.0
2137,F4,703.0,0.5,95,220.0
2138,C4,703.0,1.0,95,220.0
2139,A3,703.333,667/1000,95,220.0
2140,C4,703.333,667/1000,95,220.0
2141,E4,703.333,667/1000,95,220.0
2142,G3,704.0,333/1000,95,220.0
2143,B3,704.0,333/1000,95,220.0
2144,D4,704.0,333/1000,95,220.0
2145,G3,704.0,1.0,95,220.0
2146,D3,704.0,1.0,95,220.0
2147,G2,704.0,1.0,95,220.0
2148,A3,704.333,333/1000,70,220.0
2149,C4,704.333,333/1000,70,220.0
2150,E4,704.333,333/1000,70,220.0
2151,G3,704.667,333/1000,70,220.0
2152,B3,704.667,333/1000,70,220.0
2153,D4,704.667,333/1000,70,220.0
2154,F3,705.0,1.5,95,220.0
2155,A3,705.0,1.5,70,220.0
2156,C4,705.0,1.5,70,220.0
2157,F3,705.5,1.0,95,220.0
2158,C3,705.5,1.0,95,220.0
2159,F2,705.5,1.0,95,220.0
2160,F3,706.5,0.5,95,220.0
2161,A3,706.5,0.5,95,220.0
2162,C4,706.5,0.5,95,220.0
2163,A2,706.5,23/200,95,220.0
2164,E2,706.5,23/200,95,220.0
2165,F4,707.0,0.5,95,220.0
2166,C4,707.0,1.0,95,220.0
2167,F3,707.0,0.5,95,220.0
2168,A3,707.0,0.5,95,220.0
2169,C4,707.0,0.5,95,220.0
2170,F3,707.5,0.5,95,220.0
2171,A3,707.5,0.5,95,220.0
2172,C4,707.5,0.5,95,220.0
2173,F3,708.0,0.5,95,220.0
2174,A3,708.0,0.5,95,220.0
2175,C4,708.0,0.5,95,220.0
2176,G3,708.0,1.0,95,220.0
2177,D3,708.0,1.0,95,220.0
2178,G2,708.0,1.0,95,220.0
2179,F3,708.5,0.5,95,220.0
2180,A3,708.5,0.5,95,220.0
2181,C4,708.5,0.5,95,220.0
2182,F3,709.0,0.5,95,220.0
2183,A3,709.0,0.5,95,220.0
2184,C4,709.0,0.5,95,220.0
2185,F3,709.5,0.5,95,220.0
2186,A3,709.5,0.5,95,220.0
2187,C4,709.5,0.5,95,220.0
2188,F3,709.5,1.0,95,220.0
2189,C3,709.5,1.0,95,220.0
2190,F2,709.5,1.0,95,220.0
2191,F3,710.0,0.5,95,220.0
2192,A3,710.0,0.5,95,220.0
2193,C4,710.0,0.5,95,220.0
2194,B3,710.5,0.5,95,220.0
2195,D4,710.5,0.5,95,220.0
2196,F4,710.5,0.5,95,220.0
2197,A2,710.5,23/200,95,220.0
2198,E2,710.5,23/200,95,220.0
2199,F4,711.0,0.5,95,220.0
2200,C4,711.0,1.0,95,220.0
2201,C4,711.0,1.0,95,220.0
2202,E4,711.0,1.0,95,220.0
2203,G4,711.0,1.0,95,220.0
2204,C4,712.0,4.0,95,220.0
2205,E4,712.0,4.0,95,220.0
2206,G4,712.0,4.0,95,220.0
2207,G3,712.0,1.0,95,220.0
2208,D3,712.0,1.0,95,220.0
2209,G2,712.0,1.0,95,220.0
2210,F3,713.5,1.0,95,220.0
2211,C3,713.5,1.0,95,220.0
2212,F2,713.5,1.0,95,220.0
2213,A2,714.5,23/200,95,220.0
2214,E2,714.5,23/200,95,220.0
2215,F4,715.0,0.5,95,220.0
2216,C4,715.0,1.0,95,220.0
2217,C4,716.0,1333/1000,95,220.0
2218,E4,716.0,1333/1000,95,220.0
2219,G4,716.0,1333/1000,95,220.0
2220,B3,717.333,667/1000,95,220.0
2221,D4,717.333,667/1000,95,220.0
2222,F4,717.333,667/1000,95,220.0
2223,C4,718.0,667/1000,95,220.0
2224,E4,718.0,667/1000,95,220.0
2225,G4,718.0,667/1000,95,220.0
2226,B3,718.667,667/1000,70,220.0
2227,D4,718.667,667/1000,70,220.0
2228,F4,718.667,667/1000,70,220.0
2229,A3,719.333,667/1000,95,220.0
2230,C4,719.333,667/1000,95,220.0
2231,E4,719.333,667/1000,95,220.0
2232,G3,720.0,333/1000,95,220.0
2233,B3,720.0,333/1000,95,220.0
2234,D4,720.0,333/1000,95,220.0
2235,G3,720.0,1.0,95,220.0
2236,D3,720.0,1.0,95,220.0
2237,G2,720.0,1.0,95,220.0
2238,A3,720.333,333/1000,70,220.0
2239,C4,720.333,333/1000,70,220.0
2240,E4,720.333,333/1000,70,220.0
2241,G3,720.667,333/1000,70,220.0
2242,B3,720.667,333/1000,70,220.0
2243,D4,720.667,333/1000,70,220.0
2244,F3,721.0,1.5,95,220.0
2245,A3,721.0,1.5,70,220.0
2246,C4,721.0,1.5,70,220.0
2247,F3,721.5,1.0,95,220.0
2248,C3,721.5,1.0,95,220.0
2249,F2,721.5,1.0,95,220.0
2250,F3,722.5,0.5,95,220.0
2251,A3,722.5,0.5,95,220.0
2252,C4,722.5,0.5,95,220.0
2253,A2,722.5,23/200,95,220.0
2254,E2,722.5,23/200,95,220.0
2255,F4,723.0,0.5,95,220.0
2256,C4,723.0,1.0,95,220.0
2257,F3,723.0,0.5,95,220.0
2258,A3,723.0,0.5,95,220.0
2259,C4,723.0,0.5,95,220.0
2260,F3,723.5,0.5,95,220.0
2261,A3,723.5,0.5,95,220.0
2262,C4,723.5,0.5,95,220.0
2263,F3,724.0,0.5,95,220.0
2264,A3,724.0,0.5,95,220.0
2265,C4,724.0,0.5,95,220.0
2266,G3,724.0,1.0,95,220.0
2267,D3,724.0,1.0,95,220.0
2268,G2,724.0,1.0,95,220.0
2269,F3,724.5,0.5,95,220.0
2270,A3,724.5,0.5,95,220.0
2271,C4,724.5,0.5,95,220.0
2272,F3,725.0,0.5,95,220.0
2273,A3,725.0,0.5,95,220.0
2274,C4,725.0,0.5,95,220.0
2275,F3,725.5,0.5,95,220.0
2276,A3,725.5,0.5,95,220.0
2277,C4,725.5,0.5,95,220.0
2278,F3,725.5,1.0,95,220.0
2279,C3,725.5,1.0,95,220.0
2280,F2,725.5,1.0,95,220.0
2281,F3,726.0,0.5,95,220.0
2282,A3,726.0,0.5,95,220.0
2283,C4,726.0,0.5,95,220.0
2284,B3,726.5,0.5,95,220.0
2285,D4,726.5,0.5,95,220.0
2286,F4,726.5,0.5,95,220.0
2287,A2,726.5,23/200,95,220.0
2288,E2,726.5,23/200,95,220.0
2289,F4,727.0,0.5,95,220.0
2290,C4,727.0,1.0,95,220.0
2291,C4,727.0,0.5,95,220.0
2292,E4,727.0,0.5,95,220.0
2293,G4,727.0,0.5,95,220.0
2294,D4,727.5,0.5,95,220.0
2295,F4,727.5,0.5,95,220.0
2296,A4,727.5,0.5,95,220.0
2297,G3,728.0,1.0,95,220.0
2298,D3,728.0,1.0,95,220.0
2299,G2,728.0,1.0,95,220.0
2300,C4,728.5,0.5,95,220.0
2301,E4,728.5,0.5,95,220.0
2302,G4,728.5,0.5,95,220.0
2303,D4,729.5,0.5,95,220.0
2304,F4,729.5,0.5,95,220.0
2305,A4,729.5,0.5,95,220.0
2306,F3,729.5,1.0,95,220.0
2307,C3,729.5,1.0,95,220.0
2308,F2,729.5,1.0,95,220.0
2309,E4,730.5,0.5,95,220.0
2310,G4,730.5,0.5,95,220.0
2311,B4,730.5,0.5,95,220.0
2312,A2,730.5,23/200,95,220.0
2313,E2,730.5,23/200,95,220.0
2314,F4,731.0,0.5,95,220.0
2315,C4,731.0,1.0,95,220.0
2316,F4,731.5,0.5,95,220.0
2317,A4,731.5,0.5,95,220.0
2318,C5,731.5,0.5,95,220.0
2319,G3,732.0,1.0,95,220.0
2320,D3,732.0,1.0,95,220.0
2321,G2,732.0,1.0,95,220.0
2322,E4,732.5,0.5,95,220.0
2323,G4,732.5,0.5,95,220.0
2324,B4,732.5,0.5,95,220.0
2325,F4,733.5,0.5,95,220.0
2326,A4,733.5,0.5,95,220.0
2327,C5,733.5,0.5,95,220.0
2328,F3,733.5,1.0,95,220.0
2329,C3,733.5,1.0,95,220.0
2330,F2,733.5,1.0,95,220.0
2331,G4,734.5,0.5,95,220.0
2332,B4,734.5,0.5,95,220.0
2333,D5,734.5,0.5,95,220.0
2334,A2,734.5,23/200,95,220.0
2335,E2,734.5,23/200,95,220.0
2336,F4,735.0,0.5,95,220.0
2337,C4,735.0,1.0,95,220.0
2338,A4,735.5,0.5,95,220.0
2339,C5,735.5,0.5,95,220.0
2340,E5,735.5,0.5,95,220.0
2341,G3,736.0,1.0,95,220.0
2342,D3,736.0,1.0,95,220.0
2343,G2,736.0,1.0,95,220.0
2344,G4,736.5,0.5,95,220.0
2345,B4,736.5,0.5,95,220.0
2346,D5,736.5,0.5,95,220.0
2347,F4,737.0,0.5,95,220.0
2348,A4,737.0,0.5,95,220.0
2349,C5,737.0,0.5,95,220.0
2350,D4,737.5,2.5,95,220.0
2351,F4,737.5,2.5,95,220.0
2352,A4,737.5,2.5,95,220.0
2353,F3,737.5,1.0,95,220.0
2354,C3,737.5,1.0,95,220.0
2355,F2,737.5,1.0,95,220.0
2356,A2,738.5,23/200,95,220.0
2357,E2,738.5,23/200,95,220.0
2358,F4,739.0,0.5,95,220.0
2359,C4,739.0,1.0,95,220.0
2360,D4,740.0,3.0,95,220.0
2361,F4,740.0,3.0,95,220.0
2362,A4,740.0,3.0,95,220.0
2363,G3,740.0,1.0,95,220.0
2364,D3,740.0,1.0,95,220.0
2365,G2,740.0,1.0,95,220.0
2366,F3,741.5,1.0,95,220.0
2367,C3,741.5,1.0,95,220.0
2368,F2,741.5,1.0,95,220.0
2369,A2,742.5,23/200,95,220.0
2370,E2,742.5,23/200,95,220.0
2371,F4,743.0,0.5,95,220.0
2372,C4,743.0,1.0,95,220.0
2373,G4,744.0,667/1000,95,220.0
2374,B4,744.0,667/1000,95,220.0
2375,D5,744.0,667/1000,95,220.0
2376,G3,744.0,1.0,95,220.0
2377,D3,744.0,1.0,95,220.0
2378,G2,744.0,1.0,95,220.0
2379,F4,744.667,667/1000,95,220.0
2380,A4,744.667,667/1000,95,220.0
2381,C5,744.667,667/1000,95,220.0
2382,E4,745.333,667/1000,95,220.0
2383,G4,745.333,667/1000,95,220.0
2384,B4,745.333,667/1000,95,220.0
2385,F3,745.5,1.0,95,220.0
2386,C3,745.5,1.0,95,220.0
2387,F2,745.5,1.0,95,220.0
2388,D4,746.0,2.0,95,220.0
2389,F4,746.0,0.25,95,220.0
2390,A4,746.0,0.25,95,220.0
2391,F4,746.25,0.25,95,220.0
2392,A4,746.25,0.25,95,220.0
2393,F4,746.5,0.25,95,220.0
2394,A4,746.5,0.25,95,220.0
2395,A2,746.5,23/200,95,220.0
2396,E2,746.5,23/200,95,220.0
2397,F4,746.75,0.25,95,220.0
2398,A4,746.75,0.25,95,220.0
2399,F4,747.0,0.5,95,220.0
2400,C4,747.0,1.0,95,220.0
2401,F4,747.0,0.25,95,220.0
2402,A4,747.0,0.25,95,220.0
2403,F4,747.25,0.25,95,220.0
2404,A4,747.25,0.25,95,220.0
2405,F4,747.5,0.25,95,220.0
2406,A4,747.5,0.25,95,220.0
2407,F4,747.75,249/1000,95,220.0
2408,A4,747.75,249/1000,95,220.0
2409,D4,748.0,1.0,95,220.0
2410,G3,748.0,1.0,95,220.0
2411,D3,748.0,1.0,95,220.0
2412,G2,748.0,1.0,95,220.0
2413,F3,749.5,1.0,95,220.0
2414,C3,749.5,1.0,95,220.0
2415,F2,749.5,1.0,95,220.0
2416,A2,750.5,23/200,95,220.0
2417,E2,750.5,23/200,95,220.0
2418,F4,751.0,0.5,95,220.0
2419,C4,751.0,1.0,95,220.0
2420,G3,752.0,1.0,95,220.0
2421,D3,752.0,1.0,95,220.0
2422,G2,752.0,1.0,95,220.0
2423,F3,753.5,1.0,95,220.0
2424,C3,753.5,1.0,95,220.0
2425,F2,753.5,1.0,95,220.0
2426,A2,754.5,23/200,95,220.0
2427,E2,754.5,23/200,95,220.0
2428,F4,755.0,0.5,95,220.0
2429,C4,755.0,1.0,95,220.0
2430,G3,756.0,1.0,95,220.0
2431,D3,756.0,1.0,95,220.0
2432,G2,756.0,1.0,95,220.0
2433,F3,757.5,1.0,95,220.0
2434,C3,757.5,1.0,95,220.0
2435,F2,757.5,1.0,95,220.0
2436,A2,758.5,23/200,95,220.0
2437,E2,758.5,23/200,95,220.0
2438,F4,759.0,0.5,95,220.0
2439,C4,759.0,1.0,95,220.0
2440,G3,760.0,1.0,95,220.0
2441,D3,760.0,1.0,95,220.0
2442,G2,760.0,1.0,95,220.0
2443,F3,761.5,1.0,95,220.0
2444,C3,761.5,1.0,95,220.0
2445,F2,761.5,1.0,95,220.0
2446,A2,762.5,23/200,95,220.0
2447,E2,762.5,23/200,95,220.0
2448,F4,763.0,0.5,95,220.0
2449,C4,763.0,1.0,95,220.0
2450,G3,764.0,1.0,95,220.0
2451,D3,764.0,1.0,95,220.0
2452,G2,764.0,1.0,95,220.0
2453,F3,765.5,1.0,95,220.0
2454,C3,765.5,1.0,95,220.0
2455,F2,765.5,1.0,95,220.0
2456,A2,766.5,23/200,95,220.0
2457,E2,766.5,23/200,95,220.0
2458,F4,767.0,0.5,95,220.0
2459,C4,767.0,1.0,95,220.0
2460,G3,768.0,1.0,95,220.0
2461,D3,768.0,1.0,95,220.0
2462,G2,768.0,1.0,95,220.0
2463,F3,769.5,1.0,95,220.0
2464,C3,769.5,1.0,95,220.0
2465,F2,769.5,1.0,95,220.0
2466,A2,770.5,23/200,95,220.0
2467,E2,770.5,23/200,95,220.0
2468,F4,771.0,0.5,95,220.0
2469,C4,771.0,1.0,95,220.0
2470,G3,772.0,1.0,95,220.0
2471,D3,772.0,1.0,95,220.0
2472,G2,772.0,1.0,95,220.0
2473,B-3,773.5,4.0,95,220.0
2474,B-3,777.5,1.0,95,220.0
2475,G3,780.0,1.0,106,220.0
2476,D3,780.0,1.0,106,220.0
2477,G2,780.0,1.0,106,220.0
2478,G2,781.5,1.0,95,220.0
2479,B-2,783.0,0.5,95,220.0
2480,B2,783.5,0.5,95,220.0
2481,D3,784.0,0.5,95,220.0
2482,E3,784.5,1.0,95,220.0
2483,G2,785.5,1.0,95,220.0
2484,B-2,787.0,0.5,95,220.0
2485,B2,787.5,0.5,95,220.0
2486,D3,788.0,0.5,95,220.0
2487,E3,788.5,1.0,95,220.0
2488,G2,789.5,1.0,95,220.0
2489,B-2,791.0,0.5,95,220.0
2490,B2,791.5,0.5,95,220.0
2491,D3,792.0,0.5,95,220.0
2492,E3,792.5,1.0,95,220.0
2493,G2,793.5,1.0,95,220.0
2494,B-2,795.0,0.5,95,220.0
2495,B2,795.5,0.5,95,220.0
2496,D3,796.0,0.5,95,220.0
2497,E3,796.5,1.0,95,220.0
2498,C3,797.5,1.0,95,220.0
2499,E-3,799.0,0.5,95,220.0
2500,E3,799.5,0.5,95,220.0
2501,G3,800.0,0.5,95,220.0
2502,A3,800.5,1.0,95,220.0
2503,C3,801.5,1.0,95,220.0
2504,E-3,803.0,0.5,95,220.0
2505,E3,803.5,0.5,95,220.0
2506,G3,804.0,0.5,95,220.0
2507,A3,804.5,1.0,95,220.0
2508,G2,805.5,1.0,95,220.0
2509,B-2,807.0,0.5,95,220.0
2510,B2,807.5,0.5,95,220.0
2511,D3,808.0,0.5,95,220.0
2512,E3,808.5,1.0,95,220.0
2513,G2,809.5,1.0,95,220.0
2514,B-2,811.0,0.5,95,220.0
2515,B2,811.5,0.5,95,220.0
2516,D3,812.0,0.5,95,220.0
2517,E3,812.5,1.0,95,220.0
2518,E-3,813.5,1.0,95,220.0
2519,G3,815.0,1.0,95,220.0
2520,B-3,816.0,0.5,95,220.0
2521,E-3,816.5,1.0,95,220.0
2522,A3,817.5,1.0,95,220.0
2523,A3,819.0,0.5,95,220.0
2524,B-3,819.5,0.5,70,220.0
2525,A3,820.0,0.5,70,220.0
2526,F3,820.5,1.0,95,220.0
2527,D3,821.5,1.0,95,220.0
2528,F3,823.0,1.0,95,220.0
2529,G3,824.0,0.5,95,220.0
2530,C3,824.5,1.0,95,220.0
2531,F3,825.5,1.0,95,220.0
2532,F3,827.0,1.0,95,220.0
2533,G3,828.0,0.5,95,220.0
2534,D3,828.5,1.0,95,220.0
2535,E-3,829.5,1.0,95,220.0
2536,G3,831.0,1.0,95,220.0
2537,B-3,832.0,0.5,95,220.0
2538,G#3,832.5,1.0,95,220.0
2539,F3,833.5,1.0,95,220.0
2540,A3,835.0,1.0,95,220.0
2541,C4,836.0,0.5,95,220.0
2542,F3,836.5,1.0,95,220.0
2543,G2,837.5,1.0,95,220.0
2544,B-2,839.0,0.5,95,220.0
2545,B2,839.5,0.5,95,220.0
2546,D3,840.0,0.5,95,220.0
2547,E3,840.5,1.0,95,220.0
2548,G2,841.5,1.0,95,220.0
2549,B-2,843.0,0.5,95,220.0
2550,B2,843.5,0.5,95,220.0
2551,D3,844.0,0.5,95,220.0
2552,E3,844.5,1.0,95,220.0
2553,G2,845.5,1.0,95,220.0
2554,B-2,847.0,0.5,95,220.0
2555,B2,847.5,0.5,95,220.0
2556,D3,848.0,0.5,95,220.0
2557,E3,848.5,1.0,95,220.0
2558,G2,849.5,1.0,95,220.0
2559,B-2,851.0,0.5,95,220.0
2560,B2,851.5,0.5,95,220.0
2561,D3,852.0,0.5,95,220.0
2562,E3,852.5,1.0,95,220.0
2563,G2,853.5,1.0,95,220.0
2564,B-2,855.0,0.5,95,220.0
2565,B2,855.5,0.5,95,220.0
2566,D3,856.0,0.5,95,220.0
2567,E3,856.5,1.0,95,220.0
2568,G2,857.5,1.0,95,220.0
2569,B-2,859.0,0.5,95,220.0
2570,B2,859.5,0.5,95,220.0
2571,D3,860.0,0.5,95,220.0
2572,E3,860.5,1.0,95,220.0
2573,G2,861.5,1.0,95,220.0
2574,B-2,863.0,0.5,95,220.0
2575,B2,863.5,0.5,95,220.0
2576,D3,864.0,0.5,95,220.0
2577,E3,864.5,1.0,95,220.0
2578,G2,865.5,1.0,95,220.0
2579,B-2,867.0,0.5,95,220.0
2580,B2,867.5,0.5,95,220.0
2581,D3,868.0,0.5,95,220.0
2582,E3,868.5,1.0,95,220.0
2583,C4,869.5,0.25,95,220.0
2584,C4,869.75,0.25,95,220.0
2585,C4,870.0,0.25,95,220.0
2586,C4,870.25,0.25,95,220.0
2587,C4,870.5,0.25,95,220.0
2588,C4,870.75,0.25,95,220.0
2589,C4,871.0,0.25,95,220.0
2590,C4,871.25,0.25,95,220.0
2591,C4,871.5,0.25,95,220.0
2592,C4,871.75,0.25,95,220.0
2593,C4,872.0,0.25,95,220.0
2594,C4,872.25,0.25,95,220.0
2595,C4,872.5,0.25,95,220.0
2596,C4,872.75,0.25,95,220.0
2597,C4,873.0,0.25,95,220.0
2598,C4,873.25,0.25,95,220.0
2599,C4,873.5,0.25,95,220.0
2600,C4,873.75,0.25,95,220.0
2601,C4,874.0,0.25,95,220.0
2602,C4,874.25,0.25,95,220.0
2603,C4,874.5,0.25,95,220.0
2604,C4,874.75,0.25,95,220.0
2605,C4,875.0,0.25,95,220.0
2606,C4,875.25,249/1000,95,220.0
2607,C4,875.5,0.5,95,220.0
2608,B-3,876.0,0.5,95,220.0
2609,C4,877.0,0.5,95,220.0
2610,D4,878.0,0.25,95,220.0
2611,D4,878.25,0.25,95,220.0
2612,D4,878.5,0.25,95,220.0
2613,D4,878.75,0.25,95,220.0
2614,D4,879.0,0.25,95,220.0
2615,D4,879.25,0.25,95,220.0
2616,D4,879.5,0.25,95,220.0
2617,D4,879.75,0.25,95,220.0
2618,D4,880.0,0.25,95,220.0
2619,D4,880.25,0.25,95,220.0
2620,D4,880.5,0.25,95,220.0
2621,D4,880.75,0.25,95,220.0
2622,D4,881.0,0.25,95,220.0
2623,D4,881.25,249/1000,95,220.0
2624,F4,881.375,0.125,95,220.0
2625,G4,881.5,2.0,95,220.0
2626,F4,883.5,2.0,95,220.0
2627,D4,885.5,333/1000,95,220.0
2628,C4,885.833,333/1000,70,220.0
2629,B-3,886.167,333/1000,95,220.0
2630,C4,886.5,2.0,95,220.0
2631,C4,888.5,0.5,95,220.0
2632,B-3,889.0,0.5,95,220.0
2633,C4,889.5,0.75,95,220.0
2634,B-3,890.25,0.25,95,220.0
2635,C4,890.5,0.5,95,220.0
2636,B-3,891.0,0.5,70,220.0
2637,C4,891.5,0.75,95,220.0
2638,B-3,892.25,0.25,95,220.0
2639,C4,892.5,0.5,95,220.0
2640,B-3,893.0,0.5,70,220.0
2641,C4,893.5,1.0,95,220.0
2642,C4,894.5,0.5,95,220.0
2643,G2,895.0,0.5,95,220.0
2644,G3,895.5,0.5,95,220.0
2645,G4,896.0,0.5,95,220.0
2646,G4,897.0,0.5,95,220.0
2647,G3,898.0,0.5,95,220.0
2648,G2,899.0,0.5,95,220.0
2649,G3,899.5,0.5,95,220.0
2650,G4,900.5,0.5,95,220.0
2651,G3,901.5,0.5,95,220.0
2652,A3,902.0,0.5,95,220.0
2653,B-3,902.5,0.5,95,220.0
2654,G3,903.0,0.5,95,220.0
2655,A3,903.5,0.5,95,220.0
2656,B-3,904.0,0.5,95,220.0
2657,G3,904.5,0.5,95,220.0
2658,A3,905.0,0.5,95,220.0
2659,B-3,905.5,0.5,95,220.0
2660,G3,906.0,0.5,95,220.0
2661,A3,906.5,0.5,95,220.0
2662,B-3,907.0,0.5,95,220.0
2663,G3,907.5,0.5,95,220.0
2664,A3,908.0,0.5,95,220.0
2665,B-3,908.5,0.5,95,220.0
2666,A3,909.0,0.5,95,220.0
2667,C4,909.5,1.0,95,220.0
2668,C4,910.5,1.0,95,220.0
2669,C4,911.5,0.5,95,220.0
2670,B-3,912.0,0.5,70,220.0
2671,C4,912.5,0.5,95,220.0
2672,C4,913.0,0.5,95,220.0
2673,C4,913.5,0.5,95,220.0
2674,C4,914.0,1.0,95,220.0
2675,C4,915.0,1.0,95,220.0
2676,B-3,916.0,0.5,95,220.0
2677,G3,916.5,0.5,95,220.0
2678,F3,917.0,0.5,70,220.0
2679,C4,917.5,1.0,95,220.0
2680,G3,918.5,0.5,95,220.0
2681,C4,919.0,1.0,95,220.0
2682,G3,920.0,0.5,95,220.0
2683,C4,920.5,1.0,95,220.0
2684,G3,921.5,0.5,95,220.0
2685,C4,922.0,1.0,95,220.0
2686,G3,923.0,0.5,95,220.0
2687,C4,923.5,1.0,95,220.0
2688,G3,924.5,0.5,95,220.0
2689,C4,925.0,0.5,95,220.0
2690,C4,925.5,0.5,95,220.0
2691,C4,926.0,0.5,95,220.0
2692,C4,926.5,333/1000,95,220.0
2693,C4,926.833,333/1000,95,220.0
2694,C4,927.167,333/1000,95,220.0
2695,C4,927.5,333/1000,95,220.0
2696,C4,927.833,333/1000,95,220.0
2697,C4,928.167,333/1000,95,220.0
2698,C4,928.5,333/1000,95,220.0
2699,C4,928.833,333/1000,95,220.0
2700,C4,929.167,333/1000,95,220.0
2701,C4,929.5,333/1000,95,220.0
2702,C4,929.833,333/1000,95,220.0
2703,C4,930.167,333/1000,95,220.0
2704,C4,930.5,333/1000,95,220.0
2705,C4,930.833,333/1000,95,220.0
2706,C4,931.167,333/1000,95,220.0
2707,C4,931.5,333/1000,95,220.0
2708,C4,931.833,333/1000,95,220.0
2709,C4,932.167,333/1000,95,220.0
2710,C4,932.5,333/1000,95,220.0
2711,C4,932.833,333/1000,95,220.0
2712,B-3,933.167,333/1000,95,220.0
2713,G4,933.5,1.0,95,220.0
2714,C4,933.5,0.5,95,220.0
2715,B-3,934.0,0.5,70,220.0
2716,G4,934.5,1.0,95,220.0
2717,C4,934.5,1.0,95,220.0
2718,G4,935.5,1.5,95,220.0
2719,C4,935.5,0.5,95,220.0
2720,B-3,936.0,0.5,70,220.0
2721,G3,936.5,0.5,95,220.0
2722,G4,937.0,0.5,95,220.0
2723,C4,937.0,0.5,95,220.0
2724,G4,938.0,0.5,95,220.0
2725,C4,938.0,0.5,95,220.0
2726,G4,938.5,1.0,95,220.0
2727,C4,938.5,1.0,95,220.0
2728,C4,940.0,667/1000,95,220.0
2729,B-3,940.667,333/1000,95,220.0
2730,C4,941.0,0.5,95,220.0
2731,B-3,941.5,0.5,70,220.0
2732,C4,942.0,667/1000,95,220.0
2733,B-3,942.667,333/1000,95,220.0
2734,C4,943.0,0.5,95,220.0
2735,B-3,943.5,0.5,70,220.0
2736,C4,944.0,0.5,95,220.0
2737,B-3,944.5,0.5,70,220.0
2738,G3,945.0,0.5,95,220.0
2739,F3,945.5,0.5,70,220.0
2740,G3,946.0,0.5,95,220.0
2741,F3,946.5,0.5,70,220.0
2742,D3,947.0,0.5,95,220.0
2743,C3,947.5,0.5,70,220.0
2744,D3,948.0,333/1000,95,220.0
2745,C3,948.333,333/1000,70,220.0
2746,B-2,948.667,333/1000,95,220.0
2747,C3,949.0,0.5,95,220.0
2748,B-2,949.5,0.5,70,220.0
2749,C3,950.0,1.0,95,220.0
2750,A2,951.0,0.5,95,220.0
2751,C3,951.5,1.0,95,220.0
2752,G2,952.5,0.5,95,220.0
2753,C3,953.0,1.0,95,220.0
2754,G2,954.0,0.5,95,220.0
2755,C3,954.5,1.0,95,220.0
2756,G2,955.5,0.5,95,220.0
2757,C3,956.0,1.0,95,220.0
2758,G2,957.0,0.5,95,220.0
2759,C#3,957.5,0.5,95,220.0
2760,C#3,958.0,0.5,95,220.0
2761,D3,959.0,0.5,95,220.0
2762,D3,959.5,0.5,95,220.0
2763,E3,960.5,0.5,95,220.0
2764,E3,961.0,0.5,95,220.0
2765,F3,962.0,0.5,95,220.0
2766,F3,962.5,0.5,95,220.0
2767,F#3,963.5,0.5,95,220.0
2768,F#3,964.0,0.5,95,220.0
2769,G3,965.0,1.0,95,220.0
2770,G3,966.0,0.5,95,220.0
2771,G2,966.5,0.5,95,220.0
2772,G3,967.0,0.5,95,220.0
2773,G3,967.5,1.0,95,220.0
2774,G2,968.5,0.5,95,220.0
2775,G3,969.0,0.5,95,220.0
2776,G3,969.5,0.5,95,220.0
2777,G3,970.0,0.5,95,220.0
2778,G2,970.5,0.5,95,220.0
2779,B-3,971.0,0.5,95,220.0
2780,B-3,971.5,1.0,95,220.0
2781,G3,972.5,0.5,95,220.0
2782,C4,973.0,0.5,95,220.0
2783,C4,973.5,0.5,95,220.0
2784,C4,974.0,0.5,95,220.0
2785,D4,974.5,0.5,95,220.0
2786,D4,975.0,0.5,95,220.0
2787,D4,975.5,1.0,95,220.0
2788,F4,976.5,0.5,95,220.0
2789,F4,977.0,0.5,95,220.0
2790,F4,977.5,0.5,95,220.0
2791,F4,978.0,0.5,95,220.0
2792,G4,978.5,0.5,95,220.0
2793,G4,979.0,0.5,95,220.0
2794,G4,979.5,1.0,95,220.0
2795,G3,980.5,0.5,95,220.0
2796,G4,981.0,1.0,95,220.0
2797,G4,982.0,1.0,95,220.0
2798,D4,982.0,1.0,95,220.0
2799,G4,983.0,1.0,95,220.0
2800,D4,983.0,1.0,95,220.0
2801,G4,984.0,0.5,95,220.0
2802,D4,984.0,0.5,95,220.0
2803,G4,984.5,0.5,95,220.0
2804,D4,984.5,0.5,95,220.0
2805,G4,985.0,0.5,95,220.0
2806,D4,985.0,0.5,95,220.0
2807,G4,985.5,0.5,95,220.0
2808,C#4,985.5,0.5,95,220.0
2809,G4,987.0,1.0,95,220.0
2810,C#4,987.0,1.0,95,220.0
2811,G4,988.0,0.5,95,220.0
2812,C#4,988.0,0.5,95,220.0
2813,G4,988.5,1.0,95,220.0
2814,C#4,988.5,1.0,95,220.0
2815,G4,989.5,0.5,95,220.0
2816,C#4,989.5,0.5,95,220.0
2817,G4,990.0,0.5,95,220.0
2818,C#4,990.0,0.5,95,220.0
2819,G4,990.5,0.5,95,220.0
2820,C#4,990.5,0.5,95,220.0
2821,G4,991.0,1.0,95,220.0
2822,C4,991.0,1.0,95,220.0
2823,G4,992.0,1.0,95,220.0
2824,C4,992.0,1.0,95,220.0
2825,G4,993.0,0.5,95,220.0
2826,C4,993.0,0.5,95,220.0
2827,G4,993.5,0.5,95,220.0
2828,C4,993.5,0.5,95,220.0
2829,G4,994.0,0.5,95,220.0
2830,C4,994.0,0.5,95,220.0
2831,G4,994.5,0.5,95,220.0
2832,D4,994.5,0.5,95,220.0
2833,G4,995.5,0.5,95,220.0
2834,D4,995.5,0.5,95,220.0
2835,G4,996.0,0.5,95,220.0
2836,E4,996.0,0.5,95,220.0
2837,G4,996.5,0.5,95,220.0
2838,E4,996.5,0.5,95,220.0
2839,G4,997.0,0.5,95,220.0
2840,E4,997.0,0.5,95,220.0
2841,G4,997.5,0.5,95,220.0
2842,E4,997.5,0.5,95,220.0
2843,G4,998.0,0.5,95,220.0
2844,E4,998.0,0.5,95,220.0
2845,G4,998.5,0.5,95,220.0
2846,E4,998.5,0.5,95,220.0
2847,G4,999.0,0.5,95,220.0
2848,E4,999.0,0.5,95,220.0
2849,D4,999.5,333/1000,95,220.0
2850,F4,999.833,333/1000,70,220.0
2851,G4,1000.167,333/1000,95,220.0
2852,D4,1000.5,333/1000,95,220.0
2853,F4,1000.833,333/1000,70,220.0
2854,G4,1001.167,333/1000,95,220.0
2855,D4,1001.5,333/1000,95,220.0
2856,F4,1001.833,333/1000,70,220.0
2857,G4,1002.167,333/1000,95,220.0
2858,D4,1002.5,333/1000,95,220.0
2859,F4,1002.833,333/1000,70,220.0
2860,G4,1003.167,333/1000,95,220.0
2861,D4,1003.5,333/1000,95,220.0
2862,F4,1003.833,333/1000,70,220.0
2863,G4,1004.167,333/1000,95,220.0
2864,D4,1004.5,333/1000,95,220.0
2865,F4,1004.833,333/1000,70,220.0
2866,G4,1005.167,333/1000,95,220.0
2867,D4,1005.5,333/1000,95,220.0
2868,F4,1005.833,333/1000,70,220.0
2869,G4,1006.167,333/1000,95,220.0
2870,D4,1006.5,333/1000,95,220.0
2871,F4,1006.833,333/1000,70,220.0
2872,G4,1007.167,333/1000,95,220.0
2873,D4,1007.5,333/1000,95,220.0
2874,F4,1007.833,333/1000,70,220.0
2875,G4,1008.167,333/1000,95,220.0
2876,D4,1008.5,333/1000,95,220.0
2877,F4,1008.833,333/1000,70,220.0
2878,G4,1009.167,333/1000,95,220.0
2879,D4,1009.5,333/1000,95,220.0
2880,F4,1009.833,333/1000,70,220.0
2881,G4,1010.167,333/1000,95,220.0
2882,D4,1010.5,333/1000,95,220.0
2883,F4,1010.833,333/1000,70,220.0
2884,G4,1011.167,333/1000,95,220.0
2885,D4,1011.5,333/1000,95,220.0
2886,F4,1011.833,333/1000,70,220.0
2887,G4,1012.167,333/1000,95,220.0
2888,D4,1012.5,333/1000,95,220.0
2889,F4,1012.833,333/1000,70,220.0
2890,G4,1013.167,333/1000,95,220.0
2891,D4,1013.5,333/1000,95,220.0
2892,F4,1013.833,333/1000,70,220.0
2893,G4,1014.167,333/1000,95,220.0
2894,D4,1014.5,333/1000,95,220.0
2895,F4,1014.833,333/1000,70,220.0
2896,G4,1015.167,333/1000,95,220.0
2897,D4,1015.5,333/1000,95,220.0
2898,F4,1015.833,333/1000,70,220.0
2899,G4,1016.167,333/1000,95,220.0
2900,G3,1016.5,0.5,95,220.0
2901,G4,1017.0,1.0,95,220.0
2902,G3,1018.0,1.5,95,220.0
2903,C4,1019.5,0.25,95,220.0
2904,C4,1019.75,0.25,95,220.0
2905,C4,1020.0,0.25,95,220.0
2906,C4,1020.25,0.25,95,220.0
2907,C4,1020.5,0.25,95,220.0
2908,C4,1020.75,0.25,95,220.0
2909,C4,1021.0,0.25,95,220.0
2910,C4,1021.25,0.25,95,220.0
2911,C4,1021.5,0.25,95,220.0
2912,C4,1021.75,0.25,95,220.0
2913,C4,1022.0,0.25,95,220.0
2914,C4,1022.25,0.25,95,220.0
2915,C4,1022.5,0.25,95,220.0
2916,C4,1022.75,0.25,95,220.0
2917,C4,1023.0,0.25,95,220.0
2918,C4,1023.25,0.25,95,220.0
2919,C4,1023.5,0.25,95,220.0
2920,C4,1023.75,0.25,95,220.0
2921,C4,1024.0,0.25,95,220.0
2922,C4,1024.25,0.25,95,220.0
2923,C4,1024.5,0.25,95,220.0
2924,C4,1024.75,0.25,95,220.0
2925,C4,1025.0,0.25,95,220.0
2926,C4,1025.25,0.25,95,220.0
2927,C4,1025.5,0.25,95,220.0
2928,C4,1025.75,0.25,95,220.0
2929,C4,1026.0,0.25,95,220.0
2930,C4,1026.25,0.25,95,220.0
2931,C4,1026.5,0.25,95,220.0
2932,C4,1026.75,0.25,95,220.0
2933,C4,1027.0,0.25,95,220.0
2934,C4,1027.25,249/1000,95,220.0
2935,G5,1027.5,0.125,95,220.0
2936,G5,1027.625,0.125,95,220.0
2937,G5,1027.75,0.125,95,220.0
2938,G5,1027.875,0.125,95,220.0
2939,G5,1028.0,0.125,95,220.0
2940,G5,1028.125,0.125,95,220.0
2941,G5,1028.25,0.125,95,220.0
2942,G5,1028.375,0.125,95,220.0
2943,G5,1028.5,0.125,95,220.0
2944,G5,1028.625,0.125,95,220.0
2945,G5,1028.75,0.125,95,220.0
2946,G5,1028.875,31/250,95,220.0
2947,G#5,1029.0,0.125,95,220.0
2948,G#5,1029.125,0.125,95,220.0
2949,G#5,1029.25,0.125,95,220.0
2950,G#5,1029.375,31/250,95,220.0
2951,B-5,1029.5,0.125,95,220.0
2952,B-5,1029.625,0.125,95,220.0
2953,B-5,1029.75,0.125,95,220.0
2954,B-5,1029.875,31/250,95,220.0
2955,G#5,1030.0,0.125,95,220.0
2956,G#5,1030.125,0.125,95,220.0
2957,G#5,1030.25,0.125,95,220.0
2958,G#5,1030.375,31/250,95,220.0
2959,G5,1030.5,0.125,95,220.0
2960,G5,1030.625,0.125,95,220.0
2961,G5,1030.75,0.125,95,220.0
2962,G5,1030.875,31/250,95,220.0
2963,F5,1031.0,0.125,95,220.0
2964,F5,1031.125,0.125,95,220.0
2965,F5,1031.25,0.125,95,220.0
2966,F5,1031.375,31/250,95,220.0
2967,E-5,1031.5,0.125,95,220.0
2968,E-5,1031.625,0.125,95,220.0
2969,E-5,1031.75,0.125,95,220.0
2970,E-5,1031.875,31/250,95,220.0
2971,D5,1032.0,0.125,95,220.0
2972,D5,1032.125,0.125,95,220.0
2973,D5,1032.25,0.125,95,220.0
2974,D5,1032.375,31/250,95,220.0
2975,C5,1032.5,0.125,95,220.0
2976,C5,1032.625,0.125,95,220.0
2977,C5,1032.75,0.125,95,220.0
2978,C5,1032.875,31/250,95,220.0
2979,B-4,1033.0,0.125,95,220.0
2980,B-4,1033.125,0.125,95,220.0
2981,B-4,1033.25,0.125,95,220.0
2982,B-4,1033.375,31/250,95,220.0
2983,A4,1033.5,0.125,95,220.0
2984,A4,1033.625,0.125,95,220.0
2985,A4,1033.75,0.125,95,220.0
2986,A4,1033.875,31/250,95,220.0
2987,G4,1034.0,0.125,95,220.0
2988,G4,1034.125,0.125,95,220.0
2989,G4,1034.25,0.125,95,220.0
2990,G4,1034.375,0.125,95,220.0
2991,G4,1034.5,0.125,95,220.0
2992,G4,1034.625,0.125,95,220.0
2993,G4,1034.75,0.125,95,220.0
2994,G4,1034.875,31/250,95,220.0
2995,F4,1035.0,0.125,95,220.0
2996,F4,1035.125,0.125,95,220.0
2997,F4,1035.25,0.125,95,220.0
2998,F4,1035.375,31/250,95,220.0
2999,E4,1035.5,0.125,95,220.0
3000,E4,1035.625,0.125,95,220.0
3001,E4,1035.75,0.125,95,220.0
3002,E4,1035.875,31/250,95,220.0
3003,D4,1036.0,0.125,95,220.0
3004,D4,1036.125,0.125,95,220.0
3005,D4,1036.25,0.125,95,220.0
3006,D4,1036.375,0.125,95,220.0
3007,D4,1036.5,0.125,95,220.0
3008,D4,1036.625,0.125,95,220.0
3009,D4,1036.75,0.125,95,220.0
3010,D4,1036.875,0.125,95,220.0
3011,D4,1037.0,0.125,95,220.0
3012,D4,1037.125,0.125,95,220.0
3013,D4,1037.25,0.125,95,220.0
3014,D4,1037.375,31/250,95,220.0
3015,G4,1037.5,2.0,95,220.0
3016,D4,1037.5,0.125,95,220.0
3017,D4,1037.625,0.125,95,220.0
3018,D4,1037.75,0.125,95,220.0
3019,D4,1037.875,0.125,95,220.0
3020,D4,1038.0,0.125,95,220.0
3021,D4,1038.125,0.125,95,220.0
3022,D4,1038.25,0.125,95,220.0
3023,D4,1038.375,0.125,95,220.0
3024,D4,1038.5,0.125,95,220.0
3025,D4,1038.625,0.125,95,220.0
3026,D4,1038.75,0.125,95,220.0
3027,D4,1038.875,0.125,95,220.0
3028,D4,1039.0,0.125,95,220.0
3029,D4,1039.125,0.125,95,220.0
3030,D4,1039.25,0.125,95,220.0
3031,D4,1039.375,31/250,95,220.0
3032,G4,1039.5,1.0,111,220.0
3033,D4,1039.5,1.0,111,220.0
