,note_name,start_time,duration,velocity,tempo
0,A3,0.5,0.25,95,98.0
1,D4,0.75,0.5,95,98.0
2,D4,1.25,0.5,95,98.0
3,F4,1.75,0.5,95,98.0
4,F4,2.25,0.5,95,98.0
5,F4,2.75,0.25,95,98.0
6,E4,3.0,0.5,95,98.0
7,E4,3.5,0.5,95,98.0
8,A3,4.5,0.25,95,98.0
9,D4,4.75,0.5,95,98.0
10,F4,5.25,0.5,95,98.0
11,G4,5.75,0.5,95,98.0
12,G4,6.25,0.5,95,98.0
13,A4,6.75,0.25,95,98.0
14,G4,7.0,0.5,95,98.0
15,F4,7.5,0.5,95,98.0
16,F4,8.0,4.0,47,98.0
17,A3,8.5,0.25,95,98.0
18,D4,8.75,0.5,95,98.0
19,D4,9.25,0.5,95,98.0
20,F4,9.75,0.5,95,98.0
21,F4,10.25,0.5,95,98.0
22,F4,10.75,0.25,95,98.0
23,E4,11.0,0.5,95,98.0
24,E4,11.5,0.5,95,98.0
25,A3,12.5,0.25,95,98.0
26,D4,12.75,0.5,95,98.0
27,F4,13.25,0.5,95,98.0
28,G4,13.75,0.5,95,98.0
29,G4,14.25,0.5,95,98.0
30,A4,14.75,0.25,95,98.0
31,G4,15.0,0.5,95,98.0
32,F4,15.5,0.5,95,98.0
33,D4,16.0,0.25,95,98.0
34,D2,16.0,4.0,79,98.0
35,C4,16.25,0.25,95,98.0
36,D4,16.5,2.0,95,98.0
37,A3,16.5,0.25,95,98.0
38,D4,16.75,0.5,95,98.0
39,D4,17.25,0.5,95,98.0
40,F4,17.75,0.5,95,98.0
41,F4,18.25,0.5,95,98.0
42,F4,18.75,0.25,95,98.0
43,E4,19.0,0.5,95,98.0
44,E4,19.5,0.5,95,98.0
45,B-1,20.0,4.0,79,98.0
46,A3,20.5,0.25,95,98.0
47,D4,20.75,0.5,95,98.0
48,F4,21.25,0.5,95,98.0
49,G4,21.75,0.5,95,98.0
50,G4,22.25,0.5,95,98.0
51,A4,22.75,0.25,95,98.0
52,G3,23.0,0.5,95,98.0
53,G4,23.0,0.5,95,98.0
54,F3,23.5,0.25,95,98.0
55,F4,23.5,0.5,95,98.0
56,D3,23.75,0.25,95,98.0
57,D3,24.0,0.25,95,98.0
58,D2,24.0,4.0,79,98.0
59,F3,24.25,0.5,79,98.0
60,A3,24.5,0.25,95,98.0
61,D3,24.75,2.0,95,98.0
62,D4,24.75,0.5,95,98.0
63,D4,25.25,0.5,95,98.0
64,F4,25.75,0.5,95,98.0
65,F4,26.25,0.5,95,98.0
66,F4,26.75,0.25,95,98.0
67,E4,27.0,0.5,95,98.0
68,E4,27.5,0.5,95,98.0
69,B-1,28.0,4.0,79,98.0
70,A3,28.5,0.25,95,98.0
71,D4,28.75,0.5,95,98.0
72,F4,29.25,0.5,95,98.0
73,G4,29.75,0.5,95,98.0
74,G4,30.25,0.5,95,98.0
75,A4,30.75,0.25,95,98.0
76,G4,31.0,0.5,95,98.0
77,F4,31.5,0.5,95,98.0
78,D3,32.0,4.0,95,98.0
79,A3,32.0,0.75,79,98.0
80,D2,32.0,4.0,95,98.0
81,D4,32.75,0.75,79,98.0
82,D4,33.5,0.25,79,98.0
83,F4,33.5,0.25,95,98.0
84,D4,33.5,0.25,95,98.0
85,A3,33.5,0.25,95,98.0
86,C4,33.75,0.75,79,98.0
87,E4,33.75,2.25,95,98.0
88,C4,33.75,2.25,95,98.0
89,G3,33.75,2.25,95,98.0
90,C4,34.5,0.5,79,98.0
91,C4,35.0,0.5,79,98.0
92,D4,36.0,0.75,95,98.0
93,D2,36.0,0.75,95,98.0
94,F4,36.0,0.75,95,98.0
95,D4,36.0,0.75,95,98.0
96,A3,36.0,0.75,95,98.0
97,C4,36.75,0.75,95,98.0
98,C2,36.75,0.75,95,98.0
99,E4,36.75,0.75,95,98.0
100,C4,36.75,0.75,95,98.0
101,G3,36.75,0.75,95,98.0
102,A3,37.5,1.0,95,98.0
103,A1,37.5,1.0,95,98.0
104,C4,37.5,1.0,95,98.0
105,A3,37.5,1.0,95,98.0
106,B-3,38.5,0.5,95,98.0
107,B-1,38.5,0.25,95,98.0
108,D4,38.5,0.25,95,98.0
109,B-3,38.5,0.25,95,98.0
110,F3,38.5,0.25,95,98.0
111,B-3,39.0,1.0,95,98.0
112,B-1,39.0,1.0,95,98.0
113,D4,39.0,1.0,95,98.0
114,B-3,39.0,1.0,95,98.0
115,F3,39.0,1.0,95,98.0
116,D3,40.0,4.0,95,98.0
117,A3,40.0,0.75,79,98.0
118,D2,40.0,4.0,95,98.0
119,D4,40.75,0.75,79,98.0
120,D4,41.5,0.25,79,98.0
121,F4,41.5,0.25,95,98.0
122,D4,41.5,0.25,95,98.0
123,A3,41.5,0.25,95,98.0
124,C4,41.75,0.75,79,98.0
125,E4,41.75,2.25,95,98.0
126,C4,41.75,2.25,95,98.0
127,G3,41.75,2.25,95,98.0
128,C4,42.5,0.5,79,98.0
129,C4,43.0,0.5,79,98.0
130,D4,44.0,0.75,95,98.0
131,D2,44.0,0.75,95,98.0
132,A4,44.0,0.75,100,98.0
133,F4,44.0,0.75,100,98.0
134,D4,44.0,0.75,100,98.0
135,C4,44.75,0.75,95,98.0
136,C2,44.75,0.75,95,98.0
137,G4,44.75,0.75,100,98.0
138,E4,44.75,0.75,100,98.0
139,C4,44.75,0.75,100,98.0
140,A3,45.5,1.0,95,98.0
141,A1,45.5,1.0,95,98.0
142,E4,45.5,1.0,100,98.0
143,C4,45.5,1.0,100,98.0
144,G3,45.5,1.0,100,98.0
145,B-3,46.5,0.5,95,98.0
146,B-1,46.5,0.25,95,98.0
147,D4,46.5,0.25,95,98.0
148,B-3,46.5,0.25,95,98.0
149,F3,46.5,0.25,95,98.0
150,B-3,47.0,1.0,95,98.0
151,B-1,47.0,1.0,95,98.0
152,D4,47.0,1.0,95,98.0
153,B-3,47.0,1.0,95,98.0
154,F3,47.0,1.0,95,98.0
155,C6,47.5,0.25,47,98.0
156,C5,47.5,0.25,47,98.0
157,C6,47.75,0.25,79,98.0
158,C5,47.75,0.25,79,98.0
159,D3,48.0,4.0,95,98.0
160,A3,48.0,0.75,79,98.0
161,D2,48.0,4.0,95,98.0
162,C6,48.0,0.25,79,98.0
163,C5,48.0,0.25,79,98.0
164,D6,48.25,0.25,79,98.0
165,D5,48.25,0.25,79,98.0
166,D4,48.75,0.75,79,98.0
167,D4,49.5,0.25,79,98.0
168,F4,49.5,0.25,95,98.0
169,D4,49.5,0.25,95,98.0
170,A3,49.5,0.25,95,98.0
171,C4,49.75,0.75,79,98.0
172,E4,49.75,2.25,95,98.0
173,C4,49.75,2.25,95,98.0
174,G3,49.75,2.25,95,98.0
175,C4,50.5,0.5,79,98.0
176,C4,51.0,0.5,79,98.0
177,D4,52.0,0.75,95,98.0
178,D2,52.0,0.75,95,98.0
179,F4,52.0,0.75,95,98.0
180,D4,52.0,0.75,95,98.0
181,A3,52.0,0.75,95,98.0
182,C4,52.75,0.75,95,98.0
183,C2,52.75,0.75,95,98.0
184,E4,52.75,0.75,95,98.0
185,C4,52.75,0.75,95,98.0
186,G3,52.75,0.75,95,98.0
187,A3,53.5,1.0,95,98.0
188,A1,53.5,1.0,95,98.0
189,C4,53.5,1.0,95,98.0
190,A3,53.5,1.0,95,98.0
191,B-3,54.5,0.5,95,98.0
192,B-1,54.5,0.25,95,98.0
193,D4,54.5,0.25,95,98.0
194,B-3,54.5,0.25,95,98.0
195,F3,54.5,0.25,95,98.0
196,B-3,55.0,1.0,95,98.0
197,B-1,55.0,1.0,95,98.0
198,D4,55.0,1.0,95,98.0
199,B-3,55.0,1.0,95,98.0
200,F3,55.0,1.0,95,98.0
201,D3,56.0,4.0,95,98.0
202,A3,56.0,0.75,79,98.0
203,D2,56.0,4.0,95,98.0
204,D4,56.75,0.75,79,98.0
205,D4,57.5,0.25,79,98.0
206,F4,57.5,0.25,95,98.0
207,D4,57.5,0.25,95,98.0
208,A3,57.5,0.25,95,98.0
209,C4,57.75,0.75,79,98.0
210,E4,57.75,2.25,95,98.0
211,C4,57.75,2.25,95,98.0
212,G3,57.75,2.25,95,98.0
213,C4,58.5,0.5,79,98.0
214,C4,59.0,0.5,79,98.0
215,D4,60.0,0.75,95,98.0
216,D2,60.0,0.75,95,98.0
217,A4,60.0,0.75,100,98.0
218,F4,60.0,0.75,100,98.0
219,D4,60.0,0.75,100,98.0
220,C4,60.75,0.75,95,98.0
221,C2,60.75,0.75,95,98.0
222,G4,60.75,0.75,100,98.0
223,E4,60.75,0.75,100,98.0
224,C4,60.75,0.75,100,98.0
225,A3,61.5,1.0,95,98.0
226,A1,61.5,1.0,95,98.0
227,E4,61.5,1.0,100,98.0
228,C4,61.5,1.0,100,98.0
229,G3,61.5,1.0,100,98.0
230,B-3,62.5,0.5,95,98.0
231,B-1,62.5,0.25,95,98.0
232,D4,62.5,0.25,95,98.0
233,B-3,62.5,0.25,95,98.0
234,F3,62.5,0.25,95,98.0
235,B-3,63.0,1.0,95,98.0
236,B-1,63.0,1.0,95,98.0
237,D4,63.0,1.0,95,98.0
238,B-3,63.0,1.0,95,98.0
239,F3,63.0,1.0,95,98.0
240,G4,64.0,0.75,95,98.0
241,F#4,64.0,4.0,95,98.0
242,D2,64.0,1.5,95,98.0
243,A4,64.0,4.0,95,98.0
244,G4,64.0,4.0,95,98.0
245,D4,64.0,4.0,95,98.0
246,E4,64.0,4.0,95,98.0
247,D4,64.0,4.0,95,98.0
248,A4,64.75,2.0,95,98.0
249,D2,65.688,0.25,95,98.0
250,D2,66.25,0.125,95,98.0
251,D2,66.5,1.5,95,98.0
252,G4,66.75,0.5,95,98.0
253,F#4,67.25,0.75,95,98.0
254,F#4,68.0,0.75,95,98.0
255,C2,68.0,1.5,95,98.0
256,G4,68.0,4.0,95,98.0
257,E4,68.0,4.0,95,98.0
258,D4,68.0,4.0,95,98.0
259,E4,68.75,1.0,95,98.0
260,C2,69.688,0.25,95,98.0
261,C2,70.25,0.125,95,98.0
262,C2,70.5,1.5,95,98.0
263,A3,71.25,0.25,95,98.0
264,D4,71.5,0.25,95,98.0
265,E4,71.75,0.25,95,98.0
266,E4,72.0,0.75,95,98.0
267,G4,72.0,4.0,95,98.0
268,B-1,72.0,0.75,95,98.0
269,A4,72.0,1.5,95,98.0
270,F4,72.0,1.5,95,98.0
271,D4,72.0,1.5,95,98.0
272,E4,72.0,4.0,95,98.0
273,D4,72.0,4.0,95,98.0
274,D4,72.75,0.25,95,98.0
275,B-1,72.75,1.0,95,98.0
276,D4,73.25,0.25,95,98.0
277,D4,73.5,0.25,95,98.0
278,F4,73.75,0.25,95,98.0
279,F4,73.75,1.0,95,98.0
280,B-1,73.75,0.125,95,98.0
281,C2,74.0,0.75,95,98.0
282,G4,74.0,1.75,95,98.0
283,E4,74.0,1.75,95,98.0
284,C4,74.0,1.75,95,98.0
285,F4,74.75,0.25,95,98.0
286,C2,74.75,0.75,95,98.0
287,E4,75.25,0.5,95,98.0
288,C2,75.5,0.25,95,98.0
289,D4,75.75,0.25,95,98.0
290,D2,75.75,0.25,95,98.0
291,D4,76.0,2.0,95,98.0
292,G2,76.0,0.75,95,98.0
293,G4,76.0,2.0,95,98.0
294,D4,76.0,2.0,95,98.0
295,B3,76.0,2.0,95,98.0
296,F4,76.0,2.0,95,98.0
297,D4,76.0,2.0,95,98.0
298,C4,76.0,2.0,95,98.0
299,B-3,76.0,2.0,95,98.0
300,G2,76.75,1.0,95,98.0
301,G2,77.75,0.125,95,98.0
302,A2,78.0,0.75,95,98.0
303,G4,78.0,1.0,74,98.0
304,E4,78.0,1.0,74,98.0
305,C4,78.0,1.0,74,98.0
306,G4,78.0,2.0,95,98.0
307,E4,78.0,2.0,95,98.0
308,D4,78.0,2.0,95,98.0
309,C4,78.0,2.0,95,98.0
310,A2,78.75,0.25,95,98.0
311,C4,79.0,0.25,95,98.0
312,C4,79.0,0.25,95,98.0
313,G2,79.0,0.25,95,98.0
314,D4,79.25,0.25,95,98.0
315,D4,79.25,0.25,95,98.0
316,F2,79.25,0.25,95,98.0
317,F4,79.5,0.25,95,98.0
318,F4,79.5,0.25,95,98.0
319,D2,79.5,0.25,95,98.0
320,G4,79.75,0.25,95,98.0
321,A1,79.75,0.25,95,98.0
322,G4,79.75,0.25,95,98.0
323,E4,79.75,0.25,95,98.0
324,G4,79.75,0.25,95,98.0
325,E4,79.75,0.25,95,98.0
326,C4,79.75,0.25,95,98.0
327,A3,79.75,0.25,95,98.0
328,G4,80.0,0.5,95,98.0
329,A1,80.0,0.5,95,98.0
330,G4,80.0,2.0,95,98.0
331,D4,80.0,2.0,95,98.0
332,B3,80.0,2.0,95,98.0
333,G3,80.0,2.0,95,98.0
334,A4,80.5,0.25,95,98.0
335,B-1,80.5,0.25,95,98.0
336,A4,80.5,0.25,95,98.0
337,F4,80.5,0.25,95,98.0
338,G4,80.5,0.5,95,98.0
339,E4,80.5,0.5,95,98.0
340,C4,80.5,0.5,95,98.0
341,A3,80.5,0.5,95,98.0
342,A4,81.0,0.25,95,98.0
343,B-1,81.0,0.25,95,98.0
344,A4,81.0,0.25,95,98.0
345,F4,81.0,0.25,95,98.0
346,F4,81.0,0.5,95,98.0
347,D4,81.0,0.5,95,98.0
348,B-3,81.0,0.5,95,98.0
349,F4,81.5,0.25,95,98.0
350,D4,81.5,0.25,95,98.0
351,B-3,81.5,0.25,95,98.0
352,G4,82.0,1.75,95,98.0
353,E4,82.0,1.75,95,98.0
354,D4,82.0,1.75,95,98.0
355,C4,82.0,1.75,95,98.0
356,A4,82.5,0.25,95,98.0
357,A2,82.5,0.25,95,98.0
358,C5,82.75,0.5,95,98.0
359,G2,82.75,0.25,95,98.0
360,D5,83.25,0.5,95,98.0
361,F2,83.25,0.5,95,98.0
362,A4,83.5,1.0,95,98.0
363,F4,83.5,1.0,95,98.0
364,D4,83.5,1.0,95,98.0
365,G4,83.75,0.25,95,98.0
366,E4,83.75,0.25,95,98.0
367,C4,83.75,0.25,95,98.0
368,E-5,84.0,0.75,95,98.0
369,C2,84.0,0.75,95,98.0
370,G4,84.5,0.75,95,98.0
371,E4,84.5,0.75,95,98.0
372,D4,84.5,0.75,95,98.0
373,C4,84.5,0.75,95,98.0
374,G4,84.5,0.5,95,98.0
375,E4,84.5,0.5,95,98.0
376,C4,84.5,0.5,95,98.0
377,E5,84.75,0.5,95,98.0
378,C2,84.75,0.75,95,98.0
379,A4,85.0,0.5,95,98.0
380,F4,85.0,0.5,95,98.0
381,D4,85.0,0.5,95,98.0
382,C5,85.25,0.25,63,98.0
383,D4,85.25,0.75,95,98.0
384,C4,85.25,0.75,95,98.0
385,E-5,85.5,0.75,95,98.0
386,D2,85.5,0.75,95,98.0
387,A4,85.5,0.25,95,98.0
388,F4,85.5,0.25,95,98.0
389,D4,85.5,0.25,95,98.0
390,G4,86.0,0.75,74,98.0
391,E4,86.0,0.75,74,98.0
392,C4,86.0,0.75,74,98.0
393,E5,86.25,0.75,95,98.0
394,C2,86.25,0.75,95,98.0
395,E4,86.75,0.5,95,98.0
396,C4,86.75,0.5,95,98.0
397,C5,87.0,0.5,95,98.0
398,F1,87.0,0.75,95,98.0
399,G4,87.5,0.75,95,98.0
400,E4,87.5,0.75,95,98.0
401,C4,87.5,0.75,95,98.0
402,A3,87.5,0.75,95,98.0
403,A4,87.5,1.0,95,98.0
404,F4,87.5,1.0,95,98.0
405,D4,87.5,1.0,95,98.0
406,C5,87.75,0.25,95,98.0
407,A1,87.75,0.25,95,98.0
408,C5,88.0,0.25,95,98.0
409,A1,88.0,0.25,95,98.0
410,D5,88.25,0.25,95,98.0
411,B-1,88.25,0.25,95,98.0
412,G4,88.25,0.25,95,98.0
413,E4,88.25,0.25,95,98.0
414,C4,88.25,0.25,95,98.0
415,A3,88.25,0.25,95,98.0
416,D5,88.5,0.5,95,98.0
417,B-1,88.5,0.25,95,98.0
418,G4,88.5,0.25,95,98.0
419,E4,88.5,0.25,95,98.0
420,C4,88.5,0.25,95,98.0
421,A3,88.5,0.25,95,98.0
422,G4,88.5,1.5,95,98.0
423,E4,88.5,1.5,95,98.0
424,D4,88.5,1.5,95,98.0
425,C4,88.5,1.5,95,98.0
426,F4,88.75,0.25,95,98.0
427,D4,88.75,0.25,95,98.0
428,B-3,88.75,0.25,95,98.0
429,D5,89.0,0.25,95,98.0
430,B-1,89.0,0.25,95,98.0
431,F4,89.0,0.5,95,98.0
432,D4,89.0,0.5,95,98.0
433,B-3,89.0,0.5,95,98.0
434,F4,89.5,0.25,95,98.0
435,D4,89.5,0.25,95,98.0
436,B-3,89.5,0.25,95,98.0
437,G4,90.0,0.75,95,98.0
438,D4,90.0,0.75,95,98.0
439,A3,90.0,0.75,95,98.0
440,G4,90.5,0.25,95,98.0
441,G4,90.75,0.5,95,98.0
442,G4,90.75,1.5,95,98.0
443,C4,90.75,1.5,95,98.0
444,A3,90.75,1.5,95,98.0
445,F4,91.25,0.75,95,98.0
446,A4,91.5,1.0,95,98.0
447,F4,91.5,1.0,95,98.0
448,D4,91.5,1.0,95,98.0
449,G4,92.0,0.75,95,98.0
450,A1,92.0,0.75,95,98.0
451,G4,92.25,0.25,95,98.0
452,E4,92.25,0.25,95,98.0
453,C4,92.25,0.25,95,98.0
454,G4,92.5,0.75,95,98.0
455,E4,92.5,0.75,95,98.0
456,D4,92.5,0.75,95,98.0
457,C4,92.5,0.75,95,98.0
458,C5,92.75,0.75,95,98.0
459,C2,92.75,0.75,95,98.0
460,G4,93.0,0.5,95,98.0
461,E4,93.0,0.5,95,98.0
462,C4,93.0,0.5,95,98.0
463,D4,93.25,0.75,95,98.0
464,C4,93.25,0.75,95,98.0
465,A4,93.5,0.75,95,98.0
466,D2,93.5,0.75,95,98.0
467,A4,93.5,0.5,95,98.0
468,F4,93.5,0.5,95,98.0
469,D4,93.5,0.5,95,98.0
470,G4,94.0,0.75,74,98.0
471,E4,94.0,0.75,74,98.0
472,C4,94.0,0.75,74,98.0
473,A4,94.0,0.25,95,98.0
474,F4,94.0,0.25,95,98.0
475,D4,94.0,0.25,95,98.0
476,C5,94.25,0.75,95,98.0
477,C2,94.25,0.75,95,98.0
478,E4,94.75,0.5,95,98.0
479,C4,94.75,0.5,95,98.0
480,E5,95.0,0.75,95,98.0
481,F1,95.0,0.75,95,98.0
482,G4,95.5,0.75,95,98.0
483,E4,95.5,0.75,95,98.0
484,C4,95.5,0.75,95,98.0
485,A3,95.5,0.75,95,98.0
486,A1,95.75,0.25,95,98.0
487,G5,95.75,0.25,79,98.0
488,E5,95.75,0.25,79,98.0
489,A1,96.0,0.25,95,98.0
490,A4,96.0,1.0,95,98.0
491,F4,96.0,1.0,95,98.0
492,D4,96.0,1.0,95,98.0
493,B-1,96.25,0.25,95,98.0
494,A5,96.25,0.25,79,98.0
495,F5,96.25,0.25,79,98.0
496,G4,96.25,0.25,95,98.0
497,E4,96.25,0.25,95,98.0
498,C4,96.25,0.25,95,98.0
499,A3,96.25,0.25,95,98.0
500,B-1,96.5,0.25,95,98.0
501,A5,96.5,0.25,79,98.0
502,F5,96.5,0.25,79,98.0
503,G4,96.5,0.25,95,98.0
504,E4,96.5,0.25,95,98.0
505,C4,96.5,0.25,95,98.0
506,A3,96.5,0.25,95,98.0
507,F4,96.75,0.25,95,98.0
508,D4,96.75,0.25,95,98.0
509,B-3,96.75,0.25,95,98.0
510,B-1,97.0,0.25,95,98.0
511,A5,97.0,0.25,79,98.0
512,F5,97.0,0.25,79,98.0
513,F4,97.0,0.5,95,98.0
514,D4,97.0,0.5,95,98.0
515,B-3,97.0,0.5,95,98.0
516,G4,97.0,1.5,95,98.0
517,E4,97.0,1.5,95,98.0
518,D4,97.0,1.5,95,98.0
519,C4,97.0,1.5,95,98.0
520,F4,97.5,0.25,95,98.0
521,D4,97.5,0.25,95,98.0
522,B-3,97.5,0.25,95,98.0
523,C5,98.5,0.25,95,98.0
524,G4,98.5,0.75,95,98.0
525,D4,98.5,0.75,95,98.0
526,A3,98.5,0.75,95,98.0
527,C5,98.75,0.5,95,98.0
528,A4,99.25,0.75,95,98.0
529,G4,99.25,1.5,95,98.0
530,C4,99.25,1.5,95,98.0
531,A3,99.25,1.5,95,98.0
532,G4,100.0,0.75,95,98.0
533,G3,100.0,0.5,95,98.0
534,C2,100.0,0.5,95,98.0
535,C2,100.5,0.25,95,98.0
536,C4,100.75,1.0,95,98.0
537,C2,100.75,0.75,95,98.0
538,E4,100.75,0.25,95,98.0
539,C4,100.75,0.25,95,98.0
540,G4,100.75,0.25,95,98.0
541,E4,100.75,0.25,95,98.0
542,C4,100.75,0.25,95,98.0
543,G4,101.25,0.25,95,98.0
544,D4,101.25,0.25,95,98.0
545,C2,101.5,0.25,95,98.0
546,G4,101.5,0.5,95,98.0
547,E4,101.5,0.5,95,98.0
548,C4,101.5,0.5,95,98.0
549,C2,101.75,0.25,95,98.0
550,C5,101.75,0.25,95,98.0
551,G4,101.75,0.25,95,98.0
552,A4,102.0,0.5,95,98.0
553,F4,102.0,0.5,95,98.0
554,D4,102.0,0.5,95,98.0
555,D3,102.25,0.25,95,98.0
556,C3,102.5,0.25,95,98.0
557,A4,102.5,0.25,95,98.0
558,F4,102.5,0.25,95,98.0
559,D4,102.5,0.25,95,98.0
560,A2,102.75,0.25,95,98.0
561,G2,103.0,0.25,95,98.0
562,F2,103.25,0.25,95,98.0
563,D4,103.5,0.25,95,98.0
564,E2,103.5,0.25,95,98.0
565,E4,103.75,0.25,95,98.0
566,C2,103.75,0.25,95,98.0
567,F#4,104.0,0.75,95,98.0
568,D2,104.0,0.75,95,98.0
569,D4,104.5,0.75,95,98.0
570,A3,104.5,0.75,95,98.0
571,F#3,104.5,0.75,95,98.0
572,A4,104.5,1.0,95,98.0
573,F4,104.5,1.0,95,98.0
574,D4,104.5,1.0,95,98.0
575,A4,104.75,0.5,95,98.0
576,D2,104.75,0.5,95,98.0
577,D5,105.25,0.5,95,98.0
578,D2,105.25,0.125,95,98.0
579,D4,105.25,0.5,95,98.0
580,A3,105.25,0.5,95,98.0
581,F#3,105.25,0.5,95,98.0
582,D2,105.5,0.125,95,98.0
583,G4,105.5,4.0,95,98.0
584,E4,105.5,4.0,95,98.0
585,D4,105.5,4.0,95,98.0
586,C4,105.5,4.0,95,98.0
587,E5,105.75,0.5,95,98.0
588,A3,105.75,0.25,95,98.0
589,D2,105.75,0.5,95,98.0
590,D4,106.0,0.25,95,98.0
591,E4,106.25,0.75,95,98.0
592,C#4,106.25,0.75,95,98.0
593,A3,106.25,0.75,95,98.0
594,D2,106.5,0.125,95,98.0
595,A5,106.5,0.25,95,98.0
596,D5,106.5,0.25,95,98.0
597,A4,106.5,0.25,95,98.0
598,D2,106.75,0.125,95,98.0
599,D2,107.0,0.25,95,98.0
600,E4,107.0,0.5,95,98.0
601,C#4,107.0,0.5,95,98.0
602,A3,107.0,0.5,95,98.0
603,A4,107.25,0.25,47,98.0
604,D5,107.5,0.25,95,98.0
605,D2,107.5,0.125,95,98.0
606,E4,107.5,0.25,95,98.0
607,C#4,107.5,0.25,95,98.0
608,A3,107.5,0.25,95,98.0
609,E5,107.75,0.25,95,98.0
610,A3,107.75,0.25,95,98.0
611,D2,107.75,0.125,95,98.0
612,E-5,108.0,0.5,95,98.0
613,D4,108.0,0.25,95,98.0
614,B-1,108.0,0.75,95,98.0
615,E4,108.25,0.25,95,98.0
616,E5,108.5,0.25,95,98.0
617,F4,108.5,0.75,95,98.0
618,D4,108.5,0.75,95,98.0
619,B-3,108.5,0.75,95,98.0
620,D5,108.75,0.375,95,98.0
621,B-1,108.75,0.75,95,98.0
622,D5,109.25,0.5,95,98.0
623,F4,109.25,0.5,95,98.0
624,D4,109.25,0.5,95,98.0
625,B-3,109.25,0.5,95,98.0
626,A4,109.5,1.5,95,98.0
627,F#4,109.5,1.5,95,98.0
628,D4,109.5,1.5,95,98.0
629,F5,109.75,1.0,95,98.0
630,D4,109.75,0.25,95,98.0
631,B-1,109.75,0.125,95,98.0
632,E4,110.0,0.5,95,98.0
633,C2,110.0,0.75,95,98.0
634,G4,110.5,0.75,95,98.0
635,E4,110.5,0.75,95,98.0
636,D4,110.5,0.75,95,98.0
637,C4,110.5,0.75,95,98.0
638,F5,110.75,0.375,95,98.0
639,C2,110.75,0.5,95,98.0
640,A4,111.0,2.5,95,98.0
641,E4,111.0,2.5,95,98.0
642,C#4,111.0,2.5,95,98.0
643,E5,111.25,0.75,95,98.0
644,C2,111.25,0.25,95,98.0
645,G4,111.25,0.5,95,98.0
646,E4,111.25,0.5,95,98.0
647,D4,111.25,0.5,95,98.0
648,C4,111.25,0.5,95,98.0
649,C2,111.5,0.25,95,98.0
650,C2,111.75,0.25,95,98.0
651,G4,111.75,0.25,95,98.0
652,E4,111.75,0.25,95,98.0
653,D4,111.75,0.25,95,98.0
654,C4,111.75,0.25,95,98.0
655,D5,112.0,1.0,95,98.0
656,D4,112.0,0.25,95,98.0
657,G1,112.0,0.75,95,98.0
658,E4,112.25,0.25,95,98.0
659,G4,112.5,0.75,95,98.0
660,D4,112.5,0.75,95,98.0
661,B3,112.5,0.75,95,98.0
662,G1,112.75,0.75,95,98.0
663,G4,113.25,0.75,95,98.0
664,D4,113.25,0.75,95,98.0
665,B3,113.25,0.75,95,98.0
666,A4,113.5,1.75,95,98.0
667,F4,113.5,1.75,95,98.0
668,D4,113.5,1.75,95,98.0
669,G1,113.75,0.125,95,98.0
670,E5,114.0,0.5,95,98.0
671,D4,114.0,0.25,95,98.0
672,A1,114.0,0.75,95,98.0
673,G4,114.25,0.25,95,98.0
674,F5,114.5,0.25,95,98.0
675,G4,114.5,0.75,95,98.0
676,E4,114.5,0.75,95,98.0
677,D4,114.5,0.75,95,98.0
678,C4,114.5,0.75,95,98.0
679,E5,114.75,0.5,95,98.0
680,A1,114.75,0.75,95,98.0
681,C5,115.25,0.5,95,98.0
682,G4,115.25,1.25,95,98.0
683,E4,115.25,1.25,95,98.0
684,D4,115.25,1.25,95,98.0
685,C4,115.25,1.25,95,98.0
686,G4,115.25,2.25,95,98.0
687,E4,115.25,2.25,95,98.0
688,C4,115.25,2.25,95,98.0
689,D5,115.75,0.25,95,98.0
690,A1,115.75,0.25,95,98.0
691,D5,116.0,2.0,95,98.0
692,D4,116.0,1.0,95,98.0
693,B-1,116.0,0.25,95,98.0
694,B-1,116.25,0.25,95,98.0
695,B-1,116.5,0.25,95,98.0
696,F4,116.5,0.75,95,98.0
697,D4,116.5,0.75,95,98.0
698,C4,116.5,0.75,95,98.0
699,B-3,116.5,0.75,95,98.0
700,B-1,116.75,0.25,95,98.0
701,F4,117.0,0.5,95,98.0
702,B-1,117.0,0.5,95,98.0
703,F4,117.25,0.75,95,98.0
704,D4,117.25,0.75,95,98.0
705,C4,117.25,0.75,95,98.0
706,B-3,117.25,0.75,95,98.0
707,A4,117.5,0.5,95,98.0
708,B-1,117.5,0.25,95,98.0
709,G4,117.5,1.75,95,98.0
710,D4,117.5,1.75,95,98.0
711,B3,117.5,1.75,95,98.0
712,B-1,117.75,0.25,95,98.0
713,G4,118.0,0.75,95,98.0
714,D4,118.0,0.25,95,98.0
715,C2,118.0,0.5,95,98.0
716,F4,118.25,0.25,95,98.0
717,C2,118.5,0.25,95,98.0
718,G4,118.5,0.75,95,98.0
719,E4,118.5,0.75,95,98.0
720,D4,118.5,0.75,95,98.0
721,C4,118.5,0.75,95,98.0
722,F4,118.75,0.5,95,98.0
723,C2,118.75,0.5,95,98.0
724,E4,119.25,0.75,95,98.0
725,C2,119.25,0.25,95,98.0
726,G4,119.25,1.25,95,98.0
727,E4,119.25,1.25,95,98.0
728,D4,119.25,1.25,95,98.0
729,C4,119.25,1.25,95,98.0
730,G4,119.25,2.25,95,98.0
731,E4,119.25,2.25,95,98.0
732,C4,119.25,2.25,95,98.0
733,A1,119.5,0.25,95,98.0
734,C2,119.75,0.25,95,98.0
735,D4,120.0,2.0,95,98.0
736,D2,120.0,0.75,95,98.0
737,D4,120.5,0.75,95,98.0
738,A3,120.5,0.75,95,98.0
739,F#3,120.5,0.75,95,98.0
740,D2,120.75,0.5,95,98.0
741,A4,120.75,0.5,95,98.0
742,A3,120.75,0.5,95,98.0
743,D2,121.25,0.125,95,98.0
744,D5,121.25,0.5,95,98.0
745,D4,121.25,0.5,95,98.0
746,D4,121.25,0.5,95,98.0
747,A3,121.25,0.5,95,98.0
748,F#3,121.25,0.5,95,98.0
749,D2,121.5,0.125,95,98.0
750,A4,121.5,1.75,95,98.0
751,F4,121.5,1.75,95,98.0
752,D4,121.5,1.75,95,98.0
753,A3,121.75,0.25,95,98.0
754,D2,121.75,0.5,95,98.0
755,E5,121.75,0.75,95,98.0
756,E4,121.75,0.75,95,98.0
757,D4,122.0,0.25,95,98.0
758,E4,122.25,0.75,95,98.0
759,C#4,122.25,0.75,95,98.0
760,A3,122.25,0.75,95,98.0
761,D2,122.5,0.125,95,98.0
762,A5,122.5,0.25,95,98.0
763,D5,122.5,0.25,95,98.0
764,A4,122.5,0.25,95,98.0
765,D2,122.75,0.125,95,98.0
766,D2,123.0,0.25,95,98.0
767,E4,123.0,0.5,95,98.0
768,C#4,123.0,0.5,95,98.0
769,A3,123.0,0.5,95,98.0
770,A4,123.25,0.25,47,98.0
771,G4,123.25,2.25,95,98.0
772,E4,123.25,2.25,95,98.0
773,C4,123.25,2.25,95,98.0
774,F5,123.5,0.25,95,98.0
775,D2,123.5,0.125,95,98.0
776,E4,123.5,0.25,95,98.0
777,C#4,123.5,0.25,95,98.0
778,A3,123.5,0.25,95,98.0
779,G5,123.75,0.25,95,98.0
780,A3,123.75,0.25,95,98.0
781,D2,123.75,0.125,95,98.0
782,G5,124.0,0.75,95,98.0
783,D4,124.0,0.25,95,98.0
784,B-1,124.0,0.75,95,98.0
785,E4,124.25,0.25,95,98.0
786,F4,124.5,0.75,95,98.0
787,D4,124.5,0.75,95,98.0
788,B-3,124.5,0.75,95,98.0
789,G5,124.75,0.375,95,98.0
790,B-1,124.75,0.75,95,98.0
791,F5,125.25,0.5,95,98.0
792,F4,125.25,0.5,95,98.0
793,D4,125.25,0.5,95,98.0
794,B-3,125.25,0.5,95,98.0
795,A4,125.5,1.5,95,98.0
796,F#4,125.5,1.5,95,98.0
797,D4,125.5,1.5,95,98.0
798,F5,125.75,1.0,95,98.0
799,D4,125.75,0.25,95,98.0
800,B-1,125.75,0.125,95,98.0
801,E4,126.0,0.5,95,98.0
802,C2,126.0,0.75,95,98.0
803,G4,126.5,0.75,95,98.0
804,E4,126.5,0.75,95,98.0
805,D4,126.5,0.75,95,98.0
806,C4,126.5,0.75,95,98.0
807,F5,126.75,0.375,95,98.0
808,C2,126.75,0.5,95,98.0
809,A4,127.0,2.5,95,98.0
810,E4,127.0,2.5,95,98.0
811,C#4,127.0,2.5,95,98.0
812,E5,127.25,0.75,95,98.0
813,C2,127.25,0.25,95,98.0
814,G4,127.25,0.5,95,98.0
815,E4,127.25,0.5,95,98.0
816,D4,127.25,0.5,95,98.0
817,C4,127.25,0.5,95,98.0
818,C2,127.5,0.25,95,98.0
819,C2,127.75,0.25,95,98.0
820,G4,127.75,0.25,95,98.0
821,E4,127.75,0.25,95,98.0
822,D4,127.75,0.25,95,98.0
823,C4,127.75,0.25,95,98.0
824,D5,128.0,1.0,95,98.0
825,D4,128.0,0.25,95,98.0
826,G1,128.0,0.75,95,98.0
827,G3,128.0,0.75,95,98.0
828,D3,128.0,0.75,95,98.0
829,E4,128.25,0.25,95,98.0
830,G4,128.5,0.75,95,98.0
831,D4,128.5,0.75,95,98.0
832,B3,128.5,0.75,95,98.0
833,G1,128.75,0.75,95,98.0
834,D4,128.75,2.0,95,98.0
835,D3,128.75,2.0,95,98.0
836,G4,129.25,0.75,95,98.0
837,D4,129.25,0.75,95,98.0
838,B3,129.25,0.75,95,98.0
839,A4,129.5,1.75,95,98.0
840,F4,129.5,1.75,95,98.0
841,D4,129.5,1.75,95,98.0
842,G1,129.75,0.125,95,98.0
843,C5,130.0,0.5,95,98.0
844,D4,130.0,0.25,95,98.0
845,A1,130.0,0.75,95,98.0
846,G4,130.25,0.25,95,98.0
847,E5,130.5,0.25,95,98.0
848,G4,130.5,0.75,95,98.0
849,E4,130.5,0.75,95,98.0
850,D4,130.5,0.75,95,98.0
851,C4,130.5,0.75,95,98.0
852,C5,130.75,0.375,95,98.0
853,A1,130.75,0.75,95,98.0
854,A4,131.25,0.5,95,98.0
855,G4,131.25,1.25,95,98.0
856,E4,131.25,1.25,95,98.0
857,D4,131.25,1.25,95,98.0
858,C4,131.25,1.25,95,98.0
859,G4,131.25,2.25,95,98.0
860,E4,131.25,2.25,95,98.0
861,C4,131.25,2.25,95,98.0
862,A1,131.75,0.25,95,98.0
863,C5,132.0,0.75,95,98.0
864,D4,132.0,0.75,95,98.0
865,B-1,132.0,0.25,95,98.0
866,B-1,132.25,0.25,95,98.0
867,B-1,132.5,0.25,95,98.0
868,F4,132.5,0.75,95,98.0
869,D4,132.5,0.75,95,98.0
870,C4,132.5,0.75,95,98.0
871,B-3,132.5,0.75,95,98.0
872,C5,132.75,0.25,95,98.0
873,C4,132.75,0.5,95,98.0
874,B-1,132.75,0.25,95,98.0
875,B-1,133.0,0.5,95,98.0
876,F4,133.25,0.75,95,98.0
877,D4,133.25,0.75,95,98.0
878,C4,133.25,0.75,95,98.0
879,B-3,133.25,0.75,95,98.0
880,E-5,133.5,0.75,95,98.0
881,F4,133.5,0.75,95,98.0
882,B-1,133.5,0.25,95,98.0
883,G4,133.5,1.75,95,98.0
884,D4,133.5,1.75,95,98.0
885,B3,133.5,1.75,95,98.0
886,B-1,133.75,0.25,95,98.0
887,D4,134.0,0.25,95,98.0
888,C2,134.0,0.5,95,98.0
889,E5,134.25,0.5,95,98.0
890,E4,134.25,0.5,95,98.0
891,F4,134.25,0.25,95,98.0
892,C2,134.5,0.25,95,98.0
893,G4,134.5,0.75,95,98.0
894,E4,134.5,0.75,95,98.0
895,D4,134.5,0.75,95,98.0
896,C4,134.5,0.75,95,98.0
897,C2,134.75,0.5,95,98.0
898,C4,135.0,0.5,95,98.0
899,C6,135.0,0.5,95,98.0
900,C5,135.0,0.5,95,98.0
901,C2,135.25,0.25,95,98.0
902,G4,135.25,1.0,95,98.0
903,E4,135.25,1.0,95,98.0
904,D4,135.25,1.0,95,98.0
905,C4,135.25,1.0,95,98.0
906,G4,135.25,2.25,95,98.0
907,E4,135.25,2.25,95,98.0
908,C4,135.25,2.25,95,98.0
909,A1,135.5,0.25,95,98.0
910,C6,135.75,0.25,95,98.0
911,C5,135.75,0.25,95,98.0
912,C4,135.75,0.25,95,98.0
913,C2,135.75,0.25,95,98.0
914,C5,136.0,0.25,95,98.0
915,C4,136.0,0.25,95,98.0
916,C2,136.0,0.25,95,98.0
917,D4,136.25,0.25,95,98.0
918,D2,136.25,0.25,95,98.0
919,D6,136.25,0.25,95,98.0
920,D5,136.25,0.25,95,98.0
921,G4,136.25,0.25,95,98.0
922,E4,136.25,0.25,95,98.0
923,D4,136.25,0.25,95,98.0
924,C4,136.25,0.25,95,98.0
925,A3,136.5,0.25,95,98.0
926,D4,136.75,0.5,95,98.0
927,G4,136.75,0.25,95,98.0
928,E4,136.75,0.25,95,98.0
929,D4,136.75,0.25,95,98.0
930,C4,136.75,0.25,95,98.0
931,F4,137.0,0.25,95,98.0
932,D4,137.0,0.25,95,98.0
933,A3,137.0,0.25,95,98.0
934,D3,137.0,0.25,95,98.0
935,D4,137.25,0.5,95,98.0
936,A4,137.5,1.75,95,98.0
937,F4,137.5,1.75,95,98.0
938,D4,137.5,1.75,95,98.0
939,F4,137.75,0.5,95,98.0
940,F4,138.25,0.5,95,98.0
941,F4,138.75,0.25,95,98.0
942,E4,139.0,0.5,95,98.0
943,G4,139.25,2.25,95,98.0
944,E4,139.25,2.25,95,98.0
945,C4,139.25,2.25,95,98.0
946,E4,139.5,0.5,95,98.0
947,A3,140.5,0.25,95,98.0
948,D4,140.75,0.5,95,98.0
949,F4,141.25,0.5,95,98.0
950,G4,141.75,0.5,95,98.0
951,G4,142.25,0.5,95,98.0
952,A4,142.75,0.25,95,98.0
953,G4,143.0,0.5,95,98.0
954,F4,143.5,0.5,95,98.0
955,A3,144.5,0.25,95,98.0
956,D4,144.75,0.5,95,98.0
957,D4,145.25,0.5,95,98.0
958,F4,145.75,0.5,95,98.0
959,F4,146.25,0.5,95,98.0
960,F4,146.75,0.25,95,98.0
961,E4,147.0,0.5,95,98.0
962,E4,147.5,0.5,95,98.0
963,A3,148.5,0.25,95,98.0
964,D4,148.75,0.5,95,98.0
965,F4,149.25,0.5,95,98.0
966,G4,149.75,0.5,95,98.0
967,G4,150.25,0.5,95,98.0
968,A4,150.75,0.25,95,98.0
969,G4,151.0,0.5,95,98.0
970,F4,151.5,0.25,95,98.0
971,F4,151.5,0.5,95,98.0
972,F4,151.75,0.25,95,98.0
973,D4,152.0,0.25,95,98.0
974,D2,152.0,4.0,63,98.0
975,C4,152.25,0.25,95,98.0
976,D4,152.5,1.0,95,98.0
977,A3,152.5,0.25,95,98.0
978,D4,152.75,0.5,95,98.0
979,D4,153.25,0.5,95,98.0
980,F4,153.75,0.5,95,98.0
981,F4,154.25,0.5,95,98.0
982,F4,154.75,0.25,95,98.0
983,E4,155.0,0.5,95,98.0
984,E4,155.5,0.5,95,98.0
985,B-1,156.0,4.0,63,98.0
986,A3,156.5,0.25,95,98.0
987,D4,156.75,0.5,95,98.0
988,F4,157.25,0.5,95,98.0
989,G4,157.75,0.5,95,98.0
990,F3,158.0,0.5,95,98.0
991,G4,158.25,0.5,95,98.0
992,F3,158.5,0.25,95,98.0
993,D3,158.75,0.25,95,98.0
994,A4,158.75,0.25,95,98.0
995,D3,159.0,0.25,47,98.0
996,G4,159.0,0.5,95,98.0
997,C3,159.25,0.25,95,98.0
998,C3,159.5,0.25,47,98.0
999,F4,159.5,0.5,95,98.0
1000,F3,159.75,0.25,95,98.0
1001,D2,160.0,4.0,63,98.0
1002,D3,160.25,0.5,95,98.0
1003,A3,160.5,0.25,95,98.0
1004,D3,160.75,2.0,95,98.0
1005,D4,160.75,0.5,95,98.0
1006,D4,161.25,0.5,95,98.0
1007,F4,161.75,0.5,95,98.0
1008,F4,162.25,0.5,95,98.0
1009,F4,162.75,0.25,95,98.0
1010,E4,163.0,0.5,95,98.0
1011,E4,163.5,0.5,95,98.0
1012,B-1,164.0,4.0,63,98.0
1013,A3,164.5,0.25,95,98.0
1014,D4,164.75,0.5,95,98.0
1015,A2,165.25,0.25,95,98.0
1016,F4,165.25,0.5,95,98.0
1017,C3,165.5,0.25,95,98.0
1018,D3,165.75,0.25,95,98.0
1019,G4,165.75,0.5,95,98.0
1020,C3,166.0,0.25,95,98.0
1021,F3,166.25,0.25,95,98.0
1022,G4,166.25,0.5,95,98.0
1023,G3,166.5,0.25,95,98.0
1024,A3,166.75,0.25,95,98.0
1025,A4,166.75,0.25,95,98.0
1026,C4,167.0,0.25,95,98.0
1027,G4,167.0,0.5,95,98.0
1028,A3,167.25,0.25,95,98.0
1029,D4,167.5,0.25,95,98.0
1030,F4,167.5,0.5,95,98.0
1031,C4,167.75,0.25,95,98.0
1032,F4,168.0,0.25,95,98.0
1033,D2,168.0,4.0,63,98.0
1034,F4,168.25,0.25,95,98.0
1035,E4,168.5,0.25,95,98.0
1036,A3,168.5,0.25,95,98.0
1037,D4,168.75,0.25,95,98.0
1038,D4,168.75,0.5,95,98.0
1039,E4,169.0,0.25,95,98.0
1040,E4,169.25,0.25,95,98.0
1041,D4,169.25,0.5,95,98.0
1042,D4,169.5,0.25,95,98.0
1043,C4,169.75,0.25,95,98.0
1044,F4,169.75,0.5,95,98.0
1045,D4,170.0,0.25,47,98.0
1046,D4,170.25,0.25,95,98.0
1047,F4,170.25,0.5,95,98.0
1048,D4,170.5,0.25,47,98.0
1049,D4,170.75,0.75,95,98.0
1050,F4,170.75,0.25,95,98.0
1051,E4,171.0,0.5,95,98.0
1052,C4,171.5,0.5,95,98.0
1053,E4,171.5,0.5,95,98.0
1054,B-1,172.0,4.0,63,98.0
1055,A3,172.5,0.25,95,98.0
1056,D4,172.75,0.5,95,98.0
1057,D4,173.25,0.25,95,98.0
1058,F4,173.25,0.5,95,98.0
1059,C4,173.5,0.25,95,98.0
1060,A3,173.75,0.25,95,98.0
1061,G4,173.75,0.5,95,98.0
1062,D4,174.0,0.25,95,98.0
1063,F4,174.25,0.25,95,98.0
1064,G4,174.25,0.5,95,98.0
1065,G4,174.5,0.25,95,98.0
1066,G4,174.75,0.25,63,98.0
1067,A4,174.75,0.25,95,98.0
1068,A4,175.0,0.25,95,98.0
1069,G4,175.0,0.5,95,98.0
1070,D5,175.25,0.25,95,98.0
1071,C5,175.5,0.25,95,98.0
1072,F4,175.5,0.5,95,98.0
1073,A4,175.75,0.25,95,98.0
1074,C5,176.0,0.5,95,98.0
1075,A3,176.0,0.75,79,98.0
1076,D2,176.0,1.5,95,98.0
1077,F5,176.5,0.25,95,98.0
1078,D3,176.75,4.0,95,98.0
1079,D5,176.75,0.5,95,98.0
1080,D4,176.75,0.75,79,98.0
1081,D4,177.5,0.25,79,98.0
1082,D5,177.75,0.5,95,98.0
1083,G5,177.75,1.0,95,98.0
1084,C4,177.75,0.75,79,98.0
1085,D2,177.75,0.25,95,98.0
1086,C5,178.25,0.5,95,98.0
1087,F4,178.25,0.25,95,98.0
1088,D4,178.25,0.25,95,98.0
1089,A3,178.25,0.25,95,98.0
1090,C4,178.5,0.5,79,98.0
1091,D2,178.5,1.5,95,98.0
1092,E4,178.5,2.25,95,98.0
1093,C4,178.5,2.25,95,98.0
1094,G3,178.5,2.25,95,98.0
1095,A4,178.75,0.5,95,98.0
1096,C4,179.0,0.5,79,98.0
1097,D5,179.25,0.5,87,98.0
1098,A4,179.25,0.5,87,98.0
1099,D5,179.75,0.25,95,98.0
1100,A4,179.75,0.25,95,98.0
1101,D4,180.0,0.75,95,98.0
1102,D2,180.0,0.75,95,98.0
1103,D5,180.0,0.5,95,98.0
1104,A4,180.0,0.5,95,98.0
1105,D4,180.5,0.25,95,98.0
1106,C4,180.75,0.75,95,98.0
1107,C2,180.75,0.75,95,98.0
1108,F4,180.75,0.75,95,98.0
1109,D4,180.75,0.75,95,98.0
1110,A3,180.75,0.75,95,98.0
1111,D4,181.0,0.25,95,98.0
1112,F4,181.25,0.25,95,98.0
1113,E4,181.5,0.25,95,98.0
1114,A3,181.5,1.0,95,98.0
1115,A1,181.5,1.0,95,98.0
1116,E4,181.5,0.75,95,98.0
1117,C4,181.5,0.75,95,98.0
1118,G3,181.5,0.75,95,98.0
1119,F4,181.5,4.0,63,98.0
1120,D4,181.5,4.0,63,98.0
1121,A3,181.5,4.0,63,98.0
1122,C4,181.75,0.25,95,98.0
1123,D4,182.0,0.25,95,98.0
1124,F4,182.25,0.25,95,98.0
1125,C4,182.25,1.0,95,98.0
1126,A3,182.25,1.0,95,98.0
1127,D4,182.5,0.25,95,98.0
1128,B-3,182.5,0.5,95,98.0
1129,B-1,182.5,0.25,95,98.0
1130,G4,182.75,0.25,95,98.0
1131,A4,183.0,0.25,95,98.0
1132,B-3,183.0,1.0,95,98.0
1133,B-1,183.0,1.0,95,98.0
1134,G4,183.25,0.25,95,98.0
1135,D4,183.25,0.25,95,98.0
1136,B-3,183.25,0.25,95,98.0
1137,F3,183.25,0.25,95,98.0
1138,C5,183.5,0.25,95,98.0
1139,A4,183.75,0.25,95,98.0
1140,D4,183.75,1.0,95,98.0
1141,B-3,183.75,1.0,95,98.0
1142,F3,183.75,1.0,95,98.0
1143,C5,184.0,0.5,95,98.0
1144,A3,184.0,0.75,79,98.0
1145,D2,184.0,1.5,95,98.0
1146,F5,184.5,0.25,95,98.0
1147,D3,184.75,4.0,95,98.0
1148,D5,184.75,0.5,95,98.0
1149,D4,184.75,0.75,79,98.0
1150,D4,185.5,0.25,79,98.0
1151,C4,185.75,0.75,79,98.0
1152,D2,185.75,0.25,95,98.0
1153,F4,186.25,0.25,95,98.0
1154,D4,186.25,0.25,95,98.0
1155,A3,186.25,0.25,95,98.0
1156,A5,186.25,0.5,95,98.0
1157,F5,186.25,0.5,95,98.0
1158,C4,186.5,0.5,79,98.0
1159,D2,186.5,1.5,95,98.0
1160,E4,186.5,2.25,95,98.0
1161,C4,186.5,2.25,95,98.0
1162,G3,186.5,2.25,95,98.0
1163,A5,186.75,0.75,95,98.0
1164,F5,186.75,0.75,95,98.0
1165,C4,187.0,0.5,79,98.0
1166,D5,187.5,0.25,95,98.0
1167,C5,187.75,0.25,95,98.0
1168,D5,188.0,0.25,95,98.0
1169,D4,188.0,0.75,95,98.0
1170,D2,188.0,0.75,95,98.0
1171,D5,188.25,0.25,63,98.0
1172,C5,188.5,0.25,95,98.0
1173,G4,188.75,0.25,95,98.0
1174,C4,188.75,0.75,95,98.0
1175,C2,188.75,0.75,95,98.0
1176,A4,188.75,0.75,100,98.0
1177,F4,188.75,0.75,100,98.0
1178,D4,188.75,0.75,100,98.0
1179,F4,189.0,0.25,95,98.0
1180,G4,189.25,0.25,95,98.0
1181,A4,189.5,0.25,95,98.0
1182,A3,189.5,1.0,95,98.0
1183,A1,189.5,1.0,95,98.0
1184,G4,189.5,0.75,100,98.0
1185,E4,189.5,0.75,100,98.0
1186,C4,189.5,0.75,100,98.0
1187,F4,189.75,1.0,95,98.0
1188,E4,190.25,1.0,100,98.0
1189,C4,190.25,1.0,100,98.0
1190,G3,190.25,1.0,100,98.0
1191,B-3,190.5,0.5,95,98.0
1192,B-1,190.5,0.25,95,98.0
1193,A2,190.75,0.25,95,98.0
1194,C3,191.0,0.25,95,98.0
1195,B-3,191.0,1.0,95,98.0
1196,B-1,191.0,1.0,95,98.0
1197,D3,191.25,0.25,95,98.0
1198,D4,191.25,0.25,95,98.0
1199,B-3,191.25,0.25,95,98.0
1200,F3,191.25,0.25,95,98.0
1201,F3,191.5,0.25,95,98.0
1202,C6,191.5,0.25,47,98.0
1203,C5,191.5,0.25,47,98.0
1204,D3,191.75,0.25,95,98.0
1205,C6,191.75,0.25,79,98.0
1206,C5,191.75,0.25,79,98.0
1207,D4,191.75,1.0,95,98.0
1208,B-3,191.75,1.0,95,98.0
1209,F3,191.75,1.0,95,98.0
1210,G3,192.0,0.25,95,98.0
1211,A3,192.0,0.75,79,98.0
1212,D2,192.0,1.5,95,98.0
1213,C6,192.0,0.25,79,98.0
1214,C5,192.0,0.25,79,98.0
1215,A3,192.25,0.25,95,98.0
1216,D6,192.25,0.25,79,98.0
1217,D5,192.25,0.25,79,98.0
1218,F3,192.5,0.25,95,98.0
1219,D3,192.75,4.0,95,98.0
1220,D3,192.75,0.5,95,98.0
1221,D4,192.75,0.75,79,98.0
1222,D4,193.25,0.5,95,98.0
1223,D4,193.5,0.25,79,98.0
1224,D4,193.75,0.75,95,98.0
1225,C4,193.75,0.75,79,98.0
1226,D2,193.75,0.25,95,98.0
1227,F4,194.25,0.25,95,98.0
1228,D4,194.25,0.25,95,98.0
1229,A3,194.25,0.25,95,98.0
1230,C4,194.5,0.25,95,98.0
1231,C4,194.5,0.5,79,98.0
1232,D2,194.5,1.5,95,98.0
1233,E4,194.5,2.25,95,98.0
1234,C4,194.5,2.25,95,98.0
1235,G3,194.5,2.25,95,98.0
1236,D4,194.75,0.25,95,98.0
1237,G3,195.0,0.25,95,98.0
1238,C4,195.0,0.5,79,98.0
1239,F3,195.25,0.25,95,98.0
1240,G3,195.5,0.25,95,98.0
1241,A3,195.75,0.25,95,98.0
1242,F3,196.0,0.25,95,98.0
1243,D4,196.0,0.75,95,98.0
1244,D2,196.0,0.75,95,98.0
1245,D3,196.25,0.5,95,98.0
1246,D4,196.75,0.5,95,98.0
1247,C4,196.75,0.75,95,98.0
1248,C2,196.75,0.75,95,98.0
1249,F4,196.75,0.75,95,98.0
1250,D4,196.75,0.75,95,98.0
1251,A3,196.75,0.75,95,98.0
1252,C4,197.25,0.25,95,98.0
1253,A3,197.5,1.0,95,98.0
1254,A1,197.5,1.0,95,98.0
1255,E4,197.5,0.75,95,98.0
1256,C4,197.5,0.75,95,98.0
1257,G3,197.5,0.75,95,98.0
1258,A4,197.75,1.0,63,98.0
1259,F4,197.75,0.75,95,98.0
1260,C4,198.25,1.0,95,98.0
1261,A3,198.25,1.0,95,98.0
1262,D4,198.5,0.25,95,98.0
1263,B-3,198.5,0.5,95,98.0
1264,B-1,198.5,0.25,95,98.0
1265,C4,198.75,0.25,95,98.0
1266,D4,199.0,0.25,95,98.0
1267,B-3,199.0,1.0,95,98.0
1268,B-1,199.0,1.0,95,98.0
1269,F4,199.25,0.25,95,98.0
1270,D4,199.25,0.25,95,98.0
1271,B-3,199.25,0.25,95,98.0
1272,F3,199.25,0.25,95,98.0
1273,D4,199.75,1.0,95,98.0
1274,B-3,199.75,1.0,95,98.0
1275,F3,199.75,1.0,95,98.0
1276,A4,199.75,0.25,79,98.0
1277,F4,199.75,0.25,79,98.0
1278,A3,200.0,0.75,79,98.0
1279,D2,200.0,1.5,95,98.0
1280,A4,200.0,0.5,79,98.0
1281,F4,200.0,0.5,79,98.0
1282,D4,200.5,0.25,95,98.0
1283,D3,200.75,4.0,95,98.0
1284,C4,200.75,0.25,95,98.0
1285,D4,200.75,0.75,79,98.0
1286,C5,201.25,0.5,95,98.0
1287,D4,201.5,0.25,79,98.0
1288,D5,201.75,0.75,95,98.0
1289,C4,201.75,0.75,79,98.0
1290,D2,201.75,0.25,95,98.0
1291,F4,202.25,0.25,95,98.0
1292,D4,202.25,0.25,95,98.0
1293,A3,202.25,0.25,95,98.0
1294,C5,202.5,0.25,95,98.0
1295,C4,202.5,0.5,79,98.0
1296,D2,202.5,1.5,95,98.0
1297,E4,202.5,2.25,95,98.0
1298,C4,202.5,2.25,95,98.0
1299,G3,202.5,2.25,95,98.0
1300,A4,202.75,0.25,95,98.0
1301,G4,203.0,0.25,95,98.0
1302,C4,203.0,0.5,79,98.0
1303,F4,203.25,0.25,95,98.0
1304,G4,203.5,0.25,95,98.0
1305,A4,203.75,0.25,95,98.0
1306,F4,204.0,0.25,95,98.0
1307,D4,204.0,0.75,95,98.0
1308,D2,204.0,0.75,95,98.0
1309,D4,204.25,0.25,95,98.0
1310,C4,204.5,0.25,95,98.0
1311,A3,204.75,0.25,95,98.0
1312,C4,204.75,0.75,95,98.0
1313,C2,204.75,0.75,95,98.0
1314,A4,204.75,0.75,100,98.0
1315,F4,204.75,0.75,100,98.0
1316,D4,204.75,0.75,100,98.0
1317,G3,205.0,0.25,95,98.0
1318,F3,205.25,0.25,95,98.0
1319,F4,205.5,0.25,95,98.0
1320,A3,205.5,1.0,95,98.0
1321,A1,205.5,1.0,95,98.0
1322,G4,205.5,0.75,100,98.0
1323,E4,205.5,0.75,100,98.0
1324,C4,205.5,0.75,100,98.0
1325,C4,205.75,0.25,95,98.0
1326,D4,206.0,2.0,95,98.0
1327,E4,206.25,1.0,100,98.0
1328,C4,206.25,1.0,100,98.0
1329,G3,206.25,1.0,100,98.0
1330,B-3,206.5,0.5,95,98.0
1331,B-1,206.5,0.25,95,98.0
1332,B-3,207.0,1.0,95,98.0
1333,B-1,207.0,1.0,95,98.0
1334,D4,207.25,0.25,95,98.0
1335,B-3,207.25,0.25,95,98.0
1336,F3,207.25,0.25,95,98.0
1337,A4,207.75,0.25,95,98.0
1338,D4,207.75,1.0,95,98.0
1339,B-3,207.75,1.0,95,98.0
1340,F3,207.75,1.0,95,98.0
1341,G5,208.0,1.75,95,98.0
1342,D4,208.0,2.0,95,98.0
1343,G2,208.0,0.75,95,98.0
1344,G2,208.75,1.0,95,98.0
1345,G4,208.75,2.0,95,98.0
1346,D4,208.75,2.0,95,98.0
1347,B3,208.75,2.0,95,98.0
1348,F5,209.75,0.5,95,98.0
1349,G2,209.75,0.125,95,98.0
1350,A2,210.0,0.75,95,98.0
1351,F5,210.25,0.25,95,98.0
1352,D5,210.5,0.25,95,98.0
1353,C5,210.75,0.25,95,98.0
1354,A2,210.75,0.25,95,98.0
1355,G4,210.75,1.0,74,98.0
1356,E4,210.75,1.0,74,98.0
1357,C4,210.75,1.0,74,98.0
1358,D5,211.0,0.25,95,98.0
1359,C4,211.0,0.25,95,98.0
1360,G2,211.0,0.25,95,98.0
1361,C5,211.25,0.25,95,98.0
1362,D4,211.25,0.25,95,98.0
1363,F2,211.25,0.25,95,98.0
1364,G4,211.5,0.25,95,98.0
1365,F4,211.5,0.25,95,98.0
1366,D2,211.5,0.25,95,98.0
1367,C4,211.75,0.25,95,98.0
1368,G4,211.75,0.25,95,98.0
1369,A1,211.75,0.25,95,98.0
1370,G4,211.75,0.25,95,98.0
1371,E4,211.75,0.25,95,98.0
1372,D4,212.0,0.25,95,98.0
1373,G4,212.0,0.5,95,98.0
1374,A1,212.0,0.5,95,98.0
1375,F4,212.25,0.25,95,98.0
1376,A4,212.5,0.25,95,98.0
1377,B-1,212.5,0.25,95,98.0
1378,G4,212.5,0.5,95,98.0
1379,E4,212.5,0.5,95,98.0
1380,G4,212.5,0.25,95,98.0
1381,E4,212.5,0.25,95,98.0
1382,C4,212.5,0.25,95,98.0
1383,A3,212.5,0.25,95,98.0
1384,A4,213.0,0.25,95,98.0
1385,B-1,213.0,0.25,95,98.0
1386,A4,213.0,0.25,95,98.0
1387,F4,213.0,0.25,95,98.0
1388,G4,213.25,0.5,95,98.0
1389,E4,213.25,0.5,95,98.0
1390,C4,213.25,0.5,95,98.0
1391,A3,213.25,0.5,95,98.0
1392,A4,213.5,0.25,95,98.0
1393,F4,213.5,0.25,95,98.0
1394,F4,213.5,4.0,63,98.0
1395,D4,213.5,4.0,63,98.0
1396,A3,213.5,4.0,63,98.0
1397,F4,213.75,0.5,95,98.0
1398,D4,213.75,0.5,95,98.0
1399,B-3,213.75,0.5,95,98.0
1400,F4,214.25,0.25,95,98.0
1401,D4,214.25,0.25,95,98.0
1402,B-3,214.25,0.25,95,98.0
1403,A2,214.5,0.25,95,98.0
1404,G2,214.75,0.25,95,98.0
1405,A4,215.0,0.25,95,98.0
1406,C5,215.25,0.5,95,98.0
1407,F2,215.25,0.5,95,98.0
1408,D5,215.75,0.5,95,98.0
1409,C2,216.0,0.75,95,98.0
1410,A4,216.25,1.0,95,98.0
1411,F4,216.25,1.0,95,98.0
1412,D4,216.25,1.0,95,98.0
1413,E-5,216.5,0.75,95,98.0
1414,C2,216.75,0.75,95,98.0
1415,E5,217.25,0.5,95,98.0
1416,G4,217.25,0.75,95,98.0
1417,E4,217.25,0.75,95,98.0
1418,D4,217.25,0.75,95,98.0
1419,C4,217.25,0.75,95,98.0
1420,D2,217.5,0.75,95,98.0
1421,C5,217.75,0.25,63,98.0
1422,E-5,218.0,0.75,95,98.0
1423,D4,218.0,0.75,95,98.0
1424,C4,218.0,0.75,95,98.0
1425,C2,218.25,0.75,95,98.0
1426,G5,218.75,0.75,95,98.0
1427,G4,218.75,0.75,74,98.0
1428,E4,218.75,0.75,74,98.0
1429,C4,218.75,0.75,74,98.0
1430,F1,219.0,0.75,95,98.0
1431,E5,219.5,0.5,95,98.0
1432,E4,219.5,0.5,95,98.0
1433,C4,219.5,0.5,95,98.0
1434,A1,219.75,0.25,95,98.0
1435,A1,220.0,0.25,95,98.0
1436,C5,220.25,0.25,95,98.0
1437,B-1,220.25,0.25,95,98.0
1438,G4,220.25,0.75,95,98.0
1439,E4,220.25,0.75,95,98.0
1440,C4,220.25,0.75,95,98.0
1441,A3,220.25,0.75,95,98.0
1442,C5,220.5,0.25,95,98.0
1443,B-1,220.5,0.25,95,98.0
1444,D5,220.75,0.25,95,98.0
1445,D5,221.0,0.5,95,98.0
1446,B-1,221.0,0.25,95,98.0
1447,G4,221.0,0.25,95,98.0
1448,E4,221.0,0.25,95,98.0
1449,C4,221.0,0.25,95,98.0
1450,A3,221.0,0.25,95,98.0
1451,G4,221.25,0.25,95,98.0
1452,E4,221.25,0.25,95,98.0
1453,C4,221.25,0.25,95,98.0
1454,A3,221.25,0.25,95,98.0
1455,D5,221.5,0.25,95,98.0
1456,F4,221.5,0.25,95,98.0
1457,D4,221.5,0.25,95,98.0
1458,B-3,221.5,0.25,95,98.0
1459,F4,221.75,0.5,95,98.0
1460,D4,221.75,0.5,95,98.0
1461,B-3,221.75,0.5,95,98.0
1462,F4,222.25,0.25,95,98.0
1463,D4,222.25,0.25,95,98.0
1464,B-3,222.25,0.25,95,98.0
1465,G4,223.0,0.25,95,98.0
1466,G4,223.25,0.5,95,98.0
1467,F4,223.75,0.75,95,98.0
1468,A1,224.0,0.75,95,98.0
1469,A4,224.25,1.0,95,98.0
1470,F4,224.25,1.0,95,98.0
1471,D4,224.25,1.0,95,98.0
1472,G4,224.5,0.75,95,98.0
1473,C2,224.75,0.75,95,98.0
1474,C5,225.25,0.75,95,98.0
1475,G4,225.25,0.75,95,98.0
1476,E4,225.25,0.75,95,98.0
1477,D4,225.25,0.75,95,98.0
1478,C4,225.25,0.75,95,98.0
1479,D2,225.5,0.75,95,98.0
1480,A4,226.0,0.75,95,98.0
1481,D4,226.0,0.75,95,98.0
1482,C4,226.0,0.75,95,98.0
1483,C2,226.25,0.75,95,98.0
1484,C5,226.75,0.75,95,98.0
1485,G4,226.75,0.75,74,98.0
1486,E4,226.75,0.75,74,98.0
1487,C4,226.75,0.75,74,98.0
1488,F1,227.0,0.75,95,98.0
1489,E5,227.5,0.75,95,98.0
1490,E4,227.5,0.5,95,98.0
1491,C4,227.5,0.5,95,98.0
1492,A1,227.75,0.25,95,98.0
1493,A1,228.0,0.25,95,98.0
1494,B-1,228.25,0.25,95,98.0
1495,G5,228.25,0.25,79,98.0
1496,E5,228.25,0.25,79,98.0
1497,G4,228.25,0.75,95,98.0
1498,E4,228.25,0.75,95,98.0
1499,C4,228.25,0.75,95,98.0
1500,A3,228.25,0.75,95,98.0
1501,B-1,228.5,0.25,95,98.0
1502,A5,228.75,0.25,79,98.0
1503,F5,228.75,0.25,79,98.0
1504,B-1,229.0,0.25,95,98.0
1505,A5,229.0,0.25,79,98.0
1506,F5,229.0,0.25,79,98.0
1507,G4,229.0,0.25,95,98.0
1508,E4,229.0,0.25,95,98.0
1509,C4,229.0,0.25,95,98.0
1510,A3,229.0,0.25,95,98.0
1511,G4,229.25,0.25,95,98.0
1512,E4,229.25,0.25,95,98.0
1513,C4,229.25,0.25,95,98.0
1514,A3,229.25,0.25,95,98.0
1515,A5,229.5,0.25,79,98.0
1516,F5,229.5,0.25,79,98.0
1517,F4,229.5,0.25,95,98.0
1518,D4,229.5,0.25,95,98.0
1519,B-3,229.5,0.25,95,98.0
1520,F4,229.75,0.5,95,98.0
1521,D4,229.75,0.5,95,98.0
1522,B-3,229.75,0.5,95,98.0
1523,F4,230.25,0.25,95,98.0
1524,D4,230.25,0.25,95,98.0
1525,B-3,230.25,0.25,95,98.0
1526,C5,231.0,0.25,95,98.0
1527,C5,231.25,0.5,95,98.0
1528,A4,231.75,0.75,95,98.0
1529,G3,232.0,0.5,95,98.0
1530,C2,232.0,0.5,95,98.0
1531,G4,232.5,0.75,95,98.0
1532,C2,232.5,0.25,95,98.0
1533,C2,232.75,0.75,95,98.0
1534,E4,232.75,0.25,95,98.0
1535,C4,232.75,0.25,95,98.0
1536,C4,233.25,1.0,95,98.0
1537,G4,233.25,0.25,95,98.0
1538,D4,233.25,0.25,95,98.0
1539,C2,233.5,0.25,95,98.0
1540,C2,233.75,0.25,95,98.0
1541,C5,233.75,0.25,95,98.0
1542,G4,233.75,0.25,95,98.0
1543,D3,234.25,0.25,95,98.0
1544,C3,234.5,0.25,95,98.0
1545,A2,234.75,0.25,95,98.0
1546,G2,235.0,0.25,95,98.0
1547,F2,235.25,0.25,95,98.0
1548,E2,235.5,0.25,95,98.0
1549,C2,235.75,0.25,95,98.0
1550,D4,236.0,0.25,95,98.0
1551,D2,236.0,0.75,95,98.0
1552,E4,236.25,0.25,95,98.0
1553,F#4,236.5,0.75,95,98.0
1554,D2,236.75,0.5,95,98.0
1555,A4,237.25,0.5,95,98.0
1556,D2,237.25,0.125,95,98.0
1557,D4,237.25,0.75,95,98.0
1558,A3,237.25,0.75,95,98.0
1559,F#3,237.25,0.75,95,98.0
1560,D2,237.5,0.125,95,98.0
1561,D5,237.75,0.5,95,98.0
1562,D2,237.75,0.5,95,98.0
1563,D4,238.0,0.5,95,98.0
1564,A3,238.0,0.5,95,98.0
1565,F#3,238.0,0.5,95,98.0
1566,E5,238.25,0.5,95,98.0
1567,A3,238.5,0.25,95,98.0
1568,D2,238.5,0.125,95,98.0
1569,A5,238.5,0.25,95,98.0
1570,D5,238.5,0.25,95,98.0
1571,A4,238.5,0.25,95,98.0
1572,D4,238.75,0.25,95,98.0
1573,D2,238.75,0.125,95,98.0
1574,D2,239.0,0.25,95,98.0
1575,E4,239.0,0.75,95,98.0
1576,C#4,239.0,0.75,95,98.0
1577,A3,239.0,0.75,95,98.0
1578,D2,239.5,0.125,95,98.0
1579,D2,239.75,0.125,95,98.0
1580,E4,239.75,0.5,95,98.0
1581,C#4,239.75,0.5,95,98.0
1582,A3,239.75,0.5,95,98.0
1583,D5,240.0,0.25,95,98.0
1584,B-1,240.0,0.75,95,98.0
1585,E5,240.25,0.25,95,98.0
1586,E4,240.25,0.25,95,98.0
1587,C#4,240.25,0.25,95,98.0
1588,A3,240.25,0.25,95,98.0
1589,E-5,240.5,0.5,95,98.0
1590,A3,240.5,0.25,95,98.0
1591,D4,240.75,0.25,95,98.0
1592,B-1,240.75,0.75,95,98.0
1593,E5,241.0,0.25,95,98.0
1594,E4,241.0,0.25,95,98.0
1595,D5,241.25,0.375,95,98.0
1596,F4,241.25,0.75,95,98.0
1597,D4,241.25,0.75,95,98.0
1598,B-3,241.25,0.75,95,98.0
1599,F4,241.5,4.0,63,98.0
1600,D4,241.5,4.0,63,98.0
1601,A3,241.5,4.0,63,98.0
1602,D5,241.75,0.5,95,98.0
1603,B-1,241.75,0.125,95,98.0
1604,C2,242.0,0.75,95,98.0
1605,F4,242.0,0.5,95,98.0
1606,D4,242.0,0.5,95,98.0
1607,B-3,242.0,0.5,95,98.0
1608,F5,242.25,1.0,95,98.0
1609,D4,242.5,0.25,95,98.0
1610,E4,242.75,0.5,95,98.0
1611,C2,242.75,0.5,95,98.0
1612,F5,243.25,0.375,95,98.0
1613,C2,243.25,0.25,95,98.0
1614,G4,243.25,0.75,95,98.0
1615,E4,243.25,0.75,95,98.0
1616,D4,243.25,0.75,95,98.0
1617,C4,243.25,0.75,95,98.0
1618,C2,243.5,0.25,95,98.0
1619,E5,243.75,0.75,95,98.0
1620,C2,243.75,0.25,95,98.0
1621,G1,244.0,0.75,95,98.0
1622,G4,244.0,0.5,95,98.0
1623,E4,244.0,0.5,95,98.0
1624,D4,244.0,0.5,95,98.0
1625,C4,244.0,0.5,95,98.0
1626,D5,244.5,1.0,95,98.0
1627,G4,244.5,0.25,95,98.0
1628,E4,244.5,0.25,95,98.0
1629,D4,244.5,0.25,95,98.0
1630,C4,244.5,0.25,95,98.0
1631,D4,244.75,0.25,95,98.0
1632,G1,244.75,0.75,95,98.0
1633,E4,245.0,0.25,95,98.0
1634,G4,245.25,0.75,95,98.0
1635,D4,245.25,0.75,95,98.0
1636,B3,245.25,0.75,95,98.0
1637,G1,245.75,0.125,95,98.0
1638,A1,246.0,0.75,95,98.0
1639,G4,246.0,0.75,95,98.0
1640,D4,246.0,0.75,95,98.0
1641,B3,246.0,0.75,95,98.0
1642,E5,246.5,0.5,95,98.0
1643,D4,246.75,0.25,95,98.0
1644,A1,246.75,0.75,95,98.0
1645,F5,247.0,0.25,95,98.0
1646,G4,247.0,0.25,95,98.0
1647,E5,247.25,0.5,95,98.0
1648,G4,247.25,0.75,95,98.0
1649,E4,247.25,0.75,95,98.0
1650,D4,247.25,0.75,95,98.0
1651,C4,247.25,0.75,95,98.0
1652,C5,247.75,0.5,95,98.0
1653,A1,247.75,0.25,95,98.0
1654,D4,247.75,0.25,95,98.0
1655,D3,247.75,0.25,95,98.0
1656,B-1,248.0,0.25,95,98.0
1657,G4,248.0,1.25,95,98.0
1658,E4,248.0,1.25,95,98.0
1659,D4,248.0,1.25,95,98.0
1660,C4,248.0,1.25,95,98.0
1661,D5,248.25,0.25,95,98.0
1662,B-1,248.25,0.25,95,98.0
1663,D4,248.25,0.25,95,98.0
1664,D3,248.25,0.25,95,98.0
1665,D5,248.5,2.0,95,98.0
1666,B-1,248.5,0.25,95,98.0
1667,B-1,248.75,0.25,95,98.0
1668,D4,248.75,0.25,95,98.0
1669,D3,248.75,0.25,95,98.0
1670,B-1,249.0,0.5,95,98.0
1671,F4,249.0,0.5,95,98.0
1672,F3,249.0,0.5,95,98.0
1673,F4,249.25,0.75,95,98.0
1674,D4,249.25,0.75,95,98.0
1675,C4,249.25,0.75,95,98.0
1676,B-3,249.25,0.75,95,98.0
1677,B-1,249.5,0.25,95,98.0
1678,A4,249.5,0.5,95,98.0
1679,A3,249.5,0.5,95,98.0
1680,B-1,249.75,0.25,95,98.0
1681,C2,250.0,0.5,95,98.0
1682,G4,250.0,0.75,95,98.0
1683,G3,250.0,0.75,95,98.0
1684,F4,250.0,0.75,95,98.0
1685,D4,250.0,0.75,95,98.0
1686,C4,250.0,0.75,95,98.0
1687,B-3,250.0,0.75,95,98.0
1688,C2,250.5,0.25,95,98.0
1689,D4,250.75,0.25,95,98.0
1690,C2,250.75,0.5,95,98.0
1691,F4,250.75,0.5,95,98.0
1692,F3,250.75,0.5,95,98.0
1693,F4,251.0,0.25,95,98.0
1694,C2,251.25,0.25,95,98.0
1695,E4,251.25,0.75,95,98.0
1696,E3,251.25,0.75,95,98.0
1697,G4,251.25,0.75,95,98.0
1698,E4,251.25,0.75,95,98.0
1699,D4,251.25,0.75,95,98.0
1700,C4,251.25,0.75,95,98.0
1701,A1,251.5,0.25,95,98.0
1702,C2,251.75,0.25,95,98.0
1703,D2,252.0,0.75,95,98.0
1704,D4,252.0,2.0,95,98.0
1705,D3,252.0,2.0,95,98.0
1706,G4,252.0,1.25,95,98.0
1707,E4,252.0,1.25,95,98.0
1708,D4,252.0,1.25,95,98.0
1709,C4,252.0,1.25,95,98.0
1710,D2,252.75,0.5,95,98.0
1711,D2,253.25,0.125,95,98.0
1712,A4,253.25,0.5,95,98.0
1713,A3,253.25,0.5,95,98.0
1714,D4,253.25,0.75,95,98.0
1715,A3,253.25,0.75,95,98.0
1716,F#3,253.25,0.75,95,98.0
1717,D2,253.5,0.125,95,98.0
1718,D2,253.75,0.5,95,98.0
1719,D5,253.75,0.5,95,98.0
1720,D4,253.75,0.5,95,98.0
1721,D4,254.0,0.5,95,98.0
1722,A3,254.0,0.5,95,98.0
1723,F#3,254.0,0.5,95,98.0
1724,E5,254.25,0.75,95,98.0
1725,E4,254.25,0.75,95,98.0
1726,A3,254.5,0.25,95,98.0
1727,D2,254.5,0.125,95,98.0
1728,A5,254.5,0.25,95,98.0
1729,D5,254.5,0.25,95,98.0
1730,A4,254.5,0.25,95,98.0
1731,D4,254.75,0.25,95,98.0
1732,D2,254.75,0.125,95,98.0
1733,D2,255.0,0.25,95,98.0
1734,E4,255.0,0.75,95,98.0
1735,C#4,255.0,0.75,95,98.0
1736,A3,255.0,0.75,95,98.0
1737,D2,255.5,0.125,95,98.0
1738,D2,255.75,0.125,95,98.0
1739,E4,255.75,0.5,95,98.0
1740,C#4,255.75,0.5,95,98.0
1741,A3,255.75,0.5,95,98.0
1742,F5,256.0,0.25,95,98.0
1743,B-1,256.0,0.75,95,98.0
1744,G5,256.25,0.25,95,98.0
1745,E4,256.25,0.25,95,98.0
1746,C#4,256.25,0.25,95,98.0
1747,A3,256.25,0.25,95,98.0
1748,G5,256.5,0.75,95,98.0
1749,A3,256.5,0.25,95,98.0
1750,D4,256.75,0.25,95,98.0
1751,B-1,256.75,0.75,95,98.0
1752,E4,257.0,0.25,95,98.0
1753,G5,257.25,0.375,95,98.0
1754,F4,257.25,0.75,95,98.0
1755,D4,257.25,0.75,95,98.0
1756,B-3,257.25,0.75,95,98.0
1757,F5,257.75,0.5,95,98.0
1758,B-1,257.75,0.125,95,98.0
1759,C2,258.0,0.75,95,98.0
1760,F4,258.0,0.5,95,98.0
1761,D4,258.0,0.5,95,98.0
1762,B-3,258.0,0.5,95,98.0
1763,F5,258.25,1.0,95,98.0
1764,D4,258.5,0.25,95,98.0
1765,E4,258.75,0.5,95,98.0
1766,C2,258.75,0.5,95,98.0
1767,F5,259.25,0.375,95,98.0
1768,C2,259.25,0.25,95,98.0
1769,G4,259.25,0.75,95,98.0
1770,E4,259.25,0.75,95,98.0
1771,D4,259.25,0.75,95,98.0
1772,C4,259.25,0.75,95,98.0
1773,C2,259.5,0.25,95,98.0
1774,E5,259.75,0.75,95,98.0
1775,C2,259.75,0.25,95,98.0
1776,G1,260.0,0.75,95,98.0
1777,G4,260.0,0.5,95,98.0
1778,E4,260.0,0.5,95,98.0
1779,D4,260.0,0.5,95,98.0
1780,C4,260.0,0.5,95,98.0
1781,G3,260.0,0.75,95,98.0
1782,D3,260.0,0.75,95,98.0
1783,D5,260.5,1.0,95,98.0
1784,G4,260.5,0.25,95,98.0
1785,E4,260.5,0.25,95,98.0
1786,D4,260.5,0.25,95,98.0
1787,C4,260.5,0.25,95,98.0
1788,D4,260.75,0.25,95,98.0
1789,G1,260.75,0.75,95,98.0
1790,D4,260.75,2.0,95,98.0
1791,D3,260.75,2.0,95,98.0
1792,E4,261.0,0.25,95,98.0
1793,G4,261.25,0.75,95,98.0
1794,D4,261.25,0.75,95,98.0
1795,B3,261.25,0.75,95,98.0
1796,G1,261.75,0.125,95,98.0
1797,A1,262.0,0.75,95,98.0
1798,G4,262.0,0.75,95,98.0
1799,D4,262.0,0.75,95,98.0
1800,B3,262.0,0.75,95,98.0
1801,C5,262.5,0.5,95,98.0
1802,D4,262.75,0.25,95,98.0
1803,A1,262.75,0.75,95,98.0
1804,E5,263.0,0.25,95,98.0
1805,G4,263.0,0.25,95,98.0
1806,C5,263.25,0.375,95,98.0
1807,G4,263.25,0.75,95,98.0
1808,E4,263.25,0.75,95,98.0
1809,D4,263.25,0.75,95,98.0
1810,C4,263.25,0.75,95,98.0
1811,A4,263.75,0.5,95,98.0
1812,A1,263.75,0.25,95,98.0
1813,G4,264.0,1.25,95,98.0
1814,E4,264.0,1.25,95,98.0
1815,D4,264.0,1.25,95,98.0
1816,C4,264.0,1.25,95,98.0
1817,D5,264.25,0.25,95,98.0
1818,D4,264.25,0.25,95,98.0
1819,B-1,264.25,0.25,95,98.0
1820,D4,264.25,0.25,95,98.0
1821,B-3,264.25,0.25,95,98.0
1822,D5,264.75,0.25,95,98.0
1823,D5,264.75,0.25,95,98.0
1824,D4,264.75,0.25,95,98.0
1825,B-1,264.75,0.25,95,98.0
1826,C5,265.0,0.5,95,98.0
1827,C4,265.0,0.5,95,98.0
1828,B-1,265.0,0.75,95,98.0
1829,D4,265.0,0.75,95,98.0
1830,B-3,265.0,0.75,95,98.0
1831,D5,265.25,0.25,95,98.0
1832,C5,265.5,0.5,95,98.0
1833,F4,265.5,0.25,95,98.0
1834,D4,265.5,0.25,95,98.0
1835,C4,265.5,0.25,95,98.0
1836,B-3,265.5,0.25,95,98.0
1837,F4,265.5,4.0,63,98.0
1838,D4,265.5,4.0,63,98.0
1839,A3,265.5,4.0,63,98.0
1840,F5,265.75,0.25,95,98.0
1841,F4,265.75,0.25,95,98.0
1842,C2,265.75,0.25,95,98.0
1843,E4,265.75,0.25,95,98.0
1844,C4,265.75,0.25,95,98.0
1845,F4,266.0,0.25,95,98.0
1846,D4,266.0,0.25,95,98.0
1847,C4,266.0,0.25,95,98.0
1848,B-3,266.0,0.25,95,98.0
1849,F5,266.25,0.25,95,98.0
1850,F5,266.25,0.25,95,98.0
1851,F4,266.25,0.25,95,98.0
1852,C2,266.25,0.25,95,98.0
1853,F4,266.25,0.5,95,98.0
1854,D4,266.25,0.5,95,98.0
1855,C4,266.25,0.5,95,98.0
1856,B-3,266.25,0.5,95,98.0
1857,E5,266.5,0.5,95,98.0
1858,E4,266.5,0.5,95,98.0
1859,C2,266.5,0.5,95,98.0
1860,E4,266.5,0.5,95,98.0
1861,C4,266.5,0.5,95,98.0
1862,F5,266.75,0.25,95,98.0
1863,E5,267.0,0.5,95,98.0
1864,G4,267.0,0.25,95,98.0
1865,E4,267.0,0.25,95,98.0
1866,D4,267.0,0.25,95,98.0
1867,C4,267.0,0.25,95,98.0
1868,D5,267.25,0.25,95,98.0
1869,D4,267.25,0.25,95,98.0
1870,B-1,267.25,0.25,95,98.0
1871,D4,267.25,0.25,95,98.0
1872,B-3,267.25,0.25,95,98.0
1873,G4,267.5,0.25,95,98.0
1874,E4,267.5,0.25,95,98.0
1875,D4,267.5,0.25,95,98.0
1876,C4,267.5,0.25,95,98.0
1877,D5,267.75,0.25,95,98.0
1878,D5,267.75,0.25,95,98.0
1879,D4,267.75,0.25,95,98.0
1880,B-1,267.75,0.25,95,98.0
1881,G4,267.75,0.5,95,98.0
1882,E4,267.75,0.5,95,98.0
1883,D4,267.75,0.5,95,98.0
1884,C4,267.75,0.5,95,98.0
1885,C5,268.0,0.5,95,98.0
1886,C4,268.0,0.5,95,98.0
1887,B-1,268.0,0.75,95,98.0
1888,D4,268.0,0.75,95,98.0
1889,B-3,268.0,0.75,95,98.0
1890,D5,268.25,0.25,95,98.0
1891,C5,268.5,0.5,95,98.0
1892,F4,268.5,0.25,95,98.0
1893,D4,268.5,0.25,95,98.0
1894,C4,268.5,0.25,95,98.0
1895,B-3,268.5,0.25,95,98.0
1896,F5,268.75,0.25,95,98.0
1897,F4,268.75,0.25,95,98.0
1898,C2,268.75,0.25,95,98.0
1899,E4,268.75,0.25,95,98.0
1900,C4,268.75,0.25,95,98.0
1901,F4,269.0,0.25,95,98.0
1902,D4,269.0,0.25,95,98.0
1903,C4,269.0,0.25,95,98.0
1904,B-3,269.0,0.25,95,98.0
1905,F5,269.25,0.25,95,98.0
1906,F5,269.25,0.25,95,98.0
1907,F4,269.25,0.25,95,98.0
1908,C2,269.25,0.25,95,98.0
1909,F4,269.25,0.5,95,98.0
1910,D4,269.25,0.5,95,98.0
1911,C4,269.25,0.5,95,98.0
1912,B-3,269.25,0.5,95,98.0
1913,E5,269.5,0.5,95,98.0
1914,E4,269.5,0.5,95,98.0
1915,C2,269.5,0.5,95,98.0
1916,E4,269.5,0.25,95,98.0
1917,C4,269.5,0.25,95,98.0
1918,F5,269.75,0.25,95,98.0
1919,G5,270.0,0.5,95,98.0
1920,E5,270.0,0.5,95,98.0
1921,A4,270.0,0.5,95,98.0
1922,C2,270.0,0.5,95,98.0
1923,G4,270.0,0.25,95,98.0
1924,E4,270.0,0.25,95,98.0
1925,D4,270.0,0.25,95,98.0
1926,C4,270.0,0.25,95,98.0
1927,F4,270.0,0.5,95,98.0
1928,C4,270.0,0.5,95,98.0
1929,G5,270.5,0.5,95,98.0
1930,G5,270.5,0.5,95,98.0
1931,G4,270.5,0.5,95,98.0
1932,C2,270.5,0.5,95,98.0
1933,G4,270.5,0.25,95,98.0
1934,E4,270.5,0.25,95,98.0
1935,D4,270.5,0.25,95,98.0
1936,C4,270.5,0.25,95,98.0
1937,E4,270.5,0.5,95,98.0
1938,C4,270.5,0.5,95,98.0
1939,G4,270.75,0.5,95,98.0
1940,E4,270.75,0.5,95,98.0
1941,D4,270.75,0.5,95,98.0
1942,C4,270.75,0.5,95,98.0
1943,G5,271.0,0.5,95,98.0
1944,D5,271.25,0.25,95,98.0
1945,D4,271.25,0.25,95,98.0
1946,B-1,271.25,0.25,95,98.0
1947,D4,271.25,0.25,95,98.0
1948,B-3,271.25,0.25,95,98.0
1949,D5,271.75,0.25,95,98.0
1950,D5,271.75,0.25,95,98.0
1951,D4,271.75,0.25,95,98.0
1952,B-1,271.75,0.25,95,98.0
1953,C5,272.0,0.5,95,98.0
1954,C4,272.0,0.5,95,98.0
1955,B-1,272.0,0.75,95,98.0
1956,D4,272.0,0.75,95,98.0
1957,B-3,272.0,0.75,95,98.0
1958,D5,272.25,0.25,95,98.0
1959,C5,272.5,0.5,95,98.0
1960,F4,272.5,0.25,95,98.0
1961,D4,272.5,0.25,95,98.0
1962,C4,272.5,0.25,95,98.0
1963,B-3,272.5,0.25,95,98.0
1964,F5,272.75,0.25,95,98.0
1965,F4,272.75,0.25,95,98.0
1966,C2,272.75,0.25,95,98.0
1967,E4,272.75,0.25,95,98.0
1968,C4,272.75,0.25,95,98.0
1969,F4,273.0,0.25,95,98.0
1970,D4,273.0,0.25,95,98.0
1971,C4,273.0,0.25,95,98.0
1972,B-3,273.0,0.25,95,98.0
1973,F5,273.25,0.25,95,98.0
1974,F5,273.25,0.25,95,98.0
1975,F4,273.25,0.25,95,98.0
1976,C2,273.25,0.25,95,98.0
1977,F4,273.25,0.5,95,98.0
1978,D4,273.25,0.5,95,98.0
1979,C4,273.25,0.5,95,98.0
1980,B-3,273.25,0.5,95,98.0
1981,E5,273.5,0.25,95,98.0
1982,E4,273.5,0.25,95,98.0
1983,C2,273.5,0.5,95,98.0
1984,E4,273.5,0.5,95,98.0
1985,C4,273.5,0.5,95,98.0
1986,D5,273.75,0.25,95,98.0
1987,F5,273.75,0.25,95,98.0
1988,D4,273.75,0.25,95,98.0
1989,C5,274.0,0.25,95,98.0
1990,E5,274.0,0.25,95,98.0
1991,C4,274.0,0.25,95,98.0
1992,G4,274.0,0.25,95,98.0
1993,E4,274.0,0.25,95,98.0
1994,D4,274.0,0.25,95,98.0
1995,C4,274.0,0.25,95,98.0
1996,D5,274.25,0.25,95,98.0
1997,D5,274.25,0.25,95,98.0
1998,D4,274.25,0.25,95,98.0
1999,B-1,274.25,0.25,95,98.0
2000,D4,274.25,0.25,95,98.0
2001,B-3,274.25,0.25,95,98.0
2002,C5,274.5,0.25,95,98.0
2003,G4,274.5,0.25,95,98.0
2004,E4,274.5,0.25,95,98.0
2005,D4,274.5,0.25,95,98.0
2006,C4,274.5,0.25,95,98.0
2007,D5,274.75,0.25,95,98.0
2008,D5,274.75,0.25,95,98.0
2009,D4,274.75,0.25,95,98.0
2010,B-1,274.75,0.25,95,98.0
2011,G4,274.75,0.5,95,98.0
2012,E4,274.75,0.5,95,98.0
2013,D4,274.75,0.5,95,98.0
2014,C4,274.75,0.5,95,98.0
2015,C5,275.0,0.5,95,98.0
2016,C4,275.0,0.5,95,98.0
2017,B-1,275.0,0.75,95,98.0
2018,D4,275.0,0.75,95,98.0
2019,B-3,275.0,0.75,95,98.0
2020,D5,275.25,0.25,95,98.0
2021,C5,275.5,0.5,95,98.0
2022,F4,275.5,0.25,95,98.0
2023,D4,275.5,0.25,95,98.0
2024,C4,275.5,0.25,95,98.0
2025,B-3,275.5,0.25,95,98.0
2026,F5,275.75,0.25,95,98.0
2027,F4,275.75,0.25,95,98.0
2028,C2,275.75,0.25,95,98.0
2029,E4,275.75,0.25,95,98.0
2030,C4,275.75,0.25,95,98.0
2031,F4,276.0,0.25,95,98.0
2032,D4,276.0,0.25,95,98.0
2033,C4,276.0,0.25,95,98.0
2034,B-3,276.0,0.25,95,98.0
2035,F5,276.25,0.25,95,98.0
2036,F5,276.25,0.25,95,98.0
2037,F4,276.25,0.25,95,98.0
2038,C2,276.25,0.25,95,98.0
2039,F4,276.25,0.5,95,98.0
2040,D4,276.25,0.5,95,98.0
2041,C4,276.25,0.5,95,98.0
2042,B-3,276.25,0.5,95,98.0
2043,E5,276.5,0.5,95,98.0
2044,E4,276.5,0.5,95,98.0
2045,C2,276.5,0.5,95,98.0
2046,E4,276.5,0.25,95,98.0
2047,C4,276.5,0.25,95,98.0
2048,F5,276.75,0.25,95,98.0
2049,F5,277.0,0.5,95,98.0
2050,E5,277.0,0.5,95,98.0
2051,F4,277.0,0.5,95,98.0
2052,C2,277.0,0.5,95,98.0
2053,G4,277.0,0.25,95,98.0
2054,E4,277.0,0.25,95,98.0
2055,D4,277.0,0.25,95,98.0
2056,C4,277.0,0.25,95,98.0
2057,F4,277.0,0.5,95,98.0
2058,C4,277.0,0.5,95,98.0
2059,G5,277.5,0.5,95,98.0
2060,F5,277.5,0.5,95,98.0
2061,G4,277.5,0.5,95,98.0
2062,C2,277.5,0.5,95,98.0
2063,G4,277.5,0.25,95,98.0
2064,E4,277.5,0.25,95,98.0
2065,D4,277.5,0.25,95,98.0
2066,C4,277.5,0.25,95,98.0
2067,E4,277.5,0.5,95,98.0
2068,C4,277.5,0.5,95,98.0
2069,G4,277.75,0.5,95,98.0
2070,E4,277.75,0.5,95,98.0
2071,D4,277.75,0.5,95,98.0
2072,C4,277.75,0.5,95,98.0
2073,A5,278.0,2.0,95,98.0
2074,G5,278.0,0.5,95,98.0
2075,G4,278.0,0.75,95,98.0
2076,D2,278.0,1.5,95,98.0
2077,A4,278.75,2.0,95,98.0
2078,A4,279.25,4.0,95,98.0
2079,G4,279.25,4.0,95,98.0
2080,D4,279.25,4.0,95,98.0
2081,D2,279.688,0.25,95,98.0
2082,D2,280.25,0.125,95,98.0
2083,D2,280.5,1.5,95,98.0
2084,G4,280.75,0.5,95,98.0
2085,F#4,281.25,0.75,95,98.0
2086,F#4,282.0,0.75,95,98.0
2087,C2,282.0,1.5,95,98.0
2088,E4,282.75,1.0,95,98.0
2089,G4,283.25,4.0,95,98.0
2090,E4,283.25,4.0,95,98.0
2091,D4,283.25,4.0,95,98.0
2092,C2,283.688,0.25,95,98.0
2093,C2,284.25,0.125,95,98.0
2094,C2,284.5,1.5,95,98.0
2095,A3,285.25,0.25,95,98.0
2096,D4,285.5,0.25,95,98.0
2097,F4,285.5,4.0,63,98.0
2098,D4,285.5,4.0,63,98.0
2099,A3,285.5,4.0,63,98.0
2100,E4,285.75,0.25,95,98.0
2101,E4,286.0,0.75,95,98.0
2102,B-1,286.0,0.75,95,98.0
2103,D4,286.75,0.25,95,98.0
2104,B-1,286.75,1.0,95,98.0
2105,D4,287.25,0.25,95,98.0
2106,A4,287.25,1.5,95,98.0
2107,F4,287.25,1.5,95,98.0
2108,D4,287.25,1.5,95,98.0
2109,F4,287.75,1.0,95,98.0
2110,B-1,287.75,0.125,95,98.0
2111,C2,288.0,0.75,95,98.0
2112,D4,288.75,0.25,95,98.0
2113,F4,288.75,0.25,95,98.0
2114,C2,288.75,0.75,95,98.0
2115,F4,289.0,0.25,95,98.0
2116,E4,289.25,0.5,95,98.0
2117,G4,289.25,1.75,95,98.0
2118,E4,289.25,1.75,95,98.0
2119,C4,289.25,1.75,95,98.0
2120,C2,289.5,0.25,95,98.0
2121,D2,289.75,0.25,95,98.0
2122,D4,290.0,2.0,95,98.0
2123,G2,290.0,0.75,95,98.0
2124,G2,290.75,1.0,95,98.0
2125,D4,291.0,0.25,95,98.0
2126,G4,291.25,2.0,95,98.0
2127,D4,291.25,2.0,95,98.0
2128,B3,291.25,2.0,95,98.0
2129,G2,291.75,0.125,95,98.0
2130,A2,292.0,0.75,95,98.0
2131,A2,292.75,0.25,95,98.0
2132,C4,293.0,0.25,95,98.0
2133,G2,293.0,0.25,95,98.0
2134,D4,293.25,0.25,95,98.0
2135,F2,293.25,0.25,95,98.0
2136,G4,293.25,1.0,74,98.0
2137,E4,293.25,1.0,74,98.0
2138,C4,293.25,1.0,74,98.0
2139,F4,293.5,0.25,95,98.0
2140,D2,293.5,0.25,95,98.0
2141,G4,293.75,0.25,95,98.0
2142,A1,293.75,0.25,95,98.0
2143,G4,294.0,0.5,95,98.0
2144,A1,294.0,0.5,95,98.0
2145,C4,294.25,0.25,95,98.0
2146,G4,294.25,0.25,95,98.0
2147,E4,294.25,0.25,95,98.0
2148,D4,294.5,0.25,95,98.0
2149,A4,294.5,0.25,95,98.0
2150,B-1,294.5,0.25,95,98.0
2151,F4,294.75,0.25,95,98.0
2152,A4,295.0,0.25,95,98.0
2153,B-1,295.0,0.25,95,98.0
2154,A4,295.0,0.25,95,98.0
2155,F4,295.0,0.25,95,98.0
2156,G4,295.0,0.25,95,98.0
2157,E4,295.0,0.25,95,98.0
2158,C4,295.0,0.25,95,98.0
2159,A3,295.0,0.25,95,98.0
2160,A4,295.5,0.25,95,98.0
2161,F4,295.5,0.25,95,98.0
2162,G4,295.75,0.5,95,98.0
2163,E4,295.75,0.5,95,98.0
2164,C4,295.75,0.5,95,98.0
2165,A3,295.75,0.5,95,98.0
2166,F4,296.25,0.5,95,98.0
2167,D4,296.25,0.5,95,98.0
2168,B-3,296.25,0.5,95,98.0
2169,A2,296.5,0.25,95,98.0
2170,G2,296.75,0.25,95,98.0
2171,F4,296.75,0.25,95,98.0
2172,D4,296.75,0.25,95,98.0
2173,B-3,296.75,0.25,95,98.0
2174,A4,297.0,0.25,95,98.0
2175,C5,297.25,0.5,95,98.0
2176,F2,297.25,0.5,95,98.0
2177,D5,297.75,0.5,95,98.0
2178,C2,298.0,0.75,95,98.0
2179,E-5,298.5,0.75,95,98.0
2180,C2,298.75,0.75,95,98.0
2181,A4,298.75,1.0,95,98.0
2182,F4,298.75,1.0,95,98.0
2183,D4,298.75,1.0,95,98.0
2184,E5,299.25,0.5,95,98.0
2185,D2,299.5,0.75,95,98.0
2186,C5,299.75,0.25,63,98.0
2187,G4,299.75,0.75,95,98.0
2188,E4,299.75,0.75,95,98.0
2189,D4,299.75,0.75,95,98.0
2190,C4,299.75,0.75,95,98.0
2191,E-5,300.0,0.75,95,98.0
2192,C2,300.25,0.75,95,98.0
2193,D4,300.5,0.75,95,98.0
2194,C4,300.5,0.75,95,98.0
2195,E5,300.75,0.75,95,98.0
2196,F1,301.0,0.75,95,98.0
2197,G4,301.25,0.75,74,98.0
2198,E4,301.25,0.75,74,98.0
2199,C4,301.25,0.75,74,98.0
2200,C5,301.5,0.5,95,98.0
2201,F4,301.5,4.0,63,98.0
2202,D4,301.5,4.0,63,98.0
2203,A3,301.5,4.0,63,98.0
2204,A1,301.75,0.25,95,98.0
2205,A1,302.0,0.25,95,98.0
2206,E4,302.0,0.5,95,98.0
2207,C4,302.0,0.5,95,98.0
2208,C5,302.25,0.25,95,98.0
2209,B-1,302.25,0.25,95,98.0
2210,C5,302.5,0.25,95,98.0
2211,B-1,302.5,0.25,95,98.0
2212,D5,302.75,0.25,95,98.0
2213,G4,302.75,0.75,95,98.0
2214,E4,302.75,0.75,95,98.0
2215,C4,302.75,0.75,95,98.0
2216,A3,302.75,0.75,95,98.0
2217,D5,303.0,0.5,95,98.0
2218,B-1,303.0,0.25,95,98.0
2219,D5,303.5,0.25,95,98.0
2220,G4,303.5,0.25,95,98.0
2221,E4,303.5,0.25,95,98.0
2222,C4,303.5,0.25,95,98.0
2223,A3,303.5,0.25,95,98.0
2224,G4,303.75,0.25,95,98.0
2225,E4,303.75,0.25,95,98.0
2226,C4,303.75,0.25,95,98.0
2227,A3,303.75,0.25,95,98.0
2228,F4,304.0,0.25,95,98.0
2229,D4,304.0,0.25,95,98.0
2230,B-3,304.0,0.25,95,98.0
2231,F4,304.25,0.5,95,98.0
2232,D4,304.25,0.5,95,98.0
2233,B-3,304.25,0.5,95,98.0
2234,F4,304.75,0.25,95,98.0
2235,D4,304.75,0.25,95,98.0
2236,B-3,304.75,0.25,95,98.0
2237,G4,305.0,0.25,95,98.0
2238,G4,305.25,0.5,95,98.0
2239,F4,305.75,0.75,95,98.0
2240,A1,306.0,0.75,95,98.0
2241,G4,306.5,0.75,95,98.0
2242,C2,306.75,0.75,95,98.0
2243,A4,306.75,1.0,95,98.0
2244,F4,306.75,1.0,95,98.0
2245,D4,306.75,1.0,95,98.0
2246,C5,307.25,0.75,95,98.0
2247,D2,307.5,0.75,95,98.0
2248,G4,307.75,0.75,95,98.0
2249,E4,307.75,0.75,95,98.0
2250,D4,307.75,0.75,95,98.0
2251,C4,307.75,0.75,95,98.0
2252,A4,308.0,0.75,95,98.0
2253,C2,308.25,0.75,95,98.0
2254,D4,308.5,0.75,95,98.0
2255,C4,308.5,0.75,95,98.0
2256,C5,308.75,0.75,95,98.0
2257,F1,309.0,0.75,95,98.0
2258,G4,309.25,0.75,74,98.0
2259,E4,309.25,0.75,74,98.0
2260,C4,309.25,0.75,74,98.0
2261,E5,309.5,0.75,95,98.0
2262,A1,309.75,0.25,95,98.0
2263,A1,310.0,0.25,95,98.0
2264,E4,310.0,0.5,95,98.0
2265,C4,310.0,0.5,95,98.0
2266,B-1,310.25,0.25,95,98.0
2267,G5,310.25,0.25,79,98.0
2268,E5,310.25,0.25,79,98.0
2269,B-1,310.5,0.25,95,98.0
2270,A5,310.75,0.25,79,98.0
2271,F5,310.75,0.25,79,98.0
2272,G4,310.75,0.75,95,98.0
2273,E4,310.75,0.75,95,98.0
2274,C4,310.75,0.75,95,98.0
2275,A3,310.75,0.75,95,98.0
2276,B-1,311.0,0.25,95,98.0
2277,A5,311.0,0.25,79,98.0
2278,F5,311.0,0.25,79,98.0
2279,A5,311.5,0.25,79,98.0
2280,F5,311.5,0.25,79,98.0
2281,G4,311.5,0.25,95,98.0
2282,E4,311.5,0.25,95,98.0
2283,C4,311.5,0.25,95,98.0
2284,A3,311.5,0.25,95,98.0
2285,G4,311.75,0.25,95,98.0
2286,E4,311.75,0.25,95,98.0
2287,C4,311.75,0.25,95,98.0
2288,A3,311.75,0.25,95,98.0
2289,F4,312.0,0.25,95,98.0
2290,D4,312.0,0.25,95,98.0
2291,B-3,312.0,0.25,95,98.0
2292,F4,312.25,0.5,95,98.0
2293,D4,312.25,0.5,95,98.0
2294,B-3,312.25,0.5,95,98.0
2295,F4,312.75,0.25,95,98.0
2296,D4,312.75,0.25,95,98.0
2297,B-3,312.75,0.25,95,98.0
2298,C5,313.0,0.25,95,98.0
2299,C5,313.25,0.5,95,98.0
2300,F4,313.5,4.0,63,98.0
2301,D4,313.5,4.0,63,98.0
2302,A3,313.5,4.0,63,98.0
2303,A4,313.75,0.75,95,98.0
2304,G3,314.0,0.5,95,98.0
2305,C2,314.0,0.5,95,98.0
2306,G4,314.5,0.75,95,98.0
2307,C2,314.5,0.25,95,98.0
2308,C2,314.75,0.75,95,98.0
2309,E4,314.75,0.25,95,98.0
2310,C4,314.75,0.25,95,98.0
2311,C4,315.25,1.0,95,98.0
2312,G4,315.25,0.25,95,98.0
2313,D4,315.25,0.25,95,98.0
2314,C2,315.5,0.25,95,98.0
2315,C2,315.75,0.25,95,98.0
2316,C5,315.75,0.25,95,98.0
2317,G4,315.75,0.25,95,98.0
2318,D3,316.25,0.25,95,98.0
2319,C3,316.5,0.25,95,98.0
2320,A2,316.75,0.25,95,98.0
2321,G2,317.0,0.25,95,98.0
2322,F2,317.25,0.25,95,98.0
2323,E2,317.5,0.25,95,98.0
2324,C2,317.75,0.25,95,98.0
2325,D4,318.0,0.25,95,98.0
2326,D2,318.0,0.75,95,98.0
2327,E4,318.25,0.25,95,98.0
2328,F#4,318.5,0.75,95,98.0
2329,D2,318.75,0.5,95,98.0
2330,A4,319.25,0.5,95,98.0
2331,D2,319.25,0.125,95,98.0
2332,D2,319.5,0.125,95,98.0
2333,D5,319.75,0.5,95,98.0
2334,D2,319.75,0.5,95,98.0
2335,D4,319.75,0.75,95,98.0
2336,A3,319.75,0.75,95,98.0
2337,F#3,319.75,0.75,95,98.0
2338,E5,320.25,0.5,95,98.0
2339,D2,320.5,0.125,95,98.0
2340,A5,320.5,0.25,95,98.0
2341,D5,320.5,0.25,95,98.0
2342,A4,320.5,0.25,95,98.0
2343,D4,320.5,0.5,95,98.0
2344,A3,320.5,0.5,95,98.0
2345,F#3,320.5,0.5,95,98.0
2346,D2,320.75,0.125,95,98.0
2347,A3,321.0,0.25,95,98.0
2348,D2,321.0,0.25,95,98.0
2349,D4,321.25,0.25,95,98.0
2350,D2,321.5,0.125,95,98.0
2351,E4,321.5,0.75,95,98.0
2352,C#4,321.5,0.75,95,98.0
2353,A3,321.5,0.75,95,98.0
2354,F4,321.5,4.0,63,98.0
2355,D4,321.5,4.0,63,98.0
2356,A3,321.5,4.0,63,98.0
2357,D2,321.75,0.125,95,98.0
2358,D5,322.0,0.25,95,98.0
2359,B-1,322.0,0.75,95,98.0
2360,E5,322.25,0.25,95,98.0
2361,E4,322.25,0.5,95,98.0
2362,C#4,322.25,0.5,95,98.0
2363,A3,322.25,0.5,95,98.0
2364,E-5,322.5,0.5,95,98.0
2365,B-1,322.75,0.75,95,98.0
2366,E4,322.75,0.25,95,98.0
2367,C#4,322.75,0.25,95,98.0
2368,A3,322.75,0.25,95,98.0
2369,E5,323.0,0.25,95,98.0
2370,A3,323.0,0.25,95,98.0
2371,D5,323.25,0.375,95,98.0
2372,D4,323.25,0.25,95,98.0
2373,E4,323.5,0.25,95,98.0
2374,D5,323.75,0.5,95,98.0
2375,B-1,323.75,0.125,95,98.0
2376,F4,323.75,0.75,95,98.0
2377,D4,323.75,0.75,95,98.0
2378,B-3,323.75,0.75,95,98.0
2379,C2,324.0,0.75,95,98.0
2380,F5,324.25,1.0,95,98.0
2381,F4,324.5,0.5,95,98.0
2382,D4,324.5,0.5,95,98.0
2383,B-3,324.5,0.5,95,98.0
2384,C2,324.75,0.5,95,98.0
2385,D4,325.0,0.25,95,98.0
2386,F5,325.25,0.375,95,98.0
2387,E4,325.25,0.5,95,98.0
2388,C2,325.25,0.25,95,98.0
2389,C2,325.5,0.25,95,98.0
2390,G4,325.5,2.0,95,98.0
2391,D4,325.5,2.0,95,98.0
2392,B3,325.5,2.0,95,98.0
2393,G3,325.5,2.0,95,98.0
2394,E5,325.75,0.75,95,98.0
2395,C2,325.75,0.25,95,98.0
2396,G4,325.75,0.75,95,98.0
2397,E4,325.75,0.75,95,98.0
2398,D4,325.75,0.75,95,98.0
2399,C4,325.75,0.75,95,98.0
2400,G1,326.0,0.75,95,98.0
2401,D5,326.5,1.0,95,98.0
2402,G4,326.5,0.5,95,98.0
2403,E4,326.5,0.5,95,98.0
2404,D4,326.5,0.5,95,98.0
2405,C4,326.5,0.5,95,98.0
2406,G1,326.75,0.75,95,98.0
2407,G4,327.0,0.25,95,98.0
2408,E4,327.0,0.25,95,98.0
2409,D4,327.0,0.25,95,98.0
2410,C4,327.0,0.25,95,98.0
2411,D4,327.25,0.25,95,98.0
2412,E4,327.5,0.25,95,98.0
2413,G4,327.5,1.75,95,98.0
2414,E4,327.5,1.75,95,98.0
2415,D4,327.5,1.75,95,98.0
2416,C4,327.5,1.75,95,98.0
2417,G1,327.75,0.125,95,98.0
2418,G4,327.75,0.75,95,98.0
2419,D4,327.75,0.75,95,98.0
2420,B3,327.75,0.75,95,98.0
2421,A1,328.0,0.75,95,98.0
2422,E5,328.5,0.5,95,98.0
2423,G4,328.5,0.75,95,98.0
2424,D4,328.5,0.75,95,98.0
2425,B3,328.5,0.75,95,98.0
2426,A1,328.75,0.75,95,98.0
2427,F5,329.0,0.25,95,98.0
2428,E5,329.25,0.5,95,98.0
2429,D4,329.25,0.25,95,98.0
2430,G4,329.25,0.25,95,98.0
2431,E4,329.25,0.25,95,98.0
2432,C4,329.25,0.25,95,98.0
2433,G4,329.5,0.25,95,98.0
2434,C5,329.75,0.5,95,98.0
2435,A1,329.75,0.25,95,98.0
2436,G4,329.75,0.75,95,98.0
2437,E4,329.75,0.75,95,98.0
2438,D4,329.75,0.75,95,98.0
2439,C4,329.75,0.75,95,98.0
2440,D4,330.0,1.0,95,98.0
2441,B-1,330.0,0.25,95,98.0
2442,G4,330.0,0.5,95,98.0
2443,E4,330.0,0.5,95,98.0
2444,C4,330.0,0.5,95,98.0
2445,D5,330.25,0.25,95,98.0
2446,B-1,330.25,0.25,95,98.0
2447,D5,330.5,2.0,95,98.0
2448,B-1,330.5,0.25,95,98.0
2449,G4,330.5,1.25,95,98.0
2450,E4,330.5,1.25,95,98.0
2451,D4,330.5,1.25,95,98.0
2452,C4,330.5,1.25,95,98.0
2453,A4,330.5,0.5,95,98.0
2454,F4,330.5,0.5,95,98.0
2455,D4,330.5,0.5,95,98.0
2456,B-1,330.75,0.25,95,98.0
2457,F4,331.0,0.5,95,98.0
2458,B-1,331.0,0.5,95,98.0
2459,A4,331.0,0.25,95,98.0
2460,F4,331.0,0.25,95,98.0
2461,D4,331.0,0.25,95,98.0
2462,A4,331.5,0.5,95,98.0
2463,B-1,331.5,0.25,95,98.0
2464,B-1,331.75,0.25,95,98.0
2465,F4,331.75,0.75,95,98.0
2466,D4,331.75,0.75,95,98.0
2467,C4,331.75,0.75,95,98.0
2468,B-3,331.75,0.75,95,98.0
2469,G4,332.0,0.75,95,98.0
2470,C2,332.0,0.5,95,98.0
2471,C2,332.5,0.25,95,98.0
2472,F4,332.5,0.75,95,98.0
2473,D4,332.5,0.75,95,98.0
2474,C4,332.5,0.75,95,98.0
2475,B-3,332.5,0.75,95,98.0
2476,F4,332.75,0.5,95,98.0
2477,C2,332.75,0.5,95,98.0
2478,A4,333.0,1.0,95,98.0
2479,F4,333.0,1.0,95,98.0
2480,D4,333.0,1.0,95,98.0
2481,E4,333.25,0.75,95,98.0
2482,D4,333.25,0.25,95,98.0
2483,C2,333.25,0.25,95,98.0
2484,F4,333.5,0.25,95,98.0
2485,A1,333.5,0.25,95,98.0
2486,C2,333.75,0.25,95,98.0
2487,G4,333.75,0.75,95,98.0
2488,E4,333.75,0.75,95,98.0
2489,D4,333.75,0.75,95,98.0
2490,C4,333.75,0.75,95,98.0
2491,D4,334.0,2.0,95,98.0
2492,D2,334.0,0.75,95,98.0
2493,G4,334.0,1.5,95,98.0
2494,E4,334.0,1.5,95,98.0
2495,D4,334.0,1.5,95,98.0
2496,C4,334.0,1.5,95,98.0
2497,G4,334.5,1.25,95,98.0
2498,E4,334.5,1.25,95,98.0
2499,D4,334.5,1.25,95,98.0
2500,C4,334.5,1.25,95,98.0
2501,D2,334.75,0.5,95,98.0
2502,D2,335.25,0.125,95,98.0
2503,A4,335.25,0.5,95,98.0
2504,A3,335.25,0.5,95,98.0
2505,D2,335.5,0.125,95,98.0
2506,G4,335.5,0.75,95,98.0
2507,D4,335.5,0.75,95,98.0
2508,A3,335.5,0.75,95,98.0
2509,D2,335.75,0.5,95,98.0
2510,D5,335.75,0.5,95,98.0
2511,D4,335.75,0.5,95,98.0
2512,D4,335.75,0.75,95,98.0
2513,A3,335.75,0.75,95,98.0
2514,F#3,335.75,0.75,95,98.0
2515,E5,336.25,0.75,95,98.0
2516,E4,336.25,0.75,95,98.0
2517,G4,336.25,1.5,95,98.0
2518,C4,336.25,1.5,95,98.0
2519,A3,336.25,1.5,95,98.0
2520,D2,336.5,0.125,95,98.0
2521,A5,336.5,0.25,95,98.0
2522,D5,336.5,0.25,95,98.0
2523,A4,336.5,0.25,95,98.0
2524,D4,336.5,0.5,95,98.0
2525,A3,336.5,0.5,95,98.0
2526,F#3,336.5,0.5,95,98.0
2527,D2,336.75,0.125,95,98.0
2528,A3,337.0,0.25,95,98.0
2529,D2,337.0,0.25,95,98.0
2530,D4,337.25,0.25,95,98.0
2531,D2,337.5,0.125,95,98.0
2532,E4,337.5,0.75,95,98.0
2533,C#4,337.5,0.75,95,98.0
2534,A3,337.5,0.75,95,98.0
2535,D2,337.75,0.125,95,98.0
2536,G4,337.75,0.25,95,98.0
2537,E4,337.75,0.25,95,98.0
2538,C4,337.75,0.25,95,98.0
2539,F5,338.0,0.25,95,98.0
2540,B-1,338.0,0.75,95,98.0
2541,G5,338.25,0.25,95,98.0
2542,E4,338.25,0.5,95,98.0
2543,C#4,338.25,0.5,95,98.0
2544,A3,338.25,0.5,95,98.0
2545,G5,338.5,0.75,95,98.0
2546,G4,338.5,0.5,95,98.0
2547,E4,338.5,0.5,95,98.0
2548,C4,338.5,0.5,95,98.0
2549,B-1,338.75,0.75,95,98.0
2550,E4,338.75,0.25,95,98.0
2551,C#4,338.75,0.25,95,98.0
2552,A3,338.75,0.25,95,98.0
2553,A3,339.0,0.25,95,98.0
2554,A4,339.0,0.5,95,98.0
2555,F4,339.0,0.5,95,98.0
2556,D4,339.0,0.5,95,98.0
2557,G5,339.25,0.375,95,98.0
2558,D4,339.25,0.25,95,98.0
2559,E4,339.5,0.25,95,98.0
2560,A4,339.5,0.25,95,98.0
2561,F4,339.5,0.25,95,98.0
2562,D4,339.5,0.25,95,98.0
2563,F5,339.75,0.5,95,98.0
2564,B-1,339.75,0.125,95,98.0
2565,F4,339.75,0.75,95,98.0
2566,D4,339.75,0.75,95,98.0
2567,B-3,339.75,0.75,95,98.0
2568,C2,340.0,0.75,95,98.0
2569,F5,340.25,1.0,95,98.0
2570,F4,340.5,0.5,95,98.0
2571,D4,340.5,0.5,95,98.0
2572,B-3,340.5,0.5,95,98.0
2573,C2,340.75,0.5,95,98.0
2574,D4,341.0,0.25,95,98.0
2575,F5,341.25,0.375,95,98.0
2576,E4,341.25,0.5,95,98.0
2577,C2,341.25,0.25,95,98.0
2578,C2,341.5,0.25,95,98.0
2579,A4,341.5,1.0,95,98.0
2580,F4,341.5,1.0,95,98.0
2581,D4,341.5,1.0,95,98.0
2582,E5,341.75,0.75,95,98.0
2583,C2,341.75,0.25,95,98.0
2584,G4,341.75,0.75,95,98.0
2585,E4,341.75,0.75,95,98.0
2586,D4,341.75,0.75,95,98.0
2587,C4,341.75,0.75,95,98.0
2588,G1,342.0,0.75,95,98.0
2589,G3,342.0,0.75,95,98.0
2590,D3,342.0,0.75,95,98.0
2591,D5,342.5,1.0,95,98.0
2592,G4,342.5,0.5,95,98.0
2593,E4,342.5,0.5,95,98.0
2594,D4,342.5,0.5,95,98.0
2595,C4,342.5,0.5,95,98.0
2596,G4,342.5,1.5,95,98.0
2597,E4,342.5,1.5,95,98.0
2598,D4,342.5,1.5,95,98.0
2599,C4,342.5,1.5,95,98.0
2600,G1,342.75,0.75,95,98.0
2601,D4,342.75,2.0,95,98.0
2602,D3,342.75,2.0,95,98.0
2603,G4,343.0,0.25,95,98.0
2604,E4,343.0,0.25,95,98.0
2605,D4,343.0,0.25,95,98.0
2606,C4,343.0,0.25,95,98.0
2607,D4,343.25,0.25,95,98.0
2608,E4,343.5,0.25,95,98.0
2609,G1,343.75,0.125,95,98.0
2610,G4,343.75,0.75,95,98.0
2611,D4,343.75,0.75,95,98.0
2612,B3,343.75,0.75,95,98.0
2613,A1,344.0,0.75,95,98.0
2614,G4,344.0,0.75,95,98.0
2615,D4,344.0,0.75,95,98.0
2616,A3,344.0,0.75,95,98.0
2617,C5,344.5,0.5,95,98.0
2618,G4,344.5,0.75,95,98.0
2619,D4,344.5,0.75,95,98.0
2620,B3,344.5,0.75,95,98.0
2621,A1,344.75,0.75,95,98.0
2622,G4,344.75,1.5,95,98.0
2623,C4,344.75,1.5,95,98.0
2624,A3,344.75,1.5,95,98.0
2625,E5,345.0,0.25,95,98.0
2626,C5,345.25,0.375,95,98.0
2627,D4,345.25,0.25,95,98.0
2628,G4,345.5,0.25,95,98.0
2629,A4,345.75,0.5,95,98.0
2630,A1,345.75,0.25,95,98.0
2631,G4,345.75,0.75,95,98.0
2632,E4,345.75,0.75,95,98.0
2633,D4,345.75,0.75,95,98.0
2634,C4,345.75,0.75,95,98.0
2635,D5,346.25,0.25,95,98.0
2636,D4,346.25,0.25,95,98.0
2637,B-1,346.25,0.25,95,98.0
2638,D4,346.25,0.25,95,98.0
2639,B-3,346.25,0.25,95,98.0
2640,G4,346.25,0.25,95,98.0
2641,E4,346.25,0.25,95,98.0
2642,C4,346.25,0.25,95,98.0
2643,G4,346.5,1.25,95,98.0
2644,E4,346.5,1.25,95,98.0
2645,D4,346.5,1.25,95,98.0
2646,C4,346.5,1.25,95,98.0
2647,D5,346.75,0.25,95,98.0
2648,D4,346.75,0.25,95,98.0
2649,B-1,346.75,0.25,95,98.0
2650,C5,347.0,0.5,95,98.0
2651,C4,347.0,0.5,95,98.0
2652,B-1,347.0,0.75,95,98.0
2653,D4,347.0,0.75,95,98.0
2654,B-3,347.0,0.75,95,98.0
2655,G4,347.0,0.5,95,98.0
2656,E4,347.0,0.5,95,98.0
2657,C4,347.0,0.5,95,98.0
2658,A4,347.5,0.5,95,98.0
2659,F4,347.5,0.5,95,98.0
2660,D4,347.5,0.5,95,98.0
2661,F5,347.75,0.25,95,98.0
2662,F4,347.75,0.25,95,98.0
2663,C2,347.75,0.25,95,98.0
2664,E4,347.75,0.25,95,98.0
2665,C4,347.75,0.25,95,98.0
2666,F4,348.0,0.25,95,98.0
2667,D4,348.0,0.25,95,98.0
2668,C4,348.0,0.25,95,98.0
2669,B-3,348.0,0.25,95,98.0
2670,A4,348.0,0.25,95,98.0
2671,F4,348.0,0.25,95,98.0
2672,D4,348.0,0.25,95,98.0
2673,F5,348.25,0.25,95,98.0
2674,F4,348.25,0.25,95,98.0
2675,C2,348.25,0.25,95,98.0
2676,E5,348.5,0.5,95,98.0
2677,E4,348.5,0.5,95,98.0
2678,C2,348.5,0.5,95,98.0
2679,F4,348.5,0.25,95,98.0
2680,D4,348.5,0.25,95,98.0
2681,C4,348.5,0.25,95,98.0
2682,B-3,348.5,0.25,95,98.0
2683,E4,348.5,0.25,95,98.0
2684,C4,348.5,0.25,95,98.0
2685,F4,348.75,0.5,95,98.0
2686,D4,348.75,0.5,95,98.0
2687,C4,348.75,0.5,95,98.0
2688,B-3,348.75,0.5,95,98.0
2689,D5,349.0,0.5,95,98.0
2690,E4,349.0,0.5,95,98.0
2691,C2,349.0,0.5,95,98.0
2692,F4,349.0,0.5,95,98.0
2693,C4,349.0,0.5,95,98.0
2694,D5,349.5,0.25,95,98.0
2695,D4,349.5,0.5,95,98.0
2696,C2,349.5,0.5,95,98.0
2697,G4,349.5,0.25,95,98.0
2698,E4,349.5,0.25,95,98.0
2699,D4,349.5,0.25,95,98.0
2700,C4,349.5,0.25,95,98.0
2701,E4,349.5,0.5,95,98.0
2702,C4,349.5,0.5,95,98.0
2703,E3,349.75,0.25,95,98.0
2704,F#3,350.0,0.25,95,98.0
2705,D2,350.0,0.75,95,98.0
2706,G4,350.0,0.25,95,98.0
2707,E4,350.0,0.25,95,98.0
2708,D4,350.0,0.25,95,98.0
2709,C4,350.0,0.25,95,98.0
2710,A4,350.0,1.0,95,98.0
2711,F4,350.0,1.0,95,98.0
2712,D4,350.0,1.0,95,98.0
2713,A3,350.25,0.25,95,98.0
2714,G4,350.25,0.5,95,98.0
2715,E4,350.25,0.5,95,98.0
2716,D4,350.25,0.5,95,98.0
2717,C4,350.25,0.5,95,98.0
2718,D4,350.5,0.25,95,98.0
2719,E4,350.75,0.25,95,98.0
2720,D2,350.75,0.5,95,98.0
2721,F#4,351.0,0.25,95,98.0
2722,G4,351.0,4.0,95,98.0
2723,E4,351.0,4.0,95,98.0
2724,D4,351.0,4.0,95,98.0
2725,C4,351.0,4.0,95,98.0
2726,A4,351.25,0.25,95,98.0
2727,D2,351.25,0.125,95,98.0
2728,D5,351.5,0.25,95,98.0
2729,D2,351.5,0.125,95,98.0
2730,D5,351.75,0.75,95,98.0
2731,D2,351.75,0.5,95,98.0
2732,D4,351.75,0.75,95,98.0
2733,A3,351.75,0.75,95,98.0
2734,F#3,351.75,0.75,95,98.0
2735,C#5,352.5,0.25,95,98.0
2736,D2,352.5,0.125,95,98.0
2737,A5,352.5,0.25,95,98.0
2738,D5,352.5,0.25,95,98.0
2739,A4,352.5,0.25,95,98.0
2740,D4,352.5,0.5,95,98.0
2741,A3,352.5,0.5,95,98.0
2742,F#3,352.5,0.5,95,98.0
2743,B4,352.75,0.25,95,98.0
2744,D2,352.75,0.125,95,98.0
2745,A4,353.0,0.25,95,98.0
2746,A3,353.0,0.25,95,98.0
2747,D2,353.0,0.25,95,98.0
2748,F#4,353.25,0.25,95,98.0
2749,D4,353.25,0.25,95,98.0
2750,E4,353.5,0.25,95,98.0
2751,D2,353.5,0.125,95,98.0
2752,E4,353.5,0.75,95,98.0
2753,C#4,353.5,0.75,95,98.0
2754,A3,353.5,0.75,95,98.0
2755,G4,353.75,0.25,95,98.0
2756,D2,353.75,0.125,95,98.0
2757,G4,354.0,0.5,95,98.0
2758,B-1,354.0,0.75,95,98.0
2759,E4,354.25,0.5,95,98.0
2760,C#4,354.25,0.5,95,98.0
2761,A3,354.25,0.5,95,98.0
2762,G4,354.5,0.25,95,98.0
2763,A4,354.75,0.25,95,98.0
2764,B-1,354.75,0.75,95,98.0
2765,E4,354.75,0.25,95,98.0
2766,C#4,354.75,0.25,95,98.0
2767,A3,354.75,0.25,95,98.0
2768,F4,355.0,0.25,95,98.0
2769,A3,355.0,0.25,95,98.0
2770,A4,355.0,1.5,95,98.0
2771,F#4,355.0,1.5,95,98.0
2772,D4,355.0,1.5,95,98.0
2773,D4,355.25,0.25,95,98.0
2774,D4,355.25,0.25,95,98.0
2775,C4,355.5,0.25,95,98.0
2776,E4,355.5,0.25,95,98.0
2777,D4,355.75,0.75,95,98.0
2778,B-1,355.75,0.125,95,98.0
2779,F4,355.75,0.75,95,98.0
2780,D4,355.75,0.75,95,98.0
2781,B-3,355.75,0.75,95,98.0
2782,C2,356.0,0.75,95,98.0
2783,F4,356.5,0.25,95,98.0
2784,F4,356.5,0.5,95,98.0
2785,D4,356.5,0.5,95,98.0
2786,B-3,356.5,0.5,95,98.0
2787,A4,356.5,2.5,95,98.0
2788,E4,356.5,2.5,95,98.0
2789,C#4,356.5,2.5,95,98.0
2790,D4,356.75,0.25,95,98.0
2791,C2,356.75,0.5,95,98.0
2792,G4,357.0,0.25,95,98.0
2793,D4,357.0,0.25,95,98.0
2794,C5,357.25,0.25,95,98.0
2795,E4,357.25,0.5,95,98.0
2796,C2,357.25,0.25,95,98.0
2797,D5,357.5,0.25,95,98.0
2798,C2,357.5,0.25,95,98.0
2799,G4,357.75,0.25,95,98.0
2800,C2,357.75,0.25,95,98.0
2801,G4,357.75,0.75,95,98.0
2802,E4,357.75,0.75,95,98.0
2803,D4,357.75,0.75,95,98.0
2804,C4,357.75,0.75,95,98.0
2805,G4,358.0,0.5,95,98.0
2806,G1,358.0,0.75,95,98.0
2807,F4,358.5,0.25,95,98.0
2808,G4,358.5,0.5,95,98.0
2809,E4,358.5,0.5,95,98.0
2810,D4,358.5,0.5,95,98.0
2811,C4,358.5,0.5,95,98.0
2812,D4,358.75,0.75,95,98.0
2813,G1,358.75,0.75,95,98.0
2814,G4,359.0,0.25,95,98.0
2815,E4,359.0,0.25,95,98.0
2816,D4,359.0,0.25,95,98.0
2817,C4,359.0,0.25,95,98.0
2818,A4,359.0,1.75,95,98.0
2819,F4,359.0,1.75,95,98.0
2820,D4,359.0,1.75,95,98.0
2821,D4,359.25,0.25,95,98.0
2822,E4,359.5,0.25,95,98.0
2823,F4,359.75,0.5,95,98.0
2824,G1,359.75,0.125,95,98.0
2825,G4,359.75,0.75,95,98.0
2826,D4,359.75,0.75,95,98.0
2827,B3,359.75,0.75,95,98.0
2828,A1,360.0,0.75,95,98.0
2829,E5,360.0,0.25,63,98.0
2830,G4,360.0,0.25,63,98.0
2831,F4,360.25,0.25,95,98.0
2832,D4,360.5,0.25,95,98.0
2833,E5,360.5,0.25,63,98.0
2834,F5,360.5,0.25,63,98.0
2835,A4,360.5,0.25,63,98.0
2836,G4,360.5,0.75,95,98.0
2837,D4,360.5,0.75,95,98.0
2838,B3,360.5,0.75,95,98.0
2839,C4,360.75,0.5,95,98.0
2840,A1,360.75,0.75,95,98.0
2841,E5,360.75,0.25,63,98.0
2842,G4,360.75,0.25,63,98.0
2843,G4,360.75,2.25,95,98.0
2844,E4,360.75,2.25,95,98.0
2845,C4,360.75,2.25,95,98.0
2846,F5,361.0,0.25,63,98.0
2847,C4,361.25,0.5,79,98.0
2848,E5,361.25,0.25,63,98.0
2849,D4,361.25,0.25,95,98.0
2850,C5,361.25,0.25,63,98.0
2851,E4,361.25,0.25,63,98.0
2852,G4,361.5,0.25,95,98.0
2853,F3,361.75,0.25,95,98.0
2854,C5,361.75,0.25,63,98.0
2855,A1,361.75,0.25,95,98.0
2856,D5,361.75,0.25,63,98.0
2857,A4,361.75,0.25,63,98.0
2858,G4,361.75,0.75,95,98.0
2859,E4,361.75,0.75,95,98.0
2860,D4,361.75,0.75,95,98.0
2861,C4,361.75,0.75,95,98.0
2862,A3,362.0,0.25,95,98.0
2863,B-1,362.0,0.25,95,98.0
2864,D5,362.0,1.0,63,98.0
2865,A4,362.0,1.0,63,98.0
2866,C4,362.25,0.25,95,98.0
2867,D5,362.25,0.25,63,98.0
2868,B-1,362.25,0.25,95,98.0
2869,D4,362.5,0.25,95,98.0
2870,D5,362.5,1.0,63,98.0
2871,B-1,362.5,0.25,95,98.0
2872,G4,362.5,1.25,95,98.0
2873,E4,362.5,1.25,95,98.0
2874,D4,362.5,1.25,95,98.0
2875,C4,362.5,1.25,95,98.0
2876,F4,362.75,0.25,95,98.0
2877,B-1,362.75,0.25,95,98.0
2878,G4,363.0,0.25,95,98.0
2879,B-1,363.0,0.5,95,98.0
2880,G4,363.0,1.75,95,98.0
2881,D4,363.0,1.75,95,98.0
2882,B3,363.0,1.75,95,98.0
2883,C5,363.25,0.25,95,98.0
2884,D5,363.5,0.25,95,98.0
2885,B-1,363.5,0.25,95,98.0
2886,F5,363.75,0.25,95,98.0
2887,B-1,363.75,0.25,95,98.0
2888,F4,363.75,0.75,95,98.0
2889,D4,363.75,0.75,95,98.0
2890,C4,363.75,0.75,95,98.0
2891,B-3,363.75,0.75,95,98.0
2892,G5,364.0,0.25,95,98.0
2893,C2,364.0,0.5,95,98.0
2894,G5,364.25,0.25,95,98.0
2895,E5,364.5,0.25,95,98.0
2896,C2,364.5,0.25,95,98.0
2897,F4,364.5,0.75,95,98.0
2898,D4,364.5,0.75,95,98.0
2899,C4,364.5,0.75,95,98.0
2900,B-3,364.5,0.75,95,98.0
2901,D5,364.75,0.25,95,98.0
2902,C2,364.75,0.5,95,98.0
2903,G4,364.75,2.25,95,98.0
2904,E4,364.75,2.25,95,98.0
2905,C4,364.75,2.25,95,98.0
2906,C5,365.0,0.25,95,98.0
2907,D5,365.25,0.25,95,98.0
2908,D4,365.25,0.25,95,98.0
2909,C2,365.25,0.25,95,98.0
2910,E5,365.5,0.25,95,98.0
2911,F4,365.5,0.25,95,98.0
2912,A1,365.5,0.25,95,98.0
2913,D5,365.75,0.25,95,98.0
2914,C2,365.75,0.25,95,98.0
2915,G4,365.75,0.75,95,98.0
2916,E4,365.75,0.75,95,98.0
2917,D4,365.75,0.75,95,98.0
2918,C4,365.75,0.75,95,98.0
2919,D5,366.0,0.75,95,98.0
2920,D2,366.0,0.75,95,98.0
2921,G4,366.5,1.25,95,98.0
2922,E4,366.5,1.25,95,98.0
2923,D4,366.5,1.25,95,98.0
2924,C4,366.5,1.25,95,98.0
2925,G5,366.75,0.5,95,98.0
2926,D2,366.75,0.5,95,98.0
2927,A4,367.0,1.75,95,98.0
2928,F4,367.0,1.75,95,98.0
2929,D4,367.0,1.75,95,98.0
2930,G5,367.25,0.25,95,98.0
2931,D2,367.25,0.125,95,98.0
2932,F#5,367.5,0.25,95,98.0
2933,D2,367.5,0.125,95,98.0
2934,F#5,367.75,0.5,95,98.0
2935,D2,367.75,0.5,95,98.0
2936,D4,367.75,0.75,95,98.0
2937,A3,367.75,0.75,95,98.0
2938,F#3,367.75,0.75,95,98.0
2939,E5,368.25,0.25,95,98.0
2940,D5,368.5,0.25,95,98.0
2941,D2,368.5,0.125,95,98.0
2942,A5,368.5,0.25,95,98.0
2943,D5,368.5,0.25,95,98.0
2944,A4,368.5,0.25,95,98.0
2945,D4,368.5,0.5,95,98.0
2946,A3,368.5,0.5,95,98.0
2947,F#3,368.5,0.5,95,98.0
2948,C#5,368.75,0.5,95,98.0
2949,D2,368.75,0.125,95,98.0
2950,G4,368.75,2.25,95,98.0
2951,E4,368.75,2.25,95,98.0
2952,C4,368.75,2.25,95,98.0
2953,A3,369.0,0.25,95,98.0
2954,D2,369.0,0.25,95,98.0
2955,B4,369.25,0.25,95,98.0
2956,D4,369.25,0.25,95,98.0
2957,A4,369.5,0.25,95,98.0
2958,D2,369.5,0.125,95,98.0
2959,E4,369.5,0.75,95,98.0
2960,C#4,369.5,0.75,95,98.0
2961,A3,369.5,0.75,95,98.0
2962,C5,369.75,0.25,95,98.0
2963,D2,369.75,0.125,95,98.0
2964,C5,370.0,0.75,95,98.0
2965,B-1,370.0,0.75,95,98.0
2966,E4,370.25,0.5,95,98.0
2967,C#4,370.25,0.5,95,98.0
2968,A3,370.25,0.5,95,98.0
2969,F4,370.75,0.5,95,98.0
2970,B-1,370.75,0.75,95,98.0
2971,E4,370.75,0.25,95,98.0
2972,C#4,370.75,0.25,95,98.0
2973,A3,370.75,0.25,95,98.0
2974,A3,371.0,0.25,95,98.0
2975,A4,371.0,1.5,95,98.0
2976,F#4,371.0,1.5,95,98.0
2977,D4,371.0,1.5,95,98.0
2978,F4,371.25,0.25,95,98.0
2979,D4,371.25,0.25,95,98.0
2980,G4,371.5,0.25,95,98.0
2981,E4,371.5,0.25,95,98.0
2982,F4,371.75,0.25,95,98.0
2983,B-1,371.75,0.125,95,98.0
2984,F4,371.75,0.75,95,98.0
2985,D4,371.75,0.75,95,98.0
2986,B-3,371.75,0.75,95,98.0
2987,E4,372.0,0.25,95,98.0
2988,C2,372.0,0.75,95,98.0
2989,E5,372.25,0.25,95,98.0
2990,C5,372.5,0.25,95,98.0
2991,F4,372.5,0.5,95,98.0
2992,D4,372.5,0.5,95,98.0
2993,B-3,372.5,0.5,95,98.0
2994,A4,372.5,2.5,95,98.0
2995,E4,372.5,2.5,95,98.0
2996,C#4,372.5,2.5,95,98.0
2997,D5,372.75,0.25,95,98.0
2998,C2,372.75,0.5,95,98.0
2999,G4,373.0,0.25,95,98.0
3000,D4,373.0,0.25,95,98.0
3001,C5,373.25,0.25,95,98.0
3002,E4,373.25,0.5,95,98.0
3003,C2,373.25,0.25,95,98.0
3004,D5,373.5,0.25,95,98.0
3005,C2,373.5,0.25,95,98.0
3006,G4,373.75,0.25,95,98.0
3007,C2,373.75,0.25,95,98.0
3008,G4,373.75,0.75,95,98.0
3009,E4,373.75,0.75,95,98.0
3010,D4,373.75,0.75,95,98.0
3011,C4,373.75,0.75,95,98.0
3012,G4,374.0,0.5,95,98.0
3013,G1,374.0,0.75,95,98.0
3014,G3,374.0,0.75,95,98.0
3015,D3,374.0,0.75,95,98.0
3016,F4,374.5,0.25,95,98.0
3017,G4,374.5,0.5,95,98.0
3018,E4,374.5,0.5,95,98.0
3019,D4,374.5,0.5,95,98.0
3020,C4,374.5,0.5,95,98.0
3021,D4,374.75,0.5,95,98.0
3022,G1,374.75,0.75,95,98.0
3023,D4,374.75,2.0,95,98.0
3024,D3,374.75,2.0,95,98.0
3025,G4,375.0,0.25,95,98.0
3026,E4,375.0,0.25,95,98.0
3027,D4,375.0,0.25,95,98.0
3028,C4,375.0,0.25,95,98.0
3029,A4,375.0,1.75,95,98.0
3030,F4,375.0,1.75,95,98.0
3031,D4,375.0,1.75,95,98.0
3032,G4,375.25,0.5,95,98.0
3033,D4,375.25,0.25,95,98.0
3034,E4,375.5,0.25,95,98.0
3035,C4,375.75,0.5,95,98.0
3036,G1,375.75,0.125,95,98.0
3037,G4,375.75,0.75,95,98.0
3038,D4,375.75,0.75,95,98.0
3039,B3,375.75,0.75,95,98.0
3040,A1,376.0,0.75,95,98.0
3041,C4,376.25,0.25,95,98.0
3042,A3,376.5,0.25,95,98.0
3043,G4,376.5,0.75,95,98.0
3044,D4,376.5,0.75,95,98.0
3045,B3,376.5,0.75,95,98.0
3046,B-3,376.75,1.25,95,98.0
3047,A1,376.75,0.75,95,98.0
3048,G4,376.75,2.25,95,98.0
3049,E4,376.75,2.25,95,98.0
3050,C4,376.75,2.25,95,98.0
3051,D4,377.25,0.25,95,98.0
3052,G4,377.5,0.25,95,98.0
3053,A1,377.75,0.25,95,98.0
3054,G4,377.75,0.75,95,98.0
3055,E4,377.75,0.75,95,98.0
3056,D4,377.75,0.75,95,98.0
3057,C4,377.75,0.75,95,98.0
3058,D5,378.25,0.25,95,98.0
3059,D4,378.25,0.25,95,98.0
3060,B-1,378.25,0.25,95,98.0
3061,D4,378.25,0.25,95,98.0
3062,B-3,378.25,0.25,95,98.0
3063,G4,378.5,1.25,95,98.0
3064,E4,378.5,1.25,95,98.0
3065,D4,378.5,1.25,95,98.0
3066,C4,378.5,1.25,95,98.0
3067,D5,378.75,0.25,95,98.0
3068,D5,378.75,0.25,95,98.0
3069,D4,378.75,0.25,95,98.0
3070,B-1,378.75,0.25,95,98.0
3071,C5,379.0,0.5,95,98.0
3072,C4,379.0,0.5,95,98.0
3073,B-1,379.0,0.75,95,98.0
3074,D4,379.0,0.75,95,98.0
3075,B-3,379.0,0.75,95,98.0
3076,G4,379.0,1.75,95,98.0
3077,D4,379.0,1.75,95,98.0
3078,B3,379.0,1.75,95,98.0
3079,D5,379.25,0.25,95,98.0
3080,C5,379.5,0.5,95,98.0
3081,F5,379.75,0.25,95,98.0
3082,F4,379.75,0.25,95,98.0
3083,C2,379.75,0.25,95,98.0
3084,E4,379.75,0.25,95,98.0
3085,C4,379.75,0.25,95,98.0
3086,F4,380.0,0.25,95,98.0
3087,D4,380.0,0.25,95,98.0
3088,C4,380.0,0.25,95,98.0
3089,B-3,380.0,0.25,95,98.0
3090,F5,380.25,0.25,95,98.0
3091,F5,380.25,0.25,95,98.0
3092,F4,380.25,0.25,95,98.0
3093,C2,380.25,0.25,95,98.0
3094,E5,380.5,0.5,95,98.0
3095,E4,380.5,0.5,95,98.0
3096,C2,380.5,0.5,95,98.0
3097,F4,380.5,0.25,95,98.0
3098,D4,380.5,0.25,95,98.0
3099,C4,380.5,0.25,95,98.0
3100,B-3,380.5,0.25,95,98.0
3101,E4,380.5,0.5,95,98.0
3102,C4,380.5,0.5,95,98.0
3103,F5,380.75,0.25,95,98.0
3104,F4,380.75,0.5,95,98.0
3105,D4,380.75,0.5,95,98.0
3106,C4,380.75,0.5,95,98.0
3107,B-3,380.75,0.5,95,98.0
3108,G4,380.75,2.25,95,98.0
3109,E4,380.75,2.25,95,98.0
3110,C4,380.75,2.25,95,98.0
3111,E5,381.0,0.5,95,98.0
3112,D5,381.25,0.25,95,98.0
3113,D4,381.25,0.25,95,98.0
3114,B-1,381.25,0.25,95,98.0
3115,D4,381.25,0.25,95,98.0
3116,B-3,381.25,0.25,95,98.0
3117,G4,381.5,0.25,95,98.0
3118,E4,381.5,0.25,95,98.0
3119,D4,381.5,0.25,95,98.0
3120,C4,381.5,0.25,95,98.0
3121,D5,381.75,0.25,95,98.0
3122,D5,381.75,0.25,95,98.0
3123,D4,381.75,0.25,95,98.0
3124,B-1,381.75,0.25,95,98.0
3125,C5,382.0,0.5,95,98.0
3126,C4,382.0,0.5,95,98.0
3127,B-1,382.0,0.75,95,98.0
3128,G4,382.0,0.25,95,98.0
3129,E4,382.0,0.25,95,98.0
3130,D4,382.0,0.25,95,98.0
3131,C4,382.0,0.25,95,98.0
3132,D4,382.0,0.75,95,98.0
3133,B-3,382.0,0.75,95,98.0
3134,D5,382.25,0.25,95,98.0
3135,G4,382.25,0.5,95,98.0
3136,E4,382.25,0.5,95,98.0
3137,D4,382.25,0.5,95,98.0
3138,C4,382.25,0.5,95,98.0
3139,C5,382.5,0.5,95,98.0
3140,F5,382.75,0.25,95,98.0
3141,F4,382.75,0.25,95,98.0
3142,C2,382.75,0.25,95,98.0
3143,E4,382.75,0.25,95,98.0
3144,C4,382.75,0.25,95,98.0
3145,F4,383.0,0.25,95,98.0
3146,D4,383.0,0.25,95,98.0
3147,C4,383.0,0.25,95,98.0
3148,B-3,383.0,0.25,95,98.0
3149,F5,383.25,0.25,95,98.0
3150,F5,383.25,0.25,95,98.0
3151,F4,383.25,0.25,95,98.0
3152,C2,383.25,0.25,95,98.0
3153,F4,383.25,1.5,127,98.0
3154,D4,383.25,1.5,127,98.0
3155,B-3,383.25,1.5,127,98.0
3156,E5,383.5,0.5,95,98.0
3157,E4,383.5,0.5,95,98.0
3158,C2,383.5,0.5,95,98.0
3159,F4,383.5,0.25,95,98.0
3160,D4,383.5,0.25,95,98.0
3161,C4,383.5,0.25,95,98.0
3162,B-3,383.5,0.25,95,98.0
3163,E4,383.5,0.25,95,98.0
3164,C4,383.5,0.25,95,98.0
3165,F5,383.75,0.25,95,98.0
3166,F4,383.75,0.5,95,98.0
3167,D4,383.75,0.5,95,98.0
3168,C4,383.75,0.5,95,98.0
3169,B-3,383.75,0.5,95,98.0
3170,G5,384.0,0.5,95,98.0
3171,E5,384.0,0.5,95,98.0
3172,A4,384.0,0.5,95,98.0
3173,C2,384.0,0.5,95,98.0
3174,F4,384.0,0.5,95,98.0
3175,C4,384.0,0.5,95,98.0
3176,G5,384.5,0.5,95,98.0
3177,G5,384.5,0.5,95,98.0
3178,G4,384.5,0.5,95,98.0
3179,C2,384.5,0.5,95,98.0
3180,G4,384.5,0.25,95,98.0
3181,E4,384.5,0.25,95,98.0
3182,D4,384.5,0.25,95,98.0
3183,C4,384.5,0.25,95,98.0
3184,E4,384.5,0.5,95,98.0
3185,C4,384.5,0.5,95,98.0
3186,G4,384.75,1.25,127,98.0
3187,E4,384.75,1.25,127,98.0
3188,C4,384.75,1.25,127,98.0
3189,G5,385.0,0.5,95,98.0
3190,G4,385.0,0.25,95,98.0
3191,E4,385.0,0.25,95,98.0
3192,D4,385.0,0.25,95,98.0
3193,C4,385.0,0.25,95,98.0
3194,D5,385.25,0.25,95,98.0
3195,D4,385.25,0.25,95,98.0
3196,B-1,385.25,0.25,95,98.0
3197,G4,385.25,0.5,95,98.0
3198,E4,385.25,0.5,95,98.0
3199,D4,385.25,0.5,95,98.0
3200,C4,385.25,0.5,95,98.0
3201,D4,385.25,0.25,95,98.0
3202,B-3,385.25,0.25,95,98.0
3203,D5,385.75,0.25,95,98.0
3204,D5,385.75,0.25,95,98.0
3205,D4,385.75,0.25,95,98.0
3206,B-1,385.75,0.25,95,98.0
3207,C5,386.0,0.5,95,98.0
3208,C4,386.0,0.5,95,98.0
3209,B-1,386.0,0.75,95,98.0
3210,D4,386.0,0.75,95,98.0
3211,B-3,386.0,0.75,95,98.0
3212,G4,386.0,0.25,127,98.0
3213,E4,386.0,0.25,127,98.0
3214,C4,386.0,0.25,127,98.0
3215,D5,386.25,0.25,95,98.0
3216,F4,386.25,1.5,127,98.0
3217,D4,386.25,1.5,127,98.0
3218,B-3,386.25,1.5,127,98.0
3219,C5,386.5,0.5,95,98.0
3220,F5,386.75,0.25,95,98.0
3221,F4,386.75,0.25,95,98.0
3222,C2,386.75,0.25,95,98.0
3223,E4,386.75,0.25,95,98.0
3224,C4,386.75,0.25,95,98.0
3225,F4,387.0,0.25,95,98.0
3226,D4,387.0,0.25,95,98.0
3227,C4,387.0,0.25,95,98.0
3228,B-3,387.0,0.25,95,98.0
3229,F5,387.25,0.25,95,98.0
3230,F5,387.25,0.25,95,98.0
3231,F4,387.25,0.25,95,98.0
3232,C2,387.25,0.25,95,98.0
3233,E5,387.5,0.25,95,98.0
3234,E4,387.5,0.25,95,98.0
3235,C2,387.5,0.5,95,98.0
3236,F4,387.5,0.25,95,98.0
3237,D4,387.5,0.25,95,98.0
3238,C4,387.5,0.25,95,98.0
3239,B-3,387.5,0.25,95,98.0
3240,E4,387.5,0.5,95,98.0
3241,C4,387.5,0.5,95,98.0
3242,D5,387.75,0.25,95,98.0
3243,F5,387.75,0.25,95,98.0
3244,D4,387.75,0.25,95,98.0
3245,F4,387.75,0.5,95,98.0
3246,D4,387.75,0.5,95,98.0
3247,C4,387.75,0.5,95,98.0
3248,B-3,387.75,0.5,95,98.0
3249,G4,387.75,2.25,127,98.0
3250,E4,387.75,2.25,127,98.0
3251,C4,387.75,2.25,127,98.0
3252,C5,388.0,0.25,95,98.0
3253,E5,388.0,0.25,95,98.0
3254,C4,388.0,0.25,95,98.0
3255,D5,388.25,0.25,95,98.0
3256,D5,388.25,0.25,95,98.0
3257,D4,388.25,0.25,95,98.0
3258,B-1,388.25,0.25,95,98.0
3259,D4,388.25,0.25,95,98.0
3260,B-3,388.25,0.25,95,98.0
3261,C5,388.5,0.25,95,98.0
3262,G4,388.5,0.25,95,98.0
3263,E4,388.5,0.25,95,98.0
3264,D4,388.5,0.25,95,98.0
3265,C4,388.5,0.25,95,98.0
3266,D5,388.75,0.25,95,98.0
3267,D5,388.75,0.25,95,98.0
3268,D4,388.75,0.25,95,98.0
3269,B-1,388.75,0.25,95,98.0
3270,C5,389.0,0.5,95,98.0
3271,C4,389.0,0.5,95,98.0
3272,B-1,389.0,0.75,95,98.0
3273,G4,389.0,0.25,95,98.0
3274,E4,389.0,0.25,95,98.0
3275,D4,389.0,0.25,95,98.0
3276,C4,389.0,0.25,95,98.0
3277,D4,389.0,0.75,95,98.0
3278,B-3,389.0,0.75,95,98.0
3279,D5,389.25,0.25,95,98.0
3280,G4,389.25,0.5,95,98.0
3281,E4,389.25,0.5,95,98.0
3282,D4,389.25,0.5,95,98.0
3283,C4,389.25,0.5,95,98.0
3284,C5,389.5,0.5,95,98.0
3285,F5,389.75,0.25,95,98.0
3286,F4,389.75,0.25,95,98.0
3287,C2,389.75,0.25,95,98.0
3288,E4,389.75,0.25,95,98.0
3289,C4,389.75,0.25,95,98.0
3290,F4,390.0,0.25,95,98.0
3291,D4,390.0,0.25,95,98.0
3292,C4,390.0,0.25,95,98.0
3293,B-3,390.0,0.25,95,98.0
3294,F5,390.25,0.25,95,98.0
3295,F5,390.25,0.25,95,98.0
3296,F4,390.25,0.25,95,98.0
3297,C2,390.25,0.25,95,98.0
3298,G4,390.25,0.25,127,98.0
3299,E4,390.25,0.25,127,98.0
3300,C4,390.25,0.25,127,98.0
3301,E5,390.5,0.5,95,98.0
3302,E4,390.5,0.5,95,98.0
3303,C2,390.5,0.5,95,98.0
3304,F4,390.5,0.25,95,98.0
3305,D4,390.5,0.25,95,98.0
3306,C4,390.5,0.25,95,98.0
3307,B-3,390.5,0.25,95,98.0
3308,E4,390.5,0.5,95,98.0
3309,C4,390.5,0.5,95,98.0
3310,F4,390.5,1.5,127,98.0
3311,D4,390.5,1.5,127,98.0
3312,B-3,390.5,1.5,127,98.0
3313,F5,390.75,0.25,95,98.0
3314,F4,390.75,0.5,95,98.0
3315,D4,390.75,0.5,95,98.0
3316,C4,390.75,0.5,95,98.0
3317,B-3,390.75,0.5,95,98.0
3318,E5,391.0,0.5,95,98.0
3319,G4,391.25,0.25,95,98.0
3320,G3,391.25,0.25,95,98.0
3321,E-2,391.25,0.25,95,98.0
3322,E-4,391.25,0.25,95,98.0
3323,B-3,391.25,0.25,95,98.0
3324,G4,391.5,0.25,95,98.0
3325,E4,391.5,0.25,95,98.0
3326,D4,391.5,0.25,95,98.0
3327,C4,391.5,0.25,95,98.0
3328,G4,391.75,0.25,95,98.0
3329,G5,391.75,0.25,95,98.0
3330,G3,391.75,0.25,95,98.0
3331,E-2,391.75,0.25,95,98.0
3332,F4,392.0,0.5,95,98.0
3333,F3,392.0,0.5,95,98.0
3334,E-2,392.0,0.75,95,98.0
3335,G4,392.0,0.25,95,98.0
3336,E4,392.0,0.25,95,98.0
3337,D4,392.0,0.25,95,98.0
3338,C4,392.0,0.25,95,98.0
3339,E-4,392.0,0.75,95,98.0
3340,B-3,392.0,0.75,95,98.0
3341,G4,392.0,1.25,127,98.0
3342,E4,392.0,1.25,127,98.0
3343,C4,392.0,1.25,127,98.0
3344,G5,392.25,0.25,95,98.0
3345,G4,392.25,0.5,95,98.0
3346,E4,392.25,0.5,95,98.0
3347,D4,392.25,0.5,95,98.0
3348,C4,392.25,0.5,95,98.0
3349,F5,392.5,0.5,95,98.0
3350,B-4,392.75,0.25,95,98.0
3351,B-3,392.75,0.25,95,98.0
3352,F2,392.75,0.25,95,98.0
3353,F4,392.75,0.25,95,98.0
3354,C4,392.75,0.25,95,98.0
3355,G4,393.0,0.25,95,98.0
3356,F4,393.0,0.25,95,98.0
3357,E-4,393.0,0.25,95,98.0
3358,B-3,393.0,0.25,95,98.0
3359,B-4,393.25,0.25,95,98.0
3360,B-5,393.25,0.25,95,98.0
3361,B-3,393.25,0.25,95,98.0
3362,F2,393.25,0.25,95,98.0
3363,A4,393.5,0.5,95,98.0
3364,A3,393.5,0.5,95,98.0
3365,F2,393.5,0.5,95,98.0
3366,G4,393.5,0.25,95,98.0
3367,F4,393.5,0.25,95,98.0
3368,E-4,393.5,0.25,95,98.0
3369,B-3,393.5,0.25,95,98.0
3370,F4,393.5,0.5,95,98.0
3371,C4,393.5,0.5,95,98.0
3372,G4,393.5,0.25,127,98.0
3373,E4,393.5,0.25,127,98.0
3374,C4,393.5,0.25,127,98.0
3375,B-5,393.75,0.25,95,98.0
3376,G4,393.75,0.5,95,98.0
3377,F4,393.75,0.5,95,98.0
3378,E-4,393.75,0.5,95,98.0
3379,B-3,393.75,0.5,95,98.0
3380,F4,393.75,1.5,127,98.0
3381,D4,393.75,1.5,127,98.0
3382,B-3,393.75,1.5,127,98.0
3383,A5,394.0,0.5,95,98.0
3384,G4,394.25,0.25,95,98.0
3385,G3,394.25,0.25,95,98.0
3386,E-2,394.25,0.25,95,98.0
3387,E-4,394.25,0.25,95,98.0
3388,B-3,394.25,0.25,95,98.0
3389,A4,394.5,0.25,95,98.0
3390,G4,394.5,0.25,95,98.0
3391,F4,394.5,0.25,95,98.0
3392,C4,394.5,0.25,95,98.0
3393,G4,394.75,0.25,95,98.0
3394,G5,394.75,0.25,95,98.0
3395,G3,394.75,0.25,95,98.0
3396,E-2,394.75,0.25,95,98.0
3397,F4,395.0,0.5,95,98.0
3398,F3,395.0,0.5,95,98.0
3399,E-2,395.0,0.75,95,98.0
3400,A4,395.0,0.25,95,98.0
3401,G4,395.0,0.25,95,98.0
3402,F4,395.0,0.25,95,98.0
3403,C4,395.0,0.25,95,98.0
3404,E-4,395.0,0.75,95,98.0
3405,B-3,395.0,0.75,95,98.0
3406,G5,395.25,0.25,95,98.0
3407,A4,395.25,0.5,95,98.0
3408,G4,395.25,0.5,95,98.0
3409,F4,395.25,0.5,95,98.0
3410,C4,395.25,0.5,95,98.0
3411,G4,395.25,2.25,127,98.0
3412,E4,395.25,2.25,127,98.0
3413,C4,395.25,2.25,127,98.0
3414,F5,395.5,0.5,95,98.0
3415,B-4,395.75,0.25,95,98.0
3416,B-3,395.75,0.25,95,98.0
3417,F2,395.75,0.25,95,98.0
3418,F4,395.75,0.25,95,98.0
3419,C4,395.75,0.25,95,98.0
3420,G4,396.0,0.25,95,98.0
3421,F4,396.0,0.25,95,98.0
3422,E-4,396.0,0.25,95,98.0
3423,B-3,396.0,0.25,95,98.0
3424,B-4,396.25,0.25,95,98.0
3425,B-5,396.25,0.25,95,98.0
3426,B-3,396.25,0.25,95,98.0
3427,F2,396.25,0.25,95,98.0
3428,A4,396.5,0.5,95,98.0
3429,A3,396.5,0.5,95,98.0
3430,F2,396.5,0.5,95,98.0
3431,G4,396.5,0.25,95,98.0
3432,F4,396.5,0.25,95,98.0
3433,E-4,396.5,0.25,95,98.0
3434,B-3,396.5,0.25,95,98.0
3435,F4,396.5,0.25,95,98.0
3436,C4,396.5,0.25,95,98.0
3437,B-5,396.75,0.25,95,98.0
3438,G4,396.75,0.5,95,98.0
3439,F4,396.75,0.5,95,98.0
3440,E-4,396.75,0.5,95,98.0
3441,B-3,396.75,0.5,95,98.0
3442,C5,397.0,0.5,95,98.0
3443,A5,397.0,0.5,95,98.0
3444,D4,397.0,0.5,95,98.0
3445,F2,397.0,0.5,95,98.0
3446,F4,397.0,0.5,95,98.0
3447,C4,397.0,0.5,95,98.0
3448,C5,397.5,0.5,95,98.0
3449,C6,397.5,0.5,95,98.0
3450,C4,397.5,0.5,95,98.0
3451,F#4,397.5,4.0,95,98.0
3452,F2,397.5,0.5,95,98.0
3453,A4,397.5,0.25,95,98.0
3454,G4,397.5,0.25,95,98.0
3455,F4,397.5,0.25,95,98.0
3456,C4,397.5,0.25,95,98.0
3457,F4,397.5,0.5,95,98.0
3458,C4,397.5,0.5,95,98.0
3459,E4,397.5,4.0,95,98.0
3460,D4,397.5,4.0,95,98.0
3461,C6,398.0,0.5,95,98.0
3462,A4,398.0,0.25,95,98.0
3463,G4,398.0,0.25,95,98.0
3464,F4,398.0,0.25,95,98.0
3465,C4,398.0,0.25,95,98.0
3466,C5,398.25,0.25,95,98.0
3467,C4,398.25,0.25,95,98.0
3468,G#1,398.25,0.25,95,98.0
3469,A4,398.25,0.5,95,98.0
3470,G4,398.25,0.5,95,98.0
3471,F4,398.25,0.5,95,98.0
3472,C4,398.25,0.5,95,98.0
3473,C4,398.25,0.25,95,98.0
3474,G#3,398.25,0.25,95,98.0
3475,C5,398.75,0.25,95,98.0
3476,C5,398.75,0.25,95,98.0
3477,C4,398.75,0.25,95,98.0
3478,G#1,398.75,0.25,95,98.0
3479,B-4,398.75,0.5,95,98.0
3480,G4,398.75,0.5,95,98.0
3481,F4,398.75,0.5,95,98.0
3482,C4,398.75,0.5,95,98.0
3483,B-4,399.0,0.5,95,98.0
3484,B-3,399.0,0.5,95,98.0
3485,G#1,399.0,0.75,95,98.0
3486,C4,399.0,0.75,95,98.0
3487,G#3,399.0,0.75,95,98.0
3488,C5,399.25,0.25,95,98.0
3489,A4,399.25,0.5,95,98.0
3490,G4,399.25,0.5,95,98.0
3491,F4,399.25,0.5,95,98.0
3492,C4,399.25,0.5,95,98.0
3493,B-4,399.5,0.5,95,98.0
3494,E-5,399.75,0.25,95,98.0
3495,E-4,399.75,0.25,95,98.0
3496,B-1,399.75,0.25,95,98.0
3497,D4,399.75,0.25,95,98.0
3498,B-3,399.75,0.25,95,98.0
3499,G#4,400.0,0.25,95,98.0
3500,E-4,400.0,0.25,95,98.0
3501,C4,400.0,0.25,95,98.0
3502,B-3,400.0,0.25,95,98.0
3503,E-5,400.25,0.25,95,98.0
3504,E-5,400.25,0.25,95,98.0
3505,E-4,400.25,0.25,95,98.0
3506,B-1,400.25,0.25,95,98.0
3507,D5,400.5,0.5,95,98.0
3508,D4,400.5,0.5,95,98.0
3509,B-1,400.5,0.5,95,98.0
3510,G#4,400.5,0.25,95,98.0
3511,E-4,400.5,0.25,95,98.0
3512,C4,400.5,0.25,95,98.0
3513,B-3,400.5,0.25,95,98.0
3514,D4,400.5,0.5,95,98.0
3515,B-3,400.5,0.5,95,98.0
3516,E-5,400.75,0.25,95,98.0
3517,G#4,400.75,0.5,95,98.0
3518,E-4,400.75,0.5,95,98.0
3519,C4,400.75,0.5,95,98.0
3520,B-3,400.75,0.5,95,98.0
3521,D5,401.0,0.5,95,98.0
3522,C5,401.25,0.25,95,98.0
3523,C4,401.25,0.25,95,98.0
3524,G#1,401.25,0.25,95,98.0
3525,C4,401.25,0.25,95,98.0
3526,G#3,401.25,0.25,95,98.0
3527,B-4,401.5,0.25,95,98.0
3528,F4,401.5,0.25,95,98.0
3529,D4,401.5,0.25,95,98.0
3530,C4,401.5,0.25,95,98.0
3531,C5,401.75,0.25,95,98.0
3532,C5,401.75,0.25,95,98.0
3533,C4,401.75,0.25,95,98.0
3534,G#1,401.75,0.25,95,98.0
3535,B-4,402.0,0.5,95,98.0
3536,B-3,402.0,0.5,95,98.0
3537,G#1,402.0,0.75,95,98.0
3538,B-4,402.0,0.25,95,98.0
3539,F4,402.0,0.25,95,98.0
3540,D4,402.0,0.25,95,98.0
3541,C4,402.0,0.25,95,98.0
3542,C4,402.0,0.75,95,98.0
3543,G#3,402.0,0.75,95,98.0
3544,C5,402.25,0.25,95,98.0
3545,B-4,402.25,0.5,95,98.0
3546,F4,402.25,0.5,95,98.0
3547,D4,402.25,0.5,95,98.0
3548,C4,402.25,0.5,95,98.0
3549,B-4,402.5,0.5,95,98.0
3550,E-5,402.75,0.25,95,98.0
3551,E-4,402.75,0.25,95,98.0
3552,B-1,402.75,0.25,95,98.0
3553,D4,402.75,0.25,95,98.0
3554,B-3,402.75,0.25,95,98.0
3555,G#4,403.0,0.25,95,98.0
3556,E-4,403.0,0.25,95,98.0
3557,C4,403.0,0.25,95,98.0
3558,B-3,403.0,0.25,95,98.0
3559,E-5,403.25,0.25,95,98.0
3560,E-5,403.25,0.25,95,98.0
3561,E-4,403.25,0.25,95,98.0
3562,B-1,403.25,0.25,95,98.0
3563,D5,403.5,0.5,95,98.0
3564,D4,403.5,0.5,95,98.0
3565,B-1,403.5,0.5,95,98.0
3566,G#4,403.5,0.25,95,98.0
3567,E-4,403.5,0.25,95,98.0
3568,C4,403.5,0.25,95,98.0
3569,B-3,403.5,0.25,95,98.0
3570,D4,403.5,0.5,95,98.0
3571,B-3,403.5,0.5,95,98.0
3572,E-5,403.75,0.25,95,98.0
3573,G#4,403.75,0.5,95,98.0
3574,E-4,403.75,0.5,95,98.0
3575,C4,403.75,0.5,95,98.0
3576,B-3,403.75,0.5,95,98.0
3577,D5,404.0,0.5,95,98.0
3578,C5,404.25,0.25,95,98.0
3579,C4,404.25,0.25,95,98.0
3580,G#1,404.25,0.25,95,98.0
3581,C4,404.25,0.25,95,98.0
3582,G#3,404.25,0.25,95,98.0
3583,B-4,404.5,0.25,95,98.0
3584,F4,404.5,0.25,95,98.0
3585,D4,404.5,0.25,95,98.0
3586,C4,404.5,0.25,95,98.0
3587,C5,404.75,0.25,95,98.0
3588,C5,404.75,0.25,95,98.0
3589,C4,404.75,0.25,95,98.0
3590,G#1,404.75,0.25,95,98.0
3591,B-4,405.0,0.5,95,98.0
3592,B-3,405.0,0.5,95,98.0
3593,G#1,405.0,0.75,95,98.0
3594,B-4,405.0,0.25,95,98.0
3595,F4,405.0,0.25,95,98.0
3596,D4,405.0,0.25,95,98.0
3597,C4,405.0,0.25,95,98.0
3598,C4,405.0,0.75,95,98.0
3599,G#3,405.0,0.75,95,98.0
3600,C5,405.25,0.25,95,98.0
3601,B-4,405.25,0.5,95,98.0
3602,F4,405.25,0.5,95,98.0
3603,D4,405.25,0.5,95,98.0
3604,C4,405.25,0.5,95,98.0
3605,B-4,405.5,0.5,95,98.0
3606,G4,405.5,4.0,95,98.0
3607,E4,405.5,4.0,95,98.0
3608,D4,405.5,4.0,95,98.0
3609,E-5,405.75,0.25,95,98.0
3610,E-4,405.75,0.25,95,98.0
3611,B-1,405.75,0.25,95,98.0
3612,D4,405.75,0.25,95,98.0
3613,B-3,405.75,0.25,95,98.0
3614,G#4,406.0,0.25,95,98.0
3615,E-4,406.0,0.25,95,98.0
3616,C4,406.0,0.25,95,98.0
3617,B-3,406.0,0.25,95,98.0
3618,E-5,406.25,0.25,95,98.0
3619,E-5,406.25,0.25,95,98.0
3620,E-4,406.25,0.25,95,98.0
3621,B-1,406.25,0.25,95,98.0
3622,D5,406.5,0.5,95,98.0
3623,D4,406.5,0.5,95,98.0
3624,B-1,406.5,0.5,95,98.0
3625,G#4,406.5,0.25,95,98.0
3626,E-4,406.5,0.25,95,98.0
3627,C4,406.5,0.25,95,98.0
3628,B-3,406.5,0.25,95,98.0
3629,D4,406.5,0.25,95,98.0
3630,B-3,406.5,0.25,95,98.0
3631,E-5,406.75,0.25,95,98.0
3632,G#4,406.75,0.5,95,98.0
3633,E-4,406.75,0.5,95,98.0
3634,C4,406.75,0.5,95,98.0
3635,B-3,406.75,0.5,95,98.0
3636,B-4,407.0,0.5,95,98.0
3637,D5,407.0,0.5,95,98.0
3638,B-1,407.0,0.25,95,98.0
3639,B-5,407.0,0.5,95,98.0
3640,B-3,407.0,0.5,95,98.0
3641,D4,407.0,0.5,95,98.0
3642,B-3,407.0,0.5,95,98.0
3643,C5,407.5,0.5,95,98.0
3644,C2,407.5,0.5,95,98.0
3645,B-5,407.5,0.25,95,98.0
3646,B-4,407.5,0.25,95,98.0
3647,C6,407.5,0.5,95,98.0
3648,C4,407.5,0.5,95,98.0
3649,B-4,407.5,0.25,95,98.0
3650,F4,407.5,0.25,95,98.0
3651,D4,407.5,0.25,95,98.0
3652,C4,407.5,0.25,95,98.0
3653,C4,407.5,0.5,95,98.0
3654,G3,407.5,0.5,95,98.0
3655,C6,408.0,0.5,95,98.0
3656,C5,408.0,0.5,95,98.0
3657,B-4,408.0,0.25,95,98.0
3658,F4,408.0,0.25,95,98.0
3659,D4,408.0,0.25,95,98.0
3660,C4,408.0,0.25,95,98.0
3661,B-4,408.25,0.5,95,98.0
3662,F4,408.25,0.5,95,98.0
3663,D4,408.25,0.5,95,98.0
3664,C4,408.25,0.5,95,98.0
3665,B-4,408.75,0.5,95,98.0
3666,F4,408.75,0.5,95,98.0
3667,D4,408.75,0.5,95,98.0
3668,C4,408.75,0.5,95,98.0
3669,C5,409.25,0.5,95,98.0
3670,G4,409.25,0.5,95,98.0
3671,C4,409.25,0.5,95,98.0
3672,F4,409.5,2.0,95,98.0
3673,D4,409.5,2.0,95,98.0
3674,C4,409.5,2.0,95,98.0
3675,B-3,409.5,2.0,95,98.0
3676,G4,411.5,2.0,95,98.0
3677,E4,411.5,2.0,95,98.0
3678,D4,411.5,2.0,95,98.0
3679,C4,411.5,2.0,95,98.0
3680,G4,413.5,2.0,95,98.0
3681,D4,413.5,2.0,95,98.0
3682,B3,413.5,2.0,95,98.0
3683,G3,413.5,2.0,95,98.0
3684,G4,415.5,1.75,95,98.0
3685,E4,415.5,1.75,95,98.0
3686,D4,415.5,1.75,95,98.0
3687,C4,415.5,1.75,95,98.0
3688,G4,417.25,0.25,95,98.0
3689,E4,417.25,0.25,95,98.0
3690,C4,417.25,0.25,95,98.0
3691,G4,418.0,0.5,95,98.0
3692,E4,418.0,0.5,95,98.0
3693,C4,418.0,0.5,95,98.0
3694,A4,418.5,0.5,95,98.0
3695,F4,418.5,0.5,95,98.0
3696,D4,418.5,0.5,95,98.0
3697,A4,419.0,0.25,95,98.0
3698,F4,419.0,0.25,95,98.0
3699,D4,419.0,0.25,95,98.0
3700,A4,421.0,1.0,95,98.0
3701,F4,421.0,1.0,95,98.0
3702,D4,421.0,1.0,95,98.0
3703,G4,422.0,1.5,95,98.0
3704,E4,422.0,1.5,95,98.0
3705,D4,422.0,1.5,95,98.0
3706,C4,422.0,1.5,95,98.0
3707,G4,423.5,0.75,95,98.0
3708,D4,423.5,0.75,95,98.0
3709,A3,423.5,0.75,95,98.0
3710,G4,424.25,1.5,95,98.0
3711,C4,424.25,1.5,95,98.0
3712,A3,424.25,1.5,95,98.0
3713,G4,425.75,0.25,95,98.0
3714,E4,425.75,0.25,95,98.0
3715,C4,425.75,0.25,95,98.0
3716,G4,426.5,0.5,95,98.0
3717,E4,426.5,0.5,95,98.0
3718,C4,426.5,0.5,95,98.0
3719,A4,427.0,0.5,95,98.0
3720,F4,427.0,0.5,95,98.0
3721,D4,427.0,0.5,95,98.0
3722,A4,427.5,0.25,95,98.0
3723,F4,427.5,0.25,95,98.0
3724,D4,427.5,0.25,95,98.0
3725,A4,429.5,1.0,95,98.0
3726,F4,429.5,1.0,95,98.0
3727,D4,429.5,1.0,95,98.0
3728,G4,430.5,1.5,95,98.0
3729,E4,430.5,1.5,95,98.0
3730,D4,430.5,1.5,95,98.0
3731,C4,430.5,1.5,95,98.0
3732,G4,432.0,0.75,95,98.0
3733,D4,432.0,0.75,95,98.0
3734,A3,432.0,0.75,95,98.0
3735,G4,432.75,1.5,95,98.0
3736,C4,432.75,1.5,95,98.0
3737,A3,432.75,1.5,95,98.0
3738,G4,434.25,0.25,95,98.0
3739,E4,434.25,0.25,95,98.0
3740,C4,434.25,0.25,95,98.0
3741,G4,435.0,0.5,95,98.0
3742,E4,435.0,0.5,95,98.0
3743,C4,435.0,0.5,95,98.0
3744,A4,435.5,0.5,95,98.0
3745,F4,435.5,0.5,95,98.0
3746,D4,435.5,0.5,95,98.0
3747,A4,436.0,0.25,95,98.0
3748,F4,436.0,0.25,95,98.0
3749,D4,436.0,0.25,95,98.0
3750,A4,438.0,1.0,95,98.0
3751,F4,438.0,1.0,95,98.0
3752,D4,438.0,1.0,95,98.0
3753,G4,439.0,4.0,95,98.0
3754,E4,439.0,4.0,95,98.0
3755,D4,439.0,4.0,95,98.0
3756,C4,439.0,4.0,95,98.0
3757,A4,443.0,1.5,95,98.0
3758,F#4,443.0,1.5,95,98.0
3759,D4,443.0,1.5,95,98.0
3760,A4,444.5,2.5,95,98.0
3761,E4,444.5,2.5,95,98.0
3762,C#4,444.5,2.5,95,98.0
3763,A4,447.0,1.75,95,98.0
3764,F4,447.0,1.75,95,98.0
3765,D4,447.0,1.75,95,98.0
3766,G4,448.75,2.25,95,98.0
3767,E4,448.75,2.25,95,98.0
3768,C4,448.75,2.25,95,98.0
3769,G4,451.0,1.75,95,98.0
3770,D4,451.0,1.75,95,98.0
3771,B3,451.0,1.75,95,98.0
3772,G4,452.75,2.25,95,98.0
3773,E4,452.75,2.25,95,98.0
3774,C4,452.75,2.25,95,98.0
3775,A4,455.0,1.75,95,98.0
3776,F4,455.0,1.75,95,98.0
3777,D4,455.0,1.75,95,98.0
3778,G4,456.75,2.25,95,98.0
3779,E4,456.75,2.25,95,98.0
3780,C4,456.75,2.25,95,98.0
3781,A4,459.0,1.5,95,98.0
3782,F#4,459.0,1.5,95,98.0
3783,D4,459.0,1.5,95,98.0
3784,A4,460.5,2.5,95,98.0
3785,E4,460.5,2.5,95,98.0
3786,C#4,460.5,2.5,95,98.0
3787,A4,463.0,1.75,95,98.0
3788,F4,463.0,1.75,95,98.0
3789,D4,463.0,1.75,95,98.0
3790,G4,464.75,2.25,95,98.0
3791,E4,464.75,2.25,95,98.0
3792,C4,464.75,2.25,95,98.0
3793,G4,467.0,1.75,95,98.0
3794,D4,467.0,1.75,95,98.0
3795,B3,467.0,1.75,95,98.0
3796,G4,468.75,2.25,95,98.0
3797,E4,468.75,2.25,95,98.0
3798,C4,468.75,2.25,95,98.0
3799,G4,471.25,0.25,95,98.0
3800,E4,471.25,0.25,95,98.0
3801,C4,471.25,0.25,95,98.0
3802,F4,471.5,1.5,127,98.0
3803,D4,471.5,1.5,127,98.0
3804,B-3,471.5,1.5,127,98.0
3805,G4,473.0,2.25,127,98.0
3806,E4,473.0,2.25,127,98.0
3807,C4,473.0,2.25,127,98.0
3808,A4,475.25,1.5,95,98.0
3809,F#4,475.25,1.5,95,98.0
3810,D4,475.25,1.5,95,98.0
3811,A4,476.75,2.5,95,98.0
3812,E4,476.75,2.5,95,98.0
3813,C#4,476.75,2.5,95,98.0
3814,A4,479.25,1.75,95,98.0
3815,F4,479.25,1.75,95,98.0
3816,D4,479.25,1.75,95,98.0
3817,G4,481.0,2.25,95,98.0
3818,E4,481.0,2.25,95,98.0
3819,C4,481.0,2.25,95,98.0
3820,G4,483.25,1.75,95,98.0
3821,D4,483.25,1.75,95,98.0
3822,B3,483.25,1.75,95,98.0
3823,G4,485.0,2.25,95,98.0
3824,E4,485.0,2.25,95,98.0
3825,C4,485.0,2.25,95,98.0
3826,A4,487.25,1.75,95,98.0
3827,F4,487.25,1.75,95,98.0
3828,D4,487.25,1.75,95,98.0
3829,G4,489.0,2.25,95,98.0
3830,E4,489.0,2.25,95,98.0
3831,C4,489.0,2.25,95,98.0
3832,A4,491.25,1.5,95,98.0
3833,F#4,491.25,1.5,95,98.0
3834,D4,491.25,1.5,95,98.0
3835,A4,492.75,2.5,95,98.0
3836,E4,492.75,2.5,95,98.0
3837,C#4,492.75,2.5,95,98.0
3838,A4,495.25,1.75,95,98.0
3839,F4,495.25,1.75,95,98.0
3840,D4,495.25,1.75,95,98.0
3841,G4,497.0,2.25,95,98.0
3842,E4,497.0,2.25,95,98.0
3843,C4,497.0,2.25,95,98.0
3844,G4,499.25,1.75,95,98.0
3845,D4,499.25,1.75,95,98.0
3846,B3,499.25,1.75,95,98.0
3847,G4,501.0,2.25,95,98.0
3848,E4,501.0,2.25,95,98.0
3849,C4,501.0,2.25,95,98.0
3850,F4,503.5,1.5,127,98.0
3851,D4,503.5,1.5,127,98.0
3852,B-3,503.5,1.5,127,98.0
3853,G4,505.0,1.25,127,98.0
3854,E4,505.0,1.25,127,98.0
3855,C4,505.0,1.25,127,98.0
3856,G4,506.25,0.25,127,98.0
3857,E4,506.25,0.25,127,98.0
3858,C4,506.25,0.25,127,98.0
3859,F4,506.5,1.5,127,98.0
3860,D4,506.5,1.5,127,98.0
3861,B-3,506.5,1.5,127,98.0
3862,G4,508.0,2.25,127,98.0
3863,E4,508.0,2.25,127,98.0
3864,C4,508.0,2.25,127,98.0
3865,G4,510.5,0.25,127,98.0
3866,E4,510.5,0.25,127,98.0
3867,C4,510.5,0.25,127,98.0
3868,F4,510.75,1.5,127,98.0
3869,D4,510.75,1.5,127,98.0
3870,B-3,510.75,1.5,127,98.0
3871,G4,512.25,1.25,127,98.0
3872,E4,512.25,1.25,127,98.0
3873,C4,512.25,1.25,127,98.0
3874,G4,513.75,0.25,127,98.0
3875,E4,513.75,0.25,127,98.0
3876,C4,513.75,0.25,127,98.0
3877,F4,514.0,1.5,127,98.0
3878,D4,514.0,1.5,127,98.0
3879,B-3,514.0,1.5,127,98.0
3880,G4,515.5,1.25,127,98.0
3881,E4,515.5,1.25,127,98.0
3882,C4,515.5,1.25,127,98.0
3883,G4,517.0,0.25,127,98.0
3884,E4,517.0,0.25,127,98.0
3885,C4,517.0,0.25,127,98.0
3886,G4,517.25,1.5,127,98.0
3887,E-4,517.25,1.5,127,98.0
3888,B-3,517.25,1.5,127,98.0
3889,A4,518.75,1.25,127,98.0
3890,F4,518.75,1.25,127,98.0
3891,C4,518.75,1.25,127,98.0
3892,A4,520.25,0.25,127,98.0
3893,F4,520.25,0.25,127,98.0
3894,C4,520.25,0.25,127,98.0
3895,G4,520.5,1.5,127,98.0
3896,E-4,520.5,1.5,127,98.0
3897,B-3,520.5,1.5,127,98.0
3898,A4,522.0,2.25,127,98.0
3899,F4,522.0,2.25,127,98.0
3900,C4,522.0,2.25,127,98.0
3901,A4,524.5,0.25,127,98.0
3902,F4,524.5,0.25,127,98.0
3903,C4,524.5,0.25,127,98.0
3904,C5,524.75,1.5,127,98.0
3905,G#4,524.75,1.5,127,98.0
3906,E-4,524.75,1.5,127,98.0
3907,D5,526.25,1.25,127,98.0
3908,B-4,526.25,1.25,127,98.0
3909,F4,526.25,1.25,127,98.0
3910,D5,527.75,0.25,127,98.0
3911,B-4,527.75,0.25,127,98.0
3912,F4,527.75,0.25,127,98.0
3913,C5,528.0,1.5,127,98.0
3914,G#4,528.0,1.5,127,98.0
3915,E-4,528.0,1.5,127,98.0
3916,D5,529.5,1.25,127,98.0
3917,B-4,529.5,1.25,127,98.0
3918,F4,529.5,1.25,127,98.0
3919,D5,531.0,0.25,127,98.0
3920,B-4,531.0,0.25,127,98.0
3921,F4,531.0,0.25,127,98.0
3922,C5,531.25,1.5,127,98.0
3923,G#4,531.25,1.5,127,98.0
3924,E-4,531.25,1.5,127,98.0
3925,D5,532.75,2.0,127,98.0
3926,B-4,532.75,2.0,127,98.0
3927,F4,532.75,2.0,127,98.0
3928,C4,2525.6,0.25,63,98.0
3929,C4,2526.1,0.25,63,98.0
3930,C4,2526.35,0.25,63,98.0
3931,C4,2526.85,0.25,63,98.0
3932,C4,2527.35,0.25,63,98.0
3933,C4,2527.85,3/20,63,98.0
3934,C4,2528.0,1/10,63,98.0
3935,C4,2528.35,0.25,63,98.0
3936,C4,2528.6,0.25,63,98.0
3937,C4,2529.1,0.5,63,98.0
3938,C4,2529.6,0.25,47,98.0
3939,C4,2530.1,0.25,63,98.0
3940,C4,2530.35,0.25,63,98.0
3941,C4,2530.85,0.25,63,98.0
3942,C4,2531.35,0.25,63,98.0
3943,C4,2531.85,3/20,63,98.0
3944,C4,2532.0,1/10,63,98.0
3945,C4,2532.35,0.25,63,98.0
3946,C4,2532.6,0.25,63,98.0
3947,C4,2533.1,0.5,63,98.0
3948,C4,2533.6,0.25,63,98.0
3949,C4,2534.1,0.25,63,98.0
3950,C4,2534.35,0.25,63,98.0
3951,C4,2534.85,0.25,63,98.0
3952,C4,2535.35,0.25,63,98.0
3953,C4,2535.85,3/20,63,98.0
3954,C4,2536.0,1/10,63,98.0
3955,C4,2536.35,0.25,63,98.0
3956,C4,2536.6,0.25,63,98.0
3957,C4,2537.1,0.5,63,98.0
3958,C4,2537.6,0.25,63,98.0
3959,C4,2538.1,0.25,63,98.0
3960,C4,2538.35,0.25,63,98.0
3961,C4,2538.85,0.25,63,98.0
3962,C4,2539.35,0.25,63,98.0
3963,C4,2539.85,3/20,63,98.0
3964,C4,2540.0,1/10,63,98.0
3965,C4,2540.35,0.25,63,98.0
3966,C4,2540.6,0.25,63,98.0
3967,C4,2541.1,0.5,63,98.0
3968,G#2,2541.6,0.25,95,98.0
3969,F#3,2541.6,0.25,95,98.0
3970,B1,2541.6,0.25,95,98.0
3971,E3,2541.6,0.25,95,98.0
3972,G#2,2541.85,0.25,95,98.0
3973,G#2,2542.1,0.25,95,98.0
3974,G#2,2542.35,0.25,95,98.0
3975,B1,2542.35,0.25,95,98.0
3976,G#2,2542.6,0.25,95,98.0
3977,F#3,2542.6,0.25,95,98.0
3978,G#2,2542.85,0.25,95,98.0
3979,G#2,2543.1,0.25,95,98.0
3980,G#2,2543.35,0.25,95,98.0
3981,E-3,2543.35,0.25,95,98.0
3982,G#2,2543.6,0.25,95,98.0
3983,G#2,2543.85,3/20,95,98.0
3984,G#2,2544.0,1/10,95,98.0
3985,G#2,2544.1,0.25,95,98.0
3986,G#2,2544.35,0.25,71,98.0
3987,E-3,2544.35,0.25,71,98.0
3988,G#2,2544.6,0.25,95,98.0
3989,E-3,2544.6,0.25,95,98.0
3990,G#2,2544.85,0.25,95,98.0
3991,G#2,2545.1,0.25,95,98.0
3992,E-3,2545.1,0.25,95,98.0
3993,G#2,2545.35,0.25,95,98.0
3994,G#2,2545.6,0.25,95,98.0
3995,F#3,2545.6,0.25,95,98.0
3996,B1,2545.6,0.25,95,98.0
3997,G#2,2545.85,0.25,95,98.0
3998,G#2,2546.1,0.25,95,98.0
3999,G#2,2546.35,0.25,95,98.0
4000,B1,2546.35,0.25,95,98.0
4001,G#2,2546.6,0.25,95,98.0
4002,F#3,2546.6,0.25,95,98.0
4003,G#2,2546.85,0.25,95,98.0
4004,G#2,2547.1,0.25,95,98.0
4005,G#2,2547.35,0.25,95,98.0
4006,E-3,2547.35,0.25,95,98.0
4007,G#2,2547.6,0.25,95,98.0
4008,G#2,2547.85,3/20,95,98.0
4009,G#2,2548.0,1/10,95,98.0
4010,G#2,2548.1,0.25,95,98.0
4011,G#2,2548.35,0.25,71,98.0
4012,E-3,2548.35,0.25,71,98.0
4013,G#2,2548.6,0.25,95,98.0
4014,E-3,2548.6,0.25,95,98.0
4015,G#2,2548.85,0.25,95,98.0
4016,G#2,2549.1,0.25,95,98.0
4017,E-3,2549.1,0.25,95,98.0
4018,G#2,2549.35,0.25,95,98.0
4019,G#2,2549.6,0.25,95,98.0
4020,F#3,2549.6,0.25,95,98.0
4021,B1,2549.6,0.25,95,98.0
4022,G#2,2549.85,0.25,95,98.0
4023,G#2,2550.1,0.25,95,98.0
4024,G#2,2550.35,0.25,95,98.0
4025,B1,2550.35,0.25,95,98.0
4026,G#2,2550.6,0.25,95,98.0
4027,F#3,2550.6,0.25,95,98.0
4028,G#2,2550.85,0.25,95,98.0
4029,G#2,2551.1,0.25,95,98.0
4030,G#2,2551.35,0.25,95,98.0
4031,E-3,2551.35,0.25,95,98.0
4032,G#2,2551.6,0.25,95,98.0
4033,G#2,2551.85,3/20,95,98.0
4034,G#2,2552.0,1/10,95,98.0
4035,G#2,2552.1,0.25,95,98.0
4036,G#2,2552.35,0.25,71,98.0
4037,E-3,2552.35,0.25,71,98.0
4038,G#2,2552.6,0.25,95,98.0
4039,E-3,2552.6,0.25,95,98.0
4040,G#2,2552.85,0.25,95,98.0
4041,G#2,2553.1,0.25,95,98.0
4042,E-3,2553.1,0.25,95,98.0
4043,G#2,2553.35,0.25,95,98.0
4044,G#2,2553.6,0.25,95,98.0
4045,F#3,2553.6,0.25,95,98.0
4046,B1,2553.6,0.25,95,98.0
4047,G#2,2553.85,0.25,95,98.0
4048,G#2,2554.1,0.25,95,98.0
4049,G#2,2554.35,0.25,95,98.0
4050,B1,2554.35,0.25,95,98.0
4051,G#2,2554.6,0.25,95,98.0
4052,F#3,2554.6,0.25,95,98.0
4053,G#2,2554.85,0.25,95,98.0
4054,G#2,2555.1,0.25,84,98.0
4055,C3,2555.1,0.25,84,98.0
4056,E2,2555.1,0.25,84,98.0
4057,G#2,2555.35,0.25,87,98.0
4058,E-3,2555.35,0.25,87,98.0
4059,C3,2555.35,0.25,87,98.0
4060,E2,2555.35,0.25,87,98.0
4061,G#2,2555.6,0.25,95,98.0
4062,G#2,2555.85,3/20,84,98.0
4063,B2,2555.85,3/20,84,98.0
4064,E2,2555.85,3/20,84,98.0
4065,G#2,2556.1,1/10,84,98.0
4066,B2,2556.1,1/10,84,98.0
4067,E2,2556.1,1/10,84,98.0
4068,G#2,2556.2,0.25,95,98.0
4069,G#2,2556.45,0.25,75,98.0
4070,E-3,2556.45,0.25,75,98.0
4071,A2,2556.45,0.25,75,98.0
4072,E2,2556.45,0.25,75,98.0
4073,G#2,2556.7,0.25,87,98.0
4074,E-3,2556.7,0.25,87,98.0
4075,A2,2556.7,0.25,87,98.0
4076,E2,2556.7,0.25,87,98.0
4077,G#2,2556.95,0.25,95,98.0
4078,G#2,2557.2,0.25,87,98.0
4079,E-3,2557.2,0.25,87,98.0
4080,A2,2557.2,0.25,87,98.0
4081,E2,2557.2,0.25,87,98.0
4082,G#2,2557.45,0.25,95,98.0
4083,G#2,2557.7,0.25,87,98.0
4084,C#4,2557.7,0.25,87,98.0
4085,C2,2557.7,0.25,87,98.0
4086,C#3,2557.7,0.25,87,98.0
4087,G#2,2557.95,0.25,95,98.0
4088,F#3,2557.95,0.25,95,98.0
4089,G#2,2558.2,0.25,95,98.0
4090,G#2,2558.45,0.25,95,98.0
4091,C#4,2558.45,0.25,95,98.0
4092,D2,2558.45,0.25,95,98.0
4093,G#2,2558.7,0.25,95,98.0
4094,G#2,2558.95,0.25,95,98.0
4095,G#2,2559.2,0.25,71,98.0
4096,F#3,2559.2,0.25,71,98.0
4097,G#2,2559.45,0.25,95,98.0
4098,C2,2559.45,0.25,95,98.0
4099,G#2,2559.7,0.25,87,98.0
4100,F#3,2559.7,0.25,87,98.0
4101,G#2,2559.95,3/20,95,98.0
4102,C2,2559.95,3/20,95,98.0
4103,G#2,2560.2,1/10,95,98.0
4104,C2,2560.2,1/10,95,98.0
4105,G#2,2560.3,0.25,87,98.0
4106,C#4,2560.3,0.25,87,98.0
4107,G#2,2560.55,0.25,95,98.0
4108,C2,2560.55,0.25,95,98.0
4109,G#2,2560.8,0.25,90,98.0
4110,C#4,2560.8,0.25,90,98.0
4111,D2,2560.8,0.25,90,98.0
4112,G#2,2561.05,0.25,95,98.0
4113,G#2,2561.3,0.25,95,98.0
4114,G#2,2561.55,0.25,95,98.0
4115,G#2,2561.8,0.25,84,98.0
4116,C#4,2561.8,0.25,84,98.0
4117,C2,2561.8,0.25,84,98.0
4118,G#2,2562.05,0.25,95,98.0
4119,F#3,2562.05,0.25,95,98.0
4120,G#2,2562.3,0.25,95,98.0
4121,G#2,2562.55,0.25,95,98.0
4122,C#4,2562.55,0.25,95,98.0
4123,D2,2562.55,0.25,95,98.0
4124,G#2,2562.8,0.25,95,98.0
4125,G#2,2563.05,0.25,95,98.0
4126,G#2,2563.3,0.25,71,98.0
4127,F#3,2563.3,0.25,71,98.0
4128,G#2,2563.55,0.25,95,98.0
4129,C2,2563.55,0.25,95,98.0
4130,G#2,2563.8,0.25,87,98.0
4131,F#3,2563.8,0.25,87,98.0
4132,G#2,2564.05,3/20,95,98.0
4133,C2,2564.05,3/20,95,98.0
4134,G#2,2564.3,1/10,95,98.0
4135,C2,2564.3,1/10,95,98.0
4136,G#2,2564.4,0.25,87,98.0
4137,C#4,2564.4,0.25,87,98.0
4138,G#2,2564.65,0.25,95,98.0
4139,C2,2564.65,0.25,95,98.0
4140,G#2,2564.9,0.25,90,98.0
4141,C#4,2564.9,0.25,90,98.0
4142,D2,2564.9,0.25,90,98.0
4143,G#2,2565.15,0.25,95,98.0
4144,G#2,2565.4,0.25,95,98.0
4145,G#2,2565.65,0.25,95,98.0
4146,G#2,2565.9,0.25,87,98.0
4147,C#4,2565.9,0.25,87,98.0
4148,C2,2565.9,0.25,87,98.0
4149,C#3,2565.9,0.25,87,98.0
4150,G#2,2566.15,0.25,95,98.0
4151,F#3,2566.15,0.25,95,98.0
4152,G#2,2566.4,0.25,95,98.0
4153,G#2,2566.65,0.25,95,98.0
4154,C#4,2566.65,0.25,95,98.0
4155,D2,2566.65,0.25,95,98.0
4156,G#2,2566.9,0.25,95,98.0
4157,G#2,2567.15,0.25,95,98.0
4158,G#2,2567.4,0.25,71,98.0
4159,F#3,2567.4,0.25,71,98.0
4160,G#2,2567.65,0.25,95,98.0
4161,C2,2567.65,0.25,95,98.0
4162,G#2,2567.9,0.25,87,98.0
4163,F#3,2567.9,0.25,87,98.0
4164,G#2,2568.15,3/20,95,98.0
4165,C2,2568.15,3/20,95,98.0
4166,G#2,2568.4,1/10,95,98.0
4167,C2,2568.4,1/10,95,98.0
4168,G#2,2568.5,0.25,87,98.0
4169,C#4,2568.5,0.25,87,98.0
4170,G#2,2568.75,0.25,95,98.0
4171,C2,2568.75,0.25,95,98.0
4172,G#2,2569.0,0.25,90,98.0
4173,C#4,2569.0,0.25,90,98.0
4174,D2,2569.0,0.25,90,98.0
4175,G#2,2569.25,0.25,95,98.0
4176,G#2,2569.5,0.25,95,98.0
4177,G#2,2569.75,0.25,95,98.0
4178,G#2,2570.0,0.25,84,98.0
4179,C#4,2570.0,0.25,84,98.0
4180,C2,2570.0,0.25,84,98.0
4181,G#2,2570.25,0.25,95,98.0
4182,F#3,2570.25,0.25,95,98.0
4183,G#2,2570.5,0.25,95,98.0
4184,G#2,2570.75,0.25,95,98.0
4185,C#4,2570.75,0.25,95,98.0
4186,D2,2570.75,0.25,95,98.0
4187,G#2,2571.0,0.25,95,98.0
4188,G#2,2571.25,0.25,95,98.0
4189,G#2,2571.5,0.25,71,98.0
4190,F#3,2571.5,0.25,71,98.0
4191,G#2,2571.75,0.25,95,98.0
4192,C2,2571.75,0.25,95,98.0
4193,G#2,2572.0,0.25,87,98.0
4194,F#3,2572.0,0.25,87,98.0
4195,G#2,2572.25,3/20,95,98.0
4196,C2,2572.25,3/20,95,98.0
4197,G#2,2572.5,1/10,95,98.0
4198,C2,2572.5,1/10,95,98.0
4199,G#2,2572.6,0.25,87,98.0
4200,C#4,2572.6,0.25,87,98.0
4201,G#2,2572.85,0.25,95,98.0
4202,C2,2572.85,0.25,95,98.0
4203,G#2,2573.1,0.25,90,98.0
4204,C#4,2573.1,0.25,90,98.0
4205,D2,2573.1,0.25,90,98.0
4206,G#2,2573.35,0.25,95,98.0
4207,G#2,2573.6,0.25,95,98.0
4208,G#2,2573.85,0.25,95,98.0
4209,G#2,2574.1,0.25,87,98.0
4210,C#4,2574.1,0.25,87,98.0
4211,C2,2574.1,0.25,87,98.0
4212,C#3,2574.1,0.25,87,98.0
4213,G#2,2574.35,0.25,95,98.0
4214,F#3,2574.35,0.25,95,98.0
4215,G#2,2574.6,0.25,95,98.0
4216,G#2,2574.85,0.25,95,98.0
4217,C#4,2574.85,0.25,95,98.0
4218,D2,2574.85,0.25,95,98.0
4219,G#2,2575.1,0.25,95,98.0
4220,G#2,2575.35,0.25,95,98.0
4221,G#2,2575.6,0.25,71,98.0
4222,F#3,2575.6,0.25,71,98.0
4223,G#2,2575.85,0.25,95,98.0
4224,C2,2575.85,0.25,95,98.0
4225,G#2,2576.1,0.25,87,98.0
4226,F#3,2576.1,0.25,87,98.0
4227,G#2,2576.35,3/20,95,98.0
4228,C2,2576.35,3/20,95,98.0
4229,G#2,2576.6,1/10,95,98.0
4230,C2,2576.6,1/10,95,98.0
4231,G#2,2576.7,0.25,87,98.0
4232,C#4,2576.7,0.25,87,98.0
4233,G#2,2576.95,0.25,95,98.0
4234,C2,2576.95,0.25,95,98.0
4235,G#2,2577.2,0.25,90,98.0
4236,C#4,2577.2,0.25,90,98.0
4237,D2,2577.2,0.25,90,98.0
4238,G#2,2577.45,0.25,95,98.0
4239,G#2,2577.7,0.25,95,98.0
4240,G#2,2577.95,0.25,95,98.0
4241,G#2,2578.2,0.25,84,98.0
4242,C#4,2578.2,0.25,84,98.0
4243,C2,2578.2,0.25,84,98.0
4244,G#2,2578.45,0.25,95,98.0
4245,F#3,2578.45,0.25,95,98.0
4246,G#2,2578.7,0.25,95,98.0
4247,G#2,2578.95,0.25,95,98.0
4248,C#4,2578.95,0.25,95,98.0
4249,D2,2578.95,0.25,95,98.0
4250,G#2,2579.2,0.25,95,98.0
4251,G#2,2579.45,0.25,95,98.0
4252,G#2,2579.7,0.25,71,98.0
4253,F#3,2579.7,0.25,71,98.0
4254,G#2,2579.95,0.25,95,98.0
4255,C2,2579.95,0.25,95,98.0
4256,G#2,2580.2,0.25,87,98.0
4257,F#3,2580.2,0.25,87,98.0
4258,G#2,2580.45,3/20,95,98.0
4259,C2,2580.45,3/20,95,98.0
4260,G#2,2580.7,1/10,95,98.0
4261,C2,2580.7,1/10,95,98.0
4262,G#2,2580.8,0.25,87,98.0
4263,C#4,2580.8,0.25,87,98.0
4264,G#2,2581.05,0.25,95,98.0
4265,C2,2581.05,0.25,95,98.0
4266,G#2,2581.3,0.25,90,98.0
4267,C#4,2581.3,0.25,90,98.0
4268,D2,2581.3,0.25,90,98.0
4269,G#2,2581.55,0.25,95,98.0
4270,G#2,2581.8,0.25,95,98.0
4271,G#2,2582.05,0.25,95,98.0
4272,G#2,2582.3,0.25,87,98.0
4273,C#4,2582.3,0.25,87,98.0
4274,C2,2582.3,0.25,87,98.0
4275,C#3,2582.3,0.25,87,98.0
4276,G#2,2582.55,0.25,95,98.0
4277,F#3,2582.55,0.25,95,98.0
4278,G#2,2582.8,0.25,95,98.0
4279,G#2,2583.05,0.25,95,98.0
4280,C#4,2583.05,0.25,95,98.0
4281,D2,2583.05,0.25,95,98.0
4282,G#2,2583.3,0.25,95,98.0
4283,G#2,2583.55,0.25,95,98.0
4284,G#2,2583.8,0.25,71,98.0
4285,F#3,2583.8,0.25,71,98.0
4286,G#2,2584.05,0.25,95,98.0
4287,C2,2584.05,0.25,95,98.0
4288,G#2,2584.3,0.25,87,98.0
4289,F#3,2584.3,0.25,87,98.0
4290,G#2,2584.55,3/20,95,98.0
4291,C2,2584.55,3/20,95,98.0
4292,G#2,2584.8,1/10,95,98.0
4293,C2,2584.8,1/10,95,98.0
4294,G#2,2584.9,0.25,87,98.0
4295,C#4,2584.9,0.25,87,98.0
4296,G#2,2585.15,0.25,95,98.0
4297,C2,2585.15,0.25,95,98.0
4298,G#2,2585.4,0.25,90,98.0
4299,C#4,2585.4,0.25,90,98.0
4300,D2,2585.4,0.25,90,98.0
4301,G#2,2585.65,0.25,95,98.0
4302,G#2,2585.9,0.25,95,98.0
4303,G#2,2586.15,0.25,95,98.0
4304,G#2,2586.4,0.25,84,98.0
4305,C#4,2586.4,0.25,84,98.0
4306,C2,2586.4,0.25,84,98.0
4307,G#2,2586.65,0.25,95,98.0
4308,F#3,2586.65,0.25,95,98.0
4309,G#2,2586.9,0.25,95,98.0
4310,G#2,2587.15,0.25,95,98.0
4311,C#4,2587.15,0.25,95,98.0
4312,D2,2587.15,0.25,95,98.0
4313,G#2,2587.4,0.25,95,98.0
4314,G#2,2587.65,0.25,95,98.0
4315,G#2,2587.9,0.25,71,98.0
4316,F#3,2587.9,0.25,71,98.0
4317,G#2,2588.15,0.25,95,98.0
4318,C2,2588.15,0.25,95,98.0
4319,G#2,2588.4,0.25,87,98.0
4320,F#3,2588.4,0.25,87,98.0
4321,G#2,2588.65,3/20,95,98.0
4322,C2,2588.65,3/20,95,98.0
4323,G#2,2588.9,1/10,95,98.0
4324,C2,2588.9,1/10,95,98.0
4325,G#2,2589.0,0.25,87,98.0
4326,C#4,2589.0,0.25,87,98.0
4327,G#2,2589.25,0.25,95,98.0
4328,C2,2589.25,0.25,95,98.0
4329,C3,2589.25,0.25,95,98.0
4330,G#2,2589.5,0.25,90,98.0
4331,C#4,2589.5,0.25,90,98.0
4332,D2,2589.5,0.25,90,98.0
4333,G#2,2589.75,0.25,95,98.0
4334,B2,2589.75,0.25,95,98.0
4335,G#2,2590.0,0.25,95,98.0
4336,G#2,2590.25,0.25,95,98.0
4337,G#2,2590.5,0.25,95,98.0
4338,F#3,2590.5,0.25,95,98.0
4339,C2,2590.5,0.25,95,98.0
4340,C#3,2590.5,0.25,95,98.0
4341,G#2,2590.75,0.25,95,98.0
4342,G#2,2591.0,0.25,95,98.0
4343,G#2,2591.25,0.25,95,98.0
4344,D2,2591.25,0.25,95,98.0
4345,G#2,2591.5,0.25,95,98.0
4346,G#2,2591.75,0.25,95,98.0
4347,G#2,2592.0,0.25,71,98.0
4348,F#3,2592.0,0.25,71,98.0
4349,G#2,2592.25,0.25,95,98.0
4350,C2,2592.25,0.25,95,98.0
4351,G#2,2592.5,0.25,87,98.0
4352,F#3,2592.5,0.25,87,98.0
4353,G#2,2592.75,3/20,95,98.0
4354,G#2,2592.9,1/10,95,98.0
4355,G#2,2593.0,0.25,95,98.0
4356,G#2,2593.25,0.25,95,98.0
4357,C2,2593.25,0.25,95,98.0
4358,G#2,2593.5,0.25,95,98.0
4359,D2,2593.5,0.25,95,98.0
4360,G#2,2593.75,0.25,95,98.0
4361,G#2,2594.0,0.25,95,98.0
4362,G#2,2594.25,0.25,95,98.0
4363,G#2,2594.5,0.25,95,98.0
4364,F#3,2594.5,0.25,95,98.0
4365,C2,2594.5,0.25,95,98.0
4366,G#2,2594.75,0.25,95,98.0
4367,G#2,2595.0,0.25,95,98.0
4368,G#2,2595.25,0.25,95,98.0
4369,D2,2595.25,0.25,95,98.0
4370,G#2,2595.5,0.25,95,98.0
4371,G#2,2595.75,0.25,95,98.0
4372,G#2,2596.0,0.25,71,98.0
4373,F#3,2596.0,0.25,71,98.0
4374,G#2,2596.25,0.25,95,98.0
4375,C2,2596.25,0.25,95,98.0
4376,G#2,2596.5,0.25,87,98.0
4377,F#3,2596.5,0.25,87,98.0
4378,G#2,2596.75,3/20,95,98.0
4379,G#2,2596.9,1/10,95,98.0
4380,G#2,2597.0,0.25,95,98.0
4381,G#2,2597.25,0.25,95,98.0
4382,C2,2597.25,0.25,95,98.0
4383,G#2,2597.5,0.25,95,98.0
4384,D2,2597.5,0.25,95,98.0
4385,G#2,2597.75,0.25,95,98.0
4386,G#2,2598.0,0.25,95,98.0
4387,G#2,2598.25,0.25,95,98.0
4388,G#2,2598.5,0.25,95,98.0
4389,F#3,2598.5,0.25,95,98.0
4390,C2,2598.5,0.25,95,98.0
4391,G#2,2598.75,0.25,95,98.0
4392,G#2,2599.0,0.25,95,98.0
4393,G#2,2599.25,0.25,95,98.0
4394,D2,2599.25,0.25,95,98.0
4395,G#2,2599.5,0.25,95,98.0
4396,G#2,2599.75,0.25,95,98.0
4397,G#2,2600.0,0.25,71,98.0
4398,F#3,2600.0,0.25,71,98.0
4399,G#2,2600.25,0.25,95,98.0
4400,C2,2600.25,0.25,95,98.0
4401,G#2,2600.5,0.25,87,98.0
4402,F#3,2600.5,0.25,87,98.0
4403,G#2,2600.75,3/20,95,98.0
4404,G#2,2600.9,1/10,95,98.0
4405,G#2,2601.0,0.25,95,98.0
4406,G#2,2601.25,0.25,95,98.0
4407,C2,2601.25,0.25,95,98.0
4408,G#2,2601.5,0.25,95,98.0
4409,D2,2601.5,0.25,95,98.0
4410,G#2,2601.75,0.25,95,98.0
4411,G#2,2602.0,0.25,95,98.0
4412,G#2,2602.25,0.25,95,98.0
4413,G#2,2602.5,0.25,95,98.0
4414,F#3,2602.5,0.25,95,98.0
4415,C2,2602.5,0.25,95,98.0
4416,G#2,2602.75,0.25,95,98.0
4417,G#2,2603.0,0.25,95,98.0
4418,G#2,2603.25,0.25,95,98.0
4419,D2,2603.25,0.25,95,98.0
4420,G#2,2603.5,0.25,95,98.0
4421,G#2,2603.75,0.25,95,98.0
4422,G#2,2604.0,0.25,71,98.0
4423,F#3,2604.0,0.25,71,98.0
4424,G#2,2604.25,0.25,95,98.0
4425,C2,2604.25,0.25,95,98.0
4426,G#2,2604.5,0.25,87,98.0
4427,F#3,2604.5,0.25,87,98.0
4428,G#2,2604.75,3/20,95,98.0
4429,G#2,2604.9,1/10,95,98.0
4430,G#2,2605.0,0.25,95,98.0
4431,G#2,2605.25,0.25,95,98.0
4432,C2,2605.25,0.25,95,98.0
4433,G#2,2605.5,0.25,95,98.0
4434,D2,2605.5,0.25,95,98.0
4435,C3,2605.5,0.25,95,98.0
4436,G#2,2605.75,0.25,95,98.0
4437,B2,2605.75,0.25,95,98.0
4438,G#2,2606.0,0.25,95,98.0
4439,A2,2606.0,0.25,95,98.0
4440,G#2,2606.25,0.25,95,98.0
4441,C2,2606.25,0.25,95,98.0
4442,A3,2606.25,0.25,95,98.0
4443,G#2,2606.5,0.25,95,98.0
4444,F#3,2606.5,0.25,95,98.0
4445,G#2,2606.75,0.25,95,98.0
4446,G#2,2607.0,0.25,95,98.0
4447,C2,2607.0,0.25,95,98.0
4448,A3,2607.0,0.25,95,98.0
4449,G#2,2607.25,0.25,95,98.0
4450,G#2,2607.5,0.25,95,98.0
4451,C2,2607.5,0.25,95,98.0
4452,A3,2607.5,0.25,95,98.0
4453,G#2,2607.75,0.25,95,98.0
4454,G#2,2608.0,0.25,71,98.0
4455,F#3,2608.0,0.25,71,98.0
4456,G#2,2608.25,0.25,95,98.0
4457,G#2,2608.5,0.25,90,98.0
4458,F#3,2608.5,0.25,90,98.0
4459,C2,2608.5,0.25,90,98.0
4460,G#2,2608.75,3/20,95,98.0
4461,G#2,2608.9,1/10,95,98.0
4462,G#2,2609.0,0.25,95,98.0
4463,G#2,2609.25,0.25,95,98.0
4464,C2,2609.25,0.25,95,98.0
4465,G#2,2609.5,0.25,95,98.0
4466,D2,2609.5,0.25,95,98.0
4467,G#2,2609.75,0.25,95,98.0
4468,G#2,2610.0,0.25,95,98.0
4469,G#2,2610.25,0.25,95,98.0
4470,G#2,2610.5,0.25,95,98.0
4471,F#3,2610.5,0.25,95,98.0
4472,C2,2610.5,0.25,95,98.0
4473,G#2,2610.75,0.25,95,98.0
4474,G#2,2611.0,0.25,95,98.0
4475,G#2,2611.25,0.25,95,98.0
4476,C2,2611.25,0.25,95,98.0
4477,G#2,2611.5,0.25,95,98.0
4478,D2,2611.5,0.25,95,98.0
4479,G#2,2611.75,0.25,95,98.0
4480,G#2,2612.0,0.25,83,98.0
4481,F#3,2612.0,0.25,83,98.0
4482,C2,2612.0,0.25,83,98.0
4483,E-3,2612.0,0.25,83,98.0
4484,G#2,2612.25,0.25,95,98.0
4485,G#2,2612.5,0.25,87,98.0
4486,F#3,2612.5,0.25,87,98.0
4487,G#2,2612.75,3/20,95,98.0
4488,C2,2612.75,3/20,95,98.0
4489,E-3,2612.75,3/20,95,98.0
4490,G#2,2613.0,1/10,95,98.0
4491,C2,2613.0,1/10,95,98.0
4492,E-3,2613.0,1/10,95,98.0
4493,G#2,2613.1,0.25,95,98.0
4494,G#2,2613.35,0.25,95,98.0
4495,G#2,2613.6,0.25,95,98.0
4496,D2,2613.6,0.25,95,98.0
4497,G#2,2613.85,0.25,95,98.0
4498,G#2,2614.1,0.25,95,98.0
4499,G#2,2614.35,0.25,95,98.0
4500,C2,2614.35,0.25,95,98.0
4501,C#3,2614.35,0.25,95,98.0
4502,G#2,2614.6,0.25,95,98.0
4503,F#3,2614.6,0.25,95,98.0
4504,G#2,2614.85,0.25,95,98.0
4505,C2,2614.85,0.25,95,98.0
4506,G#2,2615.1,0.25,95,98.0
4507,C2,2615.1,0.25,95,98.0
4508,A3,2615.1,0.25,95,98.0
4509,G#2,2615.35,0.25,95,98.0
4510,G#2,2615.6,0.25,95,98.0
4511,C2,2615.6,0.25,95,98.0
4512,A3,2615.6,0.25,95,98.0
4513,G#2,2615.85,0.25,95,98.0
4514,G#2,2616.1,0.25,71,98.0
4515,F#3,2616.1,0.25,71,98.0
4516,G#2,2616.35,0.25,95,98.0
4517,G#2,2616.6,0.25,90,98.0
4518,F#3,2616.6,0.25,90,98.0
4519,C2,2616.6,0.25,90,98.0
4520,G#2,2616.85,3/20,95,98.0
4521,G#2,2617.0,1/10,95,98.0
4522,G#2,2617.1,0.25,95,98.0
4523,G#2,2617.35,0.25,95,98.0
4524,C2,2617.35,0.25,95,98.0
4525,G#2,2617.6,0.25,95,98.0
4526,D2,2617.6,0.25,95,98.0
4527,G#2,2617.85,0.25,95,98.0
4528,G#2,2618.1,0.25,95,98.0
4529,G#2,2618.35,0.25,95,98.0
4530,G#2,2618.6,0.25,95,98.0
4531,F#3,2618.6,0.25,95,98.0
4532,C2,2618.6,0.25,95,98.0
4533,G#2,2618.85,0.25,95,98.0
4534,G#2,2619.1,0.25,95,98.0
4535,G#2,2619.35,0.25,95,98.0
4536,D2,2619.35,0.25,95,98.0
4537,G#2,2619.6,0.25,95,98.0
4538,G#2,2619.85,0.25,95,98.0
4539,G#2,2620.1,0.25,71,98.0
4540,F#3,2620.1,0.25,71,98.0
4541,G#2,2620.35,0.25,95,98.0
4542,C2,2620.35,0.25,95,98.0
4543,G#2,2620.6,0.25,87,98.0
4544,F#3,2620.6,0.25,87,98.0
4545,G#2,2620.85,3/20,95,98.0
4546,G#2,2621.0,1/10,95,98.0
4547,G#2,2621.1,0.25,95,98.0
4548,G#2,2621.35,0.25,95,98.0
4549,C2,2621.35,0.25,95,98.0
4550,G#2,2621.6,0.25,95,98.0
4551,D2,2621.6,0.25,95,98.0
4552,C3,2621.6,0.25,95,98.0
4553,G#2,2621.85,0.25,95,98.0
4554,B2,2621.85,0.25,95,98.0
4555,G#2,2622.1,0.25,95,98.0
4556,A2,2622.1,0.25,95,98.0
4557,G#2,2622.35,0.25,95,98.0
4558,C2,2622.35,0.25,95,98.0
4559,A3,2622.35,0.25,95,98.0
4560,G#2,2622.6,0.25,95,98.0
4561,F#3,2622.6,0.25,95,98.0
4562,G#2,2622.85,0.25,95,98.0
4563,G#2,2623.1,0.25,95,98.0
4564,C2,2623.1,0.25,95,98.0
4565,A3,2623.1,0.25,95,98.0
4566,G#2,2623.35,0.25,95,98.0
4567,G#2,2623.6,0.25,95,98.0
4568,C2,2623.6,0.25,95,98.0
4569,A3,2623.6,0.25,95,98.0
4570,G#2,2623.85,0.25,95,98.0
4571,G#2,2624.1,0.25,71,98.0
4572,F#3,2624.1,0.25,71,98.0
4573,G#2,2624.35,0.25,95,98.0
4574,G#2,2624.6,0.25,90,98.0
4575,F#3,2624.6,0.25,90,98.0
4576,C2,2624.6,0.25,90,98.0
4577,G#2,2624.85,3/20,95,98.0
4578,G#2,2625.0,1/10,95,98.0
4579,G#2,2625.1,0.25,95,98.0
4580,G#2,2625.35,0.25,95,98.0
4581,C2,2625.35,0.25,95,98.0
4582,G#2,2625.6,0.25,95,98.0
4583,D2,2625.6,0.25,95,98.0
4584,G#2,2625.85,0.25,95,98.0
4585,G#2,2626.1,0.25,95,98.0
4586,G#2,2626.35,0.25,95,98.0
4587,G#2,2626.6,0.25,95,98.0
4588,F#3,2626.6,0.25,95,98.0
4589,C2,2626.6,0.25,95,98.0
4590,G#2,2626.85,0.25,95,98.0
4591,G#2,2627.1,0.25,95,98.0
4592,G#2,2627.35,0.25,95,98.0
4593,D2,2627.35,0.25,95,98.0
4594,G#2,2627.6,0.25,95,98.0
4595,G#2,2627.85,0.25,95,98.0
4596,G#2,2628.1,0.25,71,98.0
4597,F#3,2628.1,0.25,71,98.0
4598,G#2,2628.35,0.25,95,98.0
4599,C2,2628.35,0.25,95,98.0
4600,G#2,2628.6,0.25,87,98.0
4601,F#3,2628.6,0.25,87,98.0
4602,G#2,2628.85,3/20,95,98.0
4603,G#2,2629.0,1/10,95,98.0
4604,G#2,2629.1,0.25,95,98.0
4605,G#2,2629.35,0.25,95,98.0
4606,C2,2629.35,0.25,95,98.0
4607,G#2,2629.6,0.25,95,98.0
4608,D2,2629.6,0.25,95,98.0
4609,C3,2629.6,0.25,95,98.0
4610,G#2,2629.85,0.25,95,98.0
4611,B2,2629.85,0.25,95,98.0
4612,G#2,2630.1,0.25,95,98.0
4613,A2,2630.1,0.25,95,98.0
4614,G#2,2630.35,0.25,95,98.0
4615,G#2,2630.6,0.25,95,98.0
4616,F#3,2630.6,0.25,95,98.0
4617,C2,2630.6,0.25,95,98.0
4618,C#3,2630.6,0.25,95,98.0
4619,G#2,2630.85,0.25,95,98.0
4620,G#2,2631.1,0.25,95,98.0
4621,G#2,2631.35,0.25,95,98.0
4622,D2,2631.35,0.25,95,98.0
4623,G#2,2631.6,0.25,95,98.0
4624,G#2,2631.85,0.25,95,98.0
4625,G#2,2632.1,0.25,71,98.0
4626,F#3,2632.1,0.25,71,98.0
4627,G#2,2632.35,0.25,95,98.0
4628,C2,2632.35,0.25,95,98.0
4629,G#2,2632.6,0.25,87,98.0
4630,F#3,2632.6,0.25,87,98.0
4631,G#2,2632.85,3/20,95,98.0
4632,C2,2632.85,3/20,95,98.0
4633,G#2,2633.1,1/10,95,98.0
4634,C2,2633.1,1/10,95,98.0
4635,G#2,2633.2,0.25,95,98.0
4636,G3,2633.2,0.25,95,98.0
4637,G#2,2633.45,0.25,95,98.0
4638,C2,2633.45,0.25,95,98.0
4639,G#2,2633.7,0.25,95,98.0
4640,D2,2633.7,0.25,95,98.0
4641,G#2,2633.95,0.25,95,98.0
4642,G#2,2634.2,0.25,95,98.0
4643,G#2,2634.45,0.25,95,98.0
4644,G#2,2634.7,0.25,95,98.0
4645,F#3,2634.7,0.25,95,98.0
4646,C2,2634.7,0.25,95,98.0
4647,G#2,2634.95,0.25,95,98.0
4648,G#2,2635.2,0.25,95,98.0
4649,G#2,2635.45,0.25,95,98.0
4650,D2,2635.45,0.25,95,98.0
4651,G#2,2635.7,0.25,95,98.0
4652,G#2,2635.95,0.25,95,98.0
4653,G#2,2636.2,0.25,71,98.0
4654,F#3,2636.2,0.25,71,98.0
4655,G#2,2636.45,0.25,95,98.0
4656,C2,2636.45,0.25,95,98.0
4657,G#2,2636.7,0.25,87,98.0
4658,F#3,2636.7,0.25,87,98.0
4659,G#2,2636.95,3/20,95,98.0
4660,C2,2636.95,3/20,95,98.0
4661,G#2,2637.2,1/10,95,98.0
4662,C2,2637.2,1/10,95,98.0
4663,G#2,2637.3,0.25,95,98.0
4664,G#2,2637.55,0.25,95,98.0
4665,C2,2637.55,0.25,95,98.0
4666,G#2,2637.8,0.25,95,98.0
4667,D2,2637.8,0.25,95,98.0
4668,G#2,2638.05,0.25,95,98.0
4669,G#2,2638.3,0.25,95,98.0
4670,G#2,2638.55,0.25,95,98.0
4671,F#3,2638.55,0.25,95,98.0
4672,C2,2638.55,0.25,95,98.0
4673,G#2,2638.8,0.25,95,98.0
4674,G#2,2639.05,0.25,95,98.0
4675,G#2,2639.3,0.25,95,98.0
4676,G#2,2639.55,0.25,95,98.0
4677,D2,2639.55,0.25,95,98.0
4678,G#2,2639.8,0.25,95,98.0
4679,G#2,2640.05,0.25,95,98.0
4680,G#2,2640.3,0.25,71,98.0
4681,F#3,2640.3,0.25,71,98.0
4682,G#2,2640.55,0.25,95,98.0
4683,C2,2640.55,0.25,95,98.0
4684,G#2,2640.8,0.25,87,98.0
4685,F#3,2640.8,0.25,87,98.0
4686,G#2,2641.05,3/20,95,98.0
4687,C2,2641.05,3/20,95,98.0
4688,G#2,2641.3,1/10,95,98.0
4689,C2,2641.3,1/10,95,98.0
4690,G#2,2641.4,0.25,95,98.0
4691,G#2,2641.65,0.25,95,98.0
4692,C2,2641.65,0.25,95,98.0
4693,G#2,2641.9,0.25,95,98.0
4694,D2,2641.9,0.25,95,98.0
4695,G#2,2642.15,0.25,95,98.0
4696,G#2,2642.4,0.25,95,98.0
4697,G#2,2642.65,0.25,95,98.0
4698,G#2,2642.9,0.25,95,98.0
4699,F#3,2642.9,0.25,95,98.0
4700,C2,2642.9,0.25,95,98.0
4701,G#2,2643.15,0.25,95,98.0
4702,G#2,2643.4,0.25,95,98.0
4703,G#2,2643.65,0.25,95,98.0
4704,D2,2643.65,0.25,95,98.0
4705,G#2,2643.9,0.25,95,98.0
4706,G#2,2644.15,0.25,95,98.0
4707,G#2,2644.4,0.25,79,98.0
4708,F#3,2644.4,0.25,79,98.0
4709,D2,2644.4,0.25,79,98.0
4710,G#2,2644.65,0.25,95,98.0
4711,D2,2644.65,0.25,95,98.0
4712,G#2,2644.9,0.25,90,98.0
4713,F#3,2644.9,0.25,90,98.0
4714,C2,2644.9,0.25,90,98.0
4715,G#2,2645.15,3/20,95,98.0
4716,G#2,2645.3,1/10,95,98.0
4717,G#2,2645.4,0.25,95,98.0
4718,D2,2645.4,0.25,95,98.0
4719,G#2,2645.65,0.25,95,98.0
4720,C2,2645.65,0.25,95,98.0
4721,G#2,2645.9,0.25,95,98.0
4722,G#2,2646.15,0.25,95,98.0
4723,C2,2646.15,0.25,95,98.0
4724,G#2,2646.4,0.25,95,98.0
4725,D2,2646.4,0.25,95,98.0
4726,G#2,2646.65,0.25,95,98.0
4727,D2,2646.65,0.25,95,98.0
4728,G#2,2646.9,0.25,95,98.0
4729,F#3,2646.9,0.25,95,98.0
4730,C2,2646.9,0.25,95,98.0
4731,C#3,2646.9,0.25,95,98.0
4732,G#2,2647.15,0.25,95,98.0
4733,G#2,2647.4,0.25,95,98.0
4734,G#2,2647.65,0.25,95,98.0
4735,D2,2647.65,0.25,95,98.0
4736,G#2,2647.9,0.25,95,98.0
4737,G#2,2648.15,0.25,95,98.0
4738,G#2,2648.4,0.25,71,98.0
4739,F#3,2648.4,0.25,71,98.0
4740,G#2,2648.65,0.25,95,98.0
4741,C2,2648.65,0.25,95,98.0
4742,G#2,2648.9,0.25,87,98.0
4743,F#3,2648.9,0.25,87,98.0
4744,G#2,2649.15,3/20,95,98.0
4745,C2,2649.15,3/20,95,98.0
4746,G#2,2649.4,1/10,95,98.0
4747,C2,2649.4,1/10,95,98.0
4748,G#2,2649.5,0.25,95,98.0
4749,G3,2649.5,0.25,95,98.0
4750,G#2,2649.75,0.25,95,98.0
4751,C2,2649.75,0.25,95,98.0
4752,G#2,2650.0,0.25,95,98.0
4753,D2,2650.0,0.25,95,98.0
4754,G#2,2650.25,0.25,95,98.0
4755,G#2,2650.5,0.25,95,98.0
4756,G#2,2650.75,0.25,95,98.0
4757,G#2,2651.0,0.25,95,98.0
4758,F#3,2651.0,0.25,95,98.0
4759,C2,2651.0,0.25,95,98.0
4760,G#2,2651.25,0.25,95,98.0
4761,G#2,2651.5,0.25,95,98.0
4762,G#2,2651.75,0.25,95,98.0
4763,D2,2651.75,0.25,95,98.0
4764,G#2,2652.0,0.25,95,98.0
4765,G#2,2652.25,0.25,95,98.0
4766,G#2,2652.5,0.25,71,98.0
4767,F#3,2652.5,0.25,71,98.0
4768,G#2,2652.75,0.25,95,98.0
4769,C2,2652.75,0.25,95,98.0
4770,G#2,2653.0,0.25,87,98.0
4771,F#3,2653.0,0.25,87,98.0
4772,G#2,2653.25,3/20,95,98.0
4773,C2,2653.25,3/20,95,98.0
4774,G#2,2653.5,1/10,95,98.0
4775,C2,2653.5,1/10,95,98.0
4776,G#2,2653.6,0.25,95,98.0
4777,G#2,2653.85,0.25,95,98.0
4778,C2,2653.85,0.25,95,98.0
4779,G#2,2654.1,0.25,95,98.0
4780,D2,2654.1,0.25,95,98.0
4781,G#2,2654.35,0.25,95,98.0
4782,G#2,2654.6,0.25,95,98.0
4783,G#2,2654.85,0.25,95,98.0
4784,F#3,2654.85,0.25,95,98.0
4785,C2,2654.85,0.25,95,98.0
4786,G#2,2655.1,0.25,95,98.0
4787,G#2,2655.35,0.25,95,98.0
4788,G#2,2655.6,0.25,95,98.0
4789,G#2,2655.85,0.25,95,98.0
4790,D2,2655.85,0.25,95,98.0
4791,G#2,2656.1,0.25,95,98.0
4792,G#2,2656.35,0.25,95,98.0
4793,G#2,2656.6,0.25,79,98.0
4794,F#3,2656.6,0.25,79,98.0
4795,D2,2656.6,0.25,79,98.0
4796,G#2,2656.85,0.25,95,98.0
4797,D2,2656.85,0.25,95,98.0
4798,G#2,2657.1,0.25,90,98.0
4799,F#3,2657.1,0.25,90,98.0
4800,C2,2657.1,0.25,90,98.0
4801,G#2,2657.35,3/20,95,98.0
4802,G#2,2657.5,1/10,95,98.0
4803,G#2,2657.6,0.25,95,98.0
4804,G#2,2657.85,0.25,95,98.0
4805,C2,2657.85,0.25,95,98.0
4806,C#3,2657.85,0.25,95,98.0
4807,G#2,2658.1,0.25,95,98.0
4808,G#2,2658.35,0.25,95,98.0
4809,C3,2658.35,0.25,95,98.0
4810,G#2,2658.6,0.25,95,98.0
4811,B2,2658.6,0.25,95,98.0
4812,G#2,2658.85,0.25,95,98.0
4813,A2,2658.85,0.25,95,98.0
4814,G#2,2659.1,0.25,95,98.0
4815,F#3,2659.1,0.25,95,98.0
4816,D2,2659.1,0.25,95,98.0
4817,E-3,2659.1,0.25,95,98.0
4818,G#2,2659.35,0.25,95,98.0
4819,C3,2659.35,0.25,95,98.0
4820,G#2,2659.6,0.25,95,98.0
4821,B2,2659.6,0.25,95,98.0
4822,G#2,2659.85,0.25,95,98.0
4823,D2,2659.85,0.25,95,98.0
4824,E-3,2659.85,0.25,95,98.0
4825,G#2,2660.1,0.25,95,98.0
4826,G#2,2660.35,0.25,95,98.0
4827,G#2,2660.6,0.25,95,98.0
4828,D2,2660.6,0.25,95,98.0
4829,E-3,2660.6,0.25,95,98.0
4830,G#2,2660.85,0.25,95,98.0
4831,C3,2660.85,0.25,95,98.0
4832,G#2,2661.1,0.25,95,98.0
4833,B2,2661.1,0.25,95,98.0
4834,G#2,2661.35,3/20,95,98.0
4835,D2,2661.35,3/20,95,98.0
4836,E-3,2661.35,3/20,95,98.0
4837,G#2,2661.6,1/10,95,98.0
4838,D2,2661.6,1/10,95,98.0
4839,E-3,2661.6,1/10,95,98.0
4840,G#2,2661.7,0.25,95,98.0
4841,G#2,2661.95,0.25,95,98.0
4842,D2,2661.95,0.25,95,98.0
4843,E-3,2661.95,0.25,95,98.0
4844,G#2,2662.2,0.25,95,98.0
4845,C3,2662.2,0.25,95,98.0
4846,G#2,2662.45,0.25,95,98.0
4847,B2,2662.45,0.25,95,98.0
4848,G#2,2662.7,0.25,95,98.0
4849,D2,2662.7,0.25,95,98.0
4850,E-3,2662.7,0.25,95,98.0
4851,G#2,2662.95,0.25,95,98.0
4852,A2,2662.95,0.25,95,98.0
4853,G#2,2663.2,0.25,79,98.0
4854,C4,2663.2,0.25,79,98.0
4855,G#2,2663.45,0.25,95,98.0
4856,C4,2663.7,0.25,63,98.0
4857,C4,2663.95,0.25,63,98.0
4858,C4,2664.45,0.25,63,98.0
4859,C4,2664.95,0.25,63,98.0
4860,C4,2665.45,3/20,63,98.0
4861,C4,2665.6,1/10,63,98.0
4862,C4,2665.95,0.25,63,98.0
4863,C4,2666.2,0.25,63,98.0
4864,C4,2666.7,0.5,63,98.0
4865,C4,2667.2,0.25,63,98.0
4866,C4,2667.7,0.25,63,98.0
4867,C4,2667.95,0.25,63,98.0
4868,C4,2668.45,0.25,63,98.0
4869,C4,2668.95,0.25,63,98.0
4870,C4,2669.45,3/20,63,98.0
4871,C4,2669.6,1/10,63,98.0
4872,C4,2669.95,0.25,63,98.0
4873,C4,2670.2,0.25,63,98.0
4874,C4,2670.7,0.5,63,98.0
4875,C4,2671.2,0.25,63,98.0
4876,C4,2671.7,0.25,63,98.0
4877,C4,2671.95,0.25,63,98.0
4878,C4,2672.45,0.25,63,98.0
4879,C4,2672.95,0.25,63,98.0
4880,C4,2673.45,3/20,63,98.0
4881,C4,2673.6,1/10,63,98.0
4882,C4,2673.95,0.25,63,98.0
4883,C4,2674.2,0.25,63,98.0
4884,C4,2674.7,0.5,63,98.0
4885,C4,2675.2,0.25,63,98.0
4886,C4,2675.7,0.25,63,98.0
4887,C4,2675.95,0.25,63,98.0
4888,C4,2676.45,0.25,63,98.0
4889,C4,2676.95,0.25,63,98.0
4890,C4,2677.45,3/20,63,98.0
4891,C4,2677.6,1/10,63,98.0
4892,C4,2677.95,0.25,63,98.0
4893,C4,2678.2,0.25,63,98.0
4894,C4,2678.7,0.5,63,98.0
4895,C4,2679.2,0.25,63,98.0
4896,C4,2679.7,0.25,63,98.0
4897,C4,2679.95,0.25,63,98.0
4898,C4,2680.45,0.25,63,98.0
4899,C4,2680.95,0.25,63,98.0
4900,C4,2681.45,3/20,63,98.0
4901,C4,2681.6,1/10,63,98.0
4902,C4,2681.95,0.25,63,98.0
4903,C4,2682.2,0.25,63,98.0
4904,C4,2682.7,0.5,63,98.0
4905,C4,2683.2,0.25,63,98.0
4906,C4,2683.7,0.25,63,98.0
4907,C4,2683.95,0.25,63,98.0
4908,C4,2684.45,0.25,63,98.0
4909,C4,2684.95,0.25,63,98.0
4910,C4,2685.45,3/20,63,98.0
4911,C4,2685.6,1/10,63,98.0
4912,C4,2685.95,0.25,63,98.0
4913,C4,2686.2,0.25,63,98.0
4914,C4,2686.7,0.5,63,98.0
4915,G#2,2687.2,0.25,95,98.0
4916,F#3,2687.2,0.25,95,98.0
4917,B1,2687.2,0.25,95,98.0
4918,G#2,2687.45,0.25,95,98.0
4919,G#2,2687.7,0.25,95,98.0
4920,G#2,2687.95,0.25,95,98.0
4921,G#2,2688.2,0.25,95,98.0
4922,F#3,2688.2,0.25,95,98.0
4923,G#2,2688.45,0.25,95,98.0
4924,G#2,2688.7,0.25,95,98.0
4925,G#2,2688.95,0.25,95,98.0
4926,E-3,2688.95,0.25,95,98.0
4927,G#2,2689.2,0.25,95,98.0
4928,G#2,2689.45,3/20,95,98.0
4929,G#2,2689.6,1/10,95,98.0
4930,G#2,2689.7,0.25,95,98.0
4931,G#2,2689.95,0.25,71,98.0
4932,E-3,2689.95,0.25,71,98.0
4933,G#2,2690.2,0.25,95,98.0
4934,E-3,2690.2,0.25,95,98.0
4935,G#2,2690.45,0.25,95,98.0
4936,G#2,2690.7,0.25,95,98.0
4937,E-3,2690.7,0.25,95,98.0
4938,G#2,2690.95,0.25,95,98.0
4939,G#2,2691.2,0.25,95,98.0
4940,F#3,2691.2,0.25,95,98.0
4941,B1,2691.2,0.25,95,98.0
4942,G#2,2691.45,0.25,95,98.0
4943,G#2,2691.7,0.25,95,98.0
4944,G#2,2691.95,0.25,95,98.0
4945,B1,2691.95,0.25,95,98.0
4946,G#2,2692.2,0.25,95,98.0
4947,F#3,2692.2,0.25,95,98.0
4948,G#2,2692.45,0.25,95,98.0
4949,G#2,2692.7,0.25,95,98.0
4950,G#2,2692.95,0.25,95,98.0
4951,E-3,2692.95,0.25,95,98.0
4952,G#2,2693.2,0.25,95,98.0
4953,G#2,2693.45,3/20,95,98.0
4954,G#2,2693.6,1/10,95,98.0
4955,G#2,2693.7,0.25,95,98.0
4956,G#2,2693.95,0.25,71,98.0
4957,E-3,2693.95,0.25,71,98.0
4958,G#2,2694.2,0.25,95,98.0
4959,E-3,2694.2,0.25,95,98.0
4960,G#2,2694.45,0.25,95,98.0
4961,G#2,2694.7,0.25,95,98.0
4962,E-3,2694.7,0.25,95,98.0
4963,G#2,2694.95,0.25,95,98.0
4964,G#2,2695.2,0.25,95,98.0
4965,F#3,2695.2,0.25,95,98.0
4966,B1,2695.2,0.25,95,98.0
4967,G#2,2695.45,0.25,95,98.0
4968,G#2,2695.7,0.25,95,98.0
4969,G#2,2695.95,0.25,95,98.0
4970,B1,2695.95,0.25,95,98.0
4971,G#2,2696.2,0.25,95,98.0
4972,F#3,2696.2,0.25,95,98.0
4973,G#2,2696.45,0.25,95,98.0
4974,G#2,2696.7,0.25,95,98.0
4975,G#2,2696.95,0.25,95,98.0
4976,E-3,2696.95,0.25,95,98.0
4977,G#2,2697.2,0.25,95,98.0
4978,G#2,2697.45,3/20,95,98.0
4979,G#2,2697.6,1/10,95,98.0
4980,G#2,2697.7,0.25,95,98.0
4981,G#2,2697.95,0.25,71,98.0
4982,E-3,2697.95,0.25,71,98.0
4983,G#2,2698.2,0.25,95,98.0
4984,E-3,2698.2,0.25,95,98.0
4985,G#2,2698.45,0.25,95,98.0
4986,G#2,2698.7,0.25,95,98.0
4987,E-3,2698.7,0.25,95,98.0
4988,G#2,2698.95,0.25,95,98.0
4989,G#2,2699.2,0.25,95,98.0
4990,B1,2699.2,0.25,95,98.0
4991,G#2,2699.45,0.25,95,98.0
4992,F#3,2699.45,0.25,95,98.0
4993,G#2,2699.7,0.25,95,98.0
4994,C#4,2699.7,0.25,95,98.0
4995,G#2,2699.95,0.25,95,98.0
4996,C#4,2699.95,0.25,95,98.0
4997,G#2,2700.2,0.25,95,98.0
4998,G#2,2700.45,0.25,95,98.0
4999,B1,2700.45,0.25,95,98.0
5000,G#2,2700.7,0.25,95,98.0
5001,G#2,2700.95,0.25,95,98.0
5002,G#2,2701.2,0.25,90,98.0
5003,F#3,2701.2,0.25,90,98.0
5004,D2,2701.2,0.25,90,98.0
5005,G#2,2701.45,3/20,95,98.0
5006,D2,2701.45,3/20,95,98.0
5007,G#2,2701.7,1/10,95,98.0
5008,D2,2701.7,1/10,95,98.0
5009,G#2,2701.8,0.25,87,98.0
5010,C#4,2701.8,0.25,87,98.0
5011,G#2,2702.05,0.25,95,98.0
5012,C3,2702.05,0.25,95,98.0
5013,G#2,2702.3,0.25,90,98.0
5014,C#4,2702.3,0.25,90,98.0
5015,B2,2702.3,0.25,90,98.0
5016,G#2,2702.55,0.25,95,98.0
5017,G#2,2702.8,0.25,95,98.0
5018,A2,2702.8,0.25,95,98.0
5019,G#2,2703.05,0.25,95,98.0
5020,G#2,2703.3,0.25,87,98.0
5021,C#4,2703.3,0.25,87,98.0
5022,C2,2703.3,0.25,87,98.0
5023,C#3,2703.3,0.25,87,98.0
5024,G#2,2703.55,0.25,95,98.0
5025,F#3,2703.55,0.25,95,98.0
5026,G#2,2703.8,0.25,95,98.0
5027,G#2,2704.05,0.25,95,98.0
5028,C#4,2704.05,0.25,95,98.0
5029,D2,2704.05,0.25,95,98.0
5030,G#2,2704.3,0.25,95,98.0
5031,G#2,2704.55,0.25,95,98.0
5032,G#2,2704.8,0.25,71,98.0
5033,F#3,2704.8,0.25,71,98.0
5034,G#2,2705.05,0.25,95,98.0
5035,C2,2705.05,0.25,95,98.0
5036,G#2,2705.3,0.25,87,98.0
5037,F#3,2705.3,0.25,87,98.0
5038,G#2,2705.55,3/20,95,98.0
5039,C2,2705.55,3/20,95,98.0
5040,G#2,2705.8,1/10,95,98.0
5041,C2,2705.8,1/10,95,98.0
5042,G#2,2705.9,0.25,87,98.0
5043,C#4,2705.9,0.25,87,98.0
5044,G#2,2706.15,0.25,95,98.0
5045,C2,2706.15,0.25,95,98.0
5046,G#2,2706.4,0.25,90,98.0
5047,C#4,2706.4,0.25,90,98.0
5048,D2,2706.4,0.25,90,98.0
5049,G#2,2706.65,0.25,95,98.0
5050,G#2,2706.9,0.25,95,98.0
5051,G#2,2707.15,0.25,95,98.0
5052,G#2,2707.4,0.25,84,98.0
5053,C#4,2707.4,0.25,84,98.0
5054,C2,2707.4,0.25,84,98.0
5055,G#2,2707.65,0.25,95,98.0
5056,F#3,2707.65,0.25,95,98.0
5057,G#2,2707.9,0.25,95,98.0
5058,G#2,2708.15,0.25,95,98.0
5059,C#4,2708.15,0.25,95,98.0
5060,D2,2708.15,0.25,95,98.0
5061,G#2,2708.4,0.25,95,98.0
5062,G#2,2708.65,0.25,95,98.0
5063,G#2,2708.9,0.25,71,98.0
5064,F#3,2708.9,0.25,71,98.0
5065,G#2,2709.15,0.25,95,98.0
5066,C2,2709.15,0.25,95,98.0
5067,G#2,2709.4,0.25,87,98.0
5068,F#3,2709.4,0.25,87,98.0
5069,G#2,2709.65,3/20,95,98.0
5070,C2,2709.65,3/20,95,98.0
5071,G#2,2709.9,1/10,95,98.0
5072,C2,2709.9,1/10,95,98.0
5073,G#2,2710.0,0.25,87,98.0
5074,C#4,2710.0,0.25,87,98.0
5075,G#2,2710.25,0.25,95,98.0
5076,C2,2710.25,0.25,95,98.0
5077,G#2,2710.5,0.25,90,98.0
5078,C#4,2710.5,0.25,90,98.0
5079,D2,2710.5,0.25,90,98.0
5080,G#2,2710.75,0.25,95,98.0
5081,G#2,2711.0,0.25,95,98.0
5082,G#2,2711.25,0.25,95,98.0
5083,G#2,2711.5,0.25,87,98.0
5084,C#4,2711.5,0.25,87,98.0
5085,C2,2711.5,0.25,87,98.0
5086,C#3,2711.5,0.25,87,98.0
5087,G#2,2711.75,0.25,95,98.0
5088,F#3,2711.75,0.25,95,98.0
5089,G#2,2712.0,0.25,95,98.0
5090,G#2,2712.25,0.25,95,98.0
5091,C#4,2712.25,0.25,95,98.0
5092,D2,2712.25,0.25,95,98.0
5093,G#2,2712.5,0.25,95,98.0
5094,G#2,2712.75,0.25,95,98.0
5095,G#2,2713.0,0.25,71,98.0
5096,F#3,2713.0,0.25,71,98.0
5097,G#2,2713.25,0.25,95,98.0
5098,C2,2713.25,0.25,95,98.0
5099,G#2,2713.5,0.25,87,98.0
5100,F#3,2713.5,0.25,87,98.0
5101,G#2,2713.75,3/20,95,98.0
5102,C2,2713.75,3/20,95,98.0
5103,G#2,2714.0,1/10,95,98.0
5104,C2,2714.0,1/10,95,98.0
5105,G#2,2714.1,0.25,87,98.0
5106,C#4,2714.1,0.25,87,98.0
5107,G#2,2714.35,0.25,95,98.0
5108,C2,2714.35,0.25,95,98.0
5109,G#2,2714.6,0.25,90,98.0
5110,C#4,2714.6,0.25,90,98.0
5111,D2,2714.6,0.25,90,98.0
5112,G#2,2714.85,0.25,95,98.0
5113,G#2,2715.1,0.25,95,98.0
5114,G#2,2715.35,0.25,95,98.0
5115,G#2,2715.6,0.25,84,98.0
5116,C#4,2715.6,0.25,84,98.0
5117,C2,2715.6,0.25,84,98.0
5118,G#2,2715.85,0.25,95,98.0
5119,F#3,2715.85,0.25,95,98.0
5120,G#2,2716.1,0.25,95,98.0
5121,G#2,2716.35,0.25,95,98.0
5122,C#4,2716.35,0.25,95,98.0
5123,D2,2716.35,0.25,95,98.0
5124,G#2,2716.6,0.25,95,98.0
5125,G#2,2716.85,0.25,95,98.0
5126,G#2,2717.1,0.25,71,98.0
5127,F#3,2717.1,0.25,71,98.0
5128,G#2,2717.35,0.25,95,98.0
5129,C2,2717.35,0.25,95,98.0
5130,G#2,2717.6,0.25,87,98.0
5131,F#3,2717.6,0.25,87,98.0
5132,G#2,2717.85,3/20,95,98.0
5133,C2,2717.85,3/20,95,98.0
5134,G#2,2718.1,1/10,95,98.0
5135,C2,2718.1,1/10,95,98.0
5136,G#2,2718.2,0.25,87,98.0
5137,C#4,2718.2,0.25,87,98.0
5138,G#2,2718.45,0.25,95,98.0
5139,C2,2718.45,0.25,95,98.0
5140,G#2,2718.7,0.25,90,98.0
5141,C#4,2718.7,0.25,90,98.0
5142,D2,2718.7,0.25,90,98.0
5143,G#2,2718.95,0.25,95,98.0
5144,G#2,2719.2,0.25,95,98.0
5145,G#2,2719.45,0.25,95,98.0
5146,G#2,2719.7,0.25,87,98.0
5147,C#4,2719.7,0.25,87,98.0
5148,C2,2719.7,0.25,87,98.0
5149,C#3,2719.7,0.25,87,98.0
5150,G#2,2719.95,0.25,95,98.0
5151,F#3,2719.95,0.25,95,98.0
5152,G#2,2720.2,0.25,95,98.0
5153,G#2,2720.45,0.25,95,98.0
5154,C#4,2720.45,0.25,95,98.0
5155,D2,2720.45,0.25,95,98.0
5156,G#2,2720.7,0.25,95,98.0
5157,G#2,2720.95,0.25,95,98.0
5158,G#2,2721.2,0.25,71,98.0
5159,F#3,2721.2,0.25,71,98.0
5160,G#2,2721.45,0.25,95,98.0
5161,C2,2721.45,0.25,95,98.0
5162,G#2,2721.7,0.25,87,98.0
5163,F#3,2721.7,0.25,87,98.0
5164,G#2,2721.95,3/20,95,98.0
5165,C2,2721.95,3/20,95,98.0
5166,G#2,2722.2,1/10,95,98.0
5167,C2,2722.2,1/10,95,98.0
5168,G#2,2722.3,0.25,87,98.0
5169,C#4,2722.3,0.25,87,98.0
5170,G#2,2722.55,0.25,95,98.0
5171,C2,2722.55,0.25,95,98.0
5172,G#2,2722.8,0.25,90,98.0
5173,C#4,2722.8,0.25,90,98.0
5174,D2,2722.8,0.25,90,98.0
5175,G#2,2723.05,0.25,95,98.0
5176,G#2,2723.3,0.25,95,98.0
5177,G#2,2723.55,0.25,95,98.0
5178,G#2,2723.8,0.25,84,98.0
5179,C#4,2723.8,0.25,84,98.0
5180,C2,2723.8,0.25,84,98.0
5181,G#2,2724.05,0.25,95,98.0
5182,F#3,2724.05,0.25,95,98.0
5183,G#2,2724.3,0.25,95,98.0
5184,G#2,2724.55,0.25,95,98.0
5185,C#4,2724.55,0.25,95,98.0
5186,D2,2724.55,0.25,95,98.0
5187,G#2,2724.8,0.25,95,98.0
5188,G#2,2725.05,0.25,95,98.0
5189,G#2,2725.3,0.25,71,98.0
5190,F#3,2725.3,0.25,71,98.0
5191,G#2,2725.55,0.25,95,98.0
5192,C2,2725.55,0.25,95,98.0
5193,G#2,2725.8,0.25,87,98.0
5194,F#3,2725.8,0.25,87,98.0
5195,G#2,2726.05,3/20,95,98.0
5196,C2,2726.05,3/20,95,98.0
5197,G#2,2726.3,1/10,95,98.0
5198,C2,2726.3,1/10,95,98.0
5199,G#2,2726.4,0.25,87,98.0
5200,C#4,2726.4,0.25,87,98.0
5201,G#2,2726.65,0.25,95,98.0
5202,C2,2726.65,0.25,95,98.0
5203,G#2,2726.9,0.25,90,98.0
5204,C#4,2726.9,0.25,90,98.0
5205,D2,2726.9,0.25,90,98.0
5206,G#2,2727.15,0.25,95,98.0
5207,G#2,2727.4,0.25,95,98.0
5208,G#2,2727.65,0.25,95,98.0
5209,G#2,2727.9,0.25,87,98.0
5210,C#4,2727.9,0.25,87,98.0
5211,C2,2727.9,0.25,87,98.0
5212,C#3,2727.9,0.25,87,98.0
5213,G#2,2728.15,0.25,95,98.0
5214,F#3,2728.15,0.25,95,98.0
5215,G#2,2728.4,0.25,95,98.0
5216,G#2,2728.65,0.25,95,98.0
5217,C#4,2728.65,0.25,95,98.0
5218,D2,2728.65,0.25,95,98.0
5219,G#2,2728.9,0.25,95,98.0
5220,G#2,2729.15,0.25,95,98.0
5221,G#2,2729.4,0.25,71,98.0
5222,F#3,2729.4,0.25,71,98.0
5223,G#2,2729.65,0.25,95,98.0
5224,C2,2729.65,0.25,95,98.0
5225,G#2,2729.9,0.25,87,98.0
5226,F#3,2729.9,0.25,87,98.0
5227,G#2,2730.15,3/20,95,98.0
5228,C2,2730.15,3/20,95,98.0
5229,G#2,2730.4,1/10,95,98.0
5230,C2,2730.4,1/10,95,98.0
5231,G#2,2730.5,0.25,87,98.0
5232,C#4,2730.5,0.25,87,98.0
5233,G#2,2730.75,0.25,95,98.0
5234,C2,2730.75,0.25,95,98.0
5235,G#2,2731.0,0.25,90,98.0
5236,C#4,2731.0,0.25,90,98.0
5237,D2,2731.0,0.25,90,98.0
5238,G#2,2731.25,0.25,95,98.0
5239,G#2,2731.5,0.25,95,98.0
5240,G#2,2731.75,0.25,95,98.0
5241,G#2,2732.0,0.25,84,98.0
5242,C#4,2732.0,0.25,84,98.0
5243,C2,2732.0,0.25,84,98.0
5244,G#2,2732.25,0.25,95,98.0
5245,F#3,2732.25,0.25,95,98.0
5246,G#2,2732.5,0.25,95,98.0
5247,G#2,2732.75,0.25,95,98.0
5248,C#4,2732.75,0.25,95,98.0
5249,D2,2732.75,0.25,95,98.0
5250,G#2,2733.0,0.25,95,98.0
5251,G#2,2733.25,0.25,95,98.0
5252,G#2,2733.5,0.25,71,98.0
5253,F#3,2733.5,0.25,71,98.0
5254,G#2,2733.75,0.25,95,98.0
5255,C2,2733.75,0.25,95,98.0
5256,G#2,2734.0,0.25,87,98.0
5257,F#3,2734.0,0.25,87,98.0
5258,G#2,2734.25,3/20,95,98.0
5259,C2,2734.25,3/20,95,98.0
5260,G#2,2734.5,1/10,95,98.0
5261,C2,2734.5,1/10,95,98.0
5262,G#2,2734.6,0.25,87,98.0
5263,C#4,2734.6,0.25,87,98.0
5264,G#2,2734.85,0.25,95,98.0
5265,C2,2734.85,0.25,95,98.0
5266,C3,2734.85,0.25,95,98.0
5267,G#2,2735.1,0.25,90,98.0
5268,C#4,2735.1,0.25,90,98.0
5269,D2,2735.1,0.25,90,98.0
5270,G#2,2735.35,0.25,95,98.0
5271,B2,2735.35,0.25,95,98.0
5272,G#2,2735.6,0.25,95,98.0
5273,A2,2735.6,0.25,95,98.0
5274,G#2,2735.85,0.25,95,98.0
5275,G#2,2736.1,0.25,95,98.0
5276,F#3,2736.1,0.25,95,98.0
5277,C2,2736.1,0.25,95,98.0
5278,C#3,2736.1,0.25,95,98.0
5279,G#2,2736.35,0.25,95,98.0
5280,G#2,2736.6,0.25,95,98.0
5281,G#2,2736.85,0.25,95,98.0
5282,D2,2736.85,0.25,95,98.0
5283,G#2,2737.1,0.25,95,98.0
5284,G#2,2737.35,0.25,95,98.0
5285,G#2,2737.6,0.25,71,98.0
5286,F#3,2737.6,0.25,71,98.0
5287,G#2,2737.85,0.25,95,98.0
5288,C2,2737.85,0.25,95,98.0
5289,G#2,2738.1,0.25,87,98.0
5290,F#3,2738.1,0.25,87,98.0
5291,G#2,2738.35,3/20,95,98.0
5292,G#2,2738.5,1/10,95,98.0
5293,G#2,2738.6,0.25,95,98.0
5294,G#2,2738.85,0.25,95,98.0
5295,C2,2738.85,0.25,95,98.0
5296,G#2,2739.1,0.25,95,98.0
5297,D2,2739.1,0.25,95,98.0
5298,C3,2739.1,0.25,95,98.0
5299,G#2,2739.35,0.25,95,98.0
5300,B2,2739.35,0.25,95,98.0
5301,G#2,2739.6,0.25,95,98.0
5302,A2,2739.6,0.25,95,98.0
5303,G#2,2739.85,0.25,95,98.0
5304,C2,2739.85,0.25,95,98.0
5305,A3,2739.85,0.25,95,98.0
5306,G#2,2740.1,0.25,95,98.0
5307,F#3,2740.1,0.25,95,98.0
5308,G#2,2740.35,0.25,95,98.0
5309,G#2,2740.6,0.25,95,98.0
5310,C2,2740.6,0.25,95,98.0
5311,A3,2740.6,0.25,95,98.0
5312,G#2,2740.85,0.25,95,98.0
5313,G#2,2741.1,0.25,95,98.0
5314,C2,2741.1,0.25,95,98.0
5315,A3,2741.1,0.25,95,98.0
5316,G#2,2741.35,0.25,95,98.0
5317,G#2,2741.6,0.25,71,98.0
5318,F#3,2741.6,0.25,71,98.0
5319,G#2,2741.85,0.25,95,98.0
5320,G#2,2742.1,0.25,90,98.0
5321,F#3,2742.1,0.25,90,98.0
5322,C2,2742.1,0.25,90,98.0
5323,G#2,2742.35,3/20,95,98.0
5324,G#2,2742.5,1/10,95,98.0
5325,G#2,2742.6,0.25,95,98.0
5326,G#2,2742.85,0.25,95,98.0
5327,C2,2742.85,0.25,95,98.0
5328,G#2,2743.1,0.25,95,98.0
5329,D2,2743.1,0.25,95,98.0
5330,G#2,2743.35,0.25,95,98.0
5331,G#2,2743.6,0.25,95,98.0
5332,G#2,2743.85,0.25,95,98.0
5333,G#2,2744.1,0.25,95,98.0
5334,F#3,2744.1,0.25,95,98.0
5335,C2,2744.1,0.25,95,98.0
5336,G#2,2744.35,0.25,95,98.0
5337,G#2,2744.6,0.25,95,98.0
5338,G#2,2744.85,0.25,95,98.0
5339,C2,2744.85,0.25,95,98.0
5340,G#2,2745.1,0.25,95,98.0
5341,D2,2745.1,0.25,95,98.0
5342,G#2,2745.35,0.25,95,98.0
5343,G#2,2745.6,0.25,83,98.0
5344,F#3,2745.6,0.25,83,98.0
5345,C2,2745.6,0.25,83,98.0
5346,E-3,2745.6,0.25,83,98.0
5347,G#2,2745.85,0.25,95,98.0
5348,G#2,2746.1,0.25,87,98.0
5349,F#3,2746.1,0.25,87,98.0
5350,G#2,2746.35,3/20,95,98.0
5351,C2,2746.35,3/20,95,98.0
5352,E-3,2746.35,3/20,95,98.0
5353,G#2,2746.6,1/10,95,98.0
5354,C2,2746.6,1/10,95,98.0
5355,E-3,2746.6,1/10,95,98.0
5356,G#2,2746.7,0.25,95,98.0
5357,G#2,2746.95,0.25,95,98.0
5358,G#2,2747.2,0.25,95,98.0
5359,D2,2747.2,0.25,95,98.0
5360,G#2,2747.45,0.25,95,98.0
5361,G#2,2747.7,0.25,95,98.0
5362,G#2,2747.95,0.25,95,98.0
5363,C2,2747.95,0.25,95,98.0
5364,C#3,2747.95,0.25,95,98.0
5365,G#2,2748.2,0.25,95,98.0
5366,F#3,2748.2,0.25,95,98.0
5367,G#2,2748.45,0.25,95,98.0
5368,C2,2748.45,0.25,95,98.0
5369,G#2,2748.7,0.25,95,98.0
5370,C2,2748.7,0.25,95,98.0
5371,A3,2748.7,0.25,95,98.0
5372,G#2,2748.95,0.25,95,98.0
5373,G#2,2749.2,0.25,95,98.0
5374,C2,2749.2,0.25,95,98.0
5375,A3,2749.2,0.25,95,98.0
5376,G#2,2749.45,0.25,95,98.0
5377,G#2,2749.7,0.25,71,98.0
5378,F#3,2749.7,0.25,71,98.0
5379,G#2,2749.95,0.25,95,98.0
5380,G#2,2750.2,0.25,90,98.0
5381,F#3,2750.2,0.25,90,98.0
5382,C2,2750.2,0.25,90,98.0
5383,G#2,2750.45,3/20,95,98.0
5384,G#2,2750.6,1/10,95,98.0
5385,G#2,2750.7,0.25,95,98.0
5386,G#2,2750.95,0.25,95,98.0
5387,C2,2750.95,0.25,95,98.0
5388,G#2,2751.2,0.25,95,98.0
5389,D2,2751.2,0.25,95,98.0
5390,G#2,2751.45,0.25,95,98.0
5391,G#2,2751.7,0.25,95,98.0
5392,G#2,2751.95,0.25,95,98.0
5393,G#2,2752.2,0.25,95,98.0
5394,F#3,2752.2,0.25,95,98.0
5395,C2,2752.2,0.25,95,98.0
5396,G#2,2752.45,0.25,95,98.0
5397,G#2,2752.7,0.25,95,98.0
5398,G#2,2752.95,0.25,95,98.0
5399,D2,2752.95,0.25,95,98.0
5400,G#2,2753.2,0.25,95,98.0
5401,G#2,2753.45,0.25,95,98.0
5402,G#2,2753.7,0.25,71,98.0
5403,F#3,2753.7,0.25,71,98.0
5404,G#2,2753.95,0.25,95,98.0
5405,C2,2753.95,0.25,95,98.0
5406,G#2,2754.2,0.25,87,98.0
5407,F#3,2754.2,0.25,87,98.0
5408,G#2,2754.45,3/20,95,98.0
5409,G#2,2754.6,1/10,95,98.0
5410,G#2,2754.7,0.25,95,98.0
5411,G#2,2754.95,0.25,95,98.0
5412,C2,2754.95,0.25,95,98.0
5413,G#2,2755.2,0.25,95,98.0
5414,D2,2755.2,0.25,95,98.0
5415,C3,2755.2,0.25,95,98.0
5416,G#2,2755.45,0.25,95,98.0
5417,B2,2755.45,0.25,95,98.0
5418,G#2,2755.7,0.25,95,98.0
5419,A2,2755.7,0.25,95,98.0
5420,G#2,2755.95,0.25,95,98.0
5421,C2,2755.95,0.25,95,98.0
5422,A3,2755.95,0.25,95,98.0
5423,G#2,2756.2,0.25,95,98.0
5424,F#3,2756.2,0.25,95,98.0
5425,G#2,2756.45,0.25,95,98.0
5426,G#2,2756.7,0.25,95,98.0
5427,C2,2756.7,0.25,95,98.0
5428,A3,2756.7,0.25,95,98.0
5429,G#2,2756.95,0.25,95,98.0
5430,G#2,2757.2,0.25,95,98.0
5431,C2,2757.2,0.25,95,98.0
5432,A3,2757.2,0.25,95,98.0
5433,G#2,2757.45,0.25,95,98.0
5434,G#2,2757.7,0.25,71,98.0
5435,F#3,2757.7,0.25,71,98.0
5436,G#2,2757.95,0.25,95,98.0
5437,G#2,2758.2,0.25,90,98.0
5438,F#3,2758.2,0.25,90,98.0
5439,C2,2758.2,0.25,90,98.0
5440,G#2,2758.45,3/20,95,98.0
5441,G#2,2758.6,1/10,95,98.0
5442,G#2,2758.7,0.25,95,98.0
5443,G#2,2758.95,0.25,95,98.0
5444,C2,2758.95,0.25,95,98.0
5445,G#2,2759.2,0.25,95,98.0
5446,D2,2759.2,0.25,95,98.0
5447,G#2,2759.45,0.25,95,98.0
5448,G#2,2759.7,0.25,95,98.0
5449,G#2,2759.95,0.25,95,98.0
5450,G#2,2760.2,0.25,95,98.0
5451,F#3,2760.2,0.25,95,98.0
5452,C2,2760.2,0.25,95,98.0
5453,G#2,2760.45,0.25,95,98.0
5454,G#2,2760.7,0.25,95,98.0
5455,G#2,2760.95,0.25,95,98.0
5456,D2,2760.95,0.25,95,98.0
5457,G#2,2761.2,0.25,95,98.0
5458,G#2,2761.45,0.25,95,98.0
5459,G#2,2761.7,0.25,71,98.0
5460,F#3,2761.7,0.25,71,98.0
5461,G#2,2761.95,0.25,95,98.0
5462,C2,2761.95,0.25,95,98.0
5463,G#2,2762.2,0.25,87,98.0
5464,F#3,2762.2,0.25,87,98.0
5465,G#2,2762.45,3/20,95,98.0
5466,G#2,2762.6,1/10,95,98.0
5467,G#2,2762.7,0.25,95,98.0
5468,G#2,2762.95,0.25,95,98.0
5469,C2,2762.95,0.25,95,98.0
5470,G#2,2763.2,0.25,95,98.0
5471,D2,2763.2,0.25,95,98.0
5472,C3,2763.2,0.25,95,98.0
5473,G#2,2763.45,0.25,95,98.0
5474,B2,2763.45,0.25,95,98.0
5475,G#2,2763.7,0.25,95,98.0
5476,A2,2763.7,0.25,95,98.0
5477,G#2,2763.95,0.25,95,98.0
5478,G#2,2764.2,0.25,95,98.0
5479,F#3,2764.2,0.25,95,98.0
5480,C2,2764.2,0.25,95,98.0
5481,C#3,2764.2,0.25,95,98.0
5482,G#2,2764.45,0.25,95,98.0
5483,G#2,2764.7,0.25,95,98.0
5484,G#2,2764.95,0.25,95,98.0
5485,G#2,2765.2,0.25,95,98.0
5486,D2,2765.2,0.25,95,98.0
5487,G#2,2765.45,0.25,95,98.0
5488,G#2,2765.7,0.25,71,98.0
5489,F#3,2765.7,0.25,71,98.0
5490,G#2,2765.95,0.25,95,98.0
5491,C2,2765.95,0.25,95,98.0
5492,G#2,2766.2,0.25,87,98.0
5493,F#3,2766.2,0.25,87,98.0
5494,G#2,2766.45,3/20,95,98.0
5495,C2,2766.45,3/20,95,98.0
5496,G#2,2766.7,1/10,95,98.0
5497,C2,2766.7,1/10,95,98.0
5498,G#2,2766.8,0.25,95,98.0
5499,G3,2766.8,0.25,95,98.0
5500,G#2,2767.05,0.25,95,98.0
5501,C2,2767.05,0.25,95,98.0
5502,G#2,2767.3,0.25,95,98.0
5503,D2,2767.3,0.25,95,98.0
5504,G#2,2767.55,0.25,95,98.0
5505,G#2,2767.8,0.25,95,98.0
5506,C2,2767.8,0.25,95,98.0
5507,G#2,2768.05,0.25,95,98.0
5508,C2,2768.05,0.25,95,98.0
5509,G#2,2768.3,0.25,95,98.0
5510,F#3,2768.3,0.25,95,98.0
5511,C2,2768.3,0.25,95,98.0
5512,G#2,2768.55,0.25,95,98.0
5513,G#2,2768.8,0.25,95,98.0
5514,G#2,2769.05,0.25,95,98.0
5515,D2,2769.05,0.25,95,98.0
5516,G#2,2769.3,0.25,95,98.0
5517,G#2,2769.55,0.25,95,98.0
5518,G#2,2769.8,0.25,71,98.0
5519,F#3,2769.8,0.25,71,98.0
5520,G#2,2770.05,0.25,95,98.0
5521,C2,2770.05,0.25,95,98.0
5522,G#2,2770.3,0.25,90,98.0
5523,F#3,2770.3,0.25,90,98.0
5524,C2,2770.3,0.25,90,98.0
5525,G#2,2770.55,3/20,95,98.0
5526,G#2,2770.7,1/10,95,98.0
5527,G#2,2770.8,0.25,95,98.0
5528,G3,2770.8,0.25,95,98.0
5529,C2,2770.8,0.25,95,98.0
5530,G#2,2771.05,0.25,95,98.0
5531,G#2,2771.3,0.25,95,98.0
5532,D2,2771.3,0.25,95,98.0
5533,G#2,2771.55,0.25,95,98.0
5534,G#2,2771.8,0.25,95,98.0
5535,G#2,2772.05,0.25,95,98.0
5536,G#2,2772.3,0.25,95,98.0
5537,F#3,2772.3,0.25,95,98.0
5538,C2,2772.3,0.25,95,98.0
5539,G#2,2772.55,0.25,95,98.0
5540,G#2,2772.8,0.25,95,98.0
5541,G#2,2773.05,0.25,95,98.0
5542,D2,2773.05,0.25,95,98.0
5543,G#2,2773.3,0.25,95,98.0
5544,G#2,2773.55,0.25,95,98.0
5545,G#2,2773.8,0.25,71,98.0
5546,F#3,2773.8,0.25,71,98.0
5547,G#2,2774.05,0.25,95,98.0
5548,G#2,2774.3,0.25,90,98.0
5549,F#3,2774.3,0.25,90,98.0
5550,C2,2774.3,0.25,90,98.0
5551,G#2,2774.55,3/20,95,98.0
5552,G#2,2774.7,1/10,95,98.0
5553,G#2,2774.8,0.25,95,98.0
5554,G3,2774.8,0.25,95,98.0
5555,C2,2774.8,0.25,95,98.0
5556,G#2,2775.05,0.25,95,98.0
5557,G#2,2775.3,0.25,95,98.0
5558,D2,2775.3,0.25,95,98.0
5559,G#2,2775.55,0.25,95,98.0
5560,G#2,2775.8,0.25,95,98.0
5561,C2,2775.8,0.25,95,98.0
5562,G#2,2776.05,0.25,95,98.0
5563,C2,2776.05,0.25,95,98.0
5564,G#2,2776.3,0.25,95,98.0
5565,F#3,2776.3,0.25,95,98.0
5566,C2,2776.3,0.25,95,98.0
5567,G#2,2776.55,0.25,95,98.0
5568,G#2,2776.8,0.25,95,98.0
5569,G#2,2777.05,0.25,95,98.0
5570,C2,2777.05,0.25,95,98.0
5571,G#2,2777.3,0.25,95,98.0
5572,D2,2777.3,0.25,95,98.0
5573,C3,2777.3,0.25,95,98.0
5574,G#2,2777.55,0.25,95,98.0
5575,C2,2777.55,0.25,95,98.0
5576,B2,2777.55,0.25,95,98.0
5577,G#2,2777.8,0.25,79,98.0
5578,F#3,2777.8,0.25,79,98.0
5579,A2,2777.8,0.25,79,98.0
5580,G#2,2778.05,0.25,95,98.0
5581,G2,2778.05,0.25,95,98.0
5582,G#2,2778.3,0.25,91,98.0
5583,F#3,2778.3,0.25,91,98.0
5584,C2,2778.3,0.25,91,98.0
5585,C#3,2778.3,0.25,91,98.0
5586,G#2,2778.55,3/20,95,98.0
5587,G#2,2778.7,1/10,95,98.0
5588,G#2,2778.8,0.25,95,98.0
5589,G3,2778.8,0.25,95,98.0
5590,D2,2778.8,0.25,95,98.0
5591,G#2,2779.05,0.25,95,98.0
5592,C2,2779.05,0.25,95,98.0
5593,C#3,2779.05,0.25,95,98.0
5594,G#2,2779.3,0.25,95,98.0
5595,G#2,2779.55,0.25,95,98.0
5596,C2,2779.55,0.25,95,98.0
5597,G#2,2779.8,0.25,95,98.0
5598,D2,2779.8,0.25,95,98.0
5599,G#2,2780.05,0.25,95,98.0
5600,G#2,2780.3,0.25,95,98.0
5601,F#3,2780.3,0.25,95,98.0
5602,C2,2780.3,0.25,95,98.0
5603,C#3,2780.3,0.25,95,98.0
5604,G#2,2780.55,0.25,95,98.0
5605,G#2,2780.8,0.25,95,98.0
5606,G#2,2781.05,0.25,95,98.0
5607,G#2,2781.3,0.25,95,98.0
5608,D2,2781.3,0.25,95,98.0
5609,G#2,2781.55,0.25,95,98.0
5610,G#2,2781.8,0.25,71,98.0
5611,F#3,2781.8,0.25,71,98.0
5612,G#2,2782.05,0.25,95,98.0
5613,C2,2782.05,0.25,95,98.0
5614,G#2,2782.3,0.25,87,98.0
5615,F#3,2782.3,0.25,87,98.0
5616,G#2,2782.55,3/20,95,98.0
5617,C2,2782.55,3/20,95,98.0
5618,G#2,2782.8,1/10,95,98.0
5619,C2,2782.8,1/10,95,98.0
5620,G#2,2782.9,0.25,95,98.0
5621,G3,2782.9,0.25,95,98.0
5622,G#2,2783.15,0.25,95,98.0
5623,C2,2783.15,0.25,95,98.0
5624,G#2,2783.4,0.25,95,98.0
5625,D2,2783.4,0.25,95,98.0
5626,G#2,2783.65,0.25,95,98.0
5627,G#2,2783.9,0.25,95,98.0
5628,C2,2783.9,0.25,95,98.0
5629,G#2,2784.15,0.25,95,98.0
5630,C2,2784.15,0.25,95,98.0
5631,G#2,2784.4,0.25,95,98.0
5632,F#3,2784.4,0.25,95,98.0
5633,C2,2784.4,0.25,95,98.0
5634,G#2,2784.65,0.25,95,98.0
5635,G#2,2784.9,0.25,95,98.0
5636,G#2,2785.15,0.25,95,98.0
5637,D2,2785.15,0.25,95,98.0
5638,G#2,2785.4,0.25,95,98.0
5639,G#2,2785.65,0.25,95,98.0
5640,G#2,2785.9,0.25,71,98.0
5641,F#3,2785.9,0.25,71,98.0
5642,G#2,2786.15,0.25,95,98.0
5643,C2,2786.15,0.25,95,98.0
5644,G#2,2786.4,0.25,90,98.0
5645,F#3,2786.4,0.25,90,98.0
5646,C2,2786.4,0.25,90,98.0
5647,G#2,2786.65,3/20,95,98.0
5648,G#2,2786.8,1/10,95,98.0
5649,G#2,2786.9,0.25,95,98.0
5650,G3,2786.9,0.25,95,98.0
5651,C2,2786.9,0.25,95,98.0
5652,G#2,2787.15,0.25,95,98.0
5653,G#2,2787.4,0.25,95,98.0
5654,D2,2787.4,0.25,95,98.0
5655,G#2,2787.65,0.25,95,98.0
5656,G#2,2787.9,0.25,95,98.0
5657,G#2,2788.15,0.25,95,98.0
5658,G#2,2788.4,0.25,95,98.0
5659,F#3,2788.4,0.25,95,98.0
5660,C2,2788.4,0.25,95,98.0
5661,G#2,2788.65,0.25,95,98.0
5662,G#2,2788.9,0.25,95,98.0
5663,G#2,2789.15,0.25,95,98.0
5664,D2,2789.15,0.25,95,98.0
5665,G#2,2789.4,0.25,95,98.0
5666,G#2,2789.65,0.25,95,98.0
5667,G#2,2789.9,0.25,71,98.0
5668,F#3,2789.9,0.25,71,98.0
5669,G#2,2790.15,0.25,95,98.0
5670,G#2,2790.4,0.25,90,98.0
5671,F#3,2790.4,0.25,90,98.0
5672,C2,2790.4,0.25,90,98.0
5673,G#2,2790.65,3/20,95,98.0
5674,G#2,2790.8,1/10,95,98.0
5675,G#2,2790.9,0.25,95,98.0
5676,G3,2790.9,0.25,95,98.0
5677,C2,2790.9,0.25,95,98.0
5678,G#2,2791.15,0.25,95,98.0
5679,G#2,2791.4,0.25,95,98.0
5680,D2,2791.4,0.25,95,98.0
5681,G#2,2791.65,0.25,95,98.0
5682,G#2,2791.9,0.25,95,98.0
5683,C2,2791.9,0.25,95,98.0
5684,G#2,2792.15,0.25,95,98.0
5685,C2,2792.15,0.25,95,98.0
5686,G#2,2792.4,0.25,95,98.0
5687,D2,2792.4,0.25,95,98.0
5688,G#2,2792.65,0.25,95,98.0
5689,B-2,2792.65,0.25,95,98.0
5690,D2,2792.65,0.25,95,98.0
5691,C#3,2792.65,0.25,95,98.0
5692,G#2,2792.9,0.25,95,98.0
5693,G#2,2793.15,0.25,95,98.0
5694,B-2,2793.15,0.25,95,98.0
5695,D2,2793.15,0.25,95,98.0
5696,C3,2793.15,0.25,95,98.0
5697,G#2,2793.4,0.25,95,98.0
5698,C2,2793.4,0.25,95,98.0
5699,B2,2793.4,0.25,95,98.0
5700,G#2,2793.65,0.25,95,98.0
5701,A2,2793.65,0.25,95,98.0
5702,G#2,2793.9,0.25,95,98.0
5703,G#2,2794.15,0.25,95,98.0
5704,C2,2794.15,0.25,95,98.0
5705,C#3,2794.15,0.25,95,98.0
5706,G#2,2794.4,0.25,95,98.0
5707,G#2,2794.65,3/20,95,98.0
5708,C2,2794.65,3/20,95,98.0
5709,C#3,2794.65,3/20,95,98.0
5710,G#2,2794.9,1/10,95,98.0
5711,C2,2794.9,1/10,95,98.0
5712,C#3,2794.9,1/10,95,98.0
5713,G#2,2795.0,0.25,95,98.0
5714,C2,2795.0,0.25,95,98.0
5715,C#3,2795.0,0.25,95,98.0
5716,G#2,2795.25,0.25,95,98.0
5717,G#2,2795.5,0.25,95,98.0
5718,D2,2795.5,0.25,95,98.0
5719,G#2,2795.75,0.25,95,98.0
5720,B-2,2795.75,0.25,95,98.0
5721,D2,2795.75,0.25,95,98.0
5722,C#3,2795.75,0.25,95,98.0
5723,G#2,2796.0,0.25,95,98.0
5724,G#2,2796.25,0.25,95,98.0
5725,B-2,2796.25,0.25,95,98.0
5726,D2,2796.25,0.25,95,98.0
5727,C3,2796.25,0.25,95,98.0
5728,G#2,2796.5,0.25,95,98.0
5729,C2,2796.5,0.25,95,98.0
5730,B2,2796.5,0.25,95,98.0
5731,G#2,2796.75,0.25,95,98.0
5732,A2,2796.75,0.25,95,98.0
5733,G#2,2797.0,0.25,95,98.0
5734,G#2,2797.25,0.25,95,98.0
5735,C2,2797.25,0.25,95,98.0
5736,C#3,2797.25,0.25,95,98.0
5737,G#2,2797.5,0.25,95,98.0
5738,G#2,2797.75,0.25,95,98.0
5739,C2,2797.75,0.25,95,98.0
5740,C#3,2797.75,0.25,95,98.0
5741,G#2,2798.0,0.25,95,98.0
5742,C2,2798.0,0.25,95,98.0
5743,C#3,2798.0,0.25,95,98.0
5744,G#2,2798.25,0.25,95,98.0
5745,G#2,2798.5,0.25,95,98.0
5746,C2,2798.5,0.25,95,98.0
5747,C#3,2798.5,0.25,95,98.0
5748,G#2,2798.75,3/20,95,98.0
5749,G#2,2798.9,1/10,95,98.0
5750,G#2,2799.0,0.25,95,98.0
5751,C2,2799.0,0.25,95,98.0
5752,C#3,2799.0,0.25,95,98.0
5753,G#2,2799.25,0.25,95,98.0
5754,G#2,2799.5,0.25,95,98.0
5755,D2,2799.5,0.25,95,98.0
5756,G#2,2799.75,0.25,95,98.0
5757,B-2,2799.75,0.25,95,98.0
5758,D2,2799.75,0.25,95,98.0
5759,C#3,2799.75,0.25,95,98.0
5760,G#2,2800.0,0.25,95,98.0
5761,G#2,2800.25,0.25,95,98.0
5762,B-2,2800.25,0.25,95,98.0
5763,D2,2800.25,0.25,95,98.0
5764,C3,2800.25,0.25,95,98.0
5765,G#2,2800.5,0.25,95,98.0
5766,C2,2800.5,0.25,95,98.0
5767,B2,2800.5,0.25,95,98.0
5768,G#2,2800.75,0.25,95,98.0
5769,A2,2800.75,0.25,95,98.0
5770,G#2,2801.0,0.25,95,98.0
5771,G#2,2801.25,0.25,95,98.0
5772,C2,2801.25,0.25,95,98.0
5773,C#3,2801.25,0.25,95,98.0
5774,G#2,2801.5,0.25,95,98.0
5775,G#2,2801.75,0.25,95,98.0
5776,C2,2801.75,0.25,95,98.0
5777,C#3,2801.75,0.25,95,98.0
5778,G#2,2802.0,0.25,95,98.0
5779,C2,2802.0,0.25,95,98.0
5780,C#3,2802.0,0.25,95,98.0
5781,G#2,2802.25,0.25,95,98.0
5782,G#2,2802.5,0.25,95,98.0
5783,D2,2802.5,0.25,95,98.0
5784,G#2,2802.75,3/20,95,98.0
5785,B-2,2802.75,3/20,95,98.0
5786,D2,2802.75,3/20,95,98.0
5787,C#3,2802.75,3/20,95,98.0
5788,G#2,2803.0,1/10,95,98.0
5789,B-2,2803.0,1/10,95,98.0
5790,D2,2803.0,1/10,95,98.0
5791,C#3,2803.0,1/10,95,98.0
5792,G#2,2803.1,0.25,95,98.0
5793,G#2,2803.35,0.25,95,98.0
5794,B-2,2803.35,0.25,95,98.0
5795,D2,2803.35,0.25,95,98.0
5796,C3,2803.35,0.25,95,98.0
5797,G#2,2803.6,0.25,95,98.0
5798,C2,2803.6,0.25,95,98.0
5799,B2,2803.6,0.25,95,98.0
5800,G#2,2803.85,0.25,95,98.0
5801,A2,2803.85,0.25,95,98.0
5802,G#2,2804.1,0.25,95,98.0
5803,G#2,2804.35,0.25,95,98.0
5804,C2,2804.35,0.25,95,98.0
5805,C#3,2804.35,0.25,95,98.0
5806,G#2,2804.6,0.25,95,98.0
5807,G#2,2804.85,0.25,95,98.0
5808,C2,2804.85,0.25,95,98.0
5809,C#3,2804.85,0.25,95,98.0
5810,G#2,2805.1,0.25,95,98.0
5811,C2,2805.1,0.25,95,98.0
5812,C#3,2805.1,0.25,95,98.0
5813,G#2,2805.35,0.25,95,98.0
5814,G#2,2805.6,0.25,95,98.0
5815,C2,2805.6,0.25,95,98.0
5816,C#3,2805.6,0.25,95,98.0
5817,G#2,2805.85,0.25,95,98.0
5818,G#2,2806.1,0.25,95,98.0
5819,C2,2806.1,0.25,95,98.0
5820,C#3,2806.1,0.25,95,98.0
5821,G#2,2806.35,0.25,95,98.0
5822,G#2,2806.6,0.25,95,98.0
5823,F#3,2806.6,0.25,95,98.0
5824,C2,2806.6,0.25,95,98.0
5825,C#3,2806.6,0.25,95,98.0
5826,G#2,2806.85,3/20,95,98.0
5827,G#2,2807.0,1/10,95,98.0
5828,G#2,2807.1,0.25,95,98.0
5829,G#2,2807.35,0.25,95,98.0
5830,D2,2807.35,0.25,95,98.0
5831,G#2,2807.6,0.25,95,98.0
5832,G#2,2807.85,0.25,95,98.0
5833,G#2,2808.1,0.25,71,98.0
5834,F#3,2808.1,0.25,71,98.0
5835,G#2,2808.35,0.25,95,98.0
5836,C2,2808.35,0.25,95,98.0
5837,G#2,2808.6,0.25,87,98.0
5838,F#3,2808.6,0.25,87,98.0
5839,G#2,2808.85,0.25,95,98.0
5840,G#2,2809.1,0.25,95,98.0
5841,G#2,2809.35,0.25,95,98.0
5842,C2,2809.35,0.25,95,98.0
5843,G#2,2809.6,0.25,95,98.0
5844,D2,2809.6,0.25,95,98.0
5845,G#2,2809.85,0.25,95,98.0
5846,G#2,2810.1,0.25,95,98.0
5847,G#2,2810.35,0.25,95,98.0
5848,G#2,2810.6,0.25,95,98.0
5849,F#3,2810.6,0.25,95,98.0
5850,C2,2810.6,0.25,95,98.0
5851,G#2,2810.85,3/20,95,98.0
5852,G#2,2811.0,1/10,95,98.0
5853,G#2,2811.1,0.25,95,98.0
5854,G#2,2811.35,0.25,95,98.0
5855,D2,2811.35,0.25,95,98.0
5856,G#2,2811.6,0.25,95,98.0
5857,G#2,2811.85,0.25,95,98.0
5858,G#2,2812.1,0.25,71,98.0
5859,F#3,2812.1,0.25,71,98.0
5860,G#2,2812.35,0.25,95,98.0
5861,C2,2812.35,0.25,95,98.0
5862,G#2,2812.6,0.25,87,98.0
5863,F#3,2812.6,0.25,87,98.0
5864,G#2,2812.85,0.25,95,98.0
5865,G#2,2813.1,0.25,95,98.0
5866,G#2,2813.35,0.25,95,98.0
5867,C2,2813.35,0.25,95,98.0
5868,G#2,2813.6,0.25,95,98.0
5869,D2,2813.6,0.25,95,98.0
5870,G#2,2813.85,0.25,95,98.0
5871,G#2,2814.1,0.25,95,98.0
5872,G#2,2814.35,0.25,95,98.0
5873,G#2,2814.6,0.25,95,98.0
5874,F#3,2814.6,0.25,95,98.0
5875,C2,2814.6,0.25,95,98.0
5876,G#2,2814.85,3/20,95,98.0
5877,G#2,2815.0,1/10,95,98.0
5878,G#2,2815.1,0.25,95,98.0
5879,G#2,2815.35,0.25,95,98.0
5880,D2,2815.35,0.25,95,98.0
5881,G#2,2815.6,0.25,95,98.0
5882,G#2,2815.85,0.25,95,98.0
5883,G#2,2816.1,0.25,71,98.0
5884,F#3,2816.1,0.25,71,98.0
5885,G#2,2816.35,0.25,95,98.0
5886,C2,2816.35,0.25,95,98.0
5887,G#2,2816.6,0.25,87,98.0
5888,F#3,2816.6,0.25,87,98.0
5889,G#2,2816.85,0.25,95,98.0
5890,G#2,2817.1,0.25,95,98.0
5891,G#2,2817.35,0.25,95,98.0
5892,C2,2817.35,0.25,95,98.0
5893,G#2,2817.6,0.25,95,98.0
5894,D2,2817.6,0.25,95,98.0
5895,G#2,2817.85,0.25,95,98.0
5896,G#2,2818.1,0.25,95,98.0
5897,G#2,2818.35,0.25,95,98.0
5898,G#2,2818.6,0.25,95,98.0
5899,F#3,2818.6,0.25,95,98.0
5900,C2,2818.6,0.25,95,98.0
5901,G#2,2818.85,3/20,95,98.0
5902,G#2,2819.0,1/10,95,98.0
5903,G#2,2819.1,0.25,95,98.0
5904,G#2,2819.35,0.25,95,98.0
5905,D2,2819.35,0.25,95,98.0
5906,G#2,2819.6,0.25,95,98.0
5907,G#2,2819.85,0.25,95,98.0
5908,G#2,2820.1,0.25,71,98.0
5909,F#3,2820.1,0.25,71,98.0
5910,G#2,2820.35,0.25,95,98.0
5911,C2,2820.35,0.25,95,98.0
5912,G#2,2820.6,0.25,87,98.0
5913,F#3,2820.6,0.25,87,98.0
5914,G#2,2820.85,0.25,95,98.0
5915,G#2,2821.1,0.25,95,98.0
5916,G#2,2821.35,0.25,95,98.0
5917,C2,2821.35,0.25,95,98.0
5918,G#2,2821.6,0.25,95,98.0
5919,D2,2821.6,0.25,95,98.0
5920,C3,2821.6,0.25,95,98.0
5921,G#2,2821.85,0.25,95,98.0
5922,B2,2821.85,0.25,95,98.0
5923,G#2,2822.1,0.25,95,98.0
5924,A2,2822.1,0.25,95,98.0
5925,G#2,2822.35,0.25,95,98.0
5926,C2,2822.35,0.25,95,98.0
5927,A3,2822.35,0.25,95,98.0
5928,G#2,2822.6,0.25,95,98.0
5929,F#3,2822.6,0.25,95,98.0
5930,G#2,2822.85,3/20,95,98.0
5931,G#2,2823.0,1/10,95,98.0
5932,G#2,2823.1,0.25,95,98.0
5933,C2,2823.1,0.25,95,98.0
5934,A3,2823.1,0.25,95,98.0
5935,G#2,2823.35,0.25,95,98.0
5936,G#2,2823.6,0.25,95,98.0
5937,C2,2823.6,0.25,95,98.0
5938,A3,2823.6,0.25,95,98.0
5939,G#2,2823.85,0.25,95,98.0
5940,G#2,2824.1,0.25,71,98.0
5941,F#3,2824.1,0.25,71,98.0
5942,G#2,2824.35,0.25,95,98.0
5943,G#2,2824.6,0.25,90,98.0
5944,F#3,2824.6,0.25,90,98.0
5945,C2,2824.6,0.25,90,98.0
5946,G#2,2824.85,0.25,95,98.0
5947,G#2,2825.1,0.25,95,98.0
5948,G#2,2825.35,0.25,95,98.0
5949,C2,2825.35,0.25,95,98.0
5950,G#2,2825.6,0.25,95,98.0
5951,D2,2825.6,0.25,95,98.0
5952,G#2,2825.85,0.25,95,98.0
5953,G#2,2826.1,0.25,95,98.0
5954,G#2,2826.35,0.25,95,98.0
5955,G#2,2826.6,0.25,95,98.0
5956,F#3,2826.6,0.25,95,98.0
5957,C2,2826.6,0.25,95,98.0
5958,G#2,2826.85,3/20,95,98.0
5959,G#2,2827.0,1/10,95,98.0
5960,G#2,2827.1,0.25,95,98.0
5961,G#2,2827.35,0.25,95,98.0
5962,C2,2827.35,0.25,95,98.0
5963,G#2,2827.6,0.25,95,98.0
5964,D2,2827.6,0.25,95,98.0
5965,G#2,2827.85,0.25,95,98.0
5966,G#2,2828.1,0.25,83,98.0
5967,F#3,2828.1,0.25,83,98.0
5968,C2,2828.1,0.25,83,98.0
5969,E-3,2828.1,0.25,83,98.0
5970,G#2,2828.35,0.25,95,98.0
5971,G#2,2828.6,0.25,87,98.0
5972,F#3,2828.6,0.25,87,98.0
5973,G#2,2828.85,0.25,95,98.0
5974,C2,2828.85,0.25,95,98.0
5975,E-3,2828.85,0.25,95,98.0
5976,G#2,2829.1,0.25,95,98.0
5977,G#2,2829.35,0.25,95,98.0
5978,G#2,2829.6,0.25,95,98.0
5979,D2,2829.6,0.25,95,98.0
5980,G#2,2829.85,0.25,95,98.0
5981,G#2,2830.1,0.25,95,98.0
5982,G#2,2830.35,0.25,95,98.0
5983,C2,2830.35,0.25,95,98.0
5984,C#3,2830.35,0.25,95,98.0
5985,G#2,2830.6,0.25,95,98.0
5986,F#3,2830.6,0.25,95,98.0
5987,G#2,2830.85,3/20,95,98.0
5988,C2,2830.85,3/20,95,98.0
5989,G#2,2831.1,1/10,95,98.0
5990,C2,2831.1,1/10,95,98.0
5991,G#2,2831.2,0.25,95,98.0
5992,C2,2831.2,0.25,95,98.0
5993,A3,2831.2,0.25,95,98.0
5994,G#2,2831.45,0.25,95,98.0
5995,G#2,2831.7,0.25,95,98.0
5996,C2,2831.7,0.25,95,98.0
5997,A3,2831.7,0.25,95,98.0
5998,G#2,2831.95,0.25,95,98.0
5999,G#2,2832.2,0.25,71,98.0
6000,F#3,2832.2,0.25,71,98.0
6001,G#2,2832.45,0.25,95,98.0
6002,G#2,2832.7,0.25,90,98.0
6003,F#3,2832.7,0.25,90,98.0
6004,C2,2832.7,0.25,90,98.0
6005,G#2,2832.95,0.25,95,98.0
6006,G#2,2833.2,0.25,95,98.0
6007,G#2,2833.45,0.25,95,98.0
6008,C2,2833.45,0.25,95,98.0
6009,G#2,2833.7,0.25,95,98.0
6010,D2,2833.7,0.25,95,98.0
6011,G#2,2833.95,0.25,95,98.0
6012,G#2,2834.2,0.25,95,98.0
6013,G#2,2834.45,0.25,95,98.0
6014,G#2,2834.7,0.25,95,98.0
6015,F#3,2834.7,0.25,95,98.0
6016,C2,2834.7,0.25,95,98.0
6017,G#2,2834.95,3/20,95,98.0
6018,G#2,2835.1,1/10,95,98.0
6019,G#2,2835.2,0.25,95,98.0
6020,G#2,2835.45,0.25,95,98.0
6021,D2,2835.45,0.25,95,98.0
6022,G#2,2835.7,0.25,95,98.0
6023,G#2,2835.95,0.25,95,98.0
6024,G#2,2836.2,0.25,71,98.0
6025,F#3,2836.2,0.25,71,98.0
6026,G#2,2836.45,0.25,95,98.0
6027,C2,2836.45,0.25,95,98.0
6028,G#2,2836.7,0.25,87,98.0
6029,F#3,2836.7,0.25,87,98.0
6030,G#2,2836.95,0.25,95,98.0
6031,G#2,2837.2,0.25,95,98.0
6032,G#2,2837.45,0.25,95,98.0
6033,C2,2837.45,0.25,95,98.0
6034,G#2,2837.7,0.25,95,98.0
6035,D2,2837.7,0.25,95,98.0
6036,C3,2837.7,0.25,95,98.0
6037,G#2,2837.95,0.25,95,98.0
6038,B2,2837.95,0.25,95,98.0
6039,G#2,2838.2,0.25,95,98.0
6040,A2,2838.2,0.25,95,98.0
6041,G#2,2838.45,0.25,95,98.0
6042,C2,2838.45,0.25,95,98.0
6043,A3,2838.45,0.25,95,98.0
6044,G#2,2838.7,0.25,95,98.0
6045,F#3,2838.7,0.25,95,98.0
6046,G#2,2838.95,3/20,95,98.0
6047,G#2,2839.1,1/10,95,98.0
6048,G#2,2839.2,0.25,95,98.0
6049,C2,2839.2,0.25,95,98.0
6050,A3,2839.2,0.25,95,98.0
6051,G#2,2839.45,0.25,95,98.0
6052,G#2,2839.7,0.25,95,98.0
6053,C2,2839.7,0.25,95,98.0
6054,A3,2839.7,0.25,95,98.0
6055,G#2,2839.95,0.25,95,98.0
6056,G#2,2840.2,0.25,71,98.0
6057,F#3,2840.2,0.25,71,98.0
6058,G#2,2840.45,0.25,95,98.0
6059,G#2,2840.7,0.25,90,98.0
6060,F#3,2840.7,0.25,90,98.0
6061,C2,2840.7,0.25,90,98.0
6062,G#2,2840.95,0.25,95,98.0
6063,G#2,2841.2,0.25,95,98.0
6064,G#2,2841.45,0.25,95,98.0
6065,C2,2841.45,0.25,95,98.0
6066,G#2,2841.7,0.25,95,98.0
6067,D2,2841.7,0.25,95,98.0
6068,G#2,2841.95,0.25,95,98.0
6069,G#2,2842.2,0.25,95,98.0
6070,G#2,2842.45,0.25,95,98.0
6071,G#2,2842.7,0.25,95,98.0
6072,F#3,2842.7,0.25,95,98.0
6073,C2,2842.7,0.25,95,98.0
6074,G#2,2842.95,3/20,95,98.0
6075,G#2,2843.1,1/10,95,98.0
6076,G#2,2843.2,0.25,95,98.0
6077,G#2,2843.45,0.25,95,98.0
6078,D2,2843.45,0.25,95,98.0
6079,G#2,2843.7,0.25,95,98.0
6080,G#2,2843.95,0.25,95,98.0
6081,G#2,2844.2,0.25,71,98.0
6082,F#3,2844.2,0.25,71,98.0
6083,G#2,2844.45,0.25,95,98.0
6084,C2,2844.45,0.25,95,98.0
6085,G#2,2844.7,0.25,87,98.0
6086,F#3,2844.7,0.25,87,98.0
6087,G#2,2844.95,0.25,95,98.0
6088,G#2,2845.2,0.25,95,98.0
6089,G#2,2845.45,0.25,95,98.0
6090,C2,2845.45,0.25,95,98.0
6091,G#2,2845.7,0.25,95,98.0
6092,D2,2845.7,0.25,95,98.0
6093,G#2,2845.95,0.25,95,98.0
6094,G#2,2846.2,0.125,87,98.0
6095,D2,2846.2,0.125,87,98.0
6096,D2,2846.325,0.125,79,98.0
6097,G#2,2846.45,0.125,87,98.0
6098,D2,2846.45,0.125,87,98.0
6099,D2,2846.575,0.125,79,98.0
6100,G#2,2846.7,0.25,95,98.0
6101,F#3,2846.7,0.25,95,98.0
6102,C2,2846.7,0.25,95,98.0
6103,C#3,2846.7,0.25,95,98.0
6104,G#2,2846.95,3/20,95,98.0
6105,G#2,2847.1,1/10,95,98.0
6106,G#2,2847.2,0.25,95,98.0
6107,D2,2847.2,0.25,95,98.0
6108,G#2,2847.45,0.25,95,98.0
6109,C2,2847.45,0.25,95,98.0
6110,G#2,2847.7,0.25,95,98.0
6111,G#2,2847.95,0.25,95,98.0
6112,C2,2847.95,0.25,95,98.0
6113,G#2,2848.2,0.25,79,98.0
6114,F#3,2848.2,0.25,79,98.0
6115,D2,2848.2,0.25,79,98.0
6116,G#2,2848.45,0.25,95,98.0
6117,C2,2848.45,0.25,95,98.0
6118,G#2,2848.7,0.25,90,98.0
6119,F#3,2848.7,0.25,90,98.0
6120,C2,2848.7,0.25,90,98.0
6121,G#2,2848.95,0.25,95,98.0
6122,G#2,2849.2,0.25,95,98.0
6123,G3,2849.2,0.25,95,98.0
6124,D2,2849.2,0.25,95,98.0
6125,G#2,2849.45,0.25,95,98.0
6126,C2,2849.45,0.25,95,98.0
6127,G#2,2849.7,0.25,95,98.0
6128,G#2,2849.95,0.25,95,98.0
6129,C2,2849.95,0.25,95,98.0
6130,G#2,2850.2,0.25,95,98.0
6131,D2,2850.2,0.25,95,98.0
6132,G#2,2850.45,0.25,95,98.0
6133,C2,2850.45,0.25,95,98.0
6134,G#2,2850.7,0.25,95,98.0
6135,F#3,2850.7,0.25,95,98.0
6136,C2,2850.7,0.25,95,98.0
6137,G#2,2850.95,3/20,95,98.0
6138,G#2,2851.1,1/10,95,98.0
6139,G#2,2851.2,0.25,95,98.0
6140,D2,2851.2,0.25,95,98.0
6141,G#2,2851.45,0.25,95,98.0
6142,C2,2851.45,0.25,95,98.0
6143,G#2,2851.7,0.25,95,98.0
6144,G#2,2851.95,0.25,95,98.0
6145,C2,2851.95,0.25,95,98.0
6146,G#2,2852.2,0.25,79,98.0
6147,F#3,2852.2,0.25,79,98.0
6148,D2,2852.2,0.25,79,98.0
6149,G#2,2852.45,0.25,95,98.0
6150,C2,2852.45,0.25,95,98.0
6151,G#2,2852.7,0.25,90,98.0
6152,F#3,2852.7,0.25,90,98.0
6153,C2,2852.7,0.25,90,98.0
6154,G#2,2852.95,0.25,95,98.0
6155,G#2,2853.2,0.25,95,98.0
6156,G3,2853.2,0.25,95,98.0
6157,D2,2853.2,0.25,95,98.0
6158,G#2,2853.45,0.25,95,98.0
6159,C2,2853.45,0.25,95,98.0
6160,G#2,2853.7,0.25,95,98.0
6161,G#2,2853.95,0.25,95,98.0
6162,C2,2853.95,0.25,95,98.0
6163,G#2,2854.2,0.25,95,98.0
6164,D2,2854.2,0.25,95,98.0
6165,G#2,2854.45,0.25,95,98.0
6166,C2,2854.45,0.25,95,98.0
6167,G#2,2854.7,0.25,95,98.0
6168,F#3,2854.7,0.25,95,98.0
6169,C2,2854.7,0.25,95,98.0
6170,G#2,2854.95,3/20,95,98.0
6171,G#2,2855.1,1/10,95,98.0
6172,G#2,2855.2,0.25,95,98.0
6173,D2,2855.2,0.25,95,98.0
6174,G#2,2855.45,0.25,95,98.0
6175,C2,2855.45,0.25,95,98.0
6176,G#2,2855.7,0.25,95,98.0
6177,G#2,2855.95,0.25,95,98.0
6178,C2,2855.95,0.25,95,98.0
6179,G#2,2856.2,0.25,79,98.0
6180,F#3,2856.2,0.25,79,98.0
6181,D2,2856.2,0.25,79,98.0
6182,G#2,2856.45,0.25,95,98.0
6183,C2,2856.45,0.25,95,98.0
6184,G#2,2856.7,0.25,90,98.0
6185,F#3,2856.7,0.25,90,98.0
6186,C2,2856.7,0.25,90,98.0
6187,G#2,2856.95,0.25,95,98.0
6188,G#2,2857.2,0.25,95,98.0
6189,G3,2857.2,0.25,95,98.0
6190,D2,2857.2,0.25,95,98.0
6191,G#2,2857.45,0.25,95,98.0
6192,C2,2857.45,0.25,95,98.0
6193,G#2,2857.7,0.25,95,98.0
6194,G#2,2857.95,0.25,95,98.0
6195,C2,2857.95,0.25,95,98.0
6196,G#2,2858.2,0.25,95,98.0
6197,D2,2858.2,0.25,95,98.0
6198,G#2,2858.45,0.25,95,98.0
6199,C2,2858.45,0.25,95,98.0
6200,G#2,2858.7,0.25,95,98.0
6201,F#3,2858.7,0.25,95,98.0
6202,C2,2858.7,0.25,95,98.0
6203,G#2,2858.95,3/20,95,98.0
6204,G#2,2859.1,1/10,95,98.0
6205,G#2,2859.2,0.25,95,98.0
6206,D2,2859.2,0.25,95,98.0
6207,G#2,2859.45,0.25,95,98.0
6208,C2,2859.45,0.25,95,98.0
6209,G#2,2859.7,0.25,95,98.0
6210,G#2,2859.95,0.25,95,98.0
6211,C2,2859.95,0.25,95,98.0
6212,G#2,2860.2,0.25,79,98.0
6213,F#3,2860.2,0.25,79,98.0
6214,D2,2860.2,0.25,79,98.0
6215,G#2,2860.45,0.25,95,98.0
6216,C2,2860.45,0.25,95,98.0
6217,G#2,2860.7,0.25,90,98.0
6218,F#3,2860.7,0.25,90,98.0
6219,C2,2860.7,0.25,90,98.0
6220,G#2,2860.95,0.25,95,98.0
6221,G#2,2861.2,0.25,95,98.0
6222,G3,2861.2,0.25,95,98.0
6223,D2,2861.2,0.25,95,98.0
6224,G#2,2861.45,0.25,95,98.0
6225,C2,2861.45,0.25,95,98.0
6226,G#2,2861.7,0.25,95,98.0
6227,G#2,2861.95,0.25,95,98.0
6228,C2,2861.95,0.25,95,98.0
6229,G#2,2862.2,0.25,95,98.0
6230,D2,2862.2,0.25,95,98.0
6231,G#2,2862.45,0.25,95,98.0
6232,C2,2862.45,0.25,95,98.0
6233,G#2,2862.7,0.25,95,98.0
6234,F#3,2862.7,0.25,95,98.0
6235,C2,2862.7,0.25,95,98.0
6236,G#2,2862.95,3/20,95,98.0
6237,G#2,2863.1,1/10,95,98.0
6238,G#2,2863.2,0.25,95,98.0
6239,D2,2863.2,0.25,95,98.0
6240,G#2,2863.45,0.25,95,98.0
6241,C2,2863.45,0.25,95,98.0
6242,G#2,2863.7,0.25,95,98.0
6243,G#2,2863.95,0.25,95,98.0
6244,C2,2863.95,0.25,95,98.0
6245,G#2,2864.2,0.25,79,98.0
6246,F#3,2864.2,0.25,79,98.0
6247,D2,2864.2,0.25,79,98.0
6248,G#2,2864.45,0.25,95,98.0
6249,C2,2864.45,0.25,95,98.0
6250,G#2,2864.7,0.25,90,98.0
6251,F#3,2864.7,0.25,90,98.0
6252,C2,2864.7,0.25,90,98.0
6253,G#2,2864.95,0.25,95,98.0
6254,G#2,2865.2,0.25,95,98.0
6255,G3,2865.2,0.25,95,98.0
6256,D2,2865.2,0.25,95,98.0
6257,G#2,2865.45,0.25,95,98.0
6258,C2,2865.45,0.25,95,98.0
6259,G#2,2865.7,0.25,95,98.0
6260,G#2,2865.95,0.25,95,98.0
6261,C2,2865.95,0.25,95,98.0
6262,G#2,2866.2,0.25,95,98.0
6263,D2,2866.2,0.25,95,98.0
6264,G#2,2866.45,0.25,95,98.0
6265,C2,2866.45,0.25,95,98.0
6266,G#2,2866.7,0.25,95,98.0
6267,F#3,2866.7,0.25,95,98.0
6268,C2,2866.7,0.25,95,98.0
6269,G#2,2866.95,3/20,95,98.0
6270,G#2,2867.1,1/10,95,98.0
6271,G#2,2867.2,0.25,95,98.0
6272,D2,2867.2,0.25,95,98.0
6273,G#2,2867.45,0.25,95,98.0
6274,C2,2867.45,0.25,95,98.0
6275,G#2,2867.7,0.25,95,98.0
6276,G#2,2867.95,0.25,95,98.0
6277,C2,2867.95,0.25,95,98.0
6278,G#2,2868.2,0.25,79,98.0
6279,F#3,2868.2,0.25,79,98.0
6280,D2,2868.2,0.25,79,98.0
6281,G#2,2868.45,0.25,95,98.0
6282,C2,2868.45,0.25,95,98.0
6283,G#2,2868.7,0.25,90,98.0
6284,F#3,2868.7,0.25,90,98.0
6285,C2,2868.7,0.25,90,98.0
6286,G#2,2868.95,0.25,95,98.0
6287,G#2,2869.2,0.25,95,98.0
6288,G3,2869.2,0.25,95,98.0
6289,D2,2869.2,0.25,95,98.0
6290,G#2,2869.45,0.25,95,98.0
6291,C2,2869.45,0.25,95,98.0
6292,G#2,2869.7,0.25,95,98.0
6293,G#2,2869.95,0.25,95,98.0
6294,C2,2869.95,0.25,95,98.0
6295,G#2,2870.2,0.25,95,98.0
6296,D2,2870.2,0.25,95,98.0
6297,G#2,2870.45,0.25,95,98.0
6298,C2,2870.45,0.25,95,98.0
6299,G#2,2870.7,0.25,95,98.0
6300,F#3,2870.7,0.25,95,98.0
6301,C2,2870.7,0.25,95,98.0
6302,G#2,2870.95,3/20,95,98.0
6303,G#2,2871.1,1/10,95,98.0
6304,G#2,2871.2,0.25,95,98.0
6305,D2,2871.2,0.25,95,98.0
6306,G#2,2871.45,0.25,95,98.0
6307,C2,2871.45,0.25,95,98.0
6308,G#2,2871.7,0.25,95,98.0
6309,G#2,2871.95,0.25,95,98.0
6310,C2,2871.95,0.25,95,98.0
6311,G#2,2872.2,0.25,79,98.0
6312,F#3,2872.2,0.25,79,98.0
6313,D2,2872.2,0.25,79,98.0
6314,G#2,2872.45,0.25,95,98.0
6315,C2,2872.45,0.25,95,98.0
6316,G#2,2872.7,0.25,90,98.0
6317,F#3,2872.7,0.25,90,98.0
6318,C2,2872.7,0.25,90,98.0
6319,G#2,2872.95,0.25,95,98.0
6320,G#2,2873.2,0.25,95,98.0
6321,G3,2873.2,0.25,95,98.0
6322,D2,2873.2,0.25,95,98.0
6323,G#2,2873.45,0.25,95,98.0
6324,C2,2873.45,0.25,95,98.0
6325,G#2,2873.7,0.25,95,98.0
6326,G#2,2873.95,0.25,95,98.0
6327,C2,2873.95,0.25,95,98.0
6328,G#2,2874.2,0.25,95,98.0
6329,D2,2874.2,0.25,95,98.0
6330,G#2,2874.45,0.25,95,98.0
6331,C2,2874.45,0.25,95,98.0
6332,G#2,2874.7,0.25,95,98.0
6333,D2,2874.7,0.25,95,98.0
6334,G#2,2874.95,3/20,95,98.0
6335,B-2,2874.95,3/20,95,98.0
6336,D2,2874.95,3/20,95,98.0
6337,C#3,2874.95,3/20,95,98.0
6338,G#2,2875.2,1/10,95,98.0
6339,B-2,2875.2,1/10,95,98.0
6340,D2,2875.2,1/10,95,98.0
6341,C#3,2875.2,1/10,95,98.0
6342,G#2,2875.3,0.25,95,98.0
6343,G#2,2875.55,0.25,95,98.0
6344,B-2,2875.55,0.25,95,98.0
6345,D2,2875.55,0.25,95,98.0
6346,C3,2875.55,0.25,95,98.0
6347,G#2,2875.8,0.25,95,98.0
6348,C2,2875.8,0.25,95,98.0
6349,B2,2875.8,0.25,95,98.0
6350,G#2,2876.05,0.25,95,98.0
6351,A2,2876.05,0.25,95,98.0
6352,G#2,2876.3,0.25,95,98.0
6353,G#2,2876.55,0.25,95,98.0
6354,C2,2876.55,0.25,95,98.0
6355,C#3,2876.55,0.25,95,98.0
6356,G#2,2876.8,0.25,95,98.0
6357,G#2,2877.05,0.25,95,98.0
6358,C2,2877.05,0.25,95,98.0
6359,C#3,2877.05,0.25,95,98.0
6360,G#2,2877.3,0.25,95,98.0
6361,C2,2877.3,0.25,95,98.0
6362,C#3,2877.3,0.25,95,98.0
6363,G#2,2877.55,0.25,95,98.0
6364,G#2,2877.8,0.25,95,98.0
6365,C2,2877.8,0.25,95,98.0
6366,C#3,2877.8,0.25,95,98.0
6367,G#2,2878.05,0.25,95,98.0
6368,G#2,2878.3,0.25,95,98.0
6369,C2,2878.3,0.25,95,98.0
6370,C#3,2878.3,0.25,95,98.0
6371,G#2,2878.55,0.25,95,98.0
6372,G#2,2878.8,0.25,95,98.0
6373,F#3,2878.8,0.25,95,98.0
6374,C2,2878.8,0.25,95,98.0
6375,C#3,2878.8,0.25,95,98.0
6376,G#2,2879.05,3/20,95,98.0
6377,G#2,2879.2,1/10,95,98.0
6378,G#2,2879.3,0.25,95,98.0
6379,D2,2879.3,0.25,95,98.0
6380,G#2,2879.55,0.25,95,98.0
6381,C2,2879.55,0.25,95,98.0
6382,G#2,2879.8,0.25,95,98.0
6383,G#2,2880.05,0.25,95,98.0
6384,C2,2880.05,0.25,95,98.0
6385,G#2,2880.3,0.25,79,98.0
6386,F#3,2880.3,0.25,79,98.0
6387,D2,2880.3,0.25,79,98.0
6388,G#2,2880.55,0.25,95,98.0
6389,C2,2880.55,0.25,95,98.0
6390,G#2,2880.8,0.25,90,98.0
6391,F#3,2880.8,0.25,90,98.0
6392,C2,2880.8,0.25,90,98.0
6393,G#2,2881.05,0.25,95,98.0
6394,G#2,2881.3,0.25,95,98.0
6395,G3,2881.3,0.25,95,98.0
6396,D2,2881.3,0.25,95,98.0
6397,G#2,2881.55,0.25,95,98.0
6398,C2,2881.55,0.25,95,98.0
6399,G#2,2881.8,0.25,95,98.0
6400,G#2,2882.05,0.25,95,98.0
6401,C2,2882.05,0.25,95,98.0
6402,G#2,2882.3,0.25,95,98.0
6403,D2,2882.3,0.25,95,98.0
6404,G#2,2882.55,0.25,95,98.0
6405,C2,2882.55,0.25,95,98.0
6406,G#2,2882.8,0.25,95,98.0
6407,F#3,2882.8,0.25,95,98.0
6408,C2,2882.8,0.25,95,98.0
6409,G#2,2883.05,3/20,95,98.0
6410,G#2,2883.2,1/10,95,98.0
6411,G#2,2883.3,0.25,95,98.0
6412,D2,2883.3,0.25,95,98.0
6413,G#2,2883.55,0.25,95,98.0
6414,C2,2883.55,0.25,95,98.0
6415,G#2,2883.8,0.25,95,98.0
6416,G#2,2884.05,0.25,95,98.0
6417,C2,2884.05,0.25,95,98.0
6418,G#2,2884.3,0.25,79,98.0
6419,F#3,2884.3,0.25,79,98.0
6420,D2,2884.3,0.25,79,98.0
6421,G#2,2884.55,0.25,95,98.0
6422,C2,2884.55,0.25,95,98.0
6423,G#2,2884.8,0.25,90,98.0
6424,F#3,2884.8,0.25,90,98.0
6425,C2,2884.8,0.25,90,98.0
6426,G#2,2885.05,0.25,95,98.0
6427,G#2,2885.3,0.25,95,98.0
6428,G3,2885.3,0.25,95,98.0
6429,D2,2885.3,0.25,95,98.0
6430,G#2,2885.55,0.25,95,98.0
6431,C2,2885.55,0.25,95,98.0
6432,G#2,2885.8,0.25,95,98.0
6433,G#2,2886.05,0.25,95,98.0
6434,C2,2886.05,0.25,95,98.0
6435,G#2,2886.3,0.25,95,98.0
6436,D2,2886.3,0.25,95,98.0
6437,G#2,2886.55,0.25,95,98.0
6438,C2,2886.55,0.25,95,98.0
6439,G#2,2886.8,0.25,95,98.0
6440,F#3,2886.8,0.25,95,98.0
6441,C2,2886.8,0.25,95,98.0
6442,G#2,2887.05,3/20,95,98.0
6443,G#2,2887.2,1/10,95,98.0
6444,G#2,2887.3,0.25,95,98.0
6445,D2,2887.3,0.25,95,98.0
6446,G#2,2887.55,0.25,95,98.0
6447,C2,2887.55,0.25,95,98.0
6448,G#2,2887.8,0.25,95,98.0
6449,G#2,2888.05,0.25,95,98.0
6450,C2,2888.05,0.25,95,98.0
6451,G#2,2888.3,0.25,79,98.0
6452,F#3,2888.3,0.25,79,98.0
6453,D2,2888.3,0.25,79,98.0
6454,G#2,2888.55,0.25,95,98.0
6455,C2,2888.55,0.25,95,98.0
6456,G#2,2888.8,0.25,90,98.0
6457,F#3,2888.8,0.25,90,98.0
6458,C2,2888.8,0.25,90,98.0
6459,G#2,2889.05,0.25,95,98.0
6460,G#2,2889.3,0.25,95,98.0
6461,G3,2889.3,0.25,95,98.0
6462,D2,2889.3,0.25,95,98.0
6463,G#2,2889.55,0.25,95,98.0
6464,C2,2889.55,0.25,95,98.0
6465,G#2,2889.8,0.25,95,98.0
6466,G#2,2890.05,0.25,95,98.0
6467,C2,2890.05,0.25,95,98.0
6468,G#2,2890.3,0.25,95,98.0
6469,D2,2890.3,0.25,95,98.0
6470,G#2,2890.55,0.25,95,98.0
6471,C2,2890.55,0.25,95,98.0
6472,G#2,2890.8,0.25,95,98.0
6473,F#3,2890.8,0.25,95,98.0
6474,C2,2890.8,0.25,95,98.0
6475,G#2,2891.05,3/20,95,98.0
6476,G#2,2891.2,1/10,95,98.0
6477,G#2,2891.3,0.25,95,98.0
6478,D2,2891.3,0.25,95,98.0
6479,G#2,2891.55,0.25,95,98.0
6480,C2,2891.55,0.25,95,98.0
6481,G#2,2891.8,0.25,95,98.0
6482,G#2,2892.05,0.25,95,98.0
6483,C2,2892.05,0.25,95,98.0
6484,G#2,2892.3,0.25,79,98.0
6485,F#3,2892.3,0.25,79,98.0
6486,D2,2892.3,0.25,79,98.0
6487,G#2,2892.55,0.25,95,98.0
6488,C2,2892.55,0.25,95,98.0
6489,G#2,2892.8,0.25,90,98.0
6490,F#3,2892.8,0.25,90,98.0
6491,C2,2892.8,0.25,90,98.0
6492,G#2,2893.05,0.25,95,98.0
6493,G#2,2893.3,0.25,95,98.0
6494,G3,2893.3,0.25,95,98.0
6495,D2,2893.3,0.25,95,98.0
6496,G#2,2893.55,0.25,95,98.0
6497,C2,2893.55,0.25,95,98.0
6498,G#2,2893.8,0.25,95,98.0
6499,G#2,2894.05,0.25,95,98.0
6500,C2,2894.05,0.25,95,98.0
6501,G#2,2894.3,0.25,95,98.0
6502,D2,2894.3,0.25,95,98.0
6503,G#2,2894.55,0.25,95,98.0
6504,C2,2894.55,0.25,95,98.0
6505,G#2,2894.8,0.25,95,98.0
6506,F#3,2894.8,0.25,95,98.0
6507,C2,2894.8,0.25,95,98.0
6508,C#3,2894.8,0.25,95,98.0
6509,G#2,2895.05,3/20,95,98.0
6510,G#2,2895.2,1/10,95,98.0
6511,G#2,2895.3,0.25,95,98.0
6512,D2,2895.3,0.25,95,98.0
6513,G#2,2895.55,0.25,95,98.0
6514,C2,2895.55,0.25,95,98.0
6515,G#2,2895.8,0.25,95,98.0
6516,G#2,2896.05,0.25,95,98.0
6517,C2,2896.05,0.25,95,98.0
6518,G#2,2896.3,0.25,79,98.0
6519,F#3,2896.3,0.25,79,98.0
6520,D2,2896.3,0.25,79,98.0
6521,G#2,2896.55,0.25,95,98.0
6522,C2,2896.55,0.25,95,98.0
6523,G#2,2896.8,0.25,90,98.0
6524,F#3,2896.8,0.25,90,98.0
6525,C2,2896.8,0.25,90,98.0
6526,G#2,2897.05,0.25,95,98.0
6527,G#2,2897.3,0.25,95,98.0
6528,G3,2897.3,0.25,95,98.0
6529,D2,2897.3,0.25,95,98.0
6530,G#2,2897.55,0.25,95,98.0
6531,C2,2897.55,0.25,95,98.0
6532,G#2,2897.8,0.25,95,98.0
6533,G#2,2898.05,0.25,95,98.0
6534,C2,2898.05,0.25,95,98.0
6535,G#2,2898.3,0.25,95,98.0
6536,D2,2898.3,0.25,95,98.0
6537,G#2,2898.55,0.25,95,98.0
6538,C2,2898.55,0.25,95,98.0
6539,G#2,2898.8,0.25,95,98.0
6540,F#3,2898.8,0.25,95,98.0
6541,C2,2898.8,0.25,95,98.0
6542,G#2,2899.05,3/20,95,98.0
6543,G#2,2899.2,1/10,95,98.0
6544,G#2,2899.3,0.25,95,98.0
6545,D2,2899.3,0.25,95,98.0
6546,G#2,2899.55,0.25,95,98.0
6547,C2,2899.55,0.25,95,98.0
6548,G#2,2899.8,0.25,95,98.0
6549,G#2,2900.05,0.25,95,98.0
6550,C2,2900.05,0.25,95,98.0
6551,G#2,2900.3,0.25,79,98.0
6552,F#3,2900.3,0.25,79,98.0
6553,D2,2900.3,0.25,79,98.0
6554,G#2,2900.55,0.25,95,98.0
6555,C2,2900.55,0.25,95,98.0
6556,G#2,2900.8,0.25,90,98.0
6557,F#3,2900.8,0.25,90,98.0
6558,C2,2900.8,0.25,90,98.0
6559,G#2,2901.05,0.25,95,98.0
6560,G#2,2901.3,0.25,95,98.0
6561,G3,2901.3,0.25,95,98.0
6562,D2,2901.3,0.25,95,98.0
6563,G#2,2901.55,0.25,95,98.0
6564,C2,2901.55,0.25,95,98.0
6565,G#2,2901.8,0.25,95,98.0
6566,G#2,2902.05,0.25,95,98.0
6567,C2,2902.05,0.25,95,98.0
6568,G#2,2902.3,0.25,95,98.0
6569,D2,2902.3,0.25,95,98.0
6570,G#2,2902.55,0.25,95,98.0
6571,C2,2902.55,0.25,95,98.0
6572,G#2,2902.8,0.25,95,98.0
6573,F#3,2902.8,0.25,95,98.0
6574,C2,2902.8,0.25,95,98.0
6575,G#2,2903.05,3/20,95,98.0
6576,G#2,2903.2,1/10,95,98.0
6577,G#2,2903.3,0.25,95,98.0
6578,D2,2903.3,0.25,95,98.0
6579,G#2,2903.55,0.25,95,98.0
6580,C2,2903.55,0.25,95,98.0
6581,G#2,2903.8,0.25,95,98.0
6582,G#2,2904.05,0.25,95,98.0
6583,C2,2904.05,0.25,95,98.0
6584,G#2,2904.3,0.25,79,98.0
6585,F#3,2904.3,0.25,79,98.0
6586,D2,2904.3,0.25,79,98.0
6587,G#2,2904.55,0.25,95,98.0
6588,C2,2904.55,0.25,95,98.0
6589,G#2,2904.8,0.25,90,98.0
6590,F#3,2904.8,0.25,90,98.0
6591,C2,2904.8,0.25,90,98.0
6592,G#2,2905.05,0.25,95,98.0
6593,G#2,2905.3,0.25,95,98.0
6594,G3,2905.3,0.25,95,98.0
6595,D2,2905.3,0.25,95,98.0
6596,G#2,2905.55,0.25,95,98.0
6597,C2,2905.55,0.25,95,98.0
6598,G#2,2905.8,0.25,95,98.0
6599,G#2,2906.05,0.125,79,98.0
6600,D2,2906.05,0.125,79,98.0
6601,D2,2906.175,0.125,63,98.0
6602,G#2,2906.3,0.25,79,98.0
6603,D2,2906.3,0.25,79,98.0
6604,G#2,2906.55,0.25,87,98.0
6605,D2,2906.55,0.25,87,98.0
6606,G#2,2906.8,0.25,95,98.0
6607,D2,2906.8,0.25,95,98.0
6608,G#2,2907.05,3/20,95,98.0
6609,B-2,2907.05,3/20,95,98.0
6610,D2,2907.05,3/20,95,98.0
6611,C#3,2907.05,3/20,95,98.0
6612,G#2,2907.3,1/10,95,98.0
6613,B-2,2907.3,1/10,95,98.0
6614,D2,2907.3,1/10,95,98.0
6615,C#3,2907.3,1/10,95,98.0
6616,G#2,2907.4,0.25,95,98.0
6617,G#2,2907.65,0.25,95,98.0
6618,B-2,2907.65,0.25,95,98.0
6619,D2,2907.65,0.25,95,98.0
6620,C3,2907.65,0.25,95,98.0
6621,G#2,2907.9,0.25,95,98.0
6622,C2,2907.9,0.25,95,98.0
6623,B2,2907.9,0.25,95,98.0
6624,G#2,2908.15,0.25,95,98.0
6625,A2,2908.15,0.25,95,98.0
6626,G#2,2908.4,0.25,95,98.0
6627,G#2,2908.65,0.25,95,98.0
6628,C2,2908.65,0.25,95,98.0
6629,C#3,2908.65,0.25,95,98.0
6630,G#2,2908.9,0.25,95,98.0
6631,G#2,2909.15,0.25,95,98.0
6632,C2,2909.15,0.25,95,98.0
6633,C#3,2909.15,0.25,95,98.0
6634,G#2,2909.4,0.25,95,98.0
6635,C2,2909.4,0.25,95,98.0
6636,C#3,2909.4,0.25,95,98.0
6637,G#2,2909.65,0.25,95,98.0
6638,G#2,2909.9,0.25,95,98.0
6639,D2,2909.9,0.25,95,98.0
6640,G#2,2910.15,0.25,95,98.0
6641,B-2,2910.15,0.25,95,98.0
6642,D2,2910.15,0.25,95,98.0
6643,C#3,2910.15,0.25,95,98.0
6644,G#2,2910.4,0.25,95,98.0
6645,G#2,2910.65,0.25,95,98.0
6646,B-2,2910.65,0.25,95,98.0
6647,D2,2910.65,0.25,95,98.0
6648,C3,2910.65,0.25,95,98.0
6649,G#2,2910.9,0.25,95,98.0
6650,C2,2910.9,0.25,95,98.0
6651,B2,2910.9,0.25,95,98.0
6652,G#2,2911.15,3/20,95,98.0
6653,A2,2911.15,3/20,95,98.0
6654,G#2,2911.4,1/10,95,98.0
6655,A2,2911.4,1/10,95,98.0
6656,G#2,2911.5,0.25,95,98.0
6657,G#2,2911.75,0.25,95,98.0
6658,C2,2911.75,0.25,95,98.0
6659,C#3,2911.75,0.25,95,98.0
6660,G#2,2912.0,0.25,95,98.0
6661,G#2,2912.25,0.25,95,98.0
6662,C2,2912.25,0.25,95,98.0
6663,C#3,2912.25,0.25,95,98.0
6664,G#2,2912.5,0.25,95,98.0
6665,C2,2912.5,0.25,95,98.0
6666,C#3,2912.5,0.25,95,98.0
6667,G#2,2912.75,0.25,95,98.0
6668,G#2,2913.0,0.25,95,98.0
6669,C2,2913.0,0.25,95,98.0
6670,C#3,2913.0,0.25,95,98.0
6671,G#2,2913.25,0.25,95,98.0
6672,G#2,2913.5,0.25,95,98.0
6673,C2,2913.5,0.25,95,98.0
6674,C#3,2913.5,0.25,95,98.0
6675,G#2,2913.75,0.25,95,98.0
6676,G#2,2914.0,0.25,95,98.0
6677,D2,2914.0,0.25,95,98.0
6678,G#2,2914.25,0.25,95,98.0
6679,B-2,2914.25,0.25,95,98.0
6680,D2,2914.25,0.25,95,98.0
6681,C#3,2914.25,0.25,95,98.0
6682,G#2,2914.5,0.25,95,98.0
6683,G#2,2914.75,0.25,95,98.0
6684,B-2,2914.75,0.25,95,98.0
6685,D2,2914.75,0.25,95,98.0
6686,C3,2914.75,0.25,95,98.0
6687,G#2,2915.0,0.25,95,98.0
6688,C2,2915.0,0.25,95,98.0
6689,B2,2915.0,0.25,95,98.0
6690,G#2,2915.25,3/20,95,98.0
6691,A2,2915.25,3/20,95,98.0
6692,G#2,2915.5,1/10,95,98.0
6693,A2,2915.5,1/10,95,98.0
6694,G#2,2915.6,0.25,95,98.0
6695,G#2,2915.85,0.25,95,98.0
6696,C2,2915.85,0.25,95,98.0
6697,C#3,2915.85,0.25,95,98.0
6698,G#2,2916.1,0.25,95,98.0
6699,G#2,2916.35,0.25,95,98.0
6700,C2,2916.35,0.25,95,98.0
6701,C#3,2916.35,0.25,95,98.0
6702,G#2,2916.6,0.25,95,98.0
6703,C2,2916.6,0.25,95,98.0
6704,C#3,2916.6,0.25,95,98.0
6705,G#2,2916.85,0.25,95,98.0
6706,G#2,2917.1,0.25,95,98.0
6707,D2,2917.1,0.25,95,98.0
6708,G#2,2917.35,0.25,95,98.0
6709,B-2,2917.35,0.25,95,98.0
6710,D2,2917.35,0.25,95,98.0
6711,C#3,2917.35,0.25,95,98.0
6712,G#2,2917.6,0.25,95,98.0
6713,G#2,2917.85,0.25,95,98.0
6714,B-2,2917.85,0.25,95,98.0
6715,D2,2917.85,0.25,95,98.0
6716,C3,2917.85,0.25,95,98.0
6717,G#2,2918.1,0.25,95,98.0
6718,C2,2918.1,0.25,95,98.0
6719,B2,2918.1,0.25,95,98.0
6720,G#2,2918.35,0.25,95,98.0
6721,A2,2918.35,0.25,95,98.0
6722,G#2,2918.6,0.25,95,98.0
6723,G#2,2918.85,0.25,95,98.0
6724,C2,2918.85,0.25,95,98.0
6725,C#3,2918.85,0.25,95,98.0
6726,G#2,2919.1,0.25,95,98.0
6727,G#2,2919.35,3/20,95,98.0
6728,C2,2919.35,3/20,95,98.0
6729,C#3,2919.35,3/20,95,98.0
6730,G#2,2919.6,1/10,95,98.0
6731,C2,2919.6,1/10,95,98.0
6732,C#3,2919.6,1/10,95,98.0
6733,G#2,2919.7,0.25,95,98.0
6734,C2,2919.7,0.25,95,98.0
6735,C#3,2919.7,0.25,95,98.0
6736,G#2,2919.95,0.25,95,98.0
6737,G#2,2920.2,0.25,95,98.0
6738,C2,2920.2,0.25,95,98.0
6739,G#2,2920.45,0.25,95,98.0
6740,G#2,2920.7,0.25,95,98.0
6741,C#3,2920.7,0.25,95,98.0
6742,D2,2920.7,0.25,95,98.0
6743,G#2,2920.95,0.25,95,98.0
6744,G#2,2921.2,0.25,95,98.0
6745,C2,2921.2,0.25,95,98.0
6746,G#2,2921.45,0.25,95,98.0
6747,G#2,2921.7,0.25,95,98.0
6748,C#3,2921.7,0.25,95,98.0
6749,D2,2921.7,0.25,95,98.0
6750,G#2,2921.95,0.25,95,98.0
6751,C2,2921.95,0.25,95,98.0
6752,G#2,2922.2,0.25,95,98.0
6753,G#2,2922.45,0.25,95,98.0
6754,G#2,2922.7,0.25,95,98.0
6755,C#3,2922.7,0.25,95,98.0
6756,D2,2922.7,0.25,95,98.0
6757,G#2,2922.95,0.25,95,98.0
6758,G#2,2923.2,0.25,95,98.0
6759,C2,2923.2,0.25,95,98.0
6760,G#2,2923.45,3/20,95,98.0
6761,G#2,2923.6,1/10,95,98.0
6762,G#2,2923.7,0.25,95,98.0
6763,C#3,2923.7,0.25,95,98.0
6764,D2,2923.7,0.25,95,98.0
6765,G#2,2923.95,0.25,95,98.0
6766,G#2,2924.2,0.25,95,98.0
6767,C2,2924.2,0.25,95,98.0
6768,G#2,2924.45,0.25,95,98.0
6769,D2,2924.45,0.25,95,98.0
6770,G#2,2924.7,0.25,84,98.0
6771,C#3,2924.7,0.25,84,98.0
6772,C2,2924.7,0.25,84,98.0
6773,G#2,2924.95,0.25,79,98.0
6774,C2,2924.95,0.25,79,98.0
6775,G#2,2925.2,0.25,95,98.0
6776,G#2,2925.45,0.25,95,98.0
6777,C2,2925.45,0.25,95,98.0
6778,G#2,2925.7,0.25,95,98.0
6779,C#3,2925.7,0.25,95,98.0
6780,D2,2925.7,0.25,95,98.0
6781,G#2,2925.95,0.25,95,98.0
6782,G#2,2926.2,0.25,90,98.0
6783,C2,2926.2,0.25,90,98.0
6784,C#3,2926.2,0.25,90,98.0
6785,G#2,2926.45,0.25,95,98.0
6786,G#2,2926.7,0.25,90,98.0
6787,D2,2926.7,0.25,90,98.0
6788,C#3,2926.7,0.25,90,98.0
6789,G#2,2926.95,0.25,95,98.0
6790,G#2,2927.2,0.25,95,98.0
6791,C2,2927.2,0.25,95,98.0
6792,G#2,2927.45,3/20,95,98.0
6793,G#2,2927.6,1/10,95,98.0
6794,G#2,2927.7,0.25,95,98.0
6795,C#3,2927.7,0.25,95,98.0
6796,D2,2927.7,0.25,95,98.0
6797,G#2,2927.95,0.25,95,98.0
6798,G#2,2928.2,0.25,95,98.0
6799,C2,2928.2,0.25,95,98.0
6800,G#2,2928.45,0.25,95,98.0
6801,G#2,2928.7,0.25,95,98.0
6802,C#3,2928.7,0.25,95,98.0
6803,D2,2928.7,0.25,95,98.0
6804,G#2,2928.95,0.25,95,98.0
6805,C2,2928.95,0.25,95,98.0
6806,G#2,2929.2,0.25,95,98.0
6807,G#2,2929.45,0.25,95,98.0
6808,C2,2929.45,0.25,95,98.0
6809,G#2,2929.7,0.25,95,98.0
6810,C#3,2929.7,0.25,95,98.0
6811,D2,2929.7,0.25,95,98.0
6812,G#2,2929.95,0.25,95,98.0
6813,G#2,2930.2,0.25,95,98.0
6814,C2,2930.2,0.25,95,98.0
6815,G#2,2930.45,0.25,95,98.0
6816,G#2,2930.7,0.25,95,98.0
6817,C#3,2930.7,0.25,95,98.0
6818,D2,2930.7,0.25,95,98.0
6819,G#2,2930.95,0.25,95,98.0
6820,G#2,2931.2,0.25,95,98.0
6821,C2,2931.2,0.25,95,98.0
6822,C3,2931.2,0.25,95,98.0
6823,G#2,2931.45,3/20,95,98.0
6824,B2,2931.45,3/20,95,98.0
6825,G#2,2931.7,1/10,95,98.0
6826,B2,2931.7,1/10,95,98.0
6827,G#2,2931.8,0.25,95,98.0
6828,C#3,2931.8,0.25,95,98.0
6829,D2,2931.8,0.25,95,98.0
6830,A2,2931.8,0.25,95,98.0
6831,G#2,2932.05,0.25,95,98.0
6832,C2,2932.05,0.25,95,98.0
6833,G#2,2932.3,0.25,95,98.0
6834,G#2,2932.55,0.25,95,98.0
6835,G#2,2932.8,0.25,95,98.0
6836,C#3,2932.8,0.25,95,98.0
6837,D2,2932.8,0.25,95,98.0
6838,G#2,2933.05,0.25,95,98.0
6839,G#2,2933.3,0.25,95,98.0
6840,G#2,2933.55,0.25,95,98.0
6841,C2,2933.55,0.25,95,98.0
6842,G#2,2933.8,0.25,95,98.0
6843,C#3,2933.8,0.25,95,98.0
6844,G#2,2934.05,0.25,95,98.0
6845,C2,2934.05,0.25,95,98.0
6846,G#2,2934.3,0.25,95,98.0
6847,D2,2934.3,0.25,95,98.0
6848,C3,2934.3,0.25,95,98.0
6849,G#2,2934.55,0.25,95,98.0
6850,B2,2934.55,0.25,95,98.0
6851,G#2,2934.8,0.25,95,98.0
6852,C#3,2934.8,0.25,95,98.0
6853,A2,2934.8,0.25,95,98.0
6854,G#2,2935.05,0.25,95,98.0
6855,C2,2935.05,0.25,95,98.0
6856,G#2,2935.3,0.25,95,98.0
6857,G#2,2935.55,3/20,95,98.0
6858,C2,2935.55,3/20,95,98.0
6859,G#2,2935.8,1/10,95,98.0
6860,C2,2935.8,1/10,95,98.0
6861,G#2,2935.9,0.25,95,98.0
6862,C#3,2935.9,0.25,95,98.0
6863,D2,2935.9,0.25,95,98.0
6864,B-2,2935.9,0.25,95,98.0
6865,G#2,2936.15,0.25,95,98.0
6866,G#2,2936.4,0.25,90,98.0
6867,C2,2936.4,0.25,90,98.0
6868,C#3,2936.4,0.25,90,98.0
6869,G#2,2936.65,0.25,95,98.0
6870,G#2,2936.9,0.5,91,98.0
6871,C2,2936.9,0.5,91,98.0
6872,D2,2936.9,0.5,91,98.0
6873,C#3,2936.9,0.5,91,98.0
6874,G#2,2940.4,3.0,15,98.0
