,note_name,start_time,duration,velocity,tempo
0,G#4,0.0,2.0,100,100.0
1,C#5,0.0,2.0,100,100.0
2,F5,0.0,2.0,100,100.0
3,C#4,0.0,2.0,100,100.0
4,F4,0.0,2.0,100,100.0
5,G#4,2.0,1.75,100,100.0
6,G#5,2.0,1.75,100,100.0
7,C#4,2.0,1.75,100,100.0
8,G#4,2.0,1.75,100,100.0
9,G#5,3.75,0.25,100,100.0
10,G#4,3.75,0.25,100,100.0
11,C#4,3.75,0.25,100,100.0
12,G#4,3.75,0.25,100,100.0
13,F4,4.0,1.0,100,100.0
14,C#5,4.0,1.0,100,100.0
15,F4,4.0,1.0,100,100.0
16,C#4,4.0,1.0,100,100.0
17,G#4,5.0,1.0,100,100.0
18,E-5,5.0,1.0,100,100.0
19,G#3,5.0,1.0,100,100.0
20,E-4,5.0,1.0,100,100.0
21,G#4,6.0,1.0,100,100.0
22,C#5,6.0,1.0,100,100.0
23,F5,6.0,1.0,100,100.0
24,C#4,6.0,1.0,100,100.0
25,F4,6.0,1.0,100,100.0
26,F4,7.0,1.0,100,100.0
27,C#5,7.0,1.0,100,100.0
28,G#3,7.0,1.0,100,100.0
29,C#4,7.0,1.0,100,100.0
30,G#4,7.5,0.5,100,100.0
31,G#4,7.5,0.5,100,100.0
32,G#3,7.5,0.5,100,100.0
33,G#4,8.0,2.0,100,100.0
34,G#4,8.0,2.0,100,100.0
35,G#3,8.0,2.0,100,100.0
36,G#4,8.0,1.0,100,100.0
37,E-5,8.0,1.0,100,100.0
38,G#3,8.0,1.0,100,100.0
39,E-4,8.0,1.0,100,100.0
40,G#4,9.0,0.75,100,100.0
41,E-5,9.0,0.75,100,100.0
42,G#3,9.0,0.75,100,100.0
43,E-4,9.0,0.75,100,100.0
44,G#4,9.75,0.25,100,100.0
45,E-5,9.75,0.25,100,100.0
46,G#3,9.75,0.25,100,100.0
47,E-4,9.75,0.25,100,100.0
48,G#4,10.0,2.0,100,100.0
49,G#4,10.0,2.0,100,100.0
50,G#3,10.0,2.0,100,100.0
51,G#4,10.0,1.0,100,100.0
52,E-5,10.0,1.0,100,100.0
53,G#3,10.0,1.0,100,100.0
54,E-4,10.0,1.0,100,100.0
55,C#5,11.0,0.5,100,100.0
56,F5,11.0,0.5,100,100.0
57,C#4,11.0,0.5,100,100.0
58,F4,11.0,0.5,100,100.0
59,G#4,11.5,0.5,100,100.0
60,E-5,11.5,0.5,100,100.0
61,G#3,11.5,0.5,100,100.0
62,E-4,11.5,0.5,100,100.0
63,G#4,12.0,2.0,100,100.0
64,G#4,12.0,2.0,100,100.0
65,G#3,12.0,2.0,100,100.0
66,C#5,12.0,0.5,100,100.0
67,F4,12.0,0.5,100,100.0
68,C#4,12.0,0.5,100,100.0
69,F3,12.0,0.5,100,100.0
70,F4,12.5,0.25,100,100.0
71,C#5,12.5,0.25,100,100.0
72,G#3,12.5,0.25,100,100.0
73,C#4,12.5,0.25,100,100.0
74,G#4,12.75,0.25,100,100.0
75,E-5,12.75,0.25,100,100.0
76,G#3,12.75,0.25,100,100.0
77,E-4,12.75,0.25,100,100.0
78,C#5,13.0,0.5,100,100.0
79,F5,13.0,0.5,100,100.0
80,C#4,13.0,0.5,100,100.0
81,F4,13.0,0.5,100,100.0
82,F4,13.5,0.5,100,100.0
83,C#5,13.5,0.5,100,100.0
84,F3,13.5,0.5,100,100.0
85,C#4,13.5,0.5,100,100.0
86,G#4,14.0,1.0,100,100.0
87,G#4,14.0,1.0,100,100.0
88,G#3,14.0,1.0,100,100.0
89,G#4,14.0,2.0,100,100.0
90,E-5,14.0,2.0,100,100.0
91,G#3,14.0,2.0,100,100.0
92,E-4,14.0,2.0,100,100.0
93,G#4,15.0,0.5,100,100.0
94,G#4,15.0,0.5,100,100.0
95,G#3,15.0,0.5,100,100.0
96,G#2,15.0,0.5,100,100.0
97,G#4,15.5,0.5,100,100.0
98,G#4,15.5,0.5,100,100.0
99,G#3,15.5,0.5,100,100.0
100,G#2,15.5,0.5,100,100.0
101,C#5,16.0,2.0,100,100.0
102,F4,16.0,2.0,100,100.0
103,C#3,16.0,2.0,100,100.0
104,C#2,16.0,2.0,100,100.0
105,G#4,16.0,2.0,100,100.0
106,C#5,16.0,2.0,100,100.0
107,F5,16.0,2.0,100,100.0
108,G#4,16.0,2.0,100,100.0
109,C#5,16.0,2.0,100,100.0
110,F5,16.0,2.0,100,100.0
111,C#4,16.0,2.0,100,100.0
112,F4,16.0,2.0,100,100.0
113,C5,18.0,2.0,100,100.0
114,G#4,18.0,2.0,100,100.0
115,F3,18.0,2.0,100,100.0
116,F2,18.0,2.0,100,100.0
117,G#4,18.0,1.75,100,100.0
118,G#5,18.0,1.75,100,100.0
119,G#4,18.0,1.75,100,100.0
120,G#5,18.0,1.75,100,100.0
121,C#4,18.0,1.75,100,100.0
122,G#4,18.0,1.75,100,100.0
123,G#5,19.75,0.25,100,100.0
124,G#4,19.75,0.25,100,100.0
125,G#5,19.75,0.25,100,100.0
126,G#4,19.75,0.25,100,100.0
127,C#4,19.75,0.25,100,100.0
128,G#4,19.75,0.25,100,100.0
129,C#5,20.0,1.0,100,100.0
130,F4,20.0,1.0,100,100.0
131,F3,20.0,1.0,100,100.0
132,B-2,20.0,1.0,100,100.0
133,F4,20.0,1.0,100,100.0
134,C#5,20.0,1.0,100,100.0
135,F4,20.0,1.0,100,100.0
136,C#5,20.0,1.0,100,100.0
137,F4,20.0,1.0,100,100.0
138,C#4,20.0,1.0,100,100.0
139,C5,21.0,1.0,100,100.0
140,E-4,21.0,1.0,100,100.0
141,E-3,21.0,1.0,100,100.0
142,G#2,21.0,1.0,100,100.0
143,G#4,21.0,1.0,100,100.0
144,E-5,21.0,1.0,100,100.0
145,G#4,21.0,1.0,100,100.0
146,E-5,21.0,1.0,100,100.0
147,G#3,21.0,1.0,100,100.0
148,E-4,21.0,1.0,100,100.0
149,C#5,22.0,1.0,100,100.0
150,F4,22.0,1.0,100,100.0
151,C#3,22.0,1.0,100,100.0
152,F2,22.0,1.0,100,100.0
153,G#4,22.0,1.0,100,100.0
154,C#5,22.0,1.0,100,100.0
155,F5,22.0,1.0,100,100.0
156,G#4,22.0,1.0,100,100.0
157,C#5,22.0,1.0,100,100.0
158,F5,22.0,1.0,100,100.0
159,C#4,22.0,1.0,100,100.0
160,F4,22.0,1.0,100,100.0
161,C#5,23.0,1.0,100,100.0
162,F4,23.0,1.0,100,100.0
163,F3,23.0,1.0,100,100.0
164,F2,23.0,1.0,100,100.0
165,F4,23.0,1.0,100,100.0
166,C#5,23.0,1.0,100,100.0
167,F4,23.0,1.0,100,100.0
168,C#5,23.0,1.0,100,100.0
169,G#3,23.0,1.0,100,100.0
170,C#4,23.0,1.0,100,100.0
171,C5,24.0,2.0,100,100.0
172,E-4,24.0,2.0,100,100.0
173,E-3,24.0,2.0,100,100.0
174,G#2,24.0,1.0,100,100.0
175,G#4,24.0,1.0,100,100.0
176,E-5,24.0,1.0,100,100.0
177,G#4,24.0,1.0,100,100.0
178,E-5,24.0,1.0,100,100.0
179,G#3,24.0,1.0,100,100.0
180,E-4,24.0,1.0,100,100.0
181,G#2,25.0,0.75,100,100.0
182,G#4,25.0,0.75,100,100.0
183,E-5,25.0,0.75,100,100.0
184,G#4,25.0,0.75,100,100.0
185,E-5,25.0,0.75,100,100.0
186,G#3,25.0,0.75,100,100.0
187,E-4,25.0,0.75,100,100.0
188,G#2,25.75,0.25,100,100.0
189,G#4,25.75,0.25,100,100.0
190,E-5,25.75,0.25,100,100.0
191,G#4,25.75,0.25,100,100.0
192,E-5,25.75,0.25,100,100.0
193,G#3,25.75,0.25,100,100.0
194,E-4,25.75,0.25,100,100.0
195,C5,26.0,1.0,100,100.0
196,E-4,26.0,1.0,100,100.0
197,E-3,26.0,1.0,100,100.0
198,G#2,26.0,1.0,100,100.0
199,G#4,26.0,1.0,100,100.0
200,E-5,26.0,1.0,100,100.0
201,G#4,26.0,1.0,100,100.0
202,E-5,26.0,1.0,100,100.0
203,G#3,26.0,1.0,100,100.0
204,E-4,26.0,1.0,100,100.0
205,C#5,27.0,0.5,100,100.0
206,F4,27.0,0.5,100,100.0
207,G#3,27.0,1.0,100,100.0
208,G#2,27.0,1.0,100,100.0
209,C#5,27.0,0.5,100,100.0
210,F5,27.0,0.5,100,100.0
211,C#5,27.0,0.5,100,100.0
212,F5,27.0,0.5,100,100.0
213,C#4,27.0,0.5,100,100.0
214,F4,27.0,0.5,100,100.0
215,C5,27.5,0.5,100,100.0
216,E-4,27.5,0.5,100,100.0
217,G#4,27.5,0.5,100,100.0
218,E-5,27.5,0.5,100,100.0
219,G#4,27.5,0.5,100,100.0
220,E-5,27.5,0.5,100,100.0
221,G#3,27.5,0.5,100,100.0
222,E-4,27.5,0.5,100,100.0
223,C#5,28.0,0.5,100,100.0
224,F4,28.0,0.5,100,100.0
225,C#3,28.0,1.0,100,100.0
226,C#2,28.0,1.0,100,100.0
227,C#5,28.0,0.5,100,100.0
228,F4,28.0,0.5,100,100.0
229,C#5,28.0,0.5,100,100.0
230,F4,28.0,0.5,100,100.0
231,C#4,28.0,0.5,100,100.0
232,F3,28.0,0.5,100,100.0
233,C#5,28.5,0.25,100,100.0
234,F4,28.5,0.25,100,100.0
235,F4,28.5,0.25,100,100.0
236,C#5,28.5,0.25,100,100.0
237,F4,28.5,0.25,100,100.0
238,C#5,28.5,0.25,100,100.0
239,G#3,28.5,0.25,100,100.0
240,C#4,28.5,0.25,100,100.0
241,C5,28.75,0.25,100,100.0
242,E-4,28.75,0.25,100,100.0
243,G#4,28.75,0.25,100,100.0
244,E-5,28.75,0.25,100,100.0
245,G#4,28.75,0.25,100,100.0
246,E-5,28.75,0.25,100,100.0
247,G#3,28.75,0.25,100,100.0
248,E-4,28.75,0.25,100,100.0
249,C#5,29.0,0.5,100,100.0
250,F4,29.0,0.5,100,100.0
251,G#3,29.0,1.0,100,100.0
252,G#2,29.0,1.0,100,100.0
253,C#5,29.0,0.5,100,100.0
254,F5,29.0,0.5,100,100.0
255,C#5,29.0,0.5,100,100.0
256,F5,29.0,0.5,100,100.0
257,C#4,29.0,0.5,100,100.0
258,F4,29.0,0.5,100,100.0
259,C5,29.5,0.5,100,100.0
260,E-4,29.5,0.5,100,100.0
261,F4,29.5,0.5,100,100.0
262,C#5,29.5,0.5,100,100.0
263,F4,29.5,0.5,100,100.0
264,C#5,29.5,0.5,100,100.0
265,F3,29.5,0.5,100,100.0
266,C#4,29.5,0.5,100,100.0
267,C#5,30.0,2.0,100,100.0
268,F4,30.0,2.0,100,100.0
269,C#3,30.0,2.0,100,100.0
270,C#2,30.0,2.0,100,100.0
271,F5,30.0,2.0,100,100.0
272,G#5,30.0,2.0,100,100.0
273,F4,30.0,2.0,100,100.0
274,C#5,30.0,2.0,100,100.0
275,G#4,30.0,2.0,100,100.0
276,F3,30.0,2.0,100,100.0
277,C#4,30.0,2.0,100,100.0
278,G#4,32.0,2.0,100,100.0
279,C#5,32.0,2.0,100,100.0
280,F5,32.0,2.0,100,100.0
281,C#4,32.0,2.0,100,100.0
282,F4,32.0,2.0,100,100.0
283,G#4,34.0,1.75,100,100.0
284,G#5,34.0,1.75,100,100.0
285,C#4,34.0,1.75,100,100.0
286,G#4,34.0,1.75,100,100.0
287,G#5,35.75,0.25,100,100.0
288,G#4,35.75,0.25,100,100.0
289,C#4,35.75,0.25,100,100.0
290,G#4,35.75,0.25,100,100.0
291,F4,36.0,1.0,100,100.0
292,C#5,36.0,1.0,100,100.0
293,F4,36.0,1.0,100,100.0
294,C#4,36.0,1.0,100,100.0
295,G#4,37.0,1.0,100,100.0
296,E-5,37.0,1.0,100,100.0
297,G#3,37.0,1.0,100,100.0
298,E-4,37.0,1.0,100,100.0
299,G#4,38.0,1.0,100,100.0
300,C#5,38.0,1.0,100,100.0
301,F5,38.0,1.0,100,100.0
302,C#4,38.0,1.0,100,100.0
303,F4,38.0,1.0,100,100.0
304,F4,39.0,1.0,100,100.0
305,C#5,39.0,1.0,100,100.0
306,G#3,39.0,1.0,100,100.0
307,C#4,39.0,1.0,100,100.0
308,G#4,39.5,0.5,100,100.0
309,G#4,39.5,0.5,100,100.0
310,G#3,39.5,0.5,100,100.0
311,G#4,40.0,2.0,100,100.0
312,G#4,40.0,2.0,100,100.0
313,G#3,40.0,2.0,100,100.0
314,G#4,40.0,1.0,100,100.0
315,E-5,40.0,1.0,100,100.0
316,G#3,40.0,1.0,100,100.0
317,E-4,40.0,1.0,100,100.0
318,G#4,41.0,0.75,100,100.0
319,E-5,41.0,0.75,100,100.0
320,G#3,41.0,0.75,100,100.0
321,E-4,41.0,0.75,100,100.0
322,G#4,41.75,0.25,100,100.0
323,E-5,41.75,0.25,100,100.0
324,G#3,41.75,0.25,100,100.0
325,E-4,41.75,0.25,100,100.0
326,G#4,42.0,2.0,100,100.0
327,G#4,42.0,2.0,100,100.0
328,G#3,42.0,2.0,100,100.0
329,G#4,42.0,1.0,100,100.0
330,E-5,42.0,1.0,100,100.0
331,G#3,42.0,1.0,100,100.0
332,E-4,42.0,1.0,100,100.0
333,C#5,43.0,0.5,100,100.0
334,F5,43.0,0.5,100,100.0
335,C#4,43.0,0.5,100,100.0
336,F4,43.0,0.5,100,100.0
337,G#4,43.5,0.5,100,100.0
338,E-5,43.5,0.5,100,100.0
339,G#3,43.5,0.5,100,100.0
340,E-4,43.5,0.5,100,100.0
341,G#4,44.0,2.0,100,100.0
342,G#4,44.0,2.0,100,100.0
343,G#3,44.0,2.0,100,100.0
344,C#5,44.0,0.5,100,100.0
345,F4,44.0,0.5,100,100.0
346,C#4,44.0,0.5,100,100.0
347,F3,44.0,0.5,100,100.0
348,F4,44.5,0.25,100,100.0
349,C#5,44.5,0.25,100,100.0
350,G#3,44.5,0.25,100,100.0
351,C#4,44.5,0.25,100,100.0
352,G#4,44.75,0.25,100,100.0
353,E-5,44.75,0.25,100,100.0
354,G#3,44.75,0.25,100,100.0
355,E-4,44.75,0.25,100,100.0
356,C#5,45.0,0.5,100,100.0
357,F5,45.0,0.5,100,100.0
358,C#4,45.0,0.5,100,100.0
359,F4,45.0,0.5,100,100.0
360,F4,45.5,0.5,100,100.0
361,C#5,45.5,0.5,100,100.0
362,F3,45.5,0.5,100,100.0
363,C#4,45.5,0.5,100,100.0
364,G#4,46.0,1.0,100,100.0
365,G#4,46.0,1.0,100,100.0
366,G#3,46.0,1.0,100,100.0
367,G#4,46.0,2.0,100,100.0
368,E-5,46.0,2.0,100,100.0
369,G#3,46.0,2.0,100,100.0
370,E-4,46.0,2.0,100,100.0
371,G#4,47.0,0.5,100,100.0
372,G#4,47.0,0.5,100,100.0
373,G#3,47.0,0.5,100,100.0
374,G#2,47.0,0.5,100,100.0
375,G#4,47.5,0.5,100,100.0
376,G#4,47.5,0.5,100,100.0
377,G#3,47.5,0.5,100,100.0
378,G#2,47.5,0.5,100,100.0
379,C#5,48.0,2.0,100,100.0
380,F4,48.0,2.0,100,100.0
381,C#3,48.0,2.0,100,100.0
382,C#2,48.0,2.0,100,100.0
383,G#4,48.0,2.0,100,100.0
384,C#5,48.0,2.0,100,100.0
385,F5,48.0,2.0,100,100.0
386,G#4,48.0,2.0,100,100.0
387,C#5,48.0,2.0,100,100.0
388,F5,48.0,2.0,100,100.0
389,C#4,48.0,2.0,100,100.0
390,F4,48.0,2.0,100,100.0
391,C5,50.0,2.0,100,100.0
392,G#4,50.0,2.0,100,100.0
393,F3,50.0,2.0,100,100.0
394,F2,50.0,2.0,100,100.0
395,G#4,50.0,1.75,100,100.0
396,G#5,50.0,1.75,100,100.0
397,G#4,50.0,1.75,100,100.0
398,G#5,50.0,1.75,100,100.0
399,C#4,50.0,1.75,100,100.0
400,G#4,50.0,1.75,100,100.0
401,G#5,51.75,0.25,100,100.0
402,G#4,51.75,0.25,100,100.0
403,G#5,51.75,0.25,100,100.0
404,G#4,51.75,0.25,100,100.0
405,C#4,51.75,0.25,100,100.0
406,G#4,51.75,0.25,100,100.0
407,C#5,52.0,1.0,100,100.0
408,F4,52.0,1.0,100,100.0
409,F3,52.0,1.0,100,100.0
410,B-2,52.0,1.0,100,100.0
411,F4,52.0,1.0,100,100.0
412,C#5,52.0,1.0,100,100.0
413,F4,52.0,1.0,100,100.0
414,C#5,52.0,1.0,100,100.0
415,F4,52.0,1.0,100,100.0
416,C#4,52.0,1.0,100,100.0
417,C5,53.0,1.0,100,100.0
418,E-4,53.0,1.0,100,100.0
419,E-3,53.0,1.0,100,100.0
420,G#2,53.0,1.0,100,100.0
421,G#4,53.0,1.0,100,100.0
422,E-5,53.0,1.0,100,100.0
423,G#4,53.0,1.0,100,100.0
424,E-5,53.0,1.0,100,100.0
425,G#3,53.0,1.0,100,100.0
426,E-4,53.0,1.0,100,100.0
427,C#5,54.0,1.0,100,100.0
428,F4,54.0,1.0,100,100.0
429,C#3,54.0,1.0,100,100.0
430,F2,54.0,1.0,100,100.0
431,G#4,54.0,1.0,100,100.0
432,C#5,54.0,1.0,100,100.0
433,F5,54.0,1.0,100,100.0
434,G#4,54.0,1.0,100,100.0
435,C#5,54.0,1.0,100,100.0
436,F5,54.0,1.0,100,100.0
437,C#4,54.0,1.0,100,100.0
438,F4,54.0,1.0,100,100.0
439,C#5,55.0,1.0,100,100.0
440,F4,55.0,1.0,100,100.0
441,F3,55.0,1.0,100,100.0
442,F2,55.0,1.0,100,100.0
443,F4,55.0,1.0,100,100.0
444,C#5,55.0,1.0,100,100.0
445,F4,55.0,1.0,100,100.0
446,C#5,55.0,1.0,100,100.0
447,G#3,55.0,1.0,100,100.0
448,C#4,55.0,1.0,100,100.0
449,C5,56.0,2.0,100,100.0
450,E-4,56.0,2.0,100,100.0
451,E-3,56.0,2.0,100,100.0
452,G#2,56.0,1.0,100,100.0
453,G#4,56.0,1.0,100,100.0
454,E-5,56.0,1.0,100,100.0
455,G#4,56.0,1.0,100,100.0
456,E-5,56.0,1.0,100,100.0
457,G#3,56.0,1.0,100,100.0
458,E-4,56.0,1.0,100,100.0
459,G#2,57.0,0.75,100,100.0
460,G#4,57.0,0.75,100,100.0
461,E-5,57.0,0.75,100,100.0
462,G#4,57.0,0.75,100,100.0
463,E-5,57.0,0.75,100,100.0
464,G#3,57.0,0.75,100,100.0
465,E-4,57.0,0.75,100,100.0
466,G#2,57.75,0.25,100,100.0
467,G#4,57.75,0.25,100,100.0
468,E-5,57.75,0.25,100,100.0
469,G#4,57.75,0.25,100,100.0
470,E-5,57.75,0.25,100,100.0
471,G#3,57.75,0.25,100,100.0
472,E-4,57.75,0.25,100,100.0
473,C5,58.0,1.0,100,100.0
474,E-4,58.0,1.0,100,100.0
475,E-3,58.0,1.0,100,100.0
476,G#2,58.0,1.0,100,100.0
477,G#4,58.0,1.0,100,100.0
478,E-5,58.0,1.0,100,100.0
479,G#4,58.0,1.0,100,100.0
480,E-5,58.0,1.0,100,100.0
481,G#3,58.0,1.0,100,100.0
482,E-4,58.0,1.0,100,100.0
483,C#5,59.0,0.5,100,100.0
484,F4,59.0,0.5,100,100.0
485,G#3,59.0,1.0,100,100.0
486,G#2,59.0,1.0,100,100.0
487,C#5,59.0,0.5,100,100.0
488,F5,59.0,0.5,100,100.0
489,C#5,59.0,0.5,100,100.0
490,F5,59.0,0.5,100,100.0
491,C#4,59.0,0.5,100,100.0
492,F4,59.0,0.5,100,100.0
493,C5,59.5,0.5,100,100.0
494,E-4,59.5,0.5,100,100.0
495,G#4,59.5,0.5,100,100.0
496,E-5,59.5,0.5,100,100.0
497,G#4,59.5,0.5,100,100.0
498,E-5,59.5,0.5,100,100.0
499,G#3,59.5,0.5,100,100.0
500,E-4,59.5,0.5,100,100.0
501,C#5,60.0,0.5,100,100.0
502,F4,60.0,0.5,100,100.0
503,C#3,60.0,1.0,100,100.0
504,C#2,60.0,1.0,100,100.0
505,C#5,60.0,0.5,100,100.0
506,F4,60.0,0.5,100,100.0
507,C#5,60.0,0.5,100,100.0
508,F4,60.0,0.5,100,100.0
509,C#4,60.0,0.5,100,100.0
510,F3,60.0,0.5,100,100.0
511,C#5,60.5,0.25,100,100.0
512,F4,60.5,0.25,100,100.0
513,F4,60.5,0.25,100,100.0
514,C#5,60.5,0.25,100,100.0
515,F4,60.5,0.25,100,100.0
516,C#5,60.5,0.25,100,100.0
517,G#3,60.5,0.25,100,100.0
518,C#4,60.5,0.25,100,100.0
519,C5,60.75,0.25,100,100.0
520,E-4,60.75,0.25,100,100.0
521,G#4,60.75,0.25,100,100.0
522,E-5,60.75,0.25,100,100.0
523,G#4,60.75,0.25,100,100.0
524,E-5,60.75,0.25,100,100.0
525,G#3,60.75,0.25,100,100.0
526,E-4,60.75,0.25,100,100.0
527,C#5,61.0,0.5,100,100.0
528,F4,61.0,0.5,100,100.0
529,G#3,61.0,1.0,100,100.0
530,G#2,61.0,1.0,100,100.0
531,C#5,61.0,0.5,100,100.0
532,F5,61.0,0.5,100,100.0
533,C#5,61.0,0.5,100,100.0
534,F5,61.0,0.5,100,100.0
535,C#4,61.0,0.5,100,100.0
536,F4,61.0,0.5,100,100.0
537,C5,61.5,0.5,100,100.0
538,E-4,61.5,0.5,100,100.0
539,F4,61.5,0.5,100,100.0
540,C#5,61.5,0.5,100,100.0
541,F4,61.5,0.5,100,100.0
542,C#5,61.5,0.5,100,100.0
543,F3,61.5,0.5,100,100.0
544,C#4,61.5,0.5,100,100.0
545,C#5,62.0,2.0,100,100.0
546,F4,62.0,2.0,100,100.0
547,C#3,62.0,2.0,100,100.0
548,C#2,62.0,2.0,100,100.0
549,F5,62.0,2.0,100,100.0
550,G#5,62.0,2.0,100,100.0
551,F4,62.0,2.0,100,100.0
552,C#5,62.0,2.0,100,100.0
553,G#4,62.0,2.0,100,100.0
554,F3,62.0,2.0,100,100.0
555,C#4,62.0,2.0,100,100.0
