,note_name,start_time,duration,velocity,tempo
0,E-5,0.0,0.25,95,220.0
1,E3,0.0,4.0,95,220.0
2,E5,0.25,0.25,95,220.0
3,E-5,0.5,0.25,95,220.0
4,D5,0.75,0.25,95,220.0
5,E-5,1.0,0.25,95,220.0
6,E5,1.25,0.25,95,220.0
7,E-5,1.5,0.25,95,220.0
8,D5,1.75,0.25,95,220.0
9,E-5,2.0,0.25,95,220.0
10,E5,2.25,0.25,95,220.0
11,E-5,2.5,0.25,95,220.0
12,D5,2.75,0.25,95,220.0
13,E-5,3.0,0.25,95,220.0
14,E5,3.25,0.25,95,220.0
15,E-5,3.5,0.25,95,220.0
16,D5,3.75,0.25,95,220.0
17,E-5,4.0,0.25,95,220.0
18,E3,4.0,4.0,95,220.0
19,E5,4.25,0.25,95,220.0
20,E-5,4.5,0.25,95,220.0
21,D5,4.75,0.25,95,220.0
22,E-5,5.0,0.25,95,220.0
23,E5,5.25,0.25,95,220.0
24,E-5,5.5,0.25,95,220.0
25,D5,5.75,0.25,95,220.0
26,E-5,6.0,0.25,95,220.0
27,E5,6.25,0.25,95,220.0
28,E-5,6.5,0.25,95,220.0
29,D5,6.75,0.25,95,220.0
30,E-5,7.0,0.25,95,220.0
31,E5,7.25,0.25,95,220.0
32,E-5,7.5,0.25,95,220.0
33,D5,7.75,0.25,95,220.0
34,E-5,8.0,0.25,95,220.0
35,E3,8.0,4.0,95,220.0
36,E5,8.25,0.25,95,220.0
37,E-5,8.5,0.25,95,220.0
38,D5,8.75,0.25,95,220.0
39,E-5,9.0,0.25,95,220.0
40,E5,9.25,0.25,95,220.0
41,E-5,9.5,0.25,95,220.0
42,D5,9.75,0.25,95,220.0
43,E-5,10.0,0.25,95,220.0
44,E5,10.25,0.25,95,220.0
45,E-5,10.5,0.25,95,220.0
46,D5,10.75,0.25,95,220.0
47,E-5,11.0,0.25,95,220.0
48,E5,11.25,0.25,95,220.0
49,E-5,11.5,0.25,95,220.0
50,D5,11.75,0.25,95,220.0
51,E5,12.0,0.25,95,220.0
52,E3,12.0,4.0,95,220.0
53,E5,12.25,0.25,95,220.0
54,E5,12.5,0.25,95,220.0
55,E5,12.75,0.25,95,220.0
56,E5,13.0,0.25,95,220.0
57,E5,13.25,0.25,95,220.0
58,E5,13.5,0.25,95,220.0
59,E5,13.75,0.25,95,220.0
60,E5,14.0,0.25,95,220.0
61,E5,14.25,0.25,95,220.0
62,E5,14.5,0.25,95,220.0
63,E5,14.75,0.25,95,220.0
64,E5,15.0,0.25,95,220.0
65,E5,15.25,0.25,95,220.0
66,E5,15.5,0.25,95,220.0
67,E5,15.75,0.25,95,220.0
68,E5,16.0,0.25,95,220.0
69,E3,16.0,4.0,95,220.0
70,E5,16.25,0.25,95,220.0
71,E5,16.5,0.25,95,220.0
72,E5,16.75,0.25,95,220.0
73,E5,17.0,0.25,95,220.0
74,E5,17.25,0.25,95,220.0
75,E5,17.5,0.25,95,220.0
76,E5,17.75,0.25,95,220.0
77,E5,18.0,0.25,95,220.0
78,E5,18.25,0.25,95,220.0
79,E5,18.5,0.25,95,220.0
80,E5,18.75,0.25,95,220.0
81,E5,19.0,0.25,95,220.0
82,E5,19.25,0.25,95,220.0
83,E5,19.5,0.25,95,220.0
84,E5,19.75,0.25,95,220.0
85,E5,20.0,0.25,95,220.0
86,E3,20.0,4.0,95,220.0
87,E-5,20.25,0.25,95,220.0
88,D5,20.5,0.25,95,220.0
89,C#5,20.75,0.25,95,220.0
90,C5,21.0,0.25,95,220.0
91,B4,21.25,0.25,95,220.0
92,B-4,21.5,0.25,95,220.0
93,A4,21.75,0.25,95,220.0
94,G#4,22.0,0.25,95,220.0
95,G4,22.25,0.25,95,220.0
96,F#4,22.5,0.25,95,220.0
97,F4,22.75,0.25,95,220.0
98,A4,23.0,0.25,95,220.0
99,G#4,23.25,0.25,95,220.0
100,G4,23.5,0.25,95,220.0
101,F#4,23.75,0.25,95,220.0
102,E4,24.0,0.25,95,220.0
103,E3,24.0,4.0,95,220.0
104,E-4,24.25,0.25,95,220.0
105,D4,24.5,0.25,95,220.0
106,C#4,24.75,0.25,95,220.0
107,C4,25.0,0.25,95,220.0
108,C#4,25.25,0.25,95,220.0
109,D4,25.5,0.25,95,220.0
110,E-4,25.75,0.25,95,220.0
111,E4,26.0,0.25,95,220.0
112,E-4,26.25,0.25,95,220.0
113,D4,26.5,0.25,95,220.0
114,C#4,26.75,0.25,95,220.0
115,F4,27.0,0.25,95,220.0
116,E4,27.25,0.25,95,220.0
117,E-4,27.5,0.25,95,220.0
118,D4,27.75,0.25,95,220.0
119,E4,28.0,0.25,95,220.0
120,E3,28.0,4.0,95,220.0
121,E-4,28.25,0.25,95,220.0
122,D4,28.5,0.25,95,220.0
123,C#4,28.75,0.25,95,220.0
124,C4,29.0,0.25,95,220.0
125,B3,29.25,0.25,95,220.0
126,B-3,29.5,0.25,95,220.0
127,A3,29.75,0.25,95,220.0
128,G#3,30.0,0.25,95,220.0
129,A3,30.25,0.25,95,220.0
130,B-3,30.5,0.25,95,220.0
131,B3,30.75,0.25,95,220.0
132,C4,31.0,0.25,95,220.0
133,C#4,31.25,0.25,95,220.0
134,D4,31.5,0.25,95,220.0
135,E-4,31.75,0.25,95,220.0
136,E4,32.0,0.25,95,220.0
137,E3,32.0,4.0,95,220.0
138,E-4,32.25,0.25,95,220.0
139,D4,32.5,0.25,95,220.0
140,C#4,32.75,0.25,95,220.0
141,C#4,33.0,0.25,95,220.0
142,C4,33.25,0.25,95,220.0
143,E4,33.5,0.25,95,220.0
144,E-4,33.75,0.25,95,220.0
145,E4,34.0,0.25,95,220.0
146,E-4,34.25,0.25,95,220.0
147,D4,34.5,0.25,95,220.0
148,C#4,34.75,0.25,95,220.0
149,F4,35.0,0.25,95,220.0
150,E4,35.25,0.25,95,220.0
151,E-4,35.5,0.25,95,220.0
152,D4,35.75,0.25,95,220.0
153,E4,36.0,0.25,95,220.0
154,E3,36.0,4.0,95,220.0
155,E-4,36.25,0.25,95,220.0
156,D4,36.5,0.25,95,220.0
157,C#4,36.75,0.25,95,220.0
158,C#4,37.0,0.25,95,220.0
159,C4,37.25,0.25,95,220.0
160,E4,37.5,0.25,95,220.0
161,E-4,37.75,0.25,95,220.0
162,E4,38.0,0.25,95,220.0
163,E-4,38.25,0.25,95,220.0
164,D4,38.5,0.25,95,220.0
165,C#4,38.75,0.25,95,220.0
166,F4,39.0,0.25,95,220.0
167,E4,39.25,0.25,95,220.0
168,E-4,39.5,0.25,95,220.0
169,D4,39.75,0.25,95,220.0
170,E4,40.0,0.25,95,220.0
171,E3,40.0,4.0,95,220.0
172,E-4,40.25,0.25,95,220.0
173,D4,40.5,0.25,95,220.0
174,C#4,40.75,0.25,95,220.0
175,C4,41.0,0.25,95,220.0
176,B3,41.25,0.25,95,220.0
177,B-3,41.5,0.25,95,220.0
178,A3,41.75,0.25,95,220.0
179,G#3,42.0,0.25,95,220.0
180,A3,42.25,0.25,95,220.0
181,B-3,42.5,0.25,95,220.0
182,B3,42.75,0.25,95,220.0
183,C4,43.0,0.25,95,220.0
184,C#4,43.25,0.25,95,220.0
185,D4,43.5,0.25,95,220.0
186,E-4,43.75,0.25,95,220.0
187,E4,44.0,0.25,95,220.0
188,E3,44.0,4.0,95,220.0
189,E-4,44.25,0.25,95,220.0
190,D4,44.5,0.25,95,220.0
191,C#4,44.75,0.25,95,220.0
192,C#4,45.0,0.25,95,220.0
193,C4,45.25,0.25,95,220.0
194,E4,45.5,0.25,95,220.0
195,E-4,45.75,0.25,95,220.0
196,E4,46.0,0.25,95,220.0
197,E-4,46.25,0.25,95,220.0
198,D4,46.5,0.25,95,220.0
199,C#4,46.75,0.25,95,220.0
200,F4,47.0,0.25,95,220.0
201,E4,47.25,0.25,95,220.0
202,E-4,47.5,0.25,95,220.0
203,D4,47.75,0.25,95,220.0
204,E4,48.0,0.25,95,220.0
205,E3,48.0,4.0,95,220.0
206,E-4,48.25,0.25,95,220.0
207,D4,48.5,0.25,95,220.0
208,C#4,48.75,0.25,95,220.0
209,C4,49.0,0.25,95,220.0
210,B3,49.25,0.25,95,220.0
211,B-3,49.5,0.25,95,220.0
212,A3,49.75,0.25,95,220.0
213,G#3,50.0,0.25,95,220.0
214,A3,50.25,0.25,95,220.0
215,B-3,50.5,0.25,95,220.0
216,B3,50.75,0.25,95,220.0
217,C4,51.0,0.25,95,220.0
218,C#4,51.25,0.25,95,220.0
219,D4,51.5,0.25,95,220.0
220,E-4,51.75,0.25,95,220.0
221,E4,52.0,0.25,95,220.0
222,E3,52.0,4.0,95,220.0
223,E-4,52.25,0.25,95,220.0
224,D4,52.5,0.25,95,220.0
225,C#4,52.75,0.25,95,220.0
226,F4,53.0,0.25,95,220.0
227,E4,53.25,0.25,95,220.0
228,E-4,53.5,0.25,95,220.0
229,D4,53.75,0.25,95,220.0
230,C#4,54.0,0.25,95,220.0
231,D4,54.25,0.25,95,220.0
232,E-4,54.5,0.25,95,220.0
233,E4,54.75,0.25,95,220.0
234,F4,55.0,0.25,95,220.0
235,F#4,55.25,0.25,95,220.0
236,G4,55.5,0.25,95,220.0
237,G#4,55.75,0.25,95,220.0
238,A4,56.0,0.25,95,220.0
239,E3,56.0,4.0,95,220.0
240,G#4,56.25,0.25,95,220.0
241,G4,56.5,0.25,95,220.0
242,F#4,56.75,0.25,95,220.0
243,F#4,57.0,0.25,95,220.0
244,F4,57.25,0.25,95,220.0
245,A4,57.5,0.25,95,220.0
246,G#4,57.75,0.25,95,220.0
247,A4,58.0,0.25,95,220.0
248,G#4,58.25,0.25,95,220.0
249,G4,58.5,0.25,95,220.0
250,F#4,58.75,0.25,95,220.0
251,B-4,59.0,0.25,95,220.0
252,A4,59.25,0.25,95,220.0
253,G#4,59.5,0.25,95,220.0
254,G4,59.75,0.25,95,220.0
255,A4,60.0,0.25,95,220.0
256,E3,60.0,4.0,95,220.0
257,G#4,60.25,0.25,95,220.0
258,G4,60.5,0.25,95,220.0
259,F#4,60.75,0.25,95,220.0
260,F#4,61.0,0.25,95,220.0
261,F4,61.25,0.25,95,220.0
262,A4,61.5,0.25,95,220.0
263,G#4,61.75,0.25,95,220.0
264,A4,62.0,0.25,95,220.0
265,G#4,62.25,0.25,95,220.0
266,G4,62.5,0.25,95,220.0
267,F#4,62.75,0.25,95,220.0
268,B-4,63.0,0.25,95,220.0
269,A4,63.25,0.25,95,220.0
270,G#4,63.5,0.25,95,220.0
271,G4,63.75,0.25,95,220.0
272,A4,64.0,0.25,95,220.0
273,E3,64.0,4.0,95,220.0
274,G#4,64.25,0.25,95,220.0
275,G4,64.5,0.25,95,220.0
276,F#4,64.75,0.25,95,220.0
277,F4,65.0,0.25,95,220.0
278,E4,65.25,0.25,95,220.0
279,E-4,65.5,0.25,95,220.0
280,D4,65.75,0.25,95,220.0
281,C#4,66.0,0.25,95,220.0
282,D4,66.25,0.25,95,220.0
283,E-4,66.5,0.25,95,220.0
284,E4,66.75,0.25,95,220.0
285,F4,67.0,0.25,95,220.0
286,F#4,67.25,0.25,95,220.0
287,G4,67.5,0.25,95,220.0
288,G#4,67.75,0.25,95,220.0
289,A4,68.0,0.25,95,220.0
290,E3,68.0,4.0,95,220.0
291,G#4,68.25,0.25,95,220.0
292,G4,68.5,0.25,95,220.0
293,F#4,68.75,0.25,95,220.0
294,F4,69.0,0.25,95,220.0
295,E4,69.25,0.25,95,220.0
296,E-4,69.5,0.25,95,220.0
297,D4,69.75,0.25,95,220.0
298,C#4,70.0,0.25,95,220.0
299,D4,70.25,0.25,95,220.0
300,E-4,70.5,0.25,95,220.0
301,E4,70.75,0.25,95,220.0
302,F4,71.0,0.25,95,220.0
303,F#4,71.25,0.25,95,220.0
304,G4,71.5,0.25,95,220.0
305,G#4,71.75,0.25,95,220.0
306,A4,72.0,1.0,95,220.0
307,E3,72.0,4.0,95,220.0
308,A3,73.0,0.25,95,220.0
309,A3,73.25,0.25,95,220.0
310,A3,73.5,0.25,95,220.0
311,A3,73.75,0.25,95,220.0
312,A3,74.0,0.25,95,220.0
313,B-3,74.25,0.25,95,220.0
314,B-3,74.5,0.25,95,220.0
315,B-3,74.75,0.25,95,220.0
316,B-3,75.0,0.25,95,220.0
317,B-3,75.25,0.25,95,220.0
318,B-3,75.5,0.25,95,220.0
319,B-3,75.75,0.25,95,220.0
320,A3,76.0,1.0,95,220.0
321,E3,76.0,4.0,95,220.0
322,A3,77.0,0.25,95,220.0
323,A3,77.25,0.25,95,220.0
324,A3,77.5,0.25,95,220.0
325,A3,77.75,0.25,95,220.0
326,B-3,78.0,0.25,95,220.0
327,B-3,78.25,0.25,95,220.0
328,B-3,78.5,0.25,95,220.0
329,B-3,78.75,0.25,95,220.0
330,B-3,79.0,0.25,95,220.0
331,B-3,79.25,0.25,95,220.0
332,B-3,79.5,0.25,95,220.0
333,B-3,79.75,0.25,95,220.0
334,A3,80.0,0.25,95,220.0
335,E3,80.0,4.0,95,220.0
336,A3,80.25,0.25,95,220.0
337,A3,80.5,0.25,95,220.0
338,A3,80.75,0.25,95,220.0
339,B-3,81.0,0.25,95,220.0
340,B-3,81.25,0.25,95,220.0
341,B-3,81.5,0.25,95,220.0
342,B-3,81.75,0.25,95,220.0
343,A3,82.0,0.25,95,220.0
344,A3,82.25,0.25,95,220.0
345,A3,82.5,0.25,95,220.0
346,A3,82.75,0.25,95,220.0
347,B-3,83.0,0.25,95,220.0
348,B-3,83.25,0.25,95,220.0
349,B-3,83.5,0.25,95,220.0
350,B-3,83.75,0.25,95,220.0
351,A3,84.0,0.25,95,220.0
352,E3,84.0,4.0,95,220.0
353,B-3,84.25,0.25,95,220.0
354,A3,84.5,0.25,95,220.0
355,G#3,84.75,0.25,95,220.0
356,A3,85.0,0.25,95,220.0
357,B-3,85.25,0.25,95,220.0
358,A3,85.5,0.25,95,220.0
359,G#3,85.75,0.25,95,220.0
360,A3,86.0,0.25,95,220.0
361,B-3,86.25,0.25,95,220.0
362,B3,86.5,0.25,95,220.0
363,C4,86.75,0.25,95,220.0
364,C#4,87.0,0.25,95,220.0
365,D4,87.25,0.25,95,220.0
366,E-4,87.5,0.25,95,220.0
367,E4,87.75,0.25,95,220.0
368,D4,88.0,0.25,95,220.0
369,E3,88.0,4.0,95,220.0
370,D4,88.25,0.25,95,220.0
371,D4,88.5,0.25,95,220.0
372,D4,88.75,0.25,95,220.0
373,D4,89.0,0.25,95,220.0
374,D4,89.25,0.25,95,220.0
375,D4,89.5,0.25,95,220.0
376,D4,89.75,0.25,95,220.0
377,E-4,90.0,0.25,95,220.0
378,E-4,90.25,0.25,95,220.0
379,E-4,90.5,0.25,95,220.0
380,E-4,90.75,0.25,95,220.0
381,E-4,91.0,0.25,95,220.0
382,E-4,91.25,0.25,95,220.0
383,E-4,91.5,0.25,95,220.0
384,E-4,91.75,0.25,95,220.0
385,D4,92.0,0.25,95,220.0
386,E3,92.0,4.0,95,220.0
387,D4,92.25,0.25,95,220.0
388,D4,92.5,0.25,95,220.0
389,D4,92.75,0.25,95,220.0
390,D4,93.0,0.25,95,220.0
391,D4,93.25,0.25,95,220.0
392,D4,93.5,0.25,95,220.0
393,D4,93.75,0.25,95,220.0
394,E-4,94.0,0.25,95,220.0
395,D4,94.25,0.25,95,220.0
396,E-4,94.5,0.25,95,220.0
397,D4,94.75,0.25,95,220.0
398,E-4,95.0,0.25,95,220.0
399,D4,95.25,0.25,95,220.0
400,E-4,95.5,0.25,95,220.0
401,D4,95.75,0.25,95,220.0
402,D4,96.0,0.25,95,220.0
403,E3,96.0,4.0,95,220.0
404,D4,96.25,0.25,95,220.0
405,D4,96.5,0.25,95,220.0
406,D4,96.75,0.25,95,220.0
407,E-4,97.0,0.25,95,220.0
408,E-4,97.25,0.25,95,220.0
409,E-4,97.5,0.25,95,220.0
410,E-4,97.75,0.25,95,220.0
411,D4,98.0,0.25,95,220.0
412,D4,98.25,0.25,95,220.0
413,D4,98.5,0.25,95,220.0
414,D4,98.75,0.25,95,220.0
415,E-4,99.0,0.25,95,220.0
416,E-4,99.25,0.25,95,220.0
417,E-4,99.5,0.25,95,220.0
418,E-4,99.75,0.25,95,220.0
419,D4,100.0,0.25,95,220.0
420,E3,100.0,4.0,95,220.0
421,E-4,100.25,0.25,95,220.0
422,E4,100.5,0.25,95,220.0
423,F4,100.75,0.25,95,220.0
424,F#4,101.0,0.25,95,220.0
425,G4,101.25,0.25,95,220.0
426,G#4,101.5,0.25,95,220.0
427,A4,101.75,0.25,95,220.0
428,B-4,102.0,0.25,95,220.0
429,B4,102.25,0.25,95,220.0
430,C5,102.5,0.25,95,220.0
431,C#5,102.75,0.25,95,220.0
432,D5,103.0,0.25,95,220.0
433,C#5,103.25,0.25,95,220.0
434,C5,103.5,0.25,95,220.0
435,B4,103.75,0.25,95,220.0
436,D5,104.0,0.25,95,220.0
437,E3,104.0,4.0,95,220.0
438,C#5,104.25,0.25,95,220.0
439,C5,104.5,0.25,95,220.0
440,B4,104.75,0.25,95,220.0
441,B-4,105.0,0.25,95,220.0
442,A4,105.25,0.25,95,220.0
443,D5,105.5,0.25,95,220.0
444,C#5,105.75,0.25,95,220.0
445,D5,106.0,0.25,95,220.0
446,C#5,106.25,0.25,95,220.0
447,C5,106.5,0.25,95,220.0
448,B4,106.75,0.25,95,220.0
449,E-5,107.0,0.25,95,220.0
450,D5,107.25,0.25,95,220.0
451,C#5,107.5,0.25,95,220.0
452,C5,107.75,0.25,95,220.0
453,D5,108.0,0.25,95,220.0
454,E3,108.0,4.0,95,220.0
455,C#5,108.25,0.25,95,220.0
456,C5,108.5,0.25,95,220.0
457,B4,108.75,0.25,95,220.0
458,B-4,109.0,0.25,95,220.0
459,A4,109.25,0.25,95,220.0
460,G#4,109.5,0.25,95,220.0
461,G4,109.75,0.25,95,220.0
462,F#4,110.0,0.25,95,220.0
463,G4,110.25,0.25,95,220.0
464,G#4,110.5,0.25,95,220.0
465,A4,110.75,0.25,95,220.0
466,C5,111.0,0.25,95,220.0
467,C#5,111.25,0.25,95,220.0
468,D5,111.5,0.25,95,220.0
469,E-5,111.75,0.25,95,220.0
470,E5,112.0,0.25,95,220.0
471,E3,112.0,4.0,95,220.0
472,E-5,112.25,0.25,95,220.0
473,D5,112.5,0.25,95,220.0
474,C#5,112.75,0.25,95,220.0
475,C5,113.0,0.25,95,220.0
476,B4,113.25,0.25,95,220.0
477,B-4,113.5,0.25,95,220.0
478,A4,113.75,0.25,95,220.0
479,G#4,114.0,0.25,95,220.0
480,G4,114.25,0.25,95,220.0
481,F#4,114.5,0.25,95,220.0
482,F4,114.75,0.25,95,220.0
483,E4,115.0,0.25,95,220.0
484,F4,115.25,0.25,95,220.0
485,E4,115.5,0.25,95,220.0
486,E-4,115.75,0.25,95,220.0
487,E4,116.0,0.25,95,220.0
488,F4,116.25,0.25,95,220.0
489,E4,116.5,0.25,95,220.0
490,E-4,116.75,0.25,95,220.0
491,E4,117.0,0.25,95,220.0
492,F4,117.25,0.25,95,220.0
493,E4,117.5,0.25,95,220.0
494,E-4,117.75,0.25,95,220.0
495,E4,118.0,0.25,95,220.0
496,F4,118.25,0.25,95,220.0
497,E4,118.5,0.25,95,220.0
498,E-4,118.75,0.25,95,220.0
499,E4,119.0,0.25,95,220.0
500,F4,119.25,0.25,95,220.0
501,E4,119.5,0.25,95,220.0
502,E-4,119.75,0.25,95,220.0
503,E4,120.0,0.25,95,220.0
504,F4,120.25,0.25,95,220.0
505,E4,120.5,0.25,95,220.0
506,E-4,120.75,0.25,95,220.0
507,E4,121.0,0.25,95,220.0
508,F4,121.25,0.25,95,220.0
509,E4,121.5,0.25,95,220.0
510,E-4,121.75,0.25,95,220.0
511,E4,122.0,0.25,95,220.0
512,F4,122.25,0.25,95,220.0
513,E4,122.5,0.25,95,220.0
514,E-4,122.75,0.25,95,220.0
515,E4,123.0,0.25,95,220.0
516,F4,123.25,0.25,95,220.0
517,E4,123.5,0.25,95,220.0
518,E-4,123.75,0.25,95,220.0
519,E4,124.0,0.25,95,220.0
520,F4,124.25,0.25,95,220.0
521,E4,124.5,0.25,95,220.0
522,E-4,124.75,0.25,95,220.0
523,E4,125.0,0.25,95,220.0
524,F4,125.25,0.25,95,220.0
525,E4,125.5,0.25,95,220.0
526,E-4,125.75,0.25,95,220.0
527,E4,126.0,0.25,95,220.0
528,F4,126.25,0.25,95,220.0
529,E4,126.5,0.25,95,220.0
530,E-4,126.75,0.25,95,220.0
531,E4,127.0,0.25,95,220.0
532,F4,127.25,0.25,95,220.0
533,E4,127.5,0.25,95,220.0
534,E-4,127.75,0.25,95,220.0
535,E4,128.0,0.25,95,220.0
536,F4,128.25,0.25,95,220.0
537,E4,128.5,0.25,95,220.0
538,E-4,128.75,0.25,95,220.0
539,E4,129.0,0.25,95,220.0
540,F4,129.25,0.25,95,220.0
541,E4,129.5,0.25,95,220.0
542,E-4,129.75,0.25,95,220.0
543,E4,130.0,0.25,95,220.0
544,F4,130.25,0.25,95,220.0
545,E4,130.5,0.25,95,220.0
546,E-4,130.75,0.25,95,220.0
547,E4,131.0,0.25,95,220.0
548,F4,131.25,0.25,95,220.0
549,E4,131.5,0.25,95,220.0
550,E-4,131.75,0.25,95,220.0
551,E4,132.0,1.0,95,220.0
552,E3,132.0,4.0,95,220.0
553,E2,133.0,3.0,95,220.0
554,E4,134.0,2.0,63,220.0
555,E5,134.0,2.0,63,220.0
556,E2,136.0,4.0,95,220.0
557,E3,136.0,4.0,95,220.0
558,E4,136.0,4.0,63,220.0
559,E5,136.0,4.0,63,220.0
560,E2,140.0,4.0,95,220.0
561,E3,140.0,4.0,95,220.0
562,E4,140.0,4.0,63,220.0
563,E5,140.0,4.0,63,220.0
564,E2,144.0,4.0,95,220.0
565,E3,144.0,4.0,95,220.0
566,E4,144.0,4.0,63,220.0
567,E5,144.0,4.0,63,220.0
568,E2,148.0,4.0,95,220.0
569,E3,148.0,4.0,95,220.0
570,E4,148.0,4.0,63,220.0
571,E5,148.0,4.0,63,220.0
