,note_name,start_time,duration,velocity,tempo
0,E2,1.0,0.5,95,260.0
1,F#2,2.0,0.5,95,260.0
2,G#2,3.0,0.5,95,260.0
3,A2,4.0,0.5,95,260.0
4,A4,5.0,1.0,95,260.0
5,C#4,5.0,0.5,63,260.0
6,A3,5.0,0.5,63,260.0
7,E2,6.0,0.5,95,260.0
8,F#4,6.5,1.0,95,260.0
9,C#4,7.0,0.5,63,260.0
10,A3,7.0,0.5,63,260.0
11,A4,8.0,1.0,95,260.0
12,A2,8.0,0.5,95,260.0
13,C#4,9.0,0.5,63,260.0
14,A3,9.0,0.5,63,260.0
15,A4,9.5,1.5,95,260.0
16,E2,10.0,0.5,95,260.0
17,C#4,11.0,0.5,63,260.0
18,A3,11.0,0.5,63,260.0
19,A2,12.0,0.5,95,260.0
20,A4,13.0,1.0,95,260.0
21,C#4,13.0,0.5,63,260.0
22,A3,13.0,0.5,63,260.0
23,E2,14.0,0.5,95,260.0
24,F#4,14.5,1.0,95,260.0
25,C#4,15.0,0.5,63,260.0
26,A3,15.0,0.5,63,260.0
27,A4,16.0,1.0,95,260.0
28,A2,16.0,0.5,95,260.0
29,C#4,17.0,0.5,63,260.0
30,A3,17.0,0.5,63,260.0
31,A4,17.5,1.5,95,260.0
32,E2,18.0,0.5,95,260.0
33,C#4,19.0,0.5,63,260.0
34,A3,19.0,0.5,63,260.0
35,D3,20.0,0.5,95,260.0
36,A4,21.0,1.0,95,260.0
37,C4,21.0,0.5,63,260.0
38,F#3,21.0,0.5,63,260.0
39,A2,22.0,0.5,95,260.0
40,E4,22.5,1.0,95,260.0
41,C4,23.0,0.5,63,260.0
42,F#3,23.0,0.5,63,260.0
43,A4,24.0,1.0,95,260.0
44,D3,24.0,0.5,95,260.0
45,C4,25.0,0.5,63,260.0
46,F#3,25.0,0.5,63,260.0
47,A4,25.5,1.5,95,260.0
48,A2,26.0,0.5,95,260.0
49,C4,27.0,0.5,63,260.0
50,F#3,27.0,0.5,63,260.0
51,A2,28.0,0.5,95,260.0
52,A4,29.0,1.0,95,260.0
53,C#4,29.0,0.5,63,260.0
54,A3,29.0,0.5,63,260.0
55,E2,30.0,0.5,95,260.0
56,F#4,30.5,1.0,95,260.0
57,C#4,31.0,0.5,63,260.0
58,A3,31.0,0.5,63,260.0
59,A4,32.0,1.0,95,260.0
60,A2,32.0,0.5,95,260.0
61,C#4,33.0,0.5,63,260.0
62,A3,33.0,0.5,63,260.0
63,A4,33.5,1.5,95,260.0
64,E2,34.0,0.5,95,260.0
65,C#4,35.0,0.5,63,260.0
66,A3,35.0,0.5,63,260.0
67,E3,36.0,0.5,95,260.0
68,B4,37.0,1.0,95,260.0
69,D4,37.0,0.5,63,260.0
70,G#3,37.0,0.5,63,260.0
71,E2,38.0,0.5,95,260.0
72,E4,38.5,1.0,95,260.0
73,D4,39.0,0.5,63,260.0
74,G#3,39.0,0.5,63,260.0
75,B4,40.0,1.0,95,260.0
76,E3,40.0,0.5,95,260.0
77,D4,41.0,0.5,63,260.0
78,G#3,41.0,0.5,63,260.0
79,A4,41.5,1.0,95,260.0
80,E2,42.0,0.5,95,260.0
81,F#4,42.5,1.0,95,260.0
82,D4,43.0,0.5,63,260.0
83,G#3,43.0,0.5,63,260.0
84,A4,44.0,1.0,95,260.0
85,A2,44.0,0.5,95,260.0
86,A3,45.0,0.5,63,260.0
87,C#4,45.5,1.0,95,260.0
88,E2,46.0,0.5,95,260.0
89,E4,46.5,1.0,95,260.0
90,C#4,47.0,0.5,63,260.0
91,A3,47.0,0.5,63,260.0
92,A4,48.0,1.0,95,260.0
93,A2,48.0,0.5,95,260.0
94,E4,48.5,1.0,95,260.0
95,C#4,49.0,0.5,63,260.0
96,A3,49.0,0.5,63,260.0
97,A4,49.5,1.5,95,260.0
98,E2,50.0,0.5,95,260.0
99,C#4,51.0,0.5,63,260.0
100,A3,51.0,0.5,63,260.0
101,A2,52.0,0.5,95,260.0
102,A4,53.0,1.0,95,260.0
103,C#4,53.0,0.5,63,260.0
104,A3,53.0,0.5,63,260.0
105,E2,54.0,0.5,95,260.0
106,F#4,54.5,1.0,95,260.0
107,C#4,55.0,0.5,63,260.0
108,A3,55.0,0.5,63,260.0
109,A4,56.0,1.0,95,260.0
110,A2,56.0,0.5,95,260.0
111,C#4,57.0,0.5,63,260.0
112,A3,57.0,0.5,63,260.0
113,A4,57.5,1.5,95,260.0
114,E2,58.0,0.5,95,260.0
115,C#4,59.0,0.5,63,260.0
116,A3,59.0,0.5,63,260.0
117,A2,60.0,0.5,95,260.0
118,A4,61.0,1.0,95,260.0
119,C#4,61.0,0.5,63,260.0
120,A3,61.0,0.5,63,260.0
121,E2,62.0,0.5,95,260.0
122,F#4,62.5,1.0,95,260.0
123,C#4,63.0,0.5,63,260.0
124,A3,63.0,0.5,63,260.0
125,A4,64.0,1.0,95,260.0
126,A2,64.0,0.5,95,260.0
127,C#4,65.0,0.5,63,260.0
128,A3,65.0,0.5,63,260.0
129,A4,65.5,1.5,95,260.0
130,E2,66.0,0.5,95,260.0
131,C#4,67.0,0.5,63,260.0
132,A3,67.0,0.5,63,260.0
133,D3,68.0,0.5,95,260.0
134,A4,69.0,1.0,95,260.0
135,C4,69.0,0.5,63,260.0
136,F#3,69.0,0.5,63,260.0
137,A2,70.0,0.5,95,260.0
138,E4,70.5,1.0,95,260.0
139,C4,71.0,0.5,63,260.0
140,F#3,71.0,0.5,63,260.0
141,A4,72.0,1.0,95,260.0
142,D3,72.0,0.5,95,260.0
143,C4,73.0,0.5,63,260.0
144,F#3,73.0,0.5,63,260.0
145,A4,73.5,1.5,95,260.0
146,A2,74.0,0.5,95,260.0
147,C4,75.0,0.5,63,260.0
148,F#3,75.0,0.5,63,260.0
149,A2,76.0,0.5,95,260.0
150,A4,77.0,1.0,95,260.0
151,C#4,77.0,0.5,63,260.0
152,A3,77.0,0.5,63,260.0
153,E2,78.0,0.5,95,260.0
154,F#4,78.5,1.0,95,260.0
155,C#4,79.0,0.5,63,260.0
156,A3,79.0,0.5,63,260.0
157,A4,80.0,1.0,95,260.0
158,A2,80.0,0.5,95,260.0
159,C#4,81.0,0.5,63,260.0
160,A3,81.0,0.5,63,260.0
161,A4,81.5,1.5,95,260.0
162,E2,82.0,0.5,95,260.0
163,C#4,83.0,0.5,63,260.0
164,A3,83.0,0.5,63,260.0
165,E3,84.0,0.5,95,260.0
166,B4,85.0,1.0,95,260.0
167,D4,85.0,0.5,63,260.0
168,G#3,85.0,0.5,63,260.0
169,E4,85.5,0.5,95,260.0
170,E2,86.0,0.5,95,260.0
171,B4,86.5,1.0,95,260.0
172,D4,87.0,0.5,63,260.0
173,G#3,87.0,0.5,63,260.0
174,C5,88.0,1.0,95,260.0
175,E3,88.0,0.5,95,260.0
176,D4,89.0,0.5,63,260.0
177,G#3,89.0,0.5,63,260.0
178,A4,90.0,1.0,95,260.0
179,E2,90.0,0.5,95,260.0
180,F#4,91.0,1.0,95,260.0
181,D4,91.0,0.5,63,260.0
182,G#3,91.0,0.5,63,260.0
183,A4,92.0,1.0,95,260.0
184,A2,92.0,0.5,95,260.0
185,A3,93.0,0.5,63,260.0
186,C#4,93.5,1.0,95,260.0
187,E2,94.0,0.5,95,260.0
188,E4,94.5,1.0,95,260.0
189,A3,95.0,0.5,63,260.0
190,A4,96.0,1.0,95,260.0
191,A2,96.0,0.5,95,260.0
192,E4,96.5,1.0,95,260.0
193,A3,97.0,0.5,63,260.0
194,A4,97.5,1.5,95,260.0
195,E2,98.0,0.5,95,260.0
196,A3,99.0,0.5,63,260.0
197,A2,100.0,0.5,95,260.0
198,A4,101.0,1.0,95,260.0
199,C#4,101.0,0.5,63,260.0
200,A3,101.0,0.5,63,260.0
201,E2,102.0,0.5,95,260.0
202,F#4,102.5,1.0,95,260.0
203,C#4,103.0,0.5,63,260.0
204,A3,103.0,0.5,63,260.0
205,A4,104.0,1.0,95,260.0
206,A2,104.0,0.5,95,260.0
207,C#4,105.0,0.5,63,260.0
208,A3,105.0,0.5,63,260.0
209,C5,105.5,0.5,95,260.0
210,C#5,106.0,1.0,95,260.0
211,E2,106.0,0.5,95,260.0
212,C#4,107.0,0.5,63,260.0
213,A3,107.0,0.5,63,260.0
214,A2,108.0,0.5,95,260.0
215,A4,109.0,1.0,95,260.0
216,C#4,109.0,0.5,63,260.0
217,A3,109.0,0.5,63,260.0
218,E2,110.0,0.5,95,260.0
219,F#4,110.5,1.0,95,260.0
220,C#4,111.0,0.5,63,260.0
221,A3,111.0,0.5,63,260.0
222,A4,112.0,1.0,95,260.0
223,A2,112.0,0.5,95,260.0
224,C#4,113.0,0.5,63,260.0
225,A3,113.0,0.5,63,260.0
226,C#5,113.5,1.5,95,260.0
227,E2,114.0,0.5,95,260.0
228,C#4,115.0,0.5,63,260.0
229,A3,115.0,0.5,63,260.0
230,D3,116.0,0.5,95,260.0
231,A4,117.0,1.0,95,260.0
232,C4,117.0,0.5,63,260.0
233,F#3,117.0,0.5,63,260.0
234,D3,118.0,0.5,95,260.0
235,E4,118.5,1.0,63,260.0
236,C4,119.0,0.5,63,260.0
237,F#3,119.0,0.5,63,260.0
238,A4,120.0,1.0,95,260.0
239,D3,120.0,0.5,95,260.0
240,C4,121.0,0.5,63,260.0
241,F#3,121.0,0.5,63,260.0
242,E5,121.5,1.5,95,260.0
243,D3,122.0,0.5,95,260.0
244,C4,123.0,0.5,63,260.0
245,F#3,123.0,0.5,63,260.0
246,A2,124.0,0.5,95,260.0
247,A4,124.5,1.0,95,260.0
248,E4,125.0,0.5,63,260.0
249,C#4,125.0,0.5,63,260.0
250,E4,125.5,1.5,95,260.0
251,E2,126.0,0.5,95,260.0
252,A4,127.0,1.0,95,260.0
253,E4,127.0,0.5,63,260.0
254,C#4,127.0,0.5,63,260.0
255,C5,128.0,1.0,95,260.0
256,A2,128.0,0.5,95,260.0
257,B4,129.0,0.5,58,260.0
258,E4,129.0,0.5,58,260.0
259,C#4,129.0,0.5,58,260.0
260,E2,130.0,0.5,95,260.0
261,E4,131.0,0.5,63,260.0
262,C#4,131.0,0.5,63,260.0
263,E3,132.0,0.5,95,260.0
264,B4,133.0,1.0,95,260.0
265,D4,133.0,0.5,63,260.0
266,G#3,133.0,0.5,63,260.0
267,E2,134.0,0.5,95,260.0
268,B4,134.5,1.0,95,260.0
269,D4,135.0,0.5,63,260.0
270,G#3,135.0,0.5,63,260.0
271,C5,136.0,1.0,95,260.0
272,E3,136.0,0.5,95,260.0
273,D4,137.0,0.5,63,260.0
274,G#3,137.0,0.5,63,260.0
275,A4,137.5,1.0,95,260.0
276,E2,138.0,0.5,95,260.0
277,F#4,138.5,1.0,95,260.0
278,D4,139.0,27/200,95,260.0
279,G#3,139.0,27/200,95,260.0
280,A4,140.0,1.0,95,260.0
281,A2,140.0,0.5,95,260.0
282,A3,141.0,0.5,63,260.0
283,C#4,141.5,1.0,95,260.0
284,E2,142.0,0.5,95,260.0
285,E4,142.5,1.0,95,260.0
286,A3,143.0,0.5,63,260.0
287,A4,144.0,1.0,95,260.0
288,A2,144.0,0.5,95,260.0
289,E4,144.5,1.0,95,260.0
290,A3,145.0,0.5,63,260.0
291,A4,145.5,1.5,95,260.0
292,E2,146.0,0.5,95,260.0
293,A3,147.0,1.0,63,260.0
294,C#4,148.0,0.5,47,260.0
295,G3,148.5,1.5,63,260.0
296,E4,149.0,1.5,95,260.0
297,C#4,149.5,1.5,79,260.0
298,G3,150.0,1.5,63,260.0
299,A4,150.5,1.5,95,260.0
300,C#4,151.0,1.0,79,260.0
301,G3,151.5,0.5,63,260.0
302,E4,152.0,1.5,95,260.0
303,G3,152.0,1.0,63,260.0
304,C#4,152.0,0.5,79,260.0
305,C#4,152.5,1.5,79,260.0
306,G3,153.0,1.5,63,260.0
307,A4,153.5,2.5,95,260.0
308,C#4,154.0,2.0,79,260.0
309,G3,154.5,1.5,63,260.0
310,C#4,156.0,0.5,79,260.0
311,G3,156.5,1.5,63,260.0
312,E4,157.0,1.5,95,260.0
313,C#4,157.5,1.5,79,260.0
314,G3,158.0,1.5,63,260.0
315,A4,158.5,1.5,95,260.0
316,C#4,159.0,1.0,79,260.0
317,G3,159.5,0.5,63,260.0
318,E4,160.0,1.5,95,260.0
319,G3,160.0,1.0,63,260.0
320,C#4,160.0,0.5,79,260.0
321,C#4,160.5,1.5,79,260.0
322,G3,161.0,1.5,63,260.0
323,A4,161.5,2.5,95,260.0
324,C#4,162.0,2.0,79,260.0
325,G3,162.5,1.5,63,260.0
326,C4,164.0,0.5,79,260.0
327,F#3,164.5,1.5,63,260.0
328,E4,165.0,1.5,95,260.0
329,C4,165.5,1.5,79,260.0
330,F#3,166.0,1.5,63,260.0
331,A4,166.5,1.5,95,260.0
332,C4,167.0,1.0,79,260.0
333,F#3,167.5,0.5,63,260.0
334,E4,168.0,1.5,95,260.0
335,F#3,168.0,1.0,63,260.0
336,C4,168.0,0.5,79,260.0
337,C4,168.5,1.5,79,260.0
338,F#3,169.0,1.5,63,260.0
339,A4,169.5,2.5,95,260.0
340,C4,170.0,2.0,79,260.0
341,F#3,170.5,1.5,63,260.0
342,C#4,172.0,0.5,95,260.0
343,G3,172.5,1.5,63,260.0
344,E4,173.0,1.5,95,260.0
345,C#4,173.5,1.5,79,260.0
346,G3,174.0,1.5,63,260.0
347,A4,174.5,1.5,95,260.0
348,C#4,175.0,1.0,79,260.0
349,G3,175.5,0.5,63,260.0
350,E4,176.0,1.5,95,260.0
351,G3,176.0,1.0,63,260.0
352,C#4,176.0,0.5,79,260.0
353,C#4,176.5,1.5,79,260.0
354,G3,177.0,1.5,63,260.0
355,A4,177.5,2.5,95,260.0
356,C#4,178.0,2.0,79,260.0
357,G3,178.5,1.5,63,260.0
358,E2,180.0,0.5,95,260.0
359,B4,181.0,1.0,95,260.0
360,D4,181.0,0.5,63,260.0
361,G#3,181.0,0.5,63,260.0
362,E2,182.0,0.5,95,260.0
363,D4,183.0,0.5,63,260.0
364,G#3,183.0,0.5,63,260.0
365,C5,184.0,1.0,95,260.0
366,E2,184.0,0.5,95,260.0
367,D4,185.0,0.5,63,260.0
368,G#3,185.0,0.5,63,260.0
369,B4,185.5,1.0,95,260.0
370,E2,186.0,0.5,95,260.0
371,F#4,186.5,1.0,95,260.0
372,D4,187.0,27/200,95,260.0
373,G#3,187.0,27/200,95,260.0
374,A2,188.0,0.5,95,260.0
375,A4,189.0,1.0,95,260.0
376,C#4,189.0,0.5,63,260.0
377,A3,189.0,0.5,63,260.0
378,E2,190.0,0.5,95,260.0
379,E4,190.5,1.5,47,260.0
380,C#4,191.0,0.5,63,260.0
381,A3,191.0,0.5,63,260.0
382,A4,192.0,1.0,95,260.0
383,A2,192.0,0.5,95,260.0
384,C#4,193.0,0.5,63,260.0
385,A3,193.0,0.5,63,260.0
386,A4,193.5,0.5,95,260.0
387,E2,194.0,0.5,95,260.0
388,C#4,195.0,0.5,63,260.0
389,A3,195.0,0.5,63,260.0
390,A2,196.0,0.5,95,260.0
391,E4,197.0,0.5,79,260.0
392,A3,197.0,0.5,79,260.0
393,F#4,197.5,1.0,70,260.0
394,E2,198.0,0.5,95,260.0
395,E4,198.5,1.0,95,260.0
396,C#4,199.0,1.0,95,260.0
397,A3,199.0,0.5,63,260.0
398,C5,200.0,0.5,95,260.0
399,A2,200.0,0.5,95,260.0
400,A3,201.0,0.5,63,260.0
401,E2,202.0,0.5,95,260.0
402,A4,203.0,1.0,95,260.0
403,A3,203.0,0.5,63,260.0
404,F#4,204.0,1.0,95,260.0
405,A2,204.0,0.5,95,260.0
406,A4,205.0,0.5,79,260.0
407,A3,205.0,0.5,79,260.0
408,E2,206.0,0.5,95,260.0
409,A3,207.0,0.5,63,260.0
410,A2,208.0,0.5,95,260.0
411,A3,209.0,0.5,63,260.0
412,A4,209.5,1.0,95,260.0
413,E4,210.0,0.5,95,260.0
414,E2,210.0,0.5,95,260.0
415,F#4,210.5,1.0,70,260.0
416,A3,211.0,0.5,63,260.0
417,D3,212.0,0.5,95,260.0
418,F#3,213.0,0.5,63,260.0
419,A4,213.5,0.5,95,260.0
420,F#4,214.0,1.0,95,260.0
421,A2,214.0,0.5,95,260.0
422,A4,215.0,0.5,79,260.0
423,F#3,215.0,0.5,79,260.0
424,C5,216.0,1.0,95,260.0
425,D3,216.0,0.5,95,260.0
426,B4,217.0,1.0,95,260.0
427,F#3,217.0,0.5,63,260.0
428,A4,218.0,1.0,95,260.0
429,A2,218.0,0.5,95,260.0
430,F#4,218.5,1.5,95,260.0
431,F#3,219.0,0.5,63,260.0
432,E4,220.0,0.5,95,260.0
433,A2,220.0,0.5,95,260.0
434,A3,221.0,0.5,63,260.0
435,C#4,222.0,1.0,95,260.0
436,E2,222.0,0.5,95,260.0
437,E4,223.0,1.0,95,260.0
438,A3,223.0,0.5,63,260.0
439,F#4,224.0,1.0,95,260.0
440,A2,224.0,0.5,95,260.0
441,A4,225.0,0.5,79,260.0
442,A3,225.0,0.5,79,260.0
443,E2,226.0,0.5,95,260.0
444,A3,227.0,0.5,63,260.0
445,E3,228.0,0.5,95,260.0
446,E4,229.0,0.5,79,260.0
447,G#3,229.0,0.5,79,260.0
448,B3,229.5,1.5,95,260.0
449,E2,230.0,0.5,95,260.0
450,E4,231.0,1.0,95,260.0
451,G#3,231.0,0.5,63,260.0
452,F#4,232.0,0.5,95,260.0
453,E3,232.0,0.5,95,260.0
454,G#3,233.0,0.5,63,260.0
455,F#4,234.0,1.0,79,260.0
456,E2,234.0,0.5,95,260.0
457,E4,235.0,1.0,95,260.0
458,G#3,235.0,0.5,63,260.0
459,A4,236.0,0.5,95,260.0
460,A2,236.0,0.5,95,260.0
461,A3,237.0,0.5,63,260.0
462,E2,238.0,0.5,95,260.0
463,E4,238.5,1.5,95,260.0
464,A3,239.0,0.5,63,260.0
465,A4,240.0,1.0,95,260.0
466,A2,240.0,0.5,95,260.0
467,E4,240.5,1.0,95,260.0
468,A3,241.0,0.5,63,260.0
469,A4,241.5,1.5,95,260.0
470,E2,242.0,0.5,95,260.0
471,A3,243.0,0.5,63,260.0
