,note_name,start_time,duration,velocity,tempo
0,F2,0.0,967/1000,86,117.0
1,E-3,0.0,0.25,96,117.0
2,C2,0.0,0.5,115,117.0
3,A4,0.0,0.25,110,117.0
4,F1,0.033,39/40,105,117.0
5,A4,0.25,0.25,92,117.0
6,E-3,0.5,0.25,89,117.0
7,A4,0.5,0.25,92,117.0
8,C4,0.5,229/500,78,117.0
9,G#3,0.5,229/500,78,117.0
10,A4,0.75,0.25,100,117.0
11,F3,1.0,0.125,92,117.0
12,E-3,1.0,0.25,96,117.0
13,E2,1.0,0.25,105,117.0
14,A4,1.0,0.25,105,117.0
15,D4,1.0,9/40,74,117.0
16,B-3,1.0,9/40,74,117.0
17,A4,1.25,0.25,100,117.0
18,C1,1.458,1317/1000,115,117.0
19,C3,1.5,29/20,89,117.0
20,E-3,1.5,0.25,83,117.0
21,C2,1.5,0.5,110,117.0
22,A4,1.5,0.25,100,117.0
23,A4,1.75,0.25,96,117.0
24,E-3,2.0,0.25,83,117.0
25,A4,2.0,0.25,110,117.0
26,C4,2.0,479/500,82,117.0
27,E-4,2.0,479/500,82,117.0
28,A4,2.25,0.25,100,117.0
29,E-3,2.5,0.25,86,117.0
30,C2,2.5,0.5,115,117.0
31,A4,2.5,0.25,110,117.0
32,A4,2.75,0.25,100,117.0
33,E-1,2.992,9/20,110,117.0
34,E-3,3.0,483/1000,83,117.0
35,E-3,3.0,0.25,92,117.0
36,E2,3.0,0.25,110,117.0
37,A4,3.0,0.25,110,117.0
38,D4,3.0,221/500,68,117.0
39,B-3,3.0,221/500,68,117.0
40,A4,3.25,0.25,92,117.0
41,F1,3.492,49/125,89,117.0
42,F3,3.5,167/1000,73,117.0
43,E-3,3.5,0.25,86,117.0
44,C2,3.5,0.25,110,117.0
45,A4,3.5,0.25,105,117.0
46,G#3,3.5,24/125,64,117.0
47,C4,3.5,24/125,64,117.0
48,A4,3.75,0.25,100,117.0
49,F2,4.0,471/500,75,117.0
50,E-3,4.0,0.25,92,117.0
51,C2,4.0,0.25,115,117.0
52,A4,4.0,0.25,110,117.0
53,F1,4.017,0.875,71,117.0
54,A4,4.25,0.25,100,117.0
55,E-3,4.5,0.25,89,117.0
56,A4,4.5,0.25,100,117.0
57,C4,4.5,221/500,78,117.0
58,G#3,4.5,221/500,78,117.0
59,A4,4.75,0.25,105,117.0
60,F3,5.0,71/500,77,117.0
61,E-3,5.0,0.25,96,117.0
62,E2,5.0,0.25,110,117.0
63,A4,5.0,0.25,110,117.0
64,B-3,5.0,129/500,71,117.0
65,D4,5.0,129/500,71,117.0
66,A4,5.25,0.25,96,117.0
67,C1,5.467,1267/1000,110,117.0
68,C3,5.5,377/250,83,117.0
69,E-3,5.5,0.25,83,117.0
70,C2,5.5,0.25,110,117.0
71,A4,5.5,0.25,96,117.0
72,A4,5.75,0.25,96,117.0
73,E-3,6.0,0.25,92,117.0
74,A4,6.0,0.25,110,117.0
75,E-4,6.0,19/20,78,117.0
76,C4,6.0,19/20,78,117.0
77,A4,6.25,0.25,92,117.0
78,E-3,6.5,0.25,86,117.0
79,C2,6.5,0.25,115,117.0
80,A4,6.5,0.25,92,117.0
81,A4,6.75,0.25,100,117.0
82,E-1,6.975,517/1000,105,117.0
83,E-3,7.0,517/1000,89,117.0
84,E-3,7.0,0.25,83,117.0
85,E2,7.0,0.25,110,117.0
86,A4,7.0,0.25,110,117.0
87,B-3,7.0,229/500,76,117.0
88,D4,7.0,229/500,76,117.0
89,A4,7.25,0.25,92,117.0
90,F3,7.5,71/500,73,117.0
91,E-3,7.5,0.25,86,117.0
92,C2,7.5,0.25,110,117.0
93,A4,7.5,0.25,92,117.0
94,C4,7.5,233/1000,68,117.0
95,G#3,7.5,233/1000,68,117.0
96,F1,7.517,73/250,96,117.0
97,A4,7.75,0.25,96,117.0
98,F2,8.0,126/125,80,117.0
99,E-3,8.0,0.25,86,117.0
100,C2,8.0,0.25,110,117.0
101,A4,8.0,0.25,110,117.0
102,F1,8.033,1083/1000,105,117.0
103,A4,8.25,0.25,105,117.0
104,E-3,8.5,0.25,86,117.0
105,A4,8.5,0.25,89,117.0
106,G#3,8.5,127/250,73,117.0
107,C4,8.5,127/250,73,117.0
108,A4,8.75,0.25,100,117.0
109,F3,9.0,133/1000,89,117.0
110,E-3,9.0,0.25,80,117.0
111,E2,9.0,0.25,100,117.0
112,A4,9.0,0.25,110,117.0
113,D4,9.0,9/40,68,117.0
114,B-3,9.0,9/40,68,117.0
115,A4,9.25,0.25,105,117.0
116,C3,9.5,373/250,83,117.0
117,E-3,9.5,0.25,80,117.0
118,C2,9.5,0.25,115,117.0
119,A4,9.5,0.25,92,117.0
120,C1,9.525,1.25,110,117.0
121,A4,9.75,0.25,96,117.0
122,E-4,10.0,126/125,77,117.0
123,C4,10.0,471/500,83,117.0
124,E-3,10.0,117/1000,92,117.0
125,A4,10.0,0.25,110,117.0
126,A4,10.25,0.25,105,117.0
127,E-3,10.5,0.25,89,117.0
128,C2,10.5,0.25,105,117.0
129,A4,10.5,0.25,100,117.0
130,A4,10.75,0.25,100,117.0
131,E-3,11.0,9/20,92,117.0
132,E-3,11.0,0.25,92,117.0
133,E2,11.0,0.25,105,117.0
134,A4,11.0,0.25,115,117.0
135,D4,11.0,229/500,69,117.0
136,B-3,11.0,229/500,69,117.0
137,E-1,11.025,2/5,96,117.0
138,A4,11.25,0.25,96,117.0
139,F3,11.5,0.125,64,117.0
140,E-3,11.5,0.25,86,117.0
141,C2,11.5,0.25,105,117.0
142,A4,11.5,0.25,86,117.0
143,C4,11.5,9/40,66,117.0
144,G#3,11.5,9/40,66,117.0
145,F1,11.525,73/250,75,117.0
146,A4,11.75,0.25,100,117.0
147,F2,12.0,1033/1000,80,117.0
148,E-3,12.0,0.25,96,117.0
149,C2,12.0,0.25,110,117.0
150,A4,12.0,0.25,110,117.0
151,F1,12.067,273/250,92,117.0
152,A4,12.25,0.25,96,117.0
153,C4,12.5,533/1000,80,117.0
154,G#3,12.5,467/1000,86,117.0
155,E-3,12.5,0.25,89,117.0
156,A4,12.5,0.25,96,117.0
157,A4,12.75,0.25,96,117.0
158,F3,13.0,27/250,89,117.0
159,E-3,13.0,0.25,96,117.0
160,E2,13.0,0.25,100,117.0
161,A4,13.0,0.25,110,117.0
162,D4,13.0,1/5,73,117.0
163,B-3,13.0,1/5,73,117.0
164,A4,13.25,0.25,105,117.0
165,C3,13.5,1433/1000,73,117.0
166,E-3,13.5,0.25,83,117.0
167,C2,13.5,0.25,115,117.0
168,A4,13.5,0.25,96,117.0
169,C1,13.517,323/250,100,117.0
170,A4,13.75,0.25,100,117.0
171,E-4,14.0,39/40,80,117.0
172,C4,14.0,227/250,75,117.0
173,E-3,14.0,0.25,83,117.0
174,A4,14.0,0.25,110,117.0
175,A4,14.25,0.25,100,117.0
176,E-3,14.5,0.25,86,117.0
177,C2,14.5,0.25,110,117.0
178,A4,14.5,0.25,100,117.0
179,A4,14.75,0.25,100,117.0
180,E-3,15.0,483/1000,86,117.0
181,E-1,15.0,17/40,105,117.0
182,E-3,15.0,0.25,92,117.0
183,E2,15.0,0.25,105,117.0
184,A4,15.0,0.25,115,117.0
185,D4,15.0,229/500,83,117.0
186,B-3,15.0,229/500,83,117.0
187,A4,15.25,0.25,110,117.0
188,F1,15.492,129/500,86,117.0
189,C4,15.5,73/250,80,117.0
190,G#3,15.5,217/1000,73,117.0
191,F3,15.5,133/1000,63,117.0
192,E-3,15.5,0.25,86,117.0
193,C2,15.5,0.25,105,117.0
194,A4,15.5,0.25,110,117.0
195,A4,15.75,0.25,105,117.0
196,F2,16.0,1.0,83,117.0
197,E-3,16.0,0.25,92,117.0
198,C2,16.0,0.25,110,117.0
199,A4,16.0,0.25,110,117.0
200,F1,16.033,21/20,96,117.0
201,A4,16.25,0.25,92,117.0
202,E-3,16.5,0.25,89,117.0
203,A4,16.5,0.25,92,117.0
204,C4,16.5,467/1000,66,117.0
205,G#3,16.5,467/1000,66,117.0
206,A4,16.75,0.25,100,117.0
207,F3,17.0,27/250,80,117.0
208,E-3,17.0,0.25,96,117.0
209,E2,17.0,0.25,105,117.0
210,A4,17.0,0.25,105,117.0
211,D4,17.0,26/125,66,117.0
212,B-3,17.0,26/125,66,117.0
213,A4,17.25,0.25,100,117.0
214,C3,17.5,771/500,83,117.0
215,E-3,17.5,0.25,83,117.0
216,C2,17.5,0.25,110,117.0
217,A4,17.5,0.25,100,117.0
218,C1,17.517,1283/1000,105,117.0
219,A4,17.75,0.25,96,117.0
220,E-3,18.0,0.25,92,117.0
221,A4,18.0,0.25,110,117.0
222,E-4,18.0,19/20,84,117.0
223,C4,18.0,19/20,84,117.0
224,A4,18.25,0.25,100,117.0
225,E-3,18.5,0.25,86,117.0
226,C2,18.5,0.25,100,117.0
227,A4,18.5,0.25,110,117.0
228,A4,18.75,0.25,100,117.0
229,E-1,18.967,2/5,100,117.0
230,E-3,19.0,123/250,80,117.0
231,E-3,19.0,0.25,83,117.0
232,E2,19.0,0.25,100,117.0
233,A4,19.0,0.25,110,117.0
234,D4,19.0,517/1000,64,117.0
235,B-3,19.0,517/1000,64,117.0
236,A4,19.25,0.25,92,117.0
237,F1,19.45,129/500,86,117.0
238,F3,19.5,27/250,71,117.0
239,E-3,19.5,0.25,86,117.0
240,C2,19.5,0.25,110,117.0
241,A4,19.5,0.25,105,117.0
242,C4,19.5,73/250,62,117.0
243,G#3,19.5,73/250,62,117.0
244,A4,19.75,0.25,100,117.0
245,F2,20.0,967/1000,75,117.0
246,F1,20.0,529/500,92,117.0
247,E-3,20.0,0.25,86,117.0
248,C2,20.0,0.25,100,117.0
249,A4,20.0,0.25,110,117.0
250,A4,20.25,0.25,100,117.0
251,E-3,20.5,0.25,86,117.0
252,A4,20.5,0.25,100,117.0
253,G#3,20.5,21/40,72,117.0
254,C4,20.5,21/40,72,117.0
255,A4,20.75,0.25,105,117.0
256,F3,21.0,27/250,89,117.0
257,E-3,21.0,0.25,80,117.0
258,E2,21.0,0.25,105,117.0
259,A4,21.0,0.25,110,117.0
260,B-3,21.0,11/40,70,117.0
261,D4,21.0,11/40,70,117.0
262,A4,21.25,0.25,96,117.0
263,C3,21.5,1517/1000,83,117.0
264,E-3,21.5,0.25,80,117.0
265,C2,21.5,0.25,110,117.0
266,A4,21.5,0.25,96,117.0
267,C1,21.508,1217/1000,110,117.0
268,A4,21.75,0.25,96,117.0
269,E-3,22.0,117/1000,92,117.0
270,A4,22.0,0.25,110,117.0
271,E-4,22.0,479/500,76,117.0
272,C4,22.0,479/500,76,117.0
273,A4,22.25,0.25,92,117.0
274,E-3,22.5,0.25,89,117.0
275,C2,22.5,0.25,105,117.0
276,A4,22.5,0.25,92,117.0
277,A4,22.75,0.25,100,117.0
278,E-1,22.95,467/1000,100,117.0
279,E-3,23.0,517/1000,86,117.0
280,E-3,23.0,0.25,92,117.0
281,E2,23.0,0.25,105,117.0
282,A4,23.0,0.25,110,117.0
283,D4,23.0,21/40,68,117.0
284,B-3,23.0,21/40,68,117.0
285,A4,23.25,0.25,92,117.0
286,F1,23.475,0.25,83,117.0
287,F3,23.5,71/500,67,117.0
288,E-3,23.5,0.25,86,117.0
289,C2,23.5,0.25,105,117.0
290,A4,23.5,0.25,92,117.0
291,G#3,23.5,333/1000,75,117.0
292,C4,23.5,333/1000,75,117.0
293,A4,23.75,0.25,96,117.0
294,F2,24.0,1033/1000,80,117.0
295,E-3,24.0,0.25,86,117.0
296,C2,24.0,0.25,105,117.0
297,A4,24.0,0.25,110,117.0
298,F1,24.017,1083/1000,96,117.0
299,A4,24.25,0.25,105,117.0
300,G#3,24.5,9/20,92,117.0
301,C4,24.5,533/1000,75,117.0
302,E-3,24.5,0.25,86,117.0
303,A4,24.5,0.25,89,117.0
304,A4,24.75,0.25,100,117.0
305,F3,25.0,23/250,86,117.0
306,E-3,25.0,0.25,80,117.0
307,E2,25.0,0.25,80,117.0
308,A4,25.0,0.25,110,117.0
309,D4,25.0,1/5,78,117.0
310,B-3,25.0,1/5,78,117.0
311,A4,25.25,0.25,105,117.0
312,C3,25.5,59/40,89,117.0
313,E-3,25.5,0.25,80,117.0
314,C2,25.5,0.25,110,117.0
315,A4,25.5,0.25,92,117.0
316,C1,25.525,1217/1000,110,117.0
317,A4,25.75,0.25,96,117.0
318,E-3,26.0,117/1000,92,117.0
319,A4,26.0,0.25,110,117.0
320,E-4,26.0,867/1000,76,117.0
321,C4,26.0,867/1000,76,117.0
322,A4,26.25,0.25,105,117.0
323,E-3,26.5,0.25,89,117.0
324,C2,26.5,0.25,115,117.0
325,A4,26.5,0.25,100,117.0
326,A4,26.75,0.25,100,117.0
327,E-3,27.0,127/250,86,117.0
328,E-1,27.0,17/40,96,117.0
329,E-3,27.0,0.25,92,117.0
330,E2,27.0,0.25,110,117.0
331,A4,27.0,0.25,115,117.0
332,D4,27.0,517/1000,73,117.0
333,B-3,27.0,517/1000,73,117.0
334,A4,27.25,0.25,96,117.0
335,F1,27.483,0.375,92,117.0
336,F3,27.5,117/1000,77,117.0
337,E-3,27.5,0.25,86,117.0
338,C2,27.5,0.25,110,117.0
339,A4,27.5,0.25,86,117.0
340,G#3,27.5,121/500,74,117.0
341,C4,27.5,121/500,74,117.0
342,A4,27.75,0.25,100,117.0
343,C2,28.0,0.25,110,117.0
344,A4,28.0,0.25,110,117.0
345,A4,28.25,0.25,96,117.0
346,A4,28.5,0.25,96,117.0
347,A4,28.75,0.25,96,117.0
348,A4,29.0,0.25,110,117.0
349,A4,29.25,0.25,105,117.0
350,A4,29.5,0.25,96,117.0
351,A4,29.75,0.25,100,117.0
352,A4,30.0,0.25,110,117.0
353,A4,30.25,0.25,100,117.0
354,A4,30.5,0.25,100,117.0
355,A4,30.75,0.25,100,117.0
356,F4,31.0,51/125,100,117.0
357,A4,31.0,0.25,115,117.0
358,A4,31.25,0.25,110,117.0
359,F4,31.5,2/5,105,117.0
360,A4,31.5,0.25,110,117.0
361,A4,31.75,0.25,105,117.0
362,F2,32.0,967/1000,80,117.0
363,F1,32.0,479/500,100,117.0
364,E-3,32.0,0.25,96,117.0
365,C2,32.0,0.5,115,117.0
366,A4,32.0,0.25,110,117.0
367,A4,32.25,0.25,92,117.0
368,E-3,32.5,0.25,89,117.0
369,A4,32.5,0.25,92,117.0
370,C4,32.5,9/20,76,117.0
371,G#3,32.5,9/20,76,117.0
372,A4,32.75,0.25,100,117.0
373,F3,33.0,71/500,83,117.0
374,E-3,33.0,0.25,96,117.0
375,E2,33.0,0.25,105,117.0
376,A4,33.0,0.25,105,117.0
377,D4,33.0,26/125,71,117.0
378,B-3,33.0,26/125,71,117.0
379,A4,33.25,0.25,100,117.0
380,C3,33.5,1517/1000,83,117.0
381,F4,33.5,0.25,92,117.0
382,E-3,33.5,0.25,83,117.0
383,C2,33.5,0.5,110,117.0
384,A4,33.5,0.25,100,117.0
385,C1,33.517,323/250,115,117.0
386,A4,33.75,0.25,96,117.0
387,E-4,34.0,126/125,77,117.0
388,C4,34.0,917/1000,63,117.0
389,G#4,34.0,0.5,115,117.0
390,E-3,34.0,0.25,83,117.0
391,A4,34.0,0.25,110,117.0
392,A4,34.25,0.25,100,117.0
393,B-4,34.5,0.25,96,117.0
394,E-3,34.5,0.25,86,117.0
395,C2,34.5,0.5,115,117.0
396,A4,34.5,0.25,110,117.0
397,A4,34.75,0.25,100,117.0
398,E-3,35.0,467/1000,92,117.0
399,B-4,35.0,1.0,110,117.0
400,E-3,35.0,0.25,92,117.0
401,E2,35.0,0.25,110,117.0
402,A4,35.0,0.25,110,117.0
403,B-3,35.0,19/40,64,117.0
404,D4,35.0,19/40,64,117.0
405,E-1,35.017,49/125,105,117.0
406,A4,35.25,0.25,92,117.0
407,G#3,35.5,129/500,71,117.0
408,C4,35.5,7/20,80,117.0
409,F3,35.5,117/1000,75,117.0
410,E-3,35.5,0.25,86,117.0
411,C2,35.5,0.25,110,117.0
412,A4,35.5,0.25,105,117.0
413,F1,35.517,171/500,86,117.0
414,A4,35.75,0.25,100,117.0
415,F2,36.0,521/500,83,117.0
416,B-4,36.0,1.5,110,117.0
417,E-3,36.0,0.25,92,117.0
418,C2,36.0,0.25,115,117.0
419,A4,36.0,0.25,110,117.0
420,F1,36.042,21/20,89,117.0
421,A4,36.25,0.25,100,117.0
422,E-3,36.5,0.25,89,117.0
423,A4,36.5,0.25,100,117.0
424,C4,36.5,467/1000,64,117.0
425,G#3,36.5,467/1000,64,117.0
426,A4,36.75,0.25,105,117.0
427,F3,37.0,0.125,75,117.0
428,E-3,37.0,0.25,96,117.0
429,E2,37.0,0.25,110,117.0
430,A4,37.0,0.25,110,117.0
431,D4,37.0,129/500,58,117.0
432,B-3,37.0,129/500,58,117.0
433,A4,37.25,0.25,96,117.0
434,C1,37.475,57/40,115,117.0
435,C3,37.5,1433/1000,83,117.0
436,G#4,37.5,0.25,100,117.0
437,E-3,37.5,0.25,83,117.0
438,C2,37.5,0.25,110,117.0
439,A4,37.5,0.25,96,117.0
440,A4,37.75,0.25,96,117.0
441,E-4,38.0,983/1000,73,117.0
442,C4,38.0,223/250,60,117.0
443,B-4,38.0,0.5,100,117.0
444,E-3,38.0,0.25,92,117.0
445,A4,38.0,0.25,110,117.0
446,A4,38.25,0.25,92,117.0
447,E-3,38.5,0.25,86,117.0
448,C2,38.5,0.25,115,117.0
449,A4,38.5,0.25,92,117.0
450,C5,38.75,0.5,89,117.0
451,A4,38.75,0.25,100,117.0
452,E-3,39.0,0.5,89,117.0
453,E-3,39.0,0.25,83,117.0
454,E2,39.0,0.25,110,117.0
455,A4,39.0,0.25,110,117.0
456,D4,39.0,19/40,62,117.0
457,B-3,39.0,19/40,62,117.0
458,E-1,39.025,383/1000,105,117.0
459,A4,39.25,0.25,92,117.0
460,F3,39.5,133/1000,67,117.0
461,E-4,39.5,0.5,89,117.0
462,E-3,39.5,0.25,86,117.0
463,C2,39.5,0.25,110,117.0
464,A4,39.5,0.25,92,117.0
465,C4,39.5,7/20,57,117.0
466,G#3,39.5,7/20,57,117.0
467,F1,39.517,129/500,89,117.0
468,A4,39.75,0.25,96,117.0
469,F2,40.0,41/40,77,117.0
470,F4,40.0,1.25,89,117.0
471,E-3,40.0,0.25,86,117.0
472,C2,40.0,0.25,110,117.0
473,A4,40.0,0.25,110,117.0
474,F1,40.058,47/40,96,117.0
475,A4,40.25,0.25,105,117.0
476,E-3,40.5,0.25,86,117.0
477,A4,40.5,0.25,89,117.0
478,C4,40.5,19/40,72,117.0
479,G#3,40.5,19/40,72,117.0
480,A4,40.75,0.25,100,117.0
481,F3,41.0,117/1000,73,117.0
482,E-3,41.0,0.25,80,117.0
483,E2,41.0,0.25,100,117.0
484,A4,41.0,0.25,110,117.0
485,D4,41.0,3/10,62,117.0
486,B-3,41.0,3/10,62,117.0
487,A4,41.25,0.25,105,117.0
488,C3,41.5,721/500,86,117.0
489,F4,41.5,93/40,96,117.0
490,E-3,41.5,0.25,80,117.0
491,C2,41.5,0.25,115,117.0
492,A4,41.5,0.25,92,117.0
493,C1,41.542,327/250,110,117.0
494,A4,41.75,0.25,96,117.0
495,E-3,42.0,117/1000,92,117.0
496,A4,42.0,0.25,110,117.0
497,E-4,42.0,917/1000,70,117.0
498,C4,42.0,917/1000,70,117.0
499,A4,42.25,0.25,105,117.0
500,E-3,42.5,0.25,89,117.0
501,C2,42.5,0.25,105,117.0
502,A4,42.5,0.25,100,117.0
503,A4,42.75,0.25,100,117.0
504,E-3,43.0,19/40,89,117.0
505,E-3,43.0,0.25,92,117.0
506,E2,43.0,0.25,105,117.0
507,A4,43.0,0.25,115,117.0
508,D4,43.0,517/1000,68,117.0
509,B-3,43.0,517/1000,68,117.0
510,E-1,43.033,417/1000,100,117.0
511,A4,43.25,0.25,96,117.0
512,F3,43.5,0.125,73,117.0
513,E-3,43.5,0.25,86,117.0
514,C2,43.5,0.25,105,117.0
515,A4,43.5,0.25,86,117.0
516,G#3,43.5,417/1000,66,117.0
517,C4,43.5,417/1000,66,117.0
518,F1,43.533,121/500,80,117.0
519,A4,43.75,0.25,100,117.0
520,F2,44.0,479/500,86,117.0
521,E-3,44.0,0.25,96,117.0
522,C2,44.0,0.25,110,117.0
523,A4,44.0,0.25,110,117.0
524,F1,44.033,1133/1000,92,117.0
525,A4,44.25,0.25,96,117.0
526,E-3,44.5,0.25,89,117.0
527,A4,44.5,0.25,96,117.0
528,C4,44.5,467/1000,69,117.0
529,G#3,44.5,467/1000,69,117.0
530,A4,44.75,0.25,96,117.0
531,F3,45.0,27/250,89,117.0
532,E-3,45.0,0.25,96,117.0
533,E2,45.0,0.25,100,117.0
534,A4,45.0,0.25,110,117.0
535,D4,45.0,0.25,69,117.0
536,B-3,45.0,0.25,69,117.0
537,A4,45.25,0.25,105,117.0
538,C3,45.5,199/125,89,117.0
539,E-3,45.5,0.25,83,117.0
540,C2,45.5,0.25,115,117.0
541,A4,45.5,0.25,96,117.0
542,C1,45.508,1317/1000,105,117.0
543,A4,45.75,0.25,100,117.0
544,E-3,46.0,0.25,83,117.0
545,A4,46.0,0.25,110,117.0
546,E-4,46.0,933/1000,70,117.0
547,C4,46.0,933/1000,70,117.0
548,A4,46.25,0.25,100,117.0
549,E-3,46.5,0.25,86,117.0
550,C2,46.5,0.25,110,117.0
551,A4,46.5,0.25,100,117.0
552,A4,46.75,0.25,100,117.0
553,E-3,47.0,0.5,100,117.0
554,F4,47.0,0.5,65,117.0
555,E-3,47.0,0.25,92,117.0
556,E2,47.0,0.25,105,117.0
557,A4,47.0,0.25,115,117.0
558,D4,47.0,0.5,69,117.0
559,B-3,47.0,0.5,69,117.0
560,E-1,47.017,433/1000,96,117.0
561,A4,47.25,0.25,110,117.0
562,F3,47.5,7/40,80,117.0
563,F5,47.5,0.5,115,117.0
564,E-3,47.5,0.25,86,117.0
565,C2,47.5,0.25,105,117.0
566,A4,47.5,0.25,110,117.0
567,C4,47.5,383/1000,63,117.0
568,G#3,47.5,383/1000,63,117.0
569,F1,47.517,267/1000,83,117.0
570,A4,47.75,0.25,105,117.0
571,C#2,48.0,39/40,89,117.0
572,C#1,48.0,1167/1000,110,117.0
573,E-3,48.0,0.25,92,117.0
574,C2,48.0,0.5,115,117.0
575,A4,48.0,0.25,110,117.0
576,F4,48.0,533/1000,96,117.0
577,C#4,48.0,533/1000,96,117.0
578,A4,48.25,0.25,92,117.0
579,B3,48.475,9/20,92,117.0
580,G#3,48.475,9/20,92,117.0
581,E-3,48.5,0.25,89,117.0
582,A4,48.5,0.25,92,117.0
583,A4,48.75,0.25,100,117.0
584,B-3,48.95,11/40,92,117.0
585,C#4,48.95,11/40,92,117.0
586,C#3,49.0,117/1000,80,117.0
587,E-3,49.0,0.25,96,117.0
588,E2,49.0,0.25,105,117.0
589,A4,49.0,0.25,105,117.0
590,C#5,49.0,21/40,108,117.0
591,B-4,49.0,21/40,108,117.0
592,E-5,49.0,21/40,108,117.0
593,A4,49.25,0.25,100,117.0
594,G#2,49.5,199/125,92,117.0
595,F4,49.5,0.25,86,117.0
596,E-3,49.5,0.25,83,117.0
597,C2,49.5,0.5,110,117.0
598,A4,49.5,0.25,100,117.0
599,G#1,49.508,629/500,100,117.0
600,A4,49.75,0.25,96,117.0
601,G#4,50.0,0.5,96,117.0
602,E-3,50.0,0.25,92,117.0
603,A4,50.0,0.25,110,117.0
604,E-4,50.008,17/20,96,117.0
605,B3,50.008,17/20,96,117.0
606,A4,50.25,0.25,100,117.0
607,B-4,50.5,0.5,64,117.0
608,E-3,50.5,0.25,86,117.0
609,C2,50.5,0.5,115,117.0
610,A4,50.5,0.25,110,117.0
611,A4,50.75,0.25,100,117.0
612,C#4,50.975,2/5,92,117.0
613,B-3,50.975,2/5,92,117.0
614,B2,51.0,123/250,83,117.0
615,E-3,51.0,0.25,83,117.0
616,E2,51.0,0.25,100,117.0
617,A4,51.0,0.25,110,117.0
618,B1,51.017,229/500,92,117.0
619,B-4,51.25,0.75,92,117.0
620,A4,51.25,0.25,92,117.0
621,G#3,51.467,217/1000,92,117.0
622,B3,51.467,217/1000,92,117.0
623,C#3,51.5,0.125,69,117.0
624,E-3,51.5,0.25,86,117.0
625,C2,51.5,0.25,110,117.0
626,A4,51.5,0.25,105,117.0
627,C#2,51.508,0.25,83,117.0
628,A4,51.75,0.25,100,117.0
629,C#2,52.0,1017/1000,80,117.0
630,B-4,52.0,1.5,92,117.0
631,E-3,52.0,0.25,86,117.0
632,C2,52.0,0.25,115,117.0
633,A4,52.0,0.25,110,117.0
634,F4,52.0,229/500,98,117.0
635,C#4,52.0,229/500,98,117.0
636,C#1,52.017,277/250,115,117.0
637,A4,52.25,0.25,100,117.0
638,E-3,52.5,0.25,86,117.0
639,A4,52.5,0.25,100,117.0
640,G#3,52.508,127/250,98,117.0
641,B3,52.508,127/250,98,117.0
642,A4,52.75,0.25,105,117.0
643,C#4,53.0,183/1000,83,117.0
644,C#3,53.0,117/1000,80,117.0
645,E-3,53.0,0.25,80,117.0
646,E2,53.0,0.25,105,117.0
647,A4,53.0,0.25,110,117.0
648,C#5,53.0,123/250,105,117.0
649,B-4,53.0,123/250,105,117.0
650,E-5,53.0,123/250,105,117.0
651,B-3,53.033,9/40,96,117.0
652,A4,53.25,0.25,96,117.0
653,G#2,53.5,1483/1000,92,117.0
654,G#4,53.5,0.25,96,117.0
655,E-3,53.5,0.25,80,117.0
656,C2,53.5,0.25,110,117.0
657,A4,53.5,0.25,96,117.0
658,G#1,53.525,49/40,115,117.0
659,A4,53.75,0.25,96,117.0
660,B-4,54.0,0.75,96,117.0
661,E-3,54.0,117/1000,92,117.0
662,A4,54.0,0.25,110,117.0
663,E-4,54.033,833/1000,102,117.0
664,B3,54.033,833/1000,102,117.0
665,A4,54.25,0.25,92,117.0
666,E-3,54.5,0.25,89,117.0
667,C2,54.5,0.25,115,117.0
668,A4,54.5,0.25,92,117.0
669,B4,54.75,0.75,100,117.0
670,A4,54.75,0.25,100,117.0
671,C#4,54.967,417/1000,89,117.0
672,B-3,54.967,417/1000,89,117.0
673,B2,55.0,0.5,80,117.0
674,E-3,55.0,0.25,92,117.0
675,E2,55.0,0.25,105,117.0
676,A4,55.0,0.25,110,117.0
677,B1,55.025,517/1000,92,117.0
678,A4,55.25,0.25,92,117.0
679,G#3,55.492,1/5,92,117.0
680,B3,55.492,1/5,92,117.0
681,C#3,55.5,1/10,58,117.0
682,E-4,55.5,0.5,86,117.0
683,E-3,55.5,0.25,86,117.0
684,C2,55.5,0.25,110,117.0
685,A4,55.5,0.25,92,117.0
686,C#2,55.55,367/1000,89,117.0
687,A4,55.75,0.25,96,117.0
688,C#2,56.0,521/500,75,117.0
689,F4,56.0,1.25,83,117.0
690,E-3,56.0,0.25,92,117.0
691,C2,56.0,0.25,110,117.0
692,A4,56.0,0.25,110,117.0
693,C#4,56.0,221/500,98,117.0
694,F4,56.0,221/500,98,117.0
695,C#1,56.05,529/500,110,117.0
696,A4,56.25,0.25,105,117.0
697,E-3,56.5,0.25,89,117.0
698,A4,56.5,0.25,89,117.0
699,G#3,56.5,221/500,92,117.0
700,B3,56.5,221/500,92,117.0
701,A4,56.75,0.25,100,117.0
702,C#4,56.992,3/10,86,117.0
703,B-3,56.992,3/10,86,117.0
704,C#3,57.0,117/1000,71,117.0
705,E-3,57.0,0.25,96,117.0
706,E2,57.0,0.25,80,117.0
707,A4,57.0,0.25,110,117.0
708,C#5,57.0,0.5,102,117.0
709,E-5,57.0,0.5,102,117.0
710,B-4,57.0,0.5,102,117.0
711,A4,57.25,0.25,105,117.0
712,G#2,57.5,1533/1000,92,117.0
713,F4,57.5,2.5,89,117.0
714,E-3,57.5,0.25,83,117.0
715,C2,57.5,0.25,115,117.0
716,A4,57.5,0.25,92,117.0
717,G#1,57.533,1.25,105,117.0
718,A4,57.75,0.25,96,117.0
719,E-3,58.0,0.25,92,117.0
720,A4,58.0,0.25,110,117.0
721,E-4,58.017,1.0,100,117.0
722,B3,58.033,867/1000,92,117.0
723,A4,58.25,0.25,105,117.0
724,E-3,58.5,0.25,86,117.0
725,C2,58.5,0.25,105,117.0
726,A4,58.5,0.25,100,117.0
727,A4,58.75,0.25,100,117.0
728,B1,58.967,9/20,96,117.0
729,C#4,58.992,417/1000,94,117.0
730,B-3,58.992,417/1000,94,117.0
731,B2,59.0,0.5,77,117.0
732,E-3,59.0,0.25,83,117.0
733,E2,59.0,0.25,110,117.0
734,A4,59.0,0.25,115,117.0
735,A4,59.25,0.25,96,117.0
736,C#2,59.492,9/40,83,117.0
737,C#3,59.5,23/250,65,117.0
738,E-3,59.5,0.25,86,117.0
739,C2,59.5,0.25,105,117.0
740,A4,59.5,0.25,86,117.0
741,B3,59.517,73/250,91,117.0
742,G#3,59.517,73/250,91,117.0
743,A4,59.75,0.25,100,117.0
744,C#2,60.0,21/20,73,117.0
745,C#1,60.0,571/500,105,117.0
746,F4,60.0,1.75,89,117.0
747,E-3,60.0,0.25,86,117.0
748,C2,60.0,0.25,110,117.0
749,A4,60.0,0.25,110,117.0
750,A4,60.25,0.25,96,117.0
751,B3,60.483,171/500,96,117.0
752,G#3,60.483,171/500,96,117.0
753,E-3,60.5,0.25,86,117.0
754,A4,60.5,0.25,96,117.0
755,A4,60.75,0.25,96,117.0
756,C#4,60.958,11/40,83,117.0
757,B-3,60.958,11/40,83,117.0
758,C#3,61.0,133/1000,73,117.0
759,E-3,61.0,0.25,80,117.0
760,E2,61.0,0.25,80,117.0
761,A4,61.0,0.25,110,117.0
762,A4,61.25,0.25,105,117.0
763,G#1,61.492,27/20,100,117.0
764,G#2,61.5,31/20,86,117.0
765,E-3,61.5,0.25,80,117.0
766,C2,61.5,0.25,115,117.0
767,A4,61.5,0.25,96,117.0
768,A4,61.75,0.25,100,117.0
769,C5,62.0,0.5,92,117.0
770,E-3,62.0,117/1000,92,117.0
771,A4,62.0,0.25,110,117.0
772,E-4,62.017,37/40,96,117.0
773,B3,62.017,37/40,96,117.0
774,A4,62.25,0.25,100,117.0
775,E-5,62.5,0.25,86,117.0
776,E-3,62.5,0.25,89,117.0
777,C2,62.5,0.25,110,117.0
778,A4,62.5,0.25,100,117.0
779,A4,62.75,0.25,100,117.0
780,B1,62.942,221/500,89,117.0
781,C#4,62.983,383/1000,89,117.0
782,B-3,62.983,383/1000,89,117.0
783,B2,63.0,483/1000,75,117.0
784,C5,63.0,0.5,100,117.0
785,E-3,63.0,0.25,92,117.0
786,E2,63.0,0.25,110,117.0
787,A4,63.0,0.25,115,117.0
788,A4,63.25,0.25,110,117.0
789,C#2,63.458,367/1000,89,117.0
790,G#3,63.467,77/250,98,117.0
791,B3,63.467,77/250,98,117.0
792,C#3,63.5,0.125,64,117.0
793,E-5,63.5,0.25,105,117.0
794,E-3,63.5,0.25,86,117.0
795,C2,63.5,0.25,105,117.0
796,A4,63.5,0.25,110,117.0
797,A4,63.75,0.25,105,117.0
798,C2,64.0,0.5,115,117.0
799,F4,64.008,19/40,110,117.0
800,E2,65.0,0.25,105,117.0
801,C2,65.5,0.5,110,117.0
802,C2,66.5,0.5,115,117.0
803,E2,67.0,0.25,110,117.0
804,C2,67.5,0.25,110,117.0
805,C2,68.0,0.25,115,117.0
806,E2,69.0,0.25,110,117.0
807,C2,69.5,0.25,110,117.0
808,C2,70.5,0.25,115,117.0
809,E2,71.0,0.25,110,117.0
810,C2,71.5,0.25,110,117.0
811,F2,72.0,967/1000,80,117.0
812,F2,72.0,277/250,92,117.0
813,F1,72.0,479/500,100,117.0
814,E-3,72.0,0.25,96,117.0
815,C2,72.0,0.5,115,117.0
816,A4,72.0,0.25,110,117.0
817,A4,72.25,0.25,92,117.0
818,E-3,72.5,0.25,89,117.0
819,A4,72.5,0.25,92,117.0
820,A4,72.75,0.25,100,117.0
821,F3,73.0,71/500,83,117.0
822,E-3,73.0,0.25,96,117.0
823,E2,73.0,0.25,105,117.0
824,A4,73.0,0.25,105,117.0
825,A4,73.25,0.25,100,117.0
826,C3,73.5,1517/1000,83,117.0
827,C2,73.5,149/125,96,117.0
828,E-3,73.5,0.25,83,117.0
829,C2,73.5,0.5,110,117.0
830,A4,73.5,0.25,100,117.0
831,C1,73.517,323/250,115,117.0
832,A4,73.75,0.25,96,117.0
833,E-3,74.0,0.25,83,117.0
834,A4,74.0,0.25,110,117.0
835,A4,74.25,0.25,100,117.0
836,E-3,74.5,0.25,86,117.0
837,C2,74.5,0.5,115,117.0
838,A4,74.5,0.25,110,117.0
839,A4,74.75,0.25,100,117.0
840,E-3,75.0,467/1000,92,117.0
841,E-2,75.0,49/125,105,117.0
842,E-3,75.0,0.25,92,117.0
843,E2,75.0,0.25,110,117.0
844,A4,75.0,0.25,110,117.0
845,E-1,75.017,49/125,105,117.0
846,A4,75.25,0.25,92,117.0
847,F2,75.5,217/1000,89,117.0
848,F3,75.5,117/1000,75,117.0
849,E-3,75.5,0.25,86,117.0
850,C2,75.5,0.25,110,117.0
851,A4,75.5,0.25,105,117.0
852,F1,75.517,171/500,86,117.0
853,A4,75.75,0.25,100,117.0
854,F2,76.0,521/500,83,117.0
855,F2,76.0,277/250,100,117.0
856,E-3,76.0,0.25,92,117.0
857,C2,76.0,0.25,115,117.0
858,A4,76.0,0.25,110,117.0
859,F1,76.042,21/20,89,117.0
860,A4,76.25,0.25,100,117.0
861,E-3,76.5,0.25,89,117.0
862,A4,76.5,0.25,100,117.0
863,A4,76.75,0.25,105,117.0
864,F3,77.0,0.125,75,117.0
865,E-3,77.0,0.25,96,117.0
866,E2,77.0,0.25,110,117.0
867,A4,77.0,0.25,110,117.0
868,A4,77.25,0.25,96,117.0
869,C1,77.475,57/40,115,117.0
870,C3,77.5,1433/1000,83,117.0
871,C2,77.5,579/500,100,117.0
872,E-3,77.5,0.25,83,117.0
873,C2,77.5,0.25,110,117.0
874,A4,77.5,0.25,96,117.0
875,A4,77.75,0.25,96,117.0
876,E-3,78.0,0.25,92,117.0
877,A4,78.0,0.25,110,117.0
878,A4,78.25,0.25,92,117.0
879,E-3,78.5,0.25,86,117.0
880,C2,78.5,0.25,115,117.0
881,A4,78.5,0.25,92,117.0
882,A4,78.75,0.25,100,117.0
883,E-3,79.0,0.25,83,117.0
884,E2,79.0,0.25,110,117.0
885,A4,79.0,0.25,110,117.0
886,E-3,79.0,221/500,94,117.0
887,E-2,79.0,221/500,94,117.0
888,E-1,79.025,383/1000,105,117.0
889,A4,79.25,0.25,92,117.0
890,E-3,79.5,0.25,86,117.0
891,C2,79.5,0.25,110,117.0
892,A4,79.5,0.25,92,117.0
893,F3,79.5,7/40,69,117.0
894,F2,79.5,7/40,69,117.0
895,F1,79.517,129/500,89,117.0
896,A4,79.75,0.25,96,117.0
897,E-3,80.0,0.25,86,117.0
898,C2,80.0,0.25,110,117.0
899,A4,80.0,0.25,110,117.0
900,F2,80.0,1033/1000,88,117.0
901,F2,80.0,1033/1000,88,117.0
902,F1,80.058,47/40,96,117.0
903,A4,80.25,0.25,105,117.0
904,E-3,80.5,0.25,86,117.0
905,A4,80.5,0.25,89,117.0
906,A4,80.75,0.25,100,117.0
907,F3,81.0,117/1000,73,117.0
908,E-3,81.0,0.25,80,117.0
909,E2,81.0,0.25,100,117.0
910,A4,81.0,0.25,110,117.0
911,A4,81.25,0.25,105,117.0
912,C3,81.5,721/500,86,117.0
913,C2,81.5,621/500,105,117.0
914,E-3,81.5,0.25,80,117.0
915,C2,81.5,0.25,115,117.0
916,A4,81.5,0.25,92,117.0
917,C1,81.542,327/250,110,117.0
918,A4,81.75,0.25,96,117.0
919,E-3,82.0,117/1000,92,117.0
920,A4,82.0,0.25,110,117.0
921,A4,82.25,0.25,105,117.0
922,E-3,82.5,0.25,89,117.0
923,C2,82.5,0.25,105,117.0
924,A4,82.5,0.25,100,117.0
925,A4,82.75,0.25,100,117.0
926,E-3,83.0,19/40,89,117.0
927,E-2,83.0,49/125,100,117.0
928,E-3,83.0,0.25,92,117.0
929,E2,83.0,0.25,105,117.0
930,A4,83.0,0.25,115,117.0
931,E-1,83.033,417/1000,100,117.0
932,A4,83.25,0.25,96,117.0
933,F2,83.5,24/125,80,117.0
934,F3,83.5,0.125,73,117.0
935,E-3,83.5,0.25,86,117.0
936,C2,83.5,0.25,105,117.0
937,A4,83.5,0.25,86,117.0
938,F1,83.533,121/500,80,117.0
939,A4,83.75,0.25,100,117.0
940,E-3,84.0,0.25,96,117.0
941,C2,84.0,0.25,110,117.0
942,A4,84.0,0.25,110,117.0
943,F2,84.0,126/125,91,117.0
944,F2,84.0,126/125,91,117.0
945,F1,84.033,1133/1000,92,117.0
946,A4,84.25,0.25,96,117.0
947,E-3,84.5,0.25,89,117.0
948,A4,84.5,0.25,96,117.0
949,C4,84.5,9/20,76,117.0
950,G#3,84.5,9/20,76,117.0
951,A4,84.75,0.25,96,117.0
952,F3,85.0,27/250,89,117.0
953,E-3,85.0,0.25,96,117.0
954,E2,85.0,0.25,100,117.0
955,A4,85.0,0.25,110,117.0
956,D4,85.0,26/125,71,117.0
957,B-3,85.0,26/125,71,117.0
958,A4,85.25,0.25,105,117.0
959,C2,85.5,6/5,100,117.0
960,C3,85.5,199/125,89,117.0
961,E-3,85.5,0.25,83,117.0
962,C2,85.5,0.25,115,117.0
963,A4,85.5,0.25,96,117.0
964,C1,85.508,1317/1000,105,117.0
965,A4,85.75,0.25,100,117.0
966,E-4,86.0,126/125,77,117.0
967,C4,86.0,917/1000,63,117.0
968,E-3,86.0,0.25,83,117.0
969,A4,86.0,0.25,110,117.0
970,A4,86.25,0.25,100,117.0
971,E-3,86.5,0.25,86,117.0
972,C2,86.5,0.25,110,117.0
973,A4,86.5,0.25,100,117.0
974,A4,86.75,0.25,100,117.0
975,E-3,87.0,0.5,100,117.0
976,E-2,87.0,51/125,100,117.0
977,E-3,87.0,0.25,92,117.0
978,E2,87.0,0.25,105,117.0
979,A4,87.0,0.25,115,117.0
980,B-3,87.0,19/40,64,117.0
981,D4,87.0,19/40,64,117.0
982,E-1,87.017,433/1000,96,117.0
983,A4,87.25,0.25,110,117.0
984,G#3,87.5,129/500,71,117.0
985,C4,87.5,7/20,80,117.0
986,E-3,87.5,0.25,86,117.0
987,C2,87.5,0.25,105,117.0
988,A4,87.5,0.25,110,117.0
989,F2,87.5,7/40,78,117.0
990,F3,87.5,7/40,78,117.0
991,F1,87.517,267/1000,83,117.0
992,A4,87.75,0.25,105,117.0
993,F1,88.0,479/500,100,117.0
994,E-3,88.0,0.25,96,117.0
995,C2,88.0,0.5,115,117.0
996,A4,88.0,0.25,110,117.0
997,F2,88.0,126/125,86,117.0
998,F2,88.0,126/125,86,117.0
999,A4,88.25,0.25,92,117.0
1000,E-3,88.5,0.25,89,117.0
1001,A4,88.5,0.25,92,117.0
1002,A4,88.75,0.25,100,117.0
1003,F3,89.0,71/500,83,117.0
1004,E-3,89.0,0.25,96,117.0
1005,E2,89.0,0.25,105,117.0
1006,A4,89.0,0.25,105,117.0
1007,A4,89.25,0.25,100,117.0
1008,C2,89.5,1333/1000,92,117.0
1009,C3,89.5,1517/1000,83,117.0
1010,E-3,89.5,0.25,83,117.0
1011,C2,89.5,0.5,110,117.0
1012,A4,89.5,0.25,100,117.0
1013,C1,89.517,323/250,115,117.0
1014,A4,89.75,0.25,96,117.0
1015,E-3,90.0,0.25,83,117.0
1016,A4,90.0,0.25,110,117.0
1017,A4,90.25,0.25,100,117.0
1018,E-3,90.5,0.25,86,117.0
1019,C2,90.5,0.5,115,117.0
1020,A4,90.5,0.25,110,117.0
1021,A4,90.75,0.25,100,117.0
1022,E-3,91.0,467/1000,92,117.0
1023,E-2,91.0,179/500,100,117.0
1024,E-3,91.0,0.25,92,117.0
1025,E2,91.0,0.25,110,117.0
1026,A4,91.0,0.25,110,117.0
1027,E-1,91.017,49/125,105,117.0
1028,A4,91.25,0.25,92,117.0
1029,F3,91.5,117/1000,75,117.0
1030,F2,91.5,24/125,80,117.0
1031,E-3,91.5,0.25,86,117.0
1032,C2,91.5,0.25,110,117.0
1033,A4,91.5,0.25,105,117.0
1034,F1,91.517,171/500,86,117.0
1035,A4,91.75,0.25,100,117.0
1036,E-3,92.0,0.25,92,117.0
1037,C2,92.0,0.25,115,117.0
1038,A4,92.0,0.25,110,117.0
1039,F2,92.0,521/500,86,117.0
1040,F2,92.0,521/500,86,117.0
1041,F1,92.042,21/20,89,117.0
1042,A4,92.25,0.25,100,117.0
1043,E-3,92.5,0.25,89,117.0
1044,A4,92.5,0.25,100,117.0
1045,A4,92.75,0.25,105,117.0
1046,F3,93.0,0.125,75,117.0
1047,E-3,93.0,0.25,96,117.0
1048,E2,93.0,0.25,110,117.0
1049,A4,93.0,0.25,110,117.0
1050,A4,93.25,0.25,96,117.0
1051,C1,93.475,57/40,115,117.0
1052,C3,93.5,1433/1000,83,117.0
1053,C2,93.5,1233/1000,92,117.0
1054,E-3,93.5,0.25,83,117.0
1055,C2,93.5,0.25,110,117.0
1056,A4,93.5,0.25,96,117.0
1057,A4,93.75,0.25,96,117.0
1058,E-3,94.0,0.25,92,117.0
1059,A4,94.0,0.25,110,117.0
1060,A4,94.25,0.25,92,117.0
1061,E-3,94.5,0.25,86,117.0
1062,C2,94.5,0.25,115,117.0
1063,A4,94.5,0.25,92,117.0
1064,A4,94.75,0.25,100,117.0
1065,E-3,95.0,0.25,83,117.0
1066,E2,95.0,0.25,110,117.0
1067,A4,95.0,0.25,110,117.0
1068,E-3,95.0,229/500,94,117.0
1069,E-2,95.0,229/500,94,117.0
1070,E-1,95.025,383/1000,105,117.0
1071,A4,95.25,0.25,92,117.0
1072,E-3,95.5,0.25,86,117.0
1073,C2,95.5,0.25,110,117.0
1074,A4,95.5,0.25,92,117.0
1075,F3,95.5,79/500,76,117.0
1076,F2,95.5,79/500,76,117.0
1077,F1,95.517,129/500,89,117.0
1078,A4,95.75,0.25,96,117.0
1079,E-3,96.0,0.25,86,117.0
1080,C2,96.0,0.25,110,117.0
1081,A4,96.0,0.25,110,117.0
1082,F2,96.0,1033/1000,84,117.0
1083,F2,96.0,1033/1000,84,117.0
1084,F1,96.058,47/40,96,117.0
1085,A4,96.25,0.25,105,117.0
1086,E-3,96.5,0.25,86,117.0
1087,A4,96.5,0.25,89,117.0
1088,A4,96.75,0.25,100,117.0
1089,F3,97.0,117/1000,73,117.0
1090,E-3,97.0,0.25,80,117.0
1091,E2,97.0,0.25,100,117.0
1092,A4,97.0,0.25,110,117.0
1093,A4,97.25,0.25,105,117.0
1094,C3,97.5,721/500,86,117.0
1095,C2,97.5,1.25,100,117.0
1096,E-3,97.5,0.25,80,117.0
1097,C2,97.5,0.25,115,117.0
1098,A4,97.5,0.25,92,117.0
1099,C1,97.542,327/250,110,117.0
1100,A4,97.75,0.25,96,117.0
1101,E-3,98.0,117/1000,92,117.0
1102,A4,98.0,0.25,110,117.0
1103,A4,98.25,0.25,105,117.0
1104,E-3,98.5,0.25,89,117.0
1105,C2,98.5,0.25,105,117.0
1106,A4,98.5,0.25,100,117.0
1107,A4,98.75,0.25,100,117.0
1108,E-3,99.0,0.25,92,117.0
1109,E2,99.0,0.25,105,117.0
1110,A4,99.0,0.25,115,117.0
1111,E-3,99.0,127/250,94,117.0
1112,E-2,99.0,127/250,94,117.0
1113,E-1,99.033,417/1000,100,117.0
1114,A4,99.25,0.25,96,117.0
1115,E-3,99.5,0.25,86,117.0
1116,C2,99.5,0.25,105,117.0
1117,A4,99.5,0.25,86,117.0
1118,F3,99.5,7/40,78,117.0
1119,F2,99.5,7/40,78,117.0
1120,F1,99.533,121/500,80,117.0
1121,A4,99.75,0.25,100,117.0
1122,F2,100.0,479/500,86,117.0
1123,F2,100.0,1067/1000,96,117.0
1124,E-3,100.0,0.25,96,117.0
1125,C2,100.0,0.25,110,117.0
1126,A4,100.0,0.25,110,117.0
1127,F1,100.033,1133/1000,92,117.0
1128,A4,100.25,0.25,96,117.0
1129,E-3,100.5,0.25,89,117.0
1130,A4,100.5,0.25,96,117.0
1131,C4,100.5,9/20,76,117.0
1132,G#3,100.5,9/20,76,117.0
1133,A4,100.75,0.25,96,117.0
1134,F3,101.0,27/250,89,117.0
1135,E-3,101.0,0.25,96,117.0
1136,E2,101.0,0.25,100,117.0
1137,A4,101.0,0.25,110,117.0
1138,D4,101.0,26/125,71,117.0
1139,B-3,101.0,26/125,71,117.0
1140,A4,101.25,0.25,105,117.0
1141,C3,101.5,199/125,89,117.0
1142,C2,101.5,1267/1000,100,117.0
1143,E-3,101.5,0.25,83,117.0
1144,C2,101.5,0.25,115,117.0
1145,A4,101.5,0.25,96,117.0
1146,C1,101.508,1317/1000,105,117.0
1147,A4,101.75,0.25,100,117.0
1148,E-4,102.0,126/125,77,117.0
1149,C4,102.0,917/1000,63,117.0
1150,E-3,102.0,0.25,83,117.0
1151,A4,102.0,0.25,110,117.0
1152,A4,102.25,0.25,100,117.0
1153,E-3,102.5,0.25,86,117.0
1154,C2,102.5,0.25,110,117.0
1155,A4,102.5,0.25,100,117.0
1156,A4,102.75,0.25,100,117.0
1157,E-3,103.0,0.5,100,117.0
1158,E-2,103.0,417/1000,100,117.0
1159,F4,103.0,51/125,100,117.0
1160,E-3,103.0,0.25,92,117.0
1161,E2,103.0,0.25,105,117.0
1162,A4,103.0,0.25,115,117.0
1163,B-3,103.0,19/40,64,117.0
1164,D4,103.0,19/40,64,117.0
1165,E-1,103.017,433/1000,96,117.0
1166,A4,103.25,0.25,110,117.0
1167,G#3,103.5,129/500,71,117.0
1168,C4,103.5,7/20,80,117.0
1169,F4,103.5,2/5,105,117.0
1170,E-3,103.5,0.25,86,117.0
1171,C2,103.5,0.25,105,117.0
1172,A4,103.5,0.25,110,117.0
1173,F3,103.5,7/40,82,117.0
1174,F2,103.5,7/40,82,117.0
1175,F1,103.517,267/1000,83,117.0
1176,A4,103.75,0.25,105,117.0
1177,F1,104.0,479/500,100,117.0
1178,E-3,104.0,0.25,96,117.0
1179,C2,104.0,0.5,115,117.0
1180,A4,104.0,0.25,110,117.0
1181,F2,104.0,1017/1000,88,117.0
1182,F2,104.0,1017/1000,88,117.0
1183,A4,104.25,0.25,92,117.0
1184,E-3,104.5,0.25,89,117.0
1185,A4,104.5,0.25,92,117.0
1186,A4,104.75,0.25,100,117.0
1187,F3,105.0,71/500,83,117.0
1188,E-3,105.0,0.25,96,117.0
1189,E2,105.0,0.25,105,117.0
1190,A4,105.0,0.25,105,117.0
1191,A4,105.25,0.25,100,117.0
1192,C3,105.5,1517/1000,83,117.0
1193,C2,105.5,1217/1000,96,117.0
1194,E-3,105.5,0.25,83,117.0
1195,C2,105.5,0.5,110,117.0
1196,A4,105.5,0.25,100,117.0
1197,C1,105.517,323/250,115,117.0
1198,A4,105.75,0.25,96,117.0
1199,E-3,106.0,0.25,83,117.0
1200,A4,106.0,0.25,110,117.0
1201,A4,106.25,0.25,100,117.0
1202,E-3,106.5,0.25,86,117.0
1203,C2,106.5,0.5,115,117.0
1204,A4,106.5,0.25,110,117.0
1205,A4,106.75,0.25,100,117.0
1206,E-3,107.0,0.25,92,117.0
1207,E2,107.0,0.25,110,117.0
1208,A4,107.0,0.25,110,117.0
1209,E-3,107.0,17/40,94,117.0
1210,E-2,107.0,17/40,94,117.0
1211,E-1,107.017,49/125,105,117.0
1212,A4,107.25,0.25,92,117.0
1213,E-3,107.5,0.25,86,117.0
1214,C2,107.5,0.25,110,117.0
1215,A4,107.5,0.25,105,117.0
1216,F3,107.5,7/40,78,117.0
1217,F2,107.5,7/40,78,117.0
1218,F1,107.517,171/500,86,117.0
1219,A4,107.75,0.25,100,117.0
1220,F2,108.0,967/1000,83,117.0
1221,F2,108.0,521/500,96,117.0
1222,E-3,108.0,0.25,92,117.0
1223,C2,108.0,0.25,115,117.0
1224,A4,108.0,0.25,110,117.0
1225,F1,108.042,21/20,89,117.0
1226,A4,108.25,0.25,100,117.0
1227,E-3,108.5,0.25,89,117.0
1228,A4,108.5,0.25,100,117.0
1229,C4,108.5,9/20,76,117.0
1230,G#3,108.5,9/20,76,117.0
1231,A4,108.75,0.25,105,117.0
1232,F3,109.0,0.125,75,117.0
1233,E-3,109.0,0.25,96,117.0
1234,E2,109.0,0.25,110,117.0
1235,A4,109.0,0.25,110,117.0
1236,D4,109.0,26/125,71,117.0
1237,B-3,109.0,26/125,71,117.0
1238,A4,109.25,0.25,96,117.0
1239,C1,109.475,57/40,115,117.0
1240,C3,109.5,1433/1000,83,117.0
1241,C2,109.5,1217/1000,100,117.0
1242,E-3,109.5,0.25,83,117.0
1243,C2,109.5,0.25,110,117.0
1244,A4,109.5,0.25,96,117.0
1245,A4,109.75,0.25,96,117.0
1246,E-4,110.0,126/125,77,117.0
1247,C4,110.0,917/1000,63,117.0
1248,E-3,110.0,0.25,92,117.0
1249,A4,110.0,0.25,110,117.0
1250,A4,110.25,0.25,92,117.0
1251,E-3,110.5,0.25,86,117.0
1252,C2,110.5,0.25,115,117.0
1253,A4,110.5,0.25,92,117.0
1254,A4,110.75,0.25,100,117.0
1255,E-3,111.0,0.5,89,117.0
1256,E-2,111.0,383/1000,100,117.0
1257,E-3,111.0,0.25,83,117.0
1258,E2,111.0,0.25,110,117.0
1259,A4,111.0,0.25,110,117.0
1260,B-3,111.0,19/40,64,117.0
1261,D4,111.0,19/40,64,117.0
1262,E-1,111.025,383/1000,105,117.0
1263,A4,111.25,0.25,92,117.0
1264,G#3,111.5,129/500,71,117.0
1265,C4,111.5,7/20,80,117.0
1266,E-3,111.5,0.25,86,117.0
1267,C2,111.5,0.25,110,117.0
1268,A4,111.5,0.25,92,117.0
1269,F3,111.5,7/40,76,117.0
1270,F2,111.5,7/40,76,117.0
1271,F1,111.517,129/500,89,117.0
1272,A4,111.75,0.25,96,117.0
1273,E-3,112.0,0.25,86,117.0
1274,C2,112.0,0.25,110,117.0
1275,A4,112.0,0.25,110,117.0
1276,F2,112.0,41/40,84,117.0
1277,F2,112.0,41/40,84,117.0
1278,F1,112.058,47/40,96,117.0
1279,A4,112.25,0.25,105,117.0
1280,E-3,112.5,0.25,86,117.0
1281,A4,112.5,0.25,89,117.0
1282,A4,112.75,0.25,100,117.0
1283,F3,113.0,117/1000,73,117.0
1284,E-3,113.0,0.25,80,117.0
1285,E2,113.0,0.25,100,117.0
1286,A4,113.0,0.25,110,117.0
1287,A4,113.25,0.25,105,117.0
1288,C2,113.5,629/500,96,117.0
1289,C3,113.5,721/500,86,117.0
1290,E-3,113.5,0.25,80,117.0
1291,C2,113.5,0.25,115,117.0
1292,A4,113.5,0.25,92,117.0
1293,C1,113.542,327/250,110,117.0
1294,A4,113.75,0.25,96,117.0
1295,E-3,114.0,117/1000,92,117.0
1296,A4,114.0,0.25,110,117.0
1297,A4,114.25,0.25,105,117.0
1298,E-3,114.5,0.25,89,117.0
1299,C2,114.5,0.25,105,117.0
1300,A4,114.5,0.25,100,117.0
1301,A4,114.75,0.25,100,117.0
1302,E-3,115.0,0.25,92,117.0
1303,E2,115.0,0.25,105,117.0
1304,A4,115.0,0.25,115,117.0
1305,E-3,115.0,19/40,94,117.0
1306,E-2,115.0,19/40,94,117.0
1307,E-1,115.033,417/1000,100,117.0
1308,A4,115.25,0.25,96,117.0
1309,F3,115.5,0.125,73,117.0
1310,F2,115.5,1/5,92,117.0
1311,E-3,115.5,0.25,86,117.0
1312,C2,115.5,0.25,105,117.0
1313,A4,115.5,0.25,86,117.0
1314,F1,115.533,121/500,80,117.0
1315,A4,115.75,0.25,100,117.0
1316,B-2,116.0,267/1000,105,117.0
1317,C2,116.0,43/40,115,117.0
1318,B-2,116.5,283/1000,100,117.0
1319,E-4,116.5,121/500,89,117.0
1320,B-2,117.0,129/500,100,117.0
1321,D2,117.0,17/40,110,117.0
1322,C#4,117.0,26/125,105,117.0
1323,B-2,117.5,11/40,96,117.0
1324,C2,117.75,383/1000,115,117.0
1325,E-4,117.75,1/5,105,117.0
1326,B-2,118.0,121/500,105,117.0
1327,C#4,118.25,79/500,105,117.0
1328,B-2,118.5,9/40,86,117.0
1329,C2,118.5,267/1000,122,117.0
1330,C#4,118.75,71/500,105,117.0
1331,B-2,119.0,0.25,100,117.0
1332,D2,119.0,233/1000,110,117.0
1333,C#4,119.25,79/500,110,117.0
1334,B-2,119.5,0.25,100,117.0
1335,C2,119.5,11/40,115,117.0
1336,C#4,119.75,117/1000,105,117.0
1337,F2,120.0,967/1000,80,117.0
1338,F1,120.0,479/500,100,117.0
1339,E-3,120.0,0.25,96,117.0
1340,C2,120.0,0.5,115,117.0
1341,A4,120.0,0.25,110,117.0
1342,A4,120.25,0.25,92,117.0
1343,E-3,120.5,0.25,89,117.0
1344,A4,120.5,0.25,92,117.0
1345,C4,120.5,9/20,76,117.0
1346,G#3,120.5,9/20,76,117.0
1347,F4,120.5,3/10,98,117.0
1348,C5,120.5,3/10,98,117.0
1349,A4,120.75,0.25,100,117.0
1350,F3,121.0,71/500,83,117.0
1351,E-3,121.0,0.25,96,117.0
1352,E2,121.0,0.25,105,117.0
1353,A4,121.0,0.25,105,117.0
1354,D4,121.0,26/125,71,117.0
1355,B-3,121.0,26/125,71,117.0
1356,A4,121.25,0.25,100,117.0
1357,F4,121.25,11/40,105,117.0
1358,C5,121.25,11/40,105,117.0
1359,C3,121.5,1517/1000,83,117.0
1360,E-3,121.5,0.25,83,117.0
1361,C2,121.5,0.5,110,117.0
1362,A4,121.5,0.25,100,117.0
1363,C1,121.517,323/250,115,117.0
1364,A4,121.75,0.25,96,117.0
1365,E-4,122.0,126/125,77,117.0
1366,C4,122.0,917/1000,63,117.0
1367,E-3,122.0,0.25,83,117.0
1368,A4,122.0,0.25,110,117.0
1369,C5,122.0,19/40,105,117.0
1370,F4,122.0,19/40,105,117.0
1371,A4,122.25,0.25,100,117.0
1372,E-3,122.5,0.25,86,117.0
1373,C2,122.5,0.5,115,117.0
1374,A4,122.5,0.25,110,117.0
1375,E-5,122.5,221/500,102,117.0
1376,G#4,122.5,221/500,102,117.0
1377,A4,122.75,0.25,100,117.0
1378,E-3,123.0,467/1000,92,117.0
1379,E-3,123.0,0.25,92,117.0
1380,E2,123.0,0.25,110,117.0
1381,A4,123.0,0.25,110,117.0
1382,B-3,123.0,19/40,64,117.0
1383,D4,123.0,19/40,64,117.0
1384,E-1,123.017,49/125,105,117.0
1385,A4,123.25,0.25,92,117.0
1386,G#3,123.5,129/500,71,117.0
1387,C4,123.5,7/20,80,117.0
1388,F3,123.5,117/1000,75,117.0
1389,E-3,123.5,0.25,86,117.0
1390,C2,123.5,0.25,110,117.0
1391,A4,123.5,0.25,105,117.0
1392,F1,123.517,171/500,86,117.0
1393,A4,123.75,0.25,100,117.0
1394,F2,124.0,521/500,83,117.0
1395,E-3,124.0,0.25,92,117.0
1396,C2,124.0,0.25,115,117.0
1397,A4,124.0,0.25,110,117.0
1398,F1,124.042,21/20,89,117.0
1399,A4,124.25,0.25,100,117.0
1400,E-3,124.5,0.25,89,117.0
1401,A4,124.5,0.25,100,117.0
1402,C4,124.5,467/1000,64,117.0
1403,G#3,124.5,467/1000,64,117.0
1404,C4,124.5,77/250,105,117.0
1405,F3,124.5,77/250,105,117.0
1406,A4,124.75,0.25,105,117.0
1407,F3,125.0,0.125,75,117.0
1408,E-3,125.0,0.25,96,117.0
1409,E2,125.0,0.25,110,117.0
1410,A4,125.0,0.25,110,117.0
1411,D4,125.0,129/500,58,117.0
1412,B-3,125.0,129/500,58,117.0
1413,A4,125.25,0.25,96,117.0
1414,F3,125.25,317/1000,102,117.0
1415,C4,125.25,317/1000,102,117.0
1416,C1,125.475,57/40,115,117.0
1417,C3,125.5,1433/1000,83,117.0
1418,E-3,125.5,0.25,83,117.0
1419,C2,125.5,0.25,110,117.0
1420,A4,125.5,0.25,96,117.0
1421,A4,125.75,0.25,96,117.0
1422,E-4,126.0,983/1000,73,117.0
1423,C4,126.0,223/250,60,117.0
1424,C4,126.0,23/40,100,117.0
1425,F3,126.0,123/250,96,117.0
1426,E-3,126.0,0.25,92,117.0
1427,A4,126.0,0.25,110,117.0
1428,A4,126.25,0.25,92,117.0
1429,E-3,126.5,0.25,86,117.0
1430,C2,126.5,0.25,115,117.0
1431,A4,126.5,0.25,92,117.0
1432,E-4,126.5,221/500,98,117.0
1433,G#3,126.5,221/500,98,117.0
1434,A4,126.75,0.25,100,117.0
1435,E-3,127.0,0.5,89,117.0
1436,E-3,127.0,0.25,83,117.0
1437,E2,127.0,0.25,110,117.0
1438,A4,127.0,0.25,110,117.0
1439,D4,127.0,19/40,62,117.0
1440,B-3,127.0,19/40,62,117.0
1441,E-1,127.025,383/1000,105,117.0
1442,A4,127.25,0.25,92,117.0
1443,F3,127.5,133/1000,67,117.0
1444,E-3,127.5,0.25,86,117.0
1445,C2,127.5,0.25,110,117.0
1446,A4,127.5,0.25,92,117.0
1447,C4,127.5,7/20,57,117.0
1448,G#3,127.5,7/20,57,117.0
1449,F1,127.517,129/500,89,117.0
1450,A4,127.75,0.25,96,117.0
1451,F2,128.0,41/40,77,117.0
1452,E-3,128.0,0.25,86,117.0
1453,C2,128.0,0.25,110,117.0
1454,A4,128.0,0.25,110,117.0
1455,F1,128.058,47/40,96,117.0
1456,A4,128.25,0.25,105,117.0
1457,E-3,128.5,0.25,86,117.0
1458,A4,128.5,0.25,89,117.0
1459,C4,128.5,19/40,72,117.0
1460,G#3,128.5,19/40,72,117.0
1461,F4,128.5,77/250,98,117.0
1462,C5,128.5,77/250,98,117.0
1463,A4,128.75,0.25,100,117.0
1464,F3,129.0,117/1000,73,117.0
1465,E-3,129.0,0.25,80,117.0
1466,E2,129.0,0.25,100,117.0
1467,A4,129.0,0.25,110,117.0
1468,D4,129.0,3/10,62,117.0
1469,B-3,129.0,3/10,62,117.0
1470,A4,129.25,0.25,105,117.0
1471,F4,129.25,77/250,100,117.0
1472,C5,129.25,77/250,100,117.0
1473,C3,129.5,721/500,86,117.0
1474,E-3,129.5,0.25,80,117.0
1475,C2,129.5,0.25,115,117.0
1476,A4,129.5,0.25,92,117.0
1477,C1,129.542,327/250,110,117.0
1478,A4,129.75,0.25,96,117.0
1479,F4,130.0,9/20,96,117.0
1480,C5,130.0,279/500,100,117.0
1481,E-3,130.0,117/1000,92,117.0
1482,A4,130.0,0.25,110,117.0
1483,E-4,130.0,917/1000,70,117.0
1484,C4,130.0,917/1000,70,117.0
1485,A4,130.25,0.25,105,117.0
1486,E-3,130.5,0.25,89,117.0
1487,C2,130.5,0.25,105,117.0
1488,A4,130.5,0.25,100,117.0
1489,G#4,130.5,383/1000,108,117.0
1490,E-5,130.5,383/1000,108,117.0
1491,A4,130.75,0.25,100,117.0
1492,E-3,131.0,19/40,89,117.0
1493,E-3,131.0,0.25,92,117.0
1494,E2,131.0,0.25,105,117.0
1495,A4,131.0,0.25,115,117.0
1496,D4,131.0,517/1000,68,117.0
1497,B-3,131.0,517/1000,68,117.0
1498,E-1,131.033,417/1000,100,117.0
1499,A4,131.25,0.25,96,117.0
1500,F3,131.5,0.125,73,117.0
1501,E-3,131.5,0.25,86,117.0
1502,C2,131.5,0.25,105,117.0
1503,A4,131.5,0.25,86,117.0
1504,G#3,131.5,417/1000,66,117.0
1505,C4,131.5,417/1000,66,117.0
1506,F1,131.533,121/500,80,117.0
1507,A4,131.75,0.25,100,117.0
1508,F2,132.0,479/500,86,117.0
1509,E-3,132.0,0.25,96,117.0
1510,C2,132.0,0.25,110,117.0
1511,A4,132.0,0.25,110,117.0
1512,F1,132.033,1133/1000,92,117.0
1513,A4,132.25,0.25,96,117.0
1514,E-3,132.5,0.25,89,117.0
1515,A4,132.5,0.25,96,117.0
1516,C4,132.5,467/1000,69,117.0
1517,G#3,132.5,467/1000,69,117.0
1518,F3,132.5,7/20,100,117.0
1519,C4,132.5,7/20,100,117.0
1520,A4,132.75,0.25,96,117.0
1521,F3,133.0,27/250,89,117.0
1522,E-3,133.0,0.25,96,117.0
1523,E2,133.0,0.25,100,117.0
1524,A4,133.0,0.25,110,117.0
1525,D4,133.0,0.25,69,117.0
1526,B-3,133.0,0.25,69,117.0
1527,A4,133.25,0.25,105,117.0
1528,F3,133.25,13/40,103,117.0
1529,C4,133.25,13/40,103,117.0
1530,C3,133.5,199/125,89,117.0
1531,E-3,133.5,0.25,83,117.0
1532,C2,133.5,0.25,115,117.0
1533,A4,133.5,0.25,96,117.0
1534,C1,133.508,1317/1000,105,117.0
1535,A4,133.75,0.25,100,117.0
1536,E-3,134.0,0.25,83,117.0
1537,A4,134.0,0.25,110,117.0
1538,E-4,134.0,933/1000,70,117.0
1539,C4,134.0,933/1000,70,117.0
1540,F3,134.0,0.5,102,117.0
1541,C4,134.0,0.5,102,117.0
1542,A4,134.25,0.25,100,117.0
1543,E-3,134.5,0.25,86,117.0
1544,C2,134.5,0.25,110,117.0
1545,A4,134.5,0.25,100,117.0
1546,G#3,134.5,51/125,92,117.0
1547,E-4,134.5,51/125,92,117.0
1548,A4,134.75,0.25,100,117.0
1549,E-3,135.0,0.5,100,117.0
1550,E-3,135.0,0.25,92,117.0
1551,E2,135.0,0.25,105,117.0
1552,A4,135.0,0.25,115,117.0
1553,D4,135.0,0.5,69,117.0
1554,B-3,135.0,0.5,69,117.0
1555,E-1,135.017,433/1000,96,117.0
1556,A4,135.25,0.25,110,117.0
1557,F3,135.5,7/40,80,117.0
1558,E-3,135.5,0.25,86,117.0
1559,C2,135.5,0.25,105,117.0
1560,A4,135.5,0.25,110,117.0
1561,C4,135.5,383/1000,63,117.0
1562,G#3,135.5,383/1000,63,117.0
1563,F1,135.517,267/1000,83,117.0
1564,A4,135.75,0.25,105,117.0
1565,C#2,136.0,39/40,89,117.0
1566,C#1,136.0,1167/1000,110,117.0
1567,E-3,136.0,0.25,92,117.0
1568,C2,136.0,0.5,115,117.0
1569,A4,136.0,0.25,110,117.0
1570,C#4,136.0,221/500,84,117.0
1571,F4,136.0,221/500,84,117.0
1572,A4,136.25,0.25,92,117.0
1573,B3,136.475,9/20,92,117.0
1574,G#3,136.475,9/20,92,117.0
1575,E-3,136.5,0.25,89,117.0
1576,A4,136.5,0.25,92,117.0
1577,A4,136.75,0.25,100,117.0
1578,B-3,136.95,11/40,92,117.0
1579,C#4,136.95,11/40,92,117.0
1580,C#3,137.0,117/1000,80,117.0
1581,E-3,137.0,0.25,96,117.0
1582,E2,137.0,0.25,105,117.0
1583,A4,137.0,0.25,105,117.0
1584,B-4,137.0,271/500,93,117.0
1585,C#5,137.0,271/500,93,117.0
1586,E-5,137.0,271/500,93,117.0
1587,A4,137.25,0.25,100,117.0
1588,G#2,137.5,199/125,92,117.0
1589,F3,137.5,76/125,115,117.0
1590,E-3,137.5,0.25,83,117.0
1591,C2,137.5,0.5,110,117.0
1592,A4,137.5,0.25,100,117.0
1593,G#5,137.5,329/500,108,117.0
1594,F5,137.5,329/500,108,117.0
1595,F6,137.5,329/500,108,117.0
1596,C#5,137.5,329/500,108,117.0
1597,G#4,137.5,371/500,100,117.0
1598,C#4,137.5,371/500,100,117.0
1599,G#1,137.508,629/500,100,117.0
1600,A4,137.75,0.25,96,117.0
1601,E-3,138.0,0.25,92,117.0
1602,A4,138.0,0.25,110,117.0
1603,E-4,138.008,17/20,96,117.0
1604,B3,138.008,17/20,96,117.0
1605,A4,138.25,0.25,100,117.0
1606,E-3,138.5,0.25,86,117.0
1607,C2,138.5,0.5,115,117.0
1608,A4,138.5,0.25,110,117.0
1609,A4,138.75,0.25,100,117.0
1610,C#4,138.975,2/5,92,117.0
1611,B-3,138.975,2/5,92,117.0
1612,B2,139.0,123/250,83,117.0
1613,E-3,139.0,0.25,83,117.0
1614,E2,139.0,0.25,100,117.0
1615,A4,139.0,0.25,110,117.0
1616,B1,139.017,229/500,92,117.0
1617,A4,139.25,0.25,92,117.0
1618,G#3,139.467,217/1000,92,117.0
1619,B3,139.467,217/1000,92,117.0
1620,C#3,139.5,0.125,69,117.0
1621,E-3,139.5,0.25,86,117.0
1622,C2,139.5,0.25,110,117.0
1623,A4,139.5,0.25,105,117.0
1624,C#2,139.508,0.25,83,117.0
1625,A4,139.75,0.25,100,117.0
1626,C#2,140.0,1017/1000,80,117.0
1627,E-3,140.0,0.25,86,117.0
1628,C2,140.0,0.25,115,117.0
1629,A4,140.0,0.25,110,117.0
1630,C#4,140.0,221/500,86,117.0
1631,F4,140.0,221/500,86,117.0
1632,C#1,140.017,277/250,115,117.0
1633,A4,140.25,0.25,100,117.0
1634,E-3,140.5,0.25,86,117.0
1635,A4,140.5,0.25,100,117.0
1636,G#3,140.508,127/250,98,117.0
1637,B3,140.508,127/250,98,117.0
1638,A4,140.75,0.25,105,117.0
1639,C#4,141.0,183/1000,83,117.0
1640,C#3,141.0,117/1000,80,117.0
1641,E-3,141.0,0.25,80,117.0
1642,E2,141.0,0.25,105,117.0
1643,A4,141.0,0.25,110,117.0
1644,B-4,141.0,229/500,92,117.0
1645,E-5,141.0,229/500,92,117.0
1646,C#5,141.0,229/500,92,117.0
1647,B-3,141.033,9/40,96,117.0
1648,A4,141.25,0.25,96,117.0
1649,G#2,141.5,1483/1000,92,117.0
1650,G#4,141.5,13/20,110,117.0
1651,E-3,141.5,0.25,80,117.0
1652,C2,141.5,0.25,110,117.0
1653,A4,141.5,0.25,96,117.0
1654,G#5,141.5,667/1000,104,117.0
1655,C#5,141.5,667/1000,104,117.0
1656,F6,141.5,667/1000,104,117.0
1657,F5,141.5,667/1000,104,117.0
1658,F3,141.5,27/40,110,117.0
1659,C#4,141.5,27/40,110,117.0
1660,G#1,141.525,49/40,115,117.0
1661,A4,141.75,0.25,96,117.0
1662,E-3,142.0,117/1000,92,117.0
1663,A4,142.0,0.25,110,117.0
1664,E-4,142.033,833/1000,102,117.0
1665,B3,142.033,833/1000,102,117.0
1666,A4,142.25,0.25,92,117.0
1667,E-3,142.5,0.25,89,117.0
1668,C2,142.5,0.25,115,117.0
1669,A4,142.5,0.25,92,117.0
1670,A4,142.75,0.25,100,117.0
1671,C#4,142.967,417/1000,89,117.0
1672,B-3,142.967,417/1000,89,117.0
1673,B2,143.0,0.5,80,117.0
1674,E-3,143.0,0.25,92,117.0
1675,E2,143.0,0.25,105,117.0
1676,A4,143.0,0.25,110,117.0
1677,B1,143.025,517/1000,92,117.0
1678,A4,143.25,0.25,92,117.0
1679,G#3,143.492,1/5,92,117.0
1680,B3,143.492,1/5,92,117.0
1681,C#3,143.5,1/10,58,117.0
1682,E-3,143.5,0.25,86,117.0
1683,C2,143.5,0.25,110,117.0
1684,A4,143.5,0.25,92,117.0
1685,C#2,143.55,367/1000,89,117.0
1686,A4,143.75,0.25,96,117.0
1687,C#2,144.0,521/500,75,117.0
1688,E-3,144.0,0.25,92,117.0
1689,C2,144.0,0.25,110,117.0
1690,A4,144.0,0.25,110,117.0
1691,C#4,144.0,19/40,82,117.0
1692,F4,144.0,19/40,82,117.0
1693,C#1,144.05,529/500,110,117.0
1694,A4,144.25,0.25,105,117.0
1695,E-3,144.5,0.25,89,117.0
1696,A4,144.5,0.25,89,117.0
1697,G#3,144.5,221/500,92,117.0
1698,B3,144.5,221/500,92,117.0
1699,A4,144.75,0.25,100,117.0
1700,C#4,144.992,3/10,86,117.0
1701,B-3,144.992,3/10,86,117.0
1702,C#3,145.0,117/1000,71,117.0
1703,E-3,145.0,0.25,96,117.0
1704,E2,145.0,0.25,80,117.0
1705,A4,145.0,0.25,110,117.0
1706,C#5,145.0,19/40,94,117.0
1707,B-4,145.0,19/40,94,117.0
1708,E-5,145.0,19/40,94,117.0
1709,A4,145.25,0.25,105,117.0
1710,G#2,145.5,1533/1000,92,117.0
1711,F3,145.5,101/125,115,117.0
1712,E-3,145.5,0.25,83,117.0
1713,C2,145.5,0.25,115,117.0
1714,A4,145.5,0.25,92,117.0
1715,F5,145.5,583/1000,106,117.0
1716,F6,145.5,583/1000,106,117.0
1717,G#5,145.5,583/1000,106,117.0
1718,C#5,145.5,583/1000,106,117.0
1719,C#4,145.5,13/20,105,117.0
1720,G#4,145.5,13/20,105,117.0
1721,G#1,145.533,1.25,105,117.0
1722,A4,145.75,0.25,96,117.0
1723,E-3,146.0,0.25,92,117.0
1724,A4,146.0,0.25,110,117.0
1725,E-4,146.017,1.0,100,117.0
1726,B3,146.033,867/1000,92,117.0
1727,A4,146.25,0.25,105,117.0
1728,E-3,146.5,0.25,86,117.0
1729,C2,146.5,0.25,105,117.0
1730,A4,146.5,0.25,100,117.0
1731,A4,146.75,0.25,100,117.0
1732,B1,146.967,9/20,96,117.0
1733,C#4,146.992,417/1000,94,117.0
1734,B-3,146.992,417/1000,94,117.0
1735,B2,147.0,0.5,77,117.0
1736,E-3,147.0,0.25,83,117.0
1737,E2,147.0,0.25,110,117.0
1738,A4,147.0,0.25,115,117.0
1739,A4,147.25,0.25,96,117.0
1740,C#2,147.492,9/40,83,117.0
1741,C#3,147.5,23/250,65,117.0
1742,E-3,147.5,0.25,86,117.0
1743,C2,147.5,0.25,105,117.0
1744,A4,147.5,0.25,86,117.0
1745,B3,147.517,73/250,91,117.0
1746,G#3,147.517,73/250,91,117.0
1747,A4,147.75,0.25,100,117.0
1748,C#2,148.0,21/20,73,117.0
1749,C#1,148.0,571/500,105,117.0
1750,E-3,148.0,0.25,86,117.0
1751,C2,148.0,0.25,110,117.0
1752,A4,148.0,0.25,110,117.0
1753,A4,148.25,0.25,96,117.0
1754,B3,148.483,171/500,96,117.0
1755,G#3,148.483,171/500,96,117.0
1756,E-3,148.5,0.25,86,117.0
1757,A4,148.5,0.25,96,117.0
1758,A4,148.75,0.25,96,117.0
1759,C#4,148.958,11/40,83,117.0
1760,B-3,148.958,11/40,83,117.0
1761,C#3,149.0,133/1000,73,117.0
1762,E-3,149.0,0.25,80,117.0
1763,E2,149.0,0.25,80,117.0
1764,A4,149.0,0.25,110,117.0
1765,A4,149.25,0.25,105,117.0
1766,G#1,149.492,27/20,100,117.0
1767,G#2,149.5,31/20,86,117.0
1768,E-3,149.5,0.25,80,117.0
1769,C2,149.5,0.25,115,117.0
1770,A4,149.5,0.25,96,117.0
1771,A4,149.75,0.25,100,117.0
1772,E-3,150.0,117/1000,92,117.0
1773,A4,150.0,0.25,110,117.0
1774,E-4,150.017,37/40,96,117.0
1775,B3,150.017,37/40,96,117.0
1776,A4,150.25,0.25,100,117.0
1777,E-3,150.5,0.25,89,117.0
1778,C2,150.5,0.25,110,117.0
1779,A4,150.5,0.25,100,117.0
1780,A4,150.75,0.25,100,117.0
1781,B1,150.942,221/500,89,117.0
1782,C#4,150.983,383/1000,89,117.0
1783,B-3,150.983,383/1000,89,117.0
1784,B2,151.0,483/1000,75,117.0
1785,E-3,151.0,0.25,92,117.0
1786,E2,151.0,0.25,110,117.0
1787,A4,151.0,0.25,115,117.0
1788,A4,151.25,0.25,110,117.0
1789,C#2,151.458,367/1000,89,117.0
1790,G#3,151.467,77/250,98,117.0
1791,B3,151.467,77/250,98,117.0
1792,C#3,151.5,0.125,64,117.0
1793,E-3,151.5,0.25,86,117.0
1794,C2,151.5,0.25,105,117.0
1795,A4,151.5,0.25,110,117.0
1796,A4,151.75,0.25,105,117.0
1797,F2,152.0,967/1000,80,117.0
1798,F1,152.0,479/500,100,117.0
1799,E-3,152.0,0.25,96,117.0
1800,C2,152.0,0.5,115,117.0
1801,A4,152.0,0.25,110,117.0
1802,A4,152.25,0.25,92,117.0
1803,E-3,152.5,0.25,89,117.0
1804,A4,152.5,0.25,92,117.0
1805,C4,152.5,9/20,76,117.0
1806,G#3,152.5,9/20,76,117.0
1807,A4,152.75,0.25,100,117.0
1808,F3,153.0,71/500,83,117.0
1809,E-3,153.0,0.25,96,117.0
1810,E2,153.0,0.25,105,117.0
1811,A4,153.0,0.25,105,117.0
1812,D4,153.0,26/125,71,117.0
1813,B-3,153.0,26/125,71,117.0
1814,A4,153.25,0.25,100,117.0
1815,C3,153.5,1517/1000,83,117.0
1816,E-3,153.5,0.25,83,117.0
1817,C2,153.5,0.5,110,117.0
1818,A4,153.5,0.25,100,117.0
1819,C1,153.517,323/250,115,117.0
1820,A4,153.75,0.25,96,117.0
1821,E-4,154.0,126/125,77,117.0
1822,C4,154.0,917/1000,63,117.0
1823,E-3,154.0,0.25,83,117.0
1824,A4,154.0,0.25,110,117.0
1825,A4,154.25,0.25,100,117.0
1826,E-3,154.5,0.25,86,117.0
1827,C2,154.5,0.5,115,117.0
1828,A4,154.5,0.25,110,117.0
1829,A4,154.75,0.25,100,117.0
1830,E-3,155.0,467/1000,92,117.0
1831,E-3,155.0,0.25,92,117.0
1832,E2,155.0,0.25,110,117.0
1833,A4,155.0,0.25,110,117.0
1834,B-3,155.0,19/40,64,117.0
1835,D4,155.0,19/40,64,117.0
1836,E-1,155.017,49/125,105,117.0
1837,A4,155.25,0.25,92,117.0
1838,G#3,155.5,129/500,71,117.0
1839,C4,155.5,7/20,80,117.0
1840,F3,155.5,117/1000,75,117.0
1841,E-3,155.5,0.25,86,117.0
1842,C2,155.5,0.25,110,117.0
1843,A4,155.5,0.25,105,117.0
1844,F1,155.517,171/500,86,117.0
1845,A4,155.75,0.25,100,117.0
1846,F2,156.0,521/500,83,117.0
1847,E-3,156.0,0.25,92,117.0
1848,C2,156.0,0.25,115,117.0
1849,A4,156.0,0.25,110,117.0
1850,F1,156.042,21/20,89,117.0
1851,A4,156.25,0.25,100,117.0
1852,E-3,156.5,0.25,89,117.0
1853,A4,156.5,0.25,100,117.0
1854,C4,156.5,467/1000,64,117.0
1855,G#3,156.5,467/1000,64,117.0
1856,A4,156.75,0.25,105,117.0
1857,F3,157.0,0.125,75,117.0
1858,E-3,157.0,0.25,96,117.0
1859,E2,157.0,0.25,110,117.0
1860,A4,157.0,0.25,110,117.0
1861,D4,157.0,129/500,58,117.0
1862,B-3,157.0,129/500,58,117.0
1863,A4,157.25,0.25,96,117.0
1864,C1,157.475,57/40,115,117.0
1865,C3,157.5,1433/1000,83,117.0
1866,E-3,157.5,0.25,83,117.0
1867,C2,157.5,0.25,110,117.0
1868,A4,157.5,0.25,96,117.0
1869,A4,157.75,0.25,96,117.0
1870,E-4,158.0,983/1000,73,117.0
1871,C4,158.0,223/250,60,117.0
1872,E-3,158.0,0.25,92,117.0
1873,A4,158.0,0.25,110,117.0
1874,A4,158.25,0.25,92,117.0
1875,E-3,158.5,0.25,86,117.0
1876,C2,158.5,0.25,115,117.0
1877,A4,158.5,0.25,92,117.0
1878,A4,158.75,0.25,100,117.0
1879,E-3,159.0,0.5,89,117.0
1880,E-3,159.0,0.25,83,117.0
1881,E2,159.0,0.25,110,117.0
1882,A4,159.0,0.25,110,117.0
1883,D4,159.0,19/40,62,117.0
1884,B-3,159.0,19/40,62,117.0
1885,E-1,159.025,383/1000,105,117.0
1886,A4,159.25,0.25,92,117.0
1887,F3,159.5,133/1000,67,117.0
1888,E-3,159.5,0.25,86,117.0
1889,C2,159.5,0.25,110,117.0
1890,A4,159.5,0.25,92,117.0
1891,C4,159.5,7/20,57,117.0
1892,G#3,159.5,7/20,57,117.0
1893,F1,159.517,129/500,89,117.0
1894,A4,159.75,0.25,96,117.0
1895,F2,160.0,41/40,77,117.0
1896,E-3,160.0,0.25,86,117.0
1897,C2,160.0,0.25,110,117.0
1898,A4,160.0,0.25,110,117.0
1899,F1,160.058,47/40,96,117.0
1900,A4,160.25,0.25,105,117.0
1901,E-3,160.5,0.25,86,117.0
1902,A4,160.5,0.25,89,117.0
1903,C4,160.5,19/40,72,117.0
1904,G#3,160.5,19/40,72,117.0
1905,A4,160.75,0.25,100,117.0
1906,F3,161.0,117/1000,73,117.0
1907,E-3,161.0,0.25,80,117.0
1908,E2,161.0,0.25,100,117.0
1909,A4,161.0,0.25,110,117.0
1910,D4,161.0,3/10,62,117.0
1911,B-3,161.0,3/10,62,117.0
1912,A4,161.25,0.25,105,117.0
1913,C3,161.5,721/500,86,117.0
1914,E-3,161.5,0.25,80,117.0
1915,C2,161.5,0.25,115,117.0
1916,A4,161.5,0.25,92,117.0
1917,C1,161.542,327/250,110,117.0
1918,A4,161.75,0.25,96,117.0
1919,E-3,162.0,117/1000,92,117.0
1920,A4,162.0,0.25,110,117.0
1921,E-4,162.0,917/1000,70,117.0
1922,C4,162.0,917/1000,70,117.0
1923,A4,162.25,0.25,105,117.0
1924,E-3,162.5,0.25,89,117.0
1925,C2,162.5,0.25,105,117.0
1926,A4,162.5,0.25,100,117.0
1927,A4,162.75,0.25,100,117.0
1928,E-3,163.0,19/40,89,117.0
1929,E-3,163.0,0.25,92,117.0
1930,E2,163.0,0.25,105,117.0
1931,A4,163.0,0.25,115,117.0
1932,D4,163.0,517/1000,68,117.0
1933,B-3,163.0,517/1000,68,117.0
1934,E-1,163.033,417/1000,100,117.0
1935,A4,163.25,0.25,96,117.0
1936,F3,163.5,0.125,73,117.0
1937,E-3,163.5,0.25,86,117.0
1938,C2,163.5,0.25,105,117.0
1939,A4,163.5,0.25,86,117.0
1940,G#3,163.5,417/1000,66,117.0
1941,C4,163.5,417/1000,66,117.0
1942,F1,163.533,121/500,80,117.0
1943,A4,163.75,0.25,100,117.0
1944,F2,164.0,479/500,86,117.0
1945,E-3,164.0,0.25,96,117.0
1946,C2,164.0,0.25,110,117.0
1947,A4,164.0,0.25,110,117.0
1948,F1,164.033,1133/1000,92,117.0
1949,A4,164.25,0.25,96,117.0
1950,E-3,164.5,0.25,89,117.0
1951,A4,164.5,0.25,96,117.0
1952,C4,164.5,467/1000,69,117.0
1953,G#3,164.5,467/1000,69,117.0
1954,A4,164.75,0.25,96,117.0
1955,F3,165.0,27/250,89,117.0
1956,E-3,165.0,0.25,96,117.0
1957,E2,165.0,0.25,100,117.0
1958,A4,165.0,0.25,110,117.0
1959,D4,165.0,0.25,69,117.0
1960,B-3,165.0,0.25,69,117.0
1961,A4,165.25,0.25,105,117.0
1962,C3,165.5,199/125,89,117.0
1963,E-3,165.5,0.25,83,117.0
1964,C2,165.5,0.25,115,117.0
1965,A4,165.5,0.25,96,117.0
1966,C1,165.508,1317/1000,105,117.0
1967,A4,165.75,0.25,100,117.0
1968,E-3,166.0,0.25,83,117.0
1969,A4,166.0,0.25,110,117.0
1970,E-4,166.0,933/1000,70,117.0
1971,C4,166.0,933/1000,70,117.0
1972,A4,166.25,0.25,100,117.0
1973,E-3,166.5,0.25,86,117.0
1974,C2,166.5,0.25,110,117.0
1975,A4,166.5,0.25,100,117.0
1976,A4,166.75,0.25,100,117.0
1977,E-3,167.0,0.5,100,117.0
1978,E-3,167.0,0.25,92,117.0
1979,E2,167.0,0.25,105,117.0
1980,A4,167.0,0.25,115,117.0
1981,D4,167.0,0.5,69,117.0
1982,B-3,167.0,0.5,69,117.0
1983,E-1,167.017,433/1000,96,117.0
1984,A4,167.25,0.25,110,117.0
1985,F3,167.5,7/40,80,117.0
1986,E-3,167.5,0.25,86,117.0
1987,C2,167.5,0.25,105,117.0
1988,A4,167.5,0.25,110,117.0
1989,C4,167.5,383/1000,63,117.0
1990,G#3,167.5,383/1000,63,117.0
1991,F1,167.517,267/1000,83,117.0
1992,A4,167.75,0.25,105,117.0
1993,F2,168.0,967/1000,80,117.0
1994,F1,168.0,479/500,100,117.0
1995,E-3,168.0,0.25,96,117.0
1996,C2,168.0,0.5,115,117.0
1997,A4,168.0,0.25,110,117.0
1998,A4,168.25,0.25,92,117.0
1999,E-3,168.5,0.25,89,117.0
2000,A4,168.5,0.25,92,117.0
2001,C4,168.5,9/20,76,117.0
2002,G#3,168.5,9/20,76,117.0
2003,A4,168.75,0.25,100,117.0
2004,F3,169.0,71/500,83,117.0
2005,E-3,169.0,0.25,96,117.0
2006,E2,169.0,0.25,105,117.0
2007,A4,169.0,0.25,105,117.0
2008,D4,169.0,26/125,71,117.0
2009,B-3,169.0,26/125,71,117.0
2010,A4,169.25,0.25,100,117.0
2011,C3,169.5,1517/1000,83,117.0
2012,E-3,169.5,0.25,83,117.0
2013,C2,169.5,0.5,110,117.0
2014,A4,169.5,0.25,100,117.0
2015,C1,169.517,323/250,115,117.0
2016,A4,169.75,0.25,96,117.0
2017,E-4,170.0,126/125,77,117.0
2018,C4,170.0,917/1000,63,117.0
2019,E-3,170.0,0.25,83,117.0
2020,A4,170.0,0.25,110,117.0
2021,A4,170.25,0.25,100,117.0
2022,E-3,170.5,0.25,86,117.0
2023,C2,170.5,0.5,115,117.0
2024,A4,170.5,0.25,110,117.0
2025,A4,170.75,0.25,100,117.0
2026,E-3,171.0,467/1000,92,117.0
2027,E-3,171.0,0.25,92,117.0
2028,E2,171.0,0.25,110,117.0
2029,A4,171.0,0.25,110,117.0
2030,B-3,171.0,19/40,64,117.0
2031,D4,171.0,19/40,64,117.0
2032,E-1,171.017,49/125,105,117.0
2033,A4,171.25,0.25,92,117.0
2034,G#3,171.5,129/500,71,117.0
2035,C4,171.5,7/20,80,117.0
2036,F3,171.5,117/1000,75,117.0
2037,E-3,171.5,0.25,86,117.0
2038,C2,171.5,0.25,110,117.0
2039,A4,171.5,0.25,105,117.0
2040,F1,171.517,171/500,86,117.0
2041,A4,171.75,0.25,100,117.0
2042,F2,172.0,521/500,83,117.0
2043,E-3,172.0,0.25,92,117.0
2044,C2,172.0,0.25,115,117.0
2045,A4,172.0,0.25,110,117.0
2046,F1,172.042,21/20,89,117.0
2047,A4,172.25,0.25,100,117.0
2048,E-3,172.5,0.25,89,117.0
2049,A4,172.5,0.25,100,117.0
2050,C4,172.5,467/1000,64,117.0
2051,G#3,172.5,467/1000,64,117.0
2052,A4,172.75,0.25,105,117.0
2053,F3,173.0,0.125,75,117.0
2054,E-3,173.0,0.25,96,117.0
2055,E2,173.0,0.25,110,117.0
2056,A4,173.0,0.25,110,117.0
2057,D4,173.0,129/500,58,117.0
2058,B-3,173.0,129/500,58,117.0
2059,A4,173.25,0.25,96,117.0
2060,C1,173.475,57/40,115,117.0
2061,C3,173.5,1433/1000,83,117.0
2062,E-3,173.5,0.25,83,117.0
2063,C2,173.5,0.25,110,117.0
2064,A4,173.5,0.25,96,117.0
2065,A4,173.75,0.25,96,117.0
2066,E-4,174.0,983/1000,73,117.0
2067,C4,174.0,223/250,60,117.0
2068,E-3,174.0,0.25,92,117.0
2069,A4,174.0,0.25,110,117.0
2070,A4,174.25,0.25,92,117.0
2071,E-3,174.5,0.25,86,117.0
2072,C2,174.5,0.25,115,117.0
2073,A4,174.5,0.25,92,117.0
2074,A4,174.75,0.25,100,117.0
2075,E-3,175.0,0.5,89,117.0
2076,E-3,175.0,0.25,83,117.0
2077,E2,175.0,0.25,110,117.0
2078,A4,175.0,0.25,110,117.0
2079,D4,175.0,19/40,62,117.0
2080,B-3,175.0,19/40,62,117.0
2081,E-1,175.025,383/1000,105,117.0
2082,A4,175.25,0.25,92,117.0
2083,F3,175.5,133/1000,67,117.0
2084,E-3,175.5,0.25,86,117.0
2085,C2,175.5,0.25,110,117.0
2086,A4,175.5,0.25,92,117.0
2087,C4,175.5,7/20,57,117.0
2088,G#3,175.5,7/20,57,117.0
2089,F1,175.517,129/500,89,117.0
2090,A4,175.75,0.25,96,117.0
2091,F2,176.0,41/40,77,117.0
2092,E-3,176.0,0.25,86,117.0
2093,C2,176.0,0.25,110,117.0
2094,A4,176.0,0.25,110,117.0
2095,F1,176.058,47/40,96,117.0
2096,A4,176.25,0.25,105,117.0
2097,E-3,176.5,0.25,86,117.0
2098,A4,176.5,0.25,89,117.0
2099,C4,176.5,19/40,72,117.0
2100,G#3,176.5,19/40,72,117.0
2101,A4,176.75,0.25,100,117.0
2102,F3,177.0,117/1000,73,117.0
2103,E-3,177.0,0.25,80,117.0
2104,E2,177.0,0.25,100,117.0
2105,A4,177.0,0.25,110,117.0
2106,D4,177.0,3/10,62,117.0
2107,B-3,177.0,3/10,62,117.0
2108,A4,177.25,0.25,105,117.0
2109,C3,177.5,721/500,86,117.0
2110,E-3,177.5,0.25,80,117.0
2111,C2,177.5,0.25,115,117.0
2112,A4,177.5,0.25,92,117.0
2113,C1,177.542,327/250,110,117.0
2114,A4,177.75,0.25,96,117.0
2115,E-3,178.0,117/1000,92,117.0
2116,A4,178.0,0.25,110,117.0
2117,E-4,178.0,917/1000,70,117.0
2118,C4,178.0,917/1000,70,117.0
2119,A4,178.25,0.25,105,117.0
2120,E-3,178.5,0.25,89,117.0
2121,C2,178.5,0.25,105,117.0
2122,A4,178.5,0.25,100,117.0
2123,A4,178.75,0.25,100,117.0
2124,E-3,179.0,19/40,89,117.0
2125,E-3,179.0,0.25,92,117.0
2126,E2,179.0,0.25,105,117.0
2127,A4,179.0,0.25,115,117.0
2128,D4,179.0,517/1000,68,117.0
2129,B-3,179.0,517/1000,68,117.0
2130,E-1,179.033,417/1000,100,117.0
2131,A4,179.25,0.25,96,117.0
2132,F3,179.5,0.125,73,117.0
2133,E-3,179.5,0.25,86,117.0
2134,C2,179.5,0.25,105,117.0
2135,A4,179.5,0.25,86,117.0
2136,G#3,179.5,417/1000,66,117.0
2137,C4,179.5,417/1000,66,117.0
2138,F1,179.533,121/500,80,117.0
2139,A4,179.75,0.25,100,117.0
2140,E-3,180.0,0.25,96,117.0
2141,C2,180.0,0.25,110,117.0
2142,A4,180.0,0.25,110,117.0
2143,A4,180.25,0.25,96,117.0
2144,E-3,180.5,0.25,89,117.0
2145,A4,180.5,0.25,96,117.0
2146,A4,180.75,0.25,96,117.0
2147,E-3,181.0,0.25,96,117.0
2148,E2,181.0,0.25,100,117.0
2149,A4,181.0,0.25,110,117.0
2150,A4,181.25,0.25,105,117.0
2151,E-3,181.5,0.25,83,117.0
2152,C2,181.5,0.25,115,117.0
2153,A4,181.5,0.25,96,117.0
2154,A4,181.75,0.25,100,117.0
2155,E-3,182.0,0.25,83,117.0
2156,A4,182.0,0.25,110,117.0
2157,A4,182.25,0.25,100,117.0
2158,E-3,182.5,0.25,86,117.0
2159,C2,182.5,0.25,110,117.0
2160,A4,182.5,0.25,100,117.0
2161,A4,182.75,0.25,100,117.0
2162,E-3,183.0,0.25,92,117.0
2163,E2,183.0,0.25,105,117.0
2164,A4,183.0,0.25,115,117.0
2165,A4,183.25,0.25,110,117.0
2166,E-3,183.5,0.25,86,117.0
2167,C2,183.5,0.25,105,117.0
2168,A4,183.5,0.25,110,117.0
2169,A4,183.75,0.25,105,117.0
2170,F2,184.0,967/1000,80,117.0
2171,F2,184.0,277/250,92,117.0
2172,F1,184.0,479/500,100,117.0
2173,C2,184.0,0.5,115,117.0
2174,C#4,184.5,71/500,89,117.0
2175,F3,185.0,71/500,83,117.0
2176,E2,185.0,0.25,105,117.0
2177,C#4,185.0,217/1000,92,117.0
2178,C3,185.5,1517/1000,83,117.0
2179,C2,185.5,149/125,96,117.0
2180,C2,185.5,0.5,110,117.0
2181,C1,185.517,323/250,115,117.0
2182,E-4,185.75,133/1000,96,117.0
2183,E-4,186.25,3/40,92,117.0
2184,C2,186.5,0.5,115,117.0
2185,E-4,186.5,0.125,96,117.0
2186,E-3,187.0,467/1000,92,117.0
2187,E-2,187.0,49/125,105,117.0
2188,E2,187.0,0.25,110,117.0
2189,E-1,187.017,49/125,105,117.0
2190,F2,187.5,217/1000,89,117.0
2191,F3,187.5,117/1000,75,117.0
2192,C2,187.5,0.25,110,117.0
2193,F1,187.517,171/500,86,117.0
2194,F2,188.0,521/500,83,117.0
2195,F2,188.0,277/250,100,117.0
2196,C2,188.0,0.25,115,117.0
2197,F1,188.042,21/20,89,117.0
2198,C#4,188.5,79/500,96,117.0
2199,F3,189.0,0.125,75,117.0
2200,E2,189.0,0.25,110,117.0
2201,C#4,189.0,1/10,80,117.0
2202,C3,189.0,76/125,89,117.0
2203,C4,189.0,76/125,89,117.0
2204,C3,189.0,27/40,100,117.0
2205,C4,189.0,27/40,100,117.0
2206,C#4,189.25,3/20,61,117.0
2207,C1,189.475,57/40,115,117.0
2208,C3,189.5,1433/1000,83,117.0
2209,C2,189.5,579/500,100,117.0
2210,C2,189.5,0.25,110,117.0
2211,E-3,189.667,73/250,84,117.0
2212,E-4,189.667,73/250,84,117.0
2213,E-3,189.667,171/500,94,117.0
2214,E-4,189.667,171/500,94,117.0
2215,C#4,189.75,79/500,100,117.0
2216,F3,190.0,279/500,105,117.0
2217,F4,190.0,0.625,92,117.0
2218,F4,190.0,21/40,100,117.0
2219,F3,190.0,21/40,100,117.0
2220,C2,190.5,0.25,115,117.0
2221,E-4,190.667,171/500,105,117.0
2222,E-3,190.667,0.25,96,117.0
2223,E-3,190.667,171/500,105,117.0
2224,E-4,190.667,171/500,105,117.0
2225,E2,191.0,0.25,110,117.0
2226,E-3,191.0,221/500,94,117.0
2227,E-2,191.0,221/500,94,117.0
2228,C3,191.0,19/40,97,117.0
2229,C4,191.0,19/40,97,117.0
2230,C4,191.0,49/125,102,117.0
2231,C3,191.0,49/125,102,117.0
2232,E-4,191.0,71/500,98,117.0
2233,E-4,191.0,71/500,98,117.0
2234,E-1,191.025,383/1000,105,117.0
2235,C2,191.5,0.25,110,117.0
2236,E-4,191.5,7/40,100,117.0
2237,F3,191.5,7/40,69,117.0
2238,F2,191.5,7/40,69,117.0
2239,F1,191.517,129/500,89,117.0
2240,F2,192.0,967/1000,80,117.0
2241,F2,192.0,277/250,92,117.0
2242,F1,192.0,479/500,100,117.0
2243,C2,192.0,0.5,115,117.0
2244,C#4,192.5,3/20,100,117.0
2245,F3,193.0,71/500,83,117.0
2246,E2,193.0,0.25,105,117.0
2247,C#4,193.0,167/1000,92,117.0
2248,C3,193.5,1517/1000,83,117.0
2249,C2,193.5,149/125,96,117.0
2250,C2,193.5,0.5,110,117.0
2251,C1,193.517,323/250,115,117.0
2252,C2,194.5,0.5,115,117.0
2253,E-3,195.0,467/1000,92,117.0
2254,E-2,195.0,49/125,105,117.0
2255,E2,195.0,0.25,110,117.0
2256,E-4,195.0,1/10,100,117.0
2257,E-1,195.017,49/125,105,117.0
2258,F2,195.5,217/1000,89,117.0
2259,F3,195.5,117/1000,75,117.0
2260,C2,195.5,0.25,110,117.0
2261,E-4,195.5,27/250,96,117.0
2262,F1,195.517,171/500,86,117.0
2263,F2,196.0,521/500,83,117.0
2264,F2,196.0,277/250,100,117.0
2265,C2,196.0,0.25,115,117.0
2266,F1,196.042,21/20,89,117.0
2267,C#4,196.5,27/250,86,117.0
2268,F3,197.0,0.125,75,117.0
2269,E2,197.0,0.25,110,117.0
2270,C#4,197.0,117/1000,89,117.0
2271,F4,197.0,23/40,94,117.0
2272,F3,197.0,23/40,94,117.0
2273,F3,197.0,633/1000,96,117.0
2274,F4,197.0,633/1000,96,117.0
2275,C#4,197.25,79/500,89,117.0
2276,C1,197.475,57/40,115,117.0
2277,C3,197.5,1433/1000,83,117.0
2278,C2,197.5,579/500,100,117.0
2279,C2,197.5,0.25,110,117.0
2280,G#3,197.667,333/1000,98,117.0
2281,G#4,197.667,333/1000,98,117.0
2282,G#3,197.667,77/250,90,117.0
2283,G#4,197.667,77/250,90,117.0
2284,C#4,197.75,167/1000,92,117.0
2285,B-3,198.0,617/1000,96,117.0
2286,B-4,198.0,617/1000,96,117.0
2287,B-3,198.0,0.625,94,117.0
2288,B-4,198.0,0.625,94,117.0
2289,C2,198.5,0.25,115,117.0
2290,G#4,198.667,7/20,105,117.0
2291,G#3,198.667,121/500,105,117.0
2292,G#4,198.667,73/250,86,117.0
2293,G#3,198.667,73/250,86,117.0
2294,E-4,198.75,117/1000,100,117.0
2295,E2,199.0,0.25,110,117.0
2296,E-4,199.0,133/1000,100,117.0
2297,E-3,199.0,221/500,94,117.0
2298,E-2,199.0,221/500,94,117.0
2299,F3,199.0,21/40,105,117.0
2300,F4,199.0,21/40,105,117.0
2301,F3,199.0,0.5,94,117.0
2302,F4,199.0,0.5,94,117.0
2303,E-1,199.025,383/1000,105,117.0
2304,C2,199.5,0.25,110,117.0
2305,E-4,199.5,79/500,105,117.0
2306,F3,199.5,7/40,69,117.0
2307,F2,199.5,7/40,69,117.0
2308,F1,199.517,129/500,89,117.0
2309,F2,200.0,967/1000,80,117.0
2310,F2,200.0,277/250,92,117.0
2311,F1,200.0,479/500,100,117.0
2312,C2,200.0,0.5,115,117.0
2313,A4,200.0,0.25,110,117.0
2314,A4,200.25,0.25,100,117.0
2315,A4,200.5,0.25,100,117.0
2316,C#4,200.5,71/500,89,117.0
2317,A4,200.75,0.25,105,117.0
2318,F3,201.0,71/500,83,117.0
2319,E2,201.0,0.25,105,117.0
2320,A4,201.0,0.25,110,117.0
2321,C#4,201.0,217/1000,92,117.0
2322,A4,201.25,0.25,96,117.0
2323,C3,201.5,1517/1000,83,117.0
2324,C2,201.5,149/125,96,117.0
2325,C2,201.5,0.5,110,117.0
2326,A4,201.5,0.25,96,117.0
2327,C1,201.517,323/250,115,117.0
2328,A4,201.75,0.25,96,117.0
2329,E-4,201.75,133/1000,96,117.0
2330,A4,202.0,0.25,110,117.0
2331,A4,202.25,0.25,92,117.0
2332,E-4,202.25,3/40,92,117.0
2333,C2,202.5,0.5,115,117.0
2334,A4,202.5,0.25,92,117.0
2335,E-4,202.5,0.125,96,117.0
2336,A4,202.75,0.25,100,117.0
2337,E-3,203.0,467/1000,92,117.0
2338,E-2,203.0,49/125,105,117.0
2339,E2,203.0,0.25,110,117.0
2340,A4,203.0,0.25,110,117.0
2341,E-1,203.017,49/125,105,117.0
2342,A4,203.25,0.25,92,117.0
2343,F2,203.5,217/1000,89,117.0
2344,F3,203.5,117/1000,75,117.0
2345,C2,203.5,0.25,110,117.0
2346,A4,203.5,0.25,92,117.0
2347,F1,203.517,171/500,86,117.0
2348,A4,203.75,0.25,96,117.0
2349,F2,204.0,521/500,83,117.0
2350,F2,204.0,277/250,100,117.0
2351,C2,204.0,0.25,115,117.0
2352,A4,204.0,0.25,110,117.0
2353,F1,204.042,21/20,89,117.0
2354,A4,204.25,0.25,105,117.0
2355,A4,204.5,0.25,89,117.0
2356,C#4,204.5,79/500,96,117.0
2357,A4,204.75,0.25,100,117.0
2358,F3,205.0,0.125,75,117.0
2359,C3,205.0,76/125,96,117.0
2360,C4,205.0,173/250,100,117.0
2361,E2,205.0,0.25,110,117.0
2362,A4,205.0,0.25,110,117.0
2363,C#4,205.0,1/10,80,117.0
2364,C4,205.0,0.625,100,117.0
2365,C3,205.0,0.625,100,117.0
2366,A4,205.25,0.25,105,117.0
2367,C#4,205.25,3/20,61,117.0
2368,C1,205.475,57/40,115,117.0
2369,C3,205.5,1433/1000,83,117.0
2370,C2,205.5,579/500,100,117.0
2371,C2,205.5,0.25,110,117.0
2372,A4,205.5,0.25,92,117.0
2373,E-4,205.667,11/40,98,117.0
2374,E-3,205.667,11/40,98,117.0
2375,E-3,205.667,317/1000,92,117.0
2376,E-4,205.667,317/1000,92,117.0
2377,A4,205.75,0.25,96,117.0
2378,C#4,205.75,79/500,100,117.0
2379,F4,206.0,173/250,100,117.0
2380,F3,206.0,76/125,105,117.0
2381,A4,206.0,0.25,110,117.0
2382,F4,206.0,279/500,96,117.0
2383,F3,206.0,279/500,96,117.0
2384,A4,206.25,0.25,105,117.0
2385,C2,206.5,0.25,115,117.0
2386,A4,206.5,0.25,100,117.0
2387,E-4,206.667,7/20,105,117.0
2388,E-3,206.667,129/500,100,117.0
2389,E-4,206.667,2/5,100,117.0
2390,E-3,206.667,11/40,69,117.0
2391,A4,206.75,0.25,100,117.0
2392,E2,207.0,0.25,110,117.0
2393,A4,207.0,0.25,115,117.0
2394,E-3,207.0,221/500,94,117.0
2395,E-2,207.0,221/500,94,117.0
2396,C4,207.0,17/40,100,117.0
2397,C3,207.0,17/40,100,117.0
2398,C3,207.0,483/1000,108,117.0
2399,C4,207.0,483/1000,108,117.0
2400,E-4,207.0,71/500,98,117.0
2401,E-4,207.0,71/500,98,117.0
2402,E-1,207.025,383/1000,105,117.0
2403,A4,207.25,0.25,96,117.0
2404,C2,207.5,0.25,110,117.0
2405,A4,207.5,0.25,86,117.0
2406,E-4,207.5,7/40,100,117.0
2407,F3,207.5,7/40,69,117.0
2408,F2,207.5,7/40,69,117.0
2409,F1,207.517,129/500,89,117.0
2410,A4,207.75,0.25,100,117.0
2411,F2,208.0,967/1000,80,117.0
2412,F2,208.0,277/250,92,117.0
2413,F1,208.0,479/500,100,117.0
2414,C2,208.0,0.5,115,117.0
2415,A4,208.0,0.25,110,117.0
2416,A4,208.25,0.25,100,117.0
2417,A4,208.5,0.25,100,117.0
2418,C#4,208.5,3/20,100,117.0
2419,A4,208.75,0.25,105,117.0
2420,F3,209.0,71/500,83,117.0
2421,E2,209.0,0.25,105,117.0
2422,A4,209.0,0.25,110,117.0
2423,C#4,209.0,167/1000,92,117.0
2424,A4,209.25,0.25,96,117.0
2425,C3,209.5,1517/1000,83,117.0
2426,C2,209.5,149/125,96,117.0
2427,C2,209.5,0.5,110,117.0
2428,A4,209.5,0.25,96,117.0
2429,C1,209.517,323/250,115,117.0
2430,A4,209.75,0.25,96,117.0
2431,A4,210.0,0.25,110,117.0
2432,A4,210.25,0.25,92,117.0
2433,C2,210.5,0.5,115,117.0
2434,A4,210.5,0.25,92,117.0
2435,A4,210.75,0.25,100,117.0
2436,E-3,211.0,467/1000,92,117.0
2437,E-2,211.0,49/125,105,117.0
2438,E2,211.0,0.25,110,117.0
2439,A4,211.0,0.25,110,117.0
2440,E-4,211.0,1/10,100,117.0
2441,E-1,211.017,49/125,105,117.0
2442,A4,211.25,0.25,92,117.0
2443,F2,211.5,217/1000,89,117.0
2444,F3,211.5,117/1000,75,117.0
2445,C2,211.5,0.25,110,117.0
2446,A4,211.5,0.25,92,117.0
2447,E-4,211.5,27/250,96,117.0
2448,F1,211.517,171/500,86,117.0
2449,A4,211.75,0.25,96,117.0
2450,C4,213.0,583/1000,102,117.0
2451,C6,213.0,583/1000,102,117.0
2452,C5,213.0,583/1000,102,117.0
2453,C4,213.0,76/125,98,117.0
2454,C5,213.0,76/125,98,117.0
2455,E-4,213.667,2/5,67,117.0
2456,E-5,213.667,333/1000,77,117.0
2457,E-4,213.667,283/1000,102,117.0
2458,E-5,213.667,283/1000,102,117.0
2459,E-6,213.667,283/1000,102,117.0
2460,F5,214.0,76/125,92,117.0
2461,F4,214.0,271/500,100,117.0
2462,F5,214.0,617/1000,100,117.0
2463,F4,214.0,617/1000,100,117.0
2464,F6,214.0,617/1000,100,117.0
2465,E-4,214.667,267/1000,100,117.0
2466,E-5,214.667,73/250,110,117.0
2467,E-6,214.667,73/250,110,117.0
2468,E-5,214.667,267/1000,100,117.0
2469,E-4,214.667,267/1000,100,117.0
2470,C6,215.0,0.5,99,117.0
2471,C5,215.0,0.5,99,117.0
2472,C4,215.0,0.5,99,117.0
2473,C4,215.0,467/1000,102,117.0
2474,C5,215.0,467/1000,102,117.0
2475,F2,216.0,967/1000,80,117.0
2476,F1,216.0,479/500,100,117.0
2477,E-3,216.0,0.25,96,117.0
2478,C2,216.0,0.5,115,117.0
2479,A4,216.0,0.25,110,117.0
2480,A4,216.25,0.25,92,117.0
2481,E-3,216.5,0.25,89,117.0
2482,A4,216.5,0.25,92,117.0
2483,C4,216.5,9/20,76,117.0
2484,G#3,216.5,9/20,76,117.0
2485,F4,216.5,3/10,98,117.0
2486,C5,216.5,3/10,98,117.0
2487,A4,216.75,0.25,100,117.0
2488,F3,217.0,71/500,83,117.0
2489,E-3,217.0,0.25,96,117.0
2490,E2,217.0,0.25,105,117.0
2491,A4,217.0,0.25,105,117.0
2492,D4,217.0,26/125,71,117.0
2493,B-3,217.0,26/125,71,117.0
2494,A4,217.25,0.25,100,117.0
2495,F4,217.25,11/40,105,117.0
2496,C5,217.25,11/40,105,117.0
2497,C3,217.5,1517/1000,83,117.0
2498,E-3,217.5,0.25,83,117.0
2499,C2,217.5,0.5,110,117.0
2500,A4,217.5,0.25,100,117.0
2501,C1,217.517,323/250,115,117.0
2502,A4,217.75,0.25,96,117.0
2503,E-4,218.0,126/125,77,117.0
2504,C4,218.0,917/1000,63,117.0
2505,E-3,218.0,0.25,83,117.0
2506,A4,218.0,0.25,110,117.0
2507,C5,218.0,19/40,105,117.0
2508,F4,218.0,19/40,105,117.0
2509,A4,218.25,0.25,100,117.0
2510,E-3,218.5,0.25,86,117.0
2511,C2,218.5,0.5,115,117.0
2512,A4,218.5,0.25,110,117.0
2513,E-5,218.5,221/500,102,117.0
2514,G#4,218.5,221/500,102,117.0
2515,A4,218.75,0.25,100,117.0
2516,E-3,219.0,467/1000,92,117.0
2517,E-3,219.0,0.25,92,117.0
2518,E2,219.0,0.25,110,117.0
2519,A4,219.0,0.25,110,117.0
2520,B-3,219.0,19/40,64,117.0
2521,D4,219.0,19/40,64,117.0
2522,E-1,219.017,49/125,105,117.0
2523,A4,219.25,0.25,92,117.0
2524,G#3,219.5,129/500,71,117.0
2525,C4,219.5,7/20,80,117.0
2526,F3,219.5,117/1000,75,117.0
2527,E-3,219.5,0.25,86,117.0
2528,C2,219.5,0.25,110,117.0
2529,A4,219.5,0.25,105,117.0
2530,F1,219.517,171/500,86,117.0
2531,A4,219.75,0.25,100,117.0
2532,F2,220.0,521/500,83,117.0
2533,E-3,220.0,0.25,92,117.0
2534,C2,220.0,0.25,115,117.0
2535,A4,220.0,0.25,110,117.0
2536,F1,220.042,21/20,89,117.0
2537,A4,220.25,0.25,100,117.0
2538,E-3,220.5,0.25,89,117.0
2539,A4,220.5,0.25,100,117.0
2540,C4,220.5,467/1000,64,117.0
2541,G#3,220.5,467/1000,64,117.0
2542,C4,220.5,77/250,105,117.0
2543,F3,220.5,77/250,105,117.0
2544,A4,220.75,0.25,105,117.0
2545,F3,221.0,0.125,75,117.0
2546,E-3,221.0,0.25,96,117.0
2547,E2,221.0,0.25,110,117.0
2548,A4,221.0,0.25,110,117.0
2549,D4,221.0,129/500,58,117.0
2550,B-3,221.0,129/500,58,117.0
2551,A4,221.25,0.25,96,117.0
2552,F3,221.25,317/1000,102,117.0
2553,C4,221.25,317/1000,102,117.0
2554,C1,221.475,57/40,115,117.0
2555,C3,221.5,1433/1000,83,117.0
2556,E-3,221.5,0.25,83,117.0
2557,C2,221.5,0.25,110,117.0
2558,A4,221.5,0.25,96,117.0
2559,A4,221.75,0.25,96,117.0
2560,E-4,222.0,983/1000,73,117.0
2561,C4,222.0,223/250,60,117.0
2562,C4,222.0,23/40,100,117.0
2563,F3,222.0,123/250,96,117.0
2564,E-3,222.0,0.25,92,117.0
2565,A4,222.0,0.25,110,117.0
2566,A4,222.25,0.25,92,117.0
2567,E-3,222.5,0.25,86,117.0
2568,C2,222.5,0.25,115,117.0
2569,A4,222.5,0.25,92,117.0
2570,E-4,222.5,221/500,98,117.0
2571,G#3,222.5,221/500,98,117.0
2572,A4,222.75,0.25,100,117.0
2573,E-3,223.0,0.5,89,117.0
2574,E-3,223.0,0.25,83,117.0
2575,E2,223.0,0.25,110,117.0
2576,A4,223.0,0.25,110,117.0
2577,D4,223.0,19/40,62,117.0
2578,B-3,223.0,19/40,62,117.0
2579,E-1,223.025,383/1000,105,117.0
2580,A4,223.25,0.25,92,117.0
2581,F3,223.5,133/1000,67,117.0
2582,E-3,223.5,0.25,86,117.0
2583,C2,223.5,0.25,110,117.0
2584,A4,223.5,0.25,92,117.0
2585,C4,223.5,7/20,57,117.0
2586,G#3,223.5,7/20,57,117.0
2587,F1,223.517,129/500,89,117.0
2588,A4,223.75,0.25,96,117.0
2589,F2,224.0,41/40,77,117.0
2590,E-3,224.0,0.25,86,117.0
2591,C2,224.0,0.25,110,117.0
2592,A4,224.0,0.25,110,117.0
2593,F1,224.058,47/40,96,117.0
2594,A4,224.25,0.25,105,117.0
2595,E-3,224.5,0.25,86,117.0
2596,A4,224.5,0.25,89,117.0
2597,C4,224.5,19/40,72,117.0
2598,G#3,224.5,19/40,72,117.0
2599,F4,224.5,77/250,98,117.0
2600,C5,224.5,77/250,98,117.0
2601,A4,224.75,0.25,100,117.0
2602,F3,225.0,117/1000,73,117.0
2603,E-3,225.0,0.25,80,117.0
2604,E2,225.0,0.25,100,117.0
2605,A4,225.0,0.25,110,117.0
2606,D4,225.0,3/10,62,117.0
2607,B-3,225.0,3/10,62,117.0
2608,A4,225.25,0.25,105,117.0
2609,F4,225.25,77/250,100,117.0
2610,C5,225.25,77/250,100,117.0
2611,C3,225.5,721/500,86,117.0
2612,E-3,225.5,0.25,80,117.0
2613,C2,225.5,0.25,115,117.0
2614,A4,225.5,0.25,92,117.0
2615,C1,225.542,327/250,110,117.0
2616,A4,225.75,0.25,96,117.0
2617,F4,226.0,9/20,96,117.0
2618,C5,226.0,279/500,100,117.0
2619,E-3,226.0,117/1000,92,117.0
2620,A4,226.0,0.25,110,117.0
2621,E-4,226.0,917/1000,70,117.0
2622,C4,226.0,917/1000,70,117.0
2623,A4,226.25,0.25,105,117.0
2624,E-3,226.5,0.25,89,117.0
2625,C2,226.5,0.25,105,117.0
2626,A4,226.5,0.25,100,117.0
2627,G#4,226.5,383/1000,108,117.0
2628,E-5,226.5,383/1000,108,117.0
2629,A4,226.75,0.25,100,117.0
2630,E-3,227.0,19/40,89,117.0
2631,E-3,227.0,0.25,92,117.0
2632,E2,227.0,0.25,105,117.0
2633,A4,227.0,0.25,115,117.0
2634,D4,227.0,517/1000,68,117.0
2635,B-3,227.0,517/1000,68,117.0
2636,E-1,227.033,417/1000,100,117.0
2637,A4,227.25,0.25,96,117.0
2638,F3,227.5,0.125,73,117.0
2639,E-3,227.5,0.25,86,117.0
2640,C2,227.5,0.25,105,117.0
2641,A4,227.5,0.25,86,117.0
2642,G#3,227.5,417/1000,66,117.0
2643,C4,227.5,417/1000,66,117.0
2644,F1,227.533,121/500,80,117.0
2645,A4,227.75,0.25,100,117.0
2646,F2,228.0,479/500,86,117.0
2647,E-3,228.0,0.25,96,117.0
2648,C2,228.0,0.25,110,117.0
2649,A4,228.0,0.25,110,117.0
2650,F1,228.033,1133/1000,92,117.0
2651,A4,228.25,0.25,96,117.0
2652,E-3,228.5,0.25,89,117.0
2653,A4,228.5,0.25,96,117.0
2654,C4,228.5,467/1000,69,117.0
2655,G#3,228.5,467/1000,69,117.0
2656,F3,228.5,7/20,100,117.0
2657,C4,228.5,7/20,100,117.0
2658,A4,228.75,0.25,96,117.0
2659,F3,229.0,27/250,89,117.0
2660,E-3,229.0,0.25,96,117.0
2661,E2,229.0,0.25,100,117.0
2662,A4,229.0,0.25,110,117.0
2663,D4,229.0,0.25,69,117.0
2664,B-3,229.0,0.25,69,117.0
2665,A4,229.25,0.25,105,117.0
2666,F3,229.25,13/40,103,117.0
2667,C4,229.25,13/40,103,117.0
2668,C3,229.5,199/125,89,117.0
2669,E-3,229.5,0.25,83,117.0
2670,C2,229.5,0.25,115,117.0
2671,A4,229.5,0.25,96,117.0
2672,C1,229.508,1317/1000,105,117.0
2673,A4,229.75,0.25,100,117.0
2674,E-3,230.0,0.25,83,117.0
2675,A4,230.0,0.25,110,117.0
2676,E-4,230.0,933/1000,70,117.0
2677,C4,230.0,933/1000,70,117.0
2678,F3,230.0,0.5,102,117.0
2679,C4,230.0,0.5,102,117.0
2680,A4,230.25,0.25,100,117.0
2681,E-3,230.5,0.25,86,117.0
2682,C2,230.5,0.25,110,117.0
2683,A4,230.5,0.25,100,117.0
2684,G#3,230.5,51/125,92,117.0
2685,E-4,230.5,51/125,92,117.0
2686,A4,230.75,0.25,100,117.0
2687,E-3,231.0,0.5,100,117.0
2688,E-3,231.0,0.25,92,117.0
2689,E2,231.0,0.25,105,117.0
2690,A4,231.0,0.25,115,117.0
2691,D4,231.0,0.5,69,117.0
2692,B-3,231.0,0.5,69,117.0
2693,E-1,231.017,433/1000,96,117.0
2694,A4,231.25,0.25,110,117.0
2695,F3,231.5,7/40,80,117.0
2696,E-3,231.5,0.25,86,117.0
2697,C2,231.5,0.25,105,117.0
2698,A4,231.5,0.25,110,117.0
2699,C4,231.5,383/1000,63,117.0
2700,G#3,231.5,383/1000,63,117.0
2701,F1,231.517,267/1000,83,117.0
2702,A4,231.75,0.25,105,117.0
2703,C#2,232.0,39/40,89,117.0
2704,C#1,232.0,1167/1000,110,117.0
2705,E-3,232.0,0.25,92,117.0
2706,C2,232.0,0.5,115,117.0
2707,A4,232.0,0.25,110,117.0
2708,F4,232.0,229/500,96,117.0
2709,C#4,232.0,229/500,96,117.0
2710,A4,232.25,0.25,92,117.0
2711,B3,232.475,9/20,92,117.0
2712,G#3,232.475,9/20,92,117.0
2713,E-3,232.5,0.25,89,117.0
2714,A4,232.5,0.25,92,117.0
2715,A4,232.75,0.25,100,117.0
2716,B-3,232.95,11/40,92,117.0
2717,C#4,232.95,11/40,92,117.0
2718,C#3,233.0,117/1000,80,117.0
2719,E-3,233.0,0.25,96,117.0
2720,E2,233.0,0.25,105,117.0
2721,A4,233.0,0.25,105,117.0
2722,B-4,233.0,517/1000,95,117.0
2723,C#5,233.0,517/1000,95,117.0
2724,E-5,233.0,517/1000,95,117.0
2725,A4,233.25,0.25,100,117.0
2726,G#2,233.5,199/125,92,117.0
2727,F3,233.5,76/125,115,117.0
2728,E-3,233.5,0.25,83,117.0
2729,C2,233.5,0.5,110,117.0
2730,A4,233.5,0.25,100,117.0
2731,G#5,233.5,329/500,108,117.0
2732,F5,233.5,329/500,108,117.0
2733,F6,233.5,329/500,108,117.0
2734,C#5,233.5,329/500,108,117.0
2735,G#4,233.5,371/500,100,117.0
2736,C#4,233.5,371/500,100,117.0
2737,G#1,233.508,629/500,100,117.0
2738,A4,233.75,0.25,96,117.0
2739,E-3,234.0,0.25,92,117.0
2740,A4,234.0,0.25,110,117.0
2741,E-4,234.008,17/20,96,117.0
2742,B3,234.008,17/20,96,117.0
2743,A4,234.25,0.25,100,117.0
2744,E-3,234.5,0.25,86,117.0
2745,C2,234.5,0.5,115,117.0
2746,A4,234.5,0.25,110,117.0
2747,A4,234.75,0.25,100,117.0
2748,C#4,234.975,2/5,92,117.0
2749,B-3,234.975,2/5,92,117.0
2750,B2,235.0,123/250,83,117.0
2751,E-3,235.0,0.25,83,117.0
2752,E2,235.0,0.25,100,117.0
2753,A4,235.0,0.25,110,117.0
2754,B1,235.017,229/500,92,117.0
2755,A4,235.25,0.25,92,117.0
2756,G#3,235.467,217/1000,92,117.0
2757,B3,235.467,217/1000,92,117.0
2758,C#3,235.5,0.125,69,117.0
2759,E-3,235.5,0.25,86,117.0
2760,C2,235.5,0.25,110,117.0
2761,A4,235.5,0.25,105,117.0
2762,C#2,235.508,0.25,83,117.0
2763,A4,235.75,0.25,100,117.0
2764,C#2,236.0,1017/1000,80,117.0
2765,E-3,236.0,0.25,86,117.0
2766,C2,236.0,0.25,115,117.0
2767,A4,236.0,0.25,110,117.0
2768,C#4,236.0,17/40,91,117.0
2769,F4,236.0,17/40,91,117.0
2770,C#1,236.017,277/250,115,117.0
2771,A4,236.25,0.25,100,117.0
2772,E-3,236.5,0.25,86,117.0
2773,A4,236.5,0.25,100,117.0
2774,G#3,236.508,127/250,98,117.0
2775,B3,236.508,127/250,98,117.0
2776,A4,236.75,0.25,105,117.0
2777,C#4,237.0,183/1000,83,117.0
2778,C#3,237.0,117/1000,80,117.0
2779,B-4,237.0,7/20,92,117.0
2780,E-3,237.0,0.25,80,117.0
2781,E2,237.0,0.25,105,117.0
2782,A4,237.0,0.25,110,117.0
2783,C#5,237.0,51/125,94,117.0
2784,E-5,237.0,51/125,94,117.0
2785,B-3,237.033,9/40,96,117.0
2786,A4,237.25,0.25,96,117.0
2787,G#2,237.5,1483/1000,92,117.0
2788,G#4,237.5,13/20,110,117.0
2789,E-3,237.5,0.25,80,117.0
2790,C2,237.5,0.25,110,117.0
2791,A4,237.5,0.25,96,117.0
2792,G#5,237.5,667/1000,104,117.0
2793,C#5,237.5,667/1000,104,117.0
2794,F6,237.5,667/1000,104,117.0
2795,F5,237.5,667/1000,104,117.0
2796,F3,237.5,27/40,110,117.0
2797,C#4,237.5,27/40,110,117.0
2798,G#1,237.525,49/40,115,117.0
2799,A4,237.75,0.25,96,117.0
2800,E-3,238.0,117/1000,92,117.0
2801,A4,238.0,0.25,110,117.0
2802,E-4,238.033,833/1000,102,117.0
2803,B3,238.033,833/1000,102,117.0
2804,A4,238.25,0.25,92,117.0
2805,E-3,238.5,0.25,89,117.0
2806,C2,238.5,0.25,115,117.0
2807,A4,238.5,0.25,92,117.0
2808,A4,238.75,0.25,100,117.0
2809,C#4,238.967,417/1000,89,117.0
2810,B-3,238.967,417/1000,89,117.0
2811,B2,239.0,0.5,80,117.0
2812,E-3,239.0,0.25,92,117.0
2813,E2,239.0,0.25,105,117.0
2814,A4,239.0,0.25,110,117.0
2815,B1,239.025,517/1000,92,117.0
2816,A4,239.25,0.25,92,117.0
2817,G#3,239.492,1/5,92,117.0
2818,B3,239.492,1/5,92,117.0
2819,C#3,239.5,1/10,58,117.0
2820,E-3,239.5,0.25,86,117.0
2821,C2,239.5,0.25,110,117.0
2822,A4,239.5,0.25,92,117.0
2823,C#2,239.55,367/1000,89,117.0
2824,A4,239.75,0.25,96,117.0
2825,C#2,240.0,521/500,75,117.0
2826,E-3,240.0,0.25,92,117.0
2827,C2,240.0,0.25,110,117.0
2828,A4,240.0,0.25,110,117.0
2829,C#4,240.0,4.0,94,117.0
2830,F4,240.0,4.0,94,117.0
2831,C#1,240.05,529/500,110,117.0
2832,A4,240.25,0.25,105,117.0
2833,E-3,240.5,0.25,89,117.0
2834,A4,240.5,0.25,89,117.0
2835,G#3,240.5,221/500,92,117.0
2836,B3,240.5,221/500,92,117.0
2837,A4,240.75,0.25,100,117.0
2838,C#4,240.992,3/10,86,117.0
2839,B-3,240.992,3/10,86,117.0
2840,C#3,241.0,117/1000,71,117.0
2841,E-3,241.0,0.25,96,117.0
2842,E2,241.0,0.25,80,117.0
2843,A4,241.0,0.25,110,117.0
2844,C#5,241.017,229/500,97,117.0
2845,E-5,241.017,229/500,97,117.0
2846,B-4,241.017,229/500,97,117.0
2847,A4,241.25,0.25,105,117.0
2848,G#2,241.5,1533/1000,92,117.0
2849,F3,241.5,101/125,115,117.0
2850,E-3,241.5,0.25,83,117.0
2851,C2,241.5,0.25,115,117.0
2852,A4,241.5,0.25,92,117.0
2853,F5,241.5,583/1000,106,117.0
2854,F6,241.5,583/1000,106,117.0
2855,G#5,241.5,583/1000,106,117.0
2856,C#5,241.5,583/1000,106,117.0
2857,C#4,241.5,13/20,105,117.0
2858,G#4,241.5,13/20,105,117.0
2859,G#1,241.533,1.25,105,117.0
2860,A4,241.75,0.25,96,117.0
2861,E-3,242.0,0.25,92,117.0
2862,A4,242.0,0.25,110,117.0
2863,E-4,242.017,1.0,100,117.0
2864,B3,242.033,867/1000,92,117.0
2865,A4,242.25,0.25,105,117.0
2866,E-3,242.5,0.25,86,117.0
2867,C2,242.5,0.25,105,117.0
2868,A4,242.5,0.25,100,117.0
2869,A4,242.75,0.25,100,117.0
2870,B1,242.967,9/20,96,117.0
2871,C#4,242.992,417/1000,94,117.0
2872,B-3,242.992,417/1000,94,117.0
2873,B2,243.0,0.5,77,117.0
2874,E-3,243.0,0.25,83,117.0
2875,E2,243.0,0.25,110,117.0
2876,A4,243.0,0.25,115,117.0
2877,A4,243.25,0.25,96,117.0
2878,C#2,243.492,9/40,83,117.0
2879,C#3,243.5,23/250,65,117.0
2880,E-3,243.5,0.25,86,117.0
2881,C2,243.5,0.25,105,117.0
2882,A4,243.5,0.25,86,117.0
2883,B3,243.517,73/250,91,117.0
2884,G#3,243.517,73/250,91,117.0
2885,A4,243.75,0.25,100,117.0
2886,C#2,244.0,21/20,73,117.0
2887,C#1,244.0,571/500,105,117.0
2888,E-3,244.0,0.25,86,117.0
2889,C2,244.0,0.25,110,117.0
2890,A4,244.0,0.25,110,117.0
2891,A4,244.25,0.25,96,117.0
2892,B3,244.483,171/500,96,117.0
2893,G#3,244.483,171/500,96,117.0
2894,E-3,244.5,0.25,86,117.0
2895,A4,244.5,0.25,96,117.0
2896,A4,244.75,0.25,96,117.0
2897,C#4,244.958,11/40,83,117.0
2898,B-3,244.958,11/40,83,117.0
2899,C#3,245.0,133/1000,73,117.0
2900,E-3,245.0,0.25,80,117.0
2901,E2,245.0,0.25,103,117.0
2902,A4,245.0,0.25,110,117.0
2903,A4,245.25,0.25,105,117.0
2904,G#1,245.492,27/20,100,117.0
2905,G#2,245.5,31/20,86,117.0
2906,E-3,245.5,0.25,80,117.0
2907,C2,245.5,0.25,115,117.0
2908,A4,245.5,0.25,96,117.0
2909,A4,245.75,0.25,100,117.0
2910,E-3,246.0,117/1000,92,117.0
2911,A4,246.0,0.25,110,117.0
2912,E-4,246.017,37/40,96,117.0
2913,B3,246.017,37/40,96,117.0
2914,A4,246.25,0.25,100,117.0
2915,E-3,246.5,0.25,89,117.0
2916,C2,246.5,0.25,110,117.0
2917,A4,246.5,0.25,100,117.0
2918,A4,246.75,0.25,100,117.0
2919,B1,246.942,221/500,89,117.0
2920,C#4,246.983,383/1000,89,117.0
2921,B-3,246.983,383/1000,89,117.0
2922,B2,247.0,483/1000,75,117.0
2923,E-3,247.0,0.25,92,117.0
2924,E2,247.0,0.25,110,117.0
2925,A4,247.0,0.25,115,117.0
2926,A4,247.25,0.25,110,117.0
2927,C#2,247.458,367/1000,89,117.0
2928,G#3,247.467,77/250,98,117.0
2929,B3,247.467,77/250,98,117.0
2930,C#3,247.5,0.125,64,117.0
2931,E-3,247.5,0.25,86,117.0
2932,C2,247.5,0.25,105,117.0
2933,A4,247.5,0.25,110,117.0
2934,A4,247.75,0.25,105,117.0
2935,F2,248.0,967/1000,80,117.0
2936,F1,248.0,479/500,100,117.0
2937,E-3,248.0,0.25,96,117.0
2938,C2,248.0,0.5,115,117.0
2939,A4,248.0,0.25,110,117.0
2940,A4,248.25,0.25,92,117.0
2941,E-3,248.5,0.25,89,117.0
2942,A4,248.5,0.25,92,117.0
2943,C4,248.5,9/20,76,117.0
2944,G#3,248.5,9/20,76,117.0
2945,F4,248.5,3/10,98,117.0
2946,C5,248.5,3/10,98,117.0
2947,A4,248.75,0.25,100,117.0
2948,F3,249.0,71/500,83,117.0
2949,E-3,249.0,0.25,96,117.0
2950,E2,249.0,0.25,105,117.0
2951,A4,249.0,0.25,105,117.0
2952,D4,249.0,26/125,71,117.0
2953,B-3,249.0,26/125,71,117.0
2954,A4,249.25,0.25,100,117.0
2955,F4,249.25,11/40,105,117.0
2956,C5,249.25,11/40,105,117.0
2957,C3,249.5,1517/1000,83,117.0
2958,E-3,249.5,0.25,83,117.0
2959,C2,249.5,0.5,110,117.0
2960,A4,249.5,0.25,100,117.0
2961,C1,249.517,323/250,115,117.0
2962,A4,249.75,0.25,96,117.0
2963,E-4,250.0,126/125,77,117.0
2964,C4,250.0,917/1000,63,117.0
2965,E-3,250.0,0.25,83,117.0
2966,A4,250.0,0.25,110,117.0
2967,C5,250.0,19/40,105,117.0
2968,F4,250.0,19/40,105,117.0
2969,A4,250.25,0.25,100,117.0
2970,E-3,250.5,0.25,86,117.0
2971,C2,250.5,0.5,115,117.0
2972,A4,250.5,0.25,110,117.0
2973,E-5,250.5,221/500,102,117.0
2974,G#4,250.5,221/500,102,117.0
2975,A4,250.75,0.25,100,117.0
2976,E-3,251.0,467/1000,92,117.0
2977,E-3,251.0,0.25,92,117.0
2978,E2,251.0,0.25,110,117.0
2979,A4,251.0,0.25,110,117.0
2980,B-3,251.0,19/40,64,117.0
2981,D4,251.0,19/40,64,117.0
2982,E-1,251.017,49/125,105,117.0
2983,A4,251.25,0.25,92,117.0
2984,G#3,251.5,129/500,71,117.0
2985,C4,251.5,7/20,80,117.0
2986,F3,251.5,117/1000,75,117.0
2987,E-3,251.5,0.25,86,117.0
2988,C2,251.5,0.25,110,117.0
2989,A4,251.5,0.25,105,117.0
2990,F1,251.517,171/500,86,117.0
2991,A4,251.75,0.25,100,117.0
2992,F2,252.0,521/500,83,117.0
2993,E-3,252.0,0.25,92,117.0
2994,C2,252.0,0.25,115,117.0
2995,A4,252.0,0.25,110,117.0
2996,F1,252.042,21/20,89,117.0
2997,A4,252.25,0.25,100,117.0
2998,E-3,252.5,0.25,89,117.0
2999,A4,252.5,0.25,100,117.0
3000,C4,252.5,467/1000,64,117.0
3001,G#3,252.5,467/1000,64,117.0
3002,C4,252.5,77/250,105,117.0
3003,F3,252.5,77/250,105,117.0
3004,A4,252.75,0.25,105,117.0
3005,F3,253.0,0.125,75,117.0
3006,E-3,253.0,0.25,96,117.0
3007,E2,253.0,0.25,110,117.0
3008,A4,253.0,0.25,110,117.0
3009,D4,253.0,129/500,58,117.0
3010,B-3,253.0,129/500,58,117.0
3011,A4,253.25,0.25,96,117.0
3012,F3,253.25,317/1000,102,117.0
3013,C4,253.25,317/1000,102,117.0
3014,C1,253.475,57/40,115,117.0
3015,C3,253.5,1433/1000,83,117.0
3016,E-3,253.5,0.25,83,117.0
3017,C2,253.5,0.25,110,117.0
3018,A4,253.5,0.25,96,117.0
3019,A4,253.75,0.25,96,117.0
3020,E-4,254.0,983/1000,73,117.0
3021,C4,254.0,223/250,60,117.0
3022,C4,254.0,23/40,100,117.0
3023,F3,254.0,123/250,96,117.0
3024,E-3,254.0,0.25,92,117.0
3025,A4,254.0,0.25,110,117.0
3026,A4,254.25,0.25,92,117.0
3027,E-3,254.5,0.25,86,117.0
3028,C2,254.5,0.25,115,117.0
3029,A4,254.5,0.25,92,117.0
3030,E-4,254.5,221/500,98,117.0
3031,G#3,254.5,221/500,98,117.0
3032,A4,254.75,0.25,100,117.0
3033,E-3,255.0,0.5,89,117.0
3034,E-3,255.0,0.25,83,117.0
3035,E2,255.0,0.25,110,117.0
3036,A4,255.0,0.25,110,117.0
3037,D4,255.0,19/40,62,117.0
3038,B-3,255.0,19/40,62,117.0
3039,E-1,255.025,383/1000,105,117.0
3040,A4,255.25,0.25,92,117.0
3041,F3,255.5,133/1000,67,117.0
3042,E-3,255.5,0.25,86,117.0
3043,C2,255.5,0.25,110,117.0
3044,A4,255.5,0.25,92,117.0
3045,C4,255.5,7/20,57,117.0
3046,G#3,255.5,7/20,57,117.0
3047,F1,255.517,129/500,89,117.0
3048,A4,255.75,0.25,96,117.0
3049,F2,256.0,41/40,77,117.0
3050,E-3,256.0,0.25,86,117.0
3051,C2,256.0,0.25,110,117.0
3052,A4,256.0,0.25,110,117.0
3053,F1,256.058,47/40,96,117.0
3054,A4,256.25,0.25,105,117.0
3055,E-3,256.5,0.25,86,117.0
3056,A4,256.5,0.25,89,117.0
3057,C4,256.5,19/40,72,117.0
3058,G#3,256.5,19/40,72,117.0
3059,F4,256.5,77/250,98,117.0
3060,C5,256.5,77/250,98,117.0
3061,A4,256.75,0.25,100,117.0
3062,F3,257.0,117/1000,73,117.0
3063,E-3,257.0,0.25,80,117.0
3064,E2,257.0,0.25,100,117.0
3065,A4,257.0,0.25,110,117.0
3066,D4,257.0,3/10,62,117.0
3067,B-3,257.0,3/10,62,117.0
3068,A4,257.25,0.25,105,117.0
3069,F4,257.25,77/250,100,117.0
3070,C5,257.25,77/250,100,117.0
3071,C3,257.5,721/500,86,117.0
3072,E-3,257.5,0.25,80,117.0
3073,C2,257.5,0.25,115,117.0
3074,A4,257.5,0.25,92,117.0
3075,C1,257.542,327/250,110,117.0
3076,A4,257.75,0.25,96,117.0
3077,F4,258.0,9/20,96,117.0
3078,C5,258.0,279/500,100,117.0
3079,E-3,258.0,117/1000,92,117.0
3080,A4,258.0,0.25,110,117.0
3081,E-4,258.0,917/1000,70,117.0
3082,C4,258.0,917/1000,70,117.0
3083,A4,258.25,0.25,105,117.0
3084,E-3,258.5,0.25,89,117.0
3085,C2,258.5,0.25,105,117.0
3086,A4,258.5,0.25,100,117.0
3087,G#4,258.5,383/1000,108,117.0
3088,E-5,258.5,383/1000,108,117.0
3089,A4,258.75,0.25,100,117.0
3090,E-3,259.0,19/40,89,117.0
3091,E-3,259.0,0.25,92,117.0
3092,E2,259.0,0.25,105,117.0
3093,A4,259.0,0.25,115,117.0
3094,D4,259.0,517/1000,68,117.0
3095,B-3,259.0,517/1000,68,117.0
3096,E-1,259.033,417/1000,100,117.0
3097,A4,259.25,0.25,96,117.0
3098,F3,259.5,0.125,73,117.0
3099,E-3,259.5,0.25,86,117.0
3100,C2,259.5,0.25,105,117.0
3101,A4,259.5,0.25,86,117.0
3102,G#3,259.5,417/1000,66,117.0
3103,C4,259.5,417/1000,66,117.0
3104,F1,259.533,121/500,80,117.0
3105,A4,259.75,0.25,100,117.0
3106,F2,260.0,479/500,86,117.0
3107,E-3,260.0,0.25,96,117.0
3108,C2,260.0,0.25,110,117.0
3109,A4,260.0,0.25,110,117.0
3110,F1,260.033,1133/1000,92,117.0
3111,A4,260.25,0.25,96,117.0
3112,E-3,260.5,0.25,89,117.0
3113,A4,260.5,0.25,96,117.0
3114,C4,260.5,467/1000,69,117.0
3115,G#3,260.5,467/1000,69,117.0
3116,F3,260.5,7/20,100,117.0
3117,C4,260.5,7/20,100,117.0
3118,A4,260.75,0.25,96,117.0
3119,F3,261.0,27/250,89,117.0
3120,E-3,261.0,0.25,96,117.0
3121,E2,261.0,0.25,100,117.0
3122,A4,261.0,0.25,110,117.0
3123,D4,261.0,0.25,69,117.0
3124,B-3,261.0,0.25,69,117.0
3125,A4,261.25,0.25,105,117.0
3126,F3,261.25,13/40,103,117.0
3127,C4,261.25,13/40,103,117.0
3128,C3,261.5,199/125,89,117.0
3129,E-3,261.5,0.25,83,117.0
3130,C2,261.5,0.25,115,117.0
3131,A4,261.5,0.25,96,117.0
3132,C1,261.508,1317/1000,105,117.0
3133,A4,261.75,0.25,100,117.0
3134,E-3,262.0,0.25,83,117.0
3135,A4,262.0,0.25,110,117.0
3136,E-4,262.0,933/1000,70,117.0
3137,C4,262.0,933/1000,70,117.0
3138,F3,262.0,0.5,102,117.0
3139,C4,262.0,0.5,102,117.0
3140,A4,262.25,0.25,100,117.0
3141,E-3,262.5,0.25,86,117.0
3142,C2,262.5,0.25,110,117.0
3143,A4,262.5,0.25,100,117.0
3144,G#3,262.5,51/125,92,117.0
3145,E-4,262.5,51/125,92,117.0
3146,A4,262.75,0.25,100,117.0
3147,E-3,263.0,0.5,100,117.0
3148,E-3,263.0,0.25,92,117.0
3149,E2,263.0,0.25,105,117.0
3150,A4,263.0,0.25,115,117.0
3151,D4,263.0,0.5,69,117.0
3152,B-3,263.0,0.5,69,117.0
3153,E-1,263.017,433/1000,96,117.0
3154,A4,263.25,0.25,110,117.0
3155,F3,263.5,7/40,80,117.0
3156,E-3,263.5,0.25,86,117.0
3157,C2,263.5,0.25,105,117.0
3158,A4,263.5,0.25,110,117.0
3159,C4,263.5,383/1000,63,117.0
3160,G#3,263.5,383/1000,63,117.0
3161,F1,263.517,267/1000,83,117.0
3162,A4,263.75,0.25,105,117.0
3163,C#2,264.0,39/40,89,117.0
3164,C#1,264.0,1167/1000,110,117.0
3165,E-3,264.0,0.25,92,117.0
3166,C2,264.0,0.5,115,117.0
3167,A4,264.0,0.25,110,117.0
3168,A4,264.25,0.25,92,117.0
3169,B3,264.475,9/20,92,117.0
3170,G#3,264.475,9/20,92,117.0
3171,C#4,264.475,4.0,94,117.0
3172,F4,264.475,4.0,94,117.0
3173,E-3,264.5,0.25,89,117.0
3174,A4,264.5,0.25,92,117.0
3175,A4,264.75,0.25,100,117.0
3176,B-3,264.95,11/40,92,117.0
3177,C#4,264.95,11/40,92,117.0
3178,C#3,265.0,117/1000,80,117.0
3179,E-3,265.0,0.25,96,117.0
3180,E2,265.0,0.25,105,117.0
3181,A4,265.0,0.25,105,117.0
3182,A4,265.25,0.25,100,117.0
3183,G#2,265.5,199/125,92,117.0
3184,F3,265.5,76/125,115,117.0
3185,E-3,265.5,0.25,83,117.0
3186,C2,265.5,0.5,110,117.0
3187,A4,265.5,0.25,100,117.0
3188,G#5,265.5,329/500,108,117.0
3189,F5,265.5,329/500,108,117.0
3190,F6,265.5,329/500,108,117.0
3191,C#5,265.5,329/500,108,117.0
3192,G#4,265.5,371/500,100,117.0
3193,C#4,265.5,371/500,100,117.0
3194,G#1,265.508,629/500,100,117.0
3195,A4,265.75,0.25,96,117.0
3196,E-3,266.0,0.25,92,117.0
3197,A4,266.0,0.25,110,117.0
3198,E-4,266.008,17/20,96,117.0
3199,B3,266.008,17/20,96,117.0
3200,A4,266.25,0.25,100,117.0
3201,E-3,266.5,0.25,86,117.0
3202,C2,266.5,0.5,115,117.0
3203,A4,266.5,0.25,110,117.0
3204,A4,266.75,0.25,100,117.0
3205,C#4,266.975,2/5,92,117.0
3206,B-3,266.975,2/5,92,117.0
3207,B2,267.0,123/250,83,117.0
3208,E-3,267.0,0.25,83,117.0
3209,E2,267.0,0.25,100,117.0
3210,A4,267.0,0.25,110,117.0
3211,B1,267.017,229/500,92,117.0
3212,A4,267.25,0.25,92,117.0
3213,G#3,267.467,217/1000,92,117.0
3214,B3,267.467,217/1000,92,117.0
3215,C#3,267.5,0.125,69,117.0
3216,E-3,267.5,0.25,86,117.0
3217,C2,267.5,0.25,110,117.0
3218,A4,267.5,0.25,105,117.0
3219,C#2,267.508,0.25,83,117.0
3220,A4,267.75,0.25,100,117.0
3221,C#2,268.0,1017/1000,80,117.0
3222,E-3,268.0,0.25,86,117.0
3223,C2,268.0,0.25,115,117.0
3224,A4,268.0,0.25,110,117.0
3225,C#1,268.017,277/250,115,117.0
3226,A4,268.25,0.25,100,117.0
3227,C#4,268.475,4.0,94,117.0
3228,F4,268.475,4.0,94,117.0
3229,E-3,268.5,0.25,86,117.0
3230,A4,268.5,0.25,100,117.0
3231,G#3,268.508,127/250,98,117.0
3232,B3,268.508,127/250,98,117.0
3233,A4,268.75,0.25,105,117.0
3234,C#4,269.0,183/1000,83,117.0
3235,C#3,269.0,117/1000,80,117.0
3236,E-3,269.0,0.25,80,117.0
3237,E2,269.0,0.25,105,117.0
3238,A4,269.0,0.25,110,117.0
3239,B-3,269.033,9/40,96,117.0
3240,A4,269.25,0.25,96,117.0
3241,G#2,269.5,1483/1000,92,117.0
3242,G#4,269.5,13/20,110,117.0
3243,E-3,269.5,0.25,80,117.0
3244,C2,269.5,0.25,110,117.0
3245,A4,269.5,0.25,96,117.0
3246,G#5,269.5,667/1000,104,117.0
3247,C#5,269.5,667/1000,104,117.0
3248,F6,269.5,667/1000,104,117.0
3249,F5,269.5,667/1000,104,117.0
3250,F3,269.5,27/40,110,117.0
3251,C#4,269.5,27/40,110,117.0
3252,G#1,269.525,49/40,115,117.0
3253,A4,269.75,0.25,96,117.0
3254,E-3,270.0,117/1000,92,117.0
3255,A4,270.0,0.25,110,117.0
3256,E-4,270.033,833/1000,102,117.0
3257,B3,270.033,833/1000,102,117.0
3258,A4,270.25,0.25,92,117.0
3259,E-3,270.5,0.25,89,117.0
3260,C2,270.5,0.25,115,117.0
3261,A4,270.5,0.25,92,117.0
3262,A4,270.75,0.25,100,117.0
3263,C#4,270.967,417/1000,89,117.0
3264,B-3,270.967,417/1000,89,117.0
3265,B2,271.0,0.5,80,117.0
3266,E-3,271.0,0.25,92,117.0
3267,E2,271.0,0.25,105,117.0
3268,A4,271.0,0.25,110,117.0
3269,B1,271.025,517/1000,92,117.0
3270,A4,271.25,0.25,92,117.0
3271,G#3,271.492,1/5,92,117.0
3272,B3,271.492,1/5,92,117.0
3273,C#3,271.5,1/10,58,117.0
3274,E-3,271.5,0.25,86,117.0
3275,C2,271.5,0.25,110,117.0
3276,A4,271.5,0.25,92,117.0
3277,C#2,271.55,367/1000,89,117.0
3278,A4,271.75,0.25,96,117.0
3279,C#2,272.0,521/500,75,117.0
3280,E-3,272.0,0.25,92,117.0
3281,C2,272.0,0.25,110,117.0
3282,A4,272.0,0.25,110,117.0
3283,C#1,272.05,529/500,110,117.0
3284,A4,272.25,0.25,105,117.0
3285,C#4,272.475,4.0,94,117.0
3286,F4,272.475,4.0,94,117.0
3287,E-3,272.5,0.25,89,117.0
3288,A4,272.5,0.25,89,117.0
3289,G#3,272.5,221/500,92,117.0
3290,B3,272.5,221/500,92,117.0
3291,A4,272.75,0.25,100,117.0
3292,C#4,272.992,3/10,86,117.0
3293,B-3,272.992,3/10,86,117.0
3294,C#3,273.0,117/1000,71,117.0
3295,E-3,273.0,0.25,96,117.0
3296,E2,273.0,0.25,104,117.0
3297,A4,273.0,0.25,110,117.0
3298,A4,273.25,0.25,105,117.0
3299,G#2,273.5,1533/1000,92,117.0
3300,F3,273.5,101/125,115,117.0
3301,E-3,273.5,0.25,83,117.0
3302,C2,273.5,0.25,115,117.0
3303,A4,273.5,0.25,92,117.0
3304,F5,273.5,583/1000,106,117.0
3305,F6,273.5,583/1000,106,117.0
3306,G#5,273.5,583/1000,106,117.0
3307,C#5,273.5,583/1000,106,117.0
3308,C#4,273.5,13/20,105,117.0
3309,G#4,273.5,13/20,105,117.0
3310,G#1,273.533,1.25,105,117.0
3311,A4,273.75,0.25,96,117.0
3312,E-3,274.0,0.25,92,117.0
3313,A4,274.0,0.25,110,117.0
3314,E-4,274.017,1.0,100,117.0
3315,B3,274.033,867/1000,92,117.0
3316,A4,274.25,0.25,105,117.0
3317,E-3,274.5,0.25,86,117.0
3318,C2,274.5,0.25,105,117.0
3319,A4,274.5,0.25,100,117.0
3320,A4,274.75,0.25,100,117.0
3321,B1,274.967,9/20,96,117.0
3322,C#4,274.992,417/1000,94,117.0
3323,B-3,274.992,417/1000,94,117.0
3324,B2,275.0,0.5,77,117.0
3325,E-3,275.0,0.25,83,117.0
3326,E2,275.0,0.25,110,117.0
3327,A4,275.0,0.25,115,117.0
3328,A4,275.25,0.25,96,117.0
3329,C#2,275.492,9/40,83,117.0
3330,C#3,275.5,23/250,65,117.0
3331,E-3,275.5,0.25,86,117.0
3332,C2,275.5,0.25,105,117.0
3333,A4,275.5,0.25,86,117.0
3334,B3,275.517,73/250,91,117.0
3335,G#3,275.517,73/250,91,117.0
3336,A4,275.75,0.25,100,117.0
3337,C#2,276.0,21/20,73,117.0
3338,C#1,276.0,571/500,105,117.0
3339,E-3,276.0,0.25,86,117.0
3340,C2,276.0,0.25,110,117.0
3341,A4,276.0,0.25,110,117.0
3342,A4,276.25,0.25,96,117.0
3343,C#4,276.475,4.0,94,117.0
3344,F4,276.475,4.0,94,117.0
3345,E-3,276.5,0.25,86,117.0
3346,A4,276.5,0.25,96,117.0
3347,G#3,276.5,221/500,92,117.0
3348,B3,276.5,221/500,92,117.0
3349,A4,276.75,0.25,96,117.0
3350,C#4,276.992,3/10,86,117.0
3351,B-3,276.992,3/10,86,117.0
3352,C#3,277.0,133/1000,73,117.0
3353,E-3,277.0,0.25,80,117.0
3354,E2,277.0,0.25,111,117.0
3355,A4,277.0,0.25,110,117.0
3356,A4,277.25,0.25,105,117.0
3357,G#1,277.492,27/20,100,117.0
3358,G#2,277.5,31/20,86,117.0
3359,E-3,277.5,0.25,80,117.0
3360,C2,277.5,0.25,115,117.0
3361,A4,277.5,0.25,96,117.0
3362,A4,277.75,0.25,100,117.0
3363,E-3,278.0,117/1000,92,117.0
3364,A4,278.0,0.25,110,117.0
3365,E-4,278.017,1.0,100,117.0
3366,B3,278.033,867/1000,92,117.0
3367,A4,278.25,0.25,100,117.0
3368,E-3,278.5,0.25,89,117.0
3369,C2,278.5,0.25,110,117.0
3370,A4,278.5,0.25,100,117.0
3371,A4,278.75,0.25,100,117.0
3372,B1,278.942,221/500,89,117.0
3373,C#4,278.992,417/1000,94,117.0
3374,B-3,278.992,417/1000,94,117.0
3375,B2,279.0,483/1000,75,117.0
3376,E-3,279.0,0.25,92,117.0
3377,E2,279.0,0.25,110,117.0
3378,A4,279.0,0.25,115,117.0
3379,A4,279.25,0.25,110,117.0
3380,C#2,279.458,367/1000,89,117.0
3381,C#3,279.5,0.125,64,117.0
3382,E-3,279.5,0.25,86,117.0
3383,C2,279.5,0.25,105,117.0
3384,A4,279.5,0.25,110,117.0
3385,B3,279.517,73/250,91,117.0
3386,G#3,279.517,73/250,91,117.0
3387,A4,279.75,0.25,105,117.0
3388,F2,280.0,967/1000,80,117.0
3389,F2,280.0,277/250,92,117.0
3390,F1,280.0,479/500,100,117.0
3391,E-3,280.0,0.25,96,117.0
3392,C2,280.0,0.5,115,117.0
3393,A4,280.0,0.25,110,117.0
3394,A4,280.25,0.25,92,117.0
3395,C#4,280.475,4.0,94,117.0
3396,F4,280.475,4.0,94,117.0
3397,E-3,280.5,0.25,89,117.0
3398,A4,280.5,0.25,92,117.0
3399,A4,280.75,0.25,100,117.0
3400,F3,281.0,71/500,83,117.0
3401,E-3,281.0,0.25,96,117.0
3402,E2,281.0,0.25,105,117.0
3403,A4,281.0,0.25,105,117.0
3404,A4,281.25,0.25,100,117.0
3405,C3,281.5,1517/1000,83,117.0
3406,C2,281.5,149/125,96,117.0
3407,E-3,281.5,0.25,83,117.0
3408,C2,281.5,0.5,110,117.0
3409,A4,281.5,0.25,100,117.0
3410,C1,281.517,323/250,115,117.0
3411,A4,281.75,0.25,96,117.0
3412,E-3,282.0,0.25,83,117.0
3413,A4,282.0,0.25,110,117.0
3414,A4,282.25,0.25,100,117.0
3415,E-3,282.5,0.25,86,117.0
3416,C2,282.5,0.5,115,117.0
3417,A4,282.5,0.25,110,117.0
3418,A4,282.75,0.25,100,117.0
3419,E-3,283.0,467/1000,92,117.0
3420,E-2,283.0,49/125,105,117.0
3421,E-3,283.0,0.25,92,117.0
3422,E2,283.0,0.25,110,117.0
3423,A4,283.0,0.25,110,117.0
3424,E-1,283.017,49/125,105,117.0
3425,A4,283.25,0.25,92,117.0
3426,F2,283.5,217/1000,89,117.0
3427,F3,283.5,117/1000,75,117.0
3428,E-3,283.5,0.25,86,117.0
3429,C2,283.5,0.25,110,117.0
3430,A4,283.5,0.25,105,117.0
3431,F1,283.517,171/500,86,117.0
3432,A4,283.75,0.25,100,117.0
3433,F2,284.0,521/500,83,117.0
3434,F2,284.0,277/250,100,117.0
3435,E-3,284.0,0.25,92,117.0
3436,C2,284.0,0.25,115,117.0
3437,A4,284.0,0.25,110,117.0
3438,F1,284.042,21/20,89,117.0
3439,A4,284.25,0.25,100,117.0
3440,C#4,284.475,19/40,94,117.0
3441,F4,284.475,19/40,94,117.0
3442,F4,284.492,3983/1000,88,117.0
3443,C#4,284.492,3983/1000,88,117.0
3444,E-3,284.5,0.25,89,117.0
3445,A4,284.5,0.25,100,117.0
3446,A4,284.75,0.25,105,117.0
3447,F3,285.0,0.125,75,117.0
3448,E-3,285.0,0.25,96,117.0
3449,E2,285.0,0.25,110,117.0
3450,A4,285.0,0.25,110,117.0
3451,A4,285.25,0.25,96,117.0
3452,C1,285.475,57/40,115,117.0
3453,C#5,285.492,467/1000,92,117.0
3454,B-4,285.492,467/1000,92,117.0
3455,E-5,285.492,467/1000,92,117.0
3456,C3,285.5,1433/1000,83,117.0
3457,C2,285.5,579/500,100,117.0
3458,E-3,285.5,0.25,83,117.0
3459,C2,285.5,0.25,110,117.0
3460,A4,285.5,0.25,96,117.0
3461,A4,285.75,0.25,96,117.0
3462,E-3,286.0,0.25,92,117.0
3463,A4,286.0,0.25,110,117.0
3464,A4,286.25,0.25,92,117.0
3465,E-3,286.5,0.25,86,117.0
3466,C2,286.5,0.25,115,117.0
3467,A4,286.5,0.25,92,117.0
3468,A4,286.75,0.25,100,117.0
3469,E-3,287.0,0.25,83,117.0
3470,E2,287.0,0.25,110,117.0
3471,A4,287.0,0.25,110,117.0
3472,E-3,287.0,221/500,94,117.0
3473,E-2,287.0,221/500,94,117.0
3474,E-1,287.025,383/1000,105,117.0
3475,A4,287.25,0.25,92,117.0
3476,E-3,287.5,0.25,86,117.0
3477,C2,287.5,0.25,110,117.0
3478,A4,287.5,0.25,92,117.0
3479,F3,287.5,7/40,69,117.0
3480,F2,287.5,7/40,69,117.0
3481,F1,287.517,129/500,89,117.0
3482,A4,287.75,0.25,96,117.0
3483,E-3,288.0,0.25,86,117.0
3484,C2,288.0,0.25,110,117.0
3485,A4,288.0,0.25,110,117.0
3486,F2,288.0,1033/1000,88,117.0
3487,F2,288.0,1033/1000,88,117.0
3488,F1,288.058,47/40,96,117.0
3489,A4,288.25,0.25,105,117.0
3490,F4,288.475,19/40,88,117.0
3491,C#4,288.475,19/40,88,117.0
3492,F4,288.492,3983/1000,94,117.0
3493,C#4,288.492,3983/1000,94,117.0
3494,E-3,288.5,0.25,86,117.0
3495,A4,288.5,0.25,89,117.0
3496,A4,288.75,0.25,100,117.0
3497,F3,289.0,117/1000,73,117.0
3498,E-3,289.0,0.25,80,117.0
3499,E2,289.0,0.25,100,117.0
3500,A4,289.0,0.25,110,117.0
3501,A4,289.25,0.25,105,117.0
3502,C#5,289.492,11/20,91,117.0
3503,B-4,289.492,11/20,91,117.0
3504,E-5,289.492,11/20,91,117.0
3505,C3,289.5,721/500,86,117.0
3506,C2,289.5,621/500,105,117.0
3507,E-3,289.5,0.25,80,117.0
3508,C2,289.5,0.25,115,117.0
3509,A4,289.5,0.25,92,117.0
3510,C1,289.542,327/250,110,117.0
3511,A4,289.75,0.25,96,117.0
3512,E-3,290.0,117/1000,92,117.0
3513,A4,290.0,0.25,110,117.0
3514,A4,290.25,0.25,105,117.0
3515,E-3,290.5,0.25,89,117.0
3516,C2,290.5,0.25,105,117.0
3517,A4,290.5,0.25,100,117.0
3518,A4,290.75,0.25,100,117.0
3519,E-3,291.0,19/40,89,117.0
3520,E-2,291.0,49/125,100,117.0
3521,E-3,291.0,0.25,92,117.0
3522,E2,291.0,0.25,105,117.0
3523,A4,291.0,0.25,115,117.0
3524,E-1,291.033,417/1000,100,117.0
3525,A4,291.25,0.25,96,117.0
3526,F2,291.5,24/125,80,117.0
3527,F3,291.5,0.125,73,117.0
3528,E-3,291.5,0.25,86,117.0
3529,C2,291.5,0.25,105,117.0
3530,A4,291.5,0.25,86,117.0
3531,F1,291.533,121/500,80,117.0
3532,A4,291.75,0.25,100,117.0
3533,E-3,292.0,0.25,96,117.0
3534,C2,292.0,0.25,110,117.0
3535,A4,292.0,0.25,110,117.0
3536,F2,292.0,126/125,91,117.0
3537,F2,292.0,126/125,91,117.0
3538,F1,292.033,1133/1000,92,117.0
3539,A4,292.25,0.25,96,117.0
3540,F4,292.475,467/1000,94,117.0
3541,C#4,292.475,467/1000,94,117.0
3542,E-3,292.5,0.25,89,117.0
3543,A4,292.5,0.25,96,117.0
3544,C4,292.5,9/20,76,117.0
3545,G#3,292.5,9/20,76,117.0
3546,A4,292.75,0.25,96,117.0
3547,F3,293.0,27/250,89,117.0
3548,E-3,293.0,0.25,96,117.0
3549,E2,293.0,0.25,100,117.0
3550,A4,293.0,0.25,110,117.0
3551,D4,293.0,26/125,71,117.0
3552,B-3,293.0,26/125,71,117.0
3553,A4,293.25,0.25,105,117.0
3554,E-5,293.492,11/20,94,117.0
3555,C#5,293.492,11/20,94,117.0
3556,B-4,293.492,11/20,94,117.0
3557,C2,293.5,6/5,100,117.0
3558,C3,293.5,199/125,89,117.0
3559,E-3,293.5,0.25,83,117.0
3560,C2,293.5,0.25,115,117.0
3561,A4,293.5,0.25,96,117.0
3562,C1,293.508,1317/1000,105,117.0
3563,A4,293.75,0.25,100,117.0
3564,E-4,294.0,126/125,77,117.0
3565,C4,294.0,917/1000,63,117.0
3566,E-3,294.0,0.25,83,117.0
3567,A4,294.0,0.25,110,117.0
3568,A4,294.25,0.25,100,117.0
3569,E-3,294.5,0.25,86,117.0
3570,C2,294.5,0.25,110,117.0
3571,A4,294.5,0.25,100,117.0
3572,A4,294.75,0.25,100,117.0
3573,E-3,295.0,0.5,100,117.0
3574,E-2,295.0,51/125,100,117.0
3575,E-3,295.0,0.25,92,117.0
3576,E2,295.0,0.25,105,117.0
3577,A4,295.0,0.25,115,117.0
3578,B-3,295.0,19/40,64,117.0
3579,D4,295.0,19/40,64,117.0
3580,E-1,295.017,433/1000,96,117.0
3581,A4,295.25,0.25,110,117.0
3582,G#3,295.5,129/500,71,117.0
3583,C4,295.5,7/20,80,117.0
3584,E-3,295.5,0.25,86,117.0
3585,C2,295.5,0.25,105,117.0
3586,A4,295.5,0.25,110,117.0
3587,F2,295.5,7/40,78,117.0
3588,F3,295.5,7/40,78,117.0
3589,F1,295.517,267/1000,83,117.0
3590,A4,295.75,0.25,105,117.0
3591,F1,296.0,479/500,100,117.0
3592,E-3,296.0,0.25,96,117.0
3593,C2,296.0,0.5,115,117.0
3594,A4,296.0,0.25,110,117.0
3595,F2,296.0,126/125,86,117.0
3596,F2,296.0,126/125,86,117.0
3597,A4,296.25,0.25,92,117.0
3598,E-3,296.5,0.25,89,117.0
3599,A4,296.5,0.25,92,117.0
3600,A4,296.75,0.25,100,117.0
3601,F3,297.0,71/500,83,117.0
3602,E-3,297.0,0.25,96,117.0
3603,E2,297.0,0.25,105,117.0
3604,A4,297.0,0.25,105,117.0
3605,A4,297.25,0.25,100,117.0
3606,C2,297.5,1333/1000,92,117.0
3607,C3,297.5,1517/1000,83,117.0
3608,E-3,297.5,0.25,83,117.0
3609,C2,297.5,0.5,110,117.0
3610,A4,297.5,0.25,100,117.0
3611,C1,297.517,323/250,115,117.0
3612,A4,297.75,0.25,96,117.0
3613,E-3,298.0,0.25,83,117.0
3614,A4,298.0,0.25,110,117.0
3615,A4,298.25,0.25,100,117.0
3616,E-3,298.5,0.25,86,117.0
3617,C2,298.5,0.5,115,117.0
3618,A4,298.5,0.25,110,117.0
3619,A4,298.75,0.25,100,117.0
3620,E-3,299.0,467/1000,92,117.0
3621,E-2,299.0,179/500,100,117.0
3622,E-3,299.0,0.25,92,117.0
3623,E2,299.0,0.25,110,117.0
3624,A4,299.0,0.25,110,117.0
3625,E-1,299.017,49/125,105,117.0
3626,A4,299.25,0.25,92,117.0
3627,F3,299.5,117/1000,75,117.0
3628,F2,299.5,24/125,80,117.0
3629,E-3,299.5,0.25,86,117.0
3630,C2,299.5,0.25,110,117.0
3631,A4,299.5,0.25,105,117.0
3632,F1,299.517,171/500,86,117.0
3633,A4,299.75,0.25,100,117.0
3634,E-3,300.0,0.25,92,117.0
3635,C2,300.0,0.25,115,117.0
3636,A4,300.0,0.25,110,117.0
3637,F2,300.0,521/500,86,117.0
3638,F2,300.0,521/500,86,117.0
3639,F1,300.042,21/20,89,117.0
3640,A4,300.25,0.25,100,117.0
3641,E-3,300.5,0.25,89,117.0
3642,A4,300.5,0.25,100,117.0
3643,A4,300.75,0.25,105,117.0
3644,F3,301.0,0.125,75,117.0
3645,E-3,301.0,0.25,96,117.0
3646,E2,301.0,0.25,110,117.0
3647,A4,301.0,0.25,110,117.0
3648,A4,301.25,0.25,96,117.0
3649,C1,301.475,57/40,115,117.0
3650,C3,301.5,1433/1000,83,117.0
3651,C2,301.5,1233/1000,92,117.0
3652,E-3,301.5,0.25,83,117.0
3653,C2,301.5,0.25,110,117.0
3654,A4,301.5,0.25,96,117.0
3655,A4,301.75,0.25,96,117.0
3656,E-3,302.0,0.25,92,117.0
3657,A4,302.0,0.25,110,117.0
3658,A4,302.25,0.25,92,117.0
3659,E-3,302.5,0.25,86,117.0
3660,C2,302.5,0.25,115,117.0
3661,A4,302.5,0.25,92,117.0
3662,A4,302.75,0.25,100,117.0
3663,E-3,303.0,0.25,83,117.0
3664,E2,303.0,0.25,110,117.0
3665,A4,303.0,0.25,110,117.0
3666,E-3,303.0,229/500,94,117.0
3667,E-2,303.0,229/500,94,117.0
3668,E-1,303.025,383/1000,105,117.0
3669,A4,303.25,0.25,92,117.0
3670,E-3,303.5,0.25,86,117.0
3671,C2,303.5,0.25,110,117.0
3672,A4,303.5,0.25,92,117.0
3673,F3,303.5,79/500,76,117.0
3674,F2,303.5,79/500,76,117.0
3675,F1,303.517,129/500,89,117.0
3676,A4,303.75,0.25,96,117.0
3677,E-3,304.0,0.25,86,117.0
3678,C2,304.0,0.25,110,117.0
3679,A4,304.0,0.25,110,117.0
3680,F2,304.0,1033/1000,84,117.0
3681,F2,304.0,1033/1000,84,117.0
3682,F1,304.058,47/40,96,117.0
3683,A4,304.25,0.25,105,117.0
3684,E-3,304.5,0.25,86,117.0
3685,A4,304.5,0.25,89,117.0
3686,A4,304.75,0.25,100,117.0
3687,F3,305.0,117/1000,73,117.0
3688,E-3,305.0,0.25,80,117.0
3689,E2,305.0,0.25,100,117.0
3690,A4,305.0,0.25,110,117.0
3691,A4,305.25,0.25,105,117.0
3692,C3,305.5,721/500,86,117.0
3693,C2,305.5,1.25,100,117.0
3694,E-3,305.5,0.25,80,117.0
3695,C2,305.5,0.25,115,117.0
3696,A4,305.5,0.25,92,117.0
3697,C1,305.542,327/250,110,117.0
3698,A4,305.75,0.25,96,117.0
3699,E-3,306.0,117/1000,92,117.0
3700,A4,306.0,0.25,110,117.0
3701,A4,306.25,0.25,105,117.0
3702,E-3,306.5,0.25,89,117.0
3703,C2,306.5,0.25,105,117.0
3704,A4,306.5,0.25,100,117.0
3705,A4,306.75,0.25,100,117.0
3706,E-3,307.0,0.25,92,117.0
3707,E2,307.0,0.25,105,117.0
3708,A4,307.0,0.25,115,117.0
3709,E-3,307.0,127/250,94,117.0
3710,E-2,307.0,127/250,94,117.0
3711,E-1,307.033,417/1000,100,117.0
3712,A4,307.25,0.25,96,117.0
3713,E-3,307.5,0.25,86,117.0
3714,C2,307.5,0.25,105,117.0
3715,A4,307.5,0.25,86,117.0
3716,F3,307.5,7/40,78,117.0
3717,F2,307.5,7/40,78,117.0
3718,F1,307.533,121/500,80,117.0
3719,A4,307.75,0.25,100,117.0
3720,F2,308.0,479/500,86,117.0
3721,F2,308.0,1067/1000,96,117.0
3722,E-3,308.0,0.25,96,117.0
3723,C2,308.0,0.25,110,117.0
3724,A4,308.0,0.25,110,117.0
3725,F1,308.033,1133/1000,92,117.0
3726,A4,308.25,0.25,96,117.0
3727,E-3,308.5,0.25,89,117.0
3728,A4,308.5,0.25,96,117.0
3729,C4,308.5,9/20,76,117.0
3730,G#3,308.5,9/20,76,117.0
3731,A4,308.75,0.25,96,117.0
3732,F3,309.0,27/250,89,117.0
3733,E-3,309.0,0.25,96,117.0
3734,E2,309.0,0.25,100,117.0
3735,A4,309.0,0.25,110,117.0
3736,D4,309.0,26/125,71,117.0
3737,B-3,309.0,26/125,71,117.0
3738,A4,309.25,0.25,105,117.0
3739,C3,309.5,199/125,89,117.0
3740,C2,309.5,1267/1000,100,117.0
3741,E-3,309.5,0.25,83,117.0
3742,C2,309.5,0.25,115,117.0
3743,A4,309.5,0.25,96,117.0
3744,C1,309.508,1317/1000,105,117.0
3745,A4,309.75,0.25,100,117.0
3746,E-4,310.0,126/125,77,117.0
3747,C4,310.0,917/1000,63,117.0
3748,E-3,310.0,0.25,83,117.0
3749,A4,310.0,0.25,110,117.0
3750,A4,310.25,0.25,100,117.0
3751,E-3,310.5,0.25,86,117.0
3752,C2,310.5,0.25,110,117.0
3753,A4,310.5,0.25,100,117.0
3754,A4,310.75,0.25,100,117.0
3755,E-3,311.0,0.5,100,117.0
3756,E-2,311.0,417/1000,100,117.0
3757,E-3,311.0,0.25,92,117.0
3758,E2,311.0,0.25,105,117.0
3759,A4,311.0,0.25,115,117.0
3760,B-3,311.0,19/40,64,117.0
3761,D4,311.0,19/40,64,117.0
3762,E-1,311.017,433/1000,96,117.0
3763,A4,311.25,0.25,110,117.0
3764,G#3,311.5,129/500,71,117.0
3765,C4,311.5,7/20,80,117.0
3766,E-3,311.5,0.25,86,117.0
3767,C2,311.5,0.25,105,117.0
3768,A4,311.5,0.25,110,117.0
3769,F3,311.5,7/40,82,117.0
3770,F2,311.5,7/40,82,117.0
3771,F1,311.517,267/1000,83,117.0
3772,A4,311.75,0.25,105,117.0
3773,F1,312.0,479/500,100,117.0
3774,E-3,312.0,0.25,96,117.0
3775,C2,312.0,0.5,115,117.0
3776,A4,312.0,0.25,110,117.0
3777,F2,312.0,1017/1000,88,117.0
3778,F2,312.0,1017/1000,88,117.0
3779,A4,312.25,0.25,92,117.0
3780,E-3,312.5,0.25,89,117.0
3781,A4,312.5,0.25,92,117.0
3782,A4,312.75,0.25,100,117.0
3783,F3,313.0,71/500,83,117.0
3784,E-3,313.0,0.25,96,117.0
3785,E2,313.0,0.25,105,117.0
3786,A4,313.0,0.25,105,117.0
3787,A4,313.25,0.25,100,117.0
3788,C3,313.5,1517/1000,83,117.0
3789,C2,313.5,1217/1000,96,117.0
3790,E-3,313.5,0.25,83,117.0
3791,C2,313.5,0.5,110,117.0
3792,A4,313.5,0.25,100,117.0
3793,C1,313.517,323/250,115,117.0
3794,A4,313.75,0.25,96,117.0
3795,E-3,314.0,0.25,83,117.0
3796,A4,314.0,0.25,110,117.0
3797,A4,314.25,0.25,100,117.0
3798,E-3,314.5,0.25,86,117.0
3799,C2,314.5,0.5,115,117.0
3800,A4,314.5,0.25,110,117.0
3801,A4,314.75,0.25,100,117.0
3802,E-3,315.0,0.25,92,117.0
3803,E2,315.0,0.25,110,117.0
3804,A4,315.0,0.25,110,117.0
3805,E-3,315.0,17/40,94,117.0
3806,E-2,315.0,17/40,94,117.0
3807,E-1,315.017,49/125,105,117.0
3808,A4,315.25,0.25,92,117.0
3809,E-3,315.5,0.25,86,117.0
3810,C2,315.5,0.25,110,117.0
3811,A4,315.5,0.25,105,117.0
3812,F3,315.5,7/40,78,117.0
3813,F2,315.5,7/40,78,117.0
3814,F1,315.517,171/500,86,117.0
3815,A4,315.75,0.25,100,117.0
3816,F2,316.0,967/1000,83,117.0
3817,F2,316.0,521/500,96,117.0
3818,E-3,316.0,0.25,92,117.0
3819,C2,316.0,0.25,115,117.0
3820,A4,316.0,0.25,110,117.0
3821,F1,316.042,21/20,89,117.0
3822,A4,316.25,0.25,100,117.0
3823,E-3,316.5,0.25,89,117.0
3824,A4,316.5,0.25,100,117.0
3825,C4,316.5,9/20,76,117.0
3826,G#3,316.5,9/20,76,117.0
3827,A4,316.75,0.25,105,117.0
3828,F3,317.0,0.125,75,117.0
3829,E-3,317.0,0.25,96,117.0
3830,E2,317.0,0.25,110,117.0
3831,A4,317.0,0.25,110,117.0
3832,D4,317.0,26/125,71,117.0
3833,B-3,317.0,26/125,71,117.0
3834,A4,317.25,0.25,96,117.0
3835,C1,317.475,57/40,115,117.0
3836,C3,317.5,1433/1000,83,117.0
3837,C2,317.5,1217/1000,100,117.0
3838,E-3,317.5,0.25,83,117.0
3839,C2,317.5,0.25,110,117.0
3840,A4,317.5,0.25,96,117.0
3841,A4,317.75,0.25,96,117.0
3842,E-4,318.0,126/125,77,117.0
3843,C4,318.0,917/1000,63,117.0
3844,E-3,318.0,0.25,92,117.0
3845,A4,318.0,0.25,110,117.0
3846,A4,318.25,0.25,92,117.0
3847,E-3,318.5,0.25,86,117.0
3848,C2,318.5,0.25,115,117.0
3849,A4,318.5,0.25,92,117.0
3850,A4,318.75,0.25,100,117.0
3851,E-3,319.0,0.5,89,117.0
3852,E-2,319.0,383/1000,100,117.0
3853,E-3,319.0,0.25,83,117.0
3854,E2,319.0,0.25,110,117.0
3855,A4,319.0,0.25,110,117.0
3856,B-3,319.0,19/40,64,117.0
3857,D4,319.0,19/40,64,117.0
3858,E-1,319.025,383/1000,105,117.0
3859,A4,319.25,0.25,92,117.0
3860,G#3,319.5,129/500,71,117.0
3861,C4,319.5,7/20,80,117.0
3862,E-3,319.5,0.25,86,117.0
3863,C2,319.5,0.25,110,117.0
3864,A4,319.5,0.25,92,117.0
3865,F3,319.5,7/40,76,117.0
3866,F2,319.5,7/40,76,117.0
3867,F1,319.517,129/500,89,117.0
3868,A4,319.75,0.25,96,117.0
3869,E-3,320.0,0.25,86,117.0
3870,C2,320.0,0.25,110,117.0
3871,A4,320.0,0.25,110,117.0
3872,F2,320.0,41/40,84,117.0
3873,F2,320.0,41/40,84,117.0
3874,F1,320.058,47/40,96,117.0
3875,A4,320.25,0.25,105,117.0
3876,E-3,320.5,0.25,86,117.0
3877,A4,320.5,0.25,89,117.0
3878,A4,320.75,0.25,100,117.0
3879,F3,321.0,117/1000,73,117.0
3880,E-3,321.0,0.25,80,117.0
3881,E2,321.0,0.25,100,117.0
3882,A4,321.0,0.25,110,117.0
3883,A4,321.25,0.25,105,117.0
3884,C2,321.5,629/500,96,117.0
3885,C3,321.5,721/500,86,117.0
3886,E-3,321.5,0.25,80,117.0
3887,C2,321.5,0.25,115,117.0
3888,A4,321.5,0.25,92,117.0
3889,C1,321.542,327/250,110,117.0
3890,A4,321.75,0.25,96,117.0
3891,E-3,322.0,117/1000,92,117.0
3892,A4,322.0,0.25,110,117.0
3893,A4,322.25,0.25,105,117.0
3894,E-3,322.5,0.25,89,117.0
3895,C2,322.5,0.25,105,117.0
3896,A4,322.5,0.25,100,117.0
3897,A4,322.75,0.25,100,117.0
3898,E-3,323.0,0.25,92,117.0
3899,E2,323.0,0.25,105,117.0
3900,A4,323.0,0.25,115,117.0
3901,E-3,323.0,19/40,94,117.0
3902,E-2,323.0,19/40,94,117.0
3903,E-1,323.033,417/1000,100,117.0
3904,A4,323.25,0.25,96,117.0
3905,F3,323.5,0.125,73,117.0
3906,F2,323.5,1/5,92,117.0
3907,E-3,323.5,0.25,86,117.0
3908,C2,323.5,0.25,105,117.0
3909,A4,323.5,0.25,86,117.0
3910,F1,323.533,121/500,80,117.0
3911,A4,323.75,0.25,100,117.0
3912,B-2,324.0,267/1000,105,117.0
3913,C2,324.0,43/40,115,117.0
3914,B-2,324.5,283/1000,100,117.0
3915,E-4,324.5,121/500,89,117.0
3916,B-2,325.0,129/500,100,117.0
3917,D2,325.0,17/40,110,117.0
3918,C#4,325.0,26/125,105,117.0
3919,B-2,325.5,11/40,96,117.0
3920,C2,325.75,383/1000,115,117.0
3921,E-4,325.75,1/5,105,117.0
3922,B-2,326.0,121/500,105,117.0
3923,C#4,326.25,79/500,105,117.0
3924,B-2,326.5,9/40,86,117.0
3925,C2,326.5,267/1000,122,117.0
3926,C#4,326.75,71/500,105,117.0
3927,F4,327.0,51/125,100,117.0
3928,B-2,327.0,0.25,100,117.0
3929,D2,327.0,233/1000,110,117.0
3930,C#4,327.25,79/500,110,117.0
3931,F4,327.5,2/5,105,117.0
3932,B-2,327.5,0.25,100,117.0
3933,C2,327.5,11/40,115,117.0
3934,C#4,327.75,117/1000,105,117.0
3935,F2,328.0,967/1000,80,117.0
3936,F1,328.0,479/500,100,117.0
3937,E-3,328.0,0.25,96,117.0
3938,C2,328.0,0.5,115,117.0
3939,A4,328.0,0.25,110,117.0
3940,A4,328.25,0.25,92,117.0
3941,E-3,328.5,0.25,89,117.0
3942,A4,328.5,0.25,92,117.0
3943,C4,328.5,9/20,76,117.0
3944,G#3,328.5,9/20,76,117.0
3945,A4,328.75,0.25,100,117.0
3946,F3,329.0,71/500,83,117.0
3947,E-3,329.0,0.25,96,117.0
3948,E2,329.0,0.25,105,117.0
3949,A4,329.0,0.25,105,117.0
3950,D4,329.0,26/125,71,117.0
3951,B-3,329.0,26/125,71,117.0
3952,A4,329.25,0.25,100,117.0
3953,C3,329.5,1517/1000,83,117.0
3954,F4,329.5,0.25,92,117.0
3955,E-3,329.5,0.25,83,117.0
3956,C2,329.5,0.5,110,117.0
3957,A4,329.5,0.25,100,117.0
3958,C1,329.517,323/250,115,117.0
3959,A4,329.75,0.25,96,117.0
3960,E-4,330.0,126/125,77,117.0
3961,C4,330.0,917/1000,63,117.0
3962,G#4,330.0,0.5,115,117.0
3963,E-3,330.0,0.25,83,117.0
3964,A4,330.0,0.25,110,117.0
3965,A4,330.25,0.25,100,117.0
3966,B-4,330.5,0.25,96,117.0
3967,E-3,330.5,0.25,86,117.0
3968,C2,330.5,0.5,115,117.0
3969,A4,330.5,0.25,110,117.0
3970,A4,330.75,0.25,100,117.0
3971,E-3,331.0,467/1000,92,117.0
3972,B-4,331.0,1.0,110,117.0
3973,E-3,331.0,0.25,92,117.0
3974,E2,331.0,0.25,110,117.0
3975,A4,331.0,0.25,110,117.0
3976,B-3,331.0,19/40,64,117.0
3977,D4,331.0,19/40,64,117.0
3978,E-1,331.017,49/125,105,117.0
3979,A4,331.25,0.25,92,117.0
3980,G#3,331.5,129/500,71,117.0
3981,C4,331.5,7/20,80,117.0
3982,F3,331.5,117/1000,75,117.0
3983,E-3,331.5,0.25,86,117.0
3984,C2,331.5,0.25,110,117.0
3985,A4,331.5,0.25,105,117.0
3986,F1,331.517,171/500,86,117.0
3987,A4,331.75,0.25,100,117.0
3988,F2,332.0,521/500,83,117.0
3989,B-4,332.0,1.5,110,117.0
3990,E-3,332.0,0.25,92,117.0
3991,C2,332.0,0.25,115,117.0
3992,A4,332.0,0.25,110,117.0
3993,F1,332.042,21/20,89,117.0
3994,A4,332.25,0.25,100,117.0
3995,E-3,332.5,0.25,89,117.0
3996,A4,332.5,0.25,100,117.0
3997,C4,332.5,467/1000,64,117.0
3998,G#3,332.5,467/1000,64,117.0
3999,A4,332.75,0.25,105,117.0
4000,F3,333.0,0.125,75,117.0
4001,E-3,333.0,0.25,96,117.0
4002,E2,333.0,0.25,110,117.0
4003,A4,333.0,0.25,110,117.0
4004,D4,333.0,129/500,58,117.0
4005,B-3,333.0,129/500,58,117.0
4006,A4,333.25,0.25,96,117.0
4007,C1,333.475,57/40,115,117.0
4008,C3,333.5,1433/1000,83,117.0
4009,G#4,333.5,0.25,100,117.0
4010,E-3,333.5,0.25,83,117.0
4011,C2,333.5,0.25,110,117.0
4012,A4,333.5,0.25,96,117.0
4013,A4,333.75,0.25,96,117.0
4014,E-4,334.0,983/1000,73,117.0
4015,C4,334.0,223/250,60,117.0
4016,B-4,334.0,0.5,100,117.0
4017,E-3,334.0,0.25,92,117.0
4018,A4,334.0,0.25,110,117.0
4019,A4,334.25,0.25,92,117.0
4020,E-3,334.5,0.25,86,117.0
4021,C2,334.5,0.25,115,117.0
4022,A4,334.5,0.25,92,117.0
4023,C5,334.75,0.5,89,117.0
4024,A4,334.75,0.25,100,117.0
4025,E-3,335.0,0.5,89,117.0
4026,E-3,335.0,0.25,83,117.0
4027,E2,335.0,0.25,110,117.0
4028,A4,335.0,0.25,110,117.0
4029,D4,335.0,19/40,62,117.0
4030,B-3,335.0,19/40,62,117.0
4031,E-1,335.025,383/1000,105,117.0
4032,A4,335.25,0.25,92,117.0
4033,F3,335.5,133/1000,67,117.0
4034,E-4,335.5,0.5,89,117.0
4035,E-3,335.5,0.25,86,117.0
4036,C2,335.5,0.25,110,117.0
4037,A4,335.5,0.25,92,117.0
4038,C4,335.5,7/20,57,117.0
4039,G#3,335.5,7/20,57,117.0
4040,F1,335.517,129/500,89,117.0
4041,A4,335.75,0.25,96,117.0
4042,F2,336.0,41/40,77,117.0
4043,F4,336.0,1.25,89,117.0
4044,E-3,336.0,0.25,86,117.0
4045,C2,336.0,0.25,110,117.0
4046,A4,336.0,0.25,110,117.0
4047,F1,336.058,47/40,96,117.0
4048,A4,336.25,0.25,105,117.0
4049,E-3,336.5,0.25,86,117.0
4050,A4,336.5,0.25,89,117.0
4051,C4,336.5,19/40,72,117.0
4052,G#3,336.5,19/40,72,117.0
4053,A4,336.75,0.25,100,117.0
4054,F3,337.0,117/1000,73,117.0
4055,E-3,337.0,0.25,80,117.0
4056,E2,337.0,0.25,100,117.0
4057,A4,337.0,0.25,110,117.0
4058,D4,337.0,3/10,62,117.0
4059,B-3,337.0,3/10,62,117.0
4060,A4,337.25,0.25,105,117.0
4061,C3,337.5,721/500,86,117.0
4062,F4,337.5,93/40,96,117.0
4063,E-3,337.5,0.25,80,117.0
4064,C2,337.5,0.25,115,117.0
4065,A4,337.5,0.25,92,117.0
4066,C1,337.542,327/250,110,117.0
4067,A4,337.75,0.25,96,117.0
4068,E-3,338.0,117/1000,92,117.0
4069,A4,338.0,0.25,110,117.0
4070,E-4,338.0,917/1000,70,117.0
4071,C4,338.0,917/1000,70,117.0
4072,A4,338.25,0.25,105,117.0
4073,E-3,338.5,0.25,89,117.0
4074,C2,338.5,0.25,105,117.0
4075,A4,338.5,0.25,100,117.0
4076,A4,338.75,0.25,100,117.0
4077,E-3,339.0,19/40,89,117.0
4078,E-3,339.0,0.25,92,117.0
4079,E2,339.0,0.25,105,117.0
4080,A4,339.0,0.25,115,117.0
4081,D4,339.0,517/1000,68,117.0
4082,B-3,339.0,517/1000,68,117.0
4083,E-1,339.033,417/1000,100,117.0
4084,A4,339.25,0.25,96,117.0
4085,F3,339.5,0.125,73,117.0
4086,E-3,339.5,0.25,86,117.0
4087,C2,339.5,0.25,105,117.0
4088,A4,339.5,0.25,86,117.0
4089,G#3,339.5,417/1000,66,117.0
4090,C4,339.5,417/1000,66,117.0
4091,F1,339.533,121/500,80,117.0
4092,A4,339.75,0.25,100,117.0
4093,F2,340.0,479/500,86,117.0
4094,E-3,340.0,0.25,96,117.0
4095,C2,340.0,0.25,110,117.0
4096,A4,340.0,0.25,110,117.0
4097,F1,340.033,1133/1000,92,117.0
4098,A4,340.25,0.25,96,117.0
4099,E-3,340.5,0.25,89,117.0
4100,A4,340.5,0.25,96,117.0
4101,C4,340.5,467/1000,69,117.0
4102,G#3,340.5,467/1000,69,117.0
4103,A4,340.75,0.25,96,117.0
4104,F3,341.0,27/250,89,117.0
4105,E-3,341.0,0.25,96,117.0
4106,E2,341.0,0.25,100,117.0
4107,A4,341.0,0.25,110,117.0
4108,D4,341.0,0.25,69,117.0
4109,B-3,341.0,0.25,69,117.0
4110,A4,341.25,0.25,105,117.0
4111,C3,341.5,199/125,89,117.0
4112,E-3,341.5,0.25,83,117.0
4113,C2,341.5,0.25,115,117.0
4114,A4,341.5,0.25,96,117.0
4115,C1,341.508,1317/1000,105,117.0
4116,A4,341.75,0.25,100,117.0
4117,E-3,342.0,0.25,83,117.0
4118,A4,342.0,0.25,110,117.0
4119,E-4,342.0,933/1000,70,117.0
4120,C4,342.0,933/1000,70,117.0
4121,A4,342.25,0.25,100,117.0
4122,E-3,342.5,0.25,86,117.0
4123,C2,342.5,0.25,110,117.0
4124,A4,342.5,0.25,100,117.0
4125,A4,342.75,0.25,100,117.0
4126,E-3,343.0,0.5,100,117.0
4127,F4,343.0,0.5,65,117.0
4128,E-3,343.0,0.25,92,117.0
4129,E2,343.0,0.25,105,117.0
4130,A4,343.0,0.25,115,117.0
4131,D4,343.0,0.5,69,117.0
4132,B-3,343.0,0.5,69,117.0
4133,E-1,343.017,433/1000,96,117.0
4134,A4,343.25,0.25,110,117.0
4135,F3,343.5,7/40,80,117.0
4136,F5,343.5,0.5,115,117.0
4137,E-3,343.5,0.25,86,117.0
4138,C2,343.5,0.25,105,117.0
4139,A4,343.5,0.25,110,117.0
4140,C4,343.5,383/1000,63,117.0
4141,G#3,343.5,383/1000,63,117.0
4142,F1,343.517,267/1000,83,117.0
4143,A4,343.75,0.25,105,117.0
4144,C#2,344.0,39/40,89,117.0
4145,C#1,344.0,1167/1000,110,117.0
4146,E-3,344.0,0.25,92,117.0
4147,C2,344.0,0.5,115,117.0
4148,A4,344.0,0.25,110,117.0
4149,A4,344.25,0.25,92,117.0
4150,B3,344.475,9/20,92,117.0
4151,G#3,344.475,9/20,92,117.0
4152,E-3,344.5,0.25,89,117.0
4153,A4,344.5,0.25,92,117.0
4154,A4,344.75,0.25,100,117.0
4155,B-3,344.95,11/40,92,117.0
4156,C#4,344.95,11/40,92,117.0
4157,C#3,345.0,117/1000,80,117.0
4158,E-3,345.0,0.25,96,117.0
4159,E2,345.0,0.25,105,117.0
4160,A4,345.0,0.25,105,117.0
4161,A4,345.25,0.25,100,117.0
4162,G#2,345.5,199/125,92,117.0
4163,F4,345.5,0.25,86,117.0
4164,E-3,345.5,0.25,83,117.0
4165,C2,345.5,0.5,110,117.0
4166,A4,345.5,0.25,100,117.0
4167,G#1,345.508,629/500,100,117.0
4168,A4,345.75,0.25,96,117.0
4169,G#4,346.0,0.5,96,117.0
4170,E-3,346.0,0.25,92,117.0
4171,A4,346.0,0.25,110,117.0
4172,E-4,346.008,17/20,96,117.0
4173,B3,346.008,17/20,96,117.0
4174,A4,346.25,0.25,100,117.0
4175,B-4,346.5,0.5,64,117.0
4176,E-3,346.5,0.25,86,117.0
4177,C2,346.5,0.5,115,117.0
4178,A4,346.5,0.25,110,117.0
4179,A4,346.75,0.25,100,117.0
4180,C#4,346.975,2/5,92,117.0
4181,B-3,346.975,2/5,92,117.0
4182,B2,347.0,123/250,83,117.0
4183,E-3,347.0,0.25,83,117.0
4184,E2,347.0,0.25,100,117.0
4185,A4,347.0,0.25,110,117.0
4186,B1,347.017,229/500,92,117.0
4187,B-4,347.25,0.75,92,117.0
4188,A4,347.25,0.25,92,117.0
4189,G#3,347.467,217/1000,92,117.0
4190,B3,347.467,217/1000,92,117.0
4191,C#3,347.5,0.125,69,117.0
4192,E-3,347.5,0.25,86,117.0
4193,C2,347.5,0.25,110,117.0
4194,A4,347.5,0.25,105,117.0
4195,C#2,347.508,0.25,83,117.0
4196,A4,347.75,0.25,100,117.0
4197,C#2,348.0,1017/1000,80,117.0
4198,B-4,348.0,1.5,92,117.0
4199,E-3,348.0,0.25,86,117.0
4200,C2,348.0,0.25,115,117.0
4201,A4,348.0,0.25,110,117.0
4202,C#1,348.017,277/250,115,117.0
4203,A4,348.25,0.25,100,117.0
4204,E-3,348.5,0.25,86,117.0
4205,A4,348.5,0.25,100,117.0
4206,G#3,348.508,127/250,98,117.0
4207,B3,348.508,127/250,98,117.0
4208,A4,348.75,0.25,105,117.0
4209,C#4,349.0,183/1000,83,117.0
4210,C#3,349.0,117/1000,80,117.0
4211,E-3,349.0,0.25,80,117.0
4212,E2,349.0,0.25,105,117.0
4213,A4,349.0,0.25,110,117.0
4214,B-3,349.033,9/40,96,117.0
4215,A4,349.25,0.25,96,117.0
4216,G#2,349.5,1483/1000,92,117.0
4217,G#4,349.5,0.25,96,117.0
4218,E-3,349.5,0.25,80,117.0
4219,C2,349.5,0.25,110,117.0
4220,A4,349.5,0.25,96,117.0
4221,G#1,349.525,49/40,115,117.0
4222,A4,349.75,0.25,96,117.0
4223,B-4,350.0,0.75,96,117.0
4224,E-3,350.0,117/1000,92,117.0
4225,A4,350.0,0.25,110,117.0
4226,E-4,350.033,833/1000,102,117.0
4227,B3,350.033,833/1000,102,117.0
4228,A4,350.25,0.25,92,117.0
4229,E-3,350.5,0.25,89,117.0
4230,C2,350.5,0.25,115,117.0
4231,A4,350.5,0.25,92,117.0
4232,B4,350.75,0.75,100,117.0
4233,A4,350.75,0.25,100,117.0
4234,C#4,350.967,417/1000,89,117.0
4235,B-3,350.967,417/1000,89,117.0
4236,B2,351.0,0.5,80,117.0
4237,E-3,351.0,0.25,92,117.0
4238,E2,351.0,0.25,105,117.0
4239,A4,351.0,0.25,110,117.0
4240,B1,351.025,517/1000,92,117.0
4241,A4,351.25,0.25,92,117.0
4242,G#3,351.492,1/5,92,117.0
4243,B3,351.492,1/5,92,117.0
4244,C#3,351.5,1/10,58,117.0
4245,E-4,351.5,0.5,86,117.0
4246,E-3,351.5,0.25,86,117.0
4247,C2,351.5,0.25,110,117.0
4248,A4,351.5,0.25,92,117.0
4249,C#2,351.55,367/1000,89,117.0
4250,A4,351.75,0.25,96,117.0
4251,C#2,352.0,521/500,75,117.0
4252,F4,352.0,1.25,83,117.0
4253,E-3,352.0,0.25,92,117.0
4254,C2,352.0,0.25,110,117.0
4255,A4,352.0,0.25,110,117.0
4256,C#1,352.05,529/500,110,117.0
4257,A4,352.25,0.25,105,117.0
4258,E-3,352.5,0.25,89,117.0
4259,A4,352.5,0.25,89,117.0
4260,G#3,352.5,221/500,92,117.0
4261,B3,352.5,221/500,92,117.0
4262,A4,352.75,0.25,100,117.0
4263,C#4,352.992,3/10,86,117.0
4264,B-3,352.992,3/10,86,117.0
4265,C#3,353.0,117/1000,71,117.0
4266,E-3,353.0,0.25,96,117.0
4267,E2,353.0,0.25,80,117.0
4268,A4,353.0,0.25,110,117.0
4269,A4,353.25,0.25,105,117.0
4270,G#2,353.5,1533/1000,92,117.0
4271,F4,353.5,2.5,89,117.0
4272,E-3,353.5,0.25,83,117.0
4273,C2,353.5,0.25,115,117.0
4274,A4,353.5,0.25,92,117.0
4275,G#1,353.533,1.25,105,117.0
4276,A4,353.75,0.25,96,117.0
4277,E-3,354.0,0.25,92,117.0
4278,A4,354.0,0.25,110,117.0
4279,E-4,354.017,1.0,100,117.0
4280,B3,354.033,867/1000,92,117.0
4281,A4,354.25,0.25,105,117.0
4282,E-3,354.5,0.25,86,117.0
4283,C2,354.5,0.25,105,117.0
4284,A4,354.5,0.25,100,117.0
4285,A4,354.75,0.25,100,117.0
4286,B1,354.967,9/20,96,117.0
4287,C#4,354.992,417/1000,94,117.0
4288,B-3,354.992,417/1000,94,117.0
4289,B2,355.0,0.5,77,117.0
4290,E-3,355.0,0.25,83,117.0
4291,E2,355.0,0.25,110,117.0
4292,A4,355.0,0.25,115,117.0
4293,A4,355.25,0.25,96,117.0
4294,C#2,355.492,9/40,83,117.0
4295,C#3,355.5,23/250,65,117.0
4296,E-3,355.5,0.25,86,117.0
4297,C2,355.5,0.25,105,117.0
4298,A4,355.5,0.25,86,117.0
4299,B3,355.517,73/250,91,117.0
4300,G#3,355.517,73/250,91,117.0
4301,A4,355.75,0.25,100,117.0
4302,C#2,356.0,21/20,73,117.0
4303,C#1,356.0,571/500,105,117.0
4304,F4,356.0,63/40,89,117.0
4305,E-3,356.0,0.25,86,117.0
4306,C2,356.0,0.25,110,117.0
4307,A4,356.0,0.25,110,117.0
4308,F4,356.05,17/10,89,117.0
4309,A4,356.25,0.25,96,117.0
4310,B3,356.483,171/500,96,117.0
4311,G#3,356.483,171/500,96,117.0
4312,E-3,356.5,0.25,86,117.0
4313,A4,356.5,0.25,96,117.0
4314,A4,356.75,0.25,96,117.0
4315,C#4,356.958,11/40,83,117.0
4316,B-3,356.958,11/40,83,117.0
4317,C#3,357.0,133/1000,73,117.0
4318,E-3,357.0,0.25,80,117.0
4319,E2,357.0,0.25,80,117.0
4320,A4,357.0,0.25,110,117.0
4321,A4,357.25,0.25,105,117.0
4322,G#1,357.492,27/20,100,117.0
4323,G#2,357.5,31/20,86,117.0
4324,E-3,357.5,0.25,80,117.0
4325,C2,357.5,0.25,115,117.0
4326,A4,357.5,0.25,96,117.0
4327,A4,357.75,0.25,100,117.0
4328,E-3,358.0,117/1000,92,117.0
4329,A4,358.0,0.25,110,117.0
4330,E-4,358.017,37/40,96,117.0
4331,B3,358.017,37/40,96,117.0
4332,A4,358.25,0.25,100,117.0
4333,E-3,358.5,0.25,89,117.0
4334,C2,358.5,0.25,110,117.0
4335,A4,358.5,0.25,100,117.0
4336,A4,358.75,0.25,100,117.0
4337,B1,358.942,221/500,89,117.0
4338,C#4,358.983,383/1000,89,117.0
4339,B-3,358.983,383/1000,89,117.0
4340,B2,359.0,483/1000,75,117.0
4341,E-3,359.0,0.25,92,117.0
4342,E2,359.0,0.25,110,117.0
4343,A4,359.0,0.25,115,117.0
4344,A4,359.25,0.25,110,117.0
4345,C#2,359.458,367/1000,89,117.0
4346,G#3,359.467,77/250,98,117.0
4347,B3,359.467,77/250,98,117.0
4348,C#3,359.5,0.125,64,117.0
4349,E-3,359.5,0.25,86,117.0
4350,C2,359.5,0.25,105,117.0
4351,A4,359.5,0.25,110,117.0
4352,A4,359.75,0.25,105,117.0
4353,F2,360.0,967/1000,80,117.0
4354,F1,360.0,479/500,100,117.0
4355,E-3,360.0,0.25,96,117.0
4356,C2,360.0,0.5,115,117.0
4357,A4,360.0,0.25,110,117.0
4358,A4,360.25,0.25,92,117.0
4359,E-3,360.5,0.25,89,117.0
4360,A4,360.5,0.25,92,117.0
4361,C4,360.5,9/20,76,117.0
4362,G#3,360.5,9/20,76,117.0
4363,A4,360.75,0.25,100,117.0
4364,F3,361.0,71/500,83,117.0
4365,E-3,361.0,0.25,96,117.0
4366,E2,361.0,0.25,105,117.0
4367,A4,361.0,0.25,105,117.0
4368,D4,361.0,26/125,71,117.0
4369,B-3,361.0,26/125,71,117.0
4370,A4,361.25,0.25,100,117.0
4371,C3,361.5,1517/1000,83,117.0
4372,E-3,361.5,0.25,83,117.0
4373,C2,361.5,0.5,110,117.0
4374,A4,361.5,0.25,100,117.0
4375,C1,361.517,323/250,115,117.0
4376,A4,361.75,0.25,96,117.0
4377,E-4,362.0,126/125,77,117.0
4378,C4,362.0,917/1000,63,117.0
4379,E-3,362.0,0.25,83,117.0
4380,A4,362.0,0.25,110,117.0
4381,A4,362.25,0.25,100,117.0
4382,E-3,362.5,0.25,86,117.0
4383,C2,362.5,0.5,115,117.0
4384,A4,362.5,0.25,110,117.0
4385,A4,362.75,0.25,100,117.0
4386,E-3,363.0,467/1000,92,117.0
4387,E-3,363.0,0.25,92,117.0
4388,E2,363.0,0.25,110,117.0
4389,A4,363.0,0.25,110,117.0
4390,B-3,363.0,19/40,64,117.0
4391,D4,363.0,19/40,64,117.0
4392,E-1,363.017,49/125,105,117.0
4393,A4,363.25,0.25,92,117.0
4394,G#3,363.5,129/500,71,117.0
4395,C4,363.5,7/20,80,117.0
4396,F3,363.5,117/1000,75,117.0
4397,E-3,363.5,0.25,86,117.0
4398,C2,363.5,0.25,110,117.0
4399,A4,363.5,0.25,105,117.0
4400,F1,363.517,171/500,86,117.0
4401,A4,363.75,0.25,100,117.0
4402,F2,364.0,521/500,83,117.0
4403,E-3,364.0,0.25,92,117.0
4404,C2,364.0,0.25,115,117.0
4405,A4,364.0,0.25,110,117.0
4406,F1,364.042,21/20,89,117.0
4407,A4,364.25,0.25,100,117.0
4408,E-3,364.5,0.25,89,117.0
4409,A4,364.5,0.25,100,117.0
4410,C4,364.5,467/1000,64,117.0
4411,G#3,364.5,467/1000,64,117.0
4412,A4,364.75,0.25,105,117.0
4413,F3,365.0,0.125,75,117.0
4414,E-3,365.0,0.25,96,117.0
4415,E2,365.0,0.25,110,117.0
4416,A4,365.0,0.25,110,117.0
4417,D4,365.0,129/500,58,117.0
4418,B-3,365.0,129/500,58,117.0
4419,A4,365.25,0.25,96,117.0
4420,C1,365.475,57/40,115,117.0
4421,C3,365.5,1433/1000,83,117.0
4422,E-3,365.5,0.25,83,117.0
4423,C2,365.5,0.25,110,117.0
4424,A4,365.5,0.25,96,117.0
4425,A4,365.75,0.25,96,117.0
4426,E-4,366.0,983/1000,73,117.0
4427,C4,366.0,223/250,60,117.0
4428,E-3,366.0,0.25,92,117.0
4429,A4,366.0,0.25,110,117.0
4430,A4,366.25,0.25,92,117.0
4431,E-3,366.5,0.25,86,117.0
4432,C2,366.5,0.25,115,117.0
4433,A4,366.5,0.25,92,117.0
4434,A4,366.75,0.25,100,117.0
4435,E-3,367.0,0.5,89,117.0
4436,E-3,367.0,0.25,83,117.0
4437,E2,367.0,0.25,110,117.0
4438,A4,367.0,0.25,110,117.0
4439,D4,367.0,19/40,62,117.0
4440,B-3,367.0,19/40,62,117.0
4441,E-1,367.025,383/1000,105,117.0
4442,A4,367.25,0.25,92,117.0
4443,F3,367.5,133/1000,67,117.0
4444,E-3,367.5,0.25,86,117.0
4445,C2,367.5,0.25,110,117.0
4446,A4,367.5,0.25,92,117.0
4447,C4,367.5,7/20,57,117.0
4448,G#3,367.5,7/20,57,117.0
4449,F1,367.517,129/500,89,117.0
4450,A4,367.75,0.25,96,117.0
4451,F2,368.0,41/40,77,117.0
4452,E-3,368.0,0.25,86,117.0
4453,C2,368.0,0.25,110,117.0
4454,A4,368.0,0.25,110,117.0
4455,F1,368.058,47/40,96,117.0
4456,A4,368.25,0.25,105,117.0
4457,E-3,368.5,0.25,86,117.0
4458,A4,368.5,0.25,89,117.0
4459,C4,368.5,19/40,72,117.0
4460,G#3,368.5,19/40,72,117.0
4461,A4,368.75,0.25,100,117.0
4462,F3,369.0,117/1000,73,117.0
4463,E-3,369.0,0.25,80,117.0
4464,E2,369.0,0.25,100,117.0
4465,A4,369.0,0.25,110,117.0
4466,D4,369.0,3/10,62,117.0
4467,B-3,369.0,3/10,62,117.0
4468,A4,369.25,0.25,105,117.0
4469,C3,369.5,721/500,86,117.0
4470,E-3,369.5,0.25,80,117.0
4471,C2,369.5,0.25,115,117.0
4472,A4,369.5,0.25,92,117.0
4473,C1,369.542,327/250,110,117.0
4474,A4,369.75,0.25,96,117.0
4475,E-3,370.0,117/1000,92,117.0
4476,A4,370.0,0.25,110,117.0
4477,E-4,370.0,917/1000,70,117.0
4478,C4,370.0,917/1000,70,117.0
4479,A4,370.25,0.25,105,117.0
4480,E-3,370.5,0.25,89,117.0
4481,C2,370.5,0.25,105,117.0
4482,A4,370.5,0.25,100,117.0
4483,A4,370.75,0.25,100,117.0
4484,E-3,371.0,19/40,89,117.0
4485,E-3,371.0,0.25,92,117.0
4486,E2,371.0,0.25,105,117.0
4487,A4,371.0,0.25,115,117.0
4488,D4,371.0,517/1000,68,117.0
4489,B-3,371.0,517/1000,68,117.0
4490,E-1,371.033,417/1000,100,117.0
4491,A4,371.25,0.25,96,117.0
4492,F3,371.5,0.125,73,117.0
4493,E-3,371.5,0.25,86,117.0
4494,C2,371.5,0.25,105,117.0
4495,A4,371.5,0.25,86,117.0
4496,G#3,371.5,417/1000,66,117.0
4497,C4,371.5,417/1000,66,117.0
4498,F1,371.533,121/500,80,117.0
4499,A4,371.75,0.25,100,117.0
4500,F2,372.0,479/500,86,117.0
4501,E-3,372.0,0.25,96,117.0
4502,C2,372.0,0.25,110,117.0
4503,A4,372.0,0.25,110,117.0
4504,F1,372.033,1133/1000,92,117.0
4505,A4,372.25,0.25,96,117.0
4506,E-3,372.5,0.25,89,117.0
4507,A4,372.5,0.25,96,117.0
4508,C4,372.5,467/1000,69,117.0
4509,G#3,372.5,467/1000,69,117.0
4510,A4,372.75,0.25,96,117.0
4511,F3,373.0,27/250,89,117.0
4512,E-3,373.0,0.25,96,117.0
4513,E2,373.0,0.25,100,117.0
4514,A4,373.0,0.25,110,117.0
4515,D4,373.0,0.25,69,117.0
4516,B-3,373.0,0.25,69,117.0
4517,A4,373.25,0.25,105,117.0
4518,C3,373.5,199/125,89,117.0
4519,E-3,373.5,0.25,83,117.0
4520,C2,373.5,0.25,115,117.0
4521,A4,373.5,0.25,96,117.0
4522,C1,373.508,1317/1000,105,117.0
4523,A4,373.75,0.25,100,117.0
4524,E-3,374.0,0.25,83,117.0
4525,A4,374.0,0.25,110,117.0
4526,E-4,374.0,933/1000,70,117.0
4527,C4,374.0,933/1000,70,117.0
4528,A4,374.25,0.25,100,117.0
4529,E-3,374.5,0.25,86,117.0
4530,C2,374.5,0.25,110,117.0
4531,A4,374.5,0.25,100,117.0
4532,A4,374.75,0.25,100,117.0
4533,E-3,375.0,0.5,100,117.0
4534,E-3,375.0,0.25,92,117.0
4535,E2,375.0,0.25,105,117.0
4536,A4,375.0,0.25,115,117.0
4537,D4,375.0,0.5,69,117.0
4538,B-3,375.0,0.5,69,117.0
4539,E-1,375.017,433/1000,96,117.0
4540,A4,375.25,0.25,110,117.0
4541,F3,375.5,7/40,80,117.0
4542,E-3,375.5,0.25,86,117.0
4543,C2,375.5,0.25,105,117.0
4544,A4,375.5,0.25,110,117.0
4545,C4,375.5,383/1000,63,117.0
4546,G#3,375.5,383/1000,63,117.0
4547,F1,375.517,267/1000,83,117.0
4548,A4,375.75,0.25,105,117.0
4549,C#2,376.0,39/40,89,117.0
4550,C#1,376.0,1167/1000,110,117.0
4551,E-3,376.0,0.25,92,117.0
4552,C2,376.0,0.5,115,117.0
4553,A4,376.0,0.25,110,117.0
4554,A4,376.25,0.25,92,117.0
4555,B3,376.475,9/20,92,117.0
4556,G#3,376.475,9/20,92,117.0
4557,E-3,376.5,0.25,89,117.0
4558,A4,376.5,0.25,92,117.0
4559,A4,376.75,0.25,100,117.0
4560,B-3,376.95,11/40,92,117.0
4561,C#4,376.95,11/40,92,117.0
4562,C#3,377.0,117/1000,80,117.0
4563,E-3,377.0,0.25,96,117.0
4564,E2,377.0,0.25,105,117.0
4565,A4,377.0,0.25,105,117.0
4566,A4,377.25,0.25,100,117.0
4567,G#2,377.5,199/125,92,117.0
4568,E-3,377.5,0.25,83,117.0
4569,C2,377.5,0.5,110,117.0
4570,A4,377.5,0.25,100,117.0
4571,G#1,377.508,629/500,100,117.0
4572,A4,377.75,0.25,96,117.0
4573,E-3,378.0,0.25,92,117.0
4574,A4,378.0,0.25,110,117.0
4575,E-4,378.008,17/20,96,117.0
4576,B3,378.008,17/20,96,117.0
4577,A4,378.25,0.25,100,117.0
4578,E-3,378.5,0.25,86,117.0
4579,C2,378.5,0.5,115,117.0
4580,A4,378.5,0.25,110,117.0
4581,A4,378.75,0.25,100,117.0
4582,C#4,378.975,2/5,92,117.0
4583,B-3,378.975,2/5,92,117.0
4584,B2,379.0,123/250,83,117.0
4585,E-3,379.0,0.25,83,117.0
4586,E2,379.0,0.25,100,117.0
4587,A4,379.0,0.25,110,117.0
4588,B1,379.017,229/500,92,117.0
4589,A4,379.25,0.25,92,117.0
4590,G#3,379.467,217/1000,92,117.0
4591,B3,379.467,217/1000,92,117.0
4592,C#3,379.5,0.125,69,117.0
4593,E-3,379.5,0.25,86,117.0
4594,C2,379.5,0.25,110,117.0
4595,A4,379.5,0.25,105,117.0
4596,C#2,379.508,0.25,83,117.0
4597,A4,379.75,0.25,100,117.0
4598,C#2,380.0,1017/1000,80,117.0
4599,E-3,380.0,0.25,86,117.0
4600,C2,380.0,0.25,115,117.0
4601,A4,380.0,0.25,110,117.0
4602,C#1,380.017,277/250,115,117.0
4603,A4,380.25,0.25,100,117.0
4604,E-3,380.5,0.25,86,117.0
4605,A4,380.5,0.25,100,117.0
4606,G#3,380.508,127/250,98,117.0
4607,B3,380.508,127/250,98,117.0
4608,A4,380.75,0.25,105,117.0
4609,C#4,381.0,183/1000,83,117.0
4610,C#3,381.0,117/1000,80,117.0
4611,E-3,381.0,0.25,80,117.0
4612,E2,381.0,0.25,105,117.0
4613,A4,381.0,0.25,110,117.0
4614,B-3,381.033,9/40,96,117.0
4615,A4,381.25,0.25,96,117.0
4616,G#2,381.5,1483/1000,92,117.0
4617,E-3,381.5,0.25,80,117.0
4618,C2,381.5,0.25,110,117.0
4619,A4,381.5,0.25,96,117.0
4620,G#1,381.525,49/40,115,117.0
4621,A4,381.75,0.25,96,117.0
4622,E-3,382.0,117/1000,92,117.0
4623,A4,382.0,0.25,110,117.0
4624,E-4,382.033,833/1000,102,117.0
4625,B3,382.033,833/1000,102,117.0
4626,A4,382.25,0.25,92,117.0
4627,E-3,382.5,0.25,89,117.0
4628,C2,382.5,0.25,115,117.0
4629,A4,382.5,0.25,92,117.0
4630,A4,382.75,0.25,100,117.0
4631,C#4,382.967,417/1000,89,117.0
4632,B-3,382.967,417/1000,89,117.0
4633,B2,383.0,0.5,80,117.0
4634,E-3,383.0,0.25,92,117.0
4635,E2,383.0,0.25,105,117.0
4636,A4,383.0,0.25,110,117.0
4637,B1,383.025,517/1000,92,117.0
4638,A4,383.25,0.25,92,117.0
4639,G#3,383.492,1/5,92,117.0
4640,B3,383.492,1/5,92,117.0
4641,C#3,383.5,1/10,58,117.0
4642,E-3,383.5,0.25,86,117.0
4643,C2,383.5,0.25,110,117.0
4644,A4,383.5,0.25,92,117.0
4645,C#2,383.55,367/1000,89,117.0
4646,A4,383.75,0.25,96,117.0
4647,C#2,384.0,521/500,75,117.0
4648,E-3,384.0,0.25,92,117.0
4649,C2,384.0,0.25,110,117.0
4650,A4,384.0,0.25,110,117.0
4651,C#1,384.05,529/500,110,117.0
4652,A4,384.25,0.25,105,117.0
4653,E-3,384.5,0.25,89,117.0
4654,A4,384.5,0.25,89,117.0
4655,G#3,384.5,221/500,92,117.0
4656,B3,384.5,221/500,92,117.0
4657,A4,384.75,0.25,100,117.0
4658,C#4,384.992,3/10,86,117.0
4659,B-3,384.992,3/10,86,117.0
4660,C#3,385.0,117/1000,71,117.0
4661,E-3,385.0,0.25,96,117.0
4662,E2,385.0,0.25,80,117.0
4663,A4,385.0,0.25,110,117.0
4664,A4,385.25,0.25,105,117.0
4665,G#2,385.5,1533/1000,92,117.0
4666,E-3,385.5,0.25,83,117.0
4667,C2,385.5,0.25,115,117.0
4668,A4,385.5,0.25,92,117.0
4669,G#1,385.533,1.25,105,117.0
4670,A4,385.75,0.25,96,117.0
4671,E-3,386.0,0.25,92,117.0
4672,A4,386.0,0.25,110,117.0
4673,E-4,386.017,1.0,100,117.0
4674,B3,386.033,867/1000,92,117.0
4675,A4,386.25,0.25,105,117.0
4676,E-3,386.5,0.25,86,117.0
4677,C2,386.5,0.25,105,117.0
4678,A4,386.5,0.25,100,117.0
4679,A4,386.75,0.25,100,117.0
4680,B1,386.967,9/20,96,117.0
4681,C#4,386.992,417/1000,94,117.0
4682,B-3,386.992,417/1000,94,117.0
4683,B2,387.0,0.5,77,117.0
4684,E-3,387.0,0.25,83,117.0
4685,E2,387.0,0.25,110,117.0
4686,A4,387.0,0.25,115,117.0
4687,A4,387.25,0.25,96,117.0
4688,C#2,387.492,9/40,83,117.0
4689,C#3,387.5,23/250,65,117.0
4690,E-3,387.5,0.25,86,117.0
4691,C2,387.5,0.25,105,117.0
4692,A4,387.5,0.25,86,117.0
4693,B3,387.517,73/250,91,117.0
4694,G#3,387.517,73/250,91,117.0
4695,A4,387.75,0.25,100,117.0
4696,C#2,388.0,21/20,73,117.0
4697,C#1,388.0,571/500,105,117.0
4698,E-3,388.0,0.25,86,117.0
4699,C2,388.0,0.25,110,117.0
4700,A4,388.0,0.25,110,117.0
4701,A4,388.25,0.25,96,117.0
4702,B3,388.483,171/500,96,117.0
4703,G#3,388.483,171/500,96,117.0
4704,E-3,388.5,0.25,86,117.0
4705,A4,388.5,0.25,96,117.0
4706,A4,388.75,0.25,96,117.0
4707,C#4,388.958,11/40,83,117.0
4708,B-3,388.958,11/40,83,117.0
4709,C#3,389.0,133/1000,73,117.0
4710,E-3,389.0,0.25,80,117.0
4711,E2,389.0,0.25,80,117.0
4712,A4,389.0,0.25,110,117.0
4713,A4,389.25,0.25,105,117.0
4714,G#1,389.492,27/20,100,117.0
4715,G#2,389.5,31/20,86,117.0
4716,E-3,389.5,0.25,80,117.0
4717,C2,389.5,0.25,115,117.0
4718,A4,389.5,0.25,96,117.0
4719,A4,389.75,0.25,100,117.0
4720,E-3,390.0,117/1000,92,117.0
4721,A4,390.0,0.25,110,117.0
4722,E-4,390.017,37/40,96,117.0
4723,B3,390.017,37/40,96,117.0
4724,A4,390.25,0.25,100,117.0
4725,E-3,390.5,0.25,89,117.0
4726,C2,390.5,0.25,110,117.0
4727,A4,390.5,0.25,100,117.0
4728,A4,390.75,0.25,100,117.0
4729,B1,390.942,221/500,89,117.0
4730,C#4,390.983,383/1000,89,117.0
4731,B-3,390.983,383/1000,89,117.0
4732,B2,391.0,483/1000,75,117.0
4733,E-3,391.0,0.25,92,117.0
4734,E2,391.0,0.25,110,117.0
4735,A4,391.0,0.25,115,117.0
4736,A4,391.25,0.25,110,117.0
4737,C#2,391.458,367/1000,89,117.0
4738,G#3,391.467,77/250,98,117.0
4739,B3,391.467,77/250,98,117.0
4740,C#3,391.5,0.125,64,117.0
4741,E-3,391.5,0.25,86,117.0
4742,C2,391.5,0.25,105,117.0
4743,A4,391.5,0.25,110,117.0
4744,A4,391.75,0.25,105,117.0
4745,F2,392.0,967/1000,80,117.0
4746,F1,392.0,479/500,100,117.0
4747,E-3,392.0,0.25,96,117.0
4748,C2,392.0,0.5,115,117.0
4749,A4,392.0,0.25,110,117.0
4750,A4,392.25,0.25,92,117.0
4751,E-3,392.5,0.25,89,117.0
4752,A4,392.5,0.25,92,117.0
4753,C4,392.5,9/20,76,117.0
4754,G#3,392.5,9/20,76,117.0
4755,F4,392.5,3/10,98,117.0
4756,C5,392.5,3/10,98,117.0
4757,A4,392.75,0.25,100,117.0
4758,F3,393.0,71/500,83,117.0
4759,E-3,393.0,0.25,96,117.0
4760,E2,393.0,0.25,105,117.0
4761,A4,393.0,0.25,105,117.0
4762,D4,393.0,26/125,71,117.0
4763,B-3,393.0,26/125,71,117.0
4764,A4,393.25,0.25,100,117.0
4765,F4,393.25,11/40,105,117.0
4766,C5,393.25,11/40,105,117.0
4767,C3,393.5,1517/1000,83,117.0
4768,E-3,393.5,0.25,83,117.0
4769,C2,393.5,0.5,110,117.0
4770,A4,393.5,0.25,100,117.0
4771,C1,393.517,323/250,115,117.0
4772,A4,393.75,0.25,96,117.0
4773,E-4,394.0,126/125,77,117.0
4774,C4,394.0,917/1000,63,117.0
4775,E-3,394.0,0.25,83,117.0
4776,A4,394.0,0.25,110,117.0
4777,C5,394.0,19/40,105,117.0
4778,F4,394.0,19/40,105,117.0
4779,A4,394.25,0.25,100,117.0
4780,E-3,394.5,0.25,86,117.0
4781,C2,394.5,0.5,115,117.0
4782,A4,394.5,0.25,110,117.0
4783,E-5,394.5,221/500,102,117.0
4784,G#4,394.5,221/500,102,117.0
4785,A4,394.75,0.25,100,117.0
4786,E-3,395.0,467/1000,92,117.0
4787,E-3,395.0,0.25,92,117.0
4788,E2,395.0,0.25,110,117.0
4789,A4,395.0,0.25,110,117.0
4790,B-3,395.0,19/40,64,117.0
4791,D4,395.0,19/40,64,117.0
4792,E-1,395.017,49/125,105,117.0
4793,A4,395.25,0.25,92,117.0
4794,G#3,395.5,129/500,71,117.0
4795,C4,395.5,7/20,80,117.0
4796,F3,395.5,117/1000,75,117.0
4797,E-3,395.5,0.25,86,117.0
4798,C2,395.5,0.25,110,117.0
4799,A4,395.5,0.25,105,117.0
4800,F1,395.517,171/500,86,117.0
4801,A4,395.75,0.25,100,117.0
4802,F2,396.0,521/500,83,117.0
4803,E-3,396.0,0.25,92,117.0
4804,C2,396.0,0.25,115,117.0
4805,A4,396.0,0.25,110,117.0
4806,F1,396.042,21/20,89,117.0
4807,A4,396.25,0.25,100,117.0
4808,E-3,396.5,0.25,89,117.0
4809,A4,396.5,0.25,100,117.0
4810,C4,396.5,467/1000,64,117.0
4811,G#3,396.5,467/1000,64,117.0
4812,C4,396.5,77/250,105,117.0
4813,F3,396.5,77/250,105,117.0
4814,A4,396.75,0.25,105,117.0
4815,F3,397.0,0.125,75,117.0
4816,E-3,397.0,0.25,96,117.0
4817,E2,397.0,0.25,110,117.0
4818,A4,397.0,0.25,110,117.0
4819,D4,397.0,129/500,58,117.0
4820,B-3,397.0,129/500,58,117.0
4821,A4,397.25,0.25,96,117.0
4822,F3,397.25,317/1000,102,117.0
4823,C4,397.25,317/1000,102,117.0
4824,C1,397.475,57/40,115,117.0
4825,C3,397.5,1433/1000,83,117.0
4826,E-3,397.5,0.25,83,117.0
4827,C2,397.5,0.25,110,117.0
4828,A4,397.5,0.25,96,117.0
4829,A4,397.75,0.25,96,117.0
4830,E-4,398.0,983/1000,73,117.0
4831,C4,398.0,223/250,60,117.0
4832,C4,398.0,23/40,100,117.0
4833,F3,398.0,123/250,96,117.0
4834,E-3,398.0,0.25,92,117.0
4835,A4,398.0,0.25,110,117.0
4836,A4,398.25,0.25,92,117.0
4837,E-3,398.5,0.25,86,117.0
4838,C2,398.5,0.25,115,117.0
4839,A4,398.5,0.25,92,117.0
4840,E-4,398.5,221/500,98,117.0
4841,G#3,398.5,221/500,98,117.0
4842,A4,398.75,0.25,100,117.0
4843,E-3,399.0,0.5,89,117.0
4844,E-3,399.0,0.25,83,117.0
4845,E2,399.0,0.25,110,117.0
4846,A4,399.0,0.25,110,117.0
4847,D4,399.0,19/40,62,117.0
4848,B-3,399.0,19/40,62,117.0
4849,E-1,399.025,383/1000,105,117.0
4850,A4,399.25,0.25,92,117.0
4851,F3,399.5,133/1000,67,117.0
4852,E-3,399.5,0.25,86,117.0
4853,C2,399.5,0.25,110,117.0
4854,A4,399.5,0.25,92,117.0
4855,C4,399.5,7/20,57,117.0
4856,G#3,399.5,7/20,57,117.0
4857,F1,399.517,129/500,89,117.0
4858,A4,399.75,0.25,96,117.0
4859,F2,400.0,41/40,77,117.0
4860,E-3,400.0,0.25,86,117.0
4861,C2,400.0,0.25,110,117.0
4862,A4,400.0,0.25,110,117.0
4863,F1,400.058,47/40,96,117.0
4864,A4,400.25,0.25,105,117.0
4865,E-3,400.5,0.25,86,117.0
4866,A4,400.5,0.25,89,117.0
4867,C4,400.5,19/40,72,117.0
4868,G#3,400.5,19/40,72,117.0
4869,F4,400.5,77/250,98,117.0
4870,C5,400.5,77/250,98,117.0
4871,A4,400.75,0.25,100,117.0
4872,F3,401.0,117/1000,73,117.0
4873,E-3,401.0,0.25,80,117.0
4874,E2,401.0,0.25,100,117.0
4875,A4,401.0,0.25,110,117.0
4876,D4,401.0,3/10,62,117.0
4877,B-3,401.0,3/10,62,117.0
4878,A4,401.25,0.25,105,117.0
4879,F4,401.25,77/250,100,117.0
4880,C5,401.25,77/250,100,117.0
4881,C3,401.5,721/500,86,117.0
4882,E-3,401.5,0.25,80,117.0
4883,C2,401.5,0.25,115,117.0
4884,A4,401.5,0.25,92,117.0
4885,C1,401.542,327/250,110,117.0
4886,A4,401.75,0.25,96,117.0
4887,F4,402.0,9/20,96,117.0
4888,C5,402.0,279/500,100,117.0
4889,E-3,402.0,117/1000,92,117.0
4890,A4,402.0,0.25,110,117.0
4891,E-4,402.0,917/1000,70,117.0
4892,C4,402.0,917/1000,70,117.0
4893,A4,402.25,0.25,105,117.0
4894,E-3,402.5,0.25,89,117.0
4895,C2,402.5,0.25,105,117.0
4896,A4,402.5,0.25,100,117.0
4897,G#4,402.5,383/1000,108,117.0
4898,E-5,402.5,383/1000,108,117.0
4899,A4,402.75,0.25,100,117.0
4900,E-3,403.0,19/40,89,117.0
4901,E-3,403.0,0.25,92,117.0
4902,E2,403.0,0.25,105,117.0
4903,A4,403.0,0.25,115,117.0
4904,D4,403.0,517/1000,68,117.0
4905,B-3,403.0,517/1000,68,117.0
4906,E-1,403.033,417/1000,100,117.0
4907,A4,403.25,0.25,96,117.0
4908,F3,403.5,0.125,73,117.0
4909,E-3,403.5,0.25,86,117.0
4910,C2,403.5,0.25,105,117.0
4911,A4,403.5,0.25,86,117.0
4912,G#3,403.5,417/1000,66,117.0
4913,C4,403.5,417/1000,66,117.0
4914,F1,403.533,121/500,80,117.0
4915,A4,403.75,0.25,100,117.0
4916,F2,404.0,479/500,86,117.0
4917,E-3,404.0,0.25,96,117.0
4918,C2,404.0,0.25,110,117.0
4919,A4,404.0,0.25,110,117.0
4920,F1,404.033,1133/1000,92,117.0
4921,A4,404.25,0.25,96,117.0
4922,E-3,404.5,0.25,89,117.0
4923,A4,404.5,0.25,96,117.0
4924,C4,404.5,467/1000,69,117.0
4925,G#3,404.5,467/1000,69,117.0
4926,F3,404.5,7/20,100,117.0
4927,C4,404.5,7/20,100,117.0
4928,A4,404.75,0.25,96,117.0
4929,F3,405.0,27/250,89,117.0
4930,E-3,405.0,0.25,96,117.0
4931,E2,405.0,0.25,100,117.0
4932,A4,405.0,0.25,110,117.0
4933,D4,405.0,0.25,69,117.0
4934,B-3,405.0,0.25,69,117.0
4935,A4,405.25,0.25,105,117.0
4936,F3,405.25,13/40,103,117.0
4937,C4,405.25,13/40,103,117.0
4938,C3,405.5,199/125,89,117.0
4939,E-3,405.5,0.25,83,117.0
4940,C2,405.5,0.25,115,117.0
4941,A4,405.5,0.25,96,117.0
4942,C1,405.508,1317/1000,105,117.0
4943,A4,405.75,0.25,100,117.0
4944,E-3,406.0,0.25,83,117.0
4945,A4,406.0,0.25,110,117.0
4946,E-4,406.0,933/1000,70,117.0
4947,C4,406.0,933/1000,70,117.0
4948,F3,406.0,0.5,102,117.0
4949,C4,406.0,0.5,102,117.0
4950,A4,406.25,0.25,100,117.0
4951,E-3,406.5,0.25,86,117.0
4952,C2,406.5,0.25,110,117.0
4953,A4,406.5,0.25,100,117.0
4954,G#3,406.5,51/125,92,117.0
4955,E-4,406.5,51/125,92,117.0
4956,A4,406.75,0.25,100,117.0
4957,E-3,407.0,0.5,100,117.0
4958,E-3,407.0,0.25,92,117.0
4959,E2,407.0,0.25,105,117.0
4960,A4,407.0,0.25,115,117.0
4961,D4,407.0,0.5,69,117.0
4962,B-3,407.0,0.5,69,117.0
4963,E-1,407.017,433/1000,96,117.0
4964,A4,407.25,0.25,110,117.0
4965,F3,407.5,7/40,80,117.0
4966,E-3,407.5,0.25,86,117.0
4967,C2,407.5,0.25,105,117.0
4968,A4,407.5,0.25,110,117.0
4969,C4,407.5,383/1000,63,117.0
4970,G#3,407.5,383/1000,63,117.0
4971,F1,407.517,267/1000,83,117.0
4972,A4,407.75,0.25,105,117.0
4973,C#2,408.0,39/40,89,117.0
4974,C#1,408.0,1167/1000,110,117.0
4975,E-3,408.0,0.25,92,117.0
4976,C2,408.0,0.5,115,117.0
4977,A4,408.0,0.25,110,117.0
4978,A4,408.25,0.25,92,117.0
4979,B3,408.475,9/20,92,117.0
4980,G#3,408.475,9/20,92,117.0
4981,E-3,408.5,0.25,89,117.0
4982,A4,408.5,0.25,92,117.0
4983,A4,408.75,0.25,100,117.0
4984,B-3,408.95,11/40,92,117.0
4985,C#4,408.95,11/40,92,117.0
4986,C#3,409.0,117/1000,80,117.0
4987,E-3,409.0,0.25,96,117.0
4988,E2,409.0,0.25,105,117.0
4989,A4,409.0,0.25,105,117.0
4990,A4,409.25,0.25,100,117.0
4991,G#2,409.5,199/125,92,117.0
4992,F3,409.5,76/125,115,117.0
4993,E-3,409.5,0.25,83,117.0
4994,C2,409.5,0.5,110,117.0
4995,A4,409.5,0.25,100,117.0
4996,G#5,409.5,329/500,108,117.0
4997,F5,409.5,329/500,108,117.0
4998,F6,409.5,329/500,108,117.0
4999,C#5,409.5,329/500,108,117.0
5000,G#4,409.5,371/500,100,117.0
5001,C#4,409.5,371/500,100,117.0
5002,G#1,409.508,629/500,100,117.0
5003,A4,409.75,0.25,96,117.0
5004,E-3,410.0,0.25,92,117.0
5005,A4,410.0,0.25,110,117.0
5006,E-4,410.008,17/20,96,117.0
5007,B3,410.008,17/20,96,117.0
5008,A4,410.25,0.25,100,117.0
5009,E-3,410.5,0.25,86,117.0
5010,C2,410.5,0.5,115,117.0
5011,A4,410.5,0.25,110,117.0
5012,A4,410.75,0.25,100,117.0
5013,C#4,410.975,2/5,92,117.0
5014,B-3,410.975,2/5,92,117.0
5015,B2,411.0,123/250,83,117.0
5016,E-3,411.0,0.25,83,117.0
5017,E2,411.0,0.25,100,117.0
5018,A4,411.0,0.25,110,117.0
5019,B1,411.017,229/500,92,117.0
5020,A4,411.25,0.25,92,117.0
5021,G#3,411.467,217/1000,92,117.0
5022,B3,411.467,217/1000,92,117.0
5023,C#3,411.5,0.125,69,117.0
5024,E-3,411.5,0.25,86,117.0
5025,C2,411.5,0.25,110,117.0
5026,A4,411.5,0.25,105,117.0
5027,C#2,411.508,0.25,83,117.0
5028,A4,411.75,0.25,100,117.0
5029,C#2,412.0,1017/1000,80,117.0
5030,E-3,412.0,0.25,86,117.0
5031,C2,412.0,0.25,115,117.0
5032,A4,412.0,0.25,110,117.0
5033,C#1,412.017,277/250,115,117.0
5034,A4,412.25,0.25,100,117.0
5035,E-3,412.5,0.25,86,117.0
5036,A4,412.5,0.25,100,117.0
5037,G#3,412.508,127/250,98,117.0
5038,B3,412.508,127/250,98,117.0
5039,A4,412.75,0.25,105,117.0
5040,C#4,413.0,183/1000,83,117.0
5041,C#3,413.0,117/1000,80,117.0
5042,E-3,413.0,0.25,80,117.0
5043,E2,413.0,0.25,105,117.0
5044,A4,413.0,0.25,110,117.0
5045,B-3,413.033,9/40,96,117.0
5046,A4,413.25,0.25,96,117.0
5047,G#2,413.5,1483/1000,92,117.0
5048,G#4,413.5,13/20,110,117.0
5049,E-3,413.5,0.25,80,117.0
5050,C2,413.5,0.25,110,117.0
5051,A4,413.5,0.25,96,117.0
5052,G#5,413.5,667/1000,104,117.0
5053,C#5,413.5,667/1000,104,117.0
5054,F6,413.5,667/1000,104,117.0
5055,F5,413.5,667/1000,104,117.0
5056,F3,413.5,27/40,110,117.0
5057,C#4,413.5,27/40,110,117.0
5058,G#1,413.525,49/40,115,117.0
5059,A4,413.75,0.25,96,117.0
5060,E-3,414.0,117/1000,92,117.0
5061,A4,414.0,0.25,110,117.0
5062,E-4,414.033,833/1000,102,117.0
5063,B3,414.033,833/1000,102,117.0
5064,A4,414.25,0.25,92,117.0
5065,E-3,414.5,0.25,89,117.0
5066,C2,414.5,0.25,115,117.0
5067,A4,414.5,0.25,92,117.0
5068,A4,414.75,0.25,100,117.0
5069,C#4,414.967,417/1000,89,117.0
5070,B-3,414.967,417/1000,89,117.0
5071,B2,415.0,0.5,80,117.0
5072,E-3,415.0,0.25,92,117.0
5073,E2,415.0,0.25,105,117.0
5074,A4,415.0,0.25,110,117.0
5075,B1,415.025,517/1000,92,117.0
5076,A4,415.25,0.25,92,117.0
5077,G#3,415.492,1/5,92,117.0
5078,B3,415.492,1/5,92,117.0
5079,C#3,415.5,1/10,58,117.0
5080,E-3,415.5,0.25,86,117.0
5081,C2,415.5,0.25,110,117.0
5082,A4,415.5,0.25,92,117.0
5083,C#2,415.55,367/1000,89,117.0
5084,A4,415.75,0.25,96,117.0
5085,C#2,416.0,521/500,75,117.0
5086,E-3,416.0,0.25,92,117.0
5087,C2,416.0,0.25,110,117.0
5088,A4,416.0,0.25,110,117.0
5089,C#1,416.05,529/500,110,117.0
5090,A4,416.25,0.25,105,117.0
5091,E-3,416.5,0.25,89,117.0
5092,A4,416.5,0.25,89,117.0
5093,G#3,416.5,221/500,92,117.0
5094,B3,416.5,221/500,92,117.0
5095,A4,416.75,0.25,100,117.0
5096,C#4,416.992,3/10,86,117.0
5097,B-3,416.992,3/10,86,117.0
5098,C#3,417.0,117/1000,71,117.0
5099,E-3,417.0,0.25,96,117.0
5100,E2,417.0,0.25,80,117.0
5101,A4,417.0,0.25,110,117.0
5102,A4,417.25,0.25,105,117.0
5103,G#2,417.5,1533/1000,92,117.0
5104,F3,417.5,101/125,115,117.0
5105,E-3,417.5,0.25,83,117.0
5106,C2,417.5,0.25,115,117.0
5107,A4,417.5,0.25,92,117.0
5108,F5,417.5,583/1000,106,117.0
5109,F6,417.5,583/1000,106,117.0
5110,G#5,417.5,583/1000,106,117.0
5111,C#5,417.5,583/1000,106,117.0
5112,C#4,417.5,13/20,105,117.0
5113,G#4,417.5,13/20,105,117.0
5114,G#1,417.533,1.25,105,117.0
5115,A4,417.75,0.25,96,117.0
5116,E-3,418.0,0.25,92,117.0
5117,A4,418.0,0.25,110,117.0
5118,E-4,418.017,1.0,100,117.0
5119,B3,418.033,867/1000,92,117.0
5120,A4,418.25,0.25,105,117.0
5121,E-3,418.5,0.25,86,117.0
5122,C2,418.5,0.25,105,117.0
5123,A4,418.5,0.25,100,117.0
5124,A4,418.75,0.25,100,117.0
5125,B1,418.967,9/20,96,117.0
5126,C#4,418.992,417/1000,94,117.0
5127,B-3,418.992,417/1000,94,117.0
5128,B2,419.0,0.5,77,117.0
5129,E-3,419.0,0.25,83,117.0
5130,E2,419.0,0.25,110,117.0
5131,A4,419.0,0.25,115,117.0
5132,A4,419.25,0.25,96,117.0
5133,C#2,419.492,9/40,83,117.0
5134,C#3,419.5,23/250,65,117.0
5135,E-3,419.5,0.25,86,117.0
5136,C2,419.5,0.25,105,117.0
5137,A4,419.5,0.25,86,117.0
5138,B3,419.517,73/250,91,117.0
5139,G#3,419.517,73/250,91,117.0
5140,A4,419.75,0.25,100,117.0
5141,C#2,420.0,21/20,73,117.0
5142,C#1,420.0,571/500,105,117.0
5143,E-3,420.0,0.25,86,117.0
5144,C2,420.0,0.25,110,117.0
5145,A4,420.0,0.25,110,117.0
5146,A4,420.25,0.25,96,117.0
5147,B3,420.483,171/500,96,117.0
5148,G#3,420.483,171/500,96,117.0
5149,E-3,420.5,0.25,86,117.0
5150,A4,420.5,0.25,96,117.0
5151,A4,420.75,0.25,96,117.0
5152,C#4,420.958,11/40,83,117.0
5153,B-3,420.958,11/40,83,117.0
5154,C#3,421.0,133/1000,73,117.0
5155,E-3,421.0,0.25,80,117.0
5156,E2,421.0,0.25,80,117.0
5157,A4,421.0,0.25,110,117.0
5158,A4,421.25,0.25,105,117.0
5159,G#1,421.492,27/20,100,117.0
5160,G#2,421.5,31/20,86,117.0
5161,E-3,421.5,0.25,80,117.0
5162,C2,421.5,0.25,115,117.0
5163,A4,421.5,0.25,96,117.0
5164,A4,421.75,0.25,100,117.0
5165,E-3,422.0,117/1000,92,117.0
5166,A4,422.0,0.25,110,117.0
5167,E-4,422.017,37/40,96,117.0
5168,B3,422.017,37/40,96,117.0
5169,A4,422.25,0.25,100,117.0
5170,E-3,422.5,0.25,89,117.0
5171,C2,422.5,0.25,110,117.0
5172,A4,422.5,0.25,100,117.0
5173,A4,422.75,0.25,100,117.0
5174,B1,422.942,221/500,89,117.0
5175,C#4,422.983,383/1000,89,117.0
5176,B-3,422.983,383/1000,89,117.0
5177,B2,423.0,483/1000,75,117.0
5178,E-3,423.0,0.25,92,117.0
5179,E2,423.0,0.25,110,117.0
5180,A4,423.0,0.25,115,117.0
5181,A4,423.25,0.25,110,117.0
5182,C#2,423.458,367/1000,89,117.0
5183,G#3,423.467,77/250,98,117.0
5184,B3,423.467,77/250,98,117.0
5185,C#3,423.5,0.125,64,117.0
5186,E-3,423.5,0.25,86,117.0
5187,C2,423.5,0.25,105,117.0
5188,A4,423.5,0.25,110,117.0
5189,A4,423.75,0.25,105,117.0
5190,F2,424.0,967/1000,80,117.0
5191,F1,424.0,479/500,100,117.0
5192,E-3,424.0,0.25,96,117.0
5193,C2,424.0,0.5,115,117.0
5194,A4,424.0,0.25,110,117.0
5195,A4,424.25,0.25,92,117.0
5196,E-3,424.5,0.25,89,117.0
5197,A4,424.5,0.25,92,117.0
5198,C4,424.5,9/20,76,117.0
5199,G#3,424.5,9/20,76,117.0
5200,A4,424.75,0.25,100,117.0
5201,F3,425.0,71/500,83,117.0
5202,E-3,425.0,0.25,96,117.0
5203,E2,425.0,0.25,105,117.0
5204,A4,425.0,0.25,105,117.0
5205,D4,425.0,26/125,71,117.0
5206,B-3,425.0,26/125,71,117.0
5207,A4,425.25,0.25,100,117.0
5208,C3,425.5,1517/1000,83,117.0
5209,E-3,425.5,0.25,83,117.0
5210,C2,425.5,0.5,110,117.0
5211,A4,425.5,0.25,100,117.0
5212,C1,425.517,323/250,115,117.0
5213,A4,425.75,0.25,96,117.0
5214,E-4,426.0,126/125,77,117.0
5215,C4,426.0,917/1000,63,117.0
5216,E-3,426.0,0.25,83,117.0
5217,A4,426.0,0.25,110,117.0
5218,A4,426.25,0.25,100,117.0
5219,E-3,426.5,0.25,86,117.0
5220,C2,426.5,0.5,115,117.0
5221,A4,426.5,0.25,110,117.0
5222,A4,426.75,0.25,100,117.0
5223,E-3,427.0,467/1000,92,117.0
5224,E-3,427.0,0.25,92,117.0
5225,E2,427.0,0.25,110,117.0
5226,A4,427.0,0.25,110,117.0
5227,B-3,427.0,19/40,64,117.0
5228,D4,427.0,19/40,64,117.0
5229,E-1,427.017,49/125,105,117.0
5230,A4,427.25,0.25,92,117.0
5231,G#3,427.5,129/500,71,117.0
5232,C4,427.5,7/20,80,117.0
5233,F3,427.5,117/1000,75,117.0
5234,E-3,427.5,0.25,86,117.0
5235,C2,427.5,0.25,110,117.0
5236,A4,427.5,0.25,105,117.0
5237,F1,427.517,171/500,86,117.0
5238,A4,427.75,0.25,100,117.0
5239,F2,428.0,521/500,83,117.0
5240,E-3,428.0,0.25,92,117.0
5241,C2,428.0,0.25,115,117.0
5242,A4,428.0,0.25,110,117.0
5243,F1,428.042,21/20,89,117.0
5244,A4,428.25,0.25,100,117.0
5245,E-3,428.5,0.25,89,117.0
5246,A4,428.5,0.25,100,117.0
5247,C4,428.5,467/1000,64,117.0
5248,G#3,428.5,467/1000,64,117.0
5249,A4,428.75,0.25,105,117.0
5250,F3,429.0,0.125,75,117.0
5251,E-3,429.0,0.25,96,117.0
5252,E2,429.0,0.25,110,117.0
5253,A4,429.0,0.25,110,117.0
5254,D4,429.0,129/500,58,117.0
5255,B-3,429.0,129/500,58,117.0
5256,A4,429.25,0.25,96,117.0
5257,C1,429.475,57/40,115,117.0
5258,C3,429.5,1433/1000,83,117.0
5259,E-3,429.5,0.25,83,117.0
5260,C2,429.5,0.25,110,117.0
5261,A4,429.5,0.25,96,117.0
5262,A4,429.75,0.25,96,117.0
5263,E-4,430.0,983/1000,73,117.0
5264,C4,430.0,223/250,60,117.0
5265,E-3,430.0,0.25,92,117.0
5266,A4,430.0,0.25,110,117.0
5267,A4,430.25,0.25,92,117.0
5268,E-3,430.5,0.25,86,117.0
5269,C2,430.5,0.25,115,117.0
5270,A4,430.5,0.25,92,117.0
5271,A4,430.75,0.25,100,117.0
5272,E-3,431.0,0.5,89,117.0
5273,E-3,431.0,0.25,83,117.0
5274,E2,431.0,0.25,110,117.0
5275,A4,431.0,0.25,110,117.0
5276,D4,431.0,19/40,62,117.0
5277,B-3,431.0,19/40,62,117.0
5278,E-1,431.025,383/1000,105,117.0
5279,A4,431.25,0.25,92,117.0
5280,F3,431.5,133/1000,67,117.0
5281,E-3,431.5,0.25,86,117.0
5282,C2,431.5,0.25,110,117.0
5283,A4,431.5,0.25,92,117.0
5284,C4,431.5,7/20,57,117.0
5285,G#3,431.5,7/20,57,117.0
5286,F1,431.517,129/500,89,117.0
5287,A4,431.75,0.25,96,117.0
5288,F2,432.0,41/40,77,117.0
5289,E-3,432.0,0.25,86,117.0
5290,C2,432.0,0.25,110,117.0
5291,A4,432.0,0.25,110,117.0
5292,F1,432.058,47/40,96,117.0
5293,A4,432.25,0.25,105,117.0
5294,E-3,432.5,0.25,86,117.0
5295,A4,432.5,0.25,89,117.0
5296,C4,432.5,19/40,72,117.0
5297,G#3,432.5,19/40,72,117.0
5298,A4,432.75,0.25,100,117.0
5299,F3,433.0,117/1000,73,117.0
5300,E-3,433.0,0.25,80,117.0
5301,E2,433.0,0.25,100,117.0
5302,A4,433.0,0.25,110,117.0
5303,D4,433.0,3/10,62,117.0
5304,B-3,433.0,3/10,62,117.0
5305,A4,433.25,0.25,105,117.0
5306,C3,433.5,721/500,86,117.0
5307,E-3,433.5,0.25,80,117.0
5308,C2,433.5,0.25,115,117.0
5309,A4,433.5,0.25,92,117.0
5310,C1,433.542,327/250,110,117.0
5311,A4,433.75,0.25,96,117.0
5312,E-3,434.0,117/1000,92,117.0
5313,A4,434.0,0.25,110,117.0
5314,E-4,434.0,917/1000,70,117.0
5315,C4,434.0,917/1000,70,117.0
5316,A4,434.25,0.25,105,117.0
5317,E-3,434.5,0.25,89,117.0
5318,C2,434.5,0.25,105,117.0
5319,A4,434.5,0.25,100,117.0
5320,A4,434.75,0.25,100,117.0
5321,E-3,435.0,19/40,89,117.0
5322,E-3,435.0,0.25,92,117.0
5323,E2,435.0,0.25,105,117.0
5324,A4,435.0,0.25,115,117.0
5325,D4,435.0,517/1000,68,117.0
5326,B-3,435.0,517/1000,68,117.0
5327,E-1,435.033,417/1000,100,117.0
5328,A4,435.25,0.25,96,117.0
5329,F3,435.5,0.125,73,117.0
5330,E-3,435.5,0.25,86,117.0
5331,C2,435.5,0.25,105,117.0
5332,A4,435.5,0.25,86,117.0
5333,G#3,435.5,417/1000,66,117.0
5334,C4,435.5,417/1000,66,117.0
5335,F1,435.533,121/500,80,117.0
5336,A4,435.75,0.25,100,117.0
5337,F2,436.0,479/500,86,117.0
5338,E-3,436.0,0.25,96,117.0
5339,C2,436.0,0.25,110,117.0
5340,A4,436.0,0.25,110,117.0
5341,F1,436.033,1133/1000,92,117.0
5342,A4,436.25,0.25,96,117.0
5343,E-3,436.5,0.25,89,117.0
5344,A4,436.5,0.25,96,117.0
5345,C4,436.5,467/1000,69,117.0
5346,G#3,436.5,467/1000,69,117.0
5347,A4,436.75,0.25,96,117.0
5348,F3,437.0,27/250,89,117.0
5349,E-3,437.0,0.25,96,117.0
5350,E2,437.0,0.25,100,117.0
5351,A4,437.0,0.25,110,117.0
5352,D4,437.0,0.25,69,117.0
5353,B-3,437.0,0.25,69,117.0
5354,A4,437.25,0.25,105,117.0
5355,C3,437.5,199/125,89,117.0
5356,E-3,437.5,0.25,83,117.0
5357,C2,437.5,0.25,115,117.0
5358,A4,437.5,0.25,96,117.0
5359,C1,437.508,1317/1000,105,117.0
5360,A4,437.75,0.25,100,117.0
5361,E-3,438.0,0.25,83,117.0
5362,A4,438.0,0.25,110,117.0
5363,E-4,438.0,933/1000,70,117.0
5364,C4,438.0,933/1000,70,117.0
5365,A4,438.25,0.25,100,117.0
5366,E-3,438.5,0.25,86,117.0
5367,C2,438.5,0.25,110,117.0
5368,A4,438.5,0.25,100,117.0
5369,A4,438.75,0.25,100,117.0
5370,E-3,439.0,0.5,100,117.0
5371,E-3,439.0,0.25,92,117.0
5372,E2,439.0,0.25,105,117.0
5373,A4,439.0,0.25,115,117.0
5374,D4,439.0,0.5,69,117.0
5375,B-3,439.0,0.5,69,117.0
5376,E-1,439.017,433/1000,96,117.0
5377,A4,439.25,0.25,110,117.0
5378,F3,439.5,7/40,80,117.0
5379,E-3,439.5,0.25,86,117.0
5380,C2,439.5,0.25,105,117.0
5381,A4,439.5,0.25,110,117.0
5382,C4,439.5,383/1000,63,117.0
5383,G#3,439.5,383/1000,63,117.0
5384,F1,439.517,267/1000,83,117.0
5385,A4,439.75,0.25,105,117.0
5386,C#2,440.0,39/40,89,117.0
5387,C#1,440.0,1167/1000,110,117.0
5388,E-3,440.0,0.25,92,117.0
5389,C2,440.0,0.5,115,117.0
5390,A4,440.0,0.25,110,117.0
5391,A4,440.25,0.25,92,117.0
5392,B3,440.475,9/20,92,117.0
5393,G#3,440.475,9/20,92,117.0
5394,E-3,440.5,0.25,89,117.0
5395,A4,440.5,0.25,92,117.0
5396,A4,440.75,0.25,100,117.0
5397,B-3,440.95,11/40,92,117.0
5398,C#4,440.95,11/40,92,117.0
5399,C#3,441.0,117/1000,80,117.0
5400,E-3,441.0,0.25,96,117.0
5401,E2,441.0,0.25,105,117.0
5402,A4,441.0,0.25,105,117.0
5403,A4,441.25,0.25,100,117.0
5404,G#2,441.5,199/125,92,117.0
5405,E-3,441.5,0.25,83,117.0
5406,C2,441.5,0.5,110,117.0
5407,A4,441.5,0.25,100,117.0
5408,G#1,441.508,629/500,100,117.0
5409,A4,441.75,0.25,96,117.0
5410,E-3,442.0,0.25,92,117.0
5411,A4,442.0,0.25,110,117.0
5412,E-4,442.008,17/20,96,117.0
5413,B3,442.008,17/20,96,117.0
5414,A4,442.25,0.25,100,117.0
5415,E-3,442.5,0.25,86,117.0
5416,C2,442.5,0.5,115,117.0
5417,A4,442.5,0.25,110,117.0
5418,A4,442.75,0.25,100,117.0
5419,C#4,442.975,2/5,92,117.0
5420,B-3,442.975,2/5,92,117.0
5421,B2,443.0,123/250,83,117.0
5422,E-3,443.0,0.25,83,117.0
5423,E2,443.0,0.25,100,117.0
5424,A4,443.0,0.25,110,117.0
5425,B1,443.017,229/500,92,117.0
5426,A4,443.25,0.25,92,117.0
5427,G#3,443.467,217/1000,92,117.0
5428,B3,443.467,217/1000,92,117.0
5429,C#3,443.5,0.125,69,117.0
5430,E-3,443.5,0.25,86,117.0
5431,C2,443.5,0.25,110,117.0
5432,A4,443.5,0.25,105,117.0
5433,C#2,443.508,0.25,83,117.0
5434,A4,443.75,0.25,100,117.0
5435,C#2,444.0,1017/1000,80,117.0
5436,E-3,444.0,0.25,86,117.0
5437,C2,444.0,0.25,115,117.0
5438,A4,444.0,0.25,110,117.0
5439,C#1,444.017,277/250,115,117.0
5440,A4,444.25,0.25,100,117.0
5441,E-3,444.5,0.25,86,117.0
5442,A4,444.5,0.25,100,117.0
5443,G#3,444.508,127/250,98,117.0
5444,B3,444.508,127/250,98,117.0
5445,A4,444.75,0.25,105,117.0
5446,C#4,445.0,183/1000,83,117.0
5447,C#3,445.0,117/1000,80,117.0
5448,E-3,445.0,0.25,80,117.0
5449,E2,445.0,0.25,105,117.0
5450,A4,445.0,0.25,110,117.0
5451,B-3,445.033,9/40,96,117.0
5452,A4,445.25,0.25,96,117.0
5453,G#2,445.5,1483/1000,92,117.0
5454,E-3,445.5,0.25,80,117.0
5455,C2,445.5,0.25,110,117.0
5456,A4,445.5,0.25,96,117.0
5457,G#1,445.525,49/40,115,117.0
5458,A4,445.75,0.25,96,117.0
5459,E-3,446.0,117/1000,92,117.0
5460,A4,446.0,0.25,110,117.0
5461,E-4,446.033,833/1000,102,117.0
5462,B3,446.033,833/1000,102,117.0
5463,A4,446.25,0.25,92,117.0
5464,E-3,446.5,0.25,89,117.0
5465,C2,446.5,0.25,115,117.0
5466,A4,446.5,0.25,92,117.0
5467,A4,446.75,0.25,100,117.0
5468,C#4,446.967,417/1000,89,117.0
5469,B-3,446.967,417/1000,89,117.0
5470,B2,447.0,0.5,80,117.0
5471,E-3,447.0,0.25,92,117.0
5472,E2,447.0,0.25,105,117.0
5473,A4,447.0,0.25,110,117.0
5474,B1,447.025,517/1000,92,117.0
5475,A4,447.25,0.25,92,117.0
5476,G#3,447.492,1/5,92,117.0
5477,B3,447.492,1/5,92,117.0
5478,C#3,447.5,1/10,58,117.0
5479,E-3,447.5,0.25,86,117.0
5480,C2,447.5,0.25,110,117.0
5481,A4,447.5,0.25,92,117.0
5482,C#2,447.55,367/1000,89,117.0
5483,A4,447.75,0.25,96,117.0
5484,C#2,448.0,521/500,75,117.0
5485,E-3,448.0,0.25,92,117.0
5486,C2,448.0,0.25,110,117.0
5487,A4,448.0,0.25,110,117.0
5488,C#1,448.05,529/500,110,117.0
5489,A4,448.25,0.25,105,117.0
5490,E-3,448.5,0.25,89,117.0
5491,A4,448.5,0.25,89,117.0
5492,G#3,448.5,221/500,92,117.0
5493,B3,448.5,221/500,92,117.0
5494,A4,448.75,0.25,100,117.0
5495,C#4,448.992,3/10,86,117.0
5496,B-3,448.992,3/10,86,117.0
5497,C#3,449.0,117/1000,71,117.0
5498,E-3,449.0,0.25,96,117.0
5499,E2,449.0,0.25,80,117.0
5500,A4,449.0,0.25,110,117.0
5501,A4,449.25,0.25,105,117.0
5502,G#2,449.5,1533/1000,92,117.0
5503,E-3,449.5,0.25,83,117.0
5504,C2,449.5,0.25,115,117.0
5505,A4,449.5,0.25,92,117.0
5506,G#1,449.533,1.25,105,117.0
5507,A4,449.75,0.25,96,117.0
5508,E-3,450.0,0.25,92,117.0
5509,A4,450.0,0.25,110,117.0
5510,E-4,450.017,1.0,100,117.0
5511,B3,450.033,867/1000,92,117.0
5512,A4,450.25,0.25,105,117.0
5513,E-3,450.5,0.25,86,117.0
5514,C2,450.5,0.25,105,117.0
5515,A4,450.5,0.25,100,117.0
5516,A4,450.75,0.25,100,117.0
5517,B1,450.967,9/20,96,117.0
5518,C#4,450.992,417/1000,94,117.0
5519,B-3,450.992,417/1000,94,117.0
5520,B2,451.0,0.5,77,117.0
5521,E-3,451.0,0.25,83,117.0
5522,E2,451.0,0.25,110,117.0
5523,A4,451.0,0.25,115,117.0
5524,A4,451.25,0.25,96,117.0
5525,C#2,451.492,9/40,83,117.0
5526,C#3,451.5,23/250,65,117.0
5527,E-3,451.5,0.25,86,117.0
5528,C2,451.5,0.25,105,117.0
5529,A4,451.5,0.25,86,117.0
5530,B3,451.517,73/250,91,117.0
5531,G#3,451.517,73/250,91,117.0
5532,A4,451.75,0.25,100,117.0
5533,C#2,452.0,21/20,73,117.0
5534,C#1,452.0,571/500,105,117.0
5535,E-3,452.0,0.25,86,117.0
5536,C2,452.0,0.25,110,117.0
5537,A4,452.0,0.25,110,117.0
5538,A4,452.25,0.25,96,117.0
5539,B3,452.483,171/500,96,117.0
5540,G#3,452.483,171/500,96,117.0
5541,E-3,452.5,0.25,86,117.0
5542,A4,452.5,0.25,96,117.0
5543,A4,452.75,0.25,96,117.0
5544,C#4,452.958,11/40,83,117.0
5545,B-3,452.958,11/40,83,117.0
5546,C#3,453.0,133/1000,73,117.0
5547,E-3,453.0,0.25,80,117.0
5548,E2,453.0,0.25,80,117.0
5549,A4,453.0,0.25,110,117.0
5550,A4,453.25,0.25,105,117.0
5551,G#1,453.492,27/20,100,117.0
5552,G#2,453.5,31/20,86,117.0
5553,E-3,453.5,0.25,80,117.0
5554,C2,453.5,0.25,115,117.0
5555,A4,453.5,0.25,96,117.0
5556,A4,453.75,0.25,100,117.0
5557,E-3,454.0,117/1000,92,117.0
5558,A4,454.0,0.25,110,117.0
5559,E-4,454.017,37/40,96,117.0
5560,B3,454.017,37/40,96,117.0
5561,A4,454.25,0.25,100,117.0
5562,E-3,454.5,0.25,89,117.0
5563,C2,454.5,0.25,110,117.0
5564,A4,454.5,0.25,100,117.0
5565,A4,454.75,0.25,100,117.0
5566,B1,454.942,221/500,89,117.0
5567,C#4,454.983,383/1000,89,117.0
5568,B-3,454.983,383/1000,89,117.0
5569,B2,455.0,483/1000,75,117.0
5570,E-3,455.0,0.25,92,117.0
5571,E2,455.0,0.25,110,117.0
5572,A4,455.0,0.25,115,117.0
5573,A4,455.25,0.25,110,117.0
5574,C#2,455.458,367/1000,89,117.0
5575,G#3,455.467,77/250,98,117.0
5576,B3,455.467,77/250,98,117.0
5577,C#3,455.5,0.125,64,117.0
5578,E-3,455.5,0.25,86,117.0
5579,C2,455.5,0.25,105,117.0
5580,A4,455.5,0.25,110,117.0
5581,A4,455.75,0.25,105,117.0
5582,F2,456.0,967/1000,80,117.0
5583,F1,456.0,479/500,100,117.0
5584,E-3,456.0,0.25,96,117.0
5585,C2,456.0,0.5,115,117.0
5586,A4,456.0,0.25,110,117.0
5587,A4,456.25,0.25,92,117.0
5588,E-3,456.5,0.25,89,117.0
5589,A4,456.5,0.25,92,117.0
5590,C4,456.5,9/20,76,117.0
5591,G#3,456.5,9/20,76,117.0
5592,A4,456.75,0.25,100,117.0
5593,F3,457.0,71/500,83,117.0
5594,E-3,457.0,0.25,96,117.0
5595,E2,457.0,0.25,105,117.0
5596,A4,457.0,0.25,105,117.0
5597,D4,457.0,26/125,71,117.0
5598,B-3,457.0,26/125,71,117.0
5599,A4,457.25,0.25,100,117.0
5600,C3,457.5,1517/1000,83,117.0
5601,E-3,457.5,0.25,83,117.0
5602,C2,457.5,0.5,110,117.0
5603,A4,457.5,0.25,100,117.0
5604,C1,457.517,323/250,115,117.0
5605,A4,457.75,0.25,96,117.0
5606,E-4,458.0,126/125,77,117.0
5607,C4,458.0,917/1000,63,117.0
5608,E-3,458.0,0.25,83,117.0
5609,A4,458.0,0.25,110,117.0
5610,A4,458.25,0.25,100,117.0
5611,E-3,458.5,0.25,86,117.0
5612,C2,458.5,0.5,115,117.0
5613,A4,458.5,0.25,110,117.0
5614,A4,458.75,0.25,100,117.0
5615,E-3,459.0,467/1000,92,117.0
5616,E-3,459.0,0.25,92,117.0
5617,E2,459.0,0.25,110,117.0
5618,A4,459.0,0.25,110,117.0
5619,B-3,459.0,19/40,64,117.0
5620,D4,459.0,19/40,64,117.0
5621,E-1,459.017,49/125,105,117.0
5622,A4,459.25,0.25,92,117.0
5623,G#3,459.5,129/500,71,117.0
5624,C4,459.5,7/20,80,117.0
5625,F3,459.5,117/1000,75,117.0
5626,E-3,459.5,0.25,86,117.0
5627,C2,459.5,0.25,110,117.0
5628,A4,459.5,0.25,105,117.0
5629,F1,459.517,171/500,86,117.0
5630,A4,459.75,0.25,100,117.0
5631,F2,460.0,521/500,83,117.0
5632,E-3,460.0,0.25,92,117.0
5633,C2,460.0,0.25,115,117.0
5634,A4,460.0,0.25,110,117.0
5635,F1,460.042,21/20,89,117.0
5636,A4,460.25,0.25,100,117.0
5637,E-3,460.5,0.25,89,117.0
5638,A4,460.5,0.25,100,117.0
5639,C4,460.5,467/1000,64,117.0
5640,G#3,460.5,467/1000,64,117.0
5641,A4,460.75,0.25,105,117.0
5642,F3,461.0,0.125,75,117.0
5643,E-3,461.0,0.25,96,117.0
5644,E2,461.0,0.25,110,117.0
5645,A4,461.0,0.25,110,117.0
5646,D4,461.0,129/500,58,117.0
5647,B-3,461.0,129/500,58,117.0
5648,A4,461.25,0.25,96,117.0
5649,C1,461.475,57/40,115,117.0
5650,C3,461.5,1433/1000,83,117.0
5651,E-3,461.5,0.25,83,117.0
5652,C2,461.5,0.25,110,117.0
5653,A4,461.5,0.25,96,117.0
5654,A4,461.75,0.25,96,117.0
5655,E-4,462.0,983/1000,73,117.0
5656,C4,462.0,223/250,60,117.0
5657,E-3,462.0,0.25,92,117.0
5658,A4,462.0,0.25,110,117.0
5659,A4,462.25,0.25,92,117.0
5660,E-3,462.5,0.25,86,117.0
5661,C2,462.5,0.25,115,117.0
5662,A4,462.5,0.25,92,117.0
5663,A4,462.75,0.25,100,117.0
5664,E-3,463.0,0.5,89,117.0
5665,E-3,463.0,0.25,83,117.0
5666,E2,463.0,0.25,110,117.0
5667,A4,463.0,0.25,110,117.0
5668,D4,463.0,19/40,62,117.0
5669,B-3,463.0,19/40,62,117.0
5670,E-1,463.025,383/1000,105,117.0
5671,A4,463.25,0.25,92,117.0
5672,F3,463.5,133/1000,67,117.0
5673,E-3,463.5,0.25,86,117.0
5674,C2,463.5,0.25,110,117.0
5675,A4,463.5,0.25,92,117.0
5676,C4,463.5,7/20,57,117.0
5677,G#3,463.5,7/20,57,117.0
5678,F1,463.517,129/500,89,117.0
5679,A4,463.75,0.25,96,117.0
5680,F2,464.0,41/40,77,117.0
5681,E-3,464.0,0.25,86,117.0
5682,C2,464.0,0.25,110,117.0
5683,A4,464.0,0.25,110,117.0
5684,F1,464.058,47/40,96,117.0
5685,A4,464.25,0.25,105,117.0
5686,E-3,464.5,0.25,86,117.0
5687,A4,464.5,0.25,89,117.0
5688,C4,464.5,19/40,72,117.0
5689,G#3,464.5,19/40,72,117.0
5690,A4,464.75,0.25,100,117.0
5691,F3,465.0,117/1000,73,117.0
5692,E-3,465.0,0.25,80,117.0
5693,E2,465.0,0.25,100,117.0
5694,A4,465.0,0.25,110,117.0
5695,D4,465.0,3/10,62,117.0
5696,B-3,465.0,3/10,62,117.0
5697,A4,465.25,0.25,105,117.0
5698,C3,465.5,721/500,86,117.0
5699,E-3,465.5,0.25,80,117.0
5700,C2,465.5,0.25,115,117.0
5701,A4,465.5,0.25,92,117.0
5702,C1,465.542,327/250,110,117.0
5703,A4,465.75,0.25,96,117.0
5704,E-3,466.0,117/1000,92,117.0
5705,A4,466.0,0.25,110,117.0
5706,E-4,466.0,917/1000,70,117.0
5707,C4,466.0,917/1000,70,117.0
5708,A4,466.25,0.25,105,117.0
5709,E-3,466.5,0.25,89,117.0
5710,C2,466.5,0.25,105,117.0
5711,A4,466.5,0.25,100,117.0
5712,A4,466.75,0.25,100,117.0
5713,E-3,467.0,19/40,89,117.0
5714,E-3,467.0,0.25,92,117.0
5715,E2,467.0,0.25,105,117.0
5716,A4,467.0,0.25,115,117.0
5717,D4,467.0,517/1000,68,117.0
5718,B-3,467.0,517/1000,68,117.0
5719,E-1,467.033,417/1000,100,117.0
5720,A4,467.25,0.25,96,117.0
5721,F3,467.5,0.125,73,117.0
5722,E-3,467.5,0.25,86,117.0
5723,C2,467.5,0.25,105,117.0
5724,A4,467.5,0.25,86,117.0
5725,G#3,467.5,417/1000,66,117.0
5726,C4,467.5,417/1000,66,117.0
5727,F1,467.533,121/500,80,117.0
5728,A4,467.75,0.25,100,117.0
5729,F2,468.0,479/500,86,117.0
5730,E-3,468.0,0.25,96,117.0
5731,C2,468.0,0.25,110,117.0
5732,A4,468.0,0.25,110,117.0
5733,F1,468.033,1133/1000,92,117.0
5734,A4,468.25,0.25,96,117.0
5735,E-3,468.5,0.25,89,117.0
5736,A4,468.5,0.25,96,117.0
5737,C4,468.5,467/1000,69,117.0
5738,G#3,468.5,467/1000,69,117.0
5739,A4,468.75,0.25,96,117.0
5740,F3,469.0,27/250,89,117.0
5741,E-3,469.0,0.25,96,117.0
5742,E2,469.0,0.25,100,117.0
5743,A4,469.0,0.25,110,117.0
5744,D4,469.0,0.25,69,117.0
5745,B-3,469.0,0.25,69,117.0
5746,A4,469.25,0.25,105,117.0
5747,C3,469.5,199/125,89,117.0
5748,E-3,469.5,0.25,83,117.0
5749,C2,469.5,0.25,115,117.0
5750,A4,469.5,0.25,96,117.0
5751,C1,469.508,1317/1000,105,117.0
5752,A4,469.75,0.25,100,117.0
5753,E-3,470.0,0.25,83,117.0
5754,A4,470.0,0.25,110,117.0
5755,E-4,470.0,933/1000,70,117.0
5756,C4,470.0,933/1000,70,117.0
5757,A4,470.25,0.25,100,117.0
5758,E-3,470.5,0.25,86,117.0
5759,C2,470.5,0.25,110,117.0
5760,A4,470.5,0.25,100,117.0
5761,A4,470.75,0.25,100,117.0
5762,E-3,471.0,0.5,100,117.0
5763,E-3,471.0,0.25,92,117.0
5764,E2,471.0,0.25,105,117.0
5765,A4,471.0,0.25,115,117.0
5766,D4,471.0,0.5,69,117.0
5767,B-3,471.0,0.5,69,117.0
5768,E-1,471.017,433/1000,96,117.0
5769,A4,471.25,0.25,110,117.0
5770,F3,471.5,7/40,80,117.0
5771,E-3,471.5,0.25,86,117.0
5772,C2,471.5,0.25,105,117.0
5773,A4,471.5,0.25,110,117.0
5774,C4,471.5,383/1000,63,117.0
5775,G#3,471.5,383/1000,63,117.0
5776,F1,471.517,267/1000,83,117.0
5777,A4,471.75,0.25,105,117.0
5778,C#2,472.0,39/40,89,117.0
5779,C#1,472.0,1167/1000,110,117.0
5780,E-3,472.0,0.25,92,117.0
5781,C2,472.0,0.5,115,117.0
5782,A4,472.0,0.25,110,117.0
5783,A4,472.25,0.25,92,117.0
5784,B3,472.475,9/20,92,117.0
5785,G#3,472.475,9/20,92,117.0
5786,E-3,472.5,0.25,89,117.0
5787,A4,472.5,0.25,92,117.0
5788,A4,472.75,0.25,100,117.0
5789,B-3,472.95,11/40,92,117.0
5790,C#4,472.95,11/40,92,117.0
5791,C#3,473.0,117/1000,80,117.0
5792,E-3,473.0,0.25,96,117.0
5793,E2,473.0,0.25,105,117.0
5794,A4,473.0,0.25,105,117.0
5795,A4,473.25,0.25,100,117.0
5796,G#2,473.5,199/125,92,117.0
5797,E-3,473.5,0.25,83,117.0
5798,C2,473.5,0.5,110,117.0
5799,A4,473.5,0.25,100,117.0
5800,G#1,473.508,629/500,100,117.0
5801,A4,473.75,0.25,96,117.0
5802,E-3,474.0,0.25,92,117.0
5803,A4,474.0,0.25,110,117.0
5804,E-4,474.008,17/20,96,117.0
5805,B3,474.008,17/20,96,117.0
5806,A4,474.25,0.25,100,117.0
5807,E-3,474.5,0.25,86,117.0
5808,C2,474.5,0.5,115,117.0
5809,A4,474.5,0.25,110,117.0
5810,A4,474.75,0.25,100,117.0
5811,C#4,474.975,2/5,92,117.0
5812,B-3,474.975,2/5,92,117.0
5813,B2,475.0,123/250,83,117.0
5814,E-3,475.0,0.25,83,117.0
5815,E2,475.0,0.25,100,117.0
5816,A4,475.0,0.25,110,117.0
5817,B1,475.017,229/500,92,117.0
5818,A4,475.25,0.25,92,117.0
5819,G#3,475.467,217/1000,92,117.0
5820,B3,475.467,217/1000,92,117.0
5821,C#3,475.5,0.125,69,117.0
5822,E-3,475.5,0.25,86,117.0
5823,C2,475.5,0.25,110,117.0
5824,A4,475.5,0.25,105,117.0
5825,C#2,475.508,0.25,83,117.0
5826,A4,475.75,0.25,100,117.0
5827,C#2,476.0,1017/1000,80,117.0
5828,E-3,476.0,0.25,86,117.0
5829,C2,476.0,0.25,115,117.0
5830,A4,476.0,0.25,110,117.0
5831,C#1,476.017,277/250,115,117.0
5832,A4,476.25,0.25,100,117.0
5833,E-3,476.5,0.25,86,117.0
5834,A4,476.5,0.25,100,117.0
5835,G#3,476.508,127/250,98,117.0
5836,B3,476.508,127/250,98,117.0
5837,A4,476.75,0.25,105,117.0
5838,C#4,477.0,183/1000,83,117.0
5839,C#3,477.0,117/1000,80,117.0
5840,E-3,477.0,0.25,80,117.0
5841,E2,477.0,0.25,105,117.0
5842,A4,477.0,0.25,110,117.0
5843,B-3,477.033,9/40,96,117.0
5844,A4,477.25,0.25,96,117.0
5845,G#2,477.5,1483/1000,92,117.0
5846,E-3,477.5,0.25,80,117.0
5847,C2,477.5,0.25,110,117.0
5848,A4,477.5,0.25,96,117.0
5849,G#1,477.525,49/40,115,117.0
5850,A4,477.75,0.25,96,117.0
5851,E-3,478.0,117/1000,92,117.0
5852,A4,478.0,0.25,110,117.0
5853,E-4,478.033,833/1000,102,117.0
5854,B3,478.033,833/1000,102,117.0
5855,A4,478.25,0.25,92,117.0
5856,E-3,478.5,0.25,89,117.0
5857,C2,478.5,0.25,115,117.0
5858,A4,478.5,0.25,92,117.0
5859,A4,478.75,0.25,100,117.0
5860,C#4,478.967,417/1000,89,117.0
5861,B-3,478.967,417/1000,89,117.0
5862,B2,479.0,0.5,80,117.0
5863,E-3,479.0,0.25,92,117.0
5864,E2,479.0,0.25,105,117.0
5865,A4,479.0,0.25,110,117.0
5866,B1,479.025,517/1000,92,117.0
5867,A4,479.25,0.25,92,117.0
5868,G#3,479.492,1/5,92,117.0
5869,B3,479.492,1/5,92,117.0
5870,C#3,479.5,1/10,58,117.0
5871,E-3,479.5,0.25,86,117.0
5872,C2,479.5,0.25,110,117.0
5873,A4,479.5,0.25,92,117.0
5874,C#2,479.55,367/1000,89,117.0
5875,A4,479.75,0.25,96,117.0
5876,C#2,480.0,521/500,75,117.0
5877,E-3,480.0,0.25,92,117.0
5878,C2,480.0,0.25,110,117.0
5879,A4,480.0,0.25,110,117.0
5880,C#1,480.05,529/500,110,117.0
5881,A4,480.25,0.25,105,117.0
5882,E-3,480.5,0.25,89,117.0
5883,A4,480.5,0.25,89,117.0
5884,G#3,480.5,221/500,92,117.0
5885,B3,480.5,221/500,92,117.0
5886,A4,480.75,0.25,100,117.0
5887,C#4,480.992,3/10,86,117.0
5888,B-3,480.992,3/10,86,117.0
5889,C#3,481.0,117/1000,71,117.0
5890,E-3,481.0,0.25,96,117.0
5891,E2,481.0,0.25,80,117.0
5892,A4,481.0,0.25,110,117.0
5893,A4,481.25,0.25,105,117.0
5894,G#2,481.5,1533/1000,92,117.0
5895,E-3,481.5,0.25,83,117.0
5896,C2,481.5,0.25,115,117.0
5897,A4,481.5,0.25,92,117.0
5898,G#1,481.533,1.25,105,117.0
5899,A4,481.75,0.25,96,117.0
5900,E-3,482.0,0.25,92,117.0
5901,A4,482.0,0.25,110,117.0
5902,E-4,482.017,1.0,100,117.0
5903,B3,482.033,867/1000,92,117.0
5904,A4,482.25,0.25,105,117.0
5905,E-3,482.5,0.25,86,117.0
5906,C2,482.5,0.25,105,117.0
5907,A4,482.5,0.25,100,117.0
5908,A4,482.75,0.25,100,117.0
5909,B1,482.967,9/20,96,117.0
5910,C#4,482.992,417/1000,94,117.0
5911,B-3,482.992,417/1000,94,117.0
5912,B2,483.0,0.5,77,117.0
5913,E-3,483.0,0.25,83,117.0
5914,E2,483.0,0.25,110,117.0
5915,A4,483.0,0.25,115,117.0
5916,A4,483.25,0.25,96,117.0
5917,C#2,483.492,9/40,83,117.0
5918,C#3,483.5,23/250,65,117.0
5919,E-3,483.5,0.25,86,117.0
5920,C2,483.5,0.25,105,117.0
5921,A4,483.5,0.25,86,117.0
5922,B3,483.517,73/250,91,117.0
5923,G#3,483.517,73/250,91,117.0
5924,A4,483.75,0.25,100,117.0
5925,C#2,484.0,21/20,73,117.0
5926,C#1,484.0,571/500,105,117.0
5927,E-3,484.0,0.25,86,117.0
5928,C2,484.0,0.25,110,117.0
5929,A4,484.0,0.25,110,117.0
5930,A4,484.25,0.25,96,117.0
5931,B3,484.483,171/500,96,117.0
5932,G#3,484.483,171/500,96,117.0
5933,E-3,484.5,0.25,86,117.0
5934,A4,484.5,0.25,96,117.0
5935,A4,484.75,0.25,96,117.0
5936,C#4,484.958,11/40,83,117.0
5937,B-3,484.958,11/40,83,117.0
5938,C#3,485.0,133/1000,73,117.0
5939,E-3,485.0,0.25,80,117.0
5940,E2,485.0,0.25,80,117.0
5941,A4,485.0,0.25,110,117.0
5942,A4,485.25,0.25,105,117.0
5943,G#1,485.492,27/20,100,117.0
5944,G#2,485.5,31/20,86,117.0
5945,E-3,485.5,0.25,80,117.0
5946,C2,485.5,0.25,115,117.0
5947,A4,485.5,0.25,96,117.0
5948,A4,485.75,0.25,100,117.0
5949,E-3,486.0,117/1000,92,117.0
5950,A4,486.0,0.25,110,117.0
5951,E-4,486.017,37/40,96,117.0
5952,B3,486.017,37/40,96,117.0
5953,A4,486.25,0.25,100,117.0
5954,E-3,486.5,0.25,89,117.0
5955,C2,486.5,0.25,110,117.0
5956,A4,486.5,0.25,100,117.0
5957,A4,486.75,0.25,100,117.0
5958,B1,486.942,221/500,89,117.0
5959,C#4,486.983,383/1000,89,117.0
5960,B-3,486.983,383/1000,89,117.0
5961,B2,487.0,483/1000,75,117.0
5962,E-3,487.0,0.25,92,117.0
5963,E2,487.0,0.25,110,117.0
5964,A4,487.0,0.25,115,117.0
5965,A4,487.25,0.25,110,117.0
5966,C#2,487.458,367/1000,89,117.0
5967,G#3,487.467,77/250,98,117.0
5968,B3,487.467,77/250,98,117.0
5969,C#3,487.5,0.125,64,117.0
5970,E-3,487.5,0.25,86,117.0
5971,C2,487.5,0.25,105,117.0
5972,A4,487.5,0.25,110,117.0
5973,A4,487.75,0.25,105,117.0
