,note_name,start_time,duration,velocity,tempo
0,A2,0.0,1.0,95,220.0
1,A2,0.0,1.0,95,220.0
2,G3,1.0,1.0,111,220.0
3,G3,1.0,1.0,95,220.0
4,B-2,2.0,1.0,95,220.0
5,B-2,2.0,1.0,95,220.0
6,G3,3.0,1.0,111,220.0
7,G3,3.0,1.0,95,220.0
8,A2,4.0,1.0,95,220.0
9,A2,4.0,1.0,95,220.0
10,G3,5.0,1.0,111,220.0
11,G3,5.0,1.0,95,220.0
12,B-2,6.0,1.0,95,220.0
13,B-2,6.0,1.0,95,220.0
14,G3,7.0,1.0,111,220.0
15,G3,7.0,1.0,95,220.0
16,A2,8.0,1.0,95,220.0
17,A2,8.0,1.0,95,220.0
18,G3,9.0,1.0,111,220.0
19,G3,9.0,1.0,95,220.0
20,B-2,10.0,1.0,95,220.0
21,B-2,10.0,1.0,95,220.0
22,G3,11.0,1.0,111,220.0
23,G3,11.0,1.0,95,220.0
24,A2,12.0,1.0,95,220.0
25,A2,12.0,1.0,95,220.0
26,G3,13.0,1.0,111,220.0
27,G3,13.0,1.0,95,220.0
28,B-2,14.0,1.0,95,220.0
29,B-2,14.0,1.0,95,220.0
30,G3,15.0,1.0,111,220.0
31,G3,15.0,1.0,95,220.0
32,A4,16.0,1.0,111,220.0
33,A2,16.0,1.0,111,220.0
34,A4,16.0,1.0,95,220.0
35,A2,16.0,1.0,95,220.0
36,G3,17.0,1.0,111,220.0
37,G3,17.0,1.0,95,220.0
38,B-2,18.0,1.0,95,220.0
39,B-2,18.0,1.0,95,220.0
40,G3,19.0,1.0,111,220.0
41,G3,19.0,1.0,95,220.0
42,A2,20.0,1.0,95,220.0
43,A2,20.0,1.0,95,220.0
44,G3,21.0,1.0,111,220.0
45,G3,21.0,1.0,95,220.0
46,B-2,22.0,1.0,127,220.0
47,B-2,22.0,1.0,95,220.0
48,G#3,23.0,1.0,127,220.0
49,G#3,23.0,1.0,95,220.0
50,A2,24.0,667/1000,95,220.0
51,A2,24.0,667/1000,95,220.0
52,B-4,24.667,333/1000,95,220.0
53,B-4,24.667,333/1000,95,220.0
54,G3,25.0,1.0,111,220.0
55,G3,25.0,1.0,95,220.0
56,A4,26.0,667/1000,103,220.0
57,B-2,26.0,667/1000,103,220.0
58,A4,26.0,667/1000,95,220.0
59,B-2,26.0,667/1000,95,220.0
60,E4,26.667,333/1000,95,220.0
61,E4,26.667,333/1000,95,220.0
62,G3,27.0,1.0,111,220.0
63,G3,27.0,1.0,95,220.0
64,G4,28.0,1.0,103,220.0
65,A2,28.0,1.0,103,220.0
66,G4,28.0,1.0,95,220.0
67,A2,28.0,1.0,95,220.0
68,A4,29.0,1.0,111,220.0
69,G3,29.0,1.0,111,220.0
70,A4,29.0,1.0,95,220.0
71,G3,29.0,1.0,95,220.0
72,C#5,30.0,667/1000,103,220.0
73,B-2,30.0,667/1000,103,220.0
74,C#5,30.0,667/1000,95,220.0
75,B-2,30.0,667/1000,95,220.0
76,E4,30.667,333/1000,111,220.0
77,E4,30.667,333/1000,95,220.0
78,G3,31.0,1.0,111,220.0
79,G3,31.0,1.0,95,220.0
80,G4,32.0,1.0,103,220.0
81,A2,32.0,1.0,103,220.0
82,G4,32.0,1.0,95,220.0
83,A2,32.0,1.0,95,220.0
84,G3,33.0,1.0,111,220.0
85,G3,33.0,1.0,95,220.0
86,B-2,34.0,1.0,95,220.0
87,B-2,34.0,1.0,95,220.0
88,G3,35.0,1.0,111,220.0
89,G3,35.0,1.0,95,220.0
90,A2,36.0,1.0,95,220.0
91,A2,36.0,1.0,95,220.0
92,G3,37.0,1.0,111,220.0
93,G3,37.0,1.0,95,220.0
94,B-2,38.0,1.0,95,220.0
95,B-2,38.0,1.0,95,220.0
96,G3,39.0,1.0,111,220.0
97,G3,39.0,1.0,95,220.0
98,A2,40.0,667/1000,95,220.0
99,A2,40.0,667/1000,95,220.0
100,A4,40.667,333/1000,95,220.0
101,A4,40.667,333/1000,95,220.0
102,G3,41.0,1.0,111,220.0
103,G3,41.0,1.0,95,220.0
104,B-4,42.0,1.0,103,220.0
105,B-2,42.0,1.0,103,220.0
106,B-4,42.0,1.0,95,220.0
107,B-2,42.0,1.0,95,220.0
108,A4,43.0,1.0,103,220.0
109,G3,43.0,1.0,103,220.0
110,A4,43.0,1.0,95,220.0
111,G3,43.0,1.0,95,220.0
112,B-4,44.0,1.0,103,220.0
113,A2,44.0,1.0,103,220.0
114,B-4,44.0,1.0,95,220.0
115,A2,44.0,1.0,95,220.0
116,A4,45.0,1.0,103,220.0
117,G3,45.0,1.0,103,220.0
118,A4,45.0,1.0,95,220.0
119,G3,45.0,1.0,95,220.0
120,G#4,46.0,1.0,95,220.0
121,B-2,46.0,1.0,95,220.0
122,G#4,46.0,1.0,95,220.0
123,B-2,46.0,1.0,95,220.0
124,E4,47.0,1.0,103,220.0
125,G3,47.0,1.0,103,220.0
126,E4,47.0,1.0,95,220.0
127,G3,47.0,1.0,95,220.0
128,G4,48.0,1.0,103,220.0
129,A2,48.0,1.0,103,220.0
130,G4,48.0,1.0,95,220.0
131,A2,48.0,1.0,95,220.0
132,G3,49.0,1.0,111,220.0
133,G3,49.0,1.0,95,220.0
134,B-2,50.0,1.0,95,220.0
135,B-2,50.0,1.0,95,220.0
136,G3,51.0,1.0,111,220.0
137,G3,51.0,1.0,95,220.0
138,A2,52.0,1.0,95,220.0
139,A2,52.0,1.0,95,220.0
140,G3,53.0,1.0,111,220.0
141,G3,53.0,1.0,95,220.0
142,B-2,54.0,1.0,95,220.0
143,B-2,54.0,1.0,95,220.0
144,G3,55.0,1.0,111,220.0
145,G3,55.0,1.0,95,220.0
146,A2,56.0,667/1000,95,220.0
147,A2,56.0,667/1000,95,220.0
148,A4,56.667,333/1000,95,220.0
149,A4,56.667,333/1000,95,220.0
150,G3,57.0,1.0,111,220.0
151,G3,57.0,1.0,95,220.0
152,G#4,58.0,1.0,95,220.0
153,B-2,58.0,1.0,95,220.0
154,G#4,58.0,1.0,95,220.0
155,B-2,58.0,1.0,95,220.0
156,G4,59.0,1.0,103,220.0
157,G3,59.0,1.0,103,220.0
158,G4,59.0,1.0,95,220.0
159,G3,59.0,1.0,95,220.0
160,F#4,60.0,1.0,95,220.0
161,A2,60.0,1.0,95,220.0
162,F#4,60.0,1.0,95,220.0
163,A2,60.0,1.0,95,220.0
164,F4,61.0,1.0,103,220.0
165,G3,61.0,1.0,103,220.0
166,F4,61.0,1.0,95,220.0
167,G3,61.0,1.0,95,220.0
168,E-4,62.0,667/1000,95,220.0
169,B-2,62.0,667/1000,95,220.0
170,E-4,62.0,667/1000,95,220.0
171,B-2,62.0,667/1000,95,220.0
172,C#4,62.667,1333/1000,95,220.0
173,C#4,62.667,333/1000,95,220.0
174,G3,63.0,1.0,111,220.0
175,G3,63.0,1.0,95,220.0
176,D4,64.0,1.0,95,220.0
177,D3,64.0,1.0,95,220.0
178,D4,64.0,1.0,95,220.0
179,D3,64.0,1.0,95,220.0
180,A3,65.0,1.0,111,220.0
181,A3,65.0,1.0,95,220.0
182,A2,66.0,1.0,95,220.0
183,A2,66.0,1.0,95,220.0
184,A3,67.0,1.0,111,220.0
185,A3,67.0,1.0,95,220.0
186,D3,68.0,1.0,95,220.0
187,D3,68.0,1.0,95,220.0
188,A3,69.0,1.0,111,220.0
189,A3,69.0,1.0,95,220.0
190,A2,70.0,1.0,95,220.0
191,A2,70.0,1.0,95,220.0
192,A3,71.0,0.25,79,220.0
193,A3,71.0,0.25,95,220.0
194,C4,71.25,0.25,95,220.0
195,C4,71.25,0.25,95,220.0
196,F4,71.5,0.25,111,220.0
197,F4,71.5,0.25,95,220.0
198,C5,71.75,0.25,127,220.0
199,C5,71.75,0.25,95,220.0
200,B4,72.0,1.0,95,220.0
201,D3,72.0,1.0,95,220.0
202,B4,72.0,1.0,95,220.0
203,D3,72.0,1.0,95,220.0
204,A3,73.0,1.0,111,220.0
205,A3,73.0,1.0,95,220.0
206,A2,74.0,1.0,95,220.0
207,A2,74.0,1.0,95,220.0
208,A3,75.0,1.0,111,220.0
209,A3,75.0,1.0,95,220.0
210,D3,76.0,1.0,95,220.0
211,D3,76.0,1.0,95,220.0
212,A3,77.0,1.0,111,220.0
213,A3,77.0,1.0,95,220.0
214,A2,78.0,1.0,95,220.0
215,A2,78.0,1.0,95,220.0
216,A3,79.0,1.0,111,220.0
217,A3,79.0,1.0,95,220.0
218,A4,80.0,1.0,111,220.0
219,A2,80.0,1.0,111,220.0
220,A4,80.0,1.0,95,220.0
221,A2,80.0,1.0,95,220.0
222,G3,81.0,1.0,111,220.0
223,G3,81.0,1.0,95,220.0
224,B-2,82.0,1.0,95,220.0
225,B-2,82.0,1.0,95,220.0
226,G3,83.0,1.0,111,220.0
227,G3,83.0,1.0,95,220.0
228,A2,84.0,1.0,95,220.0
229,A2,84.0,1.0,95,220.0
230,G3,85.0,1.0,111,220.0
231,G3,85.0,1.0,95,220.0
232,B-2,86.0,1.0,127,220.0
233,B-2,86.0,1.0,95,220.0
234,G#3,87.0,1.0,127,220.0
235,G#3,87.0,1.0,95,220.0
236,A2,88.0,667/1000,95,220.0
237,A2,88.0,667/1000,95,220.0
238,B-4,88.667,333/1000,95,220.0
239,B-4,88.667,333/1000,95,220.0
240,G3,89.0,1.0,111,220.0
241,G3,89.0,1.0,95,220.0
242,A4,90.0,667/1000,103,220.0
243,B-2,90.0,667/1000,103,220.0
244,A4,90.0,667/1000,95,220.0
245,B-2,90.0,667/1000,95,220.0
246,E4,90.667,333/1000,95,220.0
247,E4,90.667,333/1000,95,220.0
248,G3,91.0,1.0,111,220.0
249,G3,91.0,1.0,95,220.0
250,G4,92.0,1.0,103,220.0
251,A2,92.0,1.0,103,220.0
252,G4,92.0,1.0,95,220.0
253,A2,92.0,1.0,95,220.0
254,A4,93.0,1.0,111,220.0
255,G3,93.0,1.0,111,220.0
256,A4,93.0,1.0,95,220.0
257,G3,93.0,1.0,95,220.0
258,C#5,94.0,667/1000,103,220.0
259,B-2,94.0,667/1000,103,220.0
260,C#5,94.0,667/1000,95,220.0
261,B-2,94.0,667/1000,95,220.0
262,E4,94.667,333/1000,111,220.0
263,E4,94.667,333/1000,95,220.0
264,G3,95.0,1.0,111,220.0
265,G3,95.0,1.0,95,220.0
266,G4,96.0,1.0,103,220.0
267,A2,96.0,1.0,103,220.0
268,G4,96.0,1.0,95,220.0
269,A2,96.0,1.0,95,220.0
270,G3,97.0,1.0,111,220.0
271,G3,97.0,1.0,95,220.0
272,B-2,98.0,1.0,95,220.0
273,B-2,98.0,1.0,95,220.0
274,G3,99.0,1.0,111,220.0
275,G3,99.0,1.0,95,220.0
276,A2,100.0,1.0,95,220.0
277,A2,100.0,1.0,95,220.0
278,G3,101.0,1.0,111,220.0
279,G3,101.0,1.0,95,220.0
280,B-2,102.0,1.0,95,220.0
281,B-2,102.0,1.0,95,220.0
282,G3,103.0,1.0,111,220.0
283,G3,103.0,1.0,95,220.0
284,A2,104.0,667/1000,95,220.0
285,A2,104.0,667/1000,95,220.0
286,A4,104.667,333/1000,95,220.0
287,A4,104.667,333/1000,95,220.0
288,G3,105.0,1.0,111,220.0
289,G3,105.0,1.0,95,220.0
290,B-4,106.0,1.0,103,220.0
291,B-2,106.0,1.0,103,220.0
292,B-4,106.0,1.0,95,220.0
293,B-2,106.0,1.0,95,220.0
294,A4,107.0,1.0,103,220.0
295,G3,107.0,1.0,103,220.0
296,A4,107.0,1.0,95,220.0
297,G3,107.0,1.0,95,220.0
298,B-4,108.0,1.0,103,220.0
299,A2,108.0,1.0,103,220.0
300,B-4,108.0,1.0,95,220.0
301,A2,108.0,1.0,95,220.0
302,A4,109.0,1.0,103,220.0
303,G3,109.0,1.0,103,220.0
304,A4,109.0,1.0,95,220.0
305,G3,109.0,1.0,95,220.0
306,G#4,110.0,1.0,95,220.0
307,B-2,110.0,1.0,95,220.0
308,G#4,110.0,1.0,95,220.0
309,B-2,110.0,1.0,95,220.0
310,E4,111.0,1.0,103,220.0
311,G3,111.0,1.0,103,220.0
312,E4,111.0,1.0,95,220.0
313,G3,111.0,1.0,95,220.0
314,G4,112.0,1.0,103,220.0
315,A2,112.0,1.0,103,220.0
316,G4,112.0,1.0,95,220.0
317,A2,112.0,1.0,95,220.0
318,G3,113.0,1.0,111,220.0
319,G3,113.0,1.0,95,220.0
320,B-2,114.0,1.0,95,220.0
321,B-2,114.0,1.0,95,220.0
322,G3,115.0,1.0,111,220.0
323,G3,115.0,1.0,95,220.0
324,A2,116.0,1.0,95,220.0
325,A2,116.0,1.0,95,220.0
326,G3,117.0,1.0,111,220.0
327,G3,117.0,1.0,95,220.0
328,B-2,118.0,1.0,95,220.0
329,B-2,118.0,1.0,95,220.0
330,G3,119.0,1.0,111,220.0
331,G3,119.0,1.0,95,220.0
332,A2,120.0,667/1000,95,220.0
333,A2,120.0,667/1000,95,220.0
334,A4,120.667,333/1000,95,220.0
335,A4,120.667,333/1000,95,220.0
336,G3,121.0,1.0,111,220.0
337,G3,121.0,1.0,95,220.0
338,G#4,122.0,1.0,95,220.0
339,B-2,122.0,1.0,95,220.0
340,G#4,122.0,1.0,95,220.0
341,B-2,122.0,1.0,95,220.0
342,G4,123.0,1.0,103,220.0
343,G3,123.0,1.0,103,220.0
344,G4,123.0,1.0,95,220.0
345,G3,123.0,1.0,95,220.0
346,F#4,124.0,1.0,95,220.0
347,A2,124.0,1.0,95,220.0
348,F#4,124.0,1.0,95,220.0
349,A2,124.0,1.0,95,220.0
350,F4,125.0,1.0,103,220.0
351,G3,125.0,1.0,103,220.0
352,F4,125.0,1.0,95,220.0
353,G3,125.0,1.0,95,220.0
354,E-4,126.0,667/1000,95,220.0
355,B-2,126.0,667/1000,95,220.0
356,E-4,126.0,667/1000,95,220.0
357,B-2,126.0,667/1000,95,220.0
358,C#4,126.667,1333/1000,95,220.0
359,C#4,126.667,333/1000,95,220.0
360,G3,127.0,1.0,111,220.0
361,G3,127.0,1.0,95,220.0
362,D4,128.0,1.0,95,220.0
363,D3,128.0,1.0,95,220.0
364,D4,128.0,1.0,95,220.0
365,D3,128.0,1.0,95,220.0
366,A3,129.0,1.0,111,220.0
367,A3,129.0,1.0,95,220.0
368,A2,130.0,1.0,95,220.0
369,A2,130.0,1.0,95,220.0
370,A3,131.0,1.0,111,220.0
371,A3,131.0,1.0,95,220.0
372,D3,132.0,1.0,95,220.0
373,D3,132.0,1.0,95,220.0
374,A3,133.0,1.0,111,220.0
375,A3,133.0,1.0,95,220.0
376,A2,134.0,1.0,95,220.0
377,A2,134.0,1.0,95,220.0
378,A3,135.0,0.25,79,220.0
379,A3,135.0,0.25,95,220.0
380,C4,135.25,0.25,95,220.0
381,C4,135.25,0.25,95,220.0
382,F4,135.5,0.25,111,220.0
383,F4,135.5,0.25,95,220.0
384,C5,135.75,0.25,127,220.0
385,C5,135.75,0.25,95,220.0
386,B4,136.0,1.0,95,220.0
387,D3,136.0,1.0,95,220.0
388,B4,136.0,1.0,95,220.0
389,D3,136.0,1.0,95,220.0
390,A3,137.0,1.0,111,220.0
391,A3,137.0,1.0,95,220.0
392,A2,138.0,1.0,95,220.0
393,A2,138.0,1.0,95,220.0
394,A3,139.0,1.0,111,220.0
395,A3,139.0,1.0,95,220.0
396,D3,140.0,1.0,95,220.0
397,D3,140.0,1.0,95,220.0
398,A3,141.0,1.0,111,220.0
399,A3,141.0,1.0,95,220.0
400,A2,142.0,1.0,95,220.0
401,A2,142.0,1.0,95,220.0
402,A3,143.0,1.0,111,220.0
403,A3,143.0,1.0,95,220.0
404,D3,144.0,1.0,111,220.0
405,D3,144.0,1.0,95,220.0
406,D5,145.0,1.0,111,220.0
407,C4,145.0,1.0,111,220.0
408,D5,145.0,1.0,95,220.0
409,C4,145.0,1.0,95,220.0
410,A3,146.0,1.0,79,220.0
411,A3,146.0,1.0,95,220.0
412,C4,147.0,1.0,79,220.0
413,C4,147.0,1.0,95,220.0
414,B4,148.0,1.0,103,220.0
415,D3,148.0,1.0,103,220.0
416,B4,148.0,1.0,95,220.0
417,D3,148.0,1.0,95,220.0
418,C4,149.0,1.0,95,220.0
419,C4,149.0,1.0,95,220.0
420,A4,150.0,333/1000,103,220.0
421,A3,150.0,333/1000,103,220.0
422,A4,150.0,333/1000,95,220.0
423,A3,150.0,333/1000,95,220.0
424,B4,150.333,333/1000,70,220.0
425,B4,150.333,333/1000,95,220.0
426,A4,150.667,333/1000,70,220.0
427,A4,150.667,333/1000,95,220.0
428,F#4,151.0,1.0,95,220.0
429,C4,151.0,1.0,95,220.0
430,F#4,151.0,1.0,95,220.0
431,C4,151.0,1.0,95,220.0
432,E4,152.0,1.0,95,220.0
433,D3,152.0,1.0,95,220.0
434,E4,152.0,1.0,95,220.0
435,D3,152.0,1.0,95,220.0
436,F#3,153.0,1.0,111,220.0
437,F#3,153.0,1.0,95,220.0
438,A2,154.0,1.0,95,220.0
439,A2,154.0,1.0,95,220.0
440,F#3,155.0,667/1000,95,220.0
441,F#3,155.0,667/1000,95,220.0
442,D3,155.667,333/1000,70,220.0
443,D3,155.667,333/1000,95,220.0
444,D3,156.0,667/1000,95,220.0
445,D3,156.0,667/1000,95,220.0
446,D3,156.667,333/1000,95,220.0
447,D3,156.667,333/1000,95,220.0
448,C3,157.0,667/1000,95,220.0
449,C3,157.0,667/1000,95,220.0
450,D3,157.667,333/1000,95,220.0
451,D3,157.667,333/1000,95,220.0
452,B2,158.0,667/1000,95,220.0
453,B2,158.0,667/1000,95,220.0
454,D3,158.667,333/1000,95,220.0
455,D3,158.667,333/1000,95,220.0
456,A2,159.0,1.0,95,220.0
457,A2,159.0,1.0,95,220.0
458,G2,160.0,1.0,95,220.0
459,G2,160.0,1.0,95,220.0
460,A4,161.0,1.0,103,220.0
461,F3,161.0,1.0,103,220.0
462,A4,161.0,1.0,95,220.0
463,F3,161.0,1.0,95,220.0
464,G2,162.0,1.0,95,220.0
465,G2,162.0,1.0,95,220.0
466,F3,163.0,1.0,111,220.0
467,F3,163.0,1.0,95,220.0
468,E4,164.0,1.0,95,220.0
469,G2,164.0,1.0,95,220.0
470,E4,164.0,1.0,95,220.0
471,G2,164.0,1.0,95,220.0
472,F3,165.0,1.0,111,220.0
473,F3,165.0,1.0,95,220.0
474,D4,166.0,333/1000,95,220.0
475,G2,166.0,333/1000,95,220.0
476,D4,166.0,333/1000,95,220.0
477,G2,166.0,333/1000,95,220.0
478,E4,166.333,333/1000,70,220.0
479,E4,166.333,333/1000,95,220.0
480,D4,166.667,333/1000,70,220.0
481,D4,166.667,333/1000,95,220.0
482,B3,167.0,1.0,95,220.0
483,F3,167.0,1.0,95,220.0
484,B3,167.0,1.0,95,220.0
485,F3,167.0,1.0,95,220.0
486,A3,168.0,1.0,95,220.0
487,G2,168.0,1.0,95,220.0
488,A3,168.0,1.0,95,220.0
489,G2,168.0,1.0,95,220.0
490,F3,169.0,1.0,111,220.0
491,F3,169.0,1.0,95,220.0
492,G2,170.0,1.0,95,220.0
493,G2,170.0,1.0,95,220.0
494,F3,171.0,667/1000,95,220.0
495,F3,171.0,667/1000,95,220.0
496,G3,171.667,333/1000,95,220.0
497,G3,171.667,333/1000,95,220.0
498,G3,172.0,667/1000,95,220.0
499,G3,172.0,667/1000,95,220.0
500,G3,172.667,333/1000,95,220.0
501,G3,172.667,333/1000,95,220.0
502,F3,173.0,667/1000,95,220.0
503,F3,173.0,667/1000,95,220.0
504,G3,173.667,333/1000,95,220.0
505,G3,173.667,333/1000,95,220.0
506,E3,174.0,667/1000,95,220.0
507,E3,174.0,667/1000,95,220.0
508,G3,174.667,333/1000,95,220.0
509,G3,174.667,333/1000,95,220.0
510,D3,175.0,1.0,95,220.0
511,D3,175.0,1.0,95,220.0
512,C3,176.0,1.0,95,220.0
513,C3,176.0,1.0,95,220.0
514,C5,177.0,1.0,111,220.0
515,B-3,177.0,1.0,111,220.0
516,C5,177.0,1.0,95,220.0
517,B-3,177.0,1.0,95,220.0
518,C3,178.0,1.0,95,220.0
519,C3,178.0,1.0,95,220.0
520,B-3,179.0,1.0,111,220.0
521,B-3,179.0,1.0,95,220.0
522,A4,180.0,1.0,111,220.0
523,C3,180.0,1.0,111,220.0
524,A4,180.0,1.0,95,220.0
525,C3,180.0,1.0,95,220.0
526,B-3,181.0,1.0,111,220.0
527,B-3,181.0,1.0,95,220.0
528,G4,182.0,333/1000,103,220.0
529,C3,182.0,333/1000,103,220.0
530,G4,182.0,333/1000,95,220.0
531,C3,182.0,333/1000,95,220.0
532,A4,182.333,333/1000,95,220.0
533,A4,182.333,333/1000,95,220.0
534,G4,182.667,333/1000,95,220.0
535,G4,182.667,333/1000,95,220.0
536,E4,183.0,1.0,95,220.0
537,B-3,183.0,1.0,95,220.0
538,E4,183.0,1.0,95,220.0
539,B-3,183.0,1.0,95,220.0
540,D4,184.0,1.0,95,220.0
541,B-3,184.0,1.0,95,220.0
542,C3,184.0,1.0,95,220.0
543,D4,184.0,1.0,95,220.0
544,B-3,184.0,1.0,95,220.0
545,C3,184.0,1.0,95,220.0
546,E3,185.0,1.0,111,220.0
547,E3,185.0,1.0,95,220.0
548,G2,186.0,1.0,95,220.0
549,G2,186.0,1.0,95,220.0
550,E3,187.0,1.0,111,220.0
551,E3,187.0,1.0,95,220.0
552,C3,188.0,667/1000,95,220.0
553,C3,188.0,667/1000,95,220.0
554,C4,188.667,333/1000,95,220.0
555,B-3,188.667,333/1000,95,220.0
556,C4,188.667,333/1000,95,220.0
557,B-3,188.667,333/1000,95,220.0
558,E3,189.0,667/1000,95,220.0
559,E3,189.0,667/1000,95,220.0
560,D4,189.667,333/1000,111,220.0
561,B-3,189.667,333/1000,111,220.0
562,D4,189.667,333/1000,95,220.0
563,B-3,189.667,333/1000,95,220.0
564,G2,190.0,667/1000,95,220.0
565,G2,190.0,667/1000,95,220.0
566,C4,190.667,333/1000,95,220.0
567,B-3,190.667,333/1000,95,220.0
568,C4,190.667,333/1000,95,220.0
569,B-3,190.667,333/1000,95,220.0
570,E3,191.0,1.0,95,220.0
571,E3,191.0,1.0,95,220.0
572,F2,192.0,667/1000,95,220.0
573,F2,192.0,667/1000,95,220.0
574,A3,192.667,333/1000,95,220.0
575,A3,192.667,333/1000,95,220.0
576,C4,193.0,667/1000,111,220.0
577,C4,193.0,667/1000,95,220.0
578,C3,193.667,333/1000,95,220.0
579,C3,193.667,333/1000,95,220.0
580,A3,194.0,667/1000,95,220.0
581,A3,194.0,667/1000,95,220.0
582,F4,194.667,333/1000,111,220.0
583,F4,194.667,333/1000,95,220.0
584,D3,195.0,1.0,95,220.0
585,D3,195.0,667/1000,95,220.0
586,A3,195.667,333/1000,95,220.0
587,A3,195.667,333/1000,95,220.0
588,C4,196.0,667/1000,111,220.0
589,D3,196.0,667/1000,95,220.0
590,A3,196.0,0.5,95,220.0
591,C4,196.0,667/1000,95,220.0
592,C3,196.667,333/1000,95,220.0
593,C3,196.667,333/1000,95,220.0
594,A3,197.0,667/1000,95,220.0
595,A3,197.0,667/1000,95,220.0
596,C4,197.667,333/1000,111,220.0
597,C4,197.667,333/1000,95,220.0
598,F2,198.0,1.0,95,220.0
599,F2,198.0,1.0,95,220.0
600,F4,199.0,1.0,122,220.0
601,C4,199.0,1.0,122,220.0
602,A3,199.0,1.0,122,220.0
603,F4,199.0,1.0,95,220.0
604,C4,199.0,1.0,95,220.0
605,A3,199.0,1.0,95,220.0
606,E2,200.0,667/1000,95,220.0
607,E2,200.0,667/1000,95,220.0
608,G#3,200.667,333/1000,95,220.0
609,G#3,200.667,333/1000,95,220.0
610,B3,201.0,667/1000,111,220.0
611,B3,201.0,667/1000,95,220.0
612,B2,201.667,333/1000,95,220.0
613,B2,201.667,333/1000,95,220.0
614,G#3,202.0,667/1000,95,220.0
615,G#3,202.0,667/1000,95,220.0
616,B3,202.667,333/1000,111,220.0
617,B3,202.667,333/1000,95,220.0
618,D3,203.0,1.0,95,220.0
619,D3,203.0,667/1000,95,220.0
620,B3,203.667,333/1000,111,220.0
621,B3,203.667,333/1000,95,220.0
622,E4,204.0,667/1000,111,220.0
623,D3,204.0,667/1000,95,220.0
624,B3,204.0,0.5,111,220.0
625,E4,204.0,667/1000,95,220.0
626,B2,204.667,333/1000,95,220.0
627,B2,204.667,333/1000,95,220.0
628,G#3,205.0,667/1000,95,220.0
629,G#3,205.0,667/1000,95,220.0
630,B3,205.667,333/1000,111,220.0
631,B3,205.667,333/1000,95,220.0
632,E2,206.0,2.0,127,220.0
633,E2,206.0,1.0,95,220.0
634,A4,208.0,2.0,111,220.0
635,A4,208.0,2.0,95,220.0
636,A4,210.0,2.0,111,220.0
637,G4,210.0,2.0,111,220.0
638,A4,210.0,2.0,95,220.0
639,G4,210.0,2.0,95,220.0
640,A4,212.0,2.0,111,220.0
641,A4,212.0,2.0,95,220.0
642,A4,214.0,2.0,111,220.0
643,G4,214.0,2.0,111,220.0
644,A4,214.0,2.0,95,220.0
645,G4,214.0,2.0,95,220.0
646,A4,216.0,1.5,95,220.0
647,A4,216.0,1.5,95,220.0
648,B-4,217.667,333/1000,95,220.0
649,B-4,217.667,333/1000,95,220.0
650,A4,218.0,1.0,95,220.0
651,A4,218.0,1.0,95,220.0
652,E4,219.0,1.0,95,220.0
653,E4,219.0,1.0,95,220.0
654,G4,220.0,1.0,95,220.0
655,G4,220.0,1.0,95,220.0
656,A4,221.0,1.0,95,220.0
657,A4,221.0,1.0,95,220.0
658,C#5,222.0,1.0,111,220.0
659,C#5,222.0,1.0,95,220.0
660,E4,223.0,1.0,95,220.0
661,E4,223.0,1.0,95,220.0
662,G4,224.0,1.5,111,220.0
663,G4,224.0,1.5,95,220.0
664,G4,225.667,333/1000,111,220.0
665,G4,225.667,333/1000,95,220.0
666,F4,226.0,1.5,95,220.0
667,F4,226.0,1.5,95,220.0
668,G4,227.667,333/1000,95,220.0
669,G4,227.667,333/1000,95,220.0
670,G4,228.0,1.5,95,220.0
671,G4,228.0,1.5,95,220.0
672,G4,229.667,333/1000,95,220.0
673,G4,229.667,333/1000,95,220.0
674,F4,230.0,1.0,95,220.0
675,F4,230.0,1.0,95,220.0
676,G4,231.0,667/1000,95,220.0
677,G4,231.0,667/1000,95,220.0
678,G4,231.667,333/1000,95,220.0
679,G4,231.667,333/1000,95,220.0
680,G4,232.0,1.5,95,220.0
681,G4,232.0,1.5,95,220.0
682,A4,233.667,333/1000,95,220.0
683,A4,233.667,333/1000,95,220.0
684,B-4,234.0,1.0,95,220.0
685,B-4,234.0,1.0,95,220.0
686,A4,235.0,1.0,95,220.0
687,A4,235.0,1.0,95,220.0
688,B-4,236.0,1.0,95,220.0
689,B-4,236.0,1.0,95,220.0
690,A4,237.0,333/1000,95,220.0
691,A4,237.0,333/1000,95,220.0
692,B-4,237.333,333/1000,70,220.0
693,B-4,237.333,333/1000,95,220.0
694,A4,237.667,333/1000,70,220.0
695,A4,237.667,333/1000,95,220.0
696,G#4,238.0,1.0,95,220.0
697,G#4,238.0,1.0,95,220.0
698,E4,239.0,1.0,95,220.0
699,E4,239.0,1.0,95,220.0
700,F#4,240.0,4.0,95,220.0
701,F#4,240.0,4.0,95,220.0
702,F#4,244.0,1.0,95,220.0
703,A3,245.0,0.969,127,220.0
704,C#4,245.0,0.969,127,220.0
705,A3,245.0,0.969,95,220.0
706,C#4,245.0,0.969,95,220.0
707,E4,245.062,0.906,127,220.0
708,A4,245.062,0.906,127,220.0
709,E4,245.062,0.906,95,220.0
710,A4,245.062,0.906,95,220.0
711,G#4,246.0,1.0,111,220.0
712,G#4,246.0,1.0,95,220.0
713,G4,247.0,1.0,111,220.0
714,G4,247.0,1.0,95,220.0
715,F#4,248.0,1.0,111,220.0
716,F#4,248.0,1.0,95,220.0
717,F4,249.0,1.0,111,220.0
718,F4,249.0,1.0,95,220.0
719,E4,250.0,1.0,95,220.0
720,E4,250.0,1.0,95,220.0
721,E-4,251.0,1.0,95,220.0
722,E-4,251.0,1.0,95,220.0
723,D3,252.0,667/1000,95,220.0
724,D3,252.0,667/1000,95,220.0
725,A3,252.667,333/1000,95,220.0
726,A3,252.667,333/1000,95,220.0
727,D4,253.0,667/1000,95,220.0
728,D4,253.0,667/1000,95,220.0
729,D3,253.667,333/1000,95,220.0
730,D3,253.667,333/1000,95,220.0
731,A3,254.0,667/1000,95,220.0
732,A3,254.0,667/1000,95,220.0
733,D4,254.667,333/1000,95,220.0
734,D4,254.667,333/1000,95,220.0
735,D3,255.0,1.0,95,220.0
736,D3,255.0,667/1000,95,220.0
737,A3,255.667,333/1000,95,220.0
738,A3,255.667,333/1000,95,220.0
739,D4,256.0,667/1000,95,220.0
740,D3,256.0,667/1000,95,220.0
741,D4,256.0,667/1000,95,220.0
742,D3,256.667,333/1000,95,220.0
743,D3,256.667,333/1000,95,220.0
744,A3,257.0,667/1000,95,220.0
745,A3,257.0,667/1000,95,220.0
746,D4,257.667,333/1000,95,220.0
747,D4,257.667,333/1000,95,220.0
748,D3,258.0,667/1000,79,220.0
749,D3,258.0,667/1000,95,220.0
750,A3,258.667,333/1000,79,220.0
751,A3,258.667,333/1000,95,220.0
752,D4,259.0,1.0,79,220.0
753,D4,259.0,1.0,95,220.0
754,D3,260.0,667/1000,95,220.0
755,D3,260.0,667/1000,95,220.0
756,A3,260.667,333/1000,95,220.0
757,A3,260.667,333/1000,95,220.0
758,B3,261.0,667/1000,95,220.0
759,B3,261.0,667/1000,95,220.0
760,D3,261.667,333/1000,95,220.0
761,D3,261.667,333/1000,95,220.0
762,A3,262.0,667/1000,95,220.0
763,A3,262.0,667/1000,95,220.0
764,B3,262.667,333/1000,95,220.0
765,B3,262.667,333/1000,95,220.0
766,D3,263.0,1.0,95,220.0
767,D3,263.0,667/1000,95,220.0
768,A3,263.667,333/1000,95,220.0
769,A3,263.667,333/1000,95,220.0
770,B3,264.0,667/1000,95,220.0
771,D3,264.0,667/1000,95,220.0
772,B3,264.0,667/1000,95,220.0
773,D3,264.667,333/1000,95,220.0
774,D3,264.667,333/1000,95,220.0
775,A3,265.0,667/1000,95,220.0
776,A3,265.0,667/1000,95,220.0
777,B3,265.667,333/1000,95,220.0
778,B3,265.667,333/1000,95,220.0
779,D3,266.0,667/1000,95,220.0
780,D3,266.0,667/1000,95,220.0
781,A3,266.667,333/1000,95,220.0
782,A3,266.667,333/1000,95,220.0
783,B3,267.0,1.0,95,220.0
784,B3,267.0,1.0,95,220.0
785,A4,268.0,333/1000,95,220.0
786,A4,268.0,333/1000,95,220.0
787,B-4,268.333,333/1000,70,220.0
788,B-4,268.333,333/1000,95,220.0
789,A4,268.667,333/1000,70,220.0
790,A4,268.667,333/1000,95,220.0
791,G#4,269.0,1.0,95,220.0
792,G#4,269.0,1.0,95,220.0
793,A4,270.0,333/1000,95,220.0
794,A4,270.0,333/1000,95,220.0
795,B-4,270.333,333/1000,70,220.0
796,B-4,270.333,333/1000,95,220.0
797,A4,270.667,333/1000,70,220.0
798,A4,270.667,333/1000,95,220.0
799,G#4,271.0,1.0,95,220.0
800,G#4,271.0,1.0,95,220.0
801,A4,272.0,333/1000,95,220.0
802,A4,272.0,333/1000,95,220.0
803,B-4,272.333,333/1000,70,220.0
804,B-4,272.333,333/1000,95,220.0
805,A4,272.667,333/1000,70,220.0
806,A4,272.667,333/1000,95,220.0
807,G#4,273.0,1.0,95,220.0
808,G#4,273.0,1.0,95,220.0
809,A4,274.0,333/1000,95,220.0
810,A4,274.0,333/1000,95,220.0
811,B-4,274.333,333/1000,70,220.0
812,B-4,274.333,333/1000,95,220.0
813,A4,274.667,333/1000,70,220.0
814,A4,274.667,333/1000,95,220.0
815,G#4,275.0,1.0,95,220.0
816,G#4,275.0,1.0,95,220.0
817,A4,276.0,1.5,95,220.0
818,A4,276.0,1.5,95,220.0
819,B-4,277.667,333/1000,95,220.0
820,B-4,277.667,333/1000,95,220.0
821,A4,278.0,333/1000,95,220.0
822,A4,278.0,333/1000,95,220.0
823,B-4,278.333,333/1000,70,220.0
824,B-4,278.333,333/1000,95,220.0
825,A4,278.667,333/1000,70,220.0
826,A4,278.667,333/1000,95,220.0
827,E4,279.0,1.0,95,220.0
828,E4,279.0,1.0,95,220.0
829,G4,280.0,1.0,95,220.0
830,G4,280.0,1.0,95,220.0
831,A4,281.0,1.0,95,220.0
832,A4,281.0,1.0,95,220.0
833,C#5,282.0,1.0,111,220.0
834,C#5,282.0,1.0,95,220.0
835,E4,283.0,1.0,95,220.0
836,E4,283.0,1.0,95,220.0
837,G4,284.0,1.0,103,220.0
838,A2,284.0,1.0,103,220.0
839,G4,284.0,1.0,95,220.0
840,A2,284.0,1.0,95,220.0
841,G3,285.0,1.0,111,220.0
842,G3,285.0,1.0,95,220.0
843,B-2,286.0,1.0,95,220.0
844,B-2,286.0,1.0,95,220.0
845,G3,287.0,1.0,111,220.0
846,G3,287.0,1.0,95,220.0
847,A2,288.0,1.0,95,220.0
848,A2,288.0,1.0,95,220.0
849,G3,289.0,1.0,111,220.0
850,G3,289.0,1.0,95,220.0
851,B-2,290.0,1.0,95,220.0
852,B-2,290.0,1.0,95,220.0
853,G3,291.0,1.0,111,220.0
854,G3,291.0,1.0,95,220.0
855,A2,292.0,667/1000,95,220.0
856,A2,292.0,667/1000,95,220.0
857,A4,292.667,333/1000,95,220.0
858,A4,292.667,333/1000,95,220.0
859,G3,293.0,1.0,111,220.0
860,G3,293.0,1.0,95,220.0
861,B-4,294.0,1.0,103,220.0
862,B-2,294.0,1.0,103,220.0
863,B-4,294.0,1.0,95,220.0
864,B-2,294.0,1.0,95,220.0
865,A4,295.0,1.0,103,220.0
866,G3,295.0,1.0,103,220.0
867,A4,295.0,1.0,95,220.0
868,G3,295.0,1.0,95,220.0
869,B-4,296.0,1.0,103,220.0
870,A2,296.0,1.0,103,220.0
871,B-4,296.0,1.0,95,220.0
872,A2,296.0,1.0,95,220.0
873,A4,297.0,1.0,103,220.0
874,G3,297.0,1.0,103,220.0
875,A4,297.0,1.0,95,220.0
876,G3,297.0,1.0,95,220.0
877,G#4,298.0,1.0,95,220.0
878,B-2,298.0,1.0,95,220.0
879,G#4,298.0,1.0,95,220.0
880,B-2,298.0,1.0,95,220.0
881,E4,299.0,1.0,103,220.0
882,G3,299.0,1.0,103,220.0
883,E4,299.0,1.0,95,220.0
884,G3,299.0,1.0,95,220.0
885,G4,300.0,1.0,103,220.0
886,A2,300.0,1.0,103,220.0
887,G4,300.0,1.0,95,220.0
888,A2,300.0,1.0,95,220.0
889,G3,301.0,1.0,111,220.0
890,G3,301.0,1.0,95,220.0
891,B-2,302.0,1.0,95,220.0
892,B-2,302.0,1.0,95,220.0
893,G3,303.0,1.0,111,220.0
894,G3,303.0,1.0,95,220.0
895,A2,304.0,1.0,95,220.0
896,A2,304.0,1.0,95,220.0
897,G3,305.0,1.0,111,220.0
898,G3,305.0,1.0,95,220.0
899,B-2,306.0,1.0,95,220.0
900,B-2,306.0,1.0,95,220.0
901,G3,307.0,1.0,111,220.0
902,G3,307.0,1.0,95,220.0
903,A2,308.0,1.0,127,220.0
904,A2,308.0,1.0,95,220.0
905,E3,309.0,0.953,127,220.0
906,A3,309.0,0.953,127,220.0
907,C#4,309.0,0.953,127,220.0
908,E4,309.0,0.953,127,220.0
909,A4,309.0,1.0,95,220.0
910,E4,309.0,1.0,95,220.0
911,C#4,309.0,1.0,95,220.0
912,A3,309.0,1.0,95,220.0
913,E3,309.0,1.0,95,220.0
914,A4,309.062,0.938,127,220.0
915,G#4,310.0,1.0,127,220.0
916,G#4,310.0,1.0,95,220.0
917,G4,311.0,1.0,111,220.0
918,G4,311.0,1.0,95,220.0
919,F#4,312.0,1.0,111,220.0
920,F#4,312.0,1.0,95,220.0
921,F4,313.0,1.0,95,220.0
922,F4,313.0,1.0,95,220.0
923,A2,314.0,0.969,95,220.0
924,G3,314.0,0.969,95,220.0
925,E-4,314.0,1.0,95,220.0
926,C#4,314.0,1.0,95,220.0
927,G3,314.0,1.0,95,220.0
928,A2,314.0,1.0,95,220.0
929,C#4,314.062,0.906,95,220.0
930,E-4,314.062,0.906,95,220.0
931,C#4,315.0,1.0,95,220.0
932,C#4,315.0,1.0,95,220.0
933,D4,316.0,1.0,95,220.0
934,D4,316.0,1.0,95,220.0
935,D3,317.0,1.0,95,220.0
936,D3,317.0,1.0,95,220.0
937,B4,318.0,1.0,95,220.0
938,G4,318.0,1.0,95,220.0
939,D4,318.0,1.0,95,220.0
940,B4,318.0,1.0,95,220.0
941,G4,318.0,1.0,95,220.0
942,D4,318.0,1.0,95,220.0
943,A4,319.0,1.0,95,220.0
944,F4,319.0,1.0,95,220.0
945,D4,319.0,1.0,95,220.0
946,A4,319.0,1.0,95,220.0
947,F4,319.0,1.0,95,220.0
948,D4,319.0,1.0,95,220.0
949,D3,320.0,1.0,95,220.0
950,D3,321.0,1.0,95,220.0
951,A4,321.0,1.0,95,220.0
952,F4,321.0,1.0,95,220.0
953,D4,321.0,1.0,95,220.0
954,E5,321.0,1.0,95,220.0
955,C5,321.0,1.0,95,220.0
956,G4,321.0,1.0,95,220.0
957,E5,322.0,1.0,95,220.0
958,C5,322.0,1.0,95,220.0
959,G4,322.0,1.0,95,220.0
960,D5,322.0,2.0,95,220.0
961,A4,322.0,2.0,95,220.0
962,F4,322.0,2.0,95,220.0
963,D5,323.0,2.0,95,220.0
964,A4,323.0,2.0,95,220.0
965,F4,323.0,2.0,95,220.0
966,D5,326.0,2.0,95,220.0
967,A4,326.0,2.0,95,220.0
968,F4,326.0,2.0,95,220.0
969,D5,329.0,4.0,95,220.0
970,A4,329.0,4.0,95,220.0
971,F4,329.0,4.0,95,220.0
