,note_name,start_time,duration,velocity,tempo
0,E3,1.0,1.0,95,286.0
1,F3,2.0,1.0,95,286.0
2,F#3,3.0,1.0,95,286.0
3,G3,4.0,0.5,95,286.0
4,C2,4.0,2.0,95,286.0
5,A3,4.5,0.5,95,286.0
6,C4,5.0,0.5,95,286.0
7,F#2,5.0,1.0,95,286.0
8,G3,5.5,0.5,95,286.0
9,A3,6.0,0.5,95,286.0
10,G2,6.0,2.0,95,286.0
11,E4,6.5,0.5,95,286.0
12,G3,7.0,0.5,95,286.0
13,F#2,7.0,1.0,95,286.0
14,A3,7.5,0.5,95,286.0
15,C4,8.0,0.5,95,286.0
16,C2,8.0,2.0,95,286.0
17,G3,8.5,0.5,95,286.0
18,A3,9.0,0.5,95,286.0
19,F#2,9.0,1.0,95,286.0
20,E4,9.5,0.5,95,286.0
21,G3,10.0,1.0,95,286.0
22,C2,10.0,2.0,95,286.0
23,A3,11.0,1.0,95,286.0
24,F#2,11.0,1.0,95,286.0
25,C4,11.062,0.938,95,286.0
26,E4,11.125,0.875,95,286.0
27,F#3,12.0,0.5,95,286.0
28,D2,12.0,2.0,95,286.0
29,A3,12.5,0.5,95,286.0
30,C4,13.0,0.5,95,286.0
31,F#2,13.0,1.0,95,286.0
32,F#3,13.5,0.5,95,286.0
33,A3,14.0,0.5,95,286.0
34,A1,14.0,2.0,95,286.0
35,E4,14.5,0.5,95,286.0
36,F#3,15.0,0.5,95,286.0
37,F#2,15.0,1.0,95,286.0
38,A3,15.5,0.5,95,286.0
39,C4,16.0,0.5,95,286.0
40,D2,16.0,2.0,95,286.0
41,F#3,16.5,0.5,95,286.0
42,A3,17.0,0.5,95,286.0
43,F#2,17.0,1.0,95,286.0
44,E4,17.5,0.5,95,286.0
45,F#3,18.0,1.0,95,286.0
46,D2,18.0,1.0,95,286.0
47,A3,19.0,1.0,95,286.0
48,E2,19.0,1.0,95,286.0
49,F#2,19.0,1.0,95,286.0
50,C4,19.062,0.938,95,286.0
51,E4,19.125,0.875,95,286.0
52,F3,20.0,0.5,95,286.0
53,F2,20.0,2.0,95,286.0
54,A3,20.5,0.5,95,286.0
55,C4,21.0,0.5,95,286.0
56,F#2,21.0,1.0,95,286.0
57,F3,21.5,0.5,95,286.0
58,A3,22.0,0.5,95,286.0
59,F2,22.0,2.0,95,286.0
60,E4,22.5,0.5,95,286.0
61,F3,23.0,0.5,95,286.0
62,F#2,23.0,1.0,95,286.0
63,G#3,23.5,0.5,95,286.0
64,B3,24.0,0.5,95,286.0
65,G2,24.0,2.0,95,286.0
66,F3,24.5,0.5,95,286.0
67,G#3,25.0,0.5,95,286.0
68,F#2,25.0,1.0,95,286.0
69,G4,25.5,1.0,95,286.0
70,G2,26.0,1.0,95,286.0
71,G#3,26.5,0.5,95,286.0
72,E4,27.0,1.0,95,286.0
73,G2,27.0,1.0,95,286.0
74,F#2,27.0,1.0,95,286.0
75,C2,28.0,2.0,95,286.0
76,C4,28.0,1.0,95,286.0
77,E3,28.0,1.0,95,286.0
78,F#2,29.0,1.0,95,286.0
79,E2,30.0,2.0,95,286.0
80,G4,30.0,2.0,95,286.0
81,E4,30.0,2.0,95,286.0
82,F#2,31.0,1.0,95,286.0
83,F2,32.0,2.0,95,286.0
84,C5,32.0,2.0,95,286.0
85,A4,32.0,2.0,95,286.0
86,F#2,33.0,1.0,95,286.0
87,G2,34.0,2.0,95,286.0
88,G4,34.0,1.0,95,286.0
89,E4,34.0,1.0,95,286.0
90,F#2,35.0,1.0,95,286.0
91,G3,36.0,0.5,95,286.0
92,C2,36.0,2.0,95,286.0
93,A3,36.5,0.5,95,286.0
94,C4,37.0,0.5,95,286.0
95,F#2,37.0,1.0,95,286.0
96,G3,37.5,0.5,95,286.0
97,A3,38.0,0.5,95,286.0
98,G2,38.0,2.0,95,286.0
99,E4,38.5,0.5,95,286.0
100,G3,39.0,0.5,95,286.0
101,F#2,39.0,1.0,95,286.0
102,A3,39.5,0.5,95,286.0
103,C4,40.0,0.5,95,286.0
104,C2,40.0,2.0,95,286.0
105,G3,40.5,0.5,95,286.0
106,A3,41.0,0.5,95,286.0
107,F#2,41.0,1.0,95,286.0
108,E4,41.5,0.5,95,286.0
109,G3,42.0,1.0,95,286.0
110,C2,42.0,2.0,95,286.0
111,A3,43.0,1.0,95,286.0
112,F#2,43.0,1.0,95,286.0
113,C4,43.062,0.938,95,286.0
114,E4,43.125,0.875,95,286.0
115,F#3,44.0,0.5,95,286.0
116,D2,44.0,2.0,95,286.0
117,A3,44.5,0.5,95,286.0
118,C4,45.0,0.5,95,286.0
119,F#2,45.0,1.0,95,286.0
120,F#3,45.5,0.5,95,286.0
121,A3,46.0,0.5,95,286.0
122,A1,46.0,2.0,95,286.0
123,E4,46.5,0.5,95,286.0
124,F#3,47.0,0.5,95,286.0
125,F#2,47.0,1.0,95,286.0
126,A3,47.5,0.5,95,286.0
127,C4,48.0,0.5,95,286.0
128,D2,48.0,2.0,95,286.0
129,F#3,48.5,0.5,95,286.0
130,A3,49.0,0.5,95,286.0
131,F#2,49.0,1.0,95,286.0
132,E4,49.5,0.5,95,286.0
133,F#3,50.0,1.0,95,286.0
134,D2,50.0,1.0,95,286.0
135,A3,51.0,1.0,95,286.0
136,E2,51.0,1.0,95,286.0
137,F#2,51.0,1.0,95,286.0
138,C4,51.062,0.938,95,286.0
139,E4,51.125,0.875,95,286.0
140,F3,52.0,0.5,95,286.0
141,F2,52.0,2.0,95,286.0
142,A3,52.5,0.5,95,286.0
143,C4,53.0,0.5,95,286.0
144,F#2,53.0,1.0,95,286.0
145,F3,53.5,0.5,95,286.0
146,A3,54.0,0.5,95,286.0
147,F2,54.0,2.0,95,286.0
148,E4,54.5,0.5,95,286.0
149,F3,55.0,0.5,95,286.0
150,F#2,55.0,1.0,95,286.0
151,G#3,55.5,0.5,95,286.0
152,B3,56.0,0.5,95,286.0
153,G2,56.0,2.0,95,286.0
154,F3,56.5,0.5,95,286.0
155,G#3,57.0,0.5,95,286.0
156,F#2,57.0,1.0,95,286.0
157,G4,57.5,1.0,95,286.0
158,G2,58.0,2.0,95,286.0
159,G#3,58.5,0.5,95,286.0
160,E4,59.0,1.0,95,286.0
161,F#2,59.0,1.0,95,286.0
162,C2,60.0,2.0,95,286.0
163,C4,60.0,1.0,95,286.0
164,E3,60.0,1.0,95,286.0
165,F#2,61.0,1.0,95,286.0
166,G1,62.0,2.0,95,286.0
167,E-4,62.0,1.0,95,286.0
168,F#3,62.0,1.0,95,286.0
169,F#2,63.0,1.0,95,286.0
170,E4,63.0,1.0,95,286.0
171,G3,63.0,1.0,95,286.0
172,C2,64.0,2.0,95,286.0
173,C4,64.0,1.0,95,286.0
174,E3,64.0,1.0,95,286.0
175,F#2,65.0,1.0,95,286.0
176,D2,66.0,1.0,95,286.0
177,E-2,67.0,1.0,95,286.0
178,F#2,67.0,1.0,95,286.0
179,G#3,68.0,4.0,95,286.0
180,E2,68.0,2.0,95,286.0
181,B3,69.0,3.0,95,286.0
182,F#2,69.0,1.0,95,286.0
183,D4,70.0,2.0,95,286.0
184,B2,70.0,2.0,95,286.0
185,E4,71.0,1.0,95,286.0
186,F#2,71.0,1.0,95,286.0
187,G#3,72.0,4.0,95,286.0
188,B3,72.0,4.0,95,286.0
189,D4,72.0,4.0,95,286.0
190,E4,72.0,4.0,95,286.0
191,E2,72.0,2.0,95,286.0
192,F#2,73.0,1.0,95,286.0
193,B2,74.0,2.0,95,286.0
194,F#2,75.0,1.0,95,286.0
195,G3,76.0,4.0,95,286.0
196,A1,76.0,2.0,95,286.0
197,B3,77.0,3.0,95,286.0
198,F#2,77.0,1.0,95,286.0
199,C#4,78.0,2.0,95,286.0
200,E2,78.0,2.0,95,286.0
201,E4,79.0,1.0,95,286.0
202,F#2,79.0,1.0,95,286.0
203,G3,80.0,4.0,95,286.0
204,B3,80.0,4.0,95,286.0
205,C#4,80.0,4.0,95,286.0
206,E4,80.0,4.0,95,286.0
207,A2,80.0,2.0,95,286.0
208,F#2,81.0,1.0,95,286.0
209,A2,82.0,2.0,95,286.0
210,F#2,83.0,1.0,95,286.0
211,F#3,84.0,4.0,95,286.0
212,D2,84.0,2.0,95,286.0
213,A3,85.0,3.0,95,286.0
214,F#2,85.0,1.0,95,286.0
215,C4,86.0,2.0,95,286.0
216,A2,86.0,2.0,95,286.0
217,E4,87.0,1.0,95,286.0
218,F#2,87.0,1.0,95,286.0
219,F#3,88.0,4.0,95,286.0
220,A3,88.0,4.0,95,286.0
221,C4,88.0,4.0,95,286.0
222,E4,88.0,4.0,95,286.0
223,D2,88.0,2.0,95,286.0
224,F#2,89.0,1.0,95,286.0
225,D2,90.0,2.0,95,286.0
226,F#2,91.0,1.0,95,286.0
227,F3,92.0,4.0,95,286.0
228,G2,92.0,2.0,95,286.0
229,A3,93.0,3.0,95,286.0
230,F#2,93.0,1.0,95,286.0
231,B3,94.0,2.0,95,286.0
232,D2,94.0,2.0,95,286.0
233,A4,95.0,1.0,95,286.0
234,F#2,95.0,1.0,95,286.0
235,F3,96.0,1.0,95,286.0
236,A3,96.0,1.0,95,286.0
237,B3,96.0,1.0,95,286.0
238,A4,96.0,1.0,95,286.0
239,G2,96.0,1.0,95,286.0
240,G4,97.0,2.0,95,286.0
241,G2,97.0,1.0,95,286.0
242,F#2,97.0,1.0,95,286.0
243,A2,98.0,1.0,95,286.0
244,B2,99.0,1.0,95,286.0
245,F#2,99.0,1.0,95,286.0
246,G3,100.0,0.5,95,286.0
247,C3,100.0,2.0,95,286.0
248,A3,100.5,0.5,95,286.0
249,C4,101.0,0.5,95,286.0
250,F#2,101.0,1.0,95,286.0
251,G3,101.5,0.5,95,286.0
252,A3,102.0,0.5,95,286.0
253,B2,102.0,2.0,95,286.0
254,E4,102.5,0.5,95,286.0
255,G3,103.0,0.5,95,286.0
256,F#2,103.0,1.0,95,286.0
257,A3,103.5,0.5,95,286.0
258,C4,104.0,0.5,95,286.0
259,A2,104.0,2.0,95,286.0
260,G3,104.5,0.5,95,286.0
261,A3,105.0,0.5,95,286.0
262,F#2,105.0,1.0,95,286.0
263,E4,105.5,0.5,95,286.0
264,G3,106.0,1.0,95,286.0
265,G2,106.0,2.0,95,286.0
266,A3,107.0,1.0,95,286.0
267,F#2,107.0,1.0,95,286.0
268,C4,107.062,0.938,95,286.0
269,E4,107.125,0.875,95,286.0
270,F#3,108.0,0.5,95,286.0
271,D2,108.0,2.0,95,286.0
272,A3,108.5,0.5,95,286.0
273,C4,109.0,0.5,95,286.0
274,F#2,109.0,1.0,95,286.0
275,F#3,109.5,0.5,95,286.0
276,A3,110.0,0.5,95,286.0
277,A1,110.0,2.0,95,286.0
278,E4,110.5,0.5,95,286.0
279,F#3,111.0,0.5,95,286.0
280,F#2,111.0,1.0,95,286.0
281,A3,111.5,0.5,95,286.0
282,C4,112.0,0.5,95,286.0
283,D2,112.0,2.0,95,286.0
284,F#3,112.5,0.5,95,286.0
285,A3,113.0,0.5,95,286.0
286,F#2,113.0,1.0,95,286.0
287,E4,113.5,0.5,95,286.0
288,F#3,114.0,1.0,95,286.0
289,D2,114.0,1.0,95,286.0
290,A3,115.0,1.0,95,286.0
291,E2,115.0,1.0,95,286.0
292,F#2,115.0,1.0,95,286.0
293,C4,115.062,0.938,95,286.0
294,E4,115.125,0.875,95,286.0
295,F3,116.0,0.5,95,286.0
296,F2,116.0,2.0,95,286.0
297,A3,116.5,0.5,95,286.0
298,C4,117.0,0.5,95,286.0
299,F#2,117.0,1.0,95,286.0
300,F3,117.5,0.5,95,286.0
301,A3,118.0,0.5,95,286.0
302,F2,118.0,2.0,95,286.0
303,E4,118.5,0.5,95,286.0
304,F3,119.0,0.5,95,286.0
305,F#2,119.0,1.0,95,286.0
306,G#3,119.5,0.5,95,286.0
307,B3,120.0,0.5,95,286.0
308,G2,120.0,2.0,95,286.0
309,F3,120.5,0.5,95,286.0
310,G#3,121.0,0.5,95,286.0
311,F#2,121.0,1.0,95,286.0
312,G4,121.5,1.0,95,286.0
313,G2,122.0,2.0,95,286.0
314,G#3,122.5,0.5,95,286.0
315,E4,123.0,1.0,95,286.0
316,F#2,123.0,1.0,95,286.0
317,C2,124.0,2.0,95,286.0
318,C4,124.0,1.0,95,286.0
319,E3,124.0,1.0,95,286.0
320,F#2,125.0,1.0,95,286.0
321,G1,126.0,2.0,95,286.0
322,E-4,126.0,1.0,95,286.0
323,F#3,126.0,1.0,95,286.0
324,F#2,127.0,1.0,95,286.0
325,E4,127.0,1.0,95,286.0
326,G3,127.0,1.0,95,286.0
327,G2,128.0,1.0,95,286.0
328,C4,128.0,1.0,95,286.0
329,E3,128.0,1.0,95,286.0
330,G2,129.0,1.0,95,286.0
331,E2,129.0,0.5,95,286.0
332,E2,129.5,0.5,95,286.0
333,A2,130.0,1.0,95,286.0
334,E2,130.0,0.5,95,286.0
335,E2,130.5,0.5,95,286.0
336,B2,131.0,1.0,95,286.0
337,E2,131.0,0.5,95,286.0
338,E2,131.5,0.5,95,286.0
339,B4,131.875,0.125,95,286.0
340,F#4,131.875,0.125,95,286.0
341,B3,131.875,0.125,95,286.0
342,C3,132.0,2.0,95,286.0
343,E2,132.0,1.0,95,286.0
344,C5,132.0,1.0,95,286.0
345,G4,132.0,1.0,95,286.0
346,C4,132.0,1.0,95,286.0
347,F#2,133.0,1.0,95,286.0
348,G4,133.0,0.5,95,286.0
349,C4,133.0,0.5,95,286.0
350,G3,133.5,0.5,70,286.0
351,A3,134.0,0.5,95,286.0
352,G2,134.0,2.0,95,286.0
353,G4,134.5,0.5,95,286.0
354,C4,134.5,0.5,95,286.0
355,G3,135.0,0.5,70,286.0
356,F#2,135.0,1.0,95,286.0
357,A3,135.5,0.5,95,286.0
358,C3,136.0,2.0,95,286.0
359,G4,136.0,1.0,95,286.0
360,C4,136.0,1.0,95,286.0
361,F#2,137.0,1.0,95,286.0
362,G4,137.0,0.5,95,286.0
363,C4,137.0,0.5,95,286.0
364,G3,137.5,0.5,70,286.0
365,A3,138.0,0.5,95,286.0
366,G2,138.0,2.0,95,286.0
367,G4,138.5,0.5,95,286.0
368,C4,138.5,0.5,95,286.0
369,G3,139.0,0.5,70,286.0
370,F#2,139.0,1.0,95,286.0
371,A3,139.5,0.5,95,286.0
372,D2,140.0,2.0,95,286.0
373,F#4,140.0,1.0,95,286.0
374,C4,140.0,1.0,95,286.0
375,F#2,141.0,1.0,95,286.0
376,F#4,141.0,0.5,95,286.0
377,C4,141.0,0.5,95,286.0
378,G3,141.5,0.5,70,286.0
379,A3,142.0,0.5,95,286.0
380,A2,142.0,2.0,95,286.0
381,F#4,142.5,0.5,95,286.0
382,C4,142.5,0.5,95,286.0
383,G3,143.0,0.5,70,286.0
384,F#2,143.0,1.0,95,286.0
385,A3,143.5,0.5,95,286.0
386,D2,144.0,2.0,95,286.0
387,F#4,144.0,1.0,95,286.0
388,C4,144.0,1.0,95,286.0
389,F#2,145.0,1.0,95,286.0
390,F#4,145.0,0.5,95,286.0
391,C4,145.0,0.5,95,286.0
392,G3,145.5,0.5,70,286.0
393,A3,146.0,0.5,95,286.0
394,D2,146.0,1.0,95,286.0
395,F#4,146.5,0.5,95,286.0
396,C4,146.5,0.5,95,286.0
397,G3,147.0,0.5,70,286.0
398,E2,147.0,1.0,95,286.0
399,F#2,147.0,1.0,95,286.0
400,A3,147.5,0.5,95,286.0
401,F2,148.0,2.0,95,286.0
402,F4,148.0,1.0,95,286.0
403,C4,148.0,1.0,95,286.0
404,F#2,149.0,1.0,95,286.0
405,F4,149.0,0.5,95,286.0
406,C4,149.0,0.5,95,286.0
407,G3,149.5,0.5,70,286.0
408,A3,150.0,0.5,95,286.0
409,F2,150.0,2.0,95,286.0
410,F4,150.5,0.5,95,286.0
411,C4,150.5,0.5,95,286.0
412,G3,151.0,0.5,70,286.0
413,F#2,151.0,1.0,95,286.0
414,A3,151.5,0.5,95,286.0
415,G2,152.0,2.0,95,286.0
416,F4,152.0,1.0,95,286.0
417,C4,152.0,1.0,95,286.0
418,F#2,153.0,1.0,95,286.0
419,F4,153.0,0.5,95,286.0
420,C4,153.0,0.5,95,286.0
421,G3,153.5,0.5,70,286.0
422,A3,154.0,0.5,95,286.0
423,G2,154.0,2.0,95,286.0
424,F4,154.5,0.5,95,286.0
425,C4,154.5,0.5,95,286.0
426,G3,155.0,0.5,70,286.0
427,F#2,155.0,1.0,95,286.0
428,A3,155.5,0.5,95,286.0
429,C2,156.0,2.0,95,286.0
430,E4,156.0,1.0,95,286.0
431,C4,156.0,1.0,95,286.0
432,F#2,157.0,1.0,95,286.0
433,E2,158.0,2.0,95,286.0
434,G4,158.0,2.0,95,286.0
435,E4,158.0,2.0,95,286.0
436,F#2,159.0,1.0,95,286.0
437,F2,160.0,2.0,95,286.0
438,C5,160.0,1.5,95,286.0
439,A4,160.0,1.5,95,286.0
440,E2,161.0,0.5,95,286.0
441,E2,161.5,0.5,95,286.0
442,G4,161.5,1.5,95,286.0
443,E4,161.5,1.5,95,286.0
444,G2,162.0,2.0,95,286.0
445,E2,162.0,0.5,95,286.0
446,E2,162.5,0.5,95,286.0
447,E2,163.0,0.5,95,286.0
448,E2,163.5,0.5,95,286.0
449,E5,164.0,0.5,95,286.0
450,C2,164.0,2.0,95,286.0
451,D5,164.5,0.5,95,286.0
452,C5,165.0,0.5,95,286.0
453,F#2,165.0,1.0,95,286.0
454,B4,165.5,0.5,95,286.0
455,A4,166.0,0.5,95,286.0
456,G2,166.0,2.0,95,286.0
457,G4,166.5,0.5,95,286.0
458,F4,167.0,0.5,95,286.0
459,F#2,167.0,1.0,95,286.0
460,E4,167.5,0.5,95,286.0
461,D4,168.0,0.5,95,286.0
462,C2,168.0,2.0,95,286.0
463,C4,168.5,0.5,95,286.0
464,B3,169.0,0.5,95,286.0
465,F#2,169.0,1.0,95,286.0
466,A3,169.5,0.5,95,286.0
467,G3,170.0,0.5,95,286.0
468,C2,170.0,2.0,95,286.0
469,F3,170.5,0.5,95,286.0
470,E3,171.0,0.5,95,286.0
471,F#2,171.0,1.0,95,286.0
472,D3,171.5,0.5,95,286.0
473,C3,172.0,0.5,95,286.0
474,D2,172.0,2.0,95,286.0
475,F#2,173.0,1.0,95,286.0
476,B2,173.5,0.5,95,286.0
477,A1,174.0,2.0,95,286.0
478,A2,175.0,1.0,95,286.0
479,F#2,175.0,1.0,95,286.0
480,A2,176.0,2.0,95,286.0
481,D2,176.0,2.0,95,286.0
482,F#2,177.0,1.0,95,286.0
483,D2,178.0,1.0,95,286.0
484,E2,179.0,1.0,95,286.0
485,F#2,179.0,1.0,95,286.0
486,A2,180.0,0.5,95,286.0
487,F2,180.0,2.0,95,286.0
488,B2,180.5,0.5,95,286.0
489,C3,181.0,0.5,95,286.0
490,F#2,181.0,1.0,95,286.0
491,D3,181.5,0.5,95,286.0
492,E3,182.0,0.5,95,286.0
493,F2,182.0,2.0,95,286.0
494,F3,182.5,0.5,95,286.0
495,G3,183.0,0.5,95,286.0
496,F#2,183.0,1.0,95,286.0
497,A3,183.5,0.5,95,286.0
498,B-3,184.0,0.5,95,286.0
499,G2,184.0,2.0,95,286.0
500,B3,184.5,0.5,95,286.0
501,C4,185.0,0.5,95,286.0
502,F#2,185.0,1.0,95,286.0
503,D4,185.5,0.5,95,286.0
504,E4,186.0,1.0,95,286.0
505,G2,186.0,2.0,95,286.0
506,F4,187.0,1.0,95,286.0
507,F#2,187.0,1.0,95,286.0
508,G4,188.0,1.0,95,286.0
509,C2,188.0,2.0,95,286.0
510,F#2,189.0,1.0,95,286.0
511,A4,189.5,0.5,95,286.0
512,G2,190.0,2.0,95,286.0
513,B4,191.0,0.5,95,286.0
514,F#2,191.0,1.0,95,286.0
515,C2,192.0,2.0,95,286.0
516,C5,193.0,1.5,95,286.0
517,F#2,193.0,1.0,95,286.0
518,D2,194.0,1.0,95,286.0
519,E2,194.0,0.5,95,286.0
520,E2,194.5,0.5,95,286.0
521,E-2,195.0,1.0,95,286.0
522,E2,195.0,0.5,95,286.0
523,E2,195.5,0.5,95,286.0
524,E2,196.0,4.0,95,286.0
525,E2,196.0,2.0,95,286.0
526,G#3,197.0,3.0,95,286.0
527,F#2,197.0,1.0,95,286.0
528,B3,198.0,2.0,95,286.0
529,B2,198.0,2.0,95,286.0
530,F#2,199.0,1.0,95,286.0
531,G4,199.0,1.0,95,286.0
532,D4,199.0,1.0,95,286.0
533,E2,200.0,4.0,95,286.0
534,G#3,200.0,4.0,95,286.0
535,B3,200.0,4.0,95,286.0
536,E2,200.0,2.0,95,286.0
537,G4,200.0,4.0,95,286.0
538,D4,200.0,4.0,95,286.0
539,F#2,201.0,1.0,95,286.0
540,B2,202.0,2.0,95,286.0
541,F#2,203.0,1.0,95,286.0
542,A2,204.0,4.0,95,286.0
543,A1,204.0,2.0,95,286.0
544,G3,205.0,3.0,95,286.0
545,F#2,205.0,1.0,95,286.0
546,B3,206.0,2.0,95,286.0
547,E2,206.0,2.0,95,286.0
548,F#2,207.0,1.0,95,286.0
549,F#4,207.0,1.0,95,286.0
550,C#4,207.0,1.0,95,286.0
551,A2,208.0,4.0,95,286.0
552,G3,208.0,4.0,95,286.0
553,B3,208.0,4.0,95,286.0
554,A2,208.0,2.0,95,286.0
555,F#4,208.0,4.0,95,286.0
556,C#4,208.0,4.0,95,286.0
557,F#2,209.0,1.0,95,286.0
558,A2,210.0,2.0,95,286.0
559,F#2,211.0,1.0,95,286.0
560,D3,212.0,4.0,95,286.0
561,D2,212.0,2.0,95,286.0
562,F#3,213.0,3.0,95,286.0
563,F#2,213.0,1.0,95,286.0
564,B-3,214.0,2.0,95,286.0
565,A2,214.0,2.0,95,286.0
566,F#2,215.0,1.0,95,286.0
567,F4,215.0,1.0,95,286.0
568,C4,215.0,1.0,95,286.0
569,D3,216.0,4.0,95,286.0
570,F#3,216.0,4.0,95,286.0
571,B-3,216.0,4.0,95,286.0
572,D2,216.0,2.0,95,286.0
573,F4,216.0,4.0,95,286.0
574,C4,216.0,4.0,95,286.0
575,F#2,217.0,1.0,95,286.0
576,D2,218.0,2.0,95,286.0
577,F#2,219.0,1.0,95,286.0
578,G2,220.0,4.0,95,286.0
579,G2,220.0,2.0,95,286.0
580,F3,221.0,3.0,95,286.0
581,F#2,221.0,1.0,95,286.0
582,G#3,222.0,2.0,95,286.0
583,D2,222.0,2.0,95,286.0
584,F#2,223.0,1.0,95,286.0
585,E4,223.0,1.0,95,286.0
586,B3,223.0,1.0,95,286.0
587,G2,224.0,4.0,95,286.0
588,F3,224.0,4.0,95,286.0
589,G#3,224.0,4.0,95,286.0
590,G2,224.0,1.0,95,286.0
591,E4,224.0,4.0,95,286.0
592,B3,224.0,4.0,95,286.0
593,G2,225.0,1.0,95,286.0
594,F#2,225.0,1.0,95,286.0
595,A2,226.0,1.0,95,286.0
596,E2,226.0,0.5,95,286.0
597,E2,226.5,0.5,95,286.0
598,B2,227.0,1.0,95,286.0
599,E2,227.0,0.5,95,286.0
600,E2,227.5,0.5,95,286.0
601,C3,228.0,2.0,95,286.0
602,C4,228.0,0.5,63,286.0
603,C5,228.0,0.5,63,286.0
604,B4,228.5,0.5,95,286.0
605,A4,229.0,0.5,70,286.0
606,F#2,229.0,1.0,95,286.0
607,G3,229.5,0.5,63,286.0
608,G4,229.5,0.5,63,286.0
609,F4,230.0,0.5,95,286.0
610,B2,230.0,2.0,95,286.0
611,E4,230.5,0.5,70,286.0
612,F#2,231.0,1.0,95,286.0
613,C4,231.0,1.0,63,286.0
614,C5,231.0,1.0,63,286.0
615,A2,232.0,2.0,95,286.0
616,F#2,233.0,1.0,95,286.0
617,G2,234.0,2.0,95,286.0
618,C4,234.0,2.0,63,286.0
619,C5,234.0,2.0,63,286.0
620,F#2,235.0,1.0,95,286.0
621,D2,236.0,2.0,95,286.0
622,F#2,237.0,1.0,95,286.0
623,A1,238.0,2.0,95,286.0
624,C4,238.0,0.5,63,286.0
625,C5,238.0,0.5,63,286.0
626,B4,238.5,0.5,95,286.0
627,A4,239.0,0.5,70,286.0
628,F#2,239.0,1.0,95,286.0
629,G3,239.5,0.5,63,286.0
630,G4,239.5,0.5,63,286.0
631,F4,240.0,0.5,95,286.0
632,D2,240.0,2.0,95,286.0
633,E4,240.5,0.5,70,286.0
634,F#2,241.0,1.0,95,286.0
635,C4,241.0,1.0,63,286.0
636,C5,241.0,1.0,63,286.0
637,D2,242.0,1.0,95,286.0
638,E2,243.0,1.0,95,286.0
639,F#2,243.0,1.0,95,286.0
640,F2,244.0,2.0,95,286.0
641,C4,244.0,2.0,63,286.0
642,C5,244.0,2.0,63,286.0
643,F#2,245.0,1.0,95,286.0
644,F2,246.0,2.0,95,286.0
645,F#2,247.0,1.0,95,286.0
646,G2,248.0,2.0,95,286.0
647,C4,248.0,0.5,63,286.0
648,C5,248.0,0.5,63,286.0
649,B4,248.5,0.5,95,286.0
650,A4,249.0,0.5,70,286.0
651,F#2,249.0,1.0,95,286.0
652,G3,249.5,0.5,63,286.0
653,G4,249.5,0.5,63,286.0
654,F4,250.0,0.5,95,286.0
655,G2,250.0,2.0,95,286.0
656,E4,250.5,0.5,70,286.0
657,F#2,251.0,1.0,95,286.0
658,C4,251.0,0.5,63,286.0
659,C5,251.0,0.5,63,286.0
660,B4,251.5,0.5,95,286.0
661,A4,252.0,0.5,70,286.0
662,C2,252.0,2.0,95,286.0
663,G3,252.5,0.5,63,286.0
664,G4,252.5,0.5,63,286.0
665,F4,253.0,0.5,95,286.0
666,F#2,253.0,1.0,95,286.0
667,E4,253.5,0.5,70,286.0
668,G2,254.0,2.0,95,286.0
669,C4,254.0,0.5,63,286.0
670,C5,254.0,0.5,63,286.0
671,B4,254.5,0.5,95,286.0
672,A4,255.0,0.5,70,286.0
673,F#2,255.0,1.0,95,286.0
674,G3,255.5,0.5,63,286.0
675,G4,255.5,0.5,63,286.0
676,F4,256.0,0.5,95,286.0
677,G2,256.0,1.0,95,286.0
678,E4,256.5,0.5,70,286.0
679,G2,257.0,1.0,95,286.0
680,E2,257.0,0.5,95,286.0
681,C4,257.0,0.5,63,286.0
682,C5,257.0,0.5,63,286.0
683,B4,257.5,0.5,95,286.0
684,E2,257.5,0.5,95,286.0
685,A4,258.0,0.5,70,286.0
686,A2,258.0,1.0,95,286.0
687,E2,258.0,0.5,95,286.0
688,E2,258.5,0.5,95,286.0
689,G3,258.5,0.5,63,286.0
690,G4,258.5,0.5,63,286.0
691,F4,259.0,0.5,95,286.0
692,B2,259.0,1.0,95,286.0
693,E2,259.0,0.5,95,286.0
694,E4,259.5,0.5,70,286.0
695,E2,259.5,0.5,95,286.0
696,C3,260.0,2.0,95,286.0
697,C4,260.0,2.0,63,286.0
698,C5,260.0,2.0,63,286.0
699,F#2,261.0,1.0,95,286.0
700,G2,262.0,2.0,95,286.0
701,F#2,263.0,1.0,95,286.0
702,G3,264.0,0.5,95,286.0
703,C3,264.0,2.0,95,286.0
704,A3,264.5,0.5,95,286.0
705,C4,265.0,0.5,95,286.0
706,F#2,265.0,1.0,95,286.0
707,G3,265.5,0.5,95,286.0
708,A3,266.0,0.5,95,286.0
709,G2,266.0,2.0,95,286.0
710,E4,266.5,0.5,95,286.0
711,G3,267.0,0.5,95,286.0
712,F#2,267.0,1.0,95,286.0
713,A3,267.5,0.5,95,286.0
714,C4,268.0,0.5,95,286.0
715,D2,268.0,2.0,95,286.0
716,G3,268.5,0.5,95,286.0
717,A3,269.0,0.5,95,286.0
718,F#2,269.0,1.0,95,286.0
719,E4,269.5,0.5,95,286.0
720,G3,270.0,1.0,95,286.0
721,A2,270.0,2.0,95,286.0
722,A3,271.0,1.0,95,286.0
723,F#2,271.0,1.0,95,286.0
724,C4,271.062,0.938,95,286.0
725,E4,271.125,0.875,95,286.0
726,F#3,272.0,0.5,95,286.0
727,D2,272.0,2.0,95,286.0
728,A3,272.5,0.5,95,286.0
729,C4,273.0,0.5,95,286.0
730,F#2,273.0,1.0,95,286.0
731,F#3,273.5,0.5,95,286.0
732,A3,274.0,0.5,95,286.0
733,D2,274.0,1.0,95,286.0
734,E4,274.5,0.5,95,286.0
735,F#3,275.0,0.5,95,286.0
736,E2,275.0,1.0,95,286.0
737,F#2,275.0,1.0,95,286.0
738,A3,275.5,0.5,95,286.0
739,C4,276.0,0.5,95,286.0
740,F2,276.0,2.0,95,286.0
741,F#3,276.5,0.5,95,286.0
742,A3,277.0,0.5,95,286.0
743,F#2,277.0,1.0,95,286.0
744,E4,277.5,0.5,95,286.0
745,F#3,278.0,1.0,95,286.0
746,F2,278.0,2.0,95,286.0
747,A3,279.0,1.0,95,286.0
748,F#2,279.0,1.0,95,286.0
749,C4,279.062,0.938,95,286.0
750,E4,279.125,0.875,95,286.0
751,F3,280.0,0.5,95,286.0
752,G2,280.0,2.0,95,286.0
753,A3,280.5,0.5,95,286.0
754,C4,281.0,0.5,95,286.0
755,F#2,281.0,1.0,95,286.0
756,F3,281.5,0.5,95,286.0
757,A3,282.0,0.5,95,286.0
758,G2,282.0,2.0,95,286.0
759,E4,282.5,0.5,95,286.0
760,F3,283.0,0.5,95,286.0
761,F#2,283.0,1.0,95,286.0
762,G#3,283.5,0.5,95,286.0
763,B3,284.0,0.5,95,286.0
764,C2,284.0,2.0,95,286.0
765,F3,284.5,0.5,95,286.0
766,G#3,285.0,0.5,95,286.0
767,F#2,285.0,1.0,95,286.0
768,G4,285.5,1.0,95,286.0
769,E2,286.0,2.0,95,286.0
770,G#3,286.5,0.5,95,286.0
771,E4,287.0,1.0,95,286.0
772,F#2,287.0,1.0,95,286.0
773,F2,288.0,2.0,95,286.0
774,C4,288.0,1.0,95,286.0
775,E3,288.0,1.0,95,286.0
776,F#2,289.0,1.0,95,286.0
777,E-4,289.5,1.5,95,286.0
778,F#3,289.5,1.5,95,286.0
779,G2,290.0,2.0,95,286.0
780,F#2,291.0,1.0,95,286.0
781,E4,291.0,1.0,95,286.0
782,G3,291.0,1.0,95,286.0
783,C2,292.0,2.0,95,286.0
784,G4,292.0,2.0,95,286.0
785,C4,292.0,2.0,95,286.0
786,F#2,293.0,1.0,95,286.0
787,G2,294.0,2.0,95,286.0
788,C5,294.0,1.0,95,286.0
789,E4,294.0,1.0,95,286.0
790,F#2,295.0,1.0,95,286.0
791,G3,296.0,0.5,95,286.0
792,C2,296.0,2.0,95,286.0
793,A3,296.5,0.5,95,286.0
794,C4,297.0,0.5,95,286.0
795,F#2,297.0,1.0,95,286.0
796,G3,297.5,0.5,95,286.0
797,A3,298.0,0.5,95,286.0
798,C2,298.0,1.0,95,286.0
799,E4,298.5,0.5,95,286.0
800,G3,299.0,0.5,95,286.0
801,C#2,299.0,1.0,95,286.0
802,F#2,299.0,1.0,95,286.0
803,A3,299.5,0.5,95,286.0
804,C4,300.0,0.5,95,286.0
805,D2,300.0,2.0,95,286.0
806,G3,300.5,0.5,95,286.0
807,A3,301.0,0.5,95,286.0
808,F#2,301.0,1.0,95,286.0
809,E4,301.5,0.5,95,286.0
810,G3,302.0,1.0,95,286.0
811,A1,302.0,2.0,95,286.0
812,A3,303.0,1.0,95,286.0
813,F#2,303.0,1.0,95,286.0
814,C4,303.062,0.938,95,286.0
815,E4,303.125,0.875,95,286.0
816,F#3,304.0,0.5,95,286.0
817,D2,304.0,2.0,95,286.0
818,A3,304.5,0.5,95,286.0
819,C4,305.0,0.5,95,286.0
820,F#2,305.0,1.0,95,286.0
821,F#3,305.5,0.5,95,286.0
822,A3,306.0,0.5,95,286.0
823,D2,306.0,1.0,95,286.0
824,E4,306.5,0.5,95,286.0
825,F#3,307.0,0.5,95,286.0
826,E2,307.0,1.0,95,286.0
827,F#2,307.0,1.0,95,286.0
828,A3,307.5,0.5,95,286.0
829,C4,308.0,0.5,95,286.0
830,F2,308.0,2.0,95,286.0
831,F#3,308.5,0.5,95,286.0
832,A3,309.0,0.5,95,286.0
833,F#2,309.0,1.0,95,286.0
834,E4,309.5,0.5,95,286.0
835,F#3,310.0,1.0,95,286.0
836,F2,310.0,2.0,95,286.0
837,A3,311.0,1.0,95,286.0
838,F#2,311.0,1.0,95,286.0
839,C4,311.062,0.938,95,286.0
840,E4,311.125,0.875,95,286.0
841,G#3,311.875,0.125,95,286.0
842,A3,312.0,0.5,95,286.0
843,G2,312.0,2.0,95,286.0
844,C4,312.5,0.5,95,286.0
845,F4,313.0,0.5,95,286.0
846,F#2,313.0,1.0,95,286.0
847,A3,313.5,0.5,95,286.0
848,C4,314.0,0.5,95,286.0
849,G2,314.0,2.0,95,286.0
850,E4,314.5,0.5,95,286.0
851,A3,315.0,0.5,95,286.0
852,F#2,315.0,1.0,95,286.0
853,C4,315.5,0.5,95,286.0
854,F4,316.0,1.0,95,286.0
855,C2,316.0,2.0,95,286.0
856,E4,317.0,1.0,95,286.0
857,F#2,317.0,1.0,95,286.0
858,G4,318.0,2.0,95,286.0
859,G2,318.0,2.0,95,286.0
860,F#2,319.0,1.0,95,286.0
861,E-4,320.0,0.5,95,286.0
862,C2,320.0,2.0,95,286.0
863,E2,320.0,0.5,95,286.0
864,D4,320.5,0.5,95,286.0
865,E2,320.5,0.5,95,286.0
866,C4,321.0,1.0,95,286.0
867,E2,321.0,0.5,95,286.0
868,E2,321.5,0.5,95,286.0
869,A3,322.0,1.0,95,286.0
870,D2,322.0,1.0,95,286.0
871,E2,322.0,0.5,95,286.0
872,E2,322.5,0.5,95,286.0
873,D4,323.0,1.0,95,286.0
874,E-2,323.0,1.0,95,286.0
875,E2,323.0,0.5,95,286.0
876,E2,323.5,0.5,95,286.0
877,C4,324.0,1.0,95,286.0
878,E2,324.0,2.0,95,286.0
879,F#2,325.0,1.0,95,286.0
880,B2,326.0,2.0,95,286.0
881,E5,327.0,0.5,95,286.0
882,F#2,327.0,1.0,95,286.0
883,E4,327.5,0.5,95,286.0
884,D5,328.0,0.5,95,286.0
885,E2,328.0,2.0,95,286.0
886,E4,328.5,0.5,95,286.0
887,C5,329.0,0.5,95,286.0
888,F#2,329.0,1.0,95,286.0
889,E4,329.5,0.5,95,286.0
890,B4,330.0,0.5,95,286.0
891,B2,330.0,2.0,95,286.0
892,E4,330.5,0.5,95,286.0
893,A4,331.0,0.5,95,286.0
894,F#2,331.0,1.0,95,286.0
895,E4,331.5,0.5,95,286.0
896,G#4,332.0,0.5,95,286.0
897,A1,332.0,2.0,95,286.0
898,E4,332.5,0.5,95,286.0
899,F4,333.0,0.5,95,286.0
900,F#2,333.0,1.0,95,286.0
901,E4,333.5,0.5,95,286.0
902,E4,334.0,0.5,95,286.0
903,E2,334.0,2.0,95,286.0
904,E4,334.5,0.5,95,286.0
905,D4,335.0,0.5,95,286.0
906,F#2,335.0,1.0,95,286.0
907,E4,335.5,0.5,95,286.0
908,C4,336.0,0.5,95,286.0
909,A2,336.0,2.0,95,286.0
910,E4,336.5,0.5,95,286.0
911,B3,337.0,0.5,95,286.0
912,F#2,337.0,1.0,95,286.0
913,E4,337.5,0.5,95,286.0
914,A3,338.0,0.5,95,286.0
915,A2,338.0,2.0,95,286.0
916,E4,338.5,0.5,95,286.0
917,G3,339.0,0.5,95,286.0
918,F#2,339.0,1.0,95,286.0
919,E4,339.5,0.5,95,286.0
920,A3,340.0,2.0,95,286.0
921,D2,340.0,2.0,95,286.0
922,F#2,341.0,1.0,95,286.0
923,A2,342.0,2.0,95,286.0
924,D5,343.0,1.0,95,286.0
925,F#2,343.0,1.0,95,286.0
926,D2,344.0,2.0,95,286.0
927,B4,344.5,0.5,95,286.0
928,C5,345.0,0.5,95,286.0
929,F#2,345.0,1.0,95,286.0
930,A4,345.5,0.5,95,286.0
931,B4,346.0,0.5,95,286.0
932,D2,346.0,2.0,95,286.0
933,G#4,346.5,0.5,95,286.0
934,A4,347.0,0.5,95,286.0
935,F#2,347.0,1.0,95,286.0
936,F#4,347.5,0.5,95,286.0
937,G#4,348.0,0.5,95,286.0
938,G2,348.0,2.0,95,286.0
939,F4,348.5,0.5,95,286.0
940,G4,349.0,0.5,95,286.0
941,F#2,349.0,1.0,95,286.0
942,E4,349.5,0.5,95,286.0
943,F4,350.0,0.5,95,286.0
944,D2,350.0,2.0,95,286.0
945,D4,350.5,0.5,95,286.0
946,E4,351.0,0.5,95,286.0
947,F#2,351.0,1.0,95,286.0
948,C4,351.5,0.5,95,286.0
949,D4,352.0,0.5,95,286.0
950,G2,352.0,1.0,95,286.0
951,E2,352.0,0.5,95,286.0
952,B3,352.5,0.5,95,286.0
953,E2,352.5,0.5,95,286.0
954,C4,353.0,0.5,95,286.0
955,G2,353.0,1.0,95,286.0
956,E2,353.0,0.5,95,286.0
957,A3,353.5,0.5,95,286.0
958,E2,353.5,0.5,95,286.0
959,B3,354.0,0.5,95,286.0
960,A2,354.0,1.0,95,286.0
961,E2,354.0,0.5,95,286.0
962,G3,354.5,0.5,95,286.0
963,E2,354.5,0.5,95,286.0
964,A3,355.0,0.5,95,286.0
965,B2,355.0,1.0,95,286.0
966,E2,355.0,0.5,95,286.0
967,F3,355.5,0.5,95,286.0
968,E2,355.5,0.5,95,286.0
969,G3,356.0,2.0,95,286.0
970,C3,356.0,2.0,95,286.0
971,F#2,357.0,1.0,95,286.0
972,B2,358.0,2.0,95,286.0
973,C3,359.0,1.0,95,286.0
974,F#2,359.0,1.0,95,286.0
975,E3,360.0,1.0,95,286.0
976,A2,360.0,2.0,95,286.0
977,G3,361.0,1.0,95,286.0
978,F#2,361.0,1.0,95,286.0
979,F#3,362.0,1.0,95,286.0
980,G2,362.0,2.0,95,286.0
981,A3,363.0,1.0,95,286.0
982,F#2,363.0,1.0,95,286.0
983,G3,364.0,1.0,95,286.0
984,D2,364.0,2.0,95,286.0
985,C4,365.0,1.0,95,286.0
986,F#2,365.0,1.0,95,286.0
987,B3,366.0,1.0,95,286.0
988,A1,366.0,2.0,95,286.0
989,D4,367.0,1.0,95,286.0
990,F#2,367.0,1.0,95,286.0
991,C4,368.0,1.0,95,286.0
992,D2,368.0,2.0,95,286.0
993,E4,369.0,1.0,95,286.0
994,F#2,369.0,1.0,95,286.0
995,D4,370.0,1.0,95,286.0
996,D2,370.0,1.0,95,286.0
997,F4,371.0,1.0,95,286.0
998,E2,371.0,1.0,95,286.0
999,F#2,371.0,1.0,95,286.0
1000,E4,372.0,1.0,95,286.0
1001,F2,372.0,2.0,95,286.0
1002,G4,373.0,1.0,95,286.0
1003,F#2,373.0,1.0,95,286.0
1004,F#4,374.0,1.0,95,286.0
1005,F2,374.0,2.0,95,286.0
1006,A4,375.0,1.0,95,286.0
1007,F#2,375.0,1.0,95,286.0
1008,G4,376.0,1.0,95,286.0
1009,G2,376.0,2.0,95,286.0
1010,C5,377.0,1.0,95,286.0
1011,F#2,377.0,1.0,95,286.0
1012,B4,378.0,1.0,95,286.0
1013,G2,378.0,2.0,95,286.0
1014,D5,379.0,1.0,95,286.0
1015,F#2,379.0,1.0,95,286.0
1016,C5,380.0,1.0,95,286.0
1017,C2,380.0,2.0,95,286.0
1018,E5,381.0,1.0,95,286.0
1019,F#2,381.0,1.0,95,286.0
1020,D5,382.0,1.0,95,286.0
1021,G2,382.0,2.0,95,286.0
1022,F5,383.0,1.0,95,286.0
1023,F#2,383.0,1.0,95,286.0
1024,E5,384.0,1.0,95,286.0
1025,C2,384.0,2.0,95,286.0
1026,E2,384.0,0.5,95,286.0
1027,E2,384.5,0.5,95,286.0
1028,E2,385.0,0.5,95,286.0
1029,C5,385.5,0.5,95,286.0
1030,E2,385.5,0.5,95,286.0
1031,C2,386.0,1.0,95,286.0
1032,E2,386.0,0.5,95,286.0
1033,E2,386.5,0.5,95,286.0
1034,A4,387.0,1.0,95,286.0
1035,D2,387.0,1.0,95,286.0
1036,E2,387.0,0.5,95,286.0
1037,E2,387.5,0.5,95,286.0
1038,C5,388.0,1.0,95,286.0
1039,G2,388.0,2.0,95,286.0
1040,B1,388.0,1.0,95,286.0
1041,F#2,389.0,1.0,95,286.0
1042,D2,390.0,2.0,95,286.0
1043,E2,390.0,1.0,95,286.0
1044,F#2,391.0,1.0,95,286.0
1045,G4,392.0,0.5,95,286.0
1046,G2,392.0,2.0,95,286.0
1047,B1,392.0,1.0,95,286.0
1048,D4,392.5,0.5,95,286.0
1049,B3,393.0,0.5,95,286.0
1050,F#2,393.0,1.0,95,286.0
1051,E4,393.5,0.5,95,286.0
1052,D4,394.0,0.5,95,286.0
1053,G2,394.0,1.0,95,286.0
1054,E2,394.0,1.0,95,286.0
1055,B3,394.5,0.5,95,286.0
1056,G4,395.0,1.0,95,286.0
1057,G#2,395.0,1.0,95,286.0
1058,F#2,395.0,1.0,95,286.0
1059,A2,396.0,2.0,95,286.0
1060,B1,396.0,1.0,95,286.0
1061,B-4,396.875,0.125,95,286.0
1062,B4,397.0,3.0,95,286.0
1063,F#2,397.0,1.0,95,286.0
1064,E2,398.0,2.0,95,286.0
1065,E2,398.0,1.0,95,286.0
1066,F#2,399.0,1.0,95,286.0
1067,G4,400.0,0.5,95,286.0
1068,A1,400.0,2.0,95,286.0
1069,B1,400.0,1.0,95,286.0
1070,C#4,400.5,0.5,95,286.0
1071,B3,401.0,0.5,95,286.0
1072,F#2,401.0,1.0,95,286.0
1073,E4,401.5,0.5,70,286.0
1074,C#4,402.0,0.5,95,286.0
1075,E2,402.0,2.0,95,286.0
1076,E2,402.0,1.0,95,286.0
1077,B3,402.5,0.5,95,286.0
1078,G4,403.0,1.0,95,286.0
1079,F#2,403.0,1.0,95,286.0
1080,C2,404.0,2.0,95,286.0
1081,B1,404.0,1.0,95,286.0
1082,B-4,404.875,0.125,95,286.0
1083,B4,405.0,2333/1000,95,286.0
1084,F#2,405.0,1.0,95,286.0
1085,C2,406.0,2.0,95,286.0
1086,E2,406.0,1.0,95,286.0
1087,F#2,407.0,1.0,95,286.0
1088,C5,407.333,667/1000,95,286.0
1089,C5,408.0,667/1000,95,286.0
1090,D2,408.0,2.0,95,286.0
1091,B1,408.0,1.0,95,286.0
1092,C#5,408.667,1333/1000,95,286.0
1093,F#2,409.0,1.0,95,286.0
1094,D5,410.0,1333/1000,95,286.0
1095,D2,410.0,2.0,95,286.0
1096,E2,410.0,1.0,95,286.0
1097,F#2,411.0,1.0,95,286.0
1098,C#5,411.333,667/1000,95,286.0
1099,C#5,412.0,667/1000,95,286.0
1100,G2,412.0,2.0,95,286.0
1101,B1,412.0,1.0,95,286.0
1102,C5,412.667,1333/1000,95,286.0
1103,F#2,413.0,1.0,95,286.0
1104,B-4,413.875,0.125,95,286.0
1105,B4,414.0,1.0,95,286.0
1106,B1,414.0,2.0,95,286.0
1107,E2,414.0,1.0,95,286.0
1108,G4,415.0,1.0,95,286.0
1109,F#2,415.0,1.0,95,286.0
1110,D4,416.0,1.5,95,286.0
1111,C2,416.0,2.0,95,286.0
1112,B1,416.0,1.0,95,286.0
1113,F#2,417.0,1.0,95,286.0
1114,G4,417.5,1.5,95,286.0
1115,D2,418.0,2.0,95,286.0
1116,E2,418.0,1.0,95,286.0
1117,D4,419.0,1.0,95,286.0
1118,F#2,419.0,1.0,95,286.0
1119,G4,420.0,4.0,95,286.0
1120,G2,420.0,2.0,95,286.0
1121,B1,420.0,1.0,95,286.0
1122,F#2,421.0,1.0,95,286.0
1123,D2,422.0,2.0,95,286.0
1124,E2,422.0,1.0,95,286.0
1125,F#2,423.0,1.0,95,286.0
1126,G1,424.0,2.0,95,286.0
1127,B1,424.0,1.0,95,286.0
1128,G3,424.5,0.5,95,286.0
1129,B3,425.0,0.5,95,286.0
1130,F#2,425.0,1.0,95,286.0
1131,D4,425.5,0.5,95,286.0
1132,E4,426.0,0.5,95,286.0
1133,G1,426.0,1.0,95,286.0
1134,E2,426.0,1.0,95,286.0
1135,G4,426.5,0.5,95,286.0
1136,B4,427.0,0.5,95,286.0
1137,G#1,427.0,1.0,95,286.0
1138,F#2,427.0,1.0,95,286.0
1139,D5,427.5,0.5,95,286.0
1140,E5,428.0,0.5,95,286.0
1141,A1,428.0,2.0,95,286.0
1142,B1,428.0,1.0,95,286.0
1143,D5,428.5,0.5,70,286.0
1144,B4,429.0,0.5,95,286.0
1145,F#2,429.0,1.0,95,286.0
1146,G4,429.5,0.5,95,286.0
1147,E4,430.0,0.5,95,286.0
1148,E2,430.0,2.0,95,286.0
1149,E2,430.0,1.0,95,286.0
1150,D4,430.5,0.5,95,286.0
1151,B3,431.0,0.5,95,286.0
1152,F#2,431.0,1.0,95,286.0
1153,G3,431.5,0.5,95,286.0
1154,B3,432.0,1.0,95,286.0
1155,A1,432.0,2.0,95,286.0
1156,B1,432.0,1.0,95,286.0
1157,F#2,433.0,1.0,95,286.0
1158,C#4,433.875,0.125,95,286.0
1159,G3,433.875,0.125,95,286.0
1160,E2,434.0,2.0,95,286.0
1161,E2,434.0,1.0,95,286.0
1162,E4,434.0,1.0,95,286.0
1163,B3,434.0,1.0,95,286.0
1164,D4,434.0,1.0,95,286.0
1165,G#3,434.0,1.0,95,286.0
1166,F#2,435.0,1.0,95,286.0
1167,E4,435.0,1.0,95,286.0
1168,B3,435.0,1.0,95,286.0
1169,C#4,435.0,1.0,95,286.0
1170,G3,435.0,1.0,95,286.0
1171,C2,436.0,2.0,95,286.0
1172,B1,436.0,1.0,95,286.0
1173,E4,436.0,2.0,95,286.0
1174,B3,436.0,2.0,95,286.0
1175,C#4,436.0,2.0,95,286.0
1176,G3,436.0,2.0,95,286.0
1177,F#2,437.0,1.0,95,286.0
1178,C2,438.0,2.0,95,286.0
1179,E2,438.0,1.0,95,286.0
1180,F#2,439.0,1.0,95,286.0
1181,B-4,439.875,0.125,95,286.0
1182,B4,440.0,1.5,95,286.0
1183,D2,440.0,2.0,95,286.0
1184,B1,440.0,1.0,95,286.0
1185,F#2,441.0,1.0,95,286.0
1186,C5,441.5,0.5,95,286.0
1187,D2,442.0,2.0,95,286.0
1188,E2,442.0,1.0,95,286.0
1189,B-4,442.875,0.125,95,286.0
1190,B4,443.0,1.0,95,286.0
1191,F#2,443.0,1.0,95,286.0
1192,B4,444.0,0.5,95,286.0
1193,G2,444.0,2.0,95,286.0
1194,B1,444.0,1.0,95,286.0
1195,C5,444.5,0.5,95,286.0
1196,F#2,445.0,1.0,95,286.0
1197,B-4,445.875,0.125,95,286.0
1198,B4,446.0,1.0,95,286.0
1199,D2,446.0,2.0,95,286.0
1200,E2,446.0,1.0,95,286.0
1201,C5,447.0,1.0,95,286.0
1202,F#2,447.0,1.0,95,286.0
1203,B4,448.0,1.0,95,286.0
1204,G2,448.0,2.0,95,286.0
1205,B1,448.0,1.0,95,286.0
1206,G4,449.0,1.0,95,286.0
1207,F#2,449.0,1.0,95,286.0
1208,D4,450.0,1.0,95,286.0
1209,A2,450.0,1.0,95,286.0
1210,E2,450.0,1.0,95,286.0
1211,A4,451.0,1.0,95,286.0
1212,B-2,451.0,1.0,95,286.0
1213,F#2,451.0,1.0,95,286.0
1214,G4,452.0,4.0,95,286.0
1215,B2,452.0,2.0,95,286.0
1216,B1,452.0,1.0,95,286.0
1217,F#2,453.0,1.0,95,286.0
1218,F#2,454.0,2.0,95,286.0
1219,E2,454.0,1.0,95,286.0
1220,F#2,455.0,1.0,95,286.0
1221,B2,456.0,0.5,95,286.0
1222,B1,456.0,2.0,95,286.0
1223,B1,456.0,1.0,95,286.0
1224,C#3,456.5,0.5,95,286.0
1225,E-3,457.0,0.5,95,286.0
1226,F#2,457.0,1.0,95,286.0
1227,E3,457.5,0.5,95,286.0
1228,F#3,458.0,0.5,95,286.0
1229,B1,458.0,2.0,95,286.0
1230,E2,458.0,1.0,95,286.0
1231,G#3,458.5,0.5,95,286.0
1232,A3,459.0,0.5,95,286.0
1233,F#2,459.0,1.0,95,286.0
1234,B3,459.5,0.5,95,286.0
1235,C#4,460.0,0.5,95,286.0
1236,E2,460.0,2.0,95,286.0
1237,B1,460.0,1.0,95,286.0
1238,E-4,460.5,0.5,95,286.0
1239,E4,461.0,0.5,95,286.0
1240,F#2,461.0,1.0,95,286.0
1241,F#4,461.5,0.5,95,286.0
1242,G#4,462.0,0.5,95,286.0
1243,B2,462.0,2.0,95,286.0
1244,E2,462.0,1.0,95,286.0
1245,A4,462.5,0.5,95,286.0
1246,B4,463.0,0.5,95,286.0
1247,F#2,463.0,1.0,95,286.0
1248,C#5,463.5,0.5,95,286.0
1249,D5,464.0,0.5,95,286.0
1250,E2,464.0,2.0,95,286.0
1251,B1,464.0,1.0,95,286.0
1252,B4,464.5,0.5,95,286.0
1253,C#5,465.0,0.5,95,286.0
1254,F#2,465.0,1.0,95,286.0
1255,A4,465.5,0.5,95,286.0
1256,B4,466.0,0.5,95,286.0
1257,B2,466.0,2.0,95,286.0
1258,E2,466.0,1.0,95,286.0
1259,G#4,466.5,0.5,95,286.0
1260,A4,467.0,0.5,95,286.0
1261,F#2,467.0,1.0,95,286.0
1262,F#4,467.5,0.5,95,286.0
1263,G#4,468.0,0.5,95,286.0
1264,A2,468.0,2.0,95,286.0
1265,B1,468.0,1.0,95,286.0
1266,F4,468.5,0.5,95,286.0
1267,F#4,469.0,0.5,95,286.0
1268,F#2,469.0,1.0,95,286.0
1269,E4,469.5,0.5,95,286.0
1270,F4,470.0,0.5,95,286.0
1271,E2,470.0,2.0,95,286.0
1272,E2,470.0,1.0,95,286.0
1273,D4,470.5,0.5,95,286.0
1274,E4,471.0,0.5,95,286.0
1275,F#2,471.0,1.0,95,286.0
1276,C4,471.5,0.5,95,286.0
1277,D4,472.0,0.5,95,286.0
1278,A1,472.0,2.0,95,286.0
1279,B1,472.0,1.0,95,286.0
1280,B3,472.5,0.5,95,286.0
1281,C4,473.0,0.5,95,286.0
1282,F#2,473.0,1.0,95,286.0
1283,A3,473.5,0.5,95,286.0
1284,B3,474.0,0.5,95,286.0
1285,E2,474.0,2.0,95,286.0
1286,E2,474.0,1.0,95,286.0
1287,G3,474.5,0.5,95,286.0
1288,A3,475.0,0.5,95,286.0
1289,F#2,475.0,1.0,95,286.0
1290,F#3,475.5,0.5,95,286.0
1291,G3,476.0,1.0,95,286.0
1292,D2,476.0,2.0,95,286.0
1293,B1,476.0,1.0,95,286.0
1294,F#3,477.0,1.0,95,286.0
1295,F#2,477.0,1.0,95,286.0
1296,E3,478.0,1.0,95,286.0
1297,A2,478.0,2.0,95,286.0
1298,E2,478.0,1.0,95,286.0
1299,E-3,479.0,1.0,95,286.0
1300,F#2,479.0,1.0,95,286.0
1301,D3,480.0,1.0,95,286.0
1302,D2,480.0,1.0,95,286.0
1303,E2,480.0,0.5,95,286.0
1304,B1,480.0,0.5,95,286.0
1305,E2,480.5,0.5,95,286.0
1306,D2,481.0,1.0,95,286.0
1307,E2,481.0,0.5,95,286.0
1308,E2,481.5,0.5,95,286.0
1309,D5,481.875,0.125,95,286.0
1310,E5,482.0,1.5,95,286.0
1311,E2,482.0,1.0,95,286.0
1312,E2,482.0,0.5,95,286.0
1313,E2,482.5,0.5,95,286.0
1314,F#2,483.0,1.0,95,286.0
1315,E2,483.0,0.5,95,286.0
1316,D5,483.5,0.5,95,286.0
1317,E2,483.5,0.5,95,286.0
1318,D5,484.0,3.0,95,286.0
1319,G2,484.0,2.0,95,286.0
1320,B1,484.0,1.0,95,286.0
1321,F#2,485.0,1.0,95,286.0
1322,D2,486.0,2.0,95,286.0
1323,E2,486.0,1.0,95,286.0
1324,D5,486.875,0.125,95,286.0
1325,A4,486.875,0.125,95,286.0
1326,F#2,487.0,1.0,95,286.0
1327,E5,487.0,1.0,95,286.0
1328,B4,487.0,1.0,95,286.0
1329,G2,488.0,2.0,95,286.0
1330,B1,488.0,1.0,95,286.0
1331,F#2,489.0,1.0,95,286.0
1332,E5,489.0,1.0,95,286.0
1333,B4,489.0,1.0,95,286.0
1334,G2,490.0,1.0,95,286.0
1335,E2,490.0,1.0,95,286.0
1336,D5,490.0,3.0,95,286.0
1337,A4,490.0,3.0,95,286.0
1338,G#2,491.0,1.0,95,286.0
1339,F#2,491.0,1.0,95,286.0
1340,A2,492.0,2.0,95,286.0
1341,B1,492.0,1.0,95,286.0
1342,F#2,493.0,1.0,95,286.0
1343,E2,494.0,2.0,95,286.0
1344,E2,494.0,1.0,95,286.0
1345,A4,494.875,0.125,95,286.0
1346,E4,494.875,0.125,95,286.0
1347,F#2,495.0,1.0,95,286.0
1348,B4,495.0,1.5,95,286.0
1349,F#4,495.0,1.5,95,286.0
1350,A1,496.0,2.0,95,286.0
1351,B1,496.0,1.0,95,286.0
1352,A4,496.5,0.5,95,286.0
1353,E4,496.5,0.5,95,286.0
1354,F#2,497.0,1.0,95,286.0
1355,A4,497.0,4.0,95,286.0
1356,E4,497.0,4.0,95,286.0
1357,E2,498.0,2.0,95,286.0
1358,E2,498.0,1.0,95,286.0
1359,F#2,499.0,1.0,95,286.0
1360,C2,500.0,2.0,95,286.0
1361,B1,500.0,1.0,95,286.0
1362,F#2,501.0,1.0,95,286.0
1363,C2,502.0,2.0,95,286.0
1364,E2,502.0,1.0,95,286.0
1365,D5,502.875,0.125,95,286.0
1366,A4,502.875,0.125,95,286.0
1367,F#2,503.0,1.0,95,286.0
1368,E5,503.0,1.5,95,286.0
1369,B4,503.0,1.5,95,286.0
1370,D2,504.0,2.0,95,286.0
1371,B1,504.0,1.0,95,286.0
1372,D5,504.5,0.5,95,286.0
1373,A4,504.5,0.5,95,286.0
1374,F#2,505.0,1.0,95,286.0
1375,D5,505.0,1.0,95,286.0
1376,A4,505.0,1.0,95,286.0
1377,D2,506.0,2.0,95,286.0
1378,E2,506.0,1.0,95,286.0
1379,A4,506.875,0.125,95,286.0
1380,E4,506.875,0.125,95,286.0
1381,F#2,507.0,1.0,95,286.0
1382,B4,507.0,1.5,95,286.0
1383,F#4,507.0,1.5,95,286.0
1384,G2,508.0,2.0,95,286.0
1385,B1,508.0,1.0,95,286.0
1386,A4,508.5,0.5,95,286.0
1387,E4,508.5,0.5,95,286.0
1388,F#2,509.0,1.0,95,286.0
1389,D2,510.0,2.0,95,286.0
1390,E2,510.0,1.0,95,286.0
1391,G4,510.875,0.125,95,286.0
1392,D4,510.875,0.125,95,286.0
1393,F#2,511.0,1.0,95,286.0
1394,A4,511.0,1.5,95,286.0
1395,E4,511.0,1.5,95,286.0
1396,G2,512.0,1.0,95,286.0
1397,E2,512.0,0.5,95,286.0
1398,E2,512.5,0.5,95,286.0
1399,G4,512.5,0.5,95,286.0
1400,D4,512.5,0.5,95,286.0
1401,F2,513.0,1.0,95,286.0
1402,E2,513.0,0.5,95,286.0
1403,G4,513.0,2.0,95,286.0
1404,D4,513.0,2.0,95,286.0
1405,E2,513.5,0.5,95,286.0
1406,E2,514.0,1.0,95,286.0
1407,E2,514.0,0.5,95,286.0
1408,E2,514.5,0.5,95,286.0
1409,D2,515.0,1.0,95,286.0
1410,E2,515.0,0.5,95,286.0
1411,E2,515.5,0.5,95,286.0
1412,C2,516.0,2.0,95,286.0
1413,F#2,517.0,1.0,95,286.0
1414,G2,518.0,2.0,95,286.0
1415,F3,519.0,1.0,95,286.0
1416,F#2,519.0,1.0,95,286.0
1417,F#3,520.0,1.0,95,286.0
1418,C2,520.0,2.0,95,286.0
1419,G3,521.0,0.5,95,286.0
1420,F#2,521.0,1.0,95,286.0
1421,A3,521.5,0.5,95,286.0
1422,C4,522.0,0.5,95,286.0
1423,C2,522.0,2.0,95,286.0
1424,G3,522.5,0.5,95,286.0
1425,A3,523.0,0.5,95,286.0
1426,F#2,523.0,1.0,95,286.0
1427,E4,523.5,0.5,95,286.0
1428,G3,524.0,0.5,95,286.0
1429,D2,524.0,2.0,95,286.0
1430,A3,524.5,0.5,95,286.0
1431,C4,525.0,0.5,95,286.0
1432,F#2,525.0,1.0,95,286.0
1433,G3,525.5,0.5,95,286.0
1434,A3,526.0,0.5,95,286.0
1435,A1,526.0,2.0,95,286.0
1436,E4,526.5,0.5,95,286.0
1437,G3,527.0,1.0,95,286.0
1438,F#2,527.0,1.0,95,286.0
1439,A3,528.0,1.0,95,286.0
1440,D2,528.0,2.0,95,286.0
1441,C4,528.062,0.938,95,286.0
1442,E4,528.125,0.875,95,286.0
1443,F#3,529.0,0.5,95,286.0
1444,F#2,529.0,1.0,95,286.0
1445,A3,529.5,0.5,95,286.0
1446,C4,530.0,0.5,95,286.0
1447,D2,530.0,1.0,95,286.0
1448,F#3,530.5,0.5,95,286.0
1449,A3,531.0,0.5,95,286.0
1450,E2,531.0,1.0,95,286.0
1451,F#2,531.0,1.0,95,286.0
1452,E4,531.5,0.5,95,286.0
1453,F#3,532.0,0.5,95,286.0
1454,F2,532.0,2.0,95,286.0
1455,A3,532.5,0.5,95,286.0
1456,C4,533.0,0.5,95,286.0
1457,F#2,533.0,1.0,95,286.0
1458,F#3,533.5,0.5,95,286.0
1459,A3,534.0,0.5,95,286.0
1460,F2,534.0,2.0,95,286.0
1461,E4,534.5,0.5,95,286.0
1462,F#3,535.0,1.0,95,286.0
1463,F#2,535.0,1.0,95,286.0
1464,A3,536.0,1.0,95,286.0
1465,G2,536.0,2.0,95,286.0
1466,C4,536.062,0.938,95,286.0
1467,E4,536.125,0.875,95,286.0
1468,F3,537.0,0.5,95,286.0
1469,F#2,537.0,1.0,95,286.0
1470,A3,537.5,0.5,95,286.0
1471,C4,538.0,0.5,95,286.0
1472,G2,538.0,2.0,95,286.0
1473,F3,538.5,0.5,95,286.0
1474,A3,539.0,0.5,95,286.0
1475,F#2,539.0,1.0,95,286.0
1476,E4,539.5,0.5,95,286.0
1477,F3,540.0,0.5,95,286.0
1478,C2,540.0,2.0,95,286.0
1479,G#3,540.5,0.5,95,286.0
1480,B3,541.0,0.5,95,286.0
1481,F#2,541.0,1.0,95,286.0
1482,F3,541.5,0.5,95,286.0
1483,G#3,542.0,0.5,95,286.0
1484,E2,542.0,2.0,95,286.0
1485,G4,542.5,1.0,95,286.0
1486,F#2,543.0,1.0,95,286.0
1487,G#3,543.5,0.5,95,286.0
1488,E4,544.0,1.0,95,286.0
1489,F2,544.0,2.0,95,286.0
1490,F#2,545.0,1.0,95,286.0
1491,C4,545.0,1.0,95,286.0
1492,E3,545.0,1.0,95,286.0
1493,G2,546.0,2.0,95,286.0
1494,E2,547.0,0.5,95,286.0
1495,G4,547.0,2.0,95,286.0
1496,E4,547.0,2.0,95,286.0
1497,E2,547.5,0.5,95,286.0
1498,C2,548.0,2.0,95,286.0
1499,F#2,549.0,1.0,95,286.0
1500,C5,549.0,2.0,95,286.0
1501,A4,549.0,2.0,95,286.0
1502,G2,550.0,2.0,95,286.0
1503,F#2,551.0,1.0,95,286.0
1504,G4,551.0,1.0,95,286.0
1505,E4,551.0,1.0,95,286.0
1506,C2,552.0,2.0,95,286.0
1507,C5,553.0,0.5,95,286.0
1508,F#2,553.0,1.0,95,286.0
1509,A4,553.5,0.5,70,286.0
1510,E4,554.0,0.5,70,286.0
1511,C2,554.0,2.0,95,286.0
1512,G4,554.5,0.5,95,286.0
1513,A4,555.0,0.5,95,286.0
1514,F#2,555.0,1.0,95,286.0
1515,E4,555.5,0.5,70,286.0
1516,G4,556.0,0.5,95,286.0
1517,D2,556.0,2.0,95,286.0
1518,E4,556.5,0.5,70,286.0
1519,B3,557.0,0.5,70,286.0
1520,F#2,557.0,1.0,95,286.0
1521,D4,557.5,0.5,95,286.0
1522,E4,558.0,0.5,95,286.0
1523,A1,558.0,2.0,95,286.0
1524,B3,558.5,0.5,70,286.0
1525,G4,559.0,0.5,95,286.0
1526,F#2,559.0,1.0,95,286.0
1527,E4,559.5,0.5,70,286.0
1528,B3,560.0,0.5,70,286.0
1529,D2,560.0,2.0,95,286.0
1530,D4,560.5,0.5,95,286.0
1531,E4,561.0,0.5,95,286.0
1532,F#2,561.0,1.0,95,286.0
1533,B3,561.5,3.5,70,286.0
1534,D4,562.0,0.5,95,286.0
1535,D2,562.0,1.0,95,286.0
1536,C4,562.5,0.5,70,286.0
1537,G3,563.0,0.5,70,286.0
1538,E2,563.0,1.0,95,286.0
1539,F#2,563.0,1.0,95,286.0
1540,A3,563.5,0.5,95,286.0
1541,C4,564.0,0.5,95,286.0
1542,F2,564.0,2.0,95,286.0
1543,G3,564.5,0.5,70,286.0
1544,A3,565.0,0.5,95,286.0
1545,B3,565.0,4.0,70,286.0
1546,F#2,565.0,1.0,95,286.0
1547,G3,565.5,0.5,70,286.0
1548,D3,566.0,0.5,70,286.0
1549,F2,566.0,2.0,95,286.0
1550,E3,566.5,0.5,95,286.0
1551,G3,567.0,0.5,95,286.0
1552,F#2,567.0,1.0,95,286.0
1553,D3,567.5,0.5,70,286.0
1554,E3,568.0,1.0,95,286.0
1555,G2,568.0,2.0,95,286.0
1556,D3,569.0,1.5,95,286.0
1557,B3,569.0,1.5,70,286.0
1558,F#2,569.0,1.0,95,286.0
1559,G2,570.0,2.0,95,286.0
1560,C3,570.5,0.5,95,286.0
1561,F#2,571.0,1.0,95,286.0
1562,A2,572.0,1.0,95,286.0
1563,C2,572.0,2.0,95,286.0
1564,F#2,573.0,1.0,95,286.0
1565,G2,574.0,1.0,95,286.0
1566,G2,574.0,2.0,95,286.0
1567,A2,575.0,1.0,95,286.0
1568,F#2,575.0,1.0,95,286.0
1569,B2,576.0,1.0,95,286.0
1570,C2,576.0,2.0,95,286.0
1571,C3,577.0,1.0,95,286.0
1572,F#2,577.0,1.0,95,286.0
1573,E3,578.0,1.0,95,286.0
1574,D2,578.0,1.0,95,286.0
1575,E2,578.5,0.5,95,286.0
1576,G3,579.0,1.0,95,286.0
1577,E-2,579.0,1.0,95,286.0
1578,F#2,579.0,0.5,95,286.0
1579,E2,579.0,0.5,95,286.0
1580,E2,579.5,0.5,95,286.0
1581,C4,580.0,1.0,95,286.0
1582,E2,580.0,2.0,95,286.0
1583,E4,581.0,1.0,95,286.0
1584,F#2,581.0,1.0,95,286.0
1585,G4,582.0,1.0,95,286.0
1586,B2,582.0,2.0,95,286.0
1587,C5,583.0,1.0,95,286.0
1588,F#2,583.0,1.0,95,286.0
1589,E2,584.0,2.0,95,286.0
1590,E2,585.0,4.0,95,286.0
1591,F#2,585.0,1.0,95,286.0
1592,B3,585.5,0.5,95,286.0
1593,D4,586.0,0.5,95,286.0
1594,B2,586.0,2.0,95,286.0
1595,E4,586.5,0.5,95,286.0
1596,F4,587.0,0.5,95,286.0
1597,F#2,587.0,1.0,95,286.0
1598,G#3,587.5,0.5,95,286.0
1599,E4,588.0,0.5,95,286.0
1600,A1,588.0,2.0,95,286.0
1601,B3,588.5,0.5,95,286.0
1602,E2,589.0,4.0,95,286.0
1603,F#2,589.0,1.0,95,286.0
1604,B3,589.5,0.5,95,286.0
1605,D4,590.0,0.5,95,286.0
1606,E2,590.0,2.0,95,286.0
1607,E4,590.5,0.5,95,286.0
1608,F4,591.0,0.5,95,286.0
1609,F#2,591.0,1.0,95,286.0
1610,G#3,591.5,0.5,95,286.0
1611,E4,592.0,0.5,95,286.0
1612,A2,592.0,2.0,95,286.0
1613,B3,592.5,0.5,95,286.0
1614,A2,593.0,4.0,95,286.0
1615,F#2,593.0,1.0,95,286.0
1616,B3,593.5,0.5,95,286.0
1617,C#4,594.0,0.5,95,286.0
1618,A2,594.0,2.0,95,286.0
1619,E4,594.5,0.5,95,286.0
1620,F#4,595.0,0.5,95,286.0
1621,F#2,595.0,1.0,95,286.0
1622,G3,595.5,0.5,95,286.0
1623,E4,596.0,0.5,95,286.0
1624,D2,596.0,2.0,95,286.0
1625,B3,596.5,0.5,95,286.0
1626,A2,597.0,4.0,95,286.0
1627,F#2,597.0,1.0,95,286.0
1628,B3,597.5,0.5,95,286.0
1629,C#4,598.0,0.5,95,286.0
1630,A2,598.0,2.0,95,286.0
1631,E4,598.5,0.5,95,286.0
1632,F#4,599.0,0.5,95,286.0
1633,F#2,599.0,1.0,95,286.0
1634,G3,599.5,0.5,95,286.0
1635,E4,600.0,0.5,95,286.0
1636,D2,600.0,2.0,95,286.0
1637,F#4,600.375,0.125,95,286.0
1638,G4,600.5,0.5,95,286.0
1639,A3,601.0,4.0,95,286.0
1640,F#2,601.0,1.0,95,286.0
1641,G4,601.5,0.5,95,286.0
1642,C4,602.0,0.5,95,286.0
1643,A2,602.0,2.0,95,286.0
1644,E4,602.5,0.5,95,286.0
1645,G4,603.0,0.5,95,286.0
1646,F#2,603.0,1.0,95,286.0
1647,C4,603.5,0.5,95,286.0
1648,E4,604.0,0.5,95,286.0
1649,G2,604.0,2.0,95,286.0
1650,F#4,604.5,0.5,95,286.0
1651,A3,605.0,4.0,95,286.0
1652,F#2,605.0,1.0,95,286.0
1653,F#4,605.5,0.5,95,286.0
1654,C4,606.0,0.5,95,286.0
1655,D2,606.0,2.0,95,286.0
1656,E4,606.5,0.5,95,286.0
1657,F#4,607.0,0.5,95,286.0
1658,F#2,607.0,1.0,95,286.0
1659,C4,607.5,0.5,95,286.0
1660,E4,608.0,1.0,95,286.0
1661,G2,608.0,1.0,95,286.0
1662,E2,608.0,0.5,95,286.0
1663,E2,608.5,0.5,95,286.0
1664,G2,609.0,1.0,95,286.0
1665,E2,609.0,0.5,95,286.0
1666,A4,609.0,1.0,95,286.0
1667,A3,609.0,1.0,95,286.0
1668,E2,609.5,0.5,95,286.0
1669,A2,610.0,1.0,95,286.0
1670,E2,610.0,0.5,95,286.0
1671,E2,610.5,0.5,95,286.0
1672,B2,611.0,1.0,95,286.0
1673,E2,611.0,0.5,95,286.0
1674,G#4,611.0,1.0,95,286.0
1675,B-3,611.0,1.0,95,286.0
1676,E2,611.5,0.5,95,286.0
1677,C3,612.0,2.0,95,286.0
1678,F#2,613.0,1.0,95,286.0
1679,G4,613.0,2.0,95,286.0
1680,B3,613.0,2.0,95,286.0
1681,B2,614.0,2.0,95,286.0
1682,F#2,615.0,1.0,95,286.0
1683,A2,616.0,2.0,95,286.0
1684,G3,617.0,0.5,95,286.0
1685,F#2,617.0,1.0,95,286.0
1686,A3,617.5,0.5,95,286.0
1687,C4,618.0,0.5,95,286.0
1688,G2,618.0,2.0,95,286.0
1689,G3,618.5,0.5,95,286.0
1690,A3,619.0,0.5,95,286.0
1691,F#2,619.0,1.0,95,286.0
1692,E4,619.5,0.5,95,286.0
1693,G3,620.0,0.5,95,286.0
1694,D2,620.0,2.0,95,286.0
1695,A3,620.5,0.5,95,286.0
1696,C4,621.0,0.5,95,286.0
1697,F#2,621.0,1.0,95,286.0
1698,G3,621.5,0.5,95,286.0
1699,A3,622.0,0.5,95,286.0
1700,A1,622.0,2.0,95,286.0
1701,E4,622.5,0.5,95,286.0
1702,G3,623.0,1.0,95,286.0
1703,F#2,623.0,1.0,95,286.0
1704,A3,624.0,1.0,95,286.0
1705,D2,624.0,2.0,95,286.0
1706,C4,624.062,0.938,95,286.0
1707,E4,624.125,0.875,95,286.0
1708,F#3,625.0,0.5,95,286.0
1709,F#2,625.0,1.0,95,286.0
1710,A3,625.5,0.5,95,286.0
1711,C4,626.0,0.5,95,286.0
1712,D2,626.0,1.0,95,286.0
1713,F#3,626.5,0.5,95,286.0
1714,A3,627.0,0.5,95,286.0
1715,E2,627.0,1.0,95,286.0
1716,F#2,627.0,1.0,95,286.0
1717,E4,627.5,0.5,95,286.0
1718,F#3,628.0,0.5,95,286.0
1719,F2,628.0,2.0,95,286.0
1720,A3,628.5,0.5,95,286.0
1721,C4,629.0,0.5,95,286.0
1722,F#2,629.0,1.0,95,286.0
1723,F#3,629.5,0.5,95,286.0
1724,A3,630.0,0.5,95,286.0
1725,F2,630.0,2.0,95,286.0
1726,E4,630.5,0.5,95,286.0
1727,F#3,631.0,1.0,95,286.0
1728,F#2,631.0,1.0,95,286.0
1729,A3,632.0,1.0,95,286.0
1730,G2,632.0,2.0,95,286.0
1731,C4,632.062,0.938,95,286.0
1732,E4,632.125,0.875,95,286.0
1733,F3,633.0,0.5,95,286.0
1734,F#2,633.0,1.0,95,286.0
1735,A3,633.5,0.5,95,286.0
1736,C4,634.0,0.5,95,286.0
1737,G2,634.0,2.0,95,286.0
1738,F3,634.5,0.5,95,286.0
1739,A3,635.0,0.5,95,286.0
1740,F#2,635.0,1.0,95,286.0
1741,E4,635.5,0.5,95,286.0
1742,F3,636.0,0.5,95,286.0
1743,C3,636.0,2.0,95,286.0
1744,G#3,636.5,0.5,95,286.0
1745,B3,637.0,0.5,95,286.0
1746,F3,637.5,0.5,95,286.0
1747,G#3,638.0,0.5,95,286.0
1748,G4,638.5,1.0,95,286.0
1749,G#3,639.5,0.5,95,286.0
1750,B3,640.0,1.0,95,286.0
1751,G4,641.0,3.0,95,286.0
1752,E4,641.0,3.0,95,286.0
1753,G2,642.0,1.0,95,286.0
1754,A2,643.0,2.0,95,286.0
1755,F#4,644.0,1.0,95,286.0
1756,E-4,644.0,1.0,95,286.0
1757,F4,646.0,1.0,95,286.0
1758,D4,646.0,1.0,95,286.0
1759,B2,646.0,1.0,95,286.0
1760,C3,648.0,1.0,95,286.0
1761,E2,648.5,0.5,95,286.0
1762,C3,649.0,1.0,95,286.0
1763,E4,649.0,1.0,95,286.0
1764,C4,649.0,1.0,95,286.0
1765,E2,649.0,0.5,95,286.0
1766,B1,649.0,0.5,95,286.0
1767,E2,649.5,0.5,95,286.0
1768,B2,650.0,2.0,95,286.0
1769,C2,650.0,1.0,95,286.0
1770,C#2,651.0,1.0,95,286.0
1771,F#2,651.0,1.0,95,286.0
1772,D4,651.0,1.0,95,286.0
1773,G#3,651.0,1.0,95,286.0
1774,D2,652.0,2.0,95,286.0
1775,C#4,652.0,1.0,95,286.0
1776,G3,652.0,1.0,95,286.0
1777,A2,652.0,1.0,95,286.0
1778,F#2,653.0,1.0,95,286.0
1779,D2,654.0,2.0,95,286.0
1780,F#2,655.0,1.0,95,286.0
1781,C#4,655.0,2.0,95,286.0
1782,G3,655.0,2.0,95,286.0
1783,A2,655.0,2.0,95,286.0
1784,G2,656.0,2.0,95,286.0
1785,E3,657.0,1.0,95,286.0
1786,F#2,657.0,1.0,95,286.0
1787,F3,658.0,1.0,95,286.0
1788,G2,658.0,2.0,95,286.0
1789,F#3,659.0,0.5,95,286.0
1790,F#2,659.0,1.0,95,286.0
1791,A3,659.5,0.5,95,286.0
1792,C4,660.0,0.5,95,286.0
1793,C2,660.0,2.0,95,286.0
1794,F#3,660.5,0.5,95,286.0
1795,A3,661.0,0.5,95,286.0
1796,E4,661.5,1.5,95,286.0
1797,F3,663.0,0.5,95,286.0
1798,G#3,663.5,0.5,95,286.0
1799,B3,664.0,0.5,95,286.0
1800,F3,664.5,0.5,95,286.0
1801,G#3,665.0,0.5,95,286.0
1802,E4,665.5,1.5,95,286.0
1803,E5,667.0,0.5,95,286.0
1804,G4,667.5,0.5,95,286.0
1805,C5,668.0,0.5,95,286.0
1806,E5,668.5,0.5,95,286.0
1807,D5,669.0,0.5,95,286.0
1808,F4,669.5,0.5,95,286.0
1809,B-4,670.0,0.5,95,286.0
1810,D5,670.5,0.5,95,286.0
1811,C5,671.0,0.5,95,286.0
1812,E-4,671.5,0.5,95,286.0
1813,G#4,672.0,0.5,95,286.0
1814,C2,672.0,2.0,95,286.0
1815,C5,672.5,0.5,95,286.0
1816,B-4,673.0,0.5,95,286.0
1817,F#2,673.0,1.0,95,286.0
1818,C#4,673.5,0.5,95,286.0
1819,F#4,674.0,0.5,95,286.0
1820,B-4,674.5,0.5,95,286.0
1821,G#4,675.0,0.5,95,286.0
1822,B3,675.5,0.5,95,286.0
1823,E4,676.0,0.5,95,286.0
1824,G#4,676.5,0.5,95,286.0
1825,F#4,677.0,0.5,95,286.0
1826,A3,677.5,0.5,95,286.0
1827,D4,678.0,0.5,95,286.0
1828,F#4,678.5,0.5,95,286.0
1829,E4,679.0,1.0,95,286.0
1830,C4,679.0,1.0,95,286.0
1831,G3,679.0,1.0,95,286.0
1832,C3,680.0,1.0,95,286.0
