,note_name,start_time,duration,velocity,tempo
0,F5,0.0,4.0,120,140.0
1,F5,0.0,0.5,100,140.0
2,C#2,0.0,4.0,100,140.0
3,G#3,0.0,4.0,100,140.0
4,F5,1.0,0.5,100,140.0
5,F5,2.0,0.5,100,140.0
6,F5,3.0,0.5,100,140.0
7,F5,4.0,2.0,120,140.0
8,F5,4.0,0.5,100,140.0
9,B-1,4.0,4.0,100,140.0
10,F3,4.0,4.0,100,140.0
11,F5,5.0,0.5,100,140.0
12,G#5,6.025,1.0,120,140.0
13,G5,6.975,0.5,120,140.0
14,G5,7.0,0.5,100,140.0
15,E-5,7.5,0.5,120,140.0
16,E-5,7.5,0.5,100,140.0
17,E-5,8.0,4.0,120,140.0
18,G5,8.0,0.5,100,140.0
19,F1,8.0,4.0,100,140.0
20,C3,8.0,4.0,100,140.0
21,E-5,8.5,0.5,100,140.0
22,G5,9.0,0.5,100,140.0
23,E-5,9.5,0.5,100,140.0
24,G5,10.0,0.5,100,140.0
25,E-5,10.5,0.5,100,140.0
26,G5,11.0,0.5,100,140.0
27,E-5,11.5,0.5,100,140.0
28,E-5,12.0,2.0,120,140.0
29,G5,12.0,0.5,100,140.0
30,F1,12.0,4.0,100,140.0
31,C3,12.0,4.0,100,140.0
32,E-5,12.5,0.5,100,140.0
33,G5,13.0,0.5,100,140.0
34,E-5,13.5,0.5,100,140.0
35,G#5,14.0,1.0,120,140.0
36,E-5,14.5,0.5,100,140.0
37,G5,15.0,0.5,120,140.0
38,G5,15.0,0.5,100,140.0
39,C5,15.483,517/1000,120,140.0
40,C5,15.5,0.5,100,140.0
41,C5,16.0,4.0,120,140.0
42,G5,16.0,0.5,100,140.0
43,C#2,16.0,4.0,100,140.0
44,G#3,16.0,4.0,100,140.0
45,C5,16.5,0.5,100,140.0
46,G5,17.0,0.5,100,140.0
47,C5,17.5,0.5,100,140.0
48,G5,18.0,0.5,100,140.0
49,C5,18.5,0.5,100,140.0
50,G5,19.0,0.5,100,140.0
51,C5,19.5,0.5,100,140.0
52,C5,20.0,1983/1000,120,140.0
53,G5,20.0,0.5,100,140.0
54,B-1,20.0,4.0,100,140.0
55,F3,20.0,4.0,100,140.0
56,C5,20.5,0.5,100,140.0
57,G5,21.0,0.5,100,140.0
58,C5,21.5,0.5,100,140.0
59,G#5,21.942,1.0,120,140.0
60,C5,22.5,0.5,100,140.0
61,G5,22.95,0.5,120,140.0
62,G5,23.0,0.5,100,140.0
63,G#4,23.5,0.5,100,140.0
64,G#4,23.525,19/40,120,140.0
65,G#4,24.0,4.0,120,140.0
66,G5,24.0,0.5,100,140.0
67,F1,24.0,4.0,100,140.0
68,C3,24.0,4.0,100,140.0
69,G#4,24.5,0.5,100,140.0
70,G5,25.0,0.5,100,140.0
71,G#4,25.5,0.5,100,140.0
72,G5,26.0,0.5,100,140.0
73,G#4,26.5,0.5,100,140.0
74,G5,27.0,0.5,100,140.0
75,G#4,27.5,0.5,100,140.0
76,G#4,28.0,81/40,120,140.0
77,G5,28.0,0.5,100,140.0
78,F1,28.0,4.0,100,140.0
79,C3,28.0,4.0,100,140.0
80,G#4,28.5,0.5,100,140.0
81,G5,29.0,0.5,100,140.0
82,G#4,29.5,0.5,100,140.0
83,G5,30.0,0.5,100,140.0
84,G#4,30.5,0.5,100,140.0
85,F4,31.0,0.5,100,140.0
86,F4,31.008,0.25,120,140.0
87,G4,31.233,0.25,120,140.0
88,G#4,31.492,0.25,120,140.0
89,C5,31.758,121/500,120,140.0
90,F5,32.0,4.0,120,140.0
91,C5,32.0,1/125,120,140.0
92,F5,32.0,1.0,100,140.0
93,C#2,32.0,4.0,100,140.0
94,F5,32.0,4.0,100,140.0
95,G2,32.0,0.5,100,140.0
96,C5,32.0,4.0,100,140.0
97,G#3,32.0,4.0,100,140.0
98,C4,32.0,4.0,100,140.0
99,F4,32.0,4.0,100,140.0
100,F4,32.008,0.25,100,140.0
101,G4,32.233,0.25,100,140.0
102,G#4,32.492,0.25,100,140.0
103,C#4,32.5,0.5,100,140.0
104,C5,32.758,0.25,100,140.0
105,F5,33.0,1.0,100,140.0
106,E-4,33.0,1.0,100,140.0
107,F4,33.008,0.25,100,140.0
108,G4,33.233,0.25,100,140.0
109,G#4,33.492,0.25,100,140.0
110,C5,33.758,0.25,100,140.0
111,F5,34.0,1.0,100,140.0
112,G#3,34.0,0.5,100,140.0
113,F4,34.008,0.25,100,140.0
114,G4,34.233,0.25,100,140.0
115,G#4,34.492,0.25,100,140.0
116,E-4,34.5,1.0,100,140.0
117,C5,34.758,0.25,100,140.0
118,F5,35.0,1.0,100,140.0
119,F4,35.008,0.25,100,140.0
120,G4,35.233,0.25,100,140.0
121,G#4,35.492,0.25,100,140.0
122,C#4,35.5,0.25,100,140.0
123,E-4,35.75,0.25,100,140.0
124,C5,35.758,121/500,100,140.0
125,F5,36.0,2.0,120,140.0
126,F5,36.0,1.0,100,140.0
127,C5,36.0,1/125,100,140.0
128,B-1,36.0,4.0,100,140.0
129,E-5,36.0,4.0,100,140.0
130,G5,36.0,4.0,100,140.0
131,F2,36.0,0.5,100,140.0
132,E-4,36.0,4.0,100,140.0
133,C4,36.0,4.0,100,140.0
134,G4,36.0,4.0,100,140.0
135,F4,36.008,0.25,100,140.0
136,G4,36.233,0.25,100,140.0
137,G#4,36.492,0.25,100,140.0
138,F3,36.5,0.5,100,140.0
139,C5,36.758,0.25,100,140.0
140,F5,37.0,1.0,100,140.0
141,C4,37.0,1.0,100,140.0
142,F4,37.008,0.25,100,140.0
143,G4,37.233,0.25,100,140.0
144,G#4,37.492,0.25,100,140.0
145,C5,37.758,0.25,100,140.0
146,G3,38.0,0.5,100,140.0
147,G#5,38.025,1.0,120,140.0
148,F4,38.5,1.0,100,140.0
149,G5,38.975,0.5,120,140.0
150,G5,39.0,1.0,100,140.0
151,E-5,39.5,0.5,120,140.0
152,E-5,39.5,0.5,100,140.0
153,C4,39.5,0.25,100,140.0
154,F4,39.75,0.25,100,140.0
155,E-5,40.0,4.0,120,140.0
156,G5,40.0,1.0,100,140.0
157,F1,40.0,4.0,100,140.0
158,E-5,40.0,4.0,100,140.0
159,G#5,40.0,4.0,100,140.0
160,F2,40.0,0.5,100,140.0
161,F4,40.0,4.0,100,140.0
162,C4,40.0,4.0,100,140.0
163,G#4,40.0,4.0,100,140.0
164,E-5,40.5,0.5,100,140.0
165,C4,40.5,0.5,100,140.0
166,G5,41.0,1.0,100,140.0
167,G4,41.0,1.0,100,140.0
168,E-5,41.5,0.5,100,140.0
169,G5,42.0,1.0,100,140.0
170,C4,42.0,0.5,100,140.0
171,E-5,42.5,0.5,100,140.0
172,G4,42.5,1.0,100,140.0
173,G5,43.0,1.0,100,140.0
174,E-5,43.5,0.5,100,140.0
175,C4,43.5,0.5,100,140.0
176,E-5,44.0,2.0,120,140.0
177,G5,44.0,1.0,100,140.0
178,F1,44.0,4.0,100,140.0
179,E-5,44.0,4.0,100,140.0
180,G#5,44.0,4.0,100,140.0
181,G4,44.0,1.0,100,140.0
182,F4,44.0,4.0,100,140.0
183,C4,44.0,4.0,100,140.0
184,G#4,44.0,4.0,100,140.0
185,E-5,44.5,0.5,100,140.0
186,G5,45.0,1.0,100,140.0
187,C4,45.0,0.5,100,140.0
188,E-5,45.5,0.5,100,140.0
189,G4,45.5,0.5,100,140.0
190,G5,46.0,1.0,100,140.0
191,G4,46.0,0.5,100,140.0
192,E-5,46.5,0.5,100,140.0
193,E-4,46.5,0.25,100,140.0
194,C4,46.75,0.25,100,140.0
195,G5,47.0,1.0,100,140.0
196,E-4,47.0,1.0,100,140.0
197,C#5,47.508,0.25,120,140.0
198,C5,47.758,121/500,120,140.0
199,C#5,48.0,1.0,120,140.0
200,C5,48.0,1/125,120,140.0
201,C#5,48.0,0.25,100,140.0
202,C#2,48.0,4.0,100,140.0
203,F5,48.0,4.0,100,140.0
204,G2,48.0,0.5,100,140.0
205,E-4,48.0,4.0,100,140.0
206,C#5,48.0,4.0,100,140.0
207,G#3,48.0,4.0,100,140.0
208,C4,48.0,4.0,100,140.0
209,F4,48.0,4.0,100,140.0
210,C5,48.25,0.25,100,140.0
211,C#5,48.5,1.0,100,140.0
212,C#4,48.5,0.5,100,140.0
213,C5,49.0,1.0,100,140.0
214,E-4,49.0,1.0,100,140.0
215,C5,49.017,0.5,120,140.0
216,G#4,49.5,2.5,120,140.0
217,G#4,49.5,0.5,100,140.0
218,C5,50.0,1.0,100,140.0
219,G#3,50.0,0.5,100,140.0
220,G#4,50.5,0.5,100,140.0
221,E-4,50.5,1.0,100,140.0
222,C5,51.0,1.0,100,140.0
223,G#4,51.5,0.5,100,140.0
224,C#4,51.5,0.25,100,140.0
225,E-4,51.75,0.25,100,140.0
226,C5,52.0,1.0,100,140.0
227,B-1,52.0,4.0,100,140.0
228,C5,52.0,4.0,100,140.0
229,F2,52.0,0.5,100,140.0
230,C5,52.0,4.0,100,140.0
231,G3,52.0,4.0,100,140.0
232,B-3,52.0,4.0,100,140.0
233,E-4,52.0,4.0,100,140.0
234,F3,52.5,0.5,100,140.0
235,G4,52.508,1.5,120,140.0
236,C5,53.0,1.0,100,140.0
237,C4,53.0,1.0,100,140.0
238,G4,53.5,1.0,100,140.0
239,G#4,54.0,1.0,120,140.0
240,G3,54.0,0.5,100,140.0
241,F4,54.5,1.0,100,140.0
242,C5,54.942,0.5,120,140.0
243,C5,55.0,1.0,100,140.0
244,G#4,55.0,0.5,100,140.0
245,F4,55.475,21/40,120,140.0
246,F4,55.5,0.5,100,140.0
247,C4,55.5,0.25,100,140.0
248,F4,55.75,0.25,100,140.0
249,F4,56.0,4.0,120,140.0
250,C5,56.0,1.0,100,140.0
251,F1,56.0,4.0,100,140.0
252,G3,56.0,4.0,100,140.0
253,F4,56.0,4.0,100,140.0
254,F2,56.0,0.5,100,140.0
255,F4,56.0,4.0,100,140.0
256,G#3,56.0,4.0,100,140.0
257,C4,56.0,4.0,100,140.0
258,F4,56.5,0.5,100,140.0
259,C4,56.5,0.5,100,140.0
260,C5,57.0,1.0,100,140.0
261,G4,57.0,1.0,100,140.0
262,F4,57.5,0.5,100,140.0
263,C5,58.0,1.0,100,140.0
264,G4,58.0,1.0,100,140.0
265,F4,58.5,0.5,100,140.0
266,C5,59.0,1.0,100,140.0
267,G4,59.0,1.0,100,140.0
268,F4,59.5,0.5,100,140.0
269,F4,60.0,79/40,120,140.0
270,C5,60.0,1.0,100,140.0
271,F1,60.0,4.0,100,140.0
272,F4,60.0,4.0,100,140.0
273,G4,60.0,1.0,100,140.0
274,F4,60.5,0.5,100,140.0
275,C5,61.0,1.0,100,140.0
276,G4,61.0,1.0,100,140.0
277,F4,61.5,0.5,100,140.0
278,C5,62.0,1.0,100,140.0
279,G4,62.0,1.0,100,140.0
280,F4,62.5,0.5,100,140.0
281,C5,63.0,1.0,100,140.0
282,G4,63.0,1.0,100,140.0
283,F4,63.5,0.5,100,140.0
284,G#4,64.0,0.5,120,140.0
285,F4,64.0,0.5,100,140.0
286,F1,64.0,4.0,100,140.0
287,F4,64.0,4.0,100,140.0
288,F4,64.0,4.0,100,140.0
289,G3,64.0,4.0,100,140.0
290,B1,64.0,0.25,100,140.0
291,C2,64.0,0.25,100,140.0
292,D2,64.0,0.25,100,140.0
293,D2,64.25,0.25,100,140.0
294,F4,64.45,0.5,120,140.0
295,C4,64.5,0.5,100,140.0
296,D2,64.5,0.25,100,140.0
297,D2,64.75,0.25,100,140.0
298,F4,64.975,0.5,100,140.0
299,G#4,65.0,0.5,120,140.0
300,D2,65.0,0.25,100,140.0
301,D2,65.25,0.25,100,140.0
302,C4,65.492,0.5,100,140.0
303,F4,65.5,0.5,120,140.0
304,D2,65.5,0.25,100,140.0
305,D2,65.75,0.25,100,140.0
306,G#4,65.992,0.5,120,140.0
307,F4,66.0,0.5,100,140.0
308,D2,66.0,0.25,100,140.0
309,D2,66.25,0.25,100,140.0
310,F4,66.492,0.5,120,140.0
311,D2,66.5,0.25,100,140.0
312,C4,66.508,0.5,100,140.0
313,D2,66.75,0.25,100,140.0
314,F4,66.975,0.5,100,140.0
315,G#4,66.983,0.5,120,140.0
316,D2,67.0,0.25,100,140.0
317,D2,67.25,0.25,100,140.0
318,E-4,67.475,0.25,100,140.0
319,G4,67.492,0.25,120,140.0
320,D2,67.5,0.25,100,140.0
321,G#4,67.742,0.25,120,140.0
322,F4,67.75,0.25,100,140.0
323,D2,67.75,0.25,100,140.0
324,B-4,68.0,0.5,120,140.0
325,G4,68.0,0.5,100,140.0
326,G4,68.0,0.25,100,140.0
327,F1,68.0,4.0,100,140.0
328,G3,68.0,4.0,100,140.0
329,F4,68.0,4.0,100,140.0
330,G4,68.0,4.0,100,140.0
331,F4,68.0,1.0,100,140.0
332,E3,68.0,4.0,100,140.0
333,G3,68.0,4.0,100,140.0
334,D2,68.0,0.25,100,140.0
335,F4,68.0,4.0,100,140.0
336,G#3,68.0,4.0,100,140.0
337,C4,68.0,4.0,100,140.0
338,G#4,68.25,0.25,100,140.0
339,D2,68.25,0.25,100,140.0
340,G4,68.442,0.5,120,140.0
341,E-4,68.492,0.5,100,140.0
342,D2,68.5,0.25,100,140.0
343,B-4,68.508,0.5,100,140.0
344,D2,68.75,0.25,100,140.0
345,G4,68.992,0.25,100,140.0
346,B-4,69.0,0.5,120,140.0
347,G4,69.0,0.5,100,140.0
348,D2,69.0,0.25,100,140.0
349,G#4,69.242,0.25,100,140.0
350,D2,69.25,0.25,100,140.0
351,E-4,69.475,0.5,100,140.0
352,G4,69.483,0.5,120,140.0
353,B-4,69.5,0.5,100,140.0
354,D2,69.5,0.25,100,140.0
355,D2,69.75,0.25,100,140.0
356,B-4,69.992,0.5,120,140.0
357,C3,70.0,2.0,100,140.0
358,D2,70.0,0.25,100,140.0
359,G4,70.008,0.5,100,140.0
360,D2,70.25,0.25,100,140.0
361,E-4,70.475,0.5,100,140.0
362,D2,70.5,0.25,100,140.0
363,G4,70.508,0.5,120,140.0
364,D2,70.75,0.25,100,140.0
365,G4,70.967,0.5,100,140.0
366,B-4,70.975,0.5,120,140.0
367,D2,71.0,0.25,100,140.0
368,D2,71.25,0.25,100,140.0
369,G4,71.492,0.25,120,140.0
370,D2,71.5,0.25,100,140.0
371,F4,71.508,0.25,100,140.0
372,G#4,71.717,0.25,120,140.0
373,G4,71.742,0.25,100,140.0
374,D2,71.75,0.25,100,140.0
375,C5,72.0,0.5,120,140.0
376,G#4,72.0,0.5,100,140.0
377,G4,72.0,0.25,100,140.0
378,F1,72.0,4.0,100,140.0
379,F4,72.0,4.0,100,140.0
380,G#4,72.0,4.0,100,140.0
381,G4,72.0,1.0,100,140.0
382,A2,72.0,4.0,100,140.0
383,E3,72.0,2.0,100,140.0
384,C3,72.0,5.0,100,140.0
385,F4,72.0,4.0,100,140.0
386,G#3,72.0,4.0,100,140.0
387,C4,72.0,4.0,100,140.0
388,B1,72.0,0.25,100,140.0
389,C2,72.0,0.25,100,140.0
390,D2,72.0,0.25,100,140.0
391,G#4,72.225,0.25,100,140.0
392,D2,72.25,0.25,100,140.0
393,G#4,72.442,0.5,120,140.0
394,F4,72.492,0.5,100,140.0
395,D2,72.5,0.25,100,140.0
396,C5,72.508,0.5,100,140.0
397,D2,72.75,0.25,100,140.0
398,G4,72.992,0.25,100,140.0
399,G2,73.0,3.0,100,140.0
400,D2,73.0,0.25,100,140.0
401,C5,73.008,0.5,120,140.0
402,G#4,73.008,0.5,100,140.0
403,G#4,73.217,0.25,100,140.0
404,D2,73.25,0.25,100,140.0
405,G#4,73.492,0.5,120,140.0
406,F4,73.492,0.5,100,140.0
407,C5,73.5,0.5,100,140.0
408,D2,73.5,0.25,100,140.0
409,D2,73.75,0.25,100,140.0
410,C5,74.0,0.5,120,140.0
411,F2,74.0,2.0,100,140.0
412,D2,74.0,0.25,100,140.0
413,G#4,74.008,0.5,100,140.0
414,D2,74.25,0.25,100,140.0
415,G#4,74.467,0.5,120,140.0
416,F4,74.492,0.5,100,140.0
417,D2,74.5,0.25,100,140.0
418,D2,74.75,0.25,100,140.0
419,D2,75.0,0.25,100,140.0
420,G#4,75.008,0.5,100,140.0
421,C5,75.017,0.5,120,140.0
422,D2,75.25,0.25,100,140.0
423,G4,75.475,0.25,120,140.0
424,E-4,75.5,0.25,100,140.0
425,D2,75.5,0.25,100,140.0
426,G#4,75.717,0.25,120,140.0
427,F4,75.742,0.25,100,140.0
428,D2,75.75,0.25,100,140.0
429,B-4,76.0,0.5,120,140.0
430,G4,76.0,0.5,100,140.0
431,G4,76.0,0.25,100,140.0
432,F1,76.0,4.0,100,140.0
433,F4,76.0,4.0,100,140.0
434,G4,76.0,4.0,100,140.0
435,G#4,76.0,1.0,100,140.0
436,D2,76.0,0.25,100,140.0
437,G#4,76.242,0.25,100,140.0
438,D2,76.25,0.25,100,140.0
439,G4,76.442,0.5,120,140.0
440,E-4,76.483,0.5,100,140.0
441,D2,76.5,0.25,100,140.0
442,B-4,76.525,0.5,100,140.0
443,D2,76.75,0.25,100,140.0
444,B-4,77.0,0.5,120,140.0
445,G2,77.0,4.0,100,140.0
446,F2,77.0,4.0,100,140.0
447,D2,77.0,0.25,100,140.0
448,G4,77.017,0.5,100,140.0
449,G4,77.017,0.25,100,140.0
450,D2,77.25,0.25,100,140.0
451,G#4,77.258,0.25,100,140.0
452,G4,77.483,0.5,120,140.0
453,D2,77.5,0.25,100,140.0
454,E-4,77.517,0.5,100,140.0
455,B-4,77.542,0.5,100,140.0
456,D2,77.75,0.25,100,140.0
457,G4,77.983,0.5,100,140.0
458,B-4,77.992,0.5,120,140.0
459,D2,78.0,0.25,100,140.0
460,D2,78.25,0.25,100,140.0
461,E-4,78.483,0.5,100,140.0
462,D2,78.5,0.25,100,140.0
463,G4,78.508,0.5,120,140.0
464,D2,78.75,0.25,100,140.0
465,G4,78.958,0.5,100,140.0
466,B-4,78.975,0.5,120,140.0
467,D2,79.0,2.0,100,140.0
468,D2,79.0,0.25,100,140.0
469,D2,79.25,0.25,100,140.0
470,C4,79.467,0.25,100,140.0
471,F4,79.492,0.25,120,140.0
472,D2,79.5,0.25,100,140.0
473,G4,79.717,0.25,120,140.0
474,D2,79.75,0.25,100,140.0
475,E-4,79.767,233/1000,100,140.0
476,G#4,80.0,0.5,120,140.0
477,F4,80.0,0.5,100,140.0
478,E-4,80.0,17/1000,100,140.0
479,F4,80.0,0.25,100,140.0
480,F1,80.0,4.0,100,140.0
481,F4,80.0,4.0,100,140.0
482,F4,80.0,4.0,100,140.0
483,G4,80.0,1.0,100,140.0
484,B1,80.0,0.25,100,140.0
485,C2,80.0,0.25,100,140.0
486,D2,80.0,0.25,100,140.0
487,G4,80.225,0.25,100,140.0
488,D2,80.25,0.25,100,140.0
489,F4,80.45,0.5,120,140.0
490,C4,80.5,0.5,100,140.0
491,D2,80.5,0.25,100,140.0
492,G#4,80.508,0.5,100,140.0
493,D2,80.75,0.25,100,140.0
494,F4,80.975,0.5,100,140.0
495,G#4,81.0,0.5,120,140.0
496,F2,81.0,1.0,100,140.0
497,D2,81.0,4.0,100,140.0
498,D2,81.0,0.25,100,140.0
499,F4,81.05,0.25,100,140.0
500,D2,81.25,0.25,100,140.0
501,G4,81.275,0.25,100,140.0
502,C4,81.492,0.5,100,140.0
503,F4,81.5,0.5,120,140.0
504,D2,81.5,0.25,100,140.0
505,G#4,81.558,0.5,100,140.0
506,D2,81.75,0.25,100,140.0
507,G#4,81.992,0.5,120,140.0
508,F4,82.0,0.5,100,140.0
509,B1,82.0,3.0,100,140.0
510,D2,82.0,0.25,100,140.0
511,D2,82.25,0.25,100,140.0
512,F4,82.492,0.5,120,140.0
513,D2,82.5,0.25,100,140.0
514,C4,82.508,0.5,100,140.0
515,D2,82.75,0.25,100,140.0
516,F4,82.975,0.5,100,140.0
517,G#4,82.983,0.5,120,140.0
518,D2,83.0,0.25,100,140.0
519,D2,83.25,0.25,100,140.0
520,E-4,83.475,0.25,100,140.0
521,G4,83.492,0.25,120,140.0
522,D2,83.5,0.25,100,140.0
523,G#4,83.742,0.25,120,140.0
524,F4,83.75,0.25,100,140.0
525,D2,83.75,0.25,100,140.0
526,B-4,84.0,0.5,120,140.0
527,G4,84.0,0.5,100,140.0
528,G4,84.0,0.25,100,140.0
529,F1,84.0,4.0,100,140.0
530,F4,84.0,4.0,100,140.0
531,G4,84.0,4.0,100,140.0
532,F4,84.0,1.0,100,140.0
533,B1,84.0,0.25,100,140.0
534,C2,84.0,0.25,100,140.0
535,D2,84.0,0.25,100,140.0
536,G#4,84.25,0.25,100,140.0
537,D2,84.25,0.25,100,140.0
538,G4,84.442,0.5,120,140.0
539,E-4,84.492,0.5,100,140.0
540,D2,84.5,0.25,100,140.0
541,B-4,84.508,0.5,100,140.0
542,D2,84.75,0.25,100,140.0
543,B-4,85.0,0.5,120,140.0
544,G4,85.0,0.5,100,140.0
545,G4,85.0,0.25,100,140.0
546,D2,85.0,2.0,100,140.0
547,B1,85.0,4.0,100,140.0
548,D2,85.0,0.25,100,140.0
549,G#4,85.25,0.25,100,140.0
550,D2,85.25,0.25,100,140.0
551,E-4,85.475,0.5,100,140.0
552,G4,85.483,0.5,120,140.0
553,D2,85.5,0.25,100,140.0
554,B-4,85.508,0.5,100,140.0
555,D2,85.75,0.25,100,140.0
556,B-4,85.992,0.5,120,140.0
557,D2,86.0,0.25,100,140.0
558,G4,86.008,0.5,100,140.0
559,D2,86.25,0.25,100,140.0
560,E-4,86.475,0.5,100,140.0
561,D2,86.5,0.25,100,140.0
562,G4,86.508,0.5,120,140.0
563,D2,86.75,0.25,100,140.0
564,G4,86.967,0.5,100,140.0
565,B-4,86.975,0.5,120,140.0
566,F1,87.0,2.0,100,140.0
567,D2,87.0,0.25,100,140.0
568,D2,87.25,0.25,100,140.0
569,G4,87.492,0.25,120,140.0
570,D2,87.5,0.25,100,140.0
571,F4,87.508,0.25,100,140.0
572,G#4,87.717,0.25,120,140.0
573,G4,87.742,0.25,100,140.0
574,D2,87.75,0.25,100,140.0
575,C5,88.0,0.5,120,140.0
576,G#4,88.0,0.5,100,140.0
577,G4,88.0,0.25,100,140.0
578,F1,88.0,4.0,100,140.0
579,F3,88.0,4.0,100,140.0
580,F4,88.0,4.0,100,140.0
581,G#4,88.0,4.0,100,140.0
582,G4,88.0,1.0,100,140.0
583,B1,88.0,0.25,100,140.0
584,C2,88.0,0.25,100,140.0
585,D2,88.0,0.25,100,140.0
586,G#4,88.225,0.25,100,140.0
587,D2,88.25,0.25,100,140.0
588,G#4,88.442,0.5,120,140.0
589,F4,88.492,0.5,100,140.0
590,D2,88.5,0.25,100,140.0
591,C5,88.508,0.5,100,140.0
592,D2,88.75,0.25,100,140.0
593,G4,88.967,0.25,100,140.0
594,B1,89.0,1.0,100,140.0
595,F1,89.0,4.0,100,140.0
596,D2,89.0,0.25,100,140.0
597,C5,89.008,0.5,120,140.0
598,G#4,89.008,0.5,100,140.0
599,G#4,89.192,0.25,100,140.0
600,D2,89.25,0.25,100,140.0
601,C5,89.475,0.5,100,140.0
602,G#4,89.492,0.5,120,140.0
603,F4,89.492,0.5,100,140.0
604,D2,89.5,0.25,100,140.0
605,D2,89.75,0.25,100,140.0
606,C5,90.0,0.5,120,140.0
607,B1,90.0,0.25,100,140.0
608,C2,90.0,0.25,100,140.0
609,D2,90.0,0.25,100,140.0
610,G#4,90.008,0.5,100,140.0
611,D2,90.25,0.25,100,140.0
612,G#4,90.467,0.5,120,140.0
613,F4,90.492,0.5,100,140.0
614,D2,90.5,0.25,100,140.0
615,D2,90.75,0.25,100,140.0
616,D2,91.0,0.25,100,140.0
617,G#4,91.008,0.5,100,140.0
618,C5,91.017,0.5,120,140.0
619,D2,91.25,0.25,100,140.0
620,G4,91.467,0.25,100,140.0
621,B-4,91.492,0.25,120,140.0
622,D2,91.5,0.25,100,140.0
623,G#4,91.75,0.25,100,140.0
624,D2,91.75,0.25,100,140.0
625,C5,91.758,121/500,120,140.0
626,E-5,92.0,0.5,120,140.0
627,C5,92.0,1/125,120,140.0
628,B-4,92.0,0.5,100,140.0
629,B-4,92.0,0.25,100,140.0
630,F1,92.0,4.0,100,140.0
631,B-3,92.0,4.0,100,140.0
632,F4,92.0,4.0,100,140.0
633,B-4,92.0,4.0,100,140.0
634,G#4,92.0,1.0,100,140.0
635,B1,92.0,0.25,100,140.0
636,C2,92.0,0.25,100,140.0
637,D2,92.0,0.25,100,140.0
638,D2,92.25,0.25,100,140.0
639,C5,92.267,0.25,100,140.0
640,B-4,92.467,0.5,120,140.0
641,G4,92.467,0.5,100,140.0
642,B1,92.5,0.25,100,140.0
643,C2,92.5,0.25,100,140.0
644,D2,92.5,0.25,100,140.0
645,E-5,92.508,0.5,100,140.0
646,D2,92.75,0.25,100,140.0
647,B-4,92.967,0.5,100,140.0
648,E-5,92.983,0.5,120,140.0
649,B-4,92.992,0.25,100,140.0
650,F1,93.0,3.0,100,140.0
651,B1,93.0,0.25,100,140.0
652,C2,93.0,0.25,100,140.0
653,D2,93.0,0.25,100,140.0
654,D2,93.25,0.25,100,140.0
655,C5,93.258,0.25,100,140.0
656,G4,93.467,0.5,100,140.0
657,B-4,93.483,0.5,120,140.0
658,E-5,93.5,0.5,100,140.0
659,B1,93.5,0.25,100,140.0
660,C2,93.5,0.25,100,140.0
661,D2,93.5,0.25,100,140.0
662,D2,93.75,0.25,100,140.0
663,E-5,93.983,0.5,120,140.0
664,B-4,93.992,0.5,100,140.0
665,B-4,93.992,0.25,100,140.0
666,B1,94.0,0.125,100,140.0
667,C2,94.0,0.125,100,140.0
668,D2,94.0,0.125,100,140.0
669,D2,94.125,0.125,100,140.0
670,B1,94.25,0.125,100,140.0
671,C2,94.25,0.125,100,140.0
672,D2,94.25,0.125,100,140.0
673,C5,94.258,0.25,100,140.0
674,D2,94.375,0.125,100,140.0
675,B-4,94.475,0.5,120,140.0
676,E-5,94.5,0.5,100,140.0
677,B1,94.5,0.125,100,140.0
678,C2,94.5,0.125,100,140.0
679,D2,94.5,0.125,100,140.0
680,G4,94.508,0.5,100,140.0
681,D2,94.625,0.125,100,140.0
682,B1,94.75,0.125,100,140.0
683,C2,94.75,0.125,100,140.0
684,D2,94.75,0.125,100,140.0
685,D2,94.875,0.125,100,140.0
686,B-4,94.975,0.5,100,140.0
687,F4,95.0,0.25,120,140.0
688,E-5,95.0,0.5,100,140.0
689,B1,95.0,0.125,100,140.0
690,C2,95.0,0.125,100,140.0
691,D2,95.0,0.125,100,140.0
692,D2,95.125,0.125,100,140.0
693,G4,95.25,0.25,120,140.0
694,B1,95.25,0.125,100,140.0
695,C2,95.25,0.125,100,140.0
696,D2,95.25,0.125,100,140.0
697,D2,95.375,0.125,100,140.0
698,G#4,95.5,0.25,120,140.0
699,B1,95.5,0.125,100,140.0
700,C2,95.5,0.125,100,140.0
701,D2,95.5,0.125,100,140.0
702,B1,95.625,0.125,100,140.0
703,C2,95.625,0.125,100,140.0
704,D2,95.625,0.125,100,140.0
705,C5,95.75,0.25,120,140.0
706,B1,95.75,0.125,100,140.0
707,C2,95.75,0.125,100,140.0
708,D2,95.75,0.125,100,140.0
709,B1,95.875,0.125,100,140.0
710,C2,95.875,0.125,100,140.0
711,D2,95.875,0.125,100,140.0
712,F5,96.0,4.0,120,140.0
713,F4,96.0,0.25,100,140.0
714,C#2,96.0,1.0,100,140.0
715,F4,96.0,4.0,100,140.0
716,C4,96.0,4.0,100,140.0
717,F4,96.0,4.0,100,140.0
718,C#3,96.0,0.5,100,140.0
719,A3,96.0,0.5,100,140.0
720,C2,96.0,0.5,100,140.0
721,G#2,96.0,0.5,100,140.0
722,G4,96.25,0.25,100,140.0
723,G#4,96.5,0.25,100,140.0
724,B-5,96.5,0.5,100,140.0
725,C#3,96.5,0.5,100,140.0
726,C5,96.75,0.25,100,140.0
727,F5,97.0,0.5,100,140.0
728,F4,97.0,0.25,100,140.0
729,C#2,97.0,1.0,100,140.0
730,C2,97.0,0.5,100,140.0
731,G#2,97.0,0.5,100,140.0
732,G4,97.25,0.25,100,140.0
733,G#4,97.5,0.25,100,140.0
734,B-5,97.5,0.5,100,140.0
735,C#3,97.5,0.5,100,140.0
736,C5,97.75,0.25,100,140.0
737,F5,98.0,0.5,100,140.0
738,F4,98.0,0.25,100,140.0
739,C#2,98.0,1.0,100,140.0
740,C2,98.0,0.5,100,140.0
741,G#2,98.0,0.5,100,140.0
742,G4,98.25,0.25,100,140.0
743,G#4,98.5,0.25,100,140.0
744,B-5,98.5,0.5,100,140.0
745,C#3,98.5,0.5,100,140.0
746,C5,98.75,0.25,100,140.0
747,F5,99.0,0.5,100,140.0
748,F4,99.0,0.25,100,140.0
749,C#2,99.0,1.0,100,140.0
750,C2,99.0,0.5,100,140.0
751,G#2,99.0,0.5,100,140.0
752,G4,99.25,0.25,100,140.0
753,G#4,99.5,0.25,100,140.0
754,B-5,99.5,0.5,100,140.0
755,C#3,99.5,0.5,100,140.0
756,C5,99.75,0.25,100,140.0
757,F5,100.0,2.0,120,140.0
758,F5,100.0,0.5,100,140.0
759,F4,100.0,0.25,100,140.0
760,B-1,100.0,1.0,100,140.0
761,E-4,100.0,4.0,100,140.0
762,F4,100.0,4.0,100,140.0
763,F4,100.0,4.0,100,140.0
764,C2,100.0,0.5,100,140.0
765,G#2,100.0,0.5,100,140.0
766,G4,100.25,0.25,100,140.0
767,G#4,100.5,0.25,100,140.0
768,B-5,100.5,0.5,100,140.0
769,B-2,100.5,0.5,100,140.0
770,C5,100.75,0.25,100,140.0
771,F5,101.0,0.5,100,140.0
772,B-1,101.0,1.0,100,140.0
773,G#2,101.0,0.5,100,140.0
774,C2,101.0,0.5,100,140.0
775,B-5,101.5,0.5,100,140.0
776,B-2,101.5,0.5,100,140.0
777,B-1,102.0,1.0,100,140.0
778,C2,102.0,0.5,100,140.0
779,G#2,102.0,0.5,100,140.0
780,G#5,102.025,1.0,120,140.0
781,B-5,102.5,0.5,100,140.0
782,B-2,102.5,0.5,100,140.0
783,G5,102.975,0.5,120,140.0
784,G5,103.0,0.5,100,140.0
785,B-1,103.0,1.0,100,140.0
786,G#2,103.0,0.5,100,140.0
787,C2,103.0,0.5,100,140.0
788,E-5,103.5,0.5,120,140.0
789,E-5,103.5,0.5,100,140.0
790,B-5,103.5,0.5,100,140.0
791,B-2,103.5,0.5,100,140.0
792,E-5,104.0,4.0,120,140.0
793,G5,104.0,0.5,100,140.0
794,F1,104.0,1.0,100,140.0
795,F5,104.0,4.0,100,140.0
796,E-4,104.0,4.0,100,140.0
797,C2,104.0,0.5,100,140.0
798,G#2,104.0,0.5,100,140.0
799,E-5,104.5,0.5,100,140.0
800,B-5,104.5,0.5,100,140.0
801,F2,104.5,0.5,100,140.0
802,G5,105.0,0.5,100,140.0
803,F1,105.0,1.0,100,140.0
804,G#2,105.0,0.5,100,140.0
805,C2,105.0,0.5,100,140.0
806,E-5,105.5,0.5,100,140.0
807,B-5,105.5,0.5,100,140.0
808,F2,105.5,0.5,100,140.0
809,G5,106.0,0.5,100,140.0
810,F1,106.0,1.0,100,140.0
811,C2,106.0,0.5,100,140.0
812,G#2,106.0,0.5,100,140.0
813,E-5,106.5,0.5,100,140.0
814,B-5,106.5,0.5,100,140.0
815,F2,106.5,0.5,100,140.0
816,G5,107.0,0.5,100,140.0
817,F1,107.0,1.0,100,140.0
818,G#2,107.0,0.5,100,140.0
819,C2,107.0,0.5,100,140.0
820,E-5,107.5,0.5,100,140.0
821,B-5,107.5,0.5,100,140.0
822,F2,107.5,0.5,100,140.0
823,E-5,108.0,2.0,120,140.0
824,G5,108.0,0.5,100,140.0
825,F1,108.0,1.0,100,140.0
826,E-5,108.0,4.0,100,140.0
827,F5,108.0,4.0,100,140.0
828,E-4,108.0,4.0,100,140.0
829,G#2,108.0,0.5,100,140.0
830,C2,108.0,0.5,100,140.0
831,E-5,108.5,0.5,100,140.0
832,B-5,108.5,0.5,100,140.0
833,F2,108.5,0.5,100,140.0
834,G5,109.0,0.5,100,140.0
835,F1,109.0,1.0,100,140.0
836,G#2,109.0,0.5,100,140.0
837,C2,109.0,0.5,100,140.0
838,E-5,109.5,0.5,100,140.0
839,B-5,109.5,0.5,100,140.0
840,F2,109.5,0.5,100,140.0
841,G#5,110.0,1.0,120,140.0
842,F1,110.0,1.0,100,140.0
843,C2,110.0,0.5,100,140.0
844,G#2,110.0,0.5,100,140.0
845,E-5,110.5,0.5,100,140.0
846,B-5,110.5,0.5,100,140.0
847,F2,110.5,0.5,100,140.0
848,G5,111.0,0.5,120,140.0
849,G5,111.0,0.5,100,140.0
850,F1,111.0,1.0,100,140.0
851,C2,111.0,0.5,100,140.0
852,G#2,111.0,0.5,100,140.0
853,C5,111.483,517/1000,120,140.0
854,C5,111.5,0.5,100,140.0
855,B-5,111.5,0.5,100,140.0
856,F2,111.5,0.5,100,140.0
857,C5,112.0,4.0,120,140.0
858,G5,112.0,0.5,100,140.0
859,C#2,112.0,1.0,100,140.0
860,C5,112.0,4.0,100,140.0
861,E-5,112.0,4.0,100,140.0
862,C#4,112.0,4.0,100,140.0
863,C2,112.0,0.5,100,140.0
864,G#2,112.0,0.5,100,140.0
865,C5,112.5,0.5,100,140.0
866,B-5,112.5,0.5,100,140.0
867,C#3,112.5,0.5,100,140.0
868,G5,113.0,0.5,100,140.0
869,C#2,113.0,1.0,100,140.0
870,G#2,113.0,0.5,100,140.0
871,C2,113.0,0.5,100,140.0
872,C5,113.5,0.5,100,140.0
873,B-5,113.5,0.5,100,140.0
874,C#3,113.5,0.5,100,140.0
875,G5,114.0,0.5,100,140.0
876,C#2,114.0,1.0,100,140.0
877,C2,114.0,0.5,100,140.0
878,G#2,114.0,0.5,100,140.0
879,C5,114.5,0.5,100,140.0
880,B-5,114.5,0.5,100,140.0
881,C#3,114.5,0.5,100,140.0
882,G5,115.0,0.5,100,140.0
883,C#2,115.0,1.0,100,140.0
884,G#2,115.0,0.5,100,140.0
885,C2,115.0,0.5,100,140.0
886,C5,115.5,0.5,100,140.0
887,B-5,115.5,0.5,100,140.0
888,C#3,115.5,0.5,100,140.0
889,C5,116.0,1983/1000,120,140.0
890,G5,116.0,0.5,100,140.0
891,B-1,116.0,1.0,100,140.0
892,C5,116.0,4.0,100,140.0
893,E-5,116.0,4.0,100,140.0
894,C#4,116.0,4.0,100,140.0
895,C2,116.0,0.5,100,140.0
896,G#2,116.0,0.5,100,140.0
897,C5,116.5,0.5,100,140.0
898,B-5,116.5,0.5,100,140.0
899,B-2,116.5,0.5,100,140.0
900,G5,117.0,0.5,100,140.0
901,B-1,117.0,1.0,100,140.0
902,G#2,117.0,0.5,100,140.0
903,C2,117.0,0.5,100,140.0
904,C5,117.5,0.5,100,140.0
905,B-5,117.5,0.5,100,140.0
906,B-2,117.5,0.5,100,140.0
907,G#5,117.942,1.0,120,140.0
908,B-1,118.0,1.0,100,140.0
909,G#2,118.0,0.5,100,140.0
910,C2,118.0,0.5,100,140.0
911,C5,118.5,0.5,100,140.0
912,B-5,118.5,0.5,100,140.0
913,B-2,118.5,0.5,100,140.0
914,G5,118.95,0.5,120,140.0
915,G5,119.0,0.5,100,140.0
916,B-1,119.0,1.0,100,140.0
917,G#2,119.0,0.5,100,140.0
918,C2,119.0,0.5,100,140.0
919,G#4,119.5,0.5,100,140.0
920,B-5,119.5,0.5,100,140.0
921,B-2,119.5,0.5,100,140.0
922,G#4,119.525,19/40,120,140.0
923,G#4,120.0,4.0,120,140.0
924,G5,120.0,0.5,100,140.0
925,F1,120.0,1.0,100,140.0
926,C4,120.0,4.0,100,140.0
927,C#5,120.0,4.0,100,140.0
928,F5,120.0,4.0,100,140.0
929,C2,120.0,0.5,100,140.0
930,G#2,120.0,0.5,100,140.0
931,G#4,120.5,0.5,100,140.0
932,B-5,120.5,0.5,100,140.0
933,F2,120.5,0.5,100,140.0
934,G5,121.0,0.5,100,140.0
935,F1,121.0,1.0,100,140.0
936,G#2,121.0,0.5,100,140.0
937,C2,121.0,0.5,100,140.0
938,G#4,121.5,0.5,100,140.0
939,B-5,121.5,0.5,100,140.0
940,F2,121.5,0.5,100,140.0
941,G5,122.0,0.5,100,140.0
942,F1,122.0,1.0,100,140.0
943,G#2,122.0,0.5,100,140.0
944,C2,122.0,0.5,100,140.0
945,G#4,122.5,0.5,100,140.0
946,B-5,122.5,0.5,100,140.0
947,F2,122.5,0.5,100,140.0
948,G5,123.0,0.5,100,140.0
949,F1,123.0,1.0,100,140.0
950,G#2,123.0,0.5,100,140.0
951,C2,123.0,0.5,100,140.0
952,G#4,123.5,0.5,100,140.0
953,B-5,123.5,0.5,100,140.0
954,F2,123.5,0.5,100,140.0
955,G#4,124.0,81/40,120,140.0
956,G5,124.0,0.5,100,140.0
957,F1,124.0,1.0,100,140.0
958,C5,124.0,4.0,100,140.0
959,G5,124.0,4.0,100,140.0
960,C4,124.0,4.0,100,140.0
961,G#2,124.0,0.5,100,140.0
962,C2,124.0,0.5,100,140.0
963,G#4,124.5,0.5,100,140.0
964,B-5,124.5,0.5,100,140.0
965,F2,124.5,0.5,100,140.0
966,G5,125.0,0.5,100,140.0
967,F1,125.0,1.0,100,140.0
968,G#2,125.0,0.5,100,140.0
969,C2,125.0,0.5,100,140.0
970,G#4,125.5,0.5,100,140.0
971,B-5,125.5,0.5,100,140.0
972,F2,125.5,0.5,100,140.0
973,G5,126.0,0.5,100,140.0
974,F1,126.0,1.0,100,140.0
975,G#2,126.0,0.5,100,140.0
976,C2,126.0,0.5,100,140.0
977,G#4,126.5,0.5,100,140.0
978,B-5,126.5,0.5,100,140.0
979,F2,126.5,0.5,100,140.0
980,F4,127.0,0.5,100,140.0
981,F1,127.0,1.0,100,140.0
982,G#2,127.0,0.5,100,140.0
983,C2,127.0,0.5,100,140.0
984,F4,127.008,0.25,120,140.0
985,G4,127.233,0.25,120,140.0
986,G#4,127.5,0.25,120,140.0
987,F2,127.5,0.5,100,140.0
988,C2,127.5,0.5,100,140.0
989,B-5,127.5,0.5,100,140.0
990,C5,127.75,0.25,120,140.0
991,F5,128.0,4.0,120,140.0
992,F5,128.0,1.0,100,140.0
993,C#2,128.0,1.0,100,140.0
994,G#5,128.0,4.0,100,140.0
995,C5,128.0,4.0,100,140.0
996,F4,128.0,4.0,100,140.0
997,C2,128.0,0.5,100,140.0
998,G#2,128.0,0.5,100,140.0
999,F4,128.008,0.25,100,140.0
1000,G4,128.233,0.25,100,140.0
1001,G#4,128.5,0.25,100,140.0
1002,B-5,128.5,0.5,100,140.0
1003,C#3,128.5,0.5,100,140.0
1004,C5,128.75,0.25,100,140.0
1005,F5,129.0,1.0,100,140.0
1006,C#2,129.0,1.0,100,140.0
1007,G#2,129.0,0.5,100,140.0
1008,C2,129.0,0.5,100,140.0
1009,F4,129.008,0.25,100,140.0
1010,G4,129.233,0.25,100,140.0
1011,G#4,129.5,0.25,100,140.0
1012,B-5,129.5,0.5,100,140.0
1013,C#3,129.5,0.5,100,140.0
1014,C5,129.75,0.25,100,140.0
1015,F5,130.0,1.0,100,140.0
1016,C#2,130.0,1.0,100,140.0
1017,C2,130.0,0.5,100,140.0
1018,G#2,130.0,0.5,100,140.0
1019,F4,130.008,0.25,100,140.0
1020,G4,130.233,0.25,100,140.0
1021,G#4,130.5,0.25,100,140.0
1022,B-5,130.5,0.5,100,140.0
1023,C#3,130.5,0.5,100,140.0
1024,C5,130.75,0.25,100,140.0
1025,F5,131.0,1.0,100,140.0
1026,C#2,131.0,1.0,100,140.0
1027,C2,131.0,0.5,100,140.0
1028,G#2,131.0,0.5,100,140.0
1029,F4,131.008,0.25,100,140.0
1030,G4,131.233,0.25,100,140.0
1031,G#4,131.5,0.25,100,140.0
1032,B-5,131.5,0.5,100,140.0
1033,C#3,131.5,0.5,100,140.0
1034,C5,131.75,0.25,100,140.0
1035,F5,132.0,2.0,120,140.0
1036,F5,132.0,1.0,100,140.0
1037,B-1,132.0,1.0,100,140.0
1038,G#5,132.0,4.0,100,140.0
1039,C5,132.0,4.0,100,140.0
1040,F4,132.0,4.0,100,140.0
1041,C2,132.0,0.5,100,140.0
1042,G#2,132.0,0.5,100,140.0
1043,F4,132.008,0.25,100,140.0
1044,G4,132.233,0.25,100,140.0
1045,G#4,132.5,0.25,100,140.0
1046,B-5,132.5,0.5,100,140.0
1047,B-2,132.5,0.5,100,140.0
1048,C5,132.75,0.25,100,140.0
1049,F5,133.0,1.0,100,140.0
1050,B-1,133.0,1.0,100,140.0
1051,C2,133.0,0.5,100,140.0
1052,G#2,133.0,0.5,100,140.0
1053,F4,133.008,0.25,100,140.0
1054,G4,133.233,0.25,100,140.0
1055,G#4,133.5,0.25,100,140.0
1056,B-5,133.5,0.5,100,140.0
1057,B-2,133.5,0.5,100,140.0
1058,C5,133.75,0.25,100,140.0
1059,B-1,134.0,1.0,100,140.0
1060,G#2,134.0,0.5,100,140.0
1061,C2,134.0,0.5,100,140.0
1062,G#5,134.025,1.0,120,140.0
1063,B-5,134.5,0.5,100,140.0
1064,B-2,134.5,0.5,100,140.0
1065,G5,134.975,0.5,120,140.0
1066,G5,135.0,1.0,100,140.0
1067,B-1,135.0,1.0,100,140.0
1068,C2,135.0,0.5,100,140.0
1069,G#2,135.0,0.5,100,140.0
1070,E-5,135.5,0.5,120,140.0
1071,E-5,135.5,0.5,100,140.0
1072,B-5,135.5,0.5,100,140.0
1073,B-2,135.5,0.5,100,140.0
1074,E-5,136.0,4.0,120,140.0
1075,G5,136.0,1.0,100,140.0
1076,F1,136.0,1.0,100,140.0
1077,E-4,136.0,4.0,100,140.0
1078,G#4,136.0,4.0,100,140.0
1079,F5,136.0,4.0,100,140.0
1080,G#2,136.0,0.5,100,140.0
1081,C2,136.0,0.5,100,140.0
1082,E-5,136.5,0.5,100,140.0
1083,B-5,136.5,0.5,100,140.0
1084,F2,136.5,0.5,100,140.0
1085,G5,137.0,1.0,100,140.0
1086,F1,137.0,1.0,100,140.0
1087,C2,137.0,0.5,100,140.0
1088,G#2,137.0,0.5,100,140.0
1089,E-5,137.5,0.5,100,140.0
1090,B-5,137.5,0.5,100,140.0
1091,F2,137.5,0.5,100,140.0
1092,G5,138.0,1.0,100,140.0
1093,F1,138.0,1.0,100,140.0
1094,G#2,138.0,0.5,100,140.0
1095,C2,138.0,0.5,100,140.0
1096,E-5,138.5,0.5,100,140.0
1097,B-5,138.5,0.5,100,140.0
1098,F2,138.5,0.5,100,140.0
1099,G5,139.0,1.0,100,140.0
1100,F1,139.0,1.0,100,140.0
1101,C2,139.0,0.5,100,140.0
1102,G#2,139.0,0.5,100,140.0
1103,E-5,139.5,0.5,100,140.0
1104,B-5,139.5,0.5,100,140.0
1105,F2,139.5,0.5,100,140.0
1106,E-5,140.0,2.0,120,140.0
1107,G5,140.0,1.0,100,140.0
1108,F1,140.0,1.0,100,140.0
1109,E-4,140.0,4.0,100,140.0
1110,C2,140.0,0.5,100,140.0
1111,G#2,140.0,0.5,100,140.0
1112,E-5,140.5,0.5,100,140.0
1113,B-5,140.5,0.5,100,140.0
1114,F2,140.5,0.5,100,140.0
1115,G5,141.0,1.0,100,140.0
1116,F1,141.0,1.0,100,140.0
1117,C2,141.0,0.5,100,140.0
1118,G#2,141.0,0.5,100,140.0
1119,E-5,141.5,0.5,100,140.0
1120,B-5,141.5,0.5,100,140.0
1121,F2,141.5,0.5,100,140.0
1122,G5,142.0,1.0,100,140.0
1123,F1,142.0,1.0,100,140.0
1124,C2,142.0,0.5,100,140.0
1125,G#2,142.0,0.5,100,140.0
1126,E-5,142.5,0.5,100,140.0
1127,B-5,142.5,0.5,100,140.0
1128,F2,142.5,0.5,100,140.0
1129,G5,143.0,1.0,100,140.0
1130,F1,143.0,1.0,100,140.0
1131,C2,143.0,0.5,100,140.0
1132,G#2,143.0,0.5,100,140.0
1133,B-5,143.5,0.5,100,140.0
1134,F2,143.5,0.5,100,140.0
1135,C#5,143.508,0.25,120,140.0
1136,C5,143.758,121/500,120,140.0
1137,C#5,144.0,1.0,120,140.0
1138,C5,144.0,1/125,120,140.0
1139,C#5,144.0,0.25,100,140.0
1140,C#2,144.0,1.0,100,140.0
1141,E-5,144.0,4.0,100,140.0
1142,C#4,144.0,4.0,100,140.0
1143,G#4,144.0,4.0,100,140.0
1144,F5,144.0,4.0,100,140.0
1145,C2,144.0,0.5,100,140.0
1146,G#2,144.0,0.5,100,140.0
1147,C5,144.25,0.25,100,140.0
1148,C#5,144.5,1.0,100,140.0
1149,B-5,144.5,0.5,100,140.0
1150,C#3,144.5,0.5,100,140.0
1151,C5,145.0,1.0,100,140.0
1152,C#2,145.0,1.0,100,140.0
1153,C2,145.0,0.5,100,140.0
1154,G#2,145.0,0.5,100,140.0
1155,C5,145.017,0.5,120,140.0
1156,G#4,145.5,2.5,120,140.0
1157,G#4,145.5,0.5,100,140.0
1158,B-5,145.5,0.5,100,140.0
1159,C#3,145.5,0.5,100,140.0
1160,C5,146.0,1.0,100,140.0
1161,C#2,146.0,1.0,100,140.0
1162,G#2,146.0,0.5,100,140.0
1163,C2,146.0,0.5,100,140.0
1164,G#4,146.5,0.5,100,140.0
1165,B-5,146.5,0.5,100,140.0
1166,C#3,146.5,0.5,100,140.0
1167,C5,147.0,1.0,100,140.0
1168,C#2,147.0,1.0,100,140.0
1169,C2,147.0,0.5,100,140.0
1170,G#2,147.0,0.5,100,140.0
1171,G#4,147.5,0.5,100,140.0
1172,B-5,147.5,0.5,100,140.0
1173,C#3,147.5,0.5,100,140.0
1174,C5,148.0,1.0,100,140.0
1175,B-1,148.0,1.0,100,140.0
1176,G4,148.0,4.0,100,140.0
1177,E-5,148.0,4.0,100,140.0
1178,C5,148.0,4.0,100,140.0
1179,C#4,148.0,4.0,100,140.0
1180,C2,148.0,0.5,100,140.0
1181,G#2,148.0,0.5,100,140.0
1182,B-5,148.5,0.5,100,140.0
1183,B-2,148.5,0.5,100,140.0
1184,G4,148.508,1.5,120,140.0
1185,C5,149.0,1.0,100,140.0
1186,B-1,149.0,1.0,100,140.0
1187,C2,149.0,0.5,100,140.0
1188,G#2,149.0,0.5,100,140.0
1189,G4,149.5,1.0,100,140.0
1190,B-5,149.5,0.5,100,140.0
1191,B-2,149.5,0.5,100,140.0
1192,G#4,150.0,1.0,120,140.0
1193,B-1,150.0,1.0,100,140.0
1194,G#2,150.0,0.5,100,140.0
1195,C2,150.0,0.5,100,140.0
1196,B-5,150.5,0.5,100,140.0
1197,B-2,150.5,0.5,100,140.0
1198,C5,150.942,0.5,120,140.0
1199,C5,151.0,1.0,100,140.0
1200,G#4,151.0,0.5,100,140.0
1201,B-1,151.0,1.0,100,140.0
1202,C2,151.0,0.5,100,140.0
1203,G#2,151.0,0.5,100,140.0
1204,F4,151.475,21/40,120,140.0
1205,F4,151.5,0.5,100,140.0
1206,B-5,151.5,0.5,100,140.0
1207,B-2,151.5,0.5,100,140.0
1208,F4,152.0,4.0,120,140.0
1209,C5,152.0,1.0,100,140.0
1210,F1,152.0,1.0,100,140.0
1211,E-5,152.0,4.0,100,140.0
1212,C5,152.0,4.0,100,140.0
1213,C4,152.0,4.0,100,140.0
1214,E-4,152.0,4.0,100,140.0
1215,G#4,152.0,4.0,100,140.0
1216,C2,152.0,0.5,100,140.0
1217,G#2,152.0,0.5,100,140.0
1218,F4,152.5,0.5,100,140.0
1219,B-5,152.5,0.5,100,140.0
1220,F2,152.5,0.5,100,140.0
1221,C5,153.0,1.0,100,140.0
1222,F1,153.0,1.0,100,140.0
1223,C2,153.0,0.5,100,140.0
1224,G#2,153.0,0.5,100,140.0
1225,F4,153.5,0.5,100,140.0
1226,B-5,153.5,0.5,100,140.0
1227,F2,153.5,0.5,100,140.0
1228,C5,154.0,1.0,100,140.0
1229,F1,154.0,1.0,100,140.0
1230,C2,154.0,0.5,100,140.0
1231,G#2,154.0,0.5,100,140.0
1232,F4,154.5,0.5,100,140.0
1233,B-5,154.5,0.5,100,140.0
1234,F2,154.5,0.5,100,140.0
1235,C5,155.0,1.0,100,140.0
1236,F1,155.0,1.0,100,140.0
1237,G#2,155.0,0.5,100,140.0
1238,C2,155.0,0.5,100,140.0
1239,F4,155.5,0.5,100,140.0
1240,B-5,155.5,0.5,100,140.0
1241,F2,155.5,0.5,100,140.0
1242,F4,156.0,79/40,120,140.0
1243,C5,156.0,1.0,100,140.0
1244,F1,156.0,1.0,100,140.0
1245,E-4,156.0,4.0,100,140.0
1246,C4,156.0,4.0,100,140.0
1247,G#4,156.0,4.0,100,140.0
1248,C#5,156.0,4.0,100,140.0
1249,F5,156.0,4.0,100,140.0
1250,G#2,156.0,0.5,100,140.0
1251,C2,156.0,0.5,100,140.0
1252,F4,156.5,0.5,100,140.0
1253,B-5,156.5,0.5,100,140.0
1254,F2,156.5,0.5,100,140.0
1255,C5,157.0,1.0,100,140.0
1256,F1,157.0,1.0,100,140.0
1257,G#2,157.0,0.5,100,140.0
1258,C2,157.0,0.5,100,140.0
1259,F4,157.5,0.5,100,140.0
1260,B-5,157.5,0.5,100,140.0
1261,F2,157.5,0.5,100,140.0
1262,C5,158.0,1.0,100,140.0
1263,F1,158.0,1.0,100,140.0
1264,G#2,158.0,0.5,100,140.0
1265,C2,158.0,0.5,100,140.0
1266,F4,158.5,0.5,100,140.0
1267,B-5,158.5,0.5,100,140.0
1268,F2,158.5,0.5,100,140.0
1269,F4,159.0,0.25,120,140.0
1270,C5,159.0,1.0,100,140.0
1271,F1,159.0,1.0,100,140.0
1272,C2,159.0,0.5,100,140.0
1273,G#2,159.0,0.5,100,140.0
1274,G4,159.25,0.25,120,140.0
1275,G#4,159.5,0.25,120,140.0
1276,F4,159.5,0.5,100,140.0
1277,B-5,159.5,0.5,100,140.0
1278,F2,159.5,0.5,100,140.0
1279,C2,159.5,0.25,100,140.0
1280,B1,159.5,0.25,100,140.0
1281,C5,159.75,0.25,120,140.0
1282,C2,159.75,0.25,100,140.0
1283,B1,159.75,0.25,100,140.0
1284,F5,160.0,4.0,120,140.0
1285,F4,160.0,0.25,100,140.0
1286,C#2,160.0,1.0,100,140.0
1287,C5,160.0,4.0,100,140.0
1288,E-4,160.0,4.0,100,140.0
1289,F4,160.0,4.0,100,140.0
1290,F4,160.0,4.0,100,140.0
1291,F4,160.0,0.25,127,140.0
1292,G4,160.0,4.0,100,140.0
1293,G5,160.0,4.0,100,140.0
1294,C#3,160.0,0.5,100,140.0
1295,C2,160.0,0.5,100,140.0
1296,A3,160.0,0.5,100,140.0
1297,G#2,160.0,0.5,100,140.0
1298,G4,160.25,0.25,100,140.0
1299,C#4,160.25,0.25,127,140.0
1300,G#4,160.5,0.25,100,140.0
1301,B-5,160.5,0.5,100,140.0
1302,C#3,160.5,0.5,100,140.0
1303,G#3,160.5,0.25,127,140.0
1304,C5,160.75,0.25,100,140.0
1305,F3,160.75,0.25,127,140.0
1306,F5,161.0,0.5,100,140.0
1307,F4,161.0,0.25,100,140.0
1308,C#2,161.0,1.0,100,140.0
1309,F4,161.0,0.25,127,140.0
1310,C2,161.0,0.5,100,140.0
1311,G#2,161.0,0.5,100,140.0
1312,G4,161.25,0.25,100,140.0
1313,C#4,161.25,0.25,127,140.0
1314,G#4,161.5,0.25,100,140.0
1315,B-5,161.5,0.5,100,140.0
1316,C#3,161.5,0.5,100,140.0
1317,G#3,161.5,0.25,127,140.0
1318,C5,161.75,0.25,100,140.0
1319,F3,161.75,0.25,127,140.0
1320,F5,162.0,0.5,100,140.0
1321,F4,162.0,0.25,100,140.0
1322,C#2,162.0,1.0,100,140.0
1323,F4,162.0,0.25,127,140.0
1324,G#2,162.0,0.5,100,140.0
1325,C2,162.0,0.5,100,140.0
1326,G4,162.25,0.25,100,140.0
1327,C#4,162.25,0.25,127,140.0
1328,G#4,162.5,0.25,100,140.0
1329,B-5,162.5,0.5,100,140.0
1330,C#3,162.5,0.5,100,140.0
1331,G#3,162.5,0.25,127,140.0
1332,C5,162.75,0.25,100,140.0
1333,F3,162.75,0.25,127,140.0
1334,F5,163.0,0.5,100,140.0
1335,F4,163.0,0.25,100,140.0
1336,C#2,163.0,1.0,100,140.0
1337,F4,163.0,0.25,127,140.0
1338,C2,163.0,0.5,100,140.0
1339,G#2,163.0,0.5,100,140.0
1340,G4,163.25,0.25,100,140.0
1341,C#4,163.25,0.25,127,140.0
1342,G#4,163.5,0.25,100,140.0
1343,B-5,163.5,0.5,100,140.0
1344,C#3,163.5,0.5,100,140.0
1345,G#3,163.5,0.25,127,140.0
1346,C5,163.75,0.25,100,140.0
1347,F3,163.75,0.25,127,140.0
1348,F5,164.0,2.0,120,140.0
1349,F5,164.0,0.5,100,140.0
1350,F4,164.0,0.25,100,140.0
1351,B-1,164.0,1.0,100,140.0
1352,C5,164.0,4.0,100,140.0
1353,F4,164.0,4.0,100,140.0
1354,F4,164.0,4.0,100,140.0
1355,F4,164.0,0.25,127,140.0
1356,F4,164.0,4.0,100,140.0
1357,G#5,164.0,4.0,100,140.0
1358,G#2,164.0,0.5,100,140.0
1359,C2,164.0,0.5,100,140.0
1360,G4,164.25,0.25,100,140.0
1361,C#4,164.25,0.25,127,140.0
1362,G#4,164.5,0.25,100,140.0
1363,B-5,164.5,0.5,100,140.0
1364,B-2,164.5,0.5,100,140.0
1365,B-3,164.5,0.25,127,140.0
1366,C5,164.75,0.25,100,140.0
1367,F3,164.75,0.25,127,140.0
1368,F5,165.0,0.5,100,140.0
1369,F4,165.0,0.25,100,140.0
1370,B-1,165.0,1.0,100,140.0
1371,F4,165.0,0.25,127,140.0
1372,G#2,165.0,0.5,100,140.0
1373,C2,165.0,0.5,100,140.0
1374,G4,165.25,0.25,100,140.0
1375,C#4,165.25,0.25,127,140.0
1376,G#4,165.5,0.25,100,140.0
1377,B-5,165.5,0.5,100,140.0
1378,B-2,165.5,0.5,100,140.0
1379,B-3,165.5,0.25,127,140.0
1380,C5,165.75,0.25,100,140.0
1381,F3,165.75,0.25,127,140.0
1382,B-1,166.0,1.0,100,140.0
1383,G4,166.0,0.25,127,140.0
1384,C2,166.0,0.5,100,140.0
1385,G#2,166.0,0.5,100,140.0
1386,G#5,166.025,1.0,120,140.0
1387,E-4,166.25,0.25,127,140.0
1388,B-5,166.5,0.5,100,140.0
1389,B-2,166.5,0.5,100,140.0
1390,B-3,166.5,0.25,127,140.0
1391,G3,166.75,0.25,127,140.0
1392,G5,166.975,0.5,120,140.0
1393,G5,167.0,0.5,100,140.0
1394,B-1,167.0,1.0,100,140.0
1395,G4,167.0,0.25,127,140.0
1396,G#2,167.0,0.5,100,140.0
1397,C2,167.0,0.5,100,140.0
1398,E-4,167.25,0.25,127,140.0
1399,E-5,167.5,0.5,120,140.0
1400,E-5,167.5,0.5,100,140.0
1401,B-5,167.5,0.5,100,140.0
1402,B-2,167.5,0.5,100,140.0
1403,B-3,167.5,0.25,127,140.0
1404,G3,167.75,0.25,127,140.0
1405,E-5,168.0,4.0,120,140.0
1406,G5,168.0,0.5,100,140.0
1407,F1,168.0,1.0,100,140.0
1408,C5,168.0,4.0,100,140.0
1409,E-4,168.0,4.0,100,140.0
1410,F4,168.0,4.0,100,140.0
1411,G#4,168.0,0.25,127,140.0
1412,F4,168.0,4.0,100,140.0
1413,G#5,168.0,4.0,100,140.0
1414,C2,168.0,0.5,100,140.0
1415,G#2,168.0,0.5,100,140.0
1416,G4,168.25,0.25,127,140.0
1417,E-5,168.5,0.5,100,140.0
1418,B-5,168.5,0.5,100,140.0
1419,F2,168.5,0.5,100,140.0
1420,E-4,168.5,0.25,127,140.0
1421,C4,168.75,0.25,127,140.0
1422,G5,169.0,0.5,100,140.0
1423,F1,169.0,1.0,100,140.0
1424,G#4,169.0,0.25,127,140.0
1425,G#2,169.0,0.5,100,140.0
1426,C2,169.0,0.5,100,140.0
1427,G4,169.25,0.25,127,140.0
1428,E-5,169.5,0.5,100,140.0
1429,B-5,169.5,0.5,100,140.0
1430,F2,169.5,0.5,100,140.0
1431,E-4,169.5,0.25,127,140.0
1432,C4,169.75,0.25,127,140.0
1433,G5,170.0,0.5,100,140.0
1434,F1,170.0,1.0,100,140.0
1435,G#4,170.0,0.25,127,140.0
1436,G#2,170.0,0.5,100,140.0
1437,C2,170.0,0.5,100,140.0
1438,G4,170.25,0.25,127,140.0
1439,E-5,170.5,0.5,100,140.0
1440,B-5,170.5,0.5,100,140.0
1441,F2,170.5,0.5,100,140.0
1442,E-4,170.5,0.25,127,140.0
1443,C4,170.75,0.25,127,140.0
1444,G5,171.0,0.5,100,140.0
1445,F1,171.0,1.0,100,140.0
1446,G#4,171.0,0.25,127,140.0
1447,C2,171.0,0.5,100,140.0
1448,G#2,171.0,0.5,100,140.0
1449,G4,171.25,0.25,127,140.0
1450,E-5,171.5,0.5,100,140.0
1451,B-5,171.5,0.5,100,140.0
1452,F2,171.5,0.5,100,140.0
1453,E-4,171.5,0.25,127,140.0
1454,C4,171.75,0.25,127,140.0
1455,E-5,172.0,2.0,120,140.0
1456,G5,172.0,0.5,100,140.0
1457,F1,172.0,1.0,100,140.0
1458,E-4,172.0,4.0,100,140.0
1459,E-4,172.0,4.0,100,140.0
1460,F4,172.0,4.0,100,140.0
1461,G#4,172.0,0.25,127,140.0
1462,G#4,172.0,4.0,100,140.0
1463,F5,172.0,4.0,100,140.0
1464,G#2,172.0,0.5,100,140.0
1465,C2,172.0,0.5,100,140.0
1466,G4,172.25,0.25,127,140.0
1467,E-5,172.5,0.5,100,140.0
1468,B-5,172.5,0.5,100,140.0
1469,F2,172.5,0.5,100,140.0
1470,E-4,172.5,0.25,127,140.0
1471,C4,172.75,0.25,127,140.0
1472,G5,173.0,0.5,100,140.0
1473,F1,173.0,1.0,100,140.0
1474,G#4,173.0,0.25,127,140.0
1475,C2,173.0,0.5,100,140.0
1476,G#2,173.0,0.5,100,140.0
1477,G4,173.25,0.25,127,140.0
1478,E-5,173.5,0.5,100,140.0
1479,B-5,173.5,0.5,100,140.0
1480,F2,173.5,0.5,100,140.0
1481,E-4,173.5,0.25,127,140.0
1482,C4,173.75,0.25,127,140.0
1483,G#5,174.0,1.0,120,140.0
1484,F1,174.0,1.0,100,140.0
1485,G#4,174.0,0.25,127,140.0
1486,C2,174.0,0.5,100,140.0
1487,G#2,174.0,0.5,100,140.0
1488,G4,174.25,0.25,127,140.0
1489,E-5,174.5,0.5,100,140.0
1490,B-5,174.5,0.5,100,140.0
1491,F2,174.5,0.5,100,140.0
1492,E-4,174.5,0.25,127,140.0
1493,C4,174.75,0.25,127,140.0
1494,G5,175.0,0.5,120,140.0
1495,G5,175.0,0.5,100,140.0
1496,F1,175.0,1.0,100,140.0
1497,G#4,175.0,0.25,127,140.0
1498,G#2,175.0,0.5,100,140.0
1499,C2,175.0,0.5,100,140.0
1500,G4,175.25,0.25,127,140.0
1501,C5,175.483,517/1000,120,140.0
1502,C5,175.5,0.5,100,140.0
1503,B-5,175.5,0.5,100,140.0
1504,F2,175.5,0.5,100,140.0
1505,E-4,175.5,0.25,127,140.0
1506,C4,175.75,0.25,127,140.0
1507,C5,176.0,4.0,120,140.0
1508,G5,176.0,0.5,100,140.0
1509,C#2,176.0,1.0,100,140.0
1510,C#4,176.0,4.0,100,140.0
1511,C#4,176.0,4.0,100,140.0
1512,E-4,176.0,1.0,100,140.0
1513,G#4,176.0,4.0,100,140.0
1514,F4,176.0,0.25,127,140.0
1515,G#2,176.0,0.5,100,140.0
1516,C2,176.0,0.5,100,140.0
1517,C#4,176.25,0.25,127,140.0
1518,C5,176.5,0.5,100,140.0
1519,B-5,176.5,0.5,100,140.0
1520,C#3,176.5,0.5,100,140.0
1521,G#3,176.5,0.25,127,140.0
1522,F3,176.75,0.25,127,140.0
1523,G5,177.0,0.5,100,140.0
1524,C#2,177.0,1.0,100,140.0
1525,F4,177.0,0.25,127,140.0
1526,G#2,177.0,0.5,100,140.0
1527,C2,177.0,0.5,100,140.0
1528,C#4,177.25,0.25,127,140.0
1529,C5,177.5,0.5,100,140.0
1530,B-5,177.5,0.5,100,140.0
1531,C#3,177.5,0.5,100,140.0
1532,G#3,177.5,0.25,127,140.0
1533,F3,177.75,0.25,127,140.0
1534,G5,178.0,0.5,100,140.0
1535,C#2,178.0,1.0,100,140.0
1536,F4,178.0,0.25,127,140.0
1537,G#2,178.0,0.5,100,140.0
1538,C2,178.0,0.5,100,140.0
1539,C#4,178.25,0.25,127,140.0
1540,C5,178.5,0.5,100,140.0
1541,B-5,178.5,0.5,100,140.0
1542,C#3,178.5,0.5,100,140.0
1543,G#3,178.5,0.25,127,140.0
1544,F3,178.75,0.25,127,140.0
1545,G5,179.0,0.5,100,140.0
1546,C#2,179.0,1.0,100,140.0
1547,F4,179.0,0.25,127,140.0
1548,G#2,179.0,0.5,100,140.0
1549,C2,179.0,0.5,100,140.0
1550,C#4,179.25,0.25,127,140.0
1551,C5,179.5,0.5,100,140.0
1552,B-5,179.5,0.5,100,140.0
1553,C#3,179.5,0.5,100,140.0
1554,G#3,179.5,0.25,127,140.0
1555,F3,179.75,0.25,127,140.0
1556,C5,180.0,1983/1000,120,140.0
1557,G5,180.0,0.5,100,140.0
1558,B-1,180.0,1.0,100,140.0
1559,E-5,180.0,4.0,100,140.0
1560,C#4,180.0,4.0,100,140.0
1561,G4,180.0,4.0,100,140.0
1562,C#4,180.0,4.0,100,140.0
1563,F4,180.0,0.25,127,140.0
1564,G#4,180.0,4.0,100,140.0
1565,F5,180.0,4.0,100,140.0
1566,C2,180.0,0.5,100,140.0
1567,G#2,180.0,0.5,100,140.0
1568,C#4,180.25,0.25,127,140.0
1569,C5,180.5,0.5,100,140.0
1570,B-5,180.5,0.5,100,140.0
1571,B-2,180.5,0.5,100,140.0
1572,B-3,180.5,0.25,127,140.0
1573,F3,180.75,0.25,127,140.0
1574,G5,181.0,0.5,100,140.0
1575,B-1,181.0,1.0,100,140.0
1576,F4,181.0,0.25,127,140.0
1577,C2,181.0,0.5,100,140.0
1578,G#2,181.0,0.5,100,140.0
1579,C#4,181.25,0.25,127,140.0
1580,C5,181.5,0.5,100,140.0
1581,B-5,181.5,0.5,100,140.0
1582,B-2,181.5,0.5,100,140.0
1583,B-3,181.5,0.25,127,140.0
1584,F3,181.75,0.25,127,140.0
1585,G#5,181.942,1.0,120,140.0
1586,B-1,182.0,1.0,100,140.0
1587,F4,182.0,0.25,127,140.0
1588,C2,182.0,0.5,100,140.0
1589,G#2,182.0,0.5,100,140.0
1590,C#4,182.25,0.25,127,140.0
1591,C5,182.5,0.5,100,140.0
1592,B-5,182.5,0.5,100,140.0
1593,B-2,182.5,0.5,100,140.0
1594,B-3,182.5,0.25,127,140.0
1595,F3,182.75,0.25,127,140.0
1596,G5,182.95,0.5,120,140.0
1597,G5,183.0,0.5,100,140.0
1598,B-1,183.0,1.0,100,140.0
1599,E-4,183.0,0.25,127,140.0
1600,G#2,183.0,0.5,100,140.0
1601,C2,183.0,0.5,100,140.0
1602,C#4,183.25,0.25,127,140.0
1603,G#4,183.5,0.5,100,140.0
1604,B-5,183.5,0.5,100,140.0
1605,B-2,183.5,0.5,100,140.0
1606,B-3,183.5,0.25,127,140.0
1607,G#4,183.525,19/40,120,140.0
1608,F3,183.75,0.25,127,140.0
1609,G#4,184.0,4.0,120,140.0
1610,G5,184.0,0.5,100,140.0
1611,F1,184.0,1.0,100,140.0
1612,G4,184.0,4.0,100,140.0
1613,E-5,184.0,4.0,100,140.0
1614,C5,184.0,4.0,100,140.0
1615,C4,184.0,4.0,100,140.0
1616,C#4,184.0,0.25,127,140.0
1617,G#4,184.0,4.0,100,140.0
1618,C4,184.0,4.0,100,140.0
1619,C2,184.0,0.5,100,140.0
1620,G#2,184.0,0.5,100,140.0
1621,C4,184.25,0.25,127,140.0
1622,G#4,184.5,0.5,100,140.0
1623,B-5,184.5,0.5,100,140.0
1624,F2,184.5,0.5,100,140.0
1625,G#3,184.5,0.25,127,140.0
1626,F3,184.75,0.25,127,140.0
1627,G5,185.0,0.5,100,140.0
1628,F1,185.0,1.0,100,140.0
1629,C#4,185.0,0.25,127,140.0
1630,G#2,185.0,0.5,100,140.0
1631,C2,185.0,0.5,100,140.0
1632,C4,185.25,0.25,127,140.0
1633,G#4,185.5,0.5,100,140.0
1634,B-5,185.5,0.5,100,140.0
1635,F2,185.5,0.5,100,140.0
1636,G#3,185.5,0.25,127,140.0
1637,F3,185.75,0.25,127,140.0
1638,G5,186.0,0.5,100,140.0
1639,F1,186.0,1.0,100,140.0
1640,C#4,186.0,0.25,127,140.0
1641,C2,186.0,0.5,100,140.0
1642,G#2,186.0,0.5,100,140.0
1643,C4,186.25,0.25,127,140.0
1644,G#4,186.5,0.5,100,140.0
1645,B-5,186.5,0.5,100,140.0
1646,F2,186.5,0.5,100,140.0
1647,G#3,186.5,0.25,127,140.0
1648,F3,186.75,0.25,127,140.0
1649,G5,187.0,0.5,100,140.0
1650,F1,187.0,1.0,100,140.0
1651,C#4,187.0,0.25,127,140.0
1652,G#2,187.0,0.5,100,140.0
1653,C2,187.0,0.5,100,140.0
1654,C4,187.25,0.25,127,140.0
1655,G#4,187.5,0.5,100,140.0
1656,B-5,187.5,0.5,100,140.0
1657,F2,187.5,0.5,100,140.0
1658,G#3,187.5,0.25,127,140.0
1659,F3,187.75,0.25,127,140.0
1660,G#4,188.0,81/40,120,140.0
1661,G5,188.0,0.5,100,140.0
1662,F1,188.0,1.0,100,140.0
1663,E-5,188.0,4.0,100,140.0
1664,C5,188.0,4.0,100,140.0
1665,C4,188.0,4.0,100,140.0
1666,C#4,188.0,0.25,127,140.0
1667,E-4,188.0,4.0,100,140.0
1668,G#4,188.0,4.0,100,140.0
1669,G#2,188.0,0.5,100,140.0
1670,C2,188.0,0.5,100,140.0
1671,C4,188.25,0.25,127,140.0
1672,G#4,188.5,0.5,100,140.0
1673,B-5,188.5,0.5,100,140.0
1674,F2,188.5,0.5,100,140.0
1675,G#3,188.5,0.25,127,140.0
1676,F3,188.75,0.25,127,140.0
1677,G5,189.0,0.5,100,140.0
1678,F1,189.0,1.0,100,140.0
1679,C#4,189.0,0.25,127,140.0
1680,G#2,189.0,0.5,100,140.0
1681,C2,189.0,0.5,100,140.0
1682,C4,189.25,0.25,127,140.0
1683,G#4,189.5,0.5,100,140.0
1684,B-5,189.5,0.5,100,140.0
1685,F2,189.5,0.5,100,140.0
1686,G#3,189.5,0.25,127,140.0
1687,F3,189.75,0.25,127,140.0
1688,G5,190.0,0.5,100,140.0
1689,F1,190.0,1.0,100,140.0
1690,C#4,190.0,0.25,127,140.0
1691,C2,190.0,0.5,100,140.0
1692,G#2,190.0,0.5,100,140.0
1693,C4,190.25,0.25,127,140.0
1694,G#4,190.5,0.5,100,140.0
1695,B-5,190.5,0.5,100,140.0
1696,F2,190.5,0.5,100,140.0
1697,G#3,190.5,0.25,127,140.0
1698,F3,190.75,0.25,127,140.0
1699,F4,191.0,0.25,120,140.0
1700,F4,191.0,0.5,100,140.0
1701,F1,191.0,1.0,100,140.0
1702,C#4,191.0,0.25,127,140.0
1703,C2,191.0,0.5,100,140.0
1704,G#2,191.0,0.5,100,140.0
1705,G4,191.233,0.25,120,140.0
1706,C4,191.25,0.25,127,140.0
1707,G#4,191.5,0.25,120,140.0
1708,C2,191.5,0.25,100,140.0
1709,B-5,191.5,0.5,100,140.0
1710,F2,191.5,0.5,100,140.0
1711,G#3,191.5,0.25,127,140.0
1712,C5,191.75,0.25,120,140.0
1713,F3,191.75,0.25,127,140.0
1714,F5,192.0,4.0,120,140.0
1715,F5,192.0,1.0,100,140.0
1716,F4,192.0,0.25,100,140.0
1717,C#2,192.0,1.0,100,140.0
1718,F4,192.0,4.0,100,140.0
1719,F4,192.0,0.25,127,140.0
1720,E-4,192.0,4.0,100,140.0
1721,C#5,192.0,4.0,100,140.0
1722,G#4,192.0,4.0,100,140.0
1723,F5,192.0,4.0,100,140.0
1724,G#4,192.0,4.0,100,140.0
1725,C4,192.0,4.0,100,140.0
1726,G#2,192.0,0.5,100,140.0
1727,C2,192.0,0.5,100,140.0
1728,G4,192.233,0.25,100,140.0
1729,C#4,192.25,0.25,127,140.0
1730,G#4,192.5,0.25,100,140.0
1731,B-5,192.5,0.5,100,140.0
1732,C#3,192.5,0.5,100,140.0
1733,G#3,192.5,0.25,127,140.0
1734,F4,192.5,0.125,100,140.0
1735,F4,192.5,0.125,100,140.0
1736,C5,192.75,0.25,100,140.0
1737,F3,192.75,0.25,127,140.0
1738,F5,193.0,1.0,100,140.0
1739,F4,193.0,0.25,100,140.0
1740,C#2,193.0,1.0,100,140.0
1741,F4,193.0,0.25,127,140.0
1742,G#2,193.0,0.5,100,140.0
1743,C2,193.0,0.5,100,140.0
1744,G4,193.233,0.25,100,140.0
1745,C#4,193.25,0.25,127,140.0
1746,G#4,193.5,0.25,100,140.0
1747,B-5,193.5,0.5,100,140.0
1748,C#3,193.5,0.5,100,140.0
1749,G#3,193.5,0.25,127,140.0
1750,F3,193.5,0.625,127,140.0
1751,F3,193.5,0.625,100,140.0
1752,F3,193.5,0.625,100,140.0
1753,C5,193.75,0.25,100,140.0
1754,F3,193.75,0.25,127,140.0
1755,F5,194.0,1.0,100,140.0
1756,F4,194.0,0.25,100,140.0
1757,C#2,194.0,1.0,100,140.0
1758,F4,194.0,0.25,127,140.0
1759,C2,194.0,0.5,100,140.0
1760,G#2,194.0,0.5,100,140.0
1761,G4,194.233,0.25,100,140.0
1762,C#4,194.25,0.25,127,140.0
1763,G#4,194.5,0.25,100,140.0
1764,B-5,194.5,0.5,100,140.0
1765,C#3,194.5,0.5,100,140.0
1766,G#3,194.5,0.25,127,140.0
1767,F3,194.5,26/125,127,140.0
1768,F3,194.5,26/125,100,140.0
1769,F3,194.5,26/125,100,140.0
1770,C5,194.75,0.25,100,140.0
1771,F3,194.75,0.25,127,140.0
1772,F5,195.0,1.0,100,140.0
1773,F4,195.0,0.25,100,140.0
1774,C#2,195.0,1.0,100,140.0
1775,F4,195.0,0.25,127,140.0
1776,G#2,195.0,0.5,100,140.0
1777,C2,195.0,0.5,100,140.0
1778,G4,195.233,0.25,100,140.0
1779,C#4,195.25,0.25,127,140.0
1780,G#4,195.5,0.25,100,140.0
1781,B-5,195.5,0.5,100,140.0
1782,C#3,195.5,0.5,100,140.0
1783,G#3,195.5,0.25,127,140.0
1784,F4,195.5,0.5,127,140.0
1785,F4,195.5,0.5,100,140.0
1786,F4,195.5,0.5,100,140.0
1787,C5,195.75,0.25,100,140.0
1788,F3,195.75,0.25,127,140.0
1789,F5,196.0,2.0,120,140.0
1790,F5,196.0,1.0,100,140.0
1791,F4,196.0,0.25,100,140.0
1792,B-1,196.0,1.0,100,140.0
1793,F4,196.0,4.0,100,140.0
1794,F4,196.0,4.0,100,140.0
1795,F4,196.0,0.25,127,140.0
1796,F4,196.0,0.125,127,140.0
1797,F4,196.0,0.125,100,140.0
1798,F4,196.0,0.125,100,140.0
1799,C2,196.0,0.5,100,140.0
1800,G#2,196.0,0.5,100,140.0
1801,G4,196.233,0.25,100,140.0
1802,C#4,196.25,0.25,127,140.0
1803,G#4,196.5,0.25,100,140.0
1804,B-5,196.5,0.5,100,140.0
1805,B-2,196.5,0.5,100,140.0
1806,B-3,196.5,0.25,127,140.0
1807,F4,196.5,0.25,127,140.0
1808,F4,196.5,26/125,100,140.0
1809,F4,196.5,26/125,100,140.0
1810,C5,196.75,0.25,100,140.0
1811,F3,196.75,0.25,127,140.0
1812,F5,197.0,1.0,100,140.0
1813,F4,197.0,0.25,100,140.0
1814,B-1,197.0,1.0,100,140.0
1815,F4,197.0,0.25,127,140.0
1816,C2,197.0,0.5,100,140.0
1817,G#2,197.0,0.5,100,140.0
1818,G4,197.233,0.25,100,140.0
1819,C#4,197.25,0.25,127,140.0
1820,G#4,197.5,0.25,100,140.0
1821,B-5,197.5,0.5,100,140.0
1822,B-2,197.5,0.5,100,140.0
1823,B-3,197.5,0.25,127,140.0
1824,F3,197.5,0.625,127,140.0
1825,F3,197.5,0.625,100,140.0
1826,F3,197.5,0.625,100,140.0
1827,C5,197.75,0.25,100,140.0
1828,F3,197.75,0.25,127,140.0
1829,B-1,198.0,1.0,100,140.0
1830,G4,198.0,0.25,127,140.0
1831,C2,198.0,0.5,100,140.0
1832,G#2,198.0,0.5,100,140.0
1833,G#5,198.025,1.0,120,140.0
1834,E-4,198.25,0.25,127,140.0
1835,B-5,198.5,0.5,100,140.0
1836,B-2,198.5,0.5,100,140.0
1837,B-3,198.5,0.25,127,140.0
1838,F3,198.5,0.25,127,140.0
1839,F3,198.5,26/125,100,140.0
1840,F3,198.5,26/125,100,140.0
1841,G3,198.75,0.25,127,140.0
1842,G5,198.975,0.5,120,140.0
1843,G5,199.0,1.0,100,140.0
1844,B-1,199.0,1.0,100,140.0
1845,G4,199.0,0.25,127,140.0
1846,C2,199.0,0.5,100,140.0
1847,G#2,199.0,0.5,100,140.0
1848,E-4,199.25,0.25,127,140.0
1849,E-5,199.5,0.5,120,140.0
1850,E-5,199.5,0.5,100,140.0
1851,B-5,199.5,0.5,100,140.0
1852,B-2,199.5,0.5,100,140.0
1853,B-3,199.5,0.25,127,140.0
1854,F4,199.5,0.5,127,140.0
1855,F4,199.5,0.5,100,140.0
1856,F4,199.5,0.5,100,140.0
1857,G3,199.75,0.25,127,140.0
1858,E-5,200.0,4.0,120,140.0
1859,G5,200.0,1.0,100,140.0
1860,F1,200.0,1.0,100,140.0
1861,E-4,200.0,4.0,100,140.0
1862,F4,200.0,4.0,100,140.0
1863,G#4,200.0,0.25,127,140.0
1864,F4,200.0,0.125,127,140.0
1865,F4,200.0,0.125,100,140.0
1866,F4,200.0,0.125,100,140.0
1867,G4,200.0,4.0,100,140.0
1868,G5,200.0,4.0,100,140.0
1869,E-4,200.0,4.0,100,140.0
1870,C#5,200.0,4.0,100,140.0
1871,G#2,200.0,0.5,100,140.0
1872,C2,200.0,0.5,100,140.0
1873,G4,200.25,0.25,127,140.0
1874,E-5,200.5,0.5,100,140.0
1875,B-5,200.5,0.5,100,140.0
1876,F2,200.5,0.5,100,140.0
1877,E-4,200.5,0.25,127,140.0
1878,F4,200.5,26/125,127,140.0
1879,F4,200.5,26/125,100,140.0
1880,F4,200.5,26/125,100,140.0
1881,C4,200.75,0.25,127,140.0
1882,G5,201.0,1.0,100,140.0
1883,F1,201.0,1.0,100,140.0
1884,G#4,201.0,0.25,127,140.0
1885,C2,201.0,0.5,100,140.0
1886,G#2,201.0,0.5,100,140.0
1887,G4,201.25,0.25,127,140.0
1888,E-5,201.5,0.5,100,140.0
1889,B-5,201.5,0.5,100,140.0
1890,F2,201.5,0.5,100,140.0
1891,E-4,201.5,0.25,127,140.0
1892,F3,201.5,0.625,127,140.0
1893,F3,201.5,0.625,100,140.0
1894,F3,201.5,0.625,100,140.0
1895,C4,201.75,0.25,127,140.0
1896,G5,202.0,1.0,100,140.0
1897,F1,202.0,1.0,100,140.0
1898,G#4,202.0,0.25,127,140.0
1899,C2,202.0,0.5,100,140.0
1900,G#2,202.0,0.5,100,140.0
1901,G4,202.25,0.25,127,140.0
1902,E-5,202.5,0.5,100,140.0
1903,B-5,202.5,0.5,100,140.0
1904,F2,202.5,0.5,100,140.0
1905,E-4,202.5,0.25,127,140.0
1906,F3,202.5,26/125,127,140.0
1907,F3,202.5,26/125,100,140.0
1908,F3,202.5,26/125,100,140.0
1909,C4,202.75,0.25,127,140.0
1910,G5,203.0,1.0,100,140.0
1911,F1,203.0,1.0,100,140.0
1912,G#4,203.0,0.25,127,140.0
1913,C2,203.0,0.5,100,140.0
1914,G#2,203.0,0.5,100,140.0
1915,G4,203.25,0.25,127,140.0
1916,E-5,203.5,0.5,100,140.0
1917,B-5,203.5,0.5,100,140.0
1918,F2,203.5,0.5,100,140.0
1919,E-4,203.5,0.25,127,140.0
1920,F4,203.5,0.5,127,140.0
1921,F4,203.5,0.5,100,140.0
1922,F4,203.5,0.5,100,140.0
1923,C4,203.75,0.25,127,140.0
1924,E-5,204.0,2.0,120,140.0
1925,G5,204.0,1.0,100,140.0
1926,F1,204.0,1.0,100,140.0
1927,E-4,204.0,4.0,100,140.0
1928,F4,204.0,4.0,100,140.0
1929,G#4,204.0,0.25,127,140.0
1930,F4,204.0,0.125,127,140.0
1931,F4,204.0,0.125,100,140.0
1932,F4,204.0,0.125,100,140.0
1933,C5,204.0,4.0,100,140.0
1934,F4,204.0,4.0,100,140.0
1935,G#5,204.0,4.0,100,140.0
1936,C2,204.0,0.5,100,140.0
1937,G#2,204.0,0.5,100,140.0
1938,G4,204.25,0.25,127,140.0
1939,E-5,204.5,0.5,100,140.0
1940,B-5,204.5,0.5,100,140.0
1941,F2,204.5,0.5,100,140.0
1942,E-4,204.5,0.25,127,140.0
1943,F4,204.5,26/125,127,140.0
1944,F4,204.5,26/125,100,140.0
1945,F4,204.5,26/125,100,140.0
1946,C4,204.75,0.25,127,140.0
1947,G5,205.0,1.0,100,140.0
1948,F1,205.0,1.0,100,140.0
1949,G#4,205.0,0.25,127,140.0
1950,C2,205.0,0.5,100,140.0
1951,G#2,205.0,0.5,100,140.0
1952,G4,205.25,0.25,127,140.0
1953,E-5,205.5,0.5,100,140.0
1954,B-5,205.5,0.5,100,140.0
1955,F2,205.5,0.5,100,140.0
1956,E-4,205.5,0.25,127,140.0
1957,F3,205.5,0.625,127,140.0
1958,F3,205.5,0.625,100,140.0
1959,F3,205.5,0.625,100,140.0
1960,C4,205.75,0.25,127,140.0
1961,G5,206.0,1.0,100,140.0
1962,F1,206.0,1.0,100,140.0
1963,G#4,206.0,0.25,127,140.0
1964,G#2,206.0,0.5,100,140.0
1965,C2,206.0,0.5,100,140.0
1966,G4,206.25,0.25,127,140.0
1967,E-5,206.5,0.5,100,140.0
1968,B-5,206.5,0.5,100,140.0
1969,F2,206.5,0.5,100,140.0
1970,E-4,206.5,0.25,127,140.0
1971,F3,206.5,26/125,127,140.0
1972,F3,206.5,26/125,100,140.0
1973,F3,206.5,26/125,100,140.0
1974,C4,206.75,0.25,127,140.0
1975,G5,207.0,1.0,100,140.0
1976,F1,207.0,1.0,100,140.0
1977,G#4,207.0,0.25,127,140.0
1978,C2,207.0,0.5,100,140.0
1979,G#2,207.0,0.5,100,140.0
1980,G4,207.25,0.25,127,140.0
1981,B-5,207.5,0.5,100,140.0
1982,F2,207.5,0.5,100,140.0
1983,E-4,207.5,0.25,127,140.0
1984,F4,207.5,0.5,127,140.0
1985,F4,207.5,0.5,100,140.0
1986,F4,207.5,0.5,100,140.0
1987,C#5,207.508,0.25,120,140.0
1988,C4,207.75,0.25,127,140.0
1989,C5,207.758,121/500,120,140.0
1990,C#5,208.0,1.0,120,140.0
1991,C5,208.0,1/125,120,140.0
1992,C#5,208.0,0.25,100,140.0
1993,C#2,208.0,1.0,100,140.0
1994,C#4,208.0,4.0,100,140.0
1995,E-4,208.0,4.0,100,140.0
1996,F4,208.0,4.0,100,140.0
1997,F4,208.0,0.25,127,140.0
1998,F4,208.0,0.125,127,140.0
1999,F4,208.0,0.125,100,140.0
2000,F4,208.0,0.125,100,140.0
2001,C2,208.0,0.5,100,140.0
2002,G#2,208.0,0.5,100,140.0
2003,C5,208.25,0.25,100,140.0
2004,C#4,208.25,0.25,127,140.0
2005,C#5,208.5,1.0,100,140.0
2006,B-5,208.5,0.5,100,140.0
2007,C#3,208.5,0.5,100,140.0
2008,G#3,208.5,0.25,127,140.0
2009,F4,208.5,26/125,127,140.0
2010,F4,208.5,26/125,100,140.0
2011,F4,208.5,26/125,100,140.0
2012,F3,208.75,0.25,127,140.0
2013,C5,209.0,1.0,100,140.0
2014,C#2,209.0,1.0,100,140.0
2015,F4,209.0,0.25,127,140.0
2016,C2,209.0,0.5,100,140.0
2017,G#2,209.0,0.5,100,140.0
2018,C5,209.017,0.5,120,140.0
2019,C#4,209.25,0.25,127,140.0
2020,G#4,209.5,2.5,120,140.0
2021,G#4,209.5,0.5,100,140.0
2022,B-5,209.5,0.5,100,140.0
2023,C#3,209.5,0.5,100,140.0
2024,G#3,209.5,0.25,127,140.0
2025,F3,209.5,0.625,127,140.0
2026,F3,209.5,0.625,100,140.0
2027,F3,209.5,0.625,100,140.0
2028,F3,209.75,0.25,127,140.0
2029,C5,210.0,1.0,100,140.0
2030,C#2,210.0,1.0,100,140.0
2031,F4,210.0,0.25,127,140.0
2032,C2,210.0,0.5,100,140.0
2033,G#2,210.0,0.5,100,140.0
2034,C#4,210.25,0.25,127,140.0
2035,G#4,210.5,0.5,100,140.0
2036,B-5,210.5,0.5,100,140.0
2037,C#3,210.5,0.5,100,140.0
2038,G#3,210.5,0.25,127,140.0
2039,F3,210.5,26/125,127,140.0
2040,F3,210.5,26/125,100,140.0
2041,F3,210.5,26/125,100,140.0
2042,F3,210.75,0.25,127,140.0
2043,C5,211.0,1.0,100,140.0
2044,C#2,211.0,1.0,100,140.0
2045,F4,211.0,0.25,127,140.0
2046,G#2,211.0,0.5,100,140.0
2047,C2,211.0,0.5,100,140.0
2048,C#4,211.25,0.25,127,140.0
2049,G#4,211.5,0.5,100,140.0
2050,B-5,211.5,0.5,100,140.0
2051,C#3,211.5,0.5,100,140.0
2052,G#3,211.5,0.25,127,140.0
2053,F4,211.5,0.5,127,140.0
2054,F4,211.5,0.5,100,140.0
2055,F4,211.5,0.5,100,140.0
2056,F3,211.75,0.25,127,140.0
2057,C5,212.0,1.0,100,140.0
2058,B-1,212.0,1.0,100,140.0
2059,C#4,212.0,4.0,100,140.0
2060,C#4,212.0,4.0,100,140.0
2061,E-4,212.0,1.0,100,140.0
2062,G#4,212.0,4.0,100,140.0
2063,F4,212.0,0.25,127,140.0
2064,F4,212.0,0.125,127,140.0
2065,F4,212.0,0.125,100,140.0
2066,F4,212.0,0.125,100,140.0
2067,C5,212.0,4.0,100,140.0
2068,F4,212.0,4.0,100,140.0
2069,G#5,212.0,4.0,100,140.0
2070,C2,212.0,0.5,100,140.0
2071,G#2,212.0,0.5,100,140.0
2072,C#4,212.25,0.25,127,140.0
2073,B-5,212.5,0.5,100,140.0
2074,B-2,212.5,0.5,100,140.0
2075,B-3,212.5,0.25,127,140.0
2076,F4,212.5,26/125,127,140.0
2077,F4,212.5,26/125,100,140.0
2078,F4,212.5,26/125,100,140.0
2079,G4,212.508,1.5,120,140.0
2080,F3,212.75,0.25,127,140.0
2081,C5,213.0,1.0,100,140.0
2082,B-1,213.0,1.0,100,140.0
2083,F4,213.0,0.25,127,140.0
2084,C2,213.0,0.5,100,140.0
2085,G#2,213.0,0.5,100,140.0
2086,C#4,213.25,0.25,127,140.0
2087,G4,213.5,1.0,100,140.0
2088,B-5,213.5,0.5,100,140.0
2089,B-2,213.5,0.5,100,140.0
2090,B-3,213.5,0.25,127,140.0
2091,F3,213.5,0.625,127,140.0
2092,F3,213.5,0.625,100,140.0
2093,F3,213.5,0.625,100,140.0
2094,F3,213.75,0.25,127,140.0
2095,G#4,214.0,1.0,120,140.0
2096,B-1,214.0,1.0,100,140.0
2097,F4,214.0,0.25,127,140.0
2098,C2,214.0,0.5,100,140.0
2099,G#2,214.0,0.5,100,140.0
2100,C#4,214.25,0.25,127,140.0
2101,B-5,214.5,0.5,100,140.0
2102,B-2,214.5,0.5,100,140.0
2103,B-3,214.5,0.25,127,140.0
2104,F3,214.5,26/125,127,140.0
2105,F3,214.5,26/125,100,140.0
2106,F3,214.5,26/125,100,140.0
2107,F3,214.75,0.25,127,140.0
2108,C5,214.942,0.5,120,140.0
2109,C5,215.0,1.0,100,140.0
2110,G#4,215.0,0.5,100,140.0
2111,B-1,215.0,1.0,100,140.0
2112,E-4,215.0,0.25,127,140.0
2113,G#2,215.0,0.5,100,140.0
2114,C2,215.0,0.5,100,140.0
2115,C#4,215.25,0.25,127,140.0
2116,F4,215.475,21/40,120,140.0
2117,F4,215.5,0.5,100,140.0
2118,B-5,215.5,0.5,100,140.0
2119,B-2,215.5,0.5,100,140.0
2120,B-3,215.5,0.25,127,140.0
2121,F4,215.5,0.5,127,140.0
2122,F4,215.5,0.5,100,140.0
2123,F4,215.5,0.5,100,140.0
2124,F3,215.75,0.25,127,140.0
2125,F4,216.0,4.0,120,140.0
2126,C5,216.0,1.0,100,140.0
2127,F1,216.0,1.0,100,140.0
2128,C4,216.0,4.0,100,140.0
2129,G4,216.0,4.0,100,140.0
2130,C#4,216.0,4.0,100,140.0
2131,C#4,216.0,0.25,127,140.0
2132,F4,216.0,0.125,127,140.0
2133,F4,216.0,0.125,100,140.0
2134,F4,216.0,0.125,100,140.0
2135,G#4,216.0,4.0,100,140.0
2136,F5,216.0,4.0,100,140.0
2137,G#2,216.0,0.5,100,140.0
2138,C2,216.0,0.5,100,140.0
2139,C4,216.25,0.25,127,140.0
2140,F4,216.5,0.5,100,140.0
2141,B-5,216.5,0.5,100,140.0
2142,F2,216.5,0.5,100,140.0
2143,G#3,216.5,0.25,127,140.0
2144,F4,216.5,26/125,127,140.0
2145,F4,216.5,26/125,100,140.0
2146,F4,216.5,26/125,100,140.0
2147,F3,216.75,0.25,127,140.0
2148,C5,217.0,1.0,100,140.0
2149,F1,217.0,1.0,100,140.0
2150,C#4,217.0,0.25,127,140.0
2151,C2,217.0,0.5,100,140.0
2152,G#2,217.0,0.5,100,140.0
2153,C4,217.25,0.25,127,140.0
2154,F4,217.5,0.5,100,140.0
2155,B-5,217.5,0.5,100,140.0
2156,F2,217.5,0.5,100,140.0
2157,G#3,217.5,0.25,127,140.0
2158,F3,217.5,0.625,127,140.0
2159,F3,217.5,0.625,100,140.0
2160,F3,217.5,0.625,100,140.0
2161,F3,217.75,0.25,127,140.0
2162,C5,218.0,1.0,100,140.0
2163,F1,218.0,1.0,100,140.0
2164,C#4,218.0,0.25,127,140.0
2165,C2,218.0,0.5,100,140.0
2166,G#2,218.0,0.5,100,140.0
2167,C4,218.25,0.25,127,140.0
2168,F4,218.5,0.5,100,140.0
2169,B-5,218.5,0.5,100,140.0
2170,F2,218.5,0.5,100,140.0
2171,G#3,218.5,0.25,127,140.0
2172,F3,218.5,26/125,127,140.0
2173,F3,218.5,26/125,100,140.0
2174,F3,218.5,26/125,100,140.0
2175,F3,218.75,0.25,127,140.0
2176,C5,219.0,1.0,100,140.0
2177,F1,219.0,1.0,100,140.0
2178,C#4,219.0,0.25,127,140.0
2179,G#2,219.0,0.5,100,140.0
2180,C2,219.0,0.5,100,140.0
2181,C4,219.25,0.25,127,140.0
2182,F4,219.5,0.5,100,140.0
2183,B-5,219.5,0.5,100,140.0
2184,F2,219.5,0.5,100,140.0
2185,G#3,219.5,0.25,127,140.0
2186,F4,219.5,0.25,127,140.0
2187,F4,219.5,0.25,100,140.0
2188,F3,219.75,0.25,127,140.0
2189,F4,219.75,0.25,127,140.0
2190,F4,219.75,0.25,100,140.0
2191,F4,220.0,79/40,120,140.0
2192,F1,220.0,4.0,100,140.0
2193,F4,220.0,4.0,100,140.0
2194,G#4,220.0,4.0,100,140.0
2195,C4,220.0,4.0,100,140.0
2196,F2,220.0,4.0,100,140.0
2197,F4,220.0,0.125,127,140.0
2198,F4,220.0,4.0,127,140.0
2199,F4,220.0,0.125,100,140.0
2200,A3,220.0,1.0,100,140.0
2201,C#3,220.0,1.0,100,140.0
2202,C2,220.0,1.0,100,140.0
2203,F4,220.25,0.125,127,140.0
2204,F4,220.25,0.125,100,140.0
2205,F4,220.5,0.125,127,140.0
2206,F4,220.5,0.125,100,140.0
2207,F4,220.75,0.125,127,140.0
2208,F4,220.75,0.125,100,140.0
2209,F4,221.0,0.125,127,140.0
2210,F4,221.0,0.125,100,140.0
2211,F4,221.25,0.125,127,140.0
2212,F4,221.25,0.125,100,140.0
2213,F4,221.5,0.125,127,140.0
2214,F4,221.5,0.125,100,140.0
2215,F4,221.75,0.125,127,140.0
2216,F4,221.75,0.125,100,140.0
2217,F4,222.0,0.125,127,140.0
2218,F4,222.0,0.125,100,140.0
2219,F4,222.25,0.125,127,140.0
2220,F4,222.25,0.125,100,140.0
2221,F4,222.5,0.125,127,140.0
2222,F4,222.5,0.125,100,140.0
2223,F4,222.75,0.125,127,140.0
2224,F4,222.75,0.125,100,140.0
2225,F4,223.0,0.125,127,140.0
2226,G#4,223.0,0.25,127,140.0
2227,G#4,223.0,0.125,100,140.0
2228,F4,223.25,0.125,127,140.0
2229,G4,223.25,0.25,127,140.0
2230,G4,223.25,0.125,100,140.0
2231,F4,223.5,0.125,127,140.0
2232,E-4,223.5,0.25,127,140.0
2233,E-4,223.5,0.125,100,140.0
2234,F4,223.75,0.125,127,140.0
2235,C4,223.75,0.25,127,140.0
2236,C4,223.75,0.125,100,140.0
2237,F1,224.0,1.0,100,140.0
2238,E-5,224.0,4.0,100,140.0
2239,C4,224.0,4.0,100,140.0
2240,B3,224.0,1.0,100,140.0
2241,E3,224.0,1.0,100,140.0
2242,C2,224.0,0.5,100,140.0
2243,F4,224.0,0.125,127,140.0
2244,G#4,224.0,0.25,127,140.0
2245,G#4,224.0,4.0,100,140.0
2246,F5,224.0,4.0,100,140.0
2247,F3,224.0,4.0,100,140.0
2248,F4,224.0,4.0,100,140.0
2249,F4,224.25,0.125,127,140.0
2250,G4,224.25,0.25,127,140.0
2251,F2,224.5,0.5,100,140.0
2252,F4,224.5,0.125,127,140.0
2253,E-4,224.5,0.25,127,140.0
2254,F4,224.75,0.125,127,140.0
2255,C4,224.75,0.25,127,140.0
2256,F1,225.0,1.0,100,140.0
2257,B2,225.0,4.0,100,140.0
2258,B3,225.0,3.0,100,140.0
2259,E3,225.0,5.0,100,140.0
2260,C2,225.0,0.5,100,140.0
2261,F4,225.0,0.125,127,140.0
2262,G#4,225.0,0.25,127,140.0
2263,A6,225.0,3.0,100,140.0
2264,B6,225.0,3.0,100,140.0
2265,C7,225.0,3.0,100,140.0
2266,F4,225.25,0.125,127,140.0
2267,G4,225.25,0.25,127,140.0
2268,F2,225.5,0.5,100,140.0
2269,F4,225.5,0.125,127,140.0
2270,E-4,225.5,0.25,127,140.0
2271,F4,225.75,0.125,127,140.0
2272,C4,225.75,0.25,127,140.0
2273,F1,226.0,1.0,100,140.0
2274,G2,226.0,3.0,100,140.0
2275,C2,226.0,0.5,100,140.0
2276,F4,226.0,0.125,127,140.0
2277,G#4,226.0,0.25,127,140.0
2278,F4,226.25,0.125,127,140.0
2279,G4,226.25,0.25,127,140.0
2280,F2,226.5,0.5,100,140.0
2281,F4,226.5,0.125,127,140.0
2282,E-4,226.5,0.25,127,140.0
2283,F4,226.75,0.125,127,140.0
2284,C4,226.75,0.25,127,140.0
2285,F1,227.0,1.0,100,140.0
2286,E2,227.0,2.0,100,140.0
2287,C2,227.0,0.5,100,140.0
2288,F4,227.0,0.125,127,140.0
2289,G#4,227.0,0.25,127,140.0
2290,F4,227.25,0.125,127,140.0
2291,G4,227.25,0.25,127,140.0
2292,F2,227.5,0.5,100,140.0
2293,F4,227.5,0.125,127,140.0
2294,E-4,227.5,0.25,127,140.0
2295,F4,227.75,0.125,127,140.0
2296,C4,227.75,0.25,127,140.0
2297,F1,228.0,1.0,100,140.0
2298,G4,228.0,4.0,100,140.0
2299,E-5,228.0,4.0,100,140.0
2300,C5,228.0,4.0,100,140.0
2301,C4,228.0,4.0,100,140.0
2302,B1,228.0,1.0,100,140.0
2303,C2,228.0,0.5,100,140.0
2304,G#4,228.0,0.25,127,140.0
2305,F3,228.0,4.0,100,140.0
2306,F4,228.0,4.0,100,140.0
2307,A6,228.0,4.0,100,140.0
2308,B6,228.0,4.0,100,140.0
2309,C7,228.0,4.0,100,140.0
2310,G4,228.25,0.25,127,140.0
2311,F2,228.5,0.5,100,140.0
2312,E-4,228.5,0.25,127,140.0
2313,C4,228.75,0.25,127,140.0
2314,F1,229.0,1.0,100,140.0
2315,C2,229.0,0.5,100,140.0
2316,G#4,229.0,0.25,127,140.0
2317,G4,229.25,0.25,127,140.0
2318,F2,229.5,0.5,100,140.0
2319,E-4,229.5,0.25,127,140.0
2320,C4,229.75,0.25,127,140.0
2321,F1,230.0,1.0,100,140.0
2322,G1,230.0,4.0,100,140.0
2323,B2,230.0,3.0,100,140.0
2324,G2,230.0,2.0,100,140.0
2325,E2,230.0,5.0,100,140.0
2326,B1,230.0,6.0,100,140.0
2327,C2,230.0,0.5,100,140.0
2328,G#4,230.0,0.25,127,140.0
2329,G4,230.25,0.25,127,140.0
2330,F2,230.5,0.5,100,140.0
2331,E-4,230.5,0.25,127,140.0
2332,C4,230.75,0.25,127,140.0
2333,F1,231.0,1.0,100,140.0
2334,D1,231.0,3.0,100,140.0
2335,C2,231.0,0.5,100,140.0
2336,G#4,231.0,0.25,127,140.0
2337,G4,231.25,0.25,127,140.0
2338,F2,231.5,0.5,100,140.0
2339,E-4,231.5,0.25,127,140.0
2340,C4,231.75,0.25,127,140.0
2341,F1,232.0,1.0,100,140.0
2342,E-5,232.0,4.0,100,140.0
2343,C5,232.0,4.0,100,140.0
2344,C4,232.0,4.0,100,140.0
2345,G0,232.0,2.0,100,140.0
2346,C2,232.0,0.5,100,140.0
2347,E-4,232.0,4.0,100,140.0
2348,G#4,232.0,4.0,100,140.0
2349,F3,232.0,4.0,100,140.0
2350,F4,232.0,4.0,100,140.0
2351,F2,232.5,0.5,100,140.0
2352,F1,233.0,1.0,100,140.0
2353,C2,233.0,0.5,100,140.0
2354,F2,233.5,0.5,100,140.0
2355,F1,234.0,1.0,100,140.0
2356,C2,234.0,0.5,100,140.0
2357,F2,234.5,0.5,100,140.0
2358,F1,235.0,1.0,100,140.0
2359,C2,235.0,0.5,100,140.0
2360,F2,235.5,0.5,100,140.0
2361,F1,236.0,1.0,100,140.0
2362,E-4,236.0,4.0,100,140.0
2363,C0,236.0,4.0,100,140.0
2364,G1,236.0,4.0,100,140.0
2365,D1,236.0,4.0,100,140.0
2366,G0,236.0,4.0,100,140.0
2367,C2,236.0,0.5,100,140.0
2368,G#4,236.0,4.0,100,140.0
2369,C#5,236.0,4.0,100,140.0
2370,F5,236.0,4.0,100,140.0
2371,F2,236.5,0.5,100,140.0
2372,F1,237.0,1.0,100,140.0
2373,C2,237.0,0.5,100,140.0
2374,F2,237.5,0.5,100,140.0
2375,F1,238.0,1.0,100,140.0
2376,C2,238.0,0.5,100,140.0
2377,F2,238.5,0.5,100,140.0
2378,F1,239.0,1.0,100,140.0
2379,C2,239.0,0.5,100,140.0
2380,F4,239.0,0.25,127,140.0
2381,F4,239.0,0.25,100,140.0
2382,G4,239.25,0.25,127,140.0
2383,G4,239.25,0.25,100,140.0
2384,F2,239.5,0.5,100,140.0
2385,G#4,239.5,0.25,127,140.0
2386,G#4,239.5,0.25,100,140.0
2387,C5,239.75,0.25,127,140.0
2388,C5,239.75,0.25,100,140.0
2389,F1,240.0,1.0,100,140.0
2390,C5,240.0,4.0,100,140.0
2391,E-4,240.0,4.0,100,140.0
2392,C0,240.0,4.0,100,140.0
2393,D1,240.0,1.0,100,140.0
2394,G0,240.0,2.0,100,140.0
2395,F5,240.0,0.5,127,140.0
2396,F5,240.0,0.75,100,140.0
2397,G4,240.0,4.0,100,140.0
2398,G5,240.0,4.0,100,140.0
2399,C2,240.0,0.5,100,140.0
2400,G#2,240.0,0.5,100,140.0
2401,F2,240.5,0.5,100,140.0
2402,F1,241.0,1.0,100,140.0
2403,F5,241.0,0.75,100,140.0
2404,G#2,241.0,0.5,100,140.0
2405,C2,241.0,0.5,100,140.0
2406,A6,241.0,4.0,100,140.0
2407,B6,241.0,4.0,100,140.0
2408,C7,241.0,4.0,100,140.0
2409,F2,241.5,0.5,100,140.0
2410,F1,242.0,1.0,100,140.0
2411,F5,242.0,0.75,100,140.0
2412,G#2,242.0,0.5,100,140.0
2413,C2,242.0,0.5,100,140.0
2414,F2,242.5,0.5,100,140.0
2415,F1,243.0,1.0,100,140.0
2416,F5,243.0,0.75,100,140.0
2417,G#2,243.0,0.5,100,140.0
2418,C2,243.0,0.5,100,140.0
2419,F2,243.5,0.5,100,140.0
2420,F1,244.0,1.0,100,140.0
2421,F4,244.0,4.0,100,140.0
2422,G#5,244.0,4.0,100,140.0
2423,C5,244.0,8.0,100,140.0
2424,C0,244.0,4.0,100,140.0
2425,E-5,244.0,0.5,127,140.0
2426,E-5,244.0,0.5,100,140.0
2427,C2,244.0,0.5,100,140.0
2428,G#2,244.0,0.5,100,140.0
2429,F2,244.5,0.5,100,140.0
2430,B-4,244.5,0.5,127,140.0
2431,B-4,244.5,0.5,100,140.0
2432,F1,245.0,1.0,100,140.0
2433,C2,245.0,0.5,100,140.0
2434,G#2,245.0,0.5,100,140.0
2435,F2,245.5,0.5,100,140.0
2436,C#5,245.5,0.5,127,140.0
2437,B-4,245.5,0.5,100,140.0
2438,C#5,245.5,0.5,100,140.0
2439,F1,246.0,1.0,100,140.0
2440,C2,246.0,0.5,100,140.0
2441,G#2,246.0,0.5,100,140.0
2442,F2,246.5,0.5,100,140.0
2443,G#4,246.5,0.5,127,140.0
2444,B-4,246.5,0.5,100,140.0
2445,G#4,246.5,0.5,100,140.0
2446,F1,247.0,1.0,100,140.0
2447,C2,247.0,0.5,100,140.0
2448,G#2,247.0,0.5,100,140.0
2449,F2,247.5,0.5,100,140.0
2450,C#5,247.5,0.5,127,140.0
2451,G#4,247.5,0.5,100,140.0
2452,C#5,247.5,0.5,100,140.0
2453,F1,248.0,1.0,100,140.0
2454,C5,248.0,0.5,127,140.0
2455,C5,248.0,0.75,100,140.0
2456,C2,248.0,0.5,100,140.0
2457,G#2,248.0,0.5,100,140.0
2458,F2,248.5,0.5,100,140.0
2459,G#4,248.5,0.5,100,140.0
2460,F1,249.0,1.0,100,140.0
2461,G#2,249.0,0.5,100,140.0
2462,C2,249.0,0.5,100,140.0
2463,F2,249.5,0.5,100,140.0
2464,G#4,249.5,0.5,100,140.0
2465,F1,250.0,1.0,100,140.0
2466,G#2,250.0,0.5,100,140.0
2467,C2,250.0,0.5,100,140.0
2468,A6,250.0,4.0,100,140.0
2469,B6,250.0,4.0,100,140.0
2470,C7,250.0,4.0,100,140.0
2471,F2,250.5,0.5,100,140.0
2472,G#4,250.5,0.5,100,140.0
2473,F1,251.0,1.0,100,140.0
2474,G#2,251.0,0.5,100,140.0
2475,C2,251.0,0.5,100,140.0
2476,F2,251.5,0.5,100,140.0
2477,G#4,251.5,0.5,100,140.0
2478,F1,252.0,1.0,100,140.0
2479,F4,252.0,4.0,100,140.0
2480,G#5,252.0,0.5,100,140.0
2481,C2,252.0,0.5,100,140.0
2482,G#2,252.0,0.5,100,140.0
2483,F2,252.5,0.5,100,140.0
2484,G#4,252.5,0.5,100,140.0
2485,F1,253.0,1.0,100,140.0
2486,G#2,253.0,0.5,100,140.0
2487,C2,253.0,0.5,100,140.0
2488,F2,253.5,0.5,100,140.0
2489,G#4,253.5,0.5,100,140.0
2490,F1,254.0,1.0,100,140.0
2491,G#2,254.0,0.5,100,140.0
2492,C2,254.0,0.5,100,140.0
2493,F2,254.5,0.5,100,140.0
2494,G#4,254.5,0.5,100,140.0
2495,F1,255.0,1.0,100,140.0
2496,F4,255.0,0.25,127,140.0
2497,F4,255.0,0.25,100,140.0
2498,G#2,255.0,0.5,100,140.0
2499,C2,255.0,0.5,100,140.0
2500,A6,255.0,1.0,100,140.0
2501,B6,255.0,1.0,100,140.0
2502,C7,255.0,1.0,100,140.0
2503,G4,255.25,0.25,127,140.0
2504,G4,255.25,0.25,100,140.0
2505,F2,255.5,0.5,100,140.0
2506,G#4,255.5,0.25,127,140.0
2507,G#4,255.5,0.25,100,140.0
2508,C5,255.75,0.25,127,140.0
2509,C5,255.75,0.25,100,140.0
2510,F1,256.0,1.0,100,140.0
2511,F4,256.0,4.0,100,140.0
2512,F5,256.0,0.5,127,140.0
2513,F5,256.0,0.75,100,140.0
2514,G#2,256.0,0.5,100,140.0
2515,C2,256.0,0.5,100,140.0
2516,F2,256.5,0.5,100,140.0
2517,F1,257.0,1.0,100,140.0
2518,F5,257.0,0.75,100,140.0
2519,C2,257.0,0.5,100,140.0
2520,G#2,257.0,0.5,100,140.0
2521,F2,257.5,0.5,100,140.0
2522,F1,258.0,1.0,100,140.0
2523,F5,258.0,0.75,100,140.0
2524,G#2,258.0,0.5,100,140.0
2525,C2,258.0,0.5,100,140.0
2526,F2,258.5,0.5,100,140.0
2527,F1,259.0,1.0,100,140.0
2528,F5,259.0,0.75,100,140.0
2529,C2,259.0,0.5,100,140.0
2530,G#2,259.0,0.5,100,140.0
2531,F2,259.5,0.5,100,140.0
2532,F1,260.0,1.0,100,140.0
2533,F4,260.0,4.0,100,140.0
2534,E-5,260.0,0.5,127,140.0
2535,E-5,260.0,0.5,100,140.0
2536,C2,260.0,0.5,100,140.0
2537,G#2,260.0,0.5,100,140.0
2538,F2,260.5,0.5,100,140.0
2539,B-4,260.5,0.5,127,140.0
2540,B-4,260.5,0.5,100,140.0
2541,F1,261.0,1.0,100,140.0
2542,G#2,261.0,0.5,100,140.0
2543,C2,261.0,0.5,100,140.0
2544,F2,261.5,0.5,100,140.0
2545,C#5,261.5,0.5,127,140.0
2546,B-4,261.5,0.5,100,140.0
2547,C#5,261.5,0.5,100,140.0
2548,F1,262.0,1.0,100,140.0
2549,C2,262.0,0.5,100,140.0
2550,G#2,262.0,0.5,100,140.0
2551,F2,262.5,0.5,100,140.0
2552,C5,262.5,0.5,127,140.0
2553,B-4,262.5,0.5,100,140.0
2554,C5,262.5,0.5,100,140.0
2555,F1,263.0,1.0,100,140.0
2556,G#2,263.0,0.5,100,140.0
2557,C2,263.0,0.5,100,140.0
2558,F2,263.5,0.5,100,140.0
2559,G#4,263.5,0.5,127,140.0
2560,C5,263.5,0.5,100,140.0
2561,G#4,263.5,0.5,100,140.0
2562,F1,264.0,1.0,100,140.0
2563,F4,264.0,0.5,127,140.0
2564,F4,264.0,0.75,100,140.0
2565,G#2,264.0,0.5,100,140.0
2566,C2,264.0,0.5,100,140.0
2567,F2,264.5,0.5,100,140.0
2568,C5,264.5,0.5,100,140.0
2569,F1,265.0,1.0,100,140.0
2570,C2,265.0,0.5,100,140.0
2571,G#2,265.0,0.5,100,140.0
2572,F2,265.5,0.5,100,140.0
2573,C5,265.5,0.5,100,140.0
2574,F1,266.0,1.0,100,140.0
2575,G#2,266.0,0.5,100,140.0
2576,C2,266.0,0.5,100,140.0
2577,F2,266.5,0.5,100,140.0
2578,C5,266.5,0.5,100,140.0
2579,F1,267.0,1.0,100,140.0
2580,G#2,267.0,0.5,100,140.0
2581,C2,267.0,0.5,100,140.0
2582,F2,267.5,0.5,100,140.0
2583,C5,267.5,0.5,100,140.0
2584,F1,268.0,1.0,100,140.0
2585,C2,268.0,0.5,100,140.0
2586,G#2,268.0,0.5,100,140.0
2587,F2,268.5,0.5,100,140.0
2588,C5,268.5,0.5,100,140.0
2589,F1,269.0,1.0,100,140.0
2590,C2,269.0,0.5,100,140.0
2591,G#2,269.0,0.5,100,140.0
2592,F2,269.5,0.5,100,140.0
2593,C5,269.5,0.5,100,140.0
2594,F1,270.0,1.0,100,140.0
2595,C2,270.0,0.5,100,140.0
2596,G#2,270.0,0.5,100,140.0
2597,F2,270.5,0.5,100,140.0
2598,C5,270.5,0.5,100,140.0
2599,F3,271.0,0.25,120,140.0
2600,F1,271.0,1.0,100,140.0
2601,F4,271.0,0.25,100,140.0
2602,F4,271.0,0.25,127,140.0
2603,F4,271.0,0.25,100,140.0
2604,C2,271.0,0.5,100,140.0
2605,G#2,271.0,0.5,100,140.0
2606,G3,271.25,0.25,120,140.0
2607,G4,271.25,0.25,100,140.0
2608,G4,271.25,0.25,127,140.0
2609,G4,271.25,0.25,100,140.0
2610,G#3,271.5,0.25,120,140.0
2611,G#4,271.5,0.25,100,140.0
2612,F2,271.5,0.5,100,140.0
2613,G#4,271.5,0.25,127,140.0
2614,G#4,271.5,0.25,100,140.0
2615,C4,271.75,0.25,120,140.0
2616,C5,271.75,0.25,100,140.0
2617,C5,271.75,0.25,127,140.0
2618,C5,271.75,0.25,100,140.0
2619,F4,272.0,0.5,120,140.0
2620,F3,272.0,0.25,100,140.0
2621,F1,272.0,1.0,100,140.0
2622,F5,272.0,0.75,100,140.0
2623,F4,272.0,0.25,100,140.0
2624,F5,272.0,0.5,127,140.0
2625,F5,272.0,0.75,100,140.0
2626,C2,272.0,0.5,100,140.0
2627,G#2,272.0,0.5,100,140.0
2628,G3,272.25,0.25,100,140.0
2629,G4,272.25,0.25,100,140.0
2630,G#3,272.5,0.25,100,140.0
2631,G#4,272.5,0.25,100,140.0
2632,B-5,272.5,0.5,100,140.0
2633,F2,272.5,0.5,100,140.0
2634,C4,272.75,0.25,100,140.0
2635,C5,272.75,0.25,100,140.0
2636,F4,273.0,0.5,100,140.0
2637,F3,273.0,0.25,100,140.0
2638,F1,273.0,1.0,100,140.0
2639,F4,273.0,0.25,100,140.0
2640,F5,273.0,0.75,100,140.0
2641,G#2,273.0,0.5,100,140.0
2642,C2,273.0,0.5,100,140.0
2643,G3,273.25,0.25,100,140.0
2644,G4,273.25,0.25,100,140.0
2645,G#3,273.5,0.25,100,140.0
2646,G#4,273.5,0.25,100,140.0
2647,B-5,273.5,0.5,100,140.0
2648,F2,273.5,0.5,100,140.0
2649,C4,273.75,0.25,100,140.0
2650,C5,273.75,0.25,100,140.0
2651,F4,274.0,0.5,100,140.0
2652,F3,274.0,0.25,100,140.0
2653,F1,274.0,1.0,100,140.0
2654,F4,274.0,0.25,100,140.0
2655,F5,274.0,0.75,100,140.0
2656,G#2,274.0,0.5,100,140.0
2657,C2,274.0,0.5,100,140.0
2658,G3,274.25,0.25,100,140.0
2659,G4,274.25,0.25,100,140.0
2660,G#3,274.5,0.25,100,140.0
2661,G#4,274.5,0.25,100,140.0
2662,B-5,274.5,0.5,100,140.0
2663,F2,274.5,0.5,100,140.0
2664,C4,274.75,0.25,100,140.0
2665,C5,274.75,0.25,100,140.0
2666,F4,275.0,0.5,100,140.0
2667,F3,275.0,0.25,100,140.0
2668,F1,275.0,1.0,100,140.0
2669,F4,275.0,0.25,100,140.0
2670,F5,275.0,0.75,100,140.0
2671,G#2,275.0,0.5,100,140.0
2672,C2,275.0,0.5,100,140.0
2673,G3,275.25,0.25,100,140.0
2674,G4,275.25,0.25,100,140.0
2675,G#3,275.5,0.25,100,140.0
2676,G#4,275.5,0.25,100,140.0
2677,B-5,275.5,0.5,100,140.0
2678,F2,275.5,0.5,100,140.0
2679,C4,275.75,0.25,100,140.0
2680,C5,275.75,0.25,100,140.0
2681,E-4,276.0,0.5,120,140.0
2682,F4,276.0,0.5,100,140.0
2683,F1,276.0,1.0,100,140.0
2684,E-5,276.0,0.5,100,140.0
2685,E-5,276.0,0.5,127,140.0
2686,E-5,276.0,0.5,100,140.0
2687,G#2,276.0,0.5,100,140.0
2688,C2,276.0,0.5,100,140.0
2689,B-3,276.5,0.5,120,140.0
2690,B-4,276.5,0.5,100,140.0
2691,B-5,276.5,0.5,100,140.0
2692,F2,276.5,0.5,100,140.0
2693,B-4,276.5,0.5,127,140.0
2694,B-4,276.5,0.5,100,140.0
2695,E-4,277.0,0.5,100,140.0
2696,F1,277.0,1.0,100,140.0
2697,E-5,277.0,0.5,100,140.0
2698,C2,277.0,0.5,100,140.0
2699,G#2,277.0,0.5,100,140.0
2700,C#4,277.5,0.5,120,140.0
2701,B-3,277.5,0.5,100,140.0
2702,C#5,277.5,0.5,100,140.0
2703,B-5,277.5,0.5,100,140.0
2704,F2,277.5,0.5,100,140.0
2705,C#5,277.5,0.5,127,140.0
2706,B-4,277.5,0.5,100,140.0
2707,C#5,277.5,0.5,100,140.0
2708,E-4,278.0,0.5,100,140.0
2709,F1,278.0,1.0,100,140.0
2710,E-5,278.0,0.5,100,140.0
2711,G#2,278.0,0.5,100,140.0
2712,C2,278.0,0.5,100,140.0
2713,G#3,278.5,0.5,120,140.0
2714,C#4,278.5,0.5,100,140.0
2715,B-3,278.5,0.5,100,140.0
2716,G#4,278.5,0.5,100,140.0
2717,B-5,278.5,0.5,100,140.0
2718,F2,278.5,0.5,100,140.0
2719,G#4,278.5,0.5,127,140.0
2720,B-4,278.5,0.5,100,140.0
2721,G#4,278.5,0.5,100,140.0
2722,F1,279.0,1.0,100,140.0
2723,E-5,279.0,0.5,100,140.0
2724,G#2,279.0,0.5,100,140.0
2725,C2,279.0,0.5,100,140.0
2726,C#4,279.5,0.5,120,140.0
2727,G#3,279.5,0.5,100,140.0
2728,C#4,279.5,0.5,100,140.0
2729,C#5,279.5,0.5,100,140.0
2730,B-5,279.5,0.5,100,140.0
2731,F2,279.5,0.5,100,140.0
2732,C#5,279.5,0.5,127,140.0
2733,G#4,279.5,0.5,100,140.0
2734,C#5,279.5,0.5,100,140.0
2735,C4,280.0,0.5,120,140.0
2736,F1,280.0,1.0,100,140.0
2737,C5,280.0,0.75,100,140.0
2738,C5,280.0,0.5,127,140.0
2739,C5,280.0,0.75,100,140.0
2740,C2,280.0,0.5,100,140.0
2741,G#2,280.0,0.5,100,140.0
2742,C#4,280.5,0.5,100,140.0
2743,G#3,280.5,0.5,100,140.0
2744,C#5,280.5,0.5,100,140.0
2745,B-5,280.5,0.5,100,140.0
2746,F2,280.5,0.5,100,140.0
2747,G#4,280.5,0.5,100,140.0
2748,C4,281.0,0.5,100,140.0
2749,F1,281.0,1.0,100,140.0
2750,C5,281.0,0.75,100,140.0
2751,C2,281.0,0.5,100,140.0
2752,G#2,281.0,0.5,100,140.0
2753,C#4,281.5,0.5,100,140.0
2754,C#5,281.5,0.5,100,140.0
2755,B-5,281.5,0.5,100,140.0
2756,F2,281.5,0.5,100,140.0
2757,G#4,281.5,0.5,100,140.0
2758,C4,282.0,0.5,100,140.0
2759,F1,282.0,1.0,100,140.0
2760,C5,282.0,0.75,100,140.0
2761,C2,282.0,0.5,100,140.0
2762,G#2,282.0,0.5,100,140.0
2763,C#4,282.5,0.5,100,140.0
2764,C#5,282.5,0.5,100,140.0
2765,B-5,282.5,0.5,100,140.0
2766,F2,282.5,0.5,100,140.0
2767,G#4,282.5,0.5,100,140.0
2768,C4,283.0,0.5,100,140.0
2769,F1,283.0,1.0,100,140.0
2770,C5,283.0,0.75,100,140.0
2771,G#2,283.0,0.5,100,140.0
2772,C2,283.0,0.5,100,140.0
2773,C#4,283.5,0.5,100,140.0
2774,C#5,283.5,0.5,100,140.0
2775,B-5,283.5,0.5,100,140.0
2776,F2,283.5,0.5,100,140.0
2777,G#4,283.5,0.5,100,140.0
2778,C4,284.0,0.5,100,140.0
2779,F1,284.0,1.0,100,140.0
2780,C5,284.0,0.75,100,140.0
2781,G#2,284.0,0.5,100,140.0
2782,C2,284.0,0.5,100,140.0
2783,C#4,284.5,0.5,100,140.0
2784,C#5,284.5,0.5,100,140.0
2785,B-5,284.5,0.5,100,140.0
2786,F2,284.5,0.5,100,140.0
2787,G#4,284.5,0.5,100,140.0
2788,C4,285.0,0.5,100,140.0
2789,F1,285.0,1.0,100,140.0
2790,C5,285.0,0.75,100,140.0
2791,C2,285.0,0.5,100,140.0
2792,G#2,285.0,0.5,100,140.0
2793,C#4,285.5,0.5,100,140.0
2794,C#5,285.5,0.5,100,140.0
2795,B-5,285.5,0.5,100,140.0
2796,F2,285.5,0.5,100,140.0
2797,G#4,285.5,0.5,100,140.0
2798,C4,286.0,0.5,100,140.0
2799,F1,286.0,1.0,100,140.0
2800,C5,286.0,0.75,100,140.0
2801,C2,286.0,0.5,100,140.0
2802,G#2,286.0,0.5,100,140.0
2803,C#4,286.5,0.5,100,140.0
2804,C#5,286.5,0.5,100,140.0
2805,B-5,286.5,0.5,100,140.0
2806,F2,286.5,0.5,100,140.0
2807,G#4,286.5,0.5,100,140.0
2808,F3,287.0,0.25,120,140.0
2809,C4,287.0,0.5,100,140.0
2810,F1,287.0,1.0,100,140.0
2811,F4,287.0,0.25,100,140.0
2812,F4,287.0,0.25,127,140.0
2813,F4,287.0,0.25,100,140.0
2814,C2,287.0,0.5,100,140.0
2815,G#2,287.0,0.5,100,140.0
2816,G3,287.25,0.25,120,140.0
2817,G4,287.25,0.25,100,140.0
2818,G4,287.25,0.25,127,140.0
2819,G4,287.25,0.25,100,140.0
2820,G#3,287.5,0.25,120,140.0
2821,C#4,287.5,0.5,100,140.0
2822,G#4,287.5,0.25,100,140.0
2823,B-5,287.5,0.5,100,140.0
2824,F2,287.5,0.5,100,140.0
2825,G#4,287.5,0.25,127,140.0
2826,G#4,287.5,0.25,100,140.0
2827,C4,287.75,0.25,120,140.0
2828,C5,287.75,0.25,100,140.0
2829,C5,287.75,0.25,127,140.0
2830,C5,287.75,0.25,100,140.0
2831,F4,288.0,0.5,120,140.0
2832,F3,288.0,0.25,100,140.0
2833,C4,288.0,0.5,100,140.0
2834,F1,288.0,1.0,100,140.0
2835,F5,288.0,0.75,100,140.0
2836,F4,288.0,0.25,100,140.0
2837,F5,288.0,0.5,127,140.0
2838,F5,288.0,0.75,100,140.0
2839,C2,288.0,0.5,100,140.0
2840,G#2,288.0,0.5,100,140.0
2841,G3,288.25,0.25,100,140.0
2842,G4,288.25,0.25,100,140.0
2843,G#3,288.5,0.25,100,140.0
2844,G#4,288.5,0.25,100,140.0
2845,B-5,288.5,0.5,100,140.0
2846,F2,288.5,0.5,100,140.0
2847,C4,288.75,0.25,100,140.0
2848,C5,288.75,0.25,100,140.0
2849,F4,289.0,0.5,100,140.0
2850,F3,289.0,0.25,100,140.0
2851,F1,289.0,1.0,100,140.0
2852,F4,289.0,0.25,100,140.0
2853,F5,289.0,0.75,100,140.0
2854,C2,289.0,0.5,100,140.0
2855,G#2,289.0,0.5,100,140.0
2856,G3,289.25,0.25,100,140.0
2857,G4,289.25,0.25,100,140.0
2858,G#3,289.5,0.25,100,140.0
2859,G#4,289.5,0.25,100,140.0
2860,B-5,289.5,0.5,100,140.0
2861,F2,289.5,0.5,100,140.0
2862,C4,289.75,0.25,100,140.0
2863,C5,289.75,0.25,100,140.0
2864,F4,290.0,0.5,100,140.0
2865,F3,290.0,0.25,100,140.0
2866,F1,290.0,1.0,100,140.0
2867,F4,290.0,0.25,100,140.0
2868,F5,290.0,0.75,100,140.0
2869,G#2,290.0,0.5,100,140.0
2870,C2,290.0,0.5,100,140.0
2871,G3,290.25,0.25,100,140.0
2872,G4,290.25,0.25,100,140.0
2873,G#3,290.5,0.25,100,140.0
2874,G#4,290.5,0.25,100,140.0
2875,B-5,290.5,0.5,100,140.0
2876,F2,290.5,0.5,100,140.0
2877,C4,290.75,0.25,100,140.0
2878,C5,290.75,0.25,100,140.0
2879,F4,291.0,0.5,100,140.0
2880,F3,291.0,0.25,100,140.0
2881,F1,291.0,1.0,100,140.0
2882,F4,291.0,0.25,100,140.0
2883,F5,291.0,0.75,100,140.0
2884,C2,291.0,0.5,100,140.0
2885,G#2,291.0,0.5,100,140.0
2886,G3,291.25,0.25,100,140.0
2887,G4,291.25,0.25,100,140.0
2888,G#3,291.5,0.25,100,140.0
2889,G#4,291.5,0.25,100,140.0
2890,B-5,291.5,0.5,100,140.0
2891,F2,291.5,0.5,100,140.0
2892,C4,291.75,0.25,100,140.0
2893,C5,291.75,0.25,100,140.0
2894,E-4,292.0,0.5,120,140.0
2895,F4,292.0,0.5,100,140.0
2896,F1,292.0,1.0,100,140.0
2897,E-5,292.0,0.5,100,140.0
2898,D2,292.0,0.25,100,140.0
2899,E-5,292.0,0.5,127,140.0
2900,E-5,292.0,0.5,100,140.0
2901,G#2,292.0,0.5,100,140.0
2902,C2,292.0,0.5,100,140.0
2903,B-3,292.5,0.5,120,140.0
2904,B-4,292.5,0.5,100,140.0
2905,B-5,292.5,0.5,100,140.0
2906,F2,292.5,0.5,100,140.0
2907,B-4,292.5,0.5,127,140.0
2908,B-4,292.5,0.5,100,140.0
2909,E-4,293.0,0.5,100,140.0
2910,F1,293.0,1.0,100,140.0
2911,E-5,293.0,0.5,100,140.0
2912,D2,293.0,0.25,100,140.0
2913,G#2,293.0,0.5,100,140.0
2914,C2,293.0,0.5,100,140.0
2915,C#4,293.5,0.5,120,140.0
2916,B-3,293.5,0.5,100,140.0
2917,C#5,293.5,0.5,100,140.0
2918,B-5,293.5,0.5,100,140.0
2919,F2,293.5,0.5,100,140.0
2920,C#5,293.5,0.5,127,140.0
2921,B-4,293.5,0.5,100,140.0
2922,C#5,293.5,0.5,100,140.0
2923,E-4,294.0,0.5,100,140.0
2924,F1,294.0,1.0,100,140.0
2925,E-5,294.0,0.5,100,140.0
2926,D2,294.0,0.25,100,140.0
2927,C2,294.0,0.5,100,140.0
2928,G#2,294.0,0.5,100,140.0
2929,C4,294.5,0.5,120,140.0
2930,C#4,294.5,0.5,100,140.0
2931,B-3,294.5,0.5,100,140.0
2932,C5,294.5,0.5,100,140.0
2933,B-5,294.5,0.5,100,140.0
2934,D2,294.5,0.25,100,140.0
2935,F2,294.5,0.5,100,140.0
2936,C5,294.5,0.5,127,140.0
2937,B-4,294.5,0.5,100,140.0
2938,C5,294.5,0.5,100,140.0
2939,F1,295.0,1.0,100,140.0
2940,E-5,295.0,0.5,100,140.0
2941,D2,295.0,0.25,100,140.0
2942,G#2,295.0,0.5,100,140.0
2943,C2,295.0,0.5,100,140.0
2944,D2,295.25,0.25,100,140.0
2945,G#3,295.5,0.5,120,140.0
2946,C4,295.5,0.5,100,140.0
2947,C#4,295.5,0.5,100,140.0
2948,G#4,295.5,0.5,100,140.0
2949,B-5,295.5,0.5,100,140.0
2950,D2,295.5,0.25,100,140.0
2951,F2,295.5,0.5,100,140.0
2952,G#4,295.5,0.5,127,140.0
2953,C5,295.5,0.5,100,140.0
2954,G#4,295.5,0.5,100,140.0
2955,D2,295.75,0.25,100,140.0
2956,F3,296.0,0.5,120,140.0
2957,F1,296.0,1.0,100,140.0
2958,F4,296.0,0.75,100,140.0
2959,F3,296.0,4.0,100,140.0
2960,D2,296.0,0.25,100,140.0
2961,F4,296.0,0.5,127,140.0
2962,F4,296.0,0.75,100,140.0
2963,G#2,296.0,0.5,100,140.0
2964,C2,296.0,0.5,100,140.0
2965,D2,296.25,0.25,100,140.0
2966,G#3,296.5,0.5,100,140.0
2967,C4,296.5,0.5,100,140.0
2968,G#4,296.5,0.5,100,140.0
2969,D2,296.5,0.25,100,140.0
2970,B-5,296.5,0.5,100,140.0
2971,F2,296.5,0.5,100,140.0
2972,C5,296.5,0.5,100,140.0
2973,D2,296.75,0.25,100,140.0
2974,F3,297.0,0.5,100,140.0
2975,F1,297.0,1.0,100,140.0
2976,F4,297.0,0.75,100,140.0
2977,D2,297.0,0.25,100,140.0
2978,G#2,297.0,0.5,100,140.0
2979,C2,297.0,0.5,100,140.0
2980,D2,297.25,0.25,100,140.0
2981,G3,297.5,0.25,120,140.0
2982,G#3,297.5,0.5,100,140.0
2983,G#4,297.5,0.5,100,140.0
2984,D2,297.5,0.25,100,140.0
2985,B-5,297.5,0.5,100,140.0
2986,F2,297.5,0.5,100,140.0
2987,G4,297.5,0.25,127,140.0
2988,G4,297.5,0.25,100,140.0
2989,G#3,297.75,0.25,120,140.0
2990,D2,297.75,0.25,100,140.0
2991,G#4,297.75,0.25,127,140.0
2992,G#4,297.75,0.25,100,140.0
2993,B-3,298.0,0.5,120,140.0
2994,F3,298.0,0.5,100,140.0
2995,F1,298.0,1.0,100,140.0
2996,F4,298.0,0.75,100,140.0
2997,D2,298.0,0.25,100,140.0
2998,B-4,298.0,0.5,127,140.0
2999,B-4,298.0,0.5,100,140.0
3000,C2,298.0,0.5,100,140.0
3001,G#2,298.0,0.5,100,140.0
3002,D2,298.25,0.25,100,140.0
3003,G3,298.5,0.25,100,140.0
3004,G#4,298.5,0.5,100,140.0
3005,D2,298.5,0.25,100,140.0
3006,B-5,298.5,0.5,100,140.0
3007,F2,298.5,0.5,100,140.0
3008,G#3,298.75,0.25,100,140.0
3009,D2,298.75,0.25,100,140.0
3010,B-3,299.0,0.5,100,140.0
3011,F1,299.0,1.0,100,140.0
3012,F4,299.0,0.75,100,140.0
3013,D2,299.0,0.25,100,140.0
3014,B-4,299.0,0.5,100,140.0
3015,G#2,299.0,0.5,100,140.0
3016,C2,299.0,0.5,100,140.0
3017,D2,299.25,0.25,100,140.0
3018,G#3,299.5,0.25,120,140.0
3019,G3,299.5,0.25,100,140.0
3020,G#4,299.5,0.5,100,140.0
3021,B-5,299.5,0.5,100,140.0
3022,D2,299.5,0.25,100,140.0
3023,F2,299.5,0.5,100,140.0
3024,G#4,299.5,0.25,127,140.0
3025,G#4,299.5,0.25,100,140.0
3026,B-3,299.75,0.25,120,140.0
3027,G#3,299.75,0.25,100,140.0
3028,D2,299.75,0.25,100,140.0
3029,B-4,299.75,0.25,127,140.0
3030,B-4,299.75,0.25,100,140.0
3031,C4,300.0,0.5,120,140.0
3032,B-3,300.0,0.5,100,140.0
3033,F1,300.0,1.0,100,140.0
3034,F4,300.0,0.75,100,140.0
3035,F4,300.0,4.0,100,140.0
3036,C5,300.0,0.5,127,140.0
3037,C5,300.0,0.5,100,140.0
3038,G#2,300.0,0.5,100,140.0
3039,C2,300.0,0.5,100,140.0
3040,D2,300.0,0.25,100,140.0
3041,C#3,300.0,0.25,100,140.0
3042,D2,300.25,0.25,100,140.0
3043,B-3,300.5,0.25,120,140.0
3044,G#3,300.5,0.25,100,140.0
3045,G#4,300.5,0.5,100,140.0
3046,D2,300.5,0.25,100,140.0
3047,B-5,300.5,0.5,100,140.0
3048,F2,300.5,0.5,100,140.0
3049,B-4,300.5,0.25,127,140.0
3050,B-4,300.5,0.25,100,140.0
3051,C4,300.75,0.25,120,140.0
3052,B-3,300.75,0.25,100,140.0
3053,D2,300.75,0.25,100,140.0
3054,C5,300.75,0.25,127,140.0
3055,C5,300.75,0.25,100,140.0
3056,E-4,301.0,0.5,120,140.0
3057,C4,301.0,0.5,100,140.0
3058,F1,301.0,1.0,100,140.0
3059,F4,301.0,0.75,100,140.0
3060,E-5,301.0,0.5,127,140.0
3061,E-5,301.0,0.5,100,140.0
3062,C#3,301.0,0.25,100,140.0
3063,D2,301.0,0.25,100,140.0
3064,C2,301.0,0.5,100,140.0
3065,G#2,301.0,0.5,100,140.0
3066,D2,301.25,0.25,100,140.0
3067,C4,301.5,0.25,120,140.0
3068,B-3,301.5,0.25,100,140.0
3069,G#3,301.5,0.25,100,140.0
3070,G#4,301.5,0.5,100,140.0
3071,B-5,301.5,0.5,100,140.0
3072,D2,301.5,0.25,100,140.0
3073,F2,301.5,0.5,100,140.0
3074,C5,301.5,0.25,127,140.0
3075,C5,301.5,0.25,100,140.0
3076,E-4,301.75,0.25,120,140.0
3077,C4,301.75,0.25,100,140.0
3078,B-3,301.75,0.25,100,140.0
3079,D2,301.75,0.25,100,140.0
3080,E-5,301.75,0.25,127,140.0
3081,E-5,301.75,0.25,100,140.0
3082,F4,302.0,0.5,120,140.0
3083,E-4,302.0,0.5,100,140.0
3084,C4,302.0,0.5,100,140.0
3085,F1,302.0,1.0,100,140.0
3086,F4,302.0,0.75,100,140.0
3087,F5,302.0,0.5,127,140.0
3088,F5,302.0,0.5,100,140.0
3089,C2,302.0,0.5,100,140.0
3090,G#2,302.0,0.5,100,140.0
3091,D2,302.0,0.25,100,140.0
3092,C#3,302.0,0.25,100,140.0
3093,D2,302.25,0.25,100,140.0
3094,E-4,302.5,0.25,120,140.0
3095,C4,302.5,0.25,100,140.0
3096,B-3,302.5,0.25,100,140.0
3097,G#4,302.5,0.5,100,140.0
3098,B-5,302.5,0.5,100,140.0
3099,D2,302.5,0.25,100,140.0
3100,F2,302.5,0.5,100,140.0
3101,E-5,302.5,0.25,127,140.0
3102,E-5,302.5,0.25,100,140.0
3103,F4,302.75,0.25,120,140.0
3104,E-4,302.75,0.25,100,140.0
3105,C4,302.75,0.25,100,140.0
3106,D2,302.75,0.25,100,140.0
3107,F5,302.75,0.25,127,140.0
3108,F5,302.75,0.25,100,140.0
3109,G#4,303.0,0.25,120,140.0
3110,F4,303.0,0.5,100,140.0
3111,E-4,303.0,0.5,100,140.0
3112,F1,303.0,1.0,100,140.0
3113,F4,303.0,0.25,100,140.0
3114,G#5,303.0,0.25,127,140.0
3115,G#5,303.0,0.25,100,140.0
3116,C2,303.0,0.5,100,140.0
3117,G#2,303.0,0.5,100,140.0
3118,C#3,303.0,0.25,100,140.0
3119,D2,303.0,0.25,100,140.0
3120,B-4,303.25,0.25,120,140.0
3121,G4,303.25,0.25,100,140.0
3122,D2,303.25,0.25,100,140.0
3123,B-5,303.25,0.25,127,140.0
3124,B-5,303.25,0.25,100,140.0
3125,C5,303.5,0.25,120,140.0
3126,E-4,303.5,0.25,100,140.0
3127,C4,303.5,0.25,100,140.0
3128,G#4,303.5,0.25,100,140.0
3129,B-5,303.5,0.5,100,140.0
3130,F2,303.5,0.5,100,140.0
3131,C6,303.5,0.25,127,140.0
3132,C6,303.5,0.25,100,140.0
3133,C2,303.5,0.25,100,140.0
3134,G#2,303.5,0.25,100,140.0
3135,D2,303.5,0.25,100,140.0
3136,E-5,303.75,0.25,120,140.0
3137,F4,303.75,0.25,100,140.0
3138,E-4,303.75,0.25,100,140.0
3139,C5,303.75,0.25,100,140.0
3140,E-6,303.75,0.25,127,140.0
3141,E-6,303.75,0.25,100,140.0
3142,D2,303.75,0.25,100,140.0
3143,G#2,303.75,0.25,100,140.0
3144,C2,303.75,0.25,100,140.0
3145,F5,304.0,4.0,120,140.0
3146,G#4,304.0,0.25,100,140.0
3147,C#2,304.0,1.0,100,140.0
3148,F5,304.0,0.75,100,140.0
3149,F4,304.0,0.25,100,140.0
3150,F5,304.0,4.0,100,140.0
3151,F6,304.0,4.0,127,140.0
3152,F6,304.0,4.0,100,140.0
3153,A3,304.0,0.5,100,140.0
3154,C2,304.0,0.5,100,140.0
3155,G#2,304.0,0.5,100,140.0
3156,C#3,304.0,0.5,100,140.0
3157,B-4,304.25,0.25,100,140.0
3158,G4,304.25,0.25,100,140.0
3159,C5,304.5,0.25,100,140.0
3160,G#4,304.5,0.25,100,140.0
3161,B-5,304.5,0.5,100,140.0
3162,C#3,304.5,0.5,100,140.0
3163,E-5,304.75,0.25,100,140.0
3164,C5,304.75,0.25,100,140.0
3165,F5,305.0,0.5,100,140.0
3166,G#4,305.0,0.25,100,140.0
3167,C#2,305.0,1.0,100,140.0
3168,F4,305.0,0.25,100,140.0
3169,C2,305.0,0.5,100,140.0
3170,G#2,305.0,0.5,100,140.0
3171,B-4,305.25,0.25,100,140.0
3172,G4,305.25,0.25,100,140.0
3173,C5,305.5,0.25,100,140.0
3174,G#4,305.5,0.25,100,140.0
3175,B-5,305.5,0.5,100,140.0
3176,C#3,305.5,0.5,100,140.0
3177,E-5,305.75,0.25,100,140.0
3178,C5,305.75,0.25,100,140.0
3179,F5,306.0,0.5,100,140.0
3180,G#4,306.0,0.25,100,140.0
3181,C#2,306.0,1.0,100,140.0
3182,F4,306.0,0.25,100,140.0
3183,C2,306.0,0.5,100,140.0
3184,G#2,306.0,0.5,100,140.0
3185,B-4,306.25,0.25,100,140.0
3186,G4,306.25,0.25,100,140.0
3187,C5,306.5,0.25,100,140.0
3188,G#4,306.5,0.25,100,140.0
3189,B-5,306.5,0.5,100,140.0
3190,C#3,306.5,0.5,100,140.0
3191,E-5,306.75,0.25,100,140.0
3192,C5,306.75,0.25,100,140.0
3193,F5,307.0,0.5,100,140.0
3194,G#4,307.0,0.25,100,140.0
3195,C#2,307.0,1.0,100,140.0
3196,F4,307.0,0.25,100,140.0
3197,G#2,307.0,0.5,100,140.0
3198,C2,307.0,0.5,100,140.0
3199,B-4,307.25,0.25,100,140.0
3200,G4,307.25,0.25,100,140.0
3201,C5,307.5,0.25,100,140.0
3202,G#4,307.5,0.25,100,140.0
3203,B-5,307.5,0.5,100,140.0
3204,C#3,307.5,0.5,100,140.0
3205,E-5,307.75,0.25,100,140.0
3206,C5,307.75,0.25,100,140.0
3207,F5,308.0,2.0,120,140.0
3208,F5,308.0,0.5,100,140.0
3209,G#4,308.0,0.25,100,140.0
3210,B-1,308.0,1.0,100,140.0
3211,E-5,308.0,0.5,100,140.0
3212,F5,308.0,4.0,100,140.0
3213,F4,308.0,4.0,100,140.0
3214,F6,308.0,4.0,127,140.0
3215,F6,308.0,4.0,100,140.0
3216,C2,308.0,0.5,100,140.0
3217,G#2,308.0,0.5,100,140.0
3218,B-4,308.25,0.25,100,140.0
3219,C5,308.5,0.25,100,140.0
3220,B-4,308.5,0.5,100,140.0
3221,B-5,308.5,0.5,100,140.0
3222,B-2,308.5,0.5,100,140.0
3223,E-5,308.75,0.25,100,140.0
3224,F5,309.0,0.5,100,140.0
3225,G#4,309.0,0.25,100,140.0
3226,B-1,309.0,1.0,100,140.0
3227,E-5,309.0,0.5,100,140.0
3228,G#2,309.0,0.5,100,140.0
3229,C2,309.0,0.5,100,140.0
3230,B-4,309.25,0.25,100,140.0
3231,C5,309.5,0.25,100,140.0
3232,C#5,309.5,0.5,100,140.0
3233,B-5,309.5,0.5,100,140.0
3234,B-2,309.5,0.5,100,140.0
3235,E-5,309.75,0.25,100,140.0
3236,B-1,310.0,1.0,100,140.0
3237,E-5,310.0,0.5,100,140.0
3238,G#2,310.0,0.5,100,140.0
3239,C2,310.0,0.5,100,140.0
3240,G#5,310.025,1.0,120,140.0
3241,G#4,310.5,0.5,100,140.0
3242,B-5,310.5,0.5,100,140.0
3243,B-2,310.5,0.5,100,140.0
3244,G5,310.975,0.5,120,140.0
3245,G5,311.0,0.5,100,140.0
3246,B-1,311.0,1.0,100,140.0
3247,E-5,311.0,0.5,100,140.0
3248,G#2,311.0,0.5,100,140.0
3249,C2,311.0,0.5,100,140.0
3250,E-5,311.5,0.5,120,140.0
3251,E-5,311.5,0.5,100,140.0
3252,C#5,311.5,0.5,100,140.0
3253,C2,311.5,0.25,100,140.0
3254,B-5,311.5,0.5,100,140.0
3255,B-2,311.5,0.5,100,140.0
3256,E-5,312.0,4.0,120,140.0
3257,G5,312.0,0.5,100,140.0
3258,F1,312.0,1.0,100,140.0
3259,C5,312.0,0.75,100,140.0
3260,E-5,312.0,4.0,100,140.0
3261,F5,312.0,4.0,100,140.0
3262,F4,312.0,4.0,100,140.0
3263,F6,312.0,4.0,127,140.0
3264,E-6,312.0,4.0,100,140.0
3265,C2,312.0,0.5,100,140.0
3266,G#2,312.0,0.5,100,140.0
3267,E-5,312.5,0.5,100,140.0
3268,C#5,312.5,0.5,100,140.0
3269,B-5,312.5,0.5,100,140.0
3270,F2,312.5,0.5,100,140.0
3271,G5,313.0,0.5,100,140.0
3272,F1,313.0,1.0,100,140.0
3273,C5,313.0,0.75,100,140.0
3274,C2,313.0,0.5,100,140.0
3275,G#2,313.0,0.5,100,140.0
3276,E-5,313.5,0.5,100,140.0
3277,C#5,313.5,0.5,100,140.0
3278,B-5,313.5,0.5,100,140.0
3279,F2,313.5,0.5,100,140.0
3280,G5,314.0,0.5,100,140.0
3281,F1,314.0,1.0,100,140.0
3282,C5,314.0,0.75,100,140.0
3283,C2,314.0,0.5,100,140.0
3284,G#2,314.0,0.5,100,140.0
3285,E-5,314.5,0.5,100,140.0
3286,C#5,314.5,0.5,100,140.0
3287,B-5,314.5,0.5,100,140.0
3288,F2,314.5,0.5,100,140.0
3289,G5,315.0,0.5,100,140.0
3290,F1,315.0,1.0,100,140.0
3291,C5,315.0,0.75,100,140.0
3292,G#2,315.0,0.5,100,140.0
3293,C2,315.0,0.5,100,140.0
3294,E-5,315.5,0.5,100,140.0
3295,C#5,315.5,0.5,100,140.0
3296,B-5,315.5,0.5,100,140.0
3297,F2,315.5,0.5,100,140.0
3298,E-5,316.0,2.0,120,140.0
3299,G5,316.0,0.5,100,140.0
3300,F1,316.0,1.0,100,140.0
3301,C5,316.0,0.75,100,140.0
3302,E-5,316.0,4.0,100,140.0
3303,F5,316.0,4.0,100,140.0
3304,F4,316.0,4.0,100,140.0
3305,E-6,316.0,4.0,100,140.0
3306,G#2,316.0,0.5,100,140.0
3307,C2,316.0,0.5,100,140.0
3308,E-5,316.5,0.5,100,140.0
3309,C#5,316.5,0.5,100,140.0
3310,B-5,316.5,0.5,100,140.0
3311,F2,316.5,0.5,100,140.0
3312,G5,317.0,0.5,100,140.0
3313,F1,317.0,1.0,100,140.0
3314,C5,317.0,0.75,100,140.0
3315,C2,317.0,0.5,100,140.0
3316,G#2,317.0,0.5,100,140.0
3317,E-5,317.5,0.5,100,140.0
3318,C#5,317.5,0.5,100,140.0
3319,B-5,317.5,0.5,100,140.0
3320,F2,317.5,0.5,100,140.0
3321,G#5,318.0,1.0,120,140.0
3322,F1,318.0,1.0,100,140.0
3323,C5,318.0,0.75,100,140.0
3324,G#2,318.0,0.5,100,140.0
3325,C2,318.0,0.5,100,140.0
3326,E-5,318.5,0.5,100,140.0
3327,C#5,318.5,0.5,100,140.0
3328,B-5,318.5,0.5,100,140.0
3329,F2,318.5,0.5,100,140.0
3330,G5,319.0,0.5,120,140.0
3331,G5,319.0,0.5,100,140.0
3332,F1,319.0,1.0,100,140.0
3333,F4,319.0,0.25,100,140.0
3334,C2,319.0,0.5,100,140.0
3335,G#2,319.0,0.5,100,140.0
3336,G4,319.25,0.25,100,140.0
3337,C5,319.483,517/1000,120,140.0
3338,C5,319.5,0.5,100,140.0
3339,G#4,319.5,0.25,100,140.0
3340,B-5,319.5,0.5,100,140.0
3341,F2,319.5,0.5,100,140.0
3342,C5,319.75,0.25,100,140.0
3343,C5,320.0,4.0,120,140.0
3344,G5,320.0,0.5,100,140.0
3345,C#2,320.0,1.0,100,140.0
3346,F5,320.0,0.75,100,140.0
3347,F4,320.0,0.25,100,140.0
3348,C#5,320.0,4.0,100,140.0
3349,F5,320.0,4.0,100,140.0
3350,E-4,320.0,4.0,100,140.0
3351,F4,320.0,4.0,100,140.0
3352,C#6,320.0,4.0,100,140.0
3353,C2,320.0,0.5,100,140.0
3354,G#2,320.0,0.5,100,140.0
3355,G4,320.25,0.25,100,140.0
3356,C5,320.5,0.5,100,140.0
3357,G#4,320.5,0.25,100,140.0
3358,B-5,320.5,0.5,100,140.0
3359,C#3,320.5,0.5,100,140.0
3360,C5,320.75,0.25,100,140.0
3361,G5,321.0,0.5,100,140.0
3362,C#2,321.0,1.0,100,140.0
3363,F4,321.0,0.25,100,140.0
3364,C2,321.0,0.5,100,140.0
3365,G#2,321.0,0.5,100,140.0
3366,G4,321.25,0.25,100,140.0
3367,C5,321.5,0.5,100,140.0
3368,G#4,321.5,0.25,100,140.0
3369,B-5,321.5,0.5,100,140.0
3370,C#3,321.5,0.5,100,140.0
3371,C5,321.75,0.25,100,140.0
3372,G5,322.0,0.5,100,140.0
3373,C#2,322.0,1.0,100,140.0
3374,F4,322.0,0.25,100,140.0
3375,G#2,322.0,0.5,100,140.0
3376,C2,322.0,0.5,100,140.0
3377,G4,322.25,0.25,100,140.0
3378,C5,322.5,0.5,100,140.0
3379,G#4,322.5,0.25,100,140.0
3380,B-5,322.5,0.5,100,140.0
3381,C#3,322.5,0.5,100,140.0
3382,C5,322.75,0.25,100,140.0
3383,G5,323.0,0.5,100,140.0
3384,C#2,323.0,1.0,100,140.0
3385,F4,323.0,0.25,100,140.0
3386,G#2,323.0,0.5,100,140.0
3387,C2,323.0,0.5,100,140.0
3388,G4,323.25,0.25,100,140.0
3389,C5,323.5,0.5,100,140.0
3390,G#4,323.5,0.25,100,140.0
3391,B-5,323.5,0.5,100,140.0
3392,C#3,323.5,0.5,100,140.0
3393,C5,323.75,0.25,100,140.0
3394,C5,324.0,1983/1000,120,140.0
3395,G5,324.0,0.5,100,140.0
3396,B-1,324.0,1.0,100,140.0
3397,E-5,324.0,0.5,100,140.0
3398,C#5,324.0,4.0,100,140.0
3399,F5,324.0,4.0,100,140.0
3400,C#4,324.0,4.0,100,140.0
3401,E-4,324.0,1.0,100,140.0
3402,G#4,324.0,4.0,100,140.0
3403,C#6,324.0,4.0,100,140.0
3404,C2,324.0,0.5,100,140.0
3405,G#2,324.0,0.5,100,140.0
3406,C5,324.5,0.5,100,140.0
3407,B-4,324.5,0.5,100,140.0
3408,B-5,324.5,0.5,100,140.0
3409,B-2,324.5,0.5,100,140.0
3410,G5,325.0,0.5,100,140.0
3411,B-1,325.0,1.0,100,140.0
3412,E-5,325.0,0.5,100,140.0
3413,C2,325.0,0.5,100,140.0
3414,G#2,325.0,0.5,100,140.0
3415,C5,325.5,0.5,100,140.0
3416,C#5,325.5,0.5,100,140.0
3417,B-5,325.5,0.5,100,140.0
3418,B-2,325.5,0.5,100,140.0
3419,G#5,325.942,1.0,120,140.0
3420,B-1,326.0,1.0,100,140.0
3421,E-5,326.0,0.5,100,140.0
3422,C2,326.0,0.5,100,140.0
3423,G#2,326.0,0.5,100,140.0
3424,C5,326.5,0.5,100,140.0
3425,C5,326.5,0.5,100,140.0
3426,B-5,326.5,0.5,100,140.0
3427,B-2,326.5,0.5,100,140.0
3428,G5,326.95,0.5,120,140.0
3429,G5,327.0,0.5,100,140.0
3430,B-1,327.0,1.0,100,140.0
3431,E-5,327.0,0.5,100,140.0
3432,C2,327.0,0.5,100,140.0
3433,G#2,327.0,0.5,100,140.0
3434,G#4,327.5,0.5,100,140.0
3435,G#4,327.5,0.5,100,140.0
3436,B-5,327.5,0.5,100,140.0
3437,B-2,327.5,0.5,100,140.0
3438,G#4,327.525,19/40,120,140.0
3439,G#4,328.0,4.0,120,140.0
3440,G5,328.0,0.5,100,140.0
3441,F1,328.0,1.0,100,140.0
3442,F4,328.0,0.75,100,140.0
3443,C5,328.0,4.0,100,140.0
3444,F5,328.0,4.0,100,140.0
3445,G4,328.0,4.0,100,140.0
3446,C#4,328.0,4.0,100,140.0
3447,C6,328.0,4.0,100,140.0
3448,G#2,328.0,0.5,100,140.0
3449,C2,328.0,0.5,100,140.0
3450,G#4,328.5,0.5,100,140.0
3451,G#4,328.5,0.5,100,140.0
3452,B-5,328.5,0.5,100,140.0
3453,F2,328.5,0.5,100,140.0
3454,G5,329.0,0.5,100,140.0
3455,F1,329.0,1.0,100,140.0
3456,F4,329.0,0.75,100,140.0
3457,C2,329.0,0.5,100,140.0
3458,G#2,329.0,0.5,100,140.0
3459,G#4,329.5,0.5,100,140.0
3460,G4,329.5,0.25,100,140.0
3461,B-5,329.5,0.5,100,140.0
3462,F2,329.5,0.5,100,140.0
3463,G#4,329.75,0.25,100,140.0
3464,G5,330.0,0.5,100,140.0
3465,F1,330.0,1.0,100,140.0
3466,B-4,330.0,0.5,100,140.0
3467,G#2,330.0,0.5,100,140.0
3468,C2,330.0,0.5,100,140.0
3469,G#4,330.5,0.5,100,140.0
3470,G4,330.5,0.25,100,140.0
3471,B-5,330.5,0.5,100,140.0
3472,F2,330.5,0.5,100,140.0
3473,G#4,330.75,0.25,100,140.0
3474,G5,331.0,0.5,100,140.0
3475,F1,331.0,1.0,100,140.0
3476,G#2,331.0,0.5,100,140.0
3477,C2,331.0,0.5,100,140.0
3478,G#4,331.5,0.5,100,140.0
3479,G#4,331.5,0.25,100,140.0
3480,B-5,331.5,0.5,100,140.0
3481,F2,331.5,0.5,100,140.0
3482,B-4,331.75,0.25,100,140.0
3483,G#4,332.0,81/40,120,140.0
3484,G5,332.0,0.5,100,140.0
3485,F1,332.0,1.0,100,140.0
3486,C5,332.0,0.5,100,140.0
3487,C5,332.0,4.0,100,140.0
3488,F5,332.0,4.0,100,140.0
3489,C6,332.0,4.0,100,140.0
3490,G#4,332.0,4.0,100,140.0
3491,C4,332.0,4.0,100,140.0
3492,G#2,332.0,0.5,100,140.0
3493,C2,332.0,0.5,100,140.0
3494,G#4,332.5,0.5,100,140.0
3495,B-4,332.5,0.25,100,140.0
3496,B-5,332.5,0.5,100,140.0
3497,F2,332.5,0.5,100,140.0
3498,C5,332.75,0.25,100,140.0
3499,G5,333.0,0.5,100,140.0
3500,F1,333.0,1.0,100,140.0
3501,E-5,333.0,0.5,100,140.0
3502,G#2,333.0,0.5,100,140.0
3503,C2,333.0,0.5,100,140.0
3504,G#4,333.5,0.5,100,140.0
3505,C5,333.5,0.25,100,140.0
3506,B-5,333.5,0.5,100,140.0
3507,F2,333.5,0.5,100,140.0
3508,E-5,333.75,0.25,100,140.0
3509,G5,334.0,0.5,100,140.0
3510,F1,334.0,1.0,100,140.0
3511,F5,334.0,0.5,100,140.0
3512,C2,334.0,0.5,100,140.0
3513,G#2,334.0,0.5,100,140.0
3514,G#4,334.5,0.5,100,140.0
3515,E-5,334.5,0.25,100,140.0
3516,B-5,334.5,0.5,100,140.0
3517,F2,334.5,0.5,100,140.0
3518,F5,334.75,0.25,100,140.0
3519,F4,335.0,0.25,120,140.0
3520,F4,335.0,0.5,100,140.0
3521,F1,335.0,1.0,100,140.0
3522,G#5,335.0,0.25,100,140.0
3523,C2,335.0,0.5,100,140.0
3524,G#2,335.0,0.5,100,140.0
3525,G4,335.233,0.25,120,140.0
3526,B-5,335.25,0.25,100,140.0
3527,G#4,335.5,0.25,120,140.0
3528,C6,335.5,0.25,100,140.0
3529,F2,335.5,0.5,100,140.0
3530,C2,335.5,0.5,100,140.0
3531,B-5,335.5,0.5,100,140.0
3532,C5,335.75,0.25,120,140.0
3533,E-6,335.75,0.25,100,140.0
3534,F5,336.0,4.0,120,140.0
3535,F5,336.0,1.0,100,140.0
3536,F4,336.0,0.25,100,140.0
3537,C#2,336.0,1.0,100,140.0
3538,F5,336.0,4.0,100,140.0
3539,F4,336.0,0.25,127,140.0
3540,G#4,336.0,4.0,100,140.0
3541,F5,336.0,4.0,100,140.0
3542,C2,336.0,0.5,100,140.0
3543,G#2,336.0,0.5,100,140.0
3544,G4,336.233,0.25,100,140.0
3545,C#4,336.25,0.25,127,140.0
3546,G#4,336.5,0.25,100,140.0
3547,B-5,336.5,0.5,100,140.0
3548,C#3,336.5,0.5,100,140.0
3549,G#3,336.5,0.25,127,140.0
3550,C5,336.75,0.25,100,140.0
3551,F3,336.75,0.25,127,140.0
3552,F5,337.0,1.0,100,140.0
3553,F4,337.0,0.25,100,140.0
3554,C#2,337.0,1.0,100,140.0
3555,F4,337.0,0.25,127,140.0
3556,C2,337.0,0.5,100,140.0
3557,G#2,337.0,0.5,100,140.0
3558,G4,337.233,0.25,100,140.0
3559,C#4,337.25,0.25,127,140.0
3560,G#4,337.5,0.25,100,140.0
3561,B-5,337.5,0.5,100,140.0
3562,C#3,337.5,0.5,100,140.0
3563,G#3,337.5,0.25,127,140.0
3564,C5,337.75,0.25,100,140.0
3565,F3,337.75,0.25,127,140.0
3566,F5,338.0,1.0,100,140.0
3567,F4,338.0,0.25,100,140.0
3568,C#2,338.0,1.0,100,140.0
3569,F4,338.0,0.25,127,140.0
3570,G#2,338.0,0.5,100,140.0
3571,C2,338.0,0.5,100,140.0
3572,G4,338.233,0.25,100,140.0
3573,C#4,338.25,0.25,127,140.0
3574,G#4,338.5,0.25,100,140.0
3575,B-5,338.5,0.5,100,140.0
3576,C#3,338.5,0.5,100,140.0
3577,G#3,338.5,0.25,127,140.0
3578,C5,338.75,0.25,100,140.0
3579,F3,338.75,0.25,127,140.0
3580,F5,339.0,1.0,100,140.0
3581,F4,339.0,0.25,100,140.0
3582,C#2,339.0,1.0,100,140.0
3583,F4,339.0,0.25,127,140.0
3584,C2,339.0,0.5,100,140.0
3585,G#2,339.0,0.5,100,140.0
3586,G4,339.233,0.25,100,140.0
3587,C#4,339.25,0.25,127,140.0
3588,G#4,339.5,0.25,100,140.0
3589,B-5,339.5,0.5,100,140.0
3590,C#3,339.5,0.5,100,140.0
3591,G#3,339.5,0.25,127,140.0
3592,C5,339.75,0.25,100,140.0
3593,F3,339.75,0.25,127,140.0
3594,F5,340.0,2.0,120,140.0
3595,F5,340.0,1.0,100,140.0
3596,F4,340.0,0.25,100,140.0
3597,B-1,340.0,1.0,100,140.0
3598,F5,340.0,4.0,100,140.0
3599,F4,340.0,0.25,127,140.0
3600,G#4,340.0,4.0,100,140.0
3601,C4,340.0,4.0,100,140.0
3602,C2,340.0,0.5,100,140.0
3603,G#2,340.0,0.5,100,140.0
3604,G4,340.233,0.25,100,140.0
3605,C#4,340.25,0.25,127,140.0
3606,G#4,340.5,0.25,100,140.0
3607,B-5,340.5,0.5,100,140.0
3608,B-2,340.5,0.5,100,140.0
3609,B-3,340.5,0.25,127,140.0
3610,C5,340.75,0.25,100,140.0
3611,F3,340.75,0.25,127,140.0
3612,F5,341.0,1.0,100,140.0
3613,F4,341.0,0.25,100,140.0
3614,B-1,341.0,1.0,100,140.0
3615,F4,341.0,0.25,127,140.0
3616,C2,341.0,0.5,100,140.0
3617,G#2,341.0,0.5,100,140.0
3618,G4,341.233,0.25,100,140.0
3619,C#4,341.25,0.25,127,140.0
3620,G#4,341.5,0.25,100,140.0
3621,B-5,341.5,0.5,100,140.0
3622,B-2,341.5,0.5,100,140.0
3623,B-3,341.5,0.25,127,140.0
3624,C5,341.75,0.25,100,140.0
3625,F3,341.75,0.25,127,140.0
3626,B-1,342.0,1.0,100,140.0
3627,G4,342.0,0.25,127,140.0
3628,C2,342.0,0.5,100,140.0
3629,G#2,342.0,0.5,100,140.0
3630,G#5,342.025,1.0,120,140.0
3631,E-4,342.25,0.25,127,140.0
3632,B-5,342.5,0.5,100,140.0
3633,B-2,342.5,0.5,100,140.0
3634,B-3,342.5,0.25,127,140.0
3635,G3,342.75,0.25,127,140.0
3636,G5,342.975,0.5,120,140.0
3637,G5,343.0,1.0,100,140.0
3638,B-1,343.0,1.0,100,140.0
3639,G4,343.0,0.25,127,140.0
3640,C2,343.0,0.5,100,140.0
3641,G#2,343.0,0.5,100,140.0
3642,E-4,343.25,0.25,127,140.0
3643,E-5,343.5,0.5,120,140.0
3644,E-5,343.5,0.5,100,140.0
3645,B-5,343.5,0.5,100,140.0
3646,B-2,343.5,0.5,100,140.0
3647,B-3,343.5,0.25,127,140.0
3648,G3,343.75,0.25,127,140.0
3649,E-5,344.0,4.0,120,140.0
3650,G5,344.0,1.0,100,140.0
3651,F1,344.0,1.0,100,140.0
3652,E-5,344.0,4.0,100,140.0
3653,E-5,344.0,4.0,100,140.0
3654,F4,344.0,4.0,100,140.0
3655,G#4,344.0,0.25,127,140.0
3656,G#4,344.0,4.0,100,140.0
3657,F5,344.0,4.0,100,140.0
3658,G#2,344.0,0.5,100,140.0
3659,C2,344.0,0.5,100,140.0
3660,G4,344.25,0.25,127,140.0
3661,E-5,344.5,0.5,100,140.0
3662,B-5,344.5,0.5,100,140.0
3663,F2,344.5,0.5,100,140.0
3664,E-4,344.5,0.25,127,140.0
3665,C4,344.75,0.25,127,140.0
3666,G5,345.0,1.0,100,140.0
3667,F1,345.0,1.0,100,140.0
3668,G#4,345.0,0.25,127,140.0
3669,G#2,345.0,0.5,100,140.0
3670,C2,345.0,0.5,100,140.0
3671,G4,345.25,0.25,127,140.0
3672,E-5,345.5,0.5,100,140.0
3673,B-5,345.5,0.5,100,140.0
3674,F2,345.5,0.5,100,140.0
3675,E-4,345.5,0.25,127,140.0
3676,C4,345.75,0.25,127,140.0
3677,G5,346.0,1.0,100,140.0
3678,F1,346.0,1.0,100,140.0
3679,G#4,346.0,0.25,127,140.0
3680,G#2,346.0,0.5,100,140.0
3681,C2,346.0,0.5,100,140.0
3682,G4,346.25,0.25,127,140.0
3683,E-5,346.5,0.5,100,140.0
3684,B-5,346.5,0.5,100,140.0
3685,F2,346.5,0.5,100,140.0
3686,E-4,346.5,0.25,127,140.0
3687,C4,346.75,0.25,127,140.0
3688,G5,347.0,1.0,100,140.0
3689,F1,347.0,1.0,100,140.0
3690,G#4,347.0,0.25,127,140.0
3691,G#2,347.0,0.5,100,140.0
3692,C2,347.0,0.5,100,140.0
3693,G4,347.25,0.25,127,140.0
3694,E-5,347.5,0.5,100,140.0
3695,B-5,347.5,0.5,100,140.0
3696,F2,347.5,0.5,100,140.0
3697,E-4,347.5,0.25,127,140.0
3698,C4,347.75,0.25,127,140.0
3699,E-5,348.0,2.0,120,140.0
3700,G5,348.0,1.0,100,140.0
3701,F1,348.0,1.0,100,140.0
3702,G4,348.0,4.0,100,140.0
3703,E-5,348.0,4.0,100,140.0
3704,C5,348.0,4.0,100,140.0
3705,E-5,348.0,4.0,100,140.0
3706,F4,348.0,4.0,100,140.0
3707,G#4,348.0,0.25,127,140.0
3708,G#2,348.0,0.5,100,140.0
3709,C2,348.0,0.5,100,140.0
3710,G4,348.25,0.25,127,140.0
3711,E-5,348.5,0.5,100,140.0
3712,B-5,348.5,0.5,100,140.0
3713,F2,348.5,0.5,100,140.0
3714,E-4,348.5,0.25,127,140.0
3715,C4,348.75,0.25,127,140.0
3716,G5,349.0,1.0,100,140.0
3717,F1,349.0,1.0,100,140.0
3718,G#4,349.0,0.25,127,140.0
3719,C2,349.0,0.5,100,140.0
3720,G#2,349.0,0.5,100,140.0
3721,G4,349.25,0.25,127,140.0
3722,E-5,349.5,0.5,100,140.0
3723,B-5,349.5,0.5,100,140.0
3724,F2,349.5,0.5,100,140.0
3725,E-4,349.5,0.25,127,140.0
3726,C4,349.75,0.25,127,140.0
3727,G5,350.0,1.0,100,140.0
3728,F1,350.0,1.0,100,140.0
3729,G#4,350.0,0.25,127,140.0
3730,G#2,350.0,0.5,100,140.0
3731,C2,350.0,0.5,100,140.0
3732,G4,350.25,0.25,127,140.0
3733,E-5,350.5,0.5,100,140.0
3734,B-5,350.5,0.5,100,140.0
3735,F2,350.5,0.5,100,140.0
3736,E-4,350.5,0.25,127,140.0
3737,C4,350.75,0.25,127,140.0
3738,G5,351.0,1.0,100,140.0
3739,F1,351.0,1.0,100,140.0
3740,G#4,351.0,0.25,127,140.0
3741,C2,351.0,0.5,100,140.0
3742,G#2,351.0,0.5,100,140.0
3743,G4,351.25,0.25,127,140.0
3744,B-5,351.5,0.5,100,140.0
3745,F2,351.5,0.5,100,140.0
3746,E-4,351.5,0.25,127,140.0
3747,C#5,351.508,0.25,120,140.0
3748,C4,351.75,0.25,127,140.0
3749,C5,351.758,121/500,120,140.0
3750,C#5,352.0,1.0,120,140.0
3751,C5,352.0,1/125,120,140.0
3752,C#5,352.0,0.25,100,140.0
3753,C#2,352.0,1.0,100,140.0
3754,E-5,352.0,4.0,100,140.0
3755,C5,352.0,4.0,100,140.0
3756,C#5,352.0,4.0,100,140.0
3757,F4,352.0,4.0,100,140.0
3758,F4,352.0,0.25,127,140.0
3759,E-4,352.0,4.0,100,140.0
3760,G#4,352.0,4.0,100,140.0
3761,C2,352.0,0.5,100,140.0
3762,G#2,352.0,0.5,100,140.0
3763,C5,352.25,0.25,100,140.0
3764,C#4,352.25,0.25,127,140.0
3765,C#5,352.5,1.0,100,140.0
3766,B-5,352.5,0.5,100,140.0
3767,C#3,352.5,0.5,100,140.0
3768,G#3,352.5,0.25,127,140.0
3769,F3,352.75,0.25,127,140.0
3770,C5,353.0,1.0,100,140.0
3771,C#2,353.0,1.0,100,140.0
3772,F4,353.0,0.25,127,140.0
3773,C2,353.0,0.5,100,140.0
3774,G#2,353.0,0.5,100,140.0
3775,C5,353.017,0.5,120,140.0
3776,C#4,353.25,0.25,127,140.0
3777,G#4,353.5,2.5,120,140.0
3778,G#4,353.5,0.5,100,140.0
3779,B-5,353.5,0.5,100,140.0
3780,C#3,353.5,0.5,100,140.0
3781,G#3,353.5,0.25,127,140.0
3782,F3,353.75,0.25,127,140.0
3783,C5,354.0,1.0,100,140.0
3784,C#2,354.0,1.0,100,140.0
3785,F4,354.0,0.25,127,140.0
3786,G#2,354.0,0.5,100,140.0
3787,C2,354.0,0.5,100,140.0
3788,C#4,354.25,0.25,127,140.0
3789,G#4,354.5,0.5,100,140.0
3790,B-5,354.5,0.5,100,140.0
3791,C#3,354.5,0.5,100,140.0
3792,G#3,354.5,0.25,127,140.0
3793,F3,354.75,0.25,127,140.0
3794,C5,355.0,1.0,100,140.0
3795,C#2,355.0,1.0,100,140.0
3796,F4,355.0,0.25,127,140.0
3797,C2,355.0,0.5,100,140.0
3798,G#2,355.0,0.5,100,140.0
3799,C#4,355.25,0.25,127,140.0
3800,G#4,355.5,0.5,100,140.0
3801,B-5,355.5,0.5,100,140.0
3802,C#3,355.5,0.5,100,140.0
3803,G#3,355.5,0.25,127,140.0
3804,F3,355.75,0.25,127,140.0
3805,C5,356.0,1.0,100,140.0
3806,B-1,356.0,1.0,100,140.0
3807,C#5,356.0,4.0,100,140.0
3808,E-4,356.0,4.0,100,140.0
3809,F4,356.0,4.0,100,140.0
3810,F4,356.0,0.25,127,140.0
3811,E-4,356.0,4.0,100,140.0
3812,C#5,356.0,4.0,100,140.0
3813,G#4,356.0,4.0,100,140.0
3814,F5,356.0,4.0,100,140.0
3815,G#2,356.0,0.5,100,140.0
3816,C2,356.0,0.5,100,140.0
3817,C#4,356.25,0.25,127,140.0
3818,B-5,356.5,0.5,100,140.0
3819,B-2,356.5,0.5,100,140.0
3820,B-3,356.5,0.25,127,140.0
3821,G4,356.508,1.5,120,140.0
3822,F3,356.75,0.25,127,140.0
3823,C5,357.0,1.0,100,140.0
3824,B-1,357.0,1.0,100,140.0
3825,F4,357.0,0.25,127,140.0
3826,G#2,357.0,0.5,100,140.0
3827,C2,357.0,0.5,100,140.0
3828,C#4,357.25,0.25,127,140.0
3829,G4,357.5,1.0,100,140.0
3830,B-5,357.5,0.5,100,140.0
3831,B-2,357.5,0.5,100,140.0
3832,B-3,357.5,0.25,127,140.0
3833,F3,357.75,0.25,127,140.0
3834,G#4,358.0,1.0,120,140.0
3835,B-1,358.0,1.0,100,140.0
3836,F4,358.0,0.25,127,140.0
3837,C2,358.0,0.5,100,140.0
3838,G#2,358.0,0.5,100,140.0
3839,C#4,358.25,0.25,127,140.0
3840,B-5,358.5,0.5,100,140.0
3841,B-2,358.5,0.5,100,140.0
3842,B-3,358.5,0.25,127,140.0
3843,F3,358.75,0.25,127,140.0
3844,C5,358.942,0.5,120,140.0
3845,C5,359.0,1.0,100,140.0
3846,G#4,359.0,0.5,100,140.0
3847,B-1,359.0,1.0,100,140.0
3848,E-4,359.0,0.25,127,140.0
3849,G#2,359.0,0.5,100,140.0
3850,C2,359.0,0.5,100,140.0
3851,C#4,359.25,0.25,127,140.0
3852,F4,359.475,21/40,120,140.0
3853,F4,359.5,0.5,100,140.0
3854,B-5,359.5,0.5,100,140.0
3855,B-2,359.5,0.5,100,140.0
3856,B-3,359.5,0.25,127,140.0
3857,F3,359.75,0.25,127,140.0
3858,F4,360.0,159/40,120,140.0
3859,C5,360.0,1.0,100,140.0
3860,F1,360.0,1.0,100,140.0
3861,C5,360.0,4.0,100,140.0
3862,C#4,360.0,4.0,100,140.0
3863,E-4,360.0,1.0,100,140.0
3864,G#4,360.0,4.0,100,140.0
3865,C#4,360.0,0.25,127,140.0
3866,C2,360.0,0.5,100,140.0
3867,G#2,360.0,0.5,100,140.0
3868,C4,360.25,0.25,127,140.0
3869,F4,360.5,0.5,100,140.0
3870,B-5,360.5,0.5,100,140.0
3871,F2,360.5,0.5,100,140.0
3872,G#3,360.5,0.25,127,140.0
3873,F3,360.75,0.25,127,140.0
3874,C5,361.0,1.0,100,140.0
3875,F1,361.0,1.0,100,140.0
3876,C#4,361.0,0.25,127,140.0
3877,G#2,361.0,0.5,100,140.0
3878,C2,361.0,0.5,100,140.0
3879,C4,361.25,0.25,127,140.0
3880,F4,361.5,0.5,100,140.0
3881,B-5,361.5,0.5,100,140.0
3882,F2,361.5,0.5,100,140.0
3883,G#3,361.5,0.25,127,140.0
3884,F3,361.75,0.25,127,140.0
3885,C5,362.0,1.0,100,140.0
3886,F1,362.0,1.0,100,140.0
3887,C#4,362.0,0.25,127,140.0
3888,G#2,362.0,0.5,100,140.0
3889,C2,362.0,0.5,100,140.0
3890,C4,362.25,0.25,127,140.0
3891,F4,362.5,0.5,100,140.0
3892,B-5,362.5,0.5,100,140.0
3893,F2,362.5,0.5,100,140.0
3894,G#3,362.5,0.25,127,140.0
3895,F3,362.75,0.25,127,140.0
3896,C5,363.0,1.0,100,140.0
3897,F1,363.0,1.0,100,140.0
3898,C#4,363.0,0.25,127,140.0
3899,C2,363.0,0.5,100,140.0
3900,G#2,363.0,0.5,100,140.0
3901,C4,363.25,0.25,127,140.0
3902,F4,363.5,0.5,100,140.0
3903,B-5,363.5,0.5,100,140.0
3904,F2,363.5,0.5,100,140.0
3905,G#3,363.5,0.25,127,140.0
3906,F3,363.75,0.25,127,140.0
3907,F1,364.0,1.0,100,140.0
3908,C5,364.0,4.0,100,140.0
3909,G4,364.0,4.0,100,140.0
3910,C#4,364.0,4.0,100,140.0
3911,C#4,364.0,0.25,127,140.0
3912,G4,364.0,4.0,100,140.0
3913,G5,364.0,4.0,100,140.0
3914,E-4,364.0,4.0,100,140.0
3915,C#5,364.0,4.0,100,140.0
3916,C2,364.0,0.5,100,140.0
3917,G#2,364.0,0.5,100,140.0
3918,C4,364.25,0.25,127,140.0
3919,B-5,364.5,0.5,100,140.0
3920,F2,364.5,0.5,100,140.0
3921,G#3,364.5,0.25,127,140.0
3922,F3,364.75,0.25,127,140.0
3923,F1,365.0,1.0,100,140.0
3924,C#4,365.0,0.25,127,140.0
3925,C2,365.0,0.5,100,140.0
3926,G#2,365.0,0.5,100,140.0
3927,C4,365.25,0.25,127,140.0
3928,B-5,365.5,0.5,100,140.0
3929,F2,365.5,0.5,100,140.0
3930,G#3,365.5,0.25,127,140.0
3931,F3,365.75,0.25,127,140.0
3932,F1,366.0,1.0,100,140.0
3933,C#4,366.0,0.25,127,140.0
3934,C2,366.0,0.5,100,140.0
3935,G#2,366.0,0.5,100,140.0
3936,C4,366.25,0.25,127,140.0
3937,B-5,366.5,0.5,100,140.0
3938,F2,366.5,0.5,100,140.0
3939,G#3,366.5,0.25,127,140.0
3940,F3,366.75,0.25,127,140.0
3941,F4,367.0,0.25,120,140.0
3942,F1,367.0,1.0,100,140.0
3943,C#4,367.0,0.25,127,140.0
3944,G#2,367.0,0.5,100,140.0
3945,C2,367.0,0.5,100,140.0
3946,G4,367.233,0.25,120,140.0
3947,C4,367.25,0.25,127,140.0
3948,G#4,367.5,0.25,120,140.0
3949,B-5,367.5,0.5,100,140.0
3950,F2,367.5,0.5,100,140.0
3951,G#3,367.5,0.25,127,140.0
3952,C2,367.5,0.25,100,140.0
3953,G2,367.5,0.25,100,140.0
3954,D2,367.5,0.25,100,140.0
3955,C5,367.75,0.25,120,140.0
3956,F3,367.75,0.25,127,140.0
3957,C2,367.75,0.25,100,140.0
3958,D2,367.75,0.25,100,140.0
3959,G2,367.75,0.25,100,140.0
3960,F5,368.0,4.0,120,140.0
3961,F4,368.0,0.25,100,140.0
3962,C#2,368.0,1.0,100,140.0
3963,F5,368.0,4.0,100,140.0
3964,F4,368.0,0.25,127,140.0
3965,C5,368.0,4.0,100,140.0
3966,F4,368.0,4.0,100,140.0
3967,G#5,368.0,4.0,100,140.0
3968,G#4,368.0,4.0,100,140.0
3969,C4,368.0,4.0,100,140.0
3970,C#3,368.0,0.5,100,140.0
3971,G#2,368.0,0.5,100,140.0
3972,C2,368.0,0.5,100,140.0
3973,A3,368.0,0.5,100,140.0
3974,G4,368.233,0.25,100,140.0
3975,C#4,368.25,0.25,127,140.0
3976,G#4,368.5,0.25,100,140.0
3977,B-5,368.5,0.5,100,140.0
3978,C#3,368.5,0.5,100,140.0
3979,G#3,368.5,0.25,127,140.0
3980,F4,368.5,0.125,100,140.0
3981,C5,368.75,0.25,100,140.0
3982,F3,368.75,0.25,127,140.0
3983,F5,369.0,0.5,100,140.0
3984,F4,369.0,0.25,100,140.0
3985,C#2,369.0,1.0,100,140.0
3986,F4,369.0,0.25,127,140.0
3987,C2,369.0,0.5,100,140.0
3988,G#2,369.0,0.5,100,140.0
3989,G4,369.233,0.25,100,140.0
3990,C#4,369.25,0.25,127,140.0
3991,G#4,369.5,0.25,100,140.0
3992,B-5,369.5,0.5,100,140.0
3993,C#3,369.5,0.5,100,140.0
3994,G#3,369.5,0.25,127,140.0
3995,F3,369.5,0.625,127,140.0
3996,F3,369.5,0.625,100,140.0
3997,C5,369.75,0.25,100,140.0
3998,F3,369.75,0.25,127,140.0
3999,F5,370.0,0.5,100,140.0
4000,F4,370.0,0.25,100,140.0
4001,C#2,370.0,1.0,100,140.0
4002,F4,370.0,0.25,127,140.0
4003,G#2,370.0,0.5,100,140.0
4004,C2,370.0,0.5,100,140.0
4005,G4,370.233,0.25,100,140.0
4006,C#4,370.25,0.25,127,140.0
4007,G#4,370.5,0.25,100,140.0
4008,B-5,370.5,0.5,100,140.0
4009,C#3,370.5,0.5,100,140.0
4010,G#3,370.5,0.25,127,140.0
4011,F3,370.5,26/125,127,140.0
4012,F3,370.5,26/125,100,140.0
4013,C5,370.75,0.25,100,140.0
4014,F3,370.75,0.25,127,140.0
4015,F5,371.0,0.5,100,140.0
4016,F4,371.0,0.25,100,140.0
4017,C#2,371.0,1.0,100,140.0
4018,F4,371.0,0.25,127,140.0
4019,C2,371.0,0.5,100,140.0
4020,G#2,371.0,0.5,100,140.0
4021,G4,371.233,0.25,100,140.0
4022,C#4,371.25,0.25,127,140.0
4023,G#4,371.5,0.25,100,140.0
4024,B-5,371.5,0.5,100,140.0
4025,C#3,371.5,0.5,100,140.0
4026,G#3,371.5,0.25,127,140.0
4027,F4,371.5,0.5,127,140.0
4028,F4,371.5,0.5,100,140.0
4029,C5,371.75,0.25,100,140.0
4030,F3,371.75,0.25,127,140.0
4031,F5,372.0,2.0,120,140.0
4032,F5,372.0,0.5,100,140.0
4033,F4,372.0,0.25,100,140.0
4034,B-1,372.0,1.0,100,140.0
4035,F5,372.0,4.0,100,140.0
4036,F4,372.0,0.25,127,140.0
4037,F4,372.0,0.125,127,140.0
4038,F4,372.0,0.125,100,140.0
4039,C2,372.0,0.5,100,140.0
4040,G#2,372.0,0.5,100,140.0
4041,G4,372.233,0.25,100,140.0
4042,C#4,372.25,0.25,127,140.0
4043,G#4,372.5,0.25,100,140.0
4044,B-5,372.5,0.5,100,140.0
4045,B-2,372.5,0.5,100,140.0
4046,B-3,372.5,0.25,127,140.0
4047,F4,372.5,0.25,127,140.0
4048,F4,372.5,26/125,100,140.0
4049,C5,372.75,0.25,100,140.0
4050,F3,372.75,0.25,127,140.0
4051,F5,373.0,0.5,100,140.0
4052,F4,373.0,0.25,100,140.0
4053,B-1,373.0,1.0,100,140.0
4054,F4,373.0,0.25,127,140.0
4055,G#2,373.0,0.5,100,140.0
4056,C2,373.0,0.5,100,140.0
4057,G4,373.233,0.25,100,140.0
4058,C#4,373.25,0.25,127,140.0
4059,G#4,373.5,0.25,100,140.0
4060,B-5,373.5,0.5,100,140.0
4061,B-2,373.5,0.5,100,140.0
4062,B-3,373.5,0.25,127,140.0
4063,F3,373.5,0.625,127,140.0
4064,F3,373.5,0.625,100,140.0
4065,C5,373.75,0.25,100,140.0
4066,F3,373.75,0.25,127,140.0
4067,B-1,374.0,1.0,100,140.0
4068,G4,374.0,0.25,127,140.0
4069,C2,374.0,0.5,100,140.0
4070,G#2,374.0,0.5,100,140.0
4071,G#5,374.025,1.0,120,140.0
4072,E-4,374.25,0.25,127,140.0
4073,B-5,374.5,0.5,100,140.0
4074,B-2,374.5,0.5,100,140.0
4075,B-3,374.5,0.25,127,140.0
4076,F3,374.5,0.25,127,140.0
4077,F3,374.5,26/125,100,140.0
4078,G3,374.75,0.25,127,140.0
4079,G5,374.975,0.5,120,140.0
4080,G5,375.0,0.5,100,140.0
4081,B-1,375.0,1.0,100,140.0
4082,G4,375.0,0.25,127,140.0
4083,C2,375.0,0.5,100,140.0
4084,G#2,375.0,0.5,100,140.0
4085,E-4,375.25,0.25,127,140.0
4086,E-5,375.5,0.5,120,140.0
4087,E-5,375.5,0.5,100,140.0
4088,C2,375.5,0.25,100,140.0
4089,B-5,375.5,0.5,100,140.0
4090,B-2,375.5,0.5,100,140.0
4091,B-3,375.5,0.25,127,140.0
4092,F4,375.5,0.5,127,140.0
4093,F4,375.5,0.5,100,140.0
4094,G3,375.75,0.25,127,140.0
4095,E-5,376.0,4.0,120,140.0
4096,G5,376.0,0.5,100,140.0
4097,F1,376.0,1.0,100,140.0
4098,E-5,376.0,4.0,100,140.0
4099,F5,376.0,1.0,100,140.0
4100,G#4,376.0,0.25,127,140.0
4101,F4,376.0,0.125,127,140.0
4102,F4,376.0,0.125,100,140.0
4103,C5,376.0,4.0,100,140.0
4104,F4,376.0,4.0,100,140.0
4105,G#5,376.0,4.0,100,140.0
4106,G#4,376.0,4.0,100,140.0
4107,C4,376.0,4.0,100,140.0
4108,C2,376.0,0.5,100,140.0
4109,G#2,376.0,0.5,100,140.0
4110,G4,376.25,0.25,127,140.0
4111,E-5,376.5,0.5,100,140.0
4112,B-5,376.5,0.5,100,140.0
4113,F2,376.5,0.5,100,140.0
4114,E-4,376.5,0.25,127,140.0
4115,F4,376.5,26/125,127,140.0
4116,F4,376.5,26/125,100,140.0
4117,C4,376.75,0.25,127,140.0
4118,G5,377.0,0.5,100,140.0
4119,F1,377.0,1.0,100,140.0
4120,G#4,377.0,0.25,127,140.0
4121,C2,377.0,0.5,100,140.0
4122,G#2,377.0,0.5,100,140.0
4123,G4,377.25,0.25,127,140.0
4124,E-5,377.5,0.5,100,140.0
4125,B-5,377.5,0.5,100,140.0
4126,F2,377.5,0.5,100,140.0
4127,E-4,377.5,0.25,127,140.0
4128,F3,377.5,0.625,127,140.0
4129,F3,377.5,0.625,100,140.0
4130,C4,377.75,0.25,127,140.0
4131,G5,378.0,0.5,100,140.0
4132,F1,378.0,1.0,100,140.0
4133,G#4,378.0,0.25,127,140.0
4134,G#2,378.0,0.5,100,140.0
4135,C2,378.0,0.5,100,140.0
4136,G4,378.25,0.25,127,140.0
4137,E-5,378.5,0.5,100,140.0
4138,B-5,378.5,0.5,100,140.0
4139,F2,378.5,0.5,100,140.0
4140,E-4,378.5,0.25,127,140.0
4141,F3,378.5,26/125,127,140.0
4142,F3,378.5,26/125,100,140.0
4143,C4,378.75,0.25,127,140.0
4144,G5,379.0,0.5,100,140.0
4145,F1,379.0,1.0,100,140.0
4146,G#4,379.0,0.25,127,140.0
4147,C2,379.0,0.5,100,140.0
4148,G#2,379.0,0.5,100,140.0
4149,G4,379.25,0.25,127,140.0
4150,E-5,379.5,0.5,100,140.0
4151,B-5,379.5,0.5,100,140.0
4152,F2,379.5,0.5,100,140.0
4153,E-4,379.5,0.25,127,140.0
4154,F4,379.5,0.5,127,140.0
4155,F4,379.5,0.5,100,140.0
4156,C4,379.75,0.25,127,140.0
4157,E-5,380.0,2.0,120,140.0
4158,G5,380.0,0.5,100,140.0
4159,F1,380.0,1.0,100,140.0
4160,E-5,380.0,4.0,100,140.0
4161,F4,380.0,4.0,100,140.0
4162,G#4,380.0,0.25,127,140.0
4163,F4,380.0,0.125,127,140.0
4164,F4,380.0,0.125,100,140.0
4165,G#4,380.0,4.0,100,140.0
4166,F5,380.0,4.0,100,140.0
4167,C2,380.0,0.5,100,140.0
4168,G#2,380.0,0.5,100,140.0
4169,G4,380.25,0.25,127,140.0
4170,E-5,380.5,0.5,100,140.0
4171,B-5,380.5,0.5,100,140.0
4172,F2,380.5,0.5,100,140.0
4173,E-4,380.5,0.25,127,140.0
4174,F4,380.5,26/125,127,140.0
4175,F4,380.5,26/125,100,140.0
4176,C4,380.75,0.25,127,140.0
4177,G5,381.0,0.5,100,140.0
4178,F1,381.0,1.0,100,140.0
4179,G#4,381.0,0.25,127,140.0
4180,G#2,381.0,0.5,100,140.0
4181,C2,381.0,0.5,100,140.0
4182,G4,381.25,0.25,127,140.0
4183,E-5,381.5,0.5,100,140.0
4184,B-5,381.5,0.5,100,140.0
4185,F2,381.5,0.5,100,140.0
4186,E-4,381.5,0.25,127,140.0
4187,F3,381.5,0.625,127,140.0
4188,F3,381.5,0.625,100,140.0
4189,C4,381.75,0.25,127,140.0
4190,G#5,382.0,1.0,120,140.0
4191,F1,382.0,1.0,100,140.0
4192,G#4,382.0,0.25,127,140.0
4193,C2,382.0,0.5,100,140.0
4194,G#2,382.0,0.5,100,140.0
4195,G4,382.25,0.25,127,140.0
4196,E-5,382.5,0.5,100,140.0
4197,B-5,382.5,0.5,100,140.0
4198,F2,382.5,0.5,100,140.0
4199,E-4,382.5,0.25,127,140.0
4200,F3,382.5,26/125,127,140.0
4201,F3,382.5,26/125,100,140.0
4202,C4,382.75,0.25,127,140.0
4203,G5,383.0,0.5,120,140.0
4204,G5,383.0,0.5,100,140.0
4205,F1,383.0,1.0,100,140.0
4206,G#4,383.0,0.25,127,140.0
4207,C2,383.0,0.5,100,140.0
4208,G#2,383.0,0.5,100,140.0
4209,G4,383.25,0.25,127,140.0
4210,C5,383.483,517/1000,120,140.0
4211,C5,383.5,0.5,100,140.0
4212,B-5,383.5,0.5,100,140.0
4213,F2,383.5,0.5,100,140.0
4214,E-4,383.5,0.25,127,140.0
4215,F4,383.5,0.5,127,140.0
4216,F4,383.5,0.125,100,140.0
4217,F4,383.5,0.5,100,140.0
4218,C4,383.75,0.25,127,140.0
4219,C5,384.0,4.0,120,140.0
4220,G5,384.0,0.5,100,140.0
4221,C#2,384.0,1.0,100,140.0
4222,C#5,384.0,4.0,100,140.0
4223,F4,384.0,4.0,100,140.0
4224,F4,384.0,0.25,127,140.0
4225,F4,384.0,0.125,127,140.0
4226,F4,384.0,0.125,100,140.0
4227,G#2,384.0,0.5,100,140.0
4228,C2,384.0,0.5,100,140.0
4229,C#4,384.25,0.25,127,140.0
4230,C5,384.5,0.5,100,140.0
4231,B-5,384.5,0.5,100,140.0
4232,C#3,384.5,0.5,100,140.0
4233,G#3,384.5,0.25,127,140.0
4234,F4,384.5,26/125,127,140.0
4235,F3,384.5,0.625,100,140.0
4236,F4,384.5,26/125,100,140.0
4237,F3,384.75,0.25,127,140.0
4238,G5,385.0,0.5,100,140.0
4239,C#2,385.0,1.0,100,140.0
4240,F4,385.0,0.25,127,140.0
4241,G#2,385.0,0.5,100,140.0
4242,C2,385.0,0.5,100,140.0
4243,C#4,385.25,0.25,127,140.0
4244,C5,385.5,0.5,100,140.0
4245,B-5,385.5,0.5,100,140.0
4246,C#3,385.5,0.5,100,140.0
4247,G#3,385.5,0.25,127,140.0
4248,F3,385.5,0.625,127,140.0
4249,F3,385.5,26/125,100,140.0
4250,F3,385.5,0.625,100,140.0
4251,F3,385.75,0.25,127,140.0
4252,G5,386.0,0.5,100,140.0
4253,C#2,386.0,1.0,100,140.0
4254,F4,386.0,0.25,127,140.0
4255,C2,386.0,0.5,100,140.0
4256,G#2,386.0,0.5,100,140.0
4257,C#4,386.25,0.25,127,140.0
4258,C5,386.5,0.5,100,140.0
4259,B-5,386.5,0.5,100,140.0
4260,C#3,386.5,0.5,100,140.0
4261,G#3,386.5,0.25,127,140.0
4262,F3,386.5,26/125,127,140.0
4263,F4,386.5,0.5,100,140.0
4264,F3,386.5,26/125,100,140.0
4265,F3,386.75,0.25,127,140.0
4266,G5,387.0,0.5,100,140.0
4267,C#2,387.0,1.0,100,140.0
4268,F4,387.0,0.25,127,140.0
4269,F4,387.0,0.125,100,140.0
4270,G#2,387.0,0.5,100,140.0
4271,C2,387.0,0.5,100,140.0
4272,C#4,387.25,0.25,127,140.0
4273,C5,387.5,0.5,100,140.0
4274,B-5,387.5,0.5,100,140.0
4275,C#3,387.5,0.5,100,140.0
4276,G#3,387.5,0.25,127,140.0
4277,F4,387.5,0.5,127,140.0
4278,F4,387.5,26/125,100,140.0
4279,F4,387.5,0.5,100,140.0
4280,F3,387.75,0.25,127,140.0
4281,C5,388.0,1983/1000,120,140.0
4282,G5,388.0,0.5,100,140.0
4283,B-1,388.0,1.0,100,140.0
4284,E-5,388.0,4.0,100,140.0
4285,C#5,388.0,4.0,100,140.0
4286,F4,388.0,4.0,100,140.0
4287,F4,388.0,0.25,127,140.0
4288,F4,388.0,0.125,127,140.0
4289,F4,388.0,0.125,100,140.0
4290,G#4,388.0,4.0,100,140.0
4291,F5,388.0,4.0,100,140.0
4292,C2,388.0,0.5,100,140.0
4293,G#2,388.0,0.5,100,140.0
4294,C#4,388.25,0.25,127,140.0
4295,C5,388.5,0.5,100,140.0
4296,B-5,388.5,0.5,100,140.0
4297,B-2,388.5,0.5,100,140.0
4298,B-3,388.5,0.25,127,140.0
4299,F4,388.5,26/125,127,140.0
4300,F3,388.5,0.625,100,140.0
4301,F4,388.5,26/125,100,140.0
4302,F3,388.75,0.25,127,140.0
4303,G5,389.0,0.5,100,140.0
4304,B-1,389.0,1.0,100,140.0
4305,F4,389.0,0.25,127,140.0
4306,G#2,389.0,0.5,100,140.0
4307,C2,389.0,0.5,100,140.0
4308,C#4,389.25,0.25,127,140.0
4309,C5,389.5,0.5,100,140.0
4310,B-5,389.5,0.5,100,140.0
4311,B-2,389.5,0.5,100,140.0
4312,B-3,389.5,0.25,127,140.0
4313,F3,389.5,0.625,127,140.0
4314,F3,389.5,26/125,100,140.0
4315,F3,389.5,0.625,100,140.0
4316,F3,389.75,0.25,127,140.0
4317,G#5,389.942,1.0,120,140.0
4318,B-1,390.0,1.0,100,140.0
4319,F4,390.0,0.25,127,140.0
4320,G#2,390.0,0.5,100,140.0
4321,C2,390.0,0.5,100,140.0
4322,C#4,390.25,0.25,127,140.0
4323,C5,390.5,0.5,100,140.0
4324,B-5,390.5,0.5,100,140.0
4325,B-2,390.5,0.5,100,140.0
4326,B-3,390.5,0.25,127,140.0
4327,F3,390.5,26/125,127,140.0
4328,F4,390.5,0.5,100,140.0
4329,F3,390.5,26/125,100,140.0
4330,F3,390.75,0.25,127,140.0
4331,G5,390.95,0.5,120,140.0
4332,G5,391.0,0.5,100,140.0
4333,B-1,391.0,1.0,100,140.0
4334,E-4,391.0,0.25,127,140.0
4335,F4,391.0,0.125,100,140.0
4336,G#2,391.0,0.5,100,140.0
4337,C2,391.0,0.5,100,140.0
4338,C#4,391.25,0.25,127,140.0
4339,G#4,391.5,0.5,100,140.0
4340,B-5,391.5,0.5,100,140.0
4341,B-2,391.5,0.5,100,140.0
4342,B-3,391.5,0.25,127,140.0
4343,F4,391.5,0.5,127,140.0
4344,F4,391.5,26/125,100,140.0
4345,F4,391.5,0.5,100,140.0
4346,G#4,391.525,19/40,120,140.0
4347,F3,391.75,0.25,127,140.0
4348,G#4,392.0,4.0,120,140.0
4349,G5,392.0,0.5,100,140.0
4350,F1,392.0,1.0,100,140.0
4351,G4,392.0,4.0,100,140.0
4352,E-5,392.0,4.0,100,140.0
4353,C5,392.0,4.0,100,140.0
4354,C5,392.0,4.0,100,140.0
4355,E-4,392.0,4.0,100,140.0
4356,F4,392.0,4.0,100,140.0
4357,C#4,392.0,0.25,127,140.0
4358,F4,392.0,0.125,127,140.0
4359,F4,392.0,0.125,100,140.0
4360,G#2,392.0,0.5,100,140.0
4361,C2,392.0,0.5,100,140.0
4362,C4,392.25,0.25,127,140.0
4363,G#4,392.5,0.5,100,140.0
4364,B-5,392.5,0.5,100,140.0
4365,F2,392.5,0.5,100,140.0
4366,G#3,392.5,0.25,127,140.0
4367,F4,392.5,26/125,127,140.0
4368,F3,392.5,0.625,100,140.0
4369,F4,392.5,26/125,100,140.0
4370,F3,392.75,0.25,127,140.0
4371,G5,393.0,0.5,100,140.0
4372,F1,393.0,1.0,100,140.0
4373,C#4,393.0,0.25,127,140.0
4374,G#2,393.0,0.5,100,140.0
4375,C2,393.0,0.5,100,140.0
4376,C4,393.25,0.25,127,140.0
4377,G#4,393.5,0.5,100,140.0
4378,B-5,393.5,0.5,100,140.0
4379,F2,393.5,0.5,100,140.0
4380,G#3,393.5,0.25,127,140.0
4381,F3,393.5,0.625,127,140.0
4382,F3,393.5,26/125,100,140.0
4383,F3,393.5,0.625,100,140.0
4384,F3,393.75,0.25,127,140.0
4385,G5,394.0,0.5,100,140.0
4386,F1,394.0,1.0,100,140.0
4387,C#4,394.0,0.25,127,140.0
4388,C2,394.0,0.5,100,140.0
4389,G#2,394.0,0.5,100,140.0
4390,C4,394.25,0.25,127,140.0
4391,G#4,394.5,0.5,100,140.0
4392,B-5,394.5,0.5,100,140.0
4393,F2,394.5,0.5,100,140.0
4394,G#3,394.5,0.25,127,140.0
4395,F3,394.5,26/125,127,140.0
4396,F4,394.5,0.5,100,140.0
4397,F3,394.5,26/125,100,140.0
4398,F3,394.75,0.25,127,140.0
4399,G5,395.0,0.5,100,140.0
4400,F1,395.0,1.0,100,140.0
4401,C#4,395.0,0.25,127,140.0
4402,F4,395.0,0.125,100,140.0
4403,C2,395.0,0.5,100,140.0
4404,G#2,395.0,0.5,100,140.0
4405,C4,395.25,0.25,127,140.0
4406,G#4,395.5,0.5,100,140.0
4407,B-5,395.5,0.5,100,140.0
4408,F2,395.5,0.5,100,140.0
4409,G#3,395.5,0.25,127,140.0
4410,F4,395.5,0.5,127,140.0
4411,F4,395.5,26/125,100,140.0
4412,F4,395.5,0.5,100,140.0
4413,F3,395.75,0.25,127,140.0
4414,G#4,396.0,81/40,120,140.0
4415,G5,396.0,0.5,100,140.0
4416,F1,396.0,1.0,100,140.0
4417,E-5,396.0,4.0,100,140.0
4418,C5,396.0,4.0,100,140.0
4419,C5,396.0,4.0,100,140.0
4420,C#4,396.0,4.0,100,140.0
4421,E-4,396.0,1.0,100,140.0
4422,G#4,396.0,4.0,100,140.0
4423,C#4,396.0,0.25,127,140.0
4424,F4,396.0,0.125,127,140.0
4425,F4,396.0,0.125,100,140.0
4426,E-4,396.0,4.0,100,140.0
4427,G#4,396.0,4.0,100,140.0
4428,G#2,396.0,0.5,100,140.0
4429,C2,396.0,0.5,100,140.0
4430,C4,396.25,0.25,127,140.0
4431,G#4,396.5,0.5,100,140.0
4432,B-5,396.5,0.5,100,140.0
4433,F2,396.5,0.5,100,140.0
4434,G#3,396.5,0.25,127,140.0
4435,F4,396.5,26/125,127,140.0
4436,F3,396.5,0.625,100,140.0
4437,F4,396.5,26/125,100,140.0
4438,F3,396.75,0.25,127,140.0
4439,G5,397.0,0.5,100,140.0
4440,F1,397.0,1.0,100,140.0
4441,C#4,397.0,0.25,127,140.0
4442,G#2,397.0,0.5,100,140.0
4443,C2,397.0,0.5,100,140.0
4444,C4,397.25,0.25,127,140.0
4445,G#4,397.5,0.5,100,140.0
4446,B-5,397.5,0.5,100,140.0
4447,F2,397.5,0.5,100,140.0
4448,G#3,397.5,0.25,127,140.0
4449,F3,397.5,0.625,127,140.0
4450,F3,397.5,26/125,100,140.0
4451,F3,397.5,0.625,100,140.0
4452,F3,397.75,0.25,127,140.0
4453,G5,398.0,0.5,100,140.0
4454,F1,398.0,1.0,100,140.0
4455,C#4,398.0,0.25,127,140.0
4456,G#2,398.0,0.5,100,140.0
4457,C2,398.0,0.5,100,140.0
4458,C4,398.25,0.25,127,140.0
4459,G#4,398.5,0.5,100,140.0
4460,B-5,398.5,0.5,100,140.0
4461,F2,398.5,0.5,100,140.0
4462,G#3,398.5,0.25,127,140.0
4463,F3,398.5,26/125,127,140.0
4464,F4,398.5,0.5,100,140.0
4465,F3,398.5,26/125,100,140.0
4466,F3,398.75,0.25,127,140.0
4467,F4,399.0,0.25,120,140.0
4468,F4,399.0,0.5,100,140.0
4469,F1,399.0,1.0,100,140.0
4470,C#4,399.0,0.25,127,140.0
4471,F4,399.0,0.125,100,140.0
4472,G#2,399.0,0.5,100,140.0
4473,C2,399.0,0.5,100,140.0
4474,G4,399.233,0.25,120,140.0
4475,C4,399.25,0.25,127,140.0
4476,G#4,399.5,0.25,120,140.0
4477,B-5,399.5,0.5,100,140.0
4478,F2,399.5,0.5,100,140.0
4479,G#3,399.5,0.25,127,140.0
4480,F4,399.5,0.5,127,140.0
4481,F4,399.5,26/125,100,140.0
4482,F4,399.5,0.5,100,140.0
4483,C5,399.75,0.25,120,140.0
4484,F3,399.75,0.25,127,140.0
4485,F5,400.0,4.0,120,140.0
4486,F5,400.0,1.0,100,140.0
4487,F4,400.0,0.25,100,140.0
4488,C#2,400.0,1.0,100,140.0
4489,E-4,400.0,4.0,100,140.0
4490,F5,400.0,4.0,100,140.0
4491,G4,400.0,4.0,100,140.0
4492,C#4,400.0,4.0,100,140.0
4493,F4,400.0,0.25,127,140.0
4494,F4,400.0,0.125,127,140.0
4495,F4,400.0,0.125,100,140.0
4496,G#4,400.0,4.0,100,140.0
4497,C#5,400.0,4.0,100,140.0
4498,F5,400.0,4.0,100,140.0
4499,G#2,400.0,0.5,100,140.0
4500,C2,400.0,0.5,100,140.0
4501,G4,400.233,0.25,100,140.0
4502,C#4,400.25,0.25,127,140.0
4503,G#4,400.5,0.25,100,140.0
4504,B-5,400.5,0.5,100,140.0
4505,C#3,400.5,0.5,100,140.0
4506,G#3,400.5,0.25,127,140.0
4507,F4,400.5,26/125,127,140.0
4508,F3,400.5,0.625,100,140.0
4509,F4,400.5,26/125,100,140.0
4510,C5,400.75,0.25,100,140.0
4511,F3,400.75,0.25,127,140.0
4512,F5,401.0,1.0,100,140.0
4513,F4,401.0,0.25,100,140.0
4514,C#2,401.0,1.0,100,140.0
4515,F4,401.0,0.25,127,140.0
4516,C2,401.0,0.5,100,140.0
4517,G#2,401.0,0.5,100,140.0
4518,G4,401.233,0.25,100,140.0
4519,C#4,401.25,0.25,127,140.0
4520,G#4,401.5,0.25,100,140.0
4521,B-5,401.5,0.5,100,140.0
4522,C#3,401.5,0.5,100,140.0
4523,G#3,401.5,0.25,127,140.0
4524,F3,401.5,0.625,127,140.0
4525,F3,401.5,26/125,100,140.0
4526,F3,401.5,0.625,100,140.0
4527,C5,401.75,0.25,100,140.0
4528,F3,401.75,0.25,127,140.0
4529,F5,402.0,1.0,100,140.0
4530,F4,402.0,0.25,100,140.0
4531,C#2,402.0,1.0,100,140.0
4532,F4,402.0,0.25,127,140.0
4533,C2,402.0,0.5,100,140.0
4534,G#2,402.0,0.5,100,140.0
4535,G4,402.233,0.25,100,140.0
4536,C#4,402.25,0.25,127,140.0
4537,G#4,402.5,0.25,100,140.0
4538,B-5,402.5,0.5,100,140.0
4539,C#3,402.5,0.5,100,140.0
4540,G#3,402.5,0.25,127,140.0
4541,F3,402.5,26/125,127,140.0
4542,F4,402.5,0.5,100,140.0
4543,F3,402.5,26/125,100,140.0
4544,C5,402.75,0.25,100,140.0
4545,F3,402.75,0.25,127,140.0
4546,F5,403.0,1.0,100,140.0
4547,F4,403.0,0.25,100,140.0
4548,C#2,403.0,1.0,100,140.0
4549,F4,403.0,0.25,127,140.0
4550,F4,403.0,0.125,100,140.0
4551,G#2,403.0,0.5,100,140.0
4552,C2,403.0,0.5,100,140.0
4553,G4,403.233,0.25,100,140.0
4554,C#4,403.25,0.25,127,140.0
4555,G#4,403.5,0.25,100,140.0
4556,B-5,403.5,0.5,100,140.0
4557,C#3,403.5,0.5,100,140.0
4558,G#3,403.5,0.25,127,140.0
4559,F4,403.5,0.5,127,140.0
4560,F4,403.5,26/125,100,140.0
4561,F4,403.5,0.5,100,140.0
4562,C5,403.75,0.25,100,140.0
4563,F3,403.75,0.25,127,140.0
4564,F5,404.0,2.0,120,140.0
4565,F5,404.0,1.0,100,140.0
4566,F4,404.0,0.25,100,140.0
4567,B-1,404.0,1.0,100,140.0
4568,C5,404.0,4.0,100,140.0
4569,E-4,404.0,4.0,100,140.0
4570,F5,404.0,4.0,100,140.0
4571,F4,404.0,0.25,127,140.0
4572,F4,404.0,0.125,127,140.0
4573,F4,404.0,0.125,100,140.0
4574,G4,404.0,4.0,100,140.0
4575,G5,404.0,4.0,100,140.0
4576,G#4,404.0,4.0,100,140.0
4577,C4,404.0,4.0,100,140.0
4578,G#2,404.0,0.5,100,140.0
4579,C2,404.0,0.5,100,140.0
4580,G4,404.233,0.25,100,140.0
4581,C#4,404.25,0.25,127,140.0
4582,G#4,404.5,0.25,100,140.0
4583,B-5,404.5,0.5,100,140.0
4584,B-2,404.5,0.5,100,140.0
4585,B-3,404.5,0.25,127,140.0
4586,F4,404.5,0.25,127,140.0
4587,F3,404.5,0.625,100,140.0
4588,F4,404.5,26/125,100,140.0
4589,C5,404.75,0.25,100,140.0
4590,F3,404.75,0.25,127,140.0
4591,F5,405.0,1.0,100,140.0
4592,F4,405.0,0.25,100,140.0
4593,B-1,405.0,1.0,100,140.0
4594,F4,405.0,0.25,127,140.0
4595,C2,405.0,0.5,100,140.0
4596,G#2,405.0,0.5,100,140.0
4597,G4,405.233,0.25,100,140.0
4598,C#4,405.25,0.25,127,140.0
4599,G#4,405.5,0.25,100,140.0
4600,B-5,405.5,0.5,100,140.0
4601,B-2,405.5,0.5,100,140.0
4602,B-3,405.5,0.25,127,140.0
4603,F3,405.5,0.625,127,140.0
4604,F3,405.5,26/125,100,140.0
4605,F3,405.5,0.625,100,140.0
4606,C5,405.75,0.25,100,140.0
4607,F3,405.75,0.25,127,140.0
4608,B-1,406.0,1.0,100,140.0
4609,G4,406.0,0.25,127,140.0
4610,C2,406.0,0.5,100,140.0
4611,G#2,406.0,0.5,100,140.0
4612,G#5,406.025,1.0,120,140.0
4613,E-4,406.25,0.25,127,140.0
4614,B-5,406.5,0.5,100,140.0
4615,B-2,406.5,0.5,100,140.0
4616,B-3,406.5,0.25,127,140.0
4617,F3,406.5,0.25,127,140.0
4618,F4,406.5,0.5,100,140.0
4619,F3,406.5,26/125,100,140.0
4620,G3,406.75,0.25,127,140.0
4621,G5,406.975,0.5,120,140.0
4622,G5,407.0,1.0,100,140.0
4623,B-1,407.0,1.0,100,140.0
4624,G4,407.0,0.25,127,140.0
4625,F4,407.0,0.125,100,140.0
4626,G#2,407.0,0.5,100,140.0
4627,C2,407.0,0.5,100,140.0
4628,E-4,407.25,0.25,127,140.0
4629,E-5,407.5,0.5,120,140.0
4630,E-5,407.5,0.5,100,140.0
4631,B-5,407.5,0.5,100,140.0
4632,B-2,407.5,0.5,100,140.0
4633,B-3,407.5,0.25,127,140.0
4634,F4,407.5,0.5,127,140.0
4635,F4,407.5,26/125,100,140.0
4636,F4,407.5,0.5,100,140.0
4637,G3,407.75,0.25,127,140.0
4638,E-5,408.0,4.0,120,140.0
4639,G5,408.0,1.0,100,140.0
4640,F1,408.0,1.0,100,140.0
4641,C5,408.0,4.0,100,140.0
4642,E-5,408.0,4.0,100,140.0
4643,G#4,408.0,0.25,127,140.0
4644,F4,408.0,0.125,127,140.0
4645,F4,408.0,0.125,100,140.0
4646,F4,408.0,4.0,100,140.0
4647,G#5,408.0,4.0,100,140.0
4648,C2,408.0,0.5,100,140.0
4649,G#2,408.0,0.5,100,140.0
4650,G4,408.25,0.25,127,140.0
4651,E-5,408.5,0.5,100,140.0
4652,B-5,408.5,0.5,100,140.0
4653,F2,408.5,0.5,100,140.0
4654,E-4,408.5,0.25,127,140.0
4655,F4,408.5,26/125,127,140.0
4656,F3,408.5,0.625,100,140.0
4657,F4,408.5,26/125,100,140.0
4658,C4,408.75,0.25,127,140.0
4659,G5,409.0,1.0,100,140.0
4660,F1,409.0,1.0,100,140.0
4661,G#4,409.0,0.25,127,140.0
4662,C2,409.0,0.5,100,140.0
4663,G#2,409.0,0.5,100,140.0
4664,G4,409.25,0.25,127,140.0
4665,E-5,409.5,0.5,100,140.0
4666,B-5,409.5,0.5,100,140.0
4667,F2,409.5,0.5,100,140.0
4668,E-4,409.5,0.25,127,140.0
4669,F3,409.5,0.625,127,140.0
4670,F3,409.5,26/125,100,140.0
4671,F3,409.5,0.625,100,140.0
4672,C4,409.75,0.25,127,140.0
4673,G5,410.0,1.0,100,140.0
4674,F1,410.0,1.0,100,140.0
4675,G#4,410.0,0.25,127,140.0
4676,G#2,410.0,0.5,100,140.0
4677,C2,410.0,0.5,100,140.0
4678,G4,410.25,0.25,127,140.0
4679,E-5,410.5,0.5,100,140.0
4680,B-5,410.5,0.5,100,140.0
4681,F2,410.5,0.5,100,140.0
4682,E-4,410.5,0.25,127,140.0
4683,F3,410.5,26/125,127,140.0
4684,F4,410.5,0.5,100,140.0
4685,F3,410.5,26/125,100,140.0
4686,C4,410.75,0.25,127,140.0
4687,G5,411.0,1.0,100,140.0
4688,F1,411.0,1.0,100,140.0
4689,G#4,411.0,0.25,127,140.0
4690,F4,411.0,0.125,100,140.0
4691,C2,411.0,0.5,100,140.0
4692,G#2,411.0,0.5,100,140.0
4693,G4,411.25,0.25,127,140.0
4694,E-5,411.5,0.5,100,140.0
4695,B-5,411.5,0.5,100,140.0
4696,F2,411.5,0.5,100,140.0
4697,E-4,411.5,0.25,127,140.0
4698,F4,411.5,0.5,127,140.0
4699,F4,411.5,26/125,100,140.0
4700,F4,411.5,0.5,100,140.0
4701,C4,411.75,0.25,127,140.0
4702,E-5,412.0,2.0,120,140.0
4703,G5,412.0,1.0,100,140.0
4704,F1,412.0,1.0,100,140.0
4705,C5,412.0,4.0,100,140.0
4706,E-5,412.0,4.0,100,140.0
4707,G#4,412.0,0.25,127,140.0
4708,F4,412.0,0.125,127,140.0
4709,F4,412.0,0.125,100,140.0
4710,F4,412.0,4.0,100,140.0
4711,G#5,412.0,4.0,100,140.0
4712,G#4,412.0,4.0,100,140.0
4713,C4,412.0,4.0,100,140.0
4714,C2,412.0,0.5,100,140.0
4715,G#2,412.0,0.5,100,140.0
4716,G4,412.25,0.25,127,140.0
4717,E-5,412.5,0.5,100,140.0
4718,B-5,412.5,0.5,100,140.0
4719,F2,412.5,0.5,100,140.0
4720,E-4,412.5,0.25,127,140.0
4721,F4,412.5,26/125,127,140.0
4722,F3,412.5,0.625,100,140.0
4723,F4,412.5,26/125,100,140.0
4724,C4,412.75,0.25,127,140.0
4725,G5,413.0,1.0,100,140.0
4726,F1,413.0,1.0,100,140.0
4727,G#4,413.0,0.25,127,140.0
4728,G#2,413.0,0.5,100,140.0
4729,C2,413.0,0.5,100,140.0
4730,G4,413.25,0.25,127,140.0
4731,E-5,413.5,0.5,100,140.0
4732,B-5,413.5,0.5,100,140.0
4733,F2,413.5,0.5,100,140.0
4734,E-4,413.5,0.25,127,140.0
4735,F3,413.5,0.625,127,140.0
4736,F3,413.5,26/125,100,140.0
4737,F3,413.5,0.625,100,140.0
4738,C4,413.75,0.25,127,140.0
4739,G5,414.0,1.0,100,140.0
4740,F1,414.0,1.0,100,140.0
4741,G#4,414.0,0.25,127,140.0
4742,G#2,414.0,0.5,100,140.0
4743,C2,414.0,0.5,100,140.0
4744,G4,414.25,0.25,127,140.0
4745,E-5,414.5,0.5,100,140.0
4746,B-5,414.5,0.5,100,140.0
4747,F2,414.5,0.5,100,140.0
4748,E-4,414.5,0.25,127,140.0
4749,F3,414.5,26/125,127,140.0
4750,F4,414.5,0.5,100,140.0
4751,F3,414.5,26/125,100,140.0
4752,C4,414.75,0.25,127,140.0
4753,G5,415.0,1.0,100,140.0
4754,F1,415.0,1.0,100,140.0
4755,G#4,415.0,0.25,127,140.0
4756,F4,415.0,0.125,100,140.0
4757,C2,415.0,0.5,100,140.0
4758,G#2,415.0,0.5,100,140.0
4759,G4,415.25,0.25,127,140.0
4760,B-5,415.5,0.5,100,140.0
4761,F2,415.5,0.5,100,140.0
4762,E-4,415.5,0.25,127,140.0
4763,F4,415.5,0.5,127,140.0
4764,F4,415.5,26/125,100,140.0
4765,F4,415.5,0.5,100,140.0
4766,C#5,415.508,0.25,120,140.0
4767,C4,415.75,0.25,127,140.0
4768,C5,415.758,121/500,120,140.0
4769,C#5,416.0,1.0,120,140.0
4770,C5,416.0,1/125,120,140.0
4771,C#5,416.0,0.25,100,140.0
4772,C#2,416.0,1.0,100,140.0
4773,C#5,416.0,4.0,100,140.0
4774,F4,416.0,4.0,100,140.0
4775,F4,416.0,0.25,127,140.0
4776,F4,416.0,0.125,127,140.0
4777,F4,416.0,0.125,100,140.0
4778,G#4,416.0,4.0,100,140.0
4779,F5,416.0,4.0,100,140.0
4780,G#2,416.0,0.5,100,140.0
4781,C2,416.0,0.5,100,140.0
4782,C5,416.25,0.25,100,140.0
4783,C#4,416.25,0.25,127,140.0
4784,C#5,416.5,1.0,100,140.0
4785,B-5,416.5,0.5,100,140.0
4786,C#3,416.5,0.5,100,140.0
4787,G#3,416.5,0.25,127,140.0
4788,F4,416.5,26/125,127,140.0
4789,F3,416.5,0.625,100,140.0
4790,F4,416.5,26/125,100,140.0
4791,F3,416.75,0.25,127,140.0
4792,C5,417.0,1.0,100,140.0
4793,C#2,417.0,1.0,100,140.0
4794,F4,417.0,0.25,127,140.0
4795,G#2,417.0,0.5,100,140.0
4796,C2,417.0,0.5,100,140.0
4797,C5,417.017,0.5,120,140.0
4798,C#4,417.25,0.25,127,140.0
4799,G#4,417.5,2.5,120,140.0
4800,G#4,417.5,0.5,100,140.0
4801,B-5,417.5,0.5,100,140.0
4802,C#3,417.5,0.5,100,140.0
4803,G#3,417.5,0.25,127,140.0
4804,F3,417.5,0.625,127,140.0
4805,F3,417.5,26/125,100,140.0
4806,F3,417.5,0.625,100,140.0
4807,F3,417.75,0.25,127,140.0
4808,C5,418.0,1.0,100,140.0
4809,C#2,418.0,1.0,100,140.0
4810,F4,418.0,0.25,127,140.0
4811,C2,418.0,0.5,100,140.0
4812,G#2,418.0,0.5,100,140.0
4813,C#4,418.25,0.25,127,140.0
4814,G#4,418.5,0.5,100,140.0
4815,B-5,418.5,0.5,100,140.0
4816,C#3,418.5,0.5,100,140.0
4817,G#3,418.5,0.25,127,140.0
4818,F3,418.5,26/125,127,140.0
4819,F4,418.5,0.5,100,140.0
4820,F3,418.5,26/125,100,140.0
4821,F3,418.75,0.25,127,140.0
4822,C5,419.0,1.0,100,140.0
4823,C#2,419.0,1.0,100,140.0
4824,F4,419.0,0.25,127,140.0
4825,F4,419.0,0.125,100,140.0
4826,C2,419.0,0.5,100,140.0
4827,G#2,419.0,0.5,100,140.0
4828,C#4,419.25,0.25,127,140.0
4829,G#4,419.5,0.5,100,140.0
4830,B-5,419.5,0.5,100,140.0
4831,C#3,419.5,0.5,100,140.0
4832,G#3,419.5,0.25,127,140.0
4833,F4,419.5,0.5,127,140.0
4834,F4,419.5,26/125,100,140.0
4835,F4,419.5,0.5,100,140.0
4836,F3,419.75,0.25,127,140.0
4837,C5,420.0,1.0,100,140.0
4838,B-1,420.0,1.0,100,140.0
4839,C#5,420.0,4.0,100,140.0
4840,F4,420.0,4.0,100,140.0
4841,F4,420.0,0.25,127,140.0
4842,F4,420.0,0.125,127,140.0
4843,F4,420.0,0.125,100,140.0
4844,C2,420.0,0.5,100,140.0
4845,G#2,420.0,0.5,100,140.0
4846,C#4,420.25,0.25,127,140.0
4847,B-5,420.5,0.5,100,140.0
4848,B-2,420.5,0.5,100,140.0
4849,B-3,420.5,0.25,127,140.0
4850,F4,420.5,26/125,127,140.0
4851,F3,420.5,0.625,100,140.0
4852,F4,420.5,26/125,100,140.0
4853,G4,420.508,1.5,120,140.0
4854,F3,420.75,0.25,127,140.0
4855,C5,421.0,1.0,100,140.0
4856,B-1,421.0,1.0,100,140.0
4857,F4,421.0,0.25,127,140.0
4858,C2,421.0,0.5,100,140.0
4859,G#2,421.0,0.5,100,140.0
4860,C#4,421.25,0.25,127,140.0
4861,G4,421.5,1.0,100,140.0
4862,B-5,421.5,0.5,100,140.0
4863,B-2,421.5,0.5,100,140.0
4864,B-3,421.5,0.25,127,140.0
4865,F3,421.5,0.625,127,140.0
4866,F3,421.5,26/125,100,140.0
4867,F3,421.5,0.625,100,140.0
4868,F3,421.75,0.25,127,140.0
4869,G#4,422.0,1.0,120,140.0
4870,B-1,422.0,1.0,100,140.0
4871,F4,422.0,0.25,127,140.0
4872,G#2,422.0,0.5,100,140.0
4873,C2,422.0,0.5,100,140.0
4874,C#4,422.25,0.25,127,140.0
4875,B-5,422.5,0.5,100,140.0
4876,B-2,422.5,0.5,100,140.0
4877,B-3,422.5,0.25,127,140.0
4878,F3,422.5,26/125,127,140.0
4879,F4,422.5,0.5,100,140.0
4880,F3,422.5,26/125,100,140.0
4881,F3,422.75,0.25,127,140.0
4882,C5,422.942,0.5,120,140.0
4883,C5,423.0,1.0,100,140.0
4884,G#4,423.0,0.5,100,140.0
4885,B-1,423.0,1.0,100,140.0
4886,E-4,423.0,0.25,127,140.0
4887,F4,423.0,0.125,100,140.0
4888,G#2,423.0,0.5,100,140.0
4889,C2,423.0,0.5,100,140.0
4890,C#4,423.25,0.25,127,140.0
4891,F4,423.475,21/40,120,140.0
4892,F4,423.5,0.5,100,140.0
4893,B-5,423.5,0.5,100,140.0
4894,B-2,423.5,0.5,100,140.0
4895,B-3,423.5,0.25,127,140.0
4896,F4,423.5,0.5,127,140.0
4897,F4,423.5,26/125,100,140.0
4898,F4,423.5,0.5,100,140.0
4899,F3,423.75,0.25,127,140.0
4900,F4,424.0,159/40,120,140.0
4901,C5,424.0,1.0,100,140.0
4902,F1,424.0,1.0,100,140.0
4903,E-5,424.0,4.0,100,140.0
4904,C5,424.0,4.0,100,140.0
4905,F4,424.0,4.0,100,140.0
4906,C#4,424.0,0.25,127,140.0
4907,F4,424.0,0.125,127,140.0
4908,F4,424.0,0.125,100,140.0
4909,G#4,424.0,4.0,100,140.0
4910,F5,424.0,4.0,100,140.0
4911,G#2,424.0,0.5,100,140.0
4912,C2,424.0,0.5,100,140.0
4913,C4,424.25,0.25,127,140.0
4914,F4,424.5,0.5,100,140.0
4915,B-5,424.5,0.5,100,140.0
4916,F2,424.5,0.5,100,140.0
4917,G#3,424.5,0.25,127,140.0
4918,F4,424.5,26/125,127,140.0
4919,F3,424.5,0.625,100,140.0
4920,F4,424.5,26/125,100,140.0
4921,F3,424.75,0.25,127,140.0
4922,C5,425.0,1.0,100,140.0
4923,F1,425.0,1.0,100,140.0
4924,C#4,425.0,0.25,127,140.0
4925,G#2,425.0,0.5,100,140.0
4926,C2,425.0,0.5,100,140.0
4927,C4,425.25,0.25,127,140.0
4928,F4,425.5,0.5,100,140.0
4929,B-5,425.5,0.5,100,140.0
4930,F2,425.5,0.5,100,140.0
4931,G#3,425.5,0.25,127,140.0
4932,F3,425.5,0.625,127,140.0
4933,F3,425.5,26/125,100,140.0
4934,F3,425.5,0.625,100,140.0
4935,F3,425.75,0.25,127,140.0
4936,C5,426.0,1.0,100,140.0
4937,F1,426.0,1.0,100,140.0
4938,C#4,426.0,0.25,127,140.0
4939,G#2,426.0,0.5,100,140.0
4940,C2,426.0,0.5,100,140.0
4941,C4,426.25,0.25,127,140.0
4942,F4,426.5,0.5,100,140.0
4943,B-5,426.5,0.5,100,140.0
4944,F2,426.5,0.5,100,140.0
4945,G#3,426.5,0.25,127,140.0
4946,F3,426.5,26/125,127,140.0
4947,F4,426.5,0.5,100,140.0
4948,F3,426.5,26/125,100,140.0
4949,F3,426.75,0.25,127,140.0
4950,C5,427.0,1.0,100,140.0
4951,F1,427.0,1.0,100,140.0
4952,C#4,427.0,0.25,127,140.0
4953,F4,427.0,0.125,100,140.0
4954,C2,427.0,0.5,100,140.0
4955,G#2,427.0,0.5,100,140.0
4956,C4,427.25,0.25,127,140.0
4957,F4,427.5,0.5,100,140.0
4958,B-5,427.5,0.5,100,140.0
4959,F2,427.5,0.5,100,140.0
4960,G#3,427.5,0.25,127,140.0
4961,F4,427.5,0.25,127,140.0
4962,F4,427.5,26/125,100,140.0
4963,F4,427.5,26/125,100,140.0
4964,F3,427.75,0.25,127,140.0
4965,F4,427.75,0.25,127,140.0
4966,F4,427.75,0.25,100,140.0
4967,G4,428.0,4.0,100,140.0
4968,E-5,428.0,4.0,100,140.0
4969,C5,428.0,4.0,100,140.0
4970,C5,428.0,4.0,100,140.0
4971,E-4,428.0,4.0,100,140.0
4972,F4,428.0,4.0,100,140.0
4973,F2,428.0,4.0,100,140.0
4974,F4,428.0,0.125,127,140.0
4975,F4,428.0,4.0,127,140.0
4976,F4,428.0,0.125,100,140.0
4977,F2,428.0,4.0,100,140.0
4978,F1,428.0,4.0,100,140.0
4979,A3,428.0,1.0,100,140.0
4980,C#3,428.0,1.0,100,140.0
4981,C2,428.0,1.0,100,140.0
4982,F4,428.25,0.125,127,140.0
4983,F4,428.25,0.125,100,140.0
4984,F4,428.5,0.125,127,140.0
4985,F3,428.5,0.625,100,140.0
4986,F4,428.5,0.125,100,140.0
4987,F4,428.75,0.125,127,140.0
4988,F4,428.75,0.125,100,140.0
4989,F4,429.0,0.125,127,140.0
4990,F4,429.0,0.125,100,140.0
4991,F4,429.25,0.125,127,140.0
4992,F4,429.25,0.125,100,140.0
4993,F4,429.5,0.125,127,140.0
4994,F3,429.5,26/125,100,140.0
4995,F4,429.5,0.125,100,140.0
4996,F4,429.75,0.125,127,140.0
4997,F4,429.75,0.125,100,140.0
4998,F4,430.0,0.125,127,140.0
4999,F4,430.0,0.125,100,140.0
5000,F4,430.25,0.125,127,140.0
5001,F4,430.25,0.125,100,140.0
5002,F4,430.5,0.125,127,140.0
5003,F4,430.5,0.5,100,140.0
5004,F4,430.5,0.125,100,140.0
5005,F4,430.75,0.125,127,140.0
5006,F4,430.75,0.125,100,140.0
5007,F4,431.0,0.125,127,140.0
5008,G#4,431.0,0.25,127,140.0
5009,F4,431.0,0.125,100,140.0
5010,G#4,431.0,0.125,100,140.0
5011,F4,431.25,0.125,127,140.0
5012,G4,431.25,0.25,127,140.0
5013,G4,431.25,0.125,100,140.0
5014,F4,431.5,0.125,127,140.0
5015,E-4,431.5,0.25,127,140.0
5016,F4,431.5,26/125,100,140.0
5017,E-4,431.5,0.125,100,140.0
5018,F4,431.75,0.125,127,140.0
5019,C4,431.75,0.25,127,140.0
5020,C4,431.75,0.125,100,140.0
5021,F1,432.0,1.0,100,140.0
5022,E-5,432.0,4.0,100,140.0
5023,C5,432.0,4.0,100,140.0
5024,C#4,432.0,4.0,100,140.0
5025,E-4,432.0,1.0,100,140.0
5026,G#4,432.0,4.0,100,140.0
5027,C2,432.0,0.5,100,140.0
5028,F4,432.0,0.125,127,140.0
5029,G#4,432.0,0.25,127,140.0
5030,E-4,432.0,4.0,100,140.0
5031,G#4,432.0,4.0,100,140.0
5032,F4,432.25,0.125,127,140.0
5033,G4,432.25,0.25,127,140.0
5034,F2,432.5,0.5,100,140.0
5035,F4,432.5,0.125,127,140.0
5036,E-4,432.5,0.25,127,140.0
5037,F3,432.5,0.625,100,140.0
5038,E-4,432.5,0.5,100,140.0
5039,F4,432.75,0.125,127,140.0
5040,C4,432.75,0.25,127,140.0
5041,F1,433.0,1.0,100,140.0
5042,C2,433.0,0.5,100,140.0
5043,F4,433.0,0.125,127,140.0
5044,G#4,433.0,0.25,127,140.0
5045,F4,433.25,0.125,127,140.0
5046,G4,433.25,0.25,127,140.0
5047,F2,433.5,0.5,100,140.0
5048,F4,433.5,0.125,127,140.0
5049,E-4,433.5,0.25,127,140.0
5050,F3,433.5,26/125,100,140.0
5051,E-4,433.5,0.5,100,140.0
5052,F4,433.75,0.125,127,140.0
5053,C4,433.75,0.25,127,140.0
5054,F1,434.0,1.0,100,140.0
5055,C2,434.0,0.5,100,140.0
5056,F4,434.0,0.125,127,140.0
5057,G#4,434.0,0.25,127,140.0
5058,F4,434.25,0.125,127,140.0
5059,G4,434.25,0.25,127,140.0
5060,F2,434.5,0.5,100,140.0
5061,F4,434.5,0.125,127,140.0
5062,E-4,434.5,0.25,127,140.0
5063,F4,434.5,0.5,100,140.0
5064,E-4,434.5,0.5,100,140.0
5065,F4,434.75,0.125,127,140.0
5066,C4,434.75,0.25,127,140.0
5067,F1,435.0,1.0,100,140.0
5068,C2,435.0,0.5,100,140.0
5069,F4,435.0,0.125,127,140.0
5070,G#4,435.0,0.25,127,140.0
5071,F4,435.0,0.125,100,140.0
5072,F4,435.25,0.125,127,140.0
5073,G4,435.25,0.25,127,140.0
5074,F2,435.5,0.5,100,140.0
5075,F4,435.5,0.125,127,140.0
5076,E-4,435.5,0.25,127,140.0
5077,F4,435.5,26/125,100,140.0
5078,E-4,435.5,0.5,100,140.0
5079,F4,435.75,0.125,127,140.0
5080,C4,435.75,0.25,127,140.0
5081,F1,436.0,1.0,100,140.0
5082,G4,436.0,4.0,100,140.0
5083,C#4,436.0,4.0,100,140.0
5084,C2,436.0,0.5,100,140.0
5085,G#4,436.0,0.25,127,140.0
5086,E-4,436.0,4.0,100,140.0
5087,C#5,436.0,4.0,100,140.0
5088,G#4,436.0,4.0,100,140.0
5089,F5,436.0,4.0,100,140.0
5090,G4,436.25,0.25,127,140.0
5091,F2,436.5,0.5,100,140.0
5092,E-4,436.5,0.25,127,140.0
5093,F3,436.5,0.625,100,140.0
5094,E-4,436.5,0.5,100,140.0
5095,C4,436.75,0.25,127,140.0
5096,F1,437.0,1.0,100,140.0
5097,C2,437.0,0.5,100,140.0
5098,G#4,437.0,0.25,127,140.0
5099,G4,437.25,0.25,127,140.0
5100,F2,437.5,0.5,100,140.0
5101,E-4,437.5,0.25,127,140.0
5102,F3,437.5,26/125,100,140.0
5103,E-4,437.5,0.5,100,140.0
5104,C4,437.75,0.25,127,140.0
5105,F1,438.0,1.0,100,140.0
5106,C2,438.0,0.5,100,140.0
5107,G#4,438.0,0.25,127,140.0
5108,G4,438.25,0.25,127,140.0
5109,F2,438.5,0.5,100,140.0
5110,E-4,438.5,0.25,127,140.0
5111,F4,438.5,0.5,100,140.0
5112,E-4,438.5,0.5,100,140.0
5113,C4,438.75,0.25,127,140.0
5114,F1,439.0,1.0,100,140.0
5115,C2,439.0,0.5,100,140.0
5116,G#4,439.0,0.25,127,140.0
5117,F4,439.0,0.125,100,140.0
5118,G4,439.25,0.25,127,140.0
5119,F2,439.5,0.5,100,140.0
5120,E-4,439.5,0.25,127,140.0
5121,F4,439.5,26/125,100,140.0
5122,E-4,439.5,0.5,100,140.0
5123,C4,439.75,0.25,127,140.0
5124,F1,440.0,1.0,100,140.0
5125,G#4,440.0,4.0,100,140.0
5126,C4,440.0,4.0,100,140.0
5127,C2,440.0,0.5,100,140.0
5128,F2,440.5,0.5,100,140.0
5129,F3,440.5,0.625,100,140.0
5130,F1,441.0,1.0,100,140.0
5131,C2,441.0,0.5,100,140.0
5132,F2,441.5,0.5,100,140.0
5133,F3,441.5,26/125,100,140.0
5134,F1,442.0,1.0,100,140.0
5135,C2,442.0,0.5,100,140.0
5136,F2,442.5,0.5,100,140.0
5137,F4,442.5,0.25,100,140.0
5138,F4,442.75,0.25,100,140.0
5139,F1,443.0,1.0,100,140.0
5140,C2,443.0,0.5,100,140.0
5141,F4,443.0,0.125,100,140.0
5142,F4,443.25,0.125,100,140.0
5143,F2,443.5,0.5,100,140.0
5144,F4,443.5,0.125,100,140.0
5145,F4,443.75,0.125,100,140.0
5146,F1,444.0,1.0,100,140.0
5147,C4,444.0,4.0,100,140.0
5148,C2,444.0,0.5,100,140.0
5149,F4,444.0,0.125,100,140.0
5150,G4,444.0,4.0,100,140.0
5151,G5,444.0,4.0,100,140.0
5152,E-4,444.0,4.0,100,140.0
5153,C#5,444.0,4.0,100,140.0
5154,F3,444.0,4.0,100,140.0
5155,F4,444.0,4.0,100,140.0
5156,F4,444.25,0.125,100,140.0
5157,F2,444.5,0.5,100,140.0
5158,F4,444.5,0.125,100,140.0
5159,F4,444.75,0.125,100,140.0
5160,F1,445.0,1.0,100,140.0
5161,C2,445.0,0.5,100,140.0
5162,F4,445.0,0.125,100,140.0
5163,F4,445.25,0.125,100,140.0
5164,F2,445.5,0.5,100,140.0
5165,F4,445.5,0.125,100,140.0
5166,F4,445.75,0.125,100,140.0
5167,F1,446.0,1.0,100,140.0
5168,C2,446.0,0.5,100,140.0
5169,G#4,446.0,0.125,100,140.0
5170,G4,446.25,0.125,100,140.0
5171,F2,446.5,0.5,100,140.0
5172,E-4,446.5,0.125,100,140.0
5173,C4,446.75,0.125,100,140.0
5174,F1,447.0,1.0,100,140.0
5175,C2,447.0,0.5,100,140.0
5176,G4,447.0,0.5,100,140.0
5177,C2,447.5,0.5,100,140.0
5178,F2,447.5,0.5,100,140.0
5179,F1,448.0,1.0,100,140.0
5180,C4,448.0,4.0,100,140.0
5181,C2,448.0,0.5,100,140.0
5182,G4,448.0,0.5,100,140.0
5183,F5,448.0,0.25,100,140.0
5184,C5,448.0,4.0,100,140.0
5185,F4,448.0,4.0,100,140.0
5186,G#5,448.0,4.0,100,140.0
5187,F3,448.0,4.0,100,140.0
5188,F4,448.0,4.0,100,140.0
5189,C4,448.0,4.0,127,140.0
5190,F4,448.0,4.0,127,140.0
5191,F5,448.25,0.25,100,140.0
5192,F2,448.5,0.5,100,140.0
5193,F5,448.5,0.25,100,140.0
5194,F5,448.75,0.25,100,140.0
5195,F1,449.0,1.0,100,140.0
5196,C2,449.0,0.5,100,140.0
5197,G4,449.0,0.5,100,140.0
5198,F5,449.0,0.25,100,140.0
5199,F5,449.25,0.25,100,140.0
5200,F2,449.5,0.5,100,140.0
5201,F5,449.5,0.25,100,140.0
5202,F5,449.75,0.25,100,140.0
5203,F1,450.0,1.0,100,140.0
5204,C2,450.0,0.5,100,140.0
5205,G4,450.0,0.5,100,140.0
5206,F5,450.0,0.25,100,140.0
5207,G#4,450.0,0.25,127,140.0
5208,E-5,450.0,0.25,127,140.0
5209,E-5,450.0,0.25,100,140.0
5210,G#4,450.0,0.25,100,140.0
5211,F5,450.25,0.25,100,140.0
5212,F2,450.5,0.5,100,140.0
5213,F5,450.5,0.25,100,140.0
5214,F5,450.75,0.25,100,140.0
5215,F1,451.0,1.0,100,140.0
5216,C2,451.0,0.5,100,140.0
5217,G4,451.0,0.5,100,140.0
5218,F5,451.0,0.25,100,140.0
5219,F5,451.25,0.25,100,140.0
5220,F2,451.5,0.5,100,140.0
5221,F5,451.5,0.25,100,140.0
5222,F5,451.75,0.25,100,140.0
5223,F1,452.0,1.0,100,140.0
5224,C4,452.0,4.0,100,140.0
5225,C2,452.0,0.5,100,140.0
5226,G4,452.0,0.5,100,140.0
5227,F5,452.0,0.25,100,140.0
5228,F3,452.0,4.0,100,140.0
5229,F4,452.0,4.0,100,140.0
5230,F5,452.25,0.25,100,140.0
5231,F2,452.5,0.5,100,140.0
5232,F5,452.5,0.25,100,140.0
5233,F5,452.75,0.25,100,140.0
5234,F1,453.0,1.0,100,140.0
5235,C2,453.0,0.5,100,140.0
5236,G4,453.0,0.5,100,140.0
5237,F5,453.0,0.25,100,140.0
5238,F5,453.25,0.25,100,140.0
5239,F2,453.5,0.5,100,140.0
5240,F5,453.5,0.25,100,140.0
5241,F5,453.75,0.25,100,140.0
5242,F1,454.0,1.0,100,140.0
5243,C2,454.0,0.5,100,140.0
5244,G4,454.0,0.5,100,140.0
5245,F5,454.0,0.25,100,140.0
5246,G#4,454.0,0.25,127,140.0
5247,E-5,454.0,0.25,127,140.0
5248,E-5,454.0,0.25,100,140.0
5249,G#4,454.0,0.25,100,140.0
5250,F5,454.25,0.25,100,140.0
5251,F2,454.5,0.5,100,140.0
5252,F5,454.5,0.25,100,140.0
5253,F5,454.75,0.25,100,140.0
5254,F1,455.0,1.0,100,140.0
5255,C2,455.0,0.5,100,140.0
5256,F5,455.0,0.25,100,140.0
5257,F5,455.25,0.25,100,140.0
5258,F2,455.5,0.5,100,140.0
5259,F5,455.5,0.25,100,140.0
5260,G#4,455.5,0.125,100,140.0
5261,G#4,455.5,0.125,127,140.0
5262,F4,455.5,0.125,127,140.0
5263,G#4,455.625,0.125,100,140.0
5264,G#4,455.625,0.125,127,140.0
5265,F4,455.625,0.125,127,140.0
5266,C2,455.75,0.25,100,140.0
5267,F5,455.75,0.25,100,140.0
5268,G#4,455.75,0.125,100,140.0
5269,G#4,455.75,0.125,127,140.0
5270,F4,455.75,0.125,127,140.0
5271,G#4,455.875,0.125,100,140.0
5272,G#4,455.875,0.125,127,140.0
5273,F4,455.875,0.125,127,140.0
5274,F1,456.0,1.0,100,140.0
5275,C2,456.0,0.5,100,140.0
5276,F5,456.0,0.25,100,140.0
5277,G#4,456.0,26/125,100,140.0
5278,C5,456.0,4.0,100,140.0
5279,F4,456.0,4.0,100,140.0
5280,G#5,456.0,4.0,100,140.0
5281,F4,456.0,26/125,127,140.0
5282,G#4,456.0,26/125,127,140.0
5283,F5,456.25,0.25,100,140.0
5284,F2,456.5,0.5,100,140.0
5285,F5,456.5,0.25,100,140.0
5286,F5,456.75,0.25,100,140.0
5287,F1,457.0,1.0,100,140.0
5288,C2,457.0,0.5,100,140.0
5289,F5,457.0,0.25,100,140.0
5290,F5,457.25,0.25,100,140.0
5291,F2,457.5,0.5,100,140.0
5292,F5,457.5,0.25,100,140.0
5293,F5,457.75,0.25,100,140.0
5294,F1,458.0,1.0,100,140.0
5295,C2,458.0,0.5,100,140.0
5296,F5,458.0,0.25,100,140.0
5297,G#4,458.0,0.25,127,140.0
5298,E-5,458.0,0.25,127,140.0
5299,E-5,458.0,0.25,100,140.0
5300,G#4,458.0,0.25,100,140.0
5301,F5,458.25,0.25,100,140.0
5302,F2,458.5,0.5,100,140.0
5303,F5,458.5,0.25,100,140.0
5304,F5,458.75,0.25,100,140.0
5305,F1,459.0,1.0,100,140.0
5306,C2,459.0,0.5,100,140.0
5307,F5,459.0,0.25,100,140.0
5308,F5,459.25,0.25,100,140.0
5309,F2,459.5,0.5,100,140.0
5310,F5,459.5,0.25,100,140.0
5311,F5,459.75,0.25,100,140.0
5312,F1,460.0,1.0,100,140.0
5313,C2,460.0,0.5,100,140.0
5314,F5,460.0,0.25,100,140.0
5315,G#4,460.0,4.0,100,140.0
5316,F5,460.0,4.0,100,140.0
5317,F5,460.25,0.25,100,140.0
5318,F2,460.5,0.5,100,140.0
5319,F5,460.5,0.25,100,140.0
5320,F5,460.75,0.25,100,140.0
5321,F1,461.0,1.0,100,140.0
5322,C2,461.0,0.5,100,140.0
5323,F5,461.0,0.25,100,140.0
5324,F5,461.25,0.25,100,140.0
5325,F2,461.5,0.5,100,140.0
5326,F5,461.5,0.25,100,140.0
5327,F5,461.75,0.25,100,140.0
5328,F1,462.0,1.0,100,140.0
5329,C2,462.0,0.5,100,140.0
5330,F5,462.0,0.25,100,140.0
5331,G#4,462.0,0.25,127,140.0
5332,E-5,462.0,0.25,127,140.0
5333,E-5,462.0,0.25,100,140.0
5334,G#4,462.0,0.25,100,140.0
5335,F5,462.25,0.25,100,140.0
5336,F2,462.5,0.5,100,140.0
5337,F5,462.5,0.25,100,140.0
5338,F5,462.75,0.25,100,140.0
5339,F1,463.0,1.0,100,140.0
5340,C2,463.0,0.5,100,140.0
5341,F5,463.0,0.125,100,140.0
5342,F5,463.0,0.25,100,140.0
5343,E-5,463.25,0.125,100,140.0
5344,F5,463.25,0.25,100,140.0
5345,F2,463.5,0.5,100,140.0
5346,C#5,463.5,0.125,100,140.0
5347,F5,463.5,0.25,100,140.0
5348,G#4,463.5,0.125,100,140.0
5349,G#4,463.5,0.125,127,140.0
5350,F4,463.5,0.125,127,140.0
5351,G#4,463.625,0.125,100,140.0
5352,G#4,463.625,0.125,127,140.0
5353,F4,463.625,0.125,127,140.0
5354,C2,463.75,0.125,100,140.0
5355,C5,463.75,0.125,100,140.0
5356,F5,463.75,0.25,100,140.0
5357,G#4,463.75,0.125,100,140.0
5358,F4,463.75,0.125,127,140.0
5359,G#4,463.75,0.125,127,140.0
5360,C2,463.875,0.125,100,140.0
5361,G#4,463.875,0.125,100,140.0
5362,G#4,463.875,0.125,127,140.0
5363,F4,463.875,0.125,127,140.0
5364,F1,464.0,1.0,100,140.0
5365,F4,464.0,4.0,100,140.0
5366,C2,464.0,0.5,100,140.0
5367,F5,464.0,0.125,100,140.0
5368,F5,464.0,0.25,100,140.0
5369,G#4,464.0,26/125,100,140.0
5370,F4,464.0,26/125,127,140.0
5371,G#4,464.0,26/125,127,140.0
5372,E-5,464.25,0.125,100,140.0
5373,F5,464.25,0.25,100,140.0
5374,F2,464.5,0.5,100,140.0
5375,C#5,464.5,133/1000,100,140.0
5376,F5,464.5,0.25,100,140.0
5377,C5,464.75,71/500,100,140.0
5378,F5,464.75,0.25,100,140.0
5379,F1,465.0,1.0,100,140.0
5380,C2,465.0,0.5,100,140.0
5381,F5,465.0,79/500,100,140.0
5382,F5,465.0,0.25,100,140.0
5383,E-5,465.25,79/500,100,140.0
5384,F5,465.25,0.25,100,140.0
5385,F2,465.5,0.5,100,140.0
5386,C#5,465.5,3/20,100,140.0
5387,F5,465.5,0.25,100,140.0
5388,C5,465.75,71/500,100,140.0
5389,F5,465.75,0.25,100,140.0
5390,F1,466.0,1.0,100,140.0
5391,C2,466.0,0.5,100,140.0
5392,F5,466.0,71/500,100,140.0
5393,F5,466.0,0.25,100,140.0
5394,G#4,466.0,0.25,127,140.0
5395,E-5,466.0,0.25,127,140.0
5396,G#4,466.0,0.25,100,140.0
5397,E-5,466.0,0.25,100,140.0
5398,E-5,466.25,133/1000,100,140.0
5399,F5,466.25,0.25,100,140.0
5400,F2,466.5,0.5,100,140.0
5401,C#5,466.5,133/1000,100,140.0
5402,F5,466.5,0.25,100,140.0
5403,C5,466.75,0.125,100,140.0
5404,F5,466.75,0.25,100,140.0
5405,F1,467.0,1.0,100,140.0
5406,C2,467.0,0.5,100,140.0
5407,F5,467.0,0.125,100,140.0
5408,F5,467.0,0.25,100,140.0
5409,E-5,467.25,0.125,100,140.0
5410,F5,467.25,0.25,100,140.0
5411,F2,467.5,0.5,100,140.0
5412,C#5,467.5,0.125,100,140.0
5413,F5,467.5,0.25,100,140.0
5414,C5,467.75,0.125,100,140.0
5415,F5,467.75,0.25,100,140.0
5416,F1,468.0,1.0,100,140.0
5417,E-5,468.0,4.0,100,140.0
5418,F4,468.0,4.0,100,140.0
5419,C2,468.0,0.5,100,140.0
5420,F5,468.0,0.125,100,140.0
5421,F5,468.0,0.25,100,140.0
5422,G#4,468.0,4.0,100,140.0
5423,F5,468.0,4.0,100,140.0
5424,E-5,468.25,0.125,100,140.0
5425,F5,468.25,0.25,100,140.0
5426,F2,468.5,0.5,100,140.0
5427,C#5,468.5,133/1000,100,140.0
5428,F5,468.5,0.25,100,140.0
5429,C5,468.75,71/500,100,140.0
5430,F5,468.75,0.25,100,140.0
5431,F1,469.0,1.0,100,140.0
5432,C2,469.0,0.5,100,140.0
5433,F5,469.0,79/500,100,140.0
5434,F5,469.0,0.25,100,140.0
5435,E-5,469.25,79/500,100,140.0
5436,F5,469.25,0.25,100,140.0
5437,F2,469.5,0.5,100,140.0
5438,C#5,469.5,3/20,100,140.0
5439,F5,469.5,0.25,100,140.0
5440,C5,469.75,71/500,100,140.0
5441,F5,469.75,0.25,100,140.0
5442,F1,470.0,1.0,100,140.0
5443,C2,470.0,0.5,100,140.0
5444,F5,470.0,71/500,100,140.0
5445,F5,470.0,0.25,100,140.0
5446,G#4,470.0,0.25,127,140.0
5447,E-5,470.0,0.25,127,140.0
5448,E-5,470.0,0.25,100,140.0
5449,G#4,470.0,0.25,100,140.0
5450,E-5,470.25,133/1000,100,140.0
5451,F5,470.25,0.25,100,140.0
5452,F2,470.5,0.5,100,140.0
5453,C#5,470.5,133/1000,100,140.0
5454,F5,470.5,0.25,100,140.0
5455,C5,470.75,0.125,100,140.0
5456,F5,470.75,0.25,100,140.0
5457,F1,471.0,1.0,100,140.0
5458,C2,471.0,0.5,100,140.0
5459,F5,471.0,0.125,100,140.0
5460,F5,471.0,0.25,100,140.0
5461,E-5,471.25,0.125,100,140.0
5462,F5,471.25,0.25,100,140.0
5463,F2,471.5,0.5,100,140.0
5464,C#5,471.5,0.125,100,140.0
5465,F5,471.5,0.25,100,140.0
5466,G#4,471.5,0.125,100,140.0
5467,F4,471.5,0.125,127,140.0
5468,G#4,471.5,0.125,127,140.0
5469,G#4,471.625,0.125,100,140.0
5470,F4,471.625,0.125,127,140.0
5471,G#4,471.625,0.125,127,140.0
5472,C2,471.75,0.25,100,140.0
5473,C5,471.75,0.125,100,140.0
5474,F5,471.75,0.25,100,140.0
5475,G#4,471.75,0.125,100,140.0
5476,G#4,471.75,0.125,127,140.0
5477,F4,471.75,0.125,127,140.0
5478,G#4,471.875,0.125,100,140.0
5479,F4,471.875,0.125,127,140.0
5480,G#4,471.875,0.125,127,140.0
5481,F1,472.0,1.0,100,140.0
5482,G4,472.0,4.0,100,140.0
5483,E-5,472.0,4.0,100,140.0
5484,C5,472.0,4.0,100,140.0
5485,F4,472.0,4.0,100,140.0
5486,C2,472.0,0.5,100,140.0
5487,F5,472.0,0.125,100,140.0
5488,F5,472.0,0.25,100,140.0
5489,G#4,472.0,26/125,100,140.0
5490,G#4,472.0,0.25,127,140.0
5491,F4,472.0,0.25,127,140.0
5492,E-5,472.25,0.125,100,140.0
5493,F5,472.25,0.25,100,140.0
5494,F2,472.5,0.5,100,140.0
5495,C#5,472.5,133/1000,100,140.0
5496,F5,472.5,0.25,100,140.0
5497,C5,472.75,71/500,100,140.0
5498,F5,472.75,0.25,100,140.0
5499,F1,473.0,1.0,100,140.0
5500,C2,473.0,0.5,100,140.0
5501,F5,473.0,79/500,100,140.0
5502,F5,473.0,0.25,100,140.0
5503,E-5,473.25,79/500,100,140.0
5504,F5,473.25,0.25,100,140.0
5505,F2,473.5,0.5,100,140.0
5506,C#5,473.5,3/20,100,140.0
5507,F5,473.5,0.25,100,140.0
5508,C5,473.75,71/500,100,140.0
5509,F5,473.75,0.25,100,140.0
5510,F1,474.0,1.0,100,140.0
5511,C2,474.0,0.5,100,140.0
5512,F5,474.0,71/500,100,140.0
5513,F5,474.0,0.25,100,140.0
5514,E-5,474.0,0.25,127,140.0
5515,G#4,474.0,0.25,127,140.0
5516,G#4,474.0,0.25,100,140.0
5517,E-5,474.0,0.25,100,140.0
5518,E-5,474.25,133/1000,100,140.0
5519,F5,474.25,0.25,100,140.0
5520,F2,474.5,0.5,100,140.0
5521,C#5,474.5,133/1000,100,140.0
5522,F5,474.5,0.25,100,140.0
5523,C5,474.75,0.125,100,140.0
5524,F5,474.75,0.25,100,140.0
5525,F1,475.0,1.0,100,140.0
5526,C2,475.0,0.5,100,140.0
5527,F5,475.0,0.125,100,140.0
5528,F5,475.0,0.25,100,140.0
5529,E-5,475.25,0.125,100,140.0
5530,F5,475.25,0.25,100,140.0
5531,F2,475.5,0.5,100,140.0
5532,C#5,475.5,0.125,100,140.0
5533,F5,475.5,0.25,100,140.0
5534,C5,475.75,0.125,100,140.0
5535,F5,475.75,0.25,100,140.0
5536,F1,476.0,1.0,100,140.0
5537,E-5,476.0,4.0,100,140.0
5538,C5,476.0,4.0,100,140.0
5539,F4,476.0,4.0,100,140.0
5540,C2,476.0,0.5,100,140.0
5541,F5,476.0,0.125,100,140.0
5542,F5,476.0,0.25,100,140.0
5543,E-4,476.0,4.0,100,140.0
5544,G#4,476.0,4.0,100,140.0
5545,E-5,476.25,0.125,100,140.0
5546,F5,476.25,0.25,100,140.0
5547,F2,476.5,0.5,100,140.0
5548,C#5,476.5,133/1000,100,140.0
5549,F5,476.5,0.25,100,140.0
5550,C5,476.75,71/500,100,140.0
5551,F5,476.75,0.25,100,140.0
5552,F1,477.0,1.0,100,140.0
5553,C2,477.0,0.5,100,140.0
5554,F5,477.0,79/500,100,140.0
5555,F5,477.0,0.25,100,140.0
5556,E-5,477.25,79/500,100,140.0
5557,F5,477.25,0.25,100,140.0
5558,F2,477.5,0.5,100,140.0
5559,C#5,477.5,3/20,100,140.0
5560,F5,477.5,0.25,100,140.0
5561,C5,477.75,71/500,100,140.0
5562,F5,477.75,0.25,100,140.0
5563,F1,478.0,1.0,100,140.0
5564,C2,478.0,0.5,100,140.0
5565,F5,478.0,71/500,100,140.0
5566,F5,478.0,0.25,100,140.0
5567,E-5,478.0,0.25,127,140.0
5568,G#4,478.0,0.25,127,140.0
5569,G#4,478.0,0.25,100,140.0
5570,E-5,478.0,0.25,100,140.0
5571,E-5,478.25,133/1000,100,140.0
5572,F5,478.25,0.25,100,140.0
5573,F2,478.5,0.5,100,140.0
5574,C#5,478.5,133/1000,100,140.0
5575,F5,478.5,0.25,100,140.0
5576,C5,478.75,0.125,100,140.0
5577,F5,478.75,0.25,100,140.0
5578,F1,479.0,1.0,100,140.0
5579,C2,479.0,0.5,100,140.0
5580,F5,479.0,0.125,100,140.0
5581,F5,479.0,0.25,100,140.0
5582,E-5,479.25,0.125,100,140.0
5583,F5,479.25,0.25,100,140.0
5584,F2,479.5,0.5,100,140.0
5585,C#5,479.5,0.125,100,140.0
5586,F5,479.5,0.25,100,140.0
5587,G#4,479.5,0.125,100,140.0
5588,F4,479.5,0.125,127,140.0
5589,G#4,479.5,0.125,127,140.0
5590,G#4,479.625,0.125,100,140.0
5591,G#4,479.625,0.125,127,140.0
5592,F4,479.625,0.125,127,140.0
5593,C5,479.75,0.125,100,140.0
5594,F5,479.75,0.25,100,140.0
5595,G#4,479.75,0.125,100,140.0
5596,C2,479.75,0.125,100,140.0
5597,B1,479.75,0.125,100,140.0
5598,G#4,479.75,0.125,127,140.0
5599,F4,479.75,0.125,127,140.0
5600,G#4,479.875,0.125,100,140.0
5601,B1,479.875,0.125,100,140.0
5602,C2,479.875,0.125,100,140.0
5603,F4,479.875,0.125,127,140.0
5604,G#4,479.875,0.125,127,140.0
5605,F1,480.0,1.0,100,140.0
5606,E-4,480.0,4.0,100,140.0
5607,F4,480.0,4.0,100,140.0
5608,F5,480.0,0.125,100,140.0
5609,F5,480.0,0.25,100,140.0
5610,G#4,480.0,26/125,100,140.0
5611,G#4,480.0,4.0,100,140.0
5612,C#5,480.0,4.0,100,140.0
5613,F5,480.0,4.0,100,140.0
5614,G#2,480.0,0.5,100,140.0
5615,B1,480.0,0.5,100,140.0
5616,C2,480.0,0.5,100,140.0
5617,G#4,480.0,0.25,127,140.0
5618,F4,480.0,0.25,127,140.0
5619,E-5,480.25,0.125,100,140.0
5620,F5,480.25,0.25,100,140.0
5621,B-5,480.5,0.5,100,140.0
5622,F2,480.5,0.5,100,140.0
5623,C#5,480.5,133/1000,100,140.0
5624,F5,480.5,0.25,100,140.0
5625,G#4,480.5,0.125,100,140.0
5626,F4,480.5,0.125,127,140.0
5627,G#4,480.5,0.125,127,140.0
5628,C5,480.75,71/500,100,140.0
5629,F5,480.75,0.25,100,140.0
5630,F1,481.0,1.0,100,140.0
5631,F5,481.0,79/500,100,140.0
5632,F5,481.0,0.25,100,140.0
5633,C2,481.0,0.5,100,140.0
5634,B1,481.0,0.5,100,140.0
5635,G#2,481.0,0.5,100,140.0
5636,E-5,481.25,79/500,100,140.0
5637,F5,481.25,0.25,100,140.0
5638,B-5,481.5,0.5,100,140.0
5639,F2,481.5,0.5,100,140.0
5640,C#5,481.5,3/20,100,140.0
5641,F5,481.5,0.25,100,140.0
5642,C5,481.75,71/500,100,140.0
5643,F5,481.75,0.25,100,140.0
5644,F1,482.0,1.0,100,140.0
5645,F5,482.0,71/500,100,140.0
5646,F5,482.0,0.25,100,140.0
5647,G#2,482.0,0.5,100,140.0
5648,B1,482.0,0.5,100,140.0
5649,C2,482.0,0.5,100,140.0
5650,G#4,482.0,0.25,127,140.0
5651,E-5,482.0,0.25,127,140.0
5652,G#4,482.0,0.25,100,140.0
5653,E-5,482.0,0.25,100,140.0
5654,E-5,482.25,133/1000,100,140.0
5655,F5,482.25,0.25,100,140.0
5656,B-5,482.5,0.5,100,140.0
5657,F2,482.5,0.5,100,140.0
5658,C#5,482.5,133/1000,100,140.0
5659,F5,482.5,0.25,100,140.0
5660,C5,482.75,0.125,100,140.0
5661,F5,482.75,0.25,100,140.0
5662,F1,483.0,1.0,100,140.0
5663,F5,483.0,0.125,100,140.0
5664,F5,483.0,0.25,100,140.0
5665,B1,483.0,0.5,100,140.0
5666,C2,483.0,0.5,100,140.0
5667,G#2,483.0,0.5,100,140.0
5668,E-5,483.25,0.125,100,140.0
5669,F5,483.25,0.25,100,140.0
5670,B-5,483.5,0.5,100,140.0
5671,F2,483.5,0.5,100,140.0
5672,C#5,483.5,0.125,100,140.0
5673,F5,483.5,0.25,100,140.0
5674,C5,483.75,0.125,100,140.0
5675,F5,483.75,0.25,100,140.0
5676,F1,484.0,1.0,100,140.0
5677,C5,484.0,4.0,100,140.0
5678,E-4,484.0,4.0,100,140.0
5679,F4,484.0,4.0,100,140.0
5680,F5,484.0,0.125,100,140.0
5681,F5,484.0,0.25,100,140.0
5682,G4,484.0,4.0,100,140.0
5683,G5,484.0,4.0,100,140.0
5684,C2,484.0,0.5,100,140.0
5685,B1,484.0,0.5,100,140.0
5686,G#2,484.0,0.5,100,140.0
5687,E-5,484.25,0.125,100,140.0
5688,F5,484.25,0.25,100,140.0
5689,B-5,484.5,0.5,100,140.0
5690,F2,484.5,0.5,100,140.0
5691,C#5,484.5,133/1000,100,140.0
5692,F5,484.5,0.25,100,140.0
5693,C5,484.75,71/500,100,140.0
5694,F5,484.75,0.25,100,140.0
5695,F1,485.0,1.0,100,140.0
5696,F5,485.0,79/500,100,140.0
5697,F5,485.0,0.25,100,140.0
5698,G#2,485.0,0.5,100,140.0
5699,C2,485.0,0.5,100,140.0
5700,B1,485.0,0.5,100,140.0
5701,E-5,485.25,79/500,100,140.0
5702,F5,485.25,0.25,100,140.0
5703,B-5,485.5,0.5,100,140.0
5704,F2,485.5,0.5,100,140.0
5705,C#5,485.5,3/20,100,140.0
5706,F5,485.5,0.25,100,140.0
5707,C5,485.75,71/500,100,140.0
5708,F5,485.75,0.25,100,140.0
5709,F1,486.0,1.0,100,140.0
5710,F5,486.0,71/500,100,140.0
5711,F5,486.0,0.25,100,140.0
5712,C2,486.0,0.5,100,140.0
5713,B1,486.0,0.5,100,140.0
5714,G#2,486.0,0.5,100,140.0
5715,G#4,486.0,0.25,127,140.0
5716,E-5,486.0,0.25,127,140.0
5717,E-5,486.0,0.25,100,140.0
5718,G#4,486.0,0.25,100,140.0
5719,E-5,486.25,133/1000,100,140.0
5720,F5,486.25,0.25,100,140.0
5721,B-5,486.5,0.5,100,140.0
5722,F2,486.5,0.5,100,140.0
5723,C#5,486.5,133/1000,100,140.0
5724,F5,486.5,0.25,100,140.0
5725,C5,486.75,0.125,100,140.0
5726,F5,486.75,0.25,100,140.0
5727,F1,487.0,1.0,100,140.0
5728,F5,487.0,0.125,100,140.0
5729,F5,487.0,0.25,100,140.0
5730,G#2,487.0,0.5,100,140.0
5731,B1,487.0,0.5,100,140.0
5732,C2,487.0,0.5,100,140.0
5733,E-5,487.25,0.125,100,140.0
5734,F5,487.25,0.25,100,140.0
5735,B-5,487.5,0.5,100,140.0
5736,F2,487.5,0.5,100,140.0
5737,C#5,487.5,0.125,100,140.0
5738,F5,487.5,0.25,100,140.0
5739,G#4,487.5,0.125,100,140.0
5740,G#4,487.5,0.125,127,140.0
5741,F4,487.5,0.125,127,140.0
5742,G#4,487.625,0.125,100,140.0
5743,G#4,487.625,0.125,127,140.0
5744,F4,487.625,0.125,127,140.0
5745,C5,487.75,0.125,100,140.0
5746,F5,487.75,0.25,100,140.0
5747,G#4,487.75,0.125,100,140.0
5748,B1,487.75,0.25,100,140.0
5749,C2,487.75,0.25,100,140.0
5750,G#4,487.75,0.125,127,140.0
5751,F4,487.75,0.125,127,140.0
5752,G#4,487.875,0.125,100,140.0
5753,G#4,487.875,0.125,127,140.0
5754,F4,487.875,0.125,127,140.0
5755,F1,488.0,1.0,100,140.0
5756,F4,488.0,4.0,100,140.0
5757,G#5,488.0,4.0,100,140.0
5758,C5,488.0,8.0,100,140.0
5759,F4,488.0,4.0,100,140.0
5760,F5,488.0,0.125,100,140.0
5761,F5,488.0,0.25,100,140.0
5762,G#4,488.0,26/125,100,140.0
5763,C2,488.0,0.5,100,140.0
5764,B1,488.0,0.5,100,140.0
5765,G#2,488.0,0.5,100,140.0
5766,F4,488.0,26/125,127,140.0
5767,G#4,488.0,26/125,127,140.0
5768,E-5,488.25,0.125,100,140.0
5769,F5,488.25,0.25,100,140.0
5770,B-5,488.5,0.5,100,140.0
5771,F2,488.5,0.5,100,140.0
5772,C#5,488.5,133/1000,100,140.0
5773,F5,488.5,0.25,100,140.0
5774,G#4,488.5,0.125,100,140.0
5775,F4,488.5,0.125,127,140.0
5776,G#4,488.5,0.125,127,140.0
5777,C5,488.75,71/500,100,140.0
5778,F5,488.75,0.25,100,140.0
5779,F1,489.0,1.0,100,140.0
5780,F5,489.0,79/500,100,140.0
5781,F5,489.0,0.25,100,140.0
5782,B1,489.0,0.5,100,140.0
5783,G#2,489.0,0.5,100,140.0
5784,C2,489.0,0.5,100,140.0
5785,E-5,489.25,79/500,100,140.0
5786,F5,489.25,0.25,100,140.0
5787,B-5,489.5,0.5,100,140.0
5788,F2,489.5,0.5,100,140.0
5789,C#5,489.5,3/20,100,140.0
5790,F5,489.5,0.25,100,140.0
5791,C5,489.75,71/500,100,140.0
5792,F5,489.75,0.25,100,140.0
5793,F1,490.0,1.0,100,140.0
5794,F5,490.0,71/500,100,140.0
5795,F5,490.0,0.25,100,140.0
5796,G#2,490.0,0.5,100,140.0
5797,C2,490.0,0.5,100,140.0
5798,B1,490.0,0.5,100,140.0
5799,G#4,490.0,0.25,127,140.0
5800,E-5,490.0,0.25,127,140.0
5801,E-5,490.0,0.25,100,140.0
5802,G#4,490.0,0.25,100,140.0
5803,E-5,490.25,133/1000,100,140.0
5804,F5,490.25,0.25,100,140.0
5805,B-5,490.5,0.5,100,140.0
5806,F2,490.5,0.5,100,140.0
5807,C#5,490.5,133/1000,100,140.0
5808,F5,490.5,0.25,100,140.0
5809,C5,490.75,0.125,100,140.0
5810,F5,490.75,0.25,100,140.0
5811,F1,491.0,1.0,100,140.0
5812,F5,491.0,0.125,100,140.0
5813,F5,491.0,0.25,100,140.0
5814,C2,491.0,0.5,100,140.0
5815,B1,491.0,0.5,100,140.0
5816,G#2,491.0,0.5,100,140.0
5817,E-5,491.25,0.125,100,140.0
5818,F5,491.25,0.25,100,140.0
5819,B-5,491.5,0.5,100,140.0
5820,F2,491.5,0.5,100,140.0
5821,C#5,491.5,0.125,100,140.0
5822,F5,491.5,0.25,100,140.0
5823,C5,491.75,0.125,100,140.0
5824,F5,491.75,0.25,100,140.0
5825,F1,492.0,1.0,100,140.0
5826,F4,492.0,4.0,100,140.0
5827,F5,492.0,0.125,100,140.0
5828,F5,492.0,0.25,100,140.0
5829,B1,492.0,0.5,100,140.0
5830,C2,492.0,0.5,100,140.0
5831,G#2,492.0,0.5,100,140.0
5832,E-5,492.25,0.125,100,140.0
5833,F5,492.25,0.25,100,140.0
5834,B-5,492.5,0.5,100,140.0
5835,F2,492.5,0.5,100,140.0
5836,C#5,492.5,133/1000,100,140.0
5837,F5,492.5,0.25,100,140.0
5838,C5,492.75,71/500,100,140.0
5839,F5,492.75,0.25,100,140.0
5840,F1,493.0,1.0,100,140.0
5841,F5,493.0,79/500,100,140.0
5842,F5,493.0,0.25,100,140.0
5843,C2,493.0,0.5,100,140.0
5844,B1,493.0,0.5,100,140.0
5845,G#2,493.0,0.5,100,140.0
5846,E-5,493.25,79/500,100,140.0
5847,F5,493.25,0.25,100,140.0
5848,B-5,493.5,0.5,100,140.0
5849,F2,493.5,0.5,100,140.0
5850,C#5,493.5,3/20,100,140.0
5851,F5,493.5,0.25,100,140.0
5852,C5,493.75,71/500,100,140.0
5853,F5,493.75,0.25,100,140.0
5854,F1,494.0,1.0,100,140.0
5855,F5,494.0,71/500,100,140.0
5856,F5,494.0,0.25,100,140.0
5857,C2,494.0,0.5,100,140.0
5858,B1,494.0,0.5,100,140.0
5859,G#2,494.0,0.5,100,140.0
5860,G#4,494.0,0.25,127,140.0
5861,E-5,494.0,0.25,127,140.0
5862,G#4,494.0,0.25,100,140.0
5863,E-5,494.0,0.25,100,140.0
5864,E-5,494.25,133/1000,100,140.0
5865,F5,494.25,0.25,100,140.0
5866,B-5,494.5,0.5,100,140.0
5867,F2,494.5,0.5,100,140.0
5868,C#5,494.5,133/1000,100,140.0
5869,F5,494.5,0.25,100,140.0
5870,C5,494.75,0.125,100,140.0
5871,F5,494.75,0.25,100,140.0
5872,F1,495.0,1.0,100,140.0
5873,F5,495.0,0.125,100,140.0
5874,F5,495.0,0.25,100,140.0
5875,C2,495.0,0.5,100,140.0
5876,B1,495.0,0.5,100,140.0
5877,G#2,495.0,0.5,100,140.0
5878,E-5,495.25,0.125,100,140.0
5879,F5,495.25,0.25,100,140.0
5880,B-5,495.5,0.5,100,140.0
5881,F2,495.5,0.5,100,140.0
5882,C#5,495.5,0.125,100,140.0
5883,F5,495.5,0.25,100,140.0
5884,G#4,495.5,0.125,100,140.0
5885,G#4,495.5,0.125,127,140.0
5886,F4,495.5,0.125,127,140.0
5887,G#4,495.625,0.125,100,140.0
5888,B1,495.625,0.125,100,140.0
5889,C2,495.625,0.125,100,140.0
5890,F4,495.625,0.125,127,140.0
5891,G#4,495.625,0.125,127,140.0
5892,C5,495.75,0.125,100,140.0
5893,F5,495.75,0.25,100,140.0
5894,G#4,495.75,0.125,100,140.0
5895,C2,495.75,0.125,100,140.0
5896,B1,495.75,0.125,100,140.0
5897,G#4,495.75,0.125,127,140.0
5898,F4,495.75,0.125,127,140.0
5899,G#4,495.875,0.125,100,140.0
5900,B1,495.875,0.125,100,140.0
5901,C2,495.875,0.125,100,140.0
5902,G#4,495.875,0.125,127,140.0
5903,F4,495.875,0.125,127,140.0
5904,F1,496.0,1.0,100,140.0
5905,F4,496.0,4.0,100,140.0
5906,G#5,496.0,0.5,100,140.0
5907,F4,496.0,4.0,100,140.0
5908,F5,496.0,0.125,100,140.0
5909,F5,496.0,0.25,100,140.0
5910,G#4,496.0,26/125,100,140.0
5911,G#2,496.0,0.5,100,140.0
5912,B1,496.0,0.5,100,140.0
5913,C2,496.0,0.5,100,140.0
5914,G#4,496.0,0.25,127,140.0
5915,F4,496.0,0.25,127,140.0
5916,E-5,496.25,0.125,100,140.0
5917,F5,496.25,0.25,100,140.0
5918,B-5,496.5,0.5,100,140.0
5919,F2,496.5,0.5,100,140.0
5920,C#5,496.5,133/1000,100,140.0
5921,F5,496.5,0.25,100,140.0
5922,G#4,496.5,0.125,100,140.0
5923,F4,496.5,0.125,127,140.0
5924,G#4,496.5,0.125,127,140.0
5925,C5,496.75,71/500,100,140.0
5926,F5,496.75,0.25,100,140.0
5927,F1,497.0,1.0,100,140.0
5928,F5,497.0,79/500,100,140.0
5929,F5,497.0,0.25,100,140.0
5930,B1,497.0,0.5,100,140.0
5931,G#2,497.0,0.5,100,140.0
5932,C2,497.0,0.5,100,140.0
5933,E-5,497.25,79/500,100,140.0
5934,F5,497.25,0.25,100,140.0
5935,B-5,497.5,0.5,100,140.0
5936,F2,497.5,0.5,100,140.0
5937,C#5,497.5,3/20,100,140.0
5938,F5,497.5,0.25,100,140.0
5939,C5,497.75,71/500,100,140.0
5940,F5,497.75,0.25,100,140.0
5941,F1,498.0,1.0,100,140.0
5942,F5,498.0,71/500,100,140.0
5943,F5,498.0,0.25,100,140.0
5944,C2,498.0,0.5,100,140.0
5945,G#2,498.0,0.5,100,140.0
5946,B1,498.0,0.5,100,140.0
5947,G#4,498.0,0.25,127,140.0
5948,E-5,498.0,0.25,127,140.0
5949,E-5,498.0,0.25,100,140.0
5950,G#4,498.0,0.25,100,140.0
5951,E-5,498.25,133/1000,100,140.0
5952,F5,498.25,0.25,100,140.0
5953,B-5,498.5,0.5,100,140.0
5954,F2,498.5,0.5,100,140.0
5955,C#5,498.5,133/1000,100,140.0
5956,F5,498.5,0.25,100,140.0
5957,C5,498.75,0.125,100,140.0
5958,F5,498.75,0.25,100,140.0
5959,F1,499.0,1.0,100,140.0
5960,F5,499.0,0.125,100,140.0
5961,F5,499.0,0.25,100,140.0
5962,G#2,499.0,0.5,100,140.0
5963,B1,499.0,0.5,100,140.0
5964,C2,499.0,0.5,100,140.0
5965,E-5,499.25,0.125,100,140.0
5966,F5,499.25,0.25,100,140.0
5967,B-5,499.5,0.5,100,140.0
5968,F2,499.5,0.5,100,140.0
5969,C#5,499.5,0.125,100,140.0
5970,F5,499.5,0.25,100,140.0
5971,C5,499.75,0.125,100,140.0
5972,F5,499.75,0.25,100,140.0
5973,F1,500.0,1.0,100,140.0
5974,F4,500.0,4.0,100,140.0
5975,F4,500.0,4.0,100,140.0
5976,F5,500.0,0.125,100,140.0
5977,F5,500.0,0.25,100,140.0
5978,C2,500.0,0.5,100,140.0
5979,B1,500.0,0.5,100,140.0
5980,G#2,500.0,0.5,100,140.0
5981,E-5,500.25,0.125,100,140.0
5982,F5,500.25,0.25,100,140.0
5983,B-5,500.5,0.5,100,140.0
5984,F2,500.5,0.5,100,140.0
5985,C#5,500.5,133/1000,100,140.0
5986,F5,500.5,0.25,100,140.0
5987,C5,500.75,71/500,100,140.0
5988,F5,500.75,0.25,100,140.0
5989,F1,501.0,1.0,100,140.0
5990,F5,501.0,79/500,100,140.0
5991,F5,501.0,0.25,100,140.0
5992,G#2,501.0,0.5,100,140.0
5993,B1,501.0,0.5,100,140.0
5994,C2,501.0,0.5,100,140.0
5995,E-5,501.25,79/500,100,140.0
5996,F5,501.25,0.25,100,140.0
5997,B-5,501.5,0.5,100,140.0
5998,F2,501.5,0.5,100,140.0
5999,C#5,501.5,3/20,100,140.0
6000,F5,501.5,0.25,100,140.0
6001,C5,501.75,71/500,100,140.0
6002,F5,501.75,0.25,100,140.0
6003,F1,502.0,1.0,100,140.0
6004,F5,502.0,71/500,100,140.0
6005,F5,502.0,0.25,100,140.0
6006,G#2,502.0,0.5,100,140.0
6007,B1,502.0,0.5,100,140.0
6008,C2,502.0,0.5,100,140.0
6009,G#4,502.0,0.25,127,140.0
6010,E-5,502.0,0.25,127,140.0
6011,G#4,502.0,0.25,100,140.0
6012,E-5,502.0,0.25,100,140.0
6013,E-5,502.25,133/1000,100,140.0
6014,F5,502.25,0.25,100,140.0
6015,B-5,502.5,0.5,100,140.0
6016,F2,502.5,0.5,100,140.0
6017,C#5,502.5,133/1000,100,140.0
6018,F5,502.5,0.25,100,140.0
6019,C5,502.75,0.125,100,140.0
6020,F5,502.75,0.25,100,140.0
6021,F1,503.0,1.0,100,140.0
6022,F5,503.0,0.125,100,140.0
6023,F5,503.0,0.25,100,140.0
6024,C2,503.0,0.5,100,140.0
6025,G#2,503.0,0.5,100,140.0
6026,B1,503.0,0.5,100,140.0
6027,E-5,503.25,0.125,100,140.0
6028,F5,503.25,0.25,100,140.0
6029,B-5,503.5,0.5,100,140.0
6030,F2,503.5,0.5,100,140.0
6031,C#5,503.5,0.125,100,140.0
6032,F5,503.5,0.25,100,140.0
6033,G#4,503.5,0.125,100,140.0
6034,G#4,503.5,0.125,127,140.0
6035,F4,503.5,0.125,127,140.0
6036,G#4,503.625,0.125,100,140.0
6037,G#4,503.625,0.125,127,140.0
6038,F4,503.625,0.125,127,140.0
6039,C5,503.75,0.125,100,140.0
6040,F5,503.75,0.25,100,140.0
6041,G#4,503.75,0.125,100,140.0
6042,B1,503.75,0.25,100,140.0
6043,C2,503.75,0.25,100,140.0
6044,G#4,503.75,0.125,127,140.0
6045,F4,503.75,0.125,127,140.0
6046,G#4,503.875,0.125,100,140.0
6047,G#4,503.875,0.125,127,140.0
6048,F4,503.875,0.125,127,140.0
6049,F1,504.0,1.0,100,140.0
6050,F4,504.0,4.0,100,140.0
6051,F4,504.0,4.0,100,140.0
6052,F5,504.0,0.125,100,140.0
6053,F5,504.0,0.25,100,140.0
6054,G#4,504.0,26/125,100,140.0
6055,G#2,504.0,0.5,100,140.0
6056,C2,504.0,0.5,100,140.0
6057,B1,504.0,0.5,100,140.0
6058,F4,504.0,26/125,127,140.0
6059,G#4,504.0,26/125,127,140.0
6060,E-5,504.25,0.125,100,140.0
6061,F5,504.25,0.25,100,140.0
6062,B-5,504.5,0.5,100,140.0
6063,F2,504.5,0.5,100,140.0
6064,C#5,504.5,133/1000,100,140.0
6065,F5,504.5,0.25,100,140.0
6066,G#4,504.5,0.125,100,140.0
6067,F4,504.5,0.125,127,140.0
6068,G#4,504.5,0.125,127,140.0
6069,C5,504.75,71/500,100,140.0
6070,F5,504.75,0.25,100,140.0
6071,F1,505.0,1.0,100,140.0
6072,F5,505.0,79/500,100,140.0
6073,F5,505.0,0.25,100,140.0
6074,C2,505.0,0.5,100,140.0
6075,B1,505.0,0.5,100,140.0
6076,G#2,505.0,0.5,100,140.0
6077,E-5,505.25,79/500,100,140.0
6078,F5,505.25,0.25,100,140.0
6079,B-5,505.5,0.5,100,140.0
6080,F2,505.5,0.5,100,140.0
6081,C#5,505.5,3/20,100,140.0
6082,F5,505.5,0.25,100,140.0
6083,C5,505.75,71/500,100,140.0
6084,F5,505.75,0.25,100,140.0
6085,F1,506.0,1.0,100,140.0
6086,F5,506.0,71/500,100,140.0
6087,F5,506.0,0.25,100,140.0
6088,B1,506.0,0.5,100,140.0
6089,C2,506.0,0.5,100,140.0
6090,G#2,506.0,0.5,100,140.0
6091,G#4,506.0,0.25,127,140.0
6092,E-5,506.0,0.25,127,140.0
6093,G#4,506.0,0.25,100,140.0
6094,E-5,506.0,0.25,100,140.0
6095,E-5,506.25,133/1000,100,140.0
6096,F5,506.25,0.25,100,140.0
6097,B-5,506.5,0.5,100,140.0
6098,F2,506.5,0.5,100,140.0
6099,C#5,506.5,133/1000,100,140.0
6100,F5,506.5,0.25,100,140.0
6101,C5,506.75,0.125,100,140.0
6102,F5,506.75,0.25,100,140.0
6103,F1,507.0,1.0,100,140.0
6104,F5,507.0,0.125,100,140.0
6105,F5,507.0,0.25,100,140.0
6106,G#2,507.0,0.5,100,140.0
6107,B1,507.0,0.5,100,140.0
6108,C2,507.0,0.5,100,140.0
6109,E-5,507.25,0.125,100,140.0
6110,F5,507.25,0.25,100,140.0
6111,B-5,507.5,0.5,100,140.0
6112,F2,507.5,0.5,100,140.0
6113,C#5,507.5,0.125,100,140.0
6114,F5,507.5,0.25,100,140.0
6115,C5,507.75,0.125,100,140.0
6116,F5,507.75,0.25,100,140.0
6117,F1,508.0,1.0,100,140.0
6118,F4,508.0,4.0,100,140.0
6119,F5,508.0,0.125,100,140.0
6120,F5,508.0,0.25,100,140.0
6121,G#2,508.0,0.5,100,140.0
6122,C2,508.0,0.5,100,140.0
6123,B1,508.0,0.5,100,140.0
6124,E-5,508.25,0.125,100,140.0
6125,F5,508.25,0.25,100,140.0
6126,B-5,508.5,0.5,100,140.0
6127,F2,508.5,0.5,100,140.0
6128,C#5,508.5,133/1000,100,140.0
6129,F5,508.5,0.25,100,140.0
6130,C5,508.75,71/500,100,140.0
6131,F5,508.75,0.25,100,140.0
6132,F1,509.0,1.0,100,140.0
6133,F5,509.0,79/500,100,140.0
6134,F5,509.0,0.25,100,140.0
6135,C2,509.0,0.5,100,140.0
6136,G#2,509.0,0.5,100,140.0
6137,B1,509.0,0.5,100,140.0
6138,E-5,509.25,79/500,100,140.0
6139,F5,509.25,0.25,100,140.0
6140,B-5,509.5,0.5,100,140.0
6141,F2,509.5,0.5,100,140.0
6142,C#5,509.5,3/20,100,140.0
6143,F5,509.5,0.25,100,140.0
6144,C5,509.75,71/500,100,140.0
6145,F5,509.75,0.25,100,140.0
6146,F1,510.0,1.0,100,140.0
6147,F5,510.0,71/500,100,140.0
6148,F5,510.0,0.25,100,140.0
6149,C2,510.0,0.5,100,140.0
6150,B1,510.0,0.5,100,140.0
6151,G#2,510.0,0.5,100,140.0
6152,G#4,510.0,0.25,127,140.0
6153,E-5,510.0,0.25,127,140.0
6154,E-5,510.0,0.25,100,140.0
6155,G#4,510.0,0.25,100,140.0
6156,E-5,510.25,133/1000,100,140.0
6157,F5,510.25,0.25,100,140.0
6158,B-5,510.5,0.5,100,140.0
6159,F2,510.5,0.5,100,140.0
6160,C#5,510.5,133/1000,100,140.0
6161,F5,510.5,0.25,100,140.0
6162,C5,510.75,0.125,100,140.0
6163,F5,510.75,0.25,100,140.0
6164,F1,511.0,1.0,100,140.0
6165,F5,511.0,0.125,100,140.0
6166,F5,511.0,0.25,100,140.0
6167,B1,511.0,0.5,100,140.0
6168,G#2,511.0,0.5,100,140.0
6169,C2,511.0,0.5,100,140.0
6170,E-5,511.25,0.125,100,140.0
6171,F5,511.25,0.25,100,140.0
6172,B-5,511.5,0.5,100,140.0
6173,F2,511.5,0.5,100,140.0
6174,C#5,511.5,0.125,100,140.0
6175,F5,511.5,0.25,100,140.0
6176,G#4,511.5,0.125,100,140.0
6177,G#4,511.5,0.125,127,140.0
6178,F4,511.5,0.125,127,140.0
6179,G#4,511.625,0.125,100,140.0
6180,B1,511.625,0.125,100,140.0
6181,C2,511.625,0.125,100,140.0
6182,F4,511.625,0.125,127,140.0
6183,G#4,511.625,0.125,127,140.0
6184,C5,511.75,0.125,100,140.0
6185,F5,511.75,0.25,100,140.0
6186,G#4,511.75,0.125,100,140.0
6187,B1,511.75,0.125,100,140.0
6188,C2,511.75,0.125,100,140.0
6189,G#4,511.75,0.125,127,140.0
6190,F4,511.75,0.125,127,140.0
6191,G#4,511.875,0.125,100,140.0
6192,C2,511.875,0.125,100,140.0
6193,B1,511.875,0.125,100,140.0
6194,G#4,511.875,0.125,127,140.0
6195,F4,511.875,0.125,127,140.0
6196,F1,512.0,1.0,100,140.0
6197,F4,512.0,4.0,100,140.0
6198,F5,512.0,0.125,100,140.0
6199,F5,512.0,0.25,100,140.0
6200,G#4,512.0,26/125,100,140.0
6201,G#2,512.0,0.5,100,140.0
6202,G3,512.0,0.5,100,140.0
6203,C2,512.0,0.5,100,140.0
6204,B1,512.0,0.5,100,140.0
6205,G#4,512.0,0.25,127,140.0
6206,F4,512.0,0.25,127,140.0
6207,E-5,512.25,0.125,100,140.0
6208,F5,512.25,0.25,100,140.0
6209,B-5,512.5,0.5,100,140.0
6210,F2,512.5,0.5,100,140.0
6211,C#5,512.5,133/1000,100,140.0
6212,F5,512.5,0.25,100,140.0
6213,G#4,512.5,0.125,100,140.0
6214,F4,512.5,0.125,127,140.0
6215,G#4,512.5,0.125,127,140.0
6216,C5,512.75,71/500,100,140.0
6217,F5,512.75,0.25,100,140.0
6218,F1,513.0,1.0,100,140.0
6219,F5,513.0,79/500,100,140.0
6220,F5,513.0,0.25,100,140.0
6221,B1,513.0,0.5,100,140.0
6222,G3,513.0,0.5,100,140.0
6223,G#2,513.0,0.5,100,140.0
6224,E-5,513.25,79/500,100,140.0
6225,F5,513.25,0.25,100,140.0
6226,B-5,513.5,0.5,100,140.0
6227,F2,513.5,0.5,100,140.0
6228,C#5,513.5,3/20,100,140.0
6229,F5,513.5,0.25,100,140.0
6230,C5,513.75,71/500,100,140.0
6231,F5,513.75,0.25,100,140.0
6232,F1,514.0,1.0,100,140.0
6233,F5,514.0,71/500,100,140.0
6234,F5,514.0,0.25,100,140.0
6235,B1,514.0,0.5,100,140.0
6236,G#2,514.0,0.5,100,140.0
6237,C2,514.0,0.5,100,140.0
6238,G3,514.0,0.5,100,140.0
6239,G#4,514.0,0.25,127,140.0
6240,E-5,514.0,0.25,127,140.0
6241,G#4,514.0,0.25,100,140.0
6242,E-5,514.0,0.25,100,140.0
6243,E-5,514.25,133/1000,100,140.0
6244,F5,514.25,0.25,100,140.0
6245,B-5,514.5,0.5,100,140.0
6246,F2,514.5,0.5,100,140.0
6247,C#5,514.5,133/1000,100,140.0
6248,F5,514.5,0.25,100,140.0
6249,C5,514.75,0.125,100,140.0
6250,F5,514.75,0.25,100,140.0
6251,F1,515.0,1.0,100,140.0
6252,F5,515.0,0.125,100,140.0
6253,F5,515.0,0.25,100,140.0
6254,G#2,515.0,0.5,100,140.0
6255,C2,515.0,0.5,100,140.0
6256,G3,515.0,0.5,100,140.0
6257,B1,515.0,0.5,100,140.0
6258,E-5,515.25,0.125,100,140.0
6259,F5,515.25,0.25,100,140.0
6260,B-5,515.5,0.5,100,140.0
6261,F2,515.5,0.5,100,140.0
6262,C#5,515.5,0.125,100,140.0
6263,F5,515.5,0.25,100,140.0
6264,C5,515.75,0.125,100,140.0
6265,F5,515.75,0.25,100,140.0
6266,F1,516.0,1.0,100,140.0
6267,F4,516.0,4.0,100,140.0
6268,F5,516.0,0.125,100,140.0
6269,F5,516.0,0.25,100,140.0
6270,C4,516.0,4.0,100,140.0
6271,G#3,516.0,4.0,100,140.0
6272,F4,516.0,4.0,100,140.0
6273,C2,516.0,0.5,100,140.0
6274,G3,516.0,0.5,100,140.0
6275,G#2,516.0,0.5,100,140.0
6276,B1,516.0,0.5,100,140.0
6277,E-5,516.25,0.125,100,140.0
6278,F5,516.25,0.25,100,140.0
6279,B-5,516.5,0.5,100,140.0
6280,F2,516.5,0.5,100,140.0
6281,C#5,516.5,133/1000,100,140.0
6282,F5,516.5,0.25,100,140.0
6283,C5,516.75,71/500,100,140.0
6284,F5,516.75,0.25,100,140.0
6285,F1,517.0,1.0,100,140.0
6286,F5,517.0,79/500,100,140.0
6287,F5,517.0,0.25,100,140.0
6288,C2,517.0,0.5,100,140.0
6289,G3,517.0,0.5,100,140.0
6290,B1,517.0,0.5,100,140.0
6291,G#2,517.0,0.5,100,140.0
6292,E-5,517.25,79/500,100,140.0
6293,F5,517.25,0.25,100,140.0
6294,B-5,517.5,0.5,100,140.0
6295,F2,517.5,0.5,100,140.0
6296,C#5,517.5,3/20,100,140.0
6297,F5,517.5,0.25,100,140.0
6298,C5,517.75,71/500,100,140.0
6299,F5,517.75,0.25,100,140.0
6300,F1,518.0,1.0,100,140.0
6301,F5,518.0,71/500,100,140.0
6302,F5,518.0,0.25,100,140.0
6303,G3,518.0,0.5,100,140.0
6304,C2,518.0,0.5,100,140.0
6305,B1,518.0,0.5,100,140.0
6306,G#2,518.0,0.5,100,140.0
6307,G#4,518.0,0.25,127,140.0
6308,E-5,518.0,0.25,127,140.0
6309,G#4,518.0,0.25,100,140.0
6310,E-5,518.0,0.25,100,140.0
6311,E-5,518.25,133/1000,100,140.0
6312,F5,518.25,0.25,100,140.0
6313,B-5,518.5,0.5,100,140.0
6314,F2,518.5,0.5,100,140.0
6315,C#5,518.5,133/1000,100,140.0
6316,F5,518.5,0.25,100,140.0
6317,C5,518.75,0.125,100,140.0
6318,F5,518.75,0.25,100,140.0
6319,F1,519.0,1.0,100,140.0
6320,F5,519.0,0.125,100,140.0
6321,F5,519.0,0.25,100,140.0
6322,B1,519.0,0.5,100,140.0
6323,G3,519.0,0.5,100,140.0
6324,C2,519.0,0.5,100,140.0
6325,G#2,519.0,0.5,100,140.0
6326,E-5,519.25,0.125,100,140.0
6327,F5,519.25,0.25,100,140.0
6328,B-5,519.5,0.5,100,140.0
6329,F2,519.5,0.5,100,140.0
6330,C#5,519.5,0.125,100,140.0
6331,F5,519.5,0.25,100,140.0
6332,G#4,519.5,0.125,100,140.0
6333,G#4,519.5,0.125,127,140.0
6334,F4,519.5,0.125,127,140.0
6335,G#4,519.625,0.125,100,140.0
6336,G#4,519.625,0.125,127,140.0
6337,F4,519.625,0.125,127,140.0
6338,C5,519.75,0.125,100,140.0
6339,F5,519.75,0.25,100,140.0
6340,G#4,519.75,0.125,100,140.0
6341,B1,519.75,0.25,100,140.0
6342,C2,519.75,0.25,100,140.0
6343,G#4,519.75,0.125,127,140.0
6344,F4,519.75,0.125,127,140.0
6345,G#4,519.875,0.125,100,140.0
6346,G#4,519.875,0.125,127,140.0
6347,F4,519.875,0.125,127,140.0
6348,F1,520.0,1.0,100,140.0
6349,F4,520.0,4.0,100,140.0
6350,F5,520.0,0.125,100,140.0
6351,F5,520.0,0.25,100,140.0
6352,G#4,520.0,26/125,100,140.0
6353,G#3,520.0,4.0,100,140.0
6354,C4,520.0,4.0,100,140.0
6355,F4,520.0,4.0,100,140.0
6356,C2,520.0,0.5,100,140.0
6357,G#2,520.0,0.5,100,140.0
6358,B1,520.0,0.5,100,140.0
6359,G3,520.0,0.5,100,140.0
6360,F4,520.0,26/125,127,140.0
6361,G#4,520.0,26/125,127,140.0
6362,E-5,520.25,0.125,100,140.0
6363,F5,520.25,0.25,100,140.0
6364,B-5,520.5,0.5,100,140.0
6365,F2,520.5,0.5,100,140.0
6366,C#5,520.5,133/1000,100,140.0
6367,F5,520.5,0.25,100,140.0
6368,G#4,520.5,0.125,100,140.0
6369,F4,520.5,0.125,127,140.0
6370,G#4,520.5,0.125,127,140.0
6371,C5,520.75,71/500,100,140.0
6372,F5,520.75,0.25,100,140.0
6373,F1,521.0,1.0,100,140.0
6374,F5,521.0,79/500,100,140.0
6375,F5,521.0,0.25,100,140.0
6376,C2,521.0,0.5,100,140.0
6377,G3,521.0,0.5,100,140.0
6378,G#2,521.0,0.5,100,140.0
6379,B1,521.0,0.5,100,140.0
6380,E-5,521.25,79/500,100,140.0
6381,F5,521.25,0.25,100,140.0
6382,B-5,521.5,0.5,100,140.0
6383,F2,521.5,0.5,100,140.0
6384,C#5,521.5,3/20,100,140.0
6385,F5,521.5,0.25,100,140.0
6386,C5,521.75,71/500,100,140.0
6387,F5,521.75,0.25,100,140.0
6388,F1,522.0,1.0,100,140.0
6389,F5,522.0,71/500,100,140.0
6390,F5,522.0,0.25,100,140.0
6391,B1,522.0,0.5,100,140.0
6392,G#2,522.0,0.5,100,140.0
6393,C2,522.0,0.5,100,140.0
6394,G3,522.0,0.5,100,140.0
6395,G#4,522.0,0.25,127,140.0
6396,E-5,522.0,0.25,127,140.0
6397,E-5,522.0,0.25,100,140.0
6398,G#4,522.0,0.25,100,140.0
6399,E-5,522.25,133/1000,100,140.0
6400,F5,522.25,0.25,100,140.0
6401,B-5,522.5,0.5,100,140.0
6402,F2,522.5,0.5,100,140.0
6403,C#5,522.5,133/1000,100,140.0
6404,F5,522.5,0.25,100,140.0
6405,C5,522.75,0.125,100,140.0
6406,F5,522.75,0.25,100,140.0
6407,F1,523.0,1.0,100,140.0
6408,F5,523.0,0.125,100,140.0
6409,F5,523.0,0.25,100,140.0
6410,C2,523.0,0.5,100,140.0
6411,G#2,523.0,0.5,100,140.0
6412,G3,523.0,0.5,100,140.0
6413,B1,523.0,0.5,100,140.0
6414,E-5,523.25,0.125,100,140.0
6415,F5,523.25,0.25,100,140.0
6416,B-5,523.5,0.5,100,140.0
6417,F2,523.5,0.5,100,140.0
6418,C#5,523.5,0.125,100,140.0
6419,F5,523.5,0.25,100,140.0
6420,C5,523.75,0.125,100,140.0
6421,F5,523.75,0.25,100,140.0
6422,F1,524.0,1.0,100,140.0
6423,F4,524.0,4.0,100,140.0
6424,F5,524.0,0.125,100,140.0
6425,F5,524.0,0.25,100,140.0
6426,F4,524.0,4.0,100,140.0
6427,C4,524.0,4.0,100,140.0
6428,G#3,524.0,4.0,100,140.0
6429,B1,524.0,0.5,100,140.0
6430,C2,524.0,0.5,100,140.0
6431,G3,524.0,0.5,100,140.0
6432,G#2,524.0,0.5,100,140.0
6433,E-5,524.25,0.125,100,140.0
6434,F5,524.25,0.25,100,140.0
6435,B-5,524.5,0.5,100,140.0
6436,F2,524.5,0.5,100,140.0
6437,C#5,524.5,133/1000,100,140.0
6438,F5,524.5,0.25,100,140.0
6439,C5,524.75,71/500,100,140.0
6440,F5,524.75,0.25,100,140.0
6441,F1,525.0,1.0,100,140.0
6442,F5,525.0,79/500,100,140.0
6443,F5,525.0,0.25,100,140.0
6444,G#2,525.0,0.5,100,140.0
6445,B1,525.0,0.5,100,140.0
6446,C2,525.0,0.5,100,140.0
6447,G3,525.0,0.5,100,140.0
6448,E-5,525.25,79/500,100,140.0
6449,F5,525.25,0.25,100,140.0
6450,B-5,525.5,0.5,100,140.0
6451,F2,525.5,0.5,100,140.0
6452,C#5,525.5,3/20,100,140.0
6453,F5,525.5,0.25,100,140.0
6454,C5,525.75,71/500,100,140.0
6455,F5,525.75,0.25,100,140.0
6456,F1,526.0,1.0,100,140.0
6457,F5,526.0,71/500,100,140.0
6458,F5,526.0,0.25,100,140.0
6459,C2,526.0,0.5,100,140.0
6460,B1,526.0,0.5,100,140.0
6461,G3,526.0,0.5,100,140.0
6462,G#2,526.0,0.5,100,140.0
6463,G#4,526.0,0.25,127,140.0
6464,E-5,526.0,0.25,127,140.0
6465,E-5,526.0,0.25,100,140.0
6466,G#4,526.0,0.25,100,140.0
6467,E-5,526.25,133/1000,100,140.0
6468,F5,526.25,0.25,100,140.0
6469,B-5,526.5,0.5,100,140.0
6470,F2,526.5,0.5,100,140.0
6471,C#5,526.5,133/1000,100,140.0
6472,F5,526.5,0.25,100,140.0
6473,C5,526.75,0.125,100,140.0
6474,F5,526.75,0.25,100,140.0
6475,F1,527.0,1.0,100,140.0
6476,F5,527.0,0.125,100,140.0
6477,F5,527.0,0.25,100,140.0
6478,C2,527.0,0.5,100,140.0
6479,G3,527.0,0.5,100,140.0
6480,G#2,527.0,0.5,100,140.0
6481,B1,527.0,0.5,100,140.0
6482,E-5,527.25,0.125,100,140.0
6483,F5,527.25,0.25,100,140.0
6484,B-5,527.5,0.5,100,140.0
6485,F2,527.5,0.5,100,140.0
6486,C#5,527.5,0.125,100,140.0
6487,F5,527.5,0.25,100,140.0
6488,G#4,527.5,0.125,100,140.0
6489,G#4,527.5,0.125,127,140.0
6490,F4,527.5,0.125,127,140.0
6491,G#4,527.625,0.125,100,140.0
6492,B1,527.625,0.125,100,140.0
6493,C2,527.625,0.125,100,140.0
6494,F4,527.625,0.125,127,140.0
6495,G#4,527.625,0.125,127,140.0
6496,C5,527.75,0.125,100,140.0
6497,F5,527.75,0.25,100,140.0
6498,G#4,527.75,0.125,100,140.0
6499,B1,527.75,0.125,100,140.0
6500,C2,527.75,0.125,100,140.0
6501,G#4,527.75,0.125,127,140.0
6502,F4,527.75,0.125,127,140.0
6503,G#4,527.875,0.125,100,140.0
6504,C2,527.875,0.125,100,140.0
6505,B1,527.875,0.125,100,140.0
6506,G#4,527.875,0.125,127,140.0
6507,F4,527.875,0.125,127,140.0
6508,F1,528.0,1.0,100,140.0
6509,F4,528.0,4.0,100,140.0
6510,F5,528.0,0.125,100,140.0
6511,F5,528.0,0.25,100,140.0
6512,G#4,528.0,26/125,100,140.0
6513,F4,528.0,4.0,100,140.0
6514,C4,528.0,4.0,100,140.0
6515,G#3,528.0,4.0,100,140.0
6516,G#2,528.0,0.5,100,140.0
6517,G3,528.0,0.5,100,140.0
6518,C2,528.0,0.5,100,140.0
6519,B1,528.0,0.5,100,140.0
6520,G#4,528.0,0.25,127,140.0
6521,F4,528.0,0.25,127,140.0
6522,E-5,528.25,0.125,100,140.0
6523,F5,528.25,0.25,100,140.0
6524,B-5,528.5,0.5,100,140.0
6525,F2,528.5,0.5,100,140.0
6526,C#5,528.5,133/1000,100,140.0
6527,F5,528.5,0.25,100,140.0
6528,G#4,528.5,0.125,100,140.0
6529,F4,528.5,0.125,127,140.0
6530,G#4,528.5,0.125,127,140.0
6531,C5,528.75,71/500,100,140.0
6532,F5,528.75,0.25,100,140.0
6533,F1,529.0,1.0,100,140.0
6534,F5,529.0,79/500,100,140.0
6535,F5,529.0,0.25,100,140.0
6536,G3,529.0,0.5,100,140.0
6537,G#2,529.0,0.5,100,140.0
6538,C2,529.0,0.5,100,140.0
6539,B1,529.0,0.5,100,140.0
6540,E-5,529.25,79/500,100,140.0
6541,F5,529.25,0.25,100,140.0
6542,B-5,529.5,0.5,100,140.0
6543,F2,529.5,0.5,100,140.0
6544,C#5,529.5,3/20,100,140.0
6545,F5,529.5,0.25,100,140.0
6546,C5,529.75,71/500,100,140.0
6547,F5,529.75,0.25,100,140.0
6548,F1,530.0,1.0,100,140.0
6549,F5,530.0,71/500,100,140.0
6550,F5,530.0,0.25,100,140.0
6551,G3,530.0,0.5,100,140.0
6552,B1,530.0,0.5,100,140.0
6553,G#2,530.0,0.5,100,140.0
6554,C2,530.0,0.5,100,140.0
6555,G#4,530.0,0.25,127,140.0
6556,E-5,530.0,0.25,127,140.0
6557,E-5,530.0,0.25,100,140.0
6558,G#4,530.0,0.25,100,140.0
6559,E-5,530.25,133/1000,100,140.0
6560,F5,530.25,0.25,100,140.0
6561,B-5,530.5,0.5,100,140.0
6562,F2,530.5,0.5,100,140.0
6563,C#5,530.5,133/1000,100,140.0
6564,F5,530.5,0.25,100,140.0
6565,C5,530.75,0.125,100,140.0
6566,F5,530.75,0.25,100,140.0
6567,F1,531.0,1.0,100,140.0
6568,F5,531.0,0.125,100,140.0
6569,F5,531.0,0.25,100,140.0
6570,C2,531.0,0.5,100,140.0
6571,G3,531.0,0.5,100,140.0
6572,B1,531.0,0.5,100,140.0
6573,G#2,531.0,0.5,100,140.0
6574,E-5,531.25,0.125,100,140.0
6575,F5,531.25,0.25,100,140.0
6576,B-5,531.5,0.5,100,140.0
6577,F2,531.5,0.5,100,140.0
6578,C#5,531.5,0.125,100,140.0
6579,F5,531.5,0.25,100,140.0
6580,C5,531.75,0.125,100,140.0
6581,F5,531.75,0.25,100,140.0
6582,F1,532.0,1.0,100,140.0
6583,F4,532.0,4.0,100,140.0
6584,F5,532.0,0.125,100,140.0
6585,F5,532.0,0.25,100,140.0
6586,F4,532.0,4.0,100,140.0
6587,C4,532.0,4.0,100,140.0
6588,G#3,532.0,4.0,100,140.0
6589,B1,532.0,0.5,100,140.0
6590,G#2,532.0,0.5,100,140.0
6591,G3,532.0,0.5,100,140.0
6592,C2,532.0,0.5,100,140.0
6593,E-5,532.25,0.125,100,140.0
6594,F5,532.25,0.25,100,140.0
6595,B-5,532.5,0.5,100,140.0
6596,F2,532.5,0.5,100,140.0
6597,C#5,532.5,133/1000,100,140.0
6598,F5,532.5,0.25,100,140.0
6599,C5,532.75,71/500,100,140.0
6600,F5,532.75,0.25,100,140.0
6601,F1,533.0,1.0,100,140.0
6602,F5,533.0,79/500,100,140.0
6603,F5,533.0,0.25,100,140.0
6604,B1,533.0,0.5,100,140.0
6605,C2,533.0,0.5,100,140.0
6606,G3,533.0,0.5,100,140.0
6607,G#2,533.0,0.5,100,140.0
6608,E-5,533.25,79/500,100,140.0
6609,F5,533.25,0.25,100,140.0
6610,B-5,533.5,0.5,100,140.0
6611,F2,533.5,0.5,100,140.0
6612,C#5,533.5,3/20,100,140.0
6613,F5,533.5,0.25,100,140.0
6614,C5,533.75,71/500,100,140.0
6615,F5,533.75,0.25,100,140.0
6616,F1,534.0,1.0,100,140.0
6617,F5,534.0,71/500,100,140.0
6618,F5,534.0,0.25,100,140.0
6619,G#2,534.0,0.5,100,140.0
6620,C2,534.0,0.5,100,140.0
6621,B1,534.0,0.5,100,140.0
6622,G3,534.0,0.5,100,140.0
6623,G#4,534.0,0.25,127,140.0
6624,E-5,534.0,0.25,127,140.0
6625,E-5,534.0,0.25,100,140.0
6626,G#4,534.0,0.25,100,140.0
6627,E-5,534.25,133/1000,100,140.0
6628,F5,534.25,0.25,100,140.0
6629,B-5,534.5,0.5,100,140.0
6630,F2,534.5,0.5,100,140.0
6631,C#5,534.5,133/1000,100,140.0
6632,F5,534.5,0.25,100,140.0
6633,C5,534.75,0.125,100,140.0
6634,F5,534.75,0.25,100,140.0
6635,F1,535.0,1.0,100,140.0
6636,F5,535.0,0.125,100,140.0
6637,F5,535.0,0.25,100,140.0
6638,C2,535.0,0.5,100,140.0
6639,G#2,535.0,0.5,100,140.0
6640,B1,535.0,0.5,100,140.0
6641,G3,535.0,0.5,100,140.0
6642,E-5,535.25,0.125,100,140.0
6643,F5,535.25,0.25,100,140.0
6644,B-5,535.5,0.5,100,140.0
6645,F2,535.5,0.5,100,140.0
6646,C#5,535.5,0.125,100,140.0
6647,F5,535.5,0.25,100,140.0
6648,G#4,535.5,0.125,100,140.0
6649,G#4,535.5,0.125,127,140.0
6650,F4,535.5,0.125,127,140.0
6651,G#4,535.625,0.125,100,140.0
6652,G#4,535.625,0.125,127,140.0
6653,F4,535.625,0.125,127,140.0
6654,C5,535.75,0.125,100,140.0
6655,F5,535.75,0.25,100,140.0
6656,G#4,535.75,0.125,100,140.0
6657,G3,535.75,0.25,100,140.0
6658,B1,535.75,0.25,100,140.0
6659,C2,535.75,0.25,100,140.0
6660,G#4,535.75,0.125,127,140.0
6661,F4,535.75,0.125,127,140.0
6662,G#4,535.875,0.125,100,140.0
6663,G#4,535.875,0.125,127,140.0
6664,F4,535.875,0.125,127,140.0
6665,F1,536.0,1.0,100,140.0
6666,F4,536.0,4.0,100,140.0
6667,F5,536.0,0.125,100,140.0
6668,F5,536.0,0.25,100,140.0
6669,G#4,536.0,26/125,100,140.0
6670,G#3,536.0,4.0,100,140.0
6671,C4,536.0,4.0,100,140.0
6672,F4,536.0,4.0,100,140.0
6673,G#2,536.0,0.5,100,140.0
6674,G3,536.0,0.5,100,140.0
6675,C2,536.0,0.5,100,140.0
6676,B1,536.0,0.5,100,140.0
6677,F4,536.0,26/125,127,140.0
6678,G#4,536.0,26/125,127,140.0
6679,E-5,536.25,0.125,100,140.0
6680,F5,536.25,0.25,100,140.0
6681,F2,536.5,0.5,100,140.0
6682,C#5,536.5,133/1000,100,140.0
6683,F5,536.5,0.25,100,140.0
6684,G#4,536.5,0.125,100,140.0
6685,C2,536.5,0.5,100,140.0
6686,G3,536.5,0.5,100,140.0
6687,B1,536.5,0.5,100,140.0
6688,B-5,536.5,0.5,100,140.0
6689,F4,536.5,0.125,127,140.0
6690,G#4,536.5,0.125,127,140.0
6691,C5,536.75,71/500,100,140.0
6692,F5,536.75,0.25,100,140.0
6693,F1,537.0,1.0,100,140.0
6694,F5,537.0,79/500,100,140.0
6695,F5,537.0,0.25,100,140.0
6696,B1,537.0,0.5,100,140.0
6697,C2,537.0,0.5,100,140.0
6698,G#2,537.0,0.5,100,140.0
6699,G3,537.0,0.5,100,140.0
6700,E-5,537.25,79/500,100,140.0
6701,F5,537.25,0.25,100,140.0
6702,F2,537.5,0.5,100,140.0
6703,C#5,537.5,3/20,100,140.0
6704,F5,537.5,0.25,100,140.0
6705,G3,537.5,0.5,100,140.0
6706,B-5,537.5,0.5,100,140.0
6707,C2,537.5,0.5,100,140.0
6708,B1,537.5,0.5,100,140.0
6709,C5,537.75,71/500,100,140.0
6710,F5,537.75,0.25,100,140.0
6711,F1,538.0,1.0,100,140.0
6712,F5,538.0,71/500,100,140.0
6713,F5,538.0,0.25,100,140.0
6714,G#2,538.0,0.5,100,140.0
6715,C2,538.0,0.5,100,140.0
6716,G3,538.0,0.5,100,140.0
6717,B1,538.0,0.5,100,140.0
6718,G#4,538.0,0.25,127,140.0
6719,E-5,538.0,0.25,127,140.0
6720,E-5,538.0,0.25,100,140.0
6721,G#4,538.0,0.25,100,140.0
6722,E-5,538.25,133/1000,100,140.0
6723,F5,538.25,0.25,100,140.0
6724,F2,538.5,0.5,100,140.0
6725,C#5,538.5,133/1000,100,140.0
6726,F5,538.5,0.25,100,140.0
6727,G3,538.5,0.5,100,140.0
6728,B-5,538.5,0.5,100,140.0
6729,B1,538.5,0.5,100,140.0
6730,C2,538.5,0.5,100,140.0
6731,C5,538.75,0.125,100,140.0
6732,F5,538.75,0.25,100,140.0
6733,F1,539.0,1.0,100,140.0
6734,F5,539.0,0.125,100,140.0
6735,F5,539.0,0.25,100,140.0
6736,G3,539.0,0.5,100,140.0
6737,C2,539.0,0.5,100,140.0
6738,G#2,539.0,0.5,100,140.0
6739,B1,539.0,0.5,100,140.0
6740,E-5,539.25,0.125,100,140.0
6741,F5,539.25,0.25,100,140.0
6742,F2,539.5,0.5,100,140.0
6743,C#5,539.5,0.125,100,140.0
6744,F5,539.5,0.25,100,140.0
6745,B1,539.5,0.5,100,140.0
6746,C2,539.5,0.5,100,140.0
6747,G3,539.5,0.5,100,140.0
6748,B-5,539.5,0.5,100,140.0
6749,C5,539.75,0.125,100,140.0
6750,F5,539.75,0.25,100,140.0
6751,F1,540.0,1.0,100,140.0
6752,F4,540.0,4.0,100,140.0
6753,G#2,540.0,0.5,100,140.0
6754,F5,540.0,0.125,100,140.0
6755,F5,540.0,0.25,100,140.0
6756,G#3,540.0,4.0,100,140.0
6757,C4,540.0,4.0,100,140.0
6758,F4,540.0,4.0,100,140.0
6759,B1,540.0,0.25,100,140.0
6760,G3,540.0,0.25,100,140.0
6761,C2,540.0,0.25,100,140.0
6762,E-5,540.25,0.125,100,140.0
6763,F5,540.25,0.25,100,140.0
6764,G3,540.25,0.25,100,140.0
6765,B1,540.25,0.25,100,140.0
6766,C2,540.25,0.25,100,140.0
6767,B-5,540.5,0.5,100,140.0
6768,F2,540.5,0.5,100,140.0
6769,C#5,540.5,133/1000,100,140.0
6770,F5,540.5,0.25,100,140.0
6771,G3,540.5,0.25,100,140.0
6772,C2,540.5,0.25,100,140.0
6773,B1,540.5,0.25,100,140.0
6774,C5,540.75,71/500,100,140.0
6775,F5,540.75,0.25,100,140.0
6776,B1,540.75,0.25,100,140.0
6777,G3,540.75,0.25,100,140.0
6778,C2,540.75,0.25,100,140.0
6779,F1,541.0,1.0,100,140.0
6780,G#2,541.0,0.5,100,140.0
6781,F5,541.0,79/500,100,140.0
6782,F5,541.0,0.25,100,140.0
6783,C2,541.0,0.25,100,140.0
6784,G3,541.0,0.25,100,140.0
6785,B1,541.0,0.25,100,140.0
6786,E-5,541.25,79/500,100,140.0
6787,F5,541.25,0.25,100,140.0
6788,G3,541.25,0.25,100,140.0
6789,B1,541.25,0.25,100,140.0
6790,C2,541.25,0.25,100,140.0
6791,B-5,541.5,0.5,100,140.0
6792,F2,541.5,0.5,100,140.0
6793,C#5,541.5,3/20,100,140.0
6794,F5,541.5,0.25,100,140.0
6795,G3,541.5,0.25,100,140.0
6796,B1,541.5,0.25,100,140.0
6797,C2,541.5,0.25,100,140.0
6798,C5,541.75,71/500,100,140.0
6799,F5,541.75,0.25,100,140.0
6800,G3,541.75,0.25,100,140.0
6801,B1,541.75,0.25,100,140.0
6802,C2,541.75,0.25,100,140.0
6803,F1,542.0,1.0,100,140.0
6804,G#2,542.0,0.5,100,140.0
6805,F5,542.0,71/500,100,140.0
6806,F5,542.0,0.25,100,140.0
6807,G3,542.0,0.25,100,140.0
6808,C2,542.0,0.25,100,140.0
6809,B1,542.0,0.25,100,140.0
6810,G#4,542.0,0.25,127,140.0
6811,E-5,542.0,0.25,127,140.0
6812,E-5,542.0,0.25,100,140.0
6813,G#4,542.0,0.25,100,140.0
6814,E-5,542.25,133/1000,100,140.0
6815,F5,542.25,0.25,100,140.0
6816,C2,542.25,0.25,100,140.0
6817,G3,542.25,0.25,100,140.0
6818,B1,542.25,0.25,100,140.0
6819,B-5,542.5,0.5,100,140.0
6820,F2,542.5,0.5,100,140.0
6821,C#5,542.5,133/1000,100,140.0
6822,F5,542.5,0.25,100,140.0
6823,C2,542.5,0.25,100,140.0
6824,G3,542.5,0.25,100,140.0
6825,B1,542.5,0.25,100,140.0
6826,C5,542.75,0.125,100,140.0
6827,F5,542.75,0.25,100,140.0
6828,G3,542.75,0.25,100,140.0
6829,B1,542.75,0.25,100,140.0
6830,C2,542.75,0.25,100,140.0
6831,F1,543.0,1.0,100,140.0
6832,G#2,543.0,0.5,100,140.0
6833,F5,543.0,0.125,100,140.0
6834,F5,543.0,0.25,100,140.0
6835,G3,543.0,0.25,100,140.0
6836,B1,543.0,0.25,100,140.0
6837,C2,543.0,0.25,100,140.0
6838,E-5,543.25,0.125,100,140.0
6839,F5,543.25,0.25,100,140.0
6840,C2,543.25,0.25,100,140.0
6841,G3,543.25,0.25,100,140.0
6842,B1,543.25,0.25,100,140.0
6843,B-5,543.5,0.5,100,140.0
6844,F2,543.5,0.5,100,140.0
6845,C#5,543.5,0.125,100,140.0
6846,F5,543.5,0.25,100,140.0
6847,G#4,543.5,0.125,100,140.0
6848,C2,543.5,0.25,100,140.0
6849,G3,543.5,0.25,100,140.0
6850,B1,543.5,0.25,100,140.0
6851,G#4,543.5,0.125,127,140.0
6852,F4,543.5,0.125,127,140.0
6853,G#4,543.625,0.125,100,140.0
6854,F4,543.625,0.125,127,140.0
6855,G#4,543.625,0.125,127,140.0
6856,C5,543.75,0.125,100,140.0
6857,F5,543.75,0.25,100,140.0
6858,G#4,543.75,0.125,100,140.0
6859,C2,543.75,0.25,100,140.0
6860,G3,543.75,0.25,100,140.0
6861,B1,543.75,0.25,100,140.0
6862,G#4,543.75,0.125,127,140.0
6863,F4,543.75,0.125,127,140.0
6864,G#4,543.875,0.125,100,140.0
6865,G#4,543.875,0.125,127,140.0
6866,F4,543.875,0.125,127,140.0
6867,F4,544.0,4.0,100,140.0
6868,F5,544.0,0.125,100,140.0
6869,F5,544.0,0.25,100,140.0
6870,E-4,544.0,1.0,100,140.0
6871,F4,544.0,4.0,100,140.0
6872,C4,544.0,4.0,100,140.0
6873,G#3,544.0,4.0,100,140.0
6874,B1,544.0,1.0,100,140.0
6875,G#2,544.0,1.0,100,140.0
6876,C#3,544.0,1.0,100,140.0
6877,C2,544.0,1.0,100,140.0
6878,G3,544.0,1.0,100,140.0
6879,C4,544.0,4.0,127,140.0
6880,F4,544.0,4.0,127,140.0
6881,G#4,544.0,4.0,127,140.0
6882,C#4,544.0,4.0,127,140.0
6883,F4,544.0,4.0,127,140.0
6884,F4,544.0,0.125,100,140.0
6885,G#4,544.0,0.125,100,140.0
6886,E-5,544.25,0.125,100,140.0
6887,F5,544.25,0.25,100,140.0
6888,G#4,544.25,0.125,100,140.0
6889,F4,544.25,0.125,100,140.0
6890,C#5,544.5,133/1000,100,140.0
6891,F5,544.5,0.25,100,140.0
6892,G#4,544.5,0.125,100,140.0
6893,F4,544.5,0.125,100,140.0
6894,C5,544.75,71/500,100,140.0
6895,F5,544.75,0.25,100,140.0
6896,F4,544.75,0.125,100,140.0
6897,G#4,544.75,0.125,100,140.0
6898,F5,545.0,79/500,100,140.0
6899,F5,545.0,0.25,100,140.0
6900,E-4,545.0,1.0,100,140.0
6901,F4,545.0,0.125,100,140.0
6902,G#4,545.0,0.125,100,140.0
6903,E-5,545.25,79/500,100,140.0
6904,F5,545.25,0.25,100,140.0
6905,F4,545.25,0.125,100,140.0
6906,G#4,545.25,0.125,100,140.0
6907,C#5,545.5,3/20,100,140.0
6908,F5,545.5,0.25,100,140.0
6909,F4,545.5,0.125,100,140.0
6910,G#4,545.5,0.125,100,140.0
6911,C5,545.75,71/500,100,140.0
6912,F5,545.75,0.25,100,140.0
6913,F4,545.75,0.125,100,140.0
6914,G#4,545.75,0.125,100,140.0
6915,F5,546.0,71/500,100,140.0
6916,E-4,546.0,1.0,100,140.0
6917,F5,546.0,0.25,100,140.0
6918,G#4,546.0,0.125,100,140.0
6919,F4,546.0,0.125,100,140.0
6920,E-5,546.25,133/1000,100,140.0
6921,F5,546.25,0.25,100,140.0
6922,G#4,546.25,0.125,100,140.0
6923,F4,546.25,0.125,100,140.0
6924,C#5,546.5,133/1000,100,140.0
6925,F5,546.5,0.25,100,140.0
6926,F4,546.5,0.125,100,140.0
6927,G#4,546.5,0.125,100,140.0
6928,C5,546.75,0.125,100,140.0
6929,F5,546.75,0.25,100,140.0
6930,G#4,546.75,0.125,100,140.0
6931,F4,546.75,0.125,100,140.0
6932,F5,547.0,0.125,100,140.0
6933,F5,547.0,0.25,100,140.0
6934,E-4,547.0,1.0,100,140.0
6935,G#4,547.0,0.125,100,140.0
6936,F4,547.0,0.125,100,140.0
6937,E-5,547.25,0.125,100,140.0
6938,F5,547.25,0.25,100,140.0
6939,G#4,547.25,0.125,100,140.0
6940,F4,547.25,0.125,100,140.0
6941,C#5,547.5,0.125,100,140.0
6942,F5,547.5,0.25,100,140.0
6943,F4,547.5,0.125,100,140.0
6944,G#4,547.5,0.125,100,140.0
6945,C5,547.75,0.125,100,140.0
6946,F5,547.75,0.25,100,140.0
6947,G#4,547.75,0.125,100,140.0
6948,F4,547.75,0.125,100,140.0
6949,F4,548.0,4.0,100,140.0
6950,F5,548.0,0.125,100,140.0
6951,E-4,548.0,1.0,100,140.0
6952,F5,548.0,0.25,100,140.0
6953,C4,548.0,4.0,100,140.0
6954,G#3,548.0,4.0,100,140.0
6955,F4,548.0,4.0,100,140.0
6956,G#4,548.0,0.125,100,140.0
6957,F4,548.0,0.125,100,140.0
6958,E-5,548.25,0.125,100,140.0
6959,F5,548.25,0.25,100,140.0
6960,G#4,548.25,0.125,100,140.0
6961,F4,548.25,0.125,100,140.0
6962,C#5,548.5,133/1000,100,140.0
6963,F5,548.5,0.25,100,140.0
6964,F4,548.5,0.125,100,140.0
6965,G#4,548.5,0.125,100,140.0
6966,C5,548.75,71/500,100,140.0
6967,F5,548.75,0.25,100,140.0
6968,G#4,548.75,0.125,100,140.0
6969,F4,548.75,0.125,100,140.0
6970,F5,549.0,79/500,100,140.0
6971,E-4,549.0,1.0,100,140.0
6972,F5,549.0,0.25,100,140.0
6973,G#4,549.0,0.125,100,140.0
6974,F4,549.0,0.125,100,140.0
6975,E-5,549.25,79/500,100,140.0
6976,F5,549.25,0.25,100,140.0
6977,F4,549.25,0.125,100,140.0
6978,G#4,549.25,0.125,100,140.0
6979,C#5,549.5,3/20,100,140.0
6980,F5,549.5,0.25,100,140.0
6981,F4,549.5,0.125,100,140.0
6982,G#4,549.5,0.125,100,140.0
6983,C5,549.75,71/500,100,140.0
6984,F5,549.75,0.25,100,140.0
6985,G#4,549.75,0.125,100,140.0
6986,F4,549.75,0.125,100,140.0
6987,F5,550.0,71/500,100,140.0
6988,F5,550.0,0.25,100,140.0
6989,E-4,550.0,1.0,100,140.0
6990,G#4,550.0,0.125,100,140.0
6991,F4,550.0,0.125,100,140.0
6992,E-5,550.25,133/1000,100,140.0
6993,F5,550.25,0.25,100,140.0
6994,F4,550.25,0.125,100,140.0
6995,G#4,550.25,0.125,100,140.0
6996,C#5,550.5,133/1000,100,140.0
6997,F5,550.5,0.25,100,140.0
6998,F4,550.5,0.125,100,140.0
6999,G#4,550.5,0.125,100,140.0
7000,C5,550.75,0.125,100,140.0
7001,F5,550.75,0.25,100,140.0
7002,F4,550.75,0.125,100,140.0
7003,G#4,550.75,0.125,100,140.0
7004,F5,551.0,0.125,100,140.0
7005,F5,551.0,0.25,100,140.0
7006,E-4,551.0,1.0,100,140.0
7007,G#4,551.0,0.125,100,140.0
7008,F4,551.0,0.125,100,140.0
7009,E-5,551.25,0.125,100,140.0
7010,F5,551.25,0.25,100,140.0
7011,F4,551.25,0.125,100,140.0
7012,G#4,551.25,0.125,100,140.0
7013,C#5,551.5,0.125,100,140.0
7014,F5,551.5,0.25,100,140.0
7015,F4,551.5,0.125,100,140.0
7016,G#4,551.5,0.125,100,140.0
7017,C5,551.75,0.125,100,140.0
7018,F5,551.75,0.25,100,140.0
7019,G#4,551.75,0.125,100,140.0
7020,F4,551.75,0.125,100,140.0
7021,F4,552.0,4.0,100,140.0
7022,F5,552.0,0.125,100,140.0
7023,F5,552.0,0.25,100,140.0
7024,E-4,552.0,1.0,100,140.0
7025,G#3,552.0,4.0,100,140.0
7026,C4,552.0,4.0,100,140.0
7027,F4,552.0,4.0,100,140.0
7028,F4,552.0,0.125,100,140.0
7029,G#4,552.0,0.125,100,140.0
7030,E-5,552.25,0.125,100,140.0
7031,F5,552.25,0.25,100,140.0
7032,G#4,552.25,0.125,100,140.0
7033,F4,552.25,0.125,100,140.0
7034,C#5,552.5,133/1000,100,140.0
7035,F5,552.5,0.25,100,140.0
7036,G#4,552.5,0.125,100,140.0
7037,F4,552.5,0.125,100,140.0
7038,C5,552.75,71/500,100,140.0
7039,F5,552.75,0.25,100,140.0
7040,F4,552.75,0.125,100,140.0
7041,G#4,552.75,0.125,100,140.0
7042,F5,553.0,79/500,100,140.0
7043,E-4,553.0,1.0,100,140.0
7044,F5,553.0,0.25,100,140.0
7045,G#4,553.0,0.125,100,140.0
7046,F4,553.0,0.125,100,140.0
7047,E-5,553.25,79/500,100,140.0
7048,F5,553.25,0.25,100,140.0
7049,G#4,553.25,0.125,100,140.0
7050,F4,553.25,0.125,100,140.0
7051,C#5,553.5,3/20,100,140.0
7052,F5,553.5,0.25,100,140.0
7053,G#4,553.5,0.125,100,140.0
7054,F4,553.5,0.125,100,140.0
7055,C5,553.75,71/500,100,140.0
7056,F5,553.75,0.25,100,140.0
7057,G#4,553.75,0.125,100,140.0
7058,F4,553.75,0.125,100,140.0
7059,F5,554.0,71/500,100,140.0
7060,F5,554.0,0.25,100,140.0
7061,E-4,554.0,1.0,100,140.0
7062,F4,554.0,0.125,100,140.0
7063,G#4,554.0,0.125,100,140.0
7064,E-5,554.25,133/1000,100,140.0
7065,F5,554.25,0.25,100,140.0
7066,F4,554.25,0.125,100,140.0
7067,G#4,554.25,0.125,100,140.0
7068,C#5,554.5,133/1000,100,140.0
7069,F5,554.5,0.25,100,140.0
7070,G#4,554.5,0.125,100,140.0
7071,F4,554.5,0.125,100,140.0
7072,C5,554.75,0.125,100,140.0
7073,F5,554.75,0.25,100,140.0
7074,F4,554.75,0.125,100,140.0
7075,G#4,554.75,0.125,100,140.0
7076,F5,555.0,0.125,100,140.0
7077,F5,555.0,0.25,100,140.0
7078,E-4,555.0,1.0,100,140.0
7079,G#4,555.0,0.125,100,140.0
7080,F4,555.0,0.125,100,140.0
7081,E-5,555.25,0.125,100,140.0
7082,F5,555.25,0.25,100,140.0
7083,G#4,555.25,0.125,100,140.0
7084,F4,555.25,0.125,100,140.0
7085,C#5,555.5,0.125,100,140.0
7086,F5,555.5,0.25,100,140.0
7087,G#4,555.5,0.125,100,140.0
7088,F4,555.5,0.125,100,140.0
7089,C5,555.75,0.125,100,140.0
7090,F5,555.75,0.25,100,140.0
7091,F4,555.75,0.125,100,140.0
7092,G#4,555.75,0.125,100,140.0
7093,F4,556.0,4.0,100,140.0
7094,F5,556.0,0.125,100,140.0
7095,F5,556.0,0.25,100,140.0
7096,F4,556.0,4.0,100,140.0
7097,C4,556.0,4.0,100,140.0
7098,G#3,556.0,4.0,100,140.0
7099,G#4,556.0,0.125,100,140.0
7100,F4,556.0,0.125,100,140.0
7101,E-5,556.25,0.125,100,140.0
7102,F5,556.25,0.25,100,140.0
7103,G#4,556.25,0.125,100,140.0
7104,F4,556.25,0.125,100,140.0
7105,C#5,556.5,133/1000,100,140.0
7106,F5,556.5,0.25,100,140.0
7107,F4,556.5,0.125,100,140.0
7108,G#4,556.5,0.125,100,140.0
7109,C5,556.75,71/500,100,140.0
7110,F5,556.75,0.25,100,140.0
7111,F4,556.75,0.125,100,140.0
7112,G#4,556.75,0.125,100,140.0
7113,F5,557.0,79/500,100,140.0
7114,F5,557.0,0.25,100,140.0
7115,G#4,557.0,0.125,100,140.0
7116,F4,557.0,0.125,100,140.0
7117,E-5,557.25,79/500,100,140.0
7118,F5,557.25,0.25,100,140.0
7119,G#4,557.25,0.125,100,140.0
7120,F4,557.25,0.125,100,140.0
7121,C#5,557.5,3/20,100,140.0
7122,F5,557.5,0.25,100,140.0
7123,F4,557.5,0.125,100,140.0
7124,G#4,557.5,0.125,100,140.0
7125,C5,557.75,71/500,100,140.0
7126,F5,557.75,0.25,100,140.0
7127,G#4,557.75,0.125,100,140.0
7128,F4,557.75,0.125,100,140.0
7129,F5,558.0,71/500,100,140.0
7130,F5,558.0,0.25,100,140.0
7131,G#4,558.0,0.125,100,140.0
7132,F4,558.0,0.125,100,140.0
7133,E-5,558.25,133/1000,100,140.0
7134,F5,558.25,0.25,100,140.0
7135,G#4,558.25,0.125,100,140.0
7136,F4,558.25,0.125,100,140.0
7137,C#5,558.5,133/1000,100,140.0
7138,F5,558.5,0.25,100,140.0
7139,F4,558.5,0.125,100,140.0
7140,G#4,558.5,0.125,100,140.0
7141,C5,558.75,0.125,100,140.0
7142,F5,558.75,0.25,100,140.0
7143,G#4,558.75,0.125,100,140.0
7144,F4,558.75,0.125,100,140.0
7145,F5,559.0,0.125,100,140.0
7146,F5,559.0,0.25,100,140.0
7147,F4,559.0,0.125,100,140.0
7148,G#4,559.0,0.125,100,140.0
7149,E-5,559.25,0.125,100,140.0
7150,F5,559.25,0.25,100,140.0
7151,F4,559.25,0.125,100,140.0
7152,G#4,559.25,0.125,100,140.0
7153,C#5,559.5,0.125,100,140.0
7154,F5,559.5,0.25,100,140.0
7155,G#4,559.5,0.125,100,140.0
7156,F4,559.5,0.125,100,140.0
7157,C5,559.75,0.125,100,140.0
7158,F5,559.75,0.25,100,140.0
7159,F4,559.75,0.125,100,140.0
7160,G#4,559.75,0.125,100,140.0
7161,F4,560.0,4.0,100,140.0
7162,F5,560.0,0.125,100,140.0
7163,F4,560.0,4.0,100,140.0
7164,C4,560.0,4.0,100,140.0
7165,G#3,560.0,4.0,100,140.0
7166,E-5,560.25,0.125,100,140.0
7167,C#5,560.5,133/1000,100,140.0
7168,C5,560.75,71/500,100,140.0
7169,F5,561.0,79/500,100,140.0
7170,E-5,561.25,79/500,100,140.0
7171,C#5,561.5,3/20,100,140.0
7172,C5,561.75,71/500,100,140.0
7173,F5,562.0,71/500,100,140.0
7174,E-5,562.25,133/1000,100,140.0
7175,C#5,562.5,133/1000,100,140.0
7176,C5,562.75,0.125,100,140.0
7177,F5,563.0,0.125,100,140.0
7178,E-5,563.25,0.125,100,140.0
7179,C#5,563.5,0.125,100,140.0
7180,C5,563.75,0.125,100,140.0
7181,F4,564.0,4.0,100,140.0
7182,F5,564.0,0.125,100,140.0
7183,F4,564.0,4.0,100,140.0
7184,C4,564.0,4.0,100,140.0
7185,G#3,564.0,4.0,100,140.0
7186,E-5,564.25,0.125,100,140.0
7187,C#5,564.5,133/1000,100,140.0
7188,C5,564.75,71/500,100,140.0
7189,F5,565.0,79/500,100,140.0
7190,E-5,565.25,79/500,100,140.0
7191,C#5,565.5,3/20,100,140.0
7192,C5,565.75,71/500,100,140.0
7193,F5,566.0,71/500,100,140.0
7194,E-5,566.25,133/1000,100,140.0
7195,C#5,566.5,133/1000,100,140.0
7196,C5,566.75,0.125,100,140.0
7197,F5,567.0,0.125,100,140.0
7198,E-5,567.25,0.125,100,140.0
7199,C#5,567.5,0.125,100,140.0
7200,C5,567.75,0.125,100,140.0
7201,F5,568.0,0.125,100,140.0
7202,G#3,568.0,4.0,100,140.0
7203,C4,568.0,4.0,100,140.0
7204,F4,568.0,4.0,100,140.0
7205,E-5,568.25,0.125,100,140.0
7206,C#5,568.5,133/1000,100,140.0
7207,C5,568.75,71/500,100,140.0
7208,F5,569.0,79/500,100,140.0
7209,E-5,569.25,79/500,100,140.0
7210,C#5,569.5,3/20,100,140.0
7211,C5,569.75,71/500,100,140.0
7212,F5,570.0,71/500,100,140.0
7213,E-5,570.25,133/1000,100,140.0
7214,C#5,570.5,133/1000,100,140.0
7215,C5,570.75,0.125,100,140.0
7216,F5,571.0,0.125,100,140.0
7217,E-5,571.25,0.125,100,140.0
7218,C#5,571.5,0.125,100,140.0
7219,C5,571.75,0.125,100,140.0
7220,F5,572.0,0.125,100,140.0
7221,G#3,572.0,4.0,100,140.0
7222,C4,572.0,4.0,100,140.0
7223,F4,572.0,4.0,100,140.0
7224,E-5,572.25,0.125,100,140.0
7225,C#5,572.5,133/1000,100,140.0
7226,C5,572.75,71/500,100,140.0
7227,F5,573.0,79/500,100,140.0
7228,E-5,573.25,79/500,100,140.0
7229,C#5,573.5,3/20,100,140.0
7230,C5,573.75,71/500,100,140.0
7231,F5,574.0,71/500,100,140.0
7232,E-5,574.25,133/1000,100,140.0
7233,C#5,574.5,133/1000,100,140.0
7234,C5,574.75,0.125,100,140.0
7235,F4,576.0,4.0,100,140.0
7236,C4,576.0,4.0,100,140.0
7237,G#3,576.0,4.0,100,140.0
7238,C4,580.0,4.0,100,140.0
7239,G#3,580.0,4.0,100,140.0
7240,F4,580.0,4.0,100,140.0
7241,G#3,584.0,4.0,100,140.0
7242,C4,584.0,4.0,100,140.0
7243,F4,584.0,4.0,100,140.0
7244,F4,588.0,4.0,100,140.0
7245,C4,588.0,4.0,100,140.0
7246,G#3,588.0,4.0,100,140.0
7247,F4,592.0,4.0,100,140.0
7248,C4,592.0,4.0,100,140.0
7249,G#3,592.0,4.0,100,140.0
7250,F4,596.0,4.0,100,140.0
7251,C4,596.0,4.0,100,140.0
7252,G#3,596.0,4.0,100,140.0
7253,G#3,600.0,4.0,100,140.0
7254,C4,600.0,4.0,100,140.0
7255,F4,600.0,4.0,100,140.0
7256,G#3,604.0,4.0,100,140.0
7257,C4,604.0,4.0,100,140.0
7258,F4,604.0,4.0,100,140.0
7259,G#3,608.0,4.0,100,140.0
7260,C4,608.0,4.0,100,140.0
7261,F4,608.0,4.0,100,140.0
7262,F4,612.0,1.0,100,140.0
7263,C#4,612.5,0.5,100,140.0
7264,F4,613.0,1.0,100,140.0
7265,C#4,613.5,0.5,100,140.0
7266,F4,614.0,1.0,100,140.0
7267,C#4,614.5,0.5,100,140.0
7268,F4,615.0,1.0,100,140.0
7269,C#4,615.5,0.5,100,140.0
7270,F4,616.0,1.0,100,140.0
7271,C#4,616.5,0.5,100,140.0
7272,F4,617.0,1.0,100,140.0
7273,C#4,617.5,0.5,100,140.0
7274,F4,618.0,1.0,100,140.0
7275,C#4,618.5,0.5,100,140.0
7276,F4,619.0,1.0,100,140.0
7277,C#4,619.5,0.5,100,140.0
7278,C4,636.0,4.0,127,140.0
7279,F4,636.0,4.0,127,140.0
7280,C4,724.0,4.0,127,140.0
7281,F4,724.0,4.0,127,140.0
7282,C4,808.0,4.0,127,140.0
7283,F4,808.0,4.0,127,140.0
7284,C4,888.0,4.0,127,140.0
7285,F4,888.0,4.0,127,140.0
7286,C4,964.0,4.0,127,140.0
7287,F4,964.0,4.0,127,140.0
7288,C4,1036.0,4.0,127,140.0
7289,F4,1036.0,4.0,127,140.0
7290,C4,1104.0,4.0,127,140.0
7291,F4,1104.0,4.0,127,140.0
7292,C4,1168.0,4.0,127,140.0
7293,F4,1168.0,4.0,127,140.0
7294,C4,1228.0,4.0,127,140.0
7295,F4,1228.0,4.0,127,140.0
7296,C4,1284.0,4.0,127,140.0
7297,F4,1284.0,4.0,127,140.0
7298,C4,1336.0,4.0,127,140.0
7299,F4,1336.0,4.0,127,140.0
7300,C4,1384.0,4.0,127,140.0
7301,F4,1384.0,4.0,127,140.0
7302,C4,1428.0,4.0,127,140.0
7303,F4,1428.0,4.0,127,140.0
7304,C4,1468.0,4.0,127,140.0
7305,F4,1468.0,4.0,127,140.0
7306,C4,1504.0,4.0,127,140.0
7307,F4,1504.0,4.0,127,140.0
7308,C4,1536.0,4.0,127,140.0
7309,F4,1536.0,4.0,127,140.0
7310,C4,1564.0,4.0,127,140.0
7311,F4,1564.0,4.0,127,140.0
7312,C4,1588.0,4.0,127,140.0
7313,F4,1588.0,4.0,127,140.0
7314,C4,1608.0,4.0,127,140.0
7315,F4,1608.0,4.0,127,140.0
7316,C4,1624.0,4.0,127,140.0
7317,F4,1624.0,4.0,127,140.0
7318,C4,1636.0,4.0,127,140.0
7319,F4,1636.0,4.0,127,140.0
7320,C4,1644.0,4.0,127,140.0
7321,F4,1644.0,4.0,127,140.0
