,note_name,start_time,duration,velocity,tempo
0,F#2,0.0,0.25,31,105.6
1,D2,0.0,0.5,95,105.6
2,B1,0.0,0.5,95,105.6
3,F#2,0.25,0.25,31,105.6
4,F#2,0.5,0.25,63,105.6
5,F2,0.5,0.25,63,105.6
6,F#2,0.75,0.25,31,105.6
7,B1,0.75,0.5,95,105.6
8,E3,0.75,0.5,95,105.6
9,F#2,1.0,0.25,31,105.6
10,F#2,1.25,0.25,63,105.6
11,C3,1.25,0.25,63,105.6
12,D3,1.5,1.0,95,105.6
13,F#2,1.5,0.25,31,105.6
14,B1,1.5,0.5,95,105.6
15,F#2,1.75,0.25,31,105.6
16,F#2,2.0,0.25,31,105.6
17,F#2,2.25,0.25,31,105.6
18,A4,2.25,0.75,90,105.6
19,F4,2.25,0.75,90,105.6
20,D5,2.25,0.75,90,105.6
21,B1,2.5,0.5,95,105.6
22,D2,2.5,0.25,63,105.6
23,F#2,2.5,0.25,63,105.6
24,F#2,2.75,0.25,63,105.6
25,D2,2.75,0.25,63,105.6
26,D2,3.0,0.5,114,105.6
27,F#2,3.0,0.25,31,105.6
28,C5,3.0,1.0,90,105.6
29,G4,3.0,1.0,90,105.6
30,E4,3.0,1.0,90,105.6
31,F#2,3.25,0.25,63,105.6
32,B-2,3.25,0.25,63,105.6
33,G2,3.5,0.5,95,105.6
34,F#2,3.5,0.25,31,105.6
35,F#2,3.75,0.25,31,105.6
36,F#2,4.0,0.25,31,105.6
37,B1,4.0,0.5,95,105.6
38,D2,4.0,0.5,95,105.6
39,F#2,4.25,0.25,31,105.6
40,F2,4.5,0.25,63,105.6
41,F#2,4.5,0.25,63,105.6
42,F#2,4.75,0.25,31,105.6
43,E3,4.75,0.5,95,105.6
44,B1,4.75,0.5,95,105.6
45,F#2,5.0,0.25,31,105.6
46,C3,5.25,0.25,63,105.6
47,F#2,5.25,0.25,63,105.6
48,F#2,5.5,0.25,31,105.6
49,D3,5.5,0.5,95,105.6
50,B1,5.5,0.5,95,105.6
51,F#2,5.75,0.25,31,105.6
52,F#2,6.0,0.25,63,105.6
53,A2,6.0,0.25,63,105.6
54,F#2,6.25,0.25,63,105.6
55,F2,6.25,0.25,63,105.6
56,A3,6.25,0.75,90,105.6
57,C3,6.25,0.75,90,105.6
58,F3,6.25,0.75,90,105.6
59,F#2,6.5,0.25,31,105.6
60,B1,6.5,0.5,95,105.6
61,F2,6.5,0.5,95,105.6
62,F#2,6.75,0.25,31,105.6
63,F#2,7.0,0.25,31,105.6
64,G2,7.0,1.0,91,105.6
65,B3,7.0,1.0,91,105.6
66,G3,7.0,1.0,91,105.6
67,D3,7.0,1.0,91,105.6
68,D2,7.25,0.5,114,105.6
69,F#2,7.25,0.25,31,105.6
70,F#2,7.5,0.25,31,105.6
71,F#2,7.75,0.25,31,105.6
72,F#2,8.0,0.25,31,105.6
73,D2,8.0,0.5,95,105.6
74,B1,8.0,0.5,95,105.6
75,F#2,8.25,0.25,31,105.6
76,F2,8.5,0.25,63,105.6
77,F#2,8.5,0.25,63,105.6
78,F#2,8.75,0.25,31,105.6
79,E3,8.75,0.5,95,105.6
80,B1,8.75,0.5,95,105.6
81,F#2,9.0,0.25,31,105.6
82,F#2,9.25,0.25,63,105.6
83,C3,9.25,0.25,63,105.6
84,D3,9.5,1.0,95,105.6
85,F#2,9.5,0.25,31,105.6
86,B1,9.5,0.5,95,105.6
87,F#2,9.75,0.25,31,105.6
88,C4,9.75,1.25,90,105.6
89,F4,9.75,1.25,90,105.6
90,A4,9.75,1.25,90,105.6
91,F#2,10.0,0.25,31,105.6
92,F#2,10.25,0.25,31,105.6
93,B1,10.5,0.5,95,105.6
94,F#2,10.5,0.25,63,105.6
95,D2,10.5,0.25,63,105.6
96,D2,10.75,0.25,63,105.6
97,F#2,10.75,0.25,63,105.6
98,F#2,11.0,0.25,31,105.6
99,D2,11.0,0.5,114,105.6
100,E4,11.0,1.0,90,105.6
101,G4,11.0,1.0,90,105.6
102,C4,11.0,1.0,90,105.6
103,F#2,11.25,0.25,31,105.6
104,D2,11.5,0.5,95,105.6
105,F#2,11.5,0.25,31,105.6
106,F#2,11.75,0.25,31,105.6
107,F#2,12.0,0.25,31,105.6
108,D2,12.0,0.5,95,105.6
109,B1,12.0,0.5,95,105.6
110,C4,12.0,2.0,90,105.6
111,E4,12.0,2.0,90,105.6
112,G3,12.0,2.0,90,105.6
113,F#2,12.25,0.25,31,105.6
114,F2,12.5,0.25,63,105.6
115,F#2,12.5,0.25,63,105.6
116,F#2,12.75,0.25,31,105.6
117,E3,12.75,0.5,95,105.6
118,B1,12.75,0.5,95,105.6
119,F#2,13.0,0.25,31,105.6
120,F#2,13.25,0.25,63,105.6
121,C3,13.25,0.25,63,105.6
122,F#2,13.5,0.25,31,105.6
123,D3,13.5,0.5,95,105.6
124,B1,13.5,0.5,95,105.6
125,F#2,13.75,0.25,72,105.6
126,D2,13.75,0.25,72,105.6
127,F#2,14.0,0.25,80,105.6
128,D2,14.0,0.25,80,105.6
129,A2,14.0,0.25,80,105.6
130,D2,14.25,0.5,114,105.6
131,C3,14.25,0.75,90,105.6
132,F3,14.25,0.75,90,105.6
133,A3,14.25,0.75,90,105.6
134,F#2,14.25,0.25,63,105.6
135,F2,14.25,0.25,63,105.6
136,F2,14.5,0.5,95,105.6
137,B1,14.5,0.25,63,105.6
138,F#2,14.5,0.25,63,105.6
139,F#2,14.75,0.25,63,105.6
140,G2,14.75,0.25,63,105.6
141,F#2,15.0,0.25,63,105.6
142,G2,15.0,0.25,63,105.6
143,D3,15.0,1.0,91,105.6
144,G3,15.0,1.0,91,105.6
145,B3,15.0,1.0,91,105.6
146,G2,15.0,1.0,91,105.6
147,F#2,15.25,0.25,31,105.6
148,G2,15.25,0.5,95,105.6
149,F#2,15.5,0.25,31,105.6
150,D2,15.75,0.25,72,105.6
151,F#2,15.75,0.25,72,105.6
152,F#2,16.0,0.25,31,105.6
153,G3,16.0,4.0,75,105.6
154,E4,16.0,4.0,75,105.6
155,C4,16.0,4.0,75,105.6
156,D2,16.0,0.5,88,105.6
157,B1,16.0,0.5,88,105.6
158,F#2,16.25,0.25,31,105.6
159,D4,16.5,0.5,95,105.6
160,F#2,16.5,0.25,56,105.6
161,D3,16.5,0.25,56,105.6
162,B1,16.75,0.5,95,105.6
163,F#2,16.75,0.25,56,105.6
164,D3,16.75,0.25,56,105.6
165,F#2,17.0,0.25,31,105.6
166,D4,17.0,0.5,88,105.6
167,D2,17.0,0.5,88,105.6
168,F#2,17.25,0.25,31,105.6
169,D3,17.5,0.5,88,105.6
170,B1,17.5,0.5,88,105.6
171,F#2,17.5,0.25,63,105.6
172,F4,17.5,0.25,63,105.6
173,F#2,17.75,0.25,63,105.6
174,F4,17.75,0.25,63,105.6
175,F#2,18.0,0.25,31,105.6
176,D2,18.0,0.75,82,105.6
177,G4,18.0,1.0,95,105.6
178,F#2,18.25,0.25,31,105.6
179,F#2,18.5,0.25,31,105.6
180,B1,18.5,0.5,95,105.6
181,D2,18.75,0.25,56,105.6
182,F#2,18.75,0.25,56,105.6
183,D2,19.0,1.0,82,105.6
184,B1,19.0,0.5,95,105.6
185,F#2,19.0,0.25,31,105.6
186,F#2,19.25,0.25,31,105.6
187,D4,19.5,0.25,63,105.6
188,F#2,19.5,0.25,63,105.6
189,F#2,19.75,0.25,63,105.6
190,D4,19.75,0.25,63,105.6
191,F#2,20.0,0.25,31,105.6
192,D2,20.0,0.5,91,105.6
193,B1,20.0,0.5,91,105.6
194,A4,20.0,0.5,91,105.6
195,F#2,20.25,0.25,31,105.6
196,G4,20.5,0.25,69,105.6
197,F#2,20.5,0.25,69,105.6
198,D3,20.5,0.25,69,105.6
199,F#2,20.75,0.25,31,105.6
200,G4,20.75,0.75,95,105.6
201,D2,20.75,0.5,88,105.6
202,B1,20.75,0.5,88,105.6
203,F#2,21.0,0.25,31,105.6
204,F#2,21.25,0.25,56,105.6
205,D2,21.25,0.25,56,105.6
206,F#2,21.5,0.25,31,105.6
207,B1,21.5,0.5,91,105.6
208,F4,21.5,0.5,91,105.6
209,D2,21.5,0.5,91,105.6
210,F#2,21.75,0.25,31,105.6
211,A4,22.0,1.0,95,105.6
212,F#2,22.0,0.25,31,105.6
213,F#2,22.25,0.25,56,105.6
214,D2,22.25,0.25,56,105.6
215,F#2,22.5,0.25,31,105.6
216,D2,22.5,0.5,88,105.6
217,B1,22.5,0.5,88,105.6
218,F#2,22.75,0.25,31,105.6
219,D2,23.0,1.0,82,105.6
220,F#2,23.0,0.25,31,105.6
221,D2,23.0,0.5,104,105.6
222,B1,23.0,0.5,104,105.6
223,F#2,23.25,0.25,31,105.6
224,F#2,23.5,0.25,31,105.6
225,F#2,23.75,0.25,31,105.6
226,F#2,24.0,0.25,31,105.6
227,D2,24.0,0.5,88,105.6
228,B1,24.0,0.5,88,105.6
229,F#2,24.25,0.25,31,105.6
230,D4,24.5,0.25,69,105.6
231,D3,24.5,0.25,69,105.6
232,F#2,24.5,0.25,69,105.6
233,B1,24.75,0.5,95,105.6
234,F#2,24.75,0.25,69,105.6
235,D3,24.75,0.25,69,105.6
236,D4,24.75,0.25,69,105.6
237,F#2,25.0,0.25,31,105.6
238,D4,25.0,0.5,88,105.6
239,D2,25.0,0.5,88,105.6
240,F#2,25.25,0.25,31,105.6
241,F#2,25.5,0.25,31,105.6
242,B1,25.5,0.5,91,105.6
243,D3,25.5,0.5,91,105.6
244,D4,25.5,0.5,91,105.6
245,F#2,25.75,0.25,31,105.6
246,D2,26.0,0.75,82,105.6
247,F4,26.0,1.0,95,105.6
248,F#2,26.0,0.25,31,105.6
249,F#2,26.25,0.25,31,105.6
250,B1,26.5,0.5,95,105.6
251,F#2,26.5,0.25,31,105.6
252,D2,26.75,0.25,56,105.6
253,F#2,26.75,0.25,56,105.6
254,F#2,27.0,0.25,63,105.6
255,G4,27.0,0.25,63,105.6
256,B1,27.0,0.5,88,105.6
257,D2,27.0,0.5,88,105.6
258,F#2,27.25,0.25,63,105.6
259,G4,27.25,0.25,63,105.6
260,A4,27.5,0.5,95,105.6
261,F#2,27.5,0.25,56,105.6
262,F2,27.5,0.25,56,105.6
263,F#2,27.75,0.25,56,105.6
264,F2,27.75,0.25,56,105.6
265,F#2,28.0,0.25,31,105.6
266,A4,28.0,0.75,95,105.6
267,F2,28.0,0.5,88,105.6
268,B1,28.0,0.5,88,105.6
269,F#2,28.25,0.25,31,105.6
270,F#2,28.5,0.25,56,105.6
271,F2,28.5,0.25,56,105.6
272,B1,28.75,0.5,95,105.6
273,F#2,28.75,0.25,31,105.6
274,G4,28.75,0.75,88,105.6
275,F2,28.75,0.75,88,105.6
276,F#2,29.0,0.25,31,105.6
277,F#2,29.25,0.25,31,105.6
278,B1,29.5,0.5,95,105.6
279,G4,29.5,0.5,95,105.6
280,G2,29.5,0.25,56,105.6
281,F#2,29.5,0.25,56,105.6
282,F#2,29.75,0.25,56,105.6
283,A2,29.75,0.25,56,105.6
284,G2,30.0,0.5,82,105.6
285,F#2,30.0,0.25,63,105.6
286,G4,30.0,0.25,63,105.6
287,F4,30.25,0.25,63,105.6
288,F#2,30.25,0.25,63,105.6
289,D2,30.5,0.25,76,105.6
290,F#2,30.5,0.25,76,105.6
291,G2,30.5,0.25,76,105.6
292,D4,30.5,0.5,95,105.6
293,B1,30.5,0.5,95,105.6
294,D2,30.75,0.25,76,105.6
295,G2,30.75,0.25,76,105.6
296,F#2,30.75,0.25,76,105.6
297,B1,31.0,0.5,95,105.6
298,D3,31.0,1.0,82,105.6
299,D2,31.0,0.25,72,105.6
300,F#2,31.0,0.25,72,105.6
301,F#2,31.25,0.25,31,105.6
302,D2,31.25,0.5,95,105.6
303,C#3,31.25,0.5,95,105.6
304,F#2,31.5,0.25,31,105.6
305,F#2,31.75,0.25,54,105.6
306,C#3,31.75,0.25,54,105.6
307,F#2,32.0,0.25,31,105.6
308,B1,32.0,0.5,84,105.6
309,D2,32.0,0.5,84,105.6
310,C#3,32.0,0.5,84,105.6
311,F#2,32.25,0.25,31,105.6
312,F#2,32.5,0.25,69,105.6
313,D3,32.5,0.25,69,105.6
314,D4,32.5,0.25,69,105.6
315,B1,32.75,0.5,95,105.6
316,D4,32.75,0.25,69,105.6
317,D3,32.75,0.25,69,105.6
318,F#2,32.75,0.25,69,105.6
319,D2,33.0,0.5,82,105.6
320,D4,33.0,0.25,63,105.6
321,F#2,33.0,0.25,63,105.6
322,D4,33.25,0.25,63,105.6
323,F#2,33.25,0.25,63,105.6
324,F#2,33.5,0.25,31,105.6
325,B1,33.5,0.5,91,105.6
326,D3,33.5,0.5,91,105.6
327,D4,33.5,0.5,91,105.6
328,F#2,33.75,0.25,31,105.6
329,D2,34.0,0.75,82,105.6
330,F#2,34.0,0.25,31,105.6
331,F4,34.0,1.0,95,105.6
332,F#2,34.25,0.25,31,105.6
333,B1,34.5,0.5,95,105.6
334,F#2,34.5,0.25,31,105.6
335,D2,34.75,0.25,56,105.6
336,F#2,34.75,0.25,56,105.6
337,G4,35.0,0.75,95,105.6
338,F#2,35.0,0.25,31,105.6
339,D2,35.0,1.0,82,105.6
340,B1,35.0,0.5,95,105.6
341,F#2,35.25,0.25,31,105.6
342,F#2,35.5,0.25,31,105.6
343,F#2,35.75,0.25,63,105.6
344,F4,35.75,0.25,63,105.6
345,F#2,36.0,0.25,31,105.6
346,D2,36.0,0.5,91,105.6
347,A4,36.0,0.5,91,105.6
348,B1,36.0,0.5,91,105.6
349,F#2,36.25,0.25,31,105.6
350,F#2,36.5,0.25,69,105.6
351,G4,36.5,0.25,69,105.6
352,D3,36.5,0.25,69,105.6
353,F#2,36.75,0.25,31,105.6
354,B1,36.75,0.5,91,105.6
355,D2,36.75,0.5,91,105.6
356,G4,36.75,0.5,91,105.6
357,F#2,37.0,0.25,31,105.6
358,F#2,37.25,0.25,69,105.6
359,F4,37.25,0.25,69,105.6
360,D2,37.25,0.25,69,105.6
361,F#2,37.5,0.25,31,105.6
362,A4,37.5,1.5,95,105.6
363,D2,37.5,0.5,88,105.6
364,B1,37.5,0.5,88,105.6
365,F#2,37.75,0.25,31,105.6
366,F#2,38.0,0.25,31,105.6
367,D2,38.0,0.75,82,105.6
368,F#2,38.25,0.25,31,105.6
369,F#2,38.5,0.25,31,105.6
370,B1,38.5,0.5,95,105.6
371,D3,38.75,0.25,56,105.6
372,F#2,38.75,0.25,56,105.6
373,D2,39.0,1.0,82,105.6
374,F#2,39.0,0.25,31,105.6
375,B1,39.0,0.5,104,105.6
376,D2,39.0,0.5,104,105.6
377,F#2,39.25,0.25,31,105.6
378,F#2,39.5,0.25,31,105.6
379,D4,39.75,0.25,63,105.6
380,F#2,39.75,0.25,63,105.6
381,F#2,40.0,0.25,31,105.6
382,B1,40.0,0.5,91,105.6
383,A4,40.0,0.5,91,105.6
384,D2,40.0,0.5,91,105.6
385,F#2,40.25,0.25,31,105.6
386,F#2,40.5,0.25,69,105.6
387,D3,40.5,0.25,69,105.6
388,A4,40.5,0.25,69,105.6
389,B1,40.75,0.5,95,105.6
390,D3,40.75,0.25,69,105.6
391,F#2,40.75,0.25,69,105.6
392,A4,40.75,0.25,69,105.6
393,F#2,41.0,0.25,31,105.6
394,A4,41.0,0.5,88,105.6
395,D2,41.0,0.5,88,105.6
396,F#2,41.25,0.25,31,105.6
397,F#2,41.5,0.25,31,105.6
398,A4,41.5,0.5,91,105.6
399,B1,41.5,0.5,91,105.6
400,D3,41.5,0.5,91,105.6
401,F#2,41.75,0.25,31,105.6
402,D2,42.0,0.75,82,105.6
403,A4,42.0,0.25,63,105.6
404,F#2,42.0,0.25,63,105.6
405,F#2,42.25,0.25,31,105.6
406,A4,42.25,0.5,95,105.6
407,F#2,42.5,0.25,31,105.6
408,B1,42.5,0.5,95,105.6
409,C5,42.75,1.25,95,105.6
410,F#2,42.75,0.25,56,105.6
411,D2,42.75,0.25,56,105.6
412,F#2,43.0,0.25,31,105.6
413,D2,43.0,1.0,82,105.6
414,D2,43.0,0.5,104,105.6
415,B1,43.0,0.5,104,105.6
416,F#2,43.25,0.25,31,105.6
417,F#2,43.5,0.25,31,105.6
418,F#2,43.75,0.25,31,105.6
419,F#2,44.0,0.25,31,105.6
420,F2,44.0,1.5,54,105.6
421,G4,44.0,1.5,54,105.6
422,E4,44.0,1.5,54,105.6
423,C4,44.0,1.5,54,105.6
424,C5,44.0,0.5,95,105.6
425,B1,44.0,0.5,95,105.6
426,F#2,44.25,0.25,31,105.6
427,E5,44.5,1.0,95,105.6
428,F#2,44.5,0.25,31,105.6
429,F#2,44.75,0.25,31,105.6
430,B1,44.75,0.5,95,105.6
431,D2,45.0,0.5,114,105.6
432,F#2,45.0,0.25,31,105.6
433,F#2,45.25,0.25,31,105.6
434,F#2,45.5,0.25,31,105.6
435,B1,45.5,0.5,95,105.6
436,B4,45.5,2.5,44,105.6
437,D5,45.5,2.5,44,105.6
438,G4,45.5,2.5,44,105.6
439,G2,45.5,1.5,88,105.6
440,D5,45.5,1.5,88,105.6
441,F#2,45.75,0.25,31,105.6
442,D2,46.0,0.5,114,105.6
443,F#2,46.0,0.25,31,105.6
444,F#2,46.25,0.25,31,105.6
445,B1,46.5,0.25,80,105.6
446,D2,46.5,0.25,80,105.6
447,F#2,46.5,0.25,80,105.6
448,F#2,46.75,0.25,63,105.6
449,B2,46.75,0.25,63,105.6
450,E5,47.0,0.5,95,105.6
451,G2,47.0,1.0,82,105.6
452,F#2,47.0,0.25,63,105.6
453,B2,47.0,0.25,63,105.6
454,A2,47.25,0.25,63,105.6
455,F#2,47.25,0.25,63,105.6
456,G2,47.5,0.5,95,105.6
457,F#2,47.5,0.25,63,105.6
458,D5,47.5,0.25,63,105.6
459,C5,47.75,0.25,63,105.6
460,F#2,47.75,0.25,63,105.6
461,F#2,48.0,0.25,31,105.6
462,A2,48.0,1.5,54,105.6
463,A4,48.0,1.5,54,105.6
464,C4,48.0,1.5,54,105.6
465,E4,48.0,1.5,54,105.6
466,C#3,48.0,0.5,86,105.6
467,B1,48.0,0.5,86,105.6
468,F#2,48.25,0.25,31,105.6
469,F#2,48.5,0.25,31,105.6
470,C5,48.5,0.5,95,105.6
471,D2,48.75,0.5,114,105.6
472,F#2,48.75,0.25,31,105.6
473,C5,49.0,0.5,95,105.6
474,F#2,49.0,0.25,31,105.6
475,F#2,49.25,0.25,31,105.6
476,F#2,49.5,0.25,63,105.6
477,C5,49.5,0.25,63,105.6
478,C4,49.5,2.5,44,105.6
479,E4,49.5,2.5,44,105.6
480,A4,49.5,2.5,44,105.6
481,A2,49.5,0.5,88,105.6
482,B1,49.5,0.5,88,105.6
483,C5,49.75,1.0,95,105.6
484,F#2,49.75,0.25,31,105.6
485,A2,50.0,2.0,82,105.6
486,B1,50.0,0.5,95,105.6
487,F#2,50.0,0.25,31,105.6
488,F#2,50.25,0.25,31,105.6
489,F#2,50.5,0.25,31,105.6
490,C5,50.75,0.75,95,105.6
491,F#2,50.75,0.25,31,105.6
492,D2,51.0,0.5,114,105.6
493,F#2,51.0,0.25,31,105.6
494,F#2,51.25,0.25,31,105.6
495,F#2,51.5,0.25,31,105.6
496,C5,51.5,0.5,95,105.6
497,B1,51.5,0.5,95,105.6
498,F#2,51.75,0.25,31,105.6
499,F#2,52.0,0.25,31,105.6
500,B4,52.0,1.5,54,105.6
501,D4,52.0,1.5,54,105.6
502,G2,52.0,1.5,54,105.6
503,G4,52.0,1.5,54,105.6
504,B1,52.0,0.5,95,105.6
505,B4,52.0,0.5,95,105.6
506,F#2,52.25,0.25,31,105.6
507,A4,52.5,0.5,95,105.6
508,F#2,52.5,0.25,31,105.6
509,F#2,52.75,0.25,31,105.6
510,F#2,53.0,0.25,31,105.6
511,D2,53.0,0.5,104,105.6
512,G4,53.0,0.5,104,105.6
513,F#2,53.25,0.25,31,105.6
514,A4,53.5,1.5,95,105.6
515,B1,53.5,0.5,95,105.6
516,F#2,53.5,0.25,31,105.6
517,A4,53.5,2.5,54,105.6
518,D4,53.5,2.5,54,105.6
519,D2,53.5,2.5,54,105.6
520,F#4,53.5,2.5,54,105.6
521,F#2,53.75,0.25,31,105.6
522,B1,54.0,0.5,95,105.6
523,F#2,54.0,0.25,31,105.6
524,F#2,54.25,0.25,31,105.6
525,F#2,54.5,0.25,31,105.6
526,F#2,54.75,0.25,31,105.6
527,F#2,55.0,0.25,31,105.6
528,D2,55.25,0.5,114,105.6
529,F#2,55.25,0.25,31,105.6
530,F#2,55.5,0.25,31,105.6
531,C#3,55.5,0.5,76,105.6
532,F#2,55.75,0.25,63,105.6
533,G2,55.75,0.25,63,105.6
534,F#2,56.0,0.25,31,105.6
535,C4,56.0,1.5,54,105.6
536,A4,56.0,1.5,54,105.6
537,E4,56.0,1.5,54,105.6
538,A2,56.0,1.5,54,105.6
539,C#3,56.0,0.5,86,105.6
540,B1,56.0,0.5,86,105.6
541,F#2,56.25,0.25,31,105.6
542,C5,56.5,0.5,95,105.6
543,F#2,56.5,0.25,31,105.6
544,F#2,56.75,0.25,31,105.6
545,D2,56.75,0.5,114,105.6
546,C5,57.0,0.5,95,105.6
547,F#2,57.0,0.25,31,105.6
548,F#2,57.25,0.25,31,105.6
549,F#2,57.5,0.25,31,105.6
550,A2,57.5,0.5,91,105.6
551,C5,57.5,0.5,91,105.6
552,B1,57.5,0.5,91,105.6
553,A4,57.5,2.5,44,105.6
554,E4,57.5,2.5,44,105.6
555,C4,57.5,2.5,44,105.6
556,F#2,57.75,0.25,31,105.6
557,A2,58.0,2.0,82,105.6
558,B1,58.0,0.5,95,105.6
559,C5,58.0,0.25,63,105.6
560,F#2,58.0,0.25,63,105.6
561,C5,58.25,0.5,95,105.6
562,F#2,58.25,0.25,31,105.6
563,F#2,58.5,0.25,31,105.6
564,C5,58.75,0.25,63,105.6
565,F#2,58.75,0.25,63,105.6
566,D2,59.0,0.5,114,105.6
567,F#2,59.0,0.25,63,105.6
568,C5,59.0,0.25,63,105.6
569,F#2,59.25,0.25,31,105.6
570,C5,59.25,0.5,95,105.6
571,B1,59.5,0.5,95,105.6
572,F#2,59.5,0.25,31,105.6
573,C5,59.75,0.25,63,105.6
574,F#2,59.75,0.25,63,105.6
575,F#2,60.0,0.25,31,105.6
576,G4,60.0,1.5,54,105.6
577,G2,60.0,1.5,54,105.6
578,D4,60.0,1.5,54,105.6
579,B4,60.0,1.5,54,105.6
580,B4,60.0,0.5,95,105.6
581,B1,60.0,0.5,95,105.6
582,F#2,60.25,0.25,31,105.6
583,F#2,60.5,0.25,63,105.6
584,A4,60.5,0.25,63,105.6
585,F#2,60.75,0.25,31,105.6
586,A4,60.75,0.75,95,105.6
587,F#2,61.0,0.25,31,105.6
588,D2,61.0,0.5,114,105.6
589,F#2,61.25,0.25,31,105.6
590,A4,61.5,0.75,95,105.6
591,F#2,61.5,0.25,31,105.6
592,B1,61.5,0.5,95,105.6
593,F#4,61.5,2.5,54,105.6
594,D4,61.5,2.5,54,105.6
595,A4,61.5,2.5,54,105.6
596,D2,61.5,2.5,54,105.6
597,F#2,61.75,0.25,31,105.6
598,F#2,62.0,0.25,31,105.6
599,B1,62.0,0.5,95,105.6
600,F#2,62.25,0.25,63,105.6
601,G4,62.25,0.25,63,105.6
602,F#4,62.5,0.5,95,105.6
603,F#2,62.5,0.25,63,105.6
604,F2,62.5,0.25,63,105.6
605,F2,62.75,0.25,63,105.6
606,F#2,62.75,0.25,63,105.6
607,F#2,63.0,0.25,63,105.6
608,F2,63.0,0.25,63,105.6
609,F#2,63.25,0.25,31,105.6
610,D2,63.25,0.5,114,105.6
611,F#2,63.5,0.25,31,105.6
612,F2,63.75,0.25,63,105.6
613,F#2,63.75,0.25,63,105.6
614,F#2,64.0,0.25,31,105.6
615,B1,64.0,0.5,86,105.6
616,C#3,64.0,0.5,86,105.6
617,C4,64.0,1.5,54,105.6
618,E4,64.0,1.5,54,105.6
619,A2,64.0,1.5,54,105.6
620,A4,64.0,1.5,54,105.6
621,F#2,64.25,0.25,31,105.6
622,C5,64.5,0.5,95,105.6
623,F#2,64.5,0.25,31,105.6
624,F#2,64.75,0.25,31,105.6
625,D2,64.75,0.5,114,105.6
626,C5,65.0,0.5,95,105.6
627,F#2,65.0,0.25,31,105.6
628,F#2,65.25,0.25,31,105.6
629,F#2,65.5,0.25,31,105.6
630,B1,65.5,0.5,91,105.6
631,C5,65.5,0.5,91,105.6
632,A2,65.5,0.5,91,105.6
633,E4,65.5,2.5,44,105.6
634,A4,65.5,2.5,44,105.6
635,C4,65.5,2.5,44,105.6
636,F#2,65.75,0.25,31,105.6
637,B1,66.0,0.5,95,105.6
638,A2,66.0,2.0,82,105.6
639,C5,66.0,0.25,63,105.6
640,F#2,66.0,0.25,63,105.6
641,C5,66.25,0.5,95,105.6
642,F#2,66.25,0.25,31,105.6
643,F#2,66.5,0.25,31,105.6
644,F#2,66.75,0.25,63,105.6
645,C5,66.75,0.25,63,105.6
646,D2,67.0,0.5,114,105.6
647,F#2,67.0,0.25,63,105.6
648,C5,67.0,0.25,63,105.6
649,F#2,67.25,0.25,31,105.6
650,C5,67.25,0.5,95,105.6
651,F#2,67.5,0.25,31,105.6
652,B1,67.5,0.5,95,105.6
653,F#2,67.75,0.25,63,105.6
654,C5,67.75,0.25,63,105.6
655,F#2,68.0,0.25,31,105.6
656,B1,68.0,0.5,95,105.6
657,B4,68.0,0.5,95,105.6
658,B4,68.0,1.5,54,105.6
659,D4,68.0,1.5,54,105.6
660,G4,68.0,1.5,54,105.6
661,G2,68.0,1.5,54,105.6
662,F#2,68.25,0.25,31,105.6
663,F#2,68.5,0.25,63,105.6
664,A4,68.5,0.25,63,105.6
665,F#2,68.75,0.25,31,105.6
666,A4,68.75,0.75,95,105.6
667,F#2,69.0,0.25,31,105.6
668,D2,69.0,0.5,114,105.6
669,F#2,69.25,0.25,31,105.6
670,F#2,69.5,0.25,31,105.6
671,A4,69.5,2.5,54,105.6
672,D2,69.5,2.5,54,105.6
673,D4,69.5,2.5,54,105.6
674,F#4,69.5,2.5,54,105.6
675,B1,69.5,0.5,95,105.6
676,A4,69.5,0.5,95,105.6
677,F#2,69.75,0.25,31,105.6
678,B1,70.0,0.5,95,105.6
679,F#2,70.0,0.25,63,105.6
680,A4,70.0,0.25,63,105.6
681,G4,70.25,0.25,63,105.6
682,F#2,70.25,0.25,63,105.6
683,F#2,70.5,0.25,31,105.6
684,F#4,70.5,0.5,95,105.6
685,F#2,70.75,0.25,72,105.6
686,D2,70.75,0.25,72,105.6
687,D2,71.0,0.25,72,105.6
688,F#2,71.0,0.25,72,105.6
689,F#2,71.25,0.25,31,105.6
690,E-3,71.25,0.5,95,105.6
691,D2,71.25,0.5,95,105.6
692,A4,71.5,0.5,95,105.6
693,F#2,71.5,0.25,31,105.6
694,D2,71.75,0.25,72,105.6
695,F#2,71.75,0.25,72,105.6
696,C4,72.0,1.0,62,105.6
697,G4,72.0,1.0,62,105.6
698,G4,72.0,1.0,62,105.6
699,C3,72.0,1.0,62,105.6
700,E4,72.0,1.0,62,105.6
701,B1,72.0,0.5,86,105.6
702,E-3,72.0,0.5,86,105.6
703,B2,73.0,1.0,62,105.6
704,D4,73.0,1.0,62,105.6
705,B3,73.0,1.0,62,105.6
706,F#4,73.0,1.0,62,105.6
707,F#4,73.0,1.0,62,105.6
708,D2,73.0,0.5,104,105.6
709,B1,73.0,0.5,104,105.6
710,B1,74.0,0.5,86,105.6
711,E-3,74.0,0.5,86,105.6
712,A2,74.0,1.0,62,105.6
713,G3,74.0,1.0,62,105.6
714,C4,74.0,1.0,62,105.6
715,E4,74.0,1.0,62,105.6
716,E4,74.0,1.0,62,105.6
717,D2,74.75,0.25,114,105.6
718,B3,75.0,0.5,74,105.6
719,D4,75.0,0.5,74,105.6
720,G2,75.0,0.5,74,105.6
721,D4,75.0,0.5,74,105.6
722,B1,75.0,0.5,74,105.6
723,G3,75.0,0.5,74,105.6
724,D2,75.0,0.5,74,105.6
725,A2,75.5,0.5,82,105.6
726,E4,75.5,0.5,95,105.6
727,D2,75.5,0.5,95,105.6
728,E-3,75.5,0.5,95,105.6
729,B1,75.5,0.5,95,105.6
730,C4,75.5,0.5,44,105.6
731,E4,75.5,0.5,44,105.6
732,G3,75.5,0.5,44,105.6
733,A2,76.0,2.0,82,105.6
734,E4,76.0,1.25,95,105.6
735,C4,76.0,4.0,44,105.6
736,E4,76.0,4.0,44,105.6
737,G3,76.0,4.0,44,105.6
738,D2,76.25,0.25,114,105.6
739,D2,76.5,0.25,114,105.6
740,D2,76.75,0.25,114,105.6
741,D2,77.0,0.25,114,105.6
742,D2,77.25,0.25,114,105.6
743,E4,77.5,0.25,104,105.6
744,D2,77.5,0.25,104,105.6
745,E4,77.75,0.25,104,105.6
746,D2,77.75,0.25,104,105.6
747,A2,78.0,2.0,82,105.6
748,G2,78.0,0.25,95,105.6
749,F#4,78.0,0.25,95,105.6
750,G2,78.25,0.25,95,105.6
751,E4,78.25,0.25,95,105.6
752,G2,78.5,0.25,95,105.6
753,E4,78.5,0.25,95,105.6
754,E4,78.75,0.5,95,105.6
755,G2,78.75,0.25,95,105.6
756,B2,79.0,0.25,95,105.6
757,B2,79.25,0.25,95,105.6
758,D4,79.25,0.25,95,105.6
759,E4,79.5,0.5,95,105.6
760,G2,79.5,0.25,95,105.6
761,G2,79.75,0.25,95,105.6
762,F#2,80.0,0.25,63,105.6
763,D4,80.0,0.25,63,105.6
764,E-3,80.0,0.5,84,105.6
765,B1,80.0,0.5,84,105.6
766,D2,80.0,0.5,84,105.6
767,F#2,80.25,0.25,63,105.6
768,F4,80.25,0.25,63,105.6
769,C4,80.5,0.25,69,105.6
770,A2,80.5,0.25,69,105.6
771,F#2,80.5,0.25,69,105.6
772,F#2,80.75,0.25,31,105.6
773,F4,80.75,0.5,91,105.6
774,E3,80.75,0.5,91,105.6
775,B1,80.75,0.5,91,105.6
776,F#2,81.0,0.25,31,105.6
777,G4,81.25,0.5,95,105.6
778,C3,81.25,0.25,56,105.6
779,F#2,81.25,0.25,56,105.6
780,F#2,81.5,0.25,31,105.6
781,B1,81.5,0.5,95,105.6
782,D3,81.5,0.75,82,105.6
783,F#2,81.75,0.25,31,105.6
784,A4,81.75,1.25,95,105.6
785,F#2,82.0,0.25,31,105.6
786,F#2,82.25,0.25,31,105.6
787,D2,82.25,0.5,82,105.6
788,F#2,82.5,0.25,31,105.6
789,B1,82.5,0.5,95,105.6
790,F#2,82.75,0.25,56,105.6
791,D2,82.75,0.25,56,105.6
792,F#2,83.0,0.25,31,105.6
793,D2,83.0,0.5,98,105.6
794,D3,83.0,0.5,98,105.6
795,F#2,83.25,0.25,31,105.6
796,A2,83.5,0.25,56,105.6
797,F#2,83.5,0.25,56,105.6
798,D3,83.75,0.25,56,105.6
799,F#2,83.75,0.25,56,105.6
800,F#2,84.0,0.25,31,105.6
801,D2,84.0,0.5,88,105.6
802,B1,84.0,0.5,88,105.6
803,F#2,84.25,0.25,63,105.6
804,G3,84.25,0.25,63,105.6
805,F#2,84.5,0.25,69,105.6
806,A2,84.5,0.25,69,105.6
807,C4,84.5,0.25,69,105.6
808,B1,84.75,0.5,88,105.6
809,E3,84.75,0.5,88,105.6
810,E4,84.75,0.25,63,105.6
811,F#2,84.75,0.25,63,105.6
812,A3,85.0,0.25,63,105.6
813,F#2,85.0,0.25,63,105.6
814,D4,85.25,0.25,69,105.6
815,F#2,85.25,0.25,69,105.6
816,C3,85.25,0.25,69,105.6
817,D3,85.5,0.5,88,105.6
818,B1,85.5,0.5,88,105.6
819,F4,85.5,0.25,63,105.6
820,F#2,85.5,0.25,63,105.6
821,D4,85.75,0.25,63,105.6
822,F#2,85.75,0.25,63,105.6
823,A2,86.0,0.25,69,105.6
824,F#2,86.0,0.25,69,105.6
825,G4,86.0,0.25,69,105.6
826,C3,86.25,0.75,61,105.6
827,F3,86.25,0.75,61,105.6
828,A3,86.25,0.75,61,105.6
829,F#2,86.25,0.25,56,105.6
830,G2,86.25,0.25,56,105.6
831,F#2,86.5,0.25,31,105.6
832,B1,86.5,0.5,88,105.6
833,F2,86.5,0.5,88,105.6
834,F#2,86.75,0.25,31,105.6
835,F#2,87.0,0.25,31,105.6
836,B3,87.0,0.75,95,105.6
837,G2,87.0,1.0,57,105.6
838,G3,87.0,1.0,57,105.6
839,D3,87.0,1.0,57,105.6
840,D2,87.25,0.5,114,105.6
841,F#2,87.25,0.25,31,105.6
842,F#2,87.5,0.25,31,105.6
843,C4,87.75,0.25,63,105.6
844,F#2,87.75,0.25,63,105.6
845,A3,88.0,2.0,95,105.6
846,F#2,88.0,0.25,31,105.6
847,D4,88.0,4.0,44,105.6
848,G4,88.0,4.0,44,105.6
849,A3,88.0,4.0,44,105.6
850,B1,88.0,0.5,88,105.6
851,D2,88.0,0.5,88,105.6
852,F#2,88.25,0.25,31,105.6
853,A2,88.5,0.25,56,105.6
854,F#2,88.5,0.25,56,105.6
855,F#2,88.75,0.25,31,105.6
856,E3,88.75,0.5,88,105.6
857,B1,88.75,0.5,88,105.6
858,F#2,89.0,0.25,31,105.6
859,C3,89.25,0.25,56,105.6
860,F#2,89.25,0.25,56,105.6
861,F#2,89.5,0.25,31,105.6
862,B1,89.5,0.5,88,105.6
863,D3,89.5,0.5,88,105.6
864,F#2,89.75,0.25,31,105.6
865,D2,90.0,0.75,82,105.6
866,E4,90.0,0.25,63,105.6
867,F#2,90.0,0.25,63,105.6
868,F#2,90.25,0.25,63,105.6
869,G4,90.25,0.25,63,105.6
870,B1,90.5,0.5,95,105.6
871,F#2,90.5,0.25,63,105.6
872,F4,90.5,0.25,63,105.6
873,D4,90.75,0.25,69,105.6
874,D3,90.75,0.25,69,105.6
875,F#2,90.75,0.25,69,105.6
876,A2,91.0,1.0,82,105.6
877,F#2,91.0,0.25,31,105.6
878,G4,91.0,0.5,104,105.6
879,D2,91.0,0.5,104,105.6
880,F#2,91.25,0.25,31,105.6
881,C4,91.5,0.25,63,105.6
882,F#2,91.5,0.25,63,105.6
883,F#2,91.75,0.25,31,105.6
884,G4,91.75,0.25,95,105.6
885,F#2,94.25,0.25,31,105.6
886,G4,94.25,0.75,95,105.6
887,B1,94.25,0.5,88,105.6
888,D2,94.25,0.5,88,105.6
889,D4,94.25,2.25,44,105.6
890,G4,94.25,2.25,44,105.6
891,A3,94.25,2.25,44,105.6
892,F#2,94.5,0.25,31,105.6
893,A2,94.75,0.25,56,105.6
894,F#2,94.75,0.25,56,105.6
895,F#2,95.0,0.25,31,105.6
896,E3,95.0,0.5,91,105.6
897,C4,95.0,0.5,91,105.6
898,B1,95.0,0.5,91,105.6
899,F#2,95.25,0.25,31,105.6
900,C3,95.5,0.25,69,105.6
901,A3,95.5,0.25,69,105.6
902,F#2,95.5,0.25,69,105.6
903,F#2,95.75,0.25,31,105.6
904,G4,95.75,0.5,91,105.6
905,B1,95.75,0.5,91,105.6
906,D3,95.75,0.5,91,105.6
907,F#2,96.0,0.25,31,105.6
908,D4,96.25,0.5,95,105.6
909,A2,96.25,0.25,76,105.6
910,D2,96.25,0.25,76,105.6
911,F#2,96.25,0.25,76,105.6
912,D2,96.5,0.5,114,105.6
913,F#2,96.5,0.25,56,105.6
914,G2,96.5,0.25,56,105.6
915,C3,96.5,0.75,44,105.6
916,F3,96.5,0.75,44,105.6
917,A3,96.5,0.75,44,105.6
918,F2,96.75,0.5,82,105.6
919,B1,96.75,0.25,74,105.6
920,F#2,96.75,0.25,74,105.6
921,A3,96.75,0.25,74,105.6
922,F#2,97.0,0.25,63,105.6
923,G3,97.0,0.25,63,105.6
924,D3,97.25,0.75,44,105.6
925,F#2,97.25,0.25,31,105.6
926,G3,97.25,0.5,95,105.6
927,A2,97.25,0.5,95,105.6
928,B3,97.25,1.0,57,105.6
929,G2,97.25,1.0,57,105.6
930,G3,97.25,1.0,57,105.6
931,F#2,97.5,0.25,31,105.6
932,A3,97.75,0.25,74,105.6
933,F#2,97.75,0.25,74,105.6
934,A2,97.75,0.25,74,105.6
935,D4,98.0,0.25,74,105.6
936,A2,98.0,0.25,74,105.6
937,F#2,98.0,0.25,74,105.6
938,F#2,98.25,0.25,31,105.6
939,D2,98.25,0.5,88,105.6
940,B1,98.25,0.5,88,105.6
941,F#2,98.5,0.25,31,105.6
942,D4,98.75,0.5,95,105.6
943,D3,98.75,0.25,56,105.6
944,F#2,98.75,0.25,56,105.6
945,B1,99.0,0.5,95,105.6
946,F#2,99.0,0.25,56,105.6
947,D3,99.0,0.25,56,105.6
948,F#2,99.25,0.25,31,105.6
949,D2,99.25,0.5,88,105.6
950,D4,99.25,0.5,88,105.6
951,F#2,99.5,0.25,31,105.6
952,F#2,99.75,0.25,63,105.6
953,F4,99.75,0.25,63,105.6
954,B1,99.75,0.5,88,105.6
955,D3,99.75,0.5,88,105.6
956,F4,100.0,0.25,63,105.6
957,F#2,100.0,0.25,63,105.6
958,D2,100.25,0.75,82,105.6
959,G4,100.25,1.0,95,105.6
960,F#2,100.25,0.25,31,105.6
961,F#2,100.5,0.25,31,105.6
962,F#2,100.75,0.25,31,105.6
963,B1,100.75,0.5,95,105.6
964,F#2,101.0,0.25,56,105.6
965,D2,101.0,0.25,56,105.6
966,F#2,101.25,0.25,31,105.6
967,B1,101.25,0.5,95,105.6
968,D2,101.25,1.0,82,105.6
969,F#2,101.5,0.25,31,105.6
970,F#2,101.75,0.25,63,105.6
971,D4,101.75,0.25,63,105.6
972,D4,102.0,0.25,63,105.6
973,F#2,102.0,0.25,63,105.6
974,F#2,102.25,0.25,31,105.6
975,B1,102.25,0.5,91,105.6
976,A4,102.25,0.5,91,105.6
977,D2,102.25,0.5,91,105.6
978,F#2,102.5,0.25,31,105.6
979,F#2,102.75,0.25,69,105.6
980,D3,102.75,0.25,69,105.6
981,G4,102.75,0.25,69,105.6
982,F#2,103.0,0.25,31,105.6
983,G4,103.0,0.75,95,105.6
984,B1,103.0,0.5,88,105.6
985,D2,103.0,0.5,88,105.6
986,F#2,103.25,0.25,31,105.6
987,D2,103.5,0.25,56,105.6
988,F#2,103.5,0.25,56,105.6
989,F#2,103.75,0.25,31,105.6
990,F4,103.75,0.5,91,105.6
991,D2,103.75,0.5,91,105.6
992,B1,103.75,0.5,91,105.6
993,F#2,104.0,0.25,31,105.6
994,A4,104.25,1.0,95,105.6
995,F#2,104.25,0.25,31,105.6
996,D2,104.5,0.25,56,105.6
997,F#2,104.5,0.25,56,105.6
998,F#2,104.75,0.25,31,105.6
999,B1,104.75,0.5,88,105.6
1000,D2,104.75,0.5,88,105.6
1001,F#2,105.0,0.25,31,105.6
1002,F#2,105.25,0.25,31,105.6
1003,D2,105.25,1.0,82,105.6
1004,B1,105.25,0.5,104,105.6
1005,D2,105.25,0.5,104,105.6
1006,F#2,105.5,0.25,31,105.6
1007,F#2,105.75,0.25,31,105.6
1008,F#2,106.0,0.25,31,105.6
1009,F#2,106.25,0.25,31,105.6
1010,B1,106.25,0.5,88,105.6
1011,D2,106.25,0.5,88,105.6
1012,F#2,106.5,0.25,31,105.6
1013,F#2,106.75,0.25,69,105.6
1014,D4,106.75,0.25,69,105.6
1015,D3,106.75,0.25,69,105.6
1016,B1,107.0,0.5,95,105.6
1017,D3,107.0,0.25,69,105.6
1018,F#2,107.0,0.25,69,105.6
1019,D4,107.0,0.25,69,105.6
1020,F#2,107.25,0.25,31,105.6
1021,D2,107.25,0.5,88,105.6
1022,D4,107.25,0.5,88,105.6
1023,F#2,107.5,0.25,31,105.6
1024,F#2,107.75,0.25,31,105.6
1025,B1,107.75,0.5,91,105.6
1026,D4,107.75,0.5,91,105.6
1027,D3,107.75,0.5,91,105.6
1028,F#2,108.0,0.25,31,105.6
1029,F#2,108.25,0.25,31,105.6
1030,D2,108.25,0.75,82,105.6
1031,F4,108.25,1.0,95,105.6
1032,F#2,108.5,0.25,31,105.6
1033,F#2,108.75,0.25,31,105.6
1034,B1,108.75,0.5,95,105.6
1035,F#2,109.0,0.25,56,105.6
1036,D2,109.0,0.25,56,105.6
1037,D2,109.25,0.5,88,105.6
1038,B1,109.25,0.5,88,105.6
1039,G4,109.25,0.25,63,105.6
1040,F#2,109.25,0.25,63,105.6
1041,G4,109.5,0.25,63,105.6
1042,F#2,109.5,0.25,63,105.6
1043,A4,109.75,0.5,95,105.6
1044,F2,109.75,0.25,56,105.6
1045,F#2,109.75,0.25,56,105.6
1046,F2,110.0,0.25,56,105.6
1047,F#2,110.0,0.25,56,105.6
1048,F#2,110.25,0.25,31,105.6
1049,A4,110.25,0.75,95,105.6
1050,F2,110.25,0.5,88,105.6
1051,B1,110.25,0.5,88,105.6
1052,F#2,110.5,0.25,31,105.6
1053,F2,110.75,0.25,56,105.6
1054,F#2,110.75,0.25,56,105.6
1055,B1,111.0,0.5,95,105.6
1056,F#2,111.0,0.25,31,105.6
1057,F2,111.0,0.75,88,105.6
1058,G4,111.0,0.75,88,105.6
1059,F#2,111.25,0.25,31,105.6
1060,F#2,111.5,0.25,31,105.6
1061,B1,111.75,0.5,95,105.6
1062,G4,111.75,0.5,95,105.6
1063,G2,111.75,0.25,56,105.6
1064,F#2,111.75,0.25,56,105.6
1065,A2,112.0,0.25,56,105.6
1066,F#2,112.0,0.25,56,105.6
1067,G2,112.25,0.5,82,105.6
1068,G4,112.25,0.25,63,105.6
1069,F#2,112.25,0.25,63,105.6
1070,F#2,112.5,0.25,63,105.6
1071,F4,112.5,0.25,63,105.6
1072,B1,112.75,0.5,101,105.6
1073,D4,112.75,0.5,101,105.6
1074,D2,112.75,0.5,101,105.6
1075,G2,112.75,0.25,56,105.6
1076,F#2,112.75,0.25,56,105.6
1077,G2,113.0,0.25,56,105.6
1078,F#2,113.0,0.25,56,105.6
1079,D3,113.25,1.0,82,105.6
1080,F#2,113.25,0.25,31,105.6
1081,B1,113.25,0.5,104,105.6
1082,D2,113.25,0.5,104,105.6
1083,F#2,113.5,0.25,31,105.6
1084,C#3,113.5,0.5,76,105.6
1085,F#2,113.75,0.25,31,105.6
1086,C#3,114.0,0.25,54,105.6
1087,F#2,114.0,0.25,54,105.6
1088,F#2,114.25,0.25,31,105.6
1089,D2,114.25,0.5,84,105.6
1090,C#3,114.25,0.5,84,105.6
1091,B1,114.25,0.5,84,105.6
1092,F#2,114.5,0.25,31,105.6
1093,F#2,114.75,0.25,69,105.6
1094,D4,114.75,0.25,69,105.6
1095,D3,114.75,0.25,69,105.6
1096,B1,115.0,0.5,95,105.6
1097,D3,115.0,0.25,69,105.6
1098,D4,115.0,0.25,69,105.6
1099,F#2,115.0,0.25,69,105.6
1100,D2,115.25,0.5,82,105.6
1101,F#2,115.25,0.25,63,105.6
1102,D4,115.25,0.25,63,105.6
1103,F#2,115.5,0.25,63,105.6
1104,D4,115.5,0.25,63,105.6
1105,F#2,115.75,0.25,31,105.6
1106,B1,115.75,0.5,91,105.6
1107,D3,115.75,0.5,91,105.6
1108,D4,115.75,0.5,91,105.6
1109,F#2,116.0,0.25,31,105.6
1110,D2,116.25,0.75,82,105.6
1111,F#2,116.25,0.25,31,105.6
1112,F4,116.25,1.0,95,105.6
1113,F#2,116.5,0.25,31,105.6
1114,F#2,116.75,0.25,31,105.6
1115,B1,116.75,0.5,95,105.6
1116,F#2,117.0,0.25,56,105.6
1117,D2,117.0,0.25,56,105.6
1118,D2,117.25,1.0,82,105.6
1119,F#2,117.25,0.25,31,105.6
1120,G4,117.25,0.75,95,105.6
1121,B1,117.25,0.5,95,105.6
1122,F#2,117.5,0.25,31,105.6
1123,F#2,117.75,0.25,31,105.6
1124,F#2,118.0,0.25,63,105.6
1125,F4,118.0,0.25,63,105.6
1126,F#2,118.25,0.25,31,105.6
1127,A4,118.25,0.5,91,105.6
1128,D2,118.25,0.5,91,105.6
1129,B1,118.25,0.5,91,105.6
1130,F#2,118.5,0.25,31,105.6
1131,G4,118.75,0.25,69,105.6
1132,F#2,118.75,0.25,69,105.6
1133,D3,118.75,0.25,69,105.6
1134,F#2,119.0,0.25,31,105.6
1135,G4,119.0,0.5,91,105.6
1136,B1,119.0,0.5,91,105.6
1137,D2,119.0,0.5,91,105.6
1138,F#2,119.25,0.25,31,105.6
1139,F4,119.5,0.25,69,105.6
1140,F#2,119.5,0.25,69,105.6
1141,D2,119.5,0.25,69,105.6
1142,F#2,119.75,0.25,31,105.6
1143,A4,119.75,1.5,95,105.6
1144,B1,119.75,0.5,88,105.6
1145,D2,119.75,0.5,88,105.6
1146,F#2,120.0,0.25,31,105.6
1147,D2,120.25,0.75,82,105.6
1148,F#2,120.25,0.25,31,105.6
1149,F#2,120.5,0.25,31,105.6
1150,B1,120.75,0.5,95,105.6
1151,F#2,120.75,0.25,31,105.6
1152,F#2,121.0,0.25,56,105.6
1153,D3,121.0,0.25,56,105.6
1154,D2,121.25,1.0,82,105.6
1155,F#2,121.25,0.25,31,105.6
1156,D2,121.25,0.5,104,105.6
1157,B1,121.25,0.5,104,105.6
1158,F#2,121.5,0.25,31,105.6
1159,F#2,121.75,0.25,31,105.6
1160,F#2,122.0,0.25,63,105.6
1161,D4,122.0,0.25,63,105.6
1162,F#2,122.25,0.25,31,105.6
1163,B1,122.25,0.5,91,105.6
1164,D2,122.25,0.5,91,105.6
1165,A4,122.25,0.5,91,105.6
1166,F#2,122.5,0.25,31,105.6
1167,A4,122.75,0.25,69,105.6
1168,D3,122.75,0.25,69,105.6
1169,F#2,122.75,0.25,69,105.6
1170,B1,123.0,0.5,95,105.6
1171,A4,123.0,0.25,69,105.6
1172,F#2,123.0,0.25,69,105.6
1173,D3,123.0,0.25,69,105.6
1174,F#2,123.25,0.25,31,105.6
1175,D2,123.25,0.5,88,105.6
1176,A4,123.25,0.5,88,105.6
1177,F#2,123.5,0.25,31,105.6
1178,F#2,123.75,0.25,31,105.6
1179,B1,123.75,0.5,91,105.6
1180,A4,123.75,0.5,91,105.6
1181,D3,123.75,0.5,91,105.6
1182,F#2,124.0,0.25,31,105.6
1183,D2,124.25,0.75,82,105.6
1184,F#2,124.25,0.25,63,105.6
1185,A4,124.25,0.25,63,105.6
1186,F#2,124.5,0.25,31,105.6
1187,A4,124.5,0.5,95,105.6
1188,B1,124.75,0.5,95,105.6
1189,F#2,124.75,0.25,31,105.6
1190,C5,125.0,1.25,95,105.6
1191,D2,125.0,0.25,56,105.6
1192,F#2,125.0,0.25,56,105.6
1193,F#2,125.25,0.25,31,105.6
1194,D2,125.25,1.0,82,105.6
1195,B1,125.25,0.5,104,105.6
1196,D2,125.25,0.5,104,105.6
1197,F#2,125.5,0.25,31,105.6
1198,F#2,125.75,0.25,31,105.6
1199,F#2,126.0,0.25,31,105.6
1200,F#2,126.25,0.25,31,105.6
1201,F2,126.25,1.5,54,105.6
1202,C4,126.25,1.5,54,105.6
1203,G4,126.25,1.5,54,105.6
1204,E4,126.25,1.5,54,105.6
1205,C5,126.25,0.5,95,105.6
1206,B1,126.25,0.5,95,105.6
1207,F#2,126.5,0.25,31,105.6
1208,F#2,126.75,0.25,31,105.6
1209,E5,126.75,1.0,95,105.6
1210,F#2,127.0,0.25,31,105.6
1211,B1,127.0,0.5,95,105.6
1212,D2,127.25,0.5,114,105.6
1213,F#2,127.25,0.25,31,105.6
1214,F#2,127.5,0.25,31,105.6
1215,B1,127.75,0.5,95,105.6
1216,F#2,127.75,0.25,31,105.6
1217,G2,127.75,1.5,88,105.6
1218,D5,127.75,1.5,88,105.6
1219,D5,127.75,2.5,44,105.6
1220,G4,127.75,2.5,44,105.6
1221,B4,127.75,2.5,44,105.6
1222,F#2,128.0,0.25,31,105.6
1223,F#2,128.25,0.25,72,105.6
1224,D2,128.25,0.25,72,105.6
1225,D2,128.5,0.25,72,105.6
1226,F#2,128.5,0.25,72,105.6
1227,F#2,128.75,0.25,63,105.6
1228,B2,128.75,0.25,63,105.6
1229,B2,129.0,0.25,63,105.6
1230,F#2,129.0,0.25,63,105.6
1231,G2,129.25,1.0,82,105.6
1232,E5,129.25,0.5,95,105.6
1233,F#2,129.25,0.25,63,105.6
1234,B2,129.25,0.25,63,105.6
1235,B2,129.5,0.25,63,105.6
1236,F#2,129.5,0.25,63,105.6
1237,A2,129.75,0.5,95,105.6
1238,D2,129.75,0.25,80,105.6
1239,F#2,129.75,0.25,80,105.6
1240,D5,129.75,0.25,80,105.6
1241,C5,130.0,0.25,80,105.6
1242,F#2,130.0,0.25,80,105.6
1243,D2,130.0,0.25,80,105.6
1244,F#2,130.25,0.25,31,105.6
1245,C#3,130.25,0.5,86,105.6
1246,B1,130.25,0.5,86,105.6
1247,E4,130.25,1.5,54,105.6
1248,A4,130.25,1.5,54,105.6
1249,C4,130.25,1.5,54,105.6
1250,A2,130.25,1.5,54,105.6
1251,F#2,130.5,0.25,31,105.6
1252,C5,130.75,0.5,95,105.6
1253,F#2,130.75,0.25,31,105.6
1254,F#2,131.0,0.25,31,105.6
1255,D2,131.0,0.5,114,105.6
1256,C5,131.25,0.5,95,105.6
1257,F#2,131.25,0.25,31,105.6
1258,F#2,131.5,0.25,31,105.6
1259,A2,131.75,0.5,88,105.6
1260,B1,131.75,0.5,88,105.6
1261,A4,131.75,2.5,44,105.6
1262,C4,131.75,2.5,44,105.6
1263,E4,131.75,2.5,44,105.6
1264,F#2,131.75,0.25,63,105.6
1265,C5,131.75,0.25,63,105.6
1266,F#2,132.0,0.25,31,105.6
1267,C5,132.0,1.0,95,105.6
1268,A2,132.25,2.0,82,105.6
1269,B1,132.25,0.5,95,105.6
1270,F#2,132.25,0.25,31,105.6
1271,F#2,132.5,0.25,31,105.6
1272,F#2,132.75,0.25,31,105.6
1273,C5,133.0,0.75,95,105.6
1274,F#2,133.0,0.25,31,105.6
1275,D2,133.25,0.5,114,105.6
1276,F#2,133.25,0.25,31,105.6
1277,F#2,133.5,0.25,31,105.6
1278,F#2,133.75,0.25,31,105.6
1279,B1,133.75,0.5,95,105.6
1280,C5,133.75,0.5,95,105.6
1281,F#2,134.0,0.25,31,105.6
1282,F#2,134.25,0.25,31,105.6
1283,B1,134.25,0.5,95,105.6
1284,B4,134.25,0.5,95,105.6
1285,G4,134.25,1.5,54,105.6
1286,B4,134.25,1.5,54,105.6
1287,D4,134.25,1.5,54,105.6
1288,G2,134.25,1.5,54,105.6
1289,F#2,134.5,0.25,31,105.6
1290,F#2,134.75,0.25,31,105.6
1291,A4,134.75,0.5,95,105.6
1292,F#2,135.0,0.25,31,105.6
1293,F#2,135.25,0.25,31,105.6
1294,D2,135.25,0.5,104,105.6
1295,G4,135.25,0.5,104,105.6
1296,F#2,135.5,0.25,31,105.6
1297,B1,135.75,0.5,95,105.6
1298,F#2,135.75,0.25,31,105.6
1299,A4,135.75,1.5,95,105.6
1300,F#4,135.75,2.5,54,105.6
1301,D4,135.75,2.5,54,105.6
1302,D2,135.75,2.5,54,105.6
1303,A4,135.75,2.5,54,105.6
1304,F#2,136.0,0.25,31,105.6
1305,B1,136.25,0.5,95,105.6
1306,F#2,136.25,0.25,31,105.6
1307,F#2,136.5,0.25,31,105.6
1308,F#2,136.75,0.25,31,105.6
1309,F#2,137.0,0.25,31,105.6
1310,D2,137.25,0.25,72,105.6
1311,F#2,137.25,0.25,72,105.6
1312,D2,137.5,0.25,72,105.6
1313,F#2,137.5,0.25,72,105.6
1314,D2,137.75,0.5,114,105.6
1315,F#2,137.75,0.25,31,105.6
1316,C#3,138.0,0.25,54,105.6
1317,F#2,138.0,0.25,54,105.6
1318,F#2,138.25,0.25,31,105.6
1319,B1,138.25,0.5,86,105.6
1320,C#3,138.25,0.5,86,105.6
1321,E4,138.25,1.5,54,105.6
1322,C4,138.25,1.5,54,105.6
1323,A2,138.25,1.5,54,105.6
1324,A4,138.25,1.5,54,105.6
1325,F#2,138.5,0.25,31,105.6
1326,C5,138.75,0.5,95,105.6
1327,F#2,138.75,0.25,31,105.6
1328,F#2,139.0,0.25,31,105.6
1329,D2,139.0,0.5,114,105.6
1330,F#2,139.25,0.25,31,105.6
1331,C5,139.25,0.5,95,105.6
1332,F#2,139.5,0.25,31,105.6
1333,F#2,139.75,0.25,31,105.6
1334,B1,139.75,0.5,91,105.6
1335,C5,139.75,0.5,91,105.6
1336,A2,139.75,0.5,91,105.6
1337,A4,139.75,2.5,44,105.6
1338,C4,139.75,2.5,44,105.6
1339,E4,139.75,2.5,44,105.6
1340,F#2,140.0,0.25,31,105.6
1341,A2,140.25,2.0,82,105.6
1342,B1,140.25,0.5,95,105.6
1343,F#2,140.25,0.25,63,105.6
1344,C5,140.25,0.25,63,105.6
1345,C5,140.5,0.5,95,105.6
1346,F#2,140.5,0.25,31,105.6
1347,F#2,140.75,0.25,31,105.6
1348,C5,141.0,0.25,63,105.6
1349,F#2,141.0,0.25,63,105.6
1350,D2,141.25,0.5,114,105.6
1351,C5,141.25,0.25,63,105.6
1352,F#2,141.25,0.25,63,105.6
1353,F#2,141.5,0.25,31,105.6
1354,C5,141.5,0.5,95,105.6
1355,B1,141.75,0.5,95,105.6
1356,F#2,141.75,0.25,31,105.6
1357,C5,142.0,0.25,63,105.6
1358,F#2,142.0,0.25,63,105.6
1359,F#2,142.25,0.25,31,105.6
1360,B4,142.25,1.5,54,105.6
1361,G4,142.25,1.5,54,105.6
1362,D4,142.25,1.5,54,105.6
1363,G2,142.25,1.5,54,105.6
1364,B4,142.25,0.5,95,105.6
1365,B1,142.25,0.5,95,105.6
1366,F#2,142.5,0.25,31,105.6
1367,F#2,142.75,0.25,63,105.6
1368,A4,142.75,0.25,63,105.6
1369,F#2,143.0,0.25,31,105.6
1370,A4,143.0,0.75,95,105.6
1371,D2,143.25,0.5,114,105.6
1372,F#2,143.25,0.25,31,105.6
1373,F#2,143.5,0.25,31,105.6
1374,A4,143.75,0.75,95,105.6
1375,F#2,143.75,0.25,31,105.6
1376,B1,143.75,0.5,95,105.6
1377,D4,143.75,2.5,54,105.6
1378,A4,143.75,2.5,54,105.6
1379,D2,143.75,2.5,54,105.6
1380,F#4,143.75,2.5,54,105.6
1381,F#2,144.0,0.25,31,105.6
1382,B1,144.25,0.5,95,105.6
1383,F#2,144.25,0.25,31,105.6
1384,G4,144.5,0.25,63,105.6
1385,F#2,144.5,0.25,63,105.6
1386,F#4,144.75,0.5,95,105.6
1387,F#2,144.75,0.25,63,105.6
1388,A2,144.75,0.25,63,105.6
1389,F#2,145.0,0.25,63,105.6
1390,A2,145.0,0.25,63,105.6
1391,A2,145.25,0.25,63,105.6
1392,F#2,145.25,0.25,63,105.6
1393,F#2,145.5,0.25,31,105.6
1394,D2,145.5,0.5,114,105.6
1395,F#2,145.75,0.25,31,105.6
1396,A2,146.0,0.25,63,105.6
1397,F#2,146.0,0.25,63,105.6
1398,F#2,146.25,0.25,31,105.6
1399,A4,146.25,1.5,54,105.6
1400,C4,146.25,1.5,54,105.6
1401,A2,146.25,1.5,54,105.6
1402,E4,146.25,1.5,54,105.6
1403,C#3,146.25,0.5,86,105.6
1404,B1,146.25,0.5,86,105.6
1405,F#2,146.5,0.25,31,105.6
1406,C5,146.75,0.5,95,105.6
1407,F#2,146.75,0.25,31,105.6
1408,D2,147.0,0.5,114,105.6
1409,F#2,147.0,0.25,31,105.6
1410,C5,147.25,0.5,95,105.6
1411,F#2,147.25,0.25,31,105.6
1412,F#2,147.5,0.25,31,105.6
1413,F#2,147.75,0.25,31,105.6
1414,A2,147.75,0.5,91,105.6
1415,C5,147.75,0.5,91,105.6
1416,B1,147.75,0.5,91,105.6
1417,E4,147.75,2.5,44,105.6
1418,C4,147.75,2.5,44,105.6
1419,A4,147.75,2.5,44,105.6
1420,F#2,148.0,0.25,31,105.6
1421,B1,148.25,0.5,95,105.6
1422,A2,148.25,2.0,82,105.6
1423,F#2,148.25,0.25,63,105.6
1424,C5,148.25,0.25,63,105.6
1425,C5,148.5,0.5,95,105.6
1426,F#2,148.5,0.25,31,105.6
1427,F#2,148.75,0.25,31,105.6
1428,C5,149.0,0.25,63,105.6
1429,F#2,149.0,0.25,63,105.6
1430,D2,149.25,0.5,114,105.6
1431,F#2,149.25,0.25,63,105.6
1432,C5,149.25,0.25,63,105.6
1433,F#2,149.5,0.25,31,105.6
1434,C5,149.5,0.5,95,105.6
1435,B1,149.75,0.5,95,105.6
1436,F#2,149.75,0.25,31,105.6
1437,C5,150.0,0.25,63,105.6
1438,F#2,150.0,0.25,63,105.6
1439,F#2,150.25,0.25,31,105.6
1440,B4,150.25,1.5,54,105.6
1441,G2,150.25,1.5,54,105.6
1442,D4,150.25,1.5,54,105.6
1443,G4,150.25,1.5,54,105.6
1444,B4,150.25,0.5,95,105.6
1445,B1,150.25,0.5,95,105.6
1446,F#2,150.5,0.25,31,105.6
1447,F#2,150.75,0.25,63,105.6
1448,A4,150.75,0.25,63,105.6
1449,A4,151.0,0.75,95,105.6
1450,F#2,151.0,0.25,31,105.6
1451,F#2,151.25,0.25,31,105.6
1452,D2,151.25,0.5,114,105.6
1453,F#2,151.5,0.25,31,105.6
1454,F#2,151.75,0.25,31,105.6
1455,A4,151.75,2.5,54,105.6
1456,D2,151.75,2.5,54,105.6
1457,F#4,151.75,2.5,54,105.6
1458,D4,151.75,2.5,54,105.6
1459,B1,151.75,0.5,95,105.6
1460,A4,151.75,0.5,95,105.6
1461,F#2,152.0,0.25,31,105.6
1462,B1,152.25,0.5,95,105.6
1463,F#2,152.25,0.25,63,105.6
1464,A4,152.25,0.25,63,105.6
1465,G4,152.5,0.25,63,105.6
1466,F#2,152.5,0.25,63,105.6
1467,F#4,152.75,0.5,95,105.6
1468,F#2,152.75,0.25,31,105.6
1469,F#2,153.0,0.25,72,105.6
1470,D2,153.0,0.25,72,105.6
1471,F#2,153.25,0.25,72,105.6
1472,D2,153.25,0.25,72,105.6
1473,F#2,153.5,0.25,31,105.6
1474,D2,153.5,0.5,95,105.6
1475,E-3,153.5,0.5,95,105.6
1476,F#2,153.75,0.25,31,105.6
1477,A4,153.75,0.5,95,105.6
1478,D2,154.0,0.25,72,105.6
1479,F#2,154.0,0.25,72,105.6
1480,G4,154.25,1.0,62,105.6
1481,E4,154.25,1.0,62,105.6
1482,C3,154.25,1.0,62,105.6
1483,G4,154.25,1.0,62,105.6
1484,C4,154.25,1.0,62,105.6
1485,E-3,154.25,0.5,86,105.6
1486,B1,154.25,0.5,86,105.6
1487,D2,155.25,0.5,104,105.6
1488,B1,155.25,0.5,104,105.6
1489,B2,155.25,1.0,62,105.6
1490,F#4,155.25,1.0,62,105.6
1491,B3,155.25,1.0,62,105.6
1492,D4,155.25,1.0,62,105.6
1493,F#4,155.25,1.0,62,105.6
1494,G3,156.25,1.0,62,105.6
1495,A2,156.25,1.0,62,105.6
1496,C4,156.25,1.0,62,105.6
1497,E4,156.25,1.0,62,105.6
1498,E4,156.25,1.0,62,105.6
1499,E-3,156.25,0.5,86,105.6
1500,B1,156.25,0.5,86,105.6
1501,D2,157.0,0.25,114,105.6
1502,G2,157.25,0.5,74,105.6
1503,B3,157.25,0.5,74,105.6
1504,D2,157.25,0.5,74,105.6
1505,D4,157.25,0.5,74,105.6
1506,G3,157.25,0.5,74,105.6
1507,D4,157.25,0.5,74,105.6
1508,B1,157.25,0.5,74,105.6
1509,E4,157.75,0.5,95,105.6
1510,A2,157.75,0.5,82,105.6
1511,B1,157.75,0.5,95,105.6
1512,D2,157.75,0.5,95,105.6
1513,E-3,157.75,0.5,95,105.6
1514,C4,157.75,0.5,44,105.6
1515,E4,157.75,0.5,44,105.6
1516,G3,157.75,0.5,44,105.6
1517,E4,158.25,1.25,95,105.6
1518,A2,158.25,2.0,82,105.6
1519,C4,158.25,4.0,44,105.6
1520,E4,158.25,4.0,44,105.6
1521,G3,158.25,4.0,44,105.6
1522,D2,158.5,0.25,114,105.6
1523,D2,158.75,0.25,114,105.6
1524,D2,159.0,0.25,114,105.6
1525,D2,159.25,0.25,114,105.6
1526,D2,159.5,0.25,114,105.6
1527,E4,159.75,0.5,95,105.6
1528,D2,159.75,0.25,114,105.6
1529,D2,160.0,0.25,114,105.6
1530,G2,160.25,0.25,95,105.6
1531,F#4,160.25,0.5,95,105.6
1532,A2,160.25,2.0,82,105.6
1533,G2,160.5,0.25,95,105.6
1534,E4,160.75,0.25,95,105.6
1535,G2,160.75,0.25,95,105.6
1536,D4,161.0,0.25,95,105.6
1537,G2,161.0,0.25,95,105.6
1538,D4,161.25,0.5,95,105.6
1539,B2,161.25,0.25,95,105.6
1540,B2,161.5,0.25,95,105.6
1541,D4,161.75,0.5,95,105.6
1542,G2,161.75,0.25,95,105.6
1543,G2,162.0,0.25,95,105.6
1544,B1,162.25,0.5,95,105.6
1545,D2,162.25,0.75,82,105.6
1546,D5,162.25,3.0,95,105.6
1547,F#2,162.25,0.25,31,105.6
1548,F4,162.25,1.5,44,105.6
1549,A3,162.25,1.5,44,105.6
1550,D4,162.25,1.5,44,105.6
1551,F#2,162.5,0.25,31,105.6
1552,F#2,162.75,0.25,31,105.6
1553,F#2,163.0,0.25,69,105.6
1554,D3,163.0,0.25,69,105.6
1555,B1,163.0,0.25,69,105.6
1556,F#2,163.25,0.25,31,105.6
1557,B1,163.25,0.5,88,105.6
1558,D2,163.25,0.5,88,105.6
1559,F#2,163.5,0.25,31,105.6
1560,F#2,163.75,0.25,31,105.6
1561,B1,163.75,0.5,88,105.6
1562,D2,163.75,0.5,88,105.6
1563,E4,163.75,623/250,44,105.6
1564,G3,163.75,623/250,44,105.6
1565,C4,163.75,623/250,44,105.6
1566,F#2,164.0,0.25,31,105.6
1567,D2,164.25,1.0,82,105.6
1568,F#2,164.25,0.25,31,105.6
1569,B1,164.5,0.25,63,105.6
1570,F#2,164.5,0.25,63,105.6
1571,F#2,164.75,0.25,31,105.6
1572,B1,164.75,0.5,95,105.6
1573,F#2,165.0,0.25,31,105.6
1574,F#2,165.25,0.5,31,105.6
1575,D2,165.25,124/125,98,105.6
1576,D3,165.25,124/125,98,105.6
1577,F#2,165.5,0.5,31,105.6
1578,D5,165.583,333/1000,95,105.6
1579,B1,165.75,0.5,63,105.6
1580,F#2,165.75,0.5,63,105.6
1581,C5,165.917,333/1000,95,105.6
1582,F#2,166.0,0.25,31,105.6
1583,F#2,166.25,0.25,31,105.6
1584,B1,166.25,0.5,95,105.6
1585,F#2,166.25,0.25,31,105.6
1586,B3,166.25,4.0,44,105.6
1587,E-4,166.25,4.0,44,105.6
1588,F#4,166.25,4.0,44,105.6
1589,D2,166.25,0.75,88,105.6
1590,B4,166.25,0.75,88,105.6
1591,F#2,166.5,0.25,31,105.6
1592,F#2,166.75,0.25,31,105.6
1593,G4,167.0,0.5,95,105.6
1594,F#2,167.0,0.25,69,105.6
1595,D3,167.0,0.25,69,105.6
1596,B1,167.0,0.25,69,105.6
1597,B1,167.25,0.5,95,105.6
1598,D2,167.25,0.75,82,105.6
1599,F#2,167.25,0.25,31,105.6
1600,F#2,167.5,0.25,31,105.6
1601,F#4,167.5,1.25,95,105.6
1602,F#2,167.75,0.25,31,105.6
1603,B1,167.75,0.5,95,105.6
1604,F#2,168.0,0.25,56,105.6
1605,D2,168.0,0.25,56,105.6
1606,F#2,168.25,0.25,31,105.6
1607,D2,168.25,0.5,82,105.6
1608,B1,168.5,0.25,63,105.6
1609,F#2,168.5,0.25,63,105.6
1610,D2,168.75,0.5,88,105.6
1611,B1,168.75,0.5,88,105.6
1612,E-4,168.75,0.25,63,105.6
1613,F#2,168.75,0.25,63,105.6
1614,D4,169.0,1.25,95,105.6
1615,F#2,169.0,0.25,31,105.6
1616,D3,169.25,1.0,82,105.6
1617,F#2,169.25,0.25,31,105.6
1618,D2,169.25,0.125,100,105.6
1619,D2,169.375,0.125,90,105.6
1620,F#2,169.5,0.25,31,105.6
1621,D2,169.5,0.125,80,105.6
1622,D2,169.625,0.125,70,105.6
1623,F#2,169.75,0.25,31,105.6
1624,D2,169.75,0.125,60,105.6
1625,B1,169.75,0.5,95,105.6
1626,D2,169.875,0.125,50,105.6
1627,F#2,170.0,0.25,31,105.6
1628,D2,170.0,0.125,40,105.6
1629,D2,170.125,0.125,30,105.6
1630,F#2,170.25,0.25,31,105.6
1631,G2,170.25,0.75,82,105.6
1632,B1,170.25,0.5,95,105.6
1633,D4,170.25,0.5,95,105.6
1634,B-3,170.25,4.0,44,105.6
1635,D4,170.25,4.0,44,105.6
1636,F3,170.25,4.0,44,105.6
1637,F#2,170.5,0.25,31,105.6
1638,F#2,170.75,0.25,31,105.6
1639,G4,170.75,0.5,95,105.6
1640,G2,171.0,0.25,69,105.6
1641,B1,171.0,0.25,69,105.6
1642,F#2,171.0,0.25,69,105.6
1643,F#2,171.25,0.25,63,105.6
1644,A4,171.25,0.25,63,105.6
1645,G2,171.25,0.5,88,105.6
1646,B1,171.25,0.5,88,105.6
1647,B-4,171.5,0.5,95,105.6
1648,F#2,171.5,0.25,31,105.6
1649,F#2,171.75,0.25,31,105.6
1650,B1,171.75,0.5,88,105.6
1651,G2,171.75,0.5,88,105.6
1652,C5,172.0,0.25,63,105.6
1653,F#2,172.0,0.25,63,105.6
1654,F#2,172.25,0.25,31,105.6
1655,G2,172.25,0.75,82,105.6
1656,D5,172.5,0.25,74,105.6
1657,B1,172.5,0.25,74,105.6
1658,F#2,172.5,0.25,74,105.6
1659,B1,172.75,0.5,95,105.6
1660,F#2,172.75,0.25,63,105.6
1661,G5,172.75,0.25,63,105.6
1662,D5,173.0,1.0,95,105.6
1663,G2,173.0,0.25,56,105.6
1664,F#2,173.0,0.25,56,105.6
1665,D2,173.25,0.5,114,105.6
1666,F#2,173.25,0.25,31,105.6
1667,G2,173.25,1.0,82,105.6
1668,F#2,173.5,0.25,31,105.6
1669,B1,173.75,0.5,95,105.6
1670,F#2,173.75,0.25,31,105.6
1671,B4,174.0,0.25,63,105.6
1672,F#2,174.0,0.25,63,105.6
1673,A2,174.25,0.75,82,105.6
1674,F#2,174.25,0.25,31,105.6
1675,B3,174.25,1.5,44,105.6
1676,G4,174.25,1.5,44,105.6
1677,D4,174.25,1.5,44,105.6
1678,A4,174.25,0.5,95,105.6
1679,B1,174.25,0.5,95,105.6
1680,F#2,174.5,0.25,31,105.6
1681,G4,174.75,0.25,63,105.6
1682,F#2,174.75,0.25,63,105.6
1683,A4,175.0,1.0,95,105.6
1684,F#2,175.0,0.25,69,105.6
1685,A3,175.0,0.25,69,105.6
1686,B1,175.0,0.25,69,105.6
1687,F#2,175.25,0.25,31,105.6
1688,A2,175.25,0.5,88,105.6
1689,B1,175.25,0.5,88,105.6
1690,F#2,175.5,0.25,31,105.6
1691,F#2,175.75,0.25,31,105.6
1692,B-3,175.75,2.5,44,105.6
1693,F#4,175.75,2.5,44,105.6
1694,C#4,175.75,2.5,44,105.6
1695,A2,175.75,0.5,88,105.6
1696,B1,175.75,0.5,88,105.6
1697,F#2,176.0,0.25,63,105.6
1698,B-4,176.0,0.25,63,105.6
1699,A2,176.25,0.75,82,105.6
1700,F#2,176.25,0.25,63,105.6
1701,A4,176.25,0.25,63,105.6
1702,B-4,176.5,0.5,95,105.6
1703,B1,176.5,0.25,63,105.6
1704,F#2,176.5,0.25,63,105.6
1705,B1,176.75,0.5,95,105.6
1706,F#2,176.75,0.25,31,105.6
1707,A4,177.0,1.0,95,105.6
1708,A2,177.0,0.25,56,105.6
1709,F#2,177.0,0.25,56,105.6
1710,D2,177.25,0.5,114,105.6
1711,F#2,177.25,0.25,31,105.6
1712,A2,177.25,1.0,82,105.6
1713,F#2,177.5,0.25,31,105.6
1714,C3,177.75,0.25,63,105.6
1715,F#2,177.75,0.25,63,105.6
1716,C3,178.0,0.25,74,105.6
1717,G4,178.0,0.25,74,105.6
1718,F#2,178.0,0.25,74,105.6
1719,F#2,178.25,0.25,31,105.6
1720,D2,178.25,0.75,82,105.6
1721,F4,178.25,4.0,44,105.6
1722,A3,178.25,4.0,44,105.6
1723,C4,178.25,4.0,44,105.6
1724,D4,178.25,4.0,44,105.6
1725,B1,178.25,0.5,89,105.6
1726,G4,178.25,0.5,89,105.6
1727,B2,178.25,0.5,89,105.6
1728,F#2,178.5,0.25,31,105.6
1729,F4,178.75,0.25,63,105.6
1730,F#2,178.75,0.25,63,105.6
1731,A3,179.0,1.25,95,105.6
1732,B1,179.0,0.25,69,105.6
1733,D3,179.0,0.25,69,105.6
1734,F#2,179.0,0.25,69,105.6
1735,B1,179.25,0.5,95,105.6
1736,D2,179.25,0.25,56,105.6
1737,F#2,179.25,0.25,56,105.6
1738,F#2,179.5,0.25,56,105.6
1739,D3,179.5,0.25,56,105.6
1740,F#2,179.75,0.25,31,105.6
1741,D2,179.75,0.5,88,105.6
1742,B1,179.75,0.5,88,105.6
1743,F#2,180.0,0.25,31,105.6
1744,D2,180.25,0.75,82,105.6
1745,F#2,180.25,0.25,31,105.6
1746,F#2,180.5,0.25,63,105.6
1747,B1,180.5,0.25,63,105.6
1748,B1,180.75,0.5,95,105.6
1749,F#2,180.75,0.25,31,105.6
1750,D2,181.0,0.25,56,105.6
1751,F#2,181.0,0.25,56,105.6
1752,F#2,181.25,0.5,31,105.6
1753,D2,181.25,124/125,98,105.6
1754,D3,181.25,124/125,98,105.6
1755,F#2,181.5,0.5,63,105.6
1756,B1,181.5,0.5,63,105.6
1757,F#4,181.75,167/1000,95,105.6
1758,F#2,181.75,0.5,63,105.6
1759,B1,181.75,0.5,63,105.6
1760,G4,181.917,167/1000,95,105.6
1761,F#2,182.0,0.25,31,105.6
1762,F4,182.083,167/1000,95,105.6
1763,F#2,182.25,0.25,31,105.6
1764,B1,182.25,0.5,95,105.6
1765,G2,182.25,1.5,82,105.6
1766,F#2,182.25,0.25,31,105.6
1767,A3,182.25,4.0,44,105.6
1768,F4,182.25,4.0,44,105.6
1769,C4,182.25,4.0,44,105.6
1770,F5,182.5,0.5,95,105.6
1771,F#2,182.5,0.25,31,105.6
1772,F#2,182.75,0.25,31,105.6
1773,B1,183.0,0.25,74,105.6
1774,F#2,183.0,0.25,74,105.6
1775,F5,183.0,0.25,74,105.6
1776,B1,183.25,0.5,95,105.6
1777,F#2,183.25,121/500,63,105.6
1778,F5,183.25,121/500,63,105.6
1779,G5,183.5,0.25,63,105.6
1780,F#2,183.5,0.25,63,105.6
1781,G5,183.75,0.25,63,105.6
1782,F#2,183.75,0.25,63,105.6
1783,G2,183.75,0.5,88,105.6
1784,B1,183.75,0.5,88,105.6
1785,F#2,184.0,0.25,63,105.6
1786,A5,184.0,0.25,63,105.6
1787,F#2,184.25,0.5,31,105.6
1788,G5,184.25,333/1000,95,105.6
1789,G2,184.25,371/500,82,105.6
1790,B1,184.5,0.5,63,105.6
1791,F#2,184.5,0.5,63,105.6
1792,F5,184.583,333/1000,95,105.6
1793,F#2,184.75,0.5,31,105.6
1794,D5,184.917,333/1000,95,105.6
1795,G2,185.0,121/500,82,105.6
1796,B1,185.0,0.5,63,105.6
1797,F#2,185.0,0.5,63,105.6
1798,D2,185.25,0.5,114,105.6
1799,F#2,185.25,0.25,31,105.6
1800,G4,185.25,1.0,88,105.6
1801,G3,185.25,1.0,88,105.6
1802,F#2,185.5,0.25,31,105.6
1803,F#2,185.75,0.25,31,105.6
1804,B1,185.75,0.5,95,105.6
1805,F#2,186.0,0.25,31,105.6
1806,G2,186.25,1.5,82,105.6
1807,B1,186.25,0.5,95,105.6
1808,E4,186.25,499/125,44,105.6
1809,G#3,186.25,499/125,44,105.6
1810,B3,186.25,499/125,44,105.6
1811,F#2,186.25,121/500,63,105.6
1812,D5,186.25,121/500,63,105.6
1813,F#2,186.5,121/500,63,105.6
1814,E5,186.5,121/500,63,105.6
1815,F5,186.75,0.25,63,105.6
1816,F#2,186.75,0.25,63,105.6
1817,B1,187.0,0.25,74,105.6
1818,D5,187.0,0.25,74,105.6
1819,F#2,187.0,0.25,74,105.6
1820,B1,187.25,0.5,95,105.6
1821,F#2,187.25,121/500,63,105.6
1822,E5,187.25,121/500,63,105.6
1823,F#2,187.5,121/500,63,105.6
1824,E-5,187.5,121/500,63,105.6
1825,G2,187.75,0.5,88,105.6
1826,B1,187.75,0.5,88,105.6
1827,F#2,187.75,121/500,63,105.6
1828,D5,187.75,121/500,63,105.6
1829,C#5,188.0,0.25,63,105.6
1830,F#2,188.0,0.25,63,105.6
1831,G2,188.25,0.75,82,105.6
1832,C5,188.25,0.25,63,105.6
1833,F#2,188.25,0.25,63,105.6
1834,E5,188.5,0.25,74,105.6
1835,F#2,188.5,0.25,74,105.6
1836,B1,188.5,0.25,74,105.6
1837,B1,188.75,0.5,95,105.6
1838,F#2,188.75,121/500,80,105.6
1839,D2,188.75,121/500,80,105.6
1840,D5,188.75,121/500,80,105.6
1841,B-4,189.0,0.25,80,105.6
1842,F#2,189.0,0.25,80,105.6
1843,G2,189.0,0.25,80,105.6
1844,D2,189.0,0.25,80,105.6
1845,D2,189.25,0.5,114,105.6
1846,G3,189.25,1.0,82,105.6
1847,G#4,189.25,0.25,63,105.6
1848,F#2,189.25,0.25,63,105.6
1849,B2,189.5,0.5,76,105.6
1850,F#2,189.5,0.25,63,105.6
1851,F4,189.5,0.25,63,105.6
1852,F#2,189.75,0.25,74,105.6
1853,E4,189.75,0.25,74,105.6
1854,C3,189.75,0.25,74,105.6
1855,F#2,190.0,0.25,74,105.6
1856,D4,190.0,0.25,74,105.6
1857,C3,190.0,0.25,74,105.6
1858,F#2,190.25,0.25,31,105.6
1859,A2,190.25,1.5,82,105.6
1860,B1,190.25,0.5,95,105.6
1861,C4,190.25,0.5,95,105.6
1862,C4,190.25,499/125,44,105.6
1863,A4,190.25,499/125,44,105.6
1864,E4,190.25,499/125,44,105.6
1865,G3,190.25,499/125,44,105.6
1866,F#2,190.5,0.25,31,105.6
1867,D4,190.75,0.5,95,105.6
1868,F#2,190.75,0.25,31,105.6
1869,F#2,191.0,0.25,63,105.6
1870,B1,191.0,0.25,63,105.6
1871,F#2,191.25,0.25,31,105.6
1872,B1,191.25,0.5,95,105.6
1873,E4,191.25,0.5,95,105.6
1874,F#2,191.5,0.25,31,105.6
1875,F#2,191.75,0.25,31,105.6
1876,A2,191.75,0.5,88,105.6
1877,B1,191.75,0.5,88,105.6
1878,C4,192.0,0.25,63,105.6
1879,F#2,192.0,0.25,63,105.6
1880,A2,192.25,0.75,82,105.6
1881,F#2,192.25,0.25,63,105.6
1882,C5,192.25,0.25,63,105.6
1883,C5,192.5,0.25,74,105.6
1884,F#2,192.5,0.25,74,105.6
1885,B1,192.5,0.25,74,105.6
1886,B1,192.75,0.5,95,105.6
1887,F#2,192.75,0.25,63,105.6
1888,B4,192.75,0.25,63,105.6
1889,F#2,193.0,0.25,69,105.6
1890,B4,193.0,0.25,69,105.6
1891,A2,193.0,0.25,69,105.6
1892,F#2,193.25,0.25,31,105.6
1893,A4,193.25,0.5,97,105.6
1894,D2,193.25,0.5,97,105.6
1895,G3,193.25,0.5,97,105.6
1896,F#2,193.5,0.25,31,105.6
1897,F#2,193.75,0.25,31,105.6
1898,B1,193.75,0.5,91,105.6
1899,B4,193.75,0.5,91,105.6
1900,F#3,193.75,0.5,91,105.6
1901,F#2,194.0,0.25,31,105.6
1902,F#2,194.25,0.25,31,105.6
1903,G2,194.25,373/250,82,105.6
1904,C5,194.25,0.5,95,105.6
1905,B1,194.25,0.5,95,105.6
1906,D4,194.25,124/125,44,105.6
1907,B4,194.25,124/125,44,105.6
1908,G4,194.25,124/125,44,105.6
1909,F#2,194.5,0.25,31,105.6
1910,F#2,194.75,0.25,63,105.6
1911,D5,194.75,0.25,63,105.6
1912,B1,195.0,0.25,74,105.6
1913,F#2,195.0,0.25,74,105.6
1914,B4,195.0,0.25,74,105.6
1915,F#2,195.25,117/1000,31,105.6
1916,B1,195.25,0.5,76,105.6
1917,F#4,195.25,374/125,44,105.6
1918,D4,195.25,374/125,44,105.6
1919,A4,195.25,374/125,44,105.6
1920,E4,195.25,374/125,44,105.6
1921,C4,195.458,117/1000,63,105.6
1922,F#2,195.458,117/1000,63,105.6
1923,E-4,195.658,183/1000,95,105.6
1924,B1,195.75,0.5,76,105.6
1925,F#2,195.75,117/1000,31,105.6
1926,D2,195.75,623/250,82,105.6
1927,G4,195.858,183/1000,95,105.6
1928,F#2,196.0,117/1000,31,105.6
1929,B4,196.058,183/1000,95,105.6
1930,F#2,196.25,0.25,31,105.6
1931,A4,196.25,0.5,95,105.6
1932,F#2,196.5,0.25,63,105.6
1933,B1,196.5,0.25,63,105.6
1934,B1,196.75,0.5,95,105.6
1935,F#2,196.75,0.25,63,105.6
1936,F#4,196.75,0.25,63,105.6
1937,F#2,197.0,0.25,31,105.6
1938,D4,197.0,0.5,95,105.6
1939,F#2,197.25,0.25,31,105.6
1940,D2,197.25,0.5,114,105.6
1941,F#2,197.5,0.25,63,105.6
1942,A3,197.5,0.25,63,105.6
1943,B1,197.75,0.5,95,105.6
1944,D4,197.75,0.25,63,105.6
1945,F#2,197.75,0.25,63,105.6
1946,E4,198.0,0.25,63,105.6
1947,F#2,198.0,0.25,63,105.6
1948,D2,198.25,0.75,82,105.6
1949,B1,198.25,0.5,95,105.6
1950,D4,198.25,1.5,44,105.6
1951,F4,198.25,1.5,44,105.6
1952,G3,198.25,1.5,44,105.6
1953,F#2,198.25,0.25,63,105.6
1954,F4,198.25,0.25,63,105.6
1955,F#2,198.5,0.25,63,105.6
1956,F4,198.5,0.25,63,105.6
1957,F#2,198.75,0.25,63,105.6
1958,E4,198.75,0.25,63,105.6
1959,E4,199.0,0.25,76,105.6
1960,D3,199.0,0.25,76,105.6
1961,B1,199.0,0.25,76,105.6
1962,F#2,199.0,0.25,76,105.6
1963,D2,199.25,0.5,88,105.6
1964,B1,199.25,0.5,88,105.6
1965,D4,199.25,0.25,63,105.6
1966,F#2,199.25,0.25,63,105.6
1967,D4,199.5,0.25,63,105.6
1968,F#2,199.5,0.25,63,105.6
1969,F#2,199.75,0.25,31,105.6
1970,E4,199.75,2.5,44,105.6
1971,C4,199.75,2.5,44,105.6
1972,E3,199.75,2.5,44,105.6
1973,C4,199.75,0.5,91,105.6
1974,D2,199.75,0.5,91,105.6
1975,B1,199.75,0.5,91,105.6
1976,F#2,200.0,0.25,31,105.6
1977,E4,200.25,0.75,95,105.6
1978,F#2,200.25,0.25,31,105.6
1979,D2,200.25,1.0,82,105.6
1980,B1,200.5,0.25,63,105.6
1981,F#2,200.5,0.25,63,105.6
1982,F#2,200.75,0.25,63,105.6
1983,B1,200.75,0.25,63,105.6
1984,D4,201.0,1.0,95,105.6
1985,F#2,201.0,0.25,63,105.6
1986,B2,201.0,0.25,63,105.6
1987,D3,201.25,1.0,82,105.6
1988,B2,201.25,0.25,63,105.6
1989,F#2,201.25,0.25,63,105.6
1990,B2,201.5,0.25,63,105.6
1991,F#2,201.5,0.25,63,105.6
1992,F2,201.75,0.25,63,105.6
1993,F#2,201.75,0.25,63,105.6
1994,F2,202.0,0.25,74,105.6
1995,A3,202.0,0.25,74,105.6
1996,F#2,202.0,0.25,74,105.6
1997,F#2,202.25,0.25,31,105.6
1998,D2,202.25,0.75,82,105.6
1999,G3,202.25,0.5,89,105.6
2000,C#3,202.25,0.5,89,105.6
2001,B1,202.25,0.5,89,105.6
2002,F#2,202.5,0.25,31,105.6
2003,A3,202.75,0.25,74,105.6
2004,B2,202.75,0.25,74,105.6
2005,F#2,202.75,0.25,74,105.6
2006,F#3,202.75,3.5,44,105.6
2007,E-4,202.75,3.5,44,105.6
2008,B3,202.75,3.5,44,105.6
2009,F#3,203.0,0.5,95,105.6
2010,B2,203.0,0.25,69,105.6
2011,F#2,203.0,0.25,69,105.6
2012,D3,203.0,0.25,69,105.6
2013,F#2,203.25,0.25,31,105.6
2014,B2,203.25,0.5,88,105.6
2015,D2,203.25,0.5,88,105.6
2016,F#2,203.5,0.25,63,105.6
2017,B3,203.5,0.25,63,105.6
2018,D2,203.75,0.5,82,105.6
2019,F2,203.75,0.25,74,105.6
2020,E-4,203.75,0.25,74,105.6
2021,F#2,203.75,0.25,74,105.6
2022,F#2,204.0,0.25,74,105.6
2023,B3,204.0,0.25,74,105.6
2024,F2,204.0,0.25,74,105.6
2025,D2,204.25,0.75,82,105.6
2026,F#2,204.25,0.25,31,105.6
2027,F#4,204.25,0.5,95,105.6
2028,B2,204.25,0.5,95,105.6
2029,F#2,204.5,0.25,31,105.6
2030,F2,204.75,0.25,63,105.6
2031,F#2,204.75,0.25,63,105.6
2032,A4,205.0,0.5,95,105.6
2033,D2,205.0,0.25,69,105.6
2034,F#2,205.0,0.25,69,105.6
2035,F2,205.0,0.25,69,105.6
2036,D3,205.25,1.0,82,105.6
2037,F#2,205.25,0.25,63,105.6
2038,B2,205.25,0.25,63,105.6
2039,F#2,205.5,0.25,31,105.6
2040,C3,205.5,0.5,95,105.6
2041,F#4,205.75,0.25,63,105.6
2042,F#2,205.75,0.25,63,105.6
2043,C3,206.0,0.25,74,105.6
2044,F#2,206.0,0.25,74,105.6
2045,D4,206.0,0.25,74,105.6
2046,G4,206.25,333/1000,95,105.6
2047,G2,206.25,371/500,82,105.6
2048,B-3,206.25,4.0,44,105.6
2049,G3,206.25,0.5,67,105.6
2050,B1,206.25,0.5,67,105.6
2051,F#2,206.25,0.5,67,105.6
2052,D4,206.25,499/125,44,105.6
2053,F3,206.25,499/125,44,105.6
2054,F#2,206.5,0.5,31,105.6
2055,A4,206.583,333/1000,95,105.6
2056,B1,206.75,0.5,63,105.6
2057,F#2,206.75,0.5,63,105.6
2058,B-4,206.917,333/1000,95,105.6
2059,F#2,207.0,0.5,31,105.6
2060,G2,207.0,121/500,82,105.6
2061,F#2,207.25,0.25,31,105.6
2062,B1,207.25,0.5,88,105.6
2063,G2,207.25,0.5,88,105.6
2064,F#2,207.5,0.25,63,105.6
2065,C5,207.5,0.25,63,105.6
2066,F#2,207.75,0.25,31,105.6
2067,G2,207.75,0.5,88,105.6
2068,B1,207.75,0.5,88,105.6
2069,D5,208.0,0.5,95,105.6
2070,F#2,208.0,0.25,31,105.6
2071,F#2,208.25,0.25,31,105.6
2072,G2,208.25,0.75,82,105.6
2073,G5,208.5,0.5,95,105.6
2074,F#2,208.5,0.25,63,105.6
2075,B1,208.5,0.25,63,105.6
2076,B1,208.75,0.5,95,105.6
2077,F#2,208.75,0.25,31,105.6
2078,D5,209.0,371/500,95,105.6
2079,F#2,209.0,0.25,56,105.6
2080,G2,209.0,0.25,56,105.6
2081,D2,209.25,124/125,98,105.6
2082,G2,209.25,124/125,98,105.6
2083,F#2,209.25,0.5,63,105.6
2084,B1,209.25,0.5,63,105.6
2085,F#2,209.5,0.5,31,105.6
2086,C#5,209.75,0.125,95,105.6
2087,B1,209.75,0.5,63,105.6
2088,F#2,209.75,0.5,63,105.6
2089,C5,209.875,0.125,95,105.6
2090,B4,210.0,0.125,95,105.6
2091,F#2,210.0,0.25,31,105.6
2092,C5,210.125,0.125,95,105.6
2093,A2,210.25,0.75,82,105.6
2094,F#2,210.25,0.25,31,105.6
2095,B-3,210.25,2.0,44,105.6
2096,F#2,210.25,0.25,31,105.6
2097,D4,210.25,1.5,44,105.6
2098,G4,210.25,1.5,44,105.6
2099,C5,210.25,0.5,95,105.6
2100,B1,210.25,0.5,95,105.6
2101,F#2,210.5,0.25,31,105.6
2102,F#2,210.75,0.25,63,105.6
2103,B-4,210.75,0.25,63,105.6
2104,D5,211.0,1.0,95,105.6
2105,F#2,211.0,0.25,69,105.6
2106,B1,211.0,0.25,69,105.6
2107,A3,211.0,0.25,69,105.6
2108,F#2,211.25,0.25,31,105.6
2109,B1,211.25,0.5,88,105.6
2110,A2,211.25,0.5,88,105.6
2111,F#2,211.5,0.25,31,105.6
2112,F#2,211.75,0.25,31,105.6
2113,A2,211.75,0.5,88,105.6
2114,B1,211.75,0.5,88,105.6
2115,F#4,211.75,623/250,44,105.6
2116,C#4,211.75,623/250,44,105.6
2117,B-3,211.75,623/250,44,105.6
2118,D5,212.0,0.25,63,105.6
2119,F#2,212.0,0.25,63,105.6
2120,A2,212.25,371/500,82,105.6
2121,F#2,212.25,0.5,31,105.6
2122,F#5,212.25,333/1000,95,105.6
2123,B2,212.25,333/1000,95,105.6
2124,F#2,212.5,0.5,31,105.6
2125,D2,212.583,333/1000,104,105.6
2126,C#5,212.583,333/1000,104,105.6
2127,F#2,212.75,0.5,63,105.6
2128,B1,212.75,0.5,63,105.6
2129,B2,212.917,333/1000,95,105.6
2130,B4,212.917,333/1000,95,105.6
2131,F#2,213.0,0.5,31,105.6
2132,A2,213.0,121/500,82,105.6
2133,F#2,213.25,0.5,31,105.6
2134,A3,213.25,124/125,82,105.6
2135,G4,213.25,333/1000,95,105.6
2136,B2,213.25,0.75,95,105.6
2137,F#2,213.5,0.5,31,105.6
2138,F#4,213.583,333/1000,104,105.6
2139,D2,213.583,333/1000,104,105.6
2140,F#2,213.75,0.5,31,105.6
2141,B2,213.917,333/1000,104,105.6
2142,E4,213.917,333/1000,104,105.6
2143,F#2,214.0,0.25,31,105.6
2144,F4,214.25,333/1000,95,105.6
2145,F#2,214.25,0.25,31,105.6
2146,A3,214.25,4.0,44,105.6
2147,F4,214.25,4.0,44,105.6
2148,C4,214.25,4.0,44,105.6
2149,D2,214.25,0.75,91,105.6
2150,G3,214.25,0.75,91,105.6
2151,B2,214.25,0.75,91,105.6
2152,B1,214.25,0.5,63,105.6
2153,F#2,214.25,0.5,63,105.6
2154,F#2,214.5,0.5,31,105.6
2155,G4,214.583,333/1000,95,105.6
2156,F#2,214.75,0.5,31,105.6
2157,A4,214.917,333/1000,95,105.6
2158,F#2,215.0,0.5,31,105.6
2159,D3,215.0,0.25,88,105.6
2160,B1,215.0,0.25,88,105.6
2161,B1,215.25,0.5,95,105.6
2162,D2,215.25,0.25,56,105.6
2163,F#2,215.25,0.25,56,105.6
2164,D5,215.5,0.25,69,105.6
2165,D3,215.5,0.25,69,105.6
2166,F#2,215.5,0.25,69,105.6
2167,B1,215.75,0.5,88,105.6
2168,D2,215.75,0.5,88,105.6
2169,E5,215.75,0.25,63,105.6
2170,F#2,215.75,0.25,63,105.6
2171,F5,216.0,1.25,95,105.6
2172,F#2,216.0,0.25,31,105.6
2173,D2,216.25,0.75,82,105.6
2174,F#2,216.25,0.25,31,105.6
2175,B1,216.5,0.5,95,105.6
2176,F#2,216.5,0.25,31,105.6
2177,F#2,216.75,0.25,31,105.6
2178,B1,216.75,0.5,95,105.6
2179,D2,217.0,0.25,56,105.6
2180,F#2,217.0,0.25,56,105.6
2181,F5,217.25,167/1000,95,105.6
2182,F#2,217.25,0.5,31,105.6
2183,D3,217.25,1.0,98,105.6
2184,D2,217.25,1.0,98,105.6
2185,D5,217.417,167/1000,95,105.6
2186,B1,217.5,0.5,63,105.6
2187,F#2,217.5,0.5,63,105.6
2188,C5,217.583,167/1000,95,105.6
2189,A4,217.75,0.5,63,105.6
2190,F#2,217.75,0.5,63,105.6
2191,B1,218.0,0.25,63,105.6
2192,F#2,218.0,0.25,63,105.6
2193,F#2,218.25,0.25,31,105.6
2194,G2,218.25,1.5,82,105.6
2195,A3,218.25,3.0,44,105.6
2196,F4,218.25,3.0,44,105.6
2197,C4,218.25,3.0,44,105.6
2198,B1,218.25,0.5,95,105.6
2199,B-4,218.25,0.5,95,105.6
2200,B1,218.25,0.25,63,105.6
2201,F#2,218.25,0.25,63,105.6
2202,F#2,218.5,0.25,31,105.6
2203,C5,218.75,0.25,63,105.6
2204,F#2,218.75,0.25,63,105.6
2205,D5,219.0,0.75,95,105.6
2206,F#2,219.0,0.25,63,105.6
2207,B1,219.0,0.25,63,105.6
2208,B1,219.25,0.5,95,105.6
2209,F#2,219.25,0.25,31,105.6
2210,F#2,219.5,0.25,31,105.6
2211,F#2,219.75,0.25,31,105.6
2212,A5,219.75,0.5,91,105.6
2213,B1,219.75,0.5,91,105.6
2214,G2,219.75,0.5,91,105.6
2215,F#2,220.0,0.25,31,105.6
2216,G5,220.25,0.5,95,105.6
2217,F#2,220.25,0.25,31,105.6
2218,G2,220.25,0.75,82,105.6
2219,F#2,220.5,0.25,63,105.6
2220,B1,220.5,0.25,63,105.6
2221,B1,220.75,0.5,95,105.6
2222,F#2,220.75,0.25,63,105.6
2223,G5,220.75,0.25,63,105.6
2224,F5,221.0,0.25,69,105.6
2225,G2,221.0,0.25,69,105.6
2226,F#2,221.0,0.25,69,105.6
2227,G5,221.25,0.25,63,105.6
2228,F#2,221.25,0.25,63,105.6
2229,F4,221.25,1.0,54,105.6
2230,A3,221.25,1.0,54,105.6
2231,C4,221.25,1.0,54,105.6
2232,G3,221.25,1.0,54,105.6
2233,A5,221.5,0.25,63,105.6
2234,F#2,221.5,0.25,63,105.6
2235,A5,221.75,0.25,63,105.6
2236,F#2,221.75,0.25,63,105.6
2237,D2,221.75,0.5,104,105.6
2238,B1,221.75,0.5,104,105.6
2239,F#2,222.0,0.25,63,105.6
2240,A5,222.0,0.25,63,105.6
2241,B5,222.25,1.0,95,105.6
2242,B1,222.25,0.5,95,105.6
2243,G2,222.25,1.5,82,105.6
2244,F#2,222.25,0.25,31,105.6
2245,G#3,222.25,3.0,44,105.6
2246,B3,222.25,3.0,44,105.6
2247,E4,222.25,3.0,44,105.6
2248,F#2,222.5,0.25,31,105.6
2249,F#2,222.75,0.25,31,105.6
2250,F#2,223.0,0.25,63,105.6
2251,B1,223.0,0.25,63,105.6
2252,F#2,223.25,0.25,31,105.6
2253,B1,223.25,0.5,95,105.6
2254,F#2,223.5,0.25,31,105.6
2255,F#2,223.75,0.25,31,105.6
2256,G2,223.75,0.5,88,105.6
2257,B1,223.75,0.5,88,105.6
2258,F#2,224.0,0.25,31,105.6
2259,F#2,224.25,0.25,31,105.6
2260,G2,224.25,0.75,82,105.6
2261,F#2,224.5,0.25,74,105.6
2262,E5,224.5,0.25,74,105.6
2263,B1,224.5,0.25,74,105.6
2264,B1,224.75,0.5,95,105.6
2265,F#2,224.75,0.25,63,105.6
2266,E5,224.75,0.25,63,105.6
2267,E5,225.0,0.25,69,105.6
2268,F#2,225.0,0.25,69,105.6
2269,G2,225.0,0.25,69,105.6
2270,F#2,225.25,0.25,31,105.6
2271,E4,225.25,1.0,54,105.6
2272,G#3,225.25,1.0,54,105.6
2273,B3,225.25,1.0,54,105.6
2274,G3,225.25,1.0,54,105.6
2275,D2,225.25,0.5,104,105.6
2276,C6,225.25,0.5,104,105.6
2277,F#2,225.5,0.25,31,105.6
2278,B1,225.75,0.5,95,105.6
2279,F#2,225.75,0.25,63,105.6
2280,B5,225.75,0.25,63,105.6
2281,B5,226.0,0.25,95,105.6
2282,F#2,226.0,0.25,31,105.6
2283,B2,226.25,0.5,95,105.6
2284,F#2,226.25,0.25,31,105.6
2285,B5,226.25,0.5,95,105.6
2286,A2,226.25,373/250,54,105.6
2287,A4,226.25,373/250,54,105.6
2288,C4,226.25,373/250,54,105.6
2289,E4,226.25,373/250,54,105.6
2290,F#2,226.5,0.25,31,105.6
2291,F#2,226.75,0.25,31,105.6
2292,A5,226.75,0.5,95,105.6
2293,B2,227.0,0.25,63,105.6
2294,F#2,227.0,0.25,63,105.6
2295,A2,227.25,0.5,74,105.6
2296,E5,227.25,0.5,74,105.6
2297,F#2,227.25,0.5,74,105.6
2298,F#2,227.5,0.5,31,105.6
2299,D5,227.75,167/1000,95,105.6
2300,F#2,227.75,0.5,69,105.6
2301,A2,227.75,0.5,69,105.6
2302,A2,227.75,0.5,69,105.6
2303,D4,227.75,373/250,44,105.6
2304,G4,227.75,373/250,44,105.6
2305,B4,227.75,373/250,44,105.6
2306,E5,227.917,167/1000,95,105.6
2307,F#2,228.0,0.5,31,105.6
2308,C5,228.083,167/1000,95,105.6
2309,A2,228.25,0.75,82,105.6
2310,F#2,228.25,0.25,31,105.6
2311,D5,228.25,0.5,95,105.6
2312,F#2,228.5,0.25,63,105.6
2313,G2,228.5,0.25,63,105.6
2314,G2,228.75,0.5,95,105.6
2315,F#2,228.75,0.25,63,105.6
2316,E5,228.75,0.25,63,105.6
2317,C5,229.0,1.25,95,105.6
2318,F#2,229.0,0.25,56,105.6
2319,A2,229.0,0.25,56,105.6
2320,F#2,229.25,0.25,31,105.6
2321,C5,229.25,1.0,44,105.6
2322,G4,229.25,1.0,44,105.6
2323,E4,229.25,1.0,44,105.6
2324,D2,229.25,0.5,98,105.6
2325,G3,229.25,0.5,98,105.6
2326,F#2,229.5,0.25,31,105.6
2327,F#2,229.75,0.25,31,105.6
2328,F2,229.75,0.5,88,105.6
2329,F#3,229.75,0.5,88,105.6
2330,F#2,230.0,0.25,31,105.6
2331,B4,230.25,1.5,54,105.6
2332,G2,230.25,1.5,54,105.6
2333,G4,230.25,1.5,54,105.6
2334,D4,230.25,1.5,54,105.6
2335,A4,230.25,0.25,95,105.6
2336,D3,230.25,0.25,95,105.6
2337,B4,230.5,0.25,95,105.6
2338,D3,230.5,0.25,95,105.6
2339,B4,230.75,0.25,95,105.6
2340,D3,230.75,0.25,95,105.6
2341,B4,231.0,0.25,95,105.6
2342,D3,231.0,0.25,95,105.6
2343,C3,231.25,0.25,95,105.6
2344,A4,231.25,0.25,95,105.6
2345,G4,231.5,0.25,95,105.6
2346,C3,231.5,0.25,95,105.6
2347,A4,231.75,1.5,95,105.6
2348,C3,231.75,0.25,95,105.6
2349,F4,231.75,623/250,52,105.6
2350,D2,231.75,623/250,52,105.6
2351,A4,231.75,623/250,52,105.6
2352,D4,231.75,623/250,52,105.6
2353,E4,231.75,623/250,52,105.6
2354,C3,232.0,0.25,95,105.6
2355,E2,232.25,0.125,94,105.6
2356,E2,232.375,0.125,90,105.6
2357,E2,232.5,0.125,86,105.6
2358,E2,232.625,0.125,82,105.6
2359,E2,232.75,0.125,78,105.6
2360,E2,232.875,0.125,74,105.6
2361,E2,233.0,0.125,70,105.6
2362,E2,233.125,0.125,66,105.6
2363,E2,233.25,0.125,62,105.6
2364,E2,233.375,0.125,58,105.6
2365,E2,233.5,0.125,54,105.6
2366,E2,233.625,0.125,50,105.6
2367,E2,233.75,0.125,46,105.6
2368,E2,233.875,0.125,42,105.6
2369,E2,234.0,0.125,38,105.6
2370,E2,234.125,0.125,28,105.6
2371,C#4,234.25,3.0,82,105.6
2372,G#3,234.25,3.0,82,105.6
2373,G4,234.25,3.0,82,105.6
2374,C5,234.25,3.0,82,105.6
2375,F5,234.25,3.0,82,105.6
2376,A4,237.25,1.0,82,105.6
2377,F#3,237.25,1.0,82,105.6
2378,B-3,237.25,1.0,82,105.6
2379,C5,237.25,1.0,82,105.6
2380,E4,237.25,1.0,82,105.6
2381,A4,240.25,2.0,82,105.6
2382,F#3,240.25,2.0,82,105.6
2383,B-3,240.25,2.0,82,105.6
2384,C5,240.25,2.0,82,105.6
2385,E4,240.25,2.0,82,105.6
2386,G#3,242.25,2.0,82,105.6
2387,F5,242.25,2.0,82,105.6
2388,G4,242.25,2.0,82,105.6
2389,C#4,242.25,2.0,82,105.6
2390,C5,242.25,2.0,82,105.6
2391,G3,244.25,0.25,25,105.6
2392,D4,244.25,1.5,82,105.6
2393,B-5,244.25,1.5,82,105.6
2394,F5,244.25,1.5,82,105.6
2395,B-4,244.25,1.5,82,105.6
2396,B3,244.25,1.5,82,105.6
2397,G3,244.5,0.25,25,105.6
2398,G3,244.75,0.25,25,105.6
2399,G3,245.0,0.25,25,105.6
2400,G3,245.25,0.25,38,105.6
2401,G3,245.5,0.25,38,105.6
2402,G3,245.75,0.25,38,105.6
2403,B-3,245.75,2.5,82,105.6
2404,C5,245.75,2.5,82,105.6
2405,C6,245.75,2.5,82,105.6
2406,G5,245.75,2.5,82,105.6
2407,G3,246.0,0.25,38,105.6
2408,G3,246.25,0.25,50,105.6
2409,G3,246.5,0.25,50,105.6
2410,G3,246.75,0.25,50,105.6
2411,G3,247.0,0.25,50,105.6
2412,G3,247.25,0.25,63,105.6
2413,G3,247.5,0.25,63,105.6
2414,G3,247.75,0.25,63,105.6
2415,G3,248.0,0.25,63,105.6
2416,G3,248.25,0.25,76,105.6
2417,G4,248.25,4.0,82,105.6
2418,C5,248.25,4.0,82,105.6
2419,G5,248.25,4.0,82,105.6
2420,F3,248.25,4.0,82,105.6
2421,G3,248.5,0.25,76,105.6
2422,G3,248.75,0.25,76,105.6
2423,G3,249.0,0.25,76,105.6
2424,C#3,249.25,1.0,101,105.6
2425,C5,252.25,3.0,82,105.6
2426,C#4,252.25,3.0,82,105.6
2427,G4,252.25,3.0,82,105.6
2428,G#3,252.25,3.0,82,105.6
2429,F5,252.25,3.0,82,105.6
2430,B-3,255.25,1.0,82,105.6
2431,A4,255.25,1.0,82,105.6
2432,F#3,255.25,1.0,82,105.6
2433,C5,255.25,1.0,82,105.6
2434,E4,255.25,1.0,82,105.6
2435,B-3,258.25,2.0,82,105.6
2436,A4,258.25,2.0,82,105.6
2437,F#3,258.25,2.0,82,105.6
2438,C5,258.25,2.0,82,105.6
2439,E4,258.25,2.0,82,105.6
2440,F4,260.25,2.0,82,105.6
2441,G3,260.25,2.0,82,105.6
2442,A4,260.25,2.0,82,105.6
2443,C4,260.25,2.0,82,105.6
2444,B-3,262.25,1.5,82,105.6
2445,D3,262.25,1.5,82,105.6
2446,D4,262.25,1.5,82,105.6
2447,F4,262.25,1.5,82,105.6
2448,F#2,263.25,0.5,50,105.6
2449,F#2,263.75,0.5,50,105.6
2450,E4,263.75,2.5,82,105.6
2451,C4,263.75,2.5,82,105.6
2452,E3,263.75,2.5,82,105.6
2453,G4,263.75,2.5,82,105.6
2454,F#2,264.25,0.5,50,105.6
2455,F#2,264.75,0.25,50,105.6
2456,F#2,265.0,0.25,50,105.6
2457,F#2,265.25,0.5,50,105.6
2458,F#2,265.75,0.25,50,105.6
2459,F#2,266.0,0.25,50,105.6
2460,F#2,266.25,0.5,50,105.6
2461,E4,266.25,2.0,82,105.6
2462,C4,266.25,2.0,82,105.6
2463,E3,266.25,2.0,82,105.6
2464,G4,266.25,2.0,82,105.6
2465,F#2,266.75,0.5,50,105.6
2466,F#2,267.25,0.25,50,105.6
2467,F#2,267.5,0.25,50,105.6
2468,F#2,267.75,0.5,50,105.6
2469,F#2,268.25,0.25,50,105.6
2470,F#2,268.5,0.25,50,105.6
2471,F#2,268.75,0.25,50,105.6
2472,F#2,269.0,0.25,50,105.6
2473,F#2,269.25,0.25,50,105.6
2474,D5,269.25,0.5,82,105.6
2475,F#2,269.5,0.25,50,105.6
2476,E5,269.75,0.5,82,105.6
2477,F#2,269.75,0.25,50,105.6
2478,F#2,270.0,0.25,50,105.6
2479,C#3,270.25,1.0,82,105.6
2480,C5,270.25,3.0,82,105.6
2481,F5,270.25,3.0,82,105.6
2482,G4,270.25,3.0,82,105.6
2483,C#4,270.25,3.0,82,105.6
2484,G#3,270.25,3.0,82,105.6
2485,C5,273.25,1.0,82,105.6
2486,B-3,273.25,1.0,82,105.6
2487,A4,273.25,1.0,82,105.6
2488,E4,273.25,1.0,82,105.6
2489,F#3,273.25,1.0,82,105.6
2490,G3,276.25,0.25,25,105.6
2491,C5,276.25,2.0,82,105.6
2492,B-3,276.25,2.0,82,105.6
2493,A4,276.25,2.0,82,105.6
2494,E4,276.25,2.0,82,105.6
2495,F#3,276.25,2.0,82,105.6
2496,G3,276.5,0.25,25,105.6
2497,G3,276.75,0.25,25,105.6
2498,G3,277.0,0.25,25,105.6
2499,G3,277.25,0.25,25,105.6
2500,G3,277.5,0.25,25,105.6
2501,G3,277.75,0.25,38,105.6
2502,G3,278.0,0.25,38,105.6
2503,G3,278.25,0.25,38,105.6
2504,C5,278.25,2.0,82,105.6
2505,F5,278.25,2.0,82,105.6
2506,G4,278.25,2.0,82,105.6
2507,C#4,278.25,2.0,82,105.6
2508,G#3,278.25,2.0,82,105.6
2509,G3,278.5,0.25,38,105.6
2510,G3,278.75,0.25,38,105.6
2511,G3,279.0,0.25,38,105.6
2512,G3,279.25,0.25,50,105.6
2513,G3,279.5,0.25,50,105.6
2514,G3,279.75,0.25,50,105.6
2515,G3,280.0,0.25,50,105.6
2516,G3,280.25,0.25,63,105.6
2517,B3,280.25,1.5,82,105.6
2518,D4,280.25,1.5,82,105.6
2519,B-5,280.25,1.5,82,105.6
2520,B-4,280.25,1.5,82,105.6
2521,F5,280.25,1.5,82,105.6
2522,G3,280.5,0.25,63,105.6
2523,G3,280.75,0.25,63,105.6
2524,G3,281.0,0.25,63,105.6
2525,G3,281.25,0.25,76,105.6
2526,G3,281.5,0.25,76,105.6
2527,G3,281.75,0.25,76,105.6
2528,C5,281.75,2.5,82,105.6
2529,C6,281.75,2.5,82,105.6
2530,B-3,281.75,2.5,82,105.6
2531,G5,281.75,2.5,82,105.6
2532,G3,282.0,0.25,76,105.6
2533,G3,282.25,0.25,88,105.6
2534,G3,282.5,0.25,88,105.6
2535,G3,282.75,0.25,88,105.6
2536,G3,283.0,0.25,88,105.6
2537,C#3,283.25,1.0,101,105.6
2538,G5,284.25,4.0,82,105.6
2539,F3,284.25,4.0,82,105.6
2540,C5,284.25,4.0,82,105.6
2541,G4,284.25,4.0,82,105.6
2542,G3,285.75,0.25,44,105.6
2543,G3,286.0,0.25,44,105.6
2544,G3,286.25,0.25,63,105.6
2545,G3,286.5,0.25,63,105.6
2546,G3,286.75,0.25,63,105.6
2547,G3,287.0,0.25,63,105.6
2548,G3,287.25,0.25,82,105.6
2549,G3,287.5,0.25,82,105.6
2550,G3,287.75,0.25,82,105.6
2551,G3,288.0,0.25,82,105.6
2552,C#3,288.25,1.0,76,105.6
2553,G#3,288.25,3.0,82,105.6
2554,G4,288.25,3.0,82,105.6
2555,C#4,288.25,3.0,82,105.6
2556,F5,288.25,3.0,82,105.6
2557,C5,288.25,3.0,82,105.6
2558,G3,291.25,0.25,25,105.6
2559,E4,291.25,1.0,82,105.6
2560,F#3,291.25,1.0,82,105.6
2561,C5,291.25,1.0,82,105.6
2562,A4,291.25,1.0,82,105.6
2563,B-3,291.25,1.0,82,105.6
2564,G3,291.5,0.25,25,105.6
2565,G3,291.75,0.25,25,105.6
2566,G3,292.0,0.25,25,105.6
2567,G3,292.25,0.25,50,105.6
2568,E4,292.25,2.0,82,105.6
2569,F#3,292.25,2.0,82,105.6
2570,C5,292.25,2.0,82,105.6
2571,A4,292.25,2.0,82,105.6
2572,B-3,292.25,2.0,82,105.6
2573,G3,292.5,0.25,50,105.6
2574,G3,292.75,0.25,50,105.6
2575,G3,293.0,0.25,50,105.6
2576,G3,293.25,0.25,76,105.6
2577,G3,293.5,0.25,76,105.6
2578,G3,293.75,0.25,76,105.6
2579,G3,294.0,0.25,76,105.6
2580,C#3,294.25,1.0,101,105.6
2581,C4,294.25,2.0,82,105.6
2582,F4,294.25,2.0,82,105.6
2583,A4,294.25,2.0,82,105.6
2584,G3,294.25,2.0,82,105.6
2585,G3,296.25,1.0,82,105.6
2586,F4,296.25,1.5,82,105.6
2587,D3,296.25,1.5,82,105.6
2588,D4,296.25,1.5,82,105.6
2589,B-3,296.25,1.5,82,105.6
2590,C#3,297.75,1.0,82,105.6
2591,G4,297.75,2.5,82,105.6
2592,E3,297.75,2.5,82,105.6
2593,E4,297.75,2.5,82,105.6
2594,C4,297.75,2.5,82,105.6
2595,F#2,298.75,0.25,50,105.6
2596,F#2,299.0,0.25,50,105.6
2597,F#2,299.25,0.25,50,105.6
2598,F#2,299.5,0.25,50,105.6
2599,F#2,299.75,0.25,50,105.6
2600,F#2,300.0,0.25,50,105.6
2601,G#2,302.25,0.25,50,105.6
2602,G4,302.25,2.0,82,105.6
2603,E3,302.25,2.0,82,105.6
2604,E4,302.25,2.0,82,105.6
2605,C4,302.25,2.0,82,105.6
2606,F#2,302.5,0.25,50,105.6
2607,F#2,302.75,0.25,50,105.6
2608,F#2,303.0,0.25,50,105.6
2609,F#2,303.25,0.25,50,105.6
2610,F#2,303.5,0.25,50,105.6
2611,F#2,303.75,0.25,50,105.6
2612,F#2,304.0,0.25,50,105.6
2613,F#2,304.25,0.25,50,105.6
2614,F#2,304.5,0.25,50,105.6
2615,F#2,304.75,0.25,50,105.6
2616,F#2,305.0,0.25,50,105.6
2617,C#3,305.25,1.0,82,105.6
2618,F3,305.25,1.0,82,105.6
2619,C4,305.25,1.0,82,105.6
2620,C2,305.25,1.0,82,105.6
2621,F3,306.25,1.5,82,105.6
2622,C4,306.25,1.5,82,105.6
2623,G3,306.25,1.5,82,105.6
2624,C2,306.25,1.5,82,105.6
2625,G3,307.75,1.0,82,105.6
2626,G3,307.75,2.5,82,105.6
2627,D2,307.75,2.5,82,105.6
2628,A3,307.75,2.5,82,105.6
2629,D4,307.75,2.5,82,105.6
2630,F#2,309.25,0.25,38,105.6
2631,F#2,309.5,0.25,38,105.6
2632,F#2,309.75,0.5,63,105.6
2633,F#2,312.25,0.5,38,105.6
2634,G3,312.25,2.0,82,105.6
2635,D2,312.25,2.0,82,105.6
2636,A3,312.25,2.0,82,105.6
2637,D4,312.25,2.0,82,105.6
2638,F#2,312.75,0.5,38,105.6
2639,F#2,313.25,1.0,63,105.6
2640,F#2,314.25,1.0,63,105.6
2641,F3,315.25,1.0,82,105.6
2642,C#3,315.25,0.75,82,105.6
2643,C4,315.25,1.0,82,105.6
2644,C2,315.25,1.0,82,105.6
2645,G3,315.25,1.0,82,105.6
2646,A3,316.25,0.5,82,105.6
2647,F3,316.25,0.75,82,105.6
2648,C4,316.25,0.75,82,105.6
2649,G3,316.25,0.75,82,105.6
2650,C2,316.25,0.75,82,105.6
2651,C#3,317.0,0.5,82,105.6
2652,G3,317.0,0.75,82,105.6
2653,A3,317.0,0.75,82,105.6
2654,D2,317.0,0.75,82,105.6
2655,D4,317.0,0.75,82,105.6
2656,B2,317.0,0.75,82,105.6
2657,E2,317.75,0.5,82,105.6
2658,B3,317.75,0.5,82,105.6
2659,C#3,317.75,0.5,82,105.6
2660,E4,317.75,0.5,82,105.6
2661,A3,317.75,0.5,82,105.6
2662,C#3,317.75,0.5,82,105.6
2663,A3,317.75,0.5,82,105.6
2664,C#3,318.25,0.5,82,105.6
2665,D2,318.25,1.0,82,105.6
2666,D4,318.25,1.0,82,105.6
2667,B2,318.25,1.0,82,105.6
2668,G3,318.25,1.0,82,105.6
2669,A3,318.25,1.0,82,105.6
2670,A2,318.75,0.5,95,105.6
2671,F2,319.0,0.25,95,105.6
2672,D3,319.25,0.25,82,105.6
2673,G2,319.25,0.5,95,105.6
2674,D4,319.25,1.0,82,105.6
2675,G3,319.25,1.0,82,105.6
2676,A3,319.25,1.0,82,105.6
2677,D3,319.5,0.25,82,105.6
2678,D3,319.75,0.25,82,105.6
2679,A2,319.75,0.5,95,105.6
2680,D3,320.0,0.25,82,105.6
2681,F#2,320.25,0.25,31,105.6
2682,B1,320.25,0.5,92,105.6
2683,D4,320.25,0.5,92,105.6
2684,D2,320.25,0.5,92,105.6
2685,G3,320.25,0.5,92,105.6
2686,F#2,320.5,0.25,31,105.6
2687,D4,320.75,0.25,69,105.6
2688,A2,320.75,0.25,69,105.6
2689,F#2,320.75,0.25,69,105.6
2690,F#2,321.0,0.25,31,105.6
2691,D4,321.0,0.5,90,105.6
2692,E3,321.0,0.5,90,105.6
2693,B1,321.0,0.5,90,105.6
2694,F#2,321.25,0.25,31,105.6
2695,D4,321.5,0.5,95,105.6
2696,F#2,321.5,0.25,56,105.6
2697,C3,321.5,0.25,56,105.6
2698,F#2,321.75,0.25,31,105.6
2699,B1,321.75,0.5,88,105.6
2700,D3,321.75,0.5,88,105.6
2701,F#2,322.0,0.25,31,105.6
2702,D4,322.0,0.5,95,105.6
2703,D2,322.25,0.75,81,105.6
2704,F#2,322.25,0.25,31,105.6
2705,F#2,322.5,0.25,31,105.6
2706,D4,322.5,0.5,95,105.6
2707,B1,322.75,0.5,95,105.6
2708,F#2,322.75,0.25,31,105.6
2709,F#2,323.0,0.25,69,105.6
2710,D2,323.0,0.25,69,105.6
2711,D4,323.0,0.25,69,105.6
2712,D3,323.25,1.0,81,105.6
2713,D4,323.25,0.5,95,105.6
2714,F#2,323.25,0.25,31,105.6
2715,D2,323.5,0.5,114,105.6
2716,F#2,323.5,0.25,31,105.6
2717,B1,323.75,0.5,95,105.6
2718,F#2,323.75,0.25,63,105.6
2719,D4,323.75,0.25,63,105.6
2720,F#2,324.0,0.25,63,105.6
2721,D4,324.0,0.25,63,105.6
2722,F#2,324.25,0.5,31,105.6
2723,B1,324.25,1.0,88,105.6
2724,D2,324.25,1.0,88,105.6
2725,D4,324.75,1.0,95,105.6
2726,F#2,324.75,0.5,31,105.6
2727,F#2,325.25,0.5,56,105.6
2728,A2,325.25,0.5,56,105.6
2729,F#2,325.75,0.5,63,105.6
2730,D4,325.75,0.5,63,105.6
2731,E3,325.75,1.0,88,105.6
2732,B1,325.75,1.0,88,105.6
2733,D4,326.25,1.0,95,105.6
2734,F#2,326.25,0.5,31,105.6
2735,C3,326.75,0.5,56,105.6
2736,F#2,326.75,0.5,56,105.6
2737,B1,327.25,1.0,88,105.6
2738,D3,327.25,1.0,88,105.6
2739,F#2,327.25,0.5,63,105.6
2740,D4,327.25,0.5,63,105.6
2741,D4,327.75,0.5,63,105.6
2742,F#2,327.75,0.5,63,105.6
2743,A2,328.25,1.0,81,105.6
2744,F#2,328.25,0.5,31,105.6
2745,D4,328.25,0.25,95,105.6
2746,D4,328.5,0.25,95,105.6
2747,F#2,328.75,0.5,31,105.6
2748,D4,328.75,0.25,95,105.6
2749,D4,329.0,0.25,95,105.6
2750,F#2,329.25,0.5,31,105.6
2751,D4,329.25,0.25,95,105.6
2752,B1,329.25,1.0,88,105.6
2753,F2,329.25,1.0,88,105.6
2754,D4,329.5,0.25,95,105.6
2755,F#2,329.75,0.5,31,105.6
2756,D4,329.75,0.25,95,105.6
2757,D4,330.0,0.25,95,105.6
2758,F2,330.25,2.0,81,105.6
2759,D5,330.25,0.25,95,105.6
2760,F#2,330.25,0.5,31,105.6
2761,D4,330.5,0.25,95,105.6
2762,F#2,330.75,0.5,31,105.6
2763,D4,330.75,0.25,95,105.6
2764,D2,330.75,1.0,114,105.6
2765,D4,331.0,0.25,95,105.6
2766,B1,331.25,1.0,95,105.6
2767,D4,331.25,0.25,95,105.6
2768,F#2,331.25,0.5,31,105.6
2769,D4,331.5,0.25,95,105.6
2770,F#2,331.75,0.5,31,105.6
2771,D4,331.75,0.25,95,105.6
2772,D4,332.0,0.25,95,105.6
2773,F#2,332.25,0.25,31,105.6
2774,B1,332.25,0.5,88,105.6
2775,D2,332.25,0.5,88,105.6
2776,F#2,332.5,0.25,31,105.6
2777,C4,332.5,0.5,95,105.6
2778,A2,332.75,0.25,56,105.6
2779,F#2,332.75,0.25,56,105.6
2780,F#2,333.0,0.25,31,105.6
2781,E3,333.0,0.5,90,105.6
2782,B1,333.0,0.5,90,105.6
2783,D4,333.0,0.5,90,105.6
2784,F#2,333.25,0.25,31,105.6
2785,F#2,333.5,0.25,69,105.6
2786,C3,333.5,0.25,69,105.6
2787,D4,333.5,0.25,69,105.6
2788,F#2,333.75,0.25,31,105.6
2789,D3,333.75,0.5,90,105.6
2790,C4,333.75,0.5,90,105.6
2791,B1,333.75,0.5,90,105.6
2792,F#2,334.0,0.25,31,105.6
2793,F#2,334.25,0.25,31,105.6
2794,D2,334.25,0.75,81,105.6
2795,C4,334.25,0.5,95,105.6
2796,F#2,334.5,0.25,31,105.6
2797,F#2,334.75,0.25,31,105.6
2798,D4,334.75,0.5,95,105.6
2799,B1,334.75,0.5,95,105.6
2800,D2,335.0,0.25,56,105.6
2801,F#2,335.0,0.25,56,105.6
2802,D3,335.25,1.0,81,105.6
2803,F#2,335.25,0.25,63,105.6
2804,D4,335.25,0.25,63,105.6
2805,D2,335.5,0.5,114,105.6
2806,F#2,335.5,0.25,63,105.6
2807,C4,335.5,0.25,63,105.6
2808,B1,335.75,0.5,95,105.6
2809,D4,335.75,0.25,63,105.6
2810,F#2,335.75,0.25,63,105.6
2811,E4,336.0,0.25,63,105.6
2812,F#2,336.0,0.25,63,105.6
2813,C4,336.25,0.25,63,105.6
2814,F#2,336.25,0.25,63,105.6
2815,B1,336.25,0.5,88,105.6
2816,D2,336.25,0.5,88,105.6
2817,D4,336.5,0.25,63,105.6
2818,F#2,336.5,0.25,63,105.6
2819,E4,336.75,0.25,69,105.6
2820,F#2,336.75,0.25,69,105.6
2821,A2,336.75,0.25,69,105.6
2822,B1,337.0,0.5,88,105.6
2823,E3,337.0,0.5,88,105.6
2824,C4,337.0,0.25,63,105.6
2825,F#2,337.0,0.25,63,105.6
2826,F#2,337.25,0.25,31,105.6
2827,D5,337.25,0.5,95,105.6
2828,A4,337.25,0.5,95,105.6
2829,F#2,337.5,0.25,56,105.6
2830,C3,337.5,0.25,56,105.6
2831,D3,337.75,0.5,88,105.6
2832,B1,337.75,0.5,88,105.6
2833,A4,337.75,0.25,74,105.6
2834,D5,337.75,0.25,74,105.6
2835,F#2,337.75,0.25,74,105.6
2836,F#2,338.0,0.25,31,105.6
2837,G4,338.0,0.5,95,105.6
2838,D5,338.0,0.5,95,105.6
2839,F#2,338.25,0.25,31,105.6
2840,D2,338.25,0.5,114,105.6
2841,D2,338.25,0.75,81,105.6
2842,F#2,338.5,0.25,31,105.6
2843,G4,338.5,0.5,95,105.6
2844,D5,338.5,0.5,95,105.6
2845,B1,338.75,0.25,63,105.6
2846,F#2,338.75,0.25,63,105.6
2847,B2,339.0,0.25,69,105.6
2848,D2,339.0,0.25,69,105.6
2849,F#2,339.0,0.25,69,105.6
2850,D5,339.0,0.5,95,105.6
2851,G4,339.0,0.5,95,105.6
2852,D3,339.25,1.0,81,105.6
2853,F#2,339.25,0.25,31,105.6
2854,B2,339.25,0.5,95,105.6
2855,D4,339.5,0.25,63,105.6
2856,F#2,339.5,0.25,63,105.6
2857,G4,339.75,0.5,95,105.6
2858,G2,339.75,0.25,63,105.6
2859,F#2,339.75,0.25,63,105.6
2860,G2,340.0,0.25,63,105.6
2861,F#2,340.0,0.25,63,105.6
2862,F2,340.25,1.5,81,105.6
2863,F#2,340.25,0.5,63,105.6
2864,B1,340.25,0.5,63,105.6
2865,C4,340.25,4.0,44,105.6
2866,F4,340.25,4.0,44,105.6
2867,A4,340.25,4.0,44,105.6
2868,F#2,340.75,0.5,63,105.6
2869,C5,340.75,0.5,63,105.6
2870,D2,341.25,0.5,80,105.6
2871,C5,341.25,0.5,80,105.6
2872,F#2,341.25,0.5,80,105.6
2873,B1,341.75,0.5,76,105.6
2874,F2,341.75,0.5,76,105.6
2875,C5,341.75,0.5,76,105.6
2876,F#2,341.75,0.5,76,105.6
2877,F#2,342.25,0.5,63,105.6
2878,B1,342.25,0.5,63,105.6
2879,C5,342.25,1.0,88,105.6
2880,F2,342.25,1.0,88,105.6
2881,F#2,342.75,0.5,31,105.6
2882,D2,343.25,0.5,72,105.6
2883,F#2,343.25,0.5,72,105.6
2884,F5,343.25,1.0,88,105.6
2885,F2,343.25,1.0,88,105.6
2886,F#2,343.75,0.5,63,105.6
2887,B1,343.75,0.5,63,105.6
2888,D2,344.25,1.0,81,105.6
2889,D5,344.25,1.5,44,105.6
2890,F4,344.25,1.5,44,105.6
2891,B-4,344.25,1.5,44,105.6
2892,B1,344.25,0.5,74,105.6
2893,F#2,344.25,0.5,74,105.6
2894,D5,344.25,0.5,74,105.6
2895,C5,344.75,0.5,63,105.6
2896,F#2,344.75,0.5,63,105.6
2897,F#2,345.25,0.5,80,105.6
2898,D2,345.25,0.5,80,105.6
2899,C5,345.25,0.5,80,105.6
2900,D2,345.25,0.5,80,105.6
2901,B1,345.75,0.5,63,105.6
2902,F#2,345.75,0.5,63,105.6
2903,A4,345.75,2.5,44,105.6
2904,C4,345.75,2.5,44,105.6
2905,F4,345.75,2.5,44,105.6
2906,F2,345.75,1.5,88,105.6
2907,C5,345.75,1.5,88,105.6
2908,F#2,346.25,0.5,63,105.6
2909,B1,346.25,0.5,63,105.6
2910,F#2,346.75,0.5,31,105.6
2911,F3,347.25,1.0,81,105.6
2912,D2,347.25,0.5,72,105.6
2913,F#2,347.25,0.5,72,105.6
2914,A4,347.5,0.25,95,105.6
2915,C5,347.75,0.5,74,105.6
2916,F#2,347.75,0.5,74,105.6
2917,B1,347.75,0.5,74,105.6
2918,D2,348.0,0.25,114,105.6
2919,F2,348.25,1.5,81,105.6
2920,D2,348.25,0.5,114,105.6
2921,A4,348.25,4.0,44,105.6
2922,C5,348.25,4.0,44,105.6
2923,F4,348.25,4.0,44,105.6
2924,F#2,348.25,0.5,63,105.6
2925,B1,348.25,0.5,63,105.6
2926,F5,348.75,0.25,95,105.6
2927,F#2,348.75,0.5,31,105.6
2928,F5,349.0,0.25,95,105.6
2929,F5,349.25,0.75,95,105.6
2930,D2,349.25,0.5,72,105.6
2931,F#2,349.25,0.5,72,105.6
2932,B1,349.75,0.5,69,105.6
2933,F#2,349.75,0.5,69,105.6
2934,F2,349.75,0.5,69,105.6
2935,F5,350.0,0.25,95,105.6
2936,F5,350.25,0.25,95,105.6
2937,F2,350.25,1.0,81,105.6
2938,B1,350.25,0.5,63,105.6
2939,F#2,350.25,0.5,63,105.6
2940,F5,350.5,0.5,95,105.6
2941,F#2,350.75,0.5,31,105.6
2942,D5,351.0,1.0,95,105.6
2943,F2,351.25,1.0,81,105.6
2944,D2,351.25,0.5,72,105.6
2945,F#2,351.25,0.5,72,105.6
2946,B1,351.75,0.5,63,105.6
2947,F#2,351.75,0.5,63,105.6
2948,C5,352.0,0.25,95,105.6
2949,D5,352.25,0.25,95,105.6
2950,F4,352.25,1.5,53,105.6
2951,A4,352.25,1.5,53,105.6
2952,D2,352.25,1.5,53,105.6
2953,C5,352.25,1.5,53,105.6
2954,F#2,352.25,0.5,63,105.6
2955,B1,352.25,0.5,63,105.6
2956,C5,352.5,0.5,95,105.6
2957,F#2,352.75,0.5,31,105.6
2958,C5,353.0,0.5,95,105.6
2959,F#2,353.25,0.5,72,105.6
2960,D2,353.25,0.5,72,105.6
2961,C5,353.5,0.25,95,105.6
2962,C5,353.75,1.5,95,105.6
2963,E4,353.75,2.5,53,105.6
2964,C2,353.75,2.5,53,105.6
2965,G4,353.75,2.5,53,105.6
2966,C5,353.75,2.5,53,105.6
2967,B1,353.75,0.5,63,105.6
2968,F#2,353.75,0.5,63,105.6
2969,B1,354.25,0.5,63,105.6
2970,F#2,354.25,0.5,63,105.6
2971,F#2,354.75,0.5,31,105.6
2972,D2,355.25,0.5,72,105.6
2973,F#2,355.25,0.5,72,105.6
2974,A4,355.5,0.25,95,105.6
2975,D2,355.75,0.25,114,105.6
2976,F#2,355.75,0.5,74,105.6
2977,C5,355.75,0.5,74,105.6
2978,B1,355.75,0.5,74,105.6
2979,D2,356.0,0.25,114,105.6
2980,F2,356.25,1.5,81,105.6
2981,F#2,356.25,0.5,69,105.6
2982,D3,356.25,0.5,69,105.6
2983,B1,356.25,0.5,69,105.6
2984,A4,356.25,4.0,44,105.6
2985,F4,356.25,4.0,44,105.6
2986,C4,356.25,4.0,44,105.6
2987,F#2,356.75,0.5,31,105.6
2988,F5,356.75,1.0,95,105.6
2989,D2,357.25,0.5,72,105.6
2990,F#2,357.25,0.5,72,105.6
2991,F5,357.75,0.25,95,105.6
2992,F#2,357.75,0.5,69,105.6
2993,F2,357.75,0.5,69,105.6
2994,B1,357.75,0.5,69,105.6
2995,F5,358.0,0.25,95,105.6
2996,F2,358.25,1.0,88,105.6
2997,D5,358.25,1.0,88,105.6
2998,B1,358.25,0.5,63,105.6
2999,F#2,358.25,0.5,63,105.6
3000,F#2,358.75,0.5,31,105.6
3001,F2,359.25,1.0,81,105.6
3002,F#2,359.25,0.5,72,105.6
3003,D2,359.25,0.5,72,105.6
3004,C5,359.75,0.25,95,105.6
3005,F#2,359.75,0.5,63,105.6
3006,B1,359.75,0.5,63,105.6
3007,C5,360.0,0.25,95,105.6
3008,D2,360.25,1.0,81,105.6
3009,F4,360.25,1.5,44,105.6
3010,D5,360.25,1.5,44,105.6
3011,B-4,360.25,1.5,44,105.6
3012,F#2,360.25,0.5,74,105.6
3013,D5,360.25,0.5,74,105.6
3014,B1,360.25,0.5,74,105.6
3015,F#2,360.75,0.5,31,105.6
3016,C5,360.75,0.25,95,105.6
3017,C5,361.0,0.5,95,105.6
3018,D2,361.25,0.5,75,105.6
3019,F#2,361.25,0.5,75,105.6
3020,D2,361.25,0.5,75,105.6
3021,C5,361.5,0.25,95,105.6
3022,F#2,361.75,0.5,63,105.6
3023,B1,361.75,0.5,63,105.6
3024,C5,361.75,1.5,88,105.6
3025,F2,361.75,1.5,88,105.6
3026,F4,361.75,2.5,44,105.6
3027,A4,361.75,2.5,44,105.6
3028,C4,361.75,2.5,44,105.6
3029,F#2,362.25,0.5,63,105.6
3030,B1,362.25,0.5,63,105.6
3031,F#2,362.75,0.5,31,105.6
3032,F3,363.25,1.0,81,105.6
3033,F#2,363.25,0.5,72,105.6
3034,D2,363.25,0.5,72,105.6
3035,F#2,363.75,0.5,80,105.6
3036,B1,363.75,0.5,80,105.6
3037,D2,363.75,0.5,80,105.6
3038,F2,364.25,1.5,81,105.6
3039,A4,364.25,4.0,44,105.6
3040,F4,364.25,4.0,44,105.6
3041,C5,364.25,4.0,44,105.6
3042,F#2,364.25,0.5,63,105.6
3043,B1,364.25,0.5,63,105.6
3044,A4,364.75,0.25,95,105.6
3045,F#2,364.75,0.5,31,105.6
3046,B4,365.0,0.25,95,105.6
3047,D2,365.25,0.5,80,105.6
3048,C5,365.25,0.5,80,105.6
3049,F#2,365.25,0.5,80,105.6
3050,C5,365.75,0.25,95,105.6
3051,F#2,365.75,0.5,69,105.6
3052,B1,365.75,0.5,69,105.6
3053,F2,365.75,0.5,69,105.6
3054,F5,366.0,0.25,95,105.6
3055,F2,366.25,1.0,81,105.6
3056,B1,366.25,0.5,74,105.6
3057,F#2,366.25,0.5,74,105.6
3058,D5,366.25,0.5,74,105.6
3059,F#2,366.75,0.5,31,105.6
3060,D5,366.75,0.25,95,105.6
3061,C5,367.0,0.75,95,105.6
3062,F2,367.25,1.0,81,105.6
3063,D2,367.25,0.5,72,105.6
3064,F#2,367.25,0.5,72,105.6
3065,C5,367.75,0.25,95,105.6
3066,B1,367.75,0.5,63,105.6
3067,F#2,367.75,0.5,63,105.6
3068,C5,368.0,0.25,95,105.6
3069,D5,368.25,1.0,95,105.6
3070,F#2,368.25,0.5,63,105.6
3071,B1,368.25,0.5,63,105.6
3072,C5,368.25,1.5,53,105.6
3073,A4,368.25,1.5,53,105.6
3074,D2,368.25,1.5,53,105.6
3075,F4,368.25,1.5,53,105.6
3076,F#2,368.75,0.5,31,105.6
3077,D2,369.25,0.5,80,105.6
3078,C5,369.25,0.5,80,105.6
3079,F#2,369.25,0.5,80,105.6
3080,C5,369.75,1.5,95,105.6
3081,E4,369.75,2.5,53,105.6
3082,G4,369.75,2.5,53,105.6
3083,C5,369.75,2.5,53,105.6
3084,C2,369.75,2.5,53,105.6
3085,F#2,369.75,0.5,63,105.6
3086,B1,369.75,0.5,63,105.6
3087,F#2,370.25,0.5,63,105.6
3088,B1,370.25,0.5,63,105.6
3089,F#2,370.75,0.5,31,105.6
3090,D2,371.25,0.5,72,105.6
3091,F#2,371.25,0.5,72,105.6
3092,A4,371.5,0.25,95,105.6
3093,F#2,371.75,0.5,74,105.6
3094,B1,371.75,0.5,74,105.6
3095,C5,371.75,0.5,74,105.6
3096,D2,372.0,0.25,114,105.6
3097,B-2,372.25,1.0,81,105.6
3098,F4,372.25,1.5,44,105.6
3099,B-4,372.25,1.5,44,105.6
3100,D4,372.25,1.5,44,105.6
3101,F#2,372.25,0.5,74,105.6
3102,B1,372.25,0.5,74,105.6
3103,D5,372.25,0.5,74,105.6
3104,C5,372.75,1.0,95,105.6
3105,F#2,372.75,0.5,31,105.6
3106,A2,373.25,1.0,81,105.6
3107,D2,373.25,0.5,72,105.6
3108,F#2,373.25,0.5,72,105.6
3109,A4,373.75,0.5,52,105.6
3110,F4,373.75,0.5,52,105.6
3111,C4,373.75,0.5,52,105.6
3112,A4,373.75,0.5,52,105.6
3113,F#2,373.75,0.5,52,105.6
3114,C4,374.25,1.0,53,105.6
3115,D4,374.25,1.0,53,105.6
3116,G2,374.25,1.0,53,105.6
3117,F4,374.25,1.0,53,105.6
3118,B1,374.25,0.5,74,105.6
3119,B-4,374.25,0.5,74,105.6
3120,F#2,374.25,0.5,74,105.6
3121,A4,374.75,0.5,63,105.6
3122,F#2,374.75,0.5,63,105.6
3123,G4,375.25,1.0,95,105.6
3124,D4,375.25,1.0,53,105.6
3125,G2,375.25,1.0,53,105.6
3126,F4,375.25,1.0,53,105.6
3127,B3,375.25,1.0,53,105.6
3128,D2,375.25,0.5,72,105.6
3129,F#2,375.25,0.5,72,105.6
3130,C#3,375.75,0.5,98,105.6
3131,D2,375.75,0.5,98,105.6
3132,G4,376.25,0.5,95,105.6
3133,B3,376.25,1.5,53,105.6
3134,G4,376.25,1.5,53,105.6
3135,D4,376.25,1.5,53,105.6
3136,A2,376.25,1.5,53,105.6
3137,A4,376.75,1.5,95,105.6
3138,A2,376.75,0.25,95,105.6
3139,A2,377.0,0.25,95,105.6
3140,A2,377.25,0.5,95,105.6
3141,A1,377.75,0.75,81,105.6
3142,C#4,377.75,2.5,44,105.6
3143,F#4,377.75,2.5,44,105.6
3144,B-3,377.75,2.5,44,105.6
3145,G2,378.0,0.25,95,105.6
3146,B2,378.25,0.25,95,105.6
3147,C#2,378.5,0.25,81,105.6
3148,B2,378.5,0.5,95,105.6
3149,E2,378.75,0.25,81,105.6
3150,B2,379.0,0.25,88,105.6
3151,A2,379.0,0.25,88,105.6
3152,G2,379.25,0.25,88,105.6
3153,C#3,379.25,0.25,88,105.6
3154,B-2,379.5,0.25,88,105.6
3155,G2,379.5,0.25,88,105.6
3156,A2,379.75,0.25,88,105.6
3157,G2,379.75,0.25,88,105.6
3158,G2,380.0,0.25,88,105.6
3159,G2,380.0,0.25,88,105.6
3160,F#2,380.25,0.25,31,105.6
3161,B1,380.25,0.5,88,105.6
3162,C3,380.25,0.5,88,105.6
3163,A2,380.5,0.25,74,105.6
3164,A4,380.5,0.25,74,105.6
3165,F#2,380.5,0.25,74,105.6
3166,D3,380.75,0.25,74,105.6
3167,D5,380.75,0.25,74,105.6
3168,F#2,380.75,0.25,74,105.6
3169,F#2,381.0,0.25,31,105.6
3170,G5,381.0,0.5,100,105.6
3171,G3,381.0,0.5,100,105.6
3172,B1,381.0,0.5,100,105.6
3173,D2,381.0,0.5,100,105.6
3174,F#2,381.25,0.25,31,105.6
3175,F5,381.5,0.25,74,105.6
3176,F#2,381.5,0.25,74,105.6
3177,F3,381.5,0.25,74,105.6
3178,B1,381.75,0.5,95,105.6
3179,F#2,381.75,0.25,74,105.6
3180,E3,381.75,0.25,74,105.6
3181,E5,381.75,0.25,74,105.6
3182,D5,382.0,0.25,74,105.6
3183,F#2,382.0,0.25,74,105.6
3184,D3,382.0,0.25,74,105.6
3185,F#2,382.25,0.25,31,105.6
3186,F#2,382.5,0.25,74,105.6
3187,D3,382.5,0.25,74,105.6
3188,D5,382.5,0.25,74,105.6
3189,B1,382.75,0.5,95,105.6
3190,G5,382.75,0.25,74,105.6
3191,F#2,382.75,0.25,74,105.6
3192,G3,382.75,0.25,74,105.6
3193,C6,383.0,0.25,74,105.6
3194,C4,383.0,0.25,74,105.6
3195,F#2,383.0,0.25,74,105.6
3196,B5,383.25,0.25,74,105.6
3197,B3,383.25,0.25,74,105.6
3198,F#2,383.25,0.25,74,105.6
3199,D2,383.25,0.5,104,105.6
3200,B1,383.25,0.5,104,105.6
3201,A3,383.5,0.25,74,105.6
3202,A5,383.5,0.25,74,105.6
3203,F#2,383.5,0.25,74,105.6
3204,G3,383.75,0.25,74,105.6
3205,G5,383.75,0.25,74,105.6
3206,F#2,383.75,0.25,74,105.6
3207,G3,384.0,0.25,74,105.6
3208,G5,384.0,0.25,74,105.6
3209,F#2,384.0,0.25,74,105.6
3210,F#2,384.25,0.25,31,105.6
3211,A3,384.25,0.5,95,105.6
3212,A5,384.25,0.5,95,105.6
3213,B1,384.25,0.5,95,105.6
3214,F#2,384.5,0.25,31,105.6
3215,G5,384.75,0.25,74,105.6
3216,F#2,384.75,0.25,74,105.6
3217,G3,384.75,0.25,74,105.6
3218,F#2,385.0,0.25,31,105.6
3219,F5,385.0,0.5,95,105.6
3220,F3,385.0,0.5,95,105.6
3221,B1,385.0,0.5,95,105.6
3222,F#2,385.25,0.25,31,105.6
3223,E3,385.5,0.25,74,105.6
3224,F#2,385.5,0.25,74,105.6
3225,E5,385.5,0.25,74,105.6
3226,B1,385.75,0.5,95,105.6
3227,F5,385.75,0.25,74,105.6
3228,F#2,385.75,0.25,74,105.6
3229,F3,385.75,0.25,74,105.6
3230,F#2,386.0,0.25,31,105.6
3231,F5,386.0,0.5,95,105.6
3232,F3,386.0,0.5,95,105.6
3233,F#2,386.25,0.25,31,105.6
3234,F#2,386.5,0.25,31,105.6
3235,A4,386.5,0.5,95,105.6
3236,A2,386.5,0.5,95,105.6
3237,B1,386.75,0.5,95,105.6
3238,F#2,386.75,0.25,31,105.6
3239,F#2,387.0,0.25,31,105.6
3240,A4,387.0,0.5,95,105.6
3241,A2,387.0,0.5,95,105.6
3242,F#2,387.25,0.25,31,105.6
3243,D2,387.25,0.5,104,105.6
3244,B1,387.25,0.5,104,105.6
3245,A2,387.5,0.25,74,105.6
3246,F#2,387.5,0.25,74,105.6
3247,A4,387.5,0.25,74,105.6
3248,F#2,387.75,0.25,74,105.6
3249,D3,387.75,0.25,74,105.6
3250,D5,387.75,0.25,74,105.6
3251,D2,388.0,0.25,114,105.6
3252,G5,388.0,0.25,74,105.6
3253,F#2,388.0,0.25,74,105.6
3254,G3,388.0,0.25,74,105.6
3255,F#2,388.25,0.25,31,105.6
3256,D2,388.25,0.25,114,105.6
3257,C3,388.25,0.5,88,105.6
3258,B1,388.25,0.5,88,105.6
3259,G2,388.5,0.25,74,105.6
3260,F#2,388.5,0.25,74,105.6
3261,G4,388.5,0.25,74,105.6
3262,F#2,388.75,0.25,74,105.6
3263,C3,388.75,0.25,74,105.6
3264,C5,388.75,0.25,74,105.6
3265,B1,389.0,0.5,95,105.6
3266,F3,389.0,0.25,74,105.6
3267,F5,389.0,0.25,74,105.6
3268,F#2,389.0,0.25,74,105.6
3269,A2,389.25,0.25,74,105.6
3270,A4,389.25,0.25,74,105.6
3271,F#2,389.25,0.25,74,105.6
3272,D3,389.5,0.25,74,105.6
3273,F#2,389.5,0.25,74,105.6
3274,D5,389.5,0.25,74,105.6
3275,F#2,389.75,0.25,31,105.6
3276,G5,389.75,0.5,95,105.6
3277,G3,389.75,0.5,95,105.6
3278,B1,389.75,0.5,95,105.6
3279,F#2,390.0,0.25,31,105.6
3280,F#2,390.25,0.25,74,105.6
3281,D3,390.25,0.25,74,105.6
3282,D5,390.25,0.25,74,105.6
3283,F#2,390.5,0.25,74,105.6
3284,G3,390.5,0.25,74,105.6
3285,G5,390.5,0.25,74,105.6
3286,F#2,390.75,0.25,31,105.6
3287,C6,390.75,0.5,95,105.6
3288,B1,390.75,0.5,95,105.6
3289,C4,390.75,0.5,95,105.6
3290,F#2,391.0,0.25,31,105.6
3291,B1,391.25,0.5,104,105.6
3292,D2,391.25,0.5,104,105.6
3293,B5,391.25,0.25,74,105.6
3294,F#2,391.25,0.25,74,105.6
3295,B3,391.25,0.25,74,105.6
3296,F#2,391.5,0.25,74,105.6
3297,A5,391.5,0.25,74,105.6
3298,A3,391.5,0.25,74,105.6
3299,G5,391.75,0.25,74,105.6
3300,G3,391.75,0.25,74,105.6
3301,F#2,391.75,0.25,74,105.6
3302,F#2,392.0,0.25,31,105.6
3303,A5,392.0,0.25,95,105.6
3304,A3,392.0,0.25,95,105.6
3305,F#2,392.25,0.25,31,105.6
3306,B1,392.25,0.5,95,105.6
3307,A5,392.25,121/500,95,105.6
3308,A3,392.25,121/500,95,105.6
3309,F5,392.5,0.25,74,105.6
3310,F3,392.5,0.25,74,105.6
3311,F#2,392.5,0.25,74,105.6
3312,F#2,392.75,121/500,74,105.6
3313,G5,392.75,121/500,74,105.6
3314,G3,392.75,121/500,74,105.6
3315,B1,393.0,0.75,95,105.6
3316,A3,393.0,0.25,74,105.6
3317,F#2,393.0,0.25,74,105.6
3318,A5,393.0,0.25,74,105.6
3319,F#2,393.25,0.5,31,105.6
3320,G3,393.25,117/1000,95,105.6
3321,G5,393.25,117/1000,95,105.6
3322,A3,393.375,117/1000,95,105.6
3323,A5,393.375,117/1000,95,105.6
3324,F#2,393.5,0.5,31,105.6
3325,G3,393.5,121/500,95,105.6
3326,G5,393.5,121/500,95,105.6
3327,F#2,393.75,0.5,31,105.6
3328,F3,393.75,121/500,95,105.6
3329,F5,393.75,121/500,95,105.6
3330,F#2,394.0,0.5,31,105.6
3331,E3,394.0,121/500,95,105.6
3332,E5,394.0,121/500,95,105.6
3333,F3,394.25,121/500,95,105.6
3334,F5,394.25,121/500,95,105.6
3335,F#2,394.25,0.5,63,105.6
3336,B1,394.25,0.5,63,105.6
3337,F#2,394.5,0.5,31,105.6
3338,D3,394.5,121/500,95,105.6
3339,D5,394.5,121/500,95,105.6
3340,F#2,394.75,0.5,31,105.6
3341,B1,395.0,0.5,63,105.6
3342,F#2,395.0,0.5,63,105.6
3343,F#2,395.25,0.25,31,105.6
3344,D2,395.25,0.5,104,105.6
3345,B1,395.25,0.5,104,105.6
3346,F#2,395.5,0.25,31,105.6
3347,C3,395.75,0.5,82,105.6
3348,D2,395.75,0.25,72,105.6
3349,F#2,395.75,0.25,72,105.6
3350,D2,396.0,0.25,72,105.6
3351,F#2,396.0,0.25,72,105.6
3352,B1,396.25,0.5,95,105.6
3353,F#2,396.25,0.25,31,105.6
3354,G4,396.5,0.25,74,105.6
3355,G2,396.5,0.25,74,105.6
3356,F#2,396.5,0.25,74,105.6
3357,C3,396.75,0.25,74,105.6
3358,F#2,396.75,0.25,74,105.6
3359,C5,396.75,0.25,74,105.6
3360,B1,397.0,0.5,95,105.6
3361,F3,397.0,0.25,74,105.6
3362,F#2,397.0,0.25,74,105.6
3363,F5,397.0,0.25,74,105.6
3364,F#2,397.25,0.25,74,105.6
3365,A4,397.25,0.25,74,105.6
3366,A2,397.25,0.25,74,105.6
3367,D3,397.5,0.25,74,105.6
3368,F#2,397.5,0.25,74,105.6
3369,D5,397.5,0.25,74,105.6
3370,F#2,397.75,0.25,31,105.6
3371,B1,397.75,0.5,95,105.6
3372,G3,397.75,0.5,95,105.6
3373,G5,397.75,0.5,95,105.6
3374,F#2,398.0,0.25,31,105.6
3375,D3,398.25,0.25,74,105.6
3376,F#2,398.25,0.25,74,105.6
3377,D5,398.25,0.25,74,105.6
3378,G5,398.5,0.25,74,105.6
3379,G3,398.5,0.25,74,105.6
3380,F#2,398.5,0.25,74,105.6
3381,F#2,398.75,0.25,31,105.6
3382,C6,398.75,0.5,95,105.6
3383,B1,398.75,0.5,95,105.6
3384,C4,398.75,0.5,95,105.6
3385,F#2,399.0,0.25,31,105.6
3386,B3,399.25,0.25,74,105.6
3387,F#2,399.25,0.25,74,105.6
3388,B5,399.25,0.25,74,105.6
3389,D2,399.25,0.5,104,105.6
3390,B1,399.25,0.5,104,105.6
3391,A3,399.5,0.25,74,105.6
3392,F#2,399.5,0.25,74,105.6
3393,A5,399.5,0.25,74,105.6
3394,G5,399.75,0.25,74,105.6
3395,G3,399.75,0.25,74,105.6
3396,F#2,399.75,0.25,74,105.6
3397,F#2,400.0,0.25,31,105.6
3398,C6,400.0,0.25,95,105.6
3399,C4,400.0,0.25,95,105.6
3400,F#2,400.5,0.25,31,105.6
3401,B1,400.5,0.5,95,105.6
3402,C6,400.5,0.25,95,105.6
3403,C4,400.5,0.25,95,105.6
3404,F#2,400.75,0.25,31,105.6
3405,C6,400.75,0.5,95,105.6
3406,C4,400.75,0.5,95,105.6
3407,F#2,401.0,0.25,31,105.6
3408,F#2,401.25,0.25,31,105.6
3409,B1,401.25,0.5,95,105.6
3410,A5,401.25,0.75,95,105.6
3411,A3,401.25,0.75,95,105.6
3412,F#2,401.5,0.25,31,105.6
3413,F#2,401.75,0.25,31,105.6
3414,B1,402.0,0.5,95,105.6
3415,A3,402.0,0.25,74,105.6
3416,F#2,402.0,0.25,74,105.6
3417,A5,402.0,0.25,74,105.6
3418,F#2,402.25,0.25,31,105.6
3419,B3,402.25,0.5,95,105.6
3420,B5,402.25,0.5,95,105.6
3421,F#2,402.5,0.25,31,105.6
3422,F#2,402.75,0.25,31,105.6
3423,B5,402.75,0.5,95,105.6
3424,B3,402.75,0.5,95,105.6
3425,F#2,403.0,0.25,31,105.6
3426,D2,403.0,0.5,104,105.6
3427,B1,403.0,0.5,104,105.6
3428,F#2,403.25,0.25,31,105.6
3429,G3,403.25,0.5,95,105.6
3430,G5,403.25,0.5,95,105.6
3431,F#2,403.5,0.25,31,105.6
3432,D2,403.5,0.5,104,105.6
3433,B1,403.5,0.5,104,105.6
3434,F#2,403.75,0.25,31,105.6
3435,G5,403.75,0.5,95,105.6
3436,G3,403.75,0.5,95,105.6
3437,F#2,404.0,0.25,31,105.6
3438,D2,404.25,0.25,84,105.6
3439,F#2,404.25,0.25,84,105.6
3440,A3,404.25,0.25,84,105.6
3441,C6,404.25,0.25,84,105.6
3442,C3,404.5,0.5,92,105.6
3443,C6,404.5,0.5,92,105.6
3444,B1,404.5,0.5,92,105.6
3445,A3,404.5,0.5,92,105.6
3446,D2,404.5,0.25,72,105.6
3447,F#2,404.5,0.25,72,105.6
3448,F#2,404.75,0.25,31,105.6
3449,A5,405.0,0.25,74,105.6
3450,F#2,405.0,0.25,74,105.6
3451,F3,405.0,0.25,74,105.6
3452,F#2,405.25,0.25,31,105.6
3453,A5,405.25,0.5,95,105.6
3454,B1,405.25,0.5,95,105.6
3455,F3,405.25,0.5,95,105.6
3456,F#2,405.5,0.25,31,105.6
3457,F#2,405.75,0.25,74,105.6
3458,G3,405.75,0.25,74,105.6
3459,B5,405.75,0.25,74,105.6
3460,F#2,406.0,0.25,31,105.6
3461,B1,406.0,0.5,95,105.6
3462,G3,406.0,0.5,95,105.6
3463,B5,406.0,0.5,95,105.6
3464,F#2,406.25,0.25,31,105.6
3465,F#2,406.5,0.25,74,105.6
3466,G5,406.5,0.25,74,105.6
3467,E3,406.5,0.25,74,105.6
3468,F#2,406.75,0.25,31,105.6
3469,E3,406.75,0.5,95,105.6
3470,G5,406.75,0.5,95,105.6
3471,B1,407.0,0.5,95,105.6
3472,F#2,407.0,0.25,31,105.6
3473,G5,407.25,0.25,74,105.6
3474,F#2,407.25,0.25,74,105.6
3475,E3,407.25,0.25,74,105.6
3476,F#2,407.5,0.25,31,105.6
3477,B1,407.5,0.5,100,105.6
3478,D2,407.5,0.5,100,105.6
3479,A5,407.5,0.5,100,105.6
3480,F#3,407.5,0.5,100,105.6
3481,F#2,407.75,0.25,31,105.6
3482,A5,408.0,0.25,74,105.6
3483,F#2,408.0,0.25,74,105.6
3484,F#3,408.0,0.25,74,105.6
3485,A3,408.25,0.25,74,105.6
3486,F#2,408.25,0.25,74,105.6
3487,C6,408.25,0.25,74,105.6
3488,B1,408.5,0.5,95,105.6
3489,F#2,408.5,0.25,74,105.6
3490,A3,408.5,0.25,74,105.6
3491,C6,408.5,0.25,74,105.6
3492,G#3,408.75,0.25,74,105.6
3493,F#2,408.75,0.25,74,105.6
3494,B5,408.75,0.25,74,105.6
3495,F#3,409.0,0.25,74,105.6
3496,F#2,409.0,0.25,74,105.6
3497,A5,409.0,0.25,74,105.6
3498,B1,409.25,0.75,95,105.6
3499,F#2,409.25,0.25,74,105.6
3500,B5,409.25,0.25,74,105.6
3501,G#3,409.25,0.25,74,105.6
3502,D2,409.5,1.0,114,105.6
3503,F#2,409.5,0.5,31,105.6
3504,F#3,409.5,121/500,95,105.6
3505,A5,409.5,121/500,95,105.6
3506,F#2,409.75,0.5,31,105.6
3507,G5,409.75,121/500,95,105.6
3508,E3,409.75,121/500,95,105.6
3509,F#2,410.0,0.5,31,105.6
3510,F#3,410.0,121/500,95,105.6
3511,A5,410.0,121/500,95,105.6
3512,F#2,410.25,0.5,31,105.6
3513,E3,410.25,121/500,95,105.6
3514,G5,410.25,121/500,95,105.6
3515,F#2,410.5,0.5,63,105.6
3516,D3,410.5,0.5,63,105.6
3517,D3,410.5,121/500,95,105.6
3518,F5,410.5,121/500,95,105.6
3519,F#2,410.75,0.5,63,105.6
3520,D3,410.75,0.5,63,105.6
3521,E5,410.75,121/500,95,105.6
3522,C#3,410.75,121/500,95,105.6
3523,F#2,411.0,0.5,74,105.6
3524,A2,411.0,0.5,74,105.6
3525,B1,411.0,0.5,74,105.6
3526,D5,411.0,121/500,95,105.6
3527,B2,411.0,121/500,95,105.6
3528,C5,411.25,121/500,95,105.6
3529,A2,411.25,121/500,95,105.6
3530,A2,411.25,0.5,63,105.6
3531,F#2,411.25,0.5,63,105.6
3532,B4,411.5,117/1000,95,105.6
3533,F#2,411.5,0.5,31,105.6
3534,G2,411.5,0.25,95,105.6
3535,F2,411.5,0.25,95,105.6
3536,F2,411.625,0.25,95,105.6
3537,C5,411.625,117/1000,95,105.6
3538,F#2,411.75,0.5,31,105.6
3539,B4,411.75,117/1000,95,105.6
3540,A2,411.75,121/500,95,105.6
3541,F2,411.75,121/500,95,105.6
3542,A4,411.875,117/1000,95,105.6
3543,A2,411.875,0.25,95,105.6
3544,F#2,412.0,0.5,31,105.6
3545,G4,412.0,0.25,95,105.6
3546,E2,412.0,0.25,95,105.6
3547,C3,412.0,0.25,95,105.6
3548,C3,412.125,0.25,95,105.6
3549,F#2,412.25,0.25,31,105.6
3550,F4,412.25,121/500,95,105.6
3551,D3,412.25,121/500,95,105.6
3552,C2,412.25,121/500,95,105.6
3553,D3,412.375,0.125,95,105.6
3554,F#2,412.5,0.25,31,105.6
3555,F#2,412.5,0.25,31,105.6
3556,D3,412.5,0.125,95,105.6
3557,E4,412.5,1.5,54,105.6
3558,A2,412.5,1.5,54,105.6
3559,A4,412.5,1.5,54,105.6
3560,C4,412.5,1.5,54,105.6
3561,B1,412.5,0.5,86,105.6
3562,C#3,412.5,0.5,86,105.6
3563,F#2,412.75,0.25,31,105.6
3564,C5,413.0,0.5,95,105.6
3565,F#2,413.0,0.25,31,105.6
3566,D2,413.25,0.5,114,105.6
3567,F#2,413.25,0.25,31,105.6
3568,F#2,413.5,0.25,31,105.6
3569,C5,413.5,0.5,95,105.6
3570,F#2,413.75,0.25,31,105.6
3571,F#2,414.0,0.25,63,105.6
3572,C5,414.0,0.25,63,105.6
3573,E4,414.0,2.5,44,105.6
3574,A4,414.0,2.5,44,105.6
3575,C4,414.0,2.5,44,105.6
3576,B1,414.0,0.5,88,105.6
3577,A2,414.0,0.5,88,105.6
3578,C5,414.25,1.0,95,105.6
3579,F#2,414.25,0.25,31,105.6
3580,F#2,414.5,0.25,31,105.6
3581,A2,414.5,2.0,82,105.6
3582,B1,414.5,0.5,95,105.6
3583,F#2,414.75,0.25,31,105.6
3584,F#2,415.0,0.25,31,105.6
3585,C5,415.25,0.75,95,105.6
3586,F#2,415.25,0.25,31,105.6
3587,D2,415.5,0.5,114,105.6
3588,F#2,415.5,0.25,31,105.6
3589,F#2,415.75,0.25,31,105.6
3590,F#2,416.0,0.25,31,105.6
3591,B1,416.0,0.5,95,105.6
3592,C5,416.0,0.5,95,105.6
3593,F#2,416.25,0.25,31,105.6
3594,F#2,416.5,0.25,31,105.6
3595,B1,416.5,0.5,95,105.6
3596,B4,416.5,0.5,95,105.6
3597,G2,416.5,1.5,54,105.6
3598,B4,416.5,1.5,54,105.6
3599,D4,416.5,1.5,54,105.6
3600,G4,416.5,1.5,54,105.6
3601,F#2,416.75,0.25,31,105.6
3602,A4,417.0,0.5,95,105.6
3603,F#2,417.0,0.25,31,105.6
3604,F#2,417.25,0.25,31,105.6
3605,F#2,417.5,0.25,31,105.6
3606,D2,417.5,0.5,104,105.6
3607,G4,417.5,0.5,104,105.6
3608,F#2,417.75,0.25,31,105.6
3609,F#2,418.0,0.25,31,105.6
3610,B1,418.0,0.5,95,105.6
3611,A4,418.0,1.5,95,105.6
3612,D2,418.0,2.5,54,105.6
3613,F#4,418.0,2.5,54,105.6
3614,A4,418.0,2.5,54,105.6
3615,D4,418.0,2.5,54,105.6
3616,F#2,418.25,0.25,31,105.6
3617,B1,418.5,0.5,95,105.6
3618,F#2,418.5,0.25,31,105.6
3619,F#2,418.75,0.25,31,105.6
3620,F#2,419.0,0.25,31,105.6
3621,F#2,419.25,0.25,31,105.6
3622,F#2,419.5,0.25,72,105.6
3623,D2,419.5,0.25,72,105.6
3624,F#2,419.75,0.25,31,105.6
3625,D2,419.75,0.5,95,105.6
3626,C#3,419.75,0.5,95,105.6
3627,F#2,420.0,0.25,31,105.6
3628,F#2,420.25,0.25,72,105.6
3629,D2,420.25,0.25,72,105.6
3630,F#2,420.5,0.25,31,105.6
3631,E4,420.5,1.5,54,105.6
3632,A2,420.5,1.5,54,105.6
3633,C4,420.5,1.5,54,105.6
3634,A4,420.5,1.5,54,105.6
3635,C#3,420.5,0.5,86,105.6
3636,B1,420.5,0.5,86,105.6
3637,F#2,420.75,0.25,31,105.6
3638,F#2,421.0,0.25,31,105.6
3639,C5,421.0,0.5,95,105.6
3640,F#2,421.25,0.25,31,105.6
3641,D2,421.25,0.5,114,105.6
3642,F#2,421.5,0.25,31,105.6
3643,C5,421.5,0.5,95,105.6
3644,F#2,421.75,0.25,31,105.6
3645,F#2,422.0,0.25,31,105.6
3646,E4,422.0,2.5,44,105.6
3647,A4,422.0,2.5,44,105.6
3648,C4,422.0,2.5,44,105.6
3649,A2,422.0,0.5,91,105.6
3650,B1,422.0,0.5,91,105.6
3651,C5,422.0,0.5,91,105.6
3652,F#2,422.25,0.25,31,105.6
3653,B1,422.5,0.5,95,105.6
3654,A2,422.5,2.0,82,105.6
3655,F#2,422.5,0.25,63,105.6
3656,C5,422.5,0.25,63,105.6
3657,C5,422.75,0.5,95,105.6
3658,F#2,422.75,0.25,31,105.6
3659,F#2,423.0,0.25,31,105.6
3660,C5,423.25,0.25,63,105.6
3661,F#2,423.25,0.25,63,105.6
3662,D2,423.5,0.5,114,105.6
3663,F#2,423.5,0.25,63,105.6
3664,C5,423.5,0.25,63,105.6
3665,C5,423.75,0.5,95,105.6
3666,F#2,423.75,0.25,31,105.6
3667,F#2,424.0,0.25,31,105.6
3668,B1,424.0,0.5,95,105.6
3669,C5,424.25,0.25,63,105.6
3670,F#2,424.25,0.25,63,105.6
3671,F#2,424.5,0.25,31,105.6
3672,G2,424.5,1.5,54,105.6
3673,G4,424.5,1.5,54,105.6
3674,B4,424.5,1.5,54,105.6
3675,D4,424.5,1.5,54,105.6
3676,B1,424.5,0.5,95,105.6
3677,B4,424.5,0.5,95,105.6
3678,F#2,424.75,0.25,31,105.6
3679,F#2,425.0,0.25,63,105.6
3680,A4,425.0,0.25,63,105.6
3681,F#2,425.25,0.25,31,105.6
3682,A4,425.25,0.75,95,105.6
3683,F#2,425.5,0.25,31,105.6
3684,D2,425.5,0.5,114,105.6
3685,F#2,425.75,0.25,31,105.6
3686,F#2,426.0,0.25,31,105.6
3687,A4,426.0,0.75,95,105.6
3688,B1,426.0,0.5,95,105.6
3689,F#4,426.0,2.5,54,105.6
3690,D2,426.0,2.5,54,105.6
3691,A4,426.0,2.5,54,105.6
3692,D4,426.0,2.5,54,105.6
3693,F#2,426.25,0.25,31,105.6
3694,B1,426.5,0.5,95,105.6
3695,F#2,426.5,0.25,31,105.6
3696,F#2,426.75,0.25,63,105.6
3697,G4,426.75,0.25,63,105.6
3698,F#4,427.0,0.5,95,105.6
3699,F#2,427.0,0.25,31,105.6
3700,F#2,427.25,0.25,72,105.6
3701,D2,427.25,0.25,72,105.6
3702,F#2,427.5,0.25,31,105.6
3703,D2,427.5,0.5,114,105.6
3704,F#2,427.75,0.25,31,105.6
3705,D2,428.0,0.5,114,105.6
3706,F#2,428.0,0.25,31,105.6
3707,F#2,428.25,0.25,31,105.6
3708,F#2,428.5,0.25,31,105.6
3709,E4,428.5,1.5,54,105.6
3710,A4,428.5,1.5,54,105.6
3711,A2,428.5,1.5,54,105.6
3712,C4,428.5,1.5,54,105.6
3713,B1,428.5,0.5,86,105.6
3714,C#3,428.5,0.5,86,105.6
3715,F#2,428.75,0.25,31,105.6
3716,C5,429.0,0.5,95,105.6
3717,F#2,429.0,0.25,31,105.6
3718,F#2,429.25,0.25,31,105.6
3719,D2,429.25,0.5,114,105.6
3720,C5,429.5,0.5,95,105.6
3721,F#2,429.5,0.25,31,105.6
3722,F#2,429.75,0.25,31,105.6
3723,F#2,430.0,0.25,31,105.6
3724,B1,430.0,0.5,91,105.6
3725,C5,430.0,0.5,91,105.6
3726,A2,430.0,0.5,91,105.6
3727,A4,430.0,2.5,44,105.6
3728,E4,430.0,2.5,44,105.6
3729,C4,430.0,2.5,44,105.6
3730,F#2,430.25,0.25,31,105.6
3731,B1,430.5,0.5,95,105.6
3732,A2,430.5,2.0,82,105.6
3733,C5,430.5,0.75,95,105.6
3734,F#2,430.5,0.25,31,105.6
3735,F#2,430.75,0.25,31,105.6
3736,F#2,431.0,0.25,31,105.6
3737,C5,431.25,0.25,63,105.6
3738,F#2,431.25,0.25,63,105.6
3739,F#2,431.5,0.25,31,105.6
3740,D5,431.5,0.75,95,105.6
3741,D2,431.5,0.5,114,105.6
3742,F#2,431.75,0.25,31,105.6
3743,F#2,432.0,0.25,31,105.6
3744,B1,432.0,0.5,95,105.6
3745,F#2,432.25,0.25,63,105.6
3746,C5,432.25,0.25,63,105.6
3747,F#2,432.5,0.25,31,105.6
3748,D4,432.5,1.5,54,105.6
3749,G2,432.5,1.5,54,105.6
3750,B4,432.5,1.5,54,105.6
3751,G4,432.5,1.5,54,105.6
3752,B4,432.5,0.5,95,105.6
3753,B1,432.5,0.5,95,105.6
3754,F#2,432.75,0.25,31,105.6
3755,F#2,433.0,0.25,63,105.6
3756,A4,433.0,0.25,63,105.6
3757,A4,433.25,0.75,95,105.6
3758,F#2,433.25,0.25,31,105.6
3759,F#2,433.5,0.25,31,105.6
3760,D2,433.5,0.5,114,105.6
3761,F#2,433.75,0.25,31,105.6
3762,F#2,434.0,0.25,31,105.6
3763,D2,434.0,2.5,54,105.6
3764,D4,434.0,2.5,54,105.6
3765,F#4,434.0,2.5,54,105.6
3766,A4,434.0,2.5,54,105.6
3767,B1,434.0,0.5,95,105.6
3768,A4,434.0,0.5,95,105.6
3769,F#2,434.25,0.25,31,105.6
3770,B1,434.5,0.5,95,105.6
3771,A4,434.5,0.25,63,105.6
3772,F#2,434.5,0.25,63,105.6
3773,G4,434.75,0.25,63,105.6
3774,F#2,434.75,0.25,63,105.6
3775,F#4,435.0,0.5,95,105.6
3776,F#2,435.0,0.25,31,105.6
3777,F#2,435.25,0.25,31,105.6
3778,A2,435.5,0.25,72,105.6
3779,F#2,435.5,0.25,72,105.6
3780,F#2,435.75,0.25,72,105.6
3781,A2,435.75,0.25,72,105.6
3782,A4,436.0,0.5,95,105.6
3783,A2,436.0,0.25,72,105.6
3784,F#2,436.0,0.25,72,105.6
3785,F#2,436.25,0.25,72,105.6
3786,A2,436.25,0.25,72,105.6
3787,G4,436.5,1.0,62,105.6
3788,G4,436.5,1.0,62,105.6
3789,C3,436.5,1.0,62,105.6
3790,C4,436.5,1.0,62,105.6
3791,E4,436.5,1.0,62,105.6
3792,E-3,436.5,0.5,86,105.6
3793,B1,436.5,0.5,86,105.6
3794,D2,437.5,0.5,104,105.6
3795,B1,437.5,0.5,104,105.6
3796,B3,437.5,1.0,62,105.6
3797,D4,437.5,1.0,62,105.6
3798,F#4,437.5,1.0,62,105.6
3799,B2,437.5,1.0,62,105.6
3800,F#4,437.5,1.0,62,105.6
3801,C4,438.5,1.0,62,105.6
3802,A2,438.5,1.0,62,105.6
3803,G3,438.5,1.0,62,105.6
3804,E4,438.5,1.0,62,105.6
3805,E4,438.5,1.0,62,105.6
3806,B1,438.5,0.5,86,105.6
3807,E-3,438.5,0.5,86,105.6
3808,D2,439.25,0.25,114,105.6
3809,G3,439.5,0.5,74,105.6
3810,D4,439.5,0.5,74,105.6
3811,B3,439.5,0.5,74,105.6
3812,D2,439.5,0.5,74,105.6
3813,G2,439.5,0.5,74,105.6
3814,D4,439.5,0.5,74,105.6
3815,B1,439.5,0.5,74,105.6
3816,A2,440.0,0.5,82,105.6
3817,E4,440.0,0.5,95,105.6
3818,G3,440.0,0.5,44,105.6
3819,E4,440.0,0.5,44,105.6
3820,C4,440.0,0.5,44,105.6
3821,E-3,440.0,0.5,95,105.6
3822,D2,440.0,0.5,95,105.6
3823,B1,440.0,0.5,95,105.6
3824,A2,440.5,2.0,82,105.6
3825,E4,440.5,0.25,95,105.6
3826,G3,440.5,4.0,44,105.6
3827,E4,440.5,4.0,44,105.6
3828,C4,440.5,4.0,44,105.6
3829,D2,440.75,0.25,104,105.6
3830,F#4,440.75,0.25,104,105.6
3831,D2,441.0,0.25,114,105.6
3832,E4,441.0,0.5,95,105.6
3833,D2,441.25,0.25,114,105.6
3834,D4,441.5,3.0,95,105.6
3835,D2,441.5,0.25,114,105.6
3836,D2,441.75,0.25,114,105.6
3837,D2,442.0,0.25,114,105.6
3838,D2,442.25,0.25,114,105.6
3839,G2,442.5,0.25,95,105.6
3840,A2,442.5,2.0,82,105.6
3841,G2,442.75,0.25,95,105.6
3842,G2,443.0,0.25,95,105.6
3843,G2,443.25,0.25,95,105.6
3844,B2,443.5,0.25,95,105.6
3845,B2,443.75,0.25,95,105.6
3846,G2,444.0,0.25,95,105.6
3847,G2,444.25,0.25,95,105.6
3848,G2,444.5,0.25,31,105.6
3849,B1,444.5,0.5,88,105.6
3850,D2,444.5,0.5,88,105.6
3851,G2,444.75,0.25,31,105.6
3852,A2,445.0,0.25,56,105.6
3853,G2,445.0,0.25,56,105.6
3854,G2,445.25,0.25,31,105.6
3855,E3,445.25,0.5,82,105.6
3856,D2,445.5,0.5,114,105.6
3857,G2,445.5,0.25,31,105.6
3858,G2,445.75,0.25,56,105.6
3859,C3,445.75,0.25,56,105.6
3860,G2,446.0,0.25,31,105.6
3861,D3,446.0,0.5,88,105.6
3862,B1,446.0,0.5,88,105.6
3863,D2,446.25,0.5,114,105.6
3864,G2,446.25,0.25,31,105.6
3865,G2,446.5,0.25,31,105.6
3866,D2,446.5,0.75,82,105.6
3867,G2,446.75,0.25,31,105.6
3868,G2,447.0,0.25,31,105.6
3869,B1,447.0,0.5,95,105.6
3870,G2,447.25,0.25,56,105.6
3871,D2,447.25,0.25,56,105.6
3872,G2,447.5,0.25,31,105.6
3873,D3,447.5,1.0,82,105.6
3874,D2,447.5,0.5,114,105.6
3875,G2,447.75,0.25,31,105.6
3876,G2,448.0,0.25,31,105.6
3877,B1,448.0,0.5,95,105.6
3878,G2,448.25,0.25,31,105.6
3879,G2,448.5,0.25,31,105.6
3880,D2,448.5,0.5,88,105.6
3881,B1,448.5,0.5,88,105.6
3882,G2,448.75,0.25,31,105.6
3883,G2,449.0,0.25,56,105.6
3884,A2,449.0,0.25,56,105.6
3885,G2,449.25,0.25,31,105.6
3886,E3,449.25,0.5,82,105.6
3887,G2,449.5,0.25,31,105.6
3888,D2,449.5,0.5,114,105.6
3889,G2,449.75,0.25,56,105.6
3890,C3,449.75,0.25,56,105.6
3891,G2,450.0,0.25,31,105.6
3892,D3,450.0,0.5,88,105.6
3893,B1,450.0,0.5,88,105.6
3894,G2,450.25,0.25,31,105.6
3895,D2,450.25,0.5,114,105.6
3896,A2,450.5,0.5,82,105.6
3897,G2,450.5,0.25,31,105.6
3898,G2,450.75,0.25,31,105.6
3899,B1,451.0,0.5,95,105.6
3900,F2,451.0,0.25,56,105.6
3901,G2,451.0,0.25,56,105.6
3902,F2,451.25,0.25,56,105.6
3903,G2,451.25,0.25,56,105.6
3904,G2,451.5,1.0,82,105.6
3905,D2,451.5,0.25,72,105.6
3906,G2,451.5,0.25,72,105.6
3907,G2,451.75,0.25,31,105.6
3908,B1,452.0,0.5,95,105.6
3909,G2,452.0,0.25,31,105.6
3910,G2,452.25,0.25,31,105.6
3911,G2,452.5,0.25,31,105.6
3912,B1,452.5,0.5,88,105.6
3913,D2,452.5,0.5,88,105.6
3914,G2,452.75,0.25,31,105.6
3915,A2,453.0,0.25,56,105.6
3916,G2,453.0,0.25,56,105.6
3917,E3,453.25,0.5,82,105.6
3918,G2,453.25,0.25,31,105.6
3919,D2,453.5,0.5,114,105.6
3920,G2,453.5,0.25,31,105.6
3921,G2,453.75,0.25,56,105.6
3922,C3,453.75,0.25,56,105.6
3923,G2,454.0,0.25,31,105.6
3924,D3,454.0,0.5,88,105.6
3925,B1,454.0,0.5,88,105.6
3926,G2,454.25,0.25,31,105.6
3927,D2,454.25,0.5,114,105.6
3928,D2,454.5,0.75,82,105.6
3929,G2,454.5,0.25,31,105.6
3930,G2,454.75,0.25,31,105.6
3931,B1,455.0,0.5,95,105.6
3932,G2,455.0,0.25,31,105.6
3933,G2,455.25,0.25,56,105.6
3934,D2,455.25,0.25,56,105.6
3935,D2,455.5,0.5,114,105.6
3936,G2,455.5,0.25,31,105.6
3937,D3,455.5,1.0,82,105.6
3938,G2,455.75,0.25,31,105.6
3939,G2,456.0,0.25,31,105.6
3940,B1,456.0,0.5,95,105.6
3941,G2,456.25,0.25,31,105.6
3942,G2,456.5,0.25,31,105.6
3943,D2,456.5,0.5,88,105.6
3944,B1,456.5,0.5,88,105.6
3945,G2,456.75,0.25,31,105.6
3946,A2,457.0,0.25,56,105.6
3947,G2,457.0,0.25,56,105.6
3948,G2,457.25,0.25,31,105.6
3949,E3,457.25,0.5,82,105.6
3950,G2,457.5,0.25,31,105.6
3951,D2,457.5,0.5,114,105.6
3952,G2,457.75,0.25,56,105.6
3953,C3,457.75,0.25,56,105.6
3954,G2,458.0,0.25,31,105.6
3955,D3,458.0,0.5,88,105.6
3956,B1,458.0,0.5,88,105.6
3957,G2,458.25,0.25,31,105.6
3958,D2,458.25,0.5,114,105.6
3959,A2,458.5,0.5,82,105.6
3960,G2,458.5,0.25,31,105.6
3961,G2,458.75,0.25,31,105.6
3962,B1,459.0,0.5,95,105.6
3963,F2,459.0,0.25,56,105.6
3964,G2,459.0,0.25,56,105.6
3965,G2,459.25,0.25,56,105.6
3966,F2,459.25,0.25,56,105.6
3967,G2,459.5,1.0,82,105.6
3968,G2,459.5,0.25,72,105.6
3969,D2,459.5,0.25,72,105.6
3970,G2,459.75,0.25,31,105.6
3971,G2,460.0,0.25,31,105.6
3972,B1,460.0,0.5,95,105.6
3973,G2,460.25,0.25,31,105.6
3974,G2,460.5,0.25,31,105.6
3975,D2,460.5,0.5,92,105.6
3976,B1,460.5,0.5,92,105.6
3977,D2,460.5,0.5,92,105.6
3978,C3,460.5,0.5,92,105.6
3979,G2,461.0,0.25,80,105.6
3980,D2,461.0,0.25,80,105.6
3981,B1,461.0,0.25,80,105.6
3982,A2,461.0,0.25,80,105.6
3983,G2,461.25,0.25,31,105.6
3984,E3,461.25,0.5,97,105.6
3985,B1,461.25,0.5,97,105.6
3986,D2,461.25,0.5,97,105.6
3987,C3,461.75,0.25,80,105.6
3988,B1,461.75,0.25,80,105.6
3989,G2,461.75,0.25,80,105.6
3990,D2,461.75,0.25,80,105.6
3991,G2,462.0,0.25,31,105.6
3992,D3,462.0,0.5,92,105.6
3993,B1,462.0,0.5,92,105.6
3994,C3,462.0,0.5,92,105.6
3995,D2,462.0,0.5,92,105.6
