,note_name,start_time,duration,velocity,tempo
0,G#3,7.233,0.25,100,125.0
1,G#3,7.267,0.25,100,125.0
2,B-3,7.483,0.25,100,125.0
3,B-3,7.517,0.25,100,125.0
4,C#4,7.733,0.25,100,125.0
5,C#4,7.767,233/1000,100,125.0
6,E4,7.983,17/1000,100,125.0
7,E4,8.0,233/1000,100,125.0
8,C#4,8.0,17/1000,100,125.0
9,B-2,8.0,0.25,100,125.0
10,B1,8.0,0.5,100,125.0
11,B-2,8.0,0.5,100,125.0
12,E4,8.017,0.25,100,125.0
13,F4,8.233,0.25,100,125.0
14,B-2,8.25,0.25,100,125.0
15,F4,8.267,0.25,100,125.0
16,G4,8.483,0.25,100,125.0
17,G4,8.517,0.25,100,125.0
18,C#2,9.0,0.25,100,125.0
19,E2,9.0,0.5,100,125.0
20,B-2,9.0,0.5,100,125.0
21,E4,9.233,0.25,100,125.0
22,C#2,9.25,0.25,100,125.0
23,E4,9.267,0.25,100,125.0
24,F4,9.483,0.25,100,125.0
25,F4,9.517,0.25,100,125.0
26,E-2,10.0,0.25,100,125.0
27,B1,10.0,0.5,100,125.0
28,B-2,10.0,0.5,100,125.0
29,E4,10.233,0.25,100,125.0
30,E-2,10.25,0.25,100,125.0
31,E4,10.267,0.25,100,125.0
32,F4,10.483,0.25,100,125.0
33,F4,10.517,0.25,100,125.0
34,E4,10.733,0.25,100,125.0
35,B-1,10.75,0.25,100,125.0
36,E4,10.767,0.25,100,125.0
37,E-4,10.983,0.25,100,125.0
38,E2,11.0,0.5,100,125.0
39,B-2,11.0,0.5,100,125.0
40,E-4,11.017,0.25,100,125.0
41,D4,11.233,0.25,100,125.0
42,D4,11.267,0.25,100,125.0
43,C#4,11.483,0.25,100,125.0
44,B-2,11.5,0.25,100,125.0
45,C#4,11.517,0.25,100,125.0
46,D4,11.733,0.25,100,125.0
47,B-2,11.75,0.25,100,125.0
48,D4,11.767,233/1000,100,125.0
49,E4,11.983,17/1000,100,125.0
50,E4,12.0,233/1000,100,125.0
51,D4,12.0,17/1000,100,125.0
52,B1,12.0,0.5,100,125.0
53,B-2,12.0,0.5,100,125.0
54,E4,12.017,0.25,100,125.0
55,F4,12.233,0.25,100,125.0
56,F4,12.267,0.25,100,125.0
57,G4,12.483,0.25,100,125.0
58,C#2,12.5,0.25,100,125.0
59,G4,12.517,0.25,100,125.0
60,E2,13.0,0.5,100,125.0
61,B-2,13.0,0.5,100,125.0
62,E4,13.233,0.25,100,125.0
63,E4,13.267,0.25,100,125.0
64,F4,13.483,0.25,100,125.0
65,F4,13.517,0.25,100,125.0
66,E4,13.733,0.25,100,125.0
67,E4,13.767,0.25,100,125.0
68,E-4,13.983,0.25,100,125.0
69,B1,14.0,0.5,100,125.0
70,B-2,14.0,0.5,100,125.0
71,E-4,14.017,0.25,100,125.0
72,D4,14.233,0.25,100,125.0
73,D4,14.267,0.25,100,125.0
74,C#4,14.483,0.25,100,125.0
75,C#4,14.517,0.25,100,125.0
76,D4,14.733,0.25,100,125.0
77,D4,14.767,0.25,100,125.0
78,E-4,14.983,0.25,100,125.0
79,E2,15.0,0.5,100,125.0
80,B-2,15.0,0.5,100,125.0
81,E-4,15.017,0.25,100,125.0
82,E4,15.233,0.25,100,125.0
83,G#1,15.25,0.25,100,125.0
84,E4,15.267,0.25,100,125.0
85,F#4,15.483,0.25,100,125.0
86,A1,15.5,0.25,100,125.0
87,F#4,15.517,0.25,100,125.0
88,E4,15.733,0.25,100,125.0
89,B-1,15.75,0.25,100,125.0
90,E4,15.767,233/1000,100,125.0
91,E4,16.0,17/1000,100,125.0
92,B-2,16.0,0.5,100,125.0
93,F4,16.233,0.25,100,125.0
94,B-2,16.25,0.25,100,125.0
95,B1,16.25,0.25,100,125.0
96,F4,16.267,0.25,100,125.0
97,E4,16.733,0.25,100,125.0
98,E4,16.767,0.25,100,125.0
99,F4,16.983,0.25,100,125.0
100,C#2,17.0,0.25,100,125.0
101,B-2,17.0,0.5,100,125.0
102,E2,17.0,0.5,100,125.0
103,F4,17.017,0.25,100,125.0
104,F4,17.233,0.25,100,125.0
105,C#2,17.25,0.25,100,125.0
106,F4,17.267,0.25,100,125.0
107,E4,17.733,0.25,100,125.0
108,E4,17.767,0.25,100,125.0
109,F4,17.983,0.25,100,125.0
110,E-2,18.0,0.25,100,125.0
111,B1,18.0,0.25,100,125.0
112,B-2,18.0,0.5,100,125.0
113,F4,18.017,0.25,100,125.0
114,E4,18.233,0.25,100,125.0
115,E-2,18.25,0.25,100,125.0
116,E4,18.267,0.25,100,125.0
117,E-4,18.483,0.25,100,125.0
118,E-4,18.517,0.25,100,125.0
119,D4,18.733,0.25,100,125.0
120,B-1,18.75,0.25,100,125.0
121,D4,18.767,0.25,100,125.0
122,B-2,19.0,0.5,100,125.0
123,E2,19.0,0.5,100,125.0
124,E-4,19.233,0.25,100,125.0
125,E-4,19.267,0.25,100,125.0
126,E4,19.483,0.25,100,125.0
127,B-2,19.5,0.25,100,125.0
128,E4,19.517,0.25,100,125.0
129,F4,19.733,0.25,100,125.0
130,B-2,19.75,0.25,100,125.0
131,F4,19.767,233/1000,100,125.0
132,G4,19.983,17/1000,100,125.0
133,G4,20.0,233/1000,100,125.0
134,F4,20.0,17/1000,100,125.0
135,B-2,20.0,0.5,100,125.0
136,G4,20.017,0.25,100,125.0
137,B1,20.25,0.25,100,125.0
138,F4,20.483,0.25,100,125.0
139,C#2,20.5,0.25,100,125.0
140,F4,20.517,0.25,100,125.0
141,E4,20.733,0.25,100,125.0
142,E4,20.767,0.25,100,125.0
143,E-4,20.983,0.25,100,125.0
144,B-2,21.0,0.5,100,125.0
145,E2,21.0,0.5,100,125.0
146,E-4,21.017,0.25,100,125.0
147,D4,21.233,0.25,100,125.0
148,D4,21.267,0.25,100,125.0
149,C#4,21.483,0.25,100,125.0
150,C#4,21.517,0.25,100,125.0
151,G#1,22.0,0.25,100,125.0
152,B1,22.0,0.25,100,125.0
153,B-2,22.0,0.5,100,125.0
154,G#1,22.25,0.25,100,125.0
155,C3,23.0,0.25,100,125.0
156,B-2,23.0,0.5,100,125.0
157,E2,23.0,0.5,100,125.0
158,G#3,23.233,0.25,100,125.0
159,C3,23.25,0.25,100,125.0
160,G#3,23.267,0.25,100,125.0
161,B-3,23.483,0.25,100,125.0
162,B-3,23.517,0.25,100,125.0
163,C#4,23.733,0.25,100,125.0
164,C#4,23.767,233/1000,100,125.0
165,E4,23.983,17/1000,100,125.0
166,E4,24.0,233/1000,100,125.0
167,C#4,24.0,17/1000,100,125.0
168,B-2,24.0,0.25,100,125.0
169,B1,24.0,0.5,100,125.0
170,B-2,24.0,0.5,100,125.0
171,E4,24.017,0.25,100,125.0
172,F4,24.233,0.25,100,125.0
173,B-2,24.25,0.25,100,125.0
174,F4,24.267,0.25,100,125.0
175,G4,24.483,0.25,100,125.0
176,G4,24.517,0.25,100,125.0
177,C#2,25.0,0.25,100,125.0
178,E2,25.0,0.5,100,125.0
179,B-2,25.0,0.5,100,125.0
180,E4,25.233,0.25,100,125.0
181,C#2,25.25,0.25,100,125.0
182,E4,25.267,0.25,100,125.0
183,F4,25.483,0.25,100,125.0
184,F4,25.517,0.25,100,125.0
185,E-2,26.0,0.25,100,125.0
186,B1,26.0,0.5,100,125.0
187,B-2,26.0,0.5,100,125.0
188,E4,26.233,0.25,100,125.0
189,E-2,26.25,0.25,100,125.0
190,E4,26.267,0.25,100,125.0
191,F4,26.483,0.25,100,125.0
192,F4,26.517,0.25,100,125.0
193,E4,26.733,0.25,100,125.0
194,B-1,26.75,0.25,100,125.0
195,E4,26.767,0.25,100,125.0
196,E-4,26.983,0.25,100,125.0
197,E2,27.0,0.5,100,125.0
198,B-2,27.0,0.5,100,125.0
199,E-4,27.017,0.25,100,125.0
200,D4,27.233,0.25,100,125.0
201,D4,27.267,0.25,100,125.0
202,C#4,27.483,0.25,100,125.0
203,B-2,27.5,0.25,100,125.0
204,C#4,27.517,0.25,100,125.0
205,D4,27.733,0.25,100,125.0
206,B-2,27.75,0.25,100,125.0
207,D4,27.767,233/1000,100,125.0
208,E4,27.983,17/1000,100,125.0
209,E4,28.0,233/1000,100,125.0
210,D4,28.0,17/1000,100,125.0
211,B1,28.0,0.5,100,125.0
212,B-2,28.0,0.5,100,125.0
213,E4,28.017,0.25,100,125.0
214,F4,28.233,0.25,100,125.0
215,F4,28.267,0.25,100,125.0
216,G4,28.483,0.25,100,125.0
217,C#2,28.5,0.25,100,125.0
218,G4,28.517,0.25,100,125.0
219,E-2,29.0,0.25,100,125.0
220,E2,29.0,0.5,100,125.0
221,B-2,29.0,0.5,100,125.0
222,E4,29.233,0.25,100,125.0
223,E-2,29.25,0.25,100,125.0
224,E4,29.267,0.25,100,125.0
225,F4,29.483,0.25,100,125.0
226,F4,29.517,0.25,100,125.0
227,E4,29.733,0.25,100,125.0
228,E4,29.767,0.25,100,125.0
229,E-4,29.983,0.25,100,125.0
230,B1,30.0,0.5,100,125.0
231,B-2,30.0,0.5,100,125.0
232,E-4,30.017,0.25,100,125.0
233,D4,30.233,0.25,100,125.0
234,D4,30.267,0.25,100,125.0
235,C#4,30.483,0.25,100,125.0
236,C#4,30.517,0.25,100,125.0
237,D4,30.733,0.25,100,125.0
238,D4,30.767,0.25,100,125.0
239,E-4,30.983,0.25,100,125.0
240,E2,31.0,0.5,100,125.0
241,B-2,31.0,0.5,100,125.0
242,E-4,31.017,0.25,100,125.0
243,E4,31.233,0.25,100,125.0
244,G#1,31.25,0.25,100,125.0
245,E4,31.267,0.25,100,125.0
246,F#4,31.483,0.25,100,125.0
247,A1,31.5,0.25,100,125.0
248,F#4,31.517,0.25,100,125.0
249,E4,31.733,0.25,100,125.0
250,B-1,31.75,0.25,100,125.0
251,E4,31.767,233/1000,100,125.0
252,E4,32.0,17/1000,100,125.0
253,B-2,32.0,0.5,100,125.0
254,F4,32.233,0.25,100,125.0
255,B-2,32.25,0.25,100,125.0
256,B1,32.25,0.25,100,125.0
257,F4,32.267,0.25,100,125.0
258,E4,32.733,0.25,100,125.0
259,E4,32.767,0.25,100,125.0
260,F4,32.983,0.25,100,125.0
261,C#2,33.0,0.25,100,125.0
262,B-2,33.0,0.5,100,125.0
263,E2,33.0,0.5,100,125.0
264,F4,33.017,0.25,100,125.0
265,F4,33.233,0.25,100,125.0
266,C#2,33.25,0.25,100,125.0
267,F4,33.267,0.25,100,125.0
268,E4,33.733,0.25,100,125.0
269,B1,33.75,0.25,100,125.0
270,E4,33.767,0.25,100,125.0
271,F4,33.983,0.25,100,125.0
272,E-2,34.0,0.25,100,125.0
273,B1,34.0,0.25,100,125.0
274,B-2,34.0,0.5,100,125.0
275,F4,34.017,0.25,100,125.0
276,E4,34.233,0.25,100,125.0
277,E-2,34.25,0.25,100,125.0
278,E4,34.267,0.25,100,125.0
279,E-4,34.483,0.25,100,125.0
280,E-4,34.517,0.25,100,125.0
281,D4,34.733,0.25,100,125.0
282,B-1,34.75,0.25,100,125.0
283,D4,34.767,0.25,100,125.0
284,B-2,35.0,0.5,100,125.0
285,E2,35.0,0.5,100,125.0
286,E-4,35.233,0.25,100,125.0
287,E-4,35.267,0.25,100,125.0
288,E4,35.483,0.25,100,125.0
289,B-2,35.5,0.25,100,125.0
290,E4,35.517,0.25,100,125.0
291,F4,35.733,0.25,100,125.0
292,B-2,35.75,0.25,100,125.0
293,F4,35.767,233/1000,100,125.0
294,G4,35.983,17/1000,100,125.0
295,G4,36.0,233/1000,100,125.0
296,F4,36.0,17/1000,100,125.0
297,B-2,36.0,0.5,100,125.0
298,G4,36.017,0.25,100,125.0
299,B1,36.25,0.25,100,125.0
300,F#4,36.483,0.25,100,125.0
301,C#2,36.5,0.25,100,125.0
302,F#4,36.517,0.25,100,125.0
303,F4,36.983,0.25,100,125.0
304,B-2,37.0,0.5,100,125.0
305,E2,37.0,0.5,100,125.0
306,F4,37.017,0.25,100,125.0
307,E4,37.233,0.25,100,125.0
308,E4,37.267,0.25,100,125.0
309,E-4,37.483,0.25,100,125.0
310,E-4,37.517,0.25,100,125.0
311,D4,37.733,0.25,100,125.0
312,D4,37.767,0.25,100,125.0
313,C#4,37.983,0.25,100,125.0
314,B1,38.0,0.25,100,125.0
315,B-2,38.0,0.5,100,125.0
316,C#4,38.017,0.25,100,125.0
317,B-2,39.0,0.5,100,125.0
318,E2,39.0,0.5,100,125.0
319,G#3,39.233,0.25,100,125.0
320,G#1,39.25,0.25,100,125.0
321,G#3,39.267,0.25,100,125.0
322,B-3,39.483,0.25,100,125.0
323,A1,39.5,0.25,100,125.0
324,B-3,39.517,0.25,100,125.0
325,C#4,39.733,0.25,100,125.0
326,B-1,39.75,0.25,100,125.0
327,C#4,39.767,233/1000,100,125.0
328,E4,39.983,17/1000,100,125.0
329,E4,40.0,233/1000,100,125.0
330,C#4,40.0,17/1000,100,125.0
331,B-2,40.0,0.25,100,125.0
332,B1,40.0,0.5,100,125.0
333,E4,40.017,0.25,100,125.0
334,G4,40.233,0.25,100,125.0
335,B-2,40.25,0.25,100,125.0
336,G4,40.267,0.25,100,125.0
337,C#4,40.483,0.25,100,125.0
338,C#4,40.517,0.25,100,125.0
339,C#2,41.0,0.25,100,125.0
340,C5,41.0,1.0,100,125.0
341,F5,41.0,1.0,100,125.0
342,C6,41.0,1.0,100,125.0
343,B-2,41.0,0.25,100,125.0
344,E2,41.0,0.25,100,125.0
345,E4,41.233,0.25,100,125.0
346,C#2,41.25,0.25,100,125.0
347,E4,41.267,0.25,100,125.0
348,F4,41.483,0.25,100,125.0
349,F4,41.517,0.25,100,125.0
350,E-2,42.0,0.25,100,125.0
351,B-2,42.0,0.25,100,125.0
352,B1,42.0,0.5,100,125.0
353,B-4,42.0,1.0,100,125.0
354,E-5,42.0,1.0,100,125.0
355,B-5,42.0,1.0,100,125.0
356,E4,42.233,0.25,100,125.0
357,E-2,42.25,0.25,100,125.0
358,E4,42.267,0.25,100,125.0
359,F4,42.483,0.25,100,125.0
360,F4,42.517,0.25,100,125.0
361,E4,42.733,0.25,100,125.0
362,B-1,42.75,0.25,100,125.0
363,E4,42.767,0.25,100,125.0
364,E-4,42.983,0.25,100,125.0
365,B-2,43.0,0.25,100,125.0
366,E2,43.0,0.25,100,125.0
367,E-4,43.017,0.25,100,125.0
368,D4,43.233,0.25,100,125.0
369,D4,43.267,0.25,100,125.0
370,C#4,43.483,0.25,100,125.0
371,B-2,43.5,0.25,100,125.0
372,C#4,43.517,0.25,100,125.0
373,D4,43.733,0.25,100,125.0
374,B-2,43.75,0.25,100,125.0
375,D4,43.767,233/1000,100,125.0
376,E4,43.983,17/1000,100,125.0
377,E4,44.0,233/1000,100,125.0
378,D4,44.0,17/1000,100,125.0
379,B-2,44.0,0.25,100,125.0
380,E4,44.017,0.25,100,125.0
381,G4,44.233,0.25,100,125.0
382,G4,44.267,0.25,100,125.0
383,C#4,44.483,0.25,100,125.0
384,C#2,44.5,0.25,100,125.0
385,B1,44.5,0.25,100,125.0
386,C#4,44.517,0.25,100,125.0
387,G4,45.0,0.5,100,125.0
388,C#5,45.0,1.0,100,125.0
389,B-2,45.0,0.25,100,125.0
390,E2,45.0,0.25,100,125.0
391,E4,45.233,0.25,100,125.0
392,E4,45.267,0.25,100,125.0
393,F4,45.483,0.25,100,125.0
394,F4,45.517,0.25,100,125.0
395,E4,45.733,0.25,100,125.0
396,E4,45.767,0.25,100,125.0
397,E-4,45.983,0.25,100,125.0
398,B-2,46.0,0.25,100,125.0
399,E-4,46.017,0.25,100,125.0
400,D4,46.233,0.25,100,125.0
401,D4,46.267,0.25,100,125.0
402,C#4,46.483,0.25,100,125.0
403,C#4,46.517,0.25,100,125.0
404,D4,46.733,0.25,100,125.0
405,D4,46.767,0.25,100,125.0
406,E-4,46.983,0.25,100,125.0
407,E2,47.0,0.25,100,125.0
408,B-2,47.0,0.25,100,125.0
409,E-4,47.017,0.25,100,125.0
410,E4,47.233,0.25,100,125.0
411,G#1,47.25,0.25,100,125.0
412,E4,47.267,0.25,100,125.0
413,F4,47.483,0.25,100,125.0
414,A1,47.5,0.25,100,125.0
415,F4,47.517,0.25,100,125.0
416,E4,47.733,0.25,100,125.0
417,B-1,47.75,0.25,100,125.0
418,E4,47.767,233/1000,100,125.0
419,E4,48.0,17/1000,100,125.0
420,B-2,48.0,0.25,100,125.0
421,C5,48.0,1.0,100,125.0
422,F5,48.0,1.0,100,125.0
423,C6,48.0,1.0,100,125.0
424,F4,48.233,0.25,100,125.0
425,B-2,48.25,0.25,100,125.0
426,B1,48.25,0.25,100,125.0
427,F4,48.267,0.25,100,125.0
428,E4,48.733,0.25,100,125.0
429,E4,48.767,0.25,100,125.0
430,F4,48.983,0.25,100,125.0
431,C#2,49.0,0.25,100,125.0
432,B-2,49.0,0.25,100,125.0
433,E2,49.0,0.25,100,125.0
434,F4,49.017,0.25,100,125.0
435,F4,49.233,0.25,100,125.0
436,C#2,49.25,0.25,100,125.0
437,F4,49.267,0.25,100,125.0
438,B-4,49.5,1.0,100,125.0
439,E-5,49.5,1.0,100,125.0
440,B-5,49.5,1.0,100,125.0
441,E4,49.733,0.25,100,125.0
442,B1,49.75,0.25,100,125.0
443,E4,49.767,0.25,100,125.0
444,F4,49.983,0.25,100,125.0
445,E-2,50.0,0.25,100,125.0
446,B-2,50.0,0.25,100,125.0
447,B1,50.0,0.25,100,125.0
448,F4,50.017,0.25,100,125.0
449,E4,50.233,0.25,100,125.0
450,E-2,50.25,0.25,100,125.0
451,E4,50.267,0.25,100,125.0
452,E-4,50.483,0.25,100,125.0
453,E-4,50.517,0.25,100,125.0
454,D4,50.733,0.25,100,125.0
455,B-1,50.75,0.25,100,125.0
456,D4,50.767,0.25,100,125.0
457,C#4,50.983,0.25,100,125.0
458,B-2,51.0,0.25,100,125.0
459,E2,51.0,0.25,100,125.0
460,C#4,51.017,0.25,100,125.0
461,D4,51.233,0.25,100,125.0
462,D4,51.267,0.25,100,125.0
463,E4,51.483,0.25,100,125.0
464,B-2,51.5,0.25,100,125.0
465,E4,51.517,0.25,100,125.0
466,F4,51.733,0.25,100,125.0
467,B-2,51.75,0.25,100,125.0
468,F4,51.767,233/1000,100,125.0
469,G4,51.983,17/1000,100,125.0
470,G4,52.0,233/1000,100,125.0
471,F4,52.0,17/1000,100,125.0
472,B-2,52.0,0.25,100,125.0
473,G4,52.017,0.25,100,125.0
474,B1,52.25,0.25,100,125.0
475,F#4,52.483,0.25,100,125.0
476,C#2,52.5,0.25,100,125.0
477,F#4,52.517,0.25,100,125.0
478,F4,52.983,0.25,100,125.0
479,B-2,53.0,0.25,100,125.0
480,E2,53.0,0.25,100,125.0
481,F4,53.017,0.25,100,125.0
482,E4,53.233,0.25,100,125.0
483,E4,53.267,0.25,100,125.0
484,E-4,53.483,0.25,100,125.0
485,E-4,53.517,0.25,100,125.0
486,D4,53.733,0.25,100,125.0
487,D4,53.767,0.25,100,125.0
488,C#4,53.983,0.25,100,125.0
489,G#1,54.0,0.25,100,125.0
490,B-2,54.0,0.25,100,125.0
491,G4,54.0,0.5,100,125.0
492,C#5,54.0,0.5,100,125.0
493,C#4,54.017,0.25,100,125.0
494,D4,54.233,0.25,100,125.0
495,G#1,54.25,0.25,100,125.0
496,D4,54.267,0.25,100,125.0
497,E-4,54.483,0.25,100,125.0
498,E-4,54.517,0.25,100,125.0
499,E4,54.733,0.25,100,125.0
500,E4,54.767,0.25,100,125.0
501,F#4,54.983,0.25,100,125.0
502,C3,55.0,0.25,100,125.0
503,B-2,55.0,0.25,100,125.0
504,E2,55.0,0.25,100,125.0
505,F#4,55.017,0.25,100,125.0
506,G4,55.233,0.25,100,125.0
507,C3,55.25,0.25,100,125.0
508,G4,55.267,0.25,100,125.0
509,G#4,55.483,0.25,100,125.0
510,G#4,55.517,0.25,100,125.0
511,A4,55.733,0.25,100,125.0
512,A4,55.767,233/1000,100,125.0
513,B-4,55.983,17/1000,100,125.0
514,B-4,56.0,233/1000,100,125.0
515,A4,56.0,17/1000,100,125.0
516,C#2,56.0,1.0,100,125.0
517,B1,56.0,0.5,100,125.0
518,B3,56.0,0.25,100,125.0
519,C#5,56.0,4.0,100,125.0
520,G#4,56.0,4.0,100,125.0
521,F#4,56.0,4.0,100,125.0
522,B-4,56.017,0.25,100,125.0
523,E4,56.233,0.25,100,125.0
524,E4,56.267,0.25,100,125.0
525,F#4,56.483,0.25,100,125.0
526,F#4,56.517,0.25,100,125.0
527,E4,56.733,0.25,100,125.0
528,E4,56.767,0.25,100,125.0
529,C#4,56.983,0.5,100,125.0
530,E1,57.0,1.0,100,125.0
531,E2,57.0,0.5,100,125.0
532,F3,57.0,0.25,100,125.0
533,C#4,57.017,0.5,100,125.0
534,E4,57.483,0.25,100,125.0
535,E4,57.517,0.25,100,125.0
536,C#4,57.733,0.25,100,125.0
537,C#4,57.767,0.25,100,125.0
538,B3,57.983,0.75,100,125.0
539,F#1,58.0,1.0,100,125.0
540,B1,58.0,0.5,100,125.0
541,F3,58.0,0.25,100,125.0
542,B3,58.017,0.75,100,125.0
543,C#4,58.733,0.25,100,125.0
544,C#4,58.767,0.25,100,125.0
545,B1,59.0,1.0,100,125.0
546,E2,59.0,0.5,100,125.0
547,F3,59.0,0.25,100,125.0
548,G#4,59.483,0.25,100,125.0
549,G#4,59.517,0.25,100,125.0
550,E4,59.733,0.25,100,125.0
551,E4,59.767,233/1000,100,125.0
552,F#4,59.983,17/1000,100,125.0
553,F#4,60.0,27/250,100,125.0
554,E4,60.0,17/1000,100,125.0
555,C#2,60.0,1.0,100,125.0
556,B1,60.0,0.5,100,125.0
557,F3,60.0,0.25,100,125.0
558,F#4,60.0,4.0,100,125.0
559,G#4,60.0,4.0,100,125.0
560,C#5,60.0,4.0,100,125.0
561,F#4,60.017,0.125,100,125.0
562,G#4,60.108,0.125,100,125.0
563,G#4,60.142,0.125,100,125.0
564,F#4,60.233,0.125,100,125.0
565,F#4,60.267,0.125,100,125.0
566,E4,60.358,0.125,100,125.0
567,E4,60.392,0.125,100,125.0
568,F#4,60.483,0.25,100,125.0
569,B1,60.5,0.5,100,125.0
570,F#4,60.517,0.25,100,125.0
571,E4,60.733,0.25,100,125.0
572,E4,60.767,0.25,100,125.0
573,C#4,60.983,0.5,100,125.0
574,E1,61.0,0.25,100,125.0
575,E2,61.0,0.5,100,125.0
576,F3,61.0,0.25,100,125.0
577,C#4,61.017,0.5,100,125.0
578,E4,61.483,0.25,100,125.0
579,E1,61.5,0.5,100,125.0
580,E4,61.517,0.25,100,125.0
581,C#4,61.733,0.25,100,125.0
582,C#4,61.767,0.25,100,125.0
583,B3,61.983,0.25,100,125.0
584,F#1,62.0,1.0,100,125.0
585,B1,62.0,0.5,100,125.0
586,F3,62.0,0.25,100,125.0
587,B3,62.017,0.25,100,125.0
588,B3,62.233,0.25,100,125.0
589,B3,62.267,0.25,100,125.0
590,C4,62.483,0.25,100,125.0
591,E2,62.5,0.5,100,125.0
592,C4,62.517,0.25,100,125.0
593,C#4,62.733,0.25,100,125.0
594,C#4,62.767,0.25,100,125.0
595,F3,63.0,0.25,100,125.0
596,E5,63.233,0.25,100,125.0
597,B1,63.25,0.25,100,125.0
598,B1,63.25,0.25,100,125.0
599,E5,63.267,0.25,100,125.0
600,C#5,63.733,0.25,100,125.0
601,C#2,63.75,0.25,100,125.0
602,B1,63.75,0.25,100,125.0
603,C#5,63.767,233/1000,100,125.0
604,C#5,64.0,17/1000,100,125.0
605,C#2,64.0,1.0,100,125.0
606,B1,64.0,0.5,100,125.0
607,F3,64.0,0.25,100,125.0
608,C#5,64.0,4.0,100,125.0
609,G#4,64.0,4.0,100,125.0
610,F#4,64.0,4.0,100,125.0
611,E4,64.233,0.25,100,125.0
612,E4,64.267,0.25,100,125.0
613,F#4,64.483,0.25,100,125.0
614,F#4,64.517,0.25,100,125.0
615,E4,64.733,0.25,100,125.0
616,E4,64.767,0.25,100,125.0
617,C#4,64.983,0.5,100,125.0
618,E1,65.0,1.0,100,125.0
619,E2,65.0,0.5,100,125.0
620,F3,65.0,0.25,100,125.0
621,C#4,65.017,0.5,100,125.0
622,E4,65.483,0.25,100,125.0
623,E4,65.517,0.25,100,125.0
624,C#4,65.733,0.25,100,125.0
625,C#4,65.767,0.25,100,125.0
626,B3,65.983,0.75,100,125.0
627,F#1,66.0,1.0,100,125.0
628,B1,66.0,0.5,100,125.0
629,F3,66.0,0.25,100,125.0
630,B3,66.017,0.75,100,125.0
631,C#4,66.733,0.25,100,125.0
632,C#4,66.767,0.25,100,125.0
633,B1,67.0,1.0,100,125.0
634,E2,67.0,0.5,100,125.0
635,F3,67.0,0.25,100,125.0
636,G#4,67.483,0.25,100,125.0
637,G#4,67.517,0.25,100,125.0
638,E4,67.733,0.25,100,125.0
639,E4,67.767,233/1000,100,125.0
640,F#4,67.983,17/1000,100,125.0
641,F#4,68.0,27/250,100,125.0
642,E4,68.0,17/1000,100,125.0
643,C#2,68.0,1.0,100,125.0
644,C#5,68.0,4.0,100,125.0
645,G#4,68.0,4.0,100,125.0
646,F#4,68.0,4.0,100,125.0
647,B1,68.0,0.25,100,125.0
648,F3,68.0,0.25,100,125.0
649,F#4,68.017,0.125,100,125.0
650,G#4,68.108,0.125,100,125.0
651,G#4,68.142,0.125,100,125.0
652,F#4,68.233,0.125,100,125.0
653,F#4,68.267,0.125,100,125.0
654,E4,68.358,0.125,100,125.0
655,E4,68.392,0.125,100,125.0
656,F#4,68.483,0.25,100,125.0
657,F#4,68.517,0.25,100,125.0
658,E4,68.733,0.25,100,125.0
659,E4,68.767,0.25,100,125.0
660,C#4,68.983,0.5,100,125.0
661,E1,69.0,1.0,100,125.0
662,E2,69.0,0.25,100,125.0
663,F3,69.0,0.25,100,125.0
664,C#4,69.017,0.5,100,125.0
665,E4,69.483,0.25,100,125.0
666,E4,69.517,0.25,100,125.0
667,C#4,69.733,0.25,100,125.0
668,C#4,69.767,0.25,100,125.0
669,F#1,70.0,0.5,100,125.0
670,B1,70.0,0.25,100,125.0
671,F3,70.0,0.25,100,125.0
672,E4,70.233,0.25,100,125.0
673,E4,70.267,0.25,100,125.0
674,F4,70.483,0.25,100,125.0
675,G1,70.5,0.5,100,125.0
676,F4,70.517,0.25,100,125.0
677,F#4,70.733,0.25,100,125.0
678,F#4,70.767,0.25,100,125.0
679,G#1,71.0,0.25,100,125.0
680,A3,71.0,0.25,100,125.0
681,E2,71.0,0.25,100,125.0
682,G4,71.233,0.25,100,125.0
683,B1,71.25,0.25,100,125.0
684,G4,71.267,0.25,100,125.0
685,G#4,71.483,0.25,100,125.0
686,G#4,71.517,0.25,100,125.0
687,A4,71.733,0.25,100,125.0
688,C#2,71.75,0.25,100,125.0
689,A4,71.767,233/1000,100,125.0
690,B-4,71.983,17/1000,100,125.0
691,B-4,72.0,233/1000,100,125.0
692,A4,72.0,17/1000,100,125.0
693,C#2,72.0,1.0,100,125.0
694,B1,72.0,0.5,100,125.0
695,B3,72.0,0.25,100,125.0
696,C#5,72.0,4.0,100,125.0
697,G#4,72.0,4.0,100,125.0
698,F#4,72.0,4.0,100,125.0
699,B-4,72.017,0.25,100,125.0
700,E4,72.233,0.25,100,125.0
701,E4,72.267,0.25,100,125.0
702,F#4,72.483,0.25,100,125.0
703,F#4,72.517,0.25,100,125.0
704,E4,72.733,0.25,100,125.0
705,E4,72.767,0.25,100,125.0
706,C#4,72.983,0.5,100,125.0
707,E1,73.0,1.0,100,125.0
708,E2,73.0,0.5,100,125.0
709,F3,73.0,0.25,100,125.0
710,C#4,73.017,0.5,100,125.0
711,E4,73.483,0.25,100,125.0
712,E4,73.517,0.25,100,125.0
713,C#4,73.733,0.25,100,125.0
714,C#4,73.767,0.25,100,125.0
715,B3,73.983,0.75,100,125.0
716,F#1,74.0,1.0,100,125.0
717,B1,74.0,0.5,100,125.0
718,F3,74.0,0.25,100,125.0
719,B3,74.017,0.75,100,125.0
720,C#4,74.733,0.25,100,125.0
721,C#4,74.767,0.25,100,125.0
722,B1,75.0,1.0,100,125.0
723,E2,75.0,0.5,100,125.0
724,F3,75.0,0.25,100,125.0
725,G#4,75.483,0.25,100,125.0
726,G#4,75.517,0.25,100,125.0
727,E4,75.733,0.25,100,125.0
728,E4,75.767,233/1000,100,125.0
729,F#4,75.983,17/1000,100,125.0
730,F#4,76.0,27/250,100,125.0
731,E4,76.0,17/1000,100,125.0
732,C#2,76.0,1.0,100,125.0
733,B1,76.0,0.5,100,125.0
734,F3,76.0,0.25,100,125.0
735,F#4,76.0,4.0,100,125.0
736,G#4,76.0,4.0,100,125.0
737,C#5,76.0,4.0,100,125.0
738,F#4,76.017,0.125,100,125.0
739,G#4,76.108,0.125,100,125.0
740,G#4,76.142,0.125,100,125.0
741,F#4,76.233,0.125,100,125.0
742,F#4,76.267,0.125,100,125.0
743,E4,76.358,0.125,100,125.0
744,E4,76.392,0.125,100,125.0
745,F#4,76.483,0.25,100,125.0
746,B1,76.5,0.5,100,125.0
747,F#4,76.517,0.25,100,125.0
748,E4,76.733,0.25,100,125.0
749,E4,76.767,0.25,100,125.0
750,C#4,76.983,0.5,100,125.0
751,E1,77.0,0.25,100,125.0
752,E2,77.0,0.5,100,125.0
753,F3,77.0,0.25,100,125.0
754,C#4,77.017,0.5,100,125.0
755,E4,77.483,0.25,100,125.0
756,E1,77.5,0.5,100,125.0
757,E4,77.517,0.25,100,125.0
758,C#4,77.733,0.25,100,125.0
759,C#4,77.767,0.25,100,125.0
760,B3,77.983,0.25,100,125.0
761,F#1,78.0,1.0,100,125.0
762,B1,78.0,0.5,100,125.0
763,F3,78.0,0.25,100,125.0
764,B3,78.017,0.25,100,125.0
765,B3,78.233,0.25,100,125.0
766,B3,78.267,0.25,100,125.0
767,C4,78.483,0.25,100,125.0
768,E2,78.5,0.5,100,125.0
769,C4,78.517,0.25,100,125.0
770,C#4,78.733,0.25,100,125.0
771,C#4,78.767,0.25,100,125.0
772,F3,79.0,0.25,100,125.0
773,E5,79.233,0.25,100,125.0
774,B1,79.25,0.25,100,125.0
775,B1,79.25,0.25,100,125.0
776,E5,79.267,0.25,100,125.0
777,C#5,79.733,0.25,100,125.0
778,C#2,79.75,0.25,100,125.0
779,B1,79.75,0.25,100,125.0
780,C#5,79.767,233/1000,100,125.0
781,C#5,80.0,17/1000,100,125.0
782,C#2,80.0,1.0,100,125.0
783,B1,80.0,0.5,100,125.0
784,F3,80.0,0.25,100,125.0
785,C#5,80.0,4.0,100,125.0
786,G#4,80.0,4.0,100,125.0
787,F#4,80.0,4.0,100,125.0
788,E4,80.233,0.25,100,125.0
789,E4,80.267,0.25,100,125.0
790,F#4,80.483,0.25,100,125.0
791,F#4,80.517,0.25,100,125.0
792,E4,80.733,0.25,100,125.0
793,E4,80.767,0.25,100,125.0
794,C#4,80.983,0.5,100,125.0
795,E1,81.0,1.0,100,125.0
796,E2,81.0,0.5,100,125.0
797,F3,81.0,0.25,100,125.0
798,C#4,81.017,0.5,100,125.0
799,E4,81.483,0.25,100,125.0
800,E4,81.517,0.25,100,125.0
801,C#4,81.733,0.25,100,125.0
802,C#4,81.767,0.25,100,125.0
803,B3,81.983,0.75,100,125.0
804,F#1,82.0,1.0,100,125.0
805,B1,82.0,0.5,100,125.0
806,F3,82.0,0.25,100,125.0
807,B3,82.017,0.75,100,125.0
808,C#4,82.733,0.25,100,125.0
809,C#4,82.767,0.25,100,125.0
810,B1,83.0,1.0,100,125.0
811,E2,83.0,0.5,100,125.0
812,F3,83.0,0.25,100,125.0
813,G#4,83.483,0.25,100,125.0
814,G#4,83.517,0.25,100,125.0
815,E4,83.733,0.25,100,125.0
816,E4,83.767,233/1000,100,125.0
817,F#4,83.983,17/1000,100,125.0
818,F#4,84.0,27/250,100,125.0
819,E4,84.0,17/1000,100,125.0
820,C#2,84.0,1.0,100,125.0
821,C#5,84.0,4.0,100,125.0
822,G#4,84.0,4.0,100,125.0
823,F#4,84.0,4.0,100,125.0
824,B1,84.0,0.25,100,125.0
825,F3,84.0,0.25,100,125.0
826,F#4,84.017,0.125,100,125.0
827,G#4,84.108,0.125,100,125.0
828,G#4,84.142,0.125,100,125.0
829,F#4,84.233,0.125,100,125.0
830,F#4,84.267,0.125,100,125.0
831,E4,84.358,0.125,100,125.0
832,E4,84.392,0.125,100,125.0
833,F#4,84.483,0.25,100,125.0
834,F#4,84.517,0.25,100,125.0
835,E4,84.733,0.25,100,125.0
836,E4,84.767,0.25,100,125.0
837,C#4,84.983,0.5,100,125.0
838,E1,85.0,1.0,100,125.0
839,E2,85.0,0.25,100,125.0
840,F3,85.0,0.25,100,125.0
841,C#4,85.017,0.5,100,125.0
842,E4,85.483,0.25,100,125.0
843,E4,85.517,0.25,100,125.0
844,C#4,85.733,0.25,100,125.0
845,C#4,85.767,0.25,100,125.0
846,C4,85.983,0.25,100,125.0
847,F#1,86.0,0.5,100,125.0
848,B1,86.0,0.25,100,125.0
849,F3,86.0,0.25,100,125.0
850,C4,86.017,0.25,100,125.0
851,C4,86.233,0.25,100,125.0
852,C4,86.267,0.25,100,125.0
853,B3,86.483,0.25,100,125.0
854,G1,86.5,0.5,100,125.0
855,B3,86.517,0.25,100,125.0
856,B-3,86.733,0.25,100,125.0
857,B-3,86.767,0.25,100,125.0
858,G#1,87.0,0.25,100,125.0
859,D2,87.0,0.25,100,125.0
860,G#3,87.233,0.25,100,125.0
861,B1,87.25,0.25,100,125.0
862,D2,87.25,0.25,100,125.0
863,G#3,87.267,0.25,100,125.0
864,B-3,87.483,0.25,100,125.0
865,E2,87.5,0.25,100,125.0
866,B-3,87.517,0.25,100,125.0
867,C#4,87.733,0.25,100,125.0
868,C#2,87.75,0.25,100,125.0
869,E2,87.75,0.25,100,125.0
870,C#4,87.767,233/1000,100,125.0
871,E4,87.983,17/1000,100,125.0
872,E4,88.0,233/1000,100,125.0
873,C#4,88.0,17/1000,100,125.0
874,B-2,88.0,0.25,100,125.0
875,B1,88.0,0.5,100,125.0
876,B-2,88.0,0.25,100,125.0
877,E4,88.017,0.25,100,125.0
878,F4,88.233,0.25,100,125.0
879,B-2,88.25,0.25,100,125.0
880,F4,88.267,0.25,100,125.0
881,G4,88.483,0.25,100,125.0
882,G4,88.517,0.25,100,125.0
883,C#2,89.0,0.25,100,125.0
884,E2,89.0,0.5,100,125.0
885,B-2,89.0,0.25,100,125.0
886,C5,89.0,1.0,100,125.0
887,F5,89.0,1.0,100,125.0
888,C6,89.0,1.0,100,125.0
889,E4,89.233,0.25,100,125.0
890,C#2,89.25,0.25,100,125.0
891,E4,89.267,0.25,100,125.0
892,F4,89.483,0.25,100,125.0
893,F4,89.517,0.25,100,125.0
894,E-2,90.0,0.25,100,125.0
895,B1,90.0,0.5,100,125.0
896,B-2,90.0,0.25,100,125.0
897,B-4,90.0,1.0,100,125.0
898,E-5,90.0,1.0,100,125.0
899,B-5,90.0,1.0,100,125.0
900,E4,90.233,0.25,100,125.0
901,E-2,90.25,0.25,100,125.0
902,E4,90.267,0.25,100,125.0
903,F4,90.483,0.25,100,125.0
904,F4,90.517,0.25,100,125.0
905,E4,90.733,0.25,100,125.0
906,B-1,90.75,0.25,100,125.0
907,E4,90.767,0.25,100,125.0
908,E-4,90.983,0.25,100,125.0
909,E2,91.0,0.5,100,125.0
910,B-2,91.0,0.25,100,125.0
911,E-4,91.017,0.25,100,125.0
912,D4,91.233,0.25,100,125.0
913,D4,91.267,0.25,100,125.0
914,C#4,91.483,0.25,100,125.0
915,B-2,91.5,0.25,100,125.0
916,C#4,91.517,0.25,100,125.0
917,D4,91.733,0.25,100,125.0
918,B-2,91.75,0.25,100,125.0
919,D4,91.767,233/1000,100,125.0
920,E4,91.983,17/1000,100,125.0
921,E4,92.0,233/1000,100,125.0
922,D4,92.0,17/1000,100,125.0
923,B1,92.0,0.25,100,125.0
924,B-2,92.0,0.25,100,125.0
925,E4,92.017,0.25,100,125.0
926,F4,92.233,0.25,100,125.0
927,F4,92.267,0.25,100,125.0
928,G4,92.483,0.25,100,125.0
929,D2,92.5,0.25,100,125.0
930,G4,92.517,0.25,100,125.0
931,G4,93.0,0.5,100,125.0
932,C#5,93.0,1.0,100,125.0
933,E-2,93.0,0.25,100,125.0
934,E2,93.0,0.25,100,125.0
935,B-2,93.0,0.25,100,125.0
936,E4,93.233,0.25,100,125.0
937,E-2,93.25,0.25,100,125.0
938,E4,93.267,0.25,100,125.0
939,F4,93.483,0.25,100,125.0
940,F4,93.517,0.25,100,125.0
941,E4,93.733,0.25,100,125.0
942,E4,93.767,0.25,100,125.0
943,E-4,93.983,0.25,100,125.0
944,B1,94.0,0.25,100,125.0
945,B-2,94.0,0.25,100,125.0
946,E-4,94.017,0.25,100,125.0
947,D4,94.233,0.25,100,125.0
948,D4,94.267,0.25,100,125.0
949,C#4,94.483,0.25,100,125.0
950,C#4,94.517,0.25,100,125.0
951,D4,94.733,0.25,100,125.0
952,D4,94.767,0.25,100,125.0
953,E-4,94.983,0.25,100,125.0
954,B-2,95.0,0.25,100,125.0
955,E2,95.0,0.25,100,125.0
956,E-4,95.017,0.25,100,125.0
957,E4,95.233,0.25,100,125.0
958,E4,95.267,0.25,100,125.0
959,F#4,95.483,0.25,100,125.0
960,G#1,95.5,0.25,100,125.0
961,F#4,95.517,0.25,100,125.0
962,E4,95.733,0.25,100,125.0
963,A1,95.75,0.25,100,125.0
964,E4,95.767,233/1000,100,125.0
965,E4,96.0,17/1000,100,125.0
966,G#4,96.0,1.0,100,125.0
967,B-1,96.0,1.0,100,125.0
968,B1,96.0,0.5,100,125.0
969,B-2,96.0,0.25,100,125.0
970,G#3,96.017,1.0,100,125.0
971,F4,96.233,0.25,100,125.0
972,F4,96.267,0.25,100,125.0
973,E4,96.733,0.25,100,125.0
974,E4,96.767,0.25,100,125.0
975,F4,96.983,0.25,100,125.0
976,G4,97.0,1.0,100,125.0
977,E-2,97.0,1.0,100,125.0
978,E2,97.0,0.5,100,125.0
979,B-2,97.0,0.25,100,125.0
980,F4,97.017,0.25,100,125.0
981,G3,97.017,1.0,100,125.0
982,F4,97.233,0.25,100,125.0
983,F4,97.267,0.25,100,125.0
984,E4,97.733,0.25,100,125.0
985,E4,97.767,0.25,100,125.0
986,F4,97.983,0.25,100,125.0
987,F#4,98.0,1.0,100,125.0
988,G#1,98.0,1.0,100,125.0
989,B1,98.0,0.5,100,125.0
990,B-2,98.0,0.25,100,125.0
991,F4,98.017,0.25,100,125.0
992,F#3,98.017,1.0,100,125.0
993,E4,98.233,0.25,100,125.0
994,E4,98.267,0.25,100,125.0
995,E-4,98.483,0.25,100,125.0
996,E-4,98.517,0.25,100,125.0
997,D4,98.733,0.25,100,125.0
998,D4,98.767,0.25,100,125.0
999,F4,99.0,1.0,100,125.0
1000,G1,99.0,1.0,100,125.0
1001,E2,99.0,0.5,100,125.0
1002,B-2,99.0,0.25,100,125.0
1003,F3,99.017,983/1000,100,125.0
1004,E-4,99.233,0.25,100,125.0
1005,E-4,99.267,0.25,100,125.0
1006,E4,99.483,0.25,100,125.0
1007,E4,99.517,0.25,100,125.0
1008,F4,99.733,0.25,100,125.0
1009,F4,99.767,233/1000,100,125.0
1010,G4,99.983,17/1000,100,125.0
1011,G4,100.0,233/1000,100,125.0
1012,F4,100.0,17/1000,100,125.0
1013,E4,100.0,1.0,100,125.0
1014,F3,100.0,17/1000,100,125.0
1015,F#1,100.0,1.0,100,125.0
1016,B1,100.0,0.25,100,125.0
1017,B-2,100.0,0.25,100,125.0
1018,G4,100.017,0.25,100,125.0
1019,E3,100.017,1.0,100,125.0
1020,F#4,100.483,0.25,100,125.0
1021,F#4,100.517,0.25,100,125.0
1022,F4,100.733,0.25,100,125.0
1023,F4,100.767,0.25,100,125.0
1024,E4,100.983,0.25,100,125.0
1025,E-4,101.0,1.0,100,125.0
1026,F1,101.0,1.0,100,125.0
1027,E2,101.0,0.25,100,125.0
1028,B-2,101.0,0.25,100,125.0
1029,E4,101.017,0.25,100,125.0
1030,E-3,101.017,1.0,100,125.0
1031,E-4,101.233,0.25,100,125.0
1032,E-4,101.267,0.25,100,125.0
1033,D4,101.483,0.25,100,125.0
1034,D4,101.517,0.25,100,125.0
1035,C#4,101.733,0.25,100,125.0
1036,C#4,101.767,0.25,100,125.0
1037,C4,101.983,0.25,100,125.0
1038,D4,102.0,2.0,100,125.0
1039,E1,102.0,2.0,100,125.0
1040,F#5,102.0,2.0,100,125.0
1041,E-5,102.0,2.0,100,125.0
1042,C5,102.0,2.0,100,125.0
1043,B1,102.0,0.25,100,125.0
1044,B-2,102.0,0.25,100,125.0
1045,C4,102.017,0.25,100,125.0
1046,E-3,102.017,1983/1000,100,125.0
1047,C4,102.233,0.25,100,125.0
1048,C4,102.267,0.25,100,125.0
1049,B3,102.733,0.25,100,125.0
1050,B3,102.767,0.25,100,125.0
1051,C4,102.983,0.25,100,125.0
1052,B-2,103.0,0.25,100,125.0
1053,E2,103.0,0.25,100,125.0
1054,A1,103.0,0.25,100,125.0
1055,C4,103.017,0.25,100,125.0
1056,C4,103.233,0.25,100,125.0
1057,C4,103.267,0.25,100,125.0
1058,A1,103.5,0.25,100,125.0
1059,B3,103.733,0.25,100,125.0
1060,A1,103.75,0.25,100,125.0
1061,B3,103.767,233/1000,100,125.0
1062,C4,103.983,17/1000,100,125.0
1063,C4,104.0,233/1000,100,125.0
1064,B3,104.0,17/1000,100,125.0
1065,D4,104.0,4.0,100,125.0
1066,E-3,104.0,4.0,100,125.0
1067,E1,104.0,4.0,100,125.0
1068,F#5,104.0,4.0,100,125.0
1069,E-5,104.0,4.0,100,125.0
1070,C5,104.0,4.0,100,125.0
1071,B-2,104.0,0.25,100,125.0
1072,A1,104.0,0.25,100,125.0
1073,C4,104.017,0.25,100,125.0
1074,C4,104.233,0.25,100,125.0
1075,C4,104.267,0.25,100,125.0
1076,A1,104.5,0.25,100,125.0
1077,B3,104.733,0.25,100,125.0
1078,A1,104.75,0.25,100,125.0
1079,B3,104.767,0.25,100,125.0
1080,C4,104.983,0.25,100,125.0
1081,E2,105.0,0.5,100,125.0
1082,B-2,105.0,0.25,100,125.0
1083,C4,105.017,0.25,100,125.0
1084,C4,105.233,0.25,100,125.0
1085,A1,105.25,0.25,100,125.0
1086,C4,105.267,0.25,100,125.0
1087,B3,105.733,0.25,100,125.0
1088,A1,105.75,0.25,100,125.0
1089,B3,105.767,0.25,100,125.0
1090,C4,105.983,0.25,100,125.0
1091,B-2,106.0,0.25,100,125.0
1092,C4,106.017,0.25,100,125.0
1093,C4,106.233,0.25,100,125.0
1094,A1,106.25,0.25,100,125.0
1095,C4,106.267,0.25,100,125.0
1096,A1,106.5,0.25,100,125.0
1097,B3,106.733,0.25,100,125.0
1098,B3,106.767,0.25,100,125.0
1099,C4,106.983,0.25,100,125.0
1100,E2,107.0,0.5,100,125.0
1101,B-2,107.0,0.25,100,125.0
1102,A1,107.0,0.25,100,125.0
1103,C4,107.017,0.25,100,125.0
1104,C4,107.233,0.25,100,125.0
1105,A1,107.25,0.25,100,125.0
1106,C4,107.267,0.25,100,125.0
1107,A1,107.5,0.25,100,125.0
1108,B3,107.733,0.25,100,125.0
1109,B3,107.767,233/1000,100,125.0
1110,C4,107.983,17/1000,100,125.0
1111,C4,108.0,1483/1000,100,125.0
1112,B3,108.0,17/1000,100,125.0
1113,E-3,108.0,1017/1000,100,125.0
1114,E1,108.0,2.0,100,125.0
1115,B-2,108.0,0.25,100,125.0
1116,A1,108.0,0.125,100,125.0
1117,C4,108.017,1983/1000,100,125.0
1118,A1,108.125,0.125,100,125.0
1119,A1,108.25,0.125,100,125.0
1120,A1,108.375,0.125,100,125.0
1121,A1,108.5,0.25,100,125.0
1122,E2,108.75,0.25,100,125.0
1123,A1,108.75,0.25,100,125.0
1124,D2,109.0,0.25,100,125.0
1125,C4,109.233,0.25,100,125.0
1126,A1,109.25,0.25,100,125.0
1127,C4,109.267,0.25,100,125.0
1128,A1,109.5,0.25,100,125.0
1129,C4,109.733,0.25,100,125.0
1130,C2,109.75,0.25,100,125.0
1131,B1,109.75,0.25,100,125.0
1132,C4,109.767,233/1000,100,125.0
1133,C4,110.0,17/1000,100,125.0
1134,C4,110.0,17/1000,100,125.0
1135,F4,110.0,0.5,100,125.0
1136,F#5,110.0,2.0,100,125.0
1137,E-5,110.0,2.0,100,125.0
1138,C5,110.0,2.0,100,125.0
1139,B1,110.0,0.25,100,125.0
1140,B-2,110.0,0.25,100,125.0
1141,C4,110.233,0.25,100,125.0
1142,C2,110.25,0.25,100,125.0
1143,C4,110.267,0.25,100,125.0
1144,F#3,110.483,0.5,100,125.0
1145,F#1,110.5,0.5,100,125.0
1146,B3,110.5,0.25,100,125.0
1147,F4,110.5,0.5,100,125.0
1148,F#3,110.517,0.5,100,125.0
1149,A3,110.983,0.75,100,125.0
1150,A1,111.0,0.5,100,125.0
1151,E2,111.0,0.25,100,125.0
1152,B-2,111.0,0.25,100,125.0
1153,A3,111.017,0.75,100,125.0
1154,B3,111.5,0.25,100,125.0
1155,C4,111.733,0.25,100,125.0
1156,C4,111.767,0.25,100,125.0
1157,A3,111.983,1.25,100,125.0
1158,A4,112.0,2.0,100,125.0
1159,E4,112.0,2.0,100,125.0
1160,B1,112.0,0.25,100,125.0
1161,B-2,112.0,0.25,100,125.0
1162,A1,112.0,0.25,100,125.0
1163,A3,112.017,1.25,100,125.0
1164,E3,112.017,1983/1000,100,125.0
1165,A2,112.017,1983/1000,100,125.0
1166,A3,112.017,1983/1000,100,125.0
1167,B1,112.5,0.25,100,125.0
1168,B3,112.5,0.25,100,125.0
1169,A1,112.5,0.25,100,125.0
1170,A1,112.75,0.25,100,125.0
1171,E2,113.0,0.25,100,125.0
1172,B-2,113.0,0.25,100,125.0
1173,A1,113.0,0.25,100,125.0
1174,C4,113.233,0.25,100,125.0
1175,C4,113.267,0.25,100,125.0
1176,B3,113.5,0.25,100,125.0
1177,A1,113.5,0.25,100,125.0
1178,C4,113.733,0.25,100,125.0
1179,C2,113.75,0.25,100,125.0
1180,B1,113.75,0.25,100,125.0
1181,A1,113.75,0.25,100,125.0
1182,C4,113.767,233/1000,100,125.0
1183,C4,114.0,17/1000,100,125.0
1184,E3,114.0,17/1000,100,125.0
1185,A2,114.0,17/1000,100,125.0
1186,A3,114.0,17/1000,100,125.0
1187,B1,114.0,0.25,100,125.0
1188,B-2,114.0,0.25,100,125.0
1189,A1,114.0,0.25,100,125.0
1190,C4,114.233,0.25,100,125.0
1191,C2,114.25,0.25,100,125.0
1192,C4,114.267,0.25,100,125.0
1193,F#3,114.483,0.5,100,125.0
1194,F#1,114.5,0.5,100,125.0
1195,B3,114.5,0.25,100,125.0
1196,A1,114.5,0.25,100,125.0
1197,F#3,114.517,0.5,100,125.0
1198,A1,114.75,0.25,100,125.0
1199,A3,114.983,0.5,100,125.0
1200,A1,115.0,0.5,100,125.0
1201,E2,115.0,0.25,100,125.0
1202,B-2,115.0,0.25,100,125.0
1203,A1,115.0,0.25,100,125.0
1204,A3,115.017,0.5,100,125.0
1205,A3,115.483,0.5,100,125.0
1206,B3,115.5,0.25,100,125.0
1207,A1,115.5,0.25,100,125.0
1208,A3,115.517,0.5,100,125.0
1209,A1,115.75,0.25,100,125.0
1210,D4,115.983,0.25,100,125.0
1211,E4,116.0,2.0,100,125.0
1212,C5,116.0,2.0,100,125.0
1213,A4,116.0,2.0,100,125.0
1214,B1,116.0,0.25,100,125.0
1215,B-2,116.0,0.25,100,125.0
1216,A1,116.0,0.25,100,125.0
1217,D4,116.017,0.25,100,125.0
1218,E-4,116.233,0.25,100,125.0
1219,E-4,116.267,0.25,100,125.0
1220,E4,116.483,0.25,100,125.0
1221,B1,116.5,0.25,100,125.0
1222,B3,116.5,0.25,100,125.0
1223,A1,116.5,0.25,100,125.0
1224,E4,116.517,0.25,100,125.0
1225,A1,116.75,0.25,100,125.0
1226,E2,117.0,0.25,100,125.0
1227,B-2,117.0,0.25,100,125.0
1228,A1,117.0,0.25,100,125.0
1229,E-4,117.233,0.25,100,125.0
1230,B1,117.25,0.25,100,125.0
1231,E-4,117.267,0.25,100,125.0
1232,D4,117.483,0.25,100,125.0
1233,B3,117.5,0.25,100,125.0
1234,A1,117.5,0.25,100,125.0
1235,D4,117.517,0.25,100,125.0
1236,C4,117.733,0.25,100,125.0
1237,C2,117.75,0.25,100,125.0
1238,B1,117.75,0.25,100,125.0
1239,A1,117.75,0.25,100,125.0
1240,C4,117.767,233/1000,100,125.0
1241,C4,118.0,17/1000,100,125.0
1242,B1,118.0,0.25,100,125.0
1243,B-2,118.0,0.25,100,125.0
1244,A1,118.0,0.25,100,125.0
1245,C4,118.233,0.25,100,125.0
1246,C2,118.25,0.25,100,125.0
1247,C4,118.267,0.25,100,125.0
1248,F#3,118.483,0.5,100,125.0
1249,F#1,118.5,0.5,100,125.0
1250,B3,118.5,0.25,100,125.0
1251,A1,118.5,0.25,100,125.0
1252,F#3,118.517,0.5,100,125.0
1253,A1,118.75,0.25,100,125.0
1254,A3,118.983,1.0,100,125.0
1255,A1,119.0,1.0,100,125.0
1256,A4,119.0,1.0,100,125.0
1257,C5,119.0,1.0,100,125.0
1258,E2,119.0,0.25,100,125.0
1259,B-2,119.0,0.25,100,125.0
1260,A1,119.0,0.25,100,125.0
1261,A3,119.017,1.0,100,125.0
1262,B3,119.5,0.25,100,125.0
1263,A1,119.5,0.25,100,125.0
1264,A1,119.75,0.25,100,125.0
1265,C4,119.983,1.0,100,125.0
1266,G#1,120.0,1.0,100,125.0
1267,C5,120.0,1.0,100,125.0
1268,E5,120.0,1.0,100,125.0
1269,B1,120.0,0.25,100,125.0
1270,B-2,120.0,0.25,100,125.0
1271,A1,120.0,0.25,100,125.0
1272,C4,120.017,1.0,100,125.0
1273,B3,120.5,0.25,100,125.0
1274,A1,120.5,0.25,100,125.0
1275,A1,120.75,0.25,100,125.0
1276,E4,120.983,1.0,100,125.0
1277,G1,121.0,1.0,100,125.0
1278,G5,121.0,1.0,100,125.0
1279,E5,121.0,1.0,100,125.0
1280,B1,121.0,0.25,100,125.0
1281,E2,121.0,0.25,100,125.0
1282,B-2,121.0,0.25,100,125.0
1283,A1,121.0,0.25,100,125.0
1284,E4,121.017,983/1000,100,125.0
1285,B3,121.5,0.25,100,125.0
1286,A1,121.5,0.25,100,125.0
1287,A1,121.75,0.25,100,125.0
1288,F4,121.983,17/1000,100,125.0
1289,F4,122.0,983/1000,100,125.0
1290,E4,122.0,17/1000,100,125.0
1291,F#1,122.0,1.0,100,125.0
1292,D5,122.0,1.0,100,125.0
1293,F5,122.0,1.0,100,125.0
1294,B-2,122.0,0.25,100,125.0
1295,B1,122.0,0.25,100,125.0
1296,A1,122.0,0.25,100,125.0
1297,F4,122.017,1.0,100,125.0
1298,B3,122.5,0.25,100,125.0
1299,A1,122.5,0.25,100,125.0
1300,A1,122.75,0.25,100,125.0
1301,D4,122.983,0.125,100,125.0
1302,F1,123.0,1.0,100,125.0
1303,C5,123.0,1.0,100,125.0
1304,E-5,123.0,1.0,100,125.0
1305,E2,123.0,0.25,100,125.0
1306,B-2,123.0,0.25,100,125.0
1307,B1,123.0,0.25,100,125.0
1308,A1,123.0,0.25,100,125.0
1309,D4,123.017,0.125,100,125.0
1310,E4,123.108,0.125,100,125.0
1311,E4,123.142,0.125,100,125.0
1312,D4,123.233,0.125,100,125.0
1313,D4,123.267,0.125,100,125.0
1314,C4,123.358,0.125,100,125.0
1315,C4,123.392,0.125,100,125.0
1316,C4,123.483,1.5,100,125.0
1317,B3,123.5,0.25,100,125.0
1318,A1,123.5,0.25,100,125.0
1319,C4,123.517,1.5,100,125.0
1320,A1,123.75,0.25,100,125.0
1321,E1,124.0,1.5,100,125.0
1322,A4,124.0,2.0,100,125.0
1323,C5,124.0,2.0,100,125.0
1324,B-2,124.0,0.25,100,125.0
1325,B1,124.0,0.25,100,125.0
1326,F4,124.0,0.25,100,125.0
1327,A1,124.0,0.25,100,125.0
1328,G2,124.25,0.125,100,125.0
1329,G2,124.375,0.125,100,125.0
1330,A2,124.5,0.125,100,125.0
1331,B3,124.5,0.25,100,125.0
1332,F4,124.5,0.25,100,125.0
1333,A1,124.5,0.25,100,125.0
1334,A2,124.625,0.125,100,125.0
1335,E2,124.75,0.125,100,125.0
1336,F4,124.75,0.25,100,125.0
1337,A1,124.75,0.25,100,125.0
1338,E2,124.875,0.125,100,125.0
1339,D2,125.0,0.25,100,125.0
1340,A1,125.0,0.25,100,125.0
1341,C4,125.233,0.25,100,125.0
1342,G#2,125.25,0.25,100,125.0
1343,F4,125.25,0.25,100,125.0
1344,C4,125.267,0.25,100,125.0
1345,F#2,125.5,0.25,100,125.0
1346,F4,125.5,0.25,100,125.0
1347,A1,125.5,0.25,100,125.0
1348,C4,125.733,0.25,100,125.0
1349,C2,125.75,0.25,100,125.0
1350,B-2,125.75,0.25,100,125.0
1351,A1,125.75,0.25,100,125.0
1352,C4,125.767,233/1000,100,125.0
1353,C4,126.0,17/1000,100,125.0
1354,C#3,126.0,0.25,100,125.0
1355,B1,126.0,0.25,100,125.0
1356,G#2,126.0,0.25,100,125.0
1357,A1,126.0,0.25,100,125.0
1358,C4,126.233,0.25,100,125.0
1359,C2,126.25,0.25,100,125.0
1360,C4,126.267,0.25,100,125.0
1361,F#3,126.483,0.5,100,125.0
1362,F#1,126.5,0.5,100,125.0
1363,A1,126.5,0.25,100,125.0
1364,F#3,126.517,0.5,100,125.0
1365,A1,126.75,0.25,100,125.0
1366,A3,126.983,0.75,100,125.0
1367,A1,127.0,0.5,100,125.0
1368,E2,127.0,0.25,100,125.0
1369,F3,127.0,0.25,100,125.0
1370,A1,127.0,0.25,100,125.0
1371,A3,127.017,0.75,100,125.0
1372,G#2,127.5,0.25,100,125.0
1373,A1,127.5,0.25,100,125.0
1374,C4,127.733,0.25,100,125.0
1375,A1,127.75,0.25,100,125.0
1376,C4,127.767,0.25,100,125.0
1377,A3,127.983,1.25,100,125.0
1378,A4,128.0,2.0,100,125.0
1379,E4,128.0,2.0,100,125.0
1380,B1,128.0,0.25,100,125.0
1381,F3,128.0,0.25,100,125.0
1382,A1,128.0,0.25,100,125.0
1383,A3,128.017,1.25,100,125.0
1384,A3,128.017,1983/1000,100,125.0
1385,E3,128.017,1983/1000,100,125.0
1386,A2,128.017,1983/1000,100,125.0
1387,G#2,128.5,0.25,100,125.0
1388,A1,128.5,0.25,100,125.0
1389,A1,128.75,0.25,100,125.0
1390,C#3,129.0,0.25,100,125.0
1391,E2,129.0,0.25,100,125.0
1392,F3,129.0,0.25,100,125.0
1393,A1,129.0,0.25,100,125.0
1394,C4,129.233,0.25,100,125.0
1395,C4,129.267,0.25,100,125.0
1396,G#2,129.5,0.25,100,125.0
1397,A1,129.5,0.25,100,125.0
1398,C4,129.733,0.25,100,125.0
1399,C2,129.75,0.25,100,125.0
1400,B1,129.75,0.25,100,125.0
1401,B-2,129.75,0.25,100,125.0
1402,A1,129.75,0.25,100,125.0
1403,C4,129.767,233/1000,100,125.0
1404,C4,130.0,17/1000,100,125.0
1405,A3,130.0,17/1000,100,125.0
1406,E3,130.0,17/1000,100,125.0
1407,A2,130.0,17/1000,100,125.0
1408,F3,130.0,0.25,100,125.0
1409,B1,130.0,0.25,100,125.0
1410,G#2,130.0,0.25,100,125.0
1411,A1,130.0,0.25,100,125.0
1412,C4,130.233,0.25,100,125.0
1413,C2,130.25,0.25,100,125.0
1414,C4,130.267,0.25,100,125.0
1415,F#3,130.483,0.5,100,125.0
1416,F#1,130.5,0.5,100,125.0
1417,A1,130.5,0.25,100,125.0
1418,F#3,130.517,0.5,100,125.0
1419,A1,130.75,0.25,100,125.0
1420,A3,130.983,0.5,100,125.0
1421,A1,131.0,0.5,100,125.0
1422,E2,131.0,0.25,100,125.0
1423,F3,131.0,0.25,100,125.0
1424,A1,131.0,0.25,100,125.0
1425,A3,131.017,0.5,100,125.0
1426,A3,131.483,0.5,100,125.0
1427,G#2,131.5,0.25,100,125.0
1428,A1,131.5,0.25,100,125.0
1429,A3,131.517,0.5,100,125.0
1430,A1,131.75,0.25,100,125.0
1431,D4,131.983,0.25,100,125.0
1432,E4,132.0,2.0,100,125.0
1433,C5,132.0,2.0,100,125.0
1434,A4,132.0,2.0,100,125.0
1435,B1,132.0,0.25,100,125.0
1436,F3,132.0,0.25,100,125.0
1437,A1,132.0,0.25,100,125.0
1438,D4,132.017,0.25,100,125.0
1439,E-4,132.233,0.25,100,125.0
1440,E-4,132.267,0.25,100,125.0
1441,E4,132.483,0.25,100,125.0
1442,G#2,132.5,0.25,100,125.0
1443,A1,132.5,0.25,100,125.0
1444,E4,132.517,0.25,100,125.0
1445,A1,132.75,0.25,100,125.0
1446,E2,133.0,0.25,100,125.0
1447,F3,133.0,0.25,100,125.0
1448,A1,133.0,0.25,100,125.0
1449,E-4,133.233,0.25,100,125.0
1450,E-4,133.267,0.25,100,125.0
1451,D4,133.483,0.25,100,125.0
1452,G#2,133.5,0.25,100,125.0
1453,A1,133.5,0.25,100,125.0
1454,D4,133.517,0.25,100,125.0
1455,C4,133.733,0.25,100,125.0
1456,C2,133.75,0.25,100,125.0
1457,B1,133.75,0.25,100,125.0
1458,B-2,133.75,0.25,100,125.0
1459,A1,133.75,0.25,100,125.0
1460,C4,133.767,233/1000,100,125.0
1461,C4,134.0,17/1000,100,125.0
1462,F3,134.0,0.25,100,125.0
1463,B1,134.0,0.25,100,125.0
1464,G#2,134.0,0.25,100,125.0
1465,A1,134.0,0.25,100,125.0
1466,C4,134.233,0.25,100,125.0
1467,C2,134.25,0.25,100,125.0
1468,C4,134.267,0.25,100,125.0
1469,F#3,134.483,0.5,100,125.0
1470,F#1,134.5,0.5,100,125.0
1471,A1,134.5,0.25,100,125.0
1472,F#3,134.517,0.5,100,125.0
1473,A1,134.75,0.25,100,125.0
1474,A3,134.983,1.0,100,125.0
1475,A1,135.0,1.0,100,125.0
1476,A4,135.0,1.0,100,125.0
1477,C5,135.0,1.0,100,125.0
1478,E2,135.0,0.25,100,125.0
1479,F3,135.0,0.25,100,125.0
1480,A1,135.0,0.25,100,125.0
1481,A3,135.017,1.0,100,125.0
1482,G#2,135.5,0.25,100,125.0
1483,A1,135.5,0.25,100,125.0
1484,A1,135.75,0.25,100,125.0
1485,C4,135.983,1.0,100,125.0
1486,G#1,136.0,1.0,100,125.0
1487,C5,136.0,1.0,100,125.0
1488,E5,136.0,1.0,100,125.0
1489,B1,136.0,0.25,100,125.0
1490,F3,136.0,0.25,100,125.0
1491,A1,136.0,0.25,100,125.0
1492,C4,136.017,1.0,100,125.0
1493,G#2,136.5,0.25,100,125.0
1494,A1,136.5,0.25,100,125.0
1495,A1,136.75,0.25,100,125.0
1496,E4,136.983,1.0,100,125.0
1497,G1,137.0,1.0,100,125.0
1498,G5,137.0,1.0,100,125.0
1499,E5,137.0,1.0,100,125.0
1500,E2,137.0,0.25,100,125.0
1501,F3,137.0,0.25,100,125.0
1502,A1,137.0,0.25,100,125.0
1503,E4,137.017,983/1000,100,125.0
1504,G#2,137.5,0.25,100,125.0
1505,A1,137.5,0.25,100,125.0
1506,B1,137.75,0.25,100,125.0
1507,A1,137.75,0.25,100,125.0
1508,F4,137.983,17/1000,100,125.0
1509,F4,138.0,983/1000,100,125.0
1510,E4,138.0,17/1000,100,125.0
1511,F#1,138.0,1.0,100,125.0
1512,D5,138.0,1.0,100,125.0
1513,F5,138.0,1.0,100,125.0
1514,F3,138.0,0.25,100,125.0
1515,B1,138.0,0.25,100,125.0
1516,G#2,138.0,0.25,100,125.0
1517,A1,138.0,0.25,100,125.0
1518,F4,138.017,1.0,100,125.0
1519,A1,138.5,0.25,100,125.0
1520,A1,138.75,0.25,100,125.0
1521,D4,138.983,0.125,100,125.0
1522,F1,139.0,1.0,100,125.0
1523,C5,139.0,1.0,100,125.0
1524,E-5,139.0,1.0,100,125.0
1525,E2,139.0,0.25,100,125.0
1526,F3,139.0,0.25,100,125.0
1527,A1,139.0,0.25,100,125.0
1528,D4,139.017,0.125,100,125.0
1529,E4,139.108,0.125,100,125.0
1530,E4,139.142,0.125,100,125.0
1531,D4,139.233,0.125,100,125.0
1532,D4,139.267,0.125,100,125.0
1533,C4,139.358,0.125,100,125.0
1534,C4,139.392,0.125,100,125.0
1535,C4,139.483,1.5,100,125.0
1536,G#2,139.5,0.25,100,125.0
1537,A1,139.5,0.25,100,125.0
1538,C4,139.517,1.5,100,125.0
1539,A1,139.75,0.25,100,125.0
1540,E1,140.0,1.5,100,125.0
1541,A4,140.0,2.0,100,125.0
1542,C5,140.0,2.0,100,125.0
1543,B1,140.0,0.25,100,125.0
1544,F3,140.0,0.25,100,125.0
1545,A1,140.0,0.25,100,125.0
1546,F4,140.5,0.125,100,125.0
1547,G#2,140.5,0.25,100,125.0
1548,A1,140.5,0.25,100,125.0
1549,F4,140.625,0.125,100,125.0
1550,F4,140.75,0.125,100,125.0
1551,E2,140.75,0.25,100,125.0
1552,A1,140.75,0.25,100,125.0
1553,E-4,140.983,0.25,100,125.0
1554,E2,141.0,0.25,100,125.0
1555,F3,141.0,0.25,100,125.0
1556,A1,141.0,0.25,100,125.0
1557,E-4,141.017,0.25,100,125.0
1558,E-4,141.233,0.25,100,125.0
1559,F4,141.25,0.25,100,125.0
1560,E-4,141.267,0.25,100,125.0
1561,E-4,141.483,0.25,100,125.0
1562,G#2,141.5,0.25,100,125.0
1563,A1,141.5,0.25,100,125.0
1564,E-4,141.517,0.25,100,125.0
1565,E-4,141.733,0.25,100,125.0
1566,B1,141.75,0.25,100,125.0
1567,B-2,141.75,0.25,100,125.0
1568,F4,141.75,0.25,100,125.0
1569,A1,141.75,0.25,100,125.0
1570,E-4,141.767,233/1000,100,125.0
1571,E-4,142.0,17/1000,100,125.0
1572,F1,142.0,1.0,100,125.0
1573,C4,142.0,1.0,100,125.0
1574,A4,142.0,1.0,100,125.0
1575,A3,142.0,0.25,100,125.0
1576,B1,142.0,0.25,100,125.0
1577,G#2,142.0,0.25,100,125.0
1578,A1,142.0,0.25,100,125.0
1579,E-4,142.233,0.25,100,125.0
1580,E-4,142.267,0.25,100,125.0
1581,A3,142.483,0.25,100,125.0
1582,A1,142.5,0.25,100,125.0
1583,A3,142.517,0.25,100,125.0
1584,A1,142.75,0.25,100,125.0
1585,C4,142.983,0.5,100,125.0
1586,F#1,143.0,1.0,100,125.0
1587,C#4,143.0,1.0,100,125.0
1588,B-4,143.0,1.0,100,125.0
1589,E2,143.0,0.25,100,125.0
1590,F3,143.0,0.25,100,125.0
1591,A1,143.0,0.25,100,125.0
1592,C4,143.017,0.5,100,125.0
1593,C4,143.483,0.25,100,125.0
1594,G#2,143.5,0.25,100,125.0
1595,A1,143.5,0.25,100,125.0
1596,C4,143.517,0.25,100,125.0
1597,E-4,143.733,0.25,100,125.0
1598,A1,143.75,0.25,100,125.0
1599,E-4,143.767,0.25,100,125.0
1600,G1,144.0,1.0,100,125.0
1601,D4,144.0,1.0,100,125.0
1602,B4,144.0,1.0,100,125.0
1603,B1,144.0,0.25,100,125.0
1604,F3,144.0,0.25,100,125.0
1605,A1,144.0,0.25,100,125.0
1606,G#2,144.5,0.25,100,125.0
1607,A1,144.5,0.25,100,125.0
1608,A1,144.75,0.25,100,125.0
1609,F#4,144.983,0.125,100,125.0
1610,G#1,145.0,1.0,100,125.0
1611,E-4,145.0,1.0,100,125.0
1612,C5,145.0,1.0,100,125.0
1613,E2,145.0,0.25,100,125.0
1614,F3,145.0,0.25,100,125.0
1615,A1,145.0,0.25,100,125.0
1616,F#4,145.017,0.125,100,125.0
1617,E4,145.108,0.125,100,125.0
1618,E4,145.142,0.125,100,125.0
1619,E-4,145.233,0.25,100,125.0
1620,E-4,145.267,0.25,100,125.0
1621,F#4,145.483,0.25,100,125.0
1622,G#2,145.5,0.25,100,125.0
1623,A1,145.5,0.25,100,125.0
1624,F#4,145.517,0.25,100,125.0
1625,E-4,145.733,0.25,100,125.0
1626,B1,145.75,0.25,100,125.0
1627,A1,145.75,0.25,100,125.0
1628,E-4,145.767,233/1000,100,125.0
1629,E-4,146.0,17/1000,100,125.0
1630,F1,146.0,1.0,100,125.0
1631,C4,146.0,1.0,100,125.0
1632,A4,146.0,1.0,100,125.0
1633,F3,146.0,0.25,100,125.0
1634,B1,146.0,0.25,100,125.0
1635,G#2,146.0,0.25,100,125.0
1636,A1,146.0,0.25,100,125.0
1637,A3,146.233,0.25,100,125.0
1638,A3,146.267,0.25,100,125.0
1639,A1,146.5,0.25,100,125.0
1640,A1,146.75,0.25,100,125.0
1641,C4,146.983,0.25,100,125.0
1642,F#1,147.0,1.0,100,125.0
1643,C#4,147.0,1.0,100,125.0
1644,B-4,147.0,1.0,100,125.0
1645,E2,147.0,0.25,100,125.0
1646,F3,147.0,0.25,100,125.0
1647,A1,147.0,0.25,100,125.0
1648,C4,147.017,0.25,100,125.0
1649,C4,147.233,0.25,100,125.0
1650,C4,147.267,0.25,100,125.0
1651,C4,147.483,0.5,100,125.0
1652,G#2,147.5,0.25,100,125.0
1653,A1,147.5,0.25,100,125.0
1654,C4,147.517,0.5,100,125.0
1655,A1,147.75,0.25,100,125.0
1656,G1,148.0,1.0,100,125.0
1657,D4,148.0,1.0,100,125.0
1658,B4,148.0,1.0,100,125.0
1659,B1,148.0,0.25,100,125.0
1660,F3,148.0,0.25,100,125.0
1661,A1,148.0,0.25,100,125.0
1662,G#2,148.5,0.25,100,125.0
1663,A1,148.5,0.25,100,125.0
1664,A1,148.75,0.25,100,125.0
1665,E-4,148.983,0.25,100,125.0
1666,E-4,149.0,1.0,100,125.0
1667,C5,149.0,1.0,100,125.0
1668,E2,149.0,0.25,100,125.0
1669,F3,149.0,0.25,100,125.0
1670,A1,149.0,0.25,100,125.0
1671,E-4,149.017,0.25,100,125.0
1672,E-4,149.233,0.25,100,125.0
1673,G#1,149.25,0.25,100,125.0
1674,B1,149.25,0.25,100,125.0
1675,B-2,149.25,0.25,100,125.0
1676,E-4,149.267,0.25,100,125.0
1677,E-4,149.483,0.25,100,125.0
1678,G#2,149.5,0.25,100,125.0
1679,A1,149.5,0.25,100,125.0
1680,E-4,149.517,0.25,100,125.0
1681,E-4,149.733,0.25,100,125.0
1682,G#1,149.75,0.25,100,125.0
1683,B1,149.75,0.25,100,125.0
1684,B-2,149.75,0.25,100,125.0
1685,A1,149.75,0.25,100,125.0
1686,E-4,149.767,233/1000,100,125.0
1687,E-4,150.0,17/1000,100,125.0
1688,F1,150.0,1.0,100,125.0
1689,C4,150.0,1.0,100,125.0
1690,A4,150.0,1.0,100,125.0
1691,F3,150.0,0.25,100,125.0
1692,B1,150.0,0.25,100,125.0
1693,G#2,150.0,0.25,100,125.0
1694,A1,150.0,0.25,100,125.0
1695,A3,150.233,0.25,100,125.0
1696,A3,150.267,0.25,100,125.0
1697,A1,150.5,0.25,100,125.0
1698,A1,150.75,0.25,100,125.0
1699,C4,150.983,1.0,100,125.0
1700,F#1,151.0,1.0,100,125.0
1701,C#4,151.0,1.0,100,125.0
1702,B-4,151.0,1.0,100,125.0
1703,E2,151.0,0.25,100,125.0
1704,F3,151.0,0.25,100,125.0
1705,A1,151.0,0.25,100,125.0
1706,C4,151.017,1.0,100,125.0
1707,G#2,151.5,0.25,100,125.0
1708,A1,151.5,0.25,100,125.0
1709,A1,151.75,0.25,100,125.0
1710,E-4,151.983,1.0,100,125.0
1711,G1,152.0,1.0,100,125.0
1712,D4,152.0,1.0,100,125.0
1713,B4,152.0,1.0,100,125.0
1714,B1,152.0,0.25,100,125.0
1715,F3,152.0,0.25,100,125.0
1716,A1,152.0,0.25,100,125.0
1717,E-4,152.017,1.0,100,125.0
1718,G#2,152.5,0.25,100,125.0
1719,A1,152.5,0.25,100,125.0
1720,A1,152.75,0.25,100,125.0
1721,G4,152.983,1.0,100,125.0
1722,G#1,153.0,1.0,100,125.0
1723,E-4,153.0,1.0,100,125.0
1724,C5,153.0,1.0,100,125.0
1725,E2,153.0,0.25,100,125.0
1726,F3,153.0,0.25,100,125.0
1727,A1,153.0,0.25,100,125.0
1728,G4,153.017,983/1000,100,125.0
1729,G#2,153.5,0.25,100,125.0
1730,A1,153.5,0.25,100,125.0
1731,B1,153.75,0.25,100,125.0
1732,B-2,153.75,0.25,100,125.0
1733,A1,153.75,0.25,100,125.0
1734,G#4,153.983,17/1000,100,125.0
1735,G#4,154.0,983/1000,100,125.0
1736,G4,154.0,17/1000,100,125.0
1737,A1,154.0,1.0,100,125.0
1738,E4,154.0,1.0,100,125.0
1739,C#5,154.0,1.0,100,125.0
1740,F3,154.0,0.25,100,125.0
1741,B1,154.0,0.25,100,125.0
1742,G#2,154.0,0.25,100,125.0
1743,A1,154.0,0.25,100,125.0
1744,G#4,154.017,1.0,100,125.0
1745,A1,154.5,0.25,100,125.0
1746,A1,154.75,0.25,100,125.0
1747,F4,154.983,0.25,100,125.0
1748,B-1,155.0,1.0,100,125.0
1749,F4,155.0,1.0,100,125.0
1750,D5,155.0,1.0,100,125.0
1751,E2,155.0,0.25,100,125.0
1752,F3,155.0,0.25,100,125.0
1753,A1,155.0,0.25,100,125.0
1754,F4,155.017,0.25,100,125.0
1755,F#4,155.233,0.25,100,125.0
1756,F#4,155.267,0.25,100,125.0
1757,F4,155.483,0.25,100,125.0
1758,G#2,155.5,0.25,100,125.0
1759,A1,155.5,0.25,100,125.0
1760,F4,155.517,0.25,100,125.0
1761,E-4,155.733,1.5,100,125.0
1762,A1,155.75,0.25,100,125.0
1763,E-4,155.767,1.5,100,125.0
1764,F#4,156.0,1.0,100,125.0
1765,E-5,156.0,2.0,100,125.0
1766,B1,156.0,1.0,100,125.0
1767,F4,156.0,0.125,100,125.0
1768,B1,156.0,0.25,100,125.0
1769,F3,156.0,0.25,100,125.0
1770,A1,156.0,0.25,100,125.0
1771,F4,156.125,0.125,100,125.0
1772,F4,156.25,0.125,100,125.0
1773,F4,156.375,0.125,100,125.0
1774,G#2,156.5,0.25,100,125.0
1775,F4,156.5,0.25,100,125.0
1776,A1,156.5,0.25,100,125.0
1777,E2,156.75,0.25,100,125.0
1778,F4,156.75,0.25,100,125.0
1779,A1,156.75,0.25,100,125.0
1780,C2,157.0,1.0,100,125.0
1781,E2,157.0,0.25,100,125.0
1782,F3,157.0,0.25,100,125.0
1783,A1,157.0,0.25,100,125.0
1784,E-4,157.233,0.25,100,125.0
1785,F4,157.25,0.25,100,125.0
1786,E-4,157.267,0.25,100,125.0
1787,G#2,157.5,0.25,100,125.0
1788,F4,157.5,0.25,100,125.0
1789,A1,157.5,0.25,100,125.0
1790,E-4,157.733,0.25,100,125.0
1791,B1,157.75,0.25,100,125.0
1792,B-2,157.75,0.25,100,125.0
1793,F4,157.75,0.25,100,125.0
1794,A1,157.75,0.25,100,125.0
1795,E-4,157.767,233/1000,100,125.0
1796,E-4,158.0,17/1000,100,125.0
1797,F1,158.0,1.0,100,125.0
1798,C4,158.0,1.0,100,125.0
1799,A4,158.0,1.0,100,125.0
1800,C#3,158.0,0.25,100,125.0
1801,B1,158.0,0.25,100,125.0
1802,G#2,158.0,0.25,100,125.0
1803,A1,158.0,0.25,100,125.0
1804,E-4,158.233,0.25,100,125.0
1805,E-4,158.267,0.25,100,125.0
1806,A3,158.483,0.5,100,125.0
1807,A1,158.5,0.25,100,125.0
1808,A3,158.517,0.5,100,125.0
1809,A1,158.75,0.25,100,125.0
1810,C4,158.983,0.5,100,125.0
1811,F#1,159.0,1.0,100,125.0
1812,C#4,159.0,1.0,100,125.0
1813,B-4,159.0,1.0,100,125.0
1814,E2,159.0,0.25,100,125.0
1815,F3,159.0,0.25,100,125.0
1816,A1,159.0,0.25,100,125.0
1817,C4,159.017,0.5,100,125.0
1818,C4,159.483,0.25,100,125.0
1819,G#2,159.5,0.25,100,125.0
1820,A1,159.5,0.25,100,125.0
1821,C4,159.517,0.25,100,125.0
1822,E-4,159.733,0.25,100,125.0
1823,A1,159.75,0.25,100,125.0
1824,E-4,159.767,0.25,100,125.0
1825,G1,160.0,1.0,100,125.0
1826,D4,160.0,1.0,100,125.0
1827,B4,160.0,1.0,100,125.0
1828,B1,160.0,0.25,100,125.0
1829,F3,160.0,0.25,100,125.0
1830,A1,160.0,0.25,100,125.0
1831,G#2,160.5,0.25,100,125.0
1832,A1,160.5,0.25,100,125.0
1833,A1,160.75,0.25,100,125.0
1834,F#4,160.983,0.125,100,125.0
1835,G#1,161.0,1.0,100,125.0
1836,E-4,161.0,1.0,100,125.0
1837,C5,161.0,1.0,100,125.0
1838,C#3,161.0,0.25,100,125.0
1839,E2,161.0,0.25,100,125.0
1840,F3,161.0,0.25,100,125.0
1841,A1,161.0,0.25,100,125.0
1842,F#4,161.017,0.125,100,125.0
1843,E4,161.108,0.125,100,125.0
1844,E4,161.142,0.125,100,125.0
1845,E-4,161.233,0.25,100,125.0
1846,E-4,161.267,0.25,100,125.0
1847,F#4,161.483,0.25,100,125.0
1848,G#2,161.5,0.25,100,125.0
1849,A1,161.5,0.25,100,125.0
1850,F#4,161.517,0.25,100,125.0
1851,E-4,161.733,0.25,100,125.0
1852,B1,161.75,0.25,100,125.0
1853,B-2,161.75,0.25,100,125.0
1854,A1,161.75,0.25,100,125.0
1855,E-4,161.767,233/1000,100,125.0
1856,E-4,162.0,17/1000,100,125.0
1857,F1,162.0,1.0,100,125.0
1858,C4,162.0,1.0,100,125.0
1859,A4,162.0,1.0,100,125.0
1860,F3,162.0,0.25,100,125.0
1861,B1,162.0,0.25,100,125.0
1862,G#2,162.0,0.25,100,125.0
1863,A1,162.0,0.25,100,125.0
1864,A3,162.233,0.25,100,125.0
1865,A3,162.267,0.25,100,125.0
1866,A1,162.5,0.25,100,125.0
1867,A1,162.75,0.25,100,125.0
1868,C4,162.983,0.5,100,125.0
1869,F#1,163.0,1.0,100,125.0
1870,C#4,163.0,1.0,100,125.0
1871,B-4,163.0,1.0,100,125.0
1872,E2,163.0,0.25,100,125.0
1873,F3,163.0,0.25,100,125.0
1874,A1,163.0,0.25,100,125.0
1875,C4,163.017,0.5,100,125.0
1876,C4,163.483,0.5,100,125.0
1877,G#2,163.5,0.25,100,125.0
1878,A1,163.5,0.25,100,125.0
1879,C4,163.517,0.5,100,125.0
1880,A1,163.75,0.25,100,125.0
1881,G1,164.0,1.0,100,125.0
1882,D4,164.0,1.0,100,125.0
1883,B4,164.0,1.0,100,125.0
1884,B1,164.0,0.25,100,125.0
1885,F3,164.0,0.25,100,125.0
1886,A1,164.0,0.25,100,125.0
1887,G#2,164.5,0.25,100,125.0
1888,E2,164.75,0.25,100,125.0
1889,F#4,164.983,0.125,100,125.0
1890,E-4,165.0,1.0,100,125.0
1891,C5,165.0,1.0,100,125.0
1892,E2,165.0,0.25,100,125.0
1893,F3,165.0,0.25,100,125.0
1894,F4,165.0,0.25,100,125.0
1895,F#4,165.017,0.125,100,125.0
1896,E4,165.108,0.125,100,125.0
1897,E4,165.142,0.125,100,125.0
1898,E-4,165.233,0.25,100,125.0
1899,G#1,165.25,0.25,100,125.0
1900,E-4,165.267,0.25,100,125.0
1901,F#4,165.483,0.25,100,125.0
1902,B1,165.5,0.25,100,125.0
1903,G#2,165.5,0.25,100,125.0
1904,F4,165.5,0.25,100,125.0
1905,F#4,165.517,0.25,100,125.0
1906,E-4,165.733,0.25,100,125.0
1907,G#1,165.75,0.25,100,125.0
1908,E-4,165.767,233/1000,100,125.0
1909,E-4,166.0,17/1000,100,125.0
1910,F1,166.0,1.0,100,125.0
1911,C4,166.0,1.0,100,125.0
1912,A4,166.0,1.0,100,125.0
1913,B1,166.0,0.25,100,125.0
1914,C#3,166.0,0.25,100,125.0
1915,F3,166.0,0.25,100,125.0
1916,B1,166.0,0.25,100,125.0
1917,G#2,166.0,0.25,100,125.0
1918,A1,166.0,0.25,100,125.0
1919,A3,166.233,0.25,100,125.0
1920,A3,166.267,0.25,100,125.0
1921,B3,166.5,0.25,100,125.0
1922,A1,166.5,0.25,100,125.0
1923,A1,166.75,0.25,100,125.0
1924,C4,166.983,1.0,100,125.0
1925,F#1,167.0,1.0,100,125.0
1926,C#4,167.0,1.0,100,125.0
1927,B-4,167.0,1.0,100,125.0
1928,E2,167.0,0.25,100,125.0
1929,B-2,167.0,0.25,100,125.0
1930,E2,167.0,0.25,100,125.0
1931,F3,167.0,0.25,100,125.0
1932,A1,167.0,0.25,100,125.0
1933,C4,167.017,1.0,100,125.0
1934,B3,167.5,0.25,100,125.0
1935,G#2,167.5,0.25,100,125.0
1936,A1,167.5,0.25,100,125.0
1937,B1,167.75,0.25,100,125.0
1938,A1,167.75,0.25,100,125.0
1939,E-4,167.983,1.0,100,125.0
1940,G1,168.0,1.0,100,125.0
1941,D4,168.0,1.0,100,125.0
1942,B4,168.0,1.0,100,125.0
1943,B1,168.0,0.25,100,125.0
1944,B-2,168.0,0.25,100,125.0
1945,B1,168.0,0.25,100,125.0
1946,F3,168.0,0.25,100,125.0
1947,A1,168.0,0.25,100,125.0
1948,E-4,168.017,1.0,100,125.0
1949,B3,168.5,0.25,100,125.0
1950,G#2,168.5,0.25,100,125.0
1951,A1,168.5,0.25,100,125.0
1952,A1,168.75,0.25,100,125.0
1953,G4,168.983,1.0,100,125.0
1954,G#1,169.0,1.0,100,125.0
1955,E-4,169.0,1.0,100,125.0
1956,C5,169.0,1.0,100,125.0
1957,E2,169.0,0.25,100,125.0
1958,B-2,169.0,0.25,100,125.0
1959,C#3,169.0,0.25,100,125.0
1960,E2,169.0,0.25,100,125.0
1961,F3,169.0,0.25,100,125.0
1962,A1,169.0,0.25,100,125.0
1963,G4,169.017,983/1000,100,125.0
1964,B3,169.5,0.25,100,125.0
1965,G#2,169.5,0.25,100,125.0
1966,A1,169.5,0.25,100,125.0
1967,B1,169.75,0.25,100,125.0
1968,B1,169.75,0.25,100,125.0
1969,B-2,169.75,0.25,100,125.0
1970,A1,169.75,0.25,100,125.0
1971,G#4,169.983,17/1000,100,125.0
1972,G#4,170.0,983/1000,100,125.0
1973,G4,170.0,17/1000,100,125.0
1974,A1,170.0,1.0,100,125.0
1975,E4,170.0,1.0,100,125.0
1976,C#5,170.0,1.0,100,125.0
1977,B-2,170.0,0.25,100,125.0
1978,F3,170.0,0.25,100,125.0
1979,B1,170.0,0.25,100,125.0
1980,G#2,170.0,0.25,100,125.0
1981,A1,170.0,0.25,100,125.0
1982,G#4,170.017,1.0,100,125.0
1983,B1,170.5,0.25,100,125.0
1984,B3,170.5,0.25,100,125.0
1985,A1,170.5,0.25,100,125.0
1986,A1,170.75,0.25,100,125.0
1987,F4,170.983,0.25,100,125.0
1988,B-1,171.0,1.0,100,125.0
1989,F4,171.0,1.0,100,125.0
1990,D5,171.0,1.0,100,125.0
1991,B-2,171.0,0.25,100,125.0
1992,E2,171.0,0.25,100,125.0
1993,E2,171.0,0.25,100,125.0
1994,F3,171.0,0.25,100,125.0
1995,A1,171.0,0.25,100,125.0
1996,F4,171.017,0.25,100,125.0
1997,F#4,171.233,0.25,100,125.0
1998,B1,171.25,0.25,100,125.0
1999,F#4,171.267,0.25,100,125.0
2000,F4,171.483,0.25,100,125.0
2001,B3,171.5,0.25,100,125.0
2002,G#2,171.5,0.25,100,125.0
2003,A1,171.5,0.25,100,125.0
2004,F4,171.517,0.25,100,125.0
2005,E-5,171.733,2267/1000,100,125.0
2006,B1,171.75,0.25,100,125.0
2007,A1,171.75,0.25,100,125.0
2008,E-5,171.767,2233/1000,100,125.0
2009,F#4,172.0,1.0,100,125.0
2010,E-5,172.0,2.0,100,125.0
2011,B1,172.0,1.0,100,125.0
2012,B-2,172.0,0.25,100,125.0
2013,B1,172.0,0.25,100,125.0
2014,B1,172.0,0.25,100,125.0
2015,F3,172.0,0.25,100,125.0
2016,A1,172.0,0.25,100,125.0
2017,B3,172.5,0.25,100,125.0
2018,G#2,172.5,0.25,100,125.0
2019,E2,172.75,0.25,100,125.0
2020,C2,173.0,1.0,100,125.0
2021,B-2,173.0,0.25,100,125.0
2022,E2,173.0,0.25,100,125.0
2023,E2,173.0,0.25,100,125.0
2024,F3,173.0,0.25,100,125.0
2025,F4,173.0,0.25,100,125.0
2026,B3,173.5,0.25,100,125.0
2027,B1,173.5,0.25,100,125.0
2028,G#2,173.5,0.25,100,125.0
2029,F4,173.5,0.25,100,125.0
2030,E-5,174.0,4.0,100,125.0
2031,E-5,174.0,2017/1000,100,125.0
2032,C2,174.0,1.5,100,125.0
2033,B-4,174.0,4.0,100,125.0
2034,G4,174.0,4.0,100,125.0
2035,E4,174.0,4.0,100,125.0
2036,C4,174.0,4.0,100,125.0
2037,B1,174.0,0.25,100,125.0
2038,C#3,174.0,0.25,100,125.0
2039,B3,174.5,0.25,100,125.0
2040,F4,174.5,0.25,100,125.0
2041,A3,175.0,0.25,100,125.0
2042,E2,175.0,0.25,100,125.0
2043,B-2,175.0,0.25,100,125.0
2044,B3,175.5,0.25,100,125.0
2045,F4,175.5,0.25,100,125.0
2046,C2,175.75,0.25,100,125.0
2047,B1,175.75,0.25,100,125.0
2048,F4,175.75,0.25,100,125.0
2049,C2,176.0,1.5,100,125.0
2050,B1,176.0,0.25,100,125.0
2051,B-2,176.0,0.25,100,125.0
2052,E-5,176.017,1983/1000,100,125.0
2053,B3,176.5,0.25,100,125.0
2054,F4,176.75,0.25,100,125.0
2055,A3,177.0,0.25,100,125.0
2056,E2,177.0,0.25,100,125.0
2057,B-2,177.0,0.25,100,125.0
2058,F4,177.25,0.25,100,125.0
2059,B3,177.5,0.25,100,125.0
2060,F4,177.5,0.25,100,125.0
2061,B1,177.75,0.25,100,125.0
2062,E-5,178.0,2983/1000,100,125.0
2063,E-5,178.0,3017/1000,100,125.0
2064,B1,178.0,0.5,100,125.0
2065,A4,178.0,4.0,100,125.0
2066,F#4,178.0,4.0,100,125.0
2067,E-4,178.0,4.0,100,125.0
2068,B3,178.0,4.0,100,125.0
2069,B-2,178.0,0.25,100,125.0
2070,F4,178.0,0.25,100,125.0
2071,B1,178.5,0.5,100,125.0
2072,B1,178.5,0.25,100,125.0
2073,B3,178.5,0.25,100,125.0
2074,F4,178.625,0.125,100,125.0
2075,F4,178.75,0.125,100,125.0
2076,A3,179.0,0.25,100,125.0
2077,B-2,179.0,0.25,100,125.0
2078,E2,179.0,0.25,100,125.0
2079,F4,179.0,0.25,100,125.0
2080,B1,179.25,0.25,100,125.0
2081,B1,179.25,0.25,100,125.0
2082,F4,179.25,0.25,100,125.0
2083,B3,179.5,0.25,100,125.0
2084,B1,179.75,0.25,100,125.0
2085,B1,179.75,0.25,100,125.0
2086,B1,180.0,1.5,100,125.0
2087,B-2,180.0,0.25,100,125.0
2088,B1,180.0,0.25,100,125.0
2089,F4,180.25,0.25,100,125.0
2090,B3,180.5,0.25,100,125.0
2091,F4,180.75,0.25,100,125.0
2092,F#5,180.983,1.0,100,125.0
2093,A3,181.0,0.25,100,125.0
2094,B-2,181.0,0.25,100,125.0
2095,E2,181.0,0.25,100,125.0
2096,F4,181.0,0.25,100,125.0
2097,F#5,181.017,983/1000,100,125.0
2098,B3,181.5,0.25,100,125.0
2099,E-5,181.983,17/1000,100,125.0
2100,E-5,182.0,4.0,100,125.0
2101,F#5,182.0,17/1000,100,125.0
2102,C2,182.0,1.5,100,125.0
2103,B-4,182.0,4.0,100,125.0
2104,G4,182.0,4.0,100,125.0
2105,E4,182.0,4.0,100,125.0
2106,C4,182.0,4.0,100,125.0
2107,B1,182.0,0.25,100,125.0
2108,C#3,182.0,0.25,100,125.0
2109,F4,182.0,0.25,100,125.0
2110,E-5,182.017,3983/1000,100,125.0
2111,B-2,182.5,0.25,100,125.0
2112,E2,183.0,0.25,100,125.0
2113,A3,183.0,0.25,100,125.0
2114,F4,183.0,0.25,100,125.0
2115,B-2,183.5,0.25,100,125.0
2116,F4,183.5,0.25,100,125.0
2117,C2,183.75,0.25,100,125.0
2118,B1,183.75,0.25,100,125.0
2119,F4,183.75,0.25,100,125.0
2120,C2,184.0,1.5,100,125.0
2121,B1,184.0,0.25,100,125.0
2122,A3,184.0,0.25,100,125.0
2123,F4,184.25,0.25,100,125.0
2124,B-2,184.5,0.25,100,125.0
2125,F4,184.5,0.125,100,125.0
2126,F4,184.625,0.125,100,125.0
2127,F4,184.75,0.25,100,125.0
2128,E2,185.0,0.25,100,125.0
2129,A3,185.0,0.25,100,125.0
2130,B-2,185.5,0.25,100,125.0
2131,F4,185.5,0.25,100,125.0
2132,B1,185.75,0.25,100,125.0
2133,F4,185.75,0.25,100,125.0
2134,E-5,186.0,2983/1000,100,125.0
2135,E-5,186.0,3017/1000,100,125.0
2136,B1,186.0,0.5,100,125.0
2137,A3,186.0,0.25,100,125.0
2138,F4,186.0,0.125,100,125.0
2139,A4,186.0,4.0,100,125.0
2140,F#4,186.0,4.0,100,125.0
2141,E-4,186.0,4.0,100,125.0
2142,B3,186.0,4.0,100,125.0
2143,F4,186.125,0.125,100,125.0
2144,F4,186.25,0.25,100,125.0
2145,B1,186.5,0.5,100,125.0
2146,B1,186.5,0.25,100,125.0
2147,B-2,186.5,0.25,100,125.0
2148,F4,186.5,0.25,100,125.0
2149,A3,187.0,0.25,100,125.0
2150,E2,187.0,0.25,100,125.0
2151,F4,187.0,0.25,100,125.0
2152,B1,187.25,0.25,100,125.0
2153,B1,187.25,0.25,100,125.0
2154,B-2,187.5,0.25,100,125.0
2155,F4,187.5,0.25,100,125.0
2156,B1,187.75,0.25,100,125.0
2157,B1,187.75,0.25,100,125.0
2158,F4,187.75,0.25,100,125.0
2159,B1,188.0,1.5,100,125.0
2160,A3,188.0,0.25,100,125.0
2161,B1,188.0,0.25,100,125.0
2162,B-2,188.5,0.25,100,125.0
2163,D2,188.75,0.25,100,125.0
2164,A4,188.983,0.25,100,125.0
2165,F#2,189.0,0.25,100,125.0
2166,D2,189.0,0.25,100,125.0
2167,A5,189.017,0.25,100,125.0
2168,F#4,189.233,0.25,100,125.0
2169,F#2,189.25,0.25,100,125.0
2170,F#5,189.267,0.25,100,125.0
2171,G#4,189.483,0.25,100,125.0
2172,B-2,189.5,0.25,100,125.0
2173,B1,189.5,0.25,100,125.0
2174,G#5,189.517,0.25,100,125.0
2175,F#4,189.733,0.25,100,125.0
2176,F#5,189.767,233/1000,100,125.0
2177,F#5,190.0,17/1000,100,125.0
2178,F#2,190.0,0.25,100,125.0
2179,B1,190.0,0.25,100,125.0
2180,F#2,190.25,0.25,100,125.0
2181,B-2,190.5,0.25,100,125.0
2182,E-5,190.983,3017/1000,100,125.0
2183,C2,191.0,0.75,100,125.0
2184,C4,191.0,3.0,100,125.0
2185,E4,191.0,3.0,100,125.0
2186,G4,191.0,3.0,100,125.0
2187,B-4,191.0,3.0,100,125.0
2188,A3,191.0,0.25,100,125.0
2189,F#2,191.0,0.25,100,125.0
2190,E2,191.0,0.25,100,125.0
2191,E-5,191.017,2983/1000,100,125.0
2192,F#2,191.25,0.25,100,125.0
2193,B-2,191.5,0.25,100,125.0
2194,C2,191.75,0.25,100,125.0
2195,C2,192.0,2.0,100,125.0
2196,A3,192.0,0.25,100,125.0
2197,F#2,192.0,0.25,100,125.0
2198,B1,192.0,0.25,100,125.0
2199,F#2,192.25,0.25,100,125.0
2200,B-2,192.5,0.25,100,125.0
2201,C#3,193.0,0.25,100,125.0
2202,F#2,193.0,0.25,100,125.0
2203,E2,193.0,0.25,100,125.0
2204,F#2,193.25,0.25,100,125.0
2205,B-2,193.5,0.25,100,125.0
2206,E-5,194.0,2983/1000,100,125.0
2207,E-5,194.0,3017/1000,100,125.0
2208,B1,194.0,0.5,100,125.0
2209,A4,194.0,4.0,100,125.0
2210,F#4,194.0,4.0,100,125.0
2211,E-4,194.0,4.0,100,125.0
2212,B3,194.0,4.0,100,125.0
2213,A3,194.0,0.25,100,125.0
2214,F#2,194.0,0.25,100,125.0
2215,B1,194.0,0.25,100,125.0
2216,F#2,194.25,0.25,100,125.0
2217,B1,194.5,0.5,100,125.0
2218,B-2,194.5,0.25,100,125.0
2219,A3,195.0,0.25,100,125.0
2220,F#2,195.0,0.25,100,125.0
2221,E2,195.0,0.25,100,125.0
2222,B1,195.25,0.5,100,125.0
2223,F#2,195.25,0.25,100,125.0
2224,B-2,195.5,0.25,100,125.0
2225,B1,195.75,0.25,100,125.0
2226,B1,195.75,0.25,100,125.0
2227,B1,196.0,0.5,100,125.0
2228,C#3,196.0,0.25,100,125.0
2229,F#2,196.0,0.25,100,125.0
2230,B1,196.0,0.25,100,125.0
2231,F#2,196.25,0.25,100,125.0
2232,B-1,196.5,0.5,100,125.0
2233,B-2,196.5,0.25,100,125.0
2234,E2,196.75,0.25,100,125.0
2235,F#5,196.983,1.0,100,125.0
2236,B1,197.0,0.5,100,125.0
2237,F#2,197.0,0.25,100,125.0
2238,D2,197.0,0.25,100,125.0
2239,F#5,197.017,983/1000,100,125.0
2240,F#2,197.25,0.25,100,125.0
2241,C2,197.5,0.5,100,125.0
2242,A2,197.5,0.25,100,125.0
2243,B-2,197.5,0.25,100,125.0
2244,E-5,197.983,17/1000,100,125.0
2245,E-5,198.0,4.0,100,125.0
2246,F#5,198.0,17/1000,100,125.0
2247,B1,198.0,0.25,100,125.0
2248,E-5,198.017,2.0,100,125.0
2249,F#2,198.5,0.25,100,125.0
2250,F#2,198.75,0.25,100,125.0
2251,G#1,199.0,1.0,100,125.0
2252,G#4,199.0,1.0,100,125.0
2253,B-4,199.0,1.0,100,125.0
2254,E-5,199.0,1.0,100,125.0
2255,F#2,199.0,0.25,100,125.0
2256,C#3,199.0,0.25,100,125.0
2257,E2,199.0,0.25,100,125.0
2258,F#2,199.25,0.25,100,125.0
2259,F#2,199.5,0.25,100,125.0
2260,F#2,199.75,0.25,100,125.0
2261,B1,200.0,0.25,100,125.0
2262,E-5,200.017,1983/1000,100,125.0
2263,F#2,200.5,0.25,100,125.0
2264,F#2,200.75,0.25,100,125.0
2265,G1,201.0,1.0,100,125.0
2266,G4,201.0,1.0,100,125.0
2267,B-4,201.0,1.0,100,125.0
2268,E-5,201.0,1.0,100,125.0
2269,F#2,201.0,0.25,100,125.0
2270,A3,201.0,0.25,100,125.0
2271,D2,201.0,0.25,100,125.0
2272,F#2,201.25,0.25,100,125.0
2273,F#2,201.5,0.25,100,125.0
2274,F#2,201.75,0.25,100,125.0
2275,E-5,202.0,1983/1000,100,125.0
2276,E-5,202.0,17/1000,100,125.0
2277,B1,202.0,0.25,100,125.0
2278,E-5,202.017,2.0,100,125.0
2279,F#1,203.0,0.75,100,125.0
2280,F#4,203.0,0.75,100,125.0
2281,E-5,203.0,0.75,100,125.0
2282,G#4,203.0,0.75,100,125.0
2283,B1,203.0,0.25,100,125.0
2284,B-2,203.0,0.25,100,125.0
2285,D2,203.0,0.25,100,125.0
2286,F1,203.75,0.25,100,125.0
2287,F4,203.75,0.25,100,125.0
2288,E-5,203.75,0.25,100,125.0
2289,G#4,203.75,0.25,100,125.0
2290,B1,203.75,0.25,100,125.0
2291,B-2,203.75,0.25,100,125.0
2292,D2,203.75,0.25,100,125.0
2293,B1,204.5,0.25,100,125.0
2294,E-2,205.0,1.0,100,125.0
2295,E-5,205.0,1.0,100,125.0
2296,B4,205.0,1.0,100,125.0
2297,G#4,205.0,1.0,100,125.0
2298,C#3,205.0,0.25,100,125.0
2299,E2,205.0,0.25,100,125.0
2300,E-2,206.0,1.0,100,125.0
2301,B1,206.0,0.25,100,125.0
2302,E-5,206.0,1.0,100,125.0
2303,B4,206.0,1.0,100,125.0
2304,G#4,206.0,1.0,100,125.0
2305,G#4,207.0,2.0,100,125.0
2306,B4,207.0,2.0,100,125.0
2307,E-5,207.0,2.0,100,125.0
2308,B-2,207.0,0.25,100,125.0
2309,E2,207.0,0.25,100,125.0
2310,D2,208.0,0.75,100,125.0
2311,F#2,208.0,0.25,100,125.0
2312,B1,208.0,0.25,100,125.0
2313,C#2,208.75,0.25,100,125.0
2314,B1,208.75,0.25,100,125.0
2315,E2,209.0,0.25,100,125.0
2316,F#2,209.0,0.25,100,125.0
2317,B1,210.0,0.25,100,125.0
2318,B-2,211.0,0.25,100,125.0
2319,E2,211.0,0.25,100,125.0
2320,F1,211.75,0.25,100,125.0
2321,B1,212.0,0.25,100,125.0
2322,G4,212.0,1.0,100,125.0
2323,B4,212.0,1.0,100,125.0
2324,F#2,212.0,0.25,100,125.0
2325,B1,212.0,0.25,100,125.0
2326,B1,212.5,0.5,100,125.0
2327,D2,213.0,0.5,100,125.0
2328,G4,213.0,1.0,100,125.0
2329,D5,213.0,1.0,100,125.0
2330,E2,213.0,0.25,100,125.0
2331,F#2,213.0,0.25,100,125.0
2332,D2,213.5,0.5,100,125.0
2333,E2,214.0,1.5,100,125.0
2334,B1,214.0,0.25,100,125.0
2335,E5,214.0,0.5,100,125.0
2336,B4,214.0,0.5,100,125.0
2337,B5,215.0,3.0,100,125.0
2338,G5,215.0,3.0,100,125.0
2339,E5,215.0,3.0,100,125.0
2340,B4,215.0,3.0,100,125.0
2341,B-2,215.0,0.25,100,125.0
2342,E2,215.0,0.25,100,125.0
2343,D2,216.0,0.75,100,125.0
2344,F#2,216.0,0.25,100,125.0
2345,B1,216.0,0.25,100,125.0
2346,C#2,216.75,0.25,100,125.0
2347,B1,216.75,0.25,100,125.0
2348,E2,217.0,0.25,100,125.0
2349,F#2,217.0,0.25,100,125.0
2350,B1,218.0,0.25,100,125.0
2351,B-2,219.0,0.25,100,125.0
2352,E2,219.0,0.25,100,125.0
2353,F1,219.75,0.25,100,125.0
2354,B1,220.0,0.25,100,125.0
2355,G4,220.0,0.75,100,125.0
2356,B4,220.0,0.75,100,125.0
2357,F#2,220.0,0.25,100,125.0
2358,B1,220.0,0.25,100,125.0
2359,B1,220.5,0.5,100,125.0
2360,G4,220.75,0.25,100,125.0
2361,B4,220.75,0.25,100,125.0
2362,D2,221.0,0.5,100,125.0
2363,G4,221.0,0.5,100,125.0
2364,D5,221.0,0.5,100,125.0
2365,E2,221.0,0.25,100,125.0
2366,F#2,221.0,0.25,100,125.0
2367,D2,221.5,0.5,100,125.0
2368,B4,221.5,0.5,100,125.0
2369,E5,221.5,0.5,100,125.0
2370,E2,222.0,1.5,100,125.0
2371,B1,222.0,0.25,100,125.0
2372,B5,223.0,3.0,100,125.0
2373,G5,223.0,3.0,100,125.0
2374,E5,223.0,3.0,100,125.0
2375,B4,223.0,3.0,100,125.0
2376,B-2,223.0,0.25,100,125.0
2377,E2,223.0,0.25,100,125.0
2378,D2,224.0,0.75,100,125.0
2379,F#2,224.0,0.25,100,125.0
2380,B1,224.0,0.25,100,125.0
2381,C#2,224.75,0.25,100,125.0
2382,B1,224.75,0.25,100,125.0
2383,E2,225.0,0.25,100,125.0
2384,F#2,225.0,0.25,100,125.0
2385,B1,226.0,0.25,100,125.0
2386,B-2,227.0,0.25,100,125.0
2387,E2,227.0,0.25,100,125.0
2388,F1,227.75,0.25,100,125.0
2389,B1,228.0,0.25,100,125.0
2390,G4,228.0,0.5,100,125.0
2391,B4,228.0,0.5,100,125.0
2392,F#2,228.0,0.25,100,125.0
2393,B1,228.0,0.25,100,125.0
2394,B1,228.5,0.5,100,125.0
2395,G4,228.5,0.5,100,125.0
2396,B4,228.5,0.5,100,125.0
2397,D2,229.0,0.5,100,125.0
2398,G4,229.0,1.0,100,125.0
2399,D5,229.0,1.0,100,125.0
2400,E2,229.0,0.25,100,125.0
2401,F#2,229.0,0.25,100,125.0
2402,D2,229.5,0.5,100,125.0
2403,E2,230.0,1.5,100,125.0
2404,B1,230.0,0.25,100,125.0
2405,B5,231.0,3.0,100,125.0
2406,G5,231.0,3.0,100,125.0
2407,E5,231.0,3.0,100,125.0
2408,B4,231.0,3.0,100,125.0
2409,B-2,231.0,0.25,100,125.0
2410,E2,231.0,0.25,100,125.0
2411,D2,232.0,0.75,100,125.0
2412,F#2,232.0,0.25,100,125.0
2413,B1,232.0,0.25,100,125.0
2414,C#2,232.75,0.25,100,125.0
2415,B1,232.75,0.25,100,125.0
2416,E2,233.0,0.25,100,125.0
2417,F#2,233.0,0.25,100,125.0
2418,B1,234.0,0.25,100,125.0
2419,B-2,235.0,0.25,100,125.0
2420,E2,235.0,0.25,100,125.0
2421,F1,235.75,0.25,100,125.0
2422,B1,236.0,0.25,100,125.0
2423,G4,236.0,1.0,100,125.0
2424,B4,236.0,1.0,100,125.0
2425,F#2,236.0,0.25,100,125.0
2426,B1,236.0,0.25,100,125.0
2427,B1,236.5,0.5,100,125.0
2428,D2,237.0,0.5,100,125.0
2429,G4,237.0,1.0,100,125.0
2430,D5,237.0,1.0,100,125.0
2431,E2,237.0,0.25,100,125.0
2432,F#2,237.0,0.25,100,125.0
2433,D2,237.5,0.5,100,125.0
2434,E2,238.0,1.5,100,125.0
2435,E5,238.0,0.5,100,125.0
2436,B4,238.0,0.5,100,125.0
2437,A3,238.0,0.25,100,125.0
2438,B1,238.0,0.25,100,125.0
2439,B5,239.0,3.0,100,125.0
2440,G5,239.0,3.0,100,125.0
2441,E5,239.0,3.0,100,125.0
2442,B4,239.0,3.0,100,125.0
2443,B-2,239.0,0.25,100,125.0
2444,E2,239.0,0.25,100,125.0
2445,D2,240.0,0.75,100,125.0
2446,F#2,240.0,0.25,100,125.0
2447,B1,240.0,0.25,100,125.0
2448,C#2,240.75,0.25,100,125.0
2449,B1,240.75,0.25,100,125.0
2450,E2,241.0,0.25,100,125.0
2451,F#2,241.0,0.25,100,125.0
2452,B1,242.0,0.25,100,125.0
2453,B-2,243.0,0.25,100,125.0
2454,E2,243.0,0.25,100,125.0
2455,F1,243.75,0.25,100,125.0
2456,B1,244.0,0.25,100,125.0
2457,G4,244.0,0.75,100,125.0
2458,B4,244.0,0.75,100,125.0
2459,F#2,244.0,0.25,100,125.0
2460,B1,244.0,0.25,100,125.0
2461,B1,244.5,0.5,100,125.0
2462,G4,244.75,0.25,100,125.0
2463,B4,244.75,0.25,100,125.0
2464,D2,245.0,0.5,100,125.0
2465,G4,245.0,0.5,100,125.0
2466,D5,245.0,0.5,100,125.0
2467,E2,245.0,0.25,100,125.0
2468,F#2,245.0,0.25,100,125.0
2469,D2,245.5,0.5,100,125.0
2470,B4,245.5,0.5,100,125.0
2471,E5,245.5,0.5,100,125.0
2472,E2,246.0,1.5,100,125.0
2473,B1,246.0,0.25,100,125.0
2474,B5,247.0,3.0,100,125.0
2475,G5,247.0,3.0,100,125.0
2476,E5,247.0,3.0,100,125.0
2477,B4,247.0,3.0,100,125.0
2478,B-2,247.0,0.25,100,125.0
2479,E2,247.0,0.25,100,125.0
2480,D2,248.0,0.75,100,125.0
2481,F#2,248.0,0.25,100,125.0
2482,B1,248.0,0.25,100,125.0
2483,C#2,248.75,0.25,100,125.0
2484,B1,248.75,0.25,100,125.0
2485,E2,249.0,0.25,100,125.0
2486,F#2,249.0,0.25,100,125.0
2487,B1,250.0,0.25,100,125.0
2488,B-2,251.0,0.25,100,125.0
2489,E2,251.0,0.25,100,125.0
2490,F1,251.75,0.25,100,125.0
2491,B1,252.0,0.25,100,125.0
2492,G4,252.0,0.5,100,125.0
2493,B4,252.0,0.5,100,125.0
2494,F#2,252.0,0.25,100,125.0
2495,B1,252.0,0.25,100,125.0
2496,B1,252.5,0.5,100,125.0
2497,G4,252.5,0.5,100,125.0
2498,B4,252.5,0.5,100,125.0
2499,D2,253.0,0.5,100,125.0
2500,G4,253.0,1.0,100,125.0
2501,D5,253.0,1.0,100,125.0
2502,E2,253.0,0.25,100,125.0
2503,F#2,253.0,0.25,100,125.0
2504,D2,253.5,0.5,100,125.0
2505,E2,254.0,1.5,100,125.0
2506,B1,254.0,0.25,100,125.0
2507,B5,255.0,3.0,100,125.0
2508,G5,255.0,3.0,100,125.0
2509,E5,255.0,3.0,100,125.0
2510,B4,255.0,3.0,100,125.0
2511,B-2,255.0,0.25,100,125.0
2512,E2,255.0,0.25,100,125.0
2513,D2,256.0,0.75,100,125.0
2514,F#2,256.0,0.25,100,125.0
2515,B1,256.0,0.25,100,125.0
2516,C#2,256.75,0.25,100,125.0
2517,B1,256.75,0.25,100,125.0
2518,E2,257.0,0.25,100,125.0
2519,F#2,257.0,0.25,100,125.0
2520,B1,258.0,0.25,100,125.0
2521,B-2,259.0,0.25,100,125.0
2522,E2,259.0,0.25,100,125.0
2523,F1,259.75,0.25,100,125.0
2524,B1,260.0,0.25,100,125.0
2525,G4,260.0,1.0,100,125.0
2526,B4,260.0,1.0,100,125.0
2527,F#2,260.0,0.25,100,125.0
2528,B1,260.0,0.25,100,125.0
2529,B1,260.5,0.5,100,125.0
2530,D2,261.0,0.5,100,125.0
2531,G4,261.0,1.0,100,125.0
2532,D5,261.0,1.0,100,125.0
2533,E2,261.0,0.25,100,125.0
2534,F#2,261.0,0.25,100,125.0
2535,D2,261.5,0.5,100,125.0
2536,E2,262.0,1.5,100,125.0
2537,B1,262.0,0.25,100,125.0
2538,E5,262.0,0.5,100,125.0
2539,B4,262.0,0.5,100,125.0
2540,B5,263.0,3.0,100,125.0
2541,G5,263.0,3.0,100,125.0
2542,E5,263.0,3.0,100,125.0
2543,B4,263.0,3.0,100,125.0
2544,B-2,263.0,0.25,100,125.0
2545,E2,263.0,0.25,100,125.0
2546,D2,264.0,0.75,100,125.0
2547,F#2,264.0,0.25,100,125.0
2548,B1,264.0,0.25,100,125.0
2549,C#2,264.75,0.25,100,125.0
2550,B1,264.75,0.25,100,125.0
2551,E2,265.0,0.25,100,125.0
2552,F#2,265.0,0.25,100,125.0
2553,B1,266.0,0.25,100,125.0
2554,B-2,267.0,0.25,100,125.0
2555,E2,267.0,0.25,100,125.0
2556,D2,268.0,0.25,100,125.0
2557,G4,268.0,1.0,100,125.0
2558,E5,268.0,1.0,100,125.0
2559,B-2,268.0,0.25,100,125.0
2560,B1,268.0,0.25,100,125.0
2561,D2,268.5,0.5,100,125.0
2562,E2,268.875,0.125,100,125.0
2563,G4,269.0,1.0,100,125.0
2564,E2,269.0,0.5,100,125.0
2565,D2,269.0,0.25,100,125.0
2566,E2,269.5,0.5,100,125.0
2567,G2,270.0,1.0,100,125.0
2568,G5,270.0,4.0,100,125.0
2569,D5,270.0,4.0,100,125.0
2570,A4,270.0,4.0,100,125.0
2571,B1,270.0,0.25,100,125.0
2572,A3,270.0,0.25,100,125.0
2573,B-1,271.0,1.0,100,125.0
2574,E2,271.0,0.25,100,125.0
2575,E-3,271.0,0.25,100,125.0
2576,C2,272.0,1.0,100,125.0
2577,B1,272.0,0.25,100,125.0
2578,E-3,272.0,0.25,100,125.0
2579,F2,273.0,1.0,100,125.0
2580,E2,273.0,0.25,100,125.0
2581,E-3,273.0,0.25,100,125.0
2582,G2,274.0,1.0,100,125.0
2583,B1,274.0,0.25,100,125.0
2584,E-3,274.0,0.25,100,125.0
2585,B-1,275.0,1.0,100,125.0
2586,E2,275.0,0.25,100,125.0
2587,E-3,275.0,0.25,100,125.0
2588,B1,275.75,0.25,100,125.0
2589,C2,276.0,1.0,100,125.0
2590,B1,276.0,0.25,100,125.0
2591,E-3,276.0,0.25,100,125.0
2592,B1,276.5,0.25,100,125.0
2593,F2,277.0,1.0,100,125.0
2594,E2,277.0,0.25,100,125.0
2595,C#3,277.0,0.25,100,125.0
2596,G2,278.0,0.25,100,125.0
2597,B1,278.0,0.25,100,125.0
2598,E-3,278.0,0.25,100,125.0
2599,E-2,278.25,0.25,100,125.0
2600,C2,278.5,0.25,100,125.0
2601,B-1,278.75,0.25,100,125.0
2602,B-1,279.0,1.0,100,125.0
2603,E2,279.0,0.25,100,125.0
2604,E-3,279.0,0.25,100,125.0
2605,C2,280.0,1.0,100,125.0
2606,B1,280.0,0.25,100,125.0
2607,E-3,280.0,0.25,100,125.0
2608,C#2,281.0,1.0,100,125.0
2609,E2,281.0,0.25,100,125.0
2610,E-3,281.0,0.25,100,125.0
2611,D2,282.0,1.0,100,125.0
2612,B1,282.0,0.25,100,125.0
2613,F3,282.0,0.25,100,125.0
2614,E2,283.0,1.0,100,125.0
2615,E2,283.0,0.25,100,125.0
2616,F3,283.0,0.25,100,125.0
2617,B1,283.75,0.25,100,125.0
2618,F2,284.0,0.25,100,125.0
2619,B1,284.0,0.25,100,125.0
2620,F3,284.0,0.25,100,125.0
2621,F2,284.5,0.5,100,125.0
2622,F3,284.5,0.25,100,125.0
2623,B1,284.5,0.25,100,125.0
2624,F3,284.75,0.25,100,125.0
2625,F#2,285.0,0.5,100,125.0
2626,E2,285.0,0.25,100,125.0
2627,B3,285.0,0.25,100,125.0
2628,F#2,285.5,0.5,100,125.0
2629,G2,286.0,1.0,100,125.0
2630,G5,286.0,4.0,100,125.0
2631,D5,286.0,4.0,100,125.0
2632,A4,286.0,4.0,100,125.0
2633,B3,286.0,0.25,100,125.0
2634,B1,286.0,0.25,100,125.0
2635,B-1,287.0,0.25,100,125.0
2636,F3,287.0,0.25,100,125.0
2637,E2,287.0,0.25,100,125.0
2638,B-1,287.5,0.5,100,125.0
2639,C2,288.0,1.0,100,125.0
2640,F3,288.0,0.25,100,125.0
2641,B1,288.0,0.25,100,125.0
2642,F2,289.0,0.75,100,125.0
2643,F3,289.0,0.25,100,125.0
2644,E2,289.0,0.25,100,125.0
2645,G2,289.75,0.25,100,125.0
2646,E-2,290.0,0.25,100,125.0
2647,E-3,290.0,0.25,100,125.0
2648,B1,290.0,0.25,100,125.0
2649,G2,290.25,0.25,100,125.0
2650,E-2,290.5,0.25,100,125.0
2651,G2,290.75,0.25,100,125.0
2652,B-1,291.0,1.0,100,125.0
2653,E-3,291.0,0.25,100,125.0
2654,E2,291.0,0.25,100,125.0
2655,B1,291.75,0.25,100,125.0
2656,C2,292.0,1.0,100,125.0
2657,E-3,292.0,0.25,100,125.0
2658,B1,292.0,0.25,100,125.0
2659,B1,292.5,0.25,100,125.0
2660,F2,293.0,1.0,100,125.0
2661,E2,293.0,0.25,100,125.0
2662,C#3,293.0,0.25,100,125.0
2663,G2,294.0,1.0,100,125.0
2664,B3,294.0,0.25,100,125.0
2665,B1,294.0,0.25,100,125.0
2666,B-1,295.0,1.0,100,125.0
2667,F3,295.0,0.25,100,125.0
2668,E2,295.0,0.25,100,125.0
2669,C2,296.0,1.0,100,125.0
2670,F3,296.0,0.25,100,125.0
2671,B1,296.0,0.25,100,125.0
2672,F2,297.0,1.0,100,125.0
2673,F3,297.0,0.25,100,125.0
2674,E2,297.0,0.25,100,125.0
2675,G2,298.0,1.0,100,125.0
2676,G5,298.0,4.0,100,125.0
2677,D5,298.0,4.0,100,125.0
2678,A4,298.0,4.0,100,125.0
2679,E-3,298.0,0.25,100,125.0
2680,B1,298.0,0.25,100,125.0
2681,D2,298.5,0.25,100,125.0
2682,D2,298.75,0.25,100,125.0
2683,B-1,299.0,1.0,100,125.0
2684,D2,299.0,0.25,100,125.0
2685,G#2,299.0,0.25,100,125.0
2686,B1,299.25,0.25,100,125.0
2687,B1,299.75,0.25,100,125.0
2688,C2,300.0,1.0,100,125.0
2689,D2,300.0,0.25,100,125.0
2690,G#2,300.0,0.25,100,125.0
2691,B1,300.0,0.25,100,125.0
2692,D2,300.25,0.25,100,125.0
2693,D2,300.5,0.25,100,125.0
2694,D2,300.75,0.25,100,125.0
2695,B1,300.875,0.125,100,125.0
2696,D2,300.875,0.125,100,125.0
2697,F2,301.0,1.0,100,125.0
2698,E2,301.0,0.25,100,125.0
2699,G#2,301.0,0.25,100,125.0
2700,B1,301.25,0.25,100,125.0
2701,E2,302.0,1.0,100,125.0
2702,A3,302.0,0.25,100,125.0
2703,B1,302.0,0.25,100,125.0
2704,B-2,303.0,0.25,100,125.0
2705,E2,303.0,0.25,100,125.0
2706,D2,304.0,0.75,100,125.0
2707,F#2,304.0,0.25,100,125.0
2708,B1,304.0,0.25,100,125.0
2709,C#2,304.75,0.25,100,125.0
2710,B1,304.75,0.25,100,125.0
2711,E2,305.0,0.25,100,125.0
2712,F#2,305.0,0.25,100,125.0
2713,B1,306.0,0.25,100,125.0
2714,G5,306.0,4.0,100,125.0
2715,D5,306.0,4.0,100,125.0
2716,A4,306.0,4.0,100,125.0
2717,B-2,307.0,0.25,100,125.0
2718,E2,307.0,0.25,100,125.0
2719,F1,307.75,0.25,100,125.0
2720,B1,308.0,0.25,100,125.0
2721,F#2,308.0,0.25,100,125.0
2722,B1,308.0,0.25,100,125.0
2723,B1,308.5,0.5,100,125.0
2724,D2,309.0,0.5,100,125.0
2725,E2,309.0,0.25,100,125.0
2726,F#2,309.0,0.25,100,125.0
2727,D2,309.5,0.5,100,125.0
2728,A4,310.0,4.0,100,125.0
2729,E2,310.0,1.5,100,125.0
2730,B1,310.0,0.25,100,125.0
2731,G5,310.0,4.0,100,125.0
2732,D5,310.0,4.0,100,125.0
2733,B-2,311.0,0.25,100,125.0
2734,E2,311.0,0.25,100,125.0
2735,D2,312.0,0.75,100,125.0
2736,F#2,312.0,0.25,100,125.0
2737,B1,312.0,0.25,100,125.0
2738,C#2,312.75,0.25,100,125.0
2739,B1,312.75,0.25,100,125.0
2740,E2,313.0,0.25,100,125.0
2741,F#2,313.0,0.25,100,125.0
2742,B1,314.0,0.25,100,125.0
2743,B-2,315.0,0.25,100,125.0
2744,E2,315.0,0.25,100,125.0
2745,F1,315.75,0.25,100,125.0
2746,B1,316.0,0.25,100,125.0
2747,F#2,316.0,0.25,100,125.0
2748,B1,316.0,0.25,100,125.0
2749,B1,316.5,0.5,100,125.0
2750,D2,317.0,0.5,100,125.0
2751,E2,317.0,0.25,100,125.0
2752,F#2,317.0,0.25,100,125.0
2753,D2,317.5,0.5,100,125.0
2754,E2,318.0,1.5,100,125.0
2755,B1,318.0,0.25,100,125.0
2756,B-2,319.0,0.25,100,125.0
2757,E2,319.0,0.25,100,125.0
2758,D2,320.0,0.75,100,125.0
2759,F#2,320.0,0.25,100,125.0
2760,B1,320.0,0.25,100,125.0
2761,C#2,320.75,0.25,100,125.0
2762,B1,320.75,0.25,100,125.0
2763,E2,321.0,0.25,100,125.0
2764,F#2,321.0,0.25,100,125.0
2765,B1,322.0,0.25,100,125.0
2766,B-2,323.0,0.25,100,125.0
2767,E2,323.0,0.25,100,125.0
2768,F1,323.75,0.25,100,125.0
2769,B1,324.0,0.25,100,125.0
2770,F#2,324.0,0.25,100,125.0
2771,B1,324.0,0.25,100,125.0
2772,B1,324.5,0.5,100,125.0
2773,D2,325.0,0.5,100,125.0
2774,E2,325.0,0.25,100,125.0
2775,F#2,325.0,0.25,100,125.0
2776,D2,325.5,0.5,100,125.0
2777,A4,326.0,4.0,100,125.0
2778,E2,326.0,1.5,100,125.0
2779,B1,326.0,0.25,100,125.0
2780,G5,326.0,4.0,100,125.0
2781,D5,326.0,4.0,100,125.0
2782,B-2,327.0,0.25,100,125.0
2783,E2,327.0,0.25,100,125.0
2784,D2,328.0,0.75,100,125.0
2785,F#2,328.0,0.25,100,125.0
2786,B1,328.0,0.25,100,125.0
2787,C#2,328.75,0.25,100,125.0
2788,B1,328.75,0.25,100,125.0
2789,E2,329.0,0.25,100,125.0
2790,F#2,329.0,0.25,100,125.0
2791,A4,330.0,2.0,100,125.0
2792,B1,330.0,0.25,100,125.0
2793,G5,330.0,4.0,100,125.0
2794,D5,330.0,4.0,100,125.0
2795,B-2,331.0,0.25,100,125.0
2796,E2,331.0,0.25,100,125.0
2797,F1,331.75,0.25,100,125.0
2798,F4,332.0,2.0,100,125.0
2799,B1,332.0,0.25,100,125.0
2800,B-2,332.0,0.25,100,125.0
2801,B1,332.0,0.25,100,125.0
2802,B1,332.5,0.5,100,125.0
2803,E2,332.875,0.125,100,125.0
2804,D2,333.0,0.5,100,125.0
2805,D2,333.0,0.25,100,125.0
2806,D2,333.5,0.5,100,125.0
2807,G4,334.0,4.0,100,125.0
2808,E2,334.0,1.5,100,125.0
2809,G5,334.0,4.0,100,125.0
2810,D5,334.0,4.0,100,125.0
2811,B1,334.0,0.25,100,125.0
2812,A3,334.0,0.25,100,125.0
2813,E2,335.0,0.25,100,125.0
2814,E-3,335.0,0.25,100,125.0
2815,D2,336.0,0.75,100,125.0
2816,B1,336.0,0.25,100,125.0
2817,E-3,336.0,0.25,100,125.0
2818,C#2,336.75,0.25,100,125.0
2819,E2,337.0,0.25,100,125.0
2820,E-3,337.0,0.25,100,125.0
2821,B1,338.0,0.25,100,125.0
2822,E-3,338.0,0.25,100,125.0
2823,B5,339.0,3.0,100,125.0
2824,G5,339.0,3.0,100,125.0
2825,E5,339.0,3.0,100,125.0
2826,B4,339.0,3.0,100,125.0
2827,E2,339.0,0.25,100,125.0
2828,E-3,339.0,0.25,100,125.0
2829,F1,339.75,0.25,100,125.0
2830,B1,339.75,0.25,100,125.0
2831,B1,340.0,0.25,100,125.0
2832,B1,340.0,0.25,100,125.0
2833,E-3,340.0,0.25,100,125.0
2834,B1,340.5,0.5,100,125.0
2835,B1,340.5,0.25,100,125.0
2836,D2,341.0,0.5,100,125.0
2837,E2,341.0,0.25,100,125.0
2838,C#3,341.0,0.25,100,125.0
2839,D2,341.5,0.5,100,125.0
2840,E2,342.0,1.5,100,125.0
2841,B1,342.0,0.25,100,125.0
2842,E-3,342.0,0.25,100,125.0
2843,E2,343.0,0.25,100,125.0
2844,E-3,343.0,0.25,100,125.0
2845,D2,344.0,0.75,100,125.0
2846,G4,344.0,0.75,100,125.0
2847,B4,344.0,0.75,100,125.0
2848,B1,344.0,0.25,100,125.0
2849,E-3,344.0,0.25,100,125.0
2850,C#2,344.75,0.25,100,125.0
2851,G4,344.75,0.25,100,125.0
2852,B4,344.75,0.25,100,125.0
2853,G4,345.0,0.5,100,125.0
2854,D5,345.0,0.5,100,125.0
2855,E2,345.0,0.25,100,125.0
2856,E-3,345.0,0.25,100,125.0
2857,B4,345.5,0.5,100,125.0
2858,E5,345.5,0.5,100,125.0
2859,B1,346.0,0.25,100,125.0
2860,F3,346.0,0.25,100,125.0
2861,B5,347.0,3.0,100,125.0
2862,G5,347.0,3.0,100,125.0
2863,E5,347.0,3.0,100,125.0
2864,B4,347.0,3.0,100,125.0
2865,E2,347.0,0.25,100,125.0
2866,F3,347.0,0.25,100,125.0
2867,F1,347.75,0.25,100,125.0
2868,B1,347.75,0.25,100,125.0
2869,B1,348.0,0.25,100,125.0
2870,B1,348.0,0.25,100,125.0
2871,F3,348.0,0.25,100,125.0
2872,B1,348.5,0.5,100,125.0
2873,F3,348.5,0.25,100,125.0
2874,B1,348.5,0.25,100,125.0
2875,F3,348.75,0.25,100,125.0
2876,D2,349.0,0.5,100,125.0
2877,E2,349.0,0.25,100,125.0
2878,B3,349.0,0.25,100,125.0
2879,D2,349.5,0.5,100,125.0
2880,E2,350.0,1.5,100,125.0
2881,B3,350.0,0.25,100,125.0
2882,B1,350.0,0.25,100,125.0
2883,F3,351.0,0.25,100,125.0
2884,E2,351.0,0.25,100,125.0
2885,D2,352.0,0.75,100,125.0
2886,G4,352.0,0.5,100,125.0
2887,B4,352.0,0.5,100,125.0
2888,F3,352.0,0.25,100,125.0
2889,B1,352.0,0.25,100,125.0
2890,G4,352.5,0.5,100,125.0
2891,B4,352.5,0.5,100,125.0
2892,C#2,352.75,0.25,100,125.0
2893,G4,353.0,1.0,100,125.0
2894,D5,353.0,1.0,100,125.0
2895,F3,353.0,0.25,100,125.0
2896,E2,353.0,0.25,100,125.0
2897,E-3,354.0,0.25,100,125.0
2898,B1,354.0,0.25,100,125.0
2899,B5,355.0,3.0,100,125.0
2900,G5,355.0,3.0,100,125.0
2901,E5,355.0,3.0,100,125.0
2902,B4,355.0,3.0,100,125.0
2903,E-3,355.0,0.25,100,125.0
2904,E2,355.0,0.25,100,125.0
2905,F1,355.75,0.25,100,125.0
2906,B1,355.75,0.25,100,125.0
2907,B1,356.0,0.25,100,125.0
2908,E-3,356.0,0.25,100,125.0
2909,B1,356.0,0.25,100,125.0
2910,B1,356.5,0.5,100,125.0
2911,B1,356.5,0.25,100,125.0
2912,D2,357.0,0.5,100,125.0
2913,E2,357.0,0.25,100,125.0
2914,C#3,357.0,0.25,100,125.0
2915,D2,357.5,0.5,100,125.0
2916,E2,358.0,1.5,100,125.0
2917,B3,358.0,0.25,100,125.0
2918,B1,358.0,0.25,100,125.0
2919,F3,359.0,0.25,100,125.0
2920,E2,359.0,0.25,100,125.0
2921,D2,360.0,0.75,100,125.0
2922,G4,360.0,1.0,100,125.0
2923,B4,360.0,1.0,100,125.0
2924,F3,360.0,0.25,100,125.0
2925,B1,360.0,0.25,100,125.0
2926,C#2,360.75,0.25,100,125.0
2927,G4,361.0,1.0,100,125.0
2928,D5,361.0,1.0,100,125.0
2929,F3,361.0,0.25,100,125.0
2930,E2,361.0,0.25,100,125.0
2931,E5,362.0,0.5,100,125.0
2932,B4,362.0,0.5,100,125.0
2933,E-3,362.0,0.25,100,125.0
2934,B1,362.0,0.25,100,125.0
2935,D2,362.5,0.25,100,125.0
2936,D2,362.75,0.25,100,125.0
2937,B5,363.0,3.0,100,125.0
2938,G5,363.0,3.0,100,125.0
2939,E5,363.0,3.0,100,125.0
2940,B4,363.0,3.0,100,125.0
2941,D2,363.0,0.25,100,125.0
2942,G#2,363.0,0.25,100,125.0
2943,B1,363.25,0.25,100,125.0
2944,B1,363.75,0.25,100,125.0
2945,D2,364.0,0.25,100,125.0
2946,D2,364.0,0.25,100,125.0
2947,G#2,364.0,0.25,100,125.0
2948,B1,364.0,0.25,100,125.0
2949,D2,364.25,0.25,100,125.0
2950,D2,364.5,0.5,100,125.0
2951,D2,364.5,0.25,100,125.0
2952,D2,364.75,0.25,100,125.0
2953,B1,364.875,0.125,100,125.0
2954,D2,364.875,0.125,100,125.0
2955,E2,365.0,0.5,100,125.0
2956,E2,365.0,0.25,100,125.0
2957,G#2,365.0,0.25,100,125.0
2958,B1,365.25,0.25,100,125.0
2959,E2,365.5,0.5,100,125.0
2960,G2,366.0,1.0,100,125.0
2961,B1,366.0,0.25,100,125.0
2962,A3,366.0,0.25,100,125.0
2963,B-1,367.0,1.0,100,125.0
2964,E2,367.0,0.25,100,125.0
2965,E-3,367.0,0.25,100,125.0
2966,C2,368.0,1.0,100,125.0
2967,G4,368.0,0.75,100,125.0
2968,B4,368.0,0.75,100,125.0
2969,B1,368.0,0.25,100,125.0
2970,E-3,368.0,0.25,100,125.0
2971,G4,368.75,0.25,100,125.0
2972,B4,368.75,0.25,100,125.0
2973,F2,369.0,1.0,100,125.0
2974,G4,369.0,0.5,100,125.0
2975,D5,369.0,0.5,100,125.0
2976,E2,369.0,0.25,100,125.0
2977,E-3,369.0,0.25,100,125.0
2978,B4,369.5,0.5,100,125.0
2979,E5,369.5,0.5,100,125.0
2980,G2,370.0,1.0,100,125.0
2981,B1,370.0,0.25,100,125.0
2982,E-3,370.0,0.25,100,125.0
2983,B-1,371.0,1.0,100,125.0
2984,B5,371.0,3.0,100,125.0
2985,G5,371.0,3.0,100,125.0
2986,E5,371.0,3.0,100,125.0
2987,B4,371.0,3.0,100,125.0
2988,E2,371.0,0.25,100,125.0
2989,E-3,371.0,0.25,100,125.0
2990,B1,371.75,0.25,100,125.0
2991,C2,372.0,1.0,100,125.0
2992,B1,372.0,0.25,100,125.0
2993,E-3,372.0,0.25,100,125.0
2994,B1,372.5,0.25,100,125.0
2995,F2,373.0,1.0,100,125.0
2996,E2,373.0,0.25,100,125.0
2997,C#3,373.0,0.25,100,125.0
2998,G2,374.0,0.25,100,125.0
2999,B1,374.0,0.25,100,125.0
3000,E-3,374.0,0.25,100,125.0
3001,E-2,374.25,0.25,100,125.0
3002,C2,374.5,0.25,100,125.0
3003,B-1,374.75,0.25,100,125.0
3004,B-1,375.0,1.0,100,125.0
3005,E2,375.0,0.25,100,125.0
3006,E-3,375.0,0.25,100,125.0
3007,C2,376.0,1.0,100,125.0
3008,G4,376.0,0.5,100,125.0
3009,B4,376.0,0.5,100,125.0
3010,B1,376.0,0.25,100,125.0
3011,E-3,376.0,0.25,100,125.0
3012,G4,376.5,0.5,100,125.0
3013,B4,376.5,0.5,100,125.0
3014,C#2,377.0,1.0,100,125.0
3015,G4,377.0,1.0,100,125.0
3016,D5,377.0,1.0,100,125.0
3017,E2,377.0,0.25,100,125.0
3018,E-3,377.0,0.25,100,125.0
3019,D2,378.0,1.0,100,125.0
3020,B1,378.0,0.25,100,125.0
3021,F3,378.0,0.25,100,125.0
3022,E2,379.0,1.0,100,125.0
3023,B5,379.0,3.0,100,125.0
3024,G5,379.0,3.0,100,125.0
3025,E5,379.0,3.0,100,125.0
3026,B4,379.0,3.0,100,125.0
3027,E2,379.0,0.25,100,125.0
3028,F3,379.0,0.25,100,125.0
3029,B1,379.75,0.25,100,125.0
3030,F2,380.0,0.25,100,125.0
3031,B1,380.0,0.25,100,125.0
3032,F3,380.0,0.25,100,125.0
3033,F2,380.5,0.5,100,125.0
3034,F3,380.5,0.25,100,125.0
3035,B1,380.5,0.25,100,125.0
3036,F3,380.75,0.25,100,125.0
3037,F#2,381.0,0.5,100,125.0
3038,E2,381.0,0.25,100,125.0
3039,B3,381.0,0.25,100,125.0
3040,F#2,381.5,0.5,100,125.0
3041,G2,382.0,1.0,100,125.0
3042,B3,382.0,0.25,100,125.0
3043,B1,382.0,0.25,100,125.0
3044,B-1,383.0,0.25,100,125.0
3045,F3,383.0,0.25,100,125.0
3046,E2,383.0,0.25,100,125.0
3047,B-1,383.5,0.5,100,125.0
3048,C2,384.0,1.0,100,125.0
3049,G4,384.0,1.0,100,125.0
3050,B4,384.0,1.0,100,125.0
3051,F3,384.0,0.25,100,125.0
3052,B1,384.0,0.25,100,125.0
3053,F2,385.0,0.75,100,125.0
3054,G4,385.0,1.0,100,125.0
3055,D5,385.0,1.0,100,125.0
3056,F3,385.0,0.25,100,125.0
3057,E2,385.0,0.25,100,125.0
3058,G2,385.75,0.25,100,125.0
3059,E-2,386.0,0.25,100,125.0
3060,E5,386.0,0.5,100,125.0
3061,B4,386.0,0.5,100,125.0
3062,E-3,386.0,0.25,100,125.0
3063,B1,386.0,0.25,100,125.0
3064,G2,386.25,0.25,100,125.0
3065,E-2,386.5,0.25,100,125.0
3066,G2,386.75,0.25,100,125.0
3067,B-1,387.0,1.0,100,125.0
3068,B5,387.0,3.0,100,125.0
3069,G5,387.0,3.0,100,125.0
3070,E5,387.0,3.0,100,125.0
3071,B4,387.0,3.0,100,125.0
3072,E-3,387.0,0.25,100,125.0
3073,E2,387.0,0.25,100,125.0
3074,B1,387.75,0.25,100,125.0
3075,C2,388.0,1.0,100,125.0
3076,E-3,388.0,0.25,100,125.0
3077,B1,388.0,0.25,100,125.0
3078,B1,388.5,0.25,100,125.0
3079,F2,389.0,1.0,100,125.0
3080,E2,389.0,0.25,100,125.0
3081,C#3,389.0,0.25,100,125.0
3082,G2,390.0,1.0,100,125.0
3083,B1,390.0,0.25,100,125.0
3084,B3,390.0,0.25,100,125.0
3085,B-1,391.0,1.0,100,125.0
3086,E2,391.0,0.25,100,125.0
3087,F3,391.0,0.25,100,125.0
3088,C2,392.0,1.0,100,125.0
3089,G4,392.0,1.0,100,125.0
3090,B4,392.0,1.0,100,125.0
3091,B1,392.0,0.25,100,125.0
3092,F3,392.0,0.25,100,125.0
3093,F2,393.0,1.0,100,125.0
3094,G4,393.0,1.0,100,125.0
3095,D5,393.0,1.0,100,125.0
3096,E2,393.0,0.25,100,125.0
3097,F3,393.0,0.25,100,125.0
3098,G2,394.0,1.0,100,125.0
3099,E5,394.0,0.5,100,125.0
3100,B4,394.0,0.5,100,125.0
3101,B1,394.0,0.25,100,125.0
3102,E-3,394.0,0.25,100,125.0
3103,B-1,395.0,1.0,100,125.0
3104,B5,395.0,3.0,100,125.0
3105,G5,395.0,3.0,100,125.0
3106,E5,395.0,3.0,100,125.0
3107,B4,395.0,3.0,100,125.0
3108,E-3,395.0,0.25,100,125.0
3109,D2,395.0,0.25,100,125.0
3110,C2,396.0,1.0,100,125.0
3111,E-3,396.0,0.25,100,125.0
3112,B1,396.0,0.25,100,125.0
3113,G#2,396.0,0.25,100,125.0
3114,E-4,396.983,0.25,100,125.0
3115,F2,397.0,1.0,100,125.0
3116,E-3,397.0,0.25,100,125.0
3117,D2,397.0,0.25,100,125.0
3118,G#2,397.0,0.25,100,125.0
3119,E-4,397.017,0.25,100,125.0
3120,E-4,397.233,0.25,100,125.0
3121,E-4,397.267,0.25,100,125.0
3122,E-4,397.483,0.25,100,125.0
3123,E2,397.5,0.125,100,125.0
3124,E-4,397.517,0.25,100,125.0
3125,E-4,397.733,0.25,100,125.0
3126,B1,397.75,0.125,100,125.0
3127,B-2,397.75,0.125,100,125.0
3128,E-4,397.767,233/1000,100,125.0
3129,E-4,398.0,17/1000,100,125.0
3130,F1,398.0,1.0,100,125.0
3131,G#2,398.0,0.125,100,125.0
3132,A3,398.0,0.25,100,125.0
3133,B1,398.0,0.25,100,125.0
3134,G#2,398.0,0.25,100,125.0
3135,A1,398.0,0.25,100,125.0
3136,E-4,398.233,0.25,100,125.0
3137,E-4,398.267,0.25,100,125.0
3138,A3,398.483,0.25,100,125.0
3139,A1,398.5,0.25,100,125.0
3140,A3,398.517,0.25,100,125.0
3141,A1,398.75,0.25,100,125.0
3142,C4,398.983,0.5,100,125.0
3143,F#1,399.0,1.0,100,125.0
3144,E2,399.0,0.25,100,125.0
3145,F3,399.0,0.25,100,125.0
3146,A1,399.0,0.25,100,125.0
3147,C4,399.017,0.5,100,125.0
3148,C4,399.483,0.25,100,125.0
3149,G#2,399.5,0.25,100,125.0
3150,A1,399.5,0.25,100,125.0
3151,C4,399.517,0.25,100,125.0
3152,E-4,399.733,0.25,100,125.0
3153,A1,399.75,0.25,100,125.0
3154,E-4,399.767,0.25,100,125.0
3155,G1,400.0,1.0,100,125.0
3156,G4,400.0,1.0,100,125.0
3157,E5,400.0,1.0,100,125.0
3158,B1,400.0,0.25,100,125.0
3159,F3,400.0,0.25,100,125.0
3160,A1,400.0,0.25,100,125.0
3161,G#2,400.5,0.25,100,125.0
3162,A1,400.5,0.25,100,125.0
3163,A1,400.75,0.25,100,125.0
3164,F#4,400.983,0.125,100,125.0
3165,G4,401.0,1.0,100,125.0
3166,G#1,401.0,1.0,100,125.0
3167,E2,401.0,0.25,100,125.0
3168,F3,401.0,0.25,100,125.0
3169,A1,401.0,0.25,100,125.0
3170,F#4,401.017,0.125,100,125.0
3171,E4,401.108,0.125,100,125.0
3172,E4,401.142,0.125,100,125.0
3173,E-4,401.233,0.25,100,125.0
3174,E-4,401.267,0.25,100,125.0
3175,F#4,401.483,0.25,100,125.0
3176,G#2,401.5,0.25,100,125.0
3177,A1,401.5,0.25,100,125.0
3178,F#4,401.517,0.25,100,125.0
3179,E-4,401.733,0.25,100,125.0
3180,B1,401.75,0.25,100,125.0
3181,A1,401.75,0.25,100,125.0
3182,E-4,401.767,233/1000,100,125.0
3183,E-4,402.0,17/1000,100,125.0
3184,F1,402.0,1.0,100,125.0
3185,G5,402.0,4.0,100,125.0
3186,D5,402.0,4.0,100,125.0
3187,A4,402.0,4.0,100,125.0
3188,F3,402.0,0.25,100,125.0
3189,B1,402.0,0.25,100,125.0
3190,G#2,402.0,0.25,100,125.0
3191,A1,402.0,0.25,100,125.0
3192,A3,402.233,0.25,100,125.0
3193,A3,402.267,0.25,100,125.0
3194,A1,402.5,0.25,100,125.0
3195,A1,402.75,0.25,100,125.0
3196,C4,402.983,0.25,100,125.0
3197,F#1,403.0,1.0,100,125.0
3198,E2,403.0,0.25,100,125.0
3199,F3,403.0,0.25,100,125.0
3200,A1,403.0,0.25,100,125.0
3201,C4,403.017,0.25,100,125.0
3202,C4,403.233,0.25,100,125.0
3203,C4,403.267,0.25,100,125.0
3204,C4,403.483,0.5,100,125.0
3205,G#2,403.5,0.25,100,125.0
3206,A1,403.5,0.25,100,125.0
3207,C4,403.517,0.5,100,125.0
3208,A1,403.75,0.25,100,125.0
3209,G1,404.0,1.0,100,125.0
3210,B1,404.0,0.25,100,125.0
3211,F3,404.0,0.25,100,125.0
3212,A1,404.0,0.25,100,125.0
3213,G#2,404.5,0.25,100,125.0
3214,A1,404.5,0.25,100,125.0
3215,A1,404.75,0.25,100,125.0
3216,E-4,404.983,0.25,100,125.0
3217,E2,405.0,0.25,100,125.0
3218,F3,405.0,0.25,100,125.0
3219,A1,405.0,0.25,100,125.0
3220,E-4,405.017,0.25,100,125.0
3221,E-4,405.233,0.25,100,125.0
3222,G#1,405.25,0.25,100,125.0
3223,B1,405.25,0.25,100,125.0
3224,B-2,405.25,0.25,100,125.0
3225,E-4,405.267,0.25,100,125.0
3226,E-4,405.483,0.25,100,125.0
3227,G#2,405.5,0.25,100,125.0
3228,A1,405.5,0.25,100,125.0
3229,E-4,405.517,0.25,100,125.0
3230,E-4,405.733,0.25,100,125.0
3231,G#1,405.75,0.25,100,125.0
3232,B1,405.75,0.25,100,125.0
3233,B-2,405.75,0.25,100,125.0
3234,A1,405.75,0.25,100,125.0
3235,E-4,405.767,233/1000,100,125.0
3236,E-4,406.0,17/1000,100,125.0
3237,F1,406.0,1.0,100,125.0
3238,F3,406.0,0.25,100,125.0
3239,B1,406.0,0.25,100,125.0
3240,G#2,406.0,0.25,100,125.0
3241,A1,406.0,0.25,100,125.0
3242,A3,406.233,0.25,100,125.0
3243,A3,406.267,0.25,100,125.0
3244,A1,406.5,0.25,100,125.0
3245,A1,406.75,0.25,100,125.0
3246,C4,406.983,1.0,100,125.0
3247,F#1,407.0,1.0,100,125.0
3248,E2,407.0,0.25,100,125.0
3249,F3,407.0,0.25,100,125.0
3250,A1,407.0,0.25,100,125.0
3251,C4,407.017,1.0,100,125.0
3252,G#2,407.5,0.25,100,125.0
3253,A1,407.5,0.25,100,125.0
3254,A1,407.75,0.25,100,125.0
3255,E-4,407.983,1.0,100,125.0
3256,G1,408.0,1.0,100,125.0
3257,B1,408.0,0.25,100,125.0
3258,F3,408.0,0.25,100,125.0
3259,A1,408.0,0.25,100,125.0
3260,E-4,408.017,1.0,100,125.0
3261,G#2,408.5,0.25,100,125.0
3262,A1,408.5,0.25,100,125.0
3263,A1,408.75,0.25,100,125.0
3264,G4,408.983,1.0,100,125.0
3265,G#1,409.0,1.0,100,125.0
3266,E2,409.0,0.25,100,125.0
3267,F3,409.0,0.25,100,125.0
3268,A1,409.0,0.25,100,125.0
3269,G4,409.017,983/1000,100,125.0
3270,G#2,409.5,0.25,100,125.0
3271,A1,409.5,0.25,100,125.0
3272,B1,409.75,0.25,100,125.0
3273,B-2,409.75,0.25,100,125.0
3274,A1,409.75,0.25,100,125.0
3275,G#4,409.983,17/1000,100,125.0
3276,G#4,410.0,983/1000,100,125.0
3277,G4,410.0,17/1000,100,125.0
3278,A1,410.0,1.0,100,125.0
3279,F3,410.0,0.25,100,125.0
3280,B1,410.0,0.25,100,125.0
3281,G#2,410.0,0.25,100,125.0
3282,A1,410.0,0.25,100,125.0
3283,G#4,410.017,1.0,100,125.0
3284,A1,410.5,0.25,100,125.0
3285,A1,410.75,0.25,100,125.0
3286,F4,410.983,0.25,100,125.0
3287,B-1,411.0,1.0,100,125.0
3288,E2,411.0,0.25,100,125.0
3289,F3,411.0,0.25,100,125.0
3290,A1,411.0,0.25,100,125.0
3291,F4,411.017,0.25,100,125.0
3292,F#4,411.233,0.25,100,125.0
3293,F#4,411.267,0.25,100,125.0
3294,F4,411.483,0.25,100,125.0
3295,G#2,411.5,0.25,100,125.0
3296,A1,411.5,0.25,100,125.0
3297,F4,411.517,0.25,100,125.0
3298,E-4,411.733,1.5,100,125.0
3299,A1,411.75,0.25,100,125.0
3300,E-4,411.767,1.5,100,125.0
3301,B1,412.0,1.0,100,125.0
3302,F4,412.0,0.125,100,125.0
3303,B1,412.0,0.25,100,125.0
3304,F3,412.0,0.25,100,125.0
3305,A1,412.0,0.25,100,125.0
3306,F4,412.125,0.125,100,125.0
3307,F4,412.25,0.125,100,125.0
3308,F4,412.375,0.125,100,125.0
3309,G#2,412.5,0.25,100,125.0
3310,F4,412.5,0.25,100,125.0
3311,A1,412.5,0.25,100,125.0
3312,E2,412.75,0.25,100,125.0
3313,F4,412.75,0.25,100,125.0
3314,A1,412.75,0.25,100,125.0
3315,C2,413.0,1.0,100,125.0
3316,E2,413.0,0.25,100,125.0
3317,F3,413.0,0.25,100,125.0
3318,A1,413.0,0.25,100,125.0
3319,E-4,413.233,0.25,100,125.0
3320,F4,413.25,0.25,100,125.0
3321,E-4,413.267,0.25,100,125.0
3322,G#2,413.5,0.25,100,125.0
3323,F4,413.5,0.25,100,125.0
3324,A1,413.5,0.25,100,125.0
3325,E-4,413.733,0.25,100,125.0
3326,B1,413.75,0.25,100,125.0
3327,B-2,413.75,0.25,100,125.0
3328,F4,413.75,0.25,100,125.0
3329,A1,413.75,0.25,100,125.0
3330,E-4,413.767,233/1000,100,125.0
3331,E-4,414.0,17/1000,100,125.0
3332,F1,414.0,1.0,100,125.0
3333,C#3,414.0,0.25,100,125.0
3334,B1,414.0,0.25,100,125.0
3335,G#2,414.0,0.25,100,125.0
3336,A1,414.0,0.25,100,125.0
3337,E-4,414.233,0.25,100,125.0
3338,E-4,414.267,0.25,100,125.0
3339,A3,414.483,0.5,100,125.0
3340,A1,414.5,0.25,100,125.0
3341,A3,414.517,0.5,100,125.0
3342,A1,414.75,0.25,100,125.0
3343,C4,414.983,0.5,100,125.0
3344,F#1,415.0,1.0,100,125.0
3345,E2,415.0,0.25,100,125.0
3346,F3,415.0,0.25,100,125.0
3347,A1,415.0,0.25,100,125.0
3348,C4,415.017,0.5,100,125.0
3349,C4,415.483,0.25,100,125.0
3350,G#2,415.5,0.25,100,125.0
3351,A1,415.5,0.25,100,125.0
3352,C4,415.517,0.25,100,125.0
3353,E-4,415.733,0.25,100,125.0
3354,A1,415.75,0.25,100,125.0
3355,E-4,415.767,0.25,100,125.0
3356,G1,416.0,1.0,100,125.0
3357,B1,416.0,0.25,100,125.0
3358,F3,416.0,0.25,100,125.0
3359,A1,416.0,0.25,100,125.0
3360,G#2,416.5,0.25,100,125.0
3361,A1,416.5,0.25,100,125.0
3362,A1,416.75,0.25,100,125.0
3363,F#4,416.983,0.125,100,125.0
3364,G#1,417.0,1.0,100,125.0
3365,C#3,417.0,0.25,100,125.0
3366,E2,417.0,0.25,100,125.0
3367,F3,417.0,0.25,100,125.0
3368,A1,417.0,0.25,100,125.0
3369,F#4,417.017,0.125,100,125.0
3370,E4,417.108,0.125,100,125.0
3371,E4,417.142,0.125,100,125.0
3372,E-4,417.233,0.25,100,125.0
3373,E-4,417.267,0.25,100,125.0
3374,F#4,417.483,0.25,100,125.0
3375,G#2,417.5,0.25,100,125.0
3376,A1,417.5,0.25,100,125.0
3377,F#4,417.517,0.25,100,125.0
3378,E-4,417.733,0.25,100,125.0
3379,B1,417.75,0.25,100,125.0
3380,B-2,417.75,0.25,100,125.0
3381,A1,417.75,0.25,100,125.0
3382,E-4,417.767,233/1000,100,125.0
3383,E-4,418.0,17/1000,100,125.0
3384,F1,418.0,1.0,100,125.0
3385,G5,418.0,4.0,100,125.0
3386,D5,418.0,4.0,100,125.0
3387,A4,418.0,4.0,100,125.0
3388,F3,418.0,0.25,100,125.0
3389,B1,418.0,0.25,100,125.0
3390,G#2,418.0,0.25,100,125.0
3391,A1,418.0,0.25,100,125.0
3392,A3,418.233,0.25,100,125.0
3393,A3,418.267,0.25,100,125.0
3394,A1,418.5,0.25,100,125.0
3395,A1,418.75,0.25,100,125.0
3396,C4,418.983,0.5,100,125.0
3397,F#1,419.0,1.0,100,125.0
3398,E2,419.0,0.25,100,125.0
3399,F3,419.0,0.25,100,125.0
3400,A1,419.0,0.25,100,125.0
3401,C4,419.017,0.5,100,125.0
3402,C4,419.483,0.5,100,125.0
3403,G#2,419.5,0.25,100,125.0
3404,A1,419.5,0.25,100,125.0
3405,C4,419.517,0.5,100,125.0
3406,A1,419.75,0.25,100,125.0
3407,G1,420.0,1.0,100,125.0
3408,B1,420.0,0.25,100,125.0
3409,F3,420.0,0.25,100,125.0
3410,A1,420.0,0.25,100,125.0
3411,G#2,420.5,0.25,100,125.0
3412,E2,420.75,0.25,100,125.0
3413,F#4,420.983,0.125,100,125.0
3414,E2,421.0,0.25,100,125.0
3415,F3,421.0,0.25,100,125.0
3416,F4,421.0,0.25,100,125.0
3417,F#4,421.017,0.125,100,125.0
3418,E4,421.108,0.125,100,125.0
3419,E4,421.142,0.125,100,125.0
3420,E-4,421.233,0.25,100,125.0
3421,G#1,421.25,0.25,100,125.0
3422,E-4,421.267,0.25,100,125.0
3423,F#4,421.483,0.25,100,125.0
3424,B1,421.5,0.25,100,125.0
3425,G#2,421.5,0.25,100,125.0
3426,F4,421.5,0.25,100,125.0
3427,F#4,421.517,0.25,100,125.0
3428,E-4,421.733,0.25,100,125.0
3429,G#1,421.75,0.25,100,125.0
3430,E-4,421.767,233/1000,100,125.0
3431,E-4,422.0,17/1000,100,125.0
3432,F1,422.0,1.0,100,125.0
3433,B1,422.0,0.25,100,125.0
3434,C#3,422.0,0.25,100,125.0
3435,F3,422.0,0.25,100,125.0
3436,B1,422.0,0.25,100,125.0
3437,G#2,422.0,0.25,100,125.0
3438,A1,422.0,0.25,100,125.0
3439,A3,422.233,0.25,100,125.0
3440,A3,422.267,0.25,100,125.0
3441,B3,422.5,0.25,100,125.0
3442,A1,422.5,0.25,100,125.0
3443,A1,422.75,0.25,100,125.0
3444,C4,422.983,1.0,100,125.0
3445,F#1,423.0,1.0,100,125.0
3446,E2,423.0,0.25,100,125.0
3447,B-2,423.0,0.25,100,125.0
3448,E2,423.0,0.25,100,125.0
3449,F3,423.0,0.25,100,125.0
3450,A1,423.0,0.25,100,125.0
3451,C4,423.017,1.0,100,125.0
3452,B3,423.5,0.25,100,125.0
3453,G#2,423.5,0.25,100,125.0
3454,A1,423.5,0.25,100,125.0
3455,B1,423.75,0.25,100,125.0
3456,A1,423.75,0.25,100,125.0
3457,E-4,423.983,1.0,100,125.0
3458,G1,424.0,1.0,100,125.0
3459,B1,424.0,0.25,100,125.0
3460,B-2,424.0,0.25,100,125.0
3461,B1,424.0,0.25,100,125.0
3462,F3,424.0,0.25,100,125.0
3463,A1,424.0,0.25,100,125.0
3464,E-4,424.017,1.0,100,125.0
3465,B3,424.5,0.25,100,125.0
3466,G#2,424.5,0.25,100,125.0
3467,A1,424.5,0.25,100,125.0
3468,A1,424.75,0.25,100,125.0
3469,G4,424.983,1.0,100,125.0
3470,G#1,425.0,1.0,100,125.0
3471,E2,425.0,0.25,100,125.0
3472,B-2,425.0,0.25,100,125.0
3473,C#3,425.0,0.25,100,125.0
3474,E2,425.0,0.25,100,125.0
3475,F3,425.0,0.25,100,125.0
3476,A1,425.0,0.25,100,125.0
3477,G4,425.017,983/1000,100,125.0
3478,B3,425.5,0.25,100,125.0
3479,G#2,425.5,0.25,100,125.0
3480,A1,425.5,0.25,100,125.0
3481,B1,425.75,0.25,100,125.0
3482,B1,425.75,0.25,100,125.0
3483,B-2,425.75,0.25,100,125.0
3484,A1,425.75,0.25,100,125.0
3485,G#4,425.983,17/1000,100,125.0
3486,G#4,426.0,983/1000,100,125.0
3487,G4,426.0,17/1000,100,125.0
3488,A1,426.0,1.0,100,125.0
3489,B-2,426.0,0.25,100,125.0
3490,B1,426.0,0.25,100,125.0
3491,A1,426.0,0.25,100,125.0
3492,G#4,426.017,1.0,100,125.0
3493,A1,426.5,0.25,100,125.0
3494,A1,426.75,0.25,100,125.0
3495,F4,426.983,0.25,100,125.0
3496,B-1,427.0,1.0,100,125.0
3497,B-2,427.0,0.25,100,125.0
3498,E2,427.0,0.25,100,125.0
3499,A1,427.0,0.25,100,125.0
3500,F4,427.017,0.25,100,125.0
3501,F#4,427.233,0.25,100,125.0
3502,B1,427.25,0.25,100,125.0
3503,F#4,427.267,0.25,100,125.0
3504,F4,427.483,0.25,100,125.0
3505,A1,427.5,0.25,100,125.0
3506,F4,427.517,0.25,100,125.0
3507,E-5,427.733,267/1000,100,125.0
3508,A1,427.75,0.25,100,125.0
3509,E-5,427.767,233/1000,100,125.0
3510,E-5,428.0,4.0,100,125.0
3511,E-5,428.0,4.0,100,125.0
3512,B1,428.0,4.0,100,125.0
3513,B1,428.0,0.25,100,125.0
3514,F#2,428.0,0.25,100,125.0
3515,A1,428.0,0.25,100,125.0
3516,E2,429.0,0.25,100,125.0
3517,B-2,429.0,0.25,100,125.0
3518,G5,430.0,4.0,100,125.0
3519,D5,430.0,4.0,100,125.0
3520,A4,430.0,4.0,100,125.0
3521,B1,430.0,0.25,100,125.0
3522,F#2,430.0,0.25,100,125.0
3523,E2,431.0,0.25,100,125.0
3524,B-2,431.0,0.25,100,125.0
3525,E-5,432.0,3983/1000,100,125.0
3526,E-5,432.0,4.0,100,125.0
3527,B1,432.0,4.0,100,125.0
3528,F#2,432.0,0.25,100,125.0
3529,B1,432.0,0.25,100,125.0
3530,E2,432.75,0.125,100,125.0
3531,E2,432.875,0.125,100,125.0
3532,D2,433.0,0.125,100,125.0
3533,D2,433.25,0.25,100,125.0
3534,D2,433.75,0.25,100,125.0
3535,D2,434.25,0.25,100,125.0
3536,E2,434.75,0.25,100,125.0
3537,D2,435.0,0.25,100,125.0
3538,E-5,436.0,17/1000,100,125.0
3539,B1,436.0,0.25,100,125.0
3540,C#3,436.0,0.25,100,125.0
3541,G5,438.0,4.0,100,125.0
3542,D5,438.0,4.0,100,125.0
3543,A4,438.0,4.0,100,125.0
3544,A4,442.0,4.0,100,125.0
3545,G5,442.0,4.0,100,125.0
3546,D5,442.0,4.0,100,125.0
3547,A4,458.0,4.0,100,125.0
3548,G5,458.0,4.0,100,125.0
3549,D5,458.0,4.0,100,125.0
3550,A4,462.0,2.0,100,125.0
3551,G5,462.0,4.0,100,125.0
3552,D5,462.0,4.0,100,125.0
3553,F4,464.0,2.0,100,125.0
3554,G4,466.0,4.0,100,125.0
3555,G5,466.0,4.0,100,125.0
3556,D5,466.0,4.0,100,125.0
3557,C4,470.0,1.0,100,125.0
3558,A4,470.0,1.0,100,125.0
3559,C#4,471.0,1.0,100,125.0
3560,B-4,471.0,1.0,100,125.0
3561,D4,472.0,1.0,100,125.0
3562,B4,472.0,1.0,100,125.0
3563,E-4,473.0,1.0,100,125.0
3564,C5,473.0,1.0,100,125.0
3565,C4,474.0,1.0,100,125.0
3566,A4,474.0,1.0,100,125.0
3567,C#4,475.0,1.0,100,125.0
3568,B-4,475.0,1.0,100,125.0
3569,D4,476.0,1.0,100,125.0
3570,B4,476.0,1.0,100,125.0
3571,E-4,477.0,1.0,100,125.0
3572,C5,477.0,1.0,100,125.0
3573,C4,478.0,1.0,100,125.0
3574,A4,478.0,1.0,100,125.0
3575,C#4,479.0,1.0,100,125.0
3576,B-4,479.0,1.0,100,125.0
3577,D4,480.0,1.0,100,125.0
3578,B4,480.0,1.0,100,125.0
3579,E-4,481.0,1.0,100,125.0
3580,C5,481.0,1.0,100,125.0
3581,E4,482.0,1.0,100,125.0
3582,C#5,482.0,1.0,100,125.0
3583,F4,483.0,1.0,100,125.0
3584,D5,483.0,1.0,100,125.0
3585,F#4,484.0,1.0,100,125.0
3586,E-5,484.0,2.0,100,125.0
3587,C4,486.0,1.0,100,125.0
3588,A4,486.0,1.0,100,125.0
3589,C#4,487.0,1.0,100,125.0
3590,B-4,487.0,1.0,100,125.0
3591,D4,488.0,1.0,100,125.0
3592,B4,488.0,1.0,100,125.0
3593,E-4,489.0,1.0,100,125.0
3594,C5,489.0,1.0,100,125.0
3595,C4,490.0,1.0,100,125.0
3596,A4,490.0,1.0,100,125.0
3597,C#4,491.0,1.0,100,125.0
3598,B-4,491.0,1.0,100,125.0
3599,D4,492.0,1.0,100,125.0
3600,B4,492.0,1.0,100,125.0
3601,E-4,493.0,1.0,100,125.0
3602,C5,493.0,1.0,100,125.0
3603,C4,494.0,1.0,100,125.0
3604,A4,494.0,1.0,100,125.0
3605,C#4,495.0,1.0,100,125.0
3606,B-4,495.0,1.0,100,125.0
3607,D4,496.0,1.0,100,125.0
3608,B4,496.0,1.0,100,125.0
3609,E-4,497.0,1.0,100,125.0
3610,C5,497.0,1.0,100,125.0
3611,E4,498.0,1.0,100,125.0
3612,C#5,498.0,1.0,100,125.0
3613,F4,499.0,1.0,100,125.0
3614,D5,499.0,1.0,100,125.0
3615,F#4,500.0,4.0,100,125.0
3616,E-5,500.0,4.0,100,125.0
3617,F#4,508.0,4.0,100,125.0
3618,E-5,508.0,4.0,100,125.0
