,note_name,start_time,duration,velocity,tempo
0,G2,0.0,0.5,95,120.0
1,B3,0.5,0.5,95,120.0
2,G3,0.5,0.5,95,120.0
3,D3,0.5,0.5,95,120.0
4,B3,1.5,0.5,95,120.0
5,G3,1.5,0.5,95,120.0
6,D3,1.5,0.5,95,120.0
7,B3,2.5,0.5,95,120.0
8,G3,2.5,0.5,95,120.0
9,D3,2.5,0.5,95,120.0
10,C4,3.0,0.5,70,120.0
11,A3,3.0,0.5,70,120.0
12,E3,3.0,0.5,70,120.0
13,D4,3.5,0.5,95,120.0
14,B3,3.5,0.5,95,120.0
15,F#3,3.5,0.5,95,120.0
16,G2,4.0,0.5,95,120.0
17,B3,4.5,0.5,95,120.0
18,G3,4.5,0.5,95,120.0
19,D3,4.5,0.5,95,120.0
20,B3,5.5,0.5,95,120.0
21,G3,5.5,0.5,95,120.0
22,D3,5.5,0.5,95,120.0
23,B3,6.5,0.5,95,120.0
24,G3,6.5,0.5,95,120.0
25,D3,6.5,0.5,95,120.0
26,C4,7.0,0.5,70,120.0
27,A3,7.0,0.5,70,120.0
28,E3,7.0,0.5,70,120.0
29,D4,7.5,0.5,95,120.0
30,B3,7.5,0.5,95,120.0
31,F#3,7.5,0.5,95,120.0
32,G2,8.0,0.5,95,120.0
33,D3,8.5,0.5,95,120.0
34,D3,9.0,0.5,63,120.0
35,D4,9.0,0.5,63,120.0
36,B3,9.5,0.5,63,120.0
37,B4,9.5,0.5,63,120.0
38,G3,9.5,0.5,63,120.0
39,G4,9.5,0.5,63,120.0
40,G3,10.5,0.5,63,120.0
41,G4,10.5,0.5,63,120.0
42,D2,11.5,0.5,95,120.0
43,G2,12.0,0.5,95,120.0
44,D3,12.5,0.5,95,120.0
45,G3,13.0,0.5,95,120.0
46,B3,13.5,0.5,95,120.0
47,G3,14.5,0.5,95,120.0
48,D3,15.5,0.5,95,120.0
49,D5,16.0,0.5,95,120.0
50,B4,16.0,0.5,95,120.0
51,G2,16.0,0.5,95,120.0
52,D3,16.5,0.5,95,120.0
53,G3,17.0,0.5,95,120.0
54,B4,17.5,0.5,95,120.0
55,G4,17.5,0.5,95,120.0
56,G3,18.5,0.5,95,120.0
57,E5,19.0,0.5,95,120.0
58,C5,19.0,0.5,95,120.0
59,D3,19.5,0.5,95,120.0
60,D5,20.0,0.5,95,120.0
61,B4,20.0,0.5,95,120.0
62,G2,20.0,0.5,95,120.0
63,D3,20.5,0.5,95,120.0
64,G3,21.0,0.5,95,120.0
65,B4,21.5,0.5,95,120.0
66,G4,21.5,0.5,95,120.0
67,B3,22.5,0.5,95,120.0
68,G3,23.0,0.5,95,120.0
69,D3,23.5,0.5,95,120.0
70,G2,24.0,0.5,95,120.0
71,D3,24.5,0.5,95,120.0
72,D5,25.0,0.5,95,120.0
73,B4,25.0,0.5,95,120.0
74,D3,25.5,0.5,95,120.0
75,D5,26.0,0.5,95,120.0
76,B4,26.0,0.5,95,120.0
77,D2,26.0,0.5,95,120.0
78,D3,26.5,0.5,95,120.0
79,B4,27.0,0.5,95,120.0
80,G4,27.0,0.5,95,120.0
81,D3,27.5,0.5,95,120.0
82,C5,28.0,0.5,95,120.0
83,E4,28.0,0.5,95,120.0
84,D2,28.0,0.5,95,120.0
85,D3,28.5,0.5,95,120.0
86,B4,29.0,0.5,95,120.0
87,D4,29.0,0.5,95,120.0
88,A4,29.5,0.5,95,120.0
89,C4,29.5,0.5,95,120.0
90,D3,29.5,0.5,95,120.0
91,D3,30.5,0.5,95,120.0
92,D3,31.5,0.5,95,120.0
93,D2,32.0,0.5,95,120.0
94,D3,32.5,0.5,95,120.0
95,A4,33.0,0.5,95,120.0
96,C4,33.0,0.5,95,120.0
97,D3,33.5,0.5,95,120.0
98,A4,34.0,0.5,95,120.0
99,C4,34.0,0.5,95,120.0
100,B4,34.5,0.5,95,120.0
101,D4,34.5,0.5,95,120.0
102,D3,34.5,0.5,95,120.0
103,D3,35.5,0.5,95,120.0
104,C5,36.0,0.5,95,120.0
105,E4,36.0,0.5,95,120.0
106,D2,36.0,0.5,95,120.0
107,D5,36.5,0.5,95,120.0
108,F#4,36.5,0.5,95,120.0
109,D3,36.5,0.5,95,120.0
110,D5,37.0,0.5,95,120.0
111,F#4,37.0,0.5,95,120.0
112,E5,37.5,0.5,95,120.0
113,G4,37.5,0.5,95,120.0
114,D3,37.5,0.5,95,120.0
115,D3,38.5,0.5,95,120.0
116,B4,39.5,0.5,95,120.0
117,D4,39.5,0.5,95,120.0
118,D3,39.5,0.5,95,120.0
119,D5,40.0,0.5,95,120.0
120,F#4,40.0,0.5,95,120.0
121,D2,40.0,0.5,95,120.0
122,D3,40.5,0.5,95,120.0
123,D5,41.0,0.5,95,120.0
124,F#4,41.0,0.5,95,120.0
125,C5,41.5,0.5,95,120.0
126,E4,41.5,0.5,95,120.0
127,D3,41.5,0.5,95,120.0
128,B4,42.0,0.5,95,120.0
129,D4,42.0,0.5,95,120.0
130,A4,42.5,0.5,95,120.0
131,C4,42.5,0.5,95,120.0
132,D3,42.5,0.5,95,120.0
133,G4,43.5,0.5,95,120.0
134,G2,43.5,0.5,95,120.0
135,B3,44.5,0.5,95,120.0
136,G3,44.5,0.5,95,120.0
137,D3,44.5,0.5,95,120.0
138,B3,45.5,0.5,95,120.0
139,G3,45.5,0.5,95,120.0
140,D3,45.5,0.5,95,120.0
141,B3,46.5,0.5,95,120.0
142,G3,46.5,0.5,95,120.0
143,D3,46.5,0.5,95,120.0
144,C4,47.0,0.5,70,120.0
145,A3,47.0,0.5,70,120.0
146,E3,47.0,0.5,70,120.0
147,D4,47.5,0.5,95,120.0
148,B3,47.5,0.5,95,120.0
149,F#3,47.5,0.5,95,120.0
150,G2,48.0,0.5,95,120.0
151,D3,48.5,0.5,95,120.0
152,D3,49.0,0.5,63,120.0
153,D4,49.0,0.5,63,120.0
154,B3,49.5,0.5,63,120.0
155,B4,49.5,0.5,63,120.0
156,G3,49.5,0.5,63,120.0
157,G4,49.5,0.5,63,120.0
158,G3,50.5,0.5,63,120.0
159,G4,50.5,0.5,63,120.0
160,D2,51.5,0.5,95,120.0
161,D5,52.0,0.5,95,120.0
162,B4,52.0,0.5,95,120.0
163,G2,52.0,0.5,95,120.0
164,D3,52.5,0.5,95,120.0
165,G3,53.0,0.5,95,120.0
166,B4,53.5,0.5,95,120.0
167,G4,53.5,0.5,95,120.0
168,G3,54.5,0.5,95,120.0
169,E5,55.0,0.5,95,120.0
170,C5,55.0,0.5,95,120.0
171,D3,55.5,0.5,95,120.0
172,D5,56.0,0.5,95,120.0
173,B4,56.0,0.5,95,120.0
174,G2,56.0,0.5,95,120.0
175,G3,56.5,0.5,95,120.0
176,G3,57.0,0.5,95,120.0
177,B4,57.5,0.5,95,120.0
178,G4,57.5,0.5,95,120.0
179,B3,58.5,0.5,95,120.0
180,G3,59.0,0.5,95,120.0
181,D3,59.5,0.5,95,120.0
182,G2,60.0,0.5,95,120.0
183,D3,60.5,0.5,95,120.0
184,D5,61.0,0.5,95,120.0
185,B4,61.0,0.5,95,120.0
186,D3,61.5,0.5,95,120.0
187,D5,62.0,0.5,95,120.0
188,B4,62.0,0.5,95,120.0
189,D2,62.0,0.5,95,120.0
190,D3,62.5,0.5,95,120.0
191,B4,63.0,0.5,95,120.0
192,G4,63.0,0.5,95,120.0
193,D3,63.5,0.5,95,120.0
194,C5,64.0,0.5,95,120.0
195,E4,64.0,0.5,95,120.0
196,D2,64.0,0.5,95,120.0
197,D3,64.5,0.5,95,120.0
198,B4,65.0,0.5,95,120.0
199,D4,65.0,0.5,95,120.0
200,A4,65.5,0.5,95,120.0
201,C4,65.5,0.5,95,120.0
202,D3,65.5,0.5,95,120.0
203,D3,66.5,0.5,95,120.0
204,D3,67.5,0.5,95,120.0
205,D2,68.0,0.5,95,120.0
206,D3,68.5,0.5,95,120.0
207,A4,69.0,0.5,95,120.0
208,C4,69.0,0.5,95,120.0
209,D3,69.5,0.5,95,120.0
210,A4,70.0,0.5,95,120.0
211,C4,70.0,0.5,95,120.0
212,B4,70.5,0.5,95,120.0
213,D4,70.5,0.5,95,120.0
214,D3,70.5,0.5,95,120.0
215,D3,71.5,0.5,95,120.0
216,C5,72.0,0.5,95,120.0
217,E4,72.0,0.5,95,120.0
218,D2,72.0,0.5,95,120.0
219,D5,72.5,0.5,95,120.0
220,F#4,72.5,0.5,95,120.0
221,D3,72.5,0.5,95,120.0
222,D5,73.0,0.5,95,120.0
223,F#4,73.0,0.5,95,120.0
224,E5,73.5,0.5,95,120.0
225,G4,73.5,0.5,95,120.0
226,D3,73.5,0.5,95,120.0
227,D3,74.5,0.5,95,120.0
228,E5,75.5,0.5,95,120.0
229,G4,75.5,0.5,95,120.0
230,D3,75.5,0.5,95,120.0
231,D5,76.0,0.5,95,120.0
232,F#4,76.0,0.5,95,120.0
233,D2,76.0,0.5,95,120.0
234,D3,76.5,0.5,95,120.0
235,D5,77.0,0.5,95,120.0
236,F#4,77.0,0.5,95,120.0
237,C5,77.5,0.5,95,120.0
238,E4,77.5,0.5,95,120.0
239,D3,77.5,0.5,95,120.0
240,B4,78.0,0.5,95,120.0
241,D4,78.0,0.5,95,120.0
242,A4,78.5,0.5,95,120.0
243,C4,78.5,0.5,95,120.0
244,D3,78.5,0.5,95,120.0
245,G4,79.5,0.5,95,120.0
246,G2,79.5,0.5,95,120.0
247,G2,80.0,0.5,95,120.0
248,B3,80.5,0.5,95,120.0
249,G3,80.5,0.5,95,120.0
250,D3,80.5,0.5,95,120.0
251,B3,81.5,0.5,95,120.0
252,G3,81.5,0.5,95,120.0
253,D3,81.5,0.5,95,120.0
254,B3,82.5,0.5,95,120.0
255,G3,82.5,0.5,95,120.0
256,D3,82.5,0.5,95,120.0
257,C4,83.0,0.5,70,120.0
258,A3,83.0,0.5,70,120.0
259,E3,83.0,0.5,70,120.0
260,D4,83.5,0.5,95,120.0
261,B3,83.5,0.5,95,120.0
262,F#3,83.5,0.5,95,120.0
263,G2,84.0,0.5,95,120.0
264,B3,84.5,0.5,95,120.0
265,G3,84.5,0.5,95,120.0
266,D3,84.5,0.5,95,120.0
267,B3,85.5,0.5,95,120.0
268,G3,85.5,0.5,95,120.0
269,D3,85.5,0.5,95,120.0
270,B3,86.5,0.5,95,120.0
271,G3,86.5,0.5,95,120.0
272,D3,86.5,0.5,95,120.0
273,C4,87.0,0.5,70,120.0
274,A3,87.0,0.5,70,120.0
275,E3,87.0,0.5,70,120.0
276,D4,87.5,0.5,95,120.0
277,B3,87.5,0.5,95,120.0
278,F#3,87.5,0.5,95,120.0
279,G4,88.0,0.5,95,120.0
280,G2,88.0,0.5,95,120.0
281,D3,88.5,167/1000,95,120.0
282,G3,88.667,167/1000,95,120.0
283,B3,88.833,167/1000,95,120.0
284,G4,89.0,0.5,95,120.0
285,B3,89.5,0.5,95,120.0
286,G3,89.5,0.5,95,120.0
287,G4,90.0,0.5,95,120.0
288,G2,90.0,0.5,95,120.0
289,D3,90.5,0.5,95,120.0
290,A4,91.0,0.5,95,120.0
291,B4,91.5,0.5,95,120.0
292,E4,92.0,0.5,95,120.0
293,E2,92.0,0.5,95,120.0
294,E3,92.5,167/1000,95,120.0
295,G3,92.667,167/1000,95,120.0
296,B3,92.833,167/1000,95,120.0
297,E4,93.0,0.5,95,120.0
298,B3,93.5,0.5,95,120.0
299,G3,93.5,0.5,95,120.0
300,D3,93.5,0.5,95,120.0
301,E2,94.0,0.5,95,120.0
302,G3,94.5,0.5,95,120.0
303,D3,94.5,0.5,95,120.0
304,D4,95.0,0.5,95,120.0
305,G3,95.5,0.5,95,120.0
306,D3,95.5,0.5,95,120.0
307,E4,96.0,0.5,95,120.0
308,C4,96.0,0.5,95,120.0
309,C3,96.0,0.5,95,120.0
310,G3,96.5,0.5,95,120.0
311,G4,97.0,0.5,95,120.0
312,E4,97.0,0.5,95,120.0
313,C4,97.0,0.5,95,120.0
314,G3,97.5,0.5,95,120.0
315,G4,98.0,0.5,95,120.0
316,E4,98.0,0.5,95,120.0
317,C4,98.0,0.5,95,120.0
318,D2,98.0,0.5,95,120.0
319,G4,98.5,0.5,95,120.0
320,E4,98.5,0.5,95,120.0
321,C4,98.5,0.5,95,120.0
322,F#3,99.0,0.5,95,120.0
323,E4,99.5,0.5,95,120.0
324,C4,99.5,0.5,95,120.0
325,G4,100.0,0.5,95,120.0
326,D4,100.0,0.5,95,120.0
327,B3,100.0,0.5,95,120.0
328,G2,100.0,0.5,95,120.0
329,D3,100.5,0.5,95,120.0
330,D4,101.5,0.25,95,120.0
331,B3,101.5,0.25,95,120.0
332,E4,101.75,0.25,70,120.0
333,C4,101.75,0.25,70,120.0
334,D4,102.0,0.5,70,120.0
335,B3,102.0,0.5,70,120.0
336,E4,102.5,0.25,95,120.0
337,C4,102.5,0.25,95,120.0
338,F#4,102.75,0.25,70,120.0
339,D4,102.75,0.25,70,120.0
340,E4,103.0,0.5,70,120.0
341,C4,103.0,0.5,70,120.0
342,D4,103.5,0.5,95,120.0
343,G4,104.0,0.5,95,120.0
344,G2,104.0,0.5,95,120.0
345,D3,104.5,167/1000,95,120.0
346,G3,104.667,167/1000,95,120.0
347,B3,104.833,167/1000,95,120.0
348,G4,105.0,0.5,95,120.0
349,B3,105.5,0.5,95,120.0
350,G3,105.5,0.5,95,120.0
351,G4,106.0,0.5,95,120.0
352,G2,106.0,0.5,95,120.0
353,D3,106.5,0.5,95,120.0
354,A4,107.0,0.5,95,120.0
355,B4,107.5,0.5,95,120.0
356,E4,108.0,0.5,95,120.0
357,E2,108.0,0.5,95,120.0
358,E3,108.5,167/1000,95,120.0
359,G3,108.667,167/1000,95,120.0
360,B3,108.833,167/1000,95,120.0
361,E4,109.0,0.5,95,120.0
362,B3,109.5,0.5,95,120.0
363,G3,109.5,0.5,95,120.0
364,D3,109.5,0.5,95,120.0
365,E2,110.0,0.5,95,120.0
366,G3,110.5,0.5,95,120.0
367,D3,110.5,0.5,95,120.0
368,D4,111.0,0.5,95,120.0
369,G3,111.5,0.5,95,120.0
370,D3,111.5,0.5,95,120.0
371,E4,112.0,0.5,95,120.0
372,C4,112.0,0.5,95,120.0
373,C3,112.0,0.5,95,120.0
374,G3,112.5,0.5,95,120.0
375,G4,113.0,0.5,95,120.0
376,E4,113.0,0.5,95,120.0
377,C4,113.0,0.5,95,120.0
378,G3,113.5,0.5,95,120.0
379,G4,114.0,0.5,95,120.0
380,E4,114.0,0.5,95,120.0
381,C4,114.0,0.5,95,120.0
382,D2,114.0,0.5,95,120.0
383,G4,114.5,0.5,95,120.0
384,E4,114.5,0.5,95,120.0
385,C4,114.5,0.5,95,120.0
386,F#3,115.0,0.5,95,120.0
387,E4,115.5,0.5,95,120.0
388,C4,115.5,0.5,95,120.0
389,G4,116.0,0.5,95,120.0
390,D4,116.0,0.5,95,120.0
391,B3,116.0,0.5,95,120.0
392,G2,116.0,0.5,95,120.0
393,D3,116.5,0.5,95,120.0
394,D4,117.5,0.25,95,120.0
395,B3,117.5,0.25,95,120.0
396,E4,117.75,0.25,70,120.0
397,C4,117.75,0.25,70,120.0
398,D4,118.0,0.5,70,120.0
399,B3,118.0,0.5,70,120.0
400,D2,118.5,0.5,95,120.0
401,B4,119.0,0.5,95,120.0
402,C5,119.5,0.5,95,120.0
403,D5,120.0,0.5,95,120.0
404,G2,120.0,0.5,95,120.0
405,D3,120.5,0.5,95,120.0
406,D5,121.0,0.5,95,120.0
407,B3,121.0,0.5,95,120.0
408,E4,121.0,0.5,95,120.0
409,D3,121.5,0.5,95,120.0
410,D5,122.0,0.5,95,120.0
411,D2,122.0,0.5,95,120.0
412,B4,122.5,0.5,95,120.0
413,A4,123.0,0.5,95,120.0
414,D3,123.0,0.5,95,120.0
415,G4,123.5,0.5,95,120.0
416,E4,124.0,0.5,95,120.0
417,E2,124.0,0.5,95,120.0
418,E3,124.5,167/1000,95,120.0
419,G3,124.667,167/1000,95,120.0
420,B3,124.833,167/1000,95,120.0
421,E4,125.0,0.5,95,120.0
422,B3,125.5,0.5,95,120.0
423,G3,125.5,0.5,95,120.0
424,D3,125.5,0.5,95,120.0
425,E2,126.0,0.5,95,120.0
426,G3,126.5,0.5,95,120.0
427,D3,126.5,0.5,95,120.0
428,D4,127.0,0.5,95,120.0
429,G3,127.5,0.5,95,120.0
430,D3,127.5,0.5,95,120.0
431,E4,128.0,0.5,95,120.0
432,C4,128.0,0.5,95,120.0
433,C3,128.0,0.5,95,120.0
434,G3,128.5,0.5,95,120.0
435,G4,129.0,0.5,95,120.0
436,E4,129.0,0.5,95,120.0
437,C4,129.0,0.5,95,120.0
438,G3,129.5,0.5,95,120.0
439,G4,130.0,0.5,95,120.0
440,E4,130.0,0.5,95,120.0
441,C4,130.0,0.5,95,120.0
442,D2,130.0,0.5,95,120.0
443,G4,130.5,0.5,95,120.0
444,E4,130.5,0.5,95,120.0
445,C4,130.5,0.5,95,120.0
446,F#3,131.0,0.5,95,120.0
447,E4,131.5,0.5,95,120.0
448,C4,131.5,0.5,95,120.0
449,B4,132.0,0.5,95,120.0
450,G2,132.0,0.5,95,120.0
451,D3,132.5,167/1000,95,120.0
452,G3,132.667,167/1000,95,120.0
453,B3,132.833,167/1000,95,120.0
454,B4,133.0,0.5,95,120.0
455,B3,133.5,0.5,95,120.0
456,G3,133.5,0.5,95,120.0
457,D2,134.0,0.5,95,120.0
458,B3,134.5,0.5,95,120.0
459,G3,134.5,0.5,95,120.0
460,D3,134.5,0.5,95,120.0
461,B4,135.0,0.5,95,120.0
462,C5,135.5,0.5,95,120.0
463,D5,136.0,0.5,95,120.0
464,F#4,136.0,0.5,95,120.0
465,G2,136.0,0.5,95,120.0
466,D3,136.5,0.5,95,120.0
467,D5,137.0,0.5,95,120.0
468,F#4,137.0,0.5,95,120.0
469,D5,137.5,0.5,95,120.0
470,E4,137.5,0.5,95,120.0
471,D3,137.5,0.5,95,120.0
472,B4,138.5,0.5,95,120.0
473,A4,139.0,0.5,95,120.0
474,G4,139.5,0.5,95,120.0
475,E4,140.0,0.5,95,120.0
476,E2,140.0,0.5,95,120.0
477,E3,140.5,167/1000,95,120.0
478,G3,140.667,167/1000,95,120.0
479,B3,140.833,167/1000,95,120.0
480,E4,141.0,0.5,95,120.0
481,B3,141.5,0.5,95,120.0
482,G3,141.5,0.5,95,120.0
483,D3,141.5,0.5,95,120.0
484,E2,142.0,0.5,95,120.0
485,G3,142.5,0.5,95,120.0
486,D3,142.5,0.5,95,120.0
487,D4,143.0,0.5,95,120.0
488,G3,143.5,0.5,95,120.0
489,D3,143.5,0.5,95,120.0
490,E4,144.0,0.5,95,120.0
491,C4,144.0,0.5,95,120.0
492,C3,144.0,0.5,95,120.0
493,G3,144.5,0.5,95,120.0
494,G4,145.0,0.5,95,120.0
495,E4,145.0,0.5,95,120.0
496,C4,145.0,0.5,95,120.0
497,G3,145.5,0.5,95,120.0
498,G4,146.0,0.5,95,120.0
499,E4,146.0,0.5,95,120.0
500,C4,146.0,0.5,95,120.0
501,D2,146.0,0.5,95,120.0
502,G4,146.5,0.5,95,120.0
503,E4,146.5,0.5,95,120.0
504,C4,146.5,0.5,95,120.0
505,F#3,147.0,0.5,95,120.0
506,E4,147.5,0.5,95,120.0
507,C4,147.5,0.5,95,120.0
508,G4,148.0,0.5,95,120.0
509,G2,148.0,0.5,95,120.0
510,B3,148.5,0.5,95,120.0
511,G3,148.5,0.5,95,120.0
512,D3,148.5,0.5,95,120.0
513,B3,149.5,0.5,95,120.0
514,G3,149.5,0.5,95,120.0
515,D3,149.5,0.5,95,120.0
516,B3,150.5,0.5,95,120.0
517,G3,150.5,0.5,95,120.0
518,D3,150.5,0.5,95,120.0
519,C4,151.0,0.5,70,120.0
520,A3,151.0,0.5,70,120.0
521,E3,151.0,0.5,70,120.0
522,D4,151.5,0.5,95,120.0
523,B3,151.5,0.5,95,120.0
524,F#3,151.5,0.5,95,120.0
525,G2,152.0,0.5,95,120.0
526,D3,152.5,0.5,95,120.0
527,D3,153.0,0.5,63,120.0
528,D4,153.0,0.5,63,120.0
529,B3,153.5,0.5,63,120.0
530,B4,153.5,0.5,63,120.0
531,G3,153.5,0.5,63,120.0
532,G4,153.5,0.5,63,120.0
533,G3,154.5,0.5,63,120.0
534,G4,154.5,0.5,63,120.0
535,D2,155.5,0.5,95,120.0
536,G2,156.0,0.5,95,120.0
537,D3,156.5,0.5,95,120.0
538,G3,157.0,0.5,95,120.0
539,B3,157.5,0.5,95,120.0
540,G3,158.5,0.5,95,120.0
541,D3,159.5,0.5,95,120.0
542,D5,160.0,0.5,95,120.0
543,B4,160.0,0.5,95,120.0
544,G2,160.0,0.5,95,120.0
545,D3,160.5,0.5,95,120.0
546,G3,161.0,0.5,95,120.0
547,B4,161.5,0.5,95,120.0
548,G4,161.5,0.5,95,120.0
549,G3,162.5,0.5,95,120.0
550,E5,163.0,0.5,95,120.0
551,C5,163.0,0.5,95,120.0
552,D3,163.5,0.5,95,120.0
553,D5,164.0,0.5,95,120.0
554,B4,164.0,0.5,95,120.0
555,G2,164.0,0.5,95,120.0
556,D3,164.5,0.5,95,120.0
557,G3,165.0,0.5,95,120.0
558,B4,165.5,0.5,95,120.0
559,G4,165.5,0.5,95,120.0
560,B3,166.5,0.5,95,120.0
561,G3,167.0,0.5,95,120.0
562,D3,167.5,0.5,95,120.0
563,G2,168.0,0.5,95,120.0
564,D3,168.5,0.5,95,120.0
565,D5,169.0,0.5,95,120.0
566,B4,169.0,0.5,95,120.0
567,D3,169.5,0.5,95,120.0
568,D5,170.0,0.5,95,120.0
569,B4,170.0,0.5,95,120.0
570,D2,170.0,0.5,95,120.0
571,D3,170.5,0.5,95,120.0
572,B4,171.0,0.5,95,120.0
573,G4,171.0,0.5,95,120.0
574,D3,171.5,0.5,95,120.0
575,C5,172.0,0.5,95,120.0
576,E4,172.0,0.5,95,120.0
577,D2,172.0,0.5,95,120.0
578,D3,172.5,0.5,95,120.0
579,B4,173.0,0.5,95,120.0
580,D4,173.0,0.5,95,120.0
581,A4,173.5,0.5,95,120.0
582,C4,173.5,0.5,95,120.0
583,D3,173.5,0.5,95,120.0
584,D3,174.5,0.5,95,120.0
585,D3,175.5,0.5,95,120.0
586,D2,176.0,0.5,95,120.0
587,D3,176.5,0.5,95,120.0
588,A4,177.0,0.5,95,120.0
589,C4,177.0,0.5,95,120.0
590,D3,177.5,0.5,95,120.0
591,A4,178.0,0.5,95,120.0
592,C4,178.0,0.5,95,120.0
593,B4,178.5,0.5,95,120.0
594,D4,178.5,0.5,95,120.0
595,D3,178.5,0.5,95,120.0
596,D3,179.5,0.5,95,120.0
597,C5,180.0,0.5,95,120.0
598,E4,180.0,0.5,95,120.0
599,D2,180.0,0.5,95,120.0
600,D5,180.5,0.5,95,120.0
601,F#4,180.5,0.5,95,120.0
602,D3,180.5,0.5,95,120.0
603,D5,181.0,0.5,95,120.0
604,F#4,181.0,0.5,95,120.0
605,E5,181.5,0.5,95,120.0
606,G4,181.5,0.5,95,120.0
607,D3,181.5,0.5,95,120.0
608,D3,182.5,0.5,95,120.0
609,B4,183.5,0.5,95,120.0
610,D4,183.5,0.5,95,120.0
611,D3,183.5,0.5,95,120.0
612,D5,184.0,0.5,95,120.0
613,F#4,184.0,0.5,95,120.0
614,D2,184.0,0.5,95,120.0
615,D3,184.5,0.5,95,120.0
616,D5,185.0,0.5,95,120.0
617,F#4,185.0,0.5,95,120.0
618,C5,185.5,0.5,95,120.0
619,E4,185.5,0.5,95,120.0
620,D3,185.5,0.5,95,120.0
621,B4,186.0,0.5,95,120.0
622,D4,186.0,0.5,95,120.0
623,A4,186.5,0.5,95,120.0
624,C4,186.5,0.5,95,120.0
625,D3,186.5,0.5,95,120.0
626,G4,187.5,0.5,95,120.0
627,G2,187.5,0.5,95,120.0
628,B3,188.5,0.5,95,120.0
629,G3,188.5,0.5,95,120.0
630,D3,188.5,0.5,95,120.0
631,B3,189.5,0.5,95,120.0
632,G3,189.5,0.5,95,120.0
633,D3,189.5,0.5,95,120.0
634,B3,190.5,0.5,95,120.0
635,G3,190.5,0.5,95,120.0
636,D3,190.5,0.5,95,120.0
637,C4,191.0,0.5,70,120.0
638,A3,191.0,0.5,70,120.0
639,E3,191.0,0.5,70,120.0
640,D4,191.5,0.5,95,120.0
641,B3,191.5,0.5,95,120.0
642,F#3,191.5,0.5,95,120.0
643,G2,192.0,0.5,95,120.0
644,D3,192.5,0.5,95,120.0
645,D3,193.0,0.5,63,120.0
646,D4,193.0,0.5,63,120.0
647,B3,193.5,0.5,63,120.0
648,B4,193.5,0.5,63,120.0
649,G3,193.5,0.5,63,120.0
650,G4,193.5,0.5,63,120.0
651,G3,194.5,0.5,63,120.0
652,G4,194.5,0.5,63,120.0
653,D2,195.5,0.5,95,120.0
654,D5,196.0,0.5,95,120.0
655,B4,196.0,0.5,95,120.0
656,G2,196.0,0.5,95,120.0
657,D3,196.5,0.5,95,120.0
658,G3,197.0,0.5,95,120.0
659,B4,197.5,0.5,95,120.0
660,G4,197.5,0.5,95,120.0
661,G3,198.5,0.5,95,120.0
662,E5,199.0,0.5,95,120.0
663,C5,199.0,0.5,95,120.0
664,D3,199.5,0.5,95,120.0
665,D5,200.0,0.5,95,120.0
666,B4,200.0,0.5,95,120.0
667,G2,200.0,0.5,95,120.0
668,G3,200.5,0.5,95,120.0
669,G3,201.0,0.5,95,120.0
670,B4,201.5,0.5,95,120.0
671,G4,201.5,0.5,95,120.0
672,B3,202.5,0.5,95,120.0
673,G3,203.0,0.5,95,120.0
674,D3,203.5,0.5,95,120.0
675,G2,204.0,0.5,95,120.0
676,D3,204.5,0.5,95,120.0
677,D5,205.0,0.5,95,120.0
678,B4,205.0,0.5,95,120.0
679,D3,205.5,0.5,95,120.0
680,D5,206.0,0.5,95,120.0
681,B4,206.0,0.5,95,120.0
682,D2,206.0,0.5,95,120.0
683,D3,206.5,0.5,95,120.0
684,B4,207.0,0.5,95,120.0
685,G4,207.0,0.5,95,120.0
686,D3,207.5,0.5,95,120.0
687,C5,208.0,0.5,95,120.0
688,E4,208.0,0.5,95,120.0
689,D2,208.0,0.5,95,120.0
690,D3,208.5,0.5,95,120.0
691,B4,209.0,0.5,95,120.0
692,D4,209.0,0.5,95,120.0
693,A4,209.5,0.5,95,120.0
694,C4,209.5,0.5,95,120.0
695,D3,209.5,0.5,95,120.0
696,D3,210.5,0.5,95,120.0
697,D3,211.5,0.5,95,120.0
698,D2,212.0,0.5,95,120.0
699,D3,212.5,0.5,95,120.0
700,A4,213.0,0.5,95,120.0
701,C4,213.0,0.5,95,120.0
702,D3,213.5,0.5,95,120.0
703,A4,214.0,0.5,95,120.0
704,C4,214.0,0.5,95,120.0
705,B4,214.5,0.5,95,120.0
706,D4,214.5,0.5,95,120.0
707,D3,214.5,0.5,95,120.0
708,D3,215.5,0.5,95,120.0
709,C5,216.0,0.5,95,120.0
710,E4,216.0,0.5,95,120.0
711,D2,216.0,0.5,95,120.0
712,D5,216.5,0.5,95,120.0
713,F#4,216.5,0.5,95,120.0
714,D3,216.5,0.5,95,120.0
715,D5,217.0,0.5,95,120.0
716,F#4,217.0,0.5,95,120.0
717,E5,217.5,0.5,95,120.0
718,G4,217.5,0.5,95,120.0
719,D3,217.5,0.5,95,120.0
720,D3,218.5,0.5,95,120.0
721,E5,219.5,0.5,95,120.0
722,G4,219.5,0.5,95,120.0
723,D3,219.5,0.5,95,120.0
724,D5,220.0,0.5,95,120.0
725,F#4,220.0,0.5,95,120.0
726,D2,220.0,0.5,95,120.0
727,D3,220.5,0.5,95,120.0
728,D5,221.0,0.5,95,120.0
729,F#4,221.0,0.5,95,120.0
730,C5,221.5,0.5,95,120.0
731,E4,221.5,0.5,95,120.0
732,D3,221.5,0.5,95,120.0
733,B4,222.0,0.5,95,120.0
734,D4,222.0,0.5,95,120.0
735,A4,222.5,0.5,95,120.0
736,C4,222.5,0.5,95,120.0
737,D3,222.5,0.5,95,120.0
738,G4,223.5,0.5,95,120.0
739,G2,223.5,0.5,95,120.0
740,G2,224.0,0.5,95,120.0
741,B3,224.5,0.5,95,120.0
742,G3,224.5,0.5,95,120.0
743,D3,224.5,0.5,95,120.0
744,B3,225.5,0.5,95,120.0
745,G3,225.5,0.5,95,120.0
746,D3,225.5,0.5,95,120.0
747,B3,226.5,0.5,95,120.0
748,G3,226.5,0.5,95,120.0
749,D3,226.5,0.5,95,120.0
750,C4,227.0,0.5,70,120.0
751,A3,227.0,0.5,70,120.0
752,E3,227.0,0.5,70,120.0
753,D4,227.5,0.5,95,120.0
754,B3,227.5,0.5,95,120.0
755,F#3,227.5,0.5,95,120.0
756,G2,228.0,0.5,95,120.0
757,B3,228.5,0.5,95,120.0
758,G3,228.5,0.5,95,120.0
759,D3,228.5,0.5,95,120.0
760,B3,229.5,0.5,95,120.0
761,G3,229.5,0.5,95,120.0
762,D3,229.5,0.5,95,120.0
763,B3,230.5,0.5,95,120.0
764,G3,230.5,0.5,95,120.0
765,D3,230.5,0.5,95,120.0
766,C4,231.0,0.5,70,120.0
767,A3,231.0,0.5,70,120.0
768,E3,231.0,0.5,70,120.0
769,D4,231.5,0.5,95,120.0
770,B3,231.5,0.5,95,120.0
771,F#3,231.5,0.5,95,120.0
772,G4,232.0,0.5,95,120.0
773,G2,232.0,0.5,95,120.0
774,D3,232.5,167/1000,95,120.0
775,G3,232.667,167/1000,95,120.0
776,B3,232.833,167/1000,95,120.0
777,G4,233.0,0.5,95,120.0
778,B3,233.5,0.5,95,120.0
779,G3,233.5,0.5,95,120.0
780,G4,234.0,0.5,95,120.0
781,G2,234.0,0.5,95,120.0
782,D3,234.5,0.5,95,120.0
783,A4,235.0,0.5,95,120.0
784,B4,235.5,0.5,95,120.0
785,E4,236.0,0.5,95,120.0
786,E2,236.0,0.5,95,120.0
787,E3,236.5,167/1000,95,120.0
788,G3,236.667,167/1000,95,120.0
789,B3,236.833,167/1000,95,120.0
790,E4,237.0,0.5,95,120.0
791,B3,237.5,0.5,95,120.0
792,G3,237.5,0.5,95,120.0
793,D3,237.5,0.5,95,120.0
794,E2,238.0,0.5,95,120.0
795,G3,238.5,0.5,95,120.0
796,D3,238.5,0.5,95,120.0
797,D4,239.0,0.5,95,120.0
798,G3,239.5,0.5,95,120.0
799,D3,239.5,0.5,95,120.0
800,E4,240.0,0.5,95,120.0
801,C4,240.0,0.5,95,120.0
802,C3,240.0,0.5,95,120.0
803,G3,240.5,0.5,95,120.0
804,G4,241.0,0.5,95,120.0
805,E4,241.0,0.5,95,120.0
806,C4,241.0,0.5,95,120.0
807,G3,241.5,0.5,95,120.0
808,G4,242.0,0.5,95,120.0
809,E4,242.0,0.5,95,120.0
810,C4,242.0,0.5,95,120.0
811,D2,242.0,0.5,95,120.0
812,G4,242.5,0.5,95,120.0
813,E4,242.5,0.5,95,120.0
814,C4,242.5,0.5,95,120.0
815,F#3,243.0,0.5,95,120.0
816,E4,243.5,0.5,95,120.0
817,C4,243.5,0.5,95,120.0
818,G4,244.0,0.5,95,120.0
819,D4,244.0,0.5,95,120.0
820,B3,244.0,0.5,95,120.0
821,G2,244.0,0.5,95,120.0
822,D3,244.5,0.5,95,120.0
823,D4,245.5,0.25,95,120.0
824,B3,245.5,0.25,95,120.0
825,E4,245.75,0.25,70,120.0
826,C4,245.75,0.25,70,120.0
827,D4,246.0,0.5,70,120.0
828,B3,246.0,0.5,70,120.0
829,E4,246.5,0.25,95,120.0
830,C4,246.5,0.25,95,120.0
831,F#4,246.75,0.25,70,120.0
832,D4,246.75,0.25,70,120.0
833,E4,247.0,0.5,70,120.0
834,C4,247.0,0.5,70,120.0
835,D4,247.5,0.5,95,120.0
836,G4,248.0,0.5,95,120.0
837,G2,248.0,0.5,95,120.0
838,D3,248.5,167/1000,95,120.0
839,G3,248.667,167/1000,95,120.0
840,B3,248.833,167/1000,95,120.0
841,G4,249.0,0.5,95,120.0
842,B3,249.5,0.5,95,120.0
843,G3,249.5,0.5,95,120.0
844,G4,250.0,0.5,95,120.0
845,G2,250.0,0.5,95,120.0
846,D3,250.5,0.5,95,120.0
847,A4,251.0,0.5,95,120.0
848,B4,251.5,0.5,95,120.0
849,E4,252.0,0.5,95,120.0
850,E2,252.0,0.5,95,120.0
851,E3,252.5,167/1000,95,120.0
852,G3,252.667,167/1000,95,120.0
853,B3,252.833,167/1000,95,120.0
854,E4,253.0,0.5,95,120.0
855,B3,253.5,0.5,95,120.0
856,G3,253.5,0.5,95,120.0
857,D3,253.5,0.5,95,120.0
858,E2,254.0,0.5,95,120.0
859,G3,254.5,0.5,95,120.0
860,D3,254.5,0.5,95,120.0
861,D4,255.0,0.5,95,120.0
862,G3,255.5,0.5,95,120.0
863,D3,255.5,0.5,95,120.0
864,E4,256.0,0.5,95,120.0
865,C4,256.0,0.5,95,120.0
866,C3,256.0,0.5,95,120.0
867,G3,256.5,0.5,95,120.0
868,G4,257.0,0.5,95,120.0
869,E4,257.0,0.5,95,120.0
870,C4,257.0,0.5,95,120.0
871,G3,257.5,0.5,95,120.0
872,G4,258.0,0.5,95,120.0
873,E4,258.0,0.5,95,120.0
874,C4,258.0,0.5,95,120.0
875,D2,258.0,0.5,95,120.0
876,G4,258.5,0.5,95,120.0
877,E4,258.5,0.5,95,120.0
878,C4,258.5,0.5,95,120.0
879,F#3,259.0,0.5,95,120.0
880,E4,259.5,0.5,95,120.0
881,C4,259.5,0.5,95,120.0
882,G4,260.0,0.5,95,120.0
883,D4,260.0,0.5,95,120.0
884,B3,260.0,0.5,95,120.0
885,G2,260.0,0.5,95,120.0
886,D3,260.5,0.5,95,120.0
887,D4,261.5,0.25,95,120.0
888,B3,261.5,0.25,95,120.0
889,E4,261.75,0.25,70,120.0
890,C4,261.75,0.25,70,120.0
891,D4,262.0,0.5,70,120.0
892,B3,262.0,0.5,70,120.0
893,D2,262.5,0.5,95,120.0
894,B4,263.0,0.5,95,120.0
895,C5,263.5,0.5,95,120.0
896,D5,264.0,0.5,95,120.0
897,G2,264.0,0.5,95,120.0
898,D3,264.5,0.5,95,120.0
899,D5,265.0,0.5,95,120.0
900,B3,265.0,0.5,95,120.0
901,E4,265.0,0.5,95,120.0
902,D3,265.5,0.5,95,120.0
903,D5,266.0,0.5,95,120.0
904,D2,266.0,0.5,95,120.0
905,B4,266.5,0.5,95,120.0
906,A4,267.0,0.5,95,120.0
907,D3,267.0,0.5,95,120.0
908,G4,267.5,0.5,95,120.0
909,E4,268.0,0.5,95,120.0
910,E2,268.0,0.5,95,120.0
911,E3,268.5,167/1000,95,120.0
912,G3,268.667,167/1000,95,120.0
913,B3,268.833,167/1000,95,120.0
914,E4,269.0,0.5,95,120.0
915,B3,269.5,0.5,95,120.0
916,G3,269.5,0.5,95,120.0
917,D3,269.5,0.5,95,120.0
918,E2,270.0,0.5,95,120.0
919,G3,270.5,0.5,95,120.0
920,D3,270.5,0.5,95,120.0
921,D4,271.0,0.5,95,120.0
922,G3,271.5,0.5,95,120.0
923,D3,271.5,0.5,95,120.0
924,E4,272.0,0.5,95,120.0
925,C4,272.0,0.5,95,120.0
926,C3,272.0,0.5,95,120.0
927,G3,272.5,0.5,95,120.0
928,G4,273.0,0.5,95,120.0
929,E4,273.0,0.5,95,120.0
930,C4,273.0,0.5,95,120.0
931,G3,273.5,0.5,95,120.0
932,G4,274.0,0.5,95,120.0
933,E4,274.0,0.5,95,120.0
934,C4,274.0,0.5,95,120.0
935,D2,274.0,0.5,95,120.0
936,G4,274.5,0.5,95,120.0
937,E4,274.5,0.5,95,120.0
938,C4,274.5,0.5,95,120.0
939,F#3,275.0,0.5,95,120.0
940,E4,275.5,0.5,95,120.0
941,C4,275.5,0.5,95,120.0
942,B4,276.0,0.5,95,120.0
943,G2,276.0,0.5,95,120.0
944,D3,276.5,167/1000,95,120.0
945,G3,276.667,167/1000,95,120.0
946,B3,276.833,167/1000,95,120.0
947,B4,277.0,0.5,95,120.0
948,B3,277.5,0.5,95,120.0
949,G3,277.5,0.5,95,120.0
950,D2,278.0,0.5,95,120.0
951,B3,278.5,0.5,95,120.0
952,G3,278.5,0.5,95,120.0
953,D3,278.5,0.5,95,120.0
954,B4,279.0,0.5,95,120.0
955,C5,279.5,0.5,95,120.0
956,D5,280.0,0.5,95,120.0
957,F#4,280.0,0.5,95,120.0
958,G2,280.0,0.5,95,120.0
959,D3,280.5,0.5,95,120.0
960,D5,281.0,0.5,95,120.0
961,F#4,281.0,0.5,95,120.0
962,D5,281.5,0.5,95,120.0
963,E4,281.5,0.5,95,120.0
964,D3,281.5,0.5,95,120.0
965,B4,282.5,0.5,95,120.0
966,A4,283.0,0.5,95,120.0
967,G4,283.5,0.5,95,120.0
968,E4,284.0,0.5,95,120.0
969,E2,284.0,0.5,95,120.0
970,E3,284.5,167/1000,95,120.0
971,G3,284.667,167/1000,95,120.0
972,B3,284.833,167/1000,95,120.0
973,E4,285.0,0.5,95,120.0
974,B3,285.5,0.5,95,120.0
975,G3,285.5,0.5,95,120.0
976,D3,285.5,0.5,95,120.0
977,E2,286.0,0.5,95,120.0
978,G3,286.5,0.5,95,120.0
979,D3,286.5,0.5,95,120.0
980,D4,287.0,0.5,95,120.0
981,G3,287.5,0.5,95,120.0
982,D3,287.5,0.5,95,120.0
983,E4,288.0,0.5,95,120.0
984,C4,288.0,0.5,95,120.0
985,C3,288.0,0.5,95,120.0
986,G3,288.5,0.5,95,120.0
987,G4,289.0,0.5,95,120.0
988,E4,289.0,0.5,95,120.0
989,C4,289.0,0.5,95,120.0
990,G3,289.5,0.5,95,120.0
991,G4,290.0,0.5,95,120.0
992,E4,290.0,0.5,95,120.0
993,C4,290.0,0.5,95,120.0
994,D2,290.0,0.5,95,120.0
995,G4,290.5,0.5,95,120.0
996,E4,290.5,0.5,95,120.0
997,C4,290.5,0.5,95,120.0
998,F#3,291.0,0.5,95,120.0
999,E4,291.5,0.5,95,120.0
1000,C4,291.5,0.5,95,120.0
1001,G4,292.0,0.5,95,120.0
1002,G2,292.0,0.5,95,120.0
1003,B3,292.5,0.5,95,120.0
1004,G3,292.5,0.5,95,120.0
1005,D3,292.5,0.5,95,120.0
1006,B3,293.5,0.5,95,120.0
1007,G3,293.5,0.5,95,120.0
1008,D3,293.5,0.5,95,120.0
1009,B3,294.5,0.5,95,120.0
1010,G3,294.5,0.5,95,120.0
1011,D3,294.5,0.5,95,120.0
1012,C4,295.0,0.5,70,120.0
1013,A3,295.0,0.5,70,120.0
1014,E3,295.0,0.5,70,120.0
1015,D4,295.5,0.5,95,120.0
1016,B3,295.5,0.5,95,120.0
1017,F#3,295.5,0.5,95,120.0
1018,G2,296.0,0.5,95,120.0
1019,D3,296.5,0.5,95,120.0
1020,D3,297.0,0.5,63,120.0
1021,D4,297.0,0.5,63,120.0
1022,G3,297.5,0.5,63,120.0
1023,G4,297.5,0.5,63,120.0
1024,B3,298.0,0.5,63,120.0
1025,B4,298.0,0.5,63,120.0
1026,D4,298.5,0.5,95,120.0
1027,B3,299.0,0.5,63,120.0
1028,B4,299.0,0.5,63,120.0
1029,E4,299.5,0.5,63,120.0
1030,E5,299.5,0.5,63,120.0
1031,D4,300.0,0.5,95,120.0
1032,B3,300.5,2.0,63,120.0
1033,B4,300.5,2.0,63,120.0
1034,G2,300.5,2.0,63,120.0
1035,G3,300.5,2.0,63,120.0
