,note_name,start_time,duration,velocity,tempo
0,A2,1.0,1.0,111,170.0
1,A2,1.0,1.0,111,170.0
2,B2,2.0,1.0,111,170.0
3,B2,2.0,1.0,111,170.0
4,C#3,3.0,1.0,111,170.0
5,C#3,3.0,1.0,111,170.0
6,D3,4.0,1.0,111,170.0
7,D3,4.0,1.0,111,170.0
8,F#4,4.0,4.0,111,170.0
9,D4,4.0,4.0,111,170.0
10,A3,4.0,4.0,111,170.0
11,F#3,4.0,4.0,111,170.0
12,D3,4.0,4.0,111,170.0
13,A4,5.0,667/1000,111,170.0
14,F#3,5.0,667/1000,111,170.0
15,A4,5.0,667/1000,111,170.0
16,F#3,5.0,667/1000,111,170.0
17,A4,5.667,333/1000,111,170.0
18,A4,5.667,333/1000,111,170.0
19,A2,6.0,667/1000,111,170.0
20,A2,6.0,667/1000,111,170.0
21,A4,6.667,333/1000,111,170.0
22,A4,6.667,333/1000,111,170.0
23,F#3,7.0,1.0,111,170.0
24,F#3,7.0,1.0,111,170.0
25,G#4,8.0,1.0,111,170.0
26,G#2,8.0,1.0,111,170.0
27,G#4,8.0,4.0,111,170.0
28,D4,8.0,4.0,111,170.0
29,B3,8.0,4.0,111,170.0
30,E3,8.0,4.0,111,170.0
31,G#4,8.0,1.0,111,170.0
32,G#2,8.0,1.0,111,170.0
33,G#4,9.0,1.0,111,170.0
34,E3,9.0,1.0,111,170.0
35,G#4,9.0,1.0,111,170.0
36,E3,9.0,1.0,111,170.0
37,F#4,10.0,667/1000,111,170.0
38,G#2,10.0,667/1000,111,170.0
39,F#4,10.0,667/1000,111,170.0
40,G#2,10.0,667/1000,111,170.0
41,E4,10.667,333/1000,111,170.0
42,E4,10.667,333/1000,111,170.0
43,E3,11.0,1.0,111,170.0
44,E3,11.0,1.0,111,170.0
45,E4,12.0,1.0,111,170.0
46,A2,12.0,1.0,111,170.0
47,A4,12.0,4.0,111,170.0
48,C#4,12.0,4.0,111,170.0
49,A3,12.0,4.0,111,170.0
50,E3,12.0,4.0,111,170.0
51,C#3,12.0,4.0,111,170.0
52,A2,12.0,4.0,111,170.0
53,E4,12.0,1.0,111,170.0
54,A2,12.0,1.0,111,170.0
55,A3,13.0,1.0,111,170.0
56,E3,13.0,1.0,111,170.0
57,A3,13.0,1.0,111,170.0
58,E3,13.0,1.0,111,170.0
59,A2,14.0,667/1000,111,170.0
60,A2,14.0,667/1000,111,170.0
61,A3,14.667,333/1000,111,170.0
62,A3,14.667,333/1000,111,170.0
63,E3,15.0,667/1000,111,170.0
64,E3,15.0,667/1000,111,170.0
65,C#4,15.667,333/1000,111,170.0
66,C#4,15.667,333/1000,111,170.0
67,A2,16.0,1.0,111,170.0
68,A2,16.0,1.0,111,170.0
69,A4,16.0,4.0,111,170.0
70,C#4,16.0,4.0,111,170.0
71,A3,16.0,4.0,111,170.0
72,E3,16.0,4.0,111,170.0
73,C#3,16.0,4.0,111,170.0
74,A2,16.0,4.0,111,170.0
75,E3,17.0,1.0,111,170.0
76,E3,17.0,1.0,111,170.0
77,A2,18.0,667/1000,111,170.0
78,A2,18.0,667/1000,111,170.0
79,B3,18.667,333/1000,111,170.0
80,B3,18.667,333/1000,111,170.0
81,E3,19.0,1.0,111,170.0
82,E3,19.0,1.0,111,170.0
83,C#4,20.0,1.0,111,170.0
84,F#2,20.0,1.0,111,170.0
85,F#4,20.0,4.0,111,170.0
86,C#4,20.0,4.0,111,170.0
87,A3,20.0,4.0,111,170.0
88,F#3,20.0,4.0,111,170.0
89,C#3,20.0,4.0,111,170.0
90,F#2,20.0,4.0,111,170.0
91,C#4,20.0,1.0,111,170.0
92,F#2,20.0,1.0,111,170.0
93,F#3,21.0,667/1000,111,170.0
94,F#3,21.0,667/1000,111,170.0
95,C#4,21.667,333/1000,111,170.0
96,C#4,21.667,333/1000,111,170.0
97,F#2,22.0,667/1000,111,170.0
98,F#2,22.0,667/1000,111,170.0
99,A3,22.667,333/1000,111,170.0
100,A3,22.667,333/1000,111,170.0
101,F#3,23.0,667/1000,111,170.0
102,F#3,23.0,667/1000,111,170.0
103,F#4,23.667,333/1000,111,170.0
104,F#4,23.667,333/1000,111,170.0
105,D3,24.0,667/1000,111,170.0
106,D3,24.0,667/1000,111,170.0
107,F#4,24.0,4.0,111,170.0
108,D4,24.0,4.0,111,170.0
109,A3,24.0,4.0,111,170.0
110,F#3,24.0,4.0,111,170.0
111,D3,24.0,4.0,111,170.0
112,F#4,24.667,333/1000,111,170.0
113,F#4,24.667,333/1000,111,170.0
114,F#3,25.0,1.0,111,170.0
115,F#3,25.0,1.0,111,170.0
116,F#4,26.0,667/1000,111,170.0
117,A2,26.0,667/1000,111,170.0
118,F#4,26.0,667/1000,111,170.0
119,A2,26.0,667/1000,111,170.0
120,E4,26.667,333/1000,111,170.0
121,E4,26.667,333/1000,111,170.0
122,F#3,27.0,1.0,111,170.0
123,F#3,27.0,1.0,111,170.0
124,E4,28.0,667/1000,111,170.0
125,A2,28.0,667/1000,111,170.0
126,A4,28.0,4.0,111,170.0
127,C#4,28.0,4.0,111,170.0
128,A3,28.0,4.0,111,170.0
129,E3,28.0,4.0,111,170.0
130,C#3,28.0,4.0,111,170.0
131,A2,28.0,4.0,111,170.0
132,E4,28.0,667/1000,111,170.0
133,A2,28.0,667/1000,111,170.0
134,A3,28.667,333/1000,111,170.0
135,A3,28.667,333/1000,111,170.0
136,E3,29.0,667/1000,111,170.0
137,E3,29.0,667/1000,111,170.0
138,E4,29.667,333/1000,111,170.0
139,E4,29.667,333/1000,111,170.0
140,A2,30.0,1.0,111,170.0
141,A2,30.0,1.0,111,170.0
142,E3,31.0,1.0,111,170.0
143,E3,31.0,1.0,111,170.0
144,G#2,32.0,1.0,111,170.0
145,G#2,32.0,1.0,111,170.0
146,G#4,32.0,4.0,111,170.0
147,E4,32.0,4.0,111,170.0
148,B3,32.0,4.0,111,170.0
149,E3,32.0,4.0,111,170.0
150,E3,33.0,333/1000,111,170.0
151,E3,33.0,333/1000,111,170.0
152,B3,33.333,333/1000,111,170.0
153,B3,33.333,333/1000,111,170.0
154,E4,33.667,333/1000,111,170.0
155,E4,33.667,333/1000,111,170.0
156,G#2,34.0,667/1000,111,170.0
157,G#2,34.0,667/1000,111,170.0
158,D4,34.667,333/1000,111,170.0
159,D4,34.667,333/1000,111,170.0
160,E3,35.0,1.0,111,170.0
161,E3,35.0,1.0,111,170.0
162,C#4,36.0,1.0,111,170.0
163,A2,36.0,1.0,111,170.0
164,A4,36.0,4.0,111,170.0
165,C#4,36.0,4.0,111,170.0
166,A3,36.0,4.0,111,170.0
167,E3,36.0,4.0,111,170.0
168,C#3,36.0,4.0,111,170.0
169,A2,36.0,4.0,111,170.0
170,C#4,36.0,1.0,111,170.0
171,A2,36.0,1.0,111,170.0
172,E4,37.0,667/1000,111,170.0
173,E3,37.0,667/1000,111,170.0
174,E4,37.0,667/1000,111,170.0
175,E3,37.0,667/1000,111,170.0
176,C#4,37.667,333/1000,111,170.0
177,C#4,37.667,333/1000,111,170.0
178,E4,38.0,667/1000,111,170.0
179,A2,38.0,667/1000,111,170.0
180,E4,38.0,667/1000,111,170.0
181,A2,38.0,667/1000,111,170.0
182,C#4,38.667,333/1000,111,170.0
183,C#4,38.667,333/1000,111,170.0
184,E3,39.0,667/1000,111,170.0
185,E3,39.0,667/1000,111,170.0
186,E4,39.667,333/1000,111,170.0
187,E4,39.667,333/1000,111,170.0
188,G#2,40.0,667/1000,111,170.0
189,G#2,40.0,667/1000,111,170.0
190,G#4,40.0,4.0,111,170.0
191,D4,40.0,4.0,111,170.0
192,B3,40.0,4.0,111,170.0
193,E3,40.0,4.0,111,170.0
194,E4,40.667,333/1000,111,170.0
195,E4,40.667,333/1000,111,170.0
196,E3,41.0,667/1000,111,170.0
197,E3,41.0,667/1000,111,170.0
198,B3,41.667,333/1000,111,170.0
199,B3,41.667,333/1000,111,170.0
200,E4,42.0,667/1000,111,170.0
201,G#2,42.0,667/1000,111,170.0
202,E4,42.0,667/1000,111,170.0
203,G#2,42.0,667/1000,111,170.0
204,F#4,42.667,333/1000,111,170.0
205,F#4,42.667,333/1000,111,170.0
206,E3,43.0,1.0,111,170.0
207,E3,43.0,1.0,111,170.0
208,C4,44.0,667/1000,111,170.0
209,F#2,44.0,667/1000,111,170.0
210,F#4,44.0,4.0,111,170.0
211,C#4,44.0,4.0,111,170.0
212,A3,44.0,4.0,111,170.0
213,F#3,44.0,4.0,111,170.0
214,C#3,44.0,4.0,111,170.0
215,F#2,44.0,4.0,111,170.0
216,C4,44.0,667/1000,111,170.0
217,F#2,44.0,667/1000,111,170.0
218,A3,44.667,333/1000,111,170.0
219,A3,44.667,333/1000,111,170.0
220,C#4,45.0,667/1000,111,170.0
221,F#3,45.0,667/1000,111,170.0
222,C#4,45.0,667/1000,111,170.0
223,F#3,45.0,667/1000,111,170.0
224,B3,45.667,333/1000,111,170.0
225,B3,45.667,333/1000,111,170.0
226,C#3,46.0,667/1000,111,170.0
227,C#3,46.0,667/1000,111,170.0
228,C#4,46.667,333/1000,111,170.0
229,C#4,46.667,333/1000,111,170.0
230,F#3,47.0,1.0,111,170.0
231,F#3,47.0,1.0,111,170.0
232,B3,48.0,1.0,111,170.0
233,B2,48.0,1.0,111,170.0
234,F#4,48.0,4.0,111,170.0
235,E-4,48.0,4.0,111,170.0
236,B3,48.0,4.0,111,170.0
237,F#3,48.0,4.0,111,170.0
238,B2,48.0,4.0,111,170.0
239,B3,48.0,1.0,111,170.0
240,B2,48.0,1.0,111,170.0
241,E-4,49.0,1.0,111,170.0
242,F#3,49.0,1.0,111,170.0
243,E-4,49.0,1.0,111,170.0
244,F#3,49.0,1.0,111,170.0
245,F#2,50.0,667/1000,111,170.0
246,F#2,50.0,667/1000,111,170.0
247,E4,50.667,333/1000,111,170.0
248,E4,50.667,333/1000,111,170.0
249,F#4,51.0,1.0,111,170.0
250,F#3,51.0,1.0,111,170.0
251,F#4,51.0,1.0,111,170.0
252,F#3,51.0,1.0,111,170.0
253,G4,52.0,1.0,111,170.0
254,D4,52.0,1.0,111,170.0
255,G2,52.0,1.0,111,170.0
256,G4,52.0,2.0,111,170.0
257,D4,52.0,2.0,111,170.0
258,B3,52.0,2.0,111,170.0
259,G3,52.0,2.0,111,170.0
260,B2,52.0,2.0,111,170.0
261,G2,52.0,2.0,111,170.0
262,G4,52.0,1.0,111,170.0
263,D4,52.0,1.0,111,170.0
264,G2,52.0,1.0,111,170.0
265,G3,53.0,1.0,111,170.0
266,G3,53.0,1.0,111,170.0
267,F#4,54.0,1.0,111,170.0
268,D4,54.0,1.0,111,170.0
269,D3,54.0,1.0,111,170.0
270,F#4,54.0,2.0,111,170.0
271,D4,54.0,2.0,111,170.0
272,A3,54.0,2.0,111,170.0
273,F#3,54.0,2.0,111,170.0
274,D3,54.0,2.0,111,170.0
275,F#4,54.0,1.0,111,170.0
276,D4,54.0,1.0,111,170.0
277,D3,54.0,1.0,111,170.0
278,F#3,55.0,1.0,111,170.0
279,F#3,55.0,1.0,111,170.0
280,E4,56.0,1.0,111,170.0
281,G#2,56.0,1.0,111,170.0
282,G#4,56.0,4.0,111,170.0
283,E4,56.0,4.0,111,170.0
284,B3,56.0,4.0,111,170.0
285,E3,56.0,4.0,111,170.0
286,E4,56.0,1.0,111,170.0
287,G#2,56.0,1.0,111,170.0
288,E-4,57.0,1.0,111,170.0
289,E3,57.0,1.0,111,170.0
290,E-4,57.0,1.0,111,170.0
291,E3,57.0,1.0,111,170.0
292,D4,58.0,667/1000,111,170.0
293,G#2,58.0,667/1000,111,170.0
294,D4,58.0,667/1000,111,170.0
295,G#2,58.0,667/1000,111,170.0
296,C4,58.667,333/1000,111,170.0
297,C4,58.667,333/1000,111,170.0
298,C#4,59.0,667/1000,111,170.0
299,E3,59.0,667/1000,111,170.0
300,C#4,59.0,667/1000,111,170.0
301,E3,59.0,667/1000,111,170.0
302,A3,59.667,333/1000,111,170.0
303,A3,59.667,333/1000,111,170.0
304,A2,60.0,1.0,111,170.0
305,A2,60.0,1.0,111,170.0
306,A4,60.0,4.0,111,170.0
307,C#4,60.0,4.0,111,170.0
308,A3,60.0,4.0,111,170.0
309,E3,60.0,4.0,111,170.0
310,C#3,60.0,4.0,111,170.0
311,A2,60.0,4.0,111,170.0
312,A4,61.0,1.0,111,170.0
313,E3,61.0,1.0,111,170.0
314,A4,61.0,1.0,111,170.0
315,E3,61.0,1.0,111,170.0
316,A2,62.0,667/1000,111,170.0
317,A2,62.0,667/1000,111,170.0
318,E4,62.667,333/1000,111,170.0
319,E4,62.667,333/1000,111,170.0
320,E3,63.0,1.0,111,170.0
321,E3,63.0,1.0,111,170.0
322,A4,64.0,667/1000,111,170.0
323,A2,64.0,667/1000,111,170.0
324,A4,64.0,4.0,111,170.0
325,C#4,64.0,4.0,111,170.0
326,A3,64.0,4.0,111,170.0
327,E3,64.0,4.0,111,170.0
328,C#3,64.0,4.0,111,170.0
329,A2,64.0,4.0,111,170.0
330,A4,64.0,667/1000,111,170.0
331,A2,64.0,667/1000,111,170.0
332,C#4,64.667,333/1000,111,170.0
333,C#4,64.667,333/1000,111,170.0
334,E3,65.0,667/1000,111,170.0
335,E3,65.0,667/1000,111,170.0
336,A4,65.667,333/1000,111,170.0
337,A4,65.667,333/1000,111,170.0
338,A2,66.0,667/1000,111,170.0
339,A2,66.0,667/1000,111,170.0
340,C#4,66.667,333/1000,111,170.0
341,C#4,66.667,333/1000,111,170.0
342,E3,67.0,1.0,111,170.0
343,E3,67.0,1.0,111,170.0
344,D3,68.0,1.0,111,170.0
345,D3,68.0,1.0,111,170.0
346,F#4,68.0,4.0,111,170.0
347,D4,68.0,4.0,111,170.0
348,A3,68.0,4.0,111,170.0
349,F#3,68.0,4.0,111,170.0
350,D3,68.0,4.0,111,170.0
351,A4,69.0,667/1000,111,170.0
352,F#3,69.0,667/1000,111,170.0
353,A4,69.0,667/1000,111,170.0
354,F#3,69.0,667/1000,111,170.0
355,A4,69.667,333/1000,111,170.0
356,A4,69.667,333/1000,111,170.0
357,A2,70.0,667/1000,111,170.0
358,A2,70.0,667/1000,111,170.0
359,A4,70.667,333/1000,111,170.0
360,A4,70.667,333/1000,111,170.0
361,F#3,71.0,1.0,111,170.0
362,F#3,71.0,1.0,111,170.0
363,G#4,72.0,1.0,111,170.0
364,G#2,72.0,1.0,111,170.0
365,G#4,72.0,4.0,111,170.0
366,D4,72.0,4.0,111,170.0
367,B3,72.0,4.0,111,170.0
368,E3,72.0,4.0,111,170.0
369,G#4,72.0,1.0,111,170.0
370,G#2,72.0,1.0,111,170.0
371,G#4,73.0,1.0,111,170.0
372,E3,73.0,1.0,111,170.0
373,G#4,73.0,1.0,111,170.0
374,E3,73.0,1.0,111,170.0
375,F#4,74.0,667/1000,111,170.0
376,G#2,74.0,667/1000,111,170.0
377,F#4,74.0,667/1000,111,170.0
378,G#2,74.0,667/1000,111,170.0
379,E4,74.667,333/1000,111,170.0
380,E4,74.667,333/1000,111,170.0
381,E3,75.0,1.0,111,170.0
382,E3,75.0,1.0,111,170.0
383,E4,76.0,1.0,111,170.0
384,A2,76.0,1.0,111,170.0
385,A4,76.0,4.0,111,170.0
386,C#4,76.0,4.0,111,170.0
387,A3,76.0,4.0,111,170.0
388,E3,76.0,4.0,111,170.0
389,C#3,76.0,4.0,111,170.0
390,A2,76.0,4.0,111,170.0
391,E4,76.0,1.0,111,170.0
392,A2,76.0,1.0,111,170.0
393,A3,77.0,1.0,111,170.0
394,E3,77.0,1.0,111,170.0
395,A3,77.0,1.0,111,170.0
396,E3,77.0,1.0,111,170.0
397,A2,78.0,667/1000,111,170.0
398,A2,78.0,667/1000,111,170.0
399,A3,78.667,333/1000,111,170.0
400,A3,78.667,333/1000,111,170.0
401,E3,79.0,667/1000,111,170.0
402,E3,79.0,667/1000,111,170.0
403,C#4,79.667,333/1000,111,170.0
404,C#4,79.667,333/1000,111,170.0
405,A2,80.0,1.0,111,170.0
406,A2,80.0,1.0,111,170.0
407,A4,80.0,4.0,111,170.0
408,C#4,80.0,4.0,111,170.0
409,A3,80.0,4.0,111,170.0
410,E3,80.0,4.0,111,170.0
411,C#3,80.0,4.0,111,170.0
412,A2,80.0,4.0,111,170.0
413,E3,81.0,1.0,111,170.0
414,E3,81.0,1.0,111,170.0
415,A2,82.0,667/1000,111,170.0
416,A2,82.0,667/1000,111,170.0
417,B3,82.667,333/1000,111,170.0
418,B3,82.667,333/1000,111,170.0
419,E3,83.0,1.0,111,170.0
420,E3,83.0,1.0,111,170.0
421,C#4,84.0,1.0,111,170.0
422,F#2,84.0,1.0,111,170.0
423,F#4,84.0,4.0,111,170.0
424,C#4,84.0,4.0,111,170.0
425,A3,84.0,4.0,111,170.0
426,F#3,84.0,4.0,111,170.0
427,C#3,84.0,4.0,111,170.0
428,F#2,84.0,4.0,111,170.0
429,C#4,84.0,1.0,111,170.0
430,F#2,84.0,1.0,111,170.0
431,F#3,85.0,667/1000,111,170.0
432,F#3,85.0,667/1000,111,170.0
433,C#4,85.667,333/1000,111,170.0
434,C#4,85.667,333/1000,111,170.0
435,F#2,86.0,667/1000,111,170.0
436,F#2,86.0,667/1000,111,170.0
437,A3,86.667,333/1000,111,170.0
438,A3,86.667,333/1000,111,170.0
439,F#3,87.0,667/1000,111,170.0
440,F#3,87.0,667/1000,111,170.0
441,F#4,87.667,333/1000,111,170.0
442,F#4,87.667,333/1000,111,170.0
443,D3,88.0,667/1000,111,170.0
444,D3,88.0,667/1000,111,170.0
445,F#4,88.0,4.0,111,170.0
446,D4,88.0,4.0,111,170.0
447,A3,88.0,4.0,111,170.0
448,F#3,88.0,4.0,111,170.0
449,D3,88.0,4.0,111,170.0
450,F#4,88.667,333/1000,111,170.0
451,F#4,88.667,333/1000,111,170.0
452,F#3,89.0,1.0,111,170.0
453,F#3,89.0,1.0,111,170.0
454,F#4,90.0,667/1000,111,170.0
455,A2,90.0,667/1000,111,170.0
456,F#4,90.0,667/1000,111,170.0
457,A2,90.0,667/1000,111,170.0
458,E4,90.667,333/1000,111,170.0
459,E4,90.667,333/1000,111,170.0
460,F#3,91.0,1.0,111,170.0
461,F#3,91.0,1.0,111,170.0
462,E4,92.0,667/1000,111,170.0
463,A2,92.0,667/1000,111,170.0
464,A4,92.0,4.0,111,170.0
465,C#4,92.0,4.0,111,170.0
466,A3,92.0,4.0,111,170.0
467,E3,92.0,4.0,111,170.0
468,C#3,92.0,4.0,111,170.0
469,A2,92.0,4.0,111,170.0
470,E4,92.0,667/1000,111,170.0
471,A2,92.0,667/1000,111,170.0
472,A3,92.667,333/1000,111,170.0
473,A3,92.667,333/1000,111,170.0
474,E3,93.0,667/1000,111,170.0
475,E3,93.0,667/1000,111,170.0
476,E4,93.667,333/1000,111,170.0
477,E4,93.667,333/1000,111,170.0
478,A2,94.0,1.0,111,170.0
479,A2,94.0,1.0,111,170.0
480,E3,95.0,1.0,111,170.0
481,E3,95.0,1.0,111,170.0
482,G#2,96.0,1.0,111,170.0
483,G#2,96.0,1.0,111,170.0
484,G#4,96.0,4.0,111,170.0
485,E4,96.0,4.0,111,170.0
486,B3,96.0,4.0,111,170.0
487,E3,96.0,4.0,111,170.0
488,E3,97.0,333/1000,111,170.0
489,E3,97.0,333/1000,111,170.0
490,B3,97.333,333/1000,111,170.0
491,B3,97.333,333/1000,111,170.0
492,E4,97.667,333/1000,111,170.0
493,E4,97.667,333/1000,111,170.0
494,G#2,98.0,667/1000,111,170.0
495,G#2,98.0,667/1000,111,170.0
496,D4,98.667,333/1000,111,170.0
497,D4,98.667,333/1000,111,170.0
498,E3,99.0,1.0,111,170.0
499,E3,99.0,1.0,111,170.0
500,C#4,100.0,1.0,111,170.0
501,A2,100.0,1.0,111,170.0
502,A4,100.0,4.0,111,170.0
503,C#4,100.0,4.0,111,170.0
504,A3,100.0,4.0,111,170.0
505,E3,100.0,4.0,111,170.0
506,C#3,100.0,4.0,111,170.0
507,A2,100.0,4.0,111,170.0
508,C#4,100.0,1.0,111,170.0
509,A2,100.0,1.0,111,170.0
510,E4,101.0,667/1000,111,170.0
511,E3,101.0,667/1000,111,170.0
512,E4,101.0,667/1000,111,170.0
513,E3,101.0,667/1000,111,170.0
514,C#4,101.667,333/1000,111,170.0
515,C#4,101.667,333/1000,111,170.0
516,E4,102.0,667/1000,111,170.0
517,A2,102.0,667/1000,111,170.0
518,E4,102.0,667/1000,111,170.0
519,A2,102.0,667/1000,111,170.0
520,C#4,102.667,333/1000,111,170.0
521,C#4,102.667,333/1000,111,170.0
522,E3,103.0,667/1000,111,170.0
523,E3,103.0,667/1000,111,170.0
524,E4,103.667,333/1000,111,170.0
525,E4,103.667,333/1000,111,170.0
526,G#2,104.0,667/1000,111,170.0
527,G#2,104.0,667/1000,111,170.0
528,G#4,104.0,4.0,111,170.0
529,D4,104.0,4.0,111,170.0
530,B3,104.0,4.0,111,170.0
531,E3,104.0,4.0,111,170.0
532,E4,104.667,333/1000,111,170.0
533,E4,104.667,333/1000,111,170.0
534,E3,105.0,667/1000,111,170.0
535,E3,105.0,667/1000,111,170.0
536,B3,105.667,333/1000,111,170.0
537,B3,105.667,333/1000,111,170.0
538,E4,106.0,667/1000,111,170.0
539,G#2,106.0,667/1000,111,170.0
540,E4,106.0,667/1000,111,170.0
541,G#2,106.0,667/1000,111,170.0
542,F#4,106.667,333/1000,111,170.0
543,F#4,106.667,333/1000,111,170.0
544,E3,107.0,1.0,111,170.0
545,E3,107.0,1.0,111,170.0
546,C4,108.0,667/1000,111,170.0
547,F#2,108.0,667/1000,111,170.0
548,F#4,108.0,4.0,111,170.0
549,C#4,108.0,4.0,111,170.0
550,A3,108.0,4.0,111,170.0
551,F#3,108.0,4.0,111,170.0
552,C#3,108.0,4.0,111,170.0
553,F#2,108.0,4.0,111,170.0
554,C4,108.0,667/1000,111,170.0
555,F#2,108.0,667/1000,111,170.0
556,A3,108.667,333/1000,111,170.0
557,A3,108.667,333/1000,111,170.0
558,C#4,109.0,667/1000,111,170.0
559,F#3,109.0,667/1000,111,170.0
560,C#4,109.0,667/1000,111,170.0
561,F#3,109.0,667/1000,111,170.0
562,B3,109.667,333/1000,111,170.0
563,B3,109.667,333/1000,111,170.0
564,C#3,110.0,667/1000,111,170.0
565,C#3,110.0,667/1000,111,170.0
566,C#4,110.667,333/1000,111,170.0
567,C#4,110.667,333/1000,111,170.0
568,F#3,111.0,1.0,111,170.0
569,F#3,111.0,1.0,111,170.0
570,B3,112.0,1.0,111,170.0
571,B2,112.0,1.0,111,170.0
572,F#4,112.0,4.0,111,170.0
573,E-4,112.0,4.0,111,170.0
574,B3,112.0,4.0,111,170.0
575,F#3,112.0,4.0,111,170.0
576,B2,112.0,4.0,111,170.0
577,B3,112.0,1.0,111,170.0
578,B2,112.0,1.0,111,170.0
579,E-4,113.0,1.0,111,170.0
580,F#3,113.0,1.0,111,170.0
581,E-4,113.0,1.0,111,170.0
582,F#3,113.0,1.0,111,170.0
583,F#2,114.0,667/1000,111,170.0
584,F#2,114.0,667/1000,111,170.0
585,E4,114.667,333/1000,111,170.0
586,E4,114.667,333/1000,111,170.0
587,F#4,115.0,1.0,111,170.0
588,F#3,115.0,1.0,111,170.0
589,F#4,115.0,1.0,111,170.0
590,F#3,115.0,1.0,111,170.0
591,G4,116.0,1.0,111,170.0
592,D4,116.0,1.0,111,170.0
593,G2,116.0,1.0,111,170.0
594,G4,116.0,2.0,111,170.0
595,D4,116.0,2.0,111,170.0
596,B3,116.0,2.0,111,170.0
597,G3,116.0,2.0,111,170.0
598,B2,116.0,2.0,111,170.0
599,G2,116.0,2.0,111,170.0
600,G4,116.0,1.0,111,170.0
601,D4,116.0,1.0,111,170.0
602,G2,116.0,1.0,111,170.0
603,G3,117.0,1.0,111,170.0
604,G3,117.0,1.0,111,170.0
605,F#4,118.0,1.0,111,170.0
606,D4,118.0,1.0,111,170.0
607,D3,118.0,1.0,111,170.0
608,F#4,118.0,2.0,111,170.0
609,D4,118.0,2.0,111,170.0
610,A3,118.0,2.0,111,170.0
611,F#3,118.0,2.0,111,170.0
612,D3,118.0,2.0,111,170.0
613,F#4,118.0,1.0,111,170.0
614,D4,118.0,1.0,111,170.0
615,D3,118.0,1.0,111,170.0
616,F#3,119.0,1.0,111,170.0
617,F#3,119.0,1.0,111,170.0
618,E4,120.0,1.0,111,170.0
619,G#2,120.0,1.0,111,170.0
620,G#4,120.0,4.0,111,170.0
621,E4,120.0,4.0,111,170.0
622,B3,120.0,4.0,111,170.0
623,E3,120.0,4.0,111,170.0
624,E4,120.0,1.0,111,170.0
625,G#2,120.0,1.0,111,170.0
626,E-4,121.0,1.0,111,170.0
627,E3,121.0,1.0,111,170.0
628,E-4,121.0,1.0,111,170.0
629,E3,121.0,1.0,111,170.0
630,D4,122.0,667/1000,111,170.0
631,G#2,122.0,667/1000,111,170.0
632,D4,122.0,667/1000,111,170.0
633,G#2,122.0,667/1000,111,170.0
634,C4,122.667,333/1000,111,170.0
635,C4,122.667,333/1000,111,170.0
636,C#4,123.0,667/1000,111,170.0
637,E3,123.0,667/1000,111,170.0
638,C#4,123.0,667/1000,111,170.0
639,E3,123.0,667/1000,111,170.0
640,A3,123.667,333/1000,111,170.0
641,A3,123.667,333/1000,111,170.0
642,A2,124.0,1.0,111,170.0
643,A2,124.0,1.0,111,170.0
644,A4,124.0,4.0,111,170.0
645,C#4,124.0,4.0,111,170.0
646,A3,124.0,4.0,111,170.0
647,E3,124.0,4.0,111,170.0
648,C#3,124.0,4.0,111,170.0
649,A2,124.0,4.0,111,170.0
650,A4,125.0,1.0,111,170.0
651,E3,125.0,1.0,111,170.0
652,A4,125.0,1.0,111,170.0
653,E3,125.0,1.0,111,170.0
654,A2,126.0,667/1000,111,170.0
655,A2,126.0,667/1000,111,170.0
656,E4,126.667,333/1000,111,170.0
657,E4,126.667,333/1000,111,170.0
658,E3,127.0,1.0,111,170.0
659,E3,127.0,1.0,111,170.0
660,A4,128.0,667/1000,111,170.0
661,A2,128.0,667/1000,111,170.0
662,A4,128.0,4.0,111,170.0
663,C#4,128.0,4.0,111,170.0
664,A3,128.0,4.0,111,170.0
665,E3,128.0,4.0,111,170.0
666,C#3,128.0,4.0,111,170.0
667,A2,128.0,4.0,111,170.0
668,A4,128.0,667/1000,111,170.0
669,A2,128.0,667/1000,111,170.0
670,C#4,128.667,333/1000,111,170.0
671,C#4,128.667,333/1000,111,170.0
672,E3,129.0,667/1000,111,170.0
673,E3,129.0,667/1000,111,170.0
674,A4,129.667,333/1000,111,170.0
675,A4,129.667,333/1000,111,170.0
676,A2,130.0,667/1000,111,170.0
677,A2,130.0,667/1000,111,170.0
678,C#4,130.667,333/1000,111,170.0
679,C#4,130.667,333/1000,111,170.0
680,E3,131.0,1.0,111,170.0
681,E3,131.0,1.0,111,170.0
682,A2,132.0,1.0,111,170.0
683,A2,132.0,1.0,111,170.0
684,E-3,132.0,0.188,95,170.0
685,A4,132.0,4.0,111,170.0
686,C#4,132.0,4.0,111,170.0
687,A3,132.0,4.0,111,170.0
688,E3,132.0,4.0,111,170.0
689,C#3,132.0,4.0,111,170.0
690,A2,132.0,4.0,111,170.0
691,E4,133.0,667/1000,111,170.0
692,E3,133.0,667/1000,111,170.0
693,E4,133.0,667/1000,111,170.0
694,E3,133.0,667/1000,111,170.0
695,F#2,133.0,0.188,95,170.0
696,E-3,133.0,0.188,95,170.0
697,C#4,133.667,333/1000,86,170.0
698,C#4,133.667,333/1000,86,170.0
699,E-3,133.688,0.25,95,170.0
700,E-3,134.0,0.188,95,170.0
701,E4,134.0,667/1000,111,170.0
702,A2,134.0,667/1000,111,170.0
703,E4,134.0,667/1000,111,170.0
704,A2,134.0,667/1000,111,170.0
705,C#4,134.667,333/1000,111,170.0
706,C#4,134.667,333/1000,111,170.0
707,E3,135.0,667/1000,111,170.0
708,E3,135.0,667/1000,111,170.0
709,F#2,135.0,0.188,95,170.0
710,E-3,135.0,0.188,95,170.0
711,E4,135.667,333/1000,111,170.0
712,E4,135.667,333/1000,111,170.0
713,E-3,135.688,0.25,95,170.0
714,G#2,136.0,667/1000,111,170.0
715,G#2,136.0,667/1000,111,170.0
716,E-3,136.0,0.188,95,170.0
717,G#4,136.0,4.0,111,170.0
718,E4,136.0,4.0,111,170.0
719,B3,136.0,4.0,111,170.0
720,E3,136.0,4.0,111,170.0
721,E4,136.667,333/1000,111,170.0
722,E4,136.667,333/1000,111,170.0
723,E3,137.0,667/1000,111,170.0
724,E3,137.0,667/1000,111,170.0
725,F#2,137.0,0.188,95,170.0
726,E-3,137.0,0.188,95,170.0
727,B3,137.667,333/1000,111,170.0
728,B3,137.667,333/1000,111,170.0
729,E-3,137.688,0.25,95,170.0
730,E-3,138.0,0.188,95,170.0
731,E4,138.0,667/1000,111,170.0
732,G#2,138.0,667/1000,111,170.0
733,E4,138.0,667/1000,111,170.0
734,G#2,138.0,667/1000,111,170.0
735,D4,138.667,333/1000,111,170.0
736,D4,138.667,333/1000,111,170.0
737,E3,139.0,1.0,111,170.0
738,E3,139.0,1.0,111,170.0
739,F#2,139.0,0.188,95,170.0
740,E-3,139.0,0.188,95,170.0
741,E-3,139.688,0.25,95,170.0
742,E-3,140.0,0.188,95,170.0
743,D4,140.0,1.0,111,170.0
744,A2,140.0,1.0,111,170.0
745,A4,140.0,4.0,111,170.0
746,C#4,140.0,4.0,111,170.0
747,A3,140.0,4.0,111,170.0
748,E3,140.0,4.0,111,170.0
749,C#3,140.0,4.0,111,170.0
750,A2,140.0,4.0,111,170.0
751,D4,140.0,1.0,111,170.0
752,A2,140.0,1.0,111,170.0
753,C#4,141.0,1.0,111,170.0
754,E3,141.0,1.0,111,170.0
755,C#4,141.0,1.0,111,170.0
756,E3,141.0,1.0,111,170.0
757,F#2,141.0,0.188,95,170.0
758,E-3,141.0,0.188,95,170.0
759,E-3,141.688,0.25,95,170.0
760,A2,142.0,667/1000,111,170.0
761,A2,142.0,667/1000,111,170.0
762,E-3,142.0,0.188,95,170.0
763,A3,142.667,333/1000,111,170.0
764,A3,142.667,333/1000,111,170.0
765,E3,143.0,667/1000,111,170.0
766,E3,143.0,667/1000,111,170.0
767,F#2,143.0,0.188,95,170.0
768,E-3,143.0,0.188,95,170.0
769,C#4,143.667,333/1000,111,170.0
770,C#4,143.667,333/1000,111,170.0
771,E-3,143.688,0.25,95,170.0
772,A2,144.0,1.0,111,170.0
773,A2,144.0,1.0,111,170.0
774,E-3,144.0,0.188,95,170.0
775,A4,144.0,4.0,111,170.0
776,C#4,144.0,4.0,111,170.0
777,A3,144.0,4.0,111,170.0
778,E3,144.0,4.0,111,170.0
779,C#3,144.0,4.0,111,170.0
780,A2,144.0,4.0,111,170.0
781,E3,145.0,1.0,111,170.0
782,E3,145.0,1.0,111,170.0
783,F#2,145.0,0.188,95,170.0
784,E-3,145.0,0.188,95,170.0
785,E-3,145.688,0.25,95,170.0
786,A2,146.0,667/1000,111,170.0
787,A2,146.0,667/1000,111,170.0
788,E-3,146.0,0.188,95,170.0
789,B3,146.667,333/1000,111,170.0
790,B3,146.667,333/1000,111,170.0
791,E3,147.0,667/1000,111,170.0
792,E3,147.0,667/1000,111,170.0
793,F#2,147.0,0.188,95,170.0
794,E-3,147.0,0.188,95,170.0
795,C#4,147.667,333/1000,111,170.0
796,C#4,147.667,333/1000,111,170.0
797,E-3,147.688,0.25,95,170.0
798,F#2,148.0,1.0,111,170.0
799,F#2,148.0,1.0,111,170.0
800,E-3,148.0,0.188,95,170.0
801,F#4,148.0,4.0,111,170.0
802,C#4,148.0,4.0,111,170.0
803,A3,148.0,4.0,111,170.0
804,F#3,148.0,4.0,111,170.0
805,C#3,148.0,4.0,111,170.0
806,F#2,148.0,4.0,111,170.0
807,F#3,149.0,667/1000,111,170.0
808,F#3,149.0,667/1000,111,170.0
809,F#2,149.0,0.188,95,170.0
810,E-3,149.0,0.188,95,170.0
811,C#4,149.667,333/1000,111,170.0
812,C#4,149.667,333/1000,111,170.0
813,E-3,149.688,0.25,95,170.0
814,F#2,150.0,667/1000,111,170.0
815,F#2,150.0,667/1000,111,170.0
816,E-3,150.0,0.188,95,170.0
817,A3,150.667,333/1000,111,170.0
818,A3,150.667,333/1000,111,170.0
819,F#3,151.0,667/1000,111,170.0
820,F#3,151.0,667/1000,111,170.0
821,F#2,151.0,0.188,95,170.0
822,E-3,151.0,0.188,95,170.0
823,F#4,151.667,333/1000,111,170.0
824,F#4,151.667,333/1000,111,170.0
825,E-3,151.688,0.25,95,170.0
826,D3,152.0,667/1000,111,170.0
827,D3,152.0,667/1000,111,170.0
828,E-3,152.0,0.188,95,170.0
829,F#4,152.0,4.0,111,170.0
830,D4,152.0,4.0,111,170.0
831,A3,152.0,4.0,111,170.0
832,F#3,152.0,4.0,111,170.0
833,D3,152.0,4.0,111,170.0
834,F#4,152.667,333/1000,111,170.0
835,F#4,152.667,333/1000,111,170.0
836,F#3,153.0,1.0,111,170.0
837,F#3,153.0,1.0,111,170.0
838,F#2,153.0,0.188,95,170.0
839,E-3,153.0,0.188,95,170.0
840,E-3,153.688,0.25,95,170.0
841,E-3,154.0,0.188,95,170.0
842,F#4,154.0,667/1000,111,170.0
843,A2,154.0,667/1000,111,170.0
844,F#4,154.0,667/1000,111,170.0
845,A2,154.0,667/1000,111,170.0
846,E4,154.667,333/1000,111,170.0
847,E4,154.667,333/1000,111,170.0
848,F#3,155.0,1.0,111,170.0
849,F#3,155.0,1.0,111,170.0
850,F#2,155.0,0.188,95,170.0
851,E-3,155.0,0.188,95,170.0
852,E-3,155.688,0.25,95,170.0
853,E-3,156.0,0.188,95,170.0
854,E4,156.0,667/1000,111,170.0
855,A2,156.0,667/1000,111,170.0
856,A4,156.0,4.0,111,170.0
857,C#4,156.0,4.0,111,170.0
858,A3,156.0,4.0,111,170.0
859,E3,156.0,4.0,111,170.0
860,C#3,156.0,4.0,111,170.0
861,A2,156.0,4.0,111,170.0
862,E4,156.0,667/1000,111,170.0
863,A2,156.0,667/1000,111,170.0
864,C#4,156.667,333/1000,111,170.0
865,C#4,156.667,333/1000,111,170.0
866,A3,157.0,667/1000,111,170.0
867,A3,157.0,667/1000,111,170.0
868,F#2,157.0,0.188,95,170.0
869,E-3,157.0,0.188,95,170.0
870,E4,157.667,333/1000,111,170.0
871,E4,157.667,333/1000,111,170.0
872,E-3,157.688,0.25,95,170.0
873,A2,158.0,1.0,111,170.0
874,A2,158.0,1.0,111,170.0
875,E-3,158.0,0.188,95,170.0
876,E3,159.0,1.0,111,170.0
877,E3,159.0,1.0,111,170.0
878,F#2,159.0,0.188,95,170.0
879,E-3,159.0,0.188,95,170.0
880,E-3,159.688,0.25,95,170.0
881,G#2,160.0,1.0,111,170.0
882,G#2,160.0,1.0,111,170.0
883,E-3,160.0,0.188,95,170.0
884,G#4,160.0,4.0,111,170.0
885,E4,160.0,4.0,111,170.0
886,B3,160.0,4.0,111,170.0
887,E3,160.0,4.0,111,170.0
888,E3,161.0,333/1000,111,170.0
889,E3,161.0,333/1000,111,170.0
890,F#2,161.0,0.188,95,170.0
891,E-3,161.0,0.188,95,170.0
892,B3,161.333,333/1000,111,170.0
893,B3,161.333,333/1000,111,170.0
894,E4,161.667,333/1000,111,170.0
895,E4,161.667,333/1000,111,170.0
896,E-3,161.688,0.25,95,170.0
897,G#2,162.0,667/1000,111,170.0
898,G#2,162.0,667/1000,111,170.0
899,E-3,162.0,0.188,95,170.0
900,D4,162.667,333/1000,111,170.0
901,D4,162.667,333/1000,111,170.0
902,E3,163.0,1.0,111,170.0
903,E3,163.0,1.0,111,170.0
904,F#2,163.0,0.188,95,170.0
905,E-3,163.0,0.188,95,170.0
906,E-3,163.688,0.25,95,170.0
907,E-3,164.0,0.188,95,170.0
908,C#4,164.0,1.0,111,170.0
909,A2,164.0,1.0,111,170.0
910,A4,164.0,4.0,111,170.0
911,C#4,164.0,4.0,111,170.0
912,A3,164.0,4.0,111,170.0
913,E3,164.0,4.0,111,170.0
914,C#3,164.0,4.0,111,170.0
915,A2,164.0,4.0,111,170.0
916,C#4,164.0,1.0,111,170.0
917,A2,164.0,1.0,111,170.0
918,E4,165.0,667/1000,111,170.0
919,E3,165.0,667/1000,111,170.0
920,E4,165.0,667/1000,111,170.0
921,E3,165.0,667/1000,111,170.0
922,F#2,165.0,0.188,95,170.0
923,E-3,165.0,0.188,95,170.0
924,C#4,165.667,333/1000,86,170.0
925,C#4,165.667,333/1000,86,170.0
926,E-3,165.688,0.25,95,170.0
927,E-3,166.0,0.188,95,170.0
928,E4,166.0,667/1000,111,170.0
929,A2,166.0,667/1000,111,170.0
930,E4,166.0,667/1000,111,170.0
931,A2,166.0,667/1000,111,170.0
932,C#4,166.667,333/1000,111,170.0
933,C#4,166.667,333/1000,111,170.0
934,E3,167.0,667/1000,111,170.0
935,E3,167.0,667/1000,111,170.0
936,F#2,167.0,0.188,95,170.0
937,E-3,167.0,0.188,95,170.0
938,B3,167.667,333/1000,111,170.0
939,B3,167.667,333/1000,111,170.0
940,E-3,167.688,0.25,95,170.0
941,G#2,168.0,667/1000,111,170.0
942,G#2,168.0,667/1000,111,170.0
943,E-3,168.0,0.188,95,170.0
944,G#4,168.0,4.0,111,170.0
945,E4,168.0,4.0,111,170.0
946,B3,168.0,4.0,111,170.0
947,E3,168.0,4.0,111,170.0
948,E4,168.667,333/1000,111,170.0
949,E4,168.667,333/1000,111,170.0
950,E3,169.0,667/1000,111,170.0
951,E3,169.0,667/1000,111,170.0
952,F#2,169.0,0.188,95,170.0
953,E-3,169.0,0.188,95,170.0
954,B3,169.667,333/1000,111,170.0
955,B3,169.667,333/1000,111,170.0
956,E-3,169.688,0.25,95,170.0
957,E-3,170.0,0.188,95,170.0
958,E4,170.0,667/1000,111,170.0
959,G#2,170.0,667/1000,111,170.0
960,E4,170.0,667/1000,111,170.0
961,G#2,170.0,667/1000,111,170.0
962,D4,170.667,333/1000,111,170.0
963,D4,170.667,333/1000,111,170.0
964,E3,171.0,1.0,111,170.0
965,E3,171.0,1.0,111,170.0
966,F#2,171.0,0.188,95,170.0
967,E-3,171.0,0.188,95,170.0
968,E-3,171.688,0.25,95,170.0
969,E-3,172.0,0.188,95,170.0
970,D4,172.0,1.0,111,170.0
971,A2,172.0,1.0,111,170.0
972,A4,172.0,4.0,111,170.0
973,C#4,172.0,4.0,111,170.0
974,A3,172.0,4.0,111,170.0
975,E3,172.0,4.0,111,170.0
976,C#3,172.0,4.0,111,170.0
977,A2,172.0,4.0,111,170.0
978,D4,172.0,1.0,111,170.0
979,A2,172.0,1.0,111,170.0
980,C#4,173.0,1.0,111,170.0
981,E3,173.0,1.0,111,170.0
982,C#4,173.0,1.0,111,170.0
983,E3,173.0,1.0,111,170.0
984,F#2,173.0,0.188,95,170.0
985,E-3,173.0,0.188,95,170.0
986,E-3,173.688,0.25,95,170.0
987,A2,174.0,667/1000,111,170.0
988,A2,174.0,667/1000,111,170.0
989,E-3,174.0,0.188,95,170.0
990,A3,174.667,333/1000,111,170.0
991,A3,174.667,333/1000,111,170.0
992,E3,175.0,667/1000,111,170.0
993,E3,175.0,667/1000,111,170.0
994,F#2,175.0,0.188,95,170.0
995,E-3,175.0,0.188,95,170.0
996,C#4,175.667,333/1000,111,170.0
997,C#4,175.667,333/1000,111,170.0
998,E-3,175.688,0.25,95,170.0
999,A2,176.0,1.0,111,170.0
1000,A2,176.0,1.0,111,170.0
1001,E-3,176.0,0.188,95,170.0
1002,A4,176.0,4.0,111,170.0
1003,C#4,176.0,4.0,111,170.0
1004,A3,176.0,4.0,111,170.0
1005,E3,176.0,4.0,111,170.0
1006,C#3,176.0,4.0,111,170.0
1007,A2,176.0,4.0,111,170.0
1008,E3,177.0,1.0,111,170.0
1009,E3,177.0,1.0,111,170.0
1010,F#2,177.0,0.188,95,170.0
1011,E-3,177.0,0.188,95,170.0
1012,E-3,177.688,0.25,95,170.0
1013,A2,178.0,667/1000,111,170.0
1014,A2,178.0,667/1000,111,170.0
1015,E-3,178.0,0.188,95,170.0
1016,B3,178.667,333/1000,111,170.0
1017,B3,178.667,333/1000,111,170.0
1018,E3,179.0,667/1000,111,170.0
1019,E3,179.0,667/1000,111,170.0
1020,F#2,179.0,0.188,95,170.0
1021,E-3,179.0,0.188,95,170.0
1022,C#4,179.667,333/1000,111,170.0
1023,C#4,179.667,333/1000,111,170.0
1024,E-3,179.688,0.25,95,170.0
1025,F#2,180.0,1.0,111,170.0
1026,F#2,180.0,1.0,111,170.0
1027,E-3,180.0,0.188,95,170.0
1028,F#4,180.0,4.0,111,170.0
1029,C#4,180.0,4.0,111,170.0
1030,A3,180.0,4.0,111,170.0
1031,F#3,180.0,4.0,111,170.0
1032,C#3,180.0,4.0,111,170.0
1033,F#2,180.0,4.0,111,170.0
1034,F#3,181.0,667/1000,111,170.0
1035,F#3,181.0,667/1000,111,170.0
1036,F#2,181.0,0.188,95,170.0
1037,E-3,181.0,0.188,95,170.0
1038,C#4,181.667,333/1000,111,170.0
1039,C#4,181.667,333/1000,111,170.0
1040,E-3,181.688,0.25,95,170.0
1041,F#2,182.0,667/1000,111,170.0
1042,F#2,182.0,667/1000,111,170.0
1043,E-3,182.0,0.188,95,170.0
1044,A3,182.667,333/1000,111,170.0
1045,A3,182.667,333/1000,111,170.0
1046,F#3,183.0,667/1000,111,170.0
1047,F#3,183.0,667/1000,111,170.0
1048,F#2,183.0,0.188,95,170.0
1049,E-3,183.0,0.188,95,170.0
1050,E4,183.667,333/1000,111,170.0
1051,E4,183.667,333/1000,111,170.0
1052,E-3,183.688,0.25,95,170.0
1053,G#2,184.0,667/1000,111,170.0
1054,G#2,184.0,667/1000,111,170.0
1055,E-3,184.0,0.188,95,170.0
1056,G#4,184.0,4.0,111,170.0
1057,D4,184.0,4.0,111,170.0
1058,B3,184.0,4.0,111,170.0
1059,E3,184.0,4.0,111,170.0
1060,F#4,184.667,333/1000,111,170.0
1061,F#4,184.667,333/1000,111,170.0
1062,E3,185.0,667/1000,111,170.0
1063,E3,185.0,667/1000,111,170.0
1064,F#2,185.0,0.188,95,170.0
1065,E-3,185.0,0.188,95,170.0
1066,B3,185.667,333/1000,111,170.0
1067,B3,185.667,333/1000,111,170.0
1068,E-3,185.688,0.25,95,170.0
1069,E-3,186.0,0.188,95,170.0
1070,C#4,186.0,667/1000,111,170.0
1071,F#2,186.0,667/1000,111,170.0
1072,C#4,186.0,667/1000,111,170.0
1073,F#2,186.0,667/1000,111,170.0
1074,B3,186.667,333/1000,111,170.0
1075,B3,186.667,333/1000,111,170.0
1076,E3,187.0,667/1000,111,170.0
1077,E3,187.0,667/1000,111,170.0
1078,F#2,187.0,0.188,95,170.0
1079,E-3,187.0,0.188,95,170.0
1080,A3,187.667,333/1000,111,170.0
1081,A3,187.667,333/1000,111,170.0
1082,E-3,187.688,0.25,95,170.0
1083,A2,188.0,1.0,111,170.0
1084,A2,188.0,1.0,111,170.0
1085,E-3,188.0,0.188,95,170.0
1086,A4,188.0,4.0,111,170.0
1087,C#4,188.0,4.0,111,170.0
1088,A3,188.0,4.0,111,170.0
1089,E3,188.0,4.0,111,170.0
1090,C#3,188.0,4.0,111,170.0
1091,A2,188.0,4.0,111,170.0
1092,A4,189.0,1.0,111,170.0
1093,B2,189.0,1.0,111,170.0
1094,A4,189.0,1.0,111,170.0
1095,B2,189.0,1.0,111,170.0
1096,F#2,189.0,0.188,95,170.0
1097,E-3,189.0,0.188,95,170.0
1098,E-3,189.688,0.25,95,170.0
1099,A2,190.0,667/1000,111,170.0
1100,A2,190.0,667/1000,111,170.0
1101,E-3,190.0,0.188,95,170.0
1102,E4,190.667,333/1000,111,170.0
1103,E4,190.667,333/1000,111,170.0
1104,E3,191.0,1.0,111,170.0
1105,E3,191.0,1.0,111,170.0
1106,F#2,191.0,0.188,95,170.0
1107,E-3,191.0,0.188,95,170.0
1108,E-3,191.688,0.25,95,170.0
1109,E-3,192.0,0.188,95,170.0
1110,A4,192.0,667/1000,111,170.0
1111,A2,192.0,667/1000,111,170.0
1112,A4,192.0,4.0,111,170.0
1113,C#4,192.0,4.0,111,170.0
1114,A3,192.0,4.0,111,170.0
1115,E3,192.0,4.0,111,170.0
1116,C#3,192.0,4.0,111,170.0
1117,A2,192.0,4.0,111,170.0
1118,A4,192.0,667/1000,111,170.0
1119,A2,192.0,667/1000,111,170.0
1120,E4,192.667,333/1000,111,170.0
1121,E4,192.667,333/1000,111,170.0
1122,E3,193.0,667/1000,111,170.0
1123,E3,193.0,667/1000,111,170.0
1124,F#2,193.0,0.188,95,170.0
1125,E-3,193.0,0.188,95,170.0
1126,A4,193.667,333/1000,111,170.0
1127,A4,193.667,333/1000,111,170.0
1128,E-3,193.688,0.25,95,170.0
1129,A2,194.0,667/1000,111,170.0
1130,A2,194.0,667/1000,111,170.0
1131,E-3,194.0,0.188,95,170.0
1132,A3,194.667,333/1000,111,170.0
1133,A3,194.667,333/1000,111,170.0
1134,G#2,195.0,667/1000,111,170.0
1135,G#2,195.0,667/1000,111,170.0
1136,F#2,195.0,0.188,95,170.0
1137,E-3,195.0,0.188,95,170.0
1138,A3,195.667,333/1000,111,170.0
1139,A3,195.667,333/1000,111,170.0
1140,E-3,195.688,0.25,95,170.0
1141,F#2,196.0,1.0,111,170.0
1142,F#2,196.0,1.0,111,170.0
1143,E-3,196.0,0.188,95,170.0
1144,F#4,196.0,4.0,111,170.0
1145,C#4,196.0,4.0,111,170.0
1146,A3,196.0,4.0,111,170.0
1147,F#3,196.0,4.0,111,170.0
1148,C#3,196.0,4.0,111,170.0
1149,F#2,196.0,4.0,111,170.0
1150,C#4,197.0,1.0,111,170.0
1151,F#3,197.0,1.0,111,170.0
1152,C#4,197.0,1.0,111,170.0
1153,F#3,197.0,1.0,111,170.0
1154,F#2,197.0,0.188,95,170.0
1155,E-3,197.0,0.188,95,170.0
1156,E-3,197.688,0.25,95,170.0
1157,F#2,198.0,667/1000,111,170.0
1158,F#2,198.0,667/1000,111,170.0
1159,E-3,198.0,0.188,95,170.0
1160,A3,198.667,333/1000,111,170.0
1161,A3,198.667,333/1000,111,170.0
1162,B3,199.0,667/1000,98,170.0
1163,F#3,199.0,667/1000,98,170.0
1164,B3,199.0,667/1000,98,170.0
1165,F#3,199.0,667/1000,98,170.0
1166,F#2,199.0,0.188,95,170.0
1167,E-3,199.0,0.188,95,170.0
1168,C#4,199.667,333/1000,111,170.0
1169,C#4,199.667,333/1000,111,170.0
1170,E-3,199.688,0.25,95,170.0
1171,F#2,200.0,667/1000,111,170.0
1172,F#2,200.0,667/1000,111,170.0
1173,E-3,200.0,0.188,95,170.0
1174,F#4,200.0,4.0,111,170.0
1175,C#4,200.0,4.0,111,170.0
1176,A3,200.0,4.0,111,170.0
1177,F#3,200.0,4.0,111,170.0
1178,C#3,200.0,4.0,111,170.0
1179,F#2,200.0,4.0,111,170.0
1180,A3,200.667,333/1000,111,170.0
1181,A3,200.667,333/1000,111,170.0
1182,B3,201.0,667/1000,98,170.0
1183,F#3,201.0,667/1000,98,170.0
1184,B3,201.0,667/1000,98,170.0
1185,F#3,201.0,667/1000,98,170.0
1186,F#2,201.0,0.188,95,170.0
1187,E-3,201.0,0.188,95,170.0
1188,C#4,201.667,333/1000,111,170.0
1189,C#4,201.667,333/1000,111,170.0
1190,E-3,201.688,0.25,95,170.0
1191,F#2,202.0,667/1000,111,170.0
1192,F#2,202.0,667/1000,111,170.0
1193,E-3,202.0,0.188,95,170.0
1194,F#4,202.667,333/1000,111,170.0
1195,F#4,202.667,333/1000,111,170.0
1196,F#3,203.0,1.0,111,170.0
1197,F#3,203.0,1.0,111,170.0
1198,F#2,203.0,0.188,95,170.0
1199,E-3,203.0,0.188,95,170.0
1200,E-3,203.688,0.25,95,170.0
1201,C#3,204.0,1.0,111,170.0
1202,C#3,204.0,1.0,111,170.0
1203,E-3,204.0,0.188,95,170.0
1204,G#4,204.0,4.0,111,170.0
1205,E4,204.0,4.0,111,170.0
1206,C#4,204.0,4.0,111,170.0
1207,G#3,204.0,4.0,111,170.0
1208,C#3,204.0,4.0,111,170.0
1209,E4,205.0,1.0,111,170.0
1210,G#3,205.0,1.0,111,170.0
1211,E4,205.0,1.0,111,170.0
1212,G#3,205.0,1.0,111,170.0
1213,F#2,205.0,0.188,95,170.0
1214,E-3,205.0,0.188,95,170.0
1215,E-3,205.688,0.25,95,170.0
1216,G#2,206.0,667/1000,111,170.0
1217,G#2,206.0,667/1000,111,170.0
1218,E-3,206.0,0.188,95,170.0
1219,F#4,206.667,333/1000,111,170.0
1220,F#4,206.667,333/1000,111,170.0
1221,G#3,207.0,1.0,111,170.0
1222,G#3,207.0,1.0,111,170.0
1223,F#2,207.0,0.188,95,170.0
1224,E-3,207.0,0.188,95,170.0
1225,E-3,207.688,0.25,95,170.0
1226,E-3,208.0,0.188,95,170.0
1227,E4,208.0,1.0,111,170.0
1228,C#3,208.0,1.0,111,170.0
1229,G#4,208.0,4.0,111,170.0
1230,E4,208.0,4.0,111,170.0
1231,C#4,208.0,4.0,111,170.0
1232,G#3,208.0,4.0,111,170.0
1233,C#3,208.0,4.0,111,170.0
1234,E4,208.0,1.0,111,170.0
1235,C#3,208.0,1.0,111,170.0
1236,G#3,209.0,667/1000,111,170.0
1237,G#3,209.0,667/1000,111,170.0
1238,F#2,209.0,0.188,95,170.0
1239,E-3,209.0,0.188,95,170.0
1240,E-4,209.667,333/1000,111,170.0
1241,E-4,209.667,333/1000,111,170.0
1242,E-3,209.688,0.25,95,170.0
1243,E-3,210.0,0.188,95,170.0
1244,E4,210.0,667/1000,98,170.0
1245,G#2,210.0,667/1000,98,170.0
1246,E4,210.0,667/1000,98,170.0
1247,G#2,210.0,667/1000,98,170.0
1248,C#4,210.667,333/1000,111,170.0
1249,C#4,210.667,333/1000,111,170.0
1250,G#3,211.0,1.0,111,170.0
1251,G#3,211.0,1.0,111,170.0
1252,F#2,211.0,0.188,95,170.0
1253,E-3,211.0,0.188,95,170.0
1254,E-3,211.688,0.25,95,170.0
1255,B2,212.0,1.0,111,170.0
1256,B2,212.0,1.0,111,170.0
1257,E-3,212.0,0.188,95,170.0
1258,G#4,212.0,4.0,111,170.0
1259,E4,212.0,4.0,111,170.0
1260,B3,212.0,4.0,111,170.0
1261,E3,212.0,4.0,111,170.0
1262,G#4,213.0,667/1000,111,170.0
1263,E3,213.0,667/1000,111,170.0
1264,G#4,213.0,667/1000,111,170.0
1265,E3,213.0,667/1000,111,170.0
1266,F#2,213.0,0.188,95,170.0
1267,E-3,213.0,0.188,95,170.0
1268,E4,213.667,333/1000,111,170.0
1269,E4,213.667,333/1000,111,170.0
1270,E-3,213.688,0.25,95,170.0
1271,G#2,214.0,667/1000,111,170.0
1272,G#2,214.0,667/1000,111,170.0
1273,E-3,214.0,0.188,95,170.0
1274,G#4,214.667,333/1000,111,170.0
1275,G#4,214.667,333/1000,111,170.0
1276,E3,215.0,667/1000,111,170.0
1277,E3,215.0,667/1000,111,170.0
1278,F#2,215.0,0.188,95,170.0
1279,E-3,215.0,0.188,95,170.0
1280,E4,215.667,333/1000,111,170.0
1281,E4,215.667,333/1000,111,170.0
1282,E-3,215.688,0.25,95,170.0
1283,E-3,216.0,0.188,95,170.0
1284,G#4,216.0,667/1000,111,170.0
1285,B2,216.0,667/1000,111,170.0
1286,G#4,216.0,4.0,111,170.0
1287,E4,216.0,4.0,111,170.0
1288,B3,216.0,4.0,111,170.0
1289,E3,216.0,4.0,111,170.0
1290,G#4,216.0,667/1000,111,170.0
1291,B2,216.0,667/1000,111,170.0
1292,E4,216.667,333/1000,111,170.0
1293,E4,216.667,333/1000,111,170.0
1294,E3,217.0,667/1000,111,170.0
1295,E3,217.0,667/1000,111,170.0
1296,F#2,217.0,0.188,95,170.0
1297,E-3,217.0,0.188,95,170.0
1298,F#4,217.667,333/1000,111,170.0
1299,F#4,217.667,333/1000,111,170.0
1300,E-3,217.688,0.25,95,170.0
1301,G#2,218.0,667/1000,111,170.0
1302,G#2,218.0,667/1000,111,170.0
1303,E-3,218.0,0.188,95,170.0
1304,E4,218.667,333/1000,111,170.0
1305,E4,218.667,333/1000,111,170.0
1306,E3,219.0,1.0,111,170.0
1307,E3,219.0,1.0,111,170.0
1308,F#2,219.0,0.188,95,170.0
1309,E-3,219.0,0.188,95,170.0
1310,E-3,219.688,0.25,95,170.0
1311,E-3,220.0,0.188,95,170.0
1312,F#4,220.0,1.0,111,170.0
1313,B2,220.0,1.0,111,170.0
1314,F#4,220.0,4.0,111,170.0
1315,E-4,220.0,4.0,111,170.0
1316,B3,220.0,4.0,111,170.0
1317,F#3,220.0,4.0,111,170.0
1318,B2,220.0,4.0,111,170.0
1319,F#4,220.0,1.0,111,170.0
1320,B2,220.0,1.0,111,170.0
1321,F#3,221.0,1.0,111,170.0
1322,F#3,221.0,1.0,111,170.0
1323,F#2,221.0,0.188,95,170.0
1324,E-3,221.0,0.188,95,170.0
1325,E-3,221.688,0.25,95,170.0
1326,E-3,222.0,0.188,95,170.0
1327,E-4,222.0,1.0,111,170.0
1328,F#2,222.0,1.0,111,170.0
1329,E-4,222.0,1.0,111,170.0
1330,F#2,222.0,1.0,111,170.0
1331,F#3,223.0,1.0,111,170.0
1332,F#3,223.0,1.0,111,170.0
1333,F#2,223.0,0.188,95,170.0
1334,E-3,223.0,0.188,95,170.0
1335,E-3,223.688,0.25,95,170.0
1336,E-3,224.0,0.188,95,170.0
1337,C#4,224.0,1.0,111,170.0
1338,B2,224.0,1.0,111,170.0
1339,F#4,224.0,4.0,111,170.0
1340,E-4,224.0,4.0,111,170.0
1341,B3,224.0,4.0,111,170.0
1342,F#3,224.0,4.0,111,170.0
1343,B2,224.0,4.0,111,170.0
1344,C#4,224.0,1.0,111,170.0
1345,B2,224.0,1.0,111,170.0
1346,F#3,225.0,667/1000,111,170.0
1347,F#3,225.0,667/1000,111,170.0
1348,F#2,225.0,0.188,95,170.0
1349,E-3,225.0,0.188,95,170.0
1350,B3,225.667,333/1000,111,170.0
1351,B3,225.667,333/1000,111,170.0
1352,E-3,225.688,0.25,95,170.0
1353,F#2,226.0,1.0,111,170.0
1354,F#2,226.0,1.0,111,170.0
1355,E-3,226.0,0.188,95,170.0
1356,F#3,227.0,1.0,111,170.0
1357,F#3,227.0,1.0,111,170.0
1358,F#2,227.0,0.188,95,170.0
1359,E-3,227.0,0.188,95,170.0
1360,E-3,227.688,0.25,95,170.0
1361,F#2,228.0,1.0,111,170.0
1362,F#2,228.0,1.0,111,170.0
1363,E-3,228.0,0.188,95,170.0
1364,F#4,228.0,4.0,111,170.0
1365,C#4,228.0,4.0,111,170.0
1366,A3,228.0,4.0,111,170.0
1367,F#3,228.0,4.0,111,170.0
1368,C#3,228.0,4.0,111,170.0
1369,F#2,228.0,4.0,111,170.0
1370,C#4,229.0,1.0,111,170.0
1371,F#3,229.0,1.0,111,170.0
1372,C#4,229.0,1.0,111,170.0
1373,F#3,229.0,1.0,111,170.0
1374,F#2,229.0,0.188,95,170.0
1375,E-3,229.0,0.188,95,170.0
1376,E-3,229.688,0.25,95,170.0
1377,F#2,230.0,667/1000,111,170.0
1378,F#2,230.0,667/1000,111,170.0
1379,E-3,230.0,0.188,95,170.0
1380,A3,230.667,333/1000,111,170.0
1381,A3,230.667,333/1000,111,170.0
1382,B3,231.0,667/1000,98,170.0
1383,F#3,231.0,667/1000,98,170.0
1384,B3,231.0,667/1000,98,170.0
1385,F#3,231.0,667/1000,98,170.0
1386,F#2,231.0,0.188,95,170.0
1387,E-3,231.0,0.188,95,170.0
1388,C#4,231.667,333/1000,111,170.0
1389,C#4,231.667,333/1000,111,170.0
1390,E-3,231.688,0.25,95,170.0
1391,F#2,232.0,667/1000,111,170.0
1392,F#2,232.0,667/1000,111,170.0
1393,E-3,232.0,0.188,95,170.0
1394,F#4,232.0,4.0,111,170.0
1395,C#4,232.0,4.0,111,170.0
1396,A3,232.0,4.0,111,170.0
1397,F#3,232.0,4.0,111,170.0
1398,C#3,232.0,4.0,111,170.0
1399,F#2,232.0,4.0,111,170.0
1400,A3,232.667,333/1000,111,170.0
1401,A3,232.667,333/1000,111,170.0
1402,B3,233.0,667/1000,98,170.0
1403,F#3,233.0,667/1000,98,170.0
1404,B3,233.0,667/1000,98,170.0
1405,F#3,233.0,667/1000,98,170.0
1406,F#2,233.0,0.188,95,170.0
1407,E-3,233.0,0.188,95,170.0
1408,C#4,233.667,333/1000,111,170.0
1409,C#4,233.667,333/1000,111,170.0
1410,E-3,233.688,0.25,95,170.0
1411,F#2,234.0,667/1000,111,170.0
1412,F#2,234.0,667/1000,111,170.0
1413,E-3,234.0,0.188,95,170.0
1414,F#4,234.667,333/1000,111,170.0
1415,F#4,234.667,333/1000,111,170.0
1416,F#3,235.0,1.0,111,170.0
1417,F#3,235.0,1.0,111,170.0
1418,F#2,235.0,0.188,95,170.0
1419,E-3,235.0,0.188,95,170.0
1420,E-3,235.688,0.25,95,170.0
1421,C#3,236.0,1.0,111,170.0
1422,C#3,236.0,1.0,111,170.0
1423,E-3,236.0,0.188,95,170.0
1424,G#4,236.0,4.0,111,170.0
1425,E4,236.0,4.0,111,170.0
1426,C#4,236.0,4.0,111,170.0
1427,G#3,236.0,4.0,111,170.0
1428,C#3,236.0,4.0,111,170.0
1429,E4,237.0,1.0,111,170.0
1430,G#3,237.0,1.0,111,170.0
1431,E4,237.0,1.0,111,170.0
1432,G#3,237.0,1.0,111,170.0
1433,F#2,237.0,0.188,95,170.0
1434,E-3,237.0,0.188,95,170.0
1435,E-3,237.688,0.25,95,170.0
1436,G#2,238.0,667/1000,111,170.0
1437,G#2,238.0,667/1000,111,170.0
1438,E-3,238.0,0.188,95,170.0
1439,F#4,238.667,333/1000,111,170.0
1440,F#4,238.667,333/1000,111,170.0
1441,G#3,239.0,1.0,111,170.0
1442,G#3,239.0,1.0,111,170.0
1443,F#2,239.0,0.188,95,170.0
1444,E-3,239.0,0.188,95,170.0
1445,E-3,239.688,0.25,95,170.0
1446,E-3,240.0,0.188,95,170.0
1447,E4,240.0,1.0,111,170.0
1448,C#3,240.0,1.0,111,170.0
1449,G#4,240.0,4.0,111,170.0
1450,E4,240.0,4.0,111,170.0
1451,C#4,240.0,4.0,111,170.0
1452,G#3,240.0,4.0,111,170.0
1453,C#3,240.0,4.0,111,170.0
1454,E4,240.0,1.0,111,170.0
1455,C#3,240.0,1.0,111,170.0
1456,G#3,241.0,667/1000,111,170.0
1457,G#3,241.0,667/1000,111,170.0
1458,F#2,241.0,0.188,95,170.0
1459,E-3,241.0,0.188,95,170.0
1460,E-4,241.667,333/1000,111,170.0
1461,E-4,241.667,333/1000,111,170.0
1462,E-3,241.688,0.25,95,170.0
1463,E-3,242.0,0.188,95,170.0
1464,E4,242.0,667/1000,98,170.0
1465,G#2,242.0,667/1000,98,170.0
1466,E4,242.0,667/1000,98,170.0
1467,G#2,242.0,667/1000,98,170.0
1468,C#4,242.667,333/1000,111,170.0
1469,C#4,242.667,333/1000,111,170.0
1470,G#3,243.0,1.0,111,170.0
1471,G#3,243.0,1.0,111,170.0
1472,F#2,243.0,0.188,95,170.0
1473,E-3,243.0,0.188,95,170.0
1474,E-3,243.688,0.25,95,170.0
1475,G#2,244.0,1.0,111,170.0
1476,G#2,244.0,1.0,111,170.0
1477,E-3,244.0,0.188,95,170.0
1478,G#4,244.0,4.0,111,170.0
1479,E4,244.0,4.0,111,170.0
1480,B3,244.0,4.0,111,170.0
1481,E3,244.0,4.0,111,170.0
1482,E4,245.0,667/1000,111,170.0
1483,E3,245.0,667/1000,111,170.0
1484,E4,245.0,667/1000,111,170.0
1485,E3,245.0,667/1000,111,170.0
1486,F#2,245.0,0.188,95,170.0
1487,E-3,245.0,0.188,95,170.0
1488,B3,245.667,333/1000,111,170.0
1489,B3,245.667,333/1000,111,170.0
1490,E-3,245.688,0.25,95,170.0
1491,G#2,246.0,667/1000,111,170.0
1492,G#2,246.0,667/1000,111,170.0
1493,E-3,246.0,0.188,95,170.0
1494,E4,246.667,333/1000,111,170.0
1495,E4,246.667,333/1000,111,170.0
1496,E3,247.0,667/1000,111,170.0
1497,E3,247.0,667/1000,111,170.0
1498,F#2,247.0,0.188,95,170.0
1499,E-3,247.0,0.188,95,170.0
1500,B3,247.667,333/1000,111,170.0
1501,B3,247.667,333/1000,111,170.0
1502,E-3,247.688,0.25,95,170.0
1503,E-3,248.0,0.188,95,170.0
1504,D4,248.0,667/1000,111,170.0
1505,G#2,248.0,667/1000,111,170.0
1506,G#4,248.0,4.0,111,170.0
1507,E4,248.0,4.0,111,170.0
1508,B3,248.0,4.0,111,170.0
1509,E3,248.0,4.0,111,170.0
1510,D4,248.0,667/1000,111,170.0
1511,G#2,248.0,667/1000,111,170.0
1512,D4,248.667,333/1000,111,170.0
1513,D4,248.667,333/1000,111,170.0
1514,E3,249.0,667/1000,111,170.0
1515,E3,249.0,667/1000,111,170.0
1516,F#2,249.0,0.188,95,170.0
1517,E-3,249.0,0.188,95,170.0
1518,B3,249.667,333/1000,111,170.0
1519,B3,249.667,333/1000,111,170.0
1520,E-3,249.688,0.25,95,170.0
1521,E-3,250.0,0.188,95,170.0
1522,C#4,250.0,667/1000,111,170.0
1523,G#2,250.0,667/1000,111,170.0
1524,C#4,250.0,667/1000,111,170.0
1525,G#2,250.0,667/1000,111,170.0
1526,B3,250.667,333/1000,111,170.0
1527,B3,250.667,333/1000,111,170.0
1528,E3,251.0,667/1000,111,170.0
1529,E3,251.0,667/1000,111,170.0
1530,F#2,251.0,0.188,95,170.0
1531,E-3,251.0,0.188,95,170.0
1532,A3,251.667,333/1000,111,170.0
1533,A3,251.667,333/1000,111,170.0
1534,E-3,251.688,0.25,95,170.0
1535,A2,252.0,1.0,111,170.0
1536,A2,252.0,1.0,111,170.0
1537,E-3,252.0,0.188,95,170.0
1538,A4,252.0,4.0,111,170.0
1539,C#4,252.0,4.0,111,170.0
1540,A3,252.0,4.0,111,170.0
1541,E3,252.0,4.0,111,170.0
1542,C#3,252.0,4.0,111,170.0
1543,A2,252.0,4.0,111,170.0
1544,A4,253.0,1.0,111,170.0
1545,E3,253.0,1.0,111,170.0
1546,A4,253.0,1.0,111,170.0
1547,E3,253.0,1.0,111,170.0
1548,F#2,253.0,0.188,95,170.0
1549,E-3,253.0,0.188,95,170.0
1550,E-3,253.688,0.25,95,170.0
1551,A2,254.0,667/1000,111,170.0
1552,A2,254.0,667/1000,111,170.0
1553,E-3,254.0,0.188,95,170.0
1554,E4,254.667,333/1000,111,170.0
1555,E4,254.667,333/1000,111,170.0
1556,E3,255.0,1.0,111,170.0
1557,E3,255.0,1.0,111,170.0
1558,F#2,255.0,0.188,95,170.0
1559,E-3,255.0,0.188,95,170.0
1560,E-3,255.688,0.25,95,170.0
1561,E-3,256.0,0.188,95,170.0
1562,A4,256.0,667/1000,111,170.0
1563,A2,256.0,667/1000,111,170.0
1564,A4,256.0,4.0,111,170.0
1565,C#4,256.0,4.0,111,170.0
1566,A3,256.0,4.0,111,170.0
1567,E3,256.0,4.0,111,170.0
1568,C#3,256.0,4.0,111,170.0
1569,A2,256.0,4.0,111,170.0
1570,A4,256.0,667/1000,111,170.0
1571,A2,256.0,667/1000,111,170.0
1572,E4,256.667,333/1000,111,170.0
1573,E4,256.667,333/1000,111,170.0
1574,E3,257.0,667/1000,111,170.0
1575,E3,257.0,667/1000,111,170.0
1576,F#2,257.0,0.188,95,170.0
1577,E-3,257.0,0.188,95,170.0
1578,A4,257.667,333/1000,111,170.0
1579,A4,257.667,333/1000,111,170.0
1580,E-3,257.688,0.25,95,170.0
1581,A2,258.0,667/1000,111,170.0
1582,A2,258.0,667/1000,111,170.0
1583,E-3,258.0,0.188,95,170.0
1584,A3,258.667,333/1000,111,170.0
1585,A3,258.667,333/1000,111,170.0
1586,C#3,259.0,1.0,111,170.0
1587,C#3,259.0,1.0,111,170.0
1588,F#2,259.0,0.188,95,170.0
1589,E-3,259.0,0.188,95,170.0
1590,E-3,259.688,0.25,95,170.0
1591,D3,260.0,1.0,111,170.0
1592,D3,260.0,1.0,111,170.0
1593,E-3,260.0,0.188,95,170.0
1594,A4,261.0,667/1000,111,170.0
1595,F#3,261.0,667/1000,111,170.0
1596,A4,261.0,667/1000,111,170.0
1597,F#3,261.0,667/1000,111,170.0
1598,F#2,261.0,0.188,95,170.0
1599,E-3,261.0,0.188,95,170.0
1600,A4,261.667,333/1000,111,170.0
1601,A4,261.667,333/1000,111,170.0
1602,E-3,261.688,0.25,95,170.0
1603,A2,262.0,667/1000,111,170.0
1604,A2,262.0,667/1000,111,170.0
1605,E-3,262.0,0.188,95,170.0
1606,A4,262.667,333/1000,111,170.0
1607,A4,262.667,333/1000,111,170.0
1608,F#3,263.0,1.0,111,170.0
1609,F#3,263.0,1.0,111,170.0
1610,F#2,263.0,0.188,95,170.0
1611,E-3,263.0,0.188,95,170.0
1612,E-3,263.688,0.25,95,170.0
1613,E-3,264.0,0.188,95,170.0
1614,G#4,264.0,1.0,111,170.0
1615,G#2,264.0,1.0,111,170.0
1616,G#4,264.0,1.0,111,170.0
1617,G#2,264.0,1.0,111,170.0
1618,G#4,265.0,1.0,111,170.0
1619,E3,265.0,1.0,111,170.0
1620,G#4,265.0,1.0,111,170.0
1621,E3,265.0,1.0,111,170.0
1622,F#2,265.0,0.188,95,170.0
1623,E-3,265.0,0.188,95,170.0
1624,E-3,265.688,0.25,95,170.0
1625,E-3,266.0,0.188,95,170.0
1626,F#4,266.0,667/1000,111,170.0
1627,G#2,266.0,667/1000,111,170.0
1628,F#4,266.0,667/1000,111,170.0
1629,G#2,266.0,667/1000,111,170.0
1630,E4,266.667,333/1000,111,170.0
1631,E4,266.667,333/1000,111,170.0
1632,E3,267.0,1.0,111,170.0
1633,E3,267.0,1.0,111,170.0
1634,F#2,267.0,0.188,95,170.0
1635,E-3,267.0,0.188,95,170.0
1636,E-3,267.688,0.25,95,170.0
1637,E-3,268.0,0.188,95,170.0
1638,E4,268.0,1.0,111,170.0
1639,A2,268.0,1.0,111,170.0
1640,E4,268.0,1.0,111,170.0
1641,A2,268.0,1.0,111,170.0
1642,A3,269.0,1.0,111,170.0
1643,E3,269.0,1.0,111,170.0
1644,A3,269.0,1.0,111,170.0
1645,E3,269.0,1.0,111,170.0
1646,F#2,269.0,0.188,95,170.0
1647,E-3,269.0,0.188,95,170.0
1648,E-3,269.688,0.25,95,170.0
1649,A2,270.0,667/1000,111,170.0
1650,A2,270.0,667/1000,111,170.0
1651,E-3,270.0,0.188,95,170.0
1652,A3,270.667,333/1000,111,170.0
1653,A3,270.667,333/1000,111,170.0
1654,E3,271.0,667/1000,111,170.0
1655,E3,271.0,667/1000,111,170.0
1656,F#2,271.0,0.188,95,170.0
1657,E-3,271.0,0.188,95,170.0
1658,C#4,271.667,333/1000,111,170.0
1659,C#4,271.667,333/1000,111,170.0
1660,E-3,271.688,0.25,95,170.0
1661,A2,272.0,1.0,111,170.0
1662,A2,272.0,1.0,111,170.0
1663,E-3,272.0,0.188,95,170.0
1664,E3,273.0,1.0,111,170.0
1665,E3,273.0,1.0,111,170.0
1666,F#2,273.0,0.188,95,170.0
1667,E-3,273.0,0.188,95,170.0
1668,E-3,273.688,0.25,95,170.0
1669,A2,274.0,667/1000,111,170.0
1670,A2,274.0,667/1000,111,170.0
1671,E-3,274.0,0.188,95,170.0
1672,B3,274.667,333/1000,111,170.0
1673,B3,274.667,333/1000,111,170.0
1674,E3,275.0,1.0,111,170.0
1675,E3,275.0,1.0,111,170.0
1676,F#2,275.0,0.188,95,170.0
1677,E-3,275.0,0.188,95,170.0
1678,E-3,275.688,0.25,95,170.0
1679,E-3,276.0,0.188,95,170.0
1680,C#4,276.0,1.0,111,170.0
1681,F#2,276.0,1.0,111,170.0
1682,C#4,276.0,1.0,111,170.0
1683,F#2,276.0,1.0,111,170.0
1684,F#3,277.0,667/1000,111,170.0
1685,F#3,277.0,667/1000,111,170.0
1686,F#2,277.0,0.188,95,170.0
1687,E-3,277.0,0.188,95,170.0
1688,C#4,277.667,333/1000,111,170.0
1689,C#4,277.667,333/1000,111,170.0
1690,E-3,277.688,0.25,95,170.0
1691,F#2,278.0,667/1000,111,170.0
1692,F#2,278.0,667/1000,111,170.0
1693,E-3,278.0,0.188,95,170.0
1694,A3,278.667,333/1000,111,170.0
1695,A3,278.667,333/1000,111,170.0
1696,F#3,279.0,667/1000,111,170.0
1697,F#3,279.0,667/1000,111,170.0
1698,F#2,279.0,0.188,95,170.0
1699,E-3,279.0,0.188,95,170.0
1700,F#4,279.667,333/1000,111,170.0
1701,F#4,279.667,333/1000,111,170.0
1702,E-3,279.688,0.25,95,170.0
1703,D3,280.0,667/1000,111,170.0
1704,D3,280.0,667/1000,111,170.0
1705,E-3,280.0,0.188,95,170.0
1706,F#4,280.667,333/1000,111,170.0
1707,F#4,280.667,333/1000,111,170.0
1708,F#3,281.0,1.0,111,170.0
1709,F#3,281.0,1.0,111,170.0
1710,F#2,281.0,0.188,95,170.0
1711,E-3,281.0,0.188,95,170.0
1712,E-3,281.688,0.25,95,170.0
1713,E-3,282.0,0.188,95,170.0
1714,F#4,282.0,667/1000,111,170.0
1715,A2,282.0,667/1000,111,170.0
1716,F#4,282.0,667/1000,111,170.0
1717,A2,282.0,667/1000,111,170.0
1718,E4,282.667,333/1000,111,170.0
1719,E4,282.667,333/1000,111,170.0
1720,F#3,283.0,1.0,111,170.0
1721,F#3,283.0,1.0,111,170.0
1722,F#2,283.0,0.188,95,170.0
1723,E-3,283.0,0.188,95,170.0
1724,E-3,283.688,0.25,95,170.0
1725,E-3,284.0,0.188,95,170.0
1726,E4,284.0,667/1000,111,170.0
1727,A2,284.0,667/1000,111,170.0
1728,E4,284.0,667/1000,111,170.0
1729,A2,284.0,667/1000,111,170.0
1730,A3,284.667,333/1000,111,170.0
1731,A3,284.667,333/1000,111,170.0
1732,E3,285.0,667/1000,111,170.0
1733,E3,285.0,667/1000,111,170.0
1734,F#2,285.0,0.188,95,170.0
1735,E-3,285.0,0.188,95,170.0
1736,E4,285.667,333/1000,111,170.0
1737,E4,285.667,333/1000,111,170.0
1738,E-3,285.688,0.25,95,170.0
1739,A2,286.0,1.0,111,170.0
1740,A2,286.0,1.0,111,170.0
1741,E-3,286.0,0.188,95,170.0
1742,E3,287.0,1.0,111,170.0
1743,E3,287.0,1.0,111,170.0
1744,F#2,287.0,0.188,95,170.0
1745,E-3,287.0,0.188,95,170.0
1746,E-3,287.688,0.25,95,170.0
1747,G#2,288.0,1.0,111,170.0
1748,G#2,288.0,1.0,111,170.0
1749,E-3,288.0,0.188,95,170.0
1750,E3,289.0,333/1000,111,170.0
1751,E3,289.0,333/1000,111,170.0
1752,F#2,289.0,0.188,95,170.0
1753,E-3,289.0,0.188,95,170.0
1754,B3,289.333,333/1000,111,170.0
1755,B3,289.333,333/1000,111,170.0
1756,E4,289.667,333/1000,111,170.0
1757,E4,289.667,333/1000,111,170.0
1758,E-3,289.688,0.25,95,170.0
1759,G#2,290.0,667/1000,111,170.0
1760,G#2,290.0,667/1000,111,170.0
1761,E-3,290.0,0.188,95,170.0
1762,D4,290.667,333/1000,111,170.0
1763,D4,290.667,333/1000,111,170.0
1764,E3,291.0,1.0,111,170.0
1765,E3,291.0,1.0,111,170.0
1766,F#2,291.0,0.188,95,170.0
1767,E-3,291.0,0.188,95,170.0
1768,E-3,291.688,0.25,95,170.0
1769,E-3,292.0,0.188,95,170.0
1770,C#4,292.0,1.0,111,170.0
1771,A2,292.0,1.0,111,170.0
1772,C#4,292.0,1.0,111,170.0
1773,A2,292.0,1.0,111,170.0
1774,E4,293.0,667/1000,111,170.0
1775,E3,293.0,667/1000,111,170.0
1776,E4,293.0,667/1000,111,170.0
1777,E3,293.0,667/1000,111,170.0
1778,F#2,293.0,0.188,95,170.0
1779,E-3,293.0,0.188,95,170.0
1780,C#4,293.667,333/1000,111,170.0
1781,C#4,293.667,333/1000,111,170.0
1782,E-3,293.688,0.25,95,170.0
1783,E-3,294.0,0.188,95,170.0
1784,E4,294.0,667/1000,111,170.0
1785,A2,294.0,667/1000,111,170.0
1786,E4,294.0,667/1000,111,170.0
1787,A2,294.0,667/1000,111,170.0
1788,C#4,294.667,333/1000,111,170.0
1789,C#4,294.667,333/1000,111,170.0
1790,E3,295.0,667/1000,111,170.0
1791,E3,295.0,667/1000,111,170.0
1792,F#2,295.0,0.188,95,170.0
1793,E-3,295.0,0.188,95,170.0
1794,E4,295.667,333/1000,111,170.0
1795,E4,295.667,333/1000,111,170.0
1796,E-3,295.688,0.25,95,170.0
1797,G#2,296.0,667/1000,111,170.0
1798,G#2,296.0,667/1000,111,170.0
1799,E-3,296.0,0.188,95,170.0
1800,E4,296.667,333/1000,111,170.0
1801,E4,296.667,333/1000,111,170.0
1802,E3,297.0,667/1000,111,170.0
1803,E3,297.0,667/1000,111,170.0
1804,F#2,297.0,0.188,95,170.0
1805,E-3,297.0,0.188,95,170.0
1806,B3,297.667,333/1000,111,170.0
1807,B3,297.667,333/1000,111,170.0
1808,E-3,297.688,0.25,95,170.0
1809,E-3,298.0,0.188,95,170.0
1810,E4,298.0,667/1000,111,170.0
1811,G#2,298.0,667/1000,111,170.0
1812,E4,298.0,667/1000,111,170.0
1813,G#2,298.0,667/1000,111,170.0
1814,F#4,298.667,333/1000,111,170.0
1815,F#4,298.667,333/1000,111,170.0
1816,E3,299.0,1.0,111,170.0
1817,E3,299.0,1.0,111,170.0
1818,F#2,299.0,0.188,95,170.0
1819,E-3,299.0,0.188,95,170.0
1820,E-3,299.688,0.25,95,170.0
1821,E-3,300.0,0.188,95,170.0
1822,C4,300.0,667/1000,111,170.0
1823,F#2,300.0,667/1000,111,170.0
1824,C4,300.0,667/1000,111,170.0
1825,F#2,300.0,667/1000,111,170.0
1826,A3,300.667,333/1000,111,170.0
1827,A3,300.667,333/1000,111,170.0
1828,C#4,301.0,667/1000,111,170.0
1829,F#3,301.0,667/1000,111,170.0
1830,C#4,301.0,667/1000,111,170.0
1831,F#3,301.0,667/1000,111,170.0
1832,F#2,301.0,0.188,95,170.0
1833,E-3,301.0,0.188,95,170.0
1834,B3,301.667,333/1000,111,170.0
1835,B3,301.667,333/1000,111,170.0
1836,E-3,301.688,0.25,95,170.0
1837,C#3,302.0,667/1000,111,170.0
1838,C#3,302.0,667/1000,111,170.0
1839,E-3,302.0,0.188,95,170.0
1840,C#4,302.667,333/1000,111,170.0
1841,C#4,302.667,333/1000,111,170.0
1842,F#3,303.0,1.0,111,170.0
1843,F#3,303.0,1.0,111,170.0
1844,F#2,303.0,0.188,95,170.0
1845,E-3,303.0,0.188,95,170.0
1846,E-3,303.688,0.25,95,170.0
1847,E-3,304.0,0.188,95,170.0
1848,B3,304.0,1.0,111,170.0
1849,B2,304.0,1.0,111,170.0
1850,B3,304.0,1.0,111,170.0
1851,B2,304.0,1.0,111,170.0
1852,E-4,305.0,1.0,111,170.0
1853,F#3,305.0,1.0,111,170.0
1854,E-4,305.0,1.0,111,170.0
1855,F#3,305.0,1.0,111,170.0
1856,F#2,305.0,0.188,95,170.0
1857,E-3,305.0,0.188,95,170.0
1858,E-3,305.688,0.25,95,170.0
1859,F#2,306.0,667/1000,111,170.0
1860,F#2,306.0,667/1000,111,170.0
1861,E-3,306.0,0.188,95,170.0
1862,E4,306.667,333/1000,111,170.0
1863,E4,306.667,333/1000,111,170.0
1864,F#4,307.0,1.0,111,170.0
1865,F#3,307.0,1.0,111,170.0
1866,F#4,307.0,1.0,111,170.0
1867,F#3,307.0,1.0,111,170.0
1868,F#2,307.0,0.188,95,170.0
1869,E-3,307.0,0.188,95,170.0
1870,E-3,307.688,0.25,95,170.0
1871,E-3,308.0,0.188,95,170.0
1872,G4,308.0,1.0,111,170.0
1873,D4,308.0,1.0,111,170.0
1874,G2,308.0,1.0,111,170.0
1875,G4,308.0,1.0,111,170.0
1876,D4,308.0,1.0,111,170.0
1877,G2,308.0,1.0,111,170.0
1878,G3,309.0,1.0,111,170.0
1879,G3,309.0,1.0,111,170.0
1880,F#2,309.0,0.188,95,170.0
1881,E-3,309.0,0.188,95,170.0
1882,E-3,309.688,0.25,95,170.0
1883,E-3,310.0,0.188,95,170.0
1884,F#4,310.0,1.0,111,170.0
1885,D4,310.0,1.0,111,170.0
1886,D3,310.0,1.0,111,170.0
1887,F#4,310.0,1.0,111,170.0
1888,D4,310.0,1.0,111,170.0
1889,D3,310.0,1.0,111,170.0
1890,F#3,311.0,1.0,111,170.0
1891,F#3,311.0,1.0,111,170.0
1892,F#2,311.0,0.188,95,170.0
1893,E-3,311.0,0.188,95,170.0
1894,E-3,311.688,0.25,95,170.0
1895,E4,312.0,1.0,111,170.0
1896,G#2,312.0,1.0,111,170.0
1897,E4,312.0,1.0,111,170.0
1898,G#2,312.0,1.0,111,170.0
1899,E-4,313.0,1.0,111,170.0
1900,E3,313.0,1.0,111,170.0
1901,E-4,313.0,1.0,111,170.0
1902,E3,313.0,1.0,111,170.0
1903,D4,314.0,667/1000,111,170.0
1904,G#2,314.0,667/1000,111,170.0
1905,D4,314.0,667/1000,111,170.0
1906,G#2,314.0,667/1000,111,170.0
1907,C4,314.667,333/1000,111,170.0
1908,C4,314.667,333/1000,111,170.0
1909,C#4,315.0,667/1000,111,170.0
1910,E3,315.0,667/1000,111,170.0
1911,C#4,315.0,667/1000,111,170.0
1912,E3,315.0,667/1000,111,170.0
1913,A3,315.667,333/1000,111,170.0
1914,A3,315.667,333/1000,111,170.0
1915,G4,316.0,1.0,111,170.0
1916,D4,316.0,1.0,111,170.0
1917,G2,316.0,1.0,111,170.0
1918,G4,316.0,1.0,111,170.0
1919,D4,316.0,1.0,111,170.0
1920,G2,316.0,1.0,111,170.0
1921,G3,317.0,1.0,111,170.0
1922,G3,317.0,1.0,111,170.0
1923,F#4,318.0,1.0,111,170.0
1924,D4,318.0,1.0,111,170.0
1925,D3,318.0,1.0,111,170.0
1926,F#4,318.0,1.0,111,170.0
1927,D4,318.0,1.0,111,170.0
1928,D3,318.0,1.0,111,170.0
1929,F#3,319.0,1.0,111,170.0
1930,F#3,319.0,1.0,111,170.0
1931,E4,320.0,1.0,111,170.0
1932,G#2,320.0,1.0,111,170.0
1933,E4,320.0,1.0,111,170.0
1934,G#2,320.0,1.0,111,170.0
1935,E-4,321.0,1.0,111,170.0
1936,E3,321.0,1.0,111,170.0
1937,E-4,321.0,1.0,111,170.0
1938,E3,321.0,1.0,111,170.0
1939,D4,322.0,667/1000,111,170.0
1940,G#2,322.0,667/1000,111,170.0
1941,D4,322.0,667/1000,111,170.0
1942,G#2,322.0,667/1000,111,170.0
1943,C4,322.667,333/1000,111,170.0
1944,C4,322.667,333/1000,111,170.0
1945,C#4,323.0,667/1000,111,170.0
1946,E3,323.0,667/1000,111,170.0
1947,C#4,323.0,667/1000,111,170.0
1948,E3,323.0,667/1000,111,170.0
1949,A3,323.667,333/1000,111,170.0
1950,A3,323.667,333/1000,111,170.0
1951,A2,324.0,1.0,111,170.0
1952,A2,324.0,1.0,111,170.0
1953,A4,325.0,667/1000,111,170.0
1954,E4,325.0,667/1000,111,170.0
1955,E3,325.0,667/1000,111,170.0
1956,A4,325.0,667/1000,111,170.0
1957,E4,325.0,667/1000,111,170.0
1958,E3,325.0,667/1000,111,170.0
1959,A2,325.667,333/1000,111,170.0
1960,A2,325.667,333/1000,111,170.0
1961,A2,326.0,2.0,79,170.0
1962,A3,326.0,2.0,79,170.0
1963,A2,326.0,2.0,79,170.0
1964,A3,326.0,2.0,79,170.0
1965,E3,326.125,1.875,79,170.0
1966,E4,326.125,1.875,79,170.0
1967,E3,326.125,1.875,79,170.0
1968,E4,326.125,1.875,79,170.0
1969,E4,326.25,1.75,79,170.0
1970,E5,326.25,1.75,79,170.0
1971,E4,326.25,1.75,79,170.0
1972,E5,326.25,1.75,79,170.0
1973,A4,326.375,1.625,79,170.0
1974,A5,326.375,1.625,79,170.0
1975,A4,326.375,1.625,79,170.0
1976,A5,326.375,1.625,79,170.0
