,note_name,start_time,duration,velocity,tempo
0,E2,0.0,667/1000,63,80.0
1,E3,0.083,583/1000,63,80.0
2,A3,0.167,0.5,63,80.0
3,C4,0.25,417/1000,95,80.0
4,B3,0.667,333/1000,54,80.0
5,C4,1.0,0.5,54,80.0
6,A3,1.5,0.75,79,80.0
7,C4,2.25,0.75,79,80.0
8,E2,3.0,1.0,63,80.0
9,E3,3.0,1.0,63,80.0
10,G3,3.062,0.938,71,80.0
11,B3,3.062,0.938,71,80.0
12,E2,4.0,0.469,63,80.0
13,E3,4.0,0.469,63,80.0
14,G3,4.0,0.469,71,80.0
15,B3,4.0,0.469,71,80.0
16,F#2,4.5,0.5,95,80.0
17,E2,5.0,0.75,95,80.0
18,E2,5.75,401/1000,67,80.0
19,E3,5.75,401/1000,67,80.0
20,G3,5.75,401/1000,67,80.0
21,B3,5.75,401/1000,67,80.0
22,A3,6.167,333/1000,79,80.0
23,G3,6.5,0.5,54,80.0
24,A3,7.0,0.75,54,80.0
25,B3,7.75,0.25,79,80.0
26,B3,8.0,0.5,79,80.0
27,A3,8.5,2.0,71,80.0
28,A2,8.5,2.0,71,80.0
29,E2,10.5,351/500,63,80.0
30,A2,10.5,351/500,63,80.0
31,E3,10.5,351/500,63,80.0
32,A3,10.572,63/100,68,80.0
33,C4,10.572,63/100,68,80.0
34,E4,10.572,63/100,68,80.0
35,D4,11.25,0.125,71,80.0
36,B3,11.25,0.125,71,80.0
37,D4,11.5,0.125,71,80.0
38,B3,11.5,0.125,71,80.0
39,E4,11.625,0.125,46,80.0
40,C4,11.625,0.125,46,80.0
41,D4,11.75,0.25,46,80.0
42,B3,11.75,0.25,46,80.0
43,C4,12.0,0.75,79,80.0
44,A3,12.0,0.75,79,80.0
45,D4,12.75,0.25,71,80.0
46,B3,12.75,0.25,71,80.0
47,E4,13.0,1.0,71,80.0
48,C4,13.0,1.0,71,80.0
49,E2,14.0,0.469,63,80.0
50,B3,14.0,0.469,63,80.0
51,D4,14.0,0.469,63,80.0
52,C4,14.5,0.5,63,80.0
53,A3,14.5,0.5,63,80.0
54,B3,15.0,0.75,63,80.0
55,G3,15.0,0.75,63,80.0
56,E2,15.75,0.25,63,80.0
57,B2,15.75,0.25,63,80.0
58,E3,15.812,0.188,63,80.0
59,G3,15.812,0.188,63,80.0
60,B3,15.875,0.125,63,80.0
61,B3,16.0,0.5,63,80.0
62,E2,16.0,0.469,63,80.0
63,B2,16.0,0.469,63,80.0
64,E3,16.0,0.469,63,80.0
65,G3,16.0,0.469,63,80.0
66,G2,16.5,0.25,79,80.0
67,F#2,16.75,0.75,79,80.0
68,E2,17.5,0.75,79,80.0
69,C4,18.25,0.25,63,80.0
70,A3,18.25,0.25,63,80.0
71,D4,18.5,0.5,63,80.0
72,B3,18.5,0.5,63,80.0
73,C4,19.0,0.5,63,80.0
74,A3,19.0,0.5,63,80.0
75,B3,19.5,0.5,63,80.0
76,G3,19.5,0.5,63,80.0
77,C4,20.0,0.5,63,80.0
78,A3,20.0,0.5,63,80.0
79,C4,20.5,0.25,63,80.0
80,A3,20.5,0.25,63,80.0
81,D4,20.75,0.75,63,80.0
82,B3,20.75,0.75,63,80.0
83,C4,21.5,0.625,63,80.0
84,A2,21.5,1.5,63,80.0
85,E3,22.125,0.375,79,80.0
86,A3,22.5,0.25,79,80.0
87,C4,22.75,0.25,79,80.0
88,B3,23.0,0.25,79,80.0
89,G2,23.0,1.0,63,80.0
90,D3,23.25,0.25,79,80.0
91,G3,23.5,0.25,79,80.0
92,B3,23.75,0.25,79,80.0
93,C4,24.0,0.25,79,80.0
94,A2,24.0,1.0,63,80.0
95,E3,24.25,0.25,79,80.0
96,A3,24.5,0.25,79,80.0
97,C4,24.75,0.25,79,80.0
98,D4,25.0,0.25,71,80.0
99,B2,25.0,0.25,71,80.0
100,G3,25.25,0.25,79,80.0
101,D4,25.5,0.25,71,80.0
102,B2,25.5,0.25,71,80.0
103,G4,25.75,0.5,79,80.0
104,E4,26.25,0.5,71,80.0
105,C3,26.25,0.5,71,80.0
106,D4,26.75,0.25,63,80.0
107,C4,27.0,0.5,63,80.0
108,E3,27.0,0.5,63,80.0
109,D4,27.5,0.5,63,80.0
110,E4,28.0,0.5,63,80.0
111,E3,28.5,3.5,63,80.0
112,C4,29.0,0.75,63,80.0
113,B3,29.75,2.25,63,80.0
114,C4,32.0,0.25,79,80.0
115,A2,32.0,1.0,63,80.0
116,B3,32.25,0.25,54,80.0
117,C4,32.5,0.25,54,80.0
118,A3,32.75,0.5,79,80.0
119,A2,33.0,1.0,63,80.0
120,C4,33.25,0.5,79,80.0
121,A3,33.25,0.5,79,80.0
122,B3,33.75,2.0,79,80.0
123,G3,33.75,0.25,63,80.0
124,G2,34.0,0.75,95,80.0
125,D3,34.25,0.25,63,80.0
126,G3,34.5,0.25,63,80.0
127,F#2,34.75,0.75,95,80.0
128,D3,35.0,0.25,63,80.0
129,G3,35.25,0.25,63,80.0
130,E2,35.5,0.5,95,80.0
131,G3,35.75,0.25,63,80.0
132,B3,36.0,0.25,79,80.0
133,E2,36.0,1.0,63,80.0
134,A3,36.25,0.25,79,80.0
135,G3,36.5,0.25,54,80.0
136,A3,36.75,0.25,79,80.0
137,E2,37.0,1.0,63,80.0
138,B3,37.25,0.5,71,80.0
139,G3,37.25,0.5,71,80.0
140,A3,37.75,0.25,79,80.0
141,A2,38.0,0.75,79,80.0
142,E3,38.25,0.25,63,80.0
143,A3,38.5,0.25,63,80.0
144,A2,38.75,0.75,79,80.0
145,E3,39.0,0.25,63,80.0
146,A3,39.25,0.25,63,80.0
147,A2,39.5,0.5,79,80.0
148,A3,39.75,0.25,63,80.0
149,C4,40.0,0.25,79,80.0
150,A2,40.0,1.0,63,80.0
151,B3,40.25,0.25,54,80.0
152,C4,40.5,0.25,54,80.0
153,A3,40.75,0.5,79,80.0
154,A2,41.0,1.0,63,80.0
155,C4,41.25,0.5,79,80.0
156,A3,41.25,0.5,79,80.0
157,B3,41.75,2.0,79,80.0
158,G3,41.75,0.25,63,80.0
159,G2,42.0,0.75,95,80.0
160,D3,42.25,0.25,63,80.0
161,G3,42.5,0.25,63,80.0
162,F#2,42.75,0.75,95,80.0
163,D3,43.0,0.25,63,80.0
164,G3,43.25,0.25,63,80.0
165,E2,43.5,0.5,95,80.0
166,G3,43.75,0.25,63,80.0
167,B3,44.0,0.25,79,80.0
168,E2,44.0,1.0,63,80.0
169,A3,44.25,0.25,79,80.0
170,G3,44.5,0.25,54,80.0
171,A3,44.75,0.25,79,80.0
172,E2,45.0,1.0,63,80.0
173,B3,45.25,0.5,71,80.0
174,G3,45.25,0.5,71,80.0
175,A3,45.75,0.25,79,80.0
176,A2,46.0,0.75,79,80.0
177,E3,46.0,1.5,79,80.0
178,E3,46.25,0.25,63,80.0
179,A3,46.5,0.25,63,80.0
180,A2,46.75,0.75,79,80.0
181,E3,47.0,0.25,63,80.0
182,A3,47.25,0.25,63,80.0
183,A2,47.5,0.5,79,80.0
184,G3,47.5,0.5,79,80.0
185,A3,47.75,0.25,63,80.0
186,C4,48.0,0.25,79,80.0
187,A2,48.0,1.0,63,80.0
188,A3,48.0,1.75,79,80.0
189,B3,48.25,0.25,54,80.0
190,C4,48.5,0.25,54,80.0
191,A3,48.75,0.5,79,80.0
192,A2,49.0,1.0,63,80.0
193,A4,49.25,0.25,31,80.0
194,C4,49.25,0.5,79,80.0
195,A3,49.25,0.5,79,80.0
196,A4,49.5,0.25,31,80.0
197,B3,49.75,2.0,79,80.0
198,G3,49.75,0.25,63,80.0
199,G3,49.75,2.25,79,80.0
200,A4,49.75,0.25,47,80.0
201,G2,50.0,0.75,95,80.0
202,B1,50.0,0.25,31,80.0
203,D3,50.25,0.25,63,80.0
204,A4,50.25,0.25,31,80.0
205,G3,50.5,0.25,63,80.0
206,A4,50.5,0.25,47,80.0
207,F#2,50.75,0.75,95,80.0
208,A4,50.75,0.25,47,80.0
209,D3,51.0,0.25,63,80.0
210,B1,51.0,0.25,47,80.0
211,G3,51.25,0.25,63,80.0
212,A4,51.25,0.25,47,80.0
213,E2,51.5,0.5,95,80.0
214,B1,51.5,0.25,47,80.0
215,A4,51.5,0.25,47,80.0
216,G3,51.75,0.25,63,80.0
217,A4,51.75,0.25,47,80.0
218,B3,52.0,0.25,79,80.0
219,E2,52.0,1.0,63,80.0
220,G3,52.0,1.75,79,80.0
221,B1,52.0,0.25,63,80.0
222,A3,52.25,0.25,79,80.0
223,A4,52.25,0.25,47,80.0
224,G3,52.5,0.25,54,80.0
225,A4,52.5,0.25,47,80.0
226,A3,52.75,0.25,79,80.0
227,A4,52.75,0.25,47,80.0
228,E2,53.0,1.0,63,80.0
229,B1,53.0,0.25,47,80.0
230,A4,53.25,0.25,47,80.0
231,B3,53.25,0.5,71,80.0
232,G3,53.25,0.5,71,80.0
233,A4,53.5,0.25,47,80.0
234,A3,53.75,0.25,79,80.0
235,E3,53.75,2.25,79,80.0
236,A4,53.75,0.25,47,80.0
237,A2,54.0,0.75,79,80.0
238,B1,54.0,0.25,63,80.0
239,E3,54.25,0.25,63,80.0
240,A4,54.25,0.25,47,80.0
241,A3,54.5,0.25,63,80.0
242,A4,54.5,0.25,47,80.0
243,A2,54.75,0.75,79,80.0
244,A4,54.75,0.25,47,80.0
245,E3,55.0,0.25,63,80.0
246,B1,55.0,0.25,47,80.0
247,A3,55.25,0.25,63,80.0
248,A4,55.25,0.25,47,80.0
249,A2,55.5,0.5,79,80.0
250,A4,55.5,0.25,47,80.0
251,A3,55.75,0.25,63,80.0
252,B1,55.75,0.25,47,80.0
253,A4,55.75,0.25,47,80.0
254,C4,56.0,0.25,79,80.0
255,A2,56.0,1.0,63,80.0
256,E3,56.0,1.75,79,80.0
257,B1,56.0,0.25,63,80.0
258,B3,56.25,0.25,54,80.0
259,A4,56.25,0.25,47,80.0
260,C4,56.5,0.25,54,80.0
261,A4,56.5,0.25,47,80.0
262,A3,56.75,0.5,79,80.0
263,A4,56.75,0.25,47,80.0
264,A2,57.0,1.0,63,80.0
265,B1,57.0,0.25,47,80.0
266,A4,57.25,0.25,47,80.0
267,C4,57.25,0.5,79,80.0
268,A3,57.25,0.5,79,80.0
269,A4,57.5,0.25,47,80.0
270,B3,57.75,2.0,79,80.0
271,G3,57.75,0.25,63,80.0
272,D3,57.75,2.25,79,80.0
273,A4,57.75,0.25,47,80.0
274,G2,58.0,0.75,95,80.0
275,B1,58.0,0.25,63,80.0
276,D3,58.25,0.25,63,80.0
277,A4,58.25,0.25,47,80.0
278,G3,58.5,0.25,63,80.0
279,A4,58.5,0.25,47,80.0
280,F#2,58.75,0.75,95,80.0
281,A4,58.75,0.25,47,80.0
282,D3,59.0,0.25,63,80.0
283,B1,59.0,0.25,47,80.0
284,G3,59.25,0.25,63,80.0
285,A4,59.25,0.25,47,80.0
286,E2,59.5,0.5,95,80.0
287,A4,59.5,0.25,47,80.0
288,G3,59.75,0.25,63,80.0
289,A4,59.75,0.25,47,80.0
290,B3,60.0,0.25,79,80.0
291,E2,60.0,1.0,63,80.0
292,D3,60.0,1.0,79,80.0
293,B1,60.0,0.25,63,80.0
294,A3,60.25,0.25,79,80.0
295,A4,60.25,0.25,47,80.0
296,G3,60.5,0.25,54,80.0
297,A4,60.5,0.25,47,80.0
298,A3,60.75,0.25,79,80.0
299,B1,60.75,0.25,47,80.0
300,A4,60.75,0.25,47,80.0
301,E2,61.0,1.0,63,80.0
302,E3,61.0,0.5,79,80.0
303,B1,61.0,0.25,47,80.0
304,A4,61.25,0.25,47,80.0
305,B3,61.25,0.5,71,80.0
306,G3,61.25,0.5,71,80.0
307,G3,61.5,0.5,79,80.0
308,A4,61.5,0.25,47,80.0
309,A3,61.75,0.25,79,80.0
310,A4,61.75,0.25,47,80.0
311,A2,62.0,1.0,79,80.0
312,A3,62.0,1.0,79,80.0
313,B1,62.0,0.25,63,80.0
314,E3,62.25,0.25,63,80.0
315,A4,62.25,0.25,47,80.0
316,A3,62.5,0.25,63,80.0
317,A4,62.5,0.25,47,80.0
318,B3,62.75,0.25,79,80.0
319,A4,62.75,0.25,47,80.0
320,G2,63.0,1.0,79,80.0
321,B1,63.0,0.25,47,80.0
322,B3,63.0,1.0,63,80.0
323,G3,63.0,1.0,63,80.0
324,E3,63.0,1.0,63,80.0
325,B2,63.0,1.0,63,80.0
326,E2,63.0,1.0,63,80.0
327,G3,63.25,0.25,79,80.0
328,A4,63.25,0.25,47,80.0
329,B3,63.5,0.25,79,80.0
330,A4,63.5,0.25,47,80.0
331,C4,63.75,0.25,54,80.0
332,B1,63.75,0.25,47,80.0
333,A4,63.75,0.25,47,80.0
334,A2,64.0,0.75,79,80.0
335,B1,64.0,0.25,63,80.0
336,C4,64.0,1.0,66,80.0
337,A3,64.0,1.0,66,80.0
338,E3,64.0,1.0,66,80.0
339,A2,64.0,1.0,66,80.0
340,E2,64.0,1.0,66,80.0
341,G3,64.25,0.25,79,80.0
342,A4,64.25,0.25,47,80.0
343,C4,64.5,0.25,79,80.0
344,A4,64.5,0.25,47,80.0
345,B2,64.75,0.75,79,80.0
346,A4,64.75,0.25,47,80.0
347,G3,65.0,0.25,79,80.0
348,B1,65.0,0.25,47,80.0
349,D4,65.0,1.0,66,80.0
350,B3,65.0,1.0,66,80.0
351,E3,65.0,1.0,66,80.0
352,B2,65.0,1.0,66,80.0
353,E2,65.0,1.0,66,80.0
354,D4,65.25,0.25,79,80.0
355,A4,65.25,0.25,47,80.0
356,C3,65.5,1.25,79,80.0
357,A4,65.5,0.25,47,80.0
358,G3,65.75,0.25,79,80.0
359,A4,65.75,0.25,47,80.0
360,B1,66.0,0.25,63,80.0
361,E4,66.0,0.75,79,80.0
362,E3,66.0,0.75,79,80.0
363,E4,66.0,2.0,63,80.0
364,C4,66.0,2.0,63,80.0
365,A3,66.0,2.0,63,80.0
366,E3,66.0,2.0,63,80.0
367,A2,66.0,2.0,63,80.0
368,E2,66.0,2.0,63,80.0
369,A4,66.25,0.25,47,80.0
370,A4,66.5,0.25,47,80.0
371,D4,66.75,0.25,79,80.0
372,A4,66.75,0.25,47,80.0
373,B1,67.0,0.25,47,80.0
374,C4,67.0,0.5,79,80.0
375,A2,67.0,0.5,79,80.0
376,A4,67.25,0.25,47,80.0
377,D4,67.5,0.5,79,80.0
378,B1,67.5,0.25,55,80.0
379,A4,67.5,0.25,55,80.0
380,A4,67.75,0.25,47,80.0
381,E4,68.0,0.25,79,80.0
382,E3,68.0,1.0,79,80.0
383,B1,68.0,0.25,63,80.0
384,E4,68.0,1.0,63,80.0
385,B3,68.0,1.0,63,80.0
386,G3,68.0,1.0,63,80.0
387,E3,68.0,1.0,63,80.0
388,B2,68.0,1.0,63,80.0
389,C4,68.25,0.25,79,80.0
390,A4,68.25,0.25,47,80.0
391,B3,68.5,0.5,54,80.0
392,A4,68.5,0.25,47,80.0
393,A4,68.75,0.25,47,80.0
394,A3,69.0,0.75,79,80.0
395,A2,69.0,1.0,79,80.0
396,B1,69.0,0.25,47,80.0
397,E4,69.0,1.0,53,80.0
398,C4,69.0,1.0,53,80.0
399,A3,69.0,1.0,53,80.0
400,E3,69.0,1.0,53,80.0
401,A2,69.0,1.0,53,80.0
402,A4,69.25,0.25,47,80.0
403,A4,69.5,0.25,47,80.0
404,G3,69.75,0.25,79,80.0
405,A4,69.75,0.25,47,80.0
406,A3,70.0,0.25,79,80.0
407,A2,70.0,1.0,79,80.0
408,B1,70.0,0.25,63,80.0
409,A3,70.25,0.25,63,80.0
410,A4,70.25,0.25,47,80.0
411,E3,70.5,0.25,79,80.0
412,A4,70.5,0.25,47,80.0
413,G3,70.75,0.25,63,80.0
414,A4,70.75,0.25,47,80.0
415,A3,71.0,0.25,54,80.0
416,A2,71.0,1.0,79,80.0
417,B1,71.0,0.25,47,80.0
418,E3,71.25,0.25,79,80.0
419,A4,71.25,0.25,47,80.0
420,A3,71.5,0.25,79,80.0
421,A4,71.5,0.25,47,80.0
422,B3,71.75,0.25,79,80.0
423,B1,71.75,0.25,55,80.0
424,A4,71.75,0.25,55,80.0
425,G2,72.0,1.0,79,80.0
426,B3,72.0,0.25,79,80.0
427,B1,72.0,0.25,63,80.0
428,G3,72.25,0.25,79,80.0
429,A4,72.25,0.25,47,80.0
430,B3,72.5,0.25,79,80.0
431,A4,72.5,0.25,47,80.0
432,C4,72.75,0.25,54,80.0
433,A4,72.75,0.25,47,80.0
434,A2,73.0,0.75,79,80.0
435,B1,73.0,0.25,47,80.0
436,G3,73.25,0.25,79,80.0
437,A4,73.25,0.25,47,80.0
438,C4,73.5,0.25,79,80.0
439,A4,73.5,0.25,47,80.0
440,B2,73.75,0.75,79,80.0
441,A4,73.75,0.25,47,80.0
442,G3,74.0,0.25,79,80.0
443,B1,74.0,0.25,63,80.0
444,D4,74.25,0.25,79,80.0
445,A4,74.25,0.25,47,80.0
446,C3,74.5,0.25,79,80.0
447,A4,74.5,0.25,47,80.0
448,G3,74.75,0.25,79,80.0
449,A4,74.75,0.25,47,80.0
450,A2,75.0,1.0,79,80.0
451,E4,75.0,0.25,111,80.0
452,C4,75.0,0.25,111,80.0
453,G3,75.0,0.75,95,80.0
454,C3,75.0,0.75,95,80.0
455,D2,75.0,0.75,63,80.0
456,F2,75.0,0.75,63,80.0
457,E3,75.25,0.25,63,80.0
458,A3,75.5,0.25,63,80.0
459,C4,75.75,0.25,63,80.0
460,F4,75.75,0.25,111,80.0
461,C4,75.75,0.25,111,80.0
462,A3,75.75,0.25,95,80.0
463,F2,75.75,0.25,95,80.0
464,D2,75.75,0.25,63,80.0
465,F2,75.75,0.25,63,80.0
466,G2,76.0,1.0,63,80.0
467,A3,76.0,0.5,95,80.0
468,F2,76.0,0.5,95,80.0
469,G3,76.25,0.25,63,80.0
470,B3,76.5,0.25,63,80.0
471,F#4,76.5,0.25,111,80.0
472,D4,76.5,0.25,111,80.0
473,A3,76.5,0.75,95,80.0
474,D3,76.5,0.75,95,80.0
475,D2,76.5,0.5,63,80.0
476,F2,76.5,0.5,63,80.0
477,C4,76.75,1.25,38,80.0
478,D2,77.0,0.75,79,80.0
479,F2,77.0,0.75,79,80.0
480,G4,77.25,0.25,111,80.0
481,D4,77.25,0.25,111,80.0
482,B3,77.25,0.75,95,80.0
483,G2,77.25,0.75,95,80.0
484,D2,77.75,0.75,79,80.0
485,F2,77.75,0.75,79,80.0
486,G#4,78.0,0.5,79,80.0
487,G#4,78.0,0.25,87,80.0
488,E4,78.0,0.25,87,80.0
489,C4,78.0,0.5,87,80.0
490,E3,78.0,0.5,87,80.0
491,A4,78.5,0.5,95,80.0
492,A4,78.5,0.25,87,80.0
493,E4,78.5,0.25,87,80.0
494,C4,78.5,0.5,87,80.0
495,A2,78.5,0.5,87,80.0
496,D2,78.5,0.5,79,80.0
497,F2,78.5,0.5,79,80.0
498,B4,79.0,0.5,111,80.0
499,B4,79.0,0.25,87,80.0
500,A4,79.0,0.25,87,80.0
501,E-4,79.0,0.5,87,80.0
502,E-3,79.0,0.5,87,80.0
503,D2,79.0,0.5,79,80.0
504,F2,79.0,0.5,79,80.0
505,C5,79.5,0.25,79,80.0
506,C5,79.5,0.5,71,80.0
507,E3,79.5,0.5,71,80.0
508,A2,79.5,0.5,71,80.0
509,E2,79.5,0.5,71,80.0
510,D2,79.5,0.5,79,80.0
511,F2,79.5,0.5,79,80.0
512,B4,79.75,0.25,79,80.0
513,A4,80.0,0.25,79,80.0
514,C5,80.0,0.125,95,80.0
515,A4,80.0,0.125,95,80.0
516,G2,80.0,0.25,63,80.0
517,A3,80.0,0.25,63,80.0
518,A5,80.0,0.25,63,80.0
519,C2,80.0,0.25,63,80.0
520,G4,80.25,0.25,79,80.0
521,C5,80.25,0.125,95,80.0
522,A4,80.25,0.125,95,80.0
523,A4,80.5,0.25,63,80.0
524,E3,80.5,1.0,68,80.0
525,A2,80.5,1.0,68,80.0
526,E2,80.5,1.0,68,80.0
527,A4,80.75,0.25,79,80.0
528,D2,80.75,0.25,71,80.0
529,G#2,80.75,0.25,71,80.0
530,D2,81.0,0.25,58,80.0
531,A5,81.0,0.25,58,80.0
532,C2,81.0,0.25,58,80.0
533,D3,81.25,727/1000,63,80.0
534,D4,81.25,727/1000,63,80.0
535,F#4,81.25,727/1000,63,80.0
536,A4,81.5,0.25,63,80.0
537,A3,81.5,0.5,67,80.0
538,D3,81.5,0.5,67,80.0
539,A2,81.5,0.5,67,80.0
540,F#2,81.5,0.5,67,80.0
541,G#2,81.75,0.25,95,80.0
542,F#4,82.0,121/500,58,80.0
543,D4,82.0,121/500,58,80.0
544,D3,82.0,121/500,58,80.0
545,D5,82.0,0.125,95,80.0
546,A4,82.0,0.125,95,80.0
547,D2,82.0,0.25,58,80.0
548,A5,82.0,0.25,58,80.0
549,C2,82.0,0.25,58,80.0
550,D3,82.25,483/1000,63,80.0
551,D4,82.25,483/1000,63,80.0
552,F#4,82.25,483/1000,63,80.0
553,D5,82.25,0.125,95,80.0
554,A4,82.25,0.125,95,80.0
555,A3,82.5,0.5,67,80.0
556,D3,82.5,0.5,67,80.0
557,A2,82.5,0.5,67,80.0
558,F#2,82.5,0.5,67,80.0
559,D2,82.5,0.25,55,80.0
560,A4,82.5,0.25,55,80.0
561,A4,82.75,0.25,79,80.0
562,G#2,82.75,0.25,95,80.0
563,F#4,83.0,483/1000,74,80.0
564,D4,83.0,483/1000,74,80.0
565,D3,83.0,483/1000,74,80.0
566,F#4,83.0,0.125,95,80.0
567,D4,83.0,0.125,95,80.0
568,D2,83.0,0.25,58,80.0
569,A5,83.0,0.25,58,80.0
570,C2,83.0,0.25,58,80.0
571,F#4,83.25,0.125,95,80.0
572,D4,83.25,0.125,95,80.0
573,C5,83.5,0.25,79,80.0
574,A4,83.5,0.25,63,80.0
575,E3,83.5,0.5,68,80.0
576,A2,83.5,0.5,68,80.0
577,E2,83.5,0.5,68,80.0
578,B4,83.75,0.25,79,80.0
579,G#2,83.75,0.25,95,80.0
580,A4,84.0,0.25,79,80.0
581,C5,84.0,0.125,95,80.0
582,A4,84.0,0.125,95,80.0
583,D2,84.0,0.25,58,80.0
584,A5,84.0,0.25,58,80.0
585,C2,84.0,0.25,58,80.0
586,G4,84.25,0.25,79,80.0
587,C5,84.25,0.125,95,80.0
588,A4,84.25,0.125,95,80.0
589,A4,84.5,0.25,63,80.0
590,E3,84.5,1.0,68,80.0
591,A2,84.5,1.0,68,80.0
592,E2,84.5,1.0,68,80.0
593,A4,84.75,0.25,79,80.0
594,D2,84.75,0.25,71,80.0
595,G#2,84.75,0.25,71,80.0
596,D2,85.0,0.25,58,80.0
597,A5,85.0,0.25,58,80.0
598,C2,85.0,0.25,58,80.0
599,A4,85.5,0.25,63,80.0
600,D3,85.5,0.219,55,80.0
601,D4,85.5,0.219,55,80.0
602,A3,85.5,0.5,67,80.0
603,D3,85.5,0.5,67,80.0
604,A2,85.5,0.5,67,80.0
605,F#2,85.5,0.5,67,80.0
606,F#4,85.562,0.188,79,80.0
607,G4,85.75,0.25,63,80.0
608,G#2,85.75,0.25,95,80.0
609,F#4,86.0,0.25,63,80.0
610,D5,86.0,0.125,95,80.0
611,A4,86.0,0.125,95,80.0
612,D2,86.0,0.25,58,80.0
613,A5,86.0,0.25,58,80.0
614,C2,86.0,0.25,58,80.0
615,G4,86.25,0.75,63,80.0
616,D5,86.25,0.125,95,80.0
617,A4,86.25,0.125,95,80.0
618,A4,86.5,0.25,63,80.0
619,A3,86.5,0.5,67,80.0
620,D3,86.5,0.5,67,80.0
621,A2,86.5,0.5,67,80.0
622,F#2,86.5,0.5,67,80.0
623,D2,86.75,0.25,71,80.0
624,G#2,86.75,0.25,71,80.0
625,F#4,87.0,0.5,79,80.0
626,F#4,87.0,0.125,95,80.0
627,D4,87.0,0.125,95,80.0
628,D2,87.0,0.25,58,80.0
629,A5,87.0,0.25,58,80.0
630,C2,87.0,0.25,58,80.0
631,F#4,87.25,0.125,95,80.0
632,D4,87.25,0.125,95,80.0
633,C5,87.5,0.25,79,80.0
634,A4,87.5,0.25,63,80.0
635,E3,87.5,0.5,68,80.0
636,A2,87.5,0.5,68,80.0
637,E2,87.5,0.5,68,80.0
638,B4,87.75,0.25,79,80.0
639,G#2,87.75,0.25,95,80.0
640,A4,88.0,0.25,79,80.0
641,C5,88.0,0.125,95,80.0
642,A4,88.0,0.125,95,80.0
643,D2,88.0,0.25,58,80.0
644,A5,88.0,0.25,58,80.0
645,C2,88.0,0.25,58,80.0
646,G4,88.25,0.25,79,80.0
647,C5,88.25,0.125,95,80.0
648,A4,88.25,0.125,95,80.0
649,A4,88.5,0.25,63,80.0
650,E3,88.5,1.0,68,80.0
651,A2,88.5,1.0,68,80.0
652,E2,88.5,1.0,68,80.0
653,A4,88.75,0.25,79,80.0
654,D2,88.75,0.25,71,80.0
655,G#2,88.75,0.25,71,80.0
656,D2,89.0,0.25,58,80.0
657,A5,89.0,0.25,58,80.0
658,C2,89.0,0.25,58,80.0
659,A4,89.5,0.25,63,80.0
660,D3,89.5,0.219,55,80.0
661,D4,89.5,0.219,55,80.0
662,A3,89.5,0.5,67,80.0
663,D3,89.5,0.5,67,80.0
664,A2,89.5,0.5,67,80.0
665,F#2,89.5,0.5,67,80.0
666,F#4,89.562,0.188,79,80.0
667,C5,89.75,0.5,79,80.0
668,G#2,89.75,0.25,95,80.0
669,D5,90.0,0.125,95,80.0
670,A4,90.0,0.125,95,80.0
671,D2,90.0,0.25,58,80.0
672,A5,90.0,0.25,58,80.0
673,C2,90.0,0.25,58,80.0
674,A4,90.25,0.25,79,80.0
675,D5,90.25,0.125,95,80.0
676,A4,90.25,0.125,95,80.0
677,G4,90.5,0.5,63,80.0
678,A4,90.5,0.25,63,80.0
679,A3,90.5,0.5,67,80.0
680,D3,90.5,0.5,67,80.0
681,A2,90.5,0.5,67,80.0
682,F#2,90.5,0.5,67,80.0
683,D2,90.75,0.25,71,80.0
684,G#2,90.75,0.25,71,80.0
685,A4,91.0,0.5,79,80.0
686,F#4,91.0,0.125,95,80.0
687,D4,91.0,0.125,95,80.0
688,D2,91.0,0.25,58,80.0
689,A5,91.0,0.25,58,80.0
690,C2,91.0,0.25,58,80.0
691,F#4,91.25,0.125,95,80.0
692,D4,91.25,0.125,95,80.0
693,G4,91.5,0.25,95,80.0
694,A4,91.5,0.25,63,80.0
695,G4,91.5,0.25,95,80.0
696,D4,91.5,0.25,95,80.0
697,B3,91.5,0.25,95,80.0
698,G3,91.5,0.25,95,80.0
699,G2,91.5,0.25,95,80.0
700,G#2,91.75,0.25,95,80.0
701,D2,92.0,0.75,79,80.0
702,F2,92.0,0.75,79,80.0
703,E4,92.25,0.25,95,80.0
704,E4,92.25,0.25,95,80.0
705,C4,92.25,0.25,95,80.0
706,G3,92.25,0.25,95,80.0
707,E3,92.25,0.25,95,80.0
708,E2,92.25,0.25,95,80.0
709,D2,92.75,0.75,79,80.0
710,F2,92.75,0.75,79,80.0
711,F4,93.0,0.25,95,80.0
712,F4,93.0,0.25,95,80.0
713,C4,93.0,0.25,95,80.0
714,A3,93.0,0.25,95,80.0
715,F3,93.0,0.25,95,80.0
716,F2,93.0,0.25,95,80.0
717,D2,93.5,0.75,79,80.0
718,F2,93.5,0.75,79,80.0
719,D4,93.75,0.25,95,80.0
720,D4,93.75,0.25,95,80.0
721,B3,93.75,0.25,95,80.0
722,F3,93.75,0.25,95,80.0
723,G#2,93.75,0.25,95,80.0
724,D2,94.25,0.75,79,80.0
725,F2,94.25,0.75,79,80.0
726,E4,94.5,0.25,95,80.0
727,E4,94.5,0.5,95,80.0
728,D4,94.5,0.5,95,80.0
729,A3,94.5,0.5,95,80.0
730,E3,94.5,0.5,95,80.0
731,E2,94.5,0.5,95,80.0
732,D2,95.0,0.75,79,80.0
733,F2,95.0,0.75,79,80.0
734,E4,95.25,0.25,95,80.0
735,E4,95.25,0.5,95,80.0
736,D4,95.25,0.5,95,80.0
737,A3,95.25,0.5,95,80.0
738,F3,95.25,0.5,95,80.0
739,D2,95.75,0.75,79,80.0
740,F2,95.75,0.75,79,80.0
741,E4,96.0,4.0,79,80.0
742,D4,96.0,4.0,79,80.0
743,A3,96.0,4.0,79,80.0
744,F3,96.0,4.0,79,80.0
745,A2,96.0,4.0,79,80.0
746,A2,96.083,83/1000,79,80.0
747,F3,96.167,83/1000,79,80.0
748,A3,96.25,83/1000,79,80.0
749,D4,96.333,83/1000,79,80.0
750,E4,96.417,83/1000,79,80.0
751,D4,96.5,0.125,79,80.0
752,A3,96.625,0.125,79,80.0
753,F3,96.75,0.125,79,80.0
754,A2,96.875,3.125,79,80.0
755,A3,97.0,3.5,31,80.0
756,A3,97.125,3.375,31,80.0
757,A3,97.25,3.25,31,80.0
758,A3,97.375,3.125,47,80.0
759,A3,97.5,3.0,47,80.0
760,A3,97.625,2.875,47,80.0
761,A2,100.0,0.25,79,80.0
762,F3,100.25,0.5,79,80.0
763,A3,100.75,0.5,79,80.0
764,D4,101.25,0.5,79,80.0
765,E4,101.75,0.5,79,80.0
766,E4,102.0,2.0,79,80.0
767,D4,102.0,2.0,79,80.0
768,A3,102.0,2.0,79,80.0
769,F3,102.0,2.0,79,80.0
770,A2,102.0,2.0,79,80.0
771,D4,102.25,0.25,79,80.0
772,A3,102.5,0.25,79,80.0
773,A2,102.75,0.25,79,80.0
774,F3,103.0,0.25,79,80.0
775,A3,103.25,0.25,79,80.0
776,D4,103.5,0.5,79,80.0
777,C4,104.0,0.25,95,80.0
778,A2,104.0,1.0,79,80.0
779,B3,104.25,0.25,70,80.0
780,C4,104.5,0.25,70,80.0
781,B-2,104.5,0.5,58,80.0
782,E2,104.5,0.5,58,80.0
783,C2,104.5,0.5,58,80.0
784,A3,104.75,0.5,95,80.0
785,A2,105.0,1.0,79,80.0
786,G#2,105.0,0.5,79,80.0
787,C4,105.25,0.5,95,80.0
788,A3,105.25,0.5,95,80.0
789,G#2,105.5,0.5,63,80.0
790,D2,105.5,0.5,63,80.0
791,B3,105.75,2.0,95,80.0
792,G3,105.75,0.25,95,80.0
793,G2,106.0,0.75,95,80.0
794,G#2,106.0,0.5,79,80.0
795,A3,106.0,2.0,63,80.0
796,E3,106.0,2.0,63,80.0
797,D3,106.25,0.25,79,80.0
798,G3,106.5,0.25,79,80.0
799,G#2,106.5,0.5,68,80.0
800,E2,106.5,0.5,68,80.0
801,C2,106.5,0.5,68,80.0
802,F#2,106.75,0.75,95,80.0
803,D3,107.0,0.25,79,80.0
804,G#2,107.0,0.5,79,80.0
805,G3,107.25,0.25,79,80.0
806,E2,107.5,0.5,95,80.0
807,G#2,107.5,0.5,63,80.0
808,D2,107.5,0.5,63,80.0
809,G3,107.75,0.25,79,80.0
810,B3,108.0,0.25,95,80.0
811,E2,108.0,1.0,79,80.0
812,G3,108.0,2.0,63,80.0
813,D3,108.0,2.0,63,80.0
814,G#2,108.0,0.5,68,80.0
815,E2,108.0,0.5,68,80.0
816,C2,108.0,0.5,68,80.0
817,A3,108.25,0.25,95,80.0
818,G3,108.5,0.25,70,80.0
819,B-2,108.5,0.5,58,80.0
820,E2,108.5,0.5,58,80.0
821,C2,108.5,0.5,58,80.0
822,A3,108.75,0.25,95,80.0
823,E2,109.0,1.0,79,80.0
824,G#2,109.0,0.5,79,80.0
825,B3,109.25,0.5,95,80.0
826,G3,109.25,0.5,95,80.0
827,G#2,109.5,0.5,63,80.0
828,D2,109.5,0.5,63,80.0
829,A3,109.75,0.25,95,80.0
830,A2,110.0,0.75,95,80.0
831,G#2,110.0,0.5,79,80.0
832,G3,110.0,2.0,63,80.0
833,D3,110.0,2.0,63,80.0
834,E3,110.25,0.25,79,80.0
835,A3,110.5,0.25,79,80.0
836,G#2,110.5,0.5,68,80.0
837,E2,110.5,0.5,68,80.0
838,C2,110.5,0.5,68,80.0
839,A2,110.75,0.75,95,80.0
840,E3,111.0,0.25,79,80.0
841,G#2,111.0,0.5,79,80.0
842,A3,111.25,0.25,79,80.0
843,A2,111.5,0.5,79,80.0
844,G#2,111.5,0.5,63,80.0
845,D2,111.5,0.5,63,80.0
846,A3,111.75,0.25,79,80.0
847,C4,112.0,0.25,95,80.0
848,A2,112.0,1.0,79,80.0
849,E3,112.0,2.0,63,80.0
850,C3,112.0,2.0,63,80.0
851,G#2,112.0,0.5,68,80.0
852,E2,112.0,0.5,68,80.0
853,C2,112.0,0.5,68,80.0
854,B3,112.25,0.25,70,80.0
855,C4,112.5,0.25,70,80.0
856,B-2,112.5,0.5,58,80.0
857,E2,112.5,0.5,58,80.0
858,C2,112.5,0.5,58,80.0
859,A3,112.75,0.5,95,80.0
860,A2,113.0,1.0,79,80.0
861,G#2,113.0,0.5,79,80.0
862,C4,113.25,0.5,95,80.0
863,A3,113.25,0.5,95,80.0
864,C5,113.5,0.25,63,80.0
865,A4,113.5,0.5,47,80.0
866,G#2,113.5,0.5,63,80.0
867,D2,113.5,0.5,63,80.0
868,B3,113.75,2.0,95,80.0
869,G3,113.75,0.25,95,80.0
870,D5,113.75,0.25,63,80.0
871,G2,114.0,0.75,95,80.0
872,C3,114.0,1.5,63,80.0
873,G#2,114.0,0.5,79,80.0
874,E5,114.0,1.75,67,80.0
875,C5,114.0,1.75,67,80.0
876,A3,114.0,1.75,67,80.0
877,E3,114.0,1.75,67,80.0
878,D3,114.25,0.25,79,80.0
879,G3,114.5,0.25,79,80.0
880,G#2,114.5,0.5,68,80.0
881,E2,114.5,0.5,68,80.0
882,C2,114.5,0.5,68,80.0
883,F#2,114.75,0.75,95,80.0
884,D3,115.0,0.25,79,80.0
885,G#2,115.0,0.5,79,80.0
886,G3,115.25,0.25,79,80.0
887,E2,115.5,0.5,95,80.0
888,G#2,115.5,0.5,63,80.0
889,D2,115.5,0.5,63,80.0
890,G3,115.75,0.25,79,80.0
891,D5,115.75,2.25,55,80.0
892,B4,115.75,2.25,55,80.0
893,B3,116.0,0.25,95,80.0
894,E2,116.0,1.0,79,80.0
895,G3,116.0,2.0,74,80.0
896,D3,116.0,2.0,74,80.0
897,B2,116.0,2.0,74,80.0
898,G#2,116.0,0.5,68,80.0
899,E2,116.0,0.5,68,80.0
900,C2,116.0,0.5,68,80.0
901,A3,116.25,0.25,95,80.0
902,G3,116.5,0.25,70,80.0
903,B-2,116.5,0.5,58,80.0
904,E2,116.5,0.5,58,80.0
905,C2,116.5,0.5,58,80.0
906,A3,116.75,0.25,95,80.0
907,E2,117.0,1.25,79,80.0
908,G#2,117.0,0.5,79,80.0
909,B3,117.25,0.5,95,80.0
910,G3,117.25,0.5,95,80.0
911,G#2,117.5,0.5,63,80.0
912,D2,117.5,0.5,63,80.0
913,A3,117.75,0.5,95,80.0
914,G#2,118.0,0.5,79,80.0
915,D6,118.0,2.0,66,80.0
916,A5,118.0,2.0,66,80.0
917,G3,118.0,2.0,66,80.0
918,D3,118.0,2.0,66,80.0
919,B2,118.0,2.0,66,80.0
920,C4,118.25,1.75,79,80.0
921,A3,118.312,1.688,79,80.0
922,E3,118.375,1.625,79,80.0
923,A2,118.438,1.562,79,80.0
924,E2,118.5,1.5,79,80.0
925,B-2,118.5,1.0,58,80.0
926,E2,118.5,1.0,58,80.0
927,C2,118.5,1.0,58,80.0
928,C4,120.0,2.0,79,80.0
929,A3,120.0,2.0,79,80.0
930,E3,120.0,2.0,79,80.0
931,A2,120.0,2.0,79,80.0
932,E2,120.0,2.0,79,80.0
933,E5,120.0,2.0,63,80.0
934,E3,120.0,0.5,74,80.0
935,C3,120.0,0.5,74,80.0
936,E2,120.0,0.5,74,80.0
937,A2,122.0,1.0,63,80.0
938,E5,122.0,2.0,63,80.0
939,D3,122.062,0.938,63,80.0
940,A3,122.125,0.875,79,80.0
941,D4,122.188,0.812,63,80.0
942,F#4,122.25,0.75,79,80.0
943,G4,123.0,0.375,79,80.0
944,G4,123.375,0.125,79,80.0
945,A4,123.5,0.5,79,80.0
946,A4,124.0,1.5,79,80.0
947,C#3,124.0,1.5,79,80.0
948,A2,125.5,0.5,79,80.0
949,A2,126.0,1.0,63,80.0
950,D3,126.062,0.938,63,80.0
951,A3,126.125,0.875,79,80.0
952,D4,126.188,0.812,79,80.0
953,F#4,126.25,0.75,79,80.0
954,G4,127.0,0.375,79,80.0
955,G4,127.375,0.125,79,80.0
956,A4,127.5,0.5,79,80.0
957,A4,128.0,1.5,79,80.0
958,C#3,128.0,1.5,79,80.0
959,A2,129.5,0.5,79,80.0
960,A2,130.0,1.0,63,80.0
961,D3,130.062,0.938,63,80.0
962,A3,130.125,0.875,79,80.0
963,D4,130.188,0.812,79,80.0
964,F#4,130.25,0.75,79,80.0
965,G4,131.0,0.375,79,80.0
966,G4,131.375,0.125,79,80.0
967,A4,131.5,0.5,79,80.0
968,A4,132.0,1.0,79,80.0
969,C#3,132.0,1.0,79,80.0
970,B4,133.0,0.5,79,80.0
971,C#5,133.5,0.5,79,80.0
972,B3,134.0,1.0,63,80.0
973,E4,134.062,0.938,63,80.0
974,G#4,134.125,0.875,63,80.0
975,D5,134.188,0.812,79,80.0
976,D4,135.0,0.469,79,80.0
977,G#4,135.0,0.469,79,80.0
978,B4,135.062,0.438,79,80.0
979,C#5,135.5,0.5,79,80.0
980,A3,136.0,1.5,79,80.0
981,D4,136.062,0.938,79,80.0
982,E4,136.125,1.375,79,80.0
983,A4,136.188,1.312,79,80.0
984,C#4,137.0,0.5,79,80.0
985,A2,137.5,0.5,79,80.0
986,A2,138.0,1.0,79,80.0
987,D4,138.062,0.938,79,80.0
988,F#4,138.125,0.875,79,80.0
989,G4,139.0,0.375,79,80.0
990,G4,139.375,0.125,79,80.0
991,A4,139.5,0.5,79,80.0
992,A4,140.0,1.5,79,80.0
993,C#3,140.0,0.75,79,80.0
994,D4,140.0,2.0,79,80.0
995,E3,140.75,0.25,63,80.0
996,D3,141.0,0.5,63,80.0
997,A2,141.5,0.5,63,80.0
998,D4,142.0,1.5,79,80.0
999,F#4,142.0,1.0,79,80.0
1000,D4,142.0,1.0,79,80.0
1001,A2,142.0,1.0,79,80.0
1002,G4,143.0,0.375,79,80.0
1003,G4,143.375,0.125,79,80.0
1004,A4,143.5,0.5,79,80.0
1005,B3,143.5,0.25,63,80.0
1006,E4,143.75,0.25,63,80.0
1007,A4,144.0,1.5,79,80.0
1008,C#3,144.0,0.5,79,80.0
1009,D4,144.0,2.0,63,80.0
1010,E3,144.5,0.5,63,80.0
1011,D3,145.0,0.5,63,80.0
1012,A2,145.5,0.5,63,80.0
1013,A2,146.0,1.0,63,80.0
1014,D4,146.0,1.5,63,80.0
1015,D3,146.062,0.938,63,80.0
1016,A3,146.125,0.875,79,80.0
1017,D4,146.188,0.812,79,80.0
1018,F#4,146.25,0.75,79,80.0
1019,G4,147.0,0.375,79,80.0
1020,G4,147.375,0.125,79,80.0
1021,A4,147.5,0.5,79,80.0
1022,B3,147.5,0.25,63,80.0
1023,E4,147.75,0.25,63,80.0
1024,D4,148.0,2.0,63,80.0
1025,A4,148.0,1.0,79,80.0
1026,C#3,148.0,1.0,79,80.0
1027,B2,149.0,0.453,71,80.0
1028,D3,149.0,0.453,71,80.0
1029,G3,149.0,0.453,71,80.0
1030,B3,149.0,0.453,71,80.0
1031,G4,149.062,0.438,79,80.0
1032,F#4,149.5,0.5,79,80.0
1033,D4,150.0,1.0,63,80.0
1034,A2,150.0,0.969,63,80.0
1035,E3,150.0,0.969,63,80.0
1036,G3,150.062,0.906,79,80.0
1037,C#4,150.062,0.906,79,80.0
1038,E4,150.125,0.875,79,80.0
1039,G3,151.0,1.0,63,80.0
1040,E3,151.0,0.453,67,80.0
1041,A3,151.0,0.453,67,80.0
1042,C#4,151.0,0.453,67,80.0
1043,F#4,151.0,0.453,67,80.0
1044,E4,151.5,0.5,79,80.0
1045,A3,152.0,1.0,63,80.0
1046,A2,152.0,3.969,63,80.0
1047,D3,152.0,3.969,63,80.0
1048,A3,152.062,3.906,71,80.0
1049,D4,152.062,3.906,71,80.0
1050,A2,153.0,1.0,63,80.0
1051,D3,154.0,4.0,63,80.0
1052,G2,156.0,0.25,79,80.0
1053,G3,156.25,0.25,79,80.0
1054,F3,156.5,0.25,79,80.0
1055,E3,156.75,0.25,79,80.0
1056,D3,157.0,0.25,79,80.0
1057,C3,157.25,0.25,79,80.0
1058,B2,157.5,0.25,79,80.0
1059,A2,157.75,0.25,79,80.0
1060,G2,158.0,0.25,79,80.0
1061,G3,158.0,0.25,79,80.0
1062,B3,158.25,0.25,79,80.0
1063,G4,158.25,0.25,79,80.0
1064,A3,158.5,0.25,79,80.0
1065,F4,158.5,0.25,79,80.0
1066,G3,158.75,0.25,79,80.0
1067,E4,158.75,0.25,79,80.0
1068,F3,159.0,0.25,79,80.0
1069,D4,159.0,0.25,79,80.0
1070,E3,159.25,0.25,79,80.0
1071,C4,159.25,0.25,79,80.0
1072,D3,159.5,0.25,79,80.0
1073,B3,159.5,0.25,79,80.0
1074,C3,159.75,0.25,79,80.0
1075,A3,159.75,0.25,79,80.0
1076,B2,160.0,0.25,79,80.0
1077,G3,160.0,0.25,79,80.0
1078,D4,160.25,0.25,79,80.0
1079,B4,160.25,0.25,79,80.0
1080,C4,160.5,0.25,79,80.0
1081,A4,160.5,0.25,79,80.0
1082,B3,160.75,0.25,79,80.0
1083,G4,160.75,0.25,79,80.0
1084,A3,161.0,0.25,79,80.0
1085,F4,161.0,0.25,79,80.0
1086,G3,161.25,0.25,79,80.0
1087,E4,161.25,0.25,79,80.0
1088,F3,161.5,0.25,79,80.0
1089,D4,161.5,0.25,79,80.0
1090,E3,161.75,0.25,79,80.0
1091,C4,161.75,0.25,79,80.0
1092,D3,162.0,0.25,79,80.0
1093,G2,162.0,4.0,79,80.0
1094,B3,162.0,2.0,79,80.0
1095,C3,162.25,0.25,79,80.0
1096,D6,162.25,0.125,71,80.0
1097,B5,162.25,0.125,71,80.0
1098,D6,162.375,0.125,71,80.0
1099,B5,162.375,0.125,71,80.0
1100,B2,162.5,0.25,79,80.0
1101,C6,162.5,0.125,71,80.0
1102,A5,162.5,0.125,71,80.0
1103,C6,162.625,0.125,71,80.0
1104,A5,162.625,0.125,71,80.0
1105,A2,162.75,0.25,79,80.0
1106,B5,162.75,0.125,71,80.0
1107,G5,162.75,0.125,71,80.0
1108,B5,162.875,0.125,71,80.0
1109,G5,162.875,0.125,71,80.0
1110,G2,163.0,1.0,79,80.0
1111,A5,163.0,0.125,71,80.0
1112,F5,163.0,0.125,71,80.0
1113,A5,163.125,0.125,71,80.0
1114,F5,163.125,0.125,71,80.0
1115,G5,163.25,0.125,71,80.0
1116,E5,163.25,0.125,71,80.0
1117,G5,163.375,0.125,71,80.0
1118,E5,163.375,0.125,71,80.0
1119,F5,163.5,0.125,71,80.0
1120,D5,163.5,0.125,71,80.0
1121,F5,163.625,0.125,71,80.0
1122,D5,163.625,0.125,71,80.0
1123,E5,163.75,0.125,71,80.0
1124,C5,163.75,0.125,71,80.0
1125,E5,163.875,0.125,71,80.0
1126,C5,163.875,0.125,71,80.0
1127,E3,164.0,0.5,95,80.0
1128,D5,164.0,0.125,71,80.0
1129,B4,164.0,0.125,71,80.0
1130,D5,164.125,0.125,71,80.0
1131,B4,164.125,0.125,71,80.0
1132,G3,164.25,0.25,47,80.0
1133,C5,164.25,0.125,71,80.0
1134,A4,164.25,0.125,71,80.0
1135,C5,164.375,0.125,71,80.0
1136,A4,164.375,0.125,71,80.0
1137,E3,164.5,0.5,95,80.0
1138,B4,164.5,0.125,63,80.0
1139,G4,164.5,0.125,63,80.0
1140,B4,164.625,0.125,71,80.0
1141,G4,164.625,0.125,71,80.0
1142,G3,164.75,0.25,47,80.0
1143,C5,164.75,0.125,71,80.0
1144,E4,164.75,0.125,71,80.0
1145,C5,164.875,0.125,71,80.0
1146,E4,164.875,0.125,71,80.0
1147,E3,165.0,0.5,79,80.0
1148,D5,165.0,0.125,71,80.0
1149,D4,165.0,0.125,71,80.0
1150,D5,165.125,0.125,71,80.0
1151,D4,165.125,0.125,71,80.0
1152,G3,165.25,0.25,47,80.0
1153,G5,165.25,0.125,71,80.0
1154,B3,165.25,0.125,71,80.0
1155,G5,165.375,0.125,71,80.0
1156,B3,165.375,0.125,71,80.0
1157,E3,165.5,0.5,79,80.0
1158,A5,165.5,0.125,71,80.0
1159,C4,165.5,0.125,71,80.0
1160,A5,165.625,0.125,71,80.0
1161,C4,165.625,0.125,71,80.0
1162,G3,165.75,0.25,95,80.0
1163,B5,165.75,0.125,71,80.0
1164,D4,165.75,0.125,71,80.0
1165,B5,165.875,0.125,71,80.0
1166,D4,165.875,0.125,71,80.0
1167,F3,166.0,0.5,95,80.0
1168,C6,166.0,0.25,71,80.0
1169,C4,166.0,0.25,71,80.0
1170,E3,166.0,0.25,71,80.0
1171,C3,166.0,0.25,71,80.0
1172,G3,166.25,0.25,47,80.0
1173,G2,166.25,0.25,79,80.0
1174,F3,166.5,0.5,95,80.0
1175,E3,166.5,0.25,79,80.0
1176,C3,166.5,0.25,79,80.0
1177,G3,166.75,0.25,47,80.0
1178,G2,166.75,0.25,79,80.0
1179,F3,167.0,0.5,79,80.0
1180,E3,167.0,0.25,79,80.0
1181,C3,167.0,0.25,79,80.0
1182,G2,167.25,0.25,79,80.0
1183,C4,167.25,0.25,95,80.0
1184,G3,167.25,0.25,95,80.0
1185,F3,167.5,0.5,79,80.0
1186,D4,167.5,0.25,95,80.0
1187,G3,167.5,0.25,95,80.0
1188,E3,167.5,0.25,79,80.0
1189,C3,167.5,0.25,79,80.0
1190,G2,167.75,0.25,79,80.0
1191,B3,167.75,0.25,95,80.0
1192,G3,167.75,0.25,95,80.0
1193,C4,168.0,0.5,87,80.0
1194,E3,168.0,0.5,87,80.0
1195,F3,168.0,0.25,79,80.0
1196,D3,168.0,0.25,79,80.0
1197,G3,168.25,0.25,79,80.0
1198,G2,168.25,0.25,79,80.0
1199,C4,168.5,0.5,87,80.0
1200,E3,168.5,0.5,87,80.0
1201,F3,168.5,0.25,79,80.0
1202,D3,168.5,0.25,79,80.0
1203,G3,168.75,0.25,79,80.0
1204,G2,168.75,0.25,79,80.0
1205,C4,169.0,0.25,95,80.0
1206,E3,169.0,0.5,79,80.0
1207,F3,169.0,0.25,79,80.0
1208,D3,169.0,0.25,79,80.0
1209,B3,169.25,0.25,95,80.0
1210,G2,169.25,0.25,79,80.0
1211,C4,169.5,0.25,95,80.0
1212,E3,169.5,0.5,79,80.0
1213,F3,169.5,0.25,79,80.0
1214,D3,169.5,0.25,79,80.0
1215,E4,169.75,0.25,95,80.0
1216,G2,169.75,0.25,79,80.0
1217,G4,170.0,0.5,87,80.0
1218,D3,170.0,0.5,87,80.0
1219,E4,170.0,0.25,87,80.0
1220,C4,170.0,0.25,87,80.0
1221,E3,170.0,0.25,87,80.0
1222,C3,170.0,0.25,87,80.0
1223,G2,170.25,0.25,79,80.0
1224,E4,170.5,0.25,87,80.0
1225,C4,170.5,0.25,87,80.0
1226,E3,170.5,0.25,87,80.0
1227,C3,170.5,0.25,87,80.0
1228,F4,170.75,0.25,95,80.0
1229,G2,170.75,0.25,79,80.0
1230,F4,171.0,0.25,95,80.0
1231,C3,171.0,1.0,79,80.0
1232,E4,171.0,0.25,87,80.0
1233,C4,171.0,0.25,87,80.0
1234,G3,171.0,0.25,87,80.0
1235,C3,171.0,0.25,87,80.0
1236,E4,171.25,0.25,95,80.0
1237,G2,171.25,0.25,79,80.0
1238,D4,171.5,0.25,95,80.0
1239,E4,171.5,0.25,87,80.0
1240,C4,171.5,0.25,87,80.0
1241,G3,171.5,0.25,87,80.0
1242,C3,171.5,0.25,87,80.0
1243,C4,171.75,0.25,95,80.0
1244,G2,171.75,0.25,79,80.0
1245,A3,172.0,0.25,95,80.0
1246,F3,172.0,1.0,79,80.0
1247,D4,172.0,0.25,87,80.0
1248,B3,172.0,0.25,87,80.0
1249,F3,172.0,0.25,87,80.0
1250,D3,172.0,0.25,87,80.0
1251,B3,172.25,0.25,95,80.0
1252,G2,172.25,0.25,79,80.0
1253,C4,172.5,0.25,95,80.0
1254,B3,172.5,0.25,84,80.0
1255,F3,172.5,0.25,84,80.0
1256,D3,172.5,0.25,84,80.0
1257,C#4,172.75,0.25,95,80.0
1258,G2,172.75,0.25,79,80.0
1259,D4,173.0,0.25,95,80.0
1260,C4,173.0,0.25,84,80.0
1261,E3,173.0,0.25,84,80.0
1262,C3,173.0,0.25,84,80.0
1263,D3,173.25,0.25,95,80.0
1264,G2,173.25,0.25,79,80.0
1265,E3,173.5,0.25,95,80.0
1266,G3,173.5,0.25,84,80.0
1267,F3,173.5,0.25,84,80.0
1268,C3,173.5,0.25,84,80.0
1269,F#3,173.75,0.25,95,80.0
1270,G2,173.75,0.25,79,80.0
1271,G3,174.0,0.25,95,80.0
1272,F4,174.0,0.25,95,80.0
1273,B3,174.0,0.25,95,80.0
1274,D4,174.25,0.25,95,80.0
1275,C4,174.5,0.25,95,80.0
1276,A3,174.75,0.25,95,80.0
1277,F4,174.75,0.25,95,80.0
1278,B3,174.75,0.25,95,80.0
1279,G3,175.0,1.0,95,80.0
1280,F4,175.0,0.25,95,80.0
1281,B3,175.0,0.25,95,80.0
1282,B2,175.0,0.25,95,80.0
1283,F#4,175.75,0.25,95,80.0
1284,D4,175.75,0.25,95,80.0
1285,D3,175.75,0.25,95,80.0
1286,E3,176.0,0.5,111,80.0
1287,G4,176.0,0.5,95,80.0
1288,D4,176.0,0.5,95,80.0
1289,D3,176.0,0.5,95,80.0
1290,G3,176.25,0.25,95,80.0
1291,E3,176.5,0.5,95,80.0
1292,F#4,176.5,0.5,68,80.0
1293,D4,176.5,0.5,68,80.0
1294,D3,176.5,0.5,68,80.0
1295,G3,176.75,0.25,95,80.0
1296,E3,177.0,0.5,79,80.0
1297,G4,177.0,1.0,68,80.0
1298,D4,177.0,1.0,68,80.0
1299,G2,177.0,1.0,68,80.0
1300,G3,177.25,0.25,95,80.0
1301,E3,177.5,0.5,79,80.0
1302,G3,177.75,0.25,95,80.0
1303,F3,178.0,0.5,111,80.0
1304,E3,178.0,0.25,71,80.0
1305,C3,178.0,0.25,71,80.0
1306,G3,178.25,0.25,79,80.0
1307,G2,178.25,0.25,79,80.0
1308,F3,178.5,0.5,95,80.0
1309,E3,178.5,0.25,79,80.0
1310,C3,178.5,0.25,79,80.0
1311,G3,178.75,0.25,79,80.0
1312,G2,178.75,0.25,79,80.0
1313,F3,179.0,0.5,79,80.0
1314,E3,179.0,0.25,79,80.0
1315,C3,179.0,0.25,79,80.0
1316,G2,179.25,0.25,79,80.0
1317,C4,179.25,0.25,95,80.0
1318,G3,179.25,0.25,95,80.0
1319,F3,179.5,0.5,79,80.0
1320,D4,179.5,0.25,95,80.0
1321,G3,179.5,0.25,95,80.0
1322,E3,179.5,0.25,79,80.0
1323,C3,179.5,0.25,79,80.0
1324,G2,179.75,0.25,79,80.0
1325,B3,179.75,0.25,95,80.0
1326,G3,179.75,0.25,95,80.0
1327,C4,180.0,0.5,87,80.0
1328,E3,180.0,0.5,87,80.0
1329,F3,180.0,0.25,79,80.0
1330,D3,180.0,0.25,79,80.0
1331,G3,180.25,0.25,79,80.0
1332,G2,180.25,0.25,79,80.0
1333,C4,180.5,0.5,87,80.0
1334,E3,180.5,0.5,87,80.0
1335,F3,180.5,0.25,79,80.0
1336,D3,180.5,0.25,79,80.0
1337,G3,180.75,0.25,79,80.0
1338,G2,180.75,0.25,79,80.0
1339,C4,181.0,0.25,95,80.0
1340,E3,181.0,0.5,79,80.0
1341,F3,181.0,0.25,79,80.0
1342,D3,181.0,0.25,79,80.0
1343,B3,181.25,0.25,95,80.0
1344,G2,181.25,0.25,79,80.0
1345,C4,181.5,0.25,95,80.0
1346,E3,181.5,0.5,79,80.0
1347,F3,181.5,0.25,79,80.0
1348,D3,181.5,0.25,79,80.0
1349,E4,181.75,0.25,95,80.0
1350,G2,181.75,0.25,79,80.0
1351,G4,182.0,0.5,87,80.0
1352,D3,182.0,0.5,87,80.0
1353,E4,182.0,0.25,87,80.0
1354,C4,182.0,0.25,87,80.0
1355,E3,182.0,0.25,87,80.0
1356,C3,182.0,0.25,87,80.0
1357,G2,182.25,0.25,79,80.0
1358,E4,182.5,0.25,87,80.0
1359,C4,182.5,0.25,87,80.0
1360,E3,182.5,0.25,87,80.0
1361,C3,182.5,0.25,87,80.0
1362,F4,182.75,0.25,95,80.0
1363,G2,182.75,0.25,79,80.0
1364,F4,183.0,0.25,95,80.0
1365,C3,183.0,1.0,79,80.0
1366,E4,183.0,0.25,87,80.0
1367,C4,183.0,0.25,87,80.0
1368,G3,183.0,0.25,87,80.0
1369,C3,183.0,0.25,87,80.0
1370,E4,183.25,0.25,95,80.0
1371,G2,183.25,0.25,79,80.0
1372,D4,183.5,0.25,95,80.0
1373,E4,183.5,0.25,87,80.0
1374,C4,183.5,0.25,87,80.0
1375,G3,183.5,0.25,87,80.0
1376,C3,183.5,0.25,87,80.0
1377,C4,183.75,0.25,95,80.0
1378,G2,183.75,0.25,79,80.0
1379,A3,184.0,0.25,95,80.0
1380,F3,184.0,1.0,79,80.0
1381,D4,184.0,0.25,87,80.0
1382,B3,184.0,0.25,87,80.0
1383,F3,184.0,0.25,87,80.0
1384,D3,184.0,0.25,87,80.0
1385,F4,184.25,0.25,95,80.0
1386,G2,184.25,0.25,79,80.0
1387,E4,184.5,0.25,95,80.0
1388,B3,184.5,0.25,84,80.0
1389,F3,184.5,0.25,84,80.0
1390,D3,184.5,0.25,84,80.0
1391,D4,184.75,0.25,95,80.0
1392,G2,184.75,0.25,79,80.0
1393,C4,185.0,0.25,95,80.0
1394,C4,185.0,0.25,84,80.0
1395,E3,185.0,0.25,84,80.0
1396,C3,185.0,0.25,84,80.0
1397,B3,185.25,0.25,95,80.0
1398,G2,185.25,0.25,79,80.0
1399,A3,185.5,0.25,95,80.0
1400,G3,185.5,0.25,84,80.0
1401,F3,185.5,0.25,84,80.0
1402,C3,185.5,0.25,84,80.0
1403,G3,185.75,0.25,95,80.0
1404,G2,185.75,0.25,79,80.0
1405,F3,186.0,0.125,95,80.0
1406,F4,186.0,0.25,95,80.0
1407,B3,186.0,0.25,95,80.0
1408,F3,186.125,0.125,95,80.0
1409,E3,186.25,0.125,95,80.0
1410,E3,186.375,0.125,95,80.0
1411,D3,186.5,0.125,95,80.0
1412,D3,186.625,0.125,95,80.0
1413,C3,186.75,0.125,95,80.0
1414,F4,186.75,0.25,79,80.0
1415,B3,186.75,0.25,79,80.0
1416,C3,186.875,0.125,95,80.0
1417,B2,187.0,0.125,95,80.0
1418,F4,187.0,0.25,63,80.0
1419,B3,187.0,0.25,63,80.0
1420,B2,187.0,0.25,63,80.0
1421,B2,187.125,0.125,95,80.0
1422,A2,187.25,0.125,95,80.0
1423,A2,187.375,0.125,95,80.0
1424,G2,187.5,0.125,95,80.0
1425,G2,187.625,0.125,95,80.0
1426,F2,187.75,0.125,95,80.0
1427,F4,187.75,0.25,63,80.0
1428,B3,187.75,0.25,63,80.0
1429,B2,187.75,0.25,63,80.0
1430,F2,187.875,0.125,95,80.0
1431,E2,188.0,1.5,95,80.0
1432,F4,188.0,0.75,63,80.0
1433,B3,188.0,0.75,63,80.0
1434,A3,188.5,1.0,127,80.0
1435,F4,188.75,0.25,63,80.0
1436,B3,188.75,0.25,63,80.0
1437,B2,188.75,0.25,63,80.0
1438,F4,189.0,0.75,63,80.0
1439,B3,189.0,0.75,63,80.0
1440,B2,189.0,0.75,63,80.0
1441,F3,189.5,0.375,95,80.0
1442,G#3,189.625,0.25,95,80.0
1443,B3,189.75,0.25,95,80.0
1444,F4,189.75,0.25,63,80.0
1445,B3,189.75,0.25,63,80.0
1446,B2,189.75,0.25,63,80.0
1447,E4,189.875,0.25,95,80.0
1448,B3,190.0,0.25,95,80.0
1449,B3,190.0,4.0,89,80.0
1450,G#3,190.0,4.0,89,80.0
1451,E3,190.0,4.0,89,80.0
1452,B2,190.0,4.0,89,80.0
1453,E2,190.0,4.0,89,80.0
1454,G#3,190.125,3.375,79,80.0
1455,F3,190.25,3.25,79,80.0
1456,E2,190.375,3.125,127,80.0
1457,A2,193.5,0.25,95,80.0
1458,G#2,193.75,0.25,54,80.0
1459,A2,194.0,0.25,54,80.0
1460,B1,194.0,2.0,79,80.0
1461,E2,194.25,0.25,79,80.0
1462,C3,194.5,0.25,95,80.0
1463,B2,194.75,0.25,54,80.0
1464,C3,195.0,0.25,54,80.0
1465,A2,195.25,0.25,79,80.0
1466,E3,195.5,0.25,95,80.0
1467,C4,195.5,0.25,47,80.0
1468,E-3,195.75,0.25,54,80.0
1469,B3,195.75,0.25,47,80.0
1470,E3,196.0,0.25,54,80.0
1471,C4,196.0,0.25,63,80.0
1472,B1,196.0,1.5,79,80.0
1473,C3,196.25,0.25,79,80.0
1474,A3,196.25,0.25,47,80.0
1475,A3,196.5,0.25,95,80.0
1476,D4,196.5,0.25,63,80.0
1477,G#3,196.75,0.25,54,80.0
1478,C#4,196.75,0.25,63,80.0
1479,A3,197.0,0.25,54,80.0
1480,D4,197.0,0.25,63,80.0
1481,E3,197.25,0.25,79,80.0
1482,A3,197.25,0.25,63,80.0
1483,D3,197.5,0.25,79,80.0
1484,F4,197.5,0.25,63,80.0
1485,C#3,197.75,0.25,54,80.0
1486,E4,197.75,0.25,63,80.0
1487,B1,197.75,0.25,79,80.0
1488,D3,198.0,0.25,54,80.0
1489,F4,198.0,0.25,63,80.0
1490,B1,198.0,2.0,79,80.0
1491,A2,198.25,0.25,79,80.0
1492,D4,198.25,0.25,63,80.0
1493,F3,198.5,0.25,79,80.0
1494,A4,198.5,0.25,79,80.0
1495,E3,198.75,0.25,54,80.0
1496,G#4,198.75,0.25,79,80.0
1497,F3,199.0,0.25,54,80.0
1498,A4,199.0,0.25,79,80.0
1499,D3,199.25,0.25,79,80.0
1500,F4,199.25,0.25,79,80.0
1501,A3,199.5,0.25,63,80.0
1502,D5,199.5,0.25,79,80.0
1503,D3,199.5,4.0,47,80.0
1504,B2,199.5,4.0,47,80.0
1505,G#3,199.75,0.25,38,80.0
1506,C#5,199.75,0.25,79,80.0
1507,A3,200.0,0.25,38,80.0
1508,D5,200.0,0.25,79,80.0
1509,B1,200.0,2.0,79,80.0
1510,F3,200.25,0.25,63,80.0
1511,A4,200.25,0.25,79,80.0
1512,D4,200.5,0.25,63,80.0
1513,F5,200.5,0.25,79,80.0
1514,C#4,200.75,0.25,38,80.0
1515,E5,200.75,0.25,79,80.0
1516,D4,201.0,0.25,38,80.0
1517,F5,201.0,0.25,79,80.0
1518,A3,201.25,0.25,63,80.0
1519,D5,201.25,0.25,79,80.0
1520,C4,201.5,0.25,79,80.0
1521,E5,201.5,0.25,79,80.0
1522,B3,201.75,0.25,54,80.0
1523,E-5,201.75,0.25,79,80.0
1524,C4,202.0,0.25,38,80.0
1525,E5,202.0,0.25,79,80.0
1526,B1,202.0,1.0,87,80.0
1527,F#2,202.0,1.0,87,80.0
1528,A3,202.25,3.25,63,80.0
1529,A4,202.25,0.25,79,80.0
1530,E5,202.5,0.25,63,80.0
1531,E-5,202.75,0.25,63,80.0
1532,E5,203.0,0.25,63,80.0
1533,F#2,203.0,1.0,95,80.0
1534,A4,203.25,0.25,47,80.0
1535,C4,203.5,3.75,79,80.0
1536,E5,203.5,0.25,47,80.0
1537,E-5,203.75,0.25,47,80.0
1538,E5,204.0,0.25,47,80.0
1539,F#2,204.0,1.0,95,80.0
1540,A4,204.25,0.25,47,80.0
1541,E5,204.5,0.25,31,80.0
1542,E-5,204.75,0.25,31,80.0
1543,E5,205.0,0.25,31,80.0
1544,F#2,205.0,1.0,95,80.0
1545,A4,205.25,0.25,31,80.0
1546,C4,205.5,0.25,79,80.0
1547,G5,205.5,0.25,79,80.0
1548,B3,205.75,0.25,38,80.0
1549,F#5,205.75,0.25,79,80.0
1550,C4,206.0,0.25,38,80.0
1551,G5,206.0,0.25,79,80.0
1552,F#2,206.0,1.0,95,80.0
1553,A3,206.25,3.25,63,80.0
1554,E5,206.25,0.25,79,80.0
1555,G5,206.5,0.25,63,80.0
1556,F#5,206.75,0.25,63,80.0
1557,G5,207.0,0.25,63,80.0
1558,F#2,207.0,1.0,95,80.0
1559,F2,207.25,0.25,63,80.0
1560,E5,207.25,0.25,63,80.0
1561,E2,207.5,4.0,63,80.0
1562,G5,207.5,0.25,47,80.0
1563,F#5,207.75,0.25,47,80.0
1564,G5,208.0,0.25,47,80.0
1565,F#2,208.0,0.938,95,80.0
1566,G3,208.0,0.062,15,80.0
1567,G3,208.0,0.062,15,80.0
1568,G3,208.062,0.062,23,80.0
1569,G3,208.062,0.062,23,80.0
1570,G3,208.125,0.062,31,80.0
1571,G3,208.125,0.062,31,80.0
1572,G3,208.188,0.062,39,80.0
1573,G3,208.188,0.062,39,80.0
1574,E5,208.25,0.25,47,80.0
1575,G3,208.25,0.062,47,80.0
1576,G3,208.25,0.062,47,80.0
1577,G3,208.312,0.062,47,80.0
1578,G3,208.312,0.062,47,80.0
1579,G3,208.375,0.062,47,80.0
1580,G3,208.375,0.062,47,80.0
1581,G3,208.438,0.062,55,80.0
1582,G3,208.438,0.062,55,80.0
1583,G5,208.5,0.25,31,80.0
1584,G3,208.5,0.062,55,80.0
1585,G3,208.5,0.062,55,80.0
1586,G3,208.562,0.062,63,80.0
1587,G3,208.562,0.062,63,80.0
1588,G3,208.625,0.062,63,80.0
1589,G3,208.625,0.062,63,80.0
1590,G3,208.688,0.062,63,80.0
1591,G3,208.688,0.062,63,80.0
1592,F#5,208.75,0.25,31,80.0
1593,G3,208.75,0.062,63,80.0
1594,G3,208.75,0.062,63,80.0
1595,G3,208.812,0.062,63,80.0
1596,G3,208.812,0.062,63,80.0
1597,G3,208.875,0.062,63,80.0
1598,G3,208.875,0.062,63,80.0
1599,G3,208.938,0.062,71,80.0
1600,G3,208.938,0.062,71,80.0
1601,G5,209.0,0.25,31,80.0
1602,F#2,209.0,0.938,95,80.0
1603,A3,209.0,0.062,63,80.0
1604,G3,209.0,0.062,63,80.0
1605,G3,209.0,0.062,63,80.0
1606,A3,209.062,0.062,63,80.0
1607,G3,209.062,0.062,63,80.0
1608,G3,209.062,0.062,63,80.0
1609,A3,209.125,0.062,63,80.0
1610,G3,209.125,0.062,63,80.0
1611,G3,209.125,0.062,63,80.0
1612,A3,209.188,0.062,63,80.0
1613,G3,209.188,0.062,63,80.0
1614,G3,209.188,0.062,63,80.0
1615,E5,209.25,0.25,31,80.0
1616,A3,209.25,0.062,63,80.0
1617,G3,209.25,0.062,63,80.0
1618,G3,209.25,0.062,63,80.0
1619,A3,209.312,0.062,68,80.0
1620,G3,209.312,0.062,68,80.0
1621,G3,209.312,0.062,68,80.0
1622,A3,209.375,0.062,68,80.0
1623,G3,209.375,0.062,68,80.0
1624,G3,209.375,0.062,68,80.0
1625,A3,209.438,0.062,74,80.0
1626,G3,209.438,0.062,74,80.0
1627,G3,209.438,0.062,74,80.0
1628,C4,209.5,0.25,95,80.0
1629,A2,209.5,1.0,79,80.0
1630,A3,209.5,0.062,71,80.0
1631,A3,209.5,0.062,71,80.0
1632,G3,209.5,0.062,71,80.0
1633,G3,209.5,0.062,71,80.0
1634,A3,209.562,0.062,71,80.0
1635,A3,209.562,0.062,71,80.0
1636,G3,209.562,0.062,71,80.0
1637,G3,209.562,0.062,71,80.0
1638,A3,209.625,0.062,83,80.0
1639,A3,209.625,0.062,83,80.0
1640,G3,209.625,0.062,83,80.0
1641,G3,209.625,0.062,83,80.0
1642,A3,209.688,0.062,87,80.0
1643,A3,209.688,0.062,87,80.0
1644,G3,209.688,0.062,87,80.0
1645,G3,209.688,0.062,87,80.0
1646,B3,209.75,0.25,70,80.0
1647,A3,209.75,0.062,99,80.0
1648,A3,209.75,0.062,99,80.0
1649,G3,209.75,0.062,99,80.0
1650,G3,209.75,0.062,99,80.0
1651,A3,209.812,0.062,111,80.0
1652,A3,209.812,0.062,111,80.0
1653,G3,209.812,0.062,111,80.0
1654,G3,209.812,0.062,111,80.0
1655,A3,209.875,0.062,119,80.0
1656,A3,209.875,0.062,119,80.0
1657,G3,209.875,0.062,119,80.0
1658,G3,209.875,0.062,119,80.0
1659,A3,209.938,0.062,127,80.0
1660,A3,209.938,0.062,127,80.0
1661,G3,209.938,0.062,127,80.0
1662,G3,209.938,0.062,127,80.0
1663,C4,210.0,0.25,70,80.0
1664,B-2,210.0,0.5,58,80.0
1665,E2,210.0,0.5,58,80.0
1666,C2,210.0,0.5,58,80.0
1667,A3,210.25,0.5,95,80.0
1668,A2,210.5,1.0,79,80.0
1669,G#2,210.5,0.5,79,80.0
1670,C4,210.75,0.5,95,80.0
1671,A3,210.75,0.5,95,80.0
1672,G#2,211.0,0.5,63,80.0
1673,D2,211.0,0.5,63,80.0
1674,B3,211.25,2.0,95,80.0
1675,G3,211.25,0.25,95,80.0
1676,G2,211.5,0.75,95,80.0
1677,G#2,211.5,0.5,79,80.0
1678,A3,211.5,2.0,63,80.0
1679,E3,211.5,2.0,63,80.0
1680,D3,211.75,0.25,79,80.0
1681,G3,212.0,0.25,79,80.0
1682,G#2,212.0,0.5,68,80.0
1683,E2,212.0,0.5,68,80.0
1684,C2,212.0,0.5,68,80.0
1685,F#2,212.25,0.75,95,80.0
1686,D3,212.5,0.25,79,80.0
1687,G#2,212.5,0.5,79,80.0
1688,G3,212.75,0.25,79,80.0
1689,E2,213.0,0.5,95,80.0
1690,G#2,213.0,0.5,63,80.0
1691,D2,213.0,0.5,63,80.0
1692,G3,213.25,0.25,79,80.0
1693,B3,213.5,0.25,95,80.0
1694,E2,213.5,1.0,79,80.0
1695,G3,213.5,2.0,63,80.0
1696,D3,213.5,2.0,63,80.0
1697,G#2,213.5,0.5,68,80.0
1698,E2,213.5,0.5,68,80.0
1699,C2,213.5,0.5,68,80.0
1700,A3,213.75,0.25,95,80.0
1701,G3,214.0,0.25,70,80.0
1702,B-2,214.0,0.5,58,80.0
1703,E2,214.0,0.5,58,80.0
1704,C2,214.0,0.5,58,80.0
1705,A3,214.25,0.25,95,80.0
1706,E2,214.5,1.0,79,80.0
1707,G#2,214.5,0.5,79,80.0
1708,B3,214.75,0.5,95,80.0
1709,G3,214.75,0.5,95,80.0
1710,G#2,215.0,0.5,63,80.0
1711,D2,215.0,0.5,63,80.0
1712,A3,215.25,0.25,95,80.0
1713,A2,215.5,0.75,95,80.0
1714,G#2,215.5,0.5,79,80.0
1715,G3,215.5,2.0,63,80.0
1716,D3,215.5,2.0,63,80.0
1717,E3,215.75,0.25,79,80.0
1718,A3,216.0,0.25,79,80.0
1719,G#2,216.0,0.5,68,80.0
1720,E2,216.0,0.5,68,80.0
1721,C2,216.0,0.5,68,80.0
1722,A2,216.25,0.75,95,80.0
1723,E3,216.5,0.25,79,80.0
1724,G#2,216.5,0.5,79,80.0
1725,A3,216.75,0.25,79,80.0
1726,A2,217.0,0.5,79,80.0
1727,G#2,217.0,0.5,63,80.0
1728,D2,217.0,0.5,63,80.0
1729,A3,217.25,0.25,79,80.0
1730,C4,217.5,0.25,95,80.0
1731,A2,217.5,1.0,79,80.0
1732,E3,217.5,2.0,63,80.0
1733,C3,217.5,2.0,63,80.0
1734,G#2,217.5,0.5,68,80.0
1735,E2,217.5,0.5,68,80.0
1736,C2,217.5,0.5,68,80.0
1737,B3,217.75,0.25,70,80.0
1738,C4,218.0,0.25,70,80.0
1739,B-2,218.0,0.5,58,80.0
1740,E2,218.0,0.5,58,80.0
1741,C2,218.0,0.5,58,80.0
1742,A3,218.25,0.5,95,80.0
1743,A2,218.5,1.0,79,80.0
1744,G#2,218.5,0.5,79,80.0
1745,C4,218.75,0.5,95,80.0
1746,A3,218.75,0.5,95,80.0
1747,C5,219.0,0.25,63,80.0
1748,A4,219.0,0.5,47,80.0
1749,G#2,219.0,0.5,63,80.0
1750,D2,219.0,0.5,63,80.0
1751,B3,219.25,2.0,95,80.0
1752,G3,219.25,0.25,95,80.0
1753,D5,219.25,0.25,63,80.0
1754,G2,219.5,0.75,95,80.0
1755,E5,219.5,0.25,63,80.0
1756,G#2,219.5,0.5,79,80.0
1757,A3,219.5,1.75,63,80.0
1758,E3,219.5,1.75,63,80.0
1759,D3,219.75,0.25,79,80.0
1760,D5,219.75,0.25,63,80.0
1761,G3,220.0,0.25,79,80.0
1762,E5,220.0,0.25,63,80.0
1763,G#2,220.0,0.5,68,80.0
1764,E2,220.0,0.5,68,80.0
1765,C2,220.0,0.5,68,80.0
1766,F#2,220.25,0.75,95,80.0
1767,C5,220.25,0.5,63,80.0
1768,D3,220.5,0.25,79,80.0
1769,G#2,220.5,0.5,79,80.0
1770,G3,220.75,0.25,79,80.0
1771,E5,220.75,0.5,63,80.0
1772,E2,221.0,0.5,95,80.0
1773,G#2,221.0,0.5,63,80.0
1774,D2,221.0,0.5,63,80.0
1775,G3,221.25,0.25,79,80.0
1776,D5,221.25,2.25,79,80.0
1777,B3,221.5,0.25,95,80.0
1778,E2,221.5,1.0,79,80.0
1779,G3,221.5,2.0,63,80.0
1780,D3,221.5,2.0,63,80.0
1781,G#2,221.5,0.5,68,80.0
1782,E2,221.5,0.5,68,80.0
1783,C2,221.5,0.5,68,80.0
1784,A3,221.75,0.25,95,80.0
1785,G3,222.0,0.25,70,80.0
1786,B-2,222.0,0.5,58,80.0
1787,E2,222.0,0.5,58,80.0
1788,C2,222.0,0.5,58,80.0
1789,A3,222.25,0.25,95,80.0
1790,E2,222.5,1.0,79,80.0
1791,G#2,222.5,0.5,79,80.0
1792,B3,222.75,0.5,95,80.0
1793,G3,222.75,0.5,95,80.0
1794,G#2,223.0,0.5,63,80.0
1795,D2,223.0,0.5,63,80.0
1796,A3,223.25,0.25,95,80.0
1797,A2,223.5,0.75,95,80.0
1798,G#2,223.5,0.5,79,80.0
1799,D5,223.5,0.25,63,80.0
1800,G3,223.5,0.25,63,80.0
1801,D3,223.5,0.25,63,80.0
1802,E3,223.75,0.25,79,80.0
1803,C5,223.75,0.25,63,80.0
1804,A3,224.0,0.25,79,80.0
1805,B4,224.0,0.25,63,80.0
1806,G#2,224.0,0.5,68,80.0
1807,E2,224.0,0.5,68,80.0
1808,C2,224.0,0.5,68,80.0
1809,A2,224.25,0.75,95,80.0
1810,C5,224.25,0.5,63,80.0
1811,E3,224.5,0.25,79,80.0
1812,G#2,224.5,0.5,79,80.0
1813,A3,224.75,0.25,79,80.0
1814,D5,224.75,0.5,63,80.0
1815,A2,225.0,0.5,79,80.0
1816,G#2,225.0,0.5,63,80.0
1817,D2,225.0,0.5,63,80.0
1818,A3,225.25,0.25,79,80.0
1819,C5,225.25,2.25,79,80.0
1820,C4,225.5,0.25,95,80.0
1821,A2,225.5,1.0,79,80.0
1822,E3,225.5,2.0,63,80.0
1823,C3,225.5,2.0,63,80.0
1824,G#2,225.5,0.5,68,80.0
1825,E2,225.5,0.5,68,80.0
1826,C2,225.5,0.5,68,80.0
1827,B3,225.75,0.25,70,80.0
1828,C4,226.0,0.25,70,80.0
1829,B-2,226.0,0.5,58,80.0
1830,E2,226.0,0.5,58,80.0
1831,C2,226.0,0.5,58,80.0
1832,A3,226.25,0.5,95,80.0
1833,A2,226.5,1.0,79,80.0
1834,G#2,226.5,0.5,79,80.0
1835,C4,226.75,0.5,95,80.0
1836,A3,226.75,0.5,95,80.0
1837,G#2,227.0,0.5,63,80.0
1838,D2,227.0,0.5,63,80.0
1839,B3,227.25,2.0,95,80.0
1840,G3,227.25,0.25,95,80.0
1841,G2,227.5,0.75,95,80.0
1842,E5,227.5,0.25,63,80.0
1843,G#2,227.5,0.5,79,80.0
1844,A3,227.5,1.75,63,80.0
1845,E3,227.5,1.75,63,80.0
1846,D3,227.75,0.25,79,80.0
1847,D5,227.75,0.25,63,80.0
1848,G3,228.0,0.25,79,80.0
1849,E5,228.0,0.25,63,80.0
1850,G#2,228.0,0.5,68,80.0
1851,E2,228.0,0.5,68,80.0
1852,C2,228.0,0.5,68,80.0
1853,F#2,228.25,0.75,95,80.0
1854,C5,228.25,0.5,63,80.0
1855,D3,228.5,0.25,79,80.0
1856,G#2,228.5,0.5,79,80.0
1857,G3,228.75,0.25,79,80.0
1858,E5,228.75,0.5,63,80.0
1859,E2,229.0,0.5,95,80.0
1860,G#2,229.0,0.5,63,80.0
1861,D2,229.0,0.5,63,80.0
1862,G3,229.25,0.25,79,80.0
1863,D5,229.25,2.25,79,80.0
1864,B3,229.5,0.25,95,80.0
1865,E2,229.5,1.0,79,80.0
1866,G3,229.5,2.0,63,80.0
1867,D3,229.5,2.0,63,80.0
1868,G#2,229.5,0.5,68,80.0
1869,E2,229.5,0.5,68,80.0
1870,C2,229.5,0.5,68,80.0
1871,A3,229.75,0.25,95,80.0
1872,G3,230.0,0.25,70,80.0
1873,B-2,230.0,0.5,58,80.0
1874,E2,230.0,0.5,58,80.0
1875,C2,230.0,0.5,58,80.0
1876,A3,230.25,0.25,95,80.0
1877,E2,230.5,1.0,79,80.0
1878,G#2,230.5,0.5,79,80.0
1879,B3,230.75,0.5,95,80.0
1880,G3,230.75,0.5,95,80.0
1881,G#2,231.0,0.5,63,80.0
1882,D2,231.0,0.5,63,80.0
1883,A3,231.25,0.25,95,80.0
1884,A2,231.5,0.75,95,80.0
1885,G#2,231.5,0.5,79,80.0
1886,G5,231.5,2.0,63,80.0
1887,G3,231.5,2.0,63,80.0
1888,D3,231.5,2.0,63,80.0
1889,E3,231.75,0.25,95,80.0
1890,A3,232.0,0.25,95,80.0
1891,G#2,232.0,0.5,68,80.0
1892,E2,232.0,0.5,68,80.0
1893,C2,232.0,0.5,68,80.0
1894,B3,232.25,0.25,95,80.0
1895,G2,232.5,1.0,95,80.0
1896,G#2,232.5,0.5,79,80.0
1897,G3,232.75,0.25,95,80.0
1898,B3,233.0,0.25,95,80.0
1899,G#2,233.0,0.5,63,80.0
1900,D2,233.0,0.5,63,80.0
1901,C4,233.25,0.25,70,80.0
1902,A2,233.5,0.75,95,80.0
1903,E3,233.5,1.0,63,80.0
1904,A2,233.5,1.0,63,80.0
1905,G#2,233.5,0.5,68,80.0
1906,E2,233.5,0.5,68,80.0
1907,C2,233.5,0.5,68,80.0
1908,G3,233.75,0.25,95,80.0
1909,C4,234.0,0.25,95,80.0
1910,B-2,234.0,0.5,58,80.0
1911,E2,234.0,0.5,58,80.0
1912,C2,234.0,0.5,58,80.0
1913,B2,234.25,0.75,95,80.0
1914,G3,234.5,0.25,95,80.0
1915,G#2,234.5,0.5,79,80.0
1916,B4,234.5,1.0,63,80.0
1917,D3,234.5,1.0,63,80.0
1918,G2,234.5,1.0,63,80.0
1919,D4,234.75,0.25,95,80.0
1920,C3,235.0,0.25,95,80.0
1921,G#2,235.0,0.5,63,80.0
1922,D2,235.0,0.5,63,80.0
1923,G3,235.25,0.25,95,80.0
1924,G#2,235.5,0.5,79,80.0
1925,E4,235.5,0.75,87,80.0
1926,E3,235.5,0.75,87,80.0
1927,C5,235.5,1.0,51,80.0
1928,A3,235.5,1.0,51,80.0
1929,E3,235.5,1.0,51,80.0
1930,A2,235.5,1.0,51,80.0
1931,G#2,236.0,0.5,68,80.0
1932,E2,236.0,0.5,68,80.0
1933,C2,236.0,0.5,68,80.0
1934,D4,236.25,0.25,95,80.0
1935,G#2,236.5,0.5,79,80.0
1936,C4,236.5,0.5,87,80.0
1937,A2,236.5,0.5,87,80.0
1938,D5,236.5,1.0,51,80.0
1939,B3,236.5,1.0,51,80.0
1940,E3,236.5,1.0,51,80.0
1941,A2,236.5,1.0,51,80.0
1942,D4,237.0,0.5,95,80.0
1943,G#2,237.0,0.5,63,80.0
1944,D2,237.0,0.5,63,80.0
1945,E3,237.5,0.984,79,80.0
1946,A3,237.5,0.984,79,80.0
1947,E5,237.5,2.0,51,80.0
1948,A3,237.5,2.0,51,80.0
1949,E3,237.5,2.0,51,80.0
1950,A2,237.5,2.0,51,80.0
1951,G#2,237.5,0.5,68,80.0
1952,E2,237.5,0.5,68,80.0
1953,C2,237.5,0.5,68,80.0
1954,C4,237.531,0.203,87,80.0
1955,E4,237.531,0.203,87,80.0
1956,C4,237.75,0.25,95,80.0
1957,B3,238.0,0.5,70,80.0
1958,B-2,238.0,0.5,58,80.0
1959,E2,238.0,0.5,58,80.0
1960,C2,238.0,0.5,58,80.0
1961,A3,238.5,0.75,95,80.0
1962,A2,238.5,1.0,79,80.0
1963,G#2,238.5,0.5,79,80.0
1964,G#2,239.0,0.5,63,80.0
1965,D2,239.0,0.5,63,80.0
1966,G3,239.25,0.25,95,80.0
1967,A3,239.5,0.25,95,80.0
1968,A2,239.5,1.0,79,80.0
1969,G#2,239.5,0.5,79,80.0
1970,A3,239.5,1.0,47,80.0
1971,E3,239.5,1.0,47,80.0
1972,A2,239.5,1.0,47,80.0
1973,A3,239.75,0.25,95,80.0
1974,E3,240.0,0.25,95,80.0
1975,G#2,240.0,0.5,68,80.0
1976,E2,240.0,0.5,68,80.0
1977,C2,240.0,0.5,68,80.0
1978,G3,240.25,0.25,95,80.0
1979,A3,240.5,0.25,70,80.0
1980,A2,240.5,1.0,79,80.0
1981,G#2,240.5,0.5,79,80.0
1982,A3,240.5,3.0,47,80.0
1983,E3,240.5,3.0,47,80.0
1984,A2,240.5,3.0,47,80.0
1985,E3,240.75,0.25,95,80.0
1986,A3,241.0,0.25,95,80.0
1987,G#2,241.0,0.5,63,80.0
1988,D2,241.0,0.5,63,80.0
1989,B3,241.25,0.25,95,80.0
1990,G2,241.5,1.0,95,80.0
1991,B3,241.5,0.25,95,80.0
1992,G#2,241.5,0.5,68,80.0
1993,E2,241.5,0.5,68,80.0
1994,C2,241.5,0.5,68,80.0
1995,G3,241.75,0.25,95,80.0
1996,B3,242.0,0.25,95,80.0
1997,B1,242.0,0.25,63,80.0
1998,C4,242.25,0.25,70,80.0
1999,A4,242.25,0.25,47,80.0
2000,A2,242.5,0.75,95,80.0
2001,A4,242.5,0.25,47,80.0
2002,G3,242.75,0.25,95,80.0
2003,A4,242.75,0.25,47,80.0
2004,C4,243.0,0.25,95,80.0
2005,B1,243.0,0.25,47,80.0
2006,B2,243.25,0.75,95,80.0
2007,A4,243.25,0.25,47,80.0
2008,G3,243.5,0.25,95,80.0
2009,A4,243.5,0.25,47,80.0
2010,D4,243.75,0.25,95,80.0
2011,A4,243.75,0.25,47,80.0
2012,C3,244.0,0.25,95,80.0
2013,B1,244.0,0.25,63,80.0
2014,G3,244.25,0.25,95,80.0
2015,A4,244.25,0.25,47,80.0
2016,A2,244.5,1.0,95,80.0
2017,A4,244.5,0.25,47,80.0
2018,E3,244.75,0.25,79,80.0
2019,A4,244.75,0.25,47,80.0
2020,A3,245.0,0.25,63,80.0
2021,D2,245.0,0.75,63,80.0
2022,F2,245.0,0.75,63,80.0
2023,C4,245.25,0.25,63,80.0
2024,G2,245.5,0.5,63,80.0
2025,D2,245.75,0.25,63,80.0
2026,F2,245.75,0.25,63,80.0
2027,F#4,246.0,0.75,79,80.0
2028,E4,246.5,0.25,111,80.0
2029,C4,246.5,0.25,111,80.0
2030,G3,246.5,0.75,95,80.0
2031,C3,246.5,0.75,95,80.0
2032,D2,246.5,0.5,63,80.0
2033,F2,246.5,0.5,63,80.0
2034,G4,246.75,0.75,95,80.0
2035,D2,247.0,0.75,79,80.0
2036,F2,247.0,0.75,79,80.0
2037,F4,247.25,0.25,111,80.0
2038,C4,247.25,0.25,111,80.0
2039,A3,247.25,0.25,95,80.0
2040,F2,247.25,0.25,95,80.0
2041,G#4,247.5,0.5,95,80.0
2042,A3,247.5,0.5,95,80.0
2043,F2,247.5,0.5,95,80.0
2044,D2,247.75,0.75,79,80.0
2045,F2,247.75,0.75,79,80.0
2046,A4,248.0,0.5,95,80.0
2047,F#4,248.0,0.25,111,80.0
2048,D4,248.0,0.25,111,80.0
2049,A3,248.0,0.75,95,80.0
2050,D3,248.0,0.75,95,80.0
2051,B4,248.5,0.5,111,80.0
2052,D2,248.5,0.5,79,80.0
2053,F2,248.5,0.5,79,80.0
2054,G4,248.75,0.25,111,80.0
2055,D4,248.75,0.25,111,80.0
2056,B3,248.75,0.75,95,80.0
2057,G2,248.75,0.75,95,80.0
2058,C5,249.0,0.25,111,80.0
2059,D2,249.0,0.5,79,80.0
2060,F2,249.0,0.5,79,80.0
2061,B4,249.25,0.25,95,80.0
2062,A4,249.5,0.25,95,80.0
2063,G#4,249.5,0.25,87,80.0
2064,E4,249.5,0.25,87,80.0
2065,C4,249.5,0.5,87,80.0
2066,E3,249.5,0.5,87,80.0
2067,D2,249.5,0.5,79,80.0
2068,F2,249.5,0.5,79,80.0
2069,G4,249.75,0.25,95,80.0
2070,A4,250.0,0.25,87,80.0
2071,E4,250.0,0.25,87,80.0
2072,C4,250.0,0.5,87,80.0
2073,A2,250.0,0.5,87,80.0
2074,G2,250.0,0.25,63,80.0
2075,A3,250.0,0.25,63,80.0
2076,A5,250.0,0.25,63,80.0
2077,C2,250.0,0.25,63,80.0
2078,A4,250.25,0.25,95,80.0
2079,A4,250.5,0.25,63,80.0
2080,B4,250.5,0.25,87,80.0
2081,A4,250.5,0.25,87,80.0
2082,E-4,250.5,0.5,87,80.0
2083,E-3,250.5,0.5,87,80.0
2084,D3,250.75,727/1000,79,80.0
2085,D4,250.75,727/1000,79,80.0
2086,F#4,250.75,727/1000,79,80.0
2087,D2,250.75,0.25,71,80.0
2088,G#2,250.75,0.25,71,80.0
2089,C5,251.0,2.0,79,80.0
2090,A4,251.0,2.0,79,80.0
2091,E3,251.0,1.0,68,80.0
2092,A2,251.0,1.0,68,80.0
2093,E2,251.0,1.0,68,80.0
2094,D2,251.0,0.25,58,80.0
2095,A5,251.0,0.25,58,80.0
2096,C2,251.0,0.25,58,80.0
2097,A4,251.5,0.25,63,80.0
2098,F#4,251.5,121/500,74,80.0
2099,D4,251.5,121/500,74,80.0
2100,D3,251.5,121/500,74,80.0
2101,G#2,251.75,0.25,95,80.0
2102,D3,251.75,483/1000,79,80.0
2103,D4,251.75,483/1000,79,80.0
2104,F#4,251.75,483/1000,79,80.0
2105,E3,252.0,1.0,68,80.0
2106,A2,252.0,1.0,68,80.0
2107,E2,252.0,1.0,68,80.0
2108,D2,252.0,0.25,58,80.0
2109,A5,252.0,0.25,58,80.0
2110,C2,252.0,0.25,58,80.0
2111,A4,252.25,0.25,31,80.0
2112,F#4,252.5,483/1000,84,80.0
2113,D4,252.5,483/1000,84,80.0
2114,D3,252.5,483/1000,84,80.0
2115,D2,252.5,0.25,55,80.0
2116,A4,252.5,0.25,55,80.0
2117,G#2,252.75,0.25,95,80.0
2118,C5,253.0,0.25,111,80.0
2119,D5,253.0,1.0,71,80.0
2120,A4,253.0,1.0,71,80.0
2121,A3,253.0,1.0,71,80.0
2122,D3,253.0,1.0,71,80.0
2123,A2,253.0,1.0,71,80.0
2124,F#2,253.0,1.0,71,80.0
2125,D2,253.0,0.25,58,80.0
2126,A5,253.0,0.25,58,80.0
2127,C2,253.0,0.25,58,80.0
2128,B4,253.25,0.25,95,80.0
2129,A4,253.5,0.25,95,80.0
2130,A4,253.5,0.25,63,80.0
2131,G4,253.75,0.25,95,80.0
2132,G#2,253.75,0.25,95,80.0
2133,A4,254.0,1.0,71,80.0
2134,D4,254.0,1.0,71,80.0
2135,A3,254.0,1.0,71,80.0
2136,D3,254.0,1.0,71,80.0
2137,A2,254.0,1.0,71,80.0
2138,F#2,254.0,1.0,71,80.0
2139,D2,254.0,0.25,58,80.0
2140,A5,254.0,0.25,58,80.0
2141,C2,254.0,0.25,58,80.0
2142,A4,254.25,0.25,95,80.0
2143,A4,254.5,0.25,63,80.0
2144,D3,254.75,483/1000,79,80.0
2145,D4,254.75,483/1000,79,80.0
2146,F#4,254.75,483/1000,79,80.0
2147,D2,254.75,0.25,71,80.0
2148,G#2,254.75,0.25,71,80.0
2149,C5,255.0,2.0,79,80.0
2150,A4,255.0,2.0,79,80.0
2151,E3,255.0,1.0,68,80.0
2152,A2,255.0,1.0,68,80.0
2153,E2,255.0,1.0,68,80.0
2154,D2,255.0,0.25,58,80.0
2155,A5,255.0,0.25,58,80.0
2156,C2,255.0,0.25,58,80.0
2157,G4,255.25,0.5,95,80.0
2158,A4,255.5,0.25,63,80.0
2159,A4,255.75,0.25,95,80.0
2160,G#2,255.75,0.25,95,80.0
2161,G4,256.0,0.5,95,80.0
2162,E3,256.0,1.0,68,80.0
2163,A2,256.0,1.0,68,80.0
2164,E2,256.0,1.0,68,80.0
2165,D2,256.0,0.25,58,80.0
2166,A5,256.0,0.25,58,80.0
2167,C2,256.0,0.25,58,80.0
2168,A4,256.5,0.25,63,80.0
2169,F#4,256.5,0.469,95,80.0
2170,D4,256.5,0.469,95,80.0
2171,D3,256.562,0.438,79,80.0
2172,D2,256.75,0.25,71,80.0
2173,G#2,256.75,0.25,71,80.0
2174,C5,257.0,0.25,95,80.0
2175,D5,257.0,1.0,71,80.0
2176,A4,257.0,1.0,71,80.0
2177,A3,257.0,1.0,71,80.0
2178,D3,257.0,1.0,71,80.0
2179,A2,257.0,1.0,71,80.0
2180,F#2,257.0,1.0,71,80.0
2181,D2,257.0,0.25,58,80.0
2182,A5,257.0,0.25,58,80.0
2183,C2,257.0,0.25,58,80.0
2184,B4,257.25,0.25,95,80.0
2185,A4,257.5,0.25,95,80.0
2186,A4,257.5,0.25,63,80.0
2187,G4,257.75,0.25,95,80.0
2188,G#2,257.75,0.25,95,80.0
2189,A4,258.0,1.0,71,80.0
2190,D4,258.0,1.0,71,80.0
2191,A3,258.0,1.0,71,80.0
2192,D3,258.0,1.0,71,80.0
2193,A2,258.0,1.0,71,80.0
2194,F#2,258.0,1.0,71,80.0
2195,D2,258.0,0.25,58,80.0
2196,A5,258.0,0.25,58,80.0
2197,C2,258.0,0.25,58,80.0
2198,A4,258.25,0.25,95,80.0
2199,A4,258.5,0.25,63,80.0
2200,D2,258.75,0.25,71,80.0
2201,G#2,258.75,0.25,71,80.0
2202,D3,259.0,0.219,71,80.0
2203,D4,259.0,0.219,71,80.0
2204,C5,259.0,2.0,79,80.0
2205,A4,259.0,2.0,79,80.0
2206,E3,259.0,1.0,68,80.0
2207,A2,259.0,1.0,68,80.0
2208,E2,259.0,1.0,68,80.0
2209,D2,259.0,0.25,58,80.0
2210,A5,259.0,0.25,58,80.0
2211,C2,259.0,0.25,58,80.0
2212,F#4,259.062,0.188,95,80.0
2213,C5,259.25,0.5,95,80.0
2214,A4,259.5,0.25,63,80.0
2215,A4,259.75,0.25,95,80.0
2216,G#2,259.75,0.25,95,80.0
2217,G4,260.0,0.5,95,80.0
2218,E3,260.0,1.0,68,80.0
2219,A2,260.0,1.0,68,80.0
2220,E2,260.0,1.0,68,80.0
2221,D2,260.0,0.25,58,80.0
2222,A5,260.0,0.25,58,80.0
2223,C2,260.0,0.25,58,80.0
2224,A4,260.5,0.5,95,80.0
2225,A4,260.5,0.25,63,80.0
2226,D2,260.75,0.25,71,80.0
2227,G#2,260.75,0.25,71,80.0
2228,G4,261.0,0.25,95,80.0
2229,D5,261.0,1.0,71,80.0
2230,A4,261.0,1.0,71,80.0
2231,A3,261.0,1.0,71,80.0
2232,D3,261.0,1.0,71,80.0
2233,A2,261.0,1.0,71,80.0
2234,F#2,261.0,1.0,71,80.0
2235,D2,261.0,0.25,58,80.0
2236,A5,261.0,0.25,58,80.0
2237,C2,261.0,0.25,58,80.0
2238,A4,261.5,0.25,63,80.0
2239,E4,261.75,0.25,95,80.0
2240,G#2,261.75,0.25,95,80.0
2241,A4,262.0,1.0,71,80.0
2242,D4,262.0,1.0,71,80.0
2243,A3,262.0,1.0,71,80.0
2244,D3,262.0,1.0,71,80.0
2245,A2,262.0,1.0,71,80.0
2246,F#2,262.0,1.0,71,80.0
2247,D2,262.0,0.75,79,80.0
2248,F2,262.0,0.75,79,80.0
2249,F4,262.5,0.25,95,80.0
2250,D2,262.75,0.75,79,80.0
2251,F2,262.75,0.75,79,80.0
2252,G4,263.0,0.25,95,80.0
2253,D4,263.0,0.25,95,80.0
2254,B3,263.0,0.25,95,80.0
2255,G3,263.0,0.25,95,80.0
2256,G2,263.0,0.25,95,80.0
2257,D4,263.25,0.25,95,80.0
2258,D2,263.5,0.75,79,80.0
2259,F2,263.5,0.75,79,80.0
2260,E4,263.75,0.25,95,80.0
2261,C4,263.75,0.25,95,80.0
2262,G3,263.75,0.25,95,80.0
2263,E3,263.75,0.25,95,80.0
2264,E2,263.75,0.25,95,80.0
2265,E4,264.0,0.25,95,80.0
2266,D2,264.25,0.75,79,80.0
2267,F2,264.25,0.75,79,80.0
2268,F4,264.5,0.25,95,80.0
2269,C4,264.5,0.25,95,80.0
2270,A3,264.5,0.25,95,80.0
2271,F3,264.5,0.25,95,80.0
2272,F2,264.5,0.25,95,80.0
2273,E4,264.75,0.25,95,80.0
2274,D2,265.0,0.75,79,80.0
2275,F2,265.0,0.75,79,80.0
2276,D4,265.25,0.25,95,80.0
2277,B3,265.25,0.25,95,80.0
2278,F3,265.25,0.25,95,80.0
2279,G#2,265.25,0.25,95,80.0
2280,A2,265.583,83/1000,79,80.0
2281,F3,265.667,83/1000,79,80.0
2282,A3,265.75,83/1000,79,80.0
2283,D2,265.75,0.75,79,80.0
2284,F2,265.75,0.75,79,80.0
2285,D4,265.833,83/1000,79,80.0
2286,E4,265.917,83/1000,79,80.0
2287,D4,266.0,0.125,79,80.0
2288,E4,266.0,0.5,95,80.0
2289,D4,266.0,0.5,95,80.0
2290,A3,266.0,0.5,95,80.0
2291,E3,266.0,0.5,95,80.0
2292,E2,266.0,0.5,95,80.0
2293,A3,266.125,0.125,79,80.0
2294,F3,266.25,0.125,79,80.0
2295,A2,266.375,3.125,79,80.0
2296,E4,266.75,0.5,95,80.0
2297,D4,266.75,0.5,95,80.0
2298,A3,266.75,0.5,95,80.0
2299,F3,266.75,0.5,95,80.0
2300,A3,267.0,3.5,31,80.0
2301,A3,267.125,3.375,31,80.0
2302,A3,267.25,3.25,31,80.0
2303,A3,267.375,3.125,47,80.0
2304,A3,267.5,3.0,47,80.0
2305,E4,267.5,3.0,79,80.0
2306,D4,267.5,3.0,79,80.0
2307,A3,267.5,3.0,79,80.0
2308,F3,267.5,3.0,79,80.0
2309,A2,267.5,3.0,79,80.0
2310,A3,267.625,2.875,47,80.0
2311,A2,269.5,0.25,79,80.0
2312,F3,269.75,0.5,79,80.0
2313,A3,270.25,0.5,79,80.0
2314,D4,270.75,0.5,79,80.0
2315,E4,271.25,0.5,79,80.0
2316,A3,271.5,4.0,63,80.0
2317,F3,271.5,4.0,63,80.0
2318,A2,271.5,4.0,63,80.0
2319,D4,271.75,0.25,79,80.0
2320,A3,272.0,0.25,79,80.0
2321,A2,272.25,0.25,79,80.0
2322,F3,272.5,0.25,79,80.0
2323,A3,272.75,0.25,79,80.0
2324,D4,273.0,0.5,79,80.0
2325,A2,273.5,0.25,79,80.0
2326,F#3,273.75,0.5,63,80.0
2327,A3,274.25,0.5,63,80.0
2328,D4,274.75,0.5,63,80.0
2329,E4,275.25,0.5,63,80.0
2330,A3,275.5,4.0,63,80.0
2331,F#3,275.5,4.0,63,80.0
2332,A2,275.5,4.0,63,80.0
2333,D4,275.75,0.25,63,80.0
2334,A3,276.0,0.25,63,80.0
2335,A2,276.25,0.25,63,80.0
2336,F#3,276.5,0.25,63,80.0
2337,A3,276.75,0.25,63,80.0
2338,D4,277.0,0.5,63,80.0
2339,D4,277.5,0.25,63,80.0
2340,B3,277.75,0.25,79,80.0
2341,G#3,277.75,0.25,79,80.0
2342,C#4,278.0,3.0,38,80.0
2343,A3,278.0,3.0,38,80.0
2344,A5,279.5,4.0,47,80.0
2345,A4,279.5,4.0,47,80.0
2346,A2,279.5,4.0,47,80.0
