,note_name,start_time,duration,velocity,tempo
0,D3,0.0,0.25,95,164.0
1,D3,0.25,0.25,95,164.0
2,D3,0.5,0.25,95,164.0
3,F2,0.75,0.25,95,164.0
4,B2,1.0,0.25,95,164.0
5,B2,1.25,0.25,95,164.0
6,B2,1.5,0.25,95,164.0
7,F2,1.75,0.25,95,164.0
8,A2,2.0,0.25,95,164.0
9,A2,2.25,0.25,95,164.0
10,A2,2.5,0.25,95,164.0
11,F2,2.75,0.25,95,164.0
12,C#3,3.0,1.0,95,164.0
13,D2,3.0,1.0,95,164.0
14,E3,4.0,0.25,95,164.0
15,E2,4.0,0.5,95,164.0
16,G3,4.0,0.5,95,164.0
17,C2,4.0,0.5,95,164.0
18,E3,4.25,0.25,95,164.0
19,E3,4.5,0.25,95,164.0
20,E2,4.5,0.5,95,164.0
21,E3,4.75,0.25,95,164.0
22,C2,4.75,0.25,95,164.0
23,E2,5.0,0.5,95,164.0
24,B3,5.0,0.5,95,164.0
25,E3,5.0,0.5,95,164.0
26,B-2,5.0,1.0,95,164.0
27,D2,5.0,1.0,95,164.0
28,E3,5.5,0.25,95,164.0
29,E2,5.5,0.5,95,164.0
30,E3,5.75,0.25,95,164.0
31,E2,6.0,0.5,95,164.0
32,B-2,6.0,0.5,95,164.0
33,A3,6.0,0.5,95,164.0
34,E3,6.0,0.5,95,164.0
35,E2,6.5,0.5,95,164.0
36,C2,6.5,0.5,95,164.0
37,B3,6.5,0.5,95,164.0
38,E3,6.5,0.5,95,164.0
39,E3,7.0,0.25,95,164.0
40,E2,7.0,0.5,95,164.0
41,B-2,7.0,1.0,95,164.0
42,D2,7.0,1.0,95,164.0
43,E3,7.25,0.25,95,164.0
44,E3,7.5,0.25,95,164.0
45,E2,7.5,0.5,95,164.0
46,E3,7.75,0.25,95,164.0
47,E2,8.0,0.5,95,164.0
48,B-2,8.0,0.5,95,164.0
49,B3,8.0,0.5,95,164.0
50,E3,8.0,0.5,95,164.0
51,E3,8.5,0.25,95,164.0
52,E2,8.5,0.5,95,164.0
53,C2,8.5,0.5,95,164.0
54,E3,8.75,0.25,95,164.0
55,E2,9.0,0.5,95,164.0
56,B3,9.0,0.5,95,164.0
57,E3,9.0,0.5,95,164.0
58,B-2,9.0,1.0,95,164.0
59,D2,9.0,1.0,95,164.0
60,E3,9.5,0.5,95,164.0
61,E2,9.5,0.5,95,164.0
62,E2,10.0,0.5,95,164.0
63,B-2,10.0,0.5,95,164.0
64,A3,10.0,0.5,95,164.0
65,E3,10.0,0.5,95,164.0
66,G2,10.5,0.5,95,164.0
67,C2,10.5,0.5,95,164.0
68,B3,10.5,0.5,95,164.0
69,E3,10.5,0.5,95,164.0
70,E2,11.0,0.5,95,164.0
71,B-2,11.0,0.5,95,164.0
72,D2,11.0,0.5,95,164.0
73,C3,11.5,0.5,95,164.0
74,C#3,11.5,0.5,95,164.0
75,C4,11.5,0.5,95,164.0
76,G3,11.5,0.5,95,164.0
77,C3,11.5,0.5,95,164.0
78,C3,12.0,0.5,95,164.0
79,C4,12.0,0.5,95,164.0
80,G3,12.0,0.5,95,164.0
81,C3,12.0,0.5,95,164.0
82,C3,12.5,0.25,95,164.0
83,C3,12.5,0.5,95,164.0
84,C2,12.5,0.5,95,164.0
85,C3,12.75,0.25,95,164.0
86,C3,13.0,0.5,95,164.0
87,C4,13.0,0.5,95,164.0
88,G3,13.0,0.5,95,164.0
89,C3,13.0,0.5,95,164.0
90,B-2,13.0,1.0,95,164.0
91,D2,13.0,1.0,95,164.0
92,C3,13.5,0.25,95,164.0
93,C3,13.5,0.5,95,164.0
94,C3,13.75,0.25,95,164.0
95,C3,14.0,0.5,95,164.0
96,B-2,14.0,0.5,95,164.0
97,B3,14.0,0.5,95,164.0
98,G3,14.0,0.5,95,164.0
99,C3,14.0,0.5,95,164.0
100,C3,14.5,0.5,95,164.0
101,C2,14.5,0.5,95,164.0
102,C4,14.5,0.5,95,164.0
103,G3,14.5,0.5,95,164.0
104,C3,14.5,0.5,95,164.0
105,C3,15.0,0.25,95,164.0
106,C3,15.0,0.5,95,164.0
107,B-2,15.0,1.0,95,164.0
108,D2,15.0,1.0,95,164.0
109,C3,15.25,0.25,95,164.0
110,C3,15.5,0.25,95,164.0
111,C3,15.5,0.5,95,164.0
112,C3,15.75,0.25,95,164.0
113,C3,16.0,0.5,95,164.0
114,B-2,16.0,0.5,95,164.0
115,D4,16.0,0.5,95,164.0
116,G3,16.0,0.5,95,164.0
117,C3,16.0,0.5,95,164.0
118,C3,16.5,0.25,95,164.0
119,C3,16.5,0.5,95,164.0
120,C2,16.5,0.5,95,164.0
121,C3,16.75,0.25,95,164.0
122,C3,17.0,0.5,95,164.0
123,C4,17.0,0.5,95,164.0
124,G3,17.0,0.5,95,164.0
125,C3,17.0,0.5,95,164.0
126,B-2,17.0,1.0,95,164.0
127,D2,17.0,1.0,95,164.0
128,C3,17.5,0.25,95,164.0
129,C3,17.5,0.5,95,164.0
130,C3,17.75,0.25,95,164.0
131,D3,18.0,0.5,95,164.0
132,B-2,18.0,0.5,95,164.0
133,B3,18.0,0.5,95,164.0
134,G3,18.0,0.5,95,164.0
135,C3,18.0,0.5,95,164.0
136,C3,18.5,0.25,95,164.0
137,C3,18.5,0.5,95,164.0
138,C2,18.5,0.5,95,164.0
139,C3,18.75,0.25,95,164.0
140,B2,19.0,0.5,95,164.0
141,C4,19.0,0.5,95,164.0
142,G3,19.0,0.5,95,164.0
143,C3,19.0,0.5,95,164.0
144,B-2,19.0,0.5,95,164.0
145,D2,19.0,0.5,95,164.0
146,E2,19.5,0.5,95,164.0
147,C#3,19.5,0.5,95,164.0
148,B3,19.5,0.5,95,164.0
149,E3,19.5,0.5,95,164.0
150,E2,20.0,0.5,95,164.0
151,E2,20.5,0.5,95,164.0
152,C2,20.5,0.5,95,164.0
153,B3,20.5,0.5,95,164.0
154,E3,20.5,0.5,95,164.0
155,E3,21.0,0.25,95,164.0
156,E2,21.0,0.5,95,164.0
157,B-2,21.0,1.0,95,164.0
158,D2,21.0,1.0,95,164.0
159,E3,21.25,0.25,95,164.0
160,E2,21.5,0.5,95,164.0
161,B3,21.5,0.5,95,164.0
162,E3,21.5,0.5,95,164.0
163,E3,22.0,0.25,95,164.0
164,E2,22.0,0.5,95,164.0
165,B-2,22.0,0.5,95,164.0
166,E3,22.25,0.25,95,164.0
167,E2,22.5,0.5,95,164.0
168,C2,22.5,0.5,95,164.0
169,A3,22.5,0.5,95,164.0
170,E3,22.5,0.5,95,164.0
171,E2,23.0,0.5,95,164.0
172,B3,23.0,0.5,95,164.0
173,E3,23.0,0.5,95,164.0
174,B-2,23.0,1.0,95,164.0
175,D2,23.0,1.0,95,164.0
176,E3,23.5,0.25,95,164.0
177,E2,23.5,0.5,95,164.0
178,E3,23.75,0.25,95,164.0
179,E3,24.0,0.25,95,164.0
180,E2,24.0,0.5,95,164.0
181,B-2,24.0,0.5,95,164.0
182,E3,24.25,0.25,95,164.0
183,E2,24.5,0.5,95,164.0
184,C2,24.5,0.5,95,164.0
185,B3,24.5,0.5,95,164.0
186,E3,24.5,0.5,95,164.0
187,E3,25.0,0.25,95,164.0
188,E2,25.0,0.5,95,164.0
189,B-2,25.0,1.0,95,164.0
190,D2,25.0,1.0,95,164.0
191,E3,25.25,0.25,95,164.0
192,E2,25.5,0.5,95,164.0
193,B3,25.5,0.5,95,164.0
194,E3,25.5,0.5,95,164.0
195,E3,26.0,0.5,95,164.0
196,E2,26.0,0.5,95,164.0
197,B-2,26.0,0.5,95,164.0
198,G2,26.5,0.5,95,164.0
199,C2,26.5,0.5,95,164.0
200,A3,26.5,0.5,95,164.0
201,E3,26.5,0.5,95,164.0
202,E2,27.0,0.5,95,164.0
203,B3,27.0,0.5,95,164.0
204,E3,27.0,0.5,95,164.0
205,B-2,27.0,0.5,95,164.0
206,D2,27.0,0.5,95,164.0
207,C3,27.5,0.5,95,164.0
208,C#3,27.5,0.5,95,164.0
209,C3,28.0,0.5,95,164.0
210,C4,28.0,0.5,95,164.0
211,G3,28.0,0.5,95,164.0
212,C3,28.0,0.5,95,164.0
213,C3,28.5,0.5,95,164.0
214,C2,28.5,0.5,95,164.0
215,C4,28.5,0.5,95,164.0
216,G3,28.5,0.5,95,164.0
217,C3,28.5,0.5,95,164.0
218,C3,29.0,0.25,95,164.0
219,C3,29.0,0.5,95,164.0
220,B-2,29.0,1.0,95,164.0
221,D2,29.0,1.0,95,164.0
222,C3,29.25,0.25,95,164.0
223,C3,29.5,0.5,95,164.0
224,C4,29.5,0.5,95,164.0
225,G3,29.5,0.5,95,164.0
226,C3,29.5,0.5,95,164.0
227,C3,30.0,0.25,95,164.0
228,C3,30.0,0.5,95,164.0
229,B-2,30.0,0.5,95,164.0
230,C2,30.0,0.5,95,164.0
231,C3,30.25,0.25,95,164.0
232,C3,30.5,0.5,95,164.0
233,D2,30.5,0.5,95,164.0
234,B3,30.5,0.5,95,164.0
235,G3,30.5,0.5,95,164.0
236,C3,30.5,0.5,95,164.0
237,C3,31.0,0.5,95,164.0
238,B-2,31.0,0.5,95,164.0
239,C4,31.0,0.5,95,164.0
240,G3,31.0,0.5,95,164.0
241,C3,31.0,0.5,95,164.0
242,C3,31.5,0.25,95,164.0
243,C3,31.5,0.5,95,164.0
244,C2,31.5,0.5,95,164.0
245,C3,31.75,0.25,95,164.0
246,C3,32.0,0.25,95,164.0
247,C3,32.0,0.5,95,164.0
248,B-2,32.0,1.0,95,164.0
249,D2,32.0,1.0,95,164.0
250,C3,32.25,0.25,95,164.0
251,C3,32.5,0.5,95,164.0
252,D4,32.5,0.5,95,164.0
253,G3,32.5,0.5,95,164.0
254,C3,32.5,0.5,95,164.0
255,C3,33.0,0.25,95,164.0
256,C3,33.0,0.5,95,164.0
257,B-2,33.0,0.5,95,164.0
258,C2,33.0,0.5,95,164.0
259,C3,33.25,0.25,95,164.0
260,C3,33.5,0.5,95,164.0
261,D2,33.5,0.5,95,164.0
262,C4,33.5,0.5,95,164.0
263,G3,33.5,0.5,95,164.0
264,C3,33.5,0.5,95,164.0
265,C3,34.0,0.25,95,164.0
266,D3,34.0,0.5,95,164.0
267,B-2,34.0,0.5,95,164.0
268,C3,34.25,0.25,95,164.0
269,C3,34.5,0.5,95,164.0
270,D2,34.5,0.25,95,164.0
271,B3,34.5,0.5,95,164.0
272,G3,34.5,0.5,95,164.0
273,C3,34.5,0.5,95,164.0
274,D2,34.75,0.25,95,164.0
275,C3,35.0,0.25,95,164.0
276,B2,35.0,0.5,95,164.0
277,D2,35.0,0.25,95,164.0
278,C3,35.25,0.25,95,164.0
279,D2,35.25,0.25,95,164.0
280,E2,35.5,0.5,95,164.0
281,C4,35.5,0.5,95,164.0
282,G3,35.5,0.5,95,164.0
283,C3,35.5,0.5,95,164.0
284,C#3,35.5,0.5,95,164.0
285,C2,35.5,0.5,95,164.0
286,E2,36.0,0.5,95,164.0
287,B3,36.0,0.5,95,164.0
288,E3,36.0,0.5,95,164.0
289,E2,36.5,0.5,95,164.0
290,C2,36.5,0.5,95,164.0
291,E2,37.0,0.5,95,164.0
292,B3,37.0,0.5,95,164.0
293,E3,37.0,0.5,95,164.0
294,E-3,37.0,1.0,95,164.0
295,D2,37.0,1.0,95,164.0
296,E3,37.5,0.25,95,164.0
297,E2,37.5,0.5,95,164.0
298,E3,37.75,0.25,95,164.0
299,D4,37.938,0.062,95,164.0
300,E4,38.0,1.0,95,164.0
301,E2,38.0,0.5,95,164.0
302,E-3,38.0,0.5,95,164.0
303,B3,38.0,0.5,95,164.0
304,E3,38.0,0.5,95,164.0
305,E3,38.5,0.25,95,164.0
306,E2,38.5,0.5,95,164.0
307,C2,38.5,0.5,95,164.0
308,E3,38.75,0.25,95,164.0
309,G4,39.0,1.0,95,164.0
310,E2,39.0,0.5,95,164.0
311,A3,39.0,0.5,95,164.0
312,E3,39.0,0.5,95,164.0
313,E-3,39.0,1.0,95,164.0
314,D2,39.0,1.0,95,164.0
315,E2,39.5,0.5,95,164.0
316,B3,39.5,0.5,95,164.0
317,E3,39.5,0.5,95,164.0
318,A4,40.0,2.0,95,164.0
319,E3,40.0,0.25,95,164.0
320,E2,40.0,0.5,95,164.0
321,E-3,40.0,0.5,95,164.0
322,E3,40.25,0.25,95,164.0
323,E3,40.5,0.25,95,164.0
324,E2,40.5,0.5,95,164.0
325,C2,40.5,0.5,95,164.0
326,E3,40.75,0.25,95,164.0
327,E2,41.0,0.5,95,164.0
328,B3,41.0,0.5,95,164.0
329,E3,41.0,0.5,95,164.0
330,E-3,41.0,1.0,95,164.0
331,D2,41.0,1.0,95,164.0
332,E3,41.5,0.25,95,164.0
333,E2,41.5,0.5,95,164.0
334,E3,41.75,0.25,95,164.0
335,A4,42.0,1.0,95,164.0
336,E2,42.0,0.5,95,164.0
337,E-3,42.0,0.5,95,164.0
338,B3,42.0,0.5,95,164.0
339,E3,42.0,0.5,95,164.0
340,E3,42.5,0.5,95,164.0
341,G2,42.5,0.5,95,164.0
342,E-3,42.5,0.5,95,164.0
343,C2,42.5,0.5,95,164.0
344,G4,43.0,0.5,95,164.0
345,E2,43.0,0.5,95,164.0
346,D2,43.0,0.5,95,164.0
347,A3,43.0,0.5,95,164.0
348,E3,43.0,0.5,95,164.0
349,A4,43.5,0.5,95,164.0
350,C3,43.5,0.5,95,164.0
351,C#3,43.5,0.5,95,164.0
352,B3,43.5,0.5,95,164.0
353,E3,43.5,0.5,95,164.0
354,A4,44.0,4.0,95,164.0
355,C3,44.0,0.5,95,164.0
356,C3,44.5,0.5,95,164.0
357,C2,44.5,0.5,95,164.0
358,C4,44.5,0.5,95,164.0
359,G3,44.5,0.5,95,164.0
360,C3,44.5,0.5,95,164.0
361,C3,45.0,0.5,95,164.0
362,C4,45.0,0.5,95,164.0
363,G3,45.0,0.5,95,164.0
364,C3,45.0,0.5,95,164.0
365,E-3,45.0,1.0,95,164.0
366,D2,45.0,1.0,95,164.0
367,C3,45.5,0.25,95,164.0
368,C3,45.5,0.5,95,164.0
369,C3,45.75,0.25,95,164.0
370,C3,46.0,0.5,95,164.0
371,E-3,46.0,0.5,95,164.0
372,C4,46.0,0.5,95,164.0
373,G3,46.0,0.5,95,164.0
374,C3,46.0,0.5,95,164.0
375,C3,46.5,0.25,95,164.0
376,C3,46.5,0.5,95,164.0
377,C2,46.5,0.5,95,164.0
378,C3,46.75,0.25,95,164.0
379,C3,47.0,0.5,95,164.0
380,B3,47.0,0.5,95,164.0
381,G3,47.0,0.5,95,164.0
382,C3,47.0,0.5,95,164.0
383,E-3,47.0,1.0,95,164.0
384,D2,47.0,1.0,95,164.0
385,C3,47.5,0.5,95,164.0
386,C4,47.5,0.5,95,164.0
387,G3,47.5,0.5,95,164.0
388,C3,47.5,0.5,95,164.0
389,D5,48.0,1.0,95,164.0
390,C3,48.0,0.25,95,164.0
391,C3,48.0,0.5,95,164.0
392,E-3,48.0,0.5,95,164.0
393,C3,48.25,0.25,95,164.0
394,C3,48.5,0.25,95,164.0
395,C3,48.5,0.5,95,164.0
396,C2,48.5,0.5,95,164.0
397,C3,48.75,0.25,95,164.0
398,B4,49.0,1.0,95,164.0
399,C3,49.0,0.5,95,164.0
400,D4,49.0,0.5,95,164.0
401,G3,49.0,0.5,95,164.0
402,C3,49.0,0.5,95,164.0
403,E-3,49.0,1.0,95,164.0
404,D2,49.0,1.0,95,164.0
405,C3,49.5,0.25,95,164.0
406,C3,49.5,0.5,95,164.0
407,C3,49.75,0.25,95,164.0
408,A4,50.0,1.0,95,164.0
409,C3,50.0,0.5,95,164.0
410,E-3,50.0,0.5,95,164.0
411,C4,50.0,0.5,95,164.0
412,G3,50.0,0.5,95,164.0
413,C3,50.0,0.5,95,164.0
414,C3,50.5,0.25,95,164.0
415,C3,50.5,0.5,95,164.0
416,E-3,50.5,0.5,95,164.0
417,C2,50.5,0.5,95,164.0
418,C3,50.75,0.25,95,164.0
419,G4,51.0,0.5,95,164.0
420,C3,51.0,0.5,95,164.0
421,D2,51.0,0.5,95,164.0
422,B3,51.0,0.5,95,164.0
423,G3,51.0,0.5,95,164.0
424,C3,51.0,0.5,95,164.0
425,A4,51.5,0.5,95,164.0
426,D3,51.5,0.5,95,164.0
427,C#3,51.5,0.5,95,164.0
428,C4,51.5,0.5,95,164.0
429,G3,51.5,0.5,95,164.0
430,C3,51.5,0.5,95,164.0
431,A4,52.0,4.0,95,164.0
432,D3,52.0,0.5,95,164.0
433,D3,52.5,0.5,95,164.0
434,C2,52.5,0.5,95,164.0
435,A3,52.5,0.5,95,164.0
436,D3,52.5,0.5,95,164.0
437,D3,53.0,0.5,95,164.0
438,A3,53.0,0.5,95,164.0
439,D3,53.0,0.5,95,164.0
440,E-3,53.0,1.0,95,164.0
441,D2,53.0,1.0,95,164.0
442,D3,53.5,0.25,95,164.0
443,D3,53.5,0.5,95,164.0
444,D3,53.75,0.25,95,164.0
445,D3,54.0,0.5,95,164.0
446,E-3,54.0,0.5,95,164.0
447,A3,54.0,0.5,95,164.0
448,D3,54.0,0.5,95,164.0
449,D3,54.5,0.25,95,164.0
450,D3,54.5,0.5,95,164.0
451,C2,54.5,0.5,95,164.0
452,D3,54.75,0.25,95,164.0
453,D3,55.0,0.5,95,164.0
454,G3,55.0,0.5,95,164.0
455,D3,55.0,0.5,95,164.0
456,E-3,55.0,1.0,95,164.0
457,D2,55.0,1.0,95,164.0
458,D3,55.5,0.5,95,164.0
459,A3,55.5,0.5,95,164.0
460,D3,55.5,0.5,95,164.0
461,A4,56.0,2.0,95,164.0
462,D3,56.0,0.25,95,164.0
463,D3,56.0,0.5,95,164.0
464,E-3,56.0,0.5,95,164.0
465,D3,56.25,0.25,95,164.0
466,D3,56.5,0.25,95,164.0
467,D3,56.5,0.5,95,164.0
468,C2,56.5,0.5,95,164.0
469,D3,56.75,0.25,95,164.0
470,D3,57.0,0.5,95,164.0
471,A3,57.0,0.5,95,164.0
472,D3,57.0,0.5,95,164.0
473,E-3,57.0,1.0,95,164.0
474,D2,57.0,1.0,95,164.0
475,D3,57.5,0.25,95,164.0
476,D3,57.5,0.5,95,164.0
477,D3,57.75,0.25,95,164.0
478,A4,58.0,1.0,95,164.0
479,G3,58.0,0.5,95,164.0
480,E-3,58.0,0.5,95,164.0
481,A3,58.0,0.5,95,164.0
482,D3,58.0,0.5,95,164.0
483,D3,58.5,0.5,95,164.0
484,G3,58.5,0.5,95,164.0
485,E-3,58.5,0.5,95,164.0
486,C2,58.5,0.5,95,164.0
487,G4,59.0,0.5,95,164.0
488,D3,59.0,0.5,95,164.0
489,D2,59.0,0.5,95,164.0
490,G3,59.0,0.5,95,164.0
491,D3,59.0,0.5,95,164.0
492,A4,59.5,0.5,95,164.0
493,E2,59.5,0.5,95,164.0
494,C#3,59.5,0.5,95,164.0
495,A3,59.5,0.5,95,164.0
496,D3,59.5,0.5,95,164.0
497,A4,60.0,4.0,95,164.0
498,E2,60.0,0.5,95,164.0
499,E2,60.5,0.5,95,164.0
500,C2,60.5,0.5,95,164.0
501,B3,60.5,0.5,95,164.0
502,E3,60.5,0.5,95,164.0
503,E2,61.0,0.5,95,164.0
504,B3,61.0,0.5,95,164.0
505,E3,61.0,0.5,95,164.0
506,E-3,61.0,1.0,95,164.0
507,D2,61.0,1.0,95,164.0
508,E3,61.5,0.25,95,164.0
509,E2,61.5,0.5,95,164.0
510,E3,61.75,0.25,95,164.0
511,E2,62.0,0.5,95,164.0
512,B3,62.0,0.5,95,164.0
513,E3,62.0,0.5,95,164.0
514,E-3,62.0,0.5,95,164.0
515,C2,62.0,0.5,95,164.0
516,E3,62.5,0.25,95,164.0
517,E2,62.5,0.5,95,164.0
518,D2,62.5,0.5,95,164.0
519,E3,62.75,0.25,95,164.0
520,E2,63.0,0.5,95,164.0
521,E-3,63.0,0.5,95,164.0
522,A3,63.0,0.5,95,164.0
523,E3,63.0,0.5,95,164.0
524,E2,63.5,0.5,95,164.0
525,C2,63.5,0.5,95,164.0
526,B3,63.5,0.5,95,164.0
527,E3,63.5,0.5,95,164.0
528,A4,64.0,4.0,95,164.0
529,E3,64.0,0.25,95,164.0
530,E2,64.0,0.5,95,164.0
531,E-3,64.0,1.0,95,164.0
532,D2,64.0,1.0,95,164.0
533,E3,64.25,0.25,95,164.0
534,E3,64.5,0.25,95,164.0
535,E2,64.5,0.5,95,164.0
536,E3,64.75,0.25,95,164.0
537,E2,65.0,0.5,95,164.0
538,B3,65.0,0.5,95,164.0
539,E3,65.0,0.5,95,164.0
540,E-3,65.0,0.5,95,164.0
541,C2,65.0,0.5,95,164.0
542,E3,65.5,0.25,95,164.0
543,E2,65.5,0.5,95,164.0
544,D2,65.5,0.5,95,164.0
545,E3,65.75,0.25,95,164.0
546,E2,66.0,0.5,95,164.0
547,E-3,66.0,0.5,95,164.0
548,B3,66.0,0.5,95,164.0
549,E3,66.0,0.5,95,164.0
550,E3,66.5,0.5,95,164.0
551,E2,66.5,0.5,95,164.0
552,D2,66.5,0.25,95,164.0
553,D2,66.75,0.25,95,164.0
554,E2,67.0,0.5,95,164.0
555,D2,67.0,0.25,95,164.0
556,A3,67.0,0.5,95,164.0
557,E3,67.0,0.5,95,164.0
558,D2,67.25,0.25,95,164.0
559,E2,67.5,0.5,95,164.0
560,B3,67.5,0.5,95,164.0
561,E3,67.5,0.5,95,164.0
562,C#3,67.5,0.5,95,164.0
563,C2,67.5,0.5,95,164.0
564,E2,68.0,0.5,95,164.0
565,E2,68.5,0.5,95,164.0
566,C2,68.5,0.5,95,164.0
567,B3,68.5,0.5,95,164.0
568,E3,68.5,0.5,95,164.0
569,E2,69.0,0.5,95,164.0
570,B3,69.0,0.5,95,164.0
571,E3,69.0,0.5,95,164.0
572,E-3,69.0,1.0,95,164.0
573,D2,69.0,1.0,95,164.0
574,E3,69.5,0.25,95,164.0
575,E2,69.5,0.5,95,164.0
576,E3,69.75,0.25,95,164.0
577,D4,69.938,0.062,95,164.0
578,E4,70.0,2.0,95,164.0
579,E2,70.0,0.5,95,164.0
580,E-3,70.0,0.5,95,164.0
581,B3,70.0,0.5,95,164.0
582,E3,70.0,0.5,95,164.0
583,E3,70.5,0.25,95,164.0
584,E2,70.5,0.5,95,164.0
585,C2,70.5,0.5,95,164.0
586,E3,70.75,0.25,95,164.0
587,G4,71.0,1.0,95,164.0
588,E2,71.0,0.5,95,164.0
589,A3,71.0,0.5,95,164.0
590,E3,71.0,0.5,95,164.0
591,E-3,71.0,1.0,95,164.0
592,D2,71.0,1.0,95,164.0
593,E2,71.5,0.5,95,164.0
594,B3,71.5,0.5,95,164.0
595,E3,71.5,0.5,95,164.0
596,A4,72.0,2.0,95,164.0
597,E4,72.0,4.0,95,164.0
598,E3,72.0,0.25,95,164.0
599,E2,72.0,0.5,95,164.0
600,E-3,72.0,0.5,95,164.0
601,E3,72.25,0.25,95,164.0
602,E3,72.5,0.25,95,164.0
603,E2,72.5,0.5,95,164.0
604,C2,72.5,0.5,95,164.0
605,E3,72.75,0.25,95,164.0
606,E2,73.0,0.5,95,164.0
607,B3,73.0,0.5,95,164.0
608,E3,73.0,0.5,95,164.0
609,E-3,73.0,1.0,95,164.0
610,D2,73.0,1.0,95,164.0
611,E3,73.5,0.25,95,164.0
612,E2,73.5,0.5,95,164.0
613,E3,73.75,0.25,95,164.0
614,A4,74.0,1.0,95,164.0
615,E2,74.0,0.5,95,164.0
616,E-3,74.0,0.5,95,164.0
617,B3,74.0,0.5,95,164.0
618,E3,74.0,0.5,95,164.0
619,E3,74.5,0.5,95,164.0
620,G2,74.5,0.5,95,164.0
621,E-3,74.5,0.5,95,164.0
622,C2,74.5,0.5,95,164.0
623,G4,75.0,0.5,95,164.0
624,E2,75.0,0.5,95,164.0
625,D2,75.0,0.5,95,164.0
626,A3,75.0,0.5,95,164.0
627,E3,75.0,0.5,95,164.0
628,A4,75.5,0.5,95,164.0
629,C3,75.5,0.5,95,164.0
630,C#3,75.5,0.5,95,164.0
631,B3,75.5,0.5,95,164.0
632,E3,75.5,0.5,95,164.0
633,E4,76.0,4.0,95,164.0
634,A4,76.0,4.0,95,164.0
635,C3,76.0,0.5,95,164.0
636,C3,76.5,0.5,95,164.0
637,C2,76.5,0.5,95,164.0
638,C4,76.5,0.5,95,164.0
639,G3,76.5,0.5,95,164.0
640,C3,76.5,0.5,95,164.0
641,C3,77.0,0.5,95,164.0
642,C4,77.0,0.5,95,164.0
643,G3,77.0,0.5,95,164.0
644,C3,77.0,0.5,95,164.0
645,E-3,77.0,1.0,95,164.0
646,D2,77.0,1.0,95,164.0
647,C3,77.5,0.25,95,164.0
648,C3,77.5,0.5,95,164.0
649,C3,77.75,0.25,95,164.0
650,C3,78.0,0.5,95,164.0
651,E-3,78.0,0.5,95,164.0
652,C4,78.0,0.5,95,164.0
653,G3,78.0,0.5,95,164.0
654,C3,78.0,0.5,95,164.0
655,C3,78.5,0.25,95,164.0
656,C3,78.5,0.5,95,164.0
657,C2,78.5,0.5,95,164.0
658,C3,78.75,0.25,95,164.0
659,C3,79.0,0.5,95,164.0
660,B3,79.0,0.5,95,164.0
661,G3,79.0,0.5,95,164.0
662,C3,79.0,0.5,95,164.0
663,E-3,79.0,1.0,95,164.0
664,D2,79.0,1.0,95,164.0
665,C3,79.5,0.5,95,164.0
666,C4,79.5,0.5,95,164.0
667,G3,79.5,0.5,95,164.0
668,C3,79.5,0.5,95,164.0
669,D5,80.0,2.0,95,164.0
670,E4,80.0,4.0,95,164.0
671,C3,80.0,0.25,95,164.0
672,C3,80.0,0.5,95,164.0
673,E-3,80.0,0.5,95,164.0
674,C3,80.25,0.25,95,164.0
675,C3,80.5,0.25,95,164.0
676,C3,80.5,0.5,95,164.0
677,C2,80.5,0.5,95,164.0
678,C3,80.75,0.25,95,164.0
679,C3,81.0,0.5,95,164.0
680,D4,81.0,0.5,95,164.0
681,G3,81.0,0.5,95,164.0
682,C3,81.0,0.5,95,164.0
683,E-3,81.0,1.0,95,164.0
684,D2,81.0,1.0,95,164.0
685,C3,81.5,0.25,95,164.0
686,C3,81.5,0.5,95,164.0
687,C3,81.75,0.25,95,164.0
688,D5,82.0,1.0,95,164.0
689,D3,82.0,0.5,95,164.0
690,E-3,82.0,0.5,95,164.0
691,C4,82.0,0.5,95,164.0
692,G3,82.0,0.5,95,164.0
693,C3,82.0,0.5,95,164.0
694,C3,82.5,0.25,95,164.0
695,C3,82.5,0.5,95,164.0
696,E-3,82.5,0.5,95,164.0
697,C2,82.5,0.5,95,164.0
698,C3,82.75,0.25,95,164.0
699,B4,83.0,0.5,95,164.0
700,B2,83.0,0.5,95,164.0
701,D2,83.0,0.5,95,164.0
702,B3,83.0,0.5,95,164.0
703,G3,83.0,0.5,95,164.0
704,C3,83.0,0.5,95,164.0
705,D5,83.5,0.5,95,164.0
706,C3,83.5,0.25,95,164.0
707,D3,83.5,0.5,95,164.0
708,C#3,83.5,0.5,95,164.0
709,C3,83.75,0.25,95,164.0
710,E4,84.0,4.0,95,164.0
711,D5,84.0,2.5,95,164.0
712,D3,84.0,0.5,95,164.0
713,C4,84.0,0.5,95,164.0
714,G3,84.0,0.5,95,164.0
715,C3,84.0,0.5,95,164.0
716,D3,84.5,0.5,95,164.0
717,C2,84.5,0.5,95,164.0
718,A3,84.5,0.5,95,164.0
719,D3,84.5,0.5,95,164.0
720,D3,85.0,0.5,95,164.0
721,E-3,85.0,1.0,95,164.0
722,D2,85.0,1.0,95,164.0
723,D3,85.5,0.5,95,164.0
724,A3,85.5,0.5,95,164.0
725,D3,85.5,0.5,95,164.0
726,D3,86.0,0.25,95,164.0
727,D3,86.0,0.5,95,164.0
728,E-3,86.0,0.5,95,164.0
729,D3,86.25,0.25,95,164.0
730,E5,86.5,0.5,95,164.0
731,D3,86.5,0.5,95,164.0
732,C2,86.5,0.5,95,164.0
733,A3,86.5,0.5,95,164.0
734,D3,86.5,0.5,95,164.0
735,G5,87.0,0.5,95,164.0
736,D3,87.0,0.25,95,164.0
737,D3,87.0,0.5,95,164.0
738,E-3,87.0,1.0,95,164.0
739,D2,87.0,1.0,95,164.0
740,D3,87.25,0.25,95,164.0
741,E5,87.5,0.5,95,164.0
742,D3,87.5,0.5,95,164.0
743,G3,87.5,0.5,95,164.0
744,D3,87.5,0.5,95,164.0
745,A5,88.0,2.0,95,164.0
746,E4,88.0,4.0,95,164.0
747,D3,88.0,0.5,95,164.0
748,E-3,88.0,0.5,95,164.0
749,A3,88.0,0.5,95,164.0
750,D3,88.0,0.5,95,164.0
751,D3,88.5,0.25,95,164.0
752,D3,88.5,0.5,95,164.0
753,C2,88.5,0.5,95,164.0
754,D3,88.75,0.25,95,164.0
755,D3,89.0,0.25,95,164.0
756,D3,89.0,0.5,95,164.0
757,E-3,89.0,1.0,95,164.0
758,D2,89.0,1.0,95,164.0
759,D3,89.25,0.25,95,164.0
760,G3,89.5,0.5,95,164.0
761,A3,89.5,0.5,95,164.0
762,D3,89.5,0.5,95,164.0
763,A5,90.0,1.0,95,164.0
764,D3,90.0,0.25,95,164.0
765,D3,90.0,0.5,95,164.0
766,E-3,90.0,0.5,95,164.0
767,D3,90.25,0.25,95,164.0
768,F#3,90.5,0.5,95,164.0
769,A3,90.5,0.5,95,164.0
770,D3,90.5,0.5,95,164.0
771,E-3,90.5,0.5,95,164.0
772,C2,90.5,0.5,95,164.0
773,G5,91.0,0.5,95,164.0
774,D3,91.0,0.5,95,164.0
775,D3,91.0,0.5,95,164.0
776,D2,91.0,0.5,95,164.0
777,A5,91.5,0.5,95,164.0
778,E2,91.5,0.5,95,164.0
779,C#3,91.5,0.5,95,164.0
780,G3,91.5,0.5,95,164.0
781,D3,91.5,0.5,95,164.0
782,E4,92.0,4.0,95,164.0
783,A5,92.0,4.0,95,164.0
784,D3,92.0,0.25,95,164.0
785,E2,92.0,0.5,95,164.0
786,D3,92.25,0.25,95,164.0
787,E2,92.5,0.5,95,164.0
788,C2,92.5,0.5,95,164.0
789,A3,92.5,0.5,95,164.0
790,D3,92.5,0.5,95,164.0
791,E2,93.0,0.5,95,164.0
792,B3,93.0,0.5,95,164.0
793,E3,93.0,0.5,95,164.0
794,E-3,93.0,1.0,95,164.0
795,D2,93.0,1.0,95,164.0
796,E2,93.5,0.5,95,164.0
797,E2,94.0,0.5,95,164.0
798,B3,94.0,0.5,95,164.0
799,E3,94.0,0.5,95,164.0
800,E-3,94.0,0.5,95,164.0
801,C2,94.0,0.5,95,164.0
802,E3,94.5,0.25,95,164.0
803,E2,94.5,0.5,95,164.0
804,D2,94.5,0.5,95,164.0
805,E3,94.75,0.25,95,164.0
806,E2,95.0,0.5,95,164.0
807,E-3,95.0,0.5,95,164.0
808,B3,95.0,0.5,95,164.0
809,E3,95.0,0.5,95,164.0
810,E3,95.5,0.25,95,164.0
811,E2,95.5,0.5,95,164.0
812,C2,95.5,0.5,95,164.0
813,E3,95.75,0.25,95,164.0
814,D6,96.0,4.0,95,164.0
815,E4,96.0,4.0,95,164.0
816,E2,96.0,0.5,95,164.0
817,A3,96.0,0.5,95,164.0
818,E3,96.0,0.5,95,164.0
819,E-3,96.0,1.0,95,164.0
820,D2,96.0,1.0,95,164.0
821,E3,96.5,0.5,95,164.0
822,B3,96.5,0.5,95,164.0
823,E3,96.5,0.5,95,164.0
824,E3,97.0,0.25,95,164.0
825,G3,97.0,0.5,95,164.0
826,E-3,97.0,0.5,95,164.0
827,C2,97.0,0.5,95,164.0
828,E3,97.25,0.25,95,164.0
829,E3,97.5,0.25,95,164.0
830,E3,97.5,0.5,95,164.0
831,D2,97.5,0.5,95,164.0
832,E3,97.75,0.25,95,164.0
833,A3,98.0,0.5,95,164.0
834,E-3,98.0,0.5,95,164.0
835,B3,98.0,0.5,95,164.0
836,E3,98.0,0.5,95,164.0
837,E3,98.5,0.25,95,164.0
838,E3,98.5,0.5,95,164.0
839,D2,98.5,0.25,95,164.0
840,E3,98.75,0.25,95,164.0
841,D2,98.75,0.25,95,164.0
842,G3,99.0,0.5,95,164.0
843,D2,99.0,0.25,95,164.0
844,B3,99.0,0.5,95,164.0
845,E3,99.0,0.5,95,164.0
846,D2,99.25,0.25,95,164.0
847,E3,99.5,0.5,95,164.0
848,E2,99.5,0.5,95,164.0
849,C#3,99.5,0.5,95,164.0
850,C2,99.5,0.5,95,164.0
851,E4,100.0,0.5,95,164.0
852,E2,100.0,0.5,95,164.0
853,A3,100.0,0.5,95,164.0
854,E3,100.0,0.5,95,164.0
855,E3,100.5,0.5,95,164.0
856,E2,100.5,0.5,95,164.0
857,B3,100.5,0.5,95,164.0
858,E3,100.5,0.5,95,164.0
859,C#3,100.5,0.5,95,164.0
860,C2,100.5,0.5,95,164.0
861,E2,101.0,0.5,95,164.0
862,C2,101.0,0.5,95,164.0
863,B3,101.0,0.5,95,164.0
864,E3,101.0,0.5,95,164.0
865,E3,101.5,0.5,95,164.0
866,E2,101.5,0.5,95,164.0
867,B3,101.5,0.5,95,164.0
868,E3,101.5,0.5,95,164.0
869,B-2,101.5,1.0,95,164.0
870,D2,101.5,1.0,95,164.0
871,E3,102.0,0.5,95,164.0
872,E2,102.0,0.5,95,164.0
873,B3,102.0,0.5,95,164.0
874,E3,102.0,0.5,95,164.0
875,E3,102.5,0.5,95,164.0
876,E3,102.5,0.5,95,164.0
877,E2,102.5,0.5,95,164.0
878,B-2,102.5,0.5,95,164.0
879,E2,103.0,0.5,95,164.0
880,C2,103.0,0.5,95,164.0
881,B3,103.0,0.5,95,164.0
882,E3,103.0,0.5,95,164.0
883,B3,103.0,0.5,95,164.0
884,E3,103.0,0.5,95,164.0
885,E3,103.5,0.5,95,164.0
886,E3,103.5,0.5,95,164.0
887,E2,103.5,0.5,95,164.0
888,B-2,103.5,1.0,95,164.0
889,D2,103.5,1.0,95,164.0
890,E3,104.0,0.5,95,164.0
891,E3,104.0,0.5,95,164.0
892,E2,104.0,0.5,95,164.0
893,E3,104.5,0.5,95,164.0
894,E3,104.5,0.5,95,164.0
895,E2,104.5,0.5,95,164.0
896,B-2,104.5,0.5,95,164.0
897,E2,105.0,0.5,95,164.0
898,C2,105.0,0.5,95,164.0
899,B3,105.0,0.5,95,164.0
900,E3,105.0,0.5,95,164.0
901,B3,105.0,0.5,95,164.0
902,E3,105.0,0.5,95,164.0
903,E3,105.5,0.5,95,164.0
904,E3,105.5,0.5,95,164.0
905,E2,105.5,0.5,95,164.0
906,B-2,105.5,1.0,95,164.0
907,D2,105.5,1.0,95,164.0
908,E3,106.0,0.5,95,164.0
909,E3,106.0,0.5,95,164.0
910,E2,106.0,0.5,95,164.0
911,E3,106.5,0.5,95,164.0
912,E3,106.5,0.5,95,164.0
913,E2,106.5,0.5,95,164.0
914,B-2,106.5,0.5,95,164.0
915,E2,107.0,0.5,95,164.0
916,C2,107.0,0.5,95,164.0
917,B3,107.0,0.5,95,164.0
918,E3,107.0,0.5,95,164.0
919,B3,107.0,0.5,95,164.0
920,E3,107.0,0.5,95,164.0
921,E3,107.5,0.5,95,164.0
922,C3,107.5,0.5,95,164.0
923,G3,107.5,0.5,95,164.0
924,C3,107.5,0.5,95,164.0
925,B-2,107.5,0.5,95,164.0
926,D2,107.5,0.5,95,164.0
927,E3,108.0,0.5,95,164.0
928,C3,108.0,0.5,95,164.0
929,C2,108.0,0.5,95,164.0
930,E3,108.5,0.5,95,164.0
931,C3,108.5,0.5,95,164.0
932,B-2,108.5,0.5,95,164.0
933,G3,108.5,0.5,95,164.0
934,C3,108.5,0.5,95,164.0
935,C3,109.0,0.5,95,164.0
936,C3,109.0,0.5,95,164.0
937,C2,109.0,0.5,95,164.0
938,B3,109.0,0.5,95,164.0
939,E3,109.0,0.5,95,164.0
940,C3,109.5,0.5,95,164.0
941,G3,109.5,0.5,95,164.0
942,C3,109.5,0.5,95,164.0
943,G3,109.5,0.5,95,164.0
944,C3,109.5,0.5,95,164.0
945,B-2,109.5,1.0,95,164.0
946,D2,109.5,1.0,95,164.0
947,C3,110.0,0.5,95,164.0
948,C3,110.0,0.5,95,164.0
949,C3,110.5,0.5,95,164.0
950,C3,110.5,0.5,95,164.0
951,B-2,110.5,0.5,95,164.0
952,G3,110.5,0.5,95,164.0
953,C3,110.5,0.5,95,164.0
954,C3,111.0,0.5,95,164.0
955,C3,111.0,0.5,95,164.0
956,C3,111.0,0.5,95,164.0
957,C2,111.0,0.5,95,164.0
958,C3,111.5,0.5,95,164.0
959,G3,111.5,0.5,95,164.0
960,C3,111.5,0.5,95,164.0
961,G3,111.5,0.5,95,164.0
962,C3,111.5,0.5,95,164.0
963,B-2,111.5,1.0,95,164.0
964,D2,111.5,1.0,95,164.0
965,C3,112.0,0.5,95,164.0
966,C3,112.0,0.5,95,164.0
967,C3,112.0,0.5,95,164.0
968,C3,112.5,0.5,95,164.0
969,C3,112.5,0.5,95,164.0
970,C3,112.5,0.5,95,164.0
971,B-2,112.5,0.5,95,164.0
972,C3,113.0,0.5,95,164.0
973,C3,113.0,0.5,95,164.0
974,C3,113.0,0.5,95,164.0
975,C2,113.0,0.5,95,164.0
976,C3,113.5,0.5,95,164.0
977,G3,113.5,0.5,95,164.0
978,C3,113.5,0.5,95,164.0
979,G3,113.5,0.5,95,164.0
980,C3,113.5,0.5,95,164.0
981,B-2,113.5,1.0,95,164.0
982,D2,113.5,1.0,95,164.0
983,C3,114.0,0.5,95,164.0
984,C3,114.0,0.5,95,164.0
985,D3,114.0,0.5,95,164.0
986,C3,114.5,0.5,95,164.0
987,C3,114.5,0.5,95,164.0
988,C3,114.5,0.5,95,164.0
989,B-2,114.5,0.5,95,164.0
990,C3,115.0,0.5,95,164.0
991,C3,115.0,0.5,95,164.0
992,B2,115.0,0.5,95,164.0
993,C2,115.0,0.5,95,164.0
994,E2,115.5,0.5,95,164.0
995,G3,115.5,0.5,95,164.0
996,C3,115.5,0.5,95,164.0
997,G3,115.5,0.5,95,164.0
998,C3,115.5,0.5,95,164.0
999,B-2,115.5,0.5,95,164.0
1000,D2,115.5,0.5,95,164.0
1001,C3,116.0,0.5,95,164.0
1002,E2,116.0,0.5,95,164.0
1003,C2,116.0,0.5,95,164.0
1004,B3,116.0,0.5,95,164.0
1005,E3,116.0,0.5,95,164.0
1006,C3,116.5,0.5,95,164.0
1007,E2,116.5,0.5,95,164.0
1008,B-2,116.5,0.5,95,164.0
1009,C3,117.0,0.5,95,164.0
1010,E2,117.0,0.5,95,164.0
1011,C2,117.0,0.5,95,164.0
1012,B3,117.0,0.5,95,164.0
1013,E3,117.0,0.5,95,164.0
1014,E3,117.5,0.5,95,164.0
1015,E2,117.5,0.5,95,164.0
1016,G3,117.5,0.5,95,164.0
1017,C3,117.5,0.5,95,164.0
1018,B-2,117.5,1.0,95,164.0
1019,D2,117.5,1.0,95,164.0
1020,E2,118.0,0.5,95,164.0
1021,B3,118.0,0.5,95,164.0
1022,E3,118.0,0.5,95,164.0
1023,B3,118.0,0.5,95,164.0
1024,E3,118.0,0.5,95,164.0
1025,E3,118.5,0.5,95,164.0
1026,E2,118.5,0.5,95,164.0
1027,B-2,118.5,0.5,95,164.0
1028,E3,119.0,0.5,95,164.0
1029,E2,119.0,0.5,95,164.0
1030,C2,119.0,0.5,95,164.0
1031,B3,119.0,0.5,95,164.0
1032,E3,119.0,0.5,95,164.0
1033,E3,119.5,0.5,95,164.0
1034,E3,119.5,0.5,95,164.0
1035,E2,119.5,0.5,95,164.0
1036,B-2,119.5,1.0,95,164.0
1037,D2,119.5,1.0,95,164.0
1038,E2,120.0,0.5,95,164.0
1039,B3,120.0,0.5,95,164.0
1040,E3,120.0,0.5,95,164.0
1041,B3,120.0,0.5,95,164.0
1042,E3,120.0,0.5,95,164.0
1043,E3,120.5,0.5,95,164.0
1044,E3,120.5,0.5,95,164.0
1045,E2,120.5,0.5,95,164.0
1046,B-2,120.5,0.5,95,164.0
1047,E3,121.0,0.5,95,164.0
1048,E3,121.0,0.5,95,164.0
1049,E2,121.0,0.5,95,164.0
1050,C2,121.0,0.5,95,164.0
1051,E3,121.5,0.5,95,164.0
1052,E3,121.5,0.5,95,164.0
1053,E2,121.5,0.5,95,164.0
1054,B-2,121.5,1.0,95,164.0
1055,D2,121.5,1.0,95,164.0
1056,E2,122.0,0.5,95,164.0
1057,B3,122.0,0.5,95,164.0
1058,E3,122.0,0.5,95,164.0
1059,B3,122.0,0.5,95,164.0
1060,E3,122.0,0.5,95,164.0
1061,E3,122.5,0.5,95,164.0
1062,E3,122.5,0.5,95,164.0
1063,G2,122.5,0.5,95,164.0
1064,B-2,122.5,0.5,95,164.0
1065,E3,123.0,0.5,95,164.0
1066,E3,123.0,0.5,95,164.0
1067,E2,123.0,0.5,95,164.0
1068,C2,123.0,0.5,95,164.0
1069,E3,123.5,0.5,95,164.0
1070,E3,123.5,0.5,95,164.0
1071,C3,123.5,0.5,95,164.0
1072,B-2,123.5,0.5,95,164.0
1073,D2,123.5,0.5,95,164.0
1074,C3,124.0,0.5,95,164.0
1075,C2,124.0,0.5,95,164.0
1076,B3,124.0,0.5,95,164.0
1077,E3,124.0,0.5,95,164.0
1078,B3,124.0,0.5,95,164.0
1079,E3,124.0,0.5,95,164.0
1080,E3,124.5,0.5,95,164.0
1081,C3,124.5,0.5,95,164.0
1082,B-2,124.5,0.5,95,164.0
1083,G3,124.5,0.5,95,164.0
1084,C3,124.5,0.5,95,164.0
1085,E3,125.0,0.5,95,164.0
1086,C3,125.0,0.5,95,164.0
1087,C2,125.0,0.5,95,164.0
1088,E3,125.5,0.5,95,164.0
1089,C3,125.5,0.5,95,164.0
1090,G3,125.5,0.5,95,164.0
1091,C3,125.5,0.5,95,164.0
1092,B-2,125.5,1.0,95,164.0
1093,D2,125.5,1.0,95,164.0
1094,C3,126.0,0.5,95,164.0
1095,C3,126.0,0.5,95,164.0
1096,B3,126.0,0.5,95,164.0
1097,E3,126.0,0.5,95,164.0
1098,C3,126.5,0.5,95,164.0
1099,B-2,126.5,0.5,95,164.0
1100,G3,126.5,0.5,95,164.0
1101,C3,126.5,0.5,95,164.0
1102,G3,126.5,0.5,95,164.0
1103,C3,126.5,0.5,95,164.0
1104,C3,127.0,0.5,95,164.0
1105,C3,127.0,0.5,95,164.0
1106,C2,127.0,0.5,95,164.0
1107,C3,127.5,0.5,95,164.0
1108,C3,127.5,0.5,95,164.0
1109,G3,127.5,0.5,95,164.0
1110,C3,127.5,0.5,95,164.0
1111,B-2,127.5,1.0,95,164.0
1112,D2,127.5,1.0,95,164.0
1113,C3,128.0,0.5,95,164.0
1114,C3,128.0,0.5,95,164.0
1115,C3,128.0,0.5,95,164.0
1116,C3,128.5,0.5,95,164.0
1117,B-2,128.5,0.5,95,164.0
1118,G3,128.5,0.5,95,164.0
1119,C3,128.5,0.5,95,164.0
1120,G3,128.5,0.5,95,164.0
1121,C3,128.5,0.5,95,164.0
1122,C3,129.0,0.5,95,164.0
1123,C3,129.0,0.5,95,164.0
1124,C3,129.0,0.5,95,164.0
1125,C2,129.0,0.5,95,164.0
1126,C3,129.5,0.5,95,164.0
1127,C3,129.5,0.5,95,164.0
1128,C3,129.5,0.5,95,164.0
1129,B-2,129.5,1.0,95,164.0
1130,D2,129.5,1.0,95,164.0
1131,C3,130.0,0.5,95,164.0
1132,C3,130.0,0.5,95,164.0
1133,D3,130.0,0.5,95,164.0
1134,C3,130.5,0.5,95,164.0
1135,B-2,130.5,0.5,95,164.0
1136,G3,130.5,0.5,95,164.0
1137,C3,130.5,0.5,95,164.0
1138,G3,130.5,0.5,95,164.0
1139,C3,130.5,0.5,95,164.0
1140,C3,131.0,0.5,95,164.0
1141,C3,131.0,0.5,95,164.0
1142,B2,131.0,0.5,95,164.0
1143,C2,131.0,0.5,95,164.0
1144,C3,131.5,0.5,95,164.0
1145,C3,131.5,0.5,95,164.0
1146,E2,131.5,0.5,95,164.0
1147,B-2,131.5,0.5,95,164.0
1148,D2,131.5,0.5,95,164.0
1149,C3,132.0,0.5,95,164.0
1150,C3,132.0,0.5,95,164.0
1151,E2,132.0,0.5,95,164.0
1152,C#3,132.0,0.5,95,164.0
1153,C2,132.0,0.5,95,164.0
1154,E2,132.5,0.5,95,164.0
1155,G3,132.5,0.5,95,164.0
1156,C3,132.5,0.5,95,164.0
1157,G3,132.5,0.5,95,164.0
1158,C3,132.5,0.5,95,164.0
1159,C3,133.0,0.5,95,164.0
1160,E2,133.0,0.5,95,164.0
1161,B3,133.0,0.5,95,164.0
1162,E3,133.0,0.5,95,164.0
1163,C#3,133.0,0.5,95,164.0
1164,C2,133.0,0.5,95,164.0
1165,C3,133.5,0.5,95,164.0
1166,E2,133.5,0.5,95,164.0
1167,C2,133.5,0.5,95,164.0
1168,C3,134.0,0.5,95,164.0
1169,E2,134.0,0.5,95,164.0
1170,B3,134.0,0.5,95,164.0
1171,E3,134.0,0.5,95,164.0
1172,B-2,134.0,1.0,95,164.0
1173,D2,134.0,1.0,95,164.0
1174,E3,134.5,0.25,95,164.0
1175,E2,134.5,0.5,95,164.0
1176,G3,134.5,0.5,95,164.0
1177,C3,134.5,0.5,95,164.0
1178,E3,134.75,0.25,95,164.0
1179,E2,135.0,0.5,95,164.0
1180,B-2,135.0,0.5,95,164.0
1181,B3,135.0,0.5,95,164.0
1182,E3,135.0,0.5,95,164.0
1183,B3,135.0,0.5,95,164.0
1184,E3,135.0,0.5,95,164.0
1185,E3,135.5,0.25,95,164.0
1186,E2,135.5,0.5,95,164.0
1187,C2,135.5,0.5,95,164.0
1188,E3,135.75,0.25,95,164.0
1189,E2,136.0,0.5,95,164.0
1190,A3,136.0,0.5,95,164.0
1191,E3,136.0,0.5,95,164.0
1192,B3,136.0,0.5,95,164.0
1193,E3,136.0,0.5,95,164.0
1194,B-2,136.0,1.0,95,164.0
1195,D2,136.0,1.0,95,164.0
1196,E3,136.5,0.25,95,164.0
1197,E2,136.5,0.5,95,164.0
1198,B3,136.5,0.5,95,164.0
1199,E3,136.5,0.5,95,164.0
1200,E3,136.75,0.25,95,164.0
1201,E3,137.0,0.25,95,164.0
1202,E2,137.0,0.5,95,164.0
1203,B-2,137.0,0.5,95,164.0
1204,B3,137.0,0.5,95,164.0
1205,E3,137.0,0.5,95,164.0
1206,E3,137.25,0.25,95,164.0
1207,E3,137.5,0.25,95,164.0
1208,E3,137.5,0.25,95,164.0
1209,E2,137.5,0.5,95,164.0
1210,C2,137.5,0.5,95,164.0
1211,E3,137.75,0.25,95,164.0
1212,E3,137.75,0.25,95,164.0
1213,E2,138.0,0.5,95,164.0
1214,B3,138.0,0.5,95,164.0
1215,E3,138.0,0.5,95,164.0
1216,A3,138.0,0.5,95,164.0
1217,E3,138.0,0.5,95,164.0
1218,B-2,138.0,1.0,95,164.0
1219,D2,138.0,1.0,95,164.0
1220,E3,138.5,0.25,95,164.0
1221,G2,138.5,0.5,95,164.0
1222,B3,138.5,0.5,95,164.0
1223,E3,138.5,0.5,95,164.0
1224,E3,138.75,0.25,95,164.0
1225,E3,139.0,0.25,95,164.0
1226,E2,139.0,0.5,95,164.0
1227,B-2,139.0,0.5,95,164.0
1228,B3,139.0,0.5,95,164.0
1229,E3,139.0,0.5,95,164.0
1230,E3,139.25,0.25,95,164.0
1231,E3,139.5,0.25,95,164.0
1232,E3,139.5,0.25,95,164.0
1233,C3,139.5,0.5,95,164.0
1234,C2,139.5,0.5,95,164.0
1235,E3,139.75,0.25,95,164.0
1236,E3,139.75,0.25,95,164.0
1237,C3,140.0,0.5,95,164.0
1238,A3,140.0,0.5,95,164.0
1239,E3,140.0,0.5,95,164.0
1240,B3,140.0,0.5,95,164.0
1241,E3,140.0,0.5,95,164.0
1242,B-2,140.0,0.5,95,164.0
1243,D2,140.0,0.5,95,164.0
1244,E3,140.5,0.25,95,164.0
1245,E3,140.5,0.25,95,164.0
1246,C3,140.5,0.5,95,164.0
1247,C#3,140.5,0.5,95,164.0
1248,E3,140.75,0.25,95,164.0
1249,E3,140.75,0.25,95,164.0
1250,C3,141.0,0.5,95,164.0
1251,B3,141.0,0.5,95,164.0
1252,E3,141.0,0.5,95,164.0
1253,B3,141.0,0.5,95,164.0
1254,E3,141.0,0.5,95,164.0
1255,E3,141.5,0.25,95,164.0
1256,C3,141.5,0.5,95,164.0
1257,C2,141.5,0.5,95,164.0
1258,C4,141.5,0.5,95,164.0
1259,G3,141.5,0.5,95,164.0
1260,C3,141.5,0.5,95,164.0
1261,E3,141.75,0.25,95,164.0
1262,C3,142.0,0.5,95,164.0
1263,A3,142.0,0.5,95,164.0
1264,E3,142.0,0.5,95,164.0
1265,B-2,142.0,1.0,95,164.0
1266,D2,142.0,1.0,95,164.0
1267,E3,142.5,0.25,95,164.0
1268,C3,142.5,0.5,95,164.0
1269,C4,142.5,0.5,95,164.0
1270,G3,142.5,0.5,95,164.0
1271,C3,142.5,0.5,95,164.0
1272,E3,142.75,0.25,95,164.0
1273,C3,143.0,0.25,95,164.0
1274,C3,143.0,0.5,95,164.0
1275,B-2,143.0,0.5,95,164.0
1276,B3,143.0,0.5,95,164.0
1277,E3,143.0,0.5,95,164.0
1278,C3,143.25,0.25,95,164.0
1279,C3,143.5,0.5,95,164.0
1280,C2,143.5,0.5,95,164.0
1281,C4,143.5,0.5,95,164.0
1282,G3,143.5,0.5,95,164.0
1283,C3,143.5,0.5,95,164.0
1284,C4,143.5,0.5,95,164.0
1285,G3,143.5,0.5,95,164.0
1286,C3,143.5,0.5,95,164.0
1287,C3,144.0,0.25,95,164.0
1288,C3,144.0,0.5,95,164.0
1289,B-2,144.0,1.0,95,164.0
1290,D2,144.0,1.0,95,164.0
1291,C3,144.25,0.25,95,164.0
1292,C3,144.5,0.5,95,164.0
1293,B3,144.5,0.5,95,164.0
1294,G3,144.5,0.5,95,164.0
1295,C3,144.5,0.5,95,164.0
1296,C4,144.5,0.5,95,164.0
1297,G3,144.5,0.5,95,164.0
1298,C3,144.5,0.5,95,164.0
1299,C3,145.0,0.25,95,164.0
1300,C3,145.0,0.5,95,164.0
1301,B-2,145.0,0.5,95,164.0
1302,C4,145.0,0.5,95,164.0
1303,G3,145.0,0.5,95,164.0
1304,C3,145.0,0.5,95,164.0
1305,C3,145.25,0.25,95,164.0
1306,C3,145.5,0.25,95,164.0
1307,C3,145.5,0.5,95,164.0
1308,C2,145.5,0.5,95,164.0
1309,C4,145.5,0.5,95,164.0
1310,G3,145.5,0.5,95,164.0
1311,C3,145.5,0.5,95,164.0
1312,C3,145.75,0.25,95,164.0
1313,C3,146.0,0.25,95,164.0
1314,C3,146.0,0.25,95,164.0
1315,D3,146.0,0.5,95,164.0
1316,B-2,146.0,1.0,95,164.0
1317,D2,146.0,1.0,95,164.0
1318,C3,146.25,0.25,95,164.0
1319,C3,146.25,0.25,95,164.0
1320,C3,146.5,0.5,95,164.0
1321,D4,146.5,0.5,95,164.0
1322,G3,146.5,0.5,95,164.0
1323,C3,146.5,0.5,95,164.0
1324,B3,146.5,0.5,95,164.0
1325,G3,146.5,0.5,95,164.0
1326,C3,146.5,0.5,95,164.0
1327,C3,147.0,0.25,95,164.0
1328,B2,147.0,0.5,95,164.0
1329,B-2,147.0,0.5,95,164.0
1330,C4,147.0,0.5,95,164.0
1331,G3,147.0,0.5,95,164.0
1332,C3,147.0,0.5,95,164.0
1333,C3,147.25,0.25,95,164.0
1334,C3,147.5,0.25,95,164.0
1335,E2,147.5,0.5,95,164.0
1336,C2,147.5,0.5,95,164.0
1337,C4,147.5,0.5,95,164.0
1338,G3,147.5,0.5,95,164.0
1339,C3,147.5,0.5,95,164.0
1340,C3,147.75,0.25,95,164.0
1341,C3,148.0,0.25,95,164.0
1342,C3,148.0,0.25,95,164.0
1343,E2,148.0,0.5,95,164.0
1344,B-2,148.0,0.5,95,164.0
1345,D2,148.0,0.5,95,164.0
1346,C3,148.25,0.25,95,164.0
1347,C3,148.25,0.25,95,164.0
1348,E2,148.5,0.5,95,164.0
1349,C#3,148.5,0.5,95,164.0
1350,B3,148.5,0.5,95,164.0
1351,G3,148.5,0.5,95,164.0
1352,C3,148.5,0.5,95,164.0
1353,D4,148.5,0.5,95,164.0
1354,G3,148.5,0.5,95,164.0
1355,C3,148.5,0.5,95,164.0
1356,C3,149.0,0.25,95,164.0
1357,E2,149.0,0.5,95,164.0
1358,C4,149.0,0.5,95,164.0
1359,G3,149.0,0.5,95,164.0
1360,C3,149.0,0.5,95,164.0
1361,C3,149.25,0.25,95,164.0
1362,E2,149.5,0.5,95,164.0
1363,C2,149.5,0.5,95,164.0
1364,C4,149.5,0.5,95,164.0
1365,G3,149.5,0.5,95,164.0
1366,C3,149.5,0.5,95,164.0
1367,C3,150.0,0.25,95,164.0
1368,E2,150.0,0.5,95,164.0
1369,B3,150.0,0.5,95,164.0
1370,E3,150.0,0.5,95,164.0
1371,B-2,150.0,1.0,95,164.0
1372,D2,150.0,1.0,95,164.0
1373,C3,150.25,0.25,95,164.0
1374,E2,150.5,0.5,95,164.0
1375,B3,150.5,0.5,95,164.0
1376,E3,150.5,0.5,95,164.0
1377,B3,150.5,0.5,95,164.0
1378,G3,150.5,0.5,95,164.0
1379,C3,150.5,0.5,95,164.0
1380,E3,151.0,0.25,95,164.0
1381,E2,151.0,0.5,95,164.0
1382,B-2,151.0,0.5,95,164.0
1383,C4,151.0,0.5,95,164.0
1384,G3,151.0,0.5,95,164.0
1385,C3,151.0,0.5,95,164.0
1386,E3,151.25,0.25,95,164.0
1387,E2,151.5,0.5,95,164.0
1388,C2,151.5,0.5,95,164.0
1389,B3,151.5,0.5,95,164.0
1390,E3,151.5,0.5,95,164.0
1391,E3,152.0,0.25,95,164.0
1392,E2,152.0,0.5,95,164.0
1393,B3,152.0,0.5,95,164.0
1394,E3,152.0,0.5,95,164.0
1395,B-2,152.0,1.0,95,164.0
1396,D2,152.0,1.0,95,164.0
1397,E3,152.25,0.25,95,164.0
1398,E2,152.5,0.5,95,164.0
1399,A3,152.5,0.5,95,164.0
1400,E3,152.5,0.5,95,164.0
1401,B3,152.5,0.5,95,164.0
1402,E3,152.5,0.5,95,164.0
1403,E3,153.0,0.25,95,164.0
1404,E2,153.0,0.5,95,164.0
1405,B-2,153.0,0.5,95,164.0
1406,B3,153.0,0.5,95,164.0
1407,E3,153.0,0.5,95,164.0
1408,E3,153.25,0.25,95,164.0
1409,E3,153.5,0.25,95,164.0
1410,E2,153.5,0.5,95,164.0
1411,C2,153.5,0.5,95,164.0
1412,B3,153.5,0.5,95,164.0
1413,E3,153.5,0.5,95,164.0
1414,E3,153.75,0.25,95,164.0
1415,E3,154.0,0.25,95,164.0
1416,E3,154.0,0.25,95,164.0
1417,E2,154.0,0.5,95,164.0
1418,B-2,154.0,1.0,95,164.0
1419,D2,154.0,1.0,95,164.0
1420,E3,154.25,0.25,95,164.0
1421,E3,154.25,0.25,95,164.0
1422,G2,154.5,0.5,95,164.0
1423,B3,154.5,0.5,95,164.0
1424,E3,154.5,0.5,95,164.0
1425,A3,154.5,0.5,95,164.0
1426,E3,154.5,0.5,95,164.0
1427,E3,155.0,0.25,95,164.0
1428,E2,155.0,0.5,95,164.0
1429,B-2,155.0,0.5,95,164.0
1430,B3,155.0,0.5,95,164.0
1431,E3,155.0,0.5,95,164.0
1432,E3,155.25,0.25,95,164.0
1433,E3,155.5,0.25,95,164.0
1434,C3,155.5,0.5,95,164.0
1435,C2,155.5,0.5,95,164.0
1436,B3,155.5,0.5,95,164.0
1437,E3,155.5,0.5,95,164.0
1438,E3,155.75,0.25,95,164.0
1439,E3,156.0,0.5,95,164.0
1440,E3,156.0,0.25,95,164.0
1441,C3,156.0,0.5,95,164.0
1442,B-2,156.0,0.5,95,164.0
1443,D2,156.0,0.5,95,164.0
1444,E3,156.25,0.25,95,164.0
1445,C3,156.5,0.5,95,164.0
1446,C#3,156.5,0.5,95,164.0
1447,A3,156.5,0.5,95,164.0
1448,E3,156.5,0.5,95,164.0
1449,B3,156.5,0.5,95,164.0
1450,E3,156.5,0.5,95,164.0
1451,E3,157.0,0.25,95,164.0
1452,C3,157.0,0.5,95,164.0
1453,B3,157.0,0.5,95,164.0
1454,E3,157.0,0.5,95,164.0
1455,E3,157.25,0.25,95,164.0
1456,C3,157.5,0.5,95,164.0
1457,C2,157.5,0.5,95,164.0
1458,B3,157.5,0.5,95,164.0
1459,E3,157.5,0.5,95,164.0
1460,E3,158.0,0.5,95,164.0
1461,C3,158.0,0.5,95,164.0
1462,C4,158.0,0.5,95,164.0
1463,G3,158.0,0.5,95,164.0
1464,C3,158.0,0.5,95,164.0
1465,B-2,158.0,1.0,95,164.0
1466,D2,158.0,1.0,95,164.0
1467,C3,158.5,0.5,95,164.0
1468,C4,158.5,0.5,95,164.0
1469,G3,158.5,0.5,95,164.0
1470,C3,158.5,0.5,95,164.0
1471,A3,158.5,0.5,95,164.0
1472,E3,158.5,0.5,95,164.0
1473,C3,159.0,0.25,95,164.0
1474,C3,159.0,0.5,95,164.0
1475,B3,159.0,0.5,95,164.0
1476,E3,159.0,0.5,95,164.0
1477,B-2,159.0,0.5,95,164.0
1478,C2,159.0,0.5,95,164.0
1479,C3,159.25,0.25,95,164.0
1480,C3,159.5,0.5,95,164.0
1481,D2,159.5,0.5,95,164.0
1482,C4,159.5,0.5,95,164.0
1483,G3,159.5,0.5,95,164.0
1484,C3,159.5,0.5,95,164.0
1485,C3,160.0,0.25,95,164.0
1486,G3,160.0,0.5,95,164.0
1487,B-2,160.0,0.5,95,164.0
1488,C4,160.0,0.5,95,164.0
1489,G3,160.0,0.5,95,164.0
1490,C3,160.0,0.5,95,164.0
1491,C3,160.25,0.25,95,164.0
1492,G3,160.5,0.5,95,164.0
1493,C2,160.5,0.5,95,164.0
1494,B3,160.5,0.5,95,164.0
1495,G3,160.5,0.5,95,164.0
1496,C3,160.5,0.5,95,164.0
1497,C4,160.5,0.5,95,164.0
1498,G3,160.5,0.5,95,164.0
1499,C3,160.5,0.5,95,164.0
1500,C3,161.0,0.25,95,164.0
1501,G3,161.0,0.5,95,164.0
1502,C4,161.0,0.5,95,164.0
1503,G3,161.0,0.5,95,164.0
1504,C3,161.0,0.5,95,164.0
1505,B-2,161.0,1.0,95,164.0
1506,D2,161.0,1.0,95,164.0
1507,C3,161.25,0.25,95,164.0
1508,C3,161.5,0.25,95,164.0
1509,G3,161.5,0.5,95,164.0
1510,C4,161.5,0.5,95,164.0
1511,G3,161.5,0.5,95,164.0
1512,C3,161.5,0.5,95,164.0
1513,C3,161.75,0.25,95,164.0
1514,C3,162.0,0.25,95,164.0
1515,C3,162.0,0.25,95,164.0
1516,G3,162.0,0.5,95,164.0
1517,B-2,162.0,0.5,95,164.0
1518,C2,162.0,0.5,95,164.0
1519,C3,162.25,0.25,95,164.0
1520,C3,162.25,0.25,95,164.0
1521,G3,162.5,0.5,95,164.0
1522,D2,162.5,0.5,95,164.0
1523,D4,162.5,0.5,95,164.0
1524,G3,162.5,0.5,95,164.0
1525,C3,162.5,0.5,95,164.0
1526,B3,162.5,0.5,95,164.0
1527,G3,162.5,0.5,95,164.0
1528,C3,162.5,0.5,95,164.0
1529,C3,163.0,0.25,95,164.0
1530,G3,163.0,0.5,95,164.0
1531,B-2,163.0,0.5,95,164.0
1532,C4,163.0,0.5,95,164.0
1533,G3,163.0,0.5,95,164.0
1534,C3,163.0,0.5,95,164.0
1535,C3,163.25,0.25,95,164.0
1536,C3,163.5,0.25,95,164.0
1537,B-2,163.5,0.5,95,164.0
1538,D2,163.5,0.25,95,164.0
1539,C4,163.5,0.5,95,164.0
1540,G3,163.5,0.5,95,164.0
1541,C3,163.5,0.5,95,164.0
1542,C3,163.75,0.25,95,164.0
1543,D2,163.75,0.25,95,164.0
1544,C3,164.0,0.25,95,164.0
1545,C3,164.0,0.25,95,164.0
1546,B-2,164.0,0.5,95,164.0
1547,D2,164.0,0.25,95,164.0
1548,C3,164.25,0.25,95,164.0
1549,C3,164.25,0.25,95,164.0
1550,D2,164.25,0.25,95,164.0
1551,B-2,164.5,0.5,95,164.0
1552,C#3,164.5,0.5,95,164.0
1553,B3,164.5,0.5,95,164.0
1554,G3,164.5,0.5,95,164.0
1555,C3,164.5,0.5,95,164.0
1556,D4,164.5,0.5,95,164.0
1557,G3,164.5,0.5,95,164.0
1558,C3,164.5,0.5,95,164.0
1559,C3,165.0,0.25,95,164.0
1560,B-2,165.0,0.5,95,164.0
1561,C#3,165.0,0.5,95,164.0
1562,C4,165.0,0.5,95,164.0
1563,G3,165.0,0.5,95,164.0
1564,C3,165.0,0.5,95,164.0
1565,C3,165.25,0.25,95,164.0
1566,B-2,165.5,0.5,95,164.0
1567,C2,165.5,0.5,95,164.0
1568,C4,165.5,0.5,95,164.0
1569,G3,165.5,0.5,95,164.0
1570,C3,165.5,0.5,95,164.0
1571,C3,166.0,0.25,95,164.0
1572,B-2,166.0,0.5,95,164.0
1573,F3,166.0,0.5,95,164.0
1574,B-2,166.0,0.5,95,164.0
1575,E-3,166.0,1.0,95,164.0
1576,D2,166.0,1.0,95,164.0
1577,C3,166.25,0.25,95,164.0
1578,B-2,166.5,0.5,95,164.0
1579,F3,166.5,0.5,95,164.0
1580,B-2,166.5,0.5,95,164.0
1581,B3,166.5,0.5,95,164.0
1582,G3,166.5,0.5,95,164.0
1583,C3,166.5,0.5,95,164.0
1584,B-2,167.0,0.25,95,164.0
1585,B-2,167.0,0.5,95,164.0
1586,E-3,167.0,0.5,95,164.0
1587,C4,167.0,0.5,95,164.0
1588,G3,167.0,0.5,95,164.0
1589,C3,167.0,0.5,95,164.0
1590,B-2,167.25,0.25,95,164.0
1591,B-2,167.5,0.25,95,164.0
1592,B-2,167.5,0.5,95,164.0
1593,C2,167.5,0.5,95,164.0
1594,B-2,167.75,0.25,95,164.0
1595,B-2,168.0,0.25,95,164.0
1596,B-2,168.0,0.5,95,164.0
1597,F3,168.0,0.5,95,164.0
1598,B-2,168.0,0.5,95,164.0
1599,E-3,168.0,1.0,95,164.0
1600,D2,168.0,1.0,95,164.0
1601,B-2,168.25,0.25,95,164.0
1602,B-2,168.5,0.25,95,164.0
1603,B-2,168.5,0.5,95,164.0
1604,F3,168.5,0.5,95,164.0
1605,B-2,168.5,0.5,95,164.0
1606,B-2,168.75,0.25,95,164.0
1607,B-2,169.0,0.25,95,164.0
1608,B-2,169.0,0.25,95,164.0
1609,B-2,169.0,0.5,95,164.0
1610,E-3,169.0,0.5,95,164.0
1611,B-2,169.25,0.25,95,164.0
1612,B-2,169.25,0.25,95,164.0
1613,B-2,169.5,0.25,95,164.0
1614,B-2,169.5,0.25,95,164.0
1615,B-2,169.5,0.5,95,164.0
1616,C2,169.5,0.5,95,164.0
1617,B-2,169.75,0.25,95,164.0
1618,B-2,169.75,0.25,95,164.0
1619,B-2,170.0,0.25,95,164.0
1620,B-2,170.0,0.25,95,164.0
1621,B-2,170.0,0.5,95,164.0
1622,E-3,170.0,1.0,95,164.0
1623,D2,170.0,1.0,95,164.0
1624,B-2,170.25,0.25,95,164.0
1625,B-2,170.25,0.25,95,164.0
1626,B-2,170.5,0.25,95,164.0
1627,B-2,170.5,0.25,95,164.0
1628,A2,170.5,0.5,95,164.0
1629,B-2,170.75,0.25,95,164.0
1630,B-2,170.75,0.25,95,164.0
1631,B-2,171.0,0.25,95,164.0
1632,B-2,171.0,0.25,95,164.0
1633,G2,171.0,0.5,95,164.0
1634,E-3,171.0,0.5,95,164.0
1635,B-2,171.25,0.25,95,164.0
1636,B-2,171.25,0.25,95,164.0
1637,B-2,171.5,0.25,95,164.0
1638,B-2,171.5,0.25,95,164.0
1639,E2,171.5,0.5,95,164.0
1640,E-3,171.5,0.5,95,164.0
1641,C2,171.5,0.5,95,164.0
1642,B-2,171.75,0.25,95,164.0
1643,B-2,171.75,0.25,95,164.0
1644,B-2,172.0,0.25,95,164.0
1645,B-2,172.0,0.25,95,164.0
1646,E2,172.0,0.5,95,164.0
1647,D2,172.0,0.5,95,164.0
1648,B-2,172.25,0.25,95,164.0
1649,B-2,172.25,0.25,95,164.0
1650,B-2,172.5,0.25,95,164.0
1651,E2,172.5,0.5,95,164.0
1652,C#3,172.5,0.5,95,164.0
1653,F3,172.5,0.5,95,164.0
1654,B-2,172.5,0.5,95,164.0
1655,B-2,172.75,0.25,95,164.0
1656,B-2,173.0,0.25,95,164.0
1657,E2,173.0,0.5,95,164.0
1658,E3,173.0,0.5,95,164.0
1659,A2,173.0,0.5,95,164.0
1660,B-2,173.25,0.25,95,164.0
1661,B-2,173.5,0.25,95,164.0
1662,E2,173.5,0.5,95,164.0
1663,C2,173.5,0.5,95,164.0
1664,D3,173.5,0.5,95,164.0
1665,G2,173.5,0.5,95,164.0
1666,B-2,173.75,0.25,95,164.0
1667,B-2,174.0,0.25,95,164.0
1668,E2,174.0,0.5,95,164.0
1669,B2,174.0,0.5,95,164.0
1670,E2,174.0,0.5,95,164.0
1671,E-3,174.0,1.0,95,164.0
1672,D2,174.0,1.0,95,164.0
1673,B-2,174.25,0.25,95,164.0
1674,E2,174.5,0.5,95,164.0
1675,F3,174.5,0.5,95,164.0
1676,B-2,174.5,0.5,95,164.0
1677,E2,175.0,0.5,95,164.0
1678,E-3,175.0,0.5,95,164.0
1679,B2,175.0,0.5,95,164.0
1680,E2,175.0,0.5,95,164.0
1681,E3,175.0,0.5,95,164.0
1682,A2,175.0,0.5,95,164.0
1683,E2,175.5,0.25,95,164.0
1684,E2,175.5,0.5,95,164.0
1685,C2,175.5,0.5,95,164.0
1686,D3,175.5,0.5,95,164.0
1687,G2,175.5,0.5,95,164.0
1688,E2,175.75,0.25,95,164.0
1689,E2,176.0,0.25,95,164.0
1690,E2,176.0,0.5,95,164.0
1691,B2,176.0,0.5,95,164.0
1692,E2,176.0,0.5,95,164.0
1693,E-3,176.0,1.0,95,164.0
1694,D2,176.0,1.0,95,164.0
1695,E2,176.25,0.25,95,164.0
1696,E2,176.5,0.25,95,164.0
1697,E2,176.5,0.5,95,164.0
1698,E2,176.75,0.25,95,164.0
1699,E2,177.0,0.25,95,164.0
1700,E2,177.0,0.5,95,164.0
1701,E-3,177.0,0.5,95,164.0
1702,B2,177.0,0.5,95,164.0
1703,E2,177.0,0.5,95,164.0
1704,E2,177.25,0.25,95,164.0
1705,E2,177.5,0.25,95,164.0
1706,E2,177.5,0.25,95,164.0
1707,E2,177.5,0.5,95,164.0
1708,C2,177.5,0.5,95,164.0
1709,E2,177.75,0.25,95,164.0
1710,E2,177.75,0.25,95,164.0
1711,E2,178.0,0.25,95,164.0
1712,E2,178.0,0.25,95,164.0
1713,E2,178.0,0.5,95,164.0
1714,E-3,178.0,1.0,95,164.0
1715,D2,178.0,1.0,95,164.0
1716,E2,178.25,0.25,95,164.0
1717,E2,178.25,0.25,95,164.0
1718,E2,178.5,0.25,95,164.0
1719,E2,178.5,0.25,95,164.0
1720,G2,178.5,0.5,95,164.0
1721,E2,178.75,0.25,95,164.0
1722,E2,178.75,0.25,95,164.0
1723,E2,179.0,0.25,95,164.0
1724,E2,179.0,0.25,95,164.0
1725,A2,179.0,0.5,95,164.0
1726,E-3,179.0,0.5,95,164.0
1727,E2,179.25,0.25,95,164.0
1728,E2,179.25,0.25,95,164.0
1729,E2,179.5,0.25,95,164.0
1730,E2,179.5,0.25,95,164.0
1731,B-2,179.5,0.5,95,164.0
1732,E-3,179.5,0.5,95,164.0
1733,C2,179.5,0.5,95,164.0
1734,E2,179.75,0.25,95,164.0
1735,E2,179.75,0.25,95,164.0
1736,E2,180.0,0.25,95,164.0
1737,E2,180.0,0.25,95,164.0
1738,B-2,180.0,0.5,95,164.0
1739,D2,180.0,0.5,95,164.0
1740,E2,180.25,0.25,95,164.0
1741,E2,180.25,0.25,95,164.0
1742,E2,180.5,0.25,95,164.0
1743,E2,180.5,0.25,95,164.0
1744,B-2,180.5,0.5,95,164.0
1745,C#3,180.5,0.5,95,164.0
1746,E2,180.75,0.25,95,164.0
1747,E2,180.75,0.25,95,164.0
1748,E2,181.0,0.25,95,164.0
1749,B-2,181.0,0.5,95,164.0
1750,B2,181.0,0.5,95,164.0
1751,E2,181.0,0.5,95,164.0
1752,E2,181.25,0.25,95,164.0
1753,E2,181.5,0.25,95,164.0
1754,B-2,181.5,0.5,95,164.0
1755,C2,181.5,0.5,95,164.0
1756,D3,181.5,0.5,95,164.0
1757,G2,181.5,0.5,95,164.0
1758,E2,181.75,0.25,95,164.0
1759,E2,182.0,0.25,95,164.0
1760,B-2,182.0,0.5,95,164.0
1761,E3,182.0,0.5,95,164.0
1762,A2,182.0,0.5,95,164.0
1763,E-3,182.0,1.0,95,164.0
1764,D2,182.0,1.0,95,164.0
1765,E2,182.25,0.25,95,164.0
1766,E2,182.5,0.25,95,164.0
1767,B-2,182.5,0.5,95,164.0
1768,F3,182.5,0.5,95,164.0
1769,B-2,182.5,0.5,95,164.0
1770,E2,182.75,0.25,95,164.0
1771,B-2,183.0,0.5,95,164.0
1772,E-3,183.0,0.5,95,164.0
1773,B2,183.0,0.5,95,164.0
1774,E2,183.0,0.5,95,164.0
1775,B-2,183.5,0.5,95,164.0
1776,C2,183.5,0.5,95,164.0
1777,F3,183.5,0.5,95,164.0
1778,B-2,183.5,0.5,95,164.0
1779,D3,183.5,0.5,95,164.0
1780,G2,183.5,0.5,95,164.0
1781,B-2,184.0,0.25,95,164.0
1782,B-2,184.0,0.5,95,164.0
1783,E3,184.0,0.5,95,164.0
1784,A2,184.0,0.5,95,164.0
1785,E-3,184.0,1.0,95,164.0
1786,D2,184.0,1.0,95,164.0
1787,B-2,184.25,0.25,95,164.0
1788,B-2,184.5,0.25,95,164.0
1789,B-2,184.5,0.5,95,164.0
1790,F3,184.5,0.5,95,164.0
1791,B-2,184.5,0.5,95,164.0
1792,B-2,184.75,0.25,95,164.0
1793,B-2,185.0,0.25,95,164.0
1794,B-2,185.0,0.5,95,164.0
1795,E-3,185.0,0.5,95,164.0
1796,B-2,185.25,0.25,95,164.0
1797,B-2,185.5,0.25,95,164.0
1798,B-2,185.5,0.5,95,164.0
1799,C2,185.5,0.5,95,164.0
1800,F3,185.5,0.5,95,164.0
1801,B-2,185.5,0.5,95,164.0
1802,B-2,185.75,0.25,95,164.0
1803,B-2,186.0,0.25,95,164.0
1804,B-2,186.0,0.25,95,164.0
1805,B-2,186.0,0.5,95,164.0
1806,E-3,186.0,1.0,95,164.0
1807,D2,186.0,1.0,95,164.0
1808,B-2,186.25,0.25,95,164.0
1809,B-2,186.25,0.25,95,164.0
1810,B-2,186.5,0.25,95,164.0
1811,B-2,186.5,0.25,95,164.0
1812,A2,186.5,0.5,95,164.0
1813,B-2,186.75,0.25,95,164.0
1814,B-2,186.75,0.25,95,164.0
1815,B-2,187.0,0.25,95,164.0
1816,B-2,187.0,0.25,95,164.0
1817,G2,187.0,0.5,95,164.0
1818,E-3,187.0,0.5,95,164.0
1819,B-2,187.25,0.25,95,164.0
1820,B-2,187.25,0.25,95,164.0
1821,B-2,187.5,0.25,95,164.0
1822,B-2,187.5,0.25,95,164.0
1823,E2,187.5,0.5,95,164.0
1824,E-3,187.5,0.5,95,164.0
1825,C2,187.5,0.5,95,164.0
1826,B-2,187.75,0.25,95,164.0
1827,B-2,187.75,0.25,95,164.0
1828,B-2,188.0,0.25,95,164.0
1829,B-2,188.0,0.25,95,164.0
1830,E2,188.0,0.5,95,164.0
1831,D2,188.0,0.5,95,164.0
1832,B-2,188.25,0.25,95,164.0
1833,B-2,188.25,0.25,95,164.0
1834,B-2,188.5,0.25,95,164.0
1835,B-2,188.5,0.25,95,164.0
1836,E2,188.5,0.5,95,164.0
1837,C#3,188.5,0.5,95,164.0
1838,B-2,188.75,0.25,95,164.0
1839,B-2,188.75,0.25,95,164.0
1840,B-2,189.0,0.25,95,164.0
1841,B-2,189.0,0.25,95,164.0
1842,E2,189.0,0.5,95,164.0
1843,B-2,189.25,0.25,95,164.0
1844,B-2,189.25,0.25,95,164.0
1845,B-2,189.5,0.25,95,164.0
1846,E2,189.5,0.5,95,164.0
1847,C2,189.5,0.5,95,164.0
1848,F3,189.5,0.5,95,164.0
1849,B-2,189.5,0.5,95,164.0
1850,B-2,189.75,0.25,95,164.0
1851,B-2,190.0,0.25,95,164.0
1852,E2,190.0,0.5,95,164.0
1853,E3,190.0,0.5,95,164.0
1854,A2,190.0,0.5,95,164.0
1855,E-3,190.0,0.5,95,164.0
1856,D2,190.0,0.5,95,164.0
1857,B-2,190.25,0.25,95,164.0
1858,B-2,190.5,0.25,95,164.0
1859,E2,190.5,0.5,95,164.0
1860,B2,190.5,167/1000,95,164.0
1861,D3,190.5,0.5,95,164.0
1862,G2,190.5,0.5,95,164.0
1863,B2,190.667,167/1000,95,164.0
1864,B-2,190.75,0.25,95,164.0
1865,B2,190.833,167/1000,95,164.0
1866,B-2,191.0,0.25,95,164.0
1867,E2,191.0,0.5,95,164.0
1868,D2,191.0,0.5,95,164.0
1869,B2,191.0,0.5,95,164.0
1870,E2,191.0,0.5,95,164.0
1871,B-2,191.25,0.25,95,164.0
1872,E2,191.5,0.5,95,164.0
1873,A2,191.5,0.5,95,164.0
1874,F3,191.5,0.5,95,164.0
1875,B-2,191.5,0.5,95,164.0
1876,E2,192.0,0.5,95,164.0
1877,G2,192.0,0.5,95,164.0
1878,B2,192.0,0.5,95,164.0
1879,E2,192.0,0.5,95,164.0
1880,E3,192.0,0.5,95,164.0
1881,A2,192.0,0.5,95,164.0
1882,E2,192.5,0.25,95,164.0
1883,F2,192.5,0.5,95,164.0
1884,D3,192.5,0.5,95,164.0
1885,G2,192.5,0.5,95,164.0
1886,E2,192.75,0.25,95,164.0
1887,E2,193.0,0.25,95,164.0
1888,D2,193.0,0.5,95,164.0
1889,B2,193.0,0.5,95,164.0
1890,E2,193.0,0.5,95,164.0
1891,E2,193.25,0.25,95,164.0
1892,E2,193.5,0.25,95,164.0
1893,E2,193.75,0.25,95,164.0
1894,E2,194.0,0.25,95,164.0
1895,B2,194.0,0.5,95,164.0
1896,E2,194.0,0.5,95,164.0
1897,E2,194.25,0.25,95,164.0
1898,E2,194.5,0.25,95,164.0
1899,E2,194.5,0.25,95,164.0
1900,E2,194.75,0.25,95,164.0
1901,E2,194.75,0.25,95,164.0
1902,E2,195.0,0.25,95,164.0
1903,E2,195.0,0.25,95,164.0
1904,E2,195.25,0.25,95,164.0
1905,E2,195.25,0.25,95,164.0
1906,E2,195.5,0.25,95,164.0
1907,E2,195.5,0.25,95,164.0
1908,A2,195.5,0.5,95,164.0
1909,E2,195.75,0.25,95,164.0
1910,E2,195.75,0.25,95,164.0
1911,E2,196.0,0.25,95,164.0
1912,A2,196.0,0.5,95,164.0
1913,E2,196.25,0.25,95,164.0
1914,E2,196.5,0.25,95,164.0
1915,A2,196.5,0.5,95,164.0
1916,C#3,196.5,0.5,95,164.0
1917,C2,196.5,0.5,95,164.0
1918,E2,196.75,0.25,95,164.0
1919,E2,197.0,0.25,95,164.0
1920,A2,197.0,0.5,95,164.0
1921,E2,197.25,0.25,95,164.0
1922,E2,197.5,0.25,95,164.0
1923,A2,197.5,0.5,95,164.0
1924,C2,197.5,0.25,95,164.0
1925,E2,197.75,0.25,95,164.0
1926,C2,197.75,0.25,95,164.0
1927,A2,198.0,0.5,95,164.0
1928,B2,198.0,0.5,95,164.0
1929,E2,198.0,0.5,95,164.0
1930,B-2,198.0,0.5,95,164.0
1931,D2,198.0,0.5,95,164.0
1932,A2,198.5,0.5,95,164.0
1933,C2,198.5,0.25,95,164.0
1934,C2,198.75,0.25,95,164.0
1935,A2,199.0,0.5,95,164.0
1936,B-2,199.0,0.5,95,164.0
1937,A2,199.5,0.5,95,164.0
1938,C2,199.5,0.25,95,164.0
1939,A4,199.5,0.5,95,164.0
1940,A3,199.5,0.5,95,164.0
1941,C2,199.75,0.25,95,164.0
1942,A2,200.0,0.5,95,164.0
1943,A4,200.0,4.0,95,164.0
1944,A3,200.0,4.0,95,164.0
1945,B-2,200.0,0.5,95,164.0
1946,D2,200.0,0.5,95,164.0
1947,A2,200.5,0.5,95,164.0
1948,C2,200.5,0.25,95,164.0
1949,C2,200.75,0.25,95,164.0
1950,A2,201.0,0.5,95,164.0
1951,B-2,201.0,0.5,95,164.0
1952,A2,201.5,0.5,95,164.0
1953,C2,201.5,0.25,95,164.0
1954,E3,201.5,0.5,95,164.0
1955,A2,201.5,0.5,95,164.0
1956,C2,201.75,0.25,95,164.0
1957,A2,202.0,0.5,95,164.0
1958,E3,202.0,0.5,95,164.0
1959,A2,202.0,0.5,95,164.0
1960,B-2,202.0,0.5,95,164.0
1961,D2,202.0,0.5,95,164.0
1962,A2,202.5,0.25,95,164.0
1963,A2,202.5,0.5,95,164.0
1964,C2,202.5,0.25,95,164.0
1965,A2,202.75,0.25,95,164.0
1966,C2,202.75,0.25,95,164.0
1967,A2,203.0,0.5,95,164.0
1968,B-2,203.0,0.5,95,164.0
1969,E3,203.0,0.5,95,164.0
1970,A2,203.0,0.5,95,164.0
1971,A2,203.5,0.25,95,164.0
1972,F2,203.5,0.5,95,164.0
1973,C2,203.5,0.25,95,164.0
1974,A2,203.75,0.25,95,164.0
1975,C2,203.75,0.25,95,164.0
1976,F2,204.0,0.5,95,164.0
1977,D2,204.0,0.5,95,164.0
1978,E3,204.0,0.5,95,164.0
1979,A2,204.0,0.5,95,164.0
1980,A2,204.5,0.25,95,164.0
1981,F2,204.5,0.5,95,164.0
1982,C#3,204.5,0.5,95,164.0
1983,C2,204.5,0.5,95,164.0
1984,A2,204.75,0.25,95,164.0
1985,F2,205.0,0.5,95,164.0
1986,E3,205.0,0.5,95,164.0
1987,A2,205.0,0.5,95,164.0
1988,A2,205.5,0.25,95,164.0
1989,F2,205.5,0.5,95,164.0
1990,C2,205.5,0.25,95,164.0
1991,A2,205.75,0.25,95,164.0
1992,C2,205.75,0.25,95,164.0
1993,F2,206.0,0.5,95,164.0
1994,E3,206.0,0.5,95,164.0
1995,A2,206.0,0.5,95,164.0
1996,B-2,206.0,0.5,95,164.0
1997,D2,206.0,0.5,95,164.0
1998,A2,206.5,0.25,95,164.0
1999,F2,206.5,0.5,95,164.0
2000,C2,206.5,0.25,95,164.0
2001,A2,206.75,0.25,95,164.0
2002,C2,206.75,0.25,95,164.0
2003,F2,207.0,0.5,95,164.0
2004,B-2,207.0,0.5,95,164.0
2005,E3,207.0,0.5,95,164.0
2006,A2,207.0,0.5,95,164.0
2007,A2,207.5,0.25,95,164.0
2008,F2,207.5,0.5,95,164.0
2009,C2,207.5,0.25,95,164.0
2010,A4,207.5,3.5,95,164.0
2011,A3,207.5,3.5,95,164.0
2012,A2,207.75,0.25,95,164.0
2013,C2,207.75,0.25,95,164.0
2014,F2,208.0,0.5,95,164.0
2015,E3,208.0,0.5,95,164.0
2016,A2,208.0,0.5,95,164.0
2017,B-2,208.0,0.5,95,164.0
2018,D2,208.0,0.5,95,164.0
2019,A2,208.5,0.25,95,164.0
2020,F2,208.5,0.5,95,164.0
2021,C2,208.5,0.25,95,164.0
2022,A2,208.75,0.25,95,164.0
2023,C2,208.75,0.25,95,164.0
2024,F2,209.0,0.5,95,164.0
2025,B-2,209.0,0.5,95,164.0
2026,E3,209.0,0.5,95,164.0
2027,A2,209.0,0.5,95,164.0
2028,F2,209.5,0.5,95,164.0
2029,C2,209.5,0.25,95,164.0
2030,C3,209.5,0.5,95,164.0
2031,F2,209.5,0.5,95,164.0
2032,C2,209.75,0.25,95,164.0
2033,F2,210.0,0.5,95,164.0
2034,B-2,210.0,0.5,95,164.0
2035,D2,210.0,0.5,95,164.0
2036,F2,210.5,0.5,95,164.0
2037,C2,210.5,0.25,95,164.0
2038,C3,210.5,0.5,95,164.0
2039,F2,210.5,0.5,95,164.0
2040,C2,210.75,0.25,95,164.0
2041,F2,211.0,0.25,95,164.0
2042,F2,211.0,0.5,95,164.0
2043,B-2,211.0,0.5,95,164.0
2044,C5,211.0,0.5,95,164.0
2045,C4,211.0,0.5,95,164.0
2046,F2,211.25,0.25,95,164.0
2047,G2,211.5,0.5,95,164.0
2048,C2,211.5,0.25,95,164.0
2049,C3,211.5,0.5,95,164.0
2050,F2,211.5,0.5,95,164.0
2051,C2,211.75,0.25,95,164.0
2052,F2,212.0,0.25,95,164.0
2053,G2,212.0,0.5,95,164.0
2054,D2,212.0,0.5,95,164.0
2055,F2,212.25,0.25,95,164.0
2056,G2,212.5,0.5,95,164.0
2057,C3,212.5,0.5,95,164.0
2058,F2,212.5,0.5,95,164.0
2059,C#3,212.5,0.5,95,164.0
2060,C2,212.5,0.5,95,164.0
2061,F2,213.0,0.25,95,164.0
2062,G2,213.0,0.5,95,164.0
2063,F2,213.25,0.25,95,164.0
2064,G2,213.5,0.5,95,164.0
2065,C2,213.5,0.25,95,164.0
2066,C3,213.5,0.5,95,164.0
2067,F2,213.5,0.5,95,164.0
2068,C2,213.75,0.25,95,164.0
2069,F2,214.0,0.25,95,164.0
2070,G2,214.0,0.5,95,164.0
2071,B-2,214.0,0.5,95,164.0
2072,D2,214.0,0.5,95,164.0
2073,F2,214.25,0.25,95,164.0
2074,G2,214.5,0.5,95,164.0
2075,C2,214.5,0.25,95,164.0
2076,C3,214.5,0.5,95,164.0
2077,F2,214.5,0.5,95,164.0
2078,C2,214.75,0.25,95,164.0
2079,F2,215.0,0.25,95,164.0
2080,G2,215.0,0.5,95,164.0
2081,B-2,215.0,0.5,95,164.0
2082,F2,215.25,0.25,95,164.0
2083,G2,215.5,0.5,95,164.0
2084,C2,215.5,0.25,95,164.0
2085,C3,215.5,0.5,95,164.0
2086,F2,215.5,0.5,95,164.0
2087,C2,215.75,0.25,95,164.0
2088,F2,216.0,0.25,95,164.0
2089,G2,216.0,0.5,95,164.0
2090,B-2,216.0,0.5,95,164.0
2091,D2,216.0,0.5,95,164.0
2092,F2,216.25,0.25,95,164.0
2093,G2,216.5,0.5,95,164.0
2094,C2,216.5,0.25,95,164.0
2095,C3,216.5,0.5,95,164.0
2096,F2,216.5,0.5,95,164.0
2097,C2,216.75,0.25,95,164.0
2098,F2,217.0,0.25,95,164.0
2099,G2,217.0,0.5,95,164.0
2100,B-2,217.0,0.5,95,164.0
2101,F2,217.25,0.25,95,164.0
2102,G2,217.5,0.5,95,164.0
2103,C2,217.5,0.25,95,164.0
2104,C3,217.5,0.5,95,164.0
2105,F2,217.5,0.5,95,164.0
2106,C2,217.75,0.25,95,164.0
2107,G2,218.0,0.5,95,164.0
2108,D3,218.0,0.5,95,164.0
2109,G2,218.0,0.5,95,164.0
2110,B-2,218.0,0.5,95,164.0
2111,D2,218.0,0.5,95,164.0
2112,G2,218.5,0.5,95,164.0
2113,C2,218.5,0.25,95,164.0
2114,C2,218.75,0.25,95,164.0
2115,G2,219.0,0.5,95,164.0
2116,B-2,219.0,0.5,95,164.0
2117,C5,219.0,4.0,95,164.0
2118,C4,219.0,4.0,95,164.0
2119,D3,219.0,0.5,95,164.0
2120,G2,219.0,0.5,95,164.0
2121,G2,219.5,0.25,95,164.0
2122,A2,219.5,0.5,95,164.0
2123,C2,219.5,0.25,95,164.0
2124,G2,219.75,0.25,95,164.0
2125,C2,219.75,0.25,95,164.0
2126,A2,220.0,0.5,95,164.0
2127,D2,220.0,0.5,95,164.0
2128,D3,220.0,0.5,95,164.0
2129,G2,220.0,0.5,95,164.0
2130,G2,220.5,0.25,95,164.0
2131,A2,220.5,0.5,95,164.0
2132,C#3,220.5,0.5,95,164.0
2133,C2,220.5,0.5,95,164.0
2134,G2,220.75,0.25,95,164.0
2135,A2,221.0,0.5,95,164.0
2136,D3,221.0,0.5,95,164.0
2137,G2,221.0,0.5,95,164.0
2138,G2,221.5,0.25,95,164.0
2139,A2,221.5,0.5,95,164.0
2140,C2,221.5,0.25,95,164.0
2141,G2,221.75,0.25,95,164.0
2142,C2,221.75,0.25,95,164.0
2143,A2,222.0,0.5,95,164.0
2144,D3,222.0,0.5,95,164.0
2145,G2,222.0,0.5,95,164.0
2146,B-2,222.0,0.5,95,164.0
2147,D2,222.0,0.5,95,164.0
2148,G2,222.5,0.25,95,164.0
2149,A2,222.5,0.5,95,164.0
2150,C2,222.5,0.25,95,164.0
2151,G2,222.75,0.25,95,164.0
2152,C2,222.75,0.25,95,164.0
2153,A2,223.0,0.5,95,164.0
2154,B-2,223.0,0.5,95,164.0
2155,D3,223.0,0.5,95,164.0
2156,G2,223.0,0.5,95,164.0
2157,G2,223.5,0.25,95,164.0
2158,A2,223.5,0.5,95,164.0
2159,C2,223.5,0.25,95,164.0
2160,G2,223.75,0.25,95,164.0
2161,C2,223.75,0.25,95,164.0
2162,A2,224.0,0.5,95,164.0
2163,D3,224.0,0.5,95,164.0
2164,G2,224.0,0.5,95,164.0
2165,B-2,224.0,0.5,95,164.0
2166,D2,224.0,0.5,95,164.0
2167,G2,224.5,0.25,95,164.0
2168,C3,224.5,0.5,95,164.0
2169,D3,224.5,167/1000,95,164.0
2170,D3,224.667,167/1000,95,164.0
2171,G2,224.75,0.25,95,164.0
2172,B2,224.833,167/1000,95,164.0
2173,B2,225.0,0.5,95,164.0
2174,D2,225.0,0.5,95,164.0
2175,D3,225.0,0.5,95,164.0
2176,G2,225.0,0.5,95,164.0
2177,G2,225.5,0.25,95,164.0
2178,A2,225.5,0.5,95,164.0
2179,D2,225.5,0.5,95,164.0
2180,G2,225.75,0.25,95,164.0
2181,C3,226.0,0.5,95,164.0
2182,D2,226.0,0.5,95,164.0
2183,D3,226.0,0.5,95,164.0
2184,G2,226.0,0.5,95,164.0
2185,B2,226.5,0.5,95,164.0
2186,D2,226.5,0.5,95,164.0
2187,C5,226.5,3.5,95,164.0
2188,C4,226.5,3.5,95,164.0
2189,E3,226.5,0.5,95,164.0
2190,A2,226.5,0.5,95,164.0
2191,A2,227.0,0.5,95,164.0
2192,D2,227.0,0.5,95,164.0
2193,A2,227.5,0.5,95,164.0
2194,D2,227.5,0.25,95,164.0
2195,E3,227.5,0.5,95,164.0
2196,A2,227.5,0.5,95,164.0
2197,D2,227.75,0.25,95,164.0
2198,A2,228.0,0.25,95,164.0
2199,A2,228.0,0.5,95,164.0
2200,D2,228.0,0.25,95,164.0
2201,A2,228.25,0.25,95,164.0
2202,D2,228.25,0.25,95,164.0
2203,A2,228.5,0.5,95,164.0
2204,E3,228.5,0.5,95,164.0
2205,A2,228.5,0.5,95,164.0
2206,C#3,228.5,0.5,95,164.0
2207,C2,228.5,0.5,95,164.0
2208,A2,229.0,0.25,95,164.0
2209,A2,229.0,0.5,95,164.0
2210,A2,229.25,0.25,95,164.0
2211,A2,229.5,0.5,95,164.0
2212,C2,229.5,0.25,95,164.0
2213,E3,229.5,0.5,95,164.0
2214,A2,229.5,0.5,95,164.0
2215,C2,229.75,0.25,95,164.0
2216,A2,230.0,0.25,95,164.0
2217,A2,230.0,0.5,95,164.0
2218,B4,230.0,0.5,95,164.0
2219,B3,230.0,0.5,95,164.0
2220,B-2,230.0,0.5,95,164.0
2221,D2,230.0,0.5,95,164.0
2222,A2,230.25,0.25,95,164.0
2223,A2,230.5,0.5,95,164.0
2224,C2,230.5,0.25,95,164.0
2225,E3,230.5,0.5,95,164.0
2226,A2,230.5,0.5,95,164.0
2227,C2,230.75,0.25,95,164.0
2228,A2,231.0,0.25,95,164.0
2229,A2,231.0,0.5,95,164.0
2230,B-2,231.0,0.5,95,164.0
2231,A2,231.25,0.25,95,164.0
2232,A2,231.5,0.5,95,164.0
2233,C2,231.5,0.25,95,164.0
2234,E3,231.5,0.5,95,164.0
2235,A2,231.5,0.5,95,164.0
2236,C2,231.75,0.25,95,164.0
2237,C3,232.0,0.5,95,164.0
2238,A2,232.0,0.5,95,164.0
2239,B-2,232.0,0.5,95,164.0
2240,D2,232.0,0.5,95,164.0
2241,B2,232.5,0.5,95,164.0
2242,A2,232.5,0.5,95,164.0
2243,C2,232.5,0.25,95,164.0
2244,C2,232.75,0.25,95,164.0
2245,A2,233.0,0.5,95,164.0
2246,A2,233.0,0.5,95,164.0
2247,B-2,233.0,0.5,95,164.0
2248,C3,233.5,0.5,95,164.0
2249,A2,233.5,0.5,95,164.0
2250,C2,233.5,0.25,95,164.0
2251,C2,233.75,0.25,95,164.0
2252,B2,234.0,0.5,95,164.0
2253,A2,234.0,0.5,95,164.0
2254,B-2,234.0,0.5,95,164.0
2255,D2,234.0,0.5,95,164.0
2256,A2,234.5,0.5,95,164.0
2257,A2,234.5,0.5,95,164.0
2258,C2,234.5,0.25,95,164.0
2259,C2,234.75,0.25,95,164.0
2260,A2,235.0,0.5,95,164.0
2261,B-2,235.0,0.5,95,164.0
2262,E3,235.0,0.5,95,164.0
2263,A2,235.0,0.5,95,164.0
2264,F2,235.5,0.5,95,164.0
2265,C2,235.5,0.25,95,164.0
2266,C2,235.75,0.25,95,164.0
2267,F2,236.0,0.5,95,164.0
2268,D2,236.0,0.5,95,164.0
2269,E3,236.0,0.5,95,164.0
2270,A2,236.0,0.5,95,164.0
2271,A2,236.5,0.25,95,164.0
2272,F2,236.5,0.5,95,164.0
2273,C#3,236.5,0.5,95,164.0
2274,C2,236.5,0.5,95,164.0
2275,A2,236.75,0.25,95,164.0
2276,F2,237.0,0.5,95,164.0
2277,E3,237.0,0.5,95,164.0
2278,A2,237.0,0.5,95,164.0
2279,A2,237.5,0.25,95,164.0
2280,F2,237.5,0.5,95,164.0
2281,C2,237.5,0.25,95,164.0
2282,A2,237.75,0.25,95,164.0
2283,C2,237.75,0.25,95,164.0
2284,F2,238.0,0.5,95,164.0
2285,B4,238.0,4.0,95,164.0
2286,B3,238.0,4.0,95,164.0
2287,E3,238.0,0.5,95,164.0
2288,A2,238.0,0.5,95,164.0
2289,B-2,238.0,0.5,95,164.0
2290,D2,238.0,0.5,95,164.0
2291,A2,238.5,0.25,95,164.0
2292,F2,238.5,0.5,95,164.0
2293,C2,238.5,0.25,95,164.0
2294,A2,238.75,0.25,95,164.0
2295,C2,238.75,0.25,95,164.0
2296,F2,239.0,0.5,95,164.0
2297,B-2,239.0,0.5,95,164.0
2298,E3,239.0,0.5,95,164.0
2299,A2,239.0,0.5,95,164.0
2300,A2,239.5,0.25,95,164.0
2301,F2,239.5,0.5,95,164.0
2302,C2,239.5,0.25,95,164.0
2303,A2,239.75,0.25,95,164.0
2304,C2,239.75,0.25,95,164.0
2305,F2,240.0,0.5,95,164.0
2306,E3,240.0,0.5,95,164.0
2307,A2,240.0,0.5,95,164.0
2308,B-2,240.0,0.5,95,164.0
2309,D2,240.0,0.5,95,164.0
2310,A2,240.5,0.25,95,164.0
2311,F2,240.5,0.5,95,164.0
2312,C2,240.5,0.25,95,164.0
2313,A2,240.75,0.25,95,164.0
2314,C2,240.75,0.25,95,164.0
2315,F2,241.0,0.5,95,164.0
2316,B-2,241.0,0.5,95,164.0
2317,E3,241.0,0.5,95,164.0
2318,A2,241.0,0.5,95,164.0
2319,A2,241.5,0.25,95,164.0
2320,F2,241.5,0.5,95,164.0
2321,C2,241.5,0.25,95,164.0
2322,A2,241.75,0.25,95,164.0
2323,C2,241.75,0.25,95,164.0
2324,F2,242.0,0.5,95,164.0
2325,E3,242.0,0.5,95,164.0
2326,A2,242.0,0.5,95,164.0
2327,B-2,242.0,0.5,95,164.0
2328,D2,242.0,0.5,95,164.0
2329,A2,242.5,0.25,95,164.0
2330,F2,242.5,0.5,95,164.0
2331,C2,242.5,0.25,95,164.0
2332,A2,242.75,0.25,95,164.0
2333,C2,242.75,0.25,95,164.0
2334,F2,243.0,0.5,95,164.0
2335,B-2,243.0,0.5,95,164.0
2336,E3,243.0,0.5,95,164.0
2337,A2,243.0,0.5,95,164.0
2338,G2,243.5,0.5,95,164.0
2339,C2,243.5,0.25,95,164.0
2340,C3,243.5,0.5,95,164.0
2341,F2,243.5,0.5,95,164.0
2342,C2,243.75,0.25,95,164.0
2343,G2,244.0,0.5,95,164.0
2344,D2,244.0,0.5,95,164.0
2345,G2,244.5,0.5,95,164.0
2346,C3,244.5,0.5,95,164.0
2347,F2,244.5,0.5,95,164.0
2348,C#3,244.5,0.5,95,164.0
2349,C2,244.5,0.5,95,164.0
2350,F2,245.0,0.25,95,164.0
2351,G2,245.0,0.5,95,164.0
2352,F2,245.25,0.25,95,164.0
2353,G2,245.5,0.5,95,164.0
2354,C2,245.5,0.25,95,164.0
2355,B4,245.5,3.5,95,164.0
2356,B3,245.5,3.5,95,164.0
2357,C3,245.5,0.5,95,164.0
2358,F2,245.5,0.5,95,164.0
2359,C2,245.75,0.25,95,164.0
2360,F2,246.0,0.25,95,164.0
2361,G2,246.0,0.5,95,164.0
2362,B-2,246.0,0.5,95,164.0
2363,D2,246.0,0.5,95,164.0
2364,F2,246.25,0.25,95,164.0
2365,G2,246.5,0.5,95,164.0
2366,C2,246.5,0.25,95,164.0
2367,C3,246.5,0.5,95,164.0
2368,F2,246.5,0.5,95,164.0
2369,C2,246.75,0.25,95,164.0
2370,F2,247.0,0.25,95,164.0
2371,G2,247.0,0.5,95,164.0
2372,B-2,247.0,0.5,95,164.0
2373,F2,247.25,0.25,95,164.0
2374,G2,247.5,0.5,95,164.0
2375,C2,247.5,0.25,95,164.0
2376,C3,247.5,0.5,95,164.0
2377,F2,247.5,0.5,95,164.0
2378,C2,247.75,0.25,95,164.0
2379,F2,248.0,0.25,95,164.0
2380,G2,248.0,0.5,95,164.0
2381,B-2,248.0,0.5,95,164.0
2382,D2,248.0,0.5,95,164.0
2383,F2,248.25,0.25,95,164.0
2384,G2,248.5,0.5,95,164.0
2385,C2,248.5,0.25,95,164.0
2386,C3,248.5,0.5,95,164.0
2387,F2,248.5,0.5,95,164.0
2388,C2,248.75,0.25,95,164.0
2389,F2,249.0,0.25,95,164.0
2390,G2,249.0,0.5,95,164.0
2391,B-2,249.0,0.5,95,164.0
2392,A4,249.0,0.5,95,164.0
2393,A3,249.0,0.5,95,164.0
2394,F2,249.25,0.25,95,164.0
2395,G2,249.5,0.5,95,164.0
2396,C2,249.5,0.25,95,164.0
2397,C3,249.5,0.5,95,164.0
2398,F2,249.5,0.5,95,164.0
2399,C2,249.75,0.25,95,164.0
2400,F2,250.0,0.25,95,164.0
2401,G2,250.0,0.5,95,164.0
2402,B-2,250.0,0.5,95,164.0
2403,D2,250.0,0.5,95,164.0
2404,F2,250.25,0.25,95,164.0
2405,G2,250.5,0.5,95,164.0
2406,C2,250.5,0.25,95,164.0
2407,C3,250.5,0.5,95,164.0
2408,F2,250.5,0.5,95,164.0
2409,C2,250.75,0.25,95,164.0
2410,F2,251.0,0.25,95,164.0
2411,G2,251.0,0.5,95,164.0
2412,B-2,251.0,0.5,95,164.0
2413,F2,251.25,0.25,95,164.0
2414,A2,251.5,0.5,95,164.0
2415,C2,251.5,0.25,95,164.0
2416,C3,251.5,0.5,95,164.0
2417,F2,251.5,0.5,95,164.0
2418,C2,251.75,0.25,95,164.0
2419,A2,252.0,0.5,95,164.0
2420,D2,252.0,0.5,95,164.0
2421,D3,252.0,0.5,95,164.0
2422,G2,252.0,0.5,95,164.0
2423,A2,252.5,0.5,95,164.0
2424,C#3,252.5,0.5,95,164.0
2425,C2,252.5,0.5,95,164.0
2426,A2,253.0,0.5,95,164.0
2427,D3,253.0,0.5,95,164.0
2428,G2,253.0,0.5,95,164.0
2429,G2,253.5,0.25,95,164.0
2430,A2,253.5,0.5,95,164.0
2431,C2,253.5,0.25,95,164.0
2432,G2,253.75,0.25,95,164.0
2433,C2,253.75,0.25,95,164.0
2434,A2,254.0,0.5,95,164.0
2435,D3,254.0,0.5,95,164.0
2436,G2,254.0,0.5,95,164.0
2437,B-2,254.0,0.5,95,164.0
2438,D2,254.0,0.5,95,164.0
2439,G2,254.5,0.25,95,164.0
2440,A2,254.5,0.5,95,164.0
2441,C2,254.5,0.25,95,164.0
2442,G2,254.75,0.25,95,164.0
2443,C2,254.75,0.25,95,164.0
2444,A2,255.0,0.5,95,164.0
2445,B-2,255.0,0.5,95,164.0
2446,D3,255.0,0.5,95,164.0
2447,G2,255.0,0.5,95,164.0
2448,G2,255.5,0.25,95,164.0
2449,A2,255.5,0.5,95,164.0
2450,C2,255.5,0.25,95,164.0
2451,G2,255.75,0.25,95,164.0
2452,C2,255.75,0.25,95,164.0
2453,A2,256.0,0.5,95,164.0
2454,D3,256.0,0.5,95,164.0
2455,G2,256.0,0.5,95,164.0
2456,B-2,256.0,0.5,95,164.0
2457,D2,256.0,0.5,95,164.0
2458,G2,256.5,0.25,95,164.0
2459,C3,256.5,0.5,95,164.0
2460,D3,256.5,167/1000,95,164.0
2461,D3,256.667,167/1000,95,164.0
2462,G2,256.75,0.25,95,164.0
2463,B2,256.833,167/1000,95,164.0
2464,B2,257.0,0.5,95,164.0
2465,D2,257.0,0.5,95,164.0
2466,A4,257.0,4.0,95,164.0
2467,A3,257.0,4.0,95,164.0
2468,D3,257.0,0.5,95,164.0
2469,G2,257.0,0.5,95,164.0
2470,G2,257.5,0.25,95,164.0
2471,A2,257.5,0.5,95,164.0
2472,D2,257.5,0.5,95,164.0
2473,G2,257.75,0.25,95,164.0
2474,C3,258.0,0.5,95,164.0
2475,D2,258.0,0.5,95,164.0
2476,D3,258.0,0.5,95,164.0
2477,G2,258.0,0.5,95,164.0
2478,G2,258.5,0.25,95,164.0
2479,B2,258.5,0.5,95,164.0
2480,D2,258.5,0.5,95,164.0
2481,G2,258.75,0.25,95,164.0
2482,A2,259.0,0.5,95,164.0
2483,D2,259.0,0.5,95,164.0
2484,D3,259.0,0.5,95,164.0
2485,G2,259.0,0.5,95,164.0
2486,G2,259.5,0.25,95,164.0
2487,E2,259.5,0.5,95,164.0
2488,D2,259.5,0.25,95,164.0
2489,G2,259.75,0.25,95,164.0
2490,D2,259.75,0.25,95,164.0
2491,E2,260.0,0.5,95,164.0
2492,D2,260.0,0.25,95,164.0
2493,D3,260.0,0.5,95,164.0
2494,G2,260.0,0.5,95,164.0
2495,D2,260.25,0.25,95,164.0
2496,E2,260.5,0.5,95,164.0
2497,E3,260.5,0.5,95,164.0
2498,A2,260.5,0.5,95,164.0
2499,C#3,260.5,0.5,95,164.0
2500,C2,260.5,0.5,95,164.0
2501,E2,261.0,0.5,95,164.0
2502,E2,261.5,0.5,95,164.0
2503,E3,261.5,0.5,95,164.0
2504,A2,261.5,0.5,95,164.0
2505,C#3,261.5,0.5,95,164.0
2506,C2,261.5,0.5,95,164.0
2507,A2,262.0,0.25,95,164.0
2508,E2,262.0,0.5,95,164.0
2509,C2,262.0,0.5,95,164.0
2510,A2,262.25,0.25,95,164.0
2511,E2,262.5,0.5,95,164.0
2512,E3,262.5,0.5,95,164.0
2513,A2,262.5,0.5,95,164.0
2514,B-2,262.5,1.0,95,164.0
2515,D2,262.5,1.0,95,164.0
2516,A2,263.0,0.25,95,164.0
2517,E2,263.0,0.5,95,164.0
2518,A2,263.25,0.25,95,164.0
2519,E2,263.5,0.5,95,164.0
2520,B-2,263.5,0.5,95,164.0
2521,E3,263.5,0.5,95,164.0
2522,A2,263.5,0.5,95,164.0
2523,A2,264.0,0.25,95,164.0
2524,E2,264.0,0.5,95,164.0
2525,C2,264.0,0.5,95,164.0
2526,A2,264.25,0.25,95,164.0
2527,E2,264.5,0.5,95,164.0
2528,A4,264.5,3.5,95,164.0
2529,A3,264.5,3.5,95,164.0
2530,E3,264.5,0.5,95,164.0
2531,A2,264.5,0.5,95,164.0
2532,B-2,264.5,1.0,95,164.0
2533,D2,264.5,1.0,95,164.0
2534,A2,265.0,0.25,95,164.0
2535,E2,265.0,0.5,95,164.0
2536,A2,265.25,0.25,95,164.0
2537,E2,265.5,0.5,95,164.0
2538,B-2,265.5,0.5,95,164.0
2539,E3,265.5,0.5,95,164.0
2540,A2,265.5,0.5,95,164.0
2541,C3,266.0,0.5,95,164.0
2542,E2,266.0,0.5,95,164.0
2543,C2,266.0,0.5,95,164.0
2544,B2,266.5,0.5,95,164.0
2545,E2,266.5,0.5,95,164.0
2546,B-2,266.5,1.0,95,164.0
2547,D2,266.5,1.0,95,164.0
2548,A2,267.0,0.5,95,164.0
2549,E2,267.0,0.5,95,164.0
2550,C3,267.5,0.5,95,164.0
2551,C3,267.5,0.5,95,164.0
2552,B-2,267.5,0.5,95,164.0
2553,B2,268.0,0.5,95,164.0
2554,C3,268.0,0.5,95,164.0
2555,C2,268.0,0.5,95,164.0
2556,E5,268.0,0.5,95,164.0
2557,E4,268.0,0.5,95,164.0
2558,A2,268.5,0.5,95,164.0
2559,C3,268.5,0.5,95,164.0
2560,B-2,268.5,0.5,95,164.0
2561,D2,268.5,0.5,95,164.0
2562,C3,269.0,0.5,95,164.0
2563,C2,269.0,0.5,95,164.0
2564,B3,269.0,0.5,95,164.0
2565,E3,269.0,0.5,95,164.0
2566,C3,269.5,0.5,95,164.0
2567,B-2,269.5,0.5,95,164.0
2568,C3,270.0,0.5,95,164.0
2569,C2,270.0,0.5,95,164.0
2570,B3,270.0,0.5,95,164.0
2571,E3,270.0,0.5,95,164.0
2572,E3,270.5,0.5,95,164.0
2573,C3,270.5,0.5,95,164.0
2574,B-2,270.5,1.0,95,164.0
2575,D2,270.5,1.0,95,164.0
2576,C3,271.0,0.5,95,164.0
2577,B3,271.0,0.5,95,164.0
2578,E3,271.0,0.5,95,164.0
2579,E3,271.5,0.5,95,164.0
2580,C3,271.5,0.5,95,164.0
2581,B-2,271.5,0.5,95,164.0
2582,E3,272.0,0.5,95,164.0
2583,C3,272.0,0.5,95,164.0
2584,C2,272.0,0.5,95,164.0
2585,E3,272.5,0.5,95,164.0
2586,C3,272.5,0.5,95,164.0
2587,B-2,272.5,1.0,95,164.0
2588,D2,272.5,1.0,95,164.0
2589,C3,273.0,0.5,95,164.0
2590,B3,273.0,0.5,95,164.0
2591,E3,273.0,0.5,95,164.0
2592,E3,273.5,0.5,95,164.0
2593,C3,273.5,0.5,95,164.0
2594,B-2,273.5,0.5,95,164.0
2595,E3,274.0,0.5,95,164.0
2596,D3,274.0,0.5,95,164.0
2597,C2,274.0,0.5,95,164.0
2598,E3,274.5,0.5,95,164.0
2599,C3,274.5,0.5,95,164.0
2600,B-2,274.5,1.0,95,164.0
2601,D2,274.5,1.0,95,164.0
2602,B2,275.0,0.5,95,164.0
2603,B3,275.0,0.5,95,164.0
2604,E3,275.0,0.5,95,164.0
2605,E3,275.5,0.5,95,164.0
2606,E2,275.5,0.5,95,164.0
2607,B-2,275.5,0.5,95,164.0
2608,E3,276.0,0.5,95,164.0
2609,E2,276.0,0.5,95,164.0
2610,C2,276.0,0.5,95,164.0
2611,E5,276.0,4.0,95,164.0
2612,E4,276.0,4.0,95,164.0
2613,E3,276.5,0.5,95,164.0
2614,E2,276.5,0.5,95,164.0
2615,B-2,276.5,0.5,95,164.0
2616,D2,276.5,0.5,95,164.0
2617,E2,277.0,0.5,95,164.0
2618,C2,277.0,0.5,95,164.0
2619,B3,277.0,0.5,95,164.0
2620,E3,277.0,0.5,95,164.0
2621,E2,277.5,0.5,95,164.0
2622,B-2,277.5,0.5,95,164.0
2623,G3,277.5,0.5,95,164.0
2624,C3,277.5,0.5,95,164.0
2625,E2,278.0,0.5,95,164.0
2626,C2,278.0,0.5,95,164.0
2627,E2,278.5,0.5,95,164.0
2628,G3,278.5,0.5,95,164.0
2629,C3,278.5,0.5,95,164.0
2630,B-2,278.5,1.0,95,164.0
2631,D2,278.5,1.0,95,164.0
2632,C3,279.0,0.5,95,164.0
2633,E2,279.0,0.5,95,164.0
2634,E2,279.5,0.5,95,164.0
2635,B-2,279.5,0.5,95,164.0
2636,G3,279.5,0.5,95,164.0
2637,C3,279.5,0.5,95,164.0
2638,C3,280.0,0.5,95,164.0
2639,E2,280.0,0.5,95,164.0
2640,C2,280.0,0.5,95,164.0
2641,C3,280.5,0.5,95,164.0
2642,E2,280.5,0.5,95,164.0
2643,B-2,280.5,1.0,95,164.0
2644,D2,280.5,1.0,95,164.0
2645,C3,281.0,0.5,95,164.0
2646,E2,281.0,0.5,95,164.0
2647,E2,281.5,0.5,95,164.0
2648,B-2,281.5,0.5,95,164.0
2649,G3,281.5,0.5,95,164.0
2650,C3,281.5,0.5,95,164.0
2651,C3,282.0,0.5,95,164.0
2652,E2,282.0,0.5,95,164.0
2653,C2,282.0,0.5,95,164.0
2654,C3,282.5,0.5,95,164.0
2655,G2,282.5,0.5,95,164.0
2656,B-2,282.5,1.0,95,164.0
2657,D2,282.5,1.0,95,164.0
2658,C3,283.0,0.5,95,164.0
2659,E2,283.0,0.5,95,164.0
2660,C3,283.5,0.5,95,164.0
2661,B-2,283.5,0.5,95,164.0
2662,E5,283.5,3.5,95,164.0
2663,E4,283.5,3.5,95,164.0
2664,G3,283.5,0.5,95,164.0
2665,C3,283.5,0.5,95,164.0
2666,C3,284.0,0.5,95,164.0
2667,C3,284.0,0.5,95,164.0
2668,C2,284.0,0.5,95,164.0
2669,C3,284.5,0.5,95,164.0
2670,C3,284.5,0.5,95,164.0
2671,B-2,284.5,0.5,95,164.0
2672,D2,284.5,0.5,95,164.0
2673,C3,285.0,0.5,95,164.0
2674,C3,285.0,0.5,95,164.0
2675,C2,285.0,0.5,95,164.0
2676,C3,285.5,0.5,95,164.0
2677,B-2,285.5,0.5,95,164.0
2678,G3,285.5,0.5,95,164.0
2679,C3,285.5,0.5,95,164.0
2680,C3,286.0,0.5,95,164.0
2681,C2,286.0,0.5,95,164.0
2682,B3,286.0,0.5,95,164.0
2683,E3,286.0,0.5,95,164.0
2684,C3,286.5,0.5,95,164.0
2685,B-2,286.5,1.0,95,164.0
2686,D2,286.5,1.0,95,164.0
2687,C3,287.0,0.5,95,164.0
2688,F5,287.0,0.5,95,164.0
2689,F4,287.0,0.5,95,164.0
2690,B3,287.0,0.5,95,164.0
2691,E3,287.0,0.5,95,164.0
2692,E3,287.5,0.5,95,164.0
2693,C3,287.5,0.5,95,164.0
2694,B-2,287.5,0.5,95,164.0
2695,C3,288.0,0.5,95,164.0
2696,C2,288.0,0.5,95,164.0
2697,B3,288.0,0.5,95,164.0
2698,E3,288.0,0.5,95,164.0
2699,E3,288.5,0.5,95,164.0
2700,C3,288.5,0.5,95,164.0
2701,B-2,288.5,1.0,95,164.0
2702,D2,288.5,1.0,95,164.0
2703,E3,289.0,0.5,95,164.0
2704,C3,289.0,0.5,95,164.0
2705,E3,289.5,0.5,95,164.0
2706,C3,289.5,0.5,95,164.0
2707,B-2,289.5,0.5,95,164.0
2708,D3,290.0,0.5,95,164.0
2709,C2,290.0,0.5,95,164.0
2710,B3,290.0,0.5,95,164.0
2711,E3,290.0,0.5,95,164.0
2712,E3,290.5,0.5,95,164.0
2713,C3,290.5,0.5,95,164.0
2714,B-2,290.5,1.0,95,164.0
2715,D2,290.5,1.0,95,164.0
2716,E3,291.0,0.5,95,164.0
2717,B2,291.0,0.5,95,164.0
2718,E3,291.5,0.5,95,164.0
2719,E2,291.5,0.5,95,164.0
2720,B-2,291.5,0.5,95,164.0
2721,E2,292.0,0.5,95,164.0
2722,C2,292.0,0.5,95,164.0
2723,B3,292.0,0.5,95,164.0
2724,E3,292.0,0.5,95,164.0
2725,E3,292.5,0.5,95,164.0
2726,E2,292.5,0.5,95,164.0
2727,B-2,292.5,0.5,95,164.0
2728,D2,292.5,0.5,95,164.0
2729,E3,293.0,0.5,95,164.0
2730,E2,293.0,0.5,95,164.0
2731,C#3,293.0,0.5,95,164.0
2732,C2,293.0,0.5,95,164.0
2733,E3,293.5,0.5,95,164.0
2734,E2,293.5,0.5,95,164.0
2735,E2,294.0,0.5,95,164.0
2736,B3,294.0,0.5,95,164.0
2737,E3,294.0,0.5,95,164.0
2738,C#3,294.0,0.5,95,164.0
2739,C2,294.0,0.5,95,164.0
2740,E2,294.5,0.5,95,164.0
2741,C2,294.5,0.5,95,164.0
2742,G3,294.5,0.5,95,164.0
2743,C3,294.5,0.5,95,164.0
2744,E2,295.0,0.5,95,164.0
2745,F5,295.0,4.0,95,164.0
2746,F4,295.0,4.0,95,164.0
2747,B-2,295.0,1.0,95,164.0
2748,D2,295.0,1.0,95,164.0
2749,E2,295.5,0.5,95,164.0
2750,G3,295.5,0.5,95,164.0
2751,C3,295.5,0.5,95,164.0
2752,C3,296.0,0.5,95,164.0
2753,E2,296.0,0.5,95,164.0
2754,B-2,296.0,0.5,95,164.0
2755,E2,296.5,0.5,95,164.0
2756,C2,296.5,0.5,95,164.0
2757,G3,296.5,0.5,95,164.0
2758,C3,296.5,0.5,95,164.0
2759,C3,297.0,0.5,95,164.0
2760,E2,297.0,0.5,95,164.0
2761,B-2,297.0,1.0,95,164.0
2762,D2,297.0,1.0,95,164.0
2763,C3,297.5,0.5,95,164.0
2764,E2,297.5,0.5,95,164.0
2765,C3,298.0,0.5,95,164.0
2766,E2,298.0,0.5,95,164.0
2767,B-2,298.0,0.5,95,164.0
2768,G2,298.5,0.5,95,164.0
2769,C2,298.5,0.5,95,164.0
2770,G3,298.5,0.5,95,164.0
2771,C3,298.5,0.5,95,164.0
2772,C3,299.0,0.5,95,164.0
2773,E2,299.0,0.5,95,164.0
2774,B-2,299.0,1.0,95,164.0
2775,D2,299.0,1.0,95,164.0
2776,C3,299.5,0.5,95,164.0
2777,C3,299.5,0.5,95,164.0
2778,C3,300.0,0.5,95,164.0
2779,C3,300.0,0.5,95,164.0
2780,B-2,300.0,0.5,95,164.0
2781,C3,300.5,0.5,95,164.0
2782,C2,300.5,0.5,95,164.0
2783,G3,300.5,0.5,95,164.0
2784,C3,300.5,0.5,95,164.0
2785,C3,301.0,0.5,95,164.0
2786,C3,301.0,0.5,95,164.0
2787,B-2,301.0,0.5,95,164.0
2788,D2,301.0,0.5,95,164.0
2789,C3,301.5,0.5,95,164.0
2790,C3,301.5,0.5,95,164.0
2791,C#3,301.5,0.5,95,164.0
2792,C3,302.0,0.5,95,164.0
2793,C3,302.0,0.5,95,164.0
2794,C3,302.5,0.5,95,164.0
2795,C2,302.5,0.5,95,164.0
2796,F5,302.5,3.5,95,164.0
2797,F4,302.5,3.5,95,164.0
2798,G3,302.5,0.5,95,164.0
2799,C3,302.5,0.5,95,164.0
2800,C3,303.0,0.5,95,164.0
2801,B3,303.0,0.5,95,164.0
2802,E3,303.0,0.5,95,164.0
2803,B-2,303.0,1.0,95,164.0
2804,D2,303.0,1.0,95,164.0
2805,C3,303.5,0.5,95,164.0
2806,C3,304.0,0.5,95,164.0
2807,B-2,304.0,0.5,95,164.0
2808,B3,304.0,0.5,95,164.0
2809,E3,304.0,0.5,95,164.0
2810,E3,304.5,0.25,95,164.0
2811,C3,304.5,0.5,95,164.0
2812,C2,304.5,0.5,95,164.0
2813,E3,304.75,0.25,95,164.0
2814,C3,305.0,0.5,95,164.0
2815,B3,305.0,0.5,95,164.0
2816,E3,305.0,0.5,95,164.0
2817,B-2,305.0,1.0,95,164.0
2818,D2,305.0,1.0,95,164.0
2819,E3,305.5,0.25,95,164.0
2820,C3,305.5,0.5,95,164.0
2821,E3,305.75,0.25,95,164.0
2822,D3,306.0,0.5,95,164.0
2823,B-2,306.0,0.5,95,164.0
2824,G5,306.0,0.5,95,164.0
2825,G4,306.0,0.5,95,164.0
2826,A3,306.0,0.5,95,164.0
2827,E3,306.0,0.5,95,164.0
2828,C3,306.5,0.5,95,164.0
2829,C2,306.5,0.5,95,164.0
2830,B3,306.5,0.5,95,164.0
2831,E3,306.5,0.5,95,164.0
2832,E3,307.0,0.25,95,164.0
2833,B2,307.0,0.5,95,164.0
2834,B-2,307.0,1.0,95,164.0
2835,D2,307.0,1.0,95,164.0
2836,E3,307.25,0.25,95,164.0
2837,E3,307.5,0.25,95,164.0
2838,E2,307.5,0.5,95,164.0
2839,E3,307.75,0.25,95,164.0
2840,E2,308.0,0.5,95,164.0
2841,B-2,308.0,0.5,95,164.0
2842,B3,308.0,0.5,95,164.0
2843,E3,308.0,0.5,95,164.0
2844,E3,308.5,0.25,95,164.0
2845,E2,308.5,0.5,95,164.0
2846,C2,308.5,0.5,95,164.0
2847,E3,308.75,0.25,95,164.0
2848,E2,309.0,0.5,95,164.0
2849,B3,309.0,0.5,95,164.0
2850,E3,309.0,0.5,95,164.0
2851,B-2,309.0,0.5,95,164.0
2852,D2,309.0,0.5,95,164.0
2853,E3,309.5,0.5,95,164.0
2854,E2,309.5,0.5,95,164.0
2855,C#3,309.5,0.5,95,164.0
2856,E2,310.0,0.5,95,164.0
2857,A3,310.0,0.5,95,164.0
2858,E3,310.0,0.5,95,164.0
2859,E2,310.5,0.5,95,164.0
2860,C2,310.5,0.5,95,164.0
2861,B3,310.5,0.5,95,164.0
2862,E3,310.5,0.5,95,164.0
2863,E2,311.0,0.5,95,164.0
2864,B-2,311.0,1.0,95,164.0
2865,D2,311.0,1.0,95,164.0
2866,E2,311.5,0.5,95,164.0
2867,C4,311.5,0.5,95,164.0
2868,G3,311.5,0.5,95,164.0
2869,C3,311.5,0.5,95,164.0
2870,E2,312.0,0.5,95,164.0
2871,B-2,312.0,0.5,95,164.0
2872,C4,312.0,0.5,95,164.0
2873,G3,312.0,0.5,95,164.0
2874,C3,312.0,0.5,95,164.0
2875,C3,312.5,0.25,95,164.0
2876,E2,312.5,0.5,95,164.0
2877,C2,312.5,0.5,95,164.0
2878,C3,312.75,0.25,95,164.0
2879,E2,313.0,0.5,95,164.0
2880,C4,313.0,0.5,95,164.0
2881,G3,313.0,0.5,95,164.0
2882,C3,313.0,0.5,95,164.0
2883,B-2,313.0,1.0,95,164.0
2884,D2,313.0,1.0,95,164.0
2885,C3,313.5,0.25,95,164.0
2886,E2,313.5,0.5,95,164.0
2887,C3,313.75,0.25,95,164.0
2888,E2,314.0,0.5,95,164.0
2889,B-2,314.0,0.5,95,164.0
2890,G5,314.0,4.0,95,164.0
2891,G4,314.0,4.0,95,164.0
2892,B3,314.0,0.5,95,164.0
2893,G3,314.0,0.5,95,164.0
2894,C3,314.0,0.5,95,164.0
2895,G2,314.5,0.5,95,164.0
2896,C2,314.5,0.5,95,164.0
2897,C4,314.5,0.5,95,164.0
2898,G3,314.5,0.5,95,164.0
2899,C3,314.5,0.5,95,164.0
2900,C3,315.0,0.25,95,164.0
2901,E2,315.0,0.5,95,164.0
2902,B-2,315.0,1.0,95,164.0
2903,D2,315.0,1.0,95,164.0
2904,C3,315.25,0.25,95,164.0
2905,C3,315.5,0.25,95,164.0
2906,C3,315.5,0.5,95,164.0
2907,C3,315.75,0.25,95,164.0
2908,C3,316.0,0.5,95,164.0
2909,B-2,316.0,0.5,95,164.0
2910,D4,316.0,0.5,95,164.0
2911,G3,316.0,0.5,95,164.0
2912,C3,316.0,0.5,95,164.0
2913,C3,316.5,0.25,95,164.0
2914,C3,316.5,0.5,95,164.0
2915,C2,316.5,0.5,95,164.0
2916,C3,316.75,0.25,95,164.0
2917,C3,317.0,0.5,95,164.0
2918,C4,317.0,0.5,95,164.0
2919,G3,317.0,0.5,95,164.0
2920,C3,317.0,0.5,95,164.0
2921,B-2,317.0,0.5,95,164.0
2922,D2,317.0,0.5,95,164.0
2923,C3,317.5,0.25,95,164.0
2924,C3,317.5,0.5,95,164.0
2925,C#3,317.5,0.5,95,164.0
2926,C3,317.75,0.25,95,164.0
2927,C3,318.0,0.5,95,164.0
2928,B3,318.0,0.5,95,164.0
2929,G3,318.0,0.5,95,164.0
2930,C3,318.0,0.5,95,164.0
2931,C3,318.5,0.5,95,164.0
2932,C2,318.5,0.5,95,164.0
2933,C4,318.5,0.5,95,164.0
2934,G3,318.5,0.5,95,164.0
2935,C3,318.5,0.5,95,164.0
2936,C3,319.0,0.5,95,164.0
2937,B-2,319.0,1.0,95,164.0
2938,D2,319.0,1.0,95,164.0
2939,C3,319.5,0.5,95,164.0
2940,B3,319.5,0.5,95,164.0
2941,E3,319.5,0.5,95,164.0
2942,G3,320.0,0.5,95,164.0
2943,B3,320.0,0.5,95,164.0
2944,E3,320.0,0.5,95,164.0
2945,B-2,320.0,0.5,95,164.0
2946,C2,320.0,0.5,95,164.0
2947,E3,320.5,0.25,95,164.0
2948,G3,320.5,0.5,95,164.0
2949,D2,320.5,0.5,95,164.0
2950,E3,320.75,0.25,95,164.0
2951,G3,321.0,0.5,95,164.0
2952,B-2,321.0,0.5,95,164.0
2953,B3,321.0,0.5,95,164.0
2954,E3,321.0,0.5,95,164.0
2955,E3,321.5,0.25,95,164.0
2956,G3,321.5,0.5,95,164.0
2957,C2,321.5,0.5,95,164.0
2958,G5,321.5,3.5,95,164.0
2959,G4,321.5,3.5,95,164.0
2960,E3,321.75,0.25,95,164.0
2961,G3,322.0,0.5,95,164.0
2962,A3,322.0,0.5,95,164.0
2963,E3,322.0,0.5,95,164.0
2964,B-2,322.0,1.0,95,164.0
2965,D2,322.0,1.0,95,164.0
2966,G3,322.5,0.5,95,164.0
2967,B3,322.5,0.5,95,164.0
2968,E3,322.5,0.5,95,164.0
2969,E3,323.0,0.25,95,164.0
2970,G3,323.0,0.5,95,164.0
2971,B-2,323.0,0.5,95,164.0
2972,C2,323.0,0.5,95,164.0
2973,E3,323.25,0.25,95,164.0
2974,E3,323.5,0.25,95,164.0
2975,B-2,323.5,0.5,95,164.0
2976,D2,323.5,0.5,95,164.0
2977,E3,323.75,0.25,95,164.0
2978,B-2,324.0,0.5,95,164.0
2979,B-2,324.0,0.5,95,164.0
2980,B3,324.0,0.5,95,164.0
2981,E3,324.0,0.5,95,164.0
2982,E3,324.5,0.25,95,164.0
2983,B-2,324.5,0.5,95,164.0
2984,D2,324.5,0.25,95,164.0
2985,E3,324.75,0.25,95,164.0
2986,D2,324.75,0.25,95,164.0
2987,B-2,325.0,0.5,95,164.0
2988,D2,325.0,0.25,95,164.0
2989,A5,325.0,0.5,95,164.0
2990,A4,325.0,0.5,95,164.0
2991,B3,325.0,0.5,95,164.0
2992,E3,325.0,0.5,95,164.0
2993,D2,325.25,0.25,95,164.0
2994,E3,325.5,0.5,95,164.0
2995,B-2,325.5,0.5,95,164.0
2996,C#3,325.5,0.5,95,164.0
2997,B-2,326.0,0.5,95,164.0
2998,C#3,326.0,0.5,95,164.0
2999,A3,326.0,0.5,95,164.0
3000,E3,326.0,0.5,95,164.0
3001,B-2,326.5,0.5,95,164.0
3002,C2,326.5,0.5,95,164.0
3003,B3,326.5,0.5,95,164.0
3004,E3,326.5,0.5,95,164.0
3005,B-2,327.0,0.5,95,164.0
3006,E-3,327.0,1.0,95,164.0
3007,D2,327.0,1.0,95,164.0
3008,B-2,327.5,0.5,95,164.0
3009,C4,327.5,0.5,95,164.0
3010,G3,327.5,0.5,95,164.0
3011,C3,327.5,0.5,95,164.0
3012,B-2,328.0,0.5,95,164.0
3013,E-3,328.0,0.5,95,164.0
3014,C4,328.0,0.5,95,164.0
3015,G3,328.0,0.5,95,164.0
3016,C3,328.0,0.5,95,164.0
3017,C3,328.5,0.25,95,164.0
3018,B-2,328.5,0.5,95,164.0
3019,C2,328.5,0.5,95,164.0
3020,C3,328.75,0.25,95,164.0
3021,B-2,329.0,0.5,95,164.0
3022,C4,329.0,0.5,95,164.0
3023,G3,329.0,0.5,95,164.0
3024,C3,329.0,0.5,95,164.0
3025,E-3,329.0,1.0,95,164.0
3026,D2,329.0,1.0,95,164.0
3027,C3,329.5,0.25,95,164.0
3028,B-2,329.5,0.5,95,164.0
3029,A5,329.5,4.0,95,164.0
3030,A4,329.5,4.0,95,164.0
3031,C3,329.75,0.25,95,164.0
3032,B-2,330.0,0.5,95,164.0
3033,E-3,330.0,0.5,95,164.0
3034,B3,330.0,0.5,95,164.0
3035,G3,330.0,0.5,95,164.0
3036,C3,330.0,0.5,95,164.0
3037,A2,330.5,0.5,95,164.0
3038,C2,330.5,0.5,95,164.0
3039,C4,330.5,0.5,95,164.0
3040,G3,330.5,0.5,95,164.0
3041,C3,330.5,0.5,95,164.0
3042,C3,331.0,0.25,95,164.0
3043,G2,331.0,0.5,95,164.0
3044,E-3,331.0,1.0,95,164.0
3045,D2,331.0,1.0,95,164.0
3046,C3,331.25,0.25,95,164.0
3047,C3,331.5,0.25,95,164.0
3048,E2,331.5,0.5,95,164.0
3049,C3,331.75,0.25,95,164.0
3050,E2,332.0,0.5,95,164.0
3051,E-3,332.0,0.5,95,164.0
3052,D4,332.0,0.5,95,164.0
3053,G3,332.0,0.5,95,164.0
3054,C3,332.0,0.5,95,164.0
3055,C3,332.5,0.25,95,164.0
3056,E2,332.5,0.5,95,164.0
3057,E-3,332.5,0.5,95,164.0
3058,C2,332.5,0.5,95,164.0
3059,C3,332.75,0.25,95,164.0
3060,E2,333.0,0.5,95,164.0
3061,D2,333.0,0.5,95,164.0
3062,C4,333.0,0.5,95,164.0
3063,G3,333.0,0.5,95,164.0
3064,C3,333.0,0.5,95,164.0
3065,C3,333.5,0.25,95,164.0
3066,E2,333.5,0.5,95,164.0
3067,C#3,333.5,0.5,95,164.0
3068,C3,333.75,0.25,95,164.0
3069,E2,334.0,0.5,95,164.0
3070,B3,334.0,0.5,95,164.0
3071,G3,334.0,0.5,95,164.0
3072,C3,334.0,0.5,95,164.0
3073,E2,334.5,0.5,95,164.0
3074,C2,334.5,0.5,95,164.0
3075,C4,334.5,0.5,95,164.0
3076,G3,334.5,0.5,95,164.0
3077,C3,334.5,0.5,95,164.0
3078,E2,335.0,0.5,95,164.0
3079,E-3,335.0,1.0,95,164.0
3080,D2,335.0,1.0,95,164.0
3081,E2,335.5,0.5,95,164.0
3082,F3,335.5,0.5,95,164.0
3083,B-2,335.5,0.5,95,164.0
3084,E2,336.0,0.5,95,164.0
3085,E-3,336.0,0.5,95,164.0
3086,F3,336.0,0.5,95,164.0
3087,B-2,336.0,0.5,95,164.0
3088,B-2,336.5,0.25,95,164.0
3089,E2,336.5,0.5,95,164.0
3090,C2,336.5,0.5,95,164.0
3091,B-2,336.75,0.25,95,164.0
3092,B-2,337.0,0.25,95,164.0
3093,E2,337.0,0.5,95,164.0
3094,E-3,337.0,1.0,95,164.0
3095,D2,337.0,1.0,95,164.0
3096,B-2,337.25,0.25,95,164.0
3097,B-2,337.5,0.25,95,164.0
3098,E2,337.5,0.5,95,164.0
3099,B-2,337.75,0.25,95,164.0
3100,E3,338.0,0.5,95,164.0
3101,B-2,338.0,0.25,95,164.0
3102,E2,338.0,0.5,95,164.0
3103,E-3,338.0,0.5,95,164.0
3104,B-2,338.25,0.25,95,164.0
3105,B-2,338.5,0.25,95,164.0
3106,G2,338.5,0.5,95,164.0
3107,C2,338.5,0.5,95,164.0
3108,B3,338.5,0.5,95,164.0
3109,E3,338.5,0.5,95,164.0
3110,B-2,338.75,0.25,95,164.0
3111,E3,339.0,0.5,95,164.0
3112,B-2,339.0,0.25,95,164.0
3113,A2,339.0,0.5,95,164.0
3114,E-3,339.0,1.0,95,164.0
3115,D2,339.0,1.0,95,164.0
3116,B-2,339.25,0.25,95,164.0
3117,E3,339.5,0.5,95,164.0
3118,B-2,339.5,0.25,95,164.0
3119,B-2,339.5,0.5,95,164.0
3120,B-2,339.75,0.25,95,164.0
3121,E3,340.0,0.5,95,164.0
3122,B-2,340.0,0.25,95,164.0
3123,B-2,340.0,0.5,95,164.0
3124,E-3,340.0,0.5,95,164.0
3125,B-2,340.25,0.25,95,164.0
3126,B-2,340.5,0.25,95,164.0
3127,B-2,340.5,0.5,95,164.0
3128,B3,340.5,0.5,95,164.0
3129,E3,340.5,0.5,95,164.0
3130,E-3,340.5,0.5,95,164.0
3131,C2,340.5,0.5,95,164.0
3132,B-2,340.75,0.25,95,164.0
3133,E3,341.0,0.5,95,164.0
3134,B-2,341.0,0.25,95,164.0
3135,B-2,341.0,0.5,95,164.0
3136,D2,341.0,0.5,95,164.0
3137,B-2,341.25,0.25,95,164.0
3138,E3,341.5,0.5,95,164.0
3139,B-2,341.5,0.25,95,164.0
3140,B-2,341.5,0.5,95,164.0
3141,C#3,341.5,0.5,95,164.0
3142,B-2,341.75,0.25,95,164.0
3143,E3,342.0,0.5,95,164.0
3144,B-2,342.0,0.5,95,164.0
3145,F3,342.0,0.5,95,164.0
3146,B-2,342.0,0.5,95,164.0
3147,B-2,342.5,0.5,95,164.0
3148,C2,342.5,0.5,95,164.0
3149,B3,342.5,0.5,95,164.0
3150,E3,342.5,0.5,95,164.0
3151,E3,342.5,0.5,95,164.0
3152,A2,342.5,0.5,95,164.0
3153,E3,343.0,0.5,95,164.0
3154,B-2,343.0,0.5,95,164.0
3155,D3,343.0,0.5,95,164.0
3156,G2,343.0,0.5,95,164.0
3157,E-3,343.0,1.0,95,164.0
3158,D2,343.0,1.0,95,164.0
3159,E3,343.5,0.5,95,164.0
3160,B-2,343.5,0.5,95,164.0
3161,B2,343.5,0.5,95,164.0
3162,E2,343.5,0.5,95,164.0
3163,E3,344.0,0.5,95,164.0
3164,B-2,344.0,0.5,95,164.0
3165,E-3,344.0,0.5,95,164.0
3166,B-2,344.5,0.5,95,164.0
3167,C2,344.5,0.5,95,164.0
3168,B3,344.5,0.5,95,164.0
3169,E3,344.5,0.5,95,164.0
3170,B2,344.5,0.5,95,164.0
3171,E2,344.5,0.5,95,164.0
3172,E2,345.0,0.25,95,164.0
3173,B-2,345.0,0.5,95,164.0
3174,G3,345.0,0.5,95,164.0
3175,C3,345.0,0.5,95,164.0
3176,E-3,345.0,1.0,95,164.0
3177,D2,345.0,1.0,95,164.0
3178,E2,345.25,0.25,95,164.0
3179,E2,345.5,0.25,95,164.0
3180,B-2,345.5,0.5,95,164.0
3181,E2,345.75,0.25,95,164.0
3182,E2,346.0,0.25,95,164.0
3183,B-2,346.0,0.5,95,164.0
3184,E-3,346.0,0.5,95,164.0
3185,G3,346.0,0.5,95,164.0
3186,C3,346.0,0.5,95,164.0
3187,E2,346.25,0.25,95,164.0
3188,C3,346.5,0.5,95,164.0
3189,E2,346.5,0.25,95,164.0
3190,A2,346.5,0.5,95,164.0
3191,C2,346.5,0.5,95,164.0
3192,E2,346.75,0.25,95,164.0
3193,E2,347.0,0.25,95,164.0
3194,G2,347.0,0.5,95,164.0
3195,G3,347.0,0.5,95,164.0
3196,C3,347.0,0.5,95,164.0
3197,E-3,347.0,1.0,95,164.0
3198,D2,347.0,1.0,95,164.0
3199,E2,347.25,0.25,95,164.0
3200,C3,347.5,0.5,95,164.0
3201,E2,347.5,0.25,95,164.0
3202,E2,347.5,0.5,95,164.0
3203,E2,347.75,0.25,95,164.0
3204,C3,348.0,0.5,95,164.0
3205,E2,348.0,0.25,95,164.0
3206,E2,348.0,0.5,95,164.0
3207,E-3,348.0,0.5,95,164.0
3208,E2,348.25,0.25,95,164.0
3209,C3,348.5,0.5,95,164.0
3210,E2,348.5,0.25,95,164.0
3211,E2,348.5,0.5,95,164.0
3212,E-3,348.5,0.5,95,164.0
3213,C2,348.5,0.5,95,164.0
3214,E2,348.75,0.25,95,164.0
3215,E2,349.0,0.25,95,164.0
3216,E2,349.0,0.5,95,164.0
3217,D2,349.0,0.5,95,164.0
3218,G3,349.0,0.5,95,164.0
3219,C3,349.0,0.5,95,164.0
3220,E2,349.25,0.25,95,164.0
3221,C3,349.5,0.5,95,164.0
3222,E2,349.5,0.25,95,164.0
3223,E2,349.5,0.5,95,164.0
3224,C#3,349.5,0.5,95,164.0
3225,E2,349.75,0.25,95,164.0
3226,C3,350.0,0.5,95,164.0
3227,E2,350.0,0.25,95,164.0
3228,E2,350.0,0.5,95,164.0
3229,E2,350.25,0.25,95,164.0
3230,C3,350.5,0.5,95,164.0
3231,E2,350.5,0.5,95,164.0
3232,C2,350.5,0.5,95,164.0
3233,B2,350.5,0.5,95,164.0
3234,E2,350.5,0.5,95,164.0
3235,E2,351.0,0.5,95,164.0
3236,G3,351.0,0.5,95,164.0
3237,C3,351.0,0.5,95,164.0
3238,D3,351.0,0.5,95,164.0
3239,G2,351.0,0.5,95,164.0
3240,E-3,351.0,0.5,95,164.0
3241,D2,351.0,0.5,95,164.0
3242,C3,351.5,0.5,95,164.0
3243,E2,351.5,0.5,95,164.0
3244,B2,351.5,167/1000,95,164.0
3245,E3,351.5,0.5,95,164.0
3246,A2,351.5,0.5,95,164.0
3247,B2,351.667,167/1000,95,164.0
3248,B2,351.833,167/1000,95,164.0
3249,C3,352.0,0.5,95,164.0
3250,E2,352.0,0.5,95,164.0
3251,D2,352.0,0.5,95,164.0
3252,F3,352.0,0.5,95,164.0
3253,B-2,352.0,0.5,95,164.0
3254,C3,352.5,0.5,95,164.0
3255,B2,352.5,0.5,95,164.0
3256,A2,353.0,0.5,95,164.0
3257,G3,353.0,0.5,95,164.0
3258,C3,353.0,0.5,95,164.0
3259,F3,353.0,0.5,95,164.0
3260,B-2,353.0,0.5,95,164.0
3261,B-2,353.5,0.25,95,164.0
3262,G2,353.5,0.5,95,164.0
3263,B3,353.5,0.5,95,164.0
3264,E3,353.5,0.5,95,164.0
3265,B-2,353.75,0.25,95,164.0
3266,B-2,354.0,0.25,95,164.0
3267,D2,354.0,0.5,95,164.0
3268,B-2,354.25,0.25,95,164.0
3269,B-2,354.5,0.25,95,164.0
3270,B3,354.5,0.5,95,164.0
3271,E3,354.5,0.5,95,164.0
3272,B-2,354.75,0.25,95,164.0
3273,E3,355.0,0.5,95,164.0
3274,B-2,355.0,0.25,95,164.0
3275,B-2,355.25,0.25,95,164.0
3276,B-2,355.5,0.25,95,164.0
3277,A2,355.5,0.5,95,164.0
3278,B3,355.5,0.5,95,164.0
3279,E3,355.5,0.5,95,164.0
3280,B-2,355.75,0.25,95,164.0
3281,E3,356.0,0.5,95,164.0
3282,B-2,356.0,0.25,95,164.0
3283,A2,356.0,0.5,95,164.0
3284,B-2,356.25,0.25,95,164.0
3285,E3,356.5,0.5,95,164.0
3286,B-2,356.5,0.25,95,164.0
3287,A2,356.5,0.5,95,164.0
3288,B-2,356.75,0.25,95,164.0
3289,E3,357.0,0.5,95,164.0
3290,B-2,357.0,0.25,95,164.0
3291,A2,357.0,0.5,95,164.0
3292,B-2,357.25,0.25,95,164.0
3293,B-2,357.5,0.25,95,164.0
3294,A2,357.5,0.5,95,164.0
3295,B3,357.5,0.5,95,164.0
3296,E3,357.5,0.5,95,164.0
3297,C#3,357.5,0.5,95,164.0
3298,C2,357.5,0.5,95,164.0
3299,B-2,357.75,0.25,95,164.0
3300,E3,358.0,0.5,95,164.0
3301,B-2,358.0,0.25,95,164.0
3302,A2,358.0,0.5,95,164.0
3303,B-2,358.25,0.25,95,164.0
3304,E3,358.5,0.5,95,164.0
3305,B-2,358.5,0.25,95,164.0
3306,A2,358.5,0.5,95,164.0
3307,C2,358.5,0.25,95,164.0
3308,B-2,358.75,0.25,95,164.0
3309,C2,358.75,0.25,95,164.0
3310,E3,359.0,0.5,95,164.0
3311,A2,359.0,0.5,95,164.0
3312,F3,359.0,0.5,95,164.0
3313,B-2,359.0,0.5,95,164.0
3314,B-2,359.0,0.5,95,164.0
3315,D2,359.0,0.5,95,164.0
3316,A2,359.5,0.5,95,164.0
3317,C2,359.5,0.25,95,164.0
3318,B3,359.5,0.5,95,164.0
3319,E3,359.5,0.5,95,164.0
3320,E3,359.5,0.5,95,164.0
3321,A2,359.5,0.5,95,164.0
3322,C2,359.75,0.25,95,164.0
3323,E3,360.0,0.5,95,164.0
3324,A2,360.0,0.5,95,164.0
3325,B-2,360.0,0.5,95,164.0
3326,D3,360.0,0.5,95,164.0
3327,G2,360.0,0.5,95,164.0
3328,E3,360.5,0.5,95,164.0
3329,A2,360.5,0.5,95,164.0
3330,C2,360.5,0.25,95,164.0
3331,B2,360.5,0.5,95,164.0
3332,E2,360.5,0.5,95,164.0
3333,C2,360.75,0.25,95,164.0
3334,E3,361.0,0.5,95,164.0
3335,A2,361.0,0.5,95,164.0
3336,B-2,361.0,0.5,95,164.0
3337,D2,361.0,0.5,95,164.0
3338,A2,361.5,0.5,95,164.0
3339,C2,361.5,0.25,95,164.0
3340,B3,361.5,0.5,95,164.0
3341,E3,361.5,0.5,95,164.0
3342,B2,361.5,0.5,95,164.0
3343,E2,361.5,0.5,95,164.0
3344,C2,361.75,0.25,95,164.0
3345,E2,362.0,0.25,95,164.0
3346,A2,362.0,0.5,95,164.0
3347,B-2,362.0,0.5,95,164.0
3348,G3,362.0,0.5,95,164.0
3349,C3,362.0,0.5,95,164.0
3350,E2,362.25,0.25,95,164.0
3351,E2,362.5,0.25,95,164.0
3352,A2,362.5,0.5,95,164.0
3353,C2,362.5,0.25,95,164.0
3354,E2,362.75,0.25,95,164.0
3355,C2,362.75,0.25,95,164.0
3356,E2,363.0,0.25,95,164.0
3357,A2,363.0,0.5,95,164.0
3358,G3,363.0,0.5,95,164.0
3359,C3,363.0,0.5,95,164.0
3360,B-2,363.0,0.5,95,164.0
3361,D2,363.0,0.5,95,164.0
3362,E2,363.25,0.25,95,164.0
3363,C3,363.5,0.5,95,164.0
3364,E2,363.5,0.25,95,164.0
3365,F2,363.5,0.5,95,164.0
3366,C2,363.5,0.25,95,164.0
3367,E2,363.75,0.25,95,164.0
3368,C2,363.75,0.25,95,164.0
3369,E2,364.0,0.25,95,164.0
3370,F2,364.0,0.5,95,164.0
3371,B-2,364.0,0.5,95,164.0
3372,G3,364.0,0.5,95,164.0
3373,C3,364.0,0.5,95,164.0
3374,E2,364.25,0.25,95,164.0
3375,C3,364.5,0.5,95,164.0
3376,E2,364.5,0.25,95,164.0
3377,F2,364.5,0.5,95,164.0
3378,C2,364.5,0.25,95,164.0
3379,E2,364.75,0.25,95,164.0
3380,C2,364.75,0.25,95,164.0
3381,C3,365.0,0.5,95,164.0
3382,E2,365.0,0.25,95,164.0
3383,F2,365.0,0.5,95,164.0
3384,D2,365.0,0.5,95,164.0
3385,E2,365.25,0.25,95,164.0
3386,C3,365.5,0.5,95,164.0
3387,F2,365.5,0.5,95,164.0
3388,B2,365.5,0.5,95,164.0
3389,E2,365.5,0.5,95,164.0
3390,C#3,365.5,0.5,95,164.0
3391,C2,365.5,0.5,95,164.0
3392,F2,366.0,0.5,95,164.0
3393,G3,366.0,0.5,95,164.0
3394,C3,366.0,0.5,95,164.0
3395,C3,366.5,0.5,95,164.0
3396,F2,366.5,0.5,95,164.0
3397,C2,366.5,0.25,95,164.0
3398,C2,366.75,0.25,95,164.0
3399,C3,367.0,0.5,95,164.0
3400,F2,367.0,0.5,95,164.0
3401,B-2,367.0,0.5,95,164.0
3402,D2,367.0,0.5,95,164.0
3403,C3,367.5,0.5,95,164.0
3404,F2,367.5,0.5,95,164.0
3405,C2,367.5,0.25,95,164.0
3406,C2,367.75,0.25,95,164.0
3407,F2,368.0,0.5,95,164.0
3408,B-2,368.0,0.5,95,164.0
3409,G3,368.0,0.5,95,164.0
3410,C3,368.0,0.5,95,164.0
3411,C3,368.5,0.5,95,164.0
3412,F2,368.5,0.5,95,164.0
3413,C2,368.5,0.25,95,164.0
3414,C2,368.75,0.25,95,164.0
3415,C3,369.0,0.5,95,164.0
3416,F2,369.0,0.5,95,164.0
3417,E3,369.0,0.5,95,164.0
3418,A2,369.0,0.5,95,164.0
3419,B-2,369.0,0.5,95,164.0
3420,D2,369.0,0.5,95,164.0
3421,C3,369.5,0.5,95,164.0
3422,F2,369.5,0.5,95,164.0
3423,C2,369.5,0.25,95,164.0
3424,E3,369.5,0.5,95,164.0
3425,A2,369.5,0.5,95,164.0
3426,C2,369.75,0.25,95,164.0
3427,A2,370.0,0.25,95,164.0
3428,F2,370.0,0.5,95,164.0
3429,B-2,370.0,0.5,95,164.0
3430,G3,370.0,0.5,95,164.0
3431,C3,370.0,0.5,95,164.0
3432,A2,370.25,0.25,95,164.0
3433,F2,370.5,0.5,95,164.0
3434,C2,370.5,0.25,95,164.0
3435,B3,370.5,0.5,95,164.0
3436,E3,370.5,0.5,95,164.0
3437,E3,370.5,0.5,95,164.0
3438,A2,370.5,0.5,95,164.0
3439,C2,370.75,0.25,95,164.0
3440,A2,371.0,0.25,95,164.0
3441,F2,371.0,0.5,95,164.0
3442,B-2,371.0,0.5,95,164.0
3443,D2,371.0,0.5,95,164.0
3444,A2,371.25,0.25,95,164.0
3445,G2,371.5,0.5,95,164.0
3446,C2,371.5,0.25,95,164.0
3447,B3,371.5,0.5,95,164.0
3448,E3,371.5,0.5,95,164.0
3449,E3,371.5,0.5,95,164.0
3450,A2,371.5,0.5,95,164.0
3451,C2,371.75,0.25,95,164.0
3452,E3,372.0,0.25,95,164.0
3453,A2,372.0,0.25,95,164.0
3454,G2,372.0,0.5,95,164.0
3455,B-2,372.0,0.5,95,164.0
3456,E3,372.25,0.25,95,164.0
3457,A2,372.25,0.25,95,164.0
3458,G2,372.5,0.5,95,164.0
3459,C2,372.5,0.25,95,164.0
3460,B3,372.5,0.5,95,164.0
3461,E3,372.5,0.5,95,164.0
3462,E3,372.5,0.5,95,164.0
3463,A2,372.5,0.5,95,164.0
3464,C2,372.75,0.25,95,164.0
3465,E3,373.0,0.25,95,164.0
3466,A2,373.0,0.25,95,164.0
3467,G2,373.0,0.5,95,164.0
3468,D2,373.0,0.5,95,164.0
3469,E3,373.25,0.25,95,164.0
3470,A2,373.25,0.25,95,164.0
3471,G2,373.5,0.5,95,164.0
3472,A3,373.5,0.5,95,164.0
3473,E3,373.5,0.5,95,164.0
3474,E3,373.5,0.5,95,164.0
3475,A2,373.5,0.5,95,164.0
3476,C#3,373.5,0.5,95,164.0
3477,C2,373.5,0.5,95,164.0
3478,A2,374.0,0.25,95,164.0
3479,G2,374.0,0.5,95,164.0
3480,B3,374.0,0.5,95,164.0
3481,E3,374.0,0.5,95,164.0
3482,A2,374.25,0.25,95,164.0
3483,E3,374.5,0.25,95,164.0
3484,G2,374.5,0.5,95,164.0
3485,C2,374.5,0.25,95,164.0
3486,E3,374.5,0.5,95,164.0
3487,A2,374.5,0.5,95,164.0
3488,E3,374.75,0.25,95,164.0
3489,C2,374.75,0.25,95,164.0
3490,E3,375.0,0.25,95,164.0
3491,A2,375.0,0.25,95,164.0
3492,G2,375.0,0.5,95,164.0
3493,B-2,375.0,0.5,95,164.0
3494,D2,375.0,0.5,95,164.0
3495,E3,375.25,0.25,95,164.0
3496,A2,375.25,0.25,95,164.0
3497,G2,375.5,0.5,95,164.0
3498,C2,375.5,0.25,95,164.0
3499,B3,375.5,0.5,95,164.0
3500,E3,375.5,0.5,95,164.0
3501,E3,375.5,0.5,95,164.0
3502,A2,375.5,0.5,95,164.0
3503,C2,375.75,0.25,95,164.0
3504,E3,376.0,0.25,95,164.0
3505,A2,376.0,0.25,95,164.0
3506,G2,376.0,0.5,95,164.0
3507,B-2,376.0,0.5,95,164.0
3508,E3,376.25,0.25,95,164.0
3509,A2,376.25,0.25,95,164.0
3510,G2,376.5,0.5,95,164.0
3511,C2,376.5,0.25,95,164.0
3512,B3,376.5,0.5,95,164.0
3513,E3,376.5,0.5,95,164.0
3514,E3,376.5,0.5,95,164.0
3515,A2,376.5,0.5,95,164.0
3516,C2,376.75,0.25,95,164.0
3517,E3,377.0,0.5,95,164.0
3518,G2,377.0,0.5,95,164.0
3519,C3,377.0,0.5,95,164.0
3520,F2,377.0,0.5,95,164.0
3521,B-2,377.0,0.5,95,164.0
3522,D2,377.0,0.5,95,164.0
3523,G2,377.5,0.5,95,164.0
3524,C2,377.5,0.25,95,164.0
3525,A3,377.5,0.5,95,164.0
3526,E3,377.5,0.5,95,164.0
3527,C2,377.75,0.25,95,164.0
3528,G2,378.0,0.5,95,164.0
3529,B-2,378.0,0.5,95,164.0
3530,B3,378.0,0.5,95,164.0
3531,E3,378.0,0.5,95,164.0
3532,C3,378.0,0.5,95,164.0
3533,F2,378.0,0.5,95,164.0
3534,F2,378.5,0.25,95,164.0
3535,G2,378.5,0.5,95,164.0
3536,C2,378.5,0.25,95,164.0
3537,F2,378.75,0.25,95,164.0
3538,C2,378.75,0.25,95,164.0
3539,G2,379.0,0.5,95,164.0
3540,C4,379.0,0.5,95,164.0
3541,G3,379.0,0.5,95,164.0
3542,C3,379.0,0.5,95,164.0
3543,C3,379.0,0.5,95,164.0
3544,F2,379.0,0.5,95,164.0
3545,B-2,379.0,0.5,95,164.0
3546,D2,379.0,0.5,95,164.0
3547,F2,379.5,0.25,95,164.0
3548,A2,379.5,0.5,95,164.0
3549,C2,379.5,0.25,95,164.0
3550,C4,379.5,0.5,95,164.0
3551,G3,379.5,0.5,95,164.0
3552,C3,379.5,0.5,95,164.0
3553,F2,379.75,0.25,95,164.0
3554,C2,379.75,0.25,95,164.0
3555,C3,380.0,0.25,95,164.0
3556,A2,380.0,0.5,95,164.0
3557,B-2,380.0,0.5,95,164.0
3558,C3,380.0,0.5,95,164.0
3559,F2,380.0,0.5,95,164.0
3560,C3,380.25,0.25,95,164.0
3561,F2,380.5,0.25,95,164.0
3562,A2,380.5,0.5,95,164.0
3563,C2,380.5,0.25,95,164.0
3564,C4,380.5,0.5,95,164.0
3565,G3,380.5,0.5,95,164.0
3566,C3,380.5,0.5,95,164.0
3567,F2,380.75,0.25,95,164.0
3568,C2,380.75,0.25,95,164.0
3569,C3,381.0,0.25,95,164.0
3570,A2,381.0,0.5,95,164.0
3571,D2,381.0,0.5,95,164.0
3572,C3,381.0,0.5,95,164.0
3573,F2,381.0,0.5,95,164.0
3574,C3,381.25,0.25,95,164.0
3575,F2,381.5,0.25,95,164.0
3576,A2,381.5,0.5,95,164.0
3577,B3,381.5,0.5,95,164.0
3578,G3,381.5,0.5,95,164.0
3579,C3,381.5,0.5,95,164.0
3580,C#3,381.5,0.5,95,164.0
3581,C2,381.5,0.5,95,164.0
3582,F2,381.75,0.25,95,164.0
3583,A2,382.0,0.5,95,164.0
3584,C4,382.0,0.5,95,164.0
3585,G3,382.0,0.5,95,164.0
3586,C3,382.0,0.5,95,164.0
3587,C3,382.0,0.5,95,164.0
3588,F2,382.0,0.5,95,164.0
3589,C3,382.5,0.25,95,164.0
3590,F2,382.5,0.25,95,164.0
3591,A2,382.5,0.5,95,164.0
3592,C2,382.5,0.25,95,164.0
3593,C3,382.75,0.25,95,164.0
3594,F2,382.75,0.25,95,164.0
3595,C2,382.75,0.25,95,164.0
3596,C3,383.0,0.25,95,164.0
3597,A2,383.0,0.5,95,164.0
3598,C3,383.0,0.5,95,164.0
3599,F2,383.0,0.5,95,164.0
3600,B-2,383.0,0.5,95,164.0
3601,D2,383.0,0.5,95,164.0
3602,C3,383.25,0.25,95,164.0
3603,F2,383.5,0.25,95,164.0
3604,A2,383.5,0.5,95,164.0
3605,C2,383.5,0.25,95,164.0
3606,D4,383.5,0.5,95,164.0
3607,G3,383.5,0.5,95,164.0
3608,C3,383.5,0.5,95,164.0
3609,F2,383.75,0.25,95,164.0
3610,C2,383.75,0.25,95,164.0
3611,C3,384.0,0.25,95,164.0
3612,A2,384.0,0.5,95,164.0
3613,B-2,384.0,0.5,95,164.0
3614,C3,384.0,0.5,95,164.0
3615,F2,384.0,0.5,95,164.0
3616,C3,384.25,0.25,95,164.0
3617,F2,384.5,0.25,95,164.0
3618,C3,384.5,0.5,95,164.0
3619,C2,384.5,0.25,95,164.0
3620,C4,384.5,0.5,95,164.0
3621,G3,384.5,0.5,95,164.0
3622,C3,384.5,0.5,95,164.0
3623,F2,384.75,0.25,95,164.0
3624,C2,384.75,0.25,95,164.0
3625,C3,385.0,0.25,95,164.0
3626,B2,385.0,0.5,95,164.0
3627,C3,385.0,0.5,95,164.0
3628,F2,385.0,0.5,95,164.0
3629,B-2,385.0,0.5,95,164.0
3630,D2,385.0,0.5,95,164.0
3631,C3,385.25,0.25,95,164.0
3632,A2,385.5,0.5,95,164.0
3633,D3,385.5,167/1000,95,164.0
3634,B3,385.5,0.5,95,164.0
3635,G3,385.5,0.5,95,164.0
3636,C3,385.5,0.5,95,164.0
3637,D3,385.5,0.5,95,164.0
3638,G2,385.5,0.5,95,164.0
3639,D3,385.667,167/1000,95,164.0
3640,B2,385.833,167/1000,95,164.0
3641,C3,386.0,0.5,95,164.0
3642,D2,386.0,0.5,95,164.0
3643,C4,386.0,0.5,95,164.0
3644,G3,386.0,0.5,95,164.0
3645,C3,386.0,0.5,95,164.0
3646,B2,386.5,0.5,95,164.0
3647,D2,386.5,0.5,95,164.0
3648,D3,386.5,0.5,95,164.0
3649,G2,386.5,0.5,95,164.0
3650,G2,387.0,0.25,95,164.0
3651,A2,387.0,0.5,95,164.0
3652,D2,387.0,0.5,95,164.0
3653,B3,387.0,0.5,95,164.0
3654,E3,387.0,0.5,95,164.0
3655,G2,387.25,0.25,95,164.0
3656,A2,387.5,0.5,95,164.0
3657,D2,387.5,0.5,95,164.0
3658,B3,387.5,0.5,95,164.0
3659,E3,387.5,0.5,95,164.0
3660,D3,387.5,0.5,95,164.0
3661,G2,387.5,0.5,95,164.0
3662,E3,388.0,0.25,95,164.0
3663,G2,388.0,0.25,95,164.0
3664,A2,388.0,0.5,95,164.0
3665,D2,388.0,0.5,95,164.0
3666,E3,388.25,0.25,95,164.0
3667,G2,388.25,0.25,95,164.0
3668,A2,388.5,0.5,95,164.0
3669,D2,388.5,0.25,95,164.0
3670,B3,388.5,0.5,95,164.0
3671,E3,388.5,0.5,95,164.0
3672,D3,388.5,0.5,95,164.0
3673,G2,388.5,0.5,95,164.0
3674,D2,388.75,0.25,95,164.0
3675,E3,389.0,0.25,95,164.0
3676,G2,389.0,0.25,95,164.0
3677,A2,389.0,0.5,95,164.0
3678,D2,389.0,0.25,95,164.0
3679,E3,389.25,0.25,95,164.0
3680,G2,389.25,0.25,95,164.0
3681,D2,389.25,0.25,95,164.0
3682,A2,389.5,0.5,95,164.0
3683,A3,389.5,0.5,95,164.0
3684,E3,389.5,0.5,95,164.0
3685,D3,389.5,0.5,95,164.0
3686,G2,389.5,0.5,95,164.0
3687,C#3,389.5,0.5,95,164.0
3688,C2,389.5,0.5,95,164.0
3689,G2,390.0,0.25,95,164.0
3690,A2,390.0,0.5,95,164.0
3691,B3,390.0,0.5,95,164.0
3692,E3,390.0,0.5,95,164.0
3693,G2,390.25,0.25,95,164.0
3694,E3,390.5,0.25,95,164.0
3695,A2,390.5,0.5,95,164.0
3696,C2,390.5,0.25,95,164.0
3697,D3,390.5,0.5,95,164.0
3698,G2,390.5,0.5,95,164.0
3699,E3,390.75,0.25,95,164.0
3700,C2,390.75,0.25,95,164.0
3701,E3,391.0,0.25,95,164.0
3702,G2,391.0,0.25,95,164.0
3703,A2,391.0,0.5,95,164.0
3704,B-2,391.0,0.5,95,164.0
3705,D2,391.0,0.5,95,164.0
3706,E3,391.25,0.25,95,164.0
3707,G2,391.25,0.25,95,164.0
3708,A2,391.5,0.5,95,164.0
3709,C2,391.5,0.25,95,164.0
3710,B3,391.5,0.5,95,164.0
3711,E3,391.5,0.5,95,164.0
3712,D3,391.5,0.5,95,164.0
3713,G2,391.5,0.5,95,164.0
3714,C2,391.75,0.25,95,164.0
3715,E3,392.0,0.25,95,164.0
3716,G2,392.0,0.25,95,164.0
3717,A2,392.0,0.5,95,164.0
3718,B-2,392.0,0.5,95,164.0
3719,E3,392.25,0.25,95,164.0
3720,G2,392.25,0.25,95,164.0
3721,A2,392.5,0.5,95,164.0
3722,C2,392.5,0.25,95,164.0
3723,B3,392.5,0.5,95,164.0
3724,E3,392.5,0.5,95,164.0
3725,D3,392.5,0.5,95,164.0
3726,G2,392.5,0.5,95,164.0
3727,C2,392.75,0.25,95,164.0
3728,E3,393.0,0.5,95,164.0
3729,G2,393.0,0.25,95,164.0
3730,A2,393.0,0.5,95,164.0
3731,B-2,393.0,0.5,95,164.0
3732,D2,393.0,0.5,95,164.0
3733,G2,393.25,0.25,95,164.0
3734,A2,393.5,0.5,95,164.0
3735,C2,393.5,0.25,95,164.0
3736,A3,393.5,0.5,95,164.0
3737,E3,393.5,0.5,95,164.0
3738,D3,393.5,0.5,95,164.0
3739,G2,393.5,0.5,95,164.0
3740,C2,393.75,0.25,95,164.0
3741,A2,394.0,0.5,95,164.0
3742,B-2,394.0,0.5,95,164.0
3743,B3,394.0,0.5,95,164.0
3744,E3,394.0,0.5,95,164.0
3745,E3,394.0,0.5,95,164.0
3746,A2,394.0,0.5,95,164.0
3747,A2,394.5,0.5,95,164.0
3748,C2,394.5,0.25,95,164.0
3749,C2,394.75,0.25,95,164.0
3750,A2,395.0,0.5,95,164.0
3751,C4,395.0,0.5,95,164.0
3752,G3,395.0,0.5,95,164.0
3753,C3,395.0,0.5,95,164.0
3754,E3,395.0,0.5,95,164.0
3755,A2,395.0,0.5,95,164.0
3756,B-2,395.0,0.5,95,164.0
3757,D2,395.0,0.5,95,164.0
3758,A2,395.5,0.25,95,164.0
3759,F2,395.5,0.5,95,164.0
3760,C2,395.5,0.25,95,164.0
3761,C4,395.5,0.5,95,164.0
3762,G3,395.5,0.5,95,164.0
3763,C3,395.5,0.5,95,164.0
3764,A2,395.75,0.25,95,164.0
3765,C2,395.75,0.25,95,164.0
3766,C3,396.0,0.25,95,164.0
3767,F2,396.0,0.5,95,164.0
3768,B-2,396.0,0.5,95,164.0
3769,E3,396.0,0.5,95,164.0
3770,A2,396.0,0.5,95,164.0
3771,C3,396.25,0.25,95,164.0
3772,A2,396.5,0.25,95,164.0
3773,F2,396.5,0.5,95,164.0
3774,C2,396.5,0.25,95,164.0
3775,C4,396.5,0.5,95,164.0
3776,G3,396.5,0.5,95,164.0
3777,C3,396.5,0.5,95,164.0
3778,A2,396.75,0.25,95,164.0
3779,C2,396.75,0.25,95,164.0
3780,C3,397.0,0.25,95,164.0
3781,F2,397.0,0.5,95,164.0
3782,D2,397.0,0.5,95,164.0
3783,E3,397.0,0.5,95,164.0
3784,A2,397.0,0.5,95,164.0
3785,C3,397.25,0.25,95,164.0
3786,A2,397.5,0.25,95,164.0
3787,F2,397.5,0.5,95,164.0
3788,B3,397.5,0.5,95,164.0
3789,G3,397.5,0.5,95,164.0
3790,C3,397.5,0.5,95,164.0
3791,C#3,397.5,0.5,95,164.0
3792,C2,397.5,0.5,95,164.0
3793,A2,397.75,0.25,95,164.0
3794,F2,398.0,0.5,95,164.0
3795,C4,398.0,0.5,95,164.0
3796,G3,398.0,0.5,95,164.0
3797,C3,398.0,0.5,95,164.0
3798,E3,398.0,0.5,95,164.0
3799,A2,398.0,0.5,95,164.0
3800,C3,398.5,0.25,95,164.0
3801,A2,398.5,0.25,95,164.0
3802,F2,398.5,0.5,95,164.0
3803,C2,398.5,0.25,95,164.0
3804,C3,398.75,0.25,95,164.0
3805,A2,398.75,0.25,95,164.0
3806,C2,398.75,0.25,95,164.0
3807,C3,399.0,0.25,95,164.0
3808,F2,399.0,0.5,95,164.0
3809,E3,399.0,0.5,95,164.0
3810,A2,399.0,0.5,95,164.0
3811,B-2,399.0,0.5,95,164.0
3812,D2,399.0,0.5,95,164.0
3813,C3,399.25,0.25,95,164.0
3814,C3,399.5,0.5,95,164.0
3815,F2,399.5,0.5,95,164.0
3816,C2,399.5,0.25,95,164.0
3817,D4,399.5,0.5,95,164.0
3818,G3,399.5,0.5,95,164.0
3819,C3,399.5,0.5,95,164.0
3820,C2,399.75,0.25,95,164.0
3821,C3,400.0,0.25,95,164.0
3822,B2,400.0,0.5,95,164.0
3823,F2,400.0,0.5,95,164.0
3824,B-2,400.0,0.5,95,164.0
3825,C3,400.25,0.25,95,164.0
3826,A2,400.5,0.5,95,164.0
3827,F2,400.5,0.5,95,164.0
3828,C2,400.5,0.25,95,164.0
3829,C4,400.5,0.5,95,164.0
3830,G3,400.5,0.5,95,164.0
3831,C3,400.5,0.5,95,164.0
3832,C2,400.75,0.25,95,164.0
3833,C3,401.0,0.25,95,164.0
3834,C3,401.0,0.5,95,164.0
3835,F2,401.0,0.5,95,164.0
3836,B-2,401.0,0.5,95,164.0
3837,D2,401.0,0.5,95,164.0
3838,C3,401.25,0.25,95,164.0
3839,B2,401.5,0.5,95,164.0
3840,F2,401.5,0.5,95,164.0
3841,C2,401.5,0.25,95,164.0
3842,B3,401.5,0.5,95,164.0
3843,G3,401.5,0.5,95,164.0
3844,C3,401.5,0.5,95,164.0
3845,C2,401.75,0.25,95,164.0
3846,A2,402.0,0.5,95,164.0
3847,F2,402.0,0.5,95,164.0
3848,B-2,402.0,0.5,95,164.0
3849,C4,402.0,0.5,95,164.0
3850,G3,402.0,0.5,95,164.0
3851,C3,402.0,0.5,95,164.0
3852,F2,402.5,0.5,95,164.0
3853,C2,402.5,0.25,95,164.0
3854,E3,402.5,0.5,95,164.0
3855,A2,402.5,0.5,95,164.0
3856,C2,402.75,0.25,95,164.0
3857,F2,403.0,0.5,95,164.0
3858,F3,403.0,0.5,95,164.0
3859,B-2,403.0,0.5,95,164.0
3860,B-2,403.0,0.5,95,164.0
3861,D2,403.0,0.5,95,164.0
3862,G2,403.5,0.5,95,164.0
3863,C2,403.5,0.25,95,164.0
3864,F3,403.5,0.5,95,164.0
3865,B-2,403.5,0.5,95,164.0
3866,E3,403.5,0.5,95,164.0
3867,A2,403.5,0.5,95,164.0
3868,C2,403.75,0.25,95,164.0
3869,B-2,404.0,0.25,95,164.0
3870,A2,404.0,0.25,95,164.0
3871,G2,404.0,0.5,95,164.0
3872,B-2,404.0,0.5,95,164.0
3873,B-2,404.25,0.25,95,164.0
3874,A2,404.25,0.25,95,164.0
3875,B-2,404.5,0.25,95,164.0
3876,G2,404.5,0.5,95,164.0
3877,C2,404.5,0.25,95,164.0
3878,E3,404.5,0.5,95,164.0
3879,A2,404.5,0.5,95,164.0
3880,B-2,404.75,0.25,95,164.0
3881,C2,404.75,0.25,95,164.0
3882,B-2,405.0,0.25,95,164.0
3883,A2,405.0,0.25,95,164.0
3884,G2,405.0,0.5,95,164.0
3885,D2,405.0,0.5,95,164.0
3886,B-2,405.25,0.25,95,164.0
3887,A2,405.25,0.25,95,164.0
3888,B-2,405.5,0.25,95,164.0
3889,G2,405.5,0.5,95,164.0
3890,E3,405.5,0.5,95,164.0
3891,A2,405.5,0.5,95,164.0
3892,C#3,405.5,0.5,95,164.0
3893,C2,405.5,0.5,95,164.0
3894,B-2,405.75,0.25,95,164.0
3895,B-2,406.0,0.25,95,164.0
3896,A2,406.0,0.25,95,164.0
3897,G2,406.0,0.5,95,164.0
3898,B-2,406.25,0.25,95,164.0
3899,A2,406.25,0.25,95,164.0
3900,B-2,406.5,0.25,95,164.0
3901,G2,406.5,0.5,95,164.0
3902,C2,406.5,0.25,95,164.0
3903,E3,406.5,0.5,95,164.0
3904,A2,406.5,0.5,95,164.0
3905,B-2,406.75,0.25,95,164.0
3906,C2,406.75,0.25,95,164.0
3907,B-2,407.0,0.25,95,164.0
3908,A2,407.0,0.25,95,164.0
3909,G2,407.0,0.5,95,164.0
3910,B-2,407.0,0.5,95,164.0
3911,D2,407.0,0.5,95,164.0
3912,B-2,407.25,0.25,95,164.0
3913,A2,407.25,0.25,95,164.0
3914,B-2,407.5,0.25,95,164.0
3915,G2,407.5,0.5,95,164.0
3916,C2,407.5,0.25,95,164.0
3917,E3,407.5,0.5,95,164.0
3918,A2,407.5,0.5,95,164.0
3919,B-2,407.75,0.25,95,164.0
3920,C2,407.75,0.25,95,164.0
3921,B-2,408.0,0.25,95,164.0
3922,A2,408.0,0.25,95,164.0
3923,G2,408.0,0.5,95,164.0
3924,B-2,408.0,0.5,95,164.0
3925,B-2,408.25,0.25,95,164.0
3926,A2,408.25,0.25,95,164.0
3927,B-2,408.5,0.25,95,164.0
3928,G2,408.5,0.5,95,164.0
3929,C2,408.5,0.25,95,164.0
3930,E3,408.5,0.5,95,164.0
3931,A2,408.5,0.5,95,164.0
3932,B-2,408.75,0.25,95,164.0
3933,C2,408.75,0.25,95,164.0
3934,B-2,409.0,0.25,95,164.0
3935,A2,409.0,0.25,95,164.0
3936,G2,409.0,0.5,95,164.0
3937,B-2,409.0,0.5,95,164.0
3938,D2,409.0,0.5,95,164.0
3939,B-2,409.25,0.25,95,164.0
3940,A2,409.25,0.25,95,164.0
3941,G2,409.5,0.5,95,164.0
3942,C2,409.5,0.25,95,164.0
3943,F3,409.5,0.5,95,164.0
3944,B-2,409.5,0.5,95,164.0
3945,E3,409.5,0.5,95,164.0
3946,A2,409.5,0.5,95,164.0
3947,C2,409.75,0.25,95,164.0
3948,A2,410.0,0.25,95,164.0
3949,G2,410.0,0.5,95,164.0
3950,B-2,410.0,0.5,95,164.0
3951,E3,410.0,0.5,95,164.0
3952,A2,410.0,0.5,95,164.0
3953,A2,410.25,0.25,95,164.0
3954,G2,410.5,0.5,95,164.0
3955,C2,410.5,0.25,95,164.0
3956,D3,410.5,0.5,95,164.0
3957,G2,410.5,0.5,95,164.0
3958,E3,410.5,0.5,95,164.0
3959,A2,410.5,0.5,95,164.0
3960,C2,410.75,0.25,95,164.0
3961,G2,411.0,0.5,95,164.0
3962,B2,411.0,0.5,95,164.0
3963,E2,411.0,0.5,95,164.0
3964,C3,411.0,0.5,95,164.0
3965,F2,411.0,0.5,95,164.0
3966,B-2,411.0,0.5,95,164.0
3967,D2,411.0,0.5,95,164.0
3968,A2,411.5,0.5,95,164.0
3969,C2,411.5,0.25,95,164.0
3970,C2,411.75,0.25,95,164.0
3971,A2,412.0,0.5,95,164.0
3972,B-2,412.0,0.5,95,164.0
3973,B2,412.0,0.5,95,164.0
3974,E2,412.0,0.5,95,164.0
3975,C3,412.0,0.5,95,164.0
3976,F2,412.0,0.5,95,164.0
3977,E2,412.5,0.25,95,164.0
3978,F2,412.5,0.25,95,164.0
3979,A2,412.5,0.5,95,164.0
3980,C2,412.5,0.25,95,164.0
3981,E2,412.75,0.25,95,164.0
3982,F2,412.75,0.25,95,164.0
3983,C2,412.75,0.25,95,164.0
3984,E2,413.0,0.25,95,164.0
3985,A2,413.0,0.5,95,164.0
3986,D2,413.0,0.5,95,164.0
3987,C3,413.0,0.5,95,164.0
3988,F2,413.0,0.5,95,164.0
3989,E2,413.25,0.25,95,164.0
3990,E2,413.5,0.25,95,164.0
3991,F2,413.5,0.25,95,164.0
3992,A2,413.5,0.5,95,164.0
3993,C#3,413.5,0.5,95,164.0
3994,C2,413.5,0.5,95,164.0
3995,E2,413.75,0.25,95,164.0
3996,F2,413.75,0.25,95,164.0
3997,E2,414.0,0.25,95,164.0
3998,A2,414.0,0.5,95,164.0
3999,C3,414.0,0.5,95,164.0
4000,F2,414.0,0.5,95,164.0
4001,E2,414.25,0.25,95,164.0
4002,E2,414.5,0.25,95,164.0
4003,F2,414.5,0.25,95,164.0
4004,A2,414.5,0.5,95,164.0
4005,C2,414.5,0.25,95,164.0
4006,E2,414.75,0.25,95,164.0
4007,F2,414.75,0.25,95,164.0
4008,C2,414.75,0.25,95,164.0
4009,E2,415.0,0.25,95,164.0
4010,A2,415.0,0.5,95,164.0
4011,C3,415.0,0.5,95,164.0
4012,F2,415.0,0.5,95,164.0
4013,B-2,415.0,0.5,95,164.0
4014,D2,415.0,0.5,95,164.0
4015,E2,415.25,0.25,95,164.0
4016,E2,415.5,0.25,95,164.0
4017,F2,415.5,0.25,95,164.0
4018,A2,415.5,0.5,95,164.0
4019,C2,415.5,0.25,95,164.0
4020,E2,415.75,0.25,95,164.0
4021,F2,415.75,0.25,95,164.0
4022,C2,415.75,0.25,95,164.0
4023,E2,416.0,0.25,95,164.0
4024,A2,416.0,0.5,95,164.0
4025,B-2,416.0,0.5,95,164.0
4026,C3,416.0,0.5,95,164.0
4027,F2,416.0,0.5,95,164.0
4028,E2,416.25,0.25,95,164.0
4029,E2,416.5,0.25,95,164.0
4030,F2,416.5,0.25,95,164.0
4031,C3,416.5,0.5,95,164.0
4032,C2,416.5,0.25,95,164.0
4033,E2,416.75,0.25,95,164.0
4034,F2,416.75,0.25,95,164.0
4035,C2,416.75,0.25,95,164.0
4036,E2,417.0,0.25,95,164.0
4037,B2,417.0,0.5,95,164.0
4038,C3,417.0,0.5,95,164.0
4039,F2,417.0,0.5,95,164.0
4040,B-2,417.0,0.5,95,164.0
4041,D2,417.0,0.5,95,164.0
4042,E2,417.25,0.25,95,164.0
4043,E2,417.5,0.25,95,164.0
4044,F2,417.5,0.25,95,164.0
4045,A2,417.5,0.5,95,164.0
4046,D3,417.5,167/1000,95,164.0
4047,D3,417.667,167/1000,95,164.0
4048,E2,417.75,0.25,95,164.0
4049,F2,417.75,0.25,95,164.0
4050,B2,417.833,167/1000,95,164.0
4051,C3,418.0,0.5,95,164.0
4052,D2,418.0,0.5,95,164.0
4053,B2,418.0,0.5,95,164.0
4054,E2,418.0,0.5,95,164.0
4055,C3,418.0,0.5,95,164.0
4056,F2,418.0,0.5,95,164.0
4057,F2,418.5,0.25,95,164.0
4058,B2,418.5,0.5,95,164.0
4059,D2,418.5,0.5,95,164.0
4060,D3,418.5,0.5,95,164.0
4061,G2,418.5,0.5,95,164.0
4062,F2,418.75,0.25,95,164.0
4063,A2,419.0,0.5,95,164.0
4064,D2,419.0,0.5,95,164.0
4065,E3,419.0,0.5,95,164.0
4066,A2,419.0,0.5,95,164.0
4067,C3,419.0,0.5,95,164.0
4068,F2,419.0,0.5,95,164.0
4069,F#2,419.5,0.5,95,164.0
4070,D2,419.5,0.5,95,164.0
4071,F3,419.5,0.5,95,164.0
4072,B-2,419.5,0.5,95,164.0
4073,D3,419.5,0.5,95,164.0
4074,G2,419.5,0.5,95,164.0
4075,F#2,420.0,0.5,95,164.0
4076,D2,420.0,0.5,95,164.0
4077,F#2,420.5,0.5,95,164.0
4078,D2,420.5,0.25,95,164.0
4079,F3,420.5,0.5,95,164.0
4080,B-2,420.5,0.5,95,164.0
4081,D3,420.5,0.5,95,164.0
4082,G2,420.5,0.5,95,164.0
4083,D2,420.75,0.25,95,164.0
4084,B-2,421.0,0.25,95,164.0
4085,G2,421.0,0.25,95,164.0
4086,F#2,421.0,0.5,95,164.0
4087,D2,421.0,0.25,95,164.0
4088,B-2,421.25,0.25,95,164.0
4089,G2,421.25,0.25,95,164.0
4090,D2,421.25,0.25,95,164.0
4091,B-2,421.5,0.25,95,164.0
4092,F#2,421.5,0.5,95,164.0
4093,D3,421.5,0.5,95,164.0
4094,G2,421.5,0.5,95,164.0
4095,C#3,421.5,0.5,95,164.0
4096,D2,421.5,0.5,95,164.0
4097,B-2,421.75,0.25,95,164.0
4098,B-2,422.0,0.25,95,164.0
4099,G2,422.0,0.25,95,164.0
4100,F#2,422.0,0.5,95,164.0
4101,D2,422.0,0.5,95,164.0
4102,B-2,422.25,0.25,95,164.0
4103,G2,422.25,0.25,95,164.0
4104,B-2,422.5,0.25,95,164.0
4105,F#2,422.5,0.5,95,164.0
4106,C2,422.5,0.5,95,164.0
4107,D3,422.5,0.5,95,164.0
4108,G2,422.5,0.5,95,164.0
4109,B-2,422.75,0.25,95,164.0
4110,B-2,423.0,0.25,95,164.0
4111,G2,423.0,0.25,95,164.0
4112,F#2,423.0,0.5,95,164.0
4113,E-3,423.0,1.0,95,164.0
4114,D2,423.0,1.0,95,164.0
4115,B-2,423.25,0.25,95,164.0
4116,G2,423.25,0.25,95,164.0
4117,B-2,423.5,0.25,95,164.0
4118,F#2,423.5,0.5,95,164.0
4119,D3,423.5,0.5,95,164.0
4120,G2,423.5,0.5,95,164.0
4121,B-2,423.75,0.25,95,164.0
4122,B-2,424.0,0.25,95,164.0
4123,G2,424.0,0.25,95,164.0
4124,F#2,424.0,0.5,95,164.0
4125,E-3,424.0,0.5,95,164.0
4126,B-2,424.25,0.25,95,164.0
4127,G2,424.25,0.25,95,164.0
4128,B-2,424.5,0.25,95,164.0
4129,F#2,424.5,0.5,95,164.0
4130,C2,424.5,0.5,95,164.0
4131,D3,424.5,0.5,95,164.0
4132,G2,424.5,0.5,95,164.0
4133,B-2,424.75,0.25,95,164.0
4134,B-2,425.0,0.25,95,164.0
4135,G2,425.0,0.25,95,164.0
4136,F#2,425.0,0.5,95,164.0
4137,E-3,425.0,1.0,95,164.0
4138,D2,425.0,1.0,95,164.0
4139,B-2,425.25,0.25,95,164.0
4140,G2,425.25,0.25,95,164.0
4141,B-2,425.5,0.25,95,164.0
4142,F#2,425.5,0.5,95,164.0
4143,D3,425.5,0.5,95,164.0
4144,G2,425.5,0.5,95,164.0
4145,B-2,425.75,0.25,95,164.0
4146,B-2,426.0,0.25,95,164.0
4147,G2,426.0,0.25,95,164.0
4148,F#2,426.0,0.5,95,164.0
4149,E-3,426.0,0.5,95,164.0
4150,B-2,426.25,0.25,95,164.0
4151,G2,426.25,0.25,95,164.0
4152,A2,426.5,0.5,95,164.0
4153,C2,426.5,0.5,95,164.0
4154,F3,426.5,0.5,95,164.0
4155,B-2,426.5,0.5,95,164.0
4156,D3,426.5,0.5,95,164.0
4157,G2,426.5,0.5,95,164.0
4158,G2,427.0,0.25,95,164.0
4159,F#2,427.0,0.5,95,164.0
4160,E3,427.0,0.5,95,164.0
4161,A2,427.0,0.5,95,164.0
4162,E-3,427.0,1.0,95,164.0
4163,D2,427.0,1.0,95,164.0
4164,G2,427.25,0.25,95,164.0
4165,D3,427.5,0.5,95,164.0
4166,D3,427.5,0.5,95,164.0
4167,G2,427.5,0.5,95,164.0
4168,D3,427.5,0.5,95,164.0
4169,G2,427.5,0.5,95,164.0
4170,D3,428.0,0.5,95,164.0
4171,E-3,428.0,0.5,95,164.0
4172,B2,428.0,0.5,95,164.0
4173,E2,428.0,0.5,95,164.0
4174,E3,428.0,0.5,95,164.0
4175,A2,428.0,0.5,95,164.0
4176,D3,428.5,0.5,95,164.0
4177,E-3,428.5,0.5,95,164.0
4178,C2,428.5,0.5,95,164.0
4179,D3,429.0,0.5,95,164.0
4180,D2,429.0,0.5,95,164.0
4181,B2,429.0,0.5,95,164.0
4182,E2,429.0,0.5,95,164.0
4183,E3,429.0,0.5,95,164.0
4184,A2,429.0,0.5,95,164.0
4185,E2,429.5,0.25,95,164.0
4186,A2,429.5,0.25,95,164.0
4187,D3,429.5,0.5,95,164.0
4188,C#3,429.5,0.5,95,164.0
4189,E2,429.75,0.25,95,164.0
4190,A2,429.75,0.25,95,164.0
4191,E2,430.0,0.25,95,164.0
4192,D3,430.0,0.5,95,164.0
4193,E3,430.0,0.5,95,164.0
4194,A2,430.0,0.5,95,164.0
4195,E2,430.25,0.25,95,164.0
4196,E2,430.5,0.25,95,164.0
4197,A2,430.5,0.25,95,164.0
4198,D3,430.5,0.5,95,164.0
4199,C2,430.5,0.5,95,164.0
4200,E2,430.75,0.25,95,164.0
4201,A2,430.75,0.25,95,164.0
4202,E2,431.0,0.25,95,164.0
4203,D3,431.0,0.5,95,164.0
4204,E3,431.0,0.5,95,164.0
4205,A2,431.0,0.5,95,164.0
4206,E-3,431.0,1.0,95,164.0
4207,D2,431.0,1.0,95,164.0
4208,E2,431.25,0.25,95,164.0
4209,E2,431.5,0.25,95,164.0
4210,A2,431.5,0.25,95,164.0
4211,D3,431.5,0.5,95,164.0
4212,E2,431.75,0.25,95,164.0
4213,A2,431.75,0.25,95,164.0
4214,E2,432.0,0.25,95,164.0
4215,D3,432.0,0.5,95,164.0
4216,E-3,432.0,0.5,95,164.0
4217,E3,432.0,0.5,95,164.0
4218,A2,432.0,0.5,95,164.0
4219,E2,432.25,0.25,95,164.0
4220,E2,432.5,0.25,95,164.0
4221,A2,432.5,0.25,95,164.0
4222,D3,432.5,0.5,95,164.0
4223,C2,432.5,0.5,95,164.0
4224,E2,432.75,0.25,95,164.0
4225,A2,432.75,0.25,95,164.0
4226,D3,433.0,0.5,95,164.0
4227,E3,433.0,0.5,95,164.0
4228,A2,433.0,0.5,95,164.0
4229,E-3,433.0,1.0,95,164.0
4230,D2,433.0,1.0,95,164.0
4231,C3,433.5,0.5,95,164.0
4232,D3,433.5,0.5,95,164.0
4233,B2,434.0,0.5,95,164.0
4234,E3,434.0,0.5,95,164.0
4235,E-3,434.0,0.5,95,164.0
4236,A2,434.5,0.5,95,164.0
4237,D3,434.5,0.5,95,164.0
4238,C2,434.5,0.5,95,164.0
4239,C3,435.0,0.5,95,164.0
4240,C#3,435.0,0.5,95,164.0
4241,E-3,435.0,1.0,95,164.0
4242,D2,435.0,1.0,95,164.0
4243,B2,435.5,0.5,95,164.0
4244,F#2,435.5,0.5,95,164.0
4245,A2,436.0,0.5,95,164.0
4246,F#2,436.0,0.5,95,164.0
4247,E-3,436.0,0.5,95,164.0
4248,F#2,436.5,0.5,95,164.0
4249,A4,436.5,0.5,95,164.0
4250,A3,436.5,0.5,95,164.0
4251,C#3,436.5,0.5,95,164.0
4252,F#2,436.5,0.5,95,164.0
4253,E-3,436.5,0.5,95,164.0
4254,C2,436.5,0.5,95,164.0
4255,F#2,437.0,0.5,95,164.0
4256,D2,437.0,0.5,95,164.0
4257,A4,437.0,4.0,95,164.0
4258,A3,437.0,4.0,95,164.0
4259,F#2,437.5,0.5,95,164.0
4260,C#3,437.5,0.5,95,164.0
4261,C#3,437.5,0.5,95,164.0
4262,F#2,437.5,0.5,95,164.0
4263,F#2,438.0,0.5,95,164.0
4264,F#2,438.0,0.5,95,164.0
4265,F#2,438.5,0.5,95,164.0
4266,C2,438.5,0.5,95,164.0
4267,C#3,438.5,0.5,95,164.0
4268,F#2,438.5,0.5,95,164.0
4269,F#2,439.0,0.5,95,164.0
4270,F#2,439.0,0.5,95,164.0
4271,E-3,439.0,1.0,95,164.0
4272,D2,439.0,1.0,95,164.0
4273,F#2,439.5,0.5,95,164.0
4274,F#2,439.5,0.5,95,164.0
4275,F#2,440.0,0.5,95,164.0
4276,F#2,440.0,0.5,95,164.0
4277,E-3,440.0,0.5,95,164.0
4278,F#2,440.5,0.5,95,164.0
4279,C2,440.5,0.5,95,164.0
4280,C#3,440.5,0.5,95,164.0
4281,F#2,440.5,0.5,95,164.0
4282,F#2,441.0,0.5,95,164.0
4283,F#2,441.0,0.5,95,164.0
4284,E-3,441.0,1.0,95,164.0
4285,D2,441.0,1.0,95,164.0
4286,F#2,441.5,0.5,95,164.0
4287,F#2,441.5,0.5,95,164.0
4288,F#2,442.0,0.5,95,164.0
4289,F#2,442.0,0.5,95,164.0
4290,E-3,442.0,0.5,95,164.0
4291,A2,442.5,0.5,95,164.0
4292,C2,442.5,0.5,95,164.0
4293,C#3,442.5,0.5,95,164.0
4294,F#2,442.5,0.5,95,164.0
4295,F#2,443.0,0.5,95,164.0
4296,F#2,443.0,0.5,95,164.0
4297,E-3,443.0,1.0,95,164.0
4298,D2,443.0,1.0,95,164.0
4299,F#2,443.5,0.5,95,164.0
4300,D3,443.5,0.5,95,164.0
4301,F#2,444.0,0.5,95,164.0
4302,D3,444.0,0.5,95,164.0
4303,E-3,444.0,0.5,95,164.0
4304,D3,444.5,0.5,95,164.0
4305,A4,444.5,3.5,95,164.0
4306,A3,444.5,3.5,95,164.0
4307,C#3,444.5,0.5,95,164.0
4308,F#2,444.5,0.5,95,164.0
4309,E-3,444.5,0.5,95,164.0
4310,C2,444.5,0.5,95,164.0
4311,D3,445.0,0.5,95,164.0
4312,D2,445.0,0.5,95,164.0
4313,A3,445.0,0.5,95,164.0
4314,D3,445.0,0.5,95,164.0
4315,D3,445.5,0.5,95,164.0
4316,C#3,445.5,0.5,95,164.0
4317,D3,446.0,0.5,95,164.0
4318,A3,446.0,0.5,95,164.0
4319,D3,446.0,0.5,95,164.0
4320,D3,446.5,0.5,95,164.0
4321,D3,446.5,0.5,95,164.0
4322,C2,446.5,0.5,95,164.0
4323,D3,447.0,0.5,95,164.0
4324,A3,447.0,0.5,95,164.0
4325,D3,447.0,0.5,95,164.0
4326,E-3,447.0,1.0,95,164.0
4327,D2,447.0,1.0,95,164.0
4328,D3,447.5,0.5,95,164.0
4329,D3,447.5,0.5,95,164.0
4330,D3,448.0,0.5,95,164.0
4331,D3,448.0,0.5,95,164.0
4332,C5,448.0,0.5,95,164.0
4333,C4,448.0,0.5,95,164.0
4334,E-3,448.0,0.5,95,164.0
4335,C2,448.0,0.5,95,164.0
4336,D3,448.5,0.5,95,164.0
4337,D3,448.5,0.5,95,164.0
4338,D2,448.5,0.5,95,164.0
4339,D3,449.0,0.5,95,164.0
4340,E-3,449.0,0.5,95,164.0
4341,A3,449.0,0.5,95,164.0
4342,D3,449.0,0.5,95,164.0
4343,D3,449.5,0.5,95,164.0
4344,D3,449.5,0.5,95,164.0
4345,C2,449.5,0.5,95,164.0
4346,D3,450.0,0.5,95,164.0
4347,D3,450.0,0.5,95,164.0
4348,C#3,450.0,1.0,95,164.0
4349,D2,450.0,1.0,95,164.0
4350,D3,450.5,0.5,95,164.0
4351,D3,450.5,0.5,95,164.0
4352,D3,451.0,0.5,95,164.0
4353,A3,451.0,0.5,95,164.0
4354,D3,451.0,0.5,95,164.0
4355,E-3,451.0,0.5,95,164.0
4356,C2,451.0,0.5,95,164.0
4357,D3,451.5,0.5,95,164.0
4358,E2,451.5,0.5,95,164.0
4359,D2,451.5,0.5,95,164.0
4360,D3,452.0,0.5,95,164.0
4361,E2,452.0,0.5,95,164.0
4362,E-3,452.0,0.5,95,164.0
4363,D3,452.5,0.5,95,164.0
4364,E2,452.5,0.5,95,164.0
4365,D2,452.5,0.25,95,164.0
4366,D2,452.75,0.25,95,164.0
4367,E2,453.0,0.5,95,164.0
4368,D2,453.0,0.25,95,164.0
4369,A3,453.0,0.5,95,164.0
4370,D3,453.0,0.5,95,164.0
4371,D2,453.25,0.25,95,164.0
4372,E2,453.5,0.5,95,164.0
4373,C#3,453.5,0.5,95,164.0
4374,F#2,453.5,0.5,95,164.0
4375,C#3,453.5,0.5,95,164.0
4376,C2,453.5,0.5,95,164.0
4377,E2,454.0,0.5,95,164.0
4378,E2,454.5,0.5,95,164.0
4379,C#3,454.5,0.5,95,164.0
4380,F#2,454.5,0.5,95,164.0
4381,C#3,454.5,0.5,95,164.0
4382,C2,454.5,0.5,95,164.0
4383,F#2,455.0,0.5,95,164.0
4384,E2,455.0,0.5,95,164.0
4385,C2,455.0,0.5,95,164.0
4386,E2,455.5,0.5,95,164.0
4387,C#3,455.5,0.5,95,164.0
4388,F#2,455.5,0.5,95,164.0
4389,B-2,455.5,1.0,95,164.0
4390,D2,455.5,1.0,95,164.0
4391,F#2,456.0,0.5,95,164.0
4392,E2,456.0,0.5,95,164.0
4393,C5,456.0,4.0,95,164.0
4394,C4,456.0,4.0,95,164.0
4395,F#2,456.5,0.5,95,164.0
4396,E2,456.5,0.5,95,164.0
4397,B-2,456.5,0.5,95,164.0
4398,F#2,457.0,0.5,95,164.0
4399,E2,457.0,0.5,95,164.0
4400,C2,457.0,0.5,95,164.0
4401,E2,457.5,0.5,95,164.0
4402,C#3,457.5,0.5,95,164.0
4403,F#2,457.5,0.5,95,164.0
4404,B-2,457.5,1.0,95,164.0
4405,D2,457.5,1.0,95,164.0
4406,F#2,458.0,0.5,95,164.0
4407,E2,458.0,0.5,95,164.0
4408,F#2,458.5,0.5,95,164.0
4409,G2,458.5,0.5,95,164.0
4410,B-2,458.5,0.5,95,164.0
4411,F#2,459.0,0.5,95,164.0
4412,E2,459.0,0.5,95,164.0
4413,C2,459.0,0.5,95,164.0
4414,C3,459.5,0.5,95,164.0
4415,C#3,459.5,0.5,95,164.0
4416,F#2,459.5,0.5,95,164.0
4417,B-2,459.5,1.0,95,164.0
4418,D2,459.5,1.0,95,164.0
4419,F#2,460.0,0.5,95,164.0
4420,C3,460.0,0.5,95,164.0
4421,F#2,460.5,0.5,95,164.0
4422,C3,460.5,0.5,95,164.0
4423,B-2,460.5,0.5,95,164.0
4424,F#2,461.0,0.5,95,164.0
4425,C3,461.0,0.5,95,164.0
4426,C2,461.0,0.5,95,164.0
4427,C3,461.5,0.5,95,164.0
4428,C#3,461.5,0.5,95,164.0
4429,F#2,461.5,0.5,95,164.0
4430,B-2,461.5,0.5,95,164.0
4431,D2,461.5,0.5,95,164.0
4432,C3,462.0,0.5,95,164.0
4433,C2,462.0,0.5,95,164.0
4434,A3,462.0,0.5,95,164.0
4435,D3,462.0,0.5,95,164.0
4436,C3,462.5,0.5,95,164.0
4437,B-2,462.5,0.5,95,164.0
4438,C3,463.0,0.5,95,164.0
4439,C2,463.0,0.5,95,164.0
4440,A3,463.0,0.5,95,164.0
4441,D3,463.0,0.5,95,164.0
4442,D3,463.5,0.5,95,164.0
4443,C3,463.5,0.5,95,164.0
4444,C5,463.5,3.5,95,164.0
4445,C4,463.5,3.5,95,164.0
4446,B-2,463.5,1.0,95,164.0
4447,D2,463.5,1.0,95,164.0
4448,C3,464.0,0.5,95,164.0
4449,A3,464.0,0.5,95,164.0
4450,D3,464.0,0.5,95,164.0
4451,D3,464.5,0.5,95,164.0
4452,C3,464.5,0.5,95,164.0
4453,B-2,464.5,0.5,95,164.0
4454,D3,465.0,0.5,95,164.0
4455,C3,465.0,0.5,95,164.0
4456,C2,465.0,0.5,95,164.0
4457,D3,465.5,0.5,95,164.0
4458,C3,465.5,0.5,95,164.0
4459,B-2,465.5,1.0,95,164.0
4460,D2,465.5,1.0,95,164.0
4461,D3,466.0,0.5,95,164.0
4462,A3,466.0,0.5,95,164.0
4463,D3,466.0,0.5,95,164.0
4464,D3,466.5,0.5,95,164.0
4465,C3,466.5,0.5,95,164.0
4466,B-2,466.5,0.5,95,164.0
4467,D3,467.0,0.5,95,164.0
4468,B2,467.0,0.5,95,164.0
4469,C2,467.0,0.5,95,164.0
4470,B4,467.0,0.5,95,164.0
4471,B3,467.0,0.5,95,164.0
4472,D3,467.5,0.5,95,164.0
4473,E2,467.5,0.5,95,164.0
4474,B-2,467.5,1.0,95,164.0
4475,D2,467.5,1.0,95,164.0
4476,E2,468.0,0.5,95,164.0
4477,A3,468.0,0.5,95,164.0
4478,D3,468.0,0.5,95,164.0
4479,D3,468.5,0.5,95,164.0
4480,E2,468.5,0.5,95,164.0
4481,B-2,468.5,0.5,95,164.0
4482,D3,469.0,0.5,95,164.0
4483,E2,469.0,0.5,95,164.0
4484,C2,469.0,0.5,95,164.0
4485,D3,469.5,0.5,95,164.0
4486,E2,469.5,0.5,95,164.0
4487,B-2,469.5,0.5,95,164.0
4488,D2,469.5,0.5,95,164.0
4489,F#2,470.0,0.5,95,164.0
4490,C2,470.0,0.5,95,164.0
4491,A3,470.0,0.5,95,164.0
4492,D3,470.0,0.5,95,164.0
4493,F#2,470.5,0.5,95,164.0
4494,B-2,470.5,0.5,95,164.0
4495,B3,470.5,0.5,95,164.0
4496,E3,470.5,0.5,95,164.0
4497,F#2,471.0,0.5,95,164.0
4498,C2,471.0,0.5,95,164.0
4499,F#2,471.5,0.5,95,164.0
4500,B3,471.5,0.5,95,164.0
4501,E3,471.5,0.5,95,164.0
4502,B-2,471.5,1.0,95,164.0
4503,D2,471.5,1.0,95,164.0
4504,E3,472.0,0.5,95,164.0
4505,G2,472.0,0.5,95,164.0
4506,G2,472.5,0.5,95,164.0
4507,B-2,472.5,0.5,95,164.0
4508,B3,472.5,0.5,95,164.0
4509,E3,472.5,0.5,95,164.0
4510,E3,473.0,0.5,95,164.0
4511,G2,473.0,0.5,95,164.0
4512,C2,473.0,0.5,95,164.0
4513,E3,473.5,0.5,95,164.0
4514,G2,473.5,0.5,95,164.0
4515,B-2,473.5,1.0,95,164.0
4516,D2,473.5,1.0,95,164.0
4517,E3,474.0,0.5,95,164.0
4518,A2,474.0,0.5,95,164.0
4519,A2,474.5,0.5,95,164.0
4520,B-2,474.5,0.5,95,164.0
4521,B3,474.5,0.5,95,164.0
4522,E3,474.5,0.5,95,164.0
4523,E3,475.0,0.5,95,164.0
4524,A2,475.0,0.5,95,164.0
4525,C2,475.0,0.5,95,164.0
4526,B4,475.0,4.0,95,164.0
4527,B3,475.0,4.0,95,164.0
4528,E3,475.5,0.5,95,164.0
4529,A2,475.5,0.5,95,164.0
4530,B-2,475.5,1.0,95,164.0
4531,D2,475.5,1.0,95,164.0
4532,E3,476.0,0.5,95,164.0
4533,B2,476.0,0.5,95,164.0
4534,B2,476.5,0.5,95,164.0
4535,B-2,476.5,0.5,95,164.0
4536,B3,476.5,0.5,95,164.0
4537,E3,476.5,0.5,95,164.0
4538,E3,477.0,0.5,95,164.0
4539,B2,477.0,0.5,95,164.0
4540,C2,477.0,0.5,95,164.0
4541,E3,477.5,0.5,95,164.0
4542,B2,477.5,0.5,95,164.0
4543,B-2,477.5,0.5,95,164.0
4544,D2,477.5,0.5,95,164.0
4545,E3,478.0,0.5,95,164.0
4546,B2,478.0,0.5,95,164.0
4547,C2,478.0,0.25,95,164.0
4548,C2,478.25,0.25,95,164.0
4549,B2,478.5,0.5,95,164.0
4550,C#3,478.5,0.5,95,164.0
4551,B3,478.5,0.5,95,164.0
4552,E3,478.5,0.5,95,164.0
4553,B2,479.0,0.5,95,164.0
4554,C2,479.0,0.5,95,164.0
4555,G3,479.0,0.5,95,164.0
4556,C3,479.0,0.5,95,164.0
4557,B2,479.5,0.5,95,164.0
4558,B-2,479.5,0.5,95,164.0
4559,D2,479.5,0.5,95,164.0
4560,B2,480.0,0.5,95,164.0
4561,C2,480.0,0.5,95,164.0
4562,G3,480.0,0.5,95,164.0
4563,C3,480.0,0.5,95,164.0
4564,C3,480.5,0.5,95,164.0
4565,B2,480.5,0.5,95,164.0
4566,B-2,480.5,0.5,95,164.0
4567,D2,480.5,0.5,95,164.0
4568,B2,481.0,0.5,95,164.0
4569,C2,481.0,0.5,95,164.0
4570,G3,481.0,0.5,95,164.0
4571,C3,481.0,0.5,95,164.0
4572,C3,481.5,0.5,95,164.0
4573,B2,481.5,0.5,95,164.0
4574,B-2,481.5,0.5,95,164.0
4575,D2,481.5,0.5,95,164.0
4576,C3,482.0,0.5,95,164.0
4577,B2,482.0,0.5,95,164.0
4578,C2,482.0,0.5,95,164.0
4579,C3,482.5,0.5,95,164.0
4580,B2,482.5,0.5,95,164.0
4581,B4,482.5,3.5,95,164.0
4582,B3,482.5,3.5,95,164.0
4583,B-2,482.5,0.5,95,164.0
4584,D2,482.5,0.5,95,164.0
4585,B2,483.0,0.5,95,164.0
4586,C2,483.0,0.5,95,164.0
4587,G3,483.0,0.5,95,164.0
4588,C3,483.0,0.5,95,164.0
4589,C3,483.5,0.5,95,164.0
4590,B-2,483.5,0.5,95,164.0
4591,B-2,483.5,0.5,95,164.0
4592,D2,483.5,0.5,95,164.0
4593,C3,484.0,0.5,95,164.0
4594,B-2,484.0,0.5,95,164.0
4595,C2,484.0,0.5,95,164.0
4596,C3,484.5,0.5,95,164.0
4597,B-2,484.5,0.5,95,164.0
4598,C#3,484.5,0.5,95,164.0
4599,D2,484.5,0.5,95,164.0
4600,B-2,485.0,0.5,95,164.0
4601,D2,485.0,0.25,95,164.0
4602,G3,485.0,0.5,95,164.0
4603,C3,485.0,0.5,95,164.0
4604,D2,485.25,0.25,95,164.0
4605,C3,485.5,0.5,95,164.0
4606,B-2,485.5,0.5,95,164.0
4607,D2,485.5,0.25,95,164.0
4608,D2,485.75,0.25,95,164.0
4609,C3,486.0,0.5,95,164.0
4610,B-2,486.0,0.5,95,164.0
4611,C#3,486.0,0.5,95,164.0
4612,A4,486.0,0.5,95,164.0
4613,A3,486.0,0.5,95,164.0
4614,C3,486.5,0.5,95,164.0
4615,B-2,486.5,0.5,95,164.0
4616,B-2,487.0,0.5,95,164.0
4617,C2,487.0,0.5,95,164.0
4618,G3,487.0,0.5,95,164.0
4619,C3,487.0,0.5,95,164.0
4620,B-2,487.5,0.5,95,164.0
4621,B2,487.5,0.5,95,164.0
4622,E2,487.5,0.5,95,164.0
4623,E-3,487.5,1.0,95,164.0
4624,D2,487.5,1.0,95,164.0
4625,E2,488.0,0.5,95,164.0
4626,B-2,488.0,0.5,95,164.0
4627,E2,488.5,0.5,95,164.0
4628,B-2,488.5,0.5,95,164.0
4629,E-3,488.5,0.5,95,164.0
4630,B-2,489.0,0.5,95,164.0
4631,C2,489.0,0.5,95,164.0
4632,B2,489.0,0.5,95,164.0
4633,E2,489.0,0.5,95,164.0
4634,E2,489.5,0.5,95,164.0
4635,B-2,489.5,0.5,95,164.0
4636,E-3,489.5,1.0,95,164.0
4637,D2,489.5,1.0,95,164.0
4638,F#2,490.0,0.5,95,164.0
4639,B-2,490.0,0.5,95,164.0
4640,F#2,490.5,0.5,95,164.0
4641,A2,490.5,0.5,95,164.0
4642,E-3,490.5,0.5,95,164.0
4643,G2,491.0,0.5,95,164.0
4644,C2,491.0,0.5,95,164.0
4645,C#3,491.0,0.5,95,164.0
4646,F#2,491.0,0.5,95,164.0
4647,F#2,491.5,0.5,95,164.0
4648,E2,491.5,0.5,95,164.0
4649,E-3,491.5,1.0,95,164.0
4650,D2,491.5,1.0,95,164.0
4651,G2,492.0,0.5,95,164.0
4652,E2,492.0,0.5,95,164.0
4653,G2,492.5,0.5,95,164.0
4654,E2,492.5,0.5,95,164.0
4655,E-3,492.5,0.5,95,164.0
4656,E2,493.0,0.5,95,164.0
4657,D3,493.0,0.5,95,164.0
4658,G2,493.0,0.5,95,164.0
4659,E-3,493.0,0.5,95,164.0
4660,C2,493.0,0.5,95,164.0
4661,G2,493.5,0.5,95,164.0
4662,E2,493.5,0.5,95,164.0
4663,D2,493.5,0.5,95,164.0
4664,A2,494.0,0.5,95,164.0
4665,E2,494.0,0.5,95,164.0
4666,C#3,494.0,0.5,95,164.0
4667,A4,494.0,4.0,95,164.0
4668,A3,494.0,4.0,95,164.0
4669,A2,494.5,0.5,95,164.0
4670,E2,494.5,0.5,95,164.0
4671,E2,495.0,0.5,95,164.0
4672,C2,495.0,0.5,95,164.0
4673,E3,495.0,0.5,95,164.0
4674,A2,495.0,0.5,95,164.0
4675,A2,495.5,0.5,95,164.0
4676,E2,495.5,0.5,95,164.0
4677,E-3,495.5,1.0,95,164.0
4678,D2,495.5,1.0,95,164.0
4679,B2,496.0,0.5,95,164.0
4680,E2,496.0,0.5,95,164.0
4681,B2,496.5,0.5,95,164.0
4682,E2,496.5,0.5,95,164.0
4683,E-3,496.5,0.5,95,164.0
4684,E2,497.0,0.5,95,164.0
4685,C2,497.0,0.5,95,164.0
4686,F#3,497.0,0.5,95,164.0
4687,B2,497.0,0.5,95,164.0
4688,B2,497.5,0.5,95,164.0
4689,E2,497.5,0.5,95,164.0
4690,E-3,497.5,1.0,95,164.0
4691,D2,497.5,1.0,95,164.0
4692,B2,498.0,0.5,95,164.0
4693,E2,498.0,0.5,95,164.0
4694,B2,498.5,0.5,95,164.0
4695,G2,498.5,0.5,95,164.0
4696,E-3,498.5,0.5,95,164.0
4697,A2,499.0,0.5,95,164.0
4698,C2,499.0,0.5,95,164.0
4699,F#3,499.0,0.5,95,164.0
4700,B2,499.0,0.5,95,164.0
4701,B2,499.5,0.5,95,164.0
4702,B-2,499.5,0.5,95,164.0
4703,E-3,499.5,1.0,95,164.0
4704,D2,499.5,1.0,95,164.0
4705,B2,500.0,0.5,95,164.0
4706,B-2,500.0,0.5,95,164.0
4707,B2,500.5,0.5,95,164.0
4708,B-2,500.5,0.5,95,164.0
4709,E-3,500.5,0.5,95,164.0
4710,B-2,501.0,0.5,95,164.0
4711,F#3,501.0,0.5,95,164.0
4712,B2,501.0,0.5,95,164.0
4713,E-3,501.0,0.5,95,164.0
4714,C2,501.0,0.5,95,164.0
4715,B2,501.5,0.5,95,164.0
4716,B-2,501.5,0.5,95,164.0
4717,D2,501.5,0.5,95,164.0
4718,A4,501.5,3.5,95,164.0
4719,A3,501.5,3.5,95,164.0
4720,B2,502.0,0.5,95,164.0
4721,B-2,502.0,0.5,95,164.0
4722,C#3,502.0,0.5,95,164.0
4723,B2,502.5,0.5,95,164.0
4724,B-2,502.5,0.5,95,164.0
4725,B-2,503.0,0.5,95,164.0
4726,C2,503.0,0.5,95,164.0
4727,F#3,503.0,0.5,95,164.0
4728,B2,503.0,0.5,95,164.0
4729,B-2,503.5,0.5,95,164.0
4730,F3,503.5,0.5,95,164.0
4731,B-2,503.5,0.5,95,164.0
4732,E-3,503.5,1.0,95,164.0
4733,D2,503.5,1.0,95,164.0
4734,B-2,504.0,0.5,95,164.0
4735,B-2,504.5,0.5,95,164.0
4736,E-3,504.5,0.5,95,164.0
4737,F3,504.5,0.5,95,164.0
4738,B-2,504.5,0.5,95,164.0
4739,B-2,505.0,0.25,95,164.0
4740,B-2,505.0,0.5,95,164.0
4741,C2,505.0,0.5,95,164.0
4742,E5,505.0,0.5,95,164.0
4743,E4,505.0,0.5,95,164.0
4744,B-2,505.25,0.25,95,164.0
4745,B-2,505.5,0.25,95,164.0
4746,B-2,505.5,0.5,95,164.0
4747,E-3,505.5,1.0,95,164.0
4748,D2,505.5,1.0,95,164.0
4749,B-2,505.75,0.25,95,164.0
4750,B-2,506.0,0.25,95,164.0
4751,B-2,506.0,0.5,95,164.0
4752,B-2,506.25,0.25,95,164.0
4753,B-2,506.5,0.25,95,164.0
4754,A2,506.5,0.5,95,164.0
4755,E-3,506.5,0.5,95,164.0
4756,B-2,506.75,0.25,95,164.0
4757,B-2,507.0,0.25,95,164.0
4758,G2,507.0,0.5,95,164.0
4759,C2,507.0,0.5,95,164.0
4760,B-2,507.25,0.25,95,164.0
4761,B-2,507.5,0.25,95,164.0
4762,E2,507.5,0.5,95,164.0
4763,E-3,507.5,1.0,95,164.0
4764,D2,507.5,1.0,95,164.0
4765,B-2,507.75,0.25,95,164.0
4766,B-2,508.0,0.25,95,164.0
4767,E2,508.0,0.5,95,164.0
4768,B-2,508.25,0.25,95,164.0
4769,B-2,508.5,0.25,95,164.0
4770,E2,508.5,0.5,95,164.0
4771,E-3,508.5,0.5,95,164.0
4772,B-2,508.75,0.25,95,164.0
4773,B-2,509.0,0.25,95,164.0
4774,E2,509.0,0.5,95,164.0
4775,E-3,509.0,0.5,95,164.0
4776,C2,509.0,0.5,95,164.0
4777,B-2,509.25,0.25,95,164.0
4778,B-2,509.5,0.25,95,164.0
4779,E2,509.5,0.5,95,164.0
4780,D2,509.5,0.5,95,164.0
4781,B-2,509.75,0.25,95,164.0
4782,B-2,510.0,0.25,95,164.0
4783,E2,510.0,0.5,95,164.0
4784,C#3,510.0,0.5,95,164.0
4785,B-2,510.25,0.25,95,164.0
4786,E2,510.5,0.5,95,164.0
4787,F3,510.5,0.5,95,164.0
4788,B-2,510.5,0.5,95,164.0
4789,E2,511.0,0.5,95,164.0
4790,C2,511.0,0.5,95,164.0
4791,E3,511.0,0.5,95,164.0
4792,A2,511.0,0.5,95,164.0
4793,E2,511.5,0.5,95,164.0
4794,D3,511.5,0.5,95,164.0
4795,G2,511.5,0.5,95,164.0
4796,E-3,511.5,0.5,95,164.0
4797,D2,511.5,0.5,95,164.0
4798,E2,512.0,0.5,95,164.0
4799,B2,512.0,167/1000,95,164.0
4800,B2,512.0,0.5,95,164.0
4801,E2,512.0,0.5,95,164.0
4802,B2,512.167,167/1000,95,164.0
4803,B2,512.333,167/1000,95,164.0
4804,D2,512.5,0.5,95,164.0
4805,B2,513.0,0.5,95,164.0
4806,E5,513.0,4.0,95,164.0
4807,E4,513.0,4.0,95,164.0
4808,B2,513.0,0.5,95,164.0
4809,E2,513.0,0.5,95,164.0
4810,E2,513.5,0.25,95,164.0
4811,A2,513.5,0.5,95,164.0
4812,E2,513.75,0.25,95,164.0
4813,E2,514.0,0.25,95,164.0
4814,G2,514.0,0.5,95,164.0
4815,E2,514.25,0.25,95,164.0
4816,E2,514.5,0.25,95,164.0
4817,D2,514.5,0.5,95,164.0
4818,E2,514.75,0.25,95,164.0
4819,E2,515.0,0.25,95,164.0
4820,E2,515.25,0.25,95,164.0
4821,E2,515.5,0.25,95,164.0
4822,A2,515.5,0.5,95,164.0
4823,E2,515.75,0.25,95,164.0
4824,E2,516.0,0.25,95,164.0
4825,A2,516.0,0.5,95,164.0
4826,E2,516.25,0.25,95,164.0
4827,E2,516.5,0.25,95,164.0
4828,A2,516.5,0.5,95,164.0
4829,E2,516.75,0.25,95,164.0
4830,E2,517.0,0.25,95,164.0
4831,A2,517.0,0.5,95,164.0
4832,E2,517.25,0.25,95,164.0
4833,E2,517.5,0.25,95,164.0
4834,A2,517.5,0.5,95,164.0
4835,E2,517.75,0.25,95,164.0
4836,E2,518.0,0.25,95,164.0
4837,A2,518.0,0.5,95,164.0
4838,C#3,518.0,0.5,95,164.0
4839,C2,518.0,0.5,95,164.0
4840,E2,518.25,0.25,95,164.0
4841,E2,518.5,0.25,95,164.0
4842,A2,518.5,0.5,95,164.0
4843,E2,518.75,0.25,95,164.0
4844,A2,519.0,0.5,95,164.0
4845,C2,519.0,0.25,95,164.0
4846,B2,519.0,0.5,95,164.0
4847,E2,519.0,0.5,95,164.0
4848,C2,519.25,0.25,95,164.0
4849,A2,519.5,0.5,95,164.0
4850,D3,519.5,0.5,95,164.0
4851,G2,519.5,0.5,95,164.0
4852,B-2,519.5,0.5,95,164.0
4853,D2,519.5,0.5,95,164.0
4854,A2,520.0,0.5,95,164.0
4855,C2,520.0,0.25,95,164.0
4856,E3,520.0,0.5,95,164.0
4857,A2,520.0,0.5,95,164.0
4858,C2,520.25,0.25,95,164.0
4859,A2,520.5,0.5,95,164.0
4860,B-2,520.5,0.5,95,164.0
4861,E5,520.5,3.5,95,164.0
4862,E4,520.5,3.5,95,164.0
4863,F3,520.5,0.5,95,164.0
4864,B-2,520.5,0.5,95,164.0
4865,A2,521.0,0.5,95,164.0
4866,C2,521.0,0.25,95,164.0
4867,C2,521.25,0.25,95,164.0
4868,A2,521.5,0.5,95,164.0
4869,F3,521.5,0.5,95,164.0
4870,B-2,521.5,0.5,95,164.0
4871,B-2,521.5,0.5,95,164.0
4872,D2,521.5,0.5,95,164.0
4873,B-2,522.0,0.25,95,164.0
4874,A2,522.0,0.5,95,164.0
4875,C2,522.0,0.25,95,164.0
4876,B-2,522.25,0.25,95,164.0
4877,C2,522.25,0.25,95,164.0
4878,B-2,522.5,0.25,95,164.0
4879,A2,522.5,0.5,95,164.0
4880,B-2,522.5,0.5,95,164.0
4881,B-2,522.75,0.25,95,164.0
4882,B-2,523.0,0.25,95,164.0
4883,A2,523.0,0.5,95,164.0
4884,C2,523.0,0.25,95,164.0
4885,B-2,523.25,0.25,95,164.0
4886,C2,523.25,0.25,95,164.0
4887,B-2,523.5,0.25,95,164.0
4888,F2,523.5,0.5,95,164.0
4889,B-2,523.5,0.5,95,164.0
4890,D2,523.5,0.5,95,164.0
4891,B-2,523.75,0.25,95,164.0
4892,B-2,524.0,0.25,95,164.0
4893,F2,524.0,0.5,95,164.0
4894,C2,524.0,0.25,95,164.0
4895,F5,524.0,0.5,95,164.0
4896,F4,524.0,0.5,95,164.0
4897,B-2,524.25,0.25,95,164.0
4898,C2,524.25,0.25,95,164.0
4899,B-2,524.5,0.25,95,164.0
4900,F2,524.5,0.5,95,164.0
4901,B-2,524.5,0.5,95,164.0
4902,B-2,524.75,0.25,95,164.0
4903,B-2,525.0,0.25,95,164.0
4904,F2,525.0,0.5,95,164.0
4905,C2,525.0,0.25,95,164.0
4906,B-2,525.25,0.25,95,164.0
4907,C2,525.25,0.25,95,164.0
4908,B-2,525.5,0.25,95,164.0
4909,F2,525.5,0.5,95,164.0
4910,D2,525.5,0.5,95,164.0
4911,B-2,525.75,0.25,95,164.0
4912,B-2,526.0,0.25,95,164.0
4913,F2,526.0,0.5,95,164.0
4914,C#3,526.0,0.5,95,164.0
4915,C2,526.0,0.5,95,164.0
4916,B-2,526.25,0.25,95,164.0
4917,B-2,526.5,0.25,95,164.0
4918,F2,526.5,0.5,95,164.0
4919,B-2,526.75,0.25,95,164.0
4920,B-2,527.0,0.25,95,164.0
4921,F2,527.0,0.5,95,164.0
4922,C2,527.0,0.25,95,164.0
4923,B-2,527.25,0.25,95,164.0
4924,C2,527.25,0.25,95,164.0
4925,F2,527.5,0.5,95,164.0
4926,F3,527.5,0.5,95,164.0
4927,B-2,527.5,0.5,95,164.0
4928,B-2,527.5,0.5,95,164.0
4929,D2,527.5,0.5,95,164.0
4930,F2,528.0,0.5,95,164.0
4931,C2,528.0,0.25,95,164.0
4932,E3,528.0,0.5,95,164.0
4933,A2,528.0,0.5,95,164.0
4934,C2,528.25,0.25,95,164.0
4935,F2,528.5,0.5,95,164.0
4936,B-2,528.5,0.5,95,164.0
4937,D3,528.5,0.5,95,164.0
4938,G2,528.5,0.5,95,164.0
4939,F2,529.0,0.5,95,164.0
4940,C2,529.0,0.25,95,164.0
4941,B2,529.0,0.5,95,164.0
4942,E2,529.0,0.5,95,164.0
4943,C2,529.25,0.25,95,164.0
4944,F2,529.5,0.5,95,164.0
4945,B-2,529.5,0.5,95,164.0
4946,D2,529.5,0.5,95,164.0
4947,F2,530.0,0.5,95,164.0
4948,C2,530.0,0.25,95,164.0
4949,B2,530.0,0.5,95,164.0
4950,E2,530.0,0.5,95,164.0
4951,C2,530.25,0.25,95,164.0
4952,E2,530.5,0.25,95,164.0
4953,F2,530.5,0.5,95,164.0
4954,B-2,530.5,0.5,95,164.0
4955,E2,530.75,0.25,95,164.0
4956,E2,531.0,0.25,95,164.0
4957,F2,531.0,0.5,95,164.0
4958,C2,531.0,0.25,95,164.0
4959,E2,531.25,0.25,95,164.0
4960,C2,531.25,0.25,95,164.0
4961,E2,531.5,0.25,95,164.0
4962,G2,531.5,0.5,95,164.0
4963,B-2,531.5,0.5,95,164.0
4964,D2,531.5,0.5,95,164.0
4965,E2,531.75,0.25,95,164.0
4966,E2,532.0,0.25,95,164.0
4967,G2,532.0,0.5,95,164.0
4968,C2,532.0,0.25,95,164.0
4969,F5,532.0,4.0,95,164.0
4970,F4,532.0,4.0,95,164.0
4971,E2,532.25,0.25,95,164.0
4972,C2,532.25,0.25,95,164.0
4973,E2,532.5,0.25,95,164.0
4974,G2,532.5,0.5,95,164.0
4975,B-2,532.5,0.5,95,164.0
4976,E2,532.75,0.25,95,164.0
4977,E2,533.0,0.25,95,164.0
4978,G2,533.0,0.5,95,164.0
4979,C2,533.0,0.25,95,164.0
4980,E2,533.25,0.25,95,164.0
4981,C2,533.25,0.25,95,164.0
4982,E2,533.5,0.25,95,164.0
4983,G2,533.5,0.5,95,164.0
4984,D2,533.5,0.5,95,164.0
4985,E2,533.75,0.25,95,164.0
4986,G2,534.0,0.5,95,164.0
4987,B2,534.0,0.5,95,164.0
4988,E2,534.0,0.5,95,164.0
4989,C#3,534.0,0.5,95,164.0
4990,C2,534.0,0.5,95,164.0
4991,G2,534.5,0.5,95,164.0
4992,G2,535.0,0.5,95,164.0
4993,C2,535.0,0.25,95,164.0
4994,C2,535.25,0.25,95,164.0
4995,G2,535.5,0.5,95,164.0
4996,B-2,535.5,0.5,95,164.0
4997,D2,535.5,0.5,95,164.0
4998,G2,536.0,0.5,95,164.0
4999,C2,536.0,0.25,95,164.0
5000,C2,536.25,0.25,95,164.0
5001,G2,536.5,0.5,95,164.0
5002,B-2,536.5,0.5,95,164.0
5003,G2,537.0,0.5,95,164.0
5004,C2,537.0,0.25,95,164.0
5005,C2,537.25,0.25,95,164.0
5006,G2,537.5,0.5,95,164.0
5007,E3,537.5,0.5,95,164.0
5008,A2,537.5,0.5,95,164.0
5009,B-2,537.5,0.5,95,164.0
5010,D2,537.5,0.5,95,164.0
5011,G2,538.0,0.5,95,164.0
5012,C2,538.0,0.25,95,164.0
5013,E3,538.0,0.5,95,164.0
5014,A2,538.0,0.5,95,164.0
5015,C2,538.25,0.25,95,164.0
5016,A2,538.5,0.25,95,164.0
5017,G2,538.5,0.5,95,164.0
5018,B-2,538.5,0.5,95,164.0
5019,A2,538.75,0.25,95,164.0
5020,G2,539.0,0.5,95,164.0
5021,C2,539.0,0.25,95,164.0
5022,E3,539.0,0.5,95,164.0
5023,A2,539.0,0.5,95,164.0
5024,C2,539.25,0.25,95,164.0
5025,A2,539.5,0.25,95,164.0
5026,A2,539.5,0.5,95,164.0
5027,F5,539.5,3.5,95,164.0
5028,F4,539.5,3.5,95,164.0
5029,B-2,539.5,0.5,95,164.0
5030,D2,539.5,0.5,95,164.0
5031,A2,539.75,0.25,95,164.0
5032,A2,540.0,0.5,95,164.0
5033,C2,540.0,0.25,95,164.0
5034,E3,540.0,0.5,95,164.0
5035,A2,540.0,0.5,95,164.0
5036,C2,540.25,0.25,95,164.0
5037,A2,540.5,0.25,95,164.0
5038,A2,540.5,0.5,95,164.0
5039,B-2,540.5,0.5,95,164.0
5040,A2,540.75,0.25,95,164.0
5041,A2,541.0,0.5,95,164.0
5042,C2,541.0,0.25,95,164.0
5043,E3,541.0,0.5,95,164.0
5044,A2,541.0,0.5,95,164.0
5045,C2,541.25,0.25,95,164.0
5046,A2,541.5,0.25,95,164.0
5047,A2,541.5,0.5,95,164.0
5048,D2,541.5,0.5,95,164.0
5049,A2,541.75,0.25,95,164.0
5050,A2,542.0,0.5,95,164.0
5051,E3,542.0,0.5,95,164.0
5052,A2,542.0,0.5,95,164.0
5053,C#3,542.0,0.5,95,164.0
5054,C2,542.0,0.5,95,164.0
5055,A2,542.5,0.25,95,164.0
5056,A2,542.5,0.5,95,164.0
5057,A2,542.75,0.25,95,164.0
5058,A2,543.0,0.5,95,164.0
5059,C2,543.0,0.25,95,164.0
5060,G5,543.0,0.5,95,164.0
5061,G4,543.0,0.5,95,164.0
5062,E3,543.0,0.5,95,164.0
5063,A2,543.0,0.5,95,164.0
5064,C2,543.25,0.25,95,164.0
5065,A2,543.5,0.25,95,164.0
5066,A2,543.5,0.5,95,164.0
5067,B-2,543.5,0.5,95,164.0
5068,D2,543.5,0.5,95,164.0
5069,A2,543.75,0.25,95,164.0
5070,A2,544.0,0.5,95,164.0
5071,C2,544.0,0.25,95,164.0
5072,E3,544.0,0.5,95,164.0
5073,A2,544.0,0.5,95,164.0
5074,C2,544.25,0.25,95,164.0
5075,A2,544.5,0.25,95,164.0
5076,C3,544.5,0.5,95,164.0
5077,B-2,544.5,0.5,95,164.0
5078,A2,544.75,0.25,95,164.0
5079,B2,545.0,0.5,95,164.0
5080,C2,545.0,0.25,95,164.0
5081,E3,545.0,0.5,95,164.0
5082,A2,545.0,0.5,95,164.0
5083,C2,545.25,0.25,95,164.0
5084,A2,545.5,0.5,95,164.0
5085,C3,545.5,0.5,95,164.0
5086,F2,545.5,0.5,95,164.0
5087,B-2,545.5,0.5,95,164.0
5088,D2,545.5,0.5,95,164.0
5089,C3,546.0,0.5,95,164.0
5090,D3,546.0,167/1000,95,164.0
5091,D3,546.167,167/1000,95,164.0
5092,B2,546.333,167/1000,95,164.0
5093,B2,546.5,0.5,95,164.0
5094,D2,546.5,0.5,95,164.0
5095,C3,546.5,0.5,95,164.0
5096,F2,546.5,0.5,95,164.0
5097,F2,547.0,0.25,95,164.0
5098,A2,547.0,0.5,95,164.0
5099,D2,547.0,0.5,95,164.0
5100,F2,547.25,0.25,95,164.0
5101,A2,547.5,0.5,95,164.0
5102,D2,547.5,0.5,95,164.0
5103,C3,547.5,0.5,95,164.0
5104,F2,547.5,0.5,95,164.0
5105,F2,548.0,0.25,95,164.0
5106,A2,548.0,0.5,95,164.0
5107,D2,548.0,0.5,95,164.0
5108,F2,548.25,0.25,95,164.0
5109,A2,548.5,0.5,95,164.0
5110,D2,548.5,0.5,95,164.0
5111,C3,548.5,0.5,95,164.0
5112,F2,548.5,0.5,95,164.0
5113,F2,549.0,0.25,95,164.0
5114,A2,549.0,0.5,95,164.0
5115,D2,549.0,0.25,95,164.0
5116,F2,549.25,0.25,95,164.0
5117,D2,549.25,0.25,95,164.0
5118,A2,549.5,0.5,95,164.0
5119,D2,549.5,0.25,95,164.0
5120,C3,549.5,0.5,95,164.0
5121,F2,549.5,0.5,95,164.0
5122,D2,549.75,0.25,95,164.0
5123,F2,550.0,0.25,95,164.0
5124,A2,550.0,0.5,95,164.0
5125,C#3,550.0,0.5,95,164.0
5126,D2,550.0,0.5,95,164.0
5127,F2,550.25,0.25,95,164.0
5128,A2,550.5,0.5,95,164.0
5129,C3,550.5,0.5,95,164.0
5130,F2,550.5,0.5,95,164.0
5131,F2,551.0,0.25,95,164.0
5132,A2,551.0,0.5,95,164.0
5133,C2,551.0,0.25,95,164.0
5134,G5,551.0,4.0,95,164.0
5135,G4,551.0,4.0,95,164.0
5136,F2,551.25,0.25,95,164.0
5137,C2,551.25,0.25,95,164.0
5138,A2,551.5,0.5,95,164.0
5139,C3,551.5,0.5,95,164.0
5140,F2,551.5,0.5,95,164.0
5141,B-2,551.5,0.5,95,164.0
5142,D2,551.5,0.5,95,164.0
5143,F2,552.0,0.25,95,164.0
5144,A2,552.0,0.5,95,164.0
5145,C2,552.0,0.25,95,164.0
5146,F2,552.25,0.25,95,164.0
5147,C2,552.25,0.25,95,164.0
5148,A2,552.5,0.5,95,164.0
5149,B-2,552.5,0.5,95,164.0
5150,C3,552.5,0.5,95,164.0
5151,F2,552.5,0.5,95,164.0
5152,F2,553.0,0.25,95,164.0
5153,A2,553.0,0.5,95,164.0
5154,C2,553.0,0.25,95,164.0
5155,F2,553.25,0.25,95,164.0
5156,C2,553.25,0.25,95,164.0
5157,A2,553.5,0.5,95,164.0
5158,C3,553.5,0.5,95,164.0
5159,F2,553.5,0.5,95,164.0
5160,B-2,553.5,0.5,95,164.0
5161,D2,553.5,0.5,95,164.0
5162,A2,554.0,0.5,95,164.0
5163,C2,554.0,0.25,95,164.0
5164,D3,554.0,0.5,95,164.0
5165,G2,554.0,0.5,95,164.0
5166,C2,554.25,0.25,95,164.0
5167,A2,554.5,0.5,95,164.0
5168,B-2,554.5,0.5,95,164.0
5169,A2,555.0,0.5,95,164.0
5170,C2,555.0,0.25,95,164.0
5171,D3,555.0,0.5,95,164.0
5172,G2,555.0,0.5,95,164.0
5173,C2,555.25,0.25,95,164.0
5174,G2,555.5,0.25,95,164.0
5175,F2,555.5,0.5,95,164.0
5176,B-2,555.5,0.5,95,164.0
5177,D2,555.5,0.5,95,164.0
5178,G2,555.75,0.25,95,164.0
5179,F2,556.0,0.5,95,164.0
5180,C2,556.0,0.25,95,164.0
5181,D3,556.0,0.5,95,164.0
5182,G2,556.0,0.5,95,164.0
5183,C2,556.25,0.25,95,164.0
5184,G2,556.5,0.25,95,164.0
5185,F2,556.5,0.5,95,164.0
5186,B-2,556.5,0.5,95,164.0
5187,G2,556.75,0.25,95,164.0
5188,F2,557.0,0.5,95,164.0
5189,C2,557.0,0.25,95,164.0
5190,D3,557.0,0.5,95,164.0
5191,G2,557.0,0.5,95,164.0
5192,C2,557.25,0.25,95,164.0
5193,G2,557.5,0.25,95,164.0
5194,F2,557.5,0.5,95,164.0
5195,D2,557.5,0.5,95,164.0
5196,G2,557.75,0.25,95,164.0
5197,F2,558.0,0.5,95,164.0
5198,D3,558.0,0.5,95,164.0
5199,G2,558.0,0.5,95,164.0
5200,C#3,558.0,0.5,95,164.0
5201,C2,558.0,0.5,95,164.0
5202,G2,558.5,0.25,95,164.0
5203,F2,558.5,0.5,95,164.0
5204,G5,558.5,3.5,95,164.0
5205,G4,558.5,3.5,95,164.0
5206,G2,558.75,0.25,95,164.0
5207,F2,559.0,0.5,95,164.0
5208,C2,559.0,0.25,95,164.0
5209,D3,559.0,0.5,95,164.0
5210,G2,559.0,0.5,95,164.0
5211,C2,559.25,0.25,95,164.0
5212,G2,559.5,0.25,95,164.0
5213,F2,559.5,0.5,95,164.0
5214,B-2,559.5,0.5,95,164.0
5215,D2,559.5,0.5,95,164.0
5216,G2,559.75,0.25,95,164.0
5217,F2,560.0,0.5,95,164.0
5218,C2,560.0,0.25,95,164.0
5219,D3,560.0,0.5,95,164.0
5220,G2,560.0,0.5,95,164.0
5221,C2,560.25,0.25,95,164.0
5222,G2,560.5,0.25,95,164.0
5223,F2,560.5,0.5,95,164.0
5224,B-2,560.5,0.5,95,164.0
5225,G2,560.75,0.25,95,164.0
5226,F2,561.0,0.5,95,164.0
5227,C2,561.0,0.25,95,164.0
5228,D3,561.0,0.5,95,164.0
5229,G2,561.0,0.5,95,164.0
5230,C2,561.25,0.25,95,164.0
5231,G2,561.5,0.25,95,164.0
5232,F2,561.5,0.5,95,164.0
5233,B-2,561.5,0.5,95,164.0
5234,D2,561.5,0.5,95,164.0
5235,G2,561.75,0.25,95,164.0
5236,F2,562.0,0.5,95,164.0
5237,C2,562.0,0.25,95,164.0
5238,A5,562.0,0.5,95,164.0
5239,A4,562.0,0.5,95,164.0
5240,D3,562.0,0.5,95,164.0
5241,G2,562.0,0.5,95,164.0
5242,C2,562.25,0.25,95,164.0
5243,F2,562.5,0.5,95,164.0
5244,B-2,562.5,0.5,95,164.0
5245,E3,562.5,0.5,95,164.0
5246,A2,562.5,0.5,95,164.0
5247,F2,563.0,0.5,95,164.0
5248,C2,563.0,0.25,95,164.0
5249,C2,563.25,0.25,95,164.0
5250,G2,563.5,0.5,95,164.0
5251,E3,563.5,0.5,95,164.0
5252,A2,563.5,0.5,95,164.0
5253,B-2,563.5,0.5,95,164.0
5254,D2,563.5,0.5,95,164.0
5255,A2,564.0,0.25,95,164.0
5256,G2,564.0,0.5,95,164.0
5257,C2,564.0,0.25,95,164.0
5258,A2,564.25,0.25,95,164.0
5259,C2,564.25,0.25,95,164.0
5260,G2,564.5,0.5,95,164.0
5261,B-2,564.5,0.5,95,164.0
5262,E3,564.5,0.5,95,164.0
5263,A2,564.5,0.5,95,164.0
5264,A2,565.0,0.25,95,164.0
5265,G2,565.0,0.5,95,164.0
5266,C2,565.0,0.25,95,164.0
5267,A2,565.25,0.25,95,164.0
5268,C2,565.25,0.25,95,164.0
5269,G2,565.5,0.5,95,164.0
5270,D2,565.5,0.5,95,164.0
5271,E3,565.5,0.5,95,164.0
5272,A2,565.5,0.5,95,164.0
5273,A2,566.0,0.25,95,164.0
5274,G2,566.0,0.5,95,164.0
5275,C#3,566.0,0.5,95,164.0
5276,C2,566.0,0.5,95,164.0
5277,A2,566.25,0.25,95,164.0
5278,G2,566.5,0.5,95,164.0
5279,A5,566.5,4.0,95,164.0
5280,A4,566.5,4.0,95,164.0
5281,E3,566.5,0.5,95,164.0
5282,A2,566.5,0.5,95,164.0
5283,A2,567.0,0.25,95,164.0
5284,G2,567.0,0.5,95,164.0
5285,C2,567.0,0.25,95,164.0
5286,A2,567.25,0.25,95,164.0
5287,C2,567.25,0.25,95,164.0
5288,G2,567.5,0.5,95,164.0
5289,E3,567.5,0.5,95,164.0
5290,A2,567.5,0.5,95,164.0
5291,B-2,567.5,0.5,95,164.0
5292,D2,567.5,0.5,95,164.0
5293,C3,568.0,0.5,95,164.0
5294,G2,568.0,0.5,95,164.0
5295,C2,568.0,0.25,95,164.0
5296,C2,568.25,0.25,95,164.0
5297,B2,568.5,0.5,95,164.0
5298,G2,568.5,0.5,95,164.0
5299,B-2,568.5,0.5,95,164.0
5300,A2,569.0,0.5,95,164.0
5301,G2,569.0,0.5,95,164.0
5302,C2,569.0,0.25,95,164.0
5303,C2,569.25,0.25,95,164.0
5304,C3,569.5,0.5,95,164.0
5305,G2,569.5,0.5,95,164.0
5306,B-2,569.5,0.5,95,164.0
5307,D2,569.5,0.5,95,164.0
5308,B2,570.0,0.5,95,164.0
5309,G2,570.0,0.5,95,164.0
5310,C2,570.0,0.25,95,164.0
5311,C2,570.25,0.25,95,164.0
5312,A2,570.5,0.5,95,164.0
5313,G2,570.5,0.5,95,164.0
5314,B-2,570.5,0.5,95,164.0
5315,G2,571.0,0.5,95,164.0
5316,C2,571.0,0.25,95,164.0
5317,E3,571.0,0.5,95,164.0
5318,A2,571.0,0.5,95,164.0
5319,C2,571.25,0.25,95,164.0
5320,A2,571.5,0.5,95,164.0
5321,B-2,571.5,0.5,95,164.0
5322,D2,571.5,0.5,95,164.0
5323,A2,572.0,0.5,95,164.0
5324,C2,572.0,0.25,95,164.0
5325,E3,572.0,0.5,95,164.0
5326,A2,572.0,0.5,95,164.0
5327,C2,572.25,0.25,95,164.0
5328,A2,572.5,0.25,95,164.0
5329,A2,572.5,0.5,95,164.0
5330,B-2,572.5,0.5,95,164.0
5331,A2,572.75,0.25,95,164.0
5332,A2,573.0,0.5,95,164.0
5333,C2,573.0,0.25,95,164.0
5334,E3,573.0,0.5,95,164.0
5335,A2,573.0,0.5,95,164.0
5336,C2,573.25,0.25,95,164.0
5337,A2,573.5,0.25,95,164.0
5338,A2,573.5,0.5,95,164.0
5339,D2,573.5,0.5,95,164.0
5340,A2,573.75,0.25,95,164.0
5341,F#3,574.0,0.5,95,164.0
5342,A2,574.0,0.5,95,164.0
5343,E3,574.0,0.5,95,164.0
5344,A2,574.0,0.5,95,164.0
5345,C#3,574.0,0.5,95,164.0
5346,C2,574.0,0.5,95,164.0
5347,F#3,574.5,0.25,95,164.0
5348,A2,574.5,0.25,95,164.0
5349,A2,574.5,0.5,95,164.0
5350,F#3,574.75,0.25,95,164.0
5351,A2,574.75,0.25,95,164.0
5352,F#3,575.0,0.25,95,164.0
5353,A2,575.0,0.5,95,164.0
5354,C2,575.0,0.25,95,164.0
5355,E3,575.0,0.5,95,164.0
5356,A2,575.0,0.5,95,164.0
5357,F#3,575.25,0.25,95,164.0
5358,C2,575.25,0.25,95,164.0
5359,A3,575.5,0.25,95,164.0
5360,A2,575.5,0.25,95,164.0
5361,A2,575.5,0.5,95,164.0
5362,B-2,575.5,0.5,95,164.0
5363,D2,575.5,0.5,95,164.0
5364,A3,575.75,0.25,95,164.0
5365,A2,575.75,0.25,95,164.0
5366,A3,576.0,0.25,95,164.0
5367,A2,576.0,0.5,95,164.0
5368,C2,576.0,0.25,95,164.0
5369,E3,576.0,0.5,95,164.0
5370,A2,576.0,0.5,95,164.0
5371,A3,576.25,0.25,95,164.0
5372,C2,576.25,0.25,95,164.0
5373,G#3,576.5,0.25,95,164.0
5374,A2,576.5,0.25,95,164.0
5375,C3,576.5,0.5,95,164.0
5376,B-2,576.5,0.5,95,164.0
5377,G#3,576.75,0.25,95,164.0
5378,A2,576.75,0.25,95,164.0
5379,G#3,577.0,0.25,95,164.0
5380,B2,577.0,0.5,95,164.0
5381,C2,577.0,0.25,95,164.0
5382,E3,577.0,0.5,95,164.0
5383,A2,577.0,0.5,95,164.0
5384,G#3,577.25,0.25,95,164.0
5385,C2,577.25,0.25,95,164.0
5386,B3,577.5,0.25,95,164.0
5387,A2,577.5,0.25,95,164.0
5388,A2,577.5,0.5,95,164.0
5389,B-2,577.5,0.5,95,164.0
5390,D2,577.5,0.5,95,164.0
5391,B3,577.75,0.25,95,164.0
5392,A2,577.75,0.25,95,164.0
5393,B3,578.0,0.25,95,164.0
5394,C3,578.0,0.5,95,164.0
5395,D3,578.0,167/1000,95,164.0
5396,E3,578.0,0.5,95,164.0
5397,A2,578.0,0.5,95,164.0
5398,D3,578.167,167/1000,95,164.0
5399,B3,578.25,0.25,95,164.0
5400,B2,578.333,167/1000,95,164.0
5401,A3,578.5,0.25,95,164.0
5402,A2,578.5,0.25,95,164.0
5403,B2,578.5,0.5,95,164.0
5404,D2,578.5,0.5,95,164.0
5405,A3,578.75,0.25,95,164.0
5406,A2,578.75,0.25,95,164.0
5407,A3,579.0,0.25,95,164.0
5408,A2,579.0,0.5,95,164.0
5409,D2,579.0,0.5,95,164.0
5410,E3,579.0,0.5,95,164.0
5411,A2,579.0,0.5,95,164.0
5412,A3,579.25,0.25,95,164.0
5413,G#3,579.5,0.5,95,164.0
5414,A2,579.5,0.5,95,164.0
5415,D2,579.5,0.5,95,164.0
5416,C3,579.5,0.5,95,164.0
5417,F2,579.5,0.5,95,164.0
5418,F#3,580.0,0.5,95,164.0
5419,A2,580.0,0.5,95,164.0
5420,D2,580.0,0.5,95,164.0
5421,A3,580.5,0.5,95,164.0
5422,A2,580.5,0.5,95,164.0
5423,D2,580.5,0.5,95,164.0
5424,C3,580.5,0.5,95,164.0
5425,F2,580.5,0.5,95,164.0
5426,G#3,581.0,0.5,95,164.0
5427,F2,581.0,0.25,95,164.0
5428,A2,581.0,0.5,95,164.0
5429,D2,581.0,0.25,95,164.0
5430,F2,581.25,0.25,95,164.0
5431,D2,581.25,0.25,95,164.0
5432,F#3,581.5,0.5,95,164.0
5433,A2,581.5,0.5,95,164.0
5434,D2,581.5,0.25,95,164.0
5435,C3,581.5,0.5,95,164.0
5436,F2,581.5,0.5,95,164.0
5437,D2,581.75,0.25,95,164.0
5438,D3,582.0,0.5,95,164.0
5439,F2,582.0,0.25,95,164.0
5440,A2,582.0,0.5,95,164.0
5441,C#3,582.0,0.5,95,164.0
5442,C2,582.0,0.5,95,164.0
5443,F2,582.25,0.25,95,164.0
5444,D3,582.5,3.5,95,164.0
5445,A2,582.5,0.5,95,164.0
5446,C3,582.5,0.5,95,164.0
5447,F2,582.5,0.5,95,164.0
5448,F2,583.0,0.25,95,164.0
5449,A2,583.0,0.5,95,164.0
5450,C2,583.0,0.5,95,164.0
5451,F2,583.25,0.25,95,164.0
5452,A2,583.5,0.5,95,164.0
5453,C3,583.5,0.5,95,164.0
5454,F2,583.5,0.5,95,164.0
5455,G3,583.5,1.0,95,164.0
5456,D2,583.5,1.0,95,164.0
5457,F2,584.0,0.25,95,164.0
5458,A2,584.0,0.5,95,164.0
5459,F2,584.25,0.25,95,164.0
5460,A2,584.5,0.5,95,164.0
5461,E-3,584.5,0.5,95,164.0
5462,C3,584.5,0.5,95,164.0
5463,F2,584.5,0.5,95,164.0
5464,F2,585.0,0.25,95,164.0
5465,A2,585.0,0.5,95,164.0
5466,C2,585.0,0.5,95,164.0
5467,F2,585.25,0.25,95,164.0
5468,A2,585.5,0.5,95,164.0
5469,C3,585.5,0.5,95,164.0
5470,F2,585.5,0.5,95,164.0
5471,E-3,585.5,1.0,95,164.0
5472,D2,585.5,1.0,95,164.0
5473,C#3,586.0,0.5,95,164.0
5474,F2,586.0,0.25,95,164.0
5475,A2,586.0,0.5,95,164.0
5476,F2,586.25,0.25,95,164.0
5477,D3,586.5,0.5,95,164.0
5478,C3,586.5,0.5,95,164.0
5479,E-3,586.5,0.5,95,164.0
5480,C3,586.5,0.5,95,164.0
5481,F2,586.5,0.5,95,164.0
5482,D3,587.0,0.5,95,164.0
5483,F2,587.0,0.25,95,164.0
5484,A2,587.0,0.5,95,164.0
5485,C2,587.0,0.5,95,164.0
5486,F2,587.25,0.25,95,164.0
5487,E3,587.5,0.5,95,164.0
5488,F2,587.5,0.5,95,164.0
5489,C3,587.5,0.5,95,164.0
5490,F2,587.5,0.5,95,164.0
5491,E-3,587.5,1.0,95,164.0
5492,D2,587.5,1.0,95,164.0
5493,A3,588.0,0.5,95,164.0
5494,F2,588.0,0.5,95,164.0
5495,D3,588.0,0.5,95,164.0
5496,G2,588.0,0.5,95,164.0
5497,G#3,588.5,0.5,95,164.0
5498,F2,588.5,0.5,95,164.0
5499,E-3,588.5,0.5,95,164.0
5500,E3,589.0,1.0,95,164.0
5501,F2,589.0,0.5,95,164.0
5502,D3,589.0,0.5,95,164.0
5503,G2,589.0,0.5,95,164.0
5504,E-3,589.0,0.5,95,164.0
5505,C2,589.0,0.5,95,164.0
5506,G2,589.5,0.25,95,164.0
5507,F2,589.5,0.5,95,164.0
5508,D2,589.5,0.5,95,164.0
5509,G2,589.75,0.25,95,164.0
5510,E4,590.0,0.5,95,164.0
5511,F2,590.0,0.5,95,164.0
5512,D3,590.0,0.5,95,164.0
5513,G2,590.0,0.5,95,164.0
5514,C#3,590.0,0.5,95,164.0
5515,C2,590.0,0.5,95,164.0
5516,E4,590.5,1.0,95,164.0
5517,G2,590.5,0.25,95,164.0
5518,F2,590.5,0.5,95,164.0
5519,G2,590.75,0.25,95,164.0
5520,F2,591.0,0.5,95,164.0
5521,C2,591.0,0.5,95,164.0
5522,D3,591.0,0.5,95,164.0
5523,G2,591.0,0.5,95,164.0
5524,F#4,591.5,0.5,95,164.0
5525,G2,591.5,0.25,95,164.0
5526,F2,591.5,0.5,95,164.0
5527,G3,591.5,1.0,95,164.0
5528,D2,591.5,1.0,95,164.0
5529,G2,591.75,0.25,95,164.0
5530,E4,592.0,2.0,95,164.0
5531,F2,592.0,0.5,95,164.0
5532,D3,592.0,0.5,95,164.0
5533,G2,592.0,0.5,95,164.0
5534,G2,592.5,0.25,95,164.0
5535,F2,592.5,0.5,95,164.0
5536,E-3,592.5,0.5,95,164.0
5537,G2,592.75,0.25,95,164.0
5538,F2,593.0,0.5,95,164.0
5539,C2,593.0,0.5,95,164.0
5540,D3,593.0,0.5,95,164.0
5541,G2,593.0,0.5,95,164.0
5542,G2,593.5,0.25,95,164.0
5543,F2,593.5,0.5,95,164.0
5544,E-3,593.5,1.0,95,164.0
5545,D2,593.5,1.0,95,164.0
5546,G2,593.75,0.25,95,164.0
5547,F2,594.0,0.5,95,164.0
5548,A4,594.0,0.5,95,164.0
5549,F#4,594.0,0.5,95,164.0
5550,D3,594.0,0.5,95,164.0
5551,G2,594.0,0.5,95,164.0
5552,G2,594.5,0.25,95,164.0
5553,F2,594.5,0.5,95,164.0
5554,E-3,594.5,0.5,95,164.0
5555,G2,594.75,0.25,95,164.0
5556,F2,595.0,0.5,95,164.0
5557,C2,595.0,0.5,95,164.0
5558,A4,595.0,0.5,95,164.0
5559,F#4,595.0,0.5,95,164.0
5560,D3,595.0,0.5,95,164.0
5561,G2,595.0,0.5,95,164.0
5562,G2,595.5,0.25,95,164.0
5563,G2,595.5,0.5,95,164.0
5564,A4,595.5,0.5,95,164.0
5565,F#4,595.5,0.5,95,164.0
5566,E-3,595.5,1.0,95,164.0
5567,D2,595.5,1.0,95,164.0
5568,G2,595.75,0.25,95,164.0
5569,G2,596.0,0.5,95,164.0
5570,D3,596.0,0.5,95,164.0
5571,G2,596.0,0.5,95,164.0
5572,G2,596.5,0.5,95,164.0
5573,E-3,596.5,0.5,95,164.0
5574,G#4,596.5,1.0,95,164.0
5575,E4,596.5,1.0,95,164.0
5576,E3,596.5,0.5,95,164.0
5577,A2,596.5,0.5,95,164.0
5578,G2,597.0,0.5,95,164.0
5579,E-3,597.0,0.5,95,164.0
5580,C2,597.0,0.5,95,164.0
5581,G2,597.5,0.5,95,164.0
5582,D2,597.5,0.5,95,164.0
5583,G#4,597.5,0.5,95,164.0
5584,E4,597.5,0.5,95,164.0
5585,E3,597.5,0.5,95,164.0
5586,A2,597.5,0.5,95,164.0
5587,A2,598.0,0.25,95,164.0
5588,G2,598.0,0.5,95,164.0
5589,C#3,598.0,0.5,95,164.0
5590,C2,598.0,0.5,95,164.0
5591,A2,598.25,0.25,95,164.0
5592,G2,598.5,0.5,95,164.0
5593,A4,598.5,0.5,95,164.0
5594,D4,598.5,0.5,95,164.0
5595,E3,598.5,0.5,95,164.0
5596,A2,598.5,0.5,95,164.0
5597,A2,599.0,0.25,95,164.0
5598,G2,599.0,0.5,95,164.0
5599,C2,599.0,0.5,95,164.0
5600,A4,599.0,3.5,95,164.0
5601,D4,599.0,3.5,95,164.0
5602,A2,599.25,0.25,95,164.0
5603,G2,599.5,0.5,95,164.0
5604,E3,599.5,0.5,95,164.0
5605,A2,599.5,0.5,95,164.0
5606,G3,599.5,1.0,95,164.0
5607,D2,599.5,1.0,95,164.0
5608,A2,600.0,0.25,95,164.0
5609,G2,600.0,0.5,95,164.0
5610,A2,600.25,0.25,95,164.0
5611,G2,600.5,0.5,95,164.0
5612,E-3,600.5,0.5,95,164.0
5613,E3,600.5,0.5,95,164.0
5614,A2,600.5,0.5,95,164.0
5615,A2,601.0,0.25,95,164.0
5616,G2,601.0,0.5,95,164.0
5617,C2,601.0,0.5,95,164.0
5618,A2,601.25,0.25,95,164.0
5619,G2,601.5,0.5,95,164.0
5620,E3,601.5,0.5,95,164.0
5621,A2,601.5,0.5,95,164.0
5622,E-3,601.5,1.0,95,164.0
5623,D2,601.5,1.0,95,164.0
5624,C3,602.0,0.5,95,164.0
5625,G2,602.0,0.5,95,164.0
5626,B4,602.5,0.5,95,164.0
5627,B2,602.5,0.5,95,164.0
5628,D3,602.5,0.5,95,164.0
5629,E-3,602.5,0.5,95,164.0
5630,B4,603.0,0.5,95,164.0
5631,A2,603.0,0.5,95,164.0
5632,G2,603.0,0.5,95,164.0
5633,C2,603.0,0.5,95,164.0
5634,C#5,603.5,1.0,95,164.0
5635,C3,603.5,0.5,95,164.0
5636,A2,603.5,0.5,95,164.0
5637,E-3,603.5,1.0,95,164.0
5638,D2,603.5,1.0,95,164.0
5639,B2,604.0,0.5,95,164.0
5640,A2,604.0,0.5,95,164.0
5641,A5,604.5,0.5,95,164.0
5642,A2,604.5,0.5,95,164.0
5643,A2,604.5,0.5,95,164.0
5644,E-3,604.5,0.5,95,164.0
5645,G#5,605.0,0.5,95,164.0
5646,A2,605.0,0.5,95,164.0
5647,E3,605.0,0.5,95,164.0
5648,A2,605.0,0.5,95,164.0
5649,E-3,605.0,0.5,95,164.0
5650,C2,605.0,0.5,95,164.0
5651,F#5,605.5,0.5,95,164.0
5652,A2,605.5,0.5,95,164.0
5653,D2,605.5,0.5,95,164.0
5654,C#5,606.0,0.5,95,164.0
5655,A2,606.0,0.5,95,164.0
5656,E3,606.0,0.5,95,164.0
5657,A2,606.0,0.5,95,164.0
5658,C#3,606.0,0.5,95,164.0
5659,C2,606.0,0.5,95,164.0
5660,B4,606.5,0.5,95,164.0
5661,A2,606.5,0.25,95,164.0
5662,A2,606.5,0.5,95,164.0
5663,A2,606.75,0.25,95,164.0
5664,B4,607.0,4.0,95,164.0
5665,A2,607.0,0.5,95,164.0
5666,C2,607.0,0.5,95,164.0
5667,E3,607.0,0.5,95,164.0
5668,A2,607.0,0.5,95,164.0
5669,A2,607.5,0.25,95,164.0
5670,A2,607.5,0.5,95,164.0
5671,G3,607.5,1.0,95,164.0
5672,D2,607.5,1.0,95,164.0
5673,A2,607.75,0.25,95,164.0
5674,A2,608.0,0.5,95,164.0
5675,D3,608.0,0.5,95,164.0
5676,A2,608.0,0.5,95,164.0
5677,A2,608.5,0.5,95,164.0
5678,E3,608.5,0.5,95,164.0
5679,A2,608.5,0.5,95,164.0
5680,E-3,608.5,0.5,95,164.0
5681,C2,608.5,0.5,95,164.0
5682,A2,609.0,0.25,95,164.0
5683,A2,609.0,0.5,95,164.0
5684,D2,609.0,0.5,95,164.0
5685,A2,609.25,0.25,95,164.0
5686,A2,609.5,0.25,95,164.0
5687,A2,609.5,0.5,95,164.0
5688,E-3,609.5,0.5,95,164.0
5689,A2,609.75,0.25,95,164.0
5690,A2,610.0,0.5,95,164.0
5691,C2,610.0,0.5,95,164.0
5692,E3,610.0,0.5,95,164.0
5693,A2,610.0,0.5,95,164.0
5694,A2,610.5,0.25,95,164.0
5695,A2,610.5,0.5,95,164.0
5696,C#3,610.5,1.0,95,164.0
5697,D2,610.5,1.0,95,164.0
5698,A2,610.75,0.25,95,164.0
5699,B4,611.0,4.0,95,164.0
5700,A2,611.0,0.5,95,164.0
5701,E3,611.0,0.5,95,164.0
5702,A2,611.0,0.5,95,164.0
5703,A2,611.5,0.5,95,164.0
5704,A2,611.5,0.5,95,164.0
5705,E-3,611.5,0.5,95,164.0
5706,C2,611.5,0.5,95,164.0
5707,A2,612.0,0.5,95,164.0
5708,D2,612.0,0.5,95,164.0
5709,D3,612.0,0.5,95,164.0
5710,A2,612.0,0.5,95,164.0
5711,A2,612.5,0.5,95,164.0
5712,E-3,612.5,0.5,95,164.0
5713,E3,612.5,0.5,95,164.0
5714,A2,612.5,0.5,95,164.0
5715,A2,613.0,0.5,95,164.0
5716,D2,613.0,0.25,95,164.0
5717,D2,613.25,0.25,95,164.0
5718,A2,613.5,0.5,95,164.0
5719,D2,613.5,0.25,95,164.0
5720,C3,613.5,0.5,95,164.0
5721,F2,613.5,0.5,95,164.0
5722,D2,613.75,0.25,95,164.0
5723,A2,614.0,0.5,95,164.0
5724,C3,614.0,0.5,95,164.0
5725,F2,614.0,0.5,95,164.0
5726,C#3,614.0,0.5,95,164.0
5727,C2,614.0,0.5,95,164.0
5728,F2,614.5,0.25,95,164.0
5729,A2,614.5,0.5,95,164.0
5730,F2,614.75,0.25,95,164.0
5731,B4,615.0,4.0,95,164.0
5732,A2,615.0,0.5,95,164.0
5733,C2,615.0,0.5,95,164.0
5734,C3,615.0,0.5,95,164.0
5735,F2,615.0,0.5,95,164.0
5736,F2,615.5,0.25,95,164.0
5737,A2,615.5,0.5,95,164.0
5738,G3,615.5,1.0,95,164.0
5739,D2,615.5,1.0,95,164.0
5740,F2,615.75,0.25,95,164.0
5741,A2,616.0,0.5,95,164.0
5742,B2,616.0,0.5,95,164.0
5743,F2,616.0,0.5,95,164.0
5744,A2,616.5,0.5,95,164.0
5745,E-3,616.5,0.5,95,164.0
5746,C3,616.5,0.5,95,164.0
5747,F2,616.5,0.5,95,164.0
5748,F2,617.0,0.25,95,164.0
5749,A2,617.0,0.5,95,164.0
5750,C2,617.0,0.5,95,164.0
5751,F2,617.25,0.25,95,164.0
5752,F2,617.5,0.25,95,164.0
5753,A2,617.5,0.5,95,164.0
5754,E-3,617.5,1.0,95,164.0
5755,D2,617.5,1.0,95,164.0
5756,F2,617.75,0.25,95,164.0
5757,A2,618.0,0.5,95,164.0
5758,C3,618.0,0.5,95,164.0
5759,F2,618.0,0.5,95,164.0
5760,F2,618.5,0.25,95,164.0
5761,A2,618.5,0.5,95,164.0
5762,E-3,618.5,0.5,95,164.0
5763,F2,618.75,0.25,95,164.0
5764,B4,619.0,2.0,95,164.0
5765,A2,619.0,0.5,95,164.0
5766,C2,619.0,0.5,95,164.0
5767,C3,619.0,0.5,95,164.0
5768,F2,619.0,0.5,95,164.0
5769,F2,619.5,0.25,95,164.0
5770,F2,619.5,0.5,95,164.0
5771,E-3,619.5,1.0,95,164.0
5772,D2,619.5,1.0,95,164.0
5773,F2,619.75,0.25,95,164.0
5774,F2,620.0,0.5,95,164.0
5775,B2,620.0,0.5,95,164.0
5776,F2,620.0,0.5,95,164.0
5777,F2,620.5,0.5,95,164.0
5778,E-3,620.5,0.5,95,164.0
5779,C3,620.5,0.5,95,164.0
5780,F2,620.5,0.5,95,164.0
5781,F2,621.0,0.5,95,164.0
5782,E-3,621.0,0.5,95,164.0
5783,C2,621.0,0.5,95,164.0
5784,F2,621.5,0.5,95,164.0
5785,D2,621.5,0.5,95,164.0
5786,D3,621.5,0.5,95,164.0
5787,G2,621.5,0.5,95,164.0
5788,F2,622.0,0.5,95,164.0
5789,D3,622.0,0.5,95,164.0
5790,G2,622.0,0.5,95,164.0
5791,C#3,622.0,0.5,95,164.0
5792,C2,622.0,0.5,95,164.0
5793,E5,622.5,167/1000,95,164.0
5794,G2,622.5,0.25,95,164.0
5795,F2,622.5,0.5,95,164.0
5796,E5,622.667,167/1000,95,164.0
5797,G2,622.75,0.25,95,164.0
5798,E5,622.833,167/1000,95,164.0
5799,G5,623.0,0.25,95,164.0
5800,F2,623.0,0.5,95,164.0
5801,C2,623.0,0.5,95,164.0
5802,D3,623.0,0.5,95,164.0
5803,G2,623.0,0.5,95,164.0
5804,E5,623.25,0.25,95,164.0
5805,D5,623.5,0.25,95,164.0
5806,G2,623.5,0.25,95,164.0
5807,F2,623.5,0.5,95,164.0
5808,G3,623.5,1.0,95,164.0
5809,D2,623.5,1.0,95,164.0
5810,B4,623.75,0.25,95,164.0
5811,G2,623.75,0.25,95,164.0
5812,A5,624.0,0.25,95,164.0
5813,F2,624.0,0.5,95,164.0
5814,C3,624.0,0.5,95,164.0
5815,G2,624.0,0.5,95,164.0
5816,E5,624.25,0.25,95,164.0
5817,G5,624.5,0.25,95,164.0
5818,F2,624.5,0.5,95,164.0
5819,E-3,624.5,0.5,95,164.0
5820,D3,624.5,0.5,95,164.0
5821,G2,624.5,0.5,95,164.0
5822,E5,624.75,0.25,95,164.0
5823,D5,625.0,0.25,95,164.0
5824,G2,625.0,0.25,95,164.0
5825,F2,625.0,0.5,95,164.0
5826,C2,625.0,0.5,95,164.0
5827,B4,625.25,0.25,95,164.0
5828,G2,625.25,0.25,95,164.0
5829,A5,625.5,167/1000,95,164.0
5830,G2,625.5,0.25,95,164.0
5831,F2,625.5,0.5,95,164.0
5832,E-3,625.5,1.0,95,164.0
5833,D2,625.5,1.0,95,164.0
5834,G5,625.667,167/1000,95,164.0
5835,G2,625.75,0.25,95,164.0
5836,E5,625.833,167/1000,95,164.0
5837,G5,626.0,0.25,95,164.0
5838,F2,626.0,0.5,95,164.0
5839,D3,626.0,0.5,95,164.0
5840,G2,626.0,0.5,95,164.0
5841,E5,626.25,0.25,95,164.0
5842,D5,626.5,0.25,95,164.0
5843,G2,626.5,0.25,95,164.0
5844,F2,626.5,0.5,95,164.0
5845,E-3,626.5,0.5,95,164.0
5846,B4,626.75,0.25,95,164.0
5847,G2,626.75,0.25,95,164.0
5848,A5,627.0,0.25,95,164.0
5849,F2,627.0,0.5,95,164.0
5850,C2,627.0,0.5,95,164.0
5851,D3,627.0,0.5,95,164.0
5852,G2,627.0,0.5,95,164.0
5853,E5,627.25,0.25,95,164.0
5854,G5,627.5,0.25,95,164.0
5855,G2,627.5,0.25,95,164.0
5856,G2,627.5,0.5,95,164.0
5857,E-3,627.5,1.0,95,164.0
5858,D2,627.5,1.0,95,164.0
5859,E5,627.75,0.25,95,164.0
5860,G2,627.75,0.25,95,164.0
5861,D5,628.0,0.25,95,164.0
5862,G2,628.0,0.5,95,164.0
5863,C3,628.0,0.5,95,164.0
5864,G2,628.0,0.5,95,164.0
5865,B4,628.25,0.25,95,164.0
5866,A5,628.5,0.25,95,164.0
5867,G2,628.5,0.5,95,164.0
5868,E-3,628.5,0.5,95,164.0
5869,D3,628.5,0.5,95,164.0
5870,G2,628.5,0.5,95,164.0
5871,E5,628.75,0.25,95,164.0
5872,G5,629.0,0.25,95,164.0
5873,G2,629.0,0.5,95,164.0
5874,E-3,629.0,0.5,95,164.0
5875,C2,629.0,0.5,95,164.0
5876,E5,629.25,0.25,95,164.0
5877,D5,629.5,0.25,95,164.0
5878,G2,629.5,0.5,95,164.0
5879,D2,629.5,0.5,95,164.0
5880,E3,629.5,0.5,95,164.0
5881,A2,629.5,0.5,95,164.0
5882,B4,629.75,0.25,95,164.0
5883,A5,630.0,0.25,95,164.0
5884,G2,630.0,0.5,95,164.0
5885,E3,630.0,0.5,95,164.0
5886,A2,630.0,0.5,95,164.0
5887,C#3,630.0,0.5,95,164.0
5888,C2,630.0,0.5,95,164.0
5889,E5,630.25,0.25,95,164.0
5890,G5,630.5,0.25,95,164.0
5891,A2,630.5,0.25,95,164.0
5892,G2,630.5,0.5,95,164.0
5893,E5,630.75,0.25,95,164.0
5894,A2,630.75,0.25,95,164.0
5895,A5,631.0,0.25,95,164.0
5896,G2,631.0,0.5,95,164.0
5897,C2,631.0,0.5,95,164.0
5898,E3,631.0,0.5,95,164.0
5899,A2,631.0,0.5,95,164.0
5900,G5,631.25,0.25,95,164.0
5901,E5,631.5,0.25,95,164.0
5902,A2,631.5,0.25,95,164.0
5903,G2,631.5,0.5,95,164.0
5904,G3,631.5,1.0,95,164.0
5905,D2,631.5,1.0,95,164.0
5906,D5,631.75,0.25,95,164.0
5907,A2,631.75,0.25,95,164.0
5908,A5,632.0,0.25,95,164.0
5909,G2,632.0,0.5,95,164.0
5910,D3,632.0,0.5,95,164.0
5911,A2,632.0,0.5,95,164.0
5912,G5,632.25,0.25,95,164.0
5913,E5,632.5,0.25,95,164.0
5914,G2,632.5,0.5,95,164.0
5915,E-3,632.5,0.5,95,164.0
5916,E3,632.5,0.5,95,164.0
5917,A2,632.5,0.5,95,164.0
5918,D5,632.75,0.25,95,164.0
5919,B5,633.0,0.25,95,164.0
5920,A2,633.0,0.25,95,164.0
5921,G2,633.0,0.5,95,164.0
5922,C2,633.0,0.5,95,164.0
5923,G5,633.25,0.25,95,164.0
5924,A2,633.25,0.25,95,164.0
5925,A5,633.5,0.25,95,164.0
5926,A2,633.5,0.25,95,164.0
5927,G2,633.5,0.5,95,164.0
5928,E-3,633.5,1.0,95,164.0
5929,D2,633.5,1.0,95,164.0
5930,G5,633.75,0.25,95,164.0
5931,A2,633.75,0.25,95,164.0
5932,E5,634.0,0.25,95,164.0
5933,G2,634.0,0.5,95,164.0
5934,E3,634.0,0.5,95,164.0
5935,A2,634.0,0.5,95,164.0
5936,G5,634.25,0.25,95,164.0
5937,E5,634.5,0.25,95,164.0
5938,A2,634.5,0.25,95,164.0
5939,G2,634.5,0.5,95,164.0
5940,E-3,634.5,0.5,95,164.0
5941,D5,634.75,0.25,95,164.0
5942,A2,634.75,0.25,95,164.0
5943,D6,635.0,0.25,95,164.0
5944,G2,635.0,0.5,95,164.0
5945,C2,635.0,0.5,95,164.0
5946,E3,635.0,0.5,95,164.0
5947,A2,635.0,0.5,95,164.0
5948,B5,635.25,0.25,95,164.0
5949,A5,635.5,0.25,95,164.0
5950,A2,635.5,0.5,95,164.0
5951,A2,635.5,0.5,95,164.0
5952,E-3,635.5,1.0,95,164.0
5953,D2,635.5,1.0,95,164.0
5954,F#5,635.75,0.25,95,164.0
5955,F5,636.0,0.25,95,164.0
5956,A2,636.0,0.5,95,164.0
5957,D3,636.0,0.5,95,164.0
5958,A2,636.0,0.5,95,164.0
5959,E5,636.25,0.25,95,164.0
5960,A5,636.5,0.25,95,164.0
5961,A2,636.5,0.5,95,164.0
5962,E-3,636.5,0.5,95,164.0
5963,E3,636.5,0.5,95,164.0
5964,A2,636.5,0.5,95,164.0
5965,F#5,636.75,0.25,95,164.0
5966,F5,637.0,0.25,95,164.0
5967,A2,637.0,0.5,95,164.0
5968,E-3,637.0,0.5,95,164.0
5969,C2,637.0,0.5,95,164.0
5970,D5,637.25,0.25,95,164.0
5971,B4,637.5,0.25,95,164.0
5972,A2,637.5,0.5,95,164.0
5973,D2,637.5,0.5,95,164.0
5974,E3,637.5,0.5,95,164.0
5975,A2,637.5,0.5,95,164.0
5976,A4,637.75,0.25,95,164.0
5977,F#4,638.0,0.25,95,164.0
5978,A2,638.0,0.5,95,164.0
5979,E3,638.0,0.5,95,164.0
5980,A2,638.0,0.5,95,164.0
5981,C#3,638.0,0.5,95,164.0
5982,C2,638.0,0.5,95,164.0
5983,F4,638.25,0.25,95,164.0
5984,D4,638.5,0.5,95,164.0
5985,A2,638.5,0.25,95,164.0
5986,A2,638.5,0.5,95,164.0
5987,A2,638.75,0.25,95,164.0
5988,D4,639.0,0.5,95,164.0
5989,A2,639.0,0.5,95,164.0
5990,C2,639.0,0.5,95,164.0
5991,E3,639.0,0.5,95,164.0
5992,A2,639.0,0.5,95,164.0
5993,A2,639.5,0.25,95,164.0
5994,A2,639.5,0.5,95,164.0
5995,G3,639.5,1.0,95,164.0
5996,D2,639.5,1.0,95,164.0
5997,A2,639.75,0.25,95,164.0
5998,A2,640.0,0.5,95,164.0
5999,D3,640.0,0.5,95,164.0
6000,A2,640.0,0.5,95,164.0
6001,A2,640.5,0.5,95,164.0
6002,E3,640.5,0.5,95,164.0
6003,A2,640.5,0.5,95,164.0
6004,E-3,640.5,0.5,95,164.0
6005,C2,640.5,0.5,95,164.0
6006,A2,641.0,0.25,95,164.0
6007,A2,641.0,0.5,95,164.0
6008,D2,641.0,0.5,95,164.0
6009,A2,641.25,0.25,95,164.0
6010,A2,641.5,0.25,95,164.0
6011,A2,641.5,0.5,95,164.0
6012,E-3,641.5,0.5,95,164.0
6013,A2,641.75,0.25,95,164.0
6014,A2,642.0,0.5,95,164.0
6015,C2,642.0,0.5,95,164.0
6016,E3,642.0,0.5,95,164.0
6017,A2,642.0,0.5,95,164.0
6018,A2,642.5,0.25,95,164.0
6019,A2,642.5,0.5,95,164.0
6020,C#3,642.5,1.0,95,164.0
6021,D2,642.5,1.0,95,164.0
6022,A2,642.75,0.25,95,164.0
6023,B-2,643.0,0.25,95,164.0
6024,A2,643.0,0.5,95,164.0
6025,E3,643.0,0.5,95,164.0
6026,A2,643.0,0.5,95,164.0
6027,B-2,643.25,0.25,95,164.0
6028,B-2,643.5,0.25,95,164.0
6029,A2,643.5,0.5,95,164.0
6030,E2,643.5,0.5,95,164.0
6031,E-3,643.5,0.5,95,164.0
6032,C2,643.5,0.5,95,164.0
6033,B-2,643.75,0.25,95,164.0
6034,B-2,644.0,0.25,95,164.0
6035,E2,644.0,0.5,95,164.0
6036,D2,644.0,0.5,95,164.0
6037,D3,644.0,0.5,95,164.0
6038,A2,644.0,0.5,95,164.0
6039,B-2,644.25,0.25,95,164.0
6040,B-2,644.5,0.25,95,164.0
6041,E2,644.5,0.5,95,164.0
6042,E-3,644.5,0.5,95,164.0
6043,E3,644.5,0.5,95,164.0
6044,A2,644.5,0.5,95,164.0
6045,B-2,644.75,0.25,95,164.0
6046,E2,645.0,0.5,95,164.0
6047,D2,645.0,0.25,95,164.0
6048,F3,645.0,0.5,95,164.0
6049,B-2,645.0,0.5,95,164.0
6050,D2,645.25,0.25,95,164.0
6051,E2,645.5,0.5,95,164.0
6052,D2,645.5,0.25,95,164.0
6053,E3,645.5,0.5,95,164.0
6054,A2,645.5,0.5,95,164.0
6055,C3,645.5,0.5,95,164.0
6056,F2,645.5,0.5,95,164.0
6057,D2,645.75,0.25,95,164.0
6058,D3,646.0,0.5,95,164.0
6059,D3,646.0,0.5,95,164.0
6060,G2,646.0,0.5,95,164.0
6061,C3,646.0,0.5,95,164.0
6062,F2,646.0,0.5,95,164.0
6063,C#3,646.0,0.5,95,164.0
6064,C2,646.0,0.5,95,164.0
6065,F2,646.5,0.25,95,164.0
6066,E3,646.5,0.5,95,164.0
6067,B2,646.5,0.5,95,164.0
6068,E2,646.5,0.5,95,164.0
6069,F2,646.75,0.25,95,164.0
6070,E2,647.0,0.5,95,164.0
6071,C2,647.0,0.5,95,164.0
6072,C3,647.0,0.5,95,164.0
6073,F2,647.0,0.5,95,164.0
6074,F2,647.5,0.25,95,164.0
6075,E2,647.5,0.5,95,164.0
6076,B2,647.5,0.5,95,164.0
6077,E2,647.5,0.5,95,164.0
6078,G3,647.5,1.0,95,164.0
6079,D2,647.5,1.0,95,164.0
6080,F2,647.75,0.25,95,164.0
6081,E2,648.0,0.25,95,164.0
6082,E2,648.0,0.5,95,164.0
6083,B2,648.0,0.5,95,164.0
6084,F2,648.0,0.5,95,164.0
6085,E2,648.25,0.25,95,164.0
6086,E2,648.5,0.25,95,164.0
6087,E2,648.5,0.5,95,164.0
6088,B-2,648.5,0.5,95,164.0
6089,C3,648.5,0.5,95,164.0
6090,F2,648.5,0.5,95,164.0
6091,E2,648.75,0.25,95,164.0
6092,E2,649.0,0.25,95,164.0
6093,F2,649.0,0.25,95,164.0
6094,E2,649.0,0.5,95,164.0
6095,C2,649.0,0.5,95,164.0
6096,E2,649.25,0.25,95,164.0
6097,F2,649.25,0.25,95,164.0
6098,E2,649.5,0.25,95,164.0
6099,F2,649.5,0.25,95,164.0
6100,E2,649.5,0.5,95,164.0
6101,B-2,649.5,1.0,95,164.0
6102,D2,649.5,1.0,95,164.0
6103,E2,649.75,0.25,95,164.0
6104,F2,649.75,0.25,95,164.0
6105,E2,650.0,0.25,95,164.0
6106,D3,650.0,0.5,95,164.0
6107,C3,650.0,0.5,95,164.0
6108,F2,650.0,0.5,95,164.0
6109,E2,650.25,0.25,95,164.0
6110,E2,650.5,0.25,95,164.0
6111,F2,650.5,0.25,95,164.0
6112,E3,650.5,0.5,95,164.0
6113,B-2,650.5,0.5,95,164.0
6114,E2,650.75,0.25,95,164.0
6115,F2,650.75,0.25,95,164.0
6116,E2,651.0,0.25,95,164.0
6117,E2,651.0,0.5,95,164.0
6118,C2,651.0,0.5,95,164.0
6119,C3,651.0,0.5,95,164.0
6120,F2,651.0,0.5,95,164.0
6121,E2,651.25,0.25,95,164.0
6122,E2,651.5,0.25,95,164.0
6123,F2,651.5,0.25,95,164.0
6124,G2,651.5,0.5,95,164.0
6125,B-2,651.5,1.0,95,164.0
6126,D2,651.5,1.0,95,164.0
6127,E2,651.75,0.25,95,164.0
6128,F2,651.75,0.25,95,164.0
6129,E2,652.0,0.25,95,164.0
6130,G2,652.0,0.5,95,164.0
6131,B2,652.0,0.5,95,164.0
6132,F2,652.0,0.5,95,164.0
6133,E2,652.25,0.25,95,164.0
6134,E2,652.5,0.25,95,164.0
6135,G2,652.5,0.5,95,164.0
6136,B-2,652.5,0.5,95,164.0
6137,C3,652.5,0.5,95,164.0
6138,F2,652.5,0.5,95,164.0
6139,E2,652.75,0.25,95,164.0
6140,E2,653.0,0.25,95,164.0
6141,G2,653.0,0.5,95,164.0
6142,C2,653.0,0.5,95,164.0
6143,E2,653.25,0.25,95,164.0
6144,G2,653.5,0.5,95,164.0
6145,B2,653.5,0.5,95,164.0
6146,E2,653.5,0.5,95,164.0
6147,D3,653.5,0.5,95,164.0
6148,G2,653.5,0.5,95,164.0
6149,B-2,653.5,0.5,95,164.0
6150,D2,653.5,0.5,95,164.0
6151,G2,654.0,0.5,95,164.0
6152,C#3,654.0,0.5,95,164.0
6153,D3,654.0,0.5,95,164.0
6154,G2,654.0,0.5,95,164.0
6155,D3,654.0,0.5,95,164.0
6156,G2,654.0,0.5,95,164.0
6157,G2,654.5,0.25,95,164.0
6158,G2,654.5,0.5,95,164.0
6159,E3,654.5,0.5,95,164.0
6160,A2,654.5,0.5,95,164.0
6161,G2,654.75,0.25,95,164.0
6162,G2,655.0,0.5,95,164.0
6163,C2,655.0,0.5,95,164.0
6164,F3,655.0,0.5,95,164.0
6165,B-2,655.0,0.5,95,164.0
6166,D3,655.0,0.5,95,164.0
6167,G2,655.0,0.5,95,164.0
6168,G2,655.5,0.25,95,164.0
6169,G2,655.5,0.5,95,164.0
6170,B-2,655.5,1.0,95,164.0
6171,D2,655.5,1.0,95,164.0
6172,G2,655.75,0.25,95,164.0
6173,G2,656.0,0.5,95,164.0
6174,F3,656.0,0.5,95,164.0
6175,B-2,656.0,0.5,95,164.0
6176,C3,656.0,0.5,95,164.0
6177,G2,656.0,0.5,95,164.0
6178,B-2,656.5,0.25,95,164.0
6179,G2,656.5,0.5,95,164.0
6180,B-2,656.5,0.5,95,164.0
6181,D3,656.5,0.5,95,164.0
6182,G2,656.5,0.5,95,164.0
6183,B-2,656.75,0.25,95,164.0
6184,B-2,657.0,0.25,95,164.0
6185,G2,657.0,0.25,95,164.0
6186,G2,657.0,0.5,95,164.0
6187,C2,657.0,0.5,95,164.0
6188,B-2,657.25,0.25,95,164.0
6189,G2,657.25,0.25,95,164.0
6190,B-2,657.5,0.25,95,164.0
6191,G2,657.5,0.25,95,164.0
6192,G2,657.5,0.5,95,164.0
6193,B-2,657.5,1.0,95,164.0
6194,D2,657.5,1.0,95,164.0
6195,B-2,657.75,0.25,95,164.0
6196,G2,657.75,0.25,95,164.0
6197,B-2,658.0,0.25,95,164.0
6198,G2,658.0,0.5,95,164.0
6199,D3,658.0,0.5,95,164.0
6200,G2,658.0,0.5,95,164.0
6201,B-2,658.25,0.25,95,164.0
6202,B-2,658.5,0.25,95,164.0
6203,G2,658.5,0.25,95,164.0
6204,G2,658.5,0.5,95,164.0
6205,B-2,658.5,0.5,95,164.0
6206,B-2,658.75,0.25,95,164.0
6207,G2,658.75,0.25,95,164.0
6208,B-2,659.0,0.25,95,164.0
6209,G2,659.0,0.5,95,164.0
6210,C2,659.0,0.5,95,164.0
6211,D3,659.0,0.5,95,164.0
6212,G2,659.0,0.5,95,164.0
6213,B-2,659.25,0.25,95,164.0
6214,B-2,659.5,0.25,95,164.0
6215,G2,659.5,0.25,95,164.0
6216,A2,659.5,0.5,95,164.0
6217,B-2,659.5,1.0,95,164.0
6218,D2,659.5,1.0,95,164.0
6219,B-2,659.75,0.25,95,164.0
6220,G2,659.75,0.25,95,164.0
6221,B-2,660.0,0.25,95,164.0
6222,A2,660.0,0.5,95,164.0
6223,C3,660.0,0.5,95,164.0
6224,G2,660.0,0.5,95,164.0
6225,B-2,660.25,0.25,95,164.0
6226,B-2,660.5,0.25,95,164.0
6227,A2,660.5,0.5,95,164.0
6228,B-2,660.5,0.5,95,164.0
6229,D3,660.5,0.5,95,164.0
6230,G2,660.5,0.5,95,164.0
6231,B-2,660.75,0.25,95,164.0
6232,B-2,661.0,0.25,95,164.0
6233,A2,661.0,0.5,95,164.0
6234,C2,661.0,0.5,95,164.0
6235,B-2,661.25,0.25,95,164.0
6236,B-2,661.5,0.25,95,164.0
6237,A2,661.5,0.5,95,164.0
6238,E3,661.5,0.5,95,164.0
6239,A2,661.5,0.5,95,164.0
6240,B-2,661.5,0.5,95,164.0
6241,D2,661.5,0.5,95,164.0
6242,B-2,661.75,0.25,95,164.0
6243,A2,662.0,0.5,95,164.0
6244,C#3,662.0,0.5,95,164.0
6245,F3,662.0,0.5,95,164.0
6246,B-2,662.0,0.5,95,164.0
6247,E3,662.0,0.5,95,164.0
6248,A2,662.0,0.5,95,164.0
6249,A2,662.5,0.25,95,164.0
6250,A2,662.5,0.5,95,164.0
6251,E3,662.5,0.5,95,164.0
6252,A2,662.5,0.5,95,164.0
6253,A2,662.75,0.25,95,164.0
6254,A2,663.0,0.5,95,164.0
6255,C2,663.0,0.5,95,164.0
6256,D3,663.0,0.5,95,164.0
6257,G2,663.0,0.5,95,164.0
6258,E3,663.0,0.5,95,164.0
6259,A2,663.0,0.5,95,164.0
6260,A2,663.5,0.25,95,164.0
6261,A2,663.5,0.5,95,164.0
6262,B2,663.5,0.5,95,164.0
6263,E2,663.5,0.5,95,164.0
6264,B-2,663.5,1.0,95,164.0
6265,D2,663.5,1.0,95,164.0
6266,A2,663.75,0.25,95,164.0
6267,A2,664.0,0.5,95,164.0
6268,D3,664.0,0.5,95,164.0
6269,A2,664.0,0.5,95,164.0
6270,A2,664.5,0.5,95,164.0
6271,B-2,664.5,0.5,95,164.0
6272,B2,664.5,0.5,95,164.0
6273,E2,664.5,0.5,95,164.0
6274,E3,664.5,0.5,95,164.0
6275,A2,664.5,0.5,95,164.0
6276,E2,665.0,0.25,95,164.0
6277,A2,665.0,0.25,95,164.0
6278,A2,665.0,0.5,95,164.0
6279,C2,665.0,0.5,95,164.0
6280,E2,665.25,0.25,95,164.0
6281,A2,665.25,0.25,95,164.0
6282,E2,665.5,0.25,95,164.0
6283,A2,665.5,0.25,95,164.0
6284,A2,665.5,0.5,95,164.0
6285,B-2,665.5,0.5,95,164.0
6286,D2,665.5,0.5,95,164.0
6287,E2,665.75,0.25,95,164.0
6288,A2,665.75,0.25,95,164.0
6289,E2,666.0,0.25,95,164.0
6290,A2,666.0,0.5,95,164.0
6291,C2,666.0,0.5,95,164.0
6292,E3,666.0,0.5,95,164.0
6293,A2,666.0,0.5,95,164.0
6294,E2,666.25,0.25,95,164.0
6295,E2,666.5,0.25,95,164.0
6296,A2,666.5,0.25,95,164.0
6297,D2,666.5,0.25,95,164.0
6298,E2,666.75,0.25,95,164.0
6299,A2,666.75,0.25,95,164.0
6300,B2,666.75,0.25,95,164.0
6301,E2,667.0,0.25,95,164.0
6302,A2,667.0,0.5,95,164.0
6303,G2,667.0,0.25,95,164.0
6304,E3,667.0,0.5,95,164.0
6305,A2,667.0,0.5,95,164.0
6306,E2,667.25,0.25,95,164.0
6307,F2,667.25,0.25,95,164.0
6308,E2,667.5,0.25,95,164.0
6309,A2,667.5,0.5,95,164.0
6310,E2,667.5,0.5,95,164.0
6311,D2,667.5,0.25,95,164.0
6312,E2,667.75,0.25,95,164.0
6313,B2,667.75,0.25,95,164.0
6314,E2,668.0,0.25,95,164.0
6315,E2,668.0,0.5,95,164.0
6316,G2,668.0,0.25,95,164.0
6317,D3,668.0,0.5,95,164.0
6318,A2,668.0,0.5,95,164.0
6319,E2,668.25,0.25,95,164.0
6320,F2,668.25,0.25,95,164.0
6321,D2,668.5,0.25,95,164.0
6322,E3,668.5,0.5,95,164.0
6323,A2,668.5,0.5,95,164.0
6324,B2,668.75,0.25,95,164.0
6325,G2,669.0,0.25,95,164.0
6326,F2,669.25,0.25,95,164.0
6327,B3,669.5,0.5,95,164.0
6328,E3,669.5,0.5,95,164.0
6329,C#3,669.5,0.5,95,164.0
6330,D2,669.5,0.5,95,164.0
6331,B3,670.0,0.5,95,164.0
6332,E3,670.0,0.5,95,164.0
6333,G3,670.0,0.5,95,164.0
6334,D2,670.0,0.5,95,164.0
6335,E3,670.5,0.25,95,164.0
6336,E3,670.75,0.25,95,164.0
6337,B3,671.0,0.5,95,164.0
6338,E3,671.0,0.5,95,164.0
6339,G3,671.0,0.5,95,164.0
6340,D2,671.0,0.5,95,164.0
6341,E3,671.5,0.25,95,164.0
6342,E3,671.75,0.25,95,164.0
6343,A4,672.0,0.5,95,164.0
6344,A3,672.0,0.5,95,164.0
6345,A3,672.0,0.5,95,164.0
6346,E3,672.0,0.5,95,164.0
6347,A4,672.5,4.0,95,164.0
6348,A3,672.5,4.0,95,164.0
6349,B3,672.5,0.5,95,164.0
6350,E3,672.5,0.5,95,164.0
6351,E3,673.0,0.25,95,164.0
6352,E3,673.25,0.25,95,164.0
6353,E3,673.5,0.25,95,164.0
6354,E3,673.75,0.25,95,164.0
6355,B3,674.0,0.5,95,164.0
6356,E3,674.0,0.5,95,164.0
6357,E3,674.5,0.25,95,164.0
6358,E3,674.75,0.25,95,164.0
6359,B3,675.0,0.5,95,164.0
6360,E3,675.0,0.5,95,164.0
6361,E3,675.5,0.5,95,164.0
6362,A3,676.0,0.5,95,164.0
6363,E3,676.0,0.5,95,164.0
6364,B3,676.5,0.5,95,164.0
6365,E3,676.5,0.5,95,164.0
6366,D4,677.5,0.5,95,164.0
6367,G3,677.5,0.5,95,164.0
6368,D4,678.0,0.5,95,164.0
6369,G3,678.0,0.5,95,164.0
6370,G3,678.5,0.25,95,164.0
6371,G3,678.75,0.25,95,164.0
6372,D4,679.0,0.5,95,164.0
6373,G3,679.0,0.5,95,164.0
6374,G3,679.5,0.25,95,164.0
6375,G3,679.75,0.25,95,164.0
6376,A4,680.0,3.5,95,164.0
6377,A3,680.0,3.5,95,164.0
6378,C4,680.0,0.5,95,164.0
6379,G3,680.0,0.5,95,164.0
6380,D4,680.5,0.5,95,164.0
6381,G3,680.5,0.5,95,164.0
6382,G3,681.0,0.25,95,164.0
6383,G3,681.25,0.25,95,164.0
6384,G3,681.5,0.25,95,164.0
6385,G3,681.75,0.25,95,164.0
6386,D4,682.0,0.5,95,164.0
6387,G3,682.0,0.5,95,164.0
6388,G3,682.5,0.25,95,164.0
6389,G3,682.75,0.25,95,164.0
6390,D4,683.0,0.5,95,164.0
6391,G3,683.0,0.5,95,164.0
6392,G3,683.5,0.5,95,164.0
6393,C5,683.5,0.5,95,164.0
6394,C4,683.5,0.5,95,164.0
6395,C4,684.0,0.5,95,164.0
6396,G3,684.0,0.5,95,164.0
6397,D4,684.5,0.5,95,164.0
6398,G3,684.5,0.5,95,164.0
6399,E4,685.5,0.5,95,164.0
6400,A3,685.5,0.5,95,164.0
6401,E4,686.0,0.5,95,164.0
6402,A3,686.0,0.5,95,164.0
6403,A3,686.5,0.25,95,164.0
6404,A3,686.75,0.25,95,164.0
6405,E4,687.0,0.5,95,164.0
6406,A3,687.0,0.5,95,164.0
6407,A3,687.5,0.25,95,164.0
6408,A3,687.75,0.25,95,164.0
6409,D4,688.0,0.5,95,164.0
6410,A3,688.0,0.5,95,164.0
6411,E4,688.5,0.5,95,164.0
6412,A3,688.5,0.5,95,164.0
6413,A3,689.0,0.25,95,164.0
6414,A3,689.25,0.25,95,164.0
6415,A3,689.5,0.25,95,164.0
6416,A3,689.75,0.25,95,164.0
6417,E4,690.0,0.5,95,164.0
6418,A3,690.0,0.5,95,164.0
6419,A3,690.5,0.25,95,164.0
6420,A3,690.75,0.25,95,164.0
6421,E4,691.0,0.5,95,164.0
6422,A3,691.0,0.5,95,164.0
6423,A3,691.5,0.5,95,164.0
6424,C5,691.5,4.0,95,164.0
6425,C4,691.5,4.0,95,164.0
6426,E4,692.0,0.5,95,164.0
6427,A3,692.0,0.5,95,164.0
6428,A3,693.0,0.5,95,164.0
6429,D3,693.0,0.5,95,164.0
6430,B3,693.5,0.5,95,164.0
6431,E3,693.5,0.5,95,164.0
6432,B3,694.0,0.5,95,164.0
6433,E3,694.0,0.5,95,164.0
6434,C5,699.0,3.5,95,164.0
6435,C4,699.0,3.5,95,164.0
6436,B4,702.5,0.5,95,164.0
6437,B3,702.5,0.5,95,164.0
6438,B4,710.5,4.0,95,164.0
6439,B3,710.5,4.0,95,164.0
6440,B4,718.0,3.5,95,164.0
6441,B3,718.0,3.5,95,164.0
6442,A4,721.5,0.5,95,164.0
6443,A3,721.5,0.5,95,164.0
6444,A4,729.5,4.0,95,164.0
6445,A3,729.5,4.0,95,164.0
6446,A4,737.0,3.5,95,164.0
6447,A3,737.0,3.5,95,164.0
6448,E5,740.5,0.5,95,164.0
6449,E4,740.5,0.5,95,164.0
6450,E5,748.5,4.0,95,164.0
6451,E4,748.5,4.0,95,164.0
6452,E5,756.0,3.5,95,164.0
6453,E4,756.0,3.5,95,164.0
6454,F5,759.5,0.5,95,164.0
6455,F4,759.5,0.5,95,164.0
6456,F5,767.5,4.0,95,164.0
6457,F4,767.5,4.0,95,164.0
6458,F5,775.0,3.5,95,164.0
6459,F4,775.0,3.5,95,164.0
6460,G5,778.5,0.5,95,164.0
6461,G4,778.5,0.5,95,164.0
6462,G5,786.5,4.0,95,164.0
6463,G4,786.5,4.0,95,164.0
6464,G5,794.0,3.5,95,164.0
6465,G4,794.0,3.5,95,164.0
6466,A5,797.5,0.5,95,164.0
6467,A4,797.5,0.5,95,164.0
6468,A5,802.0,4.0,95,164.0
6469,A4,802.0,4.0,95,164.0
6470,G3,811.938,0.062,95,164.0
6471,A3,812.0,1.0,95,164.0
6472,C4,813.0,1.0,95,164.0
6473,D4,814.0,2.0,95,164.0
6474,D4,816.0,1.0,95,164.0
6475,C4,817.0,0.5,95,164.0
6476,D4,817.5,0.5,95,164.0
6477,D4,818.0,4.0,95,164.0
6478,G4,822.0,1.0,95,164.0
6479,E4,823.0,1.0,95,164.0
6480,D4,824.0,1.0,95,164.0
6481,C4,825.0,0.5,95,164.0
6482,D4,825.5,0.5,95,164.0
6483,D4,826.0,4.0,95,164.0
6484,D4,830.0,2.0,95,164.0
6485,D4,832.0,1.0,95,164.0
6486,C4,833.0,0.5,95,164.0
6487,D4,833.5,0.5,95,164.0
6488,D4,834.0,4.0,95,164.0
6489,D4,838.0,4.0,95,164.0
6490,G4,843.938,0.062,95,164.0
6491,A4,844.0,1.0,95,164.0
6492,C5,845.0,1.0,95,164.0
6493,D5,846.0,1.0,95,164.0
6494,G5,847.0,1.0,95,164.0
6495,D5,848.0,1.0,95,164.0
6496,C5,849.0,0.5,95,164.0
6497,D5,849.5,0.5,95,164.0
6498,D5,850.0,4.0,95,164.0
6499,G5,854.0,2.0,95,164.0
6500,G5,856.0,1.0,95,164.0
6501,E5,857.0,0.5,95,164.0
6502,G5,857.5,0.5,95,164.0
6503,G5,858.0,2.0,95,164.0
6504,G5,860.0,1.0,95,164.0
6505,C6,861.0,0.5,95,164.0
6506,G5,861.5,0.5,95,164.0
6507,G5,862.0,0.5,95,164.0
6508,D5,862.5,1.0,95,164.0
6509,C5,863.5,0.5,95,164.0
6510,G5,864.0,0.5,95,164.0
6511,D5,864.5,1.0,95,164.0
6512,C5,865.5,0.5,95,164.0
6513,D5,866.0,1.0,95,164.0
6514,C5,867.0,0.5,95,164.0
6515,A4,867.5,0.5,95,164.0
6516,C5,868.0,0.5,95,164.0
6517,A4,868.5,0.5,95,164.0
6518,G4,869.0,0.5,95,164.0
6519,A4,869.5,0.5,95,164.0
6520,A4,870.0,4.0,95,164.0
6521,A4,874.0,0.5,95,164.0
6522,E3,874.5,0.25,95,164.0
6523,E3,874.75,0.25,95,164.0
6524,B3,875.0,0.5,95,164.0
6525,E3,875.0,0.5,95,164.0
6526,E3,875.5,0.25,95,164.0
6527,E3,875.75,0.25,95,164.0
6528,A3,876.0,0.5,95,164.0
6529,E3,876.0,0.5,95,164.0
6530,B3,876.5,0.5,95,164.0
6531,E3,876.5,0.5,95,164.0
6532,E3,877.0,0.25,95,164.0
6533,E3,877.25,0.25,95,164.0
6534,E3,877.5,0.25,95,164.0
6535,E3,877.75,0.25,95,164.0
6536,B3,878.0,0.5,95,164.0
6537,E3,878.0,0.5,95,164.0
6538,E3,878.5,0.25,95,164.0
6539,E3,878.75,0.25,95,164.0
6540,B3,879.0,0.5,95,164.0
6541,E3,879.0,0.5,95,164.0
6542,E3,879.5,0.5,95,164.0
6543,A3,880.0,0.5,95,164.0
6544,E3,880.0,0.5,95,164.0
6545,B3,880.5,0.5,95,164.0
6546,E3,880.5,0.5,95,164.0
6547,D4,881.5,0.5,95,164.0
6548,G3,881.5,0.5,95,164.0
6549,D4,882.0,0.5,95,164.0
6550,G3,882.0,0.5,95,164.0
6551,G3,882.5,0.25,95,164.0
6552,G3,882.75,0.25,95,164.0
6553,D4,883.0,0.5,95,164.0
6554,G3,883.0,0.5,95,164.0
6555,G3,883.5,0.25,95,164.0
6556,G3,883.75,0.25,95,164.0
6557,C4,884.0,0.5,95,164.0
6558,G3,884.0,0.5,95,164.0
6559,D4,884.5,0.5,95,164.0
6560,G3,884.5,0.5,95,164.0
6561,G3,885.0,0.25,95,164.0
6562,G3,885.25,0.25,95,164.0
6563,G3,885.5,0.25,95,164.0
6564,G3,885.75,0.25,95,164.0
6565,D4,886.0,0.5,95,164.0
6566,G3,886.0,0.5,95,164.0
6567,G3,886.5,0.25,95,164.0
6568,G3,886.75,0.25,95,164.0
6569,D4,887.0,0.5,95,164.0
6570,G3,887.0,0.5,95,164.0
6571,G3,887.5,0.5,95,164.0
6572,C4,888.0,0.5,95,164.0
6573,G3,888.0,0.5,95,164.0
6574,D4,888.5,0.5,95,164.0
6575,G3,888.5,0.5,95,164.0
6576,E4,889.5,0.5,95,164.0
6577,A3,889.5,0.5,95,164.0
6578,E4,890.0,0.5,95,164.0
6579,A3,890.0,0.5,95,164.0
6580,A3,890.5,0.25,95,164.0
6581,A3,890.75,0.25,95,164.0
6582,E4,891.0,0.5,95,164.0
6583,A3,891.0,0.5,95,164.0
6584,A3,891.5,0.25,95,164.0
6585,A3,891.75,0.25,95,164.0
6586,D4,892.0,0.5,95,164.0
6587,A3,892.0,0.5,95,164.0
6588,E4,892.5,0.5,95,164.0
6589,A3,892.5,0.5,95,164.0
6590,A3,893.0,0.25,95,164.0
6591,A3,893.25,0.25,95,164.0
6592,A3,893.5,0.25,95,164.0
6593,A3,893.75,0.25,95,164.0
6594,E4,894.0,0.5,95,164.0
6595,A3,894.0,0.5,95,164.0
6596,A3,894.5,0.25,95,164.0
6597,A3,894.75,0.25,95,164.0
6598,E4,895.0,0.5,95,164.0
6599,A3,895.0,0.5,95,164.0
6600,A3,895.5,0.5,95,164.0
6601,E4,896.0,0.5,95,164.0
6602,A3,896.0,0.5,95,164.0
6603,A3,897.0,0.5,95,164.0
6604,D3,897.0,0.5,95,164.0
6605,B3,897.5,0.5,95,164.0
6606,E3,897.5,0.5,95,164.0
6607,B3,898.0,0.5,95,164.0
6608,E3,898.0,0.5,95,164.0
