,note_name,start_time,duration,velocity,tempo
0,G4,0.0,0.5,95,107.0
1,A4,0.0,0.5,95,107.0
2,A4,0.5,0.25,95,107.0
3,A4,0.5,0.25,95,107.0
4,A4,0.75,0.25,95,107.0
5,A4,0.75,0.75,95,107.0
6,A4,1.0,0.75,95,107.0
7,A4,1.5,0.5,95,107.0
8,A4,1.75,0.25,95,107.0
9,A4,2.0,0.25,95,107.0
10,C5,2.25,0.25,95,107.0
11,A4,2.5,0.25,95,107.0
12,G4,2.75,0.25,95,107.0
13,E4,3.0,1.0,95,107.0
14,E4,3.5,0.5,95,107.0
15,C4,3.625,0.375,95,107.0
16,A3,3.75,0.25,95,107.0
17,E3,3.875,0.125,95,107.0
18,A2,4.0,4.0,95,107.0
19,E4,4.0,4.0,95,107.0
20,C4,4.0,4.0,95,107.0
21,A3,4.0,4.0,95,107.0
22,E3,4.0,4.0,95,107.0
23,E4,4.0,0.5,95,107.0
24,E4,4.5,0.25,95,107.0
25,G4,4.75,0.25,95,107.0
26,E4,5.0,0.25,95,107.0
27,D4,5.25,0.25,95,107.0
28,C4,5.5,0.25,95,107.0
29,G#3,5.75,0.25,95,107.0
30,A3,6.0,0.5,95,107.0
31,C4,6.5,0.25,95,107.0
32,A3,6.75,0.25,95,107.0
33,A3,7.0,0.5,95,107.0
34,C4,7.5,0.25,95,107.0
35,A3,7.75,0.25,95,107.0
36,A3,8.0,0.25,95,107.0
37,A3,8.0,0.5,95,107.0
38,A4,8.0,0.25,47,107.0
39,C4,8.25,0.25,95,107.0
40,A4,8.25,0.25,47,107.0
41,E4,8.5,0.25,95,107.0
42,C4,8.5,0.25,95,107.0
43,A4,8.5,0.25,71,107.0
44,B-4,8.5,0.25,71,107.0
45,A4,8.75,0.25,95,107.0
46,A3,8.75,0.25,95,107.0
47,A4,8.75,0.25,47,107.0
48,E4,9.0,0.25,95,107.0
49,A3,9.0,0.5,95,107.0
50,A4,9.0,0.25,47,107.0
51,C4,9.25,0.25,95,107.0
52,A4,9.25,0.25,47,107.0
53,A3,9.5,0.25,95,107.0
54,C4,9.5,0.25,95,107.0
55,A4,9.5,0.25,71,107.0
56,B-4,9.5,0.25,71,107.0
57,E4,9.75,0.25,79,107.0
58,A3,9.75,0.25,95,107.0
59,A4,9.75,0.25,47,107.0
60,A4,10.0,0.25,79,107.0
61,A3,10.0,0.25,95,107.0
62,A4,10.0,0.25,47,107.0
63,C4,10.25,0.25,79,107.0
64,B3,10.25,0.25,95,107.0
65,A4,10.25,0.25,47,107.0
66,E4,10.5,0.25,79,107.0
67,C4,10.5,0.25,95,107.0
68,A4,10.5,0.25,71,107.0
69,B-4,10.5,0.25,71,107.0
70,A4,10.75,0.25,79,107.0
71,D4,10.75,0.25,95,107.0
72,A4,10.75,0.25,47,107.0
73,E4,11.0,0.25,79,107.0
74,E4,11.0,1.0,95,107.0
75,A4,11.0,0.25,47,107.0
76,C4,11.25,0.25,79,107.0
77,A4,11.25,0.25,47,107.0
78,A3,11.5,0.5,79,107.0
79,A4,11.5,0.25,71,107.0
80,B-4,11.5,0.25,71,107.0
81,A4,11.75,0.25,47,107.0
82,A3,12.0,0.25,79,107.0
83,E4,12.0,0.5,95,107.0
84,A4,12.0,0.25,47,107.0
85,C4,12.25,0.25,79,107.0
86,A4,12.25,0.25,47,107.0
87,E4,12.5,0.25,79,107.0
88,E4,12.5,0.25,95,107.0
89,A4,12.5,0.25,71,107.0
90,B-4,12.5,0.25,71,107.0
91,A4,12.75,0.25,79,107.0
92,G4,12.75,0.25,95,107.0
93,A4,12.75,0.25,47,107.0
94,E4,13.0,0.25,79,107.0
95,A4,13.0,0.25,95,107.0
96,A4,13.0,0.25,47,107.0
97,C4,13.25,0.25,79,107.0
98,D5,13.25,0.25,95,107.0
99,A4,13.25,0.25,47,107.0
100,A3,13.5,0.25,79,107.0
101,C5,13.5,0.25,95,107.0
102,A4,13.5,0.25,71,107.0
103,B-4,13.5,0.25,71,107.0
104,E4,13.75,0.25,79,107.0
105,B4,13.75,0.25,95,107.0
106,A4,13.75,0.25,47,107.0
107,A4,14.0,0.25,79,107.0
108,A4,14.0,0.25,95,107.0
109,A4,14.0,0.25,47,107.0
110,C4,14.25,0.25,79,107.0
111,E4,14.25,0.25,95,107.0
112,A4,14.25,0.25,47,107.0
113,E4,14.5,0.25,79,107.0
114,G4,14.5,0.5,95,107.0
115,A4,14.5,0.25,71,107.0
116,B-4,14.5,0.25,71,107.0
117,A4,14.75,0.25,63,107.0
118,A4,14.75,0.25,47,107.0
119,E4,15.0,0.25,63,107.0
120,A4,15.0,1.0,95,107.0
121,A2,15.0,1.0,95,107.0
122,A4,15.0,0.25,47,107.0
123,C4,15.25,0.25,63,107.0
124,A4,15.25,0.25,47,107.0
125,E4,15.5,0.5,95,107.0
126,A3,15.5,0.5,63,107.0
127,A4,15.5,0.25,71,107.0
128,B-4,15.5,0.25,71,107.0
129,C4,15.625,0.375,95,107.0
130,A3,15.75,0.25,95,107.0
131,A4,15.75,0.25,47,107.0
132,E3,15.875,0.125,95,107.0
133,A2,16.0,4.0,95,107.0
134,E4,16.0,4.0,95,107.0
135,C4,16.0,4.0,95,107.0
136,A3,16.0,4.0,95,107.0
137,E3,16.0,4.0,95,107.0
138,A3,16.0,0.25,63,107.0
139,A4,16.0,0.75,95,107.0
140,E3,16.0,4.0,95,107.0
141,A4,16.0,0.25,47,107.0
142,C4,16.25,0.25,63,107.0
143,A4,16.25,0.25,47,107.0
144,E4,16.5,0.25,63,107.0
145,A4,16.5,0.25,71,107.0
146,B-4,16.5,0.25,71,107.0
147,A4,16.75,0.25,63,107.0
148,A4,16.75,0.25,95,107.0
149,A4,16.75,0.25,47,107.0
150,E4,17.0,0.25,63,107.0
151,A4,17.0,0.75,95,107.0
152,A4,17.0,0.25,47,107.0
153,C4,17.25,0.25,63,107.0
154,A4,17.25,0.25,47,107.0
155,A3,17.5,0.25,63,107.0
156,A4,17.5,0.25,71,107.0
157,B-4,17.5,0.25,71,107.0
158,E4,17.75,0.25,63,107.0
159,A4,17.75,0.25,95,107.0
160,A4,17.75,0.25,47,107.0
161,A4,18.0,0.25,63,107.0
162,A4,18.0,0.25,95,107.0
163,A4,18.0,0.25,47,107.0
164,C4,18.25,0.25,63,107.0
165,C5,18.25,83/1000,95,107.0
166,A4,18.25,0.25,47,107.0
167,B4,18.333,83/1000,95,107.0
168,A4,18.417,83/1000,95,107.0
169,E4,18.5,0.25,63,107.0
170,C5,18.5,0.25,95,107.0
171,A4,18.5,0.25,71,107.0
172,B-4,18.5,0.25,71,107.0
173,A4,18.75,0.25,63,107.0
174,A4,18.75,0.25,95,107.0
175,A4,18.75,0.25,47,107.0
176,E4,19.0,0.25,63,107.0
177,E-5,19.0,1.0,95,107.0
178,A4,19.0,0.25,47,107.0
179,C4,19.25,0.25,63,107.0
180,A4,19.25,0.25,47,107.0
181,A3,19.5,0.5,63,107.0
182,A4,19.5,0.25,71,107.0
183,B-4,19.5,0.25,71,107.0
184,A4,19.75,0.25,47,107.0
185,E5,20.0,0.25,95,107.0
186,F1,20.0,2.0,95,107.0
187,A4,20.0,0.25,47,107.0
188,C4,20.0,2.0,47,107.0
189,A3,20.0,2.0,47,107.0
190,F3,20.0,2.0,47,107.0
191,C4,20.0,2.0,95,107.0
192,A3,20.0,2.0,95,107.0
193,F3,20.0,2.0,95,107.0
194,D5,20.25,83/1000,95,107.0
195,A4,20.25,0.25,47,107.0
196,C5,20.333,83/1000,95,107.0
197,D5,20.417,83/1000,95,107.0
198,D5,20.5,0.25,95,107.0
199,A4,20.5,0.25,71,107.0
200,B-4,20.5,0.25,71,107.0
201,D5,20.75,0.25,95,107.0
202,A4,20.75,0.25,47,107.0
203,C5,21.0,0.25,95,107.0
204,A4,21.0,0.25,47,107.0
205,A4,21.25,0.25,95,107.0
206,A4,21.25,0.25,47,107.0
207,C5,21.5,0.25,95,107.0
208,A4,21.5,0.25,71,107.0
209,B-4,21.5,0.25,71,107.0
210,A4,21.75,0.25,95,107.0
211,A4,21.75,0.25,47,107.0
212,D4,22.0,0.25,95,107.0
213,G1,22.0,2.0,95,107.0
214,A4,22.0,0.25,47,107.0
215,F4,22.0,2.0,47,107.0
216,C4,22.0,2.0,47,107.0
217,F3,22.0,2.0,47,107.0
218,D4,22.0,2.0,95,107.0
219,B3,22.0,2.0,95,107.0
220,G3,22.0,2.0,95,107.0
221,F4,22.25,0.25,95,107.0
222,A4,22.25,0.25,47,107.0
223,G4,22.5,0.25,95,107.0
224,A4,22.5,0.25,71,107.0
225,B-4,22.5,0.25,71,107.0
226,F4,22.75,0.25,95,107.0
227,A4,22.75,0.25,47,107.0
228,E4,23.0,0.25,95,107.0
229,A4,23.0,0.25,47,107.0
230,D4,23.25,0.25,95,107.0
231,A4,23.25,0.25,47,107.0
232,C4,23.5,0.25,95,107.0
233,A4,23.5,0.25,71,107.0
234,B-4,23.5,0.25,71,107.0
235,G3,23.75,0.25,63,107.0
236,A4,23.75,0.25,47,107.0
237,C3,24.0,0.25,63,107.0
238,G3,24.0,3.0,63,107.0
239,C2,24.0,1.0,95,107.0
240,A4,24.0,0.25,79,107.0
241,D4,24.25,0.25,95,107.0
242,A4,24.25,0.25,47,107.0
243,E4,24.5,0.5,70,107.0
244,A4,24.5,0.25,103,107.0
245,B-4,24.5,0.25,103,107.0
246,G3,24.75,0.25,63,107.0
247,A4,24.75,0.25,79,107.0
248,D4,25.0,0.25,95,107.0
249,G1,25.0,1.0,95,107.0
250,A4,25.0,0.25,79,107.0
251,C4,25.25,0.25,95,107.0
252,A4,25.25,0.25,47,107.0
253,G3,25.5,0.25,63,107.0
254,A4,25.5,0.25,103,107.0
255,B-4,25.5,0.25,103,107.0
256,G4,25.75,0.25,95,107.0
257,A4,25.75,0.25,79,107.0
258,C3,26.0,0.25,63,107.0
259,C2,26.0,1.0,95,107.0
260,A4,26.0,0.25,79,107.0
261,C4,26.25,0.375,63,107.0
262,A4,26.25,0.25,47,107.0
263,A4,26.5,0.25,103,107.0
264,B-4,26.5,0.25,103,107.0
265,D4,26.625,0.125,63,107.0
266,E4,26.75,0.25,70,107.0
267,A4,26.75,0.25,79,107.0
268,D4,27.0,0.25,70,107.0
269,G1,27.0,1.0,95,107.0
270,A4,27.0,0.25,79,107.0
271,C4,27.25,0.25,95,107.0
272,A4,27.25,0.25,47,107.0
273,G3,27.5,0.375,63,107.0
274,A4,27.5,0.25,103,107.0
275,B-4,27.5,0.25,103,107.0
276,A4,27.75,0.25,79,107.0
277,D4,27.875,0.125,47,107.0
278,C3,28.0,0.25,63,107.0
279,C2,28.0,1.0,95,107.0
280,A4,28.0,0.25,79,107.0
281,D4,28.25,0.25,95,107.0
282,A4,28.25,0.25,47,107.0
283,E4,28.5,0.5,70,107.0
284,A4,28.5,0.25,103,107.0
285,B-4,28.5,0.25,103,107.0
286,G3,28.75,0.25,63,107.0
287,A4,28.75,0.25,79,107.0
288,D4,29.0,0.25,95,107.0
289,G1,29.0,1.0,95,107.0
290,A4,29.0,0.25,79,107.0
291,C4,29.25,0.25,95,107.0
292,A4,29.25,0.25,47,107.0
293,G3,29.5,0.25,63,107.0
294,A4,29.5,0.25,103,107.0
295,B-4,29.5,0.25,103,107.0
296,G4,29.75,0.25,95,107.0
297,A4,29.75,0.25,79,107.0
298,C3,30.0,0.25,63,107.0
299,C2,30.0,1.0,95,107.0
300,A4,30.0,0.25,79,107.0
301,C4,30.25,0.375,63,107.0
302,A4,30.25,0.25,47,107.0
303,A4,30.5,0.25,103,107.0
304,B-4,30.5,0.25,103,107.0
305,D4,30.625,0.125,63,107.0
306,E4,30.75,0.25,70,107.0
307,A4,30.75,0.25,79,107.0
308,D4,31.0,0.25,70,107.0
309,G1,31.0,1.0,95,107.0
310,A4,31.0,0.25,79,107.0
311,C4,31.25,0.25,95,107.0
312,A4,31.25,0.25,47,107.0
313,G3,31.5,0.375,63,107.0
314,A4,31.5,0.25,103,107.0
315,B-4,31.5,0.25,103,107.0
316,A4,31.75,0.25,79,107.0
317,D4,31.875,0.125,47,107.0
318,C3,32.0,0.25,79,107.0
319,F2,32.0,1.0,95,107.0
320,A4,32.0,0.25,79,107.0
321,D4,32.25,0.25,95,107.0
322,A4,32.25,0.25,47,107.0
323,E4,32.5,0.5,70,107.0
324,A4,32.5,0.25,103,107.0
325,B-4,32.5,0.25,103,107.0
326,F3,32.75,0.25,63,107.0
327,A4,32.75,0.25,79,107.0
328,D4,33.0,0.25,95,107.0
329,C2,33.0,1.0,95,107.0
330,A4,33.0,0.25,79,107.0
331,C4,33.25,0.25,95,107.0
332,A4,33.25,0.25,47,107.0
333,F3,33.5,0.25,63,107.0
334,A4,33.5,0.25,103,107.0
335,B-4,33.5,0.25,103,107.0
336,G4,33.75,0.25,95,107.0
337,A4,33.75,0.25,79,107.0
338,C3,34.0,0.25,63,107.0
339,F2,34.0,1.0,95,107.0
340,A4,34.0,0.25,79,107.0
341,C4,34.25,0.375,63,107.0
342,A4,34.25,0.25,47,107.0
343,A4,34.5,0.25,103,107.0
344,B-4,34.5,0.25,103,107.0
345,D4,34.625,0.125,63,107.0
346,E4,34.75,0.25,70,107.0
347,A4,34.75,0.25,79,107.0
348,D4,35.0,0.25,70,107.0
349,C2,35.0,1.0,95,107.0
350,A4,35.0,0.25,79,107.0
351,C4,35.25,0.25,95,107.0
352,A4,35.25,0.25,47,107.0
353,F3,35.5,0.375,63,107.0
354,A4,35.5,0.25,103,107.0
355,B-4,35.5,0.25,103,107.0
356,A4,35.75,0.25,79,107.0
357,D4,35.875,0.125,47,107.0
358,C3,36.0,0.25,79,107.0
359,F2,36.0,1.0,95,107.0
360,A4,36.0,0.25,79,107.0
361,D4,36.25,0.25,95,107.0
362,A4,36.25,0.25,47,107.0
363,E4,36.5,0.5,70,107.0
364,A4,36.5,0.25,103,107.0
365,B-4,36.5,0.25,103,107.0
366,F3,36.75,0.25,63,107.0
367,A4,36.75,0.25,79,107.0
368,D4,37.0,0.25,95,107.0
369,C2,37.0,1.0,95,107.0
370,A4,37.0,0.25,79,107.0
371,C4,37.25,0.25,95,107.0
372,A4,37.25,0.25,47,107.0
373,F3,37.5,0.25,63,107.0
374,A4,37.5,0.25,103,107.0
375,B-4,37.5,0.25,103,107.0
376,A4,37.75,0.25,95,107.0
377,A4,37.75,0.25,79,107.0
378,C3,38.0,0.25,63,107.0
379,F2,38.0,1.0,95,107.0
380,A4,38.0,0.25,79,107.0
381,C4,38.25,0.375,63,107.0
382,A4,38.25,0.25,47,107.0
383,A4,38.5,0.25,103,107.0
384,B-4,38.5,0.25,103,107.0
385,D4,38.625,0.125,63,107.0
386,E4,38.75,0.25,70,107.0
387,A4,38.75,0.25,79,107.0
388,D4,39.0,0.25,70,107.0
389,E3,39.0,0.25,95,107.0
390,C2,39.0,1.0,95,107.0
391,A4,39.0,0.25,79,107.0
392,C4,39.25,0.25,95,107.0
393,A4,39.25,0.25,47,107.0
394,F3,39.5,0.375,63,107.0
395,F3,39.5,0.25,95,107.0
396,A4,39.5,0.25,103,107.0
397,B-4,39.5,0.25,103,107.0
398,A4,39.75,0.25,79,107.0
399,D4,39.875,0.125,47,107.0
400,D3,40.0,0.25,95,107.0
401,F#3,40.0,3.0,111,107.0
402,D2,40.0,1.0,95,107.0
403,A4,40.0,0.25,79,107.0
404,D4,40.25,0.25,95,107.0
405,A4,40.25,0.25,47,107.0
406,E4,40.5,0.5,70,107.0
407,A4,40.5,0.25,103,107.0
408,B-4,40.5,0.25,103,107.0
409,F#3,40.75,0.25,79,107.0
410,A4,40.75,0.25,79,107.0
411,D4,41.0,0.25,95,107.0
412,A1,41.0,1.0,95,107.0
413,A4,41.0,0.25,79,107.0
414,C4,41.25,0.25,95,107.0
415,A4,41.25,0.25,47,107.0
416,F#3,41.5,0.25,63,107.0
417,A4,41.5,0.25,103,107.0
418,B-4,41.5,0.25,103,107.0
419,A4,41.75,0.25,95,107.0
420,A4,41.75,0.25,79,107.0
421,D3,42.0,0.25,63,107.0
422,D2,42.0,1.0,95,107.0
423,A4,42.0,0.25,79,107.0
424,C4,42.25,0.375,63,107.0
425,A4,42.25,0.25,47,107.0
426,A4,42.5,0.25,103,107.0
427,B-4,42.5,0.25,103,107.0
428,D4,42.625,0.125,95,107.0
429,E4,42.75,0.25,70,107.0
430,A4,42.75,0.25,79,107.0
431,D4,43.0,0.25,70,107.0
432,E2,43.0,0.5,95,107.0
433,A1,43.0,1.0,95,107.0
434,A4,43.0,0.25,79,107.0
435,C4,43.25,0.25,95,107.0
436,A4,43.25,0.25,47,107.0
437,F#3,43.5,0.375,63,107.0
438,F2,43.5,0.5,95,107.0
439,A4,43.5,0.25,103,107.0
440,B-4,43.5,0.25,103,107.0
441,A4,43.75,0.25,79,107.0
442,D4,43.875,0.125,95,107.0
443,D3,44.0,0.25,95,107.0
444,F#2,44.0,4.0,95,107.0
445,F#2,44.0,1.0,111,107.0
446,A4,44.0,0.25,79,107.0
447,D4,44.25,0.25,95,107.0
448,A4,44.25,0.25,47,107.0
449,E4,44.5,0.5,70,107.0
450,A4,44.5,0.25,103,107.0
451,B-4,44.5,0.25,103,107.0
452,F#3,44.75,0.25,79,107.0
453,A4,44.75,0.25,79,107.0
454,D4,45.0,0.25,95,107.0
455,D2,45.0,1.0,111,107.0
456,A4,45.0,0.25,79,107.0
457,C4,45.25,0.25,95,107.0
458,A4,45.25,0.25,47,107.0
459,F#3,45.5,0.25,63,107.0
460,A4,45.5,0.25,103,107.0
461,B-4,45.5,0.25,103,107.0
462,A4,45.75,0.25,95,107.0
463,A4,45.75,0.25,79,107.0
464,D3,46.0,0.25,63,107.0
465,F#2,46.0,1.0,111,107.0
466,A4,46.0,0.25,79,107.0
467,C4,46.25,0.375,63,107.0
468,A4,46.25,0.25,47,107.0
469,A4,46.5,0.25,103,107.0
470,B-4,46.5,0.25,103,107.0
471,D4,46.625,0.125,95,107.0
472,E4,46.75,0.25,70,107.0
473,A4,46.75,0.25,79,107.0
474,D4,47.0,0.25,70,107.0
475,A2,47.0,1.0,111,107.0
476,A4,47.0,0.25,79,107.0
477,C4,47.25,0.25,95,107.0
478,A4,47.25,0.25,47,107.0
479,F#3,47.5,0.375,63,107.0
480,A4,47.5,0.25,103,107.0
481,B-4,47.5,0.25,103,107.0
482,A4,47.75,0.25,79,107.0
483,D4,47.875,0.125,95,107.0
484,C3,48.0,4.0,95,107.0
485,B-1,48.0,4.0,95,107.0
486,A4,48.0,0.25,79,107.0
487,F3,48.062,3.938,95,107.0
488,C4,48.125,3.875,95,107.0
489,D4,48.188,3.812,95,107.0
490,A4,48.25,0.25,47,107.0
491,D4,48.5,0.125,95,107.0
492,A4,48.5,0.25,103,107.0
493,B-4,48.5,0.25,103,107.0
494,A4,48.75,0.25,79,107.0
495,E4,49.0,0.125,95,107.0
496,A4,49.0,0.25,79,107.0
497,A4,49.25,0.25,47,107.0
498,F4,49.5,0.75,95,107.0
499,A4,49.5,0.25,103,107.0
500,B-4,49.5,0.25,103,107.0
501,A4,49.75,0.25,79,107.0
502,D3,50.0,11/200,95,107.0
503,A4,50.0,0.25,79,107.0
504,C4,50.25,0.25,95,107.0
505,A4,50.25,0.25,47,107.0
506,C4,50.5,0.25,95,107.0
507,A4,50.5,0.25,103,107.0
508,B-4,50.5,0.25,103,107.0
509,B3,50.75,0.25,95,107.0
510,A4,50.75,0.25,79,107.0
511,B-3,51.0,1.0,95,107.0
512,A4,51.0,0.25,79,107.0
513,A4,51.25,0.25,47,107.0
514,A4,51.5,0.25,103,107.0
515,B-4,51.5,0.25,103,107.0
516,A4,51.75,0.25,79,107.0
517,C3,52.0,4.0,95,107.0
518,F3,52.0,4.0,95,107.0
519,C4,52.0,4.0,95,107.0
520,D4,52.0,4.0,95,107.0
521,B-2,52.0,3.0,127,107.0
522,A4,52.0,0.25,79,107.0
523,D4,52.0,0.25,71,107.0
524,B-3,52.0,0.25,71,107.0
525,A4,52.25,0.25,47,107.0
526,A3,52.5,0.25,95,107.0
527,A4,52.5,0.25,103,107.0
528,B-4,52.5,0.25,103,107.0
529,A4,52.75,0.25,79,107.0
530,D4,53.0,0.75,47,107.0
531,G#3,53.0,0.5,95,107.0
532,A4,53.0,0.25,79,107.0
533,A4,53.25,0.25,47,107.0
534,A3,53.5,0.25,95,107.0
535,A4,53.5,0.25,103,107.0
536,B-4,53.5,0.25,103,107.0
537,D4,53.75,1.25,47,107.0
538,B-3,53.75,0.5,95,107.0
539,A4,53.75,0.25,79,107.0
540,A4,54.0,0.25,79,107.0
541,B-3,54.25,0.25,95,107.0
542,A4,54.25,0.25,47,107.0
543,A3,54.5,0.25,95,107.0
544,A4,54.5,0.25,103,107.0
545,B-4,54.5,0.25,103,107.0
546,A4,54.75,0.25,79,107.0
547,A4,55.0,0.25,79,107.0
548,D4,55.0,1.0,71,107.0
549,G#3,55.0,1.0,71,107.0
550,A4,55.25,0.25,47,107.0
551,G1,55.5,0.5,95,107.0
552,A4,55.5,0.25,103,107.0
553,B-4,55.5,0.25,103,107.0
554,A4,55.75,0.25,79,107.0
555,C3,56.0,0.25,63,107.0
556,E4,56.0,3.0,47,107.0
557,C2,56.0,1.0,95,107.0
558,A4,56.0,0.25,79,107.0
559,D4,56.25,0.25,95,107.0
560,A4,56.25,0.25,47,107.0
561,E4,56.5,0.5,70,107.0
562,A4,56.5,0.25,103,107.0
563,B-4,56.5,0.25,103,107.0
564,G3,56.75,0.25,63,107.0
565,A4,56.75,0.25,79,107.0
566,D4,57.0,0.25,95,107.0
567,G1,57.0,1.0,95,107.0
568,A4,57.0,0.25,79,107.0
569,C4,57.25,0.25,95,107.0
570,A4,57.25,0.25,47,107.0
571,G3,57.5,0.25,63,107.0
572,A4,57.5,0.25,103,107.0
573,B-4,57.5,0.25,103,107.0
574,G4,57.75,0.25,95,107.0
575,A4,57.75,0.25,79,107.0
576,C3,58.0,0.25,63,107.0
577,C2,58.0,1.0,95,107.0
578,A4,58.0,0.25,79,107.0
579,C4,58.25,0.375,63,107.0
580,A4,58.25,0.25,47,107.0
581,A4,58.5,0.25,103,107.0
582,B-4,58.5,0.25,103,107.0
583,D4,58.625,0.125,63,107.0
584,E4,58.75,0.25,70,107.0
585,A4,58.75,0.25,79,107.0
586,D4,59.0,0.25,70,107.0
587,G1,59.0,1.0,95,107.0
588,A4,59.0,0.25,79,107.0
589,E4,59.0,1.0,95,107.0
590,C#4,59.0,1.0,95,107.0
591,C4,59.25,0.25,95,107.0
592,A4,59.25,0.25,47,107.0
593,G3,59.5,0.375,63,107.0
594,A4,59.5,0.25,103,107.0
595,B-4,59.5,0.25,103,107.0
596,A4,59.75,0.25,79,107.0
597,D4,59.875,0.125,47,107.0
598,C3,60.0,0.25,63,107.0
599,C2,60.0,1.0,95,107.0
600,A4,60.0,0.25,79,107.0
601,D4,60.25,0.25,95,107.0
602,A4,60.25,0.25,47,107.0
603,E4,60.5,0.5,70,107.0
604,A4,60.5,0.25,103,107.0
605,B-4,60.5,0.25,103,107.0
606,G3,60.75,0.25,63,107.0
607,A4,60.75,0.25,79,107.0
608,D4,61.0,0.25,95,107.0
609,G1,61.0,1.0,95,107.0
610,A4,61.0,0.25,79,107.0
611,C4,61.25,0.25,95,107.0
612,A4,61.25,0.25,47,107.0
613,G3,61.5,0.25,63,107.0
614,E4,61.5,1.5,95,107.0
615,C#4,61.5,1.5,95,107.0
616,A4,61.5,0.25,103,107.0
617,B-4,61.5,0.25,103,107.0
618,G4,61.75,0.25,95,107.0
619,A4,61.75,0.25,79,107.0
620,C3,62.0,0.25,63,107.0
621,C2,62.0,1.0,95,107.0
622,A4,62.0,0.25,79,107.0
623,C4,62.25,0.375,63,107.0
624,A4,62.25,0.25,47,107.0
625,A4,62.5,0.25,103,107.0
626,B-4,62.5,0.25,103,107.0
627,D4,62.625,0.125,63,107.0
628,E4,62.75,0.25,70,107.0
629,A4,62.75,0.25,79,107.0
630,D4,63.0,0.25,70,107.0
631,G1,63.0,1.0,95,107.0
632,A4,63.0,0.25,79,107.0
633,C4,63.25,0.25,95,107.0
634,A4,63.25,0.25,47,107.0
635,G3,63.5,0.375,63,107.0
636,A4,63.5,0.25,103,107.0
637,B-4,63.5,0.25,103,107.0
638,A4,63.75,0.25,79,107.0
639,D4,63.875,0.125,47,107.0
640,C3,64.0,0.25,79,107.0
641,F2,64.0,1.0,95,107.0
642,A4,64.0,0.25,79,107.0
643,D4,64.25,0.25,95,107.0
644,A4,64.25,0.25,47,107.0
645,E4,64.5,0.5,70,107.0
646,A4,64.5,0.25,103,107.0
647,B-4,64.5,0.25,103,107.0
648,F3,64.75,0.25,63,107.0
649,A4,64.75,0.25,79,107.0
650,D4,65.0,0.25,95,107.0
651,C2,65.0,1.0,95,107.0
652,A4,65.0,0.25,79,107.0
653,A4,65.0,0.5,95,107.0
654,E4,65.0,0.5,95,107.0
655,C4,65.25,0.25,95,107.0
656,A4,65.25,0.25,47,107.0
657,F3,65.5,0.25,63,107.0
658,C5,65.5,2.0,95,107.0
659,G4,65.5,2.0,95,107.0
660,A4,65.5,0.25,103,107.0
661,B-4,65.5,0.25,103,107.0
662,G4,65.75,0.25,95,107.0
663,A4,65.75,0.25,79,107.0
664,C3,66.0,0.25,63,107.0
665,F2,66.0,1.0,95,107.0
666,A4,66.0,0.25,79,107.0
667,C4,66.25,0.375,63,107.0
668,A4,66.25,0.25,47,107.0
669,A4,66.5,0.25,103,107.0
670,B-4,66.5,0.25,103,107.0
671,D4,66.625,0.125,63,107.0
672,E4,66.75,0.25,70,107.0
673,A4,66.75,0.25,79,107.0
674,D4,67.0,0.25,70,107.0
675,C2,67.0,1.0,95,107.0
676,A4,67.0,0.25,79,107.0
677,C4,67.25,0.25,95,107.0
678,A4,67.25,0.25,47,107.0
679,F3,67.5,0.375,63,107.0
680,A4,67.5,2.0,79,107.0
681,A4,67.5,0.25,103,107.0
682,B-4,67.5,0.25,103,107.0
683,A4,67.75,0.25,79,107.0
684,D4,67.875,0.125,47,107.0
685,C3,68.0,0.25,79,107.0
686,F2,68.0,1.0,95,107.0
687,A4,68.0,0.25,79,107.0
688,D4,68.25,0.25,95,107.0
689,A4,68.25,0.25,47,107.0
690,E4,68.5,0.5,70,107.0
691,A4,68.5,0.25,103,107.0
692,B-4,68.5,0.25,103,107.0
693,F3,68.75,0.25,63,107.0
694,A4,68.75,0.25,79,107.0
695,D4,69.0,0.25,95,107.0
696,C2,69.0,1.0,95,107.0
697,A4,69.0,0.25,79,107.0
698,C4,69.25,0.25,95,107.0
699,A4,69.25,0.25,47,107.0
700,F3,69.5,0.25,63,107.0
701,A4,69.5,0.25,103,107.0
702,B-4,69.5,0.25,103,107.0
703,A4,69.75,0.25,95,107.0
704,F3,69.75,0.25,95,107.0
705,A4,69.75,0.25,79,107.0
706,C3,70.0,0.25,63,107.0
707,A3,70.0,0.25,95,107.0
708,F2,70.0,1.0,95,107.0
709,A4,70.0,0.25,79,107.0
710,C4,70.25,0.375,63,107.0
711,C4,70.25,0.25,95,107.0
712,A4,70.25,0.25,47,107.0
713,D4,70.5,0.375,95,107.0
714,A4,70.5,0.25,103,107.0
715,B-4,70.5,0.25,103,107.0
716,D4,70.625,0.125,63,107.0
717,E4,70.75,0.25,70,107.0
718,A4,70.75,0.25,79,107.0
719,F4,70.875,0.375,95,107.0
720,D4,71.0,0.25,70,107.0
721,C2,71.0,1.0,95,107.0
722,A4,71.0,0.25,79,107.0
723,C4,71.25,0.25,95,107.0
724,A4,71.25,0.25,47,107.0
725,A4,71.25,2.25,95,107.0
726,F4,71.25,2.25,95,107.0
727,F3,71.5,0.375,63,107.0
728,A4,71.5,0.25,103,107.0
729,B-4,71.5,0.25,103,107.0
730,A4,71.75,0.25,79,107.0
731,D4,71.875,0.125,47,107.0
732,D3,72.0,0.25,95,107.0
733,D2,72.0,1.0,95,107.0
734,A4,72.0,0.25,79,107.0
735,D4,72.25,0.25,95,107.0
736,A4,72.25,0.25,47,107.0
737,E4,72.5,0.5,70,107.0
738,A4,72.5,0.25,103,107.0
739,B-4,72.5,0.25,103,107.0
740,F#3,72.75,0.25,79,107.0
741,A4,72.75,0.25,79,107.0
742,D4,73.0,0.25,95,107.0
743,A1,73.0,1.0,95,107.0
744,A4,73.0,0.25,79,107.0
745,C4,73.25,0.25,95,107.0
746,A4,73.25,0.25,47,107.0
747,F#3,73.5,0.25,63,107.0
748,A4,73.5,0.25,103,107.0
749,B-4,73.5,0.25,103,107.0
750,A4,73.75,0.25,95,107.0
751,A4,73.75,0.25,79,107.0
752,D3,74.0,0.25,63,107.0
753,D2,74.0,1.0,95,107.0
754,A4,74.0,0.25,79,107.0
755,F#4,74.0,0.75,87,107.0
756,D4,74.0,0.75,87,107.0
757,C4,74.25,0.375,63,107.0
758,A4,74.25,0.25,47,107.0
759,A4,74.5,0.25,103,107.0
760,B-4,74.5,0.25,103,107.0
761,D4,74.625,0.125,95,107.0
762,E4,74.75,0.25,70,107.0
763,A4,74.75,0.25,79,107.0
764,F#4,74.75,1.75,95,107.0
765,D4,74.75,1.75,95,107.0
766,D4,75.0,0.25,70,107.0
767,A1,75.0,1.0,95,107.0
768,A4,75.0,0.25,79,107.0
769,C4,75.25,0.25,95,107.0
770,A4,75.25,0.25,47,107.0
771,F#3,75.5,0.375,63,107.0
772,A4,75.5,0.25,103,107.0
773,B-4,75.5,0.25,103,107.0
774,A4,75.75,0.25,79,107.0
775,D4,75.875,0.125,95,107.0
776,D3,76.0,0.25,95,107.0
777,D2,76.0,1.0,111,107.0
778,A4,76.0,0.25,79,107.0
779,D4,76.25,0.25,95,107.0
780,A4,76.25,0.25,47,107.0
781,E4,76.5,0.5,70,107.0
782,E3,76.5,0.5,95,107.0
783,A4,76.5,0.25,103,107.0
784,B-4,76.5,0.25,103,107.0
785,F#3,76.75,0.25,79,107.0
786,A4,76.75,0.25,79,107.0
787,D4,77.0,0.25,95,107.0
788,F3,77.0,0.5,95,107.0
789,A2,77.0,1.0,95,107.0
790,A4,77.0,0.25,79,107.0
791,C4,77.25,0.25,95,107.0
792,A4,77.25,0.25,47,107.0
793,F#3,77.5,0.25,63,107.0
794,C4,77.5,0.25,95,107.0
795,A4,77.5,0.25,103,107.0
796,B-4,77.5,0.25,103,107.0
797,A4,77.75,0.25,95,107.0
798,B3,77.75,0.25,70,107.0
799,A4,77.75,0.25,79,107.0
800,D3,78.0,0.25,63,107.0
801,B-3,78.0,0.25,70,107.0
802,D2,78.0,1.0,111,107.0
803,A4,78.0,0.25,79,107.0
804,C4,78.25,0.375,63,107.0
805,E4,78.25,0.25,95,107.0
806,A4,78.25,0.25,47,107.0
807,E-4,78.5,0.25,70,107.0
808,A4,78.5,0.25,103,107.0
809,B-4,78.5,0.25,103,107.0
810,D4,78.625,0.125,95,107.0
811,E4,78.75,0.25,70,107.0
812,D4,78.75,0.75,70,107.0
813,A4,78.75,0.25,79,107.0
814,D4,79.0,0.25,70,107.0
815,D2,79.0,1.0,95,107.0
816,A4,79.0,0.25,79,107.0
817,C4,79.25,0.25,95,107.0
818,A4,79.25,0.25,47,107.0
819,F#3,79.5,0.375,63,107.0
820,A4,79.5,0.25,103,107.0
821,B-4,79.5,0.25,103,107.0
822,A4,79.75,0.25,79,107.0
823,D4,79.875,0.125,95,107.0
824,B2,80.0,3.0,111,107.0
825,A4,80.0,0.25,79,107.0
826,A4,80.25,0.25,47,107.0
827,G#3,80.5,0.5,95,107.0
828,A4,80.5,0.25,103,107.0
829,B-4,80.5,0.25,103,107.0
830,A4,80.75,0.25,79,107.0
831,B3,81.0,3.0,95,107.0
832,A4,81.0,0.25,79,107.0
833,D4,81.25,2.75,95,107.0
834,A4,81.25,0.25,47,107.0
835,A4,81.5,0.25,103,107.0
836,B-4,81.5,0.25,103,107.0
837,A4,81.75,0.25,79,107.0
838,G4,82.0,2.0,95,107.0
839,A4,82.0,0.25,79,107.0
840,B3,82.0,0.25,95,107.0
841,G#3,82.0,0.25,95,107.0
842,A4,82.25,0.25,47,107.0
843,A4,82.5,0.25,103,107.0
844,B-4,82.5,0.25,103,107.0
845,A4,82.75,0.25,79,107.0
846,D4,82.75,0.25,95,107.0
847,B3,82.75,0.25,95,107.0
848,G#3,82.75,0.25,95,107.0
849,G#3,83.0,1.0,95,107.0
850,B1,83.0,1.0,111,107.0
851,A4,83.0,0.25,79,107.0
852,A4,83.25,0.25,47,107.0
853,G4,83.5,2.0,95,107.0
854,B3,83.5,2.0,95,107.0
855,G#3,83.5,2.0,95,107.0
856,A4,83.5,0.25,103,107.0
857,B-4,83.5,0.25,103,107.0
858,A4,83.75,0.25,79,107.0
859,D4,84.0,0.25,95,107.0
860,G4,84.0,0.25,95,107.0
861,E2,84.0,4.0,111,107.0
862,A4,84.0,0.25,79,107.0
863,E4,84.0,0.25,47,107.0
864,B3,84.0,0.25,47,107.0
865,A4,84.25,0.25,47,107.0
866,A4,84.5,0.25,103,107.0
867,B-4,84.5,0.25,103,107.0
868,A4,84.75,0.25,79,107.0
869,A4,85.0,0.25,79,107.0
870,A4,85.25,0.25,47,107.0
871,E4,85.25,0.25,47,107.0
872,B3,85.25,0.25,47,107.0
873,E4,85.5,0.25,95,107.0
874,A4,85.5,0.25,103,107.0
875,B-4,85.5,0.25,103,107.0
876,F4,85.75,0.25,70,107.0
877,A4,85.75,0.25,79,107.0
878,E4,86.0,0.25,70,107.0
879,E4,86.0,2.0,47,107.0
880,B3,86.0,2.0,47,107.0
881,A4,86.0,0.25,87,107.0
882,B2,86.0,0.25,87,107.0
883,E-4,86.25,0.25,70,107.0
884,A4,86.25,0.25,47,107.0
885,E4,86.5,1.0,95,107.0
886,A4,86.5,0.25,100,107.0
887,B-4,86.5,0.25,100,107.0
888,A2,86.5,0.25,100,107.0
889,A4,86.75,0.25,79,107.0
890,A4,87.0,0.25,87,107.0
891,G2,87.0,0.25,87,107.0
892,A4,87.25,0.25,71,107.0
893,G2,87.25,0.25,71,107.0
894,F4,87.5,0.25,95,107.0
895,A4,87.5,0.25,100,107.0
896,B-4,87.5,0.25,100,107.0
897,F2,87.5,0.25,100,107.0
898,E4,87.75,0.25,70,107.0
899,A4,87.75,0.25,87,107.0
900,F2,87.75,0.25,87,107.0
901,E-4,88.0,0.25,70,107.0
902,F1,88.0,2.0,95,107.0
903,F3,88.0,4.0,95,107.0
904,C4,88.0,4.0,95,107.0
905,A4,88.0,0.25,90,107.0
906,G#2,88.0,0.25,90,107.0
907,C2,88.0,0.25,90,107.0
908,F4,88.062,3.938,95,107.0
909,A4,88.062,3.938,95,107.0
910,E4,88.25,1.25,95,107.0
911,A4,88.25,0.25,47,107.0
912,A4,88.5,0.25,100,107.0
913,B-4,88.5,0.25,100,107.0
914,G#2,88.5,0.25,100,107.0
915,A4,88.75,0.25,79,107.0
916,A4,89.0,0.25,90,107.0
917,G#2,89.0,0.25,90,107.0
918,D2,89.0,0.25,90,107.0
919,A4,89.25,0.25,47,107.0
920,A4,89.5,0.25,100,107.0
921,B-4,89.5,0.25,100,107.0
922,G#2,89.5,0.25,100,107.0
923,A4,89.75,0.25,79,107.0
924,F1,90.0,2.0,95,107.0
925,A4,90.0,0.25,90,107.0
926,G#2,90.0,0.25,90,107.0
927,C2,90.0,0.25,90,107.0
928,A4,90.25,0.25,47,107.0
929,A4,90.5,0.25,100,107.0
930,B-4,90.5,0.25,100,107.0
931,G#2,90.5,0.25,100,107.0
932,A4,90.75,0.25,79,107.0
933,A4,91.0,0.5,95,107.0
934,A4,91.0,0.25,90,107.0
935,G#2,91.0,0.25,90,107.0
936,D2,91.0,0.25,90,107.0
937,A4,91.25,0.25,47,107.0
938,C5,91.5,1.5,95,107.0
939,A4,91.5,0.25,100,107.0
940,B-4,91.5,0.25,100,107.0
941,G#2,91.5,0.25,100,107.0
942,A4,91.75,0.25,79,107.0
943,F1,92.0,2.0,95,107.0
944,A4,92.0,0.25,90,107.0
945,G#2,92.0,0.25,90,107.0
946,C2,92.0,0.25,90,107.0
947,A4,92.25,0.25,47,107.0
948,A4,92.5,0.25,100,107.0
949,B-4,92.5,0.25,100,107.0
950,G#2,92.5,0.25,100,107.0
951,A4,92.75,0.25,79,107.0
952,A4,93.0,0.5,95,107.0
953,A4,93.0,0.25,90,107.0
954,G#2,93.0,0.25,90,107.0
955,D2,93.0,0.25,90,107.0
956,A4,93.25,0.25,47,107.0
957,E4,93.5,0.25,95,107.0
958,A4,93.5,0.25,100,107.0
959,B-4,93.5,0.25,100,107.0
960,G#2,93.5,0.25,100,107.0
961,G4,93.75,0.25,70,107.0
962,A4,93.75,0.25,79,107.0
963,E4,94.0,0.25,70,107.0
964,F1,94.0,2.0,95,107.0
965,A4,94.0,0.25,90,107.0
966,G#2,94.0,0.25,90,107.0
967,C2,94.0,0.25,90,107.0
968,A4,94.25,0.25,47,107.0
969,E4,94.5,0.25,95,107.0
970,A4,94.5,0.25,100,107.0
971,B-4,94.5,0.25,100,107.0
972,G#2,94.5,0.25,100,107.0
973,F3,94.719,2.719,95,107.0
974,C4,94.719,2.719,95,107.0
975,F4,94.719,2.719,95,107.0
976,A4,94.719,2.719,95,107.0
977,C4,94.75,0.75,95,107.0
978,A4,94.75,0.25,79,107.0
979,A4,95.0,0.25,90,107.0
980,G#2,95.0,0.25,90,107.0
981,D2,95.0,0.25,90,107.0
982,A4,95.25,0.25,47,107.0
983,B3,95.5,0.25,95,107.0
984,A4,95.5,0.25,100,107.0
985,B-4,95.5,0.25,100,107.0
986,G#2,95.5,0.25,100,107.0
987,C4,95.75,0.25,70,107.0
988,A4,95.75,0.25,79,107.0
989,B3,96.0,0.25,70,107.0
990,E1,96.0,1.75,95,107.0
991,A4,96.0,0.25,90,107.0
992,G#2,96.0,0.25,90,107.0
993,C2,96.0,0.25,90,107.0
994,A3,96.25,1.25,95,107.0
995,A4,96.25,0.25,47,107.0
996,A4,96.5,0.25,100,107.0
997,B-4,96.5,0.25,100,107.0
998,G#2,96.5,0.25,100,107.0
999,A4,96.75,0.25,79,107.0
1000,A4,97.0,0.25,90,107.0
1001,G#2,97.0,0.25,90,107.0
1002,D2,97.0,0.25,90,107.0
1003,A4,97.25,0.25,47,107.0
1004,A4,97.469,0.25,95,107.0
1005,F4,97.469,1.25,95,107.0
1006,A4,97.5,0.25,100,107.0
1007,B-4,97.5,0.25,100,107.0
1008,G#2,97.5,0.25,100,107.0
1009,B4,97.719,0.5,95,107.0
1010,E1,97.75,0.25,95,107.0
1011,A4,97.75,0.25,79,107.0
1012,E1,98.0,1.5,95,107.0
1013,A4,98.0,0.25,90,107.0
1014,G#2,98.0,0.25,90,107.0
1015,C2,98.0,0.25,90,107.0
1016,C5,98.219,0.5,95,107.0
1017,A4,98.25,0.25,47,107.0
1018,F#3,98.5,0.25,95,107.0
1019,A4,98.5,0.25,100,107.0
1020,B-4,98.5,0.25,100,107.0
1021,G#2,98.5,0.25,100,107.0
1022,G3,98.719,4.0,95,107.0
1023,B3,98.719,4.0,95,107.0
1024,G3,98.75,0.25,70,107.0
1025,A4,98.75,0.25,79,107.0
1026,E4,98.781,3.938,95,107.0
1027,G4,98.781,3.938,95,107.0
1028,B3,99.0,0.25,95,107.0
1029,A4,99.0,0.25,90,107.0
1030,G#2,99.0,0.25,90,107.0
1031,D2,99.0,0.25,90,107.0
1032,E4,99.25,0.25,95,107.0
1033,A4,99.25,0.25,47,107.0
1034,F#4,99.5,0.25,95,107.0
1035,B1,99.5,0.5,95,107.0
1036,A4,99.5,0.25,100,107.0
1037,B-4,99.5,0.25,100,107.0
1038,G#2,99.5,0.25,100,107.0
1039,G4,99.75,0.25,95,107.0
1040,A4,99.75,0.25,79,107.0
1041,A4,100.0,0.25,95,107.0
1042,E2,100.0,2.0,95,107.0
1043,A4,100.0,0.25,90,107.0
1044,G#2,100.0,0.25,90,107.0
1045,C2,100.0,0.25,90,107.0
1046,B-4,100.25,0.25,95,107.0
1047,A4,100.25,0.25,47,107.0
1048,B4,100.5,0.25,95,107.0
1049,A4,100.5,0.25,100,107.0
1050,B-4,100.5,0.25,100,107.0
1051,G#2,100.5,0.25,100,107.0
1052,B-4,100.75,0.25,95,107.0
1053,A4,100.75,0.25,79,107.0
1054,A4,101.0,0.5,95,107.0
1055,A4,101.0,0.25,90,107.0
1056,G#2,101.0,0.25,90,107.0
1057,D2,101.0,0.25,90,107.0
1058,A4,101.25,0.25,47,107.0
1059,G4,101.5,0.25,95,107.0
1060,A4,101.5,0.25,100,107.0
1061,B-4,101.5,0.25,100,107.0
1062,G#2,101.5,0.25,100,107.0
1063,E4,101.75,0.25,95,107.0
1064,A4,101.75,0.25,79,107.0
1065,G4,102.0,0.25,95,107.0
1066,E1,102.0,1.0,95,107.0
1067,A4,102.0,0.25,90,107.0
1068,G#2,102.0,0.25,90,107.0
1069,C2,102.0,0.25,90,107.0
1070,E4,102.25,0.75,95,107.0
1071,A4,102.25,0.25,47,107.0
1072,A4,102.5,0.25,103,107.0
1073,B-4,102.5,0.25,103,107.0
1074,A4,102.75,0.25,71,107.0
1075,B-2,102.75,0.25,71,107.0
1076,G4,103.0,0.25,95,107.0
1077,G1,103.0,1.0,95,107.0
1078,A4,103.0,0.25,90,107.0
1079,G#2,103.0,0.25,90,107.0
1080,D2,103.0,0.25,90,107.0
1081,E4,103.25,0.25,95,107.0
1082,A4,103.25,0.25,47,107.0
1083,G4,103.5,0.75,95,107.0
1084,A4,103.5,0.25,90,107.0
1085,B-4,103.5,0.25,90,107.0
1086,B-2,103.5,0.25,90,107.0
1087,A4,103.75,0.25,79,107.0
1088,F1,104.0,2.0,95,107.0
1089,A4,104.0,0.25,90,107.0
1090,G#2,104.0,0.25,90,107.0
1091,C2,104.0,0.25,90,107.0
1092,E4,104.25,1.25,79,107.0
1093,A4,104.25,0.25,47,107.0
1094,A4,104.5,0.25,100,107.0
1095,B-4,104.5,0.25,100,107.0
1096,G#2,104.5,0.25,100,107.0
1097,A4,104.75,0.25,79,107.0
1098,A4,105.0,0.25,90,107.0
1099,G#2,105.0,0.25,90,107.0
1100,D2,105.0,0.25,90,107.0
1101,A4,105.25,0.25,47,107.0
1102,A4,105.5,0.25,100,107.0
1103,B-4,105.5,0.25,100,107.0
1104,G#2,105.5,0.25,100,107.0
1105,A4,105.75,0.25,79,107.0
1106,E4,106.0,0.25,95,107.0
1107,F1,106.0,2.0,95,107.0
1108,A4,106.0,0.25,90,107.0
1109,G#2,106.0,0.25,90,107.0
1110,C2,106.0,0.25,90,107.0
1111,A4,106.25,0.25,47,107.0
1112,E4,106.5,0.25,95,107.0
1113,A4,106.5,0.25,100,107.0
1114,B-4,106.5,0.25,100,107.0
1115,G#2,106.5,0.25,100,107.0
1116,G3,106.688,3.969,95,107.0
1117,B3,106.688,3.969,95,107.0
1118,E4,106.688,3.969,95,107.0
1119,G4,106.688,3.969,95,107.0
1120,F4,106.75,0.5,70,107.0
1121,A4,106.75,0.25,79,107.0
1122,A4,107.0,0.25,90,107.0
1123,G#2,107.0,0.25,90,107.0
1124,D2,107.0,0.25,90,107.0
1125,D4,107.25,1.25,95,107.0
1126,A4,107.25,0.25,47,107.0
1127,A4,107.5,0.25,100,107.0
1128,B-4,107.5,0.25,100,107.0
1129,G#2,107.5,0.25,100,107.0
1130,A4,107.75,0.25,79,107.0
1131,F1,108.0,2.0,95,107.0
1132,A4,108.0,0.25,90,107.0
1133,G#2,108.0,0.25,90,107.0
1134,C2,108.0,0.25,90,107.0
1135,A4,108.25,0.25,47,107.0
1136,E4,108.5,1.0,95,107.0
1137,A4,108.5,0.25,100,107.0
1138,B-4,108.5,0.25,100,107.0
1139,G#2,108.5,0.25,100,107.0
1140,A4,108.75,0.25,79,107.0
1141,A4,109.0,0.25,90,107.0
1142,G#2,109.0,0.25,90,107.0
1143,D2,109.0,0.25,90,107.0
1144,A4,109.25,0.25,47,107.0
1145,E4,109.5,2.0,95,107.0
1146,A4,109.5,0.25,100,107.0
1147,B-4,109.5,0.25,100,107.0
1148,G#2,109.5,0.25,100,107.0
1149,A4,109.75,0.25,79,107.0
1150,B1,110.0,2.0,95,107.0
1151,A4,110.0,0.25,90,107.0
1152,G#2,110.0,0.25,90,107.0
1153,C2,110.0,0.25,90,107.0
1154,A4,110.25,0.25,47,107.0
1155,A4,110.5,0.25,100,107.0
1156,B-4,110.5,0.25,100,107.0
1157,G#2,110.5,0.25,100,107.0
1158,F3,110.688,4.0,95,107.0
1159,C4,110.75,3.938,95,107.0
1160,A4,110.75,0.25,79,107.0
1161,F4,110.812,3.875,95,107.0
1162,A4,110.875,3.812,95,107.0
1163,A4,111.0,0.25,90,107.0
1164,G#2,111.0,0.25,90,107.0
1165,D2,111.0,0.25,90,107.0
1166,A4,111.25,0.25,47,107.0
1167,E-4,111.5,1.0,47,107.0
1168,A4,111.5,0.25,100,107.0
1169,B-4,111.5,0.25,100,107.0
1170,G#2,111.5,0.25,100,107.0
1171,A4,111.75,0.25,79,107.0
1172,E1,112.0,2.0,95,107.0
1173,A4,112.0,0.25,90,107.0
1174,G#2,112.0,0.25,90,107.0
1175,C2,112.0,0.25,90,107.0
1176,A4,112.25,0.25,47,107.0
1177,G4,112.5,333/1000,95,107.0
1178,A4,112.5,0.25,100,107.0
1179,B-4,112.5,0.25,100,107.0
1180,G#2,112.5,0.25,100,107.0
1181,A4,112.75,0.25,79,107.0
1182,F#4,112.833,0.5,95,107.0
1183,A4,113.0,0.25,90,107.0
1184,G#2,113.0,0.25,90,107.0
1185,D2,113.0,0.25,90,107.0
1186,A4,113.25,0.25,47,107.0
1187,G4,113.333,167/1000,95,107.0
1188,G4,113.5,0.5,95,107.0
1189,A4,113.5,0.25,100,107.0
1190,B-4,113.5,0.25,100,107.0
1191,G#2,113.5,0.25,100,107.0
1192,A4,113.75,0.25,79,107.0
1193,E4,114.0,0.5,95,107.0
1194,C2,114.0,0.25,95,107.0
1195,A4,114.0,0.25,90,107.0
1196,G#2,114.0,0.25,90,107.0
1197,C2,114.0,0.25,90,107.0
1198,C#2,114.25,1.75,95,107.0
1199,A4,114.25,0.25,47,107.0
1200,B3,114.5,0.5,95,107.0
1201,A4,114.5,0.25,91,107.0
1202,B-4,114.5,0.25,91,107.0
1203,G#2,114.5,0.25,91,107.0
1204,B-2,114.5,0.25,91,107.0
1205,F3,114.688,1.5,95,107.0
1206,C4,114.688,1.5,95,107.0
1207,F4,114.688,1.5,95,107.0
1208,A4,114.688,1.5,95,107.0
1209,A4,114.75,0.25,79,107.0
1210,B-2,114.75,0.25,79,107.0
1211,G3,115.0,0.5,95,107.0
1212,A4,115.0,0.25,90,107.0
1213,G#2,115.0,0.25,90,107.0
1214,D2,115.0,0.25,90,107.0
1215,A4,115.25,0.25,47,107.0
1216,A3,115.5,0.25,111,107.0
1217,A4,115.5,0.25,99,107.0
1218,B-4,115.5,0.25,99,107.0
1219,G#2,115.5,0.25,99,107.0
1220,B-2,115.5,0.25,99,107.0
1221,G#3,115.75,0.25,70,107.0
1222,A4,115.75,0.25,79,107.0
1223,G3,116.0,0.5,38,107.0
1224,D2,116.0,2.0,95,107.0
1225,A4,116.0,0.25,90,107.0
1226,G#2,116.0,0.25,90,107.0
1227,C2,116.0,0.25,90,107.0
1228,F3,116.188,0.5,79,107.0
1229,A4,116.25,0.25,47,107.0
1230,F4,116.5,0.25,95,107.0
1231,A4,116.5,0.25,100,107.0
1232,B-4,116.5,0.25,100,107.0
1233,G#2,116.5,0.25,100,107.0
1234,B3,116.688,0.25,79,107.0
1235,E4,116.75,0.5,95,107.0
1236,A4,116.75,0.25,79,107.0
1237,B-3,116.938,0.25,79,107.0
1238,A4,117.0,0.25,90,107.0
1239,G#2,117.0,0.25,90,107.0
1240,D2,117.0,0.25,90,107.0
1241,A3,117.188,1.5,79,107.0
1242,F4,117.25,0.25,95,107.0
1243,A4,117.25,0.25,47,107.0
1244,F4,117.5,0.5,95,107.0
1245,A4,117.5,0.25,100,107.0
1246,B-4,117.5,0.25,100,107.0
1247,G#2,117.5,0.25,100,107.0
1248,A4,117.75,0.25,79,107.0
1249,E4,118.0,167/1000,95,107.0
1250,G1,118.0,2.0,95,107.0
1251,G#2,118.0,0.5,95,107.0
1252,C2,118.0,0.5,95,107.0
1253,F4,118.167,167/1000,70,107.0
1254,E4,118.333,167/1000,70,107.0
1255,D4,118.5,0.5,95,107.0
1256,B-2,118.5,167/1000,63,107.0
1257,G2,118.5,167/1000,63,107.0
1258,F2,118.667,167/1000,63,107.0
1259,D4,118.688,4.0,95,107.0
1260,G4,118.75,3.938,95,107.0
1261,B4,118.812,3.875,95,107.0
1262,G2,118.833,167/1000,63,107.0
1263,C4,119.0,167/1000,95,107.0
1264,C2,119.0,0.5,95,107.0
1265,D4,119.167,167/1000,70,107.0
1266,C4,119.333,167/1000,70,107.0
1267,B3,119.5,2.0,95,107.0
1268,B-2,119.5,0.5,79,107.0
1269,A3,120.0,0.25,63,107.0
1270,A1,120.0,4.0,95,107.0
1271,G#2,120.0,0.25,111,107.0
1272,C2,120.0,2.0,95,107.0
1273,C4,120.25,0.25,63,107.0
1274,F#2,120.25,0.25,47,107.0
1275,E4,120.5,0.25,63,107.0
1276,F#2,120.5,0.25,47,107.0
1277,A4,120.75,0.25,63,107.0
1278,F#2,120.75,0.25,47,107.0
1279,E4,121.0,0.25,63,107.0
1280,G#2,121.0,0.25,111,107.0
1281,C4,121.25,0.25,63,107.0
1282,F#2,121.25,0.25,47,107.0
1283,A3,121.5,0.25,63,107.0
1284,F#2,121.5,0.25,47,107.0
1285,E4,121.75,0.25,63,107.0
1286,F#2,121.75,0.25,47,107.0
1287,A4,122.0,0.25,63,107.0
1288,G#2,122.0,0.25,111,107.0
1289,C2,122.0,2.0,95,107.0
1290,C4,122.25,0.25,63,107.0
1291,F#2,122.25,0.25,47,107.0
1292,E4,122.5,0.25,63,107.0
1293,F#2,122.5,0.25,47,107.0
1294,A4,122.688,3.5,63,107.0
1295,F4,122.688,3.5,63,107.0
1296,C4,122.688,3.5,63,107.0
1297,A4,122.75,0.25,63,107.0
1298,F#2,122.75,0.25,47,107.0
1299,G3,123.0,0.25,95,107.0
1300,E4,123.0,0.25,63,107.0
1301,G#2,123.0,0.25,111,107.0
1302,A3,123.25,0.25,70,107.0
1303,C4,123.25,0.25,63,107.0
1304,F#2,123.25,0.25,47,107.0
1305,C4,123.5,0.5,95,107.0
1306,A3,123.5,0.5,63,107.0
1307,F#2,123.5,0.25,47,107.0
1308,F#2,123.75,0.25,47,107.0
1309,C4,124.0,1.0,95,107.0
1310,A3,124.0,0.25,63,107.0
1311,A1,124.0,3.0,95,107.0
1312,G#2,124.0,0.25,111,107.0
1313,C2,124.0,2.0,95,107.0
1314,C4,124.25,0.25,63,107.0
1315,F#2,124.25,0.25,47,107.0
1316,E4,124.5,0.25,63,107.0
1317,F#2,124.5,0.25,47,107.0
1318,A4,124.75,0.25,63,107.0
1319,F#2,124.75,0.25,47,107.0
1320,A3,125.0,0.25,63,107.0
1321,E4,125.0,0.25,63,107.0
1322,G#2,125.0,0.25,111,107.0
1323,G3,125.25,0.25,79,107.0
1324,C4,125.25,0.25,63,107.0
1325,F#2,125.25,0.25,47,107.0
1326,A3,125.5,0.25,63,107.0
1327,A3,125.5,0.25,63,107.0
1328,F#2,125.5,0.25,47,107.0
1329,G3,125.75,0.25,54,107.0
1330,E4,125.75,0.25,63,107.0
1331,F#2,125.75,0.25,47,107.0
1332,E3,126.0,0.25,95,107.0
1333,A4,126.0,0.25,63,107.0
1334,G#2,126.0,0.25,111,107.0
1335,C2,126.0,2.0,95,107.0
1336,E4,126.188,0.5,79,107.0
1337,G3,126.25,0.5,95,107.0
1338,C4,126.25,0.25,63,107.0
1339,F#2,126.25,0.25,47,107.0
1340,C4,126.312,0.375,79,107.0
1341,A3,126.438,0.25,79,107.0
1342,E4,126.5,0.25,63,107.0
1343,F#2,126.5,0.25,47,107.0
1344,E3,126.562,0.125,79,107.0
1345,A2,126.688,4.0,79,107.0
1346,E4,126.688,4.0,79,107.0
1347,C4,126.688,4.0,79,107.0
1348,A3,126.688,4.0,79,107.0
1349,E3,126.688,4.0,79,107.0
1350,G3,126.75,167/1000,63,107.0
1351,A4,126.75,0.25,63,107.0
1352,F#2,126.75,0.25,47,107.0
1353,A3,126.917,167/1000,70,107.0
1354,E4,127.0,0.25,63,107.0
1355,A1,127.0,1.0,95,107.0
1356,G#2,127.0,0.25,111,107.0
1357,G3,127.083,167/1000,54,107.0
1358,E3,127.25,0.25,95,107.0
1359,C4,127.25,0.25,63,107.0
1360,F#2,127.25,0.25,47,107.0
1361,G3,127.5,0.25,95,107.0
1362,A3,127.5,0.5,63,107.0
1363,F#2,127.5,0.25,47,107.0
1364,B-2,127.5,0.5,95,107.0
1365,A3,127.75,1.75,95,107.0
1366,F#2,127.75,0.25,47,107.0
1367,A3,128.0,0.25,63,107.0
1368,E2,128.0,4.0,95,107.0
1369,G#2,128.0,0.25,111,107.0
1370,C2,128.0,2.0,95,107.0
1371,C4,128.25,0.25,63,107.0
1372,F#2,128.25,0.25,47,107.0
1373,E4,128.5,0.25,63,107.0
1374,F#2,128.5,0.25,47,107.0
1375,A4,128.75,0.25,63,107.0
1376,F#2,128.75,0.25,47,107.0
1377,E4,129.0,0.25,63,107.0
1378,G#2,129.0,0.25,111,107.0
1379,C4,129.25,0.25,63,107.0
1380,F#2,129.25,0.25,47,107.0
1381,A3,129.5,0.25,63,107.0
1382,F#2,129.5,0.25,47,107.0
1383,E4,129.75,0.25,63,107.0
1384,F#2,129.75,0.25,47,107.0
1385,A4,130.0,0.25,63,107.0
1386,G#2,130.0,0.25,111,107.0
1387,C2,130.0,2.0,95,107.0
1388,G3,130.0,0.5,95,107.0
1389,D3,130.0,0.5,95,107.0
1390,C4,130.25,0.25,63,107.0
1391,F#2,130.25,0.25,47,107.0
1392,A3,130.5,0.5,95,107.0
1393,E3,130.5,1.0,95,107.0
1394,E4,130.5,0.25,63,107.0
1395,F#2,130.5,0.25,47,107.0
1396,A2,130.688,3.0,79,107.0
1397,E4,130.688,3.0,79,107.0
1398,C4,130.688,3.0,79,107.0
1399,A3,130.688,3.0,79,107.0
1400,E3,130.688,3.0,79,107.0
1401,A4,130.75,0.25,63,107.0
1402,F#2,130.75,0.25,47,107.0
1403,A3,131.0,0.5,95,107.0
1404,E4,131.0,0.25,63,107.0
1405,G#2,131.0,0.25,111,107.0
1406,C4,131.25,0.25,63,107.0
1407,F#2,131.25,0.25,47,107.0
1408,C4,131.5,0.25,95,107.0
1409,A3,131.5,0.5,63,107.0
1410,F#2,131.5,0.25,47,107.0
1411,A3,131.75,0.5,95,107.0
1412,F#2,131.75,0.25,47,107.0
1413,G1,132.0,2.0,95,107.0
1414,G#2,132.0,1.0,95,107.0
1415,C2,132.0,2.0,95,107.0
1416,G3,132.25,0.5,95,107.0
1417,D3,132.25,0.5,95,107.0
1418,A3,132.75,0.75,95,107.0
1419,E3,132.75,0.75,95,107.0
1420,B-2,133.0,1.0,95,107.0
1421,A3,133.5,2.0,95,107.0
1422,F3,133.5,2.0,95,107.0
1423,A2,133.688,1.0,95,107.0
1424,B1,134.0,2.0,95,107.0
1425,C2,134.0,0.5,95,107.0
1426,G#2,134.5,0.25,95,107.0
1427,A3,134.688,4.0,79,107.0
1428,E3,134.688,4.0,79,107.0
1429,B-2,134.75,0.25,95,107.0
1430,G#2,135.0,0.25,95,107.0
1431,A2,135.0,0.25,95,107.0
1432,G#2,135.25,0.25,95,107.0
1433,B3,135.5,2.0,95,107.0
1434,B-2,135.5,0.5,95,107.0
1435,G3,136.0,1.5,111,107.0
1436,C2,136.0,1.0,95,107.0
1437,A4,136.0,0.25,84,107.0
1438,G#2,136.0,0.25,84,107.0
1439,C2,136.0,0.25,84,107.0
1440,A4,136.25,0.25,47,107.0
1441,A4,136.5,0.25,95,107.0
1442,B-4,136.5,0.25,95,107.0
1443,G#2,136.5,0.25,95,107.0
1444,A4,136.75,0.25,63,107.0
1445,G1,137.0,1.0,95,107.0
1446,A4,137.0,0.25,84,107.0
1447,G#2,137.0,0.25,84,107.0
1448,D2,137.0,0.25,84,107.0
1449,A4,137.25,0.25,47,107.0
1450,G3,137.5,4.0,111,107.0
1451,A4,137.5,0.25,95,107.0
1452,B-4,137.5,0.25,95,107.0
1453,G#2,137.5,0.25,95,107.0
1454,A4,137.75,0.25,63,107.0
1455,C2,138.0,1.0,95,107.0
1456,A4,138.0,0.25,84,107.0
1457,G#2,138.0,0.25,84,107.0
1458,C2,138.0,0.25,84,107.0
1459,A4,138.25,0.25,47,107.0
1460,A4,138.5,0.25,95,107.0
1461,B-4,138.5,0.25,95,107.0
1462,G#2,138.5,0.25,95,107.0
1463,A3,138.688,2.0,95,107.0
1464,F3,138.688,2.0,95,107.0
1465,C3,138.688,2.0,95,107.0
1466,A4,138.75,0.25,63,107.0
1467,G1,139.0,1.0,95,107.0
1468,A4,139.0,0.25,84,107.0
1469,G#2,139.0,0.25,84,107.0
1470,D2,139.0,0.25,84,107.0
1471,A4,139.25,0.25,63,107.0
1472,A4,139.5,0.25,95,107.0
1473,B-4,139.5,0.25,95,107.0
1474,G#2,139.5,0.25,95,107.0
1475,B-2,139.5,0.25,95,107.0
1476,A4,139.75,0.25,63,107.0
1477,C2,140.0,1.0,95,107.0
1478,A4,140.0,0.25,84,107.0
1479,G#2,140.0,0.25,84,107.0
1480,C2,140.0,0.25,84,107.0
1481,A4,140.25,0.25,47,107.0
1482,A4,140.5,0.25,95,107.0
1483,B-4,140.5,0.25,95,107.0
1484,G#2,140.5,0.25,95,107.0
1485,B3,140.688,2.0,95,107.0
1486,G3,140.688,2.0,95,107.0
1487,D3,140.688,2.0,95,107.0
1488,A4,140.75,0.25,63,107.0
1489,G1,141.0,1.0,95,107.0
1490,A4,141.0,0.25,84,107.0
1491,G#2,141.0,0.25,84,107.0
1492,D2,141.0,0.25,84,107.0
1493,A4,141.25,0.25,47,107.0
1494,A4,141.5,0.25,95,107.0
1495,B-4,141.5,0.25,95,107.0
1496,G#2,141.5,0.25,95,107.0
1497,A4,141.75,0.25,63,107.0
1498,C2,142.0,1.0,95,107.0
1499,A4,142.0,0.25,84,107.0
1500,G#2,142.0,0.25,84,107.0
1501,C2,142.0,0.25,84,107.0
1502,A4,142.25,0.25,47,107.0
1503,A4,142.5,0.25,95,107.0
1504,B-4,142.5,0.25,95,107.0
1505,G#2,142.5,0.25,95,107.0
1506,C3,142.688,0.25,63,107.0
1507,A4,142.75,0.25,63,107.0
1508,D4,142.938,0.25,95,107.0
1509,G1,143.0,1.0,95,107.0
1510,A4,143.0,0.25,84,107.0
1511,G#2,143.0,0.25,84,107.0
1512,D2,143.0,0.25,84,107.0
1513,E4,143.188,0.5,70,107.0
1514,A4,143.25,0.25,63,107.0
1515,G3,143.438,0.25,63,107.0
1516,A4,143.5,0.25,95,107.0
1517,B-4,143.5,0.25,95,107.0
1518,G#2,143.5,0.25,95,107.0
1519,B-2,143.5,0.25,95,107.0
1520,D4,143.688,0.25,95,107.0
1521,A4,143.75,0.25,63,107.0
1522,C4,143.938,0.25,95,107.0
1523,F2,144.0,1.0,95,107.0
1524,A4,144.0,0.25,84,107.0
1525,G#2,144.0,0.25,84,107.0
1526,C2,144.0,0.25,84,107.0
1527,G3,144.188,0.25,63,107.0
1528,A4,144.25,0.25,47,107.0
1529,G4,144.438,0.25,95,107.0
1530,B3,144.5,1.0,95,107.0
1531,G3,144.5,1.0,95,107.0
1532,A4,144.5,0.25,95,107.0
1533,B-4,144.5,0.25,95,107.0
1534,G#2,144.5,0.25,95,107.0
1535,C3,144.688,0.25,63,107.0
1536,A4,144.75,0.25,63,107.0
1537,C4,144.938,0.375,63,107.0
1538,C2,145.0,1.0,95,107.0
1539,A4,145.0,0.25,84,107.0
1540,G#2,145.0,0.25,84,107.0
1541,D2,145.0,0.25,84,107.0
1542,A4,145.25,0.25,47,107.0
1543,D4,145.312,0.125,63,107.0
1544,E4,145.438,0.25,70,107.0
1545,A4,145.5,0.5,95,107.0
1546,F4,145.5,0.5,95,107.0
1547,A4,145.5,0.25,95,107.0
1548,B-4,145.5,0.25,95,107.0
1549,G#2,145.5,0.25,95,107.0
1550,D4,145.688,0.25,70,107.0
1551,A4,145.75,0.25,63,107.0
1552,C4,145.938,0.25,95,107.0
1553,F2,146.0,1.0,95,107.0
1554,A4,146.0,0.25,84,107.0
1555,G#2,146.0,0.25,84,107.0
1556,C2,146.0,0.25,84,107.0
1557,G3,146.188,0.375,63,107.0
1558,A4,146.25,2.25,95,107.0
1559,A4,146.25,0.25,47,107.0
1560,A4,146.5,0.25,95,107.0
1561,B-4,146.5,0.25,95,107.0
1562,G#2,146.5,0.25,95,107.0
1563,D4,146.562,0.125,47,107.0
1564,C3,146.688,0.25,63,107.0
1565,A4,146.75,0.25,63,107.0
1566,D4,146.938,0.25,95,107.0
1567,E4,147.0,2.5,95,107.0
1568,C2,147.0,1.0,95,107.0
1569,A4,147.0,0.25,84,107.0
1570,G#2,147.0,0.25,84,107.0
1571,D2,147.0,0.25,84,107.0
1572,E4,147.188,0.5,70,107.0
1573,A4,147.25,0.25,63,107.0
1574,G3,147.438,0.25,63,107.0
1575,A4,147.5,0.25,95,107.0
1576,B-4,147.5,0.25,95,107.0
1577,G#2,147.5,0.25,95,107.0
1578,D4,147.688,0.25,95,107.0
1579,A4,147.75,0.25,63,107.0
1580,C4,147.938,0.25,95,107.0
1581,F2,148.0,1.0,95,107.0
1582,A4,148.0,0.25,84,107.0
1583,G#2,148.0,0.25,84,107.0
1584,C2,148.0,0.25,84,107.0
1585,G3,148.188,0.25,63,107.0
1586,A4,148.25,0.25,47,107.0
1587,G4,148.438,0.25,95,107.0
1588,A4,148.5,0.25,95,107.0
1589,B-4,148.5,0.25,95,107.0
1590,G#2,148.5,0.25,95,107.0
1591,C3,148.688,0.25,63,107.0
1592,A4,148.75,0.25,63,107.0
1593,C4,148.938,0.375,63,107.0
1594,C2,149.0,1.0,95,107.0
1595,A4,149.0,0.25,84,107.0
1596,G#2,149.0,0.25,84,107.0
1597,D2,149.0,0.25,84,107.0
1598,A4,149.25,0.25,47,107.0
1599,D4,149.312,0.125,63,107.0
1600,E4,149.438,0.25,70,107.0
1601,E4,149.5,0.25,95,107.0
1602,A4,149.5,0.25,95,107.0
1603,B-4,149.5,0.25,95,107.0
1604,G#2,149.5,0.25,95,107.0
1605,D4,149.688,0.25,70,107.0
1606,F4,149.75,0.25,70,107.0
1607,A4,149.75,0.25,63,107.0
1608,C4,149.938,0.25,95,107.0
1609,E4,150.0,0.5,70,107.0
1610,F2,150.0,1.0,95,107.0
1611,A4,150.0,0.25,84,107.0
1612,G#2,150.0,0.25,84,107.0
1613,C2,150.0,0.25,84,107.0
1614,G3,150.188,0.375,63,107.0
1615,A4,150.25,0.25,47,107.0
1616,D4,150.5,1.0,79,107.0
1617,A4,150.5,0.25,95,107.0
1618,B-4,150.5,0.25,95,107.0
1619,G#2,150.5,0.25,95,107.0
1620,D4,150.562,0.125,47,107.0
1621,C3,150.688,0.25,79,107.0
1622,A4,150.75,0.25,63,107.0
1623,D4,150.938,0.25,95,107.0
1624,C2,151.0,1.0,95,107.0
1625,A4,151.0,0.25,84,107.0
1626,G#2,151.0,0.25,84,107.0
1627,D2,151.0,0.25,84,107.0
1628,E4,151.188,0.5,70,107.0
1629,A4,151.25,0.25,63,107.0
1630,F3,151.438,0.25,63,107.0
1631,E4,151.5,0.25,95,107.0
1632,A4,151.5,0.25,95,107.0
1633,B-4,151.5,0.25,95,107.0
1634,G#2,151.5,0.25,95,107.0
1635,B-2,151.5,0.25,95,107.0
1636,D4,151.688,0.25,95,107.0
1637,F4,151.75,0.25,70,107.0
1638,A4,151.75,0.25,63,107.0
1639,C4,151.938,0.25,95,107.0
1640,E4,152.0,1.5,70,107.0
1641,D2,152.0,1.0,95,107.0
1642,A4,152.0,0.25,84,107.0
1643,G#2,152.0,0.25,84,107.0
1644,C2,152.0,0.25,84,107.0
1645,F3,152.188,0.25,63,107.0
1646,A4,152.25,0.25,47,107.0
1647,G4,152.438,0.25,95,107.0
1648,A4,152.5,0.25,95,107.0
1649,B-4,152.5,0.25,95,107.0
1650,G#2,152.5,0.25,95,107.0
1651,C3,152.688,0.25,63,107.0
1652,A4,152.75,0.25,63,107.0
1653,C4,152.938,0.375,63,107.0
1654,A1,153.0,1.0,95,107.0
1655,A4,153.0,0.25,84,107.0
1656,G#2,153.0,0.25,84,107.0
1657,D2,153.0,0.25,84,107.0
1658,A4,153.25,0.25,47,107.0
1659,D4,153.312,0.125,63,107.0
1660,E4,153.438,0.25,70,107.0
1661,A4,153.5,0.25,95,107.0
1662,B-4,153.5,0.25,95,107.0
1663,G#2,153.5,0.25,95,107.0
1664,D4,153.688,0.25,70,107.0
1665,A4,153.75,0.25,63,107.0
1666,C4,153.938,0.25,95,107.0
1667,D2,154.0,1.0,95,107.0
1668,A4,154.0,0.25,84,107.0
1669,G#2,154.0,0.25,84,107.0
1670,C2,154.0,0.25,84,107.0
1671,F3,154.188,0.375,63,107.0
1672,A4,154.25,0.25,47,107.0
1673,A4,154.5,0.25,95,107.0
1674,B-4,154.5,0.25,95,107.0
1675,G#2,154.5,0.25,95,107.0
1676,D4,154.562,0.125,47,107.0
1677,C3,154.688,0.25,79,107.0
1678,A4,154.75,0.25,63,107.0
1679,D4,154.938,0.25,95,107.0
1680,A1,155.0,1.0,95,107.0
1681,A4,155.0,0.25,84,107.0
1682,G#2,155.0,0.25,84,107.0
1683,D2,155.0,0.25,84,107.0
1684,E4,155.188,0.5,70,107.0
1685,A4,155.25,0.25,63,107.0
1686,F3,155.438,0.25,63,107.0
1687,A4,155.5,0.25,95,107.0
1688,B-4,155.5,0.25,95,107.0
1689,G#2,155.5,0.25,95,107.0
1690,D4,155.688,0.25,95,107.0
1691,A4,155.75,0.25,63,107.0
1692,C4,155.938,0.25,95,107.0
1693,D2,156.0,1.0,95,107.0
1694,A4,156.0,0.25,84,107.0
1695,G#2,156.0,0.25,84,107.0
1696,C2,156.0,0.25,84,107.0
1697,F3,156.188,0.25,63,107.0
1698,A4,156.25,0.25,47,107.0
1699,A4,156.438,0.25,95,107.0
1700,A3,156.5,1.0,95,107.0
1701,A4,156.5,0.25,95,107.0
1702,B-4,156.5,0.25,95,107.0
1703,G#2,156.5,0.25,95,107.0
1704,C3,156.688,0.25,63,107.0
1705,A4,156.75,0.25,63,107.0
1706,C4,156.938,0.375,63,107.0
1707,A1,157.0,1.0,95,107.0
1708,A4,157.0,0.25,84,107.0
1709,G#2,157.0,0.25,84,107.0
1710,D2,157.0,0.25,84,107.0
1711,A4,157.25,0.25,47,107.0
1712,D4,157.312,0.125,63,107.0
1713,E4,157.438,0.25,70,107.0
1714,G4,157.5,0.5,111,107.0
1715,A4,157.5,0.25,95,107.0
1716,B-4,157.5,0.25,95,107.0
1717,G#2,157.5,0.25,95,107.0
1718,D4,157.688,0.25,70,107.0
1719,A4,157.75,0.25,63,107.0
1720,C4,157.938,0.25,95,107.0
1721,F#4,158.0,0.5,111,107.0
1722,D2,158.0,1.0,95,107.0
1723,A4,158.0,0.25,84,107.0
1724,G#2,158.0,0.25,84,107.0
1725,C2,158.0,0.25,84,107.0
1726,F3,158.188,0.375,63,107.0
1727,A4,158.25,0.25,47,107.0
1728,F4,158.5,0.5,111,107.0
1729,A4,158.5,0.25,95,107.0
1730,B-4,158.5,0.25,95,107.0
1731,G#2,158.5,0.25,95,107.0
1732,D4,158.562,0.125,47,107.0
1733,D3,158.688,0.25,95,107.0
1734,A4,158.75,0.25,63,107.0
1735,B-2,158.75,0.25,63,107.0
1736,D4,158.938,0.25,95,107.0
1737,E4,159.0,0.5,111,107.0
1738,A1,159.0,1.0,95,107.0
1739,A4,159.0,0.25,84,107.0
1740,G#2,159.0,0.25,84,107.0
1741,D2,159.0,0.25,84,107.0
1742,E4,159.188,0.5,70,107.0
1743,A4,159.25,0.25,63,107.0
1744,F#3,159.438,0.25,79,107.0
1745,D4,159.5,2.0,111,107.0
1746,A4,159.5,0.25,95,107.0
1747,B-4,159.5,0.25,95,107.0
1748,G#2,159.5,0.25,95,107.0
1749,B-2,159.5,0.25,95,107.0
1750,D4,159.688,0.25,95,107.0
1751,A4,159.75,0.25,63,107.0
1752,C4,159.938,0.25,95,107.0
1753,B-1,160.0,3.0,95,107.0
1754,G#2,160.0,0.25,111,107.0
1755,C2,160.0,2.0,63,107.0
1756,F#3,160.188,0.25,63,107.0
1757,F#2,160.25,0.25,47,107.0
1758,A4,160.438,0.25,95,107.0
1759,F#2,160.5,0.25,47,107.0
1760,D3,160.688,0.25,63,107.0
1761,F#2,160.75,0.25,79,107.0
1762,C4,160.938,0.375,63,107.0
1763,G#2,161.0,0.25,111,107.0
1764,F#2,161.25,0.25,47,107.0
1765,D4,161.312,0.125,95,107.0
1766,E4,161.438,0.25,70,107.0
1767,F#2,161.5,0.25,47,107.0
1768,D4,161.688,0.25,70,107.0
1769,F#2,161.75,0.25,79,107.0
1770,C4,161.938,0.25,95,107.0
1771,G#2,162.0,0.25,111,107.0
1772,C2,162.0,2.0,63,107.0
1773,F#3,162.188,0.375,63,107.0
1774,F#2,162.25,0.25,47,107.0
1775,F#2,162.5,0.25,47,107.0
1776,D4,162.562,0.125,95,107.0
1777,D3,162.688,0.25,95,107.0
1778,F#2,162.75,0.25,79,107.0
1779,D4,162.938,0.25,95,107.0
1780,B-1,163.0,1.0,95,107.0
1781,G#2,163.0,0.25,111,107.0
1782,D4,163.0,0.5,87,107.0
1783,B-3,163.0,0.5,87,107.0
1784,E4,163.188,0.5,70,107.0
1785,F#2,163.25,0.25,47,107.0
1786,F#3,163.438,0.25,79,107.0
1787,F#2,163.5,0.25,47,107.0
1788,D4,163.5,0.5,79,107.0
1789,B-3,163.5,0.5,79,107.0
1790,D4,163.688,0.25,95,107.0
1791,F#2,163.75,0.25,79,107.0
1792,C4,163.938,0.25,95,107.0
1793,D3,164.0,11/200,95,107.0
1794,D2,164.0,4.0,95,107.0
1795,G#2,164.0,0.25,111,107.0
1796,C2,164.0,2.0,63,107.0
1797,F#3,164.188,0.25,63,107.0
1798,F#2,164.25,0.25,47,107.0
1799,E4,164.25,0.75,79,107.0
1800,C4,164.25,0.75,79,107.0
1801,A4,164.438,0.25,95,107.0
1802,F#2,164.5,0.25,47,107.0
1803,D3,164.688,0.25,63,107.0
1804,F#2,164.75,0.25,79,107.0
1805,C4,164.938,0.375,63,107.0
1806,F4,165.0,0.5,95,107.0
1807,G#2,165.0,0.25,111,107.0
1808,F#2,165.25,0.25,47,107.0
1809,D4,165.312,0.125,95,107.0
1810,E4,165.438,0.25,70,107.0
1811,B-3,165.5,0.5,47,107.0
1812,F#2,165.5,0.25,47,107.0
1813,D4,165.688,0.25,70,107.0
1814,F#2,165.75,0.25,79,107.0
1815,C4,165.938,0.25,95,107.0
1816,C2,166.0,2.0,63,107.0
1817,D4,166.0,0.5,71,107.0
1818,B-3,166.0,0.5,71,107.0
1819,G#2,166.0,0.25,103,107.0
1820,B2,166.0,0.25,103,107.0
1821,F#3,166.188,0.375,63,107.0
1822,F#2,166.25,0.25,47,107.0
1823,D4,166.5,0.5,71,107.0
1824,A3,166.5,0.5,71,107.0
1825,F#2,166.5,0.25,47,107.0
1826,D2,166.5,0.25,47,107.0
1827,D4,166.562,0.125,95,107.0
1828,D4,166.688,4.0,95,107.0
1829,C4,166.688,4.0,95,107.0
1830,F3,166.688,4.0,95,107.0
1831,C3,166.688,4.0,95,107.0
1832,F#2,166.75,0.25,87,107.0
1833,A2,166.75,0.25,87,107.0
1834,G#2,167.0,0.25,111,107.0
1835,G2,167.0,1.0,95,107.0
1836,D4,167.0,0.5,71,107.0
1837,G#3,167.0,0.5,71,107.0
1838,F#2,167.25,0.25,47,107.0
1839,D4,167.5,0.25,71,107.0
1840,B-3,167.5,0.25,71,107.0
1841,F#2,167.5,0.5,71,107.0
1842,B-2,167.5,0.5,71,107.0
1843,B-3,167.75,0.25,95,107.0
1844,A3,168.0,0.25,95,107.0
1845,C2,168.0,1.0,95,107.0
1846,A4,168.0,0.25,84,107.0
1847,G#2,168.0,0.25,84,107.0
1848,C2,168.0,0.25,84,107.0
1849,A4,168.25,0.25,47,107.0
1850,D4,168.25,1.25,71,107.0
1851,G#3,168.25,1.25,71,107.0
1852,A4,168.5,0.25,95,107.0
1853,B-4,168.5,0.25,95,107.0
1854,G#2,168.5,0.25,95,107.0
1855,A4,168.75,0.25,63,107.0
1856,G1,169.0,1.0,95,107.0
1857,A4,169.0,0.25,84,107.0
1858,G#2,169.0,0.25,84,107.0
1859,D2,169.0,0.25,84,107.0
1860,A4,169.25,0.25,47,107.0
1861,C4,169.5,2.0,47,107.0
1862,G3,169.5,2.0,47,107.0
1863,A4,169.5,0.25,95,107.0
1864,B-4,169.5,0.25,95,107.0
1865,G#2,169.5,0.25,95,107.0
1866,A4,169.75,0.25,63,107.0
1867,C2,170.0,1.0,95,107.0
1868,A4,170.0,0.25,84,107.0
1869,G#2,170.0,0.25,84,107.0
1870,C2,170.0,0.25,84,107.0
1871,A4,170.25,0.25,47,107.0
1872,A4,170.5,0.25,95,107.0
1873,B-4,170.5,0.25,95,107.0
1874,G#2,170.5,0.25,95,107.0
1875,A4,170.75,0.25,63,107.0
1876,G1,171.0,1.0,95,107.0
1877,A4,171.0,0.25,84,107.0
1878,G#2,171.0,0.25,84,107.0
1879,D2,171.0,0.25,84,107.0
1880,A4,171.25,0.25,63,107.0
1881,A4,171.5,0.25,95,107.0
1882,B-4,171.5,0.25,95,107.0
1883,G#2,171.5,0.25,95,107.0
1884,A4,171.75,0.25,63,107.0
1885,C2,172.0,1.0,95,107.0
1886,E-4,172.0,1.5,95,107.0
1887,D4,172.0,1.5,95,107.0
1888,A4,172.0,0.25,84,107.0
1889,G#2,172.0,0.25,84,107.0
1890,C2,172.0,0.25,84,107.0
1891,A4,172.25,0.25,47,107.0
1892,A4,172.5,0.25,95,107.0
1893,B-4,172.5,0.25,95,107.0
1894,G#2,172.5,0.25,95,107.0
1895,A4,172.75,0.25,63,107.0
1896,G1,173.0,1.0,95,107.0
1897,A4,173.0,0.25,84,107.0
1898,G#2,173.0,0.25,84,107.0
1899,D2,173.0,0.25,84,107.0
1900,A4,173.25,0.25,47,107.0
1901,A4,173.5,0.25,95,107.0
1902,B-4,173.5,0.25,95,107.0
1903,G#2,173.5,0.25,95,107.0
1904,C#4,173.75,0.25,95,107.0
1905,A4,173.75,0.25,63,107.0
1906,C4,174.0,0.25,70,107.0
1907,C2,174.0,1.0,95,107.0
1908,A4,174.0,0.25,84,107.0
1909,G#2,174.0,0.25,84,107.0
1910,C2,174.0,0.25,84,107.0
1911,A3,174.25,0.25,95,107.0
1912,A4,174.25,0.25,47,107.0
1913,G3,174.5,0.25,70,107.0
1914,A4,174.5,0.25,95,107.0
1915,B-4,174.5,0.25,95,107.0
1916,G#2,174.5,0.25,95,107.0
1917,D4,174.688,4.0,95,107.0
1918,C4,174.688,4.0,95,107.0
1919,F3,174.688,4.0,95,107.0
1920,C3,174.688,4.0,95,107.0
1921,B-3,174.75,0.25,95,107.0
1922,A4,174.75,0.25,79,107.0
1923,B-2,174.75,0.25,79,107.0
1924,A3,175.0,0.25,70,107.0
1925,G1,175.0,1.0,95,107.0
1926,A4,175.0,0.25,84,107.0
1927,G#2,175.0,0.25,84,107.0
1928,D2,175.0,0.25,84,107.0
1929,G3,175.25,0.25,70,107.0
1930,A4,175.25,0.25,63,107.0
1931,F3,175.5,0.25,95,107.0
1932,A4,175.5,0.5,95,107.0
1933,B-4,175.5,0.5,95,107.0
1934,G#2,175.5,0.5,95,107.0
1935,B-2,175.5,0.5,95,107.0
1936,G3,175.75,0.25,95,107.0
1937,D3,176.0,0.25,95,107.0
1938,F2,176.0,1.0,95,107.0
1939,A4,176.0,0.25,84,107.0
1940,G#2,176.0,0.25,84,107.0
1941,C2,176.0,0.25,84,107.0
1942,E-3,176.25,0.25,70,107.0
1943,A4,176.25,0.25,47,107.0
1944,D3,176.5,0.25,70,107.0
1945,A4,176.5,0.25,95,107.0
1946,B-4,176.5,0.25,95,107.0
1947,G#2,176.5,0.25,95,107.0
1948,C3,176.75,0.75,95,107.0
1949,A4,176.75,0.25,63,107.0
1950,C2,177.0,1.0,95,107.0
1951,A4,177.0,0.25,84,107.0
1952,G#2,177.0,0.25,84,107.0
1953,D2,177.0,0.25,84,107.0
1954,A4,177.25,0.25,47,107.0
1955,C3,177.5,1.0,95,107.0
1956,A4,177.5,0.25,95,107.0
1957,B-4,177.5,0.25,95,107.0
1958,G#2,177.5,0.25,95,107.0
1959,A4,177.75,0.25,63,107.0
1960,F2,178.0,1.0,95,107.0
1961,A4,178.0,0.25,84,107.0
1962,G#2,178.0,0.25,84,107.0
1963,C2,178.0,0.25,84,107.0
1964,A4,178.25,0.25,47,107.0
1965,A4,178.5,0.25,95,107.0
1966,B-4,178.5,0.25,95,107.0
1967,G#2,178.5,0.25,95,107.0
1968,C3,178.688,0.25,63,107.0
1969,A4,178.75,0.25,63,107.0
1970,D4,178.938,0.25,95,107.0
1971,C3,179.0,0.5,95,107.0
1972,C2,179.0,1.0,95,107.0
1973,A4,179.0,0.25,84,107.0
1974,G#2,179.0,0.25,84,107.0
1975,D2,179.0,0.25,84,107.0
1976,E4,179.188,0.5,70,107.0
1977,A4,179.25,0.25,63,107.0
1978,G3,179.438,0.25,63,107.0
1979,A3,179.5,2.0,111,107.0
1980,A4,179.5,0.25,95,107.0
1981,B-4,179.5,0.25,95,107.0
1982,G#2,179.5,0.25,95,107.0
1983,D4,179.688,0.25,95,107.0
1984,A4,179.75,0.25,63,107.0
1985,C4,179.938,0.25,95,107.0
1986,F2,180.0,1.0,95,107.0
1987,A4,180.0,0.25,84,107.0
1988,G#2,180.0,0.25,84,107.0
1989,C2,180.0,0.25,84,107.0
1990,G3,180.188,0.25,63,107.0
1991,A4,180.25,0.25,47,107.0
1992,G4,180.438,0.25,95,107.0
1993,A4,180.5,0.25,95,107.0
1994,B-4,180.5,0.25,95,107.0
1995,G#2,180.5,0.25,95,107.0
1996,C3,180.688,0.25,63,107.0
1997,A4,180.75,0.25,63,107.0
1998,C4,180.938,0.375,63,107.0
1999,C2,181.0,1.0,95,107.0
2000,A4,181.0,0.25,84,107.0
2001,G#2,181.0,0.25,84,107.0
2002,D2,181.0,0.25,84,107.0
2003,A4,181.25,0.25,47,107.0
2004,D4,181.312,0.125,63,107.0
2005,E4,181.438,0.25,70,107.0
2006,A3,181.5,4.0,111,107.0
2007,A4,181.5,0.25,95,107.0
2008,B-4,181.5,0.25,95,107.0
2009,G#2,181.5,0.25,95,107.0
2010,D4,181.688,0.25,70,107.0
2011,A4,181.75,0.25,63,107.0
2012,C4,181.938,0.25,95,107.0
2013,F2,182.0,1.0,95,107.0
2014,A4,182.0,0.25,84,107.0
2015,G#2,182.0,0.25,84,107.0
2016,C2,182.0,0.25,84,107.0
2017,G3,182.188,0.375,63,107.0
2018,A4,182.25,0.25,47,107.0
2019,A4,182.5,0.25,95,107.0
2020,B-4,182.5,0.25,95,107.0
2021,G#2,182.5,0.25,95,107.0
2022,D4,182.562,0.125,47,107.0
2023,C3,182.688,0.25,63,107.0
2024,A4,182.75,0.25,79,107.0
2025,B-2,182.75,0.25,79,107.0
2026,D4,182.938,0.25,95,107.0
2027,C2,183.0,1.0,95,107.0
2028,A4,183.0,0.25,84,107.0
2029,G#2,183.0,0.25,84,107.0
2030,D2,183.0,0.25,84,107.0
2031,E4,183.188,0.5,70,107.0
2032,A4,183.25,0.25,63,107.0
2033,G3,183.438,0.25,63,107.0
2034,A4,183.5,0.5,95,107.0
2035,B-4,183.5,0.5,95,107.0
2036,G#2,183.5,0.5,95,107.0
2037,B-2,183.5,0.5,95,107.0
2038,D4,183.688,0.25,95,107.0
2039,C4,183.938,0.25,95,107.0
2040,D2,184.0,1.0,95,107.0
2041,A4,184.0,0.25,84,107.0
2042,G#2,184.0,0.25,84,107.0
2043,C2,184.0,0.25,84,107.0
2044,G3,184.188,0.25,63,107.0
2045,A4,184.25,0.25,47,107.0
2046,G4,184.438,0.25,95,107.0
2047,A4,184.5,0.25,95,107.0
2048,B-4,184.5,0.25,95,107.0
2049,G#2,184.5,0.25,95,107.0
2050,C3,184.688,0.25,63,107.0
2051,A4,184.75,0.25,63,107.0
2052,C4,184.938,0.375,63,107.0
2053,A1,185.0,1.0,95,107.0
2054,A4,185.0,0.25,84,107.0
2055,G#2,185.0,0.25,84,107.0
2056,D2,185.0,0.25,84,107.0
2057,A4,185.25,0.25,47,107.0
2058,D4,185.312,0.125,63,107.0
2059,E4,185.438,0.25,70,107.0
2060,A4,185.5,0.25,95,107.0
2061,B-4,185.5,0.25,95,107.0
2062,G#2,185.5,0.25,95,107.0
2063,D4,185.688,0.25,70,107.0
2064,A4,185.75,0.25,63,107.0
2065,C4,185.938,0.25,95,107.0
2066,D2,186.0,1.0,95,107.0
2067,A4,186.0,0.25,84,107.0
2068,G#2,186.0,0.25,84,107.0
2069,C2,186.0,0.25,84,107.0
2070,G3,186.188,0.375,63,107.0
2071,A4,186.25,0.25,47,107.0
2072,C4,186.5,0.25,95,107.0
2073,A4,186.5,0.25,95,107.0
2074,B-4,186.5,0.25,95,107.0
2075,G#2,186.5,0.25,95,107.0
2076,D4,186.562,0.125,47,107.0
2077,C3,186.688,0.25,79,107.0
2078,B3,186.75,0.25,70,107.0
2079,A4,186.75,0.25,63,107.0
2080,D4,186.938,0.25,95,107.0
2081,A3,187.0,0.25,70,107.0
2082,A1,187.0,1.0,95,107.0
2083,A4,187.0,0.25,84,107.0
2084,G#2,187.0,0.25,84,107.0
2085,D2,187.0,0.25,84,107.0
2086,E4,187.188,0.5,70,107.0
2087,C4,187.25,0.25,95,107.0
2088,A4,187.25,0.25,63,107.0
2089,F3,187.438,0.25,63,107.0
2090,B3,187.5,0.25,70,107.0
2091,A4,187.5,0.25,95,107.0
2092,B-4,187.5,0.25,95,107.0
2093,G#2,187.5,0.25,95,107.0
2094,D4,187.688,0.25,95,107.0
2095,A3,187.75,0.25,70,107.0
2096,A4,187.75,0.25,63,107.0
2097,C4,187.938,0.25,95,107.0
2098,C4,188.0,0.25,95,107.0
2099,D2,188.0,1.0,95,107.0
2100,A4,188.0,0.25,84,107.0
2101,G#2,188.0,0.25,84,107.0
2102,C2,188.0,0.25,84,107.0
2103,F3,188.188,0.25,63,107.0
2104,B3,188.25,0.25,70,107.0
2105,A4,188.25,0.25,47,107.0
2106,G4,188.438,0.25,95,107.0
2107,A3,188.5,0.25,70,107.0
2108,A4,188.5,0.25,95,107.0
2109,B-4,188.5,0.25,95,107.0
2110,G#2,188.5,0.25,95,107.0
2111,C3,188.688,0.25,63,107.0
2112,C4,188.75,0.25,95,107.0
2113,A4,188.75,0.25,63,107.0
2114,C4,188.938,0.375,63,107.0
2115,B3,189.0,0.25,70,107.0
2116,A1,189.0,1.0,95,107.0
2117,A4,189.0,0.25,84,107.0
2118,G#2,189.0,0.25,84,107.0
2119,D2,189.0,0.25,84,107.0
2120,A3,189.25,0.25,70,107.0
2121,A4,189.25,0.25,47,107.0
2122,D4,189.312,0.125,63,107.0
2123,E4,189.438,0.25,70,107.0
2124,B3,189.5,0.25,95,107.0
2125,A4,189.5,0.25,95,107.0
2126,B-4,189.5,0.25,95,107.0
2127,G#2,189.5,0.25,95,107.0
2128,D4,189.688,0.25,70,107.0
2129,C4,189.75,0.25,70,107.0
2130,A4,189.75,0.25,63,107.0
2131,C4,189.938,0.25,95,107.0
2132,B3,190.0,0.5,70,107.0
2133,D2,190.0,1.0,95,107.0
2134,A4,190.0,0.25,84,107.0
2135,G#2,190.0,0.25,84,107.0
2136,C2,190.0,0.25,84,107.0
2137,F3,190.188,0.375,63,107.0
2138,A4,190.25,0.25,47,107.0
2139,A3,190.5,3.0,95,107.0
2140,A4,190.5,0.25,95,107.0
2141,B-4,190.5,0.25,95,107.0
2142,G#2,190.5,0.25,95,107.0
2143,D4,190.562,0.125,47,107.0
2144,C3,190.688,0.25,79,107.0
2145,A4,190.75,0.25,63,107.0
2146,B-2,190.75,0.25,63,107.0
2147,D4,190.938,0.25,95,107.0
2148,A1,191.0,1.0,95,107.0
2149,A4,191.0,0.25,84,107.0
2150,G#2,191.0,0.25,84,107.0
2151,D2,191.0,0.25,84,107.0
2152,E4,191.188,0.5,70,107.0
2153,A4,191.25,0.25,63,107.0
2154,F3,191.438,0.25,63,107.0
2155,A4,191.5,0.25,95,107.0
2156,B-4,191.5,0.25,95,107.0
2157,G#2,191.5,0.25,95,107.0
2158,B-2,191.5,0.25,95,107.0
2159,D4,191.688,0.25,95,107.0
2160,A4,191.75,0.25,63,107.0
2161,C4,191.938,0.25,95,107.0
2162,B1,192.0,3.0,95,107.0
2163,F#2,192.0,0.25,71,107.0
2164,C2,192.0,0.25,71,107.0
2165,F3,192.188,0.25,63,107.0
2166,F#2,192.25,0.25,47,107.0
2167,A4,192.438,0.25,95,107.0
2168,F#2,192.5,0.25,47,107.0
2169,C3,192.688,0.25,63,107.0
2170,G#2,192.75,0.25,95,107.0
2171,C4,192.938,0.375,63,107.0
2172,G#2,193.0,0.25,79,107.0
2173,B-2,193.0,0.25,79,107.0
2174,G#2,193.25,0.25,63,107.0
2175,D4,193.312,0.125,63,107.0
2176,E4,193.438,0.25,70,107.0
2177,B2,193.5,3.0,31,107.0
2178,G#2,193.5,0.25,63,107.0
2179,D3,193.625,2.875,31,107.0
2180,D4,193.688,0.25,70,107.0
2181,G#3,193.75,2.75,31,107.0
2182,G#2,193.75,0.25,63,107.0
2183,B3,193.875,2.625,31,107.0
2184,C4,193.938,0.25,95,107.0
2185,F#2,194.0,0.25,47,107.0
2186,F3,194.188,0.375,63,107.0
2187,F#2,194.25,0.25,47,107.0
2188,F#2,194.5,0.25,47,107.0
2189,D4,194.562,0.125,47,107.0
2190,D3,194.688,0.25,95,107.0
2191,G#2,194.75,0.25,95,107.0
2192,D4,194.938,0.25,95,107.0
2193,E1,195.0,1.0,95,107.0
2194,G#2,195.0,0.25,87,107.0
2195,B-2,195.0,0.25,87,107.0
2196,E4,195.188,0.5,70,107.0
2197,G#2,195.25,0.25,63,107.0
2198,F#3,195.438,0.25,79,107.0
2199,G#2,195.5,0.25,63,107.0
2200,D4,195.688,0.25,95,107.0
2201,G#2,195.75,0.25,63,107.0
2202,C4,195.938,0.25,95,107.0
2203,E2,196.0,4.0,95,107.0
2204,F#2,196.0,0.25,71,107.0
2205,C2,196.0,0.25,71,107.0
2206,F#3,196.188,0.25,63,107.0
2207,F#2,196.25,0.25,47,107.0
2208,A4,196.438,0.25,95,107.0
2209,E4,196.5,0.25,95,107.0
2210,F#2,196.5,0.25,47,107.0
2211,D3,196.688,0.25,63,107.0
2212,F4,196.75,0.25,70,107.0
2213,G#2,196.75,0.25,95,107.0
2214,C4,196.938,0.375,63,107.0
2215,E4,197.0,0.25,70,107.0
2216,G#2,197.0,0.25,79,107.0
2217,B-2,197.0,0.25,79,107.0
2218,E-4,197.25,0.25,70,107.0
2219,G#2,197.25,0.25,63,107.0
2220,D4,197.312,0.125,95,107.0
2221,E4,197.438,0.25,70,107.0
2222,E4,197.5,2.0,95,107.0
2223,G#2,197.5,0.25,63,107.0
2224,D4,197.688,0.25,70,107.0
2225,G#2,197.75,0.25,95,107.0
2226,C4,197.938,0.25,95,107.0
2227,G#2,198.0,0.25,79,107.0
2228,B-2,198.0,0.25,79,107.0
2229,F#3,198.188,0.375,63,107.0
2230,F#2,198.25,0.25,47,107.0
2231,F#2,198.5,0.25,47,107.0
2232,D4,198.562,0.125,95,107.0
2233,D3,198.688,0.25,95,107.0
2234,G#2,198.75,0.25,95,107.0
2235,D4,198.938,0.25,95,107.0
2236,G#2,199.0,0.25,87,107.0
2237,B-2,199.0,0.25,87,107.0
2238,E4,199.188,0.5,70,107.0
2239,G#2,199.25,0.25,63,107.0
2240,F#3,199.438,0.25,79,107.0
2241,F4,199.5,1.0,95,107.0
2242,G#2,199.5,0.25,95,107.0
2243,D4,199.688,0.25,95,107.0
2244,G#2,199.75,0.25,111,107.0
2245,C4,199.938,0.25,95,107.0
2246,F#2,200.0,0.25,47,107.0
2247,F#3,200.188,0.25,63,107.0
2248,F#2,200.25,0.25,47,107.0
2249,A4,200.438,0.25,95,107.0
2250,E4,200.5,1.0,95,107.0
2251,F#2,200.5,0.25,47,107.0
2252,D3,200.688,0.25,63,107.0
2253,G#2,200.75,0.25,95,107.0
2254,C4,200.938,0.375,63,107.0
2255,G#2,201.0,0.25,95,107.0
2256,G#2,201.25,0.25,63,107.0
2257,D4,201.312,0.125,95,107.0
2258,E4,201.438,0.25,70,107.0
2259,E4,201.5,3.0,95,107.0
2260,G#2,201.5,0.25,63,107.0
2261,D4,201.688,0.25,70,107.0
2262,G#2,201.75,0.25,63,107.0
2263,C4,201.938,0.25,95,107.0
2264,F#2,202.0,0.25,47,107.0
2265,F#3,202.188,0.375,63,107.0
2266,F#2,202.25,0.25,47,107.0
2267,F#2,202.5,0.25,47,107.0
2268,D4,202.562,0.125,95,107.0
2269,G#2,202.75,0.25,95,107.0
2270,G#2,203.0,0.25,111,107.0
2271,G#3,203.188,3.5,95,107.0
2272,G#2,203.25,0.25,63,107.0
2273,G#2,203.5,0.25,63,107.0
2274,B3,203.688,3.0,95,107.0
2275,G#2,203.75,0.25,63,107.0
2276,D4,203.938,2.75,95,107.0
2277,F#2,204.0,0.25,47,107.0
2278,F#2,204.25,0.25,47,107.0
2279,D4,204.5,0.5,111,107.0
2280,F#2,204.5,0.25,47,107.0
2281,G4,204.688,2.0,95,107.0
2282,G#2,204.75,0.25,95,107.0
2283,C4,205.0,0.25,111,107.0
2284,G#2,205.0,0.25,95,107.0
2285,D4,205.25,0.25,111,107.0
2286,G#2,205.25,0.25,63,107.0
2287,D4,205.5,2.0,111,107.0
2288,G#2,205.5,0.25,63,107.0
2289,G#2,205.75,0.25,63,107.0
2290,F#2,206.0,0.25,47,107.0
2291,F#2,206.25,0.25,47,107.0
2292,F#2,206.5,0.25,47,107.0
2293,G#3,206.688,3.5,95,107.0
2294,B3,206.688,3.5,95,107.0
2295,D4,206.688,3.5,95,107.0
2296,G4,206.688,3.5,95,107.0
2297,G#2,206.75,0.25,95,107.0
2298,G#2,207.0,0.25,111,107.0
2299,G#2,207.25,0.25,63,107.0
2300,C4,207.5,0.25,95,107.0
2301,G#2,207.5,0.25,63,107.0
2302,A3,207.75,0.5,95,107.0
2303,G#2,207.75,0.25,63,107.0
2304,F#2,208.0,0.25,47,107.0
2305,A3,208.25,0.25,95,107.0
2306,F#2,208.25,0.25,47,107.0
2307,G3,208.5,0.25,54,107.0
2308,F#2,208.5,0.25,47,107.0
2309,A3,208.75,0.75,54,107.0
2310,G#2,208.75,0.25,95,107.0
2311,G#2,209.0,0.25,95,107.0
2312,G#2,209.25,0.25,63,107.0
2313,A3,209.5,1.0,54,107.0
2314,G#2,209.5,0.25,63,107.0
2315,G#2,209.75,0.25,63,107.0
2316,F#2,210.0,0.25,47,107.0
2317,E4,210.188,0.5,95,107.0
2318,F#2,210.25,0.25,47,107.0
2319,C4,210.312,0.375,95,107.0
2320,A3,210.438,0.25,95,107.0
2321,B3,210.5,1.0,111,107.0
2322,F#2,210.5,0.25,47,107.0
2323,E3,210.562,0.125,95,107.0
2324,A2,210.688,4.0,95,107.0
2325,E4,210.688,4.0,95,107.0
2326,C4,210.688,4.0,95,107.0
2327,A3,210.688,4.0,95,107.0
2328,E3,210.688,4.0,95,107.0
2329,G#2,210.75,0.25,95,107.0
2330,G#2,211.0,0.25,111,107.0
2331,G#2,211.25,0.25,63,107.0
2332,A3,211.5,0.25,111,107.0
2333,G#2,211.5,0.25,63,107.0
2334,G3,211.75,0.25,111,107.0
2335,G#2,211.75,0.25,63,107.0
2336,E3,212.0,0.25,111,107.0
2337,F#2,212.0,0.25,47,107.0
2338,G3,212.25,0.25,111,107.0
2339,F#2,212.25,0.25,47,107.0
2340,E3,212.5,0.25,111,107.0
2341,F#2,212.5,0.25,47,107.0
2342,D3,212.75,0.25,111,107.0
2343,G#2,212.75,0.25,95,107.0
2344,C3,213.0,0.5,111,107.0
2345,G#2,213.0,0.25,95,107.0
2346,G#2,213.25,0.25,63,107.0
2347,C3,213.5,0.25,111,107.0
2348,G#2,213.5,0.25,63,107.0
2349,A2,213.75,0.25,111,107.0
2350,G#2,213.75,0.25,63,107.0
2351,B2,214.0,0.25,111,107.0
2352,F#2,214.0,0.25,47,107.0
2353,A2,214.25,0.5,111,107.0
2354,F#2,214.25,0.25,47,107.0
2355,F#2,214.5,0.25,47,107.0
2356,A2,214.688,3.5,95,107.0
2357,E4,214.688,3.5,95,107.0
2358,C4,214.688,3.5,95,107.0
2359,A3,214.688,3.5,95,107.0
2360,E3,214.688,3.5,95,107.0
2361,A2,214.75,0.25,111,107.0
2362,G#2,214.75,0.25,95,107.0
2363,G2,215.0,0.25,111,107.0
2364,G#2,215.0,0.25,111,107.0
2365,A2,215.25,2.25,111,107.0
2366,G#2,215.25,0.25,63,107.0
2367,G#2,215.5,0.25,63,107.0
2368,G#2,215.75,0.25,63,107.0
2369,F#2,216.0,0.25,47,107.0
2370,F#2,216.25,0.25,47,107.0
2371,F#2,216.5,0.25,47,107.0
2372,G#2,216.75,0.25,95,107.0
2373,G#2,217.0,0.25,95,107.0
2374,C2,217.0,0.25,95,107.0
2375,G#2,217.25,0.25,63,107.0
2376,G#2,217.5,0.25,63,107.0
2377,G#2,217.75,0.25,63,107.0
2378,F#2,218.0,0.25,47,107.0
2379,A3,218.188,0.469,79,107.0
2380,E3,218.188,0.469,79,107.0
2381,A2,218.188,0.469,79,107.0
2382,G2,218.25,0.25,111,107.0
2383,F#2,218.25,0.25,47,107.0
2384,A2,218.5,167/1000,111,107.0
2385,F#2,218.5,0.25,47,107.0
2386,B2,218.667,167/1000,111,107.0
2387,A2,218.688,4.0,95,107.0
2388,E3,218.75,3.938,95,107.0
2389,G#2,218.75,0.25,95,107.0
2390,A3,218.812,3.875,95,107.0
2391,C3,218.833,167/1000,111,107.0
2392,C4,218.875,3.812,95,107.0
2393,E4,218.938,3.75,95,107.0
2394,D3,219.0,167/1000,111,107.0
2395,G#2,219.0,0.25,103,107.0
2396,C2,219.0,0.25,103,107.0
2397,E3,219.167,167/1000,111,107.0
2398,G#2,219.25,0.25,63,107.0
2399,F3,219.333,167/1000,111,107.0
2400,G3,219.5,167/1000,111,107.0
2401,G#2,219.5,0.25,63,107.0
2402,A3,219.667,167/1000,111,107.0
2403,G#2,219.75,0.25,63,107.0
2404,B3,219.833,167/1000,111,107.0
2405,C4,220.0,167/1000,111,107.0
2406,F#2,220.0,0.25,47,107.0
2407,D4,220.167,167/1000,111,107.0
2408,F#2,220.25,0.25,47,107.0
2409,E4,220.333,167/1000,111,107.0
2410,F4,220.5,0.5,111,107.0
2411,F#2,220.5,0.25,47,107.0
2412,G#2,220.75,0.25,95,107.0
2413,E4,221.0,0.25,111,107.0
2414,G#2,221.0,0.25,95,107.0
2415,C2,221.0,0.25,95,107.0
2416,G4,221.25,0.25,111,107.0
2417,G#2,221.25,0.25,63,107.0
2418,G4,221.5,0.25,111,107.0
2419,G#2,221.5,0.25,63,107.0
2420,F4,221.75,0.75,111,107.0
2421,G#2,221.75,0.25,63,107.0
2422,F#2,222.0,0.25,47,107.0
2423,F#2,222.25,0.25,47,107.0
2424,E4,222.5,0.25,111,107.0
2425,F#2,222.5,0.25,47,107.0
2426,A2,222.688,3.5,95,107.0
2427,E3,222.688,3.5,95,107.0
2428,A3,222.688,3.5,95,107.0
2429,C4,222.688,3.5,95,107.0
2430,E4,222.688,3.5,95,107.0
2431,D4,222.75,0.25,111,107.0
2432,G#2,222.75,0.25,95,107.0
2433,B3,223.0,0.25,86,107.0
2434,G#2,223.0,0.25,103,107.0
2435,C2,223.0,0.25,103,107.0
2436,C4,223.25,0.25,111,107.0
2437,G#2,223.25,0.25,63,107.0
2438,E4,223.5,0.25,111,107.0
2439,G#2,223.5,0.25,63,107.0
2440,D4,223.75,0.25,111,107.0
2441,G#2,223.75,0.25,63,107.0
2442,B3,224.0,0.25,86,107.0
2443,F#2,224.0,0.25,47,107.0
2444,C4,224.25,0.25,111,107.0
2445,F#2,224.25,0.25,47,107.0
2446,A4,224.5,0.25,111,107.0
2447,F#2,224.5,0.25,47,107.0
2448,G4,224.75,0.25,86,107.0
2449,G#2,224.75,0.25,95,107.0
2450,E4,225.0,0.25,86,107.0
2451,G#2,225.0,0.25,95,107.0
2452,C2,225.0,0.25,95,107.0
2453,C4,225.25,0.25,111,107.0
2454,G#2,225.25,0.25,63,107.0
2455,E4,225.5,0.25,111,107.0
2456,G#2,225.5,0.25,63,107.0
2457,D4,225.75,0.25,111,107.0
2458,G#2,225.75,0.25,63,107.0
2459,B3,226.0,0.25,86,107.0
2460,F#2,226.0,0.25,47,107.0
2461,A3,226.188,0.469,79,107.0
2462,E3,226.188,0.469,79,107.0
2463,A2,226.188,0.469,79,107.0
2464,C4,226.25,0.25,111,107.0
2465,F#2,226.25,0.25,47,107.0
2466,A4,226.5,0.25,111,107.0
2467,F#2,226.5,0.25,47,107.0
2468,A2,226.688,4.0,95,107.0
2469,E3,226.75,3.938,95,107.0
2470,G4,226.75,0.25,86,107.0
2471,G#2,226.75,0.25,95,107.0
2472,A3,226.812,3.875,95,107.0
2473,C4,226.875,3.812,95,107.0
2474,E4,226.938,3.75,95,107.0
2475,E4,227.0,0.25,86,107.0
2476,G#2,227.0,0.25,103,107.0
2477,C2,227.0,0.25,103,107.0
2478,C4,227.25,0.25,111,107.0
2479,G#2,227.25,0.25,63,107.0
2480,E4,227.5,0.25,111,107.0
2481,G#2,227.5,0.25,63,107.0
2482,D4,227.75,0.25,111,107.0
2483,G#2,227.75,0.25,63,107.0
2484,B3,228.0,0.25,86,107.0
2485,F#2,228.0,0.25,47,107.0
2486,C4,228.25,0.25,111,107.0
2487,F#2,228.25,0.25,47,107.0
2488,A4,228.5,0.25,111,107.0
2489,F#2,228.5,0.25,47,107.0
2490,G4,228.75,0.25,86,107.0
2491,G#2,228.75,0.25,95,107.0
2492,E4,229.0,0.25,86,107.0
2493,G#2,229.0,0.25,95,107.0
2494,C2,229.0,0.25,95,107.0
2495,C4,229.25,0.25,111,107.0
2496,G#2,229.25,0.25,63,107.0
2497,E4,229.5,0.25,111,107.0
2498,G#2,229.5,0.25,63,107.0
2499,D4,229.75,0.25,111,107.0
2500,G#2,229.75,0.25,63,107.0
2501,B3,230.0,0.25,86,107.0
2502,F#2,230.0,0.25,47,107.0
2503,C4,230.25,0.25,111,107.0
2504,F#2,230.25,0.25,47,107.0
2505,A4,230.5,0.25,111,107.0
2506,F#2,230.5,0.25,47,107.0
2507,A2,230.688,3.5,95,107.0
2508,E3,230.688,3.5,95,107.0
2509,A3,230.688,3.5,95,107.0
2510,C4,230.688,3.5,95,107.0
2511,E4,230.688,3.5,95,107.0
2512,G4,230.75,0.25,86,107.0
2513,G#2,230.75,0.25,95,107.0
2514,E4,231.0,0.25,111,107.0
2515,E2,231.0,0.5,95,107.0
2516,G#2,231.0,0.5,103,107.0
2517,C2,231.0,0.5,103,107.0
2518,D4,231.25,0.25,111,107.0
2519,C4,231.5,2.0,111,107.0
2520,G#2,231.5,0.5,95,107.0
2521,B-2,231.5,0.5,95,107.0
2522,A1,232.0,1.0,95,107.0
2523,C2,232.0,0.5,95,107.0
2524,G#2,232.5,0.25,63,107.0
2525,G#2,232.75,0.25,63,107.0
2526,E2,233.0,1.0,79,107.0
2527,F#2,233.0,0.5,95,107.0
2528,E5,233.0,0.5,95,107.0
2529,E5,233.5,167/1000,111,107.0
2530,G#2,233.5,0.25,63,107.0
2531,D5,233.667,167/1000,86,107.0
2532,G#2,233.75,0.25,63,107.0
2533,C5,233.833,167/1000,111,107.0
2534,A4,234.0,333/1000,111,107.0
2535,A1,234.0,1.0,95,107.0
2536,F#2,234.0,0.5,95,107.0
2537,C2,234.0,0.5,95,107.0
2538,A3,234.188,0.469,79,107.0
2539,E3,234.188,0.469,79,107.0
2540,A2,234.188,0.469,79,107.0
2541,D5,234.333,167/1000,111,107.0
2542,B4,234.5,333/1000,111,107.0
2543,G#2,234.5,0.25,63,107.0
2544,A2,234.688,4.0,95,107.0
2545,E3,234.75,3.938,95,107.0
2546,G#2,234.75,0.25,63,107.0
2547,A3,234.812,3.875,95,107.0
2548,A4,234.833,0.25,111,107.0
2549,C4,234.875,3.812,95,107.0
2550,E4,234.938,3.75,95,107.0
2551,E2,235.0,1.0,79,107.0
2552,F#2,235.0,0.5,95,107.0
2553,E5,235.0,0.5,95,107.0
2554,G4,235.083,0.25,111,107.0
2555,A4,235.333,0.25,111,107.0
2556,G#2,235.5,0.25,63,107.0
2557,G4,235.583,1417/1000,111,107.0
2558,G#2,235.75,0.25,63,107.0
2559,A1,236.0,1.0,95,107.0
2560,C2,236.0,0.5,95,107.0
2561,G#2,236.5,0.25,63,107.0
2562,G#2,236.75,0.25,63,107.0
2563,G4,237.0,0.5,111,107.0
2564,E2,237.0,1.0,79,107.0
2565,F#2,237.0,0.5,95,107.0
2566,E5,237.0,0.5,95,107.0
2567,G4,237.5,1.0,111,107.0
2568,G#2,237.5,0.25,63,107.0
2569,G#2,237.75,0.25,63,107.0
2570,A1,238.0,1.0,95,107.0
2571,F#2,238.0,0.5,95,107.0
2572,C2,238.0,0.5,95,107.0
2573,A4,238.5,0.25,111,107.0
2574,G#2,238.5,0.25,63,107.0
2575,A2,238.688,4.0,95,107.0
2576,E3,238.688,4.0,95,107.0
2577,A3,238.688,4.0,95,107.0
2578,C4,238.688,4.0,95,107.0
2579,E4,238.688,4.0,95,107.0
2580,C5,238.75,0.25,86,107.0
2581,G#2,238.75,0.25,63,107.0
2582,A4,239.0,0.25,86,107.0
2583,E2,239.0,1.0,79,107.0
2584,F#2,239.0,0.25,95,107.0
2585,E5,239.0,0.25,95,107.0
2586,G4,239.25,0.25,111,107.0
2587,E5,239.25,0.25,95,107.0
2588,B-2,239.5,0.5,95,107.0
2589,G4,239.75,0.25,111,107.0
2590,A1,240.0,1.0,95,107.0
2591,C2,240.0,0.5,95,107.0
2592,E4,240.25,1.25,111,107.0
2593,G#2,240.5,0.25,63,107.0
2594,G#2,240.75,0.25,63,107.0
2595,E2,241.0,1.0,79,107.0
2596,F#2,241.0,0.5,95,107.0
2597,E5,241.0,0.5,95,107.0
2598,G#2,241.5,0.25,63,107.0
2599,G#2,241.75,0.25,63,107.0
2600,B3,242.0,0.25,95,107.0
2601,A1,242.0,1.0,95,107.0
2602,F#2,242.0,0.5,95,107.0
2603,C2,242.0,0.5,95,107.0
2604,C4,242.25,0.25,70,107.0
2605,B3,242.5,0.25,95,107.0
2606,G#2,242.5,0.25,63,107.0
2607,A2,242.688,1.0,63,107.0
2608,C4,242.75,0.25,70,107.0
2609,G#2,242.75,0.25,63,107.0
2610,E4,243.0,0.25,111,107.0
2611,E2,243.0,1.0,79,107.0
2612,F#2,243.0,0.5,95,107.0
2613,E5,243.0,0.5,95,107.0
2614,E4,243.188,0.5,47,107.0
2615,C4,243.188,0.5,47,107.0
2616,A3,243.188,0.5,47,107.0
2617,A4,243.25,0.25,111,107.0
2618,C5,243.5,0.25,111,107.0
2619,G#2,243.5,0.25,63,107.0
2620,E3,243.688,1.0,63,107.0
2621,A4,243.75,0.25,38,107.0
2622,G#2,243.75,0.25,63,107.0
2623,A1,244.0,1.0,95,107.0
2624,C2,244.0,0.5,95,107.0
2625,E4,244.188,0.5,47,107.0
2626,C4,244.188,0.5,47,107.0
2627,A3,244.188,0.5,47,107.0
2628,A4,244.25,0.25,79,107.0
2629,C5,244.5,0.25,95,107.0
2630,G#2,244.5,0.25,63,107.0
2631,A2,244.688,1.0,63,107.0
2632,A4,244.75,0.25,38,107.0
2633,G#2,244.75,0.25,63,107.0
2634,D2,245.0,0.5,95,107.0
2635,F#2,245.0,0.5,95,107.0
2636,E5,245.0,0.5,95,107.0
2637,E4,245.188,0.5,47,107.0
2638,C4,245.188,0.5,47,107.0
2639,A3,245.188,0.5,47,107.0
2640,A4,245.25,0.25,79,107.0
2641,C5,245.5,0.25,95,107.0
2642,E2,245.5,0.5,95,107.0
2643,G#2,245.5,0.25,63,107.0
2644,E3,245.688,1.0,63,107.0
2645,A4,245.75,0.25,54,107.0
2646,G#2,245.75,0.25,63,107.0
2647,A1,246.0,1.0,95,107.0
2648,F#2,246.0,0.5,95,107.0
2649,C2,246.0,0.5,95,107.0
2650,E4,246.188,0.5,47,107.0
2651,C4,246.188,0.5,47,107.0
2652,A3,246.188,0.5,47,107.0
2653,A4,246.25,0.25,79,107.0
2654,C5,246.5,0.25,111,107.0
2655,G#2,246.5,0.25,63,107.0
2656,A2,246.688,1.0,63,107.0
2657,A4,246.75,0.25,70,107.0
2658,G#2,246.75,0.25,63,107.0
2659,A2,247.0,1.0,95,107.0
2660,F#2,247.0,0.25,95,107.0
2661,E5,247.0,0.25,95,107.0
2662,E4,247.188,0.5,47,107.0
2663,C4,247.188,0.5,47,107.0
2664,A3,247.188,0.5,47,107.0
2665,A4,247.25,2.25,111,107.0
2666,E5,247.25,0.25,95,107.0
2667,B-2,247.5,0.5,95,107.0
2668,E3,247.688,1.0,63,107.0
2669,A1,248.0,1.0,95,107.0
2670,C2,248.0,0.5,95,107.0
2671,E4,248.188,0.5,47,107.0
2672,C4,248.188,0.5,47,107.0
2673,A3,248.188,0.5,47,107.0
2674,G#2,248.5,0.25,63,107.0
2675,A2,248.688,1.0,63,107.0
2676,G#2,248.75,0.25,63,107.0
2677,E2,249.0,1.0,79,107.0
2678,F#2,249.0,0.5,95,107.0
2679,E5,249.0,0.5,95,107.0
2680,E4,249.188,0.5,47,107.0
2681,C4,249.188,0.5,47,107.0
2682,A3,249.188,0.5,47,107.0
2683,A4,249.5,1.5,111,107.0
2684,G#2,249.5,0.25,63,107.0
2685,E3,249.688,1.0,63,107.0
2686,G#2,249.75,0.25,63,107.0
2687,A1,250.0,1.0,95,107.0
2688,F#2,250.0,0.5,95,107.0
2689,C2,250.0,0.5,95,107.0
2690,E4,250.188,0.5,47,107.0
2691,C4,250.188,0.5,47,107.0
2692,A3,250.188,0.5,47,107.0
2693,G#2,250.5,0.25,63,107.0
2694,A2,250.688,1.0,63,107.0
2695,G#2,250.75,0.25,63,107.0
2696,B4,251.0,2.5,111,107.0
2697,E2,251.0,1.0,79,107.0
2698,F#2,251.0,0.5,95,107.0
2699,E5,251.0,0.5,95,107.0
2700,E4,251.188,0.5,47,107.0
2701,C4,251.188,0.5,47,107.0
2702,A3,251.188,0.5,47,107.0
2703,G#2,251.5,0.25,63,107.0
2704,E3,251.688,1.0,63,107.0
2705,G#2,251.75,0.25,63,107.0
2706,A1,252.0,1.0,95,107.0
2707,C2,252.0,0.5,95,107.0
2708,E4,252.188,0.5,47,107.0
2709,C4,252.188,0.5,47,107.0
2710,A3,252.188,0.5,47,107.0
2711,G#2,252.5,0.25,63,107.0
2712,A2,252.688,1.0,63,107.0
2713,G#2,252.75,0.25,63,107.0
2714,E2,253.0,1.0,79,107.0
2715,F#2,253.0,0.5,95,107.0
2716,E5,253.0,0.5,95,107.0
2717,E4,253.188,0.5,47,107.0
2718,C4,253.188,0.5,47,107.0
2719,A3,253.188,0.5,47,107.0
2720,A4,253.5,0.25,95,107.0
2721,G#2,253.5,0.25,63,107.0
2722,E3,253.688,1.0,63,107.0
2723,C5,253.75,0.25,70,107.0
2724,G#2,253.75,0.25,63,107.0
2725,A4,254.0,0.5,70,107.0
2726,A1,254.0,1.0,95,107.0
2727,F#2,254.0,0.5,95,107.0
2728,C2,254.0,0.5,95,107.0
2729,E4,254.188,0.5,47,107.0
2730,C4,254.188,0.5,47,107.0
2731,A3,254.188,0.5,47,107.0
2732,A4,254.5,0.25,95,107.0
2733,G#2,254.5,0.25,63,107.0
2734,A2,254.688,1.0,63,107.0
2735,G4,254.75,0.5,95,107.0
2736,G#2,254.75,0.25,63,107.0
2737,E2,255.0,1.0,79,107.0
2738,F#2,255.0,0.25,95,107.0
2739,E5,255.0,0.25,95,107.0
2740,E4,255.188,0.5,47,107.0
2741,C4,255.188,0.5,47,107.0
2742,A3,255.188,0.5,47,107.0
2743,E4,255.25,2.25,95,107.0
2744,E5,255.25,0.25,95,107.0
2745,B-2,255.5,0.5,95,107.0
2746,E3,255.688,1.0,63,107.0
2747,A1,256.0,1.0,95,107.0
2748,C2,256.0,0.5,95,107.0
2749,E4,256.188,0.5,47,107.0
2750,C4,256.188,0.5,47,107.0
2751,A3,256.188,0.5,47,107.0
2752,G#2,256.5,0.25,63,107.0
2753,A2,256.688,1.0,63,107.0
2754,G#2,256.75,0.25,63,107.0
2755,C2,257.0,1.0,95,107.0
2756,F#2,257.0,0.5,95,107.0
2757,E5,257.0,0.5,95,107.0
2758,E4,257.188,0.5,47,107.0
2759,C4,257.188,0.5,47,107.0
2760,A3,257.188,0.5,47,107.0
2761,G4,257.5,0.25,95,107.0
2762,G#2,257.5,0.25,63,107.0
2763,E3,257.688,1.0,63,107.0
2764,E4,257.75,0.25,70,107.0
2765,G#2,257.75,0.25,63,107.0
2766,D4,258.0,0.25,95,107.0
2767,D2,258.0,1.0,95,107.0
2768,F#2,258.0,0.5,95,107.0
2769,C2,258.0,0.5,95,107.0
2770,E4,258.188,0.5,47,107.0
2771,C4,258.188,0.5,47,107.0
2772,A3,258.188,0.5,47,107.0
2773,E4,258.25,0.25,95,107.0
2774,C4,258.5,1.0,95,107.0
2775,G#2,258.5,0.25,63,107.0
2776,A2,258.688,1.0,47,107.0
2777,G#2,258.75,0.25,63,107.0
2778,E2,259.0,1.0,95,107.0
2779,F#2,259.0,0.5,95,107.0
2780,E5,259.0,0.5,95,107.0
2781,C5,259.188,0.5,47,107.0
2782,G4,259.188,0.5,47,107.0
2783,E-4,259.188,0.5,47,107.0
2784,D4,259.5,0.25,95,107.0
2785,G#2,259.5,0.25,63,107.0
2786,B4,259.688,0.5,47,107.0
2787,F#4,259.688,0.5,47,107.0
2788,D4,259.688,0.5,47,107.0
2789,C4,259.75,0.25,70,107.0
2790,G#2,259.75,0.25,63,107.0
2791,A3,260.0,0.25,95,107.0
2792,G2,260.0,1.0,95,107.0
2793,C2,260.0,0.5,95,107.0
2794,A4,260.188,0.5,47,107.0
2795,E4,260.188,0.5,47,107.0
2796,C4,260.188,0.5,47,107.0
2797,C4,260.25,0.75,95,107.0
2798,G#2,260.5,0.25,63,107.0
2799,A2,260.688,1.0,63,107.0
2800,G#2,260.75,0.25,63,107.0
2801,A3,261.0,0.25,95,107.0
2802,A2,261.0,1.0,95,107.0
2803,F#2,261.0,0.5,95,107.0
2804,E5,261.0,0.5,95,107.0
2805,E4,261.188,0.5,47,107.0
2806,C4,261.188,0.5,47,107.0
2807,A3,261.188,0.5,47,107.0
2808,G3,261.25,0.25,70,107.0
2809,E3,261.5,0.25,79,107.0
2810,G#2,261.5,0.25,63,107.0
2811,E3,261.688,1.0,63,107.0
2812,G3,261.75,0.75,79,107.0
2813,G#2,261.75,0.25,63,107.0
2814,E2,262.0,1.0,95,107.0
2815,F#2,262.0,0.5,95,107.0
2816,C2,262.0,0.5,95,107.0
2817,E4,262.188,0.5,47,107.0
2818,C4,262.188,0.5,47,107.0
2819,A3,262.188,0.5,47,107.0
2820,E3,262.5,0.75,79,107.0
2821,G#2,262.5,0.25,63,107.0
2822,A2,262.688,1.0,63,107.0
2823,G#2,262.75,0.25,63,107.0
2824,C2,263.0,1.0,95,107.0
2825,F#2,263.0,0.25,95,107.0
2826,E5,263.0,0.25,95,107.0
2827,E4,263.188,0.5,47,107.0
2828,C4,263.188,0.5,47,107.0
2829,A3,263.188,0.5,47,107.0
2830,C3,263.25,2.25,79,107.0
2831,E5,263.25,0.25,95,107.0
2832,B-2,263.5,0.5,95,107.0
2833,E3,263.688,1.0,63,107.0
2834,G2,264.0,0.5,79,107.0
2835,A1,264.0,1.0,95,107.0
2836,C2,264.0,0.5,95,107.0
2837,E4,264.188,0.5,47,107.0
2838,C4,264.188,0.5,47,107.0
2839,A3,264.188,0.5,47,107.0
2840,A2,264.5,1.0,79,107.0
2841,G#2,264.5,0.25,63,107.0
2842,A2,264.688,1.0,63,107.0
2843,G#2,264.75,0.25,63,107.0
2844,E2,265.0,1.0,79,107.0
2845,F#2,265.0,0.5,95,107.0
2846,E5,265.0,0.5,95,107.0
2847,E4,265.188,0.5,47,107.0
2848,C4,265.188,0.5,47,107.0
2849,A3,265.188,0.5,47,107.0
2850,G#2,265.5,0.25,63,107.0
2851,E3,265.688,1.0,63,107.0
2852,E3,265.75,0.25,95,107.0
2853,G#2,265.75,0.25,63,107.0
2854,G3,266.0,0.25,95,107.0
2855,A1,266.0,1.0,95,107.0
2856,F#2,266.0,0.5,95,107.0
2857,C2,266.0,0.5,95,107.0
2858,E4,266.188,0.5,47,107.0
2859,C4,266.188,0.5,47,107.0
2860,A3,266.188,0.5,47,107.0
2861,A3,266.25,0.25,70,107.0
2862,C4,266.5,0.25,95,107.0
2863,G#2,266.5,0.25,63,107.0
2864,A2,266.688,1.0,63,107.0
2865,D4,266.75,0.25,70,107.0
2866,G#2,266.75,0.25,63,107.0
2867,G4,267.0,0.25,95,107.0
2868,E2,267.0,1.0,79,107.0
2869,F#2,267.0,0.5,95,107.0
2870,E5,267.0,0.5,95,107.0
2871,E4,267.188,0.5,47,107.0
2872,C4,267.188,0.5,47,107.0
2873,A3,267.188,0.5,47,107.0
2874,E4,267.25,0.25,70,107.0
2875,E-4,267.5,0.25,95,107.0
2876,G#2,267.5,0.25,63,107.0
2877,E3,267.688,1.0,63,107.0
2878,D4,267.75,0.25,95,107.0
2879,G#2,267.75,0.25,63,107.0
2880,C4,268.0,0.25,95,107.0
2881,A1,268.0,1.0,95,107.0
2882,C2,268.0,0.5,95,107.0
2883,E4,268.188,0.5,47,107.0
2884,C4,268.188,0.5,47,107.0
2885,A3,268.188,0.5,47,107.0
2886,D4,268.25,0.25,70,107.0
2887,E4,268.5,0.25,95,107.0
2888,G#2,268.5,0.25,63,107.0
2889,A2,268.688,1.0,63,107.0
2890,E-4,268.75,0.25,95,107.0
2891,G#2,268.75,0.25,63,107.0
2892,D4,269.0,0.25,95,107.0
2893,E2,269.0,1.0,79,107.0
2894,F#2,269.0,0.5,95,107.0
2895,E5,269.0,0.5,95,107.0
2896,E4,269.188,0.5,47,107.0
2897,C4,269.188,0.5,47,107.0
2898,A3,269.188,0.5,47,107.0
2899,C4,269.25,0.25,95,107.0
2900,D4,269.5,0.25,95,107.0
2901,G#2,269.5,0.25,63,107.0
2902,E3,269.688,1.0,63,107.0
2903,C4,269.75,0.25,70,107.0
2904,G#2,269.75,0.25,63,107.0
2905,A3,270.0,0.25,95,107.0
2906,A1,270.0,1.0,95,107.0
2907,F#2,270.0,0.5,95,107.0
2908,C2,270.0,0.5,95,107.0
2909,E4,270.188,0.5,47,107.0
2910,C4,270.188,0.5,47,107.0
2911,A3,270.188,0.5,47,107.0
2912,G3,270.25,0.5,38,107.0
2913,G#2,270.5,0.25,63,107.0
2914,A2,270.688,1.0,63,107.0
2915,F3,270.75,0.5,63,107.0
2916,G#2,270.75,0.25,63,107.0
2917,E2,271.0,1.0,79,107.0
2918,F#2,271.0,0.25,95,107.0
2919,E5,271.0,0.25,95,107.0
2920,E4,271.188,0.5,47,107.0
2921,C4,271.188,0.5,47,107.0
2922,A3,271.188,0.5,47,107.0
2923,E-3,271.25,0.5,63,107.0
2924,E5,271.25,0.25,95,107.0
2925,B-2,271.5,0.5,95,107.0
2926,E3,271.688,1.0,63,107.0
2927,A2,271.75,0.25,63,107.0
2928,A2,272.0,0.25,63,107.0
2929,A2,272.0,1.0,95,107.0
2930,C2,272.0,0.5,95,107.0
2931,E4,272.188,0.5,47,107.0
2932,C4,272.188,0.5,47,107.0
2933,A3,272.188,0.5,47,107.0
2934,A2,272.25,0.75,63,107.0
2935,G#2,272.5,0.25,63,107.0
2936,A2,272.688,1.0,63,107.0
2937,G#2,272.75,0.25,63,107.0
2938,E2,273.0,0.5,79,107.0
2939,F#2,273.0,0.5,95,107.0
2940,E5,273.0,0.5,95,107.0
2941,E4,273.188,0.5,47,107.0
2942,C4,273.188,0.5,47,107.0
2943,A3,273.188,0.5,47,107.0
2944,C5,273.5,0.25,95,107.0
2945,E2,273.5,0.5,95,107.0
2946,G#2,273.5,0.25,63,107.0
2947,E3,273.688,1.0,63,107.0
2948,A4,273.75,0.25,70,107.0
2949,G#2,273.75,0.25,63,107.0
2950,E4,274.0,0.25,95,107.0
2951,G2,274.0,0.5,95,107.0
2952,F#2,274.0,0.5,95,107.0
2953,C2,274.0,0.5,95,107.0
2954,E4,274.188,0.5,47,107.0
2955,C4,274.188,0.5,47,107.0
2956,A3,274.188,0.5,47,107.0
2957,E4,274.25,0.25,95,107.0
2958,G4,274.5,0.25,70,107.0
2959,G#2,274.5,0.5,95,107.0
2960,G#2,274.5,0.25,63,107.0
2961,A2,274.688,1.0,63,107.0
2962,E4,274.75,0.25,70,107.0
2963,G#2,274.75,0.25,63,107.0
2964,C5,275.0,0.25,95,107.0
2965,A2,275.0,1.0,95,107.0
2966,F#2,275.0,0.5,95,107.0
2967,E5,275.0,0.5,95,107.0
2968,E4,275.188,0.5,47,107.0
2969,C4,275.188,0.5,47,107.0
2970,A3,275.188,0.5,47,107.0
2971,A4,275.25,0.25,70,107.0
2972,E4,275.5,0.25,95,107.0
2973,G#2,275.5,0.25,63,107.0
2974,E3,275.688,1.0,63,107.0
2975,C5,275.75,0.25,95,107.0
2976,G#2,275.75,0.25,63,107.0
2977,A4,276.0,0.25,70,107.0
2978,C3,276.0,0.5,95,107.0
2979,C2,276.0,0.5,95,107.0
2980,E4,276.188,0.5,47,107.0
2981,C4,276.188,0.5,47,107.0
2982,A3,276.188,0.5,47,107.0
2983,E4,276.25,0.25,95,107.0
2984,C5,276.5,0.25,95,107.0
2985,G2,276.5,0.75,95,107.0
2986,G#2,276.5,0.25,63,107.0
2987,A2,276.688,1.0,63,107.0
2988,A4,276.75,0.25,70,107.0
2989,G#2,276.75,0.25,63,107.0
2990,E4,277.0,0.25,95,107.0
2991,F#2,277.0,0.5,95,107.0
2992,E5,277.0,0.5,95,107.0
2993,E4,277.188,0.5,47,107.0
2994,C4,277.188,0.5,47,107.0
2995,A3,277.188,0.5,47,107.0
2996,A4,277.25,0.25,95,107.0
2997,G2,277.25,0.25,95,107.0
2998,G4,277.5,0.5,95,107.0
2999,A2,277.5,0.5,70,107.0
3000,G#2,277.5,0.25,63,107.0
3001,E3,277.688,1.0,63,107.0
3002,G#2,277.75,0.25,63,107.0
3003,A4,278.0,0.5,95,107.0
3004,E2,278.0,1.0,95,107.0
3005,F#2,278.0,0.5,95,107.0
3006,C2,278.0,0.5,95,107.0
3007,E4,278.188,0.5,47,107.0
3008,C4,278.188,0.5,47,107.0
3009,A3,278.188,0.5,47,107.0
3010,E4,278.25,0.25,47,107.0
3011,G4,278.5,0.25,95,107.0
3012,G#2,278.5,0.25,63,107.0
3013,A2,278.688,1.0,63,107.0
3014,E4,278.75,0.25,95,107.0
3015,G#2,278.75,0.25,63,107.0
3016,G4,279.0,0.25,95,107.0
3017,D2,279.0,0.5,95,107.0
3018,F#2,279.0,0.25,95,107.0
3019,E5,279.0,0.25,95,107.0
3020,E4,279.188,0.5,47,107.0
3021,C4,279.188,0.5,47,107.0
3022,A3,279.188,0.5,47,107.0
3023,G#4,279.25,0.25,95,107.0
3024,E5,279.25,0.25,95,107.0
3025,A4,279.5,0.25,95,107.0
3026,C2,279.5,0.5,95,107.0
3027,B-2,279.5,0.5,95,107.0
3028,E3,279.688,1.0,63,107.0
3029,E4,279.75,0.25,95,107.0
3030,G4,280.0,0.25,95,107.0
3031,A1,280.0,1.0,95,107.0
3032,C2,280.0,0.5,95,107.0
3033,E4,280.188,0.5,47,107.0
3034,C4,280.188,0.5,47,107.0
3035,A3,280.188,0.5,47,107.0
3036,G4,280.5,0.25,95,107.0
3037,G#2,280.5,0.25,63,107.0
3038,A2,280.688,1.0,63,107.0
3039,G#4,280.75,0.25,95,107.0
3040,G#2,280.75,0.25,63,107.0
3041,A4,281.0,0.5,95,107.0
3042,E2,281.0,1.0,79,107.0
3043,F#2,281.0,0.5,95,107.0
3044,E5,281.0,0.5,95,107.0
3045,E4,281.188,0.5,47,107.0
3046,C4,281.188,0.5,47,107.0
3047,A3,281.188,0.5,47,107.0
3048,G#2,281.5,0.25,63,107.0
3049,E3,281.688,1.0,63,107.0
3050,G#2,281.75,0.25,63,107.0
3051,A1,282.0,1.0,95,107.0
3052,F#2,282.0,0.5,95,107.0
3053,C2,282.0,0.5,95,107.0
3054,E4,282.188,0.5,47,107.0
3055,C4,282.188,0.5,47,107.0
3056,A3,282.188,0.5,47,107.0
3057,G4,282.5,0.25,95,107.0
3058,G#2,282.5,0.25,63,107.0
3059,A2,282.688,1.0,63,107.0
3060,F4,282.75,0.25,70,107.0
3061,G#2,282.75,0.25,63,107.0
3062,E4,283.0,0.25,70,107.0
3063,E2,283.0,1.0,79,107.0
3064,F#2,283.0,0.25,95,107.0
3065,E5,283.0,0.25,95,107.0
3066,E4,283.188,0.5,47,107.0
3067,C4,283.188,0.5,47,107.0
3068,A3,283.188,0.5,47,107.0
3069,E5,283.25,0.25,95,107.0
3070,D4,283.5,0.25,79,107.0
3071,B-2,283.5,0.5,95,107.0
3072,E3,283.688,1.0,63,107.0
3073,D4,284.0,0.25,79,107.0
3074,D2,284.0,4.0,95,107.0
3075,D2,284.0,1.0,71,107.0
3076,C2,284.0,1.0,71,107.0
3077,E4,284.188,0.5,47,107.0
3078,C4,284.188,0.5,47,107.0
3079,A3,284.188,0.5,47,107.0
3080,D4,284.5,0.25,79,107.0
3081,A2,284.688,1.0,63,107.0
3082,C4,284.75,0.75,79,107.0
3083,C#3,285.0,0.25,31,107.0
3084,E4,285.188,0.5,47,107.0
3085,C4,285.188,0.5,47,107.0
3086,A3,285.188,0.5,47,107.0
3087,C#3,285.25,0.25,31,107.0
3088,C#3,285.5,0.25,31,107.0
3089,E3,285.688,1.0,63,107.0
3090,C#3,285.75,0.25,47,107.0
3091,C#3,286.0,0.25,47,107.0
3092,E4,286.188,0.5,47,107.0
3093,C4,286.188,0.5,47,107.0
3094,A3,286.188,0.5,47,107.0
3095,C#3,286.25,0.25,31,107.0
3096,C#3,286.5,0.25,31,107.0
3097,A2,286.688,1.0,63,107.0
3098,C#3,286.75,0.25,47,107.0
3099,C#3,287.0,0.25,47,107.0
3100,E4,287.188,0.5,47,107.0
3101,C4,287.188,0.5,47,107.0
3102,A3,287.188,0.5,47,107.0
3103,C#3,287.25,0.25,31,107.0
3104,C#3,287.5,0.25,31,107.0
3105,E3,287.688,1.0,63,107.0
3106,C#3,287.75,0.25,47,107.0
3107,A1,288.0,2.0,95,107.0
3108,C#3,288.0,0.25,47,107.0
3109,E4,288.188,0.5,47,107.0
3110,C4,288.188,0.5,47,107.0
3111,A3,288.188,0.5,47,107.0
3112,C#3,288.25,0.25,31,107.0
3113,C#3,288.5,0.25,31,107.0
3114,A2,288.688,1.0,63,107.0
3115,C#3,288.75,0.25,47,107.0
3116,C#3,289.0,0.25,47,107.0
3117,E4,289.188,0.5,47,107.0
3118,C4,289.188,0.5,47,107.0
3119,A3,289.188,0.5,47,107.0
3120,C#3,289.25,0.25,31,107.0
3121,C#3,289.5,0.25,31,107.0
3122,E3,289.688,1.0,63,107.0
3123,C#3,289.75,0.25,47,107.0
3124,C2,290.0,1.0,95,107.0
3125,B-2,290.0,1.0,95,107.0
3126,D2,290.0,1.0,95,107.0
3127,C2,290.0,1.0,95,107.0
3128,E4,290.188,0.5,47,107.0
3129,C4,290.188,0.5,47,107.0
3130,A3,290.188,0.5,47,107.0
3131,A2,290.688,1.0,63,107.0
3132,G1,291.0,1.0,95,107.0
3133,B-2,291.0,1.0,95,107.0
3134,D2,291.0,0.5,95,107.0
3135,C2,291.0,0.5,95,107.0
3136,E4,291.188,0.5,47,107.0
3137,C4,291.188,0.5,47,107.0
3138,A3,291.188,0.5,47,107.0
3139,B2,291.5,0.25,95,107.0
3140,E3,291.688,1.0,63,107.0
3141,A2,291.75,0.25,95,107.0
3142,C2,292.0,1.0,95,107.0
3143,A4,292.0,0.25,84,107.0
3144,G#2,292.0,0.25,84,107.0
3145,C2,292.0,0.25,84,107.0
3146,E4,292.188,0.5,47,107.0
3147,C4,292.188,0.5,47,107.0
3148,A3,292.188,0.5,47,107.0
3149,A4,292.25,0.25,47,107.0
3150,A4,292.5,0.25,95,107.0
3151,B-4,292.5,0.25,95,107.0
3152,G#2,292.5,0.25,95,107.0
3153,A2,292.688,1.0,63,107.0
3154,A4,292.75,0.25,63,107.0
3155,G1,293.0,1.0,95,107.0
3156,A4,293.0,0.25,84,107.0
3157,G#2,293.0,0.25,84,107.0
3158,D2,293.0,0.25,84,107.0
3159,E4,293.188,0.5,47,107.0
3160,C4,293.188,0.5,47,107.0
3161,A3,293.188,0.5,47,107.0
3162,A4,293.25,0.25,47,107.0
3163,A4,293.5,0.25,95,107.0
3164,B-4,293.5,0.25,95,107.0
3165,G#2,293.5,0.25,95,107.0
3166,E3,293.688,1.0,63,107.0
3167,A4,293.75,0.25,63,107.0
3168,C2,294.0,1.0,95,107.0
3169,A4,294.0,0.25,84,107.0
3170,G#2,294.0,0.25,84,107.0
3171,C2,294.0,0.25,84,107.0
3172,A4,294.25,0.25,47,107.0
3173,A4,294.5,0.25,95,107.0
3174,B-4,294.5,0.25,95,107.0
3175,G#2,294.5,0.25,95,107.0
3176,G4,294.688,4.0,63,107.0
3177,D4,294.688,4.0,63,107.0
3178,D3,294.688,4.0,63,107.0
3179,C4,294.688,1.0,63,107.0
3180,G3,294.688,1.0,63,107.0
3181,A4,294.75,0.25,63,107.0
3182,G1,295.0,1.0,95,107.0
3183,A4,295.0,0.25,84,107.0
3184,G#2,295.0,0.25,84,107.0
3185,D2,295.0,0.25,84,107.0
3186,A4,295.25,0.25,63,107.0
3187,A4,295.5,0.25,95,107.0
3188,B-4,295.5,0.25,95,107.0
3189,G#2,295.5,0.25,95,107.0
3190,B-2,295.5,0.25,95,107.0
3191,B3,295.688,0.25,79,107.0
3192,A4,295.75,0.25,63,107.0
3193,C4,295.938,0.75,54,107.0
3194,C2,296.0,1.0,95,107.0
3195,A4,296.0,0.25,84,107.0
3196,G#2,296.0,0.25,84,107.0
3197,C2,296.0,0.25,84,107.0
3198,A4,296.25,0.25,47,107.0
3199,A4,296.5,0.25,95,107.0
3200,B-4,296.5,0.25,95,107.0
3201,G#2,296.5,0.25,95,107.0
3202,B3,296.688,1.0,79,107.0
3203,A4,296.75,0.25,63,107.0
3204,G1,297.0,1.0,95,107.0
3205,A4,297.0,0.25,84,107.0
3206,G#2,297.0,0.25,84,107.0
3207,D2,297.0,0.25,84,107.0
3208,A4,297.25,0.25,47,107.0
3209,A4,297.5,0.25,95,107.0
3210,B-4,297.5,0.25,95,107.0
3211,G#2,297.5,0.25,95,107.0
3212,G3,297.688,0.25,79,107.0
3213,A4,297.75,0.25,63,107.0
3214,A3,297.938,0.75,54,107.0
3215,C2,298.0,1.0,95,107.0
3216,A4,298.0,0.25,84,107.0
3217,G#2,298.0,0.25,84,107.0
3218,C2,298.0,0.25,84,107.0
3219,A4,298.25,0.25,47,107.0
3220,A4,298.5,0.25,95,107.0
3221,B-4,298.5,0.25,95,107.0
3222,G#2,298.5,0.25,95,107.0
3223,G3,298.688,1.0,79,107.0
3224,A4,298.75,0.25,63,107.0
3225,G1,299.0,1.0,95,107.0
3226,A4,299.0,0.25,84,107.0
3227,G#2,299.0,0.25,84,107.0
3228,D2,299.0,0.25,84,107.0
3229,A4,299.25,0.25,63,107.0
3230,A4,299.5,0.25,95,107.0
3231,B-4,299.5,0.25,95,107.0
3232,G#2,299.5,0.25,95,107.0
3233,B-2,299.5,0.25,95,107.0
3234,D3,299.688,0.25,79,107.0
3235,A4,299.75,0.25,63,107.0
3236,E3,299.938,0.75,54,107.0
3237,F2,300.0,1.0,95,107.0
3238,A4,300.0,0.25,84,107.0
3239,G#2,300.0,0.25,84,107.0
3240,C2,300.0,0.25,84,107.0
3241,A4,300.25,0.25,47,107.0
3242,A4,300.5,0.25,95,107.0
3243,B-4,300.5,0.25,95,107.0
3244,G#2,300.5,0.25,95,107.0
3245,C4,300.688,1.0,95,107.0
3246,F3,300.688,1.0,95,107.0
3247,C3,300.688,1.0,95,107.0
3248,A4,300.75,0.25,63,107.0
3249,C2,301.0,1.0,95,107.0
3250,A4,301.0,0.25,84,107.0
3251,G#2,301.0,0.25,84,107.0
3252,D2,301.0,0.25,84,107.0
3253,A4,301.25,0.25,47,107.0
3254,A4,301.5,0.25,95,107.0
3255,B-4,301.5,0.25,95,107.0
3256,G#2,301.5,0.25,95,107.0
3257,B3,301.688,1.0,95,107.0
3258,G3,301.688,1.0,95,107.0
3259,D3,301.688,1.0,95,107.0
3260,A4,301.75,0.25,63,107.0
3261,F2,302.0,1.0,95,107.0
3262,A4,302.0,0.25,84,107.0
3263,G#2,302.0,0.25,84,107.0
3264,C2,302.0,0.25,84,107.0
3265,A4,302.25,0.25,47,107.0
3266,A4,302.5,0.25,95,107.0
3267,B-4,302.5,0.25,95,107.0
3268,G#2,302.5,0.25,95,107.0
3269,C3,302.688,0.25,63,107.0
3270,A4,302.75,0.25,63,107.0
3271,D4,302.938,0.25,95,107.0
3272,C2,303.0,1.0,95,107.0
3273,A4,303.0,0.25,84,107.0
3274,G#2,303.0,0.25,84,107.0
3275,D2,303.0,0.25,84,107.0
3276,E4,303.188,0.5,70,107.0
3277,A4,303.25,0.25,63,107.0
3278,G3,303.438,0.25,63,107.0
3279,A4,303.5,0.25,95,107.0
3280,B-4,303.5,0.25,95,107.0
3281,G#2,303.5,0.25,95,107.0
3282,D4,303.688,0.25,95,107.0
3283,A4,303.75,0.25,63,107.0
3284,C4,303.938,0.25,95,107.0
3285,F2,304.0,1.0,95,107.0
3286,A4,304.0,0.25,84,107.0
3287,G#2,304.0,0.25,84,107.0
3288,C2,304.0,0.25,84,107.0
3289,G3,304.188,0.25,63,107.0
3290,A4,304.25,0.25,47,107.0
3291,G4,304.438,0.25,95,107.0
3292,A4,304.5,0.25,95,107.0
3293,B-4,304.5,0.25,95,107.0
3294,G#2,304.5,0.25,95,107.0
3295,C3,304.688,0.25,63,107.0
3296,A4,304.75,0.25,63,107.0
3297,C4,304.938,0.375,63,107.0
3298,C2,305.0,1.0,95,107.0
3299,A4,305.0,0.25,84,107.0
3300,G#2,305.0,0.25,84,107.0
3301,D2,305.0,0.25,84,107.0
3302,A4,305.25,0.25,47,107.0
3303,D4,305.312,0.125,63,107.0
3304,E4,305.438,0.25,70,107.0
3305,A4,305.5,0.25,95,107.0
3306,B-4,305.5,0.25,95,107.0
3307,G#2,305.5,0.25,95,107.0
3308,D4,305.688,0.25,70,107.0
3309,A4,305.75,0.25,63,107.0
3310,C4,305.938,0.25,95,107.0
3311,F2,306.0,1.0,95,107.0
3312,A4,306.0,0.25,84,107.0
3313,G#2,306.0,0.25,84,107.0
3314,C2,306.0,0.25,84,107.0
3315,G3,306.188,0.375,63,107.0
3316,A4,306.25,0.25,47,107.0
3317,A4,306.5,0.25,95,107.0
3318,B-4,306.5,0.25,95,107.0
3319,G#2,306.5,0.25,95,107.0
3320,D4,306.562,0.125,47,107.0
3321,C3,306.688,0.25,63,107.0
3322,A4,306.75,0.25,63,107.0
3323,D4,306.938,0.25,95,107.0
3324,C2,307.0,1.0,95,107.0
3325,A4,307.0,0.25,84,107.0
3326,G#2,307.0,0.25,84,107.0
3327,D2,307.0,0.25,84,107.0
3328,E4,307.188,0.5,70,107.0
3329,A4,307.25,0.25,63,107.0
3330,G3,307.438,0.25,63,107.0
3331,A4,307.5,0.25,95,107.0
3332,B-4,307.5,0.25,95,107.0
3333,G#2,307.5,0.25,95,107.0
3334,B-2,307.5,0.25,95,107.0
3335,D4,307.688,0.25,95,107.0
3336,A4,307.75,0.25,63,107.0
3337,C4,307.938,0.25,95,107.0
3338,D2,308.0,1.0,95,107.0
3339,A4,308.0,0.25,84,107.0
3340,G#2,308.0,0.25,84,107.0
3341,C2,308.0,0.25,84,107.0
3342,G3,308.188,0.25,63,107.0
3343,A4,308.25,0.25,47,107.0
3344,G4,308.438,0.25,95,107.0
3345,A4,308.5,0.25,95,107.0
3346,B-4,308.5,0.25,95,107.0
3347,G#2,308.5,0.25,95,107.0
3348,C3,308.688,0.25,63,107.0
3349,A4,308.75,0.25,63,107.0
3350,C4,308.938,0.375,63,107.0
3351,A1,309.0,1.0,95,107.0
3352,A4,309.0,0.25,84,107.0
3353,G#2,309.0,0.25,84,107.0
3354,D2,309.0,0.25,84,107.0
3355,A4,309.25,0.25,47,107.0
3356,D4,309.312,0.125,63,107.0
3357,E4,309.438,0.25,70,107.0
3358,A4,309.5,0.25,95,107.0
3359,B-4,309.5,0.25,95,107.0
3360,G#2,309.5,0.25,95,107.0
3361,D4,309.688,0.25,70,107.0
3362,A4,309.75,0.25,63,107.0
3363,C4,309.938,0.25,95,107.0
3364,D2,310.0,1.0,95,107.0
3365,A4,310.0,0.25,84,107.0
3366,G#2,310.0,0.25,84,107.0
3367,C2,310.0,0.25,84,107.0
3368,G3,310.188,0.375,63,107.0
3369,A4,310.25,0.25,47,107.0
3370,A4,310.5,0.25,95,107.0
3371,B-4,310.5,0.25,95,107.0
3372,G#2,310.5,0.25,95,107.0
3373,D4,310.562,0.125,47,107.0
3374,C3,310.688,0.25,79,107.0
3375,A4,310.75,0.25,63,107.0
3376,D4,310.938,0.25,95,107.0
3377,A1,311.0,1.0,95,107.0
3378,A4,311.0,0.25,84,107.0
3379,G#2,311.0,0.25,84,107.0
3380,D2,311.0,0.25,84,107.0
3381,E4,311.188,0.5,70,107.0
3382,A4,311.25,0.25,63,107.0
3383,F3,311.438,0.25,63,107.0
3384,A4,311.5,0.25,95,107.0
3385,B-4,311.5,0.25,95,107.0
3386,G#2,311.5,0.25,95,107.0
3387,D4,311.688,0.25,95,107.0
3388,A4,311.75,0.25,63,107.0
3389,C4,311.938,0.25,95,107.0
3390,D2,312.0,1.0,95,107.0
3391,A4,312.0,0.25,84,107.0
3392,G#2,312.0,0.25,84,107.0
3393,C2,312.0,0.25,84,107.0
3394,F3,312.188,0.25,63,107.0
3395,A4,312.25,0.25,47,107.0
3396,G4,312.438,0.25,95,107.0
3397,A4,312.5,0.25,95,107.0
3398,B-4,312.5,0.25,95,107.0
3399,G#2,312.5,0.25,95,107.0
3400,C3,312.688,0.25,63,107.0
3401,A4,312.75,0.25,63,107.0
3402,C4,312.938,0.375,63,107.0
3403,A1,313.0,1.0,95,107.0
3404,A4,313.0,0.25,84,107.0
3405,G#2,313.0,0.25,84,107.0
3406,D2,313.0,0.25,84,107.0
3407,A4,313.25,0.25,47,107.0
3408,D4,313.312,0.125,63,107.0
3409,E4,313.438,0.25,70,107.0
3410,A4,313.5,0.25,95,107.0
3411,B-4,313.5,0.25,95,107.0
3412,G#2,313.5,0.25,95,107.0
3413,D4,313.688,0.25,70,107.0
3414,A4,313.75,0.25,63,107.0
3415,C4,313.938,0.25,95,107.0
3416,D2,314.0,1.0,95,107.0
3417,A4,314.0,0.25,84,107.0
3418,G#2,314.0,0.25,84,107.0
3419,C2,314.0,0.25,84,107.0
3420,F3,314.188,0.375,63,107.0
3421,A4,314.25,0.25,47,107.0
3422,A4,314.5,0.25,95,107.0
3423,B-4,314.5,0.25,95,107.0
3424,G#2,314.5,0.25,95,107.0
3425,D4,314.562,0.125,47,107.0
3426,C3,314.688,0.25,79,107.0
3427,A4,314.75,0.25,63,107.0
3428,B-2,314.75,0.25,63,107.0
3429,D4,314.938,0.25,95,107.0
3430,A1,315.0,1.0,95,107.0
3431,A4,315.0,0.25,84,107.0
3432,G#2,315.0,0.25,84,107.0
3433,D2,315.0,0.25,84,107.0
3434,E4,315.188,0.5,70,107.0
3435,A4,315.25,0.25,63,107.0
3436,F3,315.438,0.25,63,107.0
3437,A4,315.5,0.25,95,107.0
3438,B-4,315.5,0.25,95,107.0
3439,G#2,315.5,0.25,95,107.0
3440,B-2,315.5,0.25,95,107.0
3441,D4,315.688,0.25,95,107.0
3442,A4,315.75,0.25,63,107.0
3443,C4,315.938,0.25,95,107.0
3444,F3,316.188,0.25,63,107.0
3445,G4,316.438,0.25,95,107.0
3446,C3,316.688,0.25,63,107.0
3447,C4,316.938,0.375,63,107.0
3448,D4,317.312,0.125,63,107.0
3449,E4,317.438,0.25,70,107.0
3450,D4,317.688,0.25,70,107.0
3451,C4,317.938,0.25,95,107.0
3452,F3,318.188,0.375,63,107.0
3453,D4,318.562,0.125,47,107.0
3454,D3,318.688,0.25,95,107.0
3455,D4,318.938,0.25,95,107.0
3456,E4,319.188,0.5,70,107.0
3457,F#3,319.438,0.25,79,107.0
3458,D4,319.688,0.25,95,107.0
3459,C4,319.938,0.25,95,107.0
3460,F#3,320.188,0.25,63,107.0
3461,A4,320.438,0.25,95,107.0
3462,D3,320.688,0.25,63,107.0
3463,C4,320.938,0.375,63,107.0
3464,D4,321.312,0.125,95,107.0
3465,E4,321.438,0.25,70,107.0
3466,D4,321.688,0.25,70,107.0
3467,C4,321.938,0.25,95,107.0
3468,F#3,322.188,0.375,63,107.0
3469,D4,322.562,0.125,95,107.0
3470,D3,322.688,0.25,95,107.0
3471,D4,322.938,0.25,95,107.0
3472,E4,323.188,0.5,70,107.0
3473,F#3,323.438,0.25,79,107.0
3474,D4,323.688,0.25,95,107.0
3475,C4,323.938,0.25,95,107.0
3476,F#3,324.188,0.25,63,107.0
3477,A4,324.438,0.25,95,107.0
3478,D3,324.688,0.25,63,107.0
3479,C4,324.938,0.375,63,107.0
3480,D4,325.312,0.125,95,107.0
3481,E4,325.438,0.25,70,107.0
3482,D4,325.688,0.25,70,107.0
3483,C4,325.938,0.25,95,107.0
3484,F#3,326.188,0.375,63,107.0
3485,D4,326.562,0.125,95,107.0
