,note_name,start_time,duration,velocity,tempo
0,C2,0.5,249/500,95,146.0
1,C2,0.875,0.125,95,146.0
2,D2,1.0,0.5,95,146.0
3,E2,1.0,0.5,95,146.0
4,B2,1.0,0.5,95,146.0
5,E2,2.0,0.375,76,146.0
6,E2,2.0,0.375,76,146.0
7,B-2,2.0,0.5,95,146.0
8,C2,2.0,0.5,95,146.0
9,E2,2.5,0.375,76,146.0
10,E2,2.5,0.375,76,146.0
11,C2,2.5,0.5,95,146.0
12,E4,3.0,0.5,95,146.0
13,B3,3.0,0.5,95,146.0
14,E3,3.0,0.5,95,146.0
15,E4,3.0,0.5,95,146.0
16,B3,3.0,0.5,95,146.0
17,E3,3.0,0.5,95,146.0
18,B-2,3.0,1.0,95,146.0
19,E2,3.0,1.0,95,146.0
20,E4,3.5,0.5,95,146.0
21,B3,3.5,0.5,95,146.0
22,E3,3.5,0.5,95,146.0
23,E4,3.5,0.5,95,146.0
24,B3,3.5,0.5,95,146.0
25,E3,3.5,0.5,95,146.0
26,E4,4.0,0.5,95,146.0
27,B3,4.0,0.5,95,146.0
28,E3,4.0,0.5,95,146.0
29,E4,4.0,0.5,95,146.0
30,B3,4.0,0.5,95,146.0
31,E3,4.0,0.5,95,146.0
32,B-2,4.0,0.5,95,146.0
33,C2,4.0,0.5,95,146.0
34,C2,4.5,0.5,95,146.0
35,E4,4.5,0.5,95,146.0
36,B-3,4.5,0.5,95,146.0
37,E3,4.5,0.5,95,146.0
38,E4,4.5,0.5,95,146.0
39,B-3,4.5,0.5,95,146.0
40,E3,4.5,0.5,95,146.0
41,E2,5.0,0.375,76,146.0
42,E2,5.0,0.375,76,146.0
43,B-2,5.0,1.0,95,146.0
44,E2,5.0,1.0,95,146.0
45,E2,5.5,0.375,76,146.0
46,E2,5.5,0.375,76,146.0
47,E4,6.0,0.5,95,146.0
48,B3,6.0,0.5,95,146.0
49,E3,6.0,0.5,95,146.0
50,E4,6.0,0.5,95,146.0
51,B3,6.0,0.5,95,146.0
52,E3,6.0,0.5,95,146.0
53,B-2,6.0,0.5,95,146.0
54,C2,6.0,0.5,95,146.0
55,C2,6.5,0.5,95,146.0
56,E4,6.5,0.5,95,146.0
57,B3,6.5,0.5,95,146.0
58,E3,6.5,0.5,95,146.0
59,E4,6.5,0.5,95,146.0
60,B3,6.5,0.5,95,146.0
61,E3,6.5,0.5,95,146.0
62,E4,7.0,0.5,95,146.0
63,B3,7.0,0.5,95,146.0
64,E3,7.0,0.5,95,146.0
65,E4,7.0,0.5,95,146.0
66,B3,7.0,0.5,95,146.0
67,E3,7.0,0.5,95,146.0
68,B-2,7.0,1.0,95,146.0
69,E2,7.0,1.0,95,146.0
70,E4,7.5,0.5,95,146.0
71,B-3,7.5,0.5,95,146.0
72,E3,7.5,0.5,95,146.0
73,E4,7.5,0.5,95,146.0
74,B-3,7.5,0.5,95,146.0
75,E3,7.5,0.5,95,146.0
76,E2,8.0,0.375,76,146.0
77,E2,8.0,0.375,76,146.0
78,B-2,8.0,0.5,95,146.0
79,C2,8.0,0.5,95,146.0
80,E2,8.5,0.375,76,146.0
81,E2,8.5,0.375,76,146.0
82,C2,8.5,0.5,95,146.0
83,B2,9.0,0.25,95,146.0
84,B2,9.0,0.25,95,146.0
85,B-2,9.0,0.5,95,146.0
86,E2,9.0,0.5,95,146.0
87,E3,9.25,0.25,95,146.0
88,E3,9.25,0.25,95,146.0
89,G#4,9.5,0.5,95,146.0
90,G#4,9.5,0.5,95,146.0
91,C2,9.5,0.5,127,146.0
92,E3,10.0,0.5,95,146.0
93,E3,10.0,0.5,95,146.0
94,B-2,10.0,0.5,95,146.0
95,C2,10.0,0.5,95,146.0
96,E2,10.5,0.375,76,146.0
97,E2,10.5,0.375,76,146.0
98,C2,10.5,0.5,95,146.0
99,E4,11.0,0.5,95,146.0
100,B3,11.0,0.5,95,146.0
101,E3,11.0,0.5,95,146.0
102,E4,11.0,0.5,95,146.0
103,B3,11.0,0.5,95,146.0
104,E3,11.0,0.5,95,146.0
105,B-2,11.0,1.0,95,146.0
106,E2,11.0,1.0,95,146.0
107,E4,11.5,0.5,95,146.0
108,B3,11.5,0.5,95,146.0
109,E3,11.5,0.5,95,146.0
110,E4,11.5,0.5,95,146.0
111,B3,11.5,0.5,95,146.0
112,E3,11.5,0.5,95,146.0
113,E4,12.0,0.5,95,146.0
114,B3,12.0,0.5,95,146.0
115,E3,12.0,0.5,95,146.0
116,E4,12.0,0.5,95,146.0
117,B3,12.0,0.5,95,146.0
118,E3,12.0,0.5,95,146.0
119,B-2,12.0,0.5,95,146.0
120,C2,12.0,0.5,95,146.0
121,C2,12.5,0.5,95,146.0
122,E4,12.5,0.5,95,146.0
123,B-3,12.5,0.5,95,146.0
124,E3,12.5,0.5,95,146.0
125,E4,12.5,0.5,95,146.0
126,B-3,12.5,0.5,95,146.0
127,E3,12.5,0.5,95,146.0
128,E2,13.0,0.375,76,146.0
129,E2,13.0,0.375,76,146.0
130,B-2,13.0,1.0,95,146.0
131,E2,13.0,1.0,95,146.0
132,E4,13.5,0.5,95,146.0
133,B3,13.5,0.5,95,146.0
134,E3,13.5,0.5,95,146.0
135,E4,13.5,0.5,95,146.0
136,B3,13.5,0.5,95,146.0
137,E3,13.5,0.5,95,146.0
138,E4,14.0,0.5,95,146.0
139,B3,14.0,0.5,95,146.0
140,E3,14.0,0.5,95,146.0
141,E4,14.0,0.5,95,146.0
142,B3,14.0,0.5,95,146.0
143,E3,14.0,0.5,95,146.0
144,B-2,14.0,0.5,95,146.0
145,C2,14.0,0.5,95,146.0
146,E2,14.5,0.188,76,146.0
147,E2,14.5,0.188,76,146.0
148,C2,14.5,0.5,95,146.0
149,E2,14.75,0.188,76,146.0
150,E2,14.75,0.188,76,146.0
151,B-2,15.0,0.375,76,146.0
152,B-2,15.0,0.375,76,146.0
153,B-2,15.0,1.0,95,146.0
154,E2,15.0,1.0,95,146.0
155,B2,15.5,0.375,76,146.0
156,B2,15.5,0.375,76,146.0
157,E3,16.0,0.5,111,146.0
158,E3,16.0,0.5,111,146.0
159,B-2,16.0,0.5,95,146.0
160,C2,16.0,0.5,95,146.0
161,B2,16.5,0.5,95,146.0
162,B2,16.5,0.5,95,146.0
163,C2,16.5,0.5,95,146.0
164,B-2,17.0,0.5,95,146.0
165,B-2,17.0,0.5,95,146.0
166,B-2,17.0,0.5,95,146.0
167,E2,17.0,0.5,95,146.0
168,G#2,17.5,0.5,95,146.0
169,G#2,17.5,0.5,95,146.0
170,C2,17.5,0.5,127,146.0
171,E2,18.0,0.375,76,146.0
172,E2,18.0,0.375,76,146.0
173,B-2,18.0,0.5,95,146.0
174,C2,18.0,0.5,95,146.0
175,E2,18.5,0.375,76,146.0
176,E2,18.5,0.375,76,146.0
177,C2,18.5,0.5,95,146.0
178,E4,19.0,0.5,95,146.0
179,B3,19.0,0.5,95,146.0
180,E3,19.0,0.5,95,146.0
181,E4,19.0,0.5,95,146.0
182,B3,19.0,0.5,95,146.0
183,E3,19.0,0.5,95,146.0
184,B-2,19.0,1.0,95,146.0
185,E2,19.0,1.0,95,146.0
186,E4,19.5,0.5,95,146.0
187,B3,19.5,0.5,95,146.0
188,E3,19.5,0.5,95,146.0
189,E4,19.5,0.5,95,146.0
190,B3,19.5,0.5,95,146.0
191,E3,19.5,0.5,95,146.0
192,E4,20.0,0.5,95,146.0
193,B3,20.0,0.5,95,146.0
194,E3,20.0,0.5,95,146.0
195,E4,20.0,0.5,95,146.0
196,B3,20.0,0.5,95,146.0
197,E3,20.0,0.5,95,146.0
198,B-2,20.0,0.5,95,146.0
199,C2,20.0,0.5,95,146.0
200,C2,20.5,0.5,95,146.0
201,E4,20.5,0.5,95,146.0
202,B-3,20.5,0.5,95,146.0
203,E3,20.5,0.5,95,146.0
204,E4,20.5,0.5,95,146.0
205,B-3,20.5,0.5,95,146.0
206,E3,20.5,0.5,95,146.0
207,E2,21.0,0.375,76,146.0
208,E2,21.0,0.375,76,146.0
209,B-2,21.0,1.0,95,146.0
210,E2,21.0,1.0,95,146.0
211,E2,21.5,0.375,76,146.0
212,E2,21.5,0.375,76,146.0
213,E4,22.0,0.5,95,146.0
214,B3,22.0,0.5,95,146.0
215,E3,22.0,0.5,95,146.0
216,E4,22.0,0.5,95,146.0
217,B3,22.0,0.5,95,146.0
218,E3,22.0,0.5,95,146.0
219,B-2,22.0,0.5,95,146.0
220,C2,22.0,0.5,95,146.0
221,C2,22.5,0.5,95,146.0
222,E4,22.5,0.5,95,146.0
223,B3,22.5,0.5,95,146.0
224,E3,22.5,0.5,95,146.0
225,E4,22.5,0.5,95,146.0
226,B3,22.5,0.5,95,146.0
227,E3,22.5,0.5,95,146.0
228,E4,23.0,0.5,95,146.0
229,B3,23.0,0.5,95,146.0
230,E3,23.0,0.5,95,146.0
231,E4,23.0,0.5,95,146.0
232,B3,23.0,0.5,95,146.0
233,E3,23.0,0.5,95,146.0
234,B-2,23.0,1.0,95,146.0
235,E2,23.0,1.0,95,146.0
236,E4,23.5,0.5,95,146.0
237,B-3,23.5,0.5,95,146.0
238,E3,23.5,0.5,95,146.0
239,E4,23.5,0.5,95,146.0
240,B-3,23.5,0.5,95,146.0
241,E3,23.5,0.5,95,146.0
242,E2,24.0,0.375,76,146.0
243,E2,24.0,0.375,76,146.0
244,B-2,24.0,0.5,95,146.0
245,C2,24.0,0.5,95,146.0
246,E2,24.5,0.375,76,146.0
247,E2,24.5,0.375,76,146.0
248,C2,24.5,0.5,95,146.0
249,B2,25.0,0.25,95,146.0
250,B2,25.0,0.25,95,146.0
251,B-2,25.0,0.5,95,146.0
252,E2,25.0,0.5,95,146.0
253,E3,25.25,0.25,95,146.0
254,E3,25.25,0.25,95,146.0
255,G#4,25.5,0.5,95,146.0
256,G#4,25.5,0.5,95,146.0
257,C2,25.5,0.5,127,146.0
258,E3,26.0,0.5,95,146.0
259,E3,26.0,0.5,95,146.0
260,B-2,26.0,0.5,95,146.0
261,C2,26.0,0.5,95,146.0
262,E2,26.5,0.375,76,146.0
263,E2,26.5,0.375,76,146.0
264,C2,26.5,0.5,95,146.0
265,E4,27.0,0.5,95,146.0
266,B3,27.0,0.5,95,146.0
267,E3,27.0,0.5,95,146.0
268,E4,27.0,0.5,95,146.0
269,B3,27.0,0.5,95,146.0
270,E3,27.0,0.5,95,146.0
271,B-2,27.0,1.0,95,146.0
272,E2,27.0,1.0,95,146.0
273,E4,27.5,0.5,95,146.0
274,B3,27.5,0.5,95,146.0
275,E3,27.5,0.5,95,146.0
276,E4,27.5,0.5,95,146.0
277,B3,27.5,0.5,95,146.0
278,E3,27.5,0.5,95,146.0
279,E4,28.0,0.5,95,146.0
280,B3,28.0,0.5,95,146.0
281,E3,28.0,0.5,95,146.0
282,E4,28.0,0.5,95,146.0
283,B3,28.0,0.5,95,146.0
284,E3,28.0,0.5,95,146.0
285,B-2,28.0,0.5,95,146.0
286,C2,28.0,0.5,95,146.0
287,C2,28.5,0.5,95,146.0
288,E4,28.5,0.5,95,146.0
289,B-3,28.5,0.5,95,146.0
290,E3,28.5,0.5,95,146.0
291,E4,28.5,0.5,95,146.0
292,B-3,28.5,0.5,95,146.0
293,E3,28.5,0.5,95,146.0
294,E2,29.0,0.375,76,146.0
295,E2,29.0,0.375,76,146.0
296,B-2,29.0,1.0,95,146.0
297,E2,29.0,1.0,95,146.0
298,E4,29.5,0.5,95,146.0
299,B3,29.5,0.5,95,146.0
300,E3,29.5,0.5,95,146.0
301,E4,29.5,0.5,95,146.0
302,B3,29.5,0.5,95,146.0
303,E3,29.5,0.5,95,146.0
304,E4,30.0,0.5,95,146.0
305,B3,30.0,0.5,95,146.0
306,E3,30.0,0.5,95,146.0
307,E4,30.0,0.5,95,146.0
308,B3,30.0,0.5,95,146.0
309,E3,30.0,0.5,95,146.0
310,B-2,30.0,0.5,95,146.0
311,C2,30.0,0.5,95,146.0
312,E2,30.5,0.188,76,146.0
313,E2,30.5,0.188,76,146.0
314,C2,30.5,0.5,95,146.0
315,E2,30.75,0.188,76,146.0
316,E2,30.75,0.188,76,146.0
317,B-2,31.0,0.375,76,146.0
318,B-2,31.0,0.375,76,146.0
319,B-2,31.0,1.0,95,146.0
320,E2,31.0,1.0,95,146.0
321,B2,31.5,0.375,76,146.0
322,B2,31.5,0.375,76,146.0
323,E3,32.0,0.5,111,146.0
324,E3,32.0,0.5,111,146.0
325,B-2,32.0,0.5,95,146.0
326,C2,32.0,0.5,95,146.0
327,B2,32.5,0.5,95,146.0
328,B2,32.5,0.5,95,146.0
329,C2,32.5,0.5,95,146.0
330,B-2,33.0,0.5,95,146.0
331,B-2,33.0,0.5,95,146.0
332,B-2,33.0,0.5,95,146.0
333,E2,33.0,0.5,95,146.0
334,G#2,33.5,0.5,95,146.0
335,G#2,33.5,0.5,95,146.0
336,C2,33.5,0.5,127,146.0
337,E2,34.0,0.375,63,146.0
338,E2,34.0,0.375,63,146.0
339,B-2,34.0,0.5,95,146.0
340,C2,34.0,0.5,95,146.0
341,E2,34.5,0.375,63,146.0
342,E2,34.5,0.375,63,146.0
343,C2,34.5,0.5,95,146.0
344,G#3,35.0,1.0,111,146.0
345,E4,35.0,0.5,79,146.0
346,B3,35.0,0.5,79,146.0
347,E3,35.0,0.5,79,146.0
348,E4,35.0,0.5,79,146.0
349,B3,35.0,0.5,79,146.0
350,E3,35.0,0.5,79,146.0
351,B-2,35.0,1.0,95,146.0
352,E2,35.0,1.0,95,146.0
353,E4,35.5,0.5,79,146.0
354,B3,35.5,0.5,79,146.0
355,E3,35.5,0.5,79,146.0
356,E4,35.5,0.5,79,146.0
357,B3,35.5,0.5,79,146.0
358,E3,35.5,0.5,79,146.0
359,E4,36.0,0.5,79,146.0
360,B3,36.0,0.5,79,146.0
361,E3,36.0,0.5,79,146.0
362,E4,36.0,0.5,79,146.0
363,B3,36.0,0.5,79,146.0
364,E3,36.0,0.5,79,146.0
365,B-2,36.0,0.5,95,146.0
366,C2,36.0,0.5,95,146.0
367,B-3,36.5,0.5,111,146.0
368,C2,36.5,0.5,95,146.0
369,E4,36.5,0.5,79,146.0
370,B-3,36.5,0.5,79,146.0
371,E3,36.5,0.5,79,146.0
372,E4,36.5,0.5,79,146.0
373,B-3,36.5,0.5,79,146.0
374,E3,36.5,0.5,79,146.0
375,E2,37.0,0.375,63,146.0
376,E2,37.0,0.375,63,146.0
377,A3,37.0,0.5,95,146.0
378,B-2,37.0,0.5,95,146.0
379,E2,37.0,0.5,95,146.0
380,E2,37.5,0.375,63,146.0
381,E2,37.5,0.375,63,146.0
382,A3,37.5,0.5,111,146.0
383,C2,37.5,0.5,111,146.0
384,B3,38.0,1.0,111,146.0
385,E4,38.0,0.5,79,146.0
386,B3,38.0,0.5,79,146.0
387,E3,38.0,0.5,79,146.0
388,E4,38.0,0.5,79,146.0
389,B3,38.0,0.5,79,146.0
390,E3,38.0,0.5,79,146.0
391,F#2,38.0,0.5,95,146.0
392,C2,38.0,0.5,95,146.0
393,C2,38.5,0.5,95,146.0
394,E4,38.5,0.5,79,146.0
395,B3,38.5,0.5,79,146.0
396,E3,38.5,0.5,79,146.0
397,E4,38.5,0.5,79,146.0
398,B3,38.5,0.5,79,146.0
399,E3,38.5,0.5,79,146.0
400,E4,39.0,0.5,79,146.0
401,B3,39.0,0.5,79,146.0
402,E3,39.0,0.5,79,146.0
403,E4,39.0,0.5,79,146.0
404,B3,39.0,0.5,79,146.0
405,E3,39.0,0.5,79,146.0
406,F#2,39.0,1.0,95,146.0
407,E2,39.0,1.0,95,146.0
408,B-3,39.5,1.0,111,146.0
409,E4,39.5,0.5,79,146.0
410,B-3,39.5,0.5,79,146.0
411,E3,39.5,0.5,79,146.0
412,E4,39.5,0.5,79,146.0
413,B-3,39.5,0.5,79,146.0
414,E3,39.5,0.5,79,146.0
415,E2,40.0,0.375,63,146.0
416,E2,40.0,0.375,63,146.0
417,F#2,40.0,0.5,95,146.0
418,C2,40.0,0.5,95,146.0
419,E2,40.5,0.375,63,146.0
420,E2,40.5,0.375,63,146.0
421,G#3,40.5,0.5,111,146.0
422,C2,40.5,0.5,95,146.0
423,E2,41.0,0.375,63,146.0
424,E2,41.0,0.375,63,146.0
425,G#3,41.0,1.0,111,146.0
426,F#2,41.0,1.0,95,146.0
427,E2,41.0,1.0,95,146.0
428,E4,41.5,0.5,79,146.0
429,B3,41.5,0.5,79,146.0
430,E3,41.5,0.5,79,146.0
431,E4,41.5,0.5,79,146.0
432,B3,41.5,0.5,79,146.0
433,E3,41.5,0.5,79,146.0
434,E2,42.0,0.375,63,146.0
435,E2,42.0,0.375,63,146.0
436,G#3,42.0,1.0,111,146.0
437,F#2,42.0,0.5,95,146.0
438,C2,42.0,0.5,95,146.0
439,E2,42.5,0.375,63,146.0
440,E2,42.5,0.375,63,146.0
441,C2,42.5,0.5,95,146.0
442,G#3,43.0,1.0,111,146.0
443,E4,43.0,0.5,79,146.0
444,B3,43.0,0.5,79,146.0
445,E3,43.0,0.5,79,146.0
446,E4,43.0,0.5,79,146.0
447,B3,43.0,0.5,79,146.0
448,E3,43.0,0.5,79,146.0
449,F#2,43.0,1.0,95,146.0
450,E2,43.0,1.0,95,146.0
451,E4,43.5,0.5,79,146.0
452,B3,43.5,0.5,79,146.0
453,E3,43.5,0.5,79,146.0
454,E4,43.5,0.5,79,146.0
455,B3,43.5,0.5,79,146.0
456,E3,43.5,0.5,79,146.0
457,E4,44.0,0.5,79,146.0
458,B3,44.0,0.5,79,146.0
459,E3,44.0,0.5,79,146.0
460,E4,44.0,0.5,79,146.0
461,B3,44.0,0.5,79,146.0
462,E3,44.0,0.5,79,146.0
463,F#2,44.0,0.5,95,146.0
464,C2,44.0,0.5,95,146.0
465,B-3,44.5,0.5,111,146.0
466,C2,44.5,0.5,95,146.0
467,E4,44.5,0.5,79,146.0
468,B-3,44.5,0.5,79,146.0
469,E3,44.5,0.5,79,146.0
470,E4,44.5,0.5,79,146.0
471,B-3,44.5,0.5,79,146.0
472,E3,44.5,0.5,79,146.0
473,E2,45.0,0.375,63,146.0
474,E2,45.0,0.375,63,146.0
475,F#2,45.0,1.0,95,146.0
476,E2,45.0,1.0,95,146.0
477,E2,45.5,0.375,63,146.0
478,E2,45.5,0.375,63,146.0
479,C#4,45.835,33/200,111,146.0
480,C#4,46.0,1,111,146.0
481,C#4,46.0,0.5,79,146.0
482,E3,46.0,0.5,79,146.0
483,C#4,46.0,0.5,79,146.0
484,E3,46.0,0.5,79,146.0
485,F#2,46.0,0.5,95,146.0
486,C2,46.0,0.5,95,146.0
487,C2,46.5,0.5,95,146.0
488,C#4,46.5,0.5,79,146.0
489,E3,46.5,0.5,79,146.0
490,C#4,46.5,0.5,79,146.0
491,E3,46.5,0.5,79,146.0
492,C#4,47.0,0.5,79,146.0
493,E3,47.0,0.5,79,146.0
494,C#4,47.0,0.5,79,146.0
495,E3,47.0,0.5,79,146.0
496,F#2,47.0,1.0,95,146.0
497,E2,47.0,1.0,95,146.0
498,B3,47.5,0.5,111,146.0
499,E4,47.5,0.5,79,146.0
500,B3,47.5,0.5,79,146.0
501,E3,47.5,0.5,79,146.0
502,E4,47.5,0.5,79,146.0
503,B3,47.5,0.5,79,146.0
504,E3,47.5,0.5,79,146.0
505,E2,48.0,0.375,63,146.0
506,E2,48.0,0.375,63,146.0
507,B3,48.0,1.0,111,146.0
508,F#2,48.0,0.5,95,146.0
509,C2,48.0,0.5,95,146.0
510,E2,48.5,0.375,63,146.0
511,E2,48.5,0.375,63,146.0
512,C2,48.5,0.5,95,146.0
513,E2,49.0,0.375,63,146.0
514,E2,49.0,0.375,63,146.0
515,B-3,49.0,1.0,111,146.0
516,F#2,49.0,1.0,95,146.0
517,E2,49.0,1.0,95,146.0
518,E4,49.5,0.5,79,146.0
519,B3,49.5,0.5,79,146.0
520,E3,49.5,0.5,79,146.0
521,E4,49.5,0.5,79,146.0
522,B3,49.5,0.5,79,146.0
523,E3,49.5,0.5,79,146.0
524,E2,50.0,0.375,63,146.0
525,E2,50.0,0.375,63,146.0
526,B-3,50.0,1.0,111,146.0
527,F#2,50.0,0.5,95,146.0
528,C2,50.0,0.5,95,146.0
529,E2,50.5,0.375,63,146.0
530,E2,50.5,0.375,63,146.0
531,C2,50.5,0.5,95,146.0
532,G#3,51.0,1.0,79,146.0
533,E4,51.0,0.5,79,146.0
534,B3,51.0,0.5,79,146.0
535,E3,51.0,0.5,79,146.0
536,E4,51.0,0.5,79,146.0
537,B3,51.0,0.5,79,146.0
538,E3,51.0,0.5,79,146.0
539,F#2,51.0,1.0,95,146.0
540,E2,51.0,1.0,95,146.0
541,E4,51.5,0.5,79,146.0
542,B3,51.5,0.5,79,146.0
543,E3,51.5,0.5,79,146.0
544,E4,51.5,0.5,79,146.0
545,B3,51.5,0.5,79,146.0
546,E3,51.5,0.5,79,146.0
547,E4,52.0,0.5,79,146.0
548,B3,52.0,0.5,79,146.0
549,E3,52.0,0.5,79,146.0
550,E4,52.0,0.5,79,146.0
551,B3,52.0,0.5,79,146.0
552,E3,52.0,0.5,79,146.0
553,F#2,52.0,0.5,95,146.0
554,C2,52.0,0.5,95,146.0
555,B-3,52.5,0.5,79,146.0
556,C2,52.5,0.5,95,146.0
557,E4,52.5,0.5,79,146.0
558,B-3,52.5,0.5,79,146.0
559,E3,52.5,0.5,79,146.0
560,E4,52.5,0.5,79,146.0
561,B-3,52.5,0.5,79,146.0
562,E3,52.5,0.5,79,146.0
563,E2,53.0,0.375,63,146.0
564,E2,53.0,0.375,63,146.0
565,B-2,53.0,1.0,95,146.0
566,E2,53.0,1.0,95,146.0
567,E2,53.5,0.375,63,146.0
568,E2,53.5,0.375,63,146.0
569,B3,53.835,33/200,79,146.0
570,B3,54.0,1,79,146.0
571,E4,54.0,0.5,79,146.0
572,B3,54.0,0.5,79,146.0
573,E3,54.0,0.5,79,146.0
574,E4,54.0,0.5,79,146.0
575,B3,54.0,0.5,79,146.0
576,E3,54.0,0.5,79,146.0
577,F#2,54.0,0.5,95,146.0
578,C2,54.0,0.5,95,146.0
579,C2,54.5,0.5,95,146.0
580,E4,54.5,0.5,79,146.0
581,B3,54.5,0.5,79,146.0
582,E3,54.5,0.5,79,146.0
583,E4,54.5,0.5,79,146.0
584,B3,54.5,0.5,79,146.0
585,E3,54.5,0.5,79,146.0
586,E4,55.0,0.5,79,146.0
587,B3,55.0,0.5,79,146.0
588,E3,55.0,0.5,79,146.0
589,E4,55.0,0.5,79,146.0
590,B3,55.0,0.5,79,146.0
591,E3,55.0,0.5,79,146.0
592,F#2,55.0,1.0,95,146.0
593,E2,55.0,1.0,95,146.0
594,B-3,55.5,0.75,79,146.0
595,E4,55.5,0.5,79,146.0
596,B-3,55.5,0.5,79,146.0
597,E3,55.5,0.5,79,146.0
598,E4,55.5,0.5,79,146.0
599,B-3,55.5,0.5,79,146.0
600,E3,55.5,0.5,79,146.0
601,E2,56.0,0.375,63,146.0
602,E2,56.0,0.375,63,146.0
603,F#2,56.0,0.5,95,146.0
604,C2,56.0,0.5,95,146.0
605,G#3,56.25,0.75,79,146.0
606,E2,56.5,0.375,63,146.0
607,E2,56.5,0.375,63,146.0
608,C2,56.5,0.5,95,146.0
609,E2,57.0,0.375,63,146.0
610,E2,57.0,0.375,63,146.0
611,G#3,57.0,1.0,79,146.0
612,F#2,57.0,1.0,95,146.0
613,E2,57.0,1.0,95,146.0
614,E4,57.5,0.5,79,146.0
615,B3,57.5,0.5,79,146.0
616,E3,57.5,0.5,79,146.0
617,E4,57.5,0.5,79,146.0
618,B3,57.5,0.5,79,146.0
619,E3,57.5,0.5,79,146.0
620,E2,58.0,0.375,63,146.0
621,E2,58.0,0.375,63,146.0
622,G#3,58.0,4.0,79,146.0
623,F#2,58.0,0.5,95,146.0
624,C2,58.0,0.5,95,146.0
625,E2,58.5,0.375,63,146.0
626,E2,58.5,0.375,63,146.0
627,C2,58.5,0.5,95,146.0
628,E4,59.0,0.5,79,146.0
629,B3,59.0,0.5,79,146.0
630,E3,59.0,0.5,79,146.0
631,E4,59.0,0.5,79,146.0
632,B3,59.0,0.5,79,146.0
633,E3,59.0,0.5,79,146.0
634,F#2,59.0,1.0,95,146.0
635,E2,59.0,1.0,95,146.0
636,E4,59.5,0.5,79,146.0
637,B3,59.5,0.5,79,146.0
638,E3,59.5,0.5,79,146.0
639,E4,59.5,0.5,79,146.0
640,B3,59.5,0.5,79,146.0
641,E3,59.5,0.5,79,146.0
642,E4,60.0,0.5,79,146.0
643,B3,60.0,0.5,79,146.0
644,E3,60.0,0.5,79,146.0
645,E4,60.0,0.5,79,146.0
646,B3,60.0,0.5,79,146.0
647,E3,60.0,0.5,79,146.0
648,F#2,60.0,0.5,95,146.0
649,C2,60.0,0.5,95,146.0
650,C2,60.5,0.5,95,146.0
651,E4,60.5,0.5,79,146.0
652,B-3,60.5,0.5,79,146.0
653,E3,60.5,0.5,79,146.0
654,E4,60.5,0.5,79,146.0
655,B-3,60.5,0.5,79,146.0
656,E3,60.5,0.5,79,146.0
657,E2,61.0,0.375,63,146.0
658,E2,61.0,0.375,63,146.0
659,F#2,61.0,1.0,95,146.0
660,E2,61.0,1.0,95,146.0
661,E4,61.5,0.5,79,146.0
662,B3,61.5,0.5,79,146.0
663,E3,61.5,0.5,79,146.0
664,E4,61.5,0.5,79,146.0
665,B3,61.5,0.5,79,146.0
666,E3,61.5,0.5,79,146.0
667,G#3,62.0,4.0,79,146.0
668,E4,62.0,0.5,79,146.0
669,B3,62.0,0.5,79,146.0
670,E3,62.0,0.5,79,146.0
671,E4,62.0,0.5,79,146.0
672,B3,62.0,0.5,79,146.0
673,E3,62.0,0.5,79,146.0
674,F#2,62.0,0.5,95,146.0
675,C2,62.0,0.5,95,146.0
676,E2,62.5,0.188,63,146.0
677,E2,62.5,0.188,63,146.0
678,C2,62.5,0.5,95,146.0
679,E2,62.75,0.188,63,146.0
680,E2,62.75,0.188,63,146.0
681,B-2,63.0,0.375,63,146.0
682,B-2,63.0,0.375,63,146.0
683,F#2,63.0,1.0,95,146.0
684,E2,63.0,1.0,95,146.0
685,B2,63.5,0.375,63,146.0
686,B2,63.5,0.375,63,146.0
687,E3,64.0,0.5,95,146.0
688,E3,64.0,0.5,95,146.0
689,F#2,64.0,0.5,95,146.0
690,C2,64.0,0.5,95,146.0
691,B2,64.5,0.5,79,146.0
692,B2,64.5,0.5,79,146.0
693,C2,64.5,0.5,95,146.0
694,B-2,65.0,0.5,79,146.0
695,B-2,65.0,0.5,79,146.0
696,F#2,65.0,1.0,95,146.0
697,E2,65.0,1.0,95,146.0
698,G#2,65.5,0.5,79,146.0
699,G#2,65.5,0.5,79,146.0
700,E2,66.0,0.375,63,146.0
701,E2,66.0,0.375,63,146.0
702,B-2,66.0,0.5,95,146.0
703,C2,66.0,0.5,95,146.0
704,E2,66.5,0.375,63,146.0
705,E2,66.5,0.375,63,146.0
706,C2,66.5,0.5,95,146.0
707,G#3,67.0,1.0,111,146.0
708,E4,67.0,0.5,79,146.0
709,B3,67.0,0.5,79,146.0
710,E3,67.0,0.5,79,146.0
711,E4,67.0,0.5,79,146.0
712,B3,67.0,0.5,79,146.0
713,E3,67.0,0.5,79,146.0
714,B-2,67.0,1.0,95,146.0
715,E2,67.0,1.0,95,146.0
716,E4,67.5,0.5,79,146.0
717,B3,67.5,0.5,79,146.0
718,E3,67.5,0.5,79,146.0
719,E4,67.5,0.5,79,146.0
720,B3,67.5,0.5,79,146.0
721,E3,67.5,0.5,79,146.0
722,E4,68.0,0.5,79,146.0
723,B3,68.0,0.5,79,146.0
724,E3,68.0,0.5,79,146.0
725,E4,68.0,0.5,79,146.0
726,B3,68.0,0.5,79,146.0
727,E3,68.0,0.5,79,146.0
728,B-2,68.0,0.5,95,146.0
729,C2,68.0,0.5,95,146.0
730,B-3,68.5,0.5,111,146.0
731,C2,68.5,0.5,95,146.0
732,E4,68.5,0.5,79,146.0
733,B-3,68.5,0.5,79,146.0
734,E3,68.5,0.5,79,146.0
735,E4,68.5,0.5,79,146.0
736,B-3,68.5,0.5,79,146.0
737,E3,68.5,0.5,79,146.0
738,E2,69.0,0.375,63,146.0
739,E2,69.0,0.375,63,146.0
740,A3,69.0,0.5,95,146.0
741,B-2,69.0,0.5,95,146.0
742,E2,69.0,0.5,95,146.0
743,E2,69.5,0.375,63,146.0
744,E2,69.5,0.375,63,146.0
745,A3,69.5,0.5,111,146.0
746,C2,69.5,0.5,111,146.0
747,B3,70.0,1.0,111,146.0
748,E4,70.0,0.5,79,146.0
749,B3,70.0,0.5,79,146.0
750,E3,70.0,0.5,79,146.0
751,E4,70.0,0.5,79,146.0
752,B3,70.0,0.5,79,146.0
753,E3,70.0,0.5,79,146.0
754,F#2,70.0,0.5,95,146.0
755,C2,70.0,0.5,95,146.0
756,C2,70.5,0.5,95,146.0
757,E4,70.5,0.5,79,146.0
758,B3,70.5,0.5,79,146.0
759,E3,70.5,0.5,79,146.0
760,E4,70.5,0.5,79,146.0
761,B3,70.5,0.5,79,146.0
762,E3,70.5,0.5,79,146.0
763,E4,71.0,0.5,79,146.0
764,B3,71.0,0.5,79,146.0
765,E3,71.0,0.5,79,146.0
766,E4,71.0,0.5,79,146.0
767,B3,71.0,0.5,79,146.0
768,E3,71.0,0.5,79,146.0
769,F#2,71.0,1.0,95,146.0
770,E2,71.0,1.0,95,146.0
771,B-3,71.5,1.0,111,146.0
772,E4,71.5,0.5,79,146.0
773,B-3,71.5,0.5,79,146.0
774,E3,71.5,0.5,79,146.0
775,E4,71.5,0.5,79,146.0
776,B-3,71.5,0.5,79,146.0
777,E3,71.5,0.5,79,146.0
778,E2,72.0,0.375,63,146.0
779,E2,72.0,0.375,63,146.0
780,F#2,72.0,0.5,95,146.0
781,C2,72.0,0.5,95,146.0
782,E2,72.5,0.375,63,146.0
783,E2,72.5,0.375,63,146.0
784,G#3,72.5,0.5,111,146.0
785,C2,72.5,0.5,95,146.0
786,E2,73.0,0.375,63,146.0
787,E2,73.0,0.375,63,146.0
788,G#3,73.0,1.0,111,146.0
789,F#2,73.0,1.0,95,146.0
790,E2,73.0,1.0,95,146.0
791,E4,73.5,0.5,79,146.0
792,B3,73.5,0.5,79,146.0
793,E3,73.5,0.5,79,146.0
794,E4,73.5,0.5,79,146.0
795,B3,73.5,0.5,79,146.0
796,E3,73.5,0.5,79,146.0
797,E2,74.0,0.375,63,146.0
798,E2,74.0,0.375,63,146.0
799,G#3,74.0,1.0,111,146.0
800,F#2,74.0,0.5,95,146.0
801,C2,74.0,0.5,95,146.0
802,E2,74.5,0.375,63,146.0
803,E2,74.5,0.375,63,146.0
804,C2,74.5,0.5,95,146.0
805,G#3,75.0,1.0,111,146.0
806,E4,75.0,0.5,79,146.0
807,B3,75.0,0.5,79,146.0
808,E3,75.0,0.5,79,146.0
809,E4,75.0,0.5,79,146.0
810,B3,75.0,0.5,79,146.0
811,E3,75.0,0.5,79,146.0
812,F#2,75.0,1.0,95,146.0
813,E2,75.0,1.0,95,146.0
814,E4,75.5,0.5,79,146.0
815,B3,75.5,0.5,79,146.0
816,E3,75.5,0.5,79,146.0
817,E4,75.5,0.5,79,146.0
818,B3,75.5,0.5,79,146.0
819,E3,75.5,0.5,79,146.0
820,E4,76.0,0.5,79,146.0
821,B3,76.0,0.5,79,146.0
822,E3,76.0,0.5,79,146.0
823,E4,76.0,0.5,79,146.0
824,B3,76.0,0.5,79,146.0
825,E3,76.0,0.5,79,146.0
826,F#2,76.0,0.5,95,146.0
827,C2,76.0,0.5,95,146.0
828,B-3,76.5,0.5,111,146.0
829,C2,76.5,0.5,95,146.0
830,E4,76.5,0.5,79,146.0
831,B-3,76.5,0.5,79,146.0
832,E3,76.5,0.5,79,146.0
833,E4,76.5,0.5,79,146.0
834,B-3,76.5,0.5,79,146.0
835,E3,76.5,0.5,79,146.0
836,E2,77.0,0.375,63,146.0
837,E2,77.0,0.375,63,146.0
838,F#2,77.0,1.0,95,146.0
839,E2,77.0,1.0,95,146.0
840,E2,77.5,0.375,63,146.0
841,E2,77.5,0.375,63,146.0
842,C#4,77.835,33/200,111,146.0
843,C#4,78.0,1,111,146.0
844,C#4,78.0,0.5,79,146.0
845,E3,78.0,0.5,79,146.0
846,C#4,78.0,0.5,79,146.0
847,E3,78.0,0.5,79,146.0
848,F#2,78.0,0.5,95,146.0
849,C2,78.0,0.5,95,146.0
850,C2,78.5,0.5,95,146.0
851,C#4,78.5,0.5,79,146.0
852,E3,78.5,0.5,79,146.0
853,C#4,78.5,0.5,79,146.0
854,E3,78.5,0.5,79,146.0
855,C#4,79.0,0.5,79,146.0
856,E3,79.0,0.5,79,146.0
857,C#4,79.0,0.5,79,146.0
858,E3,79.0,0.5,79,146.0
859,F#2,79.0,1.0,95,146.0
860,E2,79.0,1.0,95,146.0
861,B3,79.5,0.5,111,146.0
862,E4,79.5,0.5,79,146.0
863,B3,79.5,0.5,79,146.0
864,E3,79.5,0.5,79,146.0
865,E4,79.5,0.5,79,146.0
866,B3,79.5,0.5,79,146.0
867,E3,79.5,0.5,79,146.0
868,E2,80.0,0.375,63,146.0
869,E2,80.0,0.375,63,146.0
870,B3,80.0,1.0,111,146.0
871,F#2,80.0,0.5,95,146.0
872,C2,80.0,0.5,95,146.0
873,E2,80.5,0.375,63,146.0
874,E2,80.5,0.375,63,146.0
875,C2,80.5,0.5,95,146.0
876,E2,81.0,0.375,63,146.0
877,E2,81.0,0.375,63,146.0
878,B-3,81.0,1.0,111,146.0
879,F#2,81.0,1.0,95,146.0
880,E2,81.0,1.0,95,146.0
881,E4,81.5,0.5,79,146.0
882,B3,81.5,0.5,79,146.0
883,E3,81.5,0.5,79,146.0
884,E4,81.5,0.5,79,146.0
885,B3,81.5,0.5,79,146.0
886,E3,81.5,0.5,79,146.0
887,E2,82.0,0.375,63,146.0
888,E2,82.0,0.375,63,146.0
889,B-3,82.0,1.0,111,146.0
890,F#2,82.0,0.5,95,146.0
891,C2,82.0,0.5,95,146.0
892,E2,82.5,0.375,63,146.0
893,E2,82.5,0.375,63,146.0
894,C2,82.5,0.5,95,146.0
895,G#3,83.0,1.0,79,146.0
896,E4,83.0,0.5,79,146.0
897,B3,83.0,0.5,79,146.0
898,E3,83.0,0.5,79,146.0
899,E4,83.0,0.5,79,146.0
900,B3,83.0,0.5,79,146.0
901,E3,83.0,0.5,79,146.0
902,F#2,83.0,1.0,95,146.0
903,E2,83.0,1.0,95,146.0
904,E4,83.5,0.5,79,146.0
905,B3,83.5,0.5,79,146.0
906,E3,83.5,0.5,79,146.0
907,E4,83.5,0.5,79,146.0
908,B3,83.5,0.5,79,146.0
909,E3,83.5,0.5,79,146.0
910,E4,84.0,0.5,79,146.0
911,B3,84.0,0.5,79,146.0
912,E3,84.0,0.5,79,146.0
913,E4,84.0,0.5,79,146.0
914,B3,84.0,0.5,79,146.0
915,E3,84.0,0.5,79,146.0
916,F#2,84.0,0.5,95,146.0
917,C2,84.0,0.5,95,146.0
918,B-3,84.5,0.5,79,146.0
919,C2,84.5,0.5,95,146.0
920,E4,84.5,0.5,79,146.0
921,B-3,84.5,0.5,79,146.0
922,E3,84.5,0.5,79,146.0
923,E4,84.5,0.5,79,146.0
924,B-3,84.5,0.5,79,146.0
925,E3,84.5,0.5,79,146.0
926,E2,85.0,0.375,63,146.0
927,E2,85.0,0.375,63,146.0
928,B-2,85.0,1.0,95,146.0
929,E2,85.0,1.0,95,146.0
930,E2,85.5,0.375,63,146.0
931,E2,85.5,0.375,63,146.0
932,B3,85.835,33/200,79,146.0
933,B3,86.0,1,79,146.0
934,E4,86.0,0.5,79,146.0
935,B3,86.0,0.5,79,146.0
936,E3,86.0,0.5,79,146.0
937,E4,86.0,0.5,79,146.0
938,B3,86.0,0.5,79,146.0
939,E3,86.0,0.5,79,146.0
940,F#2,86.0,0.5,95,146.0
941,C2,86.0,0.5,95,146.0
942,C2,86.5,0.5,95,146.0
943,E4,86.5,0.5,79,146.0
944,B3,86.5,0.5,79,146.0
945,E3,86.5,0.5,79,146.0
946,E4,86.5,0.5,79,146.0
947,B3,86.5,0.5,79,146.0
948,E3,86.5,0.5,79,146.0
949,E4,87.0,0.5,79,146.0
950,B3,87.0,0.5,79,146.0
951,E3,87.0,0.5,79,146.0
952,E4,87.0,0.5,79,146.0
953,B3,87.0,0.5,79,146.0
954,E3,87.0,0.5,79,146.0
955,F#2,87.0,1.0,95,146.0
956,E2,87.0,1.0,95,146.0
957,B-3,87.5,0.75,79,146.0
958,E4,87.5,0.5,79,146.0
959,B-3,87.5,0.5,79,146.0
960,E3,87.5,0.5,79,146.0
961,E4,87.5,0.5,79,146.0
962,B-3,87.5,0.5,79,146.0
963,E3,87.5,0.5,79,146.0
964,E2,88.0,0.375,63,146.0
965,E2,88.0,0.375,63,146.0
966,F#2,88.0,0.5,95,146.0
967,C2,88.0,0.5,95,146.0
968,G#3,88.25,0.75,79,146.0
969,E2,88.5,0.375,63,146.0
970,E2,88.5,0.375,63,146.0
971,C2,88.5,0.5,95,146.0
972,E2,89.0,0.375,63,146.0
973,E2,89.0,0.375,63,146.0
974,G#3,89.0,1.0,79,146.0
975,F#2,89.0,1.0,95,146.0
976,E2,89.0,1.0,95,146.0
977,E4,89.5,0.5,79,146.0
978,B3,89.5,0.5,79,146.0
979,E3,89.5,0.5,79,146.0
980,E4,89.5,0.5,79,146.0
981,B3,89.5,0.5,79,146.0
982,E3,89.5,0.5,79,146.0
983,E2,90.0,0.375,63,146.0
984,E2,90.0,0.375,63,146.0
985,G#3,90.0,4.0,79,146.0
986,F#2,90.0,0.5,95,146.0
987,C2,90.0,0.5,95,146.0
988,E2,90.5,0.375,63,146.0
989,E2,90.5,0.375,63,146.0
990,C2,90.5,0.5,95,146.0
991,E4,91.0,0.5,79,146.0
992,B3,91.0,0.5,79,146.0
993,E3,91.0,0.5,79,146.0
994,E4,91.0,0.5,79,146.0
995,B3,91.0,0.5,79,146.0
996,E3,91.0,0.5,79,146.0
997,F#2,91.0,1.0,95,146.0
998,E2,91.0,1.0,95,146.0
999,E4,91.5,0.5,79,146.0
1000,B3,91.5,0.5,79,146.0
1001,E3,91.5,0.5,79,146.0
1002,E4,91.5,0.5,79,146.0
1003,B3,91.5,0.5,79,146.0
1004,E3,91.5,0.5,79,146.0
1005,E4,92.0,0.5,79,146.0
1006,B3,92.0,0.5,79,146.0
1007,E3,92.0,0.5,79,146.0
1008,E4,92.0,0.5,79,146.0
1009,B3,92.0,0.5,79,146.0
1010,E3,92.0,0.5,79,146.0
1011,F#2,92.0,0.5,95,146.0
1012,C2,92.0,0.5,95,146.0
1013,C2,92.5,0.5,95,146.0
1014,E4,92.5,0.5,79,146.0
1015,B-3,92.5,0.5,79,146.0
1016,E3,92.5,0.5,79,146.0
1017,E4,92.5,0.5,79,146.0
1018,B-3,92.5,0.5,79,146.0
1019,E3,92.5,0.5,79,146.0
1020,E2,93.0,0.375,63,146.0
1021,E2,93.0,0.375,63,146.0
1022,F#2,93.0,1.0,95,146.0
1023,E2,93.0,1.0,95,146.0
1024,E4,93.5,0.5,79,146.0
1025,B3,93.5,0.5,79,146.0
1026,E3,93.5,0.5,79,146.0
1027,E4,93.5,0.5,79,146.0
1028,B3,93.5,0.5,79,146.0
1029,E3,93.5,0.5,79,146.0
1030,G#3,94.0,4.0,79,146.0
1031,E4,94.0,0.5,79,146.0
1032,B3,94.0,0.5,79,146.0
1033,E3,94.0,0.5,79,146.0
1034,E4,94.0,0.5,79,146.0
1035,B3,94.0,0.5,79,146.0
1036,E3,94.0,0.5,79,146.0
1037,F#2,94.0,0.5,95,146.0
1038,C2,94.0,0.5,95,146.0
1039,E2,94.5,0.188,63,146.0
1040,E2,94.5,0.188,63,146.0
1041,C2,94.5,0.5,95,146.0
1042,E2,94.75,0.188,63,146.0
1043,E2,94.75,0.188,63,146.0
1044,B-2,95.0,0.375,63,146.0
1045,B-2,95.0,0.375,63,146.0
1046,F#2,95.0,1.0,95,146.0
1047,E2,95.0,1.0,95,146.0
1048,B2,95.5,0.375,63,146.0
1049,B2,95.5,0.375,63,146.0
1050,E3,96.0,0.5,95,146.0
1051,E3,96.0,0.5,95,146.0
1052,F#2,96.0,0.5,95,146.0
1053,C2,96.0,0.5,95,146.0
1054,B2,96.5,0.5,79,146.0
1055,B2,96.5,0.5,79,146.0
1056,C2,96.5,0.5,95,146.0
1057,B-2,97.0,0.5,79,146.0
1058,B-2,97.0,0.5,79,146.0
1059,F#2,97.0,1.0,95,146.0
1060,E2,97.0,1.0,95,146.0
1061,G#2,97.5,0.5,79,146.0
1062,G#2,97.5,0.5,79,146.0
1063,F#2,98.0,0.375,63,146.0
1064,F#2,98.0,0.375,63,146.0
1065,F#2,98.0,0.5,95,146.0
1066,C2,98.0,0.5,95,146.0
1067,F#2,98.5,0.375,63,146.0
1068,F#2,98.5,0.375,63,146.0
1069,C2,98.5,0.5,95,146.0
1070,B-3,99.0,1.0,79,146.0
1071,B-3,99.0,0.5,79,146.0
1072,F#3,99.0,0.5,79,146.0
1073,B-3,99.0,0.5,79,146.0
1074,F#3,99.0,0.5,79,146.0
1075,F#2,99.0,1.0,95,146.0
1076,E2,99.0,1.0,95,146.0
1077,B-3,99.5,0.5,79,146.0
1078,F#3,99.5,0.5,79,146.0
1079,B-3,99.5,0.5,79,146.0
1080,F#3,99.5,0.5,79,146.0
1081,B-3,100.0,0.5,79,146.0
1082,F#3,100.0,0.5,79,146.0
1083,B-3,100.0,0.5,79,146.0
1084,F#3,100.0,0.5,79,146.0
1085,F#2,100.0,0.5,95,146.0
1086,C2,100.0,0.5,95,146.0
1087,B3,100.5,0.5,79,146.0
1088,C2,100.5,0.5,95,146.0
1089,B3,100.5,0.5,79,146.0
1090,F#3,100.5,0.5,79,146.0
1091,B3,100.5,0.5,79,146.0
1092,F#3,100.5,0.5,79,146.0
1093,F#2,101.0,0.375,63,146.0
1094,F#2,101.0,0.375,63,146.0
1095,B-2,101.0,1.0,95,146.0
1096,E2,101.0,1.0,95,146.0
1097,F#2,101.5,0.375,63,146.0
1098,F#2,101.5,0.375,63,146.0
1099,C#4,102.0,1.0,79,146.0
1100,B-3,102.0,0.5,79,146.0
1101,F#3,102.0,0.5,79,146.0
1102,B-3,102.0,0.5,79,146.0
1103,F#3,102.0,0.5,79,146.0
1104,F#2,102.0,0.5,95,146.0
1105,C2,102.0,0.5,95,146.0
1106,C2,102.5,0.5,95,146.0
1107,B-3,102.5,0.5,79,146.0
1108,F#3,102.5,0.5,79,146.0
1109,B-3,102.5,0.5,79,146.0
1110,F#3,102.5,0.5,79,146.0
1111,B-3,103.0,0.5,79,146.0
1112,F#3,103.0,0.5,79,146.0
1113,B-3,103.0,0.5,79,146.0
1114,F#3,103.0,0.5,79,146.0
1115,F#2,103.0,1.0,95,146.0
1116,E2,103.0,1.0,95,146.0
1117,B3,103.5,1.0,79,146.0
1118,B3,103.5,0.5,79,146.0
1119,F#3,103.5,0.5,79,146.0
1120,B3,103.5,0.5,79,146.0
1121,F#3,103.5,0.5,79,146.0
1122,F#2,104.0,0.375,63,146.0
1123,F#2,104.0,0.375,63,146.0
1124,F#2,104.0,0.5,95,146.0
1125,C2,104.0,0.5,95,146.0
1126,F#2,104.5,0.375,63,146.0
1127,F#2,104.5,0.375,63,146.0
1128,B-3,104.5,0.5,79,146.0
1129,C2,104.5,0.5,95,146.0
1130,F#2,105.0,0.375,63,146.0
1131,F#2,105.0,0.375,63,146.0
1132,B-3,105.0,1.0,79,146.0
1133,F#2,105.0,1.0,95,146.0
1134,E2,105.0,1.0,95,146.0
1135,F#3,105.5,0.5,79,146.0
1136,C#3,105.5,0.5,79,146.0
1137,F#2,105.5,0.5,79,146.0
1138,F#3,105.5,0.5,79,146.0
1139,C#3,105.5,0.5,79,146.0
1140,F#2,105.5,0.5,79,146.0
1141,F#2,106.0,0.5,79,146.0
1142,F#2,106.0,0.5,79,146.0
1143,B-3,106.0,1.0,79,146.0
1144,F#2,106.0,0.5,95,146.0
1145,C2,106.0,0.5,95,146.0
1146,F#2,106.5,0.5,79,146.0
1147,F#2,106.5,0.5,79,146.0
1148,C2,106.5,0.5,95,146.0
1149,B-3,107.0,0.5,79,146.0
1150,F#3,107.0,0.5,79,146.0
1151,B-3,107.0,0.5,79,146.0
1152,F#3,107.0,0.5,79,146.0
1153,F#2,107.0,1.0,95,146.0
1154,E2,107.0,1.0,95,146.0
1155,B-3,107.5,1.0,79,146.0
1156,B-3,107.5,0.5,79,146.0
1157,F#3,107.5,0.5,79,146.0
1158,B-3,107.5,0.5,79,146.0
1159,F#3,107.5,0.5,79,146.0
1160,B-3,108.0,0.5,79,146.0
1161,F#3,108.0,0.5,79,146.0
1162,B-3,108.0,0.5,79,146.0
1163,F#3,108.0,0.5,79,146.0
1164,F#2,108.0,0.5,95,146.0
1165,C2,108.0,0.5,95,146.0
1166,C2,108.5,0.5,95,146.0
1167,B3,108.5,0.5,79,146.0
1168,F#3,108.5,0.5,79,146.0
1169,B3,108.5,0.5,79,146.0
1170,F#3,108.5,0.5,79,146.0
1171,F#2,109.0,0.375,63,146.0
1172,F#2,109.0,0.375,63,146.0
1173,B3,109.0,0.5,79,146.0
1174,F#2,109.0,1.0,95,146.0
1175,E2,109.0,1.0,95,146.0
1176,F#2,109.5,0.375,63,146.0
1177,F#2,109.5,0.375,63,146.0
1178,E-4,109.75,0.25,79,146.0
1179,E-4,110.0,1.5,79,146.0
1180,B3,110.0,0.5,79,146.0
1181,F#3,110.0,0.5,79,146.0
1182,B3,110.0,0.5,79,146.0
1183,F#3,110.0,0.5,79,146.0
1184,F#2,110.0,0.5,95,146.0
1185,C2,110.0,0.5,95,146.0
1186,C2,110.5,0.5,95,146.0
1187,B3,110.5,0.5,79,146.0
1188,F#3,110.5,0.5,79,146.0
1189,B3,110.5,0.5,79,146.0
1190,F#3,110.5,0.5,79,146.0
1191,B-3,111.0,0.5,79,146.0
1192,F#3,111.0,0.5,79,146.0
1193,B-3,111.0,0.5,79,146.0
1194,F#3,111.0,0.5,79,146.0
1195,F#2,111.0,1.0,95,146.0
1196,E2,111.0,1.0,95,146.0
1197,C#4,111.5,1.0,79,146.0
1198,C#4,111.5,0.5,79,146.0
1199,B-3,111.5,0.5,79,146.0
1200,F#3,111.5,0.5,79,146.0
1201,C#4,111.5,0.5,79,146.0
1202,B-3,111.5,0.5,79,146.0
1203,F#3,111.5,0.5,79,146.0
1204,F#2,112.0,0.375,63,146.0
1205,F#2,112.0,0.375,63,146.0
1206,F#2,112.0,0.5,95,146.0
1207,C2,112.0,0.5,95,146.0
1208,F#2,112.5,0.375,63,146.0
1209,F#2,112.5,0.375,63,146.0
1210,C2,112.5,0.5,95,146.0
1211,F#2,113.0,0.375,63,146.0
1212,F#2,113.0,0.375,63,146.0
1213,B-3,113.0,1.0,79,146.0
1214,F#2,113.0,1.0,95,146.0
1215,E2,113.0,1.0,95,146.0
1216,F#3,113.5,0.5,79,146.0
1217,C#3,113.5,0.5,79,146.0
1218,F#2,113.5,0.5,79,146.0
1219,F#3,113.5,0.5,79,146.0
1220,C#3,113.5,0.5,79,146.0
1221,F#2,113.5,0.5,79,146.0
1222,B-3,114.0,1.0,79,146.0
1223,E3,114.0,0.5,79,146.0
1224,B2,114.0,0.5,79,146.0
1225,E2,114.0,0.5,79,146.0
1226,E3,114.0,0.5,79,146.0
1227,B2,114.0,0.5,79,146.0
1228,E2,114.0,0.5,79,146.0
1229,F#2,114.0,0.5,95,146.0
1230,C2,114.0,0.5,95,146.0
1231,E2,114.5,0.375,63,146.0
1232,E2,114.5,0.375,63,146.0
1233,C2,114.5,0.5,95,146.0
1234,G#3,115.0,1.0,79,146.0
1235,E4,115.0,0.5,79,146.0
1236,B3,115.0,0.5,79,146.0
1237,E3,115.0,0.5,79,146.0
1238,E4,115.0,0.5,79,146.0
1239,B3,115.0,0.5,79,146.0
1240,E3,115.0,0.5,79,146.0
1241,F#2,115.0,1.0,95,146.0
1242,E2,115.0,1.0,95,146.0
1243,E4,115.5,0.5,79,146.0
1244,B3,115.5,0.5,79,146.0
1245,E3,115.5,0.5,79,146.0
1246,E4,115.5,0.5,79,146.0
1247,B3,115.5,0.5,79,146.0
1248,E3,115.5,0.5,79,146.0
1249,E4,116.0,0.5,79,146.0
1250,B3,116.0,0.5,79,146.0
1251,E3,116.0,0.5,79,146.0
1252,E4,116.0,0.5,79,146.0
1253,B3,116.0,0.5,79,146.0
1254,E3,116.0,0.5,79,146.0
1255,F#2,116.0,0.5,95,146.0
1256,C2,116.0,0.5,95,146.0
1257,B-3,116.5,0.5,79,146.0
1258,C2,116.5,0.5,95,146.0
1259,E4,116.5,0.5,79,146.0
1260,B-3,116.5,0.5,79,146.0
1261,E3,116.5,0.5,79,146.0
1262,E4,116.5,0.5,79,146.0
1263,B-3,116.5,0.5,79,146.0
1264,E3,116.5,0.5,79,146.0
1265,E2,117.0,0.375,63,146.0
1266,E2,117.0,0.375,63,146.0
1267,B-2,117.0,1.0,95,146.0
1268,E2,117.0,1.0,95,146.0
1269,E2,117.5,0.375,63,146.0
1270,E2,117.5,0.375,63,146.0
1271,F#4,118.0,1.5,79,146.0
1272,E4,118.0,0.5,79,146.0
1273,B3,118.0,0.5,79,146.0
1274,E3,118.0,0.5,79,146.0
1275,E4,118.0,0.5,79,146.0
1276,B3,118.0,0.5,79,146.0
1277,E3,118.0,0.5,79,146.0
1278,F#2,118.0,0.5,95,146.0
1279,C2,118.0,0.5,95,146.0
1280,C2,118.5,0.5,95,146.0
1281,E4,118.5,0.5,79,146.0
1282,B3,118.5,0.5,79,146.0
1283,E3,118.5,0.5,79,146.0
1284,E4,118.5,0.5,79,146.0
1285,B3,118.5,0.5,79,146.0
1286,E3,118.5,0.5,79,146.0
1287,E4,119.0,0.5,79,146.0
1288,B3,119.0,0.5,79,146.0
1289,E3,119.0,0.5,79,146.0
1290,E4,119.0,0.5,79,146.0
1291,B3,119.0,0.5,79,146.0
1292,E3,119.0,0.5,79,146.0
1293,F#2,119.0,1.0,95,146.0
1294,E2,119.0,1.0,95,146.0
1295,B3,119.5,1.0,79,146.0
1296,E4,119.5,0.5,79,146.0
1297,B-3,119.5,0.5,79,146.0
1298,E3,119.5,0.5,79,146.0
1299,E4,119.5,0.5,79,146.0
1300,B-3,119.5,0.5,79,146.0
1301,E3,119.5,0.5,79,146.0
1302,E2,120.0,0.375,63,146.0
1303,E2,120.0,0.375,63,146.0
1304,F#2,120.0,0.5,95,146.0
1305,C2,120.0,0.5,95,146.0
1306,E2,120.5,0.375,63,146.0
1307,E2,120.5,0.375,63,146.0
1308,C2,120.5,0.5,95,146.0
1309,B2,121.0,0.25,79,146.0
1310,B2,121.0,0.25,79,146.0
1311,B-3,121.0,1.0,79,146.0
1312,F#2,121.0,1.0,95,146.0
1313,E2,121.0,1.0,95,146.0
1314,E3,121.25,0.25,79,146.0
1315,E3,121.25,0.25,79,146.0
1316,G#4,121.5,0.5,79,146.0
1317,G#4,121.5,0.5,79,146.0
1318,E3,122.0,0.5,79,146.0
1319,E3,122.0,0.5,79,146.0
1320,F#4,122.0,4.0,79,146.0
1321,F#2,122.0,0.5,95,146.0
1322,C2,122.0,0.5,95,146.0
1323,E2,122.5,0.375,63,146.0
1324,E2,122.5,0.375,63,146.0
1325,C2,122.5,0.5,95,146.0
1326,E4,123.0,0.5,79,146.0
1327,B3,123.0,0.5,79,146.0
1328,E3,123.0,0.5,79,146.0
1329,E4,123.0,0.5,79,146.0
1330,B3,123.0,0.5,79,146.0
1331,E3,123.0,0.5,79,146.0
1332,F#2,123.0,1.0,95,146.0
1333,E2,123.0,1.0,95,146.0
1334,E4,123.5,0.5,79,146.0
1335,B3,123.5,0.5,79,146.0
1336,E3,123.5,0.5,79,146.0
1337,E4,123.5,0.5,79,146.0
1338,B3,123.5,0.5,79,146.0
1339,E3,123.5,0.5,79,146.0
1340,E4,124.0,0.5,79,146.0
1341,B3,124.0,0.5,79,146.0
1342,E3,124.0,0.5,79,146.0
1343,E4,124.0,0.5,79,146.0
1344,B3,124.0,0.5,79,146.0
1345,E3,124.0,0.5,79,146.0
1346,F#2,124.0,0.5,95,146.0
1347,C2,124.0,0.5,95,146.0
1348,C2,124.5,0.5,95,146.0
1349,E4,124.5,0.5,79,146.0
1350,B-3,124.5,0.5,79,146.0
1351,E3,124.5,0.5,79,146.0
1352,E4,124.5,0.5,79,146.0
1353,B-3,124.5,0.5,79,146.0
1354,E3,124.5,0.5,79,146.0
1355,E2,125.0,0.375,63,146.0
1356,E2,125.0,0.375,63,146.0
1357,F#2,125.0,1.0,95,146.0
1358,E2,125.0,1.0,95,146.0
1359,E4,125.5,0.5,79,146.0
1360,B3,125.5,0.5,79,146.0
1361,E3,125.5,0.5,79,146.0
1362,E4,125.5,0.5,79,146.0
1363,B3,125.5,0.5,79,146.0
1364,E3,125.5,0.5,79,146.0
1365,F#4,126.0,4.0,79,146.0
1366,E4,126.0,0.5,79,146.0
1367,B3,126.0,0.5,79,146.0
1368,E3,126.0,0.5,79,146.0
1369,E4,126.0,0.5,79,146.0
1370,B3,126.0,0.5,79,146.0
1371,E3,126.0,0.5,79,146.0
1372,F#2,126.0,0.5,95,146.0
1373,C2,126.0,0.5,95,146.0
1374,E2,126.5,0.188,63,146.0
1375,E2,126.5,0.188,63,146.0
1376,C2,126.5,0.5,95,146.0
1377,E2,126.75,0.188,63,146.0
1378,E2,126.75,0.188,63,146.0
1379,B-2,127.0,0.375,63,146.0
1380,B-2,127.0,0.375,63,146.0
1381,F#2,127.0,1.0,95,146.0
1382,E2,127.0,1.0,95,146.0
1383,B2,127.5,0.375,63,146.0
1384,B2,127.5,0.375,63,146.0
1385,E3,128.0,0.5,95,146.0
1386,E3,128.0,0.5,95,146.0
1387,F#2,128.0,0.5,95,146.0
1388,C2,128.0,0.5,95,146.0
1389,B2,128.5,0.5,79,146.0
1390,B2,128.5,0.5,79,146.0
1391,C2,128.5,0.5,95,146.0
1392,B-2,129.0,0.5,79,146.0
1393,B-2,129.0,0.5,79,146.0
1394,F#2,129.0,1.0,95,146.0
1395,E2,129.0,1.0,95,146.0
1396,G#2,129.5,0.5,79,146.0
1397,G#2,129.5,0.5,79,146.0
1398,E2,130.0,0.375,63,146.0
1399,E2,130.0,0.375,63,146.0
1400,F#2,130.0,0.5,95,146.0
1401,C2,130.0,0.5,95,146.0
1402,E2,130.5,0.375,63,146.0
1403,E2,130.5,0.375,63,146.0
1404,C2,130.5,0.5,95,146.0
1405,G#4,131.0,1.0,79,146.0
1406,E4,131.0,0.5,79,146.0
1407,B3,131.0,0.5,79,146.0
1408,E3,131.0,0.5,79,146.0
1409,E4,131.0,0.5,79,146.0
1410,B3,131.0,0.5,79,146.0
1411,E3,131.0,0.5,79,146.0
1412,F#2,131.0,1.0,95,146.0
1413,E2,131.0,1.0,95,146.0
1414,E4,131.5,0.5,79,146.0
1415,B3,131.5,0.5,79,146.0
1416,E3,131.5,0.5,79,146.0
1417,E4,131.5,0.5,79,146.0
1418,B3,131.5,0.5,79,146.0
1419,E3,131.5,0.5,79,146.0
1420,E4,132.0,0.5,79,146.0
1421,B3,132.0,0.5,79,146.0
1422,E3,132.0,0.5,79,146.0
1423,E4,132.0,0.5,79,146.0
1424,B3,132.0,0.5,79,146.0
1425,E3,132.0,0.5,79,146.0
1426,F#2,132.0,0.5,95,146.0
1427,C2,132.0,0.5,95,146.0
1428,B-4,132.5,0.5,79,146.0
1429,C2,132.5,0.5,95,146.0
1430,E4,132.5,0.5,79,146.0
1431,B-3,132.5,0.5,79,146.0
1432,E3,132.5,0.5,79,146.0
1433,E4,132.5,0.5,79,146.0
1434,B-3,132.5,0.5,79,146.0
1435,E3,132.5,0.5,79,146.0
1436,E2,133.0,0.375,63,146.0
1437,E2,133.0,0.375,63,146.0
1438,B-2,133.0,1.0,95,146.0
1439,E2,133.0,1.0,95,146.0
1440,E2,133.5,0.375,63,146.0
1441,E2,133.5,0.375,63,146.0
1442,B4,134.0,1.0,79,146.0
1443,E4,134.0,0.5,79,146.0
1444,B3,134.0,0.5,79,146.0
1445,E3,134.0,0.5,79,146.0
1446,E4,134.0,0.5,79,146.0
1447,B3,134.0,0.5,79,146.0
1448,E3,134.0,0.5,79,146.0
1449,F#2,134.0,0.5,95,146.0
1450,C2,134.0,0.5,95,146.0
1451,C2,134.5,0.5,95,146.0
1452,E4,134.5,0.5,79,146.0
1453,B3,134.5,0.5,79,146.0
1454,E3,134.5,0.5,79,146.0
1455,E4,134.5,0.5,79,146.0
1456,B3,134.5,0.5,79,146.0
1457,E3,134.5,0.5,79,146.0
1458,E4,135.0,0.5,79,146.0
1459,B3,135.0,0.5,79,146.0
1460,E3,135.0,0.5,79,146.0
1461,E4,135.0,0.5,79,146.0
1462,B3,135.0,0.5,79,146.0
1463,E3,135.0,0.5,79,146.0
1464,F#2,135.0,1.0,95,146.0
1465,E2,135.0,1.0,95,146.0
1466,B-4,135.5,1.0,79,146.0
1467,E4,135.5,0.5,79,146.0
1468,B-3,135.5,0.5,79,146.0
1469,E3,135.5,0.5,79,146.0
1470,E4,135.5,0.5,79,146.0
1471,B-3,135.5,0.5,79,146.0
1472,E3,135.5,0.5,79,146.0
1473,E2,136.0,0.375,63,146.0
1474,E2,136.0,0.375,63,146.0
1475,F#2,136.0,0.5,95,146.0
1476,C2,136.0,0.5,95,146.0
1477,E2,136.5,0.375,63,146.0
1478,E2,136.5,0.375,63,146.0
1479,G#4,136.5,0.5,79,146.0
1480,C2,136.5,0.5,95,146.0
1481,E2,137.0,0.375,63,146.0
1482,E2,137.0,0.375,63,146.0
1483,G#4,137.0,1.0,79,146.0
1484,B-2,137.0,1.0,95,146.0
1485,E2,137.0,1.0,95,146.0
1486,E4,137.5,0.5,79,146.0
1487,B3,137.5,0.5,79,146.0
1488,E3,137.5,0.5,79,146.0
1489,E4,137.5,0.5,79,146.0
1490,B3,137.5,0.5,79,146.0
1491,E3,137.5,0.5,79,146.0
1492,E2,138.0,0.375,63,146.0
1493,E2,138.0,0.375,63,146.0
1494,G#4,138.0,1.0,79,146.0
1495,F#2,138.0,0.5,95,146.0
1496,C2,138.0,0.5,95,146.0
1497,E2,138.5,0.375,63,146.0
1498,E2,138.5,0.375,63,146.0
1499,C2,138.5,0.5,95,146.0
1500,G#4,139.0,1.0,79,146.0
1501,E4,139.0,0.5,79,146.0
1502,B3,139.0,0.5,79,146.0
1503,E3,139.0,0.5,79,146.0
1504,E4,139.0,0.5,79,146.0
1505,B3,139.0,0.5,79,146.0
1506,E3,139.0,0.5,79,146.0
1507,F#2,139.0,1.0,95,146.0
1508,E2,139.0,1.0,95,146.0
1509,E4,139.5,0.5,79,146.0
1510,B3,139.5,0.5,79,146.0
1511,E3,139.5,0.5,79,146.0
1512,E4,139.5,0.5,79,146.0
1513,B3,139.5,0.5,79,146.0
1514,E3,139.5,0.5,79,146.0
1515,E4,140.0,0.5,79,146.0
1516,B3,140.0,0.5,79,146.0
1517,E3,140.0,0.5,79,146.0
1518,E4,140.0,0.5,79,146.0
1519,B3,140.0,0.5,79,146.0
1520,E3,140.0,0.5,79,146.0
1521,F#2,140.0,0.5,95,146.0
1522,C2,140.0,0.5,95,146.0
1523,B-4,140.5,0.5,79,146.0
1524,C2,140.5,0.5,95,146.0
1525,E4,140.5,0.5,79,146.0
1526,B-3,140.5,0.5,79,146.0
1527,E3,140.5,0.5,79,146.0
1528,E4,140.5,0.5,79,146.0
1529,B-3,140.5,0.5,79,146.0
1530,E3,140.5,0.5,79,146.0
1531,E2,141.0,0.375,63,146.0
1532,E2,141.0,0.375,63,146.0
1533,F#2,141.0,1.0,95,146.0
1534,E2,141.0,1.0,95,146.0
1535,E2,141.5,0.375,63,146.0
1536,E2,141.5,0.375,63,146.0
1537,C#5,141.835,33/200,79,146.0
1538,C#5,142.0,1,79,146.0
1539,C#4,142.0,0.5,79,146.0
1540,E3,142.0,0.5,79,146.0
1541,C#4,142.0,0.5,79,146.0
1542,E3,142.0,0.5,79,146.0
1543,F#2,142.0,0.5,95,146.0
1544,C2,142.0,0.5,95,146.0
1545,C2,142.5,0.5,95,146.0
1546,C#4,142.5,0.5,79,146.0
1547,E3,142.5,0.5,79,146.0
1548,C#4,142.5,0.5,79,146.0
1549,E3,142.5,0.5,79,146.0
1550,C#4,143.0,0.5,79,146.0
1551,E3,143.0,0.5,79,146.0
1552,C#4,143.0,0.5,79,146.0
1553,E3,143.0,0.5,79,146.0
1554,F#2,143.0,1.0,95,146.0
1555,E2,143.0,1.0,95,146.0
1556,B4,143.5,0.5,79,146.0
1557,E4,143.5,0.5,79,146.0
1558,B3,143.5,0.5,79,146.0
1559,E3,143.5,0.5,79,146.0
1560,E4,143.5,0.5,79,146.0
1561,B3,143.5,0.5,79,146.0
1562,E3,143.5,0.5,79,146.0
1563,E2,144.0,0.375,63,146.0
1564,E2,144.0,0.375,63,146.0
1565,B4,144.0,0.5,79,146.0
1566,F#2,144.0,0.5,95,146.0
1567,C2,144.0,0.5,95,146.0
1568,E2,144.5,0.375,63,146.0
1569,E2,144.5,0.375,63,146.0
1570,B-4,144.5,0.5,63,146.0
1571,C2,144.5,0.5,95,146.0
1572,E2,145.0,0.375,63,146.0
1573,E2,145.0,0.375,63,146.0
1574,B-4,145.0,1.0,79,146.0
1575,F#2,145.0,1.0,95,146.0
1576,E2,145.0,1.0,95,146.0
1577,E4,145.5,0.5,79,146.0
1578,B3,145.5,0.5,79,146.0
1579,E3,145.5,0.5,79,146.0
1580,E4,145.5,0.5,79,146.0
1581,B3,145.5,0.5,79,146.0
1582,E3,145.5,0.5,79,146.0
1583,E2,146.0,0.375,63,146.0
1584,E2,146.0,0.375,63,146.0
1585,B-4,146.0,1.0,79,146.0
1586,F#2,146.0,0.5,95,146.0
1587,C2,146.0,0.5,95,146.0
1588,E2,146.5,0.375,63,146.0
1589,E2,146.5,0.375,63,146.0
1590,C2,146.5,0.5,95,146.0
1591,G#4,147.0,1.0,79,146.0
1592,E4,147.0,0.5,79,146.0
1593,B3,147.0,0.5,79,146.0
1594,E3,147.0,0.5,79,146.0
1595,E4,147.0,0.5,79,146.0
1596,B3,147.0,0.5,79,146.0
1597,E3,147.0,0.5,79,146.0
1598,F#2,147.0,1.0,95,146.0
1599,E2,147.0,1.0,95,146.0
1600,E4,147.5,0.5,79,146.0
1601,B3,147.5,0.5,79,146.0
1602,E3,147.5,0.5,79,146.0
1603,E4,147.5,0.5,79,146.0
1604,B3,147.5,0.5,79,146.0
1605,E3,147.5,0.5,79,146.0
1606,E4,148.0,0.5,79,146.0
1607,B3,148.0,0.5,79,146.0
1608,E3,148.0,0.5,79,146.0
1609,E4,148.0,0.5,79,146.0
1610,B3,148.0,0.5,79,146.0
1611,E3,148.0,0.5,79,146.0
1612,F#2,148.0,0.5,95,146.0
1613,C2,148.0,0.5,95,146.0
1614,B-4,148.5,0.5,79,146.0
1615,C2,148.5,0.5,95,146.0
1616,E4,148.5,0.5,79,146.0
1617,B-3,148.5,0.5,79,146.0
1618,E3,148.5,0.5,79,146.0
1619,E4,148.5,0.5,79,146.0
1620,B-3,148.5,0.5,79,146.0
1621,E3,148.5,0.5,79,146.0
1622,E2,149.0,0.375,63,146.0
1623,E2,149.0,0.375,63,146.0
1624,F#2,149.0,1.0,95,146.0
1625,E2,149.0,1.0,95,146.0
1626,E2,149.5,0.375,63,146.0
1627,E2,149.5,0.375,63,146.0
1628,B4,149.835,33/200,79,146.0
1629,B4,150.0,1,79,146.0
1630,E4,150.0,0.5,79,146.0
1631,B3,150.0,0.5,79,146.0
1632,E3,150.0,0.5,79,146.0
1633,E4,150.0,0.5,79,146.0
1634,B3,150.0,0.5,79,146.0
1635,E3,150.0,0.5,79,146.0
1636,F#2,150.0,0.5,95,146.0
1637,C2,150.0,0.5,95,146.0
1638,C2,150.5,0.5,95,146.0
1639,E4,150.5,0.5,79,146.0
1640,B3,150.5,0.5,79,146.0
1641,E3,150.5,0.5,79,146.0
1642,E4,150.5,0.5,79,146.0
1643,B3,150.5,0.5,79,146.0
1644,E3,150.5,0.5,79,146.0
1645,E4,151.0,0.5,79,146.0
1646,B3,151.0,0.5,79,146.0
1647,E3,151.0,0.5,79,146.0
1648,E4,151.0,0.5,79,146.0
1649,B3,151.0,0.5,79,146.0
1650,E3,151.0,0.5,79,146.0
1651,F#2,151.0,1.0,95,146.0
1652,E2,151.0,1.0,95,146.0
1653,B-4,151.5,0.75,79,146.0
1654,E4,151.5,0.5,79,146.0
1655,B-3,151.5,0.5,79,146.0
1656,E3,151.5,0.5,79,146.0
1657,E4,151.5,0.5,79,146.0
1658,B-3,151.5,0.5,79,146.0
1659,E3,151.5,0.5,79,146.0
1660,E2,152.0,0.375,63,146.0
1661,E2,152.0,0.375,63,146.0
1662,F#2,152.0,0.5,95,146.0
1663,C2,152.0,0.5,95,146.0
1664,G#4,152.25,0.75,79,146.0
1665,E2,152.5,0.375,63,146.0
1666,E2,152.5,0.375,63,146.0
1667,C2,152.5,0.5,95,146.0
1668,E2,153.0,0.375,63,146.0
1669,E2,153.0,0.375,63,146.0
1670,G#4,153.0,1.0,79,146.0
1671,B-2,153.0,1.0,95,146.0
1672,E2,153.0,1.0,95,146.0
1673,E4,153.5,0.5,79,146.0
1674,B3,153.5,0.5,79,146.0
1675,E3,153.5,0.5,79,146.0
1676,E4,153.5,0.5,79,146.0
1677,B3,153.5,0.5,79,146.0
1678,E3,153.5,0.5,79,146.0
1679,E2,154.0,0.375,63,146.0
1680,E2,154.0,0.375,63,146.0
1681,G#4,154.0,4.0,79,146.0
1682,F#2,154.0,0.5,95,146.0
1683,C2,154.0,0.5,95,146.0
1684,E2,154.5,0.375,63,146.0
1685,E2,154.5,0.375,63,146.0
1686,C2,154.5,0.5,95,146.0
1687,E4,155.0,0.5,79,146.0
1688,B3,155.0,0.5,79,146.0
1689,E3,155.0,0.5,79,146.0
1690,E4,155.0,0.5,79,146.0
1691,B3,155.0,0.5,79,146.0
1692,E3,155.0,0.5,79,146.0
1693,F#2,155.0,1.0,95,146.0
1694,E2,155.0,1.0,95,146.0
1695,E4,155.5,0.5,79,146.0
1696,B3,155.5,0.5,79,146.0
1697,E3,155.5,0.5,79,146.0
1698,E4,155.5,0.5,79,146.0
1699,B3,155.5,0.5,79,146.0
1700,E3,155.5,0.5,79,146.0
1701,E4,156.0,0.5,79,146.0
1702,B3,156.0,0.5,79,146.0
1703,E3,156.0,0.5,79,146.0
1704,E4,156.0,0.5,79,146.0
1705,B3,156.0,0.5,79,146.0
1706,E3,156.0,0.5,79,146.0
1707,F#2,156.0,0.5,95,146.0
1708,C2,156.0,0.5,95,146.0
1709,C2,156.5,0.5,95,146.0
1710,E4,156.5,0.5,79,146.0
1711,B-3,156.5,0.5,79,146.0
1712,E3,156.5,0.5,79,146.0
1713,E4,156.5,0.5,79,146.0
1714,B-3,156.5,0.5,79,146.0
1715,E3,156.5,0.5,79,146.0
1716,E2,157.0,0.375,63,146.0
1717,E2,157.0,0.375,63,146.0
1718,B-2,157.0,1.0,95,146.0
1719,E2,157.0,1.0,95,146.0
1720,E4,157.5,0.5,79,146.0
1721,B3,157.5,0.5,79,146.0
1722,E3,157.5,0.5,79,146.0
1723,E4,157.5,0.5,79,146.0
1724,B3,157.5,0.5,79,146.0
1725,E3,157.5,0.5,79,146.0
1726,G#4,158.0,4.0,79,146.0
1727,E4,158.0,0.5,79,146.0
1728,B3,158.0,0.5,79,146.0
1729,E3,158.0,0.5,79,146.0
1730,E4,158.0,0.5,79,146.0
1731,B3,158.0,0.5,79,146.0
1732,E3,158.0,0.5,79,146.0
1733,F#2,158.0,0.5,95,146.0
1734,C2,158.0,0.5,95,146.0
1735,E2,158.5,0.188,63,146.0
1736,E2,158.5,0.188,63,146.0
1737,C2,158.5,0.5,95,146.0
1738,E2,158.75,0.188,63,146.0
1739,E2,158.75,0.188,63,146.0
1740,B-2,159.0,0.375,63,146.0
1741,B-2,159.0,0.375,63,146.0
1742,F#2,159.0,1.0,95,146.0
1743,E2,159.0,1.0,95,146.0
1744,B2,159.5,0.375,63,146.0
1745,B2,159.5,0.375,63,146.0
1746,E3,160.0,0.5,95,146.0
1747,E3,160.0,0.5,95,146.0
1748,F#2,160.0,0.5,95,146.0
1749,C2,160.0,0.5,95,146.0
1750,B2,160.5,0.5,79,146.0
1751,B2,160.5,0.5,79,146.0
1752,C2,160.5,0.5,95,146.0
1753,B-2,161.0,0.5,79,146.0
1754,B-2,161.0,0.5,79,146.0
1755,F#2,161.0,1.0,95,146.0
1756,E2,161.0,1.0,95,146.0
1757,G#2,161.5,0.5,79,146.0
1758,G#2,161.5,0.5,79,146.0
1759,E2,162.0,0.375,63,146.0
1760,E2,162.0,0.375,63,146.0
1761,F#2,162.0,0.5,95,146.0
1762,C2,162.0,0.5,95,146.0
1763,E2,162.5,0.375,63,146.0
1764,E2,162.5,0.375,63,146.0
1765,C2,162.5,0.5,95,146.0
1766,G#4,163.0,1.0,79,146.0
1767,E4,163.0,0.5,79,146.0
1768,B3,163.0,0.5,79,146.0
1769,E3,163.0,0.5,79,146.0
1770,E4,163.0,0.5,79,146.0
1771,B3,163.0,0.5,79,146.0
1772,E3,163.0,0.5,79,146.0
1773,F#2,163.0,1.0,95,146.0
1774,E2,163.0,1.0,95,146.0
1775,E4,163.5,0.5,79,146.0
1776,B3,163.5,0.5,79,146.0
1777,E3,163.5,0.5,79,146.0
1778,E4,163.5,0.5,79,146.0
1779,B3,163.5,0.5,79,146.0
1780,E3,163.5,0.5,79,146.0
1781,E4,164.0,0.5,79,146.0
1782,B3,164.0,0.5,79,146.0
1783,E3,164.0,0.5,79,146.0
1784,E4,164.0,0.5,79,146.0
1785,B3,164.0,0.5,79,146.0
1786,E3,164.0,0.5,79,146.0
1787,F#2,164.0,0.5,95,146.0
1788,C2,164.0,0.5,95,146.0
1789,B-4,164.5,0.5,79,146.0
1790,C2,164.5,0.5,95,146.0
1791,E4,164.5,0.5,79,146.0
1792,B-3,164.5,0.5,79,146.0
1793,E3,164.5,0.5,79,146.0
1794,E4,164.5,0.5,79,146.0
1795,B-3,164.5,0.5,79,146.0
1796,E3,164.5,0.5,79,146.0
1797,E2,165.0,0.375,63,146.0
1798,E2,165.0,0.375,63,146.0
1799,B-2,165.0,1.0,95,146.0
1800,E2,165.0,1.0,95,146.0
1801,E2,165.5,0.375,63,146.0
1802,E2,165.5,0.375,63,146.0
1803,B4,166.0,1.0,79,146.0
1804,E4,166.0,0.5,79,146.0
1805,B3,166.0,0.5,79,146.0
1806,E3,166.0,0.5,79,146.0
1807,E4,166.0,0.5,79,146.0
1808,B3,166.0,0.5,79,146.0
1809,E3,166.0,0.5,79,146.0
1810,F#2,166.0,0.5,95,146.0
1811,C2,166.0,0.5,95,146.0
1812,C2,166.5,0.5,95,146.0
1813,E4,166.5,0.5,79,146.0
1814,B3,166.5,0.5,79,146.0
1815,E3,166.5,0.5,79,146.0
1816,E4,166.5,0.5,79,146.0
1817,B3,166.5,0.5,79,146.0
1818,E3,166.5,0.5,79,146.0
1819,E4,167.0,0.5,79,146.0
1820,B3,167.0,0.5,79,146.0
1821,E3,167.0,0.5,79,146.0
1822,E4,167.0,0.5,79,146.0
1823,B3,167.0,0.5,79,146.0
1824,E3,167.0,0.5,79,146.0
1825,F#2,167.0,1.0,95,146.0
1826,E2,167.0,1.0,95,146.0
1827,B-4,167.5,1.0,79,146.0
1828,E4,167.5,0.5,79,146.0
1829,B-3,167.5,0.5,79,146.0
1830,E3,167.5,0.5,79,146.0
1831,E4,167.5,0.5,79,146.0
1832,B-3,167.5,0.5,79,146.0
1833,E3,167.5,0.5,79,146.0
1834,E2,168.0,0.375,63,146.0
1835,E2,168.0,0.375,63,146.0
1836,F#2,168.0,0.5,95,146.0
1837,C2,168.0,0.5,95,146.0
1838,E2,168.5,0.375,63,146.0
1839,E2,168.5,0.375,63,146.0
1840,G#4,168.5,0.5,79,146.0
1841,C2,168.5,0.5,95,146.0
1842,E2,169.0,0.375,63,146.0
1843,E2,169.0,0.375,63,146.0
1844,G#4,169.0,1.0,79,146.0
1845,B-2,169.0,1.0,95,146.0
1846,E2,169.0,1.0,95,146.0
1847,E4,169.5,0.5,79,146.0
1848,B3,169.5,0.5,79,146.0
1849,E3,169.5,0.5,79,146.0
1850,E4,169.5,0.5,79,146.0
1851,B3,169.5,0.5,79,146.0
1852,E3,169.5,0.5,79,146.0
1853,E2,170.0,0.375,63,146.0
1854,E2,170.0,0.375,63,146.0
1855,G#4,170.0,1.0,79,146.0
1856,F#2,170.0,0.5,95,146.0
1857,C2,170.0,0.5,95,146.0
1858,E2,170.5,0.375,63,146.0
1859,E2,170.5,0.375,63,146.0
1860,C2,170.5,0.5,95,146.0
1861,G#4,171.0,1.0,79,146.0
1862,E4,171.0,0.5,79,146.0
1863,B3,171.0,0.5,79,146.0
1864,E3,171.0,0.5,79,146.0
1865,E4,171.0,0.5,79,146.0
1866,B3,171.0,0.5,79,146.0
1867,E3,171.0,0.5,79,146.0
1868,F#2,171.0,1.0,95,146.0
1869,E2,171.0,1.0,95,146.0
1870,E4,171.5,0.5,79,146.0
1871,B3,171.5,0.5,79,146.0
1872,E3,171.5,0.5,79,146.0
1873,E4,171.5,0.5,79,146.0
1874,B3,171.5,0.5,79,146.0
1875,E3,171.5,0.5,79,146.0
1876,E4,172.0,0.5,79,146.0
1877,B3,172.0,0.5,79,146.0
1878,E3,172.0,0.5,79,146.0
1879,E4,172.0,0.5,79,146.0
1880,B3,172.0,0.5,79,146.0
1881,E3,172.0,0.5,79,146.0
1882,F#2,172.0,0.5,95,146.0
1883,C2,172.0,0.5,95,146.0
1884,B-4,172.5,0.5,79,146.0
1885,C2,172.5,0.5,95,146.0
1886,E4,172.5,0.5,79,146.0
1887,B-3,172.5,0.5,79,146.0
1888,E3,172.5,0.5,79,146.0
1889,E4,172.5,0.5,79,146.0
1890,B-3,172.5,0.5,79,146.0
1891,E3,172.5,0.5,79,146.0
1892,E2,173.0,0.375,63,146.0
1893,E2,173.0,0.375,63,146.0
1894,F#2,173.0,1.0,95,146.0
1895,E2,173.0,1.0,95,146.0
1896,E2,173.5,0.375,63,146.0
1897,E2,173.5,0.375,63,146.0
1898,C#5,173.835,33/200,79,146.0
1899,C#5,174.0,1,79,146.0
1900,C#4,174.0,0.5,79,146.0
1901,E3,174.0,0.5,79,146.0
1902,C#4,174.0,0.5,79,146.0
1903,E3,174.0,0.5,79,146.0
1904,F#2,174.0,0.5,95,146.0
1905,C2,174.0,0.5,95,146.0
1906,C2,174.5,0.5,95,146.0
1907,C#4,174.5,0.5,79,146.0
1908,E3,174.5,0.5,79,146.0
1909,C#4,174.5,0.5,79,146.0
1910,E3,174.5,0.5,79,146.0
1911,C#4,175.0,0.5,79,146.0
1912,E3,175.0,0.5,79,146.0
1913,C#4,175.0,0.5,79,146.0
1914,E3,175.0,0.5,79,146.0
1915,F#2,175.0,1.0,95,146.0
1916,E2,175.0,1.0,95,146.0
1917,B4,175.5,0.5,79,146.0
1918,E4,175.5,0.5,79,146.0
1919,B3,175.5,0.5,79,146.0
1920,E3,175.5,0.5,79,146.0
1921,E4,175.5,0.5,79,146.0
1922,B3,175.5,0.5,79,146.0
1923,E3,175.5,0.5,79,146.0
1924,E2,176.0,0.375,63,146.0
1925,E2,176.0,0.375,63,146.0
1926,B4,176.0,0.5,79,146.0
1927,F#2,176.0,0.5,95,146.0
1928,C2,176.0,0.5,95,146.0
1929,E2,176.5,0.375,63,146.0
1930,E2,176.5,0.375,63,146.0
1931,B-4,176.5,0.5,63,146.0
1932,C2,176.5,0.5,95,146.0
1933,E2,177.0,0.375,63,146.0
1934,E2,177.0,0.375,63,146.0
1935,B-4,177.0,1.0,79,146.0
1936,F#2,177.0,1.0,95,146.0
1937,E2,177.0,1.0,95,146.0
1938,E4,177.5,0.5,79,146.0
1939,B3,177.5,0.5,79,146.0
1940,E3,177.5,0.5,79,146.0
1941,E4,177.5,0.5,79,146.0
1942,B3,177.5,0.5,79,146.0
1943,E3,177.5,0.5,79,146.0
1944,E2,178.0,0.375,63,146.0
1945,E2,178.0,0.375,63,146.0
1946,B-4,178.0,1.0,79,146.0
1947,F#2,178.0,0.5,95,146.0
1948,C2,178.0,0.5,95,146.0
1949,E2,178.5,0.375,63,146.0
1950,E2,178.5,0.375,63,146.0
1951,C2,178.5,0.5,95,146.0
1952,G#4,179.0,1.0,79,146.0
1953,E4,179.0,0.5,79,146.0
1954,B3,179.0,0.5,79,146.0
1955,E3,179.0,0.5,79,146.0
1956,E4,179.0,0.5,79,146.0
1957,B3,179.0,0.5,79,146.0
1958,E3,179.0,0.5,79,146.0
1959,F#2,179.0,1.0,95,146.0
1960,E2,179.0,1.0,95,146.0
1961,E4,179.5,0.5,79,146.0
1962,B3,179.5,0.5,79,146.0
1963,E3,179.5,0.5,79,146.0
1964,E4,179.5,0.5,79,146.0
1965,B3,179.5,0.5,79,146.0
1966,E3,179.5,0.5,79,146.0
1967,E4,180.0,0.5,79,146.0
1968,B3,180.0,0.5,79,146.0
1969,E3,180.0,0.5,79,146.0
1970,E4,180.0,0.5,79,146.0
1971,B3,180.0,0.5,79,146.0
1972,E3,180.0,0.5,79,146.0
1973,F#2,180.0,0.5,95,146.0
1974,C2,180.0,0.5,95,146.0
1975,B-4,180.5,0.5,79,146.0
1976,C2,180.5,0.5,95,146.0
1977,E4,180.5,0.5,79,146.0
1978,B-3,180.5,0.5,79,146.0
1979,E3,180.5,0.5,79,146.0
1980,E4,180.5,0.5,79,146.0
1981,B-3,180.5,0.5,79,146.0
1982,E3,180.5,0.5,79,146.0
1983,E2,181.0,0.375,63,146.0
1984,E2,181.0,0.375,63,146.0
1985,F#2,181.0,1.0,95,146.0
1986,E2,181.0,1.0,95,146.0
1987,E2,181.5,0.375,63,146.0
1988,E2,181.5,0.375,63,146.0
1989,B4,181.835,33/200,79,146.0
1990,B4,182.0,1,79,146.0
1991,E4,182.0,0.5,79,146.0
1992,B3,182.0,0.5,79,146.0
1993,E3,182.0,0.5,79,146.0
1994,E4,182.0,0.5,79,146.0
1995,B3,182.0,0.5,79,146.0
1996,E3,182.0,0.5,79,146.0
1997,F#2,182.0,0.5,95,146.0
1998,C2,182.0,0.5,95,146.0
1999,C2,182.5,0.5,95,146.0
2000,E4,182.5,0.5,79,146.0
2001,B3,182.5,0.5,79,146.0
2002,E3,182.5,0.5,79,146.0
2003,E4,182.5,0.5,79,146.0
2004,B3,182.5,0.5,79,146.0
2005,E3,182.5,0.5,79,146.0
2006,E4,183.0,0.5,79,146.0
2007,B3,183.0,0.5,79,146.0
2008,E3,183.0,0.5,79,146.0
2009,E4,183.0,0.5,79,146.0
2010,B3,183.0,0.5,79,146.0
2011,E3,183.0,0.5,79,146.0
2012,F#2,183.0,1.0,95,146.0
2013,E2,183.0,1.0,95,146.0
2014,B-4,183.5,0.75,79,146.0
2015,E4,183.5,0.5,79,146.0
2016,B-3,183.5,0.5,79,146.0
2017,E3,183.5,0.5,79,146.0
2018,E4,183.5,0.5,79,146.0
2019,B-3,183.5,0.5,79,146.0
2020,E3,183.5,0.5,79,146.0
2021,E2,184.0,0.375,63,146.0
2022,E2,184.0,0.375,63,146.0
2023,F#2,184.0,0.5,95,146.0
2024,C2,184.0,0.5,95,146.0
2025,G#4,184.25,0.75,79,146.0
2026,E2,184.5,0.375,63,146.0
2027,E2,184.5,0.375,63,146.0
2028,C2,184.5,0.5,95,146.0
2029,E2,185.0,0.375,63,146.0
2030,E2,185.0,0.375,63,146.0
2031,G#4,185.0,1.0,79,146.0
2032,B-2,185.0,1.0,95,146.0
2033,E2,185.0,1.0,95,146.0
2034,E4,185.5,0.5,79,146.0
2035,B3,185.5,0.5,79,146.0
2036,E3,185.5,0.5,79,146.0
2037,E4,185.5,0.5,79,146.0
2038,B3,185.5,0.5,79,146.0
2039,E3,185.5,0.5,79,146.0
2040,E2,186.0,0.375,63,146.0
2041,E2,186.0,0.375,63,146.0
2042,G#4,186.0,4.0,79,146.0
2043,F#2,186.0,0.5,95,146.0
2044,C2,186.0,0.5,95,146.0
2045,E2,186.5,0.375,63,146.0
2046,E2,186.5,0.375,63,146.0
2047,C2,186.5,0.5,95,146.0
2048,E4,187.0,0.5,79,146.0
2049,B3,187.0,0.5,79,146.0
2050,E3,187.0,0.5,79,146.0
2051,E4,187.0,0.5,79,146.0
2052,B3,187.0,0.5,79,146.0
2053,E3,187.0,0.5,79,146.0
2054,F#2,187.0,1.0,95,146.0
2055,E2,187.0,1.0,95,146.0
2056,E4,187.5,0.5,79,146.0
2057,B3,187.5,0.5,79,146.0
2058,E3,187.5,0.5,79,146.0
2059,E4,187.5,0.5,79,146.0
2060,B3,187.5,0.5,79,146.0
2061,E3,187.5,0.5,79,146.0
2062,E4,188.0,0.5,79,146.0
2063,B3,188.0,0.5,79,146.0
2064,E3,188.0,0.5,79,146.0
2065,E4,188.0,0.5,79,146.0
2066,B3,188.0,0.5,79,146.0
2067,E3,188.0,0.5,79,146.0
2068,F#2,188.0,0.5,95,146.0
2069,C2,188.0,0.5,95,146.0
2070,C2,188.5,0.5,95,146.0
2071,E4,188.5,0.5,79,146.0
2072,B-3,188.5,0.5,79,146.0
2073,E3,188.5,0.5,79,146.0
2074,E4,188.5,0.5,79,146.0
2075,B-3,188.5,0.5,79,146.0
2076,E3,188.5,0.5,79,146.0
2077,E2,189.0,0.375,63,146.0
2078,E2,189.0,0.375,63,146.0
2079,B-2,189.0,1.0,95,146.0
2080,E2,189.0,1.0,95,146.0
2081,E4,189.5,0.5,79,146.0
2082,B3,189.5,0.5,79,146.0
2083,E3,189.5,0.5,79,146.0
2084,E4,189.5,0.5,79,146.0
2085,B3,189.5,0.5,79,146.0
2086,E3,189.5,0.5,79,146.0
2087,G#4,190.0,4.0,79,146.0
2088,E4,190.0,0.5,79,146.0
2089,B3,190.0,0.5,79,146.0
2090,E3,190.0,0.5,79,146.0
2091,E4,190.0,0.5,79,146.0
2092,B3,190.0,0.5,79,146.0
2093,E3,190.0,0.5,79,146.0
2094,F#2,190.0,0.5,95,146.0
2095,C2,190.0,0.5,95,146.0
2096,E2,190.5,0.188,63,146.0
2097,E2,190.5,0.188,63,146.0
2098,C2,190.5,0.5,95,146.0
2099,E2,190.75,0.188,63,146.0
2100,E2,190.75,0.188,63,146.0
2101,B-2,191.0,0.375,63,146.0
2102,B-2,191.0,0.375,63,146.0
2103,F#2,191.0,1.0,95,146.0
2104,E2,191.0,1.0,95,146.0
2105,B2,191.5,0.375,63,146.0
2106,B2,191.5,0.375,63,146.0
2107,E3,192.0,0.5,95,146.0
2108,E3,192.0,0.5,95,146.0
2109,F#2,192.0,0.5,95,146.0
2110,C2,192.0,0.5,95,146.0
2111,B2,192.5,0.5,79,146.0
2112,B2,192.5,0.5,79,146.0
2113,C2,192.5,0.5,95,146.0
2114,B-2,193.0,0.5,79,146.0
2115,B-2,193.0,0.5,79,146.0
2116,F#2,193.0,1.0,95,146.0
2117,E2,193.0,1.0,95,146.0
2118,G#2,193.5,0.5,79,146.0
2119,G#2,193.5,0.5,79,146.0
2120,F#2,194.0,0.375,63,146.0
2121,F#2,194.0,0.375,63,146.0
2122,F#2,194.0,0.5,95,146.0
2123,C2,194.0,0.5,95,146.0
2124,F#2,194.5,0.375,63,146.0
2125,F#2,194.5,0.375,63,146.0
2126,C2,194.5,0.5,95,146.0
2127,B-4,195.0,1.0,79,146.0
2128,B-3,195.0,0.5,79,146.0
2129,F#3,195.0,0.5,79,146.0
2130,B-3,195.0,0.5,79,146.0
2131,F#3,195.0,0.5,79,146.0
2132,F#2,195.0,1.0,95,146.0
2133,E2,195.0,1.0,95,146.0
2134,B-3,195.5,0.5,79,146.0
2135,F#3,195.5,0.5,79,146.0
2136,B-3,195.5,0.5,79,146.0
2137,F#3,195.5,0.5,79,146.0
2138,B-3,196.0,0.5,79,146.0
2139,F#3,196.0,0.5,79,146.0
2140,B-3,196.0,0.5,79,146.0
2141,F#3,196.0,0.5,79,146.0
2142,F#2,196.0,0.5,95,146.0
2143,C2,196.0,0.5,95,146.0
2144,B4,196.5,0.5,79,146.0
2145,C2,196.5,0.5,95,146.0
2146,B3,196.5,0.5,79,146.0
2147,F#3,196.5,0.5,79,146.0
2148,B3,196.5,0.5,79,146.0
2149,F#3,196.5,0.5,79,146.0
2150,F#2,197.0,0.375,63,146.0
2151,F#2,197.0,0.375,63,146.0
2152,F#2,197.0,1.0,95,146.0
2153,E2,197.0,1.0,95,146.0
2154,F#2,197.5,0.375,63,146.0
2155,F#2,197.5,0.375,63,146.0
2156,C#5,198.0,1.0,79,146.0
2157,B-3,198.0,0.5,79,146.0
2158,F#3,198.0,0.5,79,146.0
2159,B-3,198.0,0.5,79,146.0
2160,F#3,198.0,0.5,79,146.0
2161,F#2,198.0,0.5,95,146.0
2162,C2,198.0,0.5,95,146.0
2163,C2,198.5,0.5,95,146.0
2164,B-3,198.5,0.5,79,146.0
2165,F#3,198.5,0.5,79,146.0
2166,B-3,198.5,0.5,79,146.0
2167,F#3,198.5,0.5,79,146.0
2168,B-3,199.0,0.5,79,146.0
2169,F#3,199.0,0.5,79,146.0
2170,B-3,199.0,0.5,79,146.0
2171,F#3,199.0,0.5,79,146.0
2172,F#2,199.0,1.0,95,146.0
2173,E2,199.0,1.0,95,146.0
2174,B4,199.5,1.0,79,146.0
2175,B3,199.5,0.5,79,146.0
2176,F#3,199.5,0.5,79,146.0
2177,B3,199.5,0.5,79,146.0
2178,F#3,199.5,0.5,79,146.0
2179,F#2,200.0,0.375,63,146.0
2180,F#2,200.0,0.375,63,146.0
2181,F#2,200.0,0.5,95,146.0
2182,C2,200.0,0.5,95,146.0
2183,F#2,200.5,0.375,63,146.0
2184,F#2,200.5,0.375,63,146.0
2185,C2,200.5,0.5,95,146.0
2186,F#2,201.0,0.375,63,146.0
2187,F#2,201.0,0.375,63,146.0
2188,B-4,201.0,1.0,79,146.0
2189,F#2,201.0,1.0,95,146.0
2190,E2,201.0,1.0,95,146.0
2191,F#3,201.5,0.5,79,146.0
2192,C#3,201.5,0.5,79,146.0
2193,F#2,201.5,0.5,79,146.0
2194,F#3,201.5,0.5,79,146.0
2195,C#3,201.5,0.5,79,146.0
2196,F#2,201.5,0.5,79,146.0
2197,F#2,202.0,0.5,79,146.0
2198,F#2,202.0,0.5,79,146.0
2199,B-4,202.0,1.0,79,146.0
2200,F#2,202.0,0.5,95,146.0
2201,C2,202.0,0.5,95,146.0
2202,F#2,202.5,0.5,79,146.0
2203,F#2,202.5,0.5,79,146.0
2204,C2,202.5,0.5,95,146.0
2205,B-3,203.0,0.5,79,146.0
2206,F#3,203.0,0.5,79,146.0
2207,B-3,203.0,0.5,79,146.0
2208,F#3,203.0,0.5,79,146.0
2209,F#2,203.0,1.0,95,146.0
2210,E2,203.0,1.0,95,146.0
2211,B-4,203.5,1.0,79,146.0
2212,B-3,203.5,0.5,79,146.0
2213,F#3,203.5,0.5,79,146.0
2214,B-3,203.5,0.5,79,146.0
2215,F#3,203.5,0.5,79,146.0
2216,B-3,204.0,0.5,79,146.0
2217,F#3,204.0,0.5,79,146.0
2218,B-3,204.0,0.5,79,146.0
2219,F#3,204.0,0.5,79,146.0
2220,F#2,204.0,0.5,95,146.0
2221,C2,204.0,0.5,95,146.0
2222,C2,204.5,0.5,95,146.0
2223,B3,204.5,0.5,79,146.0
2224,F#3,204.5,0.5,79,146.0
2225,B3,204.5,0.5,79,146.0
2226,F#3,204.5,0.5,79,146.0
2227,F#2,205.0,0.375,63,146.0
2228,F#2,205.0,0.375,63,146.0
2229,B4,205.0,0.5,79,146.0
2230,B-2,205.0,1.0,95,146.0
2231,E2,205.0,1.0,95,146.0
2232,F#2,205.5,0.375,63,146.0
2233,F#2,205.5,0.375,63,146.0
2234,E-5,205.75,0.25,79,146.0
2235,E-5,206.0,1.0,79,146.0
2236,B3,206.0,0.5,79,146.0
2237,F#3,206.0,0.5,79,146.0
2238,B3,206.0,0.5,79,146.0
2239,F#3,206.0,0.5,79,146.0
2240,F#2,206.0,0.5,95,146.0
2241,C2,206.0,0.5,95,146.0
2242,C2,206.5,0.5,95,146.0
2243,B3,206.5,0.5,79,146.0
2244,F#3,206.5,0.5,79,146.0
2245,B3,206.5,0.5,79,146.0
2246,F#3,206.5,0.5,79,146.0
2247,B-3,207.0,0.5,79,146.0
2248,F#3,207.0,0.5,79,146.0
2249,B-3,207.0,0.5,79,146.0
2250,F#3,207.0,0.5,79,146.0
2251,F#2,207.0,1.0,95,146.0
2252,E2,207.0,1.0,95,146.0
2253,C#5,207.5,1.0,79,146.0
2254,C#4,207.5,0.5,79,146.0
2255,B-3,207.5,0.5,79,146.0
2256,F#3,207.5,0.5,79,146.0
2257,C#4,207.5,0.5,79,146.0
2258,B-3,207.5,0.5,79,146.0
2259,F#3,207.5,0.5,79,146.0
2260,F#2,208.0,0.375,63,146.0
2261,F#2,208.0,0.375,63,146.0
2262,F#2,208.0,0.5,95,146.0
2263,C2,208.0,0.5,95,146.0
2264,F#2,208.5,0.375,63,146.0
2265,F#2,208.5,0.375,63,146.0
2266,C2,208.5,0.5,95,146.0
2267,F#2,209.0,0.375,63,146.0
2268,F#2,209.0,0.375,63,146.0
2269,B-4,209.0,1.0,79,146.0
2270,F#2,209.0,1.0,95,146.0
2271,E2,209.0,1.0,95,146.0
2272,F#3,209.5,0.5,79,146.0
2273,C#3,209.5,0.5,79,146.0
2274,F#2,209.5,0.5,79,146.0
2275,F#3,209.5,0.5,79,146.0
2276,C#3,209.5,0.5,79,146.0
2277,F#2,209.5,0.5,79,146.0
2278,E2,210.0,0.375,63,146.0
2279,E2,210.0,0.375,63,146.0
2280,B-4,210.0,1.0,79,146.0
2281,F#2,210.0,0.5,95,146.0
2282,C2,210.0,0.5,95,146.0
2283,E2,210.5,0.375,63,146.0
2284,E2,210.5,0.375,63,146.0
2285,C2,210.5,0.5,95,146.0
2286,G#4,211.0,1.0,79,146.0
2287,E4,211.0,0.5,79,146.0
2288,B3,211.0,0.5,79,146.0
2289,E3,211.0,0.5,79,146.0
2290,E4,211.0,0.5,79,146.0
2291,B3,211.0,0.5,79,146.0
2292,E3,211.0,0.5,79,146.0
2293,F#2,211.0,1.0,95,146.0
2294,E2,211.0,1.0,95,146.0
2295,E4,211.5,0.5,79,146.0
2296,B3,211.5,0.5,79,146.0
2297,E3,211.5,0.5,79,146.0
2298,E4,211.5,0.5,79,146.0
2299,B3,211.5,0.5,79,146.0
2300,E3,211.5,0.5,79,146.0
2301,E4,212.0,0.5,79,146.0
2302,B3,212.0,0.5,79,146.0
2303,E3,212.0,0.5,79,146.0
2304,E4,212.0,0.5,79,146.0
2305,B3,212.0,0.5,79,146.0
2306,E3,212.0,0.5,79,146.0
2307,F#2,212.0,0.5,95,146.0
2308,C2,212.0,0.5,95,146.0
2309,B-4,212.5,0.5,79,146.0
2310,C2,212.5,0.5,95,146.0
2311,E4,212.5,0.5,79,146.0
2312,B-3,212.5,0.5,79,146.0
2313,E3,212.5,0.5,79,146.0
2314,E4,212.5,0.5,79,146.0
2315,B-3,212.5,0.5,79,146.0
2316,E3,212.5,0.5,79,146.0
2317,E2,213.0,0.375,63,146.0
2318,E2,213.0,0.375,63,146.0
2319,F#2,213.0,1.0,95,146.0
2320,E2,213.0,1.0,95,146.0
2321,E2,213.5,0.375,63,146.0
2322,E2,213.5,0.375,63,146.0
2323,F#5,214.0,1.0,79,146.0
2324,E4,214.0,0.5,79,146.0
2325,B3,214.0,0.5,79,146.0
2326,E3,214.0,0.5,79,146.0
2327,E4,214.0,0.5,79,146.0
2328,B3,214.0,0.5,79,146.0
2329,E3,214.0,0.5,79,146.0
2330,F#2,214.0,0.5,95,146.0
2331,C2,214.0,0.5,95,146.0
2332,C2,214.5,0.5,95,146.0
2333,E4,214.5,0.5,79,146.0
2334,B3,214.5,0.5,79,146.0
2335,E3,214.5,0.5,79,146.0
2336,E4,214.5,0.5,79,146.0
2337,B3,214.5,0.5,79,146.0
2338,E3,214.5,0.5,79,146.0
2339,E4,215.0,0.5,79,146.0
2340,B3,215.0,0.5,79,146.0
2341,E3,215.0,0.5,79,146.0
2342,E4,215.0,0.5,79,146.0
2343,B3,215.0,0.5,79,146.0
2344,E3,215.0,0.5,79,146.0
2345,F#2,215.0,1.0,95,146.0
2346,E2,215.0,1.0,95,146.0
2347,B4,215.5,1.0,79,146.0
2348,E4,215.5,0.5,79,146.0
2349,B-3,215.5,0.5,79,146.0
2350,E3,215.5,0.5,79,146.0
2351,E4,215.5,0.5,79,146.0
2352,B-3,215.5,0.5,79,146.0
2353,E3,215.5,0.5,79,146.0
2354,E2,216.0,0.375,63,146.0
2355,E2,216.0,0.375,63,146.0
2356,F#2,216.0,0.5,95,146.0
2357,C2,216.0,0.5,95,146.0
2358,E2,216.5,0.375,63,146.0
2359,E2,216.5,0.375,63,146.0
2360,C2,216.5,0.5,95,146.0
2361,B2,217.0,0.25,79,146.0
2362,B2,217.0,0.25,79,146.0
2363,B-4,217.0,1.0,79,146.0
2364,B-2,217.0,1.0,95,146.0
2365,E2,217.0,1.0,95,146.0
2366,E3,217.25,0.25,79,146.0
2367,E3,217.25,0.25,79,146.0
2368,G#4,217.5,0.5,79,146.0
2369,G#4,217.5,0.5,79,146.0
2370,E3,218.0,0.5,79,146.0
2371,E3,218.0,0.5,79,146.0
2372,F#5,218.0,4.0,79,146.0
2373,F#2,218.0,0.5,95,146.0
2374,C2,218.0,0.5,95,146.0
2375,E2,218.5,0.375,63,146.0
2376,E2,218.5,0.375,63,146.0
2377,C2,218.5,0.5,95,146.0
2378,E4,219.0,0.5,79,146.0
2379,B3,219.0,0.5,79,146.0
2380,E3,219.0,0.5,79,146.0
2381,E4,219.0,0.5,79,146.0
2382,B3,219.0,0.5,79,146.0
2383,E3,219.0,0.5,79,146.0
2384,F#2,219.0,1.0,95,146.0
2385,E2,219.0,1.0,95,146.0
2386,E4,219.5,0.5,79,146.0
2387,B3,219.5,0.5,79,146.0
2388,E3,219.5,0.5,79,146.0
2389,E4,219.5,0.5,79,146.0
2390,B3,219.5,0.5,79,146.0
2391,E3,219.5,0.5,79,146.0
2392,E4,220.0,0.5,79,146.0
2393,B3,220.0,0.5,79,146.0
2394,E3,220.0,0.5,79,146.0
2395,E4,220.0,0.5,79,146.0
2396,B3,220.0,0.5,79,146.0
2397,E3,220.0,0.5,79,146.0
2398,F#2,220.0,0.5,95,146.0
2399,C2,220.0,0.5,95,146.0
2400,C2,220.5,0.5,95,146.0
2401,E4,220.5,0.5,79,146.0
2402,B-3,220.5,0.5,79,146.0
2403,E3,220.5,0.5,79,146.0
2404,E4,220.5,0.5,79,146.0
2405,B-3,220.5,0.5,79,146.0
2406,E3,220.5,0.5,79,146.0
2407,E2,221.0,0.375,63,146.0
2408,E2,221.0,0.375,63,146.0
2409,F#2,221.0,1.0,95,146.0
2410,E2,221.0,1.0,95,146.0
2411,E4,221.5,0.5,79,146.0
2412,B3,221.5,0.5,79,146.0
2413,E3,221.5,0.5,79,146.0
2414,E4,221.5,0.5,79,146.0
2415,B3,221.5,0.5,79,146.0
2416,E3,221.5,0.5,79,146.0
2417,F#5,222.0,4.0,79,146.0
2418,E4,222.0,0.5,79,146.0
2419,B3,222.0,0.5,79,146.0
2420,E3,222.0,0.5,79,146.0
2421,E4,222.0,0.5,79,146.0
2422,B3,222.0,0.5,79,146.0
2423,E3,222.0,0.5,79,146.0
2424,F#2,222.0,0.5,95,146.0
2425,C2,222.0,0.5,95,146.0
2426,E2,222.5,0.188,63,146.0
2427,E2,222.5,0.188,63,146.0
2428,C2,222.5,0.5,95,146.0
2429,E2,222.75,0.188,63,146.0
2430,E2,222.75,0.188,63,146.0
2431,B-2,223.0,0.375,63,146.0
2432,B-2,223.0,0.375,63,146.0
2433,F#2,223.0,1.0,95,146.0
2434,E2,223.0,1.0,95,146.0
2435,B2,223.5,0.375,63,146.0
2436,B2,223.5,0.375,63,146.0
2437,E3,224.0,0.5,95,146.0
2438,E3,224.0,0.5,95,146.0
2439,F#2,224.0,0.5,95,146.0
2440,C2,224.0,0.5,95,146.0
2441,B2,224.5,0.5,79,146.0
2442,B2,224.5,0.5,79,146.0
2443,C2,224.5,0.5,95,146.0
2444,B-2,225.0,0.5,79,146.0
2445,B-2,225.0,0.5,79,146.0
2446,F#2,225.0,1.0,95,146.0
2447,E2,225.0,1.0,95,146.0
2448,G#2,225.5,0.5,79,146.0
2449,G#2,225.5,0.5,79,146.0
2450,E2,226.0,0.375,102,146.0
2451,E2,226.0,0.375,102,146.0
2452,B5,226.0,0.25,127,146.0
2453,F#2,226.0,0.25,95,146.0
2454,C2,226.0,0.25,95,146.0
2455,E4,226.25,0.25,127,146.0
2456,C2,226.25,0.25,95,146.0
2457,E2,226.5,0.375,102,146.0
2458,E2,226.5,0.375,102,146.0
2459,E4,226.5,0.25,127,146.0
2460,F#2,226.5,0.25,95,146.0
2461,E2,226.5,0.25,95,146.0
2462,B-5,226.75,0.25,127,146.0
2463,F#2,226.75,0.25,95,146.0
2464,C2,226.75,0.25,95,146.0
2465,E4,227.0,0.25,127,146.0
2466,C2,227.0,0.25,95,146.0
2467,E4,227.0,0.5,127,146.0
2468,B3,227.0,0.5,127,146.0
2469,E3,227.0,0.5,127,146.0
2470,E4,227.0,0.5,127,146.0
2471,B3,227.0,0.5,127,146.0
2472,E3,227.0,0.5,127,146.0
2473,E4,227.25,0.25,127,146.0
2474,B-2,227.25,0.25,95,146.0
2475,E2,227.25,0.25,95,146.0
2476,B5,227.5,0.25,127,146.0
2477,E4,227.5,0.5,127,146.0
2478,B3,227.5,0.5,127,146.0
2479,E3,227.5,0.5,127,146.0
2480,E4,227.5,0.5,127,146.0
2481,B3,227.5,0.5,127,146.0
2482,E3,227.5,0.5,127,146.0
2483,F#2,227.5,0.25,95,146.0
2484,C2,227.5,0.25,95,146.0
2485,E4,227.75,0.25,127,146.0
2486,C2,227.75,0.25,95,146.0
2487,E4,228.0,0.25,127,146.0
2488,E4,228.0,0.5,127,146.0
2489,B3,228.0,0.5,127,146.0
2490,E3,228.0,0.5,127,146.0
2491,E4,228.0,0.5,127,146.0
2492,B3,228.0,0.5,127,146.0
2493,E3,228.0,0.5,127,146.0
2494,F#2,228.0,0.25,95,146.0
2495,E2,228.0,0.25,95,146.0
2496,B-5,228.25,0.25,127,146.0
2497,F#2,228.25,0.25,95,146.0
2498,C2,228.25,0.25,95,146.0
2499,E4,228.5,0.25,127,146.0
2500,C2,228.5,0.25,95,146.0
2501,E4,228.5,0.5,127,146.0
2502,B-3,228.5,0.5,127,146.0
2503,E3,228.5,0.5,127,146.0
2504,E4,228.5,0.5,127,146.0
2505,B-3,228.5,0.5,127,146.0
2506,E3,228.5,0.5,127,146.0
2507,E4,228.75,0.25,127,146.0
2508,B-2,228.75,0.25,95,146.0
2509,E2,228.75,0.25,95,146.0
2510,E2,229.0,0.375,102,146.0
2511,E2,229.0,0.375,102,146.0
2512,G#5,229.0,0.25,127,146.0
2513,F#2,229.0,0.25,95,146.0
2514,C2,229.0,0.25,95,146.0
2515,E4,229.25,0.25,127,146.0
2516,C2,229.25,0.25,95,146.0
2517,E2,229.5,0.375,102,146.0
2518,E2,229.5,0.375,102,146.0
2519,E4,229.5,0.25,127,146.0
2520,F#2,229.5,0.25,95,146.0
2521,E2,229.5,0.25,95,146.0
2522,E4,229.75,0.25,127,146.0
2523,F#2,229.75,0.25,95,146.0
2524,C2,229.75,0.25,95,146.0
2525,B5,230.0,0.25,127,146.0
2526,E4,230.0,0.5,127,146.0
2527,B3,230.0,0.5,127,146.0
2528,E3,230.0,0.5,127,146.0
2529,E4,230.0,0.5,127,146.0
2530,B3,230.0,0.5,127,146.0
2531,E3,230.0,0.5,127,146.0
2532,F#2,230.0,0.25,95,146.0
2533,C2,230.0,0.25,95,146.0
2534,E4,230.25,0.25,127,146.0
2535,C2,230.25,0.25,95,146.0
2536,E4,230.5,0.25,127,146.0
2537,E4,230.5,0.5,127,146.0
2538,B3,230.5,0.5,127,146.0
2539,E3,230.5,0.5,127,146.0
2540,E4,230.5,0.5,127,146.0
2541,B3,230.5,0.5,127,146.0
2542,E3,230.5,0.5,127,146.0
2543,F#2,230.5,0.25,95,146.0
2544,E2,230.5,0.25,95,146.0
2545,B-5,230.75,0.25,127,146.0
2546,F#2,230.75,0.25,95,146.0
2547,C2,230.75,0.25,95,146.0
2548,E4,231.0,0.25,127,146.0
2549,C2,231.0,0.25,95,146.0
2550,E4,231.0,0.5,127,146.0
2551,B3,231.0,0.5,127,146.0
2552,E3,231.0,0.5,127,146.0
2553,E4,231.0,0.5,127,146.0
2554,B3,231.0,0.5,127,146.0
2555,E3,231.0,0.5,127,146.0
2556,E4,231.25,0.25,127,146.0
2557,B-2,231.25,0.25,95,146.0
2558,E2,231.25,0.25,95,146.0
2559,C#6,231.5,0.25,127,146.0
2560,E4,231.5,0.5,127,146.0
2561,B-3,231.5,0.5,127,146.0
2562,E3,231.5,0.5,127,146.0
2563,E4,231.5,0.5,127,146.0
2564,B-3,231.5,0.5,127,146.0
2565,E3,231.5,0.5,127,146.0
2566,F#2,231.5,0.25,95,146.0
2567,C2,231.5,0.25,95,146.0
2568,E4,231.75,0.25,127,146.0
2569,C2,231.75,0.25,95,146.0
2570,E2,232.0,0.375,102,146.0
2571,E2,232.0,0.375,102,146.0
2572,E4,232.0,0.25,127,146.0
2573,F#2,232.0,0.25,95,146.0
2574,E2,232.0,0.25,95,146.0
2575,B5,232.25,0.25,127,146.0
2576,F#2,232.25,0.25,95,146.0
2577,C2,232.25,0.25,95,146.0
2578,E2,232.5,0.375,102,146.0
2579,E2,232.5,0.375,102,146.0
2580,E4,232.5,0.25,127,146.0
2581,C2,232.5,0.25,95,146.0
2582,E4,232.75,0.25,127,146.0
2583,A3,232.75,0.25,95,146.0
2584,B-2,232.75,0.25,95,146.0
2585,E2,232.75,0.25,95,146.0
2586,E2,233.0,0.375,102,146.0
2587,E2,233.0,0.375,102,146.0
2588,B-5,233.0,0.25,127,146.0
2589,F#2,233.0,0.25,95,146.0
2590,C2,233.0,0.25,95,146.0
2591,B5,233.25,0.25,127,146.0
2592,C2,233.25,0.25,95,146.0
2593,E4,233.5,0.25,127,146.0
2594,E4,233.5,0.5,127,146.0
2595,B3,233.5,0.5,127,146.0
2596,E3,233.5,0.5,127,146.0
2597,E4,233.5,0.5,127,146.0
2598,B3,233.5,0.5,127,146.0
2599,E3,233.5,0.5,127,146.0
2600,A3,233.5,0.25,95,146.0
2601,F#2,233.5,0.25,95,146.0
2602,E2,233.5,0.25,95,146.0
2603,E4,233.75,0.25,127,146.0
2604,F#2,233.75,0.25,95,146.0
2605,C2,233.75,0.25,95,146.0
2606,E2,234.0,0.375,102,146.0
2607,E2,234.0,0.375,102,146.0
2608,B5,234.0,0.25,127,146.0
2609,A3,234.0,0.25,95,146.0
2610,F#2,234.0,0.25,95,146.0
2611,C2,234.0,0.25,95,146.0
2612,E4,234.25,0.25,127,146.0
2613,C2,234.25,0.25,95,146.0
2614,E2,234.5,0.375,102,146.0
2615,E2,234.5,0.375,102,146.0
2616,E4,234.5,0.25,127,146.0
2617,F#2,234.5,0.25,95,146.0
2618,E2,234.5,0.25,95,146.0
2619,B-5,234.75,0.25,127,146.0
2620,F#2,234.75,0.25,95,146.0
2621,C2,234.75,0.25,95,146.0
2622,E4,235.0,0.25,127,146.0
2623,C2,235.0,0.25,95,146.0
2624,E4,235.0,0.5,127,146.0
2625,B3,235.0,0.5,127,146.0
2626,E3,235.0,0.5,127,146.0
2627,E4,235.0,0.5,127,146.0
2628,B3,235.0,0.5,127,146.0
2629,E3,235.0,0.5,127,146.0
2630,E4,235.25,0.25,127,146.0
2631,A3,235.25,0.25,95,146.0
2632,B-2,235.25,0.25,95,146.0
2633,E2,235.25,0.25,95,146.0
2634,G#5,235.5,0.25,127,146.0
2635,E4,235.5,0.5,127,146.0
2636,B3,235.5,0.5,127,146.0
2637,E3,235.5,0.5,127,146.0
2638,E4,235.5,0.5,127,146.0
2639,B3,235.5,0.5,127,146.0
2640,E3,235.5,0.5,127,146.0
2641,F#2,235.5,0.25,95,146.0
2642,C2,235.5,0.25,95,146.0
2643,E4,235.75,0.25,127,146.0
2644,C2,235.75,0.25,95,146.0
2645,E4,236.0,0.25,127,146.0
2646,E4,236.0,0.5,127,146.0
2647,B3,236.0,0.5,127,146.0
2648,E3,236.0,0.5,127,146.0
2649,E4,236.0,0.5,127,146.0
2650,B3,236.0,0.5,127,146.0
2651,E3,236.0,0.5,127,146.0
2652,A3,236.0,0.25,95,146.0
2653,F#2,236.0,0.25,95,146.0
2654,E2,236.0,0.25,95,146.0
2655,F#5,236.25,0.25,127,146.0
2656,F#2,236.25,0.25,95,146.0
2657,C2,236.25,0.25,95,146.0
2658,E4,236.5,0.25,127,146.0
2659,C2,236.5,0.25,95,146.0
2660,E4,236.5,0.5,127,146.0
2661,B-3,236.5,0.5,127,146.0
2662,E3,236.5,0.5,127,146.0
2663,E4,236.5,0.5,127,146.0
2664,B-3,236.5,0.5,127,146.0
2665,E3,236.5,0.5,127,146.0
2666,E4,236.75,0.25,127,146.0
2667,B-2,236.75,0.25,95,146.0
2668,E2,236.75,0.25,95,146.0
2669,E2,237.0,0.375,102,146.0
2670,E2,237.0,0.375,102,146.0
2671,E5,237.0,0.25,127,146.0
2672,A3,237.0,0.25,95,146.0
2673,F#2,237.0,0.25,95,146.0
2674,C2,237.0,0.25,95,146.0
2675,E4,237.25,0.25,127,146.0
2676,C2,237.25,0.25,95,146.0
2677,E2,237.5,0.375,102,146.0
2678,E2,237.5,0.375,102,146.0
2679,E4,237.5,0.25,127,146.0
2680,A3,237.5,0.25,95,146.0
2681,F#2,237.5,0.25,95,146.0
2682,E2,237.5,0.25,95,146.0
2683,E-5,237.75,0.25,127,146.0
2684,F#2,237.75,0.25,95,146.0
2685,C2,237.75,0.25,95,146.0
2686,E4,238.0,0.25,127,146.0
2687,E4,238.0,0.5,127,146.0
2688,B3,238.0,0.5,127,146.0
2689,E3,238.0,0.5,127,146.0
2690,E4,238.0,0.5,127,146.0
2691,B3,238.0,0.5,127,146.0
2692,E3,238.0,0.5,127,146.0
2693,F#2,238.0,0.5,95,146.0
2694,C2,238.0,0.5,95,146.0
2695,E4,238.25,0.25,127,146.0
2696,C#5,238.5,0.25,127,146.0
2697,C2,238.5,0.5,95,146.0
2698,E4,238.5,0.5,127,146.0
2699,B3,238.5,0.5,127,146.0
2700,E3,238.5,0.5,127,146.0
2701,E4,238.5,0.5,127,146.0
2702,B3,238.5,0.5,127,146.0
2703,E3,238.5,0.5,127,146.0
2704,E4,238.75,0.25,127,146.0
2705,E4,239.0,0.25,127,146.0
2706,E4,239.0,0.5,127,146.0
2707,B3,239.0,0.5,127,146.0
2708,E3,239.0,0.5,127,146.0
2709,E4,239.0,0.5,127,146.0
2710,B3,239.0,0.5,127,146.0
2711,E3,239.0,0.5,127,146.0
2712,F#2,239.0,1.0,95,146.0
2713,E2,239.0,1.0,95,146.0
2714,B4,239.25,0.25,127,146.0
2715,E4,239.5,0.25,127,146.0
2716,E4,239.5,0.5,127,146.0
2717,B-3,239.5,0.5,127,146.0
2718,E3,239.5,0.5,127,146.0
2719,E4,239.5,0.5,127,146.0
2720,B-3,239.5,0.5,127,146.0
2721,E3,239.5,0.5,127,146.0
2722,E4,239.75,0.25,127,146.0
2723,E2,240.0,0.375,102,146.0
2724,E2,240.0,0.375,102,146.0
2725,B-4,240.0,0.125,127,146.0
2726,F#2,240.0,0.5,95,146.0
2727,C2,240.0,0.5,95,146.0
2728,B4,240.125,0.25,102,146.0
2729,C#5,240.375,0.125,102,146.0
2730,E2,240.5,0.375,102,146.0
2731,E2,240.5,0.375,102,146.0
2732,B4,240.5,0.125,102,146.0
2733,C2,240.5,0.5,95,146.0
2734,B-4,240.625,0.125,102,146.0
2735,B4,240.75,0.25,102,146.0
2736,E2,241.0,0.375,102,146.0
2737,E2,241.0,0.375,102,146.0
2738,C#5,241.0,0.125,102,146.0
2739,B-2,241.0,1.0,95,146.0
2740,E2,241.0,1.0,95,146.0
2741,B4,241.125,0.125,102,146.0
2742,B-4,241.25,0.125,102,146.0
2743,B4,241.375,0.125,102,146.0
2744,C#5,241.5,0.125,102,146.0
2745,E4,241.5,0.5,127,146.0
2746,B3,241.5,0.5,127,146.0
2747,E3,241.5,0.5,127,146.0
2748,E4,241.5,0.5,127,146.0
2749,B3,241.5,0.5,127,146.0
2750,E3,241.5,0.5,127,146.0
2751,B4,241.625,0.125,102,146.0
2752,B-4,241.75,0.125,102,146.0
2753,B4,241.875,0.125,102,146.0
2754,E2,242.0,0.375,102,146.0
2755,E2,242.0,0.375,102,146.0
2756,C#5,242.0,0.25,102,146.0
2757,F#2,242.0,0.5,95,146.0
2758,C2,242.0,0.5,95,146.0
2759,B4,242.25,0.25,102,146.0
2760,E2,242.5,0.375,102,146.0
2761,E2,242.5,0.375,102,146.0
2762,B-4,242.5,0.062,102,146.0
2763,C2,242.5,0.5,95,146.0
2764,B4,242.562,0.062,102,146.0
2765,C#5,242.625,0.25,102,146.0
2766,E-5,242.875,0.125,102,146.0
2767,C#5,243.0,0.062,127,146.0
2768,E4,243.0,0.5,127,146.0
2769,B3,243.0,0.5,127,146.0
2770,E3,243.0,0.5,127,146.0
2771,E4,243.0,0.5,127,146.0
2772,B3,243.0,0.5,127,146.0
2773,E3,243.0,0.5,127,146.0
2774,F#2,243.0,1.0,95,146.0
2775,E2,243.0,1.0,95,146.0
2776,B4,243.062,0.062,102,146.0
2777,B-4,243.125,0.062,102,146.0
2778,B4,243.188,0.312,102,146.0
2779,C#5,243.5,0.125,102,146.0
2780,E4,243.5,0.5,127,146.0
2781,B3,243.5,0.5,127,146.0
2782,E3,243.5,0.5,127,146.0
2783,E4,243.5,0.5,127,146.0
2784,B3,243.5,0.5,127,146.0
2785,E3,243.5,0.5,127,146.0
2786,B4,243.625,0.125,102,146.0
2787,B-4,243.75,0.062,102,146.0
2788,B4,243.812,0.062,102,146.0
2789,C#5,243.875,0.125,102,146.0
2790,C#5,244.0,0.125,127,146.0
2791,E4,244.0,0.5,127,146.0
2792,B3,244.0,0.5,127,146.0
2793,E3,244.0,0.5,127,146.0
2794,E4,244.0,0.5,127,146.0
2795,B3,244.0,0.5,127,146.0
2796,E3,244.0,0.5,127,146.0
2797,F#2,244.0,0.5,95,146.0
2798,C2,244.0,0.5,95,146.0
2799,E-5,244.125,0.125,102,146.0
2800,C#5,244.25,0.125,102,146.0
2801,E-5,244.375,0.25,102,146.0
2802,C2,244.5,0.5,95,146.0
2803,E4,244.5,0.5,127,146.0
2804,B-3,244.5,0.5,127,146.0
2805,E3,244.5,0.5,127,146.0
2806,E4,244.5,0.5,127,146.0
2807,B-3,244.5,0.5,127,146.0
2808,E3,244.5,0.5,127,146.0
2809,E5,244.625,0.125,102,146.0
2810,E-5,244.75,0.125,102,146.0
2811,C#5,244.875,0.125,102,146.0
2812,E2,245.0,0.375,102,146.0
2813,E2,245.0,0.375,102,146.0
2814,C5,245.0,0.125,102,146.0
2815,B-2,245.0,1.0,95,146.0
2816,E2,245.0,1.0,95,146.0
2817,C#5,245.125,0.25,102,146.0
2818,E-5,245.375,0.125,102,146.0
2819,E2,245.5,0.375,102,146.0
2820,E2,245.5,0.375,102,146.0
2821,C#5,245.5,0.125,102,146.0
2822,B4,245.625,0.125,102,146.0
2823,B-4,245.75,0.125,102,146.0
2824,B4,245.875,0.125,102,146.0
2825,C#5,246.0,0.5,102,146.0
2826,E4,246.0,0.5,127,146.0
2827,B3,246.0,0.5,127,146.0
2828,E3,246.0,0.5,127,146.0
2829,E4,246.0,0.5,127,146.0
2830,B3,246.0,0.5,127,146.0
2831,E3,246.0,0.5,127,146.0
2832,F#2,246.0,0.5,95,146.0
2833,C2,246.0,0.5,95,146.0
2834,B-4,246.5,0.125,102,146.0
2835,C2,246.5,0.5,95,146.0
2836,E4,246.5,0.5,127,146.0
2837,B3,246.5,0.5,127,146.0
2838,E3,246.5,0.5,127,146.0
2839,E4,246.5,0.5,127,146.0
2840,B3,246.5,0.5,127,146.0
2841,E3,246.5,0.5,127,146.0
2842,B4,246.625,0.25,102,146.0
2843,B-4,246.875,0.125,102,146.0
2844,G#4,247.0,0.125,102,146.0
2845,E4,247.0,0.5,127,146.0
2846,B3,247.0,0.5,127,146.0
2847,E3,247.0,0.5,127,146.0
2848,E4,247.0,0.5,127,146.0
2849,B3,247.0,0.5,127,146.0
2850,E3,247.0,0.5,127,146.0
2851,F#2,247.0,1.0,95,146.0
2852,E2,247.0,1.0,95,146.0
2853,F#4,247.125,0.125,127,146.0
2854,E4,247.25,0.125,102,146.0
2855,E-4,247.375,0.125,102,146.0
2856,E4,247.5,0.125,102,146.0
2857,E4,247.5,0.5,127,146.0
2858,B-3,247.5,0.5,127,146.0
2859,E3,247.5,0.5,127,146.0
2860,E4,247.5,0.5,127,146.0
2861,B-3,247.5,0.5,127,146.0
2862,E3,247.5,0.5,127,146.0
2863,F#4,247.625,0.125,102,146.0
2864,E4,247.75,0.125,102,146.0
2865,E-4,247.875,0.125,102,146.0
2866,E2,248.0,0.375,102,146.0
2867,E2,248.0,0.375,102,146.0
2868,C#4,248.0,0.25,127,146.0
2869,F#2,248.0,0.5,95,146.0
2870,C2,248.0,0.5,95,146.0
2871,B3,248.25,0.25,102,146.0
2872,E2,248.5,0.375,102,146.0
2873,E2,248.5,0.375,102,146.0
2874,B-3,248.5,0.25,102,146.0
2875,C2,248.5,0.5,95,146.0
2876,B3,248.75,0.25,102,146.0
2877,E2,249.0,0.375,102,146.0
2878,E2,249.0,0.375,102,146.0
2879,C#4,249.0,1/10,102,146.0
2880,B-2,249.0,1.0,95,146.0
2881,E2,249.0,1.0,95,146.0
2882,B3,249.1,1/10,102,146.0
2883,B-3,249.2,1/10,102,146.0
2884,G#3,249.3,1/10,127,146.0
2885,F#3,249.4,1/10,102,146.0
2886,E3,249.5,0.25,102,146.0
2887,E4,249.5,0.5,127,146.0
2888,B3,249.5,0.5,127,146.0
2889,E3,249.5,0.5,127,146.0
2890,E4,249.5,0.5,127,146.0
2891,B3,249.5,0.5,127,146.0
2892,E3,249.5,0.5,127,146.0
2893,F#3,249.75,0.25,102,146.0
2894,E2,250.0,0.375,102,146.0
2895,E2,250.0,0.375,102,146.0
2896,G#3,250.0,0.125,102,146.0
2897,F#2,250.0,0.5,95,146.0
2898,C2,250.0,0.5,95,146.0
2899,F#3,250.125,0.125,102,146.0
2900,E3,250.25,0.125,102,146.0
2901,F#3,250.375,0.125,102,146.0
2902,E2,250.5,0.375,102,146.0
2903,E2,250.5,0.375,102,146.0
2904,G#3,250.5,0.125,102,146.0
2905,C2,250.5,0.5,95,146.0
2906,F#3,250.625,0.125,102,146.0
2907,E3,250.75,0.125,102,146.0
2908,F#3,250.875,0.125,102,146.0
2909,G#3,251.0,0.125,102,146.0
2910,E4,251.0,0.5,127,146.0
2911,B3,251.0,0.5,127,146.0
2912,E3,251.0,0.5,127,146.0
2913,E4,251.0,0.5,127,146.0
2914,B3,251.0,0.5,127,146.0
2915,E3,251.0,0.5,127,146.0
2916,F#2,251.0,1.0,95,146.0
2917,E2,251.0,1.0,95,146.0
2918,F#3,251.125,0.125,102,146.0
2919,E3,251.25,0.125,102,146.0
2920,F#3,251.375,0.125,102,146.0
2921,G#3,251.5,0.125,102,146.0
2922,E4,251.5,0.5,127,146.0
2923,B3,251.5,0.5,127,146.0
2924,E3,251.5,0.5,127,146.0
2925,E4,251.5,0.5,127,146.0
2926,B3,251.5,0.5,127,146.0
2927,E3,251.5,0.5,127,146.0
2928,F#3,251.625,0.125,102,146.0
2929,E3,251.75,0.125,102,146.0
2930,F#3,251.875,0.125,102,146.0
2931,E3,252.0,0.125,102,146.0
2932,E4,252.0,0.5,127,146.0
2933,B3,252.0,0.5,127,146.0
2934,E3,252.0,0.5,127,146.0
2935,E4,252.0,0.5,127,146.0
2936,B3,252.0,0.5,127,146.0
2937,E3,252.0,0.5,127,146.0
2938,F#2,252.0,0.5,95,146.0
2939,C2,252.0,0.5,95,146.0
2940,F#3,252.125,0.125,102,146.0
2941,G#3,252.25,0.125,102,146.0
2942,F#3,252.375,0.125,102,146.0
2943,E3,252.5,0.125,102,146.0
2944,C2,252.5,0.5,95,146.0
2945,E4,252.5,0.5,127,146.0
2946,B-3,252.5,0.5,127,146.0
2947,E3,252.5,0.5,127,146.0
2948,E4,252.5,0.5,127,146.0
2949,B-3,252.5,0.5,127,146.0
2950,E3,252.5,0.5,127,146.0
2951,F#3,252.625,0.125,102,146.0
2952,G#3,252.75,0.125,102,146.0
2953,F#3,252.875,0.125,102,146.0
2954,E2,253.0,0.375,102,146.0
2955,E2,253.0,0.375,102,146.0
2956,E3,253.0,0.125,102,146.0
2957,B-2,253.0,1.0,95,146.0
2958,E2,253.0,1.0,95,146.0
2959,F#3,253.125,0.125,102,146.0
2960,G#3,253.25,0.125,102,146.0
2961,F#3,253.375,0.125,102,146.0
2962,E2,253.5,0.375,102,146.0
2963,E2,253.5,0.375,102,146.0
2964,G#3,253.5,0.5,102,146.0
2965,G#3,254.0,0.125,102,146.0
2966,E4,254.0,0.5,127,146.0
2967,B3,254.0,0.5,127,146.0
2968,E3,254.0,0.5,127,146.0
2969,E4,254.0,0.5,127,146.0
2970,B3,254.0,0.5,127,146.0
2971,E3,254.0,0.5,127,146.0
2972,F#2,254.0,0.5,95,146.0
2973,C2,254.0,0.5,95,146.0
2974,F3,254.125,0.125,102,146.0
2975,E3,254.25,0.125,102,146.0
2976,F#3,254.375,0.125,102,146.0
2977,G#3,254.5,0.125,102,146.0
2978,C2,254.5,0.5,95,146.0
2979,E4,254.5,0.5,127,146.0
2980,B3,254.5,0.5,127,146.0
2981,E3,254.5,0.5,127,146.0
2982,E4,254.5,0.5,127,146.0
2983,B3,254.5,0.5,127,146.0
2984,E3,254.5,0.5,127,146.0
2985,F#3,254.625,0.125,102,146.0
2986,E3,254.75,0.125,102,146.0
2987,F#3,254.875,0.125,102,146.0
2988,G#3,255.0,0.125,102,146.0
2989,E4,255.0,0.5,127,146.0
2990,B3,255.0,0.5,127,146.0
2991,E3,255.0,0.5,127,146.0
2992,E4,255.0,0.5,127,146.0
2993,B3,255.0,0.5,127,146.0
2994,E3,255.0,0.5,127,146.0
2995,F#2,255.0,1.0,95,146.0
2996,E2,255.0,1.0,95,146.0
2997,B-3,255.125,0.125,102,146.0
2998,G#3,255.25,0.125,102,146.0
2999,F#3,255.375,0.125,102,146.0
3000,G#3,255.5,0.125,102,146.0
3001,E4,255.5,0.5,127,146.0
3002,B-3,255.5,0.5,127,146.0
3003,E3,255.5,0.5,127,146.0
3004,E4,255.5,0.5,127,146.0
3005,B-3,255.5,0.5,127,146.0
3006,E3,255.5,0.5,127,146.0
3007,F#3,255.625,0.125,102,146.0
3008,E3,255.75,0.125,127,146.0
3009,E-3,255.875,0.125,102,146.0
3010,E2,256.0,0.375,102,146.0
3011,E2,256.0,0.375,102,146.0
3012,E-3,256.0,167/1000,127,146.0
3013,F#2,256.0,0.5,95,146.0
3014,C2,256.0,0.5,95,146.0
3015,C#3,256.167,167/1000,102,146.0
3016,B2,256.333,167/1000,127,146.0
3017,E2,256.5,0.375,102,146.0
3018,E2,256.5,0.375,102,146.0
3019,C#3,256.5,0.25,127,146.0
3020,B2,256.5,0.25,95,146.0
3021,E-3,256.75,0.125,102,146.0
3022,B2,256.75,0.25,95,146.0
3023,B-2,256.875,13/40,127,146.0
3024,A2,257.0,0.25,95,146.0
3025,E3,257.0,0.375,102,146.0
3026,B2,257.0,0.375,102,146.0
3027,E2,257.0,0.375,102,146.0
3028,E3,257.0,0.375,102,146.0
3029,B2,257.0,0.375,102,146.0
3030,E2,257.0,0.375,102,146.0
3031,G#2,257.2,1/5,127,146.0
3032,G2,257.25,0.25,95,146.0
3033,F#2,257.4,1/5,102,146.0
3034,G2,257.5,0.25,95,146.0
3035,F#3,257.5,0.5,127,146.0
3036,C#3,257.5,0.5,127,146.0
3037,F#2,257.5,0.5,127,146.0
3038,F#3,257.5,0.5,127,146.0
3039,C#3,257.5,0.5,127,146.0
3040,F#2,257.5,0.5,127,146.0
3041,G#2,257.6,1/5,102,146.0
3042,F2,257.75,0.25,95,146.0
3043,B-2,257.8,1/5,127,146.0
3044,F#2,258.0,0.375,102,146.0
3045,F#2,258.0,0.375,102,146.0
3046,F#2,258.0,1.0,127,146.0
3047,F#2,258.0,0.5,95,146.0
3048,C2,258.0,0.5,95,146.0
3049,F#2,258.5,0.375,102,146.0
3050,F#2,258.5,0.375,102,146.0
3051,C2,258.5,0.5,95,146.0
3052,F#2,259.0,0.5,127,146.0
3053,F#3,259.0,0.5,127,146.0
3054,C#3,259.0,0.5,127,146.0
3055,F#2,259.0,0.5,127,146.0
3056,F#3,259.0,0.5,127,146.0
3057,C#3,259.0,0.5,127,146.0
3058,F#2,259.0,0.5,127,146.0
3059,F#2,259.0,1.0,95,146.0
3060,E2,259.0,1.0,95,146.0
3061,F#2,259.5,0.375,102,146.0
3062,F#2,259.5,0.375,102,146.0
3063,F#3,259.5,2.0,127,146.0
3064,F#2,260.0,0.375,102,146.0
3065,F#2,260.0,0.375,102,146.0
3066,F#2,260.0,0.5,95,146.0
3067,C2,260.0,0.5,95,146.0
3068,C2,260.5,0.5,95,146.0
3069,F#3,260.5,0.5,127,146.0
3070,C#3,260.5,0.5,127,146.0
3071,F#2,260.5,0.5,127,146.0
3072,F#3,260.5,0.5,127,146.0
3073,C#3,260.5,0.5,127,146.0
3074,F#2,260.5,0.5,127,146.0
3075,F#2,261.0,0.375,102,146.0
3076,F#2,261.0,0.375,102,146.0
3077,B-2,261.0,1.0,95,146.0
3078,E2,261.0,1.0,95,146.0
3079,E2,261.5,0.375,102,146.0
3080,E2,261.5,0.375,102,146.0
3081,G3,261.5,0.125,127,146.0
3082,F#3,261.625,0.125,102,146.0
3083,F3,261.75,0.25,102,146.0
3084,F#3,262.0,0.5,127,146.0
3085,F#3,262.0,0.5,127,146.0
3086,C#3,262.0,0.5,127,146.0
3087,F#2,262.0,0.5,127,146.0
3088,F#3,262.0,0.5,127,146.0
3089,C#3,262.0,0.5,127,146.0
3090,F#2,262.0,0.5,127,146.0
3091,F#2,262.0,0.5,95,146.0
3092,C2,262.0,0.5,95,146.0
3093,B-3,262.5,0.5,127,146.0
3094,C2,262.5,0.5,95,146.0
3095,F#3,262.5,0.5,127,146.0
3096,C#3,262.5,0.5,127,146.0
3097,F#2,262.5,0.5,127,146.0
3098,F#3,262.5,0.5,127,146.0
3099,C#3,262.5,0.5,127,146.0
3100,F#2,262.5,0.5,127,146.0
3101,B3,263.0,0.25,127,146.0
3102,F#3,263.0,0.5,127,146.0
3103,C#3,263.0,0.5,127,146.0
3104,F#2,263.0,0.5,127,146.0
3105,F#3,263.0,0.5,127,146.0
3106,C#3,263.0,0.5,127,146.0
3107,F#2,263.0,0.5,127,146.0
3108,F#2,263.0,1.0,95,146.0
3109,E2,263.0,1.0,95,146.0
3110,C#4,263.335,541/250,127,146.0
3111,G3,263.5,0.5,127,146.0
3112,D3,263.5,0.5,127,146.0
3113,G2,263.5,0.5,127,146.0
3114,G3,263.5,0.5,127,146.0
3115,D3,263.5,0.5,127,146.0
3116,G2,263.5,0.5,127,146.0
3117,G3,264.0,0.5,127,146.0
3118,D3,264.0,0.5,127,146.0
3119,G2,264.0,0.5,127,146.0
3120,G3,264.0,0.5,127,146.0
3121,D3,264.0,0.5,127,146.0
3122,G2,264.0,0.5,127,146.0
3123,F#2,264.0,0.5,95,146.0
3124,C2,264.0,0.5,95,146.0
3125,C2,264.5,0.5,95,146.0
3126,E3,264.5,0.5,127,146.0
3127,B2,264.5,0.5,127,146.0
3128,E2,264.5,0.5,127,146.0
3129,E3,264.5,0.5,127,146.0
3130,B2,264.5,0.5,127,146.0
3131,E2,264.5,0.5,127,146.0
3132,E3,265.0,0.5,127,146.0
3133,B2,265.0,0.5,127,146.0
3134,E2,265.0,0.5,127,146.0
3135,E3,265.0,0.5,127,146.0
3136,B2,265.0,0.5,127,146.0
3137,E2,265.0,0.5,127,146.0
3138,B-2,265.0,1.0,95,146.0
3139,E2,265.0,1.0,95,146.0
3140,F#4,265.5,0.5,127,146.0
3141,F#3,265.5,0.5,127,146.0
3142,C#3,265.5,0.5,127,146.0
3143,F#2,265.5,0.5,127,146.0
3144,F#3,265.5,0.5,127,146.0
3145,C#3,265.5,0.5,127,146.0
3146,F#2,265.5,0.5,127,146.0
3147,F#2,266.0,0.375,102,146.0
3148,F#2,266.0,0.375,102,146.0
3149,F#4,266.0,1.5,127,146.0
3150,F#2,266.0,0.5,95,146.0
3151,C2,266.0,0.5,95,146.0
3152,F#2,266.5,0.375,102,146.0
3153,F#2,266.5,0.375,102,146.0
3154,C2,266.5,0.5,95,146.0
3155,F#3,267.0,0.5,127,146.0
3156,C#3,267.0,0.5,127,146.0
3157,F#2,267.0,0.5,127,146.0
3158,F#3,267.0,0.5,127,146.0
3159,C#3,267.0,0.5,127,146.0
3160,F#2,267.0,0.5,127,146.0
3161,F#2,267.0,1.0,95,146.0
3162,E2,267.0,1.0,95,146.0
3163,F#2,267.5,0.375,102,146.0
3164,F#2,267.5,0.375,102,146.0
3165,E4,267.5,167/1000,127,146.0
3166,F#4,267.667,167/1000,102,146.0
3167,E4,267.833,917/1000,102,146.0
3168,F#2,268.0,0.375,102,146.0
3169,F#2,268.0,0.375,102,146.0
3170,F#2,268.0,0.5,95,146.0
3171,C2,268.0,0.5,95,146.0
3172,C2,268.5,0.5,95,146.0
3173,F#3,268.5,0.5,127,146.0
3174,C#3,268.5,0.5,127,146.0
3175,F#2,268.5,0.5,127,146.0
3176,F#3,268.5,0.5,127,146.0
3177,C#3,268.5,0.5,127,146.0
3178,F#2,268.5,0.5,127,146.0
3179,D4,268.75,1.25,127,146.0
3180,F#2,269.0,0.375,102,146.0
3181,F#2,269.0,0.375,102,146.0
3182,B-2,269.0,1.0,95,146.0
3183,E2,269.0,1.0,95,146.0
3184,E2,269.5,0.375,102,146.0
3185,E2,269.5,0.375,102,146.0
3186,D4,270.0,0.25,127,146.0
3187,F#3,270.0,0.5,127,146.0
3188,C#3,270.0,0.5,127,146.0
3189,F#2,270.0,0.5,127,146.0
3190,F#3,270.0,0.5,127,146.0
3191,C#3,270.0,0.5,127,146.0
3192,F#2,270.0,0.5,127,146.0
3193,F#2,270.0,0.5,95,146.0
3194,C2,270.0,0.5,95,146.0
3195,D4,270.25,0.5,127,146.0
3196,C2,270.5,0.5,95,146.0
3197,F#3,270.5,0.5,127,146.0
3198,C#3,270.5,0.5,127,146.0
3199,F#2,270.5,0.5,127,146.0
3200,F#3,270.5,0.5,127,146.0
3201,C#3,270.5,0.5,127,146.0
3202,F#2,270.5,0.5,127,146.0
3203,C#4,270.75,0.75,127,146.0
3204,F#3,271.0,0.5,127,146.0
3205,C#3,271.0,0.5,127,146.0
3206,F#2,271.0,0.5,127,146.0
3207,F#3,271.0,0.5,127,146.0
3208,C#3,271.0,0.5,127,146.0
3209,F#2,271.0,0.5,127,146.0
3210,F#2,271.0,1.0,95,146.0
3211,E2,271.0,1.0,95,146.0
3212,B3,271.5,0.5,127,146.0
3213,A3,271.5,0.5,127,146.0
3214,E3,271.5,0.5,127,146.0
3215,A2,271.5,0.5,127,146.0
3216,A3,271.5,0.5,127,146.0
3217,E3,271.5,0.5,127,146.0
3218,A2,271.5,0.5,127,146.0
3219,B-3,272.0,1.5,127,146.0
3220,A3,272.0,0.5,127,146.0
3221,E3,272.0,0.5,127,146.0
3222,A2,272.0,0.5,127,146.0
3223,A3,272.0,0.5,127,146.0
3224,E3,272.0,0.5,127,146.0
3225,A2,272.0,0.5,127,146.0
3226,F#2,272.0,0.5,95,146.0
3227,C2,272.0,0.5,95,146.0
3228,C2,272.5,0.5,95,146.0
3229,G3,272.5,0.5,127,146.0
3230,D3,272.5,0.5,127,146.0
3231,G2,272.5,0.5,127,146.0
3232,G3,272.5,0.5,127,146.0
3233,D3,272.5,0.5,127,146.0
3234,G2,272.5,0.5,127,146.0
3235,G3,273.0,0.5,127,146.0
3236,D3,273.0,0.5,127,146.0
3237,G2,273.0,0.5,127,146.0
3238,G3,273.0,0.5,127,146.0
3239,D3,273.0,0.5,127,146.0
3240,G2,273.0,0.5,127,146.0
3241,B-2,273.0,1.0,95,146.0
3242,E2,273.0,1.0,95,146.0
3243,B-3,273.5,0.25,127,146.0
3244,E3,273.5,0.5,127,146.0
3245,B2,273.5,0.5,127,146.0
3246,E2,273.5,0.5,127,146.0
3247,E3,273.5,0.5,127,146.0
3248,B2,273.5,0.5,127,146.0
3249,E2,273.5,0.5,127,146.0
3250,C#5,273.75,0.25,127,146.0
3251,F#2,274.0,0.375,102,146.0
3252,F#2,274.0,0.375,102,146.0
3253,C#5,274.0,0.125,127,146.0
3254,F#2,274.0,0.5,95,146.0
3255,C2,274.0,0.5,95,146.0
3256,G4,274.125,0.125,102,146.0
3257,F#4,274.25,0.125,102,146.0
3258,B3,274.375,0.125,102,146.0
3259,F#2,274.5,0.375,102,146.0
3260,F#2,274.5,0.375,102,146.0
3261,G4,274.5,0.25,102,146.0
3262,C2,274.5,0.5,95,146.0
3263,B-4,274.75,0.125,102,146.0
3264,G4,274.875,0.125,102,146.0
3265,B3,275.0,0.125,102,146.0
3266,F#3,275.0,0.5,127,146.0
3267,C#3,275.0,0.5,127,146.0
3268,F#2,275.0,0.5,127,146.0
3269,F#3,275.0,0.5,127,146.0
3270,C#3,275.0,0.5,127,146.0
3271,F#2,275.0,0.5,127,146.0
3272,F#2,275.0,1.0,95,146.0
3273,E2,275.0,1.0,95,146.0
3274,B-4,275.125,0.25,102,146.0
3275,B4,275.375,0.25,102,146.0
3276,F#2,275.5,0.375,102,146.0
3277,F#2,275.5,0.375,102,146.0
3278,B-4,275.625,0.25,102,146.0
3279,B3,275.875,0.125,102,146.0
3280,F#2,276.0,0.375,102,146.0
3281,F#2,276.0,0.375,102,146.0
3282,B4,276.0,0.25,102,146.0
3283,F#2,276.0,0.5,95,146.0
3284,C2,276.0,0.5,95,146.0
3285,C#5,276.25,83/1000,102,146.0
3286,D5,276.333,83/1000,102,146.0
3287,C#5,276.417,83/1000,102,146.0
3288,B4,276.5,0.125,102,146.0
3289,C2,276.5,0.5,95,146.0
3290,F#3,276.5,0.5,127,146.0
3291,C#3,276.5,0.5,127,146.0
3292,F#2,276.5,0.5,127,146.0
3293,F#3,276.5,0.5,127,146.0
3294,C#3,276.5,0.5,127,146.0
3295,F#2,276.5,0.5,127,146.0
3296,B3,276.625,0.125,102,146.0
3297,B-4,276.75,0.125,102,146.0
3298,B4,276.875,0.125,102,146.0
3299,F#2,277.0,0.375,102,146.0
3300,F#2,277.0,0.375,102,146.0
3301,B-4,277.0,0.125,102,146.0
3302,B-2,277.0,1.0,95,146.0
3303,E2,277.0,1.0,95,146.0
3304,B3,277.125,0.125,102,146.0
3305,B4,277.25,0.25,102,146.0
3306,E2,277.5,0.375,102,146.0
3307,E2,277.5,0.375,102,146.0
3308,C#5,277.5,0.25,102,146.0
3309,B4,277.75,0.125,102,146.0
3310,B3,277.875,0.125,102,146.0
3311,C#5,278.0,0.125,127,146.0
3312,F#3,278.0,0.5,127,146.0
3313,C#3,278.0,0.5,127,146.0
3314,F#2,278.0,0.5,127,146.0
3315,F#3,278.0,0.5,127,146.0
3316,C#3,278.0,0.5,127,146.0
3317,F#2,278.0,0.5,127,146.0
3318,F#2,278.0,0.5,95,146.0
3319,C2,278.0,0.5,95,146.0
3320,D5,278.125,0.125,102,146.0
3321,C#5,278.25,0.125,102,146.0
3322,B3,278.375,0.125,102,146.0
3323,B4,278.5,0.25,102,146.0
3324,C2,278.5,0.5,95,146.0
3325,F#3,278.5,0.5,127,146.0
3326,C#3,278.5,0.5,127,146.0
3327,F#2,278.5,0.5,127,146.0
3328,F#3,278.5,0.5,127,146.0
3329,C#3,278.5,0.5,127,146.0
3330,F#2,278.5,0.5,127,146.0
3331,C#5,278.75,0.25,102,146.0
3332,B4,279.0,0.125,102,146.0
3333,F#3,279.0,0.5,127,146.0
3334,C#3,279.0,0.5,127,146.0
3335,F#2,279.0,0.5,127,146.0
3336,F#3,279.0,0.5,127,146.0
3337,C#3,279.0,0.5,127,146.0
3338,F#2,279.0,0.5,127,146.0
3339,F#2,279.0,1.0,95,146.0
3340,E2,279.0,1.0,95,146.0
3341,B3,279.125,0.125,102,146.0
3342,B-4,279.25,0.125,102,146.0
3343,B4,279.375,0.25,102,146.0
3344,G3,279.5,0.5,127,146.0
3345,D3,279.5,0.5,127,146.0
3346,G2,279.5,0.5,127,146.0
3347,G3,279.5,0.5,127,146.0
3348,D3,279.5,0.5,127,146.0
3349,G2,279.5,0.5,127,146.0
3350,B-4,279.625,0.125,102,146.0
3351,B3,279.75,0.125,102,146.0
3352,B-4,279.875,2.125,102,146.0
3353,F#5,279.958,1021/500,127,146.0
3354,G3,280.0,0.5,127,146.0
3355,D3,280.0,0.5,127,146.0
3356,G2,280.0,0.5,127,146.0
3357,G3,280.0,0.5,127,146.0
3358,D3,280.0,0.5,127,146.0
3359,G2,280.0,0.5,127,146.0
3360,F#2,280.0,0.5,95,146.0
3361,C2,280.0,0.5,95,146.0
3362,C2,280.5,0.5,95,146.0
3363,E3,280.5,0.5,127,146.0
3364,B2,280.5,0.5,127,146.0
3365,E2,280.5,0.5,127,146.0
3366,E3,280.5,0.5,127,146.0
3367,B2,280.5,0.5,127,146.0
3368,E2,280.5,0.5,127,146.0
3369,E3,281.0,0.5,127,146.0
3370,B2,281.0,0.5,127,146.0
3371,E2,281.0,0.5,127,146.0
3372,E3,281.0,0.5,127,146.0
3373,B2,281.0,0.5,127,146.0
3374,E2,281.0,0.5,127,146.0
3375,B-2,281.0,1.0,95,146.0
3376,E2,281.0,1.0,95,146.0
3377,F#3,281.5,0.5,127,146.0
3378,C#3,281.5,0.5,127,146.0
3379,F#2,281.5,0.5,127,146.0
3380,F#3,281.5,0.5,127,146.0
3381,C#3,281.5,0.5,127,146.0
3382,F#2,281.5,0.5,127,146.0
3383,F#2,282.0,0.375,102,146.0
3384,F#2,282.0,0.375,102,146.0
3385,F#6,282.0,2.5,127,146.0
3386,B-4,282.0,4.0,102,146.0
3387,F#2,282.0,0.5,95,146.0
3388,C2,282.0,0.5,95,146.0
3389,F#2,282.5,0.375,102,146.0
3390,F#2,282.5,0.375,102,146.0
3391,C2,282.5,0.5,95,146.0
3392,F#3,283.0,0.5,127,146.0
3393,C#3,283.0,0.5,127,146.0
3394,F#2,283.0,0.5,127,146.0
3395,F#3,283.0,0.5,127,146.0
3396,C#3,283.0,0.5,127,146.0
3397,F#2,283.0,0.5,127,146.0
3398,F#2,283.0,1.0,95,146.0
3399,E2,283.0,1.0,95,146.0
3400,F#2,283.5,0.375,102,146.0
3401,F#2,283.5,0.375,102,146.0
3402,F#2,284.0,0.375,102,146.0
3403,F#2,284.0,0.375,102,146.0
3404,F#2,284.0,0.5,95,146.0
3405,C2,284.0,0.5,95,146.0
3406,F#5,284.5,0.25,127,146.0
3407,C2,284.5,0.5,95,146.0
3408,F#3,284.5,0.5,127,146.0
3409,C#3,284.5,0.5,127,146.0
3410,F#2,284.5,0.5,127,146.0
3411,F#3,284.5,0.5,127,146.0
3412,C#3,284.5,0.5,127,146.0
3413,F#2,284.5,0.5,127,146.0
3414,F#5,284.75,0.25,127,146.0
3415,F#2,285.0,0.375,102,146.0
3416,F#2,285.0,0.375,102,146.0
3417,G5,285.0,0.25,127,146.0
3418,B-2,285.0,1.0,95,146.0
3419,E2,285.0,1.0,95,146.0
3420,F#5,285.25,0.25,127,146.0
3421,E2,285.5,0.375,102,146.0
3422,E2,285.5,0.375,102,146.0
3423,E5,285.5,0.25,127,146.0
3424,F#5,285.75,0.25,127,146.0
3425,D5,286.0,0.25,127,146.0
3426,B-4,286.0,2.0,102,146.0
3427,F#3,286.0,0.5,127,146.0
3428,C#3,286.0,0.5,127,146.0
3429,F#2,286.0,0.5,127,146.0
3430,F#3,286.0,0.5,127,146.0
3431,C#3,286.0,0.5,127,146.0
3432,F#2,286.0,0.5,127,146.0
3433,F#2,286.0,0.5,95,146.0
3434,C2,286.0,0.5,95,146.0
3435,E5,286.25,0.25,127,146.0
3436,C#5,286.5,0.25,127,146.0
3437,C2,286.5,0.5,95,146.0
3438,F#3,286.5,0.5,127,146.0
3439,C#3,286.5,0.5,127,146.0
3440,F#2,286.5,0.5,127,146.0
3441,F#3,286.5,0.5,127,146.0
3442,C#3,286.5,0.5,127,146.0
3443,F#2,286.5,0.5,127,146.0
3444,D5,286.75,0.25,127,146.0
3445,B4,287.0,0.25,127,146.0
3446,F#3,287.0,0.5,127,146.0
3447,C#3,287.0,0.5,127,146.0
3448,F#2,287.0,0.5,127,146.0
3449,F#3,287.0,0.5,127,146.0
3450,C#3,287.0,0.5,127,146.0
3451,F#2,287.0,0.5,127,146.0
3452,F#2,287.0,1.0,95,146.0
3453,E2,287.0,1.0,95,146.0
3454,C#5,287.25,0.25,127,146.0
3455,B4,287.5,0.25,127,146.0
3456,A3,287.5,0.5,127,146.0
3457,E3,287.5,0.5,127,146.0
3458,A2,287.5,0.5,127,146.0
3459,A3,287.5,0.5,127,146.0
3460,E3,287.5,0.5,127,146.0
3461,A2,287.5,0.5,127,146.0
3462,B-4,287.75,2.25,127,146.0
3463,G4,288.0,0.25,127,146.0
3464,A3,288.0,0.5,127,146.0
3465,E3,288.0,0.5,127,146.0
3466,A2,288.0,0.5,127,146.0
3467,A3,288.0,0.5,127,146.0
3468,E3,288.0,0.5,127,146.0
3469,A2,288.0,0.5,127,146.0
3470,F#2,288.0,0.5,95,146.0
3471,C2,288.0,0.5,95,146.0
3472,F#4,288.25,0.25,127,146.0
3473,E4,288.5,0.25,127,146.0
3474,C2,288.5,0.5,95,146.0
3475,G3,288.5,0.5,127,146.0
3476,D3,288.5,0.5,127,146.0
3477,G2,288.5,0.5,127,146.0
3478,G3,288.5,0.5,127,146.0
3479,D3,288.5,0.5,127,146.0
3480,G2,288.5,0.5,127,146.0
3481,D4,288.75,0.25,127,146.0
3482,C#4,289.0,0.25,127,146.0
3483,G3,289.0,0.5,127,146.0
3484,D3,289.0,0.5,127,146.0
3485,G2,289.0,0.5,127,146.0
3486,G3,289.0,0.5,127,146.0
3487,D3,289.0,0.5,127,146.0
3488,G2,289.0,0.5,127,146.0
3489,B-2,289.0,1.0,95,146.0
3490,E2,289.0,1.0,95,146.0
3491,B3,289.25,0.25,127,146.0
3492,G3,289.5,0.25,127,146.0
3493,E3,289.5,0.5,127,146.0
3494,B2,289.5,0.5,127,146.0
3495,E2,289.5,0.5,127,146.0
3496,E3,289.5,0.5,127,146.0
3497,B2,289.5,0.5,127,146.0
3498,E2,289.5,0.5,127,146.0
3499,F#3,289.75,0.25,127,146.0
3500,C#3,290.0,0.375,102,146.0
3501,C#3,290.0,0.375,102,146.0
3502,C#4,290.0,1.0,127,146.0
3503,B-4,290.0,4.0,127,146.0
3504,F#2,290.0,0.5,95,146.0
3505,C2,290.0,0.5,95,146.0
3506,C#3,290.5,0.375,102,146.0
3507,C#3,290.5,0.375,102,146.0
3508,C2,290.5,0.5,95,146.0
3509,E-4,291.0,1.0,127,146.0
3510,C#4,291.0,0.5,127,146.0
3511,G#3,291.0,0.5,127,146.0
3512,C#3,291.0,0.5,127,146.0
3513,C#4,291.0,0.5,127,146.0
3514,G#3,291.0,0.5,127,146.0
3515,C#3,291.0,0.5,127,146.0
3516,F#2,291.0,1.0,95,146.0
3517,E2,291.0,1.0,95,146.0
3518,C#4,291.5,0.5,127,146.0
3519,G#3,291.5,0.5,127,146.0
3520,C#3,291.5,0.5,127,146.0
3521,C#4,291.5,0.5,127,146.0
3522,G#3,291.5,0.5,127,146.0
3523,C#3,291.5,0.5,127,146.0
3524,C#3,292.0,167/1000,102,146.0
3525,C#4,292.0,0.5,127,146.0
3526,G#3,292.0,0.5,127,146.0
3527,C#3,292.0,0.5,127,146.0
3528,C#4,292.0,0.5,127,146.0
3529,G#3,292.0,0.5,127,146.0
3530,C#3,292.0,0.5,127,146.0
3531,F#2,292.0,0.5,95,146.0
3532,C2,292.0,0.5,95,146.0
3533,E-3,292.167,167/1000,102,146.0
3534,F3,292.333,167/1000,102,146.0
3535,G3,292.5,0.125,127,146.0
3536,C2,292.5,0.5,95,146.0
3537,C#4,292.5,0.5,127,146.0
3538,G3,292.5,0.5,127,146.0
3539,C#3,292.5,0.5,127,146.0
3540,C#4,292.5,0.5,127,146.0
3541,G3,292.5,0.5,127,146.0
3542,C#3,292.5,0.5,127,146.0
3543,G#3,292.625,0.125,102,146.0
3544,B-3,292.75,0.125,102,146.0
3545,B3,292.875,0.125,127,146.0
3546,C#3,293.0,0.375,102,146.0
3547,C#3,293.0,0.375,102,146.0
3548,C#4,293.0,1/5,102,146.0
3549,B-2,293.0,1.0,95,146.0
3550,E2,293.0,1.0,95,146.0
3551,E-4,293.2,1/5,102,146.0
3552,C#4,293.4,1/5,102,146.0
3553,C#3,293.5,0.375,102,146.0
3554,C#3,293.5,0.375,102,146.0
3555,B3,293.6,1/5,102,146.0
3556,B-3,293.8,1/5,127,146.0
3557,G#3,294.0,0.125,102,146.0
3558,B-4,294.0,4.0,127,146.0
3559,C#4,294.0,0.5,127,146.0
3560,G#3,294.0,0.5,127,146.0
3561,C#3,294.0,0.5,127,146.0
3562,C#4,294.0,0.5,127,146.0
3563,G#3,294.0,0.5,127,146.0
3564,C#3,294.0,0.5,127,146.0
3565,F#2,294.0,0.5,95,146.0
3566,C2,294.0,0.5,95,146.0
3567,G3,294.125,1.875,102,146.0
3568,C2,294.5,0.5,95,146.0
3569,C#4,294.5,0.5,127,146.0
3570,G#3,294.5,0.5,127,146.0
3571,C#3,294.5,0.5,127,146.0
3572,C#4,294.5,0.5,127,146.0
3573,G#3,294.5,0.5,127,146.0
3574,C#3,294.5,0.5,127,146.0
3575,C#4,295.0,0.5,127,146.0
3576,G#3,295.0,0.5,127,146.0
3577,C#3,295.0,0.5,127,146.0
3578,C#4,295.0,0.5,127,146.0
3579,G#3,295.0,0.5,127,146.0
3580,C#3,295.0,0.5,127,146.0
3581,F#2,295.0,1.0,95,146.0
3582,E2,295.0,1.0,95,146.0
3583,C#4,295.5,0.5,127,146.0
3584,G3,295.5,0.5,127,146.0
3585,C#3,295.5,0.5,127,146.0
3586,C#4,295.5,0.5,127,146.0
3587,G3,295.5,0.5,127,146.0
3588,C#3,295.5,0.5,127,146.0
3589,C#3,296.0,0.375,102,146.0
3590,C#3,296.0,0.375,102,146.0
3591,G#3,296.0,167/1000,127,146.0
3592,F#2,296.0,0.5,95,146.0
3593,C2,296.0,0.5,95,146.0
3594,B-3,296.167,167/1000,102,146.0
3595,B3,296.333,167/1000,127,146.0
3596,C#3,296.5,0.375,102,146.0
3597,C#3,296.5,0.375,102,146.0
3598,C#4,296.5,167/1000,102,146.0
3599,C2,296.5,0.5,95,146.0
3600,E-4,296.667,167/1000,102,146.0
3601,F4,296.833,167/1000,127,146.0
3602,C#3,297.0,0.375,102,146.0
3603,C#3,297.0,0.375,102,146.0
3604,G4,297.0,0.125,102,146.0
3605,B-2,297.0,1.0,95,146.0
3606,E2,297.0,1.0,95,146.0
3607,G#4,297.125,0.25,102,146.0
3608,G4,297.375,0.125,102,146.0
3609,F4,297.5,0.25,102,146.0
3610,C#4,297.5,0.5,127,146.0
3611,G#3,297.5,0.5,127,146.0
3612,C#3,297.5,0.5,127,146.0
3613,C#4,297.5,0.5,127,146.0
3614,G#3,297.5,0.5,127,146.0
3615,C#3,297.5,0.5,127,146.0
3616,E-4,297.75,0.25,127,146.0
3617,C#3,298.0,0.375,102,146.0
3618,C#3,298.0,0.375,102,146.0
3619,C#4,298.0,1.0,102,146.0
3620,B-4,298.0,3.0,127,146.0
3621,F#2,298.0,0.5,95,146.0
3622,C2,298.0,0.5,95,146.0
3623,C#3,298.5,0.375,102,146.0
3624,C#3,298.5,0.375,102,146.0
3625,C2,298.5,0.5,95,146.0
3626,C#4,299.0,0.5,127,146.0
3627,G#3,299.0,0.5,127,146.0
3628,C#3,299.0,0.5,127,146.0
3629,C#4,299.0,0.5,127,146.0
3630,G#3,299.0,0.5,127,146.0
3631,C#3,299.0,0.5,127,146.0
3632,F#2,299.0,1.0,95,146.0
3633,E2,299.0,1.0,95,146.0
3634,C#4,299.5,0.5,127,146.0
3635,G#3,299.5,0.5,127,146.0
3636,C#3,299.5,0.5,127,146.0
3637,C#4,299.5,0.5,127,146.0
3638,G#3,299.5,0.5,127,146.0
3639,C#3,299.5,0.5,127,146.0
3640,B4,300.0,167/1000,127,146.0
3641,C#4,300.0,0.5,127,146.0
3642,G#3,300.0,0.5,127,146.0
3643,C#3,300.0,0.5,127,146.0
3644,C#4,300.0,0.5,127,146.0
3645,G#3,300.0,0.5,127,146.0
3646,C#3,300.0,0.5,127,146.0
3647,F#2,300.0,0.5,95,146.0
3648,C2,300.0,0.5,95,146.0
3649,C#5,300.167,167/1000,102,146.0
3650,E-5,300.333,167/1000,102,146.0
3651,C#5,300.5,167/1000,102,146.0
3652,C2,300.5,0.5,95,146.0
3653,C#4,300.5,0.5,127,146.0
3654,G3,300.5,0.5,127,146.0
3655,C#3,300.5,0.5,127,146.0
3656,C#4,300.5,0.5,127,146.0
3657,G3,300.5,0.5,127,146.0
3658,C#3,300.5,0.5,127,146.0
3659,B4,300.667,167/1000,102,146.0
3660,B-4,300.833,1167/1000,127,146.0
3661,C#3,301.0,0.375,102,146.0
3662,C#3,301.0,0.375,102,146.0
3663,G#4,301.0,167/1000,102,146.0
3664,B-2,301.0,1.0,95,146.0
3665,E2,301.0,1.0,95,146.0
3666,G4,301.167,167/1000,102,146.0
3667,F4,301.333,167/1000,127,146.0
3668,C#3,301.5,0.375,102,146.0
3669,C#3,301.5,0.375,102,146.0
3670,E-4,301.5,0.5,102,146.0
3671,B-4,302.0,1667/1000,127,146.0
3672,C#4,302.0,0.5,127,146.0
3673,G#3,302.0,0.5,127,146.0
3674,C#3,302.0,0.5,127,146.0
3675,C#4,302.0,0.5,127,146.0
3676,G#3,302.0,0.5,127,146.0
3677,C#3,302.0,0.5,127,146.0
3678,F#2,302.0,0.5,95,146.0
3679,C2,302.0,0.5,95,146.0
3680,C#5,302.5,167/1000,127,146.0
3681,C2,302.5,0.5,95,146.0
3682,C#4,302.5,0.5,127,146.0
3683,G#3,302.5,0.5,127,146.0
3684,C#3,302.5,0.5,127,146.0
3685,C#4,302.5,0.5,127,146.0
3686,G#3,302.5,0.5,127,146.0
3687,C#3,302.5,0.5,127,146.0
3688,E-5,302.667,167/1000,102,146.0
3689,F5,302.833,167/1000,102,146.0
3690,E-5,303.0,167/1000,102,146.0
3691,C#4,303.0,0.5,127,146.0
3692,G#3,303.0,0.5,127,146.0
3693,C#3,303.0,0.5,127,146.0
3694,C#4,303.0,0.5,127,146.0
3695,G#3,303.0,0.5,127,146.0
3696,C#3,303.0,0.5,127,146.0
3697,F#2,303.0,1.0,95,146.0
3698,E2,303.0,1.0,95,146.0
3699,C#5,303.167,167/1000,102,146.0
3700,B4,303.333,167/1000,127,146.0
3701,B-4,303.5,2.5,102,146.0
3702,C#4,303.5,0.5,127,146.0
3703,G3,303.5,0.5,127,146.0
3704,C#3,303.5,0.5,127,146.0
3705,C#4,303.5,0.5,127,146.0
3706,G3,303.5,0.5,127,146.0
3707,C#3,303.5,0.5,127,146.0
3708,G#4,303.667,167/1000,102,146.0
3709,G4,303.833,1167/1000,102,146.0
3710,C#3,304.0,0.375,102,146.0
3711,C#3,304.0,0.375,102,146.0
3712,F#2,304.0,0.5,95,146.0
3713,C2,304.0,0.5,95,146.0
3714,C#3,304.5,0.375,102,146.0
3715,C#3,304.5,0.375,102,146.0
3716,C2,304.5,0.5,95,146.0
3717,C#3,305.0,0.375,102,146.0
3718,C#3,305.0,0.375,102,146.0
3719,B-2,305.0,1.0,95,146.0
3720,E2,305.0,1.0,95,146.0
3721,G#5,305.5,167/1000,127,146.0
3722,C#4,305.5,0.5,127,146.0
3723,G#3,305.5,0.5,127,146.0
3724,C#3,305.5,0.5,127,146.0
3725,C#4,305.5,0.5,127,146.0
3726,G#3,305.5,0.5,127,146.0
3727,C#3,305.5,0.5,127,146.0
3728,G5,305.667,167/1000,102,146.0
3729,F5,305.833,167/1000,102,146.0
3730,C#3,306.0,0.375,102,146.0
3731,C#3,306.0,0.375,102,146.0
3732,B-5,306.0,1.5,127,146.0
3733,B-4,306.0,4.0,102,146.0
3734,F#2,306.0,0.5,95,146.0
3735,C2,306.0,0.5,95,146.0
3736,C#3,306.5,0.375,102,146.0
3737,C#3,306.5,0.375,102,146.0
3738,C2,306.5,0.5,95,146.0
3739,C#4,307.0,0.5,127,146.0
3740,G#3,307.0,0.5,127,146.0
3741,C#3,307.0,0.5,127,146.0
3742,C#4,307.0,0.5,127,146.0
3743,G#3,307.0,0.5,127,146.0
3744,C#3,307.0,0.5,127,146.0
3745,F#2,307.0,1.0,95,146.0
3746,E2,307.0,1.0,95,146.0
3747,B-5,307.5,0.5,127,146.0
3748,C#4,307.5,0.5,127,146.0
3749,G#3,307.5,0.5,127,146.0
3750,C#3,307.5,0.5,127,146.0
3751,C#4,307.5,0.5,127,146.0
3752,G#3,307.5,0.5,127,146.0
3753,C#3,307.5,0.5,127,146.0
3754,B-5,308.0,1.0,127,146.0
3755,C#4,308.0,0.5,127,146.0
3756,G#3,308.0,0.5,127,146.0
3757,C#3,308.0,0.5,127,146.0
3758,C#4,308.0,0.5,127,146.0
3759,G#3,308.0,0.5,127,146.0
3760,C#3,308.0,0.5,127,146.0
3761,F#2,308.0,0.5,95,146.0
3762,C2,308.0,0.5,95,146.0
3763,C2,308.5,0.5,95,146.0
3764,C#4,308.5,0.5,127,146.0
3765,G3,308.5,0.5,127,146.0
3766,C#3,308.5,0.5,127,146.0
3767,C#4,308.5,0.5,127,146.0
3768,G3,308.5,0.5,127,146.0
3769,C#3,308.5,0.5,127,146.0
3770,C#3,309.0,0.375,102,146.0
3771,C#3,309.0,0.375,102,146.0
3772,B-5,309.0,1.0,127,146.0
3773,B-2,309.0,1.0,95,146.0
3774,E2,309.0,1.0,95,146.0
3775,C#3,309.5,0.375,102,146.0
3776,C#3,309.5,0.375,102,146.0
3777,B-5,310.0,2.0,127,146.0
3778,B-4,310.0,4.0,102,146.0
3779,C#4,310.0,0.5,127,146.0
3780,G#3,310.0,0.5,127,146.0
3781,C#3,310.0,0.5,127,146.0
3782,C#4,310.0,0.5,127,146.0
3783,G#3,310.0,0.5,127,146.0
3784,C#3,310.0,0.5,127,146.0
3785,F#2,310.0,0.5,95,146.0
3786,C2,310.0,0.5,95,146.0
3787,C2,310.5,0.5,95,146.0
3788,C#4,310.5,0.5,127,146.0
3789,G#3,310.5,0.5,127,146.0
3790,C#3,310.5,0.5,127,146.0
3791,C#4,310.5,0.5,127,146.0
3792,G#3,310.5,0.5,127,146.0
3793,C#3,310.5,0.5,127,146.0
3794,C#4,311.0,0.5,127,146.0
3795,G#3,311.0,0.5,127,146.0
3796,C#3,311.0,0.5,127,146.0
3797,C#4,311.0,0.5,127,146.0
3798,G#3,311.0,0.5,127,146.0
3799,C#3,311.0,0.5,127,146.0
3800,F#2,311.0,1.0,95,146.0
3801,E2,311.0,1.0,95,146.0
3802,C#4,311.5,0.5,127,146.0
3803,G3,311.5,0.5,127,146.0
3804,C#3,311.5,0.5,127,146.0
3805,C#4,311.5,0.5,127,146.0
3806,G3,311.5,0.5,127,146.0
3807,C#3,311.5,0.5,127,146.0
3808,C#3,312.0,0.375,102,146.0
3809,C#3,312.0,0.375,102,146.0
3810,F#2,312.0,0.5,95,146.0
3811,C2,312.0,0.5,95,146.0
3812,C#3,312.5,0.375,102,146.0
3813,C#3,312.5,0.375,102,146.0
3814,B5,312.5,1.0,127,146.0
3815,C2,312.5,0.5,95,146.0
3816,C#3,313.0,0.375,102,146.0
3817,C#3,313.0,0.375,102,146.0
3818,B-2,313.0,1.0,95,146.0
3819,E2,313.0,1.0,95,146.0
3820,B-5,313.5,0.5,127,146.0
3821,C#4,313.5,0.5,127,146.0
3822,G#3,313.5,0.5,127,146.0
3823,C#3,313.5,0.5,127,146.0
3824,C#4,313.5,0.5,127,146.0
3825,G#3,313.5,0.5,127,146.0
3826,C#3,313.5,0.5,127,146.0
3827,C#3,314.0,0.375,102,146.0
3828,C#3,314.0,0.375,102,146.0
3829,G#5,314.0,0.5,127,146.0
3830,B-4,314.0,3.5,102,146.0
3831,F#2,314.0,0.5,95,146.0
3832,C2,314.0,0.5,95,146.0
3833,C#3,314.5,0.375,102,146.0
3834,C#3,314.5,0.375,102,146.0
3835,F5,314.5,1.0,127,146.0
3836,C2,314.5,0.5,95,146.0
3837,C#4,315.0,0.5,127,146.0
3838,G#3,315.0,0.5,127,146.0
3839,C#3,315.0,0.5,127,146.0
3840,C#4,315.0,0.5,127,146.0
3841,G#3,315.0,0.5,127,146.0
3842,C#3,315.0,0.5,127,146.0
3843,F#2,315.0,1.0,95,146.0
3844,E2,315.0,1.0,95,146.0
3845,E-5,315.5,0.5,127,146.0
3846,C#4,315.5,0.5,127,146.0
3847,G#3,315.5,0.5,127,146.0
3848,C#3,315.5,0.5,127,146.0
3849,C#4,315.5,0.5,127,146.0
3850,G#3,315.5,0.5,127,146.0
3851,C#3,315.5,0.5,127,146.0
3852,B4,316.0,1.0,127,146.0
3853,C#4,316.0,0.5,127,146.0
3854,G#3,316.0,0.5,127,146.0
3855,C#3,316.0,0.5,127,146.0
3856,C#4,316.0,0.5,127,146.0
3857,G#3,316.0,0.5,127,146.0
3858,C#3,316.0,0.5,127,146.0
3859,F#2,316.0,0.5,95,146.0
3860,C2,316.0,0.5,95,146.0
3861,C2,316.5,0.5,95,146.0
3862,C#4,316.5,0.5,127,146.0
3863,G3,316.5,0.5,127,146.0
3864,C#3,316.5,0.5,127,146.0
3865,C#4,316.5,0.5,127,146.0
3866,G3,316.5,0.5,127,146.0
3867,C#3,316.5,0.5,127,146.0
3868,C#3,317.0,0.375,102,146.0
3869,C#3,317.0,0.375,102,146.0
3870,B-4,317.0,1.0,127,146.0
3871,B-2,317.0,1.0,95,146.0
3872,E2,317.0,1.0,95,146.0
3873,C#3,317.5,0.375,102,146.0
3874,C#3,317.5,0.375,102,146.0
3875,G#4,317.5,0.5,127,146.0
3876,G4,318.0,0.5,127,146.0
3877,B-4,318.0,4.0,127,146.0
3878,C#4,318.0,0.5,127,146.0
3879,G#3,318.0,0.5,127,146.0
3880,C#3,318.0,0.5,127,146.0
3881,C#4,318.0,0.5,127,146.0
3882,G#3,318.0,0.5,127,146.0
3883,C#3,318.0,0.5,127,146.0
3884,F#2,318.0,0.5,95,146.0
3885,C2,318.0,0.5,95,146.0
3886,F4,318.5,0.5,127,146.0
3887,C2,318.5,0.5,95,146.0
3888,C#4,318.5,0.5,127,146.0
3889,G#3,318.5,0.5,127,146.0
3890,C#3,318.5,0.5,127,146.0
3891,C#4,318.5,0.5,127,146.0
3892,G#3,318.5,0.5,127,146.0
3893,C#3,318.5,0.5,127,146.0
3894,E-4,319.0,0.5,127,146.0
3895,C#4,319.0,0.5,127,146.0
3896,G#3,319.0,0.5,127,146.0
3897,C#3,319.0,0.5,127,146.0
3898,C#4,319.0,0.5,127,146.0
3899,G#3,319.0,0.5,127,146.0
3900,C#3,319.0,0.5,127,146.0
3901,F#2,319.0,1.0,95,146.0
3902,E2,319.0,1.0,95,146.0
3903,E-5,319.5,0.5,127,146.0
3904,C#4,319.5,0.5,127,146.0
3905,G3,319.5,0.5,127,146.0
3906,C#3,319.5,0.5,127,146.0
3907,C#4,319.5,0.5,127,146.0
3908,G3,319.5,0.5,127,146.0
3909,C#3,319.5,0.5,127,146.0
3910,C#3,320.0,0.375,102,146.0
3911,C#3,320.0,0.375,102,146.0
3912,C#5,320.0,0.5,102,146.0
3913,F#2,320.0,0.5,95,146.0
3914,C2,320.0,0.5,95,146.0
3915,C#3,320.5,0.375,102,146.0
3916,C#3,320.5,0.375,102,146.0
3917,G#5,320.5,0.5,127,146.0
3918,C2,320.5,0.5,95,146.0
3919,C#3,321.0,0.375,102,146.0
3920,C#3,321.0,0.375,102,146.0
3921,G5,321.0,0.5,127,146.0
3922,B-2,321.0,1.0,95,146.0
3923,E2,321.0,1.0,95,146.0
3924,F#5,321.5,0.5,127,146.0
3925,C#4,321.5,0.5,127,146.0
3926,G#3,321.5,0.5,127,146.0
3927,C#3,321.5,0.5,127,146.0
3928,C#4,321.5,0.5,127,146.0
3929,G#3,321.5,0.5,127,146.0
3930,C#3,321.5,0.5,127,146.0
3931,F#5,322.0,0.125,101,146.0
3932,B-4,322.0,7479/500,127,146.0
3933,F#3,322.0,0.5,127,146.0
3934,B2,322.0,0.5,127,146.0
3935,F#3,322.0,0.5,127,146.0
3936,B2,322.0,0.5,127,146.0
3937,F#2,322.0,0.5,95,146.0
3938,C2,322.0,0.5,95,146.0
3939,G5,322.125,0.125,99,146.0
3940,F#5,322.25,0.125,101,146.0
3941,G5,322.375,0.125,91,146.0
3942,B2,322.5,0.375,102,146.0
3943,B2,322.5,0.375,102,146.0
3944,F#5,322.5,0.125,101,146.0
3945,C2,322.5,0.5,95,146.0
3946,G5,322.625,0.125,112,146.0
3947,F#5,322.75,0.125,101,146.0
3948,G5,322.875,0.125,94,146.0
3949,F#5,323.0,0.125,101,146.0
3950,F#3,323.0,0.5,127,146.0
3951,B2,323.0,0.5,127,146.0
3952,F#3,323.0,0.5,127,146.0
3953,B2,323.0,0.5,127,146.0
3954,F#2,323.0,1.0,95,146.0
3955,E2,323.0,1.0,95,146.0
3956,G5,323.125,0.125,111,146.0
3957,F#5,323.25,0.125,101,146.0
3958,G5,323.375,0.125,106,146.0
3959,B2,323.5,0.375,102,146.0
3960,B2,323.5,0.375,102,146.0
3961,F#5,323.5,0.125,101,146.0
3962,G5,323.625,0.125,92,146.0
3963,F#5,323.75,0.125,101,146.0
3964,G5,323.875,0.125,93,146.0
3965,B2,324.0,0.375,102,146.0
3966,B2,324.0,0.375,102,146.0
3967,E-5,324.0,0.125,101,146.0
3968,F#2,324.0,0.5,95,146.0
3969,C2,324.0,0.5,95,146.0
3970,E5,324.125,0.125,97,146.0
3971,E-5,324.25,0.125,101,146.0
3972,E5,324.375,0.125,95,146.0
3973,E-5,324.5,0.125,101,146.0
3974,C2,324.5,0.5,95,146.0
3975,F#3,324.5,0.5,127,146.0
3976,B2,324.5,0.5,127,146.0
3977,F#3,324.5,0.5,127,146.0
3978,B2,324.5,0.5,127,146.0
3979,E5,324.625,0.125,99,146.0
3980,E-5,324.75,0.125,101,146.0
3981,E5,324.875,0.125,95,146.0
3982,B2,325.0,0.375,102,146.0
3983,B2,325.0,0.375,102,146.0
3984,E-5,325.0,0.125,101,146.0
3985,B-2,325.0,1.0,95,146.0
3986,E2,325.0,1.0,95,146.0
3987,E5,325.125,0.125,102,146.0
3988,E-5,325.25,0.125,101,146.0
3989,E5,325.375,0.125,108,146.0
3990,A2,325.5,0.375,102,146.0
3991,A2,325.5,0.375,102,146.0
3992,E-5,325.5,0.125,101,146.0
3993,E5,325.625,0.125,103,146.0
3994,E-5,325.75,0.125,101,146.0
3995,B4,325.75,0.25,127,146.0
3996,E5,325.875,0.125,105,146.0
3997,F#3,326.0,0.5,127,146.0
3998,B2,326.0,0.5,127,146.0
3999,F#3,326.0,0.5,127,146.0
4000,B2,326.0,0.5,127,146.0
4001,F#2,326.0,0.5,95,146.0
4002,C2,326.0,0.5,95,146.0
4003,C2,326.5,0.5,95,146.0
4004,B3,326.5,0.5,127,146.0
4005,F#3,326.5,0.5,127,146.0
4006,B2,326.5,0.5,127,146.0
4007,B3,326.5,0.5,127,146.0
4008,F#3,326.5,0.5,127,146.0
4009,B2,326.5,0.5,127,146.0
4010,F#3,327.0,0.5,127,146.0
4011,B2,327.0,0.5,127,146.0
4012,F#3,327.0,0.5,127,146.0
4013,B2,327.0,0.5,127,146.0
4014,F#2,327.0,1.0,95,146.0
4015,E2,327.0,1.0,95,146.0
4016,G3,327.5,0.5,127,146.0
4017,C3,327.5,0.5,127,146.0
4018,G3,327.5,0.5,127,146.0
4019,C3,327.5,0.5,127,146.0
4020,G3,328.0,0.5,127,146.0
4021,C3,328.0,0.5,127,146.0
4022,G3,328.0,0.5,127,146.0
4023,C3,328.0,0.5,127,146.0
4024,F#2,328.0,0.5,95,146.0
4025,C2,328.0,0.5,95,146.0
4026,C2,328.5,0.5,95,146.0
4027,E3,328.5,0.5,127,146.0
4028,A2,328.5,0.5,127,146.0
4029,E3,328.5,0.5,127,146.0
4030,A2,328.5,0.5,127,146.0
4031,E3,329.0,0.5,127,146.0
4032,A2,329.0,0.5,127,146.0
4033,E3,329.0,0.5,127,146.0
4034,A2,329.0,0.5,127,146.0
4035,B-2,329.0,1.0,95,146.0
4036,E2,329.0,1.0,95,146.0
4037,F#3,329.5,0.5,127,146.0
4038,B2,329.5,0.5,127,146.0
4039,F#3,329.5,0.5,127,146.0
4040,B2,329.5,0.5,127,146.0
4041,B2,330.0,0.375,102,146.0
4042,B2,330.0,0.375,102,146.0
4043,F#2,330.0,0.5,95,146.0
4044,C2,330.0,0.5,95,146.0
4045,B2,330.5,0.375,102,146.0
4046,B2,330.5,0.375,102,146.0
4047,C2,330.5,0.5,95,146.0
4048,F#3,331.0,0.5,127,146.0
4049,B2,331.0,0.5,127,146.0
4050,F#3,331.0,0.5,127,146.0
4051,B2,331.0,0.5,127,146.0
4052,F#2,331.0,1.0,95,146.0
4053,E2,331.0,1.0,95,146.0
4054,B2,331.5,0.375,102,146.0
4055,B2,331.5,0.375,102,146.0
4056,B2,332.0,0.375,102,146.0
4057,B2,332.0,0.375,102,146.0
4058,F#2,332.0,0.5,95,146.0
4059,C2,332.0,0.5,95,146.0
4060,C2,332.5,0.5,95,146.0
4061,F#3,332.5,0.5,127,146.0
4062,B2,332.5,0.5,127,146.0
4063,F#3,332.5,0.5,127,146.0
4064,B2,332.5,0.5,127,146.0
4065,B2,333.0,0.375,102,146.0
4066,B2,333.0,0.375,102,146.0
4067,B-2,333.0,1.0,95,146.0
4068,E2,333.0,1.0,95,146.0
4069,A2,333.5,0.375,102,146.0
4070,A2,333.5,0.375,102,146.0
4071,F#3,334.0,0.5,127,146.0
4072,B2,334.0,0.5,127,146.0
4073,F#3,334.0,0.5,127,146.0
4074,B2,334.0,0.5,127,146.0
4075,F#2,334.0,0.5,95,146.0
4076,C2,334.0,0.5,95,146.0
4077,C2,334.5,0.5,95,146.0
4078,F#3,334.5,0.5,127,146.0
4079,B2,334.5,0.5,127,146.0
4080,F#3,334.5,0.5,127,146.0
4081,B2,334.5,0.5,127,146.0
4082,F#3,335.0,0.5,127,146.0
4083,B2,335.0,0.5,127,146.0
4084,F#3,335.0,0.5,127,146.0
4085,B2,335.0,0.5,127,146.0
4086,F#2,335.0,1.0,95,146.0
4087,E2,335.0,1.0,95,146.0
4088,A3,335.5,0.5,127,146.0
4089,D3,335.5,0.5,127,146.0
4090,A3,335.5,0.5,127,146.0
4091,D3,335.5,0.5,127,146.0
4092,A3,336.0,0.5,127,146.0
4093,D3,336.0,0.5,127,146.0
4094,A3,336.0,0.5,127,146.0
4095,D3,336.0,0.5,127,146.0
4096,F#2,336.0,0.5,95,146.0
4097,C2,336.0,0.5,95,146.0
4098,C2,336.5,0.5,95,146.0
4099,G3,336.5,0.5,127,146.0
4100,C3,336.5,0.5,127,146.0
4101,G3,336.5,0.5,127,146.0
4102,C3,336.5,0.5,127,146.0
4103,B4,336.958,167/1000,127,146.0
4104,G3,337.0,0.5,127,146.0
4105,C3,337.0,0.5,127,146.0
4106,G3,337.0,0.5,127,146.0
4107,C3,337.0,0.5,127,146.0
4108,B-2,337.0,1.0,95,146.0
4109,E2,337.0,1.0,95,146.0
4110,C5,337.125,167/1000,102,146.0
4111,B4,337.292,167/1000,102,146.0
4112,A4,337.458,167/1000,127,146.0
4113,F#3,337.5,0.5,127,146.0
4114,B2,337.5,0.5,127,146.0
4115,F#3,337.5,0.5,127,146.0
4116,B2,337.5,0.5,127,146.0
4117,G4,337.625,167/1000,102,146.0
4118,F#4,337.792,167/1000,102,146.0
4119,G4,337.958,167/1000,102,146.0
4120,B2,338.0,0.375,102,146.0
4121,B2,338.0,0.375,102,146.0
4122,F#2,338.0,0.5,95,146.0
4123,C2,338.0,0.5,95,146.0
4124,F#4,338.125,167/1000,102,146.0
4125,G4,338.292,167/1000,102,146.0
4126,F#4,338.458,0.25,102,146.0
4127,B2,338.5,0.375,102,146.0
4128,B2,338.5,0.375,102,146.0
4129,C2,338.5,0.5,95,146.0
4130,E4,338.708,0.25,127,146.0
4131,E-4,338.958,1.0,127,146.0
4132,F#3,339.0,0.5,127,146.0
4133,B2,339.0,0.5,127,146.0
4134,F#3,339.0,0.5,127,146.0
4135,B2,339.0,0.5,127,146.0
4136,F#2,339.0,1.0,95,146.0
4137,E2,339.0,1.0,95,146.0
4138,B2,339.5,0.375,102,146.0
4139,B2,339.5,0.375,102,146.0
4140,C4,339.958,0.188,102,146.0
4141,B2,340.0,0.375,102,146.0
4142,B2,340.0,0.375,102,146.0
4143,F#2,340.0,0.5,95,146.0
4144,C2,340.0,0.5,95,146.0
4145,B3,340.208,0.188,102,146.0
4146,A3,340.458,0.188,102,146.0
4147,C2,340.5,0.5,95,146.0
4148,F#3,340.5,0.5,127,146.0
4149,B2,340.5,0.5,127,146.0
4150,F#3,340.5,0.5,127,146.0
4151,B2,340.5,0.5,127,146.0
4152,G3,340.708,0.188,102,146.0
4153,F#3,340.958,0.188,102,146.0
4154,B2,341.0,0.375,102,146.0
4155,B2,341.0,0.375,102,146.0
4156,B-2,341.0,1.0,95,146.0
4157,E2,341.0,1.0,95,146.0
4158,E3,341.208,0.188,102,146.0
4159,E-4,341.458,2.0,127,146.0
4160,A2,341.5,0.375,102,146.0
4161,A2,341.5,0.375,102,146.0
4162,F#3,342.0,0.5,127,146.0
4163,B2,342.0,0.5,127,146.0
4164,F#3,342.0,0.5,127,146.0
4165,B2,342.0,0.5,127,146.0
4166,F#2,342.0,0.5,95,146.0
4167,C2,342.0,0.5,95,146.0
4168,C2,342.5,0.5,95,146.0
4169,B3,342.5,0.5,127,146.0
4170,F#3,342.5,0.5,127,146.0
4171,B2,342.5,0.5,127,146.0
4172,B3,342.5,0.5,127,146.0
4173,F#3,342.5,0.5,127,146.0
4174,B2,342.5,0.5,127,146.0
4175,F#3,343.0,0.5,127,146.0
4176,B2,343.0,0.5,127,146.0
4177,F#3,343.0,0.5,127,146.0
4178,B2,343.0,0.5,127,146.0
4179,F#2,343.0,1.0,95,146.0
4180,E2,343.0,1.0,95,146.0
4181,B2,343.458,0.188,102,146.0
4182,G3,343.5,0.5,127,146.0
4183,C3,343.5,0.5,127,146.0
4184,G3,343.5,0.5,127,146.0
4185,C3,343.5,0.5,127,146.0
4186,C3,343.708,0.188,102,146.0
4187,E-3,343.958,0.188,102,146.0
4188,G3,344.0,0.5,127,146.0
4189,C3,344.0,0.5,127,146.0
4190,G3,344.0,0.5,127,146.0
4191,C3,344.0,0.5,127,146.0
4192,F#2,344.0,0.5,95,146.0
4193,C2,344.0,0.5,95,146.0
4194,E3,344.208,0.188,102,146.0
4195,E-3,344.458,0.188,102,146.0
4196,C2,344.5,0.5,95,146.0
4197,E3,344.5,0.5,127,146.0
4198,A2,344.5,0.5,127,146.0
4199,E3,344.5,0.5,127,146.0
4200,A2,344.5,0.5,127,146.0
4201,E-3,344.708,0.188,102,146.0
4202,E3,344.958,0.188,102,146.0
4203,E3,345.0,0.5,127,146.0
4204,A2,345.0,0.5,127,146.0
4205,E3,345.0,0.5,127,146.0
4206,A2,345.0,0.5,127,146.0
4207,B-2,345.0,1.0,95,146.0
4208,E2,345.0,1.0,95,146.0
4209,F#3,345.208,0.188,102,146.0
4210,A3,345.458,0.188,102,146.0
4211,F#3,345.5,0.5,127,146.0
4212,B2,345.5,0.5,127,146.0
4213,F#3,345.5,0.5,127,146.0
4214,B2,345.5,0.5,127,146.0
4215,B3,345.708,0.188,102,146.0
4216,G#3,345.958,0.188,102,146.0
4217,B2,346.0,0.375,102,146.0
4218,B2,346.0,0.375,102,146.0
4219,F#2,346.0,0.5,95,146.0
4220,C2,346.0,0.5,95,146.0
4221,A3,346.208,0.188,102,146.0
4222,B3,346.458,0.188,102,146.0
4223,B2,346.5,0.375,102,146.0
4224,B2,346.5,0.375,102,146.0
4225,C2,346.5,0.5,95,146.0
4226,C4,346.708,0.188,102,146.0
4227,E-4,346.958,0.125,102,146.0
4228,F#3,347.0,0.5,127,146.0
4229,B2,347.0,0.5,127,146.0
4230,F#3,347.0,0.5,127,146.0
4231,B2,347.0,0.5,127,146.0
4232,F#2,347.0,1.0,95,146.0
4233,E2,347.0,1.0,95,146.0
4234,E4,347.125,0.125,102,146.0
4235,F#4,347.292,0.125,102,146.0
4236,G4,347.458,0.125,102,146.0
4237,B2,347.5,0.375,102,146.0
4238,B2,347.5,0.375,102,146.0
4239,A4,347.625,0.125,102,146.0
4240,B-4,347.792,1167/1000,102,146.0
4241,C5,347.958,83/1000,127,146.0
4242,B2,348.0,0.375,102,146.0
4243,B2,348.0,0.375,102,146.0
4244,F#2,348.0,0.5,95,146.0
4245,C2,348.0,0.5,95,146.0
4246,B4,348.042,83/1000,102,146.0
4247,A4,348.125,167/1000,127,146.0
4248,G4,348.292,167/1000,127,146.0
4249,G4,348.458,167/1000,127,146.0
4250,C2,348.5,0.5,95,146.0
4251,F#3,348.5,0.5,127,146.0
4252,B2,348.5,0.5,127,146.0
4253,F#3,348.5,0.5,127,146.0
4254,B2,348.5,0.5,127,146.0
4255,F#4,348.625,167/1000,127,146.0
4256,E4,348.792,167/1000,127,146.0
4257,B4,348.958,1.75,127,146.0
4258,B-4,348.958,4.0,102,146.0
4259,B2,349.0,0.375,102,146.0
4260,B2,349.0,0.375,102,146.0
4261,B-2,349.0,1.0,95,146.0
4262,E2,349.0,1.0,95,146.0
4263,A2,349.5,0.375,102,146.0
4264,A2,349.5,0.375,102,146.0
4265,F#3,350.0,0.5,127,146.0
4266,B2,350.0,0.5,127,146.0
4267,F#3,350.0,0.5,127,146.0
4268,B2,350.0,0.5,127,146.0
4269,F#2,350.0,0.5,95,146.0
4270,C2,350.0,0.5,95,146.0
4271,C2,350.5,0.5,95,146.0
4272,F#3,350.5,0.5,127,146.0
4273,B2,350.5,0.5,127,146.0
4274,F#3,350.5,0.5,127,146.0
4275,B2,350.5,0.5,127,146.0
4276,F#4,350.833,0.125,127,146.0
4277,A4,350.958,181/1000,127,146.0
4278,F#3,351.0,0.5,127,146.0
4279,B2,351.0,0.5,127,146.0
4280,F#3,351.0,0.5,127,146.0
4281,B2,351.0,0.5,127,146.0
4282,F#2,351.0,1.0,95,146.0
4283,E2,351.0,1.0,95,146.0
4284,C5,351.139,183/1000,127,146.0
4285,E-5,351.323,181/1000,127,146.0
4286,A3,351.5,0.5,127,146.0
4287,D3,351.5,0.5,127,146.0
4288,A3,351.5,0.5,127,146.0
4289,D3,351.5,0.5,127,146.0
4290,A4,351.504,181/1000,127,146.0
4291,E4,351.685,181/1000,127,146.0
4292,A4,351.867,91/1000,127,146.0
4293,C5,351.958,91/1000,127,146.0
4294,A3,352.0,0.5,127,146.0
4295,D3,352.0,0.5,127,146.0
4296,A3,352.0,0.5,127,146.0
4297,D3,352.0,0.5,127,146.0
4298,F#2,352.0,0.5,95,146.0
4299,C2,352.0,0.5,95,146.0
4300,E-5,352.05,181/1000,127,146.0
4301,F#5,352.231,181/1000,127,146.0
4302,C5,352.412,181/1000,127,146.0
4303,C2,352.5,0.5,95,146.0
4304,A3,352.5,0.5,127,146.0
4305,D3,352.5,0.5,127,146.0
4306,A3,352.5,0.5,127,146.0
4307,D3,352.5,0.5,127,146.0
4308,A4,352.594,183/1000,127,146.0
4309,A4,352.777,181/1000,127,146.0
4310,E-5,352.958,0.125,127,146.0
4311,B-4,352.958,4.0,102,146.0
4312,A3,353.0,0.5,127,146.0
4313,D3,353.0,0.5,127,146.0
4314,A3,353.0,0.5,127,146.0
4315,D3,353.0,0.5,127,146.0
4316,B-2,353.0,1.0,95,146.0
4317,E2,353.0,1.0,95,146.0
4318,F#5,353.083,0.125,127,146.0
4319,A5,353.208,0.125,127,146.0
4320,E-5,353.333,0.125,127,146.0
4321,A4,353.458,0.5,127,146.0
4322,A3,353.5,0.5,127,146.0
4323,D3,353.5,0.5,127,146.0
4324,A3,353.5,0.5,127,146.0
4325,D3,353.5,0.5,127,146.0
4326,A4,353.958,83/1000,127,146.0
4327,E2,354.0,0.375,102,146.0
4328,E2,354.0,0.375,102,146.0
4329,F#2,354.0,0.5,95,146.0
4330,C2,354.0,0.5,95,146.0
4331,C5,354.042,83/1000,127,146.0
4332,E-5,354.125,167/1000,127,146.0
4333,F#5,354.292,167/1000,127,146.0
4334,C5,354.458,167/1000,127,146.0
4335,E2,354.5,0.375,102,146.0
4336,E2,354.5,0.375,102,146.0
4337,C2,354.5,0.5,95,146.0
4338,G4,354.625,333/1000,127,146.0
4339,C5,354.958,0.125,127,146.0
4340,E4,355.0,0.5,127,146.0
4341,B3,355.0,0.5,127,146.0
4342,E3,355.0,0.5,127,146.0
4343,E4,355.0,0.5,127,146.0
4344,B3,355.0,0.5,127,146.0
4345,E3,355.0,0.5,127,146.0
4346,F#2,355.0,1.0,95,146.0
4347,E2,355.0,1.0,95,146.0
4348,E-5,355.083,0.125,127,146.0
4349,F#5,355.208,0.25,127,146.0
4350,A5,355.458,0.125,127,146.0
4351,E4,355.5,0.5,127,146.0
4352,B3,355.5,0.5,127,146.0
4353,E3,355.5,0.5,127,146.0
4354,E4,355.5,0.5,127,146.0
4355,B3,355.5,0.5,127,146.0
4356,E3,355.5,0.5,127,146.0
4357,E-5,355.583,0.125,127,146.0
4358,A4,355.708,0.25,127,146.0
4359,F#5,355.958,167/1000,127,146.0
4360,E4,356.0,0.5,127,146.0
4361,B3,356.0,0.5,127,146.0
4362,E3,356.0,0.5,127,146.0
4363,E4,356.0,0.5,127,146.0
4364,B3,356.0,0.5,127,146.0
4365,E3,356.0,0.5,127,146.0
4366,F#2,356.0,0.5,95,146.0
4367,C2,356.0,0.5,95,146.0
4368,A5,356.125,167/1000,127,146.0
4369,C6,356.292,167/1000,102,146.0
4370,C6,356.458,0.125,127,146.0
4371,C2,356.5,0.5,95,146.0
4372,E4,356.5,0.5,127,146.0
4373,B-3,356.5,0.5,127,146.0
4374,E3,356.5,0.5,127,146.0
4375,E4,356.5,0.5,127,146.0
4376,B-3,356.5,0.5,127,146.0
4377,E3,356.5,0.5,127,146.0
4378,F#5,356.583,0.125,127,146.0
4379,C5,356.708,0.25,127,146.0
4380,B4,356.958,0.125,127,146.0
4381,B-4,356.958,4.0,102,146.0
4382,E2,357.0,0.375,102,146.0
4383,E2,357.0,0.375,102,146.0
4384,B-2,357.0,1.0,95,146.0
4385,E2,357.0,1.0,95,146.0
4386,E-5,357.083,0.125,127,146.0
4387,F#5,357.208,0.125,127,146.0
4388,A5,357.333,0.125,102,146.0
4389,A5,357.458,0.125,127,146.0
4390,E2,357.5,0.375,102,146.0
4391,E2,357.5,0.375,102,146.0
4392,E-5,357.583,0.125,127,146.0
4393,A4,357.708,0.25,127,146.0
4394,E-5,357.958,0.125,127,146.0
4395,E4,358.0,0.5,127,146.0
4396,B3,358.0,0.5,127,146.0
4397,E3,358.0,0.5,127,146.0
4398,E4,358.0,0.5,127,146.0
4399,B3,358.0,0.5,127,146.0
4400,E3,358.0,0.5,127,146.0
4401,F#2,358.0,0.5,95,146.0
4402,C2,358.0,0.5,95,146.0
4403,F#5,358.083,0.125,127,146.0
4404,A5,358.208,0.25,127,146.0
4405,C6,358.458,167/1000,127,146.0
4406,C2,358.5,0.5,95,146.0
4407,E4,358.5,0.5,127,146.0
4408,B3,358.5,0.5,127,146.0
4409,E3,358.5,0.5,127,146.0
4410,E4,358.5,0.5,127,146.0
4411,B3,358.5,0.5,127,146.0
4412,E3,358.5,0.5,127,146.0
4413,F#5,358.625,167/1000,127,146.0
4414,C5,358.792,167/1000,127,146.0
4415,A5,358.958,0.125,127,146.0
4416,E4,359.0,0.5,127,146.0
4417,B3,359.0,0.5,127,146.0
4418,E3,359.0,0.5,127,146.0
4419,E4,359.0,0.5,127,146.0
4420,B3,359.0,0.5,127,146.0
4421,E3,359.0,0.5,127,146.0
4422,F#2,359.0,1.0,95,146.0
4423,E2,359.0,1.0,95,146.0
4424,C6,359.083,0.125,127,146.0
4425,E-6,359.208,0.125,102,146.0
4426,E-6,359.333,0.125,127,146.0
4427,A5,359.458,0.25,127,146.0
4428,E4,359.5,0.5,127,146.0
4429,B-3,359.5,0.5,127,146.0
4430,E3,359.5,0.5,127,146.0
4431,E4,359.5,0.5,127,146.0
4432,B-3,359.5,0.5,127,146.0
4433,E3,359.5,0.5,127,146.0
4434,E-5,359.708,0.25,127,146.0
4435,E-5,359.958,0.125,127,146.0
4436,E2,360.0,0.375,102,146.0
4437,E2,360.0,0.375,102,146.0
4438,F#2,360.0,0.5,95,146.0
4439,C2,360.0,0.5,95,146.0
4440,F#5,360.083,0.125,127,146.0
4441,A5,360.208,0.125,127,146.0
4442,C6,360.333,0.125,102,146.0
4443,C6,360.458,0.125,127,146.0
4444,E2,360.5,0.375,102,146.0
4445,E2,360.5,0.375,102,146.0
4446,C2,360.5,0.5,95,146.0
4447,F#5,360.583,0.125,127,146.0
4448,C5,360.708,0.25,127,146.0
4449,E5,360.958,0.125,127,146.0
4450,B-4,360.958,4.0,102,146.0
4451,E2,361.0,0.375,102,146.0
4452,E2,361.0,0.375,102,146.0
4453,B-2,361.0,1.0,95,146.0
4454,E2,361.0,1.0,95,146.0
4455,G5,361.083,0.125,127,146.0
4456,B-5,361.208,0.125,127,146.0
4457,C#6,361.333,0.125,102,146.0
4458,C#6,361.458,0.125,127,146.0
4459,E4,361.5,0.5,127,146.0
4460,B3,361.5,0.5,127,146.0
4461,E3,361.5,0.5,127,146.0
4462,E4,361.5,0.5,127,146.0
4463,B3,361.5,0.5,127,146.0
4464,E3,361.5,0.5,127,146.0
4465,G5,361.583,0.125,127,146.0
4466,C#5,361.708,0.25,127,146.0
4467,F5,361.958,0.125,127,146.0
4468,E2,362.0,0.375,102,146.0
4469,E2,362.0,0.375,102,146.0
4470,F#2,362.0,0.5,95,146.0
4471,C2,362.0,0.5,95,146.0
4472,G#5,362.083,0.125,127,146.0
4473,B5,362.208,0.125,127,146.0
4474,D6,362.333,0.125,102,146.0
4475,D6,362.458,0.125,127,146.0
4476,E2,362.5,0.375,102,146.0
4477,E2,362.5,0.375,102,146.0
4478,C2,362.5,0.5,95,146.0
4479,G#5,362.583,0.125,127,146.0
4480,G5,362.708,0.125,102,146.0
4481,D5,362.833,0.125,127,146.0
4482,F#5,362.958,0.125,127,146.0
4483,E4,363.0,0.5,127,146.0
4484,B3,363.0,0.5,127,146.0
4485,E3,363.0,0.5,127,146.0
4486,E4,363.0,0.5,127,146.0
4487,B3,363.0,0.5,127,146.0
4488,E3,363.0,0.5,127,146.0
4489,F#2,363.0,1.0,95,146.0
4490,E2,363.0,1.0,95,146.0
4491,A5,363.083,0.125,127,146.0
4492,C6,363.208,0.125,127,146.0
4493,E-6,363.333,0.125,102,146.0
4494,E-6,363.458,0.125,127,146.0
4495,E4,363.5,0.5,127,146.0
4496,B3,363.5,0.5,127,146.0
4497,E3,363.5,0.5,127,146.0
4498,E4,363.5,0.5,127,146.0
4499,B3,363.5,0.5,127,146.0
4500,E3,363.5,0.5,127,146.0
4501,A5,363.583,0.125,127,146.0
4502,E-5,363.708,0.25,127,146.0
4503,E6,363.958,1.0,127,146.0
4504,E4,364.0,0.5,127,146.0
4505,B3,364.0,0.5,127,146.0
4506,E3,364.0,0.5,127,146.0
4507,E4,364.0,0.5,127,146.0
4508,B3,364.0,0.5,127,146.0
4509,E3,364.0,0.5,127,146.0
4510,F#2,364.0,0.5,95,146.0
4511,C2,364.0,0.5,95,146.0
4512,C2,364.5,0.5,95,146.0
4513,E4,364.5,0.5,127,146.0
4514,B-3,364.5,0.5,127,146.0
4515,E3,364.5,0.5,127,146.0
4516,E4,364.5,0.5,127,146.0
4517,B-3,364.5,0.5,127,146.0
4518,E3,364.5,0.5,127,146.0
4519,B-4,364.958,3.0,102,146.0
4520,E2,365.0,0.375,102,146.0
4521,E2,365.0,0.375,102,146.0
4522,B-2,365.0,1.0,95,146.0
4523,E2,365.0,1.0,95,146.0
4524,E2,365.5,0.375,102,146.0
4525,E2,365.5,0.375,102,146.0
4526,G#4,365.708,1.25,127,146.0
4527,C#4,366.0,0.5,127,146.0
4528,E3,366.0,0.5,127,146.0
4529,C#4,366.0,0.5,127,146.0
4530,E3,366.0,0.5,127,146.0
4531,F#2,366.0,0.5,95,146.0
4532,C2,366.0,0.5,95,146.0
4533,C2,366.5,0.5,95,146.0
4534,C#4,366.5,0.5,127,146.0
4535,E3,366.5,0.5,127,146.0
4536,C#4,366.5,0.5,127,146.0
4537,E3,366.5,0.5,127,146.0
4538,C#4,367.0,0.5,127,146.0
4539,E3,367.0,0.5,127,146.0
4540,C#4,367.0,0.5,127,146.0
4541,E3,367.0,0.5,127,146.0
4542,F#2,367.0,1.0,95,146.0
4543,E2,367.0,1.0,95,146.0
4544,B-4,367.458,1.5,127,146.0
4545,E4,367.5,0.5,127,146.0
4546,B3,367.5,0.5,127,146.0
4547,E3,367.5,0.5,127,146.0
4548,E4,367.5,0.5,127,146.0
4549,B3,367.5,0.5,127,146.0
4550,E3,367.5,0.5,127,146.0
4551,E2,368.0,0.375,102,146.0
4552,E2,368.0,0.375,102,146.0
4553,F#2,368.0,0.5,95,146.0
4554,C2,368.0,0.5,95,146.0
4555,E2,368.5,0.375,102,146.0
4556,E2,368.5,0.375,102,146.0
4557,C2,368.5,0.5,95,146.0
4558,B4,368.958,1.0,127,146.0
4559,B-4,368.958,2.5,127,146.0
4560,E2,369.0,0.375,102,146.0
4561,E2,369.0,0.375,102,146.0
4562,B-2,369.0,1.0,95,146.0
4563,E2,369.0,1.0,95,146.0
4564,E4,369.5,0.5,127,146.0
4565,B3,369.5,0.5,127,146.0
4566,E3,369.5,0.5,127,146.0
4567,E4,369.5,0.5,127,146.0
4568,B3,369.5,0.5,127,146.0
4569,E3,369.5,0.5,127,146.0
4570,E2,370.0,0.375,102,146.0
4571,E2,370.0,0.375,102,146.0
4572,F#2,370.0,0.5,95,146.0
4573,C2,370.0,0.5,95,146.0
4574,B-4,370.458,2.5,127,146.0
4575,E2,370.5,0.375,102,146.0
4576,E2,370.5,0.375,102,146.0
4577,C2,370.5,0.5,95,146.0
4578,E4,371.0,0.5,127,146.0
4579,B3,371.0,0.5,127,146.0
4580,E3,371.0,0.5,127,146.0
4581,E4,371.0,0.5,127,146.0
4582,B3,371.0,0.5,127,146.0
4583,E3,371.0,0.5,127,146.0
4584,F#2,371.0,1.0,95,146.0
4585,E2,371.0,1.0,95,146.0
4586,G#4,371.458,0.5,127,146.0
4587,E4,371.5,0.5,127,146.0
4588,B3,371.5,0.5,127,146.0
4589,E3,371.5,0.5,127,146.0
4590,E4,371.5,0.5,127,146.0
4591,B3,371.5,0.5,127,146.0
4592,E3,371.5,0.5,127,146.0
4593,G#4,371.958,1.0,127,146.0
4594,E4,372.0,0.5,127,146.0
4595,B3,372.0,0.5,127,146.0
4596,E3,372.0,0.5,127,146.0
4597,E4,372.0,0.5,127,146.0
4598,B3,372.0,0.5,127,146.0
4599,E3,372.0,0.5,127,146.0
4600,F#2,372.0,0.5,95,146.0
4601,C2,372.0,0.5,95,146.0
4602,C2,372.5,0.5,95,146.0
4603,E4,372.5,0.5,127,146.0
4604,B-3,372.5,0.5,127,146.0
4605,E3,372.5,0.5,127,146.0
4606,E4,372.5,0.5,127,146.0
4607,B-3,372.5,0.5,127,146.0
4608,E3,372.5,0.5,127,146.0
4609,B-4,372.958,3.0,127,146.0
4610,G#4,372.958,1.0,127,146.0
4611,E2,373.0,0.375,102,146.0
4612,E2,373.0,0.375,102,146.0
4613,B-2,373.0,1.0,95,146.0
4614,E2,373.0,1.0,95,146.0
4615,E2,373.5,0.375,102,146.0
4616,E2,373.5,0.375,102,146.0
4617,G#4,373.958,1.0,127,146.0
4618,E4,374.0,0.5,127,146.0
4619,B3,374.0,0.5,127,146.0
4620,E3,374.0,0.5,127,146.0
4621,E4,374.0,0.5,127,146.0
4622,B3,374.0,0.5,127,146.0
4623,E3,374.0,0.5,127,146.0
4624,F#2,374.0,0.5,95,146.0
4625,C2,374.0,0.5,95,146.0
4626,C2,374.5,0.5,95,146.0
4627,E4,374.5,0.5,127,146.0
4628,B3,374.5,0.5,127,146.0
4629,E3,374.5,0.5,127,146.0
4630,E4,374.5,0.5,127,146.0
4631,B3,374.5,0.5,127,146.0
4632,E3,374.5,0.5,127,146.0
4633,E4,375.0,0.5,127,146.0
4634,B3,375.0,0.5,127,146.0
4635,E3,375.0,0.5,127,146.0
4636,E4,375.0,0.5,127,146.0
4637,B3,375.0,0.5,127,146.0
4638,E3,375.0,0.5,127,146.0
4639,F#2,375.0,1.0,95,146.0
4640,E2,375.0,1.0,95,146.0
4641,B-4,375.458,1.5,127,146.0
4642,E4,375.5,0.5,127,146.0
4643,B-3,375.5,0.5,127,146.0
4644,E3,375.5,0.5,127,146.0
4645,E4,375.5,0.5,127,146.0
4646,B-3,375.5,0.5,127,146.0
4647,E3,375.5,0.5,127,146.0
4648,E2,376.0,0.375,102,146.0
4649,E2,376.0,0.375,102,146.0
4650,F#2,376.0,0.5,95,146.0
4651,C2,376.0,0.5,95,146.0
4652,E2,376.5,0.375,102,146.0
4653,E2,376.5,0.375,102,146.0
4654,C2,376.5,0.5,95,146.0
4655,C#5,376.794,33/200,127,146.0
4656,B-4,376.958,4.0,127,146.0
4657,C#5,376.958,1,127,146.0
4658,E2,377.0,0.375,102,146.0
4659,E2,377.0,0.375,102,146.0
4660,B-2,377.0,1.0,95,146.0
4661,E2,377.0,1.0,95,146.0
4662,E4,377.5,0.5,127,146.0
4663,B3,377.5,0.5,127,146.0
4664,E3,377.5,0.5,127,146.0
4665,E4,377.5,0.5,127,146.0
4666,B3,377.5,0.5,127,146.0
4667,E3,377.5,0.5,127,146.0
4668,E2,378.0,0.375,102,146.0
4669,E2,378.0,0.375,102,146.0
4670,F#2,378.0,0.5,95,146.0
4671,C2,378.0,0.5,95,146.0
4672,B4,378.458,1.0,127,146.0
4673,E2,378.5,0.375,102,146.0
4674,E2,378.5,0.375,102,146.0
4675,C2,378.5,0.5,95,146.0
4676,E4,379.0,0.5,127,146.0
4677,B3,379.0,0.5,127,146.0
4678,E3,379.0,0.5,127,146.0
4679,E4,379.0,0.5,127,146.0
4680,B3,379.0,0.5,127,146.0
4681,E3,379.0,0.5,127,146.0
4682,F#2,379.0,1.0,95,146.0
4683,E2,379.0,1.0,95,146.0
4684,E4,379.5,0.5,127,146.0
4685,B3,379.5,0.5,127,146.0
4686,E3,379.5,0.5,127,146.0
4687,E4,379.5,0.5,127,146.0
4688,B3,379.5,0.5,127,146.0
4689,E3,379.5,0.5,127,146.0
4690,B-4,379.958,1.0,127,146.0
4691,E4,380.0,0.5,127,146.0
4692,B3,380.0,0.5,127,146.0
4693,E3,380.0,0.5,127,146.0
4694,E4,380.0,0.5,127,146.0
4695,B3,380.0,0.5,127,146.0
4696,E3,380.0,0.5,127,146.0
4697,F#2,380.0,0.5,95,146.0
4698,C2,380.0,0.5,95,146.0
4699,C2,380.5,0.5,95,146.0
4700,E4,380.5,0.5,127,146.0
4701,B-3,380.5,0.5,127,146.0
4702,E3,380.5,0.5,127,146.0
4703,E4,380.5,0.5,127,146.0
4704,B-3,380.5,0.5,127,146.0
4705,E3,380.5,0.5,127,146.0
4706,B-4,380.958,1.0,127,146.0
4707,B-4,380.958,3.0,127,146.0
4708,E2,381.0,0.375,102,146.0
4709,E2,381.0,0.375,102,146.0
4710,B-2,381.0,1.0,95,146.0
4711,E2,381.0,1.0,95,146.0
4712,E4,381.5,0.5,127,146.0
4713,B3,381.5,0.5,127,146.0
4714,E3,381.5,0.5,127,146.0
4715,E4,381.5,0.5,127,146.0
4716,B3,381.5,0.5,127,146.0
4717,E3,381.5,0.5,127,146.0
4718,G#4,381.958,1.0,127,146.0
4719,E4,382.0,0.5,127,146.0
4720,B3,382.0,0.5,127,146.0
4721,E3,382.0,0.5,127,146.0
4722,E4,382.0,0.5,127,146.0
4723,B3,382.0,0.5,127,146.0
4724,E3,382.0,0.5,127,146.0
4725,F#2,382.0,0.5,95,146.0
4726,C2,382.0,0.5,95,146.0
4727,E2,382.5,0.188,102,146.0
4728,E2,382.5,0.188,102,146.0
4729,C2,382.5,0.5,95,146.0
4730,E2,382.75,0.188,102,146.0
4731,E2,382.75,0.188,102,146.0
4732,B-2,383.0,0.375,102,146.0
4733,B-2,383.0,0.375,102,146.0
4734,F#2,383.0,1.0,95,146.0
4735,E2,383.0,1.0,95,146.0
4736,B-4,383.458,1.5,127,146.0
4737,B2,383.5,0.375,102,146.0
4738,B2,383.5,0.375,102,146.0
4739,E3,384.0,0.5,127,146.0
4740,E3,384.0,0.5,127,146.0
4741,F#2,384.0,0.5,95,146.0
4742,C2,384.0,0.5,95,146.0
4743,B2,384.5,0.5,127,146.0
4744,B2,384.5,0.5,127,146.0
4745,C2,384.5,0.5,95,146.0
4746,B4,384.794,33/200,127,146.0
4747,B-4,384.958,2.25,127,146.0
4748,B4,384.958,1,127,146.0
4749,B-2,385.0,0.5,127,146.0
4750,B-2,385.0,0.5,127,146.0
4751,B-2,385.0,1.0,95,146.0
4752,E2,385.0,1.0,95,146.0
4753,G#2,385.5,0.5,127,146.0
4754,G#2,385.5,0.5,127,146.0
4755,E2,386.0,0.375,102,146.0
4756,E2,386.0,0.375,102,146.0
4757,F#2,386.0,0.5,95,146.0
4758,C2,386.0,0.5,95,146.0
4759,B-4,386.458,2.5,127,146.0
4760,E2,386.5,0.375,102,146.0
4761,E2,386.5,0.375,102,146.0
4762,C2,386.5,0.5,95,146.0
4763,E4,387.0,0.5,127,146.0
4764,B3,387.0,0.5,127,146.0
4765,E3,387.0,0.5,127,146.0
4766,E4,387.0,0.5,127,146.0
4767,B3,387.0,0.5,127,146.0
4768,E3,387.0,0.5,127,146.0
4769,F#2,387.0,1.0,95,146.0
4770,E2,387.0,1.0,95,146.0
4771,G#4,387.208,0.75,127,146.0
4772,E4,387.5,0.5,127,146.0
4773,B3,387.5,0.5,127,146.0
4774,E3,387.5,0.5,127,146.0
4775,E4,387.5,0.5,127,146.0
4776,B3,387.5,0.5,127,146.0
4777,E3,387.5,0.5,127,146.0
4778,G#4,387.958,1.0,127,146.0
4779,E4,388.0,0.5,127,146.0
4780,B3,388.0,0.5,127,146.0
4781,E3,388.0,0.5,127,146.0
4782,E4,388.0,0.5,127,146.0
4783,B3,388.0,0.5,127,146.0
4784,E3,388.0,0.5,127,146.0
4785,F#2,388.0,0.5,95,146.0
4786,C2,388.0,0.5,95,146.0
4787,C2,388.5,0.5,95,146.0
4788,E4,388.5,0.5,127,146.0
4789,B-3,388.5,0.5,127,146.0
4790,E3,388.5,0.5,127,146.0
4791,E4,388.5,0.5,127,146.0
4792,B-3,388.5,0.5,127,146.0
4793,E3,388.5,0.5,127,146.0
4794,B-4,388.958,3.0,127,146.0
4795,G#4,388.958,2.0,127,146.0
4796,E2,389.0,0.375,102,146.0
4797,E2,389.0,0.375,102,146.0
4798,B-2,389.0,1.0,95,146.0
4799,E2,389.0,1.0,95,146.0
4800,E2,389.5,0.375,102,146.0
4801,E2,389.5,0.375,102,146.0
4802,E4,390.0,0.5,127,146.0
4803,B3,390.0,0.5,127,146.0
4804,E3,390.0,0.5,127,146.0
4805,E4,390.0,0.5,127,146.0
4806,B3,390.0,0.5,127,146.0
4807,E3,390.0,0.5,127,146.0
4808,F#2,390.0,0.5,95,146.0
4809,C2,390.0,0.5,95,146.0
4810,C2,390.5,0.5,95,146.0
4811,E4,390.5,0.5,127,146.0
4812,B3,390.5,0.5,127,146.0
4813,E3,390.5,0.5,127,146.0
4814,E4,390.5,0.5,127,146.0
4815,B3,390.5,0.5,127,146.0
4816,E3,390.5,0.5,127,146.0
4817,B4,390.958,0.25,127,146.0
4818,E4,391.0,0.5,127,146.0
4819,B3,391.0,0.5,127,146.0
4820,E3,391.0,0.5,127,146.0
4821,E4,391.0,0.5,127,146.0
4822,B3,391.0,0.5,127,146.0
4823,E3,391.0,0.5,127,146.0
4824,F#2,391.0,1.0,95,146.0
4825,E2,391.0,1.0,95,146.0
4826,B3,391.208,0.25,127,146.0
4827,B3,391.458,0.25,127,146.0
4828,E4,391.5,0.5,127,146.0
4829,B-3,391.5,0.5,127,146.0
4830,E3,391.5,0.5,127,146.0
4831,E4,391.5,0.5,127,146.0
4832,B-3,391.5,0.5,127,146.0
4833,E3,391.5,0.5,127,146.0
4834,B-4,391.708,1.25,127,146.0
4835,B3,391.958,0.25,127,146.0
4836,E2,392.0,0.375,102,146.0
4837,E2,392.0,0.375,102,146.0
4838,F#2,392.0,0.5,95,146.0
4839,C2,392.0,0.5,95,146.0
4840,B3,392.208,0.25,127,146.0
4841,B4,392.458,0.25,127,146.0
4842,E2,392.5,0.375,102,146.0
4843,E2,392.5,0.375,102,146.0
4844,C2,392.5,0.5,95,146.0
4845,B3,392.708,0.25,127,146.0
4846,B3,392.958,0.25,127,146.0
4847,B-4,392.958,0.5,127,146.0
4848,E2,393.0,0.375,102,146.0
4849,E2,393.0,0.375,102,146.0
4850,B-2,393.0,1.0,95,146.0
4851,E2,393.0,1.0,95,146.0
4852,B-4,393.208,2.5,127,146.0
4853,B3,393.458,0.25,127,146.0
4854,E4,393.5,0.5,127,146.0
4855,B3,393.5,0.5,127,146.0
4856,E3,393.5,0.5,127,146.0
4857,E4,393.5,0.5,127,146.0
4858,B3,393.5,0.5,127,146.0
4859,E3,393.5,0.5,127,146.0
4860,B3,393.708,0.25,127,146.0
4861,C#5,393.958,0.25,127,146.0
4862,E2,394.0,0.375,102,146.0
4863,E2,394.0,0.375,102,146.0
4864,F#2,394.0,0.5,95,146.0
4865,C2,394.0,0.5,95,146.0
4866,B3,394.208,0.25,127,146.0
4867,B3,394.458,0.25,127,146.0
4868,E2,394.5,0.375,102,146.0
4869,E2,394.5,0.375,102,146.0
4870,C2,394.5,0.5,95,146.0
4871,B4,394.708,0.25,127,146.0
4872,B3,394.958,0.25,127,146.0
4873,E4,395.0,0.5,127,146.0
4874,B3,395.0,0.5,127,146.0
4875,E3,395.0,0.5,127,146.0
4876,E4,395.0,0.5,127,146.0
4877,B3,395.0,0.5,127,146.0
4878,E3,395.0,0.5,127,146.0
4879,F#2,395.0,1.0,95,146.0
4880,E2,395.0,1.0,95,146.0
4881,B3,395.208,0.25,127,146.0
4882,B-4,395.458,1.5,127,146.0
4883,E4,395.5,0.5,127,146.0
4884,B3,395.5,0.5,127,146.0
4885,E3,395.5,0.5,127,146.0
4886,E4,395.5,0.5,127,146.0
4887,B3,395.5,0.5,127,146.0
4888,E3,395.5,0.5,127,146.0
4889,B3,395.708,0.25,127,146.0
4890,B3,395.958,0.25,127,146.0
4891,E4,396.0,0.5,127,146.0
4892,B3,396.0,0.5,127,146.0
4893,E3,396.0,0.5,127,146.0
4894,E4,396.0,0.5,127,146.0
4895,B3,396.0,0.5,127,146.0
4896,E3,396.0,0.5,127,146.0
4897,F#2,396.0,0.5,95,146.0
4898,C2,396.0,0.5,95,146.0
4899,F#4,396.208,0.25,127,146.0
4900,B3,396.458,0.25,127,146.0
4901,C2,396.5,0.5,95,146.0
4902,E4,396.5,0.5,127,146.0
4903,B-3,396.5,0.5,127,146.0
4904,E3,396.5,0.5,127,146.0
4905,E4,396.5,0.5,127,146.0
4906,B-3,396.5,0.5,127,146.0
4907,E3,396.5,0.5,127,146.0
4908,B3,396.708,0.25,127,146.0
4909,G#4,396.958,0.5,127,146.0
4910,B-4,396.958,3.0,127,146.0
4911,E2,397.0,0.375,102,146.0
4912,E2,397.0,0.375,102,146.0
4913,B-2,397.0,1.0,95,146.0
4914,E2,397.0,1.0,95,146.0
4915,E2,397.5,0.375,102,146.0
4916,E2,397.5,0.375,102,146.0
4917,G#4,397.794,291/250,127,146.0
4918,C#4,398.0,0.5,127,146.0
4919,E3,398.0,0.5,127,146.0
4920,C#4,398.0,0.5,127,146.0
4921,E3,398.0,0.5,127,146.0
4922,F#2,398.0,0.5,95,146.0
4923,C2,398.0,0.5,95,146.0
4924,C2,398.5,0.5,95,146.0
4925,C#4,398.5,0.5,127,146.0
4926,E3,398.5,0.5,127,146.0
4927,C#4,398.5,0.5,127,146.0
4928,E3,398.5,0.5,127,146.0
4929,C#4,399.0,0.5,127,146.0
4930,E3,399.0,0.5,127,146.0
4931,C#4,399.0,0.5,127,146.0
4932,E3,399.0,0.5,127,146.0
4933,F#2,399.0,1.0,95,146.0
4934,E2,399.0,1.0,95,146.0
4935,B-4,399.458,1.5,127,146.0
4936,E4,399.5,0.5,127,146.0
4937,B3,399.5,0.5,127,146.0
4938,E3,399.5,0.5,127,146.0
4939,E4,399.5,0.5,127,146.0
4940,B3,399.5,0.5,127,146.0
4941,E3,399.5,0.5,127,146.0
4942,E2,400.0,0.375,102,146.0
4943,E2,400.0,0.375,102,146.0
4944,F#2,400.0,0.5,95,146.0
4945,C2,400.0,0.5,95,146.0
4946,E2,400.5,0.375,102,146.0
4947,E2,400.5,0.375,102,146.0
4948,C2,400.5,0.5,95,146.0
4949,B4,400.958,1.0,127,146.0
4950,B-4,400.958,2.5,127,146.0
4951,E2,401.0,0.375,102,146.0
4952,E2,401.0,0.375,102,146.0
4953,B-2,401.0,1.0,95,146.0
4954,E2,401.0,1.0,95,146.0
4955,E4,401.5,0.5,127,146.0
4956,B3,401.5,0.5,127,146.0
4957,E3,401.5,0.5,127,146.0
4958,E4,401.5,0.5,127,146.0
4959,B3,401.5,0.5,127,146.0
4960,E3,401.5,0.5,127,146.0
4961,E2,402.0,0.375,102,146.0
4962,E2,402.0,0.375,102,146.0
4963,F#2,402.0,0.5,95,146.0
4964,C2,402.0,0.5,95,146.0
4965,B-4,402.458,2.5,127,146.0
4966,E2,402.5,0.375,102,146.0
4967,E2,402.5,0.375,102,146.0
4968,C2,402.5,0.5,95,146.0
4969,E4,403.0,0.5,127,146.0
4970,B3,403.0,0.5,127,146.0
4971,E3,403.0,0.5,127,146.0
4972,E4,403.0,0.5,127,146.0
4973,B3,403.0,0.5,127,146.0
4974,E3,403.0,0.5,127,146.0
4975,F#2,403.0,1.0,95,146.0
4976,E2,403.0,1.0,95,146.0
4977,G#4,403.458,0.5,127,146.0
4978,E4,403.5,0.5,127,146.0
4979,B3,403.5,0.5,127,146.0
4980,E3,403.5,0.5,127,146.0
4981,E4,403.5,0.5,127,146.0
4982,B3,403.5,0.5,127,146.0
4983,E3,403.5,0.5,127,146.0
4984,G#4,403.958,1.0,127,146.0
4985,E4,404.0,0.5,127,146.0
4986,B3,404.0,0.5,127,146.0
4987,E3,404.0,0.5,127,146.0
4988,E4,404.0,0.5,127,146.0
4989,B3,404.0,0.5,127,146.0
4990,E3,404.0,0.5,127,146.0
4991,F#2,404.0,0.5,95,146.0
4992,C2,404.0,0.5,95,146.0
4993,C2,404.5,0.5,95,146.0
4994,E4,404.5,0.5,127,146.0
4995,B-3,404.5,0.5,127,146.0
4996,E3,404.5,0.5,127,146.0
4997,E4,404.5,0.5,127,146.0
4998,B-3,404.5,0.5,127,146.0
4999,E3,404.5,0.5,127,146.0
5000,B-4,404.958,3.0,127,146.0
5001,G#4,404.958,1.0,127,146.0
5002,E2,405.0,0.375,102,146.0
5003,E2,405.0,0.375,102,146.0
5004,B-2,405.0,1.0,95,146.0
5005,E2,405.0,1.0,95,146.0
5006,E2,405.5,0.375,102,146.0
5007,E2,405.5,0.375,102,146.0
5008,G#4,405.958,1.0,127,146.0
5009,E4,406.0,0.5,127,146.0
5010,B3,406.0,0.5,127,146.0
5011,E3,406.0,0.5,127,146.0
5012,E4,406.0,0.5,127,146.0
5013,B3,406.0,0.5,127,146.0
5014,E3,406.0,0.5,127,146.0
5015,F#2,406.0,0.5,95,146.0
5016,C2,406.0,0.5,95,146.0
5017,C2,406.5,0.5,95,146.0
5018,E4,406.5,0.5,127,146.0
5019,B3,406.5,0.5,127,146.0
5020,E3,406.5,0.5,127,146.0
5021,E4,406.5,0.5,127,146.0
5022,B3,406.5,0.5,127,146.0
5023,E3,406.5,0.5,127,146.0
5024,E4,407.0,0.5,127,146.0
5025,B3,407.0,0.5,127,146.0
5026,E3,407.0,0.5,127,146.0
5027,E4,407.0,0.5,127,146.0
5028,B3,407.0,0.5,127,146.0
5029,E3,407.0,0.5,127,146.0
5030,F#2,407.0,1.0,95,146.0
5031,E2,407.0,1.0,95,146.0
5032,B-4,407.458,1.5,127,146.0
5033,E4,407.5,0.5,127,146.0
5034,B-3,407.5,0.5,127,146.0
5035,E3,407.5,0.5,127,146.0
5036,E4,407.5,0.5,127,146.0
5037,B-3,407.5,0.5,127,146.0
5038,E3,407.5,0.5,127,146.0
5039,E2,408.0,0.375,102,146.0
5040,E2,408.0,0.375,102,146.0
5041,F#2,408.0,0.5,95,146.0
5042,C2,408.0,0.5,95,146.0
5043,C#5,408.458,0.5,127,146.0
5044,E2,408.5,0.375,102,146.0
5045,E2,408.5,0.375,102,146.0
5046,C2,408.5,0.5,95,146.0
5047,B-4,408.958,4.0,127,146.0
5048,C#5,408.958,1.5,127,146.0
5049,E2,409.0,0.375,102,146.0
5050,E2,409.0,0.375,102,146.0
5051,B-2,409.0,1.0,95,146.0
5052,E2,409.0,1.0,95,146.0
5053,E4,409.5,0.5,127,146.0
5054,B3,409.5,0.5,127,146.0
5055,E3,409.5,0.5,127,146.0
5056,E4,409.5,0.5,127,146.0
5057,B3,409.5,0.5,127,146.0
5058,E3,409.5,0.5,127,146.0
5059,E2,410.0,0.375,102,146.0
5060,E2,410.0,0.375,102,146.0
5061,F#2,410.0,0.5,95,146.0
5062,C2,410.0,0.5,95,146.0
5063,B4,410.458,1.0,127,146.0
5064,E2,410.5,0.375,102,146.0
5065,E2,410.5,0.375,102,146.0
5066,C2,410.5,0.5,95,146.0
5067,E4,411.0,0.5,127,146.0
5068,B3,411.0,0.5,127,146.0
5069,E3,411.0,0.5,127,146.0
5070,E4,411.0,0.5,127,146.0
5071,B3,411.0,0.5,127,146.0
5072,E3,411.0,0.5,127,146.0
5073,F#2,411.0,1.0,95,146.0
5074,E2,411.0,1.0,95,146.0
5075,B-4,411.458,1.5,127,146.0
5076,E4,411.5,0.5,127,146.0
5077,B3,411.5,0.5,127,146.0
5078,E3,411.5,0.5,127,146.0
5079,E4,411.5,0.5,127,146.0
5080,B3,411.5,0.5,127,146.0
5081,E3,411.5,0.5,127,146.0
5082,E4,412.0,0.5,127,146.0
5083,B3,412.0,0.5,127,146.0
5084,E3,412.0,0.5,127,146.0
5085,E4,412.0,0.5,127,146.0
5086,B3,412.0,0.5,127,146.0
5087,E3,412.0,0.5,127,146.0
5088,F#2,412.0,0.5,95,146.0
5089,C2,412.0,0.5,95,146.0
5090,C2,412.5,0.5,95,146.0
5091,E4,412.5,0.5,127,146.0
5092,B-3,412.5,0.5,127,146.0
5093,E3,412.5,0.5,127,146.0
5094,E4,412.5,0.5,127,146.0
5095,B-3,412.5,0.5,127,146.0
5096,E3,412.5,0.5,127,146.0
5097,B-4,412.958,1.0,127,146.0
5098,B-4,412.958,3.0,127,146.0
5099,E2,413.0,0.375,102,146.0
5100,E2,413.0,0.375,102,146.0
5101,B-2,413.0,1.0,95,146.0
5102,E2,413.0,1.0,95,146.0
5103,E4,413.5,0.5,127,146.0
5104,B3,413.5,0.5,127,146.0
5105,E3,413.5,0.5,127,146.0
5106,E4,413.5,0.5,127,146.0
5107,B3,413.5,0.5,127,146.0
5108,E3,413.5,0.5,127,146.0
5109,G#4,413.708,1.25,127,146.0
5110,E4,414.0,0.5,127,146.0
5111,B3,414.0,0.5,127,146.0
5112,E3,414.0,0.5,127,146.0
5113,E4,414.0,0.5,127,146.0
5114,B3,414.0,0.5,127,146.0
5115,E3,414.0,0.5,127,146.0
5116,F#2,414.0,0.5,95,146.0
5117,C2,414.0,0.5,95,146.0
5118,E2,414.5,0.188,102,146.0
5119,E2,414.5,0.188,102,146.0
5120,C2,414.5,0.5,95,146.0
5121,E2,414.75,0.188,102,146.0
5122,E2,414.75,0.188,102,146.0
5123,B-2,415.0,0.375,102,146.0
5124,B-2,415.0,0.375,102,146.0
5125,F#2,415.0,1.0,95,146.0
5126,E2,415.0,1.0,95,146.0
5127,B-4,415.458,1.5,127,146.0
5128,B2,415.5,0.375,102,146.0
5129,B2,415.5,0.375,102,146.0
5130,E3,416.0,0.5,127,146.0
5131,E3,416.0,0.5,127,146.0
5132,F#2,416.0,0.5,95,146.0
5133,C2,416.0,0.5,95,146.0
5134,B2,416.5,0.5,127,146.0
5135,B2,416.5,0.5,127,146.0
5136,C2,416.5,0.5,95,146.0
5137,B4,416.794,33/200,127,146.0
5138,B-4,416.958,2.25,127,146.0
5139,B4,416.958,1,127,146.0
5140,B-2,417.0,0.5,127,146.0
5141,B-2,417.0,0.5,127,146.0
5142,B-2,417.0,1.0,95,146.0
5143,E2,417.0,1.0,95,146.0
5144,G#2,417.5,0.5,127,146.0
5145,G#2,417.5,0.5,127,146.0
5146,F#2,418.0,0.375,102,146.0
5147,F#2,418.0,0.375,102,146.0
5148,F#2,418.0,0.5,95,146.0
5149,C2,418.0,0.5,95,146.0
5150,B-4,418.458,2.5,127,146.0
5151,F#2,418.5,0.375,102,146.0
5152,F#2,418.5,0.375,102,146.0
5153,C2,418.5,0.5,95,146.0
5154,B-3,419.0,0.5,127,146.0
5155,F#3,419.0,0.5,127,146.0
5156,B-3,419.0,0.5,127,146.0
5157,F#3,419.0,0.5,127,146.0
5158,F#2,419.0,1.0,95,146.0
5159,E2,419.0,1.0,95,146.0
5160,G#4,419.208,0.75,127,146.0
5161,B-3,419.5,0.5,127,146.0
5162,F#3,419.5,0.5,127,146.0
5163,B-3,419.5,0.5,127,146.0
5164,F#3,419.5,0.5,127,146.0
5165,G#4,419.958,1.0,127,146.0
5166,B-3,420.0,0.5,127,146.0
5167,F#3,420.0,0.5,127,146.0
5168,B-3,420.0,0.5,127,146.0
5169,F#3,420.0,0.5,127,146.0
5170,F#2,420.0,0.5,95,146.0
5171,C2,420.0,0.5,95,146.0
5172,C2,420.5,0.5,95,146.0
5173,B3,420.5,0.5,127,146.0
5174,F#3,420.5,0.5,127,146.0
5175,B3,420.5,0.5,127,146.0
5176,F#3,420.5,0.5,127,146.0
5177,B-4,420.958,4.0,127,146.0
5178,G#4,420.958,1.5,127,146.0
5179,F#2,421.0,0.375,102,146.0
5180,F#2,421.0,0.375,102,146.0
5181,B-2,421.0,1.0,95,146.0
5182,E2,421.0,1.0,95,146.0
5183,F#2,421.5,0.375,102,146.0
5184,F#2,421.5,0.375,102,146.0
5185,B-3,422.0,0.5,127,146.0
5186,F#3,422.0,0.5,127,146.0
5187,B-3,422.0,0.5,127,146.0
5188,F#3,422.0,0.5,127,146.0
5189,F#2,422.0,0.5,95,146.0
5190,C2,422.0,0.5,95,146.0
5191,F#5,422.208,0.5,127,146.0
5192,C2,422.5,0.5,95,146.0
5193,B-3,422.5,0.5,127,146.0
5194,F#3,422.5,0.5,127,146.0
5195,B-3,422.5,0.5,127,146.0
5196,F#3,422.5,0.5,127,146.0
5197,F#5,422.708,0.25,127,146.0
5198,F#5,422.958,0.75,127,146.0
5199,B-3,423.0,0.5,127,146.0
5200,F#3,423.0,0.5,127,146.0
5201,B-3,423.0,0.5,127,146.0
5202,F#3,423.0,0.5,127,146.0
5203,F#2,423.0,1.0,95,146.0
5204,E2,423.0,1.0,95,146.0
5205,B3,423.5,0.5,127,146.0
5206,F#3,423.5,0.5,127,146.0
5207,B3,423.5,0.5,127,146.0
5208,F#3,423.5,0.5,127,146.0
5209,G#4,423.708,0.25,127,146.0
5210,G#4,423.958,333/1000,127,146.0
5211,F#2,424.0,0.375,102,146.0
5212,F#2,424.0,0.375,102,146.0
5213,F#2,424.0,0.5,95,146.0
5214,C2,424.0,0.5,95,146.0
5215,G#4,424.292,167/1000,127,146.0
5216,G#4,424.458,0.5,127,146.0
5217,F#2,424.5,0.375,102,146.0
5218,F#2,424.5,0.375,102,146.0
5219,C2,424.5,0.5,95,146.0
5220,B-4,424.958,4.0,127,146.0
5221,G#4,424.958,0.5,127,146.0
5222,F#2,425.0,0.375,102,146.0
5223,F#2,425.0,0.375,102,146.0
5224,B-2,425.0,1.0,95,146.0
5225,E2,425.0,1.0,95,146.0
5226,E5,425.458,0.25,127,146.0
5227,F#3,425.5,0.5,127,146.0
5228,C#3,425.5,0.5,127,146.0
5229,F#2,425.5,0.5,127,146.0
5230,F#3,425.5,0.5,127,146.0
5231,C#3,425.5,0.5,127,146.0
5232,F#2,425.5,0.5,127,146.0
5233,B5,425.708,0.125,102,146.0
5234,B5,425.833,0.125,127,146.0
5235,B5,425.958,0.125,127,146.0
5236,F#2,426.0,0.5,127,146.0
5237,F#2,426.0,0.5,127,146.0
5238,F#2,426.0,0.5,95,146.0
5239,C2,426.0,0.5,95,146.0
5240,B5,426.083,0.125,127,146.0
5241,B5,426.208,0.5,127,146.0
5242,F#2,426.5,0.5,127,146.0
5243,F#2,426.5,0.5,127,146.0
5244,C2,426.5,0.5,95,146.0
5245,G#4,426.708,0.25,127,146.0
5246,G#4,426.958,0.25,127,146.0
5247,B-3,427.0,0.5,127,146.0
5248,F#3,427.0,0.5,127,146.0
5249,B-3,427.0,0.5,127,146.0
5250,F#3,427.0,0.5,127,146.0
5251,F#2,427.0,1.0,95,146.0
5252,E2,427.0,1.0,95,146.0
5253,G#4,427.208,0.25,127,146.0
5254,G#4,427.458,1.5,127,146.0
5255,B-3,427.5,0.5,127,146.0
5256,F#3,427.5,0.5,127,146.0
5257,B-3,427.5,0.5,127,146.0
5258,F#3,427.5,0.5,127,146.0
5259,B-3,428.0,0.5,127,146.0
5260,F#3,428.0,0.5,127,146.0
5261,B-3,428.0,0.5,127,146.0
5262,F#3,428.0,0.5,127,146.0
5263,F#2,428.0,0.5,95,146.0
5264,C2,428.0,0.5,95,146.0
5265,C2,428.5,0.5,95,146.0
5266,B3,428.5,0.5,127,146.0
5267,F#3,428.5,0.5,127,146.0
5268,B3,428.5,0.5,127,146.0
5269,F#3,428.5,0.5,127,146.0
5270,B-4,428.958,2.0,127,146.0
5271,F#2,429.0,0.375,102,146.0
5272,F#2,429.0,0.375,102,146.0
5273,B-2,429.0,1.0,95,146.0
5274,E2,429.0,1.0,95,146.0
5275,F#2,429.5,0.375,102,146.0
5276,F#2,429.5,0.375,102,146.0
5277,B-4,429.958,3.0,127,146.0
5278,B3,430.0,0.5,127,146.0
5279,F#3,430.0,0.5,127,146.0
5280,B3,430.0,0.5,127,146.0
5281,F#3,430.0,0.5,127,146.0
5282,F#2,430.0,0.5,95,146.0
5283,C2,430.0,0.5,95,146.0
5284,C2,430.5,0.5,95,146.0
5285,B3,430.5,0.5,127,146.0
5286,F#3,430.5,0.5,127,146.0
5287,B3,430.5,0.5,127,146.0
5288,F#3,430.5,0.5,127,146.0
5289,B-3,431.0,0.5,127,146.0
5290,F#3,431.0,0.5,127,146.0
5291,B-3,431.0,0.5,127,146.0
5292,F#3,431.0,0.5,127,146.0
5293,F#2,431.0,1.0,95,146.0
5294,E2,431.0,1.0,95,146.0
5295,B4,431.458,0.5,127,146.0
5296,C#4,431.5,0.5,127,146.0
5297,B-3,431.5,0.5,127,146.0
5298,F#3,431.5,0.5,127,146.0
5299,C#4,431.5,0.5,127,146.0
5300,B-3,431.5,0.5,127,146.0
5301,F#3,431.5,0.5,127,146.0
5302,F#2,432.0,0.375,102,146.0
5303,F#2,432.0,0.375,102,146.0
5304,F#2,432.0,0.5,95,146.0
5305,C2,432.0,0.5,95,146.0
5306,F#4,432.458,0.375,102,146.0
5307,F#2,432.5,0.375,102,146.0
5308,F#2,432.5,0.375,102,146.0
5309,C2,432.5,0.5,95,146.0
5310,C#5,432.958,1.0,127,146.0
5311,B-4,432.958,4.0,127,146.0
5312,F#2,433.0,0.375,102,146.0
5313,F#2,433.0,0.375,102,146.0
5314,B-2,433.0,1.0,95,146.0
5315,E2,433.0,1.0,95,146.0
5316,F#3,433.5,0.5,127,146.0
5317,C#3,433.5,0.5,127,146.0
5318,F#2,433.5,0.5,127,146.0
5319,F#3,433.5,0.5,127,146.0
5320,C#3,433.5,0.5,127,146.0
5321,F#2,433.5,0.5,127,146.0
5322,E2,434.0,0.375,102,146.0
5323,E2,434.0,0.375,102,146.0
5324,F#2,434.0,0.5,95,146.0
5325,C2,434.0,0.5,95,146.0
5326,B4,434.458,1.0,127,146.0
5327,E2,434.5,0.375,102,146.0
5328,E2,434.5,0.375,102,146.0
5329,C2,434.5,0.5,95,146.0
5330,E4,435.0,0.5,127,146.0
5331,B3,435.0,0.5,127,146.0
5332,E3,435.0,0.5,127,146.0
5333,E4,435.0,0.5,127,146.0
5334,B3,435.0,0.5,127,146.0
5335,E3,435.0,0.5,127,146.0
5336,F#2,435.0,1.0,95,146.0
5337,E2,435.0,1.0,95,146.0
5338,E4,435.5,0.5,127,146.0
5339,B3,435.5,0.5,127,146.0
5340,E3,435.5,0.5,127,146.0
5341,E4,435.5,0.5,127,146.0
5342,B3,435.5,0.5,127,146.0
5343,E3,435.5,0.5,127,146.0
5344,B-4,435.958,1.0,127,146.0
5345,E4,436.0,0.5,127,146.0
5346,B3,436.0,0.5,127,146.0
5347,E3,436.0,0.5,127,146.0
5348,E4,436.0,0.5,127,146.0
5349,B3,436.0,0.5,127,146.0
5350,E3,436.0,0.5,127,146.0
5351,F#2,436.0,0.5,95,146.0
5352,C2,436.0,0.5,95,146.0
5353,C2,436.5,0.5,95,146.0
5354,E4,436.5,0.5,127,146.0
5355,B-3,436.5,0.5,127,146.0
5356,E3,436.5,0.5,127,146.0
5357,E4,436.5,0.5,127,146.0
5358,B-3,436.5,0.5,127,146.0
5359,E3,436.5,0.5,127,146.0
5360,B-4,436.958,1.0,127,146.0
5361,B-4,436.958,2.5,127,146.0
5362,E2,437.0,0.375,102,146.0
5363,E2,437.0,0.375,102,146.0
5364,B-2,437.0,1.0,95,146.0
5365,E2,437.0,1.0,95,146.0
5366,E2,437.5,0.375,102,146.0
5367,E2,437.5,0.375,102,146.0
5368,E4,438.0,0.5,127,146.0
5369,B3,438.0,0.5,127,146.0
5370,E3,438.0,0.5,127,146.0
5371,E4,438.0,0.5,127,146.0
5372,B3,438.0,0.5,127,146.0
5373,E3,438.0,0.5,127,146.0
5374,F#2,438.0,0.5,95,146.0
5375,C2,438.0,0.5,95,146.0
5376,B-4,438.458,2.5,127,146.0
5377,C2,438.5,0.5,95,146.0
5378,E4,438.5,0.5,127,146.0
5379,B3,438.5,0.5,127,146.0
5380,E3,438.5,0.5,127,146.0
5381,E4,438.5,0.5,127,146.0
5382,B3,438.5,0.5,127,146.0
5383,E3,438.5,0.5,127,146.0
5384,E4,439.0,0.5,127,146.0
5385,B3,439.0,0.5,127,146.0
5386,E3,439.0,0.5,127,146.0
5387,E4,439.0,0.5,127,146.0
5388,B3,439.0,0.5,127,146.0
5389,E3,439.0,0.5,127,146.0
5390,F#2,439.0,1.0,95,146.0
5391,E2,439.0,1.0,95,146.0
5392,E4,439.5,0.5,127,146.0
5393,B-3,439.5,0.5,127,146.0
5394,E3,439.5,0.5,127,146.0
5395,E4,439.5,0.5,127,146.0
5396,B-3,439.5,0.5,127,146.0
5397,E3,439.5,0.5,127,146.0
5398,B4,439.958,0.5,127,146.0
5399,E2,440.0,0.375,102,146.0
5400,E2,440.0,0.375,102,146.0
5401,F#2,440.0,0.5,95,146.0
5402,C2,440.0,0.5,95,146.0
5403,E2,440.5,0.375,102,146.0
5404,E2,440.5,0.375,102,146.0
5405,C2,440.5,0.5,95,146.0
5406,C#5,440.958,1.0,127,146.0
5407,B-4,440.958,4.0,127,146.0
5408,B2,441.0,0.25,127,146.0
5409,B2,441.0,0.25,127,146.0
5410,B-2,441.0,1.0,95,146.0
5411,E2,441.0,1.0,95,146.0
5412,E3,441.25,0.25,127,146.0
5413,E3,441.25,0.25,127,146.0
5414,G#4,441.5,0.5,127,146.0
5415,G#4,441.5,0.5,127,146.0
5416,E3,442.0,0.5,127,146.0
5417,E3,442.0,0.5,127,146.0
5418,F#2,442.0,0.5,95,146.0
5419,C2,442.0,0.5,95,146.0
5420,C#5,442.458,1.0,127,146.0
5421,E2,442.5,0.375,102,146.0
5422,E2,442.5,0.375,102,146.0
5423,C2,442.5,0.5,95,146.0
5424,E4,443.0,0.5,127,146.0
5425,B3,443.0,0.5,127,146.0
5426,E3,443.0,0.5,127,146.0
5427,E4,443.0,0.5,127,146.0
5428,B3,443.0,0.5,127,146.0
5429,E3,443.0,0.5,127,146.0
5430,F#2,443.0,1.0,95,146.0
5431,E2,443.0,1.0,95,146.0
5432,E4,443.5,0.5,127,146.0
5433,B3,443.5,0.5,127,146.0
5434,E3,443.5,0.5,127,146.0
5435,E4,443.5,0.5,127,146.0
5436,B3,443.5,0.5,127,146.0
5437,E3,443.5,0.5,127,146.0
5438,B-4,443.958,1.0,127,146.0
5439,E4,444.0,0.5,127,146.0
5440,B3,444.0,0.5,127,146.0
5441,E3,444.0,0.5,127,146.0
5442,E4,444.0,0.5,127,146.0
5443,B3,444.0,0.5,127,146.0
5444,E3,444.0,0.5,127,146.0
5445,F#2,444.0,0.5,95,146.0
5446,C2,444.0,0.5,95,146.0
5447,C2,444.5,0.5,95,146.0
5448,E4,444.5,0.5,127,146.0
5449,B-3,444.5,0.5,127,146.0
5450,E3,444.5,0.5,127,146.0
5451,E4,444.5,0.5,127,146.0
5452,B-3,444.5,0.5,127,146.0
5453,E3,444.5,0.5,127,146.0
5454,B-4,444.958,3.0,127,146.0
5455,B-4,444.958,1.0,127,146.0
5456,E2,445.0,0.375,102,146.0
5457,E2,445.0,0.375,102,146.0
5458,B-2,445.0,1.0,95,146.0
5459,E2,445.0,1.0,95,146.0
5460,E4,445.5,0.5,127,146.0
5461,B3,445.5,0.5,127,146.0
5462,E3,445.5,0.5,127,146.0
5463,E4,445.5,0.5,127,146.0
5464,B3,445.5,0.5,127,146.0
5465,E3,445.5,0.5,127,146.0
5466,G#4,445.958,1.0,127,146.0
5467,E4,446.0,0.5,127,146.0
5468,B3,446.0,0.5,127,146.0
5469,E3,446.0,0.5,127,146.0
5470,E4,446.0,0.5,127,146.0
5471,B3,446.0,0.5,127,146.0
5472,E3,446.0,0.5,127,146.0
5473,F#2,446.0,0.5,95,146.0
5474,C2,446.0,0.5,95,146.0
5475,E2,446.5,0.188,102,146.0
5476,E2,446.5,0.188,102,146.0
5477,C2,446.5,0.5,95,146.0
5478,E2,446.75,0.188,102,146.0
5479,E2,446.75,0.188,102,146.0
5480,B-2,447.0,0.375,102,146.0
5481,B-2,447.0,0.375,102,146.0
5482,F#2,447.0,1.0,95,146.0
5483,E2,447.0,1.0,95,146.0
5484,B-4,447.458,1.5,127,146.0
5485,B2,447.5,0.375,102,146.0
5486,B2,447.5,0.375,102,146.0
5487,E3,448.0,0.5,127,146.0
5488,E3,448.0,0.5,127,146.0
5489,F#2,448.0,0.5,95,146.0
5490,C2,448.0,0.5,95,146.0
5491,B2,448.5,0.5,127,146.0
5492,B2,448.5,0.5,127,146.0
5493,C2,448.5,0.5,95,146.0
5494,F#5,448.958,1.0,127,146.0
5495,B-4,448.958,4.0,127,146.0
5496,B-2,449.0,0.5,127,146.0
5497,B-2,449.0,0.5,127,146.0
5498,B-2,449.0,1.0,95,146.0
5499,E2,449.0,1.0,95,146.0
5500,G#2,449.5,0.5,127,146.0
5501,G#2,449.5,0.5,127,146.0
5502,B-2,450.0,0.188,102,146.0
5503,B-2,450.0,0.188,102,146.0
5504,B2,450.0,0.25,95,146.0
5505,B2,450.25,0.188,102,146.0
5506,B2,450.25,0.188,102,146.0
5507,A2,450.25,0.25,95,146.0
5508,B4,450.458,1.0,127,146.0
5509,B-2,450.5,0.188,102,146.0
5510,B-2,450.5,0.188,102,146.0
5511,B2,450.5,0.25,95,146.0
5512,G#2,450.75,0.188,102,146.0
5513,G#2,450.75,0.188,102,146.0
5514,A2,450.75,0.25,95,146.0
5515,E2,451.0,0.188,102,146.0
5516,E2,451.0,0.188,102,146.0
5517,G2,451.0,0.25,95,146.0
5518,B-2,451.5,0.188,102,146.0
5519,B-2,451.5,0.188,102,146.0
5520,B2,451.5,0.25,95,146.0
5521,B2,451.75,0.188,102,146.0
5522,B2,451.75,0.188,102,146.0
5523,A2,451.75,0.25,95,146.0
5524,B-4,451.958,1.0,127,146.0
5525,B-2,452.0,0.188,102,146.0
5526,B-2,452.0,0.188,102,146.0
5527,B2,452.0,0.25,95,146.0
5528,G#2,452.25,0.188,102,146.0
5529,G#2,452.25,0.188,102,146.0
5530,A2,452.25,0.25,95,146.0
5531,E2,452.5,0.188,102,146.0
5532,E2,452.5,0.188,102,146.0
5533,G2,452.5,0.25,95,146.0
5534,G#5,452.958,3.5,127,146.0
5535,B-4,452.958,4.0,127,146.0
5536,B-2,453.0,0.25,95,146.0
5537,E2,453.25,0.188,102,146.0
5538,E2,453.25,0.188,102,146.0
5539,B-2,453.25,0.25,95,146.0
5540,E2,453.5,0.375,102,146.0
5541,E2,453.5,0.375,102,146.0
5542,F#2,453.5,0.5,95,146.0
5543,B-2,454.0,0.188,102,146.0
5544,B-2,454.0,0.188,102,146.0
5545,B2,454.0,0.25,95,146.0
5546,B2,454.25,0.188,102,146.0
5547,B2,454.25,0.188,102,146.0
5548,A2,454.25,0.25,95,146.0
5549,B-2,454.5,0.188,102,146.0
5550,B-2,454.5,0.188,102,146.0
5551,B2,454.5,0.25,95,146.0
5552,G#2,454.75,0.188,102,146.0
5553,G#2,454.75,0.188,102,146.0
5554,A2,454.75,0.25,95,146.0
5555,E2,455.0,0.188,102,146.0
5556,E2,455.0,0.188,102,146.0
5557,G2,455.0,0.25,95,146.0
5558,B-2,455.5,0.188,102,146.0
5559,B-2,455.5,0.188,102,146.0
5560,B2,455.5,0.25,95,146.0
5561,B2,455.75,0.188,102,146.0
5562,B2,455.75,0.188,102,146.0
5563,A2,455.75,0.25,95,146.0
5564,B-2,456.0,0.188,102,146.0
5565,B-2,456.0,0.188,102,146.0
5566,B2,456.0,0.25,95,146.0
5567,G#2,456.25,0.188,102,146.0
5568,G#2,456.25,0.188,102,146.0
5569,A2,456.25,0.25,95,146.0
5570,G#5,456.458,0.5,127,146.0
5571,E2,456.5,0.188,102,146.0
5572,E2,456.5,0.188,102,146.0
5573,G2,456.5,0.25,95,146.0
5574,G#5,456.958,4.0,127,146.0
5575,B-4,456.958,4.0,127,146.0
5576,B-2,457.0,0.25,95,146.0
5577,E2,457.25,0.188,102,146.0
5578,E2,457.25,0.188,102,146.0
5579,B-2,457.25,0.25,95,146.0
5580,E2,457.5,0.375,102,146.0
5581,E2,457.5,0.375,102,146.0
5582,F#2,457.5,0.5,95,146.0
5583,B-2,458.0,0.188,102,146.0
5584,B-2,458.0,0.188,102,146.0
5585,B2,458.0,0.25,95,146.0
5586,B2,458.25,0.188,102,146.0
5587,B2,458.25,0.188,102,146.0
5588,A2,458.25,0.25,95,146.0
5589,B-2,458.5,0.188,102,146.0
5590,B-2,458.5,0.188,102,146.0
5591,B2,458.5,0.25,95,146.0
5592,G#2,458.75,0.188,102,146.0
5593,G#2,458.75,0.188,102,146.0
5594,A2,458.75,0.25,95,146.0
5595,E2,459.0,0.188,102,146.0
5596,E2,459.0,0.188,102,146.0
5597,G2,459.0,0.25,95,146.0
5598,B-2,459.5,0.188,102,146.0
5599,B-2,459.5,0.188,102,146.0
5600,B2,459.5,0.25,95,146.0
5601,B2,459.75,0.188,102,146.0
5602,B2,459.75,0.188,102,146.0
5603,A2,459.75,0.25,95,146.0
5604,B-2,460.0,0.188,102,146.0
5605,B-2,460.0,0.188,102,146.0
5606,B2,460.0,0.25,95,146.0
5607,G#2,460.25,0.188,102,146.0
5608,G#2,460.25,0.188,102,146.0
5609,A2,460.25,0.25,95,146.0
5610,E2,460.5,0.188,102,146.0
5611,E2,460.5,0.188,102,146.0
5612,G2,460.5,0.25,95,146.0
5613,B-4,460.958,4.0,127,146.0
5614,B-2,461.0,0.25,95,146.0
5615,E2,461.25,0.188,102,146.0
5616,E2,461.25,0.188,102,146.0
5617,B-2,461.25,0.25,95,146.0
5618,E2,461.5,0.375,102,146.0
5619,E2,461.5,0.375,102,146.0
5620,F#2,461.5,0.5,95,146.0
5621,B-2,462.0,0.188,102,146.0
5622,B-2,462.0,0.188,102,146.0
5623,B2,462.0,0.25,95,146.0
5624,B2,462.25,0.188,102,146.0
5625,B2,462.25,0.188,102,146.0
5626,A2,462.25,0.25,95,146.0
5627,B-2,462.5,0.188,102,146.0
5628,B-2,462.5,0.188,102,146.0
5629,B2,462.5,0.25,95,146.0
5630,G#2,462.75,0.188,102,146.0
5631,G#2,462.75,0.188,102,146.0
5632,A2,462.75,0.25,95,146.0
5633,E2,463.0,0.188,102,146.0
5634,E2,463.0,0.188,102,146.0
5635,G2,463.0,0.25,95,146.0
5636,E2,463.25,0.188,102,146.0
5637,E2,463.25,0.188,102,146.0
5638,B2,463.5,0.188,102,146.0
5639,B2,463.5,0.188,102,146.0
5640,B2,463.5,0.25,95,146.0
5641,C#3,463.75,0.188,102,146.0
5642,C#3,463.75,0.188,102,146.0
5643,A2,463.75,0.25,95,146.0
5644,B2,464.0,0.188,102,146.0
5645,B2,464.0,0.188,102,146.0
5646,B2,464.0,0.25,95,146.0
5647,B-2,464.25,0.188,102,146.0
5648,B-2,464.25,0.188,102,146.0
5649,A2,464.25,0.25,95,146.0
5650,E2,464.5,0.188,102,146.0
5651,E2,464.5,0.188,102,146.0
5652,G2,464.5,0.25,95,146.0
5653,E2,464.75,0.188,102,146.0
5654,E2,464.75,0.188,102,146.0
5655,B-4,464.958,4.0,127,146.0
5656,B-2,465.0,0.188,102,146.0
5657,B-2,465.0,0.188,102,146.0
5658,B-2,465.0,0.25,95,146.0
5659,B2,465.25,0.188,102,146.0
5660,B2,465.25,0.188,102,146.0
5661,B-2,465.25,0.25,95,146.0
5662,B-2,465.5,0.188,102,146.0
5663,B-2,465.5,0.188,102,146.0
5664,F#2,465.5,0.5,95,146.0
5665,E2,465.75,0.188,102,146.0
5666,E2,465.75,0.188,102,146.0
5667,B-2,466.0,0.188,102,146.0
5668,B-2,466.0,0.188,102,146.0
5669,B2,466.0,0.25,95,146.0
5670,B2,466.25,0.188,102,146.0
5671,B2,466.25,0.188,102,146.0
5672,A2,466.25,0.25,95,146.0
5673,B-2,466.5,0.188,102,146.0
5674,B-2,466.5,0.188,102,146.0
5675,B2,466.5,0.25,95,146.0
5676,G#2,466.75,0.188,102,146.0
5677,G#2,466.75,0.188,102,146.0
5678,A2,466.75,0.25,95,146.0
5679,E2,467.0,0.188,102,146.0
5680,E2,467.0,0.188,102,146.0
5681,G2,467.0,0.25,95,146.0
5682,B-2,467.5,0.188,102,146.0
5683,B-2,467.5,0.188,102,146.0
5684,B2,467.5,0.25,95,146.0
5685,B2,467.75,0.188,102,146.0
5686,B2,467.75,0.188,102,146.0
5687,A2,467.75,0.25,95,146.0
5688,B-2,468.0,0.188,102,146.0
5689,B-2,468.0,0.188,102,146.0
5690,B2,468.0,0.25,95,146.0
5691,G#2,468.25,0.188,102,146.0
5692,G#2,468.25,0.188,102,146.0
5693,A2,468.25,0.25,95,146.0
5694,E2,468.5,0.188,102,146.0
5695,E2,468.5,0.188,102,146.0
5696,G2,468.5,0.25,95,146.0
5697,B-4,468.958,4.0,127,146.0
5698,B-2,469.0,0.25,95,146.0
5699,E2,469.25,0.188,102,146.0
5700,E2,469.25,0.188,102,146.0
5701,B-2,469.25,0.25,95,146.0
5702,E2,469.5,0.375,102,146.0
5703,E2,469.5,0.375,102,146.0
5704,F#2,469.5,0.5,95,146.0
5705,B-2,470.0,0.188,102,146.0
5706,B-2,470.0,0.188,102,146.0
5707,B2,470.0,0.25,95,146.0
5708,B2,470.25,0.188,102,146.0
5709,B2,470.25,0.188,102,146.0
5710,A2,470.25,0.25,95,146.0
5711,B-2,470.5,0.188,102,146.0
5712,B-2,470.5,0.188,102,146.0
5713,B2,470.5,0.25,95,146.0
5714,G#2,470.75,0.188,102,146.0
5715,G#2,470.75,0.188,102,146.0
5716,A2,470.75,0.25,95,146.0
5717,E2,471.0,0.188,102,146.0
5718,E2,471.0,0.188,102,146.0
5719,G2,471.0,0.25,95,146.0
5720,B-2,471.5,0.188,102,146.0
5721,B-2,471.5,0.188,102,146.0
5722,B2,471.5,0.25,95,146.0
5723,B2,471.75,0.188,102,146.0
5724,B2,471.75,0.188,102,146.0
5725,A2,471.75,0.25,95,146.0
5726,B-2,472.0,0.188,102,146.0
5727,B-2,472.0,0.188,102,146.0
5728,B2,472.0,0.25,95,146.0
5729,G#2,472.25,0.188,102,146.0
5730,G#2,472.25,0.188,102,146.0
5731,A2,472.25,0.25,95,146.0
5732,E2,472.5,0.188,102,146.0
5733,E2,472.5,0.188,102,146.0
5734,G2,472.5,0.25,95,146.0
5735,B-4,472.958,4.0,127,146.0
5736,B-2,473.0,0.25,95,146.0
5737,E2,473.25,0.188,102,146.0
5738,E2,473.25,0.188,102,146.0
5739,B-2,473.25,0.25,95,146.0
5740,E2,473.5,0.375,102,146.0
5741,E2,473.5,0.375,102,146.0
5742,F#2,473.5,0.5,95,146.0
5743,B-2,474.0,0.188,102,146.0
5744,B-2,474.0,0.188,102,146.0
5745,B2,474.0,0.25,95,146.0
5746,B2,474.25,0.188,102,146.0
5747,B2,474.25,0.188,102,146.0
5748,A2,474.25,0.25,95,146.0
5749,B-2,474.5,0.188,102,146.0
5750,B-2,474.5,0.188,102,146.0
5751,B2,474.5,0.25,95,146.0
5752,G#2,474.75,0.188,102,146.0
5753,G#2,474.75,0.188,102,146.0
5754,A2,474.75,0.25,95,146.0
5755,E2,475.0,0.188,102,146.0
5756,E2,475.0,0.188,102,146.0
5757,G2,475.0,0.25,95,146.0
5758,B-2,475.5,0.188,102,146.0
5759,B-2,475.5,0.188,102,146.0
5760,B2,475.5,0.25,95,146.0
5761,B2,475.75,0.188,102,146.0
5762,B2,475.75,0.188,102,146.0
5763,A2,475.75,0.25,95,146.0
5764,B-2,476.0,0.188,102,146.0
5765,B-2,476.0,0.188,102,146.0
5766,B2,476.0,0.25,95,146.0
5767,G#2,476.25,0.188,102,146.0
5768,G#2,476.25,0.188,102,146.0
5769,A2,476.25,0.25,95,146.0
5770,E2,476.5,0.188,102,146.0
5771,E2,476.5,0.188,102,146.0
5772,G2,476.5,0.25,95,146.0
5773,B-4,476.958,4.0,127,146.0
5774,B-2,477.0,0.25,95,146.0
5775,E2,477.25,0.188,102,146.0
5776,E2,477.25,0.188,102,146.0
5777,B-2,477.25,0.25,95,146.0
5778,E2,477.5,0.375,102,146.0
5779,E2,477.5,0.375,102,146.0
5780,F#2,477.5,0.5,95,146.0
5781,B-2,478.0,0.188,102,146.0
5782,B-2,478.0,0.188,102,146.0
5783,B2,478.0,0.25,95,146.0
5784,B2,478.25,0.188,102,146.0
5785,B2,478.25,0.188,102,146.0
5786,A2,478.25,0.25,95,146.0
5787,B-2,478.5,0.188,102,146.0
5788,B-2,478.5,0.188,102,146.0
5789,B2,478.5,0.25,95,146.0
5790,G#2,478.75,0.188,102,146.0
5791,G#2,478.75,0.188,102,146.0
5792,A2,478.75,0.25,95,146.0
5793,E2,479.0,0.188,102,146.0
5794,E2,479.0,0.188,102,146.0
5795,G2,479.0,0.25,95,146.0
5796,E2,479.25,0.188,102,146.0
5797,E2,479.25,0.188,102,146.0
5798,B2,479.5,0.188,102,146.0
5799,B2,479.5,0.188,102,146.0
5800,B2,479.5,0.25,95,146.0
5801,C#3,479.75,0.188,102,146.0
5802,C#3,479.75,0.188,102,146.0
5803,A2,479.75,0.25,95,146.0
5804,B2,480.0,0.188,102,146.0
5805,B2,480.0,0.188,102,146.0
5806,B2,480.0,0.25,95,146.0
5807,B-2,480.25,0.188,102,146.0
5808,B-2,480.25,0.188,102,146.0
5809,A2,480.25,0.25,95,146.0
5810,E2,480.5,0.188,102,146.0
5811,E2,480.5,0.188,102,146.0
5812,G2,480.5,0.25,95,146.0
5813,E2,480.75,0.188,102,146.0
5814,E2,480.75,0.188,102,146.0
5815,B-4,480.958,4.0,127,146.0
5816,B-2,481.0,0.188,102,146.0
5817,B-2,481.0,0.188,102,146.0
5818,B-2,481.0,0.25,95,146.0
5819,B2,481.25,0.188,102,146.0
5820,B2,481.25,0.188,102,146.0
5821,B-2,481.25,0.25,95,146.0
5822,B-2,481.5,0.188,102,146.0
5823,B-2,481.5,0.188,102,146.0
5824,F#2,481.5,0.5,95,146.0
5825,E2,481.75,0.188,102,146.0
5826,E2,481.75,0.188,102,146.0
5827,C#3,482.0,0.188,102,146.0
5828,C#3,482.0,0.188,102,146.0
5829,B2,482.0,0.25,95,146.0
5830,D3,482.25,0.188,102,146.0
5831,D3,482.25,0.188,102,146.0
5832,A2,482.25,0.25,95,146.0
5833,C#3,482.5,0.188,102,146.0
5834,C#3,482.5,0.188,102,146.0
5835,B2,482.5,0.25,95,146.0
5836,B2,482.75,0.188,102,146.0
5837,B2,482.75,0.188,102,146.0
5838,A2,482.75,0.25,95,146.0
5839,E2,483.0,0.188,102,146.0
5840,E2,483.0,0.188,102,146.0
5841,G2,483.0,0.25,95,146.0
5842,C2,483.25,0.25,95,146.0
5843,B-2,483.5,0.188,102,146.0
5844,B-2,483.5,0.188,102,146.0
5845,B2,483.5,0.25,95,146.0
5846,B2,483.75,0.188,102,146.0
5847,B2,483.75,0.188,102,146.0
5848,A2,483.75,0.25,95,146.0
5849,B-2,484.0,0.188,102,146.0
5850,B-2,484.0,0.188,102,146.0
5851,B2,484.0,0.25,95,146.0
5852,G#2,484.25,0.188,102,146.0
5853,G#2,484.25,0.188,102,146.0
5854,A2,484.25,0.25,95,146.0
5855,E2,484.5,0.188,102,146.0
5856,E2,484.5,0.188,102,146.0
5857,G2,484.5,0.25,95,146.0
5858,C2,484.75,0.25,95,146.0
5859,B-4,484.958,4.0,127,146.0
5860,B-2,485.0,0.25,95,146.0
5861,E2,485.25,0.188,102,146.0
5862,E2,485.25,0.188,102,146.0
5863,B-2,485.25,0.25,95,146.0
5864,E2,485.5,0.375,102,146.0
5865,E2,485.5,0.375,102,146.0
5866,F#2,485.5,0.25,95,146.0
5867,C2,485.5,0.25,95,146.0
5868,G2,485.75,0.25,95,146.0
5869,C#3,486.0,0.188,102,146.0
5870,C#3,486.0,0.188,102,146.0
5871,B2,486.0,0.25,95,146.0
5872,D3,486.25,0.188,102,146.0
5873,D3,486.25,0.188,102,146.0
5874,A2,486.25,0.25,95,146.0
5875,C#3,486.5,0.188,102,146.0
5876,C#3,486.5,0.188,102,146.0
5877,B2,486.5,0.25,95,146.0
5878,B2,486.75,0.188,102,146.0
5879,B2,486.75,0.188,102,146.0
5880,A2,486.75,0.25,95,146.0
5881,E2,487.0,0.188,102,146.0
5882,E2,487.0,0.188,102,146.0
5883,G2,487.0,0.25,95,146.0
5884,C2,487.25,0.25,95,146.0
5885,B-2,487.5,0.188,102,146.0
5886,B-2,487.5,0.188,102,146.0
5887,B2,487.5,0.25,95,146.0
5888,B2,487.75,0.188,102,146.0
5889,B2,487.75,0.188,102,146.0
5890,A2,487.75,0.25,95,146.0
5891,B-2,488.0,0.188,102,146.0
5892,B-2,488.0,0.188,102,146.0
5893,B2,488.0,0.25,95,146.0
5894,G#2,488.25,0.188,102,146.0
5895,G#2,488.25,0.188,102,146.0
5896,A2,488.25,0.25,95,146.0
5897,E2,488.5,0.188,102,146.0
5898,E2,488.5,0.188,102,146.0
5899,G2,488.5,0.25,95,146.0
5900,C2,488.75,0.25,95,146.0
5901,B-4,488.958,4.0,127,146.0
5902,B-2,489.0,0.25,95,146.0
5903,E2,489.25,0.188,102,146.0
5904,E2,489.25,0.188,102,146.0
5905,B-2,489.25,0.25,95,146.0
5906,E2,489.5,0.375,102,146.0
5907,E2,489.5,0.375,102,146.0
5908,F#2,489.5,0.25,95,146.0
5909,C2,489.5,0.25,95,146.0
5910,G2,489.75,0.25,95,146.0
5911,C#3,490.0,0.188,102,146.0
5912,C#3,490.0,0.188,102,146.0
5913,B2,490.0,0.25,95,146.0
5914,D3,490.25,0.188,102,146.0
5915,D3,490.25,0.188,102,146.0
5916,A2,490.25,0.25,95,146.0
5917,C#3,490.5,0.188,102,146.0
5918,C#3,490.5,0.188,102,146.0
5919,B2,490.5,0.25,95,146.0
5920,B2,490.75,0.188,102,146.0
5921,B2,490.75,0.188,102,146.0
5922,A2,490.75,0.25,95,146.0
5923,E2,491.0,0.188,102,146.0
5924,E2,491.0,0.188,102,146.0
5925,G2,491.0,0.25,95,146.0
5926,C2,491.25,0.25,95,146.0
5927,B-2,491.5,0.188,102,146.0
5928,B-2,491.5,0.188,102,146.0
5929,B2,491.5,0.25,95,146.0
5930,B2,491.75,0.188,102,146.0
5931,B2,491.75,0.188,102,146.0
5932,A2,491.75,0.25,95,146.0
5933,B-2,492.0,0.188,102,146.0
5934,B-2,492.0,0.188,102,146.0
5935,B2,492.0,0.25,95,146.0
5936,G#2,492.25,0.188,102,146.0
5937,G#2,492.25,0.188,102,146.0
5938,A2,492.25,0.25,95,146.0
5939,E2,492.5,0.188,102,146.0
5940,E2,492.5,0.188,102,146.0
5941,G2,492.5,0.25,95,146.0
5942,C2,492.75,0.25,95,146.0
5943,B-4,492.958,4.0,127,146.0
5944,B-2,493.0,0.25,95,146.0
5945,E2,493.25,0.188,102,146.0
5946,E2,493.25,0.188,102,146.0
5947,B-2,493.25,0.25,95,146.0
5948,E2,493.5,0.375,102,146.0
5949,E2,493.5,0.375,102,146.0
5950,F#2,493.5,0.25,95,146.0
5951,C2,493.5,0.25,95,146.0
5952,G2,493.75,0.25,95,146.0
5953,C#3,494.0,0.188,102,146.0
5954,C#3,494.0,0.188,102,146.0
5955,B2,494.0,0.25,95,146.0
5956,D3,494.25,0.188,102,146.0
5957,D3,494.25,0.188,102,146.0
5958,A2,494.25,0.25,95,146.0
5959,C#3,494.5,0.188,102,146.0
5960,C#3,494.5,0.188,102,146.0
5961,B2,494.5,0.25,95,146.0
5962,B2,494.75,0.188,102,146.0
5963,B2,494.75,0.188,102,146.0
5964,A2,494.75,0.25,95,146.0
5965,E2,495.0,0.188,102,146.0
5966,E2,495.0,0.188,102,146.0
5967,G2,495.0,0.25,95,146.0
5968,E2,495.25,0.188,102,146.0
5969,E2,495.25,0.188,102,146.0
5970,C2,495.25,0.25,95,146.0
5971,D3,495.5,0.188,102,146.0
5972,D3,495.5,0.188,102,146.0
5973,B2,495.5,0.25,95,146.0
5974,E3,495.75,0.188,102,146.0
5975,E3,495.75,0.188,102,146.0
5976,A2,495.75,0.25,95,146.0
5977,D3,496.0,0.188,102,146.0
5978,D3,496.0,0.188,102,146.0
5979,B2,496.0,0.25,95,146.0
5980,C#3,496.25,0.188,102,146.0
5981,C#3,496.25,0.188,102,146.0
5982,A2,496.25,0.25,95,146.0
5983,E2,496.5,0.188,102,146.0
5984,E2,496.5,0.188,102,146.0
5985,G2,496.5,0.25,95,146.0
5986,E2,496.75,0.188,102,146.0
5987,E2,496.75,0.188,102,146.0
5988,C2,496.75,0.25,95,146.0
5989,B-4,496.958,4.0,127,146.0
5990,C#3,497.0,0.188,102,146.0
5991,C#3,497.0,0.188,102,146.0
5992,B-2,497.0,0.25,95,146.0
5993,D3,497.25,0.188,102,146.0
5994,D3,497.25,0.188,102,146.0
5995,B-2,497.25,0.25,95,146.0
5996,C#3,497.5,0.188,102,146.0
5997,C#3,497.5,0.188,102,146.0
5998,F#2,497.5,0.25,95,146.0
5999,C2,497.5,0.25,95,146.0
6000,E2,497.75,0.188,102,146.0
6001,E2,497.75,0.188,102,146.0
6002,G2,497.75,0.25,95,146.0
6003,C#3,498.0,0.188,102,146.0
6004,C#3,498.0,0.188,102,146.0
6005,B2,498.0,0.25,95,146.0
6006,D3,498.25,0.188,102,146.0
6007,D3,498.25,0.188,102,146.0
6008,A2,498.25,0.25,95,146.0
6009,C#3,498.5,0.188,102,146.0
6010,C#3,498.5,0.188,102,146.0
6011,B2,498.5,0.25,95,146.0
6012,B2,498.75,0.188,102,146.0
6013,B2,498.75,0.188,102,146.0
6014,A2,498.75,0.25,95,146.0
6015,E2,499.0,0.188,102,146.0
6016,E2,499.0,0.188,102,146.0
6017,G2,499.0,0.25,95,146.0
6018,C2,499.25,0.25,95,146.0
6019,B-2,499.5,0.188,102,146.0
6020,B-2,499.5,0.188,102,146.0
6021,B2,499.5,0.25,95,146.0
6022,B2,499.75,0.188,102,146.0
6023,B2,499.75,0.188,102,146.0
6024,A2,499.75,0.25,95,146.0
6025,B-2,500.0,0.188,102,146.0
6026,B-2,500.0,0.188,102,146.0
6027,B2,500.0,0.25,95,146.0
6028,G#2,500.25,0.188,102,146.0
6029,G#2,500.25,0.188,102,146.0
6030,A2,500.25,0.25,95,146.0
6031,E2,500.5,0.188,102,146.0
6032,E2,500.5,0.188,102,146.0
6033,G2,500.5,0.25,95,146.0
6034,C2,500.75,0.25,95,146.0
6035,B-4,500.958,4.0,127,146.0
6036,B-2,501.0,0.25,95,146.0
6037,E2,501.25,0.188,102,146.0
6038,E2,501.25,0.188,102,146.0
6039,B-2,501.25,0.25,95,146.0
6040,E2,501.5,0.375,102,146.0
6041,E2,501.5,0.375,102,146.0
6042,F#2,501.5,0.25,95,146.0
6043,C2,501.5,0.25,95,146.0
6044,G2,501.75,0.25,95,146.0
6045,C#3,502.0,0.188,102,146.0
6046,C#3,502.0,0.188,102,146.0
6047,B2,502.0,0.25,95,146.0
6048,D3,502.25,0.188,102,146.0
6049,D3,502.25,0.188,102,146.0
6050,A2,502.25,0.25,95,146.0
6051,C#3,502.5,0.188,102,146.0
6052,C#3,502.5,0.188,102,146.0
6053,B2,502.5,0.25,95,146.0
6054,B2,502.75,0.188,102,146.0
6055,B2,502.75,0.188,102,146.0
6056,A2,502.75,0.25,95,146.0
6057,E2,503.0,0.188,102,146.0
6058,E2,503.0,0.188,102,146.0
6059,G2,503.0,0.25,95,146.0
6060,C2,503.25,0.25,95,146.0
6061,B-2,503.5,0.188,102,146.0
6062,B-2,503.5,0.188,102,146.0
6063,B2,503.5,0.25,95,146.0
6064,B2,503.75,0.188,102,146.0
6065,B2,503.75,0.188,102,146.0
6066,A2,503.75,0.25,95,146.0
6067,B-2,504.0,0.188,102,146.0
6068,B-2,504.0,0.188,102,146.0
6069,B2,504.0,0.25,95,146.0
6070,G#2,504.25,0.188,102,146.0
6071,G#2,504.25,0.188,102,146.0
6072,A2,504.25,0.25,95,146.0
6073,E2,504.5,0.188,102,146.0
6074,E2,504.5,0.188,102,146.0
6075,G2,504.5,0.25,95,146.0
6076,C2,504.75,0.25,95,146.0
6077,B-4,504.958,4.0,127,146.0
6078,B-2,505.0,0.25,95,146.0
6079,E2,505.25,0.188,102,146.0
6080,E2,505.25,0.188,102,146.0
6081,B-2,505.25,0.25,95,146.0
6082,E2,505.5,0.375,102,146.0
6083,E2,505.5,0.375,102,146.0
6084,F#2,505.5,0.25,95,146.0
6085,C2,505.5,0.25,95,146.0
6086,G2,505.75,0.25,95,146.0
6087,C#3,506.0,0.188,102,146.0
6088,C#3,506.0,0.188,102,146.0
6089,B2,506.0,0.25,95,146.0
6090,D3,506.25,0.188,102,146.0
6091,D3,506.25,0.188,102,146.0
6092,A2,506.25,0.25,95,146.0
6093,C#3,506.5,0.188,102,146.0
6094,C#3,506.5,0.188,102,146.0
6095,B2,506.5,0.25,95,146.0
6096,B2,506.75,0.188,102,146.0
6097,B2,506.75,0.188,102,146.0
6098,A2,506.75,0.25,95,146.0
6099,E2,507.0,0.188,102,146.0
6100,E2,507.0,0.188,102,146.0
6101,G2,507.0,0.25,95,146.0
6102,C2,507.25,0.25,95,146.0
6103,B-2,507.5,0.188,102,146.0
6104,B-2,507.5,0.188,102,146.0
6105,B2,507.5,0.25,95,146.0
6106,B2,507.75,0.188,102,146.0
6107,B2,507.75,0.188,102,146.0
6108,A2,507.75,0.25,95,146.0
6109,B-2,508.0,0.188,102,146.0
6110,B-2,508.0,0.188,102,146.0
6111,B2,508.0,0.25,95,146.0
6112,G#2,508.25,0.188,102,146.0
6113,G#2,508.25,0.188,102,146.0
6114,A2,508.25,0.25,95,146.0
6115,E2,508.5,0.188,102,146.0
6116,E2,508.5,0.188,102,146.0
6117,G2,508.5,0.25,95,146.0
6118,C2,508.75,0.25,95,146.0
6119,B-4,508.958,4.0,127,146.0
6120,B-2,509.0,0.25,95,146.0
6121,E2,509.25,0.188,102,146.0
6122,E2,509.25,0.188,102,146.0
6123,B-2,509.25,0.25,95,146.0
6124,E2,509.5,0.375,102,146.0
6125,E2,509.5,0.375,102,146.0
6126,F#2,509.5,0.25,95,146.0
6127,C2,509.5,0.25,95,146.0
6128,G2,509.75,0.25,95,146.0
6129,C#3,510.0,0.188,102,146.0
6130,C#3,510.0,0.188,102,146.0
6131,B2,510.0,0.25,95,146.0
6132,D3,510.25,0.188,102,146.0
6133,D3,510.25,0.188,102,146.0
6134,A2,510.25,0.25,95,146.0
6135,C#3,510.5,0.188,102,146.0
6136,C#3,510.5,0.188,102,146.0
6137,B2,510.5,0.25,95,146.0
6138,B2,510.75,0.188,102,146.0
6139,B2,510.75,0.188,102,146.0
6140,A2,510.75,0.25,95,146.0
6141,E2,511.0,0.188,102,146.0
6142,E2,511.0,0.188,102,146.0
6143,G2,511.0,0.25,95,146.0
6144,E2,511.25,0.188,102,146.0
6145,E2,511.25,0.188,102,146.0
6146,C2,511.25,0.25,95,146.0
6147,D3,511.5,0.188,102,146.0
6148,D3,511.5,0.188,102,146.0
6149,B2,511.5,0.25,95,146.0
6150,E3,511.75,0.188,102,146.0
6151,E3,511.75,0.188,102,146.0
6152,A2,511.75,0.25,95,146.0
6153,D3,512.0,0.188,102,146.0
6154,D3,512.0,0.188,102,146.0
6155,B2,512.0,0.25,95,146.0
6156,C#3,512.25,0.188,102,146.0
6157,C#3,512.25,0.188,102,146.0
6158,A2,512.25,0.25,95,146.0
6159,E2,512.5,0.188,102,146.0
6160,E2,512.5,0.188,102,146.0
6161,G2,512.5,0.25,95,146.0
6162,E2,512.75,0.188,102,146.0
6163,E2,512.75,0.188,102,146.0
6164,C2,512.75,0.25,95,146.0
6165,B-4,512.958,4.0,127,146.0
6166,C#3,513.0,0.188,102,146.0
6167,C#3,513.0,0.188,102,146.0
6168,B-2,513.0,0.25,95,146.0
6169,D3,513.25,0.188,102,146.0
6170,D3,513.25,0.188,102,146.0
6171,B-2,513.25,0.25,95,146.0
6172,C#3,513.5,0.188,102,146.0
6173,C#3,513.5,0.188,102,146.0
6174,F#2,513.5,0.25,95,146.0
6175,C2,513.5,0.25,95,146.0
6176,E2,513.75,0.188,102,146.0
6177,E2,513.75,0.188,102,146.0
6178,G2,513.75,0.25,95,146.0
6179,E3,514.0,0.188,102,146.0
6180,E3,514.0,0.188,102,146.0
6181,B2,514.0,0.25,95,146.0
6182,F3,514.25,0.188,102,146.0
6183,F3,514.25,0.188,102,146.0
6184,A2,514.25,0.25,95,146.0
6185,E3,514.5,0.188,102,146.0
6186,E3,514.5,0.188,102,146.0
6187,B2,514.5,0.25,95,146.0
6188,D3,514.75,0.188,102,146.0
6189,D3,514.75,0.188,102,146.0
6190,A2,514.75,0.25,95,146.0
6191,E2,515.0,0.188,102,146.0
6192,E2,515.0,0.188,102,146.0
6193,G2,515.0,0.25,95,146.0
6194,E2,515.25,0.188,102,146.0
6195,E2,515.25,0.188,102,146.0
6196,C2,515.25,0.25,95,146.0
6197,C3,515.5,0.188,102,146.0
6198,C3,515.5,0.188,102,146.0
6199,B2,515.5,0.25,95,146.0
6200,D3,515.75,0.188,102,146.0
6201,D3,515.75,0.188,102,146.0
6202,A2,515.75,0.25,95,146.0
6203,C3,516.0,0.188,102,146.0
6204,C3,516.0,0.188,102,146.0
6205,B2,516.0,0.25,95,146.0
6206,B2,516.25,0.188,102,146.0
6207,B2,516.25,0.188,102,146.0
6208,A2,516.25,0.25,95,146.0
6209,E2,516.5,0.188,102,146.0
6210,E2,516.5,0.188,102,146.0
6211,G2,516.5,0.25,95,146.0
6212,C2,516.75,0.25,95,146.0
6213,B-4,516.958,4.0,127,146.0
6214,B-2,517.0,0.25,95,146.0
6215,E2,517.25,0.188,102,146.0
6216,E2,517.25,0.188,102,146.0
6217,B-2,517.25,0.25,95,146.0
6218,E2,517.5,0.375,102,146.0
6219,E2,517.5,0.375,102,146.0
6220,F#2,517.5,0.25,95,146.0
6221,C2,517.5,0.25,95,146.0
6222,G2,517.75,0.25,95,146.0
6223,E3,518.0,0.188,102,146.0
6224,E3,518.0,0.188,102,146.0
6225,B2,518.0,0.25,95,146.0
6226,F3,518.25,0.188,102,146.0
6227,F3,518.25,0.188,102,146.0
6228,A2,518.25,0.25,95,146.0
6229,E3,518.5,0.188,102,146.0
6230,E3,518.5,0.188,102,146.0
6231,B2,518.5,0.25,95,146.0
6232,D3,518.75,0.188,102,146.0
6233,D3,518.75,0.188,102,146.0
6234,A2,518.75,0.25,95,146.0
6235,E2,519.0,0.188,102,146.0
6236,E2,519.0,0.188,102,146.0
6237,G2,519.0,0.25,95,146.0
6238,E2,519.25,0.188,102,146.0
6239,E2,519.25,0.188,102,146.0
6240,C2,519.25,0.25,95,146.0
6241,C3,519.5,0.188,102,146.0
6242,C3,519.5,0.188,102,146.0
6243,B2,519.5,0.25,95,146.0
6244,D3,519.75,0.188,102,146.0
6245,D3,519.75,0.188,102,146.0
6246,A2,519.75,0.25,95,146.0
6247,C3,520.0,0.188,102,146.0
6248,C3,520.0,0.188,102,146.0
6249,B2,520.0,0.25,95,146.0
6250,B2,520.25,0.188,102,146.0
6251,B2,520.25,0.188,102,146.0
6252,A2,520.25,0.25,95,146.0
6253,E2,520.5,0.188,102,146.0
6254,E2,520.5,0.188,102,146.0
6255,G2,520.5,0.25,95,146.0
6256,C2,520.75,0.25,95,146.0
6257,B-4,520.958,4.0,127,146.0
6258,B-2,521.0,0.25,95,146.0
6259,E2,521.25,0.188,102,146.0
6260,E2,521.25,0.188,102,146.0
6261,B-2,521.25,0.25,95,146.0
6262,E2,521.5,0.375,102,146.0
6263,E2,521.5,0.375,102,146.0
6264,F#2,521.5,0.25,95,146.0
6265,C2,521.5,0.25,95,146.0
6266,G2,521.75,0.25,95,146.0
6267,E3,522.0,0.188,102,146.0
6268,E3,522.0,0.188,102,146.0
6269,B2,522.0,0.25,95,146.0
6270,F3,522.25,0.188,102,146.0
6271,F3,522.25,0.188,102,146.0
6272,A2,522.25,0.25,95,146.0
6273,E3,522.5,0.188,102,146.0
6274,E3,522.5,0.188,102,146.0
6275,B2,522.5,0.25,95,146.0
6276,D3,522.75,0.188,102,146.0
6277,D3,522.75,0.188,102,146.0
6278,A2,522.75,0.25,95,146.0
6279,E2,523.0,0.188,102,146.0
6280,E2,523.0,0.188,102,146.0
6281,G2,523.0,0.25,95,146.0
6282,E2,523.25,0.188,102,146.0
6283,E2,523.25,0.188,102,146.0
6284,C2,523.25,0.25,95,146.0
6285,C3,523.5,0.188,102,146.0
6286,C3,523.5,0.188,102,146.0
6287,B2,523.5,0.25,95,146.0
6288,D3,523.75,0.188,102,146.0
6289,D3,523.75,0.188,102,146.0
6290,A2,523.75,0.25,95,146.0
6291,C3,524.0,0.188,102,146.0
6292,C3,524.0,0.188,102,146.0
6293,B2,524.0,0.25,95,146.0
6294,B2,524.25,0.188,102,146.0
6295,B2,524.25,0.188,102,146.0
6296,A2,524.25,0.25,95,146.0
6297,E2,524.5,0.188,102,146.0
6298,E2,524.5,0.188,102,146.0
6299,G2,524.5,0.25,95,146.0
6300,C2,524.75,0.25,95,146.0
6301,B-4,524.958,4.0,127,146.0
6302,B-2,525.0,0.25,95,146.0
6303,E2,525.25,0.188,102,146.0
6304,E2,525.25,0.188,102,146.0
6305,B-2,525.25,0.25,95,146.0
6306,E2,525.5,0.375,102,146.0
6307,E2,525.5,0.375,102,146.0
6308,F#2,525.5,0.25,95,146.0
6309,C2,525.5,0.25,95,146.0
6310,G2,525.75,0.25,95,146.0
6311,E3,526.0,0.188,102,146.0
6312,E3,526.0,0.188,102,146.0
6313,B2,526.0,0.25,95,146.0
6314,F3,526.25,0.188,102,146.0
6315,F3,526.25,0.188,102,146.0
6316,A2,526.25,0.25,95,146.0
6317,E3,526.5,0.188,102,146.0
6318,E3,526.5,0.188,102,146.0
6319,B2,526.5,0.25,95,146.0
6320,D3,526.75,0.188,102,146.0
6321,D3,526.75,0.188,102,146.0
6322,A2,526.75,0.25,95,146.0
6323,E2,527.0,0.188,102,146.0
6324,E2,527.0,0.188,102,146.0
6325,G2,527.0,0.25,95,146.0
6326,E2,527.25,0.188,102,146.0
6327,E2,527.25,0.188,102,146.0
6328,C2,527.25,0.25,95,146.0
6329,F3,527.5,0.188,102,146.0
6330,F3,527.5,0.188,102,146.0
6331,B2,527.5,0.25,95,146.0
6332,G3,527.75,0.188,102,146.0
6333,G3,527.75,0.188,102,146.0
6334,A2,527.75,0.25,95,146.0
6335,F3,528.0,0.188,102,146.0
6336,F3,528.0,0.188,102,146.0
6337,B2,528.0,0.25,95,146.0
6338,E3,528.25,0.188,102,146.0
6339,E3,528.25,0.188,102,146.0
6340,A2,528.25,0.25,95,146.0
6341,E2,528.5,0.188,102,146.0
6342,E2,528.5,0.188,102,146.0
6343,G2,528.5,0.25,95,146.0
6344,E2,528.75,0.188,102,146.0
6345,E2,528.75,0.188,102,146.0
6346,C2,528.75,0.25,95,146.0
6347,B-4,528.958,4.0,127,146.0
6348,B2,529.0,0.188,102,146.0
6349,B2,529.0,0.188,102,146.0
6350,B-2,529.0,0.25,95,146.0
6351,C3,529.25,0.188,102,146.0
6352,C3,529.25,0.188,102,146.0
6353,B-2,529.25,0.25,95,146.0
6354,B2,529.5,0.188,102,146.0
6355,B2,529.5,0.188,102,146.0
6356,F#2,529.5,0.25,95,146.0
6357,C2,529.5,0.25,95,146.0
6358,E2,529.75,0.188,102,146.0
6359,E2,529.75,0.188,102,146.0
6360,G2,529.75,0.25,95,146.0
6361,E3,530.0,0.188,102,146.0
6362,E3,530.0,0.188,102,146.0
6363,B2,530.0,0.25,95,146.0
6364,F3,530.25,0.188,102,146.0
6365,F3,530.25,0.188,102,146.0
6366,A2,530.25,0.25,95,146.0
6367,E3,530.5,0.188,102,146.0
6368,E3,530.5,0.188,102,146.0
6369,B2,530.5,0.25,95,146.0
6370,D3,530.75,0.188,102,146.0
6371,D3,530.75,0.188,102,146.0
6372,A2,530.75,0.25,95,146.0
6373,E2,531.0,0.188,102,146.0
6374,E2,531.0,0.188,102,146.0
6375,G2,531.0,0.25,95,146.0
6376,E2,531.25,0.188,102,146.0
6377,E2,531.25,0.188,102,146.0
6378,C2,531.25,0.25,95,146.0
6379,C3,531.5,0.188,102,146.0
6380,C3,531.5,0.188,102,146.0
6381,B2,531.5,0.25,95,146.0
6382,D3,531.75,0.188,102,146.0
6383,D3,531.75,0.188,102,146.0
6384,A2,531.75,0.25,95,146.0
6385,C3,532.0,0.188,102,146.0
6386,C3,532.0,0.188,102,146.0
6387,B2,532.0,0.25,95,146.0
6388,B2,532.25,0.188,102,146.0
6389,B2,532.25,0.188,102,146.0
6390,A2,532.25,0.25,95,146.0
6391,E2,532.5,0.188,102,146.0
6392,E2,532.5,0.188,102,146.0
6393,G2,532.5,0.25,95,146.0
6394,C2,532.75,0.25,95,146.0
6395,B-4,532.958,4.0,127,146.0
6396,B-2,533.0,0.25,95,146.0
6397,E2,533.25,0.188,102,146.0
6398,E2,533.25,0.188,102,146.0
6399,B-2,533.25,0.25,95,146.0
6400,E2,533.5,0.375,102,146.0
6401,E2,533.5,0.375,102,146.0
6402,F#2,533.5,0.25,95,146.0
6403,C2,533.5,0.25,95,146.0
6404,G2,533.75,0.25,95,146.0
6405,E3,534.0,0.188,102,146.0
6406,E3,534.0,0.188,102,146.0
6407,B2,534.0,0.25,95,146.0
6408,F3,534.25,0.188,102,146.0
6409,F3,534.25,0.188,102,146.0
6410,A2,534.25,0.25,95,146.0
6411,E3,534.5,0.188,102,146.0
6412,E3,534.5,0.188,102,146.0
6413,B2,534.5,0.25,95,146.0
6414,D3,534.75,0.188,102,146.0
6415,D3,534.75,0.188,102,146.0
6416,A2,534.75,0.25,95,146.0
6417,E2,535.0,0.188,102,146.0
6418,E2,535.0,0.188,102,146.0
6419,G2,535.0,0.25,95,146.0
6420,E2,535.25,0.188,102,146.0
6421,E2,535.25,0.188,102,146.0
6422,C2,535.25,0.25,95,146.0
6423,C3,535.5,0.188,102,146.0
6424,C3,535.5,0.188,102,146.0
6425,B2,535.5,0.25,95,146.0
6426,D3,535.75,0.188,102,146.0
6427,D3,535.75,0.188,102,146.0
6428,A2,535.75,0.25,95,146.0
6429,C3,536.0,0.188,102,146.0
6430,C3,536.0,0.188,102,146.0
6431,B2,536.0,0.25,95,146.0
6432,B2,536.25,0.188,102,146.0
6433,B2,536.25,0.188,102,146.0
6434,A2,536.25,0.25,95,146.0
6435,E2,536.5,0.188,102,146.0
6436,E2,536.5,0.188,102,146.0
6437,G2,536.5,0.25,95,146.0
6438,C2,536.75,0.25,95,146.0
6439,B-4,536.958,4.0,127,146.0
6440,B-2,537.0,0.25,95,146.0
6441,E2,537.25,0.188,102,146.0
6442,E2,537.25,0.188,102,146.0
6443,B-2,537.25,0.25,95,146.0
6444,E2,537.5,0.375,102,146.0
6445,E2,537.5,0.375,102,146.0
6446,F#2,537.5,0.25,95,146.0
6447,C2,537.5,0.25,95,146.0
6448,G2,537.75,0.25,95,146.0
6449,E3,538.0,0.188,102,146.0
6450,E3,538.0,0.188,102,146.0
6451,B2,538.0,0.25,95,146.0
6452,F3,538.25,0.188,102,146.0
6453,F3,538.25,0.188,102,146.0
6454,A2,538.25,0.25,95,146.0
6455,E3,538.5,0.188,102,146.0
6456,E3,538.5,0.188,102,146.0
6457,B2,538.5,0.25,95,146.0
6458,D3,538.75,0.188,102,146.0
6459,D3,538.75,0.188,102,146.0
6460,A2,538.75,0.25,95,146.0
6461,E2,539.0,0.188,102,146.0
6462,E2,539.0,0.188,102,146.0
6463,G2,539.0,0.25,95,146.0
6464,E2,539.25,0.188,102,146.0
6465,E2,539.25,0.188,102,146.0
6466,C2,539.25,0.25,95,146.0
6467,C3,539.5,0.188,102,146.0
6468,C3,539.5,0.188,102,146.0
6469,B2,539.5,0.25,95,146.0
6470,D3,539.75,0.188,102,146.0
6471,D3,539.75,0.188,102,146.0
6472,A2,539.75,0.25,95,146.0
6473,C3,540.0,0.188,102,146.0
6474,C3,540.0,0.188,102,146.0
6475,B2,540.0,0.25,95,146.0
6476,B2,540.25,0.188,102,146.0
6477,B2,540.25,0.188,102,146.0
6478,A2,540.25,0.25,95,146.0
6479,E2,540.5,0.188,102,146.0
6480,E2,540.5,0.188,102,146.0
6481,G2,540.5,0.25,95,146.0
6482,C2,540.75,0.25,95,146.0
6483,B-4,540.958,4.0,127,146.0
6484,B-2,541.0,0.25,95,146.0
6485,E2,541.25,0.188,102,146.0
6486,E2,541.25,0.188,102,146.0
6487,B-2,541.25,0.25,95,146.0
6488,E2,541.5,0.375,102,146.0
6489,E2,541.5,0.375,102,146.0
6490,F#2,541.5,0.25,95,146.0
6491,C2,541.5,0.25,95,146.0
6492,G2,541.75,0.25,95,146.0
6493,E3,542.0,0.188,102,146.0
6494,E3,542.0,0.188,102,146.0
6495,B2,542.0,0.25,95,146.0
6496,F3,542.25,0.188,102,146.0
6497,F3,542.25,0.188,102,146.0
6498,A2,542.25,0.25,95,146.0
6499,E3,542.5,0.188,102,146.0
6500,E3,542.5,0.188,102,146.0
6501,B2,542.5,0.25,95,146.0
6502,D3,542.75,0.188,102,146.0
6503,D3,542.75,0.188,102,146.0
6504,A2,542.75,0.25,95,146.0
6505,E2,543.0,0.188,102,146.0
6506,E2,543.0,0.188,102,146.0
6507,G2,543.0,0.25,95,146.0
6508,E2,543.25,0.188,102,146.0
6509,E2,543.25,0.188,102,146.0
6510,C2,543.25,0.25,95,146.0
6511,F3,543.5,0.188,102,146.0
6512,F3,543.5,0.188,102,146.0
6513,B2,543.5,0.25,95,146.0
6514,G3,543.75,0.188,102,146.0
6515,G3,543.75,0.188,102,146.0
6516,A2,543.75,0.25,95,146.0
6517,F3,544.0,0.188,102,146.0
6518,F3,544.0,0.188,102,146.0
6519,B2,544.0,0.25,95,146.0
6520,E3,544.25,0.188,102,146.0
6521,E3,544.25,0.188,102,146.0
6522,A2,544.25,0.25,95,146.0
6523,E2,544.5,0.188,102,146.0
6524,E2,544.5,0.188,102,146.0
6525,G2,544.5,0.25,95,146.0
6526,E2,544.75,0.188,102,146.0
6527,E2,544.75,0.188,102,146.0
6528,C2,544.75,0.25,95,146.0
6529,B-4,544.958,4.0,127,146.0
6530,B2,545.0,0.188,102,146.0
6531,B2,545.0,0.188,102,146.0
6532,B-2,545.0,0.25,95,146.0
6533,C3,545.25,0.188,102,146.0
6534,C3,545.25,0.188,102,146.0
6535,B-2,545.25,0.25,95,146.0
6536,B2,545.5,0.188,102,146.0
6537,B2,545.5,0.188,102,146.0
6538,F#2,545.5,0.25,95,146.0
6539,C2,545.5,0.25,95,146.0
6540,E2,545.75,0.188,102,146.0
6541,E2,545.75,0.188,102,146.0
6542,G2,545.75,0.25,95,146.0
6543,G3,546.0,0.188,102,146.0
6544,G3,546.0,0.188,102,146.0
6545,B2,546.0,0.25,95,146.0
6546,G#3,546.25,0.188,102,146.0
6547,G#3,546.25,0.188,102,146.0
6548,A2,546.25,0.25,95,146.0
6549,G3,546.5,0.188,102,146.0
6550,G3,546.5,0.188,102,146.0
6551,B2,546.5,0.25,95,146.0
6552,F3,546.75,0.188,102,146.0
6553,F3,546.75,0.188,102,146.0
6554,A2,546.75,0.25,95,146.0
6555,E2,547.0,0.188,102,146.0
6556,E2,547.0,0.188,102,146.0
6557,G2,547.0,0.25,95,146.0
6558,E2,547.25,0.188,102,146.0
6559,E2,547.25,0.188,102,146.0
6560,C2,547.25,0.25,95,146.0
6561,F3,547.5,0.188,102,146.0
6562,F3,547.5,0.188,102,146.0
6563,B2,547.5,0.25,95,146.0
6564,G3,547.75,0.188,102,146.0
6565,G3,547.75,0.188,102,146.0
6566,A2,547.75,0.25,95,146.0
6567,F3,548.0,0.188,102,146.0
6568,F3,548.0,0.188,102,146.0
6569,B2,548.0,0.25,95,146.0
6570,E3,548.25,0.188,102,146.0
6571,E3,548.25,0.188,102,146.0
6572,A2,548.25,0.25,95,146.0
6573,E2,548.5,0.188,102,146.0
6574,E2,548.5,0.188,102,146.0
6575,G2,548.5,0.25,95,146.0
6576,E2,548.75,0.188,102,146.0
6577,E2,548.75,0.188,102,146.0
6578,C2,548.75,0.25,95,146.0
6579,B-4,548.958,4.0,127,146.0
6580,D3,549.0,0.188,102,146.0
6581,D3,549.0,0.188,102,146.0
6582,B-2,549.0,0.25,95,146.0
6583,E3,549.25,0.188,102,146.0
6584,E3,549.25,0.188,102,146.0
6585,B-2,549.25,0.25,95,146.0
6586,D3,549.5,0.188,102,146.0
6587,D3,549.5,0.188,102,146.0
6588,F#2,549.5,0.25,95,146.0
6589,C2,549.5,0.25,95,146.0
6590,E3,549.75,0.188,102,146.0
6591,E3,549.75,0.188,102,146.0
6592,G2,549.75,0.25,95,146.0
6593,G3,550.0,0.188,102,146.0
6594,G3,550.0,0.188,102,146.0
6595,B2,550.0,0.25,95,146.0
6596,G#3,550.25,0.188,102,146.0
6597,G#3,550.25,0.188,102,146.0
6598,A2,550.25,0.25,95,146.0
6599,G3,550.5,0.188,102,146.0
6600,G3,550.5,0.188,102,146.0
6601,B2,550.5,0.25,95,146.0
6602,F3,550.75,0.188,102,146.0
6603,F3,550.75,0.188,102,146.0
6604,A2,550.75,0.25,95,146.0
6605,E2,551.0,0.188,102,146.0
6606,E2,551.0,0.188,102,146.0
6607,G2,551.0,0.25,95,146.0
6608,E2,551.25,0.188,102,146.0
6609,E2,551.25,0.188,102,146.0
6610,C2,551.25,0.25,95,146.0
6611,F3,551.5,0.188,102,146.0
6612,F3,551.5,0.188,102,146.0
6613,B2,551.5,0.25,95,146.0
6614,G3,551.75,0.188,102,146.0
6615,G3,551.75,0.188,102,146.0
6616,A2,551.75,0.25,95,146.0
6617,F3,552.0,0.188,102,146.0
6618,F3,552.0,0.188,102,146.0
6619,B2,552.0,0.25,95,146.0
6620,E3,552.25,0.188,102,146.0
6621,E3,552.25,0.188,102,146.0
6622,A2,552.25,0.25,95,146.0
6623,E2,552.5,0.188,102,146.0
6624,E2,552.5,0.188,102,146.0
6625,G2,552.5,0.25,95,146.0
6626,E2,552.75,0.188,102,146.0
6627,E2,552.75,0.188,102,146.0
6628,C2,552.75,0.25,95,146.0
6629,B-4,552.958,4.0,127,146.0
6630,D3,553.0,0.188,102,146.0
6631,D3,553.0,0.188,102,146.0
6632,B-2,553.0,0.25,95,146.0
6633,E3,553.25,0.188,102,146.0
6634,E3,553.25,0.188,102,146.0
6635,B-2,553.25,0.25,95,146.0
6636,D3,553.5,0.188,102,146.0
6637,D3,553.5,0.188,102,146.0
6638,F#2,553.5,0.25,95,146.0
6639,C2,553.5,0.25,95,146.0
6640,E3,553.75,0.188,102,146.0
6641,E3,553.75,0.188,102,146.0
6642,G2,553.75,0.25,95,146.0
6643,G3,554.0,0.188,102,146.0
6644,G3,554.0,0.188,102,146.0
6645,B2,554.0,0.25,95,146.0
6646,G#3,554.25,0.188,102,146.0
6647,G#3,554.25,0.188,102,146.0
6648,A2,554.25,0.25,95,146.0
6649,G3,554.5,0.188,102,146.0
6650,G3,554.5,0.188,102,146.0
6651,B2,554.5,0.25,95,146.0
6652,F3,554.75,0.188,102,146.0
6653,F3,554.75,0.188,102,146.0
6654,A2,554.75,0.25,95,146.0
6655,E2,555.0,0.188,102,146.0
6656,E2,555.0,0.188,102,146.0
6657,G2,555.0,0.25,95,146.0
6658,E2,555.25,0.188,102,146.0
6659,E2,555.25,0.188,102,146.0
6660,C2,555.25,0.25,95,146.0
6661,F3,555.5,0.188,102,146.0
6662,F3,555.5,0.188,102,146.0
6663,B2,555.5,0.25,95,146.0
6664,G3,555.75,0.188,102,146.0
6665,G3,555.75,0.188,102,146.0
6666,A2,555.75,0.25,95,146.0
6667,F3,556.0,0.188,102,146.0
6668,F3,556.0,0.188,102,146.0
6669,B2,556.0,0.25,95,146.0
6670,E3,556.25,0.188,102,146.0
6671,E3,556.25,0.188,102,146.0
6672,A2,556.25,0.25,95,146.0
6673,E2,556.5,0.188,102,146.0
6674,E2,556.5,0.188,102,146.0
6675,G2,556.5,0.25,95,146.0
6676,E2,556.75,0.188,102,146.0
6677,E2,556.75,0.188,102,146.0
6678,C2,556.75,0.25,95,146.0
6679,B-4,556.958,4.0,127,146.0
6680,D3,557.0,0.188,102,146.0
6681,D3,557.0,0.188,102,146.0
6682,B-2,557.0,0.25,95,146.0
6683,E3,557.25,0.188,102,146.0
6684,E3,557.25,0.188,102,146.0
6685,B-2,557.25,0.25,95,146.0
6686,D3,557.5,0.188,102,146.0
6687,D3,557.5,0.188,102,146.0
6688,F#2,557.5,0.25,95,146.0
6689,C2,557.5,0.25,95,146.0
6690,E3,557.75,0.188,102,146.0
6691,E3,557.75,0.188,102,146.0
6692,G2,557.75,0.25,95,146.0
6693,G3,558.0,0.188,102,146.0
6694,G3,558.0,0.188,102,146.0
6695,B2,558.0,0.25,95,146.0
6696,G#3,558.25,0.188,102,146.0
6697,G#3,558.25,0.188,102,146.0
6698,A2,558.25,0.25,95,146.0
6699,G3,558.5,0.188,102,146.0
6700,G3,558.5,0.188,102,146.0
6701,B2,558.5,0.25,95,146.0
6702,F3,558.75,0.188,102,146.0
6703,F3,558.75,0.188,102,146.0
6704,A2,558.75,0.25,95,146.0
6705,E2,559.0,0.188,102,146.0
6706,E2,559.0,0.188,102,146.0
6707,G2,559.0,0.25,95,146.0
6708,E2,559.25,0.188,102,146.0
6709,E2,559.25,0.188,102,146.0
6710,C2,559.25,0.25,95,146.0
6711,F3,559.5,0.188,102,146.0
6712,F3,559.5,0.188,102,146.0
6713,B2,559.5,0.25,95,146.0
6714,G3,559.75,0.188,102,146.0
6715,G3,559.75,0.188,102,146.0
6716,A2,559.75,0.25,95,146.0
6717,F3,560.0,0.188,102,146.0
6718,F3,560.0,0.188,102,146.0
6719,B2,560.0,0.25,95,146.0
6720,E3,560.25,0.188,102,146.0
6721,E3,560.25,0.188,102,146.0
6722,A2,560.25,0.25,95,146.0
6723,E2,560.5,0.188,102,146.0
6724,E2,560.5,0.188,102,146.0
6725,G2,560.5,0.25,95,146.0
6726,E2,560.75,0.188,102,146.0
6727,E2,560.75,0.188,102,146.0
6728,C2,560.75,0.25,95,146.0
6729,B-4,560.958,4.0,127,146.0
6730,D3,561.0,0.188,102,146.0
6731,D3,561.0,0.188,102,146.0
6732,B-2,561.0,0.25,95,146.0
6733,E3,561.25,0.188,102,146.0
6734,E3,561.25,0.188,102,146.0
6735,B-2,561.25,0.25,95,146.0
6736,D3,561.5,0.188,102,146.0
6737,D3,561.5,0.188,102,146.0
6738,F#2,561.5,0.25,95,146.0
6739,C2,561.5,0.25,95,146.0
6740,E2,561.75,0.188,102,146.0
6741,E2,561.75,0.188,102,146.0
6742,G2,561.75,0.25,95,146.0
6743,B-3,562.0,0.188,102,146.0
6744,B-3,562.0,0.188,102,146.0
6745,B2,562.0,0.25,95,146.0
6746,B3,562.25,0.188,102,146.0
6747,B3,562.25,0.188,102,146.0
6748,A2,562.25,0.25,95,146.0
6749,B-3,562.5,0.188,102,146.0
6750,B-3,562.5,0.188,102,146.0
6751,B2,562.5,0.25,95,146.0
6752,G#3,562.75,0.188,102,146.0
6753,G#3,562.75,0.188,102,146.0
6754,A2,562.75,0.25,95,146.0
6755,E2,563.0,0.188,102,146.0
6756,E2,563.0,0.188,102,146.0
6757,G2,563.0,0.25,95,146.0
6758,E2,563.25,0.188,102,146.0
6759,E2,563.25,0.188,102,146.0
6760,C2,563.25,0.25,95,146.0
6761,G#3,563.5,0.188,102,146.0
6762,G#3,563.5,0.188,102,146.0
6763,B2,563.5,0.25,95,146.0
6764,B-3,563.75,0.188,102,146.0
6765,B-3,563.75,0.188,102,146.0
6766,A2,563.75,0.25,95,146.0
6767,G#3,564.0,0.188,102,146.0
6768,G#3,564.0,0.188,102,146.0
6769,B2,564.0,0.25,95,146.0
6770,E2,564.25,0.188,102,146.0
6771,E2,564.25,0.188,102,146.0
6772,A2,564.25,0.25,95,146.0
6773,G#3,564.5,0.188,102,146.0
6774,G#3,564.5,0.188,102,146.0
6775,G2,564.5,0.25,95,146.0
6776,B-3,564.75,0.188,102,146.0
6777,B-3,564.75,0.188,102,146.0
6778,C2,564.75,0.25,95,146.0
6779,B-4,564.958,4.0,127,146.0
6780,G#3,565.0,0.188,102,146.0
6781,G#3,565.0,0.188,102,146.0
6782,B-2,565.0,0.25,95,146.0
6783,E2,565.25,0.188,102,146.0
6784,E2,565.25,0.188,102,146.0
6785,B-2,565.25,0.25,95,146.0
6786,F#3,565.5,0.188,102,146.0
6787,F#3,565.5,0.188,102,146.0
6788,F#2,565.5,0.25,95,146.0
6789,C2,565.5,0.25,95,146.0
6790,E2,565.75,0.188,102,146.0
6791,E2,565.75,0.188,102,146.0
6792,G2,565.75,0.25,95,146.0
6793,B-3,566.0,0.188,102,146.0
6794,B-3,566.0,0.188,102,146.0
6795,B2,566.0,0.25,95,146.0
6796,B3,566.25,0.188,102,146.0
6797,B3,566.25,0.188,102,146.0
6798,A2,566.25,0.25,95,146.0
6799,B-3,566.5,0.188,102,146.0
6800,B-3,566.5,0.188,102,146.0
6801,B2,566.5,0.25,95,146.0
6802,G#3,566.75,0.188,102,146.0
6803,G#3,566.75,0.188,102,146.0
6804,A2,566.75,0.25,95,146.0
6805,E2,567.0,0.188,102,146.0
6806,E2,567.0,0.188,102,146.0
6807,G2,567.0,0.25,95,146.0
6808,E2,567.25,0.188,102,146.0
6809,E2,567.25,0.188,102,146.0
6810,C2,567.25,0.25,95,146.0
6811,G#3,567.5,0.188,102,146.0
6812,G#3,567.5,0.188,102,146.0
6813,B2,567.5,0.25,95,146.0
6814,B-3,567.75,0.188,102,146.0
6815,B-3,567.75,0.188,102,146.0
6816,A2,567.75,0.25,95,146.0
6817,G#3,568.0,0.188,102,146.0
6818,G#3,568.0,0.188,102,146.0
6819,B2,568.0,0.25,95,146.0
6820,E2,568.25,0.188,102,146.0
6821,E2,568.25,0.188,102,146.0
6822,A2,568.25,0.25,95,146.0
6823,G#3,568.5,0.188,102,146.0
6824,G#3,568.5,0.188,102,146.0
6825,G2,568.5,0.25,95,146.0
6826,B-3,568.75,0.188,102,146.0
6827,B-3,568.75,0.188,102,146.0
6828,C2,568.75,0.25,95,146.0
6829,B-4,568.958,4.0,127,146.0
6830,G#3,569.0,0.188,102,146.0
6831,G#3,569.0,0.188,102,146.0
6832,B-2,569.0,0.25,95,146.0
6833,E2,569.25,0.188,102,146.0
6834,E2,569.25,0.188,102,146.0
6835,B-2,569.25,0.25,95,146.0
6836,F#3,569.5,0.188,102,146.0
6837,F#3,569.5,0.188,102,146.0
6838,F#2,569.5,0.25,95,146.0
6839,C2,569.5,0.25,95,146.0
6840,E2,569.75,0.188,102,146.0
6841,E2,569.75,0.188,102,146.0
6842,G2,569.75,0.25,95,146.0
6843,B3,570.0,0.188,102,146.0
6844,B3,570.0,0.188,102,146.0
6845,B2,570.0,0.25,95,146.0
6846,C#4,570.25,0.188,102,146.0
6847,C#4,570.25,0.188,102,146.0
6848,A2,570.25,0.25,95,146.0
6849,B3,570.5,0.188,102,146.0
6850,B3,570.5,0.188,102,146.0
6851,B2,570.5,0.25,95,146.0
6852,B-3,570.75,0.188,102,146.0
6853,B-3,570.75,0.188,102,146.0
6854,A2,570.75,0.25,95,146.0
6855,E2,571.0,0.188,102,146.0
6856,E2,571.0,0.188,102,146.0
6857,G2,571.0,0.25,95,146.0
6858,E2,571.25,0.188,102,146.0
6859,E2,571.25,0.188,102,146.0
6860,C2,571.25,0.25,95,146.0
6861,B-3,571.5,0.188,102,146.0
6862,B-3,571.5,0.188,102,146.0
6863,B2,571.5,0.25,95,146.0
6864,B3,571.75,0.188,102,146.0
6865,B3,571.75,0.188,102,146.0
6866,A2,571.75,0.25,95,146.0
6867,B-3,572.0,0.188,102,146.0
6868,B-3,572.0,0.188,102,146.0
6869,B2,572.0,0.25,95,146.0
6870,G#3,572.25,0.188,102,146.0
6871,G#3,572.25,0.188,102,146.0
6872,A2,572.25,0.25,95,146.0
6873,E2,572.5,0.188,102,146.0
6874,E2,572.5,0.188,102,146.0
6875,G2,572.5,0.25,95,146.0
6876,E2,572.75,0.188,102,146.0
6877,E2,572.75,0.188,102,146.0
6878,C2,572.75,0.25,95,146.0
6879,B-4,572.958,4.0,127,146.0
6880,G#3,573.0,0.188,102,146.0
6881,G#3,573.0,0.188,102,146.0
6882,B-2,573.0,0.25,95,146.0
6883,B-3,573.25,0.188,102,146.0
6884,B-3,573.25,0.188,102,146.0
6885,B-2,573.25,0.25,95,146.0
6886,G#3,573.5,0.188,102,146.0
6887,G#3,573.5,0.188,102,146.0
6888,F#2,573.5,0.25,95,146.0
6889,C2,573.5,0.25,95,146.0
6890,F#3,573.75,0.188,102,146.0
6891,F#3,573.75,0.188,102,146.0
6892,G2,573.75,0.25,95,146.0
6893,E3,574.0,0.25,127,146.0
6894,E3,574.0,0.25,127,146.0
6895,B2,574.0,0.25,95,146.0
6896,F#3,574.25,0.25,127,146.0
6897,F#3,574.25,0.25,127,146.0
6898,A2,574.25,0.25,95,146.0
6899,G#3,574.5,0.25,127,146.0
6900,G#3,574.5,0.25,127,146.0
6901,B2,574.5,0.25,95,146.0
6902,B-3,574.75,0.25,127,146.0
6903,B-3,574.75,0.25,127,146.0
6904,A2,574.75,0.25,95,146.0
6905,B3,575.0,0.25,127,146.0
6906,B3,575.0,0.25,127,146.0
6907,G2,575.0,0.25,95,146.0
6908,C#4,575.25,0.25,127,146.0
6909,C#4,575.25,0.25,127,146.0
6910,C2,575.25,0.25,95,146.0
6911,B-3,575.5,0.25,127,146.0
6912,B-3,575.5,0.25,127,146.0
6913,B2,575.5,0.25,95,146.0
6914,B3,575.75,0.25,127,146.0
6915,B3,575.75,0.25,127,146.0
6916,A2,575.75,0.25,95,146.0
6917,C#4,576.0,0.25,127,146.0
6918,C#4,576.0,0.25,127,146.0
6919,B2,576.0,0.25,95,146.0
6920,E-4,576.25,0.25,127,146.0
6921,E-4,576.25,0.25,127,146.0
6922,A2,576.25,0.25,95,146.0
6923,E4,576.5,0.25,127,146.0
6924,E4,576.5,0.25,127,146.0
6925,G2,576.5,0.25,95,146.0
6926,F#4,576.75,0.25,127,146.0
6927,F#4,576.75,0.25,127,146.0
6928,C2,576.75,0.25,95,146.0
6929,B-4,576.958,4.0,127,146.0
6930,E-4,577.0,0.144,127,146.0
6931,E-4,577.0,0.144,127,146.0
6932,B-2,577.0,0.25,95,146.0
6933,E4,577.144,0.142,127,146.0
6934,E4,577.144,0.142,127,146.0
6935,B-2,577.25,0.25,95,146.0
6936,F#4,577.285,0.144,127,146.0
6937,F#4,577.285,0.144,127,146.0
6938,F#4,577.429,0.142,127,146.0
6939,F#4,577.429,0.142,127,146.0
6940,F#2,577.5,0.25,95,146.0
6941,C2,577.5,0.25,95,146.0
6942,G#4,577.571,0.144,127,146.0
6943,G#4,577.571,0.144,127,146.0
6944,B-4,577.715,0.142,127,146.0
6945,B-4,577.715,0.142,127,146.0
6946,G2,577.75,0.25,95,146.0
6947,B4,577.856,0.144,127,146.0
6948,B4,577.856,0.144,127,146.0
6949,E4,578.0,0.25,127,146.0
6950,E4,578.0,0.25,127,146.0
6951,A3,578.0,0.5,95,146.0
6952,F#4,578.25,0.25,127,146.0
6953,F#4,578.25,0.25,127,146.0
6954,G#4,578.5,0.25,127,146.0
6955,G#4,578.5,0.25,127,146.0
6956,A3,578.5,0.5,95,146.0
6957,B-4,578.75,0.25,127,146.0
6958,B-4,578.75,0.25,127,146.0
6959,B4,579.0,0.25,127,146.0
6960,B4,579.0,0.25,127,146.0
6961,B2,579.0,0.5,95,146.0
6962,C#5,579.25,0.25,127,146.0
6963,C#5,579.25,0.25,127,146.0
6964,B-4,579.5,0.25,127,146.0
6965,B-4,579.5,0.25,127,146.0
6966,A2,579.5,0.5,95,146.0
6967,B4,579.75,0.25,127,146.0
6968,B4,579.75,0.25,127,146.0
6969,C#5,580.0,0.25,127,146.0
6970,C#5,580.0,0.25,127,146.0
6971,B2,580.0,0.5,95,146.0
6972,E-5,580.25,0.25,127,146.0
6973,E-5,580.25,0.25,127,146.0
6974,E5,580.5,0.25,127,146.0
6975,E5,580.5,0.25,127,146.0
6976,A2,580.5,0.5,95,146.0
6977,F#5,580.75,0.25,127,146.0
6978,F#5,580.75,0.25,127,146.0
6979,B-4,580.958,4.0,127,146.0
6980,E-5,581.0,167/1000,127,146.0
6981,E-5,581.0,167/1000,127,146.0
6982,C2,581.0,0.5,95,146.0
6983,E5,581.167,167/1000,127,146.0
6984,E5,581.167,167/1000,127,146.0
6985,F#5,581.333,167/1000,127,146.0
6986,F#5,581.333,167/1000,127,146.0
6987,G#5,581.5,167/1000,127,146.0
6988,G#5,581.5,167/1000,127,146.0
6989,C2,581.5,0.5,95,146.0
6990,B-5,581.667,167/1000,127,146.0
6991,B-5,581.667,167/1000,127,146.0
6992,B5,581.833,167/1000,127,146.0
6993,B5,581.833,167/1000,127,146.0
6994,E2,582.0,0.25,95,146.0
6995,E4,582.0,0.25,79,146.0
6996,B3,582.0,0.25,79,146.0
6997,E3,582.0,0.25,79,146.0
6998,E2,582.0,0.25,79,146.0
6999,E4,582.0,0.25,79,146.0
7000,B3,582.0,0.25,79,146.0
7001,E3,582.0,0.25,79,146.0
7002,E2,582.0,0.25,79,146.0
7003,E2,582.25,0.25,95,146.0
7004,E4,582.25,0.25,79,146.0
7005,B3,582.25,0.25,79,146.0
7006,E3,582.25,0.25,79,146.0
7007,E2,582.25,0.25,79,146.0
7008,E4,582.25,0.25,79,146.0
7009,B3,582.25,0.25,79,146.0
7010,E3,582.25,0.25,79,146.0
7011,E2,582.25,0.25,79,146.0
7012,E2,582.5,0.25,95,146.0
7013,E4,582.5,0.25,79,146.0
7014,B3,582.5,0.25,79,146.0
7015,E3,582.5,0.25,79,146.0
7016,E2,582.5,0.25,79,146.0
7017,E4,582.5,0.25,79,146.0
7018,B3,582.5,0.25,79,146.0
7019,E3,582.5,0.25,79,146.0
7020,E2,582.5,0.25,79,146.0
7021,E2,582.75,0.25,95,146.0
7022,E4,582.75,0.25,79,146.0
7023,B3,582.75,0.25,79,146.0
7024,E3,582.75,0.25,79,146.0
7025,E2,582.75,0.25,79,146.0
7026,E4,582.75,0.25,79,146.0
7027,B3,582.75,0.25,79,146.0
7028,E3,582.75,0.25,79,146.0
7029,E2,582.75,0.25,79,146.0
7030,E2,583.0,0.25,95,146.0
7031,E4,583.0,0.25,79,146.0
7032,B3,583.0,0.25,79,146.0
7033,E3,583.0,0.25,79,146.0
7034,E2,583.0,0.25,79,146.0
7035,E4,583.0,0.25,79,146.0
7036,B3,583.0,0.25,79,146.0
7037,E3,583.0,0.25,79,146.0
7038,E2,583.0,0.25,79,146.0
7039,C2,583.25,0.25,95,146.0
7040,E2,583.5,0.25,95,146.0
7041,E4,583.5,0.25,79,146.0
7042,B3,583.5,0.25,79,146.0
7043,E3,583.5,0.25,79,146.0
7044,E2,583.5,0.25,79,146.0
7045,E4,583.5,0.25,79,146.0
7046,B3,583.5,0.25,79,146.0
7047,E3,583.5,0.25,79,146.0
7048,E2,583.5,0.25,79,146.0
7049,E2,583.75,0.25,95,146.0
7050,E4,583.75,0.25,79,146.0
7051,B3,583.75,0.25,79,146.0
7052,E3,583.75,0.25,79,146.0
7053,E2,583.75,0.25,79,146.0
7054,E4,583.75,0.25,79,146.0
7055,B3,583.75,0.25,79,146.0
7056,E3,583.75,0.25,79,146.0
7057,E2,583.75,0.25,79,146.0
7058,E2,584.0,0.25,95,146.0
7059,E4,584.0,0.25,79,146.0
7060,B3,584.0,0.25,79,146.0
7061,E3,584.0,0.25,79,146.0
7062,E2,584.0,0.25,79,146.0
7063,E4,584.0,0.25,79,146.0
7064,B3,584.0,0.25,79,146.0
7065,E3,584.0,0.25,79,146.0
7066,E2,584.0,0.25,79,146.0
7067,E2,584.25,0.25,95,146.0
7068,E4,584.25,0.25,79,146.0
7069,B3,584.25,0.25,79,146.0
7070,E3,584.25,0.25,79,146.0
7071,E2,584.25,0.25,79,146.0
7072,E4,584.25,0.25,79,146.0
7073,B3,584.25,0.25,79,146.0
7074,E3,584.25,0.25,79,146.0
7075,E2,584.25,0.25,79,146.0
7076,E2,584.5,0.25,95,146.0
7077,E4,584.5,0.25,79,146.0
7078,B3,584.5,0.25,79,146.0
7079,E3,584.5,0.25,79,146.0
7080,E2,584.5,0.25,79,146.0
7081,E4,584.5,0.25,79,146.0
7082,B3,584.5,0.25,79,146.0
7083,E3,584.5,0.25,79,146.0
7084,E2,584.5,0.25,79,146.0
7085,C2,584.75,0.25,95,146.0
7086,B-4,584.958,4.0,127,146.0
7087,E2,586.0,0.25,95,146.0
7088,E4,586.0,0.25,79,146.0
7089,B3,586.0,0.25,79,146.0
7090,E3,586.0,0.25,79,146.0
7091,E2,586.0,0.25,79,146.0
7092,E4,586.0,0.25,79,146.0
7093,B3,586.0,0.25,79,146.0
7094,E3,586.0,0.25,79,146.0
7095,E2,586.0,0.25,79,146.0
7096,E2,586.25,0.25,95,146.0
7097,E4,586.25,0.25,79,146.0
7098,B3,586.25,0.25,79,146.0
7099,E3,586.25,0.25,79,146.0
7100,E2,586.25,0.25,79,146.0
7101,E4,586.25,0.25,79,146.0
7102,B3,586.25,0.25,79,146.0
7103,E3,586.25,0.25,79,146.0
7104,E2,586.25,0.25,79,146.0
7105,E2,586.5,0.25,95,146.0
7106,E4,586.5,0.25,79,146.0
7107,B3,586.5,0.25,79,146.0
7108,E3,586.5,0.25,79,146.0
7109,E2,586.5,0.25,79,146.0
7110,E4,586.5,0.25,79,146.0
7111,B3,586.5,0.25,79,146.0
7112,E3,586.5,0.25,79,146.0
7113,E2,586.5,0.25,79,146.0
7114,E2,586.75,0.25,95,146.0
7115,E4,586.75,0.25,79,146.0
7116,B3,586.75,0.25,79,146.0
7117,E3,586.75,0.25,79,146.0
7118,E2,586.75,0.25,79,146.0
7119,E4,586.75,0.25,79,146.0
7120,B3,586.75,0.25,79,146.0
7121,E3,586.75,0.25,79,146.0
7122,E2,586.75,0.25,79,146.0
7123,E2,587.0,0.25,95,146.0
7124,E4,587.0,0.25,79,146.0
7125,B3,587.0,0.25,79,146.0
7126,E3,587.0,0.25,79,146.0
7127,E2,587.0,0.25,79,146.0
7128,E4,587.0,0.25,79,146.0
7129,B3,587.0,0.25,79,146.0
7130,E3,587.0,0.25,79,146.0
7131,E2,587.0,0.25,79,146.0
7132,C2,587.25,0.25,95,146.0
7133,E2,587.5,0.25,95,146.0
7134,E4,587.5,0.25,79,146.0
7135,B3,587.5,0.25,79,146.0
7136,E3,587.5,0.25,79,146.0
7137,E2,587.5,0.25,79,146.0
7138,E4,587.5,0.25,79,146.0
7139,B3,587.5,0.25,79,146.0
7140,E3,587.5,0.25,79,146.0
7141,E2,587.5,0.25,79,146.0
7142,E2,587.75,0.25,95,146.0
7143,E4,587.75,0.25,79,146.0
7144,B3,587.75,0.25,79,146.0
7145,E3,587.75,0.25,79,146.0
7146,E2,587.75,0.25,79,146.0
7147,E4,587.75,0.25,79,146.0
7148,B3,587.75,0.25,79,146.0
7149,E3,587.75,0.25,79,146.0
7150,E2,587.75,0.25,79,146.0
7151,E2,588.0,0.25,95,146.0
7152,E4,588.0,0.25,79,146.0
7153,B3,588.0,0.25,79,146.0
7154,E3,588.0,0.25,79,146.0
7155,E2,588.0,0.25,79,146.0
7156,E4,588.0,0.25,79,146.0
7157,B3,588.0,0.25,79,146.0
7158,E3,588.0,0.25,79,146.0
7159,E2,588.0,0.25,79,146.0
7160,E2,588.25,0.25,95,146.0
7161,E4,588.25,0.25,79,146.0
7162,B3,588.25,0.25,79,146.0
7163,E3,588.25,0.25,79,146.0
7164,E2,588.25,0.25,79,146.0
7165,E4,588.25,0.25,79,146.0
7166,B3,588.25,0.25,79,146.0
7167,E3,588.25,0.25,79,146.0
7168,E2,588.25,0.25,79,146.0
7169,E2,588.5,0.25,95,146.0
7170,E4,588.5,0.25,79,146.0
7171,B3,588.5,0.25,79,146.0
7172,E3,588.5,0.25,79,146.0
7173,E2,588.5,0.25,79,146.0
7174,E4,588.5,0.25,79,146.0
7175,B3,588.5,0.25,79,146.0
7176,E3,588.5,0.25,79,146.0
7177,E2,588.5,0.25,79,146.0
7178,C2,588.75,0.25,95,146.0
7179,B-4,588.958,4.0,127,146.0
7180,E2,590.0,0.25,95,146.0
7181,E4,590.0,0.25,79,146.0
7182,B3,590.0,0.25,79,146.0
7183,E3,590.0,0.25,79,146.0
7184,E2,590.0,0.25,79,146.0
7185,E4,590.0,0.25,79,146.0
7186,B3,590.0,0.25,79,146.0
7187,E3,590.0,0.25,79,146.0
7188,E2,590.0,0.25,79,146.0
7189,E2,590.25,0.25,95,146.0
7190,E4,590.25,0.25,79,146.0
7191,B3,590.25,0.25,79,146.0
7192,E3,590.25,0.25,79,146.0
7193,E2,590.25,0.25,79,146.0
7194,E4,590.25,0.25,79,146.0
7195,B3,590.25,0.25,79,146.0
7196,E3,590.25,0.25,79,146.0
7197,E2,590.25,0.25,79,146.0
7198,E2,590.5,0.25,95,146.0
7199,E4,590.5,0.25,79,146.0
7200,B3,590.5,0.25,79,146.0
7201,E3,590.5,0.25,79,146.0
7202,E2,590.5,0.25,79,146.0
7203,E4,590.5,0.25,79,146.0
7204,B3,590.5,0.25,79,146.0
7205,E3,590.5,0.25,79,146.0
7206,E2,590.5,0.25,79,146.0
7207,E2,590.75,0.25,95,146.0
7208,E4,590.75,0.25,79,146.0
7209,B3,590.75,0.25,79,146.0
7210,E3,590.75,0.25,79,146.0
7211,E2,590.75,0.25,79,146.0
7212,E4,590.75,0.25,79,146.0
7213,B3,590.75,0.25,79,146.0
7214,E3,590.75,0.25,79,146.0
7215,E2,590.75,0.25,79,146.0
7216,E2,591.0,0.25,95,146.0
7217,E4,591.0,0.25,79,146.0
7218,B3,591.0,0.25,79,146.0
7219,E3,591.0,0.25,79,146.0
7220,E2,591.0,0.25,79,146.0
7221,E4,591.0,0.25,79,146.0
7222,B3,591.0,0.25,79,146.0
7223,E3,591.0,0.25,79,146.0
7224,E2,591.0,0.25,79,146.0
7225,C2,591.25,0.25,95,146.0
7226,E2,591.5,0.25,95,146.0
7227,E4,591.5,0.25,79,146.0
7228,B3,591.5,0.25,79,146.0
7229,E3,591.5,0.25,79,146.0
7230,E2,591.5,0.25,79,146.0
7231,E4,591.5,0.25,79,146.0
7232,B3,591.5,0.25,79,146.0
7233,E3,591.5,0.25,79,146.0
7234,E2,591.5,0.25,79,146.0
7235,E2,591.75,0.25,95,146.0
7236,E4,591.75,0.25,79,146.0
7237,B3,591.75,0.25,79,146.0
7238,E3,591.75,0.25,79,146.0
7239,E2,591.75,0.25,79,146.0
7240,E4,591.75,0.25,79,146.0
7241,B3,591.75,0.25,79,146.0
7242,E3,591.75,0.25,79,146.0
7243,E2,591.75,0.25,79,146.0
7244,E2,592.0,0.25,95,146.0
7245,E4,592.0,0.25,79,146.0
7246,B3,592.0,0.25,79,146.0
7247,E3,592.0,0.25,79,146.0
7248,E2,592.0,0.25,79,146.0
7249,E4,592.0,0.25,79,146.0
7250,B3,592.0,0.25,79,146.0
7251,E3,592.0,0.25,79,146.0
7252,E2,592.0,0.25,79,146.0
7253,E2,592.25,0.25,95,146.0
7254,E4,592.25,0.25,79,146.0
7255,B3,592.25,0.25,79,146.0
7256,E3,592.25,0.25,79,146.0
7257,E2,592.25,0.25,79,146.0
7258,E4,592.25,0.25,79,146.0
7259,B3,592.25,0.25,79,146.0
7260,E3,592.25,0.25,79,146.0
7261,E2,592.25,0.25,79,146.0
7262,E2,592.5,0.25,95,146.0
7263,E4,592.5,0.25,79,146.0
7264,B3,592.5,0.25,79,146.0
7265,E3,592.5,0.25,79,146.0
7266,E2,592.5,0.25,79,146.0
7267,E4,592.5,0.25,79,146.0
7268,B3,592.5,0.25,79,146.0
7269,E3,592.5,0.25,79,146.0
7270,E2,592.5,0.25,79,146.0
7271,C2,592.75,0.25,95,146.0
7272,B-4,592.958,4.0,127,146.0
7273,E6,592.958,4.0,79,146.0
7274,G#5,592.958,4.0,79,146.0
7275,E2,594.0,0.25,95,146.0
7276,E4,594.0,0.25,79,146.0
7277,B3,594.0,0.25,79,146.0
7278,E3,594.0,0.25,79,146.0
7279,E2,594.0,0.25,79,146.0
7280,E4,594.0,0.25,79,146.0
7281,B3,594.0,0.25,79,146.0
7282,E3,594.0,0.25,79,146.0
7283,E2,594.0,0.25,79,146.0
7284,E2,594.25,0.25,95,146.0
7285,E4,594.25,0.25,79,146.0
7286,B3,594.25,0.25,79,146.0
7287,E3,594.25,0.25,79,146.0
7288,E2,594.25,0.25,79,146.0
7289,E4,594.25,0.25,79,146.0
7290,B3,594.25,0.25,79,146.0
7291,E3,594.25,0.25,79,146.0
7292,E2,594.25,0.25,79,146.0
7293,E2,594.5,0.25,95,146.0
7294,E4,594.5,0.25,79,146.0
7295,B3,594.5,0.25,79,146.0
7296,E3,594.5,0.25,79,146.0
7297,E2,594.5,0.25,79,146.0
7298,E4,594.5,0.25,79,146.0
7299,B3,594.5,0.25,79,146.0
7300,E3,594.5,0.25,79,146.0
7301,E2,594.5,0.25,79,146.0
7302,E2,594.75,0.25,95,146.0
7303,E4,594.75,0.25,79,146.0
7304,B3,594.75,0.25,79,146.0
7305,E3,594.75,0.25,79,146.0
7306,E2,594.75,0.25,79,146.0
7307,E4,594.75,0.25,79,146.0
7308,B3,594.75,0.25,79,146.0
7309,E3,594.75,0.25,79,146.0
7310,E2,594.75,0.25,79,146.0
7311,E2,595.0,0.25,95,146.0
7312,E4,595.0,0.25,79,146.0
7313,B3,595.0,0.25,79,146.0
7314,E3,595.0,0.25,79,146.0
7315,E2,595.0,0.25,79,146.0
7316,E4,595.0,0.25,79,146.0
7317,B3,595.0,0.25,79,146.0
7318,E3,595.0,0.25,79,146.0
7319,E2,595.0,0.25,79,146.0
7320,C2,595.25,0.25,95,146.0
7321,E2,595.5,0.25,95,146.0
7322,E4,595.5,0.25,79,146.0
7323,B3,595.5,0.25,79,146.0
7324,E3,595.5,0.25,79,146.0
7325,E2,595.5,0.25,79,146.0
7326,E4,595.5,0.25,79,146.0
7327,B3,595.5,0.25,79,146.0
7328,E3,595.5,0.25,79,146.0
7329,E2,595.5,0.25,79,146.0
7330,E2,595.75,0.25,95,146.0
7331,E4,595.75,0.25,79,146.0
7332,B3,595.75,0.25,79,146.0
7333,E3,595.75,0.25,79,146.0
7334,E2,595.75,0.25,79,146.0
7335,E4,595.75,0.25,79,146.0
7336,B3,595.75,0.25,79,146.0
7337,E3,595.75,0.25,79,146.0
7338,E2,595.75,0.25,79,146.0
7339,E2,596.0,0.25,95,146.0
7340,E4,596.0,0.25,79,146.0
7341,B3,596.0,0.25,79,146.0
7342,E3,596.0,0.25,79,146.0
7343,E2,596.0,0.25,79,146.0
7344,E4,596.0,0.25,79,146.0
7345,B3,596.0,0.25,79,146.0
7346,E3,596.0,0.25,79,146.0
7347,E2,596.0,0.25,79,146.0
7348,E2,596.25,0.25,95,146.0
7349,E4,596.25,0.25,79,146.0
7350,B3,596.25,0.25,79,146.0
7351,E3,596.25,0.25,79,146.0
7352,E2,596.25,0.25,79,146.0
7353,E4,596.25,0.25,79,146.0
7354,B3,596.25,0.25,79,146.0
7355,E3,596.25,0.25,79,146.0
7356,E2,596.25,0.25,79,146.0
7357,E2,596.5,0.25,95,146.0
7358,E4,596.5,0.25,79,146.0
7359,B3,596.5,0.25,79,146.0
7360,E3,596.5,0.25,79,146.0
7361,E2,596.5,0.25,79,146.0
7362,E4,596.5,0.25,79,146.0
7363,B3,596.5,0.25,79,146.0
7364,E3,596.5,0.25,79,146.0
7365,E2,596.5,0.25,79,146.0
7366,C2,596.75,0.25,95,146.0
7367,B-4,596.958,4.0,127,146.0
7368,E6,596.958,4.0,79,146.0
7369,G#5,596.958,4.0,79,146.0
7370,E2,598.0,0.25,95,146.0
7371,E4,598.0,0.25,79,146.0
7372,B3,598.0,0.25,79,146.0
7373,E3,598.0,0.25,79,146.0
7374,E2,598.0,0.25,79,146.0
7375,E4,598.0,0.25,79,146.0
7376,B3,598.0,0.25,79,146.0
7377,E3,598.0,0.25,79,146.0
7378,E2,598.0,0.25,79,146.0
7379,E2,598.25,0.25,95,146.0
7380,E4,598.25,0.25,79,146.0
7381,B3,598.25,0.25,79,146.0
7382,E3,598.25,0.25,79,146.0
7383,E2,598.25,0.25,79,146.0
7384,E4,598.25,0.25,79,146.0
7385,B3,598.25,0.25,79,146.0
7386,E3,598.25,0.25,79,146.0
7387,E2,598.25,0.25,79,146.0
7388,E2,598.5,0.25,95,146.0
7389,E4,598.5,0.25,79,146.0
7390,B3,598.5,0.25,79,146.0
7391,E3,598.5,0.25,79,146.0
7392,E2,598.5,0.25,79,146.0
7393,E4,598.5,0.25,79,146.0
7394,B3,598.5,0.25,79,146.0
7395,E3,598.5,0.25,79,146.0
7396,E2,598.5,0.25,79,146.0
7397,E2,598.75,0.25,95,146.0
7398,E4,598.75,0.25,79,146.0
7399,B3,598.75,0.25,79,146.0
7400,E3,598.75,0.25,79,146.0
7401,E2,598.75,0.25,79,146.0
7402,E4,598.75,0.25,79,146.0
7403,B3,598.75,0.25,79,146.0
7404,E3,598.75,0.25,79,146.0
7405,E2,598.75,0.25,79,146.0
7406,E2,599.0,0.25,95,146.0
7407,E4,599.0,0.25,79,146.0
7408,B3,599.0,0.25,79,146.0
7409,E3,599.0,0.25,79,146.0
7410,E2,599.0,0.25,79,146.0
7411,E4,599.0,0.25,79,146.0
7412,B3,599.0,0.25,79,146.0
7413,E3,599.0,0.25,79,146.0
7414,E2,599.0,0.25,79,146.0
7415,C2,599.25,0.25,95,146.0
7416,E2,599.5,0.25,95,146.0
7417,E4,599.5,0.25,79,146.0
7418,B3,599.5,0.25,79,146.0
7419,E3,599.5,0.25,79,146.0
7420,E2,599.5,0.25,79,146.0
7421,E4,599.5,0.25,79,146.0
7422,B3,599.5,0.25,79,146.0
7423,E3,599.5,0.25,79,146.0
7424,E2,599.5,0.25,79,146.0
7425,E2,599.75,0.25,95,146.0
7426,E4,599.75,0.25,79,146.0
7427,B3,599.75,0.25,79,146.0
7428,E3,599.75,0.25,79,146.0
7429,E2,599.75,0.25,79,146.0
7430,E4,599.75,0.25,79,146.0
7431,B3,599.75,0.25,79,146.0
7432,E3,599.75,0.25,79,146.0
7433,E2,599.75,0.25,79,146.0
7434,E2,600.0,0.25,95,146.0
7435,E4,600.0,0.25,79,146.0
7436,B3,600.0,0.25,79,146.0
7437,E3,600.0,0.25,79,146.0
7438,E2,600.0,0.25,79,146.0
7439,E4,600.0,0.25,79,146.0
7440,B3,600.0,0.25,79,146.0
7441,E3,600.0,0.25,79,146.0
7442,E2,600.0,0.25,79,146.0
7443,E2,600.25,0.25,95,146.0
7444,E4,600.25,0.25,79,146.0
7445,B3,600.25,0.25,79,146.0
7446,E3,600.25,0.25,79,146.0
7447,E2,600.25,0.25,79,146.0
7448,E4,600.25,0.25,79,146.0
7449,B3,600.25,0.25,79,146.0
7450,E3,600.25,0.25,79,146.0
7451,E2,600.25,0.25,79,146.0
7452,E2,600.5,0.25,95,146.0
7453,E4,600.5,0.25,79,146.0
7454,B3,600.5,0.25,79,146.0
7455,E3,600.5,0.25,79,146.0
7456,E2,600.5,0.25,79,146.0
7457,E4,600.5,0.25,79,146.0
7458,B3,600.5,0.25,79,146.0
7459,E3,600.5,0.25,79,146.0
7460,E2,600.5,0.25,79,146.0
7461,C2,600.75,0.25,95,146.0
7462,B-4,600.958,4.0,127,146.0
7463,B-5,600.958,4.0,79,146.0
7464,E5,600.958,4.0,79,146.0
7465,E2,602.0,0.25,95,146.0
7466,E4,602.0,0.25,79,146.0
7467,B3,602.0,0.25,79,146.0
7468,E3,602.0,0.25,79,146.0
7469,E2,602.0,0.25,79,146.0
7470,E4,602.0,0.25,79,146.0
7471,B3,602.0,0.25,79,146.0
7472,E3,602.0,0.25,79,146.0
7473,E2,602.0,0.25,79,146.0
7474,E2,602.25,0.25,95,146.0
7475,E4,602.25,0.25,79,146.0
7476,B3,602.25,0.25,79,146.0
7477,E3,602.25,0.25,79,146.0
7478,E2,602.25,0.25,79,146.0
7479,E4,602.25,0.25,79,146.0
7480,B3,602.25,0.25,79,146.0
7481,E3,602.25,0.25,79,146.0
7482,E2,602.25,0.25,79,146.0
7483,E2,602.5,0.25,95,146.0
7484,E4,602.5,0.25,79,146.0
7485,B3,602.5,0.25,79,146.0
7486,E3,602.5,0.25,79,146.0
7487,E2,602.5,0.25,79,146.0
7488,E4,602.5,0.25,79,146.0
7489,B3,602.5,0.25,79,146.0
7490,E3,602.5,0.25,79,146.0
7491,E2,602.5,0.25,79,146.0
7492,E2,602.75,0.25,95,146.0
7493,E4,602.75,0.25,79,146.0
7494,B3,602.75,0.25,79,146.0
7495,E3,602.75,0.25,79,146.0
7496,E2,602.75,0.25,79,146.0
7497,E4,602.75,0.25,79,146.0
7498,B3,602.75,0.25,79,146.0
7499,E3,602.75,0.25,79,146.0
7500,E2,602.75,0.25,79,146.0
7501,E2,603.0,0.25,95,146.0
7502,E4,603.0,0.25,79,146.0
7503,B3,603.0,0.25,79,146.0
7504,E3,603.0,0.25,79,146.0
7505,E2,603.0,0.25,79,146.0
7506,E4,603.0,0.25,79,146.0
7507,B3,603.0,0.25,79,146.0
7508,E3,603.0,0.25,79,146.0
7509,E2,603.0,0.25,79,146.0
7510,C2,603.25,0.25,95,146.0
7511,E2,603.5,0.25,95,146.0
7512,E4,603.5,0.25,79,146.0
7513,B3,603.5,0.25,79,146.0
7514,E3,603.5,0.25,79,146.0
7515,E2,603.5,0.25,79,146.0
7516,E4,603.5,0.25,79,146.0
7517,B3,603.5,0.25,79,146.0
7518,E3,603.5,0.25,79,146.0
7519,E2,603.5,0.25,79,146.0
7520,E2,603.75,0.25,95,146.0
7521,E4,603.75,0.25,79,146.0
7522,B3,603.75,0.25,79,146.0
7523,E3,603.75,0.25,79,146.0
7524,E2,603.75,0.25,79,146.0
7525,E4,603.75,0.25,79,146.0
7526,B3,603.75,0.25,79,146.0
7527,E3,603.75,0.25,79,146.0
7528,E2,603.75,0.25,79,146.0
7529,E2,604.0,0.25,95,146.0
7530,E4,604.0,0.25,79,146.0
7531,B3,604.0,0.25,79,146.0
7532,E3,604.0,0.25,79,146.0
7533,E2,604.0,0.25,79,146.0
7534,E4,604.0,0.25,79,146.0
7535,B3,604.0,0.25,79,146.0
7536,E3,604.0,0.25,79,146.0
7537,E2,604.0,0.25,79,146.0
7538,E2,604.25,0.25,95,146.0
7539,E4,604.25,0.25,79,146.0
7540,B3,604.25,0.25,79,146.0
7541,E3,604.25,0.25,79,146.0
7542,E2,604.25,0.25,79,146.0
7543,E4,604.25,0.25,79,146.0
7544,B3,604.25,0.25,79,146.0
7545,E3,604.25,0.25,79,146.0
7546,E2,604.25,0.25,79,146.0
7547,E2,604.5,0.25,95,146.0
7548,E4,604.5,0.25,79,146.0
7549,B3,604.5,0.25,79,146.0
7550,E3,604.5,0.25,79,146.0
7551,E2,604.5,0.25,79,146.0
7552,E4,604.5,0.25,79,146.0
7553,B3,604.5,0.25,79,146.0
7554,E3,604.5,0.25,79,146.0
7555,E2,604.5,0.25,79,146.0
7556,C2,604.75,0.25,95,146.0
7557,B-4,604.958,4.0,127,146.0
7558,B-5,604.958,4.0,79,146.0
7559,E5,604.958,4.0,79,146.0
7560,E2,606.0,0.25,95,146.0
7561,E4,606.0,0.25,79,146.0
7562,B3,606.0,0.25,79,146.0
7563,E3,606.0,0.25,79,146.0
7564,E2,606.0,0.25,79,146.0
7565,E4,606.0,0.25,79,146.0
7566,B3,606.0,0.25,79,146.0
7567,E3,606.0,0.25,79,146.0
7568,E2,606.0,0.25,79,146.0
7569,E2,606.25,0.25,95,146.0
7570,E4,606.25,0.25,79,146.0
7571,B3,606.25,0.25,79,146.0
7572,E3,606.25,0.25,79,146.0
7573,E2,606.25,0.25,79,146.0
7574,E4,606.25,0.25,79,146.0
7575,B3,606.25,0.25,79,146.0
7576,E3,606.25,0.25,79,146.0
7577,E2,606.25,0.25,79,146.0
7578,E2,606.5,0.25,95,146.0
7579,E4,606.5,0.25,79,146.0
7580,B3,606.5,0.25,79,146.0
7581,E3,606.5,0.25,79,146.0
7582,E2,606.5,0.25,79,146.0
7583,E4,606.5,0.25,79,146.0
7584,B3,606.5,0.25,79,146.0
7585,E3,606.5,0.25,79,146.0
7586,E2,606.5,0.25,79,146.0
7587,E2,606.75,0.25,95,146.0
7588,E4,606.75,0.25,79,146.0
7589,B3,606.75,0.25,79,146.0
7590,E3,606.75,0.25,79,146.0
7591,E2,606.75,0.25,79,146.0
7592,E4,606.75,0.25,79,146.0
7593,B3,606.75,0.25,79,146.0
7594,E3,606.75,0.25,79,146.0
7595,E2,606.75,0.25,79,146.0
7596,E2,607.0,0.25,95,146.0
7597,E4,607.0,0.25,79,146.0
7598,B3,607.0,0.25,79,146.0
7599,E3,607.0,0.25,79,146.0
7600,E2,607.0,0.25,79,146.0
7601,E4,607.0,0.25,79,146.0
7602,B3,607.0,0.25,79,146.0
7603,E3,607.0,0.25,79,146.0
7604,E2,607.0,0.25,79,146.0
7605,C2,607.25,0.25,95,146.0
7606,E2,607.5,0.25,95,146.0
7607,E4,607.5,0.25,79,146.0
7608,B3,607.5,0.25,79,146.0
7609,E3,607.5,0.25,79,146.0
7610,E2,607.5,0.25,79,146.0
7611,E4,607.5,0.25,79,146.0
7612,B3,607.5,0.25,79,146.0
7613,E3,607.5,0.25,79,146.0
7614,E2,607.5,0.25,79,146.0
7615,E2,607.75,0.25,95,146.0
7616,E4,607.75,0.25,79,146.0
7617,B3,607.75,0.25,79,146.0
7618,E3,607.75,0.25,79,146.0
7619,E2,607.75,0.25,79,146.0
7620,E4,607.75,0.25,79,146.0
7621,B3,607.75,0.25,79,146.0
7622,E3,607.75,0.25,79,146.0
7623,E2,607.75,0.25,79,146.0
7624,E2,608.0,0.25,95,146.0
7625,E4,608.0,0.25,79,146.0
7626,B3,608.0,0.25,79,146.0
7627,E3,608.0,0.25,79,146.0
7628,E2,608.0,0.25,79,146.0
7629,E4,608.0,0.25,79,146.0
7630,B3,608.0,0.25,79,146.0
7631,E3,608.0,0.25,79,146.0
7632,E2,608.0,0.25,79,146.0
7633,E2,608.25,0.25,95,146.0
7634,E4,608.25,0.25,79,146.0
7635,B3,608.25,0.25,79,146.0
7636,E3,608.25,0.25,79,146.0
7637,E2,608.25,0.25,79,146.0
7638,E4,608.25,0.25,79,146.0
7639,B3,608.25,0.25,79,146.0
7640,E3,608.25,0.25,79,146.0
7641,E2,608.25,0.25,79,146.0
7642,E2,608.5,0.25,95,146.0
7643,E4,608.5,0.25,79,146.0
7644,B3,608.5,0.25,79,146.0
7645,E3,608.5,0.25,79,146.0
7646,E2,608.5,0.25,79,146.0
7647,E4,608.5,0.25,79,146.0
7648,B3,608.5,0.25,79,146.0
7649,E3,608.5,0.25,79,146.0
7650,E2,608.5,0.25,79,146.0
7651,C2,608.75,0.25,95,146.0
7652,B-4,608.958,4.0,127,146.0
7653,E5,608.958,4.0,79,146.0
7654,B4,608.958,4.0,79,146.0
7655,E2,610.0,0.25,95,146.0
7656,E4,610.0,0.25,79,146.0
7657,B3,610.0,0.25,79,146.0
7658,E3,610.0,0.25,79,146.0
7659,E2,610.0,0.25,79,146.0
7660,E4,610.0,0.25,79,146.0
7661,B3,610.0,0.25,79,146.0
7662,E3,610.0,0.25,79,146.0
7663,E2,610.0,0.25,79,146.0
7664,E2,610.25,0.25,95,146.0
7665,E4,610.25,0.25,79,146.0
7666,B3,610.25,0.25,79,146.0
7667,E3,610.25,0.25,79,146.0
7668,E2,610.25,0.25,79,146.0
7669,E4,610.25,0.25,79,146.0
7670,B3,610.25,0.25,79,146.0
7671,E3,610.25,0.25,79,146.0
7672,E2,610.25,0.25,79,146.0
7673,E2,610.5,0.25,95,146.0
7674,E4,610.5,0.25,79,146.0
7675,B3,610.5,0.25,79,146.0
7676,E3,610.5,0.25,79,146.0
7677,E2,610.5,0.25,79,146.0
7678,E4,610.5,0.25,79,146.0
7679,B3,610.5,0.25,79,146.0
7680,E3,610.5,0.25,79,146.0
7681,E2,610.5,0.25,79,146.0
7682,E2,610.75,0.25,95,146.0
7683,E4,610.75,0.25,79,146.0
7684,B3,610.75,0.25,79,146.0
7685,E3,610.75,0.25,79,146.0
7686,E2,610.75,0.25,79,146.0
7687,E4,610.75,0.25,79,146.0
7688,B3,610.75,0.25,79,146.0
7689,E3,610.75,0.25,79,146.0
7690,E2,610.75,0.25,79,146.0
7691,E2,611.0,0.25,95,146.0
7692,E4,611.0,0.25,79,146.0
7693,B3,611.0,0.25,79,146.0
7694,E3,611.0,0.25,79,146.0
7695,E2,611.0,0.25,79,146.0
7696,E4,611.0,0.25,79,146.0
7697,B3,611.0,0.25,79,146.0
7698,E3,611.0,0.25,79,146.0
7699,E2,611.0,0.25,79,146.0
7700,C2,611.25,0.25,95,146.0
7701,E2,611.5,0.25,95,146.0
7702,E4,611.5,0.25,79,146.0
7703,B3,611.5,0.25,79,146.0
7704,E3,611.5,0.25,79,146.0
7705,E2,611.5,0.25,79,146.0
7706,E4,611.5,0.25,79,146.0
7707,B3,611.5,0.25,79,146.0
7708,E3,611.5,0.25,79,146.0
7709,E2,611.5,0.25,79,146.0
7710,E2,611.75,0.25,95,146.0
7711,E4,611.75,0.25,79,146.0
7712,B3,611.75,0.25,79,146.0
7713,E3,611.75,0.25,79,146.0
7714,E2,611.75,0.25,79,146.0
7715,E4,611.75,0.25,79,146.0
7716,B3,611.75,0.25,79,146.0
7717,E3,611.75,0.25,79,146.0
7718,E2,611.75,0.25,79,146.0
7719,E2,612.0,0.25,95,146.0
7720,E4,612.0,0.25,79,146.0
7721,B3,612.0,0.25,79,146.0
7722,E3,612.0,0.25,79,146.0
7723,E2,612.0,0.25,79,146.0
7724,E4,612.0,0.25,79,146.0
7725,B3,612.0,0.25,79,146.0
7726,E3,612.0,0.25,79,146.0
7727,E2,612.0,0.25,79,146.0
7728,E2,612.25,0.25,95,146.0
7729,E4,612.25,0.25,79,146.0
7730,B3,612.25,0.25,79,146.0
7731,E3,612.25,0.25,79,146.0
7732,E2,612.25,0.25,79,146.0
7733,E4,612.25,0.25,79,146.0
7734,B3,612.25,0.25,79,146.0
7735,E3,612.25,0.25,79,146.0
7736,E2,612.25,0.25,79,146.0
7737,E2,612.5,0.25,95,146.0
7738,E4,612.5,0.25,79,146.0
7739,B3,612.5,0.25,79,146.0
7740,E3,612.5,0.25,79,146.0
7741,E2,612.5,0.25,79,146.0
7742,E4,612.5,0.25,79,146.0
7743,B3,612.5,0.25,79,146.0
7744,E3,612.5,0.25,79,146.0
7745,E2,612.5,0.25,79,146.0
7746,C2,612.75,0.25,95,146.0
7747,B-4,612.958,4.0,127,146.0
7748,E5,612.958,2.5,79,146.0
7749,B4,612.958,2.5,79,146.0
7750,B-3,613.0,1.0,38,146.0
7751,B-3,613.0,1.0,38,146.0
7752,A3,613.0,1.0,95,146.0
7753,E2,614.0,0.375,89,146.0
7754,E2,614.0,0.375,89,146.0
7755,F#2,614.0,0.5,95,146.0
7756,C2,614.0,0.5,95,146.0
7757,E2,614.5,0.375,89,146.0
7758,E2,614.5,0.375,89,146.0
7759,C2,614.5,0.5,95,146.0
7760,E4,615.0,0.5,111,146.0
7761,B3,615.0,0.5,111,146.0
7762,E3,615.0,0.5,111,146.0
7763,E4,615.0,0.5,111,146.0
7764,B3,615.0,0.5,111,146.0
7765,E3,615.0,0.5,111,146.0
7766,F#2,615.0,1.0,95,146.0
7767,E2,615.0,1.0,95,146.0
7768,B4,615.458,1.5,79,146.0
7769,F4,615.458,1.5,79,146.0
7770,E4,615.5,0.5,111,146.0
7771,B3,615.5,0.5,111,146.0
7772,E3,615.5,0.5,111,146.0
7773,E4,615.5,0.5,111,146.0
7774,B3,615.5,0.5,111,146.0
7775,E3,615.5,0.5,111,146.0
7776,E4,616.0,0.5,111,146.0
7777,B3,616.0,0.5,111,146.0
7778,E3,616.0,0.5,111,146.0
7779,E4,616.0,0.5,111,146.0
7780,B3,616.0,0.5,111,146.0
7781,E3,616.0,0.5,111,146.0
7782,F#2,616.0,0.5,95,146.0
7783,C2,616.0,0.5,95,146.0
7784,C2,616.5,0.5,95,146.0
7785,E4,616.5,0.5,111,146.0
7786,B-3,616.5,0.5,111,146.0
7787,E3,616.5,0.5,111,146.0
7788,E4,616.5,0.5,111,146.0
7789,B-3,616.5,0.5,111,146.0
7790,E3,616.5,0.5,111,146.0
7791,B-4,616.958,4.0,79,146.0
7792,E4,616.958,4.0,79,146.0
7793,B-4,616.958,8.0,127,146.0
7794,E2,617.0,0.375,89,146.0
7795,E2,617.0,0.375,89,146.0
7796,B-2,617.0,1.0,95,146.0
7797,E2,617.0,1.0,95,146.0
7798,E2,617.5,0.375,89,146.0
7799,E2,617.5,0.375,89,146.0
7800,E4,618.0,0.5,111,146.0
7801,B3,618.0,0.5,111,146.0
7802,E3,618.0,0.5,111,146.0
7803,E4,618.0,0.5,111,146.0
7804,B3,618.0,0.5,111,146.0
7805,E3,618.0,0.5,111,146.0
7806,F#2,618.0,0.5,95,146.0
7807,C2,618.0,0.5,95,146.0
7808,C2,618.5,0.5,95,146.0
7809,E4,618.5,0.5,111,146.0
7810,B3,618.5,0.5,111,146.0
7811,E3,618.5,0.5,111,146.0
7812,E4,618.5,0.5,111,146.0
7813,B3,618.5,0.5,111,146.0
7814,E3,618.5,0.5,111,146.0
7815,E4,619.0,0.5,111,146.0
7816,B3,619.0,0.5,111,146.0
7817,E3,619.0,0.5,111,146.0
7818,E4,619.0,0.5,111,146.0
7819,B3,619.0,0.5,111,146.0
7820,E3,619.0,0.5,111,146.0
7821,F#2,619.0,1.0,95,146.0
7822,E2,619.0,1.0,95,146.0
7823,E4,619.5,0.5,111,146.0
7824,B-3,619.5,0.5,111,146.0
7825,E3,619.5,0.5,111,146.0
7826,E4,619.5,0.5,111,146.0
7827,B-3,619.5,0.5,111,146.0
7828,E3,619.5,0.5,111,146.0
7829,E2,620.0,0.375,89,146.0
7830,E2,620.0,0.375,89,146.0
7831,F#2,620.0,0.5,95,146.0
7832,C2,620.0,0.5,95,146.0
7833,E2,620.5,0.375,89,146.0
7834,E2,620.5,0.375,89,146.0
7835,C2,620.5,0.5,95,146.0
7836,E2,621.0,0.375,89,146.0
7837,E2,621.0,0.375,89,146.0
7838,B-2,621.0,1.0,95,146.0
7839,E2,621.0,1.0,95,146.0
7840,E4,621.5,0.5,111,146.0
7841,B3,621.5,0.5,111,146.0
7842,E3,621.5,0.5,111,146.0
7843,E4,621.5,0.5,111,146.0
7844,B3,621.5,0.5,111,146.0
7845,E3,621.5,0.5,111,146.0
7846,E2,622.0,0.375,89,146.0
7847,E2,622.0,0.375,89,146.0
7848,F#2,622.0,0.5,95,146.0
7849,C2,622.0,0.5,95,146.0
7850,E2,622.5,0.375,89,146.0
7851,E2,622.5,0.375,89,146.0
7852,C2,622.5,0.5,95,146.0
7853,E4,623.0,0.5,111,146.0
7854,B3,623.0,0.5,111,146.0
7855,E3,623.0,0.5,111,146.0
7856,E4,623.0,0.5,111,146.0
7857,B3,623.0,0.5,111,146.0
7858,E3,623.0,0.5,111,146.0
7859,F#2,623.0,1.0,95,146.0
7860,E2,623.0,1.0,95,146.0
7861,E4,623.5,0.5,111,146.0
7862,B3,623.5,0.5,111,146.0
7863,E3,623.5,0.5,111,146.0
7864,E4,623.5,0.5,111,146.0
7865,B3,623.5,0.5,111,146.0
7866,E3,623.5,0.5,111,146.0
7867,E4,624.0,0.5,111,146.0
7868,B3,624.0,0.5,111,146.0
7869,E3,624.0,0.5,111,146.0
7870,E4,624.0,0.5,111,146.0
7871,B3,624.0,0.5,111,146.0
7872,E3,624.0,0.5,111,146.0
7873,F#2,624.0,0.5,95,146.0
7874,C2,624.0,0.5,95,146.0
7875,C2,624.5,0.5,95,146.0
7876,E4,624.5,0.5,111,146.0
7877,B-3,624.5,0.5,111,146.0
7878,E3,624.5,0.5,111,146.0
7879,E4,624.5,0.5,111,146.0
7880,B-3,624.5,0.5,111,146.0
7881,E3,624.5,0.5,111,146.0
7882,B-4,624.958,4.0,79,146.0
7883,E4,624.958,4.0,79,146.0
7884,E2,625.0,0.375,89,146.0
7885,E2,625.0,0.375,89,146.0
7886,F#2,625.0,1.0,95,146.0
7887,E2,625.0,1.0,95,146.0
7888,E2,625.5,0.375,89,146.0
7889,E2,625.5,0.375,89,146.0
7890,C#4,626.0,0.5,111,146.0
7891,E3,626.0,0.5,111,146.0
7892,C#4,626.0,0.5,111,146.0
7893,E3,626.0,0.5,111,146.0
7894,F#2,626.0,0.5,95,146.0
7895,C2,626.0,0.5,95,146.0
7896,C2,626.5,0.5,95,146.0
7897,C#4,626.5,0.5,111,146.0
7898,E3,626.5,0.5,111,146.0
7899,C#4,626.5,0.5,111,146.0
7900,E3,626.5,0.5,111,146.0
7901,C#4,627.0,0.5,111,146.0
7902,E3,627.0,0.5,111,146.0
7903,C#4,627.0,0.5,111,146.0
7904,E3,627.0,0.5,111,146.0
7905,F#2,627.0,1.0,95,146.0
7906,E2,627.0,1.0,95,146.0
7907,E4,627.5,0.5,111,146.0
7908,B3,627.5,0.5,111,146.0
7909,E3,627.5,0.5,111,146.0
7910,E4,627.5,0.5,111,146.0
7911,B3,627.5,0.5,111,146.0
7912,E3,627.5,0.5,111,146.0
7913,E2,628.0,0.375,89,146.0
7914,E2,628.0,0.375,89,146.0
7915,F#2,628.0,0.5,95,146.0
7916,C2,628.0,0.5,95,146.0
7917,E2,628.5,0.375,89,146.0
7918,E2,628.5,0.375,89,146.0
7919,C2,628.5,0.5,95,146.0
7920,B-4,628.958,3.0,79,146.0
7921,E2,629.0,0.375,89,146.0
7922,E2,629.0,0.375,89,146.0
7923,F#2,629.0,1.0,95,146.0
7924,E2,629.0,1.0,95,146.0
7925,E4,629.5,0.5,111,146.0
7926,B3,629.5,0.5,111,146.0
7927,E3,629.5,0.5,111,146.0
7928,E4,629.5,0.5,111,146.0
7929,B3,629.5,0.5,111,146.0
7930,E3,629.5,0.5,111,146.0
7931,G#4,629.958,1.0,111,146.0
7932,E2,630.0,0.375,89,146.0
7933,E2,630.0,0.375,89,146.0
7934,F#2,630.0,0.5,95,146.0
7935,C2,630.0,0.5,95,146.0
7936,E2,630.5,0.375,89,146.0
7937,E2,630.5,0.375,89,146.0
7938,C2,630.5,0.5,95,146.0
7939,E4,631.0,0.5,111,146.0
7940,B3,631.0,0.5,111,146.0
7941,E3,631.0,0.5,111,146.0
7942,E4,631.0,0.5,111,146.0
7943,B3,631.0,0.5,111,146.0
7944,E3,631.0,0.5,111,146.0
7945,F#2,631.0,1.0,95,146.0
7946,E2,631.0,1.0,95,146.0
7947,B-4,631.458,1.5,111,146.0
7948,E4,631.5,0.5,111,146.0
7949,B3,631.5,0.5,111,146.0
7950,E3,631.5,0.5,111,146.0
7951,E4,631.5,0.5,111,146.0
7952,B3,631.5,0.5,111,146.0
7953,E3,631.5,0.5,111,146.0
7954,E4,632.0,0.5,111,146.0
7955,B3,632.0,0.5,111,146.0
7956,E3,632.0,0.5,111,146.0
7957,E4,632.0,0.5,111,146.0
7958,B3,632.0,0.5,111,146.0
7959,E3,632.0,0.5,111,146.0
7960,F#2,632.0,0.5,95,146.0
7961,C2,632.0,0.5,95,146.0
7962,C2,632.5,0.5,95,146.0
7963,E4,632.5,0.5,111,146.0
7964,B-3,632.5,0.5,111,146.0
7965,E3,632.5,0.5,111,146.0
7966,E4,632.5,0.5,111,146.0
7967,B-3,632.5,0.5,111,146.0
7968,E3,632.5,0.5,111,146.0
7969,B4,632.958,1.0,111,146.0
7970,B-4,632.958,2.5,111,146.0
7971,E2,633.0,0.375,89,146.0
7972,E2,633.0,0.375,89,146.0
7973,F#2,633.0,1.0,95,146.0
7974,E2,633.0,1.0,95,146.0
7975,E2,633.5,0.375,89,146.0
7976,E2,633.5,0.375,89,146.0
7977,E4,634.0,0.5,111,146.0
7978,B3,634.0,0.5,111,146.0
7979,E3,634.0,0.5,111,146.0
7980,E4,634.0,0.5,111,146.0
7981,B3,634.0,0.5,111,146.0
7982,E3,634.0,0.5,111,146.0
7983,F#2,634.0,0.5,95,146.0
7984,C2,634.0,0.5,95,146.0
7985,B-4,634.458,2.5,111,146.0
7986,C2,634.5,0.5,95,146.0
7987,E4,634.5,0.5,111,146.0
7988,B3,634.5,0.5,111,146.0
7989,E3,634.5,0.5,111,146.0
7990,E4,634.5,0.5,111,146.0
7991,B3,634.5,0.5,111,146.0
7992,E3,634.5,0.5,111,146.0
7993,E4,635.0,0.5,111,146.0
7994,B3,635.0,0.5,111,146.0
7995,E3,635.0,0.5,111,146.0
7996,E4,635.0,0.5,111,146.0
7997,B3,635.0,0.5,111,146.0
7998,E3,635.0,0.5,111,146.0
7999,F#2,635.0,1.0,95,146.0
8000,E2,635.0,1.0,95,146.0
8001,G#4,635.458,0.5,111,146.0
8002,E4,635.5,0.5,111,146.0
8003,B-3,635.5,0.5,111,146.0
8004,E3,635.5,0.5,111,146.0
8005,E4,635.5,0.5,111,146.0
8006,B-3,635.5,0.5,111,146.0
8007,E3,635.5,0.5,111,146.0
8008,G#4,635.958,1.0,111,146.0
8009,E2,636.0,0.375,89,146.0
8010,E2,636.0,0.375,89,146.0
8011,F#2,636.0,0.5,95,146.0
8012,C2,636.0,0.5,95,146.0
8013,E2,636.5,0.375,89,146.0
8014,E2,636.5,0.375,89,146.0
8015,C2,636.5,0.5,95,146.0
8016,B-4,636.958,3.0,111,146.0
8017,G#4,636.958,1.0,111,146.0
8018,E2,637.0,0.375,89,146.0
8019,E2,637.0,0.375,89,146.0
8020,B-2,637.0,1.0,95,146.0
8021,E2,637.0,1.0,95,146.0
8022,E4,637.5,0.5,111,146.0
8023,B3,637.5,0.5,111,146.0
8024,E3,637.5,0.5,111,146.0
8025,E4,637.5,0.5,111,146.0
8026,B3,637.5,0.5,111,146.0
8027,E3,637.5,0.5,111,146.0
8028,G#4,637.958,1.0,111,146.0
8029,E2,638.0,0.375,89,146.0
8030,E2,638.0,0.375,89,146.0
8031,F#2,638.0,0.5,95,146.0
8032,C2,638.0,0.5,95,146.0
8033,E2,638.5,0.375,89,146.0
8034,E2,638.5,0.375,89,146.0
8035,C2,638.5,0.5,95,146.0
8036,E4,639.0,0.5,111,146.0
8037,B3,639.0,0.5,111,146.0
8038,E3,639.0,0.5,111,146.0
8039,E4,639.0,0.5,111,146.0
8040,B3,639.0,0.5,111,146.0
8041,E3,639.0,0.5,111,146.0
8042,F#2,639.0,1.0,95,146.0
8043,E2,639.0,1.0,95,146.0
8044,B-4,639.458,1.5,111,146.0
8045,E4,639.5,0.5,111,146.0
8046,B3,639.5,0.5,111,146.0
8047,E3,639.5,0.5,111,146.0
8048,E4,639.5,0.5,111,146.0
8049,B3,639.5,0.5,111,146.0
8050,E3,639.5,0.5,111,146.0
8051,E4,640.0,0.5,111,146.0
8052,B3,640.0,0.5,111,146.0
8053,E3,640.0,0.5,111,146.0
8054,E4,640.0,0.5,111,146.0
8055,B3,640.0,0.5,111,146.0
8056,E3,640.0,0.5,111,146.0
8057,F#2,640.0,0.5,95,146.0
8058,C2,640.0,0.5,95,146.0
8059,C2,640.5,0.5,95,146.0
8060,E4,640.5,0.5,111,146.0
8061,B-3,640.5,0.5,111,146.0
8062,E3,640.5,0.5,111,146.0
8063,E4,640.5,0.5,111,146.0
8064,B-3,640.5,0.5,111,146.0
8065,E3,640.5,0.5,111,146.0
8066,C#5,640.958,1.0,111,146.0
8067,B-4,640.958,4.0,111,146.0
8068,E2,641.0,0.375,89,146.0
8069,E2,641.0,0.375,89,146.0
8070,B-2,641.0,1.0,95,146.0
8071,E2,641.0,1.0,95,146.0
8072,E4,641.5,0.5,111,146.0
8073,B3,641.5,0.5,111,146.0
8074,E3,641.5,0.5,111,146.0
8075,E4,641.5,0.5,111,146.0
8076,B3,641.5,0.5,111,146.0
8077,E3,641.5,0.5,111,146.0
8078,E4,642.0,0.5,111,146.0
8079,B3,642.0,0.5,111,146.0
8080,E3,642.0,0.5,111,146.0
8081,E4,642.0,0.5,111,146.0
8082,B3,642.0,0.5,111,146.0
8083,E3,642.0,0.5,111,146.0
8084,F#2,642.0,0.5,95,146.0
8085,C2,642.0,0.5,95,146.0
8086,B4,642.458,1.0,111,146.0
8087,E2,642.5,0.188,89,146.0
8088,E2,642.5,0.188,89,146.0
8089,C2,642.5,0.5,95,146.0
8090,E2,642.75,0.188,89,146.0
8091,E2,642.75,0.188,89,146.0
8092,B-2,643.0,0.375,89,146.0
8093,B-2,643.0,0.375,89,146.0
8094,F#2,643.0,1.0,95,146.0
8095,E2,643.0,1.0,95,146.0
8096,B2,643.5,0.375,89,146.0
8097,B2,643.5,0.375,89,146.0
8098,B-4,643.958,1.0,111,146.0
8099,E3,644.0,0.5,127,146.0
8100,E3,644.0,0.5,127,146.0
8101,F#2,644.0,0.5,95,146.0
8102,C2,644.0,0.5,95,146.0
8103,B2,644.5,0.5,111,146.0
8104,B2,644.5,0.5,111,146.0
8105,C2,644.5,0.5,95,146.0
8106,B-4,644.958,1.0,111,146.0
8107,B-4,644.958,3.0,111,146.0
8108,B-2,645.0,0.5,111,146.0
8109,B-2,645.0,0.5,111,146.0
8110,B-2,645.0,1.0,95,146.0
8111,E2,645.0,1.0,95,146.0
8112,G#2,645.5,0.5,111,146.0
8113,G#2,645.5,0.5,111,146.0
8114,G#4,645.958,1.0,111,146.0
8115,E2,646.0,0.375,89,146.0
8116,E2,646.0,0.375,89,146.0
8117,F#2,646.0,0.5,95,146.0
8118,C2,646.0,0.5,95,146.0
8119,E2,646.5,0.375,89,146.0
8120,E2,646.5,0.375,89,146.0
8121,C2,646.5,0.5,95,146.0
8122,E4,647.0,0.5,111,146.0
8123,B3,647.0,0.5,111,146.0
8124,E3,647.0,0.5,111,146.0
8125,E4,647.0,0.5,111,146.0
8126,B3,647.0,0.5,111,146.0
8127,E3,647.0,0.5,111,146.0
8128,F#2,647.0,1.0,95,146.0
8129,E2,647.0,1.0,95,146.0
8130,B-4,647.458,1.5,111,146.0
8131,E4,647.5,0.5,111,146.0
8132,B3,647.5,0.5,111,146.0
8133,E3,647.5,0.5,111,146.0
8134,E4,647.5,0.5,111,146.0
8135,B3,647.5,0.5,111,146.0
8136,E3,647.5,0.5,111,146.0
8137,E4,648.0,0.5,111,146.0
8138,B3,648.0,0.5,111,146.0
8139,E3,648.0,0.5,111,146.0
8140,E4,648.0,0.5,111,146.0
8141,B3,648.0,0.5,111,146.0
8142,E3,648.0,0.5,111,146.0
8143,F#2,648.0,0.5,95,146.0
8144,C2,648.0,0.5,95,146.0
8145,C2,648.5,0.5,95,146.0
8146,E4,648.5,0.5,111,146.0
8147,B-3,648.5,0.5,111,146.0
8148,E3,648.5,0.5,111,146.0
8149,E4,648.5,0.5,111,146.0
8150,B-3,648.5,0.5,111,146.0
8151,E3,648.5,0.5,111,146.0
8152,B4,648.794,33/200,111,146.0
8153,B-4,648.958,2.25,111,146.0
8154,B4,648.958,1,111,146.0
8155,E2,649.0,0.375,89,146.0
8156,E2,649.0,0.375,89,146.0
8157,B-2,649.0,1.0,95,146.0
8158,E2,649.0,1.0,95,146.0
8159,E2,649.5,0.375,89,146.0
8160,E2,649.5,0.375,89,146.0
8161,E4,650.0,0.5,111,146.0
8162,B3,650.0,0.5,111,146.0
8163,E3,650.0,0.5,111,146.0
8164,E4,650.0,0.5,111,146.0
8165,B3,650.0,0.5,111,146.0
8166,E3,650.0,0.5,111,146.0
8167,F#2,650.0,0.5,95,146.0
8168,C2,650.0,0.5,95,146.0
8169,B-4,650.458,2.5,111,146.0
8170,C2,650.5,0.5,95,146.0
8171,E4,650.5,0.5,111,146.0
8172,B3,650.5,0.5,111,146.0
8173,E3,650.5,0.5,111,146.0
8174,E4,650.5,0.5,111,146.0
8175,B3,650.5,0.5,111,146.0
8176,E3,650.5,0.5,111,146.0
8177,E4,651.0,0.5,111,146.0
8178,B3,651.0,0.5,111,146.0
8179,E3,651.0,0.5,111,146.0
8180,E4,651.0,0.5,111,146.0
8181,B3,651.0,0.5,111,146.0
8182,E3,651.0,0.5,111,146.0
8183,F#2,651.0,1.0,95,146.0
8184,E2,651.0,1.0,95,146.0
8185,G#4,651.208,0.75,111,146.0
8186,E4,651.5,0.5,111,146.0
8187,B-3,651.5,0.5,111,146.0
8188,E3,651.5,0.5,111,146.0
8189,E4,651.5,0.5,111,146.0
8190,B-3,651.5,0.5,111,146.0
8191,E3,651.5,0.5,111,146.0
8192,G#4,651.958,1.0,111,146.0
8193,E2,652.0,0.375,89,146.0
8194,E2,652.0,0.375,89,146.0
8195,F#2,652.0,0.5,95,146.0
8196,C2,652.0,0.5,95,146.0
8197,E2,652.5,0.375,89,146.0
8198,E2,652.5,0.375,89,146.0
8199,C2,652.5,0.5,95,146.0
8200,B-4,652.958,2.75,111,146.0
8201,G#4,652.958,1.5,111,146.0
8202,E2,653.0,0.375,89,146.0
8203,E2,653.0,0.375,89,146.0
8204,F#2,653.0,1.0,95,146.0
8205,E2,653.0,1.0,95,146.0
8206,E4,653.5,0.5,111,146.0
8207,B3,653.5,0.5,111,146.0
8208,E3,653.5,0.5,111,146.0
8209,E4,653.5,0.5,111,146.0
8210,B3,653.5,0.5,111,146.0
8211,E3,653.5,0.5,111,146.0
8212,E2,654.0,0.375,89,146.0
8213,E2,654.0,0.375,89,146.0
8214,F#2,654.0,0.5,95,146.0
8215,C2,654.0,0.5,95,146.0
8216,G#5,654.208,0.75,111,146.0
8217,E2,654.5,0.375,89,146.0
8218,E2,654.5,0.375,89,146.0
8219,C2,654.5,0.5,95,146.0
8220,F#5,654.958,0.125,89,146.0
8221,E4,655.0,0.5,111,146.0
8222,B3,655.0,0.5,111,146.0
8223,E3,655.0,0.5,111,146.0
8224,E4,655.0,0.5,111,146.0
8225,B3,655.0,0.5,111,146.0
8226,E3,655.0,0.5,111,146.0
8227,F#2,655.0,1.0,95,146.0
8228,E2,655.0,1.0,95,146.0
8229,E5,655.083,0.125,89,146.0
8230,E-5,655.208,0.125,111,146.0
8231,C#5,655.333,0.125,89,146.0
8232,B4,655.458,0.125,111,146.0
8233,E4,655.5,0.5,111,146.0
8234,B3,655.5,0.5,111,146.0
8235,E3,655.5,0.5,111,146.0
8236,E4,655.5,0.5,111,146.0
8237,B3,655.5,0.5,111,146.0
8238,E3,655.5,0.5,111,146.0
8239,B-4,655.583,1.375,89,146.0
8240,B4,655.708,0.125,89,146.0
8241,E-5,655.833,0.125,111,146.0
8242,F#5,655.958,0.25,111,146.0
8243,E4,656.0,0.5,111,146.0
8244,B3,656.0,0.5,111,146.0
8245,E3,656.0,0.5,111,146.0
8246,E4,656.0,0.5,111,146.0
8247,B3,656.0,0.5,111,146.0
8248,E3,656.0,0.5,111,146.0
8249,F#2,656.0,0.5,95,146.0
8250,C2,656.0,0.5,95,146.0
8251,E-5,656.208,0.25,111,146.0
8252,B4,656.458,0.5,111,146.0
8253,C2,656.5,0.5,95,146.0
8254,E4,656.5,0.5,111,146.0
8255,B-3,656.5,0.5,111,146.0
8256,E3,656.5,0.5,111,146.0
8257,E4,656.5,0.5,111,146.0
8258,B-3,656.5,0.5,111,146.0
8259,E3,656.5,0.5,111,146.0
8260,B-4,656.958,4.0,111,146.0
8261,B-4,656.958,0.25,89,146.0
8262,E2,657.0,0.375,89,146.0
8263,E2,657.0,0.375,89,146.0
8264,F#2,657.0,1.0,95,146.0
8265,E2,657.0,1.0,95,146.0
8266,G#4,657.208,0.25,89,146.0
8267,F#4,657.458,0.125,111,146.0
8268,E2,657.5,0.375,89,146.0
8269,E2,657.5,0.375,89,146.0
8270,E4,657.583,0.125,89,146.0
8271,E-4,657.708,0.125,89,146.0
8272,E4,657.833,0.125,89,146.0
8273,F#4,657.958,167/1000,111,146.0
8274,C#4,658.0,0.5,111,146.0
8275,E3,658.0,0.5,111,146.0
8276,C#4,658.0,0.5,111,146.0
8277,E3,658.0,0.5,111,146.0
8278,F#2,658.0,0.5,95,146.0
8279,C2,658.0,0.5,95,146.0
8280,E4,658.125,167/1000,89,146.0
8281,E-4,658.292,167/1000,89,146.0
8282,C#4,658.458,167/1000,111,146.0
8283,C2,658.5,0.5,95,146.0
8284,C#4,658.5,0.5,111,146.0
8285,E3,658.5,0.5,111,146.0
8286,C#4,658.5,0.5,111,146.0
8287,E3,658.5,0.5,111,146.0
8288,B3,658.625,167/1000,89,146.0
8289,B-3,658.792,167/1000,89,146.0
8290,B-3,658.904,38/125,111,146.0
8291,C#4,659.0,0.5,111,146.0
8292,E3,659.0,0.5,111,146.0
8293,C#4,659.0,0.5,111,146.0
8294,E3,659.0,0.5,111,146.0
8295,F#2,659.0,1.0,95,146.0
8296,E2,659.0,1.0,95,146.0
8297,B3,659.208,0.125,111,146.0
8298,B-3,659.333,0.125,89,146.0
8299,G#3,659.458,167/1000,111,146.0
8300,E4,659.5,0.5,111,146.0
8301,B3,659.5,0.5,111,146.0
8302,E3,659.5,0.5,111,146.0
8303,E4,659.5,0.5,111,146.0
8304,B3,659.5,0.5,111,146.0
8305,E3,659.5,0.5,111,146.0
8306,F#3,659.625,167/1000,89,146.0
8307,E3,659.792,167/1000,89,146.0
8308,C#3,659.958,83/1000,111,146.0
8309,E2,660.0,0.375,89,146.0
8310,E2,660.0,0.375,89,146.0
8311,F#2,660.0,0.5,95,146.0
8312,C2,660.0,0.5,95,146.0
8313,B2,660.042,83/1000,89,146.0
8314,B-2,660.125,83/1000,89,146.0
8315,B2,660.208,83/1000,89,146.0
8316,B-2,660.292,83/1000,89,146.0
8317,G#2,660.375,83/1000,89,146.0
8318,B-2,660.458,83/1000,89,146.0
8319,E2,660.5,0.375,89,146.0
8320,E2,660.5,0.375,89,146.0
8321,C2,660.5,0.5,95,146.0
8322,G#2,660.542,83/1000,89,146.0
8323,F#2,660.625,83/1000,89,146.0
8324,E2,660.708,0.25,89,146.0
8325,B-4,660.958,3.0,111,146.0
8326,E2,661.0,0.375,89,146.0
8327,E2,661.0,0.375,89,146.0
8328,F#2,661.0,1.0,95,146.0
8329,E2,661.0,1.0,95,146.0
8330,E4,661.5,0.5,111,146.0
8331,B3,661.5,0.5,111,146.0
8332,E3,661.5,0.5,111,146.0
8333,E4,661.5,0.5,111,146.0
8334,B3,661.5,0.5,111,146.0
8335,E3,661.5,0.5,111,146.0
8336,G#4,661.958,1.0,111,146.0
8337,E2,662.0,0.375,89,146.0
8338,E2,662.0,0.375,89,146.0
8339,F#2,662.0,0.5,95,146.0
8340,C2,662.0,0.5,95,146.0
8341,E2,662.5,0.375,89,146.0
8342,E2,662.5,0.375,89,146.0
8343,C2,662.5,0.5,95,146.0
8344,E4,663.0,0.5,111,146.0
8345,B3,663.0,0.5,111,146.0
8346,E3,663.0,0.5,111,146.0
8347,E4,663.0,0.5,111,146.0
8348,B3,663.0,0.5,111,146.0
8349,E3,663.0,0.5,111,146.0
8350,F#2,663.0,1.0,95,146.0
8351,E2,663.0,1.0,95,146.0
8352,B-4,663.458,1.5,111,146.0
8353,E4,663.5,0.5,111,146.0
8354,B3,663.5,0.5,111,146.0
8355,E3,663.5,0.5,111,146.0
8356,E4,663.5,0.5,111,146.0
8357,B3,663.5,0.5,111,146.0
8358,E3,663.5,0.5,111,146.0
8359,E4,664.0,0.5,111,146.0
8360,B3,664.0,0.5,111,146.0
8361,E3,664.0,0.5,111,146.0
8362,E4,664.0,0.5,111,146.0
8363,B3,664.0,0.5,111,146.0
8364,E3,664.0,0.5,111,146.0
8365,F#2,664.0,0.5,95,146.0
8366,C2,664.0,0.5,95,146.0
8367,C2,664.5,0.5,95,146.0
8368,E4,664.5,0.5,111,146.0
8369,B-3,664.5,0.5,111,146.0
8370,E3,664.5,0.5,111,146.0
8371,E4,664.5,0.5,111,146.0
8372,B-3,664.5,0.5,111,146.0
8373,E3,664.5,0.5,111,146.0
8374,B4,664.958,1.0,111,146.0
8375,B-4,664.958,2.5,111,146.0
8376,E2,665.0,0.375,89,146.0
8377,E2,665.0,0.375,89,146.0
8378,B-2,665.0,1.0,95,146.0
8379,E2,665.0,1.0,95,146.0
8380,E2,665.5,0.375,89,146.0
8381,E2,665.5,0.375,89,146.0
8382,E4,666.0,0.5,111,146.0
8383,B3,666.0,0.5,111,146.0
8384,E3,666.0,0.5,111,146.0
8385,E4,666.0,0.5,111,146.0
8386,B3,666.0,0.5,111,146.0
8387,E3,666.0,0.5,111,146.0
8388,F#2,666.0,0.5,95,146.0
8389,C2,666.0,0.5,95,146.0
8390,B-4,666.458,2.5,111,146.0
8391,C2,666.5,0.5,95,146.0
8392,E4,666.5,0.5,111,146.0
8393,B3,666.5,0.5,111,146.0
8394,E3,666.5,0.5,111,146.0
8395,E4,666.5,0.5,111,146.0
8396,B3,666.5,0.5,111,146.0
8397,E3,666.5,0.5,111,146.0
8398,E4,667.0,0.5,111,146.0
8399,B3,667.0,0.5,111,146.0
8400,E3,667.0,0.5,111,146.0
8401,E4,667.0,0.5,111,146.0
8402,B3,667.0,0.5,111,146.0
8403,E3,667.0,0.5,111,146.0
8404,F#2,667.0,1.0,95,146.0
8405,E2,667.0,1.0,95,146.0
8406,G#4,667.458,0.5,111,146.0
8407,E4,667.5,0.5,111,146.0
8408,B-3,667.5,0.5,111,146.0
8409,E3,667.5,0.5,111,146.0
8410,E4,667.5,0.5,111,146.0
8411,B-3,667.5,0.5,111,146.0
8412,E3,667.5,0.5,111,146.0
8413,G#4,667.958,1.0,111,146.0
8414,E2,668.0,0.375,89,146.0
8415,E2,668.0,0.375,89,146.0
8416,F#2,668.0,0.5,95,146.0
8417,C2,668.0,0.5,95,146.0
8418,E2,668.5,0.375,89,146.0
8419,E2,668.5,0.375,89,146.0
8420,C2,668.5,0.5,95,146.0
8421,B-4,668.958,3.0,111,146.0
8422,G#4,668.958,1.0,111,146.0
8423,E2,669.0,0.375,89,146.0
8424,E2,669.0,0.375,89,146.0
8425,B-2,669.0,1.0,95,146.0
8426,E2,669.0,1.0,95,146.0
8427,E4,669.5,0.5,111,146.0
8428,B3,669.5,0.5,111,146.0
8429,E3,669.5,0.5,111,146.0
8430,E4,669.5,0.5,111,146.0
8431,B3,669.5,0.5,111,146.0
8432,E3,669.5,0.5,111,146.0
8433,G#4,669.958,1.0,111,146.0
8434,E2,670.0,0.375,89,146.0
8435,E2,670.0,0.375,89,146.0
8436,F#2,670.0,0.5,95,146.0
8437,C2,670.0,0.5,95,146.0
8438,E2,670.5,0.375,89,146.0
8439,E2,670.5,0.375,89,146.0
8440,C2,670.5,0.5,95,146.0
8441,E4,671.0,0.5,111,146.0
8442,B3,671.0,0.5,111,146.0
8443,E3,671.0,0.5,111,146.0
8444,E4,671.0,0.5,111,146.0
8445,B3,671.0,0.5,111,146.0
8446,E3,671.0,0.5,111,146.0
8447,F#2,671.0,1.0,95,146.0
8448,E2,671.0,1.0,95,146.0
8449,B-4,671.458,1.5,111,146.0
8450,E4,671.5,0.5,111,146.0
8451,B3,671.5,0.5,111,146.0
8452,E3,671.5,0.5,111,146.0
8453,E4,671.5,0.5,111,146.0
8454,B3,671.5,0.5,111,146.0
8455,E3,671.5,0.5,111,146.0
8456,E4,672.0,0.5,111,146.0
8457,B3,672.0,0.5,111,146.0
8458,E3,672.0,0.5,111,146.0
8459,E4,672.0,0.5,111,146.0
8460,B3,672.0,0.5,111,146.0
8461,E3,672.0,0.5,111,146.0
8462,F#2,672.0,0.5,95,146.0
8463,C2,672.0,0.5,95,146.0
8464,C2,672.5,0.5,95,146.0
8465,E4,672.5,0.5,111,146.0
8466,B-3,672.5,0.5,111,146.0
8467,E3,672.5,0.5,111,146.0
8468,E4,672.5,0.5,111,146.0
8469,B-3,672.5,0.5,111,146.0
8470,E3,672.5,0.5,111,146.0
8471,C#5,672.794,33/200,111,146.0
8472,B-4,672.958,4.0,111,146.0
8473,C#5,672.958,1,111,146.0
8474,E2,673.0,0.375,89,146.0
8475,E2,673.0,0.375,89,146.0
8476,B-2,673.0,1.0,95,146.0
8477,E2,673.0,1.0,95,146.0
8478,E4,673.5,0.5,111,146.0
8479,B3,673.5,0.5,111,146.0
8480,E3,673.5,0.5,111,146.0
8481,E4,673.5,0.5,111,146.0
8482,B3,673.5,0.5,111,146.0
8483,E3,673.5,0.5,111,146.0
8484,E4,674.0,0.5,111,146.0
8485,B3,674.0,0.5,111,146.0
8486,E3,674.0,0.5,111,146.0
8487,E4,674.0,0.5,111,146.0
8488,B3,674.0,0.5,111,146.0
8489,E3,674.0,0.5,111,146.0
8490,F#2,674.0,0.5,95,146.0
8491,C2,674.0,0.5,95,146.0
8492,B4,674.458,1.0,111,146.0
8493,E2,674.5,0.188,89,146.0
8494,E2,674.5,0.188,89,146.0
8495,C2,674.5,0.5,95,146.0
8496,E2,674.75,0.188,89,146.0
8497,E2,674.75,0.188,89,146.0
8498,B-2,675.0,0.375,89,146.0
8499,B-2,675.0,0.375,89,146.0
8500,F#2,675.0,1.0,95,146.0
8501,E2,675.0,1.0,95,146.0
8502,B2,675.5,0.375,89,146.0
8503,B2,675.5,0.375,89,146.0
8504,B-4,675.958,1.0,111,146.0
8505,E3,676.0,0.5,127,146.0
8506,E3,676.0,0.5,127,146.0
8507,F#2,676.0,0.5,95,146.0
8508,C2,676.0,0.5,95,146.0
8509,B2,676.5,0.5,111,146.0
8510,B2,676.5,0.5,111,146.0
8511,C2,676.5,0.5,95,146.0
8512,B-4,676.958,1.0,111,146.0
8513,B-4,676.958,3.0,111,146.0
8514,B-2,677.0,0.5,111,146.0
8515,B-2,677.0,0.5,111,146.0
8516,B-2,677.0,1.0,95,146.0
8517,E2,677.0,1.0,95,146.0
8518,G#2,677.5,0.5,111,146.0
8519,G#2,677.5,0.5,111,146.0
8520,G#4,677.958,1.0,111,146.0
8521,F#2,678.0,0.375,89,146.0
8522,F#2,678.0,0.375,89,146.0
8523,F#2,678.0,0.5,95,146.0
8524,C2,678.0,0.5,95,146.0
8525,F#2,678.5,0.375,89,146.0
8526,F#2,678.5,0.375,89,146.0
8527,C2,678.5,0.5,95,146.0
8528,B-3,679.0,0.5,111,146.0
8529,F#3,679.0,0.5,111,146.0
8530,B-3,679.0,0.5,111,146.0
8531,F#3,679.0,0.5,111,146.0
8532,F#2,679.0,1.0,95,146.0
8533,E2,679.0,1.0,95,146.0
8534,B-4,679.458,1.5,111,146.0
8535,B-3,679.5,0.5,111,146.0
8536,F#3,679.5,0.5,111,146.0
8537,B-3,679.5,0.5,111,146.0
8538,F#3,679.5,0.5,111,146.0
8539,B-3,680.0,0.5,111,146.0
8540,F#3,680.0,0.5,111,146.0
8541,B-3,680.0,0.5,111,146.0
8542,F#3,680.0,0.5,111,146.0
8543,F#2,680.0,0.5,95,146.0
8544,C2,680.0,0.5,95,146.0
8545,C2,680.5,0.5,95,146.0
8546,B3,680.5,0.5,111,146.0
8547,F#3,680.5,0.5,111,146.0
8548,B3,680.5,0.5,111,146.0
8549,F#3,680.5,0.5,111,146.0
8550,B4,680.794,33/200,111,146.0
8551,B-4,680.958,2.25,111,146.0
8552,B4,680.958,1,111,146.0
8553,F#2,681.0,0.375,89,146.0
8554,F#2,681.0,0.375,89,146.0
8555,F#2,681.0,1.0,95,146.0
8556,E2,681.0,1.0,95,146.0
8557,F#2,681.5,0.375,89,146.0
8558,F#2,681.5,0.375,89,146.0
8559,B-3,682.0,0.5,111,146.0
8560,F#3,682.0,0.5,111,146.0
8561,B-3,682.0,0.5,111,146.0
8562,F#3,682.0,0.5,111,146.0
8563,F#2,682.0,0.5,95,146.0
8564,C2,682.0,0.5,95,146.0
8565,B-4,682.458,2.5,111,146.0
8566,C2,682.5,0.5,95,146.0
8567,B-3,682.5,0.5,111,146.0
8568,F#3,682.5,0.5,111,146.0
8569,B-3,682.5,0.5,111,146.0
8570,F#3,682.5,0.5,111,146.0
8571,B-3,683.0,0.5,111,146.0
8572,F#3,683.0,0.5,111,146.0
8573,B-3,683.0,0.5,111,146.0
8574,F#3,683.0,0.5,111,146.0
8575,F#2,683.0,1.0,95,146.0
8576,E2,683.0,1.0,95,146.0
8577,G#4,683.208,0.75,111,146.0
8578,B3,683.5,0.5,111,146.0
8579,F#3,683.5,0.5,111,146.0
8580,B3,683.5,0.5,111,146.0
8581,F#3,683.5,0.5,111,146.0
8582,G#4,683.958,1.0,111,146.0
8583,F#2,684.0,0.375,89,146.0
8584,F#2,684.0,0.375,89,146.0
8585,F#2,684.0,0.5,95,146.0
8586,C2,684.0,0.5,95,146.0
8587,F#2,684.5,0.375,89,146.0
8588,F#2,684.5,0.375,89,146.0
8589,C2,684.5,0.5,95,146.0
8590,B-4,684.958,4.0,111,146.0
8591,G#4,684.958,3.5,111,146.0
8592,F#2,685.0,0.375,89,146.0
8593,F#2,685.0,0.375,89,146.0
8594,F#2,685.0,1.0,95,146.0
8595,E2,685.0,1.0,95,146.0
8596,F#3,685.5,0.5,111,146.0
8597,C#3,685.5,0.5,111,146.0
8598,F#2,685.5,0.5,111,146.0
8599,F#3,685.5,0.5,111,146.0
8600,C#3,685.5,0.5,111,146.0
8601,F#2,685.5,0.5,111,146.0
8602,F#2,686.0,0.5,111,146.0
8603,F#2,686.0,0.5,111,146.0
8604,F#2,686.0,0.5,95,146.0
8605,C2,686.0,0.5,95,146.0
8606,F#2,686.5,0.5,111,146.0
8607,F#2,686.5,0.5,111,146.0
8608,C2,686.5,0.5,95,146.0
8609,B-3,687.0,0.5,111,146.0
8610,F#3,687.0,0.5,111,146.0
8611,B-3,687.0,0.5,111,146.0
8612,F#3,687.0,0.5,111,146.0
8613,F#2,687.0,1.0,95,146.0
8614,E2,687.0,1.0,95,146.0
8615,B-3,687.5,0.5,111,146.0
8616,F#3,687.5,0.5,111,146.0
8617,B-3,687.5,0.5,111,146.0
8618,F#3,687.5,0.5,111,146.0
8619,B-3,688.0,0.5,111,146.0
8620,F#3,688.0,0.5,111,146.0
8621,B-3,688.0,0.5,111,146.0
8622,F#3,688.0,0.5,111,146.0
8623,F#2,688.0,0.5,95,146.0
8624,C2,688.0,0.5,95,146.0
8625,G#5,688.458,0.5,111,146.0
8626,C2,688.5,0.5,95,146.0
8627,B3,688.5,0.5,111,146.0
8628,F#3,688.5,0.5,111,146.0
8629,B3,688.5,0.5,111,146.0
8630,F#3,688.5,0.5,111,146.0
8631,B-4,688.958,4.0,111,146.0
8632,G#5,688.958,4.0,111,146.0
8633,F#2,689.0,0.375,89,146.0
8634,F#2,689.0,0.375,89,146.0
8635,F#2,689.0,1.0,95,146.0
8636,E2,689.0,1.0,95,146.0
8637,F#2,689.5,0.375,89,146.0
8638,F#2,689.5,0.375,89,146.0
8639,B3,690.0,0.5,111,146.0
8640,F#3,690.0,0.5,111,146.0
8641,B3,690.0,0.5,111,146.0
8642,F#3,690.0,0.5,111,146.0
8643,F#2,690.0,0.5,95,146.0
8644,C2,690.0,0.5,95,146.0
8645,C2,690.5,0.5,95,146.0
8646,B3,690.5,0.5,111,146.0
8647,F#3,690.5,0.5,111,146.0
8648,B3,690.5,0.5,111,146.0
8649,F#3,690.5,0.5,111,146.0
8650,B-3,691.0,0.5,111,146.0
8651,F#3,691.0,0.5,111,146.0
8652,B-3,691.0,0.5,111,146.0
8653,F#3,691.0,0.5,111,146.0
8654,F#2,691.0,1.0,95,146.0
8655,E2,691.0,1.0,95,146.0
8656,C#4,691.5,0.5,111,146.0
8657,B-3,691.5,0.5,111,146.0
8658,F#3,691.5,0.5,111,146.0
8659,C#4,691.5,0.5,111,146.0
8660,B-3,691.5,0.5,111,146.0
8661,F#3,691.5,0.5,111,146.0
8662,F#2,692.0,0.375,89,146.0
8663,F#2,692.0,0.375,89,146.0
8664,F#2,692.0,0.5,95,146.0
8665,C2,692.0,0.5,95,146.0
8666,F#2,692.5,0.375,89,146.0
8667,F#2,692.5,0.375,89,146.0
8668,C2,692.5,0.5,95,146.0
8669,B-4,692.958,2.0,111,146.0
8670,F#2,693.0,0.375,89,146.0
8671,F#2,693.0,0.375,89,146.0
8672,B-2,693.0,1.0,95,146.0
8673,E2,693.0,1.0,95,146.0
8674,F#3,693.5,0.5,111,146.0
8675,C#3,693.5,0.5,111,146.0
8676,F#2,693.5,0.5,111,146.0
8677,F#3,693.5,0.5,111,146.0
8678,C#3,693.5,0.5,111,146.0
8679,F#2,693.5,0.5,111,146.0
8680,B-4,693.958,3.0,111,146.0
8681,E2,694.0,0.375,89,146.0
8682,E2,694.0,0.375,89,146.0
8683,F#2,694.0,0.5,95,146.0
8684,C2,694.0,0.5,95,146.0
8685,E2,694.5,0.375,89,146.0
8686,E2,694.5,0.375,89,146.0
8687,C2,694.5,0.5,95,146.0
8688,E4,695.0,0.5,111,146.0
8689,B3,695.0,0.5,111,146.0
8690,E3,695.0,0.5,111,146.0
8691,E4,695.0,0.5,111,146.0
8692,B3,695.0,0.5,111,146.0
8693,E3,695.0,0.5,111,146.0
8694,F#2,695.0,1.0,95,146.0
8695,E2,695.0,1.0,95,146.0
8696,B4,695.458,0.5,111,146.0
8697,E4,695.5,0.5,111,146.0
8698,B3,695.5,0.5,111,146.0
8699,E3,695.5,0.5,111,146.0
8700,E4,695.5,0.5,111,146.0
8701,B3,695.5,0.5,111,146.0
8702,E3,695.5,0.5,111,146.0
8703,E4,696.0,0.5,111,146.0
8704,B3,696.0,0.5,111,146.0
8705,E3,696.0,0.5,111,146.0
8706,E4,696.0,0.5,111,146.0
8707,B3,696.0,0.5,111,146.0
8708,E3,696.0,0.5,111,146.0
8709,F#2,696.0,0.5,95,146.0
8710,C2,696.0,0.5,95,146.0
8711,F#4,696.458,0.375,89,146.0
8712,C2,696.5,0.5,95,146.0
8713,E4,696.5,0.5,111,146.0
8714,B-3,696.5,0.5,111,146.0
8715,E3,696.5,0.5,111,146.0
8716,E4,696.5,0.5,111,146.0
8717,B-3,696.5,0.5,111,146.0
8718,E3,696.5,0.5,111,146.0
8719,C#5,696.958,1.0,111,146.0
8720,B-4,696.958,4.0,111,146.0
8721,E2,697.0,0.375,89,146.0
8722,E2,697.0,0.375,89,146.0
8723,B-2,697.0,1.0,95,146.0
8724,E2,697.0,1.0,95,146.0
8725,E2,697.5,0.375,89,146.0
8726,E2,697.5,0.375,89,146.0
8727,E4,698.0,0.5,111,146.0
8728,B3,698.0,0.5,111,146.0
8729,E3,698.0,0.5,111,146.0
8730,E4,698.0,0.5,111,146.0
8731,B3,698.0,0.5,111,146.0
8732,E3,698.0,0.5,111,146.0
8733,F#2,698.0,0.5,95,146.0
8734,C2,698.0,0.5,95,146.0
8735,B4,698.458,1.0,111,146.0
8736,C2,698.5,0.5,95,146.0
8737,E4,698.5,0.5,111,146.0
8738,B3,698.5,0.5,111,146.0
8739,E3,698.5,0.5,111,146.0
8740,E4,698.5,0.5,111,146.0
8741,B3,698.5,0.5,111,146.0
8742,E3,698.5,0.5,111,146.0
8743,E4,699.0,0.5,111,146.0
8744,B3,699.0,0.5,111,146.0
8745,E3,699.0,0.5,111,146.0
8746,E4,699.0,0.5,111,146.0
8747,B3,699.0,0.5,111,146.0
8748,E3,699.0,0.5,111,146.0
8749,F#2,699.0,1.0,95,146.0
8750,E2,699.0,1.0,95,146.0
8751,E4,699.5,0.5,111,146.0
8752,B-3,699.5,0.5,111,146.0
8753,E3,699.5,0.5,111,146.0
8754,E4,699.5,0.5,111,146.0
8755,B-3,699.5,0.5,111,146.0
8756,E3,699.5,0.5,111,146.0
8757,B-4,699.958,1.0,111,146.0
8758,E2,700.0,0.375,89,146.0
8759,E2,700.0,0.375,89,146.0
8760,F#2,700.0,0.5,95,146.0
8761,C2,700.0,0.5,95,146.0
8762,E2,700.5,0.375,89,146.0
8763,E2,700.5,0.375,89,146.0
8764,C2,700.5,0.5,95,146.0
8765,B-4,700.958,1.0,111,146.0
8766,B-4,700.958,2.5,111,146.0
8767,E2,701.0,0.375,89,146.0
8768,E2,701.0,0.375,89,146.0
8769,B-2,701.0,1.0,95,146.0
8770,E2,701.0,1.0,95,146.0
8771,E4,701.5,0.5,111,146.0
8772,B3,701.5,0.5,111,146.0
8773,E3,701.5,0.5,111,146.0
8774,E4,701.5,0.5,111,146.0
8775,B3,701.5,0.5,111,146.0
8776,E3,701.5,0.5,111,146.0
8777,E2,702.0,0.375,89,146.0
8778,E2,702.0,0.375,89,146.0
8779,F#2,702.0,0.5,95,146.0
8780,C2,702.0,0.5,95,146.0
8781,B-4,702.458,2.5,111,146.0
8782,E2,702.5,0.375,89,146.0
8783,E2,702.5,0.375,89,146.0
8784,C2,702.5,0.5,95,146.0
8785,E4,703.0,0.5,111,146.0
8786,B3,703.0,0.5,111,146.0
8787,E3,703.0,0.5,111,146.0
8788,E4,703.0,0.5,111,146.0
8789,B3,703.0,0.5,111,146.0
8790,E3,703.0,0.5,111,146.0
8791,F#2,703.0,1.0,95,146.0
8792,E2,703.0,1.0,95,146.0
8793,E4,703.5,0.5,111,146.0
8794,B3,703.5,0.5,111,146.0
8795,E3,703.5,0.5,111,146.0
8796,E4,703.5,0.5,111,146.0
8797,B3,703.5,0.5,111,146.0
8798,E3,703.5,0.5,111,146.0
8799,B4,703.958,0.5,111,146.0
8800,E4,704.0,0.5,111,146.0
8801,B3,704.0,0.5,111,146.0
8802,E3,704.0,0.5,111,146.0
8803,E4,704.0,0.5,111,146.0
8804,B3,704.0,0.5,111,146.0
8805,E3,704.0,0.5,111,146.0
8806,F#2,704.0,0.5,95,146.0
8807,C2,704.0,0.5,95,146.0
8808,C2,704.5,0.5,95,146.0
8809,E4,704.5,0.5,111,146.0
8810,B-3,704.5,0.5,111,146.0
8811,E3,704.5,0.5,111,146.0
8812,E4,704.5,0.5,111,146.0
8813,B-3,704.5,0.5,111,146.0
8814,E3,704.5,0.5,111,146.0
8815,E-5,704.958,0.5,111,146.0
8816,B-4,704.958,4.0,111,146.0
8817,E2,705.0,0.375,89,146.0
8818,E2,705.0,0.375,89,146.0
8819,B-2,705.0,1.0,95,146.0
8820,E2,705.0,1.0,95,146.0
8821,E5,705.458,0.5,111,146.0
8822,E4,705.5,0.5,111,146.0
8823,B3,705.5,0.5,111,146.0
8824,E3,705.5,0.5,111,146.0
8825,E4,705.5,0.5,111,146.0
8826,B3,705.5,0.5,111,146.0
8827,E3,705.5,0.5,111,146.0
8828,E-5,705.958,0.5,111,146.0
8829,E4,706.0,0.5,111,146.0
8830,B3,706.0,0.5,111,146.0
8831,E3,706.0,0.5,111,146.0
8832,E4,706.0,0.5,111,146.0
8833,B3,706.0,0.5,111,146.0
8834,E3,706.0,0.5,111,146.0
8835,F#2,706.0,0.5,95,146.0
8836,C2,706.0,0.5,95,146.0
8837,C#5,706.458,1.0,111,146.0
8838,E2,706.5,0.188,89,146.0
8839,E2,706.5,0.188,89,146.0
8840,C2,706.5,0.5,95,146.0
8841,E2,706.75,0.188,89,146.0
8842,E2,706.75,0.188,89,146.0
8843,B-2,707.0,0.375,89,146.0
8844,B-2,707.0,0.375,89,146.0
8845,F#2,707.0,1.0,95,146.0
8846,E2,707.0,1.0,95,146.0
8847,B2,707.5,0.375,89,146.0
8848,B2,707.5,0.375,89,146.0
8849,B-4,707.958,1.0,111,146.0
8850,E3,708.0,0.5,127,146.0
8851,E3,708.0,0.5,127,146.0
8852,F#2,708.0,0.5,95,146.0
8853,C2,708.0,0.5,95,146.0
8854,B2,708.5,0.5,111,146.0
8855,B2,708.5,0.5,111,146.0
8856,C2,708.5,0.5,95,146.0
8857,B-4,708.958,1.0,111,146.0
8858,B-4,708.958,3.0,111,146.0
8859,B-2,709.0,0.5,111,146.0
8860,B-2,709.0,0.5,111,146.0
8861,F#2,709.0,1.0,95,146.0
8862,E2,709.0,1.0,95,146.0
8863,G#2,709.5,0.5,111,146.0
8864,G#2,709.5,0.5,111,146.0
8865,G#4,709.958,1.0,111,146.0
8866,E2,710.0,0.375,89,146.0
8867,E2,710.0,0.375,89,146.0
8868,F#2,710.0,0.5,95,146.0
8869,C2,710.0,0.5,95,146.0
8870,E2,710.5,0.375,89,146.0
8871,E2,710.5,0.375,89,146.0
8872,C2,710.5,0.5,95,146.0
8873,E4,711.0,0.5,111,146.0
8874,B3,711.0,0.5,111,146.0
8875,E3,711.0,0.5,111,146.0
8876,E4,711.0,0.5,111,146.0
8877,B3,711.0,0.5,111,146.0
8878,E3,711.0,0.5,111,146.0
8879,F#2,711.0,1.0,95,146.0
8880,E2,711.0,1.0,95,146.0
8881,B-4,711.458,1.5,111,146.0
8882,E4,711.5,0.5,111,146.0
8883,B3,711.5,0.5,111,146.0
8884,E3,711.5,0.5,111,146.0
8885,E4,711.5,0.5,111,146.0
8886,B3,711.5,0.5,111,146.0
8887,E3,711.5,0.5,111,146.0
8888,E4,712.0,0.5,111,146.0
8889,B3,712.0,0.5,111,146.0
8890,E3,712.0,0.5,111,146.0
8891,E4,712.0,0.5,111,146.0
8892,B3,712.0,0.5,111,146.0
8893,E3,712.0,0.5,111,146.0
8894,F#2,712.0,0.5,95,146.0
8895,C2,712.0,0.5,95,146.0
8896,C2,712.5,0.5,95,146.0
8897,E4,712.5,0.5,111,146.0
8898,B-3,712.5,0.5,111,146.0
8899,E3,712.5,0.5,111,146.0
8900,E4,712.5,0.5,111,146.0
8901,B-3,712.5,0.5,111,146.0
8902,E3,712.5,0.5,111,146.0
8903,F#5,712.958,1.0,111,146.0
8904,B-4,712.958,4.0,111,146.0
8905,E2,713.0,0.375,89,146.0
8906,E2,713.0,0.375,89,146.0
8907,F#2,713.0,1.0,95,146.0
8908,E2,713.0,1.0,95,146.0
8909,E2,713.5,0.375,89,146.0
8910,E2,713.5,0.375,89,146.0
8911,E4,714.0,0.5,111,146.0
8912,B3,714.0,0.5,111,146.0
8913,E3,714.0,0.5,111,146.0
8914,E4,714.0,0.5,111,146.0
8915,B3,714.0,0.5,111,146.0
8916,E3,714.0,0.5,111,146.0
8917,F#2,714.0,0.5,95,146.0
8918,C2,714.0,0.5,95,146.0
8919,B4,714.458,1.0,111,146.0
8920,C2,714.5,0.5,95,146.0
8921,E4,714.5,0.5,111,146.0
8922,B3,714.5,0.5,111,146.0
8923,E3,714.5,0.5,111,146.0
8924,E4,714.5,0.5,111,146.0
8925,B3,714.5,0.5,111,146.0
8926,E3,714.5,0.5,111,146.0
8927,E4,715.0,0.5,111,146.0
8928,B3,715.0,0.5,111,146.0
8929,E3,715.0,0.5,111,146.0
8930,E4,715.0,0.5,111,146.0
8931,B3,715.0,0.5,111,146.0
8932,E3,715.0,0.5,111,146.0
8933,F#2,715.0,1.0,95,146.0
8934,E2,715.0,1.0,95,146.0
8935,E4,715.5,0.5,111,146.0
8936,B-3,715.5,0.5,111,146.0
8937,E3,715.5,0.5,111,146.0
8938,E4,715.5,0.5,111,146.0
8939,B-3,715.5,0.5,111,146.0
8940,E3,715.5,0.5,111,146.0
8941,B-4,715.958,1.0,111,146.0
8942,E2,716.0,0.375,89,146.0
8943,E2,716.0,0.375,89,146.0
8944,F#2,716.0,0.5,95,146.0
8945,C2,716.0,0.5,95,146.0
8946,E2,716.5,0.375,89,146.0
8947,E2,716.5,0.375,89,146.0
8948,C2,716.5,0.5,95,146.0
8949,B-4,716.958,4.0,111,146.0
8950,G#5,716.958,4.0,111,146.0
8951,F#5,716.958,4.0,111,146.0
8952,B2,717.0,0.25,111,146.0
8953,B2,717.0,0.25,111,146.0
8954,F#2,717.0,1.0,95,146.0
8955,E2,717.0,1.0,95,146.0
8956,E3,717.25,0.25,111,146.0
8957,E3,717.25,0.25,111,146.0
8958,G#4,717.5,0.5,111,146.0
8959,G#4,717.5,0.5,111,146.0
8960,E3,718.0,0.5,111,146.0
8961,E3,718.0,0.5,111,146.0
8962,F#2,718.0,0.5,95,146.0
8963,C2,718.0,0.5,95,146.0
8964,E2,718.5,0.375,89,146.0
8965,E2,718.5,0.375,89,146.0
8966,C2,718.5,0.5,95,146.0
8967,E4,719.0,0.5,111,146.0
8968,B3,719.0,0.5,111,146.0
8969,E3,719.0,0.5,111,146.0
8970,E4,719.0,0.5,111,146.0
8971,B3,719.0,0.5,111,146.0
8972,E3,719.0,0.5,111,146.0
8973,F#2,719.0,1.0,95,146.0
8974,E2,719.0,1.0,95,146.0
8975,E4,719.5,0.5,111,146.0
8976,B3,719.5,0.5,111,146.0
8977,E3,719.5,0.5,111,146.0
8978,E4,719.5,0.5,111,146.0
8979,B3,719.5,0.5,111,146.0
8980,E3,719.5,0.5,111,146.0
8981,E4,720.0,0.5,111,146.0
8982,B3,720.0,0.5,111,146.0
8983,E3,720.0,0.5,111,146.0
8984,E4,720.0,0.5,111,146.0
8985,B3,720.0,0.5,111,146.0
8986,E3,720.0,0.5,111,146.0
8987,F#2,720.0,0.5,95,146.0
8988,C2,720.0,0.5,95,146.0
8989,C2,720.5,0.5,95,146.0
8990,E4,720.5,0.5,111,146.0
8991,B-3,720.5,0.5,111,146.0
8992,E3,720.5,0.5,111,146.0
8993,E4,720.5,0.5,111,146.0
8994,B-3,720.5,0.5,111,146.0
8995,E3,720.5,0.5,111,146.0
8996,B-4,720.958,4.0,111,146.0
8997,B-5,720.958,4.0,111,146.0
8998,G#5,720.958,4.0,111,146.0
8999,E2,721.0,0.375,89,146.0
9000,E2,721.0,0.375,89,146.0
9001,B-2,721.0,1.0,95,146.0
9002,E2,721.0,1.0,95,146.0
9003,E4,721.5,0.5,111,146.0
9004,B3,721.5,0.5,111,146.0
9005,E3,721.5,0.5,111,146.0
9006,E4,721.5,0.5,111,146.0
9007,B3,721.5,0.5,111,146.0
9008,E3,721.5,0.5,111,146.0
9009,E4,722.0,0.5,111,146.0
9010,B3,722.0,0.5,111,146.0
9011,E3,722.0,0.5,111,146.0
9012,E4,722.0,0.5,111,146.0
9013,B3,722.0,0.5,111,146.0
9014,E3,722.0,0.5,111,146.0
9015,F#2,722.0,0.5,95,146.0
9016,C2,722.0,0.5,95,146.0
9017,E2,722.5,0.188,89,146.0
9018,E2,722.5,0.188,89,146.0
9019,C2,722.5,0.5,95,146.0
9020,E2,722.75,0.188,89,146.0
9021,E2,722.75,0.188,89,146.0
9022,B-2,723.0,0.375,89,146.0
9023,B-2,723.0,0.375,89,146.0
9024,F#2,723.0,1.0,95,146.0
9025,E2,723.0,1.0,95,146.0
9026,B2,723.5,0.375,89,146.0
9027,B2,723.5,0.375,89,146.0
9028,E3,724.0,0.5,127,146.0
9029,E3,724.0,0.5,127,146.0
9030,F#2,724.0,0.5,95,146.0
9031,C2,724.0,0.5,95,146.0
9032,B2,724.5,0.5,111,146.0
9033,B2,724.5,0.5,111,146.0
9034,C2,724.5,0.5,95,146.0
9035,B-5,724.958,3.0,111,146.0
9036,B-4,724.958,4.0,111,146.0
9037,B-2,725.0,0.5,111,146.0
9038,B-2,725.0,0.5,111,146.0
9039,B-2,725.0,1.0,95,146.0
9040,E2,725.0,1.0,95,146.0
9041,G#2,725.5,0.5,111,146.0
9042,G#2,725.5,0.5,111,146.0
9043,E2,726.0,0.375,89,146.0
9044,E2,726.0,0.375,89,146.0
9045,F#2,726.0,0.5,95,146.0
9046,C2,726.0,0.5,95,146.0
9047,E2,726.5,0.375,89,146.0
9048,E2,726.5,0.375,89,146.0
9049,C2,726.5,0.5,95,146.0
9050,E4,727.0,0.5,111,146.0
9051,B3,727.0,0.5,111,146.0
9052,E3,727.0,0.5,111,146.0
9053,E4,727.0,0.5,111,146.0
9054,B3,727.0,0.5,111,146.0
9055,E3,727.0,0.5,111,146.0
9056,F#2,727.0,1.0,95,146.0
9057,E2,727.0,1.0,95,146.0
9058,E4,727.5,0.5,111,146.0
9059,B3,727.5,0.5,111,146.0
9060,E3,727.5,0.5,111,146.0
9061,E4,727.5,0.5,111,146.0
9062,B3,727.5,0.5,111,146.0
9063,E3,727.5,0.5,111,146.0
9064,B-5,727.958,0.5,111,146.0
9065,E4,728.0,0.5,111,146.0
9066,B3,728.0,0.5,111,146.0
9067,E3,728.0,0.5,111,146.0
9068,E4,728.0,0.5,111,146.0
9069,B3,728.0,0.5,111,146.0
9070,E3,728.0,0.5,111,146.0
9071,F#2,728.0,0.5,95,146.0
9072,C2,728.0,0.5,95,146.0
9073,B-5,728.458,0.5,111,146.0
9074,C2,728.5,0.5,95,146.0
9075,E4,728.5,0.5,111,146.0
9076,B-3,728.5,0.5,111,146.0
9077,E3,728.5,0.5,111,146.0
9078,E4,728.5,0.5,111,146.0
9079,B-3,728.5,0.5,111,146.0
9080,E3,728.5,0.5,111,146.0
9081,B-4,728.958,4.0,111,146.0
9082,B-5,728.958,2.5,111,146.0
9083,E2,729.0,0.375,89,146.0
9084,E2,729.0,0.375,89,146.0
9085,B-2,729.0,1.0,95,146.0
9086,E2,729.0,1.0,95,146.0
9087,E2,729.5,0.375,89,146.0
9088,E2,729.5,0.375,89,146.0
9089,E4,730.0,0.5,111,146.0
9090,B3,730.0,0.5,111,146.0
9091,E3,730.0,0.5,111,146.0
9092,E4,730.0,0.5,111,146.0
9093,B3,730.0,0.5,111,146.0
9094,E3,730.0,0.5,111,146.0
9095,F#2,730.0,0.5,95,146.0
9096,C2,730.0,0.5,95,146.0
9097,C2,730.5,0.5,95,146.0
9098,E4,730.5,0.5,111,146.0
9099,B3,730.5,0.5,111,146.0
9100,E3,730.5,0.5,111,146.0
9101,E4,730.5,0.5,111,146.0
9102,B3,730.5,0.5,111,146.0
9103,E3,730.5,0.5,111,146.0
9104,E4,731.0,0.5,111,146.0
9105,B3,731.0,0.5,111,146.0
9106,E3,731.0,0.5,111,146.0
9107,E4,731.0,0.5,111,146.0
9108,B3,731.0,0.5,111,146.0
9109,E3,731.0,0.5,111,146.0
9110,F#2,731.0,1.0,95,146.0
9111,E2,731.0,1.0,95,146.0
9112,B-5,731.458,1.5,111,146.0
9113,E4,731.5,0.5,111,146.0
9114,B-3,731.5,0.5,111,146.0
9115,E3,731.5,0.5,111,146.0
9116,E4,731.5,0.5,111,146.0
9117,B-3,731.5,0.5,111,146.0
9118,E3,731.5,0.5,111,146.0
9119,E2,732.0,0.375,89,146.0
9120,E2,732.0,0.375,89,146.0
9121,F#2,732.0,0.5,95,146.0
9122,C2,732.0,0.5,95,146.0
9123,E2,732.5,0.375,89,146.0
9124,E2,732.5,0.375,89,146.0
9125,C2,732.5,0.5,95,146.0
9126,B-4,732.958,4.0,111,146.0
9127,B-5,732.958,1.0,111,146.0
9128,B2,733.0,0.25,111,146.0
9129,B2,733.0,0.25,111,146.0
9130,B-2,733.0,1.0,95,146.0
9131,E2,733.0,1.0,95,146.0
9132,E3,733.25,0.25,111,146.0
9133,E3,733.25,0.25,111,146.0
9134,G#4,733.5,0.5,111,146.0
9135,G#4,733.5,0.5,111,146.0
9136,B-5,733.958,0.5,111,146.0
9137,E3,734.0,0.5,111,146.0
9138,E3,734.0,0.5,111,146.0
9139,F#2,734.0,0.5,95,146.0
9140,C2,734.0,0.5,95,146.0
9141,B-5,734.458,2.5,111,146.0
9142,E2,734.5,0.375,89,146.0
9143,E2,734.5,0.375,89,146.0
9144,C2,734.5,0.5,95,146.0
9145,E4,735.0,0.5,111,146.0
9146,B3,735.0,0.5,111,146.0
9147,E3,735.0,0.5,111,146.0
9148,E4,735.0,0.5,111,146.0
9149,B3,735.0,0.5,111,146.0
9150,E3,735.0,0.5,111,146.0
9151,F#2,735.0,1.0,95,146.0
9152,E2,735.0,1.0,95,146.0
9153,E4,735.5,0.5,111,146.0
9154,B3,735.5,0.5,111,146.0
9155,E3,735.5,0.5,111,146.0
9156,E4,735.5,0.5,111,146.0
9157,B3,735.5,0.5,111,146.0
9158,E3,735.5,0.5,111,146.0
9159,E4,736.0,0.5,111,146.0
9160,B3,736.0,0.5,111,146.0
9161,E3,736.0,0.5,111,146.0
9162,E4,736.0,0.5,111,146.0
9163,B3,736.0,0.5,111,146.0
9164,E3,736.0,0.5,111,146.0
9165,F#2,736.0,0.5,95,146.0
9166,C2,736.0,0.5,95,146.0
9167,C2,736.5,0.5,95,146.0
9168,E4,736.5,0.5,111,146.0
9169,B-3,736.5,0.5,111,146.0
9170,E3,736.5,0.5,111,146.0
9171,E4,736.5,0.5,111,146.0
9172,B-3,736.5,0.5,111,146.0
9173,E3,736.5,0.5,111,146.0
9174,B-4,736.958,4.0,111,146.0
9175,B-5,736.958,1.0,111,146.0
9176,E2,737.0,0.375,89,146.0
9177,E2,737.0,0.375,89,146.0
9178,F#2,737.0,1.0,95,146.0
9179,E2,737.0,1.0,95,146.0
9180,E4,737.5,0.5,111,146.0
9181,B3,737.5,0.5,111,146.0
9182,E3,737.5,0.5,111,146.0
9183,E4,737.5,0.5,111,146.0
9184,B3,737.5,0.5,111,146.0
9185,E3,737.5,0.5,111,146.0
9186,E4,738.0,0.5,111,146.0
9187,B3,738.0,0.5,111,146.0
9188,E3,738.0,0.5,111,146.0
9189,E4,738.0,0.5,111,146.0
9190,B3,738.0,0.5,111,146.0
9191,E3,738.0,0.5,111,146.0
9192,F#2,738.0,0.5,95,146.0
9193,C2,738.0,0.5,95,146.0
9194,G#5,738.208,1.75,111,146.0
9195,E2,738.5,0.188,89,146.0
9196,E2,738.5,0.188,89,146.0
9197,C2,738.5,0.5,95,146.0
9198,E2,738.75,0.188,89,146.0
9199,E2,738.75,0.188,89,146.0
9200,B-2,739.0,0.375,89,146.0
9201,B-2,739.0,0.375,89,146.0
9202,F#2,739.0,1.0,95,146.0
9203,E2,739.0,1.0,95,146.0
9204,B2,739.5,0.375,89,146.0
9205,B2,739.5,0.375,89,146.0
9206,G#5,739.958,0.5,111,146.0
9207,E3,740.0,0.5,127,146.0
9208,E3,740.0,0.5,127,146.0
9209,F#2,740.0,0.5,95,146.0
9210,C2,740.0,0.5,95,146.0
9211,G#5,740.458,0.5,111,146.0
9212,B2,740.5,0.5,111,146.0
9213,B2,740.5,0.5,111,146.0
9214,C2,740.5,0.5,95,146.0
9215,B-4,740.958,4.0,111,146.0
9216,G#5,740.958,2.0,111,146.0
9217,B-2,741.0,0.5,111,146.0
9218,B-2,741.0,0.5,111,146.0
9219,F#2,741.0,1.0,95,146.0
9220,E2,741.0,1.0,95,146.0
9221,G#2,741.5,0.5,111,146.0
9222,G#2,741.5,0.5,111,146.0
9223,E2,742.0,0.375,89,146.0
9224,E2,742.0,0.375,89,146.0
9225,F#2,742.0,0.5,95,146.0
9226,C2,742.0,0.5,95,146.0
9227,E2,742.5,0.375,89,146.0
9228,E2,742.5,0.375,89,146.0
9229,C2,742.5,0.5,95,146.0
9230,G#5,742.794,83/125,111,146.0
9231,E4,743.0,0.5,111,146.0
9232,B3,743.0,0.5,111,146.0
9233,E3,743.0,0.5,111,146.0
9234,E4,743.0,0.5,111,146.0
9235,B3,743.0,0.5,111,146.0
9236,E3,743.0,0.5,111,146.0
9237,F#2,743.0,1.0,95,146.0
9238,E2,743.0,1.0,95,146.0
9239,F#5,743.458,0.25,111,146.0
9240,E4,743.5,0.5,111,146.0
9241,B3,743.5,0.5,111,146.0
9242,E3,743.5,0.5,111,146.0
9243,E4,743.5,0.5,111,146.0
9244,B3,743.5,0.5,111,146.0
9245,E3,743.5,0.5,111,146.0
9246,G#5,743.708,0.125,89,146.0
9247,F#5,743.833,0.375,89,146.0
9248,E4,744.0,0.5,111,146.0
9249,B3,744.0,0.5,111,146.0
9250,E3,744.0,0.5,111,146.0
9251,E4,744.0,0.5,111,146.0
9252,B3,744.0,0.5,111,146.0
9253,E3,744.0,0.5,111,146.0
9254,F#2,744.0,0.5,95,146.0
9255,C2,744.0,0.5,95,146.0
9256,F#5,744.208,0.125,89,146.0
9257,E5,744.333,73/250,89,146.0
9258,C2,744.5,0.5,95,146.0
9259,E4,744.5,0.5,111,146.0
9260,B-3,744.5,0.5,111,146.0
9261,E3,744.5,0.5,111,146.0
9262,E4,744.5,0.5,111,146.0
9263,B-3,744.5,0.5,111,146.0
9264,E3,744.5,0.5,111,146.0
9265,E5,744.625,167/1000,89,146.0
9266,E-5,744.792,167/1000,89,146.0
9267,D5,744.958,4.0,89,146.0
9268,B-4,744.958,0.5,111,146.0
9269,E2,745.0,0.375,89,146.0
9270,E2,745.0,0.375,89,146.0
9271,F#2,745.0,1.0,95,146.0
9272,E2,745.0,1.0,95,146.0
9273,B4,745.125,167/1000,111,146.0
9274,B-4,745.292,0.5,89,146.0
9275,B4,745.458,167/1000,89,146.0
9276,E2,745.5,0.375,89,146.0
9277,E2,745.5,0.375,89,146.0
9278,B-4,745.625,3333/1000,89,146.0
9279,G#4,745.792,167/1000,89,146.0
9280,F#4,745.958,1.0,111,146.0
9281,E4,746.0,0.5,111,146.0
9282,B3,746.0,0.5,111,146.0
9283,E3,746.0,0.5,111,146.0
9284,E4,746.0,0.5,111,146.0
9285,B3,746.0,0.5,111,146.0
9286,E3,746.0,0.5,111,146.0
9287,F#2,746.0,0.5,95,146.0
9288,C2,746.0,0.5,95,146.0
9289,C2,746.5,0.5,95,146.0
9290,E4,746.5,0.5,111,146.0
9291,B3,746.5,0.5,111,146.0
9292,E3,746.5,0.5,111,146.0
9293,E4,746.5,0.5,111,146.0
9294,B3,746.5,0.5,111,146.0
9295,E3,746.5,0.5,111,146.0
9296,E4,747.0,0.5,111,146.0
9297,B3,747.0,0.5,111,146.0
9298,E3,747.0,0.5,111,146.0
9299,E4,747.0,0.5,111,146.0
9300,B3,747.0,0.5,111,146.0
9301,E3,747.0,0.5,111,146.0
9302,F#2,747.0,1.0,95,146.0
9303,E2,747.0,1.0,95,146.0
9304,E-5,747.208,0.75,111,146.0
9305,E4,747.5,0.5,111,146.0
9306,B-3,747.5,0.5,111,146.0
9307,E3,747.5,0.5,111,146.0
9308,E4,747.5,0.5,111,146.0
9309,B-3,747.5,0.5,111,146.0
9310,E3,747.5,0.5,111,146.0
9311,B4,747.958,0.5,111,146.0
9312,E2,748.0,0.375,89,146.0
9313,E2,748.0,0.375,89,146.0
9314,F#2,748.0,0.5,95,146.0
9315,C2,748.0,0.5,95,146.0
9316,B5,748.458,0.5,111,146.0
9317,E2,748.5,0.375,89,146.0
9318,E2,748.5,0.375,89,146.0
9319,C2,748.5,0.5,95,146.0
9320,D5,748.958,726.0,89,146.0
9321,B5,748.958,0.5,111,146.0
9322,B-4,748.958,1.0,89,146.0
9323,B2,749.0,0.25,111,146.0
9324,B2,749.0,0.25,111,146.0
9325,B-2,749.0,1.0,95,146.0
9326,E2,749.0,1.0,95,146.0
9327,E3,749.25,0.25,111,146.0
9328,E3,749.25,0.25,111,146.0
9329,E4,749.458,167/1000,111,146.0
9330,G#4,749.5,0.5,111,146.0
9331,G#4,749.5,0.5,111,146.0
9332,F#4,749.625,167/1000,89,146.0
9333,B-4,749.792,1167/1000,111,146.0
9334,B4,749.958,0.25,111,146.0
9335,E3,750.0,0.5,111,146.0
9336,E3,750.0,0.5,111,146.0
9337,F#2,750.0,0.5,95,146.0
9338,C2,750.0,0.5,95,146.0
9339,B-4,750.208,2.75,111,146.0
9340,E2,750.5,0.375,89,146.0
9341,E2,750.5,0.375,89,146.0
9342,C2,750.5,0.5,95,146.0
9343,F#4,750.958,83/1000,111,146.0
9344,E4,751.0,0.5,111,146.0
9345,B3,751.0,0.5,111,146.0
9346,E3,751.0,0.5,111,146.0
9347,E4,751.0,0.5,111,146.0
9348,B3,751.0,0.5,111,146.0
9349,E3,751.0,0.5,111,146.0
9350,F#2,751.0,1.0,95,146.0
9351,E2,751.0,1.0,95,146.0
9352,F4,751.042,83/1000,89,146.0
9353,F#4,751.125,167/1000,89,146.0
9354,G#4,751.292,167/1000,89,146.0
9355,C#5,751.458,0.25,111,146.0
9356,E4,751.5,0.5,111,146.0
9357,B3,751.5,0.5,111,146.0
9358,E3,751.5,0.5,111,146.0
9359,E4,751.5,0.5,111,146.0
9360,B3,751.5,0.5,111,146.0
9361,E3,751.5,0.5,111,146.0
9362,G#4,751.708,0.25,111,146.0
9363,F#4,751.958,0.25,111,146.0
9364,E4,752.0,0.5,111,146.0
9365,B3,752.0,0.5,111,146.0
9366,E3,752.0,0.5,111,146.0
9367,E4,752.0,0.5,111,146.0
9368,B3,752.0,0.5,111,146.0
9369,E3,752.0,0.5,111,146.0
9370,F#2,752.0,0.5,95,146.0
9371,C2,752.0,0.5,95,146.0
9372,E4,752.208,0.25,111,146.0
9373,E-4,752.458,1/10,111,146.0
9374,C2,752.5,0.5,95,146.0
9375,E4,752.5,0.5,111,146.0
9376,B-3,752.5,0.5,111,146.0
9377,E3,752.5,0.5,111,146.0
9378,E4,752.5,0.5,111,146.0
9379,B-3,752.5,0.5,111,146.0
9380,E3,752.5,0.5,111,146.0
9381,E4,752.558,1/10,89,146.0
9382,F#4,752.658,1/10,89,146.0
9383,E4,752.758,1/10,89,146.0
9384,E-4,752.858,1/10,89,146.0
9385,E2,753.0,0.375,89,146.0
9386,E2,753.0,0.375,89,146.0
9387,B-2,753.0,1.0,95,146.0
9388,E2,753.0,1.0,95,146.0
9389,E4,753.5,0.5,111,146.0
9390,B3,753.5,0.5,111,146.0
9391,E3,753.5,0.5,111,146.0
9392,E4,753.5,0.5,111,146.0
9393,B3,753.5,0.5,111,146.0
9394,E3,753.5,0.5,111,146.0
9395,E4,754.0,0.5,111,146.0
9396,B3,754.0,0.5,111,146.0
9397,E3,754.0,0.5,111,146.0
9398,E4,754.0,0.5,111,146.0
9399,B3,754.0,0.5,111,146.0
9400,E3,754.0,0.5,111,146.0
9401,F#2,754.0,0.5,95,146.0
9402,C2,754.0,0.5,95,146.0
9403,E2,754.5,0.188,89,146.0
9404,E2,754.5,0.188,89,146.0
9405,C2,754.5,0.5,95,146.0
9406,E2,754.75,0.188,89,146.0
9407,E2,754.75,0.188,89,146.0
9408,B-2,755.0,0.375,89,146.0
9409,B-2,755.0,0.375,89,146.0
9410,F#2,755.0,1.0,95,146.0
9411,E2,755.0,1.0,95,146.0
9412,B2,755.5,0.375,89,146.0
9413,B2,755.5,0.375,89,146.0
9414,E3,756.0,0.5,127,146.0
9415,E3,756.0,0.5,127,146.0
9416,F#2,756.0,0.5,95,146.0
9417,C2,756.0,0.5,95,146.0
9418,B2,756.5,0.5,111,146.0
9419,B2,756.5,0.5,111,146.0
9420,C2,756.5,0.5,95,146.0
9421,B-2,757.0,0.5,111,146.0
9422,B-2,757.0,0.5,111,146.0
9423,B-2,757.0,1.0,95,146.0
9424,E2,757.0,1.0,95,146.0
9425,G#2,757.5,0.5,111,146.0
9426,G#2,757.5,0.5,111,146.0
9427,E2,758.0,0.375,89,146.0
9428,E2,758.0,0.375,89,146.0
9429,F#2,758.0,0.5,95,146.0
9430,C2,758.0,0.5,95,146.0
9431,E2,758.5,0.375,89,146.0
9432,E2,758.5,0.375,89,146.0
9433,C2,758.5,0.5,95,146.0
9434,E4,759.0,0.5,111,146.0
9435,B3,759.0,0.5,111,146.0
9436,E3,759.0,0.5,111,146.0
9437,E4,759.0,0.5,111,146.0
9438,B3,759.0,0.5,111,146.0
9439,E3,759.0,0.5,111,146.0
9440,F#2,759.0,1.0,95,146.0
9441,E2,759.0,1.0,95,146.0
9442,E4,759.5,0.5,111,146.0
9443,B3,759.5,0.5,111,146.0
9444,E3,759.5,0.5,111,146.0
9445,E4,759.5,0.5,111,146.0
9446,B3,759.5,0.5,111,146.0
9447,E3,759.5,0.5,111,146.0
9448,E4,760.0,0.5,111,146.0
9449,B3,760.0,0.5,111,146.0
9450,E3,760.0,0.5,111,146.0
9451,E4,760.0,0.5,111,146.0
9452,B3,760.0,0.5,111,146.0
9453,E3,760.0,0.5,111,146.0
9454,F#2,760.0,0.5,95,146.0
9455,C2,760.0,0.5,95,146.0
9456,C2,760.5,0.5,95,146.0
9457,E4,760.5,0.5,111,146.0
9458,B-3,760.5,0.5,111,146.0
9459,E3,760.5,0.5,111,146.0
9460,E4,760.5,0.5,111,146.0
9461,B-3,760.5,0.5,111,146.0
9462,E3,760.5,0.5,111,146.0
9463,E2,761.0,0.375,89,146.0
9464,E2,761.0,0.375,89,146.0
9465,B-2,761.0,1.0,95,146.0
9466,E2,761.0,1.0,95,146.0
9467,E2,761.5,0.375,89,146.0
9468,E2,761.5,0.375,89,146.0
9469,E4,762.0,0.5,111,146.0
9470,B3,762.0,0.5,111,146.0
9471,E3,762.0,0.5,111,146.0
9472,E4,762.0,0.5,111,146.0
9473,B3,762.0,0.5,111,146.0
9474,E3,762.0,0.5,111,146.0
9475,F#2,762.0,0.5,95,146.0
9476,C2,762.0,0.5,95,146.0
9477,C2,762.5,0.5,95,146.0
9478,E4,762.5,0.5,111,146.0
9479,B3,762.5,0.5,111,146.0
9480,E3,762.5,0.5,111,146.0
9481,E4,762.5,0.5,111,146.0
9482,B3,762.5,0.5,111,146.0
9483,E3,762.5,0.5,111,146.0
9484,E4,763.0,0.5,111,146.0
9485,B3,763.0,0.5,111,146.0
9486,E3,763.0,0.5,111,146.0
9487,E4,763.0,0.5,111,146.0
9488,B3,763.0,0.5,111,146.0
9489,E3,763.0,0.5,111,146.0
9490,F#2,763.0,1.0,95,146.0
9491,E2,763.0,1.0,95,146.0
9492,E4,763.5,0.5,111,146.0
9493,B-3,763.5,0.5,111,146.0
9494,E3,763.5,0.5,111,146.0
9495,E4,763.5,0.5,111,146.0
9496,B-3,763.5,0.5,111,146.0
9497,E3,763.5,0.5,111,146.0
9498,E2,764.0,0.375,89,146.0
9499,E2,764.0,0.375,89,146.0
9500,F#2,764.0,0.5,95,146.0
9501,C2,764.0,0.5,95,146.0
9502,E2,764.5,0.375,89,146.0
9503,E2,764.5,0.375,89,146.0
9504,C2,764.5,0.5,95,146.0
9505,B2,765.0,0.25,111,146.0
9506,B2,765.0,0.25,111,146.0
9507,F#2,765.0,1.0,95,146.0
9508,E2,765.0,1.0,95,146.0
9509,E3,765.25,0.25,111,146.0
9510,E3,765.25,0.25,111,146.0
9511,G#4,765.5,0.5,111,146.0
9512,G#4,765.5,0.5,111,146.0
9513,E3,766.0,0.5,111,146.0
9514,E3,766.0,0.5,111,146.0
9515,F#2,766.0,0.5,95,146.0
9516,C2,766.0,0.5,95,146.0
9517,E2,766.5,0.375,89,146.0
9518,E2,766.5,0.375,89,146.0
9519,C2,766.5,0.5,95,146.0
9520,E4,767.0,0.5,111,146.0
9521,B3,767.0,0.5,111,146.0
9522,E3,767.0,0.5,111,146.0
9523,E4,767.0,0.5,111,146.0
9524,B3,767.0,0.5,111,146.0
9525,E3,767.0,0.5,111,146.0
9526,F#2,767.0,1.0,95,146.0
9527,E2,767.0,1.0,95,146.0
9528,E4,767.5,0.5,111,146.0
9529,B3,767.5,0.5,111,146.0
9530,E3,767.5,0.5,111,146.0
9531,E4,767.5,0.5,111,146.0
9532,B3,767.5,0.5,111,146.0
9533,E3,767.5,0.5,111,146.0
9534,E4,768.0,0.5,111,146.0
9535,B3,768.0,0.5,111,146.0
9536,E3,768.0,0.5,111,146.0
9537,E4,768.0,0.5,111,146.0
9538,B3,768.0,0.5,111,146.0
9539,E3,768.0,0.5,111,146.0
9540,F#2,768.0,0.5,95,146.0
9541,C2,768.0,0.5,95,146.0
9542,C2,768.5,0.5,95,146.0
9543,E4,768.5,0.5,111,146.0
9544,B-3,768.5,0.5,111,146.0
9545,E3,768.5,0.5,111,146.0
9546,E4,768.5,0.5,111,146.0
9547,B-3,768.5,0.5,111,146.0
9548,E3,768.5,0.5,111,146.0
9549,E2,769.0,0.375,89,146.0
9550,E2,769.0,0.375,89,146.0
9551,F#2,769.0,1.0,95,146.0
9552,E2,769.0,1.0,95,146.0
9553,E4,769.5,0.5,111,146.0
9554,B3,769.5,0.5,111,146.0
9555,E3,769.5,0.5,111,146.0
9556,E4,769.5,0.5,111,146.0
9557,B3,769.5,0.5,111,146.0
9558,E3,769.5,0.5,111,146.0
9559,E4,770.0,0.5,111,146.0
9560,B3,770.0,0.5,111,146.0
9561,E3,770.0,0.5,111,146.0
9562,E4,770.0,0.5,111,146.0
9563,B3,770.0,0.5,111,146.0
9564,E3,770.0,0.5,111,146.0
9565,F#2,770.0,0.5,95,146.0
9566,C2,770.0,0.5,95,146.0
9567,E2,770.5,0.188,89,146.0
9568,E2,770.5,0.188,89,146.0
9569,C2,770.5,0.5,95,146.0
9570,E2,770.75,0.188,89,146.0
9571,E2,770.75,0.188,89,146.0
9572,B-2,771.0,0.375,89,146.0
9573,B-2,771.0,0.375,89,146.0
9574,F#2,771.0,1.0,95,146.0
9575,E2,771.0,1.0,95,146.0
9576,B2,771.5,0.375,89,146.0
9577,B2,771.5,0.375,89,146.0
9578,E3,772.0,0.5,127,146.0
9579,E3,772.0,0.5,127,146.0
9580,F#2,772.0,0.5,95,146.0
9581,C2,772.0,0.5,95,146.0
9582,B2,772.5,0.5,111,146.0
9583,B2,772.5,0.5,111,146.0
9584,C2,772.5,0.5,95,146.0
9585,B-2,773.0,0.5,111,146.0
9586,B-2,773.0,0.5,111,146.0
9587,F#2,773.0,1.0,95,146.0
9588,E2,773.0,1.0,95,146.0
9589,G#2,773.5,0.5,111,146.0
9590,G#2,773.5,0.5,111,146.0
9591,E2,774.0,0.375,89,146.0
9592,E2,774.0,0.375,89,146.0
9593,F#2,774.0,0.5,95,146.0
9594,C2,774.0,0.5,95,146.0
9595,E2,774.5,0.375,89,146.0
9596,E2,774.5,0.375,89,146.0
9597,C2,774.5,0.5,95,146.0
9598,E4,775.0,0.5,111,146.0
9599,B3,775.0,0.5,111,146.0
9600,E3,775.0,0.5,111,146.0
9601,E4,775.0,0.5,111,146.0
9602,B3,775.0,0.5,111,146.0
9603,E3,775.0,0.5,111,146.0
9604,F#2,775.0,1.0,95,146.0
9605,E2,775.0,1.0,95,146.0
9606,E4,775.5,0.5,111,146.0
9607,B3,775.5,0.5,111,146.0
9608,E3,775.5,0.5,111,146.0
9609,E4,775.5,0.5,111,146.0
9610,B3,775.5,0.5,111,146.0
9611,E3,775.5,0.5,111,146.0
9612,E4,776.0,0.5,111,146.0
9613,B3,776.0,0.5,111,146.0
9614,E3,776.0,0.5,111,146.0
9615,E4,776.0,0.5,111,146.0
9616,B3,776.0,0.5,111,146.0
9617,E3,776.0,0.5,111,146.0
9618,F#2,776.0,0.5,95,146.0
9619,C2,776.0,0.5,95,146.0
9620,C2,776.5,0.5,95,146.0
9621,E4,776.5,0.5,111,146.0
9622,B-3,776.5,0.5,111,146.0
9623,E3,776.5,0.5,111,146.0
9624,E4,776.5,0.5,111,146.0
9625,B-3,776.5,0.5,111,146.0
9626,E3,776.5,0.5,111,146.0
9627,E2,777.0,0.375,89,146.0
9628,E2,777.0,0.375,89,146.0
9629,B-2,777.0,1.0,95,146.0
9630,E2,777.0,1.0,95,146.0
9631,E2,777.5,0.375,89,146.0
9632,E2,777.5,0.375,89,146.0
9633,E4,778.0,0.5,111,146.0
9634,B3,778.0,0.5,111,146.0
9635,E3,778.0,0.5,111,146.0
9636,E4,778.0,0.5,111,146.0
9637,B3,778.0,0.5,111,146.0
9638,E3,778.0,0.5,111,146.0
9639,F#2,778.0,0.5,95,146.0
9640,C2,778.0,0.5,95,146.0
9641,C2,778.5,0.5,95,146.0
9642,E4,778.5,0.5,111,146.0
9643,B3,778.5,0.5,111,146.0
9644,E3,778.5,0.5,111,146.0
9645,E4,778.5,0.5,111,146.0
9646,B3,778.5,0.5,111,146.0
9647,E3,778.5,0.5,111,146.0
9648,E4,779.0,0.5,111,146.0
9649,B3,779.0,0.5,111,146.0
9650,E3,779.0,0.5,111,146.0
9651,E4,779.0,0.5,111,146.0
9652,B3,779.0,0.5,111,146.0
9653,E3,779.0,0.5,111,146.0
9654,F#2,779.0,1.0,95,146.0
9655,E2,779.0,1.0,95,146.0
9656,E4,779.5,0.5,111,146.0
9657,B-3,779.5,0.5,111,146.0
9658,E3,779.5,0.5,111,146.0
9659,E4,779.5,0.5,111,146.0
9660,B-3,779.5,0.5,111,146.0
9661,E3,779.5,0.5,111,146.0
9662,E2,780.0,0.375,89,146.0
9663,E2,780.0,0.375,89,146.0
9664,F#2,780.0,0.5,95,146.0
9665,C2,780.0,0.5,95,146.0
9666,E2,780.5,0.375,89,146.0
9667,E2,780.5,0.375,89,146.0
9668,C2,780.5,0.5,95,146.0
9669,B2,781.0,0.25,111,146.0
9670,B2,781.0,0.25,111,146.0
9671,B-2,781.0,1.0,95,146.0
9672,E2,781.0,1.0,95,146.0
9673,E3,781.25,0.25,111,146.0
9674,E3,781.25,0.25,111,146.0
9675,G#4,781.5,0.5,111,146.0
9676,G#4,781.5,0.5,111,146.0
9677,E3,782.0,0.5,111,146.0
9678,E3,782.0,0.5,111,146.0
9679,F#2,782.0,0.5,95,146.0
9680,C2,782.0,0.5,95,146.0
9681,E2,782.5,0.375,89,146.0
9682,E2,782.5,0.375,89,146.0
9683,C2,782.5,0.5,95,146.0
9684,E4,783.0,0.5,111,146.0
9685,B3,783.0,0.5,111,146.0
9686,E3,783.0,0.5,111,146.0
9687,E4,783.0,0.5,111,146.0
9688,B3,783.0,0.5,111,146.0
9689,E3,783.0,0.5,111,146.0
9690,F#2,783.0,1.0,95,146.0
9691,E2,783.0,1.0,95,146.0
9692,E4,783.5,0.5,111,146.0
9693,B3,783.5,0.5,111,146.0
9694,E3,783.5,0.5,111,146.0
9695,E4,783.5,0.5,111,146.0
9696,B3,783.5,0.5,111,146.0
9697,E3,783.5,0.5,111,146.0
9698,E4,784.0,0.5,111,146.0
9699,B3,784.0,0.5,111,146.0
9700,E3,784.0,0.5,111,146.0
9701,E4,784.0,0.5,111,146.0
9702,B3,784.0,0.5,111,146.0
9703,E3,784.0,0.5,111,146.0
9704,F#2,784.0,0.5,95,146.0
9705,C2,784.0,0.5,95,146.0
9706,C2,784.5,0.5,95,146.0
9707,E4,784.5,0.5,111,146.0
9708,B-3,784.5,0.5,111,146.0
9709,E3,784.5,0.5,111,146.0
9710,E4,784.5,0.5,111,146.0
9711,B-3,784.5,0.5,111,146.0
9712,E3,784.5,0.5,111,146.0
9713,E2,785.0,0.375,89,146.0
9714,E2,785.0,0.375,89,146.0
9715,B-2,785.0,1.0,95,146.0
9716,E2,785.0,1.0,95,146.0
9717,E4,785.5,0.5,111,146.0
9718,B3,785.5,0.5,111,146.0
9719,E3,785.5,0.5,111,146.0
9720,E4,785.5,0.5,111,146.0
9721,B3,785.5,0.5,111,146.0
9722,E3,785.5,0.5,111,146.0
9723,E4,786.0,0.5,111,146.0
9724,B3,786.0,0.5,111,146.0
9725,E3,786.0,0.5,111,146.0
9726,E4,786.0,0.5,111,146.0
9727,B3,786.0,0.5,111,146.0
9728,E3,786.0,0.5,111,146.0
9729,F#2,786.0,0.5,95,146.0
9730,C2,786.0,0.5,95,146.0
9731,E2,786.5,0.188,89,146.0
9732,E2,786.5,0.188,89,146.0
9733,C2,786.5,0.5,95,146.0
9734,E2,786.75,0.188,89,146.0
9735,E2,786.75,0.188,89,146.0
9736,B-2,787.0,0.375,89,146.0
9737,B-2,787.0,0.375,89,146.0
9738,F#2,787.0,1.0,95,146.0
9739,E2,787.0,1.0,95,146.0
9740,B2,787.5,0.375,89,146.0
9741,B2,787.5,0.375,89,146.0
9742,E3,788.0,0.5,127,146.0
9743,E3,788.0,0.5,127,146.0
9744,F#2,788.0,0.5,95,146.0
9745,C2,788.0,0.5,95,146.0
9746,B2,788.5,0.5,111,146.0
9747,B2,788.5,0.5,111,146.0
9748,C2,788.5,0.5,95,146.0
9749,B-2,789.0,0.5,111,146.0
9750,B-2,789.0,0.5,111,146.0
9751,B-2,789.0,1.0,95,146.0
9752,E2,789.0,1.0,95,146.0
9753,G#2,789.5,0.5,111,146.0
9754,G#2,789.5,0.5,111,146.0
9755,E2,790.0,0.375,89,146.0
9756,E2,790.0,0.375,89,146.0
9757,F#2,790.0,0.5,95,146.0
9758,C2,790.0,0.5,95,146.0
9759,E2,790.5,0.375,89,146.0
9760,E2,790.5,0.375,89,146.0
9761,C2,790.5,0.5,95,146.0
9762,E4,791.0,0.5,111,146.0
9763,B3,791.0,0.5,111,146.0
9764,E3,791.0,0.5,111,146.0
9765,E4,791.0,0.5,111,146.0
9766,B3,791.0,0.5,111,146.0
9767,E3,791.0,0.5,111,146.0
9768,F#2,791.0,1.0,95,146.0
9769,E2,791.0,1.0,95,146.0
9770,E4,791.5,0.5,111,146.0
9771,B3,791.5,0.5,111,146.0
9772,E3,791.5,0.5,111,146.0
9773,E4,791.5,0.5,111,146.0
9774,B3,791.5,0.5,111,146.0
9775,E3,791.5,0.5,111,146.0
9776,E4,792.0,0.5,111,146.0
9777,B3,792.0,0.5,111,146.0
9778,E3,792.0,0.5,111,146.0
9779,E4,792.0,0.5,111,146.0
9780,B3,792.0,0.5,111,146.0
9781,E3,792.0,0.5,111,146.0
9782,F#2,792.0,0.5,95,146.0
9783,C2,792.0,0.5,95,146.0
9784,C2,792.5,0.5,95,146.0
9785,E4,792.5,0.5,111,146.0
9786,B-3,792.5,0.5,111,146.0
9787,E3,792.5,0.5,111,146.0
9788,E4,792.5,0.5,111,146.0
9789,B-3,792.5,0.5,111,146.0
9790,E3,792.5,0.5,111,146.0
9791,E2,793.0,0.375,89,146.0
9792,E2,793.0,0.375,89,146.0
9793,F#2,793.0,1.0,95,146.0
9794,E2,793.0,1.0,95,146.0
9795,E2,793.5,0.375,89,146.0
9796,E2,793.5,0.375,89,146.0
9797,E4,794.0,0.5,111,146.0
9798,B3,794.0,0.5,111,146.0
9799,E3,794.0,0.5,111,146.0
9800,E4,794.0,0.5,111,146.0
9801,B3,794.0,0.5,111,146.0
9802,E3,794.0,0.5,111,146.0
9803,F#2,794.0,0.5,95,146.0
9804,C2,794.0,0.5,95,146.0
9805,C2,794.5,0.5,95,146.0
9806,E4,794.5,0.5,111,146.0
9807,B3,794.5,0.5,111,146.0
9808,E3,794.5,0.5,111,146.0
9809,E4,794.5,0.5,111,146.0
9810,B3,794.5,0.5,111,146.0
9811,E3,794.5,0.5,111,146.0
9812,E4,795.0,0.5,111,146.0
9813,B3,795.0,0.5,111,146.0
9814,E3,795.0,0.5,111,146.0
9815,E4,795.0,0.5,111,146.0
9816,B3,795.0,0.5,111,146.0
9817,E3,795.0,0.5,111,146.0
9818,F#2,795.0,1.0,95,146.0
9819,E2,795.0,1.0,95,146.0
9820,E4,795.5,0.5,111,146.0
9821,B-3,795.5,0.5,111,146.0
9822,E3,795.5,0.5,111,146.0
9823,E4,795.5,0.5,111,146.0
9824,B-3,795.5,0.5,111,146.0
9825,E3,795.5,0.5,111,146.0
9826,E2,796.0,0.375,89,146.0
9827,E2,796.0,0.375,89,146.0
9828,F#2,796.0,0.5,95,146.0
9829,C2,796.0,0.5,95,146.0
9830,E2,796.5,0.375,89,146.0
9831,E2,796.5,0.375,89,146.0
9832,C2,796.5,0.5,95,146.0
9833,B2,797.0,0.25,111,146.0
9834,B2,797.0,0.25,111,146.0
9835,F#2,797.0,1.0,95,146.0
9836,E2,797.0,1.0,95,146.0
9837,E3,797.25,0.25,111,146.0
9838,E3,797.25,0.25,111,146.0
9839,G#4,797.5,0.5,111,146.0
9840,G#4,797.5,0.5,111,146.0
9841,E3,798.0,0.5,111,146.0
9842,E3,798.0,0.5,111,146.0
9843,F#2,798.0,0.5,95,146.0
9844,C2,798.0,0.5,95,146.0
9845,E2,798.5,0.375,89,146.0
9846,E2,798.5,0.375,89,146.0
9847,C2,798.5,0.5,95,146.0
9848,E4,799.0,0.5,111,146.0
9849,B3,799.0,0.5,111,146.0
9850,E3,799.0,0.5,111,146.0
9851,E4,799.0,0.5,111,146.0
9852,B3,799.0,0.5,111,146.0
9853,E3,799.0,0.5,111,146.0
9854,F#2,799.0,1.0,95,146.0
9855,E2,799.0,1.0,95,146.0
9856,E4,799.5,0.5,111,146.0
9857,B3,799.5,0.5,111,146.0
9858,E3,799.5,0.5,111,146.0
9859,E4,799.5,0.5,111,146.0
9860,B3,799.5,0.5,111,146.0
9861,E3,799.5,0.5,111,146.0
9862,E4,800.0,0.5,111,146.0
9863,B3,800.0,0.5,111,146.0
9864,E3,800.0,0.5,111,146.0
9865,E4,800.0,0.5,111,146.0
9866,B3,800.0,0.5,111,146.0
9867,E3,800.0,0.5,111,146.0
9868,F#2,800.0,0.5,95,146.0
9869,C2,800.0,0.5,95,146.0
9870,C2,800.5,0.5,95,146.0
9871,E4,800.5,0.5,111,146.0
9872,B-3,800.5,0.5,111,146.0
9873,E3,800.5,0.5,111,146.0
9874,E4,800.5,0.5,111,146.0
9875,B-3,800.5,0.5,111,146.0
9876,E3,800.5,0.5,111,146.0
9877,E2,801.0,0.375,89,146.0
9878,E2,801.0,0.375,89,146.0
9879,F#2,801.0,1.0,95,146.0
9880,E2,801.0,1.0,95,146.0
9881,E4,801.5,0.5,111,146.0
9882,B3,801.5,0.5,111,146.0
9883,E3,801.5,0.5,111,146.0
9884,E4,801.5,0.5,111,146.0
9885,B3,801.5,0.5,111,146.0
9886,E3,801.5,0.5,111,146.0
9887,E4,802.0,0.5,111,146.0
9888,B3,802.0,0.5,111,146.0
9889,E3,802.0,0.5,111,146.0
9890,E4,802.0,0.5,111,146.0
9891,B3,802.0,0.5,111,146.0
9892,E3,802.0,0.5,111,146.0
9893,F#2,802.0,0.5,95,146.0
9894,C2,802.0,0.5,95,146.0
9895,E2,802.5,0.188,89,146.0
9896,E2,802.5,0.188,89,146.0
9897,C2,802.5,0.5,95,146.0
9898,E2,802.75,0.188,89,146.0
9899,E2,802.75,0.188,89,146.0
9900,B-2,803.0,0.375,89,146.0
9901,B-2,803.0,0.375,89,146.0
9902,F#2,803.0,1.0,95,146.0
9903,E2,803.0,1.0,95,146.0
9904,B2,803.5,0.375,89,146.0
9905,B2,803.5,0.375,89,146.0
9906,E3,804.0,0.5,127,146.0
9907,E3,804.0,0.5,127,146.0
9908,F#2,804.0,0.5,95,146.0
9909,C2,804.0,0.5,95,146.0
9910,B2,804.5,0.5,111,146.0
9911,B2,804.5,0.5,111,146.0
9912,C2,804.5,0.5,95,146.0
9913,B-2,805.0,0.5,111,146.0
9914,B-2,805.0,0.5,111,146.0
9915,B-2,805.0,1.0,95,146.0
9916,E2,805.0,1.0,95,146.0
9917,G#2,805.5,0.5,111,146.0
9918,G#2,805.5,0.5,111,146.0
9919,E2,806.0,0.375,89,146.0
9920,E2,806.0,0.375,89,146.0
9921,B-2,806.0,0.5,95,146.0
9922,C2,806.0,0.5,95,146.0
9923,E2,806.5,0.375,89,146.0
9924,E2,806.5,0.375,89,146.0
9925,C2,806.5,0.5,95,146.0
9926,E4,807.0,0.5,111,146.0
9927,B3,807.0,0.5,111,146.0
9928,E3,807.0,0.5,111,146.0
9929,E4,807.0,0.5,111,146.0
9930,B3,807.0,0.5,111,146.0
9931,E3,807.0,0.5,111,146.0
9932,B-2,807.0,1.0,95,146.0
9933,E2,807.0,1.0,95,146.0
9934,E4,807.5,0.5,111,146.0
9935,B3,807.5,0.5,111,146.0
9936,E3,807.5,0.5,111,146.0
9937,E4,807.5,0.5,111,146.0
9938,B3,807.5,0.5,111,146.0
9939,E3,807.5,0.5,111,146.0
9940,E4,808.0,0.5,111,146.0
9941,B3,808.0,0.5,111,146.0
9942,E3,808.0,0.5,111,146.0
9943,E4,808.0,0.5,111,146.0
9944,B3,808.0,0.5,111,146.0
9945,E3,808.0,0.5,111,146.0
9946,B-2,808.0,0.5,95,146.0
9947,C2,808.0,0.5,95,146.0
9948,C2,808.5,0.5,95,146.0
9949,E4,808.5,0.5,111,146.0
9950,B-3,808.5,0.5,111,146.0
9951,E3,808.5,0.5,111,146.0
9952,E4,808.5,0.5,111,146.0
9953,B-3,808.5,0.5,111,146.0
9954,E3,808.5,0.5,111,146.0
9955,E2,809.0,0.375,89,146.0
9956,E2,809.0,0.375,89,146.0
9957,B-2,809.0,1.0,95,146.0
9958,E2,809.0,1.0,95,146.0
9959,E2,809.5,0.375,89,146.0
9960,E2,809.5,0.375,89,146.0
9961,E4,810.0,0.5,111,146.0
9962,B3,810.0,0.5,111,146.0
9963,E3,810.0,0.5,111,146.0
9964,E4,810.0,0.5,111,146.0
9965,B3,810.0,0.5,111,146.0
9966,E3,810.0,0.5,111,146.0
9967,B-2,810.0,0.5,95,146.0
9968,C2,810.0,0.5,95,146.0
9969,C2,810.5,0.5,95,146.0
9970,E4,810.5,0.5,111,146.0
9971,B3,810.5,0.5,111,146.0
9972,E3,810.5,0.5,111,146.0
9973,E4,810.5,0.5,111,146.0
9974,B3,810.5,0.5,111,146.0
9975,E3,810.5,0.5,111,146.0
9976,E4,811.0,0.5,111,146.0
9977,B3,811.0,0.5,111,146.0
9978,E3,811.0,0.5,111,146.0
9979,E4,811.0,0.5,111,146.0
9980,B3,811.0,0.5,111,146.0
9981,E3,811.0,0.5,111,146.0
9982,B-2,811.0,1.0,95,146.0
9983,E2,811.0,1.0,95,146.0
9984,E4,811.5,0.5,111,146.0
9985,B-3,811.5,0.5,111,146.0
9986,E3,811.5,0.5,111,146.0
9987,E4,811.5,0.5,111,146.0
9988,B-3,811.5,0.5,111,146.0
9989,E3,811.5,0.5,111,146.0
9990,E2,812.0,0.375,89,146.0
9991,E2,812.0,0.375,89,146.0
9992,B-2,812.0,0.5,95,146.0
9993,C2,812.0,0.5,95,146.0
9994,E2,812.5,0.375,89,146.0
9995,E2,812.5,0.375,89,146.0
9996,C2,812.5,0.5,95,146.0
9997,B2,813.0,0.25,111,146.0
9998,B2,813.0,0.25,111,146.0
9999,B-2,813.0,1.0,95,146.0
10000,E2,813.0,1.0,95,146.0
10001,E3,813.25,0.25,111,146.0
10002,E3,813.25,0.25,111,146.0
10003,G#4,813.5,0.5,111,146.0
10004,G#4,813.5,0.5,111,146.0
10005,E3,814.0,0.5,111,146.0
10006,E3,814.0,0.5,111,146.0
10007,B-2,814.0,0.5,95,146.0
10008,C2,814.0,0.5,95,146.0
10009,E2,814.5,0.375,89,146.0
10010,E2,814.5,0.375,89,146.0
10011,C2,814.5,0.5,95,146.0
10012,E4,815.0,0.5,111,146.0
10013,B3,815.0,0.5,111,146.0
10014,E3,815.0,0.5,111,146.0
10015,E4,815.0,0.5,111,146.0
10016,B3,815.0,0.5,111,146.0
10017,E3,815.0,0.5,111,146.0
10018,B-2,815.0,1.0,95,146.0
10019,E2,815.0,1.0,95,146.0
10020,E4,815.5,0.5,111,146.0
10021,B3,815.5,0.5,111,146.0
10022,E3,815.5,0.5,111,146.0
10023,E4,815.5,0.5,111,146.0
10024,B3,815.5,0.5,111,146.0
10025,E3,815.5,0.5,111,146.0
10026,E4,816.0,0.5,111,146.0
10027,B3,816.0,0.5,111,146.0
10028,E3,816.0,0.5,111,146.0
10029,E4,816.0,0.5,111,146.0
10030,B3,816.0,0.5,111,146.0
10031,E3,816.0,0.5,111,146.0
10032,B-2,816.0,0.5,95,146.0
10033,C2,816.0,0.5,95,146.0
10034,C2,816.5,0.5,95,146.0
10035,E4,816.5,0.5,111,146.0
10036,B-3,816.5,0.5,111,146.0
10037,E3,816.5,0.5,111,146.0
10038,E4,816.5,0.5,111,146.0
10039,B-3,816.5,0.5,111,146.0
10040,E3,816.5,0.5,111,146.0
10041,E2,817.0,0.375,89,146.0
10042,E2,817.0,0.375,89,146.0
10043,B-2,817.0,1.0,95,146.0
10044,E2,817.0,1.0,95,146.0
10045,E4,817.5,0.5,111,146.0
10046,B3,817.5,0.5,111,146.0
10047,E3,817.5,0.5,111,146.0
10048,E4,817.5,0.5,111,146.0
10049,B3,817.5,0.5,111,146.0
10050,E3,817.5,0.5,111,146.0
10051,E4,818.0,0.5,111,146.0
10052,B3,818.0,0.5,111,146.0
10053,E3,818.0,0.5,111,146.0
10054,E4,818.0,0.5,111,146.0
10055,B3,818.0,0.5,111,146.0
10056,E3,818.0,0.5,111,146.0
10057,B-2,818.0,0.5,95,146.0
10058,C2,818.0,0.5,95,146.0
10059,E2,818.5,0.188,89,146.0
10060,E2,818.5,0.188,89,146.0
10061,C2,818.5,0.5,95,146.0
10062,E2,818.75,0.188,89,146.0
10063,E2,818.75,0.188,89,146.0
10064,B-2,819.0,0.375,89,146.0
10065,B-2,819.0,0.375,89,146.0
10066,B-2,819.0,1.0,95,146.0
10067,E2,819.0,1.0,95,146.0
10068,B2,819.5,0.375,89,146.0
10069,B2,819.5,0.375,89,146.0
10070,E3,820.0,0.5,127,146.0
10071,E3,820.0,0.5,127,146.0
10072,B-2,820.0,0.5,95,146.0
10073,C2,820.0,0.5,95,146.0
10074,B2,820.5,0.5,111,146.0
10075,B2,820.5,0.5,111,146.0
10076,C2,820.5,0.5,95,146.0
10077,B-2,821.0,0.5,111,146.0
10078,B-2,821.0,0.5,111,146.0
10079,B-2,821.0,1.0,95,146.0
10080,E2,821.0,1.0,95,146.0
10081,G#2,821.5,0.5,111,146.0
10082,G#2,821.5,0.5,111,146.0
10083,E2,822.0,0.375,89,146.0
10084,E2,822.0,0.375,89,146.0
10085,B-2,822.0,0.5,95,146.0
10086,C2,822.0,0.5,95,146.0
10087,E2,822.5,0.375,89,146.0
10088,E2,822.5,0.375,89,146.0
10089,C2,822.5,0.5,95,146.0
10090,E4,823.0,0.5,111,146.0
10091,B3,823.0,0.5,111,146.0
10092,E3,823.0,0.5,111,146.0
10093,E4,823.0,0.5,111,146.0
10094,B3,823.0,0.5,111,146.0
10095,E3,823.0,0.5,111,146.0
10096,B-2,823.0,1.0,95,146.0
10097,E2,823.0,1.0,95,146.0
10098,E4,823.5,0.5,111,146.0
10099,B3,823.5,0.5,111,146.0
10100,E3,823.5,0.5,111,146.0
10101,E4,823.5,0.5,111,146.0
10102,B3,823.5,0.5,111,146.0
10103,E3,823.5,0.5,111,146.0
10104,E4,824.0,0.5,111,146.0
10105,B3,824.0,0.5,111,146.0
10106,E3,824.0,0.5,111,146.0
10107,E4,824.0,0.5,111,146.0
10108,B3,824.0,0.5,111,146.0
10109,E3,824.0,0.5,111,146.0
10110,B-2,824.0,0.5,95,146.0
10111,C2,824.0,0.5,95,146.0
10112,C2,824.5,0.5,95,146.0
10113,E4,824.5,0.5,111,146.0
10114,B-3,824.5,0.5,111,146.0
10115,E3,824.5,0.5,111,146.0
10116,E4,824.5,0.5,111,146.0
10117,B-3,824.5,0.5,111,146.0
10118,E3,824.5,0.5,111,146.0
10119,E2,825.0,0.375,89,146.0
10120,E2,825.0,0.375,89,146.0
10121,B-2,825.0,1.0,95,146.0
10122,E2,825.0,1.0,95,146.0
10123,E2,825.5,0.375,89,146.0
10124,E2,825.5,0.375,89,146.0
10125,E4,826.0,0.5,111,146.0
10126,B3,826.0,0.5,111,146.0
10127,E3,826.0,0.5,111,146.0
10128,E4,826.0,0.5,111,146.0
10129,B3,826.0,0.5,111,146.0
10130,E3,826.0,0.5,111,146.0
10131,B-2,826.0,0.5,95,146.0
10132,C2,826.0,0.5,95,146.0
10133,C2,826.5,0.5,95,146.0
10134,E4,826.5,0.5,111,146.0
10135,B3,826.5,0.5,111,146.0
10136,E3,826.5,0.5,111,146.0
10137,E4,826.5,0.5,111,146.0
10138,B3,826.5,0.5,111,146.0
10139,E3,826.5,0.5,111,146.0
10140,E4,827.0,0.5,111,146.0
10141,B3,827.0,0.5,111,146.0
10142,E3,827.0,0.5,111,146.0
10143,E4,827.0,0.5,111,146.0
10144,B3,827.0,0.5,111,146.0
10145,E3,827.0,0.5,111,146.0
10146,B-2,827.0,1.0,95,146.0
10147,E2,827.0,1.0,95,146.0
10148,E4,827.5,0.5,111,146.0
10149,B-3,827.5,0.5,111,146.0
10150,E3,827.5,0.5,111,146.0
10151,E4,827.5,0.5,111,146.0
10152,B-3,827.5,0.5,111,146.0
10153,E3,827.5,0.5,111,146.0
10154,E2,828.0,0.375,89,146.0
10155,E2,828.0,0.375,89,146.0
10156,B-2,828.0,0.5,95,146.0
10157,C2,828.0,0.5,95,146.0
10158,E2,828.5,0.375,89,146.0
10159,E2,828.5,0.375,89,146.0
10160,C2,828.5,0.5,95,146.0
10161,B2,829.0,0.25,111,146.0
10162,B2,829.0,0.25,111,146.0
10163,B-2,829.0,1.0,95,146.0
10164,E2,829.0,1.0,95,146.0
10165,E3,829.25,0.25,111,146.0
10166,E3,829.25,0.25,111,146.0
10167,G#4,829.5,0.5,111,146.0
10168,G#4,829.5,0.5,111,146.0
10169,E3,830.0,0.5,111,146.0
10170,E3,830.0,0.5,111,146.0
10171,B-2,830.0,0.5,95,146.0
10172,C2,830.0,0.5,95,146.0
10173,E2,830.5,0.375,89,146.0
10174,E2,830.5,0.375,89,146.0
10175,C2,830.5,0.5,95,146.0
10176,E4,831.0,0.5,111,146.0
10177,B3,831.0,0.5,111,146.0
10178,E3,831.0,0.5,111,146.0
10179,E4,831.0,0.5,111,146.0
10180,B3,831.0,0.5,111,146.0
10181,E3,831.0,0.5,111,146.0
10182,B-2,831.0,1.0,95,146.0
10183,E2,831.0,1.0,95,146.0
10184,E4,831.5,0.5,111,146.0
10185,B3,831.5,0.5,111,146.0
10186,E3,831.5,0.5,111,146.0
10187,E4,831.5,0.5,111,146.0
10188,B3,831.5,0.5,111,146.0
10189,E3,831.5,0.5,111,146.0
10190,E4,832.0,0.5,111,146.0
10191,B3,832.0,0.5,111,146.0
10192,E3,832.0,0.5,111,146.0
10193,E4,832.0,0.5,111,146.0
10194,B3,832.0,0.5,111,146.0
10195,E3,832.0,0.5,111,146.0
10196,B-2,832.0,0.5,95,146.0
10197,C2,832.0,0.5,95,146.0
10198,C2,832.5,0.5,95,146.0
10199,E4,832.5,0.5,111,146.0
10200,B-3,832.5,0.5,111,146.0
10201,E3,832.5,0.5,111,146.0
10202,E4,832.5,0.5,111,146.0
10203,B-3,832.5,0.5,111,146.0
10204,E3,832.5,0.5,111,146.0
10205,E2,833.0,0.375,89,146.0
10206,E2,833.0,0.375,89,146.0
10207,B-2,833.0,1.0,95,146.0
10208,E2,833.0,1.0,95,146.0
10209,E4,833.5,0.5,111,146.0
10210,B3,833.5,0.5,111,146.0
10211,E3,833.5,0.5,111,146.0
10212,E4,833.5,0.5,111,146.0
10213,B3,833.5,0.5,111,146.0
10214,E3,833.5,0.5,111,146.0
10215,E4,834.0,0.5,111,146.0
10216,B3,834.0,0.5,111,146.0
10217,E3,834.0,0.5,111,146.0
10218,E4,834.0,0.5,111,146.0
10219,B3,834.0,0.5,111,146.0
10220,E3,834.0,0.5,111,146.0
10221,B-2,834.0,0.5,95,146.0
10222,C2,834.0,0.5,95,146.0
10223,E2,834.5,0.188,89,146.0
10224,E2,834.5,0.188,89,146.0
10225,C2,834.5,0.5,95,146.0
10226,E2,834.75,0.188,89,146.0
10227,E2,834.75,0.188,89,146.0
10228,B-2,835.0,0.375,89,146.0
10229,B-2,835.0,0.375,89,146.0
10230,B-2,835.0,1.0,95,146.0
10231,E2,835.0,1.0,95,146.0
10232,B2,835.5,0.375,89,146.0
10233,B2,835.5,0.375,89,146.0
10234,E3,836.0,0.5,127,146.0
10235,E3,836.0,0.5,127,146.0
10236,B-2,836.0,0.5,95,146.0
10237,C2,836.0,0.5,95,146.0
10238,B2,836.5,0.5,111,146.0
10239,B2,836.5,0.5,111,146.0
10240,C2,836.5,0.5,95,146.0
10241,B-2,837.0,0.5,111,146.0
10242,B-2,837.0,0.5,111,146.0
10243,B-2,837.0,1.0,95,146.0
10244,E2,837.0,1.0,95,146.0
10245,G#2,837.5,0.5,111,146.0
10246,G#2,837.5,0.5,111,146.0
10247,E2,838.0,0.375,89,146.0
10248,E2,838.0,0.375,89,146.0
10249,B-2,838.0,0.5,95,146.0
10250,C2,838.0,0.5,95,146.0
10251,E2,838.5,0.375,89,146.0
10252,E2,838.5,0.375,89,146.0
10253,C2,838.5,0.5,95,146.0
10254,E4,839.0,0.5,111,146.0
10255,B3,839.0,0.5,111,146.0
10256,E3,839.0,0.5,111,146.0
10257,E4,839.0,0.5,111,146.0
10258,B3,839.0,0.5,111,146.0
10259,E3,839.0,0.5,111,146.0
10260,B-2,839.0,1.0,95,146.0
10261,E2,839.0,1.0,95,146.0
10262,E4,839.5,0.5,111,146.0
10263,B3,839.5,0.5,111,146.0
10264,E3,839.5,0.5,111,146.0
10265,E4,839.5,0.5,111,146.0
10266,B3,839.5,0.5,111,146.0
10267,E3,839.5,0.5,111,146.0
10268,E4,840.0,0.5,111,146.0
10269,B3,840.0,0.5,111,146.0
10270,E3,840.0,0.5,111,146.0
10271,E4,840.0,0.5,111,146.0
10272,B3,840.0,0.5,111,146.0
10273,E3,840.0,0.5,111,146.0
10274,B-2,840.0,0.5,95,146.0
10275,C2,840.0,0.5,95,146.0
10276,C2,840.5,0.5,95,146.0
10277,E4,840.5,0.5,111,146.0
10278,B-3,840.5,0.5,111,146.0
10279,E3,840.5,0.5,111,146.0
10280,E4,840.5,0.5,111,146.0
10281,B-3,840.5,0.5,111,146.0
10282,E3,840.5,0.5,111,146.0
10283,E2,841.0,0.375,89,146.0
10284,E2,841.0,0.375,89,146.0
10285,B-2,841.0,1.0,95,146.0
10286,E2,841.0,1.0,95,146.0
10287,E2,841.5,0.375,89,146.0
10288,E2,841.5,0.375,89,146.0
10289,E4,842.0,0.5,111,146.0
10290,B3,842.0,0.5,111,146.0
10291,E3,842.0,0.5,111,146.0
10292,E4,842.0,0.5,111,146.0
10293,B3,842.0,0.5,111,146.0
10294,E3,842.0,0.5,111,146.0
10295,B-2,842.0,0.5,95,146.0
10296,C2,842.0,0.5,95,146.0
10297,C2,842.5,0.5,95,146.0
10298,E4,842.5,0.5,111,146.0
10299,B3,842.5,0.5,111,146.0
10300,E3,842.5,0.5,111,146.0
10301,E4,842.5,0.5,111,146.0
10302,B3,842.5,0.5,111,146.0
10303,E3,842.5,0.5,111,146.0
10304,E4,843.0,0.5,111,146.0
10305,B3,843.0,0.5,111,146.0
10306,E3,843.0,0.5,111,146.0
10307,E4,843.0,0.5,111,146.0
10308,B3,843.0,0.5,111,146.0
10309,E3,843.0,0.5,111,146.0
10310,B-2,843.0,1.0,95,146.0
10311,E2,843.0,1.0,95,146.0
10312,E4,843.5,0.5,111,146.0
10313,B-3,843.5,0.5,111,146.0
10314,E3,843.5,0.5,111,146.0
10315,E4,843.5,0.5,111,146.0
10316,B-3,843.5,0.5,111,146.0
10317,E3,843.5,0.5,111,146.0
10318,E2,844.0,0.375,89,146.0
10319,E2,844.0,0.375,89,146.0
10320,B-2,844.0,0.5,95,146.0
10321,C2,844.0,0.5,95,146.0
10322,E2,844.5,0.375,89,146.0
10323,E2,844.5,0.375,89,146.0
10324,C2,844.5,0.5,95,146.0
10325,B2,845.0,0.25,111,146.0
10326,B2,845.0,0.25,111,146.0
10327,B-2,845.0,1.0,95,146.0
10328,E2,845.0,1.0,95,146.0
10329,E3,845.25,0.25,111,146.0
10330,E3,845.25,0.25,111,146.0
10331,G#4,845.5,0.5,111,146.0
10332,G#4,845.5,0.5,111,146.0
10333,E3,846.0,0.5,111,146.0
10334,E3,846.0,0.5,111,146.0
10335,B-2,846.0,0.5,95,146.0
10336,C2,846.0,0.5,95,146.0
10337,E2,846.5,0.375,89,146.0
10338,E2,846.5,0.375,89,146.0
10339,C2,846.5,0.5,95,146.0
10340,E4,847.0,0.5,111,146.0
10341,B3,847.0,0.5,111,146.0
10342,E3,847.0,0.5,111,146.0
10343,E4,847.0,0.5,111,146.0
10344,B3,847.0,0.5,111,146.0
10345,E3,847.0,0.5,111,146.0
10346,B-2,847.0,1.0,95,146.0
10347,E2,847.0,1.0,95,146.0
10348,E4,847.5,0.5,111,146.0
10349,B3,847.5,0.5,111,146.0
10350,E3,847.5,0.5,111,146.0
10351,E4,847.5,0.5,111,146.0
10352,B3,847.5,0.5,111,146.0
10353,E3,847.5,0.5,111,146.0
10354,E4,848.0,0.5,111,146.0
10355,B3,848.0,0.5,111,146.0
10356,E3,848.0,0.5,111,146.0
10357,E4,848.0,0.5,111,146.0
10358,B3,848.0,0.5,111,146.0
10359,E3,848.0,0.5,111,146.0
10360,B-2,848.0,0.5,95,146.0
10361,C2,848.0,0.5,95,146.0
10362,C2,848.5,0.5,95,146.0
10363,E4,848.5,0.5,111,146.0
10364,B-3,848.5,0.5,111,146.0
10365,E3,848.5,0.5,111,146.0
10366,E4,848.5,0.5,111,146.0
10367,B-3,848.5,0.5,111,146.0
10368,E3,848.5,0.5,111,146.0
10369,E2,849.0,0.375,89,146.0
10370,E2,849.0,0.375,89,146.0
10371,B-2,849.0,1.0,95,146.0
10372,E2,849.0,1.0,95,146.0
10373,E4,849.5,0.5,111,146.0
10374,B3,849.5,0.5,111,146.0
10375,E3,849.5,0.5,111,146.0
10376,E4,849.5,0.5,111,146.0
10377,B3,849.5,0.5,111,146.0
10378,E3,849.5,0.5,111,146.0
10379,E4,850.0,0.5,111,146.0
10380,B3,850.0,0.5,111,146.0
10381,E3,850.0,0.5,111,146.0
10382,E4,850.0,0.5,111,146.0
10383,B3,850.0,0.5,111,146.0
10384,E3,850.0,0.5,111,146.0
10385,B-2,850.0,0.5,95,146.0
10386,C2,850.0,0.5,95,146.0
10387,E2,850.5,0.188,89,146.0
10388,E2,850.5,0.188,89,146.0
10389,C2,850.5,0.5,95,146.0
10390,E2,850.75,0.188,89,146.0
10391,E2,850.75,0.188,89,146.0
10392,B-2,851.0,0.375,89,146.0
10393,B-2,851.0,0.375,89,146.0
10394,B-2,851.0,1.0,95,146.0
10395,E2,851.0,1.0,95,146.0
10396,B2,851.5,0.375,89,146.0
10397,B2,851.5,0.375,89,146.0
10398,E3,852.0,0.5,127,146.0
10399,E3,852.0,0.5,127,146.0
10400,B-2,852.0,0.5,95,146.0
10401,C2,852.0,0.5,95,146.0
10402,B2,852.5,0.5,111,146.0
10403,B2,852.5,0.5,111,146.0
10404,C2,852.5,0.5,95,146.0
10405,B-2,853.0,0.5,111,146.0
10406,B-2,853.0,0.5,111,146.0
10407,B-2,853.0,1.0,95,146.0
10408,E2,853.0,1.0,95,146.0
10409,G#2,853.5,0.5,111,146.0
10410,G#2,853.5,0.5,111,146.0
10411,E2,854.0,0.375,89,146.0
10412,E2,854.0,0.375,89,146.0
10413,B-2,854.0,0.5,95,146.0
10414,C2,854.0,0.5,95,146.0
10415,E2,854.5,0.375,89,146.0
10416,E2,854.5,0.375,89,146.0
10417,C2,854.5,0.5,95,146.0
10418,E4,855.0,0.5,111,146.0
10419,B3,855.0,0.5,111,146.0
10420,E3,855.0,0.5,111,146.0
10421,E4,855.0,0.5,111,146.0
10422,B3,855.0,0.5,111,146.0
10423,E3,855.0,0.5,111,146.0
10424,B-2,855.0,1.0,95,146.0
10425,E2,855.0,1.0,95,146.0
10426,E4,855.5,0.5,111,146.0
10427,B3,855.5,0.5,111,146.0
10428,E3,855.5,0.5,111,146.0
10429,E4,855.5,0.5,111,146.0
10430,B3,855.5,0.5,111,146.0
10431,E3,855.5,0.5,111,146.0
10432,E4,856.0,0.5,111,146.0
10433,B3,856.0,0.5,111,146.0
10434,E3,856.0,0.5,111,146.0
10435,E4,856.0,0.5,111,146.0
10436,B3,856.0,0.5,111,146.0
10437,E3,856.0,0.5,111,146.0
10438,B-2,856.0,0.5,95,146.0
10439,C2,856.0,0.5,95,146.0
10440,C2,856.5,0.5,95,146.0
10441,E4,856.5,0.5,111,146.0
10442,B-3,856.5,0.5,111,146.0
10443,E3,856.5,0.5,111,146.0
10444,E4,856.5,0.5,111,146.0
10445,B-3,856.5,0.5,111,146.0
10446,E3,856.5,0.5,111,146.0
10447,E2,857.0,0.375,89,146.0
10448,E2,857.0,0.375,89,146.0
10449,B-2,857.0,1.0,95,146.0
10450,E2,857.0,1.0,95,146.0
10451,E2,857.5,0.375,89,146.0
10452,E2,857.5,0.375,89,146.0
10453,E4,858.0,0.5,111,146.0
10454,B3,858.0,0.5,111,146.0
10455,E3,858.0,0.5,111,146.0
10456,E4,858.0,0.5,111,146.0
10457,B3,858.0,0.5,111,146.0
10458,E3,858.0,0.5,111,146.0
10459,B-2,858.0,0.5,95,146.0
10460,C2,858.0,0.5,95,146.0
10461,C2,858.5,0.5,95,146.0
10462,E4,858.5,0.5,111,146.0
10463,B3,858.5,0.5,111,146.0
10464,E3,858.5,0.5,111,146.0
10465,E4,858.5,0.5,111,146.0
10466,B3,858.5,0.5,111,146.0
10467,E3,858.5,0.5,111,146.0
10468,E4,859.0,0.5,111,146.0
10469,B3,859.0,0.5,111,146.0
10470,E3,859.0,0.5,111,146.0
10471,E4,859.0,0.5,111,146.0
10472,B3,859.0,0.5,111,146.0
10473,E3,859.0,0.5,111,146.0
10474,B-2,859.0,1.0,95,146.0
10475,E2,859.0,1.0,95,146.0
10476,E4,859.5,0.5,111,146.0
10477,B-3,859.5,0.5,111,146.0
10478,E3,859.5,0.5,111,146.0
10479,E4,859.5,0.5,111,146.0
10480,B-3,859.5,0.5,111,146.0
10481,E3,859.5,0.5,111,146.0
10482,E2,860.0,0.375,89,146.0
10483,E2,860.0,0.375,89,146.0
10484,B-2,860.0,0.5,95,146.0
10485,C2,860.0,0.5,95,146.0
10486,E2,860.5,0.375,89,146.0
10487,E2,860.5,0.375,89,146.0
10488,C2,860.5,0.5,95,146.0
10489,B2,861.0,0.25,111,146.0
10490,B2,861.0,0.25,111,146.0
10491,B-2,861.0,1.0,95,146.0
10492,E2,861.0,1.0,95,146.0
10493,E3,861.25,0.25,111,146.0
10494,E3,861.25,0.25,111,146.0
10495,G#4,861.5,0.5,111,146.0
10496,G#4,861.5,0.5,111,146.0
10497,E3,862.0,0.5,111,146.0
10498,E3,862.0,0.5,111,146.0
10499,B-2,862.0,0.5,95,146.0
10500,C2,862.0,0.5,95,146.0
10501,E2,862.5,0.375,89,146.0
10502,E2,862.5,0.375,89,146.0
10503,C2,862.5,0.5,95,146.0
10504,E4,863.0,0.5,111,146.0
10505,B3,863.0,0.5,111,146.0
10506,E3,863.0,0.5,111,146.0
10507,E4,863.0,0.5,111,146.0
10508,B3,863.0,0.5,111,146.0
10509,E3,863.0,0.5,111,146.0
10510,B-2,863.0,1.0,95,146.0
10511,E2,863.0,1.0,95,146.0
10512,E4,863.5,0.5,111,146.0
10513,B3,863.5,0.5,111,146.0
10514,E3,863.5,0.5,111,146.0
10515,E4,863.5,0.5,111,146.0
10516,B3,863.5,0.5,111,146.0
10517,E3,863.5,0.5,111,146.0
10518,E4,864.0,0.5,111,146.0
10519,B3,864.0,0.5,111,146.0
10520,E3,864.0,0.5,111,146.0
10521,E4,864.0,0.5,111,146.0
10522,B3,864.0,0.5,111,146.0
10523,E3,864.0,0.5,111,146.0
10524,B-2,864.0,0.5,95,146.0
10525,C2,864.0,0.5,95,146.0
10526,C2,864.5,0.5,95,146.0
10527,E4,864.5,0.5,111,146.0
10528,B-3,864.5,0.5,111,146.0
10529,E3,864.5,0.5,111,146.0
10530,E4,864.5,0.5,111,146.0
10531,B-3,864.5,0.5,111,146.0
10532,E3,864.5,0.5,111,146.0
10533,E2,865.0,0.375,89,146.0
10534,E2,865.0,0.375,89,146.0
10535,B-2,865.0,1.0,95,146.0
10536,E2,865.0,1.0,95,146.0
10537,E4,865.5,0.5,111,146.0
10538,B3,865.5,0.5,111,146.0
10539,E3,865.5,0.5,111,146.0
10540,E4,865.5,0.5,111,146.0
10541,B3,865.5,0.5,111,146.0
10542,E3,865.5,0.5,111,146.0
10543,E4,866.0,0.5,111,146.0
10544,B3,866.0,0.5,111,146.0
10545,E3,866.0,0.5,111,146.0
10546,E4,866.0,0.5,111,146.0
10547,B3,866.0,0.5,111,146.0
10548,E3,866.0,0.5,111,146.0
10549,B-2,866.0,0.5,95,146.0
10550,C2,866.0,0.5,95,146.0
10551,E2,866.5,0.188,89,146.0
10552,E2,866.5,0.188,89,146.0
10553,C2,866.5,0.5,95,146.0
10554,E2,866.75,0.188,89,146.0
10555,E2,866.75,0.188,89,146.0
10556,B-2,867.0,0.375,89,146.0
10557,B-2,867.0,0.375,89,146.0
10558,B-2,867.0,1.0,95,146.0
10559,E2,867.0,1.0,95,146.0
10560,B2,867.5,0.375,89,146.0
10561,B2,867.5,0.375,89,146.0
10562,E3,868.0,0.5,127,146.0
10563,E3,868.0,0.5,127,146.0
10564,B-2,868.0,0.5,95,146.0
10565,C2,868.0,0.5,95,146.0
10566,B2,868.5,0.5,111,146.0
10567,B2,868.5,0.5,111,146.0
10568,C2,868.5,0.5,95,146.0
10569,B-2,869.0,0.5,111,146.0
10570,B-2,869.0,0.5,111,146.0
10571,B-2,869.0,1.0,95,146.0
10572,E2,869.0,1.0,95,146.0
10573,G#2,869.5,0.5,111,146.0
10574,G#2,869.5,0.5,111,146.0
10575,E2,870.0,0.375,89,146.0
10576,E2,870.0,0.375,89,146.0
10577,F#2,870.0,0.5,95,146.0
10578,C2,870.0,0.5,95,146.0
10579,E2,870.5,0.375,89,146.0
10580,E2,870.5,0.375,89,146.0
10581,C2,870.5,0.5,95,146.0
10582,E4,871.0,0.5,111,146.0
10583,B3,871.0,0.5,111,146.0
10584,E3,871.0,0.5,111,146.0
10585,E4,871.0,0.5,111,146.0
10586,B3,871.0,0.5,111,146.0
10587,E3,871.0,0.5,111,146.0
10588,F#2,871.0,1.0,95,146.0
10589,E2,871.0,1.0,95,146.0
10590,E4,871.5,0.5,111,146.0
10591,B3,871.5,0.5,111,146.0
10592,E3,871.5,0.5,111,146.0
10593,E4,871.5,0.5,111,146.0
10594,B3,871.5,0.5,111,146.0
10595,E3,871.5,0.5,111,146.0
10596,E4,872.0,0.5,111,146.0
10597,B3,872.0,0.5,111,146.0
10598,E3,872.0,0.5,111,146.0
10599,E4,872.0,0.5,111,146.0
10600,B3,872.0,0.5,111,146.0
10601,E3,872.0,0.5,111,146.0
10602,F#2,872.0,0.5,95,146.0
10603,C2,872.0,0.5,95,146.0
10604,C2,872.5,0.5,95,146.0
10605,E4,872.5,0.5,111,146.0
10606,B-3,872.5,0.5,111,146.0
10607,E3,872.5,0.5,111,146.0
10608,E4,872.5,0.5,111,146.0
10609,B-3,872.5,0.5,111,146.0
10610,E3,872.5,0.5,111,146.0
10611,E2,873.0,0.375,89,146.0
10612,E2,873.0,0.375,89,146.0
10613,B-2,873.0,1.0,95,146.0
10614,E2,873.0,1.0,95,146.0
10615,E2,873.5,0.375,89,146.0
10616,E2,873.5,0.375,89,146.0
10617,E4,874.0,0.5,111,146.0
10618,B3,874.0,0.5,111,146.0
10619,E3,874.0,0.5,111,146.0
10620,E4,874.0,0.5,111,146.0
10621,B3,874.0,0.5,111,146.0
10622,E3,874.0,0.5,111,146.0
10623,F#2,874.0,0.5,95,146.0
10624,C2,874.0,0.5,95,146.0
10625,C2,874.5,0.5,95,146.0
10626,E4,874.5,0.5,111,146.0
10627,B3,874.5,0.5,111,146.0
10628,E3,874.5,0.5,111,146.0
10629,E4,874.5,0.5,111,146.0
10630,B3,874.5,0.5,111,146.0
10631,E3,874.5,0.5,111,146.0
10632,E4,875.0,0.5,111,146.0
10633,B3,875.0,0.5,111,146.0
10634,E3,875.0,0.5,111,146.0
10635,E4,875.0,0.5,111,146.0
10636,B3,875.0,0.5,111,146.0
10637,E3,875.0,0.5,111,146.0
10638,F#2,875.0,1.0,95,146.0
10639,E2,875.0,1.0,95,146.0
10640,E4,875.5,0.5,111,146.0
10641,B-3,875.5,0.5,111,146.0
10642,E3,875.5,0.5,111,146.0
10643,E4,875.5,0.5,111,146.0
10644,B-3,875.5,0.5,111,146.0
10645,E3,875.5,0.5,111,146.0
10646,E2,876.0,0.375,89,146.0
10647,E2,876.0,0.375,89,146.0
10648,F#2,876.0,0.5,95,146.0
10649,C2,876.0,0.5,95,146.0
10650,E2,876.5,0.375,89,146.0
10651,E2,876.5,0.375,89,146.0
10652,C2,876.5,0.5,95,146.0
10653,B2,877.0,0.25,111,146.0
10654,B2,877.0,0.25,111,146.0
10655,B-2,877.0,1.0,95,146.0
10656,E2,877.0,1.0,95,146.0
10657,E3,877.25,0.25,111,146.0
10658,E3,877.25,0.25,111,146.0
10659,G#4,877.5,0.5,111,146.0
10660,G#4,877.5,0.5,111,146.0
10661,E3,878.0,0.5,111,146.0
10662,E3,878.0,0.5,111,146.0
10663,F#2,878.0,0.5,95,146.0
10664,C2,878.0,0.5,95,146.0
10665,E2,878.5,0.375,89,146.0
10666,E2,878.5,0.375,89,146.0
10667,C2,878.5,0.5,95,146.0
10668,E4,879.0,0.5,111,146.0
10669,B3,879.0,0.5,111,146.0
10670,E3,879.0,0.5,111,146.0
10671,E4,879.0,0.5,111,146.0
10672,B3,879.0,0.5,111,146.0
10673,E3,879.0,0.5,111,146.0
10674,F#2,879.0,1.0,95,146.0
10675,E2,879.0,1.0,95,146.0
10676,E4,879.5,0.5,111,146.0
10677,B3,879.5,0.5,111,146.0
10678,E3,879.5,0.5,111,146.0
10679,E4,879.5,0.5,111,146.0
10680,B3,879.5,0.5,111,146.0
10681,E3,879.5,0.5,111,146.0
10682,E4,880.0,0.5,111,146.0
10683,B3,880.0,0.5,111,146.0
10684,E3,880.0,0.5,111,146.0
10685,E4,880.0,0.5,111,146.0
10686,B3,880.0,0.5,111,146.0
10687,E3,880.0,0.5,111,146.0
10688,F#2,880.0,0.5,95,146.0
10689,C2,880.0,0.5,95,146.0
10690,C2,880.5,0.5,95,146.0
10691,E4,880.5,0.5,111,146.0
10692,B-3,880.5,0.5,111,146.0
10693,E3,880.5,0.5,111,146.0
10694,E4,880.5,0.5,111,146.0
10695,B-3,880.5,0.5,111,146.0
10696,E3,880.5,0.5,111,146.0
10697,E2,881.0,0.375,89,146.0
10698,E2,881.0,0.375,89,146.0
10699,F#2,881.0,1.0,95,146.0
10700,E2,881.0,1.0,95,146.0
10701,E4,881.5,0.5,111,146.0
10702,B3,881.5,0.5,111,146.0
10703,E3,881.5,0.5,111,146.0
10704,E4,881.5,0.5,111,146.0
10705,B3,881.5,0.5,111,146.0
10706,E3,881.5,0.5,111,146.0
10707,E4,882.0,0.5,111,146.0
10708,B3,882.0,0.5,111,146.0
10709,E3,882.0,0.5,111,146.0
10710,E4,882.0,0.5,111,146.0
10711,B3,882.0,0.5,111,146.0
10712,E3,882.0,0.5,111,146.0
10713,F#2,882.0,0.5,95,146.0
10714,C2,882.0,0.5,95,146.0
10715,E2,882.5,0.188,89,146.0
10716,E2,882.5,0.188,89,146.0
10717,C2,882.5,0.5,95,146.0
10718,E2,882.75,0.188,89,146.0
10719,E2,882.75,0.188,89,146.0
10720,B-2,883.0,0.375,89,146.0
10721,B-2,883.0,0.375,89,146.0
10722,F#2,883.0,1.0,95,146.0
10723,E2,883.0,1.0,95,146.0
10724,B2,883.5,0.375,89,146.0
10725,B2,883.5,0.375,89,146.0
10726,E3,884.0,0.5,127,146.0
10727,E3,884.0,0.5,127,146.0
10728,F#2,884.0,0.5,95,146.0
10729,C2,884.0,0.5,95,146.0
10730,B2,884.5,0.5,111,146.0
10731,B2,884.5,0.5,111,146.0
10732,C2,884.5,0.5,95,146.0
10733,B-2,885.0,0.5,111,146.0
10734,B-2,885.0,0.5,111,146.0
10735,F#2,885.0,1.0,95,146.0
10736,E2,885.0,1.0,95,146.0
10737,G#2,885.5,0.5,111,146.0
10738,G#2,885.5,0.5,111,146.0
10739,E2,886.0,0.375,89,146.0
10740,E2,886.0,0.375,89,146.0
10741,F#2,886.0,0.5,95,146.0
10742,C2,886.0,0.5,95,146.0
10743,E2,886.5,0.375,89,146.0
10744,E2,886.5,0.375,89,146.0
10745,C2,886.5,0.5,95,146.0
10746,E4,887.0,0.5,111,146.0
10747,B3,887.0,0.5,111,146.0
10748,E3,887.0,0.5,111,146.0
10749,E4,887.0,0.5,111,146.0
10750,B3,887.0,0.5,111,146.0
10751,E3,887.0,0.5,111,146.0
10752,F#2,887.0,1.0,95,146.0
10753,E2,887.0,1.0,95,146.0
10754,E4,887.5,0.5,111,146.0
10755,B3,887.5,0.5,111,146.0
10756,E3,887.5,0.5,111,146.0
10757,E4,887.5,0.5,111,146.0
10758,B3,887.5,0.5,111,146.0
10759,E3,887.5,0.5,111,146.0
10760,E4,888.0,0.5,111,146.0
10761,B3,888.0,0.5,111,146.0
10762,E3,888.0,0.5,111,146.0
10763,E4,888.0,0.5,111,146.0
10764,B3,888.0,0.5,111,146.0
10765,E3,888.0,0.5,111,146.0
10766,F#2,888.0,0.5,95,146.0
10767,C2,888.0,0.5,95,146.0
10768,C2,888.5,0.5,95,146.0
10769,E4,888.5,0.5,111,146.0
10770,B-3,888.5,0.5,111,146.0
10771,E3,888.5,0.5,111,146.0
10772,E4,888.5,0.5,111,146.0
10773,B-3,888.5,0.5,111,146.0
10774,E3,888.5,0.5,111,146.0
10775,E2,889.0,0.375,89,146.0
10776,E2,889.0,0.375,89,146.0
10777,B-2,889.0,1.0,95,146.0
10778,E2,889.0,1.0,95,146.0
10779,E2,889.5,0.375,89,146.0
10780,E2,889.5,0.375,89,146.0
10781,E4,890.0,0.5,111,146.0
10782,B3,890.0,0.5,111,146.0
10783,E3,890.0,0.5,111,146.0
10784,E4,890.0,0.5,111,146.0
10785,B3,890.0,0.5,111,146.0
10786,E3,890.0,0.5,111,146.0
10787,F#2,890.0,0.5,95,146.0
10788,C2,890.0,0.5,95,146.0
10789,C2,890.5,0.5,95,146.0
10790,E4,890.5,0.5,111,146.0
10791,B3,890.5,0.5,111,146.0
10792,E3,890.5,0.5,111,146.0
10793,E4,890.5,0.5,111,146.0
10794,B3,890.5,0.5,111,146.0
10795,E3,890.5,0.5,111,146.0
10796,E4,891.0,0.5,111,146.0
10797,B3,891.0,0.5,111,146.0
10798,E3,891.0,0.5,111,146.0
10799,E4,891.0,0.5,111,146.0
10800,B3,891.0,0.5,111,146.0
10801,E3,891.0,0.5,111,146.0
10802,F#2,891.0,1.0,95,146.0
10803,E2,891.0,1.0,95,146.0
10804,E4,891.5,0.5,111,146.0
10805,B-3,891.5,0.5,111,146.0
10806,E3,891.5,0.5,111,146.0
10807,E4,891.5,0.5,111,146.0
10808,B-3,891.5,0.5,111,146.0
10809,E3,891.5,0.5,111,146.0
10810,E2,892.0,0.375,89,146.0
10811,E2,892.0,0.375,89,146.0
10812,F#2,892.0,0.5,95,146.0
10813,C2,892.0,0.5,95,146.0
10814,E2,892.5,0.375,89,146.0
10815,E2,892.5,0.375,89,146.0
10816,C2,892.5,0.5,95,146.0
10817,B2,893.0,0.25,111,146.0
10818,B2,893.0,0.25,111,146.0
10819,B-2,893.0,1.0,95,146.0
10820,E2,893.0,1.0,95,146.0
10821,E3,893.25,0.25,111,146.0
10822,E3,893.25,0.25,111,146.0
10823,G#4,893.5,0.5,111,146.0
10824,G#4,893.5,0.5,111,146.0
10825,E3,894.0,0.5,111,146.0
10826,E3,894.0,0.5,111,146.0
10827,F#2,894.0,0.5,95,146.0
10828,C2,894.0,0.5,95,146.0
10829,E2,894.5,0.375,89,146.0
10830,E2,894.5,0.375,89,146.0
10831,C2,894.5,0.5,95,146.0
10832,E4,895.0,0.5,111,146.0
10833,B3,895.0,0.5,111,146.0
10834,E3,895.0,0.5,111,146.0
10835,E4,895.0,0.5,111,146.0
10836,B3,895.0,0.5,111,146.0
10837,E3,895.0,0.5,111,146.0
10838,F#2,895.0,1.0,95,146.0
10839,E2,895.0,1.0,95,146.0
10840,E4,895.5,0.5,111,146.0
10841,B3,895.5,0.5,111,146.0
10842,E3,895.5,0.5,111,146.0
10843,E4,895.5,0.5,111,146.0
10844,B3,895.5,0.5,111,146.0
10845,E3,895.5,0.5,111,146.0
10846,E4,896.0,0.5,111,146.0
10847,B3,896.0,0.5,111,146.0
10848,E3,896.0,0.5,111,146.0
10849,E4,896.0,0.5,111,146.0
10850,B3,896.0,0.5,111,146.0
10851,E3,896.0,0.5,111,146.0
10852,F#2,896.0,0.5,95,146.0
10853,C2,896.0,0.5,95,146.0
10854,C2,896.5,0.5,95,146.0
10855,E4,896.5,0.5,111,146.0
10856,B-3,896.5,0.5,111,146.0
10857,E3,896.5,0.5,111,146.0
10858,E4,896.5,0.5,111,146.0
10859,B-3,896.5,0.5,111,146.0
10860,E3,896.5,0.5,111,146.0
10861,E2,897.0,0.375,89,146.0
10862,E2,897.0,0.375,89,146.0
10863,F#2,897.0,1.0,95,146.0
10864,E2,897.0,1.0,95,146.0
10865,E4,897.5,0.5,111,146.0
10866,B3,897.5,0.5,111,146.0
10867,E3,897.5,0.5,111,146.0
10868,E4,897.5,0.5,111,146.0
10869,B3,897.5,0.5,111,146.0
10870,E3,897.5,0.5,111,146.0
10871,E4,898.0,0.5,111,146.0
10872,B3,898.0,0.5,111,146.0
10873,E3,898.0,0.5,111,146.0
10874,E4,898.0,0.5,111,146.0
10875,B3,898.0,0.5,111,146.0
10876,E3,898.0,0.5,111,146.0
10877,F#2,898.0,0.5,95,146.0
10878,C2,898.0,0.5,95,146.0
10879,E2,898.5,0.188,89,146.0
10880,E2,898.5,0.188,89,146.0
10881,C2,898.5,0.5,95,146.0
10882,E2,898.75,0.188,89,146.0
10883,E2,898.75,0.188,89,146.0
10884,B-2,899.0,0.375,89,146.0
10885,B-2,899.0,0.375,89,146.0
10886,F#2,899.0,1.0,95,146.0
10887,E2,899.0,1.0,95,146.0
10888,B2,899.5,0.375,89,146.0
10889,B2,899.5,0.375,89,146.0
10890,E3,900.0,0.5,127,146.0
10891,E3,900.0,0.5,127,146.0
10892,F#2,900.0,0.5,95,146.0
10893,C2,900.0,0.5,95,146.0
10894,B2,900.5,0.5,111,146.0
10895,B2,900.5,0.5,111,146.0
10896,C2,900.5,0.5,95,146.0
10897,B-2,901.0,0.5,111,146.0
10898,B-2,901.0,0.5,111,146.0
10899,F#2,901.0,1.0,95,146.0
10900,E2,901.0,1.0,95,146.0
10901,G#2,901.5,0.5,111,146.0
10902,G#2,901.5,0.5,111,146.0
10903,E2,902.0,0.375,89,146.0
10904,E2,902.0,0.375,89,146.0
10905,F#2,902.0,0.5,95,146.0
10906,C2,902.0,0.5,95,146.0
10907,E2,902.5,0.375,89,146.0
10908,E2,902.5,0.375,89,146.0
10909,C2,902.5,0.5,95,146.0
10910,E4,903.0,0.5,111,146.0
10911,B3,903.0,0.5,111,146.0
10912,E3,903.0,0.5,111,146.0
10913,E4,903.0,0.5,111,146.0
10914,B3,903.0,0.5,111,146.0
10915,E3,903.0,0.5,111,146.0
10916,F#2,903.0,1.0,95,146.0
10917,E2,903.0,1.0,95,146.0
10918,E4,903.5,0.5,111,146.0
10919,B3,903.5,0.5,111,146.0
10920,E3,903.5,0.5,111,146.0
10921,E4,903.5,0.5,111,146.0
10922,B3,903.5,0.5,111,146.0
10923,E3,903.5,0.5,111,146.0
10924,E4,904.0,0.5,111,146.0
10925,B3,904.0,0.5,111,146.0
10926,E3,904.0,0.5,111,146.0
10927,E4,904.0,0.5,111,146.0
10928,B3,904.0,0.5,111,146.0
10929,E3,904.0,0.5,111,146.0
10930,F#2,904.0,0.5,95,146.0
10931,C2,904.0,0.5,95,146.0
10932,C2,904.5,0.5,95,146.0
10933,E4,904.5,0.5,111,146.0
10934,B-3,904.5,0.5,111,146.0
10935,E3,904.5,0.5,111,146.0
10936,E4,904.5,0.5,111,146.0
10937,B-3,904.5,0.5,111,146.0
10938,E3,904.5,0.5,111,146.0
10939,E2,905.0,0.375,89,146.0
10940,E2,905.0,0.375,89,146.0
10941,B-2,905.0,1.0,95,146.0
10942,E2,905.0,1.0,95,146.0
10943,E2,905.5,0.375,89,146.0
10944,E2,905.5,0.375,89,146.0
10945,E4,906.0,0.5,111,146.0
10946,B3,906.0,0.5,111,146.0
10947,E3,906.0,0.5,111,146.0
10948,E4,906.0,0.5,111,146.0
10949,B3,906.0,0.5,111,146.0
10950,E3,906.0,0.5,111,146.0
10951,F#2,906.0,0.5,95,146.0
10952,C2,906.0,0.5,95,146.0
10953,C2,906.5,0.5,95,146.0
10954,E4,906.5,0.5,111,146.0
10955,B3,906.5,0.5,111,146.0
10956,E3,906.5,0.5,111,146.0
10957,E4,906.5,0.5,111,146.0
10958,B3,906.5,0.5,111,146.0
10959,E3,906.5,0.5,111,146.0
10960,E4,907.0,0.5,111,146.0
10961,B3,907.0,0.5,111,146.0
10962,E3,907.0,0.5,111,146.0
10963,E4,907.0,0.5,111,146.0
10964,B3,907.0,0.5,111,146.0
10965,E3,907.0,0.5,111,146.0
10966,F#2,907.0,1.0,95,146.0
10967,E2,907.0,1.0,95,146.0
10968,E4,907.5,0.5,111,146.0
10969,B-3,907.5,0.5,111,146.0
10970,E3,907.5,0.5,111,146.0
10971,E4,907.5,0.5,111,146.0
10972,B-3,907.5,0.5,111,146.0
10973,E3,907.5,0.5,111,146.0
10974,E2,908.0,0.375,89,146.0
10975,E2,908.0,0.375,89,146.0
10976,F#2,908.0,0.5,95,146.0
10977,C2,908.0,0.5,95,146.0
10978,E2,908.5,0.375,89,146.0
10979,E2,908.5,0.375,89,146.0
10980,C2,908.5,0.5,95,146.0
10981,B2,909.0,0.25,111,146.0
10982,B2,909.0,0.25,111,146.0
10983,B-2,909.0,1.0,95,146.0
10984,E2,909.0,1.0,95,146.0
10985,E3,909.25,0.25,111,146.0
10986,E3,909.25,0.25,111,146.0
10987,G#4,909.5,0.5,111,146.0
10988,G#4,909.5,0.5,111,146.0
10989,E3,910.0,0.5,111,146.0
10990,E3,910.0,0.5,111,146.0
10991,F#2,910.0,0.5,95,146.0
10992,C2,910.0,0.5,95,146.0
10993,E2,910.5,0.375,89,146.0
10994,E2,910.5,0.375,89,146.0
10995,C2,910.5,0.5,95,146.0
10996,E4,911.0,0.5,111,146.0
10997,B3,911.0,0.5,111,146.0
10998,E3,911.0,0.5,111,146.0
10999,E4,911.0,0.5,111,146.0
11000,B3,911.0,0.5,111,146.0
11001,E3,911.0,0.5,111,146.0
11002,F#2,911.0,1.0,95,146.0
11003,E2,911.0,1.0,95,146.0
11004,E4,911.5,0.5,111,146.0
11005,B3,911.5,0.5,111,146.0
11006,E3,911.5,0.5,111,146.0
11007,E4,911.5,0.5,111,146.0
11008,B3,911.5,0.5,111,146.0
11009,E3,911.5,0.5,111,146.0
11010,E4,912.0,0.5,111,146.0
11011,B3,912.0,0.5,111,146.0
11012,E3,912.0,0.5,111,146.0
11013,E4,912.0,0.5,111,146.0
11014,B3,912.0,0.5,111,146.0
11015,E3,912.0,0.5,111,146.0
11016,F#2,912.0,0.5,95,146.0
11017,C2,912.0,0.5,95,146.0
11018,C2,912.5,0.5,95,146.0
11019,E4,912.5,0.5,111,146.0
11020,B-3,912.5,0.5,111,146.0
11021,E3,912.5,0.5,111,146.0
11022,E4,912.5,0.5,111,146.0
11023,B-3,912.5,0.5,111,146.0
11024,E3,912.5,0.5,111,146.0
11025,E2,913.0,0.375,89,146.0
11026,E2,913.0,0.375,89,146.0
11027,F#2,913.0,1.0,95,146.0
11028,E2,913.0,1.0,95,146.0
11029,E4,913.5,0.5,111,146.0
11030,B3,913.5,0.5,111,146.0
11031,E3,913.5,0.5,111,146.0
11032,E4,913.5,0.5,111,146.0
11033,B3,913.5,0.5,111,146.0
11034,E3,913.5,0.5,111,146.0
11035,E4,914.0,0.5,111,146.0
11036,B3,914.0,0.5,111,146.0
11037,E3,914.0,0.5,111,146.0
11038,E4,914.0,0.5,111,146.0
11039,B3,914.0,0.5,111,146.0
11040,E3,914.0,0.5,111,146.0
11041,F#2,914.0,0.5,95,146.0
11042,C2,914.0,0.5,95,146.0
11043,E2,914.5,0.188,89,146.0
11044,E2,914.5,0.188,89,146.0
11045,C2,914.5,0.5,95,146.0
11046,E2,914.75,0.188,89,146.0
11047,E2,914.75,0.188,89,146.0
11048,B-2,915.0,0.375,89,146.0
11049,B-2,915.0,0.375,89,146.0
11050,F#2,915.0,1.0,95,146.0
11051,E2,915.0,1.0,95,146.0
11052,B2,915.5,0.375,89,146.0
11053,B2,915.5,0.375,89,146.0
11054,E3,916.0,0.5,127,146.0
11055,E3,916.0,0.5,127,146.0
11056,F#2,916.0,0.5,95,146.0
11057,C2,916.0,0.5,95,146.0
11058,B2,916.5,0.5,111,146.0
11059,B2,916.5,0.5,111,146.0
11060,C2,916.5,0.5,95,146.0
11061,B-2,917.0,0.5,111,146.0
11062,B-2,917.0,0.5,111,146.0
11063,F#2,917.0,1.0,95,146.0
11064,E2,917.0,1.0,95,146.0
11065,G#2,917.5,0.5,111,146.0
11066,G#2,917.5,0.5,111,146.0
11067,E4,1474.958,1.0,111,146.0
11068,B-4,1474.958,4.0,111,146.0
11069,E-4,1475.958,167/1000,111,146.0
11070,C#4,1476.125,167/1000,89,146.0
11071,B3,1476.292,333/1000,89,146.0
11072,B3,1476.625,167/1000,89,146.0
11073,C#4,1476.792,167/1000,89,146.0
11074,E-4,1476.958,1.0,89,146.0
11075,C#4,1477.958,0.25,111,146.0
11076,B3,1478.208,0.5,111,146.0
11077,F#3,1478.708,0.25,111,146.0
11078,B-4,1478.958,7.0,111,146.0
11079,F#3,1478.958,1.5,111,146.0
11080,B3,1480.458,0.5,111,146.0
11081,B3,1480.958,0.5,111,146.0
11082,B-3,1481.458,0.5,89,146.0
11083,B-3,1481.958,0.5,111,146.0
11084,F#4,1482.294,83/125,111,146.0
11085,E4,1485.958,1.5,111,146.0
11086,B4,1487.294,83/125,111,146.0
11087,B4,1487.958,0.5,111,146.0
11088,B-4,1488.458,1.0,89,146.0
11089,B-4,1488.958,1.0,111,146.0
11090,F#5,1489.458,0.5,111,146.0
11091,G#5,1489.958,1.0,111,146.0
11092,B-4,1489.958,4.0,111,146.0
11093,F#5,1491.458,0.25,111,146.0
11094,G#5,1491.708,0.25,111,146.0
11095,B-5,1491.958,1.0,111,146.0
11096,G#5,1493.458,0.25,111,146.0
11097,B-5,1493.708,0.25,111,146.0
11098,B5,1493.958,333/1000,111,146.0
11099,B-4,1493.958,4.0,111,146.0
11100,B-5,1494.292,333/1000,111,146.0
11101,B5,1494.625,333/1000,111,146.0
11102,C#6,1494.958,333/1000,111,146.0
11103,B5,1495.292,333/1000,111,146.0
11104,C#6,1495.625,333/1000,111,146.0
11105,C#6,1495.958,1.5,111,146.0
11106,B5,1497.458,0.25,111,146.0
11107,B-5,1497.708,0.25,111,146.0
11108,B-4,1497.958,4.0,111,146.0
11109,B-5,1497.958,1.0,111,146.0
11110,G#5,1498.958,333/1000,111,146.0
11111,F#5,1499.292,333/1000,111,146.0
11112,E5,1499.625,333/1000,111,146.0
11113,E-5,1499.958,333/1000,111,146.0
11114,E5,1500.292,333/1000,111,146.0
11115,F#5,1500.625,333/1000,111,146.0
11116,C#5,1500.958,1.0,111,146.0
11117,B4,1501.958,333/1000,111,146.0
11118,B-4,1501.958,667/1000,111,146.0
11119,B-4,1502.292,3667/1000,111,146.0
11120,G#4,1502.625,333/1000,111,146.0
11121,E4,1502.958,333/1000,111,146.0
11122,C#4,1503.292,333/1000,111,146.0
11123,B3,1503.625,333/1000,111,146.0
11124,B-3,1503.958,333/1000,111,146.0
11125,F#3,1504.292,333/1000,111,146.0
11126,G#4,1504.625,333/1000,111,146.0
11127,E4,1504.958,333/1000,111,146.0
11128,E-4,1505.292,333/1000,111,146.0
11129,E4,1505.625,333/1000,111,146.0
11130,G#4,1505.958,333/1000,111,146.0
11131,B-4,1505.958,1.0,111,146.0
11132,B4,1506.292,333/1000,111,146.0
11133,B-4,1506.625,3333/1000,111,146.0
11134,C#5,1506.958,333/1000,111,146.0
11135,E5,1507.292,333/1000,111,146.0
11136,E-5,1507.625,333/1000,111,146.0
11137,C#5,1507.958,1.0,111,146.0
11138,B4,1508.958,0.25,111,146.0
11139,E-5,1509.208,0.25,111,146.0
11140,B4,1509.458,0.25,111,146.0
11141,E4,1509.708,0.25,111,146.0
11142,E-4,1509.958,0.25,111,146.0
11143,B-4,1509.958,1.0,111,146.0
11144,E4,1510.208,0.25,111,146.0
11145,F#4,1510.458,0.25,111,146.0
11146,B-4,1510.708,3.25,111,146.0
11147,F#4,1510.958,0.25,111,146.0
11148,B3,1511.208,0.25,111,146.0
11149,B-3,1511.458,0.25,111,146.0
11150,B3,1511.708,0.25,111,146.0
11151,E-4,1511.958,0.25,111,146.0
11152,F#4,1512.208,0.25,89,146.0
11153,E-4,1512.458,0.25,89,146.0
11154,B3,1512.708,0.25,111,146.0
11155,B-3,1512.958,0.5,111,146.0
11156,E3,1513.458,0.25,111,146.0
11157,G#3,1513.708,0.25,111,146.0
11158,B3,1513.958,0.25,111,146.0
11159,B-4,1513.958,3.0,111,146.0
11160,B-3,1514.208,0.25,89,146.0
11161,B3,1514.458,0.5,89,146.0
11162,E-4,1514.958,0.25,111,146.0
11163,F#4,1515.208,0.25,89,146.0
11164,E4,1515.458,0.25,89,146.0
11165,E-4,1515.708,0.25,89,146.0
11166,E4,1515.958,0.5,111,146.0
11167,G#4,1516.458,0.25,89,146.0
11168,B-4,1516.708,1.25,111,146.0
11169,B4,1516.958,0.25,111,146.0
11170,C#5,1517.208,0.25,111,146.0
11171,E-5,1517.458,0.25,111,146.0
11172,E5,1517.708,0.25,111,146.0
11173,F#5,1517.958,0.144,111,146.0
11174,B-4,1517.958,107/125,111,146.0
11175,E5,1518.102,0.142,89,146.0
11176,E-5,1518.243,0.144,89,146.0
11177,C#5,1518.387,0.142,111,146.0
11178,B4,1518.529,0.144,89,146.0
11179,B-4,1518.673,657/200,89,146.0
11180,C#5,1518.814,0.144,89,146.0
11181,E-5,1518.958,0.125,111,146.0
11182,E5,1519.083,0.125,89,146.0
11183,E5,1519.208,0.125,111,146.0
11184,F#5,1519.333,0.125,89,146.0
11185,E5,1519.458,0.125,89,146.0
11186,E-5,1519.583,0.125,89,146.0
11187,E5,1519.708,0.125,111,146.0
11188,F#5,1519.833,0.125,89,146.0
11189,G#5,1519.958,167/1000,111,146.0
11190,F#5,1520.125,167/1000,111,146.0
11191,E5,1520.292,167/1000,89,146.0
11192,E-5,1520.458,0.125,89,146.0
11193,C#5,1520.583,0.125,111,146.0
11194,B4,1520.708,0.125,89,146.0
11195,E-5,1520.833,0.125,111,146.0
11196,E5,1520.958,0.25,111,146.0
11197,F#5,1521.208,0.25,111,146.0
11198,G#5,1521.458,0.125,111,146.0
11199,F#5,1521.583,0.375,89,146.0
11200,G#5,1521.958,0.125,111,146.0
11201,B-4,1521.958,4.0,89,146.0
11202,B-5,1522.083,0.125,89,146.0
11203,G#5,1522.208,0.125,89,146.0
11204,F#5,1522.333,0.125,89,146.0
11205,E5,1522.458,0.125,111,146.0
11206,E-5,1522.583,0.125,89,146.0
11207,C#5,1522.708,0.125,89,146.0
11208,E5,1522.833,0.125,89,146.0
11209,F#5,1522.958,0.125,111,146.0
11210,G#5,1523.083,0.125,89,146.0
11211,B-5,1523.208,0.125,89,146.0
11212,G#5,1523.333,0.125,89,146.0
11213,F#5,1523.458,0.125,89,146.0
11214,G#5,1523.583,0.125,89,146.0
11215,B-5,1523.708,0.125,89,146.0
11216,B5,1523.833,0.125,89,146.0
11217,B-5,1523.958,0.25,89,146.0
11218,G#5,1524.208,0.25,89,146.0
11219,F#5,1524.458,0.125,111,146.0
11220,E5,1524.583,0.125,89,146.0
11221,E-5,1524.708,0.25,89,146.0
11222,C#5,1524.958,0.125,111,146.0
11223,E-5,1525.083,0.125,89,146.0
11224,B4,1525.208,0.125,111,146.0
11225,C#5,1525.333,0.125,89,146.0
11226,B4,1525.458,0.125,89,146.0
11227,G#4,1525.583,0.125,111,146.0
11228,F#4,1525.708,0.125,89,146.0
11229,G#4,1525.833,0.125,89,146.0
11230,G#4,1525.958,83/1000,111,146.0
11231,B-4,1525.958,3.5,89,146.0
11232,F#4,1526.042,83/1000,89,146.0
11233,E4,1526.125,167/1000,89,146.0
11234,C#4,1526.292,83/1000,111,146.0
11235,B3,1526.375,83/1000,89,146.0
11236,B-3,1526.458,0.25,111,146.0
11237,F#3,1526.708,0.25,111,146.0
11238,E-4,1526.958,167/1000,111,146.0
11239,C#4,1527.125,167/1000,89,146.0
11240,B3,1527.292,167/1000,89,146.0
11241,G#4,1527.458,167/1000,111,146.0
11242,F#4,1527.625,167/1000,89,146.0
11243,E4,1527.792,417/1000,89,146.0
11244,B3,1528.208,0.25,111,146.0
11245,F#4,1528.458,0.125,111,146.0
11246,G#4,1528.583,0.125,89,146.0
11247,F#4,1528.708,0.125,89,146.0
11248,E4,1528.833,0.125,89,146.0
11249,C#5,1528.958,167/1000,111,146.0
11250,B4,1529.125,167/1000,89,146.0
11251,B-4,1529.292,667/1000,89,146.0
11252,G#4,1529.458,167/1000,111,146.0
11253,F4,1529.625,167/1000,89,146.0
11254,E4,1529.792,167/1000,89,146.0
11255,C#5,1529.958,167/1000,111,146.0
11256,B-4,1529.958,0.5,89,146.0
11257,B4,1530.125,167/1000,89,146.0
11258,B-4,1530.292,1167/1000,89,146.0
11259,F#5,1530.458,167/1000,111,146.0
11260,E5,1530.625,167/1000,89,146.0
11261,E-5,1530.792,167/1000,89,146.0
11262,C#5,1530.958,167/1000,111,146.0
11263,B4,1531.125,167/1000,89,146.0
11264,B-4,1531.292,2667/1000,89,146.0
11265,F#5,1531.458,167/1000,111,146.0
11266,E5,1531.625,167/1000,89,146.0
11267,E-5,1531.792,167/1000,89,146.0
11268,B5,1531.958,167/1000,111,146.0
11269,B-5,1532.125,167/1000,89,146.0
11270,G#5,1532.292,167/1000,89,146.0
11271,C#6,1532.458,1.5,111,146.0
11272,F#5,1533.794,33/200,111,146.0
11273,B-4,1533.958,4.0,89,146.0
11274,F#5,1533.958,1/4,111,146.0
11275,C#6,1534.208,0.25,111,146.0
11276,F#5,1534.458,0.5,111,146.0
11277,B5,1534.958,0.25,111,146.0
11278,E5,1535.208,0.5,111,146.0
11279,B-5,1535.708,0.25,111,146.0
11280,E-5,1535.958,0.5,111,146.0
11281,G#5,1536.458,0.25,111,146.0
11282,C#5,1536.708,0.5,111,146.0
11283,F#5,1537.208,0.25,111,146.0
11284,B4,1537.458,0.5,111,146.0
11285,E5,1537.958,0.25,111,146.0
11286,B-4,1537.958,0.75,89,146.0
11287,B-4,1538.208,3.75,111,146.0
11288,E-5,1538.708,0.25,111,146.0
11289,G#4,1538.958,0.5,111,146.0
11290,C#5,1539.458,0.25,111,146.0
11291,F#4,1539.708,0.5,111,146.0
11292,B4,1540.208,0.25,111,146.0
11293,E4,1540.458,0.25,111,146.0
11294,B3,1540.708,0.25,89,146.0
11295,E-4,1540.958,0.25,89,146.0
11296,B3,1541.208,0.25,89,146.0
11297,E4,1541.458,0.25,89,146.0
11298,B3,1541.708,0.25,89,146.0
11299,F#4,1541.958,0.25,89,146.0
11300,B-4,1541.958,4.0,111,146.0
11301,B3,1542.208,0.25,89,146.0
11302,E4,1542.458,0.25,89,146.0
11303,B3,1542.708,0.25,89,146.0
11304,E-4,1542.958,0.25,89,146.0
11305,B3,1543.208,0.25,89,146.0
11306,C#4,1543.458,0.25,89,146.0
11307,B3,1543.708,0.25,89,146.0
11308,C#4,1543.958,167/1000,111,146.0
11309,B3,1544.125,167/1000,89,146.0
11310,B-3,1544.292,167/1000,89,146.0
11311,G#3,1544.458,167/1000,111,146.0
11312,F#3,1544.625,167/1000,89,146.0
11313,E3,1544.792,167/1000,89,146.0
11314,E-3,1544.958,167/1000,111,146.0
11315,C#3,1545.125,167/1000,89,146.0
11316,B2,1545.292,167/1000,89,146.0
11317,B-2,1545.458,167/1000,111,146.0
11318,G#2,1545.625,167/1000,89,146.0
11319,F#2,1545.792,167/1000,89,146.0
11320,E2,1545.958,0.375,89,146.0
11321,B-4,1545.958,3.0,111,146.0
11322,E2,1546.458,0.375,89,146.0
11323,E5,1546.958,0.5,111,146.0
11324,B4,1546.958,0.5,111,146.0
11325,E4,1546.958,0.5,111,146.0
11326,E5,1547.458,0.5,111,146.0
11327,B4,1547.458,0.5,111,146.0
11328,E4,1547.458,0.5,111,146.0
11329,E5,1547.958,0.5,111,146.0
11330,B4,1547.958,0.5,111,146.0
11331,E4,1547.958,0.5,111,146.0
11332,B-4,1548.458,1.5,111,146.0
11333,E5,1548.458,0.5,111,146.0
11334,E4,1548.458,0.5,111,146.0
11335,B3,1548.958,0.375,89,146.0
11336,B3,1549.458,0.375,89,146.0
11337,B-4,1549.958,1.875,111,146.0
11338,E5,1549.958,0.5,111,146.0
11339,B4,1549.958,0.5,111,146.0
11340,E4,1549.958,0.5,111,146.0
11341,E5,1550.458,0.5,111,146.0
11342,B4,1550.458,0.5,111,146.0
11343,E4,1550.458,0.5,111,146.0
11344,E5,1550.958,0.5,111,146.0
11345,B4,1550.958,0.5,111,146.0
11346,E4,1550.958,0.5,111,146.0
11347,B-4,1551.458,2.5,89,146.0
11348,E5,1551.458,0.375,89,146.0
11349,E4,1551.458,0.375,89,146.0
11350,B3,1551.958,0.375,89,146.0
11351,B3,1552.458,0.375,89,146.0
11352,B3,1552.958,0.375,89,146.0
11353,B3,1553.458,0.375,89,146.0
11354,B-4,1553.958,3.0,89,146.0
11355,B4,1553.958,0.5,111,146.0
11356,E4,1553.958,0.5,111,146.0
11357,B3,1554.458,0.375,89,146.0
11358,E5,1554.958,0.5,111,146.0
11359,B4,1554.958,0.5,111,146.0
11360,E4,1554.958,0.5,111,146.0
11361,E5,1555.458,0.5,111,146.0
11362,B4,1555.458,0.5,111,146.0
11363,E4,1555.458,0.5,111,146.0
11364,E5,1555.958,0.5,111,146.0
11365,B4,1555.958,0.5,111,146.0
11366,E4,1555.958,0.5,111,146.0
11367,B-4,1556.458,1.5,111,146.0
11368,E5,1556.458,0.5,111,146.0
11369,E4,1556.458,0.5,111,146.0
11370,B3,1556.958,0.375,89,146.0
11371,E5,1557.458,0.5,111,146.0
11372,B4,1557.458,0.5,111,146.0
11373,E4,1557.458,0.5,111,146.0
11374,B-4,1557.958,1.5,111,146.0
11375,E5,1557.958,0.5,111,146.0
11376,B4,1557.958,0.5,111,146.0
11377,E4,1557.958,0.5,111,146.0
11378,B3,1558.458,0.5,111,146.0
11379,B-4,1558.958,2.5,111,146.0
11380,B4,1559.458,0.25,111,146.0
11381,E5,1559.794,207/500,111,146.0
11382,B4,1560.294,83/125,111,146.0
11383,B-4,1560.958,1.0,111,146.0
11384,G#4,1561.458,0.5,111,146.0
11385,E2,1561.958,0.375,89,146.0
11386,B-4,1561.958,3.0,111,146.0
11387,E2,1562.458,0.375,89,146.0
11388,E5,1562.958,0.5,111,146.0
11389,B4,1562.958,0.5,111,146.0
11390,E4,1562.958,0.5,111,146.0
11391,E5,1563.458,0.5,111,146.0
11392,B4,1563.458,0.5,111,146.0
11393,E4,1563.458,0.5,111,146.0
11394,E5,1563.958,0.5,111,146.0
11395,B4,1563.958,0.5,111,146.0
11396,E4,1563.958,0.5,111,146.0
11397,B-4,1564.458,1.5,111,146.0
11398,E5,1564.458,0.5,111,146.0
11399,E4,1564.458,0.5,111,146.0
11400,B3,1564.958,0.375,89,146.0
11401,B3,1565.458,0.375,89,146.0
11402,B-4,1565.958,1.875,111,146.0
11403,E5,1565.958,0.5,111,146.0
11404,B4,1565.958,0.5,111,146.0
11405,E4,1565.958,0.5,111,146.0
11406,E5,1566.458,0.5,111,146.0
11407,B4,1566.458,0.5,111,146.0
11408,E4,1566.458,0.5,111,146.0
11409,E5,1566.958,0.5,111,146.0
11410,B4,1566.958,0.5,111,146.0
11411,E4,1566.958,0.5,111,146.0
11412,B-4,1567.458,2.5,89,146.0
11413,E5,1567.458,0.375,89,146.0
11414,E4,1567.458,0.375,89,146.0
11415,B3,1567.958,0.375,89,146.0
11416,B3,1568.458,0.375,89,146.0
11417,B3,1568.958,0.375,89,146.0
11418,B3,1569.458,0.375,89,146.0
11419,B-4,1569.958,3.0,89,146.0
11420,B4,1569.958,0.5,111,146.0
11421,E4,1569.958,0.5,111,146.0
11422,B3,1570.458,0.375,89,146.0
11423,E5,1570.958,0.5,111,146.0
11424,B4,1570.958,0.5,111,146.0
11425,E4,1570.958,0.5,111,146.0
11426,E5,1571.458,0.5,111,146.0
11427,B4,1571.458,0.5,111,146.0
11428,E4,1571.458,0.5,111,146.0
11429,E5,1571.958,0.5,111,146.0
11430,B4,1571.958,0.5,111,146.0
11431,E4,1571.958,0.5,111,146.0
11432,B-4,1572.458,1.5,111,146.0
11433,E5,1572.458,0.5,111,146.0
11434,E4,1572.458,0.5,111,146.0
11435,B3,1572.958,0.375,89,146.0
11436,E5,1573.458,0.5,111,146.0
11437,B4,1573.458,0.5,111,146.0
11438,E4,1573.458,0.5,111,146.0
11439,B-4,1573.958,1.5,111,146.0
11440,E5,1573.958,0.5,111,146.0
11441,B4,1573.958,0.5,111,146.0
11442,E4,1573.958,0.5,111,146.0
11443,B3,1574.458,0.5,111,146.0
11444,B-4,1574.958,2.5,111,146.0
11445,B4,1575.458,0.25,111,146.0
11446,E5,1575.794,207/500,111,146.0
11447,B4,1576.294,83/125,111,146.0
11448,B-4,1576.958,1.0,111,146.0
11449,G#4,1577.458,0.5,111,146.0
11450,E2,1577.958,0.375,89,146.0
11451,B-4,1577.958,3.0,111,146.0
11452,E2,1578.458,0.375,89,146.0
11453,E5,1578.958,0.5,111,146.0
11454,B4,1578.958,0.5,111,146.0
11455,E4,1578.958,0.5,111,146.0
11456,E5,1579.458,0.5,111,146.0
11457,B4,1579.458,0.5,111,146.0
11458,E4,1579.458,0.5,111,146.0
11459,E5,1579.958,0.5,111,146.0
11460,B4,1579.958,0.5,111,146.0
11461,E4,1579.958,0.5,111,146.0
11462,B-4,1580.458,1.5,111,146.0
11463,E5,1580.458,0.5,111,146.0
11464,E4,1580.458,0.5,111,146.0
11465,B3,1580.958,0.375,89,146.0
11466,B3,1581.458,0.375,89,146.0
11467,B-4,1581.958,1.875,111,146.0
11468,E5,1581.958,0.5,111,146.0
11469,B4,1581.958,0.5,111,146.0
11470,E4,1581.958,0.5,111,146.0
11471,E5,1582.458,0.5,111,146.0
11472,B4,1582.458,0.5,111,146.0
11473,E4,1582.458,0.5,111,146.0
11474,E5,1582.958,0.5,111,146.0
11475,B4,1582.958,0.5,111,146.0
11476,E4,1582.958,0.5,111,146.0
11477,B-4,1583.458,2.5,89,146.0
11478,E5,1583.458,0.375,89,146.0
11479,E4,1583.458,0.375,89,146.0
11480,B3,1583.958,0.375,89,146.0
11481,B3,1584.458,0.375,89,146.0
11482,B3,1584.958,0.375,89,146.0
11483,B3,1585.458,0.375,89,146.0
11484,B-4,1585.958,3.0,89,146.0
11485,B4,1585.958,0.5,111,146.0
11486,E4,1585.958,0.5,111,146.0
11487,B3,1586.458,0.375,89,146.0
11488,E5,1586.958,0.5,111,146.0
11489,B4,1586.958,0.5,111,146.0
11490,E4,1586.958,0.5,111,146.0
11491,E5,1587.458,0.5,111,146.0
11492,B4,1587.458,0.5,111,146.0
11493,E4,1587.458,0.5,111,146.0
11494,E5,1587.958,0.5,111,146.0
11495,B4,1587.958,0.5,111,146.0
11496,E4,1587.958,0.5,111,146.0
11497,B-4,1588.458,1.5,111,146.0
11498,E5,1588.458,0.5,111,146.0
11499,E4,1588.458,0.5,111,146.0
11500,B3,1588.958,0.375,89,146.0
11501,E5,1589.458,0.5,111,146.0
11502,B4,1589.458,0.5,111,146.0
11503,E4,1589.458,0.5,111,146.0
11504,B-4,1589.958,1.5,111,146.0
11505,E5,1589.958,0.5,111,146.0
11506,B4,1589.958,0.5,111,146.0
11507,E4,1589.958,0.5,111,146.0
11508,B3,1590.458,0.5,111,146.0
11509,B-4,1590.958,2.5,111,146.0
11510,B4,1591.458,0.25,111,146.0
11511,E5,1591.794,207/500,111,146.0
11512,B4,1592.294,83/125,111,146.0
11513,B-4,1592.958,1.0,111,146.0
11514,G#4,1593.458,0.5,111,146.0
11515,E2,1593.958,0.375,89,146.0
11516,B-4,1593.958,3.0,111,146.0
11517,E2,1594.458,0.375,89,146.0
11518,E5,1594.958,0.5,111,146.0
11519,B4,1594.958,0.5,111,146.0
11520,E4,1594.958,0.5,111,146.0
11521,E5,1595.458,0.5,111,146.0
11522,B4,1595.458,0.5,111,146.0
11523,E4,1595.458,0.5,111,146.0
11524,E5,1595.958,0.5,111,146.0
11525,B4,1595.958,0.5,111,146.0
11526,E4,1595.958,0.5,111,146.0
11527,B-4,1596.458,1.5,111,146.0
11528,E5,1596.458,0.5,111,146.0
11529,E4,1596.458,0.5,111,146.0
11530,B3,1596.958,0.375,89,146.0
11531,B3,1597.458,0.375,89,146.0
11532,B-4,1597.958,1.875,111,146.0
11533,E5,1597.958,0.5,111,146.0
11534,B4,1597.958,0.5,111,146.0
11535,E4,1597.958,0.5,111,146.0
11536,E5,1598.458,0.5,111,146.0
11537,B4,1598.458,0.5,111,146.0
11538,E4,1598.458,0.5,111,146.0
11539,E5,1598.958,0.5,111,146.0
11540,B4,1598.958,0.5,111,146.0
11541,E4,1598.958,0.5,111,146.0
11542,B-4,1599.458,2.5,89,146.0
11543,E5,1599.458,0.375,89,146.0
11544,E4,1599.458,0.375,89,146.0
11545,B3,1599.958,0.375,89,146.0
11546,B3,1600.458,0.375,89,146.0
11547,B3,1600.958,0.375,89,146.0
11548,B3,1601.458,0.375,89,146.0
11549,B-4,1601.958,3.0,89,146.0
11550,B4,1601.958,0.5,111,146.0
11551,E4,1601.958,0.5,111,146.0
11552,B3,1602.458,0.375,89,146.0
11553,E5,1602.958,0.5,111,146.0
11554,B4,1602.958,0.5,111,146.0
11555,E4,1602.958,0.5,111,146.0
11556,E5,1603.458,0.5,111,146.0
11557,B4,1603.458,0.5,111,146.0
11558,E4,1603.458,0.5,111,146.0
11559,E5,1603.958,0.5,111,146.0
11560,B4,1603.958,0.5,111,146.0
11561,E4,1603.958,0.5,111,146.0
11562,B-4,1604.458,1.5,111,146.0
11563,E5,1604.458,0.5,111,146.0
11564,E4,1604.458,0.5,111,146.0
11565,B3,1604.958,0.375,89,146.0
11566,E5,1605.458,0.5,111,146.0
11567,B4,1605.458,0.5,111,146.0
11568,E4,1605.458,0.5,111,146.0
11569,B-4,1605.958,1.5,111,146.0
11570,E5,1605.958,0.5,111,146.0
11571,B4,1605.958,0.5,111,146.0
11572,E4,1605.958,0.5,111,146.0
11573,B3,1606.458,0.5,111,146.0
11574,B-4,1606.958,2.5,111,146.0
11575,B4,1607.458,0.25,111,146.0
11576,E5,1607.794,207/500,111,146.0
11577,B4,1608.294,83/125,111,146.0
11578,B-4,1608.958,1.0,111,146.0
11579,G#4,1609.458,0.5,111,146.0
11580,E5,1609.958,0.125,111,146.0
11581,B-4,1609.958,4.0,111,146.0
11582,F#5,1610.083,0.125,89,146.0
11583,G#5,1610.208,0.125,89,146.0
11584,B5,1610.333,0.125,111,146.0
11585,G#5,1610.458,0.125,89,146.0
11586,F#5,1610.583,0.125,89,146.0
11587,E5,1610.708,0.125,89,146.0
11588,F#5,1610.833,0.125,89,146.0
11589,B5,1610.958,0.125,111,146.0
11590,G#5,1611.083,0.125,89,146.0
11591,B5,1611.208,0.125,111,146.0
11592,G#5,1611.333,0.125,89,146.0
11593,F#5,1611.458,167/1000,89,146.0
11594,E5,1611.625,167/1000,89,146.0
11595,F#5,1611.792,167/1000,89,146.0
11596,G#5,1611.958,0.125,89,146.0
11597,B5,1612.083,0.125,111,146.0
11598,G#5,1612.208,0.125,89,146.0
11599,F#5,1612.333,0.125,89,146.0
11600,E5,1612.458,0.125,89,146.0
11601,F#5,1612.583,0.125,89,146.0
11602,G#5,1612.708,0.125,89,146.0
11603,B5,1612.833,0.125,111,146.0
11604,G#5,1612.958,0.125,89,146.0
11605,B5,1613.083,0.125,111,146.0
11606,G#5,1613.208,0.125,89,146.0
11607,F#5,1613.333,0.125,89,146.0
11608,E5,1613.458,167/1000,89,146.0
11609,F#5,1613.625,167/1000,89,146.0
11610,G#5,1613.792,167/1000,89,146.0
11611,B5,1613.958,0.125,111,146.0
11612,B-4,1613.958,4.0,111,146.0
11613,G#5,1614.083,0.125,89,146.0
11614,F#5,1614.208,0.125,89,146.0
11615,E5,1614.333,0.125,89,146.0
11616,F#5,1614.458,0.125,89,146.0
11617,G#5,1614.583,0.125,89,146.0
11618,B5,1614.708,0.125,111,146.0
11619,G#5,1614.833,0.125,89,146.0
11620,B5,1614.958,167/1000,111,146.0
11621,G#5,1615.125,167/1000,89,146.0
11622,F#5,1615.292,167/1000,89,146.0
11623,E5,1615.458,167/1000,89,146.0
11624,F#5,1615.625,167/1000,89,146.0
11625,G#5,1615.792,167/1000,89,146.0
11626,B5,1615.958,167/1000,111,146.0
11627,G#5,1616.125,167/1000,89,146.0
11628,F#5,1616.292,167/1000,89,146.0
11629,E5,1616.458,0.125,89,146.0
11630,F#5,1616.583,0.125,89,146.0
11631,G#5,1616.708,0.125,89,146.0
11632,B5,1616.833,0.125,111,146.0
11633,G#5,1616.958,0.144,89,146.0
11634,B5,1617.102,0.142,111,146.0
11635,G#5,1617.243,0.144,89,146.0
11636,F#5,1617.387,0.142,89,146.0
11637,E5,1617.529,0.144,89,146.0
11638,F#5,1617.673,0.142,89,146.0
11639,G#5,1617.814,0.144,89,146.0
11640,C#6,1617.958,0.144,111,146.0
11641,B-4,1617.958,4.0,111,146.0
11642,G#5,1618.102,0.142,89,146.0
11643,F#5,1618.243,0.144,89,146.0
11644,E5,1618.387,0.142,89,146.0
11645,F#5,1618.529,0.144,89,146.0
11646,G#5,1618.673,0.142,89,146.0
11647,C#6,1618.814,0.144,111,146.0
11648,G#5,1618.958,0.144,89,146.0
11649,C#6,1619.102,0.142,111,146.0
11650,G#5,1619.243,0.144,89,146.0
11651,F#5,1619.387,0.142,89,146.0
11652,E5,1619.529,0.144,89,146.0
11653,F#5,1619.673,0.142,89,146.0
11654,G#5,1619.814,0.144,89,146.0
11655,C#6,1619.958,167/1000,111,146.0
11656,G#5,1620.125,167/1000,89,146.0
11657,F#5,1620.292,167/1000,89,146.0
11658,E5,1620.458,167/1000,89,146.0
11659,G#5,1620.625,167/1000,89,146.0
11660,C#6,1620.792,167/1000,111,146.0
11661,G#5,1620.958,0.144,89,146.0
11662,C#6,1621.102,0.142,111,146.0
11663,G#5,1621.243,0.144,89,146.0
11664,F#5,1621.387,0.142,89,146.0
11665,E5,1621.529,0.144,89,146.0
11666,E-5,1621.673,0.142,89,146.0
11667,E5,1621.814,0.144,89,146.0
11668,B-5,1621.958,0.125,111,146.0
11669,B-4,1621.958,4.0,111,146.0
11670,F#5,1622.083,0.125,89,146.0
11671,E5,1622.208,0.125,89,146.0
11672,E-5,1622.333,0.125,89,146.0
11673,E5,1622.458,0.125,89,146.0
11674,B-5,1622.583,0.125,111,146.0
11675,F#5,1622.708,0.125,89,146.0
11676,B-5,1622.833,0.125,111,146.0
11677,F#5,1622.958,167/1000,89,146.0
11678,E5,1623.125,167/1000,89,146.0
11679,E-5,1623.292,167/1000,89,146.0
11680,E5,1623.458,167/1000,89,146.0
11681,F#5,1623.625,167/1000,89,146.0
11682,B-5,1623.792,167/1000,111,146.0
11683,F#5,1623.958,167/1000,89,146.0
11684,E5,1624.125,167/1000,89,146.0
11685,E-5,1624.292,167/1000,89,146.0
11686,E5,1624.458,167/1000,89,146.0
11687,B-5,1624.625,167/1000,111,146.0
11688,F#5,1624.792,167/1000,89,146.0
11689,B-5,1624.958,0.144,111,146.0
11690,F#5,1625.102,0.142,89,146.0
11691,E5,1625.243,0.144,89,146.0
11692,E-5,1625.387,0.285,89,146.0
11693,F#5,1625.673,0.142,89,146.0
11694,G#5,1625.814,0.144,89,146.0
11695,B5,1625.958,0.144,111,146.0
11696,B-4,1625.958,4.0,111,146.0
11697,G#5,1626.102,0.142,89,146.0
11698,F#5,1626.243,0.144,89,146.0
11699,E5,1626.387,0.142,89,146.0
11700,F#5,1626.529,0.144,89,146.0
11701,B5,1626.673,0.142,111,146.0
11702,G#5,1626.814,0.144,89,146.0
11703,B5,1626.958,167/1000,111,146.0
11704,G#5,1627.125,167/1000,89,146.0
11705,F#5,1627.292,167/1000,89,146.0
11706,E5,1627.458,167/1000,89,146.0
11707,F#5,1627.625,167/1000,89,146.0
11708,G#5,1627.792,167/1000,89,146.0
11709,B5,1627.958,0.144,111,146.0
11710,G#5,1628.102,0.142,89,146.0
11711,F#5,1628.243,0.144,89,146.0
11712,E5,1628.387,0.142,89,146.0
11713,F#5,1628.529,0.144,89,146.0
11714,B5,1628.673,0.142,111,146.0
11715,G#5,1628.814,0.144,89,146.0
11716,B5,1628.958,167/1000,111,146.0
11717,G#5,1629.125,167/1000,89,146.0
11718,F#5,1629.292,167/1000,89,146.0
11719,E5,1629.458,167/1000,89,146.0
11720,F#5,1629.625,167/1000,89,146.0
11721,G#5,1629.792,167/1000,89,146.0
11722,B5,1629.958,0.144,111,146.0
11723,B-4,1629.958,4.0,111,146.0
11724,G#5,1630.102,0.142,89,146.0
11725,F#5,1630.243,0.144,89,146.0
11726,E5,1630.387,0.142,89,146.0
11727,F#5,1630.529,0.144,89,146.0
11728,B5,1630.673,0.142,111,146.0
11729,G#5,1630.814,0.144,89,146.0
11730,B5,1630.958,167/1000,111,146.0
11731,G#5,1631.125,167/1000,89,146.0
11732,F#5,1631.292,167/1000,89,146.0
11733,E5,1631.458,167/1000,89,146.0
11734,F#5,1631.625,167/1000,89,146.0
11735,G#5,1631.792,167/1000,89,146.0
11736,B5,1631.958,0.144,111,146.0
11737,G#5,1632.102,0.142,89,146.0
11738,F#5,1632.243,0.144,89,146.0
11739,E5,1632.387,0.142,89,146.0
11740,F#5,1632.529,0.144,89,146.0
11741,B5,1632.673,0.142,111,146.0
11742,G#5,1632.814,0.144,89,146.0
11743,B5,1632.958,0.144,111,146.0
11744,G#5,1633.102,0.142,89,146.0
11745,F#5,1633.243,0.144,89,146.0
11746,E5,1633.387,0.142,89,146.0
11747,F#5,1633.529,0.144,89,146.0
11748,G#5,1633.673,0.142,89,146.0
11749,C#6,1633.814,0.144,111,146.0
11750,G#5,1633.958,167/1000,89,146.0
11751,B-4,1633.958,4.0,111,146.0
11752,F#5,1634.125,167/1000,89,146.0
11753,E5,1634.292,167/1000,89,146.0
11754,F#5,1634.458,167/1000,89,146.0
11755,C#6,1634.625,167/1000,111,146.0
11756,G#5,1634.792,167/1000,89,146.0
11757,C#6,1634.958,167/1000,111,146.0
11758,G#5,1635.125,167/1000,89,146.0
11759,F#5,1635.292,167/1000,89,146.0
11760,E5,1635.458,167/1000,89,146.0
11761,F#5,1635.625,167/1000,89,146.0
11762,G#5,1635.792,167/1000,89,146.0
11763,C#6,1635.958,0.144,111,146.0
11764,G#5,1636.102,0.142,89,146.0
11765,F#5,1636.243,0.144,89,146.0
11766,E5,1636.387,0.142,89,146.0
11767,F#5,1636.529,0.144,89,146.0
11768,C#6,1636.673,0.142,111,146.0
11769,G#5,1636.814,0.144,89,146.0
11770,C#6,1636.958,0.144,111,146.0
11771,G#5,1637.102,0.142,89,146.0
11772,F#5,1637.243,0.144,89,146.0
11773,E5,1637.387,0.142,89,146.0
11774,E-5,1637.529,0.144,89,146.0
11775,E5,1637.673,0.142,89,146.0
11776,B-5,1637.814,0.144,111,146.0
11777,F#5,1637.958,167/1000,111,146.0
11778,B-4,1637.958,4.0,111,146.0
11779,E5,1638.125,167/1000,89,146.0
11780,E-5,1638.292,167/1000,89,146.0
11781,E5,1638.458,167/1000,89,146.0
11782,B-5,1638.625,167/1000,111,146.0
11783,F#5,1638.792,167/1000,89,146.0
11784,B-5,1638.958,0.144,111,146.0
11785,F#5,1639.102,0.142,89,146.0
11786,E5,1639.243,0.144,89,146.0
11787,E-5,1639.387,0.142,89,146.0
11788,E5,1639.529,0.144,89,146.0
11789,F#5,1639.673,0.142,89,146.0
11790,B-5,1639.814,0.144,111,146.0
11791,F#5,1639.958,167/1000,89,146.0
11792,E5,1640.125,167/1000,89,146.0
11793,E-5,1640.292,167/1000,89,146.0
11794,B-5,1640.458,167/1000,111,146.0
11795,F#5,1640.625,167/1000,89,146.0
11796,B-5,1640.792,167/1000,111,146.0
11797,F#5,1640.958,167/1000,89,146.0
11798,E5,1641.125,167/1000,89,146.0
11799,E-5,1641.292,333/1000,89,146.0
11800,F#5,1641.625,167/1000,89,146.0
11801,G#5,1641.792,167/1000,89,146.0
11802,B5,1641.958,0.144,111,146.0
11803,B-4,1641.958,4.0,111,146.0
11804,G#5,1642.102,0.142,89,146.0
11805,F#5,1642.243,0.144,89,146.0
11806,E5,1642.387,0.142,89,146.0
11807,F#5,1642.529,0.144,89,146.0
11808,B5,1642.673,0.142,111,146.0
11809,G#5,1642.814,0.144,89,146.0
11810,B5,1642.958,167/1000,111,146.0
11811,G#5,1643.125,167/1000,89,146.0
11812,F#5,1643.292,167/1000,89,146.0
11813,E5,1643.458,167/1000,89,146.0
11814,F#5,1643.625,167/1000,89,146.0
11815,G#5,1643.792,167/1000,89,146.0
11816,B5,1643.958,0.144,111,146.0
11817,G#5,1644.102,0.142,89,146.0
11818,F#5,1644.243,0.144,89,146.0
11819,E5,1644.387,0.142,89,146.0
11820,F#5,1644.529,0.144,89,146.0
11821,B5,1644.673,0.142,111,146.0
11822,G#5,1644.814,0.144,89,146.0
11823,B5,1644.958,167/1000,111,146.0
11824,G#5,1645.125,167/1000,89,146.0
11825,F#5,1645.292,167/1000,89,146.0
11826,E5,1645.458,167/1000,89,146.0
11827,F#5,1645.625,167/1000,89,146.0
11828,G#5,1645.792,167/1000,89,146.0
11829,B5,1645.958,0.144,111,146.0
11830,B-4,1645.958,4.0,111,146.0
11831,G#5,1646.102,0.142,89,146.0
11832,F#5,1646.243,0.144,89,146.0
11833,E5,1646.387,0.142,89,146.0
11834,F#5,1646.529,0.144,89,146.0
11835,B5,1646.673,0.142,111,146.0
11836,G#5,1646.814,0.144,89,146.0
11837,B5,1646.958,167/1000,111,146.0
11838,G#5,1647.125,167/1000,89,146.0
11839,F#5,1647.292,167/1000,89,146.0
11840,E5,1647.458,167/1000,89,146.0
11841,F#5,1647.625,167/1000,89,146.0
11842,G#5,1647.792,167/1000,89,146.0
11843,B5,1647.958,0.144,111,146.0
11844,G#5,1648.102,0.142,89,146.0
11845,F#5,1648.243,0.144,89,146.0
11846,E5,1648.387,0.142,89,146.0
11847,F#5,1648.529,0.144,89,146.0
11848,B5,1648.673,0.142,111,146.0
11849,G#5,1648.814,0.144,89,146.0
11850,B5,1648.958,0.144,111,146.0
11851,G#5,1649.102,0.142,89,146.0
11852,F#5,1649.243,0.144,89,146.0
11853,E5,1649.387,0.142,89,146.0
11854,F#5,1649.529,0.144,89,146.0
11855,G#5,1649.673,0.142,89,146.0
11856,C#6,1649.814,0.144,111,146.0
11857,G#5,1649.958,167/1000,89,146.0
11858,B-4,1649.958,4.0,111,146.0
11859,F#5,1650.125,167/1000,89,146.0
11860,E5,1650.292,167/1000,89,146.0
11861,F#5,1650.458,167/1000,89,146.0
11862,C#6,1650.625,167/1000,111,146.0
11863,G#5,1650.792,167/1000,89,146.0
11864,C#6,1650.958,167/1000,111,146.0
11865,G#5,1651.125,167/1000,89,146.0
11866,F#5,1651.292,167/1000,89,146.0
11867,E5,1651.458,167/1000,89,146.0
11868,F#5,1651.625,167/1000,89,146.0
11869,G#5,1651.792,167/1000,89,146.0
11870,C#6,1651.958,0.144,111,146.0
11871,G#5,1652.102,0.142,89,146.0
11872,F#5,1652.243,0.144,89,146.0
11873,E5,1652.387,0.142,89,146.0
11874,F#5,1652.529,0.144,89,146.0
11875,C#6,1652.673,0.142,111,146.0
11876,G#5,1652.814,0.144,89,146.0
11877,C#6,1652.958,0.144,111,146.0
11878,G#5,1653.102,0.142,89,146.0
11879,F#5,1653.243,0.144,89,146.0
11880,E5,1653.387,0.142,89,146.0
11881,E-5,1653.529,0.144,89,146.0
11882,E5,1653.673,0.142,89,146.0
11883,B-5,1653.814,0.144,111,146.0
11884,F#5,1653.958,167/1000,111,146.0
11885,B-4,1653.958,4.0,111,146.0
11886,E5,1654.125,167/1000,89,146.0
11887,E-5,1654.292,167/1000,89,146.0
11888,E5,1654.458,167/1000,89,146.0
11889,B-5,1654.625,167/1000,111,146.0
11890,F#5,1654.792,167/1000,89,146.0
11891,B-5,1654.958,0.144,111,146.0
11892,F#5,1655.102,0.142,89,146.0
11893,E5,1655.243,0.144,89,146.0
11894,E-5,1655.387,0.142,89,146.0
11895,E5,1655.529,0.144,89,146.0
11896,F#5,1655.673,0.142,89,146.0
11897,B-5,1655.814,0.144,111,146.0
11898,F#5,1655.958,167/1000,89,146.0
11899,E5,1656.125,167/1000,89,146.0
11900,E-5,1656.292,167/1000,89,146.0
11901,B-5,1656.458,167/1000,111,146.0
11902,F#5,1656.625,167/1000,89,146.0
11903,B-5,1656.792,167/1000,111,146.0
11904,F#5,1656.958,167/1000,89,146.0
11905,E5,1657.125,167/1000,89,146.0
11906,E-5,1657.292,333/1000,89,146.0
11907,F#5,1657.625,167/1000,89,146.0
11908,G#5,1657.792,167/1000,89,146.0
11909,B-4,1657.958,4.0,111,146.0
11910,B-4,1661.958,4.0,111,146.0
11911,B-4,1665.958,4.0,111,146.0
11912,B-4,1669.958,4.0,111,146.0
11913,B-4,1673.958,4.0,111,146.0
11914,B-4,1677.958,4.0,111,146.0
11915,B-4,1681.958,4.0,111,146.0
11916,B-4,1685.958,4.0,111,146.0
11917,B-4,1689.958,4.0,111,146.0
11918,B-4,1693.958,4.0,111,146.0
11919,B-4,1697.958,4.0,111,146.0
11920,B-4,1701.958,4.0,111,146.0
11921,B-4,1705.958,4.0,111,146.0
11922,B-4,1709.958,4.0,111,146.0
11923,B-4,1713.958,4.0,111,146.0
11924,B-4,1717.958,4.0,111,146.0
11925,B-4,1721.958,4.0,111,146.0
11926,B-4,1725.958,4.0,111,146.0
11927,B-4,1729.958,4.0,111,146.0
11928,B-4,1733.958,4.0,111,146.0
11929,B-4,1737.958,4.0,111,146.0
11930,B-4,1741.958,4.0,111,146.0
11931,B-4,1745.958,4.0,111,146.0
11932,B-4,1749.958,4.0,111,146.0
11933,B-4,1753.958,4.0,111,146.0
11934,B-4,1757.958,4.0,111,146.0
11935,B-4,1761.958,4.0,111,146.0
11936,B-4,1765.958,4.0,111,146.0
11937,B-4,1769.958,4.0,111,146.0
11938,B-4,1773.958,4.0,111,146.0
11939,B-4,1777.958,4.0,111,146.0
11940,B-4,1781.958,4.0,111,146.0
11941,B-4,1785.958,4.0,111,146.0
11942,B-4,1789.958,4.0,111,146.0
11943,B-4,1793.958,4.0,111,146.0
11944,B-4,1797.958,4.0,111,146.0
11945,B-4,1801.958,4.0,111,146.0
11946,B-4,1805.958,4.0,111,146.0
11947,B-4,1809.958,4.0,111,146.0
11948,B-4,1813.958,4.0,111,146.0
11949,B-4,1817.958,4.0,111,146.0
11950,B-4,1821.958,4.0,111,146.0
11951,B-4,1825.958,4.0,111,146.0
11952,B-4,1829.958,4.0,111,146.0
11953,B-4,1833.958,4.0,111,146.0
11954,B-4,1837.958,4.0,111,146.0
11955,B-4,1841.958,4.0,111,146.0
11956,B-4,1845.958,4.0,111,146.0
11957,B-4,1849.958,4.0,111,146.0
11958,B-4,1853.958,4.0,111,146.0
11959,B-4,1857.958,4.0,111,146.0
11960,B-4,1861.958,4.0,111,146.0
11961,B-4,1865.958,4.0,111,146.0
11962,B-4,1869.958,4.0,111,146.0
11963,B-4,1873.958,4.0,111,146.0
11964,B-4,1877.958,4.0,111,146.0
11965,B-4,1881.958,4.0,111,146.0
11966,B-4,1885.958,4.0,111,146.0
11967,B-4,1889.958,4.0,111,146.0
11968,B-4,1893.958,4.0,111,146.0
11969,B-4,1897.958,4.0,111,146.0
11970,B-4,1901.958,4.0,111,146.0
11971,B-4,1905.958,4.0,111,146.0
11972,B-4,1909.958,4.0,111,146.0
11973,B-4,1913.958,4.0,111,146.0
11974,B-4,1917.958,4.0,111,146.0
11975,B-4,1921.958,4.0,111,146.0
11976,B-4,1925.958,4.0,111,146.0
11977,B-4,1929.958,4.0,111,146.0
11978,B-4,1933.958,4.0,111,146.0
11979,B-4,1937.958,4.0,111,146.0
11980,B-4,1941.958,4.0,111,146.0
11981,B-4,1945.958,4.0,111,146.0
11982,B-4,1949.958,4.0,111,146.0
11983,B-4,1953.958,4.0,111,146.0
11984,B-4,1957.958,4.0,111,146.0
11985,B-4,1961.958,4.0,111,146.0
11986,B-4,1965.958,4.0,111,146.0
11987,B-4,1969.958,4.0,111,146.0
11988,B-4,1973.958,4.0,111,146.0
11989,B-4,1977.958,4.0,111,146.0
11990,B-4,1981.958,4.0,111,146.0
11991,B-4,1985.958,4.0,111,146.0
11992,B-4,1989.958,4.0,111,146.0
11993,B-4,1993.958,4.0,111,146.0
11994,B-4,1997.958,4.0,111,146.0
11995,B-4,2001.958,4.0,111,146.0
11996,B-4,2005.958,4.0,111,146.0
11997,B-4,2009.958,4.0,111,146.0
11998,B-4,2013.958,4.0,111,146.0
11999,B-4,2017.958,4.0,111,146.0
12000,B-4,2021.958,4.0,111,146.0
12001,B-4,2025.958,4.0,111,146.0
12002,B-4,2029.958,4.0,111,146.0
12003,B-4,2033.958,4.0,111,146.0
12004,B-4,2037.958,4.0,111,146.0
12005,B-4,2041.958,4.0,111,146.0
12006,B-4,2045.958,4.0,111,146.0
12007,B-4,2049.958,4.0,111,146.0
12008,B-4,2053.958,4.0,111,146.0
12009,B-4,2057.958,4.0,111,146.0
12010,B-4,2061.958,4.0,111,146.0
12011,B-4,2065.958,4.0,111,146.0
12012,B-4,2069.958,4.0,111,146.0
12013,B-4,2073.958,4.0,111,146.0
12014,B-4,2077.958,4.0,111,146.0
12015,B-4,2081.958,4.0,111,146.0
12016,B-4,2085.958,4.0,111,146.0
12017,B-4,2089.958,4.0,111,146.0
12018,B-4,2093.958,4.0,111,146.0
12019,B-4,2097.958,4.0,111,146.0
12020,B-4,2101.958,4.0,111,146.0
12021,B-4,2105.958,4.0,111,146.0
12022,B-4,2109.958,4.0,111,146.0
12023,B-4,2113.958,4.0,111,146.0
12024,B-4,2117.958,4.0,111,146.0
12025,B-4,2121.958,4.0,111,146.0
12026,B-4,2125.958,4.0,111,146.0
12027,B-4,2129.958,4.0,111,146.0
12028,B-4,2133.958,4.0,111,146.0
12029,B-4,2137.958,4.0,111,146.0
12030,B-4,2141.958,4.0,111,146.0
12031,B-4,2145.958,4.0,111,146.0
12032,B-4,2149.958,4.0,111,146.0
12033,B-4,2153.958,4.0,111,146.0
12034,B-4,2157.958,4.0,111,146.0
12035,B-4,2161.958,4.0,111,146.0
12036,B-4,2165.958,4.0,111,146.0
12037,B-4,2169.958,4.0,111,146.0
12038,B-4,2173.958,4.0,111,146.0
12039,B-4,2177.958,4.0,111,146.0
12040,B-4,2181.958,4.0,111,146.0
12041,B-4,2185.958,4.0,111,146.0
12042,B-4,2189.958,4.0,111,146.0
12043,B-4,2193.958,4.0,111,146.0
12044,B-4,2197.958,4.0,111,146.0
12045,B-4,2201.958,4.0,111,146.0
12046,B-4,2205.958,4.0,111,146.0
12047,B-4,2209.958,4.0,111,146.0
12048,B-4,2213.958,4.0,111,146.0
12049,B-4,2217.958,4.0,111,146.0
12050,B-4,2221.958,4.0,111,146.0
12051,B-4,2225.958,4.0,111,146.0
12052,B-4,2229.958,4.0,111,146.0
12053,B-4,2233.958,4.0,111,146.0
12054,B-4,2237.958,4.0,111,146.0
12055,B-4,2241.958,4.0,111,146.0
12056,B-4,2245.958,4.0,111,146.0
12057,B-4,2249.958,4.0,111,146.0
12058,B-4,2253.958,4.0,111,146.0
12059,B-4,2257.958,4.0,111,146.0
12060,B-4,2261.958,4.0,111,146.0
12061,B-4,2265.958,4.0,111,146.0
12062,B-4,2269.958,4.0,111,146.0
12063,B-4,2273.958,4.0,111,146.0
12064,B-4,2277.958,4.0,111,146.0
12065,B-4,2281.958,4.0,111,146.0
12066,B-4,2285.958,4.0,111,146.0
12067,B-4,2289.958,4.0,111,146.0
12068,B-4,2293.958,4.0,111,146.0
12069,B-4,2297.958,4.0,111,146.0
12070,B-4,2301.958,4.0,111,146.0
12071,B-4,2305.958,4.0,111,146.0
12072,B-4,2309.958,4.0,111,146.0
12073,B-4,2313.958,4.0,111,146.0
12074,B-4,2317.958,4.0,111,146.0
12075,B-4,2321.958,4.0,111,146.0
12076,B-4,2325.958,4.0,111,146.0
12077,B-4,2329.958,4.0,111,146.0
12078,B-4,2333.958,2.5,111,146.0
