,note_name,start_time,duration,velocity,tempo
0,G1,17.0,0.375,95,98.0
1,A4,17.0,4.0,95,98.0
2,F4,17.0,4.0,95,98.0
3,D4,17.0,4.0,95,98.0
4,C4,17.0,4.0,95,98.0
5,G1,17.75,0.375,95,98.0
6,G1,18.75,0.375,95,98.0
7,C2,19.75,0.25,63,98.0
8,D2,20.0,0.5,63,98.0
9,F2,20.5,0.5,79,98.0
10,G1,21.0,0.25,95,98.0
11,C2,22.75,0.75,79,98.0
12,C2,23.5,0.25,79,98.0
13,D2,23.75,0.25,63,98.0
14,C2,24.0,0.25,79,98.0
15,B-1,24.25,0.25,79,98.0
16,G1,24.5,0.25,79,98.0
17,F1,24.75,0.25,63,98.0
18,G1,25.0,0.375,95,98.0
19,G1,26.75,0.375,95,98.0
20,C2,27.75,0.25,79,98.0
21,D2,28.0,0.25,79,98.0
22,F2,28.5,0.25,79,98.0
23,C2,29.0,0.25,95,98.0
24,D3,29.25,0.25,95,98.0
25,G1,29.75,0.25,95,98.0
26,F1,30.0,0.25,95,98.0
27,F1,30.25,0.25,95,98.0
28,B-1,30.5,0.25,95,98.0
29,C2,30.75,0.25,95,98.0
30,D2,31.0,0.5,95,98.0
31,F2,31.5,0.5,95,98.0
32,D2,32.0,0.25,95,98.0
33,C2,32.25,0.25,95,98.0
34,A1,32.5,0.25,95,98.0
35,G1,32.75,0.25,63,98.0
36,C5,33.0,4.0,63,98.0
37,B-1,33.0,0.25,63,98.0
38,A4,33.0,4.0,95,98.0
39,F4,33.0,4.0,95,98.0
40,D4,33.0,4.0,95,98.0
41,C4,33.0,4.0,95,98.0
42,B-1,33.25,0.25,79,98.0
43,C2,33.75,0.5,95,98.0
44,F4,33.75,0.5,99,98.0
45,D4,33.75,0.5,99,98.0
46,C4,33.75,0.5,99,98.0
47,A3,33.75,0.5,99,98.0
48,F4,33.75,0.5,99,98.0
49,D4,33.75,0.5,99,98.0
50,C4,33.75,0.5,99,98.0
51,A3,33.75,0.5,99,98.0
52,A1,34.25,0.25,95,98.0
53,B-3,34.25,0.25,47,98.0
54,A3,34.25,0.25,47,98.0
55,B-1,34.75,0.25,95,98.0
56,F4,34.75,0.25,99,98.0
57,D4,34.75,0.25,99,98.0
58,C4,34.75,0.25,99,98.0
59,A3,34.75,0.25,99,98.0
60,F4,34.75,0.25,99,98.0
61,D4,34.75,0.25,99,98.0
62,C4,34.75,0.25,99,98.0
63,A3,34.75,0.25,99,98.0
64,B-3,35.25,0.25,47,98.0
65,A3,35.25,0.25,47,98.0
66,C2,35.5,0.5,95,98.0
67,F4,35.5,1.5,99,98.0
68,D4,35.5,1.5,99,98.0
69,C4,35.5,1.5,99,98.0
70,A3,35.5,1.5,99,98.0
71,F4,35.5,1.5,99,98.0
72,D4,35.5,1.5,99,98.0
73,C4,35.5,1.5,99,98.0
74,A3,35.5,1.5,99,98.0
75,F1,36.0,0.25,63,98.0
76,A1,36.25,0.25,63,98.0
77,B-1,36.5,0.25,63,98.0
78,C2,36.75,0.25,63,98.0
79,B-1,37.0,0.25,63,98.0
80,B-1,37.25,0.25,79,98.0
81,C2,37.75,0.5,95,98.0
82,A4,37.75,0.5,91,98.0
83,D4,37.75,0.5,91,98.0
84,B-3,37.75,0.5,91,98.0
85,F3,37.75,0.5,91,98.0
86,F4,37.75,0.5,91,98.0
87,D4,37.75,0.5,91,98.0
88,C4,37.75,0.5,91,98.0
89,A3,37.75,0.5,91,98.0
90,A1,38.25,0.25,95,98.0
91,B-3,38.25,0.25,47,98.0
92,A3,38.25,0.25,47,98.0
93,B-1,38.75,0.25,95,98.0
94,F4,38.75,0.25,99,98.0
95,D4,38.75,0.25,99,98.0
96,C4,38.75,0.25,99,98.0
97,A3,38.75,0.25,99,98.0
98,F4,38.75,0.25,99,98.0
99,D4,38.75,0.25,99,98.0
100,C4,38.75,0.25,99,98.0
101,A3,38.75,0.25,99,98.0
102,B-3,39.25,0.25,47,98.0
103,A3,39.25,0.25,47,98.0
104,E-2,39.5,0.75,95,98.0
105,B-4,39.5,1.5,99,98.0
106,G4,39.5,1.5,99,98.0
107,E-4,39.5,1.5,99,98.0
108,D4,39.5,1.5,99,98.0
109,B-4,39.5,1.5,99,98.0
110,G4,39.5,1.5,99,98.0
111,E-4,39.5,1.5,99,98.0
112,D4,39.5,1.5,99,98.0
113,D2,40.25,0.25,63,98.0
114,B-1,40.5,0.25,63,98.0
115,C2,40.75,0.25,63,98.0
116,B-1,41.0,0.25,63,98.0
117,B-1,41.25,0.25,79,98.0
118,C2,41.75,0.5,95,98.0
119,F4,41.75,0.5,99,98.0
120,D4,41.75,0.5,99,98.0
121,C4,41.75,0.5,99,98.0
122,A3,41.75,0.5,99,98.0
123,F4,41.75,0.5,99,98.0
124,D4,41.75,0.5,99,98.0
125,C4,41.75,0.5,99,98.0
126,A3,41.75,0.5,99,98.0
127,A1,42.25,0.25,95,98.0
128,B-3,42.25,0.25,47,98.0
129,A3,42.25,0.25,47,98.0
130,B-1,42.75,0.25,95,98.0
131,F4,42.75,0.25,99,98.0
132,D4,42.75,0.25,99,98.0
133,C4,42.75,0.25,99,98.0
134,A3,42.75,0.25,99,98.0
135,F4,42.75,0.25,99,98.0
136,D4,42.75,0.25,99,98.0
137,C4,42.75,0.25,99,98.0
138,A3,42.75,0.25,99,98.0
139,B-3,43.25,0.25,47,98.0
140,A3,43.25,0.25,47,98.0
141,C2,43.5,0.5,95,98.0
142,F4,43.5,1.5,99,98.0
143,D4,43.5,1.5,99,98.0
144,C4,43.5,1.5,99,98.0
145,A3,43.5,1.5,99,98.0
146,F4,43.5,1.5,99,98.0
147,D4,43.5,1.5,99,98.0
148,C4,43.5,1.5,99,98.0
149,A3,43.5,1.5,99,98.0
150,F1,44.0,0.25,63,98.0
151,A1,44.25,0.25,63,98.0
152,B-1,44.5,0.25,63,98.0
153,C2,44.75,0.25,63,98.0
154,F5,45.0,4.0,63,98.0
155,B-1,45.0,0.25,63,98.0
156,A4,45.0,4.0,95,98.0
157,F4,45.0,4.0,95,98.0
158,D4,45.0,4.0,95,98.0
159,C4,45.0,4.0,95,98.0
160,B-1,45.25,0.25,79,98.0
161,C2,45.75,0.5,95,98.0
162,A4,45.75,0.5,91,98.0
163,D4,45.75,0.5,91,98.0
164,B-3,45.75,0.5,91,98.0
165,F3,45.75,0.5,91,98.0
166,F4,45.75,0.5,91,98.0
167,D4,45.75,0.5,91,98.0
168,C4,45.75,0.5,91,98.0
169,A3,45.75,0.5,91,98.0
170,A1,46.25,0.25,95,98.0
171,B-3,46.25,0.25,47,98.0
172,A3,46.25,0.25,47,98.0
173,B-1,46.75,0.25,95,98.0
174,F4,46.75,0.25,99,98.0
175,D4,46.75,0.25,99,98.0
176,C4,46.75,0.25,99,98.0
177,A3,46.75,0.25,99,98.0
178,F4,46.75,0.25,99,98.0
179,D4,46.75,0.25,99,98.0
180,C4,46.75,0.25,99,98.0
181,A3,46.75,0.25,99,98.0
182,B-3,47.25,0.25,47,98.0
183,A3,47.25,0.25,47,98.0
184,E-2,47.5,0.75,95,98.0
185,B-4,47.5,1.5,99,98.0
186,G4,47.5,1.5,99,98.0
187,E-4,47.5,1.5,99,98.0
188,D4,47.5,1.5,99,98.0
189,B-4,47.5,1.5,99,98.0
190,G4,47.5,1.5,99,98.0
191,E-4,47.5,1.5,99,98.0
192,D4,47.5,1.5,99,98.0
193,D2,48.25,0.25,63,98.0
194,B-1,48.5,0.25,63,98.0
195,C2,48.75,0.25,63,98.0
196,F5,49.0,4.0,63,98.0
197,B-1,49.0,0.25,63,98.0
198,A4,49.0,4.0,95,98.0
199,F4,49.0,4.0,95,98.0
200,D4,49.0,4.0,95,98.0
201,C4,49.0,4.0,95,98.0
202,A4,49.25,0.25,95,98.0
203,B-1,49.25,0.25,79,98.0
204,F4,49.5,0.25,95,98.0
205,C4,49.75,0.25,95,98.0
206,C2,49.75,0.5,95,98.0
207,F4,49.75,0.5,99,98.0
208,D4,49.75,0.5,99,98.0
209,C4,49.75,0.5,99,98.0
210,A3,49.75,0.5,99,98.0
211,F4,49.75,0.5,99,98.0
212,D4,49.75,0.5,99,98.0
213,C4,49.75,0.5,99,98.0
214,A3,49.75,0.5,99,98.0
215,D4,50.25,0.25,95,98.0
216,A1,50.25,0.25,95,98.0
217,B-3,50.25,0.25,47,98.0
218,A3,50.25,0.25,47,98.0
219,E-4,50.5,0.25,95,98.0
220,F4,50.75,0.25,95,98.0
221,B-1,50.75,0.25,95,98.0
222,F4,50.75,0.25,99,98.0
223,D4,50.75,0.25,99,98.0
224,C4,50.75,0.25,99,98.0
225,A3,50.75,0.25,99,98.0
226,F4,50.75,0.25,99,98.0
227,D4,50.75,0.25,99,98.0
228,C4,50.75,0.25,99,98.0
229,A3,50.75,0.25,99,98.0
230,D4,51.25,0.25,95,98.0
231,B-3,51.25,0.25,47,98.0
232,A3,51.25,0.25,47,98.0
233,C2,51.5,0.5,95,98.0
234,F4,51.5,1.5,99,98.0
235,D4,51.5,1.5,99,98.0
236,C4,51.5,1.5,99,98.0
237,A3,51.5,1.5,99,98.0
238,F4,51.5,1.5,99,98.0
239,D4,51.5,1.5,99,98.0
240,C4,51.5,1.5,99,98.0
241,A3,51.5,1.5,99,98.0
242,G3,51.75,0.25,95,98.0
243,B-3,52.0,0.25,95,98.0
244,F1,52.0,0.25,63,98.0
245,A1,52.25,0.25,63,98.0
246,C4,52.5,0.5,95,98.0
247,B-1,52.5,0.25,63,98.0
248,C2,52.75,0.25,63,98.0
249,C4,53.0,0.75,95,98.0
250,B-1,53.0,0.25,63,98.0
251,B-1,53.25,0.25,79,98.0
252,C4,53.75,0.5,95,98.0
253,C2,53.75,0.5,95,98.0
254,A4,53.75,0.5,91,98.0
255,D4,53.75,0.5,91,98.0
256,B-3,53.75,0.5,91,98.0
257,F3,53.75,0.5,91,98.0
258,F4,53.75,0.5,91,98.0
259,D4,53.75,0.5,91,98.0
260,C4,53.75,0.5,91,98.0
261,A3,53.75,0.5,91,98.0
262,D4,54.25,0.25,95,98.0
263,A1,54.25,0.25,95,98.0
264,B-3,54.25,0.25,47,98.0
265,A3,54.25,0.25,47,98.0
266,B-1,54.75,0.25,95,98.0
267,F4,54.75,0.25,99,98.0
268,D4,54.75,0.25,99,98.0
269,C4,54.75,0.25,99,98.0
270,A3,54.75,0.25,99,98.0
271,F4,54.75,0.25,99,98.0
272,D4,54.75,0.25,99,98.0
273,C4,54.75,0.25,99,98.0
274,A3,54.75,0.25,99,98.0
275,B-3,55.25,0.25,47,98.0
276,A3,55.25,0.25,47,98.0
277,E-2,55.5,0.75,95,98.0
278,B-4,55.5,1.5,99,98.0
279,G4,55.5,1.5,99,98.0
280,E-4,55.5,1.5,99,98.0
281,D4,55.5,1.5,99,98.0
282,B-4,55.5,1.5,99,98.0
283,G4,55.5,1.5,99,98.0
284,E-4,55.5,1.5,99,98.0
285,D4,55.5,1.5,99,98.0
286,B-3,55.75,0.25,95,98.0
287,E-4,56.25,0.25,95,98.0
288,D2,56.25,0.25,63,98.0
289,B-1,56.5,0.25,63,98.0
290,G4,56.75,0.25,95,98.0
291,C2,56.75,0.25,63,98.0
292,F4,57.0,0.75,95,98.0
293,B-1,57.0,0.25,63,98.0
294,B-1,57.25,0.25,79,98.0
295,F4,57.75,0.5,95,98.0
296,C2,57.75,0.5,95,98.0
297,F4,57.75,0.5,99,98.0
298,D4,57.75,0.5,99,98.0
299,C4,57.75,0.5,99,98.0
300,A3,57.75,0.5,99,98.0
301,F4,57.75,0.5,99,98.0
302,D4,57.75,0.5,99,98.0
303,C4,57.75,0.5,99,98.0
304,A3,57.75,0.5,99,98.0
305,E-4,58.25,0.25,95,98.0
306,A1,58.25,0.25,95,98.0
307,B-3,58.25,0.25,47,98.0
308,A3,58.25,0.25,47,98.0
309,C4,58.75,0.25,95,98.0
310,B-1,58.75,0.25,95,98.0
311,F4,58.75,0.25,99,98.0
312,D4,58.75,0.25,99,98.0
313,C4,58.75,0.25,99,98.0
314,A3,58.75,0.25,99,98.0
315,F4,58.75,0.25,99,98.0
316,D4,58.75,0.25,99,98.0
317,C4,58.75,0.25,99,98.0
318,A3,58.75,0.25,99,98.0
319,B-3,59.25,0.25,95,98.0
320,B-3,59.25,0.25,47,98.0
321,A3,59.25,0.25,47,98.0
322,C2,59.5,0.5,95,98.0
323,F4,59.5,1.5,99,98.0
324,D4,59.5,1.5,99,98.0
325,C4,59.5,1.5,99,98.0
326,A3,59.5,1.5,99,98.0
327,F4,59.5,1.5,99,98.0
328,D4,59.5,1.5,99,98.0
329,C4,59.5,1.5,99,98.0
330,A3,59.5,1.5,99,98.0
331,G3,59.75,0.25,95,98.0
332,B-3,60.0,0.25,95,98.0
333,F1,60.0,0.25,63,98.0
334,A1,60.25,0.25,63,98.0
335,C4,60.5,0.5,95,98.0
336,B-1,60.5,0.25,63,98.0
337,C2,60.75,0.25,63,98.0
338,C4,61.0,0.75,95,98.0
339,B-1,61.0,0.25,63,98.0
340,B-1,61.25,0.25,79,98.0
341,C4,61.75,0.5,95,98.0
342,C2,61.75,0.5,95,98.0
343,A4,61.75,0.5,91,98.0
344,D4,61.75,0.5,91,98.0
345,B-3,61.75,0.5,91,98.0
346,F3,61.75,0.5,91,98.0
347,F4,61.75,0.5,91,98.0
348,D4,61.75,0.5,91,98.0
349,C4,61.75,0.5,91,98.0
350,A3,61.75,0.5,91,98.0
351,D4,62.25,0.25,95,98.0
352,A1,62.25,0.25,95,98.0
353,B-3,62.25,0.25,47,98.0
354,A3,62.25,0.25,47,98.0
355,B-1,62.75,0.25,95,98.0
356,F4,62.75,0.25,99,98.0
357,D4,62.75,0.25,99,98.0
358,C4,62.75,0.25,99,98.0
359,A3,62.75,0.25,99,98.0
360,F4,62.75,0.25,99,98.0
361,D4,62.75,0.25,99,98.0
362,C4,62.75,0.25,99,98.0
363,A3,62.75,0.25,99,98.0
364,B-3,63.25,0.25,47,98.0
365,A3,63.25,0.25,47,98.0
366,E-2,63.5,0.75,95,98.0
367,B-4,63.5,1.5,99,98.0
368,G4,63.5,1.5,99,98.0
369,E-4,63.5,1.5,99,98.0
370,D4,63.5,1.5,99,98.0
371,B-4,63.5,1.5,99,98.0
372,G4,63.5,1.5,99,98.0
373,E-4,63.5,1.5,99,98.0
374,D4,63.5,1.5,99,98.0
375,D4,63.75,0.25,95,98.0
376,E-4,64.0,0.25,95,98.0
377,G4,64.25,0.25,95,98.0
378,D2,64.25,0.25,63,98.0
379,B-4,64.5,0.25,95,98.0
380,B-1,64.5,0.25,63,98.0
381,C5,64.75,0.25,95,98.0
382,C2,64.75,0.25,63,98.0
383,C5,65.0,0.5,95,98.0
384,B-1,65.0,0.25,63,98.0
385,B-1,65.25,0.25,79,98.0
386,C5,65.75,0.5,95,98.0
387,C2,65.75,0.5,95,98.0
388,F4,65.75,0.5,99,98.0
389,D4,65.75,0.5,99,98.0
390,C4,65.75,0.5,99,98.0
391,A3,65.75,0.5,99,98.0
392,F4,65.75,0.5,99,98.0
393,D4,65.75,0.5,99,98.0
394,C4,65.75,0.5,99,98.0
395,A3,65.75,0.5,99,98.0
396,B-4,66.25,0.25,95,98.0
397,A1,66.25,0.25,95,98.0
398,B-3,66.25,0.25,47,98.0
399,A3,66.25,0.25,47,98.0
400,B-4,66.75,0.75,95,98.0
401,B-1,66.75,0.25,95,98.0
402,F4,66.75,0.25,99,98.0
403,D4,66.75,0.25,99,98.0
404,C4,66.75,0.25,99,98.0
405,A3,66.75,0.25,99,98.0
406,F4,66.75,0.25,99,98.0
407,D4,66.75,0.25,99,98.0
408,C4,66.75,0.25,99,98.0
409,A3,66.75,0.25,99,98.0
410,B-3,67.25,0.25,47,98.0
411,A3,67.25,0.25,47,98.0
412,C5,67.5,0.25,95,98.0
413,C2,67.5,0.5,95,98.0
414,F4,67.5,1.5,99,98.0
415,D4,67.5,1.5,99,98.0
416,C4,67.5,1.5,99,98.0
417,A3,67.5,1.5,99,98.0
418,F4,67.5,1.5,99,98.0
419,D4,67.5,1.5,99,98.0
420,C4,67.5,1.5,99,98.0
421,A3,67.5,1.5,99,98.0
422,F4,67.75,0.25,95,98.0
423,F5,68.0,0.25,95,98.0
424,F1,68.0,0.25,63,98.0
425,A1,68.25,0.25,63,98.0
426,C5,68.5,0.5,95,98.0
427,B-1,68.5,0.25,63,98.0
428,C2,68.75,0.25,63,98.0
429,C5,69.0,0.75,95,98.0
430,B-1,69.0,0.25,63,98.0
431,B-1,69.25,0.25,79,98.0
432,B-4,69.75,0.5,95,98.0
433,C2,69.75,0.5,95,98.0
434,A4,69.75,0.5,91,98.0
435,D4,69.75,0.5,91,98.0
436,B-3,69.75,0.5,91,98.0
437,F3,69.75,0.5,91,98.0
438,F4,69.75,0.5,91,98.0
439,D4,69.75,0.5,91,98.0
440,C4,69.75,0.5,91,98.0
441,A3,69.75,0.5,91,98.0
442,B-4,70.25,0.25,95,98.0
443,A1,70.25,0.25,95,98.0
444,B-3,70.25,0.25,47,98.0
445,A3,70.25,0.25,47,98.0
446,B-4,70.75,0.75,95,98.0
447,B-1,70.75,0.25,95,98.0
448,F4,70.75,0.25,99,98.0
449,D4,70.75,0.25,99,98.0
450,C4,70.75,0.25,99,98.0
451,A3,70.75,0.25,99,98.0
452,F4,70.75,0.25,99,98.0
453,D4,70.75,0.25,99,98.0
454,C4,70.75,0.25,99,98.0
455,A3,70.75,0.25,99,98.0
456,B-3,71.25,0.25,47,98.0
457,A3,71.25,0.25,47,98.0
458,B-4,71.5,0.25,95,98.0
459,E-2,71.5,0.75,95,98.0
460,B-4,71.5,1.5,99,98.0
461,G4,71.5,1.5,99,98.0
462,E-4,71.5,1.5,99,98.0
463,D4,71.5,1.5,99,98.0
464,B-4,71.5,1.5,99,98.0
465,G4,71.5,1.5,99,98.0
466,E-4,71.5,1.5,99,98.0
467,D4,71.5,1.5,99,98.0
468,C5,71.75,0.25,95,98.0
469,G4,72.0,0.5,95,98.0
470,D2,72.25,0.25,63,98.0
471,F4,72.5,0.25,95,98.0
472,B-1,72.5,0.25,63,98.0
473,F4,72.75,0.25,95,98.0
474,C2,72.75,0.25,63,98.0
475,F4,73.0,0.75,95,98.0
476,B-1,73.0,0.25,63,98.0
477,B-1,73.25,0.25,79,98.0
478,F4,73.75,0.25,95,98.0
479,C2,73.75,0.5,95,98.0
480,F4,73.75,0.5,99,98.0
481,D4,73.75,0.5,99,98.0
482,C4,73.75,0.5,99,98.0
483,A3,73.75,0.5,99,98.0
484,F4,73.75,0.5,99,98.0
485,D4,73.75,0.5,99,98.0
486,C4,73.75,0.5,99,98.0
487,A3,73.75,0.5,99,98.0
488,A1,74.25,0.25,95,98.0
489,B-3,74.25,0.25,47,98.0
490,A3,74.25,0.25,47,98.0
491,F4,74.75,0.25,95,98.0
492,B-1,74.75,0.25,95,98.0
493,F4,74.75,0.25,99,98.0
494,D4,74.75,0.25,99,98.0
495,C4,74.75,0.25,99,98.0
496,A3,74.75,0.25,99,98.0
497,F4,74.75,0.25,99,98.0
498,D4,74.75,0.25,99,98.0
499,C4,74.75,0.25,99,98.0
500,A3,74.75,0.25,99,98.0
501,E-4,75.25,0.25,95,98.0
502,B-3,75.25,0.25,47,98.0
503,A3,75.25,0.25,47,98.0
504,D4,75.5,0.25,95,98.0
505,C2,75.5,0.5,95,98.0
506,F4,75.5,1.5,99,98.0
507,D4,75.5,1.5,99,98.0
508,C4,75.5,1.5,99,98.0
509,A3,75.5,1.5,99,98.0
510,F4,75.5,1.5,99,98.0
511,D4,75.5,1.5,99,98.0
512,C4,75.5,1.5,99,98.0
513,A3,75.5,1.5,99,98.0
514,B-3,76.0,0.5,95,98.0
515,F1,76.0,0.25,63,98.0
516,A1,76.25,0.25,63,98.0
517,C4,76.5,0.5,95,98.0
518,B-1,76.5,0.25,63,98.0
519,C2,76.75,0.25,63,98.0
520,C4,77.0,0.75,95,98.0
521,B-1,77.0,0.25,63,98.0
522,B-1,77.25,0.25,79,98.0
523,C4,77.75,0.5,95,98.0
524,C2,77.75,0.5,95,98.0
525,A4,77.75,0.5,91,98.0
526,D4,77.75,0.5,91,98.0
527,B-3,77.75,0.5,91,98.0
528,F3,77.75,0.5,91,98.0
529,F4,77.75,0.5,91,98.0
530,D4,77.75,0.5,91,98.0
531,C4,77.75,0.5,91,98.0
532,A3,77.75,0.5,91,98.0
533,D4,78.25,0.25,95,98.0
534,A1,78.25,0.25,95,98.0
535,B-3,78.25,0.25,47,98.0
536,A3,78.25,0.25,47,98.0
537,B-1,78.75,0.25,95,98.0
538,F4,78.75,0.25,99,98.0
539,D4,78.75,0.25,99,98.0
540,C4,78.75,0.25,99,98.0
541,A3,78.75,0.25,99,98.0
542,F4,78.75,0.25,99,98.0
543,D4,78.75,0.25,99,98.0
544,C4,78.75,0.25,99,98.0
545,A3,78.75,0.25,99,98.0
546,B-3,79.25,0.25,47,98.0
547,A3,79.25,0.25,47,98.0
548,E-2,79.5,0.75,95,98.0
549,B-4,79.5,1.5,99,98.0
550,G4,79.5,1.5,99,98.0
551,E-4,79.5,1.5,99,98.0
552,D4,79.5,1.5,99,98.0
553,B-4,79.5,1.5,99,98.0
554,G4,79.5,1.5,99,98.0
555,E-4,79.5,1.5,99,98.0
556,D4,79.5,1.5,99,98.0
557,B-3,80.0,0.25,95,98.0
558,C4,80.25,0.25,95,98.0
559,D2,80.25,0.25,63,98.0
560,D4,80.5,0.25,95,98.0
561,B-1,80.5,0.25,63,98.0
562,E-4,80.75,0.25,95,98.0
563,C2,80.75,0.25,63,98.0
564,F4,81.0,0.75,95,98.0
565,E-2,81.0,0.75,95,98.0
566,F4,81.75,0.5,95,98.0
567,C#2,81.75,0.5,95,98.0
568,F4,81.75,0.5,107,98.0
569,C#4,81.75,0.5,107,98.0
570,B-3,81.75,0.5,107,98.0
571,F#3,81.75,0.5,107,98.0
572,E-4,82.25,0.5,95,98.0
573,F4,82.25,0.25,71,98.0
574,C#4,82.25,0.25,71,98.0
575,B-3,82.25,0.25,71,98.0
576,F#3,82.25,0.25,71,98.0
577,F4,82.75,0.75,95,98.0
578,B-1,82.75,0.25,95,98.0
579,B-1,83.25,0.25,95,98.0
580,E-4,83.25,0.25,79,98.0
581,C4,83.25,0.25,79,98.0
582,G#3,83.25,0.25,79,98.0
583,B-4,83.5,0.25,95,98.0
584,C#2,83.5,0.25,95,98.0
585,F4,83.75,0.25,95,98.0
586,C#4,83.75,0.25,63,98.0
587,B-1,83.75,0.25,95,98.0
588,C#5,84.0,0.5,95,98.0
589,E-2,84.0,0.25,95,98.0
590,E-4,84.0,0.25,79,98.0
591,C4,84.0,0.25,79,98.0
592,G#3,84.0,0.25,79,98.0
593,B-4,84.5,0.5,95,98.0
594,F2,84.5,0.25,95,98.0
595,F4,84.5,0.25,79,98.0
596,C#4,84.5,0.25,79,98.0
597,G#3,84.5,0.25,79,98.0
598,B-4,85.0,1.5,95,98.0
599,B-1,85.0,0.5,95,98.0
600,B-1,85.5,0.25,95,98.0
601,C#2,85.75,0.5,95,98.0
602,C#4,85.75,0.5,111,98.0
603,B-3,85.75,0.5,111,98.0
604,F#3,85.75,0.5,111,98.0
605,C#4,85.75,0.5,111,98.0
606,B-3,85.75,0.5,111,98.0
607,F#3,85.75,0.5,111,98.0
608,E-2,86.25,0.25,95,98.0
609,C#4,86.25,0.25,63,98.0
610,B-3,86.25,0.25,63,98.0
611,F#3,86.25,0.25,63,98.0
612,C#4,86.25,0.25,63,98.0
613,B-3,86.25,0.25,63,98.0
614,F#3,86.25,0.25,63,98.0
615,E-5,86.75,0.25,95,98.0
616,B-1,86.75,0.25,95,98.0
617,E-5,87.25,0.25,95,98.0
618,B-1,87.25,0.25,95,98.0
619,E-4,87.25,0.25,79,98.0
620,C4,87.25,0.25,79,98.0
621,G#3,87.25,0.25,79,98.0
622,E-4,87.25,0.25,79,98.0
623,C4,87.25,0.25,79,98.0
624,G#3,87.25,0.25,79,98.0
625,E-4,87.5,0.25,95,98.0
626,G#1,87.5,0.5,95,98.0
627,C#5,87.75,0.25,95,98.0
628,C#4,87.75,0.25,63,98.0
629,C#4,87.75,0.25,63,98.0
630,E-5,88.0,0.25,95,98.0
631,E-2,88.0,0.25,95,98.0
632,E-4,88.0,0.25,79,98.0
633,C4,88.0,0.25,79,98.0
634,G#3,88.0,0.25,79,98.0
635,E-4,88.0,0.25,79,98.0
636,C4,88.0,0.25,79,98.0
637,G#3,88.0,0.25,79,98.0
638,F5,88.25,0.25,63,98.0
639,F4,88.25,0.25,95,98.0
640,E-2,88.25,0.25,95,98.0
641,C#5,88.5,0.5,95,98.0
642,C#2,88.5,0.5,95,98.0
643,F4,88.5,0.25,79,98.0
644,C#4,88.5,0.25,79,98.0
645,G#3,88.5,0.25,79,98.0
646,F4,88.5,0.25,79,98.0
647,C#4,88.5,0.25,79,98.0
648,G#3,88.5,0.25,79,98.0
649,C#5,89.0,1.5,95,98.0
650,B-1,89.0,0.5,95,98.0
651,B-1,89.5,0.25,95,98.0
652,C#2,89.75,0.5,95,98.0
653,F4,89.75,0.5,107,98.0
654,C#4,89.75,0.5,107,98.0
655,B-3,89.75,0.5,107,98.0
656,F#3,89.75,0.5,107,98.0
657,F4,89.75,0.5,107,98.0
658,C#4,89.75,0.5,107,98.0
659,B-3,89.75,0.5,107,98.0
660,F#3,89.75,0.5,107,98.0
661,E-2,90.25,0.25,95,98.0
662,F4,90.25,0.25,71,98.0
663,C#4,90.25,0.25,71,98.0
664,B-3,90.25,0.25,71,98.0
665,F#3,90.25,0.25,71,98.0
666,F4,90.25,0.25,71,98.0
667,C#4,90.25,0.25,71,98.0
668,B-3,90.25,0.25,71,98.0
669,F#3,90.25,0.25,71,98.0
670,B-4,90.75,0.25,95,98.0
671,B-1,90.75,0.25,95,98.0
672,G#4,91.25,0.25,95,98.0
673,B-1,91.25,0.25,95,98.0
674,E-4,91.25,0.25,79,98.0
675,C4,91.25,0.25,79,98.0
676,G#3,91.25,0.25,79,98.0
677,E-4,91.25,0.25,79,98.0
678,C4,91.25,0.25,79,98.0
679,G#3,91.25,0.25,79,98.0
680,E-4,91.5,0.25,95,98.0
681,C#4,91.75,0.25,95,98.0
682,C#4,91.75,0.25,63,98.0
683,C#4,91.75,0.25,63,98.0
684,B-1,91.75,0.25,95,98.0
685,E-4,92.0,0.25,95,98.0
686,C#2,92.0,0.25,95,98.0
687,E-4,92.0,0.25,79,98.0
688,C4,92.0,0.25,79,98.0
689,G#3,92.0,0.25,79,98.0
690,E-4,92.0,0.25,79,98.0
691,C4,92.0,0.25,79,98.0
692,G#3,92.0,0.25,79,98.0
693,F4,92.25,0.25,95,98.0
694,F4,92.5,0.5,95,98.0
695,E-2,92.5,0.25,95,98.0
696,F4,92.5,0.25,79,98.0
697,C#4,92.5,0.25,79,98.0
698,G#3,92.5,0.25,79,98.0
699,F4,92.5,0.25,79,98.0
700,C#4,92.5,0.25,79,98.0
701,G#3,92.5,0.25,79,98.0
702,F4,93.0,0.25,95,98.0
703,B-1,93.0,0.5,95,98.0
704,F#4,93.25,0.25,79,98.0
705,F4,93.5,2.0,63,98.0
706,B-1,93.5,0.25,95,98.0
707,C#2,93.75,0.5,95,98.0
708,F4,93.75,0.5,99,98.0
709,C#4,93.75,0.5,99,98.0
710,B-3,93.75,0.5,99,98.0
711,F#3,93.75,0.5,99,98.0
712,F4,93.75,0.5,99,98.0
713,C#4,93.75,0.5,99,98.0
714,B-3,93.75,0.5,99,98.0
715,F#3,93.75,0.5,99,98.0
716,E-2,94.25,0.25,95,98.0
717,F4,94.25,0.25,71,98.0
718,C#4,94.25,0.25,71,98.0
719,B-3,94.25,0.25,71,98.0
720,F#3,94.25,0.25,71,98.0
721,F4,94.25,0.25,71,98.0
722,C#4,94.25,0.25,71,98.0
723,B-3,94.25,0.25,71,98.0
724,F#3,94.25,0.25,71,98.0
725,B-1,94.75,0.25,95,98.0
726,F4,94.75,0.25,99,98.0
727,C#4,94.75,0.25,99,98.0
728,B-3,94.75,0.25,99,98.0
729,F#3,94.75,0.25,99,98.0
730,F4,94.75,0.25,99,98.0
731,C#4,94.75,0.25,99,98.0
732,B-3,94.75,0.25,99,98.0
733,F#3,94.75,0.25,99,98.0
734,B-1,95.25,0.25,95,98.0
735,G#4,95.25,0.25,100,98.0
736,E-4,95.25,0.25,100,98.0
737,C4,95.25,0.25,100,98.0
738,G#4,95.25,0.25,100,98.0
739,E-4,95.25,0.25,100,98.0
740,C4,95.25,0.25,100,98.0
741,B-3,95.75,0.25,95,98.0
742,B-1,95.75,0.25,95,98.0
743,C#4,96.0,0.25,95,98.0
744,E-2,96.0,0.25,95,98.0
745,G#4,96.0,0.5,95,98.0
746,E-4,96.0,0.5,95,98.0
747,C4,96.0,0.5,95,98.0
748,G#4,96.0,0.5,95,98.0
749,E-4,96.0,0.5,95,98.0
750,C4,96.0,0.5,95,98.0
751,E-4,96.5,0.25,95,98.0
752,F2,96.5,0.25,95,98.0
753,G#4,96.5,0.25,95,98.0
754,E-4,96.5,0.25,95,98.0
755,C4,96.5,0.25,95,98.0
756,G#4,96.5,0.25,95,98.0
757,E-4,96.5,0.25,95,98.0
758,C4,96.5,0.25,95,98.0
759,F4,97.0,0.75,95,98.0
760,D2,97.0,0.5,95,98.0
761,C4,97.0,1.0,95,98.0
762,A3,97.0,1.0,95,98.0
763,F3,97.0,1.0,95,98.0
764,C4,97.75,0.5,95,98.0
765,F1,97.75,0.5,95,98.0
766,G4,98.25,0.25,95,98.0
767,G1,98.25,0.25,95,98.0
768,C4,98.25,0.25,95,98.0
769,A3,98.25,0.25,95,98.0
770,F3,98.25,0.25,95,98.0
771,G4,98.75,0.25,95,98.0
772,G1,98.75,0.25,95,98.0
773,D4,98.75,0.25,95,98.0
774,B-3,98.75,0.25,95,98.0
775,G3,98.75,0.25,95,98.0
776,G1,99.25,0.25,111,98.0
777,E2,99.5,1.0,95,98.0
778,C4,99.5,1.5,95,98.0
779,G3,99.5,1.5,95,98.0
780,E3,99.5,1.5,95,98.0
781,D4,100.25,0.25,95,98.0
782,G4,100.5,0.25,95,98.0
783,C2,100.5,0.5,95,98.0
784,A4,100.75,0.25,95,98.0
785,G#4,101.0,0.5,95,98.0
786,C2,101.0,0.5,63,98.0
787,D4,101.0,1.0,95,98.0
788,B-3,101.0,1.0,95,98.0
789,G3,101.0,1.0,95,98.0
790,B-4,101.0,4.0,95,98.0
791,F4,101.0,4.0,95,98.0
792,A4,101.5,0.25,95,98.0
793,G4,101.75,0.25,95,98.0
794,C2,101.75,0.25,95,98.0
795,G4,102.25,0.25,95,98.0
796,B-1,102.25,0.25,95,98.0
797,D4,102.25,0.25,95,98.0
798,B-3,102.25,0.25,95,98.0
799,G3,102.25,0.25,95,98.0
800,C5,102.75,0.75,95,98.0
801,C2,102.75,0.25,95,98.0
802,F4,102.75,1.5,95,98.0
803,C4,102.75,1.5,95,98.0
804,A3,102.75,1.5,95,98.0
805,C2,103.25,0.25,63,98.0
806,B-4,103.5,0.25,47,98.0
807,E-2,103.5,1.0,95,98.0
808,C5,103.75,0.25,95,98.0
809,D5,104.25,0.25,95,98.0
810,B-1,104.5,0.5,95,98.0
811,F4,104.5,0.5,95,98.0
812,C4,104.5,0.5,95,98.0
813,A3,104.5,0.5,95,98.0
814,B-4,104.75,0.25,95,98.0
815,B-4,105.0,0.25,95,98.0
816,G1,105.0,0.5,95,98.0
817,D4,105.0,1.0,95,98.0
818,B-3,105.0,1.0,95,98.0
819,G3,105.0,1.0,95,98.0
820,G#4,105.0,4.0,95,98.0
821,F4,105.0,4.0,95,98.0
822,C5,105.25,0.25,63,98.0
823,B-4,105.5,0.25,95,98.0
824,G4,105.75,0.5,95,98.0
825,G1,105.75,0.5,95,98.0
826,F1,106.25,0.25,95,98.0
827,D4,106.25,0.25,95,98.0
828,B-3,106.25,0.25,95,98.0
829,G3,106.25,0.25,95,98.0
830,G1,106.75,0.25,95,98.0
831,F4,106.75,1.5,95,98.0
832,C4,106.75,1.5,95,98.0
833,A3,106.75,1.5,95,98.0
834,G4,107.25,0.25,95,98.0
835,G1,107.25,0.25,95,98.0
836,E2,107.5,0.75,95,98.0
837,C4,107.75,0.75,95,98.0
838,D2,108.25,0.25,63,98.0
839,D4,108.5,0.5,95,98.0
840,C2,108.5,0.25,95,98.0
841,F4,108.5,0.5,95,98.0
842,C4,108.5,0.5,95,98.0
843,A3,108.5,0.5,95,98.0
844,D2,108.75,0.25,95,98.0
845,D4,109.0,0.5,95,98.0
846,G#4,109.0,1.0,95,98.0
847,C2,109.0,0.5,95,98.0
848,D4,109.0,1.0,95,98.0
849,B-3,109.0,1.0,95,98.0
850,G3,109.0,1.0,95,98.0
851,G4,109.5,0.25,95,98.0
852,D4,109.75,1.0,95,98.0
853,D2,109.75,0.5,95,98.0
854,B-4,110.0,3.0,95,98.0
855,F4,110.0,3.0,95,98.0
856,B-1,110.25,0.25,95,98.0
857,D4,110.25,0.25,95,98.0
858,B-3,110.25,0.25,95,98.0
859,G3,110.25,0.25,95,98.0
860,C2,110.75,0.5,95,98.0
861,F4,110.75,1.5,95,98.0
862,C4,110.75,1.5,95,98.0
863,A3,110.75,1.5,95,98.0
864,D2,111.5,0.25,95,98.0
865,B-1,111.75,1.0,95,98.0
866,C5,112.0,0.25,95,98.0
867,C5,112.0,0.25,95,98.0
868,D5,112.25,0.25,95,98.0
869,D5,112.25,0.25,95,98.0
870,C5,112.5,0.25,63,98.0
871,C5,112.5,0.25,63,98.0
872,F4,112.5,0.5,95,98.0
873,C4,112.5,0.5,95,98.0
874,A3,112.5,0.5,95,98.0
875,F5,112.75,0.25,63,98.0
876,F5,112.75,0.25,63,98.0
877,B-1,113.0,0.25,63,98.0
878,G#4,113.0,4.0,95,98.0
879,F4,113.0,4.0,95,98.0
880,B-1,113.25,0.25,79,98.0
881,G4,113.75,0.375,95,98.0
882,C2,113.75,0.5,95,98.0
883,F4,113.75,0.5,99,98.0
884,D4,113.75,0.5,99,98.0
885,C4,113.75,0.5,99,98.0
886,A3,113.75,0.5,99,98.0
887,F4,113.75,0.5,99,98.0
888,D4,113.75,0.5,99,98.0
889,C4,113.75,0.5,99,98.0
890,A3,113.75,0.5,99,98.0
891,F4,114.25,0.5,95,98.0
892,A1,114.25,0.25,95,98.0
893,B-3,114.25,0.25,47,98.0
894,A3,114.25,0.25,47,98.0
895,F4,114.75,0.5,95,98.0
896,B-1,114.75,0.25,95,98.0
897,F4,114.75,0.25,99,98.0
898,D4,114.75,0.25,99,98.0
899,C4,114.75,0.25,99,98.0
900,A3,114.75,0.25,99,98.0
901,F4,114.75,0.25,99,98.0
902,D4,114.75,0.25,99,98.0
903,C4,114.75,0.25,99,98.0
904,A3,114.75,0.25,99,98.0
905,E-4,115.25,0.25,95,98.0
906,B-3,115.25,0.25,47,98.0
907,A3,115.25,0.25,47,98.0
908,D4,115.5,0.5,95,98.0
909,C2,115.5,0.5,95,98.0
910,F4,115.5,1.5,99,98.0
911,D4,115.5,1.5,99,98.0
912,C4,115.5,1.5,99,98.0
913,A3,115.5,1.5,99,98.0
914,F4,115.5,1.5,99,98.0
915,D4,115.5,1.5,99,98.0
916,C4,115.5,1.5,99,98.0
917,A3,115.5,1.5,99,98.0
918,B-3,116.0,0.5,95,98.0
919,F1,116.0,0.25,63,98.0
920,A1,116.25,0.25,63,98.0
921,C4,116.5,0.5,95,98.0
922,B-1,116.5,0.25,63,98.0
923,C2,116.75,0.25,63,98.0
924,C4,117.0,0.75,95,98.0
925,B-1,117.0,0.25,63,98.0
926,B-1,117.25,0.25,79,98.0
927,C4,117.75,0.5,95,98.0
928,C2,117.75,0.5,95,98.0
929,A4,117.75,0.5,91,98.0
930,D4,117.75,0.5,91,98.0
931,B-3,117.75,0.5,91,98.0
932,F3,117.75,0.5,91,98.0
933,F4,117.75,0.5,91,98.0
934,D4,117.75,0.5,91,98.0
935,C4,117.75,0.5,91,98.0
936,A3,117.75,0.5,91,98.0
937,D4,118.25,0.375,95,98.0
938,A1,118.25,0.25,95,98.0
939,B-3,118.25,0.25,47,98.0
940,A3,118.25,0.25,47,98.0
941,B-1,118.75,0.25,95,98.0
942,F4,118.75,0.25,99,98.0
943,D4,118.75,0.25,99,98.0
944,C4,118.75,0.25,99,98.0
945,A3,118.75,0.25,99,98.0
946,F4,118.75,0.25,99,98.0
947,D4,118.75,0.25,99,98.0
948,C4,118.75,0.25,99,98.0
949,A3,118.75,0.25,99,98.0
950,B-3,119.25,0.25,47,98.0
951,A3,119.25,0.25,47,98.0
952,E-2,119.5,0.75,95,98.0
953,B-4,119.5,1.5,99,98.0
954,G4,119.5,1.5,99,98.0
955,E-4,119.5,1.5,99,98.0
956,D4,119.5,1.5,99,98.0
957,B-4,119.5,1.5,99,98.0
958,G4,119.5,1.5,99,98.0
959,E-4,119.5,1.5,99,98.0
960,D4,119.5,1.5,99,98.0
961,B-3,119.75,0.375,95,98.0
962,E-4,120.25,0.5,95,98.0
963,D2,120.25,0.25,63,98.0
964,B-1,120.5,0.25,63,98.0
965,F4,120.75,0.25,95,98.0
966,C2,120.75,0.25,63,98.0
967,F4,121.0,0.75,95,98.0
968,B-1,121.0,0.25,63,98.0
969,B-1,121.25,0.25,79,98.0
970,F4,121.75,0.5,95,98.0
971,C2,121.75,0.5,95,98.0
972,F4,121.75,0.5,99,98.0
973,D4,121.75,0.5,99,98.0
974,C4,121.75,0.5,99,98.0
975,A3,121.75,0.5,99,98.0
976,F4,121.75,0.5,99,98.0
977,D4,121.75,0.5,99,98.0
978,C4,121.75,0.5,99,98.0
979,A3,121.75,0.5,99,98.0
980,G4,122.25,0.25,95,98.0
981,A1,122.25,0.25,95,98.0
982,B-3,122.25,0.25,47,98.0
983,A3,122.25,0.25,47,98.0
984,B-4,122.75,0.5,95,98.0
985,B-1,122.75,0.25,95,98.0
986,F4,122.75,0.25,99,98.0
987,D4,122.75,0.25,99,98.0
988,C4,122.75,0.25,99,98.0
989,A3,122.75,0.25,99,98.0
990,F4,122.75,0.25,99,98.0
991,D4,122.75,0.25,99,98.0
992,C4,122.75,0.25,99,98.0
993,A3,122.75,0.25,99,98.0
994,B-4,123.25,0.5,95,98.0
995,B-3,123.25,0.25,47,98.0
996,A3,123.25,0.25,47,98.0
997,C2,123.5,0.5,95,98.0
998,F4,123.5,1.5,99,98.0
999,D4,123.5,1.5,99,98.0
1000,C4,123.5,1.5,99,98.0
1001,A3,123.5,1.5,99,98.0
1002,F4,123.5,1.5,99,98.0
1003,D4,123.5,1.5,99,98.0
1004,C4,123.5,1.5,99,98.0
1005,A3,123.5,1.5,99,98.0
1006,C5,123.75,0.25,95,98.0
1007,G4,124.0,0.5,95,98.0
1008,F1,124.0,0.25,63,98.0
1009,A1,124.25,0.25,63,98.0
1010,F4,124.5,0.5,95,98.0
1011,B-1,124.5,0.25,63,98.0
1012,C2,124.75,0.25,63,98.0
1013,F4,125.0,1.0,95,98.0
1014,B-1,125.0,0.25,95,98.0
1015,F1,125.75,0.25,95,98.0
1016,F4,125.75,0.5,91,98.0
1017,D4,125.75,0.5,91,98.0
1018,C4,125.75,0.5,91,98.0
1019,A3,125.75,0.5,91,98.0
1020,F4,125.75,0.5,91,98.0
1021,D4,125.75,0.5,91,98.0
1022,C4,125.75,0.5,91,98.0
1023,A3,125.75,0.5,91,98.0
1024,B-1,126.25,0.25,95,98.0
1025,B-3,126.25,0.25,47,98.0
1026,A3,126.25,0.25,47,98.0
1027,B-3,126.25,0.25,47,98.0
1028,A3,126.25,0.25,47,98.0
1029,C2,127.5,0.25,95,98.0
1030,G4,127.5,0.25,95,98.0
1031,E-4,127.5,0.25,95,98.0
1032,C4,127.5,0.25,95,98.0
1033,B-3,127.5,0.25,95,98.0
1034,G4,127.5,0.25,95,98.0
1035,E-4,127.5,0.25,95,98.0
1036,C4,127.5,0.25,95,98.0
1037,B-3,127.5,0.25,95,98.0
1038,G#4,128.25,0.5,95,98.0
1039,F1,128.25,0.75,95,98.0
1040,B-4,128.25,0.5,95,98.0
1041,F4,128.25,0.5,95,98.0
1042,C4,128.25,0.5,95,98.0
1043,A3,128.25,0.5,95,98.0
1044,B-4,128.25,0.25,95,98.0
1045,F4,128.25,0.25,95,98.0
1046,C4,128.25,0.25,95,98.0
1047,A3,128.25,0.25,95,98.0
1048,C5,128.75,0.25,95,98.0
1049,C5,129.0,0.75,95,98.0
1050,B-1,129.0,0.25,63,98.0
1051,B-1,129.25,0.25,79,98.0
1052,C5,129.75,0.5,95,98.0
1053,C2,129.75,0.5,95,98.0
1054,F4,129.75,0.5,99,98.0
1055,D4,129.75,0.5,99,98.0
1056,C4,129.75,0.5,99,98.0
1057,A3,129.75,0.5,99,98.0
1058,F4,129.75,0.5,99,98.0
1059,D4,129.75,0.5,99,98.0
1060,C4,129.75,0.5,99,98.0
1061,A3,129.75,0.5,99,98.0
1062,B-4,130.25,0.25,95,98.0
1063,A1,130.25,0.25,95,98.0
1064,B-3,130.25,0.25,47,98.0
1065,A3,130.25,0.25,47,98.0
1066,B-4,130.75,0.75,95,98.0
1067,B-1,130.75,0.25,95,98.0
1068,F4,130.75,0.25,99,98.0
1069,D4,130.75,0.25,99,98.0
1070,C4,130.75,0.25,99,98.0
1071,A3,130.75,0.25,99,98.0
1072,F4,130.75,0.25,99,98.0
1073,D4,130.75,0.25,99,98.0
1074,C4,130.75,0.25,99,98.0
1075,A3,130.75,0.25,99,98.0
1076,B-3,131.25,0.25,47,98.0
1077,A3,131.25,0.25,47,98.0
1078,C5,131.5,0.25,95,98.0
1079,C2,131.5,0.5,95,98.0
1080,F4,131.5,1.5,99,98.0
1081,D4,131.5,1.5,99,98.0
1082,C4,131.5,1.5,99,98.0
1083,A3,131.5,1.5,99,98.0
1084,F4,131.5,1.5,99,98.0
1085,D4,131.5,1.5,99,98.0
1086,C4,131.5,1.5,99,98.0
1087,A3,131.5,1.5,99,98.0
1088,F4,131.75,0.25,95,98.0
1089,F5,132.0,0.25,95,98.0
1090,F1,132.0,0.25,63,98.0
1091,A1,132.25,0.25,63,98.0
1092,D5,132.5,0.5,95,98.0
1093,B-1,132.5,0.25,63,98.0
1094,C2,132.75,0.25,63,98.0
1095,D5,133.0,0.75,95,98.0
1096,B-1,133.0,0.25,63,98.0
1097,B-1,133.25,0.25,79,98.0
1098,C5,133.75,0.375,95,98.0
1099,C2,133.75,0.5,95,98.0
1100,A4,133.75,0.5,91,98.0
1101,D4,133.75,0.5,91,98.0
1102,B-3,133.75,0.5,91,98.0
1103,F3,133.75,0.5,91,98.0
1104,F4,133.75,0.5,91,98.0
1105,D4,133.75,0.5,91,98.0
1106,C4,133.75,0.5,91,98.0
1107,A3,133.75,0.5,91,98.0
1108,B-4,134.25,0.25,95,98.0
1109,A1,134.25,0.25,95,98.0
1110,B-3,134.25,0.25,47,98.0
1111,A3,134.25,0.25,47,98.0
1112,B-4,134.75,0.75,95,98.0
1113,B-1,134.75,0.25,95,98.0
1114,F4,134.75,0.25,99,98.0
1115,D4,134.75,0.25,99,98.0
1116,C4,134.75,0.25,99,98.0
1117,A3,134.75,0.25,99,98.0
1118,F4,134.75,0.25,99,98.0
1119,D4,134.75,0.25,99,98.0
1120,C4,134.75,0.25,99,98.0
1121,A3,134.75,0.25,99,98.0
1122,B-3,135.25,0.25,47,98.0
1123,A3,135.25,0.25,47,98.0
1124,B-4,135.5,0.25,95,98.0
1125,E-2,135.5,0.75,95,98.0
1126,B-4,135.5,1.5,99,98.0
1127,G4,135.5,1.5,99,98.0
1128,E-4,135.5,1.5,99,98.0
1129,D4,135.5,1.5,99,98.0
1130,B-4,135.5,1.5,99,98.0
1131,G4,135.5,1.5,99,98.0
1132,E-4,135.5,1.5,99,98.0
1133,D4,135.5,1.5,99,98.0
1134,C5,135.75,0.25,95,98.0
1135,G4,136.0,0.5,95,98.0
1136,D2,136.25,0.25,63,98.0
1137,F4,136.5,0.5,95,98.0
1138,B-1,136.5,0.25,63,98.0
1139,C2,136.75,0.25,63,98.0
1140,B-1,137.0,0.25,63,98.0
1141,B-1,137.25,0.25,79,98.0
1142,C2,137.75,0.5,95,98.0
1143,F4,137.75,0.5,99,98.0
1144,D4,137.75,0.5,99,98.0
1145,C4,137.75,0.5,99,98.0
1146,A3,137.75,0.5,99,98.0
1147,F4,137.75,0.5,99,98.0
1148,D4,137.75,0.5,99,98.0
1149,C4,137.75,0.5,99,98.0
1150,A3,137.75,0.5,99,98.0
1151,A1,138.25,0.25,95,98.0
1152,B-3,138.25,0.25,47,98.0
1153,A3,138.25,0.25,47,98.0
1154,F4,138.75,0.25,95,98.0
1155,B-1,138.75,0.25,95,98.0
1156,F4,138.75,0.25,99,98.0
1157,D4,138.75,0.25,99,98.0
1158,C4,138.75,0.25,99,98.0
1159,A3,138.75,0.25,99,98.0
1160,F4,138.75,0.25,99,98.0
1161,D4,138.75,0.25,99,98.0
1162,C4,138.75,0.25,99,98.0
1163,A3,138.75,0.25,99,98.0
1164,E-4,139.25,0.25,95,98.0
1165,B-3,139.25,0.25,47,98.0
1166,A3,139.25,0.25,47,98.0
1167,D4,139.5,0.25,95,98.0
1168,C2,139.5,0.5,95,98.0
1169,F4,139.5,1.5,99,98.0
1170,D4,139.5,1.5,99,98.0
1171,C4,139.5,1.5,99,98.0
1172,A3,139.5,1.5,99,98.0
1173,F4,139.5,1.5,99,98.0
1174,D4,139.5,1.5,99,98.0
1175,C4,139.5,1.5,99,98.0
1176,A3,139.5,1.5,99,98.0
1177,B-3,140.0,0.5,95,98.0
1178,F1,140.0,0.25,63,98.0
1179,A1,140.25,0.25,63,98.0
1180,C4,140.5,0.5,95,98.0
1181,B-1,140.5,0.25,63,98.0
1182,C2,140.75,0.25,63,98.0
1183,C4,141.0,0.75,95,98.0
1184,B-1,141.0,0.25,63,98.0
1185,B-1,141.25,0.25,79,98.0
1186,C4,141.75,0.5,95,98.0
1187,C2,141.75,0.5,95,98.0
1188,A4,141.75,0.5,91,98.0
1189,D4,141.75,0.5,91,98.0
1190,B-3,141.75,0.5,91,98.0
1191,F3,141.75,0.5,91,98.0
1192,F4,141.75,0.5,91,98.0
1193,D4,141.75,0.5,91,98.0
1194,C4,141.75,0.5,91,98.0
1195,A3,141.75,0.5,91,98.0
1196,D4,142.25,0.25,95,98.0
1197,A1,142.25,0.25,95,98.0
1198,B-3,142.25,0.25,47,98.0
1199,A3,142.25,0.25,47,98.0
1200,B-1,142.75,0.25,95,98.0
1201,F4,142.75,0.25,99,98.0
1202,D4,142.75,0.25,99,98.0
1203,C4,142.75,0.25,99,98.0
1204,A3,142.75,0.25,99,98.0
1205,F4,142.75,0.25,99,98.0
1206,D4,142.75,0.25,99,98.0
1207,C4,142.75,0.25,99,98.0
1208,A3,142.75,0.25,99,98.0
1209,B-3,143.25,0.25,47,98.0
1210,A3,143.25,0.25,47,98.0
1211,E-2,143.5,0.75,95,98.0
1212,B-4,143.5,1.5,99,98.0
1213,G4,143.5,1.5,99,98.0
1214,E-4,143.5,1.5,99,98.0
1215,D4,143.5,1.5,99,98.0
1216,B-4,143.5,1.5,99,98.0
1217,G4,143.5,1.5,99,98.0
1218,E-4,143.5,1.5,99,98.0
1219,D4,143.5,1.5,99,98.0
1220,B-3,144.0,0.25,95,98.0
1221,C4,144.25,0.25,95,98.0
1222,D2,144.25,0.25,63,98.0
1223,D4,144.5,0.25,95,98.0
1224,B-1,144.5,0.25,63,98.0
1225,E-4,144.75,0.25,95,98.0
1226,C2,144.75,0.25,63,98.0
1227,F4,145.0,0.75,95,98.0
1228,E-2,145.0,0.75,95,98.0
1229,F4,145.75,0.5,95,98.0
1230,C#2,145.75,0.5,95,98.0
1231,F4,145.75,0.5,107,98.0
1232,C#4,145.75,0.5,107,98.0
1233,B-3,145.75,0.5,107,98.0
1234,F#3,145.75,0.5,107,98.0
1235,E-4,146.25,0.5,95,98.0
1236,F4,146.25,0.25,71,98.0
1237,C#4,146.25,0.25,71,98.0
1238,B-3,146.25,0.25,71,98.0
1239,F#3,146.25,0.25,71,98.0
1240,F4,146.75,0.75,95,98.0
1241,B-1,146.75,0.25,95,98.0
1242,B-1,147.25,0.25,95,98.0
1243,E-4,147.25,0.25,79,98.0
1244,C4,147.25,0.25,79,98.0
1245,G#3,147.25,0.25,79,98.0
1246,B-4,147.5,0.25,95,98.0
1247,C#2,147.5,0.25,95,98.0
1248,F4,147.75,0.25,95,98.0
1249,C#4,147.75,0.25,63,98.0
1250,B-1,147.75,0.25,95,98.0
1251,C#5,148.0,0.5,95,98.0
1252,E-2,148.0,0.25,95,98.0
1253,E-4,148.0,0.25,79,98.0
1254,C4,148.0,0.25,79,98.0
1255,G#3,148.0,0.25,79,98.0
1256,B-4,148.5,0.5,95,98.0
1257,F2,148.5,0.25,95,98.0
1258,F4,148.5,0.25,79,98.0
1259,C#4,148.5,0.25,79,98.0
1260,G#3,148.5,0.25,79,98.0
1261,B-4,149.0,1.5,95,98.0
1262,B-1,149.0,0.5,95,98.0
1263,B-1,149.5,0.25,95,98.0
1264,C#2,149.75,0.5,95,98.0
1265,C#4,149.75,0.5,111,98.0
1266,B-3,149.75,0.5,111,98.0
1267,F#3,149.75,0.5,111,98.0
1268,C#4,149.75,0.5,111,98.0
1269,B-3,149.75,0.5,111,98.0
1270,F#3,149.75,0.5,111,98.0
1271,E-2,150.25,0.25,95,98.0
1272,C#4,150.25,0.25,63,98.0
1273,B-3,150.25,0.25,63,98.0
1274,F#3,150.25,0.25,63,98.0
1275,C#4,150.25,0.25,63,98.0
1276,B-3,150.25,0.25,63,98.0
1277,F#3,150.25,0.25,63,98.0
1278,E-5,150.75,0.25,95,98.0
1279,B-1,150.75,0.25,95,98.0
1280,E-5,151.25,0.25,95,98.0
1281,B-1,151.25,0.25,95,98.0
1282,E-4,151.25,0.25,79,98.0
1283,C4,151.25,0.25,79,98.0
1284,G#3,151.25,0.25,79,98.0
1285,E-4,151.25,0.25,79,98.0
1286,C4,151.25,0.25,79,98.0
1287,G#3,151.25,0.25,79,98.0
1288,E-4,151.5,0.25,95,98.0
1289,G#1,151.5,0.5,95,98.0
1290,C#5,151.75,0.25,95,98.0
1291,C#4,151.75,0.25,63,98.0
1292,C#4,151.75,0.25,63,98.0
1293,E-5,152.0,0.25,95,98.0
1294,E-2,152.0,0.25,95,98.0
1295,E-4,152.0,0.25,79,98.0
1296,C4,152.0,0.25,79,98.0
1297,G#3,152.0,0.25,79,98.0
1298,E-4,152.0,0.25,79,98.0
1299,C4,152.0,0.25,79,98.0
1300,G#3,152.0,0.25,79,98.0
1301,F5,152.25,0.25,63,98.0
1302,F4,152.25,0.25,95,98.0
1303,E-2,152.25,0.25,95,98.0
1304,C#5,152.5,0.5,95,98.0
1305,C#2,152.5,0.5,95,98.0
1306,F4,152.5,0.25,79,98.0
1307,C#4,152.5,0.25,79,98.0
1308,G#3,152.5,0.25,79,98.0
1309,F4,152.5,0.25,79,98.0
1310,C#4,152.5,0.25,79,98.0
1311,G#3,152.5,0.25,79,98.0
1312,C#5,153.0,1.5,95,98.0
1313,B-1,153.0,0.5,95,98.0
1314,B-1,153.5,0.25,95,98.0
1315,C#2,153.75,0.5,95,98.0
1316,F4,153.75,0.5,107,98.0
1317,C#4,153.75,0.5,107,98.0
1318,B-3,153.75,0.5,107,98.0
1319,F#3,153.75,0.5,107,98.0
1320,F4,153.75,0.5,107,98.0
1321,C#4,153.75,0.5,107,98.0
1322,B-3,153.75,0.5,107,98.0
1323,F#3,153.75,0.5,107,98.0
1324,E-2,154.25,0.25,95,98.0
1325,F4,154.25,0.25,71,98.0
1326,C#4,154.25,0.25,71,98.0
1327,B-3,154.25,0.25,71,98.0
1328,F#3,154.25,0.25,71,98.0
1329,F4,154.25,0.25,71,98.0
1330,C#4,154.25,0.25,71,98.0
1331,B-3,154.25,0.25,71,98.0
1332,F#3,154.25,0.25,71,98.0
1333,B-4,154.75,0.25,95,98.0
1334,B-1,154.75,0.25,95,98.0
1335,G#4,155.25,0.25,95,98.0
1336,B-1,155.25,0.25,95,98.0
1337,E-4,155.25,0.25,79,98.0
1338,C4,155.25,0.25,79,98.0
1339,G#3,155.25,0.25,79,98.0
1340,E-4,155.25,0.25,79,98.0
1341,C4,155.25,0.25,79,98.0
1342,G#3,155.25,0.25,79,98.0
1343,E-4,155.5,0.25,95,98.0
1344,C#4,155.75,0.25,95,98.0
1345,C#4,155.75,0.25,63,98.0
1346,C#4,155.75,0.25,63,98.0
1347,B-1,155.75,0.25,95,98.0
1348,E-4,156.0,0.25,95,98.0
1349,C#2,156.0,0.25,95,98.0
1350,E-4,156.0,0.25,79,98.0
1351,C4,156.0,0.25,79,98.0
1352,G#3,156.0,0.25,79,98.0
1353,E-4,156.0,0.25,79,98.0
1354,C4,156.0,0.25,79,98.0
1355,G#3,156.0,0.25,79,98.0
1356,F4,156.25,0.25,95,98.0
1357,F4,156.5,0.5,95,98.0
1358,E-2,156.5,0.25,95,98.0
1359,F4,156.5,0.25,79,98.0
1360,C#4,156.5,0.25,79,98.0
1361,G#3,156.5,0.25,79,98.0
1362,F4,156.5,0.25,79,98.0
1363,C#4,156.5,0.25,79,98.0
1364,G#3,156.5,0.25,79,98.0
1365,F4,157.0,0.25,95,98.0
1366,B-1,157.0,0.5,95,98.0
1367,F#4,157.25,0.25,79,98.0
1368,F4,157.5,2.0,63,98.0
1369,B-1,157.5,0.25,95,98.0
1370,C#2,157.75,0.5,95,98.0
1371,F4,157.75,0.5,99,98.0
1372,C#4,157.75,0.5,99,98.0
1373,B-3,157.75,0.5,99,98.0
1374,F#3,157.75,0.5,99,98.0
1375,F4,157.75,0.5,99,98.0
1376,C#4,157.75,0.5,99,98.0
1377,B-3,157.75,0.5,99,98.0
1378,F#3,157.75,0.5,99,98.0
1379,E-2,158.25,0.25,95,98.0
1380,F4,158.25,0.25,71,98.0
1381,C#4,158.25,0.25,71,98.0
1382,B-3,158.25,0.25,71,98.0
1383,F#3,158.25,0.25,71,98.0
1384,F4,158.25,0.25,71,98.0
1385,C#4,158.25,0.25,71,98.0
1386,B-3,158.25,0.25,71,98.0
1387,F#3,158.25,0.25,71,98.0
1388,B-1,158.75,0.25,95,98.0
1389,F4,158.75,0.25,99,98.0
1390,C#4,158.75,0.25,99,98.0
1391,B-3,158.75,0.25,99,98.0
1392,F#3,158.75,0.25,99,98.0
1393,F4,158.75,0.25,99,98.0
1394,C#4,158.75,0.25,99,98.0
1395,B-3,158.75,0.25,99,98.0
1396,F#3,158.75,0.25,99,98.0
1397,B-1,159.25,0.25,95,98.0
1398,G#4,159.25,0.25,100,98.0
1399,E-4,159.25,0.25,100,98.0
1400,C4,159.25,0.25,100,98.0
1401,G#4,159.25,0.25,100,98.0
1402,E-4,159.25,0.25,100,98.0
1403,C4,159.25,0.25,100,98.0
1404,B-3,159.75,0.25,95,98.0
1405,B-1,159.75,0.25,95,98.0
1406,C#4,160.0,0.25,95,98.0
1407,E-2,160.0,0.25,95,98.0
1408,G#4,160.0,0.5,95,98.0
1409,E-4,160.0,0.5,95,98.0
1410,C4,160.0,0.5,95,98.0
1411,G#4,160.0,0.5,95,98.0
1412,E-4,160.0,0.5,95,98.0
1413,C4,160.0,0.5,95,98.0
1414,E-4,160.5,0.25,95,98.0
1415,F2,160.5,0.25,95,98.0
1416,G#4,160.5,0.25,95,98.0
1417,E-4,160.5,0.25,95,98.0
1418,C4,160.5,0.25,95,98.0
1419,G#4,160.5,0.25,95,98.0
1420,E-4,160.5,0.25,95,98.0
1421,C4,160.5,0.25,95,98.0
1422,F4,161.0,0.75,95,98.0
1423,D2,161.0,0.5,95,98.0
1424,C4,161.0,1.0,95,98.0
1425,A3,161.0,1.0,95,98.0
1426,F3,161.0,1.0,95,98.0
1427,C4,161.75,0.5,95,98.0
1428,F1,161.75,0.5,95,98.0
1429,G4,162.25,0.25,95,98.0
1430,G1,162.25,0.25,95,98.0
1431,C4,162.25,0.25,95,98.0
1432,A3,162.25,0.25,95,98.0
1433,F3,162.25,0.25,95,98.0
1434,G4,162.75,0.25,95,98.0
1435,G1,162.75,0.25,95,98.0
1436,D4,162.75,0.25,95,98.0
1437,B-3,162.75,0.25,95,98.0
1438,G3,162.75,0.25,95,98.0
1439,G1,163.25,0.25,111,98.0
1440,C5,163.25,0.25,63,98.0
1441,G4,163.25,0.25,63,98.0
1442,G5,163.25,0.25,111,98.0
1443,D5,163.25,0.25,111,98.0
1444,G4,163.25,0.25,111,98.0
1445,E2,163.5,1.0,95,98.0
1446,C5,163.5,0.5,63,98.0
1447,G4,163.5,0.5,63,98.0
1448,G5,163.5,0.5,111,98.0
1449,D5,163.5,0.5,111,98.0
1450,G4,163.5,0.5,111,98.0
1451,D4,164.25,0.25,95,98.0
1452,G4,164.5,0.25,95,98.0
1453,C2,164.5,0.5,95,98.0
1454,A4,164.75,0.25,95,98.0
1455,G#4,165.0,0.5,95,98.0
1456,C2,165.0,0.5,63,98.0
1457,D4,165.0,1.0,95,98.0
1458,B-3,165.0,1.0,95,98.0
1459,G3,165.0,1.0,95,98.0
1460,B-4,165.0,4.0,95,98.0
1461,F4,165.0,4.0,95,98.0
1462,A4,165.5,0.25,95,98.0
1463,G4,165.75,0.25,95,98.0
1464,C2,165.75,0.25,95,98.0
1465,G4,166.25,0.25,95,98.0
1466,B-1,166.25,0.25,95,98.0
1467,D4,166.25,0.25,95,98.0
1468,B-3,166.25,0.25,95,98.0
1469,G3,166.25,0.25,95,98.0
1470,C5,166.75,0.25,95,98.0
1471,C2,166.75,0.25,95,98.0
1472,F4,166.75,1.5,95,98.0
1473,C4,166.75,1.5,95,98.0
1474,A3,166.75,1.5,95,98.0
1475,F5,167.25,0.25,95,98.0
1476,C2,167.25,0.25,63,98.0
1477,E-2,167.5,1.0,95,98.0
1478,C5,167.75,0.25,95,98.0
1479,C5,168.25,0.25,95,98.0
1480,B-1,168.5,0.5,95,98.0
1481,F4,168.5,0.5,95,98.0
1482,C4,168.5,0.5,95,98.0
1483,A3,168.5,0.5,95,98.0
1484,B-4,168.75,0.25,95,98.0
1485,C5,169.0,0.25,95,98.0
1486,A3,169.0,1.0,95,98.0
1487,G1,169.0,0.5,95,98.0
1488,G#4,169.0,4.0,95,98.0
1489,F4,169.0,4.0,95,98.0
1490,D5,169.25,0.25,95,98.0
1491,B-4,169.5,0.25,95,98.0
1492,A4,169.75,0.25,95,98.0
1493,G1,169.75,0.5,95,98.0
1494,B-3,170.0,1.0,95,98.0
1495,G4,170.25,0.25,95,98.0
1496,F1,170.25,0.25,95,98.0
1497,G4,170.75,2.25,95,98.0
1498,G1,170.75,0.25,95,98.0
1499,C4,171.0,1.0,95,98.0
1500,G1,171.25,0.25,95,98.0
1501,E2,171.5,0.75,95,98.0
1502,D4,172.0,1.0,95,98.0
1503,D2,172.25,0.25,63,98.0
1504,C2,172.5,0.25,95,98.0
1505,D2,172.75,0.25,95,98.0
1506,G#4,173.0,1.0,95,98.0
1507,C2,173.0,0.5,95,98.0
1508,G4,173.0,1.0,63,98.0
1509,E-4,173.0,1.0,63,98.0
1510,D2,173.75,0.5,95,98.0
1511,A4,174.0,1.0,79,98.0
1512,F4,174.0,1.0,79,98.0
1513,B-4,174.0,3.0,95,98.0
1514,F4,174.0,3.0,95,98.0
1515,B-1,174.25,0.25,95,98.0
1516,C2,174.75,0.5,95,98.0
1517,B-4,175.0,1.0,95,98.0
1518,G4,175.0,1.0,95,98.0
1519,F4,175.25,0.25,95,98.0
1520,G4,175.5,0.25,95,98.0
1521,D2,175.5,0.25,95,98.0
1522,F4,175.75,0.25,95,98.0
1523,B-1,175.75,1.0,95,98.0
1524,B-4,176.0,0.5,95,98.0
1525,C5,176.0,0.5,95,98.0
1526,E-4,176.0,0.5,95,98.0
1527,B-3,176.0,0.5,95,98.0
1528,C5,176.0,1.0,111,98.0
1529,A4,176.0,1.0,111,98.0
1530,F4,176.0,1.0,111,98.0
1531,C5,176.5,0.5,95,98.0
1532,F5,176.5,0.5,95,98.0
1533,F4,176.5,0.5,95,98.0
1534,C4,176.5,0.5,95,98.0
1535,G3,177.0,0.5,95,98.0
1536,G1,177.0,1.0,95,98.0
1537,G#4,177.0,4.0,95,98.0
1538,F4,177.0,4.0,95,98.0
1539,D5,177.75,0.375,87,98.0
1540,B-4,177.75,0.375,87,98.0
1541,D5,177.75,0.375,95,98.0
1542,B-4,177.75,0.375,95,98.0
1543,G4,177.75,0.375,95,98.0
1544,G1,178.25,0.25,95,98.0
1545,D5,178.25,0.375,87,98.0
1546,B-4,178.25,0.375,87,98.0
1547,D5,178.25,0.375,95,98.0
1548,B-4,178.25,0.375,95,98.0
1549,G4,178.25,0.375,95,98.0
1550,D4,178.25,0.25,95,98.0
1551,B-3,178.25,0.25,95,98.0
1552,G3,178.25,0.25,95,98.0
1553,D4,178.25,0.25,95,98.0
1554,B-3,178.25,0.25,95,98.0
1555,G3,178.25,0.25,95,98.0
1556,B-1,178.75,1.75,95,98.0
1557,C5,178.75,1.25,87,98.0
1558,B-4,178.75,1.25,87,98.0
1559,C5,178.75,1.25,95,98.0
1560,B-4,178.75,1.25,95,98.0
1561,F4,178.75,1.25,95,98.0
1562,D4,178.75,1.0,95,98.0
1563,B-3,178.75,1.0,95,98.0
1564,F3,178.75,1.0,95,98.0
1565,D4,178.75,1.0,95,98.0
1566,B-3,178.75,1.0,95,98.0
1567,F3,178.75,1.0,95,98.0
1568,G4,180.0,0.5,87,98.0
1569,E-4,180.0,0.5,87,98.0
1570,A4,180.0,0.25,95,98.0
1571,F4,180.0,0.25,95,98.0
1572,C4,180.0,0.25,95,98.0
1573,G3,180.25,0.25,63,98.0
1574,F1,180.5,0.5,95,98.0
1575,G4,180.5,0.5,87,98.0
1576,E4,180.5,0.5,87,98.0
1577,G4,180.5,0.5,95,98.0
1578,E4,180.5,0.5,95,98.0
1579,C4,180.5,0.5,95,98.0
1580,E4,180.5,0.5,95,98.0
1581,C4,180.5,0.5,95,98.0
1582,G3,180.5,0.5,95,98.0
1583,E4,180.5,0.5,95,98.0
1584,C4,180.5,0.5,95,98.0
1585,G3,180.5,0.5,95,98.0
1586,F1,181.0,1.0,95,98.0
1587,G4,181.0,1.0,87,98.0
1588,E4,181.0,1.0,87,98.0
1589,G4,181.0,1.0,95,98.0
1590,E4,181.0,1.0,95,98.0
1591,C4,181.0,1.0,95,98.0
1592,E4,181.0,1.5,95,98.0
1593,C4,181.0,1.5,95,98.0
1594,G3,181.0,1.5,95,98.0
1595,E4,181.0,1.5,95,98.0
1596,C4,181.0,1.5,95,98.0
1597,G3,181.0,1.5,95,98.0
1598,G4,182.25,0.25,95,98.0
1599,F1,182.25,0.25,95,98.0
1600,A4,182.5,0.25,95,98.0
1601,G#4,182.75,0.25,95,98.0
1602,E-2,182.75,1.75,95,98.0
1603,D4,182.75,1.75,95,98.0
1604,B-3,182.75,1.75,95,98.0
1605,F3,182.75,1.75,95,98.0
1606,D4,182.75,1.75,95,98.0
1607,B-3,182.75,1.75,95,98.0
1608,F3,182.75,1.75,95,98.0
1609,A4,183.25,0.25,95,98.0
1610,G4,183.75,0.25,95,98.0
1611,F4,184.25,0.75,95,98.0
1612,D2,184.5,0.5,95,98.0
1613,B-3,184.5,0.5,95,98.0
1614,F3,184.5,0.5,95,98.0
1615,D4,185.0,1.0,95,98.0
1616,C2,185.0,1.0,95,98.0
1617,D4,185.0,0.5,95,98.0
1618,B-3,185.0,0.5,95,98.0
1619,G3,185.0,0.5,95,98.0
1620,D4,185.0,0.5,95,98.0
1621,B-3,185.0,0.5,95,98.0
1622,G3,185.0,0.5,95,98.0
1623,C2,186.25,0.25,95,98.0
1624,D4,186.25,0.25,95,98.0
1625,B-3,186.25,0.25,95,98.0
1626,G3,186.25,0.25,95,98.0
1627,D4,186.25,0.25,95,98.0
1628,B-3,186.25,0.25,95,98.0
1629,G3,186.25,0.25,95,98.0
1630,A4,186.75,0.5,95,98.0
1631,D2,186.75,1.75,95,98.0
1632,F4,186.75,1.0,95,98.0
1633,C4,186.75,1.0,95,98.0
1634,A3,186.75,1.0,95,98.0
1635,F4,186.75,1.0,95,98.0
1636,C4,186.75,1.0,95,98.0
1637,A3,186.75,1.0,95,98.0
1638,B-4,187.25,0.5,95,98.0
1639,A4,187.75,0.5,95,98.0
1640,F4,188.25,0.25,95,98.0
1641,G3,188.25,0.25,63,98.0
1642,F4,188.5,0.25,95,98.0
1643,C2,188.5,0.5,63,98.0
1644,F4,188.5,0.5,95,98.0
1645,C4,188.5,0.5,95,98.0
1646,A3,188.5,0.5,95,98.0
1647,F4,188.5,0.5,95,98.0
1648,C4,188.5,0.5,95,98.0
1649,A3,188.5,0.5,95,98.0
1650,D4,188.75,0.25,95,98.0
1651,G4,189.0,0.5,95,98.0
1652,G4,189.0,0.5,95,98.0
1653,A3,189.0,1.0,95,98.0
1654,E-2,189.0,1.25,95,98.0
1655,D4,189.0,0.5,95,98.0
1656,B-3,189.0,0.5,95,98.0
1657,G3,189.0,0.5,95,98.0
1658,D4,189.0,0.5,95,98.0
1659,B-3,189.0,0.5,95,98.0
1660,G3,189.0,0.5,95,98.0
1661,B-4,189.5,0.25,95,98.0
1662,B-4,189.5,0.25,95,98.0
1663,G4,189.75,1.0,95,98.0
1664,G4,189.75,1.0,95,98.0
1665,B-3,190.0,1.0,95,98.0
1666,E-2,190.25,0.5,95,98.0
1667,D4,190.25,0.25,95,98.0
1668,B-3,190.25,0.25,95,98.0
1669,G3,190.25,0.25,95,98.0
1670,D4,190.25,0.25,95,98.0
1671,B-3,190.25,0.25,95,98.0
1672,G3,190.25,0.25,95,98.0
1673,E-2,190.75,1.25,95,98.0
1674,D4,190.75,1.0,95,98.0
1675,B-3,190.75,1.0,95,98.0
1676,G3,190.75,1.0,95,98.0
1677,D4,190.75,1.0,95,98.0
1678,B-3,190.75,1.0,95,98.0
1679,G3,190.75,1.0,95,98.0
1680,C4,191.0,1.0,95,98.0
1681,G4,191.75,0.25,95,98.0
1682,G3,191.75,0.25,63,98.0
1683,B-4,192.0,0.25,95,98.0
1684,D4,192.0,1.0,95,98.0
1685,E-2,192.0,0.5,95,98.0
1686,B-4,192.0,0.25,95,98.0
1687,E-4,192.0,0.25,95,98.0
1688,B-3,192.0,0.25,95,98.0
1689,D4,192.0,0.5,95,98.0
1690,B-3,192.0,0.5,95,98.0
1691,G3,192.0,0.5,95,98.0
1692,D4,192.0,0.5,95,98.0
1693,B-3,192.0,0.5,95,98.0
1694,G3,192.0,0.5,95,98.0
1695,C5,192.5,0.25,95,98.0
1696,F1,192.5,0.5,95,98.0
1697,C5,192.5,0.25,95,98.0
1698,F4,192.5,0.25,95,98.0
1699,C4,192.5,0.25,95,98.0
1700,C4,192.5,0.5,95,98.0
1701,A3,192.5,0.5,95,98.0
1702,F3,192.5,0.5,95,98.0
1703,C4,192.5,0.5,95,98.0
1704,A3,192.5,0.5,95,98.0
1705,F3,192.5,0.5,95,98.0
1706,G3,193.0,0.5,95,98.0
1707,G1,193.0,1.0,95,98.0
1708,G4,193.0,1.0,95,98.0
1709,E-4,193.0,1.0,95,98.0
1710,B-3,193.0,1.0,95,98.0
1711,D5,193.75,0.375,87,98.0
1712,B-4,193.75,0.375,87,98.0
1713,D5,193.75,0.375,95,98.0
1714,B-4,193.75,0.375,95,98.0
1715,G4,193.75,0.375,95,98.0
1716,A4,194.0,1.0,95,98.0
1717,F4,194.0,1.0,95,98.0
1718,C4,194.0,1.0,95,98.0
1719,G1,194.25,0.25,95,98.0
1720,D5,194.25,0.375,87,98.0
1721,B-4,194.25,0.375,87,98.0
1722,D5,194.25,0.375,95,98.0
1723,B-4,194.25,0.375,95,98.0
1724,G4,194.25,0.375,95,98.0
1725,D4,194.25,0.25,95,98.0
1726,B-3,194.25,0.25,95,98.0
1727,G3,194.25,0.25,95,98.0
1728,D4,194.25,0.25,95,98.0
1729,B-3,194.25,0.25,95,98.0
1730,G3,194.25,0.25,95,98.0
1731,B-1,194.75,1.75,95,98.0
1732,C5,194.75,1.25,87,98.0
1733,B-4,194.75,1.25,87,98.0
1734,C5,194.75,1.25,95,98.0
1735,B-4,194.75,1.25,95,98.0
1736,F4,194.75,1.25,95,98.0
1737,D4,194.75,1.0,95,98.0
1738,B-3,194.75,1.0,95,98.0
1739,F3,194.75,1.0,95,98.0
1740,D4,194.75,1.0,95,98.0
1741,B-3,194.75,1.0,95,98.0
1742,F3,194.75,1.0,95,98.0
1743,B-4,195.0,1.0,95,98.0
1744,G4,195.0,1.0,95,98.0
1745,D4,195.0,1.0,95,98.0
1746,E-5,196.0,0.5,87,98.0
1747,F4,196.0,0.5,87,98.0
1748,A4,196.0,0.25,95,98.0
1749,F4,196.0,0.25,95,98.0
1750,C4,196.0,0.25,95,98.0
1751,C5,196.0,1.0,111,98.0
1752,A4,196.0,1.0,111,98.0
1753,F4,196.0,1.0,111,98.0
1754,G3,196.25,0.25,63,98.0
1755,F1,196.5,0.5,95,98.0
1756,F5,196.5,0.5,87,98.0
1757,E4,196.5,0.5,87,98.0
1758,G4,196.5,0.5,95,98.0
1759,E4,196.5,0.5,95,98.0
1760,C4,196.5,0.5,95,98.0
1761,E4,196.5,0.5,95,98.0
1762,C4,196.5,0.5,95,98.0
1763,G3,196.5,0.5,95,98.0
1764,E4,196.5,0.5,95,98.0
1765,C4,196.5,0.5,95,98.0
1766,G3,196.5,0.5,95,98.0
1767,F1,197.0,1.0,95,98.0
1768,F5,197.0,1.0,87,98.0
1769,E4,197.0,1.0,87,98.0
1770,G4,197.0,1.0,95,98.0
1771,E4,197.0,1.0,95,98.0
1772,C4,197.0,1.0,95,98.0
1773,E4,197.0,1.5,95,98.0
1774,C4,197.0,1.5,95,98.0
1775,G3,197.0,1.5,95,98.0
1776,E4,197.0,1.5,95,98.0
1777,C4,197.0,1.5,95,98.0
1778,G3,197.0,1.5,95,98.0
1779,F1,198.25,0.25,95,98.0
1780,E-5,198.75,0.25,95,98.0
1781,E-2,198.75,1.75,95,98.0
1782,D4,198.75,1.75,95,98.0
1783,B-3,198.75,1.75,95,98.0
1784,F3,198.75,1.75,95,98.0
1785,D4,198.75,1.75,95,98.0
1786,B-3,198.75,1.75,95,98.0
1787,F3,198.75,1.75,95,98.0
1788,C5,199.25,0.25,95,98.0
1789,B-4,199.75,0.25,95,98.0
1790,C5,200.0,0.25,95,98.0
1791,D5,200.25,0.25,95,98.0
1792,B-4,200.5,0.5,95,98.0
1793,D2,200.5,0.5,95,98.0
1794,B-3,200.5,0.5,95,98.0
1795,F3,200.5,0.5,95,98.0
1796,B-4,201.0,1.0,95,98.0
1797,C2,201.0,1.0,95,98.0
1798,F4,201.0,0.5,95,98.0
1799,D4,201.0,0.5,95,98.0
1800,B-3,201.0,0.5,95,98.0
1801,G3,201.0,0.5,95,98.0
1802,G4,201.0,0.5,95,98.0
1803,D4,201.0,0.5,95,98.0
1804,B-3,201.0,0.5,95,98.0
1805,G3,201.0,0.5,95,98.0
1806,F4,201.75,0.125,95,98.0
1807,D4,201.75,0.125,95,98.0
1808,B-3,201.75,0.125,95,98.0
1809,G3,201.75,0.125,95,98.0
1810,C2,202.25,0.25,95,98.0
1811,F4,202.25,0.25,95,98.0
1812,D4,202.25,0.25,95,98.0
1813,B-3,202.25,0.25,95,98.0
1814,G3,202.25,0.25,95,98.0
1815,F4,202.25,0.25,95,98.0
1816,D4,202.25,0.25,95,98.0
1817,B-3,202.25,0.25,95,98.0
1818,G3,202.25,0.25,95,98.0
1819,C5,202.75,0.375,95,98.0
1820,D2,202.75,1.75,95,98.0
1821,F4,202.75,2.25,95,98.0
1822,C4,202.75,2.25,95,98.0
1823,A3,202.75,2.25,95,98.0
1824,F4,202.75,1.0,95,98.0
1825,C4,202.75,1.0,95,98.0
1826,A3,202.75,1.0,95,98.0
1827,G4,203.25,0.5,95,98.0
1828,F4,203.75,0.75,95,98.0
1829,C2,204.5,0.5,63,98.0
1830,F4,204.5,0.5,95,98.0
1831,C4,204.5,0.5,95,98.0
1832,A3,204.5,0.5,95,98.0
1833,E-4,205.0,0.25,95,98.0
1834,E-2,205.0,0.75,95,98.0
1835,C5,205.25,0.25,95,98.0
1836,G#4,205.75,2.0,95,98.0
1837,C#2,205.75,0.5,95,98.0
1838,F4,205.75,0.5,107,98.0
1839,C#4,205.75,0.5,107,98.0
1840,B-3,205.75,0.5,107,98.0
1841,F#3,205.75,0.5,107,98.0
1842,F4,206.25,0.25,71,98.0
1843,C#4,206.25,0.25,71,98.0
1844,B-3,206.25,0.25,71,98.0
1845,F#3,206.25,0.25,71,98.0
1846,B-1,206.75,0.25,95,98.0
1847,B-1,207.25,0.25,95,98.0
1848,E-4,207.25,0.25,79,98.0
1849,C4,207.25,0.25,79,98.0
1850,G#3,207.25,0.25,79,98.0
1851,C#2,207.5,0.25,95,98.0
1852,C#4,207.75,0.25,63,98.0
1853,F#4,207.75,0.25,95,98.0
1854,B-1,207.75,0.25,95,98.0
1855,F4,208.0,0.25,95,98.0
1856,E-2,208.0,0.25,95,98.0
1857,E-4,208.0,0.25,79,98.0
1858,C4,208.0,0.25,79,98.0
1859,G#3,208.0,0.25,79,98.0
1860,E-4,208.25,0.25,95,98.0
1861,C#4,208.5,0.25,95,98.0
1862,F2,208.5,0.25,95,98.0
1863,F4,208.5,0.25,79,98.0
1864,C#4,208.5,0.25,79,98.0
1865,G#3,208.5,0.25,79,98.0
1866,E-4,209.0,0.75,95,98.0
1867,B-1,209.0,0.5,95,98.0
1868,B-1,209.5,0.25,95,98.0
1869,B-3,209.75,1.0,95,98.0
1870,C#2,209.75,0.5,95,98.0
1871,C#4,209.75,0.5,111,98.0
1872,B-3,209.75,0.5,111,98.0
1873,F#3,209.75,0.5,111,98.0
1874,E-2,210.25,0.25,95,98.0
1875,C#4,210.25,0.25,63,98.0
1876,B-3,210.25,0.25,63,98.0
1877,F#3,210.25,0.25,63,98.0
1878,B-1,210.75,0.25,95,98.0
1879,B-1,211.25,0.25,95,98.0
1880,G#4,211.25,0.25,111,98.0
1881,E-4,211.25,0.25,111,98.0
1882,C4,211.25,0.25,111,98.0
1883,G#3,211.25,0.25,111,98.0
1884,G#1,211.5,0.5,95,98.0
1885,C#4,211.75,0.25,63,98.0
1886,C#4,211.75,0.25,95,98.0
1887,C4,212.0,0.25,95,98.0
1888,E-2,212.0,0.25,95,98.0
1889,E-4,212.0,0.25,79,98.0
1890,C4,212.0,0.25,79,98.0
1891,G#3,212.0,0.25,79,98.0
1892,G#3,212.25,0.25,95,98.0
1893,E-2,212.25,0.25,95,98.0
1894,F3,212.5,0.25,79,98.0
1895,C#2,212.5,0.5,95,98.0
1896,F4,212.5,0.25,79,98.0
1897,C#4,212.5,0.25,79,98.0
1898,G#3,212.5,0.25,79,98.0
1899,F3,212.75,0.25,63,98.0
1900,B-3,213.0,0.25,95,98.0
1901,B-1,213.0,0.5,95,98.0
1902,C#4,213.25,0.25,95,98.0
1903,F4,213.5,0.25,95,98.0
1904,B-1,213.5,0.25,95,98.0
1905,G#4,213.75,0.25,95,98.0
1906,C#2,213.75,0.5,95,98.0
1907,F4,213.75,0.5,107,98.0
1908,C#4,213.75,0.5,107,98.0
1909,B-3,213.75,0.5,107,98.0
1910,F#3,213.75,0.5,107,98.0
1911,F4,213.75,0.5,107,98.0
1912,C#4,213.75,0.5,107,98.0
1913,B-3,213.75,0.5,107,98.0
1914,F#3,213.75,0.5,107,98.0
1915,G#4,214.0,0.25,95,98.0
1916,F4,214.25,0.25,95,98.0
1917,E-2,214.25,0.25,95,98.0
1918,F4,214.25,0.25,71,98.0
1919,C#4,214.25,0.25,71,98.0
1920,B-3,214.25,0.25,71,98.0
1921,F#3,214.25,0.25,71,98.0
1922,F4,214.25,0.25,71,98.0
1923,C#4,214.25,0.25,71,98.0
1924,B-3,214.25,0.25,71,98.0
1925,F#3,214.25,0.25,71,98.0
1926,G#4,214.5,0.25,95,98.0
1927,B-4,214.75,0.5,95,98.0
1928,B-1,214.75,0.25,95,98.0
1929,B-4,215.25,0.25,95,98.0
1930,B-1,215.25,0.25,95,98.0
1931,E-4,215.25,0.25,79,98.0
1932,C4,215.25,0.25,79,98.0
1933,G#3,215.25,0.25,79,98.0
1934,E-4,215.25,0.25,79,98.0
1935,C4,215.25,0.25,79,98.0
1936,G#3,215.25,0.25,79,98.0
1937,E-4,215.5,0.25,95,98.0
1938,C#4,215.75,0.25,63,98.0
1939,B-4,215.75,0.25,95,98.0
1940,C#4,215.75,0.25,63,98.0
1941,B-1,215.75,0.25,95,98.0
1942,C#5,216.0,0.25,95,98.0
1943,C#2,216.0,0.25,95,98.0
1944,E-4,216.0,0.25,79,98.0
1945,C4,216.0,0.25,79,98.0
1946,G#3,216.0,0.25,79,98.0
1947,E-4,216.0,0.25,79,98.0
1948,C4,216.0,0.25,79,98.0
1949,G#3,216.0,0.25,79,98.0
1950,B-4,216.25,0.25,95,98.0
1951,F4,216.25,0.25,95,98.0
1952,E-5,216.5,0.5,95,98.0
1953,E-2,216.5,0.25,95,98.0
1954,F4,216.5,0.25,79,98.0
1955,C#4,216.5,0.25,79,98.0
1956,G#3,216.5,0.25,79,98.0
1957,F4,216.5,0.25,79,98.0
1958,C#4,216.5,0.25,79,98.0
1959,G#3,216.5,0.25,79,98.0
1960,E-5,217.0,0.5,95,98.0
1961,B-1,217.0,0.5,95,98.0
1962,F#5,217.5,0.25,95,98.0
1963,B-1,217.5,0.25,95,98.0
1964,F5,217.75,0.25,95,98.0
1965,C#2,217.75,0.5,95,98.0
1966,F4,217.75,0.5,99,98.0
1967,C#4,217.75,0.5,99,98.0
1968,B-3,217.75,0.5,99,98.0
1969,F#3,217.75,0.5,99,98.0
1970,F4,217.75,0.5,99,98.0
1971,C#4,217.75,0.5,99,98.0
1972,B-3,217.75,0.5,99,98.0
1973,F#3,217.75,0.5,99,98.0
1974,C#5,218.25,0.25,95,98.0
1975,E-2,218.25,0.25,95,98.0
1976,F4,218.25,0.25,71,98.0
1977,C#4,218.25,0.25,71,98.0
1978,B-3,218.25,0.25,71,98.0
1979,F#3,218.25,0.25,71,98.0
1980,F4,218.25,0.25,71,98.0
1981,C#4,218.25,0.25,71,98.0
1982,B-3,218.25,0.25,71,98.0
1983,F#3,218.25,0.25,71,98.0
1984,B-4,218.75,1.0,95,98.0
1985,B-1,218.75,0.25,95,98.0
1986,F4,218.75,0.25,99,98.0
1987,C#4,218.75,0.25,99,98.0
1988,B-3,218.75,0.25,99,98.0
1989,F#3,218.75,0.25,99,98.0
1990,F4,218.75,0.25,99,98.0
1991,C#4,218.75,0.25,99,98.0
1992,B-3,218.75,0.25,99,98.0
1993,F#3,218.75,0.25,99,98.0
1994,B-1,219.25,0.25,95,98.0
1995,G#4,219.25,0.25,100,98.0
1996,E-4,219.25,0.25,100,98.0
1997,C4,219.25,0.25,100,98.0
1998,G#4,219.25,0.25,100,98.0
1999,E-4,219.25,0.25,100,98.0
2000,C4,219.25,0.25,100,98.0
2001,B-4,219.75,0.25,95,98.0
2002,B-1,219.75,0.25,95,98.0
2003,C#5,220.0,0.25,95,98.0
2004,E-2,220.0,0.25,95,98.0
2005,G#4,220.0,0.5,95,98.0
2006,E-4,220.0,0.5,95,98.0
2007,C4,220.0,0.5,95,98.0
2008,G#4,220.0,0.5,95,98.0
2009,E-4,220.0,0.5,95,98.0
2010,C4,220.0,0.5,95,98.0
2011,B-4,220.25,0.25,95,98.0
2012,E-5,220.5,0.5,95,98.0
2013,F2,220.5,0.25,95,98.0
2014,G#4,220.5,0.25,95,98.0
2015,E-4,220.5,0.25,95,98.0
2016,C4,220.5,0.25,95,98.0
2017,G#4,220.5,0.25,95,98.0
2018,E-4,220.5,0.25,95,98.0
2019,C4,220.5,0.25,95,98.0
2020,E-5,221.0,0.5,95,98.0
2021,D2,221.0,0.5,95,98.0
2022,F4,221.0,0.75,95,98.0
2023,C4,221.0,0.75,95,98.0
2024,A3,221.0,0.75,95,98.0
2025,F3,221.0,0.75,95,98.0
2026,F1,221.75,0.5,95,98.0
2027,F4,221.75,0.25,63,98.0
2028,C4,221.75,0.25,63,98.0
2029,A3,221.75,0.25,63,98.0
2030,G1,222.25,0.25,95,98.0
2031,F4,222.25,0.25,95,98.0
2032,C4,222.25,0.25,95,98.0
2033,A3,222.25,0.25,95,98.0
2034,F3,222.25,0.25,95,98.0
2035,C5,222.75,0.75,95,98.0
2036,G1,222.75,0.25,95,98.0
2037,F4,222.75,0.25,95,98.0
2038,C4,222.75,0.25,95,98.0
2039,A3,222.75,0.25,95,98.0
2040,F3,222.75,0.25,95,98.0
2041,G1,223.25,0.25,111,98.0
2042,B-4,223.5,0.5,95,98.0
2043,E2,223.5,1.0,95,98.0
2044,G4,223.5,1.5,95,98.0
2045,C4,223.5,1.5,95,98.0
2046,G3,223.5,1.5,95,98.0
2047,E3,223.5,1.5,95,98.0
2048,C5,224.0,0.5,95,98.0
2049,D5,224.5,0.25,95,98.0
2050,C2,224.5,0.5,95,98.0
2051,B-4,224.75,0.25,95,98.0
2052,C2,225.0,0.5,63,98.0
2053,D4,225.0,1.0,95,98.0
2054,B-3,225.0,1.0,95,98.0
2055,G3,225.0,1.0,95,98.0
2056,G4,225.25,0.25,95,98.0
2057,G4,225.75,1.0,95,98.0
2058,C2,225.75,0.25,95,98.0
2059,B-1,226.25,0.25,95,98.0
2060,D4,226.25,0.25,95,98.0
2061,B-3,226.25,0.25,95,98.0
2062,G3,226.25,0.25,95,98.0
2063,E-4,226.75,0.25,95,98.0
2064,C2,226.75,0.25,95,98.0
2065,F4,226.75,1.5,95,98.0
2066,C4,226.75,1.5,95,98.0
2067,A3,226.75,1.5,95,98.0
2068,D4,227.0,0.25,95,98.0
2069,E-4,227.25,0.125,95,98.0
2070,C2,227.25,0.25,63,98.0
2071,G4,227.375,0.125,95,98.0
2072,C5,227.5,0.25,95,98.0
2073,E-2,227.5,1.0,95,98.0
2074,B-4,227.75,0.25,95,98.0
2075,C5,228.0,0.25,95,98.0
2076,D5,228.25,0.25,95,98.0
2077,B-4,228.5,0.25,95,98.0
2078,B-1,228.5,0.5,95,98.0
2079,F4,228.5,0.5,95,98.0
2080,C4,228.5,0.5,95,98.0
2081,A3,228.5,0.5,95,98.0
2082,C5,228.75,0.25,95,98.0
2083,G4,229.0,0.25,95,98.0
2084,C5,229.0,1.5,95,98.0
2085,G1,229.0,0.5,95,98.0
2086,D4,229.0,1.0,95,98.0
2087,B-3,229.0,1.0,95,98.0
2088,G3,229.0,1.0,95,98.0
2089,F4,229.25,0.25,95,98.0
2090,G4,229.5,0.25,95,98.0
2091,F4,229.75,0.25,95,98.0
2092,G1,229.75,0.5,95,98.0
2093,F4,230.0,0.25,95,98.0
2094,G4,230.25,0.25,95,98.0
2095,F1,230.25,0.25,95,98.0
2096,D4,230.25,0.25,95,98.0
2097,B-3,230.25,0.25,95,98.0
2098,G3,230.25,0.25,95,98.0
2099,G4,230.5,0.25,95,98.0
2100,F4,230.75,0.25,95,98.0
2101,G1,230.75,0.25,95,98.0
2102,F4,230.75,1.5,95,98.0
2103,C4,230.75,1.5,95,98.0
2104,A3,230.75,1.5,95,98.0
2105,G1,231.25,0.25,95,98.0
2106,D4,231.5,0.5,95,98.0
2107,E2,231.5,0.75,95,98.0
2108,D4,232.0,0.75,95,98.0
2109,D2,232.25,0.25,63,98.0
2110,C2,232.5,0.25,95,98.0
2111,F4,232.5,0.5,95,98.0
2112,C4,232.5,0.5,95,98.0
2113,A3,232.5,0.5,95,98.0
2114,B-3,232.75,0.25,63,98.0
2115,D2,232.75,0.25,95,98.0
2116,C4,233.0,0.25,95,98.0
2117,C2,233.0,0.5,95,98.0
2118,D4,233.0,1.0,95,98.0
2119,B-3,233.0,1.0,95,98.0
2120,G3,233.0,1.0,95,98.0
2121,B-3,233.5,0.75,95,98.0
2122,D2,233.75,0.5,95,98.0
2123,F3,234.25,0.25,95,98.0
2124,B-1,234.25,0.25,95,98.0
2125,D4,234.25,0.25,95,98.0
2126,B-3,234.25,0.25,95,98.0
2127,G3,234.25,0.25,95,98.0
2128,G3,234.5,0.25,95,98.0
2129,G3,234.75,1.0,95,98.0
2130,C2,234.75,0.5,95,98.0
2131,F4,234.75,1.5,95,98.0
2132,C4,234.75,1.5,95,98.0
2133,A3,234.75,1.5,95,98.0
2134,D2,235.5,0.25,95,98.0
2135,B-1,235.75,1.0,95,98.0
2136,F4,236.5,0.5,95,98.0
2137,C4,236.5,0.5,95,98.0
2138,A3,236.5,0.5,95,98.0
2139,G#4,236.75,0.125,95,98.0
2140,F#4,236.875,0.125,95,98.0
2141,F4,237.0,0.25,95,98.0
2142,E-2,237.0,0.75,95,98.0
2143,F#4,237.25,0.5,95,98.0
2144,F5,237.75,0.25,95,98.0
2145,C#2,237.75,0.5,95,98.0
2146,F4,237.75,0.5,107,98.0
2147,C#4,237.75,0.5,107,98.0
2148,B-3,237.75,0.5,107,98.0
2149,F#3,237.75,0.5,107,98.0
2150,C#5,238.0,0.75,95,98.0
2151,F4,238.25,0.25,71,98.0
2152,C#4,238.25,0.25,71,98.0
2153,B-3,238.25,0.25,71,98.0
2154,F#3,238.25,0.25,71,98.0
2155,C5,238.75,0.75,95,98.0
2156,B-1,238.75,0.25,95,98.0
2157,B-1,239.25,0.25,95,98.0
2158,E-4,239.25,0.25,79,98.0
2159,C4,239.25,0.25,79,98.0
2160,G#3,239.25,0.25,79,98.0
2161,B-4,239.5,0.25,95,98.0
2162,C#2,239.5,0.25,95,98.0
2163,G#4,239.75,0.25,95,98.0
2164,C#4,239.75,0.25,63,98.0
2165,B-1,239.75,0.25,95,98.0
2166,B-4,240.0,0.25,95,98.0
2167,E-2,240.0,0.25,95,98.0
2168,E-4,240.0,0.25,79,98.0
2169,C4,240.0,0.25,79,98.0
2170,G#3,240.0,0.25,79,98.0
2171,G#4,240.25,0.25,95,98.0
2172,F#4,240.5,0.5,95,98.0
2173,F2,240.5,0.25,95,98.0
2174,F4,240.5,0.25,79,98.0
2175,C#4,240.5,0.25,79,98.0
2176,G#3,240.5,0.25,79,98.0
2177,G#4,241.0,0.5,95,98.0
2178,B-1,241.0,0.5,95,98.0
2179,B-4,241.5,0.25,95,98.0
2180,B-1,241.5,0.25,95,98.0
2181,F4,241.75,0.25,95,98.0
2182,C#2,241.75,0.5,95,98.0
2183,C#4,241.75,0.5,111,98.0
2184,B-3,241.75,0.5,111,98.0
2185,F#3,241.75,0.5,111,98.0
2186,E-4,242.25,0.25,95,98.0
2187,E-2,242.25,0.25,95,98.0
2188,C#4,242.25,0.25,63,98.0
2189,B-3,242.25,0.25,63,98.0
2190,F#3,242.25,0.25,63,98.0
2191,E-4,242.75,0.25,95,98.0
2192,B-1,242.75,0.25,95,98.0
2193,C#4,243.0,0.25,95,98.0
2194,E-4,243.25,0.25,95,98.0
2195,B-1,243.25,0.25,95,98.0
2196,G#4,243.25,0.25,111,98.0
2197,E-4,243.25,0.25,111,98.0
2198,C4,243.25,0.25,111,98.0
2199,G#3,243.25,0.25,111,98.0
2200,C4,243.5,0.5,95,98.0
2201,G#1,243.5,0.5,95,98.0
2202,C#4,243.75,0.25,63,98.0
2203,G#3,244.0,0.25,95,98.0
2204,E-2,244.0,0.25,95,98.0
2205,E-4,244.0,0.25,79,98.0
2206,C4,244.0,0.25,79,98.0
2207,G#3,244.0,0.25,79,98.0
2208,F3,244.25,0.25,79,98.0
2209,E-2,244.25,0.25,95,98.0
2210,G#3,244.5,0.25,79,98.0
2211,C#2,244.5,0.5,95,98.0
2212,F4,244.5,0.25,79,98.0
2213,C#4,244.5,0.25,79,98.0
2214,G#3,244.5,0.25,79,98.0
2215,F3,244.75,0.25,63,98.0
2216,G#3,245.0,0.25,95,98.0
2217,B-1,245.0,0.5,95,98.0
2218,G#3,245.25,0.25,79,98.0
2219,B-3,245.5,0.25,63,98.0
2220,B-1,245.5,0.25,95,98.0
2221,C#2,245.75,0.5,95,98.0
2222,F4,245.75,0.5,107,98.0
2223,C#4,245.75,0.5,107,98.0
2224,B-3,245.75,0.5,107,98.0
2225,F#3,245.75,0.5,107,98.0
2226,F4,245.75,0.5,107,98.0
2227,C#4,245.75,0.5,107,98.0
2228,B-3,245.75,0.5,107,98.0
2229,F#3,245.75,0.5,107,98.0
2230,E-2,246.25,0.25,95,98.0
2231,F4,246.25,0.25,71,98.0
2232,C#4,246.25,0.25,71,98.0
2233,B-3,246.25,0.25,71,98.0
2234,F#3,246.25,0.25,71,98.0
2235,F4,246.25,0.25,71,98.0
2236,C#4,246.25,0.25,71,98.0
2237,B-3,246.25,0.25,71,98.0
2238,F#3,246.25,0.25,71,98.0
2239,B-3,246.75,0.25,95,98.0
2240,B-1,246.75,0.25,95,98.0
2241,C#4,247.0,0.25,95,98.0
2242,B-3,247.25,0.25,95,98.0
2243,B-1,247.25,0.25,95,98.0
2244,E-4,247.25,0.25,79,98.0
2245,C4,247.25,0.25,79,98.0
2246,G#3,247.25,0.25,79,98.0
2247,E-4,247.25,0.25,79,98.0
2248,C4,247.25,0.25,79,98.0
2249,G#3,247.25,0.25,79,98.0
2250,E-4,247.5,0.25,95,98.0
2251,E-4,247.5,0.25,95,98.0
2252,C#4,247.75,0.25,47,98.0
2253,C#4,247.75,0.25,63,98.0
2254,C#4,247.75,0.25,63,98.0
2255,B-1,247.75,0.25,95,98.0
2256,F4,248.0,0.25,95,98.0
2257,C#2,248.0,0.25,95,98.0
2258,E-4,248.0,0.25,79,98.0
2259,C4,248.0,0.25,79,98.0
2260,G#3,248.0,0.25,79,98.0
2261,E-4,248.0,0.25,79,98.0
2262,C4,248.0,0.25,79,98.0
2263,G#3,248.0,0.25,79,98.0
2264,E-4,248.25,0.25,47,98.0
2265,F4,248.25,0.25,95,98.0
2266,G#4,248.5,0.5,95,98.0
2267,E-2,248.5,0.25,95,98.0
2268,F4,248.5,0.25,79,98.0
2269,C#4,248.5,0.25,79,98.0
2270,G#3,248.5,0.25,79,98.0
2271,F4,248.5,0.25,79,98.0
2272,C#4,248.5,0.25,79,98.0
2273,G#3,248.5,0.25,79,98.0
2274,C5,249.0,0.5,95,98.0
2275,B-1,249.0,0.5,95,98.0
2276,C5,249.5,0.25,95,98.0
2277,B-1,249.5,0.25,95,98.0
2278,B-4,249.75,0.25,95,98.0
2279,C#2,249.75,0.5,95,98.0
2280,F4,249.75,0.5,99,98.0
2281,C#4,249.75,0.5,99,98.0
2282,B-3,249.75,0.5,99,98.0
2283,F#3,249.75,0.5,99,98.0
2284,F4,249.75,0.5,99,98.0
2285,C#4,249.75,0.5,99,98.0
2286,B-3,249.75,0.5,99,98.0
2287,F#3,249.75,0.5,99,98.0
2288,G#4,250.25,0.25,95,98.0
2289,E-2,250.25,0.25,95,98.0
2290,F4,250.25,0.25,71,98.0
2291,C#4,250.25,0.25,71,98.0
2292,B-3,250.25,0.25,71,98.0
2293,F#3,250.25,0.25,71,98.0
2294,F4,250.25,0.25,71,98.0
2295,C#4,250.25,0.25,71,98.0
2296,B-3,250.25,0.25,71,98.0
2297,F#3,250.25,0.25,71,98.0
2298,F4,250.5,0.25,95,98.0
2299,B-1,250.75,0.25,95,98.0
2300,F4,250.75,0.25,99,98.0
2301,C#4,250.75,0.25,99,98.0
2302,B-3,250.75,0.25,99,98.0
2303,F#3,250.75,0.25,99,98.0
2304,F4,250.75,0.25,99,98.0
2305,C#4,250.75,0.25,99,98.0
2306,B-3,250.75,0.25,99,98.0
2307,F#3,250.75,0.25,99,98.0
2308,G#4,251.0,0.5,95,98.0
2309,B-1,251.25,0.25,95,98.0
2310,G#4,251.25,0.25,100,98.0
2311,E-4,251.25,0.25,100,98.0
2312,C4,251.25,0.25,100,98.0
2313,G#4,251.25,0.25,100,98.0
2314,E-4,251.25,0.25,100,98.0
2315,C4,251.25,0.25,100,98.0
2316,B-4,251.5,0.5,95,98.0
2317,B-1,251.75,0.25,95,98.0
2318,C#5,252.0,0.5,95,98.0
2319,E-2,252.0,0.25,95,98.0
2320,G#4,252.0,0.5,95,98.0
2321,E-4,252.0,0.5,95,98.0
2322,C4,252.0,0.5,95,98.0
2323,G#4,252.0,0.5,95,98.0
2324,E-4,252.0,0.5,95,98.0
2325,C4,252.0,0.5,95,98.0
2326,E-5,252.5,0.5,95,98.0
2327,F2,252.5,0.25,95,98.0
2328,G#4,252.5,0.25,95,98.0
2329,E-4,252.5,0.25,95,98.0
2330,C4,252.5,0.25,95,98.0
2331,G#4,252.5,0.25,95,98.0
2332,E-4,252.5,0.25,95,98.0
2333,C4,252.5,0.25,95,98.0
2334,E-5,253.0,1.0,95,98.0
2335,D2,253.0,0.5,95,98.0
2336,F1,253.75,0.5,95,98.0
2337,F4,253.75,0.5,95,98.0
2338,D4,253.75,0.5,95,98.0
2339,C4,253.75,0.5,95,98.0
2340,A3,253.75,0.5,95,98.0
2341,C5,254.0,0.75,95,98.0
2342,G1,254.25,0.25,95,98.0
2343,B-3,254.25,0.25,47,98.0
2344,A3,254.25,0.25,47,98.0
2345,G1,254.75,0.25,95,98.0
2346,F4,254.75,0.25,99,98.0
2347,D4,254.75,0.25,99,98.0
2348,C4,254.75,0.25,99,98.0
2349,A3,254.75,0.25,99,98.0
2350,C5,255.0,0.5,95,98.0
2351,G1,255.25,0.25,111,98.0
2352,B-3,255.25,0.25,47,98.0
2353,A3,255.25,0.25,47,98.0
2354,B-4,255.5,0.25,95,98.0
2355,E2,255.5,1.0,95,98.0
2356,G4,255.5,1.0,95,98.0
2357,E4,255.5,1.0,95,98.0
2358,C4,255.5,1.0,95,98.0
2359,G3,255.5,1.0,95,98.0
2360,G4,255.75,0.25,95,98.0
2361,C2,256.5,0.5,95,98.0
2362,F5,256.5,0.25,95,98.0
2363,C5,256.5,0.25,95,98.0
2364,A4,256.5,0.25,95,98.0
2365,F5,256.5,0.5,111,98.0
2366,C5,256.5,0.5,111,98.0
2367,A4,256.5,0.5,111,98.0
2368,F4,257.0,0.125,95,98.0
2369,C2,257.0,0.5,63,98.0
2370,F4,257.25,0.125,95,98.0
2371,G4,257.5,0.125,95,98.0
2372,F4,257.75,0.125,95,98.0
2373,C2,257.75,0.25,95,98.0
2374,F4,257.75,0.5,95,98.0
2375,D4,257.75,0.5,95,98.0
2376,C4,257.75,0.5,95,98.0
2377,A3,257.75,0.5,95,98.0
2378,B-4,258.0,0.5,95,98.0
2379,B-1,258.25,0.25,95,98.0
2380,B-3,258.25,0.25,47,98.0
2381,A3,258.25,0.25,47,98.0
2382,D5,258.5,0.25,95,98.0
2383,C2,258.75,0.25,95,98.0
2384,F4,258.75,0.25,99,98.0
2385,D4,258.75,0.25,99,98.0
2386,C4,258.75,0.25,99,98.0
2387,A3,258.75,0.25,99,98.0
2388,C5,259.0,0.5,95,98.0
2389,C2,259.25,0.25,63,98.0
2390,B-3,259.25,0.25,47,98.0
2391,A3,259.25,0.25,47,98.0
2392,B-4,259.5,0.25,95,98.0
2393,E-2,259.5,1.0,95,98.0
2394,B-4,259.5,1.5,99,98.0
2395,G4,259.5,1.5,99,98.0
2396,E-4,259.5,1.5,99,98.0
2397,D4,259.5,1.5,99,98.0
2398,G4,259.75,0.5,95,98.0
2399,B-1,260.5,0.5,95,98.0
2400,A3,261.0,1.0,95,98.0
2401,G1,261.0,0.5,95,98.0
2402,D5,261.25,0.25,95,98.0
2403,B-4,261.5,0.25,95,98.0
2404,G4,261.75,0.25,95,98.0
2405,G1,261.75,0.5,95,98.0
2406,B-4,262.0,0.5,95,98.0
2407,B-3,262.0,1.0,95,98.0
2408,F1,262.25,0.25,95,98.0
2409,C5,262.5,0.5,95,98.0
2410,G1,262.75,0.25,95,98.0
2411,C6,263.0,1.0,95,98.0
2412,C4,263.0,1.0,95,98.0
2413,G1,263.25,0.25,95,98.0
2414,E2,263.5,0.75,95,98.0
2415,C6,264.0,0.5,95,98.0
2416,D4,264.0,1.0,95,98.0
2417,D2,264.25,0.25,63,98.0
2418,B-5,264.5,0.5,95,98.0
2419,C2,264.5,0.25,95,98.0
2420,D2,264.75,0.25,95,98.0
2421,F5,265.0,0.5,95,98.0
2422,C2,265.0,0.5,95,98.0
2423,G4,265.0,1.0,63,98.0
2424,E-4,265.0,1.0,63,98.0
2425,F5,265.5,0.5,95,98.0
2426,D2,265.75,0.5,95,98.0
2427,C5,266.0,0.5,95,98.0
2428,A4,266.0,1.0,79,98.0
2429,F4,266.0,1.0,79,98.0
2430,B-1,266.25,0.25,95,98.0
2431,C2,266.75,0.5,95,98.0
2432,B-4,267.0,1.0,95,98.0
2433,G4,267.0,1.0,95,98.0
2434,D5,267.5,0.25,95,98.0
2435,D2,267.5,0.25,95,98.0
2436,B-4,267.75,0.125,95,98.0
2437,B-1,267.75,1.0,95,98.0
2438,G4,267.875,0.125,95,98.0
2439,C4,268.0,0.25,95,98.0
2440,C5,268.0,0.5,95,98.0
2441,E-4,268.0,0.5,95,98.0
2442,B-3,268.0,0.5,95,98.0
2443,C5,268.0,1.0,111,98.0
2444,A4,268.0,1.0,111,98.0
2445,F4,268.0,1.0,111,98.0
2446,C4,268.25,0.25,95,98.0
2447,B-3,268.5,0.5,95,98.0
2448,F5,268.5,0.5,95,98.0
2449,F4,268.5,0.5,95,98.0
2450,C4,268.5,0.5,95,98.0
2451,E-2,269.0,0.75,95,98.0
2452,C#5,269.25,0.125,95,98.0
2453,C5,269.375,0.125,95,98.0
2454,B-4,269.5,0.25,95,98.0
2455,E-5,269.75,0.25,95,98.0
2456,C#2,269.75,0.5,95,98.0
2457,F4,269.75,0.5,107,98.0
2458,C#4,269.75,0.5,107,98.0
2459,B-3,269.75,0.5,107,98.0
2460,F#3,269.75,0.5,107,98.0
2461,C#5,270.0,0.25,95,98.0
2462,C5,270.25,0.25,95,98.0
2463,F4,270.25,0.25,71,98.0
2464,C#4,270.25,0.25,71,98.0
2465,B-3,270.25,0.25,71,98.0
2466,F#3,270.25,0.25,71,98.0
2467,B-4,270.5,0.25,95,98.0
2468,G#4,270.75,0.25,95,98.0
2469,B-1,270.75,0.25,95,98.0
2470,C#5,271.0,0.25,95,98.0
2471,B-4,271.25,0.25,95,98.0
2472,B-1,271.25,0.25,95,98.0
2473,E-4,271.25,0.25,79,98.0
2474,C4,271.25,0.25,79,98.0
2475,G#3,271.25,0.25,79,98.0
2476,E-5,271.5,0.5,95,98.0
2477,C#2,271.5,0.25,95,98.0
2478,C#4,271.75,0.25,63,98.0
2479,B-1,271.75,0.25,95,98.0
2480,F#5,272.0,0.25,95,98.0
2481,E-2,272.0,0.25,95,98.0
2482,E-4,272.0,0.25,79,98.0
2483,C4,272.0,0.25,79,98.0
2484,G#3,272.0,0.25,79,98.0
2485,G#5,272.25,0.25,95,98.0
2486,F5,272.5,0.5,95,98.0
2487,F2,272.5,0.25,95,98.0
2488,F4,272.5,0.25,79,98.0
2489,C#4,272.5,0.25,79,98.0
2490,G#3,272.5,0.25,79,98.0
2491,C#5,273.0,0.5,95,98.0
2492,B-1,273.0,0.5,95,98.0
2493,B-4,273.5,0.25,95,98.0
2494,B-1,273.5,0.25,95,98.0
2495,C#5,273.75,0.5,95,98.0
2496,C#2,273.75,0.5,95,98.0
2497,C#4,273.75,0.5,111,98.0
2498,B-3,273.75,0.5,111,98.0
2499,F#3,273.75,0.5,111,98.0
2500,E-5,274.25,1.5,95,98.0
2501,E-2,274.25,0.25,95,98.0
2502,C#4,274.25,0.25,63,98.0
2503,B-3,274.25,0.25,63,98.0
2504,F#3,274.25,0.25,63,98.0
2505,B-1,274.75,0.25,95,98.0
2506,B-1,275.25,0.25,95,98.0
2507,G#4,275.25,0.25,111,98.0
2508,E-4,275.25,0.25,111,98.0
2509,C4,275.25,0.25,111,98.0
2510,G#3,275.25,0.25,111,98.0
2511,G#1,275.5,0.5,95,98.0
2512,C#4,275.75,0.25,63,98.0
2513,E-5,275.75,0.125,95,98.0
2514,C#5,275.875,0.125,95,98.0
2515,C5,276.0,0.25,95,98.0
2516,E-2,276.0,0.25,95,98.0
2517,E-4,276.0,0.25,79,98.0
2518,C4,276.0,0.25,79,98.0
2519,G#3,276.0,0.25,79,98.0
2520,G#4,276.25,0.25,95,98.0
2521,E-2,276.25,0.25,95,98.0
2522,C5,276.5,0.25,95,98.0
2523,C#2,276.5,0.5,95,98.0
2524,F4,276.5,0.25,79,98.0
2525,C#4,276.5,0.25,79,98.0
2526,G#3,276.5,0.25,79,98.0
2527,G#4,276.75,0.25,95,98.0
2528,B-1,277.0,0.5,95,98.0
2529,F#4,277.5,0.25,95,98.0
2530,B-1,277.5,0.25,95,98.0
2531,F4,277.75,0.25,95,98.0
2532,C#2,277.75,0.5,95,98.0
2533,F4,277.75,0.5,107,98.0
2534,C#4,277.75,0.5,107,98.0
2535,B-3,277.75,0.5,107,98.0
2536,F#3,277.75,0.5,107,98.0
2537,F4,277.75,0.5,107,98.0
2538,C#4,277.75,0.5,107,98.0
2539,B-3,277.75,0.5,107,98.0
2540,F#3,277.75,0.5,107,98.0
2541,F4,278.0,0.5,95,98.0
2542,E-2,278.25,0.25,95,98.0
2543,F4,278.25,0.25,71,98.0
2544,C#4,278.25,0.25,71,98.0
2545,B-3,278.25,0.25,71,98.0
2546,F#3,278.25,0.25,71,98.0
2547,F4,278.25,0.25,71,98.0
2548,C#4,278.25,0.25,71,98.0
2549,B-3,278.25,0.25,71,98.0
2550,F#3,278.25,0.25,71,98.0
2551,E-4,278.5,0.5,95,98.0
2552,B-1,278.75,0.25,95,98.0
2553,B-4,279.0,0.5,95,98.0
2554,B-1,279.25,0.25,95,98.0
2555,E-4,279.25,0.25,79,98.0
2556,C4,279.25,0.25,79,98.0
2557,G#3,279.25,0.25,79,98.0
2558,E-4,279.25,0.25,79,98.0
2559,C4,279.25,0.25,79,98.0
2560,G#3,279.25,0.25,79,98.0
2561,G#4,279.5,0.125,95,98.0
2562,E-4,279.5,0.25,95,98.0
2563,F#4,279.625,0.125,95,98.0
2564,C#4,279.75,0.25,63,98.0
2565,F4,279.75,0.125,95,98.0
2566,C#4,279.75,0.25,63,98.0
2567,B-1,279.75,0.25,95,98.0
2568,F#4,279.875,0.125,95,98.0
2569,G#4,280.0,0.125,95,98.0
2570,C#2,280.0,0.25,95,98.0
2571,E-4,280.0,0.25,79,98.0
2572,C4,280.0,0.25,79,98.0
2573,G#3,280.0,0.25,79,98.0
2574,E-4,280.0,0.25,79,98.0
2575,C4,280.0,0.25,79,98.0
2576,G#3,280.0,0.25,79,98.0
2577,F#4,280.125,0.125,95,98.0
2578,F4,280.25,0.125,95,98.0
2579,F4,280.25,0.25,95,98.0
2580,E-4,280.375,0.125,95,98.0
2581,C#4,280.5,0.125,95,98.0
2582,E-2,280.5,0.25,95,98.0
2583,F4,280.5,0.25,79,98.0
2584,C#4,280.5,0.25,79,98.0
2585,G#3,280.5,0.25,79,98.0
2586,F4,280.5,0.25,79,98.0
2587,C#4,280.5,0.25,79,98.0
2588,G#3,280.5,0.25,79,98.0
2589,C4,280.625,0.125,95,98.0
2590,E-4,280.75,0.125,95,98.0
2591,C#4,280.875,0.125,95,98.0
2592,C4,281.0,0.125,95,98.0
2593,A3,281.0,1.0,95,98.0
2594,B-1,281.0,0.5,95,98.0
2595,B-3,281.125,0.125,95,98.0
2596,G#3,281.25,0.125,95,98.0
2597,F#3,281.375,0.625,95,98.0
2598,B-1,281.5,0.25,95,98.0
2599,C#2,281.75,0.5,95,98.0
2600,F4,281.75,0.5,99,98.0
2601,C#4,281.75,0.5,99,98.0
2602,B-3,281.75,0.5,99,98.0
2603,F#3,281.75,0.5,99,98.0
2604,F4,281.75,0.5,99,98.0
2605,C#4,281.75,0.5,99,98.0
2606,B-3,281.75,0.5,99,98.0
2607,F#3,281.75,0.5,99,98.0
2608,B-3,282.0,0.25,95,98.0
2609,B-3,282.0,1.0,95,98.0
2610,C#4,282.25,0.25,95,98.0
2611,E-2,282.25,0.25,95,98.0
2612,F4,282.25,0.25,71,98.0
2613,C#4,282.25,0.25,71,98.0
2614,B-3,282.25,0.25,71,98.0
2615,F#3,282.25,0.25,71,98.0
2616,F4,282.25,0.25,71,98.0
2617,C#4,282.25,0.25,71,98.0
2618,B-3,282.25,0.25,71,98.0
2619,F#3,282.25,0.25,71,98.0
2620,E-4,282.5,0.25,95,98.0
2621,G#4,282.75,0.25,95,98.0
2622,B-1,282.75,0.25,95,98.0
2623,F4,282.75,0.25,99,98.0
2624,C#4,282.75,0.25,99,98.0
2625,B-3,282.75,0.25,99,98.0
2626,F#3,282.75,0.25,99,98.0
2627,F4,282.75,0.25,99,98.0
2628,C#4,282.75,0.25,99,98.0
2629,B-3,282.75,0.25,99,98.0
2630,F#3,282.75,0.25,99,98.0
2631,C5,283.0,0.25,95,98.0
2632,C4,283.0,1.0,95,98.0
2633,C#5,283.25,0.25,95,98.0
2634,B-1,283.25,0.25,95,98.0
2635,G#4,283.25,0.25,100,98.0
2636,E-4,283.25,0.25,100,98.0
2637,C4,283.25,0.25,100,98.0
2638,G#4,283.25,0.25,100,98.0
2639,E-4,283.25,0.25,100,98.0
2640,C4,283.25,0.25,100,98.0
2641,C5,283.5,0.25,95,98.0
2642,G#4,283.75,0.25,95,98.0
2643,B-1,283.75,0.25,95,98.0
2644,B-4,284.0,0.25,95,98.0
2645,D4,284.0,1.0,95,98.0
2646,E-2,284.0,0.25,95,98.0
2647,G#4,284.0,0.5,95,98.0
2648,E-4,284.0,0.5,95,98.0
2649,C4,284.0,0.5,95,98.0
2650,G#4,284.0,0.5,95,98.0
2651,E-4,284.0,0.5,95,98.0
2652,C4,284.0,0.5,95,98.0
2653,C#5,284.25,0.25,95,98.0
2654,E-5,284.5,0.25,95,98.0
2655,F2,284.5,0.25,95,98.0
2656,G#4,284.5,0.25,95,98.0
2657,E-4,284.5,0.25,95,98.0
2658,C4,284.5,0.25,95,98.0
2659,G#4,284.5,0.25,95,98.0
2660,E-4,284.5,0.25,95,98.0
2661,C4,284.5,0.25,95,98.0
2662,E5,284.75,0.25,95,98.0
2663,F5,285.0,0.75,95,98.0
2664,D2,285.0,0.5,95,98.0
2665,G4,285.0,1.0,95,98.0
2666,E-4,285.0,1.0,95,98.0
2667,B-3,285.0,1.0,95,98.0
2668,D5,285.75,0.5,95,98.0
2669,F1,285.75,0.5,95,98.0
2670,F4,285.75,0.5,95,98.0
2671,D4,285.75,0.5,95,98.0
2672,C4,285.75,0.5,95,98.0
2673,A3,285.75,0.5,95,98.0
2674,A4,286.0,1.0,95,98.0
2675,F4,286.0,1.0,95,98.0
2676,C4,286.0,1.0,95,98.0
2677,B-4,286.25,0.25,95,98.0
2678,G1,286.25,0.25,95,98.0
2679,B-3,286.25,0.25,47,98.0
2680,A3,286.25,0.25,47,98.0
2681,C5,286.5,0.25,95,98.0
2682,G1,286.75,0.25,95,98.0
2683,F4,286.75,0.25,99,98.0
2684,D4,286.75,0.25,99,98.0
2685,C4,286.75,0.25,99,98.0
2686,A3,286.75,0.25,99,98.0
2687,B-4,287.0,0.75,95,98.0
2688,B-4,287.0,1.0,95,98.0
2689,G4,287.0,1.0,95,98.0
2690,D4,287.0,1.0,95,98.0
2691,G1,287.25,0.25,111,98.0
2692,B-3,287.25,0.25,47,98.0
2693,A3,287.25,0.25,47,98.0
2694,E2,287.5,1.0,95,98.0
2695,G4,287.5,1.0,95,98.0
2696,E4,287.5,1.0,95,98.0
2697,C4,287.5,1.0,95,98.0
2698,G3,287.5,1.0,95,98.0
2699,D5,287.75,0.5,95,98.0
2700,C5,288.0,1.0,111,98.0
2701,A4,288.0,1.0,111,98.0
2702,F4,288.0,1.0,111,98.0
2703,C2,288.5,0.5,95,98.0
2704,F5,288.5,0.25,95,98.0
2705,C5,288.5,0.25,95,98.0
2706,A4,288.5,0.25,95,98.0
2707,F5,288.5,0.25,111,98.0
2708,C5,288.5,0.25,111,98.0
2709,A4,288.5,0.25,111,98.0
2710,C2,289.0,0.5,63,98.0
2711,B-3,289.75,0.25,95,98.0
2712,C2,289.75,0.25,95,98.0
2713,F4,289.75,0.5,95,98.0
2714,D4,289.75,0.5,95,98.0
2715,C4,289.75,0.5,95,98.0
2716,A3,289.75,0.5,95,98.0
2717,D4,290.0,0.25,95,98.0
2718,B-4,290.25,0.25,95,98.0
2719,B-1,290.25,0.25,95,98.0
2720,B-3,290.25,0.25,47,98.0
2721,A3,290.25,0.25,47,98.0
2722,A4,290.5,0.25,95,98.0
2723,G4,290.75,0.25,95,98.0
2724,C2,290.75,0.25,95,98.0
2725,F4,290.75,0.25,99,98.0
2726,D4,290.75,0.25,99,98.0
2727,C4,290.75,0.25,99,98.0
2728,A3,290.75,0.25,99,98.0
2729,F4,291.0,0.25,95,98.0
2730,A4,291.25,0.25,95,98.0
2731,C2,291.25,0.25,63,98.0
2732,B-3,291.25,0.25,47,98.0
2733,A3,291.25,0.25,47,98.0
2734,G4,291.5,0.25,95,98.0
2735,E-2,291.5,1.0,95,98.0
2736,B-4,291.5,1.5,99,98.0
2737,G4,291.5,1.5,99,98.0
2738,E-4,291.5,1.5,99,98.0
2739,D4,291.5,1.5,99,98.0
2740,B-4,291.75,0.25,95,98.0
2741,C5,292.0,0.25,95,98.0
2742,D5,292.25,0.25,95,98.0
2743,D5,292.5,0.25,95,98.0
2744,B-1,292.5,0.5,95,98.0
2745,F5,292.75,0.25,95,98.0
2746,A3,293.0,1.0,95,98.0
2747,C5,293.0,0.25,95,98.0
2748,G1,293.0,0.5,95,98.0
2749,B-4,293.25,0.25,95,98.0
2750,C5,293.5,0.25,95,98.0
2751,G4,293.75,0.25,95,98.0
2752,G1,293.75,0.5,95,98.0
2753,B-3,294.0,1.0,95,98.0
2754,B-4,294.0,0.25,95,98.0
2755,C5,294.25,0.25,95,98.0
2756,F1,294.25,0.25,95,98.0
2757,C5,294.5,0.25,95,98.0
2758,D5,294.75,0.25,95,98.0
2759,G1,294.75,0.25,95,98.0
2760,C4,295.0,1.0,95,98.0
2761,B-4,295.0,0.5,95,98.0
2762,G1,295.25,0.25,95,98.0
2763,G4,295.5,1.0,95,98.0
2764,E2,295.5,0.75,95,98.0
2765,D4,296.0,1.0,95,98.0
2766,D2,296.25,0.25,63,98.0
2767,C2,296.5,0.25,95,98.0
2768,D5,296.75,0.25,95,98.0
2769,D2,296.75,0.25,95,98.0
2770,B-5,297.0,0.25,95,98.0
2771,C2,297.0,0.5,95,98.0
2772,G4,297.0,1.0,63,98.0
2773,E-4,297.0,1.0,63,98.0
2774,D5,297.25,0.25,63,98.0
2775,A5,297.5,0.25,95,98.0
2776,D5,297.75,0.25,63,98.0
2777,D2,297.75,0.5,95,98.0
2778,G5,298.0,0.25,95,98.0
2779,A4,298.0,1.0,79,98.0
2780,F4,298.0,1.0,79,98.0
2781,D5,298.25,0.25,63,98.0
2782,B-1,298.25,0.25,95,98.0
2783,F5,298.5,2.0,95,98.0
2784,C2,298.75,0.5,95,98.0
2785,B-4,299.0,1.0,95,98.0
2786,G4,299.0,1.0,95,98.0
2787,F4,299.25,0.25,95,98.0
2788,G4,299.5,0.25,95,98.0
2789,D2,299.5,0.25,95,98.0
2790,F4,299.75,0.25,95,98.0
2791,B-1,299.75,1.0,95,98.0
2792,B-4,300.0,0.5,95,98.0
2793,C5,300.0,0.5,95,98.0
2794,E-4,300.0,0.5,95,98.0
2795,B-3,300.0,0.5,95,98.0
2796,C5,300.0,1.0,111,98.0
2797,A4,300.0,1.0,111,98.0
2798,F4,300.0,1.0,111,98.0
2799,C5,300.5,0.5,95,98.0
2800,F5,300.5,0.5,95,98.0
2801,F4,300.5,0.5,95,98.0
2802,C4,300.5,0.5,95,98.0
2803,G3,301.0,0.5,95,98.0
2804,G1,301.0,1.0,95,98.0
2805,D5,301.75,0.375,87,98.0
2806,B-4,301.75,0.375,87,98.0
2807,D5,301.75,0.375,95,98.0
2808,B-4,301.75,0.375,95,98.0
2809,G4,301.75,0.375,95,98.0
2810,G1,302.25,0.25,95,98.0
2811,D5,302.25,0.375,87,98.0
2812,B-4,302.25,0.375,87,98.0
2813,D5,302.25,0.375,95,98.0
2814,B-4,302.25,0.375,95,98.0
2815,G4,302.25,0.375,95,98.0
2816,D4,302.25,0.25,95,98.0
2817,B-3,302.25,0.25,95,98.0
2818,G3,302.25,0.25,95,98.0
2819,D4,302.25,0.25,95,98.0
2820,B-3,302.25,0.25,95,98.0
2821,G3,302.25,0.25,95,98.0
2822,B-1,302.75,1.75,95,98.0
2823,C5,302.75,1.25,87,98.0
2824,B-4,302.75,1.25,87,98.0
2825,C5,302.75,1.25,95,98.0
2826,B-4,302.75,1.25,95,98.0
2827,F4,302.75,1.25,95,98.0
2828,D4,302.75,1.0,95,98.0
2829,B-3,302.75,1.0,95,98.0
2830,F3,302.75,1.0,95,98.0
2831,D4,302.75,1.0,95,98.0
2832,B-3,302.75,1.0,95,98.0
2833,F3,302.75,1.0,95,98.0
2834,G4,304.0,0.5,87,98.0
2835,E-4,304.0,0.5,87,98.0
2836,A4,304.0,0.25,95,98.0
2837,F4,304.0,0.25,95,98.0
2838,C4,304.0,0.25,95,98.0
2839,G3,304.25,0.25,63,98.0
2840,F1,304.5,0.5,95,98.0
2841,G4,304.5,0.5,87,98.0
2842,E4,304.5,0.5,87,98.0
2843,G4,304.5,0.5,95,98.0
2844,E4,304.5,0.5,95,98.0
2845,C4,304.5,0.5,95,98.0
2846,E4,304.5,0.5,95,98.0
2847,C4,304.5,0.5,95,98.0
2848,G3,304.5,0.5,95,98.0
2849,E4,304.5,0.5,95,98.0
2850,C4,304.5,0.5,95,98.0
2851,G3,304.5,0.5,95,98.0
2852,F1,305.0,1.0,95,98.0
2853,G4,305.0,1.0,87,98.0
2854,E4,305.0,1.0,87,98.0
2855,G4,305.0,1.0,95,98.0
2856,E4,305.0,1.0,95,98.0
2857,C4,305.0,1.0,95,98.0
2858,E4,305.0,1.5,95,98.0
2859,C4,305.0,1.5,95,98.0
2860,G3,305.0,1.5,95,98.0
2861,E4,305.0,1.5,95,98.0
2862,C4,305.0,1.5,95,98.0
2863,G3,305.0,1.5,95,98.0
2864,G4,306.25,0.25,95,98.0
2865,F1,306.25,0.25,95,98.0
2866,A4,306.5,0.25,95,98.0
2867,B-4,306.75,0.25,95,98.0
2868,E-2,306.75,1.75,95,98.0
2869,D4,306.75,1.75,95,98.0
2870,B-3,306.75,1.75,95,98.0
2871,F3,306.75,1.75,95,98.0
2872,D4,306.75,1.75,95,98.0
2873,B-3,306.75,1.75,95,98.0
2874,F3,306.75,1.75,95,98.0
2875,A4,307.25,0.25,95,98.0
2876,G4,307.75,0.25,95,98.0
2877,F4,308.25,0.75,95,98.0
2878,D2,308.5,0.5,95,98.0
2879,B-3,308.5,0.5,95,98.0
2880,F3,308.5,0.5,95,98.0
2881,D4,309.0,1.0,95,98.0
2882,C2,309.0,1.0,95,98.0
2883,D4,309.0,0.5,95,98.0
2884,B-3,309.0,0.5,95,98.0
2885,G3,309.0,0.5,95,98.0
2886,D4,309.0,0.5,95,98.0
2887,B-3,309.0,0.5,95,98.0
2888,G3,309.0,0.5,95,98.0
2889,C2,310.25,0.25,95,98.0
2890,D4,310.25,0.25,95,98.0
2891,B-3,310.25,0.25,95,98.0
2892,G3,310.25,0.25,95,98.0
2893,D4,310.25,0.25,95,98.0
2894,B-3,310.25,0.25,95,98.0
2895,G3,310.25,0.25,95,98.0
2896,A4,310.75,0.5,95,98.0
2897,D2,310.75,1.75,95,98.0
2898,F4,310.75,1.0,95,98.0
2899,C4,310.75,1.0,95,98.0
2900,A3,310.75,1.0,95,98.0
2901,F4,310.75,1.0,95,98.0
2902,C4,310.75,1.0,95,98.0
2903,A3,310.75,1.0,95,98.0
2904,B-4,311.25,0.5,95,98.0
2905,A4,311.75,0.5,95,98.0
2906,D4,312.0,0.25,95,98.0
2907,D4,312.0,0.25,95,98.0
2908,G4,312.25,0.25,95,98.0
2909,F4,312.25,0.25,95,98.0
2910,F4,312.25,0.25,87,98.0
2911,G3,312.25,0.25,87,98.0
2912,F4,312.5,0.25,95,98.0
2913,G4,312.5,0.25,95,98.0
2914,C2,312.5,0.5,63,98.0
2915,G4,312.5,0.25,99,98.0
2916,F4,312.5,0.25,99,98.0
2917,C4,312.5,0.25,99,98.0
2918,A3,312.5,0.25,99,98.0
2919,F4,312.5,0.5,95,98.0
2920,C4,312.5,0.5,95,98.0
2921,A3,312.5,0.5,95,98.0
2922,D4,312.75,0.25,95,98.0
2923,B-4,312.75,0.25,95,98.0
2924,B-4,312.75,0.25,111,98.0
2925,G4,313.0,0.5,95,98.0
2926,B-4,313.0,3.0,95,98.0
2927,B-4,313.0,0.5,111,98.0
2928,A3,313.0,1.0,95,98.0
2929,E-2,313.0,1.25,95,98.0
2930,D4,313.0,0.5,95,98.0
2931,B-3,313.0,0.5,95,98.0
2932,G3,313.0,0.5,95,98.0
2933,B-4,313.5,0.25,95,98.0
2934,G5,313.5,0.25,111,98.0
2935,C5,313.5,0.25,111,98.0
2936,G4,313.5,0.25,111,98.0
2937,G4,313.75,1.0,95,98.0
2938,F5,313.75,0.25,111,98.0
2939,B-4,313.75,0.25,111,98.0
2940,F4,313.75,0.25,111,98.0
2941,B-3,314.0,1.0,95,98.0
2942,E-2,314.25,0.5,95,98.0
2943,G5,314.25,0.25,111,98.0
2944,C5,314.25,0.25,111,98.0
2945,G4,314.25,0.25,111,98.0
2946,D4,314.25,0.25,95,98.0
2947,B-3,314.25,0.25,95,98.0
2948,G3,314.25,0.25,95,98.0
2949,E-2,314.75,1.25,95,98.0
2950,G5,314.75,0.25,111,98.0
2951,C5,314.75,0.25,111,98.0
2952,G4,314.75,0.25,111,98.0
2953,D4,314.75,1.0,95,98.0
2954,B-3,314.75,1.0,95,98.0
2955,G3,314.75,1.0,95,98.0
2956,C4,315.0,1.0,95,98.0
2957,G4,315.25,0.25,111,98.0
2958,B-4,315.5,0.25,111,98.0
2959,G4,315.75,0.25,95,98.0
2960,C5,315.75,0.25,111,98.0
2961,B-4,316.0,0.25,95,98.0
2962,D5,316.0,0.125,111,98.0
2963,D4,316.0,1.0,95,98.0
2964,E-2,316.0,0.5,95,98.0
2965,B-4,316.0,0.25,95,98.0
2966,E-4,316.0,0.25,95,98.0
2967,B-3,316.0,0.25,95,98.0
2968,D4,316.0,0.5,95,98.0
2969,B-3,316.0,0.5,95,98.0
2970,G3,316.0,0.5,95,98.0
2971,C5,316.125,0.125,111,98.0
2972,B-4,316.25,0.125,111,98.0
2973,G4,316.375,0.375,111,98.0
2974,C5,316.5,0.25,95,98.0
2975,F1,316.5,0.5,95,98.0
2976,C5,316.5,0.25,95,98.0
2977,F4,316.5,0.25,95,98.0
2978,C4,316.5,0.25,95,98.0
2979,C4,316.5,0.5,95,98.0
2980,A3,316.5,0.5,95,98.0
2981,F3,316.5,0.5,95,98.0
2982,G3,317.0,0.5,95,98.0
2983,G1,317.0,1.0,95,98.0
2984,G4,317.0,1.0,95,98.0
2985,E-4,317.0,1.0,95,98.0
2986,B-3,317.0,1.0,95,98.0
2987,D5,317.75,0.375,87,98.0
2988,B-4,317.75,0.375,87,98.0
2989,D5,317.75,0.375,95,98.0
2990,B-4,317.75,0.375,95,98.0
2991,G4,317.75,0.375,95,98.0
2992,A4,318.0,1.0,95,98.0
2993,F4,318.0,1.0,95,98.0
2994,C4,318.0,1.0,95,98.0
2995,G1,318.25,0.25,95,98.0
2996,D5,318.25,0.375,87,98.0
2997,B-4,318.25,0.375,87,98.0
2998,D5,318.25,0.375,95,98.0
2999,B-4,318.25,0.375,95,98.0
3000,G4,318.25,0.375,95,98.0
3001,D4,318.25,0.25,95,98.0
3002,B-3,318.25,0.25,95,98.0
3003,G3,318.25,0.25,95,98.0
3004,D4,318.25,0.25,95,98.0
3005,B-3,318.25,0.25,95,98.0
3006,G3,318.25,0.25,95,98.0
3007,B-1,318.75,1.75,95,98.0
3008,C5,318.75,1.25,87,98.0
3009,B-4,318.75,1.25,87,98.0
3010,C5,318.75,1.25,95,98.0
3011,B-4,318.75,1.25,95,98.0
3012,F4,318.75,1.25,95,98.0
3013,D4,318.75,1.0,95,98.0
3014,B-3,318.75,1.0,95,98.0
3015,F3,318.75,1.0,95,98.0
3016,D4,318.75,1.0,95,98.0
3017,B-3,318.75,1.0,95,98.0
3018,F3,318.75,1.0,95,98.0
3019,B-4,319.0,1.0,95,98.0
3020,G4,319.0,1.0,95,98.0
3021,D4,319.0,1.0,95,98.0
3022,E-5,320.0,0.5,87,98.0
3023,F4,320.0,0.5,87,98.0
3024,A4,320.0,0.25,95,98.0
3025,F4,320.0,0.25,95,98.0
3026,C4,320.0,0.25,95,98.0
3027,C5,320.0,1.0,111,98.0
3028,A4,320.0,1.0,111,98.0
3029,F4,320.0,1.0,111,98.0
3030,G3,320.25,0.25,63,98.0
3031,F1,320.5,0.5,95,98.0
3032,F5,320.5,0.5,87,98.0
3033,E4,320.5,0.5,87,98.0
3034,G4,320.5,0.5,95,98.0
3035,E4,320.5,0.5,95,98.0
3036,C4,320.5,0.5,95,98.0
3037,E4,320.5,0.5,95,98.0
3038,C4,320.5,0.5,95,98.0
3039,G3,320.5,0.5,95,98.0
3040,E4,320.5,0.5,95,98.0
3041,C4,320.5,0.5,95,98.0
3042,G3,320.5,0.5,95,98.0
3043,F1,321.0,1.0,95,98.0
3044,F5,321.0,1.0,87,98.0
3045,E4,321.0,1.0,87,98.0
3046,G4,321.0,1.0,95,98.0
3047,E4,321.0,1.0,95,98.0
3048,C4,321.0,1.0,95,98.0
3049,E4,321.0,1.5,95,98.0
3050,C4,321.0,1.5,95,98.0
3051,G3,321.0,1.5,95,98.0
3052,E4,321.0,1.5,95,98.0
3053,C4,321.0,1.5,95,98.0
3054,G3,321.0,1.5,95,98.0
3055,F1,322.25,0.25,95,98.0
3056,E-5,322.75,0.25,95,98.0
3057,E-2,322.75,1.75,95,98.0
3058,D4,322.75,1.75,95,98.0
3059,B-3,322.75,1.75,95,98.0
3060,F3,322.75,1.75,95,98.0
3061,D4,322.75,1.75,95,98.0
3062,B-3,322.75,1.75,95,98.0
3063,F3,322.75,1.75,95,98.0
3064,C5,323.25,0.25,95,98.0
3065,B-4,323.75,0.25,95,98.0
3066,C5,324.0,0.25,95,98.0
3067,D5,324.25,0.25,95,98.0
3068,B-4,324.5,0.5,95,98.0
3069,D2,324.5,0.5,95,98.0
3070,B-3,324.5,0.5,95,98.0
3071,F3,324.5,0.5,95,98.0
3072,B-4,325.0,1.0,95,98.0
3073,C2,325.0,1.0,95,98.0
3074,F4,325.0,0.5,95,98.0
3075,D4,325.0,0.5,95,98.0
3076,B-3,325.0,0.5,95,98.0
3077,G3,325.0,0.5,95,98.0
3078,G4,325.0,0.5,95,98.0
3079,D4,325.0,0.5,95,98.0
3080,B-3,325.0,0.5,95,98.0
3081,G3,325.0,0.5,95,98.0
3082,C2,326.25,0.25,95,98.0
3083,F4,326.25,0.25,95,98.0
3084,D4,326.25,0.25,95,98.0
3085,B-3,326.25,0.25,95,98.0
3086,G3,326.25,0.25,95,98.0
3087,F4,326.25,0.25,95,98.0
3088,D4,326.25,0.25,95,98.0
3089,B-3,326.25,0.25,95,98.0
3090,G3,326.25,0.25,95,98.0
3091,C5,326.75,0.375,95,98.0
3092,D2,326.75,1.75,95,98.0
3093,F4,326.75,1.0,95,98.0
3094,F4,326.75,1.0,95,98.0
3095,C4,326.75,1.0,95,98.0
3096,A3,326.75,1.0,95,98.0
3097,F4,326.75,1.0,95,98.0
3098,C4,326.75,1.0,95,98.0
3099,A3,326.75,1.0,95,98.0
3100,G4,327.25,0.5,95,98.0
3101,F4,327.75,0.75,95,98.0
3102,D4,328.0,0.25,95,98.0
3103,D4,328.0,0.25,95,98.0
3104,F4,328.25,0.25,95,98.0
3105,F4,328.25,0.25,87,98.0
3106,G3,328.25,0.25,87,98.0
3107,G4,328.5,0.25,95,98.0
3108,C2,328.5,0.5,63,98.0
3109,G4,328.5,0.25,99,98.0
3110,F4,328.5,0.25,99,98.0
3111,C4,328.5,0.25,99,98.0
3112,A3,328.5,0.25,99,98.0
3113,F4,328.5,0.5,95,98.0
3114,C4,328.5,0.5,95,98.0
3115,A3,328.5,0.5,95,98.0
3116,B-4,328.75,0.25,95,98.0
3117,B-4,328.75,0.25,111,98.0
3118,G4,329.0,0.5,95,98.0
3119,B-4,329.0,3.0,95,98.0
3120,B-4,329.0,0.5,111,98.0
3121,E-2,329.0,1.25,95,98.0
3122,D4,329.0,0.5,95,98.0
3123,B-3,329.0,0.5,95,98.0
3124,G3,329.0,0.5,95,98.0
3125,B-4,329.5,0.25,95,98.0
3126,G4,329.5,0.25,103,98.0
3127,D4,329.5,0.25,103,98.0
3128,G4,329.75,1.0,95,98.0
3129,B-4,329.75,0.25,103,98.0
3130,E-4,329.75,0.25,103,98.0
3131,E-2,330.25,0.5,95,98.0
3132,C5,330.25,0.25,103,98.0
3133,F4,330.25,0.25,103,98.0
3134,D4,330.25,0.25,95,98.0
3135,B-3,330.25,0.25,95,98.0
3136,G3,330.25,0.25,95,98.0
3137,E-2,330.75,1.25,95,98.0
3138,C5,330.75,0.25,103,98.0
3139,F4,330.75,0.25,103,98.0
3140,D4,330.75,1.0,95,98.0
3141,B-3,330.75,1.0,95,98.0
3142,G3,330.75,1.0,95,98.0
3143,C5,331.25,0.25,111,98.0
3144,C5,331.25,0.25,103,98.0
3145,C4,331.25,0.25,103,98.0
3146,D5,331.5,0.25,111,98.0
3147,D5,331.5,0.25,103,98.0
3148,D4,331.5,0.25,103,98.0
3149,G4,331.75,0.25,95,98.0
3150,B-4,332.0,0.25,95,98.0
3151,F5,332.0,0.25,111,98.0
3152,E-2,332.0,0.5,95,98.0
3153,B-4,332.0,0.25,95,98.0
3154,E-4,332.0,0.25,95,98.0
3155,B-3,332.0,0.25,95,98.0
3156,F5,332.0,0.25,103,98.0
3157,F4,332.0,0.25,103,98.0
3158,D4,332.0,0.5,95,98.0
3159,B-3,332.0,0.5,95,98.0
3160,G3,332.0,0.5,95,98.0
3161,C5,332.5,0.25,95,98.0
3162,G5,332.5,0.25,111,98.0
3163,F1,332.5,0.5,95,98.0
3164,C5,332.5,0.25,95,98.0
3165,F4,332.5,0.25,95,98.0
3166,C4,332.5,0.25,95,98.0
3167,G5,332.5,0.25,103,98.0
3168,G4,332.5,0.25,103,98.0
3169,C4,332.5,0.5,95,98.0
3170,A3,332.5,0.5,95,98.0
3171,F3,332.5,0.5,95,98.0
3172,G4,333.0,0.125,47,98.0
3173,G4,333.0,0.125,47,98.0
3174,G4,333.125,0.125,15,98.0
3175,G4,333.125,0.125,15,98.0
3176,C4,333.25,0.25,47,98.0
3177,C4,333.25,0.25,47,98.0
3178,C4,333.5,0.25,15,98.0
3179,C4,333.5,0.25,15,98.0
3180,D4,333.75,0.25,47,98.0
3181,D4,333.75,0.25,47,98.0
3182,D4,334.0,0.25,15,98.0
3183,D4,334.0,0.25,15,98.0
3184,F4,334.25,0.25,47,98.0
3185,F4,334.25,0.25,47,98.0
3186,F4,334.5,0.25,15,98.0
3187,F4,334.5,0.25,15,98.0
3188,G4,334.75,0.25,47,98.0
3189,G4,334.75,0.25,47,98.0
3190,G4,335.0,0.25,15,98.0
3191,G4,335.0,0.25,15,98.0
3192,G4,335.25,0.25,47,98.0
3193,G4,335.25,0.25,47,98.0
3194,G4,335.75,0.25,47,98.0
3195,G4,335.75,0.25,47,98.0
3196,B-4,336.0,0.25,47,98.0
3197,B-4,336.0,0.25,47,98.0
3198,C5,336.25,0.25,47,98.0
3199,C5,336.25,0.25,47,98.0
3200,C5,336.5,0.25,47,98.0
3201,C5,336.5,0.25,47,98.0
3202,B-4,336.75,0.25,47,98.0
3203,B-4,336.75,0.25,47,98.0
3204,F4,337.0,0.25,31,98.0
3205,F4,337.0,0.25,31,98.0
3206,G4,337.25,0.25,47,98.0
3207,G4,337.25,0.25,47,98.0
3208,G4,337.5,0.25,47,98.0
3209,G4,337.5,0.25,47,98.0
3210,F4,337.75,0.25,47,98.0
3211,F4,337.75,0.25,47,98.0
3212,G3,338.0,0.25,47,98.0
3213,G3,338.0,0.25,47,98.0
3214,B-3,338.25,0.25,47,98.0
3215,B-3,338.25,0.25,47,98.0
3216,B-3,339.0,0.25,47,98.0
3217,B-3,339.0,0.25,47,98.0
3218,C4,339.25,0.25,47,98.0
3219,C4,339.25,0.25,47,98.0
3220,C4,339.5,0.25,15,98.0
3221,C4,339.5,0.25,15,98.0
3222,C4,340.0,0.25,47,98.0
3223,C4,340.0,0.25,47,98.0
3224,D4,340.25,0.25,47,98.0
3225,D4,340.25,0.25,47,98.0
3226,D4,340.5,0.25,15,98.0
3227,D4,340.5,0.25,15,98.0
3228,G3,340.75,0.25,47,98.0
3229,G3,340.75,0.25,47,98.0
3230,G3,341.0,0.25,47,98.0
3231,G3,341.0,0.25,47,98.0
3232,C4,341.25,0.25,47,98.0
3233,C4,341.25,0.25,47,98.0
3234,C4,341.5,0.25,15,98.0
3235,C4,341.5,0.25,15,98.0
3236,D4,341.75,0.25,47,98.0
3237,D4,341.75,0.25,47,98.0
3238,D4,342.0,0.25,15,98.0
3239,D4,342.0,0.25,15,98.0
3240,F4,342.25,0.25,47,98.0
3241,F4,342.25,0.25,47,98.0
3242,F4,342.5,0.25,15,98.0
3243,F4,342.5,0.25,15,98.0
3244,G4,342.75,0.25,47,98.0
3245,G4,342.75,0.25,47,98.0
3246,G4,343.0,0.75,15,98.0
3247,G4,343.0,0.75,15,98.0
3248,G4,343.75,0.25,47,98.0
3249,G4,343.75,0.25,47,98.0
3250,B-4,344.0,0.25,47,98.0
3251,B-4,344.0,0.25,47,98.0
3252,C5,344.25,0.25,47,98.0
3253,C5,344.25,0.25,47,98.0
3254,C5,344.5,0.25,47,98.0
3255,C5,344.5,0.25,47,98.0
3256,C5,344.75,0.25,15,98.0
3257,C5,344.75,0.25,15,98.0
3258,G4,349.0,0.125,47,98.0
3259,G4,349.0,0.125,47,98.0
3260,G1,349.0,0.375,95,98.0
3261,G4,349.125,0.125,15,98.0
3262,G4,349.125,0.125,15,98.0
3263,C4,349.25,0.25,47,98.0
3264,C4,349.25,0.25,47,98.0
3265,C4,349.5,0.25,15,98.0
3266,C4,349.5,0.25,15,98.0
3267,D4,349.75,0.25,47,98.0
3268,D4,349.75,0.25,47,98.0
3269,G1,349.75,0.375,95,98.0
3270,D4,350.0,0.25,15,98.0
3271,D4,350.0,0.25,15,98.0
3272,F4,350.25,0.25,47,98.0
3273,F4,350.25,0.25,47,98.0
3274,F4,350.5,0.25,15,98.0
3275,F4,350.5,0.25,15,98.0
3276,G4,350.75,0.25,47,98.0
3277,G4,350.75,0.25,47,98.0
3278,G1,350.75,0.375,95,98.0
3279,G4,351.0,0.25,15,98.0
3280,G4,351.0,0.25,15,98.0
3281,G4,351.25,0.25,47,98.0
3282,G4,351.25,0.25,47,98.0
3283,G4,351.75,0.25,47,98.0
3284,G4,351.75,0.25,47,98.0
3285,C2,351.75,0.25,63,98.0
3286,B-4,352.0,0.25,47,98.0
3287,B-4,352.0,0.25,47,98.0
3288,D2,352.0,0.5,63,98.0
3289,C5,352.25,0.25,47,98.0
3290,C5,352.25,0.25,47,98.0
3291,C5,352.5,0.25,47,98.0
3292,C5,352.5,0.25,47,98.0
3293,F2,352.5,0.5,79,98.0
3294,B-4,352.75,0.25,47,98.0
3295,B-4,352.75,0.25,47,98.0
3296,F4,353.0,0.25,31,98.0
3297,F4,353.0,0.25,31,98.0
3298,G1,353.0,0.25,95,98.0
3299,G4,353.25,0.25,47,98.0
3300,G4,353.25,0.25,47,98.0
3301,G4,353.5,0.25,47,98.0
3302,G4,353.5,0.25,47,98.0
3303,F4,353.75,0.25,47,98.0
3304,F4,353.75,0.25,47,98.0
3305,G3,354.0,0.25,47,98.0
3306,G3,354.0,0.25,47,98.0
3307,B-3,354.25,0.25,47,98.0
3308,B-3,354.25,0.25,47,98.0
3309,C2,354.75,0.75,79,98.0
3310,B-3,355.0,0.25,47,98.0
3311,B-3,355.0,0.25,47,98.0
3312,C4,355.25,0.25,47,98.0
3313,C4,355.25,0.25,47,98.0
3314,C4,355.5,0.25,15,98.0
3315,C4,355.5,0.25,15,98.0
3316,C2,355.5,0.25,79,98.0
3317,D2,355.75,0.25,63,98.0
3318,C4,356.0,0.25,47,98.0
3319,C4,356.0,0.25,47,98.0
3320,C2,356.0,0.25,79,98.0
3321,D4,356.25,0.25,47,98.0
3322,D4,356.25,0.25,47,98.0
3323,B-1,356.25,0.25,79,98.0
3324,D4,356.5,0.25,15,98.0
3325,D4,356.5,0.25,15,98.0
3326,G1,356.5,0.25,79,98.0
3327,G3,356.75,0.25,47,98.0
3328,G3,356.75,0.25,47,98.0
3329,F1,356.75,0.25,63,98.0
3330,G3,357.0,0.25,47,98.0
3331,G3,357.0,0.25,47,98.0
3332,G1,357.0,0.375,95,98.0
3333,C4,357.25,0.25,47,98.0
3334,C4,357.25,0.25,47,98.0
3335,C4,357.5,0.25,15,98.0
3336,C4,357.5,0.25,15,98.0
3337,D4,357.75,0.25,47,98.0
3338,D4,357.75,0.25,47,98.0
3339,D4,358.0,0.25,15,98.0
3340,D4,358.0,0.25,15,98.0
3341,F4,358.25,0.25,47,98.0
3342,F4,358.25,0.25,47,98.0
3343,F4,358.5,0.25,15,98.0
3344,F4,358.5,0.25,15,98.0
3345,G4,358.75,0.25,47,98.0
3346,G4,358.75,0.25,47,98.0
3347,G1,358.75,0.375,95,98.0
3348,G4,359.0,0.75,15,98.0
3349,G4,359.0,0.75,15,98.0
3350,G4,359.75,0.25,47,98.0
3351,G4,359.75,0.25,47,98.0
3352,C2,359.75,0.25,79,98.0
3353,B-4,360.0,0.25,47,98.0
3354,B-4,360.0,0.25,47,98.0
3355,D2,360.0,0.25,79,98.0
3356,C5,360.25,0.25,47,98.0
3357,C5,360.25,0.25,47,98.0
3358,C5,360.5,0.25,47,98.0
3359,C5,360.5,0.25,47,98.0
3360,F2,360.5,0.25,79,98.0
3361,C5,360.75,0.25,15,98.0
3362,C5,360.75,0.25,15,98.0
3363,C2,361.0,0.25,95,98.0
3364,F4,361.0,0.25,95,98.0
3365,C4,361.0,0.25,95,98.0
3366,A3,361.0,0.25,95,98.0
3367,F4,361.0,0.25,95,98.0
3368,C4,361.0,0.25,95,98.0
3369,A3,361.0,0.25,95,98.0
3370,D3,361.25,0.25,95,98.0
3371,G1,361.75,0.25,95,98.0
3372,F1,362.0,0.25,95,98.0
3373,F1,362.25,0.25,95,98.0
3374,B-1,362.5,0.25,95,98.0
3375,C2,362.75,0.25,95,98.0
3376,D2,363.0,0.5,95,98.0
3377,C3,363.25,0.25,95,98.0
3378,C3,363.25,0.25,95,98.0
3379,D3,363.5,0.25,95,98.0
3380,D3,363.5,0.25,95,98.0
3381,F2,363.5,0.5,95,98.0
3382,C3,363.75,0.25,79,98.0
3383,C3,363.75,0.25,79,98.0
3384,C5,364.0,0.25,63,98.0
3385,B-2,364.0,0.5,63,98.0
3386,B-2,364.0,0.5,63,98.0
3387,D2,364.0,0.25,95,98.0
3388,D5,364.25,0.25,63,98.0
3389,C2,364.25,0.25,95,98.0
3390,C5,364.5,0.25,79,98.0
3391,F2,364.5,0.5,47,98.0
3392,F2,364.5,0.5,47,98.0
3393,A1,364.5,0.25,95,98.0
3394,F5,364.75,0.25,95,98.0
3395,G1,364.75,0.25,63,98.0
3396,B-1,365.0,0.25,63,98.0
3397,B-1,365.25,0.25,79,98.0
3398,G4,365.75,0.375,95,98.0
3399,C2,365.75,0.5,95,98.0
3400,F4,365.75,0.5,99,98.0
3401,D4,365.75,0.5,99,98.0
3402,C4,365.75,0.5,99,98.0
3403,A3,365.75,0.5,99,98.0
3404,F4,365.75,0.5,99,98.0
3405,D4,365.75,0.5,99,98.0
3406,C4,365.75,0.5,99,98.0
3407,A3,365.75,0.5,99,98.0
3408,F4,366.25,0.5,95,98.0
3409,A1,366.25,0.25,95,98.0
3410,B-3,366.25,0.25,47,98.0
3411,A3,366.25,0.25,47,98.0
3412,F4,366.75,0.5,95,98.0
3413,B-1,366.75,0.25,95,98.0
3414,F4,366.75,0.25,99,98.0
3415,D4,366.75,0.25,99,98.0
3416,C4,366.75,0.25,99,98.0
3417,A3,366.75,0.25,99,98.0
3418,F4,366.75,0.25,99,98.0
3419,D4,366.75,0.25,99,98.0
3420,C4,366.75,0.25,99,98.0
3421,A3,366.75,0.25,99,98.0
3422,E-4,367.25,0.25,95,98.0
3423,B-3,367.25,0.25,47,98.0
3424,A3,367.25,0.25,47,98.0
3425,D4,367.5,0.5,95,98.0
3426,C2,367.5,0.5,95,98.0
3427,F4,367.5,1.5,99,98.0
3428,D4,367.5,1.5,99,98.0
3429,C4,367.5,1.5,99,98.0
3430,A3,367.5,1.5,99,98.0
3431,F4,367.5,1.5,99,98.0
3432,D4,367.5,1.5,99,98.0
3433,C4,367.5,1.5,99,98.0
3434,A3,367.5,1.5,99,98.0
3435,B-3,368.0,0.5,95,98.0
3436,F1,368.0,0.25,63,98.0
3437,A1,368.25,0.25,63,98.0
3438,C4,368.5,0.5,95,98.0
3439,B-1,368.5,0.25,63,98.0
3440,C2,368.75,0.25,63,98.0
3441,C4,369.0,0.75,95,98.0
3442,B-1,369.0,0.25,63,98.0
3443,A4,369.0,4.0,95,98.0
3444,F4,369.0,4.0,95,98.0
3445,D4,369.0,4.0,95,98.0
3446,C4,369.0,4.0,95,98.0
3447,B-1,369.25,0.25,79,98.0
3448,C4,369.75,0.5,95,98.0
3449,C2,369.75,0.5,95,98.0
3450,A4,369.75,0.5,91,98.0
3451,D4,369.75,0.5,91,98.0
3452,B-3,369.75,0.5,91,98.0
3453,F3,369.75,0.5,91,98.0
3454,F4,369.75,0.5,91,98.0
3455,D4,369.75,0.5,91,98.0
3456,C4,369.75,0.5,91,98.0
3457,A3,369.75,0.5,91,98.0
3458,D4,370.25,0.375,95,98.0
3459,A1,370.25,0.25,95,98.0
3460,B-3,370.25,0.25,47,98.0
3461,A3,370.25,0.25,47,98.0
3462,B-1,370.75,0.25,95,98.0
3463,F4,370.75,0.25,99,98.0
3464,D4,370.75,0.25,99,98.0
3465,C4,370.75,0.25,99,98.0
3466,A3,370.75,0.25,99,98.0
3467,F4,370.75,0.25,99,98.0
3468,D4,370.75,0.25,99,98.0
3469,C4,370.75,0.25,99,98.0
3470,A3,370.75,0.25,99,98.0
3471,B-3,371.25,0.25,47,98.0
3472,A3,371.25,0.25,47,98.0
3473,E-2,371.5,0.75,95,98.0
3474,B-4,371.5,1.5,99,98.0
3475,G4,371.5,1.5,99,98.0
3476,E-4,371.5,1.5,99,98.0
3477,D4,371.5,1.5,99,98.0
3478,B-4,371.5,1.5,99,98.0
3479,G4,371.5,1.5,99,98.0
3480,E-4,371.5,1.5,99,98.0
3481,D4,371.5,1.5,99,98.0
3482,B-3,371.75,0.375,95,98.0
3483,E-4,372.25,0.5,95,98.0
3484,D2,372.25,0.25,63,98.0
3485,B-1,372.5,0.25,63,98.0
3486,F4,372.75,0.25,95,98.0
3487,C2,372.75,0.25,63,98.0
3488,F4,373.0,0.75,95,98.0
3489,B-1,373.0,0.25,63,98.0
3490,B-1,373.25,0.25,79,98.0
3491,F4,373.75,0.5,95,98.0
3492,C2,373.75,0.5,95,98.0
3493,F4,373.75,0.5,99,98.0
3494,D4,373.75,0.5,99,98.0
3495,C4,373.75,0.5,99,98.0
3496,A3,373.75,0.5,99,98.0
3497,F4,373.75,0.5,99,98.0
3498,D4,373.75,0.5,99,98.0
3499,C4,373.75,0.5,99,98.0
3500,A3,373.75,0.5,99,98.0
3501,G4,374.25,0.25,95,98.0
3502,A1,374.25,0.25,95,98.0
3503,B-3,374.25,0.25,47,98.0
3504,A3,374.25,0.25,47,98.0
3505,B-4,374.75,0.5,95,98.0
3506,B-1,374.75,0.25,95,98.0
3507,F4,374.75,0.25,99,98.0
3508,D4,374.75,0.25,99,98.0
3509,C4,374.75,0.25,99,98.0
3510,A3,374.75,0.25,99,98.0
3511,F4,374.75,0.25,99,98.0
3512,D4,374.75,0.25,99,98.0
3513,C4,374.75,0.25,99,98.0
3514,A3,374.75,0.25,99,98.0
3515,B-4,375.25,0.5,95,98.0
3516,B-3,375.25,0.25,47,98.0
3517,A3,375.25,0.25,47,98.0
3518,C2,375.5,0.5,95,98.0
3519,F4,375.5,1.5,99,98.0
3520,D4,375.5,1.5,99,98.0
3521,C4,375.5,1.5,99,98.0
3522,A3,375.5,1.5,99,98.0
3523,F4,375.5,1.5,99,98.0
3524,D4,375.5,1.5,99,98.0
3525,C4,375.5,1.5,99,98.0
3526,A3,375.5,1.5,99,98.0
3527,C5,375.75,0.25,95,98.0
3528,G4,376.0,0.5,95,98.0
3529,F1,376.0,0.25,63,98.0
3530,A1,376.25,0.25,63,98.0
3531,F4,376.5,0.5,95,98.0
3532,B-1,376.5,0.25,63,98.0
3533,C2,376.75,0.25,63,98.0
3534,F4,377.0,1.0,95,98.0
3535,B-1,377.0,0.25,95,98.0
3536,F1,377.75,0.25,95,98.0
3537,F4,377.75,0.5,91,98.0
3538,D4,377.75,0.5,91,98.0
3539,C4,377.75,0.5,91,98.0
3540,A3,377.75,0.5,91,98.0
3541,F4,377.75,0.5,91,98.0
3542,D4,377.75,0.5,91,98.0
3543,C4,377.75,0.5,91,98.0
3544,A3,377.75,0.5,91,98.0
3545,B-1,378.25,0.25,95,98.0
3546,B-3,378.25,0.25,47,98.0
3547,A3,378.25,0.25,47,98.0
3548,B-3,378.25,0.25,47,98.0
3549,A3,378.25,0.25,47,98.0
3550,C2,379.5,0.25,95,98.0
3551,G4,379.5,0.25,95,98.0
3552,E-4,379.5,0.25,95,98.0
3553,C4,379.5,0.25,95,98.0
3554,B-3,379.5,0.25,95,98.0
3555,G4,379.5,0.25,95,98.0
3556,E-4,379.5,0.25,95,98.0
3557,C4,379.5,0.25,95,98.0
3558,B-3,379.5,0.25,95,98.0
3559,G#4,380.25,0.5,95,98.0
3560,F1,380.25,0.75,95,98.0
3561,B-4,380.25,0.5,95,98.0
3562,F4,380.25,0.5,95,98.0
3563,C4,380.25,0.5,95,98.0
3564,A3,380.25,0.5,95,98.0
3565,B-4,380.25,0.25,95,98.0
3566,F4,380.25,0.25,95,98.0
3567,C4,380.25,0.25,95,98.0
3568,A3,380.25,0.25,95,98.0
3569,C5,380.75,0.25,95,98.0
3570,C5,381.0,0.75,95,98.0
3571,B-1,381.0,0.25,63,98.0
3572,B-1,381.25,0.25,79,98.0
3573,C5,381.75,0.5,95,98.0
3574,C2,381.75,0.5,95,98.0
3575,F4,381.75,0.5,99,98.0
3576,D4,381.75,0.5,99,98.0
3577,C4,381.75,0.5,99,98.0
3578,A3,381.75,0.5,99,98.0
3579,F4,381.75,0.5,99,98.0
3580,D4,381.75,0.5,99,98.0
3581,C4,381.75,0.5,99,98.0
3582,A3,381.75,0.5,99,98.0
3583,B-4,382.25,0.25,95,98.0
3584,A1,382.25,0.25,95,98.0
3585,B-3,382.25,0.25,47,98.0
3586,A3,382.25,0.25,47,98.0
3587,B-4,382.75,0.75,95,98.0
3588,B-1,382.75,0.25,95,98.0
3589,F4,382.75,0.25,99,98.0
3590,D4,382.75,0.25,99,98.0
3591,C4,382.75,0.25,99,98.0
3592,A3,382.75,0.25,99,98.0
3593,F4,382.75,0.25,99,98.0
3594,D4,382.75,0.25,99,98.0
3595,C4,382.75,0.25,99,98.0
3596,A3,382.75,0.25,99,98.0
3597,B-3,383.25,0.25,47,98.0
3598,A3,383.25,0.25,47,98.0
3599,C5,383.5,0.25,95,98.0
3600,C2,383.5,0.5,95,98.0
3601,F4,383.5,1.5,99,98.0
3602,D4,383.5,1.5,99,98.0
3603,C4,383.5,1.5,99,98.0
3604,A3,383.5,1.5,99,98.0
3605,F4,383.5,1.5,99,98.0
3606,D4,383.5,1.5,99,98.0
3607,C4,383.5,1.5,99,98.0
3608,A3,383.5,1.5,99,98.0
3609,F4,383.75,0.25,95,98.0
3610,F5,384.0,0.25,95,98.0
3611,F1,384.0,0.25,63,98.0
3612,A1,384.25,0.25,63,98.0
3613,D5,384.5,0.5,95,98.0
3614,B-1,384.5,0.25,63,98.0
3615,C2,384.75,0.25,63,98.0
3616,D5,385.0,0.75,95,98.0
3617,C5,385.0,4.0,63,98.0
3618,B-1,385.0,0.25,63,98.0
3619,A4,385.0,4.0,95,98.0
3620,F4,385.0,4.0,95,98.0
3621,D4,385.0,4.0,95,98.0
3622,C4,385.0,4.0,95,98.0
3623,B-1,385.25,0.25,79,98.0
3624,C5,385.75,0.375,95,98.0
3625,C2,385.75,0.5,95,98.0
3626,A4,385.75,0.5,91,98.0
3627,D4,385.75,0.5,91,98.0
3628,B-3,385.75,0.5,91,98.0
3629,F3,385.75,0.5,91,98.0
3630,F4,385.75,0.5,91,98.0
3631,D4,385.75,0.5,91,98.0
3632,C4,385.75,0.5,91,98.0
3633,A3,385.75,0.5,91,98.0
3634,B-4,386.25,0.25,95,98.0
3635,A1,386.25,0.25,95,98.0
3636,B-3,386.25,0.25,47,98.0
3637,A3,386.25,0.25,47,98.0
3638,B-4,386.75,0.75,95,98.0
3639,B-1,386.75,0.25,95,98.0
3640,F4,386.75,0.25,99,98.0
3641,D4,386.75,0.25,99,98.0
3642,C4,386.75,0.25,99,98.0
3643,A3,386.75,0.25,99,98.0
3644,F4,386.75,0.25,99,98.0
3645,D4,386.75,0.25,99,98.0
3646,C4,386.75,0.25,99,98.0
3647,A3,386.75,0.25,99,98.0
3648,B-3,387.25,0.25,47,98.0
3649,A3,387.25,0.25,47,98.0
3650,B-4,387.5,0.25,95,98.0
3651,E-2,387.5,0.75,95,98.0
3652,B-4,387.5,1.5,99,98.0
3653,G4,387.5,1.5,99,98.0
3654,E-4,387.5,1.5,99,98.0
3655,D4,387.5,1.5,99,98.0
3656,B-4,387.5,1.5,99,98.0
3657,G4,387.5,1.5,99,98.0
3658,E-4,387.5,1.5,99,98.0
3659,D4,387.5,1.5,99,98.0
3660,C5,387.75,0.25,95,98.0
3661,G4,388.0,0.5,95,98.0
3662,D2,388.25,0.25,63,98.0
3663,F4,388.5,0.5,95,98.0
3664,B-1,388.5,0.25,63,98.0
3665,C2,388.75,0.25,63,98.0
3666,B-1,389.0,0.25,63,98.0
3667,B-1,389.25,0.25,79,98.0
3668,C2,389.75,0.5,95,98.0
3669,F4,389.75,0.5,99,98.0
3670,D4,389.75,0.5,99,98.0
3671,C4,389.75,0.5,99,98.0
3672,A3,389.75,0.5,99,98.0
3673,F4,389.75,0.5,99,98.0
3674,D4,389.75,0.5,99,98.0
3675,C4,389.75,0.5,99,98.0
3676,A3,389.75,0.5,99,98.0
3677,A1,390.25,0.25,95,98.0
3678,B-3,390.25,0.25,47,98.0
3679,A3,390.25,0.25,47,98.0
3680,F4,390.75,0.25,95,98.0
3681,B-1,390.75,0.25,95,98.0
3682,F4,390.75,0.25,99,98.0
3683,D4,390.75,0.25,99,98.0
3684,C4,390.75,0.25,99,98.0
3685,A3,390.75,0.25,99,98.0
3686,F4,390.75,0.25,99,98.0
3687,D4,390.75,0.25,99,98.0
3688,C4,390.75,0.25,99,98.0
3689,A3,390.75,0.25,99,98.0
3690,E-4,391.25,0.25,95,98.0
3691,B-3,391.25,0.25,47,98.0
3692,A3,391.25,0.25,47,98.0
3693,D4,391.5,0.25,95,98.0
3694,C2,391.5,0.5,95,98.0
3695,F4,391.5,1.5,99,98.0
3696,D4,391.5,1.5,99,98.0
3697,C4,391.5,1.5,99,98.0
3698,A3,391.5,1.5,99,98.0
3699,F4,391.5,1.5,99,98.0
3700,D4,391.5,1.5,99,98.0
3701,C4,391.5,1.5,99,98.0
3702,A3,391.5,1.5,99,98.0
3703,B-3,392.0,0.5,95,98.0
3704,F1,392.0,0.25,63,98.0
3705,A1,392.25,0.25,63,98.0
3706,C4,392.5,0.5,95,98.0
3707,B-1,392.5,0.25,63,98.0
3708,C2,392.75,0.25,63,98.0
3709,C4,393.0,0.75,95,98.0
3710,B-1,393.0,0.25,63,98.0
3711,B-1,393.25,0.25,79,98.0
3712,C4,393.75,0.5,95,98.0
3713,C2,393.75,0.5,95,98.0
3714,A4,393.75,0.5,91,98.0
3715,D4,393.75,0.5,91,98.0
3716,B-3,393.75,0.5,91,98.0
3717,F3,393.75,0.5,91,98.0
3718,F4,393.75,0.5,91,98.0
3719,D4,393.75,0.5,91,98.0
3720,C4,393.75,0.5,91,98.0
3721,A3,393.75,0.5,91,98.0
3722,D4,394.25,0.25,95,98.0
3723,A1,394.25,0.25,95,98.0
3724,B-3,394.25,0.25,47,98.0
3725,A3,394.25,0.25,47,98.0
3726,B-1,394.75,0.25,95,98.0
3727,F4,394.75,0.25,99,98.0
3728,D4,394.75,0.25,99,98.0
3729,C4,394.75,0.25,99,98.0
3730,A3,394.75,0.25,99,98.0
3731,F4,394.75,0.25,99,98.0
3732,D4,394.75,0.25,99,98.0
3733,C4,394.75,0.25,99,98.0
3734,A3,394.75,0.25,99,98.0
3735,B-3,395.25,0.25,47,98.0
3736,A3,395.25,0.25,47,98.0
3737,E-2,395.5,0.75,95,98.0
3738,B-4,395.5,1.5,99,98.0
3739,G4,395.5,1.5,99,98.0
3740,E-4,395.5,1.5,99,98.0
3741,D4,395.5,1.5,99,98.0
3742,B-4,395.5,1.5,99,98.0
3743,G4,395.5,1.5,99,98.0
3744,E-4,395.5,1.5,99,98.0
3745,D4,395.5,1.5,99,98.0
3746,B-3,396.0,0.25,95,98.0
3747,C4,396.25,0.25,95,98.0
3748,D2,396.25,0.25,63,98.0
3749,D4,396.5,0.25,95,98.0
3750,B-1,396.5,0.25,63,98.0
3751,E-4,396.75,0.25,95,98.0
3752,C2,396.75,0.25,63,98.0
3753,F4,397.0,0.75,95,98.0
3754,F5,397.0,4.0,63,98.0
3755,E-2,397.0,0.75,95,98.0
3756,A4,397.0,4.0,95,98.0
3757,F4,397.0,4.0,95,98.0
3758,D4,397.0,4.0,95,98.0
3759,C4,397.0,4.0,95,98.0
3760,F4,397.75,0.5,95,98.0
3761,C#2,397.75,0.5,95,98.0
3762,F4,397.75,0.5,107,98.0
3763,C#4,397.75,0.5,107,98.0
3764,B-3,397.75,0.5,107,98.0
3765,F#3,397.75,0.5,107,98.0
3766,E-4,398.25,0.5,95,98.0
3767,F4,398.25,0.25,71,98.0
3768,C#4,398.25,0.25,71,98.0
3769,B-3,398.25,0.25,71,98.0
3770,F#3,398.25,0.25,71,98.0
3771,F4,398.75,0.75,95,98.0
3772,B-1,398.75,0.25,95,98.0
3773,B-1,399.25,0.25,95,98.0
3774,E-4,399.25,0.25,79,98.0
3775,C4,399.25,0.25,79,98.0
3776,G#3,399.25,0.25,79,98.0
3777,B-4,399.5,0.25,95,98.0
3778,C#2,399.5,0.25,95,98.0
3779,F4,399.75,0.25,95,98.0
3780,C#4,399.75,0.25,63,98.0
3781,B-1,399.75,0.25,95,98.0
3782,C#5,400.0,0.5,95,98.0
3783,E-2,400.0,0.25,95,98.0
3784,E-4,400.0,0.25,79,98.0
3785,C4,400.0,0.25,79,98.0
3786,G#3,400.0,0.25,79,98.0
3787,B-4,400.5,0.5,95,98.0
3788,F2,400.5,0.25,95,98.0
3789,F4,400.5,0.25,79,98.0
3790,C#4,400.5,0.25,79,98.0
3791,G#3,400.5,0.25,79,98.0
3792,B-4,401.0,1.5,95,98.0
3793,F5,401.0,4.0,63,98.0
3794,B-1,401.0,0.5,95,98.0
3795,A4,401.0,4.0,95,98.0
3796,F4,401.0,4.0,95,98.0
3797,D4,401.0,4.0,95,98.0
3798,C4,401.0,4.0,95,98.0
3799,B-1,401.5,0.25,95,98.0
3800,C#2,401.75,0.5,95,98.0
3801,C#4,401.75,0.5,111,98.0
3802,B-3,401.75,0.5,111,98.0
3803,F#3,401.75,0.5,111,98.0
3804,C#4,401.75,0.5,111,98.0
3805,B-3,401.75,0.5,111,98.0
3806,F#3,401.75,0.5,111,98.0
3807,E-2,402.25,0.25,95,98.0
3808,C#4,402.25,0.25,63,98.0
3809,B-3,402.25,0.25,63,98.0
3810,F#3,402.25,0.25,63,98.0
3811,C#4,402.25,0.25,63,98.0
3812,B-3,402.25,0.25,63,98.0
3813,F#3,402.25,0.25,63,98.0
3814,E-5,402.75,0.25,95,98.0
3815,B-1,402.75,0.25,95,98.0
3816,E-5,403.25,0.25,95,98.0
3817,B-1,403.25,0.25,95,98.0
3818,E-4,403.25,0.25,79,98.0
3819,C4,403.25,0.25,79,98.0
3820,G#3,403.25,0.25,79,98.0
3821,E-4,403.25,0.25,79,98.0
3822,C4,403.25,0.25,79,98.0
3823,G#3,403.25,0.25,79,98.0
3824,E-4,403.5,0.25,95,98.0
3825,G#1,403.5,0.5,95,98.0
3826,C#5,403.75,0.25,95,98.0
3827,C#4,403.75,0.25,63,98.0
3828,C#4,403.75,0.25,63,98.0
3829,E-5,404.0,0.25,95,98.0
3830,E-2,404.0,0.25,95,98.0
3831,E-4,404.0,0.25,79,98.0
3832,C4,404.0,0.25,79,98.0
3833,G#3,404.0,0.25,79,98.0
3834,E-4,404.0,0.25,79,98.0
3835,C4,404.0,0.25,79,98.0
3836,G#3,404.0,0.25,79,98.0
3837,F5,404.25,0.25,63,98.0
3838,F4,404.25,0.25,95,98.0
3839,E-2,404.25,0.25,95,98.0
3840,C#5,404.5,0.5,95,98.0
3841,C#2,404.5,0.5,95,98.0
3842,F4,404.5,0.25,79,98.0
3843,C#4,404.5,0.25,79,98.0
3844,G#3,404.5,0.25,79,98.0
3845,F4,404.5,0.25,79,98.0
3846,C#4,404.5,0.25,79,98.0
3847,G#3,404.5,0.25,79,98.0
3848,C#5,405.0,1.5,95,98.0
3849,B-1,405.0,0.5,95,98.0
3850,B-1,405.5,0.25,95,98.0
3851,C#2,405.75,0.5,95,98.0
3852,F4,405.75,0.5,107,98.0
3853,C#4,405.75,0.5,107,98.0
3854,B-3,405.75,0.5,107,98.0
3855,F#3,405.75,0.5,107,98.0
3856,F4,405.75,0.5,107,98.0
3857,C#4,405.75,0.5,107,98.0
3858,B-3,405.75,0.5,107,98.0
3859,F#3,405.75,0.5,107,98.0
3860,E-2,406.25,0.25,95,98.0
3861,F4,406.25,0.25,71,98.0
3862,C#4,406.25,0.25,71,98.0
3863,B-3,406.25,0.25,71,98.0
3864,F#3,406.25,0.25,71,98.0
3865,F4,406.25,0.25,71,98.0
3866,C#4,406.25,0.25,71,98.0
3867,B-3,406.25,0.25,71,98.0
3868,F#3,406.25,0.25,71,98.0
3869,B-4,406.75,0.25,95,98.0
3870,B-1,406.75,0.25,95,98.0
3871,G#4,407.25,0.25,95,98.0
3872,B-1,407.25,0.25,95,98.0
3873,E-4,407.25,0.25,79,98.0
3874,C4,407.25,0.25,79,98.0
3875,G#3,407.25,0.25,79,98.0
3876,E-4,407.25,0.25,79,98.0
3877,C4,407.25,0.25,79,98.0
3878,G#3,407.25,0.25,79,98.0
3879,E-4,407.5,0.25,95,98.0
3880,C#4,407.75,0.25,95,98.0
3881,C#4,407.75,0.25,63,98.0
3882,C#4,407.75,0.25,63,98.0
3883,B-1,407.75,0.25,95,98.0
3884,E-4,408.0,0.25,95,98.0
3885,C#2,408.0,0.25,95,98.0
3886,E-4,408.0,0.25,79,98.0
3887,C4,408.0,0.25,79,98.0
3888,G#3,408.0,0.25,79,98.0
3889,E-4,408.0,0.25,79,98.0
3890,C4,408.0,0.25,79,98.0
3891,G#3,408.0,0.25,79,98.0
3892,F4,408.25,0.25,95,98.0
3893,F4,408.5,0.5,95,98.0
3894,E-2,408.5,0.25,95,98.0
3895,F4,408.5,0.25,79,98.0
3896,C#4,408.5,0.25,79,98.0
3897,G#3,408.5,0.25,79,98.0
3898,F4,408.5,0.25,79,98.0
3899,C#4,408.5,0.25,79,98.0
3900,G#3,408.5,0.25,79,98.0
3901,F4,409.0,0.25,95,98.0
3902,B-1,409.0,0.5,95,98.0
3903,F#4,409.25,0.25,79,98.0
3904,F4,409.5,2.0,63,98.0
3905,B-1,409.5,0.25,95,98.0
3906,C#2,409.75,0.5,95,98.0
3907,F4,409.75,0.5,99,98.0
3908,C#4,409.75,0.5,99,98.0
3909,B-3,409.75,0.5,99,98.0
3910,F#3,409.75,0.5,99,98.0
3911,F4,409.75,0.5,99,98.0
3912,C#4,409.75,0.5,99,98.0
3913,B-3,409.75,0.5,99,98.0
3914,F#3,409.75,0.5,99,98.0
3915,E-2,410.25,0.25,95,98.0
3916,F4,410.25,0.25,71,98.0
3917,C#4,410.25,0.25,71,98.0
3918,B-3,410.25,0.25,71,98.0
3919,F#3,410.25,0.25,71,98.0
3920,F4,410.25,0.25,71,98.0
3921,C#4,410.25,0.25,71,98.0
3922,B-3,410.25,0.25,71,98.0
3923,F#3,410.25,0.25,71,98.0
3924,B-1,410.75,0.25,95,98.0
3925,F4,410.75,0.25,99,98.0
3926,C#4,410.75,0.25,99,98.0
3927,B-3,410.75,0.25,99,98.0
3928,F#3,410.75,0.25,99,98.0
3929,F4,410.75,0.25,99,98.0
3930,C#4,410.75,0.25,99,98.0
3931,B-3,410.75,0.25,99,98.0
3932,F#3,410.75,0.25,99,98.0
3933,B-1,411.25,0.25,95,98.0
3934,G#4,411.25,0.25,100,98.0
3935,E-4,411.25,0.25,100,98.0
3936,C4,411.25,0.25,100,98.0
3937,G#4,411.25,0.25,100,98.0
3938,E-4,411.25,0.25,100,98.0
3939,C4,411.25,0.25,100,98.0
3940,B-3,411.75,0.25,95,98.0
3941,B-1,411.75,0.25,95,98.0
3942,C#4,412.0,0.25,95,98.0
3943,E-2,412.0,0.25,95,98.0
3944,G#4,412.0,0.5,95,98.0
3945,E-4,412.0,0.5,95,98.0
3946,C4,412.0,0.5,95,98.0
3947,G#4,412.0,0.5,95,98.0
3948,E-4,412.0,0.5,95,98.0
3949,C4,412.0,0.5,95,98.0
3950,E-4,412.5,0.25,95,98.0
3951,F2,412.5,0.25,95,98.0
3952,G#4,412.5,0.25,95,98.0
3953,E-4,412.5,0.25,95,98.0
3954,C4,412.5,0.25,95,98.0
3955,G#4,412.5,0.25,95,98.0
3956,E-4,412.5,0.25,95,98.0
3957,C4,412.5,0.25,95,98.0
3958,F4,413.0,0.75,95,98.0
3959,D2,413.0,0.5,95,98.0
3960,C4,413.0,1.0,95,98.0
3961,A3,413.0,1.0,95,98.0
3962,F3,413.0,1.0,95,98.0
3963,C4,413.75,0.5,95,98.0
3964,F1,413.75,0.5,95,98.0
3965,G4,414.25,0.25,95,98.0
3966,G1,414.25,0.25,95,98.0
3967,C4,414.25,0.25,95,98.0
3968,A3,414.25,0.25,95,98.0
3969,F3,414.25,0.25,95,98.0
3970,G4,414.75,0.25,95,98.0
3971,G1,414.75,0.25,95,98.0
3972,D4,414.75,0.25,95,98.0
3973,B-3,414.75,0.25,95,98.0
3974,G3,414.75,0.25,95,98.0
3975,G1,415.25,0.25,111,98.0
3976,C5,415.25,0.25,63,98.0
3977,G4,415.25,0.25,63,98.0
3978,G5,415.25,0.25,111,98.0
3979,D5,415.25,0.25,111,98.0
3980,G4,415.25,0.25,111,98.0
3981,E2,415.5,1.0,95,98.0
3982,C5,415.5,0.5,63,98.0
3983,G4,415.5,0.5,63,98.0
3984,G5,415.5,0.5,111,98.0
3985,D5,415.5,0.5,111,98.0
3986,G4,415.5,0.5,111,98.0
3987,D4,416.25,0.25,95,98.0
3988,G4,416.5,0.25,95,98.0
3989,C2,416.5,0.5,95,98.0
3990,A4,416.75,0.25,95,98.0
3991,G#4,417.0,0.5,95,98.0
3992,C2,417.0,0.5,63,98.0
3993,D4,417.0,1.0,95,98.0
3994,B-3,417.0,1.0,95,98.0
3995,G3,417.0,1.0,95,98.0
3996,A4,417.5,0.25,95,98.0
3997,G4,417.75,0.25,95,98.0
3998,C2,417.75,0.25,95,98.0
3999,G4,418.25,0.25,95,98.0
4000,B-1,418.25,0.25,95,98.0
4001,D4,418.25,0.25,95,98.0
4002,B-3,418.25,0.25,95,98.0
4003,G3,418.25,0.25,95,98.0
4004,C5,418.75,0.25,95,98.0
4005,C2,418.75,0.25,95,98.0
4006,F4,418.75,1.5,95,98.0
4007,C4,418.75,1.5,95,98.0
4008,A3,418.75,1.5,95,98.0
4009,F5,419.25,0.25,95,98.0
4010,C2,419.25,0.25,63,98.0
4011,E-2,419.5,1.0,95,98.0
4012,C5,419.75,0.25,95,98.0
4013,C5,420.25,0.25,95,98.0
4014,B-1,420.5,0.5,95,98.0
4015,F4,420.5,0.5,95,98.0
4016,C4,420.5,0.5,95,98.0
4017,A3,420.5,0.5,95,98.0
4018,B-4,420.75,0.25,95,98.0
4019,C5,421.0,0.25,95,98.0
4020,A3,421.0,1.0,95,98.0
4021,G1,421.0,0.5,95,98.0
4022,D5,421.25,0.25,95,98.0
4023,B-4,421.5,0.25,95,98.0
4024,A4,421.75,0.25,95,98.0
4025,G1,421.75,0.5,95,98.0
4026,B-3,422.0,1.0,95,98.0
4027,G4,422.25,0.25,95,98.0
4028,F1,422.25,0.25,95,98.0
4029,G4,422.75,2.25,95,98.0
4030,G1,422.75,0.25,95,98.0
4031,C4,423.0,1.0,95,98.0
4032,G1,423.25,0.25,95,98.0
4033,E2,423.5,0.75,95,98.0
4034,D4,424.0,1.0,95,98.0
4035,D2,424.25,0.25,63,98.0
4036,C2,424.5,0.25,95,98.0
4037,D2,424.75,0.25,95,98.0
4038,C2,425.0,0.5,95,98.0
4039,G4,425.0,1.0,63,98.0
4040,E-4,425.0,1.0,63,98.0
4041,D2,425.75,0.5,95,98.0
4042,A4,426.0,1.0,79,98.0
4043,F4,426.0,1.0,79,98.0
4044,B-1,426.25,0.25,95,98.0
4045,C2,426.75,0.5,95,98.0
4046,B-4,427.0,1.0,95,98.0
4047,G4,427.0,1.0,95,98.0
4048,F4,427.25,0.25,95,98.0
4049,G4,427.5,0.25,95,98.0
4050,D2,427.5,0.25,95,98.0
4051,F4,427.75,0.25,95,98.0
4052,B-1,427.75,1.0,95,98.0
4053,B-4,428.0,0.5,95,98.0
4054,C5,428.0,0.5,95,98.0
4055,E-4,428.0,0.5,95,98.0
4056,B-3,428.0,0.5,95,98.0
4057,C5,428.0,1.0,111,98.0
4058,A4,428.0,1.0,111,98.0
4059,F4,428.0,1.0,111,98.0
4060,C5,428.5,0.5,95,98.0
4061,F5,428.5,0.5,95,98.0
4062,F4,428.5,0.5,95,98.0
4063,C4,428.5,0.5,95,98.0
4064,G3,429.0,0.5,95,98.0
4065,G1,429.0,1.0,95,98.0
4066,D5,429.75,0.375,87,98.0
4067,B-4,429.75,0.375,87,98.0
4068,D5,429.75,0.375,95,98.0
4069,B-4,429.75,0.375,95,98.0
4070,G4,429.75,0.375,95,98.0
4071,G1,430.25,0.25,95,98.0
4072,D5,430.25,0.375,87,98.0
4073,B-4,430.25,0.375,87,98.0
4074,D5,430.25,0.375,95,98.0
4075,B-4,430.25,0.375,95,98.0
4076,G4,430.25,0.375,95,98.0
4077,D4,430.25,0.25,95,98.0
4078,B-3,430.25,0.25,95,98.0
4079,G3,430.25,0.25,95,98.0
4080,D4,430.25,0.25,95,98.0
4081,B-3,430.25,0.25,95,98.0
4082,G3,430.25,0.25,95,98.0
4083,B-1,430.75,1.75,95,98.0
4084,C5,430.75,1.25,87,98.0
4085,B-4,430.75,1.25,87,98.0
4086,C5,430.75,1.25,95,98.0
4087,B-4,430.75,1.25,95,98.0
4088,F4,430.75,1.25,95,98.0
4089,D4,430.75,1.0,95,98.0
4090,B-3,430.75,1.0,95,98.0
4091,F3,430.75,1.0,95,98.0
4092,D4,430.75,1.0,95,98.0
4093,B-3,430.75,1.0,95,98.0
4094,F3,430.75,1.0,95,98.0
4095,G4,432.0,0.5,87,98.0
4096,E-4,432.0,0.5,87,98.0
4097,A4,432.0,0.25,95,98.0
4098,F4,432.0,0.25,95,98.0
4099,C4,432.0,0.25,95,98.0
4100,G3,432.25,0.25,63,98.0
4101,F1,432.5,0.5,95,98.0
4102,G4,432.5,0.5,87,98.0
4103,E4,432.5,0.5,87,98.0
4104,G4,432.5,0.5,95,98.0
4105,E4,432.5,0.5,95,98.0
4106,C4,432.5,0.5,95,98.0
4107,E4,432.5,0.5,95,98.0
4108,C4,432.5,0.5,95,98.0
4109,G3,432.5,0.5,95,98.0
4110,E4,432.5,0.5,95,98.0
4111,C4,432.5,0.5,95,98.0
4112,G3,432.5,0.5,95,98.0
4113,F1,433.0,1.0,95,98.0
4114,G4,433.0,1.0,87,98.0
4115,E4,433.0,1.0,87,98.0
4116,G4,433.0,1.0,95,98.0
4117,E4,433.0,1.0,95,98.0
4118,C4,433.0,1.0,95,98.0
4119,E4,433.0,1.5,95,98.0
4120,C4,433.0,1.5,95,98.0
4121,G3,433.0,1.5,95,98.0
4122,E4,433.0,1.5,95,98.0
4123,C4,433.0,1.5,95,98.0
4124,G3,433.0,1.5,95,98.0
4125,G4,434.25,0.25,95,98.0
4126,F1,434.25,0.25,95,98.0
4127,A4,434.5,0.25,95,98.0
4128,G#4,434.75,0.25,95,98.0
4129,E-2,434.75,1.75,95,98.0
4130,D4,434.75,1.75,95,98.0
4131,B-3,434.75,1.75,95,98.0
4132,F3,434.75,1.75,95,98.0
4133,D4,434.75,1.75,95,98.0
4134,B-3,434.75,1.75,95,98.0
4135,F3,434.75,1.75,95,98.0
4136,A4,435.25,0.25,95,98.0
4137,G4,435.75,0.25,95,98.0
4138,F4,436.25,0.75,95,98.0
4139,D2,436.5,0.5,95,98.0
4140,B-3,436.5,0.5,95,98.0
4141,F3,436.5,0.5,95,98.0
4142,D4,437.0,1.0,95,98.0
4143,C2,437.0,1.0,95,98.0
4144,D4,437.0,0.5,95,98.0
4145,B-3,437.0,0.5,95,98.0
4146,G3,437.0,0.5,95,98.0
4147,B-4,437.0,4.0,95,98.0
4148,F4,437.0,4.0,95,98.0
4149,D4,437.0,0.5,95,98.0
4150,B-3,437.0,0.5,95,98.0
4151,G3,437.0,0.5,95,98.0
4152,C2,438.25,0.25,95,98.0
4153,D4,438.25,0.25,95,98.0
4154,B-3,438.25,0.25,95,98.0
4155,G3,438.25,0.25,95,98.0
4156,D4,438.25,0.25,95,98.0
4157,B-3,438.25,0.25,95,98.0
4158,G3,438.25,0.25,95,98.0
4159,A4,438.75,0.5,95,98.0
4160,D2,438.75,1.75,95,98.0
4161,F4,438.75,1.0,95,98.0
4162,C4,438.75,1.0,95,98.0
4163,A3,438.75,1.0,95,98.0
4164,F4,438.75,1.0,95,98.0
4165,C4,438.75,1.0,95,98.0
4166,A3,438.75,1.0,95,98.0
4167,B-4,439.25,0.5,95,98.0
4168,A4,439.75,0.5,95,98.0
4169,D4,440.0,0.25,95,98.0
4170,D4,440.0,0.25,95,98.0
4171,F4,440.25,0.25,95,98.0
4172,F4,440.25,0.25,95,98.0
4173,F4,440.25,0.25,87,98.0
4174,G3,440.25,0.25,87,98.0
4175,F4,440.5,0.25,95,98.0
4176,G4,440.5,0.25,95,98.0
4177,C2,440.5,0.5,63,98.0
4178,G4,440.5,0.25,99,98.0
4179,F4,440.5,0.25,99,98.0
4180,C4,440.5,0.25,99,98.0
4181,A3,440.5,0.25,99,98.0
4182,F4,440.5,0.5,95,98.0
4183,C4,440.5,0.5,95,98.0
4184,A3,440.5,0.5,95,98.0
4185,F4,440.75,0.25,95,98.0
4186,B-4,440.75,0.25,95,98.0
4187,B-4,440.75,0.25,111,98.0
4188,F4,441.0,0.5,95,98.0
4189,B-4,441.0,3.0,95,98.0
4190,B-4,441.0,0.5,111,98.0
4191,E-2,441.0,1.25,95,98.0
4192,G#4,441.0,4.0,95,98.0
4193,F4,441.0,4.0,95,98.0
4194,D4,441.0,0.5,95,98.0
4195,B-3,441.0,0.5,95,98.0
4196,G3,441.0,0.5,95,98.0
4197,B-4,441.5,0.25,95,98.0
4198,G5,441.5,0.25,111,98.0
4199,C5,441.5,0.25,111,98.0
4200,G4,441.5,0.25,111,98.0
4201,G4,441.75,0.5,95,98.0
4202,F5,441.75,0.25,111,98.0
4203,B-4,441.75,0.25,111,98.0
4204,F4,441.75,0.25,111,98.0
4205,E-2,442.25,0.5,95,98.0
4206,G5,442.25,0.25,111,98.0
4207,C5,442.25,0.25,111,98.0
4208,G4,442.25,0.25,111,98.0
4209,D4,442.25,0.25,95,98.0
4210,B-3,442.25,0.25,95,98.0
4211,G3,442.25,0.25,95,98.0
4212,E-2,442.75,1.25,95,98.0
4213,G5,442.75,0.25,111,98.0
4214,C5,442.75,0.25,111,98.0
4215,G4,442.75,0.25,111,98.0
4216,D4,442.75,1.0,95,98.0
4217,B-3,442.75,1.0,95,98.0
4218,G3,442.75,1.0,95,98.0
4219,G4,443.25,0.25,111,98.0
4220,B-4,443.5,0.25,111,98.0
4221,G4,443.75,0.25,95,98.0
4222,C5,443.75,0.25,111,98.0
4223,B-4,444.0,0.25,95,98.0
4224,D5,444.0,0.125,111,98.0
4225,E-2,444.0,0.5,95,98.0
4226,B-4,444.0,0.25,95,98.0
4227,E-4,444.0,0.25,95,98.0
4228,B-3,444.0,0.25,95,98.0
4229,D4,444.0,0.5,95,98.0
4230,B-3,444.0,0.5,95,98.0
4231,G3,444.0,0.5,95,98.0
4232,C5,444.125,0.125,111,98.0
4233,B-4,444.25,0.125,111,98.0
4234,G4,444.375,0.375,111,98.0
4235,C5,444.5,0.25,95,98.0
4236,F1,444.5,0.5,95,98.0
4237,C5,444.5,0.25,95,98.0
4238,F4,444.5,0.25,95,98.0
4239,C4,444.5,0.25,95,98.0
4240,C4,444.5,0.5,95,98.0
4241,A3,444.5,0.5,95,98.0
4242,F3,444.5,0.5,95,98.0
4243,G3,445.0,0.5,95,98.0
4244,G#4,445.0,1.0,95,98.0
4245,G1,445.0,1.0,95,98.0
4246,D5,445.75,0.375,87,98.0
4247,B-4,445.75,0.375,87,98.0
4248,D5,445.75,0.375,95,98.0
4249,B-4,445.75,0.375,95,98.0
4250,G4,445.75,0.375,95,98.0
4251,B-4,446.0,3.0,95,98.0
4252,F4,446.0,3.0,95,98.0
4253,G1,446.25,0.25,95,98.0
4254,D5,446.25,0.375,87,98.0
4255,B-4,446.25,0.375,87,98.0
4256,D5,446.25,0.375,95,98.0
4257,B-4,446.25,0.375,95,98.0
4258,G4,446.25,0.375,95,98.0
4259,D4,446.25,0.25,95,98.0
4260,B-3,446.25,0.25,95,98.0
4261,G3,446.25,0.25,95,98.0
4262,D4,446.25,0.25,95,98.0
4263,B-3,446.25,0.25,95,98.0
4264,G3,446.25,0.25,95,98.0
4265,B-1,446.75,1.75,95,98.0
4266,C5,446.75,1.25,87,98.0
4267,B-4,446.75,1.25,87,98.0
4268,C5,446.75,1.25,95,98.0
4269,B-4,446.75,1.25,95,98.0
4270,F4,446.75,1.25,95,98.0
4271,D4,446.75,1.0,95,98.0
4272,B-3,446.75,1.0,95,98.0
4273,F3,446.75,1.0,95,98.0
4274,D4,446.75,1.0,95,98.0
4275,B-3,446.75,1.0,95,98.0
4276,F3,446.75,1.0,95,98.0
4277,E-5,448.0,0.5,87,98.0
4278,F4,448.0,0.5,87,98.0
4279,A4,448.0,0.25,95,98.0
4280,F4,448.0,0.25,95,98.0
4281,C4,448.0,0.25,95,98.0
4282,G3,448.25,0.25,63,98.0
4283,F1,448.5,0.5,95,98.0
4284,F5,448.5,0.5,87,98.0
4285,E4,448.5,0.5,87,98.0
4286,G4,448.5,0.5,95,98.0
4287,E4,448.5,0.5,95,98.0
4288,C4,448.5,0.5,95,98.0
4289,E4,448.5,0.5,95,98.0
4290,C4,448.5,0.5,95,98.0
4291,G3,448.5,0.5,95,98.0
4292,E4,448.5,0.5,95,98.0
4293,C4,448.5,0.5,95,98.0
4294,G3,448.5,0.5,95,98.0
4295,F1,449.0,1.0,95,98.0
4296,F5,449.0,1.0,87,98.0
4297,E4,449.0,1.0,87,98.0
4298,G4,449.0,1.0,95,98.0
4299,E4,449.0,1.0,95,98.0
4300,C4,449.0,1.0,95,98.0
4301,E4,449.0,1.5,95,98.0
4302,C4,449.0,1.5,95,98.0
4303,G3,449.0,1.5,95,98.0
4304,G#4,449.0,4.0,95,98.0
4305,F4,449.0,4.0,95,98.0
4306,E4,449.0,1.5,95,98.0
4307,C4,449.0,1.5,95,98.0
4308,G3,449.0,1.5,95,98.0
4309,F1,450.25,0.25,95,98.0
4310,E-5,450.75,0.25,95,98.0
4311,E-2,450.75,1.75,95,98.0
4312,D4,450.75,1.75,95,98.0
4313,B-3,450.75,1.75,95,98.0
4314,F3,450.75,1.75,95,98.0
4315,D4,450.75,1.75,95,98.0
4316,B-3,450.75,1.75,95,98.0
4317,F3,450.75,1.75,95,98.0
4318,C5,451.25,0.25,95,98.0
4319,B-4,451.75,0.25,95,98.0
4320,C5,452.0,0.25,95,98.0
4321,D5,452.25,0.25,95,98.0
4322,B-4,452.5,0.5,95,98.0
4323,D2,452.5,0.5,95,98.0
4324,B-3,452.5,0.5,95,98.0
4325,F3,452.5,0.5,95,98.0
4326,B-4,453.0,1.0,95,98.0
4327,C2,453.0,1.0,95,98.0
4328,F4,453.0,0.5,95,98.0
4329,D4,453.0,0.5,95,98.0
4330,B-3,453.0,0.5,95,98.0
4331,G3,453.0,0.5,95,98.0
4332,G4,453.0,0.5,95,98.0
4333,D4,453.0,0.5,95,98.0
4334,B-3,453.0,0.5,95,98.0
4335,G3,453.0,0.5,95,98.0
4336,C2,454.25,0.25,95,98.0
4337,F4,454.25,0.25,95,98.0
4338,D4,454.25,0.25,95,98.0
4339,B-3,454.25,0.25,95,98.0
4340,G3,454.25,0.25,95,98.0
4341,F4,454.25,0.25,95,98.0
4342,D4,454.25,0.25,95,98.0
4343,B-3,454.25,0.25,95,98.0
4344,G3,454.25,0.25,95,98.0
4345,C5,454.75,0.375,95,98.0
4346,D2,454.75,1.75,95,98.0
4347,F4,454.75,1.0,95,98.0
4348,F4,454.75,1.0,95,98.0
4349,C4,454.75,1.0,95,98.0
4350,A3,454.75,1.0,95,98.0
4351,F4,454.75,1.0,95,98.0
4352,C4,454.75,1.0,95,98.0
4353,A3,454.75,1.0,95,98.0
4354,G4,455.25,0.5,95,98.0
4355,F4,455.75,0.75,95,98.0
4356,D4,456.0,0.25,95,98.0
4357,D4,456.0,0.25,95,98.0
4358,F4,456.25,0.25,95,98.0
4359,F4,456.25,0.25,87,98.0
4360,G3,456.25,0.25,87,98.0
4361,G4,456.5,0.25,95,98.0
4362,C2,456.5,0.5,63,98.0
4363,G4,456.5,0.25,99,98.0
4364,F4,456.5,0.25,99,98.0
4365,C4,456.5,0.25,99,98.0
4366,A3,456.5,0.25,99,98.0
4367,F4,456.5,0.5,95,98.0
4368,C4,456.5,0.5,95,98.0
4369,A3,456.5,0.5,95,98.0
4370,B-4,456.75,0.25,95,98.0
4371,B-4,456.75,0.25,111,98.0
4372,G4,457.0,0.5,95,98.0
4373,B-4,457.0,3.0,95,98.0
4374,B-4,457.0,0.5,111,98.0
4375,E-2,457.0,1.25,95,98.0
4376,D4,457.0,0.5,95,98.0
4377,B-3,457.0,0.5,95,98.0
4378,G3,457.0,0.5,95,98.0
4379,B-4,457.5,0.25,95,98.0
4380,G4,457.5,0.25,103,98.0
4381,D4,457.5,0.25,103,98.0
4382,G4,457.75,1.0,95,98.0
4383,B-4,457.75,0.25,103,98.0
4384,E-4,457.75,0.25,103,98.0
4385,E-2,458.25,0.5,95,98.0
4386,C5,458.25,0.25,103,98.0
4387,F4,458.25,0.25,103,98.0
4388,D4,458.25,0.25,95,98.0
4389,B-3,458.25,0.25,95,98.0
4390,G3,458.25,0.25,95,98.0
4391,E-2,458.75,1.25,95,98.0
4392,C5,458.75,0.25,103,98.0
4393,F4,458.75,0.25,103,98.0
4394,D4,458.75,1.0,95,98.0
4395,B-3,458.75,1.0,95,98.0
4396,G3,458.75,1.0,95,98.0
4397,C5,459.25,0.25,111,98.0
4398,C5,459.25,0.25,103,98.0
4399,C4,459.25,0.25,103,98.0
4400,D5,459.5,0.25,111,98.0
4401,D5,459.5,0.25,103,98.0
4402,D4,459.5,0.25,103,98.0
4403,G4,459.75,0.25,95,98.0
4404,B-4,460.0,0.25,95,98.0
4405,F5,460.0,0.25,111,98.0
4406,E-2,460.0,0.5,95,98.0
4407,B-4,460.0,0.25,95,98.0
4408,E-4,460.0,0.25,95,98.0
4409,B-3,460.0,0.25,95,98.0
4410,F5,460.0,0.25,103,98.0
4411,F4,460.0,0.25,103,98.0
4412,D4,460.0,0.5,95,98.0
4413,B-3,460.0,0.5,95,98.0
4414,G3,460.0,0.5,95,98.0
4415,C5,460.5,0.25,95,98.0
4416,C4,460.5,0.25,95,98.0
4417,F1,460.5,0.5,95,98.0
4418,C5,460.5,0.25,95,98.0
4419,F4,460.5,0.25,95,98.0
4420,C4,460.5,0.25,95,98.0
4421,G5,460.5,0.25,103,98.0
4422,G4,460.5,0.25,103,98.0
4423,C4,460.5,0.5,95,98.0
4424,A3,460.5,0.5,95,98.0
4425,F3,460.5,0.5,95,98.0
4426,D4,460.75,0.25,95,98.0
4427,G3,461.0,0.5,95,98.0
4428,B-3,461.0,0.75,95,98.0
4429,A3,461.0,1.0,95,98.0
4430,G1,461.0,1.0,95,98.0
4431,G3,461.75,1.0,95,98.0
4432,D5,461.75,0.375,87,98.0
4433,B-4,461.75,0.375,87,98.0
4434,D5,461.75,0.375,95,98.0
4435,B-4,461.75,0.375,95,98.0
4436,G4,461.75,0.375,95,98.0
4437,B-3,462.0,1.0,95,98.0
4438,G1,462.25,0.25,95,98.0
4439,D5,462.25,0.375,87,98.0
4440,B-4,462.25,0.375,87,98.0
4441,D5,462.25,0.375,95,98.0
4442,B-4,462.25,0.375,95,98.0
4443,G4,462.25,0.375,95,98.0
4444,D4,462.25,0.25,95,98.0
4445,B-3,462.25,0.25,95,98.0
4446,G3,462.25,0.25,95,98.0
4447,D4,462.25,0.25,95,98.0
4448,B-3,462.25,0.25,95,98.0
4449,G3,462.25,0.25,95,98.0
4450,B-1,462.75,1.75,95,98.0
4451,C5,462.75,1.25,87,98.0
4452,B-4,462.75,1.25,87,98.0
4453,C5,462.75,1.25,95,98.0
4454,B-4,462.75,1.25,95,98.0
4455,F4,462.75,1.25,95,98.0
4456,D4,462.75,1.0,95,98.0
4457,B-3,462.75,1.0,95,98.0
4458,F3,462.75,1.0,95,98.0
4459,D4,462.75,1.0,95,98.0
4460,B-3,462.75,1.0,95,98.0
4461,F3,462.75,1.0,95,98.0
4462,C4,463.0,1.0,95,98.0
4463,D4,464.0,1.0,95,98.0
4464,G4,464.0,0.5,87,98.0
4465,E-4,464.0,0.5,87,98.0
4466,A4,464.0,0.25,95,98.0
4467,F4,464.0,0.25,95,98.0
4468,C4,464.0,0.25,95,98.0
4469,G3,464.25,0.25,63,98.0
4470,F1,464.5,0.5,95,98.0
4471,G4,464.5,0.5,87,98.0
4472,E4,464.5,0.5,87,98.0
4473,G4,464.5,0.5,95,98.0
4474,E4,464.5,0.5,95,98.0
4475,C4,464.5,0.5,95,98.0
4476,E4,464.5,0.5,95,98.0
4477,C4,464.5,0.5,95,98.0
4478,G3,464.5,0.5,95,98.0
4479,E4,464.5,0.5,95,98.0
4480,C4,464.5,0.5,95,98.0
4481,G3,464.5,0.5,95,98.0
4482,F1,465.0,1.0,95,98.0
4483,G4,465.0,1.0,87,98.0
4484,E4,465.0,1.0,87,98.0
4485,G4,465.0,1.0,95,98.0
4486,E4,465.0,1.0,95,98.0
4487,C4,465.0,1.0,95,98.0
4488,E4,465.0,1.5,95,98.0
4489,C4,465.0,1.5,95,98.0
4490,G3,465.0,1.5,95,98.0
4491,G4,465.0,1.0,95,98.0
4492,E-4,465.0,1.0,95,98.0
4493,B-3,465.0,1.0,95,98.0
4494,E4,465.0,1.5,95,98.0
4495,C4,465.0,1.5,95,98.0
4496,G3,465.0,1.5,95,98.0
4497,A4,466.0,1.0,95,98.0
4498,F4,466.0,1.0,95,98.0
4499,C4,466.0,1.0,95,98.0
4500,F1,466.25,0.25,95,98.0
4501,E-2,466.75,1.75,95,98.0
4502,D4,466.75,1.75,95,98.0
4503,B-3,466.75,1.75,95,98.0
4504,F3,466.75,1.75,95,98.0
4505,D4,466.75,1.75,95,98.0
4506,B-3,466.75,1.75,95,98.0
4507,F3,466.75,1.75,95,98.0
4508,B-4,467.0,1.0,95,98.0
4509,G4,467.0,1.0,95,98.0
4510,D4,467.0,1.0,95,98.0
4511,B-4,467.75,0.25,95,98.0
4512,A4,468.0,0.25,95,98.0
4513,C5,468.0,1.0,111,98.0
4514,A4,468.0,1.0,111,98.0
4515,F4,468.0,1.0,111,98.0
4516,F4,468.25,0.25,95,98.0
4517,F4,468.5,0.25,95,98.0
4518,D2,468.5,0.5,95,98.0
4519,B-3,468.5,0.5,95,98.0
4520,F3,468.5,0.5,95,98.0
4521,B-4,468.75,0.25,95,98.0
4522,G4,469.0,1.5,95,98.0
4523,C2,469.0,1.0,95,98.0
4524,D4,469.0,0.5,95,98.0
4525,B-3,469.0,0.5,95,98.0
4526,G3,469.0,0.5,95,98.0
4527,D4,469.0,0.5,95,98.0
4528,B-3,469.0,0.5,95,98.0
4529,G3,469.0,0.5,95,98.0
4530,C2,470.25,0.25,95,98.0
4531,D4,470.25,0.25,95,98.0
4532,B-3,470.25,0.25,95,98.0
4533,G3,470.25,0.25,95,98.0
4534,D4,470.25,0.25,95,98.0
4535,B-3,470.25,0.25,95,98.0
4536,G3,470.25,0.25,95,98.0
4537,D2,470.75,1.75,95,98.0
4538,F4,470.75,1.0,95,98.0
4539,C4,470.75,1.0,95,98.0
4540,A3,470.75,1.0,95,98.0
4541,F4,470.75,1.0,95,98.0
4542,C4,470.75,1.0,95,98.0
4543,A3,470.75,1.0,95,98.0
4544,D4,471.0,0.25,95,98.0
4545,F4,471.25,0.25,95,98.0
4546,F4,471.5,0.25,95,98.0
4547,F4,471.75,0.25,95,98.0
4548,D4,472.0,0.25,95,98.0
4549,D4,472.0,0.25,95,98.0
4550,D4,472.0,0.25,95,98.0
4551,F4,472.25,0.25,95,98.0
4552,C4,472.25,0.25,95,98.0
4553,F4,472.25,0.25,87,98.0
4554,G3,472.25,0.25,87,98.0
4555,G4,472.5,0.25,95,98.0
4556,B-3,472.5,0.25,95,98.0
4557,C2,472.5,0.5,63,98.0
4558,G4,472.5,0.25,99,98.0
4559,F4,472.5,0.25,99,98.0
4560,C4,472.5,0.25,99,98.0
4561,A3,472.5,0.25,99,98.0
4562,F4,472.5,0.5,95,98.0
4563,C4,472.5,0.5,95,98.0
4564,A3,472.5,0.5,95,98.0
4565,B-4,472.75,0.25,95,98.0
4566,B-4,472.75,0.25,111,98.0
4567,B-3,472.75,0.25,79,98.0
4568,B-4,473.0,3.0,95,98.0
4569,B-4,473.0,0.5,111,98.0
4570,B-3,473.0,2.0,95,98.0
4571,E-2,473.0,1.25,95,98.0
4572,D4,473.0,0.5,95,98.0
4573,B-3,473.0,0.5,95,98.0
4574,G3,473.0,0.5,95,98.0
4575,G5,473.5,0.25,111,98.0
4576,C5,473.5,0.25,111,98.0
4577,G4,473.5,0.25,111,98.0
4578,F5,473.75,0.25,111,98.0
4579,B-4,473.75,0.25,111,98.0
4580,F4,473.75,0.25,111,98.0
4581,E-2,474.25,0.5,95,98.0
4582,G5,474.25,0.25,111,98.0
4583,C5,474.25,0.25,111,98.0
4584,G4,474.25,0.25,111,98.0
4585,D4,474.25,0.25,95,98.0
4586,B-3,474.25,0.25,95,98.0
4587,G3,474.25,0.25,95,98.0
4588,E-2,474.75,1.25,95,98.0
4589,G5,474.75,0.25,111,98.0
4590,C5,474.75,0.25,111,98.0
4591,G4,474.75,0.25,111,98.0
4592,D4,474.75,1.0,95,98.0
4593,B-3,474.75,1.0,95,98.0
4594,G3,474.75,1.0,95,98.0
4595,G4,475.25,0.25,111,98.0
4596,G4,475.25,0.25,95,98.0
4597,B-4,475.5,0.25,111,98.0
4598,B-4,475.5,0.25,95,98.0
4599,C5,475.75,0.25,111,98.0
4600,C5,475.75,0.25,95,98.0
4601,D5,476.0,0.125,111,98.0
4602,D5,476.0,0.125,95,98.0
4603,E-2,476.0,0.5,95,98.0
4604,B-4,476.0,0.25,95,98.0
4605,E-4,476.0,0.25,95,98.0
4606,B-3,476.0,0.25,95,98.0
4607,D4,476.0,0.5,95,98.0
4608,B-3,476.0,0.5,95,98.0
4609,G3,476.0,0.5,95,98.0
4610,C5,476.125,0.125,111,98.0
4611,C5,476.125,0.125,95,98.0
4612,B-4,476.25,0.125,111,98.0
4613,B-4,476.25,0.25,95,98.0
4614,G4,476.375,0.375,111,98.0
4615,G4,476.5,0.5,95,98.0
4616,F1,476.5,0.5,95,98.0
4617,C5,476.5,0.25,95,98.0
4618,F4,476.5,0.25,95,98.0
4619,C4,476.5,0.25,95,98.0
4620,C4,476.5,0.5,95,98.0
4621,A3,476.5,0.5,95,98.0
4622,F3,476.5,0.5,95,98.0
4623,G3,477.0,0.5,95,98.0
4624,G1,477.0,1.0,95,98.0
4625,D5,477.75,0.375,87,98.0
4626,B-4,477.75,0.375,87,98.0
4627,D5,477.75,0.375,95,98.0
4628,B-4,477.75,0.375,95,98.0
4629,G4,477.75,0.375,95,98.0
4630,G1,478.25,0.25,95,98.0
4631,D5,478.25,0.375,87,98.0
4632,B-4,478.25,0.375,87,98.0
4633,D5,478.25,0.375,95,98.0
4634,B-4,478.25,0.375,95,98.0
4635,G4,478.25,0.375,95,98.0
4636,D4,478.25,0.25,95,98.0
4637,B-3,478.25,0.25,95,98.0
4638,G3,478.25,0.25,95,98.0
4639,D4,478.25,0.25,95,98.0
4640,B-3,478.25,0.25,95,98.0
4641,G3,478.25,0.25,95,98.0
4642,B-1,478.75,1.75,95,98.0
4643,C5,478.75,1.25,87,98.0
4644,B-4,478.75,1.25,87,98.0
4645,C5,478.75,1.25,95,98.0
4646,B-4,478.75,1.25,95,98.0
4647,F4,478.75,1.25,95,98.0
4648,D4,478.75,1.0,95,98.0
4649,B-3,478.75,1.0,95,98.0
4650,F3,478.75,1.0,95,98.0
4651,D4,478.75,1.0,95,98.0
4652,B-3,478.75,1.0,95,98.0
4653,F3,478.75,1.0,95,98.0
4654,E-5,480.0,0.5,87,98.0
4655,F4,480.0,0.5,87,98.0
4656,A4,480.0,0.25,95,98.0
4657,F4,480.0,0.25,95,98.0
4658,C4,480.0,0.25,95,98.0
4659,G3,480.25,0.25,63,98.0
4660,F1,480.5,0.5,95,98.0
4661,F5,480.5,0.5,87,98.0
4662,E4,480.5,0.5,87,98.0
4663,G4,480.5,0.5,95,98.0
4664,E4,480.5,0.5,95,98.0
4665,C4,480.5,0.5,95,98.0
4666,E4,480.5,0.5,95,98.0
4667,C4,480.5,0.5,95,98.0
4668,G3,480.5,0.5,95,98.0
4669,E4,480.5,0.5,95,98.0
4670,C4,480.5,0.5,95,98.0
4671,G3,480.5,0.5,95,98.0
4672,F1,481.0,1.0,95,98.0
4673,F5,481.0,1.0,87,98.0
4674,E4,481.0,1.0,87,98.0
4675,G4,481.0,1.0,95,98.0
4676,E4,481.0,1.0,95,98.0
4677,C4,481.0,1.0,95,98.0
4678,E4,481.0,1.5,95,98.0
4679,C4,481.0,1.5,95,98.0
4680,G3,481.0,1.5,95,98.0
4681,E4,481.0,1.5,95,98.0
4682,C4,481.0,1.5,95,98.0
4683,G3,481.0,1.5,95,98.0
4684,E-5,481.25,0.25,95,98.0
4685,E5,481.5,0.25,95,98.0
4686,C5,481.75,0.25,95,98.0
4687,C5,482.25,0.25,95,98.0
4688,F1,482.25,0.25,95,98.0
4689,C5,482.75,0.25,95,98.0
4690,E-2,482.75,1.75,95,98.0
4691,D4,482.75,1.75,95,98.0
4692,B-3,482.75,1.75,95,98.0
4693,F3,482.75,1.75,95,98.0
4694,D4,482.75,1.75,95,98.0
4695,B-3,482.75,1.75,95,98.0
4696,F3,482.75,1.75,95,98.0
4697,B-4,483.25,0.25,95,98.0
4698,G4,483.75,0.75,95,98.0
4699,F4,484.5,0.25,95,98.0
4700,D2,484.5,0.5,95,98.0
4701,B-3,484.5,0.5,95,98.0
4702,F3,484.5,0.5,95,98.0
4703,G4,484.75,0.25,95,98.0
4704,C2,485.0,1.0,95,98.0
4705,F4,485.0,0.5,95,98.0
4706,D4,485.0,0.5,95,98.0
4707,B-3,485.0,0.5,95,98.0
4708,G3,485.0,0.5,95,98.0
4709,G4,485.0,0.5,95,98.0
4710,D4,485.0,0.5,95,98.0
4711,B-3,485.0,0.5,95,98.0
4712,G3,485.0,0.5,95,98.0
4713,C4,486.0,0.25,95,98.0
4714,F4,486.25,0.25,95,98.0
4715,C2,486.25,0.25,95,98.0
4716,F4,486.25,0.25,95,98.0
4717,D4,486.25,0.25,95,98.0
4718,B-3,486.25,0.25,95,98.0
4719,G3,486.25,0.25,95,98.0
4720,F4,486.25,0.25,95,98.0
4721,D4,486.25,0.25,95,98.0
4722,B-3,486.25,0.25,95,98.0
4723,G3,486.25,0.25,95,98.0
4724,F4,486.5,0.25,95,98.0
4725,F4,486.75,0.5,95,98.0
4726,D2,486.75,1.75,95,98.0
4727,F4,486.75,1.0,95,98.0
4728,F4,486.75,1.0,95,98.0
4729,C4,486.75,1.0,95,98.0
4730,A3,486.75,1.0,95,98.0
4731,F4,486.75,1.0,95,98.0
4732,C4,486.75,1.0,95,98.0
4733,A3,486.75,1.0,95,98.0
4734,G#4,487.25,0.25,95,98.0
4735,A4,487.5,0.25,95,98.0
4736,F4,487.75,0.25,95,98.0
4737,D4,488.0,0.25,95,98.0
4738,D4,488.0,0.25,95,98.0
4739,G4,488.0,0.25,95,98.0
4740,F4,488.25,0.25,95,98.0
4741,B-4,488.25,0.25,95,98.0
4742,F4,488.25,0.25,87,98.0
4743,G3,488.25,0.25,87,98.0
4744,G4,488.5,0.25,95,98.0
4745,C5,488.5,0.25,95,98.0
4746,C2,488.5,0.5,63,98.0
4747,G4,488.5,0.25,99,98.0
4748,F4,488.5,0.25,99,98.0
4749,C4,488.5,0.25,99,98.0
4750,A3,488.5,0.25,99,98.0
4751,F4,488.5,0.5,95,98.0
4752,C4,488.5,0.5,95,98.0
4753,A3,488.5,0.5,95,98.0
4754,B-4,488.75,0.25,95,98.0
4755,B-4,488.75,0.25,111,98.0
4756,D5,488.75,0.25,95,98.0
4757,B-4,489.0,3.0,95,98.0
4758,B-4,489.0,0.5,111,98.0
4759,D5,489.0,2.0,95,98.0
4760,E-2,489.0,1.25,95,98.0
4761,D4,489.0,0.5,95,98.0
4762,B-3,489.0,0.5,95,98.0
4763,G3,489.0,0.5,95,98.0
4764,G4,489.5,0.25,103,98.0
4765,D4,489.5,0.25,103,98.0
4766,B-4,489.75,0.25,103,98.0
4767,E-4,489.75,0.25,103,98.0
4768,E-2,490.25,0.5,95,98.0
4769,C5,490.25,0.25,103,98.0
4770,F4,490.25,0.25,103,98.0
4771,D4,490.25,0.25,95,98.0
4772,B-3,490.25,0.25,95,98.0
4773,G3,490.25,0.25,95,98.0
4774,E-2,490.75,1.25,95,98.0
4775,C5,490.75,0.25,103,98.0
4776,F4,490.75,0.25,103,98.0
4777,D4,490.75,1.0,95,98.0
4778,B-3,490.75,1.0,95,98.0
4779,G3,490.75,1.0,95,98.0
4780,G4,491.25,0.25,95,98.0
4781,C5,491.25,0.25,103,98.0
4782,C4,491.25,0.25,103,98.0
4783,B-4,491.5,0.25,95,98.0
4784,D5,491.5,0.25,103,98.0
4785,D4,491.5,0.25,103,98.0
4786,G4,491.75,0.25,95,98.0
4787,C5,492.0,0.125,95,98.0
4788,E-2,492.0,0.5,95,98.0
4789,B-4,492.0,0.25,95,98.0
4790,E-4,492.0,0.25,95,98.0
4791,B-3,492.0,0.25,95,98.0
4792,F5,492.0,0.25,103,98.0
4793,F4,492.0,0.25,103,98.0
4794,D4,492.0,0.5,95,98.0
4795,B-3,492.0,0.5,95,98.0
4796,G3,492.0,0.5,95,98.0
4797,B-4,492.125,0.125,95,98.0
4798,F4,492.25,0.25,95,98.0
4799,G4,492.5,0.5,95,98.0
4800,F1,492.5,0.5,95,98.0
4801,C5,492.5,0.25,95,98.0
4802,F4,492.5,0.25,95,98.0
4803,C4,492.5,0.25,95,98.0
4804,G5,492.5,0.25,103,98.0
4805,G4,492.5,0.25,103,98.0
4806,C4,492.5,0.5,95,98.0
4807,A3,492.5,0.5,95,98.0
4808,F3,492.5,0.5,95,98.0
4809,G3,493.0,0.5,95,98.0
4810,G1,493.0,1.0,95,98.0
4811,D5,493.75,0.375,87,98.0
4812,B-4,493.75,0.375,87,98.0
4813,D5,493.75,0.375,95,98.0
4814,B-4,493.75,0.375,95,98.0
4815,G4,493.75,0.375,95,98.0
4816,G1,494.25,0.25,95,98.0
4817,D5,494.25,0.375,87,98.0
4818,B-4,494.25,0.375,87,98.0
4819,D5,494.25,0.375,95,98.0
4820,B-4,494.25,0.375,95,98.0
4821,G4,494.25,0.375,95,98.0
4822,D4,494.25,0.25,95,98.0
4823,B-3,494.25,0.25,95,98.0
4824,G3,494.25,0.25,95,98.0
4825,D4,494.25,0.25,95,98.0
4826,B-3,494.25,0.25,95,98.0
4827,G3,494.25,0.25,95,98.0
4828,B-1,494.75,1.75,95,98.0
4829,C5,494.75,1.25,87,98.0
4830,B-4,494.75,1.25,87,98.0
4831,C5,494.75,1.25,95,98.0
4832,B-4,494.75,1.25,95,98.0
4833,F4,494.75,1.25,95,98.0
4834,D4,494.75,1.0,95,98.0
4835,B-3,494.75,1.0,95,98.0
4836,F3,494.75,1.0,95,98.0
4837,D4,494.75,1.0,95,98.0
4838,B-3,494.75,1.0,95,98.0
4839,F3,494.75,1.0,95,98.0
4840,A4,496.0,0.5,87,98.0
4841,F4,496.0,0.5,87,98.0
4842,A4,496.0,0.25,95,98.0
4843,F4,496.0,0.25,95,98.0
4844,C4,496.0,0.25,95,98.0
4845,G3,496.25,0.25,63,98.0
4846,F1,496.5,0.5,95,98.0
4847,G4,496.5,0.5,87,98.0
4848,E4,496.5,0.5,87,98.0
4849,G4,496.5,0.5,95,98.0
4850,E4,496.5,0.5,95,98.0
4851,C4,496.5,0.5,95,98.0
4852,E4,496.5,0.5,95,98.0
4853,C4,496.5,0.5,95,98.0
4854,G3,496.5,0.5,95,98.0
4855,E4,496.5,0.5,95,98.0
4856,C4,496.5,0.5,95,98.0
4857,G3,496.5,0.5,95,98.0
4858,F1,497.0,1.0,95,98.0
4859,G4,497.0,1.0,87,98.0
4860,E4,497.0,1.0,87,98.0
4861,G4,497.0,1.0,95,98.0
4862,E4,497.0,1.0,95,98.0
4863,C4,497.0,1.0,95,98.0
4864,E4,497.0,1.5,95,98.0
4865,C4,497.0,1.5,95,98.0
4866,G3,497.0,1.5,95,98.0
4867,E4,497.0,1.5,95,98.0
4868,C4,497.0,1.5,95,98.0
4869,G3,497.0,1.5,95,98.0
4870,G4,498.25,0.25,95,98.0
4871,F1,498.25,0.25,95,98.0
4872,B-4,498.5,0.375,95,98.0
4873,E-2,498.75,1.75,95,98.0
4874,D4,498.75,1.75,95,98.0
4875,B-3,498.75,1.75,95,98.0
4876,F3,498.75,1.75,95,98.0
4877,D4,498.75,1.75,95,98.0
4878,B-3,498.75,1.75,95,98.0
4879,F3,498.75,1.75,95,98.0
4880,F5,499.0,0.75,95,98.0
4881,F5,499.75,0.25,95,98.0
4882,C5,500.0,0.25,95,98.0
4883,D5,500.25,0.25,95,98.0
4884,E-5,500.5,0.25,95,98.0
4885,D2,500.5,0.5,95,98.0
4886,B-3,500.5,0.5,95,98.0
4887,F3,500.5,0.5,95,98.0
4888,D5,500.75,0.25,95,98.0
4889,C5,501.0,0.5,95,98.0
4890,C2,501.0,1.0,95,98.0
4891,D4,501.0,0.5,95,98.0
4892,B-3,501.0,0.5,95,98.0
4893,G3,501.0,0.5,95,98.0
4894,D4,501.0,0.5,95,98.0
4895,B-3,501.0,0.5,95,98.0
4896,G3,501.0,0.5,95,98.0
4897,B-4,501.5,0.25,95,98.0
4898,G4,501.75,1.0,95,98.0
4899,C2,502.25,0.25,95,98.0
4900,D4,502.25,0.25,95,98.0
4901,B-3,502.25,0.25,95,98.0
4902,G3,502.25,0.25,95,98.0
4903,D4,502.25,0.25,95,98.0
4904,B-3,502.25,0.25,95,98.0
4905,G3,502.25,0.25,95,98.0
4906,D2,502.75,1.75,95,98.0
4907,F4,502.75,1.0,95,98.0
4908,C4,502.75,1.0,95,98.0
4909,A3,502.75,1.0,95,98.0
4910,F4,502.75,1.0,95,98.0
4911,C4,502.75,1.0,95,98.0
4912,A3,502.75,1.0,95,98.0
4913,C4,503.0,0.25,95,98.0
4914,F4,503.25,0.25,95,98.0
4915,F4,503.5,0.25,95,98.0
4916,F4,503.75,0.5,95,98.0
4917,D4,504.0,0.25,95,98.0
4918,D4,504.0,0.25,95,98.0
4919,F4,504.25,0.25,95,98.0
4920,D4,504.25,0.25,95,98.0
4921,F4,504.25,0.25,87,98.0
4922,G3,504.25,0.25,87,98.0
4923,G4,504.5,0.25,95,98.0
4924,G4,504.5,0.25,95,98.0
4925,C2,504.5,0.5,63,98.0
4926,G4,504.5,0.25,99,98.0
4927,F4,504.5,0.25,99,98.0
4928,C4,504.5,0.25,99,98.0
4929,A3,504.5,0.25,99,98.0
4930,F4,504.5,0.5,95,98.0
4931,C4,504.5,0.5,95,98.0
4932,A3,504.5,0.5,95,98.0
4933,B-4,504.75,0.25,95,98.0
4934,B-4,504.75,0.25,111,98.0
4935,B-4,504.75,0.25,95,98.0
4936,B-4,505.0,3.0,95,98.0
4937,B-4,505.0,0.5,111,98.0
4938,B-4,505.0,1.0,95,98.0
4939,E-2,505.0,1.25,95,98.0
4940,D4,505.0,0.5,95,98.0
4941,B-3,505.0,0.5,95,98.0
4942,G3,505.0,0.5,95,98.0
4943,G5,505.5,0.25,111,98.0
4944,C5,505.5,0.25,111,98.0
4945,G4,505.5,0.25,111,98.0
4946,F5,505.75,0.25,111,98.0
4947,B-4,505.75,0.25,111,98.0
4948,F4,505.75,0.25,111,98.0
4949,E-2,506.25,0.5,95,98.0
4950,G5,506.25,0.25,111,98.0
4951,C5,506.25,0.25,111,98.0
4952,G4,506.25,0.25,111,98.0
4953,D4,506.25,0.25,95,98.0
4954,B-3,506.25,0.25,95,98.0
4955,G3,506.25,0.25,95,98.0
4956,E-2,506.75,1.25,95,98.0
4957,G5,506.75,0.25,111,98.0
4958,C5,506.75,0.25,111,98.0
4959,G4,506.75,0.25,111,98.0
4960,D4,506.75,1.0,95,98.0
4961,B-3,506.75,1.0,95,98.0
4962,G3,506.75,1.0,95,98.0
4963,G4,507.25,0.25,111,98.0
4964,B-4,507.5,0.25,111,98.0
4965,C5,507.75,0.25,111,98.0
4966,D5,508.0,0.125,111,98.0
4967,E-2,508.0,0.5,95,98.0
4968,B-4,508.0,0.25,95,98.0
4969,E-4,508.0,0.25,95,98.0
4970,B-3,508.0,0.25,95,98.0
4971,D4,508.0,0.5,95,98.0
4972,B-3,508.0,0.5,95,98.0
4973,G3,508.0,0.5,95,98.0
4974,C5,508.125,0.125,111,98.0
4975,B-4,508.25,0.125,111,98.0
4976,G4,508.375,0.375,111,98.0
4977,F1,508.5,0.5,95,98.0
4978,C5,508.5,0.25,95,98.0
4979,F4,508.5,0.25,95,98.0
4980,C4,508.5,0.25,95,98.0
4981,C4,508.5,0.5,95,98.0
4982,A3,508.5,0.5,95,98.0
4983,F3,508.5,0.5,95,98.0
4984,G3,509.0,0.5,95,98.0
4985,G1,509.0,1.0,95,98.0
4986,D5,509.75,0.375,87,98.0
4987,B-4,509.75,0.375,87,98.0
4988,D5,509.75,0.375,95,98.0
4989,B-4,509.75,0.375,95,98.0
4990,G4,509.75,0.375,95,98.0
4991,G1,510.25,0.25,95,98.0
4992,D5,510.25,0.375,87,98.0
4993,B-4,510.25,0.375,87,98.0
4994,D5,510.25,0.375,95,98.0
4995,B-4,510.25,0.375,95,98.0
4996,G4,510.25,0.375,95,98.0
4997,D4,510.25,0.25,95,98.0
4998,B-3,510.25,0.25,95,98.0
4999,G3,510.25,0.25,95,98.0
5000,D4,510.25,0.25,95,98.0
5001,B-3,510.25,0.25,95,98.0
5002,G3,510.25,0.25,95,98.0
5003,B-1,510.75,1.75,95,98.0
5004,C5,510.75,1.25,87,98.0
5005,B-4,510.75,1.25,87,98.0
5006,C5,510.75,1.25,95,98.0
5007,B-4,510.75,1.25,95,98.0
5008,F4,510.75,1.25,95,98.0
5009,D4,510.75,1.0,95,98.0
5010,B-3,510.75,1.0,95,98.0
5011,F3,510.75,1.0,95,98.0
5012,D4,510.75,1.0,95,98.0
5013,B-3,510.75,1.0,95,98.0
5014,F3,510.75,1.0,95,98.0
5015,E-5,512.0,0.5,87,98.0
5016,F4,512.0,0.5,87,98.0
5017,A4,512.0,0.25,95,98.0
5018,F4,512.0,0.25,95,98.0
5019,C4,512.0,0.25,95,98.0
5020,G3,512.25,0.25,63,98.0
5021,F1,512.5,0.5,95,98.0
5022,F5,512.5,0.5,87,98.0
5023,E4,512.5,0.5,87,98.0
5024,G4,512.5,0.5,95,98.0
5025,E4,512.5,0.5,95,98.0
5026,C4,512.5,0.5,95,98.0
5027,E4,512.5,0.5,95,98.0
5028,C4,512.5,0.5,95,98.0
5029,G3,512.5,0.5,95,98.0
5030,E4,512.5,0.5,95,98.0
5031,C4,512.5,0.5,95,98.0
5032,G3,512.5,0.5,95,98.0
5033,F1,513.0,1.0,95,98.0
5034,F5,513.0,1.0,87,98.0
5035,E4,513.0,1.0,87,98.0
5036,G4,513.0,1.0,95,98.0
5037,E4,513.0,1.0,95,98.0
5038,C4,513.0,1.0,95,98.0
5039,E4,513.0,1.5,95,98.0
5040,C4,513.0,1.5,95,98.0
5041,G3,513.0,1.5,95,98.0
5042,E4,513.0,1.5,95,98.0
5043,C4,513.0,1.5,95,98.0
5044,G3,513.0,1.5,95,98.0
5045,G4,514.25,0.25,95,98.0
5046,F1,514.25,0.25,95,98.0
5047,A4,514.5,0.25,95,98.0
5048,B-4,514.75,0.5,95,98.0
5049,E-2,514.75,1.75,95,98.0
5050,D4,514.75,1.75,95,98.0
5051,B-3,514.75,1.75,95,98.0
5052,F3,514.75,1.75,95,98.0
5053,D4,514.75,1.75,95,98.0
5054,B-3,514.75,1.75,95,98.0
5055,F3,514.75,1.75,95,98.0
5056,C5,515.25,0.5,95,98.0
5057,C5,515.75,0.5,95,98.0
5058,C5,516.25,0.25,95,98.0
5059,E-5,516.5,0.25,95,98.0
5060,D2,516.5,0.5,95,98.0
5061,B-3,516.5,0.5,95,98.0
5062,F3,516.5,0.5,95,98.0
5063,F5,516.75,0.25,95,98.0
5064,D5,517.0,0.5,95,98.0
5065,C2,517.0,1.0,95,98.0
5066,F4,517.0,0.5,95,98.0
5067,D4,517.0,0.5,95,98.0
5068,B-3,517.0,0.5,95,98.0
5069,G3,517.0,0.5,95,98.0
5070,G4,517.0,0.5,95,98.0
5071,D4,517.0,0.5,95,98.0
5072,B-3,517.0,0.5,95,98.0
5073,G3,517.0,0.5,95,98.0
5074,B-4,517.5,0.25,95,98.0
5075,G4,517.75,0.25,95,98.0
5076,D5,518.25,0.25,95,98.0
5077,C2,518.25,0.25,95,98.0
5078,F4,518.25,0.25,95,98.0
5079,D4,518.25,0.25,95,98.0
5080,B-3,518.25,0.25,95,98.0
5081,G3,518.25,0.25,95,98.0
5082,F4,518.25,0.25,95,98.0
5083,D4,518.25,0.25,95,98.0
5084,B-3,518.25,0.25,95,98.0
5085,G3,518.25,0.25,95,98.0
5086,C5,518.75,0.5,95,98.0
5087,D2,518.75,1.75,95,98.0
5088,F4,518.75,1.0,95,98.0
5089,F4,518.75,1.0,95,98.0
5090,C4,518.75,1.0,95,98.0
5091,A3,518.75,1.0,95,98.0
5092,F4,518.75,1.0,95,98.0
5093,C4,518.75,1.0,95,98.0
5094,A3,518.75,1.0,95,98.0
5095,G4,519.25,0.25,95,98.0
5096,F4,519.5,0.25,95,98.0
5097,F4,519.75,0.5,95,98.0
5098,D4,520.0,0.25,95,98.0
5099,D4,520.0,0.25,95,98.0
5100,F4,520.25,0.25,95,98.0
5101,F4,520.25,0.25,95,98.0
5102,F4,520.25,0.25,87,98.0
5103,G3,520.25,0.25,87,98.0
5104,G4,520.5,0.25,95,98.0
5105,G4,520.5,0.25,95,98.0
5106,C2,520.5,0.5,63,98.0
5107,G4,520.5,0.25,99,98.0
5108,F4,520.5,0.25,99,98.0
5109,C4,520.5,0.25,99,98.0
5110,A3,520.5,0.25,99,98.0
5111,F4,520.5,0.5,95,98.0
5112,C4,520.5,0.5,95,98.0
5113,A3,520.5,0.5,95,98.0
5114,B-4,520.75,0.25,95,98.0
5115,B-4,520.75,0.25,111,98.0
5116,B-4,520.75,0.25,95,98.0
5117,B-4,521.0,3.0,95,98.0
5118,B-4,521.0,0.5,111,98.0
5119,B-4,521.0,2.0,95,98.0
5120,E-2,521.0,1.25,95,98.0
5121,D4,521.0,0.5,95,98.0
5122,B-3,521.0,0.5,95,98.0
5123,G3,521.0,0.5,95,98.0
5124,G4,521.5,0.25,103,98.0
5125,D4,521.5,0.25,103,98.0
5126,B-4,521.75,0.25,103,98.0
5127,E-4,521.75,0.25,103,98.0
5128,E-2,522.25,0.5,95,98.0
5129,C5,522.25,0.25,103,98.0
5130,F4,522.25,0.25,103,98.0
5131,D4,522.25,0.25,95,98.0
5132,B-3,522.25,0.25,95,98.0
5133,G3,522.25,0.25,95,98.0
5134,E-2,522.75,1.25,95,98.0
5135,C5,522.75,0.25,103,98.0
5136,F4,522.75,0.25,103,98.0
5137,D4,522.75,1.0,95,98.0
5138,B-3,522.75,1.0,95,98.0
5139,G3,522.75,1.0,95,98.0
5140,C5,523.25,0.25,111,98.0
5141,C5,523.25,0.25,103,98.0
5142,C4,523.25,0.25,103,98.0
5143,D5,523.5,0.25,111,98.0
5144,D5,523.5,0.25,103,98.0
5145,D4,523.5,0.25,103,98.0
5146,F5,524.0,0.25,111,98.0
5147,E-2,524.0,0.5,95,98.0
5148,B-4,524.0,0.25,95,98.0
5149,E-4,524.0,0.25,95,98.0
5150,B-3,524.0,0.25,95,98.0
5151,F5,524.0,0.25,103,98.0
5152,F4,524.0,0.25,103,98.0
5153,D4,524.0,0.5,95,98.0
5154,B-3,524.0,0.5,95,98.0
5155,G3,524.0,0.5,95,98.0
5156,C5,524.5,0.25,111,98.0
5157,F1,524.5,0.5,95,98.0
5158,C5,524.5,0.25,95,98.0
5159,F4,524.5,0.25,95,98.0
5160,C4,524.5,0.25,95,98.0
5161,G5,524.5,0.25,103,98.0
5162,G4,524.5,0.25,103,98.0
5163,C4,524.5,0.5,95,98.0
5164,A3,524.5,0.5,95,98.0
5165,F3,524.5,0.5,95,98.0
5166,B-4,524.75,0.25,95,98.0
5167,G3,525.0,0.5,95,98.0
5168,C5,525.0,0.25,95,98.0
5169,G1,525.0,1.0,95,98.0
5170,D5,525.25,0.25,95,98.0
5171,B-4,525.5,0.25,95,98.0
5172,G4,525.75,0.25,95,98.0
5173,D5,525.75,0.375,87,98.0
5174,B-4,525.75,0.375,87,98.0
5175,D5,525.75,0.375,95,98.0
5176,B-4,525.75,0.375,95,98.0
5177,G4,525.75,0.375,95,98.0
5178,G1,526.25,0.25,95,98.0
5179,D5,526.25,0.375,87,98.0
5180,B-4,526.25,0.375,87,98.0
5181,D5,526.25,0.375,95,98.0
5182,B-4,526.25,0.375,95,98.0
5183,G4,526.25,0.375,95,98.0
5184,D4,526.25,0.25,95,98.0
5185,B-3,526.25,0.25,95,98.0
5186,G3,526.25,0.25,95,98.0
5187,D4,526.25,0.25,95,98.0
5188,B-3,526.25,0.25,95,98.0
5189,G3,526.25,0.25,95,98.0
5190,B-1,526.75,1.75,95,98.0
5191,C5,526.75,1.25,87,98.0
5192,B-4,526.75,1.25,87,98.0
5193,C5,526.75,1.25,95,98.0
5194,B-4,526.75,1.25,95,98.0
5195,F4,526.75,1.25,95,98.0
5196,D4,526.75,1.0,95,98.0
5197,B-3,526.75,1.0,95,98.0
5198,F3,526.75,1.0,95,98.0
5199,D4,526.75,1.0,95,98.0
5200,B-3,526.75,1.0,95,98.0
5201,F3,526.75,1.0,95,98.0
5202,A4,528.0,0.5,87,98.0
5203,F4,528.0,0.5,87,98.0
5204,A4,528.0,0.25,95,98.0
5205,F4,528.0,0.25,95,98.0
5206,C4,528.0,0.25,95,98.0
5207,G3,528.25,0.25,63,98.0
5208,F1,528.5,0.5,95,98.0
5209,G4,528.5,0.5,87,98.0
5210,E4,528.5,0.5,87,98.0
5211,G4,528.5,0.5,95,98.0
5212,E4,528.5,0.5,95,98.0
5213,C4,528.5,0.5,95,98.0
5214,E4,528.5,0.5,95,98.0
5215,C4,528.5,0.5,95,98.0
5216,G3,528.5,0.5,95,98.0
5217,E4,528.5,0.5,95,98.0
5218,C4,528.5,0.5,95,98.0
5219,G3,528.5,0.5,95,98.0
5220,F1,529.0,1.0,95,98.0
5221,G4,529.0,1.0,87,98.0
5222,E4,529.0,1.0,87,98.0
5223,G4,529.0,1.0,95,98.0
5224,E4,529.0,1.0,95,98.0
5225,C4,529.0,1.0,95,98.0
5226,E4,529.0,1.5,95,98.0
5227,C4,529.0,1.5,95,98.0
5228,G3,529.0,1.5,95,98.0
5229,E4,529.0,1.5,95,98.0
5230,C4,529.0,1.5,95,98.0
5231,G3,529.0,1.5,95,98.0
5232,E-5,529.25,0.25,95,98.0
5233,E5,529.5,0.25,95,98.0
5234,C5,529.75,0.25,95,98.0
5235,C5,530.25,0.25,95,98.0
5236,F1,530.25,0.25,95,98.0
5237,C5,530.75,0.25,95,98.0
5238,E-2,530.75,1.75,95,98.0
5239,D4,530.75,1.75,95,98.0
5240,B-3,530.75,1.75,95,98.0
5241,F3,530.75,1.75,95,98.0
5242,D4,530.75,1.75,95,98.0
5243,B-3,530.75,1.75,95,98.0
5244,F3,530.75,1.75,95,98.0
5245,B-4,531.25,0.25,95,98.0
5246,G4,531.75,0.75,95,98.0
5247,F4,532.5,0.25,95,98.0
5248,D2,532.5,0.5,95,98.0
5249,B-3,532.5,0.5,95,98.0
5250,F3,532.5,0.5,95,98.0
5251,G4,532.75,0.25,95,98.0
5252,C2,533.0,1.0,95,98.0
5253,D4,533.0,0.5,95,98.0
5254,B-3,533.0,0.5,95,98.0
5255,G3,533.0,0.5,95,98.0
5256,D4,533.0,0.5,95,98.0
5257,B-3,533.0,0.5,95,98.0
5258,G3,533.0,0.5,95,98.0
5259,C4,534.0,0.25,95,98.0
5260,F4,534.25,0.25,95,98.0
5261,C2,534.25,0.25,95,98.0
5262,D4,534.25,0.25,95,98.0
5263,B-3,534.25,0.25,95,98.0
5264,G3,534.25,0.25,95,98.0
5265,D4,534.25,0.25,95,98.0
5266,B-3,534.25,0.25,95,98.0
5267,G3,534.25,0.25,95,98.0
5268,F4,534.5,0.25,95,98.0
5269,F4,534.75,0.5,95,98.0
5270,D2,534.75,1.75,95,98.0
5271,F4,534.75,1.0,95,98.0
5272,C4,534.75,1.0,95,98.0
5273,A3,534.75,1.0,95,98.0
5274,F4,534.75,1.0,95,98.0
5275,C4,534.75,1.0,95,98.0
5276,A3,534.75,1.0,95,98.0
5277,G#4,535.25,0.25,95,98.0
5278,A4,535.5,0.25,95,98.0
5279,F4,535.75,0.25,95,98.0
5280,D4,536.0,0.25,95,98.0
5281,D4,536.0,0.25,95,98.0
5282,G4,536.0,0.25,95,98.0
5283,F4,536.25,0.25,95,98.0
5284,B-4,536.25,0.25,95,98.0
5285,F4,536.25,0.25,87,98.0
5286,G3,536.25,0.25,87,98.0
5287,G4,536.5,0.25,95,98.0
5288,C5,536.5,0.25,95,98.0
5289,C2,536.5,0.5,63,98.0
5290,G4,536.5,0.25,99,98.0
5291,F4,536.5,0.25,99,98.0
5292,C4,536.5,0.25,99,98.0
5293,A3,536.5,0.25,99,98.0
5294,F4,536.5,0.5,95,98.0
5295,C4,536.5,0.5,95,98.0
5296,A3,536.5,0.5,95,98.0
5297,B-4,536.75,0.25,95,98.0
5298,B-4,536.75,0.25,111,98.0
5299,D5,536.75,0.25,95,98.0
5300,B-4,537.0,3.0,95,98.0
5301,B-4,537.0,0.5,111,98.0
5302,D5,537.0,2.0,95,98.0
5303,E-2,537.0,1.25,95,98.0
5304,D4,537.0,0.5,95,98.0
5305,B-3,537.0,0.5,95,98.0
5306,G3,537.0,0.5,95,98.0
5307,G5,537.5,0.25,111,98.0
5308,C5,537.5,0.25,111,98.0
5309,G4,537.5,0.25,111,98.0
5310,F5,537.75,0.25,111,98.0
5311,B-4,537.75,0.25,111,98.0
5312,F4,537.75,0.25,111,98.0
5313,E-2,538.25,0.5,95,98.0
5314,G5,538.25,0.25,111,98.0
5315,C5,538.25,0.25,111,98.0
5316,G4,538.25,0.25,111,98.0
5317,D4,538.25,0.25,95,98.0
5318,B-3,538.25,0.25,95,98.0
5319,G3,538.25,0.25,95,98.0
5320,E-2,538.75,1.25,95,98.0
5321,G5,538.75,0.25,111,98.0
5322,C5,538.75,0.25,111,98.0
5323,G4,538.75,0.25,111,98.0
5324,D4,538.75,1.0,95,98.0
5325,B-3,538.75,1.0,95,98.0
5326,G3,538.75,1.0,95,98.0
5327,G4,539.25,0.25,111,98.0
5328,G4,539.25,0.25,95,98.0
5329,B-4,539.5,0.25,111,98.0
5330,B-4,539.5,0.25,95,98.0
5331,C5,539.75,0.25,111,98.0
5332,G4,539.75,0.25,95,98.0
5333,D5,540.0,0.125,111,98.0
5334,C5,540.0,0.125,95,98.0
5335,E-2,540.0,0.5,95,98.0
5336,B-4,540.0,0.25,95,98.0
5337,E-4,540.0,0.25,95,98.0
5338,B-3,540.0,0.25,95,98.0
5339,D4,540.0,0.5,95,98.0
5340,B-3,540.0,0.5,95,98.0
5341,G3,540.0,0.5,95,98.0
5342,C5,540.125,0.125,111,98.0
5343,B-4,540.125,0.125,95,98.0
5344,B-4,540.25,0.125,111,98.0
5345,F4,540.25,0.25,95,98.0
5346,G4,540.375,0.375,111,98.0
5347,G4,540.5,0.5,95,98.0
5348,F1,540.5,0.5,95,98.0
5349,C5,540.5,0.25,95,98.0
5350,F4,540.5,0.25,95,98.0
5351,C4,540.5,0.25,95,98.0
5352,C4,540.5,0.5,95,98.0
5353,A3,540.5,0.5,95,98.0
5354,F3,540.5,0.5,95,98.0
5355,G3,541.0,0.5,95,98.0
5356,G1,541.0,1.0,95,98.0
5357,D5,541.75,0.375,87,98.0
5358,B-4,541.75,0.375,87,98.0
5359,D5,541.75,0.375,95,98.0
5360,B-4,541.75,0.375,95,98.0
5361,G4,541.75,0.375,95,98.0
5362,G1,542.25,0.25,95,98.0
5363,D5,542.25,0.375,87,98.0
5364,B-4,542.25,0.375,87,98.0
5365,D5,542.25,0.375,95,98.0
5366,B-4,542.25,0.375,95,98.0
5367,G4,542.25,0.375,95,98.0
5368,D4,542.25,0.25,95,98.0
5369,B-3,542.25,0.25,95,98.0
5370,G3,542.25,0.25,95,98.0
5371,D4,542.25,0.25,95,98.0
5372,B-3,542.25,0.25,95,98.0
5373,G3,542.25,0.25,95,98.0
5374,B-1,542.75,1.75,95,98.0
5375,C5,542.75,1.25,87,98.0
5376,B-4,542.75,1.25,87,98.0
5377,C5,542.75,1.25,95,98.0
5378,B-4,542.75,1.25,95,98.0
5379,F4,542.75,1.25,95,98.0
5380,D4,542.75,1.0,95,98.0
5381,B-3,542.75,1.0,95,98.0
5382,F3,542.75,1.0,95,98.0
5383,D4,542.75,1.0,95,98.0
5384,B-3,542.75,1.0,95,98.0
5385,F3,542.75,1.0,95,98.0
5386,E-5,544.0,0.5,87,98.0
5387,F4,544.0,0.5,87,98.0
5388,A4,544.0,0.25,95,98.0
5389,F4,544.0,0.25,95,98.0
5390,C4,544.0,0.25,95,98.0
5391,G3,544.25,0.25,63,98.0
5392,F1,544.5,0.5,95,98.0
5393,F5,544.5,0.5,87,98.0
5394,E4,544.5,0.5,87,98.0
5395,G4,544.5,0.5,95,98.0
5396,E4,544.5,0.5,95,98.0
5397,C4,544.5,0.5,95,98.0
5398,E4,544.5,0.5,95,98.0
5399,C4,544.5,0.5,95,98.0
5400,G3,544.5,0.5,95,98.0
5401,E4,544.5,0.5,95,98.0
5402,C4,544.5,0.5,95,98.0
5403,G3,544.5,0.5,95,98.0
5404,F1,545.0,1.0,95,98.0
5405,F5,545.0,1.0,87,98.0
5406,E4,545.0,1.0,87,98.0
5407,G4,545.0,1.0,95,98.0
5408,E4,545.0,1.0,95,98.0
5409,C4,545.0,1.0,95,98.0
5410,E4,545.0,1.5,95,98.0
5411,C4,545.0,1.5,95,98.0
5412,G3,545.0,1.5,95,98.0
5413,E4,545.0,1.5,95,98.0
5414,C4,545.0,1.5,95,98.0
5415,G3,545.0,1.5,95,98.0
5416,E-5,545.25,0.25,95,98.0
5417,E5,545.5,0.25,95,98.0
5418,C5,545.75,0.25,95,98.0
5419,C5,546.25,0.25,95,98.0
5420,F1,546.25,0.25,95,98.0
5421,C5,546.75,0.25,95,98.0
5422,E-2,546.75,1.75,95,98.0
5423,D4,546.75,1.75,95,98.0
5424,B-3,546.75,1.75,95,98.0
5425,F3,546.75,1.75,95,98.0
5426,D4,546.75,1.75,95,98.0
5427,B-3,546.75,1.75,95,98.0
5428,F3,546.75,1.75,95,98.0
5429,B-4,547.25,0.25,95,98.0
5430,G4,547.75,0.75,95,98.0
5431,F4,548.5,0.25,95,98.0
5432,D2,548.5,0.5,95,98.0
5433,B-3,548.5,0.5,95,98.0
5434,F3,548.5,0.5,95,98.0
5435,G4,548.75,0.25,95,98.0
5436,C2,549.0,1.0,95,98.0
5437,F4,549.0,0.5,95,98.0
5438,D4,549.0,0.5,95,98.0
5439,B-3,549.0,0.5,95,98.0
5440,G3,549.0,0.5,95,98.0
5441,G4,549.0,0.5,95,98.0
5442,D4,549.0,0.5,95,98.0
5443,B-3,549.0,0.5,95,98.0
5444,G3,549.0,0.5,95,98.0
5445,C4,550.0,0.25,95,98.0
5446,F4,550.25,0.25,95,98.0
5447,C2,550.25,0.25,95,98.0
5448,F4,550.25,0.25,95,98.0
5449,D4,550.25,0.25,95,98.0
5450,B-3,550.25,0.25,95,98.0
5451,G3,550.25,0.25,95,98.0
5452,F4,550.25,0.25,95,98.0
5453,D4,550.25,0.25,95,98.0
5454,B-3,550.25,0.25,95,98.0
5455,G3,550.25,0.25,95,98.0
5456,F4,550.5,0.25,95,98.0
5457,F4,550.75,0.5,95,98.0
5458,D2,550.75,1.75,95,98.0
5459,F4,550.75,1.0,95,98.0
5460,F4,550.75,1.0,95,98.0
5461,C4,550.75,1.0,95,98.0
5462,A3,550.75,1.0,95,98.0
5463,F4,550.75,1.0,95,98.0
5464,C4,550.75,1.0,95,98.0
5465,A3,550.75,1.0,95,98.0
5466,G#4,551.25,0.25,95,98.0
5467,A4,551.5,0.25,95,98.0
5468,F4,551.75,0.25,95,98.0
5469,D4,552.0,0.25,95,98.0
5470,D4,552.0,0.25,95,98.0
5471,G4,552.0,0.25,95,98.0
5472,F4,552.25,0.25,95,98.0
5473,B-4,552.25,0.25,95,98.0
5474,F4,552.25,0.25,87,98.0
5475,G3,552.25,0.25,87,98.0
5476,G4,552.5,0.25,95,98.0
5477,C5,552.5,0.25,95,98.0
5478,C2,552.5,0.5,63,98.0
5479,G4,552.5,0.25,99,98.0
5480,F4,552.5,0.25,99,98.0
5481,C4,552.5,0.25,99,98.0
5482,A3,552.5,0.25,99,98.0
5483,F4,552.5,0.5,95,98.0
5484,C4,552.5,0.5,95,98.0
5485,A3,552.5,0.5,95,98.0
5486,B-4,552.75,0.25,95,98.0
5487,B-4,552.75,0.25,111,98.0
5488,D5,552.75,0.25,95,98.0
5489,B-4,553.0,3.0,95,98.0
5490,B-4,553.0,0.5,111,98.0
5491,D5,553.0,2.0,95,98.0
5492,E-2,553.0,1.25,95,98.0
5493,D4,553.0,0.5,95,98.0
5494,B-3,553.0,0.5,95,98.0
5495,G3,553.0,0.5,95,98.0
5496,G4,553.5,0.25,103,98.0
5497,D4,553.5,0.25,103,98.0
5498,B-4,553.75,0.25,103,98.0
5499,E-4,553.75,0.25,103,98.0
5500,E-2,554.25,0.5,95,98.0
5501,C5,554.25,0.25,103,98.0
5502,F4,554.25,0.25,103,98.0
5503,D4,554.25,0.25,95,98.0
5504,B-3,554.25,0.25,95,98.0
5505,G3,554.25,0.25,95,98.0
5506,E-2,554.75,1.25,95,98.0
5507,C5,554.75,0.25,103,98.0
5508,F4,554.75,0.25,103,98.0
5509,D4,554.75,1.0,95,98.0
5510,B-3,554.75,1.0,95,98.0
5511,G3,554.75,1.0,95,98.0
5512,G4,555.25,0.25,95,98.0
5513,C5,555.25,0.25,103,98.0
5514,C4,555.25,0.25,103,98.0
5515,B-4,555.5,0.25,95,98.0
5516,D5,555.5,0.25,103,98.0
5517,D4,555.5,0.25,103,98.0
5518,G4,555.75,0.25,95,98.0
5519,C5,556.0,0.125,95,98.0
5520,E-2,556.0,0.5,95,98.0
5521,B-4,556.0,0.25,95,98.0
5522,E-4,556.0,0.25,95,98.0
5523,B-3,556.0,0.25,95,98.0
5524,F5,556.0,0.25,103,98.0
5525,F4,556.0,0.25,103,98.0
5526,D4,556.0,0.5,95,98.0
5527,B-3,556.0,0.5,95,98.0
5528,G3,556.0,0.5,95,98.0
5529,B-4,556.125,0.125,95,98.0
5530,F4,556.25,0.25,95,98.0
5531,G4,556.5,0.5,95,98.0
5532,F1,556.5,0.5,95,98.0
5533,C5,556.5,0.25,95,98.0
5534,F4,556.5,0.25,95,98.0
5535,C4,556.5,0.25,95,98.0
5536,G5,556.5,0.25,103,98.0
5537,G4,556.5,0.25,103,98.0
5538,C4,556.5,0.5,95,98.0
5539,A3,556.5,0.5,95,98.0
5540,F3,556.5,0.5,95,98.0
5541,E2,2525.6,0.125,95,98.0
5542,F#2,2525.6,0.125,95,98.0
5543,E2,2525.725,0.125,47,98.0
5544,F#2,2525.725,0.125,47,98.0
5545,E2,2525.85,0.125,63,98.0
5546,F#2,2525.85,0.125,63,98.0
5547,E2,2525.975,0.125,63,98.0
5548,F#2,2525.975,0.125,63,98.0
5549,E2,2526.1,0.125,71,98.0
5550,F#2,2526.1,0.125,71,98.0
5551,E2,2526.225,0.125,63,98.0
5552,F#2,2526.225,0.125,63,98.0
5553,E2,2526.35,0.125,63,98.0
5554,F#2,2526.35,0.125,63,98.0
5555,E2,2526.475,0.125,55,98.0
5556,F#2,2526.475,0.125,55,98.0
5557,F#2,2526.6,0.25,79,98.0
5558,C2,2526.6,0.25,79,98.0
5559,E3,2526.6,0.25,79,98.0
5560,G#2,2526.85,0.25,63,98.0
5561,F#2,2527.1,0.25,95,98.0
5562,C#2,2527.1,0.25,95,98.0
5563,G#2,2527.35,0.25,95,98.0
5564,C2,2527.35,0.25,95,98.0
5565,F#2,2527.6,0.25,95,98.0
5566,G#2,2527.85,0.25,95,98.0
5567,C#2,2527.85,0.25,95,98.0
5568,F#2,2528.1,0.25,95,98.0
5569,G#2,2528.35,0.25,95,98.0
5570,C2,2528.35,0.25,95,98.0
5571,F#2,2528.6,0.25,95,98.0
5572,G#2,2528.85,3/20,95,98.0
5573,C#2,2528.85,3/20,95,98.0
5574,G#2,2529.0,1/10,95,98.0
5575,C#2,2529.0,1/10,95,98.0
5576,F#2,2529.1,0.25,95,98.0
5577,C2,2529.1,0.25,95,98.0
5578,G#2,2529.35,0.25,95,98.0
5579,F#2,2529.6,0.25,95,98.0
5580,G#2,2529.85,0.25,63,98.0
5581,F#2,2530.1,0.25,74,98.0
5582,A2,2530.1,0.25,74,98.0
5583,E2,2530.1,0.25,74,98.0
5584,G#2,2530.35,0.25,47,98.0
5585,F#2,2530.6,0.25,71,98.0
5586,C2,2530.6,0.25,71,98.0
5587,G#2,2530.85,0.25,63,98.0
5588,F#2,2531.1,0.25,95,98.0
5589,C#2,2531.1,0.25,95,98.0
5590,G#2,2531.35,0.25,95,98.0
5591,C2,2531.35,0.25,95,98.0
5592,F#2,2531.6,0.25,95,98.0
5593,G#2,2531.85,0.25,84,98.0
5594,C#2,2531.85,0.25,84,98.0
5595,B5,2531.85,0.25,84,98.0
5596,F#2,2532.1,0.25,95,98.0
5597,G#2,2532.35,0.25,95,98.0
5598,C2,2532.35,0.25,95,98.0
5599,F#2,2532.6,0.25,95,98.0
5600,G#2,2532.85,3/20,95,98.0
5601,C#2,2532.85,3/20,95,98.0
5602,G#2,2533.1,1/10,95,98.0
5603,C#2,2533.1,1/10,95,98.0
5604,F#2,2533.2,0.25,95,98.0
5605,B-2,2533.2,0.75,95,98.0
5606,G#2,2533.45,0.25,95,98.0
5607,F#2,2533.7,0.25,95,98.0
5608,G#2,2533.95,0.25,79,98.0
5609,G2,2533.95,0.25,79,98.0
5610,F#2,2534.2,0.25,79,98.0
5611,D2,2534.2,0.25,79,98.0
5612,G#2,2534.45,0.25,47,98.0
5613,F#2,2534.7,0.25,71,98.0
5614,C2,2534.7,0.25,71,98.0
5615,G#2,2534.95,0.25,63,98.0
5616,F#2,2535.2,0.25,95,98.0
5617,C#2,2535.2,0.25,95,98.0
5618,G#2,2535.45,0.25,95,98.0
5619,C2,2535.45,0.25,95,98.0
5620,F#2,2535.7,0.25,95,98.0
5621,G#2,2535.95,0.25,95,98.0
5622,C#2,2535.95,0.25,95,98.0
5623,F#2,2536.2,0.25,95,98.0
5624,G#2,2536.45,0.25,95,98.0
5625,C2,2536.45,0.25,95,98.0
5626,F#2,2536.7,0.25,95,98.0
5627,G#2,2536.95,3/20,95,98.0
5628,C#2,2536.95,3/20,95,98.0
5629,G#2,2537.1,1/10,95,98.0
5630,C#2,2537.1,1/10,95,98.0
5631,F#2,2537.2,0.25,95,98.0
5632,C2,2537.2,0.25,95,98.0
5633,G#2,2537.45,0.25,95,98.0
5634,F#2,2537.7,0.25,95,98.0
5635,G#2,2537.95,0.25,63,98.0
5636,F#2,2538.2,0.25,74,98.0
5637,A2,2538.2,0.25,74,98.0
5638,E2,2538.2,0.25,74,98.0
5639,G#2,2538.45,0.25,47,98.0
5640,F#2,2538.7,0.25,71,98.0
5641,C2,2538.7,0.25,71,98.0
5642,G#2,2538.95,0.25,63,98.0
5643,F#2,2539.2,0.25,95,98.0
5644,C#2,2539.2,0.25,95,98.0
5645,G#2,2539.45,0.25,95,98.0
5646,C2,2539.45,0.25,95,98.0
5647,F#2,2539.7,0.25,95,98.0
5648,G#2,2539.95,0.25,84,98.0
5649,C#2,2539.95,0.25,84,98.0
5650,B5,2539.95,0.25,84,98.0
5651,F#2,2540.2,0.25,95,98.0
5652,G#2,2540.45,0.25,95,98.0
5653,C2,2540.45,0.25,95,98.0
5654,F#2,2540.7,0.25,95,98.0
5655,G#2,2540.95,3/20,95,98.0
5656,C#2,2540.95,3/20,95,98.0
5657,G#2,2541.1,1/10,95,98.0
5658,C#2,2541.1,1/10,95,98.0
5659,F#2,2541.2,0.25,95,98.0
5660,B-2,2541.2,0.75,95,98.0
5661,G#2,2541.45,0.25,95,98.0
5662,F#2,2541.7,0.25,95,98.0
5663,G#2,2541.95,0.25,79,98.0
5664,G2,2541.95,0.25,79,98.0
5665,F#2,2542.2,0.25,79,98.0
5666,D2,2542.2,0.25,79,98.0
5667,G#2,2542.45,0.25,47,98.0
5668,F#2,2542.7,0.25,79,98.0
5669,C2,2542.7,0.25,79,98.0
5670,E3,2542.7,0.25,79,98.0
5671,G#2,2542.95,0.25,63,98.0
5672,F#2,2543.2,0.25,95,98.0
5673,C#2,2543.2,0.25,95,98.0
5674,G#2,2543.45,0.25,95,98.0
5675,C2,2543.45,0.25,95,98.0
5676,F#2,2543.7,0.25,95,98.0
5677,G#2,2543.95,0.25,95,98.0
5678,C#2,2543.95,0.25,95,98.0
5679,F#2,2544.2,0.25,95,98.0
5680,G#2,2544.45,0.25,95,98.0
5681,C2,2544.45,0.25,95,98.0
5682,F#2,2544.7,0.25,95,98.0
5683,G#2,2544.95,3/20,95,98.0
5684,C#2,2544.95,3/20,95,98.0
5685,G#2,2545.1,1/10,95,98.0
5686,C#2,2545.1,1/10,95,98.0
5687,F#2,2545.2,0.25,95,98.0
5688,C2,2545.2,0.25,95,98.0
5689,G#2,2545.45,0.25,95,98.0
5690,F#2,2545.7,0.25,95,98.0
5691,G#2,2545.95,0.25,63,98.0
5692,F#2,2546.2,0.25,74,98.0
5693,A2,2546.2,0.25,74,98.0
5694,E2,2546.2,0.25,74,98.0
5695,G#2,2546.45,0.25,47,98.0
5696,F#2,2546.7,0.25,71,98.0
5697,C2,2546.7,0.25,71,98.0
5698,G#2,2546.95,0.25,63,98.0
5699,F#2,2547.2,0.25,95,98.0
5700,C#2,2547.2,0.25,95,98.0
5701,G#2,2547.45,0.25,95,98.0
5702,C2,2547.45,0.25,95,98.0
5703,F#2,2547.7,0.25,95,98.0
5704,G#2,2547.95,0.25,84,98.0
5705,C#2,2547.95,0.25,84,98.0
5706,B5,2547.95,0.25,84,98.0
5707,F#2,2548.2,0.25,95,98.0
5708,G#2,2548.45,0.25,95,98.0
5709,C2,2548.45,0.25,95,98.0
5710,F#2,2548.7,0.25,95,98.0
5711,G#2,2548.95,3/20,95,98.0
5712,C#2,2548.95,3/20,95,98.0
5713,G#2,2549.1,1/10,95,98.0
5714,C#2,2549.1,1/10,95,98.0
5715,F#2,2549.2,0.25,95,98.0
5716,B-2,2549.2,0.75,95,98.0
5717,G#2,2549.45,0.25,95,98.0
5718,F#2,2549.7,0.25,95,98.0
5719,G#2,2549.95,0.25,79,98.0
5720,G2,2549.95,0.25,79,98.0
5721,F#2,2550.2,0.25,79,98.0
5722,D2,2550.2,0.25,79,98.0
5723,G#2,2550.45,0.25,47,98.0
5724,F#2,2550.7,0.25,71,98.0
5725,C2,2550.7,0.25,71,98.0
5726,G#2,2550.95,0.25,63,98.0
5727,F#2,2551.2,0.25,95,98.0
5728,C#2,2551.2,0.25,95,98.0
5729,G#2,2551.45,0.25,95,98.0
5730,C2,2551.45,0.25,95,98.0
5731,F#2,2551.7,0.25,95,98.0
5732,G#2,2551.95,0.25,95,98.0
5733,C#2,2551.95,0.25,95,98.0
5734,F#2,2552.2,0.25,95,98.0
5735,G#2,2552.45,0.25,95,98.0
5736,C2,2552.45,0.25,95,98.0
5737,F#2,2552.7,0.25,95,98.0
5738,G#2,2552.95,3/20,95,98.0
5739,C#2,2552.95,3/20,95,98.0
5740,G#2,2553.1,1/10,95,98.0
5741,C#2,2553.1,1/10,95,98.0
5742,F#2,2553.2,0.25,95,98.0
5743,C2,2553.2,0.25,95,98.0
5744,G#2,2553.45,0.25,95,98.0
5745,F#2,2553.7,0.25,95,98.0
5746,G#2,2553.95,0.25,63,98.0
5747,F#2,2554.2,0.25,74,98.0
5748,A2,2554.2,0.25,74,98.0
5749,E2,2554.2,0.25,74,98.0
5750,G#2,2554.45,0.25,47,98.0
5751,F#2,2554.7,0.25,71,98.0
5752,C2,2554.7,0.25,71,98.0
5753,G#2,2554.95,0.25,63,98.0
5754,F#2,2555.2,0.25,95,98.0
5755,C#2,2555.2,0.25,95,98.0
5756,G#2,2555.45,0.25,95,98.0
5757,C2,2555.45,0.25,95,98.0
5758,F#2,2555.7,0.25,95,98.0
5759,G#2,2555.95,0.25,84,98.0
5760,C#2,2555.95,0.25,84,98.0
5761,B5,2555.95,0.25,84,98.0
5762,F#2,2556.2,0.25,95,98.0
5763,G#2,2556.45,0.25,95,98.0
5764,C2,2556.45,0.25,95,98.0
5765,F#2,2556.7,0.25,95,98.0
5766,G#2,2556.95,3/20,95,98.0
5767,C#2,2556.95,3/20,95,98.0
5768,G#2,2557.1,1/10,95,98.0
5769,C#2,2557.1,1/10,95,98.0
5770,F#2,2557.2,0.25,95,98.0
5771,B-2,2557.2,0.75,95,98.0
5772,G#2,2557.45,0.25,95,98.0
5773,F#2,2557.7,0.25,95,98.0
5774,G#2,2557.95,0.25,79,98.0
5775,G2,2557.95,0.25,79,98.0
5776,F#2,2558.2,0.25,79,98.0
5777,D2,2558.2,0.25,79,98.0
5778,G#2,2558.45,0.25,47,98.0
5779,F#2,2558.7,0.25,79,98.0
5780,C2,2558.7,0.25,79,98.0
5781,E3,2558.7,0.25,79,98.0
5782,G#2,2558.95,0.25,63,98.0
5783,F#2,2559.2,0.25,95,98.0
5784,C#2,2559.2,0.25,95,98.0
5785,G#2,2559.45,0.25,95,98.0
5786,C2,2559.45,0.25,95,98.0
5787,F#2,2559.7,0.25,95,98.0
5788,G#2,2559.95,0.25,95,98.0
5789,C#2,2559.95,0.25,95,98.0
5790,F#2,2560.2,0.25,95,98.0
5791,G#2,2560.45,0.25,95,98.0
5792,C2,2560.45,0.25,95,98.0
5793,F#2,2560.7,0.25,95,98.0
5794,G#2,2560.95,3/20,95,98.0
5795,C#2,2560.95,3/20,95,98.0
5796,G#2,2561.1,1/10,95,98.0
5797,C#2,2561.1,1/10,95,98.0
5798,F#2,2561.2,0.25,95,98.0
5799,C2,2561.2,0.25,95,98.0
5800,G#2,2561.45,0.25,95,98.0
5801,F#2,2561.7,0.25,95,98.0
5802,G#2,2561.95,0.25,63,98.0
5803,F#2,2562.2,0.25,74,98.0
5804,A2,2562.2,0.25,74,98.0
5805,E2,2562.2,0.25,74,98.0
5806,G#2,2562.45,0.25,47,98.0
5807,F#2,2562.7,0.25,71,98.0
5808,C2,2562.7,0.25,71,98.0
5809,G#2,2562.95,0.25,63,98.0
5810,F#2,2563.2,0.25,95,98.0
5811,C#2,2563.2,0.25,95,98.0
5812,G#2,2563.45,0.25,95,98.0
5813,C2,2563.45,0.25,95,98.0
5814,F#2,2563.7,0.25,95,98.0
5815,G#2,2563.95,0.25,84,98.0
5816,C#2,2563.95,0.25,84,98.0
5817,B5,2563.95,0.25,84,98.0
5818,F#2,2564.2,0.25,95,98.0
5819,G#2,2564.45,0.25,95,98.0
5820,C2,2564.45,0.25,95,98.0
5821,F#2,2564.7,0.25,95,98.0
5822,G#2,2564.95,3/20,95,98.0
5823,C#2,2564.95,3/20,95,98.0
5824,G#2,2565.1,1/10,95,98.0
5825,C#2,2565.1,1/10,95,98.0
5826,B-2,2565.2,0.75,95,98.0
5827,F#2,2565.2,0.25,95,98.0
5828,F#3,2565.2,0.25,95,98.0
5829,G#2,2565.45,0.25,95,98.0
5830,F#2,2565.7,0.25,95,98.0
5831,G#2,2565.95,0.25,79,98.0
5832,G2,2565.95,0.25,79,98.0
5833,F#2,2566.2,0.25,79,98.0
5834,D2,2566.2,0.25,79,98.0
5835,G#2,2566.45,0.25,47,98.0
5836,F#2,2566.7,0.25,79,98.0
5837,C2,2566.7,0.25,79,98.0
5838,E3,2566.7,0.25,79,98.0
5839,G#2,2566.95,0.25,63,98.0
5840,F#2,2567.2,0.25,95,98.0
5841,C#2,2567.2,0.25,95,98.0
5842,G#2,2567.45,0.25,95,98.0
5843,C2,2567.45,0.25,95,98.0
5844,F#2,2567.7,0.25,95,98.0
5845,G#2,2567.95,0.25,95,98.0
5846,C#2,2567.95,0.25,95,98.0
5847,F#2,2568.2,0.25,95,98.0
5848,G#2,2568.45,0.25,95,98.0
5849,C2,2568.45,0.25,95,98.0
5850,F#2,2568.7,0.25,95,98.0
5851,G#2,2568.95,3/20,95,98.0
5852,C#2,2568.95,3/20,95,98.0
5853,G#2,2569.1,1/10,95,98.0
5854,C#2,2569.1,1/10,95,98.0
5855,F#2,2569.2,0.25,95,98.0
5856,C2,2569.2,0.25,95,98.0
5857,G#2,2569.45,0.25,95,98.0
5858,F#2,2569.7,0.25,95,98.0
5859,G#2,2569.95,0.25,63,98.0
5860,F#2,2570.2,0.25,74,98.0
5861,A2,2570.2,0.25,74,98.0
5862,E2,2570.2,0.25,74,98.0
5863,G#2,2570.45,0.25,47,98.0
5864,F#2,2570.7,0.25,71,98.0
5865,C2,2570.7,0.25,71,98.0
5866,G#2,2570.95,0.25,63,98.0
5867,F#2,2571.2,0.25,95,98.0
5868,C#2,2571.2,0.25,95,98.0
5869,G#2,2571.45,0.25,95,98.0
5870,C2,2571.45,0.25,95,98.0
5871,F#2,2571.7,0.25,95,98.0
5872,G#2,2571.95,0.25,84,98.0
5873,C#2,2571.95,0.25,84,98.0
5874,B5,2571.95,0.25,84,98.0
5875,F#2,2572.2,0.25,95,98.0
5876,G#2,2572.45,0.25,95,98.0
5877,C2,2572.45,0.25,95,98.0
5878,F#2,2572.7,0.25,95,98.0
5879,G#2,2572.95,3/20,95,98.0
5880,C#2,2572.95,3/20,95,98.0
5881,G#2,2573.1,1/10,95,98.0
5882,C#2,2573.1,1/10,95,98.0
5883,B-2,2573.2,0.75,95,98.0
5884,F#2,2573.2,0.25,95,98.0
5885,F#3,2573.2,0.25,95,98.0
5886,G#2,2573.45,0.25,95,98.0
5887,F#2,2573.7,0.25,95,98.0
5888,G#2,2573.95,0.25,79,98.0
5889,G2,2573.95,0.25,79,98.0
5890,F#2,2574.2,0.25,79,98.0
5891,D2,2574.2,0.25,79,98.0
5892,G#2,2574.45,0.25,47,98.0
5893,F#2,2574.7,0.25,79,98.0
5894,C2,2574.7,0.25,79,98.0
5895,E3,2574.7,0.25,79,98.0
5896,G#2,2574.95,0.25,63,98.0
5897,F#2,2575.2,0.25,95,98.0
5898,C#2,2575.2,0.25,95,98.0
5899,G#2,2575.45,0.25,95,98.0
5900,C2,2575.45,0.25,95,98.0
5901,F#2,2575.7,0.25,95,98.0
5902,G#2,2575.95,0.25,95,98.0
5903,C#2,2575.95,0.25,95,98.0
5904,F#2,2576.2,0.25,95,98.0
5905,G#2,2576.45,0.25,95,98.0
5906,C2,2576.45,0.25,95,98.0
5907,F#2,2576.7,0.25,95,98.0
5908,G#2,2576.95,3/20,95,98.0
5909,C#2,2576.95,3/20,95,98.0
5910,G#2,2577.1,1/10,95,98.0
5911,C#2,2577.1,1/10,95,98.0
5912,F#2,2577.2,0.25,95,98.0
5913,C2,2577.2,0.25,95,98.0
5914,G#2,2577.45,0.25,95,98.0
5915,F#2,2577.7,0.25,95,98.0
5916,G#2,2577.95,0.25,63,98.0
5917,F#2,2578.2,0.25,74,98.0
5918,A2,2578.2,0.25,74,98.0
5919,E2,2578.2,0.25,74,98.0
5920,G#2,2578.45,0.25,47,98.0
5921,F#2,2578.7,0.25,71,98.0
5922,C2,2578.7,0.25,71,98.0
5923,G#2,2578.95,0.25,63,98.0
5924,F#2,2579.2,0.25,95,98.0
5925,C#2,2579.2,0.25,95,98.0
5926,G#2,2579.45,0.25,95,98.0
5927,C2,2579.45,0.25,95,98.0
5928,F#2,2579.7,0.25,95,98.0
5929,G#2,2579.95,0.25,84,98.0
5930,C#2,2579.95,0.25,84,98.0
5931,B5,2579.95,0.25,84,98.0
5932,F#2,2580.2,0.25,95,98.0
5933,G#2,2580.45,0.25,95,98.0
5934,C2,2580.45,0.25,95,98.0
5935,F#2,2580.7,0.25,95,98.0
5936,G#2,2580.95,3/20,95,98.0
5937,C#2,2580.95,3/20,95,98.0
5938,G#2,2581.1,1/10,95,98.0
5939,C#2,2581.1,1/10,95,98.0
5940,B-2,2581.2,0.75,95,98.0
5941,F#2,2581.2,0.25,95,98.0
5942,F#3,2581.2,0.25,95,98.0
5943,G#2,2581.45,0.25,95,98.0
5944,F#2,2581.7,0.25,95,98.0
5945,G#2,2581.95,0.25,79,98.0
5946,G2,2581.95,0.25,79,98.0
5947,F#2,2582.2,0.25,79,98.0
5948,D2,2582.2,0.25,79,98.0
5949,G#2,2582.45,0.25,47,98.0
5950,F#2,2582.7,0.25,79,98.0
5951,C2,2582.7,0.25,79,98.0
5952,E3,2582.7,0.25,79,98.0
5953,G#2,2582.95,0.25,63,98.0
5954,F#2,2583.2,0.25,95,98.0
5955,C#2,2583.2,0.25,95,98.0
5956,G#2,2583.45,0.25,95,98.0
5957,C2,2583.45,0.25,95,98.0
5958,F#2,2583.7,0.25,95,98.0
5959,G#2,2583.95,0.25,95,98.0
5960,C#2,2583.95,0.25,95,98.0
5961,F#2,2584.2,0.25,95,98.0
5962,G#2,2584.45,0.25,95,98.0
5963,C2,2584.45,0.25,95,98.0
5964,F#2,2584.7,0.25,95,98.0
5965,G#2,2584.95,3/20,95,98.0
5966,C#2,2584.95,3/20,95,98.0
5967,G#2,2585.1,1/10,95,98.0
5968,C#2,2585.1,1/10,95,98.0
5969,F#2,2585.2,0.25,95,98.0
5970,C2,2585.2,0.25,95,98.0
5971,G#2,2585.45,0.25,95,98.0
5972,F#2,2585.7,0.25,95,98.0
5973,G#2,2585.95,0.25,63,98.0
5974,F#2,2586.2,0.25,74,98.0
5975,A2,2586.2,0.25,74,98.0
5976,E2,2586.2,0.25,74,98.0
5977,G#2,2586.45,0.25,47,98.0
5978,F#2,2586.7,0.25,71,98.0
5979,C2,2586.7,0.25,71,98.0
5980,G#2,2586.95,0.25,63,98.0
5981,F#2,2587.2,0.25,95,98.0
5982,C#2,2587.2,0.25,95,98.0
5983,G#2,2587.45,0.25,95,98.0
5984,C2,2587.45,0.25,95,98.0
5985,F#2,2587.7,0.25,95,98.0
5986,G#2,2587.95,0.25,84,98.0
5987,C#2,2587.95,0.25,84,98.0
5988,B5,2587.95,0.25,84,98.0
5989,F#2,2588.2,0.25,95,98.0
5990,G#2,2588.45,0.25,95,98.0
5991,C2,2588.45,0.25,95,98.0
5992,F#2,2588.7,0.25,95,98.0
5993,G#2,2588.95,3/20,95,98.0
5994,C#2,2588.95,3/20,95,98.0
5995,G#2,2589.1,1/10,95,98.0
5996,C#2,2589.1,1/10,95,98.0
5997,B-2,2589.2,0.75,95,98.0
5998,F#2,2589.2,0.25,95,98.0
5999,F#3,2589.2,0.25,95,98.0
6000,G#2,2589.45,0.25,95,98.0
6001,F#2,2589.7,0.25,95,98.0
6002,G#2,2589.95,0.25,79,98.0
6003,G2,2589.95,0.25,79,98.0
6004,F#2,2590.2,0.25,79,98.0
6005,D2,2590.2,0.25,79,98.0
6006,G#2,2590.45,0.25,47,98.0
6007,F#2,2590.7,0.25,79,98.0
6008,C2,2590.7,0.25,79,98.0
6009,E3,2590.7,0.25,79,98.0
6010,G#2,2590.95,0.25,63,98.0
6011,F#2,2591.2,0.25,95,98.0
6012,C#2,2591.2,0.25,95,98.0
6013,G#2,2591.45,0.25,95,98.0
6014,C2,2591.45,0.25,95,98.0
6015,F#2,2591.7,0.25,95,98.0
6016,G#2,2591.95,0.25,95,98.0
6017,C#2,2591.95,0.25,95,98.0
6018,F#2,2592.2,0.25,95,98.0
6019,G#2,2592.45,0.25,95,98.0
6020,C2,2592.45,0.25,95,98.0
6021,F#2,2592.7,0.25,95,98.0
6022,G#2,2592.95,3/20,95,98.0
6023,C#2,2592.95,3/20,95,98.0
6024,G#2,2593.1,1/10,95,98.0
6025,C#2,2593.1,1/10,95,98.0
6026,F#2,2593.2,0.25,95,98.0
6027,C2,2593.2,0.25,95,98.0
6028,G#2,2593.45,0.25,95,98.0
6029,F#2,2593.7,0.25,95,98.0
6030,G#2,2593.95,0.25,63,98.0
6031,F#2,2594.2,0.25,74,98.0
6032,A2,2594.2,0.25,74,98.0
6033,E2,2594.2,0.25,74,98.0
6034,G#2,2594.45,0.25,47,98.0
6035,F#2,2594.7,0.25,71,98.0
6036,C2,2594.7,0.25,71,98.0
6037,G#2,2594.95,0.25,63,98.0
6038,F#2,2595.2,0.25,95,98.0
6039,C#2,2595.2,0.25,95,98.0
6040,G#2,2595.45,0.25,95,98.0
6041,C2,2595.45,0.25,95,98.0
6042,F#2,2595.7,0.25,95,98.0
6043,G#2,2595.95,0.25,84,98.0
6044,C#2,2595.95,0.25,84,98.0
6045,B5,2595.95,0.25,84,98.0
6046,F#2,2596.2,0.25,95,98.0
6047,G#2,2596.45,0.25,95,98.0
6048,C2,2596.45,0.25,95,98.0
6049,F#2,2596.7,0.25,95,98.0
6050,G#2,2596.95,3/20,95,98.0
6051,C#2,2596.95,3/20,95,98.0
6052,G#2,2597.1,1/10,95,98.0
6053,C#2,2597.1,1/10,95,98.0
6054,B-2,2597.2,0.75,95,98.0
6055,F#2,2597.2,0.25,95,98.0
6056,F#3,2597.2,0.25,95,98.0
6057,G#2,2597.45,0.25,95,98.0
6058,F#2,2597.7,0.25,95,98.0
6059,G#2,2597.95,0.25,79,98.0
6060,G2,2597.95,0.25,79,98.0
6061,F#2,2598.2,0.25,79,98.0
6062,D2,2598.2,0.25,79,98.0
6063,G#2,2598.45,0.25,47,98.0
6064,F#2,2598.7,0.25,79,98.0
6065,C2,2598.7,0.25,79,98.0
6066,E3,2598.7,0.25,79,98.0
6067,G#2,2598.95,0.25,63,98.0
6068,F#2,2599.2,0.25,95,98.0
6069,C#2,2599.2,0.25,95,98.0
6070,G#2,2599.45,0.25,95,98.0
6071,C2,2599.45,0.25,95,98.0
6072,F#2,2599.7,0.25,95,98.0
6073,G#2,2599.95,0.25,95,98.0
6074,C#2,2599.95,0.25,95,98.0
6075,F#2,2600.2,0.25,95,98.0
6076,G#2,2600.45,0.25,95,98.0
6077,C2,2600.45,0.25,95,98.0
6078,F#2,2600.7,0.25,95,98.0
6079,G#2,2600.95,3/20,95,98.0
6080,C#2,2600.95,3/20,95,98.0
6081,G#2,2601.1,1/10,95,98.0
6082,C#2,2601.1,1/10,95,98.0
6083,F#2,2601.2,0.25,95,98.0
6084,C2,2601.2,0.25,95,98.0
6085,G#2,2601.45,0.25,95,98.0
6086,F#2,2601.7,0.25,95,98.0
6087,G#2,2601.95,0.25,63,98.0
6088,F#2,2602.2,0.25,74,98.0
6089,A2,2602.2,0.25,74,98.0
6090,E2,2602.2,0.25,74,98.0
6091,G#2,2602.45,0.25,47,98.0
6092,F#2,2602.7,0.25,71,98.0
6093,C2,2602.7,0.25,71,98.0
6094,G#2,2602.95,0.25,63,98.0
6095,F#2,2603.2,0.25,95,98.0
6096,C#2,2603.2,0.25,95,98.0
6097,G#2,2603.45,0.25,95,98.0
6098,C2,2603.45,0.25,95,98.0
6099,F#2,2603.7,0.25,95,98.0
6100,G#2,2603.95,0.25,84,98.0
6101,C#2,2603.95,0.25,84,98.0
6102,B5,2603.95,0.25,84,98.0
6103,F#2,2604.2,0.25,95,98.0
6104,G#2,2604.45,0.25,95,98.0
6105,C2,2604.45,0.25,95,98.0
6106,F#2,2604.7,0.25,95,98.0
6107,G#2,2604.95,3/20,95,98.0
6108,C#2,2604.95,3/20,95,98.0
6109,G#2,2605.1,1/10,95,98.0
6110,C#2,2605.1,1/10,95,98.0
6111,B-2,2605.2,0.75,95,98.0
6112,F#2,2605.2,0.25,95,98.0
6113,F#3,2605.2,0.25,95,98.0
6114,G#2,2605.45,0.25,95,98.0
6115,F#2,2605.7,0.25,95,98.0
6116,G#2,2605.95,0.25,79,98.0
6117,G2,2605.95,0.25,79,98.0
6118,F#2,2606.2,0.25,79,98.0
6119,D2,2606.2,0.25,79,98.0
6120,G#2,2606.45,0.25,47,98.0
6121,F#2,2606.7,0.25,79,98.0
6122,C2,2606.7,0.25,79,98.0
6123,E3,2606.7,0.25,79,98.0
6124,G#2,2606.95,0.25,63,98.0
6125,F#2,2607.2,0.25,95,98.0
6126,C#2,2607.2,0.25,95,98.0
6127,G#2,2607.45,0.25,95,98.0
6128,C2,2607.45,0.25,95,98.0
6129,F#2,2607.7,0.25,95,98.0
6130,G#2,2607.95,0.25,95,98.0
6131,C#2,2607.95,0.25,95,98.0
6132,F#2,2608.2,0.25,95,98.0
6133,G#2,2608.45,0.25,95,98.0
6134,C2,2608.45,0.25,95,98.0
6135,F#2,2608.7,0.25,95,98.0
6136,G#2,2608.95,3/20,95,98.0
6137,C#2,2608.95,3/20,95,98.0
6138,G#2,2609.1,1/10,95,98.0
6139,C#2,2609.1,1/10,95,98.0
6140,F#2,2609.2,0.25,95,98.0
6141,C2,2609.2,0.25,95,98.0
6142,G#2,2609.45,0.25,95,98.0
6143,F#2,2609.7,0.25,95,98.0
6144,G#2,2609.95,0.25,63,98.0
6145,F#2,2610.2,0.25,74,98.0
6146,A2,2610.2,0.25,74,98.0
6147,E2,2610.2,0.25,74,98.0
6148,G#2,2610.45,0.25,47,98.0
6149,F#2,2610.7,0.25,71,98.0
6150,C2,2610.7,0.25,71,98.0
6151,G#2,2610.95,0.25,63,98.0
6152,F#2,2611.2,0.25,95,98.0
6153,C#2,2611.2,0.25,95,98.0
6154,G#2,2611.45,0.25,95,98.0
6155,C2,2611.45,0.25,95,98.0
6156,F#2,2611.7,0.25,95,98.0
6157,G#2,2611.95,0.25,84,98.0
6158,C#2,2611.95,0.25,84,98.0
6159,B5,2611.95,0.25,84,98.0
6160,F#2,2612.2,0.25,95,98.0
6161,G#2,2612.45,0.25,95,98.0
6162,C2,2612.45,0.25,95,98.0
6163,F#2,2612.7,0.25,95,98.0
6164,G#2,2612.95,3/20,95,98.0
6165,C#2,2612.95,3/20,95,98.0
6166,G#2,2613.1,1/10,95,98.0
6167,C#2,2613.1,1/10,95,98.0
6168,B-2,2613.2,0.75,95,98.0
6169,F#2,2613.2,0.25,95,98.0
6170,F#3,2613.2,0.25,95,98.0
6171,G#2,2613.45,0.25,95,98.0
6172,F#2,2613.7,0.25,95,98.0
6173,G#2,2613.95,0.25,79,98.0
6174,G2,2613.95,0.25,79,98.0
6175,F#2,2614.2,0.25,79,98.0
6176,D2,2614.2,0.25,79,98.0
6177,G#2,2614.45,0.25,47,98.0
6178,F#2,2614.7,0.25,79,98.0
6179,C2,2614.7,0.25,79,98.0
6180,E3,2614.7,0.25,79,98.0
6181,G#2,2614.95,0.25,63,98.0
6182,F#2,2615.2,0.25,95,98.0
6183,C#2,2615.2,0.25,95,98.0
6184,G#2,2615.45,0.25,95,98.0
6185,C2,2615.45,0.25,95,98.0
6186,F#2,2615.7,0.25,95,98.0
6187,G#2,2615.95,0.25,95,98.0
6188,C#2,2615.95,0.25,95,98.0
6189,F#2,2616.2,0.25,95,98.0
6190,G#2,2616.45,0.25,95,98.0
6191,C2,2616.45,0.25,95,98.0
6192,F#2,2616.7,0.25,95,98.0
6193,G#2,2616.95,3/20,95,98.0
6194,C#2,2616.95,3/20,95,98.0
6195,G#2,2617.1,1/10,95,98.0
6196,C#2,2617.1,1/10,95,98.0
6197,F#2,2617.2,0.25,95,98.0
6198,C2,2617.2,0.25,95,98.0
6199,G#2,2617.45,0.25,95,98.0
6200,F#2,2617.7,0.25,95,98.0
6201,G#2,2617.95,0.25,63,98.0
6202,F#2,2618.2,0.25,74,98.0
6203,A2,2618.2,0.25,74,98.0
6204,E2,2618.2,0.25,74,98.0
6205,G#2,2618.45,0.25,47,98.0
6206,F#2,2618.7,0.25,71,98.0
6207,C2,2618.7,0.25,71,98.0
6208,G#2,2618.95,0.25,63,98.0
6209,F#2,2619.2,0.25,95,98.0
6210,C#2,2619.2,0.25,95,98.0
6211,G#2,2619.45,0.25,95,98.0
6212,C2,2619.45,0.25,95,98.0
6213,F#2,2619.7,0.25,95,98.0
6214,G#2,2619.95,0.25,84,98.0
6215,C#2,2619.95,0.25,84,98.0
6216,B5,2619.95,0.25,84,98.0
6217,F#2,2620.2,0.25,95,98.0
6218,G#2,2620.45,0.25,95,98.0
6219,C2,2620.45,0.25,95,98.0
6220,F#2,2620.7,0.25,95,98.0
6221,G#2,2620.95,3/20,95,98.0
6222,C#2,2620.95,3/20,95,98.0
6223,G#2,2621.1,1/10,95,98.0
6224,C#2,2621.1,1/10,95,98.0
6225,B-2,2621.2,0.75,95,98.0
6226,F#2,2621.2,0.25,95,98.0
6227,F#3,2621.2,0.25,95,98.0
6228,G#2,2621.45,0.25,95,98.0
6229,F#2,2621.7,0.25,95,98.0
6230,G#2,2621.95,0.25,79,98.0
6231,G2,2621.95,0.25,79,98.0
6232,F#2,2622.2,0.25,79,98.0
6233,D2,2622.2,0.25,79,98.0
6234,G#2,2622.45,0.25,47,98.0
6235,F#2,2622.7,0.25,79,98.0
6236,C2,2622.7,0.25,79,98.0
6237,E3,2622.7,0.25,79,98.0
6238,G#2,2622.95,0.25,63,98.0
6239,F#2,2623.2,0.25,95,98.0
6240,C#2,2623.2,0.25,95,98.0
6241,G#2,2623.45,0.25,95,98.0
6242,C2,2623.45,0.25,95,98.0
6243,F#2,2623.7,0.25,95,98.0
6244,G#2,2623.95,0.25,95,98.0
6245,C#2,2623.95,0.25,95,98.0
6246,F#2,2624.2,0.25,95,98.0
6247,G#2,2624.45,0.25,95,98.0
6248,C2,2624.45,0.25,95,98.0
6249,F#2,2624.7,0.25,95,98.0
6250,G#2,2624.95,3/20,95,98.0
6251,C#2,2624.95,3/20,95,98.0
6252,G#2,2625.1,1/10,95,98.0
6253,C#2,2625.1,1/10,95,98.0
6254,F#2,2625.2,0.25,95,98.0
6255,C2,2625.2,0.25,95,98.0
6256,G#2,2625.45,0.25,95,98.0
6257,F#2,2625.7,0.25,95,98.0
6258,G#2,2625.95,0.25,63,98.0
6259,F#2,2626.2,0.25,74,98.0
6260,A2,2626.2,0.25,74,98.0
6261,E2,2626.2,0.25,74,98.0
6262,G#2,2626.45,0.25,47,98.0
6263,F#2,2626.7,0.25,71,98.0
6264,C2,2626.7,0.25,71,98.0
6265,G#2,2626.95,0.25,63,98.0
6266,F#2,2627.2,0.25,95,98.0
6267,C#2,2627.2,0.25,95,98.0
6268,G#2,2627.45,0.25,95,98.0
6269,C2,2627.45,0.25,95,98.0
6270,F#2,2627.7,0.25,95,98.0
6271,G#2,2627.95,0.25,84,98.0
6272,C#2,2627.95,0.25,84,98.0
6273,B5,2627.95,0.25,84,98.0
6274,F#2,2628.2,0.25,95,98.0
6275,G#2,2628.45,0.25,95,98.0
6276,C2,2628.45,0.25,95,98.0
6277,F#2,2628.7,0.25,95,98.0
6278,G#2,2628.95,3/20,95,98.0
6279,C#2,2628.95,3/20,95,98.0
6280,G#2,2629.1,1/10,95,98.0
6281,C#2,2629.1,1/10,95,98.0
6282,B-2,2629.2,0.75,95,98.0
6283,F#2,2629.2,0.25,95,98.0
6284,F#3,2629.2,0.25,95,98.0
6285,G#2,2629.45,0.25,95,98.0
6286,F#2,2629.7,0.25,95,98.0
6287,G#2,2629.95,0.25,79,98.0
6288,G2,2629.95,0.25,79,98.0
6289,F#2,2630.2,0.25,79,98.0
6290,D2,2630.2,0.25,79,98.0
6291,G#2,2630.45,0.25,47,98.0
6292,F#2,2630.7,0.25,79,98.0
6293,C2,2630.7,0.25,79,98.0
6294,E3,2630.7,0.25,79,98.0
6295,G#2,2630.95,0.25,63,98.0
6296,F#2,2631.2,0.25,95,98.0
6297,C#2,2631.2,0.25,95,98.0
6298,G#2,2631.45,0.25,95,98.0
6299,C2,2631.45,0.25,95,98.0
6300,F#2,2631.7,0.25,95,98.0
6301,G#2,2631.95,0.25,95,98.0
6302,C#2,2631.95,0.25,95,98.0
6303,F#2,2632.2,0.25,95,98.0
6304,G#2,2632.45,0.25,95,98.0
6305,C2,2632.45,0.25,95,98.0
6306,F#2,2632.7,0.25,95,98.0
6307,G#2,2632.95,3/20,95,98.0
6308,C#2,2632.95,3/20,95,98.0
6309,G#2,2633.1,1/10,95,98.0
6310,C#2,2633.1,1/10,95,98.0
6311,F#2,2633.2,0.25,95,98.0
6312,C2,2633.2,0.25,95,98.0
6313,G#2,2633.45,0.25,95,98.0
6314,F#2,2633.7,0.25,95,98.0
6315,G#2,2633.95,0.25,63,98.0
6316,F#2,2634.2,0.25,74,98.0
6317,A2,2634.2,0.25,74,98.0
6318,E2,2634.2,0.25,74,98.0
6319,G#2,2634.45,0.25,47,98.0
6320,F#2,2634.7,0.25,71,98.0
6321,C2,2634.7,0.25,71,98.0
6322,G#2,2634.95,0.25,63,98.0
6323,F#2,2635.2,0.25,95,98.0
6324,C#2,2635.2,0.25,95,98.0
6325,G#2,2635.45,0.25,95,98.0
6326,C2,2635.45,0.25,95,98.0
6327,F#2,2635.7,0.25,95,98.0
6328,G#2,2635.95,0.25,84,98.0
6329,C#2,2635.95,0.25,84,98.0
6330,B5,2635.95,0.25,84,98.0
6331,F#2,2636.2,0.25,95,98.0
6332,G#2,2636.45,0.25,95,98.0
6333,C2,2636.45,0.25,95,98.0
6334,F#2,2636.7,0.25,95,98.0
6335,G#2,2636.95,3/20,95,98.0
6336,C#2,2636.95,3/20,95,98.0
6337,G#2,2637.1,1/10,95,98.0
6338,C#2,2637.1,1/10,95,98.0
6339,F#2,2637.2,0.25,95,98.0
6340,B-2,2637.2,0.25,95,98.0
6341,F#3,2637.2,0.25,95,98.0
6342,G#2,2637.45,0.25,95,98.0
6343,F#2,2637.7,0.25,90,98.0
6344,E2,2637.7,0.25,90,98.0
6345,C3,2637.7,0.25,90,98.0
6346,G#2,2637.95,0.25,84,98.0
6347,G2,2637.95,0.25,84,98.0
6348,B2,2637.95,0.25,84,98.0
6349,F#2,2638.2,0.25,74,98.0
6350,D2,2638.2,0.25,74,98.0
6351,A2,2638.2,0.25,74,98.0
6352,G#2,2638.45,0.25,71,98.0
6353,B2,2638.45,0.25,71,98.0
6354,F#2,2638.7,0.25,79,98.0
6355,C2,2638.7,0.25,79,98.0
6356,E3,2638.7,0.25,79,98.0
6357,G#2,2638.95,0.25,63,98.0
6358,F#2,2639.2,0.25,95,98.0
6359,C#2,2639.2,0.25,95,98.0
6360,G#2,2639.45,0.25,95,98.0
6361,C2,2639.45,0.25,95,98.0
6362,F#2,2639.7,0.25,95,98.0
6363,G#2,2639.95,0.25,95,98.0
6364,C#2,2639.95,0.25,95,98.0
6365,F#2,2640.2,0.25,95,98.0
6366,G#2,2640.45,0.25,95,98.0
6367,C2,2640.45,0.25,95,98.0
6368,F#2,2640.7,0.25,95,98.0
6369,G#2,2640.95,3/20,95,98.0
6370,C#2,2640.95,3/20,95,98.0
6371,G#2,2641.1,1/10,95,98.0
6372,C#2,2641.1,1/10,95,98.0
6373,F#2,2641.2,0.25,95,98.0
6374,C2,2641.2,0.25,95,98.0
6375,G#2,2641.45,0.25,95,98.0
6376,F#2,2641.7,0.25,95,98.0
6377,G#2,2641.95,0.25,63,98.0
6378,F#2,2642.2,0.25,74,98.0
6379,A2,2642.2,0.25,74,98.0
6380,E2,2642.2,0.25,74,98.0
6381,G#2,2642.45,0.25,47,98.0
6382,F#2,2642.7,0.25,71,98.0
6383,C2,2642.7,0.25,71,98.0
6384,G#2,2642.95,0.25,63,98.0
6385,F#2,2643.2,0.25,95,98.0
6386,C#2,2643.2,0.25,95,98.0
6387,G#2,2643.45,0.25,95,98.0
6388,C2,2643.45,0.25,95,98.0
6389,F#2,2643.7,0.25,95,98.0
6390,G#2,2643.95,0.25,84,98.0
6391,C#2,2643.95,0.25,84,98.0
6392,B5,2643.95,0.25,84,98.0
6393,F#2,2644.2,0.25,95,98.0
6394,G#2,2644.45,0.25,95,98.0
6395,C2,2644.45,0.25,95,98.0
6396,F#2,2644.7,0.25,95,98.0
6397,G#2,2644.95,3/20,95,98.0
6398,C#2,2644.95,3/20,95,98.0
6399,G#2,2645.1,1/10,95,98.0
6400,C#2,2645.1,1/10,95,98.0
6401,B-2,2645.2,0.75,95,98.0
6402,F#2,2645.2,0.25,95,98.0
6403,F#3,2645.2,0.25,95,98.0
6404,G#2,2645.45,0.25,95,98.0
6405,F#2,2645.7,0.25,95,98.0
6406,G#2,2645.95,0.25,79,98.0
6407,G2,2645.95,0.25,79,98.0
6408,F#2,2646.2,0.25,79,98.0
6409,D2,2646.2,0.25,79,98.0
6410,G#2,2646.45,0.25,47,98.0
6411,F#2,2646.7,0.25,79,98.0
6412,C2,2646.7,0.25,79,98.0
6413,E3,2646.7,0.25,79,98.0
6414,G#2,2646.95,0.25,63,98.0
6415,F#2,2647.2,0.25,95,98.0
6416,C#2,2647.2,0.25,95,98.0
6417,G#2,2647.45,0.25,95,98.0
6418,C2,2647.45,0.25,95,98.0
6419,F#2,2647.7,0.25,95,98.0
6420,G#2,2647.95,0.25,95,98.0
6421,C#2,2647.95,0.25,95,98.0
6422,F#2,2648.2,0.25,95,98.0
6423,G#2,2648.45,0.25,95,98.0
6424,C2,2648.45,0.25,95,98.0
6425,F#2,2648.7,0.25,95,98.0
6426,G#2,2648.95,3/20,95,98.0
6427,C#2,2648.95,3/20,95,98.0
6428,G#2,2649.1,1/10,95,98.0
6429,C#2,2649.1,1/10,95,98.0
6430,F#2,2649.2,0.25,95,98.0
6431,C2,2649.2,0.25,95,98.0
6432,G#2,2649.45,0.25,95,98.0
6433,F#2,2649.7,0.25,95,98.0
6434,G#2,2649.95,0.25,63,98.0
6435,F#2,2650.2,0.25,74,98.0
6436,A2,2650.2,0.25,74,98.0
6437,E2,2650.2,0.25,74,98.0
6438,G#2,2650.45,0.25,47,98.0
6439,F#2,2650.7,0.25,71,98.0
6440,C2,2650.7,0.25,71,98.0
6441,G#2,2650.95,0.25,63,98.0
6442,F#2,2651.2,0.25,95,98.0
6443,G#2,2651.45,0.25,95,98.0
6444,A2,2651.45,0.25,95,98.0
6445,C2,2651.45,0.25,95,98.0
6446,F#2,2651.7,0.25,95,98.0
6447,G#2,2651.95,0.25,95,98.0
6448,B2,2651.95,0.25,95,98.0
6449,F#2,2652.2,0.25,95,98.0
6450,G#2,2652.45,0.25,95,98.0
6451,C2,2652.45,0.25,95,98.0
6452,F#2,2652.7,0.25,95,98.0
6453,E2,2652.7,0.25,95,98.0
6454,G#2,2652.95,3/20,95,98.0
6455,B-2,2652.95,3/20,95,98.0
6456,G#2,2653.1,1/10,95,98.0
6457,B-2,2653.1,1/10,95,98.0
6458,F#2,2653.2,0.25,95,98.0
6459,G#2,2653.45,0.25,95,98.0
6460,F#2,2653.7,0.25,95,98.0
6461,E2,2653.7,0.25,95,98.0
6462,G#2,2653.95,0.75,84,98.0
6463,C#3,2653.95,0.75,84,98.0
6464,C2,2653.95,0.75,84,98.0
6465,F#2,2654.7,0.25,79,98.0
6466,C2,2654.7,0.25,79,98.0
6467,E3,2654.7,0.25,79,98.0
6468,G#2,2654.95,0.25,63,98.0
6469,F#2,2655.2,0.25,95,98.0
6470,C#2,2655.2,0.25,95,98.0
6471,G#2,2655.45,0.25,95,98.0
6472,C2,2655.45,0.25,95,98.0
6473,F#2,2655.7,0.25,95,98.0
6474,G#2,2655.95,0.25,95,98.0
6475,C#2,2655.95,0.25,95,98.0
6476,F#2,2656.2,0.25,95,98.0
6477,G#2,2656.45,0.25,95,98.0
6478,C2,2656.45,0.25,95,98.0
6479,F#2,2656.7,0.25,95,98.0
6480,G#2,2656.95,3/20,95,98.0
6481,C#2,2656.95,3/20,95,98.0
6482,G#2,2657.1,1/10,95,98.0
6483,C#2,2657.1,1/10,95,98.0
6484,F#2,2657.2,0.25,95,98.0
6485,C2,2657.2,0.25,95,98.0
6486,G#2,2657.45,0.25,95,98.0
6487,F#2,2657.7,0.25,95,98.0
6488,G#2,2657.95,0.25,63,98.0
6489,F#2,2658.2,0.25,74,98.0
6490,A2,2658.2,0.25,74,98.0
6491,E2,2658.2,0.25,74,98.0
6492,G#2,2658.45,0.25,47,98.0
6493,F#2,2658.7,0.25,71,98.0
6494,C2,2658.7,0.25,71,98.0
6495,G#2,2658.95,0.25,63,98.0
6496,F#2,2659.2,0.25,95,98.0
6497,C#2,2659.2,0.25,95,98.0
6498,G#2,2659.45,0.25,95,98.0
6499,C2,2659.45,0.25,95,98.0
6500,F#2,2659.7,0.25,95,98.0
6501,G#2,2659.95,0.25,84,98.0
6502,C#2,2659.95,0.25,84,98.0
6503,B5,2659.95,0.25,84,98.0
6504,F#2,2660.2,0.25,95,98.0
6505,G#2,2660.45,0.25,95,98.0
6506,C2,2660.45,0.25,95,98.0
6507,F#2,2660.7,0.25,95,98.0
6508,G#2,2660.95,3/20,95,98.0
6509,C#2,2660.95,3/20,95,98.0
6510,G#2,2661.1,1/10,95,98.0
6511,C#2,2661.1,1/10,95,98.0
6512,B-2,2661.2,0.75,95,98.0
6513,F#2,2661.2,0.25,95,98.0
6514,F#3,2661.2,0.25,95,98.0
6515,G#2,2661.45,0.25,95,98.0
6516,F#2,2661.7,0.25,95,98.0
6517,G#2,2661.95,0.25,79,98.0
6518,G2,2661.95,0.25,79,98.0
6519,F#2,2662.2,0.25,79,98.0
6520,D2,2662.2,0.25,79,98.0
6521,G#2,2662.45,0.25,47,98.0
6522,F#2,2662.7,0.25,79,98.0
6523,C2,2662.7,0.25,79,98.0
6524,E3,2662.7,0.25,79,98.0
6525,G#2,2662.95,0.25,63,98.0
6526,F#2,2663.2,0.25,95,98.0
6527,C#2,2663.2,0.25,95,98.0
6528,G#2,2663.45,0.25,95,98.0
6529,C2,2663.45,0.25,95,98.0
6530,F#2,2663.7,0.25,95,98.0
6531,G#2,2663.95,0.25,95,98.0
6532,C#2,2663.95,0.25,95,98.0
6533,F#2,2664.2,0.25,95,98.0
6534,G#2,2664.45,0.25,95,98.0
6535,C2,2664.45,0.25,95,98.0
6536,F#2,2664.7,0.25,95,98.0
6537,G#2,2664.95,3/20,95,98.0
6538,C#2,2664.95,3/20,95,98.0
6539,G#2,2665.1,1/10,95,98.0
6540,C#2,2665.1,1/10,95,98.0
6541,F#2,2665.2,0.25,95,98.0
6542,C2,2665.2,0.25,95,98.0
6543,G#2,2665.45,0.25,95,98.0
6544,F#2,2665.7,0.25,95,98.0
6545,G#2,2665.95,0.25,63,98.0
6546,F#2,2666.2,0.25,74,98.0
6547,A2,2666.2,0.25,74,98.0
6548,E2,2666.2,0.25,74,98.0
6549,G#2,2666.45,0.25,47,98.0
6550,F#2,2666.7,0.25,71,98.0
6551,C2,2666.7,0.25,71,98.0
6552,G#2,2666.95,0.25,63,98.0
6553,F#2,2667.2,0.25,95,98.0
6554,C#2,2667.2,0.25,95,98.0
6555,G#2,2667.45,0.25,95,98.0
6556,C2,2667.45,0.25,95,98.0
6557,F#2,2667.7,0.25,95,98.0
6558,G#2,2667.95,0.25,84,98.0
6559,C#2,2667.95,0.25,84,98.0
6560,B5,2667.95,0.25,84,98.0
6561,F#2,2668.2,0.25,95,98.0
6562,G#2,2668.45,0.25,95,98.0
6563,C2,2668.45,0.25,95,98.0
6564,F#2,2668.7,0.25,95,98.0
6565,G#2,2668.95,3/20,95,98.0
6566,C#2,2668.95,3/20,95,98.0
6567,G#2,2669.1,1/10,95,98.0
6568,C#2,2669.1,1/10,95,98.0
6569,B-2,2669.2,0.75,95,98.0
6570,F#2,2669.2,0.25,95,98.0
6571,F#3,2669.2,0.25,95,98.0
6572,G#2,2669.45,0.25,95,98.0
6573,F#2,2669.7,0.25,95,98.0
6574,G#2,2669.95,0.25,79,98.0
6575,G2,2669.95,0.25,79,98.0
6576,F#2,2670.2,0.25,79,98.0
6577,D2,2670.2,0.25,79,98.0
6578,G#2,2670.45,0.25,47,98.0
6579,F#2,2670.7,0.25,79,98.0
6580,C2,2670.7,0.25,79,98.0
6581,E3,2670.7,0.25,79,98.0
6582,G#2,2670.95,0.25,63,98.0
6583,F#2,2671.2,0.25,95,98.0
6584,C#2,2671.2,0.25,95,98.0
6585,G#2,2671.45,0.25,95,98.0
6586,C2,2671.45,0.25,95,98.0
6587,F#2,2671.7,0.25,95,98.0
6588,G#2,2671.95,0.25,95,98.0
6589,C#2,2671.95,0.25,95,98.0
6590,F#2,2672.2,0.25,95,98.0
6591,G#2,2672.45,0.25,95,98.0
6592,C2,2672.45,0.25,95,98.0
6593,F#2,2672.7,0.25,95,98.0
6594,G#2,2672.95,3/20,95,98.0
6595,C#2,2672.95,3/20,95,98.0
6596,G#2,2673.1,1/10,95,98.0
6597,C#2,2673.1,1/10,95,98.0
6598,F#2,2673.2,0.25,95,98.0
6599,C2,2673.2,0.25,95,98.0
6600,G#2,2673.45,0.25,95,98.0
6601,F#2,2673.7,0.25,95,98.0
6602,G#2,2673.95,0.25,63,98.0
6603,F#2,2674.2,0.25,74,98.0
6604,A2,2674.2,0.25,74,98.0
6605,E2,2674.2,0.25,74,98.0
6606,G#2,2674.45,0.25,47,98.0
6607,F#2,2674.7,0.25,71,98.0
6608,C2,2674.7,0.25,71,98.0
6609,G#2,2674.95,0.25,63,98.0
6610,F#2,2675.2,0.25,95,98.0
6611,C#2,2675.2,0.25,95,98.0
6612,G#2,2675.45,0.25,95,98.0
6613,C2,2675.45,0.25,95,98.0
6614,F#2,2675.7,0.25,95,98.0
6615,G#2,2675.95,0.25,84,98.0
6616,C#2,2675.95,0.25,84,98.0
6617,B5,2675.95,0.25,84,98.0
6618,F#2,2676.2,0.25,95,98.0
6619,G#2,2676.45,0.25,95,98.0
6620,C2,2676.45,0.25,95,98.0
6621,F#2,2676.7,0.25,95,98.0
6622,G#2,2676.95,3/20,95,98.0
6623,C#2,2676.95,3/20,95,98.0
6624,G#2,2677.1,1/10,95,98.0
6625,C#2,2677.1,1/10,95,98.0
6626,B-2,2677.2,0.75,95,98.0
6627,F#2,2677.2,0.25,95,98.0
6628,F#3,2677.2,0.25,95,98.0
6629,G#2,2677.45,0.25,95,98.0
6630,F#2,2677.7,0.25,95,98.0
6631,G#2,2677.95,0.25,79,98.0
6632,G2,2677.95,0.25,79,98.0
6633,F#2,2678.2,0.25,79,98.0
6634,D2,2678.2,0.25,79,98.0
6635,G#2,2678.45,0.25,47,98.0
6636,F#2,2678.7,0.25,79,98.0
6637,C2,2678.7,0.25,79,98.0
6638,E3,2678.7,0.25,79,98.0
6639,G#2,2678.95,0.25,63,98.0
6640,F#2,2679.2,0.25,95,98.0
6641,C#2,2679.2,0.25,95,98.0
6642,G#2,2679.45,0.25,95,98.0
6643,C2,2679.45,0.25,95,98.0
6644,F#2,2679.7,0.25,95,98.0
6645,G#2,2679.95,0.25,95,98.0
6646,C#2,2679.95,0.25,95,98.0
6647,F#2,2680.2,0.25,95,98.0
6648,G#2,2680.45,0.25,95,98.0
6649,C2,2680.45,0.25,95,98.0
6650,F#2,2680.7,0.25,95,98.0
6651,G#2,2680.95,3/20,95,98.0
6652,C#2,2680.95,3/20,95,98.0
6653,G#2,2681.1,1/10,95,98.0
6654,C#2,2681.1,1/10,95,98.0
6655,F#2,2681.2,0.25,95,98.0
6656,C2,2681.2,0.25,95,98.0
6657,G#2,2681.45,0.25,95,98.0
6658,F#2,2681.7,0.25,95,98.0
6659,G#2,2681.95,0.25,63,98.0
6660,F#2,2682.2,0.25,74,98.0
6661,A2,2682.2,0.25,74,98.0
6662,E2,2682.2,0.25,74,98.0
6663,G#2,2682.45,0.25,47,98.0
6664,F#2,2682.7,0.25,71,98.0
6665,C2,2682.7,0.25,71,98.0
6666,G#2,2682.95,0.25,63,98.0
6667,F#2,2683.2,0.25,95,98.0
6668,C#2,2683.2,0.25,95,98.0
6669,G#2,2683.45,0.25,95,98.0
6670,C2,2683.45,0.25,95,98.0
6671,F#2,2683.7,0.25,95,98.0
6672,G#2,2683.95,0.25,84,98.0
6673,C#2,2683.95,0.25,84,98.0
6674,B5,2683.95,0.25,84,98.0
6675,F#2,2684.2,0.25,95,98.0
6676,G#2,2684.45,0.25,95,98.0
6677,C2,2684.45,0.25,95,98.0
6678,F#2,2684.7,0.25,95,98.0
6679,G#2,2684.95,3/20,95,98.0
6680,C#2,2684.95,3/20,95,98.0
6681,G#2,2685.1,1/10,95,98.0
6682,C#2,2685.1,1/10,95,98.0
6683,B-2,2685.2,0.75,95,98.0
6684,F#2,2685.2,0.25,95,98.0
6685,F#3,2685.2,0.25,95,98.0
6686,G#2,2685.45,0.25,95,98.0
6687,F#2,2685.7,0.25,95,98.0
6688,G#2,2685.95,0.25,79,98.0
6689,G2,2685.95,0.25,79,98.0
6690,F#2,2686.2,0.25,79,98.0
6691,D2,2686.2,0.25,79,98.0
6692,G#2,2686.45,0.25,47,98.0
6693,F#2,2686.7,0.25,79,98.0
6694,C2,2686.7,0.25,79,98.0
6695,E3,2686.7,0.25,79,98.0
6696,G#2,2686.95,0.25,63,98.0
6697,F#2,2687.2,0.25,95,98.0
6698,C#2,2687.2,0.25,95,98.0
6699,G#2,2687.45,0.25,95,98.0
6700,C2,2687.45,0.25,95,98.0
6701,F#2,2687.7,0.25,95,98.0
6702,G#2,2687.95,0.25,95,98.0
6703,C#2,2687.95,0.25,95,98.0
6704,F#2,2688.2,0.25,95,98.0
6705,G#2,2688.45,0.25,95,98.0
6706,C2,2688.45,0.25,95,98.0
6707,F#2,2688.7,0.25,95,98.0
6708,G#2,2688.95,3/20,95,98.0
6709,C#2,2688.95,3/20,95,98.0
6710,G#2,2689.1,1/10,95,98.0
6711,C#2,2689.1,1/10,95,98.0
6712,F#2,2689.2,0.25,95,98.0
6713,C2,2689.2,0.25,95,98.0
6714,G#2,2689.45,0.25,95,98.0
6715,F#2,2689.7,0.25,95,98.0
6716,G#2,2689.95,0.25,63,98.0
6717,F#2,2690.2,0.25,74,98.0
6718,A2,2690.2,0.25,74,98.0
6719,E2,2690.2,0.25,74,98.0
6720,G#2,2690.45,0.25,47,98.0
6721,F#2,2690.7,0.25,71,98.0
6722,C2,2690.7,0.25,71,98.0
6723,G#2,2690.95,0.25,63,98.0
6724,F#2,2691.2,0.25,95,98.0
6725,C#2,2691.2,0.25,95,98.0
6726,G#2,2691.45,0.25,95,98.0
6727,C2,2691.45,0.25,95,98.0
6728,F#2,2691.7,0.25,95,98.0
6729,G#2,2691.95,0.25,84,98.0
6730,C#2,2691.95,0.25,84,98.0
6731,B5,2691.95,0.25,84,98.0
6732,F#2,2692.2,0.25,95,98.0
6733,G#2,2692.45,0.25,95,98.0
6734,C2,2692.45,0.25,95,98.0
6735,F#2,2692.7,0.25,95,98.0
6736,G#2,2692.95,3/20,95,98.0
6737,C#2,2692.95,3/20,95,98.0
6738,G#2,2693.1,1/10,95,98.0
6739,C#2,2693.1,1/10,95,98.0
6740,B-2,2693.2,0.75,95,98.0
6741,F#2,2693.2,0.25,95,98.0
6742,F#3,2693.2,0.25,95,98.0
6743,G#2,2693.45,0.25,95,98.0
6744,F#2,2693.7,0.25,95,98.0
6745,G#2,2693.95,0.25,79,98.0
6746,G2,2693.95,0.25,79,98.0
6747,F#2,2694.2,0.25,79,98.0
6748,D2,2694.2,0.25,79,98.0
6749,G#2,2694.45,0.25,47,98.0
6750,F#2,2694.7,0.25,79,98.0
6751,C2,2694.7,0.25,79,98.0
6752,E3,2694.7,0.25,79,98.0
6753,G#2,2694.95,0.25,63,98.0
6754,F#2,2695.2,0.25,95,98.0
6755,C#2,2695.2,0.25,95,98.0
6756,G#2,2695.45,0.25,95,98.0
6757,C2,2695.45,0.25,95,98.0
6758,F#2,2695.7,0.25,95,98.0
6759,G#2,2695.95,0.25,95,98.0
6760,C#2,2695.95,0.25,95,98.0
6761,F#2,2696.2,0.25,95,98.0
6762,G#2,2696.45,0.25,95,98.0
6763,C2,2696.45,0.25,95,98.0
6764,F#2,2696.7,0.25,95,98.0
6765,G#2,2696.95,3/20,95,98.0
6766,C#2,2696.95,3/20,95,98.0
6767,G#2,2697.1,1/10,95,98.0
6768,C#2,2697.1,1/10,95,98.0
6769,F#2,2697.2,0.25,95,98.0
6770,C2,2697.2,0.25,95,98.0
6771,G#2,2697.45,0.25,95,98.0
6772,F#2,2697.7,0.25,95,98.0
6773,G#2,2697.95,0.25,63,98.0
6774,F#2,2698.2,0.25,74,98.0
6775,A2,2698.2,0.25,74,98.0
6776,E2,2698.2,0.25,74,98.0
6777,G#2,2698.45,0.25,47,98.0
6778,F#2,2698.7,0.25,71,98.0
6779,C2,2698.7,0.25,71,98.0
6780,G#2,2698.95,0.25,63,98.0
6781,F#2,2699.2,0.25,95,98.0
6782,C#2,2699.2,0.25,95,98.0
6783,G#2,2699.45,0.25,95,98.0
6784,C2,2699.45,0.25,95,98.0
6785,F#2,2699.7,0.25,95,98.0
6786,G#2,2699.95,0.25,84,98.0
6787,C#2,2699.95,0.25,84,98.0
6788,B5,2699.95,0.25,84,98.0
6789,F#2,2700.2,0.25,95,98.0
6790,G#2,2700.45,0.25,95,98.0
6791,C2,2700.45,0.25,95,98.0
6792,F#2,2700.7,0.25,95,98.0
6793,G#2,2700.95,3/20,95,98.0
6794,C#2,2700.95,3/20,95,98.0
6795,G#2,2701.1,1/10,95,98.0
6796,C#2,2701.1,1/10,95,98.0
6797,F#2,2701.2,0.25,95,98.0
6798,B-2,2701.2,0.25,95,98.0
6799,F#3,2701.2,0.25,95,98.0
6800,G#2,2701.45,0.25,95,98.0
6801,F#2,2701.7,0.25,90,98.0
6802,E2,2701.7,0.25,90,98.0
6803,C3,2701.7,0.25,90,98.0
6804,G#2,2701.95,0.25,84,98.0
6805,G2,2701.95,0.25,84,98.0
6806,B2,2701.95,0.25,84,98.0
6807,F#2,2702.2,0.25,74,98.0
6808,D2,2702.2,0.25,74,98.0
6809,A2,2702.2,0.25,74,98.0
6810,G#2,2702.45,0.25,71,98.0
6811,B2,2702.45,0.25,71,98.0
6812,F#2,2702.7,0.25,95,98.0
6813,C2,2702.7,0.25,95,98.0
6814,C#3,2702.7,0.25,95,98.0
6815,G#2,2702.95,0.25,63,98.0
6816,F#2,2703.2,0.25,95,98.0
6817,C#2,2703.2,0.25,95,98.0
6818,G#2,2703.45,0.25,95,98.0
6819,F#2,2703.7,0.25,95,98.0
6820,E2,2703.7,0.25,95,98.0
6821,G#2,2703.95,0.25,95,98.0
6822,F#2,2704.2,0.25,95,98.0
6823,G#2,2704.45,0.25,79,98.0
6824,C2,2704.45,0.25,79,98.0
6825,F#2,2704.7,0.25,95,98.0
6826,G#2,2704.95,3/20,79,98.0
6827,C2,2704.95,3/20,79,98.0
6828,G#2,2705.1,1/10,79,98.0
6829,C2,2705.1,1/10,79,98.0
6830,F#2,2705.2,0.25,95,98.0
6831,G#2,2705.45,0.25,79,98.0
6832,C2,2705.45,0.25,79,98.0
6833,F#2,2705.7,0.25,95,98.0
6834,E2,2705.7,0.25,95,98.0
6835,G#2,2705.95,0.25,63,98.0
6836,F#2,2706.2,0.25,79,98.0
6837,C2,2706.2,0.25,79,98.0
6838,G#2,2706.45,0.25,47,98.0
6839,F#2,2706.7,0.25,95,98.0
6840,G#2,2706.95,0.25,63,98.0
6841,F#2,2707.2,0.25,95,98.0
6842,C#2,2707.2,0.25,95,98.0
6843,G#2,2707.45,0.25,95,98.0
6844,F#2,2707.7,0.25,95,98.0
6845,E2,2707.7,0.25,95,98.0
6846,G#2,2707.95,0.25,95,98.0
6847,F#2,2708.2,0.25,95,98.0
6848,G#2,2708.45,0.25,79,98.0
6849,C2,2708.45,0.25,79,98.0
6850,F#2,2708.7,0.25,95,98.0
6851,G#2,2708.95,3/20,79,98.0
6852,C2,2708.95,3/20,79,98.0
6853,G#2,2709.1,1/10,79,98.0
6854,C2,2709.1,1/10,79,98.0
6855,F#2,2709.2,0.25,95,98.0
6856,G#2,2709.45,0.25,79,98.0
6857,C2,2709.45,0.25,79,98.0
6858,F#2,2709.7,0.25,95,98.0
6859,E2,2709.7,0.25,95,98.0
6860,G#2,2709.95,0.25,63,98.0
6861,F#2,2710.2,0.25,95,98.0
6862,G#2,2710.45,0.25,47,98.0
6863,F#2,2710.7,0.25,95,98.0
6864,C2,2710.7,0.25,95,98.0
6865,C#3,2710.7,0.25,95,98.0
6866,G#2,2710.95,0.25,63,98.0
6867,F#2,2711.2,0.25,95,98.0
6868,C#2,2711.2,0.25,95,98.0
6869,G#2,2711.45,0.25,95,98.0
6870,F#2,2711.7,0.25,95,98.0
6871,E2,2711.7,0.25,95,98.0
6872,G#2,2711.95,0.25,95,98.0
6873,C2,2711.95,0.25,95,98.0
6874,F#2,2712.2,0.25,95,98.0
6875,G#2,2712.45,0.25,95,98.0
6876,C2,2712.45,0.25,95,98.0
6877,F#2,2712.7,0.25,95,98.0
6878,G#2,2712.95,3/20,95,98.0
6879,G#2,2713.1,1/10,95,98.0
6880,F#2,2713.2,0.25,95,98.0
6881,G#2,2713.45,0.25,79,98.0
6882,C2,2713.45,0.25,79,98.0
6883,F#2,2713.7,0.25,95,98.0
6884,E2,2713.7,0.25,95,98.0
6885,G#2,2713.95,0.25,63,98.0
6886,F#2,2714.2,0.25,95,98.0
6887,G#2,2714.45,0.25,47,98.0
6888,F#2,2714.7,0.25,95,98.0
6889,C2,2714.7,0.25,95,98.0
6890,C#3,2714.7,0.25,95,98.0
6891,G#2,2714.95,0.25,63,98.0
6892,F#2,2715.2,0.25,95,98.0
6893,C#2,2715.2,0.25,95,98.0
6894,G#2,2715.45,0.25,95,98.0
6895,F#2,2715.7,0.25,95,98.0
6896,E2,2715.7,0.25,95,98.0
6897,G#2,2715.95,0.25,95,98.0
6898,F#2,2716.2,0.25,95,98.0
6899,G#2,2716.45,0.25,79,98.0
6900,C2,2716.45,0.25,79,98.0
6901,F#2,2716.7,0.25,95,98.0
6902,G#2,2716.95,0.125,84,98.0
6903,C2,2716.95,0.125,84,98.0
6904,A2,2716.95,0.125,84,98.0
6905,A2,2717.075,1/40,95,98.0
6906,A2,2717.1,1/10,95,98.0
6907,F#2,2717.2,0.25,95,98.0
6908,B2,2717.2,0.25,95,98.0
6909,G#2,2717.45,0.25,84,98.0
6910,C2,2717.45,0.25,84,98.0
6911,A2,2717.45,0.25,84,98.0
6912,F#2,2717.7,0.25,95,98.0
6913,E2,2717.7,0.25,95,98.0
6914,C2,2717.7,0.25,95,98.0
6915,C#3,2717.7,0.25,95,98.0
6916,G#2,2717.95,0.25,63,98.0
6917,F#2,2718.2,0.25,95,98.0
6918,C2,2718.2,0.25,95,98.0
6919,C#3,2718.2,0.25,95,98.0
6920,G#2,2718.45,0.25,47,98.0
6921,F#2,2718.7,0.25,95,98.0
6922,C2,2718.7,0.25,95,98.0
6923,C#3,2718.7,0.25,95,98.0
6924,G#2,2718.95,0.25,63,98.0
6925,F#2,2719.2,0.25,95,98.0
6926,C#2,2719.2,0.25,95,98.0
6927,G#2,2719.45,0.25,95,98.0
6928,F#2,2719.7,0.25,95,98.0
6929,E2,2719.7,0.25,95,98.0
6930,G#2,2719.95,0.25,95,98.0
6931,F#2,2720.2,0.25,95,98.0
6932,G#2,2720.45,0.25,79,98.0
6933,C2,2720.45,0.25,79,98.0
6934,F#2,2720.7,0.25,95,98.0
6935,G#2,2720.95,3/20,79,98.0
6936,C2,2720.95,3/20,79,98.0
6937,G#2,2721.1,1/10,79,98.0
6938,C2,2721.1,1/10,79,98.0
6939,F#2,2721.2,0.25,95,98.0
6940,G#2,2721.45,0.25,79,98.0
6941,C2,2721.45,0.25,79,98.0
6942,F#2,2721.7,0.25,95,98.0
6943,E2,2721.7,0.25,95,98.0
6944,G#2,2721.95,0.25,63,98.0
6945,F#2,2722.2,0.25,79,98.0
6946,C2,2722.2,0.25,79,98.0
6947,G#2,2722.45,0.25,47,98.0
6948,F#2,2722.7,0.25,95,98.0
6949,G#2,2722.95,0.25,63,98.0
6950,F#2,2723.2,0.25,95,98.0
6951,C#2,2723.2,0.25,95,98.0
6952,G#2,2723.45,0.25,95,98.0
6953,F#2,2723.7,0.25,95,98.0
6954,E2,2723.7,0.25,95,98.0
6955,G#2,2723.95,0.25,95,98.0
6956,F#2,2724.2,0.25,95,98.0
6957,G#2,2724.45,0.25,79,98.0
6958,C2,2724.45,0.25,79,98.0
6959,F#2,2724.7,0.25,95,98.0
6960,G#2,2724.95,3/20,79,98.0
6961,C2,2724.95,3/20,79,98.0
6962,G#2,2725.1,1/10,79,98.0
6963,C2,2725.1,1/10,79,98.0
6964,F#2,2725.2,0.25,95,98.0
6965,G#2,2725.45,0.25,79,98.0
6966,C2,2725.45,0.25,79,98.0
6967,F#2,2725.7,0.25,95,98.0
6968,E2,2725.7,0.25,95,98.0
6969,G#2,2725.95,0.25,63,98.0
6970,F#2,2726.2,0.25,95,98.0
6971,G#2,2726.45,0.25,47,98.0
6972,F#2,2726.7,0.25,95,98.0
6973,C2,2726.7,0.25,95,98.0
6974,C#3,2726.7,0.25,95,98.0
6975,G#2,2726.95,0.25,63,98.0
6976,F#2,2727.2,0.25,95,98.0
6977,C#2,2727.2,0.25,95,98.0
6978,G#2,2727.45,0.25,95,98.0
6979,F#2,2727.7,0.25,95,98.0
6980,E2,2727.7,0.25,95,98.0
6981,G#2,2727.95,0.25,95,98.0
6982,C2,2727.95,0.25,95,98.0
6983,F#2,2728.2,0.25,95,98.0
6984,G#2,2728.45,0.25,95,98.0
6985,C2,2728.45,0.25,95,98.0
6986,F#2,2728.7,0.25,95,98.0
6987,G#2,2728.95,3/20,95,98.0
6988,G#2,2729.1,1/10,95,98.0
6989,F#2,2729.2,0.25,95,98.0
6990,G#2,2729.45,0.25,79,98.0
6991,C2,2729.45,0.25,79,98.0
6992,F#2,2729.7,0.25,95,98.0
6993,E2,2729.7,0.25,95,98.0
6994,G#2,2729.95,0.25,63,98.0
6995,F#2,2730.2,0.25,95,98.0
6996,G#2,2730.45,0.25,47,98.0
6997,F#2,2730.7,0.25,79,98.0
6998,C2,2730.7,0.25,79,98.0
6999,E3,2730.7,0.25,79,98.0
7000,G#2,2730.95,0.25,63,98.0
7001,F#2,2731.2,0.25,95,98.0
7002,C#2,2731.2,0.25,95,98.0
7003,G#2,2731.45,0.25,95,98.0
7004,C2,2731.45,0.25,95,98.0
7005,F#2,2731.7,0.25,95,98.0
7006,G#2,2731.95,0.25,95,98.0
7007,C#2,2731.95,0.25,95,98.0
7008,F#2,2732.2,0.25,95,98.0
7009,G#2,2732.45,0.25,95,98.0
7010,C2,2732.45,0.25,95,98.0
7011,F#2,2732.7,0.25,95,98.0
7012,G#2,2732.95,3/20,95,98.0
7013,C#2,2732.95,3/20,95,98.0
7014,G#2,2733.1,1/10,95,98.0
7015,C#2,2733.1,1/10,95,98.0
7016,F#2,2733.2,0.25,95,98.0
7017,C2,2733.2,0.25,95,98.0
7018,G#2,2733.45,0.25,95,98.0
7019,F#2,2733.7,0.25,95,98.0
7020,G#2,2733.95,0.25,63,98.0
7021,F#2,2734.2,0.25,74,98.0
7022,A2,2734.2,0.25,74,98.0
7023,E2,2734.2,0.25,74,98.0
7024,G#2,2734.45,0.25,47,98.0
7025,F#2,2734.7,0.25,71,98.0
7026,C2,2734.7,0.25,71,98.0
7027,G#2,2734.95,0.25,63,98.0
7028,F#2,2735.2,0.25,95,98.0
7029,C#2,2735.2,0.25,95,98.0
7030,G#2,2735.45,0.25,95,98.0
7031,C2,2735.45,0.25,95,98.0
7032,F#2,2735.7,0.25,95,98.0
7033,G#2,2735.95,0.25,84,98.0
7034,C#2,2735.95,0.25,84,98.0
7035,B5,2735.95,0.25,84,98.0
7036,F#2,2736.2,0.25,95,98.0
7037,G#2,2736.45,0.25,95,98.0
7038,C2,2736.45,0.25,95,98.0
7039,F#2,2736.7,0.25,95,98.0
7040,G#2,2736.95,3/20,95,98.0
7041,C#2,2736.95,3/20,95,98.0
7042,G#2,2737.1,1/10,95,98.0
7043,C#2,2737.1,1/10,95,98.0
7044,B-2,2737.2,0.75,95,98.0
7045,F#2,2737.2,0.25,95,98.0
7046,F#3,2737.2,0.25,95,98.0
7047,G#2,2737.45,0.25,95,98.0
7048,F#2,2737.7,0.25,95,98.0
7049,G#2,2737.95,0.25,79,98.0
7050,G2,2737.95,0.25,79,98.0
7051,F#2,2738.2,0.25,79,98.0
7052,D2,2738.2,0.25,79,98.0
7053,G#2,2738.45,0.25,47,98.0
7054,F#2,2738.7,0.25,79,98.0
7055,C2,2738.7,0.25,79,98.0
7056,E3,2738.7,0.25,79,98.0
7057,G#2,2738.95,0.25,63,98.0
7058,F#2,2739.2,0.25,95,98.0
7059,C#2,2739.2,0.25,95,98.0
7060,G#2,2739.45,0.25,95,98.0
7061,C2,2739.45,0.25,95,98.0
7062,F#2,2739.7,0.25,95,98.0
7063,G#2,2739.95,0.25,95,98.0
7064,C#2,2739.95,0.25,95,98.0
7065,F#2,2740.2,0.25,95,98.0
7066,G#2,2740.45,0.25,95,98.0
7067,C2,2740.45,0.25,95,98.0
7068,F#2,2740.7,0.25,95,98.0
7069,G#2,2740.95,3/20,95,98.0
7070,C#2,2740.95,3/20,95,98.0
7071,G#2,2741.1,1/10,95,98.0
7072,C#2,2741.1,1/10,95,98.0
7073,F#2,2741.2,0.25,95,98.0
7074,C2,2741.2,0.25,95,98.0
7075,G#2,2741.45,0.25,95,98.0
7076,F#2,2741.7,0.25,95,98.0
7077,G#2,2741.95,0.25,63,98.0
7078,F#2,2742.2,0.25,74,98.0
7079,A2,2742.2,0.25,74,98.0
7080,E2,2742.2,0.25,74,98.0
7081,G#2,2742.45,0.25,47,98.0
7082,F#2,2742.7,0.25,71,98.0
7083,C2,2742.7,0.25,71,98.0
7084,G#2,2742.95,0.25,63,98.0
7085,F#2,2743.2,0.25,95,98.0
7086,C#2,2743.2,0.25,95,98.0
7087,G#2,2743.45,0.25,95,98.0
7088,C2,2743.45,0.25,95,98.0
7089,F#2,2743.7,0.25,95,98.0
7090,G#2,2743.95,0.25,84,98.0
7091,C#2,2743.95,0.25,84,98.0
7092,B5,2743.95,0.25,84,98.0
7093,F#2,2744.2,0.25,95,98.0
7094,G#2,2744.45,0.25,95,98.0
7095,C2,2744.45,0.25,95,98.0
7096,F#2,2744.7,0.25,95,98.0
7097,G#2,2744.95,3/20,95,98.0
7098,C#2,2744.95,3/20,95,98.0
7099,G#2,2745.1,1/10,95,98.0
7100,C#2,2745.1,1/10,95,98.0
7101,B-2,2745.2,0.75,95,98.0
7102,F#2,2745.2,0.25,95,98.0
7103,F#3,2745.2,0.25,95,98.0
7104,G#2,2745.45,0.25,95,98.0
7105,F#2,2745.7,0.25,95,98.0
7106,G#2,2745.95,0.25,79,98.0
7107,G2,2745.95,0.25,79,98.0
7108,F#2,2746.2,0.25,79,98.0
7109,D2,2746.2,0.25,79,98.0
7110,G#2,2746.45,0.25,47,98.0
7111,F#2,2746.7,0.25,79,98.0
7112,C2,2746.7,0.25,79,98.0
7113,E3,2746.7,0.25,79,98.0
7114,G#2,2746.95,0.25,63,98.0
7115,F#2,2747.2,0.25,95,98.0
7116,C#2,2747.2,0.25,95,98.0
7117,G#2,2747.45,0.25,95,98.0
7118,C2,2747.45,0.25,95,98.0
7119,F#2,2747.7,0.25,95,98.0
7120,G#2,2747.95,0.25,95,98.0
7121,C#2,2747.95,0.25,95,98.0
7122,F#2,2748.2,0.25,95,98.0
7123,G#2,2748.45,0.25,95,98.0
7124,C2,2748.45,0.25,95,98.0
7125,F#2,2748.7,0.25,95,98.0
7126,G#2,2748.95,3/20,95,98.0
7127,C#2,2748.95,3/20,95,98.0
7128,G#2,2749.1,1/10,95,98.0
7129,C#2,2749.1,1/10,95,98.0
7130,F#2,2749.2,0.25,95,98.0
7131,C2,2749.2,0.25,95,98.0
7132,G#2,2749.45,0.25,95,98.0
7133,F#2,2749.7,0.25,95,98.0
7134,G#2,2749.95,0.25,63,98.0
7135,F#2,2750.2,0.25,74,98.0
7136,A2,2750.2,0.25,74,98.0
7137,E2,2750.2,0.25,74,98.0
7138,G#2,2750.45,0.25,47,98.0
7139,F#2,2750.7,0.25,71,98.0
7140,C2,2750.7,0.25,71,98.0
7141,G#2,2750.95,0.25,63,98.0
7142,F#2,2751.2,0.25,95,98.0
7143,C#2,2751.2,0.25,95,98.0
7144,G#2,2751.45,0.25,95,98.0
7145,C2,2751.45,0.25,95,98.0
7146,F#2,2751.7,0.25,95,98.0
7147,G#2,2751.95,0.25,84,98.0
7148,C#2,2751.95,0.25,84,98.0
7149,B5,2751.95,0.25,84,98.0
7150,F#2,2752.2,0.25,95,98.0
7151,G#2,2752.45,0.25,95,98.0
7152,C2,2752.45,0.25,95,98.0
7153,F#2,2752.7,0.25,95,98.0
7154,G#2,2752.95,3/20,95,98.0
7155,C#2,2752.95,3/20,95,98.0
7156,G#2,2753.1,1/10,95,98.0
7157,C#2,2753.1,1/10,95,98.0
7158,B-2,2753.2,0.75,95,98.0
7159,F#2,2753.2,0.25,95,98.0
7160,F#3,2753.2,0.25,95,98.0
7161,G#2,2753.45,0.25,95,98.0
7162,F#2,2753.7,0.25,95,98.0
7163,G#2,2753.95,0.25,79,98.0
7164,G2,2753.95,0.25,79,98.0
7165,F#2,2754.2,0.25,79,98.0
7166,D2,2754.2,0.25,79,98.0
7167,G#2,2754.45,0.25,47,98.0
7168,F#2,2754.7,0.25,79,98.0
7169,C2,2754.7,0.25,79,98.0
7170,E3,2754.7,0.25,79,98.0
7171,G#2,2754.95,0.25,63,98.0
7172,F#2,2755.2,0.25,95,98.0
7173,C#2,2755.2,0.25,95,98.0
7174,G#2,2755.45,0.25,95,98.0
7175,C2,2755.45,0.25,95,98.0
7176,F#2,2755.7,0.25,95,98.0
7177,G#2,2755.95,0.25,95,98.0
7178,C#2,2755.95,0.25,95,98.0
7179,F#2,2756.2,0.25,95,98.0
7180,G#2,2756.45,0.25,95,98.0
7181,C2,2756.45,0.25,95,98.0
7182,F#2,2756.7,0.25,95,98.0
7183,G#2,2756.95,3/20,95,98.0
7184,C#2,2756.95,3/20,95,98.0
7185,G#2,2757.1,1/10,95,98.0
7186,C#2,2757.1,1/10,95,98.0
7187,F#2,2757.2,0.25,95,98.0
7188,C2,2757.2,0.25,95,98.0
7189,G#2,2757.45,0.25,95,98.0
7190,F#2,2757.7,0.25,95,98.0
7191,G#2,2757.95,0.25,63,98.0
7192,F#2,2758.2,0.25,74,98.0
7193,A2,2758.2,0.25,74,98.0
7194,E2,2758.2,0.25,74,98.0
7195,G#2,2758.45,0.25,47,98.0
7196,F#2,2758.7,0.25,71,98.0
7197,C2,2758.7,0.25,71,98.0
7198,G#2,2758.95,0.25,63,98.0
7199,F#2,2759.2,0.25,95,98.0
7200,C#2,2759.2,0.25,95,98.0
7201,G#2,2759.45,0.25,95,98.0
7202,C2,2759.45,0.25,95,98.0
7203,F#2,2759.7,0.25,95,98.0
7204,G#2,2759.95,0.25,84,98.0
7205,C#2,2759.95,0.25,84,98.0
7206,B5,2759.95,0.25,84,98.0
7207,F#2,2760.2,0.25,95,98.0
7208,G#2,2760.45,0.25,95,98.0
7209,C2,2760.45,0.25,95,98.0
7210,F#2,2760.7,0.25,95,98.0
7211,G#2,2760.95,3/20,95,98.0
7212,C#2,2760.95,3/20,95,98.0
7213,G#2,2761.1,1/10,95,98.0
7214,C#2,2761.1,1/10,95,98.0
7215,F#2,2761.2,0.25,95,98.0
7216,B-2,2761.2,0.25,95,98.0
7217,F#3,2761.2,0.25,95,98.0
7218,G#2,2761.45,0.25,95,98.0
7219,F#2,2761.7,0.25,90,98.0
7220,E2,2761.7,0.25,90,98.0
7221,C3,2761.7,0.25,90,98.0
7222,G#2,2761.95,0.25,84,98.0
7223,G2,2761.95,0.25,84,98.0
7224,B2,2761.95,0.25,84,98.0
7225,F#2,2762.2,0.25,74,98.0
7226,D2,2762.2,0.25,74,98.0
7227,A2,2762.2,0.25,74,98.0
7228,G#2,2762.45,0.25,71,98.0
7229,B2,2762.45,0.25,71,98.0
7230,F#2,2762.7,0.25,79,98.0
7231,C2,2762.7,0.25,79,98.0
7232,E3,2762.7,0.25,79,98.0
7233,G#2,2762.95,0.25,63,98.0
7234,F#2,2763.2,0.25,95,98.0
7235,C#2,2763.2,0.25,95,98.0
7236,G#2,2763.45,0.25,95,98.0
7237,C2,2763.45,0.25,95,98.0
7238,F#2,2763.7,0.25,95,98.0
7239,G#2,2763.95,0.25,95,98.0
7240,C#2,2763.95,0.25,95,98.0
7241,F#2,2764.2,0.25,95,98.0
7242,G#2,2764.45,0.25,95,98.0
7243,C2,2764.45,0.25,95,98.0
7244,F#2,2764.7,0.25,95,98.0
7245,G#2,2764.95,3/20,95,98.0
7246,C#2,2764.95,3/20,95,98.0
7247,G#2,2765.1,1/10,95,98.0
7248,C#2,2765.1,1/10,95,98.0
7249,F#2,2765.2,0.25,95,98.0
7250,C2,2765.2,0.25,95,98.0
7251,G#2,2765.45,0.25,95,98.0
7252,F#2,2765.7,0.25,95,98.0
7253,G#2,2765.95,0.25,63,98.0
7254,F#2,2766.2,0.25,74,98.0
7255,A2,2766.2,0.25,74,98.0
7256,E2,2766.2,0.25,74,98.0
7257,G#2,2766.45,0.25,47,98.0
7258,F#2,2766.7,0.25,71,98.0
7259,C2,2766.7,0.25,71,98.0
7260,G#2,2766.95,0.25,63,98.0
7261,F#2,2767.2,0.25,95,98.0
7262,C#2,2767.2,0.25,95,98.0
7263,G#2,2767.45,0.25,95,98.0
7264,C2,2767.45,0.25,95,98.0
7265,F#2,2767.7,0.25,95,98.0
7266,G#2,2767.95,0.25,84,98.0
7267,C#2,2767.95,0.25,84,98.0
7268,B5,2767.95,0.25,84,98.0
7269,F#2,2768.2,0.25,95,98.0
7270,G#2,2768.45,0.25,95,98.0
7271,C2,2768.45,0.25,95,98.0
7272,F#2,2768.7,0.25,95,98.0
7273,G#2,2768.95,3/20,95,98.0
7274,C#2,2768.95,3/20,95,98.0
7275,G#2,2769.1,1/10,95,98.0
7276,C#2,2769.1,1/10,95,98.0
7277,B-2,2769.2,0.75,95,98.0
7278,F#2,2769.2,0.25,95,98.0
7279,F#3,2769.2,0.25,95,98.0
7280,G#2,2769.45,0.25,95,98.0
7281,F#2,2769.7,0.25,95,98.0
7282,G#2,2769.95,0.25,79,98.0
7283,G2,2769.95,0.25,79,98.0
7284,F#2,2770.2,0.25,79,98.0
7285,D2,2770.2,0.25,79,98.0
7286,G#2,2770.45,0.25,47,98.0
7287,F#2,2770.7,0.25,79,98.0
7288,C2,2770.7,0.25,79,98.0
7289,E3,2770.7,0.25,79,98.0
7290,G#2,2770.95,0.25,63,98.0
7291,F#2,2771.2,0.25,95,98.0
7292,C#2,2771.2,0.25,95,98.0
7293,G#2,2771.45,0.25,95,98.0
7294,C2,2771.45,0.25,95,98.0
7295,F#2,2771.7,0.25,95,98.0
7296,G#2,2771.95,0.25,95,98.0
7297,C#2,2771.95,0.25,95,98.0
7298,F#2,2772.2,0.25,95,98.0
7299,G#2,2772.45,0.25,95,98.0
7300,C2,2772.45,0.25,95,98.0
7301,F#2,2772.7,0.25,95,98.0
7302,G#2,2772.95,3/20,95,98.0
7303,C#2,2772.95,3/20,95,98.0
7304,G#2,2773.1,1/10,95,98.0
7305,C#2,2773.1,1/10,95,98.0
7306,F#2,2773.2,0.25,95,98.0
7307,C2,2773.2,0.25,95,98.0
7308,G#2,2773.45,0.25,95,98.0
7309,F#2,2773.7,0.25,95,98.0
7310,G#2,2773.95,0.25,63,98.0
7311,F#2,2774.2,0.25,74,98.0
7312,A2,2774.2,0.25,74,98.0
7313,E2,2774.2,0.25,74,98.0
7314,G#2,2774.45,0.25,47,98.0
7315,F#2,2774.7,0.25,71,98.0
7316,C2,2774.7,0.25,71,98.0
7317,G#2,2774.95,0.25,63,98.0
7318,F#2,2775.2,0.25,95,98.0
7319,C#2,2775.2,0.25,95,98.0
7320,G#2,2775.45,0.25,95,98.0
7321,C2,2775.45,0.25,95,98.0
7322,F#2,2775.7,0.25,95,98.0
7323,G#2,2775.95,0.25,84,98.0
7324,C#2,2775.95,0.25,84,98.0
7325,B5,2775.95,0.25,84,98.0
7326,F#2,2776.2,0.25,95,98.0
7327,G#2,2776.45,0.25,95,98.0
7328,C2,2776.45,0.25,95,98.0
7329,F#2,2776.7,0.25,95,98.0
7330,G#2,2776.95,3/20,95,98.0
7331,C#2,2776.95,3/20,95,98.0
7332,G#2,2777.1,1/10,95,98.0
7333,C#2,2777.1,1/10,95,98.0
7334,B-2,2777.2,0.75,95,98.0
7335,F#2,2777.2,0.25,95,98.0
7336,F#3,2777.2,0.25,95,98.0
7337,G#2,2777.45,0.25,95,98.0
7338,F#2,2777.7,0.25,95,98.0
7339,G#2,2777.95,0.25,79,98.0
7340,G2,2777.95,0.25,79,98.0
7341,F#2,2778.2,0.25,79,98.0
7342,D2,2778.2,0.25,79,98.0
7343,G#2,2778.45,0.25,47,98.0
7344,F#2,2778.7,0.25,79,98.0
7345,C2,2778.7,0.25,79,98.0
7346,E3,2778.7,0.25,79,98.0
7347,G#2,2778.95,0.25,63,98.0
7348,F#2,2779.2,0.25,95,98.0
7349,C#2,2779.2,0.25,95,98.0
7350,G#2,2779.45,0.25,95,98.0
7351,C2,2779.45,0.25,95,98.0
7352,F#2,2779.7,0.25,95,98.0
7353,G#2,2779.95,0.25,95,98.0
7354,C#2,2779.95,0.25,95,98.0
7355,F#2,2780.2,0.25,95,98.0
7356,G#2,2780.45,0.25,95,98.0
7357,C2,2780.45,0.25,95,98.0
7358,F#2,2780.7,0.25,95,98.0
7359,G#2,2780.95,3/20,95,98.0
7360,C#2,2780.95,3/20,95,98.0
7361,G#2,2781.1,1/10,95,98.0
7362,C#2,2781.1,1/10,95,98.0
7363,F#2,2781.2,0.25,95,98.0
7364,C2,2781.2,0.25,95,98.0
7365,G#2,2781.45,0.25,95,98.0
7366,F#2,2781.7,0.25,95,98.0
7367,G#2,2781.95,0.25,63,98.0
7368,F#2,2782.2,0.25,74,98.0
7369,A2,2782.2,0.25,74,98.0
7370,E2,2782.2,0.25,74,98.0
7371,G#2,2782.45,0.25,47,98.0
7372,F#2,2782.7,0.25,71,98.0
7373,C2,2782.7,0.25,71,98.0
7374,G#2,2782.95,0.25,63,98.0
7375,F#2,2783.2,0.25,95,98.0
7376,C#2,2783.2,0.25,95,98.0
7377,G#2,2783.45,0.25,95,98.0
7378,C2,2783.45,0.25,95,98.0
7379,F#2,2783.7,0.25,95,98.0
7380,G#2,2783.95,0.25,84,98.0
7381,C#2,2783.95,0.25,84,98.0
7382,B5,2783.95,0.25,84,98.0
7383,F#2,2784.2,0.25,95,98.0
7384,G#2,2784.45,0.25,95,98.0
7385,C2,2784.45,0.25,95,98.0
7386,F#2,2784.7,0.25,95,98.0
7387,G#2,2784.95,3/20,95,98.0
7388,C#2,2784.95,3/20,95,98.0
7389,G#2,2785.1,1/10,95,98.0
7390,C#2,2785.1,1/10,95,98.0
7391,B-2,2785.2,0.75,95,98.0
7392,F#2,2785.2,0.25,95,98.0
7393,F#3,2785.2,0.25,95,98.0
7394,G#2,2785.45,0.25,95,98.0
7395,F#2,2785.7,0.25,95,98.0
7396,G#2,2785.95,0.25,79,98.0
7397,G2,2785.95,0.25,79,98.0
7398,F#2,2786.2,0.25,79,98.0
7399,D2,2786.2,0.25,79,98.0
7400,G#2,2786.45,0.25,47,98.0
7401,F#2,2786.7,0.25,79,98.0
7402,C2,2786.7,0.25,79,98.0
7403,E3,2786.7,0.25,79,98.0
7404,G#2,2786.95,0.25,63,98.0
7405,F#2,2787.2,0.25,95,98.0
7406,C#2,2787.2,0.25,95,98.0
7407,G#2,2787.45,0.25,95,98.0
7408,C2,2787.45,0.25,95,98.0
7409,F#2,2787.7,0.25,95,98.0
7410,G#2,2787.95,0.25,95,98.0
7411,C#2,2787.95,0.25,95,98.0
7412,F#2,2788.2,0.25,95,98.0
7413,G#2,2788.45,0.25,95,98.0
7414,C2,2788.45,0.25,95,98.0
7415,F#2,2788.7,0.25,95,98.0
7416,G#2,2788.95,3/20,95,98.0
7417,C#2,2788.95,3/20,95,98.0
7418,G#2,2789.1,1/10,95,98.0
7419,C#2,2789.1,1/10,95,98.0
7420,F#2,2789.2,0.25,95,98.0
7421,C2,2789.2,0.25,95,98.0
7422,G#2,2789.45,0.25,95,98.0
7423,F#2,2789.7,0.25,95,98.0
7424,G#2,2789.95,0.25,63,98.0
7425,F#2,2790.2,0.25,74,98.0
7426,A2,2790.2,0.25,74,98.0
7427,E2,2790.2,0.25,74,98.0
7428,G#2,2790.45,0.25,47,98.0
7429,F#2,2790.7,0.25,71,98.0
7430,C2,2790.7,0.25,71,98.0
7431,G#2,2790.95,0.25,63,98.0
7432,F#2,2791.2,0.25,95,98.0
7433,C#2,2791.2,0.25,95,98.0
7434,G#2,2791.45,0.25,95,98.0
7435,C2,2791.45,0.25,95,98.0
7436,F#2,2791.7,0.25,95,98.0
7437,G#2,2791.95,0.25,84,98.0
7438,C#2,2791.95,0.25,84,98.0
7439,B5,2791.95,0.25,84,98.0
7440,F#2,2792.2,0.25,95,98.0
7441,G#2,2792.45,0.25,95,98.0
7442,C2,2792.45,0.25,95,98.0
7443,F#2,2792.7,0.25,95,98.0
7444,G#2,2792.95,3/20,95,98.0
7445,C#2,2792.95,3/20,95,98.0
7446,G#2,2793.1,1/10,95,98.0
7447,C#2,2793.1,1/10,95,98.0
7448,F#2,2793.2,0.25,95,98.0
7449,B-2,2793.2,0.25,95,98.0
7450,F#3,2793.2,0.25,95,98.0
7451,G#2,2793.45,0.25,95,98.0
7452,F#2,2793.7,0.25,90,98.0
7453,E2,2793.7,0.25,90,98.0
7454,C3,2793.7,0.25,90,98.0
7455,G#2,2793.95,0.25,84,98.0
7456,G2,2793.95,0.25,84,98.0
7457,B2,2793.95,0.25,84,98.0
7458,F#2,2794.2,0.25,74,98.0
7459,D2,2794.2,0.25,74,98.0
7460,A2,2794.2,0.25,74,98.0
7461,G#2,2794.45,0.25,71,98.0
7462,B2,2794.45,0.25,71,98.0
7463,F#2,2794.7,0.25,79,98.0
7464,C2,2794.7,0.25,79,98.0
7465,E3,2794.7,0.25,79,98.0
7466,G#2,2794.95,0.25,63,98.0
7467,F#2,2795.2,0.25,95,98.0
7468,C#2,2795.2,0.25,95,98.0
7469,G#2,2795.45,0.25,95,98.0
7470,C2,2795.45,0.25,95,98.0
7471,F#2,2795.7,0.25,95,98.0
7472,G#2,2795.95,0.25,95,98.0
7473,C#2,2795.95,0.25,95,98.0
7474,F#2,2796.2,0.25,95,98.0
7475,G#2,2796.45,0.25,95,98.0
7476,C2,2796.45,0.25,95,98.0
7477,F#2,2796.7,0.25,95,98.0
7478,G#2,2796.95,3/20,95,98.0
7479,C#2,2796.95,3/20,95,98.0
7480,G#2,2797.1,1/10,95,98.0
7481,C#2,2797.1,1/10,95,98.0
7482,F#2,2797.2,0.25,95,98.0
7483,C2,2797.2,0.25,95,98.0
7484,G#2,2797.45,0.25,95,98.0
7485,F#2,2797.7,0.25,95,98.0
7486,G#2,2797.95,0.25,63,98.0
7487,F#2,2798.2,0.25,74,98.0
7488,A2,2798.2,0.25,74,98.0
7489,E2,2798.2,0.25,74,98.0
7490,G#2,2798.45,0.25,47,98.0
7491,F#2,2798.7,0.25,71,98.0
7492,C2,2798.7,0.25,71,98.0
7493,G#2,2798.95,0.25,63,98.0
7494,F#2,2799.2,0.25,95,98.0
7495,C#2,2799.2,0.25,95,98.0
7496,G#2,2799.45,0.25,95,98.0
7497,C2,2799.45,0.25,95,98.0
7498,F#2,2799.7,0.25,95,98.0
7499,G#2,2799.95,0.25,84,98.0
7500,C#2,2799.95,0.25,84,98.0
7501,B5,2799.95,0.25,84,98.0
7502,F#2,2800.2,0.25,95,98.0
7503,G#2,2800.45,0.25,95,98.0
7504,C2,2800.45,0.25,95,98.0
7505,F#2,2800.7,0.25,95,98.0
7506,G#2,2800.95,3/20,95,98.0
7507,C#2,2800.95,3/20,95,98.0
7508,G#2,2801.1,1/10,95,98.0
7509,C#2,2801.1,1/10,95,98.0
7510,B-2,2801.2,0.75,95,98.0
7511,F#2,2801.2,0.25,95,98.0
7512,F#3,2801.2,0.25,95,98.0
7513,G#2,2801.45,0.25,95,98.0
7514,F#2,2801.7,0.25,95,98.0
7515,G#2,2801.95,0.25,79,98.0
7516,G2,2801.95,0.25,79,98.0
7517,F#2,2802.2,0.25,79,98.0
7518,D2,2802.2,0.25,79,98.0
7519,G#2,2802.45,0.25,47,98.0
7520,F#2,2802.7,0.25,79,98.0
7521,C2,2802.7,0.25,79,98.0
7522,E3,2802.7,0.25,79,98.0
7523,G#2,2802.95,0.25,63,98.0
7524,F#2,2803.2,0.25,95,98.0
7525,C#2,2803.2,0.25,95,98.0
7526,G#2,2803.45,0.25,95,98.0
7527,C2,2803.45,0.25,95,98.0
7528,F#2,2803.7,0.25,95,98.0
7529,G#2,2803.95,0.25,95,98.0
7530,C#2,2803.95,0.25,95,98.0
7531,F#2,2804.2,0.25,95,98.0
7532,G#2,2804.45,0.25,95,98.0
7533,C2,2804.45,0.25,95,98.0
7534,F#2,2804.7,0.25,95,98.0
7535,G#2,2804.95,3/20,95,98.0
7536,C#2,2804.95,3/20,95,98.0
7537,G#2,2805.1,1/10,95,98.0
7538,C#2,2805.1,1/10,95,98.0
7539,F#2,2805.2,0.25,95,98.0
7540,C2,2805.2,0.25,95,98.0
7541,G#2,2805.45,0.25,95,98.0
7542,F#2,2805.7,0.25,95,98.0
7543,G#2,2805.95,0.25,63,98.0
7544,F#2,2806.2,0.25,74,98.0
7545,A2,2806.2,0.25,74,98.0
7546,E2,2806.2,0.25,74,98.0
7547,G#2,2806.45,0.25,47,98.0
7548,F#2,2806.7,0.25,71,98.0
7549,C2,2806.7,0.25,71,98.0
7550,G#2,2806.95,0.25,63,98.0
7551,F#2,2807.2,0.25,95,98.0
7552,G#2,2807.45,0.25,95,98.0
7553,A2,2807.45,0.25,95,98.0
7554,C2,2807.45,0.25,95,98.0
7555,F#2,2807.7,0.25,95,98.0
7556,G#2,2807.95,0.25,95,98.0
7557,B2,2807.95,0.25,95,98.0
7558,F#2,2808.2,0.25,95,98.0
7559,G#2,2808.45,0.25,95,98.0
7560,C2,2808.45,0.25,95,98.0
7561,F#2,2808.7,0.25,95,98.0
7562,E2,2808.7,0.25,95,98.0
7563,G#2,2808.95,3/20,95,98.0
7564,C2,2808.95,3/20,95,98.0
7565,C#3,2808.95,3/20,95,98.0
7566,G#2,2809.1,1/10,95,98.0
7567,C2,2809.1,1/10,95,98.0
7568,C#3,2809.1,1/10,95,98.0
7569,F#2,2809.2,0.25,95,98.0
7570,G#2,2809.45,0.25,95,98.0
7571,F#2,2809.7,0.25,84,98.0
7572,C3,2809.7,0.25,84,98.0
7573,E2,2809.7,0.25,84,98.0
7574,G#2,2809.95,0.25,63,98.0
7575,F#2,2810.2,0.25,84,98.0
7576,B2,2810.2,0.25,84,98.0
7577,E2,2810.2,0.25,84,98.0
7578,G#2,2810.45,0.25,84,98.0
7579,A2,2810.45,0.25,84,98.0
7580,E2,2810.45,0.25,84,98.0
7581,F#2,2810.7,0.25,79,98.0
7582,C2,2810.7,0.25,79,98.0
7583,C#3,2810.7,0.25,79,98.0
7584,G#2,2810.95,0.25,63,98.0
7585,F#2,2811.2,0.25,95,98.0
7586,C#2,2811.2,0.25,95,98.0
7587,G#2,2811.45,0.25,95,98.0
7588,C2,2811.45,0.25,95,98.0
7589,F#2,2811.7,0.25,95,98.0
7590,G#2,2811.95,0.25,95,98.0
7591,C#2,2811.95,0.25,95,98.0
7592,F#2,2812.2,0.25,95,98.0
7593,G#2,2812.45,0.25,95,98.0
7594,C2,2812.45,0.25,95,98.0
7595,F#2,2812.7,0.25,95,98.0
7596,G#2,2812.95,3/20,95,98.0
7597,C#2,2812.95,3/20,95,98.0
7598,G#2,2813.1,1/10,95,98.0
7599,C#2,2813.1,1/10,95,98.0
7600,F#2,2813.2,0.25,95,98.0
7601,C2,2813.2,0.25,95,98.0
7602,G#2,2813.45,0.25,95,98.0
7603,F#2,2813.7,0.25,95,98.0
7604,G#2,2813.95,0.25,63,98.0
7605,F#2,2814.2,0.25,74,98.0
7606,A2,2814.2,0.25,74,98.0
7607,E2,2814.2,0.25,74,98.0
7608,G#2,2814.45,0.25,47,98.0
7609,F#2,2814.7,0.25,71,98.0
7610,C2,2814.7,0.25,71,98.0
7611,G#2,2814.95,0.25,63,98.0
7612,F#2,2815.2,0.25,95,98.0
7613,C#2,2815.2,0.25,95,98.0
7614,G#2,2815.45,0.25,95,98.0
7615,C2,2815.45,0.25,95,98.0
7616,F#2,2815.7,0.25,95,98.0
7617,G#2,2815.95,0.25,84,98.0
7618,C#2,2815.95,0.25,84,98.0
7619,B5,2815.95,0.25,84,98.0
7620,F#2,2816.2,0.25,95,98.0
7621,G#2,2816.45,0.25,95,98.0
7622,C2,2816.45,0.25,95,98.0
7623,F#2,2816.7,0.25,95,98.0
7624,G#2,2816.95,3/20,95,98.0
7625,C#2,2816.95,3/20,95,98.0
7626,G#2,2817.1,1/10,95,98.0
7627,C#2,2817.1,1/10,95,98.0
7628,B-2,2817.2,0.75,95,98.0
7629,F#2,2817.2,0.25,95,98.0
7630,F#3,2817.2,0.25,95,98.0
7631,G#2,2817.45,0.25,95,98.0
7632,F#2,2817.7,0.25,95,98.0
7633,G#2,2817.95,0.25,79,98.0
7634,G2,2817.95,0.25,79,98.0
7635,F#2,2818.2,0.25,79,98.0
7636,D2,2818.2,0.25,79,98.0
7637,G#2,2818.45,0.25,47,98.0
7638,F#2,2818.7,0.25,79,98.0
7639,C2,2818.7,0.25,79,98.0
7640,E3,2818.7,0.25,79,98.0
7641,G#2,2818.95,0.25,63,98.0
7642,F#2,2819.2,0.25,95,98.0
7643,C#2,2819.2,0.25,95,98.0
7644,G#2,2819.45,0.25,95,98.0
7645,C2,2819.45,0.25,95,98.0
7646,F#2,2819.7,0.25,95,98.0
7647,G#2,2819.95,0.25,95,98.0
7648,C#2,2819.95,0.25,95,98.0
7649,F#2,2820.2,0.25,95,98.0
7650,G#2,2820.45,0.25,95,98.0
7651,C2,2820.45,0.25,95,98.0
7652,F#2,2820.7,0.25,95,98.0
7653,G#2,2820.95,3/20,95,98.0
7654,C#2,2820.95,3/20,95,98.0
7655,G#2,2821.1,1/10,95,98.0
7656,C#2,2821.1,1/10,95,98.0
7657,F#2,2821.2,0.25,95,98.0
7658,C2,2821.2,0.25,95,98.0
7659,G#2,2821.45,0.25,95,98.0
7660,F#2,2821.7,0.25,95,98.0
7661,G#2,2821.95,0.25,63,98.0
7662,F#2,2822.2,0.25,74,98.0
7663,A2,2822.2,0.25,74,98.0
7664,E2,2822.2,0.25,74,98.0
7665,G#2,2822.45,0.25,47,98.0
7666,F#2,2822.7,0.25,71,98.0
7667,C2,2822.7,0.25,71,98.0
7668,G#2,2822.95,0.25,63,98.0
7669,F#2,2823.2,0.25,95,98.0
7670,C#2,2823.2,0.25,95,98.0
7671,G#2,2823.45,0.25,95,98.0
7672,C2,2823.45,0.25,95,98.0
7673,F#2,2823.7,0.25,95,98.0
7674,G#2,2823.95,0.25,84,98.0
7675,C#2,2823.95,0.25,84,98.0
7676,B5,2823.95,0.25,84,98.0
7677,F#2,2824.2,0.25,95,98.0
7678,G#2,2824.45,0.25,95,98.0
7679,C2,2824.45,0.25,95,98.0
7680,F#2,2824.7,0.25,95,98.0
7681,G#2,2824.95,3/20,95,98.0
7682,C#2,2824.95,3/20,95,98.0
7683,G#2,2825.1,1/10,95,98.0
7684,C#2,2825.1,1/10,95,98.0
7685,F#2,2825.2,0.25,95,98.0
7686,B-2,2825.2,0.25,95,98.0
7687,F#3,2825.2,0.25,95,98.0
7688,G#2,2825.45,0.25,95,98.0
7689,F#2,2825.7,0.25,90,98.0
7690,E2,2825.7,0.25,90,98.0
7691,C3,2825.7,0.25,90,98.0
7692,G#2,2825.95,0.25,84,98.0
7693,G2,2825.95,0.25,84,98.0
7694,B2,2825.95,0.25,84,98.0
7695,F#2,2826.2,0.25,74,98.0
7696,D2,2826.2,0.25,74,98.0
7697,A2,2826.2,0.25,74,98.0
7698,G#2,2826.45,0.25,71,98.0
7699,B2,2826.45,0.25,71,98.0
7700,F#2,2826.7,0.25,95,98.0
7701,C2,2826.7,0.25,95,98.0
7702,C#3,2826.7,0.25,95,98.0
7703,G#2,2826.95,0.25,63,98.0
7704,F#2,2827.2,0.25,95,98.0
7705,C#2,2827.2,0.25,95,98.0
7706,G#2,2827.45,0.25,95,98.0
7707,F#2,2827.7,0.25,95,98.0
7708,E2,2827.7,0.25,95,98.0
7709,G#2,2827.95,0.25,95,98.0
7710,F#2,2828.2,0.25,95,98.0
7711,G#2,2828.45,0.25,79,98.0
7712,C2,2828.45,0.25,79,98.0
7713,F#2,2828.7,0.25,95,98.0
7714,G#2,2828.95,3/20,79,98.0
7715,C2,2828.95,3/20,79,98.0
7716,G#2,2829.1,1/10,79,98.0
7717,C2,2829.1,1/10,79,98.0
7718,F#2,2829.2,0.25,95,98.0
7719,G#2,2829.45,0.25,79,98.0
7720,C2,2829.45,0.25,79,98.0
7721,F#2,2829.7,0.25,95,98.0
7722,E2,2829.7,0.25,95,98.0
7723,G#2,2829.95,0.25,63,98.0
7724,F#2,2830.2,0.25,79,98.0
7725,C2,2830.2,0.25,79,98.0
7726,G#2,2830.45,0.25,47,98.0
7727,F#2,2830.7,0.25,95,98.0
7728,G#2,2830.95,0.25,63,98.0
7729,F#2,2831.2,0.25,95,98.0
7730,C#2,2831.2,0.25,95,98.0
7731,G#2,2831.45,0.25,95,98.0
7732,F#2,2831.7,0.25,95,98.0
7733,E2,2831.7,0.25,95,98.0
7734,G#2,2831.95,0.25,95,98.0
7735,F#2,2832.2,0.25,95,98.0
7736,G#2,2832.45,0.25,79,98.0
7737,C2,2832.45,0.25,79,98.0
7738,F#2,2832.7,0.25,95,98.0
7739,G#2,2832.95,3/20,79,98.0
7740,C2,2832.95,3/20,79,98.0
7741,G#2,2833.1,1/10,79,98.0
7742,C2,2833.1,1/10,79,98.0
7743,F#2,2833.2,0.25,95,98.0
7744,G#2,2833.45,0.25,79,98.0
7745,C2,2833.45,0.25,79,98.0
7746,F#2,2833.7,0.25,95,98.0
7747,E2,2833.7,0.25,95,98.0
7748,G#2,2833.95,0.25,63,98.0
7749,F#2,2834.2,0.25,95,98.0
7750,G#2,2834.45,0.25,47,98.0
7751,F#2,2834.7,0.25,95,98.0
7752,C2,2834.7,0.25,95,98.0
7753,C#3,2834.7,0.25,95,98.0
7754,G#2,2834.95,0.25,63,98.0
7755,F#2,2835.2,0.25,95,98.0
7756,C#2,2835.2,0.25,95,98.0
7757,G#2,2835.45,0.25,95,98.0
7758,F#2,2835.7,0.25,95,98.0
7759,E2,2835.7,0.25,95,98.0
7760,G#2,2835.95,0.25,95,98.0
7761,C2,2835.95,0.25,95,98.0
7762,F#2,2836.2,0.25,95,98.0
7763,G#2,2836.45,0.25,95,98.0
7764,C2,2836.45,0.25,95,98.0
7765,F#2,2836.7,0.25,95,98.0
7766,G#2,2836.95,3/20,95,98.0
7767,G#2,2837.1,1/10,95,98.0
7768,F#2,2837.2,0.25,95,98.0
7769,G#2,2837.45,0.25,79,98.0
7770,C2,2837.45,0.25,79,98.0
7771,F#2,2837.7,0.25,95,98.0
7772,E2,2837.7,0.25,95,98.0
7773,G#2,2837.95,0.25,63,98.0
7774,F#2,2838.2,0.25,95,98.0
7775,G#2,2838.45,0.25,47,98.0
7776,F#2,2838.7,0.25,95,98.0
7777,C2,2838.7,0.25,95,98.0
7778,C#3,2838.7,0.25,95,98.0
7779,G#2,2838.95,0.25,63,98.0
7780,F#2,2839.2,0.25,95,98.0
7781,C#2,2839.2,0.25,95,98.0
7782,G#2,2839.45,0.25,95,98.0
7783,F#2,2839.7,0.25,95,98.0
7784,E2,2839.7,0.25,95,98.0
7785,G#2,2839.95,0.25,95,98.0
7786,F#2,2840.2,0.25,95,98.0
7787,G#2,2840.45,0.25,79,98.0
7788,C2,2840.45,0.25,79,98.0
7789,F#2,2840.7,0.25,95,98.0
7790,G#2,2840.95,0.125,84,98.0
7791,C2,2840.95,0.125,84,98.0
7792,A2,2840.95,0.125,84,98.0
7793,A2,2841.075,1/40,95,98.0
7794,A2,2841.1,1/10,95,98.0
7795,F#2,2841.2,0.25,95,98.0
7796,B2,2841.2,0.25,95,98.0
7797,G#2,2841.45,0.25,84,98.0
7798,C2,2841.45,0.25,84,98.0
7799,A2,2841.45,0.25,84,98.0
7800,F#2,2841.7,0.25,95,98.0
7801,E2,2841.7,0.25,95,98.0
7802,C2,2841.7,0.25,95,98.0
7803,C#3,2841.7,0.25,95,98.0
7804,G#2,2841.95,0.25,63,98.0
7805,F#2,2842.2,0.25,95,98.0
7806,C2,2842.2,0.25,95,98.0
7807,C#3,2842.2,0.25,95,98.0
7808,G#2,2842.45,0.25,47,98.0
7809,F#2,2842.7,0.25,95,98.0
7810,C2,2842.7,0.25,95,98.0
7811,C#3,2842.7,0.25,95,98.0
7812,G#2,2842.95,0.25,63,98.0
7813,F#2,2843.2,0.25,95,98.0
7814,C#2,2843.2,0.25,95,98.0
7815,G#2,2843.45,0.25,95,98.0
7816,F#2,2843.7,0.25,95,98.0
7817,E2,2843.7,0.25,95,98.0
7818,G#2,2843.95,0.25,95,98.0
7819,F#2,2844.2,0.25,95,98.0
7820,G#2,2844.45,0.25,79,98.0
7821,C2,2844.45,0.25,79,98.0
7822,F#2,2844.7,0.25,95,98.0
7823,G#2,2844.95,3/20,79,98.0
7824,C2,2844.95,3/20,79,98.0
7825,G#2,2845.1,1/10,79,98.0
7826,C2,2845.1,1/10,79,98.0
7827,F#2,2845.2,0.25,95,98.0
7828,G#2,2845.45,0.25,79,98.0
7829,C2,2845.45,0.25,79,98.0
7830,F#2,2845.7,0.25,95,98.0
7831,E2,2845.7,0.25,95,98.0
7832,G#2,2845.95,0.25,63,98.0
7833,F#2,2846.2,0.25,79,98.0
7834,C2,2846.2,0.25,79,98.0
7835,G#2,2846.45,0.25,47,98.0
7836,F#2,2846.7,0.25,95,98.0
7837,G#2,2846.95,0.25,63,98.0
7838,F#2,2847.2,0.25,95,98.0
7839,C#2,2847.2,0.25,95,98.0
7840,G#2,2847.45,0.25,95,98.0
7841,F#2,2847.7,0.25,95,98.0
7842,E2,2847.7,0.25,95,98.0
7843,G#2,2847.95,0.25,95,98.0
7844,F#2,2848.2,0.25,95,98.0
7845,G#2,2848.45,0.25,79,98.0
7846,C2,2848.45,0.25,79,98.0
7847,F#2,2848.7,0.25,95,98.0
7848,G#2,2848.95,3/20,79,98.0
7849,C2,2848.95,3/20,79,98.0
7850,G#2,2849.1,1/10,79,98.0
7851,C2,2849.1,1/10,79,98.0
7852,F#2,2849.2,0.25,95,98.0
7853,G#2,2849.45,0.25,79,98.0
7854,C2,2849.45,0.25,79,98.0
7855,F#2,2849.7,0.25,95,98.0
7856,E2,2849.7,0.25,95,98.0
7857,G#2,2849.95,0.25,63,98.0
7858,F#2,2850.2,0.25,95,98.0
7859,G#2,2850.45,0.25,47,98.0
7860,F#2,2850.7,0.25,95,98.0
7861,C2,2850.7,0.25,95,98.0
7862,C#3,2850.7,0.25,95,98.0
7863,G#2,2850.95,0.25,63,98.0
7864,F#2,2851.2,0.25,95,98.0
7865,C#2,2851.2,0.25,95,98.0
7866,G#2,2851.45,0.25,95,98.0
7867,F#2,2851.7,0.25,95,98.0
7868,E2,2851.7,0.25,95,98.0
7869,G#2,2851.95,0.25,95,98.0
7870,C2,2851.95,0.25,95,98.0
7871,F#2,2852.2,0.25,95,98.0
7872,G#2,2852.45,0.25,95,98.0
7873,C2,2852.45,0.25,95,98.0
7874,F#2,2852.7,0.25,95,98.0
7875,G#2,2852.95,3/20,95,98.0
7876,G#2,2853.1,1/10,95,98.0
7877,F#2,2853.2,0.25,95,98.0
7878,G#2,2853.45,0.25,79,98.0
7879,C2,2853.45,0.25,79,98.0
7880,F#2,2853.7,0.25,95,98.0
7881,E2,2853.7,0.25,95,98.0
7882,G#2,2853.95,0.25,63,98.0
7883,F#2,2854.2,0.25,95,98.0
7884,G#2,2854.45,0.25,47,98.0
7885,F#2,2854.7,0.25,95,98.0
7886,C2,2854.7,0.25,95,98.0
7887,C#3,2854.7,0.25,95,98.0
7888,G#2,2854.95,0.25,63,98.0
7889,F#2,2855.2,0.25,95,98.0
7890,C#2,2855.2,0.25,95,98.0
7891,G#2,2855.45,0.25,95,98.0
7892,F#2,2855.7,0.25,95,98.0
7893,E2,2855.7,0.25,95,98.0
7894,G#2,2855.95,0.25,95,98.0
7895,F#2,2856.2,0.25,95,98.0
7896,G#2,2856.45,0.25,79,98.0
7897,C2,2856.45,0.25,79,98.0
7898,F#2,2856.7,0.25,95,98.0
7899,G#2,2856.95,0.125,84,98.0
7900,C2,2856.95,0.125,84,98.0
7901,A2,2856.95,0.125,84,98.0
7902,A2,2857.075,1/40,95,98.0
7903,A2,2857.1,1/10,95,98.0
7904,F#2,2857.2,0.25,95,98.0
7905,B2,2857.2,0.25,95,98.0
7906,G#2,2857.45,0.25,84,98.0
7907,C2,2857.45,0.25,84,98.0
7908,A2,2857.45,0.25,84,98.0
7909,F#2,2857.7,0.25,95,98.0
7910,E2,2857.7,0.25,95,98.0
7911,C2,2857.7,0.25,95,98.0
7912,C#3,2857.7,0.25,95,98.0
7913,G#2,2857.95,0.25,63,98.0
7914,F#2,2858.2,0.25,95,98.0
7915,C2,2858.2,0.25,95,98.0
7916,C#3,2858.2,0.25,95,98.0
7917,G#2,2858.45,0.25,47,98.0
7918,F#2,2858.7,0.25,79,98.0
7919,C2,2858.7,0.25,79,98.0
7920,E3,2858.7,0.25,79,98.0
7921,G#2,2858.95,0.25,63,98.0
7922,F#2,2859.2,0.25,95,98.0
7923,C#2,2859.2,0.25,95,98.0
7924,G#2,2859.45,0.25,95,98.0
7925,C2,2859.45,0.25,95,98.0
7926,F#2,2859.7,0.25,95,98.0
7927,G#2,2859.95,0.25,95,98.0
7928,C#2,2859.95,0.25,95,98.0
7929,F#2,2860.2,0.25,95,98.0
7930,G#2,2860.45,0.25,95,98.0
7931,C2,2860.45,0.25,95,98.0
7932,F#2,2860.7,0.25,95,98.0
7933,G#2,2860.95,3/20,95,98.0
7934,C#2,2860.95,3/20,95,98.0
7935,G#2,2861.1,1/10,95,98.0
7936,C#2,2861.1,1/10,95,98.0
7937,F#2,2861.2,0.25,95,98.0
7938,C2,2861.2,0.25,95,98.0
7939,G#2,2861.45,0.25,95,98.0
7940,F#2,2861.7,0.25,95,98.0
7941,G#2,2861.95,0.25,63,98.0
7942,F#2,2862.2,0.25,74,98.0
7943,A2,2862.2,0.25,74,98.0
7944,E2,2862.2,0.25,74,98.0
7945,G#2,2862.45,0.25,47,98.0
7946,F#2,2862.7,0.25,71,98.0
7947,B1,2862.7,0.25,71,98.0
7948,G#2,2862.95,0.25,63,98.0
7949,F#2,2863.2,0.25,79,98.0
7950,C#4,2863.2,0.25,79,98.0
7951,G#2,2863.45,0.25,95,98.0
7952,B1,2863.45,0.25,95,98.0
7953,F#2,2863.7,0.25,95,98.0
7954,G#2,2863.95,0.25,84,98.0
7955,C#2,2863.95,0.25,84,98.0
7956,B5,2863.95,0.25,84,98.0
7957,F#2,2864.2,0.25,95,98.0
7958,G#2,2864.45,0.25,95,98.0
7959,C2,2864.45,0.25,95,98.0
7960,F#2,2864.7,0.25,95,98.0
7961,G#2,2864.95,3/20,95,98.0
7962,C#2,2864.95,3/20,95,98.0
7963,G#2,2865.1,1/10,95,98.0
7964,C#2,2865.1,1/10,95,98.0
7965,F#2,2865.2,0.25,95,98.0
7966,B-2,2865.2,0.75,95,98.0
7967,G#2,2865.45,0.25,95,98.0
7968,F#2,2865.7,0.25,95,98.0
7969,G#2,2865.95,0.25,79,98.0
7970,G2,2865.95,0.25,79,98.0
7971,F#2,2866.2,0.25,79,98.0
7972,D2,2866.2,0.25,79,98.0
7973,G#2,2866.45,0.25,47,98.0
7974,F#2,2866.7,0.25,71,98.0
7975,C2,2866.7,0.25,71,98.0
7976,G#2,2866.95,0.25,63,98.0
7977,F#2,2867.2,0.25,95,98.0
7978,C#2,2867.2,0.25,95,98.0
7979,G#2,2867.45,0.25,95,98.0
7980,C2,2867.45,0.25,95,98.0
7981,F#2,2867.7,0.25,95,98.0
7982,G#2,2867.95,0.25,95,98.0
7983,C#2,2867.95,0.25,95,98.0
7984,F#2,2868.2,0.25,95,98.0
7985,G#2,2868.45,0.25,95,98.0
7986,C2,2868.45,0.25,95,98.0
7987,F#2,2868.7,0.25,95,98.0
7988,G#2,2868.95,3/20,95,98.0
7989,C#2,2868.95,3/20,95,98.0
7990,G#2,2869.1,1/10,95,98.0
7991,C#2,2869.1,1/10,95,98.0
7992,F#2,2869.2,0.25,95,98.0
7993,C2,2869.2,0.25,95,98.0
7994,G#2,2869.45,0.25,95,98.0
7995,F#2,2869.7,0.25,95,98.0
7996,G#2,2869.95,0.25,63,98.0
7997,F#2,2870.2,0.25,74,98.0
7998,A2,2870.2,0.25,74,98.0
7999,E2,2870.2,0.25,74,98.0
8000,G#2,2870.45,0.25,47,98.0
8001,F#2,2870.7,0.25,71,98.0
8002,B1,2870.7,0.25,71,98.0
8003,G#2,2870.95,0.25,63,98.0
8004,F#2,2871.2,0.25,79,98.0
8005,C#4,2871.2,0.25,79,98.0
8006,G#2,2871.45,0.25,95,98.0
8007,B1,2871.45,0.25,95,98.0
8008,F#2,2871.7,0.25,95,98.0
8009,G#2,2871.95,0.25,84,98.0
8010,C#2,2871.95,0.25,84,98.0
8011,B5,2871.95,0.25,84,98.0
8012,F#2,2872.2,0.25,95,98.0
8013,G#2,2872.45,0.25,95,98.0
8014,C2,2872.45,0.25,95,98.0
8015,F#2,2872.7,0.25,95,98.0
8016,G#2,2872.95,3/20,95,98.0
8017,C#2,2872.95,3/20,95,98.0
8018,G#2,2873.1,1/10,95,98.0
8019,C#2,2873.1,1/10,95,98.0
8020,F#2,2873.2,0.25,95,98.0
8021,B-2,2873.2,0.75,95,98.0
8022,G#2,2873.45,0.25,95,98.0
8023,F#2,2873.7,0.25,95,98.0
8024,G#2,2873.95,0.25,79,98.0
8025,G2,2873.95,0.25,79,98.0
8026,F#2,2874.2,0.25,79,98.0
8027,D2,2874.2,0.25,79,98.0
8028,G#2,2874.45,0.25,47,98.0
8029,F#2,2874.7,0.25,79,98.0
8030,C2,2874.7,0.25,79,98.0
8031,E3,2874.7,0.25,79,98.0
8032,G#2,2874.95,0.25,63,98.0
8033,F#2,2875.2,0.25,95,98.0
8034,C#2,2875.2,0.25,95,98.0
8035,G#2,2875.45,0.25,95,98.0
8036,C2,2875.45,0.25,95,98.0
8037,F#2,2875.7,0.25,95,98.0
8038,G#2,2875.95,0.25,95,98.0
8039,C#2,2875.95,0.25,95,98.0
8040,F#2,2876.2,0.25,95,98.0
8041,G#2,2876.45,0.25,95,98.0
8042,C2,2876.45,0.25,95,98.0
8043,F#2,2876.7,0.25,95,98.0
8044,G#2,2876.95,3/20,95,98.0
8045,C#2,2876.95,3/20,95,98.0
8046,G#2,2877.1,1/10,95,98.0
8047,C#2,2877.1,1/10,95,98.0
8048,F#2,2877.2,0.25,95,98.0
8049,C2,2877.2,0.25,95,98.0
8050,G#2,2877.45,0.25,95,98.0
8051,F#2,2877.7,0.25,95,98.0
8052,G#2,2877.95,0.25,63,98.0
8053,F#2,2878.2,0.25,74,98.0
8054,A2,2878.2,0.25,74,98.0
8055,E2,2878.2,0.25,74,98.0
8056,G#2,2878.45,0.25,47,98.0
8057,F#2,2878.7,0.25,71,98.0
8058,C2,2878.7,0.25,71,98.0
8059,G#2,2878.95,0.25,63,98.0
8060,F#2,2879.2,0.25,95,98.0
8061,C#2,2879.2,0.25,95,98.0
8062,G#2,2879.45,0.25,95,98.0
8063,C2,2879.45,0.25,95,98.0
8064,F#2,2879.7,0.25,95,98.0
8065,G#2,2879.95,0.25,84,98.0
8066,C#2,2879.95,0.25,84,98.0
8067,B5,2879.95,0.25,84,98.0
8068,F#2,2880.2,0.25,95,98.0
8069,G#2,2880.45,0.25,95,98.0
8070,C2,2880.45,0.25,95,98.0
8071,F#2,2880.7,0.25,95,98.0
8072,G#2,2880.95,3/20,95,98.0
8073,C#2,2880.95,3/20,95,98.0
8074,G#2,2881.1,1/10,95,98.0
8075,C#2,2881.1,1/10,95,98.0
8076,F#2,2881.2,0.25,95,98.0
8077,B-2,2881.2,0.75,95,98.0
8078,G#2,2881.45,0.25,95,98.0
8079,F#2,2881.7,0.25,95,98.0
8080,G#2,2881.95,0.25,79,98.0
8081,G2,2881.95,0.25,79,98.0
8082,F#2,2882.2,0.25,79,98.0
8083,D2,2882.2,0.25,79,98.0
8084,G#2,2882.45,0.25,47,98.0
8085,F#2,2882.7,0.25,71,98.0
8086,C2,2882.7,0.25,71,98.0
8087,G#2,2882.95,0.25,63,98.0
8088,F#2,2883.2,0.25,95,98.0
8089,C#2,2883.2,0.25,95,98.0
8090,G#2,2883.45,0.25,95,98.0
8091,C2,2883.45,0.25,95,98.0
8092,F#2,2883.7,0.25,95,98.0
8093,G#2,2883.95,0.25,95,98.0
8094,C#2,2883.95,0.25,95,98.0
8095,F#2,2884.2,0.25,95,98.0
8096,G#2,2884.45,0.25,95,98.0
8097,C2,2884.45,0.25,95,98.0
8098,F#2,2884.7,0.25,95,98.0
8099,G#2,2884.95,3/20,95,98.0
8100,C#2,2884.95,3/20,95,98.0
8101,G#2,2885.1,1/10,95,98.0
8102,C#2,2885.1,1/10,95,98.0
8103,F#2,2885.2,0.25,95,98.0
8104,C2,2885.2,0.25,95,98.0
8105,G#2,2885.45,0.25,95,98.0
8106,F#2,2885.7,0.25,95,98.0
8107,G#2,2885.95,0.25,63,98.0
8108,F#2,2886.2,0.25,74,98.0
8109,A2,2886.2,0.25,74,98.0
8110,E2,2886.2,0.25,74,98.0
8111,G#2,2886.45,0.25,47,98.0
8112,F#2,2886.7,0.25,71,98.0
8113,C2,2886.7,0.25,71,98.0
8114,G#2,2886.95,0.25,63,98.0
8115,F#2,2887.2,0.25,95,98.0
8116,C#2,2887.2,0.25,95,98.0
8117,G#2,2887.45,0.25,95,98.0
8118,C2,2887.45,0.25,95,98.0
8119,F#2,2887.7,0.25,95,98.0
8120,G#2,2887.95,0.25,84,98.0
8121,C#2,2887.95,0.25,84,98.0
8122,B5,2887.95,0.25,84,98.0
8123,F#2,2888.2,0.25,95,98.0
8124,G#2,2888.45,0.25,95,98.0
8125,C2,2888.45,0.25,95,98.0
8126,F#2,2888.7,0.25,95,98.0
8127,G#2,2888.95,3/20,95,98.0
8128,C#2,2888.95,3/20,95,98.0
8129,G#2,2889.1,1/10,95,98.0
8130,C#2,2889.1,1/10,95,98.0
8131,F#2,2889.2,0.25,95,98.0
8132,B-2,2889.2,0.25,95,98.0
8133,G#2,2889.45,0.25,95,98.0
8134,F#2,2889.7,0.25,95,98.0
8135,C2,2889.7,0.25,95,98.0
8136,C#3,2889.7,0.25,95,98.0
8137,G#2,2889.95,0.25,63,98.0
8138,F#2,2890.2,0.25,84,98.0
8139,C2,2890.2,0.25,84,98.0
8140,C#3,2890.2,0.25,84,98.0
8141,G#2,2890.45,0.25,47,98.0
8142,F#2,2890.7,0.25,79,98.0
8143,C2,2890.7,0.25,79,98.0
8144,E3,2890.7,0.25,79,98.0
8145,G#2,2890.95,0.25,63,98.0
8146,F#2,2891.2,0.25,95,98.0
8147,C#2,2891.2,0.25,95,98.0
8148,G#2,2891.45,0.25,95,98.0
8149,C2,2891.45,0.25,95,98.0
8150,F#2,2891.7,0.25,95,98.0
8151,G#2,2891.95,0.25,95,98.0
8152,C#2,2891.95,0.25,95,98.0
8153,F#2,2892.2,0.25,95,98.0
8154,G#2,2892.45,0.25,95,98.0
8155,C2,2892.45,0.25,95,98.0
8156,F#2,2892.7,0.25,95,98.0
8157,G#2,2892.95,3/20,95,98.0
8158,C#2,2892.95,3/20,95,98.0
8159,G#2,2893.1,1/10,95,98.0
8160,C#2,2893.1,1/10,95,98.0
8161,F#2,2893.2,0.25,95,98.0
8162,C2,2893.2,0.25,95,98.0
8163,G#2,2893.45,0.25,95,98.0
8164,F#2,2893.7,0.25,95,98.0
8165,G#2,2893.95,0.25,63,98.0
8166,F#2,2894.2,0.25,74,98.0
8167,A2,2894.2,0.25,74,98.0
8168,E2,2894.2,0.25,74,98.0
8169,G#2,2894.45,0.25,47,98.0
8170,F#2,2894.7,0.25,71,98.0
8171,C2,2894.7,0.25,71,98.0
8172,G#2,2894.95,0.25,63,98.0
8173,F#2,2895.2,0.25,95,98.0
8174,C#2,2895.2,0.25,95,98.0
8175,G#2,2895.45,0.25,95,98.0
8176,C2,2895.45,0.25,95,98.0
8177,F#2,2895.7,0.25,95,98.0
8178,G#2,2895.95,0.25,84,98.0
8179,C#2,2895.95,0.25,84,98.0
8180,B5,2895.95,0.25,84,98.0
8181,F#2,2896.2,0.25,95,98.0
8182,G#2,2896.45,0.25,95,98.0
8183,C2,2896.45,0.25,95,98.0
8184,F#2,2896.7,0.25,95,98.0
8185,G#2,2896.95,3/20,95,98.0
8186,C#2,2896.95,3/20,95,98.0
8187,G#2,2897.1,1/10,95,98.0
8188,C#2,2897.1,1/10,95,98.0
8189,B-2,2897.2,0.75,95,98.0
8190,F#2,2897.2,0.25,95,98.0
8191,F#3,2897.2,0.25,95,98.0
8192,G#2,2897.45,0.25,95,98.0
8193,F#2,2897.7,0.25,95,98.0
8194,G#2,2897.95,0.25,79,98.0
8195,G2,2897.95,0.25,79,98.0
8196,F#2,2898.2,0.25,79,98.0
8197,D2,2898.2,0.25,79,98.0
8198,G#2,2898.45,0.25,47,98.0
8199,F#2,2898.7,0.25,79,98.0
8200,C2,2898.7,0.25,79,98.0
8201,E3,2898.7,0.25,79,98.0
8202,G#2,2898.95,0.25,63,98.0
8203,F#2,2899.2,0.25,95,98.0
8204,C#2,2899.2,0.25,95,98.0
8205,G#2,2899.45,0.25,95,98.0
8206,C2,2899.45,0.25,95,98.0
8207,F#2,2899.7,0.25,95,98.0
8208,G#2,2899.95,0.25,95,98.0
8209,C#2,2899.95,0.25,95,98.0
8210,F#2,2900.2,0.25,95,98.0
8211,G#2,2900.45,0.25,95,98.0
8212,C2,2900.45,0.25,95,98.0
8213,F#2,2900.7,0.25,95,98.0
8214,G#2,2900.95,3/20,95,98.0
8215,C#2,2900.95,3/20,95,98.0
8216,G#2,2901.1,1/10,95,98.0
8217,C#2,2901.1,1/10,95,98.0
8218,F#2,2901.2,0.25,95,98.0
8219,C2,2901.2,0.25,95,98.0
8220,G#2,2901.45,0.25,95,98.0
8221,F#2,2901.7,0.25,95,98.0
8222,G#2,2901.95,0.25,63,98.0
8223,F#2,2902.2,0.25,74,98.0
8224,A2,2902.2,0.25,74,98.0
8225,E2,2902.2,0.25,74,98.0
8226,G#2,2902.45,0.25,47,98.0
8227,F#2,2902.7,0.25,71,98.0
8228,C2,2902.7,0.25,71,98.0
8229,G#2,2902.95,0.25,63,98.0
8230,F#2,2903.2,0.25,95,98.0
8231,G#2,2903.45,0.25,95,98.0
8232,A2,2903.45,0.25,95,98.0
8233,C2,2903.45,0.25,95,98.0
8234,F#2,2903.7,0.25,95,98.0
8235,G#2,2903.95,0.25,95,98.0
8236,B2,2903.95,0.25,95,98.0
8237,F#2,2904.2,0.25,95,98.0
8238,G#2,2904.45,0.25,95,98.0
8239,C2,2904.45,0.25,95,98.0
8240,F#2,2904.7,0.25,95,98.0
8241,E2,2904.7,0.25,95,98.0
8242,G#2,2904.95,3/20,95,98.0
8243,B-2,2904.95,3/20,95,98.0
8244,G#2,2905.1,1/10,95,98.0
8245,B-2,2905.1,1/10,95,98.0
8246,F#2,2905.2,0.25,95,98.0
8247,G#2,2905.45,0.25,95,98.0
8248,F#2,2905.7,0.25,95,98.0
8249,E2,2905.7,0.25,95,98.0
8250,G#2,2905.95,0.75,84,98.0
8251,C#3,2905.95,0.75,84,98.0
8252,C2,2905.95,0.75,84,98.0
8253,F#2,2906.7,0.25,79,98.0
8254,C2,2906.7,0.25,79,98.0
8255,E3,2906.7,0.25,79,98.0
8256,G#2,2906.95,0.25,63,98.0
8257,F#2,2907.2,0.25,95,98.0
8258,C#2,2907.2,0.25,95,98.0
8259,G#2,2907.45,0.25,95,98.0
8260,C2,2907.45,0.25,95,98.0
8261,F#2,2907.7,0.25,95,98.0
8262,G#2,2907.95,0.25,95,98.0
8263,C#2,2907.95,0.25,95,98.0
8264,F#2,2908.2,0.25,95,98.0
8265,G#2,2908.45,0.25,95,98.0
8266,C2,2908.45,0.25,95,98.0
8267,F#2,2908.7,0.25,95,98.0
8268,G#2,2908.95,3/20,95,98.0
8269,C#2,2908.95,3/20,95,98.0
8270,G#2,2909.1,1/10,95,98.0
8271,C#2,2909.1,1/10,95,98.0
8272,F#2,2909.2,0.25,95,98.0
8273,C2,2909.2,0.25,95,98.0
8274,G#2,2909.45,0.25,95,98.0
8275,F#2,2909.7,0.25,95,98.0
8276,G#2,2909.95,0.25,63,98.0
8277,F#2,2910.2,0.25,74,98.0
8278,A2,2910.2,0.25,74,98.0
8279,E2,2910.2,0.25,74,98.0
8280,G#2,2910.45,0.25,47,98.0
8281,F#2,2910.7,0.25,71,98.0
8282,C2,2910.7,0.25,71,98.0
8283,G#2,2910.95,0.25,63,98.0
8284,F#2,2911.2,0.25,95,98.0
8285,C#2,2911.2,0.25,95,98.0
8286,G#2,2911.45,0.25,95,98.0
8287,C2,2911.45,0.25,95,98.0
8288,F#2,2911.7,0.25,95,98.0
8289,G#2,2911.95,0.25,84,98.0
8290,C#2,2911.95,0.25,84,98.0
8291,B5,2911.95,0.25,84,98.0
8292,F#2,2912.2,0.25,95,98.0
8293,G#2,2912.45,0.25,95,98.0
8294,C2,2912.45,0.25,95,98.0
8295,F#2,2912.7,0.25,95,98.0
8296,G#2,2912.95,3/20,95,98.0
8297,C#2,2912.95,3/20,95,98.0
8298,G#2,2913.1,1/10,95,98.0
8299,C#2,2913.1,1/10,95,98.0
8300,B-2,2913.2,0.75,95,98.0
8301,F#2,2913.2,0.25,95,98.0
8302,F#3,2913.2,0.25,95,98.0
8303,G#2,2913.45,0.25,95,98.0
8304,F#2,2913.7,0.25,95,98.0
8305,G#2,2913.95,0.25,79,98.0
8306,G2,2913.95,0.25,79,98.0
8307,F#2,2914.2,0.25,79,98.0
8308,D2,2914.2,0.25,79,98.0
8309,G#2,2914.45,0.25,47,98.0
8310,F#2,2914.7,0.25,79,98.0
8311,C2,2914.7,0.25,79,98.0
8312,E3,2914.7,0.25,79,98.0
8313,G#2,2914.95,0.25,63,98.0
8314,F#2,2915.2,0.25,95,98.0
8315,C#2,2915.2,0.25,95,98.0
8316,G#2,2915.45,0.25,95,98.0
8317,C2,2915.45,0.25,95,98.0
8318,F#2,2915.7,0.25,95,98.0
8319,G#2,2915.95,0.25,95,98.0
8320,C#2,2915.95,0.25,95,98.0
8321,F#2,2916.2,0.25,95,98.0
8322,G#2,2916.45,0.25,95,98.0
8323,C2,2916.45,0.25,95,98.0
8324,F#2,2916.7,0.25,95,98.0
8325,G#2,2916.95,3/20,95,98.0
8326,C#2,2916.95,3/20,95,98.0
8327,G#2,2917.1,1/10,95,98.0
8328,C#2,2917.1,1/10,95,98.0
8329,F#2,2917.2,0.25,95,98.0
8330,C2,2917.2,0.25,95,98.0
8331,G#2,2917.45,0.25,95,98.0
8332,F#2,2917.7,0.25,95,98.0
8333,G#2,2917.95,0.25,63,98.0
8334,F#2,2918.2,0.25,74,98.0
8335,A2,2918.2,0.25,74,98.0
8336,E2,2918.2,0.25,74,98.0
8337,G#2,2918.45,0.25,47,98.0
8338,F#2,2918.7,0.25,71,98.0
8339,C2,2918.7,0.25,71,98.0
8340,G#2,2918.95,0.25,63,98.0
8341,F#2,2919.2,0.25,95,98.0
8342,C#2,2919.2,0.25,95,98.0
8343,G#2,2919.45,0.25,95,98.0
8344,C2,2919.45,0.25,95,98.0
8345,F#2,2919.7,0.25,95,98.0
8346,G#2,2919.95,0.25,84,98.0
8347,C#2,2919.95,0.25,84,98.0
8348,B5,2919.95,0.25,84,98.0
8349,F#2,2920.2,0.25,95,98.0
8350,G#2,2920.45,0.25,95,98.0
8351,C2,2920.45,0.25,95,98.0
8352,F#2,2920.7,0.25,95,98.0
8353,G#2,2920.95,3/20,95,98.0
8354,C#2,2920.95,3/20,95,98.0
8355,G#2,2921.1,1/10,95,98.0
8356,C#2,2921.1,1/10,95,98.0
8357,B-2,2921.2,0.75,95,98.0
8358,F#2,2921.2,0.25,95,98.0
8359,F#3,2921.2,0.25,95,98.0
8360,G#2,2921.45,0.25,95,98.0
8361,F#2,2921.7,0.25,95,98.0
8362,G#2,2921.95,0.25,79,98.0
8363,G2,2921.95,0.25,79,98.0
8364,F#2,2922.2,0.25,79,98.0
8365,D2,2922.2,0.25,79,98.0
8366,G#2,2922.45,0.25,47,98.0
8367,F#2,2922.7,0.25,79,98.0
8368,C2,2922.7,0.25,79,98.0
8369,E3,2922.7,0.25,79,98.0
8370,G#2,2922.95,0.25,63,98.0
8371,F#2,2923.2,0.25,95,98.0
8372,C#2,2923.2,0.25,95,98.0
8373,G#2,2923.45,0.25,95,98.0
8374,C2,2923.45,0.25,95,98.0
8375,F#2,2923.7,0.25,95,98.0
8376,G#2,2923.95,0.25,95,98.0
8377,C#2,2923.95,0.25,95,98.0
8378,F#2,2924.2,0.25,95,98.0
8379,G#2,2924.45,0.25,95,98.0
8380,C2,2924.45,0.25,95,98.0
8381,F#2,2924.7,0.25,95,98.0
8382,G#2,2924.95,3/20,95,98.0
8383,C#2,2924.95,3/20,95,98.0
8384,G#2,2925.1,1/10,95,98.0
8385,C#2,2925.1,1/10,95,98.0
8386,F#2,2925.2,0.25,95,98.0
8387,C2,2925.2,0.25,95,98.0
8388,G#2,2925.45,0.25,95,98.0
8389,F#2,2925.7,0.25,95,98.0
8390,G#2,2925.95,0.25,63,98.0
8391,F#2,2926.2,0.25,74,98.0
8392,A2,2926.2,0.25,74,98.0
8393,E2,2926.2,0.25,74,98.0
8394,G#2,2926.45,0.25,47,98.0
8395,F#2,2926.7,0.25,71,98.0
8396,C2,2926.7,0.25,71,98.0
8397,G#2,2926.95,0.25,63,98.0
8398,F#2,2927.2,0.25,95,98.0
8399,C#2,2927.2,0.25,95,98.0
8400,G#2,2927.45,0.25,95,98.0
8401,C2,2927.45,0.25,95,98.0
8402,F#2,2927.7,0.25,95,98.0
8403,G#2,2927.95,0.25,84,98.0
8404,C#2,2927.95,0.25,84,98.0
8405,B5,2927.95,0.25,84,98.0
8406,F#2,2928.2,0.25,95,98.0
8407,G#2,2928.45,0.25,95,98.0
8408,C2,2928.45,0.25,95,98.0
8409,F#2,2928.7,0.25,95,98.0
8410,G#2,2928.95,3/20,95,98.0
8411,C#2,2928.95,3/20,95,98.0
8412,G#2,2929.1,1/10,95,98.0
8413,C#2,2929.1,1/10,95,98.0
8414,B-2,2929.2,0.75,95,98.0
8415,F#2,2929.2,0.25,95,98.0
8416,F#3,2929.2,0.25,95,98.0
8417,G#2,2929.45,0.25,95,98.0
8418,F#2,2929.7,0.25,95,98.0
8419,G#2,2929.95,0.25,79,98.0
8420,G2,2929.95,0.25,79,98.0
8421,F#2,2930.2,0.25,79,98.0
8422,D2,2930.2,0.25,79,98.0
8423,G#2,2930.45,0.25,47,98.0
8424,F#2,2930.7,0.25,79,98.0
8425,C2,2930.7,0.25,79,98.0
8426,E3,2930.7,0.25,79,98.0
8427,G#2,2930.95,0.25,63,98.0
8428,F#2,2931.2,0.25,95,98.0
8429,C#2,2931.2,0.25,95,98.0
8430,G#2,2931.45,0.25,95,98.0
8431,C2,2931.45,0.25,95,98.0
8432,F#2,2931.7,0.25,95,98.0
8433,G#2,2931.95,0.25,95,98.0
8434,C#2,2931.95,0.25,95,98.0
8435,F#2,2932.2,0.25,95,98.0
8436,G#2,2932.45,0.25,95,98.0
8437,C2,2932.45,0.25,95,98.0
8438,F#2,2932.7,0.25,95,98.0
8439,G#2,2932.95,3/20,95,98.0
8440,C#2,2932.95,3/20,95,98.0
8441,G#2,2933.1,1/10,95,98.0
8442,C#2,2933.1,1/10,95,98.0
8443,F#2,2933.2,0.25,95,98.0
8444,C2,2933.2,0.25,95,98.0
8445,G#2,2933.45,0.25,95,98.0
8446,F#2,2933.7,0.25,95,98.0
8447,G#2,2933.95,0.25,63,98.0
8448,F#2,2934.2,0.25,74,98.0
8449,A2,2934.2,0.25,74,98.0
8450,E2,2934.2,0.25,74,98.0
8451,G#2,2934.45,0.25,47,98.0
8452,F#2,2934.7,0.25,71,98.0
8453,C2,2934.7,0.25,71,98.0
8454,G#2,2934.95,0.25,63,98.0
8455,F#2,2935.2,0.25,95,98.0
8456,C#2,2935.2,0.25,95,98.0
8457,G#2,2935.45,0.25,95,98.0
8458,C2,2935.45,0.25,95,98.0
8459,F#2,2935.7,0.25,95,98.0
8460,G#2,2935.95,0.25,84,98.0
8461,C#2,2935.95,0.25,84,98.0
8462,B5,2935.95,0.25,84,98.0
8463,F#2,2936.2,0.25,95,98.0
8464,G#2,2936.45,0.25,95,98.0
8465,C2,2936.45,0.25,95,98.0
8466,F#2,2936.7,0.25,95,98.0
8467,G#2,2936.95,3/20,95,98.0
8468,C#2,2936.95,3/20,95,98.0
8469,G#2,2937.1,1/10,95,98.0
8470,C#2,2937.1,1/10,95,98.0
8471,B-2,2937.2,0.75,95,98.0
8472,F#2,2937.2,0.25,95,98.0
8473,F#3,2937.2,0.25,95,98.0
8474,G#2,2937.45,0.25,95,98.0
8475,F#2,2937.7,0.25,95,98.0
8476,G#2,2937.95,0.25,79,98.0
8477,G2,2937.95,0.25,79,98.0
8478,F#2,2938.2,0.25,79,98.0
8479,D2,2938.2,0.25,79,98.0
8480,G#2,2938.45,0.25,47,98.0
8481,F#2,2938.7,0.25,79,98.0
8482,C2,2938.7,0.25,79,98.0
8483,E3,2938.7,0.25,79,98.0
8484,G#2,2938.95,0.25,63,98.0
8485,F#2,2939.2,0.25,95,98.0
8486,C#2,2939.2,0.25,95,98.0
8487,G#2,2939.45,0.25,95,98.0
8488,C2,2939.45,0.25,95,98.0
8489,F#2,2939.7,0.25,95,98.0
8490,G#2,2939.95,0.25,95,98.0
8491,C#2,2939.95,0.25,95,98.0
8492,F#2,2940.2,0.25,95,98.0
8493,G#2,2940.45,0.25,95,98.0
8494,C2,2940.45,0.25,95,98.0
8495,F#2,2940.7,0.25,95,98.0
8496,G#2,2940.95,3/20,95,98.0
8497,C#2,2940.95,3/20,95,98.0
8498,G#2,2941.1,1/10,95,98.0
8499,C#2,2941.1,1/10,95,98.0
8500,F#2,2941.2,0.25,95,98.0
8501,C2,2941.2,0.25,95,98.0
8502,G#2,2941.45,0.25,95,98.0
8503,F#2,2941.7,0.25,95,98.0
8504,G#2,2941.95,0.25,63,98.0
8505,F#2,2942.2,0.25,74,98.0
8506,A2,2942.2,0.25,74,98.0
8507,E2,2942.2,0.25,74,98.0
8508,G#2,2942.45,0.25,47,98.0
8509,F#2,2942.7,0.25,71,98.0
8510,C2,2942.7,0.25,71,98.0
8511,G#2,2942.95,0.25,63,98.0
8512,F#2,2943.2,0.25,95,98.0
8513,C#2,2943.2,0.25,95,98.0
8514,G#2,2943.45,0.25,95,98.0
8515,C2,2943.45,0.25,95,98.0
8516,F#2,2943.7,0.25,95,98.0
8517,G#2,2943.95,0.25,84,98.0
8518,C#2,2943.95,0.25,84,98.0
8519,B5,2943.95,0.25,84,98.0
8520,F#2,2944.2,0.25,95,98.0
8521,G#2,2944.45,0.25,95,98.0
8522,C2,2944.45,0.25,95,98.0
8523,F#2,2944.7,0.25,95,98.0
8524,G#2,2944.95,3/20,95,98.0
8525,C#2,2944.95,3/20,95,98.0
8526,G#2,2945.1,1/10,95,98.0
8527,C#2,2945.1,1/10,95,98.0
8528,B-2,2945.2,0.75,95,98.0
8529,F#2,2945.2,0.25,95,98.0
8530,F#3,2945.2,0.25,95,98.0
8531,G#2,2945.45,0.25,95,98.0
8532,F#2,2945.7,0.25,95,98.0
8533,G#2,2945.95,0.25,79,98.0
8534,G2,2945.95,0.25,79,98.0
8535,F#2,2946.2,0.25,79,98.0
8536,D2,2946.2,0.25,79,98.0
8537,G#2,2946.45,0.25,47,98.0
8538,F#2,2946.7,0.25,79,98.0
8539,C2,2946.7,0.25,79,98.0
8540,E3,2946.7,0.25,79,98.0
8541,G#2,2946.95,0.25,63,98.0
8542,F#2,2947.2,0.25,95,98.0
8543,C#2,2947.2,0.25,95,98.0
8544,G#2,2947.45,0.25,95,98.0
8545,C2,2947.45,0.25,95,98.0
8546,F#2,2947.7,0.25,95,98.0
8547,G#2,2947.95,0.25,95,98.0
8548,C#2,2947.95,0.25,95,98.0
8549,F#2,2948.2,0.25,95,98.0
8550,G#2,2948.45,0.25,95,98.0
8551,C2,2948.45,0.25,95,98.0
8552,F#2,2948.7,0.25,95,98.0
8553,G#2,2948.95,3/20,95,98.0
8554,C#2,2948.95,3/20,95,98.0
8555,G#2,2949.1,1/10,95,98.0
8556,C#2,2949.1,1/10,95,98.0
8557,F#2,2949.2,0.25,95,98.0
8558,C2,2949.2,0.25,95,98.0
8559,G#2,2949.45,0.25,95,98.0
8560,F#2,2949.7,0.25,95,98.0
8561,G#2,2949.95,0.25,63,98.0
8562,F#2,2950.2,0.25,74,98.0
8563,A2,2950.2,0.25,74,98.0
8564,E2,2950.2,0.25,74,98.0
8565,G#2,2950.45,0.25,47,98.0
8566,F#2,2950.7,0.25,71,98.0
8567,C2,2950.7,0.25,71,98.0
8568,G#2,2950.95,0.25,63,98.0
8569,F#2,2951.2,0.25,95,98.0
8570,C#2,2951.2,0.25,95,98.0
8571,G#2,2951.45,0.25,95,98.0
8572,C2,2951.45,0.25,95,98.0
8573,F#2,2951.7,0.25,95,98.0
8574,G#2,2951.95,0.25,84,98.0
8575,C#2,2951.95,0.25,84,98.0
8576,B5,2951.95,0.25,84,98.0
8577,F#2,2952.2,0.25,95,98.0
8578,G#2,2952.45,0.25,95,98.0
8579,C2,2952.45,0.25,95,98.0
8580,F#2,2952.7,0.25,95,98.0
8581,G#2,2952.95,3/20,95,98.0
8582,C#2,2952.95,3/20,95,98.0
8583,G#2,2953.1,1/10,95,98.0
8584,C#2,2953.1,1/10,95,98.0
8585,F#2,2953.2,0.25,95,98.0
8586,B-2,2953.2,0.25,95,98.0
8587,F#3,2953.2,0.25,95,98.0
8588,G#2,2953.45,0.25,95,98.0
8589,F#2,2953.7,0.25,90,98.0
8590,E2,2953.7,0.25,90,98.0
8591,C3,2953.7,0.25,90,98.0
8592,G#2,2953.95,0.25,84,98.0
8593,G2,2953.95,0.25,84,98.0
8594,B2,2953.95,0.25,84,98.0
8595,F#2,2954.2,0.25,74,98.0
8596,D2,2954.2,0.25,74,98.0
8597,A2,2954.2,0.25,74,98.0
8598,G#2,2954.45,0.25,71,98.0
8599,B2,2954.45,0.25,71,98.0
8600,F#2,2954.7,0.25,95,98.0
8601,C2,2954.7,0.25,95,98.0
8602,C#3,2954.7,0.25,95,98.0
8603,G#2,2954.95,0.25,63,98.0
8604,F#2,2955.2,0.25,95,98.0
8605,C#2,2955.2,0.25,95,98.0
8606,G#2,2955.45,0.25,95,98.0
8607,F#2,2955.7,0.25,95,98.0
8608,E2,2955.7,0.25,95,98.0
8609,G#2,2955.95,0.25,95,98.0
8610,F#2,2956.2,0.25,95,98.0
8611,G#2,2956.45,0.25,79,98.0
8612,C2,2956.45,0.25,79,98.0
8613,F#2,2956.7,0.25,95,98.0
8614,G#2,2956.95,3/20,79,98.0
8615,C2,2956.95,3/20,79,98.0
8616,G#2,2957.1,1/10,79,98.0
8617,C2,2957.1,1/10,79,98.0
8618,F#2,2957.2,0.25,95,98.0
8619,G#2,2957.45,0.25,79,98.0
8620,C2,2957.45,0.25,79,98.0
8621,F#2,2957.7,0.25,95,98.0
8622,E2,2957.7,0.25,95,98.0
8623,G#2,2957.95,0.25,63,98.0
8624,F#2,2958.2,0.25,79,98.0
8625,C2,2958.2,0.25,79,98.0
8626,G#2,2958.45,0.25,47,98.0
8627,F#2,2958.7,0.25,95,98.0
8628,G#2,2958.95,0.25,63,98.0
8629,F#2,2959.2,0.25,95,98.0
8630,C#2,2959.2,0.25,95,98.0
8631,G#2,2959.45,0.25,95,98.0
8632,F#2,2959.7,0.25,95,98.0
8633,E2,2959.7,0.25,95,98.0
8634,G#2,2959.95,0.25,95,98.0
8635,F#2,2960.2,0.25,95,98.0
8636,G#2,2960.45,0.25,79,98.0
8637,C2,2960.45,0.25,79,98.0
8638,F#2,2960.7,0.25,95,98.0
8639,G#2,2960.95,3/20,79,98.0
8640,C2,2960.95,3/20,79,98.0
8641,G#2,2961.1,1/10,79,98.0
8642,C2,2961.1,1/10,79,98.0
8643,F#2,2961.2,0.25,95,98.0
8644,G#2,2961.45,0.25,79,98.0
8645,C2,2961.45,0.25,79,98.0
8646,F#2,2961.7,0.25,95,98.0
8647,E2,2961.7,0.25,95,98.0
8648,G#2,2961.95,0.25,63,98.0
8649,F#2,2962.2,0.25,95,98.0
8650,G#2,2962.45,0.25,47,98.0
8651,F#2,2962.7,0.25,95,98.0
8652,C2,2962.7,0.25,95,98.0
8653,C#3,2962.7,0.25,95,98.0
8654,G#2,2962.95,0.25,63,98.0
8655,F#2,2963.2,0.25,95,98.0
8656,C#2,2963.2,0.25,95,98.0
8657,G#2,2963.45,0.25,95,98.0
8658,F#2,2963.7,0.25,95,98.0
8659,E2,2963.7,0.25,95,98.0
8660,G#2,2963.95,0.25,95,98.0
8661,C2,2963.95,0.25,95,98.0
8662,F#2,2964.2,0.25,95,98.0
8663,G#2,2964.45,0.25,95,98.0
8664,C2,2964.45,0.25,95,98.0
8665,F#2,2964.7,0.25,95,98.0
8666,G#2,2964.95,3/20,95,98.0
8667,G#2,2965.1,1/10,95,98.0
8668,F#2,2965.2,0.25,95,98.0
8669,G#2,2965.45,0.25,79,98.0
8670,C2,2965.45,0.25,79,98.0
8671,F#2,2965.7,0.25,95,98.0
8672,E2,2965.7,0.25,95,98.0
8673,G#2,2965.95,0.25,63,98.0
8674,F#2,2966.2,0.25,95,98.0
8675,G#2,2966.45,0.25,47,98.0
8676,F#2,2966.7,0.25,95,98.0
8677,C2,2966.7,0.25,95,98.0
8678,C#3,2966.7,0.25,95,98.0
8679,G#2,2966.95,0.25,63,98.0
8680,F#2,2967.2,0.25,95,98.0
8681,C#2,2967.2,0.25,95,98.0
8682,G#2,2967.45,0.25,95,98.0
8683,F#2,2967.7,0.25,95,98.0
8684,E2,2967.7,0.25,95,98.0
8685,G#2,2967.95,0.25,95,98.0
8686,F#2,2968.2,0.25,95,98.0
8687,G#2,2968.45,0.25,79,98.0
8688,C2,2968.45,0.25,79,98.0
8689,F#2,2968.7,0.25,95,98.0
8690,G#2,2968.95,0.125,84,98.0
8691,C2,2968.95,0.125,84,98.0
8692,A2,2968.95,0.125,84,98.0
8693,A2,2969.075,1/40,95,98.0
8694,A2,2969.1,1/10,95,98.0
8695,F#2,2969.2,0.25,95,98.0
8696,B2,2969.2,0.25,95,98.0
8697,G#2,2969.45,0.25,84,98.0
8698,C2,2969.45,0.25,84,98.0
8699,A2,2969.45,0.25,84,98.0
8700,F#2,2969.7,0.25,95,98.0
8701,E2,2969.7,0.25,95,98.0
8702,C2,2969.7,0.25,95,98.0
8703,C#3,2969.7,0.25,95,98.0
8704,G#2,2969.95,0.25,63,98.0
8705,F#2,2970.2,0.25,95,98.0
8706,C2,2970.2,0.25,95,98.0
8707,C#3,2970.2,0.25,95,98.0
8708,G#2,2970.45,0.25,47,98.0
8709,F#2,2970.7,0.25,95,98.0
8710,C2,2970.7,0.25,95,98.0
8711,C#3,2970.7,0.25,95,98.0
8712,G#2,2970.95,0.25,63,98.0
8713,F#2,2971.2,0.25,95,98.0
8714,C#2,2971.2,0.25,95,98.0
8715,G#2,2971.45,0.25,95,98.0
8716,F#2,2971.7,0.25,95,98.0
8717,E2,2971.7,0.25,95,98.0
8718,G#2,2971.95,0.25,95,98.0
8719,F#2,2972.2,0.25,95,98.0
8720,G#2,2972.45,0.25,79,98.0
8721,C2,2972.45,0.25,79,98.0
8722,F#2,2972.7,0.25,95,98.0
8723,G#2,2972.95,3/20,79,98.0
8724,C2,2972.95,3/20,79,98.0
8725,G#2,2973.1,1/10,79,98.0
8726,C2,2973.1,1/10,79,98.0
8727,F#2,2973.2,0.25,95,98.0
8728,G#2,2973.45,0.25,79,98.0
8729,C2,2973.45,0.25,79,98.0
8730,F#2,2973.7,0.25,95,98.0
8731,E2,2973.7,0.25,95,98.0
8732,G#2,2973.95,0.25,63,98.0
8733,F#2,2974.2,0.25,79,98.0
8734,C2,2974.2,0.25,79,98.0
8735,G#2,2974.45,0.25,47,98.0
8736,F#2,2974.7,0.25,95,98.0
8737,G#2,2974.95,0.25,63,98.0
8738,F#2,2975.2,0.25,95,98.0
8739,C#2,2975.2,0.25,95,98.0
8740,G#2,2975.45,0.25,95,98.0
8741,F#2,2975.7,0.25,95,98.0
8742,E2,2975.7,0.25,95,98.0
8743,G#2,2975.95,0.25,95,98.0
8744,F#2,2976.2,0.25,95,98.0
8745,G#2,2976.45,0.25,79,98.0
8746,C2,2976.45,0.25,79,98.0
8747,F#2,2976.7,0.25,95,98.0
8748,G#2,2976.95,3/20,79,98.0
8749,C2,2976.95,3/20,79,98.0
8750,G#2,2977.1,1/10,79,98.0
8751,C2,2977.1,1/10,79,98.0
8752,F#2,2977.2,0.25,95,98.0
8753,G#2,2977.45,0.25,79,98.0
8754,C2,2977.45,0.25,79,98.0
8755,F#2,2977.7,0.25,95,98.0
8756,E2,2977.7,0.25,95,98.0
8757,G#2,2977.95,0.25,63,98.0
8758,F#2,2978.2,0.25,95,98.0
8759,G#2,2978.45,0.25,47,98.0
8760,F#2,2978.7,0.25,95,98.0
8761,C2,2978.7,0.25,95,98.0
8762,C#3,2978.7,0.25,95,98.0
8763,G#2,2978.95,0.25,63,98.0
8764,F#2,2979.2,0.25,95,98.0
8765,C#2,2979.2,0.25,95,98.0
8766,G#2,2979.45,0.25,95,98.0
8767,F#2,2979.7,0.25,95,98.0
8768,E2,2979.7,0.25,95,98.0
8769,G#2,2979.95,0.25,95,98.0
8770,C2,2979.95,0.25,95,98.0
8771,F#2,2980.2,0.25,95,98.0
8772,G#2,2980.45,0.25,95,98.0
8773,C2,2980.45,0.25,95,98.0
8774,F#2,2980.7,0.25,95,98.0
8775,G#2,2980.95,3/20,95,98.0
8776,G#2,2981.1,1/10,95,98.0
8777,F#2,2981.2,0.25,95,98.0
8778,G#2,2981.45,0.25,79,98.0
8779,C2,2981.45,0.25,79,98.0
8780,F#2,2981.7,0.25,95,98.0
8781,E2,2981.7,0.25,95,98.0
8782,G#2,2981.95,0.25,63,98.0
8783,F#2,2982.2,0.25,95,98.0
8784,G#2,2982.45,0.25,47,98.0
8785,F#2,2982.7,0.25,95,98.0
8786,C2,2982.7,0.25,95,98.0
8787,C#3,2982.7,0.25,95,98.0
8788,G#2,2982.95,0.25,63,98.0
8789,F#2,2983.2,0.25,95,98.0
8790,C#2,2983.2,0.25,95,98.0
8791,G#2,2983.45,0.25,95,98.0
8792,F#2,2983.7,0.25,95,98.0
8793,E2,2983.7,0.25,95,98.0
8794,G#2,2983.95,0.25,95,98.0
8795,F#2,2984.2,0.25,95,98.0
8796,G#2,2984.45,0.25,79,98.0
8797,C2,2984.45,0.25,79,98.0
8798,F#2,2984.7,0.25,95,98.0
8799,G#2,2984.95,0.125,84,98.0
8800,C2,2984.95,0.125,84,98.0
8801,A2,2984.95,0.125,84,98.0
8802,A2,2985.075,1/40,95,98.0
8803,A2,2985.1,1/10,95,98.0
8804,F#2,2985.2,0.25,95,98.0
8805,B2,2985.2,0.25,95,98.0
8806,G#2,2985.45,0.25,84,98.0
8807,C2,2985.45,0.25,84,98.0
8808,A2,2985.45,0.25,84,98.0
8809,F#2,2985.7,0.25,95,98.0
8810,E2,2985.7,0.25,95,98.0
8811,C2,2985.7,0.25,95,98.0
8812,C#3,2985.7,0.25,95,98.0
8813,G#2,2985.95,0.25,63,98.0
8814,F#2,2986.2,0.25,95,98.0
8815,C2,2986.2,0.25,95,98.0
8816,C#3,2986.2,0.25,95,98.0
8817,G#2,2986.45,0.25,47,98.0
8818,F#2,2986.7,0.25,95,98.0
8819,C2,2986.7,0.25,95,98.0
8820,C#3,2986.7,0.25,95,98.0
8821,G#2,2986.95,0.25,63,98.0
8822,F#2,2987.2,0.25,95,98.0
8823,C#2,2987.2,0.25,95,98.0
8824,G#2,2987.45,0.25,95,98.0
8825,F#2,2987.7,0.25,95,98.0
8826,E2,2987.7,0.25,95,98.0
8827,G#2,2987.95,0.25,95,98.0
8828,F#2,2988.2,0.25,95,98.0
8829,G#2,2988.45,0.25,79,98.0
8830,C2,2988.45,0.25,79,98.0
8831,F#2,2988.7,0.25,95,98.0
8832,G#2,2988.95,3/20,79,98.0
8833,C2,2988.95,3/20,79,98.0
8834,G#2,2989.1,1/10,79,98.0
8835,C2,2989.1,1/10,79,98.0
8836,F#2,2989.2,0.25,95,98.0
8837,G#2,2989.45,0.25,79,98.0
8838,C2,2989.45,0.25,79,98.0
8839,F#2,2989.7,0.25,95,98.0
8840,E2,2989.7,0.25,95,98.0
8841,G#2,2989.95,0.25,63,98.0
8842,F#2,2990.2,0.25,79,98.0
8843,C2,2990.2,0.25,79,98.0
8844,G#2,2990.45,0.25,47,98.0
8845,F#2,2990.7,0.25,95,98.0
8846,G#2,2990.95,0.25,63,98.0
8847,F#2,2991.2,0.25,95,98.0
8848,C#2,2991.2,0.25,95,98.0
8849,G#2,2991.45,0.25,95,98.0
8850,F#2,2991.7,0.25,95,98.0
8851,E2,2991.7,0.25,95,98.0
8852,G#2,2991.95,0.25,95,98.0
8853,F#2,2992.2,0.25,95,98.0
8854,G#2,2992.45,0.25,79,98.0
8855,C2,2992.45,0.25,79,98.0
8856,F#2,2992.7,0.25,95,98.0
8857,G#2,2992.95,3/20,79,98.0
8858,C2,2992.95,3/20,79,98.0
8859,G#2,2993.1,1/10,79,98.0
8860,C2,2993.1,1/10,79,98.0
8861,F#2,2993.2,0.25,95,98.0
8862,G#2,2993.45,0.25,79,98.0
8863,C2,2993.45,0.25,79,98.0
8864,F#2,2993.7,0.25,95,98.0
8865,E2,2993.7,0.25,95,98.0
8866,G#2,2993.95,0.25,63,98.0
8867,F#2,2994.2,0.25,95,98.0
8868,G#2,2994.45,0.25,47,98.0
8869,F#2,2994.7,0.25,95,98.0
8870,C2,2994.7,0.25,95,98.0
8871,C#3,2994.7,0.25,95,98.0
8872,G#2,2994.95,0.25,63,98.0
8873,F#2,2995.2,0.25,95,98.0
8874,C#2,2995.2,0.25,95,98.0
8875,G#2,2995.45,0.25,95,98.0
8876,F#2,2995.7,0.25,95,98.0
8877,E2,2995.7,0.25,95,98.0
8878,G#2,2995.95,0.25,95,98.0
8879,C2,2995.95,0.25,95,98.0
8880,F#2,2996.2,0.25,95,98.0
8881,G#2,2996.45,0.25,95,98.0
8882,C2,2996.45,0.25,95,98.0
8883,F#2,2996.7,0.25,95,98.0
8884,G#2,2996.95,3/20,95,98.0
8885,G#2,2997.1,1/10,95,98.0
8886,F#2,2997.2,0.25,95,98.0
8887,G#2,2997.45,0.25,79,98.0
8888,C2,2997.45,0.25,79,98.0
8889,F#2,2997.7,0.25,95,98.0
8890,E2,2997.7,0.25,95,98.0
8891,G#2,2997.95,0.25,63,98.0
8892,F#2,2998.2,0.25,95,98.0
8893,G#2,2998.45,0.25,47,98.0
8894,F#2,2998.7,0.25,95,98.0
8895,C2,2998.7,0.25,95,98.0
8896,C#3,2998.7,0.25,95,98.0
8897,G#2,2998.95,0.25,63,98.0
8898,F#2,2999.2,0.25,95,98.0
8899,C#2,2999.2,0.25,95,98.0
8900,G#2,2999.45,0.25,95,98.0
8901,F#2,2999.7,0.25,95,98.0
8902,E2,2999.7,0.25,95,98.0
8903,G#2,2999.95,0.25,95,98.0
8904,F#2,3000.2,0.25,95,98.0
8905,G#2,3000.45,0.25,79,98.0
8906,C2,3000.45,0.25,79,98.0
8907,F#2,3000.7,0.25,95,98.0
8908,G#2,3000.95,0.125,84,98.0
8909,C2,3000.95,0.125,84,98.0
8910,A2,3000.95,0.125,84,98.0
8911,A2,3001.075,1/40,95,98.0
8912,A2,3001.1,1/10,95,98.0
8913,F#2,3001.2,0.25,95,98.0
8914,B2,3001.2,0.25,95,98.0
8915,G#2,3001.45,0.25,84,98.0
8916,C2,3001.45,0.25,84,98.0
8917,A2,3001.45,0.25,84,98.0
8918,F#2,3001.7,0.25,95,98.0
8919,E2,3001.7,0.25,95,98.0
8920,C2,3001.7,0.25,95,98.0
8921,C#3,3001.7,0.25,95,98.0
8922,G#2,3001.95,0.25,63,98.0
8923,F#2,3002.2,0.25,95,98.0
8924,C2,3002.2,0.25,95,98.0
8925,C#3,3002.2,0.25,95,98.0
8926,G#2,3002.45,0.25,47,98.0
8927,F#2,3002.7,0.25,95,98.0
8928,C2,3002.7,0.25,95,98.0
8929,C#3,3002.7,0.25,95,98.0
8930,G#2,3002.95,0.25,63,98.0
8931,F#2,3003.2,0.25,95,98.0
8932,C#2,3003.2,0.25,95,98.0
8933,G#2,3003.45,0.25,95,98.0
8934,F#2,3003.7,0.25,95,98.0
8935,E2,3003.7,0.25,95,98.0
8936,G#2,3003.95,0.25,95,98.0
8937,F#2,3004.2,0.25,95,98.0
8938,G#2,3004.45,0.25,79,98.0
8939,C2,3004.45,0.25,79,98.0
8940,F#2,3004.7,0.25,95,98.0
8941,G#2,3004.95,3/20,79,98.0
8942,C2,3004.95,3/20,79,98.0
8943,G#2,3005.1,1/10,79,98.0
8944,C2,3005.1,1/10,79,98.0
8945,F#2,3005.2,0.25,95,98.0
8946,G#2,3005.45,0.25,79,98.0
8947,C2,3005.45,0.25,79,98.0
8948,F#2,3005.7,0.25,95,98.0
8949,E2,3005.7,0.25,95,98.0
8950,G#2,3005.95,0.25,63,98.0
8951,F#2,3006.2,0.25,79,98.0
8952,C2,3006.2,0.25,79,98.0
8953,G#2,3006.45,0.25,47,98.0
8954,F#2,3006.7,0.25,95,98.0
8955,G#2,3006.95,0.25,63,98.0
8956,F#2,3007.2,0.25,95,98.0
8957,C#2,3007.2,0.25,95,98.0
8958,G#2,3007.45,0.25,95,98.0
8959,F#2,3007.7,0.25,95,98.0
8960,E2,3007.7,0.25,95,98.0
8961,G#2,3007.95,0.25,95,98.0
8962,F#2,3008.2,0.25,95,98.0
8963,G#2,3008.45,0.25,79,98.0
8964,C2,3008.45,0.25,79,98.0
8965,F#2,3008.7,0.25,95,98.0
8966,G#2,3008.95,3/20,79,98.0
8967,C2,3008.95,3/20,79,98.0
8968,G#2,3009.1,1/10,79,98.0
8969,C2,3009.1,1/10,79,98.0
8970,F#2,3009.2,0.25,95,98.0
8971,G#2,3009.45,0.25,79,98.0
8972,C2,3009.45,0.25,79,98.0
8973,F#2,3009.7,0.25,95,98.0
8974,E2,3009.7,0.25,95,98.0
8975,G#2,3009.95,0.25,63,98.0
8976,F#2,3010.2,0.25,95,98.0
8977,G#2,3010.45,0.25,47,98.0
8978,F#2,3010.7,0.25,95,98.0
8979,C2,3010.7,0.25,95,98.0
8980,C#3,3010.7,0.25,95,98.0
8981,G#2,3010.95,0.25,63,98.0
8982,F#2,3011.2,0.25,95,98.0
8983,C#2,3011.2,0.25,95,98.0
8984,G#2,3011.45,0.25,95,98.0
8985,F#2,3011.7,0.25,95,98.0
8986,E2,3011.7,0.25,95,98.0
8987,G#2,3011.95,0.25,95,98.0
8988,C2,3011.95,0.25,95,98.0
8989,F#2,3012.2,0.25,95,98.0
8990,G#2,3012.45,0.25,95,98.0
8991,C2,3012.45,0.25,95,98.0
8992,F#2,3012.7,0.25,95,98.0
8993,G#2,3012.95,3/20,95,98.0
8994,G#2,3013.1,1/10,95,98.0
8995,F#2,3013.2,0.25,95,98.0
8996,G#2,3013.45,0.25,79,98.0
8997,C2,3013.45,0.25,79,98.0
8998,F#2,3013.7,0.25,95,98.0
8999,E2,3013.7,0.25,95,98.0
9000,G#2,3013.95,0.25,63,98.0
9001,F#2,3014.2,0.25,95,98.0
9002,G#2,3014.45,0.25,47,98.0
9003,F#2,3014.7,0.25,95,98.0
9004,C2,3014.7,0.25,95,98.0
9005,C#3,3014.7,0.25,95,98.0
9006,G#2,3014.95,0.25,63,98.0
9007,F#2,3015.2,0.25,95,98.0
9008,C#2,3015.2,0.25,95,98.0
9009,G#2,3015.45,0.25,95,98.0
9010,F#2,3015.7,0.25,95,98.0
9011,E2,3015.7,0.25,95,98.0
9012,G#2,3015.95,0.25,95,98.0
9013,F#2,3016.2,0.25,95,98.0
9014,G#2,3016.45,0.25,79,98.0
9015,C2,3016.45,0.25,79,98.0
9016,F#2,3016.7,0.25,95,98.0
9017,G#2,3016.95,0.125,84,98.0
9018,C2,3016.95,0.125,84,98.0
9019,A2,3016.95,0.125,84,98.0
9020,A2,3017.075,1/40,95,98.0
9021,A2,3017.1,1/10,95,98.0
9022,F#2,3017.2,0.25,95,98.0
9023,B2,3017.2,0.25,95,98.0
9024,G#2,3017.45,0.25,84,98.0
9025,C2,3017.45,0.25,84,98.0
9026,A2,3017.45,0.25,84,98.0
9027,F#2,3017.7,0.25,95,98.0
9028,E2,3017.7,0.25,95,98.0
9029,C2,3017.7,0.25,95,98.0
9030,C#3,3017.7,0.25,95,98.0
9031,G#2,3017.95,0.25,63,98.0
9032,F#2,3018.2,0.25,95,98.0
9033,C2,3018.2,0.25,95,98.0
9034,C#3,3018.2,0.25,95,98.0
9035,G#2,3018.45,0.25,47,98.0
9036,F#2,3018.7,0.25,95,98.0
9037,C2,3018.7,0.25,95,98.0
9038,C#3,3018.7,0.25,95,98.0
9039,G#2,3018.95,0.25,63,98.0
9040,F#2,3019.2,0.25,95,98.0
9041,C#2,3019.2,0.25,95,98.0
9042,G#2,3019.45,0.25,95,98.0
9043,F#2,3019.7,0.25,95,98.0
9044,E2,3019.7,0.25,95,98.0
9045,G#2,3019.95,0.25,95,98.0
9046,F#2,3020.2,0.25,95,98.0
9047,G#2,3020.45,0.25,79,98.0
9048,C2,3020.45,0.25,79,98.0
9049,F#2,3020.7,0.25,95,98.0
9050,G#2,3020.95,3/20,79,98.0
9051,C2,3020.95,3/20,79,98.0
9052,G#2,3021.1,1/10,79,98.0
9053,C2,3021.1,1/10,79,98.0
9054,F#2,3021.2,0.25,95,98.0
9055,G#2,3021.45,0.25,79,98.0
9056,C2,3021.45,0.25,79,98.0
9057,F#2,3021.7,0.25,95,98.0
9058,E2,3021.7,0.25,95,98.0
9059,G#2,3021.95,0.25,63,98.0
9060,F#2,3022.2,0.25,79,98.0
9061,C2,3022.2,0.25,79,98.0
9062,G#2,3022.45,0.25,47,98.0
9063,F#2,3022.7,0.25,95,98.0
9064,G#2,3022.95,0.25,63,98.0
9065,F#2,3023.2,0.25,95,98.0
9066,C#2,3023.2,0.25,95,98.0
9067,G#2,3023.45,0.25,95,98.0
9068,F#2,3023.7,0.25,95,98.0
9069,E2,3023.7,0.25,95,98.0
9070,G#2,3023.95,0.25,95,98.0
9071,F#2,3024.2,0.25,95,98.0
9072,G#2,3024.45,0.25,79,98.0
9073,C2,3024.45,0.25,79,98.0
9074,F#2,3024.7,0.25,95,98.0
9075,G#2,3024.95,3/20,79,98.0
9076,C2,3024.95,3/20,79,98.0
9077,G#2,3025.1,1/10,79,98.0
9078,C2,3025.1,1/10,79,98.0
9079,F#2,3025.2,0.25,95,98.0
9080,G#2,3025.45,0.25,79,98.0
9081,C2,3025.45,0.25,79,98.0
9082,F#2,3025.7,0.25,95,98.0
9083,E2,3025.7,0.25,95,98.0
9084,G#2,3025.95,0.25,63,98.0
9085,F#2,3026.2,0.25,95,98.0
9086,G#2,3026.45,0.25,47,98.0
9087,F#2,3026.7,0.25,95,98.0
9088,C2,3026.7,0.25,95,98.0
9089,C#3,3026.7,0.25,95,98.0
9090,G#2,3026.95,0.25,63,98.0
9091,F#2,3027.2,0.25,95,98.0
9092,C#2,3027.2,0.25,95,98.0
9093,G#2,3027.45,0.25,95,98.0
9094,F#2,3027.7,0.25,95,98.0
9095,E2,3027.7,0.25,95,98.0
9096,G#2,3027.95,0.25,95,98.0
9097,C2,3027.95,0.25,95,98.0
9098,F#2,3028.2,0.25,95,98.0
9099,G#2,3028.45,0.25,95,98.0
9100,C2,3028.45,0.25,95,98.0
9101,F#2,3028.7,0.25,95,98.0
9102,G#2,3028.95,3/20,95,98.0
9103,G#2,3029.1,1/10,95,98.0
9104,F#2,3029.2,0.25,95,98.0
9105,G#2,3029.45,0.25,79,98.0
9106,C2,3029.45,0.25,79,98.0
9107,F#2,3029.7,0.25,95,98.0
9108,E2,3029.7,0.25,95,98.0
9109,G#2,3029.95,0.25,63,98.0
9110,F#2,3030.2,0.25,95,98.0
9111,G#2,3030.45,0.25,47,98.0
9112,F#2,3030.7,0.25,95,98.0
9113,C2,3030.7,0.25,95,98.0
9114,C#3,3030.7,0.25,95,98.0
9115,G#2,3030.95,0.25,63,98.0
9116,F#2,3031.2,0.25,95,98.0
9117,C#2,3031.2,0.25,95,98.0
9118,G#2,3031.45,0.25,95,98.0
9119,F#2,3031.7,0.25,95,98.0
9120,E2,3031.7,0.25,95,98.0
9121,G#2,3031.95,0.25,95,98.0
9122,F#2,3032.2,0.25,95,98.0
9123,G#2,3032.45,0.25,79,98.0
9124,C2,3032.45,0.25,79,98.0
9125,F#2,3032.7,0.25,95,98.0
9126,G#2,3032.95,0.125,84,98.0
9127,C2,3032.95,0.125,84,98.0
9128,A2,3032.95,0.125,84,98.0
9129,A2,3033.075,1/40,95,98.0
9130,A2,3033.1,1/10,95,98.0
9131,F#2,3033.2,0.25,95,98.0
9132,B2,3033.2,0.25,95,98.0
9133,G#2,3033.45,0.25,84,98.0
9134,C2,3033.45,0.25,84,98.0
9135,A2,3033.45,0.25,84,98.0
9136,F#2,3033.7,0.25,95,98.0
9137,E2,3033.7,0.25,95,98.0
9138,C2,3033.7,0.25,95,98.0
9139,C#3,3033.7,0.25,95,98.0
9140,G#2,3033.95,0.25,63,98.0
9141,F#2,3034.2,0.25,95,98.0
9142,C2,3034.2,0.25,95,98.0
9143,C#3,3034.2,0.25,95,98.0
9144,G#2,3034.45,0.25,47,98.0
9145,F#2,3034.7,0.25,95,98.0
9146,C2,3034.7,0.25,95,98.0
9147,C#3,3034.7,0.25,95,98.0
9148,G#2,3034.95,0.25,63,98.0
9149,F#2,3035.2,0.25,95,98.0
9150,C#2,3035.2,0.25,95,98.0
9151,G#2,3035.45,0.25,95,98.0
9152,F#2,3035.7,0.25,95,98.0
9153,E2,3035.7,0.25,95,98.0
9154,G#2,3035.95,0.25,95,98.0
9155,F#2,3036.2,0.25,95,98.0
9156,G#2,3036.45,0.25,79,98.0
9157,C2,3036.45,0.25,79,98.0
9158,F#2,3036.7,0.25,95,98.0
9159,G#2,3036.95,3/20,79,98.0
9160,C2,3036.95,3/20,79,98.0
9161,G#2,3037.1,1/10,79,98.0
9162,C2,3037.1,1/10,79,98.0
9163,F#2,3037.2,0.25,95,98.0
9164,G#2,3037.45,0.25,79,98.0
9165,C2,3037.45,0.25,79,98.0
9166,F#2,3037.7,0.25,95,98.0
9167,E2,3037.7,0.25,95,98.0
9168,G#2,3037.95,0.25,63,98.0
9169,F#2,3038.2,0.25,79,98.0
9170,C2,3038.2,0.25,79,98.0
9171,G#2,3038.45,0.25,47,98.0
9172,F#2,3038.7,0.25,95,98.0
9173,G#2,3038.95,0.25,63,98.0
9174,F#2,3039.2,0.25,95,98.0
9175,C#2,3039.2,0.25,95,98.0
9176,G#2,3039.45,0.25,95,98.0
9177,F#2,3039.7,0.25,95,98.0
9178,E2,3039.7,0.25,95,98.0
9179,G#2,3039.95,0.25,95,98.0
9180,F#2,3040.2,0.25,95,98.0
9181,G#2,3040.45,0.25,79,98.0
9182,C2,3040.45,0.25,79,98.0
9183,F#2,3040.7,0.25,95,98.0
9184,G#2,3040.95,3/20,79,98.0
9185,C2,3040.95,3/20,79,98.0
9186,G#2,3041.1,1/10,79,98.0
9187,C2,3041.1,1/10,79,98.0
9188,F#2,3041.2,0.25,95,98.0
9189,G#2,3041.45,0.25,79,98.0
9190,C2,3041.45,0.25,79,98.0
9191,F#2,3041.7,0.25,95,98.0
9192,E2,3041.7,0.25,95,98.0
9193,G#2,3041.95,0.25,63,98.0
9194,F#2,3042.2,0.25,95,98.0
9195,G#2,3042.45,0.25,47,98.0
9196,F#2,3042.7,0.25,95,98.0
9197,C2,3042.7,0.25,95,98.0
9198,C#3,3042.7,0.25,95,98.0
9199,G#2,3042.95,0.25,63,98.0
9200,F#2,3043.2,0.25,95,98.0
9201,C#2,3043.2,0.25,95,98.0
9202,G#2,3043.45,0.25,95,98.0
9203,F#2,3043.7,0.25,95,98.0
9204,E2,3043.7,0.25,95,98.0
9205,G#2,3043.95,0.25,95,98.0
9206,C2,3043.95,0.25,95,98.0
9207,F#2,3044.2,0.25,95,98.0
9208,G#2,3044.45,0.25,95,98.0
9209,C2,3044.45,0.25,95,98.0
9210,F#2,3044.7,0.25,95,98.0
9211,G#2,3044.95,3/20,95,98.0
9212,G#2,3045.1,1/10,95,98.0
9213,F#2,3045.2,0.25,95,98.0
9214,G#2,3045.45,0.25,79,98.0
9215,C2,3045.45,0.25,79,98.0
9216,F#2,3045.7,0.25,95,98.0
9217,E2,3045.7,0.25,95,98.0
9218,G#2,3045.95,0.25,63,98.0
9219,F#2,3046.2,0.25,95,98.0
9220,G#2,3046.45,0.25,47,98.0
9221,F#2,3046.7,0.25,95,98.0
9222,C2,3046.7,0.25,95,98.0
9223,C#3,3046.7,0.25,95,98.0
9224,G#2,3046.95,0.25,63,98.0
9225,F#2,3047.2,0.25,95,98.0
9226,C#2,3047.2,0.25,95,98.0
9227,G#2,3047.45,0.25,95,98.0
9228,F#2,3047.7,0.25,95,98.0
9229,E2,3047.7,0.25,95,98.0
9230,G#2,3047.95,0.25,95,98.0
9231,F#2,3048.2,0.25,95,98.0
9232,G#2,3048.45,0.25,79,98.0
9233,C2,3048.45,0.25,79,98.0
9234,F#2,3048.7,0.25,95,98.0
9235,G#2,3048.95,0.125,84,98.0
9236,C2,3048.95,0.125,84,98.0
9237,A2,3048.95,0.125,84,98.0
9238,A2,3049.075,1/40,95,98.0
9239,A2,3049.1,1/10,95,98.0
9240,F#2,3049.2,0.25,95,98.0
9241,B2,3049.2,0.25,95,98.0
9242,G#2,3049.45,0.25,84,98.0
9243,C2,3049.45,0.25,84,98.0
9244,A2,3049.45,0.25,84,98.0
9245,F#2,3049.7,0.25,95,98.0
9246,E2,3049.7,0.25,95,98.0
9247,C2,3049.7,0.25,95,98.0
9248,C#3,3049.7,0.25,95,98.0
9249,G#2,3049.95,0.25,63,98.0
9250,F#2,3050.2,0.25,95,98.0
9251,C2,3050.2,0.25,95,98.0
9252,C#3,3050.2,0.25,95,98.0
9253,G#2,3050.45,0.25,47,98.0
9254,F#2,3050.7,0.25,95,98.0
9255,C2,3050.7,0.25,95,98.0
9256,C#3,3050.7,0.25,95,98.0
9257,G#2,3050.95,0.25,63,98.0
9258,F#2,3051.2,0.25,95,98.0
9259,C#2,3051.2,0.25,95,98.0
9260,G#2,3051.45,0.25,95,98.0
9261,F#2,3051.7,0.25,95,98.0
9262,E2,3051.7,0.25,95,98.0
9263,G#2,3051.95,0.25,95,98.0
9264,F#2,3052.2,0.25,95,98.0
9265,G#2,3052.45,0.25,79,98.0
9266,C2,3052.45,0.25,79,98.0
9267,F#2,3052.7,0.25,95,98.0
9268,G#2,3052.95,3/20,79,98.0
9269,C2,3052.95,3/20,79,98.0
9270,G#2,3053.1,1/10,79,98.0
9271,C2,3053.1,1/10,79,98.0
9272,F#2,3053.2,0.25,95,98.0
9273,G#2,3053.45,0.25,79,98.0
9274,C2,3053.45,0.25,79,98.0
9275,F#2,3053.7,0.25,95,98.0
9276,E2,3053.7,0.25,95,98.0
9277,G#2,3053.95,0.25,63,98.0
9278,F#2,3054.2,0.25,79,98.0
9279,C2,3054.2,0.25,79,98.0
9280,G#2,3054.45,0.25,47,98.0
9281,F#2,3054.7,0.25,95,98.0
9282,G#2,3054.95,0.25,63,98.0
9283,F#2,3055.2,0.25,95,98.0
9284,C#2,3055.2,0.25,95,98.0
9285,G#2,3055.45,0.25,95,98.0
9286,F#2,3055.7,0.25,95,98.0
9287,E2,3055.7,0.25,95,98.0
9288,G#2,3055.95,0.25,95,98.0
9289,F#2,3056.2,0.25,95,98.0
9290,G#2,3056.45,0.25,79,98.0
9291,C2,3056.45,0.25,79,98.0
9292,F#2,3056.7,0.25,95,98.0
9293,G#2,3056.95,3/20,79,98.0
9294,C2,3056.95,3/20,79,98.0
9295,G#2,3057.1,1/10,79,98.0
9296,C2,3057.1,1/10,79,98.0
9297,F#2,3057.2,0.25,95,98.0
9298,G#2,3057.45,0.25,79,98.0
9299,C2,3057.45,0.25,79,98.0
9300,F#2,3057.7,0.25,95,98.0
9301,E2,3057.7,0.25,95,98.0
9302,G#2,3057.95,0.25,63,98.0
9303,F#2,3058.2,0.25,95,98.0
9304,G#2,3058.45,0.25,47,98.0
9305,F#2,3058.7,0.25,95,98.0
9306,C2,3058.7,0.25,95,98.0
9307,C#3,3058.7,0.25,95,98.0
9308,G#2,3058.95,0.25,63,98.0
9309,F#2,3059.2,0.25,95,98.0
9310,C#2,3059.2,0.25,95,98.0
9311,G#2,3059.45,0.25,95,98.0
9312,F#2,3059.7,0.25,95,98.0
9313,E2,3059.7,0.25,95,98.0
9314,G#2,3059.95,0.25,95,98.0
9315,C2,3059.95,0.25,95,98.0
9316,F#2,3060.2,0.25,95,98.0
9317,G#2,3060.45,0.25,95,98.0
9318,C2,3060.45,0.25,95,98.0
9319,F#2,3060.7,0.25,95,98.0
9320,G#2,3060.95,3/20,95,98.0
9321,G#2,3061.1,1/10,95,98.0
9322,F#2,3061.2,0.25,95,98.0
9323,G#2,3061.45,0.25,79,98.0
9324,C2,3061.45,0.25,79,98.0
9325,F#2,3061.7,0.25,95,98.0
9326,E2,3061.7,0.25,95,98.0
9327,G#2,3061.95,0.25,63,98.0
9328,F#2,3062.2,0.25,95,98.0
9329,G#2,3062.45,0.25,47,98.0
9330,F#2,3062.7,0.25,95,98.0
9331,C2,3062.7,0.25,95,98.0
9332,C#3,3062.7,0.25,95,98.0
9333,G#2,3062.95,0.25,63,98.0
9334,F#2,3063.2,0.25,95,98.0
9335,C#2,3063.2,0.25,95,98.0
9336,G#2,3063.45,0.25,95,98.0
9337,F#2,3063.7,0.25,95,98.0
9338,E2,3063.7,0.25,95,98.0
9339,G#2,3063.95,0.25,95,98.0
9340,F#2,3064.2,0.25,95,98.0
9341,G#2,3064.45,0.25,79,98.0
9342,C2,3064.45,0.25,79,98.0
9343,F#2,3064.7,0.25,95,98.0
9344,G#2,3064.95,0.125,84,98.0
9345,C2,3064.95,0.125,84,98.0
9346,A2,3064.95,0.125,84,98.0
9347,A2,3065.075,1/40,95,98.0
9348,A2,3065.1,1/10,95,98.0
9349,F#2,3065.2,0.25,95,98.0
9350,B2,3065.2,0.25,95,98.0
9351,G#2,3065.45,0.25,84,98.0
9352,C2,3065.45,0.25,84,98.0
9353,A2,3065.45,0.25,84,98.0
9354,F#2,3065.7,0.25,95,98.0
9355,E2,3065.7,0.25,95,98.0
9356,C2,3065.7,0.25,95,98.0
9357,C#3,3065.7,0.25,95,98.0
9358,G#2,3065.95,0.25,63,98.0
9359,F#2,3066.2,0.25,95,98.0
9360,C2,3066.2,0.25,95,98.0
9361,C#3,3066.2,0.25,95,98.0
9362,G#2,3066.45,0.25,47,98.0
9363,F#2,3066.7,0.25,95,98.0
9364,C2,3066.7,0.25,95,98.0
9365,C#3,3066.7,0.25,95,98.0
9366,G#2,3066.95,0.25,63,98.0
9367,F#2,3067.2,0.25,95,98.0
9368,C#2,3067.2,0.25,95,98.0
9369,G#2,3067.45,0.25,95,98.0
9370,F#2,3067.7,0.25,95,98.0
9371,E2,3067.7,0.25,95,98.0
9372,G#2,3067.95,0.25,95,98.0
9373,F#2,3068.2,0.25,95,98.0
9374,G#2,3068.45,0.25,79,98.0
9375,C2,3068.45,0.25,79,98.0
9376,F#2,3068.7,0.25,95,98.0
9377,G#2,3068.95,3/20,79,98.0
9378,C2,3068.95,3/20,79,98.0
9379,G#2,3069.1,1/10,79,98.0
9380,C2,3069.1,1/10,79,98.0
9381,F#2,3069.2,0.25,95,98.0
9382,G#2,3069.45,0.25,79,98.0
9383,C2,3069.45,0.25,79,98.0
9384,F#2,3069.7,0.25,95,98.0
9385,E2,3069.7,0.25,95,98.0
9386,G#2,3069.95,0.25,63,98.0
9387,F#2,3070.2,0.25,79,98.0
9388,C2,3070.2,0.25,79,98.0
9389,G#2,3070.45,0.25,47,98.0
9390,F#2,3070.7,0.25,95,98.0
9391,G#2,3070.95,0.25,63,98.0
9392,F#2,3071.2,0.25,95,98.0
9393,C#2,3071.2,0.25,95,98.0
9394,G#2,3071.45,0.25,95,98.0
9395,F#2,3071.7,0.25,95,98.0
9396,E2,3071.7,0.25,95,98.0
9397,G#2,3071.95,0.25,95,98.0
9398,F#2,3072.2,0.25,95,98.0
9399,G#2,3072.45,0.25,79,98.0
9400,C2,3072.45,0.25,79,98.0
9401,F#2,3072.7,0.25,95,98.0
9402,G#2,3072.95,3/20,79,98.0
9403,C2,3072.95,3/20,79,98.0
9404,G#2,3073.1,1/10,79,98.0
9405,C2,3073.1,1/10,79,98.0
9406,F#2,3073.2,0.25,95,98.0
9407,G#2,3073.45,0.25,79,98.0
9408,C2,3073.45,0.25,79,98.0
9409,F#2,3073.7,0.25,95,98.0
9410,E2,3073.7,0.25,95,98.0
9411,G#2,3073.95,0.25,63,98.0
9412,F#2,3074.2,0.25,95,98.0
9413,G#2,3074.45,0.25,47,98.0
9414,F#2,3074.7,0.25,95,98.0
9415,C2,3074.7,0.25,95,98.0
9416,C#3,3074.7,0.25,95,98.0
9417,G#2,3074.95,0.25,63,98.0
9418,F#2,3075.2,0.25,95,98.0
9419,C#2,3075.2,0.25,95,98.0
9420,G#2,3075.45,0.25,95,98.0
9421,F#2,3075.7,0.25,95,98.0
9422,E2,3075.7,0.25,95,98.0
9423,G#2,3075.95,0.25,95,98.0
9424,C2,3075.95,0.25,95,98.0
9425,F#2,3076.2,0.25,95,98.0
9426,G#2,3076.45,0.25,95,98.0
9427,C2,3076.45,0.25,95,98.0
9428,F#2,3076.7,0.25,95,98.0
9429,G#2,3076.95,3/20,95,98.0
9430,G#2,3077.1,1/10,95,98.0
9431,F#2,3077.2,0.25,95,98.0
9432,G#2,3077.45,0.25,79,98.0
9433,C2,3077.45,0.25,79,98.0
9434,F#2,3077.7,0.25,95,98.0
9435,E2,3077.7,0.25,95,98.0
9436,G#2,3077.95,0.25,63,98.0
9437,F#2,3078.2,0.25,95,98.0
9438,G#2,3078.45,0.25,47,98.0
9439,F#2,3078.7,0.25,95,98.0
9440,C2,3078.7,0.25,95,98.0
9441,C#3,3078.7,0.25,95,98.0
9442,G#2,3078.95,0.25,63,98.0
9443,F#2,3079.2,0.25,95,98.0
9444,C#2,3079.2,0.25,95,98.0
9445,G#2,3079.45,0.25,95,98.0
9446,F#2,3079.7,0.25,95,98.0
9447,E2,3079.7,0.25,95,98.0
9448,G#2,3079.95,0.25,95,98.0
9449,F#2,3080.2,0.25,95,98.0
9450,G#2,3080.45,0.25,79,98.0
9451,C2,3080.45,0.25,79,98.0
9452,F#2,3080.7,0.25,95,98.0
9453,G#2,3080.95,0.125,84,98.0
9454,C2,3080.95,0.125,84,98.0
9455,A2,3080.95,0.125,84,98.0
9456,A2,3081.075,1/40,95,98.0
9457,A2,3081.1,1/10,95,98.0
9458,F#2,3081.2,0.25,95,98.0
9459,B2,3081.2,0.25,95,98.0
9460,G#2,3081.45,0.25,84,98.0
9461,C2,3081.45,0.25,84,98.0
9462,A2,3081.45,0.25,84,98.0
9463,F#2,3081.7,0.25,95,98.0
9464,E2,3081.7,0.25,95,98.0
9465,C2,3081.7,0.25,95,98.0
9466,C#3,3081.7,0.25,95,98.0
9467,G#2,3081.95,0.25,63,98.0
9468,F#2,3082.2,0.25,95,98.0
9469,C2,3082.2,0.25,95,98.0
9470,C#3,3082.2,0.25,95,98.0
9471,G#2,3082.45,0.25,47,98.0
