,note_name,start_time,duration,velocity,tempo
0,G4,2.0,0.5,95,112.0
1,D4,2.0,0.5,95,112.0
2,B2,2.5,0.5,95,112.0
3,G4,2.5,0.5,95,112.0
4,D4,2.5,0.5,95,112.0
5,D3,3.0,0.5,95,112.0
6,G4,3.0,0.25,95,112.0
7,D4,3.0,0.25,95,112.0
8,E4,3.25,0.75,70,112.0
9,B3,3.25,0.75,70,112.0
10,E3,3.5,0.5,95,112.0
11,D4,4.0,0.25,95,112.0
12,E3,4.0,0.5,95,112.0
13,E4,4.25,0.75,95,112.0
14,E3,4.5,0.5,95,112.0
15,B-4,4.812,0.188,95,112.0
16,F4,4.875,0.125,95,112.0
17,C#4,4.875,0.125,95,112.0
18,G4,5.0,1.0,95,112.0
19,C#3,5.0,0.5,95,112.0
20,B4,5.0,1.0,95,112.0
21,F#4,5.0,1.0,95,112.0
22,D4,5.0,1.0,95,112.0
23,D3,6.0,0.5,95,112.0
24,F#4,6.0,0.5,95,112.0
25,A4,6.375,0.125,95,112.0
26,A4,6.5,1.5,95,112.0
27,B4,6.5,0.5,95,112.0
28,F#4,6.5,0.5,95,112.0
29,C#3,7.0,0.5,95,112.0
30,B2,7.5,0.5,95,112.0
31,A4,8.0,0.5,95,112.0
32,E2,8.0,29/500,95,112.0
33,B3,8.5,0.5,95,112.0
34,E3,8.5,0.5,95,112.0
35,B4,8.5,0.5,95,112.0
36,G4,8.5,0.5,95,112.0
37,E4,8.5,0.5,95,112.0
38,A4,9.0,0.5,95,112.0
39,C#3,9.0,0.5,95,112.0
40,A3,9.5,0.25,95,112.0
41,B3,9.75,0.25,95,112.0
42,D4,10.0,0.5,95,112.0
43,D3,10.0,0.5,95,112.0
44,B4,10.0,0.5,95,112.0
45,F#4,10.0,0.5,95,112.0
46,D4,10.0,0.5,95,112.0
47,G4,10.5,0.5,95,112.0
48,B4,10.5,0.5,95,112.0
49,F#4,10.5,0.5,95,112.0
50,E4,11.0,0.25,95,112.0
51,C#3,11.0,0.5,95,112.0
52,G#2,11.0,0.5,95,112.0
53,D4,11.25,0.25,70,112.0
54,B3,11.5,0.5,95,112.0
55,E3,11.5,0.5,95,112.0
56,E3,11.5,0.5,95,112.0
57,B3,11.875,0.125,95,112.0
58,A3,12.0,0.5,95,112.0
59,E3,12.0,0.5,95,112.0
60,E2,12.0,1.0,95,112.0
61,G3,12.5,0.5,95,112.0
62,E3,12.5,0.5,95,112.0
63,B-4,12.812,0.188,95,112.0
64,F4,12.875,0.125,95,112.0
65,C#4,12.875,0.125,95,112.0
66,A3,13.0,0.25,95,112.0
67,C#3,13.0,0.5,95,112.0
68,B4,13.0,1.0,95,112.0
69,F#4,13.0,1.0,95,112.0
70,D4,13.0,1.0,95,112.0
71,G3,13.25,0.25,95,112.0
72,E3,13.5,0.5,95,112.0
73,D3,14.0,0.5,95,112.0
74,F#4,14.0,0.5,95,112.0
75,B2,14.5,0.5,95,112.0
76,B4,14.5,0.5,95,112.0
77,F#4,14.5,0.5,95,112.0
78,A2,15.0,0.5,95,112.0
79,C#3,15.0,0.5,95,112.0
80,G2,15.5,0.5,95,112.0
81,B2,15.5,0.5,95,112.0
82,E3,16.0,1.0,95,112.0
83,E2,16.0,0.5,95,112.0
84,E3,16.5,0.5,95,112.0
85,B4,16.5,0.5,95,112.0
86,F#4,16.5,0.5,95,112.0
87,D4,16.5,0.5,95,112.0
88,C#3,17.0,0.5,95,112.0
89,C#3,17.0,0.5,95,112.0
90,E4,17.5,1.5,95,112.0
91,B-4,17.875,0.125,95,112.0
92,F4,17.875,0.125,95,112.0
93,C#4,17.875,0.125,95,112.0
94,D3,18.0,0.25,95,112.0
95,B4,18.0,0.5,95,112.0
96,F#4,18.0,0.5,95,112.0
97,D4,18.0,0.5,95,112.0
98,C#3,18.25,0.25,95,112.0
99,B2,18.5,0.5,95,112.0
100,B4,18.5,0.5,95,112.0
101,F#4,18.5,0.5,95,112.0
102,D4,18.5,0.5,95,112.0
103,G2,19.0,0.5,95,112.0
104,G#3,19.0,1.0,95,112.0
105,C#3,19.0,1.0,95,112.0
106,G2,19.5,0.5,95,112.0
107,E2,20.0,0.5,95,112.0
108,D4,20.375,0.125,95,112.0
109,E4,20.5,0.5,95,112.0
110,E3,20.5,0.5,95,112.0
111,C#5,21.0,0.5,95,112.0
112,C#3,21.0,0.5,95,112.0
113,B4,21.0,1.5,95,112.0
114,F#4,21.0,1.5,95,112.0
115,D4,21.0,1.5,95,112.0
116,D4,21.5,0.5,95,112.0
117,B4,22.0,0.5,95,112.0
118,D3,22.0,0.5,95,112.0
119,B4,22.5,0.5,95,112.0
120,F#4,22.5,0.5,95,112.0
121,D4,22.5,0.5,95,112.0
122,G4,22.875,0.125,95,112.0
123,G#4,23.0,0.125,95,112.0
124,C#3,23.0,0.5,95,112.0
125,G4,23.125,0.125,95,112.0
126,G#4,23.25,0.125,95,112.0
127,G4,23.375,0.125,95,112.0
128,G#4,23.5,0.125,95,112.0
129,B2,23.5,0.5,95,112.0
130,G4,23.625,0.125,95,112.0
131,G#4,23.75,0.125,95,112.0
132,G4,23.875,31/250,95,112.0
133,E2,24.0,0.5,95,112.0
134,D4,24.375,0.125,95,112.0
135,E4,24.5,0.5,95,112.0
136,E3,24.5,0.5,95,112.0
137,B4,24.5,0.5,95,112.0
138,F#4,24.5,0.5,95,112.0
139,D4,24.5,0.5,95,112.0
140,C#5,25.0,0.5,95,112.0
141,C#3,25.0,0.5,95,112.0
142,D4,25.5,0.5,95,112.0
143,E4,25.5,29/500,95,112.0
144,B3,25.5,29/500,95,112.0
145,G3,25.5,29/500,95,112.0
146,B4,26.0,0.5,95,112.0
147,D3,26.0,0.5,95,112.0
148,B4,26.0,0.5,95,112.0
149,F#4,26.0,0.5,95,112.0
150,D4,26.0,0.5,95,112.0
151,B3,26.5,0.5,95,112.0
152,B4,26.5,0.5,95,112.0
153,F#4,26.5,0.5,95,112.0
154,D4,26.5,0.5,95,112.0
155,G4,26.875,0.125,95,112.0
156,G#4,27.0,0.125,95,112.0
157,C#3,27.0,0.5,95,112.0
158,G4,27.125,0.125,95,112.0
159,G#4,27.25,0.125,95,112.0
160,G4,27.375,0.125,95,112.0
161,G#4,27.5,0.125,95,112.0
162,C3,27.5,0.5,95,112.0
163,G4,27.625,0.125,95,112.0
164,G#4,27.75,0.125,95,112.0
165,G4,27.875,31/250,95,112.0
166,B3,28.0,0.5,95,112.0
167,B2,28.0,0.5,95,112.0
168,B3,28.5,0.5,95,112.0
169,B2,28.5,0.5,95,112.0
170,G4,29.0,0.5,95,112.0
171,F#3,29.0,0.5,95,112.0
172,A3,29.0,1.0,95,112.0
173,B4,29.0,1.5,95,112.0
174,F#4,29.0,1.5,95,112.0
175,D4,29.0,1.5,95,112.0
176,B3,29.5,0.5,95,112.0
177,F#4,29.875,0.125,95,112.0
178,G4,30.0,0.125,95,112.0
179,A3,30.0,0.5,95,112.0
180,F#4,30.125,0.125,95,112.0
181,G4,30.25,0.125,95,112.0
182,F#4,30.375,0.125,95,112.0
183,G4,30.5,0.125,95,112.0
184,B4,30.5,0.5,95,112.0
185,F#4,30.5,0.5,95,112.0
186,D4,30.5,0.5,95,112.0
187,F#4,30.625,0.125,95,112.0
188,G4,30.75,0.125,95,112.0
189,F#4,30.875,0.125,95,112.0
190,C#4,30.875,0.125,95,112.0
191,D4,31.0,0.125,95,112.0
192,F#3,31.0,0.5,95,112.0
193,C#4,31.125,0.125,95,112.0
194,D4,31.25,0.125,95,112.0
195,C#4,31.375,0.125,95,112.0
196,D4,31.5,0.125,95,112.0
197,B3,31.5,0.5,95,112.0
198,C#4,31.625,0.125,95,112.0
199,D4,31.75,0.125,95,112.0
200,C#4,31.875,31/250,95,112.0
201,B2,32.0,0.5,95,112.0
202,B3,32.5,0.5,95,112.0
203,B2,32.5,0.5,95,112.0
204,B4,32.5,0.5,95,112.0
205,F#4,32.5,0.5,95,112.0
206,D4,32.5,0.5,95,112.0
207,G4,33.0,0.5,95,112.0
208,F#3,33.0,0.5,95,112.0
209,E4,33.0,29/500,95,112.0
210,B3,33.0,29/500,95,112.0
211,G3,33.0,29/500,95,112.0
212,B3,33.5,29/500,95,112.0
213,E4,33.5,29/500,95,112.0
214,B3,33.5,29/500,95,112.0
215,G3,33.5,29/500,95,112.0
216,F#4,33.875,0.125,95,112.0
217,G4,34.0,0.125,95,112.0
218,B3,34.0,0.5,95,112.0
219,B4,34.0,0.5,95,112.0
220,F#4,34.0,0.5,95,112.0
221,D4,34.0,0.5,95,112.0
222,F#4,34.125,0.125,95,112.0
223,G4,34.25,0.125,95,112.0
224,F#4,34.375,0.125,95,112.0
225,G4,34.5,0.125,95,112.0
226,F#3,34.5,0.5,95,112.0
227,B4,34.5,0.5,95,112.0
228,F#4,34.5,0.5,95,112.0
229,D4,34.5,0.5,95,112.0
230,F#4,34.625,0.125,95,112.0
231,G4,34.75,0.125,95,112.0
232,F#4,34.875,0.125,95,112.0
233,C#4,34.875,0.125,95,112.0
234,D4,35.0,0.125,95,112.0
235,B2,35.0,0.5,95,112.0
236,C#4,35.125,0.125,95,112.0
237,D4,35.25,0.125,95,112.0
238,C#4,35.375,0.125,95,112.0
239,D4,35.5,0.125,95,112.0
240,D3,35.5,0.5,95,112.0
241,C#4,35.625,0.125,95,112.0
242,D4,35.75,0.125,95,112.0
243,C#4,35.875,31/250,95,112.0
244,E2,36.0,0.5,95,112.0
245,E2,36.0,0.5,95,112.0
246,D4,36.375,0.125,95,112.0
247,E4,36.5,0.5,95,112.0
248,E3,36.5,0.5,95,112.0
249,C#5,37.0,0.5,95,112.0
250,C#3,37.0,0.5,95,112.0
251,B4,37.0,1.5,95,112.0
252,F#4,37.0,1.5,95,112.0
253,D4,37.0,1.5,95,112.0
254,D4,37.5,0.5,95,112.0
255,B4,38.0,0.5,95,112.0
256,D3,38.0,0.5,95,112.0
257,B3,38.5,0.5,95,112.0
258,B2,38.5,0.5,95,112.0
259,B4,38.5,0.5,95,112.0
260,F#4,38.5,0.5,95,112.0
261,D4,38.5,0.5,95,112.0
262,G4,38.875,0.125,95,112.0
263,G#4,39.0,0.125,95,112.0
264,C#3,39.0,0.5,95,112.0
265,G4,39.125,0.125,95,112.0
266,G#4,39.25,0.125,95,112.0
267,G4,39.375,0.125,95,112.0
268,G#4,39.5,0.125,95,112.0
269,B2,39.5,0.5,95,112.0
270,G4,39.625,0.125,95,112.0
271,G#4,39.75,0.125,95,112.0
272,G4,39.875,31/250,95,112.0
273,E2,40.0,0.5,95,112.0
274,D4,40.375,0.125,95,112.0
275,E4,40.5,0.5,95,112.0
276,E3,40.5,0.5,95,112.0
277,B4,40.5,0.5,95,112.0
278,F#4,40.5,0.5,95,112.0
279,D4,40.5,0.5,95,112.0
280,C#5,41.0,0.5,95,112.0
281,C#3,41.0,0.5,95,112.0
282,D4,41.5,0.5,95,112.0
283,A2,41.5,29/500,95,112.0
284,E4,41.5,29/500,95,112.0
285,B3,41.5,29/500,95,112.0
286,G3,41.5,29/500,95,112.0
287,B4,42.0,0.5,95,112.0
288,D3,42.0,0.5,95,112.0
289,B4,42.0,0.5,95,112.0
290,F#4,42.0,0.5,95,112.0
291,D4,42.0,0.5,95,112.0
292,B3,42.5,0.5,95,112.0
293,B4,42.5,0.5,95,112.0
294,F#4,42.5,0.5,95,112.0
295,D4,42.5,0.5,95,112.0
296,G4,42.875,0.125,95,112.0
297,G#4,43.0,0.125,95,112.0
298,C#3,43.0,0.5,95,112.0
299,G4,43.125,0.125,95,112.0
300,G#4,43.25,0.125,95,112.0
301,G4,43.375,0.125,95,112.0
302,G#4,43.5,0.125,95,112.0
303,C#3,43.5,0.5,95,112.0
304,G4,43.625,0.125,95,112.0
305,G#4,43.75,0.125,95,112.0
306,G4,43.875,31/250,95,112.0
307,B2,44.0,0.5,95,112.0
308,B3,44.5,0.5,95,112.0
309,B2,44.5,0.5,95,112.0
310,G4,45.0,0.5,95,112.0
311,F#3,45.0,0.5,95,112.0
312,A3,45.0,1.0,95,112.0
313,B4,45.0,1.5,95,112.0
314,F#4,45.0,1.5,95,112.0
315,D4,45.0,1.5,95,112.0
316,B3,45.5,0.5,95,112.0
317,F#4,45.875,0.125,95,112.0
318,G4,46.0,0.125,95,112.0
319,A3,46.0,0.5,95,112.0
320,F#4,46.125,0.125,95,112.0
321,G4,46.25,0.125,95,112.0
322,F#4,46.375,0.125,95,112.0
323,G4,46.5,0.125,95,112.0
324,B4,46.5,0.5,95,112.0
325,F#4,46.5,0.5,95,112.0
326,D4,46.5,0.5,95,112.0
327,F#4,46.625,0.125,95,112.0
328,G4,46.75,0.125,95,112.0
329,F#4,46.875,0.125,95,112.0
330,C#4,46.875,0.125,95,112.0
331,D4,47.0,0.125,95,112.0
332,F#3,47.0,0.5,95,112.0
333,C#4,47.125,0.125,95,112.0
334,D4,47.25,0.125,95,112.0
335,C#4,47.375,0.125,95,112.0
336,D4,47.5,0.125,95,112.0
337,B2,47.5,0.5,95,112.0
338,C#4,47.625,0.125,95,112.0
339,D4,47.75,0.125,95,112.0
340,C#4,47.875,31/250,95,112.0
341,B2,48.0,0.5,95,112.0
342,B3,48.5,0.5,95,112.0
343,B2,48.5,0.5,95,112.0
344,B4,48.5,0.5,95,112.0
345,F#4,48.5,0.5,95,112.0
346,D4,48.5,0.5,95,112.0
347,G4,49.0,0.5,95,112.0
348,F#3,49.0,0.5,95,112.0
349,E4,49.0,29/500,95,112.0
350,B3,49.0,29/500,95,112.0
351,G3,49.0,29/500,95,112.0
352,D3,49.5,29/500,95,112.0
353,E4,49.5,29/500,95,112.0
354,B3,49.5,29/500,95,112.0
355,G3,49.5,29/500,95,112.0
356,F#4,49.875,0.125,95,112.0
357,G4,50.0,0.125,95,112.0
358,B3,50.0,0.5,95,112.0
359,B4,50.0,0.5,95,112.0
360,F#4,50.0,0.5,95,112.0
361,D4,50.0,0.5,95,112.0
362,F#4,50.125,0.125,95,112.0
363,G4,50.25,0.125,95,112.0
364,F#4,50.375,0.125,95,112.0
365,G4,50.5,0.125,95,112.0
366,F#3,50.5,0.5,95,112.0
367,B4,50.5,0.5,95,112.0
368,F#4,50.5,0.5,95,112.0
369,D4,50.5,0.5,95,112.0
370,F#4,50.625,0.125,95,112.0
371,G4,50.75,0.125,95,112.0
372,F#4,50.875,0.125,95,112.0
373,C#4,50.875,0.125,95,112.0
374,D4,51.0,0.125,95,112.0
375,B2,51.0,0.5,95,112.0
376,C#4,51.125,0.125,95,112.0
377,D4,51.25,0.125,95,112.0
378,C#4,51.375,0.125,95,112.0
379,D4,51.5,0.125,95,112.0
380,B-2,51.5,0.5,95,112.0
381,C#4,51.625,0.125,95,112.0
382,D4,51.75,0.125,95,112.0
383,C#4,51.875,31/250,95,112.0
384,A2,52.0,1.0,95,112.0
385,E4,52.0,1.0,95,112.0
386,C4,52.0,1.0,95,112.0
387,G3,52.0,1.0,95,112.0
388,E4,52.0,29/500,95,112.0
389,B3,52.0,29/500,95,112.0
390,G3,52.0,29/500,95,112.0
391,E4,52.5,29/500,95,112.0
392,B3,52.5,29/500,95,112.0
393,G3,52.5,29/500,95,112.0
394,E4,53.0,1.0,95,112.0
395,C4,53.0,1.0,95,112.0
396,G3,53.0,1.0,95,112.0
397,A4,53.0,1.0,95,112.0
398,E4,53.0,1.0,95,112.0
399,C4,53.0,1.0,95,112.0
400,G3,54.0,0.5,95,112.0
401,E4,54.0,1.0,95,112.0
402,C4,54.0,1.0,95,112.0
403,G3,54.0,1.0,95,112.0
404,E4,54.0,29/500,95,112.0
405,B3,54.0,29/500,95,112.0
406,G3,54.0,29/500,95,112.0
407,E3,54.5,0.5,95,112.0
408,E4,54.5,29/500,95,112.0
409,B3,54.5,29/500,95,112.0
410,G3,54.5,29/500,95,112.0
411,E4,55.0,1.0,95,112.0
412,C4,55.0,1.0,95,112.0
413,G3,55.0,1.0,95,112.0
414,A4,55.0,1.0,95,112.0
415,E4,55.0,1.0,95,112.0
416,C4,55.0,1.0,95,112.0
417,E3,55.5,0.5,95,112.0
418,A2,56.0,1.0,95,112.0
419,E4,56.0,1.0,95,112.0
420,C4,56.0,1.0,95,112.0
421,G3,56.0,1.0,95,112.0
422,E4,56.0,29/500,95,112.0
423,B3,56.0,29/500,95,112.0
424,G3,56.0,29/500,95,112.0
425,E4,56.5,29/500,95,112.0
426,B3,56.5,29/500,95,112.0
427,G3,56.5,29/500,95,112.0
428,E4,57.0,1.0,95,112.0
429,C4,57.0,1.0,95,112.0
430,G3,57.0,1.0,95,112.0
431,A4,57.0,1.0,95,112.0
432,E4,57.0,1.0,95,112.0
433,C4,57.0,1.0,95,112.0
434,E3,58.0,0.5,95,112.0
435,E4,58.0,1.0,95,112.0
436,C4,58.0,1.0,95,112.0
437,G3,58.0,1.0,95,112.0
438,E4,58.0,29/500,95,112.0
439,B3,58.0,29/500,95,112.0
440,G3,58.0,29/500,95,112.0
441,E3,58.5,0.5,95,112.0
442,E4,58.5,29/500,95,112.0
443,B3,58.5,29/500,95,112.0
444,G3,58.5,29/500,95,112.0
445,E4,59.0,0.5,95,112.0
446,C4,59.0,0.5,95,112.0
447,G3,59.0,0.5,95,112.0
448,A4,59.0,1.0,95,112.0
449,E4,59.0,1.0,95,112.0
450,C4,59.0,1.0,95,112.0
451,G3,59.5,29/500,95,112.0
452,D3,59.5,29/500,95,112.0
453,G3,59.75,29/500,95,112.0
454,D3,59.75,29/500,95,112.0
455,G2,60.0,1.0,95,112.0
456,F#4,60.0,1.0,95,112.0
457,D4,60.0,1.0,95,112.0
458,G3,60.0,1.0,95,112.0
459,E4,60.0,29/500,95,112.0
460,B3,60.0,29/500,95,112.0
461,G3,60.0,29/500,95,112.0
462,E4,60.5,29/500,95,112.0
463,B3,60.5,29/500,95,112.0
464,G3,60.5,29/500,95,112.0
465,F#4,61.0,1.0,95,112.0
466,D4,61.0,1.0,95,112.0
467,G3,61.0,1.0,95,112.0
468,A4,61.0,1.0,95,112.0
469,E4,61.0,1.0,95,112.0
470,C4,61.0,1.0,95,112.0
471,F3,61.0,1.0,95,112.0
472,G2,61.5,0.5,95,112.0
473,D3,62.0,0.5,95,112.0
474,F#4,62.0,1.0,95,112.0
475,D4,62.0,1.0,95,112.0
476,G3,62.0,1.0,95,112.0
477,E4,62.0,29/500,95,112.0
478,B3,62.0,29/500,95,112.0
479,G3,62.0,29/500,95,112.0
480,D3,62.0,29/500,95,112.0
481,D3,62.5,0.5,95,112.0
482,F#4,63.0,1.0,95,112.0
483,D4,63.0,1.0,95,112.0
484,G3,63.0,1.0,95,112.0
485,A4,63.0,1.0,95,112.0
486,E4,63.0,1.0,95,112.0
487,C4,63.0,1.0,95,112.0
488,F3,63.0,1.0,95,112.0
489,G2,63.5,0.5,95,112.0
490,F2,64.0,0.5,95,112.0
491,E4,64.0,1.0,95,112.0
492,C4,64.0,1.0,95,112.0
493,F3,64.0,1.0,95,112.0
494,E4,64.0,29/500,95,112.0
495,B3,64.0,29/500,95,112.0
496,G3,64.0,29/500,95,112.0
497,D3,64.0,29/500,95,112.0
498,F2,65.0,3.0,95,112.0
499,G4,65.0,1.0,95,112.0
500,F3,65.0,1.0,95,112.0
501,E4,65.0,3.0,95,112.0
502,C4,65.0,3.0,95,112.0
503,G4,65.0,3.0,95,112.0
504,E4,65.0,3.0,95,112.0
505,C4,65.0,3.0,95,112.0
506,F3,65.0,3.0,95,112.0
507,E2,68.0,0.5,95,112.0
508,D4,68.375,0.125,95,112.0
509,E4,68.5,0.5,95,112.0
510,C#5,69.0,0.5,95,112.0
511,C#3,69.0,0.5,95,112.0
512,B4,69.0,1.5,95,112.0
513,F#4,69.0,1.5,95,112.0
514,D4,69.0,1.5,95,112.0
515,D4,69.5,0.5,95,112.0
516,A2,69.5,29/500,95,112.0
517,B4,70.0,0.5,95,112.0
518,E3,70.0,0.5,95,112.0
519,B3,70.5,0.5,95,112.0
520,B4,70.5,0.5,95,112.0
521,F#4,70.5,0.5,95,112.0
522,D4,70.5,0.5,95,112.0
523,G4,70.875,0.125,95,112.0
524,G#4,71.0,0.125,95,112.0
525,C#3,71.0,0.5,95,112.0
526,G4,71.125,0.125,95,112.0
527,G#4,71.25,0.125,95,112.0
528,G4,71.375,0.125,95,112.0
529,G#4,71.5,0.125,95,112.0
530,C3,71.5,0.5,95,112.0
531,G4,71.625,0.125,95,112.0
532,G#4,71.75,0.125,95,112.0
533,G4,71.875,31/250,95,112.0
534,B2,72.0,1.5,95,112.0
535,B2,72.0,2.0,95,112.0
536,B4,72.0,2.0,95,112.0
537,F#4,72.0,2.0,95,112.0
538,D4,72.0,2.0,95,112.0
539,A3,72.0,2.0,95,112.0
540,B2,73.5,0.5,95,112.0
541,D3,74.0,2.0,95,112.0
542,D3,74.0,2.0,95,112.0
543,F#4,74.0,2.0,95,112.0
544,D4,74.0,2.0,95,112.0
545,A3,74.0,2.0,95,112.0
546,E3,76.5,0.5,95,112.0
547,A4,77.0,1.0,106,112.0
548,E4,77.0,1.0,106,112.0
549,C4,77.0,1.0,106,112.0
550,A4,77.0,1.0,106,112.0
551,E4,77.0,1.0,106,112.0
552,C4,77.0,1.0,106,112.0
553,E3,77.5,0.5,95,112.0
554,G3,78.0,0.5,95,112.0
555,E4,78.0,29/500,95,112.0
556,B3,78.0,29/500,95,112.0
557,G3,78.0,29/500,95,112.0
558,A3,78.375,0.125,95,112.0
559,A3,78.5,1.0,95,112.0
560,A4,79.0,1.0,106,112.0
561,E4,79.0,1.0,106,112.0
562,C4,79.0,1.0,106,112.0
563,A4,79.0,1.0,106,112.0
564,E4,79.0,1.0,106,112.0
565,C4,79.0,1.0,106,112.0
566,A3,79.5,0.5,95,112.0
567,G3,80.0,0.5,95,112.0
568,A3,80.375,0.125,95,112.0
569,A3,80.5,1.0,95,112.0
570,A4,81.0,1.0,106,112.0
571,E4,81.0,1.0,106,112.0
572,C4,81.0,1.0,106,112.0
573,A4,81.0,1.0,106,112.0
574,E4,81.0,1.0,106,112.0
575,C4,81.0,1.0,106,112.0
576,G3,81.5,0.5,95,112.0
577,A3,82.0,0.5,95,112.0
578,E4,82.0,29/500,95,112.0
579,B3,82.0,29/500,95,112.0
580,G3,82.0,29/500,95,112.0
581,E3,82.5,1.5,95,112.0
582,A4,83.0,1.0,106,112.0
583,E4,83.0,1.0,106,112.0
584,C4,83.0,1.0,106,112.0
585,A4,83.0,1.0,106,112.0
586,E4,83.0,1.0,106,112.0
587,C4,83.0,1.0,106,112.0
588,E4,84.0,29/500,95,112.0
589,B3,84.0,29/500,95,112.0
590,G3,84.0,29/500,95,112.0
591,E4,85.0,1.0,95,112.0
592,E4,85.0,1.0,95,112.0
593,B3,85.0,1.0,95,112.0
594,G3,85.0,1.0,95,112.0
595,E3,85.0,1.0,95,112.0
596,E4,85.0,1.0,95,112.0
597,B3,85.0,1.0,95,112.0
598,G3,85.0,1.0,95,112.0
599,B-3,86.0,167/1000,95,112.0
600,B3,86.0,29/500,95,112.0
601,G3,86.0,29/500,95,112.0
602,D3,86.0,29/500,95,112.0
603,A3,86.167,167/1000,95,112.0
604,G3,86.333,167/1000,95,112.0
605,E3,86.5,0.5,95,112.0
606,G3,87.0,0.5,95,112.0
607,E4,87.0,1.0,95,112.0
608,B3,87.0,1.0,95,112.0
609,G3,87.0,1.0,95,112.0
610,E3,87.0,1.0,95,112.0
611,E4,87.0,1.0,95,112.0
612,B3,87.0,1.0,95,112.0
613,G3,87.0,1.0,95,112.0
614,A3,87.5,0.5,95,112.0
615,A3,88.0,1.0,95,112.0
616,G3,88.0,0.5,95,112.0
617,E3,88.0,0.5,95,112.0
618,E4,88.0,0.5,95,112.0
619,B3,88.0,0.5,95,112.0
620,G3,88.0,0.5,95,112.0
621,G3,89.0,3.0,95,112.0
622,B3,89.0,2.0,95,112.0
623,G3,89.0,2.0,95,112.0
624,E-3,89.0,3.0,95,112.0
625,B2,89.0,3.0,95,112.0
626,G4,89.0,3.0,95,112.0
627,E-4,89.0,3.0,95,112.0
628,B3,89.0,3.0,95,112.0
629,G3,92.0,0.5,95,112.0
630,D4,92.375,0.125,95,112.0
631,E4,92.5,0.5,95,112.0
632,C3,92.5,0.5,95,112.0
633,C#5,93.0,0.5,95,112.0
634,C#3,93.0,0.5,95,112.0
635,B4,93.0,1.5,95,112.0
636,F#4,93.0,1.5,95,112.0
637,D4,93.0,1.5,95,112.0
638,D4,93.5,0.5,95,112.0
639,B4,94.0,0.5,95,112.0
640,D3,94.0,0.5,95,112.0
641,B4,94.5,0.5,95,112.0
642,F#4,94.5,0.5,95,112.0
643,D4,94.5,0.5,95,112.0
644,G4,94.875,0.125,95,112.0
645,G#4,95.0,0.125,95,112.0
646,C#3,95.0,0.5,95,112.0
647,G4,95.125,0.125,95,112.0
648,G#4,95.25,0.125,95,112.0
649,G4,95.375,0.125,95,112.0
650,G#4,95.5,0.125,95,112.0
651,E3,95.5,0.5,95,112.0
652,G4,95.625,0.125,95,112.0
653,G#4,95.75,0.125,95,112.0
654,G4,95.875,31/250,95,112.0
655,E2,96.0,0.5,95,112.0
656,E2,96.0,0.5,95,112.0
657,D4,96.375,0.125,95,112.0
658,E4,96.5,0.5,95,112.0
659,E3,96.5,0.5,95,112.0
660,B4,96.5,0.5,95,112.0
661,F#4,96.5,0.5,95,112.0
662,D4,96.5,0.5,95,112.0
663,C#5,97.0,0.5,95,112.0
664,C#3,97.0,0.5,95,112.0
665,D4,97.5,0.5,95,112.0
666,E4,97.5,29/500,95,112.0
667,B3,97.5,29/500,95,112.0
668,G3,97.5,29/500,95,112.0
669,B4,98.0,0.5,95,112.0
670,D3,98.0,0.5,95,112.0
671,B4,98.0,0.5,95,112.0
672,F#4,98.0,0.5,95,112.0
673,D4,98.0,0.5,95,112.0
674,B3,98.5,0.5,95,112.0
675,B4,98.5,0.5,95,112.0
676,F#4,98.5,0.5,95,112.0
677,D4,98.5,0.5,95,112.0
678,G4,98.875,0.125,95,112.0
679,G#4,99.0,0.125,95,112.0
680,C#3,99.0,0.5,95,112.0
681,G4,99.125,0.125,95,112.0
682,G#4,99.25,0.125,95,112.0
683,G4,99.375,0.125,95,112.0
684,G#4,99.5,0.125,95,112.0
685,B2,99.5,0.5,95,112.0
686,G4,99.625,0.125,95,112.0
687,G#4,99.75,0.125,95,112.0
688,G4,99.875,31/250,95,112.0
689,B3,100.0,0.5,95,112.0
690,B3,100.5,0.5,95,112.0
691,B2,100.5,0.5,95,112.0
692,G4,101.0,0.5,95,112.0
693,B2,101.0,0.5,95,112.0
694,A3,101.0,1.0,95,112.0
695,B4,101.0,1.5,95,112.0
696,F#4,101.0,1.5,95,112.0
697,D4,101.0,1.5,95,112.0
698,B3,101.5,0.5,95,112.0
699,F#4,101.875,0.125,95,112.0
700,G4,102.0,0.125,95,112.0
701,F#4,102.125,0.125,95,112.0
702,G4,102.25,0.125,95,112.0
703,F#4,102.375,0.125,95,112.0
704,G4,102.5,0.125,95,112.0
705,F#3,102.5,0.5,95,112.0
706,B4,102.5,0.5,95,112.0
707,F#4,102.5,0.5,95,112.0
708,D4,102.5,0.5,95,112.0
709,F#4,102.625,0.125,95,112.0
710,G4,102.75,0.125,95,112.0
711,F#4,102.875,0.125,95,112.0
712,C#4,102.875,0.125,95,112.0
713,D4,103.0,0.125,95,112.0
714,A3,103.0,0.5,95,112.0
715,C#4,103.125,0.125,95,112.0
716,D4,103.25,0.125,95,112.0
717,C#4,103.375,0.125,95,112.0
718,D4,103.5,0.125,95,112.0
719,B3,103.5,0.5,95,112.0
720,C#4,103.625,0.125,95,112.0
721,D4,103.75,0.125,95,112.0
722,C#4,103.875,31/250,95,112.0
723,B2,104.0,0.5,95,112.0
724,B3,104.5,0.5,95,112.0
725,A2,104.5,29/500,95,112.0
726,B4,104.5,0.5,95,112.0
727,F#4,104.5,0.5,95,112.0
728,D4,104.5,0.5,95,112.0
729,G4,105.0,0.5,95,112.0
730,B2,105.0,0.5,95,112.0
731,E4,105.0,29/500,95,112.0
732,B3,105.0,29/500,95,112.0
733,G3,105.0,29/500,95,112.0
734,B3,105.5,29/500,95,112.0
735,A2,105.5,29/500,95,112.0
736,E4,105.5,29/500,95,112.0
737,B3,105.5,29/500,95,112.0
738,G3,105.5,29/500,95,112.0
739,F#4,105.875,0.125,95,112.0
740,G4,106.0,0.125,95,112.0
741,D3,106.0,0.5,95,112.0
742,B4,106.0,0.5,95,112.0
743,F#4,106.0,0.5,95,112.0
744,D4,106.0,0.5,95,112.0
745,F#4,106.125,0.125,95,112.0
746,G4,106.25,0.125,95,112.0
747,F#4,106.375,0.125,95,112.0
748,G4,106.5,0.125,95,112.0
749,B4,106.5,0.5,95,112.0
750,F#4,106.5,0.5,95,112.0
751,D4,106.5,0.5,95,112.0
752,F#4,106.625,0.125,95,112.0
753,G4,106.75,0.125,95,112.0
754,F#4,106.875,0.125,95,112.0
755,C#4,106.875,0.125,95,112.0
756,D4,107.0,0.125,95,112.0
757,C#3,107.0,0.5,95,112.0
758,C#4,107.125,0.125,95,112.0
759,D4,107.25,0.125,95,112.0
760,C#4,107.375,0.125,95,112.0
761,D4,107.5,0.125,95,112.0
762,B2,107.5,0.5,95,112.0
763,C#4,107.625,0.125,95,112.0
764,D4,107.75,0.125,95,112.0
765,C#4,107.875,31/250,95,112.0
766,E2,108.0,0.5,95,112.0
767,D4,108.375,0.125,95,112.0
768,E4,108.5,0.5,95,112.0
769,E3,108.5,0.5,95,112.0
770,C#5,109.0,0.5,95,112.0
771,C#3,109.0,0.5,95,112.0
772,B4,109.0,1.5,95,112.0
773,F#4,109.0,1.5,95,112.0
774,D4,109.0,1.5,95,112.0
775,D4,109.5,0.5,95,112.0
776,B4,110.0,0.5,95,112.0
777,D3,110.0,0.5,95,112.0
778,B3,110.5,0.5,95,112.0
779,B4,110.5,0.5,95,112.0
780,F#4,110.5,0.5,95,112.0
781,D4,110.5,0.5,95,112.0
782,G4,110.875,0.125,95,112.0
783,G#4,111.0,0.125,95,112.0
784,C#3,111.0,0.5,95,112.0
785,G4,111.125,0.125,95,112.0
786,G#4,111.25,0.125,95,112.0
787,G4,111.375,0.125,95,112.0
788,G#4,111.5,0.125,95,112.0
789,B2,111.5,0.5,95,112.0
790,G4,111.625,0.125,95,112.0
791,G#4,111.75,0.125,95,112.0
792,G4,111.875,31/250,95,112.0
793,E2,112.0,0.5,95,112.0
794,D4,112.375,0.125,95,112.0
795,E4,112.5,0.5,95,112.0
796,E3,112.5,0.5,95,112.0
797,B4,112.5,0.5,95,112.0
798,F#4,112.5,0.5,95,112.0
799,D4,112.5,0.5,95,112.0
800,C#5,113.0,0.5,95,112.0
801,C#3,113.0,0.5,95,112.0
802,D4,113.5,0.5,95,112.0
803,E4,113.5,29/500,95,112.0
804,B3,113.5,29/500,95,112.0
805,G3,113.5,29/500,95,112.0
806,B4,114.0,0.5,95,112.0
807,D3,114.0,0.5,95,112.0
808,B4,114.0,0.5,95,112.0
809,F#4,114.0,0.5,95,112.0
810,D4,114.0,0.5,95,112.0
811,B3,114.5,0.5,95,112.0
812,B4,114.5,0.5,95,112.0
813,F#4,114.5,0.5,95,112.0
814,D4,114.5,0.5,95,112.0
815,G4,114.875,0.125,95,112.0
816,G#4,115.0,0.125,95,112.0
817,C#3,115.0,0.5,95,112.0
818,G4,115.125,0.125,95,112.0
819,G#4,115.25,0.125,95,112.0
820,G4,115.375,0.125,95,112.0
821,G#4,115.5,0.125,95,112.0
822,B2,115.5,0.5,95,112.0
823,G4,115.625,0.125,95,112.0
824,G#4,115.75,0.125,95,112.0
825,G4,115.875,31/250,95,112.0
826,B2,116.0,0.5,95,112.0
827,B3,116.5,0.5,95,112.0
828,G4,117.0,0.5,95,112.0
829,B2,117.0,1.0,95,112.0
830,A3,117.0,1.0,95,112.0
831,B4,117.0,1.5,95,112.0
832,F#4,117.0,1.5,95,112.0
833,D4,117.0,1.5,95,112.0
834,B3,117.5,0.5,95,112.0
835,F#4,117.875,0.125,95,112.0
836,G4,118.0,0.125,95,112.0
837,F#4,118.125,0.125,95,112.0
838,G4,118.25,0.125,95,112.0
839,F#4,118.375,0.125,95,112.0
840,G4,118.5,0.125,95,112.0
841,B4,118.5,0.5,95,112.0
842,F#4,118.5,0.5,95,112.0
843,D4,118.5,0.5,95,112.0
844,F#4,118.625,0.125,95,112.0
845,G4,118.75,0.125,95,112.0
846,F#4,118.875,0.125,95,112.0
847,C#4,118.875,0.125,95,112.0
848,D4,119.0,0.125,95,112.0
849,F#3,119.0,0.5,95,112.0
850,C#4,119.125,0.125,95,112.0
851,D4,119.25,0.125,95,112.0
852,C#4,119.375,0.125,95,112.0
853,D4,119.5,0.125,95,112.0
854,B3,119.5,0.5,95,112.0
855,C#4,119.625,0.125,95,112.0
856,D4,119.75,0.125,95,112.0
857,C#4,119.875,31/250,95,112.0
858,B2,120.0,0.5,95,112.0
859,D3,120.0,29/500,95,112.0
860,B3,120.5,0.5,95,112.0
861,B2,120.5,0.5,95,112.0
862,B4,120.5,0.5,95,112.0
863,F#4,120.5,0.5,95,112.0
864,D4,120.5,0.5,95,112.0
865,G4,121.0,0.5,95,112.0
866,F#3,121.0,0.5,95,112.0
867,E4,121.0,29/500,95,112.0
868,B3,121.0,29/500,95,112.0
869,G3,121.0,29/500,95,112.0
870,E4,121.5,29/500,95,112.0
871,B3,121.5,29/500,95,112.0
872,G3,121.5,29/500,95,112.0
873,F#4,121.875,0.125,95,112.0
874,G4,122.0,0.125,95,112.0
875,B3,122.0,0.25,95,112.0
876,B4,122.0,0.5,95,112.0
877,F#4,122.0,0.5,95,112.0
878,D4,122.0,0.5,95,112.0
879,F#4,122.125,0.125,95,112.0
880,G4,122.25,0.125,95,112.0
881,A3,122.25,0.25,70,112.0
882,F#4,122.375,0.125,95,112.0
883,G4,122.5,0.125,95,112.0
884,F#3,122.5,0.5,95,112.0
885,B4,122.5,0.5,95,112.0
886,F#4,122.5,0.5,95,112.0
887,D4,122.5,0.5,95,112.0
888,F#4,122.625,0.125,95,112.0
889,G4,122.75,0.125,95,112.0
890,F#4,122.875,0.125,95,112.0
891,C#4,122.875,0.125,95,112.0
892,D4,123.0,0.125,95,112.0
893,B3,123.0,0.5,95,112.0
894,C#4,123.125,0.125,95,112.0
895,D4,123.25,0.125,95,112.0
896,C#4,123.375,0.125,95,112.0
897,D4,123.5,0.125,95,112.0
898,B2,123.5,0.5,95,112.0
899,C#4,123.625,0.125,95,112.0
900,D4,123.75,0.125,95,112.0
901,C#4,123.875,31/250,95,112.0
902,A2,124.0,1.0,95,112.0
903,E4,124.0,1.0,95,112.0
904,C4,124.0,1.0,95,112.0
905,G3,124.0,1.0,95,112.0
906,E4,124.0,29/500,95,112.0
907,B3,124.0,29/500,95,112.0
908,G3,124.0,29/500,95,112.0
909,E4,124.5,29/500,95,112.0
910,B3,124.5,29/500,95,112.0
911,G3,124.5,29/500,95,112.0
912,E4,125.0,1.0,95,112.0
913,C4,125.0,1.0,95,112.0
914,G3,125.0,1.0,95,112.0
915,A4,125.0,1.0,95,112.0
916,E4,125.0,1.0,95,112.0
917,C4,125.0,1.0,95,112.0
918,G3,126.0,0.5,95,112.0
919,E4,126.0,1.0,95,112.0
920,C4,126.0,1.0,95,112.0
921,G3,126.0,1.0,95,112.0
922,E4,126.0,29/500,95,112.0
923,B3,126.0,29/500,95,112.0
924,G3,126.0,29/500,95,112.0
925,E3,126.5,0.5,95,112.0
926,E4,126.5,29/500,95,112.0
927,B3,126.5,29/500,95,112.0
928,G3,126.5,29/500,95,112.0
929,E4,127.0,1.0,95,112.0
930,C4,127.0,1.0,95,112.0
931,G3,127.0,1.0,95,112.0
932,A4,127.0,1.0,95,112.0
933,E4,127.0,1.0,95,112.0
934,C4,127.0,1.0,95,112.0
935,E3,127.5,0.5,95,112.0
936,A2,128.0,1.0,95,112.0
937,E4,128.0,1.0,95,112.0
938,C4,128.0,1.0,95,112.0
939,G3,128.0,1.0,95,112.0
940,E4,128.0,29/500,95,112.0
941,B3,128.0,29/500,95,112.0
942,G3,128.0,29/500,95,112.0
943,E4,128.5,29/500,95,112.0
944,B3,128.5,29/500,95,112.0
945,G3,128.5,29/500,95,112.0
946,E4,129.0,1.0,95,112.0
947,C4,129.0,1.0,95,112.0
948,G3,129.0,1.0,95,112.0
949,A4,129.0,1.0,95,112.0
950,E4,129.0,1.0,95,112.0
951,C4,129.0,1.0,95,112.0
952,E3,130.0,0.5,95,112.0
953,E4,130.0,1.0,95,112.0
954,C4,130.0,1.0,95,112.0
955,G3,130.0,1.0,95,112.0
956,E4,130.0,29/500,95,112.0
957,B3,130.0,29/500,95,112.0
958,G3,130.0,29/500,95,112.0
959,E3,130.5,0.5,95,112.0
960,E4,130.5,29/500,95,112.0
961,B3,130.5,29/500,95,112.0
962,G3,130.5,29/500,95,112.0
963,E4,131.0,0.5,95,112.0
964,C4,131.0,0.5,95,112.0
965,G3,131.0,0.5,95,112.0
966,A4,131.0,1.0,95,112.0
967,E4,131.0,1.0,95,112.0
968,C4,131.0,1.0,95,112.0
969,G3,131.5,29/500,95,112.0
970,D3,131.5,29/500,95,112.0
971,G3,131.75,29/500,95,112.0
972,D3,131.75,29/500,95,112.0
973,G2,132.0,1.0,95,112.0
974,F#4,132.0,1.0,95,112.0
975,D4,132.0,1.0,95,112.0
976,G3,132.0,1.0,95,112.0
977,E4,132.0,29/500,95,112.0
978,B3,132.0,29/500,95,112.0
979,G3,132.0,29/500,95,112.0
980,E4,132.5,29/500,95,112.0
981,B3,132.5,29/500,95,112.0
982,G3,132.5,29/500,95,112.0
983,F#4,133.0,1.0,95,112.0
984,D4,133.0,1.0,95,112.0
985,G3,133.0,1.0,95,112.0
986,A4,133.0,1.0,95,112.0
987,E4,133.0,1.0,95,112.0
988,C4,133.0,1.0,95,112.0
989,F3,133.0,1.0,95,112.0
990,G2,133.5,0.5,95,112.0
991,D3,134.0,0.5,95,112.0
992,F#4,134.0,1.0,95,112.0
993,D4,134.0,1.0,95,112.0
994,G3,134.0,1.0,95,112.0
995,E4,134.0,29/500,95,112.0
996,B3,134.0,29/500,95,112.0
997,G3,134.0,29/500,95,112.0
998,D3,134.0,29/500,95,112.0
999,D3,134.5,0.5,95,112.0
1000,F#4,135.0,1.0,95,112.0
1001,D4,135.0,1.0,95,112.0
1002,G3,135.0,1.0,95,112.0
1003,A4,135.0,1.0,95,112.0
1004,E4,135.0,1.0,95,112.0
1005,C4,135.0,1.0,95,112.0
1006,F3,135.0,1.0,95,112.0
1007,G2,135.5,0.5,95,112.0
1008,F2,136.0,0.5,95,112.0
1009,E4,136.0,1.0,95,112.0
1010,C4,136.0,1.0,95,112.0
1011,F3,136.0,1.0,95,112.0
1012,E4,136.0,29/500,95,112.0
1013,B3,136.0,29/500,95,112.0
1014,G3,136.0,29/500,95,112.0
1015,D3,136.0,29/500,95,112.0
1016,F2,137.0,3.0,95,112.0
1017,G4,137.0,1.0,95,112.0
1018,F3,137.0,1.0,95,112.0
1019,E4,137.0,3.0,95,112.0
1020,C4,137.0,3.0,95,112.0
1021,G4,137.0,3.0,95,112.0
1022,E4,137.0,3.0,95,112.0
1023,C4,137.0,3.0,95,112.0
1024,F3,137.0,3.0,95,112.0
1025,E2,140.0,0.5,95,112.0
1026,D4,140.375,0.125,95,112.0
1027,E4,140.5,0.5,95,112.0
1028,C#5,141.0,0.5,95,112.0
1029,C#3,141.0,0.5,95,112.0
1030,B4,141.0,1.5,95,112.0
1031,F#4,141.0,1.5,95,112.0
1032,D4,141.0,1.5,95,112.0
1033,D4,141.5,0.5,95,112.0
1034,A2,141.5,29/500,95,112.0
1035,B4,142.0,0.5,95,112.0
1036,E3,142.0,0.5,95,112.0
1037,B4,142.5,0.5,95,112.0
1038,F#4,142.5,0.5,95,112.0
1039,D4,142.5,0.5,95,112.0
1040,G4,142.875,0.125,95,112.0
1041,G#4,143.0,0.125,95,112.0
1042,C#3,143.0,0.5,95,112.0
1043,G4,143.125,0.125,95,112.0
1044,G#4,143.25,0.125,95,112.0
1045,G4,143.375,0.125,95,112.0
1046,G#4,143.5,0.125,95,112.0
1047,C3,143.5,0.5,95,112.0
1048,G4,143.625,0.125,95,112.0
1049,G#4,143.75,0.125,95,112.0
1050,G4,143.875,31/250,95,112.0
1051,B2,144.0,1.5,95,112.0
1052,B2,144.0,2.0,95,112.0
1053,B4,144.0,2.0,95,112.0
1054,F#4,144.0,2.0,95,112.0
1055,D4,144.0,2.0,95,112.0
1056,A3,144.0,2.0,95,112.0
1057,B2,145.5,0.5,95,112.0
1058,D3,146.0,2.0,95,112.0
1059,D3,146.0,2.0,95,112.0
1060,F#4,146.0,2.0,95,112.0
1061,D4,146.0,2.0,95,112.0
1062,A3,146.0,2.0,95,112.0
1063,E4,148.0,29/500,95,112.0
1064,B3,148.0,29/500,95,112.0
1065,G3,148.0,29/500,95,112.0
1066,E4,148.5,29/500,95,112.0
1067,B3,148.5,29/500,95,112.0
1068,G3,148.5,29/500,95,112.0
1069,D3,148.875,0.125,95,112.0
1070,A4,149.0,1.0,106,112.0
1071,E4,149.0,1.0,106,112.0
1072,C4,149.0,1.0,106,112.0
1073,G3,149.0,1.0,95,112.0
1074,E3,149.0,1.0,95,112.0
1075,A4,149.0,1.0,95,112.0
1076,E4,149.0,1.0,95,112.0
1077,C4,149.0,1.0,95,112.0
1078,D3,149.875,0.125,95,112.0
1079,G3,150.0,1.0,95,112.0
1080,E3,150.0,1.0,95,112.0
1081,E4,150.0,29/500,95,112.0
1082,B3,150.0,29/500,95,112.0
1083,G3,150.0,29/500,95,112.0
1084,E4,150.5,29/500,95,112.0
1085,B3,150.5,29/500,95,112.0
1086,G3,150.5,29/500,95,112.0
1087,A4,151.0,1.0,106,112.0
1088,E4,151.0,1.0,106,112.0
1089,C4,151.0,1.0,106,112.0
1090,A4,151.0,1.0,95,112.0
1091,E4,151.0,1.0,95,112.0
1092,C4,151.0,1.0,95,112.0
1093,G3,152.0,0.5,95,112.0
1094,E4,152.0,29/500,95,112.0
1095,B3,152.0,29/500,95,112.0
1096,G3,152.0,29/500,95,112.0
1097,A3,152.5,0.5,95,112.0
1098,A3,153.0,1.0,95,112.0
1099,A4,153.0,1.0,106,112.0
1100,E4,153.0,1.0,106,112.0
1101,C4,153.0,1.0,106,112.0
1102,A4,153.0,1.0,95,112.0
1103,E4,153.0,1.0,95,112.0
1104,C4,153.0,1.0,95,112.0
1105,E4,154.0,29/500,95,112.0
1106,B3,154.0,29/500,95,112.0
1107,G3,154.0,29/500,95,112.0
1108,E4,154.5,29/500,95,112.0
1109,B3,154.5,29/500,95,112.0
1110,G3,154.5,29/500,95,112.0
1111,A3,155.0,0.25,95,112.0
1112,A4,155.0,1.0,106,112.0
1113,E4,155.0,1.0,106,112.0
1114,C4,155.0,1.0,106,112.0
1115,A4,155.0,1.0,95,112.0
1116,E4,155.0,1.0,95,112.0
1117,C4,155.0,1.0,95,112.0
1118,G3,155.25,0.25,70,112.0
1119,E3,155.5,0.5,95,112.0
1120,E3,156.0,1.0,95,112.0
1121,E4,156.0,29/500,95,112.0
1122,B3,156.0,29/500,95,112.0
1123,G3,156.0,29/500,95,112.0
1124,G4,157.0,1.0,106,112.0
1125,E4,157.0,1.0,106,112.0
1126,B3,157.0,1.0,106,112.0
1127,E4,157.0,1.0,95,112.0
1128,B3,157.0,1.0,95,112.0
1129,G3,157.0,1.0,95,112.0
1130,A3,158.0,0.5,95,112.0
1131,B3,158.0,29/500,95,112.0
1132,G3,158.0,29/500,95,112.0
1133,D3,158.0,29/500,95,112.0
1134,D4,158.5,0.5,95,112.0
1135,B3,158.5,29/500,95,112.0
1136,G3,158.5,29/500,95,112.0
1137,D3,158.5,29/500,95,112.0
1138,A3,159.0,0.25,95,112.0
1139,G4,159.0,1.0,106,112.0
1140,E4,159.0,1.0,106,112.0
1141,B3,159.0,1.0,106,112.0
1142,E4,159.0,1.0,95,112.0
1143,B3,159.0,1.0,95,112.0
1144,G3,159.0,1.0,95,112.0
1145,G3,159.25,0.25,95,112.0
1146,E3,159.5,0.5,95,112.0
1147,A3,160.0,0.5,95,112.0
1148,B3,160.0,29/500,95,112.0
1149,G3,160.0,29/500,95,112.0
1150,D3,160.0,29/500,95,112.0
1151,A3,160.5,0.5,95,112.0
1152,G3,161.0,0.5,95,112.0
1153,A4,161.0,1.0,106,112.0
1154,E4,161.0,1.0,106,112.0
1155,B3,161.0,1.0,106,112.0
1156,E4,161.0,1.0,95,112.0
1157,B3,161.0,1.0,95,112.0
1158,G3,161.0,1.0,95,112.0
1159,A3,161.5,0.5,95,112.0
1160,E3,162.0,0.5,95,112.0
1161,B3,162.0,29/500,95,112.0
1162,G3,162.0,29/500,95,112.0
1163,D3,162.0,29/500,95,112.0
1164,D3,162.5,0.5,95,112.0
1165,E4,162.5,0.5,95,112.0
1166,B3,162.5,0.5,95,112.0
1167,G3,162.5,0.5,95,112.0
1168,E3,163.0,1.0,95,112.0
1169,A4,163.0,1.0,106,112.0
1170,E4,163.0,1.0,106,112.0
1171,B3,163.0,1.0,106,112.0
1172,E4,163.0,0.5,95,112.0
1173,B3,163.0,0.5,95,112.0
1174,G3,163.0,0.5,95,112.0
1175,E4,163.5,0.5,95,112.0
1176,B3,163.5,0.5,95,112.0
1177,G3,163.5,0.5,95,112.0
1178,E2,164.0,0.5,95,112.0
1179,D4,164.375,0.125,95,112.0
1180,E4,164.5,0.5,95,112.0
1181,C#5,165.0,0.5,95,112.0
1182,C#3,165.0,0.5,95,112.0
1183,B4,165.0,1.0,95,112.0
1184,F#4,165.0,1.0,95,112.0
1185,D4,165.0,1.0,95,112.0
1186,D4,165.5,0.5,95,112.0
1187,B4,166.0,0.5,95,112.0
1188,D3,166.0,0.5,95,112.0
1189,E4,166.0,29/500,95,112.0
1190,B3,166.0,29/500,95,112.0
1191,G3,166.0,29/500,95,112.0
1192,B3,166.5,0.5,95,112.0
1193,B4,166.5,0.5,95,112.0
1194,F#4,166.5,0.5,95,112.0
1195,D4,166.5,0.5,95,112.0
1196,G4,166.875,0.125,95,112.0
1197,G#4,167.0,0.125,95,112.0
1198,C#3,167.0,0.5,95,112.0
1199,G4,167.125,0.125,95,112.0
1200,G#4,167.25,0.125,95,112.0
1201,G4,167.375,0.125,95,112.0
1202,G#4,167.5,0.125,95,112.0
1203,C#3,167.5,0.5,95,112.0
1204,G4,167.625,0.125,95,112.0
1205,G#4,167.75,0.125,95,112.0
1206,G4,167.875,31/250,95,112.0
1207,E2,168.0,0.5,95,112.0
1208,D4,168.375,0.125,95,112.0
1209,E4,168.5,0.5,95,112.0
1210,B2,168.5,0.5,95,112.0
1211,B4,168.5,0.5,95,112.0
1212,F#4,168.5,0.5,95,112.0
1213,D4,168.5,0.5,95,112.0
1214,C#5,169.0,0.5,95,112.0
1215,C#3,169.0,0.5,95,112.0
1216,B2,169.5,0.5,95,112.0
1217,B4,170.0,0.5,95,112.0
1218,E3,170.0,0.5,95,112.0
1219,B4,170.0,0.5,95,112.0
1220,F#4,170.0,0.5,95,112.0
1221,D4,170.0,0.5,95,112.0
1222,B3,170.5,0.5,95,112.0
1223,B2,170.5,0.5,95,112.0
1224,B4,170.5,0.5,95,112.0
1225,F#4,170.5,0.5,95,112.0
1226,D4,170.5,0.5,95,112.0
1227,G4,170.875,0.125,95,112.0
1228,G#4,171.0,0.125,95,112.0
1229,C#3,171.0,0.5,95,112.0
1230,B4,171.0,0.5,95,112.0
1231,F#4,171.0,0.5,95,112.0
1232,D4,171.0,0.5,95,112.0
1233,G4,171.125,0.125,95,112.0
1234,G#4,171.25,0.125,95,112.0
1235,G4,171.375,0.125,95,112.0
1236,G#4,171.5,0.125,95,112.0
1237,E3,171.5,0.5,95,112.0
1238,B3,171.5,0.5,95,112.0
1239,G4,171.625,0.125,95,112.0
1240,G#4,171.75,0.125,95,112.0
1241,G4,171.875,31/250,95,112.0
1242,B3,172.0,0.5,95,112.0
1243,E-4,172.0,4.0,95,112.0
1244,B3,172.0,4.0,95,112.0
1245,F#3,172.0,4.0,95,112.0
1246,E4,172.0,29/500,95,112.0
1247,B3,172.0,29/500,95,112.0
1248,G3,172.0,29/500,95,112.0
1249,E-4,173.0,0.5,95,112.0
1250,B3,173.0,0.5,95,112.0
1251,F#3,173.0,0.5,95,112.0
1252,G#4,173.0,1.0,95,112.0
1253,E-4,173.0,1.0,95,112.0
1254,B3,173.0,1.0,95,112.0
1255,F#3,173.0,1.0,95,112.0
1256,E-4,174.0,0.5,95,112.0
1257,B3,174.0,0.5,95,112.0
1258,F#3,174.0,0.5,95,112.0
1259,E4,174.0,29/500,95,112.0
1260,B3,174.0,29/500,95,112.0
1261,G3,174.0,29/500,95,112.0
1262,D3,174.0,29/500,95,112.0
1263,E-4,174.5,1.5,95,112.0
1264,B3,174.5,1.5,95,112.0
1265,F#3,174.5,1.5,95,112.0
1266,E4,174.5,29/500,95,112.0
1267,B3,174.5,29/500,95,112.0
1268,G3,174.5,29/500,95,112.0
1269,D3,174.5,29/500,95,112.0
1270,G#4,175.0,1.0,95,112.0
1271,E-4,175.0,1.0,95,112.0
1272,B3,175.0,1.0,95,112.0
1273,F#3,175.0,1.0,95,112.0
1274,E4,176.0,4.0,95,112.0
1275,B3,176.0,4.0,95,112.0
1276,F#3,176.0,4.0,95,112.0
1277,F4,176.938,0.062,95,112.0
1278,C#4,176.938,0.062,95,112.0
1279,F#4,177.0,0.5,95,112.0
1280,D4,177.0,0.5,95,112.0
1281,B4,177.0,1.0,95,112.0
1282,F#4,177.0,1.0,95,112.0
1283,D4,177.0,1.0,95,112.0
1284,G#3,177.0,1.0,95,112.0
1285,F#4,178.0,0.5,95,112.0
1286,C#4,178.0,0.5,95,112.0
1287,G#3,178.0,0.5,95,112.0
1288,D3,178.0,0.5,95,112.0
1289,E4,178.0,29/500,95,112.0
1290,B3,178.0,29/500,95,112.0
1291,G3,178.0,29/500,95,112.0
1292,D3,178.0,29/500,95,112.0
1293,F#4,178.5,1.5,95,112.0
1294,C#4,178.5,1.5,95,112.0
1295,G#3,178.5,1.5,95,112.0
1296,D3,178.5,1.5,95,112.0
1297,E4,178.5,29/500,95,112.0
1298,B3,178.5,29/500,95,112.0
1299,G3,178.5,29/500,95,112.0
1300,D3,178.5,29/500,95,112.0
1301,B4,179.0,1.0,95,112.0
1302,F#4,179.0,1.0,95,112.0
1303,D4,179.0,1.0,95,112.0
1304,G#3,179.0,1.0,95,112.0
1305,G#4,180.0,4.0,95,112.0
1306,E4,180.0,4.0,95,112.0
1307,B3,180.0,4.0,95,112.0
1308,E4,181.0,0.5,95,112.0
1309,B3,181.0,0.5,95,112.0
1310,G#4,181.0,1.0,95,112.0
1311,E4,181.0,1.0,95,112.0
1312,B3,181.0,1.0,95,112.0
1313,E4,182.0,0.5,95,112.0
1314,B3,182.0,0.5,95,112.0
1315,G3,182.0,0.5,95,112.0
1316,E4,182.0,29/500,95,112.0
1317,B3,182.0,29/500,95,112.0
1318,G3,182.0,29/500,95,112.0
1319,E4,182.5,1.5,95,112.0
1320,B3,182.5,1.5,95,112.0
1321,E4,182.5,29/500,95,112.0
1322,B3,182.5,29/500,95,112.0
1323,G3,182.5,29/500,95,112.0
1324,G#4,183.0,1.0,95,112.0
1325,E4,183.0,1.0,95,112.0
1326,B3,183.0,1.0,95,112.0
1327,E-3,184.0,29/500,95,112.0
1328,F4,184.0,2.0,95,112.0
1329,C#4,184.0,2.0,95,112.0
1330,G#3,184.0,2.0,95,112.0
1331,B-2,184.0,2.0,95,112.0
1332,F4,184.0,2.0,95,112.0
1333,C#4,184.0,2.0,95,112.0
1334,G#3,184.0,2.0,95,112.0
1335,E-3,184.0,2.0,95,112.0
1336,B-2,184.0,2.0,95,112.0
1337,F4,185.5,0.5,95,112.0
1338,C#4,185.5,0.5,95,112.0
1339,G#3,185.5,0.5,95,112.0
1340,A2,186.0,29/500,95,112.0
1341,F4,186.0,2.0,95,112.0
1342,C#4,186.0,2.0,95,112.0
1343,G3,186.0,2.0,95,112.0
1344,B-2,186.0,2.0,95,112.0
1345,E-4,186.0,2.0,95,112.0
1346,C4,186.0,2.0,95,112.0
1347,G3,186.0,2.0,95,112.0
1348,E-3,186.0,2.0,95,112.0
1349,E-4,187.5,0.5,95,112.0
1350,C#4,187.5,0.5,95,112.0
1351,G3,187.5,0.5,95,112.0
1352,E-4,188.0,4.0,95,112.0
1353,B3,188.0,4.0,95,112.0
1354,F#3,188.0,4.0,95,112.0
1355,E-4,189.0,0.5,95,112.0
1356,B3,189.0,0.5,95,112.0
1357,F#3,189.0,0.5,95,112.0
1358,G#4,189.0,1.0,95,112.0
1359,E-4,189.0,1.0,95,112.0
1360,B3,189.0,1.0,95,112.0
1361,F#3,189.0,1.0,95,112.0
1362,E-4,190.0,0.5,95,112.0
1363,B3,190.0,0.5,95,112.0
1364,F#3,190.0,0.5,95,112.0
1365,E4,190.0,29/500,95,112.0
1366,B3,190.0,29/500,95,112.0
1367,G3,190.0,29/500,95,112.0
1368,D3,190.0,29/500,95,112.0
1369,E-4,190.5,1.5,95,112.0
1370,B3,190.5,1.5,95,112.0
1371,F#3,190.5,1.5,95,112.0
1372,E4,190.5,29/500,95,112.0
1373,B3,190.5,29/500,95,112.0
1374,G3,190.5,29/500,95,112.0
1375,D3,190.5,29/500,95,112.0
1376,G#4,191.0,1.0,95,112.0
1377,E-4,191.0,1.0,95,112.0
1378,B3,191.0,1.0,95,112.0
1379,F#3,191.0,1.0,95,112.0
1380,E4,192.0,4.0,95,112.0
1381,B3,192.0,4.0,95,112.0
1382,F#3,192.0,4.0,95,112.0
1383,F#4,193.0,0.5,95,112.0
1384,C#4,193.0,0.5,95,112.0
1385,G#3,193.0,0.5,95,112.0
1386,D3,193.0,0.5,95,112.0
1387,B4,193.0,1.0,95,112.0
1388,F#4,193.0,1.0,95,112.0
1389,D4,193.0,1.0,95,112.0
1390,G#3,193.0,1.0,95,112.0
1391,F#4,194.0,0.5,95,112.0
1392,C#4,194.0,0.5,95,112.0
1393,G#3,194.0,0.5,95,112.0
1394,D3,194.0,0.5,95,112.0
1395,E4,194.0,29/500,95,112.0
1396,B3,194.0,29/500,95,112.0
1397,G3,194.0,29/500,95,112.0
1398,D3,194.0,29/500,95,112.0
1399,F#4,194.5,1.5,95,112.0
1400,C#4,194.5,1.5,95,112.0
1401,G#3,194.5,1.5,95,112.0
1402,D3,194.5,1.5,95,112.0
1403,E4,194.5,29/500,95,112.0
1404,B3,194.5,29/500,95,112.0
1405,G3,194.5,29/500,95,112.0
1406,D3,194.5,29/500,95,112.0
1407,B4,195.0,1.0,95,112.0
1408,F#4,195.0,1.0,95,112.0
1409,D4,195.0,1.0,95,112.0
1410,G#3,195.0,1.0,95,112.0
1411,G#4,195.875,0.125,95,112.0
1412,E-4,195.875,0.125,95,112.0
1413,A4,196.0,3.0,95,112.0
1414,E4,196.0,3.0,95,112.0
1415,A4,196.0,2.0,95,112.0
1416,E4,196.0,2.0,95,112.0
1417,C4,196.0,2.0,95,112.0
1418,A4,196.0,2.0,95,112.0
1419,E4,196.0,2.0,95,112.0
1420,C4,196.0,2.0,95,112.0
1421,E4,198.5,0.5,95,112.0
1422,D4,198.5,0.5,95,112.0
1423,B3,198.5,0.5,95,112.0
1424,G3,198.5,0.5,95,112.0
1425,E4,198.5,0.5,95,112.0
1426,D4,198.5,0.5,95,112.0
1427,B3,198.5,0.5,95,112.0
1428,G3,198.5,0.5,95,112.0
1429,G4,199.0,0.5,95,112.0
1430,D4,199.0,0.5,95,112.0
1431,F#4,199.5,0.5,95,112.0
1432,C#4,199.5,0.5,95,112.0
1433,E4,199.5,0.5,95,112.0
1434,C#4,199.5,0.5,95,112.0
1435,B-3,199.5,0.5,95,112.0
1436,F#3,199.5,0.5,95,112.0
1437,E4,199.5,0.5,95,112.0
1438,C#4,199.5,0.5,95,112.0
1439,B-3,199.5,0.5,95,112.0
1440,F#3,199.5,0.5,95,112.0
1441,E4,200.0,1.5,95,112.0
1442,C#4,200.0,1.5,95,112.0
1443,B-3,200.0,1.5,95,112.0
1444,F#3,200.0,1.5,95,112.0
1445,E4,200.0,1.5,95,112.0
1446,C#4,200.0,1.5,95,112.0
1447,B-3,200.0,1.5,95,112.0
1448,F#3,200.0,1.5,95,112.0
1449,F#4,201.5,1.5,95,112.0
1450,C#4,201.5,1.5,95,112.0
1451,E4,201.5,2.5,95,112.0
1452,C4,201.5,2.5,95,112.0
1453,A3,201.5,2.5,95,112.0
1454,F3,201.5,2.5,95,112.0
1455,E4,201.5,2.5,95,112.0
1456,C4,201.5,2.5,95,112.0
1457,A3,201.5,2.5,95,112.0
1458,F3,201.5,2.5,95,112.0
1459,F4,203.0,2.5,95,112.0
1460,C4,203.0,2.5,95,112.0
1461,C#3,205.0,0.5,95,112.0
1462,B4,205.0,1.0,95,112.0
1463,F#4,205.0,1.0,95,112.0
1464,D4,205.0,1.0,95,112.0
1465,D3,205.5,29/500,95,112.0
1466,B2,205.5,0.5,95,112.0
1467,G3,205.75,29/500,95,112.0
1468,B3,206.0,29/500,95,112.0
1469,D3,206.0,0.5,95,112.0
1470,B4,206.25,0.25,95,112.0
1471,G4,206.5,1.5,95,112.0
1472,C#3,207.0,0.5,95,112.0
1473,B4,207.0,1.0,95,112.0
1474,F#4,207.0,1.0,95,112.0
1475,D4,207.0,1.0,95,112.0
1476,B2,207.5,0.5,95,112.0
1477,B3,208.0,29/500,95,112.0
1478,E3,208.0,0.5,95,112.0
1479,E4,208.0,0.5,95,112.0
1480,A4,208.5,1.0,95,112.0
1481,B2,208.5,0.5,95,112.0
1482,E4,208.5,0.5,95,112.0
1483,C#3,209.0,0.5,95,112.0
1484,B4,209.0,1.0,95,112.0
1485,F#4,209.0,1.0,95,112.0
1486,D4,209.0,1.0,95,112.0
1487,A4,209.5,1.0,95,112.0
1488,B2,209.5,0.5,95,112.0
1489,D3,210.0,1.0,95,112.0
1490,B4,210.0,0.5,95,112.0
1491,F#4,210.0,0.5,95,112.0
1492,D4,210.0,0.5,95,112.0
1493,G#4,210.5,0.25,95,112.0
1494,B4,210.5,0.5,95,112.0
1495,F#4,210.5,0.5,95,112.0
1496,D4,210.5,0.5,95,112.0
1497,E4,210.75,0.75,95,112.0
1498,C#3,211.0,0.5,95,112.0
1499,E4,211.0,29/500,95,112.0
1500,B3,211.0,29/500,95,112.0
1501,G3,211.0,29/500,95,112.0
1502,B2,211.5,0.5,95,112.0
1503,D4,211.5,0.5,95,112.0
1504,A3,211.5,0.5,95,112.0
1505,D4,212.0,0.5,95,112.0
1506,B-3,212.375,0.125,95,112.0
1507,A3,212.5,0.5,95,112.0
1508,B2,212.5,0.5,95,112.0
1509,E4,212.5,0.5,95,112.0
1510,G3,213.0,0.5,95,112.0
1511,C#3,213.0,1.0,95,112.0
1512,B4,213.0,1.0,95,112.0
1513,F#4,213.0,1.0,95,112.0
1514,D4,213.0,1.0,95,112.0
1515,E3,213.5,1.0,95,112.0
1516,D3,214.0,0.5,95,112.0
1517,G3,214.5,1.0,95,112.0
1518,E4,214.5,0.5,95,112.0
1519,B4,215.0,1.0,95,112.0
1520,F#4,215.0,1.0,95,112.0
1521,D4,215.0,1.0,95,112.0
1522,G#3,215.0,1.0,95,112.0
1523,E3,215.5,0.5,95,112.0
1524,F#3,216.0,0.5,95,112.0
1525,E3,216.0,0.5,95,112.0
1526,E4,216.0,1.0,95,112.0
1527,E3,216.5,0.5,95,112.0
1528,B3,217.0,0.5,95,112.0
1529,C#3,217.0,0.5,95,112.0
1530,B4,217.0,1.0,95,112.0
1531,F#4,217.0,1.0,95,112.0
1532,D4,217.0,1.0,95,112.0
1533,D4,217.5,0.25,95,112.0
1534,E4,217.75,0.25,95,112.0
1535,D4,218.0,0.25,70,112.0
1536,B2,218.0,0.5,95,112.0
1537,E4,218.0,29/500,95,112.0
1538,B3,218.0,29/500,95,112.0
1539,G3,218.0,29/500,95,112.0
1540,C#4,218.5,0.25,95,112.0
1541,C#3,218.5,0.5,95,112.0
1542,B4,218.5,0.5,95,112.0
1543,F#4,218.5,0.5,95,112.0
1544,D4,218.5,0.5,95,112.0
1545,D4,218.75,0.25,95,112.0
1546,E4,219.0,0.25,95,112.0
1547,E3,219.0,0.5,95,112.0
1548,F#4,219.25,0.25,95,112.0
1549,G4,219.5,0.25,70,112.0
1550,C#3,219.5,0.5,95,112.0
1551,F#4,219.75,0.25,70,112.0
1552,E4,220.0,0.25,95,112.0
1553,E2,220.0,1.0,95,112.0
1554,F#4,220.25,0.25,95,112.0
1555,G4,220.5,0.25,95,112.0
1556,A4,220.75,0.25,95,112.0
1557,B-4,221.0,0.25,95,112.0
1558,C#3,221.0,0.5,95,112.0
1559,B4,221.0,1.5,95,112.0
1560,F#4,221.0,1.5,95,112.0
1561,D4,221.0,1.5,95,112.0
1562,B4,221.25,0.25,70,112.0
1563,B4,221.5,1.0,95,112.0
1564,B2,222.0,0.5,95,112.0
1565,G3,222.5,29/500,95,112.0
1566,D3,222.5,29/500,95,112.0
1567,B4,222.5,0.5,95,112.0
1568,F#4,222.5,0.5,95,112.0
1569,D4,222.5,0.5,95,112.0
1570,E2,223.0,0.5,95,112.0
1571,C#3,223.0,0.5,95,112.0
1572,E3,223.5,0.5,95,112.0
1573,B4,223.5,0.5,95,112.0
1574,F#4,223.5,0.5,95,112.0
1575,E2,224.0,0.5,95,112.0
1576,G4,224.375,0.125,95,112.0
1577,G#4,224.5,0.125,95,112.0
1578,E3,224.5,0.5,95,112.0
1579,B4,224.5,0.5,95,112.0
1580,F#4,224.5,0.5,95,112.0
1581,D4,224.5,0.5,95,112.0
1582,G4,224.625,0.125,95,112.0
1583,G#4,224.75,0.125,95,112.0
1584,G4,224.875,0.125,95,112.0
1585,G#4,225.0,0.125,95,112.0
1586,C#3,225.0,0.5,95,112.0
1587,G4,225.125,0.125,95,112.0
1588,G#4,225.25,0.125,95,112.0
1589,G4,225.375,31/250,95,112.0
1590,E2,225.5,0.5,95,112.0
1591,E2,225.5,0.5,95,112.0
1592,E4,225.5,29/500,95,112.0
1593,B3,225.5,29/500,95,112.0
1594,G3,225.5,29/500,95,112.0
1595,D4,225.875,0.125,95,112.0
1596,E4,226.0,0.5,95,112.0
1597,D3,226.0,0.5,95,112.0
1598,B4,226.0,0.5,95,112.0
1599,F#4,226.0,0.5,95,112.0
1600,D4,226.0,0.5,95,112.0
1601,C#5,226.5,0.5,95,112.0
1602,E2,226.5,0.5,95,112.0
1603,B4,226.5,0.5,95,112.0
1604,F#4,226.5,0.5,95,112.0
1605,D4,226.5,0.5,95,112.0
1606,D4,227.0,0.5,95,112.0
1607,C#3,227.0,0.5,95,112.0
1608,B4,227.5,0.5,95,112.0
1609,B2,227.5,0.5,95,112.0
1610,B3,228.0,0.5,95,112.0
1611,B2,228.0,0.5,95,112.0
1612,G4,228.375,0.125,95,112.0
1613,G#4,228.5,0.125,95,112.0
1614,B2,228.5,0.5,95,112.0
1615,G4,228.625,0.125,95,112.0
1616,G#4,228.75,0.125,95,112.0
1617,G4,228.875,0.125,95,112.0
1618,G#4,229.0,0.125,95,112.0
1619,F#3,229.0,0.5,95,112.0
1620,A3,229.0,1.0,95,112.0
1621,B4,229.0,1.5,95,112.0
1622,F#4,229.0,1.5,95,112.0
1623,D4,229.0,1.5,95,112.0
1624,G4,229.125,0.125,95,112.0
1625,G#4,229.25,0.125,95,112.0
1626,G4,229.375,31/250,95,112.0
1627,B2,230.0,0.5,95,112.0
1628,B2,230.0,1.0,95,112.0
1629,G4,230.5,0.5,95,112.0
1630,B4,230.5,0.5,95,112.0
1631,F#4,230.5,0.5,95,112.0
1632,D4,230.5,0.5,95,112.0
1633,B3,231.0,0.5,95,112.0
1634,A3,231.0,0.5,95,112.0
1635,F#4,231.375,0.125,95,112.0
1636,G4,231.5,0.125,95,112.0
1637,B3,231.5,0.5,95,112.0
1638,F#4,231.625,0.125,95,112.0
1639,G4,231.75,0.125,95,112.0
1640,F#4,231.875,0.125,95,112.0
1641,G4,232.0,0.125,95,112.0
1642,F#4,232.125,0.125,95,112.0
1643,G4,232.25,0.125,95,112.0
1644,F#4,232.375,0.125,95,112.0
1645,C#4,232.375,0.125,95,112.0
1646,D4,232.5,0.125,95,112.0
1647,B2,232.5,0.5,95,112.0
1648,B4,232.5,0.5,95,112.0
1649,F#4,232.5,0.5,95,112.0
1650,D4,232.5,0.5,95,112.0
1651,C#4,232.625,0.125,95,112.0
1652,D4,232.75,0.125,95,112.0
1653,C#4,232.875,0.125,95,112.0
1654,D4,233.0,0.125,95,112.0
1655,F#3,233.0,0.5,95,112.0
1656,E4,233.0,29/500,95,112.0
1657,B3,233.0,29/500,95,112.0
1658,G3,233.0,29/500,95,112.0
1659,C#4,233.125,0.125,95,112.0
1660,D4,233.25,0.125,95,112.0
1661,C#4,233.375,31/250,95,112.0
1662,B2,233.5,29/500,95,112.0
1663,E4,233.5,29/500,95,112.0
1664,B3,233.5,29/500,95,112.0
1665,G3,233.5,29/500,95,112.0
1666,B2,234.0,0.5,95,112.0
1667,B3,234.0,0.5,95,112.0
1668,B4,234.0,0.5,95,112.0
1669,F#4,234.0,0.5,95,112.0
1670,D4,234.0,0.5,95,112.0
1671,G4,234.5,0.5,95,112.0
1672,F#3,234.5,0.5,95,112.0
1673,B4,234.5,0.5,95,112.0
1674,F#4,234.5,0.5,95,112.0
1675,D4,234.5,0.5,95,112.0
1676,B2,235.0,0.5,95,112.0
1677,F#4,235.375,0.125,95,112.0
1678,G4,235.5,0.125,95,112.0
1679,D3,235.5,0.5,95,112.0
1680,F#4,235.625,0.125,95,112.0
1681,G4,235.75,0.125,95,112.0
1682,F#4,235.875,0.125,95,112.0
1683,G4,236.0,0.125,95,112.0
1684,E2,236.0,0.5,95,112.0
1685,F#4,236.125,0.125,95,112.0
1686,G4,236.25,0.125,95,112.0
1687,F#4,236.375,0.125,95,112.0
1688,C#4,236.375,0.125,95,112.0
1689,D4,236.5,0.125,95,112.0
1690,E3,236.5,0.5,95,112.0
1691,C#4,236.625,0.125,95,112.0
1692,D4,236.75,0.125,95,112.0
1693,C#4,236.875,0.125,95,112.0
1694,D4,237.0,0.125,95,112.0
1695,C#3,237.0,0.5,95,112.0
1696,B4,237.0,1.5,95,112.0
1697,F#4,237.0,1.5,95,112.0
1698,D4,237.0,1.5,95,112.0
1699,C#4,237.125,0.125,95,112.0
1700,D4,237.25,0.125,95,112.0
1701,C#4,237.375,31/250,95,112.0
1702,E2,237.5,0.5,95,112.0
1703,D3,238.0,0.5,95,112.0
1704,C#5,238.5,0.5,95,112.0
1705,B2,238.5,0.5,95,112.0
1706,B4,238.5,0.5,95,112.0
1707,F#4,238.5,0.5,95,112.0
1708,D4,238.5,0.5,95,112.0
1709,D4,239.0,0.5,95,112.0
1710,B4,239.5,0.5,95,112.0
1711,B3,240.0,0.5,95,112.0
1712,E2,240.0,0.5,95,112.0
1713,G4,240.375,0.125,95,112.0
1714,G#4,240.5,0.125,95,112.0
1715,E3,240.5,0.5,95,112.0
1716,B4,240.5,0.5,95,112.0
1717,F#4,240.5,0.5,95,112.0
1718,D4,240.5,0.5,95,112.0
1719,G4,240.625,0.125,95,112.0
1720,G#4,240.75,0.125,95,112.0
1721,G4,240.875,0.125,95,112.0
1722,G#4,241.0,0.125,95,112.0
1723,C#3,241.0,0.5,95,112.0
1724,G4,241.125,0.125,95,112.0
1725,G#4,241.25,0.125,95,112.0
1726,G4,241.375,31/250,95,112.0
1727,E2,241.5,0.5,95,112.0
1728,E4,241.5,29/500,95,112.0
1729,B3,241.5,29/500,95,112.0
1730,G3,241.5,29/500,95,112.0
1731,D4,241.875,0.125,95,112.0
1732,E4,242.0,0.5,95,112.0
1733,D3,242.0,0.5,95,112.0
1734,B4,242.0,0.5,95,112.0
1735,F#4,242.0,0.5,95,112.0
1736,D4,242.0,0.5,95,112.0
1737,C#5,242.5,0.5,95,112.0
1738,B2,242.5,0.5,95,112.0
1739,B4,242.5,0.5,95,112.0
1740,F#4,242.5,0.5,95,112.0
1741,D4,242.5,0.5,95,112.0
1742,C#3,243.0,0.5,95,112.0
1743,B4,243.5,0.5,95,112.0
1744,B3,244.0,0.5,95,112.0
1745,B2,244.0,1.0,95,112.0
1746,G4,244.375,0.125,95,112.0
1747,G#4,244.5,0.125,95,112.0
1748,G4,244.625,0.125,95,112.0
1749,G#4,244.75,0.125,95,112.0
1750,G4,244.875,0.125,95,112.0
1751,G#4,245.0,0.125,95,112.0
1752,A3,245.0,1.0,95,112.0
1753,B4,245.0,1.5,95,112.0
1754,F#4,245.0,1.5,95,112.0
1755,D4,245.0,1.5,95,112.0
1756,G4,245.125,0.125,95,112.0
1757,G#4,245.25,0.125,95,112.0
1758,G4,245.375,31/250,95,112.0
1759,B4,245.5,0.5,95,112.0
1760,F#4,245.5,0.5,95,112.0
1761,B3,246.0,29/500,95,112.0
1762,F#3,246.0,1.0,95,112.0
1763,F#4,246.5,0.25,95,112.0
1764,B4,246.5,0.5,95,112.0
1765,F#4,246.5,0.5,95,112.0
1766,D4,246.5,0.5,95,112.0
1767,A4,246.75,0.25,70,112.0
1768,F#4,247.0,0.5,70,112.0
1769,A4,247.5,0.5,95,112.0
1770,E4,247.5,0.5,95,112.0
1771,A4,248.0,0.5,95,112.0
1772,E4,248.0,0.5,95,112.0
1773,F#4,248.5,0.25,95,112.0
1774,D4,248.5,0.25,95,112.0
1775,B4,248.5,0.5,95,112.0
1776,F#4,248.5,0.5,95,112.0
1777,D4,248.5,0.5,95,112.0
1778,A4,248.75,0.25,70,112.0
1779,E4,248.75,0.25,70,112.0
1780,F#4,249.0,0.5,70,112.0
1781,D4,249.0,0.5,70,112.0
1782,E4,249.0,29/500,95,112.0
1783,B3,249.0,29/500,95,112.0
1784,G3,249.0,29/500,95,112.0
1785,D4,249.375,0.125,95,112.0
1786,A3,249.375,0.125,95,112.0
1787,E4,249.5,0.5,95,112.0
1788,B3,249.5,0.5,95,112.0
1789,E4,249.5,29/500,95,112.0
1790,B3,249.5,29/500,95,112.0
1791,G3,249.5,29/500,95,112.0
1792,D4,250.0,0.5,95,112.0
1793,A3,250.0,0.5,95,112.0
1794,B4,250.0,0.5,95,112.0
1795,F#4,250.0,0.5,95,112.0
1796,D4,250.0,0.5,95,112.0
1797,B3,250.5,0.5,95,112.0
1798,C#4,250.5,0.25,95,112.0
1799,G#3,250.5,0.25,95,112.0
1800,B4,250.5,0.5,95,112.0
1801,F#4,250.5,0.5,95,112.0
1802,D4,250.5,0.5,95,112.0
1803,D4,250.75,0.25,70,112.0
1804,A3,250.75,0.25,70,112.0
1805,B2,251.0,0.5,95,112.0
1806,C#4,251.0,0.5,70,112.0
1807,G#3,251.0,0.5,70,112.0
1808,B-2,251.5,0.5,95,112.0
1809,B3,251.5,0.5,95,112.0
1810,F#3,251.5,0.5,95,112.0
1811,G3,252.0,0.5,95,112.0
1812,A2,252.0,1.0,95,112.0
1813,E4,252.0,29/500,95,112.0
1814,B3,252.0,29/500,95,112.0
1815,G3,252.0,29/500,95,112.0
1816,E3,252.5,0.25,95,112.0
1817,E4,252.5,29/500,95,112.0
1818,B3,252.5,29/500,95,112.0
1819,G3,252.5,29/500,95,112.0
1820,G3,252.75,0.75,70,112.0
1821,A4,253.0,1.0,95,112.0
1822,E4,253.0,1.0,95,112.0
1823,C4,253.0,1.0,95,112.0
1824,E4,253.5,1.0,95,112.0
1825,C4,253.5,1.0,95,112.0
1826,G3,253.5,1.0,95,112.0
1827,G3,254.0,0.5,95,112.0
1828,E4,254.0,29/500,95,112.0
1829,B3,254.0,29/500,95,112.0
1830,G3,254.0,29/500,95,112.0
1831,E3,254.5,0.5,95,112.0
1832,E4,254.5,1.0,95,112.0
1833,C4,254.5,1.0,95,112.0
1834,G3,254.5,1.0,95,112.0
1835,E4,254.5,29/500,95,112.0
1836,B3,254.5,29/500,95,112.0
1837,G3,254.5,29/500,95,112.0
1838,A4,255.0,1.0,95,112.0
1839,E4,255.0,1.0,95,112.0
1840,C4,255.0,1.0,95,112.0
1841,E3,255.5,0.5,95,112.0
1842,E4,255.5,1.0,95,112.0
1843,C4,255.5,1.0,95,112.0
1844,G3,255.5,1.0,95,112.0
1845,A2,256.0,1.0,95,112.0
1846,E4,256.0,29/500,95,112.0
1847,B3,256.0,29/500,95,112.0
1848,G3,256.0,29/500,95,112.0
1849,E4,256.5,1.0,95,112.0
1850,C4,256.5,1.0,95,112.0
1851,G3,256.5,1.0,95,112.0
1852,E4,256.5,29/500,95,112.0
1853,B3,256.5,29/500,95,112.0
1854,G3,256.5,29/500,95,112.0
1855,A4,257.0,1.0,95,112.0
1856,E4,257.0,1.0,95,112.0
1857,C4,257.0,1.0,95,112.0
1858,E4,257.5,1.0,95,112.0
1859,C4,257.5,1.0,95,112.0
1860,G3,257.5,1.0,95,112.0
1861,E3,258.0,0.5,95,112.0
1862,E4,258.0,29/500,95,112.0
1863,B3,258.0,29/500,95,112.0
1864,G3,258.0,29/500,95,112.0
1865,E3,258.5,0.5,95,112.0
1866,E4,258.5,1.0,95,112.0
1867,C4,258.5,1.0,95,112.0
1868,G3,258.5,1.0,95,112.0
1869,E4,258.5,29/500,95,112.0
1870,B3,258.5,29/500,95,112.0
1871,G3,258.5,29/500,95,112.0
1872,A4,259.0,1.0,95,112.0
1873,E4,259.0,1.0,95,112.0
1874,C4,259.0,1.0,95,112.0
1875,E4,259.5,1.0,95,112.0
1876,C4,259.5,1.0,95,112.0
1877,G3,259.5,1.0,95,112.0
1878,G2,260.0,1.0,95,112.0
1879,E4,260.0,29/500,95,112.0
1880,B3,260.0,29/500,95,112.0
1881,G3,260.0,29/500,95,112.0
1882,E4,260.5,0.5,95,112.0
1883,C4,260.5,0.5,95,112.0
1884,G3,260.5,0.5,95,112.0
1885,E4,260.5,29/500,95,112.0
1886,B3,260.5,29/500,95,112.0
1887,G3,260.5,29/500,95,112.0
1888,G3,261.0,29/500,95,112.0
1889,D3,261.0,29/500,95,112.0
1890,A4,261.0,1.0,95,112.0
1891,E4,261.0,1.0,95,112.0
1892,C4,261.0,1.0,95,112.0
1893,F3,261.0,1.0,95,112.0
1894,G3,261.25,29/500,95,112.0
1895,D3,261.25,29/500,95,112.0
1896,G2,261.5,0.5,95,112.0
1897,F#4,261.5,1.0,95,112.0
1898,D4,261.5,1.0,95,112.0
1899,G3,261.5,1.0,95,112.0
1900,D3,262.0,0.5,95,112.0
1901,E4,262.0,29/500,95,112.0
1902,B3,262.0,29/500,95,112.0
1903,G3,262.0,29/500,95,112.0
1904,D3,262.0,29/500,95,112.0
1905,D3,262.5,0.5,95,112.0
1906,F#4,262.5,1.0,95,112.0
1907,D4,262.5,1.0,95,112.0
1908,G3,262.5,1.0,95,112.0
1909,A4,263.0,1.0,95,112.0
1910,E4,263.0,1.0,95,112.0
1911,C4,263.0,1.0,95,112.0
1912,F3,263.0,1.0,95,112.0
1913,G2,263.5,0.5,95,112.0
1914,F#4,263.5,1.0,95,112.0
1915,D4,263.5,1.0,95,112.0
1916,G3,263.5,1.0,95,112.0
1917,F2,264.0,0.5,95,112.0
1918,E4,264.0,29/500,95,112.0
1919,B3,264.0,29/500,95,112.0
1920,G3,264.0,29/500,95,112.0
1921,D3,264.0,29/500,95,112.0
1922,F#4,264.5,1.0,95,112.0
1923,D4,264.5,1.0,95,112.0
1924,G3,264.5,1.0,95,112.0
1925,F2,265.0,3.0,95,112.0
1926,G4,265.0,3.0,95,112.0
1927,E4,265.0,3.0,95,112.0
1928,C4,265.0,3.0,95,112.0
1929,F3,265.0,3.0,95,112.0
1930,E4,265.5,1.0,95,112.0
1931,C4,265.5,1.0,95,112.0
1932,F3,265.5,1.0,95,112.0
1933,G4,266.5,1.0,95,112.0
1934,F3,266.5,1.0,95,112.0
1935,E4,266.5,3.0,95,112.0
1936,C4,266.5,3.0,95,112.0
1937,C#3,269.0,0.5,95,112.0
1938,B4,269.0,1.5,95,112.0
1939,F#4,269.0,1.5,95,112.0
1940,D4,269.0,1.5,95,112.0
1941,E2,269.5,0.5,95,112.0
1942,A2,269.5,29/500,95,112.0
1943,D4,269.875,0.125,95,112.0
1944,E4,270.0,0.5,95,112.0
1945,E3,270.0,0.5,95,112.0
1946,C#5,270.5,0.5,95,112.0
1947,B4,270.5,0.5,95,112.0
1948,F#4,270.5,0.5,95,112.0
1949,D4,270.5,0.5,95,112.0
1950,D4,271.0,0.5,95,112.0
1951,C#3,271.0,0.5,95,112.0
1952,B4,271.5,0.5,95,112.0
1953,C3,271.5,0.5,95,112.0
1954,B2,272.0,2.0,95,112.0
1955,B4,272.0,2.0,95,112.0
1956,F#4,272.0,2.0,95,112.0
1957,D4,272.0,2.0,95,112.0
1958,A3,272.0,2.0,95,112.0
1959,G4,272.375,0.125,95,112.0
1960,G#4,272.5,0.125,95,112.0
1961,G4,272.625,0.125,95,112.0
1962,G#4,272.75,0.125,95,112.0
1963,G4,272.875,0.125,95,112.0
1964,G#4,273.0,0.125,95,112.0
1965,G4,273.125,0.125,95,112.0
1966,G#4,273.25,0.125,95,112.0
1967,G4,273.375,31/250,95,112.0
1968,B2,273.5,1.5,95,112.0
1969,D3,274.0,2.0,95,112.0
1970,F#4,274.0,2.0,95,112.0
1971,D4,274.0,2.0,95,112.0
1972,A3,274.0,2.0,95,112.0
1973,B2,275.0,0.5,95,112.0
1974,D3,275.5,2.0,95,112.0
1975,E3,276.0,4.0,95,112.0
1976,A4,277.0,0.5,95,112.0
1977,E4,277.0,0.5,95,112.0
1978,C4,277.0,0.5,95,112.0
1979,F#4,278.0,0.5,95,112.0
1980,D4,278.0,0.5,95,112.0
1981,A4,278.5,1.0,103,112.0
1982,E4,278.5,1.0,103,112.0
1983,C4,278.5,1.0,103,112.0
1984,A3,278.5,1.0,103,112.0
1985,G4,278.5,1.5,95,112.0
1986,E4,278.5,1.5,95,112.0
1987,C4,278.5,1.5,95,112.0
1988,B-4,279.875,0.125,95,112.0
1989,F#4,279.875,0.125,95,112.0
1990,B3,279.875,0.125,95,112.0
1991,B4,280.0,0.5,95,112.0
1992,G4,280.0,0.5,95,112.0
1993,C4,280.0,0.5,95,112.0
1994,E5,280.5,0.5,95,112.0
1995,A4,280.5,1.0,103,112.0
1996,E4,280.5,1.0,103,112.0
1997,C4,280.5,1.0,103,112.0
1998,A3,280.5,1.0,103,112.0
1999,B4,280.875,0.125,95,112.0
2000,A4,281.0,0.5,95,112.0
2001,F#4,281.5,0.5,95,112.0
2002,D4,281.5,0.5,95,112.0
2003,A3,281.5,0.5,95,112.0
2004,A4,282.5,1.0,103,112.0
2005,E4,282.5,1.0,103,112.0
2006,C4,282.5,1.0,103,112.0
2007,A3,282.5,1.0,103,112.0
2008,E4,282.5,1.5,95,112.0
2009,C4,282.5,1.5,95,112.0
2010,G3,282.5,1.5,95,112.0
2011,A4,283.0,1.0,95,112.0
2012,E4,283.0,1.0,95,112.0
2013,C4,283.0,1.0,95,112.0
2014,A3,283.0,1.0,95,112.0
2015,G4,284.0,4.0,95,112.0
2016,E4,284.0,4.0,95,112.0
2017,B3,284.0,4.0,95,112.0
2018,B4,284.5,0.25,95,112.0
2019,A4,284.5,1.0,103,112.0
2020,E4,284.5,1.0,103,112.0
2021,C4,284.5,1.0,103,112.0
2022,A3,284.5,1.0,103,112.0
2023,C5,284.75,0.25,95,112.0
2024,B4,285.0,0.5,95,112.0
2025,G4,285.5,0.5,95,112.0
2026,B4,286.0,0.25,95,112.0
2027,C5,286.25,0.25,95,112.0
2028,B4,286.5,0.5,95,112.0
2029,A4,286.5,1.0,103,112.0
2030,E4,286.5,1.0,103,112.0
2031,C4,286.5,1.0,103,112.0
2032,A3,286.5,1.0,103,112.0
2033,G4,287.0,0.5,95,112.0
2034,B4,287.5,0.5,95,112.0
2035,D5,288.0,0.5,95,112.0
2036,B4,288.375,0.125,95,112.0
2037,A4,288.5,0.5,95,112.0
2038,A4,288.5,1.0,103,112.0
2039,E4,288.5,1.0,103,112.0
2040,C4,288.5,1.0,103,112.0
2041,A3,288.5,1.0,103,112.0
2042,B4,289.0,0.5,95,112.0
2043,G4,289.0,1.0,95,112.0
2044,E4,289.0,1.0,95,112.0
2045,B3,289.0,1.0,95,112.0
2046,A4,289.375,0.125,95,112.0
2047,G4,289.5,0.5,95,112.0
2048,A4,290.0,0.5,95,112.0
2049,F#4,290.375,0.125,95,112.0
2050,E4,290.5,0.5,95,112.0
2051,A4,290.5,1.0,103,112.0
2052,E4,290.5,1.0,103,112.0
2053,C4,290.5,1.0,103,112.0
2054,A3,290.5,1.0,103,112.0
2055,E4,291.0,0.5,95,112.0
2056,D4,291.5,0.5,95,112.0
2057,E4,292.0,1.0,95,112.0
2058,E4,292.0,0.5,95,112.0
2059,B3,292.0,0.5,95,112.0
2060,E2,292.5,0.5,95,112.0
2061,A4,292.5,1.0,103,112.0
2062,E4,292.5,1.0,103,112.0
2063,C4,292.5,1.0,103,112.0
2064,A3,292.5,1.0,103,112.0
2065,B4,293.0,1.0,95,112.0
2066,F#4,293.0,1.0,95,112.0
2067,D4,293.0,1.0,95,112.0
2068,B2,293.5,0.5,95,112.0
2069,D4,293.875,0.125,95,112.0
2070,E4,294.0,0.5,95,112.0
2071,C#3,294.0,1.0,95,112.0
2072,E4,294.0,29/500,95,112.0
2073,B3,294.0,29/500,95,112.0
2074,G3,294.0,29/500,95,112.0
2075,C#5,294.5,0.5,95,112.0
2076,B4,294.5,0.5,95,112.0
2077,F#4,294.5,0.5,95,112.0
2078,D4,294.5,0.5,95,112.0
2079,D4,295.0,0.5,95,112.0
2080,D3,295.0,0.5,95,112.0
2081,B4,295.5,0.5,95,112.0
2082,B3,296.0,0.5,95,112.0
2083,C#3,296.0,0.5,95,112.0
2084,G4,296.375,0.125,95,112.0
2085,G#4,296.5,0.125,95,112.0
2086,B2,296.5,0.5,95,112.0
2087,B4,296.5,0.5,95,112.0
2088,F#4,296.5,0.5,95,112.0
2089,D4,296.5,0.5,95,112.0
2090,G4,296.625,0.125,95,112.0
2091,G#4,296.75,0.125,95,112.0
2092,G4,296.875,0.125,95,112.0
2093,G#4,297.0,0.125,95,112.0
2094,E2,297.0,0.5,95,112.0
2095,G4,297.125,0.125,95,112.0
2096,G#4,297.25,0.125,95,112.0
2097,G4,297.375,31/250,95,112.0
2098,D4,297.5,0.25,95,112.0
2099,B2,297.5,0.5,95,112.0
2100,G3,297.75,29/500,95,112.0
2101,D4,298.0,0.5,95,112.0
2102,C#3,298.0,0.5,95,112.0
2103,B4,298.0,0.5,95,112.0
2104,F#4,298.0,0.5,95,112.0
2105,D4,298.0,0.5,95,112.0
2106,B-3,298.375,0.125,95,112.0
2107,A3,298.5,0.5,95,112.0
2108,B2,298.5,0.5,95,112.0
2109,B4,298.5,0.5,95,112.0
2110,F#4,298.5,0.5,95,112.0
2111,D4,298.5,0.5,95,112.0
2112,G3,299.0,0.5,95,112.0
2113,D3,299.0,0.5,95,112.0
2114,A3,299.5,0.25,95,112.0
2115,G3,299.75,0.25,70,112.0
2116,E3,300.0,0.5,95,112.0
2117,C#3,300.0,0.5,95,112.0
2118,E4,300.0,1.0,95,112.0
2119,D3,300.5,0.5,95,112.0
2120,E3,300.5,0.5,95,112.0
2121,E3,301.0,0.5,95,112.0
2122,E2,301.0,0.5,95,112.0
2123,B4,301.0,1.0,95,112.0
2124,F#4,301.0,1.0,95,112.0
2125,D4,301.0,1.0,95,112.0
2126,G#3,301.0,1.0,95,112.0
2127,E2,301.5,0.5,95,112.0
2128,E3,301.5,0.5,95,112.0
2129,D4,301.875,0.125,95,112.0
2130,E4,302.0,0.5,95,112.0
2131,C#3,302.0,0.5,95,112.0
2132,E4,302.0,29/500,95,112.0
2133,B3,302.0,29/500,95,112.0
2134,G3,302.0,29/500,95,112.0
2135,D3,302.0,29/500,95,112.0
2136,C#5,302.5,0.5,95,112.0
2137,B4,302.5,0.5,95,112.0
2138,F#4,302.5,0.5,95,112.0
2139,D4,302.5,0.5,95,112.0
2140,D4,303.0,0.5,95,112.0
2141,D3,303.0,0.5,95,112.0
2142,B4,303.5,0.5,95,112.0
2143,F#4,303.5,0.5,95,112.0
2144,B3,304.0,0.5,95,112.0
2145,C#3,304.0,0.5,95,112.0
2146,G4,304.375,0.125,95,112.0
2147,G#4,304.5,0.125,95,112.0
2148,B2,304.5,0.5,95,112.0
2149,B4,304.5,0.5,95,112.0
2150,F#4,304.5,0.5,95,112.0
2151,D4,304.5,0.5,95,112.0
2152,G4,304.625,0.125,95,112.0
2153,G#4,304.75,0.125,95,112.0
2154,G4,304.875,0.125,95,112.0
2155,G#4,305.0,0.125,95,112.0
2156,E2,305.0,0.5,95,112.0
2157,G4,305.125,0.125,95,112.0
2158,G#4,305.25,0.125,95,112.0
2159,G4,305.375,31/250,95,112.0
2160,G3,305.5,29/500,95,112.0
2161,B2,305.5,0.5,95,112.0
2162,G3,305.75,29/500,95,112.0
2163,D4,306.0,0.5,95,112.0
2164,C#3,306.0,0.5,95,112.0
2165,B4,306.0,0.5,95,112.0
2166,F#4,306.0,0.5,95,112.0
2167,D4,306.0,0.5,95,112.0
2168,D4,306.5,0.5,95,112.0
2169,B4,306.5,0.5,95,112.0
2170,F#4,306.5,0.5,95,112.0
2171,D4,306.5,0.5,95,112.0
2172,D4,307.0,0.5,95,112.0
2173,D3,307.0,0.5,95,112.0
2174,B-3,307.375,0.125,95,112.0
2175,A3,307.5,0.5,95,112.0
2176,C#3,307.5,0.5,95,112.0
2177,G3,308.0,0.5,95,112.0
2178,B2,308.0,0.5,95,112.0
2179,E4,308.0,1.0,95,112.0
2180,A3,308.5,0.25,95,112.0
2181,G2,308.5,0.5,95,112.0
2182,G3,308.75,0.75,70,112.0
2183,B4,309.0,1.0,95,112.0
2184,F#4,309.0,1.0,95,112.0
2185,D4,309.0,1.0,95,112.0
2186,E2,309.5,0.5,95,112.0
2187,E2,309.5,0.5,95,112.0
2188,D4,309.875,0.125,95,112.0
2189,E4,310.0,0.5,95,112.0
2190,C#3,310.0,0.5,95,112.0
2191,E4,310.0,29/500,95,112.0
2192,B3,310.0,29/500,95,112.0
2193,G3,310.0,29/500,95,112.0
2194,C#5,310.5,0.5,95,112.0
2195,A2,310.5,29/500,95,112.0
2196,B4,310.5,0.5,95,112.0
2197,F#4,310.5,0.5,95,112.0
2198,D4,310.5,0.5,95,112.0
2199,D4,311.0,0.5,95,112.0
2200,D3,311.0,0.5,95,112.0
2201,B4,311.5,0.5,95,112.0
2202,B3,312.0,0.5,95,112.0
2203,C#3,312.0,0.5,95,112.0
2204,G4,312.375,0.125,95,112.0
2205,G#4,312.5,0.125,95,112.0
2206,B2,312.5,0.5,95,112.0
2207,B4,312.5,0.5,95,112.0
2208,F#4,312.5,0.5,95,112.0
2209,D4,312.5,0.5,95,112.0
2210,G4,312.625,0.125,95,112.0
2211,G#4,312.75,0.125,95,112.0
2212,G4,312.875,0.125,95,112.0
2213,G#4,313.0,0.125,95,112.0
2214,E2,313.0,0.5,95,112.0
2215,G4,313.125,0.125,95,112.0
2216,G#4,313.25,0.125,95,112.0
2217,G4,313.375,31/250,95,112.0
2218,E2,313.5,0.5,95,112.0
2219,E2,313.5,0.5,95,112.0
2220,D4,313.875,0.125,95,112.0
2221,E4,314.0,0.5,95,112.0
2222,C#3,314.0,0.5,95,112.0
2223,B4,314.0,0.5,95,112.0
2224,F#4,314.0,0.5,95,112.0
2225,D4,314.0,0.5,95,112.0
2226,C#5,314.5,0.5,95,112.0
2227,B4,314.5,0.5,95,112.0
2228,F#4,314.5,0.5,95,112.0
2229,D4,314.5,0.5,95,112.0
2230,D4,315.0,0.5,95,112.0
2231,D3,315.0,0.25,95,112.0
2232,C#3,315.25,0.25,95,112.0
2233,B4,315.5,0.5,95,112.0
2234,B2,315.5,0.5,95,112.0
2235,G2,315.875,0.125,95,112.0
2236,B3,316.0,0.5,95,112.0
2237,G#2,316.0,0.5,95,112.0
2238,E4,316.0,1.0,95,112.0
2239,G4,316.375,0.125,95,112.0
2240,G#4,316.5,0.125,95,112.0
2241,E3,316.5,0.5,95,112.0
2242,G4,316.625,0.125,95,112.0
2243,G#4,316.75,0.125,95,112.0
2244,G4,316.875,0.125,95,112.0
2245,G#4,317.0,0.125,95,112.0
2246,E3,317.0,0.5,95,112.0
2247,B4,317.0,1.0,95,112.0
2248,F#4,317.0,1.0,95,112.0
2249,D4,317.0,1.0,95,112.0
2250,G#3,317.0,1.0,95,112.0
2251,G4,317.125,0.125,95,112.0
2252,G#4,317.25,0.125,95,112.0
2253,G4,317.375,31/250,95,112.0
2254,B4,317.5,0.25,95,112.0
2255,E3,317.5,0.5,95,112.0
2256,G4,317.75,0.75,95,112.0
2257,C#3,318.0,0.5,95,112.0
2258,E4,318.0,29/500,95,112.0
2259,B3,318.0,29/500,95,112.0
2260,G3,318.0,29/500,95,112.0
2261,D3,318.0,29/500,95,112.0
2262,C#5,318.5,0.25,95,112.0
2263,E2,318.5,0.5,95,112.0
2264,B4,318.5,0.5,95,112.0
2265,F#4,318.5,0.5,95,112.0
2266,D4,318.5,0.5,95,112.0
2267,G4,318.75,0.75,95,112.0
2268,D3,319.0,0.5,95,112.0
2269,B4,319.5,0.25,95,112.0
2270,G4,319.75,0.75,95,112.0
2271,C#3,320.0,0.5,95,112.0
2272,C#5,320.5,0.25,95,112.0
2273,B2,320.5,0.5,95,112.0
2274,B4,320.5,0.5,95,112.0
2275,F#4,320.5,0.5,95,112.0
2276,D4,320.5,0.5,95,112.0
2277,G4,320.75,0.75,95,112.0
2278,E2,321.0,0.5,95,112.0
2279,A3,321.375,0.125,95,112.0
2280,B3,321.5,0.5,95,112.0
2281,B2,321.5,0.5,95,112.0
2282,E4,322.0,0.5,95,112.0
2283,C3,322.0,0.5,95,112.0
2284,B4,322.0,0.5,95,112.0
2285,F#4,322.0,0.5,95,112.0
2286,D4,322.0,0.5,95,112.0
2287,A3,322.5,0.25,95,112.0
2288,B4,322.5,0.5,95,112.0
2289,F#4,322.5,0.5,95,112.0
2290,D4,322.5,0.5,95,112.0
2291,G3,322.75,0.25,70,112.0
2292,E3,323.0,0.5,95,112.0
2293,D3,323.0,0.5,95,112.0
2294,A3,323.5,0.5,95,112.0
2295,C#3,323.5,0.5,95,112.0
2296,A3,324.0,0.5,95,112.0
2297,B2,324.0,0.5,95,112.0
2298,E4,324.0,1.0,95,112.0
2299,G3,324.5,0.5,95,112.0
2300,C#3,324.5,0.5,95,112.0
2301,E3,325.0,0.5,95,112.0
2302,E2,325.0,0.5,95,112.0
2303,B4,325.0,1.0,95,112.0
2304,F#4,325.0,1.0,95,112.0
2305,D4,325.0,1.0,95,112.0
2306,E2,325.5,0.5,95,112.0
2307,B2,325.5,0.5,95,112.0
2308,D4,325.875,0.125,95,112.0
2309,E4,326.0,0.5,95,112.0
2310,C#3,326.0,0.5,95,112.0
2311,E4,326.0,29/500,95,112.0
2312,B3,326.0,29/500,95,112.0
2313,G3,326.0,29/500,95,112.0
2314,C#5,326.5,0.5,95,112.0
2315,B2,326.5,0.5,95,112.0
2316,B4,326.5,0.5,95,112.0
2317,F#4,326.5,0.5,95,112.0
2318,D4,326.5,0.5,95,112.0
2319,D4,327.0,0.5,95,112.0
2320,D3,327.0,0.5,95,112.0
2321,B4,327.5,0.5,95,112.0
2322,B2,327.5,0.5,95,112.0
2323,B3,328.0,0.5,95,112.0
2324,G4,328.375,0.125,95,112.0
2325,G#4,328.5,0.125,95,112.0
2326,E3,328.5,0.5,95,112.0
2327,B4,328.5,0.5,95,112.0
2328,F#4,328.5,0.5,95,112.0
2329,D4,328.5,0.5,95,112.0
2330,G4,328.625,0.125,95,112.0
2331,G#4,328.75,0.125,95,112.0
2332,G4,328.875,0.125,95,112.0
2333,G#4,329.0,0.125,95,112.0
2334,E3,329.0,0.5,95,112.0
2335,G4,329.125,0.125,95,112.0
2336,G#4,329.25,0.125,95,112.0
2337,G4,329.375,31/250,95,112.0
2338,E2,329.5,0.5,95,112.0
2339,E3,329.5,0.5,95,112.0
2340,D4,329.875,0.125,95,112.0
2341,E4,330.0,0.5,95,112.0
2342,C#3,330.0,0.5,95,112.0
2343,B4,330.0,0.5,95,112.0
2344,F#4,330.0,0.5,95,112.0
2345,D4,330.0,0.5,95,112.0
2346,C#5,330.5,0.5,95,112.0
2347,B4,330.5,0.5,95,112.0
2348,F#4,330.5,0.5,95,112.0
2349,D4,330.5,0.5,95,112.0
2350,D4,331.0,0.5,95,112.0
2351,D3,331.0,0.5,95,112.0
2352,B4,331.5,0.5,95,112.0
2353,B3,332.0,0.5,95,112.0
2354,E4,332.0,1.0,95,112.0
2355,G4,332.375,0.125,95,112.0
2356,G#4,332.5,0.125,95,112.0
2357,G4,332.625,0.125,95,112.0
2358,G#4,332.75,0.125,95,112.0
2359,G4,332.875,0.125,95,112.0
2360,G#4,333.0,0.125,95,112.0
2361,E2,333.0,1.0,95,112.0
2362,B4,333.0,1.0,95,112.0
2363,F#4,333.0,1.0,95,112.0
2364,D4,333.0,1.0,95,112.0
2365,G#3,333.0,1.0,95,112.0
2366,G4,333.125,0.125,95,112.0
2367,G#4,333.25,0.125,95,112.0
2368,G4,333.375,31/250,95,112.0
2369,E2,333.5,0.5,95,112.0
2370,G4,333.875,0.125,95,112.0
2371,D4,333.875,0.125,95,112.0
2372,C#3,334.0,0.5,95,112.0
2373,A4,334.0,0.5,95,112.0
2374,E4,334.0,0.5,95,112.0
2375,E4,334.0,29/500,95,112.0
2376,B3,334.0,29/500,95,112.0
2377,G3,334.0,29/500,95,112.0
2378,D3,334.0,29/500,95,112.0
2379,B2,334.5,0.5,95,112.0
2380,G4,334.5,0.5,95,112.0
2381,D4,334.5,0.5,95,112.0
2382,B4,334.5,0.5,95,112.0
2383,F#4,334.5,0.5,95,112.0
2384,D4,334.5,0.5,95,112.0
2385,D3,335.0,0.5,95,112.0
2386,E4,335.0,0.5,95,112.0
2387,B3,335.0,0.5,95,112.0
2388,A3,335.5,0.25,95,112.0
2389,B3,335.75,0.25,95,112.0
2390,E4,336.0,0.5,95,112.0
2391,C#3,336.0,0.5,95,112.0
2392,A3,336.5,0.25,95,112.0
2393,B2,336.5,0.5,95,112.0
2394,B4,336.5,0.5,95,112.0
2395,F#4,336.5,0.5,95,112.0
2396,D4,336.5,0.5,95,112.0
2397,G3,336.75,0.75,70,112.0
2398,A3,337.5,0.25,95,112.0
2399,E3,337.5,0.5,95,112.0
2400,D4,337.75,1.75,95,112.0
2401,C#3,338.0,0.5,95,112.0
2402,B4,338.0,0.5,95,112.0
2403,F#4,338.0,0.5,95,112.0
2404,D4,338.0,0.5,95,112.0
2405,B4,338.5,0.5,95,112.0
2406,F#4,338.5,0.5,95,112.0
2407,D4,338.5,0.5,95,112.0
2408,E3,339.0,0.5,95,112.0
2409,C#3,339.5,0.5,95,112.0
2410,D4,339.5,2.0,95,112.0
2411,A3,339.5,2.0,95,112.0
2412,G2,339.875,0.125,95,112.0
2413,G#2,340.0,0.5,95,112.0
2414,E4,340.0,1.0,95,112.0
2415,B2,340.5,0.5,95,112.0
2416,B4,341.0,1.0,95,112.0
2417,F#4,341.0,1.0,95,112.0
2418,D4,341.0,1.0,95,112.0
2419,E2,341.5,0.5,95,112.0
2420,E3,341.5,0.5,95,112.0
2421,D4,341.875,0.125,95,112.0
2422,E4,342.0,0.5,95,112.0
2423,C#3,342.0,0.5,95,112.0
2424,E4,342.0,29/500,95,112.0
2425,B3,342.0,29/500,95,112.0
2426,G3,342.0,29/500,95,112.0
2427,C#5,342.5,0.5,95,112.0
2428,B4,342.5,0.5,95,112.0
2429,F#4,342.5,0.5,95,112.0
2430,D4,342.5,0.5,95,112.0
2431,D4,343.0,0.5,95,112.0
2432,D3,343.0,0.5,95,112.0
2433,B4,343.5,0.5,95,112.0
2434,B3,344.0,0.5,95,112.0
2435,C#3,344.0,0.5,95,112.0
2436,G4,344.375,0.125,95,112.0
2437,G#4,344.5,0.125,95,112.0
2438,B2,344.5,0.5,95,112.0
2439,B4,344.5,0.5,95,112.0
2440,F#4,344.5,0.5,95,112.0
2441,D4,344.5,0.5,95,112.0
2442,G4,344.625,0.125,95,112.0
2443,G#4,344.75,0.125,95,112.0
2444,G4,344.875,0.125,95,112.0
2445,G#4,345.0,0.125,95,112.0
2446,E2,345.0,0.5,95,112.0
2447,G4,345.125,0.125,95,112.0
2448,G#4,345.25,0.125,95,112.0
2449,G4,345.375,31/250,95,112.0
2450,E2,345.5,0.5,95,112.0
2451,E3,345.5,0.5,95,112.0
2452,D4,345.875,0.125,95,112.0
2453,E4,346.0,0.5,95,112.0
2454,C#3,346.0,0.5,95,112.0
2455,B4,346.0,0.5,95,112.0
2456,F#4,346.0,0.5,95,112.0
2457,D4,346.0,0.5,95,112.0
2458,C#5,346.5,0.5,95,112.0
2459,E2,346.5,0.5,95,112.0
2460,B4,346.5,0.5,95,112.0
2461,F#4,346.5,0.5,95,112.0
2462,D4,346.5,0.5,95,112.0
2463,D4,347.0,0.5,95,112.0
2464,D3,347.0,0.5,95,112.0
2465,B4,347.5,0.5,95,112.0
2466,E2,347.5,0.5,95,112.0
2467,B3,348.0,0.5,95,112.0
2468,C#3,348.0,1.0,95,112.0
2469,E4,348.0,1.0,95,112.0
2470,G4,348.375,0.125,95,112.0
2471,G#4,348.5,0.125,95,112.0
2472,G4,348.625,0.125,95,112.0
2473,G#4,348.75,0.125,95,112.0
2474,G4,348.875,0.125,95,112.0
2475,G#4,349.0,0.125,95,112.0
2476,E2,349.0,0.5,95,112.0
2477,B4,349.0,1.0,95,112.0
2478,F#4,349.0,1.0,95,112.0
2479,D4,349.0,1.0,95,112.0
2480,G#3,349.0,1.0,95,112.0
2481,G4,349.125,0.125,95,112.0
2482,G#4,349.25,0.125,95,112.0
2483,G4,349.375,31/250,95,112.0
2484,E3,349.5,0.5,95,112.0
2485,C#3,350.0,0.5,95,112.0
2486,B4,350.0,0.5,95,112.0
2487,A4,350.0,0.5,95,112.0
2488,E4,350.0,29/500,95,112.0
2489,B3,350.0,29/500,95,112.0
2490,G3,350.0,29/500,95,112.0
2491,D3,350.0,29/500,95,112.0
2492,B-4,350.375,0.125,95,112.0
2493,B4,350.5,1.0,95,112.0
2494,E2,350.5,0.5,95,112.0
2495,B4,350.5,0.5,95,112.0
2496,F#4,350.5,0.5,95,112.0
2497,D4,350.5,0.5,95,112.0
2498,D3,351.0,0.5,95,112.0
2499,B4,351.5,0.5,95,112.0
2500,A4,351.5,0.5,95,112.0
2501,C#3,352.0,0.5,95,112.0
2502,B4,352.0,0.5,95,112.0
2503,A4,352.0,0.5,95,112.0
2504,B2,352.5,0.5,95,112.0
2505,B4,352.5,0.75,95,112.0
2506,G4,352.5,0.75,95,112.0
2507,B4,352.5,0.5,95,112.0
2508,F#4,352.5,0.5,95,112.0
2509,D4,352.5,0.5,95,112.0
2510,E2,353.0,0.5,95,112.0
2511,G3,353.25,0.25,95,112.0
2512,E2,353.5,0.5,95,112.0
2513,E3,353.5,0.5,95,112.0
2514,D4,354.0,0.5,95,112.0
2515,C#3,354.0,0.5,95,112.0
2516,B4,354.0,0.5,95,112.0
2517,F#4,354.0,0.5,95,112.0
2518,D4,354.0,0.5,95,112.0
2519,D4,354.5,1.0,95,112.0
2520,B4,354.5,0.5,95,112.0
2521,F#4,354.5,0.5,95,112.0
2522,D4,354.5,0.5,95,112.0
2523,D3,355.0,0.25,95,112.0
2524,C#3,355.25,0.25,95,112.0
2525,B-3,355.375,0.125,95,112.0
2526,A3,355.5,0.5,95,112.0
2527,B2,355.5,0.5,95,112.0
2528,G3,356.0,0.5,95,112.0
2529,G2,356.0,0.5,95,112.0
2530,E4,356.0,1.0,95,112.0
2531,A3,356.5,0.25,95,112.0
2532,G2,356.5,0.5,95,112.0
2533,D3,356.75,0.75,95,112.0
2534,E2,357.0,0.5,95,112.0
2535,B4,357.0,1.0,95,112.0
2536,F#4,357.0,1.0,95,112.0
2537,D4,357.0,1.0,95,112.0
2538,E2,357.5,0.5,95,112.0
2539,E3,357.5,0.5,95,112.0
2540,D4,357.875,0.125,95,112.0
2541,E4,358.0,0.5,95,112.0
2542,C#3,358.0,0.5,95,112.0
2543,E4,358.0,29/500,95,112.0
2544,B3,358.0,29/500,95,112.0
2545,G3,358.0,29/500,95,112.0
2546,C#5,358.5,0.5,95,112.0
2547,B4,358.5,0.5,95,112.0
2548,F#4,358.5,0.5,95,112.0
2549,D4,358.5,0.5,95,112.0
2550,D4,359.0,0.5,95,112.0
2551,D3,359.0,0.5,95,112.0
2552,B4,359.5,0.5,95,112.0
2553,B3,360.0,0.5,95,112.0
2554,C#3,360.0,0.5,95,112.0
2555,G4,360.375,0.125,95,112.0
2556,G#4,360.5,0.125,95,112.0
2557,B2,360.5,0.5,95,112.0
2558,B4,360.5,0.5,95,112.0
2559,F#4,360.5,0.5,95,112.0
2560,D4,360.5,0.5,95,112.0
2561,G4,360.625,0.125,95,112.0
2562,G#4,360.75,0.125,95,112.0
2563,G4,360.875,0.125,95,112.0
2564,G#4,361.0,0.125,95,112.0
2565,E2,361.0,0.5,95,112.0
2566,G4,361.125,0.125,95,112.0
2567,G#4,361.25,0.125,95,112.0
2568,G4,361.375,31/250,95,112.0
2569,E2,361.5,0.5,95,112.0
2570,E3,361.5,0.5,95,112.0
2571,D4,361.875,0.125,95,112.0
2572,E4,362.0,0.5,95,112.0
2573,C#3,362.0,0.5,95,112.0
2574,B4,362.0,0.5,95,112.0
2575,F#4,362.0,0.5,95,112.0
2576,D4,362.0,0.5,95,112.0
2577,C#5,362.5,0.5,95,112.0
2578,B4,362.5,0.5,95,112.0
2579,F#4,362.5,0.5,95,112.0
2580,D4,362.5,0.5,95,112.0
2581,D4,363.0,0.5,95,112.0
2582,D3,363.0,0.5,95,112.0
2583,B4,363.5,0.5,95,112.0
2584,B3,364.0,0.5,95,112.0
2585,C#3,364.0,0.5,95,112.0
2586,E4,364.0,1.0,95,112.0
2587,G4,364.375,0.125,95,112.0
2588,G#4,364.5,0.125,95,112.0
2589,B2,364.5,0.5,95,112.0
2590,G4,364.625,0.125,95,112.0
2591,G#4,364.75,0.125,95,112.0
2592,G4,364.875,0.125,95,112.0
2593,G#4,365.0,0.125,95,112.0
2594,E2,365.0,0.5,95,112.0
2595,B4,365.0,1.0,95,112.0
2596,F#4,365.0,1.0,95,112.0
2597,D4,365.0,1.0,95,112.0
2598,G#3,365.0,1.0,95,112.0
2599,G4,365.125,0.125,95,112.0
2600,G#4,365.25,0.125,95,112.0
2601,G4,365.375,31/250,95,112.0
2602,E2,365.5,0.5,95,112.0
2603,E3,365.5,0.5,95,112.0
2604,D4,365.875,0.125,95,112.0
2605,E4,366.0,0.5,95,112.0
2606,C#3,366.0,0.5,95,112.0
2607,E4,366.0,29/500,95,112.0
2608,B3,366.0,29/500,95,112.0
2609,G3,366.0,29/500,95,112.0
2610,D3,366.0,29/500,95,112.0
2611,C#5,366.5,0.5,95,112.0
2612,B4,366.5,0.5,95,112.0
2613,F#4,366.5,0.5,95,112.0
2614,D4,366.5,0.5,95,112.0
2615,D4,367.0,0.5,95,112.0
2616,D3,367.0,0.5,95,112.0
2617,B4,367.5,0.5,95,112.0
2618,B3,368.0,0.5,95,112.0
2619,C#3,368.0,0.5,95,112.0
2620,G4,368.375,0.125,95,112.0
2621,G#4,368.5,0.125,95,112.0
2622,B2,368.5,0.5,95,112.0
2623,B4,368.5,0.5,95,112.0
2624,F#4,368.5,0.5,95,112.0
2625,D4,368.5,0.5,95,112.0
2626,G4,368.625,0.125,95,112.0
2627,G#4,368.75,0.125,95,112.0
2628,G4,368.875,0.125,95,112.0
2629,G#4,369.0,0.125,95,112.0
2630,E2,369.0,0.5,95,112.0
2631,G4,369.125,0.125,95,112.0
2632,G#4,369.25,0.125,95,112.0
2633,G4,369.375,31/250,95,112.0
2634,E2,369.5,0.5,95,112.0
2635,E3,369.5,0.5,95,112.0
2636,D4,369.875,0.125,95,112.0
2637,E4,370.0,0.5,95,112.0
2638,C#3,370.0,0.5,95,112.0
2639,B4,370.0,0.5,95,112.0
2640,F#4,370.0,0.5,95,112.0
2641,D4,370.0,0.5,95,112.0
2642,C#5,370.5,0.5,95,112.0
2643,B4,370.5,0.5,95,112.0
2644,F#4,370.5,0.5,95,112.0
2645,D4,370.5,0.5,95,112.0
2646,D4,371.0,0.5,95,112.0
2647,D3,371.0,0.5,95,112.0
2648,B4,371.5,0.5,95,112.0
2649,B3,372.0,0.5,95,112.0
2650,C#3,372.0,0.5,95,112.0
2651,G4,372.375,0.125,95,112.0
2652,G#4,372.5,0.125,95,112.0
2653,B2,372.5,0.5,95,112.0
2654,G4,372.625,0.125,95,112.0
2655,G#4,372.75,0.125,95,112.0
2656,G4,372.875,0.125,95,112.0
2657,G#4,373.0,0.125,95,112.0
2658,G4,373.125,0.125,95,112.0
2659,G#4,373.25,0.125,95,112.0
2660,G4,373.375,31/250,95,112.0
