,note_name,start_time,duration,velocity,tempo
0,D2,6.0,73/500,100,112.01
1,D2,6.5,73/500,100,112.01
2,D2,6.75,73/500,100,112.01
3,D2,7.0,73/500,100,112.01
4,F2,7.25,73/500,100,112.01
5,C2,7.75,0.25,115,112.01
6,C2,7.75,6/25,100,112.01
7,G4,7.75,6/25,100,112.01
8,E4,7.75,6/25,100,112.01
9,D4,7.75,6/25,100,112.01
10,B-3,7.75,6/25,100,112.01
11,B-3,7.75,0.25,90,112.01
12,G3,7.75,0.25,90,112.01
13,D4,7.75,0.25,90,112.01
14,G4,7.75,0.25,125,112.01
15,E4,7.75,0.25,125,112.01
16,D4,7.75,0.25,125,112.01
17,B-3,7.75,0.25,125,112.01
18,C2,7.75,167/1000,100,112.01
19,B-2,7.75,167/1000,100,112.01
20,C2,8.0,177/1000,115,112.01
21,G#2,8.0,0.031,100,112.01
22,D2,9.0,73/500,100,112.01
23,B1,10.0,0.312,115,112.01
24,B1,10.0,0.25,100,112.01
25,C4,10.0,0.25,100,112.01
26,E-4,10.0,0.25,100,112.01
27,G4,10.0,0.25,100,112.01
28,A4,10.0,0.25,100,112.01
29,C4,10.0,0.25,90,112.01
30,E-4,10.0,0.25,90,112.01
31,G4,10.0,0.25,90,112.01
32,G4,10.0,0.25,125,112.01
33,E-4,10.0,0.25,125,112.01
34,A4,10.0,0.25,125,112.01
35,C4,10.0,0.25,125,112.01
36,C2,10.0,99/500,100,112.01
37,B-2,10.0,99/500,100,112.01
38,G#2,10.25,0.094,100,112.01
39,B1,10.75,229/500,115,112.01
40,B1,10.75,0.25,100,112.01
41,B4,10.75,0.25,100,112.01
42,E-4,10.75,0.25,100,112.01
43,G4,10.75,0.25,100,112.01
44,C4,10.75,0.25,100,112.01
45,E-4,10.75,0.25,90,112.01
46,G4,10.75,0.25,90,112.01
47,C4,10.75,0.25,90,112.01
48,B4,10.75,0.25,125,112.01
49,E-4,10.75,0.25,125,112.01
50,G4,10.75,0.25,125,112.01
51,C4,10.75,0.25,125,112.01
52,C2,10.75,177/1000,100,112.01
53,B-2,10.75,177/1000,100,112.01
54,G#2,11.0,13/125,100,112.01
55,E2,11.75,0.25,115,112.01
56,B4,11.75,6/25,100,112.01
57,E4,11.75,6/25,100,112.01
58,G4,11.75,6/25,100,112.01
59,D4,11.75,6/25,100,112.01
60,E2,11.75,6/25,100,112.01
61,B3,11.75,0.25,90,112.01
62,F#4,11.75,0.25,90,112.01
63,D4,11.75,0.25,90,112.01
64,F#5,11.75,0.25,125,112.01
65,B4,11.75,0.25,125,112.01
66,D5,11.75,0.25,125,112.01
67,G4,11.75,0.25,125,112.01
68,C2,11.75,177/1000,100,112.01
69,B-2,11.75,177/1000,100,112.01
70,E2,12.0,229/1000,115,112.01
71,G#2,12.0,21/500,100,112.01
72,D2,13.0,167/1000,100,112.01
73,C#2,14.0,77/200,115,112.01
74,E4,14.0,0.25,100,112.01
75,B3,14.0,0.25,100,112.01
76,G#3,14.0,0.25,100,112.01
77,F3,14.0,0.25,100,112.01
78,C#2,14.0,0.25,100,112.01
79,E4,14.0,0.25,90,112.01
80,B3,14.0,0.25,90,112.01
81,G#3,14.0,0.25,90,112.01
82,B3,14.0,0.25,125,112.01
83,C#4,14.0,0.25,125,112.01
84,E4,14.0,0.25,125,112.01
85,C2,14.0,177/1000,100,112.01
86,B-2,14.0,177/1000,100,112.01
87,G#2,14.25,13/125,100,112.01
88,C#2,14.75,56/125,115,112.01
89,E4,14.75,0.25,100,112.01
90,G#3,14.75,0.25,100,112.01
91,B3,14.75,0.25,100,112.01
92,F3,14.75,0.25,100,112.01
93,C#2,14.75,0.25,100,112.01
94,B3,14.75,0.25,90,112.01
95,G#3,14.75,0.25,90,112.01
96,E4,14.75,0.25,90,112.01
97,G4,14.75,0.25,125,112.01
98,C#4,14.75,0.25,125,112.01
99,B3,14.75,0.25,125,112.01
100,E4,14.75,0.25,125,112.01
101,C2,14.75,167/1000,100,112.01
102,B-2,14.75,167/1000,100,112.01
103,G#2,15.0,83/1000,100,112.01
104,C2,15.75,0.25,115,112.01
105,D4,15.75,0.25,100,112.01
106,B-3,15.75,0.25,100,112.01
107,E3,15.75,0.25,100,112.01
108,G3,15.75,0.25,100,112.01
109,C2,15.75,0.25,100,112.01
110,D4,15.75,0.25,90,112.01
111,B-3,15.75,0.25,90,112.01
112,G3,15.75,0.25,90,112.01
113,B-3,15.75,0.25,125,112.01
114,A4,15.75,0.25,125,112.01
115,D4,15.75,0.25,125,112.01
116,E4,15.75,0.25,125,112.01
117,C2,15.75,167/1000,100,112.01
118,B-2,15.75,167/1000,100,112.01
119,C2,16.0,0.188,115,112.01
120,G#2,16.0,23/200,100,112.01
121,D2,17.0,0.156,100,112.01
122,B1,18.0,73/200,115,112.01
123,C4,18.0,0.25,100,112.01
124,E-4,18.0,0.25,100,112.01
125,G4,18.0,0.25,100,112.01
126,A3,18.0,0.25,100,112.01
127,B1,18.0,0.25,100,112.01
128,E-4,18.0,0.25,90,112.01
129,G4,18.0,0.25,90,112.01
130,C4,18.0,0.25,90,112.01
131,B4,18.0,0.25,125,112.01
132,G4,18.0,0.25,125,112.01
133,E-4,18.0,0.25,125,112.01
134,C2,18.0,177/1000,100,112.01
135,B-2,18.0,177/1000,100,112.01
136,G#2,18.25,23/200,100,112.01
137,B1,18.75,0.469,115,112.01
138,G4,18.75,0.25,100,112.01
139,E-4,18.75,0.25,100,112.01
140,A3,18.75,0.25,100,112.01
141,C4,18.75,0.25,100,112.01
142,B1,18.75,0.25,100,112.01
143,E-4,18.75,0.25,90,112.01
144,G4,18.75,0.25,90,112.01
145,C4,18.75,0.25,90,112.01
146,E-4,18.75,0.25,125,112.01
147,D5,18.75,0.25,125,112.01
148,A4,18.75,0.25,125,112.01
149,C2,18.75,177/1000,100,112.01
150,B-2,18.75,177/1000,100,112.01
151,G#2,19.0,0.062,100,112.01
152,E1,19.75,0.25,115,112.01
153,F#4,19.75,0.25,100,112.01
154,B3,19.75,0.25,100,112.01
155,G3,19.75,0.25,100,112.01
156,D4,19.75,0.25,100,112.01
157,E2,19.75,0.25,100,112.01
158,F#4,19.75,0.25,90,112.01
159,B3,19.75,0.25,90,112.01
160,D4,19.75,0.25,90,112.01
161,G4,19.75,0.25,125,112.01
162,B4,19.75,0.25,125,112.01
163,E5,19.75,0.25,125,112.01
164,C2,19.75,177/1000,100,112.01
165,B-2,19.75,177/1000,100,112.01
166,E1,20.0,99/250,115,112.01
167,F#4,20.0,173/200,100,112.01
168,B3,20.0,173/200,100,112.01
169,G3,20.0,173/200,100,112.01
170,D4,20.0,173/200,100,112.01
171,E2,20.0,173/200,100,112.01
172,F#4,20.0,0.75,90,112.01
173,B3,20.0,0.75,90,112.01
174,D4,20.0,0.75,90,112.01
175,G4,20.0,0.75,125,112.01
176,B4,20.0,0.75,125,112.01
177,E5,20.0,0.75,125,112.01
178,E3,20.5,323/1000,115,112.01
179,G#2,20.5,0.156,100,112.01
180,E-2,21.0,49/100,115,112.01
181,F4,21.0,173/200,100,112.01
182,C#4,21.0,173/200,100,112.01
183,B-3,21.0,173/200,100,112.01
184,F#3,21.0,173/200,100,112.01
185,E-2,21.0,173/200,100,112.01
186,F4,21.0,0.75,90,112.01
187,C#4,21.0,0.75,90,112.01
188,B-3,21.0,0.75,90,112.01
189,F#5,21.0,0.75,125,112.01
190,B-4,21.0,0.75,125,112.01
191,C#5,21.0,0.75,125,112.01
192,C2,21.0,177/1000,100,112.01
193,B-2,21.0,177/1000,100,112.01
194,E-3,21.5,177/500,115,112.01
195,G#2,21.5,167/1000,100,112.01
196,D2,22.0,479/1000,115,112.01
197,A3,22.0,173/200,100,112.01
198,C4,22.0,173/200,100,112.01
199,F3,22.0,173/200,100,112.01
200,E4,22.0,173/200,100,112.01
201,D2,22.0,173/200,100,112.01
202,E4,22.0,0.75,90,112.01
203,C4,22.0,0.75,90,112.01
204,A3,22.0,0.75,90,112.01
205,C5,22.0,0.75,125,112.01
206,E5,22.0,0.75,125,112.01
207,A4,22.0,0.75,125,112.01
208,G5,22.0,0.75,125,112.01
209,C2,22.0,177/1000,100,112.01
210,B-2,22.0,177/1000,100,112.01
211,D3,22.5,323/1000,115,112.01
212,G#2,22.5,0.156,100,112.01
213,C#2,23.0,0.406,115,112.01
214,E4,23.0,123/200,100,112.01
215,B3,23.0,123/200,100,112.01
216,G#3,23.0,123/200,100,112.01
217,F3,23.0,123/200,100,112.01
218,C#2,23.0,123/200,100,112.01
219,E4,23.0,0.5,90,112.01
220,B3,23.0,0.5,90,112.01
221,G#3,23.0,0.5,90,112.01
222,B4,23.0,0.656,125,112.01
223,E-5,23.0,0.656,125,112.01
224,G5,23.0,0.656,125,112.01
225,B5,23.0,0.656,125,112.01
226,D2,23.0,0.219,100,112.01
227,B-2,23.0,0.219,100,112.01
228,C#3,23.5,99/500,115,112.01
229,G#2,23.5,23/200,100,112.01
230,C2,23.75,6/25,115,112.01
231,D4,23.75,0.25,100,112.01
232,C2,23.75,0.25,100,112.01
233,B-3,23.75,0.25,100,112.01
234,G3,23.75,0.25,100,112.01
235,E3,23.75,0.25,100,112.01
236,B-3,23.75,0.25,90,112.01
237,D4,23.75,0.25,90,112.01
238,G3,23.75,0.25,90,112.01
239,C#3,23.75,0.156,100,112.01
240,C2,23.75,0.156,100,112.01
241,B-2,23.75,0.156,100,112.01
242,G#2,24.0,0.156,100,112.01
243,G#3,24.0,0.156,100,112.01
244,C3,24.25,0.438,115,112.01
245,G#2,24.25,0.094,100,112.01
246,G#2,24.5,13/125,100,112.01
247,C2,25.0,6/25,115,112.01
248,B-3,25.0,0.25,100,112.01
249,G3,25.0,0.25,100,112.01
250,D4,25.0,0.25,100,112.01
251,E3,25.0,0.25,100,112.01
252,C2,25.0,0.25,100,112.01
253,B-3,25.0,0.25,90,112.01
254,D4,25.0,0.25,90,112.01
255,G3,25.0,0.25,90,112.01
256,C2,25.0,27/200,100,112.01
257,G#2,25.0,27/200,100,112.01
258,C2,25.5,6/25,115,112.01
259,E3,25.5,0.25,100,112.01
260,B-3,25.5,0.25,100,112.01
261,D4,25.5,0.25,100,112.01
262,G3,25.5,0.25,100,112.01
263,C2,25.5,0.25,100,112.01
264,B-3,25.5,0.25,90,112.01
265,D4,25.5,0.25,90,112.01
266,G3,25.5,0.25,90,112.01
267,C2,25.5,27/200,100,112.01
268,G#2,25.5,27/200,100,112.01
269,B1,26.0,99/125,115,112.01
270,E-4,26.0,0.75,100,112.01
271,G4,26.0,0.75,100,112.01
272,A3,26.0,0.75,100,112.01
273,C4,26.0,0.75,100,112.01
274,B1,26.0,0.75,100,112.01
275,E-4,26.0,0.75,90,112.01
276,G4,26.0,0.75,90,112.01
277,C4,26.0,0.75,90,112.01
278,C2,26.0,27/200,100,112.01
279,G#2,26.0,27/200,100,112.01
280,G#3,26.0,27/200,100,112.01
281,C#2,26.25,73/500,100,112.01
282,G#2,26.5,73/500,100,112.01
283,A2,27.0,0.219,115,112.01
284,E-4,27.0,49/100,100,112.01
285,C4,27.0,49/100,100,112.01
286,G4,27.0,49/100,100,112.01
287,A3,27.0,49/100,100,112.01
288,B1,27.0,49/100,100,112.01
289,G4,27.0,0.5,90,112.01
290,E-4,27.0,0.5,90,112.01
291,C4,27.0,0.5,90,112.01
292,C#2,27.0,73/500,100,112.01
293,D2,27.0,73/500,100,112.01
294,G#2,27.0,73/500,100,112.01
295,B2,27.25,99/250,115,112.01
296,G#2,27.5,13/125,100,112.01
297,E1,27.75,0.25,115,112.01
298,F#4,27.75,0.25,100,112.01
299,D4,27.75,0.25,100,112.01
300,B3,27.75,0.25,100,112.01
301,G3,27.75,0.25,100,112.01
302,E2,27.75,0.25,100,112.01
303,F#4,27.75,0.25,90,112.01
304,B3,27.75,0.25,90,112.01
305,D4,27.75,0.25,90,112.01
306,C2,27.75,0.125,100,112.01
307,B-2,27.75,0.125,100,112.01
308,E1,28.0,13/250,115,112.01
309,G#2,28.0,73/500,100,112.01
310,G#3,28.0,73/500,100,112.01
311,E3,28.25,177/250,115,112.01
312,G#2,28.25,83/1000,100,112.01
313,D5,28.25,0.156,125,112.01
314,F#5,28.25,0.156,125,112.01
315,B4,28.25,0.156,125,112.01
316,G#2,28.5,0.125,100,112.01
317,D5,28.5,0.156,125,112.01
318,B4,28.5,0.156,125,112.01
319,F#5,28.5,0.156,125,112.01
320,F#5,28.75,0.156,125,112.01
321,D5,28.75,0.156,125,112.01
322,B4,28.75,0.156,125,112.01
323,E2,29.0,6/25,115,112.01
324,F#4,29.0,0.25,100,112.01
325,B3,29.0,0.25,100,112.01
326,D4,29.0,0.25,100,112.01
327,G3,29.0,0.25,100,112.01
328,E2,29.0,0.25,100,112.01
329,B3,29.0,0.25,90,112.01
330,F#4,29.0,0.25,90,112.01
331,D4,29.0,0.25,90,112.01
332,D5,29.0,0.156,125,112.01
333,F#5,29.0,0.156,125,112.01
334,B4,29.0,0.156,125,112.01
335,C2,29.0,0.125,100,112.01
336,G#2,29.0,0.125,100,112.01
337,G5,29.25,0.156,125,112.01
338,B4,29.25,0.156,125,112.01
339,E5,29.25,0.156,125,112.01
340,D2,29.5,0.219,115,112.01
341,B3,29.5,0.25,100,112.01
342,G3,29.5,0.25,100,112.01
343,F#4,29.5,0.25,100,112.01
344,D4,29.5,0.25,100,112.01
345,E2,29.5,0.25,100,112.01
346,F#4,29.5,0.25,90,112.01
347,D4,29.5,0.25,90,112.01
348,B3,29.5,0.25,90,112.01
349,C2,29.5,27/200,100,112.01
350,G#2,29.5,27/200,100,112.01
351,C#2,30.0,427/1000,115,112.01
352,G#3,30.0,0.75,100,112.01
353,E4,30.0,0.75,100,112.01
354,B3,30.0,0.75,100,112.01
355,F3,30.0,0.75,100,112.01
356,C#2,30.0,0.75,100,112.01
357,E4,30.0,0.75,90,112.01
358,B3,30.0,0.75,90,112.01
359,G#3,30.0,0.75,90,112.01
360,C2,30.0,0.156,100,112.01
361,G#2,30.0,0.156,100,112.01
362,G#3,30.0,0.156,100,112.01
363,C#3,30.5,0.344,115,112.01
364,G#2,30.5,0.156,100,112.01
365,C#2,31.0,49/100,115,112.01
366,D5,31.0,0.25,120,112.01
367,E4,31.0,0.5,100,112.01
368,B3,31.0,0.5,100,112.01
369,G#3,31.0,0.5,100,112.01
370,F3,31.0,0.5,100,112.01
371,C#2,31.0,0.5,100,112.01
372,E4,31.0,0.5,90,112.01
373,B3,31.0,0.5,90,112.01
374,G#3,31.0,0.5,90,112.01
375,D2,31.0,73/500,100,112.01
376,G#2,31.0,73/500,100,112.01
377,E5,31.25,0.25,120,112.01
378,G#2,31.5,73/500,100,112.01
379,C2,31.75,0.25,115,112.01
380,G5,31.75,0.25,120,112.01
381,D4,31.75,0.25,100,112.01
382,B-3,31.75,0.25,100,112.01
383,E3,31.75,0.25,100,112.01
384,G3,31.75,0.25,100,112.01
385,C2,31.75,0.25,100,112.01
386,B-3,31.75,0.25,90,112.01
387,D4,31.75,0.25,90,112.01
388,G3,31.75,0.25,90,112.01
389,C2,31.75,0.156,100,112.01
390,B-2,31.75,0.156,100,112.01
391,C2,32.0,99/500,115,112.01
392,G#2,32.0,0.156,100,112.01
393,G#3,32.0,0.156,100,112.01
394,C3,32.25,0.469,115,112.01
395,E5,32.25,1.75,120,112.01
396,G#2,32.25,13/125,100,112.01
397,G#2,32.5,13/125,100,112.01
398,C2,33.0,0.219,115,112.01
399,E4,33.0,0.25,125,112.01
400,B-3,33.0,0.25,100,112.01
401,G3,33.0,0.25,100,112.01
402,D4,33.0,0.25,100,112.01
403,E3,33.0,0.25,100,112.01
404,C2,33.0,0.25,100,112.01
405,B-3,33.0,0.25,90,112.01
406,D4,33.0,0.25,90,112.01
407,G3,33.0,0.25,90,112.01
408,C2,33.0,13/125,100,112.01
409,G#2,33.0,13/125,100,112.01
410,C2,33.5,26/125,115,112.01
411,B-4,33.5,0.25,125,112.01
412,E3,33.5,0.25,100,112.01
413,B-3,33.5,0.25,100,112.01
414,G3,33.5,0.25,100,112.01
415,D4,33.5,0.25,100,112.01
416,C2,33.5,0.25,100,112.01
417,B-3,33.5,0.25,90,112.01
418,G3,33.5,0.25,90,112.01
419,D4,33.5,0.25,90,112.01
420,C2,33.5,27/200,100,112.01
421,G#2,33.5,27/200,100,112.01
422,B1,34.0,0.719,115,112.01
423,A4,34.0,0.75,125,112.01
424,E-4,34.0,0.75,100,112.01
425,C4,34.0,0.75,100,112.01
426,G4,34.0,0.75,100,112.01
427,A3,34.0,0.75,100,112.01
428,B1,34.0,0.75,100,112.01
429,E-4,34.0,0.75,90,112.01
430,G4,34.0,0.75,90,112.01
431,C4,34.0,0.75,90,112.01
432,C2,34.0,167/1000,100,112.01
433,G#2,34.0,167/1000,100,112.01
434,G#3,34.0,167/1000,100,112.01
435,G#2,34.5,73/500,100,112.01
436,B1,35.0,49/100,115,112.01
437,G4,35.0,6/25,125,112.01
438,E-4,35.0,0.5,100,112.01
439,C4,35.0,0.5,100,112.01
440,G4,35.0,0.5,100,112.01
441,A3,35.0,0.5,100,112.01
442,B1,35.0,0.5,100,112.01
443,E-4,35.0,0.5,90,112.01
444,G4,35.0,0.5,90,112.01
445,C4,35.0,0.5,90,112.01
446,D2,35.0,23/200,100,112.01
447,G#2,35.0,23/200,100,112.01
448,A4,35.25,0.25,125,112.01
449,G#2,35.5,21/500,100,112.01
450,E1,35.75,0.25,115,112.01
451,B3,35.75,0.25,100,112.01
452,F#4,35.75,0.25,100,112.01
453,D4,35.75,0.25,100,112.01
454,G3,35.75,0.25,100,112.01
455,E2,35.75,0.25,100,112.01
456,B3,35.75,0.25,90,112.01
457,F#4,35.75,0.25,90,112.01
458,D4,35.75,0.25,90,112.01
459,E5,35.75,0.25,125,112.01
460,G4,35.75,0.25,125,112.01
461,B4,35.75,0.25,125,112.01
462,C2,35.75,27/200,100,112.01
463,G#2,35.75,27/200,100,112.01
464,E1,36.0,271/500,115,112.01
465,B-2,36.0,0.125,100,112.01
466,G#3,36.0,99/500,100,112.01
467,B3,36.0,173/200,100,112.01
468,F#4,36.0,173/200,100,112.01
469,D4,36.0,173/200,100,112.01
470,G3,36.0,173/200,100,112.01
471,E2,36.0,173/200,100,112.01
472,B3,36.0,0.75,90,112.01
473,F#4,36.0,0.75,90,112.01
474,D4,36.0,0.75,90,112.01
475,E5,36.0,0.75,125,112.01
476,G4,36.0,0.75,125,112.01
477,B4,36.0,0.75,125,112.01
478,E3,36.5,271/1000,115,112.01
479,G#2,36.5,73/500,100,112.01
480,E-2,37.0,49/100,115,112.01
481,F4,37.0,173/200,100,112.01
482,F#3,37.0,173/200,100,112.01
483,C#4,37.0,173/200,100,112.01
484,B-3,37.0,173/200,100,112.01
485,E-2,37.0,173/200,100,112.01
486,F4,37.0,0.75,90,112.01
487,C#4,37.0,0.75,90,112.01
488,B-3,37.0,0.75,90,112.01
489,F#5,37.0,0.75,125,112.01
490,B-4,37.0,0.75,125,112.01
491,C#5,37.0,0.75,125,112.01
492,C2,37.0,73/500,100,112.01
493,B-2,37.0,73/500,100,112.01
494,E-3,37.5,77/200,115,112.01
495,G#2,37.5,73/500,100,112.01
496,D2,38.0,0.469,115,112.01
497,C4,38.0,173/200,100,112.01
498,A3,38.0,173/200,100,112.01
499,E4,38.0,173/200,100,112.01
500,F3,38.0,173/200,100,112.01
501,D2,38.0,173/200,100,112.01
502,E4,38.0,0.75,90,112.01
503,C4,38.0,0.75,90,112.01
504,A3,38.0,0.75,90,112.01
505,A4,38.0,0.75,125,112.01
506,G5,38.0,0.75,125,112.01
507,E5,38.0,0.75,125,112.01
508,C5,38.0,0.75,125,112.01
509,C2,38.0,167/1000,100,112.01
510,B-2,38.0,167/1000,100,112.01
511,G#3,38.0,167/1000,100,112.01
512,D3,38.5,151/500,115,112.01
513,G#2,38.5,0.125,100,112.01
514,C#2,39.0,427/1000,115,112.01
515,B-4,39.0,6/25,120,112.01
516,E4,39.0,123/200,100,112.01
517,G#3,39.0,123/200,100,112.01
518,B3,39.0,123/200,100,112.01
519,F3,39.0,123/200,100,112.01
520,C#2,39.0,123/200,100,112.01
521,B3,39.0,0.5,90,112.01
522,G#3,39.0,0.5,90,112.01
523,E4,39.0,0.5,90,112.01
524,B4,39.0,0.656,125,112.01
525,G5,39.0,0.656,125,112.01
526,E-5,39.0,0.656,125,112.01
527,B5,39.0,0.656,125,112.01
528,D2,39.0,0.188,100,112.01
529,B-2,39.0,0.188,100,112.01
530,A4,39.25,0.25,120,112.01
531,C#3,39.5,229/1000,115,112.01
532,G4,39.5,0.25,120,112.01
533,G#2,39.5,27/200,100,112.01
534,C2,39.75,0.25,115,112.01
535,D4,39.75,0.25,100,112.01
536,B-3,39.75,0.25,100,112.01
537,E3,39.75,0.25,100,112.01
538,G3,39.75,0.25,100,112.01
539,C2,39.75,0.25,100,112.01
540,B-3,39.75,0.25,90,112.01
541,G3,39.75,0.25,90,112.01
542,D4,39.75,0.25,90,112.01
543,C2,39.75,27/200,100,112.01
544,B-2,39.75,27/200,100,112.01
545,C2,40.0,0.156,115,112.01
546,G#2,40.0,0.156,100,112.01
547,G#3,40.0,0.156,100,112.01
548,C3,40.25,0.438,115,112.01
549,G#2,40.25,13/125,100,112.01
550,G#2,40.5,23/200,100,112.01
551,C2,41.0,6/25,115,112.01
552,D4,41.0,0.25,100,112.01
553,G3,41.0,0.25,100,112.01
554,B-3,41.0,0.25,100,112.01
555,E3,41.0,0.25,100,112.01
556,C2,41.0,0.25,100,112.01
557,B-3,41.0,0.25,90,112.01
558,D4,41.0,0.25,90,112.01
559,G3,41.0,0.25,90,112.01
560,C2,41.0,0.125,100,112.01
561,G#2,41.0,0.125,100,112.01
562,C2,41.5,6/25,115,112.01
563,D4,41.5,0.25,100,112.01
564,B-3,41.5,0.25,100,112.01
565,G3,41.5,0.25,100,112.01
566,E3,41.5,0.25,100,112.01
567,C2,41.5,0.25,100,112.01
568,G3,41.5,0.25,90,112.01
569,B-3,41.5,0.25,90,112.01
570,D4,41.5,0.25,90,112.01
571,C2,41.5,167/1000,100,112.01
572,G#2,41.5,167/1000,100,112.01
573,B1,42.0,99/125,115,112.01
574,C4,42.0,0.75,100,112.01
575,G4,42.0,0.75,100,112.01
576,E-4,42.0,0.75,100,112.01
577,A3,42.0,0.75,100,112.01
578,B1,42.0,0.75,100,112.01
579,E-4,42.0,0.75,90,112.01
580,C4,42.0,0.75,90,112.01
581,G4,42.0,0.75,90,112.01
582,C2,42.0,27/200,100,112.01
583,G#2,42.0,27/200,100,112.01
584,G#3,42.0,27/200,100,112.01
585,G#2,42.5,73/500,100,112.01
586,A2,43.0,0.219,115,112.01
587,G4,43.0,49/100,100,112.01
588,E-4,43.0,49/100,100,112.01
589,C4,43.0,49/100,100,112.01
590,A3,43.0,49/100,100,112.01
591,B1,43.0,49/100,100,112.01
592,E-4,43.0,0.5,90,112.01
593,G4,43.0,0.5,90,112.01
594,C4,43.0,0.5,90,112.01
595,D2,43.0,73/500,100,112.01
596,G#2,43.0,73/500,100,112.01
597,B2,43.25,99/250,115,112.01
598,G#2,43.5,23/200,100,112.01
599,E1,43.75,0.25,115,112.01
600,B3,43.75,0.25,100,112.01
601,F#4,43.75,0.25,100,112.01
602,D4,43.75,0.25,100,112.01
603,G3,43.75,0.25,100,112.01
604,E2,43.75,0.25,100,112.01
605,F#4,43.75,0.25,90,112.01
606,D4,43.75,0.25,90,112.01
607,B3,43.75,0.25,90,112.01
608,C2,43.75,73/500,100,112.01
609,B-2,43.75,73/500,100,112.01
610,E1,44.0,13/250,115,112.01
611,G#2,44.0,0.094,100,112.01
612,G#3,44.0,177/1000,100,112.01
613,E3,44.25,177/250,115,112.01
614,G#2,44.25,13/125,100,112.01
615,F#5,44.25,0.156,125,112.01
616,B4,44.25,0.156,125,112.01
617,D5,44.25,0.156,125,112.01
618,G#2,44.5,0.125,100,112.01
619,D5,44.5,0.156,125,112.01
620,F#5,44.5,0.156,125,112.01
621,B4,44.5,0.156,125,112.01
622,B4,44.75,0.156,125,112.01
623,D5,44.75,0.156,125,112.01
624,F#5,44.75,0.156,125,112.01
625,E2,45.0,6/25,115,112.01
626,F#4,45.0,0.25,100,112.01
627,D4,45.0,0.25,100,112.01
628,B3,45.0,0.25,100,112.01
629,G3,45.0,0.25,100,112.01
630,E2,45.0,0.25,100,112.01
631,B3,45.0,0.25,90,112.01
632,F#4,45.0,0.25,90,112.01
633,D4,45.0,0.25,90,112.01
634,D5,45.0,0.156,125,112.01
635,F#5,45.0,0.156,125,112.01
636,B4,45.0,0.156,125,112.01
637,C2,45.0,27/200,100,112.01
638,G#2,45.0,27/200,100,112.01
639,G5,45.25,0.156,125,112.01
640,B4,45.25,0.156,125,112.01
641,E5,45.25,0.156,125,112.01
642,D2,45.5,0.219,115,112.01
643,F#4,45.5,0.25,100,112.01
644,B3,45.5,0.25,100,112.01
645,G3,45.5,0.25,100,112.01
646,D4,45.5,0.25,100,112.01
647,D2,45.5,0.25,100,112.01
648,F#4,45.5,0.25,90,112.01
649,B3,45.5,0.25,90,112.01
650,D4,45.5,0.25,90,112.01
651,C2,45.5,27/200,100,112.01
652,G#2,45.5,27/200,100,112.01
653,C#2,46.0,427/1000,115,112.01
654,B3,46.0,0.75,100,112.01
655,G#3,46.0,0.75,100,112.01
656,E4,46.0,0.75,100,112.01
657,F3,46.0,0.75,100,112.01
658,C#2,46.0,0.75,100,112.01
659,B3,46.0,0.75,90,112.01
660,E4,46.0,0.75,90,112.01
661,G#3,46.0,0.75,90,112.01
662,C2,46.0,27/200,100,112.01
663,G#2,46.0,27/200,100,112.01
664,G#3,46.0,27/200,100,112.01
665,C#3,46.5,0.344,115,112.01
666,G#2,46.5,0.156,100,112.01
667,C#2,47.0,49/100,115,112.01
668,E5,47.0,0.25,120,112.01
669,B3,47.0,0.5,100,112.01
670,E4,47.0,0.5,100,112.01
671,F3,47.0,0.5,100,112.01
672,G#3,47.0,0.5,100,112.01
673,C#2,47.0,0.5,100,112.01
674,E4,47.0,0.5,90,112.01
675,B3,47.0,0.5,90,112.01
676,G#3,47.0,0.5,90,112.01
677,D2,47.0,0.156,100,112.01
678,G#2,47.0,0.156,100,112.01
679,D5,47.25,0.25,120,112.01
680,G#2,47.5,0.125,100,112.01
681,C2,47.75,0.25,115,112.01
682,B-5,47.75,0.25,120,112.01
683,D4,47.75,0.25,100,112.01
684,G3,47.75,0.25,100,112.01
685,E3,47.75,0.25,100,112.01
686,B-3,47.75,0.25,100,112.01
687,C2,47.75,0.25,100,112.01
688,B-3,47.75,0.25,90,112.01
689,G3,47.75,0.25,90,112.01
690,D4,47.75,0.25,90,112.01
691,C2,47.75,0.125,100,112.01
692,B-2,47.75,0.125,100,112.01
693,C2,48.0,99/500,115,112.01
694,G#2,48.0,27/200,100,112.01
695,G#3,48.0,27/200,100,112.01
696,C3,48.25,0.469,115,112.01
697,G5,48.25,1.75,120,112.01
698,G#2,48.25,0.094,100,112.01
699,G#2,48.5,27/200,100,112.01
700,C2,49.0,0.219,115,112.01
701,E4,49.0,0.25,125,112.01
702,D4,49.0,0.25,100,112.01
703,B-3,49.0,0.25,100,112.01
704,G3,49.0,0.25,100,112.01
705,E3,49.0,0.25,100,112.01
706,C2,49.0,0.25,100,112.01
707,B-3,49.0,0.25,90,112.01
708,D4,49.0,0.25,90,112.01
709,G3,49.0,0.25,90,112.01
710,C2,49.0,27/200,100,112.01
711,G#2,49.0,27/200,100,112.01
712,C2,49.5,26/125,115,112.01
713,B-4,49.5,0.25,125,112.01
714,D4,49.5,0.25,100,112.01
715,G3,49.5,0.25,100,112.01
716,E3,49.5,0.25,100,112.01
717,B-3,49.5,0.25,100,112.01
718,C2,49.5,0.25,100,112.01
719,B-3,49.5,0.25,90,112.01
720,G3,49.5,0.25,90,112.01
721,D4,49.5,0.25,90,112.01
722,C2,49.5,27/200,100,112.01
723,G#2,49.5,27/200,100,112.01
724,B1,50.0,0.719,115,112.01
725,A4,50.0,0.75,125,112.01
726,A3,50.0,0.75,100,112.01
727,C4,50.0,0.75,100,112.01
728,E-4,50.0,0.75,100,112.01
729,G4,50.0,0.75,100,112.01
730,B1,50.0,0.75,100,112.01
731,E-4,50.0,0.75,90,112.01
732,G4,50.0,0.75,90,112.01
733,C4,50.0,0.75,90,112.01
734,C2,50.0,73/500,100,112.01
735,G#2,50.0,73/500,100,112.01
736,G#3,50.0,73/500,100,112.01
737,G#2,50.5,0.156,100,112.01
738,B1,51.0,49/100,115,112.01
739,G4,51.0,0.25,125,112.01
740,G4,51.0,49/100,100,112.01
741,E-4,51.0,49/100,100,112.01
742,C4,51.0,49/100,100,112.01
743,A3,51.0,49/100,100,112.01
744,B1,51.0,49/100,100,112.01
745,E-4,51.0,0.5,90,112.01
746,C4,51.0,0.5,90,112.01
747,G4,51.0,0.5,90,112.01
748,D2,51.0,73/500,100,112.01
749,G#2,51.0,73/500,100,112.01
750,A4,51.25,0.25,125,112.01
751,G#2,51.5,13/250,100,112.01
752,E1,51.75,0.25,115,112.01
753,F#4,51.75,0.25,100,112.01
754,B3,51.75,0.25,100,112.01
755,D4,51.75,0.25,100,112.01
756,G3,51.75,0.25,100,112.01
757,E2,51.75,0.25,100,112.01
758,B3,51.75,0.25,90,112.01
759,D4,51.75,0.25,90,112.01
760,F#4,51.75,0.25,90,112.01
761,E5,51.75,0.25,125,112.01
762,G4,51.75,0.25,125,112.01
763,B4,51.75,0.25,125,112.01
764,C2,51.75,23/200,100,112.01
765,G#2,51.75,23/200,100,112.01
766,E1,52.0,271/500,115,112.01
767,F#4,52.0,173/200,100,112.01
768,B3,52.0,173/200,100,112.01
769,D4,52.0,173/200,100,112.01
770,G3,52.0,173/200,100,112.01
771,E2,52.0,173/200,100,112.01
772,B3,52.0,0.75,90,112.01
773,D4,52.0,0.75,90,112.01
774,F#4,52.0,0.75,90,112.01
775,E5,52.0,0.75,125,112.01
776,G4,52.0,0.75,125,112.01
777,B4,52.0,0.75,125,112.01
778,B-2,52.0,177/1000,100,112.01
779,G#3,52.0,177/1000,100,112.01
780,E3,52.5,271/1000,115,112.01
781,G#2,52.5,0.156,100,112.01
782,E-2,53.0,49/100,115,112.01
783,F4,53.0,173/200,100,112.01
784,B-3,53.0,173/200,100,112.01
785,F#3,53.0,173/200,100,112.01
786,C#4,53.0,173/200,100,112.01
787,E-2,53.0,173/200,100,112.01
788,F4,53.0,0.75,90,112.01
789,B-3,53.0,0.75,90,112.01
790,C#4,53.0,0.75,90,112.01
791,F#5,53.0,0.75,125,112.01
792,B-4,53.0,0.75,125,112.01
793,C#5,53.0,0.75,125,112.01
794,C2,53.0,0.156,100,112.01
795,B-2,53.0,0.156,100,112.01
796,E-3,53.5,77/200,115,112.01
797,G#2,53.5,27/200,100,112.01
798,D2,54.0,0.469,115,112.01
799,C4,54.0,173/200,100,112.01
800,A3,54.0,173/200,100,112.01
801,F3,54.0,173/200,100,112.01
802,E4,54.0,173/200,100,112.01
803,D2,54.0,173/200,100,112.01
804,E4,54.0,0.75,90,112.01
805,C4,54.0,0.75,90,112.01
806,A3,54.0,0.75,90,112.01
807,E5,54.0,0.75,125,112.01
808,G5,54.0,0.75,125,112.01
809,A4,54.0,0.75,125,112.01
810,C5,54.0,0.75,125,112.01
811,C2,54.0,73/500,100,112.01
812,B-2,54.0,73/500,100,112.01
813,G#3,54.0,73/500,100,112.01
814,D3,54.5,151/500,115,112.01
815,G#2,54.5,27/200,100,112.01
816,C#2,55.0,427/1000,115,112.01
817,D4,55.0,0.25,122,112.01
818,E4,55.0,123/200,100,112.01
819,B3,55.0,123/200,100,112.01
820,G#3,55.0,123/200,100,112.01
821,F3,55.0,123/200,100,112.01
822,C#2,55.0,123/200,100,112.01
823,E4,55.0,0.5,90,112.01
824,B3,55.0,0.5,90,112.01
825,G#3,55.0,0.5,90,112.01
826,G5,55.0,0.656,125,112.01
827,B4,55.0,0.656,125,112.01
828,E-5,55.0,0.656,125,112.01
829,B5,55.0,0.656,125,112.01
830,D2,55.0,177/1000,100,112.01
831,B-2,55.0,177/1000,100,112.01
832,E4,55.25,0.25,122,112.01
833,D2,55.25,0.125,100,112.01
834,C#3,55.5,229/1000,115,112.01
835,D2,55.5,0.125,100,112.01
836,G#2,55.5,0.125,100,112.01
837,C2,55.75,0.25,115,112.01
838,G4,55.75,0.25,122,112.01
839,D4,55.75,0.25,100,112.01
840,B-3,55.75,0.25,100,112.01
841,E3,55.75,0.25,100,112.01
842,G3,55.75,0.25,100,112.01
843,C2,55.75,0.25,100,112.01
844,D4,55.75,0.25,90,112.01
845,B-3,55.75,0.25,90,112.01
846,G3,55.75,0.25,90,112.01
847,C#3,55.75,73/500,100,112.01
848,C2,55.75,73/500,100,112.01
849,B-2,55.75,73/500,100,112.01
850,C2,56.0,0.156,115,112.01
851,G#2,56.0,73/1000,100,112.01
852,G#3,56.0,0.156,100,112.01
853,C3,56.25,49/100,115,112.01
854,G#2,56.25,13/125,100,112.01
855,E4,56.25,0.156,110,112.01
856,D5,56.25,0.156,110,112.01
857,B-4,56.25,0.156,110,112.01
858,G#2,56.5,0.125,100,112.01
859,D5,56.5,0.156,110,112.01
860,B-4,56.5,0.156,110,112.01
861,E4,56.5,0.156,110,112.01
862,B-4,56.75,0.156,110,112.01
863,E4,56.75,0.156,110,112.01
864,D5,56.75,0.156,110,112.01
865,C2,57.0,229/1000,115,112.01
866,E4,57.0,323/1000,122,112.01
867,B-3,57.0,0.25,100,112.01
868,G3,57.0,0.25,100,112.01
869,D4,57.0,0.25,100,112.01
870,E3,57.0,0.25,100,112.01
871,C2,57.0,0.25,100,112.01
872,B-3,57.0,0.25,90,112.01
873,D4,57.0,0.25,90,112.01
874,G3,57.0,0.25,90,112.01
875,C2,57.0,0.125,100,112.01
876,G#2,57.0,0.125,100,112.01
877,C2,57.5,229/1000,115,112.01
878,B-4,57.5,0.25,122,112.01
879,E3,57.5,0.25,100,112.01
880,B-3,57.5,0.25,100,112.01
881,D4,57.5,0.25,100,112.01
882,G3,57.5,0.25,100,112.01
883,C2,57.5,0.25,100,112.01
884,B-3,57.5,0.25,90,112.01
885,G3,57.5,0.25,90,112.01
886,D4,57.5,0.25,90,112.01
887,C2,57.5,27/200,100,112.01
888,G#2,57.5,27/200,100,112.01
889,B1,58.0,0.719,115,112.01
890,A4,58.0,0.75,122,112.01
891,E-4,58.0,0.75,100,112.01
892,G4,58.0,0.75,100,112.01
893,A3,58.0,0.75,100,112.01
894,C4,58.0,0.75,100,112.01
895,B1,58.0,0.75,100,112.01
896,E-4,58.0,0.75,90,112.01
897,G4,58.0,0.75,90,112.01
898,C4,58.0,0.75,90,112.01
899,C2,58.0,167/1000,100,112.01
900,G#2,58.0,167/1000,100,112.01
901,G#3,58.0,167/1000,100,112.01
902,G#2,58.5,0.125,100,112.01
903,A2,59.0,229/1000,115,112.01
904,G4,59.0,0.406,122,112.01
905,E-4,59.0,0.5,100,112.01
906,C4,59.0,0.5,100,112.01
907,G4,59.0,0.5,100,112.01
908,A3,59.0,0.5,100,112.01
909,B1,59.0,0.5,100,112.01
910,E-4,59.0,0.5,90,112.01
911,G4,59.0,0.5,90,112.01
912,C4,59.0,0.5,90,112.01
913,D2,59.0,0.125,100,112.01
914,G#2,59.0,0.125,100,112.01
915,B2,59.25,77/200,115,112.01
916,A4,59.5,0.25,122,112.01
917,G#2,59.5,13/125,100,112.01
918,E1,59.75,0.25,115,112.01
919,G4,59.75,0.25,122,112.01
920,F#4,59.75,0.25,100,112.01
921,D4,59.75,0.25,100,112.01
922,B3,59.75,0.25,100,112.01
923,G3,59.75,0.25,100,112.01
924,E2,59.75,0.25,100,112.01
925,B3,59.75,0.25,90,112.01
926,F#4,59.75,0.25,90,112.01
927,D4,59.75,0.25,90,112.01
928,C2,59.75,23/200,100,112.01
929,B-2,59.75,23/200,100,112.01
930,E1,60.0,73/1000,115,112.01
931,G#2,60.0,21/500,100,112.01
932,G#3,60.0,0.156,100,112.01
933,E3,60.25,677/1000,115,112.01
934,E4,60.25,1.75,122,112.01
935,G#2,60.25,0.094,100,112.01
936,G#2,60.5,23/200,100,112.01
937,E2,61.0,6/25,115,112.01
938,F#4,61.0,0.25,100,112.01
939,B3,61.0,0.25,100,112.01
940,D4,61.0,0.25,100,112.01
941,G3,61.0,0.25,100,112.01
942,E2,61.0,0.25,100,112.01
943,B3,61.0,0.25,90,112.01
944,F#4,61.0,0.25,90,112.01
945,D4,61.0,0.25,90,112.01
946,C2,61.0,0.125,100,112.01
947,G#2,61.0,0.125,100,112.01
948,D2,61.5,0.188,115,112.01
949,B3,61.5,0.25,100,112.01
950,G3,61.5,0.25,100,112.01
951,F#4,61.5,0.25,100,112.01
952,D4,61.5,0.25,100,112.01
953,D2,61.5,0.25,100,112.01
954,F#4,61.5,0.25,90,112.01
955,D4,61.5,0.25,90,112.01
956,B3,61.5,0.25,90,112.01
957,C2,61.5,73/500,100,112.01
958,G#2,61.5,73/500,100,112.01
959,C#2,62.0,479/1000,115,112.01
960,G#3,62.0,0.75,100,112.01
961,E4,62.0,0.75,100,112.01
962,B3,62.0,0.75,100,112.01
963,F3,62.0,0.75,100,112.01
964,C#2,62.0,0.75,100,112.01
965,E4,62.0,0.75,90,112.01
966,B3,62.0,0.75,90,112.01
967,G#3,62.0,0.75,90,112.01
968,C2,62.0,27/200,100,112.01
969,G#2,62.0,27/200,100,112.01
970,G#3,62.0,27/200,100,112.01
971,C#3,62.5,77/200,115,112.01
972,G#2,62.5,73/500,100,112.01
973,C#2,63.0,521/1000,115,112.01
974,E4,63.0,49/100,100,112.01
975,B3,63.0,49/100,100,112.01
976,G#3,63.0,49/100,100,112.01
977,F3,63.0,49/100,100,112.01
978,C#2,63.0,49/100,100,112.01
979,E4,63.0,0.5,90,112.01
980,B3,63.0,0.5,90,112.01
981,G#3,63.0,0.5,90,112.01
982,D2,63.0,27/200,100,112.01
983,G#2,63.0,27/200,100,112.01
984,G#2,63.5,13/125,100,112.01
985,C2,63.75,0.25,115,112.01
986,D4,63.75,0.25,100,112.01
987,B-3,63.75,0.25,100,112.01
988,E3,63.75,0.25,100,112.01
989,G3,63.75,0.25,100,112.01
990,C2,63.75,0.25,100,112.01
991,B-3,63.75,0.25,90,112.01
992,D4,63.75,0.25,90,112.01
993,G3,63.75,0.25,90,112.01
994,C2,63.75,23/200,100,112.01
995,B-2,63.75,23/200,100,112.01
996,C2,64.0,0.094,115,112.01
997,G#2,64.0,83/1000,100,112.01
998,G#3,64.0,0.156,100,112.01
999,C3,64.25,573/1000,115,112.01
1000,G#2,64.25,73/1000,100,112.01
1001,G#2,64.5,23/200,100,112.01
1002,C2,65.0,0.188,115,112.01
1003,D5,65.0,0.25,122,112.01
1004,B-3,65.0,0.25,100,112.01
1005,G3,65.0,0.25,100,112.01
1006,D4,65.0,0.25,100,112.01
1007,E3,65.0,0.25,100,112.01
1008,C2,65.0,0.25,100,112.01
1009,B-3,65.0,0.25,90,112.01
1010,D4,65.0,0.25,90,112.01
1011,G3,65.0,0.25,90,112.01
1012,C2,65.0,27/200,100,112.01
1013,G#2,65.0,27/200,100,112.01
1014,C2,65.5,0.188,115,112.01
1015,C5,65.5,0.25,122,112.01
1016,E3,65.5,0.25,100,112.01
1017,B-3,65.5,0.25,100,112.01
1018,G3,65.5,0.25,100,112.01
1019,D4,65.5,0.25,100,112.01
1020,C2,65.5,0.25,100,112.01
1021,B-3,65.5,0.25,90,112.01
1022,G3,65.5,0.25,90,112.01
1023,D4,65.5,0.25,90,112.01
1024,C2,65.5,73/500,100,112.01
1025,G#2,65.5,73/500,100,112.01
1026,B1,66.0,349/500,115,112.01
1027,B4,66.0,0.75,122,112.01
1028,E-4,66.0,0.75,100,112.01
1029,C4,66.0,0.75,100,112.01
1030,G4,66.0,0.75,100,112.01
1031,A3,66.0,0.75,100,112.01
1032,B1,66.0,0.75,100,112.01
1033,E-4,66.0,0.75,90,112.01
1034,G4,66.0,0.75,90,112.01
1035,C4,66.0,0.75,90,112.01
1036,C2,66.0,167/1000,100,112.01
1037,G#2,66.0,167/1000,100,112.01
1038,G#3,66.0,167/1000,100,112.01
1039,G#2,66.5,27/200,100,112.01
1040,B1,67.0,77/200,115,112.01
1041,A4,67.0,0.25,122,112.01
1042,E-4,67.0,0.5,100,112.01
1043,C4,67.0,0.5,100,112.01
1044,G4,67.0,0.5,100,112.01
1045,A3,67.0,0.5,100,112.01
1046,B1,67.0,0.5,100,112.01
1047,G4,67.0,0.5,90,112.01
1048,E-4,67.0,0.5,90,112.01
1049,C4,67.0,0.5,90,112.01
1050,D2,67.0,0.125,100,112.01
1051,G#2,67.0,0.125,100,112.01
1052,B4,67.25,0.25,122,112.01
1053,G4,67.5,0.25,122,112.01
1054,G#2,67.5,13/125,100,112.01
1055,E1,67.75,0.25,115,112.01
1056,A4,67.75,0.25,122,112.01
1057,B3,67.75,0.25,100,112.01
1058,F#4,67.75,0.25,100,112.01
1059,D4,67.75,0.25,100,112.01
1060,G3,67.75,0.25,100,112.01
1061,E2,67.75,0.25,100,112.01
1062,F#4,67.75,0.25,90,112.01
1063,D4,67.75,0.25,90,112.01
1064,B3,67.75,0.25,90,112.01
1065,C2,67.75,27/200,100,112.01
1066,B-2,67.75,27/200,100,112.01
1067,E1,68.0,0.438,115,112.01
1068,A4,68.0,2.0,122,112.01
1069,G#2,68.0,0.031,100,112.01
1070,G#3,68.0,0.156,100,112.01
1071,B3,68.0,173/200,100,112.01
1072,F#4,68.0,173/200,100,112.01
1073,D4,68.0,173/200,100,112.01
1074,G3,68.0,173/200,100,112.01
1075,E2,68.0,173/200,100,112.01
1076,F#4,68.0,0.75,90,112.01
1077,D4,68.0,0.75,90,112.01
1078,B3,68.0,0.75,90,112.01
1079,G#2,68.25,83/1000,100,112.01
1080,E3,68.5,0.312,115,112.01
1081,G#2,68.5,0.094,100,112.01
1082,E-2,69.0,0.469,115,112.01
1083,C2,69.0,177/1000,100,112.01
1084,G#2,69.0,13/125,100,112.01
1085,F4,69.0,173/200,100,112.01
1086,F#3,69.0,173/200,100,112.01
1087,C#4,69.0,173/200,100,112.01
1088,B-3,69.0,173/200,100,112.01
1089,E-2,69.0,173/200,100,112.01
1090,F4,69.0,0.75,90,112.01
1091,C#4,69.0,0.75,90,112.01
1092,B-3,69.0,0.75,90,112.01
1093,E-3,69.5,77/200,115,112.01
1094,G#2,69.5,13/125,100,112.01
1095,D2,70.0,0.438,115,112.01
1096,C4,70.0,173/200,100,112.01
1097,A3,70.0,173/200,100,112.01
1098,E4,70.0,173/200,100,112.01
1099,F3,70.0,173/200,100,112.01
1100,D2,70.0,173/200,100,112.01
1101,E4,70.0,37/50,90,112.01
1102,C4,70.0,37/50,90,112.01
1103,A3,70.0,37/50,90,112.01
1104,C2,70.0,0.156,100,112.01
1105,G#2,70.0,0.156,100,112.01
1106,G#3,70.0,0.156,100,112.01
1107,D3,70.5,271/1000,115,112.01
1108,G#2,70.5,23/200,100,112.01
1109,C#2,71.0,479/1000,115,112.01
1110,D4,71.0,0.25,122,112.01
1111,E4,71.0,123/200,100,112.01
1112,G#3,71.0,123/200,100,112.01
1113,B3,71.0,123/200,100,112.01
1114,F3,71.0,123/200,100,112.01
1115,C#2,71.0,123/200,100,112.01
1116,E4,71.0,0.5,90,112.01
1117,G#3,71.0,0.5,90,112.01
1118,B3,71.0,0.5,90,112.01
1119,D2,71.0,0.125,100,112.01
1120,G#2,71.0,0.125,100,112.01
1121,E4,71.25,0.25,122,112.01
1122,C#3,71.5,26/125,115,112.01
1123,G#2,71.5,0.094,100,112.01
1124,C2,71.75,0.25,115,112.01
1125,G4,71.75,0.25,122,112.01
1126,D4,71.75,0.25,100,112.01
1127,B-3,71.75,0.25,100,112.01
1128,E3,71.75,0.25,100,112.01
1129,G3,71.75,0.25,100,112.01
1130,C2,71.75,0.25,100,112.01
1131,B-3,71.75,0.25,90,112.01
1132,D4,71.75,0.25,90,112.01
1133,G3,71.75,0.25,90,112.01
1134,C2,71.75,27/200,100,112.01
1135,B-2,71.75,27/200,100,112.01
1136,C2,72.0,13/125,115,112.01
1137,G#2,72.0,21/500,100,112.01
1138,G#3,72.0,73/500,100,112.01
1139,C3,72.25,51/100,115,112.01
1140,G#2,72.25,0.062,100,112.01
1141,G#2,72.5,23/200,100,112.01
1142,C2,73.0,229/1000,115,112.01
1143,E4,73.0,323/1000,122,112.01
1144,G3,73.0,0.25,100,112.01
1145,B-3,73.0,0.25,100,112.01
1146,E3,73.0,0.25,100,112.01
1147,D4,73.0,0.25,100,112.01
1148,C2,73.0,0.25,100,112.01
1149,B-3,73.0,0.25,90,112.01
1150,D4,73.0,0.25,90,112.01
1151,G3,73.0,0.25,90,112.01
1152,C2,73.0,13/125,100,112.01
1153,G#2,73.0,13/125,100,112.01
1154,C2,73.5,0.219,115,112.01
1155,B-4,73.5,0.25,122,112.01
1156,G3,73.5,0.25,100,112.01
1157,E3,73.5,0.25,100,112.01
1158,B-3,73.5,0.25,100,112.01
1159,D4,73.5,0.25,100,112.01
1160,C2,73.5,0.25,100,112.01
1161,B-3,73.5,0.25,90,112.01
1162,G3,73.5,0.25,90,112.01
1163,D4,73.5,0.25,90,112.01
1164,C2,73.5,73/500,100,112.01
1165,G#2,73.5,73/500,100,112.01
1166,B1,74.0,0.844,115,112.01
1167,A4,74.0,0.75,122,112.01
1168,C4,74.0,0.75,100,112.01
1169,A3,74.0,0.75,100,112.01
1170,E-4,74.0,0.75,100,112.01
1171,G4,74.0,0.75,100,112.01
1172,B1,74.0,0.75,100,112.01
1173,E-4,74.0,0.75,90,112.01
1174,G4,74.0,0.75,90,112.01
1175,C4,74.0,0.75,90,112.01
1176,C2,74.0,73/500,100,112.01
1177,G#2,74.0,73/500,100,112.01
1178,G#3,74.0,73/500,100,112.01
1179,G#2,74.5,27/200,100,112.01
1180,A2,75.0,99/500,115,112.01
1181,G4,75.0,323/1000,122,112.01
1182,G4,75.0,49/100,100,112.01
1183,C4,75.0,49/100,100,112.01
1184,E-4,75.0,49/100,100,112.01
1185,A3,75.0,49/100,100,112.01
1186,B1,75.0,49/100,100,112.01
1187,E-4,75.0,0.5,90,112.01
1188,G4,75.0,0.5,90,112.01
1189,C4,75.0,0.5,90,112.01
1190,D2,75.0,73/500,100,112.01
1191,G#2,75.0,73/500,100,112.01
1192,B2,75.25,77/200,115,112.01
1193,A4,75.5,0.25,122,112.01
1194,G#2,75.5,13/125,100,112.01
1195,E1,75.75,0.25,115,112.01
1196,G4,75.75,0.25,122,112.01
1197,F#4,75.75,0.25,100,112.01
1198,B3,75.75,0.25,100,112.01
1199,D4,75.75,0.25,100,112.01
1200,G3,75.75,0.25,100,112.01
1201,E2,75.75,0.25,100,112.01
1202,F#4,75.75,0.25,90,112.01
1203,B3,75.75,0.25,90,112.01
1204,D4,75.75,0.25,90,112.01
1205,C2,75.75,73/500,100,112.01
1206,B-2,75.75,73/500,100,112.01
1207,E1,76.0,0.031,115,112.01
1208,G#2,76.0,0.031,100,112.01
1209,G#3,76.0,0.156,100,112.01
1210,E3,76.25,127/200,115,112.01
1211,E4,76.25,1.75,122,112.01
1212,G#2,76.25,13/125,100,112.01
1213,G#2,76.5,23/200,100,112.01
1214,E2,77.0,229/1000,115,112.01
1215,F#4,77.0,0.25,100,112.01
1216,D4,77.0,0.25,100,112.01
1217,G3,77.0,0.25,100,112.01
1218,B3,77.0,0.25,100,112.01
1219,E2,77.0,0.25,100,112.01
1220,F#4,77.0,0.25,90,112.01
1221,B3,77.0,0.25,90,112.01
1222,D4,77.0,0.25,90,112.01
1223,C2,77.0,23/200,100,112.01
1224,G#2,77.0,23/200,100,112.01
1225,D2,77.5,26/125,115,112.01
1226,F#4,77.5,0.25,100,112.01
1227,B3,77.5,0.25,100,112.01
1228,G3,77.5,0.25,100,112.01
1229,D4,77.5,0.25,100,112.01
1230,D2,77.5,0.25,100,112.01
1231,F#4,77.5,0.25,90,112.01
1232,B3,77.5,0.25,90,112.01
1233,D4,77.5,0.25,90,112.01
1234,C2,77.5,73/500,100,112.01
1235,G#2,77.5,73/500,100,112.01
1236,C#2,78.0,417/1000,115,112.01
1237,B3,78.0,0.75,100,112.01
1238,G#3,78.0,0.75,100,112.01
1239,E4,78.0,0.75,100,112.01
1240,F3,78.0,0.75,100,112.01
1241,C#2,78.0,0.75,100,112.01
1242,E4,78.0,0.75,90,112.01
1243,G#3,78.0,0.75,90,112.01
1244,B3,78.0,0.75,90,112.01
1245,C2,78.0,167/1000,100,112.01
1246,G#2,78.0,167/1000,100,112.01
1247,G#3,78.0,167/1000,100,112.01
1248,C#3,78.5,151/500,115,112.01
1249,G#2,78.5,73/500,100,112.01
1250,C#2,79.0,417/1000,115,112.01
1251,E4,79.0,0.5,100,112.01
1252,G#3,79.0,0.5,100,112.01
1253,B3,79.0,0.5,100,112.01
1254,F3,79.0,0.5,100,112.01
1255,C#2,79.0,0.5,100,112.01
1256,E4,79.0,0.5,90,112.01
1257,B3,79.0,0.5,90,112.01
1258,G#3,79.0,0.5,90,112.01
1259,D2,79.0,27/200,100,112.01
1260,G#2,79.0,27/200,100,112.01
1261,C#3,79.5,167/1000,115,112.01
1262,G#2,79.5,27/200,100,112.01
1263,C2,79.75,0.25,115,112.01
1264,D4,79.75,0.25,100,112.01
1265,B-3,79.75,0.25,100,112.01
1266,E3,79.75,0.25,100,112.01
1267,G3,79.75,0.25,100,112.01
1268,C2,79.75,0.25,100,112.01
1269,B-3,79.75,0.25,90,112.01
1270,D4,79.75,0.25,90,112.01
1271,G3,79.75,0.25,90,112.01
1272,C2,79.75,27/200,100,112.01
1273,B-2,79.75,27/200,100,112.01
1274,C2,80.0,73/500,115,112.01
1275,G#2,80.0,21/1000,100,112.01
1276,G#3,80.0,0.156,100,112.01
1277,C3,80.25,0.594,115,112.01
1278,G#2,80.25,83/1000,100,112.01
1279,G#2,80.5,83/1000,100,112.01
1280,C2,81.0,0.25,115,112.01
1281,D5,81.0,0.25,122,112.01
1282,B-3,81.0,0.25,100,112.01
1283,D4,81.0,0.25,100,112.01
1284,G3,81.0,0.25,100,112.01
1285,E3,81.0,0.25,100,112.01
1286,C2,81.0,0.25,100,112.01
1287,B-3,81.0,0.25,90,112.01
1288,D4,81.0,0.25,90,112.01
1289,G3,81.0,0.25,90,112.01
1290,C2,81.0,13/125,100,112.01
1291,G#2,81.0,13/125,100,112.01
1292,C2,81.5,13/50,115,112.01
1293,C5,81.5,0.25,122,112.01
1294,B-3,81.5,0.25,100,112.01
1295,E3,81.5,0.25,100,112.01
1296,G3,81.5,0.25,100,112.01
1297,D4,81.5,0.25,100,112.01
1298,C2,81.5,0.25,100,112.01
1299,B-3,81.5,0.25,90,112.01
1300,D4,81.5,0.25,90,112.01
1301,G3,81.5,0.25,90,112.01
1302,C2,81.5,23/200,100,112.01
1303,G#2,81.5,23/200,100,112.01
1304,B1,82.0,0.688,115,112.01
1305,B4,82.0,0.75,122,112.01
1306,C4,82.0,0.75,100,112.01
1307,A3,82.0,0.75,100,112.01
1308,E-4,82.0,0.75,100,112.01
1309,G4,82.0,0.75,100,112.01
1310,B1,82.0,0.75,100,112.01
1311,E-4,82.0,0.75,90,112.01
1312,G4,82.0,0.75,90,112.01
1313,C4,82.0,0.75,90,112.01
1314,C2,82.0,73/500,100,112.01
1315,G#2,82.0,73/500,100,112.01
1316,G#3,82.0,73/500,100,112.01
1317,G#2,82.5,0.125,100,112.01
1318,B1,83.0,51/100,115,112.01
1319,G4,83.0,49/100,100,112.01
1320,C4,83.0,49/100,100,112.01
1321,E-4,83.0,49/100,100,112.01
1322,A3,83.0,49/100,100,112.01
1323,B1,83.0,49/100,100,112.01
1324,E-4,83.0,0.5,90,112.01
1325,G4,83.0,0.5,90,112.01
1326,C4,83.0,0.5,90,112.01
1327,A4,83.0,0.656,122,112.01
1328,C5,83.0,0.656,122,112.01
1329,F#4,83.0,0.656,122,112.01
1330,D2,83.0,0.125,100,112.01
1331,G#2,83.0,0.125,100,112.01
1332,G#2,83.5,13/125,100,112.01
1333,E2,83.75,0.25,100,112.01
1334,E1,83.75,0.25,115,112.01
1335,D5,83.75,0.25,122,112.01
1336,B3,83.75,0.25,100,112.01
1337,G3,83.75,0.25,100,112.01
1338,F#4,83.75,0.25,100,112.01
1339,D4,83.75,0.25,100,112.01
1340,D4,83.75,0.25,90,112.01
1341,F#4,83.75,0.25,90,112.01
1342,B3,83.75,0.25,90,112.01
1343,F#4,83.75,0.25,122,112.01
1344,A4,83.75,0.25,122,112.01
1345,C#3,83.75,23/200,100,112.01
1346,C2,83.75,23/200,100,112.01
1347,B-2,83.75,23/200,100,112.01
1348,E2,84.0,1.25,100,112.01
1349,E1,84.0,401/500,115,112.01
1350,D5,84.0,4.0,122,112.01
1351,G#2,84.0,21/500,100,112.01
1352,G#3,84.0,73/500,100,112.01
1353,B3,84.0,1.75,100,112.01
1354,G3,84.0,1.75,100,112.01
1355,F#4,84.0,1.75,100,112.01
1356,D4,84.0,1.75,100,112.01
1357,D4,84.0,1.75,90,112.01
1358,F#4,84.0,1.75,90,112.01
1359,B3,84.0,1.75,90,112.01
1360,F#4,84.0,2.0,122,112.01
1361,A4,84.0,2.0,122,112.01
1362,G#2,84.25,83/1000,100,112.01
1363,G#2,84.5,27/200,100,112.01
1364,E2,85.0,0.5,115,112.01
1365,D2,85.0,0.125,100,112.01
1366,G#2,85.0,0.125,100,112.01
1367,E2,85.5,0.25,100,112.01
1368,E1,85.5,0.25,115,112.01
1369,C2,85.5,27/200,100,112.01
1370,G#2,85.5,27/200,100,112.01
1371,F2,86.0,0.75,100,112.01
1372,F1,86.0,0.75,115,112.01
1373,C4,86.0,1.5,100,112.01
1374,G4,86.0,1.5,100,112.01
1375,E-4,86.0,1.5,100,112.01
1376,G#3,86.0,1.5,100,112.01
1377,E-4,86.0,1.5,90,112.01
1378,C4,86.0,1.5,90,112.01
1379,G4,86.0,1.5,90,112.01
1380,B4,86.0,2.0,122,112.01
1381,G4,86.0,2.0,122,112.01
1382,C2,86.0,27/200,100,112.01
1383,G#2,86.0,27/200,100,112.01
1384,G#3,86.0,27/200,100,112.01
1385,G#2,86.5,0.125,100,112.01
1386,F2,87.0,0.5,100,112.01
1387,F1,87.0,0.5,115,112.01
1388,G4,87.0,0.656,125,112.01
1389,C4,87.0,0.656,125,112.01
1390,E-4,87.0,0.656,125,112.01
1391,D2,87.0,13/125,100,112.01
1392,G#2,87.0,13/125,100,112.01
1393,G#2,87.5,0.094,100,112.01
1394,F#2,87.75,0.25,100,112.01
1395,F#1,87.75,0.25,115,112.01
1396,G#4,87.75,0.25,100,112.01
1397,A3,87.75,0.25,100,112.01
1398,E4,87.75,0.25,100,112.01
1399,C#4,87.75,0.25,100,112.01
1400,E4,87.75,6/25,125,112.01
1401,G#4,87.75,6/25,125,112.01
1402,C#4,87.75,6/25,125,112.01
1403,A3,87.75,27/200,100,112.01
1404,C2,87.75,27/200,100,112.01
1405,B-2,87.75,27/200,100,112.01
1406,G#2,88.0,0.0,100,112.01
1407,F#2,88.0,1.25,100,112.01
1408,F#1,88.0,0.25,115,112.01
1409,G#4,88.0,1.75,100,112.01
1410,A3,88.0,1.75,100,112.01
1411,E4,88.0,1.75,100,112.01
1412,C#4,88.0,1.75,100,112.01
1413,G#2,88.0,13/125,100,112.01
1414,G#3,88.0,13/125,100,112.01
1415,F#2,88.25,6/25,115,112.01
1416,G#2,88.25,73/1000,100,112.01
1417,F#1,88.5,0.25,115,112.01
1418,G#2,88.5,13/125,100,112.01
1419,C#4,88.5,0.25,90,112.01
1420,E4,88.5,0.25,90,112.01
1421,G#4,88.5,0.25,90,112.01
1422,F#1,89.0,0.25,115,112.01
1423,E5,89.0,0.25,122,112.01
1424,D2,89.0,13/125,100,112.01
1425,G#2,89.0,13/125,100,112.01
1426,F#2,89.5,6/25,100,112.01
1427,A1,89.5,0.25,115,112.01
1428,B4,89.5,0.25,122,112.01
1429,C2,89.5,27/200,100,112.01
1430,G#2,89.5,13/250,100,112.01
1431,A4,89.75,2.25,122,112.01
1432,G#2,89.75,83/1000,100,112.01
1433,B1,90.0,0.5,115,112.01
1434,B1,90.0,1.5,100,112.01
1435,G4,90.0,1.5,100,112.01
1436,C4,90.0,1.5,100,112.01
1437,A3,90.0,1.5,100,112.01
1438,E-4,90.0,1.5,100,112.01
1439,C2,90.0,27/200,100,112.01
1440,G#2,90.0,27/200,100,112.01
1441,B2,90.5,0.25,115,112.01
1442,G#2,90.5,73/1000,100,112.01
1443,E-4,90.5,0.25,90,112.01
1444,C4,90.5,0.25,90,112.01
1445,G4,90.5,0.25,90,112.01
1446,G#2,90.75,13/125,100,112.01
1447,B1,91.0,0.5,115,112.01
1448,D2,91.0,0.125,100,112.01
1449,G#2,91.0,0.125,100,112.01
1450,B2,91.5,0.25,115,112.01
1451,G#2,91.5,21/500,100,112.01
1452,E-4,91.5,0.25,90,112.01
1453,G4,91.5,0.25,90,112.01
1454,C4,91.5,0.25,90,112.01
1455,B-1,91.75,0.25,100,112.01
1456,B-1,91.75,0.25,115,112.01
1457,D4,91.75,0.25,100,112.01
1458,B-3,91.75,0.25,100,112.01
1459,F4,91.75,0.25,100,112.01
1460,A3,91.75,0.25,100,112.01
1461,C2,91.75,23/200,100,112.01
1462,B-2,91.75,23/200,100,112.01
1463,B-1,92.0,1.25,100,112.01
1464,B-1,92.0,0.25,115,112.01
1465,A4,92.0,0.25,122,112.01
1466,D4,92.0,1.75,100,112.01
1467,B-3,92.0,1.75,100,112.01
1468,F4,92.0,1.75,100,112.01
1469,A3,92.0,1.75,100,112.01
1470,B-2,92.25,0.25,115,112.01
1471,G#2,92.25,0.031,100,112.01
1472,B-1,92.5,0.25,115,112.01
1473,G#2,92.5,0.094,100,112.01
1474,B-3,92.5,0.25,90,112.01
1475,F4,92.5,0.25,90,112.01
1476,D4,92.5,0.25,90,112.01
1477,B-1,93.0,0.25,115,112.01
1478,D5,93.0,0.25,122,112.01
1479,D2,93.0,23/200,100,112.01
1480,G#2,93.0,23/200,100,112.01
1481,B-1,93.5,0.25,100,112.01
1482,C#2,93.5,0.25,115,112.01
1483,A4,93.5,0.25,122,112.01
1484,C2,93.5,27/200,100,112.01
1485,G#2,93.5,21/500,100,112.01
1486,G4,93.75,2.25,122,112.01
1487,G#2,93.75,13/125,100,112.01
1488,E-2,94.0,0.5,115,112.01
1489,E-2,94.0,1.5,100,112.01
1490,B-3,94.0,1.5,100,112.01
1491,F4,94.0,1.5,100,112.01
1492,G3,94.0,1.5,100,112.01
1493,D4,94.0,1.5,100,112.01
1494,C2,94.0,0.125,100,112.01
1495,G#2,94.0,0.125,100,112.01
1496,E-3,94.5,0.25,115,112.01
1497,G#2,94.5,83/1000,100,112.01
1498,B-3,94.5,0.25,90,112.01
1499,D4,94.5,0.25,90,112.01
1500,F4,94.5,0.25,90,112.01
1501,G#2,94.75,23/200,100,112.01
1502,B-1,95.0,0.5,115,112.01
1503,D2,95.0,27/200,100,112.01
1504,G#2,95.0,27/200,100,112.01
1505,B-2,95.5,0.25,115,112.01
1506,G#2,95.5,27/200,100,112.01
1507,B-3,95.5,0.25,90,112.01
1508,D4,95.5,0.25,90,112.01
1509,F4,95.5,0.25,90,112.01
1510,A1,95.75,0.25,100,112.01
1511,A1,95.75,0.25,115,112.01
1512,C4,95.75,0.25,100,112.01
1513,A3,95.75,0.25,100,112.01
1514,G3,95.75,0.25,100,112.01
1515,E4,95.75,0.25,100,112.01
1516,C2,95.75,27/200,100,112.01
1517,B-2,95.75,27/200,100,112.01
1518,A1,96.0,31/25,100,112.01
1519,A1,96.0,0.25,115,112.01
1520,G4,96.0,0.25,122,112.01
1521,C4,96.0,1.75,100,112.01
1522,A3,96.0,1.75,100,112.01
1523,G3,96.0,1.75,100,112.01
1524,E4,96.0,1.75,100,112.01
1525,A2,96.25,0.25,115,112.01
1526,G#2,96.25,21/500,100,112.01
1527,A1,96.5,0.25,115,112.01
1528,G#2,96.5,0.125,100,112.01
1529,E4,96.5,0.25,90,112.01
1530,C4,96.5,0.25,90,112.01
1531,A3,96.5,0.25,90,112.01
1532,A1,97.0,0.25,115,112.01
1533,C5,97.0,0.25,122,112.01
1534,D2,97.0,0.125,100,112.01
1535,G#2,97.0,0.125,100,112.01
1536,A1,97.5,0.25,100,112.01
1537,B1,97.5,0.25,115,112.01
1538,G4,97.5,0.25,122,112.01
1539,C2,97.5,83/1000,100,112.01
1540,G#2,97.5,83/1000,100,112.01
1541,G#2,97.75,23/200,100,112.01
1542,C2,98.0,0.5,115,112.01
1543,F#4,98.0,0.75,122,112.01
1544,D2,98.0,149/100,100,112.01
1545,A3,98.0,149/100,100,112.01
1546,F#3,98.0,149/100,100,112.01
1547,C4,98.0,149/100,100,112.01
1548,E4,98.0,149/100,100,112.01
1549,C2,98.0,27/200,100,112.01
1550,G#2,98.0,27/200,100,112.01
1551,C3,98.5,0.25,115,112.01
1552,G#2,98.5,0.094,100,112.01
1553,C4,98.5,0.25,90,112.01
1554,A3,98.5,0.25,90,112.01
1555,E4,98.5,0.25,90,112.01
1556,G#2,98.75,13/125,100,112.01
1557,D2,99.0,0.5,115,112.01
1558,E5,99.0,0.5,122,112.01
1559,D2,99.0,73/500,100,112.01
1560,G#2,99.0,73/500,100,112.01
1561,D3,99.5,0.25,115,112.01
1562,G#2,99.5,13/125,100,112.01
1563,C4,99.5,0.25,90,112.01
1564,E4,99.5,0.25,90,112.01
1565,A3,99.5,0.25,90,112.01
1566,B1,99.75,0.25,100,112.01
1567,B1,99.75,0.25,115,112.01
1568,D5,99.75,0.25,122,112.01
1569,B3,99.75,0.25,100,112.01
1570,G4,99.75,0.25,100,112.01
1571,D4,99.75,0.25,100,112.01
1572,C2,99.75,13/125,100,112.01
1573,B-2,99.75,13/125,100,112.01
1574,B1,100.0,87/50,100,112.01
1575,B1,100.0,0.25,115,112.01
1576,D5,100.0,3.75,122,112.01
1577,B3,100.0,1823/1000,100,112.01
1578,G4,100.0,1823/1000,100,112.01
1579,D4,100.0,1823/1000,100,112.01
1580,B2,100.25,0.25,115,112.01
1581,G#2,100.25,21/500,100,112.01
1582,B1,100.5,0.25,115,112.01
1583,G#2,100.5,0.125,100,112.01
1584,G4,100.5,0.25,90,112.01
1585,B3,100.5,0.25,90,112.01
1586,D4,100.5,0.25,90,112.01
1587,B1,101.0,0.25,115,112.01
1588,D2,101.0,23/200,100,112.01
1589,G#2,101.0,23/200,100,112.01
1590,D2,101.5,0.25,115,112.01
1591,C2,101.5,83/1000,100,112.01
1592,G#2,101.5,83/1000,100,112.01
1593,G#2,101.75,13/125,100,112.01
1594,E2,102.0,37/50,100,112.01
1595,E2,102.0,0.5,115,112.01
1596,D4,102.0,823/1000,100,112.01
1597,A3,102.0,823/1000,100,112.01
1598,F#4,102.0,823/1000,100,112.01
1599,C2,102.0,0.125,100,112.01
1600,G#2,102.0,0.125,100,112.01
1601,E3,102.5,0.25,115,112.01
1602,G#2,102.5,21/500,100,112.01
1603,B3,102.5,0.25,90,112.01
1604,G4,102.5,0.25,90,112.01
1605,D4,102.5,0.25,90,112.01
1606,G#2,102.75,23/200,100,112.01
1607,D2,103.0,0.5,115,112.01
1608,D4,103.0,0.5,100,112.01
1609,B3,103.0,0.5,100,112.01
1610,G4,103.0,0.5,100,112.01
1611,D2,103.0,0.5,100,112.01
1612,D2,103.0,73/500,100,112.01
1613,G#2,103.0,73/500,100,112.01
1614,D3,103.5,0.25,115,112.01
1615,G#2,103.5,0.125,100,112.01
1616,B3,103.5,0.25,90,112.01
1617,D4,103.5,0.25,90,112.01
1618,G4,103.5,0.25,90,112.01
1619,C2,103.75,0.25,100,112.01
1620,C2,103.75,0.25,115,112.01
1621,G4,103.75,0.25,100,112.01
1622,E-4,103.75,0.25,100,112.01
1623,C4,103.75,0.25,100,112.01
1624,B-3,103.75,0.25,100,112.01
1625,C2,103.75,27/200,100,112.01
1626,B-2,103.75,27/200,100,112.01
1627,C2,104.0,1.25,100,112.01
1628,C2,104.0,0.25,115,112.01
1629,G4,104.0,87/50,100,112.01
1630,E-4,104.0,87/50,100,112.01
1631,C4,104.0,87/50,100,112.01
1632,B-3,104.0,87/50,100,112.01
1633,C3,104.25,0.25,115,112.01
1634,G#2,104.25,0.094,100,112.01
1635,C2,104.5,0.25,115,112.01
1636,G#2,104.5,27/200,100,112.01
1637,C4,104.5,0.25,90,112.01
1638,E-4,104.5,0.25,90,112.01
1639,G4,104.5,0.25,90,112.01
1640,C2,105.0,0.25,115,112.01
1641,E-5,105.0,0.25,122,112.01
1642,D2,105.0,0.125,100,112.01
1643,G#2,105.0,0.125,100,112.01
1644,C2,105.5,0.25,100,112.01
1645,G1,105.5,0.25,115,112.01
1646,B-4,105.5,0.25,122,112.01
1647,C2,105.5,0.094,100,112.01
1648,G#2,105.5,0.094,100,112.01
1649,A4,105.75,2.25,122,112.01
1650,G#2,105.75,0.125,100,112.01
1651,F2,106.0,173/200,100,112.01
1652,F1,106.0,0.5,115,112.01
1653,C4,106.0,1.5,100,112.01
1654,G4,106.0,1.5,100,112.01
1655,A3,106.0,1.5,100,112.01
1656,E-4,106.0,1.5,100,112.01
1657,C2,106.0,73/500,100,112.01
1658,G#2,106.0,73/500,100,112.01
1659,F2,106.5,0.25,115,112.01
1660,G#2,106.5,13/125,100,112.01
1661,E-4,106.5,0.25,90,112.01
1662,C4,106.5,0.25,90,112.01
1663,G4,106.5,0.25,90,112.01
1664,G#2,106.75,0.125,100,112.01
1665,F2,107.0,49/100,100,112.01
1666,A1,107.0,0.5,115,112.01
1667,D2,107.0,73/500,100,112.01
1668,G#2,107.0,73/500,100,112.01
1669,A2,107.5,0.25,115,112.01
1670,G#2,107.5,27/200,100,112.01
1671,E-4,107.5,0.25,90,112.01
1672,G4,107.5,0.25,90,112.01
1673,C4,107.5,0.25,90,112.01
1674,B-1,107.75,0.25,115,112.01
1675,F4,107.75,0.25,100,112.01
1676,D4,107.75,0.25,100,112.01
1677,A3,107.75,0.25,100,112.01
1678,B-3,107.75,0.25,100,112.01
1679,C2,107.75,27/200,100,112.01
1680,B-2,107.75,27/200,100,112.01
1681,B-1,108.0,0.25,115,112.01
1682,A4,108.0,0.25,122,112.01
1683,F4,108.0,1.75,100,112.01
1684,D4,108.0,1.75,100,112.01
1685,A3,108.0,1.75,100,112.01
1686,B-3,108.0,1.75,100,112.01
1687,B-2,108.25,0.25,115,112.01
1688,G#2,108.25,83/1000,100,112.01
1689,B-1,108.5,0.25,115,112.01
1690,G#2,108.5,23/200,100,112.01
1691,B-3,108.5,0.25,90,112.01
1692,D4,108.5,0.25,90,112.01
1693,F4,108.5,0.25,90,112.01
1694,B-1,109.0,0.25,115,112.01
1695,D5,109.0,0.25,122,112.01
1696,D2,109.0,27/200,100,112.01
1697,G#2,109.0,27/200,100,112.01
1698,B-2,109.5,0.25,100,112.01
1699,D2,109.5,0.25,115,112.01
1700,A4,109.5,0.25,122,112.01
1701,C2,109.5,73/1000,100,112.01
1702,G#2,109.5,73/1000,100,112.01
1703,G4,109.75,2.25,122,112.01
1704,G#2,109.75,0.125,100,112.01
1705,E-2,110.0,173/200,100,112.01
1706,E-2,110.0,0.5,115,112.01
1707,F4,110.0,1.5,100,112.01
1708,B-3,110.0,1.5,100,112.01
1709,D4,110.0,1.5,100,112.01
1710,G3,110.0,1.5,100,112.01
1711,C2,110.0,73/500,100,112.01
1712,G#2,110.0,73/500,100,112.01
1713,E-3,110.5,0.25,115,112.01
1714,G#2,110.5,0.094,100,112.01
1715,B-3,110.5,0.25,90,112.01
1716,D4,110.5,0.25,90,112.01
1717,F4,110.5,0.25,90,112.01
1718,G#2,110.75,13/125,100,112.01
1719,E-2,111.0,49/100,100,112.01
1720,B-1,111.0,0.5,115,112.01
1721,D2,111.0,73/500,100,112.01
1722,G#2,111.0,73/500,100,112.01
1723,B-2,111.5,0.25,115,112.01
1724,G#2,111.5,27/200,100,112.01
1725,B-3,111.5,0.25,90,112.01
1726,D4,111.5,0.25,90,112.01
1727,F4,111.5,0.25,90,112.01
1728,A2,111.75,0.25,100,112.01
1729,A1,111.75,0.25,115,112.01
1730,E4,111.75,0.25,100,112.01
1731,C4,111.75,0.25,100,112.01
1732,G3,111.75,0.25,100,112.01
1733,A3,111.75,0.25,100,112.01
1734,C2,111.75,27/200,100,112.01
1735,B-2,111.75,27/200,100,112.01
1736,A2,112.0,1.25,100,112.01
1737,A1,112.0,0.25,115,112.01
1738,G4,112.0,0.25,122,112.01
1739,E4,112.0,3.5,100,112.01
1740,C4,112.0,3.5,100,112.01
1741,G3,112.0,3.5,100,112.01
1742,A3,112.0,3.5,100,112.01
1743,A2,112.25,0.25,115,112.01
1744,G#2,112.25,0.031,100,112.01
1745,A1,112.5,0.25,115,112.01
1746,G#2,112.5,13/125,100,112.01
1747,C4,112.5,0.25,90,112.01
1748,E4,112.5,0.25,90,112.01
1749,A3,112.5,0.25,90,112.01
1750,A1,113.0,0.25,115,112.01
1751,C5,113.0,0.25,122,112.01
1752,D2,113.0,23/200,100,112.01
1753,G#2,113.0,23/200,100,112.01
1754,B2,113.5,0.25,100,112.01
1755,B1,113.5,0.25,115,112.01
1756,G4,113.5,0.25,122,112.01
1757,C2,113.5,0.094,100,112.01
1758,G#2,113.5,0.094,100,112.01
1759,G#2,113.75,13/125,100,112.01
1760,C3,114.0,0.75,100,112.01
1761,C2,114.0,0.5,115,112.01
1762,E4,114.0,0.25,122,112.01
1763,C2,114.0,73/500,100,112.01
1764,G#2,114.0,73/500,100,112.01
1765,C3,114.5,0.25,115,112.01
1766,F#4,114.5,0.25,122,112.01
1767,G#2,114.5,0.031,100,112.01
1768,C4,114.5,0.25,90,112.01
1769,A3,114.5,0.25,90,112.01
1770,E4,114.5,0.25,90,112.01
1771,G#2,114.75,23/200,100,112.01
1772,C#3,115.0,0.5,100,112.01
1773,C#2,115.0,0.5,115,112.01
1774,G4,115.0,0.25,122,112.01
1775,D2,115.0,0.125,100,112.01
1776,G#2,115.0,0.125,100,112.01
1777,A4,115.25,0.25,122,112.01
1778,C#3,115.5,0.25,115,112.01
1779,G#2,115.5,13/125,100,112.01
1780,C4,115.5,0.25,90,112.01
1781,E4,115.5,0.25,90,112.01
1782,A3,115.5,0.25,90,112.01
1783,D2,115.75,0.25,100,112.01
1784,D2,115.75,0.25,115,112.01
1785,C4,115.75,0.25,100,112.01
1786,A3,115.75,0.25,100,112.01
1787,E4,115.75,0.25,100,112.01
1788,G4,115.75,0.25,100,112.01
1789,E4,115.75,0.25,122,112.01
1790,B4,115.75,0.25,122,112.01
1791,G4,115.75,0.25,122,112.01
1792,B4,115.75,0.25,125,112.01
1793,E4,115.75,0.25,125,112.01
1794,G4,115.75,0.25,125,112.01
1795,C2,115.75,27/200,100,112.01
1796,B-2,115.75,27/200,100,112.01
1797,D2,116.0,31/25,100,112.01
1798,D2,116.0,0.25,115,112.01
1799,C4,116.0,1.75,100,112.01
1800,A3,116.0,1.75,100,112.01
1801,E4,116.0,1.75,100,112.01
1802,G4,116.0,1.75,100,112.01
1803,E4,116.0,2.0,122,112.01
1804,B4,116.0,2.0,122,112.01
1805,G4,116.0,2.0,122,112.01
1806,B4,116.0,1.906,125,112.01
1807,E4,116.0,1.906,125,112.01
1808,G4,116.0,1.906,125,112.01
1809,D3,116.25,0.25,115,112.01
1810,G#2,116.25,0.031,100,112.01
1811,D2,116.5,0.25,115,112.01
1812,G#2,116.5,23/200,100,112.01
1813,C4,116.5,0.25,90,112.01
1814,E4,116.5,0.25,90,112.01
1815,G4,116.5,0.25,90,112.01
1816,D2,117.0,0.25,115,112.01
1817,D2,117.0,23/200,100,112.01
1818,G#2,117.0,23/200,100,112.01
1819,D2,117.5,0.25,100,112.01
1820,D2,117.5,0.25,115,112.01
1821,C2,117.5,83/1000,100,112.01
1822,G#2,117.5,83/1000,100,112.01
1823,G#2,117.75,0.094,100,112.01
1824,C#2,118.0,173/200,100,112.01
1825,C#2,118.0,0.5,115,112.01
1826,E4,118.0,1.5,100,112.01
1827,G#3,118.0,1.5,100,112.01
1828,B3,118.0,1.5,100,112.01
1829,F3,118.0,1.5,100,112.01
1830,B3,118.0,1.25,90,112.01
1831,E4,118.0,1.25,90,112.01
1832,G#3,118.0,1.25,90,112.01
1833,B4,118.0,1573/1000,125,112.01
1834,G#4,118.0,1573/1000,125,112.01
1835,F4,118.0,1573/1000,125,112.01
1836,C2,118.0,27/200,100,112.01
1837,G#2,118.0,27/200,100,112.01
1838,C#3,118.5,0.25,115,112.01
1839,G#2,118.5,0.031,100,112.01
1840,G#2,118.75,13/125,100,112.01
1841,C#2,119.0,49/100,100,112.01
1842,C#2,119.0,0.5,115,112.01
1843,D4,119.0,0.25,122,112.01
1844,D2,119.0,0.125,100,112.01
1845,G#2,119.0,0.125,100,112.01
1846,E4,119.25,0.25,122,112.01
1847,D2,119.25,73/500,100,112.01
1848,F2,119.5,13/125,100,112.01
1849,G#2,119.5,13/125,100,112.01
1850,C2,119.75,0.25,115,112.01
1851,G4,119.75,0.25,122,112.01
1852,D4,119.75,0.25,100,112.01
1853,B-3,119.75,0.25,100,112.01
1854,G3,119.75,0.25,100,112.01
1855,E3,119.75,0.25,100,112.01
1856,C2,119.75,0.25,100,112.01
1857,B-3,119.75,0.25,90,112.01
1858,D4,119.75,0.25,90,112.01
1859,G3,119.75,0.25,90,112.01
1860,C#3,119.75,27/200,100,112.01
1861,C2,119.75,27/200,100,112.01
1862,B-2,119.75,27/200,100,112.01
1863,G#2,120.0,83/1000,100,112.01
1864,G#3,120.0,0.156,100,112.01
1865,C3,120.25,0.438,115,112.01
1866,G#2,120.25,13/250,100,112.01
1867,D5,120.25,6/25,125,112.01
1868,E5,120.25,6/25,125,112.01
1869,G5,120.25,6/25,125,112.01
1870,B-4,120.25,6/25,125,112.01
1871,G#2,120.5,0.125,100,112.01
1872,C2,121.0,6/25,115,112.01
1873,E4,121.0,323/1000,122,112.01
1874,B-3,121.0,0.25,100,112.01
1875,G3,121.0,0.25,100,112.01
1876,D4,121.0,0.25,100,112.01
1877,E3,121.0,0.25,100,112.01
1878,C2,121.0,0.25,100,112.01
1879,B-3,121.0,0.25,90,112.01
1880,D4,121.0,0.25,90,112.01
1881,G3,121.0,0.25,90,112.01
1882,C2,121.0,23/200,100,112.01
1883,G#2,121.0,23/200,100,112.01
1884,C2,121.5,6/25,115,112.01
1885,B-4,121.5,0.25,122,112.01
1886,E3,121.5,0.25,100,112.01
1887,B-3,121.5,0.25,100,112.01
1888,D4,121.5,0.25,100,112.01
1889,G3,121.5,0.25,100,112.01
1890,C2,121.5,0.25,100,112.01
1891,B-3,121.5,0.25,90,112.01
1892,D4,121.5,0.25,90,112.01
1893,G3,121.5,0.25,90,112.01
1894,C2,121.5,23/200,100,112.01
1895,G#2,121.5,23/200,100,112.01
1896,B1,122.0,99/125,115,112.01
1897,A4,122.0,0.75,122,112.01
1898,E-4,122.0,0.75,100,112.01
1899,G4,122.0,0.75,100,112.01
1900,A3,122.0,0.75,100,112.01
1901,C4,122.0,0.75,100,112.01
1902,B1,122.0,0.75,100,112.01
1903,E-4,122.0,0.75,90,112.01
1904,G4,122.0,0.75,90,112.01
1905,C4,122.0,0.75,90,112.01
1906,C2,122.0,177/1000,100,112.01
1907,G#2,122.0,177/1000,100,112.01
1908,G#3,122.0,177/1000,100,112.01
1909,G#2,122.5,83/1000,100,112.01
1910,A2,123.0,0.219,115,112.01
1911,G4,123.0,323/1000,122,112.01
1912,E-4,123.0,0.5,100,112.01
1913,C4,123.0,0.5,100,112.01
1914,G4,123.0,0.5,100,112.01
1915,A3,123.0,0.5,100,112.01
1916,B1,123.0,0.5,100,112.01
1917,E-4,123.0,0.5,90,112.01
1918,G4,123.0,0.5,90,112.01
1919,C4,123.0,0.5,90,112.01
1920,D2,123.0,13/125,100,112.01
1921,G#2,123.0,13/125,100,112.01
1922,B2,123.25,99/250,115,112.01
1923,A4,123.5,0.25,122,112.01
1924,G#2,123.5,13/125,100,112.01
1925,E1,123.75,0.25,115,112.01
1926,G4,123.75,0.25,122,112.01
1927,F#4,123.75,0.25,100,112.01
1928,D4,123.75,0.25,100,112.01
1929,B3,123.75,0.25,100,112.01
1930,G3,123.75,0.25,100,112.01
1931,E2,123.75,0.25,100,112.01
1932,B3,123.75,0.25,90,112.01
1933,F#4,123.75,0.25,90,112.01
1934,D4,123.75,0.25,90,112.01
1935,C2,123.75,0.125,100,112.01
1936,B-2,123.75,0.125,100,112.01
1937,E1,124.0,13/250,115,112.01
1938,G#2,124.0,13/125,100,112.01
1939,G#3,124.0,177/1000,100,112.01
1940,E3,124.25,177/250,115,112.01
1941,E4,124.25,1.75,122,112.01
1942,G#2,124.25,73/1000,100,112.01
1943,G#2,124.5,13/125,100,112.01
1944,E2,125.0,6/25,115,112.01
1945,D5,125.0,0.156,125,112.01
1946,F#4,125.0,0.25,100,112.01
1947,B3,125.0,0.25,100,112.01
1948,D4,125.0,0.25,100,112.01
1949,G3,125.0,0.25,100,112.01
1950,E2,125.0,0.25,100,112.01
1951,F#4,125.0,0.25,90,112.01
1952,D4,125.0,0.25,90,112.01
1953,B3,125.0,0.25,90,112.01
1954,C2,125.0,23/200,100,112.01
1955,G#2,125.0,23/200,100,112.01
1956,D2,125.5,0.219,115,112.01
1957,E5,125.5,0.156,125,112.01
1958,B3,125.5,0.25,100,112.01
1959,G3,125.5,0.25,100,112.01
1960,F#4,125.5,0.25,100,112.01
1961,D4,125.5,0.25,100,112.01
1962,D2,125.5,0.25,100,112.01
1963,F#4,125.5,0.25,90,112.01
1964,B3,125.5,0.25,90,112.01
1965,D4,125.5,0.25,90,112.01
1966,C2,125.5,73/500,100,112.01
1967,G#2,125.5,73/500,100,112.01
1968,C#2,126.0,427/1000,115,112.01
1969,G#3,126.0,0.75,100,112.01
1970,E4,126.0,0.75,100,112.01
1971,B3,126.0,0.75,100,112.01
1972,F3,126.0,0.75,100,112.01
1973,C#2,126.0,0.75,100,112.01
1974,E4,126.0,0.75,90,112.01
1975,B3,126.0,0.75,90,112.01
1976,G#3,126.0,0.75,90,112.01
1977,G5,126.0,69/125,125,112.01
1978,B4,126.0,69/125,125,112.01
1979,D5,126.0,69/125,125,112.01
1980,C2,126.0,177/1000,100,112.01
1981,G#2,126.0,177/1000,100,112.01
1982,G#3,126.0,177/1000,100,112.01
1983,C#3,126.5,0.344,115,112.01
1984,G#2,126.5,0.125,100,112.01
1985,E5,126.75,0.156,125,112.01
1986,F4,126.75,0.156,125,112.01
1987,B4,126.75,0.156,125,112.01
1988,C#2,127.0,49/100,115,112.01
1989,E4,127.0,49/100,100,112.01
1990,B3,127.0,49/100,100,112.01
1991,G#3,127.0,49/100,100,112.01
1992,F3,127.0,49/100,100,112.01
1993,C#2,127.0,49/100,100,112.01
1994,E4,127.0,0.5,90,112.01
1995,B3,127.0,0.5,90,112.01
1996,G#3,127.0,0.5,90,112.01
1997,D2,127.0,0.125,100,112.01
1998,G#2,127.0,0.125,100,112.01
1999,G#2,127.5,13/125,100,112.01
2000,C2,127.75,0.25,115,112.01
2001,D4,127.75,0.25,100,112.01
2002,B-3,127.75,0.25,100,112.01
2003,E3,127.75,0.25,100,112.01
2004,G3,127.75,0.25,100,112.01
2005,C2,127.75,0.25,100,112.01
2006,B-3,127.75,0.25,90,112.01
2007,D4,127.75,0.25,90,112.01
2008,G3,127.75,0.25,90,112.01
2009,C2,127.75,0.125,100,112.01
2010,B-2,127.75,0.125,100,112.01
2011,C2,128.0,99/500,115,112.01
2012,G#2,128.0,0.156,100,112.01
2013,G#3,128.0,0.156,100,112.01
2014,C3,128.25,0.469,115,112.01
2015,G#2,128.25,73/1000,100,112.01
2016,G#2,128.5,23/200,100,112.01
2017,C2,129.0,0.219,115,112.01
2018,D5,129.0,0.25,122,112.01
2019,B-3,129.0,0.25,100,112.01
2020,G3,129.0,0.25,100,112.01
2021,D4,129.0,0.25,100,112.01
2022,E3,129.0,0.25,100,112.01
2023,C2,129.0,0.25,100,112.01
2024,B-3,129.0,0.25,90,112.01
2025,D4,129.0,0.25,90,112.01
2026,G3,129.0,0.25,90,112.01
2027,C2,129.0,23/200,100,112.01
2028,G#2,129.0,23/200,100,112.01
2029,C2,129.5,26/125,115,112.01
2030,C5,129.5,0.25,122,112.01
2031,E3,129.5,0.25,100,112.01
2032,B-3,129.5,0.25,100,112.01
2033,G3,129.5,0.25,100,112.01
2034,D4,129.5,0.25,100,112.01
2035,C2,129.5,0.25,100,112.01
2036,B-3,129.5,0.25,90,112.01
2037,G3,129.5,0.25,90,112.01
2038,D4,129.5,0.25,90,112.01
2039,C2,129.5,13/125,100,112.01
2040,G#2,129.5,13/125,100,112.01
2041,B1,130.0,0.719,115,112.01
2042,B4,130.0,0.75,122,112.01
2043,E-4,130.0,0.75,100,112.01
2044,C4,130.0,0.75,100,112.01
2045,G4,130.0,0.75,100,112.01
2046,A3,130.0,0.75,100,112.01
2047,B1,130.0,0.75,100,112.01
2048,E-4,130.0,0.75,90,112.01
2049,C4,130.0,0.75,90,112.01
2050,G4,130.0,0.75,90,112.01
2051,C2,130.0,177/1000,100,112.01
2052,G#2,130.0,177/1000,100,112.01
2053,G#3,130.0,177/1000,100,112.01
2054,G#2,130.5,23/200,100,112.01
2055,B1,131.0,49/100,115,112.01
2056,A4,131.0,0.25,122,112.01
2057,E-4,131.0,0.5,100,112.01
2058,C4,131.0,0.5,100,112.01
2059,G4,131.0,0.5,100,112.01
2060,A3,131.0,0.5,100,112.01
2061,B1,131.0,0.5,100,112.01
2062,G4,131.0,0.5,90,112.01
2063,E-4,131.0,0.5,90,112.01
2064,C4,131.0,0.5,90,112.01
2065,D2,131.0,0.125,100,112.01
2066,G#2,131.0,0.125,100,112.01
2067,B4,131.25,0.25,122,112.01
2068,G4,131.5,0.25,122,112.01
2069,G#2,131.5,83/1000,100,112.01
2070,E1,131.75,0.25,115,112.01
2071,A4,131.75,0.25,122,112.01
2072,B3,131.75,0.25,100,112.01
2073,F#4,131.75,0.25,100,112.01
2074,D4,131.75,0.25,100,112.01
2075,G3,131.75,0.25,100,112.01
2076,E2,131.75,0.25,100,112.01
2077,B3,131.75,0.25,90,112.01
2078,F#4,131.75,0.25,90,112.01
2079,D4,131.75,0.25,90,112.01
2080,C2,131.75,27/200,100,112.01
2081,B-2,131.75,27/200,100,112.01
2082,E1,132.0,271/500,115,112.01
2083,A4,132.0,2.75,122,112.01
2084,B3,132.0,173/200,100,112.01
2085,F#4,132.0,173/200,100,112.01
2086,D4,132.0,173/200,100,112.01
2087,G3,132.0,173/200,100,112.01
2088,E2,132.0,173/200,100,112.01
2089,B3,132.0,0.75,90,112.01
2090,F#4,132.0,0.75,90,112.01
2091,D4,132.0,0.75,90,112.01
2092,G#2,132.0,0.156,100,112.01
2093,G#3,132.0,0.156,100,112.01
2094,G#2,132.25,0.062,100,112.01
2095,E3,132.5,271/1000,115,112.01
2096,G#2,132.5,13/125,100,112.01
2097,E-2,133.0,49/100,115,112.01
2098,F4,133.0,173/200,100,112.01
2099,F#3,133.0,173/200,100,112.01
2100,C#4,133.0,173/200,100,112.01
2101,B-3,133.0,173/200,100,112.01
2102,E-2,133.0,173/200,100,112.01
2103,F4,133.0,0.75,90,112.01
2104,C#4,133.0,0.75,90,112.01
2105,B-3,133.0,0.75,90,112.01
2106,C2,133.0,0.125,100,112.01
2107,G#2,133.0,0.125,100,112.01
2108,E5,133.25,0.156,125,112.01
2109,E-3,133.5,77/200,115,112.01
2110,G5,133.5,0.156,125,112.01
2111,G#2,133.5,23/200,100,112.01
2112,E5,133.75,0.156,125,112.01
2113,D2,134.0,0.469,115,112.01
2114,B-5,134.0,6/25,125,112.01
2115,C4,134.0,173/200,100,112.01
2116,A3,134.0,173/200,100,112.01
2117,E4,134.0,173/200,100,112.01
2118,F3,134.0,173/200,100,112.01
2119,D2,134.0,173/200,100,112.01
2120,A3,134.0,0.75,90,112.01
2121,E4,134.0,0.75,90,112.01
2122,C4,134.0,0.75,90,112.01
2123,C2,134.0,73/500,100,112.01
2124,G#2,134.0,73/500,100,112.01
2125,G#3,134.0,73/500,100,112.01
2126,A5,134.25,6/25,125,112.01
2127,D3,134.5,151/500,115,112.01
2128,G5,134.5,6/25,125,112.01
2129,G#2,134.5,0.125,100,112.01
2130,E5,134.75,0.156,125,112.01
2131,C#2,135.0,427/1000,115,112.01
2132,D4,135.0,0.25,122,112.01
2133,E4,135.0,123/200,100,112.01
2134,G#3,135.0,123/200,100,112.01
2135,B3,135.0,123/200,100,112.01
2136,F3,135.0,123/200,100,112.01
2137,C#2,135.0,123/200,100,112.01
2138,E4,135.0,0.5,90,112.01
2139,B3,135.0,0.5,90,112.01
2140,G#3,135.0,0.5,90,112.01
2141,D2,135.0,73/500,100,112.01
2142,G#2,135.0,73/500,100,112.01
2143,E4,135.25,0.25,122,112.01
2144,C#3,135.5,229/1000,115,112.01
2145,G#2,135.5,13/125,100,112.01
2146,C2,135.75,0.25,115,112.01
2147,G4,135.75,0.25,122,112.01
2148,D4,135.75,0.25,100,112.01
2149,B-3,135.75,0.25,100,112.01
2150,E3,135.75,0.25,100,112.01
2151,G3,135.75,0.25,100,112.01
2152,C2,135.75,0.25,100,112.01
2153,B-3,135.75,0.25,90,112.01
2154,G3,135.75,0.25,90,112.01
2155,D4,135.75,0.25,90,112.01
2156,C2,135.75,27/200,100,112.01
2157,B-2,135.75,27/200,100,112.01
2158,C2,136.0,0.156,115,112.01
2159,G#2,136.0,73/500,100,112.01
2160,G#3,136.0,73/500,100,112.01
2161,C3,136.25,0.438,115,112.01
2162,G#2,136.25,83/1000,100,112.01
2163,B-4,136.25,6/25,125,112.01
2164,D5,136.25,6/25,125,112.01
2165,E5,136.25,6/25,125,112.01
2166,G5,136.25,6/25,125,112.01
2167,G#2,136.5,23/200,100,112.01
2168,C2,137.0,6/25,115,112.01
2169,E4,137.0,323/1000,122,112.01
2170,G3,137.0,0.25,100,112.01
2171,B-3,137.0,0.25,100,112.01
2172,E3,137.0,0.25,100,112.01
2173,D4,137.0,0.25,100,112.01
2174,C2,137.0,0.25,100,112.01
2175,B-3,137.0,0.25,90,112.01
2176,D4,137.0,0.25,90,112.01
2177,G3,137.0,0.25,90,112.01
2178,C2,137.0,23/200,100,112.01
2179,G#2,137.0,23/200,100,112.01
2180,C2,137.5,6/25,115,112.01
2181,B-4,137.5,0.25,122,112.01
2182,G3,137.5,0.25,100,112.01
2183,E3,137.5,0.25,100,112.01
2184,B-3,137.5,0.25,100,112.01
2185,D4,137.5,0.25,100,112.01
2186,C2,137.5,0.25,100,112.01
2187,B-3,137.5,0.25,90,112.01
2188,G3,137.5,0.25,90,112.01
2189,D4,137.5,0.25,90,112.01
2190,C2,137.5,0.125,100,112.01
2191,G#2,137.5,0.125,100,112.01
2192,B1,138.0,99/125,115,112.01
2193,A4,138.0,0.75,122,112.01
2194,C4,138.0,0.75,100,112.01
2195,A3,138.0,0.75,100,112.01
2196,E-4,138.0,0.75,100,112.01
2197,G4,138.0,0.75,100,112.01
2198,B1,138.0,0.75,100,112.01
2199,C4,138.0,0.75,90,112.01
2200,E-4,138.0,0.75,90,112.01
2201,G4,138.0,0.75,90,112.01
2202,C2,138.0,73/500,100,112.01
2203,G#2,138.0,73/500,100,112.01
2204,G#3,138.0,73/500,100,112.01
2205,G#2,138.5,0.125,100,112.01
2206,A2,139.0,0.219,115,112.01
2207,G4,139.0,323/1000,122,112.01
2208,G4,139.0,49/100,100,112.01
2209,C4,139.0,49/100,100,112.01
2210,E-4,139.0,49/100,100,112.01
2211,A3,139.0,49/100,100,112.01
2212,B1,139.0,49/100,100,112.01
2213,E-4,139.0,0.5,90,112.01
2214,G4,139.0,0.5,90,112.01
2215,C4,139.0,0.5,90,112.01
2216,D2,139.0,27/200,100,112.01
2217,G#2,139.0,27/200,100,112.01
2218,B2,139.25,99/250,115,112.01
2219,A4,139.5,0.25,122,112.01
2220,G#2,139.5,27/200,100,112.01
2221,E1,139.75,0.25,115,112.01
2222,G4,139.75,0.25,122,112.01
2223,F#4,139.75,0.25,100,112.01
2224,B3,139.75,0.25,100,112.01
2225,D4,139.75,0.25,100,112.01
2226,G3,139.75,0.25,100,112.01
2227,E2,139.75,0.25,100,112.01
2228,F#4,139.75,0.25,90,112.01
2229,B3,139.75,0.25,90,112.01
2230,D4,139.75,0.25,90,112.01
2231,C2,139.75,27/200,100,112.01
2232,B-2,139.75,27/200,100,112.01
2233,E1,140.0,13/250,115,112.01
2234,G#2,140.0,0.094,100,112.01
2235,G#3,140.0,177/1000,100,112.01
2236,E3,140.25,177/250,115,112.01
2237,E4,140.25,1.75,122,112.01
2238,G#2,140.25,13/125,100,112.01
2239,G#2,140.5,27/200,100,112.01
2240,E2,141.0,6/25,115,112.01
2241,D5,141.0,177/1000,125,112.01
2242,F#4,141.0,0.25,100,112.01
2243,D4,141.0,0.25,100,112.01
2244,G3,141.0,0.25,100,112.01
2245,B3,141.0,0.25,100,112.01
2246,E2,141.0,0.25,100,112.01
2247,F#4,141.0,0.25,90,112.01
2248,D4,141.0,0.25,90,112.01
2249,B3,141.0,0.25,90,112.01
2250,C2,141.0,27/200,100,112.01
2251,G#2,141.0,27/200,100,112.01
2252,D2,141.5,0.219,115,112.01
2253,E5,141.5,0.156,125,112.01
2254,F#4,141.5,0.25,100,112.01
2255,B3,141.5,0.25,100,112.01
2256,G3,141.5,0.25,100,112.01
2257,D4,141.5,0.25,100,112.01
2258,D2,141.5,0.25,100,112.01
2259,F#4,141.5,0.25,90,112.01
2260,D4,141.5,0.25,90,112.01
2261,B3,141.5,0.25,90,112.01
2262,C2,141.5,0.125,100,112.01
2263,G#2,141.5,0.125,100,112.01
2264,C#2,142.0,427/1000,115,112.01
2265,B3,142.0,0.75,100,112.01
2266,G#3,142.0,0.75,100,112.01
2267,E4,142.0,0.75,100,112.01
2268,F3,142.0,0.75,100,112.01
2269,C#2,142.0,0.75,100,112.01
2270,E4,142.0,0.75,90,112.01
2271,G#3,142.0,0.75,90,112.01
2272,B3,142.0,0.75,90,112.01
2273,G5,142.0,69/125,125,112.01
2274,B4,142.0,69/125,125,112.01
2275,D5,142.0,69/125,125,112.01
2276,C2,142.0,167/1000,100,112.01
2277,G#2,142.0,167/1000,100,112.01
2278,G#3,142.0,167/1000,100,112.01
2279,C#3,142.5,0.344,115,112.01
2280,G#2,142.5,27/200,100,112.01
2281,E5,142.75,177/1000,125,112.01
2282,F4,142.75,177/1000,125,112.01
2283,B4,142.75,177/1000,125,112.01
2284,C#2,143.0,49/100,115,112.01
2285,E4,143.0,0.5,100,112.01
2286,G#3,143.0,0.5,100,112.01
2287,B3,143.0,0.5,100,112.01
2288,F3,143.0,0.5,100,112.01
2289,C#2,143.0,0.5,100,112.01
2290,E4,143.0,0.5,90,112.01
2291,B3,143.0,0.5,90,112.01
2292,G#3,143.0,0.5,90,112.01
2293,D2,143.0,27/200,100,112.01
2294,G#2,143.0,27/200,100,112.01
2295,G#2,143.5,0.125,100,112.01
2296,C2,143.75,0.25,115,112.01
2297,D4,143.75,0.25,100,112.01
2298,B-3,143.75,0.25,100,112.01
2299,E3,143.75,0.25,100,112.01
2300,G3,143.75,0.25,100,112.01
2301,C2,143.75,0.25,100,112.01
2302,B-3,143.75,0.25,90,112.01
2303,D4,143.75,0.25,90,112.01
2304,G3,143.75,0.25,90,112.01
2305,C2,143.75,0.125,100,112.01
2306,B-2,143.75,0.125,100,112.01
2307,C2,144.0,99/500,115,112.01
2308,G#2,144.0,73/500,100,112.01
2309,G#3,144.0,73/500,100,112.01
2310,C3,144.25,0.469,115,112.01
2311,G#2,144.25,83/1000,100,112.01
2312,G#2,144.5,0.125,100,112.01
2313,C2,145.0,0.219,115,112.01
2314,D5,145.0,0.25,122,112.01
2315,C2,145.0,0.25,100,112.01
2316,B-3,145.0,0.25,100,112.01
2317,G3,145.0,0.25,100,112.01
2318,E3,145.0,0.25,100,112.01
2319,D4,145.0,0.25,100,112.01
2320,B-3,145.0,0.25,90,112.01
2321,D4,145.0,0.25,90,112.01
2322,G3,145.0,0.25,90,112.01
2323,C2,145.0,0.125,100,112.01
2324,G#2,145.0,0.125,100,112.01
2325,C2,145.5,26/125,115,112.01
2326,C5,145.5,0.25,122,112.01
2327,E3,145.5,0.25,100,112.01
2328,B-3,145.5,0.25,100,112.01
2329,G3,145.5,0.25,100,112.01
2330,D4,145.5,0.25,100,112.01
2331,C2,145.5,0.25,100,112.01
2332,B-3,145.5,0.25,90,112.01
2333,G3,145.5,0.25,90,112.01
2334,D4,145.5,0.25,90,112.01
2335,C2,145.5,27/200,100,112.01
2336,G#2,145.5,27/200,100,112.01
2337,B1,146.0,0.719,115,112.01
2338,B4,146.0,0.75,122,112.01
2339,G4,146.0,0.75,100,112.01
2340,C4,146.0,0.75,100,112.01
2341,E-4,146.0,0.75,100,112.01
2342,A3,146.0,0.75,100,112.01
2343,B1,146.0,0.75,100,112.01
2344,G4,146.0,0.75,90,112.01
2345,E-4,146.0,0.75,90,112.01
2346,C4,146.0,0.75,90,112.01
2347,C2,146.0,0.156,100,112.01
2348,G#2,146.0,0.156,100,112.01
2349,G#3,146.0,0.156,100,112.01
2350,G#2,146.5,23/200,100,112.01
2351,B1,147.0,49/100,115,112.01
2352,E-4,147.0,0.5,100,112.01
2353,G4,147.0,0.5,100,112.01
2354,C4,147.0,0.5,100,112.01
2355,A3,147.0,0.5,100,112.01
2356,B1,147.0,0.5,100,112.01
2357,E-4,147.0,0.5,90,112.01
2358,G4,147.0,0.5,90,112.01
2359,C4,147.0,0.5,90,112.01
2360,A4,147.0,0.656,122,112.01
2361,C5,147.0,0.656,122,112.01
2362,F#4,147.0,0.656,122,112.01
2363,D2,147.0,23/200,100,112.01
2364,G#2,147.0,23/200,100,112.01
2365,G#2,147.5,13/125,100,112.01
2366,E2,147.75,0.25,100,112.01
2367,E1,147.75,0.25,115,112.01
2368,D5,147.75,0.25,122,112.01
2369,F#4,147.75,0.25,100,112.01
2370,B3,147.75,0.25,100,112.01
2371,D4,147.75,0.25,100,112.01
2372,G3,147.75,0.25,100,112.01
2373,F#4,147.75,0.25,90,112.01
2374,B3,147.75,0.25,90,112.01
2375,D4,147.75,0.25,90,112.01
2376,A4,147.75,0.25,122,112.01
2377,F#4,147.75,0.25,122,112.01
2378,C2,147.75,0.125,100,112.01
2379,B-2,147.75,0.125,100,112.01
2380,E2,148.0,373/200,100,112.01
2381,E1,148.0,1823/1000,115,112.01
2382,D5,148.0,4.0,122,112.01
2383,G#2,148.0,73/1000,100,112.01
2384,G#3,148.0,167/1000,100,112.01
2385,F#4,148.0,723/200,100,112.01
2386,B3,148.0,723/200,100,112.01
2387,D4,148.0,723/200,100,112.01
2388,G3,148.0,723/200,100,112.01
2389,F#4,148.0,0.25,90,112.01
2390,B3,148.0,0.25,90,112.01
2391,D4,148.0,0.25,90,112.01
2392,A4,148.0,3.75,122,112.01
2393,F#4,148.0,3.75,122,112.01
2394,G#2,148.25,0.125,100,112.01
2395,B3,148.5,6/25,110,112.01
2396,G#2,148.5,73/500,100,112.01
2397,D4,148.75,0.0,110,112.01
2398,D4,148.75,0.156,110,112.01
2399,E4,149.0,0.25,110,112.01
2400,C2,149.0,0.125,100,112.01
2401,G#2,149.0,0.125,100,112.01
2402,D4,149.5,0.156,110,112.01
2403,C2,149.5,0.156,100,112.01
2404,G#2,149.5,0.156,100,112.01
2405,D4,149.75,0.156,110,112.01
2406,G2,150.0,173/200,100,112.01
2407,G1,150.0,823/1000,115,112.01
2408,E4,150.0,0.25,110,112.01
2409,C2,150.0,177/1000,100,112.01
2410,G#2,150.0,177/1000,100,112.01
2411,G#3,150.0,177/1000,100,112.01
2412,D4,150.5,0.156,110,112.01
2413,G#2,150.5,0.156,100,112.01
2414,D4,150.75,0.156,110,112.01
2415,E3,151.0,123/200,100,112.01
2416,E2,151.0,0.656,115,112.01
2417,E4,151.0,0.25,110,112.01
2418,D2,151.0,0.125,100,112.01
2419,G#2,151.0,0.125,100,112.01
2420,D4,151.5,0.156,110,112.01
2421,G#2,151.5,73/1000,100,112.01
2422,D3,151.75,0.25,100,112.01
2423,D2,151.75,0.25,115,112.01
2424,E4,151.75,0.25,110,112.01
2425,C4,151.75,0.25,100,112.01
2426,E4,151.75,0.25,100,112.01
2427,A3,151.75,0.25,100,112.01
2428,G4,151.75,0.25,100,112.01
2429,B4,151.75,0.25,122,112.01
2430,G4,151.75,0.25,122,112.01
2431,C2,151.75,73/500,100,112.01
2432,B-2,151.75,73/500,100,112.01
2433,D3,152.0,373/200,100,112.01
2434,D2,152.0,1823/1000,115,112.01
2435,D5,152.0,1.75,122,112.01
2436,G#2,152.0,21/500,100,112.01
2437,G#3,152.0,0.156,100,112.01
2438,C4,152.0,723/200,100,112.01
2439,E4,152.0,723/200,100,112.01
2440,A3,152.0,723/200,100,112.01
2441,G4,152.0,723/200,100,112.01
2442,B4,152.0,1.75,122,112.01
2443,G4,152.0,1.75,122,112.01
2444,E4,152.25,0.156,110,112.01
2445,G#2,152.25,0.094,100,112.01
2446,D4,152.5,0.156,110,112.01
2447,G#2,152.5,0.125,100,112.01
2448,D4,152.75,0.156,110,112.01
2449,E4,153.0,0.25,110,112.01
2450,C2,153.0,0.125,100,112.01
2451,G#2,153.0,0.125,100,112.01
2452,D4,153.5,0.156,110,112.01
2453,C2,153.5,27/200,100,112.01
2454,G#2,153.5,27/200,100,112.01
2455,D4,153.75,0.156,110,112.01
2456,A2,154.0,173/200,100,112.01
2457,A1,154.0,823/1000,115,112.01
2458,E4,154.0,0.25,110,112.01
2459,B4,154.0,0.75,122,112.01
2460,C2,154.0,27/200,100,112.01
2461,G#2,154.0,27/200,100,112.01
2462,G#3,154.0,27/200,100,112.01
2463,D4,154.5,0.156,110,112.01
2464,G#2,154.5,27/200,100,112.01
2465,D4,154.75,0.156,110,112.01
2466,D3,155.0,123/200,100,112.01
2467,D2,155.0,0.656,115,112.01
2468,E4,155.0,0.25,110,112.01
2469,A4,155.0,0.656,122,112.01
2470,C5,155.0,0.656,122,112.01
2471,F#4,155.0,0.656,122,112.01
2472,D2,155.0,0.125,100,112.01
2473,G#2,155.0,0.125,100,112.01
2474,D4,155.5,0.156,110,112.01
2475,G#2,155.5,23/200,100,112.01
2476,E2,155.75,0.25,100,112.01
2477,E1,155.75,0.25,115,112.01
2478,E4,155.75,0.25,110,112.01
2479,D5,155.75,0.25,122,112.01
2480,F#4,155.75,0.25,100,112.01
2481,D4,155.75,0.25,100,112.01
2482,B3,155.75,0.25,100,112.01
2483,G3,155.75,0.25,100,112.01
2484,A4,155.75,0.25,122,112.01
2485,F#4,155.75,0.25,122,112.01
2486,C2,155.75,73/500,100,112.01
2487,B-2,155.75,73/500,100,112.01
2488,E2,156.0,373/200,100,112.01
2489,E1,156.0,1823/1000,115,112.01
2490,D5,156.0,4.0,122,112.01
2491,G#2,156.0,0.031,100,112.01
2492,G#3,156.0,0.156,100,112.01
2493,F#4,156.0,723/200,100,112.01
2494,D4,156.0,723/200,100,112.01
2495,B3,156.0,723/200,100,112.01
2496,G3,156.0,723/200,100,112.01
2497,A4,156.0,3.75,122,112.01
2498,F#4,156.0,3.75,122,112.01
2499,E4,156.25,0.156,110,112.01
2500,G#2,156.25,0.094,100,112.01
2501,D4,156.5,0.156,110,112.01
2502,G#2,156.5,23/200,100,112.01
2503,D4,156.75,0.156,110,112.01
2504,E4,157.0,0.25,110,112.01
2505,C2,157.0,0.125,100,112.01
2506,G#2,157.0,0.125,100,112.01
2507,D4,157.5,0.156,110,112.01
2508,C2,157.5,27/200,100,112.01
2509,G#2,157.5,27/200,100,112.01
2510,D4,157.75,0.156,110,112.01
2511,G2,158.0,173/200,100,112.01
2512,G1,158.0,823/1000,115,112.01
2513,E4,158.0,0.25,110,112.01
2514,C2,158.0,167/1000,100,112.01
2515,G#2,158.0,167/1000,100,112.01
2516,G#3,158.0,167/1000,100,112.01
2517,D4,158.5,0.156,110,112.01
2518,G#2,158.5,27/200,100,112.01
2519,D4,158.75,0.156,110,112.01
2520,E3,159.0,123/200,100,112.01
2521,E2,159.0,573/1000,115,112.01
2522,E4,159.0,0.25,110,112.01
2523,D2,159.0,73/500,100,112.01
2524,G#2,159.0,73/500,100,112.01
2525,D4,159.5,0.156,110,112.01
2526,G#2,159.5,23/200,100,112.01
2527,D2,159.75,0.25,115,112.01
2528,E4,159.75,0.25,110,112.01
2529,D3,159.75,0.25,100,112.01
2530,A3,159.75,0.25,100,112.01
2531,E4,159.75,0.25,100,112.01
2532,G4,159.75,0.25,100,112.01
2533,C4,159.75,0.25,100,112.01
2534,B4,159.75,0.25,122,112.01
2535,G4,159.75,0.25,122,112.01
2536,C2,159.75,0.156,100,112.01
2537,B-2,159.75,0.156,100,112.01
2538,D2,160.0,87/50,115,112.01
2539,D5,160.0,3.0,122,112.01
2540,D3,160.0,1.75,100,112.01
2541,A3,160.0,1.75,100,112.01
2542,E4,160.0,1.75,100,112.01
2543,G4,160.0,1.75,100,112.01
2544,C4,160.0,1.75,100,112.01
2545,B4,160.0,3.0,122,112.01
2546,G4,160.0,3.0,122,112.01
2547,G#2,160.0,13/125,100,112.01
2548,G#3,160.0,13/125,100,112.01
2549,E4,160.25,0.156,110,112.01
2550,G#2,160.25,0.094,100,112.01
2551,D4,160.5,0.156,110,112.01
2552,G#2,160.5,83/1000,100,112.01
2553,D4,160.75,0.156,110,112.01
2554,E4,161.0,0.25,110,112.01
2555,C2,161.0,27/200,100,112.01
2556,G#2,161.0,27/200,100,112.01
2557,D4,161.5,0.25,110,112.01
2558,C2,161.5,23/200,100,112.01
2559,G#2,161.5,23/200,100,112.01
2560,C#2,162.0,149/100,115,112.01
2561,C#2,162.0,1.5,100,112.01
2562,E4,162.0,1.5,100,112.01
2563,B3,162.0,1.5,100,112.01
2564,G#3,162.0,1.5,100,112.01
2565,F3,162.0,1.5,100,112.01
2566,G#3,162.0,1.25,90,112.01
2567,B3,162.0,1.25,90,112.01
2568,E4,162.0,1.25,90,112.01
2569,C2,162.0,27/200,100,112.01
2570,G#2,162.0,27/200,100,112.01
2571,G#3,162.0,27/200,100,112.01
2572,G#2,162.5,27/200,100,112.01
2573,D2,163.0,0.188,100,112.01
2574,G#2,163.0,21/500,100,112.01
2575,D2,163.25,83/1000,100,112.01
2576,F2,163.5,13/125,100,112.01
2577,G#2,163.5,13/125,100,112.01
2578,C2,163.75,6/25,115,112.01
2579,C2,163.75,0.25,100,112.01
2580,D4,163.75,0.25,100,112.01
2581,B-3,163.75,0.25,100,112.01
2582,G3,163.75,0.25,100,112.01
2583,E3,163.75,0.25,100,112.01
2584,B-3,163.75,0.25,90,112.01
2585,D4,163.75,0.25,90,112.01
2586,G3,163.75,0.25,90,112.01
2587,C5,163.75,0.25,122,112.01
2588,B-4,163.75,0.25,122,112.01
2589,E5,163.75,0.25,122,112.01
2590,C#3,163.75,0.125,100,112.01
2591,C2,163.75,0.125,100,112.01
2592,B-2,163.75,0.125,100,112.01
2593,G#2,164.0,73/500,100,112.01
2594,G#3,164.0,73/500,100,112.01
2595,C3,164.25,0.438,115,112.01
2596,G#2,164.25,83/1000,100,112.01
2597,G4,164.25,0.5,122,112.01
2598,B-4,164.25,0.5,122,112.01
2599,D5,164.25,0.5,122,112.01
2600,G#2,164.5,27/200,100,112.01
2601,C2,165.0,6/25,115,112.01
2602,B-3,165.0,0.25,100,112.01
2603,G3,165.0,0.25,100,112.01
2604,D4,165.0,0.25,100,112.01
2605,E3,165.0,0.25,100,112.01
2606,C2,165.0,0.25,100,112.01
2607,B-3,165.0,0.25,90,112.01
2608,D4,165.0,0.25,90,112.01
2609,G3,165.0,0.25,90,112.01
2610,G4,165.0,0.25,122,112.01
2611,E4,165.0,0.25,122,112.01
2612,B-4,165.0,0.25,122,112.01
2613,C2,165.0,27/200,100,112.01
2614,G#2,165.0,27/200,100,112.01
2615,C2,165.5,6/25,115,112.01
2616,E3,165.5,0.25,100,112.01
2617,B-3,165.5,0.25,100,112.01
2618,D4,165.5,0.25,100,112.01
2619,G3,165.5,0.25,100,112.01
2620,C2,165.5,0.25,100,112.01
2621,B-3,165.5,0.25,90,112.01
2622,D4,165.5,0.25,90,112.01
2623,G3,165.5,0.25,90,112.01
2624,D4,165.5,0.25,122,112.01
2625,E4,165.5,0.25,122,112.01
2626,A4,165.5,0.25,122,112.01
2627,C2,165.5,0.125,100,112.01
2628,G#2,165.5,0.125,100,112.01
2629,B1,166.0,99/125,115,112.01
2630,E-4,166.0,0.75,100,112.01
2631,G4,166.0,0.75,100,112.01
2632,A3,166.0,0.75,100,112.01
2633,C4,166.0,0.75,100,112.01
2634,B1,166.0,0.75,100,112.01
2635,E-4,166.0,0.75,90,112.01
2636,G4,166.0,0.75,90,112.01
2637,C4,166.0,0.75,90,112.01
2638,B3,166.0,0.75,122,112.01
2639,D4,166.0,0.75,122,112.01
2640,G4,166.0,0.75,122,112.01
2641,C2,166.0,0.156,100,112.01
2642,G#3,166.0,0.156,100,112.01
2643,G#2,166.0,0.156,100,112.01
2644,G#3,166.0,0.156,100,112.01
2645,G#2,166.5,0.125,100,112.01
2646,A2,167.0,0.219,115,112.01
2647,E-4,167.0,49/100,100,112.01
2648,C4,167.0,49/100,100,112.01
2649,G4,167.0,49/100,100,112.01
2650,A3,167.0,49/100,100,112.01
2651,B1,167.0,49/100,100,112.01
2652,E-4,167.0,0.5,90,112.01
2653,G4,167.0,0.5,90,112.01
2654,C4,167.0,0.5,90,112.01
2655,D4,167.0,0.5,122,112.01
2656,F#4,167.0,0.5,122,112.01
2657,A4,167.0,0.5,122,112.01
2658,D2,167.0,27/200,100,112.01
2659,G#2,167.0,27/200,100,112.01
2660,B2,167.25,99/250,115,112.01
2661,G#2,167.5,0.125,100,112.01
2662,E1,167.75,0.25,115,112.01
2663,F#4,167.75,0.25,100,112.01
2664,D4,167.75,0.25,100,112.01
2665,B3,167.75,0.25,100,112.01
2666,G3,167.75,0.25,100,112.01
2667,E2,167.75,0.25,100,112.01
2668,B3,167.75,0.25,90,112.01
2669,D4,167.75,0.25,90,112.01
2670,F#4,167.75,0.25,90,112.01
2671,G4,167.75,0.25,122,112.01
2672,F#4,167.75,0.25,122,112.01
2673,B4,167.75,0.25,122,112.01
2674,C2,167.75,73/500,100,112.01
2675,B-2,167.75,73/500,100,112.01
2676,E1,168.0,13/250,115,112.01
2677,G#2,168.0,21/500,100,112.01
2678,G#3,168.0,27/200,100,112.01
2679,E3,168.25,177/250,115,112.01
2680,G#2,168.25,0.094,100,112.01
2681,D5,168.25,0.156,125,112.01
2682,B4,168.25,0.156,125,112.01
2683,F#5,168.25,0.156,125,112.01
2684,G#2,168.5,13/125,100,112.01
2685,D5,168.5,0.156,125,112.01
2686,F#5,168.5,0.156,125,112.01
2687,B4,168.5,0.156,125,112.01
2688,F#5,168.75,0.156,125,112.01
2689,D5,168.75,0.156,125,112.01
2690,B4,168.75,0.156,125,112.01
2691,E2,169.0,6/25,115,112.01
2692,F#4,169.0,0.25,100,112.01
2693,B3,169.0,0.25,100,112.01
2694,D4,169.0,0.25,100,112.01
2695,G3,169.0,0.25,100,112.01
2696,E2,169.0,0.25,100,112.01
2697,B3,169.0,0.25,90,112.01
2698,F#4,169.0,0.25,90,112.01
2699,D4,169.0,0.25,90,112.01
2700,D5,169.0,0.156,125,112.01
2701,F#5,169.0,0.156,125,112.01
2702,B4,169.0,0.156,125,112.01
2703,C2,169.0,23/200,100,112.01
2704,G#2,169.0,23/200,100,112.01
2705,G5,169.25,0.156,125,112.01
2706,B4,169.25,0.156,125,112.01
2707,E5,169.25,0.156,125,112.01
2708,D2,169.5,0.219,115,112.01
2709,B3,169.5,0.25,100,112.01
2710,G3,169.5,0.25,100,112.01
2711,F#4,169.5,0.25,100,112.01
2712,D4,169.5,0.25,100,112.01
2713,E2,169.5,0.25,100,112.01
2714,F#4,169.5,0.25,90,112.01
2715,D4,169.5,0.25,90,112.01
2716,B3,169.5,0.25,90,112.01
2717,C2,169.5,23/200,100,112.01
2718,G#2,169.5,23/200,100,112.01
2719,C#2,170.0,427/1000,115,112.01
2720,G#3,170.0,0.75,100,112.01
2721,E4,170.0,0.75,100,112.01
2722,B3,170.0,0.75,100,112.01
2723,F3,170.0,0.75,100,112.01
2724,C#2,170.0,0.75,100,112.01
2725,B3,170.0,0.75,90,112.01
2726,G#3,170.0,0.75,90,112.01
2727,E4,170.0,0.75,90,112.01
2728,C2,170.0,73/500,100,112.01
2729,G#3,170.0,73/500,100,112.01
2730,G#2,170.0,73/500,100,112.01
2731,G#3,170.0,73/500,100,112.01
2732,C#3,170.5,0.344,115,112.01
2733,G#2,170.5,0.125,100,112.01
2734,C#2,171.0,49/100,115,112.01
2735,D5,171.0,0.25,120,112.01
2736,E4,171.0,0.5,100,112.01
2737,B3,171.0,0.5,100,112.01
2738,G#3,171.0,0.5,100,112.01
2739,F3,171.0,0.5,100,112.01
2740,C#2,171.0,0.5,100,112.01
2741,E4,171.0,0.5,90,112.01
2742,B3,171.0,0.5,90,112.01
2743,G#3,171.0,0.5,90,112.01
2744,D2,171.0,13/125,100,112.01
2745,G#2,171.0,13/125,100,112.01
2746,E5,171.25,0.25,120,112.01
2747,G#2,171.5,23/200,100,112.01
2748,C2,171.75,0.25,115,112.01
2749,G5,171.75,0.25,120,112.01
2750,D4,171.75,0.25,100,112.01
2751,B-3,171.75,0.25,100,112.01
2752,E3,171.75,0.25,100,112.01
2753,G3,171.75,0.25,100,112.01
2754,C2,171.75,0.25,100,112.01
2755,B-3,171.75,0.25,90,112.01
2756,D4,171.75,0.25,90,112.01
2757,G3,171.75,0.25,90,112.01
2758,C2,171.75,0.156,100,112.01
2759,B-2,171.75,0.156,100,112.01
2760,C2,172.0,99/500,115,112.01
2761,G#2,172.0,21/500,100,112.01
2762,G#3,172.0,73/500,100,112.01
2763,C3,172.25,0.469,115,112.01
2764,E5,172.25,1.25,120,112.01
2765,G#2,172.25,83/1000,100,112.01
2766,G#2,172.5,23/200,100,112.01
2767,C2,173.0,0.219,115,112.01
2768,B-3,173.0,0.25,100,112.01
2769,G3,173.0,0.25,100,112.01
2770,D4,173.0,0.25,100,112.01
2771,E3,173.0,0.25,100,112.01
2772,C2,173.0,0.25,100,112.01
2773,B-3,173.0,0.25,90,112.01
2774,D4,173.0,0.25,90,112.01
2775,G3,173.0,0.25,90,112.01
2776,C2,173.0,13/125,100,112.01
2777,G#2,173.0,13/125,100,112.01
2778,C2,173.5,26/125,115,112.01
2779,E3,173.5,0.25,100,112.01
2780,B-3,173.5,0.25,100,112.01
2781,G3,173.5,0.25,100,112.01
2782,D4,173.5,0.25,100,112.01
2783,C2,173.5,0.25,100,112.01
2784,B-3,173.5,0.25,90,112.01
2785,G3,173.5,0.25,90,112.01
2786,D4,173.5,0.25,90,112.01
2787,C2,173.5,23/200,100,112.01
2788,G#2,173.5,23/200,100,112.01
2789,B1,174.0,0.719,115,112.01
2790,B-4,174.0,0.25,120,112.01
2791,E-4,174.0,0.75,100,112.01
2792,C4,174.0,0.75,100,112.01
2793,G4,174.0,0.75,100,112.01
2794,A3,174.0,0.75,100,112.01
2795,B1,174.0,0.75,100,112.01
2796,G4,174.0,0.75,90,112.01
2797,E-4,174.0,0.75,90,112.01
2798,C4,174.0,0.75,90,112.01
2799,C2,174.0,73/500,100,112.01
2800,G#2,174.0,73/500,100,112.01
2801,G#3,174.0,73/500,100,112.01
2802,A4,174.25,0.25,120,112.01
2803,G4,174.5,0.25,120,112.01
2804,G#2,174.5,0.125,100,112.01
2805,B1,175.0,49/100,115,112.01
2806,A4,175.0,0.25,120,112.01
2807,E-4,175.0,0.5,100,112.01
2808,C4,175.0,0.5,100,112.01
2809,G4,175.0,0.5,100,112.01
2810,A3,175.0,0.5,100,112.01
2811,B1,175.0,0.5,100,112.01
2812,E-4,175.0,0.5,90,112.01
2813,G4,175.0,0.5,90,112.01
2814,C4,175.0,0.5,90,112.01
2815,D2,175.0,23/200,100,112.01
2816,G#2,175.0,23/200,100,112.01
2817,E4,175.25,0.25,120,112.01
2818,G4,175.5,0.25,120,112.01
2819,G#2,175.5,13/125,100,112.01
2820,E1,175.75,0.25,115,112.01
2821,B3,175.75,0.25,100,112.01
2822,F#4,175.75,0.25,100,112.01
2823,D4,175.75,0.25,100,112.01
2824,G3,175.75,0.25,100,112.01
2825,E2,175.75,0.25,100,112.01
2826,B3,175.75,0.25,90,112.01
2827,D4,175.75,0.25,90,112.01
2828,F#4,175.75,0.25,90,112.01
2829,C2,175.75,27/200,100,112.01
2830,B-2,175.75,27/200,100,112.01
2831,E1,176.0,271/500,115,112.01
2832,B-4,176.0,0.25,120,112.01
2833,G#2,176.0,83/1000,100,112.01
2834,G#3,176.0,167/1000,100,112.01
2835,B3,176.0,173/200,100,112.01
2836,F#4,176.0,173/200,100,112.01
2837,D4,176.0,173/200,100,112.01
2838,G3,176.0,173/200,100,112.01
2839,E2,176.0,173/200,100,112.01
2840,B3,176.0,0.75,90,112.01
2841,D4,176.0,0.75,90,112.01
2842,F#4,176.0,0.75,90,112.01
2843,G#2,176.25,21/500,100,112.01
2844,E3,176.5,271/1000,115,112.01
2845,A4,176.5,1.5,120,112.01
2846,G#2,176.5,23/200,100,112.01
2847,E-2,177.0,49/100,115,112.01
2848,F4,177.0,173/200,100,112.01
2849,F#3,177.0,173/200,100,112.01
2850,C#4,177.0,173/200,100,112.01
2851,B-3,177.0,173/200,100,112.01
2852,E-2,177.0,173/200,100,112.01
2853,F4,177.0,0.75,90,112.01
2854,C#4,177.0,0.75,90,112.01
2855,B-3,177.0,0.75,90,112.01
2856,C2,177.0,23/200,100,112.01
2857,G#2,177.0,23/200,100,112.01
2858,E-3,177.5,77/200,115,112.01
2859,G#2,177.5,27/200,100,112.01
2860,D2,178.0,0.469,115,112.01
2861,C4,178.0,173/200,100,112.01
2862,A3,178.0,173/200,100,112.01
2863,E4,178.0,173/200,100,112.01
2864,F3,178.0,173/200,100,112.01
2865,D2,178.0,173/200,100,112.01
2866,E4,178.0,0.75,90,112.01
2867,C4,178.0,0.75,90,112.01
2868,A3,178.0,0.75,90,112.01
2869,C2,178.0,167/1000,100,112.01
2870,G#3,178.0,167/1000,100,112.01
2871,G#2,178.0,167/1000,100,112.01
2872,G#3,178.0,167/1000,100,112.01
2873,D3,178.5,151/500,115,112.01
2874,G#2,178.5,0.125,100,112.01
2875,C#2,179.0,427/1000,115,112.01
2876,E4,179.0,123/200,100,112.01
2877,G#3,179.0,123/200,100,112.01
2878,B3,179.0,123/200,100,112.01
2879,F3,179.0,123/200,100,112.01
2880,C#2,179.0,123/200,100,112.01
2881,G#3,179.0,0.5,90,112.01
2882,B3,179.0,0.5,90,112.01
2883,E4,179.0,0.5,90,112.01
2884,D2,179.0,73/500,100,112.01
2885,G#2,179.0,73/500,100,112.01
2886,C#3,179.5,229/1000,115,112.01
2887,G#2,179.5,27/200,100,112.01
2888,C2,179.75,0.25,115,112.01
2889,D4,179.75,0.25,100,112.01
2890,B-3,179.75,0.25,100,112.01
2891,E3,179.75,0.25,100,112.01
2892,G3,179.75,0.25,100,112.01
2893,C2,179.75,0.25,100,112.01
2894,B-3,179.75,0.25,90,112.01
2895,D4,179.75,0.25,90,112.01
2896,G3,179.75,0.25,90,112.01
2897,B-4,179.75,0.25,122,112.01
2898,C5,179.75,0.25,122,112.01
2899,E5,179.75,0.25,122,112.01
2900,C2,179.75,0.156,100,112.01
2901,B-2,179.75,0.156,100,112.01
2902,C2,180.0,0.156,115,112.01
2903,G#2,180.0,0.156,100,112.01
2904,G#3,180.0,0.156,100,112.01
2905,C3,180.25,0.438,115,112.01
2906,G#2,180.25,13/125,100,112.01
2907,G4,180.25,0.5,122,112.01
2908,B-4,180.25,0.5,122,112.01
2909,D5,180.25,0.5,122,112.01
2910,G#2,180.5,73/500,100,112.01
2911,C2,181.0,6/25,115,112.01
2912,B-3,181.0,0.25,100,112.01
2913,G3,181.0,0.25,100,112.01
2914,D4,181.0,0.25,100,112.01
2915,E3,181.0,0.25,100,112.01
2916,C2,181.0,0.25,100,112.01
2917,B-3,181.0,0.25,90,112.01
2918,D4,181.0,0.25,90,112.01
2919,G3,181.0,0.25,90,112.01
2920,E4,181.0,0.25,122,112.01
2921,G4,181.0,0.25,122,112.01
2922,B-4,181.0,0.25,122,112.01
2923,C2,181.0,73/500,100,112.01
2924,G#2,181.0,73/500,100,112.01
2925,C2,181.5,6/25,115,112.01
2926,E3,181.5,0.25,100,112.01
2927,B-3,181.5,0.25,100,112.01
2928,D4,181.5,0.25,100,112.01
2929,G3,181.5,0.25,100,112.01
2930,C2,181.5,0.25,100,112.01
2931,B-3,181.5,0.25,90,112.01
2932,G3,181.5,0.25,90,112.01
2933,D4,181.5,0.25,90,112.01
2934,D4,181.5,0.25,122,112.01
2935,E4,181.5,0.25,122,112.01
2936,A4,181.5,0.25,122,112.01
2937,C2,181.5,73/500,100,112.01
2938,G#2,181.5,73/500,100,112.01
2939,B1,182.0,99/125,115,112.01
2940,E-4,182.0,0.75,100,112.01
2941,G4,182.0,0.75,100,112.01
2942,A3,182.0,0.75,100,112.01
2943,C4,182.0,0.75,100,112.01
2944,B1,182.0,0.75,100,112.01
2945,G4,182.0,0.75,90,112.01
2946,E-4,182.0,0.75,90,112.01
2947,C4,182.0,0.75,90,112.01
2948,B3,182.0,0.75,122,112.01
2949,D4,182.0,0.75,122,112.01
2950,G4,182.0,0.75,122,112.01
2951,C2,182.0,27/200,100,112.01
2952,G#2,182.0,27/200,100,112.01
2953,G#3,182.0,27/200,100,112.01
2954,G#2,182.5,73/500,100,112.01
2955,A2,183.0,0.219,115,112.01
2956,E-4,183.0,49/100,100,112.01
2957,C4,183.0,49/100,100,112.01
2958,G4,183.0,49/100,100,112.01
2959,A3,183.0,49/100,100,112.01
2960,B1,183.0,49/100,100,112.01
2961,E-4,183.0,0.5,90,112.01
2962,G4,183.0,0.5,90,112.01
2963,C4,183.0,0.5,90,112.01
2964,D4,183.0,0.5,122,112.01
2965,F#4,183.0,0.5,122,112.01
2966,A4,183.0,0.5,122,112.01
2967,D2,183.0,27/200,100,112.01
2968,G#2,183.0,27/200,100,112.01
2969,B2,183.25,99/250,115,112.01
2970,G#2,183.5,23/200,100,112.01
2971,E1,183.75,0.25,115,112.01
2972,F#4,183.75,0.25,100,112.01
2973,D4,183.75,0.25,100,112.01
2974,B3,183.75,0.25,100,112.01
2975,G3,183.75,0.25,100,112.01
2976,E2,183.75,0.25,100,112.01
2977,F#4,183.75,0.25,90,112.01
2978,D4,183.75,0.25,90,112.01
2979,B3,183.75,0.25,90,112.01
2980,F#4,183.75,0.25,122,112.01
2981,G4,183.75,0.25,122,112.01
2982,B4,183.75,0.25,122,112.01
2983,C2,183.75,73/500,100,112.01
2984,B-2,183.75,73/500,100,112.01
2985,E1,184.0,13/250,115,112.01
2986,G#2,184.0,0.125,100,112.01
2987,G#3,184.0,0.125,100,112.01
2988,E3,184.25,177/250,115,112.01
2989,G#2,184.25,13/125,100,112.01
2990,B4,184.25,0.156,125,112.01
2991,F#5,184.25,0.156,125,112.01
2992,D5,184.25,0.156,125,112.01
2993,G#2,184.5,23/200,100,112.01
2994,F#5,184.5,0.156,125,112.01
2995,D5,184.5,0.156,125,112.01
2996,B4,184.5,0.156,125,112.01
2997,D5,184.75,0.156,125,112.01
2998,B4,184.75,0.156,125,112.01
2999,F#5,184.75,0.156,125,112.01
3000,E2,185.0,6/25,115,112.01
3001,F#4,185.0,0.25,100,112.01
3002,B3,185.0,0.25,100,112.01
3003,D4,185.0,0.25,100,112.01
3004,G3,185.0,0.25,100,112.01
3005,E2,185.0,0.25,100,112.01
3006,B3,185.0,0.25,90,112.01
3007,F#4,185.0,0.25,90,112.01
3008,D4,185.0,0.25,90,112.01
3009,D5,185.0,0.156,125,112.01
3010,B4,185.0,0.156,125,112.01
3011,F#5,185.0,0.156,125,112.01
3012,C2,185.0,0.125,100,112.01
3013,G#2,185.0,0.125,100,112.01
3014,E5,185.25,0.156,125,112.01
3015,B4,185.25,0.156,125,112.01
3016,G5,185.25,0.156,125,112.01
3017,D2,185.5,0.219,115,112.01
3018,B3,185.5,0.25,100,112.01
3019,G3,185.5,0.25,100,112.01
3020,F#4,185.5,0.25,100,112.01
3021,D4,185.5,0.25,100,112.01
3022,E2,185.5,0.25,100,112.01
3023,F#4,185.5,0.25,90,112.01
3024,B3,185.5,0.25,90,112.01
3025,D4,185.5,0.25,90,112.01
3026,C2,185.5,23/200,100,112.01
3027,G#2,185.5,23/200,100,112.01
3028,C#2,186.0,427/1000,115,112.01
3029,G#3,186.0,0.75,100,112.01
3030,E4,186.0,0.75,100,112.01
3031,B3,186.0,0.75,100,112.01
3032,F3,186.0,0.75,100,112.01
3033,C#2,186.0,0.75,100,112.01
3034,E4,186.0,0.75,90,112.01
3035,G#3,186.0,0.75,90,112.01
3036,B3,186.0,0.75,90,112.01
3037,C2,186.0,73/500,100,112.01
3038,G#2,186.0,73/500,100,112.01
3039,G#3,186.0,73/500,100,112.01
3040,C#3,186.5,0.344,115,112.01
3041,G#2,186.5,73/500,100,112.01
3042,C#2,187.0,49/100,115,112.01
3043,B-4,187.0,0.25,120,112.01
3044,E4,187.0,0.5,100,112.01
3045,B3,187.0,0.5,100,112.01
3046,G#3,187.0,0.5,100,112.01
3047,F3,187.0,0.5,100,112.01
3048,C#2,187.0,0.5,100,112.01
3049,E4,187.0,0.5,90,112.01
3050,B3,187.0,0.5,90,112.01
3051,G#3,187.0,0.5,90,112.01
3052,D2,187.0,73/500,100,112.01
3053,G#2,187.0,73/500,100,112.01
3054,B4,187.25,0.25,120,112.01
3055,G#2,187.5,0.125,100,112.01
3056,C2,187.75,0.25,115,112.01
3057,E5,187.75,0.25,120,112.01
3058,D4,187.75,0.25,100,112.01
3059,B-3,187.75,0.25,100,112.01
3060,E3,187.75,0.25,100,112.01
3061,G3,187.75,0.25,100,112.01
3062,C2,187.75,0.25,100,112.01
3063,B-3,187.75,0.25,90,112.01
3064,D4,187.75,0.25,90,112.01
3065,G3,187.75,0.25,90,112.01
3066,C2,187.75,27/200,100,112.01
3067,B-2,187.75,27/200,100,112.01
3068,C2,188.0,99/500,115,112.01
3069,E5,188.0,0.25,120,112.01
3070,G#2,188.0,13/250,100,112.01
3071,G#3,188.0,73/500,100,112.01
3072,C3,188.25,0.469,115,112.01
3073,G#2,188.25,0.094,100,112.01
3074,G#2,188.5,0.125,100,112.01
3075,C2,189.0,0.219,115,112.01
3076,B-4,189.0,0.25,120,112.01
3077,B-3,189.0,0.25,100,112.01
3078,G3,189.0,0.25,100,112.01
3079,D4,189.0,0.25,100,112.01
3080,E3,189.0,0.25,100,112.01
3081,C2,189.0,0.25,100,112.01
3082,B-3,189.0,0.25,90,112.01
3083,D4,189.0,0.25,90,112.01
3084,G3,189.0,0.25,90,112.01
3085,C2,189.0,0.125,100,112.01
3086,G#2,189.0,0.125,100,112.01
3087,C2,189.5,26/125,115,112.01
3088,A4,189.5,0.25,120,112.01
3089,E3,189.5,0.25,100,112.01
3090,B-3,189.5,0.25,100,112.01
3091,G3,189.5,0.25,100,112.01
3092,D4,189.5,0.25,100,112.01
3093,C2,189.5,0.25,100,112.01
3094,B-3,189.5,0.25,90,112.01
3095,G3,189.5,0.25,90,112.01
3096,D4,189.5,0.25,90,112.01
3097,C2,189.5,27/200,100,112.01
3098,G#2,189.5,27/200,100,112.01
3099,B1,190.0,0.719,115,112.01
3100,G4,190.0,0.25,120,112.01
3101,E-4,190.0,0.75,100,112.01
3102,C4,190.0,0.75,100,112.01
3103,G4,190.0,0.75,100,112.01
3104,A3,190.0,0.75,100,112.01
3105,B1,190.0,0.75,100,112.01
3106,G4,190.0,37/50,90,112.01
3107,E-4,190.0,37/50,90,112.01
3108,C4,190.0,37/50,90,112.01
3109,C2,190.0,167/1000,100,112.01
3110,G#2,190.0,167/1000,100,112.01
3111,G#3,190.0,167/1000,100,112.01
3112,A4,190.5,0.25,120,112.01
3113,G#2,190.5,27/200,100,112.01
3114,B4,190.75,0.25,120,112.01
3115,B1,191.0,49/100,115,112.01
3116,E-4,191.0,0.5,100,112.01
3117,C4,191.0,0.5,100,112.01
3118,G4,191.0,0.5,100,112.01
3119,A3,191.0,0.5,100,112.01
3120,B1,191.0,0.5,100,112.01
3121,E-4,191.0,0.5,90,112.01
3122,G4,191.0,0.5,90,112.01
3123,C4,191.0,0.5,90,112.01
3124,D2,191.0,0.125,100,112.01
3125,G#2,191.0,0.125,100,112.01
3126,G4,191.25,0.25,120,112.01
3127,G#2,191.5,0.094,100,112.01
3128,E1,191.75,0.25,115,112.01
3129,E4,191.75,0.25,120,112.01
3130,B3,191.75,0.25,100,112.01
3131,F#4,191.75,0.25,100,112.01
3132,D4,191.75,0.25,100,112.01
3133,G3,191.75,0.25,100,112.01
3134,E2,191.75,0.25,100,112.01
3135,F#4,191.75,0.25,90,112.01
3136,D4,191.75,0.25,90,112.01
3137,B3,191.75,0.25,90,112.01
3138,C2,191.75,27/200,100,112.01
3139,B-2,191.75,27/200,100,112.01
3140,E1,192.0,271/500,115,112.01
3141,E4,192.0,0.75,120,112.01
3142,G#2,192.0,0.094,100,112.01
3143,G#3,192.0,167/1000,100,112.01
3144,B3,192.0,173/200,100,112.01
3145,F#4,192.0,173/200,100,112.01
3146,D4,192.0,173/200,100,112.01
3147,G3,192.0,173/200,100,112.01
3148,E2,192.0,173/200,100,112.01
3149,F#4,192.0,0.75,90,112.01
3150,D4,192.0,0.75,90,112.01
3151,B3,192.0,0.75,90,112.01
3152,G#2,192.25,13/125,100,112.01
3153,E3,192.5,271/1000,115,112.01
3154,G#2,192.5,27/200,100,112.01
3155,E-2,193.0,49/100,115,112.01
3156,G4,193.0,0.25,120,112.01
3157,F4,193.0,173/200,100,112.01
3158,F#3,193.0,173/200,100,112.01
3159,C#4,193.0,173/200,100,112.01
3160,B-3,193.0,173/200,100,112.01
3161,E-2,193.0,173/200,100,112.01
3162,F4,193.0,0.75,90,112.01
3163,C#4,193.0,0.75,90,112.01
3164,B-3,193.0,0.75,90,112.01
3165,C2,193.0,27/200,100,112.01
3166,G#2,193.0,27/200,100,112.01
3167,E-3,193.5,77/200,115,112.01
3168,G#2,193.5,23/200,100,112.01
3169,D2,194.0,0.469,115,112.01
3170,C4,194.0,173/200,100,112.01
3171,A3,194.0,173/200,100,112.01
3172,E4,194.0,173/200,100,112.01
3173,F3,194.0,173/200,100,112.01
3174,D2,194.0,173/200,100,112.01
3175,E4,194.0,0.75,90,112.01
3176,C4,194.0,0.75,90,112.01
3177,A3,194.0,0.75,90,112.01
3178,C2,194.0,177/1000,100,112.01
3179,G#2,194.0,177/1000,100,112.01
3180,G#3,194.0,177/1000,100,112.01
3181,D3,194.5,151/500,115,112.01
3182,G#2,194.5,27/200,100,112.01
3183,C#2,195.0,427/1000,115,112.01
3184,E4,195.0,123/200,100,112.01
3185,G#3,195.0,123/200,100,112.01
3186,B3,195.0,123/200,100,112.01
3187,F3,195.0,123/200,100,112.01
3188,C#2,195.0,123/200,100,112.01
3189,E4,195.0,0.5,90,112.01
3190,B3,195.0,0.5,90,112.01
3191,G#3,195.0,0.5,90,112.01
3192,D2,195.0,27/200,100,112.01
3193,G#2,195.0,27/200,100,112.01
3194,C#3,195.5,229/1000,115,112.01
3195,G#2,195.5,23/200,100,112.01
3196,C2,195.75,0.25,115,112.01
3197,D4,195.75,0.25,100,112.01
3198,B-3,195.75,0.25,100,112.01
3199,E3,195.75,0.25,100,112.01
3200,G3,195.75,0.25,100,112.01
3201,C2,195.75,0.25,100,112.01
3202,D4,195.75,0.25,90,112.01
3203,B-3,195.75,0.25,90,112.01
3204,G3,195.75,0.25,90,112.01
3205,B-4,195.75,0.25,122,112.01
3206,C5,195.75,0.25,122,112.01
3207,E5,195.75,0.25,122,112.01
3208,C2,195.75,73/500,100,112.01
3209,B-2,195.75,73/500,100,112.01
3210,C2,196.0,0.156,115,112.01
3211,G#2,196.0,73/500,100,112.01
3212,G#3,196.0,73/500,100,112.01
3213,C3,196.25,0.438,115,112.01
3214,G#2,196.25,13/125,100,112.01
3215,G4,196.25,0.5,122,112.01
3216,B-4,196.25,0.5,122,112.01
3217,D5,196.25,0.5,122,112.01
3218,G#2,196.5,0.125,100,112.01
3219,C2,197.0,6/25,115,112.01
3220,B-3,197.0,0.25,100,112.01
3221,G3,197.0,0.25,100,112.01
3222,D4,197.0,0.25,100,112.01
3223,E3,197.0,0.25,100,112.01
3224,C2,197.0,0.25,100,112.01
3225,B-3,197.0,0.25,90,112.01
3226,D4,197.0,0.25,90,112.01
3227,G3,197.0,0.25,90,112.01
3228,E4,197.0,0.25,122,112.01
3229,G4,197.0,0.25,122,112.01
3230,B-4,197.0,0.25,122,112.01
3231,C2,197.0,23/200,100,112.01
3232,G#2,197.0,23/200,100,112.01
3233,C2,197.5,6/25,115,112.01
3234,E3,197.5,0.25,100,112.01
3235,B-3,197.5,0.25,100,112.01
3236,D4,197.5,0.25,100,112.01
3237,G3,197.5,0.25,100,112.01
3238,C2,197.5,0.25,100,112.01
3239,B-3,197.5,0.25,90,112.01
3240,G3,197.5,0.25,90,112.01
3241,D4,197.5,0.25,90,112.01
3242,D4,197.5,0.25,122,112.01
3243,E4,197.5,0.25,122,112.01
3244,A4,197.5,0.25,122,112.01
3245,C2,197.5,23/200,100,112.01
3246,G#2,197.5,23/200,100,112.01
3247,B1,198.0,99/125,115,112.01
3248,E-4,198.0,0.75,100,112.01
3249,G4,198.0,0.75,100,112.01
3250,A3,198.0,0.75,100,112.01
3251,C4,198.0,0.75,100,112.01
3252,B1,198.0,0.75,100,112.01
3253,E-4,198.0,0.75,90,112.01
3254,G4,198.0,0.75,90,112.01
3255,C4,198.0,0.75,90,112.01
3256,B3,198.0,0.75,122,112.01
3257,D4,198.0,0.75,122,112.01
3258,G4,198.0,0.75,122,112.01
3259,C2,198.0,167/1000,100,112.01
3260,G#2,198.0,167/1000,100,112.01
3261,G#3,198.0,167/1000,100,112.01
3262,G#2,198.5,23/200,100,112.01
3263,A2,199.0,0.219,115,112.01
3264,E-4,199.0,49/100,100,112.01
3265,C4,199.0,49/100,100,112.01
3266,G4,199.0,49/100,100,112.01
3267,A3,199.0,49/100,100,112.01
3268,B1,199.0,49/100,100,112.01
3269,E-4,199.0,0.5,90,112.01
3270,G4,199.0,0.5,90,112.01
3271,C4,199.0,0.5,90,112.01
3272,D4,199.0,0.5,122,112.01
3273,F#4,199.0,0.5,122,112.01
3274,A4,199.0,0.5,122,112.01
3275,D2,199.0,0.125,100,112.01
3276,G#2,199.0,0.125,100,112.01
3277,B2,199.25,99/250,115,112.01
3278,G#2,199.5,13/125,100,112.01
3279,E1,199.75,0.25,115,112.01
3280,F#4,199.75,0.25,100,112.01
3281,D4,199.75,0.25,100,112.01
3282,B3,199.75,0.25,100,112.01
3283,G3,199.75,0.25,100,112.01
3284,E2,199.75,0.25,100,112.01
3285,B3,199.75,0.25,90,112.01
3286,D4,199.75,0.25,90,112.01
3287,F#4,199.75,0.25,90,112.01
3288,F#4,199.75,0.25,122,112.01
3289,G4,199.75,0.25,122,112.01
3290,B4,199.75,0.25,122,112.01
3291,C2,199.75,0.125,100,112.01
3292,B-2,199.75,0.125,100,112.01
3293,E1,200.0,13/250,115,112.01
3294,G#2,200.0,0.062,100,112.01
3295,G#3,200.0,0.156,100,112.01
3296,E3,200.25,177/250,115,112.01
3297,G#2,200.25,13/250,100,112.01
3298,F#5,200.25,0.156,125,112.01
3299,B4,200.25,0.156,125,112.01
3300,D5,200.25,0.156,125,112.01
3301,G#2,200.5,23/200,100,112.01
3302,F#5,200.5,0.156,125,112.01
3303,B4,200.5,0.156,125,112.01
3304,D5,200.5,0.156,125,112.01
3305,D5,200.75,0.156,125,112.01
3306,F#5,200.75,0.156,125,112.01
3307,B4,200.75,0.156,125,112.01
3308,E2,201.0,6/25,115,112.01
3309,F#4,201.0,0.25,100,112.01
3310,B3,201.0,0.25,100,112.01
3311,D4,201.0,0.25,100,112.01
3312,G3,201.0,0.25,100,112.01
3313,E2,201.0,0.25,100,112.01
3314,F#4,201.0,0.25,90,112.01
3315,D4,201.0,0.25,90,112.01
3316,B3,201.0,0.25,90,112.01
3317,D5,201.0,0.156,125,112.01
3318,B4,201.0,0.156,125,112.01
3319,F#5,201.0,0.156,125,112.01
3320,C2,201.0,27/200,100,112.01
3321,G#2,201.0,27/200,100,112.01
3322,G5,201.25,0.156,125,112.01
3323,B4,201.25,0.156,125,112.01
3324,E5,201.25,0.156,125,112.01
3325,D2,201.5,0.219,115,112.01
3326,B3,201.5,0.25,100,112.01
3327,G3,201.5,0.25,100,112.01
3328,F#4,201.5,0.25,100,112.01
3329,D4,201.5,0.25,100,112.01
3330,E2,201.5,0.25,100,112.01
3331,F#4,201.5,0.25,90,112.01
3332,B3,201.5,0.25,90,112.01
3333,D4,201.5,0.25,90,112.01
3334,C2,201.5,0.125,100,112.01
3335,G#2,201.5,0.125,100,112.01
3336,C#2,202.0,427/1000,115,112.01
3337,E5,202.0,823/1000,120,112.01
3338,G#3,202.0,0.75,100,112.01
3339,E4,202.0,0.75,100,112.01
3340,B3,202.0,0.75,100,112.01
3341,F3,202.0,0.75,100,112.01
3342,C#2,202.0,0.75,100,112.01
3343,B3,202.0,37/50,90,112.01
3344,E4,202.0,37/50,90,112.01
3345,G#3,202.0,37/50,90,112.01
3346,C2,202.0,73/500,100,112.01
3347,G#2,202.0,73/500,100,112.01
3348,G#3,202.0,73/500,100,112.01
3349,C#3,202.5,0.344,115,112.01
3350,G#2,202.5,23/200,100,112.01
3351,C#2,203.0,49/100,115,112.01
3352,A4,203.0,0.75,120,112.01
3353,E4,203.0,0.5,100,112.01
3354,B3,203.0,0.5,100,112.01
3355,G#3,203.0,0.5,100,112.01
3356,F3,203.0,0.5,100,112.01
3357,C#2,203.0,0.5,100,112.01
3358,E4,203.0,0.5,90,112.01
3359,G#3,203.0,0.5,90,112.01
3360,B3,203.0,0.5,90,112.01
3361,D2,203.0,23/200,100,112.01
3362,G#2,203.0,23/200,100,112.01
3363,G#2,203.5,13/125,100,112.01
3364,C2,203.75,0.25,115,112.01
3365,D4,203.75,0.25,100,112.01
3366,B-3,203.75,0.25,100,112.01
3367,E3,203.75,0.25,100,112.01
3368,G3,203.75,0.25,100,112.01
3369,C2,203.75,0.25,100,112.01
3370,B-3,203.75,0.25,90,112.01
3371,D4,203.75,0.25,90,112.01
3372,G3,203.75,0.25,90,112.01
3373,C2,203.75,27/200,100,112.01
3374,B-2,203.75,27/200,100,112.01
3375,C2,204.0,99/500,115,112.01
3376,D5,204.0,0.5,120,112.01
3377,G#2,204.0,0.156,100,112.01
3378,G#3,204.0,0.156,100,112.01
3379,C3,204.25,0.469,115,112.01
3380,G#2,204.25,0.094,100,112.01
3381,C5,204.5,0.25,120,112.01
3382,G#2,204.5,27/200,100,112.01
3383,B4,204.75,0.25,120,112.01
3384,C2,205.0,0.219,115,112.01
3385,B-4,205.0,0.5,120,112.01
3386,B-3,205.0,0.25,100,112.01
3387,G3,205.0,0.25,100,112.01
3388,D4,205.0,0.25,100,112.01
3389,E3,205.0,0.25,100,112.01
3390,C2,205.0,0.25,100,112.01
3391,B-3,205.0,0.25,90,112.01
3392,D4,205.0,0.25,90,112.01
3393,G3,205.0,0.25,90,112.01
3394,C2,205.0,23/200,100,112.01
3395,G#2,205.0,23/200,100,112.01
3396,C2,205.5,26/125,115,112.01
3397,E3,205.5,0.25,100,112.01
3398,B-3,205.5,0.25,100,112.01
3399,G3,205.5,0.25,100,112.01
3400,D4,205.5,0.25,100,112.01
3401,C2,205.5,0.25,100,112.01
3402,B-3,205.5,0.25,90,112.01
3403,D4,205.5,0.25,90,112.01
3404,G3,205.5,0.25,90,112.01
3405,C2,205.5,23/200,100,112.01
3406,G#2,205.5,23/200,100,112.01
3407,C5,205.75,0.25,120,112.01
3408,B1,206.0,0.719,115,112.01
3409,B4,206.0,0.25,120,112.01
3410,E-4,206.0,0.75,100,112.01
3411,C4,206.0,0.75,100,112.01
3412,G4,206.0,0.75,100,112.01
3413,A3,206.0,0.75,100,112.01
3414,B1,206.0,0.75,100,112.01
3415,G4,206.0,0.75,90,112.01
3416,E-4,206.0,0.75,90,112.01
3417,C4,206.0,0.75,90,112.01
3418,C2,206.0,73/500,100,112.01
3419,G#3,206.0,73/500,100,112.01
3420,G#2,206.0,73/500,100,112.01
3421,G#3,206.0,73/500,100,112.01
3422,G4,206.25,0.25,120,112.01
3423,E4,206.5,0.25,120,112.01
3424,G#2,206.5,83/1000,100,112.01
3425,B3,206.75,0.75,120,112.01
3426,B1,207.0,49/100,115,112.01
3427,E-4,207.0,0.5,100,112.01
3428,C4,207.0,0.5,100,112.01
3429,G4,207.0,0.5,100,112.01
3430,A3,207.0,0.5,100,112.01
3431,B1,207.0,0.5,100,112.01
3432,E-4,207.0,0.5,90,112.01
3433,G4,207.0,0.5,90,112.01
3434,C4,207.0,0.5,90,112.01
3435,D2,207.0,0.125,100,112.01
3436,G#2,207.0,0.125,100,112.01
3437,G#2,207.5,13/125,100,112.01
3438,E1,207.75,0.25,115,112.01
3439,E4,207.75,0.25,120,112.01
3440,B3,207.75,0.25,100,112.01
3441,F#4,207.75,0.25,100,112.01
3442,D4,207.75,0.25,100,112.01
3443,G3,207.75,0.25,100,112.01
3444,E2,207.75,0.25,100,112.01
3445,F#4,207.75,0.25,90,112.01
3446,D4,207.75,0.25,90,112.01
3447,B3,207.75,0.25,90,112.01
3448,C2,207.75,73/500,100,112.01
3449,B-2,207.75,73/500,100,112.01
3450,G#2,208.0,0.0,100,112.01
3451,E1,208.0,271/500,115,112.01
3452,E4,208.0,49/100,120,112.01
3453,B3,208.0,173/200,100,112.01
3454,F#4,208.0,173/200,100,112.01
3455,D4,208.0,173/200,100,112.01
3456,G3,208.0,173/200,100,112.01
3457,E2,208.0,173/200,100,112.01
3458,F#4,208.0,0.75,90,112.01
3459,D4,208.0,0.75,90,112.01
3460,B3,208.0,0.75,90,112.01
3461,G#2,208.0,0.094,100,112.01
3462,G#3,208.0,0.094,100,112.01
3463,G#2,208.25,13/125,100,112.01
3464,E3,208.5,271/1000,115,112.01
3465,D4,208.5,0.25,120,112.01
3466,G#2,208.5,23/200,100,112.01
3467,E4,208.75,0.25,120,112.01
3468,E-2,209.0,49/100,115,112.01
3469,G4,209.0,0.5,120,112.01
3470,F4,209.0,173/200,100,112.01
3471,F#3,209.0,173/200,100,112.01
3472,C#4,209.0,173/200,100,112.01
3473,B-3,209.0,173/200,100,112.01
3474,E-2,209.0,173/200,100,112.01
3475,F4,209.0,0.75,90,112.01
3476,C#4,209.0,0.75,90,112.01
3477,B-3,209.0,0.75,90,112.01
3478,C2,209.0,27/200,100,112.01
3479,G#2,209.0,27/200,100,112.01
3480,E-3,209.5,77/200,115,112.01
3481,F#4,209.5,0.25,120,112.01
3482,G#2,209.5,167/1000,100,112.01
3483,G4,209.75,0.25,120,112.01
3484,D2,210.0,0.469,115,112.01
3485,A4,210.0,49/100,120,112.01
3486,C4,210.0,173/200,100,112.01
3487,A3,210.0,173/200,100,112.01
3488,E4,210.0,173/200,100,112.01
3489,F3,210.0,173/200,100,112.01
3490,D2,210.0,173/200,100,112.01
3491,E4,210.0,0.75,90,112.01
3492,C4,210.0,0.75,90,112.01
3493,A3,210.0,0.75,90,112.01
3494,C2,210.0,73/500,100,112.01
3495,G#2,210.0,73/500,100,112.01
3496,G#3,210.0,73/500,100,112.01
3497,D3,210.5,151/500,115,112.01
3498,G4,210.5,0.25,120,112.01
3499,G#2,210.5,177/1000,100,112.01
3500,A4,210.75,0.25,120,112.01
3501,C#2,211.0,427/1000,115,112.01
3502,D5,211.0,0.25,120,112.01
3503,E4,211.0,123/200,100,112.01
3504,G#3,211.0,123/200,100,112.01
3505,B3,211.0,123/200,100,112.01
3506,F3,211.0,123/200,100,112.01
3507,C#2,211.0,123/200,100,112.01
3508,E4,211.0,0.5,90,112.01
3509,B3,211.0,0.5,90,112.01
3510,G#3,211.0,0.5,90,112.01
3511,D2,211.0,0.156,100,112.01
3512,G#2,211.0,0.156,100,112.01
3513,B4,211.25,0.25,120,112.01
3514,C#3,211.5,229/1000,115,112.01
3515,G#2,211.5,27/200,100,112.01
3516,E5,211.75,0.0,122,112.01
3517,C2,211.75,0.25,115,112.01
3518,D4,211.75,0.25,100,112.01
3519,B-3,211.75,0.25,100,112.01
3520,E3,211.75,0.25,100,112.01
3521,G3,211.75,0.25,100,112.01
3522,C2,211.75,0.25,100,112.01
3523,B-3,211.75,0.25,90,112.01
3524,D4,211.75,0.25,90,112.01
3525,G3,211.75,0.25,90,112.01
3526,B-4,211.75,0.25,122,112.01
3527,C5,211.75,0.25,122,112.01
3528,E5,211.75,0.25,122,112.01
3529,C2,211.75,0.156,100,112.01
3530,B-2,211.75,0.156,100,112.01
3531,C2,212.0,0.156,115,112.01
3532,G#2,212.0,27/200,100,112.01
3533,G#3,212.0,27/200,100,112.01
3534,D5,212.25,0.0,122,112.01
3535,C3,212.25,0.438,115,112.01
3536,G#2,212.25,13/125,100,112.01
3537,G4,212.25,0.5,122,112.01
3538,B-4,212.25,0.5,122,112.01
3539,D5,212.25,0.5,122,112.01
3540,G#2,212.5,0.125,100,112.01
3541,B-4,213.0,0.0,122,112.01
3542,C2,213.0,6/25,115,112.01
3543,B-3,213.0,0.25,100,112.01
3544,G3,213.0,0.25,100,112.01
3545,D4,213.0,0.25,100,112.01
3546,E3,213.0,0.25,100,112.01
3547,C2,213.0,0.25,100,112.01
3548,B-3,213.0,0.25,90,112.01
3549,D4,213.0,0.25,90,112.01
3550,G3,213.0,0.25,90,112.01
3551,E4,213.0,0.25,122,112.01
3552,G4,213.0,0.25,122,112.01
3553,B-4,213.0,0.25,122,112.01
3554,C2,213.0,27/200,100,112.01
3555,G#2,213.0,27/200,100,112.01
3556,A4,213.5,0.0,122,112.01
3557,C2,213.5,6/25,115,112.01
3558,E3,213.5,0.25,100,112.01
3559,B-3,213.5,0.25,100,112.01
3560,D4,213.5,0.25,100,112.01
3561,G3,213.5,0.25,100,112.01
3562,C2,213.5,0.25,100,112.01
3563,B-3,213.5,0.25,90,112.01
3564,G3,213.5,0.25,90,112.01
3565,D4,213.5,0.25,90,112.01
3566,D4,213.5,0.25,122,112.01
3567,E4,213.5,0.25,122,112.01
3568,A4,213.5,0.25,122,112.01
3569,C2,213.5,167/1000,100,112.01
3570,G#2,213.5,167/1000,100,112.01
3571,G4,214.0,0.0,122,112.01
3572,B1,214.0,99/125,115,112.01
3573,E-4,214.0,0.75,100,112.01
3574,G4,214.0,0.75,100,112.01
3575,A3,214.0,0.75,100,112.01
3576,C4,214.0,0.75,100,112.01
3577,B1,214.0,0.75,100,112.01
3578,E-4,214.0,0.75,90,112.01
3579,G4,214.0,0.75,90,112.01
3580,C4,214.0,0.75,90,112.01
3581,B3,214.0,0.75,122,112.01
3582,D4,214.0,0.75,122,112.01
3583,G4,214.0,0.75,122,112.01
3584,C2,214.0,27/200,100,112.01
3585,G#2,214.0,27/200,100,112.01
3586,G#3,214.0,27/200,100,112.01
3587,G#2,214.5,167/1000,100,112.01
3588,A4,215.0,0.0,122,112.01
3589,A2,215.0,0.219,115,112.01
3590,E-4,215.0,49/100,100,112.01
3591,C4,215.0,49/100,100,112.01
3592,G4,215.0,49/100,100,112.01
3593,A3,215.0,49/100,100,112.01
3594,B1,215.0,49/100,100,112.01
3595,E-4,215.0,0.5,90,112.01
3596,G4,215.0,0.5,90,112.01
3597,C4,215.0,0.5,90,112.01
3598,D4,215.0,0.5,122,112.01
3599,F#4,215.0,0.5,122,112.01
3600,A4,215.0,0.5,122,112.01
3601,D2,215.0,0.188,100,112.01
3602,G#2,215.0,0.188,100,112.01
3603,B2,215.25,99/250,115,112.01
3604,G#2,215.5,73/500,100,112.01
3605,B4,215.75,0.0,122,112.01
3606,E1,215.75,0.25,115,112.01
3607,F#4,215.75,0.25,100,112.01
3608,D4,215.75,0.25,100,112.01
3609,B3,215.75,0.25,100,112.01
3610,G3,215.75,0.25,100,112.01
3611,E2,215.75,0.25,100,112.01
3612,D4,215.75,0.25,90,112.01
3613,B3,215.75,0.25,90,112.01
3614,F#4,215.75,0.25,90,112.01
3615,F#4,215.75,0.25,122,112.01
3616,G4,215.75,0.25,122,112.01
3617,B4,215.75,0.25,122,112.01
3618,C2,215.75,0.156,100,112.01
3619,B-2,215.75,0.156,100,112.01
3620,E1,216.0,13/250,115,112.01
3621,G#2,216.0,27/200,100,112.01
3622,G#3,216.0,27/200,100,112.01
3623,E3,216.25,177/250,115,112.01
3624,G#2,216.25,13/125,100,112.01
3625,B4,216.25,0.156,125,112.01
3626,F#5,216.25,0.156,125,112.01
3627,D5,216.25,0.156,125,112.01
3628,G#2,216.5,27/200,100,112.01
3629,F#5,216.5,0.156,125,112.01
3630,D5,216.5,0.156,125,112.01
3631,B4,216.5,0.156,125,112.01
3632,F#5,216.75,0.156,125,112.01
3633,D5,216.75,0.156,125,112.01
3634,B4,216.75,0.156,125,112.01
3635,E2,217.0,6/25,115,112.01
3636,F#4,217.0,0.25,100,112.01
3637,B3,217.0,0.25,100,112.01
3638,D4,217.0,0.25,100,112.01
3639,G3,217.0,0.25,100,112.01
3640,E2,217.0,0.25,100,112.01
3641,F#4,217.0,0.25,90,112.01
3642,B3,217.0,0.25,90,112.01
3643,D4,217.0,0.25,90,112.01
3644,F#5,217.0,0.156,125,112.01
3645,D5,217.0,0.156,125,112.01
3646,B4,217.0,0.156,125,112.01
3647,C2,217.0,0.156,100,112.01
3648,G#2,217.0,0.156,100,112.01
3649,B4,217.25,0.156,125,112.01
3650,G5,217.25,0.156,125,112.01
3651,E5,217.25,0.156,125,112.01
3652,D2,217.5,0.219,115,112.01
3653,B3,217.5,0.25,100,112.01
3654,G3,217.5,0.25,100,112.01
3655,F#4,217.5,0.25,100,112.01
3656,D4,217.5,0.25,100,112.01
3657,E2,217.5,0.25,100,112.01
3658,F#4,217.5,0.25,90,112.01
3659,D4,217.5,0.25,90,112.01
3660,B3,217.5,0.25,90,112.01
3661,C2,217.5,177/1000,100,112.01
3662,G#2,217.5,177/1000,100,112.01
3663,G5,217.75,0.5,120,112.01
3664,C#2,218.0,427/1000,115,112.01
3665,G#3,218.0,0.75,100,112.01
3666,E4,218.0,0.75,100,112.01
3667,B3,218.0,0.75,100,112.01
3668,F3,218.0,0.75,100,112.01
3669,C#2,218.0,0.75,100,112.01
3670,E4,218.0,0.75,90,112.01
3671,B3,218.0,0.75,90,112.01
3672,G#3,218.0,0.75,90,112.01
3673,C2,218.0,27/200,100,112.01
3674,G#2,218.0,27/200,100,112.01
3675,G#3,218.0,27/200,100,112.01
3676,E5,218.25,0.25,120,112.01
3677,C#3,218.5,0.344,115,112.01
3678,B4,218.5,0.25,120,112.01
3679,G#2,218.5,0.188,100,112.01
3680,E5,218.75,0.25,120,112.01
3681,C#2,219.0,49/100,115,112.01
3682,C#5,219.0,0.25,120,112.01
3683,E4,219.0,0.5,100,112.01
3684,B3,219.0,0.5,100,112.01
3685,G#3,219.0,0.5,100,112.01
3686,F3,219.0,0.5,100,112.01
3687,C#2,219.0,0.5,100,112.01
3688,E4,219.0,0.5,90,112.01
3689,B3,219.0,0.5,90,112.01
3690,G#3,219.0,0.5,90,112.01
3691,D2,219.0,0.188,100,112.01
3692,G#2,219.0,0.188,100,112.01
3693,C#5,219.5,0.25,120,112.01
3694,G#2,219.5,0.156,100,112.01
3695,C2,219.75,0.25,115,112.01
3696,B-4,219.75,0.25,120,112.01
3697,D4,219.75,0.25,100,112.01
3698,B-3,219.75,0.25,100,112.01
3699,E3,219.75,0.25,100,112.01
3700,G3,219.75,0.25,100,112.01
3701,C2,219.75,0.25,100,112.01
3702,D4,219.75,0.25,90,112.01
3703,B-3,219.75,0.25,90,112.01
3704,G3,219.75,0.25,90,112.01
3705,C2,219.75,73/500,100,112.01
3706,B-2,219.75,73/500,100,112.01
3707,C2,220.0,99/500,115,112.01
3708,B-4,220.0,0.5,120,112.01
3709,G#2,220.0,0.125,100,112.01
3710,G#3,220.0,0.125,100,112.01
3711,C3,220.25,0.469,115,112.01
3712,G#2,220.25,0.062,100,112.01
3713,G#2,220.5,0.125,100,112.01
3714,C2,221.0,0.219,115,112.01
3715,A4,221.0,73/1000,120,112.01
3716,B-4,221.0,0.25,120,112.01
3717,B-3,221.0,0.25,100,112.01
3718,E3,221.0,0.25,100,112.01
3719,G3,221.0,0.25,100,112.01
3720,D4,221.0,0.25,100,112.01
3721,C2,221.0,0.25,100,112.01
3722,B-3,221.0,0.25,90,112.01
3723,D4,221.0,0.25,90,112.01
3724,G3,221.0,0.25,90,112.01
3725,C2,221.0,13/125,100,112.01
3726,G#2,221.0,13/125,100,112.01
3727,A4,221.25,0.25,120,112.01
3728,C2,221.5,26/125,115,112.01
3729,G4,221.5,0.25,120,112.01
3730,E3,221.5,0.25,100,112.01
3731,B-3,221.5,0.25,100,112.01
3732,G3,221.5,0.25,100,112.01
3733,D4,221.5,0.25,100,112.01
3734,C2,221.5,0.25,100,112.01
3735,B-3,221.5,0.25,90,112.01
3736,G3,221.5,0.25,90,112.01
3737,D4,221.5,0.25,90,112.01
3738,C2,221.5,13/125,100,112.01
3739,G#2,221.5,13/125,100,112.01
3740,D5,221.75,0.5,120,112.01
3741,B1,222.0,0.719,115,112.01
3742,G4,222.0,0.75,100,112.01
3743,A3,222.0,0.75,100,112.01
3744,C4,222.0,0.75,100,112.01
3745,E-4,222.0,0.75,100,112.01
3746,B1,222.0,0.75,100,112.01
3747,G4,222.0,37/50,90,112.01
3748,E-4,222.0,37/50,90,112.01
3749,C4,222.0,37/50,90,112.01
3750,C2,222.0,27/200,100,112.01
3751,G#3,222.0,27/200,100,112.01
3752,G#2,222.0,27/200,100,112.01
3753,G#3,222.0,27/200,100,112.01
3754,B-4,222.25,0.25,120,112.01
3755,A4,222.5,0.25,120,112.01
3756,G#2,222.5,13/250,100,112.01
3757,G4,222.75,0.25,120,112.01
3758,B1,223.0,49/100,115,112.01
3759,E4,223.0,0.5,120,112.01
3760,D2,223.0,0.156,100,112.01
3761,G#2,223.0,21/500,100,112.01
3762,A3,223.0,0.5,100,112.01
3763,E-4,223.0,0.5,100,112.01
3764,C4,223.0,0.5,100,112.01
3765,G4,223.0,0.5,100,112.01
3766,B1,223.0,0.5,100,112.01
3767,C4,223.0,0.25,90,112.01
3768,G4,223.0,0.25,90,112.01
3769,E-4,223.0,0.25,90,112.01
3770,G#2,223.5,13/250,100,112.01
3771,E-2,223.75,6/25,115,112.01
3772,E-3,223.75,0.25,90,112.01
3773,E-4,223.75,0.25,122,112.01
3774,E-3,223.75,0.25,100,112.01
3775,E-2,223.75,0.25,100,112.01
3776,C#3,223.75,0.125,100,112.01
3777,B-2,223.75,0.125,100,112.01
3778,C2,223.75,0.125,100,112.01
3779,B-2,223.75,0.125,100,112.01
3780,E2,224.0,6/25,115,112.01
3781,E3,224.0,0.25,90,112.01
3782,E4,224.0,0.25,122,112.01
3783,E2,224.0,0.25,100,112.01
3784,E3,224.0,0.25,100,112.01
3785,G#2,224.0,23/200,100,112.01
3786,G#3,224.0,23/200,100,112.01
3787,B-1,224.25,6/25,115,112.01
3788,B-3,224.25,0.25,90,112.01
3789,B-4,224.25,0.25,122,112.01
3790,B-2,224.25,0.25,100,112.01
3791,B-3,224.25,0.25,100,112.01
3792,A1,224.5,6/25,115,112.01
3793,A3,224.5,0.25,90,112.01
3794,A4,224.5,0.25,122,112.01
3795,G#2,224.5,73/500,100,112.01
3796,A2,224.5,0.25,100,112.01
3797,A3,224.5,0.25,100,112.01
3798,G1,224.75,6/25,115,112.01
3799,G3,224.75,0.25,90,112.01
3800,G4,224.75,0.25,122,112.01
3801,G2,224.75,0.25,100,112.01
3802,G3,224.75,0.25,100,112.01
3803,D2,225.0,6/25,115,112.01
3804,D4,225.0,0.25,90,112.01
3805,D5,225.0,0.25,122,112.01
3806,G#2,225.0,0.125,100,112.01
3807,D4,225.0,6/25,100,112.01
3808,D3,225.0,6/25,100,112.01
3809,C2,225.25,6/25,115,112.01
3810,C4,225.25,0.25,90,112.01
3811,C5,225.25,0.25,122,112.01
3812,C3,225.25,6/25,100,112.01
3813,C4,225.25,6/25,100,112.01
3814,B1,225.5,6/25,115,112.01
3815,B3,225.5,0.25,90,112.01
3816,B4,225.5,0.156,122,112.01
3817,G#2,225.5,0.094,100,112.01
3818,B2,225.5,6/25,100,112.01
3819,B3,225.5,6/25,100,112.01
3820,G2,225.75,2.25,115,112.01
3821,G4,225.75,2.0,90,112.01
3822,C2,225.75,99/500,100,112.01
3823,G3,225.75,2.25,100,112.01
3824,G4,225.75,2.25,100,112.01
3825,G5,225.75,1.75,122,112.01
3826,B4,225.75,1.75,122,112.01
3827,E5,225.75,1.75,122,112.01
3828,C#3,225.75,0.125,100,112.01
3829,B-2,225.75,0.125,100,112.01
3830,G#2,226.0,0.156,100,112.01
3831,G#2,228.0,0.0,100,112.01
3832,G2,228.0,49/100,115,112.01
3833,G3,228.0,0.5,100,112.01
3834,G4,228.0,0.5,100,112.01
3835,C2,228.0,0.125,100,112.01
3836,G#2,228.0,0.125,100,112.01
3837,G#2,228.5,83/1000,100,112.01
3838,G#2,228.75,23/200,100,112.01
3839,E2,229.0,0.25,100,112.01
3840,E1,229.0,6/25,115,112.01
3841,C2,229.0,27/200,100,112.01
3842,G#2,229.0,27/200,100,112.01
3843,B-2,229.5,0.25,100,112.01
3844,B-1,229.5,6/25,115,112.01
3845,G#2,229.5,0.094,100,112.01
3846,G#2,229.75,23/200,100,112.01
3847,A2,230.0,0.75,100,112.01
3848,A1,230.0,37/50,115,112.01
3849,C2,230.0,27/200,100,112.01
3850,G#2,230.0,27/200,100,112.01
3851,G#2,230.5,73/1000,100,112.01
3852,G#2,230.75,13/125,100,112.01
3853,G2,231.0,0.25,100,112.01
3854,G1,231.0,6/25,115,112.01
3855,C2,231.0,73/500,100,112.01
3856,G#2,231.0,73/500,100,112.01
3857,A2,231.5,0.25,100,112.01
3858,A1,231.5,6/25,115,112.01
3859,G#2,231.5,23/200,100,112.01
3860,G2,231.75,0.25,100,112.01
3861,G1,231.75,6/25,115,112.01
3862,B-2,231.75,0.125,100,112.01
3863,C2,232.0,0.188,100,112.01
3864,G#2,232.0,73/1000,100,112.01
3865,E2,232.25,0.25,100,112.01
3866,E1,232.25,6/25,115,112.01
3867,G#2,232.25,0.062,100,112.01
3868,G#2,232.5,0.125,100,112.01
3869,C2,233.0,73/500,100,112.01
3870,G#2,233.0,73/500,100,112.01
3871,G#2,233.5,0.094,100,112.01
3872,G#2,233.75,13/125,100,112.01
3873,C2,234.0,27/200,100,112.01
3874,G#2,234.0,27/200,100,112.01
3875,G#2,234.5,13/250,100,112.01
3876,G#2,234.75,0.094,100,112.01
3877,C2,235.0,26/125,100,112.01
3878,G#2,235.0,23/200,100,112.01
3879,D3,235.25,6/25,115,112.01
3880,G#2,235.5,0.125,100,112.01
3881,E3,235.75,6/25,115,112.01
3882,B-2,235.75,0.125,100,112.01
3883,C2,236.0,99/500,100,112.01
3884,G#2,236.0,0.094,100,112.01
3885,G#2,236.25,0.094,100,112.01
3886,G#2,236.5,0.125,100,112.01
3887,E2,237.0,0.25,100,112.01
3888,E1,237.0,6/25,115,112.01
3889,C2,237.0,73/500,100,112.01
3890,G#2,237.0,73/500,100,112.01
3891,B-2,237.5,0.25,100,112.01
3892,B-1,237.5,6/25,115,112.01
3893,G#2,237.5,83/1000,100,112.01
3894,G#2,237.75,0.094,100,112.01
3895,A2,238.0,0.75,100,112.01
3896,A1,238.0,37/50,115,112.01
3897,C2,238.0,73/500,100,112.01
3898,G#2,238.0,73/500,100,112.01
3899,G#2,238.5,13/250,100,112.01
3900,G#2,238.75,13/125,100,112.01
3901,G2,239.0,0.25,100,112.01
3902,G1,239.0,6/25,115,112.01
3903,C2,239.0,99/500,100,112.01
3904,G#2,239.25,13/250,100,112.01
3905,A2,239.5,0.25,100,112.01
3906,A1,239.5,6/25,115,112.01
3907,G#2,239.5,13/125,100,112.01
3908,G2,239.75,0.25,100,112.01
3909,G1,239.75,6/25,115,112.01
3910,B-2,239.75,73/500,100,112.01
3911,C2,240.0,73/500,100,112.01
3912,G#2,240.0,73/500,100,112.01
3913,E2,240.25,0.25,100,112.01
3914,E1,240.25,6/25,115,112.01
3915,B-2,240.25,23/200,100,112.01
3916,G#2,240.5,13/125,100,112.01
3917,C2,241.0,99/500,100,112.01
3918,G#2,241.0,23/200,100,112.01
3919,G#2,241.5,21/500,100,112.01
3920,B1,241.75,6/25,115,112.01
3921,G#2,241.75,73/500,100,112.01
3922,A2,241.75,73/500,100,112.01
3923,D2,242.0,6/25,115,112.01
3924,C2,242.0,99/500,100,112.01
3925,G#2,242.0,0.125,100,112.01
3926,D3,242.25,6/25,115,112.01
3927,G#2,242.5,13/250,100,112.01
3928,D2,242.75,6/25,115,112.01
3929,G#2,242.75,27/200,100,112.01
3930,B2,242.75,27/200,100,112.01
3931,E-2,243.0,6/25,115,112.01
3932,C2,243.0,73/500,100,112.01
3933,G#2,243.0,73/500,100,112.01
3934,E-3,243.25,6/25,115,112.01
3935,G#2,243.5,0.094,100,112.01
3936,F2,243.5,0.094,100,112.01
3937,E-2,243.75,6/25,115,112.01
3938,B-2,243.75,13/125,100,112.01
3939,F2,243.75,13/125,100,112.01
3940,E2,244.0,6/25,115,112.01
3941,C2,244.0,99/500,100,112.01
3942,G#2,244.0,0.094,100,112.01
3943,E3,244.25,6/25,115,112.01
3944,G#2,244.25,0.094,100,112.01
3945,G#2,244.5,0.125,100,112.01
3946,E2,245.0,0.25,100,112.01
3947,E1,245.0,6/25,115,112.01
3948,C2,245.0,73/500,100,112.01
3949,G#2,245.0,73/500,100,112.01
3950,B-2,245.5,0.25,100,112.01
3951,B-1,245.5,6/25,115,112.01
3952,G#2,245.5,13/125,100,112.01
3953,G#2,245.75,73/1000,100,112.01
3954,A2,246.0,0.75,100,112.01
3955,A1,246.0,37/50,115,112.01
3956,C2,246.0,73/500,100,112.01
3957,G#2,246.0,73/500,100,112.01
3958,G#2,246.5,83/1000,100,112.01
3959,G#2,246.75,13/125,100,112.01
3960,G2,247.0,0.25,100,112.01
3961,G1,247.0,6/25,115,112.01
3962,C2,247.0,0.188,100,112.01
3963,G#2,247.0,23/200,100,112.01
3964,A2,247.5,0.25,100,112.01
3965,A1,247.5,6/25,115,112.01
3966,G#2,247.5,0.125,100,112.01
3967,G2,247.75,0.25,100,112.01
3968,G1,247.75,6/25,115,112.01
3969,B-2,247.75,0.125,100,112.01
3970,C2,248.0,0.156,100,112.01
3971,G#2,248.0,0.156,100,112.01
3972,E2,248.25,0.25,100,112.01
3973,E1,248.25,6/25,115,112.01
3974,B-2,248.25,27/200,100,112.01
3975,G#2,248.5,13/125,100,112.01
3976,C2,249.0,27/200,100,112.01
3977,G#2,249.0,27/200,100,112.01
3978,G#2,249.5,13/125,100,112.01
3979,G#2,249.75,27/200,100,112.01
3980,C2,250.0,73/500,100,112.01
3981,G#2,250.0,73/500,100,112.01
3982,G#2,250.5,0.094,100,112.01
3983,B1,250.75,6/25,115,112.01
3984,G#2,250.75,0.125,100,112.01
3985,G2,251.0,6/25,115,112.01
3986,C2,251.0,73/500,100,112.01
3987,G#2,251.0,73/500,100,112.01
3988,G3,251.25,6/25,115,112.01
3989,G#2,251.5,0.125,100,112.01
3990,E3,251.75,6/25,115,112.01
3991,B-2,251.75,27/200,100,112.01
3992,C2,252.0,0.188,100,112.01
3993,G#2,252.0,13/125,100,112.01
3994,G#2,252.25,13/125,100,112.01
3995,G#2,252.5,23/200,100,112.01
3996,E2,253.0,0.25,100,112.01
3997,E1,253.0,6/25,115,112.01
3998,C2,253.0,73/500,100,112.01
3999,G#2,253.0,73/500,100,112.01
4000,B-2,253.5,0.25,100,112.01
4001,B-1,253.5,6/25,115,112.01
4002,G#2,253.5,0.094,100,112.01
4003,G#2,253.75,0.125,100,112.01
4004,A2,254.0,0.75,100,112.01
4005,A1,254.0,37/50,115,112.01
4006,C2,254.0,73/500,100,112.01
4007,G#2,254.0,73/500,100,112.01
4008,G#2,254.5,0.094,100,112.01
4009,G#2,254.75,13/125,100,112.01
4010,G2,255.0,0.25,100,112.01
4011,G1,255.0,6/25,115,112.01
4012,C2,255.0,27/200,100,112.01
4013,G#2,255.0,27/200,100,112.01
4014,A2,255.5,0.25,100,112.01
4015,A1,255.5,6/25,115,112.01
4016,G#2,255.5,0.125,100,112.01
4017,G2,255.75,0.25,100,112.01
4018,G1,255.75,6/25,115,112.01
4019,B-2,255.75,27/200,100,112.01
4020,C2,256.0,27/200,100,112.01
4021,G#2,256.0,27/200,100,112.01
4022,E2,256.25,0.25,100,112.01
4023,E1,256.25,6/25,115,112.01
4024,B-2,256.25,0.125,100,112.01
4025,G#2,256.5,0.125,100,112.01
4026,C2,257.0,27/200,100,112.01
4027,G#2,257.0,27/200,100,112.01
4028,G#2,257.5,23/200,100,112.01
4029,G#2,257.75,23/200,100,112.01
4030,D3,257.75,23/200,100,112.01
4031,C2,258.0,0.156,100,112.01
4032,G#2,258.0,0.156,100,112.01
4033,C3,258.25,0.125,100,112.01
4034,G#2,258.5,13/250,100,112.01
4035,G#2,258.75,13/125,100,112.01
4036,C2,259.0,27/200,100,112.01
4037,G#2,259.0,27/200,100,112.01
4038,A2,259.0,27/200,100,112.01
4039,G#2,259.5,13/125,100,112.01
4040,F2,259.5,13/125,100,112.01
4041,G4,259.75,0.25,100,112.01
4042,D4,259.75,0.25,100,112.01
4043,E4,259.75,0.25,100,112.01
4044,B-2,259.75,23/200,100,112.01
4045,F2,259.75,23/200,100,112.01
4046,C2,260.0,0.188,100,112.01
4047,G#2,260.0,23/200,100,112.01
4048,G4,260.0,4.0,100,112.01
4049,D4,260.0,4.0,100,112.01
4050,E4,260.0,4.0,100,112.01
4051,G#2,260.25,13/125,100,112.01
4052,G#2,260.5,27/200,100,112.01
4053,E2,261.0,0.25,100,112.01
4054,E1,261.0,6/25,115,112.01
4055,C2,261.0,73/500,100,112.01
4056,G#2,261.0,73/500,100,112.01
4057,B-2,261.5,0.25,100,112.01
4058,B-1,261.5,6/25,115,112.01
4059,G#2,261.5,13/250,100,112.01
4060,G#2,261.75,0.125,100,112.01
4061,A2,262.0,0.75,100,112.01
4062,A1,262.0,37/50,115,112.01
4063,C2,262.0,73/500,100,112.01
4064,G#2,262.0,73/500,100,112.01
4065,G#2,262.5,23/200,100,112.01
4066,G#2,262.75,83/1000,100,112.01
4067,G2,263.0,0.25,100,112.01
4068,G1,263.0,6/25,115,112.01
4069,C2,263.0,73/500,100,112.01
4070,G#2,263.0,73/500,100,112.01
4071,A2,263.5,0.25,100,112.01
4072,A1,263.5,6/25,115,112.01
4073,G#2,263.5,27/200,100,112.01
4074,G2,263.75,0.25,100,112.01
4075,G1,263.75,6/25,115,112.01
4076,B-2,263.75,27/200,100,112.01
4077,C2,264.0,177/1000,100,112.01
4078,G#2,264.0,0.094,100,112.01
4079,E2,264.25,0.25,100,112.01
4080,E1,264.25,6/25,115,112.01
4081,B-2,264.25,0.125,100,112.01
4082,G#2,264.5,0.125,100,112.01
4083,C2,265.0,0.156,100,112.01
4084,G#2,265.0,0.156,100,112.01
4085,G#2,265.5,13/125,100,112.01
4086,G#2,265.75,13/125,100,112.01
4087,C2,266.0,73/500,100,112.01
4088,G#2,266.0,73/500,100,112.01
4089,G#2,266.5,13/125,100,112.01
4090,G#2,266.75,13/125,100,112.01
4091,C2,267.0,0.156,100,112.01
4092,G#2,267.0,0.156,100,112.01
4093,G#2,267.5,27/200,100,112.01
4094,G4,267.656,3.656,100,112.01
4095,D4,267.656,3.656,100,112.01
4096,E4,267.656,3.656,100,112.01
4097,B-2,267.75,0.125,100,112.01
4098,C2,268.0,177/1000,100,112.01
4099,G#2,268.0,0.094,100,112.01
4100,G#2,268.25,13/125,100,112.01
4101,G#2,268.5,27/200,100,112.01
4102,E2,269.0,0.25,100,112.01
4103,E1,269.0,6/25,115,112.01
4104,C2,269.0,73/500,100,112.01
4105,G#2,269.0,73/500,100,112.01
4106,B-2,269.5,0.25,100,112.01
4107,B-1,269.5,6/25,115,112.01
4108,G#2,269.5,13/125,100,112.01
4109,G#2,269.75,23/200,100,112.01
4110,A2,270.0,0.75,100,112.01
4111,A1,270.0,37/50,115,112.01
4112,C2,270.0,0.156,100,112.01
4113,G#2,270.0,0.156,100,112.01
4114,G#2,270.5,83/1000,100,112.01
4115,G#2,270.75,23/200,100,112.01
4116,G2,271.0,0.25,100,112.01
4117,G1,271.0,6/25,115,112.01
4118,C2,271.0,0.156,100,112.01
4119,G#2,271.0,0.156,100,112.01
4120,G#2,271.25,13/125,100,112.01
4121,D4,271.406,0.25,100,112.01
4122,A4,271.406,0.25,100,112.01
4123,F#4,271.406,0.25,100,112.01
4124,A2,271.5,0.25,100,112.01
4125,A1,271.5,6/25,115,112.01
4126,G#2,271.5,0.156,100,112.01
4127,D4,271.656,4.0,100,112.01
4128,A4,271.656,4.0,100,112.01
4129,F#4,271.656,4.0,100,112.01
4130,G2,271.75,0.25,100,112.01
4131,G1,271.75,6/25,115,112.01
4132,B-2,271.75,73/500,100,112.01
4133,C2,272.0,0.125,100,112.01
4134,G#2,272.0,0.125,100,112.01
4135,E2,272.25,0.25,100,112.01
4136,E1,272.25,6/25,115,112.01
4137,B-2,272.25,0.125,100,112.01
4138,G#2,272.5,27/200,100,112.01
4139,C2,273.0,0.156,100,112.01
4140,G#2,273.0,0.156,100,112.01
4141,G#2,273.5,13/125,100,112.01
4142,G#2,273.75,0.125,100,112.01
4143,C2,274.0,13/125,100,112.01
4144,G#2,274.0,13/125,100,112.01
4145,A2,274.0,13/125,100,112.01
4146,A2,274.25,13/125,100,112.01
4147,G#2,274.5,13/125,100,112.01
4148,A2,274.5,13/125,100,112.01
4149,G#2,274.75,0.125,100,112.01
4150,C2,275.0,177/1000,100,112.01
4151,G#2,275.25,83/1000,100,112.01
4152,F2,275.25,83/1000,100,112.01
4153,G#2,275.5,27/200,100,112.01
4154,B-2,275.75,27/200,100,112.01
4155,C2,276.0,23/200,100,112.01
4156,G#2,276.0,23/200,100,112.01
4157,G#2,276.25,83/1000,100,112.01
4158,G#2,276.5,27/200,100,112.01
4159,E2,277.0,0.25,100,112.01
4160,E1,277.0,6/25,115,112.01
4161,C2,277.0,73/500,100,112.01
4162,G#2,277.0,73/500,100,112.01
4163,B-2,277.5,0.25,100,112.01
4164,B-1,277.5,6/25,115,112.01
4165,G#2,277.5,73/1000,100,112.01
4166,G#2,277.75,13/125,100,112.01
4167,A2,278.0,0.75,100,112.01
4168,A1,278.0,37/50,115,112.01
4169,C2,278.0,0.156,100,112.01
4170,G#2,278.0,0.156,100,112.01
4171,G#2,278.5,0.094,100,112.01
4172,G#2,278.75,23/200,100,112.01
4173,G2,279.0,0.25,100,112.01
4174,G1,279.0,6/25,115,112.01
4175,C2,279.0,0.156,100,112.01
4176,G#2,279.0,0.156,100,112.01
4177,G#2,279.25,0.094,100,112.01
4178,D4,279.312,3.656,100,112.01
4179,A4,279.312,3.656,100,112.01
4180,F#4,279.312,3.656,100,112.01
4181,A2,279.5,0.25,100,112.01
4182,A1,279.5,6/25,115,112.01
4183,G#2,279.5,0.125,100,112.01
4184,G2,279.75,0.25,100,112.01
4185,G1,279.75,6/25,115,112.01
4186,B-2,279.75,27/200,100,112.01
4187,C2,280.0,177/1000,100,112.01
4188,G#2,280.0,13/125,100,112.01
4189,E2,280.25,0.25,100,112.01
4190,E1,280.25,6/25,115,112.01
4191,B-2,280.25,27/200,100,112.01
4192,G#2,280.5,27/200,100,112.01
4193,C2,281.0,27/200,100,112.01
4194,G#2,281.0,27/200,100,112.01
4195,G#2,281.5,0.094,100,112.01
4196,G#2,281.75,0.062,100,112.01
4197,C2,282.0,27/200,100,112.01
4198,G#2,282.0,27/200,100,112.01
4199,G#2,282.5,0.062,100,112.01
4200,G#2,282.75,0.094,100,112.01
4201,C2,283.0,23/200,100,112.01
4202,G#2,283.0,23/200,100,112.01
4203,B4,283.062,0.25,100,112.01
4204,E4,283.062,0.25,100,112.01
4205,G4,283.062,0.25,100,112.01
4206,D4,283.062,0.25,100,112.01
4207,B4,283.312,4.0,100,112.01
4208,E4,283.312,4.0,100,112.01
4209,G4,283.312,4.0,100,112.01
4210,D4,283.312,4.0,100,112.01
4211,G#2,283.5,23/200,100,112.01
4212,B-2,283.75,23/200,100,112.01
4213,C2,284.0,177/1000,100,112.01
4214,G#2,284.0,0.094,100,112.01
4215,G#2,284.25,0.094,100,112.01
4216,G#2,284.5,27/200,100,112.01
4217,E2,285.0,0.25,100,112.01
4218,E1,285.0,6/25,115,112.01
4219,C2,285.0,27/200,100,112.01
4220,G#2,285.0,27/200,100,112.01
4221,B-2,285.5,0.25,100,112.01
4222,B-1,285.5,6/25,115,112.01
4223,G#2,285.5,13/250,100,112.01
4224,G#2,285.75,0.094,100,112.01
4225,A2,286.0,0.75,100,112.01
4226,A1,286.0,37/50,115,112.01
4227,C2,286.0,27/200,100,112.01
4228,G#2,286.0,27/200,100,112.01
4229,G#2,286.5,21/500,100,112.01
4230,G#2,286.75,0.094,100,112.01
4231,G2,287.0,0.25,100,112.01
4232,G1,287.0,6/25,115,112.01
4233,C2,287.0,27/200,100,112.01
4234,G#2,287.0,27/200,100,112.01
4235,G#2,287.25,13/125,100,112.01
4236,A2,287.5,0.25,100,112.01
4237,A1,287.5,6/25,115,112.01
4238,G#2,287.5,27/200,100,112.01
4239,G2,287.75,0.25,100,112.01
4240,G1,287.75,6/25,115,112.01
4241,B-2,287.75,0.125,100,112.01
4242,C2,288.0,177/1000,100,112.01
4243,G#2,288.0,0.094,100,112.01
4244,E2,288.25,0.25,100,112.01
4245,E1,288.25,6/25,115,112.01
4246,B-2,288.25,23/200,100,112.01
4247,G#2,288.5,27/200,100,112.01
4248,C2,289.0,23/200,100,112.01
4249,G#2,289.0,23/200,100,112.01
4250,G#2,289.5,0.062,100,112.01
4251,G#2,289.75,23/200,100,112.01
4252,C#2,290.0,149/100,115,112.01
4253,C#2,290.0,1.5,100,112.01
4254,F3,290.0,1.5,100,112.01
4255,G#3,290.0,1.5,100,112.01
4256,B3,290.0,1.5,100,112.01
4257,E4,290.0,1.5,100,112.01
4258,E4,290.0,1.5,90,112.01
4259,G#3,290.0,1.5,90,112.01
4260,B3,290.0,1.5,90,112.01
4261,C2,290.0,0.156,100,112.01
4262,G#2,290.0,0.156,100,112.01
4263,G#2,290.5,13/125,100,112.01
4264,G#2,290.75,0.094,100,112.01
4265,B4,290.969,3.656,100,112.01
4266,E4,290.969,3.656,100,112.01
4267,G4,290.969,3.656,100,112.01
4268,D4,290.969,3.656,100,112.01
4269,D2,291.0,27/200,100,112.01
4270,G#2,291.0,27/200,100,112.01
4271,D2,291.25,23/200,100,112.01
4272,G2,291.5,0.125,100,112.01
4273,G#2,291.5,0.125,100,112.01
4274,C2,291.75,6/25,115,112.01
4275,G5,291.75,0.25,100,112.01
4276,C2,291.75,0.25,100,112.01
4277,E3,291.75,0.25,100,112.01
4278,G3,291.75,0.25,100,112.01
4279,B-3,291.75,0.25,100,112.01
4280,D4,291.75,0.25,100,112.01
4281,D4,291.75,0.25,90,112.01
4282,G3,291.75,0.25,90,112.01
4283,B-3,291.75,0.25,90,112.01
4284,C#3,291.75,0.125,100,112.01
4285,C2,291.75,0.125,100,112.01
4286,B-2,291.75,0.125,100,112.01
4287,G5,292.0,1.25,100,112.01
4288,G#2,292.0,167/1000,100,112.01
4289,G#3,292.0,167/1000,100,112.01
4290,C3,292.25,0.438,115,112.01
4291,G#2,292.25,13/250,100,112.01
4292,G#2,292.5,27/200,100,112.01
4293,C2,293.0,6/25,115,112.01
4294,B-3,293.0,0.25,100,112.01
4295,G3,293.0,0.25,100,112.01
4296,D4,293.0,0.25,100,112.01
4297,E3,293.0,0.25,100,112.01
4298,C2,293.0,0.25,100,112.01
4299,D4,293.0,0.25,90,112.01
4300,B-3,293.0,0.25,90,112.01
4301,G3,293.0,0.25,90,112.01
4302,C2,293.0,27/200,100,112.01
4303,G#2,293.0,27/200,100,112.01
4304,C2,293.5,6/25,115,112.01
4305,E-5,293.5,0.25,100,112.01
4306,E3,293.5,0.25,100,112.01
4307,B-3,293.5,0.25,100,112.01
4308,D4,293.5,0.25,100,112.01
4309,G3,293.5,0.25,100,112.01
4310,C2,293.5,0.25,100,112.01
4311,D4,293.5,0.25,90,112.01
4312,B-3,293.5,0.25,90,112.01
4313,G3,293.5,0.25,90,112.01
4314,C2,293.5,0.125,100,112.01
4315,G#2,293.5,0.125,100,112.01
4316,B1,294.0,99/125,115,112.01
4317,D5,294.0,573/1000,100,112.01
4318,E-4,294.0,0.75,100,112.01
4319,G4,294.0,0.75,100,112.01
4320,A3,294.0,0.75,100,112.01
4321,C4,294.0,0.75,100,112.01
4322,B1,294.0,0.75,100,112.01
4323,G4,294.0,0.75,90,112.01
4324,C4,294.0,0.75,90,112.01
4325,E-4,294.0,0.75,90,112.01
4326,C2,294.0,0.188,100,112.01
4327,G#2,294.0,0.188,100,112.01
4328,G#3,294.0,0.188,100,112.01
4329,G#2,294.5,0.125,100,112.01
4330,G4,294.719,0.25,100,112.01
4331,C#5,294.719,0.25,100,112.01
4332,E4,294.719,0.25,100,112.01
4333,A4,294.719,0.25,100,112.01
4334,G4,294.969,4.0,100,112.01
4335,C#5,294.969,4.0,100,112.01
4336,E4,294.969,4.0,100,112.01
4337,A4,294.969,4.0,100,112.01
4338,A2,295.0,0.219,115,112.01
4339,E-4,295.0,49/100,100,112.01
4340,C4,295.0,49/100,100,112.01
4341,G4,295.0,49/100,100,112.01
4342,A3,295.0,49/100,100,112.01
4343,B1,295.0,49/100,100,112.01
4344,E-4,295.0,0.5,90,112.01
4345,G4,295.0,0.5,90,112.01
4346,C4,295.0,0.5,90,112.01
4347,D2,295.0,27/200,100,112.01
4348,G#2,295.0,27/200,100,112.01
4349,B2,295.25,99/250,115,112.01
4350,G#2,295.5,27/200,100,112.01
4351,E1,295.75,0.25,115,112.01
4352,F#4,295.75,0.25,100,112.01
4353,D4,295.75,0.25,100,112.01
4354,B3,295.75,0.25,100,112.01
4355,G3,295.75,0.25,100,112.01
4356,E2,295.75,0.25,100,112.01
4357,B3,295.75,0.25,90,112.01
4358,D4,295.75,0.25,90,112.01
4359,F#4,295.75,0.25,90,112.01
4360,C2,295.75,27/200,100,112.01
4361,B-2,295.75,27/200,100,112.01
4362,E1,296.0,13/250,115,112.01
4363,G#2,296.0,23/200,100,112.01
4364,G#3,296.0,0.188,100,112.01
4365,E3,296.25,177/250,115,112.01
4366,G#2,296.25,13/125,100,112.01
4367,G#2,296.5,23/200,100,112.01
4368,E2,297.0,6/25,115,112.01
4369,A4,297.0,0.156,100,112.01
4370,F#4,297.0,0.25,100,112.01
4371,B3,297.0,0.25,100,112.01
4372,D4,297.0,0.25,100,112.01
4373,G3,297.0,0.25,100,112.01
4374,E2,297.0,0.25,100,112.01
4375,D4,297.0,0.25,90,112.01
4376,F#4,297.0,0.25,90,112.01
4377,B3,297.0,0.25,90,112.01
4378,C2,297.0,13/125,100,112.01
4379,G#2,297.0,13/125,100,112.01
4380,A4,297.25,0.25,100,112.01
4381,D2,297.5,0.219,115,112.01
4382,G4,297.5,0.25,100,112.01
4383,B3,297.5,0.25,100,112.01
4384,G3,297.5,0.25,100,112.01
4385,F#4,297.5,0.25,100,112.01
4386,D4,297.5,0.25,100,112.01
4387,E2,297.5,0.25,100,112.01
4388,F#4,297.5,0.25,90,112.01
4389,D4,297.5,0.25,90,112.01
4390,B3,297.5,0.25,90,112.01
4391,C2,297.5,27/200,100,112.01
4392,G#2,297.5,27/200,100,112.01
4393,C#2,298.0,427/1000,115,112.01
4394,A4,298.0,0.25,100,112.01
4395,G#3,298.0,0.75,100,112.01
4396,E4,298.0,0.75,100,112.01
4397,B3,298.0,0.75,100,112.01
4398,F3,298.0,0.75,100,112.01
4399,C#2,298.0,0.75,100,112.01
4400,E4,298.0,0.75,90,112.01
4401,B3,298.0,0.75,90,112.01
4402,G#3,298.0,0.75,90,112.01
4403,C2,298.0,26/125,100,112.01
4404,G#2,298.0,26/125,100,112.01
4405,G#3,298.0,26/125,100,112.01
4406,C#3,298.5,0.344,115,112.01
4407,G4,298.5,0.25,100,112.01
4408,G#2,298.5,0.125,100,112.01
4409,A4,298.75,0.25,100,112.01
4410,C#2,299.0,49/100,115,112.01
4411,E4,299.0,0.5,100,112.01
4412,B3,299.0,0.5,100,112.01
4413,G#3,299.0,0.5,100,112.01
4414,F3,299.0,0.5,100,112.01
4415,C#2,299.0,0.5,100,112.01
4416,B3,299.0,0.5,90,112.01
4417,E4,299.0,0.5,90,112.01
4418,G#3,299.0,0.5,90,112.01
4419,D2,299.0,27/200,100,112.01
4420,G#2,299.0,27/200,100,112.01
4421,B4,299.25,0.25,100,112.01
4422,G#2,299.5,27/200,100,112.01
4423,C2,299.75,0.25,115,112.01
4424,G4,299.75,0.25,100,112.01
4425,D4,299.75,0.25,100,112.01
4426,B-3,299.75,0.25,100,112.01
4427,E3,299.75,0.25,100,112.01
4428,G3,299.75,0.25,100,112.01
4429,C2,299.75,0.25,100,112.01
4430,B-3,299.75,0.25,90,112.01
4431,D4,299.75,0.25,90,112.01
4432,G3,299.75,0.25,90,112.01
4433,C2,299.75,0.125,100,112.01
4434,B-2,299.75,0.125,100,112.01
4435,C2,300.0,99/500,115,112.01
4436,G#2,300.0,0.094,100,112.01
4437,G#3,300.0,0.188,100,112.01
4438,C3,300.25,0.469,115,112.01
4439,E4,300.25,0.5,100,112.01
4440,G#2,300.25,0.094,100,112.01
4441,G#2,300.5,13/125,100,112.01
4442,G4,300.719,1.75,100,112.01
4443,C#5,300.719,1.75,100,112.01
4444,E4,300.719,1.75,100,112.01
4445,A4,300.719,1.75,100,112.01
4446,D4,300.75,1.75,100,112.01
4447,C2,301.0,0.219,115,112.01
4448,C2,301.0,27/200,100,112.01
4449,B-3,301.0,0.25,100,112.01
4450,G3,301.0,0.25,100,112.01
4451,D4,301.0,0.25,100,112.01
4452,E3,301.0,0.25,100,112.01
4453,C2,301.0,0.25,100,112.01
4454,B-3,301.0,0.25,90,112.01
4455,D4,301.0,0.25,90,112.01
4456,G3,301.0,0.25,90,112.01
4457,G#2,301.0,13/250,100,112.01
4458,G#2,301.0,13/250,100,112.01
4459,C2,301.5,26/125,115,112.01
4460,E3,301.5,0.25,100,112.01
4461,B-3,301.5,0.25,100,112.01
4462,G3,301.5,0.25,100,112.01
4463,D4,301.5,0.25,100,112.01
4464,C2,301.5,0.25,100,112.01
4465,B-3,301.5,0.25,90,112.01
4466,D4,301.5,0.25,90,112.01
4467,G3,301.5,0.25,90,112.01
4468,C2,301.5,27/200,100,112.01
4469,G#2,301.5,27/200,100,112.01
4470,B1,302.0,0.719,115,112.01
4471,E-4,302.0,0.75,100,112.01
4472,C4,302.0,0.75,100,112.01
4473,G4,302.0,0.75,100,112.01
4474,A3,302.0,0.75,100,112.01
4475,B1,302.0,0.75,100,112.01
4476,E-4,302.0,0.75,90,112.01
4477,G4,302.0,0.75,90,112.01
4478,C4,302.0,0.75,90,112.01
4479,C2,302.0,0.188,100,112.01
4480,G#2,302.0,0.188,100,112.01
4481,G#3,302.0,0.188,100,112.01
4482,G#2,302.5,73/500,100,112.01
4483,B1,303.0,49/100,115,112.01
4484,E-4,303.0,0.5,100,112.01
4485,C4,303.0,0.5,100,112.01
4486,G4,303.0,0.5,100,112.01
4487,A3,303.0,0.5,100,112.01
4488,B1,303.0,0.5,100,112.01
4489,E-4,303.0,0.5,90,112.01
4490,G4,303.0,0.5,90,112.01
4491,C4,303.0,0.5,90,112.01
4492,D2,303.0,27/200,100,112.01
4493,G#2,303.0,27/200,100,112.01
4494,D4,303.25,0.25,100,112.01
4495,E4,303.5,0.25,100,112.01
4496,G#2,303.5,27/200,100,112.01
4497,E1,303.75,0.25,115,112.01
4498,F#4,303.75,0.25,100,112.01
4499,B3,303.75,0.25,100,112.01
4500,F#4,303.75,0.25,100,112.01
4501,D4,303.75,0.25,100,112.01
4502,G3,303.75,0.25,100,112.01
4503,E2,303.75,0.25,100,112.01
4504,D4,303.75,0.25,90,112.01
4505,F#4,303.75,0.25,90,112.01
4506,B3,303.75,0.25,90,112.01
4507,C2,303.75,27/200,100,112.01
4508,B-2,303.75,27/200,100,112.01
4509,E1,304.0,271/500,115,112.01
4510,F#4,304.0,0.5,100,112.01
4511,G#2,304.0,0.094,100,112.01
4512,G#3,304.0,177/1000,100,112.01
4513,B3,304.0,173/200,100,112.01
4514,F#4,304.0,173/200,100,112.01
4515,D4,304.0,173/200,100,112.01
4516,G3,304.0,173/200,100,112.01
4517,E2,304.0,173/200,100,112.01
4518,D4,304.0,0.75,90,112.01
4519,F#4,304.0,0.75,90,112.01
4520,B3,304.0,0.75,90,112.01
4521,G#2,304.25,13/125,100,112.01
4522,E3,304.5,271/1000,115,112.01
4523,G#2,304.5,23/200,100,112.01
4524,E-2,305.0,49/100,115,112.01
4525,E5,305.0,0.75,100,112.01
4526,F4,305.0,173/200,100,112.01
4527,F#3,305.0,173/200,100,112.01
4528,C#4,305.0,173/200,100,112.01
4529,B-3,305.0,173/200,100,112.01
4530,E-2,305.0,173/200,100,112.01
4531,C#4,305.0,0.75,90,112.01
4532,F4,305.0,0.75,90,112.01
4533,B-3,305.0,0.75,90,112.01
4534,C2,305.0,27/200,100,112.01
4535,G#2,305.0,27/200,100,112.01
4536,E-3,305.5,77/200,115,112.01
4537,G#2,305.5,73/500,100,112.01
4538,D5,305.75,0.5,100,112.01
4539,D2,306.0,0.469,115,112.01
4540,C4,306.0,173/200,100,112.01
4541,A3,306.0,173/200,100,112.01
4542,E4,306.0,173/200,100,112.01
4543,F3,306.0,173/200,100,112.01
4544,D2,306.0,173/200,100,112.01
4545,C4,306.0,0.75,90,112.01
4546,E4,306.0,0.75,90,112.01
4547,A3,306.0,0.75,90,112.01
4548,C2,306.0,177/1000,100,112.01
4549,G#2,306.0,177/1000,100,112.01
4550,G#3,306.0,177/1000,100,112.01
4551,D3,306.5,151/500,115,112.01
4552,G#2,306.5,0.125,100,112.01
4553,C#2,307.0,427/1000,115,112.01
4554,B4,307.0,0.25,100,112.01
4555,E4,307.0,123/200,100,112.01
4556,G#3,307.0,123/200,100,112.01
4557,B3,307.0,123/200,100,112.01
4558,F3,307.0,123/200,100,112.01
4559,C#2,307.0,123/200,100,112.01
4560,E4,307.0,0.5,90,112.01
4561,B3,307.0,0.5,90,112.01
4562,G#3,307.0,0.5,90,112.01
4563,D2,307.0,27/200,100,112.01
4564,G#2,307.0,27/200,100,112.01
4565,E5,307.25,0.25,100,112.01
4566,C#3,307.5,229/1000,115,112.01
4567,G5,307.5,0.156,100,112.01
4568,G#2,307.5,27/200,100,112.01
4569,C2,307.75,0.25,115,112.01
4570,G5,307.75,0.25,100,112.01
4571,D4,307.75,0.25,100,112.01
4572,B-3,307.75,0.25,100,112.01
4573,E3,307.75,0.25,100,112.01
4574,G3,307.75,0.25,100,112.01
4575,C2,307.75,0.25,100,112.01
4576,B-3,307.75,0.25,90,112.01
4577,D4,307.75,0.25,90,112.01
4578,G3,307.75,0.25,90,112.01
4579,C2,307.75,0.125,100,112.01
4580,B-2,307.75,0.125,100,112.01
4581,C2,308.0,0.156,115,112.01
4582,G5,308.0,49/100,100,112.01
4583,G#2,308.0,13/125,100,112.01
4584,G#3,308.0,177/1000,100,112.01
4585,C3,308.25,0.438,115,112.01
4586,G#2,308.25,23/200,100,112.01
4587,G#2,308.5,23/200,100,112.01
4588,G5,308.75,49/100,100,112.01
4589,C2,309.0,6/25,115,112.01
4590,B-3,309.0,0.25,100,112.01
4591,G3,309.0,0.25,100,112.01
4592,D4,309.0,0.25,100,112.01
4593,E3,309.0,0.25,100,112.01
4594,C2,309.0,0.25,100,112.01
4595,B-3,309.0,0.25,90,112.01
4596,D4,309.0,0.25,90,112.01
4597,G3,309.0,0.25,90,112.01
4598,C2,309.0,0.125,100,112.01
4599,G#2,309.0,0.125,100,112.01
4600,C2,309.5,6/25,115,112.01
4601,E3,309.5,0.25,100,112.01
4602,B-3,309.5,0.25,100,112.01
4603,D4,309.5,0.25,100,112.01
4604,G3,309.5,0.25,100,112.01
4605,C2,309.5,0.25,100,112.01
4606,B-3,309.5,0.25,90,112.01
4607,D4,309.5,0.25,90,112.01
4608,G3,309.5,0.25,90,112.01
4609,C2,309.5,0.125,100,112.01
4610,G#2,309.5,0.125,100,112.01
4611,B1,310.0,99/125,115,112.01
4612,E-4,310.0,0.75,100,112.01
4613,G4,310.0,0.75,100,112.01
4614,A3,310.0,0.75,100,112.01
4615,C4,310.0,0.75,100,112.01
4616,B1,310.0,0.75,100,112.01
4617,G4,310.0,0.75,90,112.01
4618,E-4,310.0,0.75,90,112.01
4619,C4,310.0,0.75,90,112.01
4620,C2,310.0,99/500,100,112.01
4621,G#3,310.0,99/500,100,112.01
4622,G#2,310.0,99/500,100,112.01
4623,G#3,310.0,99/500,100,112.01
4624,G#2,310.5,27/200,100,112.01
4625,A2,311.0,0.219,115,112.01
4626,E-4,311.0,49/100,100,112.01
4627,C4,311.0,49/100,100,112.01
4628,G4,311.0,49/100,100,112.01
4629,A3,311.0,49/100,100,112.01
4630,B1,311.0,49/100,100,112.01
4631,G4,311.0,0.5,90,112.01
4632,E-4,311.0,0.5,90,112.01
4633,C4,311.0,0.5,90,112.01
4634,D2,311.0,73/500,100,112.01
4635,G#2,311.0,73/500,100,112.01
4636,B2,311.25,99/250,115,112.01
4637,G#2,311.5,27/200,100,112.01
4638,E1,311.75,0.25,115,112.01
4639,F#4,311.75,0.25,100,112.01
4640,D4,311.75,0.25,100,112.01
4641,B3,311.75,0.25,100,112.01
4642,G3,311.75,0.25,100,112.01
4643,E2,311.75,0.25,100,112.01
4644,B3,311.75,0.25,90,112.01
4645,F#4,311.75,0.25,90,112.01
4646,D4,311.75,0.25,90,112.01
4647,C2,311.75,0.156,100,112.01
4648,B-2,311.75,0.156,100,112.01
4649,E1,312.0,13/250,115,112.01
4650,G#2,312.0,13/125,100,112.01
4651,G#3,312.0,177/1000,100,112.01
4652,E3,312.25,177/250,115,112.01
4653,A5,312.25,0.25,100,112.01
4654,G#2,312.25,13/125,100,112.01
4655,G5,312.5,0.25,100,112.01
4656,G#2,312.5,23/200,100,112.01
4657,A5,312.75,0.25,100,112.01
4658,E2,313.0,6/25,115,112.01
4659,B5,313.0,0.25,100,112.01
4660,F#4,313.0,0.25,100,112.01
4661,B3,313.0,0.25,100,112.01
4662,D4,313.0,0.25,100,112.01
4663,G3,313.0,0.25,100,112.01
4664,E2,313.0,0.25,100,112.01
4665,F#4,313.0,0.25,90,112.01
4666,B3,313.0,0.25,90,112.01
4667,D4,313.0,0.25,90,112.01
4668,C2,313.0,27/200,100,112.01
4669,G#2,313.0,27/200,100,112.01
4670,G5,313.25,0.25,100,112.01
4671,D2,313.5,0.219,115,112.01
4672,F#5,313.5,0.25,100,112.01
4673,B3,313.5,0.25,100,112.01
4674,G3,313.5,0.25,100,112.01
4675,F#4,313.5,0.25,100,112.01
4676,D4,313.5,0.25,100,112.01
4677,E2,313.5,0.25,100,112.01
4678,F#4,313.5,0.25,90,112.01
4679,D4,313.5,0.25,90,112.01
4680,B3,313.5,0.25,90,112.01
4681,C2,313.5,27/200,100,112.01
4682,G#2,313.5,27/200,100,112.01
4683,A5,313.75,0.25,100,112.01
4684,C#2,314.0,427/1000,115,112.01
4685,G5,314.0,0.25,100,112.01
4686,G#3,314.0,0.75,100,112.01
4687,E4,314.0,0.75,100,112.01
4688,B3,314.0,0.75,100,112.01
4689,F3,314.0,0.75,100,112.01
4690,C#2,314.0,0.75,100,112.01
4691,B3,314.0,0.75,90,112.01
4692,G#3,314.0,0.75,90,112.01
4693,E4,314.0,0.75,90,112.01
4694,C2,314.0,0.188,100,112.01
4695,G#2,314.0,0.188,100,112.01
4696,G#3,314.0,0.188,100,112.01
4697,B4,314.25,0.5,100,112.01
4698,C#3,314.5,0.344,115,112.01
4699,G#2,314.5,27/200,100,112.01
4700,C#2,315.0,49/100,115,112.01
4701,E4,315.0,0.5,100,112.01
4702,B3,315.0,0.5,100,112.01
4703,G#3,315.0,0.5,100,112.01
4704,F3,315.0,0.5,100,112.01
4705,C#2,315.0,0.5,100,112.01
4706,E4,315.0,0.5,90,112.01
4707,B3,315.0,0.5,90,112.01
4708,G#3,315.0,0.5,90,112.01
4709,D2,315.0,27/200,100,112.01
4710,G#2,315.0,27/200,100,112.01
4711,G#2,315.5,0.125,100,112.01
4712,C2,315.75,0.25,115,112.01
4713,D4,315.75,0.25,100,112.01
4714,B-3,315.75,0.25,100,112.01
4715,E3,315.75,0.25,100,112.01
4716,G3,315.75,0.25,100,112.01
4717,C2,315.75,0.25,100,112.01
4718,B-3,315.75,0.25,90,112.01
4719,D4,315.75,0.25,90,112.01
4720,G3,315.75,0.25,90,112.01
4721,C2,315.75,0.125,100,112.01
4722,B-2,315.75,0.125,100,112.01
4723,C2,316.0,99/500,115,112.01
4724,G#2,316.0,0.188,100,112.01
4725,G#3,316.0,0.188,100,112.01
4726,C3,316.25,0.469,115,112.01
4727,G#2,316.25,13/125,100,112.01
4728,G#2,316.5,73/500,100,112.01
4729,C2,317.0,0.219,115,112.01
4730,E5,317.0,0.25,100,112.01
4731,B-3,317.0,0.25,100,112.01
4732,G3,317.0,0.25,100,112.01
4733,D4,317.0,0.25,100,112.01
4734,E3,317.0,0.25,100,112.01
4735,C2,317.0,0.25,100,112.01
4736,D4,317.0,0.25,90,112.01
4737,B-3,317.0,0.25,90,112.01
4738,G3,317.0,0.25,90,112.01
4739,C2,317.0,0.125,100,112.01
4740,G#2,317.0,0.125,100,112.01
4741,C2,317.5,26/125,115,112.01
4742,G5,317.5,0.25,100,112.01
4743,E3,317.5,0.25,100,112.01
4744,B-3,317.5,0.25,100,112.01
4745,G3,317.5,0.25,100,112.01
4746,D4,317.5,0.25,100,112.01
4747,C2,317.5,0.25,100,112.01
4748,B-3,317.5,0.25,90,112.01
4749,G3,317.5,0.25,90,112.01
4750,D4,317.5,0.25,90,112.01
4751,C2,317.5,27/200,100,112.01
4752,G#2,317.5,27/200,100,112.01
4753,B1,318.0,0.719,115,112.01
4754,A5,318.0,0.156,100,112.01
4755,E-4,318.0,0.75,100,112.01
4756,C4,318.0,0.75,100,112.01
4757,G4,318.0,0.75,100,112.01
4758,A3,318.0,0.75,100,112.01
4759,B1,318.0,0.75,100,112.01
4760,G4,318.0,0.75,90,112.01
4761,E-4,318.0,0.75,90,112.01
4762,C4,318.0,0.75,90,112.01
4763,C2,318.0,99/500,100,112.01
4764,G#2,318.0,99/500,100,112.01
4765,G#3,318.0,99/500,100,112.01
4766,A5,318.25,0.25,100,112.01
4767,G5,318.5,0.25,100,112.01
4768,G#2,318.5,27/200,100,112.01
4769,A5,318.75,0.25,100,112.01
4770,B1,319.0,49/100,115,112.01
4771,E-4,319.0,0.5,100,112.01
4772,C4,319.0,0.5,100,112.01
4773,G4,319.0,0.5,100,112.01
4774,A3,319.0,0.5,100,112.01
4775,B1,319.0,0.5,100,112.01
4776,E-4,319.0,0.5,90,112.01
4777,G4,319.0,0.5,90,112.01
4778,C4,319.0,0.5,90,112.01
4779,D2,319.0,73/500,100,112.01
4780,G#2,319.0,73/500,100,112.01
4781,B-5,319.25,0.25,100,112.01
4782,G#2,319.5,27/200,100,112.01
4783,E1,319.75,0.25,115,112.01
4784,B5,319.75,0.25,100,112.01
4785,B3,319.75,0.25,100,112.01
4786,F#4,319.75,0.25,100,112.01
4787,D4,319.75,0.25,100,112.01
4788,G3,319.75,0.25,100,112.01
4789,E2,319.75,0.25,100,112.01
4790,F#4,319.75,0.25,90,112.01
4791,D4,319.75,0.25,90,112.01
4792,B3,319.75,0.25,90,112.01
4793,C2,319.75,0.125,100,112.01
4794,B-2,319.75,0.125,100,112.01
4795,E1,320.0,271/500,115,112.01
4796,B5,320.0,0.5,100,112.01
4797,G#2,320.0,0.094,100,112.01
4798,G#3,320.0,0.188,100,112.01
4799,B3,320.0,173/200,100,112.01
4800,F#4,320.0,173/200,100,112.01
4801,D4,320.0,173/200,100,112.01
4802,G3,320.0,173/200,100,112.01
4803,E2,320.0,173/200,100,112.01
4804,F#4,320.0,0.75,90,112.01
4805,D4,320.0,0.75,90,112.01
4806,B3,320.0,0.75,90,112.01
4807,G#2,320.25,13/125,100,112.01
4808,E3,320.5,271/1000,115,112.01
4809,G#2,320.5,73/500,100,112.01
4810,E-2,321.0,49/100,115,112.01
4811,E6,321.0,1.75,100,112.01
4812,F4,321.0,173/200,100,112.01
4813,F#3,321.0,173/200,100,112.01
4814,C#4,321.0,173/200,100,112.01
4815,B-3,321.0,173/200,100,112.01
4816,E-2,321.0,173/200,100,112.01
4817,F4,321.0,0.75,90,112.01
4818,C#4,321.0,0.75,90,112.01
4819,B-3,321.0,0.75,90,112.01
4820,C2,321.0,0.156,100,112.01
4821,G#2,321.0,0.156,100,112.01
4822,E-3,321.5,77/200,115,112.01
4823,G#2,321.5,73/500,100,112.01
4824,D2,322.0,0.469,115,112.01
4825,C4,322.0,173/200,100,112.01
4826,A3,322.0,173/200,100,112.01
4827,E4,322.0,173/200,100,112.01
4828,F3,322.0,173/200,100,112.01
4829,D2,322.0,173/200,100,112.01
4830,E4,322.0,0.75,90,112.01
4831,C4,322.0,0.75,90,112.01
4832,A3,322.0,0.75,90,112.01
4833,C2,322.0,0.188,100,112.01
4834,G#2,322.0,0.188,100,112.01
4835,G#3,322.0,0.188,100,112.01
4836,D3,322.5,151/500,115,112.01
4837,G#2,322.5,27/200,100,112.01
4838,C#2,323.0,427/1000,115,112.01
4839,E-6,323.0,0.5,100,112.01
4840,E4,323.0,123/200,100,112.01
4841,G#3,323.0,123/200,100,112.01
4842,B3,323.0,123/200,100,112.01
4843,F3,323.0,123/200,100,112.01
4844,C#2,323.0,123/200,100,112.01
4845,E4,323.0,0.5,90,112.01
4846,G#3,323.0,0.5,90,112.01
4847,B3,323.0,0.5,90,112.01
4848,D2,323.0,167/1000,100,112.01
4849,G#2,323.0,167/1000,100,112.01
4850,C#3,323.5,229/1000,115,112.01
4851,G#2,323.5,27/200,100,112.01
4852,C2,323.75,0.25,115,112.01
4853,D6,323.75,0.25,100,112.01
4854,D4,323.75,0.25,100,112.01
4855,B-3,323.75,0.25,100,112.01
4856,E3,323.75,0.25,100,112.01
4857,G3,323.75,0.25,100,112.01
4858,C2,323.75,0.25,100,112.01
4859,B-3,323.75,0.25,90,112.01
4860,G3,323.75,0.25,90,112.01
4861,D4,323.75,0.25,90,112.01
4862,C2,323.75,0.156,100,112.01
4863,B-2,323.75,0.156,100,112.01
4864,C2,324.0,0.156,115,112.01
4865,D6,324.0,6/25,100,112.01
4866,G#2,324.0,0.094,100,112.01
4867,G#3,324.0,177/1000,100,112.01
4868,C3,324.25,0.438,115,112.01
4869,G#2,324.25,0.094,100,112.01
4870,G#2,324.5,27/200,100,112.01
4871,C2,325.0,6/25,115,112.01
4872,B-3,325.0,0.25,100,112.01
4873,G3,325.0,0.25,100,112.01
4874,D4,325.0,0.25,100,112.01
4875,E3,325.0,0.25,100,112.01
4876,C2,325.0,0.25,100,112.01
4877,B-3,325.0,0.25,90,112.01
4878,D4,325.0,0.25,90,112.01
4879,G3,325.0,0.25,90,112.01
4880,C2,325.0,0.125,100,112.01
4881,G#2,325.0,0.125,100,112.01
4882,C2,325.5,6/25,115,112.01
4883,D5,325.5,0.25,100,112.01
4884,E3,325.5,0.25,100,112.01
4885,B-3,325.5,0.25,100,112.01
4886,D4,325.5,0.25,100,112.01
4887,G3,325.5,0.25,100,112.01
4888,C2,325.5,0.25,100,112.01
4889,B-3,325.5,0.25,90,112.01
4890,G3,325.5,0.25,90,112.01
4891,D4,325.5,0.25,90,112.01
4892,C2,325.5,27/200,100,112.01
4893,G#2,325.5,27/200,100,112.01
4894,B1,326.0,99/125,115,112.01
4895,D6,326.0,0.5,100,112.01
4896,E-4,326.0,0.75,100,112.01
4897,G4,326.0,0.75,100,112.01
4898,A3,326.0,0.75,100,112.01
4899,C4,326.0,0.75,100,112.01
4900,B1,326.0,0.75,100,112.01
4901,G4,326.0,0.75,90,112.01
4902,E-4,326.0,0.75,90,112.01
4903,C4,326.0,0.75,90,112.01
4904,C2,326.0,0.188,100,112.01
4905,G#2,326.0,0.188,100,112.01
4906,G#3,326.0,0.188,100,112.01
4907,G#2,326.5,0.125,100,112.01
4908,A2,327.0,0.219,115,112.01
4909,C6,327.0,0.25,100,112.01
4910,E-4,327.0,49/100,100,112.01
4911,C4,327.0,49/100,100,112.01
4912,G4,327.0,49/100,100,112.01
4913,A3,327.0,49/100,100,112.01
4914,B1,327.0,49/100,100,112.01
4915,G4,327.0,0.5,90,112.01
4916,E-4,327.0,0.5,90,112.01
4917,C4,327.0,0.5,90,112.01
4918,D2,327.0,73/500,100,112.01
4919,G#2,327.0,73/500,100,112.01
4920,B2,327.25,99/250,115,112.01
4921,D6,327.25,0.25,100,112.01
4922,G#2,327.5,0.125,100,112.01
4923,E1,327.75,0.25,115,112.01
4924,B5,327.75,0.25,100,112.01
4925,F#4,327.75,0.25,100,112.01
4926,D4,327.75,0.25,100,112.01
4927,B3,327.75,0.25,100,112.01
4928,G3,327.75,0.25,100,112.01
4929,E2,327.75,0.25,100,112.01
4930,B3,327.75,0.25,90,112.01
4931,F#4,327.75,0.25,90,112.01
4932,D4,327.75,0.25,90,112.01
4933,C2,327.75,27/200,100,112.01
4934,B-2,327.75,27/200,100,112.01
4935,E1,328.0,13/250,115,112.01
4936,B5,328.0,1.25,100,112.01
4937,G#2,328.0,13/125,100,112.01
4938,G#3,328.0,177/1000,100,112.01
4939,E3,328.25,177/250,115,112.01
4940,G#2,328.25,13/125,100,112.01
4941,G#2,328.5,27/200,100,112.01
4942,E2,329.0,6/25,115,112.01
4943,F#4,329.0,0.25,100,112.01
4944,B3,329.0,0.25,100,112.01
4945,D4,329.0,0.25,100,112.01
4946,G3,329.0,0.25,100,112.01
4947,E2,329.0,0.25,100,112.01
4948,F#4,329.0,0.25,90,112.01
4949,D4,329.0,0.25,90,112.01
4950,B3,329.0,0.25,90,112.01
4951,C2,329.0,73/500,100,112.01
4952,G#2,329.0,73/500,100,112.01
4953,D2,329.5,0.219,115,112.01
4954,A5,329.5,0.25,100,112.01
4955,B3,329.5,0.25,100,112.01
4956,G3,329.5,0.25,100,112.01
4957,F#4,329.5,0.25,100,112.01
4958,D4,329.5,0.25,100,112.01
4959,E2,329.5,0.25,100,112.01
4960,F#4,329.5,0.25,90,112.01
4961,D4,329.5,0.25,90,112.01
4962,B3,329.5,0.25,90,112.01
4963,C2,329.5,0.156,100,112.01
4964,G#2,329.5,0.156,100,112.01
4965,G5,329.75,0.25,100,112.01
4966,C#2,330.0,427/1000,115,112.01
4967,F#5,330.0,823/1000,100,112.01
4968,G#3,330.0,0.75,100,112.01
4969,E4,330.0,0.75,100,112.01
4970,B3,330.0,0.75,100,112.01
4971,F3,330.0,0.75,100,112.01
4972,C#2,330.0,0.75,100,112.01
4973,B3,330.0,0.75,90,112.01
4974,E4,330.0,0.75,90,112.01
4975,G#3,330.0,0.75,90,112.01
4976,C2,330.0,0.188,100,112.01
4977,G#2,330.0,0.188,100,112.01
4978,G#3,330.0,0.188,100,112.01
4979,C#3,330.5,0.344,115,112.01
4980,G#2,330.5,27/200,100,112.01
4981,C#2,331.0,49/100,115,112.01
4982,G5,331.0,0.25,100,112.01
4983,E4,331.0,0.5,100,112.01
4984,B3,331.0,0.5,100,112.01
4985,G#3,331.0,0.5,100,112.01
4986,F3,331.0,0.5,100,112.01
4987,C#2,331.0,0.5,100,112.01
4988,E4,331.0,0.5,90,112.01
4989,B3,331.0,0.5,90,112.01
4990,G#3,331.0,0.5,90,112.01
4991,D2,331.0,27/200,100,112.01
4992,G#2,331.0,27/200,100,112.01
4993,A5,331.5,0.25,100,112.01
4994,G#2,331.5,0.125,100,112.01
4995,C2,331.75,0.25,115,112.01
4996,G5,331.75,0.25,100,112.01
4997,D4,331.75,0.25,100,112.01
4998,B-3,331.75,0.25,100,112.01
4999,E3,331.75,0.25,100,112.01
5000,G3,331.75,0.25,100,112.01
5001,C2,331.75,0.25,100,112.01
5002,D4,331.75,0.25,90,112.01
5003,B-3,331.75,0.25,90,112.01
5004,G3,331.75,0.25,90,112.01
5005,C2,331.75,23/200,100,112.01
5006,B-2,331.75,23/200,100,112.01
5007,C2,332.0,99/500,115,112.01
5008,G#2,332.0,13/125,100,112.01
5009,G#3,332.0,0.188,100,112.01
5010,C3,332.25,0.469,115,112.01
5011,E5,332.25,1.5,100,112.01
5012,G#2,332.25,13/125,100,112.01
5013,G#2,332.5,23/200,100,112.01
5014,C2,333.0,0.219,115,112.01
5015,B-3,333.0,0.25,100,112.01
5016,G3,333.0,0.25,100,112.01
5017,D4,333.0,0.25,100,112.01
5018,E3,333.0,0.25,100,112.01
5019,C2,333.0,0.25,100,112.01
5020,D4,333.0,0.25,90,112.01
5021,B-3,333.0,0.25,90,112.01
5022,G3,333.0,0.25,90,112.01
5023,C2,333.0,27/200,100,112.01
5024,G#2,333.0,27/200,100,112.01
5025,C2,333.5,26/125,115,112.01
5026,E3,333.5,0.25,100,112.01
5027,B-3,333.5,0.25,100,112.01
5028,G3,333.5,0.25,100,112.01
5029,D4,333.5,0.25,100,112.01
5030,C2,333.5,0.25,100,112.01
5031,B-3,333.5,0.25,90,112.01
5032,G3,333.5,0.25,90,112.01
5033,D4,333.5,0.25,90,112.01
5034,C2,333.5,73/500,100,112.01
5035,G#2,333.5,73/500,100,112.01
5036,B1,334.0,0.719,115,112.01
5037,E-4,334.0,0.75,100,112.01
5038,C4,334.0,0.75,100,112.01
5039,G4,334.0,0.75,100,112.01
5040,A3,334.0,0.75,100,112.01
5041,B1,334.0,0.75,100,112.01
5042,G4,334.0,0.75,90,112.01
5043,E-4,334.0,0.75,90,112.01
5044,C4,334.0,0.75,90,112.01
5045,C2,334.0,0.188,100,112.01
5046,G#2,334.0,0.188,100,112.01
5047,G#3,334.0,0.188,100,112.01
5048,G#2,334.5,0.156,100,112.01
5049,B1,335.0,49/100,115,112.01
5050,D5,335.0,0.25,100,112.01
5051,E-4,335.0,0.5,100,112.01
5052,C4,335.0,0.5,100,112.01
5053,G4,335.0,0.5,100,112.01
5054,A3,335.0,0.5,100,112.01
5055,B1,335.0,0.5,100,112.01
5056,E-4,335.0,0.5,90,112.01
5057,G4,335.0,0.5,90,112.01
5058,C4,335.0,0.5,90,112.01
5059,D2,335.0,0.125,100,112.01
5060,G#2,335.0,0.125,100,112.01
5061,E5,335.25,0.25,100,112.01
5062,G#2,335.5,0.094,100,112.01
5063,E1,335.75,0.25,115,112.01
5064,G5,335.75,0.25,100,112.01
5065,B3,335.75,0.25,100,112.01
5066,F#4,335.75,0.25,100,112.01
5067,D4,335.75,0.25,100,112.01
5068,G3,335.75,0.25,100,112.01
5069,E2,335.75,0.25,100,112.01
5070,F#4,335.75,0.25,90,112.01
5071,D4,335.75,0.25,90,112.01
5072,B3,335.75,0.25,90,112.01
5073,C2,335.75,0.125,100,112.01
5074,B-2,335.75,0.125,100,112.01
5075,E1,336.0,271/500,115,112.01
5076,G#2,336.0,0.094,100,112.01
5077,G#3,336.0,177/1000,100,112.01
5078,B3,336.0,173/200,100,112.01
5079,F#4,336.0,173/200,100,112.01
5080,D4,336.0,173/200,100,112.01
5081,G3,336.0,173/200,100,112.01
5082,E2,336.0,173/200,100,112.01
5083,F#4,336.0,0.75,90,112.01
5084,D4,336.0,0.75,90,112.01
5085,B3,336.0,0.75,90,112.01
5086,G#2,336.25,13/125,100,112.01
5087,E3,336.5,271/1000,115,112.01
5088,G#2,336.5,23/200,100,112.01
5089,E-2,337.0,49/100,115,112.01
5090,F#5,337.0,0.25,100,112.01
5091,F4,337.0,173/200,100,112.01
5092,F#3,337.0,173/200,100,112.01
5093,C#4,337.0,173/200,100,112.01
5094,B-3,337.0,173/200,100,112.01
5095,E-2,337.0,173/200,100,112.01
5096,F4,337.0,0.75,90,112.01
5097,C#4,337.0,0.75,90,112.01
5098,B-3,337.0,0.75,90,112.01
5099,C2,337.0,27/200,100,112.01
5100,G#2,337.0,27/200,100,112.01
5101,G5,337.25,0.25,100,112.01
5102,E-3,337.5,77/200,115,112.01
5103,G#2,337.5,27/200,100,112.01
5104,A5,337.75,0.25,100,112.01
5105,D2,338.0,0.469,115,112.01
5106,C4,338.0,173/200,100,112.01
5107,A3,338.0,173/200,100,112.01
5108,E4,338.0,173/200,100,112.01
5109,F3,338.0,173/200,100,112.01
5110,D2,338.0,173/200,100,112.01
5111,E4,338.0,37/50,90,112.01
5112,C4,338.0,37/50,90,112.01
5113,A3,338.0,37/50,90,112.01
5114,C2,338.0,177/1000,100,112.01
5115,G#2,338.0,177/1000,100,112.01
5116,G#3,338.0,177/1000,100,112.01
5117,D3,338.5,151/500,115,112.01
5118,G#2,338.5,27/200,100,112.01
5119,C#2,339.0,427/1000,115,112.01
5120,G5,339.0,0.25,100,112.01
5121,E4,339.0,123/200,100,112.01
5122,G#3,339.0,123/200,100,112.01
5123,B3,339.0,123/200,100,112.01
5124,F3,339.0,123/200,100,112.01
5125,C#2,339.0,123/200,100,112.01
5126,E4,339.0,0.5,90,112.01
5127,B3,339.0,0.5,90,112.01
5128,G#3,339.0,0.5,90,112.01
5129,D2,339.0,27/200,100,112.01
5130,G#2,339.0,27/200,100,112.01
5131,A5,339.25,0.25,100,112.01
5132,C#3,339.5,229/1000,115,112.01
5133,G#2,339.5,23/200,100,112.01
5134,C2,339.75,0.25,115,112.01
5135,E6,339.75,0.25,100,112.01
5136,D4,339.75,0.25,100,112.01
5137,B-3,339.75,0.25,100,112.01
5138,E3,339.75,0.25,100,112.01
5139,G3,339.75,0.25,100,112.01
5140,C2,339.75,0.25,100,112.01
5141,B-3,339.75,0.25,90,112.01
5142,D4,339.75,0.25,90,112.01
5143,G3,339.75,0.25,90,112.01
5144,C2,339.75,0.125,100,112.01
5145,B-2,339.75,0.125,100,112.01
5146,C2,340.0,0.156,115,112.01
5147,E6,340.0,0.25,100,112.01
5148,G#2,340.0,83/1000,100,112.01
5149,G#3,340.0,177/1000,100,112.01
5150,C3,340.25,0.438,115,112.01
5151,G#2,340.25,83/1000,100,112.01
5152,F#6,340.5,0.25,100,112.01
5153,G#2,340.5,23/200,100,112.01
5154,G6,340.75,0.25,100,112.01
5155,C2,341.0,6/25,115,112.01
5156,B-3,341.0,0.25,100,112.01
5157,G3,341.0,0.25,100,112.01
5158,D4,341.0,0.25,100,112.01
5159,E3,341.0,0.25,100,112.01
5160,C2,341.0,0.25,100,112.01
5161,B-3,341.0,0.25,90,112.01
5162,D4,341.0,0.25,90,112.01
5163,G3,341.0,0.25,90,112.01
5164,C2,341.0,0.125,100,112.01
5165,G#2,341.0,0.125,100,112.01
5166,C2,341.5,6/25,115,112.01
5167,E3,341.5,0.25,100,112.01
5168,B-3,341.5,0.25,100,112.01
5169,D4,341.5,0.25,100,112.01
5170,G3,341.5,0.25,100,112.01
5171,C2,341.5,0.25,100,112.01
5172,B-3,341.5,0.25,90,112.01
5173,G3,341.5,0.25,90,112.01
5174,D4,341.5,0.25,90,112.01
5175,C2,341.5,23/200,100,112.01
5176,G#2,341.5,23/200,100,112.01
5177,B1,342.0,99/125,115,112.01
5178,E-4,342.0,0.75,100,112.01
5179,G4,342.0,0.75,100,112.01
5180,A3,342.0,0.75,100,112.01
5181,C4,342.0,0.75,100,112.01
5182,B1,342.0,0.75,100,112.01
5183,E-4,342.0,0.75,90,112.01
5184,G4,342.0,0.75,90,112.01
5185,C4,342.0,0.75,90,112.01
5186,C2,342.0,0.188,100,112.01
5187,G#2,342.0,0.188,100,112.01
5188,G#3,342.0,0.188,100,112.01
5189,G#2,342.5,0.125,100,112.01
5190,A2,343.0,0.219,115,112.01
5191,D6,343.0,0.25,100,112.01
5192,E-4,343.0,49/100,100,112.01
5193,C4,343.0,49/100,100,112.01
5194,G4,343.0,49/100,100,112.01
5195,A3,343.0,49/100,100,112.01
5196,B1,343.0,49/100,100,112.01
5197,E-4,343.0,0.5,90,112.01
5198,G4,343.0,0.5,90,112.01
5199,C4,343.0,0.5,90,112.01
5200,D2,343.0,27/200,100,112.01
5201,G#2,343.0,27/200,100,112.01
5202,B2,343.25,99/250,115,112.01
5203,E6,343.25,0.25,100,112.01
5204,G6,343.5,0.156,100,112.01
5205,G#2,343.5,0.125,100,112.01
5206,E1,343.75,0.25,115,112.01
5207,G6,343.75,0.25,100,112.01
5208,F#4,343.75,0.25,100,112.01
5209,D4,343.75,0.25,100,112.01
5210,B3,343.75,0.25,100,112.01
5211,G3,343.75,0.25,100,112.01
5212,E2,343.75,0.25,100,112.01
5213,B3,343.75,0.25,90,112.01
5214,D4,343.75,0.25,90,112.01
5215,F#4,343.75,0.25,90,112.01
5216,C2,343.75,23/200,100,112.01
5217,B-2,343.75,23/200,100,112.01
5218,E1,344.0,13/250,115,112.01
5219,G6,344.0,0.5,100,112.01
5220,G#2,344.0,23/200,100,112.01
5221,G#3,344.0,99/500,100,112.01
5222,E3,344.25,177/250,115,112.01
5223,G#2,344.25,83/1000,100,112.01
5224,E6,344.5,0.25,100,112.01
5225,G#2,344.5,23/200,100,112.01
5226,D6,344.75,0.25,100,112.01
5227,E2,345.0,6/25,115,112.01
5228,B5,345.0,0.25,100,112.01
5229,F#4,345.0,0.25,100,112.01
5230,B3,345.0,0.25,100,112.01
5231,D4,345.0,0.25,100,112.01
5232,G3,345.0,0.25,100,112.01
5233,E2,345.0,0.25,100,112.01
5234,B3,345.0,0.25,90,112.01
5235,F#4,345.0,0.25,90,112.01
5236,D4,345.0,0.25,90,112.01
5237,C2,345.0,27/200,100,112.01
5238,G#2,345.0,27/200,100,112.01
5239,A5,345.25,0.25,100,112.01
5240,D2,345.5,0.219,115,112.01
5241,G5,345.5,0.25,100,112.01
5242,B3,345.5,0.25,100,112.01
5243,G3,345.5,0.25,100,112.01
5244,F#4,345.5,0.25,100,112.01
5245,D4,345.5,0.25,100,112.01
5246,E2,345.5,0.25,100,112.01
5247,F#4,345.5,0.25,90,112.01
5248,B3,345.5,0.25,90,112.01
5249,D4,345.5,0.25,90,112.01
5250,C2,345.5,0.125,100,112.01
5251,G#2,345.5,0.125,100,112.01
5252,E5,345.75,0.25,100,112.01
5253,C#2,346.0,427/1000,115,112.01
5254,G#3,346.0,0.75,100,112.01
5255,E4,346.0,0.75,100,112.01
5256,B3,346.0,0.75,100,112.01
5257,F3,346.0,0.75,100,112.01
5258,C#2,346.0,0.75,100,112.01
5259,E4,346.0,0.75,90,112.01
5260,G#3,346.0,0.75,90,112.01
5261,B3,346.0,0.75,90,112.01
5262,C2,346.0,167/1000,100,112.01
5263,G#2,346.0,167/1000,100,112.01
5264,G#3,346.0,167/1000,100,112.01
5265,C#3,346.5,0.344,115,112.01
5266,G5,346.5,0.25,100,112.01
5267,G#2,346.5,27/200,100,112.01
5268,C#2,347.0,49/100,115,112.01
5269,A5,347.0,0.25,100,112.01
5270,E4,347.0,0.5,100,112.01
5271,B3,347.0,0.5,100,112.01
5272,G#3,347.0,0.5,100,112.01
5273,F3,347.0,0.5,100,112.01
5274,C#2,347.0,0.5,100,112.01
5275,E4,347.0,0.5,90,112.01
5276,B3,347.0,0.5,90,112.01
5277,G#3,347.0,0.5,90,112.01
5278,D2,347.0,27/200,100,112.01
5279,G#2,347.0,27/200,100,112.01
5280,G5,347.25,0.25,100,112.01
5281,G#2,347.5,23/200,100,112.01
5282,C2,347.75,0.25,115,112.01
5283,B5,347.75,0.25,100,112.01
5284,D4,347.75,0.25,100,112.01
5285,B-3,347.75,0.25,100,112.01
5286,E3,347.75,0.25,100,112.01
5287,G3,347.75,0.25,100,112.01
5288,C2,347.75,0.25,100,112.01
5289,B-3,347.75,0.25,90,112.01
5290,D4,347.75,0.25,90,112.01
5291,G3,347.75,0.25,90,112.01
5292,C2,347.75,13/125,100,112.01
5293,B-2,347.75,13/125,100,112.01
5294,C2,348.0,99/500,115,112.01
5295,G#2,348.0,13/125,100,112.01
5296,G#3,348.0,177/1000,100,112.01
5297,C3,348.25,0.469,115,112.01
5298,A5,348.25,0.25,100,112.01
5299,G#2,348.25,0.094,100,112.01
5300,G#2,348.5,23/200,100,112.01
5301,D6,348.75,2.25,100,112.01
5302,C2,349.0,0.219,115,112.01
5303,B-3,349.0,0.25,100,112.01
5304,E3,349.0,0.25,100,112.01
5305,G3,349.0,0.25,100,112.01
5306,D4,349.0,0.25,100,112.01
5307,C2,349.0,0.25,100,112.01
5308,D4,349.0,0.25,90,112.01
5309,B-3,349.0,0.25,90,112.01
5310,G3,349.0,0.25,90,112.01
5311,C2,349.0,0.125,100,112.01
5312,G#2,349.0,0.125,100,112.01
5313,C2,349.5,26/125,115,112.01
5314,E3,349.5,0.25,100,112.01
5315,B-3,349.5,0.25,100,112.01
5316,G3,349.5,0.25,100,112.01
5317,D4,349.5,0.25,100,112.01
5318,C2,349.5,0.25,100,112.01
5319,D4,349.5,0.25,90,112.01
5320,B-3,349.5,0.25,90,112.01
5321,G3,349.5,0.25,90,112.01
5322,C2,349.5,73/500,100,112.01
5323,G#2,349.5,73/500,100,112.01
5324,B1,350.0,0.719,115,112.01
5325,G4,350.0,0.75,100,112.01
5326,A3,350.0,0.75,100,112.01
5327,C4,350.0,0.75,100,112.01
5328,E-4,350.0,0.75,100,112.01
5329,B1,350.0,0.75,100,112.01
5330,E-4,350.0,0.75,90,112.01
5331,C4,350.0,0.75,90,112.01
5332,G4,350.0,0.75,90,112.01
5333,C2,350.0,0.188,100,112.01
5334,G#2,350.0,0.188,100,112.01
5335,G#3,350.0,0.188,100,112.01
5336,G#2,350.5,27/200,100,112.01
5337,B1,351.0,49/100,115,112.01
5338,A3,351.0,0.5,100,112.01
5339,E-4,351.0,0.5,100,112.01
5340,C4,351.0,0.5,100,112.01
5341,G4,351.0,0.5,100,112.01
5342,B1,351.0,0.5,100,112.01
5343,E-4,351.0,0.5,90,112.01
5344,G4,351.0,0.5,90,112.01
5345,C4,351.0,0.5,90,112.01
5346,D2,351.0,0.156,100,112.01
5347,G#2,351.0,0.156,100,112.01
5348,D2,351.25,0.125,100,112.01
5349,D2,351.5,0.125,100,112.01
5350,G#2,351.5,0.125,100,112.01
5351,E-2,351.75,6/25,115,112.01
5352,E-3,351.75,0.25,90,112.01
5353,E-4,351.75,0.25,100,112.01
5354,E-2,351.75,0.25,100,112.01
5355,E-3,351.75,0.25,100,112.01
5356,E-3,351.75,27/200,100,112.01
5357,C2,351.75,27/200,100,112.01
5358,B-2,351.75,27/200,100,112.01
5359,E3,352.0,0.0,90,112.01
5360,E2,352.0,6/25,115,112.01
5361,E3,352.0,0.25,90,112.01
5362,E4,352.0,0.25,100,112.01
5363,E2,352.0,0.25,100,112.01
5364,E3,352.0,0.25,100,112.01
5365,G#2,352.0,73/500,100,112.01
5366,G#3,352.0,73/500,100,112.01
5367,B-1,352.25,6/25,115,112.01
5368,B-3,352.25,0.25,90,112.01
5369,B-4,352.25,0.25,100,112.01
5370,B-2,352.25,0.25,100,112.01
5371,B-3,352.25,0.25,100,112.01
5372,A1,352.5,6/25,115,112.01
5373,A3,352.5,0.25,90,112.01
5374,A4,352.5,0.25,100,112.01
5375,G#2,352.5,27/200,100,112.01
5376,A2,352.5,0.25,100,112.01
5377,A3,352.5,0.25,100,112.01
5378,G1,352.75,6/25,115,112.01
5379,G3,352.75,0.25,90,112.01
5380,G4,352.75,0.25,100,112.01
5381,G2,352.75,0.25,100,112.01
5382,G3,352.75,0.25,100,112.01
5383,D2,353.0,6/25,115,112.01
5384,D4,353.0,0.25,90,112.01
5385,D5,353.0,0.25,100,112.01
5386,G#2,353.0,23/200,100,112.01
5387,D3,353.0,0.25,100,112.01
5388,D4,353.0,0.25,100,112.01
5389,C2,353.25,6/25,115,112.01
5390,C4,353.25,0.25,90,112.01
5391,C5,353.25,0.25,100,112.01
5392,C3,353.25,0.25,100,112.01
5393,C4,353.25,0.25,100,112.01
5394,B1,353.5,6/25,115,112.01
5395,B3,353.5,0.25,90,112.01
5396,B4,353.5,0.25,100,112.01
5397,G#2,353.5,23/200,100,112.01
5398,B2,353.5,0.25,100,112.01
5399,B3,353.5,0.25,100,112.01
5400,E-2,353.75,1823/1000,115,112.01
5401,E-4,353.75,1.75,90,112.01
5402,E-5,353.75,2.0,100,112.01
5403,E-3,353.75,373/200,100,112.01
5404,E-4,353.75,373/200,100,112.01
5405,C#3,353.75,73/500,100,112.01
5406,C2,353.75,73/500,100,112.01
5407,B-2,353.75,73/500,100,112.01
5408,G#2,354.0,73/500,100,112.01
5409,F#2,355.75,0.25,100,112.01
5410,F#1,355.75,0.25,115,112.01
5411,G#4,355.75,0.25,100,112.01
5412,E4,355.75,0.25,100,112.01
5413,C#4,355.75,0.25,100,112.01
5414,A3,355.75,0.25,100,112.01
5415,C2,355.75,0.125,100,112.01
5416,G#2,355.75,0.125,100,112.01
5417,F#2,356.0,1.25,100,112.01
5418,F#1,356.0,0.25,115,112.01
5419,G#4,356.0,87/50,100,112.01
5420,E4,356.0,87/50,100,112.01
5421,C#4,356.0,87/50,100,112.01
5422,A3,356.0,87/50,100,112.01
5423,F#2,356.25,6/25,115,112.01
5424,G#2,356.25,21/500,100,112.01
5425,F#1,356.5,0.25,115,112.01
5426,G#2,356.5,23/200,100,112.01
5427,G#4,356.5,0.25,90,112.01
5428,C#4,356.5,0.25,90,112.01
5429,E4,356.5,0.25,90,112.01
5430,F#1,357.0,0.25,115,112.01
5431,D2,357.0,23/200,100,112.01
5432,G#2,357.0,23/200,100,112.01
5433,F#2,357.5,6/25,100,112.01
5434,A1,357.5,0.25,115,112.01
5435,C2,357.5,73/500,100,112.01
5436,G#2,357.5,21/500,100,112.01
5437,G#2,357.75,83/1000,100,112.01
5438,B2,358.0,0.75,100,112.01
5439,B1,358.0,0.5,115,112.01
5440,E-4,358.0,1.5,100,112.01
5441,C4,358.0,1.5,100,112.01
5442,G4,358.0,1.5,100,112.01
5443,A3,358.0,1.5,100,112.01
5444,C2,358.0,27/200,100,112.01
5445,G#2,358.0,27/200,100,112.01
5446,B2,358.5,0.25,115,112.01
5447,G#2,358.5,13/250,100,112.01
5448,G4,358.5,0.25,90,112.01
5449,C4,358.5,0.25,90,112.01
5450,E-4,358.5,0.25,90,112.01
5451,G#2,358.75,13/125,100,112.01
5452,B2,359.0,0.5,100,112.01
5453,B1,359.0,0.5,115,112.01
5454,D2,359.0,27/200,100,112.01
5455,G#2,359.0,27/200,100,112.01
5456,B2,359.5,0.25,115,112.01
5457,G#2,359.5,13/125,100,112.01
5458,E-4,359.5,0.25,90,112.01
5459,C4,359.5,0.25,90,112.01
5460,G4,359.5,0.25,90,112.01
5461,B-1,359.75,0.25,115,112.01
5462,D4,359.75,0.25,100,112.01
5463,B-3,359.75,0.25,100,112.01
5464,A3,359.75,0.25,100,112.01
5465,F4,359.75,0.25,100,112.01
5466,C2,359.75,27/200,100,112.01
5467,B-2,359.75,27/200,100,112.01
5468,B-1,360.0,0.25,115,112.01
5469,D4,360.0,1.75,100,112.01
5470,B-3,360.0,1.75,100,112.01
5471,A3,360.0,1.75,100,112.01
5472,F4,360.0,1.75,100,112.01
5473,B-2,360.25,0.25,115,112.01
5474,G#2,360.25,83/1000,100,112.01
5475,B-1,360.5,0.25,115,112.01
5476,G#2,360.5,0.125,100,112.01
5477,B-3,360.5,0.25,90,112.01
5478,F4,360.5,0.25,90,112.01
5479,D4,360.5,0.25,90,112.01
5480,B-1,361.0,0.25,115,112.01
5481,D2,361.0,0.125,100,112.01
5482,G#2,361.0,0.125,100,112.01
5483,B-2,361.5,6/25,100,112.01
5484,C#2,361.5,0.25,115,112.01
5485,C2,361.5,0.156,100,112.01
5486,G#2,361.5,0.031,100,112.01
5487,G#2,361.75,13/125,100,112.01
5488,E-2,362.0,0.75,100,112.01
5489,E-2,362.0,0.5,115,112.01
5490,B-3,362.0,1.5,100,112.01
5491,D4,362.0,1.5,100,112.01
5492,F4,362.0,1.5,100,112.01
5493,G3,362.0,1.5,100,112.01
5494,C2,362.0,73/500,100,112.01
5495,G#2,362.0,73/500,100,112.01
5496,E-3,362.5,0.25,115,112.01
5497,G#2,362.5,0.094,100,112.01
5498,F4,362.5,0.25,90,112.01
5499,B-3,362.5,0.25,90,112.01
5500,D4,362.5,0.25,90,112.01
5501,G#2,362.75,23/200,100,112.01
5502,E-2,363.0,0.5,100,112.01
5503,B-1,363.0,0.5,115,112.01
5504,D2,363.0,73/500,100,112.01
5505,G#2,363.0,73/500,100,112.01
5506,B-2,363.5,0.25,115,112.01
5507,G#2,363.5,27/200,100,112.01
5508,B-3,363.5,0.25,90,112.01
5509,F4,363.5,0.25,90,112.01
5510,D4,363.5,0.25,90,112.01
5511,A2,363.75,0.25,100,112.01
5512,A1,363.75,0.25,115,112.01
5513,E4,363.75,0.25,100,112.01
5514,C4,363.75,0.25,100,112.01
5515,A3,363.75,0.25,100,112.01
5516,G3,363.75,0.25,100,112.01
5517,C2,363.75,0.125,100,112.01
5518,B-2,363.75,0.125,100,112.01
5519,A2,364.0,31/25,100,112.01
5520,A1,364.0,0.25,115,112.01
5521,E4,364.0,1.75,100,112.01
5522,C4,364.0,1.75,100,112.01
5523,A3,364.0,1.75,100,112.01
5524,G3,364.0,1.75,100,112.01
5525,A2,364.25,0.25,115,112.01
5526,G#2,364.25,0.031,100,112.01
5527,A1,364.5,0.25,115,112.01
5528,G#2,364.5,0.125,100,112.01
5529,A3,364.5,0.25,90,112.01
5530,C4,364.5,0.25,90,112.01
5531,E4,364.5,0.25,90,112.01
5532,A1,365.0,0.25,115,112.01
5533,D2,365.0,73/500,100,112.01
5534,G#2,365.0,73/500,100,112.01
5535,A2,365.5,0.25,100,112.01
5536,B1,365.5,0.25,115,112.01
5537,C2,365.5,83/1000,100,112.01
5538,G#2,365.5,83/1000,100,112.01
5539,G#2,365.75,0.125,100,112.01
5540,D2,366.0,0.75,100,112.01
5541,C2,366.0,0.5,115,112.01
5542,E4,366.0,1.5,100,112.01
5543,A3,366.0,1.5,100,112.01
5544,C4,366.0,1.5,100,112.01
5545,F#3,366.0,1.5,100,112.01
5546,C2,366.0,0.156,100,112.01
5547,G#2,366.0,0.156,100,112.01
5548,C3,366.5,0.25,115,112.01
5549,G#2,366.5,0.094,100,112.01
5550,C4,366.5,0.25,90,112.01
5551,E4,366.5,0.25,90,112.01
5552,A3,366.5,0.25,90,112.01
5553,G#2,366.75,13/125,100,112.01
5554,D2,367.0,0.5,100,112.01
5555,D2,367.0,0.5,115,112.01
5556,D2,367.0,27/200,100,112.01
5557,G#2,367.0,27/200,100,112.01
5558,D3,367.5,0.25,115,112.01
5559,G#2,367.5,13/125,100,112.01
5560,A3,367.5,0.25,90,112.01
5561,E4,367.5,0.25,90,112.01
5562,C4,367.5,0.25,90,112.01
5563,B1,367.75,0.25,100,112.01
5564,B1,367.75,0.25,115,112.01
5565,D4,367.75,0.25,100,112.01
5566,B3,367.75,0.25,100,112.01
5567,G4,367.75,0.25,100,112.01
5568,C2,367.75,27/200,100,112.01
5569,B-2,367.75,27/200,100,112.01
5570,B1,368.0,1.25,100,112.01
5571,B1,368.0,0.25,115,112.01
5572,D4,368.0,1.75,100,112.01
5573,B3,368.0,1.75,100,112.01
5574,G4,368.0,1.75,100,112.01
5575,B2,368.25,0.25,115,112.01
5576,G#2,368.25,21/500,100,112.01
5577,B1,368.5,0.25,115,112.01
5578,G#2,368.5,27/200,100,112.01
5579,B3,368.5,0.25,90,112.01
5580,G4,368.5,0.25,90,112.01
5581,D4,368.5,0.25,90,112.01
5582,B1,369.0,0.25,115,112.01
5583,D2,369.0,0.125,100,112.01
5584,G#2,369.0,0.125,100,112.01
5585,D2,369.5,0.25,100,112.01
5586,D2,369.5,0.25,115,112.01
5587,C2,369.5,73/500,100,112.01
5588,G#2,369.5,21/500,100,112.01
5589,E5,369.719,0.25,122,112.01
5590,G#2,369.75,83/1000,100,112.01
5591,E2,370.0,173/200,100,112.01
5592,E2,370.0,0.5,115,112.01
5593,F#4,370.0,0.75,100,112.01
5594,D4,370.0,0.75,100,112.01
5595,A3,370.0,0.75,100,112.01
5596,C2,370.0,27/200,100,112.01
5597,G#2,370.0,27/200,100,112.01
5598,B4,370.219,0.25,122,112.01
5599,A4,370.469,2.25,122,112.01
5600,E3,370.5,0.25,115,112.01
5601,G#2,370.5,13/250,100,112.01
5602,B3,370.5,0.25,90,112.01
5603,D4,370.5,0.25,90,112.01
5604,G4,370.5,0.25,90,112.01
5605,G#2,370.75,0.094,100,112.01
5606,D2,371.0,0.5,115,112.01
5607,D2,371.0,0.5,100,112.01
5608,D4,371.0,0.5,100,112.01
5609,G4,371.0,0.5,100,112.01
5610,B3,371.0,0.5,100,112.01
5611,D2,371.0,27/200,100,112.01
5612,G#2,371.0,27/200,100,112.01
5613,D3,371.5,0.25,115,112.01
5614,G#2,371.5,23/200,100,112.01
5615,B3,371.5,0.25,90,112.01
5616,D4,371.5,0.25,90,112.01
5617,G4,371.5,0.25,90,112.01
5618,C2,371.75,0.25,100,112.01
5619,C2,371.75,0.25,115,112.01
5620,G4,371.75,0.25,100,112.01
5621,C4,371.75,0.25,100,112.01
5622,B-3,371.75,0.25,100,112.01
5623,E-4,371.75,0.25,100,112.01
5624,C2,371.75,0.156,100,112.01
5625,B-2,371.75,0.156,100,112.01
5626,C2,372.0,1.25,100,112.01
5627,C2,372.0,0.25,115,112.01
5628,G4,372.0,1.75,100,112.01
5629,C4,372.0,1.75,100,112.01
5630,B-3,372.0,1.75,100,112.01
5631,E-4,372.0,1.75,100,112.01
5632,C3,372.25,0.25,115,112.01
5633,G#2,372.25,83/1000,100,112.01
5634,C2,372.5,0.25,115,112.01
5635,G#2,372.5,73/500,100,112.01
5636,E-4,372.5,0.25,90,112.01
5637,C4,372.5,0.25,90,112.01
5638,G4,372.5,0.25,90,112.01
5639,A4,372.719,0.25,122,112.01
5640,C2,373.0,0.25,115,112.01
5641,D2,373.0,73/500,100,112.01
5642,G#2,373.0,73/500,100,112.01
5643,C2,373.5,6/25,100,112.01
5644,G1,373.5,0.25,115,112.01
5645,C2,373.5,73/500,100,112.01
5646,G#2,373.5,73/1000,100,112.01
5647,D5,373.719,0.25,122,112.01
5648,G#2,373.75,23/200,100,112.01
5649,F2,374.0,0.75,100,112.01
5650,F1,374.0,0.5,115,112.01
5651,C4,374.0,1.5,100,112.01
5652,E-4,374.0,1.5,100,112.01
5653,G4,374.0,1.5,100,112.01
5654,A3,374.0,1.5,100,112.01
5655,C2,374.0,73/500,100,112.01
5656,G#2,374.0,73/500,100,112.01
5657,A4,374.219,0.25,122,112.01
5658,G4,374.469,2.25,122,112.01
5659,F2,374.5,0.25,115,112.01
5660,G#2,374.5,0.094,100,112.01
5661,E-4,374.5,0.25,90,112.01
5662,C4,374.5,0.25,90,112.01
5663,G4,374.5,0.25,90,112.01
5664,G#2,374.75,13/125,100,112.01
5665,F2,375.0,0.5,100,112.01
5666,A1,375.0,0.5,115,112.01
5667,D2,375.0,0.156,100,112.01
5668,G#2,375.0,0.156,100,112.01
5669,A2,375.5,0.25,115,112.01
5670,G#2,375.5,73/500,100,112.01
5671,E-4,375.5,0.25,90,112.01
5672,C4,375.5,0.25,90,112.01
5673,G4,375.5,0.25,90,112.01
5674,B-1,375.75,0.25,100,112.01
5675,B-1,375.75,0.25,115,112.01
5676,D4,375.75,0.25,100,112.01
5677,F4,375.75,0.25,100,112.01
5678,A3,375.75,0.25,100,112.01
5679,B-3,375.75,0.25,100,112.01
5680,C2,375.75,27/200,100,112.01
5681,B-2,375.75,27/200,100,112.01
5682,B-1,376.0,1.25,100,112.01
5683,B-1,376.0,0.25,115,112.01
5684,D4,376.0,1.75,100,112.01
5685,F4,376.0,1.75,100,112.01
5686,A3,376.0,1.75,100,112.01
5687,B-3,376.0,1.75,100,112.01
5688,B-2,376.25,0.25,115,112.01
5689,G#2,376.25,83/1000,100,112.01
5690,B-1,376.5,0.25,115,112.01
5691,G#2,376.5,73/500,100,112.01
5692,B-3,376.5,0.25,90,112.01
5693,D4,376.5,0.25,90,112.01
5694,F4,376.5,0.25,90,112.01
5695,G4,376.719,0.25,122,112.01
5696,B-1,377.0,0.25,115,112.01
5697,D2,377.0,73/500,100,112.01
5698,G#2,377.0,73/500,100,112.01
5699,B-1,377.5,0.25,100,112.01
5700,D2,377.5,0.25,115,112.01
5701,C2,377.5,73/500,100,112.01
5702,G#2,377.5,73/1000,100,112.01
5703,C5,377.719,0.25,122,112.01
5704,G#2,377.75,23/200,100,112.01
5705,E-2,378.0,0.75,100,112.01
5706,E-2,378.0,0.5,115,112.01
5707,B-3,378.0,1.5,100,112.01
5708,F4,378.0,1.5,100,112.01
5709,D4,378.0,1.5,100,112.01
5710,G3,378.0,1.5,100,112.01
5711,C2,378.0,73/500,100,112.01
5712,G#2,378.0,73/500,100,112.01
5713,G4,378.219,0.25,122,112.01
5714,E-3,378.5,0.25,115,112.01
5715,G#2,378.5,0.094,100,112.01
5716,B-3,378.5,0.25,90,112.01
5717,D4,378.5,0.25,90,112.01
5718,F4,378.5,0.25,90,112.01
5719,F#4,378.719,0.75,122,112.01
5720,G#2,378.75,13/125,100,112.01
5721,E-2,379.0,0.5,100,112.01
5722,B-1,379.0,0.5,115,112.01
5723,D2,379.0,0.156,100,112.01
5724,G#2,379.0,0.156,100,112.01
5725,B-2,379.5,0.25,115,112.01
5726,G#2,379.5,73/500,100,112.01
5727,D4,379.5,0.25,90,112.01
5728,B-3,379.5,0.25,90,112.01
5729,F4,379.5,0.25,90,112.01
5730,E5,379.719,0.5,122,112.01
5731,A1,379.75,0.25,100,112.01
5732,A1,379.75,0.25,115,112.01
5733,E4,379.75,0.25,100,112.01
5734,G3,379.75,0.25,100,112.01
5735,C4,379.75,0.25,100,112.01
5736,A3,379.75,0.25,100,112.01
5737,C2,379.75,27/200,100,112.01
5738,B-2,379.75,27/200,100,112.01
5739,A1,380.0,1.25,100,112.01
5740,A1,380.0,0.25,115,112.01
5741,E4,380.0,3.5,100,112.01
5742,G3,380.0,3.5,100,112.01
5743,C4,380.0,3.5,100,112.01
5744,A3,380.0,3.5,100,112.01
5745,A2,380.25,0.25,115,112.01
5746,G#2,380.25,21/500,100,112.01
5747,D5,380.469,0.25,122,112.01
5748,A1,380.5,0.25,115,112.01
5749,G#2,380.5,27/200,100,112.01
5750,C4,380.5,0.25,90,112.01
5751,E4,380.5,0.25,90,112.01
5752,A3,380.5,0.25,90,112.01
5753,D5,380.719,3.75,122,112.01
5754,A1,381.0,0.25,115,112.01
5755,D2,381.0,0.125,100,112.01
5756,G#2,381.0,0.125,100,112.01
5757,B1,381.5,0.25,100,112.01
5758,B1,381.5,0.25,115,112.01
5759,C2,381.5,13/125,100,112.01
5760,G#2,381.5,13/125,100,112.01
5761,G#2,381.75,13/125,100,112.01
5762,C2,382.0,0.75,100,112.01
5763,C2,382.0,0.5,115,112.01
5764,C2,382.0,73/500,100,112.01
5765,G#2,382.0,73/500,100,112.01
5766,C3,382.5,0.25,115,112.01
5767,G#2,382.5,13/125,100,112.01
5768,A3,382.5,0.25,90,112.01
5769,E4,382.5,0.25,90,112.01
5770,C4,382.5,0.25,90,112.01
5771,G#2,382.75,0.125,100,112.01
5772,C#2,383.0,0.5,100,112.01
5773,C#2,383.0,0.5,115,112.01
5774,D2,383.0,73/500,100,112.01
5775,G#2,383.0,73/500,100,112.01
5776,C#3,383.5,0.25,115,112.01
5777,G#2,383.5,0.125,100,112.01
5778,A3,383.5,0.25,90,112.01
5779,E4,383.5,0.25,90,112.01
5780,C4,383.5,0.25,90,112.01
5781,D2,383.75,0.25,100,112.01
5782,D2,383.75,0.25,115,112.01
5783,C4,383.75,0.25,100,112.01
5784,G4,383.75,0.25,100,112.01
5785,E4,383.75,0.25,100,112.01
5786,A3,383.75,0.25,100,112.01
5787,E4,383.75,0.25,125,112.01
5788,G4,383.75,0.25,125,112.01
5789,B4,383.75,0.25,125,112.01
5790,C2,383.75,0.156,100,112.01
5791,B-2,383.75,0.156,100,112.01
5792,D2,384.0,31/25,100,112.01
5793,D2,384.0,0.25,115,112.01
5794,C4,384.0,87/50,100,112.01
5795,G4,384.0,87/50,100,112.01
5796,E4,384.0,87/50,100,112.01
5797,A3,384.0,87/50,100,112.01
5798,E4,384.0,1.906,125,112.01
5799,G4,384.0,1.906,125,112.01
5800,B4,384.0,1.906,125,112.01
5801,D3,384.25,6/25,115,112.01
5802,G#2,384.25,21/500,100,112.01
5803,D2,384.5,0.25,115,112.01
5804,G#2,384.5,23/200,100,112.01
5805,C4,384.5,0.25,90,112.01
5806,E4,384.5,0.25,90,112.01
5807,G4,384.5,0.25,90,112.01
5808,D2,385.0,0.25,115,112.01
5809,D2,385.0,0.125,100,112.01
5810,G#2,385.0,0.125,100,112.01
5811,E-2,385.5,0.25,100,112.01
5812,E-2,385.5,0.25,115,112.01
5813,C2,385.5,83/1000,100,112.01
5814,G#2,385.5,83/1000,100,112.01
5815,E-5,385.719,0.25,122,112.01
5816,G#2,385.75,0.094,100,112.01
5817,E2,386.0,0.75,100,112.01
5818,E1,386.0,49/100,115,112.01
5819,F#4,386.0,149/100,100,112.01
5820,D4,386.0,149/100,100,112.01
5821,B3,386.0,149/100,100,112.01
5822,A4,386.0,149/100,100,112.01
5823,F#4,386.0,1.656,125,112.01
5824,A4,386.0,1.656,125,112.01
5825,D4,386.0,1.656,125,112.01
5826,C2,386.0,27/200,100,112.01
5827,G#2,386.0,27/200,100,112.01
5828,B-4,386.219,0.25,122,112.01
5829,A4,386.469,2.25,122,112.01
5830,E2,386.5,6/25,115,112.01
5831,G#2,386.5,0.031,100,112.01
5832,D4,386.5,0.25,90,112.01
5833,A4,386.5,0.25,90,112.01
5834,F#4,386.5,0.25,90,112.01
5835,G#2,386.75,13/125,100,112.01
5836,F2,387.0,0.5,100,112.01
5837,F1,387.0,49/100,115,112.01
5838,D2,387.0,27/200,100,112.01
5839,G#2,387.0,27/200,100,112.01
5840,F2,387.5,6/25,115,112.01
5841,G#2,387.5,23/200,100,112.01
5842,F#4,387.5,0.25,90,112.01
5843,D4,387.5,0.25,90,112.01
5844,A4,387.5,0.25,90,112.01
5845,F#2,387.75,0.25,100,112.01
5846,F#1,387.75,6/25,115,112.01
5847,G#4,387.75,0.25,100,112.01
5848,E4,387.75,0.25,100,112.01
5849,C#4,387.75,0.25,100,112.01
5850,A3,387.75,0.25,100,112.01
5851,G#4,387.75,0.25,125,112.01
5852,E4,387.75,0.25,125,112.01
5853,C#4,387.75,0.25,125,112.01
5854,C2,387.75,0.125,100,112.01
5855,B-2,387.75,0.125,100,112.01
5856,F#2,388.0,31/25,100,112.01
5857,G#4,388.0,1.75,100,112.01
5858,E4,388.0,1.75,100,112.01
5859,C#4,388.0,1.75,100,112.01
5860,A3,388.0,1.75,100,112.01
5861,G#4,388.0,6/25,125,112.01
5862,E4,388.0,6/25,125,112.01
5863,C#4,388.0,6/25,125,112.01
5864,F#2,388.25,6/25,115,112.01
5865,G#2,388.25,21/500,100,112.01
5866,F#1,388.5,0.25,115,112.01
5867,G#2,388.5,0.125,100,112.01
5868,C#4,388.5,0.25,90,112.01
5869,E4,388.5,0.25,90,112.01
5870,G#4,388.5,0.25,90,112.01
5871,A4,388.719,0.25,122,112.01
5872,F#1,389.0,0.25,115,112.01
5873,D2,389.0,73/500,100,112.01
5874,G#2,389.0,73/500,100,112.01
5875,F#2,389.5,0.25,100,112.01
5876,A1,389.5,0.25,115,112.01
5877,C2,389.5,0.094,100,112.01
5878,G#2,389.5,0.094,100,112.01
5879,D5,389.719,0.25,122,112.01
5880,G#2,389.75,0.094,100,112.01
5881,B2,390.0,0.75,100,112.01
5882,B1,390.0,0.5,115,112.01
5883,E-4,390.0,1.5,100,112.01
5884,G4,390.0,1.5,100,112.01
5885,A3,390.0,1.5,100,112.01
5886,C4,390.0,1.5,100,112.01
5887,C2,390.0,73/500,100,112.01
5888,G#2,390.0,73/500,100,112.01
5889,A4,390.219,0.25,122,112.01
5890,G4,390.469,2.25,122,112.01
5891,B2,390.5,0.25,115,112.01
5892,G#2,390.5,0.094,100,112.01
5893,C4,390.5,0.25,90,112.01
5894,E-4,390.5,0.25,90,112.01
5895,G4,390.5,0.25,90,112.01
5896,G#2,390.75,23/200,100,112.01
5897,B2,391.0,0.5,100,112.01
5898,B1,391.0,0.5,115,112.01
5899,D2,391.0,27/200,100,112.01
5900,G#2,391.0,27/200,100,112.01
5901,B2,391.5,0.25,115,112.01
5902,G#2,391.5,0.125,100,112.01
5903,E-4,391.5,0.25,90,112.01
5904,G4,391.5,0.25,90,112.01
5905,C4,391.5,0.25,90,112.01
5906,B-1,391.75,0.25,115,112.01
5907,D4,391.75,0.25,100,112.01
5908,F4,391.75,0.25,100,112.01
5909,B-3,391.75,0.25,100,112.01
5910,A3,391.75,0.25,100,112.01
5911,C2,391.75,27/200,100,112.01
5912,B-2,391.75,27/200,100,112.01
5913,B-1,392.0,0.25,115,112.01
5914,D4,392.0,1.75,100,112.01
5915,F4,392.0,1.75,100,112.01
5916,B-3,392.0,1.75,100,112.01
5917,A3,392.0,1.75,100,112.01
5918,B-2,392.25,0.25,115,112.01
5919,G#2,392.25,13/250,100,112.01
5920,B-1,392.5,0.25,115,112.01
5921,G#2,392.5,0.125,100,112.01
5922,F4,392.5,0.25,90,112.01
5923,D4,392.5,0.25,90,112.01
5924,B-3,392.5,0.25,90,112.01
5925,G4,392.719,0.25,122,112.01
5926,B-1,393.0,0.25,115,112.01
5927,D2,393.0,27/200,100,112.01
5928,G#2,393.0,27/200,100,112.01
5929,B-2,393.5,0.25,100,112.01
5930,C#2,393.5,0.25,115,112.01
5931,C2,393.5,13/125,100,112.01
5932,G#2,393.5,13/125,100,112.01
5933,C5,393.719,0.25,122,112.01
5934,G#2,393.75,0.125,100,112.01
5935,E-2,394.0,0.75,100,112.01
5936,E-2,394.0,0.5,115,112.01
5937,B-3,394.0,1.5,100,112.01
5938,F4,394.0,1.5,100,112.01
5939,D4,394.0,1.5,100,112.01
5940,G3,394.0,1.5,100,112.01
5941,C2,394.0,73/500,100,112.01
5942,G#2,394.0,73/500,100,112.01
5943,G4,394.219,0.25,122,112.01
5944,E-3,394.5,0.25,115,112.01
5945,G#2,394.5,23/200,100,112.01
5946,B-3,394.5,0.25,90,112.01
5947,F4,394.5,0.25,90,112.01
5948,D4,394.5,0.25,90,112.01
5949,E4,394.719,0.25,122,112.01
5950,G#2,394.75,23/200,100,112.01
5951,E-2,395.0,0.5,100,112.01
5952,B-1,395.0,0.5,115,112.01
5953,D2,395.0,73/500,100,112.01
5954,G#2,395.0,73/500,100,112.01
5955,F#4,395.219,0.25,122,112.01
5956,B-2,395.5,0.25,115,112.01
5957,G#2,395.5,0.125,100,112.01
5958,B-3,395.5,0.25,90,112.01
5959,D4,395.5,0.25,90,112.01
5960,F4,395.5,0.25,90,112.01
5961,G4,395.719,0.25,122,112.01
5962,A2,395.75,0.25,100,112.01
5963,A1,395.75,0.25,115,112.01
5964,E4,395.75,0.25,100,112.01
5965,C4,395.75,0.25,100,112.01
5966,G3,395.75,0.25,100,112.01
5967,A3,395.75,0.25,100,112.01
5968,C2,395.75,27/200,100,112.01
5969,B-2,395.75,27/200,100,112.01
5970,A4,395.969,0.25,122,112.01
5971,A2,396.0,1.25,100,112.01
5972,A1,396.0,0.25,115,112.01
5973,E4,396.0,87/50,100,112.01
5974,C4,396.0,87/50,100,112.01
5975,G3,396.0,87/50,100,112.01
5976,A3,396.0,87/50,100,112.01
5977,A2,396.25,0.25,115,112.01
5978,G#2,396.25,0.031,100,112.01
5979,B4,396.469,0.25,122,112.01
5980,A1,396.5,0.25,115,112.01
5981,G#2,396.5,0.125,100,112.01
5982,E4,396.5,0.25,90,112.01
5983,C4,396.5,0.25,90,112.01
5984,A3,396.5,0.25,90,112.01
5985,B4,396.719,1.0,122,112.01
5986,A1,397.0,0.25,115,112.01
5987,D2,397.0,0.125,100,112.01
5988,G#2,397.0,0.125,100,112.01
5989,A2,397.5,6/25,100,112.01
5990,B1,397.5,0.25,115,112.01
5991,C2,397.5,73/500,100,112.01
5992,G#2,397.5,21/500,100,112.01
5993,C5,397.719,1.0,122,112.01
5994,G#2,397.75,83/1000,100,112.01
5995,D2,398.0,0.75,100,112.01
5996,C2,398.0,0.5,115,112.01
5997,A3,398.0,1.5,100,112.01
5998,C4,398.0,1.5,100,112.01
5999,E4,398.0,1.5,100,112.01
6000,F#3,398.0,1.5,100,112.01
6001,C2,398.0,0.125,100,112.01
6002,G#2,398.0,0.125,100,112.01
6003,C3,398.5,0.25,115,112.01
6004,G#2,398.5,73/1000,100,112.01
6005,C4,398.5,0.25,90,112.01
6006,E4,398.5,0.25,90,112.01
6007,A3,398.5,0.25,90,112.01
6008,D5,398.719,1.0,122,112.01
6009,G#2,398.75,13/125,100,112.01
6010,D2,399.0,49/100,100,112.01
6011,D2,399.0,0.5,115,112.01
6012,D2,399.0,27/200,100,112.01
6013,G#2,399.0,27/200,100,112.01
6014,D3,399.5,0.25,115,112.01
6015,G#2,399.5,0.094,100,112.01
6016,E4,399.5,0.25,90,112.01
6017,A3,399.5,0.25,90,112.01
6018,C4,399.5,0.25,90,112.01
6019,E-5,399.719,0.75,122,112.01
6020,B1,399.75,0.25,100,112.01
6021,B1,399.75,0.25,115,112.01
6022,D4,399.75,0.25,100,112.01
6023,B3,399.75,0.25,100,112.01
6024,G4,399.75,0.25,100,112.01
6025,C2,399.75,27/200,100,112.01
6026,B-2,399.75,27/200,100,112.01
6027,B1,400.0,1.25,100,112.01
6028,B1,400.0,0.25,115,112.01
6029,D4,400.0,1.75,100,112.01
6030,B3,400.0,1.75,100,112.01
6031,G4,400.0,1.75,100,112.01
6032,B2,400.25,0.25,115,112.01
6033,G#2,400.25,0.031,100,112.01
6034,C#5,400.469,0.25,122,112.01
6035,G#4,400.469,0.25,122,112.01
6036,E5,400.469,0.25,122,112.01
6037,B1,400.5,0.25,115,112.01
6038,G#2,400.5,23/200,100,112.01
6039,D4,400.5,0.25,90,112.01
6040,B3,400.5,0.25,90,112.01
6041,G4,400.5,0.25,90,112.01
6042,B1,401.0,0.25,115,112.01
6043,D2,401.0,23/200,100,112.01
6044,G#2,401.0,23/200,100,112.01
6045,D2,401.5,6/25,100,112.01
6046,D2,401.5,0.25,115,112.01
6047,C2,401.5,73/500,100,112.01
6048,G#2,401.5,21/500,100,112.01
6049,C#5,401.719,1.0,122,112.01
6050,G#4,401.719,1.0,122,112.01
6051,E5,401.719,1.0,122,112.01
6052,G#2,401.75,0.094,100,112.01
6053,E2,402.0,0.5,115,112.01
6054,E2,402.0,0.75,100,112.01
6055,F#4,402.0,0.75,100,112.01
6056,D4,402.0,0.75,100,112.01
6057,A3,402.0,0.75,100,112.01
6058,C2,402.0,0.125,100,112.01
6059,G#2,402.0,0.125,100,112.01
6060,E3,402.5,0.25,115,112.01
6061,G#2,402.5,73/1000,100,112.01
6062,G4,402.5,0.25,90,112.01
6063,B3,402.5,0.25,90,112.01
6064,D4,402.5,0.25,90,112.01
6065,G#4,402.719,1.0,122,112.01
6066,E4,402.719,1.0,122,112.01
6067,B4,402.719,1.0,122,112.01
6068,G#2,402.75,13/125,100,112.01
6069,D2,403.0,0.5,115,112.01
6070,D2,403.0,0.5,100,112.01
6071,D4,403.0,0.5,100,112.01
6072,B3,403.0,0.5,100,112.01
6073,G4,403.0,0.5,100,112.01
6074,D2,403.0,27/200,100,112.01
6075,G#2,403.0,27/200,100,112.01
6076,D3,403.5,0.25,115,112.01
6077,G#2,403.5,0.125,100,112.01
6078,G4,403.5,0.25,90,112.01
6079,B3,403.5,0.25,90,112.01
6080,D4,403.5,0.25,90,112.01
6081,G4,403.719,1.5,122,112.01
6082,E-4,403.719,1.5,122,112.01
6083,A4,403.719,1.5,122,112.01
6084,C2,403.75,0.25,100,112.01
6085,C2,403.75,0.25,115,112.01
6086,G4,403.75,0.25,100,112.01
6087,C4,403.75,0.25,100,112.01
6088,B-3,403.75,0.25,100,112.01
6089,E-4,403.75,0.25,100,112.01
6090,C2,403.75,23/200,100,112.01
6091,B-2,403.75,23/200,100,112.01
6092,C2,404.0,31/25,100,112.01
6093,C2,404.0,0.25,115,112.01
6094,G4,404.0,1.75,100,112.01
6095,C4,404.0,1.75,100,112.01
6096,B-3,404.0,1.75,100,112.01
6097,E-4,404.0,1.75,100,112.01
6098,C3,404.25,0.25,115,112.01
6099,G#2,404.25,21/500,100,112.01
6100,C2,404.5,0.25,115,112.01
6101,G#2,404.5,23/200,100,112.01
6102,C4,404.5,0.25,90,112.01
6103,E-4,404.5,0.25,90,112.01
6104,G4,404.5,0.25,90,112.01
6105,C2,405.0,0.25,115,112.01
6106,D2,405.0,0.125,100,112.01
6107,G#2,405.0,0.125,100,112.01
6108,F4,405.469,0.25,122,112.01
6109,B-4,405.469,0.25,122,112.01
6110,D5,405.469,0.25,122,112.01
6111,C2,405.5,0.25,100,112.01
6112,G1,405.5,0.25,115,112.01
6113,C2,405.5,0.062,100,112.01
6114,G#2,405.5,0.062,100,112.01
6115,F4,405.719,1.0,122,112.01
6116,B-4,405.719,1.0,122,112.01
6117,D5,405.719,1.0,122,112.01
6118,G#2,405.75,0.062,100,112.01
6119,F2,406.0,37/50,100,112.01
6120,F1,406.0,0.5,115,112.01
6121,C4,406.0,149/100,100,112.01
6122,E-4,406.0,149/100,100,112.01
6123,G4,406.0,149/100,100,112.01
6124,A3,406.0,149/100,100,112.01
6125,C2,406.0,0.125,100,112.01
6126,G#2,406.0,0.125,100,112.01
6127,F2,406.5,0.25,115,112.01
6128,G#2,406.5,83/1000,100,112.01
6129,E-4,406.5,0.25,90,112.01
6130,C4,406.5,0.25,90,112.01
6131,G4,406.5,0.25,90,112.01
6132,D4,406.719,1.0,122,112.01
6133,F4,406.719,1.0,122,112.01
6134,A4,406.719,1.0,122,112.01
6135,G#2,406.75,0.094,100,112.01
6136,F2,407.0,49/100,100,112.01
6137,A1,407.0,0.5,115,112.01
6138,D2,407.0,27/200,100,112.01
6139,G#2,407.0,27/200,100,112.01
6140,A2,407.5,0.25,115,112.01
6141,G#2,407.5,13/125,100,112.01
6142,E-4,407.5,0.25,90,112.01
6143,G4,407.5,0.25,90,112.01
6144,C4,407.5,0.25,90,112.01
6145,B-3,407.719,1.5,122,112.01
6146,D4,407.719,1.5,122,112.01
6147,G4,407.719,1.5,122,112.01
6148,B-1,407.75,0.25,115,112.01
6149,F4,407.75,0.25,100,112.01
6150,D4,407.75,0.25,100,112.01
6151,A3,407.75,0.25,100,112.01
6152,B-3,407.75,0.25,100,112.01
6153,C2,407.75,0.125,100,112.01
6154,B-2,407.75,0.125,100,112.01
6155,B-1,408.0,0.25,115,112.01
6156,F4,408.0,87/50,100,112.01
6157,D4,408.0,87/50,100,112.01
6158,A3,408.0,87/50,100,112.01
6159,B-3,408.0,87/50,100,112.01
6160,B-2,408.25,0.25,115,112.01
6161,G#2,408.25,0.031,100,112.01
6162,B-1,408.5,0.25,115,112.01
6163,G#2,408.5,23/200,100,112.01
6164,F4,408.5,0.25,90,112.01
6165,D4,408.5,0.25,90,112.01
6166,B-3,408.5,0.25,90,112.01
6167,B-1,409.0,0.25,115,112.01
6168,D2,409.0,13/125,100,112.01
6169,G#2,409.0,13/125,100,112.01
6170,G4,409.469,0.25,122,112.01
6171,E4,409.469,0.25,122,112.01
6172,C5,409.469,0.25,122,112.01
6173,B-2,409.5,0.25,100,112.01
6174,D2,409.5,0.25,115,112.01
6175,C2,409.5,27/200,100,112.01
6176,G#2,409.5,21/500,100,112.01
6177,G4,409.719,1.0,122,112.01
6178,E4,409.719,1.0,122,112.01
6179,C5,409.719,1.0,122,112.01
6180,G#2,409.75,13/125,100,112.01
6181,E-2,410.0,0.75,100,112.01
6182,E-2,410.0,0.5,115,112.01
6183,B-3,410.0,149/100,100,112.01
6184,D4,410.0,149/100,100,112.01
6185,F4,410.0,149/100,100,112.01
6186,G3,410.0,149/100,100,112.01
6187,C2,410.0,27/200,100,112.01
6188,G#2,410.0,27/200,100,112.01
6189,E-3,410.5,0.25,115,112.01
6190,G#2,410.5,0.094,100,112.01
6191,F4,410.5,0.25,90,112.01
6192,D4,410.5,0.25,90,112.01
6193,B-3,410.5,0.25,90,112.01
6194,E4,410.719,1.0,122,112.01
6195,C4,410.719,1.0,122,112.01
6196,G4,410.719,1.0,122,112.01
6197,G#2,410.75,0.094,100,112.01
6198,E-2,411.0,49/100,100,112.01
6199,B-1,411.0,0.5,115,112.01
6200,D2,411.0,23/200,100,112.01
6201,G#2,411.0,23/200,100,112.01
6202,B-2,411.5,0.25,115,112.01
6203,G#2,411.5,13/125,100,112.01
6204,B-3,411.5,0.25,90,112.01
6205,D4,411.5,0.25,90,112.01
6206,F4,411.5,0.25,90,112.01
6207,D4,411.719,1.0,122,112.01
6208,A3,411.719,1.0,122,112.01
6209,F#4,411.719,1.0,122,112.01
6210,A2,411.75,0.25,100,112.01
6211,A1,411.75,0.25,115,112.01
6212,E4,411.75,0.25,100,112.01
6213,C4,411.75,0.25,100,112.01
6214,A3,411.75,0.25,100,112.01
6215,G3,411.75,0.25,100,112.01
6216,C2,411.75,27/200,100,112.01
6217,B-2,411.75,27/200,100,112.01
6218,A2,412.0,1.25,100,112.01
6219,A1,412.0,0.25,115,112.01
6220,E4,412.0,349/100,100,112.01
6221,C4,412.0,349/100,100,112.01
6222,A3,412.0,349/100,100,112.01
6223,G3,412.0,349/100,100,112.01
6224,A2,412.25,0.25,115,112.01
6225,G#2,412.25,0.031,100,112.01
6226,A1,412.5,0.25,115,112.01
6227,G#2,412.5,0.125,100,112.01
6228,E4,412.5,0.25,90,112.01
6229,C4,412.5,0.25,90,112.01
6230,A3,412.5,0.25,90,112.01
6231,C5,412.719,0.75,122,112.01
6232,A4,412.719,0.75,122,112.01
6233,E5,412.719,0.75,122,112.01
6234,A1,413.0,0.25,115,112.01
6235,D2,413.0,23/200,100,112.01
6236,G#2,413.0,23/200,100,112.01
6237,G4,413.469,0.25,122,112.01
6238,B4,413.469,0.25,122,112.01
6239,D5,413.469,0.25,122,112.01
6240,B2,413.5,0.25,100,112.01
6241,B1,413.5,0.25,115,112.01
6242,C2,413.5,0.094,100,112.01
6243,G#2,413.5,0.094,100,112.01
6244,G4,413.719,2.0,122,112.01
6245,B4,413.719,3.5,122,112.01
6246,D5,413.719,3.5,122,112.01
6247,G#2,413.75,83/1000,100,112.01
6248,C3,414.0,37/50,100,112.01
6249,C2,414.0,0.5,115,112.01
6250,C2,414.0,0.125,100,112.01
6251,G#2,414.0,0.125,100,112.01
6252,C3,414.5,0.25,115,112.01
6253,G#2,414.5,13/250,100,112.01
6254,A3,414.5,0.25,90,112.01
6255,C4,414.5,0.25,90,112.01
6256,E4,414.5,0.25,90,112.01
6257,G#2,414.75,13/125,100,112.01
6258,C#3,415.0,0.5,100,112.01
6259,C#2,415.0,0.5,115,112.01
6260,D2,415.0,0.125,100,112.01
6261,G#2,415.0,0.125,100,112.01
6262,C#3,415.5,0.25,115,112.01
6263,G#2,415.5,23/200,100,112.01
6264,E4,415.5,0.25,90,112.01
6265,C4,415.5,0.25,90,112.01
6266,A3,415.5,0.25,90,112.01
6267,F#4,415.719,1.5,122,112.01
6268,D2,415.75,0.25,115,112.01
6269,D2,415.75,0.25,100,112.01
6270,G4,415.75,0.25,100,112.01
6271,C4,415.75,0.25,100,112.01
6272,A3,415.75,0.25,100,112.01
6273,E4,415.75,0.25,100,112.01
6274,B4,415.75,0.25,125,112.01
6275,G4,415.75,0.25,125,112.01
6276,E4,415.75,0.25,125,112.01
6277,C2,415.75,0.125,100,112.01
6278,B-2,415.75,0.125,100,112.01
6279,D2,416.0,0.25,115,112.01
6280,D2,416.0,1.75,100,112.01
6281,G4,416.0,1.75,100,112.01
6282,C4,416.0,1.75,100,112.01
6283,A3,416.0,1.75,100,112.01
6284,E4,416.0,1.75,100,112.01
6285,B4,416.0,1.906,125,112.01
6286,G4,416.0,1.906,125,112.01
6287,E4,416.0,1.906,125,112.01
6288,D3,416.25,0.25,115,112.01
6289,G#2,416.25,0.031,100,112.01
6290,D2,416.5,0.25,115,112.01
6291,G#2,416.5,0.125,100,112.01
6292,C4,416.5,0.25,90,112.01
6293,G4,416.5,0.25,90,112.01
6294,E4,416.5,0.25,90,112.01
6295,D2,417.0,0.25,115,112.01
6296,D2,417.0,23/200,100,112.01
6297,G#2,417.0,23/200,100,112.01
6298,G4,417.469,0.25,122,112.01
6299,C5,417.469,0.25,122,112.01
6300,E-5,417.469,0.25,122,112.01
6301,D2,417.5,0.25,115,112.01
6302,C2,417.5,27/200,100,112.01
6303,G#2,417.5,13/250,100,112.01
6304,G4,417.719,1.0,122,112.01
6305,C5,417.719,1.0,122,112.01
6306,E-5,417.719,1.0,122,112.01
6307,G#2,417.75,0.062,100,112.01
6308,C#2,418.0,0.5,115,112.01
6309,E4,418.0,1.5,100,112.01
6310,B3,418.0,1.5,100,112.01
6311,C#2,418.0,1.5,100,112.01
6312,G#3,418.0,1.5,100,112.01
6313,F3,418.0,1.5,100,112.01
6314,G#3,418.0,1.5,90,112.01
6315,B3,418.0,1.5,90,112.01
6316,E4,418.0,1.5,90,112.01
6317,B4,418.0,323/200,125,112.01
6318,G#4,418.0,323/200,125,112.01
6319,F4,418.0,323/200,125,112.01
6320,C2,418.0,23/200,100,112.01
6321,G#2,418.0,23/200,100,112.01
6322,C#3,418.5,0.25,115,112.01
6323,G#2,418.5,21/500,100,112.01
6324,E-4,418.719,1.0,122,112.01
6325,G4,418.719,1.0,122,112.01
6326,B-4,418.719,1.0,122,112.01
6327,G#2,418.75,23/200,100,112.01
6328,C#2,419.0,0.5,115,112.01
6329,D2,419.0,27/200,100,112.01
6330,G#2,419.0,27/200,100,112.01
6331,D2,419.25,0.094,100,112.01
6332,F2,419.5,23/200,100,112.01
6333,G#2,419.5,23/200,100,112.01
6334,D4,419.719,1.5,122,112.01
6335,F#4,419.719,1.5,122,112.01
6336,A4,419.719,1.5,122,112.01
6337,C2,419.75,0.25,115,112.01
6338,B-3,419.75,0.25,100,112.01
6339,G3,419.75,0.25,100,112.01
6340,E3,419.75,0.25,100,112.01
6341,C2,419.75,0.25,100,112.01
6342,D4,419.75,0.25,100,112.01
6343,D4,419.75,0.25,90,112.01
6344,B-3,419.75,0.25,90,112.01
6345,G3,419.75,0.25,90,112.01
6346,C#3,419.75,0.125,100,112.01
6347,C2,419.75,0.125,100,112.01
6348,B-2,419.75,0.125,100,112.01
6349,G#2,420.0,0.094,100,112.01
6350,G#3,420.0,177/1000,100,112.01
6351,C3,420.25,0.438,115,112.01
6352,G#2,420.25,0.094,100,112.01
6353,G#2,420.5,0.125,100,112.01
6354,C2,421.0,6/25,115,112.01
6355,B-3,421.0,0.25,100,112.01
6356,G3,421.0,0.25,100,112.01
6357,D4,421.0,0.25,100,112.01
6358,E3,421.0,0.25,100,112.01
6359,C2,421.0,0.25,100,112.01
6360,D4,421.0,0.25,90,112.01
6361,B-3,421.0,0.25,90,112.01
6362,G3,421.0,0.25,90,112.01
6363,C2,421.0,0.125,100,112.01
6364,G#2,421.0,0.125,100,112.01
6365,A4,421.469,0.25,122,112.01
6366,F4,421.469,0.25,122,112.01
6367,D5,421.469,0.25,122,112.01
6368,C2,421.5,6/25,115,112.01
6369,E3,421.5,0.25,100,112.01
6370,B-3,421.5,0.25,100,112.01
6371,D4,421.5,0.25,100,112.01
6372,G3,421.5,0.25,100,112.01
6373,C2,421.5,0.25,100,112.01
6374,B-3,421.5,0.25,90,112.01
6375,G3,421.5,0.25,90,112.01
6376,D4,421.5,0.25,90,112.01
6377,C2,421.5,13/125,100,112.01
6378,G#2,421.5,13/125,100,112.01
6379,A4,421.719,1.0,122,112.01
6380,F4,421.719,1.0,122,112.01
6381,D5,421.719,1.0,122,112.01
6382,B1,422.0,99/125,115,112.01
6383,E-4,422.0,0.75,100,112.01
6384,G4,422.0,0.75,100,112.01
6385,A3,422.0,0.75,100,112.01
6386,C4,422.0,0.75,100,112.01
6387,B1,422.0,0.75,100,112.01
6388,G4,422.0,0.75,90,112.01
6389,E-4,422.0,0.75,90,112.01
6390,C4,422.0,0.75,90,112.01
6391,C2,422.0,26/125,100,112.01
6392,G#2,422.0,26/125,100,112.01
6393,G#3,422.0,26/125,100,112.01
6394,G#2,422.5,23/200,100,112.01
6395,F4,422.719,1.0,122,112.01
6396,D4,422.719,1.0,122,112.01
6397,A4,422.719,1.0,122,112.01
6398,A2,423.0,0.219,115,112.01
6399,E-4,423.0,0.5,100,112.01
6400,C4,423.0,0.5,100,112.01
6401,G4,423.0,0.5,100,112.01
6402,A3,423.0,0.5,100,112.01
6403,B1,423.0,0.5,100,112.01
6404,E-4,423.0,0.5,90,112.01
6405,G4,423.0,0.5,90,112.01
6406,C4,423.0,0.5,90,112.01
6407,D2,423.0,27/200,100,112.01
6408,G#2,423.0,27/200,100,112.01
6409,B2,423.25,99/250,115,112.01
6410,G#2,423.5,23/200,100,112.01
6411,D4,423.719,1.5,122,112.01
6412,B-3,423.719,1.5,122,112.01
6413,G4,423.719,1.5,122,112.01
6414,E1,423.75,0.25,115,112.01
6415,F#4,423.75,0.25,100,112.01
6416,D4,423.75,0.25,100,112.01
6417,B3,423.75,0.25,100,112.01
6418,G3,423.75,0.25,100,112.01
6419,E2,423.75,0.25,100,112.01
6420,F#4,423.75,0.25,90,112.01
6421,D4,423.75,0.25,90,112.01
6422,B3,423.75,0.25,90,112.01
6423,C2,423.75,0.125,100,112.01
6424,B-2,423.75,0.125,100,112.01
6425,E1,424.0,13/250,115,112.01
6426,G#2,424.0,0.094,100,112.01
6427,G#3,424.0,177/1000,100,112.01
6428,E3,424.25,177/250,115,112.01
6429,G#2,424.25,13/125,100,112.01
6430,F#5,424.25,0.156,125,112.01
6431,B4,424.25,0.156,125,112.01
6432,D5,424.25,0.156,125,112.01
6433,G#2,424.5,13/125,100,112.01
6434,F#5,424.5,0.156,125,112.01
6435,D5,424.5,0.156,125,112.01
6436,B4,424.5,0.156,125,112.01
6437,F#5,424.75,0.156,125,112.01
6438,B4,424.75,0.156,125,112.01
6439,D5,424.75,0.156,125,112.01
6440,E2,425.0,6/25,115,112.01
6441,F#4,425.0,0.25,100,112.01
6442,B3,425.0,0.25,100,112.01
6443,D4,425.0,0.25,100,112.01
6444,G3,425.0,0.25,100,112.01
6445,E2,425.0,0.25,100,112.01
6446,B3,425.0,0.25,90,112.01
6447,F#4,425.0,0.25,90,112.01
6448,D4,425.0,0.25,90,112.01
6449,D5,425.0,0.156,125,112.01
6450,F#5,425.0,0.156,125,112.01
6451,B4,425.0,0.156,125,112.01
6452,C2,425.0,23/200,100,112.01
6453,G#2,425.0,23/200,100,112.01
6454,B4,425.25,0.156,125,112.01
6455,E5,425.25,0.156,125,112.01
6456,G5,425.25,0.156,125,112.01
6457,G4,425.469,0.25,122,112.01
6458,E4,425.469,0.25,122,112.01
6459,C5,425.469,0.25,122,112.01
6460,D2,425.5,0.219,115,112.01
6461,B3,425.5,0.25,100,112.01
6462,G3,425.5,0.25,100,112.01
6463,F#4,425.5,0.25,100,112.01
6464,D4,425.5,0.25,100,112.01
6465,D2,425.5,0.25,100,112.01
6466,F#4,425.5,0.25,90,112.01
6467,B3,425.5,0.25,90,112.01
6468,D4,425.5,0.25,90,112.01
6469,C2,425.5,13/125,100,112.01
6470,G#2,425.5,13/125,100,112.01
6471,G4,425.719,1.0,122,112.01
6472,E4,425.719,1.0,122,112.01
6473,C5,425.719,1.0,122,112.01
6474,C#2,426.0,427/1000,115,112.01
6475,G#3,426.0,0.75,100,112.01
6476,E4,426.0,0.75,100,112.01
6477,B3,426.0,0.75,100,112.01
6478,F3,426.0,0.75,100,112.01
6479,C#2,426.0,0.75,100,112.01
6480,E4,426.0,0.75,90,112.01
6481,B3,426.0,0.75,90,112.01
6482,G#3,426.0,0.75,90,112.01
6483,C2,426.0,0.156,100,112.01
6484,G#2,426.0,0.156,100,112.01
6485,G#3,426.0,0.156,100,112.01
6486,B5,426.25,0.75,120,112.01
6487,C#3,426.5,0.344,115,112.01
6488,G#2,426.5,23/200,100,112.01
6489,E4,426.719,1.0,122,112.01
6490,C4,426.719,1.0,122,112.01
6491,G4,426.719,1.0,122,112.01
6492,C#2,427.0,49/100,115,112.01
6493,G5,427.0,0.25,120,112.01
6494,E4,427.0,49/100,100,112.01
6495,B3,427.0,49/100,100,112.01
6496,G#3,427.0,49/100,100,112.01
6497,F3,427.0,49/100,100,112.01
6498,C#2,427.0,49/100,100,112.01
6499,E4,427.0,0.5,90,112.01
6500,B3,427.0,0.5,90,112.01
6501,G#3,427.0,0.5,90,112.01
6502,D2,427.0,27/200,100,112.01
6503,G#2,427.0,27/200,100,112.01
6504,A5,427.5,0.25,120,112.01
6505,G#2,427.5,23/200,100,112.01
6506,C4,427.719,0.25,122,112.01
6507,A3,427.719,0.25,122,112.01
6508,E4,427.719,0.25,122,112.01
6509,C2,427.75,0.25,115,112.01
6510,D4,427.75,0.25,100,112.01
6511,B-3,427.75,0.25,100,112.01
6512,E3,427.75,0.25,100,112.01
6513,G3,427.75,0.25,100,112.01
6514,C2,427.75,0.25,100,112.01
6515,B-3,427.75,0.25,90,112.01
6516,D4,427.75,0.25,90,112.01
6517,G3,427.75,0.25,90,112.01
6518,C2,427.75,23/200,100,112.01
6519,B-2,427.75,23/200,100,112.01
6520,C2,428.0,99/500,115,112.01
6521,B-5,428.0,0.25,120,112.01
6522,G#2,428.0,13/125,100,112.01
6523,G#3,428.0,177/1000,100,112.01
6524,D4,428.219,0.25,122,112.01
6525,B3,428.219,0.25,122,112.01
6526,F#4,428.219,0.25,122,112.01
6527,C3,428.25,0.469,115,112.01
6528,G#2,428.25,83/1000,100,112.01
6529,G5,428.5,0.25,120,112.01
6530,G#2,428.5,0.125,100,112.01
6531,E4,428.719,0.25,122,112.01
6532,C4,428.719,0.25,122,112.01
6533,G4,428.719,0.25,122,112.01
6534,E5,428.75,2.0,120,112.01
6535,F#4,428.969,0.25,122,112.01
6536,D4,428.969,0.25,122,112.01
6537,A4,428.969,0.25,122,112.01
6538,C2,429.0,0.219,115,112.01
6539,B-3,429.0,0.25,100,112.01
6540,G3,429.0,0.25,100,112.01
6541,D4,429.0,0.25,100,112.01
6542,E3,429.0,0.25,100,112.01
6543,C2,429.0,0.25,100,112.01
6544,D4,429.0,0.25,90,112.01
6545,G3,429.0,0.25,90,112.01
6546,B-3,429.0,0.25,90,112.01
6547,C2,429.0,0.125,100,112.01
6548,G#2,429.0,0.125,100,112.01
6549,B4,429.469,0.25,122,112.01
6550,G4,429.469,0.25,122,112.01
6551,E4,429.469,0.25,122,112.01
6552,C2,429.5,26/125,115,112.01
6553,E3,429.5,0.25,100,112.01
6554,B-3,429.5,0.25,100,112.01
6555,G3,429.5,0.25,100,112.01
6556,D4,429.5,0.25,100,112.01
6557,C2,429.5,0.25,100,112.01
6558,G3,429.5,0.25,90,112.01
6559,B-3,429.5,0.25,90,112.01
6560,D4,429.5,0.25,90,112.01
6561,C2,429.5,0.125,100,112.01
6562,G#2,429.5,0.125,100,112.01
6563,B4,429.719,3.25,122,112.01
6564,G4,429.719,3.25,122,112.01
6565,E4,429.719,3.25,122,112.01
6566,B1,430.0,0.719,115,112.01
6567,E-4,430.0,0.75,100,112.01
6568,C4,430.0,0.75,100,112.01
6569,G4,430.0,0.75,100,112.01
6570,A3,430.0,0.75,100,112.01
6571,B1,430.0,0.75,100,112.01
6572,G4,430.0,0.75,90,112.01
6573,E-4,430.0,0.75,90,112.01
6574,C4,430.0,0.75,90,112.01
6575,C2,430.0,177/1000,100,112.01
6576,G#2,430.0,177/1000,100,112.01
6577,G#3,430.0,177/1000,100,112.01
6578,G#2,430.5,0.125,100,112.01
6579,B1,431.0,49/100,115,112.01
6580,D5,431.0,0.25,120,112.01
6581,E-4,431.0,0.5,100,112.01
6582,C4,431.0,0.5,100,112.01
6583,G4,431.0,0.5,100,112.01
6584,A3,431.0,0.5,100,112.01
6585,B1,431.0,0.5,100,112.01
6586,E-4,431.0,0.5,90,112.01
6587,G4,431.0,0.5,90,112.01
6588,C4,431.0,0.5,90,112.01
6589,D2,431.0,0.125,100,112.01
6590,G#2,431.0,0.125,100,112.01
6591,E5,431.25,0.25,120,112.01
6592,G#2,431.5,23/200,100,112.01
6593,E1,431.75,0.25,115,112.01
6594,E5,431.75,0.25,120,112.01
6595,B3,431.75,0.25,100,112.01
6596,F#4,431.75,0.25,100,112.01
6597,D4,431.75,0.25,100,112.01
6598,G3,431.75,0.25,100,112.01
6599,E2,431.75,0.25,100,112.01
6600,D4,431.75,0.25,90,112.01
6601,B3,431.75,0.25,90,112.01
6602,F#4,431.75,0.25,90,112.01
6603,E5,431.75,0.25,125,112.01
6604,G4,431.75,0.25,125,112.01
6605,B4,431.75,0.25,125,112.01
6606,C2,431.75,0.125,100,112.01
6607,B-2,431.75,0.125,100,112.01
6608,G#2,432.0,0.0,100,112.01
6609,E1,432.0,271/500,115,112.01
6610,E5,432.0,0.75,120,112.01
6611,G#2,432.0,0.094,100,112.01
6612,G#3,432.0,0.188,100,112.01
6613,B3,432.0,173/200,100,112.01
6614,F#4,432.0,173/200,100,112.01
6615,D4,432.0,173/200,100,112.01
6616,G3,432.0,173/200,100,112.01
6617,E2,432.0,173/200,100,112.01
6618,D4,432.0,0.75,90,112.01
6619,B3,432.0,0.75,90,112.01
6620,F#4,432.0,0.75,90,112.01
6621,E5,432.0,37/50,125,112.01
6622,G4,432.0,37/50,125,112.01
6623,B4,432.0,37/50,125,112.01
6624,G#2,432.25,83/1000,100,112.01
6625,E3,432.5,271/1000,115,112.01
6626,G#2,432.5,73/1000,100,112.01
6627,E-2,433.0,49/100,115,112.01
6628,D5,433.0,0.75,120,112.01
6629,F4,433.0,173/200,100,112.01
6630,F#3,433.0,173/200,100,112.01
6631,C#4,433.0,173/200,100,112.01
6632,B-3,433.0,173/200,100,112.01
6633,E-2,433.0,173/200,100,112.01
6634,F4,433.0,0.75,90,112.01
6635,C#4,433.0,0.75,90,112.01
6636,B-3,433.0,0.75,90,112.01
6637,F#5,433.0,37/50,125,112.01
6638,B-4,433.0,37/50,125,112.01
6639,C#5,433.0,37/50,125,112.01
6640,C2,433.0,23/200,100,112.01
6641,G#2,433.0,23/200,100,112.01
6642,B-4,433.469,0.25,122,112.01
6643,C5,433.469,0.25,122,112.01
6644,E5,433.469,0.25,122,112.01
6645,E-3,433.5,77/200,115,112.01
6646,G#2,433.5,23/200,100,112.01
6647,G4,433.969,0.5,122,112.01
6648,B-4,433.969,0.5,122,112.01
6649,D5,433.969,0.5,122,112.01
6650,D2,434.0,0.469,115,112.01
6651,B-4,434.0,0.25,120,112.01
6652,C4,434.0,173/200,100,112.01
6653,A3,434.0,173/200,100,112.01
6654,E4,434.0,173/200,100,112.01
6655,F3,434.0,173/200,100,112.01
6656,D2,434.0,173/200,100,112.01
6657,E4,434.0,0.75,90,112.01
6658,C4,434.0,0.75,90,112.01
6659,A3,434.0,0.75,90,112.01
6660,E5,434.0,37/50,125,112.01
6661,C5,434.0,37/50,125,112.01
6662,A4,434.0,37/50,125,112.01
6663,G5,434.0,37/50,125,112.01
6664,C2,434.0,167/1000,100,112.01
6665,G#2,434.0,167/1000,100,112.01
6666,G#3,434.0,167/1000,100,112.01
6667,A4,434.25,0.25,120,112.01
6668,D3,434.5,151/500,115,112.01
6669,G4,434.5,0.25,120,112.01
6670,G#2,434.5,23/200,100,112.01
6671,E4,434.719,0.25,122,112.01
6672,G4,434.719,0.25,122,112.01
6673,B-4,434.719,0.25,122,112.01
6674,C#2,435.0,427/1000,115,112.01
6675,A4,435.0,0.25,120,112.01
6676,E4,435.0,123/200,100,112.01
6677,G#3,435.0,123/200,100,112.01
6678,B3,435.0,123/200,100,112.01
6679,F3,435.0,123/200,100,112.01
6680,C#2,435.0,123/200,100,112.01
6681,B3,435.0,0.5,90,112.01
6682,E4,435.0,0.5,90,112.01
6683,G#3,435.0,0.5,90,112.01
6684,B4,435.0,0.656,125,112.01
6685,G5,435.0,0.656,125,112.01
6686,E-5,435.0,0.656,125,112.01
6687,B5,435.0,0.656,125,112.01
6688,D2,435.0,0.125,100,112.01
6689,G#2,435.0,0.125,100,112.01
6690,D4,435.219,0.25,122,112.01
6691,E4,435.219,0.25,122,112.01
6692,A4,435.219,0.25,122,112.01
6693,G4,435.25,0.25,120,112.01
6694,C#3,435.5,229/1000,115,112.01
6695,G#2,435.5,0.094,100,112.01
6696,B3,435.719,0.75,122,112.01
6697,D4,435.719,0.75,122,112.01
6698,G4,435.719,0.75,122,112.01
6699,C2,435.75,0.25,115,112.01
6700,B-4,435.75,0.25,120,112.01
6701,D4,435.75,0.25,100,112.01
6702,B-3,435.75,0.25,100,112.01
6703,E3,435.75,0.25,100,112.01
6704,G3,435.75,0.25,100,112.01
6705,C2,435.75,0.25,100,112.01
6706,B-3,435.75,0.25,90,112.01
6707,D4,435.75,0.25,90,112.01
6708,G3,435.75,0.25,90,112.01
6709,C2,435.75,13/125,100,112.01
6710,B-2,435.75,13/125,100,112.01
6711,C2,436.0,0.156,115,112.01
6712,B-4,436.0,0.25,120,112.01
6713,G#2,436.0,83/1000,100,112.01
6714,G#3,436.0,99/500,100,112.01
6715,C3,436.25,0.438,115,112.01
6716,A4,436.25,0.25,120,112.01
6717,G#2,436.25,83/1000,100,112.01
6718,G4,436.5,0.25,120,112.01
6719,G#2,436.5,0.125,100,112.01
6720,D4,436.719,0.5,122,112.01
6721,F#4,436.719,0.5,122,112.01
6722,A4,436.719,0.5,122,112.01
6723,C2,437.0,6/25,115,112.01
6724,E4,437.0,2.25,120,112.01
6725,B-3,437.0,0.25,100,112.01
6726,G3,437.0,0.25,100,112.01
6727,D4,437.0,0.25,100,112.01
6728,E3,437.0,0.25,100,112.01
6729,C2,437.0,0.25,100,112.01
6730,B-3,437.0,0.25,90,112.01
6731,D4,437.0,0.25,90,112.01
6732,G3,437.0,0.25,90,112.01
6733,C2,437.0,0.125,100,112.01
6734,G#2,437.0,0.125,100,112.01
6735,F#4,437.469,0.25,122,112.01
6736,G4,437.469,0.25,122,112.01
6737,B4,437.469,0.25,122,112.01
6738,C2,437.5,6/25,115,112.01
6739,E3,437.5,0.25,100,112.01
6740,B-3,437.5,0.25,100,112.01
6741,D4,437.5,0.25,100,112.01
6742,G3,437.5,0.25,100,112.01
6743,C2,437.5,0.25,100,112.01
6744,B-3,437.5,0.25,90,112.01
6745,G3,437.5,0.25,90,112.01
6746,D4,437.5,0.25,90,112.01
6747,C2,437.5,23/200,100,112.01
6748,G#2,437.5,23/200,100,112.01
6749,B1,438.0,99/125,115,112.01
6750,E-4,438.0,0.75,100,112.01
6751,G4,438.0,0.75,100,112.01
6752,A3,438.0,0.75,100,112.01
6753,C4,438.0,0.75,100,112.01
6754,B1,438.0,0.75,100,112.01
6755,E-4,438.0,0.75,90,112.01
6756,G4,438.0,0.75,90,112.01
6757,C4,438.0,0.75,90,112.01
6758,C2,438.0,0.188,100,112.01
6759,G#2,438.0,0.188,100,112.01
6760,G#3,438.0,0.188,100,112.01
6761,G#2,438.5,23/200,100,112.01
6762,A2,439.0,0.219,115,112.01
6763,E-4,439.0,0.5,100,112.01
6764,C4,439.0,0.5,100,112.01
6765,G4,439.0,0.5,100,112.01
6766,A3,439.0,0.5,100,112.01
6767,B1,439.0,0.5,100,112.01
6768,E-4,439.0,0.5,90,112.01
6769,G4,439.0,0.5,90,112.01
6770,C4,439.0,0.5,90,112.01
6771,D2,439.0,0.125,100,112.01
6772,G#2,439.0,0.125,100,112.01
6773,B2,439.25,99/250,115,112.01
6774,G#2,439.5,0.125,100,112.01
6775,E1,439.75,0.25,115,112.01
6776,F#4,439.75,0.25,100,112.01
6777,D4,439.75,0.25,100,112.01
6778,B3,439.75,0.25,100,112.01
6779,G3,439.75,0.25,100,112.01
6780,E2,439.75,0.25,100,112.01
6781,B3,439.75,0.25,90,112.01
6782,D4,439.75,0.25,90,112.01
6783,F#4,439.75,0.25,90,112.01
6784,C2,439.75,0.125,100,112.01
6785,B-2,439.75,0.125,100,112.01
6786,E1,440.0,13/250,115,112.01
6787,B-4,440.0,0.25,120,112.01
6788,G#2,440.0,83/1000,100,112.01
6789,G#3,440.0,0.188,100,112.01
6790,E3,440.25,177/250,115,112.01
6791,B4,440.25,0.156,120,112.01
6792,G#2,440.25,0.062,100,112.01
6793,F#5,440.25,0.156,125,112.01
6794,B4,440.25,0.156,125,112.01
6795,D5,440.25,0.156,125,112.01
6796,D5,440.417,0.156,120,112.01
6797,B4,440.5,0.156,120,112.01
6798,G#2,440.5,0.125,100,112.01
6799,F#5,440.5,0.156,125,112.01
6800,D5,440.5,0.156,125,112.01
6801,B4,440.5,0.156,125,112.01
6802,D5,440.667,0.156,120,112.01
6803,B4,440.75,0.156,120,112.01
6804,F#5,440.75,0.156,125,112.01
6805,B4,440.75,0.156,125,112.01
6806,D5,440.75,0.156,125,112.01
6807,D5,440.917,0.156,120,112.01
6808,E2,441.0,6/25,115,112.01
6809,B4,441.0,0.156,120,112.01
6810,F#4,441.0,0.25,100,112.01
6811,B3,441.0,0.25,100,112.01
6812,D4,441.0,0.25,100,112.01
6813,G3,441.0,0.25,100,112.01
6814,E2,441.0,0.25,100,112.01
6815,F#4,441.0,0.25,90,112.01
6816,D4,441.0,0.25,90,112.01
6817,B3,441.0,0.25,90,112.01
6818,D5,441.0,0.156,125,112.01
6819,F#5,441.0,0.156,125,112.01
6820,B4,441.0,0.156,125,112.01
6821,C2,441.0,0.125,100,112.01
6822,G#2,441.0,0.125,100,112.01
6823,D5,441.167,0.156,120,112.01
6824,B4,441.25,0.156,120,112.01
6825,B4,441.25,0.156,125,112.01
6826,G5,441.25,0.156,125,112.01
6827,E5,441.25,0.156,125,112.01
6828,D5,441.417,0.156,120,112.01
6829,D2,441.5,0.219,115,112.01
6830,B3,441.5,0.25,100,112.01
6831,G3,441.5,0.25,100,112.01
6832,F#4,441.5,0.25,100,112.01
6833,D4,441.5,0.25,100,112.01
6834,D2,441.5,0.25,100,112.01
6835,F#4,441.5,0.25,90,112.01
6836,D4,441.5,0.25,90,112.01
6837,B3,441.5,0.25,90,112.01
6838,C2,441.5,0.125,100,112.01
6839,G#2,441.5,0.125,100,112.01
6840,C#2,442.0,427/1000,115,112.01
6841,C5,442.0,0.25,120,112.01
6842,G#3,442.0,0.75,100,112.01
6843,E4,442.0,0.75,100,112.01
6844,B3,442.0,0.75,100,112.01
6845,F3,442.0,0.75,100,112.01
6846,C#2,442.0,0.75,100,112.01
6847,E4,442.0,0.75,90,112.01
6848,G#3,442.0,0.75,90,112.01
6849,B3,442.0,0.75,90,112.01
6850,C2,442.0,177/1000,100,112.01
6851,G#2,442.0,177/1000,100,112.01
6852,G#3,442.0,177/1000,100,112.01
6853,C#5,442.25,0.156,120,112.01
6854,E5,442.417,0.156,120,112.01
6855,C#3,442.5,0.344,115,112.01
6856,C#5,442.5,0.156,120,112.01
6857,G#2,442.5,0.125,100,112.01
6858,E5,442.667,0.156,120,112.01
6859,C#5,442.75,0.156,120,112.01
6860,E5,442.917,0.156,120,112.01
6861,C#2,443.0,49/100,115,112.01
6862,E4,443.0,49/100,100,112.01
6863,B3,443.0,49/100,100,112.01
6864,G#3,443.0,49/100,100,112.01
6865,F3,443.0,49/100,100,112.01
6866,C#2,443.0,49/100,100,112.01
6867,E4,443.0,0.5,90,112.01
6868,B3,443.0,0.5,90,112.01
6869,G#3,443.0,0.5,90,112.01
6870,D2,443.0,73/500,100,112.01
6871,G#2,443.0,73/500,100,112.01
6872,G5,443.25,0.25,120,112.01
6873,A5,443.5,0.25,120,112.01
6874,G#2,443.5,23/200,100,112.01
6875,C2,443.75,0.25,115,112.01
6876,D4,443.75,0.25,100,112.01
6877,B-3,443.75,0.25,100,112.01
6878,E3,443.75,0.25,100,112.01
6879,G3,443.75,0.25,100,112.01
6880,C2,443.75,0.25,100,112.01
6881,D4,443.75,0.25,90,112.01
6882,B-3,443.75,0.25,90,112.01
6883,G3,443.75,0.25,90,112.01
6884,C2,443.75,27/200,100,112.01
6885,B-2,443.75,27/200,100,112.01
6886,C2,444.0,99/500,115,112.01
6887,B-5,444.0,1.75,120,112.01
6888,G#2,444.0,0.156,100,112.01
6889,G#3,444.0,0.156,100,112.01
6890,C3,444.25,0.469,115,112.01
6891,G#2,444.25,13/125,100,112.01
6892,G#2,444.5,0.125,100,112.01
6893,C2,445.0,0.219,115,112.01
6894,B-3,445.0,0.25,100,112.01
6895,G3,445.0,0.25,100,112.01
6896,D4,445.0,0.25,100,112.01
6897,E3,445.0,0.25,100,112.01
6898,C2,445.0,0.25,100,112.01
6899,B-3,445.0,0.25,90,112.01
6900,D4,445.0,0.25,90,112.01
6901,G3,445.0,0.25,90,112.01
6902,C2,445.0,0.125,100,112.01
6903,G#2,445.0,0.125,100,112.01
6904,C2,445.5,26/125,115,112.01
6905,E3,445.5,0.25,100,112.01
6906,B-3,445.5,0.25,100,112.01
6907,G3,445.5,0.25,100,112.01
6908,D4,445.5,0.25,100,112.01
6909,C2,445.5,0.25,100,112.01
6910,B-3,445.5,0.25,90,112.01
6911,G3,445.5,0.25,90,112.01
6912,D4,445.5,0.25,90,112.01
6913,C2,445.5,23/200,100,112.01
6914,G#2,445.5,23/200,100,112.01
6915,B1,446.0,0.719,115,112.01
6916,A5,446.0,0.75,120,112.01
6917,E-4,446.0,0.75,100,112.01
6918,C4,446.0,0.75,100,112.01
6919,G4,446.0,0.75,100,112.01
6920,A3,446.0,0.75,100,112.01
6921,B1,446.0,0.75,100,112.01
6922,E-4,446.0,0.75,90,112.01
6923,G4,446.0,0.75,90,112.01
6924,C4,446.0,0.75,90,112.01
6925,C2,446.0,0.188,100,112.01
6926,G#2,446.0,0.188,100,112.01
6927,G#3,446.0,0.188,100,112.01
6928,G#2,446.5,27/200,100,112.01
6929,B1,447.0,49/100,115,112.01
6930,G5,447.0,0.25,120,112.01
6931,E-4,447.0,0.5,100,112.01
6932,C4,447.0,0.5,100,112.01
6933,G4,447.0,0.5,100,112.01
6934,A3,447.0,0.5,100,112.01
6935,B1,447.0,0.5,100,112.01
6936,E-4,447.0,0.5,90,112.01
6937,G4,447.0,0.5,90,112.01
6938,C4,447.0,0.5,90,112.01
6939,D2,447.0,27/200,100,112.01
6940,G#2,447.0,27/200,100,112.01
6941,A5,447.25,0.25,120,112.01
6942,G#2,447.5,23/200,100,112.01
6943,E1,447.75,0.25,115,112.01
6944,G5,447.75,0.25,120,112.01
6945,B3,447.75,0.25,100,112.01
6946,F#4,447.75,0.25,100,112.01
6947,D4,447.75,0.25,100,112.01
6948,G3,447.75,0.25,100,112.01
6949,E2,447.75,0.25,100,112.01
6950,D4,447.75,0.25,90,112.01
6951,F#4,447.75,0.25,90,112.01
6952,B3,447.75,0.25,90,112.01
6953,G4,447.75,0.25,125,112.01
6954,E5,447.75,0.25,125,112.01
6955,B4,447.75,0.25,125,112.01
6956,C2,447.75,23/200,100,112.01
6957,B-2,447.75,23/200,100,112.01
6958,E1,448.0,271/500,115,112.01
6959,G#2,448.0,13/125,100,112.01
6960,G#3,448.0,0.188,100,112.01
6961,B3,448.0,173/200,100,112.01
6962,F#4,448.0,173/200,100,112.01
6963,D4,448.0,173/200,100,112.01
6964,G3,448.0,173/200,100,112.01
6965,E2,448.0,173/200,100,112.01
6966,D4,448.0,0.75,90,112.01
6967,F#4,448.0,0.75,90,112.01
6968,B3,448.0,0.75,90,112.01
6969,G4,448.0,729/1000,125,112.01
6970,E5,448.0,729/1000,125,112.01
6971,B4,448.0,729/1000,125,112.01
6972,E5,448.25,249/100,120,112.01
6973,G#2,448.25,0.094,100,112.01
6974,E3,448.5,271/1000,115,112.01
6975,G#2,448.5,0.094,100,112.01
6976,E-2,449.0,49/100,115,112.01
6977,F4,449.0,173/200,100,112.01
6978,F#3,449.0,173/200,100,112.01
6979,C#4,449.0,173/200,100,112.01
6980,B-3,449.0,173/200,100,112.01
6981,E-2,449.0,173/200,100,112.01
6982,F4,449.0,0.75,90,112.01
6983,C#4,449.0,0.75,90,112.01
6984,B-3,449.0,0.75,90,112.01
6985,F#5,449.0,19/25,125,112.01
6986,B-4,449.0,19/25,125,112.01
6987,C#5,449.0,19/25,125,112.01
6988,C2,449.0,0.125,100,112.01
6989,G#2,449.0,0.125,100,112.01
6990,E5,449.469,0.0,122,112.01
6991,B-4,449.469,0.25,122,112.01
6992,C5,449.469,0.25,122,112.01
6993,E5,449.469,0.25,122,112.01
6994,E-3,449.5,77/200,115,112.01
6995,G#2,449.5,0.156,100,112.01
6996,D5,449.969,0.0,122,112.01
6997,G4,449.969,0.5,122,112.01
6998,B-4,449.969,0.5,122,112.01
6999,D5,449.969,0.5,122,112.01
7000,D2,450.0,0.469,115,112.01
7001,C4,450.0,173/200,100,112.01
7002,A3,450.0,173/200,100,112.01
7003,E4,450.0,173/200,100,112.01
7004,F3,450.0,173/200,100,112.01
7005,D2,450.0,173/200,100,112.01
7006,E4,450.0,0.75,90,112.01
7007,C4,450.0,0.75,90,112.01
7008,A3,450.0,0.75,90,112.01
7009,A4,450.0,19/25,125,112.01
7010,E5,450.0,19/25,125,112.01
7011,C5,450.0,19/25,125,112.01
7012,G5,450.0,19/25,125,112.01
7013,C2,450.0,167/1000,100,112.01
7014,G#2,450.0,167/1000,100,112.01
7015,G#3,450.0,167/1000,100,112.01
7016,D3,450.5,151/500,115,112.01
7017,G#2,450.5,27/200,100,112.01
7018,B-4,450.719,0.0,122,112.01
7019,E4,450.719,0.25,122,112.01
7020,G4,450.719,0.25,122,112.01
7021,B-4,450.719,0.25,122,112.01
7022,C#2,451.0,427/1000,115,112.01
7023,E4,451.0,123/200,100,112.01
7024,G#3,451.0,123/200,100,112.01
7025,B3,451.0,123/200,100,112.01
7026,F3,451.0,123/200,100,112.01
7027,C#2,451.0,123/200,100,112.01
7028,B3,451.0,0.5,90,112.01
7029,E4,451.0,0.5,90,112.01
7030,G#3,451.0,0.5,90,112.01
7031,G5,451.0,0.656,125,112.01
7032,B4,451.0,0.656,125,112.01
7033,B5,451.0,0.656,125,112.01
7034,E-5,451.0,0.656,125,112.01
7035,D2,451.0,0.125,100,112.01
7036,G#2,451.0,0.125,100,112.01
7037,A4,451.219,0.0,122,112.01
7038,D4,451.219,0.25,122,112.01
7039,E4,451.219,0.25,122,112.01
7040,A4,451.219,0.25,122,112.01
7041,C#3,451.5,229/1000,115,112.01
7042,G#2,451.5,23/200,100,112.01
7043,G4,451.719,0.0,122,112.01
7044,B3,451.719,0.75,122,112.01
7045,D4,451.719,0.75,122,112.01
7046,G4,451.719,0.75,122,112.01
7047,C2,451.75,0.25,115,112.01
7048,D4,451.75,0.25,100,112.01
7049,B-3,451.75,0.25,100,112.01
7050,E3,451.75,0.25,100,112.01
7051,G3,451.75,0.25,100,112.01
7052,C2,451.75,0.25,100,112.01
7053,B-3,451.75,0.25,90,112.01
7054,D4,451.75,0.25,90,112.01
7055,G3,451.75,0.25,90,112.01
7056,C2,451.75,0.125,100,112.01
7057,B-2,451.75,0.125,100,112.01
7058,C2,452.0,0.156,115,112.01
7059,G#2,452.0,83/1000,100,112.01
7060,G#3,452.0,167/1000,100,112.01
7061,C3,452.25,0.438,115,112.01
7062,G#2,452.25,73/1000,100,112.01
7063,G#2,452.5,13/125,100,112.01
7064,A4,452.719,0.0,122,112.01
7065,D4,452.719,0.5,122,112.01
7066,F#4,452.719,0.5,122,112.01
7067,A4,452.719,0.5,122,112.01
7068,C2,453.0,6/25,115,112.01
7069,B-3,453.0,0.25,100,112.01
7070,G3,453.0,0.25,100,112.01
7071,D4,453.0,0.25,100,112.01
7072,E3,453.0,0.25,100,112.01
7073,C2,453.0,0.25,100,112.01
7074,B-3,453.0,0.25,90,112.01
7075,D4,453.0,0.25,90,112.01
7076,G3,453.0,0.25,90,112.01
7077,C2,453.0,73/500,100,112.01
7078,G#2,453.0,73/500,100,112.01
7079,B4,453.469,0.0,122,112.01
7080,F#4,453.469,0.25,122,112.01
7081,G4,453.469,0.25,122,112.01
7082,B4,453.469,0.25,122,112.01
7083,C2,453.5,6/25,115,112.01
7084,E3,453.5,0.25,100,112.01
7085,B-3,453.5,0.25,100,112.01
7086,D4,453.5,0.25,100,112.01
7087,G3,453.5,0.25,100,112.01
7088,C2,453.5,0.25,100,112.01
7089,B-3,453.5,0.25,90,112.01
7090,G3,453.5,0.25,90,112.01
7091,D4,453.5,0.25,90,112.01
7092,C2,453.5,73/500,100,112.01
7093,G#2,453.5,73/500,100,112.01
7094,B1,454.0,99/125,115,112.01
7095,E-4,454.0,0.75,100,112.01
7096,G4,454.0,0.75,100,112.01
7097,A3,454.0,0.75,100,112.01
7098,C4,454.0,0.75,100,112.01
7099,B1,454.0,0.75,100,112.01
7100,E-4,454.0,0.75,90,112.01
7101,G4,454.0,0.75,90,112.01
7102,C4,454.0,0.75,90,112.01
7103,C2,454.0,177/1000,100,112.01
7104,G#2,454.0,177/1000,100,112.01
7105,G#3,454.0,177/1000,100,112.01
7106,G#2,454.5,27/200,100,112.01
7107,A2,455.0,0.219,115,112.01
7108,E-4,455.0,0.5,100,112.01
7109,C4,455.0,0.5,100,112.01
7110,G4,455.0,0.5,100,112.01
7111,A3,455.0,0.5,100,112.01
7112,B1,455.0,0.5,100,112.01
7113,E-4,455.0,0.5,90,112.01
7114,G4,455.0,0.5,90,112.01
7115,C4,455.0,0.5,90,112.01
7116,D2,455.0,0.125,100,112.01
7117,G#2,455.0,0.125,100,112.01
7118,B2,455.25,99/250,115,112.01
7119,G#2,455.5,0.125,100,112.01
7120,E1,455.75,0.25,115,112.01
7121,F#4,455.75,0.25,100,112.01
7122,D4,455.75,0.25,100,112.01
7123,B3,455.75,0.25,100,112.01
7124,G3,455.75,0.25,100,112.01
7125,E2,455.75,0.25,100,112.01
7126,F#4,455.75,0.25,90,112.01
7127,D4,455.75,0.25,90,112.01
7128,B3,455.75,0.25,90,112.01
7129,C2,455.75,27/200,100,112.01
7130,B-2,455.75,27/200,100,112.01
7131,G#2,456.0,0.0,100,112.01
7132,E1,456.0,13/250,115,112.01
7133,B-4,456.0,0.25,120,112.01
7134,G#2,456.0,0.094,100,112.01
7135,G#3,456.0,167/1000,100,112.01
7136,E3,456.25,177/250,115,112.01
7137,B4,456.25,0.156,120,112.01
7138,G#2,456.25,0.094,100,112.01
7139,F#5,456.25,0.156,125,112.01
7140,B4,456.25,0.156,125,112.01
7141,D5,456.25,0.156,125,112.01
7142,D5,456.417,0.156,120,112.01
7143,B4,456.5,0.156,120,112.01
7144,G#2,456.5,0.125,100,112.01
7145,F#5,456.5,0.156,125,112.01
7146,D5,456.5,0.156,125,112.01
7147,B4,456.5,0.156,125,112.01
7148,D5,456.667,0.156,120,112.01
7149,B4,456.75,0.156,120,112.01
7150,F#5,456.75,0.156,125,112.01
7151,B4,456.75,0.156,125,112.01
7152,D5,456.75,0.156,125,112.01
7153,D5,456.917,0.156,120,112.01
7154,E2,457.0,6/25,115,112.01
7155,B4,457.0,0.156,120,112.01
7156,F#4,457.0,0.25,100,112.01
7157,B3,457.0,0.25,100,112.01
7158,D4,457.0,0.25,100,112.01
7159,G3,457.0,0.25,100,112.01
7160,E2,457.0,0.25,100,112.01
7161,B3,457.0,0.25,90,112.01
7162,D4,457.0,0.25,90,112.01
7163,F#4,457.0,0.25,90,112.01
7164,D5,457.0,0.156,125,112.01
7165,F#5,457.0,0.156,125,112.01
7166,B4,457.0,0.156,125,112.01
7167,C2,457.0,27/200,100,112.01
7168,G#2,457.0,27/200,100,112.01
7169,D5,457.167,0.156,120,112.01
7170,B4,457.25,0.156,120,112.01
7171,B4,457.25,0.156,125,112.01
7172,G5,457.25,0.156,125,112.01
7173,E5,457.25,0.156,125,112.01
7174,D5,457.417,0.156,120,112.01
7175,D2,457.5,0.219,115,112.01
7176,B3,457.5,0.25,100,112.01
7177,G3,457.5,0.25,100,112.01
7178,F#4,457.5,0.25,100,112.01
7179,D4,457.5,0.25,100,112.01
7180,D2,457.5,0.25,100,112.01
7181,F#4,457.5,0.25,90,112.01
7182,D4,457.5,0.25,90,112.01
7183,B3,457.5,0.25,90,112.01
7184,C2,457.5,73/500,100,112.01
7185,G#2,457.5,73/500,100,112.01
7186,C#2,458.0,427/1000,115,112.01
7187,G#3,458.0,0.75,100,112.01
7188,E4,458.0,0.75,100,112.01
7189,B3,458.0,0.75,100,112.01
7190,F3,458.0,0.75,100,112.01
7191,C#2,458.0,0.75,100,112.01
7192,E4,458.0,0.75,90,112.01
7193,B3,458.0,0.75,90,112.01
7194,G#3,458.0,0.75,90,112.01
7195,C2,458.0,167/1000,100,112.01
7196,G#2,458.0,167/1000,100,112.01
7197,G#3,458.0,167/1000,100,112.01
7198,C#3,458.5,0.344,115,112.01
7199,G#2,458.5,0.125,100,112.01
7200,C#2,459.0,49/100,115,112.01
7201,B-4,459.0,0.25,120,112.01
7202,E4,459.0,49/100,100,112.01
7203,B3,459.0,49/100,100,112.01
7204,G#3,459.0,49/100,100,112.01
7205,F3,459.0,49/100,100,112.01
7206,C#2,459.0,49/100,100,112.01
7207,B3,459.0,0.5,90,112.01
7208,E4,459.0,0.5,90,112.01
7209,G#3,459.0,0.5,90,112.01
7210,D2,459.0,0.125,100,112.01
7211,G#2,459.0,0.125,100,112.01
7212,B4,459.25,0.25,120,112.01
7213,G#2,459.5,13/125,100,112.01
7214,C2,459.75,0.25,115,112.01
7215,E5,459.75,0.25,120,112.01
7216,D4,459.75,0.25,100,112.01
7217,B-3,459.75,0.25,100,112.01
7218,E3,459.75,0.25,100,112.01
7219,G3,459.75,0.25,100,112.01
7220,C2,459.75,0.25,100,112.01
7221,B-3,459.75,0.25,90,112.01
7222,D4,459.75,0.25,90,112.01
7223,G3,459.75,0.25,90,112.01
7224,C2,459.75,13/125,100,112.01
7225,B-2,459.75,13/125,100,112.01
7226,C2,460.0,99/500,115,112.01
7227,E5,460.0,0.75,120,112.01
7228,G#2,460.0,73/1000,100,112.01
7229,G#3,460.0,167/1000,100,112.01
7230,C3,460.25,0.469,115,112.01
7231,G#2,460.25,0.094,100,112.01
7232,G#2,460.5,27/200,100,112.01
7233,C2,461.0,0.219,115,112.01
7234,D5,461.0,0.75,120,112.01
7235,B-3,461.0,0.25,100,112.01
7236,G3,461.0,0.25,100,112.01
7237,D4,461.0,0.25,100,112.01
7238,E3,461.0,0.25,100,112.01
7239,C2,461.0,0.25,100,112.01
7240,B-3,461.0,0.25,90,112.01
7241,D4,461.0,0.25,90,112.01
7242,G3,461.0,0.25,90,112.01
7243,C2,461.0,27/200,100,112.01
7244,G#2,461.0,27/200,100,112.01
7245,C2,461.5,26/125,115,112.01
7246,E3,461.5,0.25,100,112.01
7247,B-3,461.5,0.25,100,112.01
7248,G3,461.5,0.25,100,112.01
7249,D4,461.5,0.25,100,112.01
7250,C2,461.5,0.25,100,112.01
7251,G3,461.5,0.25,90,112.01
7252,B-3,461.5,0.25,90,112.01
7253,D4,461.5,0.25,90,112.01
7254,C2,461.5,27/200,100,112.01
7255,G#2,461.5,27/200,100,112.01
7256,B1,462.0,0.719,115,112.01
7257,B-4,462.0,0.25,120,112.01
7258,E-4,462.0,0.75,100,112.01
7259,C4,462.0,0.75,100,112.01
7260,G4,462.0,0.75,100,112.01
7261,A3,462.0,0.75,100,112.01
7262,B1,462.0,0.75,100,112.01
7263,G4,462.0,0.75,90,112.01
7264,E-4,462.0,0.75,90,112.01
7265,C4,462.0,0.75,90,112.01
7266,C2,462.0,167/1000,100,112.01
7267,G#2,462.0,167/1000,100,112.01
7268,G#3,462.0,167/1000,100,112.01
7269,A4,462.25,0.25,120,112.01
7270,G4,462.5,0.25,120,112.01
7271,G#2,462.5,13/125,100,112.01
7272,B1,463.0,49/100,115,112.01
7273,A4,463.0,0.25,120,112.01
7274,E-4,463.0,0.5,100,112.01
7275,C4,463.0,0.5,100,112.01
7276,G4,463.0,0.5,100,112.01
7277,A3,463.0,0.5,100,112.01
7278,B1,463.0,0.5,100,112.01
7279,E-4,463.0,0.5,90,112.01
7280,G4,463.0,0.5,90,112.01
7281,C4,463.0,0.5,90,112.01
7282,D2,463.0,23/200,100,112.01
7283,G#2,463.0,23/200,100,112.01
7284,G4,463.25,0.25,120,112.01
7285,G#2,463.5,13/125,100,112.01
7286,E1,463.75,0.25,115,112.01
7287,B4,463.75,0.25,120,112.01
7288,B-4,463.75,73/1000,120,112.01
7289,B3,463.75,0.25,100,112.01
7290,F#4,463.75,0.25,100,112.01
7291,D4,463.75,0.25,100,112.01
7292,G3,463.75,0.25,100,112.01
7293,E2,463.75,0.25,100,112.01
7294,B3,463.75,0.25,90,112.01
7295,D4,463.75,0.25,90,112.01
7296,F#4,463.75,0.25,90,112.01
7297,G4,463.75,0.25,125,112.01
7298,E5,463.75,0.25,125,112.01
7299,B4,463.75,0.25,125,112.01
7300,C2,463.75,23/200,100,112.01
7301,B-2,463.75,23/200,100,112.01
7302,E1,464.0,271/500,115,112.01
7303,B4,464.0,0.156,120,112.01
7304,B3,464.0,173/200,100,112.01
7305,F#4,464.0,173/200,100,112.01
7306,D4,464.0,173/200,100,112.01
7307,G3,464.0,173/200,100,112.01
7308,E2,464.0,173/200,100,112.01
7309,B3,464.0,0.75,90,112.01
7310,D4,464.0,0.75,90,112.01
7311,F#4,464.0,0.75,90,112.01
7312,G4,464.0,729/1000,125,112.01
7313,E5,464.0,729/1000,125,112.01
7314,B4,464.0,729/1000,125,112.01
7315,G#2,464.0,0.156,100,112.01
7316,G#3,464.0,0.156,100,112.01
7317,G4,464.25,0.25,120,112.01
7318,G#2,464.25,13/125,100,112.01
7319,E3,464.5,271/1000,115,112.01
7320,G#2,464.5,27/200,100,112.01
7321,E4,464.75,2.25,120,112.01
7322,E-2,465.0,49/100,115,112.01
7323,F4,465.0,173/200,100,112.01
7324,F#3,465.0,173/200,100,112.01
7325,C#4,465.0,173/200,100,112.01
7326,B-3,465.0,173/200,100,112.01
7327,E-2,465.0,173/200,100,112.01
7328,F4,465.0,0.75,90,112.01
7329,C#4,465.0,0.75,90,112.01
7330,B-3,465.0,0.75,90,112.01
7331,F#5,465.0,19/25,125,112.01
7332,B-4,465.0,19/25,125,112.01
7333,C#5,465.0,19/25,125,112.01
7334,C2,465.0,73/500,100,112.01
7335,G#2,465.0,73/500,100,112.01
7336,E5,465.469,0.0,122,112.01
7337,B-4,465.469,0.25,122,112.01
7338,C5,465.469,0.25,122,112.01
7339,E5,465.469,0.25,122,112.01
7340,E-3,465.5,77/200,115,112.01
7341,G#2,465.5,27/200,100,112.01
7342,D5,465.969,0.0,122,112.01
7343,G4,465.969,0.5,122,112.01
7344,B-4,465.969,0.5,122,112.01
7345,D5,465.969,0.5,122,112.01
7346,D2,466.0,0.469,115,112.01
7347,A3,466.0,0.5,90,112.01
7348,C4,466.0,173/200,100,112.01
7349,A3,466.0,173/200,100,112.01
7350,E4,466.0,173/200,100,112.01
7351,F3,466.0,173/200,100,112.01
7352,D2,466.0,173/200,100,112.01
7353,E4,466.0,0.75,90,112.01
7354,C4,466.0,0.75,90,112.01
7355,A4,466.0,19/25,125,112.01
7356,E5,466.0,19/25,125,112.01
7357,C5,466.0,19/25,125,112.01
7358,G5,466.0,19/25,125,112.01
7359,C2,466.0,167/1000,100,112.01
7360,G#2,466.0,167/1000,100,112.01
7361,G#3,466.0,167/1000,100,112.01
7362,D3,466.5,151/500,115,112.01
7363,G#2,466.5,0.125,100,112.01
7364,B-4,466.719,0.0,122,112.01
7365,E4,466.719,0.25,122,112.01
7366,G4,466.719,0.25,122,112.01
7367,B-4,466.719,0.25,122,112.01
7368,C#2,467.0,427/1000,115,112.01
7369,E4,467.0,123/200,100,112.01
7370,G#3,467.0,123/200,100,112.01
7371,B3,467.0,123/200,100,112.01
7372,F3,467.0,123/200,100,112.01
7373,C#2,467.0,123/200,100,112.01
7374,E4,467.0,0.5,90,112.01
7375,B3,467.0,0.5,90,112.01
7376,G#3,467.0,0.5,90,112.01
7377,G5,467.0,0.656,125,112.01
7378,B4,467.0,0.656,125,112.01
7379,B5,467.0,0.656,125,112.01
7380,E-5,467.0,0.656,125,112.01
7381,D2,467.0,23/200,100,112.01
7382,G#2,467.0,23/200,100,112.01
7383,A4,467.219,0.0,122,112.01
7384,D4,467.219,0.25,122,112.01
7385,E4,467.219,0.25,122,112.01
7386,A4,467.219,0.25,122,112.01
7387,C#3,467.5,229/1000,115,112.01
7388,G#2,467.5,13/125,100,112.01
7389,G4,467.719,0.0,122,112.01
7390,B3,467.719,0.75,122,112.01
7391,D4,467.719,0.75,122,112.01
7392,G4,467.719,0.75,122,112.01
7393,C2,467.75,0.25,115,112.01
7394,D4,467.75,0.25,100,112.01
7395,B-3,467.75,0.25,100,112.01
7396,E3,467.75,0.25,100,112.01
7397,G3,467.75,0.25,100,112.01
7398,C2,467.75,0.25,100,112.01
7399,B-3,467.75,0.25,90,112.01
7400,G3,467.75,0.25,90,112.01
7401,D4,467.75,0.25,90,112.01
7402,C2,467.75,0.125,100,112.01
7403,B-2,467.75,0.125,100,112.01
7404,C2,468.0,0.156,115,112.01
7405,G#2,468.0,0.094,100,112.01
7406,G#3,468.0,177/1000,100,112.01
7407,C3,468.25,0.438,115,112.01
7408,G#2,468.25,0.094,100,112.01
7409,G#2,468.5,27/200,100,112.01
7410,A4,468.719,0.0,122,112.01
7411,D4,468.719,0.5,122,112.01
7412,F#4,468.719,0.5,122,112.01
7413,A4,468.719,0.5,122,112.01
7414,C2,469.0,6/25,115,112.01
7415,B-3,469.0,0.25,100,112.01
7416,G3,469.0,0.25,100,112.01
7417,D4,469.0,0.25,100,112.01
7418,E3,469.0,0.25,100,112.01
7419,C2,469.0,0.25,100,112.01
7420,B-3,469.0,0.25,90,112.01
7421,D4,469.0,0.25,90,112.01
7422,G3,469.0,0.25,90,112.01
7423,C2,469.0,27/200,100,112.01
7424,G#2,469.0,27/200,100,112.01
7425,B4,469.469,0.0,122,112.01
7426,F#4,469.469,0.25,122,112.01
7427,G4,469.469,0.25,122,112.01
7428,B4,469.469,0.25,122,112.01
7429,C2,469.5,6/25,115,112.01
7430,E3,469.5,0.25,100,112.01
7431,B-3,469.5,0.25,100,112.01
7432,D4,469.5,0.25,100,112.01
7433,G3,469.5,0.25,100,112.01
7434,C2,469.5,0.25,100,112.01
7435,B-3,469.5,0.25,90,112.01
7436,G3,469.5,0.25,90,112.01
7437,D4,469.5,0.25,90,112.01
7438,C2,469.5,13/125,100,112.01
7439,G#2,469.5,13/125,100,112.01
7440,B1,470.0,99/125,115,112.01
7441,E-4,470.0,0.75,100,112.01
7442,G4,470.0,0.75,100,112.01
7443,A3,470.0,0.75,100,112.01
7444,C4,470.0,0.75,100,112.01
7445,B1,470.0,0.75,100,112.01
7446,E-4,470.0,0.75,90,112.01
7447,C4,470.0,0.75,90,112.01
7448,G4,470.0,0.75,90,112.01
7449,C2,470.0,177/1000,100,112.01
7450,G#2,470.0,177/1000,100,112.01
7451,G#3,470.0,177/1000,100,112.01
7452,G#2,470.5,13/125,100,112.01
7453,A2,471.0,0.219,115,112.01
7454,E-4,471.0,0.5,100,112.01
7455,C4,471.0,0.5,100,112.01
7456,G4,471.0,0.5,100,112.01
7457,A3,471.0,0.5,100,112.01
7458,B1,471.0,0.5,100,112.01
7459,E-4,471.0,0.5,90,112.01
7460,G4,471.0,0.5,90,112.01
7461,C4,471.0,0.5,90,112.01
7462,D2,471.0,23/200,100,112.01
7463,G#2,471.0,23/200,100,112.01
7464,B2,471.25,99/250,115,112.01
7465,G#2,471.5,13/250,100,112.01
7466,E1,471.75,0.25,115,112.01
7467,C2,471.75,177/1000,100,112.01
7468,B-2,471.75,83/1000,100,112.01
7469,F#4,471.75,0.25,100,112.01
7470,D4,471.75,0.25,100,112.01
7471,B3,471.75,0.25,100,112.01
7472,G3,471.75,0.25,100,112.01
7473,E2,471.75,0.25,100,112.01
7474,B3,471.75,0.25,90,112.01
7475,D4,471.75,0.25,90,112.01
7476,F#4,471.75,0.25,90,112.01
7477,E1,472.0,13/250,115,112.01
7478,G#2,472.0,13/250,100,112.01
7479,G#3,472.0,167/1000,100,112.01
7480,E3,472.25,177/250,115,112.01
7481,E-5,472.25,0.25,120,112.01
7482,G#2,472.25,21/500,100,112.01
7483,F#5,472.25,0.156,125,112.01
7484,B4,472.25,0.156,125,112.01
7485,D5,472.25,0.156,125,112.01
7486,E5,472.5,0.156,120,112.01
7487,G#2,472.5,23/200,100,112.01
7488,B4,472.5,0.156,125,112.01
7489,F#5,472.5,0.156,125,112.01
7490,D5,472.5,0.156,125,112.01
7491,G5,472.667,0.156,120,112.01
7492,E5,472.75,0.156,120,112.01
7493,F#5,472.75,0.156,125,112.01
7494,D5,472.75,0.156,125,112.01
7495,B4,472.75,0.156,125,112.01
7496,G5,472.917,0.156,120,112.01
7497,E2,473.0,6/25,115,112.01
7498,E5,473.0,0.156,120,112.01
7499,F#4,473.0,0.25,100,112.01
7500,E2,473.0,0.25,100,112.01
7501,G3,473.0,0.25,100,112.01
7502,B3,473.0,0.25,100,112.01
7503,D4,473.0,0.25,100,112.01
7504,F#4,473.0,0.25,90,112.01
7505,D4,473.0,0.25,90,112.01
7506,B3,473.0,0.25,90,112.01
7507,D5,473.0,0.156,125,112.01
7508,B4,473.0,0.156,125,112.01
7509,F#5,473.0,0.156,125,112.01
7510,C2,473.0,27/200,100,112.01
7511,G#2,473.0,27/200,100,112.01
7512,G5,473.167,0.156,120,112.01
7513,E5,473.25,0.156,120,112.01
7514,G5,473.25,0.156,125,112.01
7515,E5,473.25,0.156,125,112.01
7516,B4,473.25,0.156,125,112.01
7517,G5,473.417,0.156,120,112.01
7518,D2,473.5,0.219,115,112.01
7519,F#4,473.5,0.25,100,112.01
7520,D4,473.5,0.25,100,112.01
7521,G3,473.5,0.25,100,112.01
7522,B3,473.5,0.25,100,112.01
7523,D2,473.5,0.25,100,112.01
7524,F#4,473.5,0.25,90,112.01
7525,D4,473.5,0.25,90,112.01
7526,B3,473.5,0.25,90,112.01
7527,C2,473.5,73/500,100,112.01
7528,G#2,473.5,73/500,100,112.01
7529,C#2,474.0,427/1000,115,112.01
7530,G5,474.0,0.25,120,112.01
7531,E4,474.0,0.75,100,112.01
7532,B3,474.0,0.75,100,112.01
7533,G#3,474.0,0.75,100,112.01
7534,F3,474.0,0.75,100,112.01
7535,C#2,474.0,0.75,100,112.01
7536,E4,474.0,0.75,90,112.01
7537,G#3,474.0,0.75,90,112.01
7538,B3,474.0,0.75,90,112.01
7539,C2,474.0,0.156,100,112.01
7540,G#2,474.0,0.156,100,112.01
7541,G#3,474.0,0.156,100,112.01
7542,C#3,474.5,0.344,115,112.01
7543,A5,474.5,0.25,120,112.01
7544,G#2,474.5,73/500,100,112.01
7545,C#2,475.0,49/100,115,112.01
7546,B-5,475.0,0.25,120,112.01
7547,B3,475.0,49/100,100,112.01
7548,G#3,475.0,49/100,100,112.01
7549,C#2,475.0,49/100,100,112.01
7550,F3,475.0,49/100,100,112.01
7551,E4,475.0,49/100,100,112.01
7552,E4,475.0,0.5,90,112.01
7553,B3,475.0,0.5,90,112.01
7554,G#3,475.0,0.5,90,112.01
7555,D2,475.0,23/200,100,112.01
7556,G#2,475.0,23/200,100,112.01
7557,A5,475.25,0.25,120,112.01
7558,G5,475.5,0.25,120,112.01
7559,G#2,475.5,0.125,100,112.01
7560,C2,475.75,0.25,115,112.01
7561,D4,475.75,0.25,100,112.01
7562,B-3,475.75,0.25,100,112.01
7563,G4,475.75,0.25,100,112.01
7564,C2,475.75,0.25,100,112.01
7565,E4,475.75,0.25,100,112.01
7566,D4,475.75,0.25,90,112.01
7567,B-3,475.75,0.25,90,112.01
7568,G3,475.75,0.25,90,112.01
7569,G4,475.75,0.25,125,112.01
7570,E4,475.75,0.25,125,112.01
7571,D4,475.75,0.25,125,112.01
7572,B-3,475.75,0.25,125,112.01
7573,C2,475.75,167/1000,100,112.01
7574,B-2,475.75,167/1000,100,112.01
7575,C2,476.0,99/500,115,112.01
7576,B5,476.0,0.25,120,112.01
7577,G#2,476.0,23/200,100,112.01
7578,G#3,476.0,23/200,100,112.01
7579,D2,477.0,0.156,100,112.01
7580,B1,478.0,0.312,115,112.01
7581,A4,478.0,0.25,100,112.01
7582,E-4,478.0,0.25,100,112.01
7583,G4,478.0,0.25,100,112.01
7584,C4,478.0,0.25,100,112.01
7585,B1,478.0,0.25,100,112.01
7586,G4,478.0,0.25,90,112.01
7587,E-4,478.0,0.25,90,112.01
7588,C4,478.0,0.25,90,112.01
7589,G4,478.0,0.25,125,112.01
7590,E-4,478.0,0.25,125,112.01
7591,A4,478.0,0.25,125,112.01
7592,C4,478.0,0.25,125,112.01
7593,C2,478.0,0.156,100,112.01
7594,B-2,478.0,0.156,100,112.01
7595,G#2,478.25,23/200,100,112.01
7596,B1,478.75,229/500,115,112.01
7597,B4,478.75,0.25,100,112.01
7598,E-4,478.75,0.25,100,112.01
7599,C4,478.75,0.25,100,112.01
7600,G4,478.75,0.25,100,112.01
7601,B1,478.75,0.25,100,112.01
7602,E-4,478.75,0.25,90,112.01
7603,G4,478.75,0.25,90,112.01
7604,C4,478.75,0.25,90,112.01
7605,E-4,478.75,0.25,125,112.01
7606,B4,478.75,0.25,125,112.01
7607,C4,478.75,0.25,125,112.01
7608,G4,478.75,0.25,125,112.01
7609,C2,478.75,0.156,100,112.01
7610,B-2,478.75,0.156,100,112.01
7611,G#2,479.0,21/500,100,112.01
7612,E2,479.75,0.25,115,112.01
7613,B4,479.75,0.25,100,112.01
7614,D4,479.75,0.25,100,112.01
7615,E4,479.75,0.25,100,112.01
7616,G4,479.75,0.25,100,112.01
7617,E2,479.75,0.25,100,112.01
7618,F#4,479.75,0.25,90,112.01
7619,D4,479.75,0.25,90,112.01
7620,B3,479.75,0.25,90,112.01
7621,B4,479.75,0.25,125,112.01
7622,G4,479.75,0.25,125,112.01
7623,D5,479.75,0.25,125,112.01
7624,F#5,479.75,0.25,125,112.01
7625,C2,479.75,73/500,100,112.01
7626,B-2,479.75,73/500,100,112.01
7627,E2,480.0,229/1000,115,112.01
7628,G#2,480.0,23/200,100,112.01
7629,D2,481.0,0.156,100,112.01
7630,E5,481.469,0.0,122,112.01
7631,B-4,481.469,0.25,122,112.01
7632,C5,481.469,0.25,122,112.01
7633,E5,481.469,0.25,122,112.01
7634,D5,481.969,0.0,122,112.01
7635,G4,481.969,0.5,122,112.01
7636,B-4,481.969,0.5,122,112.01
7637,D5,481.969,0.5,122,112.01
7638,C#2,482.0,77/200,115,112.01
7639,G#3,482.0,0.25,100,112.01
7640,E4,482.0,0.25,100,112.01
7641,B3,482.0,0.25,100,112.01
7642,F3,482.0,0.25,100,112.01
7643,C#2,482.0,0.25,100,112.01
7644,E4,482.0,0.25,90,112.01
7645,B3,482.0,0.25,90,112.01
7646,G#3,482.0,0.25,90,112.01
7647,E4,482.0,0.25,125,112.01
7648,B3,482.0,0.25,125,112.01
7649,C#4,482.0,0.25,125,112.01
7650,C2,482.0,177/1000,100,112.01
7651,B-2,482.0,177/1000,100,112.01
7652,G#2,482.25,23/200,100,112.01
7653,B-4,482.719,0.0,122,112.01
7654,E4,482.719,0.25,122,112.01
7655,G4,482.719,0.25,122,112.01
7656,B-4,482.719,0.25,122,112.01
7657,C#2,482.75,56/125,115,112.01
7658,E4,482.75,0.25,100,112.01
7659,B3,482.75,0.25,100,112.01
7660,G#3,482.75,0.25,100,112.01
7661,F3,482.75,0.25,100,112.01
7662,C#2,482.75,0.25,100,112.01
7663,B3,482.75,0.25,90,112.01
7664,E4,482.75,0.25,90,112.01
7665,G#3,482.75,0.25,90,112.01
7666,E4,482.75,0.25,125,112.01
7667,C#4,482.75,0.25,125,112.01
7668,B3,482.75,0.25,125,112.01
7669,G4,482.75,0.25,125,112.01
7670,C2,482.75,167/1000,100,112.01
7671,B-2,482.75,167/1000,100,112.01
7672,G#2,483.0,13/125,100,112.01
7673,A4,483.219,0.0,122,112.01
7674,D4,483.219,0.25,122,112.01
7675,E4,483.219,0.25,122,112.01
7676,A4,483.219,0.25,122,112.01
7677,G4,483.719,0.0,122,112.01
7678,B3,483.719,0.75,122,112.01
7679,D4,483.719,0.75,122,112.01
7680,G4,483.719,0.75,122,112.01
7681,C2,483.75,0.25,115,112.01
7682,D4,483.75,0.25,100,112.01
7683,G3,483.75,0.25,100,112.01
7684,B-3,483.75,0.25,100,112.01
7685,E3,483.75,0.25,100,112.01
7686,C2,483.75,0.25,100,112.01
7687,B-3,483.75,0.25,90,112.01
7688,D4,483.75,0.25,90,112.01
7689,G3,483.75,0.25,90,112.01
7690,E4,483.75,0.25,125,112.01
7691,A4,483.75,0.25,125,112.01
7692,D4,483.75,0.25,125,112.01
7693,B-3,483.75,0.25,125,112.01
7694,C2,483.75,0.156,100,112.01
7695,B-2,483.75,0.156,100,112.01
7696,C2,484.0,0.188,115,112.01
7697,G#2,484.0,23/200,100,112.01
7698,A4,484.719,0.0,122,112.01
7699,F#4,484.719,0.5,122,112.01
7700,D4,484.719,0.5,122,112.01
7701,A4,484.719,0.5,122,112.01
7702,D2,485.0,13/125,100,112.01
7703,B4,485.469,0.0,122,112.01
7704,G4,485.469,0.25,122,112.01
7705,F#4,485.469,0.25,122,112.01
7706,B4,485.469,0.25,122,112.01
7707,B1,486.0,73/200,115,112.01
7708,C4,486.0,0.25,100,112.01
7709,E-4,486.0,0.25,100,112.01
7710,G4,486.0,0.25,100,112.01
7711,A3,486.0,0.25,100,112.01
7712,B1,486.0,0.25,100,112.01
7713,E-4,486.0,0.25,90,112.01
7714,G4,486.0,0.25,90,112.01
7715,C4,486.0,0.25,90,112.01
7716,G4,486.0,0.25,125,112.01
7717,B4,486.0,0.25,125,112.01
7718,E-4,486.0,0.25,125,112.01
7719,C2,486.0,167/1000,100,112.01
7720,B-2,486.0,167/1000,100,112.01
7721,G#2,486.25,13/250,100,112.01
7722,B1,486.75,0.406,115,112.01
7723,G4,486.75,0.25,100,112.01
7724,E-4,486.75,0.25,100,112.01
7725,C4,486.75,0.25,100,112.01
7726,A3,486.75,0.25,100,112.01
7727,B1,486.75,0.25,100,112.01
7728,E-4,486.75,0.25,90,112.01
7729,G4,486.75,0.25,90,112.01
7730,C4,486.75,0.25,90,112.01
7731,A4,486.75,0.25,125,112.01
7732,D5,486.75,0.25,125,112.01
7733,E-4,486.75,0.25,125,112.01
7734,C2,486.75,177/1000,100,112.01
7735,B-2,486.75,177/1000,100,112.01
7736,G#2,487.0,21/500,100,112.01
7737,E1,487.75,0.25,115,112.01
7738,F#4,487.75,0.25,100,112.01
7739,B3,487.75,0.25,100,112.01
7740,D4,487.75,0.25,100,112.01
7741,G3,487.75,0.25,100,112.01
7742,E2,487.75,0.25,100,112.01
7743,F#4,487.75,0.25,90,112.01
7744,D4,487.75,0.25,90,112.01
7745,B3,487.75,0.25,90,112.01
7746,B4,487.75,0.25,125,112.01
7747,E5,487.75,0.25,125,112.01
7748,G4,487.75,0.25,125,112.01
7749,C#3,487.75,27/200,100,112.01
7750,C2,487.75,27/200,100,112.01
7751,B-2,487.75,27/200,100,112.01
7752,E1,488.0,4.0,115,112.01
7753,F#4,488.0,4.0,100,112.01
7754,B3,488.0,4.0,100,112.01
7755,D4,488.0,4.0,100,112.01
7756,G3,488.0,4.0,100,112.01
7757,E2,488.0,4.0,100,112.01
7758,F#4,488.0,4.0,90,112.01
7759,D4,488.0,4.0,90,112.01
7760,B3,488.0,4.0,90,112.01
7761,B4,488.0,399/100,125,112.01
7762,E5,488.0,399/100,125,112.01
7763,G4,488.0,399/100,125,112.01
7764,E1,492.0,199/100,115,112.01
7765,F#4,492.99,99/100,90,112.01
7766,D4,492.99,99/100,90,112.01
7767,B3,492.99,99/100,90,112.01
7768,F#4,493.99,199/100,100,112.01
7769,B3,493.99,199/100,100,112.01
7770,D4,493.99,199/100,100,112.01
7771,G3,493.99,199/100,100,112.01
7772,E2,493.99,199/100,100,112.01
