,note_name,start_time,duration,velocity,tempo
0,B4,0.0,1.5,95,136.0
1,F#4,0.0,1.5,95,136.0
2,D4,0.0,1.5,95,136.0
3,A4,1.5,2.0,95,136.0
4,E4,1.5,2.0,95,136.0
5,C#4,1.5,2.0,95,136.0
6,F#4,3.5,0.5,95,136.0
7,D4,3.5,0.5,95,136.0
8,F#4,5.5,1.5,95,136.0
9,D4,5.5,1.5,95,136.0
10,A4,6.0,1.0,79,136.0
11,E4,7.0,2.5,95,136.0
12,C#4,7.0,2.5,95,136.0
13,B1,8.0,1.5,79,136.0
14,A1,9.5,2.0,79,136.0
15,D4,9.5,1.5,95,136.0
16,B3,9.5,1.5,95,136.0
17,F#3,9.5,1.5,95,136.0
18,C#4,11.0,1.0,95,136.0
19,A3,11.0,1.0,95,136.0
20,F#3,11.0,1.0,95,136.0
21,G2,11.5,0.5,79,136.0
22,F#4,12.0,1.0,95,136.0
23,G2,12.0,4.0,79,136.0
24,D4,13.0,0.5,95,136.0
25,B3,13.0,0.5,95,136.0
26,F#3,13.0,0.5,95,136.0
27,F#2,16.0,3.5,63,136.0
28,D4,17.5,4.0,95,136.0
29,B3,17.5,4.0,95,136.0
30,F#3,17.5,4.0,95,136.0
31,G2,19.5,0.5,63,136.0
32,G2,20.0,1.5,63,136.0
33,F#2,21.5,2.5,63,136.0
34,A3,21.5,3.5,95,136.0
35,F#3,21.5,3.5,95,136.0
36,D4,23.0,1.0,95,136.0
37,C#4,24.0,1.0,95,136.0
38,G2,24.0,4.0,63,136.0
39,B3,25.0,0.5,95,136.0
40,G3,25.0,0.5,95,136.0
41,B3,26.0,0.5,95,136.0
42,G3,26.0,0.5,95,136.0
43,F#4,26.5,1.0,95,136.0
44,E4,27.5,1.0,95,136.0
45,A4,28.5,1.5,95,136.0
46,B4,30.0,4.0,79,136.0
47,F#4,30.0,4.0,79,136.0
48,D4,30.0,4.0,79,136.0
49,B3,30.0,4.0,79,136.0
50,A2,31.5,0.5,63,136.0
51,B2,32.0,0.5,95,136.0
52,F#3,32.5,2.0,95,136.0
53,B4,34.0,1.0,95,136.0
54,B3,34.0,1.0,95,136.0
55,D5,35.0,0.5,95,136.0
56,D4,35.0,0.5,95,136.0
57,E5,35.5,1.0,95,136.0
58,E4,35.5,1.0,95,136.0
59,F#3,36.0,1.5,95,136.0
60,F#2,36.0,1.5,95,136.0
61,F#5,36.5,1.0,95,136.0
62,F#4,36.5,1.0,95,136.0
63,E3,37.5,2.0,95,136.0
64,D5,37.5,0.5,95,136.0
65,D4,37.5,0.5,95,136.0
66,E2,37.5,2.0,95,136.0
67,D5,38.0,0.5,95,136.0
68,C#5,38.5,1.0,95,136.0
69,C#4,38.5,1.0,95,136.0
70,D3,39.5,0.5,95,136.0
71,D2,39.5,0.5,95,136.0
72,B4,39.5,1.0,95,136.0
73,B3,39.5,1.0,95,136.0
74,D3,40.0,3.0,95,136.0
75,D2,40.0,4.0,95,136.0
76,A4,40.5,1.0,95,136.0
77,A3,40.5,1.0,95,136.0
78,A4,42.0,0.5,87,136.0
79,F#4,42.0,0.5,87,136.0
80,C#4,42.5,0.5,79,136.0
81,A4,43.0,0.5,87,136.0
82,F#4,43.0,0.5,87,136.0
83,G#4,43.5,0.25,79,136.0
84,G#4,43.5,0.5,87,136.0
85,G#4,43.5,0.5,87,136.0
86,A4,43.75,0.25,95,136.0
87,B4,44.0,0.75,79,136.0
88,F#4,44.0,0.5,63,136.0
89,C#2,44.0,4.0,63,136.0
90,C#5,44.5,0.5,87,136.0
91,B3,44.5,0.5,87,136.0
92,E5,44.75,0.75,79,136.0
93,E4,45.0,0.5,79,136.0
94,E4,45.5,0.5,79,136.0
95,F#4,45.5,0.5,87,136.0
96,F#4,45.5,0.5,87,136.0
97,A4,46.0,0.75,79,136.0
98,B3,46.75,0.75,63,136.0
99,D4,47.5,0.5,63,136.0
100,C#4,48.0,4.0,63,136.0
101,C#2,48.0,4.0,63,136.0
102,F#4,50.0,4.0,87,136.0
103,F#4,50.0,4.0,87,136.0
104,E4,51.0,0.5,95,136.0
105,F#4,51.5,0.5,95,136.0
106,C4,52.0,1.0,63,136.0
107,G4,52.0,1.0,95,136.0
108,C2,52.0,4.0,95,136.0
109,C4,53.0,0.5,63,136.0
110,G4,53.0,0.5,95,136.0
111,B3,53.5,1.0,63,136.0
112,F#4,53.5,1.0,95,136.0
113,E4,54.0,4.0,95,136.0
114,C#4,54.0,4.0,95,136.0
115,A3,54.0,4.0,95,136.0
116,A3,54.5,1.0,63,136.0
117,E4,54.5,1.0,95,136.0
118,A3,55.5,0.5,63,136.0
119,E4,55.5,0.5,95,136.0
120,A3,56.0,0.5,63,136.0
121,E4,56.0,0.5,95,136.0
122,C2,56.0,4.0,95,136.0
123,G3,56.5,1.0,63,136.0
124,D4,56.5,1.0,95,136.0
125,G3,57.5,1.0,63,136.0
126,D4,57.5,1.0,95,136.0
127,A3,58.5,1.5,63,136.0
128,E4,58.5,1.5,95,136.0
129,E4,60.0,4.0,63,136.0
130,B3,60.0,4.0,63,136.0
131,A3,60.0,4.0,63,136.0
132,E4,60.0,4.0,95,136.0
133,B3,60.0,4.0,95,136.0
134,A3,60.0,4.0,95,136.0
135,E2,60.0,4.0,95,136.0
136,E1,60.0,4.0,95,136.0
137,E4,61.0,3.0,95,136.0
138,C#4,61.0,3.0,95,136.0
139,A3,61.0,3.0,95,136.0
140,E4,64.0,0.5,95,136.0
141,F#4,64.5,0.5,95,136.0
142,G4,65.0,1.0,95,136.0
143,E4,65.0,2.5,95,136.0
144,B3,65.0,4.0,95,136.0
145,G4,66.0,0.5,95,136.0
146,F#4,66.5,1.0,95,136.0
147,E4,67.5,1.0,95,136.0
148,E4,68.5,0.5,95,136.0
149,B3,69.0,4.0,95,136.0
150,D4,69.5,1.0,95,136.0
151,D4,70.5,1.0,95,136.0
152,E4,71.5,1.5,95,136.0
153,E4,73.0,0.5,47,136.0
154,E4,73.0,1.0,95,136.0
155,B3,73.0,4.0,95,136.0
156,A3,73.0,4.0,95,136.0
157,E4,73.5,3.5,63,136.0
158,F#4,74.0,0.5,79,136.0
159,B4,74.5,0.5,95,136.0
160,E5,75.0,0.25,95,136.0
161,F#5,75.25,0.25,95,136.0
162,B5,75.5,0.5,95,136.0
163,F#5,76.0,0.5,95,136.0
164,E4,76.0,4.0,63,136.0
165,B3,76.0,4.0,63,136.0
166,A3,76.0,4.0,63,136.0
167,E4,76.0,4.0,95,136.0
168,B3,76.0,4.0,95,136.0
169,A3,76.0,4.0,95,136.0
170,E2,76.0,4.0,95,136.0
171,E1,76.0,4.0,95,136.0
172,E5,76.5,0.5,95,136.0
173,E4,76.5,0.5,95,136.0
174,C#4,76.5,0.5,95,136.0
175,B4,77.0,0.25,95,136.0
176,E4,77.25,0.25,95,136.0
177,B3,77.5,0.5,95,136.0
178,E-4,77.5,0.5,95,136.0
179,B3,77.5,0.5,95,136.0
180,B4,78.0,0.5,95,136.0
181,E5,78.5,0.5,95,136.0
182,E-4,78.5,0.5,95,136.0
183,B3,78.5,0.5,95,136.0
184,F#5,79.0,0.5,95,136.0
185,B5,79.5,0.5,95,136.0
186,E4,79.5,0.5,95,136.0
187,C#4,79.5,0.5,95,136.0
188,F#5,80.0,0.5,95,136.0
189,E5,80.5,0.5,95,136.0
190,E4,80.5,0.5,95,136.0
191,C#4,80.5,0.5,95,136.0
192,A3,81.0,0.25,95,136.0
193,B3,81.25,0.25,95,136.0
194,E4,81.5,0.5,95,136.0
195,G#4,81.5,0.5,95,136.0
196,E-4,81.5,0.5,95,136.0
197,B3,81.5,0.5,95,136.0
198,B4,82.0,0.5,95,136.0
199,E5,82.5,0.5,95,136.0
200,E-4,82.5,0.5,95,136.0
201,B3,82.5,0.5,95,136.0
202,F#5,83.0,0.5,95,136.0
203,B5,83.5,0.5,95,136.0
204,E4,83.5,0.25,95,136.0
205,C#4,83.5,0.25,95,136.0
206,F#5,84.0,0.5,95,136.0
207,E5,84.5,0.5,95,136.0
208,E4,84.5,0.5,95,136.0
209,C#4,84.5,0.5,95,136.0
210,B3,85.0,0.25,95,136.0
211,C#4,85.25,0.25,47,136.0
212,E4,85.5,0.25,95,136.0
213,E-4,85.5,0.5,95,136.0
214,B3,85.5,0.5,95,136.0
215,E4,85.75,0.25,47,136.0
216,F#4,86.0,0.25,95,136.0
217,F#4,86.25,0.25,47,136.0
218,B4,86.5,0.25,95,136.0
219,E-4,86.5,0.5,95,136.0
220,B3,86.5,0.5,95,136.0
221,B4,86.75,0.25,47,136.0
222,E5,87.0,0.25,95,136.0
223,E5,87.25,0.25,47,136.0
224,B5,87.5,0.25,95,136.0
225,G#4,87.5,0.5,95,136.0
226,C#4,87.5,0.5,95,136.0
227,B5,87.75,0.25,47,136.0
228,E6,88.0,0.25,95,136.0
229,E4,88.0,4.0,63,136.0
230,B3,88.0,4.0,63,136.0
231,A3,88.0,4.0,63,136.0
232,E4,88.0,4.0,95,136.0
233,B3,88.0,4.0,95,136.0
234,A3,88.0,4.0,95,136.0
235,E2,88.0,4.0,95,136.0
236,E1,88.0,4.0,95,136.0
237,E6,88.25,0.25,47,136.0
238,F#6,88.5,0.25,95,136.0
239,G#4,88.5,0.5,95,136.0
240,C#4,88.5,0.5,95,136.0
241,F#4,89.5,0.5,95,136.0
242,E-4,89.5,0.5,95,136.0
243,B3,89.5,0.5,95,136.0
244,E-4,90.5,0.5,95,136.0
245,B3,90.5,0.5,95,136.0
246,E4,91.5,0.25,95,136.0
247,C#4,91.5,0.25,95,136.0
248,E4,92.5,0.5,95,136.0
249,C#4,92.5,0.5,95,136.0
250,E-4,93.5,0.5,95,136.0
251,B3,93.5,0.5,95,136.0
252,E-4,94.5,0.5,95,136.0
253,B3,94.5,0.5,95,136.0
254,E4,95.5,0.5,95,136.0
255,C#4,95.5,0.5,95,136.0
256,E4,96.0,4.0,63,136.0
257,B3,96.0,4.0,63,136.0
258,A3,96.0,4.0,63,136.0
259,E4,96.0,4.0,95,136.0
260,B3,96.0,4.0,95,136.0
261,A3,96.0,4.0,95,136.0
262,E2,96.0,4.0,95,136.0
263,E1,96.0,4.0,95,136.0
264,E4,96.5,0.5,95,136.0
265,C#4,96.5,0.5,95,136.0
266,G#4,97.5,0.5,95,136.0
267,E-4,97.5,0.5,95,136.0
268,B3,97.5,0.5,95,136.0
269,E-4,98.5,0.5,95,136.0
270,B3,98.5,0.5,95,136.0
271,E4,99.5,0.25,95,136.0
272,C#4,99.5,0.25,95,136.0
273,C#2,100.0,0.75,95,136.0
274,E4,100.5,1.0,95,136.0
275,C#4,100.5,1.0,95,136.0
276,G#3,100.5,1.0,95,136.0
277,E4,100.5,0.5,95,136.0
278,C#4,100.5,0.5,95,136.0
279,C#2,100.75,0.25,95,136.0
280,G#1,101.0,0.5,63,136.0
281,G#1,101.5,0.5,95,136.0
282,E-4,101.5,1.0,95,136.0
283,B3,101.5,1.0,95,136.0
284,G#3,101.5,1.0,95,136.0
285,E-4,101.5,0.5,95,136.0
286,B3,101.5,0.5,95,136.0
287,B1,102.0,0.5,95,136.0
288,C#2,102.5,0.5,95,136.0
289,B3,102.5,1.0,95,136.0
290,G#3,102.5,1.0,95,136.0
291,E-4,102.5,0.5,95,136.0
292,B3,102.5,0.5,95,136.0
293,B1,103.0,0.5,95,136.0
294,A1,103.5,0.5,95,136.0
295,C#4,103.5,0.5,95,136.0
296,G#3,103.5,0.5,95,136.0
297,E3,103.5,0.5,95,136.0
298,G#4,103.5,0.5,95,136.0
299,C#4,103.5,0.5,95,136.0
300,A1,104.0,1.5,95,136.0
301,C#4,104.0,1.5,95,136.0
302,G#3,104.0,1.5,95,136.0
303,E3,104.0,1.5,95,136.0
304,G#4,104.5,0.5,95,136.0
305,C#4,104.5,0.5,95,136.0
306,E4,105.5,1.0,63,136.0
307,G#1,105.5,0.25,79,136.0
308,E-4,105.5,2.5,95,136.0
309,B3,105.5,2.5,95,136.0
310,F#3,105.5,2.5,95,136.0
311,F#4,105.5,0.5,95,136.0
312,E-4,105.5,0.5,95,136.0
313,B3,105.5,0.5,95,136.0
314,G#1,105.75,0.25,95,136.0
315,B1,106.0,0.75,95,136.0
316,E-4,106.5,1.0,63,136.0
317,E-4,106.5,0.5,95,136.0
318,B3,106.5,0.5,95,136.0
319,B1,106.75,0.75,95,136.0
320,B3,107.5,1.0,63,136.0
321,G#1,107.5,0.25,95,136.0
322,E4,107.5,0.25,95,136.0
323,C#4,107.5,0.25,95,136.0
324,C#4,108.5,0.5,63,136.0
325,E4,108.5,1.0,95,136.0
326,C#4,108.5,1.0,95,136.0
327,G#3,108.5,1.0,95,136.0
328,E4,108.5,0.5,95,136.0
329,C#4,108.5,0.5,95,136.0
330,C#2,108.75,0.25,95,136.0
331,C#4,109.0,1.5,63,136.0
332,G#1,109.0,0.5,63,136.0
333,G#1,109.5,0.5,95,136.0
334,E-4,109.5,1.0,95,136.0
335,B3,109.5,1.0,95,136.0
336,G#3,109.5,1.0,95,136.0
337,E-4,109.5,0.5,95,136.0
338,B3,109.5,0.5,95,136.0
339,B1,110.0,0.5,95,136.0
340,E-4,110.5,2.5,63,136.0
341,E2,110.5,0.5,95,136.0
342,B3,110.5,1.0,95,136.0
343,G#3,110.5,1.0,95,136.0
344,E-4,110.5,0.5,95,136.0
345,B3,110.5,0.5,95,136.0
346,B1,111.0,0.5,95,136.0
347,A1,111.5,0.5,95,136.0
348,C#4,111.5,0.5,95,136.0
349,G#3,111.5,0.5,95,136.0
350,E3,111.5,0.5,95,136.0
351,E4,111.5,0.5,95,136.0
352,C#4,111.5,0.5,95,136.0
353,A1,112.0,1.5,95,136.0
354,C#4,112.0,1.5,95,136.0
355,G#3,112.0,1.5,95,136.0
356,E3,112.0,1.5,95,136.0
357,E4,112.5,0.5,95,136.0
358,C#4,112.5,0.5,95,136.0
359,E4,113.0,1.5,63,136.0
360,E-4,113.5,2.5,95,136.0
361,B3,113.5,2.5,95,136.0
362,F#3,113.5,2.5,95,136.0
363,G#4,113.5,0.5,95,136.0
364,E-4,113.5,0.5,95,136.0
365,B3,113.5,0.5,95,136.0
366,B2,113.5,0.25,79,136.0
367,B1,113.5,0.25,79,136.0
368,G#1,113.75,0.25,95,136.0
369,B2,114.0,0.75,79,136.0
370,B1,114.0,0.75,79,136.0
371,F#4,114.5,2.0,63,136.0
372,E-4,114.5,0.5,95,136.0
373,B3,114.5,0.5,95,136.0
374,B1,114.75,0.75,95,136.0
375,E4,115.5,0.25,95,136.0
376,C#4,115.5,0.25,95,136.0
377,C#3,115.5,0.25,79,136.0
378,G#1,115.5,0.25,79,136.0
379,G#4,116.5,0.5,63,136.0
380,E4,116.5,1.0,95,136.0
381,C#4,116.5,1.0,95,136.0
382,G#3,116.5,1.0,95,136.0
383,E4,116.5,0.5,95,136.0
384,C#4,116.5,0.5,95,136.0
385,C#2,116.75,0.25,95,136.0
386,G#4,117.0,1.5,63,136.0
387,G#1,117.0,0.5,63,136.0
388,G#1,117.5,0.5,95,136.0
389,E-4,117.5,1.0,95,136.0
390,B3,117.5,1.0,95,136.0
391,G#3,117.5,1.0,95,136.0
392,E-4,117.5,0.5,95,136.0
393,B3,117.5,0.5,95,136.0
394,B1,118.0,0.5,95,136.0
395,F#4,118.5,2.0,63,136.0
396,C#2,118.5,0.5,95,136.0
397,B3,118.5,1.0,95,136.0
398,G#3,118.5,1.0,95,136.0
399,E-4,118.5,0.5,95,136.0
400,B3,118.5,0.5,95,136.0
401,B1,119.0,0.5,95,136.0
402,A1,119.5,0.5,95,136.0
403,C#4,119.5,0.5,95,136.0
404,G#3,119.5,0.5,95,136.0
405,E3,119.5,0.5,95,136.0
406,G#4,119.5,0.5,95,136.0
407,C#4,119.5,0.5,95,136.0
408,A1,120.0,1.5,95,136.0
409,C#4,120.0,1.5,95,136.0
410,G#3,120.0,1.5,95,136.0
411,E3,120.0,1.5,95,136.0
412,G#4,120.5,0.25,63,136.0
413,G#4,120.5,0.5,95,136.0
414,C#4,120.5,0.5,95,136.0
415,E4,121.5,1.0,63,136.0
416,G#1,121.5,0.25,79,136.0
417,E-4,121.5,2.5,95,136.0
418,B3,121.5,2.5,95,136.0
419,F#3,121.5,2.5,95,136.0
420,F#4,121.5,0.5,95,136.0
421,E-4,121.5,0.5,95,136.0
422,B3,121.5,0.5,95,136.0
423,G#1,121.75,0.25,95,136.0
424,B1,122.0,0.75,95,136.0
425,E-4,122.5,1.0,63,136.0
426,E-4,122.5,0.5,95,136.0
427,B3,122.5,0.5,95,136.0
428,B1,122.75,0.75,95,136.0
429,B3,123.5,1.0,63,136.0
430,G#1,123.5,0.25,95,136.0
431,E4,123.5,0.25,95,136.0
432,C#4,123.5,0.25,95,136.0
433,C#4,124.5,0.5,63,136.0
434,E4,124.5,1.0,95,136.0
435,C#4,124.5,1.0,95,136.0
436,G#3,124.5,1.0,95,136.0
437,E4,124.5,0.5,95,136.0
438,C#4,124.5,0.5,95,136.0
439,C#2,124.75,0.25,95,136.0
440,C#4,125.0,1.5,63,136.0
441,G#1,125.0,0.5,63,136.0
442,G#1,125.5,0.5,95,136.0
443,E-4,125.5,1.0,95,136.0
444,B3,125.5,1.0,95,136.0
445,G#3,125.5,1.0,95,136.0
446,E-4,125.5,0.5,95,136.0
447,B3,125.5,0.5,95,136.0
448,B1,126.0,0.5,95,136.0
449,E-4,126.5,2.5,63,136.0
450,E2,126.5,0.5,95,136.0
451,B3,126.5,1.0,95,136.0
452,G#3,126.5,1.0,95,136.0
453,E-4,126.5,0.5,95,136.0
454,B3,126.5,0.5,95,136.0
455,B1,127.0,0.5,95,136.0
456,A1,127.5,0.5,95,136.0
457,C#4,127.5,0.5,95,136.0
458,G#3,127.5,0.5,95,136.0
459,E3,127.5,0.5,95,136.0
460,E4,127.5,0.5,95,136.0
461,C#4,127.5,0.5,95,136.0
462,A1,128.0,1.5,95,136.0
463,C#4,128.0,1.5,95,136.0
464,G#3,128.0,1.5,95,136.0
465,E3,128.0,1.5,95,136.0
466,E4,128.5,0.5,95,136.0
467,C#4,128.5,0.5,95,136.0
468,E4,129.0,1.5,63,136.0
469,E-4,129.5,2.5,95,136.0
470,B3,129.5,2.5,95,136.0
471,F#3,129.5,2.5,95,136.0
472,G#4,129.5,0.5,95,136.0
473,E-4,129.5,0.5,95,136.0
474,B3,129.5,0.5,95,136.0
475,B2,129.5,0.25,79,136.0
476,B1,129.5,0.25,79,136.0
477,G#1,129.75,0.25,95,136.0
478,B2,130.0,0.75,79,136.0
479,B1,130.0,0.75,79,136.0
480,F#4,130.5,2.0,63,136.0
481,E-4,130.5,0.5,95,136.0
482,B3,130.5,0.5,95,136.0
483,B1,130.75,0.75,95,136.0
484,E4,131.5,0.25,95,136.0
485,C#4,131.5,0.25,95,136.0
486,C#3,131.5,0.25,79,136.0
487,G#1,131.5,0.25,79,136.0
488,G#4,132.5,0.5,63,136.0
489,G#4,132.5,0.5,63,136.0
490,E4,132.5,1.0,95,136.0
491,C#4,132.5,1.0,95,136.0
492,G#3,132.5,1.0,95,136.0
493,E4,132.5,0.5,95,136.0
494,C#4,132.5,0.5,95,136.0
495,C#2,132.75,0.25,95,136.0
496,B4,133.0,0.5,79,136.0
497,G#4,133.0,1.5,63,136.0
498,G#1,133.0,0.5,63,136.0
499,F#4,133.5,1.0,63,136.0
500,G#1,133.5,0.5,95,136.0
501,E-4,133.5,1.0,95,136.0
502,B3,133.5,1.0,95,136.0
503,G#3,133.5,1.0,95,136.0
504,E-4,133.5,0.5,95,136.0
505,B3,133.5,0.5,95,136.0
506,B1,134.0,0.5,95,136.0
507,B4,134.5,1.0,63,136.0
508,F#4,134.5,2.0,63,136.0
509,C#2,134.5,0.5,95,136.0
510,B3,134.5,1.0,95,136.0
511,G#3,134.5,1.0,95,136.0
512,E-4,134.5,0.5,95,136.0
513,B3,134.5,0.5,95,136.0
514,B1,135.0,0.5,95,136.0
515,G#4,135.5,0.5,63,136.0
516,A1,135.5,0.5,95,136.0
517,C#4,135.5,0.5,95,136.0
518,G#3,135.5,0.5,95,136.0
519,E3,135.5,0.5,95,136.0
520,G#4,135.5,0.5,95,136.0
521,C#4,135.5,0.5,95,136.0
522,G#4,136.0,0.5,63,136.0
523,A1,136.0,1.5,95,136.0
524,C#4,136.0,1.5,95,136.0
525,G#3,136.0,1.5,95,136.0
526,E3,136.0,1.5,95,136.0
527,G#4,136.5,0.25,63,136.0
528,G#4,136.5,0.5,95,136.0
529,C#4,136.5,0.5,95,136.0
530,E4,137.5,1.0,63,136.0
531,G#1,137.5,0.25,79,136.0
532,E-4,137.5,2.5,95,136.0
533,B3,137.5,2.5,95,136.0
534,F#3,137.5,2.5,95,136.0
535,F#4,137.5,0.5,95,136.0
536,E-4,137.5,0.5,95,136.0
537,B3,137.5,0.5,95,136.0
538,G#1,137.75,0.25,95,136.0
539,B1,138.0,0.75,95,136.0
540,E-4,138.5,1.0,63,136.0
541,E-4,138.5,0.5,95,136.0
542,B3,138.5,0.5,95,136.0
543,B1,138.75,0.75,95,136.0
544,B3,139.5,1.0,63,136.0
545,G#1,139.5,0.25,95,136.0
546,E4,139.5,0.25,95,136.0
547,C#4,139.5,0.25,95,136.0
548,G#4,140.5,0.5,63,136.0
549,C#4,140.5,0.5,63,136.0
550,E4,140.5,1.0,95,136.0
551,C#4,140.5,1.0,95,136.0
552,G#3,140.5,1.0,95,136.0
553,E4,140.5,0.5,95,136.0
554,C#4,140.5,0.5,95,136.0
555,C#2,140.75,0.25,95,136.0
556,B4,141.0,0.5,79,136.0
557,C#4,141.0,1.5,63,136.0
558,G#1,141.0,0.5,63,136.0
559,F#4,141.5,1.0,63,136.0
560,G#1,141.5,0.5,95,136.0
561,E-4,141.5,1.0,95,136.0
562,B3,141.5,1.0,95,136.0
563,G#3,141.5,1.0,95,136.0
564,E-4,141.5,0.5,95,136.0
565,B3,141.5,0.5,95,136.0
566,B1,142.0,0.5,95,136.0
567,B4,142.5,1.0,63,136.0
568,E-4,142.5,2.5,63,136.0
569,E2,142.5,0.5,95,136.0
570,B3,142.5,1.0,95,136.0
571,G#3,142.5,1.0,95,136.0
572,E-4,142.5,0.5,95,136.0
573,B3,142.5,0.5,95,136.0
574,B1,143.0,0.5,95,136.0
575,G#4,143.5,0.5,63,136.0
576,A1,143.5,0.5,95,136.0
577,C#4,143.5,0.5,95,136.0
578,G#3,143.5,0.5,95,136.0
579,E3,143.5,0.5,95,136.0
580,E4,143.5,0.5,95,136.0
581,C#4,143.5,0.5,95,136.0
582,G#4,144.0,0.5,63,136.0
583,A1,144.0,1.5,95,136.0
584,C#4,144.0,1.5,95,136.0
585,G#3,144.0,1.5,95,136.0
586,E3,144.0,1.5,95,136.0
587,E4,144.5,0.5,95,136.0
588,C#4,144.5,0.5,95,136.0
589,E4,145.0,1.5,63,136.0
590,E-4,145.5,2.5,95,136.0
591,B3,145.5,2.5,95,136.0
592,F#3,145.5,2.5,95,136.0
593,G#4,145.5,0.5,95,136.0
594,E-4,145.5,0.5,95,136.0
595,B3,145.5,0.5,95,136.0
596,B2,145.5,0.25,79,136.0
597,B1,145.5,0.25,79,136.0
598,G#1,145.75,0.25,95,136.0
599,B2,146.0,0.75,79,136.0
600,B1,146.0,0.75,79,136.0
601,F#4,146.5,2.0,63,136.0
602,E-4,146.5,0.5,95,136.0
603,B3,146.5,0.5,95,136.0
604,B1,146.75,0.75,95,136.0
605,E4,147.5,0.25,95,136.0
606,C#4,147.5,0.25,95,136.0
607,C#3,147.5,0.25,79,136.0
608,G#1,147.5,0.25,79,136.0
609,G#4,148.5,0.5,63,136.0
610,G#4,148.5,0.5,63,136.0
611,E4,148.5,1.0,95,136.0
612,C#4,148.5,1.0,95,136.0
613,G#3,148.5,1.0,95,136.0
614,E4,148.5,0.5,95,136.0
615,C#4,148.5,0.5,95,136.0
616,C#2,148.75,0.25,95,136.0
617,B4,149.0,0.5,79,136.0
618,G#4,149.0,1.5,63,136.0
619,G#1,149.0,0.5,63,136.0
620,F#4,149.5,1.0,63,136.0
621,G#1,149.5,0.5,95,136.0
622,E-4,149.5,1.0,95,136.0
623,B3,149.5,1.0,95,136.0
624,G#3,149.5,1.0,95,136.0
625,E-4,149.5,0.5,95,136.0
626,B3,149.5,0.5,95,136.0
627,B1,150.0,0.5,95,136.0
628,B4,150.5,1.0,63,136.0
629,F#4,150.5,2.0,63,136.0
630,C#2,150.5,0.5,95,136.0
631,B3,150.5,1.0,95,136.0
632,G#3,150.5,1.0,95,136.0
633,E-4,150.5,0.5,95,136.0
634,B3,150.5,0.5,95,136.0
635,B1,151.0,0.5,95,136.0
636,G#4,151.5,0.5,63,136.0
637,A1,151.5,0.5,95,136.0
638,C#4,151.5,0.5,95,136.0
639,G#3,151.5,0.5,95,136.0
640,E3,151.5,0.5,95,136.0
641,G#4,151.5,0.5,95,136.0
642,C#4,151.5,0.5,95,136.0
643,G#4,152.0,0.5,63,136.0
644,A1,152.0,1.5,95,136.0
645,C#4,152.0,1.5,95,136.0
646,G#3,152.0,1.5,95,136.0
647,E3,152.0,1.5,95,136.0
648,G#4,152.5,0.25,63,136.0
649,G#4,152.5,0.5,95,136.0
650,C#4,152.5,0.5,95,136.0
651,E4,153.5,1.0,63,136.0
652,G#1,153.5,0.25,79,136.0
653,E-4,153.5,2.5,95,136.0
654,B3,153.5,2.5,95,136.0
655,F#3,153.5,2.5,95,136.0
656,F#4,153.5,0.5,95,136.0
657,E-4,153.5,0.5,95,136.0
658,B3,153.5,0.5,95,136.0
659,G#1,153.75,0.25,95,136.0
660,B1,154.0,0.75,95,136.0
661,E-4,154.5,1.0,63,136.0
662,E-4,154.5,0.5,95,136.0
663,B3,154.5,0.5,95,136.0
664,B1,154.75,0.75,95,136.0
665,B3,155.5,1.0,63,136.0
666,G#1,155.5,0.25,95,136.0
667,E4,155.5,0.25,95,136.0
668,C#4,155.5,0.25,95,136.0
669,G#4,156.5,0.5,63,136.0
670,C#4,156.5,0.5,63,136.0
671,E4,156.5,1.0,95,136.0
672,C#4,156.5,1.0,95,136.0
673,G#3,156.5,1.0,95,136.0
674,E4,156.5,0.5,95,136.0
675,C#4,156.5,0.5,95,136.0
676,C#2,156.75,0.25,95,136.0
677,B4,157.0,0.5,79,136.0
678,C#4,157.0,1.5,63,136.0
679,G#1,157.0,0.5,63,136.0
680,F#4,157.5,1.0,63,136.0
681,G#1,157.5,0.5,95,136.0
682,E-4,157.5,1.0,95,136.0
683,B3,157.5,1.0,95,136.0
684,G#3,157.5,1.0,95,136.0
685,E-4,157.5,0.5,95,136.0
686,B3,157.5,0.5,95,136.0
687,B1,158.0,0.5,95,136.0
688,B4,158.5,1.0,63,136.0
689,E-4,158.5,2.5,63,136.0
690,E2,158.5,0.5,95,136.0
691,B3,158.5,1.0,95,136.0
692,G#3,158.5,1.0,95,136.0
693,E-4,158.5,0.5,95,136.0
694,B3,158.5,0.5,95,136.0
695,B1,159.0,0.5,95,136.0
696,G#4,159.5,0.5,63,136.0
697,A1,159.5,0.5,95,136.0
698,C#4,159.5,0.5,95,136.0
699,G#3,159.5,0.5,95,136.0
700,E3,159.5,0.5,95,136.0
701,E4,159.5,0.5,95,136.0
702,C#4,159.5,0.5,95,136.0
703,G#4,160.0,0.5,63,136.0
704,A1,160.0,1.5,95,136.0
705,C#4,160.0,1.5,95,136.0
706,G#3,160.0,1.5,95,136.0
707,E3,160.0,1.5,95,136.0
708,E4,160.5,0.5,95,136.0
709,C#4,160.5,0.5,95,136.0
710,E4,161.0,1.5,63,136.0
711,E-4,161.5,2.5,95,136.0
712,B3,161.5,2.5,95,136.0
713,F#3,161.5,2.5,95,136.0
714,G#4,161.5,0.5,95,136.0
715,E-4,161.5,0.5,95,136.0
716,B3,161.5,0.5,95,136.0
717,B2,161.5,0.25,79,136.0
718,B1,161.5,0.25,79,136.0
719,G#1,161.75,0.25,95,136.0
720,B2,162.0,0.75,79,136.0
721,B1,162.0,0.75,79,136.0
722,B4,162.5,0.5,95,136.0
723,F#4,162.5,2.0,63,136.0
724,E-4,162.5,0.5,95,136.0
725,B3,162.5,0.5,95,136.0
726,B1,162.75,0.75,95,136.0
727,A4,163.0,0.5,95,136.0
728,G#4,163.5,0.5,95,136.0
729,E4,163.5,0.25,95,136.0
730,C#4,163.5,0.25,95,136.0
731,C#3,163.5,0.25,79,136.0
732,G#1,163.5,0.25,79,136.0
733,F#4,164.0,0.5,95,136.0
734,G#4,164.5,2.0,95,136.0
735,G#4,164.5,0.5,63,136.0
736,E4,164.5,1.0,95,136.0
737,C#4,164.5,1.0,95,136.0
738,G#3,164.5,1.0,95,136.0
739,E4,164.5,0.5,95,136.0
740,C#4,164.5,0.5,95,136.0
741,C#2,164.75,0.25,95,136.0
742,G#4,165.0,1.5,63,136.0
743,G#1,165.0,0.5,63,136.0
744,G#1,165.5,0.5,95,136.0
745,E-4,165.5,1.0,95,136.0
746,B3,165.5,1.0,95,136.0
747,G#3,165.5,1.0,95,136.0
748,E-4,165.5,0.5,95,136.0
749,B3,165.5,0.5,95,136.0
750,B1,166.0,0.5,95,136.0
751,E-4,166.5,0.5,95,136.0
752,F#4,166.5,2.0,63,136.0
753,C#2,166.5,0.5,95,136.0
754,B3,166.5,1.0,95,136.0
755,G#3,166.5,1.0,95,136.0
756,E-4,166.5,0.5,95,136.0
757,B3,166.5,0.5,95,136.0
758,B3,167.0,0.5,95,136.0
759,B1,167.0,0.5,95,136.0
760,C#4,167.5,0.5,95,136.0
761,A1,167.5,0.5,95,136.0
762,C#4,167.5,0.5,95,136.0
763,G#3,167.5,0.5,95,136.0
764,E3,167.5,0.5,95,136.0
765,G#4,167.5,0.5,95,136.0
766,C#4,167.5,0.5,95,136.0
767,C#4,168.0,2.0,95,136.0
768,A1,168.0,1.5,95,136.0
769,C#4,168.0,1.5,95,136.0
770,G#3,168.0,1.5,95,136.0
771,E3,168.0,1.5,95,136.0
772,G#4,168.5,0.25,63,136.0
773,G#4,168.5,0.5,95,136.0
774,C#4,168.5,0.5,95,136.0
775,E4,169.5,1.0,63,136.0
776,G#1,169.5,0.25,79,136.0
777,E-4,169.5,2.5,95,136.0
778,B3,169.5,2.5,95,136.0
779,F#3,169.5,2.5,95,136.0
780,F#4,169.5,0.5,95,136.0
781,E-4,169.5,0.5,95,136.0
782,B3,169.5,0.5,95,136.0
783,G#1,169.75,0.25,95,136.0
784,B1,170.0,0.75,95,136.0
785,E-4,170.5,0.5,95,136.0
786,E-4,170.5,1.0,63,136.0
787,E-4,170.5,0.5,95,136.0
788,B3,170.5,0.5,95,136.0
789,B1,170.75,0.75,95,136.0
790,E4,171.0,0.5,95,136.0
791,F#4,171.5,0.5,95,136.0
792,B3,171.5,1.0,63,136.0
793,G#1,171.5,0.25,95,136.0
794,E4,171.5,0.25,95,136.0
795,C#4,171.5,0.25,95,136.0
796,G#4,172.0,4.0,95,136.0
797,F#4,172.0,0.5,95,136.0
798,G#4,172.5,0.5,95,136.0
799,C#4,172.5,0.5,63,136.0
800,E4,172.5,1.0,95,136.0
801,C#4,172.5,1.0,95,136.0
802,G#3,172.5,1.0,95,136.0
803,E-4,172.5,0.5,95,136.0
804,B3,172.5,0.5,95,136.0
805,C#2,172.75,0.25,95,136.0
806,C#4,173.0,1.5,63,136.0
807,G#1,173.0,0.5,63,136.0
808,G#3,173.5,1.0,95,136.0
809,G#1,173.5,0.5,95,136.0
810,E-4,173.5,1.0,95,136.0
811,B3,173.5,1.0,95,136.0
812,G#3,173.5,1.0,95,136.0
813,C#4,173.5,0.5,95,136.0
814,B-3,173.5,0.5,95,136.0
815,B1,174.0,0.5,95,136.0
816,D4,174.5,0.5,95,136.0
817,E-4,174.5,2.5,63,136.0
818,E2,174.5,0.5,95,136.0
819,B3,174.5,1.0,95,136.0
820,G#3,174.5,1.0,95,136.0
821,C#4,174.5,0.5,95,136.0
822,B-3,174.5,0.5,95,136.0
823,E-4,175.0,0.5,95,136.0
824,B1,175.0,0.5,95,136.0
825,C#4,175.5,0.5,95,136.0
826,A1,175.5,0.5,95,136.0
827,C#4,175.5,0.5,95,136.0
828,G#3,175.5,0.5,95,136.0
829,E3,175.5,0.5,95,136.0
830,E-4,175.5,0.5,95,136.0
831,B3,175.5,0.5,95,136.0
832,G#4,176.0,1.5,95,136.0
833,B3,176.0,0.5,95,136.0
834,A1,176.0,1.5,95,136.0
835,C#4,176.0,1.5,95,136.0
836,G#3,176.0,1.5,95,136.0
837,E3,176.0,1.5,95,136.0
838,C#4,176.5,1.0,79,136.0
839,E-4,176.5,0.5,95,136.0
840,B3,176.5,0.5,95,136.0
841,E4,177.0,1.5,63,136.0
842,C#4,177.5,1.0,95,136.0
843,E-4,177.5,2.5,95,136.0
844,B3,177.5,2.5,95,136.0
845,F#3,177.5,2.5,95,136.0
846,C#4,177.5,0.5,95,136.0
847,B-3,177.5,0.5,95,136.0
848,B2,177.5,0.25,79,136.0
849,B1,177.5,0.25,79,136.0
850,G#1,177.75,0.25,95,136.0
851,B2,178.0,0.75,79,136.0
852,B1,178.0,0.75,79,136.0
853,F#4,178.5,0.5,95,136.0
854,F#4,178.5,2.0,63,136.0
855,C#4,178.5,0.5,95,136.0
856,B-3,178.5,0.5,95,136.0
857,B1,178.75,0.75,95,136.0
858,E4,179.0,0.5,95,136.0
859,E-4,179.5,0.5,95,136.0
860,E-4,179.5,0.25,95,136.0
861,B3,179.5,0.25,95,136.0
862,C#3,179.5,0.25,79,136.0
863,G#1,179.5,0.25,79,136.0
864,C#4,180.0,0.5,95,136.0
865,E-4,180.5,2.0,95,136.0
866,G#4,180.5,0.5,63,136.0
867,E4,180.5,1.0,95,136.0
868,C#4,180.5,1.0,95,136.0
869,G#3,180.5,1.0,95,136.0
870,E-4,180.5,0.5,95,136.0
871,B3,180.5,0.5,95,136.0
872,C#2,180.75,0.25,95,136.0
873,C#5,181.0,0.5,95,136.0
874,G#4,181.0,1.5,63,136.0
875,G#1,181.0,0.5,63,136.0
876,B4,181.5,0.5,95,136.0
877,G#1,181.5,0.5,95,136.0
878,E-4,181.5,1.0,95,136.0
879,B3,181.5,1.0,95,136.0
880,G#3,181.5,1.0,95,136.0
881,C#4,181.5,0.5,95,136.0
882,B-3,181.5,0.5,95,136.0
883,B1,182.0,0.5,95,136.0
884,G#3,182.5,0.5,95,136.0
885,A4,182.5,0.5,95,136.0
886,F#4,182.5,2.0,63,136.0
887,C#2,182.5,0.5,95,136.0
888,B3,182.5,1.0,95,136.0
889,G#3,182.5,1.0,95,136.0
890,C#4,182.5,0.5,95,136.0
891,B-3,182.5,0.5,95,136.0
892,F#3,183.0,0.5,95,136.0
893,B1,183.0,0.5,95,136.0
894,G#3,183.5,0.5,95,136.0
895,G#4,183.5,0.5,95,136.0
896,A1,183.5,0.5,95,136.0
897,C#4,183.5,0.5,95,136.0
898,G#3,183.5,0.5,95,136.0
899,E3,183.5,0.5,95,136.0
900,E-4,183.5,0.5,95,136.0
901,B3,183.5,0.5,95,136.0
902,G#3,184.0,2.0,95,136.0
903,G#4,184.0,1.0,95,136.0
904,A1,184.0,1.5,95,136.0
905,C#4,184.0,1.5,95,136.0
906,G#3,184.0,1.5,95,136.0
907,E3,184.0,1.5,95,136.0
908,G#4,184.5,0.25,63,136.0
909,E-4,184.5,0.5,95,136.0
910,B3,184.5,0.5,95,136.0
911,F#4,185.0,0.5,95,136.0
912,B-3,185.0,0.5,79,136.0
913,B4,185.5,0.5,95,136.0
914,B3,185.5,0.5,95,136.0
915,G#1,185.5,0.25,79,136.0
916,E-4,185.5,2.5,95,136.0
917,B3,185.5,2.5,95,136.0
918,F#3,185.5,2.5,95,136.0
919,F#4,185.5,0.5,95,136.0
920,C#4,185.5,0.5,95,136.0
921,B-3,185.5,0.5,95,136.0
922,G#1,185.75,0.25,95,136.0
923,F#4,186.0,0.5,95,136.0
924,B1,186.0,0.75,95,136.0
925,A4,186.5,0.5,95,136.0
926,C#4,186.5,1.0,79,136.0
927,E-4,186.5,0.5,95,136.0
928,B-3,186.5,0.5,95,136.0
929,B1,186.75,0.75,95,136.0
930,G#4,187.5,0.5,95,136.0
931,B3,187.5,1.0,63,136.0
932,G#1,187.5,0.25,95,136.0
933,G#4,187.5,0.25,95,136.0
934,E-4,187.5,0.25,95,136.0
935,B3,187.5,0.25,95,136.0
936,F#4,188.0,0.5,95,136.0
937,G#4,188.5,1.5,95,136.0
938,E4,188.5,1.0,95,136.0
939,C#4,188.5,1.0,95,136.0
940,G#3,188.5,1.0,95,136.0
941,E-4,188.5,0.5,95,136.0
942,B3,188.5,0.5,95,136.0
943,C#2,188.75,0.25,95,136.0
944,B-3,189.0,0.5,95,136.0
945,G#1,189.0,0.5,63,136.0
946,B3,189.5,0.5,95,136.0
947,G#1,189.5,0.5,95,136.0
948,E-4,189.5,1.0,95,136.0
949,B3,189.5,1.0,95,136.0
950,G#3,189.5,1.0,95,136.0
951,C#4,189.5,0.5,95,136.0
952,B-3,189.5,0.5,95,136.0
953,B1,190.0,0.5,95,136.0
954,E-4,190.5,0.5,95,136.0
955,E-4,190.5,0.5,95,136.0
956,E2,190.5,0.5,95,136.0
957,B3,190.5,1.0,95,136.0
958,G#3,190.5,1.0,95,136.0
959,C#4,190.5,0.5,95,136.0
960,B-3,190.5,0.5,95,136.0
961,B3,191.0,0.5,95,136.0
962,B1,191.0,0.5,95,136.0
963,G#4,191.5,0.5,95,136.0
964,C#4,191.5,0.5,95,136.0
965,A1,191.5,0.5,95,136.0
966,C#4,191.5,0.5,95,136.0
967,G#3,191.5,0.5,95,136.0
968,E3,191.5,0.5,95,136.0
969,E-4,191.5,0.5,95,136.0
970,B3,191.5,0.5,95,136.0
971,G#4,192.0,0.5,95,136.0
972,C#4,192.0,0.5,95,136.0
973,A1,192.0,1.5,95,136.0
974,C#4,192.0,1.5,95,136.0
975,G#3,192.0,1.5,95,136.0
976,E3,192.0,1.5,95,136.0
977,G#4,192.5,1.0,95,136.0
978,E-4,192.5,1.0,95,136.0
979,E-4,192.5,0.5,95,136.0
980,B3,192.5,0.5,95,136.0
981,G#4,193.5,1.0,95,136.0
982,E4,193.5,1.0,95,136.0
983,E-4,193.5,2.5,95,136.0
984,B3,193.5,2.5,95,136.0
985,F#3,193.5,2.5,95,136.0
986,C#4,193.5,0.5,95,136.0
987,B-3,193.5,0.5,95,136.0
988,B2,193.5,0.25,79,136.0
989,B1,193.5,0.25,79,136.0
990,G#1,193.75,0.25,95,136.0
991,B2,194.0,0.75,79,136.0
992,B1,194.0,0.75,79,136.0
993,F#4,194.5,1.0,95,136.0
994,E4,194.5,0.5,95,136.0
995,C#4,194.5,0.5,95,136.0
996,B-3,194.5,0.5,95,136.0
997,B1,194.75,0.75,95,136.0
998,G#4,195.0,0.5,95,136.0
999,E-4,195.5,0.5,95,136.0
1000,G#4,195.5,0.5,95,136.0
1001,E-4,195.5,0.25,95,136.0
1002,B3,195.5,0.25,95,136.0
1003,C#3,195.5,0.25,79,136.0
1004,G#1,195.5,0.25,79,136.0
1005,C#4,196.0,0.5,79,136.0
1006,G#4,196.0,4.0,95,136.0
1007,E-4,196.5,2.0,95,136.0
1008,E-4,196.5,1.0,95,136.0
1009,B3,196.5,1.0,95,136.0
1010,G#3,196.5,1.0,95,136.0
1011,E-4,196.5,0.5,95,136.0
1012,B3,196.5,0.5,95,136.0
1013,G#1,196.75,0.25,95,136.0
1014,E-2,197.0,0.5,63,136.0
1015,E-2,197.5,0.5,95,136.0
1016,C#4,197.5,1.0,95,136.0
1017,B-3,197.5,1.0,95,136.0
1018,F#3,197.5,1.0,95,136.0
1019,C#4,197.5,0.5,95,136.0
1020,B-3,197.5,0.5,95,136.0
1021,F#2,198.0,0.5,95,136.0
1022,E-4,198.5,0.5,95,136.0
1023,G#2,198.5,0.5,95,136.0
1024,B-3,198.5,1.0,95,136.0
1025,F#3,198.5,1.0,95,136.0
1026,C#4,198.5,0.5,95,136.0
1027,B-3,198.5,0.5,95,136.0
1028,F#4,199.0,0.5,95,136.0
1029,F#2,199.0,0.5,95,136.0
1030,G#4,199.5,0.5,95,136.0
1031,E2,199.5,0.5,95,136.0
1032,E-4,199.5,0.5,95,136.0
1033,B3,199.5,0.5,95,136.0
1034,G#3,199.5,0.5,95,136.0
1035,E-4,199.5,0.5,95,136.0
1036,B3,199.5,0.5,95,136.0
1037,G#4,200.0,0.5,95,136.0
1038,E2,200.0,1.5,95,136.0
1039,E-4,200.0,1.5,95,136.0
1040,B3,200.0,1.5,95,136.0
1041,G#3,200.0,1.5,95,136.0
1042,B-4,200.5,1.0,95,136.0
1043,E-4,200.5,0.5,95,136.0
1044,B3,200.5,0.5,95,136.0
1045,B4,201.5,1.0,95,136.0
1046,E-2,201.5,0.25,95,136.0
1047,C#4,201.5,2.5,95,136.0
1048,B-3,201.5,2.5,95,136.0
1049,F#3,201.5,2.5,95,136.0
1050,F#4,201.5,0.5,95,136.0
1051,C#4,201.5,0.5,95,136.0
1052,B-3,201.5,0.5,95,136.0
1053,E-2,201.75,0.25,95,136.0
1054,F#2,202.0,0.75,95,136.0
1055,C#5,202.5,0.5,95,136.0
1056,E-4,202.5,0.5,95,136.0
1057,B-3,202.5,0.5,95,136.0
1058,F#2,202.75,0.75,95,136.0
1059,E-5,203.0,0.5,95,136.0
1060,E5,203.5,0.5,95,136.0
1061,E-2,203.5,0.25,95,136.0
1062,G#4,203.5,0.25,95,136.0
1063,E-4,203.5,0.25,95,136.0
1064,B3,203.5,0.25,95,136.0
1065,E5,203.5,0.5,95,136.0
1066,C#5,203.5,0.5,95,136.0
1067,G#4,203.5,0.5,95,136.0
1068,E5,204.0,0.5,95,136.0
1069,E-4,204.5,1.0,95,136.0
1070,B3,204.5,1.0,95,136.0
1071,G#3,204.5,1.0,95,136.0
1072,C#5,204.5,0.25,95,136.0
1073,G#4,204.5,0.25,95,136.0
1074,E4,204.5,0.25,95,136.0
1075,G#2,204.75,0.25,95,136.0
1076,E-2,205.0,0.5,63,136.0
1077,E-2,205.5,0.5,95,136.0
1078,C#4,205.5,1.0,95,136.0
1079,B-3,205.5,1.0,95,136.0
1080,F#3,205.5,1.0,95,136.0
1081,E-5,205.5,1.5,95,136.0
1082,B4,205.5,1.5,95,136.0
1083,F#4,205.5,1.5,95,136.0
1084,F#2,206.0,0.5,95,136.0
1085,C#5,206.5,0.5,95,136.0
1086,B2,206.5,0.5,95,136.0
1087,B-3,206.5,1.0,95,136.0
1088,F#3,206.5,1.0,95,136.0
1089,E-5,207.0,0.5,95,136.0
1090,F#2,207.0,0.5,95,136.0
1091,E5,207.5,0.5,95,136.0
1092,E2,207.5,0.5,95,136.0
1093,E-4,207.5,0.5,95,136.0
1094,B3,207.5,0.5,95,136.0
1095,G#3,207.5,0.5,95,136.0
1096,E5,207.5,0.5,95,136.0
1097,C#5,207.5,0.5,95,136.0
1098,G#4,207.5,0.5,95,136.0
1099,E5,208.0,0.5,95,136.0
1100,E2,208.0,1.5,95,136.0
1101,E-4,208.0,1.5,95,136.0
1102,B3,208.0,1.5,95,136.0
1103,G#3,208.0,1.5,95,136.0
1104,F#5,208.5,0.5,95,136.0
1105,E5,209.0,0.5,95,136.0
1106,E-5,209.5,1.0,95,136.0
1107,F#2,209.5,0.25,95,136.0
1108,C#4,209.5,2.5,95,136.0
1109,B-3,209.5,2.5,95,136.0
1110,F#3,209.5,2.5,95,136.0
1111,E-5,209.5,0.5,95,136.0
1112,B4,209.5,0.5,95,136.0
1113,F#4,209.5,0.5,95,136.0
1114,E-2,209.75,0.25,95,136.0
1115,F#2,210.0,0.75,95,136.0
1116,B4,210.5,0.5,95,136.0
1117,B4,210.5,0.5,95,136.0
1118,F#4,210.5,0.5,95,136.0
1119,F#2,210.75,0.75,95,136.0
1120,C#5,211.0,0.25,79,136.0
1121,E5,211.25,0.25,95,136.0
1122,C#5,211.5,0.5,95,136.0
1123,E-2,211.5,0.25,95,136.0
1124,C#5,211.5,0.5,95,136.0
1125,G#4,211.5,0.5,95,136.0
1126,E4,211.5,0.5,95,136.0
1127,C#5,212.0,0.5,95,136.0
1128,C#5,212.0,0.5,95,136.0
1129,G#4,212.0,0.5,95,136.0
1130,E4,212.0,0.5,95,136.0
1131,B4,212.5,0.5,95,136.0
1132,E-4,212.5,1.0,95,136.0
1133,B3,212.5,1.0,95,136.0
1134,G#3,212.5,1.0,95,136.0
1135,G#2,212.75,0.25,95,136.0
1136,G#4,213.0,0.5,95,136.0
1137,E-2,213.0,0.5,63,136.0
1138,F#4,213.5,1.0,95,136.0
1139,E-2,213.5,0.5,95,136.0
1140,C#4,213.5,1.0,95,136.0
1141,B-3,213.5,1.0,95,136.0
1142,F#3,213.5,1.0,95,136.0
1143,F#2,214.0,0.5,95,136.0
1144,E4,214.5,0.5,95,136.0
1145,G#2,214.5,0.5,95,136.0
1146,B-3,214.5,1.0,95,136.0
1147,F#3,214.5,1.0,95,136.0
1148,E-4,215.0,0.5,95,136.0
1149,F#2,215.0,0.5,95,136.0
1150,E4,215.5,0.5,95,136.0
1151,E2,215.5,0.5,95,136.0
1152,E-4,215.5,0.5,95,136.0
1153,B3,215.5,0.5,95,136.0
1154,G#3,215.5,0.5,95,136.0
1155,E4,216.0,0.5,95,136.0
1156,E2,216.0,1.5,95,136.0
1157,E-4,216.0,1.5,95,136.0
1158,B3,216.0,1.5,95,136.0
1159,G#3,216.0,1.5,95,136.0
1160,E-2,217.5,0.25,79,136.0
1161,C#4,217.5,2.5,95,136.0
1162,B-3,217.5,2.5,95,136.0
1163,F#3,217.5,2.5,95,136.0
1164,E-2,217.75,0.25,95,136.0
1165,F#2,218.0,0.75,95,136.0
1166,F#2,218.75,0.75,95,136.0
1167,E-2,219.5,0.25,95,136.0
1168,B4,220.5,0.5,95,136.0
1169,E-4,220.5,1.0,95,136.0
1170,B3,220.5,1.0,95,136.0
1171,G#3,220.5,1.0,95,136.0
1172,G#2,220.75,0.25,95,136.0
1173,A4,221.0,0.5,95,136.0
1174,E-2,221.0,0.5,63,136.0
1175,G#4,221.5,1.0,95,136.0
1176,E-2,221.5,0.5,95,136.0
1177,C#4,221.5,1.0,95,136.0
1178,B-3,221.5,1.0,95,136.0
1179,F#3,221.5,1.0,95,136.0
1180,F#2,222.0,0.5,95,136.0
1181,F#4,222.5,1.0,95,136.0
1182,B2,222.5,0.5,95,136.0
1183,B-3,222.5,1.0,95,136.0
1184,F#3,222.5,1.0,95,136.0
1185,F#2,223.0,0.5,95,136.0
1186,A4,223.5,0.5,95,136.0
1187,E2,223.5,0.5,95,136.0
1188,E-4,223.5,0.5,95,136.0
1189,B3,223.5,0.5,95,136.0
1190,G#3,223.5,0.5,95,136.0
1191,B4,223.5,0.5,95,136.0
1192,F#4,223.5,0.5,95,136.0
1193,E-4,223.5,0.5,95,136.0
1194,A4,224.0,0.5,95,136.0
1195,E2,224.0,1.5,95,136.0
1196,E-4,224.0,1.5,95,136.0
1197,B3,224.0,1.5,95,136.0
1198,G#3,224.0,1.5,95,136.0
1199,B4,224.0,0.5,95,136.0
1200,F#4,224.0,0.5,95,136.0
1201,E-4,224.0,0.5,95,136.0
1202,C#5,224.5,0.5,95,136.0
1203,C#5,224.5,0.5,95,136.0
1204,B4,224.5,0.5,95,136.0
1205,F#4,224.5,0.5,95,136.0
1206,E-5,225.0,0.5,95,136.0
1207,E-5,225.0,0.5,95,136.0
1208,B4,225.0,0.5,95,136.0
1209,F#4,225.0,0.5,95,136.0
1210,E5,225.5,0.5,95,136.0
1211,F#2,225.5,0.25,95,136.0
1212,C#4,225.5,2.0,95,136.0
1213,B-3,225.5,2.0,95,136.0
1214,F#3,225.5,2.0,95,136.0
1215,E5,225.5,0.5,95,136.0
1216,C#5,225.5,0.5,95,136.0
1217,G#4,225.5,0.5,95,136.0
1218,E-2,225.75,0.25,95,136.0
1219,F#2,226.0,0.75,95,136.0
1220,C#4,226.5,0.5,95,136.0
1221,F#2,226.75,0.75,95,136.0
1222,E-4,227.0,0.5,95,136.0
1223,E4,227.5,0.5,95,136.0
1224,C#4,227.5,0.5,95,136.0
1225,A1,227.5,0.5,95,136.0
1226,G#4,227.5,0.5,95,136.0
1227,E4,227.5,0.5,95,136.0
1228,C#4,227.5,0.5,95,136.0
1229,A3,227.5,0.5,95,136.0
1230,G#4,227.5,0.5,95,136.0
1231,E4,227.5,0.5,95,136.0
1232,A3,227.5,0.5,95,136.0
1233,C#6,227.5,0.5,79,136.0
1234,C#5,227.5,0.5,79,136.0
1235,E4,228.0,0.5,95,136.0
1236,C#4,228.0,0.5,95,136.0
1237,A1,228.0,0.5,95,136.0
1238,G#4,228.0,0.75,95,136.0
1239,E4,228.0,0.75,95,136.0
1240,C#4,228.0,0.75,95,136.0
1241,A3,228.0,0.75,95,136.0
1242,G#4,228.0,0.75,95,136.0
1243,E4,228.0,0.75,95,136.0
1244,A3,228.0,0.75,95,136.0
1245,E-6,228.0,0.5,79,136.0
1246,E-5,228.0,0.5,79,136.0
1247,C#4,228.5,0.25,95,136.0
1248,E6,228.5,0.5,95,136.0
1249,E5,228.5,0.5,63,136.0
1250,C#3,228.5,0.5,63,136.0
1251,A1,228.5,0.5,95,136.0
1252,E6,229.0,0.5,95,136.0
1253,G#3,229.0,0.5,63,136.0
1254,A1,229.0,0.5,95,136.0
1255,C#3,229.5,0.5,63,136.0
1256,B1,229.5,2.0,95,136.0
1257,F#4,229.5,2.0,95,136.0
1258,E-4,229.5,2.0,95,136.0
1259,B3,229.5,2.0,95,136.0
1260,F#4,229.5,1.0,95,136.0
1261,E-4,229.5,1.0,95,136.0
1262,B3,229.5,1.0,95,136.0
1263,G#6,229.5,1.0,79,136.0
1264,G#5,229.5,1.0,79,136.0
1265,A3,230.0,0.5,63,136.0
1266,E4,230.5,0.5,95,136.0
1267,C#4,230.5,0.5,95,136.0
1268,C#3,230.5,0.5,63,136.0
1269,F#6,230.5,1.0,79,136.0
1270,F#5,230.5,1.0,79,136.0
1271,F#4,231.0,0.5,95,136.0
1272,E-4,231.0,0.5,95,136.0
1273,B2,231.0,0.5,63,136.0
1274,F#4,231.5,0.5,95,136.0
1275,C#3,231.5,0.5,63,136.0
1276,C#2,231.5,0.5,95,136.0
1277,G#4,231.5,0.5,95,136.0
1278,E4,231.5,0.5,95,136.0
1279,C#4,231.5,0.5,95,136.0
1280,G#4,231.5,0.5,95,136.0
1281,E4,231.5,0.5,95,136.0
1282,C#4,231.5,0.5,95,136.0
1283,B6,231.5,1.0,79,136.0
1284,B5,231.5,1.0,79,136.0
1285,F#4,232.0,0.5,95,136.0
1286,C#3,232.0,1.0,63,136.0
1287,C#2,232.0,1.5,95,136.0
1288,G#4,232.0,1.5,95,136.0
1289,E4,232.0,1.5,95,136.0
1290,C#4,232.0,1.5,95,136.0
1291,G#4,232.0,0.5,95,136.0
1292,E4,232.0,0.5,95,136.0
1293,C#4,232.0,0.5,95,136.0
1294,A4,232.5,0.5,95,136.0
1295,C#4,232.5,0.25,95,136.0
1296,E6,232.5,0.5,79,136.0
1297,E5,232.5,0.5,79,136.0
1298,G#4,233.0,0.5,95,136.0
1299,E3,233.0,0.5,63,136.0
1300,F#4,233.5,1.0,95,136.0
1301,B2,233.5,1.0,63,136.0
1302,B1,233.5,0.5,95,136.0
1303,F#4,233.5,2.0,95,136.0
1304,E-4,233.5,2.0,95,136.0
1305,B3,233.5,2.0,95,136.0
1306,F#4,233.5,1.0,95,136.0
1307,E-4,233.5,1.0,95,136.0
1308,B3,233.5,1.0,95,136.0
1309,E4,234.5,0.5,95,136.0
1310,B3,234.5,0.25,95,136.0
1311,E3,234.5,0.5,63,136.0
1312,G#1,234.5,0.5,95,136.0
1313,E-4,235.0,0.5,95,136.0
1314,E-3,235.0,0.5,63,136.0
1315,C#4,235.5,0.5,95,136.0
1316,C#3,235.5,0.5,63,136.0
1317,A1,235.5,0.5,95,136.0
1318,G#4,235.5,0.5,95,136.0
1319,E4,235.5,0.5,95,136.0
1320,A3,235.5,0.5,95,136.0
1321,G#4,235.5,0.5,95,136.0
1322,E4,235.5,0.5,95,136.0
1323,A3,235.5,0.5,95,136.0
1324,A1,236.0,1.5,95,136.0
1325,G#4,236.0,0.5,95,136.0
1326,E4,236.0,0.5,95,136.0
1327,A3,236.0,0.5,95,136.0
1328,C#4,236.5,0.5,95,136.0
1329,E4,236.5,0.5,95,136.0
1330,C#4,236.5,0.5,95,136.0
1331,F#4,237.5,2.5,95,136.0
1332,E-4,237.5,1.0,95,136.0
1333,B3,237.5,2.0,95,136.0
1334,B1,237.5,2.0,95,136.0
1335,G#4,237.5,1.5,95,136.0
1336,E4,237.5,1.5,95,136.0
1337,A3,237.5,1.5,95,136.0
1338,E-4,237.5,0.5,95,136.0
1339,B3,237.5,0.5,95,136.0
1340,E4,238.5,0.5,95,136.0
1341,E-4,238.5,0.5,95,136.0
1342,B3,238.5,0.5,95,136.0
1343,E-4,239.0,0.5,95,136.0
1344,F#4,239.0,2.0,95,136.0
1345,E-4,239.0,2.0,95,136.0
1346,B3,239.0,2.0,95,136.0
1347,C#2,239.5,0.5,95,136.0
1348,C#4,239.5,0.5,95,136.0
1349,G#3,239.5,0.5,95,136.0
1350,E4,239.5,0.5,95,136.0
1351,C#4,239.5,0.5,95,136.0
1352,C#2,240.0,0.5,95,136.0
1353,C#4,240.0,0.5,95,136.0
1354,G#3,240.0,0.5,95,136.0
1355,G#1,240.5,0.5,95,136.0
1356,G#4,240.5,1.0,95,136.0
1357,E4,240.5,1.0,95,136.0
1358,C#4,240.5,1.0,95,136.0
1359,E4,240.5,0.5,95,136.0
1360,C#4,240.5,0.5,95,136.0
1361,C#2,241.0,0.5,95,136.0
1362,C#4,241.0,0.5,95,136.0
1363,G#3,241.0,0.5,95,136.0
1364,F#4,241.5,1.0,95,136.0
1365,E2,241.5,0.5,95,136.0
1366,E-4,241.5,2.0,95,136.0
1367,B3,241.5,2.0,95,136.0
1368,G#4,241.5,0.5,95,136.0
1369,E-4,241.5,0.5,95,136.0
1370,B3,241.5,0.5,95,136.0
1371,E-2,242.0,0.5,95,136.0
1372,C#4,242.0,0.5,95,136.0
1373,G#3,242.0,0.5,95,136.0
1374,B4,242.5,1.0,95,136.0
1375,B1,242.5,0.5,95,136.0
1376,G#4,242.5,1.0,95,136.0
1377,E4,242.5,1.0,95,136.0
1378,C#4,242.5,1.0,95,136.0
1379,E-4,242.5,0.5,95,136.0
1380,B3,242.5,0.5,95,136.0
1381,E1,243.0,0.5,95,136.0
1382,F#4,243.5,1.0,95,136.0
1383,C#4,243.5,0.5,95,136.0
1384,A1,243.5,0.5,95,136.0
1385,E-4,243.5,2.0,95,136.0
1386,B3,243.5,2.0,95,136.0
1387,G#4,243.5,0.5,95,136.0
1388,E4,243.5,0.5,95,136.0
1389,A3,243.5,0.5,95,136.0
1390,E4,243.5,0.25,95,136.0
1391,C#4,243.5,0.25,95,136.0
1392,C#4,244.0,0.5,95,136.0
1393,A1,244.0,0.5,95,136.0
1394,G#4,244.0,0.75,95,136.0
1395,E4,244.0,0.75,95,136.0
1396,A3,244.0,0.75,95,136.0
1397,B4,244.5,1.0,95,136.0
1398,C#4,244.5,0.25,95,136.0
1399,A1,244.5,0.5,95,136.0
1400,E4,244.5,0.5,95,136.0
1401,C#4,244.5,0.5,95,136.0
1402,A1,245.0,0.5,95,136.0
1403,B1,245.5,0.5,95,136.0
1404,G#4,245.5,0.5,95,136.0
1405,E4,245.5,0.5,95,136.0
1406,C#4,245.5,0.5,95,136.0
1407,A3,245.5,0.5,95,136.0
1408,F#4,245.5,1.0,95,136.0
1409,E-4,245.5,1.0,95,136.0
1410,B3,245.5,1.0,95,136.0
1411,E-4,245.5,0.5,95,136.0
1412,B3,245.5,0.5,95,136.0
1413,B1,246.0,0.5,95,136.0
1414,G#4,246.0,1.5,95,136.0
1415,E4,246.0,1.5,95,136.0
1416,C#4,246.0,1.5,95,136.0
1417,A3,246.0,1.5,95,136.0
1418,E4,246.5,0.5,95,136.0
1419,B1,246.5,0.5,95,136.0
1420,E-4,246.5,0.5,95,136.0
1421,B3,246.5,0.5,95,136.0
1422,B1,247.0,0.5,95,136.0
1423,G#1,247.5,0.5,95,136.0
1424,F#4,247.5,2.0,95,136.0
1425,E-4,247.5,2.0,95,136.0
1426,B3,247.5,2.0,95,136.0
1427,F#4,247.5,0.5,95,136.0
1428,E-4,247.5,0.5,95,136.0
1429,B3,247.5,0.5,95,136.0
1430,G#4,247.5,0.5,95,136.0
1431,C#4,247.5,0.5,95,136.0
1432,G#1,248.0,0.5,95,136.0
1433,F#4,248.0,0.5,95,136.0
1434,E-4,248.0,0.5,95,136.0
1435,B3,248.0,0.5,95,136.0
1436,C#4,248.5,0.5,95,136.0
1437,G#1,248.5,0.5,95,136.0
1438,G#4,248.5,0.5,95,136.0
1439,C#4,248.5,0.5,95,136.0
1440,E-4,249.0,0.5,95,136.0
1441,F#1,249.0,0.5,95,136.0
1442,E4,249.5,1.0,63,136.0
1443,A1,249.5,1.0,95,136.0
1444,F#4,249.5,0.5,95,136.0
1445,E-4,249.5,0.5,95,136.0
1446,B3,249.5,0.5,95,136.0
1447,G#4,249.5,1.0,95,136.0
1448,E4,249.5,1.0,95,136.0
1449,C#4,249.5,1.0,95,136.0
1450,A3,249.5,1.0,95,136.0
1451,F#4,249.5,0.5,95,136.0
1452,E-4,249.5,0.5,95,136.0
1453,B3,249.5,0.5,95,136.0
1454,F#4,250.0,1.5,95,136.0
1455,E-4,250.0,1.5,95,136.0
1456,B3,250.0,1.5,95,136.0
1457,C#4,250.5,0.5,95,136.0
1458,E-4,250.5,1.0,63,136.0
1459,A1,250.5,0.5,95,136.0
1460,E-4,250.5,0.5,95,136.0
1461,B3,250.5,0.5,95,136.0
1462,E-4,251.0,0.5,95,136.0
1463,G#1,251.0,0.5,95,136.0
1464,B3,251.5,1.0,63,136.0
1465,F#1,251.5,0.5,95,136.0
1466,G#4,251.5,2.0,95,136.0
1467,E4,251.5,2.0,95,136.0
1468,C#4,251.5,2.0,95,136.0
1469,A3,251.5,2.0,95,136.0
1470,G#4,251.5,0.5,95,136.0
1471,E4,251.5,0.5,95,136.0
1472,C#4,251.5,0.5,95,136.0
1473,E4,251.5,0.25,95,136.0
1474,C#4,251.5,0.25,95,136.0
1475,F#1,252.0,0.5,95,136.0
1476,G#4,252.0,2.0,95,136.0
1477,E4,252.0,2.0,95,136.0
1478,C#4,252.0,2.0,95,136.0
1479,C#4,252.5,0.5,63,136.0
1480,F#1,252.5,0.5,95,136.0
1481,E4,252.5,0.5,95,136.0
1482,C#4,252.5,0.5,95,136.0
1483,C#4,253.0,1.5,63,136.0
1484,F#1,253.0,0.5,95,136.0
1485,F#1,253.5,0.5,95,136.0
1486,G#4,253.5,0.5,95,136.0
1487,E4,253.5,0.5,95,136.0
1488,C#4,253.5,0.5,95,136.0
1489,E-4,253.5,0.5,95,136.0
1490,B3,253.5,0.5,95,136.0
1491,F#1,254.0,0.5,95,136.0
1492,G#4,254.0,2.5,95,136.0
1493,E4,254.0,2.5,95,136.0
1494,C#4,254.0,2.5,95,136.0
1495,E4,254.5,0.5,95,136.0
1496,E-4,254.5,2.5,63,136.0
1497,F#1,254.5,0.5,95,136.0
1498,E-4,254.5,0.5,95,136.0
1499,B3,254.5,0.5,95,136.0
1500,F#4,255.0,0.5,95,136.0
1501,G#1,255.0,0.5,95,136.0
1502,G#4,255.5,0.5,95,136.0
1503,A1,255.5,0.5,95,136.0
1504,E4,255.5,0.5,95,136.0
1505,C#4,255.5,0.5,95,136.0
1506,E4,255.5,0.5,95,136.0
1507,C#4,255.5,0.5,95,136.0
1508,G#4,256.0,0.5,95,136.0
1509,A1,256.0,1.0,95,136.0
1510,E4,256.0,1.5,95,136.0
1511,C#4,256.0,1.5,95,136.0
1512,E4,256.5,0.5,95,136.0
1513,A4,256.5,0.5,95,136.0
1514,E4,256.5,0.5,95,136.0
1515,C#4,256.5,0.5,95,136.0
1516,F#4,257.0,0.5,95,136.0
1517,G#4,257.0,0.5,95,136.0
1518,E4,257.0,1.5,63,136.0
1519,C#2,257.0,0.5,95,136.0
1520,G#4,257.5,0.5,95,136.0
1521,B1,257.5,1.0,95,136.0
1522,E4,257.5,0.5,95,136.0
1523,C#4,257.5,0.5,95,136.0
1524,F#4,257.5,1.0,95,136.0
1525,B3,257.5,1.0,95,136.0
1526,G#4,257.5,0.5,95,136.0
1527,E-4,257.5,0.5,95,136.0
1528,B3,257.5,0.5,95,136.0
1529,G#4,258.0,0.5,95,136.0
1530,E4,258.0,1.5,95,136.0
1531,C#4,258.0,1.5,95,136.0
1532,A4,258.5,0.5,95,136.0
1533,E4,258.5,0.5,95,136.0
1534,F#4,258.5,2.0,63,136.0
1535,G#1,258.5,0.5,95,136.0
1536,E-4,258.5,0.5,95,136.0
1537,B3,258.5,0.5,95,136.0
1538,G#4,259.0,0.5,95,136.0
1539,E-4,259.0,0.5,95,136.0
1540,B1,259.0,0.5,95,136.0
1541,C#2,259.5,0.5,95,136.0
1542,F#4,259.5,1.0,95,136.0
1543,B3,259.5,1.0,95,136.0
1544,E4,259.5,0.5,95,136.0
1545,C#4,259.5,0.5,95,136.0
1546,E4,259.5,0.25,95,136.0
1547,C#4,259.5,0.25,95,136.0
1548,C#2,260.0,0.75,95,136.0
1549,E4,260.0,0.5,95,136.0
1550,C#4,260.0,0.5,95,136.0
1551,E4,260.5,0.5,95,136.0
1552,G#4,260.5,0.5,63,136.0
1553,E4,260.5,1.0,95,136.0
1554,C#4,260.5,1.0,95,136.0
1555,G#3,260.5,1.0,95,136.0
1556,E4,260.5,0.5,95,136.0
1557,C#4,260.5,0.5,95,136.0
1558,C#2,260.75,0.25,95,136.0
1559,E-4,261.0,0.5,95,136.0
1560,G#4,261.0,1.5,63,136.0
1561,G#1,261.0,0.5,63,136.0
1562,G#1,261.5,0.5,95,136.0
1563,E4,261.5,0.5,95,136.0
1564,C#4,261.5,0.5,95,136.0
1565,E-4,261.5,1.0,95,136.0
1566,B3,261.5,1.0,95,136.0
1567,G#3,261.5,1.0,95,136.0
1568,E-4,261.5,0.5,95,136.0
1569,B3,261.5,0.5,95,136.0
1570,B1,262.0,0.5,95,136.0
1571,G#4,262.5,0.5,63,136.0
1572,F#4,262.5,2.0,63,136.0
1573,C#2,262.5,0.5,95,136.0
1574,B3,262.5,1.0,95,136.0
1575,G#3,262.5,1.0,95,136.0
1576,E-4,262.5,0.5,95,136.0
1577,B3,262.5,0.5,95,136.0
1578,B4,263.0,0.5,79,136.0
1579,B1,263.0,0.5,95,136.0
1580,F#4,263.5,1.0,63,136.0
1581,A1,263.5,0.5,95,136.0
1582,C#4,263.5,0.5,95,136.0
1583,G#3,263.5,0.5,95,136.0
1584,E3,263.5,0.5,95,136.0
1585,G#4,263.5,0.5,95,136.0
1586,C#4,263.5,0.5,95,136.0
1587,A1,264.0,1.5,95,136.0
1588,C#4,264.0,1.5,95,136.0
1589,G#3,264.0,1.5,95,136.0
1590,E3,264.0,1.5,95,136.0
1591,B4,264.5,1.0,63,136.0
1592,G#4,264.5,0.25,63,136.0
1593,G#4,264.5,0.5,95,136.0
1594,C#4,264.5,0.5,95,136.0
1595,G#4,265.5,0.5,63,136.0
1596,E4,265.5,1.0,95,136.0
1597,G#1,265.5,0.25,79,136.0
1598,E-4,265.5,2.5,95,136.0
1599,B3,265.5,2.5,95,136.0
1600,F#3,265.5,2.5,95,136.0
1601,F#4,265.5,0.5,95,136.0
1602,E-4,265.5,0.5,95,136.0
1603,B3,265.5,0.5,95,136.0
1604,G#1,265.75,0.25,95,136.0
1605,G#4,266.0,0.5,63,136.0
1606,B1,266.0,0.75,95,136.0
1607,B4,266.5,0.5,95,136.0
1608,E-4,266.5,1.0,95,136.0
1609,E-4,266.5,0.5,95,136.0
1610,B3,266.5,0.5,95,136.0
1611,B1,266.75,0.75,95,136.0
1612,A4,267.0,0.5,95,136.0
1613,G#4,267.5,0.5,95,136.0
1614,B3,267.5,1.0,95,136.0
1615,G#1,267.5,0.25,95,136.0
1616,E4,267.5,0.25,95,136.0
1617,C#4,267.5,0.25,95,136.0
1618,F#4,268.0,0.5,95,136.0
1619,G#4,268.5,2.0,95,136.0
1620,C#4,268.5,0.5,95,136.0
1621,E4,268.5,1.0,95,136.0
1622,C#4,268.5,1.0,95,136.0
1623,G#3,268.5,1.0,95,136.0
1624,E4,268.5,0.5,95,136.0
1625,C#4,268.5,0.5,95,136.0
1626,C#2,268.75,0.25,95,136.0
1627,C#4,269.0,1.5,95,136.0
1628,G#1,269.0,0.5,63,136.0
1629,G#1,269.5,0.5,95,136.0
1630,E-4,269.5,1.0,95,136.0
1631,B3,269.5,1.0,95,136.0
1632,G#3,269.5,1.0,95,136.0
1633,E-4,269.5,0.5,95,136.0
1634,B3,269.5,0.5,95,136.0
1635,B1,270.0,0.5,95,136.0
1636,E-4,270.5,0.5,95,136.0
1637,G#4,270.5,0.5,63,136.0
1638,E-4,270.5,2.5,95,136.0
1639,E2,270.5,0.5,95,136.0
1640,B3,270.5,1.0,95,136.0
1641,G#3,270.5,1.0,95,136.0
1642,E-4,270.5,0.5,95,136.0
1643,B3,270.5,0.5,95,136.0
1644,B3,271.0,0.5,95,136.0
1645,B4,271.0,0.5,79,136.0
1646,B1,271.0,0.5,95,136.0
1647,C#4,271.5,0.5,95,136.0
1648,F#4,271.5,1.0,63,136.0
1649,A1,271.5,0.5,95,136.0
1650,C#4,271.5,0.5,95,136.0
1651,G#3,271.5,0.5,95,136.0
1652,E3,271.5,0.5,95,136.0
1653,E4,271.5,0.5,95,136.0
1654,C#4,271.5,0.5,95,136.0
1655,C#4,272.0,2.0,95,136.0
1656,A1,272.0,1.5,95,136.0
1657,C#4,272.0,1.5,95,136.0
1658,G#3,272.0,1.5,95,136.0
1659,E3,272.0,1.5,95,136.0
1660,B4,272.5,1.0,63,136.0
1661,E4,272.5,0.5,95,136.0
1662,C#4,272.5,0.5,95,136.0
1663,E4,273.0,1.5,95,136.0
1664,G#4,273.5,0.5,63,136.0
1665,E-4,273.5,2.5,95,136.0
1666,B3,273.5,2.5,95,136.0
1667,F#3,273.5,2.5,95,136.0
1668,G#4,273.5,0.5,95,136.0
1669,E-4,273.5,0.5,95,136.0
1670,B3,273.5,0.5,95,136.0
1671,B2,273.5,0.25,79,136.0
1672,B1,273.5,0.25,79,136.0
1673,G#1,273.75,0.25,95,136.0
1674,G#4,274.0,0.5,63,136.0
1675,B2,274.0,0.75,79,136.0
1676,B1,274.0,0.75,79,136.0
1677,E-4,274.5,0.5,95,136.0
1678,F#4,274.5,2.0,95,136.0
1679,E-4,274.5,0.5,95,136.0
1680,B3,274.5,0.5,95,136.0
1681,B1,274.75,0.75,95,136.0
1682,E4,275.0,0.5,95,136.0
1683,F#4,275.5,0.5,95,136.0
1684,E4,275.5,0.25,95,136.0
1685,C#4,275.5,0.25,95,136.0
1686,C#3,275.5,0.25,79,136.0
1687,G#1,275.5,0.25,79,136.0
1688,F#4,276.0,0.5,95,136.0
1689,G#4,276.5,0.5,95,136.0
1690,G#4,276.5,0.5,95,136.0
1691,E4,276.5,1.0,95,136.0
1692,C#4,276.5,1.0,95,136.0
1693,G#3,276.5,1.0,95,136.0
1694,E4,276.5,0.5,95,136.0
1695,C#4,276.5,0.5,95,136.0
1696,C#2,276.75,0.25,95,136.0
1697,G#1,277.0,0.5,63,136.0
1698,G#3,277.5,1.0,95,136.0
1699,E4,277.5,1.0,63,136.0
1700,G#1,277.5,0.5,95,136.0
1701,E-4,277.5,1.0,95,136.0
1702,B3,277.5,1.0,95,136.0
1703,G#3,277.5,1.0,95,136.0
1704,E-4,277.5,0.5,95,136.0
1705,B3,277.5,0.5,95,136.0
1706,B1,278.0,0.5,95,136.0
1707,D4,278.5,0.5,95,136.0
1708,G#4,278.5,0.5,63,136.0
1709,E-4,278.5,1.0,63,136.0
1710,C#2,278.5,0.5,95,136.0
1711,B3,278.5,1.0,95,136.0
1712,G#3,278.5,1.0,95,136.0
1713,E-4,278.5,0.5,95,136.0
1714,B3,278.5,0.5,95,136.0
1715,E-4,279.0,0.5,95,136.0
1716,B4,279.0,0.5,79,136.0
1717,B1,279.0,0.5,95,136.0
1718,C#4,279.5,0.5,95,136.0
1719,F#4,279.5,1.0,63,136.0
1720,B3,279.5,1.0,63,136.0
1721,A1,279.5,0.5,95,136.0
1722,C#4,279.5,0.5,95,136.0
1723,G#3,279.5,0.5,95,136.0
1724,E3,279.5,0.5,95,136.0
1725,G#4,279.5,0.5,95,136.0
1726,C#4,279.5,0.5,95,136.0
1727,B3,280.0,0.5,95,136.0
1728,A1,280.0,1.5,95,136.0
1729,C#4,280.0,1.5,95,136.0
1730,G#3,280.0,1.5,95,136.0
1731,E3,280.0,1.5,95,136.0
1732,C#4,280.5,1.0,79,136.0
1733,B4,280.5,1.0,63,136.0
1734,C#4,280.5,0.5,63,136.0
1735,G#4,280.5,0.5,95,136.0
1736,C#4,280.5,0.5,95,136.0
1737,C#4,281.0,1.5,63,136.0
1738,G#4,281.5,0.5,63,136.0
1739,G#1,281.5,0.25,79,136.0
1740,E-4,281.5,2.5,95,136.0
1741,B3,281.5,2.5,95,136.0
1742,F#3,281.5,2.5,95,136.0
1743,F#4,281.5,0.5,95,136.0
1744,E-4,281.5,0.5,95,136.0
1745,B3,281.5,0.5,95,136.0
1746,G#1,281.75,0.25,95,136.0
1747,G#4,282.0,0.5,63,136.0
1748,B1,282.0,0.75,95,136.0
1749,E-4,282.5,2.5,63,136.0
1750,E-4,282.5,0.5,95,136.0
1751,B3,282.5,0.5,95,136.0
1752,B1,282.75,0.75,95,136.0
1753,G#1,283.5,0.25,95,136.0
1754,E4,283.5,0.25,95,136.0
1755,C#4,283.5,0.25,95,136.0
1756,E4,284.5,1.0,95,136.0
1757,C#4,284.5,1.0,95,136.0
1758,G#3,284.5,1.0,95,136.0
1759,E4,284.5,0.5,95,136.0
1760,C#4,284.5,0.5,95,136.0
1761,C#2,284.75,0.25,95,136.0
1762,C#5,285.0,0.5,95,136.0
1763,E4,285.0,1.5,63,136.0
1764,G#1,285.0,0.5,63,136.0
1765,B4,285.5,0.5,95,136.0
1766,G#1,285.5,0.5,95,136.0
1767,E-4,285.5,1.0,95,136.0
1768,B3,285.5,1.0,95,136.0
1769,G#3,285.5,1.0,95,136.0
1770,E-4,285.5,0.5,95,136.0
1771,B3,285.5,0.5,95,136.0
1772,B1,286.0,0.5,95,136.0
1773,A4,286.5,0.5,95,136.0
1774,G#4,286.5,0.5,63,136.0
1775,F#4,286.5,2.0,63,136.0
1776,E2,286.5,0.5,95,136.0
1777,B3,286.5,1.0,95,136.0
1778,G#3,286.5,1.0,95,136.0
1779,E-4,286.5,0.5,95,136.0
1780,B3,286.5,0.5,95,136.0
1781,B4,287.0,0.5,79,136.0
1782,B1,287.0,0.5,95,136.0
1783,G#4,287.5,0.5,95,136.0
1784,F#4,287.5,1.0,63,136.0
1785,A1,287.5,0.5,95,136.0
1786,C#4,287.5,0.5,95,136.0
1787,G#3,287.5,0.5,95,136.0
1788,E3,287.5,0.5,95,136.0
1789,E4,287.5,0.5,95,136.0
1790,C#4,287.5,0.5,95,136.0
1791,G#4,288.0,1.0,95,136.0
1792,A1,288.0,1.5,95,136.0
1793,C#4,288.0,1.5,95,136.0
1794,G#3,288.0,1.5,95,136.0
1795,E3,288.0,1.5,95,136.0
1796,B4,288.5,1.0,63,136.0
1797,G#4,288.5,0.5,63,136.0
1798,E4,288.5,0.5,95,136.0
1799,C#4,288.5,0.5,95,136.0
1800,F#4,289.0,0.5,95,136.0
1801,G#4,289.0,1.5,63,136.0
1802,B4,289.5,0.5,95,136.0
1803,G#4,289.5,0.5,63,136.0
1804,E-4,289.5,2.5,95,136.0
1805,B3,289.5,2.5,95,136.0
1806,F#3,289.5,2.5,95,136.0
1807,G#4,289.5,0.5,95,136.0
1808,E-4,289.5,0.5,95,136.0
1809,B3,289.5,0.5,95,136.0
1810,B2,289.5,0.25,79,136.0
1811,B1,289.5,0.25,79,136.0
1812,G#1,289.75,0.25,95,136.0
1813,G#4,290.0,0.5,63,136.0
1814,B2,290.0,0.75,79,136.0
1815,B1,290.0,0.75,79,136.0
1816,A4,290.5,0.5,95,136.0
1817,F#4,290.5,2.0,63,136.0
1818,E-4,290.5,0.5,95,136.0
1819,B3,290.5,0.5,95,136.0
1820,B1,290.75,0.75,95,136.0
1821,G#4,291.5,0.5,95,136.0
1822,E4,291.5,0.25,95,136.0
1823,C#4,291.5,0.25,95,136.0
1824,C#3,291.5,0.25,79,136.0
1825,G#1,291.5,0.25,79,136.0
1826,F#4,292.0,0.5,95,136.0
1827,G#4,292.5,1.5,95,136.0
1828,G#4,292.5,0.25,63,136.0
1829,E4,292.5,1.0,95,136.0
1830,C#4,292.5,1.0,95,136.0
1831,G#3,292.5,1.0,95,136.0
1832,E4,292.5,0.5,95,136.0
1833,C#4,292.5,0.5,95,136.0
1834,C#2,292.75,0.25,95,136.0
1835,G#1,293.0,0.5,63,136.0
1836,E4,293.5,1.0,63,136.0
1837,G#1,293.5,0.5,95,136.0
1838,E-4,293.5,1.0,95,136.0
1839,B3,293.5,1.0,95,136.0
1840,G#3,293.5,1.0,95,136.0
1841,E-4,293.5,0.5,95,136.0
1842,B3,293.5,0.5,95,136.0
1843,B1,294.0,0.5,95,136.0
1844,E-4,294.5,0.5,95,136.0
1845,G#4,294.5,0.5,63,136.0
1846,E-4,294.5,1.0,63,136.0
1847,C#2,294.5,0.5,95,136.0
1848,B3,294.5,1.0,95,136.0
1849,G#3,294.5,1.0,95,136.0
1850,E-4,294.5,0.5,95,136.0
1851,B3,294.5,0.5,95,136.0
1852,B3,295.0,0.5,95,136.0
1853,B4,295.0,0.5,79,136.0
1854,B1,295.0,0.5,95,136.0
1855,C#4,295.5,0.5,95,136.0
1856,F#4,295.5,1.0,63,136.0
1857,B3,295.5,1.0,63,136.0
1858,A1,295.5,0.5,95,136.0
1859,C#4,295.5,0.5,95,136.0
1860,G#3,295.5,0.5,95,136.0
1861,E3,295.5,0.5,95,136.0
1862,G#4,295.5,0.5,95,136.0
1863,C#4,295.5,0.5,95,136.0
1864,C#4,296.0,0.5,95,136.0
1865,A1,296.0,1.5,95,136.0
1866,C#4,296.0,1.5,95,136.0
1867,G#3,296.0,1.5,95,136.0
1868,E3,296.0,1.5,95,136.0
1869,E-4,296.5,1.0,95,136.0
1870,B4,296.5,1.0,63,136.0
1871,C#4,296.5,0.5,63,136.0
1872,G#4,296.5,0.5,95,136.0
1873,C#4,296.5,0.5,95,136.0
1874,C#4,297.0,1.5,63,136.0
1875,E4,297.5,1.0,95,136.0
1876,G#4,297.5,0.5,63,136.0
1877,G#1,297.5,0.25,79,136.0
1878,E-4,297.5,2.5,95,136.0
1879,B3,297.5,2.5,95,136.0
1880,F#3,297.5,2.5,95,136.0
1881,F#4,297.5,0.5,95,136.0
1882,E-4,297.5,0.5,95,136.0
1883,B3,297.5,0.5,95,136.0
1884,G#1,297.75,0.25,95,136.0
1885,G#4,298.0,0.5,63,136.0
1886,B1,298.0,0.75,95,136.0
1887,E4,298.5,0.5,95,136.0
1888,E-4,298.5,2.5,63,136.0
1889,E-4,298.5,0.5,95,136.0
1890,B3,298.5,0.5,95,136.0
1891,B1,298.75,0.75,95,136.0
1892,G#4,299.0,0.5,95,136.0
1893,G#4,299.5,0.5,95,136.0
1894,G#1,299.5,0.25,95,136.0
1895,E4,299.5,0.25,95,136.0
1896,C#4,299.5,0.25,95,136.0
1897,G#4,300.0,4.0,95,136.0
1898,E4,300.5,1.0,95,136.0
1899,C#4,300.5,1.0,95,136.0
1900,G#3,300.5,1.0,95,136.0
1901,E-4,300.5,0.5,95,136.0
1902,B3,300.5,0.5,95,136.0
1903,C#2,300.75,0.25,95,136.0
1904,E4,301.0,1.5,63,136.0
1905,G#1,301.0,0.5,63,136.0
1906,G#1,301.5,0.5,95,136.0
1907,E-4,301.5,1.0,95,136.0
1908,B3,301.5,1.0,95,136.0
1909,G#3,301.5,1.0,95,136.0
1910,C#4,301.5,0.5,95,136.0
1911,B-3,301.5,0.5,95,136.0
1912,B1,302.0,0.5,95,136.0
1913,G#4,302.5,0.5,63,136.0
1914,F#4,302.5,2.0,63,136.0
1915,E2,302.5,0.5,95,136.0
1916,B3,302.5,1.0,95,136.0
1917,G#3,302.5,1.0,95,136.0
1918,C#4,302.5,0.5,95,136.0
1919,B-3,302.5,0.5,95,136.0
1920,B4,303.0,0.5,79,136.0
1921,B1,303.0,0.5,95,136.0
1922,F#4,303.5,1.0,63,136.0
1923,A1,303.5,0.5,95,136.0
1924,C#4,303.5,0.5,95,136.0
1925,G#3,303.5,0.5,95,136.0
1926,E3,303.5,0.5,95,136.0
1927,E-4,303.5,0.5,95,136.0
1928,B3,303.5,0.5,95,136.0
1929,G#4,304.0,1.5,95,136.0
1930,A1,304.0,1.5,95,136.0
1931,C#4,304.0,1.5,95,136.0
1932,G#3,304.0,1.5,95,136.0
1933,E3,304.0,1.5,95,136.0
1934,B4,304.5,1.0,63,136.0
1935,G#4,304.5,0.5,63,136.0
1936,E-4,304.5,0.5,95,136.0
1937,B3,304.5,0.5,95,136.0
1938,G#4,305.0,1.5,63,136.0
1939,C#4,305.5,1.0,95,136.0
1940,G#4,305.5,0.5,63,136.0
1941,E-4,305.5,2.5,95,136.0
1942,B3,305.5,2.5,95,136.0
1943,F#3,305.5,2.5,95,136.0
1944,C#4,305.5,0.5,95,136.0
1945,B-3,305.5,0.5,95,136.0
1946,B2,305.5,0.25,79,136.0
1947,B1,305.5,0.25,79,136.0
1948,G#1,305.75,0.25,95,136.0
1949,G#4,306.0,0.5,63,136.0
1950,B2,306.0,0.75,79,136.0
1951,B1,306.0,0.75,79,136.0
1952,F#4,306.5,0.5,95,136.0
1953,F#4,306.5,2.0,63,136.0
1954,C#4,306.5,0.5,95,136.0
1955,B-3,306.5,0.5,95,136.0
1956,B1,306.75,0.75,95,136.0
1957,E4,307.0,0.5,95,136.0
1958,E-4,307.5,0.5,95,136.0
1959,E-4,307.5,0.25,95,136.0
1960,B3,307.5,0.25,95,136.0
1961,C#3,307.5,0.25,79,136.0
1962,G#1,307.5,0.25,79,136.0
1963,C#4,308.0,0.5,95,136.0
1964,E-4,308.5,2.0,95,136.0
1965,G#4,308.5,0.25,63,136.0
1966,E4,308.5,1.0,95,136.0
1967,C#4,308.5,1.0,95,136.0
1968,G#3,308.5,1.0,95,136.0
1969,E-4,308.5,0.5,95,136.0
1970,B3,308.5,0.5,95,136.0
1971,C#2,308.75,0.25,95,136.0
1972,G#1,309.0,0.5,63,136.0
1973,G#1,309.5,0.5,95,136.0
1974,E-4,309.5,1.0,95,136.0
1975,B3,309.5,1.0,95,136.0
1976,G#3,309.5,1.0,95,136.0
1977,C#4,309.5,0.5,95,136.0
1978,B-3,309.5,0.5,95,136.0
1979,B1,310.0,0.5,95,136.0
1980,G#3,310.5,0.5,95,136.0
1981,G#4,310.5,0.5,63,136.0
1982,C#2,310.5,0.5,95,136.0
1983,B3,310.5,1.0,95,136.0
1984,G#3,310.5,1.0,95,136.0
1985,C#4,310.5,0.5,95,136.0
1986,B-3,310.5,0.5,95,136.0
1987,F#3,311.0,0.5,95,136.0
1988,B4,311.0,0.5,79,136.0
1989,B1,311.0,0.5,95,136.0
1990,G#3,311.5,0.5,95,136.0
1991,F#4,311.5,1.0,63,136.0
1992,A1,311.5,0.5,95,136.0
1993,C#4,311.5,0.5,95,136.0
1994,G#3,311.5,0.5,95,136.0
1995,E3,311.5,0.5,95,136.0
1996,E-4,311.5,0.5,95,136.0
1997,B3,311.5,0.5,95,136.0
1998,G#3,312.0,2.0,95,136.0
1999,A1,312.0,1.5,95,136.0
2000,C#4,312.0,1.5,95,136.0
2001,G#3,312.0,1.5,95,136.0
2002,E3,312.0,1.5,95,136.0
2003,B4,312.5,1.0,63,136.0
2004,B3,312.5,0.5,63,136.0
2005,E-4,312.5,0.5,95,136.0
2006,B3,312.5,0.5,95,136.0
2007,B-3,313.0,0.5,79,136.0
2008,G#4,313.5,0.5,63,136.0
2009,B3,313.5,0.5,95,136.0
2010,G#1,313.5,0.25,79,136.0
2011,E-4,313.5,2.5,95,136.0
2012,B3,313.5,2.5,95,136.0
2013,F#3,313.5,2.5,95,136.0
2014,F#4,313.5,0.5,95,136.0
2015,C#4,313.5,0.5,95,136.0
2016,B-3,313.5,0.5,95,136.0
2017,G#1,313.75,0.25,95,136.0
2018,G#4,314.0,0.5,63,136.0
2019,F#4,314.0,0.5,95,136.0
2020,B1,314.0,0.75,95,136.0
2021,C#4,314.5,1.0,79,136.0
2022,E-4,314.5,0.5,95,136.0
2023,B-3,314.5,0.5,95,136.0
2024,B1,314.75,0.75,95,136.0
2025,B3,315.5,1.0,63,136.0
2026,G#1,315.5,0.25,95,136.0
2027,G#4,315.5,0.25,95,136.0
2028,E-4,315.5,0.25,95,136.0
2029,B3,315.5,0.25,95,136.0
2030,E4,316.5,1.0,95,136.0
2031,C#4,316.5,1.0,95,136.0
2032,G#3,316.5,1.0,95,136.0
2033,E-4,316.5,0.5,95,136.0
2034,B3,316.5,0.5,95,136.0
2035,C#2,316.75,0.25,95,136.0
2036,B-3,317.0,0.5,95,136.0
2037,G#1,317.0,0.5,63,136.0
2038,B3,317.5,0.5,95,136.0
2039,G#1,317.5,0.5,95,136.0
2040,E-4,317.5,1.0,95,136.0
2041,B3,317.5,1.0,95,136.0
2042,G#3,317.5,1.0,95,136.0
2043,C#4,317.5,0.5,95,136.0
2044,B-3,317.5,0.5,95,136.0
2045,B1,318.0,0.5,95,136.0
2046,E-4,318.5,0.5,95,136.0
2047,G#4,318.5,0.5,63,136.0
2048,E2,318.5,0.5,95,136.0
2049,B3,318.5,1.0,95,136.0
2050,G#3,318.5,1.0,95,136.0
2051,C#4,318.5,0.5,95,136.0
2052,B-3,318.5,0.5,95,136.0
2053,B4,319.0,0.5,79,136.0
2054,B1,319.0,0.5,95,136.0
2055,G#4,319.5,0.5,95,136.0
2056,F#4,319.5,1.0,63,136.0
2057,A1,319.5,0.5,95,136.0
2058,C#4,319.5,0.5,95,136.0
2059,G#3,319.5,0.5,95,136.0
2060,E3,319.5,0.5,95,136.0
2061,E-4,319.5,0.5,95,136.0
2062,B3,319.5,0.5,95,136.0
2063,G#4,320.0,0.5,95,136.0
2064,A1,320.0,1.5,95,136.0
2065,C#4,320.0,1.5,95,136.0
2066,G#3,320.0,1.5,95,136.0
2067,E3,320.0,1.5,95,136.0
2068,G#4,320.5,1.0,95,136.0
2069,B4,320.5,1.0,63,136.0
2070,E-4,320.5,0.5,95,136.0
2071,B3,320.5,0.5,95,136.0
2072,B-3,321.0,0.5,63,136.0
2073,G#4,321.5,1.0,95,136.0
2074,G#4,321.5,0.5,63,136.0
2075,B3,321.5,0.5,63,136.0
2076,E-4,321.5,2.5,95,136.0
2077,B3,321.5,2.5,95,136.0
2078,F#3,321.5,2.5,95,136.0
2079,C#4,321.5,0.5,95,136.0
2080,B-3,321.5,0.5,95,136.0
2081,B2,321.5,0.25,79,136.0
2082,B1,321.5,0.25,79,136.0
2083,G#1,321.75,0.25,95,136.0
2084,G#4,322.0,0.5,63,136.0
2085,F#4,322.0,0.5,63,136.0
2086,B2,322.0,0.75,79,136.0
2087,B1,322.0,0.75,79,136.0
2088,F#4,322.5,1.0,95,136.0
2089,C#4,322.5,1.0,63,136.0
2090,C#4,322.5,0.5,95,136.0
2091,B-3,322.5,0.5,95,136.0
2092,B1,322.75,0.75,95,136.0
2093,E-4,323.5,0.5,95,136.0
2094,B3,323.5,1.0,63,136.0
2095,E-4,323.5,0.25,95,136.0
2096,B3,323.5,0.25,95,136.0
2097,C#3,323.5,0.25,79,136.0
2098,G#1,323.5,0.25,79,136.0
2099,C#4,324.0,0.5,79,136.0
2100,E-4,324.5,2.0,95,136.0
2101,E-4,324.5,1.0,95,136.0
2102,B3,324.5,1.0,95,136.0
2103,G#3,324.5,1.0,95,136.0
2104,E-4,324.5,0.5,95,136.0
2105,B3,324.5,0.5,95,136.0
2106,G#1,324.75,0.25,95,136.0
2107,E-2,325.0,0.5,63,136.0
2108,E-2,325.5,0.5,95,136.0
2109,C#4,325.5,1.0,95,136.0
2110,B-3,325.5,1.0,95,136.0
2111,F#3,325.5,1.0,95,136.0
2112,C#4,325.5,0.5,95,136.0
2113,B-3,325.5,0.5,95,136.0
2114,F#2,326.0,0.5,95,136.0
2115,E-4,326.5,0.5,95,136.0
2116,G#2,326.5,0.5,95,136.0
2117,B-3,326.5,1.0,95,136.0
2118,F#3,326.5,1.0,95,136.0
2119,C#4,326.5,0.5,95,136.0
2120,B-3,326.5,0.5,95,136.0
2121,F#4,327.0,0.5,95,136.0
2122,F#2,327.0,0.5,95,136.0
2123,G#4,327.5,0.5,95,136.0
2124,E2,327.5,0.5,95,136.0
2125,E-4,327.5,0.5,95,136.0
2126,B3,327.5,0.5,95,136.0
2127,G#3,327.5,0.5,95,136.0
2128,E-4,327.5,0.5,95,136.0
2129,B3,327.5,0.5,95,136.0
2130,G#4,328.0,0.5,95,136.0
2131,E2,328.0,1.5,95,136.0
2132,E-4,328.0,1.5,95,136.0
2133,B3,328.0,1.5,95,136.0
2134,G#3,328.0,1.5,95,136.0
2135,B-4,328.5,1.0,95,136.0
2136,E-4,328.5,0.5,95,136.0
2137,B3,328.5,0.5,95,136.0
2138,B-3,329.0,0.5,63,136.0
2139,B4,329.5,1.0,95,136.0
2140,B3,329.5,0.5,63,136.0
2141,E-2,329.5,0.25,95,136.0
2142,C#4,329.5,2.5,95,136.0
2143,B-3,329.5,2.5,95,136.0
2144,F#3,329.5,2.5,95,136.0
2145,F#4,329.5,0.5,95,136.0
2146,C#4,329.5,0.5,95,136.0
2147,B-3,329.5,0.5,95,136.0
2148,E-2,329.75,0.25,95,136.0
2149,F#4,330.0,0.5,63,136.0
2150,F#2,330.0,0.75,95,136.0
2151,C#5,330.5,0.5,95,136.0
2152,C#4,330.5,1.0,63,136.0
2153,E-4,330.5,0.5,95,136.0
2154,B-3,330.5,0.5,95,136.0
2155,F#2,330.75,0.75,95,136.0
2156,E-5,331.0,0.5,95,136.0
2157,E5,331.5,0.5,95,136.0
2158,B3,331.5,1.0,63,136.0
2159,E-2,331.5,0.25,95,136.0
2160,G#4,331.5,0.25,95,136.0
2161,E-4,331.5,0.25,95,136.0
2162,B3,331.5,0.25,95,136.0
2163,E5,331.5,0.5,95,136.0
2164,C#5,331.5,0.5,95,136.0
2165,G#4,331.5,0.5,95,136.0
2166,E5,332.0,0.5,95,136.0
2167,E-4,332.5,1.0,95,136.0
2168,B3,332.5,1.0,95,136.0
2169,G#3,332.5,1.0,95,136.0
2170,C#5,332.5,0.25,95,136.0
2171,G#4,332.5,0.25,95,136.0
2172,E4,332.5,0.25,95,136.0
2173,G#2,332.75,0.25,95,136.0
2174,E-2,333.0,0.5,63,136.0
2175,E-2,333.5,0.5,95,136.0
2176,C#4,333.5,1.0,95,136.0
2177,B-3,333.5,1.0,95,136.0
2178,F#3,333.5,1.0,95,136.0
2179,E-5,333.5,1.5,95,136.0
2180,B4,333.5,1.5,95,136.0
2181,F#4,333.5,1.5,95,136.0
2182,F#2,334.0,0.5,95,136.0
2183,C#5,334.5,0.5,95,136.0
2184,B2,334.5,0.5,95,136.0
2185,B-3,334.5,1.0,95,136.0
2186,F#3,334.5,1.0,95,136.0
2187,E-5,335.0,0.5,95,136.0
2188,F#2,335.0,0.5,95,136.0
2189,E5,335.5,0.5,95,136.0
2190,E2,335.5,0.5,95,136.0
2191,E-4,335.5,0.5,95,136.0
2192,B3,335.5,0.5,95,136.0
2193,G#3,335.5,0.5,95,136.0
2194,E5,335.5,0.5,95,136.0
2195,C#5,335.5,0.5,95,136.0
2196,G#4,335.5,0.5,95,136.0
2197,E5,336.0,0.5,95,136.0
2198,E2,336.0,1.5,95,136.0
2199,E-4,336.0,1.5,95,136.0
2200,B3,336.0,1.5,95,136.0
2201,G#3,336.0,1.5,95,136.0
2202,F#5,336.5,0.5,95,136.0
2203,E5,337.0,0.5,95,136.0
2204,B-3,337.0,0.5,63,136.0
2205,E-5,337.5,1.0,95,136.0
2206,B3,337.5,0.5,63,136.0
2207,F#2,337.5,0.25,95,136.0
2208,C#4,337.5,2.5,95,136.0
2209,B-3,337.5,2.5,95,136.0
2210,F#3,337.5,2.5,95,136.0
2211,E-5,337.5,0.5,95,136.0
2212,B4,337.5,0.5,95,136.0
2213,F#4,337.5,0.5,95,136.0
2214,E-2,337.75,0.25,95,136.0
2215,F#4,338.0,0.5,63,136.0
2216,F#2,338.0,0.75,95,136.0
2217,B4,338.5,0.5,95,136.0
2218,C#4,338.5,1.0,63,136.0
2219,B4,338.5,0.5,95,136.0
2220,F#4,338.5,0.5,95,136.0
2221,F#2,338.75,0.75,95,136.0
2222,C#5,339.0,0.25,79,136.0
2223,E5,339.25,0.25,95,136.0
2224,C#5,339.5,0.5,95,136.0
2225,B3,339.5,1.0,63,136.0
2226,E-2,339.5,0.25,95,136.0
2227,C#5,339.5,0.5,95,136.0
2228,G#4,339.5,0.5,95,136.0
2229,E4,339.5,0.5,95,136.0
2230,C#5,340.0,0.5,95,136.0
2231,C#5,340.0,0.5,95,136.0
2232,G#4,340.0,0.5,95,136.0
2233,E4,340.0,0.5,95,136.0
2234,B4,340.5,0.5,95,136.0
2235,E-4,340.5,1.0,95,136.0
2236,B3,340.5,1.0,95,136.0
2237,G#3,340.5,1.0,95,136.0
2238,G#2,340.75,0.25,95,136.0
2239,G#4,341.0,0.5,95,136.0
2240,E-2,341.0,0.5,63,136.0
2241,F#4,341.5,1.0,95,136.0
2242,E-2,341.5,0.5,95,136.0
2243,C#4,341.5,1.0,95,136.0
2244,B-3,341.5,1.0,95,136.0
2245,F#3,341.5,1.0,95,136.0
2246,F#2,342.0,0.5,95,136.0
2247,E4,342.5,0.5,95,136.0
2248,G#2,342.5,0.5,95,136.0
2249,B-3,342.5,1.0,95,136.0
2250,F#3,342.5,1.0,95,136.0
2251,E-4,343.0,0.5,95,136.0
2252,F#2,343.0,0.5,95,136.0
2253,E4,343.5,0.5,95,136.0
2254,E2,343.5,0.5,95,136.0
2255,E-4,343.5,0.5,95,136.0
2256,B3,343.5,0.5,95,136.0
2257,G#3,343.5,0.5,95,136.0
2258,E4,344.0,0.5,95,136.0
2259,E2,344.0,1.5,95,136.0
2260,E-4,344.0,1.5,95,136.0
2261,B3,344.0,1.5,95,136.0
2262,G#3,344.0,1.5,95,136.0
2263,E-2,345.5,0.25,79,136.0
2264,C#4,345.5,2.5,95,136.0
2265,B-3,345.5,2.5,95,136.0
2266,F#3,345.5,2.5,95,136.0
2267,E-2,345.75,0.25,95,136.0
2268,F#2,346.0,0.75,95,136.0
2269,F#2,346.75,0.75,95,136.0
2270,E-2,347.5,0.25,95,136.0
2271,B4,348.5,0.5,95,136.0
2272,E-4,348.5,1.0,95,136.0
2273,B3,348.5,1.0,95,136.0
2274,G#3,348.5,1.0,95,136.0
2275,G#2,348.75,0.25,95,136.0
2276,A4,349.0,0.5,95,136.0
2277,E-2,349.0,0.5,63,136.0
2278,G#4,349.5,1.0,95,136.0
2279,E-2,349.5,0.5,95,136.0
2280,C#4,349.5,1.0,95,136.0
2281,B-3,349.5,1.0,95,136.0
2282,F#3,349.5,1.0,95,136.0
2283,F#2,350.0,0.5,95,136.0
2284,F#4,350.5,1.0,95,136.0
2285,B2,350.5,0.5,95,136.0
2286,B-3,350.5,1.0,95,136.0
2287,F#3,350.5,1.0,95,136.0
2288,F#2,351.0,0.5,95,136.0
2289,B4,351.5,0.5,95,136.0
2290,E2,351.5,0.5,95,136.0
2291,E-4,351.5,0.5,95,136.0
2292,B3,351.5,0.5,95,136.0
2293,G#3,351.5,0.5,95,136.0
2294,B4,351.5,0.5,95,136.0
2295,F#4,351.5,0.5,95,136.0
2296,E-4,351.5,0.5,95,136.0
2297,B4,352.0,0.5,95,136.0
2298,E2,352.0,1.5,95,136.0
2299,E-4,352.0,1.5,95,136.0
2300,B3,352.0,1.5,95,136.0
2301,G#3,352.0,1.5,95,136.0
2302,B4,352.0,0.5,95,136.0
2303,F#4,352.0,0.5,95,136.0
2304,E-4,352.0,0.5,95,136.0
2305,C#5,352.5,0.5,95,136.0
2306,C#5,352.5,0.5,95,136.0
2307,B4,352.5,0.5,95,136.0
2308,F#4,352.5,0.5,95,136.0
2309,E-5,353.0,0.5,95,136.0
2310,E-5,353.0,0.5,95,136.0
2311,B4,353.0,0.5,95,136.0
2312,F#4,353.0,0.5,95,136.0
2313,E5,353.5,0.5,95,136.0
2314,F#2,353.5,0.25,95,136.0
2315,C#4,353.5,2.0,95,136.0
2316,B-3,353.5,2.0,95,136.0
2317,F#3,353.5,2.0,95,136.0
2318,E5,353.5,0.5,95,136.0
2319,C#5,353.5,0.5,95,136.0
2320,G#4,353.5,0.5,95,136.0
2321,E-2,353.75,0.25,95,136.0
2322,F#2,354.0,0.75,95,136.0
2323,C#4,354.5,0.5,95,136.0
2324,F#2,354.75,0.75,95,136.0
2325,E-4,355.0,0.5,95,136.0
2326,E4,355.5,0.5,95,136.0
2327,C#4,355.5,0.5,95,136.0
2328,A1,355.5,0.5,95,136.0
2329,G#4,355.5,0.5,95,136.0
2330,E4,355.5,0.5,95,136.0
2331,A3,355.5,0.5,95,136.0
2332,C#6,355.5,0.5,79,136.0
2333,C#5,355.5,0.5,79,136.0
2334,E4,356.0,0.5,95,136.0
2335,C#4,356.0,0.5,95,136.0
2336,A1,356.0,0.5,95,136.0
2337,G#4,356.0,0.75,95,136.0
2338,E4,356.0,0.75,95,136.0
2339,A3,356.0,0.75,95,136.0
2340,E-6,356.0,0.5,79,136.0
2341,E-5,356.0,0.5,79,136.0
2342,C#4,356.5,0.25,95,136.0
2343,E6,356.5,0.5,95,136.0
2344,E5,356.5,0.5,63,136.0
2345,C#3,356.5,0.5,63,136.0
2346,A1,356.5,0.5,95,136.0
2347,E6,357.0,0.5,95,136.0
2348,G#3,357.0,0.5,63,136.0
2349,A1,357.0,0.5,95,136.0
2350,C#3,357.5,0.5,63,136.0
2351,B1,357.5,2.0,95,136.0
2352,G#4,357.5,0.5,95,136.0
2353,E4,357.5,0.5,95,136.0
2354,C#4,357.5,0.5,95,136.0
2355,A3,357.5,0.5,95,136.0
2356,F#4,357.5,1.0,95,136.0
2357,E-4,357.5,1.0,95,136.0
2358,B3,357.5,1.0,95,136.0
2359,G#6,357.5,1.0,79,136.0
2360,G#5,357.5,1.0,79,136.0
2361,A3,358.0,0.5,63,136.0
2362,G#4,358.0,0.75,95,136.0
2363,E4,358.0,0.75,95,136.0
2364,C#4,358.0,0.75,95,136.0
2365,A3,358.0,0.75,95,136.0
2366,E4,358.5,0.5,95,136.0
2367,C#4,358.5,0.5,95,136.0
2368,C#3,358.5,0.5,63,136.0
2369,F#6,358.5,1.0,79,136.0
2370,F#5,358.5,1.0,79,136.0
2371,F#4,359.0,0.5,95,136.0
2372,E-4,359.0,0.5,95,136.0
2373,B2,359.0,0.5,63,136.0
2374,G#4,359.5,0.5,95,136.0
2375,C#3,359.5,0.5,63,136.0
2376,C#2,359.5,0.5,95,136.0
2377,F#4,359.5,2.0,95,136.0
2378,E-4,359.5,2.0,95,136.0
2379,B3,359.5,2.0,95,136.0
2380,G#4,359.5,0.5,95,136.0
2381,E4,359.5,0.5,95,136.0
2382,C#4,359.5,0.5,95,136.0
2383,B6,359.5,1.0,79,136.0
2384,B5,359.5,1.0,79,136.0
2385,G#4,360.0,0.5,95,136.0
2386,C#3,360.0,1.0,63,136.0
2387,C#2,360.0,1.5,95,136.0
2388,G#4,360.0,0.5,95,136.0
2389,E4,360.0,0.5,95,136.0
2390,C#4,360.0,0.5,95,136.0
2391,A4,360.5,0.5,95,136.0
2392,C#4,360.5,0.25,95,136.0
2393,E6,360.5,0.5,79,136.0
2394,E5,360.5,0.5,79,136.0
2395,G#4,361.0,0.5,95,136.0
2396,E3,361.0,0.5,63,136.0
2397,F#4,361.5,1.0,95,136.0
2398,B2,361.5,1.0,63,136.0
2399,B1,361.5,0.5,95,136.0
2400,G#4,361.5,0.5,95,136.0
2401,E4,361.5,0.5,95,136.0
2402,C#4,361.5,0.5,95,136.0
2403,F#4,361.5,1.0,95,136.0
2404,E-4,361.5,1.0,95,136.0
2405,B3,361.5,1.0,95,136.0
2406,G#4,362.0,1.5,95,136.0
2407,E4,362.0,1.5,95,136.0
2408,C#4,362.0,1.5,95,136.0
2409,B3,362.5,0.25,95,136.0
2410,G#1,362.5,0.5,95,136.0
2411,A1,363.5,0.5,95,136.0
2412,F#4,363.5,2.0,95,136.0
2413,E-4,363.5,2.0,95,136.0
2414,B3,363.5,2.0,95,136.0
2415,G#4,363.5,0.5,95,136.0
2416,E4,363.5,0.5,95,136.0
2417,A3,363.5,0.5,95,136.0
2418,F4,364.0,1.5,95,136.0
2419,A1,364.0,1.5,95,136.0
2420,G#4,364.0,0.5,95,136.0
2421,E4,364.0,0.5,95,136.0
2422,A3,364.0,0.5,95,136.0
2423,C#4,364.5,0.5,95,136.0
2424,C4,364.5,0.5,95,136.0
2425,G#3,364.5,0.5,95,136.0
2426,F#4,365.5,2.5,95,136.0
2427,E-4,365.5,1.0,95,136.0
2428,B3,365.5,2.0,95,136.0
2429,C4,365.5,2.5,95,136.0
2430,B1,365.5,2.0,95,136.0
2431,G#4,365.5,0.5,95,136.0
2432,E4,365.5,0.5,95,136.0
2433,A3,365.5,0.5,95,136.0
2434,B-3,365.5,0.5,95,136.0
2435,G3,365.5,0.5,95,136.0
2436,E4,366.5,0.5,95,136.0
2437,B-3,366.5,0.5,95,136.0
2438,G3,366.5,0.5,95,136.0
2439,E-4,367.0,0.5,95,136.0
2440,C#2,367.5,0.5,95,136.0
2441,G#4,367.5,1.5,95,136.0
2442,E4,367.5,1.5,95,136.0
2443,A3,367.5,1.5,95,136.0
2444,C#4,367.5,0.5,95,136.0
2445,G#3,367.5,0.5,95,136.0
2446,C4,367.5,0.5,95,136.0
2447,G#3,367.5,0.5,95,136.0
2448,C4,368.0,1.5,95,136.0
2449,C#2,368.0,0.5,95,136.0
2450,C#4,368.0,0.5,95,136.0
2451,G#3,368.0,0.5,95,136.0
2452,G#1,368.5,0.5,95,136.0
2453,G#4,368.5,1.0,95,136.0
2454,E4,368.5,1.0,95,136.0
2455,C#4,368.5,1.0,95,136.0
2456,C4,368.5,0.5,95,136.0
2457,G#3,368.5,0.5,95,136.0
2458,C#2,369.0,0.5,95,136.0
2459,F#4,369.0,2.0,95,136.0
2460,E-4,369.0,2.0,95,136.0
2461,B3,369.0,2.0,95,136.0
2462,F#4,369.5,1.0,95,136.0
2463,G#3,369.5,1.0,95,136.0
2464,E2,369.5,0.5,95,136.0
2465,E-4,369.5,2.0,95,136.0
2466,B3,369.5,2.0,95,136.0
2467,B-3,369.5,0.5,95,136.0
2468,G3,369.5,0.5,95,136.0
2469,E-2,370.0,0.5,95,136.0
2470,B4,370.5,1.0,95,136.0
2471,B-3,370.5,1.0,95,136.0
2472,B1,370.5,0.5,95,136.0
2473,B-3,370.5,0.5,95,136.0
2474,G3,370.5,0.5,95,136.0
2475,E1,371.0,0.5,95,136.0
2476,C#4,371.0,0.5,95,136.0
2477,G#3,371.0,0.5,95,136.0
2478,C#4,371.5,0.5,95,136.0
2479,G#3,371.5,0.5,95,136.0
2480,A1,371.5,0.5,95,136.0
2481,G#4,371.5,0.5,95,136.0
2482,E4,371.5,0.5,95,136.0
2483,A3,371.5,0.5,95,136.0
2484,C4,371.5,0.25,95,136.0
2485,G#3,371.5,0.25,95,136.0
2486,C#4,372.0,0.5,95,136.0
2487,B-3,372.0,1.0,95,136.0
2488,A1,372.0,0.5,95,136.0
2489,C#4,372.0,0.5,95,136.0
2490,G#3,372.0,0.5,95,136.0
2491,G#4,372.0,0.75,95,136.0
2492,E4,372.0,0.75,95,136.0
2493,A3,372.0,0.75,95,136.0
2494,C#4,372.5,0.25,95,136.0
2495,A1,372.5,0.5,95,136.0
2496,G#4,372.5,1.0,95,136.0
2497,E4,372.5,1.0,95,136.0
2498,C#4,372.5,1.0,95,136.0
2499,C4,372.5,0.5,95,136.0
2500,G#3,372.5,0.5,95,136.0
2501,C#4,373.0,0.5,95,136.0
2502,A1,373.0,0.5,95,136.0
2503,F#4,373.5,1.0,95,136.0
2504,F#3,373.5,1.0,95,136.0
2505,B1,373.5,0.5,95,136.0
2506,E-4,373.5,2.0,95,136.0
2507,B3,373.5,2.0,95,136.0
2508,F#4,373.5,1.0,95,136.0
2509,E-4,373.5,1.0,95,136.0
2510,B3,373.5,1.0,95,136.0
2511,B-3,373.5,0.5,95,136.0
2512,G3,373.5,0.5,95,136.0
2513,B1,374.0,0.5,95,136.0
2514,B4,374.5,1.0,95,136.0
2515,E4,374.5,0.5,95,136.0
2516,G3,374.5,0.5,95,136.0
2517,B1,374.5,0.5,95,136.0
2518,B-3,374.5,0.5,95,136.0
2519,G3,374.5,0.5,95,136.0
2520,E-3,375.0,0.5,95,136.0
2521,B1,375.0,0.5,95,136.0
2522,F3,375.5,0.5,95,136.0
2523,G#1,375.5,0.5,95,136.0
2524,G#4,375.5,0.5,95,136.0
2525,E4,375.5,0.5,95,136.0
2526,C#4,375.5,0.5,95,136.0
2527,A3,375.5,0.5,95,136.0
2528,F#4,375.5,0.5,95,136.0
2529,E-4,375.5,0.5,95,136.0
2530,B3,375.5,0.5,95,136.0
2531,C4,375.5,0.5,95,136.0
2532,G#3,375.5,0.5,95,136.0
2533,F3,376.0,1.0,95,136.0
2534,G#1,376.0,0.5,95,136.0
2535,G#4,376.0,1.5,95,136.0
2536,E4,376.0,1.5,95,136.0
2537,C#4,376.0,1.5,95,136.0
2538,A3,376.0,1.5,95,136.0
2539,F#4,376.0,0.5,95,136.0
2540,E-4,376.0,0.5,95,136.0
2541,B3,376.0,0.5,95,136.0
2542,C#4,376.5,0.5,95,136.0
2543,G#1,376.5,0.5,95,136.0
2544,C4,376.5,0.5,95,136.0
2545,G#3,376.5,0.5,95,136.0
2546,E-4,377.0,0.5,95,136.0
2547,F#1,377.0,0.5,95,136.0
2548,G4,377.0,4.0,63,136.0
2549,E-4,377.0,4.0,63,136.0
2550,C4,377.0,4.0,63,136.0
2551,A1,377.5,1.0,95,136.0
2552,F#4,377.5,2.0,95,136.0
2553,E-4,377.5,2.0,95,136.0
2554,B3,377.5,2.0,95,136.0
2555,G#4,377.5,1.0,95,136.0
2556,E4,377.5,1.0,95,136.0
2557,C#4,377.5,1.0,95,136.0
2558,A3,377.5,1.0,95,136.0
2559,E-4,377.5,0.5,95,136.0
2560,B-3,377.5,0.5,95,136.0
2561,G3,377.5,0.5,95,136.0
2562,C#4,378.5,0.5,95,136.0
2563,A1,378.5,0.5,95,136.0
2564,C4,378.5,0.5,95,136.0
2565,B-3,378.5,0.5,95,136.0
2566,G3,378.5,0.5,95,136.0
2567,E-4,379.0,0.5,95,136.0
2568,G#1,379.0,0.5,95,136.0
2569,F#1,379.5,0.5,95,136.0
2570,F#4,379.5,0.5,95,136.0
2571,E-4,379.5,0.5,95,136.0
2572,B3,379.5,0.5,95,136.0
2573,G#4,379.5,0.5,95,136.0
2574,E4,379.5,0.5,95,136.0
2575,C#4,379.5,0.5,95,136.0
2576,F4,379.5,0.25,95,136.0
2577,C4,379.5,0.25,95,136.0
2578,G#3,379.5,0.25,95,136.0
2579,F#1,380.0,0.5,95,136.0
2580,F#4,380.0,1.5,95,136.0
2581,E-4,380.0,1.5,95,136.0
2582,B3,380.0,1.5,95,136.0
2583,G#4,380.0,2.0,95,136.0
2584,E4,380.0,2.0,95,136.0
2585,C#4,380.0,2.0,95,136.0
2586,F#1,380.5,0.5,95,136.0
2587,C4,380.5,0.5,95,136.0
2588,G#3,380.5,0.5,95,136.0
2589,F4,380.75,0.75,95,136.0
2590,F#1,381.0,0.5,95,136.0
2591,B-4,381.5,0.5,95,136.0
2592,F#1,381.5,0.5,95,136.0
2593,G#4,381.5,2.0,95,136.0
2594,E4,381.5,2.0,95,136.0
2595,C#4,381.5,2.0,95,136.0
2596,A3,381.5,2.0,95,136.0
2597,B-3,381.5,0.5,95,136.0
2598,G3,381.5,0.5,95,136.0
2599,E-4,382.0,0.75,95,136.0
2600,F#1,382.0,0.5,95,136.0
2601,E4,382.5,0.5,95,136.0
2602,F#1,382.5,0.5,95,136.0
2603,B-3,382.5,0.5,95,136.0
2604,G3,382.5,0.5,95,136.0
2605,F4,382.75,0.25,63,136.0
2606,F#4,383.0,0.5,95,136.0
2607,G4,383.0,0.5,95,136.0
2608,G#1,383.0,0.5,95,136.0
2609,G#4,383.5,0.5,95,136.0
2610,E-5,383.5,0.5,95,136.0
2611,A1,383.5,0.5,95,136.0
2612,G#4,383.5,0.5,95,136.0
2613,E4,383.5,0.5,95,136.0
2614,C#4,383.5,0.5,95,136.0
2615,E4,383.5,0.5,95,136.0
2616,C#4,383.5,0.5,95,136.0
2617,C4,383.5,0.5,95,136.0
2618,G#3,383.5,0.5,95,136.0
2619,G#4,384.0,0.5,95,136.0
2620,B-4,384.0,1.5,95,136.0
2621,A1,384.0,1.0,95,136.0
2622,G#4,384.0,2.5,95,136.0
2623,E4,384.0,2.5,95,136.0
2624,C#4,384.0,2.5,95,136.0
2625,E4,384.0,1.5,95,136.0
2626,C#4,384.0,1.5,95,136.0
2627,A4,384.5,0.5,95,136.0
2628,C4,384.5,0.5,95,136.0
2629,G#3,384.5,0.5,95,136.0
2630,G#4,385.0,0.5,95,136.0
2631,C#2,385.0,0.5,95,136.0
2632,B-4,385.5,0.25,95,136.0
2633,B1,385.5,1.0,95,136.0
2634,F#4,385.5,1.0,95,136.0
2635,B3,385.5,1.0,95,136.0
2636,B-3,385.5,0.5,95,136.0
2637,G3,385.5,0.5,95,136.0
2638,G#4,385.75,0.25,95,136.0
2639,G4,386.0,0.75,95,136.0
2640,E4,386.5,0.5,95,136.0
2641,G#1,386.5,0.5,95,136.0
2642,B-3,386.5,0.5,95,136.0
2643,G3,386.5,0.5,95,136.0
2644,G4,386.75,0.75,95,136.0
2645,F#4,387.0,0.5,95,136.0
2646,B1,387.0,0.5,95,136.0
2647,G#4,387.5,0.5,95,136.0
2648,G#4,387.5,0.5,95,136.0
2649,C#2,387.5,0.5,95,136.0
2650,E4,387.5,0.5,95,136.0
2651,C#4,387.5,0.5,95,136.0
2652,C4,387.5,0.25,95,136.0
2653,G#3,387.5,0.25,95,136.0
2654,G#4,388.0,0.5,95,136.0
2655,F5,388.0,1.0,95,136.0
2656,E4,388.0,1.5,95,136.0
2657,C#4,388.0,1.5,95,136.0
2658,A4,388.5,0.5,95,136.0
2659,C4,388.5,1.0,95,136.0
2660,G#3,388.5,1.0,95,136.0
2661,F3,388.5,1.0,95,136.0
2662,C4,388.5,0.5,95,136.0
2663,G#3,388.5,0.5,95,136.0
2664,F1,388.75,0.25,95,136.0
2665,G#4,389.0,0.5,95,136.0
2666,E-5,389.0,0.5,95,136.0
2667,C2,389.0,0.5,63,136.0
2668,C5,389.5,0.5,95,136.0
2669,C2,389.5,0.5,95,136.0
2670,F#4,389.5,1.0,95,136.0
2671,B3,389.5,1.0,95,136.0
2672,B-3,389.5,1.0,95,136.0
2673,G3,389.5,1.0,95,136.0
2674,E-3,389.5,1.0,95,136.0
2675,B-3,389.5,0.5,95,136.0
2676,G3,389.5,0.5,95,136.0
2677,G4,390.0,0.5,95,136.0
2678,E-2,390.0,0.5,95,136.0
2679,G#4,390.5,0.25,95,136.0
2680,F2,390.5,0.5,95,136.0
2681,G3,390.5,1.0,95,136.0
2682,E-3,390.5,1.0,95,136.0
2683,B-3,390.5,0.5,95,136.0
2684,G3,390.5,0.5,95,136.0
2685,G4,390.75,0.25,95,136.0
2686,F4,391.0,0.5,95,136.0
2687,E-2,391.0,0.5,95,136.0
2688,F4,391.5,0.5,95,136.0
2689,C#2,391.5,0.5,95,136.0
2690,C4,391.5,0.5,95,136.0
2691,G#3,391.5,0.5,95,136.0
2692,F3,391.5,0.5,95,136.0
2693,C4,391.5,0.5,95,136.0
2694,G#3,391.5,0.5,95,136.0
2695,F4,392.0,0.5,95,136.0
2696,C#2,392.0,1.5,95,136.0
2697,C4,392.0,1.5,95,136.0
2698,G#3,392.0,1.5,95,136.0
2699,F3,392.0,1.5,95,136.0
2700,G4,392.5,1.0,95,136.0
2701,C4,392.5,0.5,95,136.0
2702,G#3,392.5,0.5,95,136.0
2703,G4,393.0,2.0,63,136.0
2704,E-4,393.0,2.0,63,136.0
2705,G#4,393.5,1.0,95,136.0
2706,C2,393.5,0.25,95,136.0
2707,B-3,393.5,2.5,95,136.0
2708,G3,393.5,2.5,95,136.0
2709,E-3,393.5,2.5,95,136.0
2710,E-4,393.5,0.5,95,136.0
2711,B-3,393.5,0.5,95,136.0
2712,G3,393.5,0.5,95,136.0
2713,C2,393.75,0.25,95,136.0
2714,E-2,394.0,0.75,95,136.0
2715,B-4,394.5,1.5,95,136.0
2716,C4,394.5,0.5,95,136.0
2717,B-3,394.5,0.5,95,136.0
2718,G3,394.5,0.5,95,136.0
2719,E-2,394.75,0.75,95,136.0
2720,C2,395.5,0.25,95,136.0
2721,F4,395.5,0.25,95,136.0
2722,C4,395.5,0.25,95,136.0
2723,G#3,395.5,0.25,95,136.0
2724,A4,396.0,1.5,95,136.0
2725,C4,396.5,1.0,95,136.0
2726,G#3,396.5,1.0,95,136.0
2727,F3,396.5,1.0,95,136.0
2728,C#4,396.5,0.5,95,136.0
2729,A3,396.5,0.5,95,136.0
2730,F2,396.75,0.25,95,136.0
2731,C2,397.0,0.5,63,136.0
2732,C#5,397.5,1.0,95,136.0
2733,C2,397.5,0.5,95,136.0
2734,B-3,397.5,1.0,95,136.0
2735,G3,397.5,1.0,95,136.0
2736,E-3,397.5,1.0,95,136.0
2737,B3,397.5,0.5,95,136.0
2738,G#3,397.5,0.5,95,136.0
2739,E-2,398.0,0.5,95,136.0
2740,E5,398.5,1.0,95,136.0
2741,G#2,398.5,0.5,95,136.0
2742,G3,398.5,1.0,95,136.0
2743,E-3,398.5,1.0,95,136.0
2744,B3,398.5,0.5,95,136.0
2745,G#3,398.5,0.5,95,136.0
2746,E-2,399.0,0.5,95,136.0
2747,E5,399.5,0.5,95,136.0
2748,C#2,399.5,0.5,95,136.0
2749,C4,399.5,0.5,95,136.0
2750,G#3,399.5,0.5,95,136.0
2751,F3,399.5,0.5,95,136.0
2752,C#4,399.5,0.5,95,136.0
2753,A3,399.5,0.5,95,136.0
2754,E5,400.0,0.5,95,136.0
2755,C#2,400.0,1.5,95,136.0
2756,C4,400.0,1.5,95,136.0
2757,G#3,400.0,1.5,95,136.0
2758,F3,400.0,1.5,95,136.0
2759,A5,400.5,1.0,95,136.0
2760,C#4,400.5,0.5,95,136.0
2761,A3,400.5,0.5,95,136.0
2762,C5,401.0,4.0,63,136.0
2763,B-4,401.0,4.0,63,136.0
2764,G4,401.0,4.0,63,136.0
2765,E-4,401.0,4.0,63,136.0
2766,A5,401.5,0.5,95,136.0
2767,E-2,401.5,0.25,95,136.0
2768,B-3,401.5,2.5,95,136.0
2769,G3,401.5,2.5,95,136.0
2770,E-3,401.5,2.5,95,136.0
2771,B3,401.5,0.5,95,136.0
2772,G#3,401.5,0.5,95,136.0
2773,C2,401.75,0.25,95,136.0
2774,A5,402.0,1.5,95,136.0
2775,E-2,402.0,0.75,95,136.0
2776,B3,402.5,0.5,95,136.0
2777,G#3,402.5,0.5,95,136.0
2778,E-2,402.75,0.75,95,136.0
2779,A5,403.5,0.5,95,136.0
2780,C2,403.5,0.25,95,136.0
2781,C#4,403.5,0.25,95,136.0
2782,A3,403.5,0.25,95,136.0
2783,G#5,404.0,1.0,95,136.0
2784,C4,404.5,1.0,95,136.0
2785,G#3,404.5,1.0,95,136.0
2786,F3,404.5,1.0,95,136.0
2787,C#4,404.5,0.5,95,136.0
2788,A3,404.5,0.5,95,136.0
2789,F2,404.75,0.25,95,136.0
2790,G5,405.0,0.5,95,136.0
2791,C2,405.0,0.5,63,136.0
2792,E5,405.5,1.0,95,136.0
2793,C2,405.5,0.5,95,136.0
2794,B-3,405.5,1.0,95,136.0
2795,G3,405.5,1.0,95,136.0
2796,E-3,405.5,1.0,95,136.0
2797,B3,405.5,0.5,95,136.0
2798,G#3,405.5,0.5,95,136.0
2799,E-2,406.0,0.5,95,136.0
2800,F#5,406.5,1.0,95,136.0
2801,F2,406.5,0.5,95,136.0
2802,G3,406.5,1.0,95,136.0
2803,E-3,406.5,1.0,95,136.0
2804,B3,406.5,0.5,95,136.0
2805,G#3,406.5,0.5,95,136.0
2806,E-2,407.0,0.5,95,136.0
2807,F#5,407.5,0.5,95,136.0
2808,C#2,407.5,0.5,95,136.0
2809,C4,407.5,0.5,95,136.0
2810,G#3,407.5,0.5,95,136.0
2811,F3,407.5,0.5,95,136.0
2812,C#4,407.5,0.5,95,136.0
2813,A3,407.5,0.5,95,136.0
2814,F#5,408.0,1.0,95,136.0
2815,C#2,408.0,1.5,95,136.0
2816,C4,408.0,1.5,95,136.0
2817,G#3,408.0,1.5,95,136.0
2818,F3,408.0,1.5,95,136.0
2819,C#4,408.5,0.5,95,136.0
2820,A3,408.5,0.5,95,136.0
2821,G#4,409.0,4.0,63,136.0
2822,E4,409.0,4.0,63,136.0
2823,C#4,409.0,4.0,63,136.0
2824,C2,409.5,0.25,79,136.0
2825,B-3,409.5,2.5,95,136.0
2826,G3,409.5,2.5,95,136.0
2827,E-3,409.5,2.5,95,136.0
2828,E4,409.5,0.5,95,136.0
2829,B3,409.5,0.5,95,136.0
2830,G#3,409.5,0.5,95,136.0
2831,C2,409.75,0.25,95,136.0
2832,E-2,410.0,0.75,95,136.0
2833,B3,410.5,0.5,95,136.0
2834,C#4,410.5,0.5,95,136.0
2835,G#3,410.5,0.5,95,136.0
2836,E5,410.75,0.25,95,136.0
2837,E-2,410.75,0.75,95,136.0
2838,B4,411.0,0.25,95,136.0
2839,E5,411.25,0.25,95,136.0
2840,C#5,411.5,0.5,95,136.0
2841,C2,411.5,0.25,95,136.0
2842,F#4,411.5,0.25,95,136.0
2843,C#4,411.5,0.25,95,136.0
2844,A3,411.5,0.25,95,136.0
2845,C#5,412.0,0.25,95,136.0
2846,B4,412.25,0.25,95,136.0
2847,A4,412.5,0.25,95,136.0
2848,C4,412.5,1.0,95,136.0
2849,G#3,412.5,1.0,95,136.0
2850,F3,412.5,1.0,95,136.0
2851,C#4,412.5,0.5,95,136.0
2852,A3,412.5,0.5,95,136.0
2853,G#4,412.75,0.25,95,136.0
2854,F2,412.75,0.25,95,136.0
2855,B4,413.0,0.75,95,136.0
2856,C2,413.0,0.5,63,136.0
2857,C2,413.5,0.5,95,136.0
2858,B-3,413.5,1.0,95,136.0
2859,G3,413.5,1.0,95,136.0
2860,E-3,413.5,1.0,95,136.0
2861,B3,413.5,0.5,95,136.0
2862,G#3,413.5,0.5,95,136.0
2863,A4,413.75,0.25,95,136.0
2864,G#4,414.0,0.25,95,136.0
2865,E-2,414.0,0.5,95,136.0
2866,F#4,414.25,0.25,95,136.0
2867,E4,414.5,0.25,95,136.0
2868,G#2,414.5,0.5,95,136.0
2869,G3,414.5,1.0,95,136.0
2870,E-3,414.5,1.0,95,136.0
2871,B3,414.5,0.5,95,136.0
2872,G#3,414.5,0.5,95,136.0
2873,F#4,414.75,0.25,95,136.0
2874,A4,415.0,0.25,95,136.0
2875,E-2,415.0,0.5,95,136.0
2876,F#4,415.25,0.25,95,136.0
2877,G#4,415.5,0.25,95,136.0
2878,C#2,415.5,0.5,95,136.0
2879,C4,415.5,0.5,95,136.0
2880,G#3,415.5,0.5,95,136.0
2881,F3,415.5,0.5,95,136.0
2882,C#4,415.5,0.5,95,136.0
2883,A3,415.5,0.5,95,136.0
2884,B4,415.75,0.25,95,136.0
2885,G#4,416.0,0.25,95,136.0
2886,C#2,416.0,1.5,95,136.0
2887,C4,416.0,1.5,95,136.0
2888,G#3,416.0,1.5,95,136.0
2889,F3,416.0,1.5,95,136.0
2890,A4,416.25,0.25,95,136.0
2891,C#5,416.5,0.25,95,136.0
2892,C#4,416.5,0.5,95,136.0
2893,A3,416.5,0.5,95,136.0
2894,E5,416.75,0.25,95,136.0
2895,G#5,417.0,0.25,95,136.0
2896,A5,417.25,0.25,95,136.0
2897,G#5,417.5,0.25,95,136.0
2898,E-2,417.5,0.25,95,136.0
2899,B-3,417.5,2.5,95,136.0
2900,G3,417.5,2.5,95,136.0
2901,E-3,417.5,2.5,95,136.0
2902,B3,417.5,0.5,95,136.0
2903,G#3,417.5,0.5,95,136.0
2904,F#5,417.75,0.25,95,136.0
2905,C2,417.75,0.25,95,136.0
2906,E5,418.0,0.5,95,136.0
2907,E-2,418.0,0.75,95,136.0
2908,C#5,418.5,0.5,95,136.0
2909,B3,418.5,0.5,95,136.0
2910,G#3,418.5,0.5,95,136.0
2911,E-2,418.75,0.75,95,136.0
2912,D5,419.0,0.5,95,136.0
2913,G#5,419.5,0.5,95,136.0
2914,F#1,419.5,0.5,95,136.0
2915,C#4,419.5,0.25,95,136.0
2916,A3,419.5,0.25,95,136.0
2917,E5,420.0,1.0,95,136.0
2918,C#4,420.5,1.0,95,136.0
2919,A3,420.5,1.0,95,136.0
2920,F#3,420.5,1.0,95,136.0
2921,C#4,420.5,0.5,95,136.0
2922,A3,420.5,0.5,95,136.0
2923,F#1,420.75,0.25,95,136.0
2924,E5,421.0,0.5,95,136.0
2925,C#2,421.0,0.5,63,136.0
2926,C#5,421.5,1.0,95,136.0
2927,C#2,421.5,0.5,95,136.0
2928,B3,421.5,1.0,95,136.0
2929,G#3,421.5,1.0,95,136.0
2930,E3,421.5,1.0,95,136.0
2931,B3,421.5,0.5,95,136.0
2932,G#3,421.5,0.5,95,136.0
2933,E2,422.0,0.5,95,136.0
2934,E5,422.5,1.0,95,136.0
2935,F#2,422.5,0.5,95,136.0
2936,G#3,422.5,1.0,95,136.0
2937,E3,422.5,1.0,95,136.0
2938,B3,422.5,0.5,95,136.0
2939,G#3,422.5,0.5,95,136.0
2940,E2,423.0,0.5,95,136.0
2941,E5,423.5,0.5,95,136.0
2942,D2,423.5,0.5,95,136.0
2943,C#4,423.5,0.5,95,136.0
2944,A3,423.5,0.5,95,136.0
2945,F#3,423.5,0.5,95,136.0
2946,C#4,423.5,0.5,95,136.0
2947,A3,423.5,0.5,95,136.0
2948,E5,424.0,0.5,95,136.0
2949,D2,424.0,1.5,95,136.0
2950,C#4,424.0,1.5,95,136.0
2951,A3,424.0,1.5,95,136.0
2952,F#3,424.0,1.5,95,136.0
2953,G#5,424.5,1.0,95,136.0
2954,C#4,424.5,0.5,95,136.0
2955,A3,424.5,0.5,95,136.0
2956,G#4,425.0,2.0,63,136.0
2957,E4,425.0,2.0,63,136.0
2958,A5,425.5,1.0,95,136.0
2959,C#2,425.5,0.25,95,136.0
2960,B3,425.5,2.5,95,136.0
2961,G#3,425.5,2.5,95,136.0
2962,E3,425.5,2.5,95,136.0
2963,E4,425.5,0.5,95,136.0
2964,B3,425.5,0.5,95,136.0
2965,G#3,425.5,0.5,95,136.0
2966,C#2,425.75,0.25,95,136.0
2967,E2,426.0,0.75,95,136.0
2968,B5,426.5,1.5,95,136.0
2969,B3,426.5,0.5,95,136.0
2970,C#4,426.5,0.5,95,136.0
2971,G#3,426.5,0.5,95,136.0
2972,E2,426.75,0.75,95,136.0
2973,C#2,427.5,0.25,95,136.0
2974,F#4,427.5,0.25,95,136.0
2975,C#4,427.5,0.25,95,136.0
2976,A3,427.5,0.25,95,136.0
2977,B-5,428.0,0.5,95,136.0
2978,B-5,428.5,1.0,95,136.0
2979,C#4,428.5,1.0,95,136.0
2980,A3,428.5,1.0,95,136.0
2981,F#3,428.5,1.0,95,136.0
2982,C4,428.5,0.5,95,136.0
2983,G#3,428.5,0.5,95,136.0
2984,F#2,428.75,0.25,95,136.0
2985,C#2,429.0,0.5,63,136.0
2986,B-5,429.5,0.25,95,136.0
2987,C#2,429.5,0.5,95,136.0
2988,B3,429.5,1.0,95,136.0
2989,G#3,429.5,1.0,95,136.0
2990,E3,429.5,1.0,95,136.0
2991,B-3,429.5,0.5,95,136.0
2992,G3,429.5,0.5,95,136.0
2993,G#5,429.75,0.25,95,136.0
2994,G5,430.0,1.0,95,136.0
2995,E2,430.0,0.5,95,136.0
2996,A2,430.5,0.5,95,136.0
2997,G#3,430.5,1.0,95,136.0
2998,E3,430.5,1.0,95,136.0
2999,B-3,430.5,0.5,95,136.0
3000,G3,430.5,0.5,95,136.0
3001,G#5,431.0,0.5,95,136.0
3002,E2,431.0,0.5,95,136.0
3003,F5,431.5,0.5,95,136.0
3004,D2,431.5,0.5,95,136.0
3005,C#4,431.5,0.5,95,136.0
3006,A3,431.5,0.5,95,136.0
3007,F#3,431.5,0.5,95,136.0
3008,C4,431.5,0.5,95,136.0
3009,G#3,431.5,0.5,95,136.0
3010,F5,432.0,1.5,95,136.0
3011,D2,432.0,1.5,95,136.0
3012,C#4,432.0,1.5,95,136.0
3013,A3,432.0,1.5,95,136.0
3014,F#3,432.0,1.5,95,136.0
3015,C4,432.5,0.5,95,136.0
3016,G#3,432.5,0.5,95,136.0
3017,C#5,433.0,4.0,63,136.0
3018,B4,433.0,4.0,63,136.0
3019,G#4,433.0,4.0,63,136.0
3020,E4,433.0,4.0,63,136.0
3021,E2,433.5,0.25,95,136.0
3022,B3,433.5,2.5,95,136.0
3023,G#3,433.5,2.5,95,136.0
3024,E3,433.5,2.5,95,136.0
3025,B-3,433.5,0.5,95,136.0
3026,G3,433.5,0.5,95,136.0
3027,C#2,433.75,0.25,95,136.0
3028,E2,434.0,0.75,95,136.0
3029,B-3,434.5,0.5,95,136.0
3030,G3,434.5,0.5,95,136.0
3031,F5,434.75,0.25,95,136.0
3032,E2,434.75,0.75,95,136.0
3033,E-5,435.0,0.25,95,136.0
3034,C5,435.25,0.25,95,136.0
3035,B-4,435.5,0.25,95,136.0
3036,C#2,435.5,0.25,95,136.0
3037,C4,435.5,0.25,95,136.0
3038,G#3,435.5,0.25,95,136.0
3039,G#4,435.75,0.25,95,136.0
3040,G4,436.0,1.0,95,136.0
3041,C#4,436.5,1.0,95,136.0
3042,A3,436.5,1.0,95,136.0
3043,F#3,436.5,1.0,95,136.0
3044,C4,436.5,0.5,95,136.0
3045,G#3,436.5,0.5,95,136.0
3046,F#2,436.75,0.25,95,136.0
3047,E-5,437.0,0.5,95,136.0
3048,C#2,437.0,0.5,63,136.0
3049,E-4,437.5,1.0,95,136.0
3050,C#2,437.5,0.5,95,136.0
3051,B3,437.5,1.0,95,136.0
3052,G#3,437.5,1.0,95,136.0
3053,E3,437.5,1.0,95,136.0
3054,B-3,437.5,0.5,95,136.0
3055,G3,437.5,0.5,95,136.0
3056,E2,438.0,0.5,95,136.0
3057,G4,438.5,1.0,95,136.0
3058,F#2,438.5,0.5,95,136.0
3059,G#3,438.5,1.0,95,136.0
3060,E3,438.5,1.0,95,136.0
3061,B-3,438.5,0.5,95,136.0
3062,G3,438.5,0.5,95,136.0
3063,E2,439.0,0.5,95,136.0
3064,C4,439.5,0.5,95,136.0
3065,D2,439.5,0.5,95,136.0
3066,C#4,439.5,0.5,95,136.0
3067,A3,439.5,0.5,95,136.0
3068,F#3,439.5,0.5,95,136.0
3069,C4,439.5,0.5,95,136.0
3070,G#3,439.5,0.5,95,136.0
3071,C4,440.0,0.5,95,136.0
3072,D2,440.0,1.5,95,136.0
3073,C#4,440.0,1.5,95,136.0
3074,A3,440.0,1.5,95,136.0
3075,F#3,440.0,1.5,95,136.0
3076,E-4,440.5,1.0,95,136.0
3077,C4,440.5,0.5,95,136.0
3078,G#3,440.5,0.5,95,136.0
3079,G4,441.0,4.0,63,136.0
3080,E-4,441.0,4.0,63,136.0
3081,C4,441.0,4.0,63,136.0
3082,F4,441.5,1.0,95,136.0
3083,C#2,441.5,0.25,79,136.0
3084,B3,441.5,2.5,95,136.0
3085,G#3,441.5,2.5,95,136.0
3086,E3,441.5,2.5,95,136.0
3087,E-4,441.5,0.5,95,136.0
3088,B-3,441.5,0.5,95,136.0
3089,G3,441.5,0.5,95,136.0
3090,C#2,441.75,0.25,95,136.0
3091,E2,442.0,0.75,95,136.0
3092,G4,442.5,1.5,95,136.0
3093,C4,442.5,0.5,95,136.0
3094,B-3,442.5,0.5,95,136.0
3095,G3,442.5,0.5,95,136.0
3096,E2,442.75,0.75,95,136.0
3097,C#2,443.5,0.25,95,136.0
3098,F4,443.5,0.25,95,136.0
3099,C4,443.5,0.25,95,136.0
3100,G#3,443.5,0.25,95,136.0
3101,G#4,444.0,0.75,95,136.0
3102,C#4,444.5,1.0,95,136.0
3103,A3,444.5,1.0,95,136.0
3104,F#3,444.5,1.0,95,136.0
3105,E-4,444.5,0.5,95,136.0
3106,B3,444.5,0.5,95,136.0
3107,B-4,444.75,0.75,95,136.0
3108,F#2,444.75,0.25,95,136.0
3109,C#2,445.0,0.5,63,136.0
3110,F#4,445.5,0.5,95,136.0
3111,C#2,445.5,0.5,95,136.0
3112,B3,445.5,1.0,95,136.0
3113,G#3,445.5,1.0,95,136.0
3114,E3,445.5,1.0,95,136.0
3115,C#4,445.5,0.5,95,136.0
3116,B-3,445.5,0.5,95,136.0
3117,C#5,446.0,0.75,95,136.0
3118,E2,446.0,0.5,95,136.0
3119,A2,446.5,0.5,95,136.0
3120,G#3,446.5,1.0,95,136.0
3121,E3,446.5,1.0,95,136.0
3122,C#4,446.5,0.5,95,136.0
3123,B-3,446.5,0.5,95,136.0
3124,B-4,446.75,0.75,95,136.0
3125,E2,447.0,0.5,95,136.0
3126,F#5,447.5,0.5,95,136.0
3127,D2,447.5,0.5,95,136.0
3128,C#4,447.5,0.5,95,136.0
3129,A3,447.5,0.5,95,136.0
3130,F#3,447.5,0.5,95,136.0
3131,E-4,447.5,0.5,95,136.0
3132,B3,447.5,0.5,95,136.0
3133,C#5,448.0,0.75,95,136.0
3134,D2,448.0,1.5,95,136.0
3135,C#4,448.0,1.5,95,136.0
3136,A3,448.0,1.5,95,136.0
3137,F#3,448.0,1.5,95,136.0
3138,E-4,448.5,0.5,95,136.0
3139,B3,448.5,0.5,95,136.0
3140,F#5,448.75,0.75,95,136.0
3141,G#5,449.5,0.5,95,136.0
3142,E2,449.5,0.25,95,136.0
3143,B3,449.5,2.5,95,136.0
3144,G#3,449.5,2.5,95,136.0
3145,E3,449.5,2.5,95,136.0
3146,C#4,449.5,0.5,95,136.0
3147,B-3,449.5,0.5,95,136.0
3148,C#2,449.75,0.25,95,136.0
3149,B-5,450.0,0.75,95,136.0
3150,E2,450.0,0.75,95,136.0
3151,C#4,450.5,0.5,95,136.0
3152,B-3,450.5,0.5,95,136.0
3153,B5,450.75,0.75,95,136.0
3154,E2,450.75,0.75,95,136.0
3155,C#6,451.5,0.5,95,136.0
3156,D2,451.5,0.5,95,136.0
3157,E-4,451.5,0.25,95,136.0
3158,B3,451.5,0.25,95,136.0
3159,C#6,452.0,0.5,95,136.0
3160,C#6,452.5,1.0,95,136.0
3161,C4,452.5,1.0,95,136.0
3162,G#3,452.5,1.0,95,136.0
3163,F3,452.5,1.0,95,136.0
3164,E-4,452.5,0.5,95,136.0
3165,B3,452.5,0.5,95,136.0
3166,F1,452.75,0.25,95,136.0
3167,C2,453.0,0.5,63,136.0
3168,C#6,453.5,0.25,63,136.0
3169,C2,453.5,0.5,95,136.0
3170,B-3,453.5,1.0,95,136.0
3171,G3,453.5,1.0,95,136.0
3172,E-3,453.5,1.0,95,136.0
3173,C#4,453.5,0.5,95,136.0
3174,B-3,453.5,0.5,95,136.0
3175,B5,453.75,0.25,79,136.0
3176,B-5,454.0,1.0,95,136.0
3177,E-2,454.0,0.5,95,136.0
3178,F2,454.5,0.5,95,136.0
3179,G3,454.5,1.0,95,136.0
3180,E-3,454.5,1.0,95,136.0
3181,C#4,454.5,0.5,95,136.0
3182,B-3,454.5,0.5,95,136.0
3183,A5,455.0,0.5,95,136.0
3184,E-2,455.0,0.5,95,136.0
3185,G#5,455.5,0.5,95,136.0
3186,C#2,455.5,0.5,95,136.0
3187,C4,455.5,0.5,95,136.0
3188,G#3,455.5,0.5,95,136.0
3189,F3,455.5,0.5,95,136.0
3190,E-4,455.5,0.5,95,136.0
3191,B3,455.5,0.5,95,136.0
3192,G#5,456.0,1.0,95,136.0
3193,C#2,456.0,1.5,95,136.0
3194,C4,456.0,1.5,95,136.0
3195,G#3,456.0,1.5,95,136.0
3196,F3,456.0,1.5,95,136.0
3197,E-4,456.5,0.5,95,136.0
3198,B3,456.5,0.5,95,136.0
3199,C2,457.5,0.25,95,136.0
3200,B-3,457.5,2.5,95,136.0
3201,G3,457.5,2.5,95,136.0
3202,E-3,457.5,2.5,95,136.0
3203,F#4,457.5,0.5,95,136.0
3204,C#4,457.5,0.5,95,136.0
3205,B-3,457.5,0.5,95,136.0
3206,C2,457.75,0.25,95,136.0
3207,E-2,458.0,0.75,95,136.0
3208,G#4,458.5,0.5,95,136.0
3209,E-4,458.5,0.5,95,136.0
3210,B-3,458.5,0.5,95,136.0
3211,E-2,458.75,0.75,95,136.0
3212,B4,459.0,0.5,95,136.0
3213,C#5,459.5,0.5,95,136.0
3214,C2,459.5,0.25,95,136.0
3215,G#4,459.5,0.25,95,136.0
3216,E-4,459.5,0.25,95,136.0
3217,B3,459.5,0.25,95,136.0
3218,C#5,459.5,0.5,95,136.0
3219,G#4,459.5,0.5,95,136.0
3220,E4,459.5,0.5,95,136.0
3221,C#5,460.0,0.5,95,136.0
3222,C4,460.5,1.0,95,136.0
3223,G#3,460.5,1.0,95,136.0
3224,F3,460.5,1.0,95,136.0
3225,E5,460.5,0.25,95,136.0
3226,G#4,460.5,0.25,95,136.0
3227,E4,460.5,0.25,95,136.0
3228,F2,460.75,0.25,95,136.0
3229,C2,461.0,0.5,63,136.0
3230,C2,461.5,0.5,95,136.0
3231,B-3,461.5,1.0,95,136.0
3232,G3,461.5,1.0,95,136.0
3233,E-3,461.5,1.0,95,136.0
3234,E-5,461.5,1.5,95,136.0
3235,B4,461.5,1.5,95,136.0
3236,F#4,461.5,1.5,95,136.0
3237,E-2,462.0,0.5,95,136.0
3238,C#5,462.5,0.5,95,136.0
3239,G#2,462.5,0.5,95,136.0
3240,G3,462.5,1.0,95,136.0
3241,E-3,462.5,1.0,95,136.0
3242,E-5,463.0,0.5,95,136.0
3243,E-2,463.0,0.5,95,136.0
3244,E5,463.5,0.5,95,136.0
3245,C#2,463.5,0.5,95,136.0
3246,C4,463.5,0.5,95,136.0
3247,G#3,463.5,0.5,95,136.0
3248,F3,463.5,0.5,95,136.0
3249,E5,463.5,0.5,95,136.0
3250,C#5,463.5,0.5,95,136.0
3251,G#4,463.5,0.5,95,136.0
3252,E5,464.0,0.5,95,136.0
3253,C#2,464.0,1.5,95,136.0
3254,C4,464.0,1.5,95,136.0
3255,G#3,464.0,1.5,95,136.0
3256,F3,464.0,1.5,95,136.0
3257,F#5,464.5,0.5,95,136.0
3258,E5,465.0,0.5,95,136.0
3259,E-5,465.5,1.0,95,136.0
3260,E-2,465.5,0.25,95,136.0
3261,B-3,465.5,2.5,95,136.0
3262,G3,465.5,2.5,95,136.0
3263,E-3,465.5,2.5,95,136.0
3264,E-5,465.5,0.5,95,136.0
3265,B4,465.5,0.5,95,136.0
3266,F#4,465.5,0.5,95,136.0
3267,C2,465.75,0.25,95,136.0
3268,E-2,466.0,0.75,95,136.0
3269,B4,466.5,0.5,95,136.0
3270,B4,466.5,0.5,95,136.0
3271,F#4,466.5,0.5,95,136.0
3272,E-2,466.75,0.75,95,136.0
3273,C#5,467.0,0.25,79,136.0
3274,E5,467.25,0.25,95,136.0
3275,C#5,467.5,0.5,95,136.0
3276,C2,467.5,0.25,95,136.0
3277,C#5,467.5,0.5,95,136.0
3278,G#4,467.5,0.5,95,136.0
3279,E4,467.5,0.5,95,136.0
3280,C#5,468.0,0.5,95,136.0
3281,C#5,468.0,0.5,95,136.0
3282,G#4,468.0,0.5,95,136.0
3283,E4,468.0,0.5,95,136.0
3284,B4,468.5,0.5,95,136.0
3285,E-4,468.5,1.0,95,136.0
3286,B3,468.5,1.0,95,136.0
3287,G#3,468.5,1.0,95,136.0
3288,G#1,468.75,0.25,95,136.0
3289,G#4,469.0,0.5,95,136.0
3290,E-2,469.0,0.5,63,136.0
3291,F#4,469.5,1.0,95,136.0
3292,E-2,469.5,0.5,95,136.0
3293,C#4,469.5,1.0,95,136.0
3294,B-3,469.5,1.0,95,136.0
3295,F#3,469.5,1.0,95,136.0
3296,F#2,470.0,0.5,95,136.0
3297,E4,470.5,0.5,95,136.0
3298,G#2,470.5,0.5,95,136.0
3299,B-3,470.5,1.0,95,136.0
3300,F#3,470.5,1.0,95,136.0
3301,E-4,471.0,0.5,95,136.0
3302,F#2,471.0,0.5,95,136.0
3303,E4,471.5,0.5,95,136.0
3304,E2,471.5,0.5,95,136.0
3305,E-4,471.5,0.5,95,136.0
3306,B3,471.5,0.5,95,136.0
3307,G#3,471.5,0.5,95,136.0
3308,E4,472.0,0.5,95,136.0
3309,E2,472.0,1.5,95,136.0
3310,E-4,472.0,1.5,95,136.0
3311,B3,472.0,1.5,95,136.0
3312,G#3,472.0,1.5,95,136.0
3313,E-2,473.5,0.25,95,136.0
3314,C#4,473.5,2.5,95,136.0
3315,B-3,473.5,2.5,95,136.0
3316,F#3,473.5,2.5,95,136.0
3317,E-2,473.75,0.25,95,136.0
3318,F#2,474.0,0.75,95,136.0
3319,F#2,474.75,0.75,95,136.0
3320,E-2,475.5,0.25,95,136.0
3321,B4,476.5,0.5,95,136.0
3322,E-4,476.5,1.0,95,136.0
3323,B3,476.5,1.0,95,136.0
3324,G#3,476.5,1.0,95,136.0
3325,G#2,476.75,0.25,95,136.0
3326,A4,477.0,0.5,95,136.0
3327,E-2,477.0,0.5,63,136.0
3328,G#4,477.5,1.0,95,136.0
3329,E-2,477.5,0.5,95,136.0
3330,C#4,477.5,1.0,95,136.0
3331,B-3,477.5,1.0,95,136.0
3332,F#3,477.5,1.0,95,136.0
3333,F#2,478.0,0.5,95,136.0
3334,F#4,478.5,1.0,95,136.0
3335,B2,478.5,0.5,95,136.0
3336,B-3,478.5,1.0,95,136.0
3337,F#3,478.5,1.0,95,136.0
3338,F#2,479.0,0.5,95,136.0
3339,B4,479.5,0.5,95,136.0
3340,E2,479.5,0.5,95,136.0
3341,E-4,479.5,0.5,95,136.0
3342,B3,479.5,0.5,95,136.0
3343,G#3,479.5,0.5,95,136.0
3344,B4,479.5,0.5,95,136.0
3345,F#4,479.5,0.5,95,136.0
3346,E-4,479.5,0.5,95,136.0
3347,B4,480.0,0.5,95,136.0
3348,E2,480.0,1.5,95,136.0
3349,E-4,480.0,1.5,95,136.0
3350,B3,480.0,1.5,95,136.0
3351,G#3,480.0,1.5,95,136.0
3352,B4,480.0,0.5,95,136.0
3353,F#4,480.0,0.5,95,136.0
3354,E-4,480.0,0.5,95,136.0
3355,C#5,480.5,0.5,95,136.0
3356,C#5,480.5,0.5,95,136.0
3357,B4,480.5,0.5,95,136.0
3358,F#4,480.5,0.5,95,136.0
3359,E-5,481.0,0.5,95,136.0
3360,E-5,481.0,0.5,95,136.0
3361,B4,481.0,0.5,95,136.0
3362,F#4,481.0,0.5,95,136.0
3363,E5,481.5,0.5,95,136.0
3364,F#2,481.5,0.25,95,136.0
3365,C#4,481.5,2.0,95,136.0
3366,B-3,481.5,2.0,95,136.0
3367,F#3,481.5,2.0,95,136.0
3368,E5,481.5,0.5,95,136.0
3369,C#5,481.5,0.5,95,136.0
3370,G#4,481.5,0.5,95,136.0
3371,E-2,481.75,0.25,95,136.0
3372,F#2,482.0,0.75,95,136.0
3373,C#4,482.5,0.5,95,136.0
3374,F#2,482.75,0.75,95,136.0
3375,E-4,483.0,0.5,95,136.0
3376,E4,483.5,0.5,95,136.0
3377,C#4,483.5,0.5,95,136.0
3378,A1,483.5,0.5,95,136.0
3379,G#4,483.5,0.5,95,136.0
3380,E4,483.5,0.5,95,136.0
3381,A3,483.5,0.5,95,136.0
3382,C#6,483.5,0.5,79,136.0
3383,C#5,483.5,0.5,79,136.0
3384,E4,484.0,0.5,95,136.0
3385,C#4,484.0,0.5,95,136.0
3386,A1,484.0,0.5,95,136.0
3387,G#4,484.0,0.75,95,136.0
3388,E4,484.0,0.75,95,136.0
3389,A3,484.0,0.75,95,136.0
3390,E-6,484.0,0.5,79,136.0
3391,E-5,484.0,0.5,79,136.0
3392,C#4,484.5,0.25,95,136.0
3393,E6,484.5,0.5,95,136.0
3394,E5,484.5,0.5,63,136.0
3395,C#3,484.5,0.5,63,136.0
3396,A1,484.5,0.5,95,136.0
3397,E6,485.0,0.5,95,136.0
3398,G#3,485.0,0.5,63,136.0
3399,A1,485.0,0.5,95,136.0
3400,C#3,485.5,0.5,63,136.0
3401,B1,485.5,2.0,95,136.0
3402,F#4,485.5,1.0,95,136.0
3403,E-4,485.5,1.0,95,136.0
3404,B3,485.5,1.0,95,136.0
3405,G#6,485.5,1.0,79,136.0
3406,G#5,485.5,1.0,79,136.0
3407,A3,486.0,0.5,63,136.0
3408,E4,486.5,0.5,95,136.0
3409,C#4,486.5,0.5,95,136.0
3410,C#3,486.5,0.5,63,136.0
3411,F#6,486.5,1.0,79,136.0
3412,F#5,486.5,1.0,79,136.0
3413,F#4,487.0,0.5,95,136.0
3414,E-4,487.0,0.5,95,136.0
3415,B2,487.0,0.5,63,136.0
3416,G#4,487.5,0.5,95,136.0
3417,C#3,487.5,0.5,63,136.0
3418,C#2,487.5,0.5,95,136.0
3419,G#4,487.5,0.5,95,136.0
3420,E4,487.5,0.5,95,136.0
3421,C#4,487.5,0.5,95,136.0
3422,A3,487.5,0.5,95,136.0
3423,G#4,487.5,0.5,95,136.0
3424,E4,487.5,0.5,95,136.0
3425,C#4,487.5,0.5,95,136.0
3426,B6,487.5,1.0,79,136.0
3427,B5,487.5,1.0,79,136.0
3428,G#4,488.0,0.5,95,136.0
3429,C#3,488.0,1.0,63,136.0
3430,C#2,488.0,1.5,95,136.0
3431,G#4,488.0,0.75,95,136.0
3432,E4,488.0,0.75,95,136.0
3433,C#4,488.0,0.75,95,136.0
3434,A3,488.0,0.75,95,136.0
3435,G#4,488.0,0.5,95,136.0
3436,E4,488.0,0.5,95,136.0
3437,C#4,488.0,0.5,95,136.0
3438,A4,488.5,0.5,95,136.0
3439,C#4,488.5,0.25,95,136.0
3440,E6,488.5,0.5,79,136.0
3441,E5,488.5,0.5,79,136.0
3442,G#4,489.0,0.5,95,136.0
3443,E3,489.0,0.5,63,136.0
3444,F#4,489.5,1.0,95,136.0
3445,B2,489.5,1.0,63,136.0
3446,B1,489.5,0.5,95,136.0
3447,F#4,489.5,2.0,95,136.0
3448,E-4,489.5,2.0,95,136.0
3449,B3,489.5,2.0,95,136.0
3450,F#4,489.5,1.0,95,136.0
3451,E-4,489.5,1.0,95,136.0
3452,B3,489.5,1.0,95,136.0
3453,E4,490.5,0.5,95,136.0
3454,B3,490.5,0.25,95,136.0
3455,E3,490.5,0.5,63,136.0
3456,G#1,490.5,0.5,95,136.0
3457,E-4,491.0,0.5,95,136.0
3458,E-3,491.0,0.5,63,136.0
3459,C#4,491.5,0.5,95,136.0
3460,C#3,491.5,0.5,63,136.0
3461,A1,491.5,0.5,95,136.0
3462,G#4,491.5,0.5,95,136.0
3463,E4,491.5,0.5,95,136.0
3464,C#4,491.5,0.5,95,136.0
3465,G#4,491.5,0.5,95,136.0
3466,E4,491.5,0.5,95,136.0
3467,A3,491.5,0.5,95,136.0
3468,A1,492.0,1.5,95,136.0
3469,G#4,492.0,1.5,95,136.0
3470,E4,492.0,1.5,95,136.0
3471,C#4,492.0,1.5,95,136.0
3472,G#4,492.0,0.5,95,136.0
3473,E4,492.0,0.5,95,136.0
3474,A3,492.0,0.5,95,136.0
3475,G#4,492.0,4.0,95,136.0
3476,E4,492.0,4.0,95,136.0
3477,C#4,492.0,4.0,95,136.0
3478,C#3,492.0,0.5,55,136.0
3479,G#2,492.0,0.5,55,136.0
3480,C#4,492.5,0.5,95,136.0
3481,C#3,492.5,0.5,95,136.0
3482,C#3,493.0,0.5,55,136.0
3483,G#2,493.0,0.5,55,136.0
3484,F#4,493.5,2.5,95,136.0
3485,E-4,493.5,1.0,95,136.0
3486,B3,493.5,2.0,95,136.0
3487,C#3,493.5,0.5,95,136.0
3488,B1,493.5,2.0,95,136.0
3489,F#4,493.5,2.0,95,136.0
3490,E-4,493.5,2.0,95,136.0
3491,B3,493.5,2.0,95,136.0
3492,C#3,494.0,0.5,55,136.0
3493,G#2,494.0,0.5,55,136.0
3494,E4,494.5,0.5,95,136.0
3495,G#3,494.5,0.5,95,136.0
3496,E-4,495.0,0.5,95,136.0
3497,C#3,495.0,0.5,95,136.0
3498,A3,495.5,0.5,95,136.0
3499,C#2,495.5,0.5,95,136.0
3500,G#4,495.5,0.5,95,136.0
3501,E4,495.5,0.5,95,136.0
3502,A3,495.5,0.5,95,136.0
3503,C#4,495.5,0.5,95,136.0
3504,G#3,495.5,0.5,95,136.0
3505,C#2,496.0,0.5,95,136.0
3506,C#4,496.0,0.5,95,136.0
3507,G#3,496.0,0.5,95,136.0
3508,E4,496.0,4.0,95,136.0
3509,C#4,496.0,4.0,95,136.0
3510,A3,496.0,4.0,95,136.0
3511,C#3,496.0,0.5,55,136.0
3512,G#2,496.0,0.5,55,136.0
3513,C#3,496.5,0.5,95,136.0
3514,G#1,496.5,0.5,95,136.0
3515,G#4,496.5,1.0,95,136.0
3516,E4,496.5,1.0,95,136.0
3517,C#4,496.5,1.0,95,136.0
3518,C#2,497.0,0.5,95,136.0
3519,C#3,497.0,0.5,55,136.0
3520,G#2,497.0,0.5,55,136.0
3521,F#4,497.5,1.0,95,136.0
3522,C#3,497.5,0.5,95,136.0
3523,E2,497.5,0.5,95,136.0
3524,G#4,497.5,1.5,95,136.0
3525,E4,497.5,1.5,95,136.0
3526,A3,497.5,1.5,95,136.0
3527,E-4,497.5,2.0,95,136.0
3528,B3,497.5,2.0,95,136.0
3529,E-2,498.0,0.5,95,136.0
3530,C#3,498.0,0.5,55,136.0
3531,G#2,498.0,0.5,55,136.0
3532,B4,498.5,1.0,95,136.0
3533,A3,498.5,0.5,95,136.0
3534,B1,498.5,0.5,95,136.0
3535,C#3,499.0,0.5,95,136.0
3536,E1,499.0,0.5,95,136.0
3537,F#4,499.0,2.0,95,136.0
3538,E-4,499.0,2.0,95,136.0
3539,B3,499.0,2.0,95,136.0
3540,C#4,499.5,0.5,95,136.0
3541,G#3,499.5,0.5,95,136.0
3542,A1,499.5,0.5,95,136.0
3543,G#4,499.5,0.5,95,136.0
3544,E4,499.5,0.5,95,136.0
3545,A3,499.5,0.5,95,136.0
3546,C#4,500.0,0.5,95,136.0
3547,A1,500.0,0.5,95,136.0
3548,G#4,500.0,0.75,95,136.0
3549,E4,500.0,0.75,95,136.0
3550,A3,500.0,0.75,95,136.0
3551,E-4,500.0,4.0,95,136.0
3552,C4,500.0,4.0,95,136.0
3553,G#3,500.0,4.0,95,136.0
3554,C#3,500.0,0.5,55,136.0
3555,G#2,500.0,0.5,55,136.0
3556,C#4,500.5,0.25,95,136.0
3557,C#3,500.5,0.5,95,136.0
3558,A1,500.5,0.5,95,136.0
3559,A1,501.0,0.5,95,136.0
3560,C#4,501.0,0.5,95,136.0
3561,G#3,501.0,0.5,95,136.0
3562,G#3,501.0,0.5,55,136.0
3563,G#2,501.0,0.5,55,136.0
3564,C#3,501.5,0.5,95,136.0
3565,B1,501.5,0.5,95,136.0
3566,F#4,501.5,1.0,95,136.0
3567,E-4,501.5,1.0,95,136.0
3568,B3,501.5,1.0,95,136.0
3569,B1,502.0,0.5,95,136.0
3570,C#4,502.0,0.5,95,136.0
3571,G#3,502.0,0.5,95,136.0
3572,C4,502.0,0.5,79,136.0
3573,C#3,502.0,0.5,79,136.0
3574,E4,502.5,0.5,95,136.0
3575,B1,502.5,0.5,95,136.0
3576,G#4,502.5,1.0,95,136.0
3577,E4,502.5,1.0,95,136.0
3578,C#4,502.5,1.0,95,136.0
3579,G#3,502.5,0.5,95,136.0
3580,C#3,502.5,0.5,95,136.0
3581,C#3,503.0,0.5,63,136.0
3582,B1,503.0,0.5,95,136.0
3583,F#4,503.5,1.0,95,136.0
3584,G#1,503.5,0.5,95,136.0
3585,E-4,503.5,2.0,95,136.0
3586,B3,503.5,2.0,95,136.0
3587,F#4,503.5,0.5,95,136.0
3588,E-4,503.5,0.5,95,136.0
3589,B3,503.5,0.5,95,136.0
3590,E3,503.5,0.5,63,136.0
3591,C#3,503.5,0.5,63,136.0
3592,G#1,504.0,0.5,95,136.0
3593,F#4,504.0,0.5,95,136.0
3594,E-4,504.0,0.5,95,136.0
3595,B3,504.0,0.5,95,136.0
3596,E5,504.0,1.5,95,136.0
3597,E4,504.0,1.5,95,136.0
3598,C#4,504.0,1.5,95,136.0
3599,A3,504.0,1.5,95,136.0
3600,B4,504.5,1.0,95,136.0
3601,C#4,504.5,0.5,95,136.0
3602,G#1,504.5,0.5,95,136.0
3603,E3,504.5,0.5,63,136.0
3604,C#3,504.5,0.5,63,136.0
3605,E-4,505.0,0.5,95,136.0
3606,F#1,505.0,0.5,95,136.0
3607,G#4,505.0,4.0,63,136.0
3608,E4,505.0,4.0,63,136.0
3609,C#4,505.0,4.0,63,136.0
3610,A1,505.5,1.0,95,136.0
3611,G#4,505.5,0.5,95,136.0
3612,E4,505.5,0.5,95,136.0
3613,C#4,505.5,0.5,95,136.0
3614,A3,505.5,0.5,95,136.0
3615,G#4,505.5,1.0,95,136.0
3616,E4,505.5,1.0,95,136.0
3617,C#4,505.5,1.0,95,136.0
3618,A3,505.5,1.0,95,136.0
3619,F#5,505.5,2.0,106,136.0
3620,E-4,505.5,2.0,106,136.0
3621,B3,505.5,2.0,106,136.0
3622,G#4,506.0,1.5,95,136.0
3623,E4,506.0,1.5,95,136.0
3624,C#4,506.0,1.5,95,136.0
3625,A3,506.0,1.5,95,136.0
3626,F#3,506.0,1.0,63,136.0
3627,B2,506.0,1.0,63,136.0
3628,C#4,506.5,0.5,95,136.0
3629,A1,506.5,0.5,95,136.0
3630,B4,506.5,0.5,95,136.0
3631,F#4,506.5,0.5,95,136.0
3632,E-4,506.5,0.5,95,136.0
3633,E-4,506.5,0.5,95,136.0
3634,B3,506.5,0.5,95,136.0
3635,F#3,506.5,0.5,95,136.0
3636,E-4,507.0,0.5,95,136.0
3637,G#1,507.0,0.5,95,136.0
3638,B4,507.0,0.5,95,136.0
3639,F#4,507.0,0.5,95,136.0
3640,E-4,507.0,0.5,95,136.0
3641,E-4,507.0,0.5,95,136.0
3642,B3,507.0,0.5,95,136.0
3643,F#3,507.0,0.5,95,136.0
3644,F#1,507.5,0.5,95,136.0
3645,C#5,507.5,0.5,95,136.0
3646,G#4,507.5,0.5,95,136.0
3647,E4,507.5,0.5,95,136.0
3648,F#4,507.5,2.0,95,136.0
3649,E-4,507.5,2.0,95,136.0
3650,B3,507.5,2.0,95,136.0
3651,G#4,507.5,0.5,95,136.0
3652,E4,507.5,0.5,95,136.0
3653,C#4,507.5,0.5,95,136.0
3654,G#4,507.5,0.5,95,136.0
3655,E4,507.5,0.5,95,136.0
3656,C#4,507.5,0.5,95,136.0
3657,E4,507.5,0.5,95,136.0
3658,C#4,507.5,0.5,95,136.0
3659,G#3,507.5,0.5,95,136.0
3660,F#1,508.0,0.5,95,136.0
3661,G#4,508.0,2.0,95,136.0
3662,E4,508.0,2.0,95,136.0
3663,C#4,508.0,2.0,95,136.0
3664,G#4,508.0,4.0,95,136.0
3665,E4,508.0,4.0,95,136.0
3666,C#4,508.0,4.0,95,136.0
3667,F#1,508.5,0.5,95,136.0
3668,C#3,508.5,0.5,55,136.0
3669,G#2,508.5,0.5,55,136.0
3670,C#3,509.0,0.5,95,136.0
3671,F#1,509.0,0.5,95,136.0
3672,E4,509.0,4.0,63,136.0
3673,C#4,509.0,4.0,63,136.0
3674,A3,509.0,4.0,63,136.0
3675,F#1,509.5,0.5,95,136.0
3676,F#4,509.5,0.5,95,136.0
3677,E-4,509.5,0.5,95,136.0
3678,B3,509.5,0.5,95,136.0
3679,C#3,509.5,0.5,55,136.0
3680,G#2,509.5,0.5,55,136.0
3681,C#3,510.0,0.5,95,136.0
3682,F#1,510.0,0.5,95,136.0
3683,F#4,510.0,1.5,95,136.0
3684,E-4,510.0,1.5,95,136.0
3685,B3,510.0,1.5,95,136.0
3686,E4,510.5,0.5,95,136.0
3687,F#1,510.5,0.5,95,136.0
3688,C#3,510.5,0.5,55,136.0
3689,G#2,510.5,0.5,55,136.0
3690,F#4,511.0,0.5,95,136.0
3691,G#3,511.0,0.5,95,136.0
3692,G#1,511.0,0.5,95,136.0
3693,G#4,511.5,0.5,95,136.0
3694,C#3,511.5,0.5,95,136.0
3695,A1,511.5,0.5,95,136.0
3696,G#4,511.5,2.0,95,136.0
3697,E4,511.5,2.0,95,136.0
3698,C#4,511.5,2.0,95,136.0
3699,A3,511.5,2.0,95,136.0
3700,E4,511.5,0.5,95,136.0
3701,C#4,511.5,0.5,95,136.0
3702,G#4,512.0,0.5,95,136.0
3703,A3,512.0,0.5,95,136.0
3704,A1,512.0,1.0,95,136.0
3705,E4,512.0,1.5,95,136.0
3706,C#4,512.0,1.5,95,136.0
3707,E4,512.0,4.0,95,136.0
3708,C#4,512.0,4.0,95,136.0
3709,A3,512.0,4.0,95,136.0
3710,A4,512.5,0.5,95,136.0
3711,C#3,512.5,0.5,55,136.0
3712,G#2,512.5,0.5,55,136.0
3713,G#4,513.0,0.5,95,136.0
3714,C#3,513.0,0.5,95,136.0
3715,C#2,513.0,0.5,95,136.0
3716,E-4,513.0,4.0,63,136.0
3717,C4,513.0,4.0,63,136.0
3718,G#3,513.0,4.0,63,136.0
3719,B1,513.5,1.0,95,136.0
3720,G#4,513.5,0.5,95,136.0
3721,E4,513.5,0.5,95,136.0
3722,C#4,513.5,0.5,95,136.0
3723,F#4,513.5,1.0,95,136.0
3724,B3,513.5,1.0,95,136.0
3725,C#3,513.5,0.5,55,136.0
3726,G#2,513.5,0.5,55,136.0
3727,C#3,514.0,0.5,95,136.0
3728,G#4,514.0,2.5,95,136.0
3729,E4,514.0,2.5,95,136.0
3730,C#4,514.0,2.5,95,136.0
3731,E4,514.5,0.5,95,136.0
3732,G#1,514.5,0.5,95,136.0
3733,C#3,514.5,0.5,55,136.0
3734,G#2,514.5,0.5,55,136.0
3735,E-4,515.0,0.5,95,136.0
3736,A3,515.0,0.5,95,136.0
3737,B1,515.0,0.5,95,136.0
3738,C#3,515.5,0.5,95,136.0
3739,C#2,515.5,0.5,95,136.0
3740,E4,515.5,0.5,95,136.0
3741,C#4,515.5,0.5,95,136.0
3742,G#3,516.0,0.5,95,136.0
3743,C#2,516.0,4.0,95,136.0
3744,E-4,516.0,4.0,95,136.0
3745,C4,516.0,4.0,95,136.0
3746,G#3,516.0,4.0,95,136.0
3747,E4,516.5,0.5,95,136.0
3748,C#3,516.5,0.5,55,136.0
3749,G#2,516.5,0.5,55,136.0
3750,F#4,517.0,0.5,95,136.0
3751,E5,517.0,1.5,95,136.0
3752,E4,517.0,1.5,95,136.0
3753,C#4,517.0,1.5,95,136.0
3754,A3,517.0,1.5,95,136.0
3755,G#3,517.0,0.5,95,136.0
3756,C#3,517.0,0.5,95,136.0
3757,G#4,517.5,0.5,95,136.0
3758,E4,517.5,0.5,95,136.0
3759,C#4,517.5,0.5,95,136.0
3760,C4,517.5,0.5,55,136.0
3761,G#2,517.5,0.5,55,136.0
3762,G#4,518.0,0.5,95,136.0
3763,C#3,518.0,0.5,95,136.0
3764,E4,518.0,1.5,95,136.0
3765,C#4,518.0,1.5,95,136.0
3766,A4,518.5,0.5,95,136.0
3767,F#5,518.5,2.0,84,136.0
3768,E-4,518.5,2.0,84,136.0
3769,B3,518.5,2.0,84,136.0
3770,E-4,518.5,0.5,63,136.0
3771,C#3,518.5,0.5,63,136.0
3772,G#4,519.0,0.5,95,136.0
3773,C4,519.0,0.5,79,136.0
3774,C#3,519.0,0.5,79,136.0
3775,F#4,519.5,1.0,95,136.0
3776,B3,519.5,1.0,95,136.0
3777,G#3,519.5,0.5,63,136.0
3778,C#3,519.5,0.5,63,136.0
3779,G#4,520.0,1.5,95,136.0
3780,C#3,520.0,0.5,95,136.0
3781,C#2,520.0,4.0,95,136.0
3782,E5,520.0,1.5,95,136.0
3783,E4,520.0,1.5,95,136.0
3784,C#4,520.0,1.5,95,136.0
3785,A3,520.0,1.5,95,136.0
3786,E4,520.0,1.5,95,136.0
3787,C#4,520.0,1.5,95,136.0
3788,A3,520.0,1.5,95,136.0
3789,E4,520.5,0.5,95,136.0
3790,G#4,520.5,0.5,74,136.0
3791,E4,520.5,0.5,74,136.0
3792,C#4,520.5,0.5,74,136.0
3793,E-4,521.0,0.5,95,136.0
3794,G#5,521.0,4.0,84,136.0
3795,E4,521.0,4.0,84,136.0
3796,C#4,521.0,4.0,84,136.0
3797,F#4,521.5,2.5,95,136.0
3798,E4,521.5,0.5,95,136.0
3799,C#4,521.5,0.5,95,136.0
3800,F#5,521.5,2.5,106,136.0
3801,E-4,521.5,2.5,106,136.0
3802,B3,521.5,2.5,106,136.0
3803,F#4,521.5,2.5,95,136.0
3804,E-4,521.5,2.5,95,136.0
3805,B3,521.5,2.5,95,136.0
3806,F#3,522.0,1.0,63,136.0
3807,B2,522.0,1.0,63,136.0
3808,C#2,524.0,4.0,95,136.0
3809,G#4,524.0,4.0,95,136.0
3810,E4,524.0,4.0,95,136.0
3811,C#4,524.0,4.0,95,136.0
3812,F#4,524.5,1.5,127,136.0
3813,B2,524.5,0.5,63,136.0
3814,F#2,524.5,0.5,63,136.0
3815,C#3,525.0,0.5,95,136.0
3816,E5,525.0,4.0,71,136.0
3817,E4,525.0,4.0,71,136.0
3818,C#4,525.0,4.0,71,136.0
3819,A3,525.0,4.0,71,136.0
3820,C#3,525.5,0.5,55,136.0
3821,G#2,525.5,0.5,55,136.0
3822,C#4,526.0,2.5,127,136.0
3823,C#3,526.0,0.5,95,136.0
3824,C#3,526.5,0.5,55,136.0
3825,G#2,526.5,0.5,55,136.0
3826,G#3,527.0,0.5,95,136.0
3827,C#3,527.5,0.5,95,136.0
3828,A3,528.0,0.5,95,136.0
3829,A1,528.0,1.5,95,136.0
3830,E4,528.0,4.0,95,136.0
3831,C#4,528.0,4.0,95,136.0
3832,A3,528.0,4.0,95,136.0
3833,A4,528.5,1.5,95,136.0
3834,C#3,528.5,0.5,55,136.0
3835,G#2,528.5,0.5,55,136.0
3836,C#3,529.0,0.5,95,136.0
3837,E-5,529.0,4.0,71,136.0
3838,E-4,529.0,4.0,71,136.0
3839,C4,529.0,4.0,71,136.0
3840,G#3,529.0,4.0,71,136.0
3841,B1,529.5,1.0,95,136.0
3842,C#3,529.5,0.5,55,136.0
3843,G#2,529.5,0.5,55,136.0
3844,E4,530.0,2.5,95,136.0
3845,C#3,530.0,0.5,95,136.0
3846,B1,530.5,0.5,95,136.0
3847,C#3,530.5,0.5,55,136.0
3848,G#2,530.5,0.5,55,136.0
3849,A3,531.0,0.5,95,136.0
3850,B1,531.0,0.5,95,136.0
3851,C#3,531.5,0.5,95,136.0
3852,C#2,531.5,0.5,95,136.0
3853,G#3,532.0,0.5,95,136.0
3854,C#2,532.0,4.0,95,136.0
3855,E-4,532.0,4.0,95,136.0
3856,C4,532.0,4.0,95,136.0
3857,G#3,532.0,4.0,95,136.0
3858,G#4,532.5,1.5,95,136.0
3859,C#3,532.5,0.5,55,136.0
3860,G#2,532.5,0.5,55,136.0
3861,C#3,533.0,0.5,95,136.0
3862,E5,533.0,1.5,95,136.0
3863,E4,533.0,1.5,95,136.0
3864,C#4,533.0,1.5,95,136.0
3865,A3,533.0,1.5,95,136.0
3866,G#3,533.5,0.5,55,136.0
3867,G#2,533.5,0.5,55,136.0
3868,E-4,534.0,2.5,95,136.0
3869,C#3,534.0,0.5,95,136.0
3870,F#5,534.5,2.5,84,136.0
3871,E-4,534.5,2.5,84,136.0
3872,B3,534.5,2.5,84,136.0
3873,C4,534.5,0.5,79,136.0
3874,C#3,534.5,0.5,79,136.0
3875,G#3,535.0,0.5,95,136.0
3876,C#3,535.0,0.5,95,136.0
3877,C#3,535.5,0.5,63,136.0
3878,C#2,536.0,4.0,95,136.0
3879,E5,536.0,1.5,95,136.0
3880,E4,536.0,1.5,95,136.0
3881,C#4,536.0,1.5,95,136.0
3882,A3,536.0,1.5,95,136.0
3883,E3,536.0,0.5,63,136.0
3884,C#3,536.0,0.5,63,136.0
3885,F#4,536.5,1.5,95,136.0
3886,G#4,537.0,4.0,63,136.0
3887,E4,537.0,4.0,63,136.0
3888,C#4,537.0,4.0,63,136.0
3889,F#5,537.5,2.0,106,136.0
3890,E-4,537.5,2.0,106,136.0
3891,B3,537.5,2.0,106,136.0
3892,F#4,538.0,1.0,95,136.0
3893,B4,538.5,0.5,95,136.0
3894,F#4,538.5,0.5,95,136.0
3895,E-4,538.5,0.5,95,136.0
3896,E-4,538.5,0.5,95,136.0
3897,B3,538.5,0.5,95,136.0
3898,F#3,538.5,0.5,95,136.0
3899,E4,539.0,0.5,95,136.0
3900,B4,539.0,0.5,95,136.0
3901,F#4,539.0,0.5,95,136.0
3902,E-4,539.0,0.5,95,136.0
3903,E-4,539.0,0.5,95,136.0
3904,B3,539.0,0.5,95,136.0
3905,F#3,539.0,0.5,95,136.0
3906,E-4,539.5,0.5,95,136.0
3907,C#5,539.5,0.5,95,136.0
3908,G#4,539.5,0.5,95,136.0
3909,E4,539.5,0.5,95,136.0
3910,G#4,539.5,0.5,95,136.0
3911,E4,539.5,0.5,95,136.0
3912,C#4,539.5,0.5,95,136.0
3913,E4,539.5,0.5,95,136.0
3914,C#4,539.5,0.5,95,136.0
3915,G#3,539.5,0.5,95,136.0
3916,C#2,540.0,4.0,95,136.0
3917,G#4,540.0,4.0,95,136.0
3918,E4,540.0,4.0,95,136.0
3919,C#4,540.0,4.0,95,136.0
3920,C#4,540.0,0.5,74,136.0
3921,F#3,540.0,0.5,74,136.0
3922,B2,540.0,0.5,74,136.0
3923,G#4,540.5,1.5,127,136.0
3924,C#3,540.5,0.5,55,136.0
3925,G#2,540.5,0.5,55,136.0
3926,C#3,541.0,0.5,95,136.0
3927,E4,541.0,4.0,63,136.0
3928,C#4,541.0,4.0,63,136.0
3929,A3,541.0,4.0,63,136.0
3930,C#3,541.5,0.5,55,136.0
3931,G#2,541.5,0.5,55,136.0
3932,C#4,542.0,2.5,127,136.0
3933,C#3,542.0,0.5,95,136.0
3934,C#3,542.5,0.5,55,136.0
3935,G#2,542.5,0.5,55,136.0
3936,G#3,543.0,0.5,95,136.0
3937,C#3,543.5,0.5,95,136.0
3938,A3,544.0,0.5,95,136.0
3939,A1,544.0,1.5,95,136.0
3940,E4,544.0,4.0,95,136.0
3941,C#4,544.0,4.0,95,136.0
3942,A3,544.0,4.0,95,136.0
3943,A4,544.5,1.5,95,136.0
3944,C#3,544.5,0.5,55,136.0
3945,G#2,544.5,0.5,55,136.0
3946,C#3,545.0,0.5,95,136.0
3947,E-4,545.0,4.0,63,136.0
3948,C4,545.0,4.0,63,136.0
3949,G#3,545.0,4.0,63,136.0
3950,B1,545.5,1.0,95,136.0
3951,C#3,545.5,0.5,55,136.0
3952,G#2,545.5,0.5,55,136.0
3953,C#5,546.0,2.5,95,136.0
3954,C#3,546.0,0.5,95,136.0
3955,B1,546.5,0.5,95,136.0
3956,C#3,546.5,0.5,55,136.0
3957,G#2,546.5,0.5,55,136.0
3958,A3,547.0,0.5,95,136.0
3959,B1,547.0,0.5,95,136.0
3960,C#3,547.5,0.5,95,136.0
3961,C#2,547.5,0.5,95,136.0
3962,G#3,548.0,0.5,95,136.0
3963,C#2,548.0,4.0,95,136.0
3964,E-4,548.0,4.0,95,136.0
3965,C4,548.0,4.0,95,136.0
3966,G#3,548.0,4.0,95,136.0
3967,E-5,548.5,4.0,95,136.0
3968,C#3,548.5,0.5,55,136.0
3969,G#2,548.5,0.5,55,136.0
3970,E5,549.0,1.5,95,136.0
3971,E4,549.0,1.5,95,136.0
3972,C#4,549.0,1.5,95,136.0
3973,A3,549.0,1.5,95,136.0
3974,G#3,549.0,0.5,95,136.0
3975,C#3,549.0,0.5,95,136.0
3976,C4,549.5,0.5,55,136.0
3977,G#2,549.5,0.5,55,136.0
3978,C#3,550.0,0.5,95,136.0
3979,F#5,550.5,2.0,84,136.0
3980,E-4,550.5,2.0,84,136.0
3981,B3,550.5,2.0,84,136.0
3982,E-4,550.5,0.5,63,136.0
3983,C#3,550.5,0.5,63,136.0
3984,C4,551.0,0.5,79,136.0
3985,C#3,551.0,0.5,79,136.0
3986,G#3,551.5,0.5,63,136.0
3987,C#3,551.5,0.5,63,136.0
3988,G#4,552.0,1.5,95,136.0
3989,C#3,552.0,0.5,95,136.0
3990,C#2,552.0,4.0,95,136.0
3991,E5,552.0,1.5,95,136.0
3992,E4,552.0,1.5,95,136.0
3993,C#4,552.0,1.5,95,136.0
3994,A3,552.0,1.5,95,136.0
3995,E4,552.0,1.5,95,136.0
3996,C#4,552.0,1.5,95,136.0
3997,A3,552.0,1.5,95,136.0
3998,E5,552.5,1.5,95,136.0
3999,G#4,552.5,0.5,74,136.0
4000,E4,552.5,0.5,74,136.0
4001,C#4,552.5,0.5,74,136.0
4002,G#5,553.0,4.0,84,136.0
4003,E4,553.0,4.0,84,136.0
4004,C#4,553.0,4.0,84,136.0
4005,F#4,553.5,1.0,95,136.0
4006,F#5,553.5,2.5,106,136.0
4007,E-4,553.5,2.5,106,136.0
4008,B3,553.5,2.5,106,136.0
4009,F#4,553.5,2.5,95,136.0
4010,E-4,553.5,2.5,95,136.0
4011,B3,553.5,2.5,95,136.0
4012,F#5,554.0,1.0,74,136.0
4013,F#3,554.0,1.0,74,136.0
4014,B2,554.0,1.0,74,136.0
4015,B4,554.5,0.5,95,136.0
4016,A4,555.0,0.5,95,136.0
4017,G#4,555.5,0.5,95,136.0
4018,F#4,556.0,0.5,95,136.0
4019,C#2,556.0,4.0,95,136.0
4020,G#4,556.5,2.0,95,136.0
4021,E4,556.5,0.5,95,136.0
4022,C#4,556.5,0.5,95,136.0
4023,E5,557.0,4.0,71,136.0
4024,E4,557.0,4.0,71,136.0
4025,C#4,557.0,4.0,71,136.0
4026,A3,557.0,4.0,71,136.0
4027,E-4,557.5,0.5,95,136.0
4028,B3,557.5,0.5,95,136.0
4029,E-4,558.5,0.5,95,136.0
4030,E-4,558.5,0.5,95,136.0
4031,B3,558.5,0.5,95,136.0
4032,B3,559.0,0.5,95,136.0
4033,C#4,559.5,0.5,95,136.0
4034,E4,559.5,0.5,95,136.0
4035,C#4,559.5,0.5,95,136.0
4036,C#4,560.0,2.0,95,136.0
4037,A1,560.0,1.5,95,136.0
4038,E4,560.5,0.5,95,136.0
4039,C#4,560.5,0.5,95,136.0
4040,E-5,561.0,4.0,71,136.0
4041,E-4,561.0,4.0,71,136.0
4042,C4,561.0,4.0,71,136.0
4043,G#3,561.0,4.0,71,136.0
4044,B1,561.5,1.0,95,136.0
4045,G#4,561.5,0.5,95,136.0
4046,E-4,561.5,0.5,95,136.0
4047,B3,561.5,0.5,95,136.0
4048,E-4,562.5,0.5,95,136.0
4049,B1,562.5,0.5,95,136.0
4050,E-4,562.5,0.5,95,136.0
4051,B3,562.5,0.5,95,136.0
4052,E4,563.0,0.5,95,136.0
4053,B1,563.0,0.5,95,136.0
4054,F#4,563.5,0.5,95,136.0
4055,C#2,563.5,0.5,95,136.0
4056,E4,563.5,0.25,95,136.0
4057,C#4,563.5,0.25,95,136.0
4058,F#4,564.0,0.5,95,136.0
4059,C#2,564.0,4.0,95,136.0
4060,G#4,564.5,0.5,95,136.0
4061,E4,564.5,0.5,95,136.0
4062,C#4,564.5,0.5,95,136.0
4063,E5,565.0,1.5,95,136.0
4064,E4,565.0,1.5,95,136.0
4065,C#4,565.0,1.5,95,136.0
4066,A3,565.0,1.5,95,136.0
4067,G#3,565.5,1.0,95,136.0
4068,E-4,565.5,0.5,95,136.0
4069,B3,565.5,0.5,95,136.0
4070,D4,566.5,0.5,95,136.0
4071,E-4,566.5,0.5,95,136.0
4072,B3,566.5,0.5,95,136.0
4073,F#5,566.5,2.5,84,136.0
4074,E-4,566.5,2.5,84,136.0
4075,B3,566.5,2.5,84,136.0
4076,E-4,567.0,0.5,95,136.0
4077,C#4,567.5,0.5,95,136.0
4078,G#4,567.5,0.5,95,136.0
4079,C#4,567.5,0.5,95,136.0
4080,B3,568.0,0.5,95,136.0
4081,C#2,568.0,4.0,95,136.0
4082,C#4,568.5,1.0,79,136.0
4083,G#4,568.5,0.5,95,136.0
4084,C#4,568.5,0.5,95,136.0
4085,F#4,569.5,0.5,95,136.0
4086,E-4,569.5,0.5,95,136.0
4087,B3,569.5,0.5,95,136.0
4088,E-4,570.5,0.5,95,136.0
4089,B3,570.5,0.5,95,136.0
4090,E4,571.5,0.25,95,136.0
4091,C#4,571.5,0.25,95,136.0
4092,C#2,572.0,4.0,95,136.0
4093,E4,572.5,0.5,95,136.0
4094,C#4,572.5,0.5,95,136.0
4095,C#5,573.0,0.5,95,136.0
4096,B4,573.5,0.5,95,136.0
4097,E-4,573.5,0.5,95,136.0
4098,B3,573.5,0.5,95,136.0
4099,A4,574.5,0.5,95,136.0
4100,E-4,574.5,0.5,95,136.0
4101,B3,574.5,0.5,95,136.0
4102,G#4,575.5,0.5,95,136.0
4103,E4,575.5,0.5,95,136.0
4104,C#4,575.5,0.5,95,136.0
4105,G#4,576.0,1.0,95,136.0
4106,A1,576.0,1.5,95,136.0
4107,E4,576.5,0.5,95,136.0
4108,C#4,576.5,0.5,95,136.0
4109,F#4,577.0,0.5,95,136.0
4110,B4,577.5,0.5,95,136.0
4111,B1,577.5,1.0,95,136.0
4112,G#4,577.5,0.5,95,136.0
4113,E-4,577.5,0.5,95,136.0
4114,B3,577.5,0.5,95,136.0
4115,A4,578.5,0.5,95,136.0
4116,B1,578.5,0.5,95,136.0
4117,E-4,578.5,0.5,95,136.0
4118,B3,578.5,0.5,95,136.0
4119,B1,579.0,0.5,95,136.0
4120,G#4,579.5,0.5,95,136.0
4121,C#2,579.5,0.5,95,136.0
4122,E4,579.5,0.25,95,136.0
4123,C#4,579.5,0.25,95,136.0
4124,F#4,580.0,0.5,95,136.0
4125,C#2,580.0,0.75,95,136.0
4126,G#4,580.5,1.5,95,136.0
4127,E4,580.5,1.0,95,136.0
4128,C#4,580.5,1.0,95,136.0
4129,G#3,580.5,1.0,95,136.0
4130,E4,580.5,0.5,95,136.0
4131,C#4,580.5,0.5,95,136.0
4132,C#2,580.75,0.25,95,136.0
4133,G#1,581.0,0.5,63,136.0
4134,G#1,581.5,0.5,95,136.0
4135,E-4,581.5,1.0,95,136.0
4136,B3,581.5,1.0,95,136.0
4137,G#3,581.5,1.0,95,136.0
4138,E-4,581.5,0.5,95,136.0
4139,B3,581.5,0.5,95,136.0
4140,B1,582.0,0.5,95,136.0
4141,E-4,582.5,0.5,95,136.0
4142,C#2,582.5,0.5,95,136.0
4143,B3,582.5,1.0,95,136.0
4144,G#3,582.5,1.0,95,136.0
4145,E-4,582.5,0.5,95,136.0
4146,B3,582.5,0.5,95,136.0
4147,B3,583.0,0.5,95,136.0
4148,B1,583.0,0.5,95,136.0
4149,C#4,583.5,0.5,95,136.0
4150,A1,583.5,0.5,95,136.0
4151,C#4,583.5,0.5,95,136.0
4152,G#3,583.5,0.5,95,136.0
4153,E3,583.5,0.5,95,136.0
4154,G#4,583.5,0.5,95,136.0
4155,C#4,583.5,0.5,95,136.0
4156,C#4,584.0,0.5,95,136.0
4157,A1,584.0,1.5,95,136.0
4158,C#4,584.0,1.5,95,136.0
4159,G#3,584.0,1.5,95,136.0
4160,E3,584.0,1.5,95,136.0
4161,E-4,584.5,1.0,95,136.0
4162,G#4,584.5,0.5,95,136.0
4163,C#4,584.5,0.5,95,136.0
4164,E4,585.5,1.0,95,136.0
4165,G#1,585.5,0.25,79,136.0
4166,E-4,585.5,2.5,95,136.0
4167,B3,585.5,2.5,95,136.0
4168,F#3,585.5,2.5,95,136.0
4169,F#4,585.5,0.5,95,136.0
4170,E-4,585.5,0.5,95,136.0
4171,B3,585.5,0.5,95,136.0
4172,G#1,585.75,0.25,95,136.0
4173,B1,586.0,0.75,95,136.0
4174,E4,586.5,0.5,95,136.0
4175,E-4,586.5,0.5,95,136.0
4176,B3,586.5,0.5,95,136.0
4177,B1,586.75,0.75,95,136.0
4178,G#4,587.0,0.5,95,136.0
4179,G#4,587.5,0.5,95,136.0
4180,G#1,587.5,0.25,95,136.0
4181,E4,587.5,0.25,95,136.0
4182,C#4,587.5,0.25,95,136.0
4183,G#4,588.0,4.0,95,136.0
4184,E4,588.5,1.0,95,136.0
4185,C#4,588.5,1.0,95,136.0
4186,G#3,588.5,1.0,95,136.0
4187,E-4,588.5,0.5,95,136.0
4188,B3,588.5,0.5,95,136.0
4189,C#2,588.75,0.25,95,136.0
4190,G#1,589.0,0.5,63,136.0
4191,G#1,589.5,0.5,95,136.0
4192,E-4,589.5,1.0,95,136.0
4193,B3,589.5,1.0,95,136.0
4194,G#3,589.5,1.0,95,136.0
4195,C#4,589.5,0.5,95,136.0
4196,B-3,589.5,0.5,95,136.0
4197,B1,590.0,0.5,95,136.0
4198,E2,590.5,0.5,95,136.0
4199,B3,590.5,1.0,95,136.0
4200,G#3,590.5,1.0,95,136.0
4201,C#4,590.5,0.5,95,136.0
4202,B-3,590.5,0.5,95,136.0
4203,B1,591.0,0.5,95,136.0
4204,A1,591.5,0.5,95,136.0
4205,C#4,591.5,0.5,95,136.0
4206,G#3,591.5,0.5,95,136.0
4207,E3,591.5,0.5,95,136.0
4208,E-4,591.5,0.5,95,136.0
4209,B3,591.5,0.5,95,136.0
4210,G#4,592.0,1.5,95,136.0
4211,A1,592.0,1.5,95,136.0
4212,C#4,592.0,1.5,95,136.0
4213,G#3,592.0,1.5,95,136.0
4214,E3,592.0,1.5,95,136.0
4215,E-4,592.5,0.5,95,136.0
4216,B3,592.5,0.5,95,136.0
4217,C#4,593.5,1.0,95,136.0
4218,E-4,593.5,2.5,95,136.0
4219,B3,593.5,2.5,95,136.0
4220,F#3,593.5,2.5,95,136.0
4221,C#4,593.5,0.5,95,136.0
4222,B-3,593.5,0.5,95,136.0
4223,B2,593.5,0.25,79,136.0
4224,B1,593.5,0.25,79,136.0
4225,G#1,593.75,0.25,95,136.0
4226,B2,594.0,0.75,79,136.0
4227,B1,594.0,0.75,79,136.0
4228,F#4,594.5,0.5,95,136.0
4229,C#4,594.5,0.5,95,136.0
4230,B-3,594.5,0.5,95,136.0
4231,B1,594.75,0.75,95,136.0
4232,E4,595.0,0.5,95,136.0
4233,E-4,595.5,0.5,95,136.0
4234,E-4,595.5,0.25,95,136.0
4235,B3,595.5,0.25,95,136.0
4236,C#3,595.5,0.25,79,136.0
4237,G#1,595.5,0.25,79,136.0
4238,C#4,596.0,0.5,95,136.0
4239,E-4,596.5,2.0,95,136.0
4240,E4,596.5,1.0,95,136.0
4241,C#4,596.5,1.0,95,136.0
4242,G#3,596.5,1.0,95,136.0
4243,E-4,596.5,0.5,95,136.0
4244,B3,596.5,0.5,95,136.0
4245,C#2,596.75,0.25,95,136.0
4246,G#1,597.0,0.5,63,136.0
4247,G#1,597.5,0.5,95,136.0
4248,E-4,597.5,1.0,95,136.0
4249,B3,597.5,1.0,95,136.0
4250,G#3,597.5,1.0,95,136.0
4251,C#4,597.5,0.5,95,136.0
4252,B-3,597.5,0.5,95,136.0
4253,B1,598.0,0.5,95,136.0
4254,G#3,598.5,0.5,95,136.0
4255,C#2,598.5,0.5,95,136.0
4256,B3,598.5,1.0,95,136.0
4257,G#3,598.5,1.0,95,136.0
4258,C#4,598.5,0.5,95,136.0
4259,B-3,598.5,0.5,95,136.0
4260,F#3,599.0,0.5,95,136.0
4261,B1,599.0,0.5,95,136.0
4262,G#3,599.5,0.5,95,136.0
4263,A1,599.5,0.5,95,136.0
4264,C#4,599.5,0.5,95,136.0
4265,G#3,599.5,0.5,95,136.0
4266,E3,599.5,0.5,95,136.0
4267,E-4,599.5,0.5,95,136.0
4268,B3,599.5,0.5,95,136.0
4269,G#3,600.0,2.0,95,136.0
4270,A1,600.0,1.5,95,136.0
4271,C#4,600.0,1.5,95,136.0
4272,G#3,600.0,1.5,95,136.0
4273,E3,600.0,1.5,95,136.0
4274,B3,600.5,0.5,63,136.0
4275,E-4,600.5,0.5,95,136.0
4276,B3,600.5,0.5,95,136.0
4277,B-3,601.0,0.5,79,136.0
4278,B3,601.5,0.5,95,136.0
4279,G#1,601.5,0.25,79,136.0
4280,E-4,601.5,2.5,95,136.0
4281,B3,601.5,2.5,95,136.0
4282,F#3,601.5,2.5,95,136.0
4283,F#4,601.5,0.5,95,136.0
4284,C#4,601.5,0.5,95,136.0
4285,B-3,601.5,0.5,95,136.0
4286,G#1,601.75,0.25,95,136.0
4287,F#4,602.0,0.5,95,136.0
4288,B1,602.0,0.75,95,136.0
4289,C#4,602.5,1.0,79,136.0
4290,E-4,602.5,0.5,95,136.0
4291,B-3,602.5,0.5,95,136.0
4292,B1,602.75,0.75,95,136.0
4293,B3,603.5,1.0,63,136.0
4294,G#1,603.5,0.25,95,136.0
4295,G#4,603.5,0.25,95,136.0
4296,E-4,603.5,0.25,95,136.0
4297,B3,603.5,0.25,95,136.0
4298,E4,604.5,1.0,95,136.0
4299,C#4,604.5,1.0,95,136.0
4300,G#3,604.5,1.0,95,136.0
4301,E-4,604.5,0.5,95,136.0
4302,B3,604.5,0.5,95,136.0
4303,C#2,604.75,0.25,95,136.0
4304,B-3,605.0,0.5,95,136.0
4305,G#1,605.0,0.5,63,136.0
4306,B3,605.5,0.5,95,136.0
4307,G#1,605.5,0.5,95,136.0
4308,E-4,605.5,1.0,95,136.0
4309,B3,605.5,1.0,95,136.0
4310,G#3,605.5,1.0,95,136.0
4311,C#4,605.5,0.5,95,136.0
4312,B-3,605.5,0.5,95,136.0
4313,B1,606.0,0.5,95,136.0
4314,E-4,606.5,0.5,95,136.0
4315,E2,606.5,0.5,95,136.0
4316,B3,606.5,1.0,95,136.0
4317,G#3,606.5,1.0,95,136.0
4318,C#4,606.5,0.5,95,136.0
4319,B-3,606.5,0.5,95,136.0
4320,B1,607.0,0.5,95,136.0
4321,G#4,607.5,0.5,95,136.0
4322,A1,607.5,0.5,95,136.0
4323,C#4,607.5,0.5,95,136.0
4324,G#3,607.5,0.5,95,136.0
4325,E3,607.5,0.5,95,136.0
4326,E-4,607.5,0.5,95,136.0
4327,B3,607.5,0.5,95,136.0
4328,G#4,608.0,0.5,95,136.0
4329,A1,608.0,1.5,95,136.0
4330,C#4,608.0,1.5,95,136.0
4331,G#3,608.0,1.5,95,136.0
4332,E3,608.0,1.5,95,136.0
4333,G#4,608.5,1.0,95,136.0
4334,E-4,608.5,0.5,95,136.0
4335,B3,608.5,0.5,95,136.0
4336,B-3,609.0,0.5,79,136.0
4337,G#4,609.5,1.0,95,136.0
4338,B3,609.5,0.5,95,136.0
4339,E-4,609.5,2.5,95,136.0
4340,B3,609.5,2.5,95,136.0
4341,F#3,609.5,2.5,95,136.0
4342,C#4,609.5,0.5,95,136.0
4343,B-3,609.5,0.5,95,136.0
4344,B2,609.5,0.25,79,136.0
4345,B1,609.5,0.25,79,136.0
4346,G#1,609.75,0.25,95,136.0
4347,F#4,610.0,0.5,95,136.0
4348,B2,610.0,0.75,79,136.0
4349,B1,610.0,0.75,79,136.0
4350,F#4,610.5,1.0,95,136.0
4351,C#4,610.5,1.0,79,136.0
4352,C#4,610.5,0.5,95,136.0
4353,B-3,610.5,0.5,95,136.0
4354,B1,610.75,0.75,95,136.0
4355,E-4,611.5,0.5,95,136.0
4356,B3,611.5,1.0,63,136.0
4357,E-4,611.5,0.25,95,136.0
4358,B3,611.5,0.25,95,136.0
4359,C#3,611.5,0.25,79,136.0
4360,G#1,611.5,0.25,79,136.0
4361,C#4,612.0,0.5,79,136.0
4362,E-4,612.5,2.0,95,136.0
4363,E-4,612.5,1.0,95,136.0
4364,B3,612.5,1.0,95,136.0
4365,G#3,612.5,1.0,95,136.0
4366,E-4,612.5,0.5,95,136.0
4367,B3,612.5,0.5,95,136.0
4368,G#1,612.75,0.25,95,136.0
4369,E-2,613.0,0.5,63,136.0
4370,E-2,613.5,0.5,95,136.0
4371,C#4,613.5,1.0,95,136.0
4372,B-3,613.5,1.0,95,136.0
4373,F#3,613.5,1.0,95,136.0
4374,C#4,613.5,0.5,95,136.0
4375,B-3,613.5,0.5,95,136.0
4376,F#2,614.0,0.5,95,136.0
4377,E-4,614.5,0.5,95,136.0
4378,G#2,614.5,0.5,95,136.0
4379,B-3,614.5,1.0,95,136.0
4380,F#3,614.5,1.0,95,136.0
4381,C#4,614.5,0.5,95,136.0
4382,B-3,614.5,0.5,95,136.0
4383,F#4,615.0,0.5,95,136.0
4384,F#2,615.0,0.5,95,136.0
4385,G#4,615.5,0.5,95,136.0
4386,E2,615.5,0.5,95,136.0
4387,E-4,615.5,0.5,95,136.0
4388,B3,615.5,0.5,95,136.0
4389,G#3,615.5,0.5,95,136.0
4390,E-4,615.5,0.5,95,136.0
4391,B3,615.5,0.5,95,136.0
4392,G#4,616.0,0.5,95,136.0
4393,E2,616.0,1.5,95,136.0
4394,E-4,616.0,1.5,95,136.0
4395,B3,616.0,1.5,95,136.0
4396,G#3,616.0,1.5,95,136.0
4397,B-4,616.5,1.0,95,136.0
4398,E-4,616.5,0.5,95,136.0
4399,B3,616.5,0.5,95,136.0
4400,B-3,617.0,0.5,79,136.0
4401,B4,617.5,1.0,95,136.0
4402,B3,617.5,0.5,95,136.0
4403,E-2,617.5,0.25,95,136.0
4404,C#4,617.5,2.5,95,136.0
4405,B-3,617.5,2.5,95,136.0
4406,F#3,617.5,2.5,95,136.0
4407,F#4,617.5,0.5,95,136.0
4408,C#4,617.5,0.5,95,136.0
4409,B-3,617.5,0.5,95,136.0
4410,E-2,617.75,0.25,95,136.0
4411,F#4,618.0,0.5,95,136.0
4412,F#2,618.0,0.75,95,136.0
4413,C#5,618.5,0.5,95,136.0
4414,C#4,618.5,1.0,79,136.0
4415,E-4,618.5,0.5,95,136.0
4416,B-3,618.5,0.5,95,136.0
4417,F#2,618.75,0.75,95,136.0
4418,E-5,619.0,0.5,95,136.0
4419,E5,619.5,0.5,95,136.0
4420,B3,619.5,1.0,63,136.0
4421,E-2,619.5,0.25,95,136.0
4422,G#4,619.5,0.25,95,136.0
4423,E-4,619.5,0.25,95,136.0
4424,B3,619.5,0.25,95,136.0
4425,E5,619.5,0.5,95,136.0
4426,C#5,619.5,0.5,95,136.0
4427,G#4,619.5,0.5,95,136.0
4428,E5,620.0,0.5,95,136.0
4429,E-4,620.5,1.0,95,136.0
4430,B3,620.5,1.0,95,136.0
4431,G#3,620.5,1.0,95,136.0
4432,C#5,620.5,0.25,95,136.0
4433,G#4,620.5,0.25,95,136.0
4434,E4,620.5,0.25,95,136.0
4435,G#2,620.75,0.25,95,136.0
4436,E-2,621.0,0.5,63,136.0
4437,E-2,621.5,0.5,95,136.0
4438,C#4,621.5,1.0,95,136.0
4439,B-3,621.5,1.0,95,136.0
4440,F#3,621.5,1.0,95,136.0
4441,E-5,621.5,1.5,95,136.0
4442,B4,621.5,1.5,95,136.0
4443,F#4,621.5,1.5,95,136.0
4444,F#2,622.0,0.5,95,136.0
4445,C#5,622.5,0.5,95,136.0
4446,B2,622.5,0.5,95,136.0
4447,B-3,622.5,1.0,95,136.0
4448,F#3,622.5,1.0,95,136.0
4449,E-5,623.0,0.5,95,136.0
4450,F#2,623.0,0.5,95,136.0
4451,E5,623.5,0.5,95,136.0
4452,E2,623.5,0.5,95,136.0
4453,E-4,623.5,0.5,95,136.0
4454,B3,623.5,0.5,95,136.0
4455,G#3,623.5,0.5,95,136.0
4456,E5,623.5,0.5,95,136.0
4457,C#5,623.5,0.5,95,136.0
4458,G#4,623.5,0.5,95,136.0
4459,E5,624.0,0.5,95,136.0
4460,E2,624.0,1.5,95,136.0
4461,E-4,624.0,1.5,95,136.0
4462,B3,624.0,1.5,95,136.0
4463,G#3,624.0,1.5,95,136.0
4464,F#5,624.5,0.5,95,136.0
4465,E5,625.0,0.5,95,136.0
4466,B-3,625.0,0.5,79,136.0
4467,E-5,625.5,1.0,95,136.0
4468,B3,625.5,0.5,95,136.0
4469,F#2,625.5,0.25,95,136.0
4470,C#4,625.5,2.5,95,136.0
4471,B-3,625.5,2.5,95,136.0
4472,F#3,625.5,2.5,95,136.0
4473,E-5,625.5,0.5,95,136.0
4474,B4,625.5,0.5,95,136.0
4475,F#4,625.5,0.5,95,136.0
4476,E-2,625.75,0.25,95,136.0
4477,F#4,626.0,0.5,95,136.0
4478,F#2,626.0,0.75,95,136.0
4479,B4,626.5,0.5,95,136.0
4480,C#4,626.5,1.0,79,136.0
4481,B4,626.5,0.5,95,136.0
4482,F#4,626.5,0.5,95,136.0
4483,F#2,626.75,0.75,95,136.0
4484,C#5,627.0,0.25,79,136.0
4485,E5,627.25,0.25,95,136.0
4486,C#5,627.5,0.5,95,136.0
4487,B3,627.5,1.0,63,136.0
4488,E-2,627.5,0.25,95,136.0
4489,C#5,627.5,0.5,95,136.0
4490,G#4,627.5,0.5,95,136.0
4491,E4,627.5,0.5,95,136.0
4492,C#5,628.0,0.5,95,136.0
4493,C#5,628.0,0.5,95,136.0
4494,G#4,628.0,0.5,95,136.0
4495,E4,628.0,0.5,95,136.0
4496,B4,628.5,0.5,95,136.0
4497,E-4,628.5,1.0,95,136.0
4498,B3,628.5,1.0,95,136.0
4499,G#3,628.5,1.0,95,136.0
4500,G#2,628.75,0.25,95,136.0
4501,G#4,629.0,0.5,95,136.0
4502,E-2,629.0,0.5,63,136.0
4503,F#4,629.5,1.0,95,136.0
4504,E-2,629.5,0.5,95,136.0
4505,C#4,629.5,1.0,95,136.0
4506,B-3,629.5,1.0,95,136.0
4507,F#3,629.5,1.0,95,136.0
4508,F#2,630.0,0.5,95,136.0
4509,E4,630.5,0.5,95,136.0
4510,G#2,630.5,0.5,95,136.0
4511,B-3,630.5,1.0,95,136.0
4512,F#3,630.5,1.0,95,136.0
4513,E-4,631.0,0.5,95,136.0
4514,F#2,631.0,0.5,95,136.0
4515,E4,631.5,0.5,95,136.0
4516,E2,631.5,0.5,95,136.0
4517,E-4,631.5,0.5,95,136.0
4518,B3,631.5,0.5,95,136.0
4519,G#3,631.5,0.5,95,136.0
4520,E4,632.0,0.5,95,136.0
4521,E2,632.0,1.5,95,136.0
4522,E-4,632.0,1.5,95,136.0
4523,B3,632.0,1.5,95,136.0
4524,G#3,632.0,1.5,95,136.0
4525,E-2,633.5,0.25,79,136.0
4526,C#4,633.5,2.5,95,136.0
4527,B-3,633.5,2.5,95,136.0
4528,F#3,633.5,2.5,95,136.0
4529,E-2,633.75,0.25,95,136.0
4530,F#2,634.0,0.75,95,136.0
4531,F#2,634.75,0.75,95,136.0
4532,E-2,635.5,0.25,95,136.0
4533,B4,636.5,0.5,95,136.0
4534,E-4,636.5,1.0,95,136.0
4535,B3,636.5,1.0,95,136.0
4536,G#3,636.5,1.0,95,136.0
4537,G#2,636.75,0.25,95,136.0
4538,A4,637.0,0.5,95,136.0
4539,E-2,637.0,0.5,63,136.0
4540,G#4,637.5,1.0,95,136.0
4541,E-2,637.5,0.5,95,136.0
4542,C#4,637.5,1.0,95,136.0
4543,B-3,637.5,1.0,95,136.0
4544,F#3,637.5,1.0,95,136.0
4545,F#2,638.0,0.5,95,136.0
4546,F#4,638.5,1.0,95,136.0
4547,B2,638.5,0.5,95,136.0
4548,B-3,638.5,1.0,95,136.0
4549,F#3,638.5,1.0,95,136.0
4550,F#2,639.0,0.5,95,136.0
4551,B4,639.5,0.5,95,136.0
4552,E2,639.5,0.5,95,136.0
4553,E-4,639.5,0.5,95,136.0
4554,B3,639.5,0.5,95,136.0
4555,G#3,639.5,0.5,95,136.0
4556,B4,639.5,0.5,95,136.0
4557,F#4,639.5,0.5,95,136.0
4558,E-4,639.5,0.5,95,136.0
4559,B4,640.0,0.5,95,136.0
4560,E2,640.0,1.5,95,136.0
4561,E-4,640.0,1.5,95,136.0
4562,B3,640.0,1.5,95,136.0
4563,G#3,640.0,1.5,95,136.0
4564,B4,640.0,0.5,95,136.0
4565,F#4,640.0,0.5,95,136.0
4566,E-4,640.0,0.5,95,136.0
4567,C#5,640.5,0.5,95,136.0
4568,C#5,640.5,0.5,95,136.0
4569,B4,640.5,0.5,95,136.0
4570,F#4,640.5,0.5,95,136.0
4571,E-5,641.0,0.5,95,136.0
4572,E-5,641.0,0.5,95,136.0
4573,B4,641.0,0.5,95,136.0
4574,F#4,641.0,0.5,95,136.0
4575,E5,641.5,0.5,95,136.0
4576,F#2,641.5,0.25,95,136.0
4577,C#4,641.5,2.0,95,136.0
4578,B-3,641.5,2.0,95,136.0
4579,F#3,641.5,2.0,95,136.0
4580,E5,641.5,0.5,95,136.0
4581,C#5,641.5,0.5,95,136.0
4582,G#4,641.5,0.5,95,136.0
4583,E-2,641.75,0.25,95,136.0
4584,F#2,642.0,0.75,95,136.0
4585,C#4,642.5,0.5,95,136.0
4586,F#2,642.75,0.75,95,136.0
4587,E-4,643.0,0.5,95,136.0
4588,E4,643.5,0.5,95,136.0
4589,C#4,643.5,0.5,95,136.0
4590,A1,643.5,0.5,95,136.0
4591,G#4,643.5,0.5,95,136.0
4592,E4,643.5,0.5,95,136.0
4593,A3,643.5,0.5,95,136.0
4594,C#6,643.5,0.5,79,136.0
4595,C#5,643.5,0.5,79,136.0
4596,E4,644.0,0.5,95,136.0
4597,C#4,644.0,0.5,95,136.0
4598,A1,644.0,0.5,95,136.0
4599,G#4,644.0,0.75,95,136.0
4600,E4,644.0,0.75,95,136.0
4601,A3,644.0,0.75,95,136.0
4602,E-6,644.0,0.5,79,136.0
4603,E-5,644.0,0.5,79,136.0
4604,C#4,644.5,0.25,95,136.0
4605,E6,644.5,0.5,95,136.0
4606,E5,644.5,0.5,63,136.0
4607,A1,644.5,0.5,95,136.0
4608,E6,645.0,0.5,95,136.0
4609,C#3,645.0,0.5,63,136.0
4610,A1,645.0,0.5,95,136.0
4611,G#3,645.5,0.5,63,136.0
4612,B1,645.5,2.0,95,136.0
4613,F#4,645.5,1.0,95,136.0
4614,E-4,645.5,1.0,95,136.0
4615,B3,645.5,1.0,95,136.0
4616,G#6,645.5,1.0,79,136.0
4617,G#5,645.5,1.0,79,136.0
4618,C#3,646.0,0.5,63,136.0
4619,E4,646.5,0.5,95,136.0
4620,C#4,646.5,0.5,95,136.0
4621,A3,646.5,0.5,63,136.0
4622,F#6,646.5,1.0,79,136.0
4623,F#5,646.5,1.0,79,136.0
4624,F#4,647.0,0.5,95,136.0
4625,E-4,647.0,0.5,95,136.0
4626,C#3,647.0,0.5,63,136.0
4627,G#4,647.5,0.5,95,136.0
4628,B2,647.5,0.5,63,136.0
4629,C#2,647.5,0.5,95,136.0
4630,G#4,647.5,0.5,95,136.0
4631,E4,647.5,0.5,95,136.0
4632,C#4,647.5,0.5,95,136.0
4633,B6,647.5,1.0,79,136.0
4634,B5,647.5,1.0,79,136.0
4635,G#4,648.0,0.5,95,136.0
4636,C#3,648.0,0.5,63,136.0
4637,C#2,648.0,1.5,95,136.0
4638,G#4,648.0,0.5,95,136.0
4639,E4,648.0,0.5,95,136.0
4640,C#4,648.0,0.5,95,136.0
4641,A4,648.5,0.5,95,136.0
4642,C#4,648.5,0.25,95,136.0
4643,C#3,648.5,1.0,63,136.0
4644,E6,648.5,0.5,79,136.0
4645,E5,648.5,0.5,79,136.0
4646,G#4,649.0,0.5,95,136.0
4647,F#4,649.5,1.0,95,136.0
4648,E3,649.5,0.5,63,136.0
4649,B1,649.5,0.5,95,136.0
4650,G#4,649.5,0.5,95,136.0
4651,E4,649.5,0.5,95,136.0
4652,C#4,649.5,0.5,95,136.0
4653,A3,649.5,0.5,95,136.0
4654,F#4,649.5,1.0,95,136.0
4655,E-4,649.5,1.0,95,136.0
4656,B3,649.5,1.0,95,136.0
4657,B2,650.0,1.0,63,136.0
4658,G#4,650.0,0.75,95,136.0
4659,E4,650.0,0.75,95,136.0
4660,C#4,650.0,0.75,95,136.0
4661,A3,650.0,0.75,95,136.0
4662,C#5,650.5,0.5,95,136.0
4663,B3,650.5,0.25,95,136.0
4664,G#1,650.5,0.5,95,136.0
4665,E-5,651.0,0.5,95,136.0
4666,E5,651.5,0.5,95,136.0
4667,A1,651.5,0.5,95,136.0
4668,F#4,651.5,2.0,95,136.0
4669,E-4,651.5,2.0,95,136.0
4670,B3,651.5,2.0,95,136.0
4671,G#4,651.5,0.5,95,136.0
4672,E4,651.5,0.5,95,136.0
4673,A3,651.5,0.5,95,136.0
4674,G#4,651.5,0.25,95,136.0
4675,E-4,651.5,0.25,95,136.0
4676,B3,651.5,0.25,95,136.0
4677,E5,651.5,0.5,95,136.0
4678,C#5,651.5,0.5,95,136.0
4679,G#4,651.5,0.5,95,136.0
4680,E5,652.0,0.5,95,136.0
4681,A1,652.0,1.5,95,136.0
4682,G#4,652.0,0.5,95,136.0
4683,E4,652.0,0.5,95,136.0
4684,A3,652.0,0.5,95,136.0
4685,C#4,652.5,0.5,95,136.0
4686,C#5,652.5,0.25,95,136.0
4687,G#4,652.5,0.25,95,136.0
4688,E4,652.5,0.25,95,136.0
4689,F#4,653.5,2.5,95,136.0
4690,E-4,653.5,1.0,95,136.0
4691,B3,653.5,2.0,95,136.0
4692,B1,653.5,2.0,95,136.0
4693,G#4,653.5,0.5,95,136.0
4694,E4,653.5,0.5,95,136.0
4695,C#4,653.5,0.5,95,136.0
4696,E-5,653.5,1.5,95,136.0
4697,B4,653.5,1.5,95,136.0
4698,F#4,653.5,1.5,95,136.0
4699,G#4,654.0,1.5,95,136.0
4700,E4,654.0,1.5,95,136.0
4701,C#4,654.0,1.5,95,136.0
4702,C#5,654.5,0.5,95,136.0
4703,E4,654.5,0.5,95,136.0
4704,E-5,655.0,0.5,95,136.0
4705,E-4,655.0,0.5,95,136.0
4706,E5,655.0,0.5,95,136.0
4707,E5,655.5,0.5,95,136.0
4708,F#5,655.5,0.5,95,136.0
4709,C#2,655.5,0.5,95,136.0
4710,F#4,655.5,2.0,95,136.0
4711,E-4,655.5,2.0,95,136.0
4712,B3,655.5,2.0,95,136.0
4713,C#4,655.5,0.5,95,136.0
4714,G#3,655.5,0.5,95,136.0
4715,E5,655.5,0.5,95,136.0
4716,C#5,655.5,0.5,95,136.0
4717,G#4,655.5,0.5,95,136.0
4718,E5,656.0,0.5,95,136.0
4719,G#5,656.0,0.5,95,136.0
4720,C#2,656.0,0.5,95,136.0
4721,C#4,656.0,0.5,95,136.0
4722,G#3,656.0,0.5,95,136.0
4723,F#5,656.5,0.5,95,136.0
4724,G#5,656.5,0.5,95,136.0
4725,G#1,656.5,0.5,95,136.0
4726,G#4,656.5,1.0,95,136.0
4727,E4,656.5,1.0,95,136.0
4728,C#4,656.5,1.0,95,136.0
4729,E5,657.0,0.5,95,136.0
4730,A5,657.0,0.5,95,136.0
4731,C#2,657.0,0.5,95,136.0
4732,E-5,657.5,1.0,95,136.0
4733,F#4,657.5,1.0,95,136.0
4734,G#5,657.5,0.5,95,136.0
4735,E2,657.5,0.5,95,136.0
4736,G#4,657.5,0.5,95,136.0
4737,E4,657.5,0.5,95,136.0
4738,A3,657.5,0.5,95,136.0
4739,E-4,657.5,2.0,95,136.0
4740,B3,657.5,2.0,95,136.0
4741,E-5,657.5,0.5,95,136.0
4742,B4,657.5,0.5,95,136.0
4743,F#4,657.5,0.5,95,136.0
4744,F#5,658.0,1.0,95,136.0
4745,E-2,658.0,0.5,95,136.0
4746,B4,658.5,0.5,95,136.0
4747,B4,658.5,1.0,95,136.0
4748,B1,658.5,0.5,95,136.0
4749,B4,658.5,0.5,95,136.0
4750,F#4,658.5,0.5,95,136.0
4751,C#5,659.0,0.25,79,136.0
4752,E5,659.0,0.5,95,136.0
4753,E1,659.0,0.5,95,136.0
4754,E5,659.25,0.25,95,136.0
4755,C#5,659.5,0.5,95,136.0
4756,C#4,659.5,0.5,95,136.0
4757,B4,659.5,0.5,95,136.0
4758,A1,659.5,0.5,95,136.0
4759,G#4,659.5,1.5,95,136.0
4760,E4,659.5,1.5,95,136.0
4761,A3,659.5,1.5,95,136.0
4762,G#4,659.5,0.5,95,136.0
4763,E4,659.5,0.5,95,136.0
4764,A3,659.5,0.5,95,136.0
4765,C#5,659.5,0.5,95,136.0
4766,G#4,659.5,0.5,95,136.0
4767,E4,659.5,0.5,95,136.0
4768,C#5,660.0,0.5,95,136.0
4769,C#4,660.0,0.5,95,136.0
4770,G#5,660.0,0.5,95,136.0
4771,A1,660.0,0.5,95,136.0
4772,G#4,660.0,0.75,95,136.0
4773,E4,660.0,0.75,95,136.0
4774,A3,660.0,0.75,95,136.0
4775,C#5,660.0,0.5,95,136.0
4776,G#4,660.0,0.5,95,136.0
4777,E4,660.0,0.5,95,136.0
4778,B4,660.5,0.5,95,136.0
4779,C#4,660.5,0.25,95,136.0
4780,C#5,660.5,1.5,95,136.0
4781,A1,660.5,0.5,95,136.0
4782,G#4,661.0,0.5,95,136.0
4783,A1,661.0,0.5,95,136.0
4784,F#4,661.0,2.0,95,136.0
4785,E-4,661.0,2.0,95,136.0
4786,B3,661.0,2.0,95,136.0
4787,F#4,661.5,1.0,95,136.0
4788,B1,661.5,0.5,95,136.0
4789,F#4,661.5,1.0,95,136.0
4790,E-4,661.5,1.0,95,136.0
4791,B3,661.5,1.0,95,136.0
4792,C#5,662.0,0.5,95,136.0
4793,B1,662.0,0.5,95,136.0
4794,E4,662.5,0.5,95,136.0
4795,E4,662.5,0.5,95,136.0
4796,G#5,662.5,0.5,95,136.0
4797,B1,662.5,0.5,95,136.0
4798,E-4,663.0,0.5,95,136.0
4799,B5,663.0,0.5,95,136.0
4800,B1,663.0,0.5,95,136.0
4801,C#4,663.0,0.5,95,136.0
4802,G#3,663.0,0.5,95,136.0
4803,E4,663.5,0.5,95,136.0
4804,B5,663.5,0.5,95,136.0
4805,G#1,663.5,0.5,95,136.0
4806,F#4,663.5,0.5,95,136.0
4807,E-4,663.5,0.5,95,136.0
4808,B3,663.5,0.5,95,136.0
4809,E4,664.0,0.5,95,136.0
4810,F#5,664.0,0.5,95,136.0
4811,G#1,664.0,0.5,95,136.0
4812,C#4,664.0,0.5,95,136.0
4813,G#3,664.0,0.5,95,136.0
4814,F#4,664.0,0.5,95,136.0
4815,E-4,664.0,0.5,95,136.0
4816,B3,664.0,0.5,95,136.0
4817,C#4,664.5,0.5,95,136.0
4818,F#5,664.5,0.5,95,136.0
4819,G#1,664.5,0.5,95,136.0
4820,G#4,664.5,1.0,95,136.0
4821,E4,664.5,1.0,95,136.0
4822,C#4,664.5,1.0,95,136.0
4823,E-4,665.0,0.5,95,136.0
4824,E5,665.0,0.5,95,136.0
4825,F#1,665.0,0.5,95,136.0
4826,F#4,665.5,1.0,95,136.0
4827,C#5,665.5,0.5,95,136.0
4828,A1,665.5,1.0,95,136.0
4829,E-4,665.5,2.0,95,136.0
4830,B3,665.5,2.0,95,136.0
4831,G#4,665.5,1.0,95,136.0
4832,E4,665.5,1.0,95,136.0
4833,C#4,665.5,1.0,95,136.0
4834,A3,665.5,1.0,95,136.0
4835,C#5,666.0,1.0,95,136.0
4836,B4,666.5,1.0,95,136.0
4837,C#4,666.5,0.5,95,136.0
4838,A1,666.5,0.5,95,136.0
4839,E-4,667.0,0.5,95,136.0
4840,G#1,667.0,0.5,95,136.0
4841,F#1,667.5,0.5,95,136.0
4842,G#4,667.5,0.5,95,136.0
4843,E4,667.5,0.5,95,136.0
4844,C#4,667.5,0.5,95,136.0
4845,A3,667.5,0.5,95,136.0
4846,G#4,667.5,0.5,95,136.0
4847,E4,667.5,0.5,95,136.0
4848,C#4,667.5,0.5,95,136.0
4849,F#1,668.0,0.5,95,136.0
4850,G#4,668.0,1.5,95,136.0
4851,E4,668.0,1.5,95,136.0
4852,C#4,668.0,1.5,95,136.0
4853,A3,668.0,1.5,95,136.0
4854,G#4,668.0,2.0,95,136.0
4855,E4,668.0,2.0,95,136.0
4856,C#4,668.0,2.0,95,136.0
4857,B4,668.5,0.5,95,136.0
4858,F#1,668.5,0.5,95,136.0
4859,A4,669.0,0.5,95,136.0
4860,F#1,669.0,0.5,95,136.0
4861,G#4,669.5,1.0,95,136.0
4862,F#1,669.5,0.5,95,136.0
4863,F#4,669.5,2.0,95,136.0
4864,E-4,669.5,2.0,95,136.0
4865,B3,669.5,2.0,95,136.0
4866,F#1,670.0,0.5,95,136.0
4867,F#4,670.5,1.0,95,136.0
4868,E4,670.5,0.5,95,136.0
4869,F#1,670.5,0.5,95,136.0
4870,F#4,671.0,0.5,95,136.0
4871,G#1,671.0,0.5,95,136.0
4872,B4,671.5,0.5,95,136.0
4873,G#4,671.5,0.5,95,136.0
4874,A1,671.5,0.5,95,136.0
4875,F#4,671.5,0.5,95,136.0
4876,E-4,671.5,0.5,95,136.0
4877,B3,671.5,0.5,95,136.0
4878,E4,671.5,0.5,95,136.0
4879,C#4,671.5,0.5,95,136.0
4880,B4,671.5,0.5,95,136.0
4881,F#4,671.5,0.5,95,136.0
4882,E-4,671.5,0.5,95,136.0
4883,B4,672.0,0.5,95,136.0
4884,G#4,672.0,0.5,95,136.0
4885,A1,672.0,1.0,95,136.0
4886,F#4,672.0,1.5,95,136.0
4887,E-4,672.0,1.5,95,136.0
4888,B3,672.0,1.5,95,136.0
4889,E4,672.0,1.5,95,136.0
4890,C#4,672.0,1.5,95,136.0
4891,B4,672.0,0.5,95,136.0
4892,F#4,672.0,0.5,95,136.0
4893,E-4,672.0,0.5,95,136.0
4894,C#5,672.5,0.5,95,136.0
4895,A4,672.5,0.5,95,136.0
4896,C#5,672.5,0.5,95,136.0
4897,B4,672.5,0.5,95,136.0
4898,F#4,672.5,0.5,95,136.0
4899,E-5,673.0,0.5,95,136.0
4900,G#4,673.0,0.5,95,136.0
4901,C#2,673.0,0.5,95,136.0
4902,E-5,673.0,0.5,95,136.0
4903,B4,673.0,0.5,95,136.0
4904,F#4,673.0,0.5,95,136.0
4905,E5,673.5,0.5,95,136.0
4906,B1,673.5,1.0,95,136.0
4907,G#4,673.5,2.0,95,136.0
4908,E4,673.5,2.0,95,136.0
4909,C#4,673.5,2.0,95,136.0
4910,A3,673.5,2.0,95,136.0
4911,F#4,673.5,1.0,95,136.0
4912,B3,673.5,1.0,95,136.0
4913,E5,673.5,0.5,95,136.0
4914,C#5,673.5,0.5,95,136.0
4915,G#4,673.5,0.5,95,136.0
4916,C#4,674.5,0.5,95,136.0
4917,G#1,674.5,0.5,95,136.0
4918,E-4,675.0,0.5,95,136.0
4919,B1,675.0,0.5,95,136.0
4920,E4,675.5,0.5,95,136.0
4921,C#4,675.5,0.5,95,136.0
4922,A1,675.5,0.5,95,136.0
4923,G#4,675.5,0.5,95,136.0
4924,E4,675.5,0.5,95,136.0
4925,C#4,675.5,0.5,95,136.0
4926,G#4,675.5,0.5,95,136.0
4927,E4,675.5,0.5,95,136.0
4928,A3,675.5,0.5,95,136.0
4929,C#6,675.5,0.5,79,136.0
4930,C#5,675.5,0.5,79,136.0
4931,E4,676.0,0.5,95,136.0
4932,C#4,676.0,0.5,95,136.0
4933,A1,676.0,0.5,95,136.0
4934,G#4,676.0,2.5,95,136.0
4935,E4,676.0,2.5,95,136.0
4936,C#4,676.0,2.5,95,136.0
4937,G#4,676.0,0.75,95,136.0
4938,E4,676.0,0.75,95,136.0
4939,A3,676.0,0.75,95,136.0
4940,E-6,676.0,0.5,79,136.0
4941,E-5,676.0,0.5,79,136.0
4942,C#4,676.5,0.25,95,136.0
4943,E6,676.5,0.5,95,136.0
4944,E5,676.5,0.5,63,136.0
4945,A1,676.5,0.5,95,136.0
4946,E6,677.0,0.5,95,136.0
4947,C#3,677.0,0.5,63,136.0
4948,A1,677.0,0.5,95,136.0
4949,G#3,677.5,0.5,63,136.0
4950,B1,677.5,2.0,95,136.0
4951,F#4,677.5,1.0,95,136.0
4952,E-4,677.5,1.0,95,136.0
4953,B3,677.5,1.0,95,136.0
4954,G#6,677.5,1.0,79,136.0
4955,G#5,677.5,1.0,79,136.0
4956,C#3,678.0,0.5,63,136.0
4957,E4,678.5,0.5,95,136.0
4958,E4,678.5,0.5,95,136.0
4959,C#4,678.5,0.5,95,136.0
4960,A3,678.5,0.5,63,136.0
4961,F#6,678.5,1.0,79,136.0
4962,F#5,678.5,1.0,79,136.0
4963,F#4,679.0,0.5,95,136.0
4964,F#4,679.0,0.5,95,136.0
4965,E-4,679.0,0.5,95,136.0
4966,C#3,679.0,0.5,63,136.0
4967,G#4,679.5,0.5,95,136.0
4968,G#4,679.5,0.5,95,136.0
4969,B2,679.5,0.5,63,136.0
4970,C#2,679.5,0.5,95,136.0
4971,E4,679.5,0.5,95,136.0
4972,C#4,679.5,0.5,95,136.0
4973,G#4,679.5,0.5,95,136.0
4974,E4,679.5,0.5,95,136.0
4975,C#4,679.5,0.5,95,136.0
4976,B6,679.5,1.0,79,136.0
4977,B5,679.5,1.0,79,136.0
4978,G#4,680.0,0.5,95,136.0
4979,G#4,680.0,0.5,95,136.0
4980,C#3,680.0,0.5,63,136.0
4981,C#2,680.0,1.5,95,136.0
4982,E4,680.0,1.5,95,136.0
4983,C#4,680.0,1.5,95,136.0
4984,G#4,680.0,0.5,95,136.0
4985,E4,680.0,0.5,95,136.0
4986,C#4,680.0,0.5,95,136.0
4987,A4,680.5,0.5,95,136.0
4988,A4,680.5,0.5,95,136.0
4989,C#4,680.5,0.25,95,136.0
4990,C#3,680.5,1.0,63,136.0
4991,E6,680.5,0.5,79,136.0
4992,E5,680.5,0.5,79,136.0
4993,G#4,681.0,0.5,95,136.0
4994,G#4,681.0,0.5,95,136.0
4995,F#4,681.5,1.0,95,136.0
4996,E3,681.5,0.5,63,136.0
4997,B1,681.5,0.5,95,136.0
4998,F#4,681.5,2.0,95,136.0
4999,B3,681.5,2.0,95,136.0
5000,F#4,681.5,1.0,95,136.0
5001,E-4,681.5,1.0,95,136.0
5002,B3,681.5,1.0,95,136.0
5003,B2,682.0,1.0,63,136.0
5004,E4,682.5,0.5,95,136.0
5005,B3,682.5,0.25,95,136.0
5006,G#1,682.5,0.5,95,136.0
5007,E-4,683.0,0.5,95,136.0
5008,E3,683.0,0.5,63,136.0
5009,C#4,683.5,0.5,95,136.0
5010,E-3,683.5,0.5,63,136.0
5011,A1,683.5,0.5,95,136.0
5012,G#4,683.5,0.5,95,136.0
5013,E4,683.5,0.5,95,136.0
5014,C#4,683.5,0.5,95,136.0
5015,A3,683.5,0.5,95,136.0
5016,G#4,683.5,0.5,95,136.0
5017,E4,683.5,0.5,95,136.0
5018,A3,683.5,0.5,95,136.0
5019,C#3,684.0,0.5,63,136.0
5020,A1,684.0,1.5,95,136.0
5021,G#4,684.0,0.75,95,136.0
5022,E4,684.0,0.75,95,136.0
5023,C#4,684.0,0.75,95,136.0
5024,A3,684.0,0.75,95,136.0
5025,G#4,684.0,0.5,95,136.0
5026,E4,684.0,0.5,95,136.0
5027,A3,684.0,0.5,95,136.0
5028,C#4,684.5,0.5,95,136.0
5029,E4,684.5,0.5,95,136.0
5030,C#4,684.5,0.5,95,136.0
5031,F#4,685.5,2.5,95,136.0
5032,E-4,685.5,1.0,95,136.0
5033,B3,685.5,2.0,95,136.0
5034,B1,685.5,2.0,95,136.0
5035,F#4,685.5,2.0,95,136.0
5036,E-4,685.5,2.0,95,136.0
5037,B3,685.5,2.0,95,136.0
5038,E-4,685.5,0.5,95,136.0
5039,B3,685.5,0.5,95,136.0
5040,E4,686.5,0.5,95,136.0
5041,E-4,686.5,0.5,95,136.0
5042,B3,686.5,0.5,95,136.0
5043,E-4,687.0,0.5,95,136.0
5044,C#2,687.5,0.5,95,136.0
5045,G#4,687.5,0.5,95,136.0
5046,E4,687.5,0.5,95,136.0
5047,C#4,687.5,0.5,95,136.0
5048,C#4,687.5,0.5,95,136.0
5049,G#3,687.5,0.5,95,136.0
5050,E4,687.5,0.5,95,136.0
5051,C#4,687.5,0.5,95,136.0
5052,G#4,688.0,0.5,95,136.0
5053,C#2,688.0,0.5,95,136.0
5054,G#4,688.0,1.5,95,136.0
5055,E4,688.0,1.5,95,136.0
5056,C#4,688.0,1.5,95,136.0
5057,C#4,688.0,0.5,95,136.0
5058,G#3,688.0,0.5,95,136.0
5059,G#4,688.5,0.5,95,136.0
5060,G#1,688.5,0.5,95,136.0
5061,G#4,688.5,1.0,95,136.0
5062,E4,688.5,1.0,95,136.0
5063,C#4,688.5,1.0,95,136.0
5064,E4,688.5,0.5,95,136.0
5065,C#4,688.5,0.5,95,136.0
5066,A4,689.0,0.5,95,136.0
5067,C#2,689.0,0.5,95,136.0
5068,F#4,689.5,1.0,95,136.0
5069,G#4,689.5,0.5,95,136.0
5070,E2,689.5,0.5,95,136.0
5071,F#4,689.5,2.0,95,136.0
5072,E-4,689.5,2.0,95,136.0
5073,B3,689.5,2.0,95,136.0
5074,E-4,689.5,2.0,95,136.0
5075,B3,689.5,2.0,95,136.0
5076,G#4,689.5,0.5,95,136.0
5077,E-4,689.5,0.5,95,136.0
5078,B3,689.5,0.5,95,136.0
5079,F#4,690.0,1.0,95,136.0
5080,E-2,690.0,0.5,95,136.0
5081,B4,690.5,1.0,95,136.0
5082,B1,690.5,0.5,95,136.0
5083,E-4,690.5,0.5,95,136.0
5084,B3,690.5,0.5,95,136.0
5085,E4,691.0,0.5,95,136.0
5086,E1,691.0,0.5,95,136.0
5087,C#4,691.5,0.5,95,136.0
5088,E-4,691.5,0.5,95,136.0
5089,A1,691.5,0.5,95,136.0
5090,G#4,691.5,0.5,95,136.0
5091,E4,691.5,0.5,95,136.0
5092,A3,691.5,0.5,95,136.0
5093,G#4,691.5,0.5,95,136.0
5094,E4,691.5,0.5,95,136.0
5095,A3,691.5,0.5,95,136.0
5096,E4,691.5,0.25,95,136.0
5097,C#4,691.5,0.25,95,136.0
5098,C#4,692.0,0.5,95,136.0
5099,C#4,692.0,0.5,95,136.0
5100,A1,692.0,0.5,95,136.0
5101,G#4,692.0,1.5,95,136.0
5102,E4,692.0,1.5,95,136.0
5103,A3,692.0,1.5,95,136.0
5104,G#4,692.0,0.75,95,136.0
5105,E4,692.0,0.75,95,136.0
5106,A3,692.0,0.75,95,136.0
5107,C#4,692.5,0.25,95,136.0
5108,C#4,692.5,3.0,95,136.0
5109,A1,692.5,0.5,95,136.0
5110,E4,692.5,0.5,95,136.0
5111,C#4,692.5,0.5,95,136.0
5112,A1,693.0,0.5,95,136.0
5113,B1,693.5,0.5,95,136.0
5114,F#4,693.5,2.0,95,136.0
5115,E-4,693.5,2.0,95,136.0
5116,B3,693.5,2.0,95,136.0
5117,F#4,693.5,1.0,95,136.0
5118,E-4,693.5,1.0,95,136.0
5119,B3,693.5,1.0,95,136.0
5120,E-4,693.5,0.5,95,136.0
5121,B3,693.5,0.5,95,136.0
5122,B1,694.0,0.5,95,136.0
5123,E4,694.5,0.5,95,136.0
5124,B1,694.5,0.5,95,136.0
5125,E-4,694.5,0.5,95,136.0
5126,B3,694.5,0.5,95,136.0
5127,B1,695.0,0.5,95,136.0
5128,G#1,695.5,0.5,95,136.0
5129,C#4,695.5,0.5,95,136.0
5130,G#3,695.5,0.5,95,136.0
5131,F#4,695.5,0.5,95,136.0
5132,E-4,695.5,0.5,95,136.0
5133,B3,695.5,0.5,95,136.0
5134,G#4,695.5,0.5,95,136.0
5135,C#4,695.5,0.5,95,136.0
5136,G#4,696.0,0.5,95,136.0
5137,G#1,696.0,0.5,95,136.0
5138,C#4,696.0,0.5,95,136.0
5139,G#3,696.0,0.5,95,136.0
5140,F#4,696.0,0.5,95,136.0
5141,E-4,696.0,0.5,95,136.0
5142,B3,696.0,0.5,95,136.0
5143,C#4,696.5,0.5,95,136.0
5144,G#4,696.5,0.5,95,136.0
5145,G#1,696.5,0.5,95,136.0
5146,G#4,696.5,1.0,95,136.0
5147,E4,696.5,1.0,95,136.0
5148,C#4,696.5,1.0,95,136.0
5149,G#4,696.5,0.5,95,136.0
5150,C#4,696.5,0.5,95,136.0
5151,E-4,697.0,0.5,95,136.0
5152,A4,697.0,0.5,95,136.0
5153,F#1,697.0,0.5,95,136.0
5154,F#4,697.5,1.0,95,136.0
5155,E4,697.5,1.0,63,136.0
5156,G#4,697.5,0.5,63,136.0
5157,A1,697.5,1.0,95,136.0
5158,E-4,697.5,2.0,95,136.0
5159,B3,697.5,2.0,95,136.0
5160,G#4,697.5,1.0,95,136.0
5161,E4,697.5,1.0,95,136.0
5162,C#4,697.5,1.0,95,136.0
5163,A3,697.5,1.0,95,136.0
5164,F#4,697.5,0.5,95,136.0
5165,E-4,697.5,0.5,95,136.0
5166,B3,697.5,0.5,95,136.0
5167,F#4,698.0,1.0,63,136.0
5168,B4,698.5,1.0,95,136.0
5169,C#4,698.5,0.5,95,136.0
5170,E-4,698.5,1.0,63,136.0
5171,A1,698.5,0.5,95,136.0
5172,E-4,698.5,0.5,95,136.0
5173,B3,698.5,0.5,95,136.0
5174,E-4,699.0,0.5,95,136.0
5175,E4,699.0,0.5,63,136.0
5176,G#1,699.0,0.5,95,136.0
5177,B3,699.5,1.0,63,136.0
5178,E-4,699.5,0.5,63,136.0
5179,F#1,699.5,0.5,95,136.0
5180,G#4,699.5,0.5,95,136.0
5181,E4,699.5,0.5,95,136.0
5182,C#4,699.5,0.5,95,136.0
5183,A3,699.5,0.5,95,136.0
5184,G#4,699.5,0.5,95,136.0
5185,E4,699.5,0.5,95,136.0
5186,C#4,699.5,0.5,95,136.0
5187,E4,699.5,0.25,95,136.0
5188,C#4,699.5,0.25,95,136.0
5189,C#4,700.0,0.5,63,136.0
5190,F#1,700.0,0.5,95,136.0
5191,G#4,700.0,1.5,95,136.0
5192,E4,700.0,1.5,95,136.0
5193,C#4,700.0,1.5,95,136.0
5194,A3,700.0,1.5,95,136.0
5195,G#4,700.0,2.0,95,136.0
5196,E4,700.0,2.0,95,136.0
5197,C#4,700.0,2.0,95,136.0
5198,C#4,700.5,0.5,63,136.0
5199,C#4,700.5,3.0,63,136.0
5200,F#1,700.5,0.5,95,136.0
5201,E4,700.5,0.5,95,136.0
5202,C#4,700.5,0.5,95,136.0
5203,C#4,701.0,1.5,63,136.0
5204,F#1,701.0,0.5,95,136.0
5205,F#1,701.5,0.5,95,136.0
5206,F#4,701.5,2.0,95,136.0
5207,E-4,701.5,2.0,95,136.0
5208,B3,701.5,2.0,95,136.0
5209,E-4,701.5,0.5,95,136.0
5210,B3,701.5,0.5,95,136.0
5211,F#1,702.0,0.5,95,136.0
5212,E4,702.5,0.5,95,136.0
5213,E-4,702.5,2.5,63,136.0
5214,F#1,702.5,0.5,95,136.0
5215,E-4,702.5,0.5,95,136.0
5216,B3,702.5,0.5,95,136.0
5217,F#4,703.0,0.5,95,136.0
5218,G#1,703.0,0.5,95,136.0
5219,G#4,703.5,0.5,95,136.0
5220,A1,703.5,0.5,95,136.0
5221,F#4,703.5,0.5,95,136.0
5222,E-4,703.5,0.5,95,136.0
5223,B3,703.5,0.5,95,136.0
5224,E4,703.5,0.5,95,136.0
5225,C#4,703.5,0.5,95,136.0
5226,E4,703.5,0.5,95,136.0
5227,C#4,703.5,0.5,95,136.0
5228,G#4,704.0,0.5,95,136.0
5229,C#5,704.0,0.5,63,136.0
5230,A1,704.0,1.0,95,136.0
5231,F#4,704.0,1.5,95,136.0
5232,E-4,704.0,1.5,95,136.0
5233,B3,704.0,1.5,95,136.0
5234,E4,704.0,1.5,95,136.0
5235,C#4,704.0,1.5,95,136.0
5236,A4,704.5,0.5,95,136.0
5237,C#5,704.5,0.5,63,136.0
5238,E4,704.5,0.5,95,136.0
5239,C#4,704.5,0.5,95,136.0
5240,G#4,705.0,0.5,95,136.0
5241,E4,705.0,1.5,63,136.0
5242,E5,705.0,0.5,63,136.0
5243,C#2,705.0,0.5,95,136.0
5244,E-5,705.5,0.5,63,136.0
5245,B1,705.5,1.0,95,136.0
5246,G#4,705.5,2.0,95,136.0
5247,E4,705.5,2.0,95,136.0
5248,C#4,705.5,2.0,95,136.0
5249,A3,705.5,2.0,95,136.0
5250,F#4,705.5,1.0,95,136.0
5251,B3,705.5,1.0,95,136.0
5252,G#4,705.5,0.5,95,136.0
5253,E-4,705.5,0.5,95,136.0
5254,B3,705.5,0.5,95,136.0
5255,B4,706.0,1.0,79,136.0
5256,E4,706.5,0.5,95,136.0
5257,F#4,706.5,2.0,63,136.0
5258,G#1,706.5,0.5,95,136.0
5259,E-4,706.5,0.5,95,136.0
5260,B3,706.5,0.5,95,136.0
5261,E-4,707.0,0.5,95,136.0
5262,E4,707.0,0.5,79,136.0
5263,B1,707.0,0.5,95,136.0
5264,E-4,707.5,0.5,79,136.0
5265,C#2,707.5,0.5,95,136.0
5266,G#4,707.5,0.5,95,136.0
5267,E4,707.5,0.5,95,136.0
5268,C#4,707.5,0.5,95,136.0
5269,E4,707.5,0.5,95,136.0
5270,C#4,707.5,0.5,95,136.0
5271,E4,707.5,0.25,95,136.0
5272,C#4,707.5,0.25,95,136.0
5273,C#4,708.0,0.5,79,136.0
5274,C#2,708.0,0.75,95,136.0
5275,G#4,708.0,2.5,95,136.0
5276,E4,708.0,2.5,95,136.0
5277,C#4,708.0,2.5,95,136.0
5278,E4,708.0,0.5,95,136.0
5279,C#4,708.0,0.5,95,136.0
5280,G#4,708.5,0.5,63,136.0
5281,C#4,708.5,2.0,79,136.0
5282,E4,708.5,1.0,95,136.0
5283,C#4,708.5,1.0,95,136.0
5284,G#3,708.5,1.0,95,136.0
5285,E4,708.5,0.5,95,136.0
5286,C#4,708.5,0.5,95,136.0
5287,C#2,708.75,0.25,95,136.0
5288,G#4,709.0,1.5,63,136.0
5289,G#1,709.0,0.5,63,136.0
5290,G#1,709.5,0.5,95,136.0
5291,E-4,709.5,1.0,95,136.0
5292,B3,709.5,1.0,95,136.0
5293,G#3,709.5,1.0,95,136.0
5294,E-4,709.5,0.5,95,136.0
5295,B3,709.5,0.5,95,136.0
5296,B1,710.0,0.5,95,136.0
5297,E4,710.5,0.5,95,136.0
5298,F#4,710.5,2.0,63,136.0
5299,C#2,710.5,0.5,95,136.0
5300,B3,710.5,1.0,95,136.0
5301,G#3,710.5,1.0,95,136.0
5302,E-4,710.5,0.5,95,136.0
5303,B3,710.5,0.5,95,136.0
5304,F#4,711.0,0.5,95,136.0
5305,B1,711.0,0.5,95,136.0
5306,F#4,711.5,0.5,63,136.0
5307,G#4,711.5,0.5,95,136.0
5308,A1,711.5,0.5,95,136.0
5309,E4,711.5,0.5,95,136.0
5310,C#4,711.5,0.5,95,136.0
5311,C#4,711.5,0.5,95,136.0
5312,G#3,711.5,0.5,95,136.0
5313,E3,711.5,0.5,95,136.0
5314,G#4,711.5,0.5,95,136.0
5315,C#4,711.5,0.5,95,136.0
5316,F#4,712.0,0.5,63,136.0
5317,G#4,712.0,0.5,95,136.0
5318,A1,712.0,1.5,95,136.0
5319,E4,712.0,1.5,95,136.0
5320,C#4,712.0,1.5,95,136.0
5321,C#4,712.0,1.5,95,136.0
5322,G#3,712.0,1.5,95,136.0
5323,E3,712.0,1.5,95,136.0
5324,A4,712.5,0.5,63,136.0
5325,A4,712.5,0.5,95,136.0
5326,G#4,712.5,0.25,63,136.0
5327,G#4,712.5,0.5,95,136.0
5328,C#4,712.5,0.5,95,136.0
5329,G#4,713.0,0.5,63,136.0
5330,G#4,713.0,0.5,95,136.0
5331,F#4,713.5,1.0,63,136.0
5332,E4,713.5,1.0,63,136.0
5333,G#1,713.5,0.25,79,136.0
5334,F#4,713.5,1.0,95,136.0
5335,B3,713.5,1.0,95,136.0
5336,E-4,713.5,2.5,95,136.0
5337,B3,713.5,2.5,95,136.0
5338,F#3,713.5,2.5,95,136.0
5339,F#4,713.5,0.5,95,136.0
5340,E-4,713.5,0.5,95,136.0
5341,B3,713.5,0.5,95,136.0
5342,G#1,713.75,0.25,95,136.0
5343,B1,714.0,0.75,95,136.0
5344,E4,714.5,0.5,63,136.0
5345,E4,714.5,0.5,95,136.0
5346,E-4,714.5,1.0,63,136.0
5347,E-4,714.5,0.5,95,136.0
5348,B3,714.5,0.5,95,136.0
5349,B1,714.75,0.75,95,136.0
5350,E-4,715.0,0.5,63,136.0
5351,E-4,715.0,0.5,95,136.0
5352,C#4,715.5,0.5,63,136.0
5353,B3,715.5,1.0,63,136.0
5354,G#1,715.5,0.25,95,136.0
5355,E4,715.5,0.5,95,136.0
5356,C#4,715.5,0.5,95,136.0
5357,E4,715.5,0.25,95,136.0
5358,C#4,715.5,0.25,95,136.0
5359,C#4,716.0,4.0,63,136.0
5360,E-4,716.0,0.5,95,136.0
5361,B3,716.0,0.5,95,136.0
5362,F#3,716.0,0.5,95,136.0
5363,G#4,716.5,0.5,63,136.0
5364,C#4,716.5,0.5,63,136.0
5365,E4,716.5,1.0,95,136.0
5366,C#4,716.5,1.0,95,136.0
5367,G#3,716.5,1.0,95,136.0
5368,E4,716.5,0.5,95,136.0
5369,C#4,716.5,0.5,95,136.0
5370,C#2,716.75,0.25,95,136.0
5371,B4,717.0,0.5,79,136.0
5372,C#4,717.0,1.5,63,136.0
5373,G#1,717.0,0.5,63,136.0
5374,F#4,717.5,1.0,63,136.0
5375,G#1,717.5,0.5,95,136.0
5376,E-4,717.5,1.0,95,136.0
5377,B3,717.5,1.0,95,136.0
5378,G#3,717.5,1.0,95,136.0
5379,E-4,717.5,0.5,95,136.0
5380,B3,717.5,0.5,95,136.0
5381,B1,718.0,0.5,95,136.0
5382,B4,718.5,1.0,63,136.0
5383,E-4,718.5,2.5,63,136.0
5384,E2,718.5,0.5,95,136.0
5385,B3,718.5,1.0,95,136.0
5386,G#3,718.5,1.0,95,136.0
5387,E-4,718.5,0.5,95,136.0
5388,B3,718.5,0.5,95,136.0
5389,B1,719.0,0.5,95,136.0
5390,G#4,719.5,0.5,63,136.0
5391,A1,719.5,0.5,95,136.0
5392,C#4,719.5,0.5,95,136.0
5393,G#3,719.5,0.5,95,136.0
5394,E3,719.5,0.5,95,136.0
5395,E4,719.5,0.5,95,136.0
5396,C#4,719.5,0.5,95,136.0
5397,G#4,720.0,0.5,63,136.0
5398,A1,720.0,1.5,95,136.0
5399,C#4,720.0,1.5,95,136.0
5400,G#3,720.0,1.5,95,136.0
5401,E3,720.0,1.5,95,136.0
5402,E4,720.5,0.5,95,136.0
5403,C#4,720.5,0.5,95,136.0
5404,E4,721.0,1.5,63,136.0
5405,E-4,721.5,2.5,95,136.0
5406,B3,721.5,2.5,95,136.0
5407,F#3,721.5,2.5,95,136.0
5408,G#4,721.5,0.5,95,136.0
5409,E-4,721.5,0.5,95,136.0
5410,B3,721.5,0.5,95,136.0
5411,B2,721.5,0.25,79,136.0
5412,B1,721.5,0.25,79,136.0
5413,G#1,721.75,0.25,95,136.0
5414,B2,722.0,0.75,79,136.0
5415,B1,722.0,0.75,79,136.0
5416,F#4,722.5,2.0,63,136.0
5417,E-4,722.5,0.5,95,136.0
5418,B3,722.5,0.5,95,136.0
5419,B1,722.75,0.75,95,136.0
5420,E4,723.5,0.25,95,136.0
5421,C#4,723.5,0.25,95,136.0
5422,C#3,723.5,0.25,79,136.0
5423,G#1,723.5,0.25,79,136.0
5424,E-4,724.0,0.5,95,136.0
5425,B3,724.0,0.5,95,136.0
5426,F#3,724.0,0.5,95,136.0
5427,G#4,724.5,0.5,63,136.0
5428,G#4,724.5,0.5,63,136.0
5429,E4,724.5,1.0,95,136.0
5430,C#4,724.5,1.0,95,136.0
5431,G#3,724.5,1.0,95,136.0
5432,E4,724.5,0.5,95,136.0
5433,C#4,724.5,0.5,95,136.0
5434,C#2,724.75,0.25,95,136.0
5435,B4,725.0,0.5,79,136.0
5436,G#4,725.0,1.5,63,136.0
5437,G#1,725.0,0.5,63,136.0
5438,F#4,725.5,1.0,63,136.0
5439,G#1,725.5,0.5,95,136.0
5440,E-4,725.5,1.0,95,136.0
5441,B3,725.5,1.0,95,136.0
5442,G#3,725.5,1.0,95,136.0
5443,E-4,725.5,0.5,95,136.0
5444,B3,725.5,0.5,95,136.0
5445,B1,726.0,0.5,95,136.0
5446,B4,726.5,1.0,63,136.0
5447,F#4,726.5,2.0,63,136.0
5448,C#2,726.5,0.5,95,136.0
5449,B3,726.5,1.0,95,136.0
5450,G#3,726.5,1.0,95,136.0
5451,E-4,726.5,0.5,95,136.0
5452,B3,726.5,0.5,95,136.0
5453,B1,727.0,0.5,95,136.0
5454,G#4,727.5,0.5,63,136.0
5455,A1,727.5,0.5,95,136.0
5456,C#4,727.5,0.5,95,136.0
5457,G#3,727.5,0.5,95,136.0
5458,E3,727.5,0.5,95,136.0
5459,G#4,727.5,0.5,95,136.0
5460,C#4,727.5,0.5,95,136.0
5461,G#4,728.0,0.5,63,136.0
5462,A1,728.0,1.5,95,136.0
5463,C#4,728.0,1.5,95,136.0
5464,G#3,728.0,1.5,95,136.0
5465,E3,728.0,1.5,95,136.0
5466,G#4,728.5,0.25,63,136.0
5467,G#4,728.5,0.5,95,136.0
5468,C#4,728.5,0.5,95,136.0
5469,E4,729.5,1.0,63,136.0
5470,G#1,729.5,0.25,79,136.0
5471,E-4,729.5,2.5,95,136.0
5472,B3,729.5,2.5,95,136.0
5473,F#3,729.5,2.5,95,136.0
5474,F#4,729.5,0.5,95,136.0
5475,E-4,729.5,0.5,95,136.0
5476,B3,729.5,0.5,95,136.0
5477,G#1,729.75,0.25,95,136.0
5478,B1,730.0,0.75,95,136.0
5479,E-4,730.5,1.0,63,136.0
5480,E-4,730.5,0.5,95,136.0
5481,B3,730.5,0.5,95,136.0
5482,B1,730.75,0.75,95,136.0
5483,B3,731.5,1.0,63,136.0
5484,G#1,731.5,0.25,95,136.0
5485,E4,731.5,0.25,95,136.0
5486,C#4,731.5,0.25,95,136.0
5487,E-4,732.0,0.5,95,136.0
5488,B3,732.0,0.5,95,136.0
5489,F#3,732.0,0.5,95,136.0
5490,G#4,732.5,0.5,63,136.0
5491,C#4,732.5,0.5,63,136.0
5492,E4,732.5,1.0,95,136.0
5493,C#4,732.5,1.0,95,136.0
5494,G#3,732.5,1.0,95,136.0
5495,E4,732.5,0.5,95,136.0
5496,C#4,732.5,0.5,95,136.0
5497,C#2,732.75,0.25,95,136.0
5498,B4,733.0,0.5,79,136.0
5499,C#4,733.0,1.5,63,136.0
5500,G#1,733.0,0.5,63,136.0
5501,F#4,733.5,1.0,63,136.0
5502,G#1,733.5,0.5,95,136.0
5503,E-4,733.5,1.0,95,136.0
5504,B3,733.5,1.0,95,136.0
5505,G#3,733.5,1.0,95,136.0
5506,E-4,733.5,0.5,95,136.0
5507,B3,733.5,0.5,95,136.0
5508,B1,734.0,0.5,95,136.0
5509,B4,734.5,1.0,63,136.0
5510,E-4,734.5,2.5,63,136.0
5511,E2,734.5,0.5,95,136.0
5512,B3,734.5,1.0,95,136.0
5513,G#3,734.5,1.0,95,136.0
5514,E-4,734.5,0.5,95,136.0
5515,B3,734.5,0.5,95,136.0
5516,B1,735.0,0.5,95,136.0
5517,G#4,735.5,0.5,63,136.0
5518,A1,735.5,0.5,95,136.0
5519,C#4,735.5,0.5,95,136.0
5520,G#3,735.5,0.5,95,136.0
5521,E3,735.5,0.5,95,136.0
5522,E4,735.5,0.5,95,136.0
5523,C#4,735.5,0.5,95,136.0
5524,G#4,736.0,0.5,63,136.0
5525,A1,736.0,1.5,95,136.0
5526,C#4,736.0,1.5,95,136.0
5527,G#3,736.0,1.5,95,136.0
5528,E3,736.0,1.5,95,136.0
5529,E4,737.0,1.5,63,136.0
5530,E-4,737.5,2.5,95,136.0
5531,B3,737.5,2.5,95,136.0
5532,F#3,737.5,2.5,95,136.0
5533,B2,737.5,0.25,79,136.0
5534,B1,737.5,0.25,79,136.0
5535,G#1,737.75,0.25,95,136.0
5536,B2,738.0,0.75,79,136.0
5537,B1,738.0,0.75,79,136.0
5538,F#4,738.5,2.0,63,136.0
5539,B1,738.75,0.75,95,136.0
5540,C#3,739.5,0.25,79,136.0
5541,G#1,739.5,0.25,79,136.0
5542,E-4,740.0,0.5,95,136.0
5543,B3,740.0,0.5,95,136.0
5544,F#3,740.0,0.5,95,136.0
5545,G#4,740.5,0.5,63,136.0
5546,G#4,740.5,0.5,63,136.0
5547,E4,740.5,1.0,95,136.0
5548,C#4,740.5,1.0,95,136.0
5549,G#3,740.5,1.0,95,136.0
5550,C#2,740.75,0.25,95,136.0
5551,B4,741.0,0.5,79,136.0
5552,G#4,741.0,1.5,63,136.0
5553,G#1,741.0,0.5,63,136.0
5554,F#4,741.5,1.0,63,136.0
5555,G#1,741.5,0.5,95,136.0
5556,E-4,741.5,1.0,95,136.0
5557,B3,741.5,1.0,95,136.0
5558,G#3,741.5,1.0,95,136.0
5559,B1,742.0,0.5,95,136.0
5560,B4,742.5,1.0,63,136.0
5561,F#4,742.5,2.0,63,136.0
5562,C#2,742.5,0.5,95,136.0
5563,B3,742.5,1.0,95,136.0
5564,G#3,742.5,1.0,95,136.0
5565,B1,743.0,0.5,95,136.0
5566,G#4,743.5,0.5,63,136.0
5567,A1,743.5,0.5,95,136.0
5568,C#4,743.5,0.5,95,136.0
5569,G#3,743.5,0.5,95,136.0
5570,E3,743.5,0.5,95,136.0
5571,G#4,744.0,0.5,63,136.0
5572,A1,744.0,1.5,95,136.0
5573,C#4,744.0,1.5,95,136.0
5574,G#3,744.0,1.5,95,136.0
5575,E3,744.0,1.5,95,136.0
5576,G#4,744.5,0.25,63,136.0
5577,E4,745.5,1.0,63,136.0
5578,G#1,745.5,0.25,79,136.0
5579,E-4,745.5,2.5,95,136.0
5580,B3,745.5,2.5,95,136.0
5581,F#3,745.5,2.5,95,136.0
5582,G#1,745.75,0.25,95,136.0
5583,B1,746.0,0.75,95,136.0
5584,E-4,746.5,1.0,63,136.0
5585,B1,746.75,0.75,95,136.0
5586,B3,747.5,1.0,63,136.0
5587,G#1,747.5,0.25,95,136.0
5588,G#4,748.5,0.5,63,136.0
5589,C#4,748.5,0.5,63,136.0
5590,E4,748.5,1.0,95,136.0
5591,C#4,748.5,1.0,95,136.0
5592,G#3,748.5,1.0,95,136.0
5593,C#2,748.75,0.25,95,136.0
5594,B4,749.0,0.5,79,136.0
5595,G#1,749.0,0.5,63,136.0
5596,F#4,749.5,1.0,63,136.0
5597,G#1,749.5,0.5,95,136.0
5598,E-4,749.5,1.0,95,136.0
5599,B3,749.5,1.0,95,136.0
5600,G#3,749.5,1.0,95,136.0
5601,B1,750.0,0.5,95,136.0
5602,B4,750.5,1.0,63,136.0
5603,E2,750.5,0.5,95,136.0
5604,B3,750.5,1.0,95,136.0
5605,G#3,750.5,1.0,95,136.0
5606,B1,751.0,0.5,95,136.0
5607,G#4,751.5,0.5,63,136.0
5608,A1,751.5,0.5,95,136.0
5609,C#4,751.5,0.5,95,136.0
5610,G#3,751.5,0.5,95,136.0
5611,E3,751.5,0.5,95,136.0
5612,G#4,752.0,0.5,63,136.0
5613,A1,752.0,1.5,95,136.0
5614,C#4,752.0,1.5,95,136.0
5615,G#3,752.0,1.5,95,136.0
5616,E3,752.0,1.5,95,136.0
5617,E-4,753.5,2.5,95,136.0
5618,B3,753.5,2.5,95,136.0
5619,F#3,753.5,2.5,95,136.0
5620,B2,753.5,0.25,79,136.0
5621,B1,753.5,0.25,79,136.0
5622,G#1,753.75,0.25,95,136.0
5623,B2,754.0,0.75,79,136.0
5624,B1,754.0,0.75,79,136.0
5625,B1,754.75,0.75,95,136.0
5626,C#3,755.5,0.25,79,136.0
5627,G#1,755.5,0.25,79,136.0
5628,G#4,756.5,0.5,63,136.0
5629,E-4,756.5,0.5,95,136.0
5630,B3,756.5,0.5,95,136.0
5631,F#3,756.5,0.5,95,136.0
5632,C#2,756.75,0.25,95,136.0
5633,B4,757.0,0.5,79,136.0
5634,G#1,757.0,0.5,63,136.0
5635,E4,757.0,1.0,95,136.0
5636,C#4,757.0,1.0,95,136.0
5637,G#3,757.0,1.0,95,136.0
5638,F#4,757.5,1.0,63,136.0
5639,G#1,757.5,0.5,95,136.0
5640,B1,758.0,0.5,95,136.0
5641,E-4,758.0,1.0,95,136.0
5642,B3,758.0,1.0,95,136.0
5643,G#3,758.0,1.0,95,136.0
5644,B4,758.5,1.0,63,136.0
5645,C#2,758.5,0.5,95,136.0
5646,B1,759.0,0.5,95,136.0
5647,B3,759.0,1.0,95,136.0
5648,G#3,759.0,1.0,95,136.0
5649,G#5,759.5,0.5,95,136.0
5650,A1,759.5,0.5,95,136.0
5651,G#5,760.0,0.5,95,136.0
5652,C#4,760.0,0.5,95,136.0
5653,G#3,760.0,0.5,95,136.0
5654,E3,760.0,0.5,95,136.0
5655,E5,760.5,0.5,95,136.0
5656,C#5,761.0,0.5,95,136.0
5657,F#5,761.5,1.0,95,136.0
5658,B4,762.5,0.5,95,136.0
5659,G#4,763.0,0.5,95,136.0
5660,C#5,763.5,0.5,95,136.0
5661,C#5,764.0,0.5,95,136.0
5662,G#4,764.5,0.5,63,136.0
5663,B4,765.0,0.5,79,136.0
5664,F#4,765.5,1.0,63,136.0
5665,B4,766.5,1.0,63,136.0
5666,G#4,767.5,0.5,63,136.0
5667,G#4,768.0,0.5,63,136.0
5668,E3,2541.6,12/5,95,136.0
5669,E3,2544.0,8/5,95,136.0
5670,A3,2548.6,0.25,15,136.0
5671,A3,2548.85,0.25,31,136.0
5672,A3,2549.1,0.25,47,136.0
5673,A3,2549.35,0.25,63,136.0
5674,E3,2549.6,1.0,95,136.0
5675,A3,2598.6,0.25,15,136.0
5676,A3,2598.85,0.25,15,136.0
5677,A3,2599.1,0.25,31,136.0
5678,A3,2599.35,0.25,31,136.0
5679,A3,2599.6,0.25,47,136.0
5680,A3,2599.85,3/20,47,136.0
5681,A3,2600.0,1/10,47,136.0
5682,A3,2600.1,0.25,63,136.0
5683,A3,2600.35,0.25,63,136.0
5684,A3,2600.6,0.25,79,136.0
5685,A3,2600.85,0.25,79,136.0
5686,A3,2601.1,0.25,111,136.0
5687,A3,2601.35,0.25,95,136.0
5688,G#2,2601.6,0.25,95,136.0
5689,E3,2601.6,0.25,95,136.0
5690,G#2,2601.85,0.25,31,136.0
5691,G#2,2602.1,0.25,63,136.0
5692,G#2,2602.35,0.25,87,136.0
5693,C2,2602.35,0.25,87,136.0
5694,G#2,2602.6,0.25,95,136.0
5695,C#2,2602.6,0.25,95,136.0
5696,F#2,2602.6,0.25,95,136.0
5697,G#2,2602.85,0.25,31,136.0
5698,G#2,2603.1,0.25,79,136.0
5699,C2,2603.1,0.25,79,136.0
5700,G#2,2603.35,0.25,79,136.0
5701,G#2,2603.6,0.25,95,136.0
5702,C2,2603.6,0.25,95,136.0
5703,G#2,2603.85,3/20,31,136.0
5704,G#2,2604.0,1/10,31,136.0
5705,G#2,2604.1,0.25,63,136.0
5706,G#2,2604.35,0.25,79,136.0
5707,G#2,2604.6,0.25,95,136.0
5708,C#2,2604.6,0.25,95,136.0
5709,G#2,2604.85,0.25,31,136.0
5710,G#2,2605.1,0.25,79,136.0
5711,C2,2605.1,0.25,79,136.0
5712,G#2,2605.35,0.25,79,136.0
5713,G#2,2605.6,0.25,95,136.0
5714,G#2,2605.85,0.25,31,136.0
5715,G#2,2606.1,0.25,63,136.0
5716,G#2,2606.35,0.25,79,136.0
5717,G#2,2606.6,0.25,95,136.0
5718,C#2,2606.6,0.25,95,136.0
5719,G#2,2606.85,0.25,31,136.0
5720,G#2,2607.1,0.25,63,136.0
5721,G#2,2607.35,0.25,79,136.0
5722,G#2,2607.6,0.25,87,136.0
5723,C2,2607.6,0.25,87,136.0
5724,G#2,2607.85,3/20,31,136.0
5725,G#2,2608.0,1/10,31,136.0
5726,G#2,2608.1,0.25,63,136.0
5727,G#2,2608.35,0.25,79,136.0
5728,G#2,2608.6,0.25,95,136.0
5729,C#2,2608.6,0.25,95,136.0
5730,G#2,2608.85,0.25,31,136.0
5731,G#2,2609.1,0.25,79,136.0
5732,B-2,2609.1,0.25,79,136.0
5733,G#2,2609.35,0.25,79,136.0
5734,G#2,2609.6,0.25,95,136.0
5735,G#2,2609.85,0.25,31,136.0
5736,G#2,2610.1,0.25,63,136.0
5737,G#2,2610.35,0.25,87,136.0
5738,C2,2610.35,0.25,87,136.0
5739,G#2,2610.6,0.25,95,136.0
5740,C#2,2610.6,0.25,95,136.0
5741,F#2,2610.6,0.25,95,136.0
5742,G#2,2610.85,0.25,31,136.0
5743,G#2,2611.1,0.25,79,136.0
5744,C2,2611.1,0.25,79,136.0
5745,G#2,2611.35,0.25,79,136.0
5746,G#2,2611.6,0.25,95,136.0
5747,C2,2611.6,0.25,95,136.0
5748,G#2,2611.85,3/20,31,136.0
5749,G#2,2612.0,1/10,31,136.0
5750,G#2,2612.1,0.25,63,136.0
5751,G#2,2612.35,0.25,79,136.0
5752,G#2,2612.6,0.25,95,136.0
5753,C#2,2612.6,0.25,95,136.0
5754,G#2,2612.85,0.25,31,136.0
5755,G#2,2613.1,0.25,79,136.0
5756,C2,2613.1,0.25,79,136.0
5757,G#2,2613.35,0.25,79,136.0
5758,G#2,2613.6,0.25,95,136.0
5759,G#2,2613.85,0.25,31,136.0
5760,G#2,2614.1,0.25,63,136.0
5761,G#2,2614.35,0.25,79,136.0
5762,G#2,2614.6,0.25,95,136.0
5763,C#2,2614.6,0.25,95,136.0
5764,G#2,2614.85,0.25,31,136.0
5765,G#2,2615.1,0.25,63,136.0
5766,G#2,2615.35,0.25,79,136.0
5767,G#2,2615.6,0.25,87,136.0
5768,C2,2615.6,0.25,87,136.0
5769,G#2,2615.85,3/20,31,136.0
5770,G#2,2616.0,1/10,31,136.0
5771,G#2,2616.1,0.25,63,136.0
5772,G#2,2616.35,0.25,79,136.0
5773,G#2,2616.6,0.25,95,136.0
5774,C#2,2616.6,0.25,95,136.0
5775,G#2,2616.85,0.25,31,136.0
5776,G#2,2617.1,0.25,79,136.0
5777,B-2,2617.1,0.25,79,136.0
5778,G#2,2617.35,0.25,79,136.0
5779,G#2,2617.6,0.25,95,136.0
5780,G#2,2617.85,0.25,31,136.0
5781,G#2,2618.1,0.25,63,136.0
5782,G#2,2618.35,0.25,87,136.0
5783,C2,2618.35,0.25,87,136.0
5784,G#2,2618.6,0.25,95,136.0
5785,C#2,2618.6,0.25,95,136.0
5786,F#2,2618.6,0.25,95,136.0
5787,G#2,2618.85,0.25,31,136.0
5788,G#2,2619.1,0.25,79,136.0
5789,C2,2619.1,0.25,79,136.0
5790,G#2,2619.35,0.25,79,136.0
5791,G#2,2619.6,0.25,95,136.0
5792,C2,2619.6,0.25,95,136.0
5793,G#2,2619.85,3/20,31,136.0
5794,G#2,2620.0,1/10,31,136.0
5795,G#2,2620.1,0.25,63,136.0
5796,G#2,2620.35,0.25,79,136.0
5797,G#2,2620.6,0.25,95,136.0
5798,C#2,2620.6,0.25,95,136.0
5799,G#2,2620.85,0.25,31,136.0
5800,G#2,2621.1,0.25,79,136.0
5801,C2,2621.1,0.25,79,136.0
5802,G#2,2621.35,0.25,79,136.0
5803,G#2,2621.6,0.25,95,136.0
5804,G#2,2621.85,0.25,31,136.0
5805,G#2,2622.1,0.25,63,136.0
5806,G#2,2622.35,0.25,79,136.0
5807,G#2,2622.6,0.25,95,136.0
5808,C#2,2622.6,0.25,95,136.0
5809,G#2,2622.85,0.25,31,136.0
5810,G#2,2623.1,0.25,63,136.0
5811,G#2,2623.35,0.25,79,136.0
5812,G#2,2623.6,0.25,87,136.0
5813,C2,2623.6,0.25,87,136.0
5814,G#2,2623.85,3/20,31,136.0
5815,G#2,2624.0,1/10,31,136.0
5816,G#2,2624.1,0.25,63,136.0
5817,G#2,2624.35,0.25,79,136.0
5818,G#2,2624.6,0.25,95,136.0
5819,C#2,2624.6,0.25,95,136.0
5820,G#2,2624.85,0.25,31,136.0
5821,G#2,2625.1,0.25,79,136.0
5822,B-2,2625.1,0.25,79,136.0
5823,G#2,2625.35,0.25,79,136.0
5824,G#2,2625.6,0.25,95,136.0
5825,G#2,2625.85,0.25,31,136.0
5826,G#2,2626.1,0.25,63,136.0
5827,G#2,2626.35,0.25,87,136.0
5828,C2,2626.35,0.25,87,136.0
5829,G#2,2626.6,0.25,95,136.0
5830,C#2,2626.6,0.25,95,136.0
5831,F#2,2626.6,0.25,95,136.0
5832,G#2,2626.85,0.25,31,136.0
5833,G#2,2627.1,0.25,79,136.0
5834,C2,2627.1,0.25,79,136.0
5835,G#2,2627.35,0.25,79,136.0
5836,G#2,2627.6,0.25,95,136.0
5837,C2,2627.6,0.25,95,136.0
5838,G#2,2627.85,3/20,31,136.0
5839,G#2,2628.0,1/10,31,136.0
5840,G#2,2628.1,0.25,63,136.0
5841,G#2,2628.35,0.25,79,136.0
5842,G#2,2628.6,0.25,95,136.0
5843,C#2,2628.6,0.25,95,136.0
5844,G#2,2628.85,0.25,31,136.0
5845,G#2,2629.1,0.25,79,136.0
5846,C2,2629.1,0.25,79,136.0
5847,G#2,2629.35,0.25,79,136.0
5848,G#2,2629.6,0.25,95,136.0
5849,G#2,2629.85,0.25,31,136.0
5850,G#2,2630.1,0.25,63,136.0
5851,G#2,2630.35,0.25,79,136.0
5852,G#2,2630.6,0.25,95,136.0
5853,C#2,2630.6,0.25,95,136.0
5854,G#2,2630.85,0.25,31,136.0
5855,G#2,2631.1,0.25,63,136.0
5856,G#2,2631.35,0.25,79,136.0
5857,G#2,2631.6,0.25,87,136.0
5858,C2,2631.6,0.25,87,136.0
5859,G#2,2631.85,3/20,31,136.0
5860,G#2,2632.0,1/10,31,136.0
5861,G#2,2632.1,0.25,63,136.0
5862,G#2,2632.35,0.25,79,136.0
5863,G#2,2632.6,0.25,95,136.0
5864,C#2,2632.6,0.25,95,136.0
5865,G#2,2632.85,0.25,31,136.0
5866,G#2,2633.1,0.25,79,136.0
5867,B-2,2633.1,0.25,79,136.0
5868,G#2,2633.35,0.25,79,136.0
5869,C6,2633.35,0.5,95,136.0
5870,G#2,2633.6,0.25,95,136.0
5871,G#2,2633.85,0.25,31,136.0
5872,G#2,2634.1,0.25,63,136.0
5873,G#2,2634.35,0.25,87,136.0
5874,C2,2634.35,0.25,87,136.0
5875,G#2,2634.6,0.25,95,136.0
5876,C#2,2634.6,0.25,95,136.0
5877,F#2,2634.6,0.25,95,136.0
5878,G#2,2634.85,0.25,31,136.0
5879,G#2,2635.1,0.25,79,136.0
5880,C2,2635.1,0.25,79,136.0
5881,G#2,2635.35,0.25,79,136.0
5882,G#2,2635.6,0.25,95,136.0
5883,C2,2635.6,0.25,95,136.0
5884,G#2,2635.85,3/20,31,136.0
5885,G#2,2636.0,1/10,31,136.0
5886,G#2,2636.1,0.25,63,136.0
5887,G#2,2636.35,0.25,79,136.0
5888,G#2,2636.6,0.25,95,136.0
5889,C#2,2636.6,0.25,95,136.0
5890,G#2,2636.85,0.25,31,136.0
5891,G#2,2637.1,0.25,79,136.0
5892,C2,2637.1,0.25,79,136.0
5893,G#2,2637.35,0.25,79,136.0
5894,G#2,2637.6,0.25,95,136.0
5895,G#2,2637.85,0.25,31,136.0
5896,G#2,2638.1,0.25,63,136.0
5897,G#2,2638.35,0.25,79,136.0
5898,G#2,2638.6,0.25,95,136.0
5899,C#2,2638.6,0.25,95,136.0
5900,G#2,2638.85,0.25,31,136.0
5901,G#2,2639.1,0.25,63,136.0
5902,G#2,2639.35,0.25,79,136.0
5903,G#2,2639.6,0.25,87,136.0
5904,C2,2639.6,0.25,87,136.0
5905,G#2,2639.85,3/20,31,136.0
5906,G#2,2640.0,1/10,31,136.0
5907,G#2,2640.1,0.25,63,136.0
5908,G#2,2640.35,0.25,79,136.0
5909,G#2,2640.6,0.25,95,136.0
5910,C#2,2640.6,0.25,95,136.0
5911,G#2,2640.85,0.25,31,136.0
5912,G#2,2641.1,0.25,79,136.0
5913,B-2,2641.1,0.25,79,136.0
5914,G#2,2641.35,0.25,79,136.0
5915,G#2,2641.6,0.25,95,136.0
5916,G#2,2641.85,0.25,31,136.0
5917,G#2,2642.1,0.25,63,136.0
5918,G#2,2642.35,0.25,87,136.0
5919,C2,2642.35,0.25,87,136.0
5920,G#2,2642.6,0.25,95,136.0
5921,C#2,2642.6,0.25,95,136.0
5922,F#2,2642.6,0.25,95,136.0
5923,G#2,2642.85,0.25,31,136.0
5924,G#2,2643.1,0.25,79,136.0
5925,C2,2643.1,0.25,79,136.0
5926,G#2,2643.35,0.25,79,136.0
5927,G#2,2643.6,0.25,95,136.0
5928,C2,2643.6,0.25,95,136.0
5929,G#2,2643.85,3/20,31,136.0
5930,G#2,2644.0,1/10,31,136.0
5931,G#2,2644.1,0.25,63,136.0
5932,G#2,2644.35,0.25,79,136.0
5933,G#2,2644.6,0.25,95,136.0
5934,C#2,2644.6,0.25,95,136.0
5935,G#2,2644.85,0.25,31,136.0
5936,G#2,2645.1,0.25,79,136.0
5937,C2,2645.1,0.25,79,136.0
5938,G#2,2645.35,0.25,79,136.0
5939,G#2,2645.6,0.25,95,136.0
5940,G#2,2645.85,0.25,31,136.0
5941,G#2,2646.1,0.25,63,136.0
5942,G#2,2646.35,0.25,79,136.0
5943,G#2,2646.6,0.25,95,136.0
5944,C#2,2646.6,0.25,95,136.0
5945,G#2,2646.85,0.25,31,136.0
5946,G#2,2647.1,0.25,63,136.0
5947,G#2,2647.35,0.25,79,136.0
5948,G#2,2647.6,0.25,87,136.0
5949,C2,2647.6,0.25,87,136.0
5950,G#2,2647.85,3/20,31,136.0
5951,G#2,2648.0,1/10,31,136.0
5952,G#2,2648.1,0.25,63,136.0
5953,G#2,2648.35,0.25,79,136.0
5954,G#2,2648.6,0.25,95,136.0
5955,C#2,2648.6,0.25,95,136.0
5956,G#2,2648.85,0.25,31,136.0
5957,G#2,2649.1,0.25,63,136.0
5958,B-2,2649.1,0.75,95,136.0
5959,G#2,2649.35,0.25,79,136.0
5960,G#2,2649.6,0.25,95,136.0
5961,G#2,2649.85,0.25,31,136.0
5962,G#2,2650.1,0.25,63,136.0
5963,G#2,2650.35,0.25,87,136.0
5964,C2,2650.35,0.25,87,136.0
5965,G#2,2650.6,0.25,95,136.0
5966,C#2,2650.6,0.25,95,136.0
5967,F#2,2650.6,0.25,95,136.0
5968,G#2,2650.85,0.25,31,136.0
5969,G#2,2651.1,0.25,79,136.0
5970,C2,2651.1,0.25,79,136.0
5971,G#2,2651.35,0.25,79,136.0
5972,G#2,2651.6,0.25,95,136.0
5973,C2,2651.6,0.25,95,136.0
5974,G#2,2651.85,3/20,31,136.0
5975,G#2,2652.0,1/10,31,136.0
5976,G#2,2652.1,0.25,63,136.0
5977,G#2,2652.35,0.25,79,136.0
5978,G#2,2652.6,0.25,95,136.0
5979,C#2,2652.6,0.25,95,136.0
5980,G#2,2652.85,0.25,31,136.0
5981,G#2,2653.1,0.25,79,136.0
5982,C2,2653.1,0.25,79,136.0
5983,G#2,2653.35,0.25,79,136.0
5984,G#2,2653.6,0.25,95,136.0
5985,G#2,2653.85,0.25,31,136.0
5986,G#2,2654.1,0.25,63,136.0
5987,G#2,2654.35,0.25,79,136.0
5988,G#2,2654.6,0.25,95,136.0
5989,C#2,2654.6,0.25,95,136.0
5990,G#2,2654.85,0.25,31,136.0
5991,G#2,2655.1,0.25,63,136.0
5992,G#2,2655.35,0.25,79,136.0
5993,G#2,2655.6,0.25,87,136.0
5994,C2,2655.6,0.25,87,136.0
5995,G#2,2655.85,3/20,31,136.0
5996,G#2,2656.0,1/10,31,136.0
5997,G#2,2656.1,0.25,63,136.0
5998,G#2,2656.35,0.25,79,136.0
5999,G#2,2656.6,0.25,95,136.0
6000,C#2,2656.6,0.25,95,136.0
6001,G#2,2656.85,0.25,31,136.0
6002,G#2,2657.1,0.25,79,136.0
6003,B-2,2657.1,0.25,79,136.0
6004,G#2,2657.35,0.25,79,136.0
6005,G#2,2657.6,0.25,95,136.0
6006,G#2,2657.85,0.25,31,136.0
6007,G#2,2658.1,0.25,63,136.0
6008,G#2,2658.35,0.25,87,136.0
6009,C2,2658.35,0.25,87,136.0
6010,G#2,2658.6,0.25,95,136.0
6011,C#2,2658.6,0.25,95,136.0
6012,F#2,2658.6,0.25,95,136.0
6013,G#2,2658.85,0.25,31,136.0
6014,G#2,2659.1,0.25,79,136.0
6015,C2,2659.1,0.25,79,136.0
6016,G#2,2659.35,0.25,79,136.0
6017,G#2,2659.6,0.25,95,136.0
6018,C2,2659.6,0.25,95,136.0
6019,G#2,2659.85,3/20,31,136.0
6020,G#2,2660.0,1/10,31,136.0
6021,G#2,2660.1,0.25,63,136.0
6022,G#2,2660.35,0.25,79,136.0
6023,G#2,2660.6,0.25,95,136.0
6024,C#2,2660.6,0.25,95,136.0
6025,G#2,2660.85,0.25,31,136.0
6026,G#2,2661.1,0.25,79,136.0
6027,C2,2661.1,0.25,79,136.0
6028,G#2,2661.35,0.25,79,136.0
6029,G#2,2661.6,0.25,95,136.0
6030,G#2,2661.85,0.25,31,136.0
6031,G#2,2662.1,0.25,63,136.0
6032,G#2,2662.35,0.25,79,136.0
6033,G#2,2662.6,0.25,95,136.0
6034,C#2,2662.6,0.25,95,136.0
6035,G#2,2662.85,0.25,31,136.0
6036,G#2,2663.1,0.25,63,136.0
6037,G#2,2663.35,0.25,79,136.0
6038,G#2,2663.6,0.25,87,136.0
6039,C2,2663.6,0.25,87,136.0
6040,G#2,2663.85,3/20,31,136.0
6041,G#2,2664.0,1/10,31,136.0
6042,G#2,2664.1,0.25,63,136.0
6043,G#2,2664.35,0.25,79,136.0
6044,G#2,2664.6,0.25,95,136.0
6045,C#2,2664.6,0.25,95,136.0
6046,G#2,2664.85,0.25,31,136.0
6047,G#2,2665.1,0.25,79,136.0
6048,B-2,2665.1,0.25,79,136.0
6049,G#2,2665.35,0.25,79,136.0
6050,G#2,2665.6,0.25,95,136.0
6051,E3,2665.6,0.25,95,136.0
6052,G#2,2665.85,0.25,31,136.0
6053,G#2,2666.1,0.25,63,136.0
6054,G#2,2666.35,0.25,87,136.0
6055,C2,2666.35,0.25,87,136.0
6056,G#2,2666.6,0.25,95,136.0
6057,C#2,2666.6,0.25,95,136.0
6058,F#2,2666.6,0.25,95,136.0
6059,G#2,2666.85,0.25,31,136.0
6060,G#2,2667.1,0.25,79,136.0
6061,C2,2667.1,0.25,79,136.0
6062,G#2,2667.35,0.25,79,136.0
6063,G#2,2667.6,0.25,95,136.0
6064,C2,2667.6,0.25,95,136.0
6065,G#2,2667.85,3/20,31,136.0
6066,G#2,2668.0,1/10,31,136.0
6067,G#2,2668.1,0.25,63,136.0
6068,G#2,2668.35,0.25,79,136.0
6069,G#2,2668.6,0.25,95,136.0
6070,C#2,2668.6,0.25,95,136.0
6071,G#2,2668.85,0.25,31,136.0
6072,G#2,2669.1,0.25,79,136.0
6073,C2,2669.1,0.25,79,136.0
6074,G#2,2669.35,0.25,79,136.0
6075,G#2,2669.6,0.25,95,136.0
6076,G#2,2669.85,0.25,31,136.0
6077,G#2,2670.1,0.25,63,136.0
6078,G#2,2670.35,0.25,79,136.0
6079,G#2,2670.6,0.25,95,136.0
6080,C#2,2670.6,0.25,95,136.0
6081,G#2,2670.85,0.25,31,136.0
6082,G#2,2671.1,0.25,63,136.0
6083,G#2,2671.35,0.25,79,136.0
6084,G#2,2671.6,0.25,87,136.0
6085,C2,2671.6,0.25,87,136.0
6086,G#2,2671.85,3/20,31,136.0
6087,G#2,2672.0,1/10,31,136.0
6088,G#2,2672.1,0.25,63,136.0
6089,G#2,2672.35,0.25,79,136.0
6090,G#2,2672.6,0.25,95,136.0
6091,C#2,2672.6,0.25,95,136.0
6092,G#2,2672.85,0.25,31,136.0
6093,G#2,2673.1,0.25,79,136.0
6094,B-2,2673.1,0.25,79,136.0
6095,G#2,2673.35,0.25,79,136.0
6096,G#2,2673.6,0.25,95,136.0
6097,G#2,2673.85,0.25,31,136.0
6098,G#2,2674.1,0.25,63,136.0
6099,G#2,2674.35,0.25,87,136.0
6100,C2,2674.35,0.25,87,136.0
6101,G#2,2674.6,0.25,95,136.0
6102,C#2,2674.6,0.25,95,136.0
6103,F#2,2674.6,0.25,95,136.0
6104,G#2,2674.85,0.25,31,136.0
6105,G#2,2675.1,0.25,79,136.0
6106,C2,2675.1,0.25,79,136.0
6107,G#2,2675.35,0.25,79,136.0
6108,G#2,2675.6,0.25,95,136.0
6109,C2,2675.6,0.25,95,136.0
6110,G#2,2675.85,3/20,31,136.0
6111,G#2,2676.0,1/10,31,136.0
6112,G#2,2676.1,0.25,63,136.0
6113,G#2,2676.35,0.25,79,136.0
6114,G#2,2676.6,0.25,95,136.0
6115,C#2,2676.6,0.25,95,136.0
6116,G#2,2676.85,0.25,31,136.0
6117,G#2,2677.1,0.25,79,136.0
6118,C2,2677.1,0.25,79,136.0
6119,G#2,2677.35,0.25,79,136.0
6120,G#2,2677.6,0.25,95,136.0
6121,G#2,2677.85,0.25,31,136.0
6122,G#2,2678.1,0.25,63,136.0
6123,G#2,2678.35,0.25,79,136.0
6124,G#2,2678.6,0.25,95,136.0
6125,C#2,2678.6,0.25,95,136.0
6126,G#2,2678.85,0.25,31,136.0
6127,G#2,2679.1,0.25,63,136.0
6128,G#2,2679.35,0.25,79,136.0
6129,G#2,2679.6,0.25,87,136.0
6130,C2,2679.6,0.25,87,136.0
6131,G#2,2679.85,3/20,31,136.0
6132,G#2,2680.0,1/10,31,136.0
6133,G#2,2680.1,0.25,63,136.0
6134,G#2,2680.35,0.25,79,136.0
6135,G#2,2680.6,0.25,95,136.0
6136,C#2,2680.6,0.25,95,136.0
6137,G#2,2680.85,0.25,31,136.0
6138,G#2,2681.1,0.25,79,136.0
6139,B-2,2681.1,0.25,79,136.0
6140,G#2,2681.35,0.25,79,136.0
6141,G#2,2681.6,0.25,95,136.0
6142,G#2,2681.85,0.25,31,136.0
6143,G#2,2682.1,0.25,63,136.0
6144,G#2,2682.35,0.25,87,136.0
6145,C2,2682.35,0.25,87,136.0
6146,G#2,2682.6,0.25,95,136.0
6147,C#2,2682.6,0.25,95,136.0
6148,F#2,2682.6,0.25,95,136.0
6149,G#2,2682.85,0.25,31,136.0
6150,G#2,2683.1,0.25,79,136.0
6151,C2,2683.1,0.25,79,136.0
6152,G#2,2683.35,0.25,79,136.0
6153,G#2,2683.6,0.25,95,136.0
6154,C2,2683.6,0.25,95,136.0
6155,G#2,2683.85,3/20,31,136.0
6156,G#2,2684.0,1/10,31,136.0
6157,G#2,2684.1,0.25,63,136.0
6158,G#2,2684.35,0.25,79,136.0
6159,G#2,2684.6,0.25,95,136.0
6160,C#2,2684.6,0.25,95,136.0
6161,G#2,2684.85,0.25,31,136.0
6162,G#2,2685.1,0.25,79,136.0
6163,C2,2685.1,0.25,79,136.0
6164,G#2,2685.35,0.25,79,136.0
6165,G#2,2685.6,0.25,95,136.0
6166,G#2,2685.85,0.25,31,136.0
6167,G#2,2686.1,0.25,63,136.0
6168,G#2,2686.35,0.25,79,136.0
6169,G#2,2686.6,0.25,95,136.0
6170,C#2,2686.6,0.25,95,136.0
6171,G#2,2686.85,0.25,31,136.0
6172,G#2,2687.1,0.25,63,136.0
6173,G#2,2687.35,0.25,79,136.0
6174,G#2,2687.6,0.25,87,136.0
6175,C2,2687.6,0.25,87,136.0
6176,G#2,2687.85,3/20,31,136.0
6177,G#2,2688.0,1/10,31,136.0
6178,G#2,2688.1,0.25,63,136.0
6179,G#2,2688.35,0.25,79,136.0
6180,G#2,2688.6,0.25,95,136.0
6181,C#2,2688.6,0.25,95,136.0
6182,G#2,2688.85,0.25,31,136.0
6183,G#2,2689.1,0.25,79,136.0
6184,B-2,2689.1,0.25,79,136.0
6185,G#2,2689.35,0.25,79,136.0
6186,G#2,2689.6,0.25,95,136.0
6187,G#2,2689.85,0.25,31,136.0
6188,G#2,2690.1,0.25,63,136.0
6189,G#2,2690.35,0.25,87,136.0
6190,C2,2690.35,0.25,87,136.0
6191,G#2,2690.6,0.25,95,136.0
6192,C#2,2690.6,0.25,95,136.0
6193,F#2,2690.6,0.25,95,136.0
6194,G#2,2690.85,0.25,31,136.0
6195,G#2,2691.1,0.25,79,136.0
6196,C2,2691.1,0.25,79,136.0
6197,G#2,2691.35,0.25,79,136.0
6198,G#2,2691.6,0.25,95,136.0
6199,C2,2691.6,0.25,95,136.0
6200,G#2,2691.85,3/20,31,136.0
6201,G#2,2692.0,1/10,31,136.0
6202,G#2,2692.1,0.25,63,136.0
6203,G#2,2692.35,0.25,79,136.0
6204,G#2,2692.6,0.25,95,136.0
6205,C#2,2692.6,0.25,95,136.0
6206,G#2,2692.85,0.25,31,136.0
6207,G#2,2693.1,0.25,79,136.0
6208,C2,2693.1,0.25,79,136.0
6209,G#2,2693.35,0.25,79,136.0
6210,G#2,2693.6,0.25,95,136.0
6211,G#2,2693.85,0.25,31,136.0
6212,G#2,2694.1,0.25,63,136.0
6213,G#2,2694.35,0.25,79,136.0
6214,G#2,2694.6,0.25,95,136.0
6215,C#2,2694.6,0.25,95,136.0
6216,G#2,2694.85,0.25,31,136.0
6217,G#2,2695.1,0.25,63,136.0
6218,G#2,2695.35,0.25,79,136.0
6219,G#2,2695.6,0.25,87,136.0
6220,C2,2695.6,0.25,87,136.0
6221,G#2,2695.85,3/20,31,136.0
6222,G#2,2696.0,1/10,31,136.0
6223,G#2,2696.1,0.25,63,136.0
6224,G#2,2696.35,0.25,79,136.0
6225,G#2,2696.6,0.25,95,136.0
6226,C#2,2696.6,0.25,95,136.0
6227,G#2,2696.85,0.25,31,136.0
6228,G#2,2697.1,0.25,79,136.0
6229,B-2,2697.1,0.25,79,136.0
6230,G#2,2697.35,0.25,79,136.0
6231,C6,2697.35,0.5,95,136.0
6232,G#2,2697.6,0.25,95,136.0
6233,E3,2697.6,0.25,95,136.0
6234,G#2,2697.85,0.25,31,136.0
6235,G#2,2698.1,0.25,63,136.0
6236,G#2,2698.35,0.25,87,136.0
6237,C2,2698.35,0.25,87,136.0
6238,G#2,2698.6,0.25,95,136.0
6239,C#2,2698.6,0.25,95,136.0
6240,F#2,2698.6,0.25,95,136.0
6241,G#2,2698.85,0.25,31,136.0
6242,G#2,2699.1,0.25,79,136.0
6243,C2,2699.1,0.25,79,136.0
6244,G#2,2699.35,0.25,79,136.0
6245,G#2,2699.6,0.25,95,136.0
6246,C2,2699.6,0.25,95,136.0
6247,G#2,2699.85,3/20,31,136.0
6248,G#2,2700.0,1/10,31,136.0
6249,G#2,2700.1,0.25,63,136.0
6250,G#2,2700.35,0.25,79,136.0
6251,G#2,2700.6,0.25,95,136.0
6252,C#2,2700.6,0.25,95,136.0
6253,G#2,2700.85,0.25,31,136.0
6254,G#2,2701.1,0.25,79,136.0
6255,C2,2701.1,0.25,79,136.0
6256,G#2,2701.35,0.25,79,136.0
6257,G#2,2701.6,0.25,95,136.0
6258,G#2,2701.85,0.25,31,136.0
6259,G#2,2702.1,0.25,63,136.0
6260,G#2,2702.35,0.25,79,136.0
6261,G#2,2702.6,0.25,95,136.0
6262,C#2,2702.6,0.25,95,136.0
6263,G#2,2702.85,0.25,31,136.0
6264,G#2,2703.1,0.25,63,136.0
6265,G#2,2703.35,0.25,79,136.0
6266,G#2,2703.6,0.25,87,136.0
6267,C2,2703.6,0.25,87,136.0
6268,G#2,2703.85,3/20,31,136.0
6269,G#2,2704.0,1/10,31,136.0
6270,G#2,2704.1,0.25,63,136.0
6271,G#2,2704.35,0.25,79,136.0
6272,G#2,2704.6,0.25,95,136.0
6273,C#2,2704.6,0.25,95,136.0
6274,G#2,2704.85,0.25,31,136.0
6275,G#2,2705.1,0.25,79,136.0
6276,B-2,2705.1,0.25,79,136.0
6277,G#2,2705.35,0.25,79,136.0
6278,G#2,2705.6,0.25,95,136.0
6279,G#2,2705.85,0.25,31,136.0
6280,G#2,2706.1,0.25,63,136.0
6281,G#2,2706.35,0.25,87,136.0
6282,C2,2706.35,0.25,87,136.0
6283,G#2,2706.6,0.25,95,136.0
6284,C#2,2706.6,0.25,95,136.0
6285,F#2,2706.6,0.25,95,136.0
6286,G#2,2706.85,0.25,31,136.0
6287,G#2,2707.1,0.25,79,136.0
6288,C2,2707.1,0.25,79,136.0
6289,G#2,2707.35,0.25,79,136.0
6290,G#2,2707.6,0.25,95,136.0
6291,C2,2707.6,0.25,95,136.0
6292,G#2,2707.85,3/20,31,136.0
6293,G#2,2708.0,1/10,31,136.0
6294,G#2,2708.1,0.25,63,136.0
6295,G#2,2708.35,0.25,79,136.0
6296,G#2,2708.6,0.25,95,136.0
6297,C#2,2708.6,0.25,95,136.0
6298,G#2,2708.85,0.25,31,136.0
6299,G#2,2709.1,0.25,79,136.0
6300,C2,2709.1,0.25,79,136.0
6301,G#2,2709.35,0.25,79,136.0
6302,G#2,2709.6,0.25,95,136.0
6303,G#2,2709.85,0.25,31,136.0
6304,G#2,2710.1,0.25,63,136.0
6305,G#2,2710.35,0.25,79,136.0
6306,G#2,2710.6,0.25,95,136.0
6307,C#2,2710.6,0.25,95,136.0
6308,G#2,2710.85,0.25,31,136.0
6309,G#2,2711.1,0.25,63,136.0
6310,G#2,2711.35,0.25,79,136.0
6311,G#2,2711.6,0.25,87,136.0
6312,C2,2711.6,0.25,87,136.0
6313,G#2,2711.85,3/20,31,136.0
6314,G#2,2712.0,1/10,31,136.0
6315,G#2,2712.1,0.25,63,136.0
6316,G#2,2712.35,0.25,79,136.0
6317,G#2,2712.6,0.25,95,136.0
6318,C#2,2712.6,0.25,95,136.0
6319,G#2,2712.85,0.25,31,136.0
6320,G#2,2713.1,0.25,79,136.0
6321,B-2,2713.1,0.25,79,136.0
6322,G#2,2713.35,0.25,79,136.0
6323,G#2,2713.6,0.25,95,136.0
6324,G#2,2713.85,0.25,31,136.0
6325,G#2,2714.1,0.25,63,136.0
6326,G#2,2714.35,0.25,87,136.0
6327,C2,2714.35,0.25,87,136.0
6328,G#2,2714.6,0.25,95,136.0
6329,C#2,2714.6,0.25,95,136.0
6330,F#2,2714.6,0.25,95,136.0
6331,G#2,2714.85,0.25,31,136.0
6332,G#2,2715.1,0.25,79,136.0
6333,C2,2715.1,0.25,79,136.0
6334,G#2,2715.35,0.25,79,136.0
6335,G#2,2715.6,0.25,95,136.0
6336,C2,2715.6,0.25,95,136.0
6337,G#2,2715.85,3/20,31,136.0
6338,G#2,2716.0,1/10,31,136.0
6339,G#2,2716.1,0.25,63,136.0
6340,G#2,2716.35,0.25,79,136.0
6341,G#2,2716.6,0.25,95,136.0
6342,C#2,2716.6,0.25,95,136.0
6343,G#2,2716.85,0.25,31,136.0
6344,G#2,2717.1,0.25,79,136.0
6345,C2,2717.1,0.25,79,136.0
6346,G#2,2717.35,0.25,79,136.0
6347,G#2,2717.6,0.25,95,136.0
6348,G#2,2717.85,0.25,31,136.0
6349,G#2,2718.1,0.25,63,136.0
6350,G#2,2718.35,0.25,79,136.0
6351,G#2,2718.6,0.25,95,136.0
6352,C#2,2718.6,0.25,95,136.0
6353,G#2,2718.85,0.25,31,136.0
6354,G#2,2719.1,0.25,63,136.0
6355,G#2,2719.35,0.25,79,136.0
6356,G#2,2719.6,0.25,87,136.0
6357,C2,2719.6,0.25,87,136.0
6358,G#2,2719.85,3/20,31,136.0
6359,G#2,2720.0,1/10,31,136.0
6360,G#2,2720.1,0.25,63,136.0
6361,G#2,2720.35,0.25,79,136.0
6362,G#2,2720.6,0.25,95,136.0
6363,C#2,2720.6,0.25,95,136.0
6364,G#2,2720.85,0.25,31,136.0
6365,G#2,2721.1,0.25,79,136.0
6366,B-2,2721.1,0.25,79,136.0
6367,G#2,2721.35,0.25,79,136.0
6368,G#2,2721.6,0.25,95,136.0
6369,G#2,2721.85,0.25,31,136.0
6370,G#2,2722.1,0.25,63,136.0
6371,G#2,2722.35,0.25,87,136.0
6372,C2,2722.35,0.25,87,136.0
6373,G#2,2722.6,0.25,95,136.0
6374,C#2,2722.6,0.25,95,136.0
6375,F#2,2722.6,0.25,95,136.0
6376,G#2,2722.85,0.25,31,136.0
6377,G#2,2723.1,0.25,79,136.0
6378,C2,2723.1,0.25,79,136.0
6379,G#2,2723.35,0.25,79,136.0
6380,G#2,2723.6,0.25,95,136.0
6381,C2,2723.6,0.25,95,136.0
6382,G#2,2723.85,3/20,31,136.0
6383,G#2,2724.0,1/10,31,136.0
6384,G#2,2724.1,0.25,63,136.0
6385,G#2,2724.35,0.25,79,136.0
6386,G#2,2724.6,0.25,95,136.0
6387,C#2,2724.6,0.25,95,136.0
6388,G#2,2724.85,0.25,31,136.0
6389,G#2,2725.1,0.25,79,136.0
6390,C2,2725.1,0.25,79,136.0
6391,G#2,2725.35,0.25,79,136.0
6392,G#2,2725.6,0.25,95,136.0
6393,G#2,2725.85,0.25,31,136.0
6394,G#2,2726.1,0.25,63,136.0
6395,G#2,2726.35,0.25,79,136.0
6396,G#2,2726.6,0.25,95,136.0
6397,C#2,2726.6,0.25,95,136.0
6398,G#2,2726.85,0.25,31,136.0
6399,G#2,2727.1,0.25,63,136.0
6400,G#2,2727.35,0.25,79,136.0
6401,G#2,2727.6,0.25,90,136.0
6402,C2,2727.6,0.25,90,136.0
6403,D2,2727.6,0.25,90,136.0
6404,G#2,2727.85,3/20,31,136.0
6405,G#2,2728.0,1/10,31,136.0
6406,G#2,2728.1,0.25,79,136.0
6407,C3,2728.1,0.25,79,136.0
6408,D2,2728.1,0.25,79,136.0
6409,G#2,2728.35,0.25,79,136.0
6410,B2,2728.35,0.25,79,136.0
6411,D2,2728.35,0.25,79,136.0
6412,G#2,2728.6,0.25,83,136.0
6413,C#2,2728.6,0.25,83,136.0
6414,A2,2728.6,0.25,83,136.0
6415,D2,2728.6,0.25,83,136.0
6416,G#2,2728.85,0.25,31,136.0
6417,G#2,2729.1,0.25,87,136.0
6418,B-2,2729.1,0.25,87,136.0
6419,C2,2729.1,0.25,87,136.0
6420,C#3,2729.1,0.25,87,136.0
6421,G#2,2729.35,0.25,79,136.0
6422,F#2,2729.6,0.25,95,136.0
6423,F#2,2729.85,0.25,31,136.0
6424,F#2,2730.1,0.25,79,136.0
6425,F#2,2730.35,0.25,79,136.0
6426,F#2,2730.6,0.25,95,136.0
6427,D2,2730.6,0.25,95,136.0
6428,F#2,2730.85,0.25,31,136.0
6429,F#2,2731.1,0.25,87,136.0
6430,C2,2731.1,0.25,87,136.0
6431,F#2,2731.35,0.25,79,136.0
6432,F#2,2731.6,0.25,95,136.0
6433,C2,2731.6,0.25,95,136.0
6434,F#2,2731.85,3/20,31,136.0
6435,F#2,2732.0,1/10,31,136.0
6436,F#2,2732.1,0.25,79,136.0
6437,F#2,2732.35,0.25,79,136.0
6438,F#2,2732.6,0.25,95,136.0
6439,D2,2732.6,0.25,95,136.0
6440,F#2,2732.85,0.25,31,136.0
6441,F#2,2733.1,0.25,87,136.0
6442,C2,2733.1,0.25,87,136.0
6443,F#2,2733.35,0.25,79,136.0
6444,F#2,2733.6,0.25,95,136.0
6445,F#2,2733.85,0.25,31,136.0
6446,F#2,2734.1,0.25,79,136.0
6447,F#2,2734.35,0.25,79,136.0
6448,F#2,2734.6,0.25,95,136.0
6449,D2,2734.6,0.25,95,136.0
6450,F#2,2734.85,0.25,31,136.0
6451,F#2,2735.1,0.25,87,136.0
6452,C2,2735.1,0.25,87,136.0
6453,F#2,2735.35,0.25,79,136.0
6454,F#2,2735.6,0.25,95,136.0
6455,C2,2735.6,0.25,95,136.0
6456,F#2,2735.85,3/20,31,136.0
6457,F#2,2736.0,1/10,31,136.0
6458,F#2,2736.1,0.25,79,136.0
6459,F#2,2736.35,0.25,79,136.0
6460,F#2,2736.6,0.25,95,136.0
6461,D2,2736.6,0.25,95,136.0
6462,F#2,2736.85,0.25,31,136.0
6463,F#2,2737.1,0.25,87,136.0
6464,C2,2737.1,0.25,87,136.0
6465,F#2,2737.35,0.25,79,136.0
6466,F#2,2737.6,0.25,95,136.0
6467,F#2,2737.85,0.25,31,136.0
6468,F#2,2738.1,0.25,79,136.0
6469,F#2,2738.35,0.25,79,136.0
6470,F#2,2738.6,0.25,95,136.0
6471,D2,2738.6,0.25,95,136.0
6472,F#2,2738.85,0.25,31,136.0
6473,F#2,2739.1,0.25,87,136.0
6474,C2,2739.1,0.25,87,136.0
6475,F#2,2739.35,0.25,79,136.0
6476,F#2,2739.6,0.25,95,136.0
6477,C2,2739.6,0.25,95,136.0
6478,F#2,2739.85,3/20,31,136.0
6479,F#2,2740.0,1/10,31,136.0
6480,F#2,2740.1,0.25,79,136.0
6481,F#2,2740.35,0.25,79,136.0
6482,F#2,2740.6,0.25,95,136.0
6483,D2,2740.6,0.25,95,136.0
6484,F#2,2740.85,0.25,31,136.0
6485,F#2,2741.1,0.25,87,136.0
6486,C2,2741.1,0.25,87,136.0
6487,F#2,2741.35,0.25,79,136.0
6488,F#2,2741.6,0.25,95,136.0
6489,F#2,2741.85,0.25,31,136.0
6490,F#2,2742.1,0.25,79,136.0
6491,F#2,2742.35,0.25,79,136.0
6492,F#2,2742.6,0.25,95,136.0
6493,D2,2742.6,0.25,95,136.0
6494,F#2,2742.85,0.25,31,136.0
6495,F#2,2743.1,0.25,87,136.0
6496,C2,2743.1,0.25,87,136.0
6497,F#2,2743.35,0.25,79,136.0
6498,F#2,2743.6,0.25,95,136.0
6499,C2,2743.6,0.25,95,136.0
6500,F#2,2743.85,3/20,31,136.0
6501,F#2,2744.0,1/10,31,136.0
6502,F#2,2744.1,0.25,79,136.0
6503,F#2,2744.35,0.25,79,136.0
6504,F#2,2744.6,0.25,95,136.0
6505,D2,2744.6,0.25,95,136.0
6506,F#2,2744.85,0.25,31,136.0
6507,F#2,2745.1,0.25,87,136.0
6508,C2,2745.1,0.25,87,136.0
6509,F#2,2745.35,0.25,79,136.0
6510,F#2,2745.6,0.25,95,136.0
6511,F#2,2745.85,0.25,31,136.0
6512,F#2,2746.1,0.25,79,136.0
6513,F#2,2746.35,0.25,79,136.0
6514,F#2,2746.6,0.25,95,136.0
6515,D2,2746.6,0.25,95,136.0
6516,F#2,2746.85,0.25,31,136.0
6517,F#2,2747.1,0.25,87,136.0
6518,C2,2747.1,0.25,87,136.0
6519,F#2,2747.35,0.25,79,136.0
6520,F#2,2747.6,0.25,95,136.0
6521,C2,2747.6,0.25,95,136.0
6522,F#2,2747.85,3/20,31,136.0
6523,F#2,2748.0,1/10,31,136.0
6524,F#2,2748.1,0.25,79,136.0
6525,F#2,2748.35,0.25,79,136.0
6526,F#2,2748.6,0.25,95,136.0
6527,D2,2748.6,0.25,95,136.0
6528,F#2,2748.85,0.25,31,136.0
6529,F#2,2749.1,0.25,87,136.0
6530,C2,2749.1,0.25,87,136.0
6531,F#2,2749.35,0.25,79,136.0
6532,F#2,2749.6,0.25,95,136.0
6533,F#2,2749.85,0.25,31,136.0
6534,F#2,2750.1,0.25,79,136.0
6535,F#2,2750.35,0.25,79,136.0
6536,F#2,2750.6,0.25,95,136.0
6537,D2,2750.6,0.25,95,136.0
6538,F#2,2750.85,0.25,31,136.0
6539,F#2,2751.1,0.25,87,136.0
6540,C2,2751.1,0.25,87,136.0
6541,F#2,2751.35,0.25,79,136.0
6542,F#2,2751.6,0.25,95,136.0
6543,C2,2751.6,0.25,95,136.0
6544,F#2,2751.85,3/20,31,136.0
6545,F#2,2752.0,1/10,31,136.0
6546,F#2,2752.1,0.25,79,136.0
6547,F#2,2752.35,0.25,79,136.0
6548,F#2,2752.6,0.25,95,136.0
6549,D2,2752.6,0.25,95,136.0
6550,F#2,2752.85,0.25,31,136.0
6551,F#2,2753.1,0.25,87,136.0
6552,C2,2753.1,0.25,87,136.0
6553,F#2,2753.35,0.25,79,136.0
6554,F#2,2753.6,0.25,95,136.0
6555,F#2,2753.85,0.25,31,136.0
6556,F#2,2754.1,0.25,79,136.0
6557,F#2,2754.35,0.25,79,136.0
6558,F#2,2754.6,0.25,95,136.0
6559,D2,2754.6,0.25,95,136.0
6560,F#2,2754.85,0.25,31,136.0
6561,F#2,2755.1,0.25,87,136.0
6562,C2,2755.1,0.25,87,136.0
6563,F#2,2755.35,0.25,79,136.0
6564,F#2,2755.6,0.25,95,136.0
6565,C2,2755.6,0.25,95,136.0
6566,F#2,2755.85,3/20,31,136.0
6567,F#2,2756.0,1/10,31,136.0
6568,F#2,2756.1,0.25,79,136.0
6569,F#2,2756.35,0.25,79,136.0
6570,F#2,2756.6,0.25,95,136.0
6571,D2,2756.6,0.25,95,136.0
6572,F#2,2756.85,0.25,31,136.0
6573,F#2,2757.1,0.25,87,136.0
6574,C2,2757.1,0.25,87,136.0
6575,F#2,2757.35,0.25,79,136.0
6576,F#2,2757.6,0.25,95,136.0
6577,F#2,2757.85,0.25,31,136.0
6578,F#2,2758.1,0.25,79,136.0
6579,F#2,2758.35,0.25,79,136.0
6580,F#2,2758.6,0.25,95,136.0
6581,D2,2758.6,0.25,95,136.0
6582,F#2,2758.85,0.25,31,136.0
6583,F#2,2759.1,0.25,87,136.0
6584,C2,2759.1,0.25,87,136.0
6585,F#2,2759.35,0.25,79,136.0
6586,F#2,2759.6,0.25,95,136.0
6587,C2,2759.6,0.25,95,136.0
6588,F#2,2759.85,3/20,31,136.0
6589,F#2,2760.0,1/10,31,136.0
6590,F#2,2760.1,0.25,79,136.0
6591,F#2,2760.35,0.25,79,136.0
6592,F#2,2760.6,0.25,95,136.0
6593,D2,2760.6,0.25,95,136.0
6594,F#2,2760.85,0.25,31,136.0
6595,F#2,2761.1,0.25,87,136.0
6596,C2,2761.1,0.25,87,136.0
6597,F#2,2761.35,0.25,79,136.0
6598,G#2,2761.6,0.25,95,136.0
6599,E3,2761.6,0.25,95,136.0
6600,G#2,2761.85,0.25,31,136.0
6601,G#2,2762.1,0.25,63,136.0
6602,G#2,2762.35,0.25,87,136.0
6603,C2,2762.35,0.25,87,136.0
6604,G#2,2762.6,0.25,95,136.0
6605,C#2,2762.6,0.25,95,136.0
6606,F#2,2762.6,0.25,95,136.0
6607,G#2,2762.85,0.25,31,136.0
6608,G#2,2763.1,0.25,79,136.0
6609,C2,2763.1,0.25,79,136.0
6610,G#2,2763.35,0.25,79,136.0
6611,G#2,2763.6,0.25,95,136.0
6612,C2,2763.6,0.25,95,136.0
6613,G#2,2763.85,3/20,31,136.0
6614,G#2,2764.0,1/10,31,136.0
6615,G#2,2764.1,0.25,63,136.0
6616,G#2,2764.35,0.25,79,136.0
6617,G#2,2764.6,0.25,95,136.0
6618,C#2,2764.6,0.25,95,136.0
6619,G#2,2764.85,0.25,31,136.0
6620,G#2,2765.1,0.25,79,136.0
6621,C2,2765.1,0.25,79,136.0
6622,G#2,2765.35,0.25,79,136.0
6623,G#2,2765.6,0.25,95,136.0
6624,G#2,2765.85,0.25,31,136.0
6625,G#2,2766.1,0.25,63,136.0
6626,G#2,2766.35,0.25,79,136.0
6627,G#2,2766.6,0.25,95,136.0
6628,C#2,2766.6,0.25,95,136.0
6629,G#2,2766.85,0.25,31,136.0
6630,G#2,2767.1,0.25,63,136.0
6631,G#2,2767.35,0.25,79,136.0
6632,G#2,2767.6,0.25,87,136.0
6633,C2,2767.6,0.25,87,136.0
6634,G#2,2767.85,3/20,31,136.0
6635,G#2,2768.0,1/10,31,136.0
6636,G#2,2768.1,0.25,63,136.0
6637,G#2,2768.35,0.25,79,136.0
6638,G#2,2768.6,0.25,95,136.0
6639,C#2,2768.6,0.25,95,136.0
6640,G#2,2768.85,0.25,31,136.0
6641,G#2,2769.1,0.25,79,136.0
6642,B-2,2769.1,0.25,79,136.0
6643,G#2,2769.35,0.25,79,136.0
6644,G#2,2769.6,0.25,95,136.0
6645,G#2,2769.85,0.25,31,136.0
6646,G#2,2770.1,0.25,63,136.0
6647,G#2,2770.35,0.25,87,136.0
6648,C2,2770.35,0.25,87,136.0
6649,G#2,2770.6,0.25,95,136.0
6650,C#2,2770.6,0.25,95,136.0
6651,F#2,2770.6,0.25,95,136.0
6652,G#2,2770.85,0.25,31,136.0
6653,G#2,2771.1,0.25,79,136.0
6654,C2,2771.1,0.25,79,136.0
6655,G#2,2771.35,0.25,79,136.0
6656,G#2,2771.6,0.25,95,136.0
6657,C2,2771.6,0.25,95,136.0
6658,G#2,2771.85,3/20,31,136.0
6659,G#2,2772.0,1/10,31,136.0
6660,G#2,2772.1,0.25,63,136.0
6661,G#2,2772.35,0.25,79,136.0
6662,G#2,2772.6,0.25,95,136.0
6663,C#2,2772.6,0.25,95,136.0
6664,G#2,2772.85,0.25,31,136.0
6665,G#2,2773.1,0.25,79,136.0
6666,C2,2773.1,0.25,79,136.0
6667,G#2,2773.35,0.25,79,136.0
6668,G#2,2773.6,0.25,95,136.0
6669,G#2,2773.85,0.25,31,136.0
6670,G#2,2774.1,0.25,63,136.0
6671,G#2,2774.35,0.25,79,136.0
6672,G#2,2774.6,0.25,95,136.0
6673,C#2,2774.6,0.25,95,136.0
6674,G#2,2774.85,0.25,31,136.0
6675,G#2,2775.1,0.25,63,136.0
6676,G#2,2775.35,0.25,79,136.0
6677,G#2,2775.6,0.25,87,136.0
6678,C2,2775.6,0.25,87,136.0
6679,G#2,2775.85,3/20,31,136.0
6680,G#2,2776.0,1/10,31,136.0
6681,G#2,2776.1,0.25,63,136.0
6682,G#2,2776.35,0.25,79,136.0
6683,G#2,2776.6,0.25,95,136.0
6684,C#2,2776.6,0.25,95,136.0
6685,G#2,2776.85,0.25,31,136.0
6686,G#2,2777.1,0.25,79,136.0
6687,B-2,2777.1,0.25,79,136.0
6688,G#2,2777.35,0.25,79,136.0
6689,G#2,2777.6,0.25,95,136.0
6690,G#2,2777.85,0.25,31,136.0
6691,G#2,2778.1,0.25,63,136.0
6692,G#2,2778.35,0.25,87,136.0
6693,C2,2778.35,0.25,87,136.0
6694,G#2,2778.6,0.25,95,136.0
6695,C#2,2778.6,0.25,95,136.0
6696,F#2,2778.6,0.25,95,136.0
6697,G#2,2778.85,0.25,31,136.0
6698,G#2,2779.1,0.25,79,136.0
6699,C2,2779.1,0.25,79,136.0
6700,G#2,2779.35,0.25,79,136.0
6701,G#2,2779.6,0.25,95,136.0
6702,C2,2779.6,0.25,95,136.0
6703,G#2,2779.85,3/20,31,136.0
6704,G#2,2780.0,1/10,31,136.0
6705,G#2,2780.1,0.25,63,136.0
6706,G#2,2780.35,0.25,79,136.0
6707,G#2,2780.6,0.25,95,136.0
6708,C#2,2780.6,0.25,95,136.0
6709,G#2,2780.85,0.25,31,136.0
6710,G#2,2781.1,0.25,79,136.0
6711,C2,2781.1,0.25,79,136.0
6712,G#2,2781.35,0.25,79,136.0
6713,G#2,2781.6,0.25,95,136.0
6714,G#2,2781.85,0.25,31,136.0
6715,G#2,2782.1,0.25,63,136.0
6716,G#2,2782.35,0.25,79,136.0
6717,G#2,2782.6,0.25,95,136.0
6718,C#2,2782.6,0.25,95,136.0
6719,G#2,2782.85,0.25,31,136.0
6720,G#2,2783.1,0.25,63,136.0
6721,G#2,2783.35,0.25,79,136.0
6722,G#2,2783.6,0.25,87,136.0
6723,C2,2783.6,0.25,87,136.0
6724,G#2,2783.85,3/20,31,136.0
6725,G#2,2784.0,1/10,31,136.0
6726,G#2,2784.1,0.25,63,136.0
6727,G#2,2784.35,0.25,79,136.0
6728,G#2,2784.6,0.25,95,136.0
6729,C#2,2784.6,0.25,95,136.0
6730,G#2,2784.85,0.25,31,136.0
6731,G#2,2785.1,0.25,79,136.0
6732,B-2,2785.1,0.25,79,136.0
6733,G#2,2785.35,0.25,79,136.0
6734,G#2,2785.6,0.25,95,136.0
6735,G#2,2785.85,0.25,31,136.0
6736,G#2,2786.1,0.25,63,136.0
6737,G#2,2786.35,0.25,87,136.0
6738,C2,2786.35,0.25,87,136.0
6739,G#2,2786.6,0.25,95,136.0
6740,C#2,2786.6,0.25,95,136.0
6741,F#2,2786.6,0.25,95,136.0
6742,G#2,2786.85,0.25,31,136.0
6743,G#2,2787.1,0.25,79,136.0
6744,C2,2787.1,0.25,79,136.0
6745,G#2,2787.35,0.25,79,136.0
6746,G#2,2787.6,0.25,95,136.0
6747,C2,2787.6,0.25,95,136.0
6748,G#2,2787.85,3/20,31,136.0
6749,G#2,2788.0,1/10,31,136.0
6750,G#2,2788.1,0.25,63,136.0
6751,G#2,2788.35,0.25,79,136.0
6752,G#2,2788.6,0.25,95,136.0
6753,C#2,2788.6,0.25,95,136.0
6754,G#2,2788.85,0.25,31,136.0
6755,G#2,2789.1,0.25,79,136.0
6756,C2,2789.1,0.25,79,136.0
6757,G#2,2789.35,0.25,79,136.0
6758,G#2,2789.6,0.25,95,136.0
6759,G#2,2789.85,0.25,31,136.0
6760,G#2,2790.1,0.25,63,136.0
6761,G#2,2790.35,0.25,79,136.0
6762,G#2,2790.6,0.25,95,136.0
6763,C#2,2790.6,0.25,95,136.0
6764,G#2,2790.85,0.25,31,136.0
6765,G#2,2791.1,0.25,63,136.0
6766,G#2,2791.35,0.25,79,136.0
6767,G#2,2791.6,0.25,87,136.0
6768,C2,2791.6,0.25,87,136.0
6769,G#2,2791.85,3/20,31,136.0
6770,G#2,2792.0,1/10,31,136.0
6771,G#2,2792.1,0.25,63,136.0
6772,G#2,2792.35,0.25,79,136.0
6773,G#2,2792.6,0.25,95,136.0
6774,C#2,2792.6,0.25,95,136.0
6775,G#2,2792.85,0.25,31,136.0
6776,G#2,2793.1,0.25,79,136.0
6777,B-2,2793.1,0.25,79,136.0
6778,G#2,2793.35,0.25,79,136.0
6779,G#2,2793.6,0.25,95,136.0
6780,E3,2793.6,0.25,95,136.0
6781,G#2,2793.85,0.25,31,136.0
6782,G#2,2794.1,0.25,63,136.0
6783,G#2,2794.35,0.25,87,136.0
6784,C2,2794.35,0.25,87,136.0
6785,G#2,2794.6,0.25,95,136.0
6786,C#2,2794.6,0.25,95,136.0
6787,F#2,2794.6,0.25,95,136.0
6788,G#2,2794.85,0.25,31,136.0
6789,G#2,2795.1,0.25,79,136.0
6790,C2,2795.1,0.25,79,136.0
6791,G#2,2795.35,0.25,79,136.0
6792,G#2,2795.6,0.25,95,136.0
6793,C2,2795.6,0.25,95,136.0
6794,G#2,2795.85,3/20,31,136.0
6795,G#2,2796.0,1/10,31,136.0
6796,G#2,2796.1,0.25,63,136.0
6797,G#2,2796.35,0.25,79,136.0
6798,G#2,2796.6,0.25,95,136.0
6799,C#2,2796.6,0.25,95,136.0
6800,G#2,2796.85,0.25,31,136.0
6801,G#2,2797.1,0.25,79,136.0
6802,C2,2797.1,0.25,79,136.0
6803,G#2,2797.35,0.25,79,136.0
6804,G#2,2797.6,0.25,95,136.0
6805,G#2,2797.85,0.25,31,136.0
6806,G#2,2798.1,0.25,63,136.0
6807,G#2,2798.35,0.25,79,136.0
6808,G#2,2798.6,0.25,95,136.0
6809,C#2,2798.6,0.25,95,136.0
6810,G#2,2798.85,0.25,31,136.0
6811,G#2,2799.1,0.25,63,136.0
6812,G#2,2799.35,0.25,79,136.0
6813,G#2,2799.6,0.25,87,136.0
6814,C2,2799.6,0.25,87,136.0
6815,G#2,2799.85,3/20,31,136.0
6816,G#2,2800.0,1/10,31,136.0
6817,G#2,2800.1,0.25,63,136.0
6818,G#2,2800.35,0.25,79,136.0
6819,G#2,2800.6,0.25,95,136.0
6820,C#2,2800.6,0.25,95,136.0
6821,G#2,2800.85,0.25,31,136.0
6822,G#2,2801.1,0.25,79,136.0
6823,B-2,2801.1,0.25,79,136.0
6824,G#2,2801.35,0.25,79,136.0
6825,G#2,2801.6,0.25,95,136.0
6826,G#2,2801.85,0.25,31,136.0
6827,G#2,2802.1,0.25,63,136.0
6828,G#2,2802.35,0.25,87,136.0
6829,C2,2802.35,0.25,87,136.0
6830,G#2,2802.6,0.25,95,136.0
6831,C#2,2802.6,0.25,95,136.0
6832,F#2,2802.6,0.25,95,136.0
6833,G#2,2802.85,0.25,31,136.0
6834,G#2,2803.1,0.25,79,136.0
6835,C2,2803.1,0.25,79,136.0
6836,G#2,2803.35,0.25,79,136.0
6837,G#2,2803.6,0.25,95,136.0
6838,C2,2803.6,0.25,95,136.0
6839,G#2,2803.85,3/20,31,136.0
6840,G#2,2804.0,1/10,31,136.0
6841,G#2,2804.1,0.25,63,136.0
6842,G#2,2804.35,0.25,79,136.0
6843,G#2,2804.6,0.25,95,136.0
6844,C#2,2804.6,0.25,95,136.0
6845,G#2,2804.85,0.25,31,136.0
6846,G#2,2805.1,0.25,79,136.0
6847,C2,2805.1,0.25,79,136.0
6848,G#2,2805.35,0.25,79,136.0
6849,G#2,2805.6,0.25,95,136.0
6850,G#2,2805.85,0.25,31,136.0
6851,G#2,2806.1,0.25,63,136.0
6852,G#2,2806.35,0.25,79,136.0
6853,G#2,2806.6,0.25,95,136.0
6854,C#2,2806.6,0.25,95,136.0
6855,G#2,2806.85,0.25,31,136.0
6856,G#2,2807.1,0.25,63,136.0
6857,G#2,2807.35,0.25,79,136.0
6858,G#2,2807.6,0.25,87,136.0
6859,C2,2807.6,0.25,87,136.0
6860,G#2,2807.85,3/20,31,136.0
6861,G#2,2808.0,1/10,31,136.0
6862,G#2,2808.1,0.25,63,136.0
6863,G#2,2808.35,0.25,79,136.0
6864,G#2,2808.6,0.25,95,136.0
6865,C#2,2808.6,0.25,95,136.0
6866,G#2,2808.85,0.25,31,136.0
6867,G#2,2809.1,0.25,79,136.0
6868,B-2,2809.1,0.25,79,136.0
6869,G#2,2809.35,0.25,79,136.0
6870,G#2,2809.6,0.25,95,136.0
6871,G#2,2809.85,0.25,31,136.0
6872,G#2,2810.1,0.25,63,136.0
6873,G#2,2810.35,0.25,87,136.0
6874,C2,2810.35,0.25,87,136.0
6875,G#2,2810.6,0.25,95,136.0
6876,C#2,2810.6,0.25,95,136.0
6877,F#2,2810.6,0.25,95,136.0
6878,G#2,2810.85,0.25,31,136.0
6879,G#2,2811.1,0.25,79,136.0
6880,C2,2811.1,0.25,79,136.0
6881,G#2,2811.35,0.25,79,136.0
6882,G#2,2811.6,0.25,95,136.0
6883,C2,2811.6,0.25,95,136.0
6884,G#2,2811.85,3/20,31,136.0
6885,G#2,2812.0,1/10,31,136.0
6886,G#2,2812.1,0.25,63,136.0
6887,G#2,2812.35,0.25,79,136.0
6888,G#2,2812.6,0.25,95,136.0
6889,C#2,2812.6,0.25,95,136.0
6890,G#2,2812.85,0.25,31,136.0
6891,G#2,2813.1,0.25,79,136.0
6892,C2,2813.1,0.25,79,136.0
6893,G#2,2813.35,0.25,79,136.0
6894,G#2,2813.6,0.25,95,136.0
6895,G#2,2813.85,0.25,31,136.0
6896,G#2,2814.1,0.25,63,136.0
6897,G#2,2814.35,0.25,79,136.0
6898,G#2,2814.6,0.25,95,136.0
6899,C#2,2814.6,0.25,95,136.0
6900,G#2,2814.85,0.25,31,136.0
6901,G#2,2815.1,0.25,63,136.0
6902,G#2,2815.35,0.25,79,136.0
6903,G#2,2815.6,0.25,87,136.0
6904,C2,2815.6,0.25,87,136.0
6905,G#2,2815.85,3/20,31,136.0
6906,G#2,2816.0,1/10,31,136.0
6907,G#2,2816.1,0.25,63,136.0
6908,G#2,2816.35,0.25,79,136.0
6909,G#2,2816.6,0.25,95,136.0
6910,C#2,2816.6,0.25,95,136.0
6911,G#2,2816.85,0.25,31,136.0
6912,G#2,2817.1,0.25,79,136.0
6913,B-2,2817.1,0.25,79,136.0
6914,G#2,2817.35,0.25,79,136.0
6915,G#2,2817.6,0.25,95,136.0
6916,G#2,2817.85,0.25,31,136.0
6917,G#2,2818.1,0.25,63,136.0
6918,G#2,2818.35,0.25,87,136.0
6919,C2,2818.35,0.25,87,136.0
6920,G#2,2818.6,0.25,95,136.0
6921,C#2,2818.6,0.25,95,136.0
6922,F#2,2818.6,0.25,95,136.0
6923,G#2,2818.85,0.25,31,136.0
6924,G#2,2819.1,0.25,79,136.0
6925,C2,2819.1,0.25,79,136.0
6926,G#2,2819.35,0.25,79,136.0
6927,G#2,2819.6,0.25,95,136.0
6928,C2,2819.6,0.25,95,136.0
6929,G#2,2819.85,3/20,31,136.0
6930,G#2,2820.0,1/10,31,136.0
6931,G#2,2820.1,0.25,63,136.0
6932,G#2,2820.35,0.25,79,136.0
6933,G#2,2820.6,0.25,95,136.0
6934,C#2,2820.6,0.25,95,136.0
6935,G#2,2820.85,0.25,31,136.0
6936,G#2,2821.1,0.25,79,136.0
6937,C2,2821.1,0.25,79,136.0
6938,G#2,2821.35,0.25,79,136.0
6939,G#2,2821.6,0.25,95,136.0
6940,G#2,2821.85,0.25,31,136.0
6941,G#2,2822.1,0.25,63,136.0
6942,G#2,2822.35,0.25,79,136.0
6943,G#2,2822.6,0.25,95,136.0
6944,C#2,2822.6,0.25,95,136.0
6945,G#2,2822.85,0.25,31,136.0
6946,G#2,2823.1,0.25,63,136.0
6947,G#2,2823.35,0.25,79,136.0
6948,G#2,2823.6,0.25,87,136.0
6949,C2,2823.6,0.25,87,136.0
6950,G#2,2823.85,3/20,31,136.0
6951,G#2,2824.0,1/10,31,136.0
6952,G#2,2824.1,0.25,63,136.0
6953,G#2,2824.35,0.25,79,136.0
6954,G#2,2824.6,0.25,95,136.0
6955,C#2,2824.6,0.25,95,136.0
6956,G#2,2824.85,0.25,31,136.0
6957,G#2,2825.1,0.25,79,136.0
6958,B-2,2825.1,0.25,79,136.0
6959,G#2,2825.35,0.25,79,136.0
6960,C6,2825.35,0.5,95,136.0
6961,G#2,2825.6,0.25,95,136.0
6962,E3,2825.6,0.25,95,136.0
6963,G#2,2825.85,0.25,31,136.0
6964,G#2,2826.1,0.25,63,136.0
6965,G#2,2826.35,0.25,87,136.0
6966,C2,2826.35,0.25,87,136.0
6967,G#2,2826.6,0.25,95,136.0
6968,C#2,2826.6,0.25,95,136.0
6969,F#2,2826.6,0.25,95,136.0
6970,G#2,2826.85,0.25,31,136.0
6971,G#2,2827.1,0.25,79,136.0
6972,C2,2827.1,0.25,79,136.0
6973,G#2,2827.35,0.25,79,136.0
6974,G#2,2827.6,0.25,95,136.0
6975,C2,2827.6,0.25,95,136.0
6976,G#2,2827.85,3/20,31,136.0
6977,G#2,2828.0,1/10,31,136.0
6978,G#2,2828.1,0.25,63,136.0
6979,G#2,2828.35,0.25,79,136.0
6980,G#2,2828.6,0.25,95,136.0
6981,C#2,2828.6,0.25,95,136.0
6982,G#2,2828.85,0.25,31,136.0
6983,G#2,2829.1,0.25,79,136.0
6984,C2,2829.1,0.25,79,136.0
6985,G#2,2829.35,0.25,79,136.0
6986,G#2,2829.6,0.25,95,136.0
6987,G#2,2829.85,0.25,31,136.0
6988,G#2,2830.1,0.25,63,136.0
6989,G#2,2830.35,0.25,79,136.0
6990,G#2,2830.6,0.25,95,136.0
6991,C#2,2830.6,0.25,95,136.0
6992,G#2,2830.85,0.25,31,136.0
6993,G#2,2831.1,0.25,63,136.0
6994,G#2,2831.35,0.25,79,136.0
6995,G#2,2831.6,0.25,87,136.0
6996,C2,2831.6,0.25,87,136.0
6997,G#2,2831.85,3/20,31,136.0
6998,G#2,2832.0,1/10,31,136.0
6999,G#2,2832.1,0.25,63,136.0
7000,G#2,2832.35,0.25,79,136.0
7001,G#2,2832.6,0.25,95,136.0
7002,C#2,2832.6,0.25,95,136.0
7003,G#2,2832.85,0.25,31,136.0
7004,G#2,2833.1,0.25,79,136.0
7005,B-2,2833.1,0.25,79,136.0
7006,G#2,2833.35,0.25,79,136.0
7007,G#2,2833.6,0.25,95,136.0
7008,G#2,2833.85,0.25,31,136.0
7009,G#2,2834.1,0.25,63,136.0
7010,G#2,2834.35,0.25,87,136.0
7011,C2,2834.35,0.25,87,136.0
7012,G#2,2834.6,0.25,95,136.0
7013,C#2,2834.6,0.25,95,136.0
7014,F#2,2834.6,0.25,95,136.0
7015,G#2,2834.85,0.25,31,136.0
7016,G#2,2835.1,0.25,79,136.0
7017,C2,2835.1,0.25,79,136.0
7018,G#2,2835.35,0.25,79,136.0
7019,G#2,2835.6,0.25,95,136.0
7020,C2,2835.6,0.25,95,136.0
7021,G#2,2835.85,3/20,31,136.0
7022,G#2,2836.0,1/10,31,136.0
7023,G#2,2836.1,0.25,63,136.0
7024,G#2,2836.35,0.25,79,136.0
7025,G#2,2836.6,0.25,95,136.0
7026,C#2,2836.6,0.25,95,136.0
7027,G#2,2836.85,0.25,31,136.0
7028,G#2,2837.1,0.25,79,136.0
7029,C2,2837.1,0.25,79,136.0
7030,G#2,2837.35,0.25,79,136.0
7031,G#2,2837.6,0.25,95,136.0
7032,G#2,2837.85,0.25,31,136.0
7033,G#2,2838.1,0.25,63,136.0
7034,G#2,2838.35,0.25,79,136.0
7035,G#2,2838.6,0.25,95,136.0
7036,C#2,2838.6,0.25,95,136.0
7037,G#2,2838.85,0.25,31,136.0
7038,G#2,2839.1,0.25,63,136.0
7039,G#2,2839.35,0.25,79,136.0
7040,G#2,2839.6,0.25,87,136.0
7041,C2,2839.6,0.25,87,136.0
7042,G#2,2839.85,3/20,31,136.0
7043,G#2,2840.0,1/10,31,136.0
7044,G#2,2840.1,0.25,63,136.0
7045,G#2,2840.35,0.25,79,136.0
7046,G#2,2840.6,0.25,95,136.0
7047,C#2,2840.6,0.25,95,136.0
7048,G#2,2840.85,0.25,31,136.0
7049,G#2,2841.1,0.25,79,136.0
7050,B-2,2841.1,0.25,79,136.0
7051,G#2,2841.35,0.25,79,136.0
7052,G#2,2841.6,0.25,95,136.0
7053,G#2,2841.85,0.25,31,136.0
7054,G#2,2842.1,0.25,63,136.0
7055,G#2,2842.35,0.25,87,136.0
7056,C2,2842.35,0.25,87,136.0
7057,G#2,2842.6,0.25,95,136.0
7058,C#2,2842.6,0.25,95,136.0
7059,F#2,2842.6,0.25,95,136.0
7060,G#2,2842.85,0.25,31,136.0
7061,G#2,2843.1,0.25,79,136.0
7062,C2,2843.1,0.25,79,136.0
7063,G#2,2843.35,0.25,79,136.0
7064,G#2,2843.6,0.25,95,136.0
7065,C2,2843.6,0.25,95,136.0
7066,G#2,2843.85,3/20,31,136.0
7067,G#2,2844.0,1/10,31,136.0
7068,G#2,2844.1,0.25,63,136.0
7069,G#2,2844.35,0.25,79,136.0
7070,G#2,2844.6,0.25,95,136.0
7071,C#2,2844.6,0.25,95,136.0
7072,G#2,2844.85,0.25,31,136.0
7073,G#2,2845.1,0.25,79,136.0
7074,C2,2845.1,0.25,79,136.0
7075,G#2,2845.35,0.25,79,136.0
7076,G#2,2845.6,0.25,95,136.0
7077,G#2,2845.85,0.25,31,136.0
7078,G#2,2846.1,0.25,63,136.0
7079,G#2,2846.35,0.25,79,136.0
7080,G#2,2846.6,0.25,95,136.0
7081,C#2,2846.6,0.25,95,136.0
7082,G#2,2846.85,0.25,31,136.0
7083,G#2,2847.1,0.25,63,136.0
7084,G#2,2847.35,0.25,79,136.0
7085,G#2,2847.6,0.25,87,136.0
7086,C2,2847.6,0.25,87,136.0
7087,G#2,2847.85,3/20,31,136.0
7088,G#2,2848.0,1/10,31,136.0
7089,G#2,2848.1,0.25,63,136.0
7090,G#2,2848.35,0.25,79,136.0
7091,G#2,2848.6,0.25,95,136.0
7092,C#2,2848.6,0.25,95,136.0
7093,G#2,2848.85,0.25,31,136.0
7094,G#2,2849.1,0.25,79,136.0
7095,B-2,2849.1,0.25,79,136.0
7096,G#2,2849.35,0.25,79,136.0
7097,G#2,2849.6,0.25,95,136.0
7098,G#2,2849.85,0.25,31,136.0
7099,G#2,2850.1,0.25,63,136.0
7100,G#2,2850.35,0.25,87,136.0
7101,C2,2850.35,0.25,87,136.0
7102,G#2,2850.6,0.25,95,136.0
7103,C#2,2850.6,0.25,95,136.0
7104,F#2,2850.6,0.25,95,136.0
7105,G#2,2850.85,0.25,31,136.0
7106,G#2,2851.1,0.25,79,136.0
7107,C2,2851.1,0.25,79,136.0
7108,G#2,2851.35,0.25,79,136.0
7109,G#2,2851.6,0.25,95,136.0
7110,C2,2851.6,0.25,95,136.0
7111,G#2,2851.85,3/20,31,136.0
7112,G#2,2852.0,1/10,31,136.0
7113,G#2,2852.1,0.25,63,136.0
7114,G#2,2852.35,0.25,79,136.0
7115,G#2,2852.6,0.25,95,136.0
7116,C#2,2852.6,0.25,95,136.0
7117,G#2,2852.85,0.25,31,136.0
7118,G#2,2853.1,0.25,79,136.0
7119,C2,2853.1,0.25,79,136.0
7120,G#2,2853.35,0.25,79,136.0
7121,G#2,2853.6,0.25,95,136.0
7122,G#2,2853.85,0.25,31,136.0
7123,G#2,2854.1,0.25,63,136.0
7124,G#2,2854.35,0.25,79,136.0
7125,G#2,2854.6,0.25,95,136.0
7126,C#2,2854.6,0.25,95,136.0
7127,G#2,2854.85,0.25,31,136.0
7128,G#2,2855.1,0.25,63,136.0
7129,G#2,2855.35,0.25,79,136.0
7130,G#2,2855.6,0.25,90,136.0
7131,C2,2855.6,0.25,90,136.0
7132,D2,2855.6,0.25,90,136.0
7133,G#2,2855.85,3/20,31,136.0
7134,G#2,2856.0,1/10,31,136.0
7135,G#2,2856.1,0.25,79,136.0
7136,C3,2856.1,0.25,79,136.0
7137,D2,2856.1,0.25,79,136.0
7138,G#2,2856.35,0.25,79,136.0
7139,B2,2856.35,0.25,79,136.0
7140,D2,2856.35,0.25,79,136.0
7141,G#2,2856.6,0.25,83,136.0
7142,C#2,2856.6,0.25,83,136.0
7143,A2,2856.6,0.25,83,136.0
7144,D2,2856.6,0.25,83,136.0
7145,G#2,2856.85,0.25,31,136.0
7146,G#2,2857.1,0.25,87,136.0
7147,B-2,2857.1,0.25,87,136.0
7148,C2,2857.1,0.25,87,136.0
7149,C#3,2857.1,0.25,87,136.0
7150,G#2,2857.35,0.25,79,136.0
7151,F#2,2857.6,0.25,95,136.0
7152,F#2,2857.85,0.25,31,136.0
7153,F#2,2858.1,0.25,79,136.0
7154,F#2,2858.35,0.25,79,136.0
7155,F#2,2858.6,0.25,95,136.0
7156,D2,2858.6,0.25,95,136.0
7157,F#2,2858.85,0.25,31,136.0
7158,F#2,2859.1,0.25,87,136.0
7159,C2,2859.1,0.25,87,136.0
7160,F#2,2859.35,0.25,79,136.0
7161,F#2,2859.6,0.25,95,136.0
7162,C2,2859.6,0.25,95,136.0
7163,F#2,2859.85,3/20,31,136.0
7164,F#2,2860.0,1/10,31,136.0
7165,F#2,2860.1,0.25,79,136.0
7166,F#2,2860.35,0.25,79,136.0
7167,F#2,2860.6,0.25,95,136.0
7168,D2,2860.6,0.25,95,136.0
7169,F#2,2860.85,0.25,31,136.0
7170,F#2,2861.1,0.25,87,136.0
7171,C2,2861.1,0.25,87,136.0
7172,F#2,2861.35,0.25,79,136.0
7173,F#2,2861.6,0.25,95,136.0
7174,F#2,2861.85,0.25,31,136.0
7175,F#2,2862.1,0.25,79,136.0
7176,F#2,2862.35,0.25,79,136.0
7177,F#2,2862.6,0.25,95,136.0
7178,D2,2862.6,0.25,95,136.0
7179,F#2,2862.85,0.25,31,136.0
7180,F#2,2863.1,0.25,87,136.0
7181,C2,2863.1,0.25,87,136.0
7182,F#2,2863.35,0.25,79,136.0
7183,F#2,2863.6,0.25,95,136.0
7184,C2,2863.6,0.25,95,136.0
7185,F#2,2863.85,3/20,31,136.0
7186,F#2,2864.0,1/10,31,136.0
7187,F#2,2864.1,0.25,79,136.0
7188,F#2,2864.35,0.25,79,136.0
7189,F#2,2864.6,0.25,95,136.0
7190,D2,2864.6,0.25,95,136.0
7191,F#2,2864.85,0.25,31,136.0
7192,F#2,2865.1,0.25,87,136.0
7193,C2,2865.1,0.25,87,136.0
7194,F#2,2865.35,0.25,79,136.0
7195,F#2,2865.6,0.25,95,136.0
7196,F#2,2865.85,0.25,31,136.0
7197,F#2,2866.1,0.25,79,136.0
7198,F#2,2866.35,0.25,79,136.0
7199,F#2,2866.6,0.25,95,136.0
7200,D2,2866.6,0.25,95,136.0
7201,F#2,2866.85,0.25,31,136.0
7202,F#2,2867.1,0.25,87,136.0
7203,C2,2867.1,0.25,87,136.0
7204,F#2,2867.35,0.25,79,136.0
7205,F#2,2867.6,0.25,95,136.0
7206,C2,2867.6,0.25,95,136.0
7207,F#2,2867.85,3/20,31,136.0
7208,F#2,2868.0,1/10,31,136.0
7209,F#2,2868.1,0.25,79,136.0
7210,F#2,2868.35,0.25,79,136.0
7211,F#2,2868.6,0.25,95,136.0
7212,D2,2868.6,0.25,95,136.0
7213,F#2,2868.85,0.25,31,136.0
7214,F#2,2869.1,0.25,87,136.0
7215,C2,2869.1,0.25,87,136.0
7216,F#2,2869.35,0.25,79,136.0
7217,F#2,2869.6,0.25,95,136.0
7218,F#2,2869.85,0.25,31,136.0
7219,F#2,2870.1,0.25,79,136.0
7220,F#2,2870.35,0.25,79,136.0
7221,F#2,2870.6,0.25,95,136.0
7222,D2,2870.6,0.25,95,136.0
7223,F#2,2870.85,0.25,31,136.0
7224,F#2,2871.1,0.25,87,136.0
7225,C2,2871.1,0.25,87,136.0
7226,F#2,2871.35,0.25,79,136.0
7227,F#2,2871.6,0.25,95,136.0
7228,C2,2871.6,0.25,95,136.0
7229,F#2,2871.85,3/20,31,136.0
7230,F#2,2872.0,1/10,31,136.0
7231,F#2,2872.1,0.25,79,136.0
7232,F#2,2872.35,0.25,79,136.0
7233,F#2,2872.6,0.25,95,136.0
7234,D2,2872.6,0.25,95,136.0
7235,F#2,2872.85,0.25,31,136.0
7236,F#2,2873.1,0.25,87,136.0
7237,C2,2873.1,0.25,87,136.0
7238,F#2,2873.35,0.25,79,136.0
7239,F#2,2873.6,0.25,95,136.0
7240,F#2,2873.85,0.25,31,136.0
7241,F#2,2874.1,0.25,79,136.0
7242,F#2,2874.35,0.25,79,136.0
7243,F#2,2874.6,0.25,95,136.0
7244,D2,2874.6,0.25,95,136.0
7245,F#2,2874.85,0.25,31,136.0
7246,F#2,2875.1,0.25,87,136.0
7247,C2,2875.1,0.25,87,136.0
7248,F#2,2875.35,0.25,79,136.0
7249,F#2,2875.6,0.25,95,136.0
7250,C2,2875.6,0.25,95,136.0
7251,F#2,2875.85,3/20,31,136.0
7252,F#2,2876.0,1/10,31,136.0
7253,F#2,2876.1,0.25,79,136.0
7254,F#2,2876.35,0.25,79,136.0
7255,F#2,2876.6,0.25,95,136.0
7256,D2,2876.6,0.25,95,136.0
7257,F#2,2876.85,0.25,31,136.0
7258,F#2,2877.1,0.25,87,136.0
7259,C2,2877.1,0.25,87,136.0
7260,F#2,2877.35,0.25,79,136.0
7261,F#2,2877.6,0.25,95,136.0
7262,F#2,2877.85,0.25,31,136.0
7263,F#2,2878.1,0.25,79,136.0
7264,F#2,2878.35,0.25,79,136.0
7265,F#2,2878.6,0.25,95,136.0
7266,D2,2878.6,0.25,95,136.0
7267,F#2,2878.85,0.25,31,136.0
7268,F#2,2879.1,0.25,87,136.0
7269,C2,2879.1,0.25,87,136.0
7270,F#2,2879.35,0.25,79,136.0
7271,F#2,2879.6,0.25,95,136.0
7272,C2,2879.6,0.25,95,136.0
7273,F#2,2879.85,3/20,31,136.0
7274,F#2,2880.0,1/10,31,136.0
7275,F#2,2880.1,0.25,79,136.0
7276,F#2,2880.35,0.25,79,136.0
7277,F#2,2880.6,0.25,95,136.0
7278,D2,2880.6,0.25,95,136.0
7279,F#2,2880.85,0.25,31,136.0
7280,F#2,2881.1,0.25,87,136.0
7281,C2,2881.1,0.25,87,136.0
7282,F#2,2881.35,0.25,79,136.0
7283,F#2,2881.6,0.25,95,136.0
7284,F#2,2881.85,0.25,31,136.0
7285,F#2,2882.1,0.25,79,136.0
7286,F#2,2882.35,0.25,79,136.0
7287,F#2,2882.6,0.25,95,136.0
7288,D2,2882.6,0.25,95,136.0
7289,F#2,2882.85,0.25,31,136.0
7290,F#2,2883.1,0.25,87,136.0
7291,C2,2883.1,0.25,87,136.0
7292,F#2,2883.35,0.25,79,136.0
7293,F#2,2883.6,0.25,95,136.0
7294,C2,2883.6,0.25,95,136.0
7295,F#2,2883.85,3/20,31,136.0
7296,F#2,2884.0,1/10,31,136.0
7297,F#2,2884.1,0.25,79,136.0
7298,F#2,2884.35,0.25,79,136.0
7299,F#2,2884.6,0.25,95,136.0
7300,D2,2884.6,0.25,95,136.0
7301,F#2,2884.85,0.25,31,136.0
7302,F#2,2885.1,0.25,87,136.0
7303,C2,2885.1,0.25,87,136.0
7304,F#2,2885.35,0.25,79,136.0
7305,F#2,2885.6,0.25,95,136.0
7306,F#2,2885.85,0.25,31,136.0
7307,F#2,2886.1,0.25,79,136.0
7308,F#2,2886.35,0.25,79,136.0
7309,F#2,2886.6,0.25,95,136.0
7310,D2,2886.6,0.25,95,136.0
7311,F#2,2886.85,0.25,31,136.0
7312,F#2,2887.1,0.25,87,136.0
7313,C2,2887.1,0.25,87,136.0
7314,F#2,2887.35,0.25,79,136.0
7315,F#2,2887.6,0.25,95,136.0
7316,C2,2887.6,0.25,95,136.0
7317,F#2,2887.85,3/20,31,136.0
7318,F#2,2888.0,1/10,31,136.0
7319,F#2,2888.1,0.25,79,136.0
7320,F#2,2888.35,0.25,79,136.0
7321,F#2,2888.6,0.25,95,136.0
7322,D2,2888.6,0.25,95,136.0
7323,F#2,2888.85,0.25,31,136.0
7324,F#2,2889.1,0.25,79,136.0
7325,C2,2889.1,0.75,95,136.0
7326,F#2,2889.35,0.25,79,136.0
7327,G#2,2889.6,0.25,95,136.0
7328,E3,2889.6,0.25,95,136.0
7329,G#2,2889.85,0.25,31,136.0
7330,G#2,2890.1,0.25,63,136.0
7331,G#2,2890.35,0.25,87,136.0
7332,C2,2890.35,0.25,87,136.0
7333,G#2,2890.6,0.25,95,136.0
7334,C#2,2890.6,0.25,95,136.0
7335,F#2,2890.6,0.25,95,136.0
7336,G#2,2890.85,0.25,31,136.0
7337,G#2,2891.1,0.25,79,136.0
7338,C2,2891.1,0.25,79,136.0
7339,G#2,2891.35,0.25,79,136.0
7340,G#2,2891.6,0.25,95,136.0
7341,C2,2891.6,0.25,95,136.0
7342,G#2,2891.85,3/20,31,136.0
7343,G#2,2892.0,1/10,31,136.0
7344,G#2,2892.1,0.25,63,136.0
7345,G#2,2892.35,0.25,79,136.0
7346,G#2,2892.6,0.25,95,136.0
7347,C#2,2892.6,0.25,95,136.0
7348,G#2,2892.85,0.25,31,136.0
7349,G#2,2893.1,0.25,79,136.0
7350,C2,2893.1,0.25,79,136.0
7351,G#2,2893.35,0.25,79,136.0
7352,G#2,2893.6,0.25,95,136.0
7353,G#2,2893.85,0.25,31,136.0
7354,G#2,2894.1,0.25,63,136.0
7355,G#2,2894.35,0.25,79,136.0
7356,G#2,2894.6,0.25,95,136.0
7357,C#2,2894.6,0.25,95,136.0
7358,G#2,2894.85,0.25,31,136.0
7359,G#2,2895.1,0.25,63,136.0
7360,G#2,2895.35,0.25,79,136.0
7361,G#2,2895.6,0.25,87,136.0
7362,C2,2895.6,0.25,87,136.0
7363,G#2,2895.85,3/20,31,136.0
7364,G#2,2896.0,1/10,31,136.0
7365,G#2,2896.1,0.25,63,136.0
7366,G#2,2896.35,0.25,79,136.0
7367,G#2,2896.6,0.25,95,136.0
7368,C#2,2896.6,0.25,95,136.0
7369,G#2,2896.85,0.25,31,136.0
7370,G#2,2897.1,0.25,79,136.0
7371,B-2,2897.1,0.25,79,136.0
7372,G#2,2897.35,0.25,79,136.0
7373,G#2,2897.6,0.25,95,136.0
7374,G#2,2897.85,0.25,31,136.0
7375,G#2,2898.1,0.25,63,136.0
7376,G#2,2898.35,0.25,87,136.0
7377,C2,2898.35,0.25,87,136.0
7378,G#2,2898.6,0.25,95,136.0
7379,C#2,2898.6,0.25,95,136.0
7380,F#2,2898.6,0.25,95,136.0
7381,G#2,2898.85,0.25,31,136.0
7382,G#2,2899.1,0.25,79,136.0
7383,C2,2899.1,0.25,79,136.0
7384,G#2,2899.35,0.25,79,136.0
7385,G#2,2899.6,0.25,95,136.0
7386,C2,2899.6,0.25,95,136.0
7387,G#2,2899.85,3/20,31,136.0
7388,G#2,2900.0,1/10,31,136.0
7389,G#2,2900.1,0.25,63,136.0
7390,G#2,2900.35,0.25,79,136.0
7391,G#2,2900.6,0.25,95,136.0
7392,C#2,2900.6,0.25,95,136.0
7393,G#2,2900.85,0.25,31,136.0
7394,G#2,2901.1,0.25,79,136.0
7395,C2,2901.1,0.25,79,136.0
7396,G#2,2901.35,0.25,79,136.0
7397,G#2,2901.6,0.25,95,136.0
7398,G#2,2901.85,0.25,31,136.0
7399,G#2,2902.1,0.25,63,136.0
7400,G#2,2902.35,0.25,79,136.0
7401,G#2,2902.6,0.25,95,136.0
7402,C#2,2902.6,0.25,95,136.0
7403,G#2,2902.85,0.25,31,136.0
7404,G#2,2903.1,0.25,63,136.0
7405,G#2,2903.35,0.25,79,136.0
7406,G#2,2903.6,0.25,87,136.0
7407,C2,2903.6,0.25,87,136.0
7408,G#2,2903.85,3/20,31,136.0
7409,G#2,2904.0,1/10,31,136.0
7410,G#2,2904.1,0.25,63,136.0
7411,G#2,2904.35,0.25,79,136.0
7412,G#2,2904.6,0.25,95,136.0
7413,C#2,2904.6,0.25,95,136.0
7414,G#2,2904.85,0.25,31,136.0
7415,G#2,2905.1,0.25,79,136.0
7416,B-2,2905.1,0.25,79,136.0
7417,G#2,2905.35,0.25,79,136.0
7418,G#2,2905.6,0.25,95,136.0
7419,G#2,2905.85,0.25,31,136.0
7420,G#2,2906.1,0.25,63,136.0
7421,G#2,2906.35,0.25,87,136.0
7422,C2,2906.35,0.25,87,136.0
7423,G#2,2906.6,0.25,95,136.0
7424,C#2,2906.6,0.25,95,136.0
7425,F#2,2906.6,0.25,95,136.0
7426,G#2,2906.85,0.25,31,136.0
7427,G#2,2907.1,0.25,79,136.0
7428,C2,2907.1,0.25,79,136.0
7429,G#2,2907.35,0.25,79,136.0
7430,G#2,2907.6,0.25,95,136.0
7431,C2,2907.6,0.25,95,136.0
7432,G#2,2907.85,3/20,31,136.0
7433,G#2,2908.0,1/10,31,136.0
7434,G#2,2908.1,0.25,63,136.0
7435,G#2,2908.35,0.25,79,136.0
7436,G#2,2908.6,0.25,95,136.0
7437,C#2,2908.6,0.25,95,136.0
7438,G#2,2908.85,0.25,31,136.0
7439,G#2,2909.1,0.25,79,136.0
7440,C2,2909.1,0.25,79,136.0
7441,G#2,2909.35,0.25,79,136.0
7442,G#2,2909.6,0.25,95,136.0
7443,G#2,2909.85,0.25,31,136.0
7444,G#2,2910.1,0.25,63,136.0
7445,G#2,2910.35,0.25,79,136.0
7446,G#2,2910.6,0.25,95,136.0
7447,C#2,2910.6,0.25,95,136.0
7448,G#2,2910.85,0.25,31,136.0
7449,G#2,2911.1,0.25,63,136.0
7450,G#2,2911.35,0.25,79,136.0
7451,G#2,2911.6,0.25,87,136.0
7452,C2,2911.6,0.25,87,136.0
7453,G#2,2911.85,3/20,31,136.0
7454,G#2,2912.0,1/10,31,136.0
7455,G#2,2912.1,0.25,63,136.0
7456,G#2,2912.35,0.25,79,136.0
7457,G#2,2912.6,0.25,95,136.0
7458,C#2,2912.6,0.25,95,136.0
7459,G#2,2912.85,0.25,31,136.0
7460,G#2,2913.1,0.25,79,136.0
7461,B-2,2913.1,0.25,79,136.0
7462,G#2,2913.35,0.25,79,136.0
7463,G#2,2913.6,0.25,95,136.0
7464,G#2,2913.85,0.25,31,136.0
7465,G#2,2914.1,0.25,63,136.0
7466,G#2,2914.35,0.25,87,136.0
7467,C2,2914.35,0.25,87,136.0
7468,G#2,2914.6,0.25,95,136.0
7469,C#2,2914.6,0.25,95,136.0
7470,F#2,2914.6,0.25,95,136.0
7471,G#2,2914.85,0.25,31,136.0
7472,G#2,2915.1,0.25,79,136.0
7473,C2,2915.1,0.25,79,136.0
7474,G#2,2915.35,0.25,79,136.0
7475,G#2,2915.6,0.25,95,136.0
7476,C2,2915.6,0.25,95,136.0
7477,G#2,2915.85,3/20,31,136.0
7478,G#2,2916.0,1/10,31,136.0
7479,G#2,2916.1,0.25,63,136.0
7480,G#2,2916.35,0.25,79,136.0
7481,G#2,2916.6,0.25,95,136.0
7482,C#2,2916.6,0.25,95,136.0
7483,G#2,2916.85,0.25,31,136.0
7484,G#2,2917.1,0.25,79,136.0
7485,C2,2917.1,0.25,79,136.0
7486,G#2,2917.35,0.25,79,136.0
7487,G#2,2917.6,0.25,95,136.0
7488,G#2,2917.85,0.25,31,136.0
7489,G#2,2918.1,0.25,63,136.0
7490,G#2,2918.35,0.25,79,136.0
7491,G#2,2918.6,0.25,95,136.0
7492,C#2,2918.6,0.25,95,136.0
7493,G#2,2918.85,0.25,31,136.0
7494,G#2,2919.1,0.25,63,136.0
7495,G#2,2919.35,0.25,79,136.0
7496,G#2,2919.6,0.25,87,136.0
7497,C2,2919.6,0.25,87,136.0
7498,G#2,2919.85,3/20,31,136.0
7499,G#2,2920.0,1/10,31,136.0
7500,G#2,2920.1,0.25,63,136.0
7501,G#2,2920.35,0.25,79,136.0
7502,G#2,2920.6,0.25,95,136.0
7503,C#2,2920.6,0.25,95,136.0
7504,G#2,2920.85,0.25,31,136.0
7505,G#2,2921.1,0.25,63,136.0
7506,B-2,2921.1,0.75,95,136.0
7507,G#2,2921.35,0.25,79,136.0
7508,G#2,2921.6,0.25,95,136.0
7509,E3,2921.6,0.25,95,136.0
7510,G#2,2921.85,0.25,31,136.0
7511,G#2,2922.1,0.25,63,136.0
7512,G#2,2922.35,0.25,87,136.0
7513,C2,2922.35,0.25,87,136.0
7514,G#2,2922.6,0.25,95,136.0
7515,C#2,2922.6,0.25,95,136.0
7516,F#2,2922.6,0.25,95,136.0
7517,G#2,2922.85,0.25,31,136.0
7518,G#2,2923.1,0.25,79,136.0
7519,C2,2923.1,0.25,79,136.0
7520,G#2,2923.35,0.25,79,136.0
7521,G#2,2923.6,0.25,95,136.0
7522,C2,2923.6,0.25,95,136.0
7523,G#2,2923.85,3/20,31,136.0
7524,G#2,2924.0,1/10,31,136.0
7525,G#2,2924.1,0.25,63,136.0
7526,G#2,2924.35,0.25,79,136.0
7527,G#2,2924.6,0.25,95,136.0
7528,C#2,2924.6,0.25,95,136.0
7529,G#2,2924.85,0.25,31,136.0
7530,G#2,2925.1,0.25,79,136.0
7531,C2,2925.1,0.25,79,136.0
7532,G#2,2925.35,0.25,79,136.0
7533,G#2,2925.6,0.25,95,136.0
7534,G#2,2925.85,0.25,31,136.0
7535,G#2,2926.1,0.25,63,136.0
7536,G#2,2926.35,0.25,79,136.0
7537,G#2,2926.6,0.25,95,136.0
7538,C#2,2926.6,0.25,95,136.0
7539,G#2,2926.85,0.25,31,136.0
7540,G#2,2927.1,0.25,63,136.0
7541,G#2,2927.35,0.25,79,136.0
7542,G#2,2927.6,0.25,87,136.0
7543,C2,2927.6,0.25,87,136.0
7544,G#2,2927.85,3/20,31,136.0
7545,G#2,2928.0,1/10,31,136.0
7546,G#2,2928.1,0.25,63,136.0
7547,G#2,2928.35,0.25,79,136.0
7548,G#2,2928.6,0.25,95,136.0
7549,C#2,2928.6,0.25,95,136.0
7550,G#2,2928.85,0.25,31,136.0
7551,G#2,2929.1,0.25,79,136.0
7552,B-2,2929.1,0.25,79,136.0
7553,G#2,2929.35,0.25,79,136.0
7554,G#2,2929.6,0.25,95,136.0
7555,G#2,2929.85,0.25,31,136.0
7556,G#2,2930.1,0.25,63,136.0
7557,G#2,2930.35,0.25,87,136.0
7558,C2,2930.35,0.25,87,136.0
7559,G#2,2930.6,0.25,95,136.0
7560,C#2,2930.6,0.25,95,136.0
7561,F#2,2930.6,0.25,95,136.0
7562,G#2,2930.85,0.25,31,136.0
7563,G#2,2931.1,0.25,79,136.0
7564,C2,2931.1,0.25,79,136.0
7565,G#2,2931.35,0.25,79,136.0
7566,G#2,2931.6,0.25,95,136.0
7567,C2,2931.6,0.25,95,136.0
7568,G#2,2931.85,3/20,31,136.0
7569,G#2,2932.0,1/10,31,136.0
7570,G#2,2932.1,0.25,63,136.0
7571,G#2,2932.35,0.25,79,136.0
7572,G#2,2932.6,0.25,95,136.0
7573,C#2,2932.6,0.25,95,136.0
7574,G#2,2932.85,0.25,31,136.0
7575,G#2,2933.1,0.25,79,136.0
7576,C2,2933.1,0.25,79,136.0
7577,G#2,2933.35,0.25,79,136.0
7578,G#2,2933.6,0.25,95,136.0
7579,G#2,2933.85,0.25,31,136.0
7580,G#2,2934.1,0.25,63,136.0
7581,G#2,2934.35,0.25,79,136.0
7582,G#2,2934.6,0.25,95,136.0
7583,C#2,2934.6,0.25,95,136.0
7584,G#2,2934.85,0.25,31,136.0
7585,G#2,2935.1,0.25,63,136.0
7586,G#2,2935.35,0.25,79,136.0
7587,G#2,2935.6,0.25,87,136.0
7588,C2,2935.6,0.25,87,136.0
7589,G#2,2935.85,3/20,31,136.0
7590,G#2,2936.0,1/10,31,136.0
7591,G#2,2936.1,0.25,63,136.0
7592,G#2,2936.35,0.25,79,136.0
7593,G#2,2936.6,0.25,95,136.0
7594,C#2,2936.6,0.25,95,136.0
7595,G#2,2936.85,0.25,31,136.0
7596,G#2,2937.1,0.25,79,136.0
7597,B-2,2937.1,0.25,79,136.0
7598,G#2,2937.35,0.25,79,136.0
7599,G#2,2937.6,0.25,95,136.0
7600,G#2,2937.85,0.25,31,136.0
7601,G#2,2938.1,0.25,63,136.0
7602,G#2,2938.35,0.25,87,136.0
7603,C2,2938.35,0.25,87,136.0
7604,G#2,2938.6,0.25,95,136.0
7605,C#2,2938.6,0.25,95,136.0
7606,F#2,2938.6,0.25,95,136.0
7607,G#2,2938.85,0.25,31,136.0
7608,G#2,2939.1,0.25,79,136.0
7609,C2,2939.1,0.25,79,136.0
7610,G#2,2939.35,0.25,79,136.0
7611,G#2,2939.6,0.25,95,136.0
7612,C2,2939.6,0.25,95,136.0
7613,G#2,2939.85,3/20,31,136.0
7614,G#2,2940.0,1/10,31,136.0
7615,G#2,2940.1,0.25,63,136.0
7616,G#2,2940.35,0.25,79,136.0
7617,G#2,2940.6,0.25,95,136.0
7618,C#2,2940.6,0.25,95,136.0
7619,G#2,2940.85,0.25,31,136.0
7620,G#2,2941.1,0.25,79,136.0
7621,C2,2941.1,0.25,79,136.0
7622,G#2,2941.35,0.25,79,136.0
7623,G#2,2941.6,0.25,95,136.0
7624,G#2,2941.85,0.25,31,136.0
7625,G#2,2942.1,0.25,63,136.0
7626,G#2,2942.35,0.25,79,136.0
7627,G#2,2942.6,0.25,95,136.0
7628,C#2,2942.6,0.25,95,136.0
7629,G#2,2942.85,0.25,31,136.0
7630,G#2,2943.1,0.25,63,136.0
7631,G#2,2943.35,0.25,79,136.0
7632,G#2,2943.6,0.25,87,136.0
7633,C2,2943.6,0.25,87,136.0
7634,G#2,2943.85,3/20,31,136.0
7635,G#2,2944.0,1/10,31,136.0
7636,G#2,2944.1,0.25,63,136.0
7637,G#2,2944.35,0.25,79,136.0
7638,G#2,2944.6,0.25,95,136.0
7639,C#2,2944.6,0.25,95,136.0
7640,G#2,2944.85,0.25,31,136.0
7641,G#2,2945.1,0.25,79,136.0
7642,B-2,2945.1,0.25,79,136.0
7643,G#2,2945.35,0.25,79,136.0
7644,G#2,2945.6,0.25,95,136.0
7645,G#2,2945.85,0.25,31,136.0
7646,G#2,2946.1,0.25,63,136.0
7647,G#2,2946.35,0.25,87,136.0
7648,C2,2946.35,0.25,87,136.0
7649,G#2,2946.6,0.25,95,136.0
7650,C#2,2946.6,0.25,95,136.0
7651,F#2,2946.6,0.25,95,136.0
7652,G#2,2946.85,0.25,31,136.0
7653,G#2,2947.1,0.25,79,136.0
7654,C2,2947.1,0.25,79,136.0
7655,G#2,2947.35,0.25,79,136.0
7656,G#2,2947.6,0.25,95,136.0
7657,C2,2947.6,0.25,95,136.0
7658,G#2,2947.85,3/20,31,136.0
7659,G#2,2948.0,1/10,31,136.0
7660,G#2,2948.1,0.25,63,136.0
7661,G#2,2948.35,0.25,79,136.0
7662,G#2,2948.6,0.25,95,136.0
7663,C#2,2948.6,0.25,95,136.0
7664,G#2,2948.85,0.25,31,136.0
7665,G#2,2949.1,0.25,79,136.0
7666,C2,2949.1,0.25,79,136.0
7667,G#2,2949.35,0.25,79,136.0
7668,G#2,2949.6,0.25,95,136.0
7669,G#2,2949.85,0.25,31,136.0
7670,G#2,2950.1,0.25,63,136.0
7671,G#2,2950.35,0.25,79,136.0
7672,G#2,2950.6,0.25,95,136.0
7673,C#2,2950.6,0.25,95,136.0
7674,G#2,2950.85,0.25,31,136.0
7675,G#2,2951.1,0.25,63,136.0
7676,G#2,2951.35,0.25,79,136.0
7677,G#2,2951.6,0.25,87,136.0
7678,C2,2951.6,0.25,87,136.0
7679,G#2,2951.85,3/20,31,136.0
7680,G#2,2952.0,1/10,31,136.0
7681,G#2,2952.1,0.25,63,136.0
7682,G#2,2952.35,0.25,79,136.0
7683,G#2,2952.6,0.25,95,136.0
7684,C#2,2952.6,0.25,95,136.0
7685,G#2,2952.85,0.25,31,136.0
7686,G#2,2953.1,0.25,63,136.0
7687,B-2,2953.1,0.75,95,136.0
7688,G#2,2953.35,0.25,79,136.0
7689,G#2,2953.6,0.25,95,136.0
7690,E3,2953.6,0.25,95,136.0
7691,G#2,2953.85,0.25,31,136.0
7692,G#2,2954.1,0.25,63,136.0
7693,G#2,2954.35,0.25,87,136.0
7694,C2,2954.35,0.25,87,136.0
7695,G#2,2954.6,0.25,95,136.0
7696,C#2,2954.6,0.25,95,136.0
7697,F#2,2954.6,0.25,95,136.0
7698,G#2,2954.85,0.25,31,136.0
7699,G#2,2955.1,0.25,79,136.0
7700,C2,2955.1,0.25,79,136.0
7701,G#2,2955.35,0.25,79,136.0
7702,G#2,2955.6,0.25,95,136.0
7703,C2,2955.6,0.25,95,136.0
7704,G#2,2955.85,3/20,31,136.0
7705,G#2,2956.0,1/10,31,136.0
7706,G#2,2956.1,0.25,63,136.0
7707,G#2,2956.35,0.25,79,136.0
7708,G#2,2956.6,0.25,95,136.0
7709,C#2,2956.6,0.25,95,136.0
7710,G#2,2956.85,0.25,31,136.0
7711,G#2,2957.1,0.25,79,136.0
7712,C2,2957.1,0.25,79,136.0
7713,G#2,2957.35,0.25,79,136.0
7714,G#2,2957.6,0.25,95,136.0
7715,G#2,2957.85,0.25,31,136.0
7716,G#2,2958.1,0.25,63,136.0
7717,G#2,2958.35,0.25,79,136.0
7718,G#2,2958.6,0.25,95,136.0
7719,C#2,2958.6,0.25,95,136.0
7720,G#2,2958.85,0.25,31,136.0
7721,G#2,2959.1,0.25,63,136.0
7722,G#2,2959.35,0.25,79,136.0
7723,G#2,2959.6,0.25,87,136.0
7724,C2,2959.6,0.25,87,136.0
7725,G#2,2959.85,3/20,31,136.0
7726,G#2,2960.0,1/10,31,136.0
7727,G#2,2960.1,0.25,63,136.0
7728,G#2,2960.35,0.25,79,136.0
7729,G#2,2960.6,0.25,95,136.0
7730,C#2,2960.6,0.25,95,136.0
7731,G#2,2960.85,0.25,31,136.0
7732,G#2,2961.1,0.25,79,136.0
7733,B-2,2961.1,0.25,79,136.0
7734,G#2,2961.35,0.25,79,136.0
7735,G#2,2961.6,0.25,95,136.0
7736,G#2,2961.85,0.25,31,136.0
7737,G#2,2962.1,0.25,63,136.0
7738,G#2,2962.35,0.25,87,136.0
7739,C2,2962.35,0.25,87,136.0
7740,G#2,2962.6,0.25,95,136.0
7741,C#2,2962.6,0.25,95,136.0
7742,F#2,2962.6,0.25,95,136.0
7743,G#2,2962.85,0.25,31,136.0
7744,G#2,2963.1,0.25,79,136.0
7745,C2,2963.1,0.25,79,136.0
7746,G#2,2963.35,0.25,79,136.0
7747,G#2,2963.6,0.25,95,136.0
7748,C2,2963.6,0.25,95,136.0
7749,G#2,2963.85,3/20,31,136.0
7750,G#2,2964.0,1/10,31,136.0
7751,G#2,2964.1,0.25,63,136.0
7752,G#2,2964.35,0.25,79,136.0
7753,G#2,2964.6,0.25,95,136.0
7754,C#2,2964.6,0.25,95,136.0
7755,G#2,2964.85,0.25,31,136.0
7756,G#2,2965.1,0.25,79,136.0
7757,C2,2965.1,0.25,79,136.0
7758,G#2,2965.35,0.25,79,136.0
7759,G#2,2965.6,0.25,95,136.0
7760,G#2,2965.85,0.25,31,136.0
7761,G#2,2966.1,0.25,63,136.0
7762,G#2,2966.35,0.25,79,136.0
7763,G#2,2966.6,0.25,95,136.0
7764,C#2,2966.6,0.25,95,136.0
7765,G#2,2966.85,0.25,31,136.0
7766,G#2,2967.1,0.25,63,136.0
7767,G#2,2967.35,0.25,79,136.0
7768,G#2,2967.6,0.25,87,136.0
7769,C2,2967.6,0.25,87,136.0
7770,G#2,2967.85,3/20,31,136.0
7771,G#2,2968.0,1/10,31,136.0
7772,G#2,2968.1,0.25,63,136.0
7773,G#2,2968.35,0.25,79,136.0
7774,G#2,2968.6,0.25,95,136.0
7775,C#2,2968.6,0.25,95,136.0
7776,G#2,2968.85,0.25,31,136.0
7777,G#2,2969.1,0.25,63,136.0
7778,B-2,2969.1,0.75,95,136.0
7779,G#2,2969.35,0.25,79,136.0
7780,G#2,2969.6,0.25,95,136.0
7781,E3,2969.6,0.25,95,136.0
7782,G#2,2969.85,0.25,31,136.0
7783,G#2,2970.1,0.25,63,136.0
7784,G#2,2970.35,0.25,87,136.0
7785,C2,2970.35,0.25,87,136.0
7786,G#2,2970.6,0.25,95,136.0
7787,C#2,2970.6,0.25,95,136.0
7788,F#2,2970.6,0.25,95,136.0
7789,G#2,2970.85,0.25,31,136.0
7790,G#2,2971.1,0.25,79,136.0
7791,C2,2971.1,0.25,79,136.0
7792,G#2,2971.35,0.25,79,136.0
7793,G#2,2971.6,0.25,95,136.0
7794,C2,2971.6,0.25,95,136.0
7795,G#2,2971.85,3/20,31,136.0
7796,G#2,2972.0,1/10,31,136.0
7797,G#2,2972.1,0.25,63,136.0
7798,G#2,2972.35,0.25,79,136.0
7799,G#2,2972.6,0.25,95,136.0
7800,C#2,2972.6,0.25,95,136.0
7801,G#2,2972.85,0.25,31,136.0
7802,G#2,2973.1,0.25,79,136.0
7803,C2,2973.1,0.25,79,136.0
7804,G#2,2973.35,0.25,79,136.0
7805,G#2,2973.6,0.25,95,136.0
7806,G#2,2973.85,0.25,31,136.0
7807,G#2,2974.1,0.25,63,136.0
7808,G#2,2974.35,0.25,79,136.0
7809,G#2,2974.6,0.25,95,136.0
7810,C#2,2974.6,0.25,95,136.0
7811,G#2,2974.85,0.25,31,136.0
7812,G#2,2975.1,0.25,63,136.0
7813,G#2,2975.35,0.25,79,136.0
7814,G#2,2975.6,0.25,87,136.0
7815,C2,2975.6,0.25,87,136.0
7816,G#2,2975.85,3/20,31,136.0
7817,G#2,2976.0,1/10,31,136.0
7818,G#2,2976.1,0.25,63,136.0
7819,G#2,2976.35,0.25,79,136.0
7820,G#2,2976.6,0.25,95,136.0
7821,C#2,2976.6,0.25,95,136.0
7822,G#2,2976.85,0.25,31,136.0
7823,G#2,2977.1,0.25,79,136.0
7824,B-2,2977.1,0.25,79,136.0
7825,G#2,2977.35,0.25,79,136.0
7826,G#2,2977.6,0.25,95,136.0
7827,G#2,2977.85,0.25,31,136.0
7828,G#2,2978.1,0.25,63,136.0
7829,G#2,2978.35,0.25,87,136.0
7830,C2,2978.35,0.25,87,136.0
7831,G#2,2978.6,0.25,95,136.0
7832,C#2,2978.6,0.25,95,136.0
7833,F#2,2978.6,0.25,95,136.0
7834,G#2,2978.85,0.25,31,136.0
7835,G#2,2979.1,0.25,79,136.0
7836,C2,2979.1,0.25,79,136.0
7837,G#2,2979.35,0.25,79,136.0
7838,G#2,2979.6,0.25,95,136.0
7839,C2,2979.6,0.25,95,136.0
7840,G#2,2979.85,3/20,31,136.0
7841,G#2,2980.0,1/10,31,136.0
7842,G#2,2980.1,0.25,63,136.0
7843,G#2,2980.35,0.25,79,136.0
7844,G#2,2980.6,0.25,95,136.0
7845,C#2,2980.6,0.25,95,136.0
7846,G#2,2980.85,0.25,31,136.0
7847,G#2,2981.1,0.25,79,136.0
7848,C2,2981.1,0.25,79,136.0
7849,G#2,2981.35,0.25,79,136.0
7850,G#2,2981.6,0.25,95,136.0
7851,G#2,2981.85,0.25,31,136.0
7852,G#2,2982.1,0.25,63,136.0
7853,G#2,2982.35,0.25,79,136.0
7854,G#2,2982.6,0.25,95,136.0
7855,C#2,2982.6,0.25,95,136.0
7856,G#2,2982.85,0.25,31,136.0
7857,G#2,2983.1,0.25,63,136.0
7858,G#2,2983.35,0.25,79,136.0
7859,G#2,2983.6,0.25,90,136.0
7860,C2,2983.6,0.25,90,136.0
7861,D2,2983.6,0.25,90,136.0
7862,G#2,2983.85,3/20,31,136.0
7863,G#2,2984.0,1/10,31,136.0
7864,G#2,2984.1,0.25,79,136.0
7865,C3,2984.1,0.25,79,136.0
7866,D2,2984.1,0.25,79,136.0
7867,G#2,2984.35,0.25,79,136.0
7868,B2,2984.35,0.25,79,136.0
7869,D2,2984.35,0.25,79,136.0
7870,G#2,2984.6,0.25,83,136.0
7871,C#2,2984.6,0.25,83,136.0
7872,A2,2984.6,0.25,83,136.0
7873,D2,2984.6,0.25,83,136.0
7874,G#2,2984.85,0.25,31,136.0
7875,G#2,2985.1,0.25,87,136.0
7876,B-2,2985.1,0.25,87,136.0
7877,C2,2985.1,0.25,87,136.0
7878,C#3,2985.1,0.25,87,136.0
7879,G#2,2985.35,0.25,79,136.0
7880,F#2,2985.6,0.25,95,136.0
7881,F#2,2985.85,0.25,31,136.0
7882,F#2,2986.1,0.25,79,136.0
7883,F#2,2986.35,0.25,79,136.0
7884,F#2,2986.6,0.25,95,136.0
7885,D2,2986.6,0.25,95,136.0
7886,F#2,2986.85,0.25,31,136.0
7887,F#2,2987.1,0.25,87,136.0
7888,C2,2987.1,0.25,87,136.0
7889,F#2,2987.35,0.25,79,136.0
7890,F#2,2987.6,0.25,95,136.0
7891,C2,2987.6,0.25,95,136.0
7892,F#2,2987.85,3/20,31,136.0
7893,F#2,2988.0,1/10,31,136.0
7894,F#2,2988.1,0.25,79,136.0
7895,F#2,2988.35,0.25,79,136.0
7896,F#2,2988.6,0.25,95,136.0
7897,D2,2988.6,0.25,95,136.0
7898,F#2,2988.85,0.25,31,136.0
7899,F#2,2989.1,0.25,87,136.0
7900,C2,2989.1,0.25,87,136.0
7901,F#2,2989.35,0.25,79,136.0
7902,F#2,2989.6,0.25,95,136.0
7903,F#2,2989.85,0.25,31,136.0
7904,F#2,2990.1,0.25,79,136.0
7905,F#2,2990.35,0.25,79,136.0
7906,F#2,2990.6,0.25,95,136.0
7907,D2,2990.6,0.25,95,136.0
7908,F#2,2990.85,0.25,31,136.0
7909,F#2,2991.1,0.25,87,136.0
7910,C2,2991.1,0.25,87,136.0
7911,F#2,2991.35,0.25,79,136.0
7912,F#2,2991.6,0.25,95,136.0
7913,C2,2991.6,0.25,95,136.0
7914,F#2,2991.85,3/20,31,136.0
7915,F#2,2992.0,1/10,31,136.0
7916,F#2,2992.1,0.25,79,136.0
7917,F#2,2992.35,0.25,79,136.0
7918,F#2,2992.6,0.25,95,136.0
7919,D2,2992.6,0.25,95,136.0
7920,F#2,2992.85,0.25,31,136.0
7921,F#2,2993.1,0.25,87,136.0
7922,C2,2993.1,0.25,87,136.0
7923,F#2,2993.35,0.25,79,136.0
7924,F#2,2993.6,0.25,95,136.0
7925,F#2,2993.85,0.25,31,136.0
7926,F#2,2994.1,0.25,79,136.0
7927,F#2,2994.35,0.25,79,136.0
7928,F#2,2994.6,0.25,95,136.0
7929,D2,2994.6,0.25,95,136.0
7930,F#2,2994.85,0.25,31,136.0
7931,F#2,2995.1,0.25,87,136.0
7932,C2,2995.1,0.25,87,136.0
7933,F#2,2995.35,0.25,79,136.0
7934,F#2,2995.6,0.25,95,136.0
7935,C2,2995.6,0.25,95,136.0
7936,F#2,2995.85,3/20,31,136.0
7937,F#2,2996.0,1/10,31,136.0
7938,F#2,2996.1,0.25,79,136.0
7939,F#2,2996.35,0.25,79,136.0
7940,F#2,2996.6,0.25,95,136.0
7941,D2,2996.6,0.25,95,136.0
7942,F#2,2996.85,0.25,31,136.0
7943,F#2,2997.1,0.25,87,136.0
7944,C2,2997.1,0.25,87,136.0
7945,F#2,2997.35,0.25,79,136.0
7946,F#2,2997.6,0.25,95,136.0
7947,F#2,2997.85,0.25,31,136.0
7948,F#2,2998.1,0.25,79,136.0
7949,F#2,2998.35,0.25,79,136.0
7950,F#2,2998.6,0.25,95,136.0
7951,D2,2998.6,0.25,95,136.0
7952,F#2,2998.85,0.25,31,136.0
7953,F#2,2999.1,0.25,87,136.0
7954,C2,2999.1,0.25,87,136.0
7955,F#2,2999.35,0.25,79,136.0
7956,F#2,2999.6,0.25,95,136.0
7957,C2,2999.6,0.25,95,136.0
7958,F#2,2999.85,3/20,31,136.0
7959,F#2,3000.0,1/10,31,136.0
7960,F#2,3000.1,0.25,79,136.0
7961,F#2,3000.35,0.25,79,136.0
7962,F#2,3000.6,0.25,95,136.0
7963,D2,3000.6,0.25,95,136.0
7964,F#2,3000.85,0.25,31,136.0
7965,F#2,3001.1,0.25,87,136.0
7966,C2,3001.1,0.25,87,136.0
7967,F#2,3001.35,0.25,79,136.0
7968,F#2,3001.6,0.25,95,136.0
7969,F#2,3001.85,0.25,31,136.0
7970,F#2,3002.1,0.25,79,136.0
7971,F#2,3002.35,0.25,79,136.0
7972,F#2,3002.6,0.25,95,136.0
7973,D2,3002.6,0.25,95,136.0
7974,F#2,3002.85,0.25,31,136.0
7975,F#2,3003.1,0.25,87,136.0
7976,C2,3003.1,0.25,87,136.0
7977,F#2,3003.35,0.25,79,136.0
7978,F#2,3003.6,0.25,95,136.0
7979,C2,3003.6,0.25,95,136.0
7980,F#2,3003.85,3/20,31,136.0
7981,F#2,3004.0,1/10,31,136.0
7982,F#2,3004.1,0.25,79,136.0
7983,F#2,3004.35,0.25,79,136.0
7984,F#2,3004.6,0.25,95,136.0
7985,D2,3004.6,0.25,95,136.0
7986,F#2,3004.85,0.25,31,136.0
7987,F#2,3005.1,0.25,87,136.0
7988,C2,3005.1,0.25,87,136.0
7989,F#2,3005.35,0.25,79,136.0
7990,F#2,3005.6,0.25,95,136.0
7991,F#2,3005.85,0.25,31,136.0
7992,F#2,3006.1,0.25,79,136.0
7993,F#2,3006.35,0.25,79,136.0
7994,F#2,3006.6,0.25,95,136.0
7995,D2,3006.6,0.25,95,136.0
7996,F#2,3006.85,0.25,31,136.0
7997,F#2,3007.1,0.25,87,136.0
7998,C2,3007.1,0.25,87,136.0
7999,F#2,3007.35,0.25,79,136.0
8000,F#2,3007.6,0.25,95,136.0
8001,C2,3007.6,0.25,95,136.0
8002,F#2,3007.85,3/20,31,136.0
8003,F#2,3008.0,1/10,31,136.0
8004,F#2,3008.1,0.25,79,136.0
8005,F#2,3008.35,0.25,79,136.0
8006,F#2,3008.6,0.25,95,136.0
8007,D2,3008.6,0.25,95,136.0
8008,F#2,3008.85,0.25,31,136.0
8009,F#2,3009.1,0.25,87,136.0
8010,C2,3009.1,0.25,87,136.0
8011,F#2,3009.35,0.25,79,136.0
8012,F#2,3009.6,0.25,95,136.0
8013,F#2,3009.85,0.25,31,136.0
8014,F#2,3010.1,0.25,79,136.0
8015,F#2,3010.35,0.25,79,136.0
8016,F#2,3010.6,0.25,95,136.0
8017,D2,3010.6,0.25,95,136.0
8018,F#2,3010.85,0.25,31,136.0
8019,F#2,3011.1,0.25,87,136.0
8020,C2,3011.1,0.25,87,136.0
8021,F#2,3011.35,0.25,79,136.0
8022,F#2,3011.6,0.25,95,136.0
8023,C2,3011.6,0.25,95,136.0
8024,F#2,3011.85,3/20,31,136.0
8025,F#2,3012.0,1/10,31,136.0
8026,F#2,3012.1,0.25,79,136.0
8027,F#2,3012.35,0.25,79,136.0
8028,F#2,3012.6,0.25,95,136.0
8029,D2,3012.6,0.25,95,136.0
8030,F#2,3012.85,0.25,31,136.0
8031,F#2,3013.1,0.25,87,136.0
8032,C2,3013.1,0.25,87,136.0
8033,F#2,3013.35,0.25,79,136.0
8034,F#2,3013.6,0.25,95,136.0
8035,F#2,3013.85,0.25,31,136.0
8036,F#2,3014.1,0.25,79,136.0
8037,F#2,3014.35,0.25,79,136.0
8038,F#2,3014.6,0.25,95,136.0
8039,D2,3014.6,0.25,95,136.0
8040,F#2,3014.85,0.25,31,136.0
8041,F#2,3015.1,0.25,87,136.0
8042,C2,3015.1,0.25,87,136.0
8043,F#2,3015.35,0.25,79,136.0
8044,F#2,3015.6,0.25,95,136.0
8045,C2,3015.6,0.25,95,136.0
8046,F#2,3015.85,3/20,31,136.0
8047,F#2,3016.0,1/10,31,136.0
8048,F#2,3016.1,0.25,79,136.0
8049,F#2,3016.35,0.25,79,136.0
8050,F#2,3016.6,0.25,95,136.0
8051,D2,3016.6,0.25,95,136.0
8052,F#2,3016.85,0.25,31,136.0
8053,F#2,3017.1,0.25,87,136.0
8054,C2,3017.1,0.25,87,136.0
8055,F#2,3017.35,0.25,79,136.0
8056,F#2,3017.6,0.5,95,136.0
8057,C2,3017.6,0.5,95,136.0
8058,G#2,3018.1,0.5,63,136.0
8059,F#2,3018.6,0.5,95,136.0
8060,G#2,3019.1,0.5,63,136.0
8061,F#2,3019.6,2/5,95,136.0
8062,F#2,3020.0,1/10,95,136.0
8063,B-2,3020.1,0.5,95,136.0
8064,F#2,3020.6,0.5,95,136.0
8065,B-2,3021.1,0.5,95,136.0
8066,F#2,3021.6,0.5,95,136.0
8067,C2,3021.6,0.5,95,136.0
8068,G#2,3022.1,0.5,63,136.0
8069,F#2,3022.6,0.5,95,136.0
8070,G#2,3023.1,0.5,63,136.0
8071,F#2,3023.6,2/5,95,136.0
8072,F#2,3024.0,1/10,95,136.0
8073,B-2,3024.1,0.5,95,136.0
8074,F#2,3024.6,0.5,95,136.0
8075,B-2,3025.1,0.5,95,136.0
8076,F#2,3025.6,0.5,95,136.0
8077,C2,3025.6,0.5,95,136.0
8078,G#2,3026.1,0.5,63,136.0
8079,F#2,3026.6,0.5,95,136.0
8080,G#2,3027.1,0.5,63,136.0
8081,F#2,3027.6,2/5,95,136.0
8082,F#2,3028.0,1/10,95,136.0
8083,B-2,3028.1,0.5,95,136.0
8084,F#2,3028.6,0.5,95,136.0
8085,B-2,3029.1,0.5,95,136.0
8086,F#2,3029.6,0.5,95,136.0
8087,C2,3029.6,0.5,95,136.0
8088,G#2,3030.1,0.5,63,136.0
8089,F#2,3030.6,0.5,95,136.0
8090,G#2,3031.1,0.5,79,136.0
8091,C2,3031.1,0.5,79,136.0
8092,F#2,3031.6,2/5,95,136.0
8093,F#2,3032.0,1/10,95,136.0
8094,B-2,3032.1,0.25,68,136.0
8095,D2,3032.1,0.25,68,136.0
8096,A3,3032.1,0.25,68,136.0
8097,A3,3032.35,0.25,31,136.0
8098,F#2,3032.6,0.25,79,136.0
8099,D2,3032.6,0.25,79,136.0
8100,A3,3032.6,0.25,79,136.0
8101,A3,3032.85,0.25,63,136.0
8102,B-2,3033.1,0.25,90,136.0
8103,D2,3033.1,0.25,90,136.0
8104,A3,3033.1,0.25,90,136.0
8105,A3,3033.35,0.25,95,136.0
8106,F#2,3033.6,0.5,95,136.0
8107,C2,3033.6,0.5,95,136.0
8108,G#2,3034.1,0.5,63,136.0
8109,F#2,3034.6,0.5,95,136.0
8110,G#2,3035.1,0.5,63,136.0
8111,F#2,3035.6,2/5,95,136.0
8112,F#2,3036.0,1/10,95,136.0
8113,B-2,3036.1,0.5,95,136.0
8114,F#2,3036.6,0.5,95,136.0
8115,B-2,3037.1,0.5,95,136.0
8116,F#2,3037.6,0.5,95,136.0
8117,C2,3037.6,0.5,95,136.0
8118,G#2,3038.1,0.5,63,136.0
8119,F#2,3038.6,0.5,95,136.0
8120,G#2,3039.1,0.5,63,136.0
8121,F#2,3039.6,2/5,95,136.0
8122,F#2,3040.0,1/10,95,136.0
8123,B-2,3040.1,0.5,95,136.0
8124,F#2,3040.6,0.5,95,136.0
8125,B-2,3041.1,0.5,95,136.0
8126,F#2,3041.6,0.5,95,136.0
8127,C2,3041.6,0.5,95,136.0
8128,G#2,3042.1,0.5,63,136.0
8129,F#2,3042.6,0.5,95,136.0
8130,G#2,3043.1,0.5,63,136.0
8131,F#2,3043.6,2/5,95,136.0
8132,F#2,3044.0,1/10,95,136.0
8133,B-2,3044.1,0.5,95,136.0
8134,F#2,3044.6,0.5,95,136.0
8135,B-2,3045.1,0.5,95,136.0
8136,F#2,3045.6,0.5,95,136.0
8137,D2,3045.6,0.5,95,136.0
8138,C2,3045.6,0.5,95,136.0
8139,G#2,3046.1,0.5,63,136.0
8140,F#2,3046.6,0.5,95,136.0
8141,G#2,3047.1,0.5,84,136.0
8142,D2,3047.1,0.5,84,136.0
8143,C2,3047.1,0.5,84,136.0
8144,F#2,3047.6,2/5,95,136.0
8145,F#2,3048.0,1/10,95,136.0
8146,B-2,3048.1,0.25,68,136.0
8147,D2,3048.1,0.25,68,136.0
8148,A3,3048.1,0.25,68,136.0
8149,A3,3048.35,0.25,31,136.0
8150,F#2,3048.6,0.25,79,136.0
8151,D2,3048.6,0.25,79,136.0
8152,A3,3048.6,0.25,79,136.0
8153,A3,3048.85,0.25,63,136.0
8154,B-2,3049.1,0.25,90,136.0
8155,D2,3049.1,0.25,90,136.0
8156,A3,3049.1,0.25,90,136.0
8157,A3,3049.35,0.25,95,136.0
8158,F#2,3049.6,0.5,95,136.0
8159,C2,3049.6,0.5,95,136.0
8160,G#2,3050.1,0.5,63,136.0
8161,F#2,3050.6,0.5,95,136.0
8162,G#2,3051.1,0.5,63,136.0
8163,F#2,3051.6,2/5,95,136.0
8164,F#2,3052.0,1/10,95,136.0
8165,B-2,3052.1,0.5,95,136.0
8166,F#2,3052.6,0.5,95,136.0
8167,B-2,3053.1,0.5,95,136.0
8168,F#2,3053.6,0.5,95,136.0
8169,C2,3053.6,0.5,95,136.0
8170,G#2,3054.1,0.5,63,136.0
8171,F#2,3054.6,0.5,95,136.0
8172,G#2,3055.1,0.5,63,136.0
8173,F#2,3055.6,2/5,95,136.0
8174,F#2,3056.0,1/10,95,136.0
8175,B-2,3056.1,0.5,95,136.0
8176,F#2,3056.6,0.5,95,136.0
8177,B-2,3057.1,0.5,95,136.0
8178,F#2,3057.6,0.5,95,136.0
8179,C2,3057.6,0.5,95,136.0
8180,G#2,3058.1,0.5,63,136.0
8181,F#2,3058.6,0.5,95,136.0
8182,G#2,3059.1,0.5,63,136.0
8183,F#2,3059.6,2/5,95,136.0
8184,F#2,3060.0,1/10,95,136.0
8185,B-2,3060.1,0.5,95,136.0
8186,F#2,3060.6,0.5,95,136.0
8187,B-2,3061.1,0.5,95,136.0
8188,F#2,3061.6,0.5,95,136.0
8189,G#2,3062.1,0.5,63,136.0
8190,F#2,3062.6,0.5,95,136.0
8191,G#2,3063.1,0.5,63,136.0
8192,F#2,3063.6,2/5,95,136.0
8193,F#2,3064.0,1/10,95,136.0
8194,B-2,3064.1,0.25,68,136.0
8195,D2,3064.1,0.25,68,136.0
8196,A3,3064.1,0.25,68,136.0
8197,A3,3064.35,0.25,31,136.0
8198,F#2,3064.6,0.25,79,136.0
8199,D2,3064.6,0.25,79,136.0
8200,A3,3064.6,0.25,79,136.0
8201,A3,3064.85,0.25,63,136.0
8202,B-2,3065.1,0.25,90,136.0
8203,D2,3065.1,0.25,90,136.0
8204,A3,3065.1,0.25,90,136.0
8205,A3,3065.35,0.25,95,136.0
8206,F#2,3065.6,0.5,95,136.0
8207,C2,3065.6,0.5,95,136.0
8208,G#2,3066.1,0.5,63,136.0
8209,F#2,3066.6,0.5,95,136.0
8210,G#2,3067.1,0.5,63,136.0
8211,F#2,3067.6,2/5,95,136.0
8212,F#2,3068.0,1/10,95,136.0
8213,B-2,3068.1,0.5,95,136.0
8214,F#2,3068.6,0.5,95,136.0
8215,B-2,3069.1,0.5,95,136.0
8216,F#2,3069.6,0.5,95,136.0
8217,C2,3069.6,0.5,95,136.0
8218,G#2,3070.1,0.5,63,136.0
8219,F#2,3070.6,0.5,95,136.0
8220,G#2,3071.1,0.5,63,136.0
8221,F#2,3071.6,2/5,95,136.0
8222,F#2,3072.0,1/10,95,136.0
8223,B-2,3072.1,0.5,95,136.0
8224,F#2,3072.6,0.5,95,136.0
8225,B-2,3073.1,0.5,95,136.0
8226,F#2,3073.6,0.5,95,136.0
8227,C2,3073.6,0.5,95,136.0
8228,G#2,3074.1,0.5,63,136.0
8229,F#2,3074.6,0.5,95,136.0
8230,G#2,3075.1,0.5,63,136.0
8231,F#2,3075.6,2/5,95,136.0
8232,F#2,3076.0,1/10,95,136.0
8233,B-2,3076.1,0.5,95,136.0
8234,F#2,3076.6,0.5,95,136.0
8235,B-2,3077.1,0.5,95,136.0
8236,F#2,3077.6,0.5,95,136.0
8237,D2,3077.6,0.5,95,136.0
8238,C2,3077.6,0.5,95,136.0
8239,G#2,3078.1,0.5,63,136.0
8240,F#2,3078.6,0.5,95,136.0
8241,G#2,3079.1,0.5,84,136.0
8242,D2,3079.1,0.5,84,136.0
8243,C2,3079.1,0.5,84,136.0
8244,F#2,3079.6,2/5,95,136.0
8245,F#2,3080.0,1/10,95,136.0
8246,B-2,3080.1,0.25,68,136.0
8247,D2,3080.1,0.25,68,136.0
8248,A3,3080.1,0.25,68,136.0
8249,A3,3080.35,0.25,31,136.0
8250,F#2,3080.6,0.25,79,136.0
8251,D2,3080.6,0.25,79,136.0
8252,A3,3080.6,0.25,79,136.0
8253,A3,3080.85,0.25,63,136.0
8254,B-2,3081.1,0.25,90,136.0
8255,D2,3081.1,0.25,90,136.0
8256,A3,3081.1,0.25,90,136.0
8257,A3,3081.35,0.25,95,136.0
8258,G#2,3081.6,0.25,95,136.0
8259,E3,3081.6,0.25,95,136.0
8260,G#2,3081.85,0.25,31,136.0
8261,G#2,3082.1,0.25,63,136.0
8262,G#2,3082.35,0.25,87,136.0
8263,C2,3082.35,0.25,87,136.0
8264,G#2,3082.6,0.25,95,136.0
8265,C#2,3082.6,0.25,95,136.0
8266,F#2,3082.6,0.25,95,136.0
8267,G#2,3082.85,0.25,31,136.0
8268,G#2,3083.1,0.25,79,136.0
8269,C2,3083.1,0.25,79,136.0
8270,G#2,3083.35,0.25,79,136.0
8271,G#2,3083.6,0.25,95,136.0
8272,C2,3083.6,0.25,95,136.0
8273,G#2,3083.85,3/20,31,136.0
8274,G#2,3084.0,1/10,31,136.0
8275,G#2,3084.1,0.25,63,136.0
8276,G#2,3084.35,0.25,79,136.0
8277,G#2,3084.6,0.25,95,136.0
8278,C#2,3084.6,0.25,95,136.0
8279,G#2,3084.85,0.25,31,136.0
8280,G#2,3085.1,0.25,79,136.0
8281,C2,3085.1,0.25,79,136.0
8282,G#2,3085.35,0.25,79,136.0
8283,G#2,3085.6,0.25,95,136.0
8284,G#2,3085.85,0.25,31,136.0
8285,G#2,3086.1,0.25,63,136.0
8286,G#2,3086.35,0.25,79,136.0
8287,G#2,3086.6,0.25,95,136.0
8288,C#2,3086.6,0.25,95,136.0
8289,G#2,3086.85,0.25,31,136.0
8290,G#2,3087.1,0.25,63,136.0
8291,G#2,3087.35,0.25,79,136.0
8292,G#2,3087.6,0.25,87,136.0
8293,C2,3087.6,0.25,87,136.0
8294,G#2,3087.85,3/20,31,136.0
8295,G#2,3088.0,1/10,31,136.0
8296,G#2,3088.1,0.25,63,136.0
8297,G#2,3088.35,0.25,79,136.0
8298,G#2,3088.6,0.25,95,136.0
8299,C#2,3088.6,0.25,95,136.0
8300,G#2,3088.85,0.25,31,136.0
8301,G#2,3089.1,0.25,79,136.0
8302,B-2,3089.1,0.25,79,136.0
8303,G#2,3089.35,0.25,79,136.0
8304,G#2,3089.6,0.25,95,136.0
8305,G#2,3089.85,0.25,31,136.0
8306,G#2,3090.1,0.25,63,136.0
8307,G#2,3090.35,0.25,87,136.0
8308,C2,3090.35,0.25,87,136.0
8309,G#2,3090.6,0.25,95,136.0
8310,C#2,3090.6,0.25,95,136.0
8311,F#2,3090.6,0.25,95,136.0
8312,G#2,3090.85,0.25,31,136.0
8313,G#2,3091.1,0.25,79,136.0
8314,C2,3091.1,0.25,79,136.0
8315,G#2,3091.35,0.25,79,136.0
8316,G#2,3091.6,0.25,95,136.0
8317,C2,3091.6,0.25,95,136.0
8318,G#2,3091.85,3/20,31,136.0
8319,G#2,3092.0,1/10,31,136.0
8320,G#2,3092.1,0.25,63,136.0
8321,G#2,3092.35,0.25,79,136.0
8322,G#2,3092.6,0.25,95,136.0
8323,C#2,3092.6,0.25,95,136.0
8324,G#2,3092.85,0.25,31,136.0
8325,G#2,3093.1,0.25,79,136.0
8326,C2,3093.1,0.25,79,136.0
8327,G#2,3093.35,0.25,79,136.0
8328,G#2,3093.6,0.25,95,136.0
8329,G#2,3093.85,0.25,31,136.0
8330,G#2,3094.1,0.25,63,136.0
8331,G#2,3094.35,0.25,79,136.0
8332,G#2,3094.6,0.25,95,136.0
8333,C#2,3094.6,0.25,95,136.0
8334,G#2,3094.85,0.25,31,136.0
8335,G#2,3095.1,0.25,63,136.0
8336,G#2,3095.35,0.25,79,136.0
8337,G#2,3095.6,0.25,87,136.0
8338,C2,3095.6,0.25,87,136.0
8339,G#2,3095.85,3/20,31,136.0
8340,G#2,3096.0,1/10,31,136.0
8341,G#2,3096.1,0.25,63,136.0
8342,G#2,3096.35,0.25,79,136.0
8343,G#2,3096.6,0.25,95,136.0
8344,C#2,3096.6,0.25,95,136.0
8345,G#2,3096.85,0.25,31,136.0
8346,G#2,3097.1,0.25,79,136.0
8347,B-2,3097.1,0.25,79,136.0
8348,G#2,3097.35,0.25,79,136.0
8349,G#2,3097.6,0.25,95,136.0
8350,G#2,3097.85,0.25,31,136.0
8351,G#2,3098.1,0.25,63,136.0
8352,G#2,3098.35,0.25,87,136.0
8353,C2,3098.35,0.25,87,136.0
8354,G#2,3098.6,0.25,95,136.0
8355,C#2,3098.6,0.25,95,136.0
8356,F#2,3098.6,0.25,95,136.0
8357,G#2,3098.85,0.25,31,136.0
8358,G#2,3099.1,0.25,79,136.0
8359,C2,3099.1,0.25,79,136.0
8360,G#2,3099.35,0.25,79,136.0
8361,G#2,3099.6,0.25,95,136.0
8362,C2,3099.6,0.25,95,136.0
8363,G#2,3099.85,3/20,31,136.0
8364,G#2,3100.0,1/10,31,136.0
8365,G#2,3100.1,0.25,63,136.0
8366,G#2,3100.35,0.25,79,136.0
8367,G#2,3100.6,0.25,95,136.0
8368,C#2,3100.6,0.25,95,136.0
8369,G#2,3100.85,0.25,31,136.0
8370,G#2,3101.1,0.25,79,136.0
8371,C2,3101.1,0.25,79,136.0
8372,G#2,3101.35,0.25,79,136.0
8373,G#2,3101.6,0.25,95,136.0
8374,G#2,3101.85,0.25,31,136.0
8375,G#2,3102.1,0.25,63,136.0
8376,G#2,3102.35,0.25,79,136.0
8377,G#2,3102.6,0.25,95,136.0
8378,C#2,3102.6,0.25,95,136.0
8379,G#2,3102.85,0.25,31,136.0
8380,G#2,3103.1,0.25,63,136.0
8381,G#2,3103.35,0.25,79,136.0
8382,G#2,3103.6,0.25,87,136.0
8383,C2,3103.6,0.25,87,136.0
8384,G#2,3103.85,3/20,31,136.0
8385,G#2,3104.0,1/10,31,136.0
8386,G#2,3104.1,0.25,63,136.0
8387,G#2,3104.35,0.25,79,136.0
8388,G#2,3104.6,0.25,95,136.0
8389,C#2,3104.6,0.25,95,136.0
8390,G#2,3104.85,0.25,31,136.0
8391,G#2,3105.1,0.25,79,136.0
8392,B-2,3105.1,0.25,79,136.0
8393,G#2,3105.35,0.25,79,136.0
8394,G#2,3105.6,0.25,95,136.0
8395,G#2,3105.85,0.25,31,136.0
8396,G#2,3106.1,0.25,63,136.0
8397,G#2,3106.35,0.25,87,136.0
8398,C2,3106.35,0.25,87,136.0
8399,G#2,3106.6,0.25,95,136.0
8400,C#2,3106.6,0.25,95,136.0
8401,F#2,3106.6,0.25,95,136.0
8402,G#2,3106.85,0.25,31,136.0
8403,G#2,3107.1,0.25,79,136.0
8404,C2,3107.1,0.25,79,136.0
8405,G#2,3107.35,0.25,79,136.0
8406,G#2,3107.6,0.25,95,136.0
8407,C2,3107.6,0.25,95,136.0
8408,G#2,3107.85,3/20,31,136.0
8409,G#2,3108.0,1/10,31,136.0
8410,G#2,3108.1,0.25,63,136.0
8411,G#2,3108.35,0.25,79,136.0
8412,G#2,3108.6,0.25,95,136.0
8413,C#2,3108.6,0.25,95,136.0
8414,G#2,3108.85,0.25,31,136.0
8415,G#2,3109.1,0.25,79,136.0
8416,C2,3109.1,0.25,79,136.0
8417,G#2,3109.35,0.25,79,136.0
8418,G#2,3109.6,0.25,95,136.0
8419,G#2,3109.85,0.25,31,136.0
8420,G#2,3110.1,0.25,63,136.0
8421,G#2,3110.35,0.25,79,136.0
8422,G#2,3110.6,0.25,95,136.0
8423,C#2,3110.6,0.25,95,136.0
8424,G#2,3110.85,0.25,31,136.0
8425,G#2,3111.1,0.25,63,136.0
8426,G#2,3111.35,0.25,79,136.0
8427,G#2,3111.6,0.25,87,136.0
8428,C2,3111.6,0.25,87,136.0
8429,G#2,3111.85,3/20,31,136.0
8430,G#2,3112.0,1/10,31,136.0
8431,G#2,3112.1,0.25,63,136.0
8432,G#2,3112.35,0.25,79,136.0
8433,G#2,3112.6,0.25,95,136.0
8434,C#2,3112.6,0.25,95,136.0
8435,G#2,3112.85,0.25,31,136.0
8436,G#2,3113.1,0.25,79,136.0
8437,B-2,3113.1,0.25,79,136.0
8438,G#2,3113.35,0.25,79,136.0
8439,C6,3113.35,0.5,95,136.0
8440,G#2,3113.6,0.25,95,136.0
8441,E3,3113.6,0.25,95,136.0
8442,G#2,3113.85,0.25,31,136.0
8443,G#2,3114.1,0.25,63,136.0
8444,G#2,3114.35,0.25,87,136.0
8445,C2,3114.35,0.25,87,136.0
8446,G#2,3114.6,0.25,95,136.0
8447,C#2,3114.6,0.25,95,136.0
8448,F#2,3114.6,0.25,95,136.0
8449,G#2,3114.85,0.25,31,136.0
8450,G#2,3115.1,0.25,79,136.0
8451,C2,3115.1,0.25,79,136.0
8452,G#2,3115.35,0.25,79,136.0
8453,G#2,3115.6,0.25,95,136.0
8454,C2,3115.6,0.25,95,136.0
8455,G#2,3115.85,3/20,31,136.0
8456,G#2,3116.0,1/10,31,136.0
8457,G#2,3116.1,0.25,63,136.0
8458,G#2,3116.35,0.25,79,136.0
8459,G#2,3116.6,0.25,95,136.0
8460,C#2,3116.6,0.25,95,136.0
8461,G#2,3116.85,0.25,31,136.0
8462,G#2,3117.1,0.25,79,136.0
8463,C2,3117.1,0.25,79,136.0
8464,G#2,3117.35,0.25,79,136.0
8465,G#2,3117.6,0.25,95,136.0
8466,G#2,3117.85,0.25,31,136.0
8467,G#2,3118.1,0.25,63,136.0
8468,G#2,3118.35,0.25,79,136.0
8469,G#2,3118.6,0.25,95,136.0
8470,C#2,3118.6,0.25,95,136.0
8471,G#2,3118.85,0.25,31,136.0
8472,G#2,3119.1,0.25,63,136.0
8473,G#2,3119.35,0.25,79,136.0
8474,G#2,3119.6,0.25,87,136.0
8475,C2,3119.6,0.25,87,136.0
8476,G#2,3119.85,3/20,31,136.0
8477,G#2,3120.0,1/10,31,136.0
8478,G#2,3120.1,0.25,63,136.0
8479,G#2,3120.35,0.25,79,136.0
8480,G#2,3120.6,0.25,95,136.0
8481,C#2,3120.6,0.25,95,136.0
8482,G#2,3120.85,0.25,31,136.0
8483,G#2,3121.1,0.25,79,136.0
8484,B-2,3121.1,0.25,79,136.0
8485,G#2,3121.35,0.25,79,136.0
8486,G#2,3121.6,0.25,95,136.0
8487,G#2,3121.85,0.25,31,136.0
8488,G#2,3122.1,0.25,63,136.0
8489,G#2,3122.35,0.25,87,136.0
8490,C2,3122.35,0.25,87,136.0
8491,G#2,3122.6,0.25,95,136.0
8492,C#2,3122.6,0.25,95,136.0
8493,F#2,3122.6,0.25,95,136.0
8494,G#2,3122.85,0.25,31,136.0
8495,G#2,3123.1,0.25,79,136.0
8496,C2,3123.1,0.25,79,136.0
8497,G#2,3123.35,0.25,79,136.0
8498,G#2,3123.6,0.25,95,136.0
8499,C2,3123.6,0.25,95,136.0
8500,G#2,3123.85,3/20,31,136.0
8501,G#2,3124.0,1/10,31,136.0
8502,G#2,3124.1,0.25,63,136.0
8503,G#2,3124.35,0.25,79,136.0
8504,G#2,3124.6,0.25,95,136.0
8505,C#2,3124.6,0.25,95,136.0
8506,G#2,3124.85,0.25,31,136.0
8507,G#2,3125.1,0.25,79,136.0
8508,C2,3125.1,0.25,79,136.0
8509,G#2,3125.35,0.25,79,136.0
8510,G#2,3125.6,0.25,95,136.0
8511,G#2,3125.85,0.25,31,136.0
8512,G#2,3126.1,0.25,63,136.0
8513,G#2,3126.35,0.25,79,136.0
8514,G#2,3126.6,0.25,95,136.0
8515,C#2,3126.6,0.25,95,136.0
8516,G#2,3126.85,0.25,31,136.0
8517,G#2,3127.1,0.25,63,136.0
8518,G#2,3127.35,0.25,79,136.0
8519,G#2,3127.6,0.25,87,136.0
8520,C2,3127.6,0.25,87,136.0
8521,G#2,3127.85,3/20,31,136.0
8522,G#2,3128.0,1/10,31,136.0
8523,G#2,3128.1,0.25,63,136.0
8524,G#2,3128.35,0.25,79,136.0
8525,G#2,3128.6,0.25,95,136.0
8526,C#2,3128.6,0.25,95,136.0
8527,G#2,3128.85,0.25,31,136.0
8528,G#2,3129.1,0.25,79,136.0
8529,B-2,3129.1,0.25,79,136.0
8530,G#2,3129.35,0.25,79,136.0
8531,G#2,3129.6,0.25,95,136.0
8532,G#2,3129.85,0.25,31,136.0
8533,G#2,3130.1,0.25,63,136.0
8534,G#2,3130.35,0.25,87,136.0
8535,C2,3130.35,0.25,87,136.0
8536,G#2,3130.6,0.25,95,136.0
8537,C#2,3130.6,0.25,95,136.0
8538,F#2,3130.6,0.25,95,136.0
8539,G#2,3130.85,0.25,31,136.0
8540,G#2,3131.1,0.25,79,136.0
8541,C2,3131.1,0.25,79,136.0
8542,G#2,3131.35,0.25,79,136.0
8543,G#2,3131.6,0.25,95,136.0
8544,C2,3131.6,0.25,95,136.0
8545,G#2,3131.85,3/20,31,136.0
8546,G#2,3132.0,1/10,31,136.0
8547,G#2,3132.1,0.25,63,136.0
8548,G#2,3132.35,0.25,79,136.0
8549,G#2,3132.6,0.25,95,136.0
8550,C#2,3132.6,0.25,95,136.0
8551,G#2,3132.85,0.25,31,136.0
8552,G#2,3133.1,0.25,79,136.0
8553,C2,3133.1,0.25,79,136.0
8554,G#2,3133.35,0.25,79,136.0
8555,G#2,3133.6,0.25,95,136.0
8556,G#2,3133.85,0.25,31,136.0
8557,G#2,3134.1,0.25,63,136.0
8558,G#2,3134.35,0.25,79,136.0
8559,G#2,3134.6,0.25,95,136.0
8560,C#2,3134.6,0.25,95,136.0
8561,G#2,3134.85,0.25,31,136.0
8562,G#2,3135.1,0.25,63,136.0
8563,G#2,3135.35,0.25,79,136.0
8564,G#2,3135.6,0.25,87,136.0
8565,C2,3135.6,0.25,87,136.0
8566,G#2,3135.85,3/20,31,136.0
8567,G#2,3136.0,1/10,31,136.0
8568,G#2,3136.1,0.25,63,136.0
8569,G#2,3136.35,0.25,79,136.0
8570,G#2,3136.6,0.25,95,136.0
8571,C#2,3136.6,0.25,95,136.0
8572,G#2,3136.85,0.25,31,136.0
8573,G#2,3137.1,0.25,79,136.0
8574,B-2,3137.1,0.25,79,136.0
8575,G#2,3137.35,0.25,79,136.0
8576,G#2,3137.6,0.25,95,136.0
8577,G#2,3137.85,0.25,31,136.0
8578,G#2,3138.1,0.25,63,136.0
8579,G#2,3138.35,0.25,87,136.0
8580,C2,3138.35,0.25,87,136.0
8581,G#2,3138.6,0.25,95,136.0
8582,C#2,3138.6,0.25,95,136.0
8583,F#2,3138.6,0.25,95,136.0
8584,G#2,3138.85,0.25,31,136.0
8585,G#2,3139.1,0.25,79,136.0
8586,C2,3139.1,0.25,79,136.0
8587,G#2,3139.35,0.25,79,136.0
8588,G#2,3139.6,0.25,95,136.0
8589,C2,3139.6,0.25,95,136.0
8590,G#2,3139.85,3/20,31,136.0
8591,G#2,3140.0,1/10,31,136.0
8592,G#2,3140.1,0.25,63,136.0
8593,G#2,3140.35,0.25,79,136.0
8594,G#2,3140.6,0.25,95,136.0
8595,C#2,3140.6,0.25,95,136.0
8596,G#2,3140.85,0.25,31,136.0
8597,G#2,3141.1,0.25,79,136.0
8598,C2,3141.1,0.25,79,136.0
8599,G#2,3141.35,0.25,79,136.0
8600,G#2,3141.6,0.25,95,136.0
8601,G#2,3141.85,0.25,31,136.0
8602,G#2,3142.1,0.25,63,136.0
8603,G#2,3142.35,0.25,79,136.0
8604,G#2,3142.6,0.25,95,136.0
8605,C#2,3142.6,0.25,95,136.0
8606,G#2,3142.85,0.25,31,136.0
8607,G#2,3143.1,0.25,63,136.0
8608,G#2,3143.35,0.25,79,136.0
8609,G#2,3143.6,0.25,90,136.0
8610,C2,3143.6,0.25,90,136.0
8611,D2,3143.6,0.25,90,136.0
8612,G#2,3143.85,3/20,31,136.0
8613,G#2,3144.0,1/10,31,136.0
8614,G#2,3144.1,0.25,79,136.0
8615,C3,3144.1,0.25,79,136.0
8616,D2,3144.1,0.25,79,136.0
8617,G#2,3144.35,0.25,79,136.0
8618,B2,3144.35,0.25,79,136.0
8619,D2,3144.35,0.25,79,136.0
8620,G#2,3144.6,0.25,83,136.0
8621,C#2,3144.6,0.25,83,136.0
8622,A2,3144.6,0.25,83,136.0
8623,D2,3144.6,0.25,83,136.0
8624,G#2,3144.85,0.25,31,136.0
8625,G#2,3145.1,0.25,87,136.0
8626,B-2,3145.1,0.25,87,136.0
8627,C2,3145.1,0.25,87,136.0
8628,C#3,3145.1,0.25,87,136.0
8629,G#2,3145.35,0.25,79,136.0
8630,F#2,3145.6,0.25,95,136.0
8631,F#2,3145.85,0.25,31,136.0
8632,F#2,3146.1,0.25,79,136.0
8633,F#2,3146.35,0.25,79,136.0
8634,F#2,3146.6,0.25,95,136.0
8635,D2,3146.6,0.25,95,136.0
8636,F#2,3146.85,0.25,31,136.0
8637,F#2,3147.1,0.25,87,136.0
8638,C2,3147.1,0.25,87,136.0
8639,F#2,3147.35,0.25,79,136.0
8640,F#2,3147.6,0.25,95,136.0
8641,C2,3147.6,0.25,95,136.0
8642,F#2,3147.85,3/20,31,136.0
8643,F#2,3148.0,1/10,31,136.0
8644,F#2,3148.1,0.25,79,136.0
8645,F#2,3148.35,0.25,79,136.0
8646,F#2,3148.6,0.25,95,136.0
8647,D2,3148.6,0.25,95,136.0
8648,F#2,3148.85,0.25,31,136.0
8649,F#2,3149.1,0.25,87,136.0
8650,C2,3149.1,0.25,87,136.0
8651,F#2,3149.35,0.25,79,136.0
8652,F#2,3149.6,0.25,95,136.0
8653,F#2,3149.85,0.25,31,136.0
8654,F#2,3150.1,0.25,79,136.0
8655,F#2,3150.35,0.25,79,136.0
8656,F#2,3150.6,0.25,95,136.0
8657,D2,3150.6,0.25,95,136.0
8658,F#2,3150.85,0.25,31,136.0
8659,F#2,3151.1,0.25,87,136.0
8660,C2,3151.1,0.25,87,136.0
8661,F#2,3151.35,0.25,79,136.0
8662,F#2,3151.6,0.25,95,136.0
8663,C2,3151.6,0.25,95,136.0
8664,F#2,3151.85,3/20,31,136.0
8665,F#2,3152.0,1/10,31,136.0
8666,F#2,3152.1,0.25,79,136.0
8667,F#2,3152.35,0.25,79,136.0
8668,F#2,3152.6,0.25,95,136.0
8669,D2,3152.6,0.25,95,136.0
8670,F#2,3152.85,0.25,31,136.0
8671,F#2,3153.1,0.25,87,136.0
8672,C2,3153.1,0.25,87,136.0
8673,F#2,3153.35,0.25,79,136.0
8674,F#2,3153.6,0.25,95,136.0
8675,F#2,3153.85,0.25,31,136.0
8676,F#2,3154.1,0.25,79,136.0
8677,F#2,3154.35,0.25,79,136.0
8678,F#2,3154.6,0.25,95,136.0
8679,D2,3154.6,0.25,95,136.0
8680,F#2,3154.85,0.25,31,136.0
8681,F#2,3155.1,0.25,87,136.0
8682,C2,3155.1,0.25,87,136.0
8683,F#2,3155.35,0.25,79,136.0
8684,F#2,3155.6,0.25,95,136.0
8685,C2,3155.6,0.25,95,136.0
8686,F#2,3155.85,3/20,31,136.0
8687,F#2,3156.0,1/10,31,136.0
8688,F#2,3156.1,0.25,79,136.0
8689,F#2,3156.35,0.25,79,136.0
8690,F#2,3156.6,0.25,95,136.0
8691,D2,3156.6,0.25,95,136.0
8692,F#2,3156.85,0.25,31,136.0
8693,F#2,3157.1,0.25,87,136.0
8694,C2,3157.1,0.25,87,136.0
8695,F#2,3157.35,0.25,79,136.0
8696,F#2,3157.6,0.25,95,136.0
8697,F#2,3157.85,0.25,31,136.0
8698,F#2,3158.1,0.25,79,136.0
8699,F#2,3158.35,0.25,79,136.0
8700,F#2,3158.6,0.25,95,136.0
8701,D2,3158.6,0.25,95,136.0
8702,F#2,3158.85,0.25,31,136.0
8703,F#2,3159.1,0.25,87,136.0
8704,C2,3159.1,0.25,87,136.0
8705,F#2,3159.35,0.25,79,136.0
8706,F#2,3159.6,0.25,95,136.0
8707,C2,3159.6,0.25,95,136.0
8708,F#2,3159.85,3/20,31,136.0
8709,F#2,3160.0,1/10,31,136.0
8710,F#2,3160.1,0.25,79,136.0
8711,F#2,3160.35,0.25,79,136.0
8712,F#2,3160.6,0.25,95,136.0
8713,D2,3160.6,0.25,95,136.0
8714,F#2,3160.85,0.25,31,136.0
8715,F#2,3161.1,0.25,87,136.0
8716,C2,3161.1,0.25,87,136.0
8717,F#2,3161.35,0.25,79,136.0
8718,F#2,3161.6,0.25,95,136.0
8719,F#2,3161.85,0.25,31,136.0
8720,F#2,3162.1,0.25,79,136.0
8721,F#2,3162.35,0.25,79,136.0
8722,F#2,3162.6,0.25,95,136.0
8723,D2,3162.6,0.25,95,136.0
8724,F#2,3162.85,0.25,31,136.0
8725,F#2,3163.1,0.25,87,136.0
8726,C2,3163.1,0.25,87,136.0
8727,F#2,3163.35,0.25,79,136.0
8728,F#2,3163.6,0.25,95,136.0
8729,C2,3163.6,0.25,95,136.0
8730,F#2,3163.85,3/20,31,136.0
8731,F#2,3164.0,1/10,31,136.0
8732,F#2,3164.1,0.25,79,136.0
8733,F#2,3164.35,0.25,79,136.0
8734,F#2,3164.6,0.25,95,136.0
8735,D2,3164.6,0.25,95,136.0
8736,F#2,3164.85,0.25,31,136.0
8737,F#2,3165.1,0.25,87,136.0
8738,C2,3165.1,0.25,87,136.0
8739,F#2,3165.35,0.25,79,136.0
8740,F#2,3165.6,0.25,95,136.0
8741,F#2,3165.85,0.25,31,136.0
8742,F#2,3166.1,0.25,79,136.0
8743,F#2,3166.35,0.25,79,136.0
8744,F#2,3166.6,0.25,95,136.0
8745,D2,3166.6,0.25,95,136.0
8746,F#2,3166.85,0.25,31,136.0
8747,F#2,3167.1,0.25,87,136.0
8748,C2,3167.1,0.25,87,136.0
8749,F#2,3167.35,0.25,79,136.0
8750,F#2,3167.6,0.25,95,136.0
8751,C2,3167.6,0.25,95,136.0
8752,F#2,3167.85,3/20,31,136.0
8753,F#2,3168.0,1/10,31,136.0
8754,F#2,3168.1,0.25,79,136.0
8755,F#2,3168.35,0.25,79,136.0
8756,F#2,3168.6,0.25,95,136.0
8757,D2,3168.6,0.25,95,136.0
8758,F#2,3168.85,0.25,31,136.0
8759,F#2,3169.1,0.25,87,136.0
8760,C2,3169.1,0.25,87,136.0
8761,F#2,3169.35,0.25,79,136.0
8762,F#2,3169.6,0.25,95,136.0
8763,F#2,3169.85,0.25,31,136.0
8764,F#2,3170.1,0.25,79,136.0
8765,F#2,3170.35,0.25,79,136.0
8766,F#2,3170.6,0.25,95,136.0
8767,D2,3170.6,0.25,95,136.0
8768,F#2,3170.85,0.25,31,136.0
8769,F#2,3171.1,0.25,87,136.0
8770,C2,3171.1,0.25,87,136.0
8771,F#2,3171.35,0.25,79,136.0
8772,F#2,3171.6,0.25,95,136.0
8773,C2,3171.6,0.25,95,136.0
8774,F#2,3171.85,3/20,31,136.0
8775,F#2,3172.0,1/10,31,136.0
8776,F#2,3172.1,0.25,79,136.0
8777,F#2,3172.35,0.25,79,136.0
8778,F#2,3172.6,0.25,95,136.0
8779,D2,3172.6,0.25,95,136.0
8780,F#2,3172.85,0.25,31,136.0
8781,F#2,3173.1,0.25,87,136.0
8782,C2,3173.1,0.25,87,136.0
8783,F#2,3173.35,0.25,79,136.0
8784,G#2,3173.6,0.25,95,136.0
8785,G#2,3173.85,0.25,31,136.0
8786,G#2,3174.1,0.25,63,136.0
8787,G#2,3174.35,0.25,79,136.0
8788,G#2,3174.6,0.25,95,136.0
8789,D2,3174.6,0.25,95,136.0
8790,G#2,3174.85,0.25,31,136.0
8791,G#2,3175.1,0.25,79,136.0
8792,C2,3175.1,0.25,79,136.0
8793,G#2,3175.35,0.25,79,136.0
8794,G#2,3175.6,0.25,90,136.0
8795,C2,3175.6,0.25,90,136.0
8796,D2,3175.6,0.25,90,136.0
8797,G#2,3175.85,3/20,31,136.0
8798,G#2,3176.0,1/10,31,136.0
8799,G#2,3176.1,0.25,79,136.0
8800,C3,3176.1,0.25,79,136.0
8801,D2,3176.1,0.25,79,136.0
8802,G#2,3176.35,0.25,79,136.0
8803,B2,3176.35,0.25,79,136.0
8804,D2,3176.35,0.25,79,136.0
8805,G#2,3176.6,0.25,83,136.0
8806,C#2,3176.6,0.25,83,136.0
8807,A2,3176.6,0.25,83,136.0
8808,D2,3176.6,0.25,83,136.0
8809,G#2,3176.85,0.25,31,136.0
8810,G#2,3177.1,0.25,87,136.0
8811,B-2,3177.1,0.25,87,136.0
8812,C2,3177.1,0.25,87,136.0
8813,C#3,3177.1,0.25,87,136.0
8814,G#2,3177.35,0.25,79,136.0
8815,F#2,3177.6,0.25,95,136.0
8816,F#2,3177.85,0.25,31,136.0
8817,F#2,3178.1,0.25,79,136.0
8818,F#2,3178.35,0.25,79,136.0
8819,F#2,3178.6,0.25,95,136.0
8820,D2,3178.6,0.25,95,136.0
8821,F#2,3178.85,0.25,31,136.0
8822,F#2,3179.1,0.25,87,136.0
8823,C2,3179.1,0.25,87,136.0
8824,F#2,3179.35,0.25,79,136.0
8825,F#2,3179.6,0.25,95,136.0
8826,C2,3179.6,0.25,95,136.0
8827,F#2,3179.85,3/20,31,136.0
8828,F#2,3180.0,1/10,31,136.0
8829,F#2,3180.1,0.25,79,136.0
8830,F#2,3180.35,0.25,79,136.0
8831,F#2,3180.6,0.25,95,136.0
8832,D2,3180.6,0.25,95,136.0
8833,F#2,3180.85,0.25,31,136.0
8834,F#2,3181.1,0.25,87,136.0
8835,C2,3181.1,0.25,87,136.0
8836,F#2,3181.35,0.25,79,136.0
8837,F#2,3181.6,0.25,95,136.0
8838,F#2,3181.85,0.25,31,136.0
8839,F#2,3182.1,0.25,79,136.0
8840,F#2,3182.35,0.25,79,136.0
8841,F#2,3182.6,0.25,95,136.0
8842,D2,3182.6,0.25,95,136.0
8843,F#2,3182.85,0.25,31,136.0
8844,F#2,3183.1,0.25,87,136.0
8845,C2,3183.1,0.25,87,136.0
8846,F#2,3183.35,0.25,79,136.0
8847,F#2,3183.6,0.25,95,136.0
8848,C2,3183.6,0.25,95,136.0
8849,F#2,3183.85,3/20,31,136.0
8850,F#2,3184.0,1/10,31,136.0
8851,F#2,3184.1,0.25,79,136.0
8852,F#2,3184.35,0.25,79,136.0
8853,F#2,3184.6,0.25,95,136.0
8854,D2,3184.6,0.25,95,136.0
8855,F#2,3184.85,0.25,31,136.0
8856,F#2,3185.1,0.25,87,136.0
8857,C2,3185.1,0.25,87,136.0
8858,F#2,3185.35,0.25,79,136.0
8859,F#2,3185.6,0.25,95,136.0
8860,F#2,3185.85,0.25,31,136.0
8861,F#2,3186.1,0.25,79,136.0
8862,F#2,3186.35,0.25,79,136.0
8863,F#2,3186.6,0.25,95,136.0
8864,D2,3186.6,0.25,95,136.0
8865,F#2,3186.85,0.25,31,136.0
8866,F#2,3187.1,0.25,87,136.0
8867,C2,3187.1,0.25,87,136.0
8868,F#2,3187.35,0.25,79,136.0
8869,F#2,3187.6,0.25,95,136.0
8870,C2,3187.6,0.25,95,136.0
8871,F#2,3187.85,3/20,31,136.0
8872,F#2,3188.0,1/10,31,136.0
8873,F#2,3188.1,0.25,79,136.0
8874,F#2,3188.35,0.25,79,136.0
8875,F#2,3188.6,0.25,95,136.0
8876,D2,3188.6,0.25,95,136.0
8877,F#2,3188.85,0.25,31,136.0
8878,F#2,3189.1,0.25,87,136.0
8879,C2,3189.1,0.25,87,136.0
8880,F#2,3189.35,0.25,79,136.0
8881,F#2,3189.6,0.25,95,136.0
8882,F#2,3189.85,0.25,31,136.0
8883,F#2,3190.1,0.25,79,136.0
8884,F#2,3190.35,0.25,79,136.0
8885,F#2,3190.6,0.25,95,136.0
8886,D2,3190.6,0.25,95,136.0
8887,F#2,3190.85,0.25,31,136.0
8888,F#2,3191.1,0.25,87,136.0
8889,C2,3191.1,0.25,87,136.0
8890,F#2,3191.35,0.25,79,136.0
8891,F#2,3191.6,0.25,95,136.0
8892,C2,3191.6,0.25,95,136.0
8893,F#2,3191.85,3/20,31,136.0
8894,F#2,3192.0,1/10,31,136.0
8895,F#2,3192.1,0.25,79,136.0
8896,F#2,3192.35,0.25,79,136.0
8897,F#2,3192.6,0.25,95,136.0
8898,D2,3192.6,0.25,95,136.0
8899,F#2,3192.85,0.25,31,136.0
8900,F#2,3193.1,0.25,87,136.0
8901,C2,3193.1,0.25,87,136.0
8902,F#2,3193.35,0.25,79,136.0
8903,F#2,3193.6,0.25,95,136.0
8904,F#2,3193.85,0.25,31,136.0
8905,F#2,3194.1,0.25,79,136.0
8906,F#2,3194.35,0.25,79,136.0
8907,F#2,3194.6,0.25,95,136.0
8908,D2,3194.6,0.25,95,136.0
8909,F#2,3194.85,0.25,31,136.0
8910,F#2,3195.1,0.25,87,136.0
8911,C2,3195.1,0.25,87,136.0
8912,F#2,3195.35,0.25,79,136.0
8913,F#2,3195.6,0.25,95,136.0
8914,C2,3195.6,0.25,95,136.0
8915,F#2,3195.85,3/20,31,136.0
8916,F#2,3196.0,1/10,31,136.0
8917,F#2,3196.1,0.25,79,136.0
8918,F#2,3196.35,0.25,79,136.0
8919,F#2,3196.6,0.25,95,136.0
8920,D2,3196.6,0.25,95,136.0
8921,F#2,3196.85,0.25,31,136.0
8922,F#2,3197.1,0.25,87,136.0
8923,C2,3197.1,0.25,87,136.0
8924,F#2,3197.35,0.25,79,136.0
8925,F#2,3197.6,0.25,95,136.0
8926,F#2,3197.85,0.25,31,136.0
8927,F#2,3198.1,0.25,79,136.0
8928,F#2,3198.35,0.25,79,136.0
8929,F#2,3198.6,0.25,95,136.0
8930,D2,3198.6,0.25,95,136.0
8931,F#2,3198.85,0.25,31,136.0
8932,F#2,3199.1,0.25,87,136.0
8933,C2,3199.1,0.25,87,136.0
8934,F#2,3199.35,0.25,79,136.0
8935,F#2,3199.6,0.25,95,136.0
8936,C2,3199.6,0.25,95,136.0
8937,F#2,3199.85,3/20,31,136.0
8938,F#2,3200.0,1/10,31,136.0
8939,F#2,3200.1,0.25,79,136.0
8940,F#2,3200.35,0.25,79,136.0
8941,F#2,3200.6,0.25,95,136.0
8942,D2,3200.6,0.25,95,136.0
8943,F#2,3200.85,0.25,31,136.0
8944,F#2,3201.1,0.25,87,136.0
8945,C2,3201.1,0.25,87,136.0
8946,F#2,3201.35,0.25,79,136.0
8947,F#2,3201.6,0.25,95,136.0
8948,F#2,3201.85,0.25,31,136.0
8949,F#2,3202.1,0.25,79,136.0
8950,F#2,3202.35,0.25,79,136.0
8951,F#2,3202.6,0.25,95,136.0
8952,D2,3202.6,0.25,95,136.0
8953,F#2,3202.85,0.25,31,136.0
8954,F#2,3203.1,0.25,87,136.0
8955,C2,3203.1,0.25,87,136.0
8956,F#2,3203.35,0.25,79,136.0
8957,F#2,3203.6,0.25,95,136.0
8958,C2,3203.6,0.25,95,136.0
8959,F#2,3203.85,3/20,31,136.0
8960,F#2,3204.0,1/10,31,136.0
8961,F#2,3204.1,0.25,79,136.0
8962,F#2,3204.35,0.25,79,136.0
8963,F#2,3204.6,0.25,95,136.0
8964,D2,3204.6,0.25,95,136.0
8965,F#2,3204.85,0.25,31,136.0
8966,F#2,3205.1,0.25,87,136.0
8967,C2,3205.1,0.25,87,136.0
8968,F#2,3205.35,0.25,79,136.0
8969,F#2,3205.6,0.25,95,136.0
8970,F#2,3205.85,0.25,31,136.0
8971,F#2,3206.1,0.25,79,136.0
8972,F#2,3206.35,0.25,79,136.0
8973,F#2,3206.6,0.25,95,136.0
8974,D2,3206.6,0.25,95,136.0
8975,F#2,3206.85,0.25,31,136.0
8976,F#2,3207.1,0.25,87,136.0
8977,C2,3207.1,0.25,87,136.0
8978,F#2,3207.35,0.25,79,136.0
8979,F#2,3207.6,0.25,95,136.0
8980,C2,3207.6,0.25,95,136.0
8981,F#2,3207.85,3/20,31,136.0
8982,F#2,3208.0,1/10,31,136.0
8983,F#2,3208.1,0.25,79,136.0
8984,F#2,3208.35,0.25,79,136.0
8985,F#2,3208.6,0.25,95,136.0
8986,D2,3208.6,0.25,95,136.0
8987,F#2,3208.85,0.25,31,136.0
8988,F#2,3209.1,0.25,87,136.0
8989,C2,3209.1,0.25,87,136.0
8990,F#2,3209.35,0.25,79,136.0
8991,G#2,3209.6,0.25,95,136.0
8992,E3,3209.6,0.25,95,136.0
8993,G#2,3209.85,0.25,31,136.0
8994,G#2,3210.1,0.25,63,136.0
8995,G#2,3210.35,0.25,87,136.0
8996,C2,3210.35,0.25,87,136.0
8997,G#2,3210.6,0.25,95,136.0
8998,C#2,3210.6,0.25,95,136.0
8999,F#2,3210.6,0.25,95,136.0
9000,G#2,3210.85,0.25,31,136.0
9001,G#2,3211.1,0.25,79,136.0
9002,C2,3211.1,0.25,79,136.0
9003,G#2,3211.35,0.25,79,136.0
9004,G#2,3211.6,0.25,95,136.0
9005,C2,3211.6,0.25,95,136.0
9006,G#2,3211.85,3/20,31,136.0
9007,G#2,3212.0,1/10,31,136.0
9008,G#2,3212.1,0.25,63,136.0
9009,G#2,3212.35,0.25,79,136.0
9010,G#2,3212.6,0.25,95,136.0
9011,C#2,3212.6,0.25,95,136.0
9012,G#2,3212.85,0.25,31,136.0
9013,G#2,3213.1,0.25,79,136.0
9014,C2,3213.1,0.25,79,136.0
9015,G#2,3213.35,0.25,79,136.0
9016,G#2,3213.6,0.25,95,136.0
9017,G#2,3213.85,0.25,31,136.0
9018,G#2,3214.1,0.25,63,136.0
9019,G#2,3214.35,0.25,79,136.0
9020,G#2,3214.6,0.25,95,136.0
9021,C#2,3214.6,0.25,95,136.0
9022,G#2,3214.85,0.25,31,136.0
9023,G#2,3215.1,0.25,63,136.0
9024,G#2,3215.35,0.25,79,136.0
9025,G#2,3215.6,0.25,87,136.0
9026,C2,3215.6,0.25,87,136.0
9027,G#2,3215.85,3/20,31,136.0
9028,G#2,3216.0,1/10,31,136.0
9029,G#2,3216.1,0.25,63,136.0
9030,G#2,3216.35,0.25,79,136.0
9031,G#2,3216.6,0.25,95,136.0
9032,C#2,3216.6,0.25,95,136.0
9033,G#2,3216.85,0.25,31,136.0
9034,G#2,3217.1,0.25,79,136.0
9035,B-2,3217.1,0.25,79,136.0
9036,G#2,3217.35,0.25,79,136.0
9037,G#2,3217.6,0.25,95,136.0
9038,G#2,3217.85,0.25,31,136.0
9039,G#2,3218.1,0.25,63,136.0
9040,G#2,3218.35,0.25,87,136.0
9041,C2,3218.35,0.25,87,136.0
9042,G#2,3218.6,0.25,95,136.0
9043,C#2,3218.6,0.25,95,136.0
9044,F#2,3218.6,0.25,95,136.0
9045,G#2,3218.85,0.25,31,136.0
9046,G#2,3219.1,0.25,79,136.0
9047,C2,3219.1,0.25,79,136.0
9048,G#2,3219.35,0.25,79,136.0
9049,G#2,3219.6,0.25,95,136.0
9050,C2,3219.6,0.25,95,136.0
9051,G#2,3219.85,3/20,31,136.0
9052,G#2,3220.0,1/10,31,136.0
9053,G#2,3220.1,0.25,63,136.0
9054,G#2,3220.35,0.25,79,136.0
9055,G#2,3220.6,0.25,95,136.0
9056,C#2,3220.6,0.25,95,136.0
9057,G#2,3220.85,0.25,31,136.0
9058,G#2,3221.1,0.25,79,136.0
9059,C2,3221.1,0.25,79,136.0
9060,G#2,3221.35,0.25,79,136.0
9061,G#2,3221.6,0.25,95,136.0
9062,G#2,3221.85,0.25,31,136.0
9063,G#2,3222.1,0.25,63,136.0
9064,G#2,3222.35,0.25,79,136.0
9065,G#2,3222.6,0.25,95,136.0
9066,C#2,3222.6,0.25,95,136.0
9067,G#2,3222.85,0.25,31,136.0
9068,G#2,3223.1,0.25,63,136.0
9069,G#2,3223.35,0.25,79,136.0
9070,G#2,3223.6,0.25,87,136.0
9071,C2,3223.6,0.25,87,136.0
9072,G#2,3223.85,3/20,31,136.0
9073,G#2,3224.0,1/10,31,136.0
9074,G#2,3224.1,0.25,63,136.0
9075,G#2,3224.35,0.25,79,136.0
9076,G#2,3224.6,0.25,95,136.0
9077,C#2,3224.6,0.25,95,136.0
9078,G#2,3224.85,0.25,31,136.0
9079,G#2,3225.1,0.25,79,136.0
9080,B-2,3225.1,0.25,79,136.0
9081,G#2,3225.35,0.25,79,136.0
9082,G#2,3225.6,0.25,95,136.0
9083,G#2,3225.85,0.25,31,136.0
9084,G#2,3226.1,0.25,63,136.0
9085,G#2,3226.35,0.25,87,136.0
9086,C2,3226.35,0.25,87,136.0
9087,G#2,3226.6,0.25,95,136.0
9088,C#2,3226.6,0.25,95,136.0
9089,F#2,3226.6,0.25,95,136.0
9090,G#2,3226.85,0.25,31,136.0
9091,G#2,3227.1,0.25,79,136.0
9092,C2,3227.1,0.25,79,136.0
9093,G#2,3227.35,0.25,79,136.0
9094,G#2,3227.6,0.25,95,136.0
9095,C2,3227.6,0.25,95,136.0
9096,G#2,3227.85,3/20,31,136.0
9097,G#2,3228.0,1/10,31,136.0
9098,G#2,3228.1,0.25,63,136.0
9099,G#2,3228.35,0.25,79,136.0
9100,G#2,3228.6,0.25,95,136.0
9101,C#2,3228.6,0.25,95,136.0
9102,G#2,3228.85,0.25,31,136.0
9103,G#2,3229.1,0.25,79,136.0
9104,C2,3229.1,0.25,79,136.0
9105,G#2,3229.35,0.25,79,136.0
9106,G#2,3229.6,0.25,95,136.0
9107,G#2,3229.85,0.25,31,136.0
9108,G#2,3230.1,0.25,63,136.0
9109,G#2,3230.35,0.25,79,136.0
9110,G#2,3230.6,0.25,95,136.0
9111,C#2,3230.6,0.25,95,136.0
9112,G#2,3230.85,0.25,31,136.0
9113,G#2,3231.1,0.25,63,136.0
9114,G#2,3231.35,0.25,79,136.0
9115,G#2,3231.6,0.25,87,136.0
9116,C2,3231.6,0.25,87,136.0
9117,G#2,3231.85,3/20,31,136.0
9118,G#2,3232.0,1/10,31,136.0
9119,G#2,3232.1,0.25,63,136.0
9120,G#2,3232.35,0.25,79,136.0
9121,G#2,3232.6,0.25,95,136.0
9122,C#2,3232.6,0.25,95,136.0
9123,G#2,3232.85,0.25,31,136.0
9124,G#2,3233.1,0.25,79,136.0
9125,B-2,3233.1,0.25,79,136.0
9126,G#2,3233.35,0.25,79,136.0
9127,G#2,3233.6,0.25,95,136.0
9128,G#2,3233.85,0.25,31,136.0
9129,G#2,3234.1,0.25,63,136.0
9130,G#2,3234.35,0.25,87,136.0
9131,C2,3234.35,0.25,87,136.0
9132,G#2,3234.6,0.25,95,136.0
9133,C#2,3234.6,0.25,95,136.0
9134,F#2,3234.6,0.25,95,136.0
9135,G#2,3234.85,0.25,31,136.0
9136,G#2,3235.1,0.25,79,136.0
9137,C2,3235.1,0.25,79,136.0
9138,G#2,3235.35,0.25,79,136.0
9139,G#2,3235.6,0.25,95,136.0
9140,C2,3235.6,0.25,95,136.0
9141,G#2,3235.85,3/20,31,136.0
9142,G#2,3236.0,1/10,31,136.0
9143,G#2,3236.1,0.25,63,136.0
9144,G#2,3236.35,0.25,79,136.0
9145,G#2,3236.6,0.25,95,136.0
9146,C#2,3236.6,0.25,95,136.0
9147,G#2,3236.85,0.25,31,136.0
9148,G#2,3237.1,0.25,79,136.0
9149,C2,3237.1,0.25,79,136.0
9150,G#2,3237.35,0.25,79,136.0
9151,G#2,3237.6,0.25,95,136.0
9152,G#2,3237.85,0.25,31,136.0
9153,G#2,3238.1,0.25,63,136.0
9154,G#2,3238.35,0.25,79,136.0
9155,G#2,3238.6,0.25,95,136.0
9156,C#2,3238.6,0.25,95,136.0
9157,G#2,3238.85,0.25,31,136.0
9158,G#2,3239.1,0.25,63,136.0
9159,G#2,3239.35,0.25,79,136.0
9160,G#2,3239.6,0.25,87,136.0
9161,C2,3239.6,0.25,87,136.0
9162,G#2,3239.85,3/20,31,136.0
9163,G#2,3240.0,1/10,31,136.0
9164,G#2,3240.1,0.25,63,136.0
9165,G#2,3240.35,0.25,79,136.0
9166,G#2,3240.6,0.25,95,136.0
9167,C#2,3240.6,0.25,95,136.0
9168,G#2,3240.85,0.25,31,136.0
9169,G#2,3241.1,0.25,79,136.0
9170,B-2,3241.1,0.25,79,136.0
9171,G#2,3241.35,0.25,79,136.0
9172,G#2,3241.6,0.25,95,136.0
9173,E3,3241.6,0.25,95,136.0
9174,G#2,3241.85,0.25,31,136.0
9175,G#2,3242.1,0.25,63,136.0
9176,G#2,3242.35,0.25,87,136.0
9177,C2,3242.35,0.25,87,136.0
9178,G#2,3242.6,0.25,95,136.0
9179,C#2,3242.6,0.25,95,136.0
9180,F#2,3242.6,0.25,95,136.0
9181,G#2,3242.85,0.25,31,136.0
9182,G#2,3243.1,0.25,79,136.0
9183,C2,3243.1,0.25,79,136.0
9184,G#2,3243.35,0.25,79,136.0
9185,G#2,3243.6,0.25,95,136.0
9186,C2,3243.6,0.25,95,136.0
9187,G#2,3243.85,3/20,31,136.0
9188,G#2,3244.0,1/10,31,136.0
9189,G#2,3244.1,0.25,63,136.0
9190,G#2,3244.35,0.25,79,136.0
9191,G#2,3244.6,0.25,95,136.0
9192,C#2,3244.6,0.25,95,136.0
9193,G#2,3244.85,0.25,31,136.0
9194,G#2,3245.1,0.25,79,136.0
9195,C2,3245.1,0.25,79,136.0
9196,G#2,3245.35,0.25,79,136.0
9197,G#2,3245.6,0.25,95,136.0
9198,G#2,3245.85,0.25,31,136.0
9199,G#2,3246.1,0.25,63,136.0
9200,G#2,3246.35,0.25,79,136.0
9201,G#2,3246.6,0.25,95,136.0
9202,C#2,3246.6,0.25,95,136.0
9203,G#2,3246.85,0.25,31,136.0
9204,G#2,3247.1,0.25,63,136.0
9205,G#2,3247.35,0.25,79,136.0
9206,G#2,3247.6,0.25,87,136.0
9207,C2,3247.6,0.25,87,136.0
9208,G#2,3247.85,3/20,31,136.0
9209,G#2,3248.0,1/10,31,136.0
9210,G#2,3248.1,0.25,63,136.0
9211,G#2,3248.35,0.25,79,136.0
9212,G#2,3248.6,0.25,95,136.0
9213,C#2,3248.6,0.25,95,136.0
9214,G#2,3248.85,0.25,31,136.0
9215,G#2,3249.1,0.25,79,136.0
9216,B-2,3249.1,0.25,79,136.0
9217,G#2,3249.35,0.25,79,136.0
9218,G#2,3249.6,0.25,95,136.0
9219,G#2,3249.85,0.25,31,136.0
9220,G#2,3250.1,0.25,63,136.0
9221,G#2,3250.35,0.25,87,136.0
9222,C2,3250.35,0.25,87,136.0
9223,G#2,3250.6,0.25,95,136.0
9224,C#2,3250.6,0.25,95,136.0
9225,F#2,3250.6,0.25,95,136.0
9226,G#2,3250.85,0.25,31,136.0
9227,G#2,3251.1,0.25,79,136.0
9228,C2,3251.1,0.25,79,136.0
9229,G#2,3251.35,0.25,79,136.0
9230,G#2,3251.6,0.25,95,136.0
9231,C2,3251.6,0.25,95,136.0
9232,G#2,3251.85,3/20,31,136.0
9233,G#2,3252.0,1/10,31,136.0
9234,G#2,3252.1,0.25,63,136.0
9235,G#2,3252.35,0.25,79,136.0
9236,G#2,3252.6,0.25,95,136.0
9237,C#2,3252.6,0.25,95,136.0
9238,G#2,3252.85,0.25,31,136.0
9239,G#2,3253.1,0.25,79,136.0
9240,C2,3253.1,0.25,79,136.0
9241,G#2,3253.35,0.25,79,136.0
9242,G#2,3253.6,0.25,95,136.0
9243,G#2,3253.85,0.25,31,136.0
9244,G#2,3254.1,0.25,63,136.0
9245,G#2,3254.35,0.25,79,136.0
9246,G#2,3254.6,0.25,95,136.0
9247,C#2,3254.6,0.25,95,136.0
9248,G#2,3254.85,0.25,31,136.0
9249,G#2,3255.1,0.25,63,136.0
9250,G#2,3255.35,0.25,79,136.0
9251,G#2,3255.6,0.25,87,136.0
9252,C2,3255.6,0.25,87,136.0
9253,G#2,3255.85,3/20,31,136.0
9254,G#2,3256.0,1/10,31,136.0
9255,G#2,3256.1,0.25,63,136.0
9256,G#2,3256.35,0.25,79,136.0
9257,G#2,3256.6,0.25,95,136.0
9258,C#2,3256.6,0.25,95,136.0
9259,G#2,3256.85,0.25,31,136.0
9260,G#2,3257.1,0.25,79,136.0
9261,B-2,3257.1,0.25,79,136.0
9262,G#2,3257.35,0.25,79,136.0
9263,G#2,3257.6,0.25,95,136.0
9264,G#2,3257.85,0.25,31,136.0
9265,G#2,3258.1,0.25,63,136.0
9266,G#2,3258.35,0.25,87,136.0
9267,C2,3258.35,0.25,87,136.0
9268,G#2,3258.6,0.25,95,136.0
9269,C#2,3258.6,0.25,95,136.0
9270,F#2,3258.6,0.25,95,136.0
9271,G#2,3258.85,0.25,31,136.0
9272,G#2,3259.1,0.25,79,136.0
9273,C2,3259.1,0.25,79,136.0
9274,G#2,3259.35,0.25,79,136.0
9275,G#2,3259.6,0.25,95,136.0
9276,C2,3259.6,0.25,95,136.0
9277,G#2,3259.85,3/20,31,136.0
9278,G#2,3260.0,1/10,31,136.0
9279,G#2,3260.1,0.25,63,136.0
9280,G#2,3260.35,0.25,79,136.0
9281,G#2,3260.6,0.25,95,136.0
9282,C#2,3260.6,0.25,95,136.0
9283,G#2,3260.85,0.25,31,136.0
9284,G#2,3261.1,0.25,79,136.0
9285,C2,3261.1,0.25,79,136.0
9286,G#2,3261.35,0.25,79,136.0
