,note_name,start_time,duration,velocity,tempo
0,A4,2.0,0.25,95,72.0
1,G4,2.0,2.0,95,72.0
2,D4,2.0,2.0,95,72.0
3,G3,2.0,2.0,95,72.0
4,D3,2.0,2.0,95,72.0
5,B2,2.0,2.0,95,72.0
6,G2,2.0,2.0,95,72.0
7,G4,2.0,2.0,95,72.0
8,D4,2.0,2.0,95,72.0
9,G3,2.0,2.0,95,72.0
10,D3,2.0,2.0,95,72.0
11,B2,2.0,2.0,95,72.0
12,G2,2.0,2.0,95,72.0
13,B4,2.25,0.5,95,72.0
14,D5,2.75,0.5,95,72.0
15,D5,3.25,0.5,95,72.0
16,D5,3.75,0.25,95,72.0
17,D5,4.0,1.0,95,72.0
18,F#4,4.0,2.0,95,72.0
19,D4,4.0,2.0,95,72.0
20,A3,4.0,2.0,95,72.0
21,D3,4.0,2.0,95,72.0
22,F#4,4.0,2.0,95,72.0
23,D4,4.0,2.0,95,72.0
24,A3,4.0,2.0,95,72.0
25,D3,4.0,2.0,95,72.0
26,A2,4.0,2.0,95,72.0
27,D5,5.0,0.5,95,72.0
28,C5,5.5,0.25,95,72.0
29,B4,5.75,0.25,95,72.0
30,C5,6.0,1.0,95,72.0
31,E4,6.0,2.0,95,72.0
32,C4,6.0,2.0,95,72.0
33,G3,6.0,2.0,95,72.0
34,E3,6.0,2.0,95,72.0
35,C3,6.0,2.0,95,72.0
36,G2,6.0,2.0,95,72.0
37,E4,6.0,2.0,95,72.0
38,C4,6.0,2.0,95,72.0
39,G3,6.0,2.0,95,72.0
40,E3,6.0,2.0,95,72.0
41,C3,6.0,2.0,95,72.0
42,G2,6.0,2.0,95,72.0
43,D5,7.0,0.25,95,72.0
44,C5,7.25,0.25,95,72.0
45,A4,7.5,0.5,95,72.0
46,G4,8.0,2.0,95,72.0
47,G4,8.0,2.0,95,72.0
48,D4,8.0,2.0,95,72.0
49,G3,8.0,2.0,95,72.0
50,D3,8.0,2.0,95,72.0
51,B2,8.0,2.0,95,72.0
52,G2,8.0,2.0,95,72.0
53,G4,8.0,2.0,95,72.0
54,D4,8.0,2.0,95,72.0
55,G3,8.0,2.0,95,72.0
56,D3,8.0,2.0,95,72.0
57,B2,8.0,2.0,95,72.0
58,G2,8.0,2.0,95,72.0
59,A4,10.0,0.75,95,72.0
60,G4,10.0,2.0,95,72.0
61,D4,10.0,2.0,95,72.0
62,G3,10.0,2.0,95,72.0
63,D3,10.0,2.0,95,72.0
64,B2,10.0,2.0,95,72.0
65,G2,10.0,2.0,95,72.0
66,G4,10.0,2.0,95,72.0
67,D4,10.0,2.0,95,72.0
68,G3,10.0,2.0,95,72.0
69,D3,10.0,2.0,95,72.0
70,B2,10.0,2.0,95,72.0
71,G2,10.0,2.0,95,72.0
72,D5,10.75,0.5,95,72.0
73,D5,11.25,0.5,95,72.0
74,D5,11.75,0.25,95,72.0
75,D5,12.0,1.0,95,72.0
76,F#4,12.0,2.0,95,72.0
77,D4,12.0,2.0,95,72.0
78,A3,12.0,2.0,95,72.0
79,D3,12.0,2.0,95,72.0
80,F#4,12.0,2.0,95,72.0
81,D4,12.0,2.0,95,72.0
82,A3,12.0,2.0,95,72.0
83,D3,12.0,2.0,95,72.0
84,A2,12.0,2.0,95,72.0
85,D5,13.0,0.5,95,72.0
86,C5,13.5,0.25,95,72.0
87,B4,13.75,0.25,95,72.0
88,C5,14.0,1.0,95,72.0
89,E4,14.0,2.0,95,72.0
90,C4,14.0,2.0,95,72.0
91,G3,14.0,2.0,95,72.0
92,E3,14.0,2.0,95,72.0
93,C3,14.0,2.0,95,72.0
94,G2,14.0,2.0,95,72.0
95,E4,14.0,2.0,95,72.0
96,C4,14.0,2.0,95,72.0
97,G3,14.0,2.0,95,72.0
98,E3,14.0,2.0,95,72.0
99,C3,14.0,2.0,95,72.0
100,G2,14.0,2.0,95,72.0
101,D5,15.0,0.25,95,72.0
102,C5,15.25,0.25,95,72.0
103,A4,15.5,0.5,95,72.0
104,G4,16.0,2.0,95,72.0
105,G4,16.0,2.0,95,72.0
106,D4,16.0,2.0,95,72.0
107,G3,16.0,2.0,95,72.0
108,D3,16.0,2.0,95,72.0
109,B2,16.0,2.0,95,72.0
110,G2,16.0,2.0,95,72.0
111,G4,16.0,2.0,95,72.0
112,D4,16.0,2.0,95,72.0
113,G3,16.0,2.0,95,72.0
114,D3,16.0,2.0,95,72.0
115,B2,16.0,2.0,95,72.0
116,G2,16.0,2.0,95,72.0
117,G4,18.0,2.0,95,72.0
118,D4,18.0,2.0,95,72.0
119,G3,18.0,2.0,95,72.0
120,D3,18.0,2.0,95,72.0
121,B2,18.0,2.0,95,72.0
122,G2,18.0,2.0,95,72.0
123,G4,18.0,2.0,95,72.0
124,D4,18.0,2.0,95,72.0
125,G3,18.0,2.0,95,72.0
126,D3,18.0,2.0,95,72.0
127,B2,18.0,2.0,95,72.0
128,G2,18.0,2.0,95,72.0
129,B3,18.5,0.25,95,72.0
130,B3,18.75,0.5,95,72.0
131,B3,19.25,0.25,95,72.0
132,B3,19.5,0.5,95,72.0
133,B3,20.0,0.25,95,72.0
134,G4,20.0,2.0,95,72.0
135,D4,20.0,2.0,95,72.0
136,G3,20.0,2.0,95,72.0
137,D3,20.0,2.0,95,72.0
138,B2,20.0,2.0,95,72.0
139,G2,20.0,2.0,95,72.0
140,G4,20.0,2.0,95,72.0
141,D4,20.0,2.0,95,72.0
142,G3,20.0,2.0,95,72.0
143,D3,20.0,2.0,95,72.0
144,B2,20.0,2.0,95,72.0
145,G2,20.0,2.0,95,72.0
146,C4,20.25,0.25,95,72.0
147,B3,20.5,0.75,95,72.0
148,A3,21.25,0.25,95,72.0
149,G3,21.5,0.5,95,72.0
150,F#4,22.0,2.0,95,72.0
151,D4,22.0,2.0,95,72.0
152,B3,22.0,2.0,95,72.0
153,F#3,22.0,2.0,95,72.0
154,B2,22.0,2.0,95,72.0
155,F#4,22.0,2.0,95,72.0
156,D4,22.0,2.0,95,72.0
157,B3,22.0,2.0,95,72.0
158,F#3,22.0,2.0,95,72.0
159,B2,22.0,2.0,95,72.0
160,B3,22.5,0.25,95,72.0
161,B3,22.75,0.25,95,72.0
162,B3,23.0,0.25,95,72.0
163,B3,23.25,0.5,95,72.0
164,B3,23.75,0.25,95,72.0
165,B3,24.0,0.25,95,72.0
166,F#4,24.0,2.0,95,72.0
167,D4,24.0,2.0,95,72.0
168,B3,24.0,2.0,95,72.0
169,F#3,24.0,2.0,95,72.0
170,B2,24.0,2.0,95,72.0
171,F#4,24.0,0.25,95,72.0
172,D4,24.0,0.25,95,72.0
173,B3,24.0,0.25,95,72.0
174,F#3,24.0,0.25,95,72.0
175,B2,24.0,0.25,95,72.0
176,C4,24.25,0.25,95,72.0
177,D4,24.25,0.25,127,72.0
178,B3,24.5,0.75,95,72.0
179,F#4,24.5,0.25,127,72.0
180,G4,24.75,0.5,127,72.0
181,A3,25.25,0.25,95,72.0
182,D5,25.25,0.5,127,72.0
183,G3,25.5,0.5,95,72.0
184,F#4,25.75,0.25,127,72.0
185,E4,26.0,2.0,95,72.0
186,B3,26.0,2.0,95,72.0
187,E3,26.0,2.0,95,72.0
188,B2,26.0,2.0,95,72.0
189,E2,26.0,2.0,95,72.0
190,E4,26.0,2.0,95,72.0
191,B3,26.0,2.0,95,72.0
192,E3,26.0,2.0,95,72.0
193,B2,26.0,2.0,95,72.0
194,E2,26.0,2.0,95,72.0
195,B3,26.5,0.25,95,72.0
196,B3,26.75,0.25,95,72.0
197,B3,27.0,0.25,95,72.0
198,B3,27.25,0.5,95,72.0
199,B3,27.75,0.25,95,72.0
200,B3,28.0,0.25,95,72.0
201,E4,28.0,2.0,95,72.0
202,B3,28.0,2.0,95,72.0
203,E3,28.0,2.0,95,72.0
204,B2,28.0,2.0,95,72.0
205,E2,28.0,2.0,95,72.0
206,E4,28.0,2.0,95,72.0
207,B3,28.0,2.0,95,72.0
208,E3,28.0,2.0,95,72.0
209,B2,28.0,2.0,95,72.0
210,E2,28.0,2.0,95,72.0
211,C4,28.25,0.25,95,72.0
212,B3,28.5,0.75,95,72.0
213,A3,29.25,0.25,95,72.0
214,G3,29.5,0.5,95,72.0
215,A3,30.0,3.5,95,72.0
216,F#4,30.0,2.0,95,72.0
217,D4,30.0,2.0,95,72.0
218,A3,30.0,2.0,95,72.0
219,D3,30.0,2.0,95,72.0
220,F#4,30.0,2.0,95,72.0
221,D4,30.0,2.0,95,72.0
222,A3,30.0,2.0,95,72.0
223,D3,30.0,2.0,95,72.0
224,F#4,32.0,2.0,95,72.0
225,D4,32.0,2.0,95,72.0
226,A3,32.0,2.0,95,72.0
227,D3,32.0,2.0,95,72.0
228,F#4,32.0,2.0,95,72.0
229,D4,32.0,2.0,95,72.0
230,A3,32.0,2.0,95,72.0
231,D3,32.0,2.0,95,72.0
232,A3,33.5,0.25,95,72.0
233,B3,33.75,0.25,95,72.0
234,C4,34.0,0.5,95,72.0
235,E4,34.0,2.0,95,72.0
236,C4,34.0,2.0,95,72.0
237,G3,34.0,2.0,95,72.0
238,E3,34.0,2.0,95,72.0
239,C3,34.0,2.0,95,72.0
240,G2,34.0,2.0,95,72.0
241,E4,34.0,2.0,95,72.0
242,C4,34.0,2.0,95,72.0
243,G3,34.0,2.0,95,72.0
244,E3,34.0,2.0,95,72.0
245,C3,34.0,2.0,95,72.0
246,G2,34.0,2.0,95,72.0
247,C4,34.5,0.25,95,72.0
248,C4,34.75,0.5,95,72.0
249,C4,35.25,0.25,95,72.0
250,C4,35.5,0.5,95,72.0
251,D4,36.0,0.25,95,72.0
252,F#4,36.0,2.0,95,72.0
253,D4,36.0,2.0,95,72.0
254,A3,36.0,2.0,95,72.0
255,D3,36.0,2.0,95,72.0
256,F#4,36.0,2.0,95,72.0
257,D4,36.0,2.0,95,72.0
258,A3,36.0,2.0,95,72.0
259,D3,36.0,2.0,95,72.0
260,D4,36.25,0.25,95,72.0
261,D4,36.5,0.5,95,72.0
262,C4,37.0,0.5,95,72.0
263,B3,37.5,0.5,95,72.0
264,E4,38.0,2.0,95,72.0
265,C4,38.0,2.0,95,72.0
266,G3,38.0,2.0,95,72.0
267,E3,38.0,2.0,95,72.0
268,C3,38.0,2.0,95,72.0
269,G2,38.0,2.0,95,72.0
270,E4,38.0,2.0,95,72.0
271,C4,38.0,2.0,95,72.0
272,G3,38.0,2.0,95,72.0
273,E3,38.0,2.0,95,72.0
274,C3,38.0,2.0,95,72.0
275,G2,38.0,2.0,95,72.0
276,C4,38.5,0.25,95,72.0
277,C4,38.75,0.25,95,72.0
278,C4,39.0,0.25,95,72.0
279,C4,39.25,0.5,95,72.0
280,C4,39.75,0.5,95,72.0
281,F#4,40.0,2.0,95,72.0
282,D4,40.0,2.0,95,72.0
283,A3,40.0,2.0,95,72.0
284,D3,40.0,2.0,95,72.0
285,F#4,40.0,2.0,95,72.0
286,D4,40.0,2.0,95,72.0
287,A3,40.0,2.0,95,72.0
288,D3,40.0,2.0,95,72.0
289,D4,40.25,0.25,95,72.0
290,D4,40.5,0.25,95,72.0
291,D4,40.75,0.5,95,72.0
292,C4,41.25,0.5,95,72.0
293,B3,41.75,0.25,95,72.0
294,E4,42.0,2.0,95,72.0
295,C4,42.0,2.0,95,72.0
296,A3,42.0,2.0,95,72.0
297,E3,42.0,2.0,95,72.0
298,A2,42.0,2.0,95,72.0
299,E4,42.0,2.0,95,72.0
300,C4,42.0,2.0,95,72.0
301,A3,42.0,2.0,95,72.0
302,E3,42.0,2.0,95,72.0
303,A2,42.0,2.0,95,72.0
304,A3,42.5,0.25,95,72.0
305,A3,42.75,0.5,95,72.0
306,A3,43.25,0.5,95,72.0
307,B3,43.75,0.25,95,72.0
308,A3,44.0,0.5,95,72.0
309,F#4,44.0,2.0,95,72.0
310,D4,44.0,2.0,95,72.0
311,A3,44.0,2.0,95,72.0
312,D3,44.0,2.0,95,72.0
313,F#4,44.0,2.0,95,72.0
314,D4,44.0,2.0,95,72.0
315,A3,44.0,2.0,95,72.0
316,D3,44.0,2.0,95,72.0
317,B3,44.5,1.0,95,72.0
318,G3,45.5,0.25,95,72.0
319,F#3,45.75,0.25,95,72.0
320,G3,46.0,4.0,95,72.0
321,G4,46.0,2.0,95,72.0
322,D4,46.0,2.0,95,72.0
323,G3,46.0,2.0,95,72.0
324,D3,46.0,2.0,95,72.0
325,B2,46.0,2.0,95,72.0
326,G2,46.0,2.0,95,72.0
327,G4,46.0,2.0,95,72.0
328,D4,46.0,2.0,95,72.0
329,G3,46.0,2.0,95,72.0
330,D3,46.0,2.0,95,72.0
331,B2,46.0,2.0,95,72.0
332,G2,46.0,2.0,95,72.0
333,G4,48.0,2.0,95,72.0
334,D4,48.0,2.0,95,72.0
335,G3,48.0,2.0,95,72.0
336,D3,48.0,2.0,95,72.0
337,B2,48.0,2.0,95,72.0
338,G2,48.0,2.0,95,72.0
339,G3,48.0,0.25,95,72.0
340,G2,48.0,0.25,95,72.0
341,G5,48.25,0.5,95,72.0
342,G4,48.25,0.5,95,72.0
343,D4,48.75,0.25,95,72.0
344,D3,48.75,0.25,95,72.0
345,G5,49.0,0.5,95,72.0
346,G4,49.0,0.5,95,72.0
347,A5,49.5,0.25,95,72.0
348,A4,49.5,0.25,95,72.0
349,B5,49.75,0.25,95,72.0
350,B4,49.75,0.25,95,72.0
351,G4,50.0,2.0,95,72.0
352,D4,50.0,2.0,95,72.0
353,G3,50.0,2.0,95,72.0
354,D3,50.0,2.0,95,72.0
355,B2,50.0,2.0,95,72.0
356,G2,50.0,2.0,95,72.0
357,G4,50.0,2.0,95,72.0
358,D4,50.0,2.0,95,72.0
359,G3,50.0,2.0,95,72.0
360,D3,50.0,2.0,95,72.0
361,B2,50.0,2.0,95,72.0
362,G2,50.0,2.0,95,72.0
363,B3,50.5,0.25,95,72.0
364,B3,50.75,0.5,95,72.0
365,B3,51.25,0.25,95,72.0
366,B3,51.5,0.5,95,72.0
367,B3,52.0,0.25,95,72.0
368,G4,52.0,2.0,95,72.0
369,D4,52.0,2.0,95,72.0
370,G3,52.0,2.0,95,72.0
371,D3,52.0,2.0,95,72.0
372,B2,52.0,2.0,95,72.0
373,G2,52.0,2.0,95,72.0
374,G4,52.0,2.0,95,72.0
375,D4,52.0,2.0,95,72.0
376,G3,52.0,2.0,95,72.0
377,D3,52.0,2.0,95,72.0
378,B2,52.0,2.0,95,72.0
379,G2,52.0,2.0,95,72.0
380,C4,52.25,0.25,95,72.0
381,B3,52.5,0.75,95,72.0
382,A3,53.25,0.25,95,72.0
383,G3,53.5,0.5,95,72.0
384,F#4,54.0,2.0,95,72.0
385,D4,54.0,2.0,95,72.0
386,B3,54.0,2.0,95,72.0
387,F#3,54.0,2.0,95,72.0
388,B2,54.0,2.0,95,72.0
389,F#4,54.0,2.0,95,72.0
390,D4,54.0,2.0,95,72.0
391,B3,54.0,2.0,95,72.0
392,F#3,54.0,2.0,95,72.0
393,B2,54.0,2.0,95,72.0
394,B3,54.5,0.25,95,72.0
395,B3,54.75,0.25,95,72.0
396,B3,55.0,0.25,95,72.0
397,B3,55.25,0.5,95,72.0
398,B3,55.75,0.25,95,72.0
399,B3,56.0,0.25,95,72.0
400,F#4,56.0,2.0,95,72.0
401,D4,56.0,2.0,95,72.0
402,B3,56.0,2.0,95,72.0
403,F#3,56.0,2.0,95,72.0
404,B2,56.0,2.0,95,72.0
405,F#4,56.0,2.0,95,72.0
406,D4,56.0,2.0,95,72.0
407,B3,56.0,2.0,95,72.0
408,F#3,56.0,2.0,95,72.0
409,B2,56.0,2.0,95,72.0
410,C4,56.25,0.25,95,72.0
411,B3,56.5,0.75,95,72.0
412,A3,57.25,0.25,95,72.0
413,G3,57.5,0.5,95,72.0
414,E4,58.0,2.0,95,72.0
415,B3,58.0,2.0,95,72.0
416,E3,58.0,2.0,95,72.0
417,B2,58.0,2.0,95,72.0
418,E2,58.0,2.0,95,72.0
419,E4,58.0,2.0,95,72.0
420,B3,58.0,2.0,95,72.0
421,E3,58.0,2.0,95,72.0
422,B2,58.0,2.0,95,72.0
423,E2,58.0,2.0,95,72.0
424,B3,58.5,0.25,95,72.0
425,B3,58.75,0.25,95,72.0
426,B3,59.0,0.25,95,72.0
427,B3,59.25,0.5,95,72.0
428,B3,59.75,0.25,95,72.0
429,B3,60.0,0.25,95,72.0
430,E4,60.0,2.0,95,72.0
431,B3,60.0,2.0,95,72.0
432,E3,60.0,2.0,95,72.0
433,B2,60.0,2.0,95,72.0
434,E2,60.0,2.0,95,72.0
435,E4,60.0,2.0,95,72.0
436,B3,60.0,2.0,95,72.0
437,E3,60.0,2.0,95,72.0
438,B2,60.0,2.0,95,72.0
439,E2,60.0,2.0,95,72.0
440,C4,60.25,0.25,95,72.0
441,B3,60.5,0.75,95,72.0
442,A3,61.25,0.25,95,72.0
443,G3,61.5,0.5,95,72.0
444,A3,62.0,3.5,95,72.0
445,F#4,62.0,2.0,95,72.0
446,D4,62.0,2.0,95,72.0
447,A3,62.0,2.0,95,72.0
448,D3,62.0,2.0,95,72.0
449,F#4,62.0,2.0,95,72.0
450,D4,62.0,2.0,95,72.0
451,A3,62.0,2.0,95,72.0
452,D3,62.0,2.0,95,72.0
453,F#4,64.0,2.0,95,72.0
454,D4,64.0,2.0,95,72.0
455,A3,64.0,2.0,95,72.0
456,D3,64.0,2.0,95,72.0
457,F#4,64.0,2.0,95,72.0
458,D4,64.0,2.0,95,72.0
459,A3,64.0,2.0,95,72.0
460,D3,64.0,2.0,95,72.0
461,A3,65.5,0.25,95,72.0
462,B3,65.75,0.25,95,72.0
463,C4,66.0,0.5,95,72.0
464,E4,66.0,2.0,95,72.0
465,C4,66.0,2.0,95,72.0
466,G3,66.0,2.0,95,72.0
467,E3,66.0,2.0,95,72.0
468,C3,66.0,2.0,95,72.0
469,G2,66.0,2.0,95,72.0
470,E4,66.0,2.0,95,72.0
471,C4,66.0,2.0,95,72.0
472,G3,66.0,2.0,95,72.0
473,E3,66.0,2.0,95,72.0
474,C3,66.0,2.0,95,72.0
475,G2,66.0,2.0,95,72.0
476,C4,66.5,0.25,95,72.0
477,C4,66.75,0.5,95,72.0
478,C4,67.25,0.25,95,72.0
479,C4,67.5,0.5,95,72.0
480,D4,68.0,0.25,95,72.0
481,F#4,68.0,2.0,95,72.0
482,D4,68.0,2.0,95,72.0
483,A3,68.0,2.0,95,72.0
484,D3,68.0,2.0,95,72.0
485,F#4,68.0,2.0,95,72.0
486,D4,68.0,2.0,95,72.0
487,A3,68.0,2.0,95,72.0
488,D3,68.0,2.0,95,72.0
489,D4,68.25,0.25,95,72.0
490,D4,68.5,0.5,95,72.0
491,C4,69.0,0.5,95,72.0
492,B3,69.5,0.5,95,72.0
493,E4,70.0,2.0,95,72.0
494,C4,70.0,2.0,95,72.0
495,G3,70.0,2.0,95,72.0
496,E3,70.0,2.0,95,72.0
497,C3,70.0,2.0,95,72.0
498,G2,70.0,2.0,95,72.0
499,E4,70.0,2.0,95,72.0
500,C4,70.0,2.0,95,72.0
501,G3,70.0,2.0,95,72.0
502,E3,70.0,2.0,95,72.0
503,C3,70.0,2.0,95,72.0
504,G2,70.0,2.0,95,72.0
505,C4,70.5,0.25,95,72.0
506,C4,70.75,0.25,95,72.0
507,C4,71.0,0.25,95,72.0
508,C4,71.25,0.5,95,72.0
509,C4,71.75,0.5,95,72.0
510,F#4,72.0,2.0,95,72.0
511,D4,72.0,2.0,95,72.0
512,A3,72.0,2.0,95,72.0
513,D3,72.0,2.0,95,72.0
514,F#4,72.0,2.0,95,72.0
515,D4,72.0,2.0,95,72.0
516,A3,72.0,2.0,95,72.0
517,D3,72.0,2.0,95,72.0
518,D4,72.25,0.25,95,72.0
519,D4,72.5,0.25,95,72.0
520,D4,72.75,0.5,95,72.0
521,C4,73.25,0.5,95,72.0
522,B3,73.75,0.25,95,72.0
523,E4,74.0,2.0,95,72.0
524,C4,74.0,2.0,95,72.0
525,A3,74.0,2.0,95,72.0
526,E3,74.0,2.0,95,72.0
527,A2,74.0,2.0,95,72.0
528,E4,74.0,2.0,95,72.0
529,C4,74.0,2.0,95,72.0
530,A3,74.0,2.0,95,72.0
531,E3,74.0,2.0,95,72.0
532,A2,74.0,2.0,95,72.0
533,A3,74.5,0.25,95,72.0
534,C4,74.5,0.25,95,72.0
535,A3,74.75,0.5,95,72.0
536,C4,74.75,0.5,95,72.0
537,A3,75.25,0.5,95,72.0
538,C4,75.25,0.5,95,72.0
539,B3,75.75,0.25,95,72.0
540,D4,75.75,0.25,95,72.0
541,A3,76.0,0.5,95,72.0
542,C4,76.0,0.5,95,72.0
543,F#4,76.0,2.0,95,72.0
544,D4,76.0,2.0,95,72.0
545,A3,76.0,2.0,95,72.0
546,D3,76.0,2.0,95,72.0
547,F#4,76.0,2.0,95,72.0
548,D4,76.0,2.0,95,72.0
549,A3,76.0,2.0,95,72.0
550,D3,76.0,2.0,95,72.0
551,B3,76.5,1.0,95,72.0
552,C4,76.5,0.25,95,72.0
553,B3,76.75,0.25,95,72.0
554,A3,77.0,0.25,95,72.0
555,A3,77.25,0.25,95,72.0
556,G3,77.5,0.25,95,72.0
557,A3,77.5,0.25,95,72.0
558,F#3,77.75,0.25,95,72.0
559,A3,77.75,0.25,95,72.0
560,G3,78.0,3.0,95,72.0
561,B3,78.0,4.0,95,72.0
562,G4,78.0,2.0,95,72.0
563,D4,78.0,2.0,95,72.0
564,G3,78.0,2.0,95,72.0
565,D3,78.0,2.0,95,72.0
566,B2,78.0,2.0,95,72.0
567,G2,78.0,2.0,95,72.0
568,G4,78.0,2.0,95,72.0
569,D4,78.0,2.0,95,72.0
570,G3,78.0,2.0,95,72.0
571,D3,78.0,2.0,95,72.0
572,B2,78.0,2.0,95,72.0
573,G2,78.0,2.0,95,72.0
574,G4,80.0,2.0,95,72.0
575,D4,80.0,2.0,95,72.0
576,G3,80.0,2.0,95,72.0
577,D3,80.0,2.0,95,72.0
578,B2,80.0,2.0,95,72.0
579,G2,80.0,2.0,95,72.0
580,G4,80.0,1.25,95,72.0
581,D4,80.0,1.25,95,72.0
582,G3,80.0,1.25,95,72.0
583,D3,80.0,1.25,95,72.0
584,B2,80.0,1.25,95,72.0
585,G2,80.0,1.25,95,72.0
586,B3,81.0,0.25,95,72.0
587,D4,81.25,0.75,95,72.0
588,B4,81.25,0.125,95,72.0
589,C5,81.375,0.125,95,72.0
590,D5,81.5,0.125,95,72.0
591,C5,81.625,0.125,95,72.0
592,D5,81.75,0.125,95,72.0
593,E5,81.875,0.125,95,72.0
594,E4,82.0,0.5,95,72.0
595,E4,82.0,2.0,95,72.0
596,B3,82.0,2.0,95,72.0
597,E3,82.0,2.0,95,72.0
598,B2,82.0,2.0,95,72.0
599,E2,82.0,2.0,95,72.0
600,E4,82.0,2.0,95,72.0
601,B3,82.0,2.0,95,72.0
602,E3,82.0,2.0,95,72.0
603,B2,82.0,2.0,95,72.0
604,E2,82.0,2.0,95,72.0
605,E4,82.0,4.0,95,72.0
606,B3,82.0,4.0,95,72.0
607,G3,82.0,4.0,95,72.0
608,E4,82.5,0.25,95,72.0
609,E4,82.75,0.5,95,72.0
610,E4,83.25,0.5,95,72.0
611,F#4,83.75,0.25,95,72.0
612,E4,84.0,1.0,95,72.0
613,E4,84.0,2.0,95,72.0
614,B3,84.0,2.0,95,72.0
615,E3,84.0,2.0,95,72.0
616,B2,84.0,2.0,95,72.0
617,E2,84.0,2.0,95,72.0
618,E4,84.0,2.0,95,72.0
619,B3,84.0,2.0,95,72.0
620,E3,84.0,2.0,95,72.0
621,B2,84.0,2.0,95,72.0
622,E2,84.0,2.0,95,72.0
623,D4,85.0,0.5,95,72.0
624,B3,85.5,0.25,95,72.0
625,C4,85.75,0.25,95,72.0
626,D4,86.0,0.5,95,72.0
627,F#4,86.0,2.0,95,72.0
628,D4,86.0,2.0,95,72.0
629,A3,86.0,2.0,95,72.0
630,D3,86.0,2.0,95,72.0
631,F#4,86.0,2.0,95,72.0
632,D4,86.0,2.0,95,72.0
633,A3,86.0,2.0,95,72.0
634,D3,86.0,2.0,95,72.0
635,D4,86.0,4.0,95,72.0
636,A3,86.0,4.0,95,72.0
637,D3,86.0,4.0,95,72.0
638,D4,86.5,0.25,95,72.0
639,B3,86.75,0.25,95,72.0
640,A3,87.0,2.0,95,72.0
641,F#4,88.0,2.0,95,72.0
642,D4,88.0,2.0,95,72.0
643,A3,88.0,2.0,95,72.0
644,D3,88.0,2.0,95,72.0
645,F#4,88.0,2.0,95,72.0
646,D4,88.0,2.0,95,72.0
647,A3,88.0,2.0,95,72.0
648,D3,88.0,2.0,95,72.0
649,B3,89.0,0.25,95,72.0
650,D4,89.25,0.75,95,72.0
651,E4,90.0,0.5,95,72.0
652,E4,90.0,2.0,95,72.0
653,B3,90.0,2.0,95,72.0
654,E3,90.0,2.0,95,72.0
655,B2,90.0,2.0,95,72.0
656,E2,90.0,2.0,95,72.0
657,E4,90.0,2.0,95,72.0
658,B3,90.0,2.0,95,72.0
659,E3,90.0,2.0,95,72.0
660,B2,90.0,2.0,95,72.0
661,E2,90.0,2.0,95,72.0
662,E4,90.0,4.0,95,72.0
663,B3,90.0,4.0,95,72.0
664,E3,90.0,4.0,95,72.0
665,E4,90.5,0.25,95,72.0
666,E4,90.75,0.5,95,72.0
667,E4,91.25,0.5,95,72.0
668,F#4,91.75,0.25,95,72.0
669,E4,92.0,1.0,95,72.0
670,E4,92.0,2.0,95,72.0
671,B3,92.0,2.0,95,72.0
672,E3,92.0,2.0,95,72.0
673,B2,92.0,2.0,95,72.0
674,E2,92.0,2.0,95,72.0
675,E4,92.0,2.0,95,72.0
676,B3,92.0,2.0,95,72.0
677,E3,92.0,2.0,95,72.0
678,B2,92.0,2.0,95,72.0
679,E2,92.0,2.0,95,72.0
680,D4,93.0,0.5,95,72.0
681,B3,93.5,0.25,95,72.0
682,C4,93.75,0.25,95,72.0
683,D4,94.0,0.5,95,72.0
684,F#4,94.0,2.0,95,72.0
685,D4,94.0,2.0,95,72.0
686,A3,94.0,2.0,95,72.0
687,D3,94.0,2.0,95,72.0
688,D4,94.0,4.0,95,72.0
689,A3,94.0,4.0,95,72.0
690,F#3,94.0,4.0,95,72.0
691,D4,94.5,0.25,95,72.0
692,B3,94.75,0.25,95,72.0
693,A3,95.0,3.0,95,72.0
694,F#4,96.0,2.0,95,72.0
695,D4,96.0,2.0,95,72.0
696,A3,96.0,2.0,95,72.0
697,D3,96.0,2.0,95,72.0
698,D4,96.25,0.5,95,72.0
699,A3,96.25,0.5,95,72.0
700,D3,96.25,0.5,95,72.0
701,D4,96.25,0.5,95,72.0
702,A3,96.25,0.5,95,72.0
703,D3,96.25,0.5,95,72.0
704,D4,97.0,0.5,95,72.0
705,A3,97.0,0.5,95,72.0
706,D3,97.0,0.5,95,72.0
707,D4,97.0,0.5,95,72.0
708,A3,97.0,0.5,95,72.0
709,D3,97.0,0.5,95,72.0
710,D3,97.5,3/40,95,72.0
711,D3,97.5,3/40,95,72.0
712,D4,97.5,0.25,95,72.0
713,A3,97.5,0.25,95,72.0
714,D4,97.5,0.25,95,72.0
715,A3,97.5,0.25,95,72.0
716,C#4,97.75,3/40,95,72.0
717,G#3,97.75,3/40,95,72.0
718,C#4,97.75,3/40,95,72.0
719,G#3,97.75,3/40,95,72.0
720,C4,98.0,4.0,95,72.0
721,G3,98.0,4.0,95,72.0
722,C3,98.0,4.0,95,72.0
723,C4,98.0,2.0,95,72.0
724,G3,98.0,2.0,95,72.0
725,C3,98.0,2.0,95,72.0
726,C4,98.0,4.0,95,72.0
727,G3,98.0,4.0,95,72.0
728,C3,98.0,4.0,95,72.0
729,G4,98.5,0.5,95,72.0
730,C4,98.5,0.5,95,72.0
731,G4,99.0,0.5,95,72.0
732,C4,99.0,0.5,95,72.0
733,F#4,99.5,0.25,95,72.0
734,B3,99.5,0.25,95,72.0
735,G4,99.75,1.0,95,72.0
736,C4,99.75,1.0,95,72.0
737,C4,100.0,2.0,95,72.0
738,G3,100.0,2.0,95,72.0
739,C3,100.0,2.0,95,72.0
740,G4,100.75,0.5,95,72.0
741,C4,100.75,0.5,95,72.0
742,F#4,101.25,0.25,95,72.0
743,B3,101.25,0.25,95,72.0
744,E4,101.5,0.5,95,72.0
745,A3,101.5,0.5,95,72.0
746,D4,102.0,2.0,95,72.0
747,A3,102.0,2.0,95,72.0
748,D3,102.0,2.0,95,72.0
749,D4,102.0,2.0,95,72.0
750,A3,102.0,2.0,95,72.0
751,D3,102.0,2.0,95,72.0
752,D4,102.0,2.0,95,72.0
753,A3,102.0,2.0,95,72.0
754,D3,102.0,2.0,95,72.0
755,D4,102.5,0.5,95,72.0
756,F#3,102.5,0.5,95,72.0
757,D4,103.0,0.5,95,72.0
758,F#3,103.0,0.5,95,72.0
759,E4,103.5,0.25,95,72.0
760,G3,103.5,0.5,95,72.0
761,F#4,103.75,1.0,95,72.0
762,A3,104.0,0.75,95,72.0
763,D4,104.0,1.5,95,72.0
764,A3,104.0,1.5,95,72.0
765,D3,104.0,1.5,95,72.0
766,D4,104.0,2.0,95,72.0
767,A3,104.0,2.0,95,72.0
768,D3,104.0,2.0,95,72.0
769,D4,104.0,1.5,95,72.0
770,A3,104.0,1.5,95,72.0
771,D3,104.0,1.5,95,72.0
772,E4,104.75,0.25,95,72.0
773,G3,104.75,0.25,95,72.0
774,F#4,105.0,1.0,95,72.0
775,A3,105.0,1.0,95,72.0
776,D4,105.5,3/40,95,72.0
777,A3,105.5,3/40,95,72.0
778,D3,105.5,3/40,95,72.0
779,D4,105.5,3/40,95,72.0
780,A3,105.5,3/40,95,72.0
781,D3,105.5,3/40,95,72.0
782,C#4,105.75,0.25,95,72.0
783,G#3,105.75,3/40,95,72.0
784,C#4,105.75,0.25,95,72.0
785,G#3,105.75,3/40,95,72.0
786,C4,106.0,4.0,95,72.0
787,G3,106.0,4.0,95,72.0
788,C3,106.0,4.0,95,72.0
789,C4,106.0,2.0,95,72.0
790,G3,106.0,2.0,95,72.0
791,C3,106.0,2.0,95,72.0
792,C4,106.0,4.0,95,72.0
793,G3,106.0,4.0,95,72.0
794,C3,106.0,4.0,95,72.0
795,G4,106.5,0.5,95,72.0
796,C4,106.5,0.5,95,72.0
797,G4,107.0,0.5,95,72.0
798,C4,107.0,0.5,95,72.0
799,F#4,107.5,0.25,95,72.0
800,B3,107.5,0.25,95,72.0
801,G4,107.75,1.0,95,72.0
802,C4,107.75,1.0,95,72.0
803,C4,108.0,2.0,95,72.0
804,G3,108.0,2.0,95,72.0
805,C3,108.0,2.0,95,72.0
806,G4,108.75,0.5,95,72.0
807,C4,108.75,0.5,95,72.0
808,F#4,109.25,0.25,95,72.0
809,B3,109.25,0.25,95,72.0
810,E4,109.5,0.5,95,72.0
811,A3,109.5,0.5,95,72.0
812,D4,110.0,4.0,95,72.0
813,A3,110.0,4.0,95,72.0
814,D3,110.0,4.0,95,72.0
815,D4,110.0,2.0,95,72.0
816,A3,110.0,2.0,95,72.0
817,D3,110.0,2.0,95,72.0
818,D4,110.0,4.0,95,72.0
819,A3,110.0,4.0,95,72.0
820,D3,110.0,4.0,95,72.0
821,D4,110.5,0.5,95,72.0
822,F#3,110.5,0.5,95,72.0
823,D4,111.0,0.5,95,72.0
824,F#3,111.0,0.5,95,72.0
825,E4,111.5,0.25,95,72.0
826,G3,111.5,0.5,95,72.0
827,F#4,111.75,1.0,95,72.0
828,A3,112.0,0.75,95,72.0
829,D4,112.0,2.0,95,72.0
830,A3,112.0,2.0,95,72.0
831,D3,112.0,2.0,95,72.0
832,E4,112.75,0.25,95,72.0
833,G3,112.75,0.25,95,72.0
834,F#4,113.0,1.0,95,72.0
835,A3,113.0,1.0,95,72.0
836,F#4,114.0,4.0,95,72.0
837,A3,114.0,3.0,95,72.0
838,D4,114.0,4.0,95,72.0
839,A3,114.0,4.0,95,72.0
840,D3,114.0,4.0,95,72.0
841,D4,114.0,4.0,95,72.0
842,A3,114.0,4.0,95,72.0
843,D3,114.0,4.0,95,72.0
844,D4,116.5,0.5,95,72.0
845,C4,117.0,0.25,95,72.0
846,B3,117.25,0.25,95,72.0
847,A3,117.5,0.5,95,72.0
848,D4,118.0,2.0,95,72.0
849,B3,118.0,2.0,95,72.0
850,G3,118.0,2.0,95,72.0
851,D3,118.0,2.0,95,72.0
852,D4,118.0,2.0,95,72.0
853,B3,118.0,2.0,95,72.0
854,G3,118.0,2.0,95,72.0
855,D3,118.0,2.0,95,72.0
856,B3,118.5,0.25,95,72.0
857,B3,118.75,0.25,95,72.0
858,B3,119.0,0.5,95,72.0
859,D4,119.5,0.25,95,72.0
860,A3,119.75,1.5,95,72.0
861,G4,120.0,2.0,95,72.0
862,D4,120.0,2.0,95,72.0
863,G3,120.0,2.0,95,72.0
864,C3,120.0,2.0,95,72.0
865,G2,120.0,2.0,95,72.0
866,G4,120.0,2.0,95,72.0
867,D4,120.0,2.0,95,72.0
868,G3,120.0,2.0,95,72.0
869,C3,120.0,2.0,95,72.0
870,G2,120.0,2.0,95,72.0
871,G3,121.25,0.5,95,72.0
872,F#3,121.75,0.25,95,72.0
873,G3,122.0,0.25,95,72.0
874,G4,122.0,2.0,95,72.0
875,D4,122.0,2.0,95,72.0
876,A3,122.0,2.0,95,72.0
877,D3,122.0,2.0,95,72.0
878,G2,122.0,2.0,95,72.0
879,G4,122.0,2.0,95,72.0
880,D4,122.0,2.0,95,72.0
881,A3,122.0,2.0,95,72.0
882,D3,122.0,2.0,95,72.0
883,G2,122.0,2.0,95,72.0
884,A3,122.25,3.75,95,72.0
885,G4,124.25,0.25,95,72.0
886,A3,124.25,1.0,95,72.0
887,D3,124.25,1.0,95,72.0
888,D4,124.5,0.25,95,72.0
889,A3,124.75,0.25,95,72.0
890,G4,125.0,0.25,95,72.0
891,D4,125.25,0.25,95,72.0
892,A3,125.25,0.75,95,72.0
893,D3,125.25,0.75,95,72.0
894,A3,125.5,0.25,95,72.0
895,G4,125.75,0.25,95,72.0
896,D4,125.75,0.25,95,72.0
897,G4,126.0,4.0,95,72.0
898,D4,126.0,4.0,95,72.0
899,A3,126.0,4.0,95,72.0
900,D3,126.0,4.0,95,72.0
901,G2,126.0,4.0,95,72.0
902,D5,126.0,4.0,95,72.0
903,D4,126.0,4.0,95,72.0
904,A3,126.0,4.0,95,72.0
905,D3,126.0,4.0,95,72.0
906,G2,126.0,4.0,95,72.0
907,D5,129.0,0.25,95,72.0
908,D4,129.25,0.25,95,72.0
909,E4,129.5,0.25,95,72.0
910,G4,129.75,0.25,95,72.0
911,A4,130.0,1.0,95,72.0
912,G4,130.0,2.0,95,72.0
913,D4,130.0,2.0,95,72.0
914,G3,130.0,2.0,95,72.0
915,D3,130.0,2.0,95,72.0
916,B2,130.0,2.0,95,72.0
917,G2,130.0,2.0,95,72.0
918,D5,131.0,0.25,95,72.0
919,A4,131.25,0.5,95,72.0
920,G4,131.75,0.125,95,72.0
921,G4,131.875,0.125,95,72.0
922,A4,132.0,2.0,95,72.0
923,E4,132.0,2.0,95,72.0
924,B3,132.0,2.0,95,72.0
925,E3,132.0,2.0,95,72.0
926,B2,132.0,2.0,95,72.0
927,E2,132.0,2.0,95,72.0
928,F5,134.0,1.5,95,72.0
929,D5,134.0,1.5,95,72.0
930,C4,134.0,2.0,95,72.0
931,G3,134.0,2.0,95,72.0
932,C3,134.0,2.0,95,72.0
933,F#5,135.5,0.25,95,72.0
934,D5,135.5,0.5,95,72.0
935,G5,135.75,0.25,95,72.0
936,B4,136.0,1.5,95,72.0
937,F#4,136.0,1.5,95,72.0
938,B3,136.0,2.0,95,72.0
939,F#3,136.0,2.0,95,72.0
940,B2,136.0,2.0,95,72.0
941,B4,137.5,0.25,95,72.0
942,B4,137.5,0.25,95,72.0
943,E5,137.75,0.25,95,72.0
944,C5,137.75,0.25,95,72.0
945,G5,138.0,0.25,95,72.0
946,D5,138.0,0.25,95,72.0
947,E3,138.0,2.0,95,72.0
948,B2,138.0,2.0,95,72.0
949,B4,138.25,1.0,95,72.0
950,G4,138.25,1.0,95,72.0
951,B4,139.25,0.25,95,72.0
952,E4,139.25,0.25,95,72.0
953,C5,139.5,0.25,95,72.0
954,G4,139.5,0.25,95,72.0
955,C5,139.75,1.0,95,72.0
956,A4,139.75,1.0,95,72.0
957,E4,140.0,2.0,95,72.0
958,C4,140.0,2.0,95,72.0
959,A3,140.0,2.0,95,72.0
960,E3,140.0,2.0,95,72.0
961,A2,140.0,2.0,95,72.0
962,C5,140.75,0.125,95,72.0
963,A4,140.75,0.125,95,72.0
964,B4,140.875,0.125,95,72.0
965,G4,140.875,0.125,95,72.0
966,C5,141.0,1.0,95,72.0
967,A4,141.0,1.0,95,72.0
968,F#4,142.0,0.25,95,72.0
969,F#4,142.0,2.0,95,72.0
970,D4,142.0,2.0,95,72.0
971,A3,142.0,2.0,95,72.0
972,D3,142.0,2.0,95,72.0
973,A2,142.0,2.0,95,72.0
974,A4,142.25,0.25,95,72.0
975,D5,142.5,0.25,95,72.0
976,E5,142.75,0.25,95,72.0
977,E5,143.0,0.75,95,72.0
978,E5,143.75,0.25,95,72.0
979,E5,144.0,0.5,95,72.0
980,F#4,144.0,2.0,95,72.0
981,D4,144.0,2.0,95,72.0
982,A3,144.0,2.0,95,72.0
983,D3,144.0,2.0,95,72.0
984,A2,144.0,2.0,95,72.0
985,D5,144.5,0.25,95,72.0
986,A4,144.75,0.25,95,72.0
987,F#4,145.0,0.25,95,72.0
988,G4,145.25,0.25,95,72.0
989,A4,145.5,0.25,95,72.0
990,D4,145.75,0.25,95,72.0
991,D4,146.0,0.25,95,72.0
992,D4,146.0,0.25,95,72.0
993,G4,146.0,2.0,95,72.0
994,D4,146.0,2.0,95,72.0
995,G3,146.0,2.0,95,72.0
996,D3,146.0,2.0,95,72.0
997,B2,146.0,2.0,95,72.0
998,G2,146.0,2.0,95,72.0
999,A5,146.25,1.5,95,72.0
1000,A5,146.25,1.5,95,72.0
1001,A5,147.75,0.25,95,72.0
1002,A5,147.75,0.25,95,72.0
1003,A5,148.0,0.5,95,72.0
1004,A5,148.0,0.5,95,72.0
1005,F#4,148.0,2.0,95,72.0
1006,D4,148.0,2.0,95,72.0
1007,A3,148.0,2.0,95,72.0
1008,D3,148.0,2.0,95,72.0
1009,A2,148.0,2.0,95,72.0
1010,G5,148.5,0.25,95,72.0
1011,G5,148.5,0.25,95,72.0
1012,F#5,148.75,0.25,95,72.0
1013,F#5,148.75,0.25,95,72.0
1014,G5,149.0,0.25,95,72.0
1015,G5,149.0,0.25,95,72.0
1016,F#5,149.25,0.25,95,72.0
1017,F#5,149.25,0.25,95,72.0
1018,D5,149.5,0.25,95,72.0
1019,D5,149.5,0.25,95,72.0
1020,A4,149.75,0.25,95,72.0
1021,A4,149.75,0.25,95,72.0
1022,A4,150.0,3.0,95,72.0
1023,A4,150.0,4.0,95,72.0
1024,G4,150.0,4.0,95,72.0
1025,D4,150.0,4.0,95,72.0
1026,G3,150.0,4.0,95,72.0
1027,D3,150.0,4.0,95,72.0
1028,B2,150.0,4.0,95,72.0
1029,G2,150.0,4.0,95,72.0
1030,B3,153.0,0.25,95,72.0
1031,F#4,153.0,0.125,95,72.0
1032,G4,153.125,0.125,70,72.0
1033,D4,153.25,0.75,95,72.0
1034,A4,153.25,0.125,70,72.0
1035,G4,153.375,0.125,70,72.0
1036,F#4,153.5,0.125,70,72.0
1037,B3,153.625,0.375,95,72.0
1038,E4,154.0,0.5,95,72.0
1039,E4,154.0,2.0,95,72.0
1040,B3,154.0,2.0,95,72.0
1041,E3,154.0,2.0,95,72.0
1042,B2,154.0,2.0,95,72.0
1043,E2,154.0,2.0,95,72.0
1044,E4,154.0,2.0,95,72.0
1045,B3,154.0,2.0,95,72.0
1046,E3,154.0,2.0,95,72.0
1047,B2,154.0,2.0,95,72.0
1048,E2,154.0,2.0,95,72.0
1049,E4,154.0,4.0,95,72.0
1050,B3,154.0,4.0,95,72.0
1051,G3,154.0,4.0,95,72.0
1052,E4,154.5,0.25,95,72.0
1053,E4,154.75,0.5,95,72.0
1054,E4,155.25,0.5,95,72.0
1055,F#4,155.75,0.25,95,72.0
1056,E4,156.0,1.0,95,72.0
1057,E4,156.0,2.0,95,72.0
1058,B3,156.0,2.0,95,72.0
1059,E3,156.0,2.0,95,72.0
1060,B2,156.0,2.0,95,72.0
1061,E2,156.0,2.0,95,72.0
1062,E4,156.0,2.0,95,72.0
1063,B3,156.0,2.0,95,72.0
1064,E3,156.0,2.0,95,72.0
1065,B2,156.0,2.0,95,72.0
1066,E2,156.0,2.0,95,72.0
1067,D4,157.0,0.5,95,72.0
1068,B3,157.5,0.25,95,72.0
1069,C4,157.75,0.25,95,72.0
1070,D4,158.0,0.5,95,72.0
1071,F#4,158.0,2.0,95,72.0
1072,D4,158.0,2.0,95,72.0
1073,A3,158.0,2.0,95,72.0
1074,D3,158.0,2.0,95,72.0
1075,F#4,158.0,2.0,95,72.0
1076,D4,158.0,2.0,95,72.0
1077,A3,158.0,2.0,95,72.0
1078,D3,158.0,2.0,95,72.0
1079,D4,158.0,4.0,95,72.0
1080,A3,158.0,4.0,95,72.0
1081,D3,158.0,4.0,95,72.0
1082,D4,158.5,0.25,95,72.0
1083,B3,158.75,0.25,95,72.0
1084,A3,159.0,2.0,95,72.0
1085,F#4,160.0,2.0,95,72.0
1086,D4,160.0,2.0,95,72.0
1087,A3,160.0,2.0,95,72.0
1088,D3,160.0,2.0,95,72.0
1089,F#4,160.0,2.0,95,72.0
1090,D4,160.0,2.0,95,72.0
1091,A3,160.0,2.0,95,72.0
1092,D3,160.0,2.0,95,72.0
1093,B3,161.0,0.25,95,72.0
1094,D4,161.25,0.75,95,72.0
1095,E4,162.0,0.5,95,72.0
1096,E4,162.0,2.0,95,72.0
1097,B3,162.0,2.0,95,72.0
1098,E3,162.0,2.0,95,72.0
1099,B2,162.0,2.0,95,72.0
1100,E2,162.0,2.0,95,72.0
1101,E4,162.0,2.0,95,72.0
1102,B3,162.0,2.0,95,72.0
1103,E3,162.0,2.0,95,72.0
1104,B2,162.0,2.0,95,72.0
1105,E2,162.0,2.0,95,72.0
1106,E4,162.0,4.0,95,72.0
1107,B3,162.0,4.0,95,72.0
1108,E3,162.0,4.0,95,72.0
1109,E4,162.5,0.25,95,72.0
1110,E4,162.75,0.5,95,72.0
1111,E4,163.25,0.5,95,72.0
1112,F#4,163.75,0.25,95,72.0
1113,E4,164.0,1.0,95,72.0
1114,E4,164.0,2.0,95,72.0
1115,B3,164.0,2.0,95,72.0
1116,E3,164.0,2.0,95,72.0
1117,B2,164.0,2.0,95,72.0
1118,E2,164.0,2.0,95,72.0
1119,E4,164.0,2.0,95,72.0
1120,B3,164.0,2.0,95,72.0
1121,E3,164.0,2.0,95,72.0
1122,B2,164.0,2.0,95,72.0
1123,E2,164.0,2.0,95,72.0
1124,D4,165.0,0.5,95,72.0
1125,B3,165.5,0.25,95,72.0
1126,C4,165.75,0.25,95,72.0
1127,D4,166.0,0.5,95,72.0
1128,F#4,166.0,2.0,95,72.0
1129,D4,166.0,2.0,95,72.0
1130,A3,166.0,2.0,95,72.0
1131,D3,166.0,2.0,95,72.0
1132,F#4,166.0,2.0,95,72.0
1133,D4,166.0,2.0,95,72.0
1134,A3,166.0,2.0,95,72.0
1135,D4,166.0,4.0,95,72.0
1136,A3,166.0,4.0,95,72.0
1137,F#3,166.0,4.0,95,72.0
1138,D4,166.5,0.25,95,72.0
1139,B3,166.75,0.25,95,72.0
1140,A3,167.0,3.0,95,72.0
1141,F#4,168.0,2.0,95,72.0
1142,D4,168.0,2.0,95,72.0
1143,A3,168.0,2.0,95,72.0
1144,D3,168.0,2.0,95,72.0
1145,D4,168.25,0.5,95,72.0
1146,A3,168.25,0.5,95,72.0
1147,D3,168.25,0.5,95,72.0
1148,D4,168.25,0.5,95,72.0
1149,A3,168.25,0.5,95,72.0
1150,D3,168.25,0.5,95,72.0
1151,D4,169.0,0.5,95,72.0
1152,A3,169.0,0.5,95,72.0
1153,D3,169.0,0.5,95,72.0
1154,D4,169.0,0.5,95,72.0
1155,A3,169.0,0.5,95,72.0
1156,D3,169.0,0.5,95,72.0
1157,D3,169.5,3/40,95,72.0
1158,D3,169.5,3/40,95,72.0
1159,D4,169.5,0.25,95,72.0
1160,A3,169.5,0.25,95,72.0
1161,D4,169.5,0.25,95,72.0
1162,A3,169.5,0.25,95,72.0
1163,C#4,169.75,3/40,95,72.0
1164,G#3,169.75,3/40,95,72.0
1165,C#4,169.75,3/40,95,72.0
1166,G#3,169.75,3/40,95,72.0
1167,C4,170.0,4.0,95,72.0
1168,G3,170.0,4.0,95,72.0
1169,C3,170.0,4.0,95,72.0
1170,C4,170.0,2.0,95,72.0
1171,G3,170.0,2.0,95,72.0
1172,C3,170.0,2.0,95,72.0
1173,C4,170.0,4.0,95,72.0
1174,G3,170.0,4.0,95,72.0
1175,C3,170.0,4.0,95,72.0
1176,G4,170.5,0.5,95,72.0
1177,C4,170.5,0.5,95,72.0
1178,G4,171.0,0.5,95,72.0
1179,C4,171.0,0.5,95,72.0
1180,F#4,171.5,0.25,95,72.0
1181,B3,171.5,0.25,95,72.0
1182,G4,171.75,1.0,95,72.0
1183,C4,171.75,1.0,95,72.0
1184,C4,172.0,2.0,95,72.0
1185,G3,172.0,2.0,95,72.0
1186,C3,172.0,2.0,95,72.0
1187,G4,172.75,0.5,95,72.0
1188,C4,172.75,0.5,95,72.0
1189,F#4,173.25,0.25,95,72.0
1190,B3,173.25,0.25,95,72.0
1191,E4,173.5,0.5,95,72.0
1192,A3,173.5,0.5,95,72.0
1193,D4,174.0,2.0,95,72.0
1194,A3,174.0,2.0,95,72.0
1195,D3,174.0,2.0,95,72.0
1196,D4,174.0,2.0,95,72.0
1197,A3,174.0,2.0,95,72.0
1198,D3,174.0,2.0,95,72.0
1199,D4,174.0,2.0,95,72.0
1200,A3,174.0,2.0,95,72.0
1201,D3,174.0,2.0,95,72.0
1202,D4,174.5,0.5,95,72.0
1203,F#3,174.5,0.5,95,72.0
1204,D4,175.0,0.5,95,72.0
1205,F#3,175.0,0.5,95,72.0
1206,E4,175.5,0.25,95,72.0
1207,G3,175.5,0.5,95,72.0
1208,F#4,175.75,1.0,95,72.0
1209,A3,176.0,0.75,95,72.0
1210,D4,176.0,1.5,95,72.0
1211,A3,176.0,1.5,95,72.0
1212,D3,176.0,1.5,95,72.0
1213,D4,176.0,2.0,95,72.0
1214,A3,176.0,2.0,95,72.0
1215,D3,176.0,2.0,95,72.0
1216,D4,176.0,1.5,95,72.0
1217,A3,176.0,1.5,95,72.0
1218,D3,176.0,1.5,95,72.0
1219,E4,176.75,0.25,95,72.0
1220,G3,176.75,0.25,95,72.0
1221,F#4,177.0,1.0,95,72.0
1222,A3,177.0,1.0,95,72.0
1223,D4,177.5,3/40,95,72.0
1224,A3,177.5,3/40,95,72.0
1225,D3,177.5,3/40,95,72.0
1226,D4,177.5,3/40,95,72.0
1227,A3,177.5,3/40,95,72.0
1228,D3,177.5,3/40,95,72.0
1229,C#4,177.75,0.25,95,72.0
1230,G#3,177.75,3/40,95,72.0
1231,C#4,177.75,0.25,95,72.0
1232,G#3,177.75,3/40,95,72.0
1233,C4,178.0,4.0,95,72.0
1234,G3,178.0,4.0,95,72.0
1235,C3,178.0,4.0,95,72.0
1236,C4,178.0,2.0,95,72.0
1237,G3,178.0,2.0,95,72.0
1238,C3,178.0,2.0,95,72.0
1239,C4,178.0,4.0,95,72.0
1240,G3,178.0,4.0,95,72.0
1241,C3,178.0,4.0,95,72.0
1242,G4,178.5,0.5,95,72.0
1243,C4,178.5,0.5,95,72.0
1244,G4,179.0,0.5,95,72.0
1245,C4,179.0,0.5,95,72.0
1246,F#4,179.5,0.25,95,72.0
1247,B3,179.5,0.25,95,72.0
1248,G4,179.75,1.0,95,72.0
1249,C4,179.75,1.0,95,72.0
1250,C4,180.0,2.0,95,72.0
1251,G3,180.0,2.0,95,72.0
1252,C3,180.0,2.0,95,72.0
1253,G4,180.75,0.5,95,72.0
1254,C4,180.75,0.5,95,72.0
1255,F#4,181.25,0.25,95,72.0
1256,B3,181.25,0.25,95,72.0
1257,E4,181.5,0.5,95,72.0
1258,A3,181.5,0.5,95,72.0
1259,D4,182.0,4.0,95,72.0
1260,A3,182.0,4.0,95,72.0
1261,D3,182.0,4.0,95,72.0
1262,D4,182.0,2.0,95,72.0
1263,A3,182.0,2.0,95,72.0
1264,D3,182.0,2.0,95,72.0
1265,D4,182.0,4.0,95,72.0
1266,A3,182.0,4.0,95,72.0
1267,D3,182.0,4.0,95,72.0
1268,D4,182.5,0.5,95,72.0
1269,F#3,182.5,0.5,95,72.0
1270,D4,183.0,0.5,95,72.0
1271,F#3,183.0,0.5,95,72.0
1272,E4,183.5,0.25,95,72.0
1273,G3,183.5,0.5,95,72.0
1274,F#4,183.75,1.0,95,72.0
1275,A3,184.0,0.75,95,72.0
1276,D4,184.0,2.0,95,72.0
1277,A3,184.0,2.0,95,72.0
1278,D3,184.0,2.0,95,72.0
1279,E4,184.75,0.25,95,72.0
1280,G3,184.75,0.25,95,72.0
1281,F#4,185.0,1.0,95,72.0
1282,A3,185.0,1.0,95,72.0
1283,F#4,186.0,4.0,95,72.0
1284,A3,186.0,3.0,95,72.0
1285,D4,186.0,4.0,95,72.0
1286,A3,186.0,4.0,95,72.0
1287,D3,186.0,4.0,95,72.0
1288,D4,186.0,4.0,95,72.0
1289,A3,186.0,4.0,95,72.0
1290,D3,186.0,4.0,95,72.0
1291,C4,187.5,0.5,95,72.0
1292,B3,188.0,0.5,95,72.0
1293,A3,188.5,0.5,95,72.0
1294,A3,189.0,0.5,95,72.0
1295,A3,189.5,0.5,95,72.0
1296,G3,190.0,0.25,95,72.0
1297,D4,190.0,2.0,95,72.0
1298,B3,190.0,2.0,95,72.0
1299,G3,190.0,2.0,95,72.0
1300,D3,190.0,2.0,95,72.0
1301,D4,190.25,1.75,95,72.0
1302,B3,190.25,1.75,95,72.0
1303,G3,190.25,1.75,95,72.0
1304,D3,190.25,1.75,95,72.0
1305,B3,190.5,0.25,95,72.0
1306,B3,190.75,0.25,95,72.0
1307,B3,191.0,0.5,95,72.0
1308,D4,191.5,0.25,95,72.0
1309,A3,191.75,1.5,95,72.0
1310,G4,192.0,2.0,95,72.0
1311,D4,192.0,2.0,95,72.0
1312,G3,192.0,2.0,95,72.0
1313,C3,192.0,2.0,95,72.0
1314,G2,192.0,2.0,95,72.0
1315,G4,192.0,2.0,95,72.0
1316,D4,192.0,2.0,95,72.0
1317,G3,192.0,2.0,95,72.0
1318,C3,192.0,2.0,95,72.0
1319,G2,192.0,2.0,95,72.0
1320,G3,193.25,0.5,95,72.0
1321,F#3,193.75,0.25,95,72.0
1322,G3,194.0,0.25,95,72.0
1323,G4,194.0,2.0,95,72.0
1324,D4,194.0,2.0,95,72.0
1325,A3,194.0,2.0,95,72.0
1326,D3,194.0,2.0,95,72.0
1327,G2,194.0,2.0,95,72.0
1328,G4,194.0,2.0,95,72.0
1329,D4,194.0,2.0,95,72.0
1330,A3,194.0,2.0,95,72.0
1331,D3,194.0,2.0,95,72.0
1332,G2,194.0,2.0,95,72.0
1333,A3,194.25,3.75,95,72.0
1334,G4,196.25,0.25,95,72.0
1335,A3,196.25,1.0,95,72.0
1336,D3,196.25,1.0,95,72.0
1337,D4,196.5,0.25,95,72.0
1338,A3,196.75,0.25,95,72.0
1339,G4,197.0,0.25,95,72.0
1340,D4,197.25,0.25,95,72.0
1341,A3,197.25,0.75,95,72.0
1342,D3,197.25,0.75,95,72.0
1343,A3,197.5,0.25,95,72.0
1344,G4,197.75,0.25,95,72.0
1345,D4,197.75,0.25,95,72.0
1346,G4,198.0,4.0,95,72.0
1347,D4,198.0,4.0,95,72.0
1348,A3,198.0,4.0,95,72.0
1349,D3,198.0,4.0,95,72.0
1350,G2,198.0,4.0,95,72.0
1351,D5,198.0,4.0,95,72.0
1352,D4,198.0,4.0,95,72.0
1353,A3,198.0,4.0,95,72.0
1354,D3,198.0,4.0,95,72.0
1355,G2,198.0,4.0,95,72.0
1356,G4,202.0,2.0,95,72.0
1357,D4,202.0,2.0,95,72.0
1358,G3,202.0,2.0,95,72.0
1359,D3,202.0,2.0,95,72.0
1360,B2,202.0,2.0,95,72.0
1361,G2,202.0,2.0,95,72.0
1362,G4,202.0,2.0,95,72.0
1363,D4,202.0,2.0,95,72.0
1364,G3,202.0,2.0,95,72.0
1365,D3,202.0,2.0,95,72.0
1366,B2,202.0,2.0,95,72.0
1367,G2,202.0,2.0,95,72.0
1368,B3,202.5,0.25,95,72.0
1369,B3,202.75,0.5,95,72.0
1370,B3,203.25,0.25,95,72.0
1371,B3,203.5,0.5,95,72.0
1372,B3,204.0,0.25,95,72.0
1373,G4,204.0,2.0,95,72.0
1374,D4,204.0,2.0,95,72.0
1375,G3,204.0,2.0,95,72.0
1376,D3,204.0,2.0,95,72.0
1377,B2,204.0,2.0,95,72.0
1378,G2,204.0,2.0,95,72.0
1379,G4,204.0,2.0,95,72.0
1380,D4,204.0,2.0,95,72.0
1381,G3,204.0,2.0,95,72.0
1382,D3,204.0,2.0,95,72.0
1383,B2,204.0,2.0,95,72.0
1384,G2,204.0,2.0,95,72.0
1385,C4,204.25,0.25,95,72.0
1386,B3,204.5,0.75,95,72.0
1387,A3,205.25,0.25,95,72.0
1388,G3,205.5,0.5,95,72.0
1389,F#4,206.0,2.0,95,72.0
1390,D4,206.0,2.0,95,72.0
1391,B3,206.0,2.0,95,72.0
1392,F#3,206.0,2.0,95,72.0
1393,B2,206.0,2.0,95,72.0
1394,F#4,206.0,2.0,95,72.0
1395,D4,206.0,2.0,95,72.0
1396,B3,206.0,2.0,95,72.0
1397,F#3,206.0,2.0,95,72.0
1398,B2,206.0,2.0,95,72.0
1399,B3,206.5,0.25,95,72.0
1400,B3,206.75,0.25,95,72.0
1401,B3,207.0,0.25,95,72.0
1402,B3,207.25,0.5,95,72.0
1403,B3,207.75,0.25,95,72.0
1404,B3,208.0,0.25,95,72.0
1405,F#4,208.0,2.0,95,72.0
1406,D4,208.0,2.0,95,72.0
1407,B3,208.0,2.0,95,72.0
1408,F#3,208.0,2.0,95,72.0
1409,B2,208.0,2.0,95,72.0
1410,F#4,208.0,0.25,95,72.0
1411,D4,208.0,0.25,95,72.0
1412,B3,208.0,0.25,95,72.0
1413,F#3,208.0,0.25,95,72.0
1414,B2,208.0,0.25,95,72.0
1415,C4,208.25,0.25,95,72.0
1416,D4,208.25,0.25,127,72.0
1417,B3,208.5,0.75,95,72.0
1418,F#4,208.5,0.25,127,72.0
1419,G4,208.75,0.5,127,72.0
1420,A3,209.25,0.25,95,72.0
1421,D5,209.25,0.5,127,72.0
1422,G3,209.5,0.5,95,72.0
1423,F#4,209.75,0.25,127,72.0
1424,E4,210.0,2.0,95,72.0
1425,B3,210.0,2.0,95,72.0
1426,E3,210.0,2.0,95,72.0
1427,B2,210.0,2.0,95,72.0
1428,E2,210.0,2.0,95,72.0
1429,E4,210.0,2.0,95,72.0
1430,B3,210.0,2.0,95,72.0
1431,E3,210.0,2.0,95,72.0
1432,B2,210.0,2.0,95,72.0
1433,E2,210.0,2.0,95,72.0
1434,B3,210.5,0.25,95,72.0
1435,B3,210.75,0.25,95,72.0
1436,B3,211.0,0.25,95,72.0
1437,B3,211.25,0.5,95,72.0
1438,B3,211.75,0.25,95,72.0
1439,B3,212.0,0.25,95,72.0
1440,E4,212.0,2.0,95,72.0
1441,B3,212.0,2.0,95,72.0
1442,E3,212.0,2.0,95,72.0
1443,B2,212.0,2.0,95,72.0
1444,E2,212.0,2.0,95,72.0
1445,E4,212.0,2.0,95,72.0
1446,B3,212.0,2.0,95,72.0
1447,E3,212.0,2.0,95,72.0
1448,B2,212.0,2.0,95,72.0
1449,E2,212.0,2.0,95,72.0
1450,C4,212.25,0.25,95,72.0
1451,B3,212.5,0.75,95,72.0
1452,A3,213.25,0.25,95,72.0
1453,G3,213.5,0.5,95,72.0
1454,A3,214.0,3.5,95,72.0
1455,F#4,214.0,2.0,95,72.0
1456,D4,214.0,2.0,95,72.0
1457,A3,214.0,2.0,95,72.0
1458,D3,214.0,2.0,95,72.0
1459,F#4,214.0,2.0,95,72.0
1460,D4,214.0,2.0,95,72.0
1461,A3,214.0,2.0,95,72.0
1462,D3,214.0,2.0,95,72.0
1463,F#4,216.0,2.0,95,72.0
1464,D4,216.0,2.0,95,72.0
1465,A3,216.0,2.0,95,72.0
1466,D3,216.0,2.0,95,72.0
1467,F#4,216.0,2.0,95,72.0
1468,D4,216.0,2.0,95,72.0
1469,A3,216.0,2.0,95,72.0
1470,D3,216.0,2.0,95,72.0
1471,A3,217.5,0.25,95,72.0
1472,B3,217.75,0.25,95,72.0
1473,C4,218.0,0.5,95,72.0
1474,E4,218.0,2.0,95,72.0
1475,C4,218.0,2.0,95,72.0
1476,G3,218.0,2.0,95,72.0
1477,E3,218.0,2.0,95,72.0
1478,C3,218.0,2.0,95,72.0
1479,G2,218.0,2.0,95,72.0
1480,E4,218.0,2.0,95,72.0
1481,C4,218.0,2.0,95,72.0
1482,G3,218.0,2.0,95,72.0
1483,E3,218.0,2.0,95,72.0
1484,C3,218.0,2.0,95,72.0
1485,G2,218.0,2.0,95,72.0
1486,C4,218.5,0.25,95,72.0
1487,C4,218.75,0.5,95,72.0
1488,C4,219.25,0.25,95,72.0
1489,C4,219.5,0.5,95,72.0
1490,D4,220.0,0.25,95,72.0
1491,F#4,220.0,2.0,95,72.0
1492,D4,220.0,2.0,95,72.0
1493,A3,220.0,2.0,95,72.0
1494,D3,220.0,2.0,95,72.0
1495,F#4,220.0,2.0,95,72.0
1496,D4,220.0,2.0,95,72.0
1497,A3,220.0,2.0,95,72.0
1498,D3,220.0,2.0,95,72.0
1499,D4,220.25,0.25,95,72.0
1500,D4,220.5,0.5,95,72.0
1501,C4,221.0,0.5,95,72.0
1502,B3,221.5,0.5,95,72.0
1503,E4,222.0,2.0,95,72.0
1504,C4,222.0,2.0,95,72.0
1505,G3,222.0,2.0,95,72.0
1506,E3,222.0,2.0,95,72.0
1507,C3,222.0,2.0,95,72.0
1508,G2,222.0,2.0,95,72.0
1509,E4,222.0,2.0,95,72.0
1510,C4,222.0,2.0,95,72.0
1511,G3,222.0,2.0,95,72.0
1512,E3,222.0,2.0,95,72.0
1513,C3,222.0,2.0,95,72.0
1514,G2,222.0,2.0,95,72.0
1515,C4,222.5,0.25,95,72.0
1516,C4,222.75,0.25,95,72.0
1517,C4,223.0,0.25,95,72.0
1518,C4,223.25,0.5,95,72.0
1519,C4,223.75,0.5,95,72.0
1520,F#4,224.0,2.0,95,72.0
1521,D4,224.0,2.0,95,72.0
1522,A3,224.0,2.0,95,72.0
1523,D3,224.0,2.0,95,72.0
1524,F#4,224.0,2.0,95,72.0
1525,D4,224.0,2.0,95,72.0
1526,A3,224.0,2.0,95,72.0
1527,D3,224.0,2.0,95,72.0
1528,D4,224.25,0.25,95,72.0
1529,D4,224.5,0.25,95,72.0
1530,D4,224.75,0.5,95,72.0
1531,C4,225.25,0.5,95,72.0
1532,B3,225.75,0.25,95,72.0
1533,E4,226.0,2.0,95,72.0
1534,C4,226.0,2.0,95,72.0
1535,A3,226.0,2.0,95,72.0
1536,E3,226.0,2.0,95,72.0
1537,A2,226.0,2.0,95,72.0
1538,E4,226.0,2.0,95,72.0
1539,C4,226.0,2.0,95,72.0
1540,A3,226.0,2.0,95,72.0
1541,E3,226.0,2.0,95,72.0
1542,A2,226.0,2.0,95,72.0
1543,A3,226.5,0.25,95,72.0
1544,A3,226.75,0.5,95,72.0
1545,A3,227.25,0.5,95,72.0
1546,B3,227.75,0.25,95,72.0
1547,A3,228.0,0.5,95,72.0
1548,F#4,228.0,2.0,95,72.0
1549,D4,228.0,2.0,95,72.0
1550,A3,228.0,2.0,95,72.0
1551,D3,228.0,2.0,95,72.0
1552,F#4,228.0,2.0,95,72.0
1553,D4,228.0,2.0,95,72.0
1554,A3,228.0,2.0,95,72.0
1555,D3,228.0,2.0,95,72.0
1556,B3,228.5,1.0,95,72.0
1557,G3,229.5,0.25,95,72.0
1558,F#3,229.75,0.25,95,72.0
1559,G3,230.0,4.0,95,72.0
1560,G4,230.0,2.0,95,72.0
1561,D4,230.0,2.0,95,72.0
1562,G3,230.0,2.0,95,72.0
1563,D3,230.0,2.0,95,72.0
1564,B2,230.0,2.0,95,72.0
1565,G2,230.0,2.0,95,72.0
1566,G4,230.0,2.0,95,72.0
1567,D4,230.0,2.0,95,72.0
1568,G3,230.0,2.0,95,72.0
1569,D3,230.0,2.0,95,72.0
1570,B2,230.0,2.0,95,72.0
1571,G2,230.0,2.0,95,72.0
1572,G4,232.0,2.0,95,72.0
1573,D4,232.0,2.0,95,72.0
1574,G3,232.0,2.0,95,72.0
1575,D3,232.0,2.0,95,72.0
1576,B2,232.0,2.0,95,72.0
1577,G2,232.0,2.0,95,72.0
1578,G3,232.0,0.25,95,72.0
1579,G2,232.0,0.25,95,72.0
1580,G5,232.25,0.5,95,72.0
1581,G4,232.25,0.5,95,72.0
1582,D4,232.75,0.25,95,72.0
1583,D3,232.75,0.25,95,72.0
1584,G5,233.0,0.5,95,72.0
1585,G4,233.0,0.5,95,72.0
1586,A5,233.5,0.25,95,72.0
1587,A4,233.5,0.25,95,72.0
1588,B5,233.75,0.25,95,72.0
1589,B4,233.75,0.25,95,72.0
1590,G4,234.0,2.0,95,72.0
1591,D4,234.0,2.0,95,72.0
1592,G3,234.0,2.0,95,72.0
1593,D3,234.0,2.0,95,72.0
1594,B2,234.0,2.0,95,72.0
1595,G2,234.0,2.0,95,72.0
1596,G4,234.0,2.0,95,72.0
1597,D4,234.0,2.0,95,72.0
1598,G3,234.0,2.0,95,72.0
1599,D3,234.0,2.0,95,72.0
1600,B2,234.0,2.0,95,72.0
1601,G2,234.0,2.0,95,72.0
1602,B3,234.5,0.25,95,72.0
1603,B3,234.75,0.5,95,72.0
1604,B3,235.25,0.25,95,72.0
1605,B3,235.5,0.5,95,72.0
1606,B3,236.0,0.25,95,72.0
1607,G4,236.0,2.0,95,72.0
1608,D4,236.0,2.0,95,72.0
1609,G3,236.0,2.0,95,72.0
1610,D3,236.0,2.0,95,72.0
1611,B2,236.0,2.0,95,72.0
1612,G2,236.0,2.0,95,72.0
1613,G4,236.0,2.0,95,72.0
1614,D4,236.0,2.0,95,72.0
1615,G3,236.0,2.0,95,72.0
1616,D3,236.0,2.0,95,72.0
1617,B2,236.0,2.0,95,72.0
1618,G2,236.0,2.0,95,72.0
1619,C4,236.25,0.25,95,72.0
1620,B3,236.5,0.75,95,72.0
1621,A3,237.25,0.25,95,72.0
1622,G3,237.5,0.5,95,72.0
1623,F#4,238.0,2.0,95,72.0
1624,D4,238.0,2.0,95,72.0
1625,B3,238.0,2.0,95,72.0
1626,F#3,238.0,2.0,95,72.0
1627,B2,238.0,2.0,95,72.0
1628,F#4,238.0,2.0,95,72.0
1629,D4,238.0,2.0,95,72.0
1630,B3,238.0,2.0,95,72.0
1631,F#3,238.0,2.0,95,72.0
1632,B2,238.0,2.0,95,72.0
1633,B3,238.5,0.25,95,72.0
1634,B3,238.75,0.25,95,72.0
1635,B3,239.0,0.25,95,72.0
1636,B3,239.25,0.5,95,72.0
1637,B3,239.75,0.25,95,72.0
1638,B3,240.0,0.25,95,72.0
1639,F#4,240.0,2.0,95,72.0
1640,D4,240.0,2.0,95,72.0
1641,B3,240.0,2.0,95,72.0
1642,F#3,240.0,2.0,95,72.0
1643,B2,240.0,2.0,95,72.0
1644,F#4,240.0,2.0,95,72.0
1645,D4,240.0,2.0,95,72.0
1646,B3,240.0,2.0,95,72.0
1647,F#3,240.0,2.0,95,72.0
1648,B2,240.0,2.0,95,72.0
1649,C4,240.25,0.25,95,72.0
1650,B3,240.5,0.75,95,72.0
1651,A3,241.25,0.25,95,72.0
1652,G3,241.5,0.5,95,72.0
1653,E4,242.0,2.0,95,72.0
1654,B3,242.0,2.0,95,72.0
1655,E3,242.0,2.0,95,72.0
1656,B2,242.0,2.0,95,72.0
1657,E2,242.0,2.0,95,72.0
1658,E4,242.0,2.0,95,72.0
1659,B3,242.0,2.0,95,72.0
1660,E3,242.0,2.0,95,72.0
1661,B2,242.0,2.0,95,72.0
1662,E2,242.0,2.0,95,72.0
1663,B3,242.5,0.25,95,72.0
1664,B3,242.75,0.25,95,72.0
1665,B3,243.0,0.25,95,72.0
1666,B3,243.25,0.5,95,72.0
1667,B3,243.75,0.25,95,72.0
1668,B3,244.0,0.25,95,72.0
1669,E4,244.0,2.0,95,72.0
1670,B3,244.0,2.0,95,72.0
1671,E3,244.0,2.0,95,72.0
1672,B2,244.0,2.0,95,72.0
1673,E2,244.0,2.0,95,72.0
1674,E4,244.0,2.0,95,72.0
1675,B3,244.0,2.0,95,72.0
1676,E3,244.0,2.0,95,72.0
1677,B2,244.0,2.0,95,72.0
1678,E2,244.0,2.0,95,72.0
1679,C4,244.25,0.25,95,72.0
1680,B3,244.5,0.75,95,72.0
1681,A3,245.25,0.25,95,72.0
1682,G3,245.5,0.5,95,72.0
1683,A3,246.0,3.5,95,72.0
1684,F#4,246.0,2.0,95,72.0
1685,D4,246.0,2.0,95,72.0
1686,A3,246.0,2.0,95,72.0
1687,D3,246.0,2.0,95,72.0
1688,F#4,246.0,2.0,95,72.0
1689,D4,246.0,2.0,95,72.0
1690,A3,246.0,2.0,95,72.0
1691,D3,246.0,2.0,95,72.0
1692,F#4,248.0,2.0,95,72.0
1693,D4,248.0,2.0,95,72.0
1694,A3,248.0,2.0,95,72.0
1695,D3,248.0,2.0,95,72.0
1696,F#4,248.0,2.0,95,72.0
1697,D4,248.0,2.0,95,72.0
1698,A3,248.0,2.0,95,72.0
1699,D3,248.0,2.0,95,72.0
1700,A3,249.5,0.25,95,72.0
1701,B3,249.75,0.25,95,72.0
1702,C4,250.0,0.5,95,72.0
1703,E4,250.0,2.0,95,72.0
1704,C4,250.0,2.0,95,72.0
1705,G3,250.0,2.0,95,72.0
1706,E3,250.0,2.0,95,72.0
1707,C3,250.0,2.0,95,72.0
1708,G2,250.0,2.0,95,72.0
1709,E4,250.0,2.0,95,72.0
1710,C4,250.0,2.0,95,72.0
1711,G3,250.0,2.0,95,72.0
1712,E3,250.0,2.0,95,72.0
1713,C3,250.0,2.0,95,72.0
1714,G2,250.0,2.0,95,72.0
1715,C4,250.5,0.25,95,72.0
1716,C4,250.75,0.5,95,72.0
1717,C4,251.25,0.25,95,72.0
1718,C4,251.5,0.5,95,72.0
1719,D4,252.0,0.25,95,72.0
1720,F#4,252.0,2.0,95,72.0
1721,D4,252.0,2.0,95,72.0
1722,A3,252.0,2.0,95,72.0
1723,D3,252.0,2.0,95,72.0
1724,F#4,252.0,2.0,95,72.0
1725,D4,252.0,2.0,95,72.0
1726,A3,252.0,2.0,95,72.0
1727,D3,252.0,2.0,95,72.0
1728,D4,252.25,0.25,95,72.0
1729,D4,252.5,0.5,95,72.0
1730,C4,253.0,0.5,95,72.0
1731,B3,253.5,0.5,95,72.0
1732,E4,254.0,2.0,95,72.0
1733,C4,254.0,2.0,95,72.0
1734,G3,254.0,2.0,95,72.0
1735,E3,254.0,2.0,95,72.0
1736,C3,254.0,2.0,95,72.0
1737,G2,254.0,2.0,95,72.0
1738,E4,254.0,2.0,95,72.0
1739,C4,254.0,2.0,95,72.0
1740,G3,254.0,2.0,95,72.0
1741,E3,254.0,2.0,95,72.0
1742,C3,254.0,2.0,95,72.0
1743,G2,254.0,2.0,95,72.0
1744,C4,254.5,0.25,95,72.0
1745,C4,254.75,0.25,95,72.0
1746,C4,255.0,0.25,95,72.0
1747,C4,255.25,0.5,95,72.0
1748,C4,255.75,0.5,95,72.0
1749,F#4,256.0,2.0,95,72.0
1750,D4,256.0,2.0,95,72.0
1751,A3,256.0,2.0,95,72.0
1752,D3,256.0,2.0,95,72.0
1753,F#4,256.0,2.0,95,72.0
1754,D4,256.0,2.0,95,72.0
1755,A3,256.0,2.0,95,72.0
1756,D3,256.0,2.0,95,72.0
1757,D4,256.25,0.25,95,72.0
1758,D4,256.5,0.25,95,72.0
1759,D4,256.75,0.5,95,72.0
1760,C4,257.25,0.5,95,72.0
1761,B3,257.75,0.25,95,72.0
1762,E4,258.0,2.0,95,72.0
1763,C4,258.0,2.0,95,72.0
1764,A3,258.0,2.0,95,72.0
1765,E3,258.0,2.0,95,72.0
1766,A2,258.0,2.0,95,72.0
1767,E4,258.0,2.0,95,72.0
1768,C4,258.0,2.0,95,72.0
1769,A3,258.0,2.0,95,72.0
1770,E3,258.0,2.0,95,72.0
1771,A2,258.0,2.0,95,72.0
1772,A3,258.5,0.25,95,72.0
1773,C4,258.5,0.25,95,72.0
1774,A3,258.75,0.5,95,72.0
1775,C4,258.75,0.5,95,72.0
1776,A3,259.25,0.5,95,72.0
1777,C4,259.25,0.5,95,72.0
1778,B3,259.75,0.25,95,72.0
1779,D4,259.75,0.25,95,72.0
1780,A3,260.0,0.5,95,72.0
1781,C4,260.0,0.5,95,72.0
1782,F#4,260.0,2.0,95,72.0
1783,D4,260.0,2.0,95,72.0
1784,A3,260.0,2.0,95,72.0
1785,D3,260.0,2.0,95,72.0
1786,F#4,260.0,2.0,95,72.0
1787,D4,260.0,2.0,95,72.0
1788,A3,260.0,2.0,95,72.0
1789,D3,260.0,2.0,95,72.0
1790,B3,260.5,1.0,95,72.0
1791,C4,260.5,0.25,95,72.0
1792,B3,260.75,0.25,95,72.0
1793,A3,261.0,0.25,95,72.0
1794,A3,261.25,0.25,95,72.0
1795,G3,261.5,0.25,95,72.0
1796,A3,261.5,0.25,95,72.0
1797,F#3,261.75,0.25,95,72.0
1798,A3,261.75,0.25,95,72.0
1799,G3,262.0,4.0,95,72.0
1800,B3,262.0,4.0,95,72.0
1801,G4,262.0,2.0,95,72.0
1802,D4,262.0,2.0,95,72.0
1803,G3,262.0,2.0,95,72.0
1804,D3,262.0,2.0,95,72.0
1805,B2,262.0,2.0,95,72.0
1806,G2,262.0,2.0,95,72.0
1807,G4,262.0,2.0,95,72.0
1808,D4,262.0,2.0,95,72.0
1809,G3,262.0,2.0,95,72.0
1810,D3,262.0,2.0,95,72.0
1811,B2,262.0,2.0,95,72.0
1812,G2,262.0,2.0,95,72.0
1813,G4,264.0,2.0,95,72.0
1814,D4,264.0,2.0,95,72.0
1815,G3,264.0,2.0,95,72.0
1816,D3,264.0,2.0,95,72.0
1817,B2,264.0,2.0,95,72.0
1818,G2,264.0,2.0,95,72.0
1819,G4,264.0,2.0,95,72.0
1820,D4,264.0,2.0,95,72.0
1821,G3,264.0,2.0,95,72.0
1822,D3,264.0,2.0,95,72.0
1823,B2,264.0,2.0,95,72.0
1824,G2,264.0,2.0,95,72.0
1825,E4,266.0,2.0,95,72.0
1826,C4,266.0,2.0,95,72.0
1827,A3,266.0,2.0,95,72.0
1828,E3,266.0,2.0,95,72.0
1829,A2,266.0,2.0,95,72.0
1830,E4,266.0,2.0,95,72.0
1831,C4,266.0,2.0,95,72.0
1832,A3,266.0,2.0,95,72.0
1833,E3,266.0,2.0,95,72.0
1834,A2,266.0,2.0,95,72.0
1835,A3,266.5,0.25,95,72.0
1836,C4,266.5,0.25,95,72.0
1837,A3,266.75,0.5,95,72.0
1838,C4,266.75,0.5,95,72.0
1839,A3,267.25,0.5,95,72.0
1840,C4,267.25,0.5,95,72.0
1841,B3,267.75,0.25,95,72.0
1842,D4,267.75,0.25,95,72.0
1843,A3,268.0,0.5,95,72.0
1844,C4,268.0,0.5,95,72.0
1845,F#4,268.0,2.0,95,72.0
1846,D4,268.0,2.0,95,72.0
1847,A3,268.0,2.0,95,72.0
1848,D3,268.0,2.0,95,72.0
1849,F#4,268.0,2.0,95,72.0
1850,D4,268.0,2.0,95,72.0
1851,A3,268.0,2.0,95,72.0
1852,D3,268.0,2.0,95,72.0
1853,B3,268.5,1.0,95,72.0
1854,C4,268.5,0.25,95,72.0
1855,B3,268.75,0.25,95,72.0
1856,A3,269.0,0.25,95,72.0
1857,A3,269.25,0.25,95,72.0
1858,G3,269.5,0.25,95,72.0
1859,A3,269.5,0.25,95,72.0
1860,F#3,269.75,0.25,95,72.0
1861,A3,269.75,0.25,95,72.0
1862,G3,270.0,4.0,95,72.0
1863,B3,270.0,4.0,95,72.0
1864,G4,270.0,2.0,95,72.0
1865,D4,270.0,2.0,95,72.0
1866,G3,270.0,2.0,95,72.0
1867,D3,270.0,2.0,95,72.0
1868,B2,270.0,2.0,95,72.0
1869,G2,270.0,2.0,95,72.0
1870,G4,270.0,2.0,95,72.0
1871,D4,270.0,2.0,95,72.0
1872,G3,270.0,2.0,95,72.0
1873,D3,270.0,2.0,95,72.0
1874,B2,270.0,2.0,95,72.0
1875,G2,270.0,2.0,95,72.0
1876,G4,272.0,2.0,95,72.0
1877,D4,272.0,2.0,95,72.0
1878,G3,272.0,2.0,95,72.0
1879,D3,272.0,2.0,95,72.0
1880,B2,272.0,2.0,95,72.0
1881,G2,272.0,2.0,95,72.0
1882,G4,272.0,2.0,95,72.0
1883,D4,272.0,2.0,95,72.0
1884,G3,272.0,2.0,95,72.0
1885,D3,272.0,2.0,95,72.0
1886,B2,272.0,2.0,95,72.0
1887,G2,272.0,2.0,95,72.0
1888,E4,274.0,2.0,95,72.0
1889,C4,274.0,2.0,95,72.0
1890,A3,274.0,2.0,95,72.0
1891,E3,274.0,2.0,95,72.0
1892,A2,274.0,2.0,95,72.0
1893,E4,274.0,2.0,95,72.0
1894,C4,274.0,2.0,95,72.0
1895,A3,274.0,2.0,95,72.0
1896,E3,274.0,2.0,95,72.0
1897,A2,274.0,2.0,95,72.0
1898,A3,274.5,0.25,95,72.0
1899,C4,274.5,0.25,95,72.0
1900,A3,274.75,0.5,95,72.0
1901,C4,274.75,0.5,95,72.0
1902,A3,275.25,0.5,95,72.0
1903,C4,275.25,0.5,95,72.0
1904,B3,275.75,0.25,95,72.0
1905,D4,275.75,0.25,95,72.0
1906,A3,276.0,0.5,95,72.0
1907,C4,276.0,0.5,95,72.0
1908,F#4,276.0,2.0,95,72.0
1909,D4,276.0,2.0,95,72.0
1910,A3,276.0,2.0,95,72.0
1911,D3,276.0,2.0,95,72.0
1912,F#4,276.0,2.0,95,72.0
1913,D4,276.0,2.0,95,72.0
1914,A3,276.0,2.0,95,72.0
1915,D3,276.0,2.0,95,72.0
1916,B3,276.5,1.0,95,72.0
1917,C4,276.5,0.25,95,72.0
1918,B3,276.75,0.25,95,72.0
1919,A3,277.0,0.25,95,72.0
1920,A3,277.25,0.25,95,72.0
1921,G3,277.5,0.25,95,72.0
1922,A3,277.5,0.25,95,72.0
1923,F#3,277.75,0.25,95,72.0
1924,A3,277.75,0.25,95,72.0
1925,G3,278.0,4.0,95,72.0
1926,B3,278.0,4.0,95,72.0
1927,G4,278.0,2.0,95,72.0
1928,D4,278.0,2.0,95,72.0
1929,G3,278.0,2.0,95,72.0
1930,D3,278.0,2.0,95,72.0
1931,B2,278.0,2.0,95,72.0
1932,G2,278.0,2.0,95,72.0
1933,G4,278.0,2.0,95,72.0
1934,D4,278.0,2.0,95,72.0
1935,G3,278.0,2.0,95,72.0
1936,D3,278.0,2.0,95,72.0
1937,B2,278.0,2.0,95,72.0
1938,G2,278.0,2.0,95,72.0
1939,G4,280.0,2.0,95,72.0
1940,D4,280.0,2.0,95,72.0
1941,G3,280.0,2.0,95,72.0
1942,D3,280.0,2.0,95,72.0
1943,B2,280.0,2.0,95,72.0
1944,G2,280.0,2.0,95,72.0
1945,G4,280.0,2.0,95,72.0
1946,D4,280.0,2.0,95,72.0
1947,G3,280.0,2.0,95,72.0
1948,D3,280.0,2.0,95,72.0
1949,B2,280.0,2.0,95,72.0
1950,G2,280.0,2.0,95,72.0
1951,E4,282.0,2.0,95,72.0
1952,C4,282.0,2.0,95,72.0
1953,A3,282.0,2.0,95,72.0
1954,E3,282.0,2.0,95,72.0
1955,A2,282.0,2.0,95,72.0
1956,E4,282.0,2.0,95,72.0
1957,C4,282.0,2.0,95,72.0
1958,A3,282.0,2.0,95,72.0
1959,E3,282.0,2.0,95,72.0
1960,A2,282.0,2.0,95,72.0
1961,A3,282.5,0.25,95,72.0
1962,C4,282.5,0.25,95,72.0
1963,A3,282.75,0.5,95,72.0
1964,C4,282.75,0.5,95,72.0
1965,A3,283.25,0.5,95,72.0
1966,C4,283.25,0.5,95,72.0
1967,B3,283.75,0.25,95,72.0
1968,D4,283.75,0.25,95,72.0
1969,A3,284.0,0.5,95,72.0
1970,C4,284.0,0.5,95,72.0
1971,F#4,284.0,2.0,95,72.0
1972,D4,284.0,2.0,95,72.0
1973,A3,284.0,2.0,95,72.0
1974,D3,284.0,2.0,95,72.0
1975,F#4,284.0,2.0,95,72.0
1976,D4,284.0,2.0,95,72.0
1977,A3,284.0,2.0,95,72.0
1978,D3,284.0,2.0,95,72.0
1979,B3,284.5,1.0,95,72.0
1980,C4,284.5,0.25,95,72.0
1981,B3,284.75,0.25,95,72.0
1982,A3,285.0,0.25,95,72.0
1983,A3,285.25,0.25,95,72.0
1984,G3,285.5,0.25,95,72.0
1985,A3,285.5,0.25,95,72.0
1986,F#3,285.75,0.25,95,72.0
1987,A3,285.75,0.25,95,72.0
1988,G3,286.0,4.0,95,72.0
1989,B3,286.0,4.0,95,72.0
1990,G4,286.0,2.0,95,72.0
1991,D4,286.0,2.0,95,72.0
1992,G3,286.0,2.0,95,72.0
1993,D3,286.0,2.0,95,72.0
1994,B2,286.0,2.0,95,72.0
1995,G2,286.0,2.0,95,72.0
1996,G4,286.0,2.0,95,72.0
1997,D4,286.0,2.0,95,72.0
1998,G3,286.0,2.0,95,72.0
1999,D3,286.0,2.0,95,72.0
2000,B2,286.0,2.0,95,72.0
2001,G2,286.0,2.0,95,72.0
2002,G4,288.0,2.0,95,72.0
2003,D4,288.0,2.0,95,72.0
2004,G3,288.0,2.0,95,72.0
2005,D3,288.0,2.0,95,72.0
2006,B2,288.0,2.0,95,72.0
2007,G2,288.0,2.0,95,72.0
2008,G4,288.0,2.0,95,72.0
2009,D4,288.0,2.0,95,72.0
2010,G3,288.0,2.0,95,72.0
2011,D3,288.0,2.0,95,72.0
2012,B2,288.0,2.0,95,72.0
2013,G2,288.0,2.0,95,72.0
2014,G4,290.0,2.0,95,72.0
2015,D4,290.0,2.0,95,72.0
2016,G3,290.0,2.0,95,72.0
2017,D3,290.0,2.0,95,72.0
2018,B2,290.0,2.0,95,72.0
2019,G2,290.0,2.0,95,72.0
2020,D5,290.0,2.0,95,72.0
2021,D4,290.0,2.0,95,72.0
2022,G3,290.0,2.0,95,72.0
2023,D3,290.0,2.0,95,72.0
2024,B2,290.0,2.0,95,72.0
2025,G2,290.0,2.0,95,72.0
