,note_name,start_time,duration,velocity,tempo
0,D4,3.5,83/1000,63,100.0
1,D2,3.5,83/1000,63,100.0
2,E-4,3.583,83/1000,38,100.0
3,E-2,3.583,83/1000,38,100.0
4,E4,3.667,83/1000,63,100.0
5,E2,3.667,83/1000,38,100.0
6,D4,3.75,83/1000,63,100.0
7,D2,3.75,83/1000,63,100.0
8,C4,3.833,83/1000,38,100.0
9,C2,3.833,83/1000,63,100.0
10,A3,3.917,83/1000,63,100.0
11,A1,3.917,83/1000,63,100.0
12,G3,4.0,0.5,63,100.0
13,G1,4.0,0.5,63,100.0
14,C2,4.0,1.0,95,100.0
15,A3,4.5,0.5,63,100.0
16,A1,4.5,0.5,63,100.0
17,E2,5.0,1.0,95,100.0
18,D2,5.5,2.0,63,100.0
19,F#4,5.5,2.0,63,100.0
20,D4,5.5,2.0,63,100.0
21,A3,5.5,2.0,63,100.0
22,A4,5.5,0.125,63,100.0
23,D4,5.5,0.125,63,100.0
24,B4,5.625,0.125,15,100.0
25,E4,5.625,0.125,15,100.0
26,A4,5.75,0.125,42,100.0
27,D4,5.75,0.125,42,100.0
28,B4,5.875,0.125,15,100.0
29,E4,5.875,0.125,15,100.0
30,C2,6.0,0.25,95,100.0
31,A4,6.0,0.125,42,100.0
32,D4,6.0,0.125,42,100.0
33,B4,6.125,0.125,15,100.0
34,E4,6.125,0.125,15,100.0
35,C2,6.25,0.25,95,100.0
36,A4,6.25,0.125,42,100.0
37,D4,6.25,0.125,42,100.0
38,B4,6.375,0.125,15,100.0
39,E4,6.375,0.125,15,100.0
40,A4,6.5,0.125,42,100.0
41,D4,6.5,0.125,42,100.0
42,B4,6.625,0.125,15,100.0
43,E4,6.625,0.125,15,100.0
44,A4,6.75,0.125,42,100.0
45,D4,6.75,0.125,42,100.0
46,B4,6.875,0.125,15,100.0
47,E4,6.875,0.125,15,100.0
48,E2,7.0,1.0,95,100.0
49,A4,7.0,0.125,42,100.0
50,D4,7.0,0.125,42,100.0
51,B4,7.125,0.125,15,100.0
52,E4,7.125,0.125,15,100.0
53,A4,7.25,0.125,42,100.0
54,D4,7.25,0.125,42,100.0
55,B4,7.375,0.125,15,100.0
56,E4,7.375,0.125,15,100.0
57,D4,7.5,83/1000,63,100.0
58,D2,7.5,83/1000,63,100.0
59,A4,7.5,0.125,42,100.0
60,D4,7.5,0.125,42,100.0
61,E-4,7.583,83/1000,38,100.0
62,E-2,7.583,83/1000,38,100.0
63,B4,7.625,0.125,15,100.0
64,E4,7.625,0.125,15,100.0
65,E4,7.667,83/1000,63,100.0
66,E2,7.667,83/1000,38,100.0
67,D4,7.75,83/1000,63,100.0
68,D2,7.75,83/1000,63,100.0
69,A4,7.75,0.125,42,100.0
70,D4,7.75,0.125,42,100.0
71,C4,7.833,83/1000,38,100.0
72,C2,7.833,83/1000,63,100.0
73,B4,7.875,0.125,15,100.0
74,E4,7.875,0.125,15,100.0
75,A3,7.917,83/1000,63,100.0
76,A1,7.917,83/1000,63,100.0
77,G3,8.0,0.5,63,100.0
78,G1,8.0,0.5,63,100.0
79,C2,8.0,0.5,95,100.0
80,A3,8.5,0.5,63,100.0
81,A1,8.5,0.5,63,100.0
82,C2,8.5,0.5,95,100.0
83,E2,9.0,0.5,95,100.0
84,C2,9.5,2.0,63,100.0
85,E4,9.5,2.0,63,100.0
86,C4,9.5,2.0,63,100.0
87,G3,9.5,2.0,63,100.0
88,A4,9.5,0.125,63,100.0
89,D4,9.5,0.125,63,100.0
90,B4,9.625,0.125,15,100.0
91,E4,9.625,0.125,15,100.0
92,A4,9.75,0.125,42,100.0
93,D4,9.75,0.125,42,100.0
94,B4,9.875,0.125,15,100.0
95,E4,9.875,0.125,15,100.0
96,C2,10.0,0.25,95,100.0
97,A4,10.0,0.125,42,100.0
98,D4,10.0,0.125,42,100.0
99,B4,10.125,0.125,15,100.0
100,E4,10.125,0.125,15,100.0
101,C2,10.25,0.25,95,100.0
102,A4,10.25,0.125,42,100.0
103,D4,10.25,0.125,42,100.0
104,B4,10.375,0.125,15,100.0
105,E4,10.375,0.125,15,100.0
106,A4,10.5,0.125,42,100.0
107,D4,10.5,0.125,42,100.0
108,B4,10.625,0.125,15,100.0
109,E4,10.625,0.125,15,100.0
110,A4,10.75,0.125,42,100.0
111,D4,10.75,0.125,42,100.0
112,B4,10.875,0.125,15,100.0
113,E4,10.875,0.125,15,100.0
114,E2,11.0,1.0,95,100.0
115,A4,11.0,0.125,42,100.0
116,D4,11.0,0.125,42,100.0
117,B4,11.125,0.125,15,100.0
118,E4,11.125,0.125,15,100.0
119,A4,11.25,0.125,42,100.0
120,D4,11.25,0.125,42,100.0
121,B4,11.375,0.125,15,100.0
122,E4,11.375,0.125,15,100.0
123,D4,11.5,83/1000,63,100.0
124,D2,11.5,83/1000,63,100.0
125,A4,11.5,0.125,42,100.0
126,D4,11.5,0.125,42,100.0
127,E-4,11.583,83/1000,38,100.0
128,E-2,11.583,83/1000,38,100.0
129,B4,11.625,0.125,15,100.0
130,E4,11.625,0.125,15,100.0
131,E4,11.667,83/1000,63,100.0
132,E2,11.667,83/1000,38,100.0
133,D4,11.75,83/1000,63,100.0
134,D2,11.75,83/1000,63,100.0
135,A4,11.75,0.125,42,100.0
136,D4,11.75,0.125,42,100.0
137,C4,11.833,83/1000,38,100.0
138,C2,11.833,83/1000,63,100.0
139,B4,11.875,0.125,15,100.0
140,E4,11.875,0.125,15,100.0
141,A3,11.917,83/1000,63,100.0
142,A1,11.917,83/1000,63,100.0
143,G3,12.0,0.5,63,100.0
144,G1,12.0,0.5,63,100.0
145,C2,12.0,0.5,95,100.0
146,A3,12.5,0.5,63,100.0
147,A1,12.5,0.5,63,100.0
148,C2,12.5,0.5,95,100.0
149,E2,13.0,1.0,95,100.0
150,D2,13.5,2.0,63,100.0
151,F#4,13.5,2.0,63,100.0
152,D4,13.5,2.0,63,100.0
153,A3,13.5,2.0,63,100.0
154,A4,13.5,0.125,63,100.0
155,D4,13.5,0.125,63,100.0
156,B4,13.625,0.125,15,100.0
157,E4,13.625,0.125,15,100.0
158,A4,13.75,0.125,42,100.0
159,D4,13.75,0.125,42,100.0
160,B4,13.875,0.125,15,100.0
161,E4,13.875,0.125,15,100.0
162,C2,14.0,0.25,95,100.0
163,A4,14.0,0.125,42,100.0
164,D4,14.0,0.125,42,100.0
165,B4,14.125,0.125,15,100.0
166,E4,14.125,0.125,15,100.0
167,C2,14.25,0.25,95,100.0
168,A4,14.25,0.125,42,100.0
169,D4,14.25,0.125,42,100.0
170,B4,14.375,0.125,15,100.0
171,E4,14.375,0.125,15,100.0
172,A4,14.5,0.125,42,100.0
173,D4,14.5,0.125,42,100.0
174,B4,14.625,0.125,15,100.0
175,E4,14.625,0.125,15,100.0
176,A4,14.75,0.125,42,100.0
177,D4,14.75,0.125,42,100.0
178,B4,14.875,0.125,15,100.0
179,E4,14.875,0.125,15,100.0
180,E2,15.0,1.0,95,100.0
181,A4,15.0,0.125,42,100.0
182,D4,15.0,0.125,42,100.0
183,B4,15.125,0.125,15,100.0
184,E4,15.125,0.125,15,100.0
185,A4,15.25,0.125,42,100.0
186,D4,15.25,0.125,42,100.0
187,B4,15.375,0.125,15,100.0
188,E4,15.375,0.125,15,100.0
189,D4,15.5,83/1000,63,100.0
190,D2,15.5,83/1000,63,100.0
191,A4,15.5,0.125,42,100.0
192,D4,15.5,0.125,42,100.0
193,E-4,15.583,83/1000,38,100.0
194,E-2,15.583,83/1000,38,100.0
195,B4,15.625,0.125,15,100.0
196,E4,15.625,0.125,15,100.0
197,E4,15.667,83/1000,63,100.0
198,E2,15.667,83/1000,38,100.0
199,D4,15.75,83/1000,63,100.0
200,D2,15.75,83/1000,63,100.0
201,A4,15.75,0.125,42,100.0
202,D4,15.75,0.125,42,100.0
203,C4,15.833,83/1000,38,100.0
204,C2,15.833,83/1000,63,100.0
205,B4,15.875,0.125,15,100.0
206,E4,15.875,0.125,15,100.0
207,A3,15.917,83/1000,63,100.0
208,A1,15.917,83/1000,63,100.0
209,G3,16.0,0.5,63,100.0
210,G1,16.0,0.5,63,100.0
211,C2,16.0,0.5,95,100.0
212,A3,16.5,0.5,63,100.0
213,A1,16.5,0.5,63,100.0
214,E2,16.5,0.25,95,100.0
215,C2,16.75,0.25,95,100.0
216,E2,17.0,0.5,95,100.0
217,C2,17.5,2.0,63,100.0
218,E4,17.5,2.0,63,100.0
219,C4,17.5,2.0,63,100.0
220,G3,17.5,2.0,63,100.0
221,A4,17.5,0.125,63,100.0
222,D4,17.5,0.125,63,100.0
223,A3,17.5,0.5,95,100.0
224,C2,17.5,0.5,95,100.0
225,B4,17.625,0.125,15,100.0
226,E4,17.625,0.125,15,100.0
227,A4,17.75,0.125,42,100.0
228,D4,17.75,0.125,42,100.0
229,B4,17.875,0.125,15,100.0
230,E4,17.875,0.125,15,100.0
231,A4,18.0,0.125,42,100.0
232,D4,18.0,0.125,42,100.0
233,G#2,18.0,0.25,79,100.0
234,E2,18.0,0.25,79,100.0
235,B4,18.125,0.125,15,100.0
236,E4,18.125,0.125,15,100.0
237,E2,18.25,0.25,95,100.0
238,A4,18.25,0.125,42,100.0
239,D4,18.25,0.125,42,100.0
240,B4,18.375,0.125,15,100.0
241,E4,18.375,0.125,15,100.0
242,C2,18.5,0.5,95,100.0
243,A4,18.5,0.125,42,100.0
244,D4,18.5,0.125,42,100.0
245,B4,18.625,0.125,15,100.0
246,E4,18.625,0.125,15,100.0
247,A4,18.75,0.125,42,100.0
248,D4,18.75,0.125,42,100.0
249,B4,18.875,0.125,15,100.0
250,E4,18.875,0.125,15,100.0
251,A4,19.0,0.125,42,100.0
252,D4,19.0,0.125,42,100.0
253,G#2,19.0,0.5,79,100.0
254,E2,19.0,0.5,79,100.0
255,B4,19.125,0.125,15,100.0
256,E4,19.125,0.125,15,100.0
257,A4,19.25,0.125,42,100.0
258,D4,19.25,0.125,42,100.0
259,B4,19.375,0.125,15,100.0
260,E4,19.375,0.125,15,100.0
261,D4,19.5,83/1000,63,100.0
262,D2,19.5,83/1000,63,100.0
263,A4,19.5,0.125,42,100.0
264,D4,19.5,0.125,42,100.0
265,B-2,19.5,0.5,87,100.0
266,C2,19.5,0.5,87,100.0
267,E-4,19.583,83/1000,38,100.0
268,E-2,19.583,83/1000,38,100.0
269,B4,19.625,0.125,15,100.0
270,E4,19.625,0.125,15,100.0
271,E4,19.667,83/1000,63,100.0
272,E2,19.667,83/1000,38,100.0
273,D4,19.75,83/1000,63,100.0
274,D2,19.75,83/1000,63,100.0
275,A4,19.75,0.125,42,100.0
276,D4,19.75,0.125,42,100.0
277,C4,19.833,83/1000,38,100.0
278,C2,19.833,83/1000,63,100.0
279,B4,19.875,0.125,15,100.0
280,E4,19.875,0.125,15,100.0
281,A3,19.917,83/1000,63,100.0
282,A1,19.917,83/1000,63,100.0
283,G3,20.0,0.5,63,100.0
284,G1,20.0,0.5,63,100.0
285,C2,20.0,0.25,95,100.0
286,F#2,20.0,0.25,95,100.0
287,C2,20.25,0.25,95,100.0
288,A3,20.5,0.5,63,100.0
289,A1,20.5,0.5,63,100.0
290,F#2,20.5,0.5,95,100.0
291,E2,21.0,0.5,95,100.0
292,F#2,21.0,0.5,95,100.0
293,D2,21.5,2.0,63,100.0
294,B-2,21.5,0.5,79,100.0
295,F#4,21.5,2.0,63,100.0
296,D4,21.5,2.0,63,100.0
297,A3,21.5,2.0,63,100.0
298,A4,21.5,0.125,63,100.0
299,D4,21.5,0.125,63,100.0
300,B4,21.625,0.125,15,100.0
301,E4,21.625,0.125,15,100.0
302,A4,21.75,0.125,42,100.0
303,D4,21.75,0.125,42,100.0
304,B4,21.875,0.125,15,100.0
305,E4,21.875,0.125,15,100.0
306,A4,22.0,0.125,42,100.0
307,D4,22.0,0.125,42,100.0
308,C2,22.0,167/1000,87,100.0
309,C3,22.0,167/1000,87,100.0
310,B4,22.125,0.125,15,100.0
311,E4,22.125,0.125,15,100.0
312,C3,22.167,167/1000,79,100.0
313,A4,22.25,0.125,42,100.0
314,D4,22.25,0.125,42,100.0
315,C3,22.333,167/1000,63,100.0
316,B4,22.375,0.125,15,100.0
317,E4,22.375,0.125,15,100.0
318,B2,22.5,0.5,63,100.0
319,A4,22.5,0.125,42,100.0
320,D4,22.5,0.125,42,100.0
321,B4,22.625,0.125,15,100.0
322,E4,22.625,0.125,15,100.0
323,A4,22.75,0.125,42,100.0
324,D4,22.75,0.125,42,100.0
325,B4,22.875,0.125,15,100.0
326,E4,22.875,0.125,15,100.0
327,A4,23.0,0.125,42,100.0
328,D4,23.0,0.125,42,100.0
329,G#2,23.0,0.25,71,100.0
330,C3,23.0,0.25,71,100.0
331,B4,23.125,0.125,15,100.0
332,E4,23.125,0.125,15,100.0
333,B2,23.25,0.25,79,100.0
334,A4,23.25,0.125,42,100.0
335,D4,23.25,0.125,42,100.0
336,B4,23.375,0.125,15,100.0
337,E4,23.375,0.125,15,100.0
338,D4,23.5,83/1000,63,100.0
339,D2,23.5,83/1000,63,100.0
340,A2,23.5,0.25,63,100.0
341,A4,23.5,0.125,42,100.0
342,D4,23.5,0.125,42,100.0
343,E-4,23.583,83/1000,38,100.0
344,E-2,23.583,83/1000,38,100.0
345,B4,23.625,0.125,15,100.0
346,E4,23.625,0.125,15,100.0
347,E4,23.667,83/1000,63,100.0
348,E2,23.667,83/1000,38,100.0
349,D4,23.75,83/1000,63,100.0
350,D2,23.75,83/1000,63,100.0
351,G2,23.75,0.25,63,100.0
352,A4,23.75,0.125,42,100.0
353,D4,23.75,0.125,42,100.0
354,C4,23.833,83/1000,38,100.0
355,C2,23.833,83/1000,63,100.0
356,B4,23.875,0.125,15,100.0
357,E4,23.875,0.125,15,100.0
358,A3,23.917,83/1000,63,100.0
359,A1,23.917,83/1000,63,100.0
360,G3,24.0,0.5,63,100.0
361,G1,24.0,0.5,63,100.0
362,C2,24.0,0.5,111,100.0
363,E-3,24.0,0.5,111,100.0
364,A3,24.5,0.5,63,100.0
365,A1,24.5,0.5,63,100.0
366,C2,24.5,0.25,95,100.0
367,C2,24.75,0.25,95,100.0
368,B-2,25.0,0.25,95,100.0
369,E2,25.0,0.25,95,100.0
370,C2,25.5,1.5,63,100.0
371,E4,25.5,1.5,63,100.0
372,C4,25.5,1.5,63,100.0
373,G3,25.5,1.5,63,100.0
374,A4,25.5,0.125,63,100.0
375,D4,25.5,0.125,63,100.0
376,B4,25.625,0.125,15,100.0
377,E4,25.625,0.125,15,100.0
378,A4,25.75,0.125,42,100.0
379,D4,25.75,0.125,42,100.0
380,B-2,25.75,0.25,63,100.0
381,E2,25.75,0.25,63,100.0
382,B4,25.875,0.125,15,100.0
383,E4,25.875,0.125,15,100.0
384,A4,26.0,0.125,42,100.0
385,D4,26.0,0.125,42,100.0
386,F#2,26.0,0.5,95,100.0
387,C2,26.0,0.5,95,100.0
388,B4,26.125,0.125,15,100.0
389,E4,26.125,0.125,15,100.0
390,A4,26.25,0.125,42,100.0
391,D4,26.25,0.125,42,100.0
392,B4,26.375,0.125,15,100.0
393,E4,26.375,0.125,15,100.0
394,A4,26.5,0.125,42,100.0
395,D4,26.5,0.125,42,100.0
396,F#2,26.5,0.5,95,100.0
397,C2,26.5,0.5,95,100.0
398,B4,26.625,0.125,15,100.0
399,E4,26.625,0.125,15,100.0
400,A4,26.75,0.125,42,100.0
401,D4,26.75,0.125,42,100.0
402,B4,26.875,0.125,15,100.0
403,E4,26.875,0.125,15,100.0
404,A4,27.0,0.125,42,100.0
405,D4,27.0,0.125,42,100.0
406,B-2,27.0,0.5,79,100.0
407,E2,27.0,0.5,79,100.0
408,B4,27.125,0.125,15,100.0
409,E4,27.125,0.125,15,100.0
410,A4,27.25,0.125,42,100.0
411,D4,27.25,0.125,42,100.0
412,B4,27.375,0.125,15,100.0
413,E4,27.375,0.125,15,100.0
414,E3,27.5,0.25,63,100.0
415,E2,27.5,0.25,63,100.0
416,A4,27.5,0.125,42,100.0
417,D4,27.5,0.125,42,100.0
418,B-2,27.5,0.5,87,100.0
419,E2,27.5,0.5,87,100.0
420,B4,27.625,0.125,15,100.0
421,E4,27.625,0.125,15,100.0
422,E3,27.75,0.25,63,100.0
423,E2,27.75,0.25,63,100.0
424,A4,27.75,0.125,42,100.0
425,D4,27.75,0.125,42,100.0
426,B4,27.875,0.125,15,100.0
427,E4,27.875,0.125,15,100.0
428,G3,28.0,0.5,63,100.0
429,G2,28.0,0.5,63,100.0
430,C#3,28.0,0.5,79,100.0
431,C2,28.0,0.5,79,100.0
432,A3,28.5,0.25,63,100.0
433,A2,28.5,0.25,63,100.0
434,C2,28.5,0.25,95,100.0
435,C4,28.75,0.5,63,100.0
436,C3,28.75,0.5,63,100.0
437,C2,28.75,0.5,79,100.0
438,B-2,28.75,0.5,79,100.0
439,A3,29.25,0.25,63,100.0
440,A2,29.25,0.25,63,100.0
441,C2,29.25,0.25,95,100.0
442,G3,29.5,0.25,63,100.0
443,G2,29.5,0.25,63,100.0
444,B-2,29.5,0.25,79,100.0
445,C2,29.5,0.25,79,100.0
446,E3,29.75,0.25,63,100.0
447,E2,29.75,0.25,63,100.0
448,E2,29.75,0.25,95,100.0
449,G3,30.0,0.25,63,100.0
450,G2,30.0,0.25,63,100.0
451,E2,30.0,0.25,95,100.0
452,D3,30.25,0.75,63,100.0
453,D2,30.25,0.75,63,100.0
454,A3,30.25,0.5,79,100.0
455,C2,30.25,0.5,79,100.0
456,E2,30.75,0.25,47,100.0
457,D3,31.0,0.25,63,100.0
458,D2,31.0,0.25,63,100.0
459,E2,31.0,0.25,95,100.0
460,C3,31.25,0.75,63,100.0
461,C2,31.25,0.75,63,100.0
462,E-3,31.25,0.25,95,100.0
463,C2,31.25,0.25,95,100.0
464,A2,32.0,1.0,63,100.0
465,A1,32.0,1.0,63,100.0
466,C#3,32.0,0.25,74,100.0
467,B1,32.0,0.25,74,100.0
468,D2,32.0,0.25,74,100.0
469,D3,32.25,0.25,63,100.0
470,G#2,32.5,0.25,63,100.0
471,D3,32.5,0.25,63,100.0
472,C3,32.75,0.25,63,100.0
473,G#2,33.0,0.25,63,100.0
474,B2,33.0,0.25,63,100.0
475,B2,33.25,0.25,63,100.0
476,D2,33.5,1.0,63,100.0
477,A4,33.5,2.0,63,100.0
478,E4,33.5,2.0,63,100.0
479,C4,33.5,2.0,63,100.0
480,G3,33.5,2.0,63,100.0
481,D3,33.5,2.0,63,100.0
482,B-2,33.5,0.25,95,100.0
483,C2,33.5,0.25,95,100.0
484,E2,34.25,0.25,63,100.0
485,D2,34.5,0.5,63,100.0
486,C2,34.5,0.25,95,100.0
487,E2,34.5,0.25,95,100.0
488,E2,34.75,0.25,63,100.0
489,A2,35.0,0.5,63,100.0
490,C2,35.0,0.25,79,100.0
491,E2,35.0,0.25,79,100.0
492,C3,35.25,0.25,63,100.0
493,D4,35.5,83/1000,63,100.0
494,D2,35.5,83/1000,63,100.0
495,C2,35.5,0.25,79,100.0
496,B2,35.5,0.25,79,100.0
497,E-4,35.583,83/1000,38,100.0
498,E-2,35.583,83/1000,38,100.0
499,E4,35.667,83/1000,63,100.0
500,E2,35.667,83/1000,38,100.0
501,D4,35.75,83/1000,63,100.0
502,D2,35.75,83/1000,63,100.0
503,A2,35.75,0.25,63,100.0
504,C4,35.833,83/1000,38,100.0
505,C2,35.833,83/1000,63,100.0
506,A3,35.917,83/1000,63,100.0
507,A1,35.917,83/1000,63,100.0
508,G3,36.0,0.5,63,100.0
509,G1,36.0,0.5,63,100.0
510,A3,36.0,0.5,84,100.0
511,C2,36.0,0.5,84,100.0
512,E2,36.0,0.5,84,100.0
513,A3,36.5,0.5,63,100.0
514,A1,36.5,0.5,63,100.0
515,F#2,36.5,0.25,95,100.0
516,C2,36.5,0.25,95,100.0
517,C2,36.75,0.25,95,100.0
518,F#2,37.0,0.5,95,100.0
519,E2,37.0,0.5,95,100.0
520,D2,37.5,2.0,63,100.0
521,F#4,37.5,2.0,63,100.0
522,D4,37.5,2.0,63,100.0
523,A3,37.5,2.0,63,100.0
524,A4,37.5,0.125,63,100.0
525,D4,37.5,0.125,63,100.0
526,C2,37.5,0.5,95,100.0
527,B-2,37.5,0.5,95,100.0
528,B4,37.625,0.125,15,100.0
529,E4,37.625,0.125,15,100.0
530,A4,37.75,0.125,42,100.0
531,D4,37.75,0.125,42,100.0
532,B4,37.875,0.125,15,100.0
533,E4,37.875,0.125,15,100.0
534,A4,38.0,0.125,42,100.0
535,D4,38.0,0.125,42,100.0
536,C2,38.0,167/1000,63,100.0
537,D3,38.0,167/1000,63,100.0
538,B4,38.125,0.125,15,100.0
539,E4,38.125,0.125,15,100.0
540,D3,38.167,167/1000,63,100.0
541,A4,38.25,0.125,42,100.0
542,D4,38.25,0.125,42,100.0
543,D3,38.333,167/1000,63,100.0
544,B4,38.375,0.125,15,100.0
545,E4,38.375,0.125,15,100.0
546,C3,38.5,0.5,63,100.0
547,A4,38.5,0.125,42,100.0
548,D4,38.5,0.125,42,100.0
549,B4,38.625,0.125,15,100.0
550,E4,38.625,0.125,15,100.0
551,A4,38.75,0.125,42,100.0
552,D4,38.75,0.125,42,100.0
553,B4,38.875,0.125,15,100.0
554,E4,38.875,0.125,15,100.0
555,A4,39.0,0.125,42,100.0
556,D4,39.0,0.125,42,100.0
557,G#2,39.0,0.25,63,100.0
558,D3,39.0,0.25,63,100.0
559,B4,39.125,0.125,15,100.0
560,E4,39.125,0.125,15,100.0
561,C3,39.25,0.25,63,100.0
562,A4,39.25,0.125,42,100.0
563,D4,39.25,0.125,42,100.0
564,B4,39.375,0.125,15,100.0
565,E4,39.375,0.125,15,100.0
566,D4,39.5,83/1000,63,100.0
567,D2,39.5,83/1000,63,100.0
568,B2,39.5,0.25,63,100.0
569,A4,39.5,0.125,42,100.0
570,D4,39.5,0.125,42,100.0
571,E-4,39.583,83/1000,38,100.0
572,E-2,39.583,83/1000,38,100.0
573,B4,39.625,0.125,15,100.0
574,E4,39.625,0.125,15,100.0
575,E4,39.667,83/1000,63,100.0
576,E2,39.667,83/1000,38,100.0
577,D4,39.75,83/1000,63,100.0
578,D2,39.75,83/1000,63,100.0
579,A2,39.75,0.25,63,100.0
580,A4,39.75,0.125,42,100.0
581,D4,39.75,0.125,42,100.0
582,C4,39.833,83/1000,38,100.0
583,C2,39.833,83/1000,63,100.0
584,B4,39.875,0.125,15,100.0
585,E4,39.875,0.125,15,100.0
586,A3,39.917,83/1000,63,100.0
587,A1,39.917,83/1000,63,100.0
588,G3,40.0,0.5,63,100.0
589,G1,40.0,0.5,63,100.0
590,C2,40.0,0.5,111,100.0
591,E-3,40.0,0.5,111,100.0
592,A3,40.5,0.5,63,100.0
593,A1,40.5,0.5,63,100.0
594,C2,40.5,0.25,95,100.0
595,C2,40.75,0.25,95,100.0
596,B-2,41.0,0.25,95,100.0
597,E2,41.0,0.25,95,100.0
598,C2,41.5,1.5,63,100.0
599,E4,41.5,1.5,63,100.0
600,C4,41.5,1.5,63,100.0
601,G3,41.5,1.5,63,100.0
602,A4,41.5,0.125,63,100.0
603,D4,41.5,0.125,63,100.0
604,B4,41.625,0.125,15,100.0
605,E4,41.625,0.125,15,100.0
606,A4,41.75,0.125,42,100.0
607,D4,41.75,0.125,42,100.0
608,B-2,41.75,0.25,63,100.0
609,E2,41.75,0.25,63,100.0
610,B4,41.875,0.125,15,100.0
611,E4,41.875,0.125,15,100.0
612,A4,42.0,0.125,42,100.0
613,D4,42.0,0.125,42,100.0
614,D3,42.0,0.25,58,100.0
615,C2,42.0,0.25,58,100.0
616,D3,42.0,0.25,58,100.0
617,B4,42.125,0.125,15,100.0
618,E4,42.125,0.125,15,100.0
619,D3,42.25,0.25,63,100.0
620,A4,42.25,0.125,42,100.0
621,D4,42.25,0.125,42,100.0
622,B4,42.375,0.125,15,100.0
623,E4,42.375,0.125,15,100.0
624,A4,42.5,0.125,42,100.0
625,D4,42.5,0.125,42,100.0
626,C3,42.5,0.25,58,100.0
627,C2,42.5,0.25,58,100.0
628,C3,42.5,0.25,58,100.0
629,B4,42.625,0.125,15,100.0
630,E4,42.625,0.125,15,100.0
631,A4,42.75,0.125,42,100.0
632,D4,42.75,0.125,42,100.0
633,B2,42.75,0.25,55,100.0
634,B2,42.75,0.25,55,100.0
635,B4,42.875,0.125,15,100.0
636,E4,42.875,0.125,15,100.0
637,A4,43.0,0.125,42,100.0
638,D4,43.0,0.125,42,100.0
639,C2,43.0,0.25,63,100.0
640,B2,43.0,0.25,63,100.0
641,B4,43.125,0.125,15,100.0
642,E4,43.125,0.125,15,100.0
643,A2,43.25,0.25,63,100.0
644,A4,43.25,0.125,42,100.0
645,D4,43.25,0.125,42,100.0
646,B4,43.375,0.125,15,100.0
647,E4,43.375,0.125,15,100.0
648,E3,43.5,0.25,63,100.0
649,E2,43.5,0.25,63,100.0
650,A4,43.5,0.125,42,100.0
651,D4,43.5,0.125,42,100.0
652,C2,43.5,0.25,63,100.0
653,G2,43.5,0.25,63,100.0
654,B4,43.625,0.125,15,100.0
655,E4,43.625,0.125,15,100.0
656,E3,43.75,0.25,63,100.0
657,E2,43.75,0.25,63,100.0
658,F2,43.75,0.25,63,100.0
659,A4,43.75,0.125,42,100.0
660,D4,43.75,0.125,42,100.0
661,B4,43.875,0.125,15,100.0
662,E4,43.875,0.125,15,100.0
663,G3,44.0,0.5,63,100.0
664,G2,44.0,0.5,63,100.0
665,C#3,44.0,0.5,74,100.0
666,C2,44.0,0.5,74,100.0
667,E2,44.0,0.5,74,100.0
668,A3,44.5,0.25,63,100.0
669,A2,44.5,0.25,63,100.0
670,C2,44.5,0.25,79,100.0
671,F#2,44.5,0.25,79,100.0
672,C4,44.75,0.5,63,100.0
673,C3,44.75,0.5,63,100.0
674,B-2,44.75,0.5,95,100.0
675,D2,44.75,0.5,95,100.0
676,A3,45.25,0.25,63,100.0
677,A2,45.25,0.25,63,100.0
678,E2,45.25,0.25,63,100.0
679,G3,45.5,0.25,63,100.0
680,G2,45.5,0.25,63,100.0
681,B-2,45.5,0.25,71,100.0
682,E2,45.5,0.25,71,100.0
683,E3,45.75,0.25,63,100.0
684,E2,45.75,0.25,63,100.0
685,C2,45.75,0.25,63,100.0
686,G3,46.0,0.25,63,100.0
687,G2,46.0,0.25,63,100.0
688,B-2,46.0,0.25,63,100.0
689,E2,46.0,0.25,63,100.0
690,D3,46.25,0.75,63,100.0
691,D2,46.25,0.75,63,100.0
692,C2,46.25,0.25,63,100.0
693,B-2,46.5,0.5,63,100.0
694,D3,47.0,0.25,63,100.0
695,D2,47.0,0.25,63,100.0
696,B-2,47.0,0.25,63,100.0
697,D2,47.0,0.25,63,100.0
698,C3,47.25,0.75,63,100.0
699,C2,47.25,0.75,63,100.0
700,C2,47.25,0.25,63,100.0
701,B-2,47.5,0.5,63,100.0
702,A2,48.0,1.0,63,100.0
703,D4,48.0,0.25,63,100.0
704,A1,48.0,1.0,63,100.0
705,C#3,48.0,0.25,74,100.0
706,B1,48.0,0.25,74,100.0
707,D2,48.0,0.25,74,100.0
708,A4,48.25,0.25,63,100.0
709,D3,48.25,0.25,63,100.0
710,A4,48.5,0.25,63,100.0
711,G#2,48.5,0.25,63,100.0
712,D3,48.5,0.25,63,100.0
713,E4,48.75,0.25,63,100.0
714,C3,48.75,0.25,63,100.0
715,G4,49.0,0.25,63,100.0
716,G#2,49.0,0.25,63,100.0
717,B2,49.0,0.25,63,100.0
718,B4,49.25,0.25,63,100.0
719,B2,49.25,0.25,63,100.0
720,C5,49.5,167/1000,63,100.0
721,A1,49.5,0.75,63,100.0
722,E4,49.5,2.5,63,100.0
723,C4,49.5,2.5,63,100.0
724,G3,49.5,2.5,63,100.0
725,A2,49.5,2.5,63,100.0
726,B-2,49.5,0.5,95,100.0
727,C2,49.5,0.5,95,100.0
728,A4,49.667,167/1000,38,100.0
729,G4,49.833,167/1000,63,100.0
730,A4,50.0,167/1000,63,100.0
731,E2,50.0,0.25,63,100.0
732,G4,50.167,167/1000,63,100.0
733,E1,50.25,0.25,63,100.0
734,C2,50.25,0.25,95,100.0
735,E2,50.25,0.25,95,100.0
736,E4,50.333,167/1000,38,100.0
737,A4,50.5,0.25,63,100.0
738,G1,50.5,0.25,63,100.0
739,E2,50.5,0.25,63,100.0
740,D4,50.75,0.375,63,100.0
741,G#1,50.75,0.25,63,100.0
742,C2,50.75,0.25,79,100.0
743,E2,50.75,0.25,79,100.0
744,A1,51.0,0.25,63,100.0
745,C3,51.0,0.25,63,100.0
746,D4,51.125,0.125,31,100.0
747,C4,51.25,0.25,38,100.0
748,A1,51.25,0.25,63,100.0
749,C2,51.25,0.25,79,100.0
750,B2,51.25,0.25,79,100.0
751,D4,51.5,0.125,63,100.0
752,B-1,51.5,0.25,63,100.0
753,A2,51.5,0.5,63,100.0
754,C4,51.625,0.125,38,100.0
755,A3,51.75,0.25,63,100.0
756,B1,51.75,0.25,63,100.0
757,C2,52.0,0.75,63,100.0
758,E4,52.0,1.5,63,100.0
759,B-3,52.0,1.5,63,100.0
760,G3,52.0,1.5,63,100.0
761,C3,52.0,1.5,63,100.0
762,E4,52.0,1.75,63,100.0
763,C4,52.0,1.75,63,100.0
764,G3,52.0,1.75,63,100.0
765,C3,52.0,1.75,63,100.0
766,B-2,52.0,0.5,79,100.0
767,E2,52.0,0.5,79,100.0
768,F#2,52.5,0.25,63,100.0
769,C2,52.75,0.25,63,100.0
770,C2,52.75,0.25,95,100.0
771,G1,53.0,0.75,63,100.0
772,B-2,53.0,0.5,79,100.0
773,E2,53.0,0.5,79,100.0
774,B-2,53.5,0.25,47,100.0
775,E4,53.5,0.25,63,100.0
776,B-3,53.5,0.25,63,100.0
777,G3,53.5,0.25,63,100.0
778,C3,53.5,0.25,63,100.0
779,A1,53.75,0.25,63,100.0
780,C2,53.75,0.25,95,100.0
781,E4,53.75,0.25,63,100.0
782,B-3,53.75,0.25,63,100.0
783,G3,53.75,0.25,63,100.0
784,C3,53.75,0.25,63,100.0
785,E4,53.75,0.25,63,100.0
786,C4,53.75,0.25,63,100.0
787,G3,53.75,0.25,63,100.0
788,C3,53.75,0.25,63,100.0
789,C2,54.0,0.25,63,100.0
790,E4,54.0,0.25,63,100.0
791,B-3,54.0,0.25,63,100.0
792,G3,54.0,0.25,63,100.0
793,C3,54.0,0.25,63,100.0
794,E4,54.0,0.25,63,100.0
795,C4,54.0,0.25,63,100.0
796,G3,54.0,0.25,63,100.0
797,C3,54.0,0.25,63,100.0
798,B-2,54.0,0.5,79,100.0
799,E2,54.0,0.5,79,100.0
800,C2,54.25,0.25,63,100.0
801,E4,54.25,0.25,63,100.0
802,B-3,54.25,0.25,63,100.0
803,G3,54.25,0.25,63,100.0
804,C3,54.25,0.25,63,100.0
805,E4,54.25,0.25,63,100.0
806,C4,54.25,0.25,63,100.0
807,G3,54.25,0.25,63,100.0
808,C3,54.25,0.25,63,100.0
809,G1,54.5,0.5,63,100.0
810,B-2,54.5,0.25,47,100.0
811,C2,54.75,0.25,95,100.0
812,E4,54.75,0.25,63,100.0
813,C4,54.75,0.25,63,100.0
814,G3,54.75,0.25,63,100.0
815,C3,54.75,0.25,63,100.0
816,C2,55.0,0.5,63,100.0
817,E4,55.0,1.0,63,100.0
818,B-3,55.0,1.0,63,100.0
819,G3,55.0,1.0,63,100.0
820,C3,55.0,1.0,63,100.0
821,E4,55.0,0.5,63,100.0
822,C4,55.0,0.5,63,100.0
823,G3,55.0,0.5,63,100.0
824,C3,55.0,0.5,63,100.0
825,B-2,55.0,0.5,95,100.0
826,E2,55.0,0.5,95,100.0
827,C#2,55.5,0.25,63,100.0
828,E4,55.5,0.5,63,100.0
829,C4,55.5,0.5,63,100.0
830,G3,55.5,0.5,63,100.0
831,C3,55.5,0.5,63,100.0
832,B-2,55.5,0.25,71,100.0
833,C2,55.5,0.25,71,100.0
834,A1,55.75,0.25,63,100.0
835,C2,55.75,0.25,95,100.0
836,D2,56.0,0.5,63,100.0
837,F#4,56.0,1.5,63,100.0
838,C4,56.0,1.5,63,100.0
839,A3,56.0,1.5,63,100.0
840,D3,56.0,1.5,63,100.0
841,E4,56.0,0.25,63,100.0
842,C4,56.0,0.25,63,100.0
843,G3,56.0,0.25,63,100.0
844,C3,56.0,0.25,63,100.0
845,B-2,56.0,0.5,79,100.0
846,E2,56.0,0.5,79,100.0
847,F#4,56.25,0.5,63,100.0
848,D4,56.25,0.5,63,100.0
849,A3,56.25,0.5,63,100.0
850,D3,56.25,0.5,63,100.0
851,D3,56.5,0.125,63,100.0
852,B-2,56.5,0.25,47,100.0
853,E3,56.625,0.375,38,100.0
854,C2,56.75,0.25,95,100.0
855,F#4,56.75,0.25,63,100.0
856,D4,56.75,0.25,63,100.0
857,A3,56.75,0.25,63,100.0
858,D3,56.75,0.25,63,100.0
859,D3,57.0,0.25,63,100.0
860,F#4,57.0,0.5,63,100.0
861,D4,57.0,0.5,63,100.0
862,A3,57.0,0.5,63,100.0
863,D3,57.0,0.5,63,100.0
864,B-2,57.0,0.5,79,100.0
865,E2,57.0,0.5,79,100.0
866,C3,57.25,0.25,63,100.0
867,A2,57.5,0.5,63,100.0
868,F#2,57.5,0.25,47,100.0
869,B4,57.5,0.5,63,100.0
870,G4,57.5,0.5,63,100.0
871,D4,57.5,0.5,63,100.0
872,F#4,57.5,0.25,63,100.0
873,D4,57.5,0.25,63,100.0
874,A3,57.5,0.25,63,100.0
875,D3,57.5,0.25,63,100.0
876,C2,57.75,0.25,95,100.0
877,F#4,57.75,0.25,63,100.0
878,D4,57.75,0.25,63,100.0
879,A3,57.75,0.25,63,100.0
880,D3,57.75,0.25,63,100.0
881,G2,58.0,0.25,63,100.0
882,A4,58.0,0.25,63,100.0
883,F4,58.0,0.25,63,100.0
884,F#4,58.0,0.25,63,100.0
885,D4,58.0,0.25,63,100.0
886,A3,58.0,0.25,63,100.0
887,D3,58.0,0.25,63,100.0
888,B-2,58.0,0.5,79,100.0
889,E2,58.0,0.5,79,100.0
890,F#4,58.25,0.25,38,100.0
891,F#2,58.25,0.25,63,100.0
892,F#4,58.25,0.25,63,100.0
893,D4,58.25,0.25,63,100.0
894,A3,58.25,0.25,63,100.0
895,D3,58.25,0.25,63,100.0
896,G4,58.5,0.5,63,100.0
897,D2,58.5,0.5,63,100.0
898,B-2,58.5,0.25,47,100.0
899,F#4,58.5,0.5,63,100.0
900,D4,58.5,0.5,63,100.0
901,A3,58.5,0.5,63,100.0
902,D3,58.5,0.5,63,100.0
903,C2,58.75,0.25,95,100.0
904,D3,59.0,0.25,63,100.0
905,D2,59.0,0.5,63,100.0
906,B-2,59.0,0.5,79,100.0
907,E2,59.0,0.5,79,100.0
908,E-3,59.25,0.25,63,100.0
909,E3,59.5,0.25,63,100.0
910,D2,59.5,0.5,63,100.0
911,B-2,59.5,0.5,47,100.0
912,E2,59.75,0.25,63,100.0
913,E2,60.0,1.5,63,100.0
914,B4,60.0,1.5,63,100.0
915,F#4,60.0,1.5,63,100.0
916,D4,60.0,1.5,63,100.0
917,A3,60.0,1.5,63,100.0
918,E3,60.0,1.5,63,100.0
919,B-2,60.0,0.5,79,100.0
920,E2,60.0,0.5,79,100.0
921,B-2,60.5,0.25,63,100.0
922,C2,60.5,0.25,63,100.0
923,C2,60.75,0.25,95,100.0
924,B-2,61.0,0.5,79,100.0
925,E2,61.0,0.5,79,100.0
926,E2,61.5,0.5,63,100.0
927,B-2,61.5,0.25,47,100.0
928,B4,61.5,0.5,63,100.0
929,F#4,61.5,0.5,63,100.0
930,D4,61.5,0.5,63,100.0
931,A3,61.5,0.5,63,100.0
932,E3,61.5,0.5,63,100.0
933,E2,61.75,0.25,71,100.0
934,C2,61.75,0.25,71,100.0
935,E2,62.0,1.5,63,100.0
936,B4,62.0,1.5,63,100.0
937,F#4,62.0,1.5,63,100.0
938,D4,62.0,1.5,63,100.0
939,A3,62.0,1.5,63,100.0
940,E3,62.0,1.5,63,100.0
941,C2,62.0,0.25,84,100.0
942,B-2,62.0,0.25,84,100.0
943,E2,62.0,0.25,84,100.0
944,D3,62.25,0.25,47,100.0
945,C2,62.5,0.25,95,100.0
946,C3,62.75,0.25,47,100.0
947,C2,63.0,0.25,95,100.0
948,B2,63.25,0.25,47,100.0
949,D4,63.5,83/1000,63,100.0
950,D2,63.5,83/1000,63,100.0
951,C2,63.5,0.25,95,100.0
952,E-4,63.583,83/1000,38,100.0
953,E-2,63.583,83/1000,38,100.0
954,E4,63.667,83/1000,63,100.0
955,E2,63.667,83/1000,38,100.0
956,D4,63.75,83/1000,63,100.0
957,D2,63.75,83/1000,63,100.0
958,A2,63.75,0.25,47,100.0
959,C4,63.833,83/1000,38,100.0
960,C2,63.833,83/1000,63,100.0
961,A3,63.917,83/1000,63,100.0
962,A1,63.917,83/1000,63,100.0
963,G3,64.0,0.5,63,100.0
964,G1,64.0,0.5,63,100.0
965,C#3,64.0,0.25,79,100.0
966,C2,64.0,0.25,79,100.0
967,C2,64.25,0.25,95,100.0
968,A3,64.5,0.5,63,100.0
969,A1,64.5,0.5,63,100.0
970,C2,64.5,0.25,95,100.0
971,E2,64.75,0.25,63,100.0
972,E2,65.0,0.5,95,100.0
973,D2,65.5,2.0,63,100.0
974,F#4,65.5,2.0,63,100.0
975,D4,65.5,2.0,63,100.0
976,A3,65.5,2.0,63,100.0
977,B-2,65.5,0.5,79,100.0
978,C2,65.5,0.5,79,100.0
979,F#2,66.0,0.25,63,100.0
980,F#2,66.25,0.25,95,100.0
981,B-2,66.5,0.5,79,100.0
982,C2,66.5,0.5,79,100.0
983,E2,67.0,0.5,95,100.0
984,D4,67.5,83/1000,63,100.0
985,D2,67.5,83/1000,63,100.0
986,F#2,67.5,0.5,63,100.0
987,E-4,67.583,83/1000,38,100.0
988,E-2,67.583,83/1000,38,100.0
989,E4,67.667,83/1000,63,100.0
990,E2,67.667,83/1000,38,100.0
991,D4,67.75,83/1000,63,100.0
992,D2,67.75,83/1000,63,100.0
993,C4,67.833,83/1000,38,100.0
994,C2,67.833,83/1000,63,100.0
995,A3,67.917,83/1000,63,100.0
996,A1,67.917,83/1000,63,100.0
997,G3,68.0,0.5,63,100.0
998,G1,68.0,0.5,63,100.0
999,F#2,68.0,0.5,95,100.0
1000,C2,68.0,0.5,95,100.0
1001,A3,68.5,0.5,63,100.0
1002,A1,68.5,0.5,63,100.0
1003,F#2,68.5,0.25,84,100.0
1004,E2,68.5,0.25,84,100.0
1005,C2,68.5,0.25,84,100.0
1006,C2,68.75,0.25,95,100.0
1007,B-2,69.0,0.5,87,100.0
1008,E2,69.0,0.5,87,100.0
1009,C2,69.5,2.0,63,100.0
1010,E4,69.5,2.0,63,100.0
1011,C4,69.5,2.0,63,100.0
1012,G3,69.5,2.0,63,100.0
1013,C4,69.5,2.0,63,100.0
1014,G3,69.5,2.0,63,100.0
1015,C3,69.5,2.0,63,100.0
1016,C2,69.5,0.5,87,100.0
1017,B-2,69.5,0.5,87,100.0
1018,B-2,70.0,0.25,95,100.0
1019,E2,70.0,0.25,95,100.0
1020,D3,70.25,0.125,63,100.0
1021,D3,70.375,0.125,63,100.0
1022,C2,70.5,0.25,79,100.0
1023,C3,70.5,0.25,79,100.0
1024,B2,70.75,0.25,63,100.0
1025,C2,71.0,0.25,79,100.0
1026,B2,71.0,0.25,79,100.0
1027,A2,71.25,0.25,63,100.0
1028,D4,71.5,83/1000,63,100.0
1029,A2,71.5,0.25,63,100.0
1030,D2,71.5,83/1000,63,100.0
1031,C2,71.5,0.25,79,100.0
1032,G2,71.5,0.25,79,100.0
1033,E-4,71.583,83/1000,38,100.0
1034,E-2,71.583,83/1000,38,100.0
1035,E4,71.667,83/1000,63,100.0
1036,E2,71.667,83/1000,38,100.0
1037,D4,71.75,83/1000,63,100.0
1038,A2,71.75,0.25,63,100.0
1039,D2,71.75,83/1000,63,100.0
1040,F2,71.75,0.25,79,100.0
1041,C4,71.833,83/1000,38,100.0
1042,C2,71.833,83/1000,63,100.0
1043,A3,71.917,83/1000,63,100.0
1044,A1,71.917,83/1000,63,100.0
1045,G3,72.0,0.5,63,100.0
1046,A2,72.0,0.5,63,100.0
1047,G1,72.0,0.5,63,100.0
1048,C2,72.0,0.5,87,100.0
1049,C#3,72.0,0.5,87,100.0
1050,A3,72.5,0.5,63,100.0
1051,A1,72.5,0.5,63,100.0
1052,F#2,72.5,0.25,95,100.0
1053,E4,72.5,0.25,63,100.0
1054,C4,72.5,0.25,63,100.0
1055,G3,72.5,0.25,63,100.0
1056,A2,72.5,0.25,63,100.0
1057,E2,72.75,0.25,47,100.0
1058,A4,72.75,0.25,63,100.0
1059,E4,72.75,0.25,63,100.0
1060,C4,72.75,0.25,63,100.0
1061,G3,72.75,0.25,63,100.0
1062,B-2,73.0,0.5,87,100.0
1063,E2,73.0,0.5,87,100.0
1064,D2,73.5,2.0,63,100.0
1065,F#2,73.5,0.5,95,100.0
1066,F#4,73.5,2.0,63,100.0
1067,D4,73.5,2.0,63,100.0
1068,A3,73.5,2.0,63,100.0
1069,D4,73.5,0.5,63,100.0
1070,A3,73.5,0.5,63,100.0
1071,D3,73.5,0.5,63,100.0
1072,D4,74.0,1.5,63,100.0
1073,A3,74.0,1.5,63,100.0
1074,F#2,74.0,0.25,95,100.0
1075,C2,74.0,0.25,95,100.0
1076,C2,74.25,0.25,95,100.0
1077,F#2,74.5,0.25,95,100.0
1078,D2,74.75,0.25,47,100.0
1079,B-2,75.0,0.5,87,100.0
1080,E2,75.0,0.5,87,100.0
1081,D4,75.5,83/1000,63,100.0
1082,A2,75.5,0.25,63,100.0
1083,D2,75.5,83/1000,63,100.0
1084,F#2,75.5,0.25,95,100.0
1085,C2,75.5,0.25,95,100.0
1086,E-4,75.583,83/1000,38,100.0
1087,E-2,75.583,83/1000,38,100.0
1088,E4,75.667,83/1000,63,100.0
1089,E2,75.667,83/1000,38,100.0
1090,D4,75.75,83/1000,63,100.0
1091,A2,75.75,0.25,63,100.0
1092,D2,75.75,83/1000,63,100.0
1093,C2,75.75,0.25,95,100.0
1094,C4,75.833,83/1000,38,100.0
1095,C2,75.833,83/1000,63,100.0
1096,A3,75.917,83/1000,63,100.0
1097,A1,75.917,83/1000,63,100.0
1098,G3,76.0,0.5,63,100.0
1099,A2,76.0,0.5,63,100.0
1100,G1,76.0,0.5,63,100.0
1101,F#2,76.0,0.5,95,100.0
1102,C2,76.0,0.5,95,100.0
1103,A3,76.5,0.5,63,100.0
1104,A2,76.5,0.25,63,100.0
1105,A1,76.5,0.5,63,100.0
1106,F#2,76.5,0.25,79,100.0
1107,C2,76.5,0.25,79,100.0
1108,A2,76.75,0.25,63,100.0
1109,C2,76.75,0.25,79,100.0
1110,E2,76.75,0.25,79,100.0
1111,E3,77.0,13/250,95,100.0
1112,B2,77.0,13/250,95,100.0
1113,B-2,77.0,0.5,79,100.0
1114,E2,77.0,0.5,79,100.0
1115,C2,77.5,1.5,63,100.0
1116,F#2,77.5,0.5,63,100.0
1117,E4,77.5,1.5,63,100.0
1118,C4,77.5,1.5,63,100.0
1119,G3,77.5,1.5,63,100.0
1120,C4,77.5,1.5,63,100.0
1121,G3,77.5,1.5,63,100.0
1122,C3,77.5,1.5,63,100.0
1123,D3,78.0,0.25,58,100.0
1124,C2,78.0,0.25,58,100.0
1125,D3,78.0,0.25,58,100.0
1126,D3,78.25,0.25,63,100.0
1127,C3,78.5,0.25,58,100.0
1128,C2,78.5,0.25,58,100.0
1129,C3,78.5,0.25,58,100.0
1130,B2,78.75,0.25,55,100.0
1131,B2,78.75,0.25,55,100.0
1132,C2,79.0,0.25,63,100.0
1133,B2,79.0,0.25,63,100.0
1134,A2,79.25,0.25,63,100.0
1135,E3,79.5,0.25,63,100.0
1136,E2,79.5,0.25,63,100.0
1137,C2,79.5,0.25,63,100.0
1138,G2,79.5,0.25,63,100.0
1139,E3,79.75,0.25,63,100.0
1140,E2,79.75,0.25,63,100.0
1141,F2,79.75,0.25,63,100.0
1142,G3,80.0,0.5,63,100.0
1143,G2,80.0,0.5,63,100.0
1144,B-2,80.0,0.5,87,100.0
1145,C2,80.0,0.5,87,100.0
1146,A3,80.5,0.5,63,100.0
1147,A2,80.5,0.5,63,100.0
1148,B-2,80.5,0.25,87,100.0
1149,C2,80.5,0.25,87,100.0
1150,C2,80.75,0.25,95,100.0
1151,A3,81.0,0.25,63,100.0
1152,A2,81.0,0.25,63,100.0
1153,B-2,81.0,0.25,87,100.0
1154,E2,81.0,0.25,87,100.0
1155,G3,81.25,0.5,63,100.0
1156,G2,81.25,0.5,63,100.0
1157,C2,81.25,0.25,95,100.0
1158,B-2,81.5,0.5,63,100.0
1159,C4,81.75,0.5,63,100.0
1160,C3,81.75,0.5,63,100.0
1161,C2,82.0,0.5,79,100.0
1162,B-2,82.0,0.5,79,100.0
1163,A3,82.25,0.75,63,100.0
1164,A2,82.25,0.75,63,100.0
1165,B-2,82.5,0.25,63,100.0
1166,C2,82.75,0.25,95,100.0
1167,G3,83.0,0.5,63,100.0
1168,G2,83.0,0.5,63,100.0
1169,E2,83.0,0.25,79,100.0
1170,B-2,83.0,0.25,79,100.0
1171,C2,83.25,0.25,95,100.0
1172,E3,83.5,0.5,63,100.0
1173,E2,83.5,0.5,63,100.0
1174,B-2,83.5,0.25,63,100.0
1175,G#2,83.5,0.25,63,100.0
1176,E2,83.75,0.25,63,100.0
1177,G3,84.0,0.5,63,100.0
1178,G2,84.0,0.5,63,100.0
1179,B-2,84.0,0.5,79,100.0
1180,E2,84.0,0.5,79,100.0
1181,E3,84.5,0.5,63,100.0
1182,E2,84.5,0.5,63,100.0
1183,B-2,84.5,0.25,79,100.0
1184,C2,84.5,0.25,79,100.0
1185,E2,84.75,0.25,79,100.0
1186,C2,84.75,0.25,79,100.0
1187,D3,85.0,0.25,63,100.0
1188,D2,85.0,0.25,63,100.0
1189,B-2,85.0,0.5,79,100.0
1190,E2,85.0,0.5,79,100.0
1191,D3,85.25,0.5,63,100.0
1192,D2,85.25,0.5,63,100.0
1193,B-2,85.5,0.25,79,100.0
1194,C2,85.5,0.25,79,100.0
1195,C3,85.75,1.75,63,100.0
1196,E4,85.75,0.25,63,100.0
1197,C2,85.75,1.75,63,100.0
1198,E2,85.75,0.25,79,100.0
1199,C2,85.75,0.25,79,100.0
1200,A4,86.0,0.25,63,100.0
1201,E4,86.0,0.25,63,100.0
1202,B-2,86.0,0.25,90,100.0
1203,C2,86.0,0.25,90,100.0
1204,E2,86.0,0.25,90,100.0
1205,A4,86.25,0.25,63,100.0
1206,E2,86.25,0.25,95,100.0
1207,G4,86.5,0.25,63,100.0
1208,B-2,86.5,0.25,87,100.0
1209,E2,86.5,0.25,87,100.0
1210,E4,86.75,0.25,38,100.0
1211,C2,86.75,0.25,95,100.0
1212,C5,86.875,0.125,63,100.0
1213,D5,87.0,0.25,63,100.0
1214,B-2,87.0,0.25,90,100.0
1215,C2,87.0,0.25,90,100.0
1216,G2,87.0,0.25,90,100.0
1217,C#5,87.25,0.25,63,100.0
1218,G2,87.25,0.25,95,100.0
1219,D4,87.5,83/1000,63,100.0
1220,A4,87.5,0.125,63,100.0
1221,D2,87.5,83/1000,63,100.0
1222,B-2,87.5,0.25,87,100.0
1223,G2,87.5,0.25,87,100.0
1224,E-4,87.583,83/1000,38,100.0
1225,E-2,87.583,83/1000,38,100.0
1226,F#4,87.625,0.375,38,100.0
1227,E4,87.667,83/1000,63,100.0
1228,E2,87.667,83/1000,38,100.0
1229,D4,87.75,83/1000,63,100.0
1230,D2,87.75,83/1000,63,100.0
1231,C2,87.75,0.25,95,100.0
1232,C4,87.833,83/1000,38,100.0
1233,C2,87.833,83/1000,63,100.0
1234,A3,87.917,83/1000,63,100.0
1235,A1,87.917,83/1000,63,100.0
1236,G3,88.0,0.5,63,100.0
1237,G1,88.0,0.5,63,100.0
1238,A3,88.0,0.5,79,100.0
1239,C2,88.0,0.5,79,100.0
1240,A3,88.5,0.5,63,100.0
1241,A2,88.5,0.25,63,100.0
1242,A1,88.5,0.5,63,100.0
1243,F#2,88.5,0.25,79,100.0
1244,A2,88.75,0.25,63,100.0
1245,C2,88.75,0.25,95,100.0
1246,A2,89.0,0.5,63,100.0
1247,F#2,89.0,0.5,87,100.0
1248,E2,89.0,0.5,87,100.0
1249,D2,89.5,2.0,63,100.0
1250,F#4,89.5,2.0,63,100.0
1251,D4,89.5,2.0,63,100.0
1252,A3,89.5,2.0,63,100.0
1253,D4,89.5,2.0,63,100.0
1254,A3,89.5,2.0,63,100.0
1255,D3,89.5,2.0,63,100.0
1256,C2,89.5,1.0,95,100.0
1257,B-2,89.5,1.0,95,100.0
1258,B-2,90.5,0.5,87,100.0
1259,C2,90.5,0.5,87,100.0
1260,F#2,91.0,0.5,87,100.0
1261,E2,91.0,0.5,87,100.0
1262,D4,91.5,83/1000,63,100.0
1263,A2,91.5,0.25,63,100.0
1264,D2,91.5,83/1000,63,100.0
1265,F#2,91.5,0.5,87,100.0
1266,C2,91.5,0.5,87,100.0
1267,E-4,91.583,83/1000,38,100.0
1268,E-2,91.583,83/1000,38,100.0
1269,E4,91.667,83/1000,63,100.0
1270,E2,91.667,83/1000,38,100.0
1271,D4,91.75,83/1000,63,100.0
1272,A2,91.75,0.25,63,100.0
1273,D2,91.75,83/1000,63,100.0
1274,C4,91.833,83/1000,38,100.0
1275,C2,91.833,83/1000,63,100.0
1276,A3,91.917,83/1000,63,100.0
1277,A1,91.917,83/1000,63,100.0
1278,G3,92.0,0.5,63,100.0
1279,A2,92.0,0.25,63,100.0
1280,G1,92.0,0.5,63,100.0
1281,F#2,92.0,0.5,79,100.0
1282,C2,92.0,0.5,79,100.0
1283,A2,92.25,0.25,63,100.0
1284,A3,92.5,0.5,63,100.0
1285,A2,92.5,0.25,63,100.0
1286,A1,92.5,0.5,63,100.0
1287,F#2,92.5,0.25,79,100.0
1288,C2,92.5,0.25,79,100.0
1289,A2,92.75,0.25,63,100.0
1290,C2,92.75,0.25,95,100.0
1291,A2,93.0,0.5,63,100.0
1292,F#2,93.0,0.5,79,100.0
1293,E2,93.0,0.5,79,100.0
1294,C2,93.5,0.75,63,100.0
1295,B-2,93.5,0.25,63,100.0
1296,E4,93.5,1.0,63,100.0
1297,C4,93.5,1.0,63,100.0
1298,G3,93.5,1.0,63,100.0
1299,C4,93.5,2.5,63,100.0
1300,G3,93.5,2.5,63,100.0
1301,C3,93.5,2.5,63,100.0
1302,C2,93.75,0.25,79,100.0
1303,E2,93.75,0.25,79,100.0
1304,C2,94.0,167/1000,79,100.0
1305,B2,94.0,167/1000,79,100.0
1306,B2,94.167,167/1000,63,100.0
1307,B2,94.333,167/1000,63,100.0
1308,E3,94.5,0.5,63,100.0
1309,E2,94.5,0.5,63,100.0
1310,A2,94.5,0.25,63,100.0
1311,C2,94.75,0.25,79,100.0
1312,A2,94.75,0.25,79,100.0
1313,G3,95.0,0.5,63,100.0
1314,G2,95.0,0.5,63,100.0
1315,G2,95.0,0.25,63,100.0
1316,C2,95.25,0.25,79,100.0
1317,G2,95.25,0.25,79,100.0
1318,A3,95.5,0.25,63,100.0
1319,A2,95.5,0.25,63,100.0
1320,F2,95.5,0.25,63,100.0
1321,C4,95.75,0.25,63,100.0
1322,C3,95.75,0.25,63,100.0
1323,C2,95.75,0.25,79,100.0
1324,F2,95.75,0.25,79,100.0
1325,C4,96.0,0.5,63,100.0
1326,C3,96.0,0.5,63,100.0
1327,A3,96.0,0.5,79,100.0
1328,C2,96.0,0.5,79,100.0
1329,A3,96.5,0.5,63,100.0
1330,A2,96.5,0.5,63,100.0
1331,F#2,96.5,0.25,63,100.0
1332,C4,96.5,0.5,63,100.0
1333,G3,96.5,0.5,63,100.0
1334,C3,96.5,0.5,63,100.0
1335,C2,96.75,0.25,95,100.0
1336,G3,97.0,0.5,63,100.0
1337,G2,97.0,0.5,63,100.0
1338,F#2,97.0,0.5,79,100.0
1339,E2,97.0,0.5,79,100.0
1340,E3,97.5,0.5,63,100.0
1341,E2,97.5,0.5,63,100.0
1342,F#2,97.5,0.25,87,100.0
1343,C2,97.5,0.25,87,100.0
1344,C2,97.75,0.25,79,100.0
1345,G3,98.0,0.5,63,100.0
1346,G2,98.0,0.5,63,100.0
1347,C2,98.0,0.25,87,100.0
1348,B-2,98.0,0.25,87,100.0
1349,E2,98.25,0.25,79,100.0
1350,E3,98.5,0.5,63,100.0
1351,E2,98.5,0.5,63,100.0
1352,E2,98.5,0.25,79,100.0
1353,C2,98.75,0.25,79,100.0
1354,D3,99.0,0.25,63,100.0
1355,D2,99.0,0.5,63,100.0
1356,C2,99.0,0.25,79,100.0
1357,E2,99.0,0.25,79,100.0
1358,D3,99.25,0.5,63,100.0
1359,E2,99.25,0.25,79,100.0
1360,D2,99.5,0.25,63,100.0
1361,C2,99.5,0.25,79,100.0
1362,C3,99.75,0.25,63,100.0
1363,C2,99.75,0.25,63,100.0
1364,C2,99.75,0.25,79,100.0
1365,C3,100.0,1.0,63,100.0
1366,C2,100.0,1.0,63,100.0
1367,A3,100.0,0.5,79,100.0
1368,C2,100.0,0.5,79,100.0
1369,B-2,100.0,0.5,79,100.0
1370,C4,100.5,0.25,63,100.0
1371,G#2,100.5,0.25,79,100.0
1372,E2,100.5,0.25,79,100.0
1373,C4,100.75,0.25,63,100.0
1374,C2,100.75,0.25,79,100.0
1375,E2,100.75,0.25,79,100.0
1376,A3,101.0,0.5,63,100.0
1377,C2,101.0,0.5,63,100.0
1378,G#2,101.0,0.125,79,100.0
1379,B2,101.0,0.125,79,100.0
1380,B2,101.125,0.125,79,100.0
1381,B2,101.25,0.125,79,100.0
1382,B2,101.375,0.125,79,100.0
1383,C4,101.5,0.25,63,100.0
1384,C2,101.5,0.75,63,100.0
1385,E4,101.5,2.5,63,100.0
1386,C4,101.5,2.5,63,100.0
1387,G3,101.5,2.5,63,100.0
1388,C3,101.5,2.5,63,100.0
1389,G#2,101.5,0.25,79,100.0
1390,A2,101.5,0.25,79,100.0
1391,C2,101.5,0.25,79,100.0
1392,C4,101.75,0.25,63,100.0
1393,A2,101.75,0.25,79,100.0
1394,C2,101.75,0.25,79,100.0
1395,A3,102.0,0.25,63,100.0
1396,G#2,102.0,0.5,79,100.0
1397,C2,102.0,0.5,79,100.0
1398,C#3,102.0,0.5,79,100.0
1399,G3,102.25,0.25,63,100.0
1400,C2,102.25,0.25,63,100.0
1401,C4,102.5,0.25,63,100.0
1402,E1,102.5,0.5,63,100.0
1403,G#2,102.5,0.5,79,100.0
1404,C2,102.5,0.5,79,100.0
1405,C4,102.75,0.25,63,100.0
1406,A3,103.0,0.5,63,100.0
1407,G1,103.0,0.5,63,100.0
1408,G#2,103.0,0.125,71,100.0
1409,E2,103.0,0.125,71,100.0
1410,G2,103.125,0.125,79,100.0
1411,G2,103.25,0.125,79,100.0
1412,G2,103.375,0.125,79,100.0
1413,C4,103.5,0.25,63,100.0
1414,A1,103.5,0.25,63,100.0
1415,G#2,103.5,0.25,79,100.0
1416,C2,103.5,0.25,79,100.0
1417,F2,103.5,0.25,79,100.0
1418,G3,103.75,0.25,63,100.0
1419,B1,103.75,0.25,63,100.0
1420,F2,103.75,0.25,79,100.0
1421,A3,104.0,0.25,38,100.0
1422,C2,104.0,1.0,63,100.0
1423,E4,104.0,1.5,63,100.0
1424,C4,104.0,1.5,63,100.0
1425,G3,104.0,1.5,63,100.0
1426,C3,104.0,1.5,63,100.0
1427,B-2,104.0,0.5,79,100.0
1428,E2,104.0,0.5,79,100.0
1429,F#2,104.5,0.25,63,100.0
1430,E4,104.5,1.0,63,100.0
1431,B-3,104.5,1.0,63,100.0
1432,G3,104.5,1.0,63,100.0
1433,C3,104.5,1.0,63,100.0
1434,C2,104.75,0.25,95,100.0
1435,C2,105.0,0.75,63,100.0
1436,B-2,105.0,0.5,79,100.0
1437,E2,105.0,0.5,79,100.0
1438,B-2,105.5,0.25,47,100.0
1439,E4,105.5,0.5,63,100.0
1440,B-3,105.5,0.5,63,100.0
1441,G3,105.5,0.5,63,100.0
1442,C3,105.5,0.5,63,100.0
1443,C4,105.5,13/250,95,100.0
1444,G3,105.5,13/250,95,100.0
1445,D3,105.5,13/250,95,100.0
1446,C3,105.5,13/250,95,100.0
1447,C2,105.75,0.25,63,100.0
1448,C2,105.75,0.25,95,100.0
1449,G1,106.0,0.25,63,100.0
1450,E4,106.0,1.5,63,100.0
1451,B-3,106.0,1.5,63,100.0
1452,G3,106.0,1.5,63,100.0
1453,C3,106.0,1.5,63,100.0
1454,C4,106.0,13/250,95,100.0
1455,G3,106.0,13/250,95,100.0
1456,D3,106.0,13/250,95,100.0
1457,C3,106.0,13/250,95,100.0
1458,B-2,106.0,0.5,79,100.0
1459,E2,106.0,0.5,79,100.0
1460,A1,106.25,0.25,63,100.0
1461,C4,106.25,13/250,95,100.0
1462,G3,106.25,13/250,95,100.0
1463,D3,106.25,13/250,95,100.0
1464,C3,106.25,13/250,95,100.0
1465,B-1,106.5,0.25,63,100.0
1466,B-2,106.5,0.25,47,100.0
1467,C4,106.5,13/250,95,100.0
1468,G3,106.5,13/250,95,100.0
1469,D3,106.5,13/250,95,100.0
1470,C3,106.5,13/250,95,100.0
1471,B1,106.75,0.25,63,100.0
1472,C2,106.75,0.25,95,100.0
1473,C4,106.75,13/250,95,100.0
1474,G3,106.75,13/250,95,100.0
1475,D3,106.75,13/250,95,100.0
1476,C3,106.75,13/250,95,100.0
1477,C2,107.0,0.5,63,100.0
1478,C4,107.0,13/250,95,100.0
1479,G3,107.0,13/250,95,100.0
1480,D3,107.0,13/250,95,100.0
1481,C3,107.0,13/250,95,100.0
1482,B-2,107.0,0.5,95,100.0
1483,E2,107.0,0.5,95,100.0
1484,C4,107.25,0.25,63,100.0
1485,C3,107.25,0.25,63,100.0
1486,C#2,107.5,0.25,63,100.0
1487,E4,107.5,0.5,63,100.0
1488,B-3,107.5,0.5,63,100.0
1489,G3,107.5,0.5,63,100.0
1490,C3,107.5,0.5,63,100.0
1491,C4,107.5,0.25,63,100.0
1492,C3,107.5,0.25,63,100.0
1493,B-2,107.5,0.25,71,100.0
1494,C2,107.5,0.25,71,100.0
1495,A1,107.75,0.25,63,100.0
1496,C2,107.75,0.25,95,100.0
1497,C4,107.75,0.25,63,100.0
1498,C3,107.75,0.25,63,100.0
1499,D2,108.0,0.25,63,100.0
1500,F#4,108.0,1.5,63,100.0
1501,C4,108.0,1.5,63,100.0
1502,A3,108.0,1.5,63,100.0
1503,D3,108.0,1.5,63,100.0
1504,C4,108.0,13/250,95,100.0
1505,C3,108.0,13/250,95,100.0
1506,B-2,108.0,0.5,79,100.0
1507,E2,108.0,0.5,79,100.0
1508,D2,108.25,0.5,63,100.0
1509,C4,108.375,0.125,63,100.0
1510,C3,108.375,0.125,63,100.0
1511,B-2,108.5,0.25,47,100.0
1512,D4,108.5,0.5,63,100.0
1513,D3,108.5,0.5,63,100.0
1514,D2,108.75,0.25,63,100.0
1515,C2,108.75,0.25,95,100.0
1516,D2,109.0,0.75,63,100.0
1517,D4,109.0,0.25,63,100.0
1518,D3,109.0,0.25,63,100.0
1519,B-2,109.0,0.5,79,100.0
1520,E2,109.0,0.5,79,100.0
1521,D4,109.25,0.25,63,100.0
1522,D3,109.25,0.25,63,100.0
1523,F#2,109.5,0.25,47,100.0
1524,F#4,109.5,0.25,63,100.0
1525,C4,109.5,0.25,63,100.0
1526,A3,109.5,0.25,63,100.0
1527,D3,109.5,0.25,63,100.0
1528,D4,109.5,13/250,95,100.0
1529,A3,109.5,13/250,95,100.0
1530,D3,109.5,13/250,95,100.0
1531,E1,109.75,0.25,63,100.0
1532,C2,109.75,0.25,95,100.0
1533,F#4,109.75,0.25,63,100.0
1534,C4,109.75,0.25,63,100.0
1535,A3,109.75,0.25,63,100.0
1536,D3,109.75,0.25,63,100.0
1537,F#1,110.0,0.25,63,100.0
1538,F#4,110.0,1.0,63,100.0
1539,C4,110.0,1.0,63,100.0
1540,A3,110.0,1.0,63,100.0
1541,D3,110.0,1.0,63,100.0
1542,A3,110.0,13/250,95,100.0
1543,D3,110.0,13/250,95,100.0
1544,A2,110.0,13/250,95,100.0
1545,B-2,110.0,0.5,79,100.0
1546,E2,110.0,0.5,79,100.0
1547,G1,110.25,0.25,63,100.0
1548,F#4,110.25,0.25,63,100.0
1549,D4,110.25,0.25,63,100.0
1550,A3,110.25,0.25,63,100.0
1551,D3,110.25,0.25,63,100.0
1552,A1,110.5,0.5,63,100.0
1553,B-2,110.5,0.25,47,100.0
1554,F#4,110.5,0.25,63,100.0
1555,D4,110.5,0.25,63,100.0
1556,A3,110.5,0.25,63,100.0
1557,D3,110.5,0.25,63,100.0
1558,C2,110.75,0.25,95,100.0
1559,F#4,110.75,0.75,63,100.0
1560,D4,110.75,0.75,63,100.0
1561,A3,110.75,0.75,63,100.0
1562,D3,110.75,0.75,63,100.0
1563,B1,111.0,0.25,63,100.0
1564,F#4,111.0,1.0,63,100.0
1565,C4,111.0,1.0,63,100.0
1566,A3,111.0,1.0,63,100.0
1567,D3,111.0,1.0,63,100.0
1568,B-2,111.0,0.5,79,100.0
1569,E2,111.0,0.5,79,100.0
1570,C2,111.25,0.25,63,100.0
1571,D2,111.5,0.25,63,100.0
1572,B-2,111.5,0.5,47,100.0
1573,F#4,111.5,0.5,63,100.0
1574,D4,111.5,0.5,63,100.0
1575,A3,111.5,0.5,63,100.0
1576,D3,111.5,0.5,63,100.0
1577,A1,111.75,0.25,63,100.0
1578,E2,112.0,0.5,63,100.0
1579,E2,112.0,0.25,63,100.0
1580,B4,112.0,1.5,63,100.0
1581,F#4,112.0,1.5,63,100.0
1582,D4,112.0,1.5,63,100.0
1583,A3,112.0,1.5,63,100.0
1584,E3,112.0,1.5,63,100.0
1585,B-2,112.0,0.5,79,100.0
1586,E2,112.0,0.5,79,100.0
1587,E2,112.25,0.25,63,100.0
1588,D4,112.5,1.0,63,100.0
1589,A3,112.5,1.0,63,100.0
1590,E3,112.5,1.0,63,100.0
1591,E2,112.5,1.0,63,100.0
1592,B-2,112.5,0.25,63,100.0
1593,C2,112.5,0.25,63,100.0
1594,C2,112.75,0.25,95,100.0
1595,E2,113.0,0.25,63,100.0
1596,B-2,113.0,0.5,79,100.0
1597,E2,113.0,0.5,79,100.0
1598,A2,113.25,0.5,63,100.0
1599,B-2,113.5,0.25,47,100.0
1600,B4,113.5,0.5,63,100.0
1601,F#4,113.5,0.5,63,100.0
1602,D4,113.5,0.5,63,100.0
1603,A3,113.5,0.5,63,100.0
1604,E3,113.5,0.5,63,100.0
1605,F#4,113.5,0.5,63,100.0
1606,D4,113.5,0.5,63,100.0
1607,A3,113.5,0.5,63,100.0
1608,E3,113.5,0.5,63,100.0
1609,E2,113.75,1.25,63,100.0
1610,E2,113.75,0.25,71,100.0
1611,C2,113.75,0.25,71,100.0
1612,E2,114.0,0.25,63,100.0
1613,B4,114.0,1.5,63,100.0
1614,F#4,114.0,1.5,63,100.0
1615,D4,114.0,1.5,63,100.0
1616,A3,114.0,1.5,63,100.0
1617,E3,114.0,1.5,63,100.0
1618,C2,114.0,0.25,84,100.0
1619,B-2,114.0,0.25,84,100.0
1620,E2,114.0,0.25,84,100.0
1621,E2,114.25,0.5,63,100.0
1622,D3,114.25,0.25,47,100.0
1623,C2,114.5,0.25,95,100.0
1624,E2,114.75,0.25,63,100.0
1625,C3,114.75,0.25,47,100.0
1626,E3,115.0,0.5,63,100.0
1627,D2,115.0,0.25,63,100.0
1628,C2,115.0,0.25,95,100.0
1629,D2,115.25,0.25,63,100.0
1630,B2,115.25,0.25,47,100.0
1631,D4,115.5,83/1000,63,100.0
1632,E2,115.5,0.25,63,100.0
1633,C2,115.5,0.5,63,100.0
1634,C2,115.5,0.25,95,100.0
1635,E-4,115.583,83/1000,38,100.0
1636,E4,115.667,83/1000,63,100.0
1637,D4,115.75,83/1000,63,100.0
1638,E2,115.75,0.25,63,100.0
1639,A2,115.75,0.25,47,100.0
1640,C4,115.833,83/1000,38,100.0
1641,A3,115.917,83/1000,63,100.0
1642,G3,116.0,0.5,63,100.0
1643,E3,116.0,0.5,63,100.0
1644,G1,116.0,0.5,63,100.0
1645,C2,116.0,0.5,79,100.0
1646,A3,116.0,0.5,79,100.0
1647,A3,116.5,0.5,63,100.0
1648,A1,116.5,0.5,63,100.0
1649,C2,116.5,333/1000,95,100.0
1650,D3,116.5,13/250,95,100.0
1651,A2,116.5,13/250,95,100.0
1652,E2,116.5,13/250,95,100.0
1653,C3,116.833,167/1000,63,100.0
1654,D3,117.0,13/250,95,100.0
1655,A2,117.0,13/250,95,100.0
1656,E2,117.0,13/250,95,100.0
1657,C2,117.0,0.5,87,100.0
1658,C3,117.0,0.5,87,100.0
1659,A2,117.25,0.25,63,100.0
1660,A2,117.5,0.5,63,100.0
1661,D2,117.5,2.0,63,100.0
1662,F#4,117.5,2.0,63,100.0
1663,D4,117.5,2.0,63,100.0
1664,A3,117.5,2.0,63,100.0
1665,C#3,117.5,1.0,87,100.0
1666,C2,117.5,1.0,87,100.0
1667,D4,118.0,1.5,63,100.0
1668,A3,118.0,1.5,63,100.0
1669,D3,118.0,1.5,63,100.0
1670,C2,118.5,0.5,87,100.0
1671,B-2,118.5,0.5,87,100.0
1672,E2,119.0,0.5,87,100.0
1673,B-2,119.0,0.5,87,100.0
1674,D4,119.5,83/1000,63,100.0
1675,C4,119.5,167/1000,63,100.0
1676,D2,119.5,83/1000,63,100.0
1677,C2,119.5,0.25,95,100.0
1678,E-4,119.583,83/1000,38,100.0
1679,E-2,119.583,83/1000,38,100.0
1680,E4,119.667,83/1000,63,100.0
1681,G3,119.667,167/1000,63,100.0
1682,E2,119.667,83/1000,38,100.0
1683,D4,119.75,83/1000,63,100.0
1684,D2,119.75,83/1000,63,100.0
1685,C2,119.75,0.25,95,100.0
1686,C4,119.833,83/1000,38,100.0
1687,D3,119.833,167/1000,63,100.0
1688,C2,119.833,83/1000,63,100.0
1689,A3,119.917,83/1000,63,100.0
1690,A1,119.917,83/1000,63,100.0
1691,G3,120.0,0.5,63,100.0
1692,A2,120.0,0.5,63,100.0
1693,G1,120.0,0.5,63,100.0
1694,C2,120.0,0.5,95,100.0
1695,F#2,120.0,0.5,95,100.0
1696,A3,120.5,0.5,63,100.0
1697,A1,120.5,0.5,63,100.0
1698,C2,120.5,0.25,95,100.0
1699,D3,120.5,13/250,95,100.0
1700,A2,120.5,13/250,95,100.0
1701,E2,120.5,13/250,95,100.0
1702,C2,120.75,0.25,95,100.0
1703,E2,121.0,0.5,95,100.0
1704,D3,121.0,13/250,95,100.0
1705,A2,121.0,13/250,95,100.0
1706,E2,121.0,13/250,95,100.0
1707,D3,121.25,13/250,95,100.0
1708,A2,121.25,13/250,95,100.0
1709,E2,121.25,13/250,95,100.0
1710,C2,121.5,2.0,63,100.0
1711,E4,121.5,2.0,63,100.0
1712,C4,121.5,2.0,63,100.0
1713,G3,121.5,2.0,63,100.0
1714,D3,121.5,13/250,95,100.0
1715,A2,121.5,13/250,95,100.0
1716,E2,121.5,13/250,95,100.0
1717,A3,121.5,0.5,87,100.0
1718,C2,121.5,0.5,87,100.0
1719,B2,122.0,167/1000,79,100.0
1720,C4,122.0,1.5,63,100.0
1721,G3,122.0,1.5,63,100.0
1722,C3,122.0,1.5,63,100.0
1723,B2,122.167,167/1000,79,100.0
1724,B2,122.333,167/1000,79,100.0
1725,C2,122.5,167/1000,79,100.0
1726,A2,122.5,167/1000,79,100.0
1727,A2,122.667,167/1000,63,100.0
1728,A2,122.833,167/1000,63,100.0
1729,G2,123.0,167/1000,63,100.0
1730,G2,123.167,167/1000,63,100.0
1731,G2,123.333,167/1000,63,100.0
1732,D4,123.5,83/1000,63,100.0
1733,D2,123.5,83/1000,63,100.0
1734,G#2,123.5,0.25,71,100.0
1735,F2,123.5,0.25,71,100.0
1736,E-4,123.583,83/1000,38,100.0
1737,E-2,123.583,83/1000,38,100.0
1738,E4,123.667,83/1000,63,100.0
1739,E2,123.667,83/1000,38,100.0
1740,D4,123.75,83/1000,63,100.0
1741,D2,123.75,83/1000,63,100.0
1742,F2,123.75,0.25,63,100.0
1743,C4,123.833,83/1000,38,100.0
1744,C2,123.833,83/1000,63,100.0
1745,A3,123.917,83/1000,63,100.0
1746,A1,123.917,83/1000,63,100.0
1747,G3,124.0,0.5,63,100.0
1748,G1,124.0,0.5,63,100.0
1749,C#3,124.0,0.75,95,100.0
1750,C2,124.0,0.75,95,100.0
1751,G#5,124.375,0.125,63,100.0
1752,E-5,124.375,0.125,63,100.0
1753,C5,124.375,0.125,63,100.0
1754,A3,124.5,0.5,63,100.0
1755,A1,124.5,0.5,63,100.0
1756,A5,124.5,1.0,63,100.0
1757,E5,124.5,1.0,63,100.0
1758,C#5,124.5,1.0,63,100.0
1759,C2,124.75,0.25,95,100.0
1760,E-3,125.0,0.5,95,100.0
1761,E2,125.0,0.5,95,100.0
1762,D2,125.5,0.75,63,100.0
1763,C2,125.5,0.5,95,100.0
1764,F#4,125.5,2.0,63,100.0
1765,D4,125.5,2.0,63,100.0
1766,A3,125.5,2.0,63,100.0
1767,A5,125.5,1.0,63,100.0
1768,E5,125.5,1.0,63,100.0
1769,C2,126.0,0.5,95,100.0
1770,E-3,126.0,0.5,95,100.0
1771,A1,126.25,0.25,63,100.0
1772,D2,126.5,0.5,63,100.0
1773,C2,126.5,0.25,95,100.0
1774,A5,126.5,0.25,63,100.0
1775,E5,126.5,0.25,63,100.0
1776,A5,126.75,0.25,63,100.0
1777,C2,126.75,0.25,71,100.0
1778,E2,126.75,0.25,71,100.0
1779,D2,127.0,0.5,63,100.0
1780,G5,127.0,1.5,39,100.0
1781,G6,127.0,1.5,39,100.0
1782,E-3,127.0,0.5,95,100.0
1783,E2,127.0,0.5,95,100.0
1784,D4,127.5,83/1000,63,100.0
1785,D2,127.5,83/1000,63,100.0
1786,C2,127.5,0.5,95,100.0
1787,E-4,127.583,83/1000,38,100.0
1788,E-2,127.583,83/1000,38,100.0
1789,E4,127.667,83/1000,63,100.0
1790,E2,127.667,83/1000,38,100.0
1791,D4,127.75,83/1000,63,100.0
1792,D2,127.75,83/1000,63,100.0
1793,C4,127.833,83/1000,38,100.0
1794,C2,127.833,83/1000,63,100.0
1795,A3,127.917,83/1000,63,100.0
1796,A1,127.917,83/1000,63,100.0
1797,G3,128.0,0.5,63,100.0
1798,G1,128.0,0.5,63,100.0
1799,E-3,128.0,0.25,95,100.0
1800,C2,128.0,0.25,95,100.0
1801,C2,128.25,0.5,95,100.0
1802,A3,128.5,0.5,63,100.0
1803,A1,128.5,0.5,63,100.0
1804,C2,128.75,0.25,95,100.0
1805,E-3,129.0,0.5,95,100.0
1806,E2,129.0,0.5,95,100.0
1807,C2,129.5,0.75,63,100.0
1808,E4,129.5,2.0,63,100.0
1809,C4,129.5,2.0,63,100.0
1810,G3,129.5,2.0,63,100.0
1811,G5,129.5,1.0,39,100.0
1812,G6,129.5,1.0,39,100.0
1813,C2,129.5,0.5,95,100.0
1814,B-2,129.5,0.5,95,100.0
1815,E2,130.0,0.25,95,100.0
1816,G1,130.25,0.25,63,100.0
1817,C3,130.25,0.25,63,100.0
1818,D2,130.5,0.5,63,100.0
1819,E4,130.5,13/250,95,100.0
1820,A5,130.5,13/250,95,100.0
1821,E5,130.5,13/250,95,100.0
1822,A2,130.5,0.25,79,100.0
1823,C2,130.5,0.25,79,100.0
1824,A5,130.667,167/1000,63,100.0
1825,G2,130.75,0.25,79,100.0
1826,C2,130.75,0.25,79,100.0
1827,G5,130.833,167/1000,63,100.0
1828,E5,131.0,0.25,38,100.0
1829,C2,131.0,0.5,63,100.0
1830,C2,131.0,0.25,95,100.0
1831,G5,131.25,0.25,38,100.0
1832,E2,131.25,0.25,95,100.0
1833,D4,131.5,83/1000,63,100.0
1834,A5,131.5,0.25,63,100.0
1835,D2,131.5,83/1000,63,100.0
1836,C2,131.5,0.25,79,100.0
1837,C3,131.5,0.25,79,100.0
1838,E-4,131.583,83/1000,38,100.0
1839,E-2,131.583,83/1000,38,100.0
1840,E4,131.667,83/1000,63,100.0
1841,E2,131.667,83/1000,38,100.0
1842,D4,131.75,83/1000,63,100.0
1843,E5,131.75,0.25,63,100.0
1844,D2,131.75,83/1000,63,100.0
1845,A2,131.75,0.25,63,100.0
1846,C4,131.833,83/1000,38,100.0
1847,C2,131.833,83/1000,63,100.0
1848,A3,131.917,83/1000,63,100.0
1849,A1,131.917,83/1000,63,100.0
1850,G3,132.0,0.5,63,100.0
1851,G1,132.0,0.5,63,100.0
1852,E5,132.0,0.25,47,100.0
1853,G3,132.0,0.25,47,100.0
1854,C2,132.0,0.25,79,100.0
1855,E2,132.0,0.25,79,100.0
1856,A3,132.0,0.25,79,100.0
1857,A5,132.25,0.25,63,100.0
1858,C2,132.25,0.5,95,100.0
1859,A3,132.5,0.5,63,100.0
1860,C6,132.5,1.0,63,100.0
1861,A1,132.5,0.5,63,100.0
1862,C2,132.75,0.25,95,100.0
1863,E-3,133.0,0.5,95,100.0
1864,E2,133.0,0.5,95,100.0
1865,D2,133.5,0.75,63,100.0
1866,C2,133.5,0.5,95,100.0
1867,F#4,133.5,2.0,63,100.0
1868,D4,133.5,2.0,63,100.0
1869,A3,133.5,2.0,63,100.0
1870,C6,133.5,0.25,63,100.0
1871,G5,133.5,0.25,63,100.0
1872,C6,133.75,0.25,31,100.0
1873,A5,134.0,0.5,38,100.0
1874,C2,134.0,0.5,95,100.0
1875,E-3,134.0,0.5,95,100.0
1876,A1,134.25,0.25,63,100.0
1877,C6,134.5,333/1000,63,100.0
1878,D2,134.5,167/1000,63,100.0
1879,C2,134.5,0.5,95,100.0
1880,E2,134.667,333/1000,38,100.0
1881,A5,134.833,167/1000,63,100.0
1882,C6,135.0,167/1000,63,100.0
1883,D2,135.0,0.5,63,100.0
1884,E2,135.0,0.5,95,100.0
1885,E-3,135.0,0.5,95,100.0
1886,A5,135.167,167/1000,38,100.0
1887,G#5,135.333,167/1000,63,100.0
1888,D4,135.5,83/1000,63,100.0
1889,A5,135.5,167/1000,63,100.0
1890,D2,135.5,83/1000,63,100.0
1891,C2,135.5,0.25,95,100.0
1892,E-4,135.583,83/1000,38,100.0
1893,E-2,135.583,83/1000,38,100.0
1894,E4,135.667,83/1000,63,100.0
1895,G#5,135.667,167/1000,63,100.0
1896,E2,135.667,83/1000,38,100.0
1897,D4,135.75,83/1000,63,100.0
1898,D2,135.75,83/1000,63,100.0
1899,C2,135.75,0.25,95,100.0
1900,C4,135.833,83/1000,38,100.0
1901,E5,135.833,167/1000,38,100.0
1902,C2,135.833,83/1000,63,100.0
1903,A3,135.917,83/1000,63,100.0
1904,A1,135.917,83/1000,63,100.0
1905,G3,136.0,0.5,63,100.0
1906,A5,136.0,0.25,63,100.0
1907,G1,136.0,0.5,63,100.0
1908,E-3,136.0,0.25,95,100.0
1909,C2,136.0,0.25,95,100.0
1910,E5,136.25,0.25,63,100.0
1911,C2,136.25,0.25,95,100.0
1912,A3,136.5,0.5,63,100.0
1913,G5,136.5,0.25,63,100.0
1914,A1,136.5,0.5,63,100.0
1915,E5,136.75,0.25,63,100.0
1916,D5,137.0,0.5,39,100.0
1917,D6,137.0,0.5,39,100.0
1918,E-3,137.0,0.25,95,100.0
1919,E2,137.0,0.25,95,100.0
1920,C2,137.5,0.75,63,100.0
1921,E4,137.5,2.0,63,100.0
1922,C4,137.5,2.0,63,100.0
1923,G3,137.5,2.0,63,100.0
1924,C2,137.75,0.25,79,100.0
1925,C2,138.0,0.5,95,100.0
1926,E-3,138.0,0.5,95,100.0
1927,G1,138.25,0.25,63,100.0
1928,D2,138.5,0.5,63,100.0
1929,C2,138.5,0.5,95,100.0
1930,D5,138.5,1.0,39,100.0
1931,D6,138.5,1.0,39,100.0
1932,C2,139.0,0.5,63,100.0
1933,E2,139.0,0.5,95,100.0
1934,E-3,139.0,0.5,95,100.0
1935,D4,139.5,83/1000,63,100.0
1936,E5,139.5,0.125,63,100.0
1937,D2,139.5,83/1000,63,100.0
1938,C2,139.5,0.5,95,100.0
1939,E-4,139.583,83/1000,38,100.0
1940,E-2,139.583,83/1000,38,100.0
1941,B4,139.625,0.125,63,100.0
1942,E4,139.667,83/1000,63,100.0
1943,E2,139.667,83/1000,38,100.0
1944,D4,139.75,83/1000,63,100.0
1945,G4,139.75,0.125,63,100.0
1946,D2,139.75,83/1000,63,100.0
1947,C4,139.833,83/1000,38,100.0
1948,C2,139.833,83/1000,63,100.0
1949,E4,139.875,0.125,63,100.0
1950,A3,139.917,83/1000,63,100.0
1951,A1,139.917,83/1000,63,100.0
1952,G3,140.0,0.5,63,100.0
1953,C4,140.0,0.25,63,100.0
1954,G1,140.0,0.5,63,100.0
1955,C2,140.0,0.75,95,100.0
1956,E-3,140.0,0.75,95,100.0
1957,A4,140.25,0.25,63,100.0
1958,E4,140.25,0.25,63,100.0
1959,A3,140.5,0.5,63,100.0
1960,D4,140.5,0.25,63,100.0
1961,A1,140.5,0.5,63,100.0
1962,C4,140.75,0.25,63,100.0
1963,C2,140.75,0.25,95,100.0
1964,D4,141.0,0.5,31,100.0
1965,D5,141.0,0.5,31,100.0
1966,E2,141.0,0.5,95,100.0
1967,E-3,141.0,0.5,95,100.0
1968,D4,141.5,0.5,63,100.0
1969,D2,141.5,0.75,63,100.0
1970,C2,141.5,0.5,95,100.0
1971,F#4,141.5,2.0,63,100.0
1972,D4,141.5,2.0,63,100.0
1973,A3,141.5,2.0,63,100.0
1974,C4,142.0,0.25,63,100.0
1975,C2,142.0,0.5,95,100.0
1976,E-3,142.0,0.5,95,100.0
1977,D4,142.25,0.25,63,100.0
1978,A1,142.25,0.25,63,100.0
1979,C#5,142.5,167/1000,63,100.0
1980,D2,142.5,167/1000,63,100.0
1981,C#5,142.667,167/1000,63,100.0
1982,E2,142.667,333/1000,38,100.0
1983,A5,142.833,83/1000,63,100.0
1984,E5,142.833,83/1000,63,100.0
1985,A5,142.917,83/1000,38,100.0
1986,E5,143.0,333/1000,38,100.0
1987,D2,143.0,0.5,63,100.0
1988,E2,143.0,0.25,95,100.0
1989,E-3,143.0,0.25,95,100.0
1990,E2,143.25,0.25,63,100.0
1991,A5,143.333,167/1000,63,100.0
1992,E5,143.333,167/1000,63,100.0
1993,D4,143.5,83/1000,63,100.0
1994,G5,143.5,167/1000,63,100.0
1995,D2,143.5,83/1000,63,100.0
1996,C2,143.5,0.25,95,100.0
1997,E-4,143.583,83/1000,38,100.0
1998,E-2,143.583,83/1000,38,100.0
1999,E4,143.667,83/1000,63,100.0
2000,E5,143.667,167/1000,38,100.0
2001,E2,143.667,83/1000,38,100.0
2002,D4,143.75,83/1000,63,100.0
2003,D2,143.75,83/1000,63,100.0
2004,C2,143.75,0.25,95,100.0
2005,C4,143.833,83/1000,38,100.0
2006,D5,143.833,83/1000,63,100.0
2007,C2,143.833,83/1000,63,100.0
2008,A3,143.917,83/1000,63,100.0
2009,E5,143.917,83/1000,63,100.0
2010,A1,143.917,83/1000,63,100.0
2011,G3,144.0,0.5,63,100.0
2012,C5,144.0,167/1000,63,100.0
2013,G1,144.0,0.5,63,100.0
2014,C2,144.0,0.5,95,100.0
2015,E-3,144.0,0.5,95,100.0
2016,A4,144.167,333/1000,63,100.0
2017,E4,144.375,13/250,95,100.0
2018,B3,144.375,13/250,95,100.0
2019,A3,144.5,0.5,63,100.0
2020,A1,144.5,0.5,63,100.0
2021,C2,144.5,0.25,95,100.0
2022,E4,144.5,0.25,84,100.0
2023,B3,144.5,0.25,84,100.0
2024,C5,144.5,0.25,84,100.0
2025,E4,144.75,0.25,63,100.0
2026,D2,144.75,0.25,47,100.0
2027,E4,145.0,0.25,63,100.0
2028,E-3,145.0,0.5,95,100.0
2029,E2,145.0,0.5,95,100.0
2030,G4,145.25,0.25,63,100.0
2031,D4,145.5,0.5,63,100.0
2032,C2,145.5,0.75,63,100.0
2033,C2,145.5,0.5,95,100.0
2034,E4,145.5,2.0,63,100.0
2035,C4,145.5,2.0,63,100.0
2036,G3,145.5,2.0,63,100.0
2037,C4,146.0,0.25,63,100.0
2038,E-3,146.0,0.25,95,100.0
2039,C2,146.0,0.25,95,100.0
2040,D4,146.25,0.25,63,100.0
2041,A1,146.25,0.25,63,100.0
2042,C2,146.25,0.5,95,100.0
2043,E4,146.5,0.25,63,100.0
2044,D2,146.5,0.25,63,100.0
2045,A1,146.75,0.25,63,100.0
2046,C2,146.75,0.25,95,100.0
2047,C5,146.75,0.25,63,100.0
2048,G4,146.75,0.25,63,100.0
2049,E5,147.0,0.25,63,100.0
2050,C2,147.0,0.5,63,100.0
2051,E-3,147.0,1.0,95,100.0
2052,E2,147.0,1.0,95,100.0
2053,E4,147.25,0.25,63,100.0
2054,D4,147.5,83/1000,63,100.0
2055,D4,147.5,0.25,63,100.0
2056,D2,147.5,83/1000,63,100.0
2057,E-4,147.583,83/1000,38,100.0
2058,E-2,147.583,83/1000,38,100.0
2059,E4,147.667,83/1000,63,100.0
2060,E2,147.667,83/1000,38,100.0
2061,D4,147.75,83/1000,63,100.0
2062,E5,147.75,0.25,63,100.0
2063,D2,147.75,83/1000,63,100.0
2064,C4,147.833,83/1000,38,100.0
2065,C2,147.833,83/1000,63,100.0
2066,A3,147.917,83/1000,63,100.0
2067,A1,147.917,83/1000,63,100.0
2068,G3,148.0,0.5,63,100.0
2069,G5,148.0,0.25,63,100.0
2070,G1,148.0,0.5,63,100.0
2071,E-3,148.0,0.25,95,100.0
2072,C2,148.0,0.25,95,100.0
2073,D5,148.25,1.25,63,100.0
2074,A3,148.5,0.5,63,100.0
2075,A1,148.5,0.5,63,100.0
2076,C2,148.75,0.25,95,100.0
2077,E-3,149.0,0.5,95,100.0
2078,E2,149.0,0.5,95,100.0
2079,A4,149.5,167/1000,63,100.0
2080,D2,149.5,0.75,63,100.0
2081,C2,149.5,0.5,95,100.0
2082,F#4,149.5,2.0,63,100.0
2083,D4,149.5,2.0,63,100.0
2084,A3,149.5,2.0,63,100.0
2085,C5,149.667,167/1000,63,100.0
2086,C5,149.833,167/1000,63,100.0
2087,D5,150.0,333/1000,63,100.0
2088,E-3,150.0,0.25,95,100.0
2089,C2,150.0,0.25,95,100.0
2090,A1,150.25,0.25,63,100.0
2091,C2,150.25,0.5,95,100.0
2092,B4,150.333,167/1000,63,100.0
2093,C5,150.5,0.125,63,100.0
2094,D2,150.5,167/1000,63,100.0
2095,A4,150.625,0.125,63,100.0
2096,E2,150.667,333/1000,38,100.0
2097,G4,150.75,0.125,38,100.0
2098,C2,150.75,0.25,95,100.0
2099,A4,150.875,0.125,38,100.0
2100,C5,151.0,0.25,63,100.0
2101,D2,151.0,0.5,63,100.0
2102,E-3,151.0,0.5,95,100.0
2103,E2,151.0,0.5,95,100.0
2104,G4,151.25,0.25,63,100.0
2105,D4,151.5,83/1000,63,100.0
2106,A4,151.5,0.5,63,100.0
2107,D2,151.5,83/1000,63,100.0
2108,C2,151.5,0.5,95,100.0
2109,E-4,151.583,83/1000,38,100.0
2110,E-2,151.583,83/1000,38,100.0
2111,E4,151.667,83/1000,63,100.0
2112,E2,151.667,83/1000,38,100.0
2113,D4,151.75,83/1000,63,100.0
2114,D2,151.75,83/1000,63,100.0
2115,C4,151.833,83/1000,38,100.0
2116,C2,151.833,83/1000,63,100.0
2117,A3,151.917,83/1000,63,100.0
2118,A1,151.917,83/1000,63,100.0
2119,G3,152.0,0.5,63,100.0
2120,G3,152.0,0.125,63,100.0
2121,G1,152.0,0.5,63,100.0
2122,E-3,152.0,0.5,95,100.0
2123,C2,152.0,0.5,95,100.0
2124,A3,152.125,0.125,38,100.0
2125,G3,152.25,0.125,63,100.0
2126,A3,152.375,0.125,38,100.0
2127,A3,152.5,0.5,63,100.0
2128,C4,152.5,0.125,63,100.0
2129,A1,152.5,0.5,63,100.0
2130,C2,152.5,0.5,95,100.0
2131,A3,152.625,0.125,63,100.0
2132,G3,152.75,0.125,38,100.0
2133,A3,152.875,0.125,38,100.0
2134,G3,153.0,0.25,38,100.0
2135,E-3,153.0,0.5,95,100.0
2136,E2,153.0,0.5,95,100.0
2137,D3,153.25,0.25,63,100.0
2138,D3,153.5,0.25,63,100.0
2139,C2,153.5,0.75,63,100.0
2140,C2,153.5,0.5,95,100.0
2141,E4,153.5,2.0,63,100.0
2142,C4,153.5,2.0,63,100.0
2143,G3,153.5,2.0,63,100.0
2144,A2,153.75,0.125,63,100.0
2145,A2,153.875,0.125,63,100.0
2146,G2,154.0,0.25,63,100.0
2147,E-3,154.0,0.25,95,100.0
2148,C2,154.0,0.25,95,100.0
2149,E2,154.25,0.25,63,100.0
2150,G1,154.25,0.25,63,100.0
2151,E2,154.5,0.5,63,100.0
2152,D2,154.5,0.5,63,100.0
2153,C2,154.75,0.25,95,100.0
2154,A2,155.0,0.25,63,100.0
2155,C2,155.0,0.5,63,100.0
2156,E-3,155.0,0.5,95,100.0
2157,E2,155.0,0.5,95,100.0
2158,C3,155.25,0.25,63,100.0
2159,D4,155.5,83/1000,63,100.0
2160,D3,155.5,0.5,63,100.0
2161,D2,155.5,83/1000,63,100.0
2162,C2,155.5,0.5,95,100.0
2163,E-4,155.583,83/1000,38,100.0
2164,E-2,155.583,83/1000,38,100.0
2165,E4,155.667,83/1000,63,100.0
2166,E2,155.667,83/1000,38,100.0
2167,D4,155.75,83/1000,63,100.0
2168,D2,155.75,83/1000,63,100.0
2169,C4,155.833,83/1000,38,100.0
2170,C2,155.833,83/1000,63,100.0
2171,A3,155.917,83/1000,63,100.0
2172,A1,155.917,83/1000,63,100.0
2173,C3,156.0,1.0,63,100.0
2174,C4,156.0,0.25,63,100.0
2175,C2,156.0,0.25,63,100.0
2176,A3,156.0,0.5,79,100.0
2177,E2,156.0,0.5,79,100.0
2178,A3,156.25,0.25,63,100.0
2179,C2,156.25,0.5,63,100.0
2180,C4,156.5,0.25,63,100.0
2181,C2,156.5,0.25,95,100.0
2182,A3,156.75,0.25,63,100.0
2183,C2,156.75,0.25,63,100.0
2184,C2,156.75,0.25,95,100.0
2185,C3,157.0,0.5,63,100.0
2186,C4,157.0,0.25,63,100.0
2187,C2,157.0,0.75,63,100.0
2188,B-2,157.0,0.5,87,100.0
2189,E2,157.0,0.5,87,100.0
2190,D4,157.25,0.5,63,100.0
2191,C2,157.5,0.25,95,100.0
2192,G4,157.5,0.5,63,100.0
2193,E-4,157.5,0.5,63,100.0
2194,B-3,157.5,0.5,63,100.0
2195,C2,157.75,0.25,63,100.0
2196,C2,157.75,0.25,95,100.0
2197,A4,157.75,0.25,63,100.0
2198,E4,157.75,0.25,63,100.0
2199,A4,158.0,0.25,63,100.0
2200,G1,158.0,0.25,63,100.0
2201,G4,158.0,0.5,63,100.0
2202,E-4,158.0,0.5,63,100.0
2203,B-3,158.0,0.5,63,100.0
2204,E2,158.0,0.5,87,100.0
2205,B-2,158.0,0.5,87,100.0
2206,G#4,158.25,0.25,63,100.0
2207,A1,158.25,0.25,63,100.0
2208,E4,158.5,0.25,63,100.0
2209,B1,158.5,0.5,63,100.0
2210,C2,158.5,0.25,95,100.0
2211,A4,158.5,0.5,63,100.0
2212,F4,158.5,0.5,63,100.0
2213,C4,158.5,0.5,63,100.0
2214,G4,158.75,0.25,63,100.0
2215,C2,158.75,0.25,95,100.0
2216,C5,159.0,0.25,63,100.0
2217,C2,159.0,0.5,63,100.0
2218,G4,159.0,0.5,63,100.0
2219,E-4,159.0,0.5,63,100.0
2220,B-3,159.0,0.5,63,100.0
2221,E2,159.0,0.5,87,100.0
2222,B-2,159.0,0.5,87,100.0
2223,G4,159.25,0.25,63,100.0
2224,B-4,159.5,0.625,63,100.0
2225,C#2,159.5,0.25,63,100.0
2226,C2,159.5,0.25,95,100.0
2227,A4,159.5,0.5,63,100.0
2228,F4,159.5,0.5,63,100.0
2229,C4,159.5,0.5,63,100.0
2230,A1,159.75,0.25,63,100.0
2231,C2,159.75,0.25,95,100.0
2232,D2,160.0,0.25,63,100.0
2233,A4,160.0,0.75,63,100.0
2234,F4,160.0,0.75,63,100.0
2235,C4,160.0,0.75,63,100.0
2236,D3,160.0,0.75,63,100.0
2237,E2,160.0,0.5,95,100.0
2238,B-2,160.0,0.5,95,100.0
2239,E4,160.125,13/250,95,100.0
2240,B3,160.25,13/250,95,100.0
2241,D2,160.25,0.5,63,100.0
2242,F4,160.375,0.125,63,100.0
2243,E-4,160.5,0.125,63,100.0
2244,C2,160.5,0.25,95,100.0
2245,F4,160.625,0.125,63,100.0
2246,E-4,160.75,0.125,63,100.0
2247,E1,160.75,0.25,63,100.0
2248,C2,160.75,0.25,95,100.0
2249,A4,160.75,0.25,63,100.0
2250,F4,160.75,0.25,63,100.0
2251,C4,160.75,0.25,63,100.0
2252,G4,160.875,0.062,63,100.0
2253,E4,160.938,0.062,63,100.0
2254,C4,161.0,167/1000,63,100.0
2255,F#1,161.0,0.25,63,100.0
2256,B4,161.0,0.5,63,100.0
2257,G4,161.0,0.5,63,100.0
2258,D4,161.0,0.5,63,100.0
2259,B-2,161.0,0.5,95,100.0
2260,E2,161.0,0.5,95,100.0
2261,B-3,161.167,167/1000,63,100.0
2262,G1,161.25,0.25,63,100.0
2263,C4,161.333,167/1000,63,100.0
2264,E-4,161.5,0.125,63,100.0
2265,A1,161.5,0.25,63,100.0
2266,C2,161.5,0.25,95,100.0
2267,B4,161.5,0.25,63,100.0
2268,G#4,161.5,0.25,63,100.0
2269,C#4,161.5,0.25,63,100.0
2270,C4,161.625,0.125,63,100.0
2271,B-3,161.75,0.125,63,100.0
2272,C2,161.75,0.25,63,100.0
2273,C2,161.75,0.25,95,100.0
2274,C5,161.75,0.75,63,100.0
2275,A4,161.75,0.75,63,100.0
2276,D4,161.75,0.75,63,100.0
2277,G3,161.875,0.125,63,100.0
2278,F3,162.0,0.5,63,100.0
2279,E2,162.0,0.25,63,100.0
2280,B-2,162.0,0.5,95,100.0
2281,E2,162.0,0.5,95,100.0
2282,E-2,162.25,0.25,63,100.0
2283,A3,162.5,0.5,63,100.0
2284,D2,162.5,0.25,63,100.0
2285,C2,162.5,0.25,95,100.0
2286,C5,162.5,0.25,63,100.0
2287,A4,162.5,0.25,63,100.0
2288,D4,162.5,0.25,63,100.0
2289,C#2,162.75,0.25,63,100.0
2290,C2,162.75,0.25,95,100.0
2291,C5,162.75,0.25,63,100.0
2292,A4,162.75,0.25,63,100.0
2293,D4,162.75,0.25,63,100.0
2294,G4,163.0,0.25,63,100.0
2295,D2,163.0,0.25,63,100.0
2296,C5,163.0,0.25,63,100.0
2297,A4,163.0,0.25,63,100.0
2298,D4,163.0,0.25,63,100.0
2299,E2,163.0,0.5,95,100.0
2300,B-2,163.0,0.5,95,100.0
2301,A4,163.25,0.25,63,100.0
2302,A1,163.25,0.25,63,100.0
2303,C5,163.25,0.25,63,100.0
2304,A4,163.25,0.25,63,100.0
2305,D4,163.25,0.25,63,100.0
2306,C5,163.5,167/1000,63,100.0
2307,E-2,163.5,0.5,63,100.0
2308,C2,163.5,0.25,95,100.0
2309,A4,163.667,167/1000,63,100.0
2310,C2,163.75,0.25,95,100.0
2311,C5,163.833,167/1000,63,100.0
2312,D5,164.0,167/1000,63,100.0
2313,E2,164.0,0.75,63,100.0
2314,B4,164.0,1.5,63,100.0
2315,F#4,164.0,1.5,63,100.0
2316,D4,164.0,1.5,63,100.0
2317,A3,164.0,1.5,63,100.0
2318,E3,164.0,1.5,63,100.0
2319,E2,164.0,0.5,95,100.0
2320,B-2,164.0,0.5,95,100.0
2321,A4,164.167,167/1000,63,100.0
2322,C5,164.333,167/1000,63,100.0
2323,D5,164.5,0.125,63,100.0
2324,C2,164.5,0.25,95,100.0
2325,G5,164.625,0.25,63,100.0
2326,E2,164.75,0.25,63,100.0
2327,C2,164.75,0.25,95,100.0
2328,F5,164.875,0.125,63,100.0
2329,D5,165.0,0.125,63,100.0
2330,E-2,165.0,0.25,63,100.0
2331,E2,165.0,0.5,95,100.0
2332,B-2,165.0,0.5,95,100.0
2333,A4,165.125,0.125,63,100.0
2334,A4,165.25,0.125,63,100.0
2335,D2,165.25,0.25,38,100.0
2336,C5,165.375,0.125,63,100.0
2337,A4,165.5,0.125,63,100.0
2338,E2,165.5,0.75,63,100.0
2339,C2,165.5,0.25,95,100.0
2340,B4,165.5,0.5,63,100.0
2341,F#4,165.5,0.5,63,100.0
2342,D4,165.5,0.5,63,100.0
2343,A3,165.5,0.5,63,100.0
2344,E3,165.5,0.5,63,100.0
2345,C5,165.625,0.375,63,100.0
2346,C2,165.75,0.25,95,100.0
2347,F4,166.0,0.5,63,100.0
2348,B4,166.0,1.5,63,100.0
2349,F#4,166.0,1.5,63,100.0
2350,D4,166.0,1.5,63,100.0
2351,A3,166.0,1.5,63,100.0
2352,E3,166.0,1.5,63,100.0
2353,E2,166.0,0.5,95,100.0
2354,B-2,166.0,0.5,95,100.0
2355,E2,166.25,0.25,63,100.0
2356,A4,166.375,0.125,63,100.0
2357,B4,166.5,0.25,63,100.0
2358,E2,166.5,0.5,63,100.0
2359,E2,166.5,0.25,95,100.0
2360,E5,166.75,0.25,63,100.0
2361,C2,166.75,0.25,95,100.0
2362,D5,167.0,0.25,63,100.0
2363,D2,167.0,0.5,63,100.0
2364,B-2,167.0,0.25,95,100.0
2365,E2,167.0,0.25,95,100.0
2366,D5,167.25,0.25,31,100.0
2367,E2,167.25,0.25,95,100.0
2368,D4,167.5,83/1000,63,100.0
2369,D5,167.5,0.25,31,100.0
2370,D2,167.5,83/1000,63,100.0
2371,E2,167.5,0.25,95,100.0
2372,C2,167.5,0.25,95,100.0
2373,E-4,167.583,83/1000,38,100.0
2374,E-2,167.583,83/1000,38,100.0
2375,E4,167.667,83/1000,63,100.0
2376,E2,167.667,83/1000,38,100.0
2377,D4,167.75,83/1000,63,100.0
2378,B4,167.75,0.25,38,100.0
2379,D2,167.75,83/1000,63,100.0
2380,E2,167.75,0.25,95,100.0
2381,C2,167.75,0.25,95,100.0
2382,C4,167.833,83/1000,38,100.0
2383,C2,167.833,83/1000,63,100.0
2384,A3,167.917,83/1000,63,100.0
2385,A1,167.917,83/1000,63,100.0
2386,G3,168.0,0.5,63,100.0
2387,G1,168.0,0.5,63,100.0
2388,D5,168.0,0.125,63,100.0
2389,G4,168.0,0.125,63,100.0
2390,C2,168.0,0.25,95,100.0
2391,C#3,168.0,0.25,95,100.0
2392,D5,168.125,0.25,63,100.0
2393,G4,168.125,0.25,63,100.0
2394,B4,168.375,0.125,38,100.0
2395,A3,168.5,0.5,63,100.0
2396,E5,168.5,0.125,63,100.0
2397,A1,168.5,0.5,63,100.0
2398,D5,168.625,0.125,63,100.0
2399,B4,168.75,0.125,63,100.0
2400,C2,168.75,0.25,95,100.0
2401,D5,168.875,0.125,63,100.0
2402,E5,169.0,0.5,63,100.0
2403,E-3,169.0,0.5,95,100.0
2404,E2,169.0,0.5,95,100.0
2405,D5,169.5,1.0,63,100.0
2406,D2,169.5,2.0,63,100.0
2407,C2,169.5,0.5,95,100.0
2408,F#4,169.5,2.0,63,100.0
2409,D4,169.5,2.0,63,100.0
2410,A3,169.5,2.0,63,100.0
2411,E-3,170.0,0.25,95,100.0
2412,C2,170.0,0.25,95,100.0
2413,D4,170.5,0.5,63,100.0
2414,B-2,170.75,0.25,71,100.0
2415,C2,170.75,0.25,71,100.0
2416,E4,171.0,0.25,63,100.0
2417,F#2,171.0,0.5,95,100.0
2418,E2,171.0,0.5,95,100.0
2419,A3,171.25,0.25,63,100.0
2420,D4,171.5,83/1000,63,100.0
2421,C4,171.5,0.125,63,100.0
2422,D2,171.5,83/1000,63,100.0
2423,C2,171.5,0.5,95,100.0
2424,E-4,171.583,83/1000,38,100.0
2425,E-2,171.583,83/1000,38,100.0
2426,A3,171.625,0.125,63,100.0
2427,E4,171.667,83/1000,63,100.0
2428,E2,171.667,83/1000,38,100.0
2429,D4,171.75,83/1000,63,100.0
2430,C4,171.75,0.125,63,100.0
2431,D2,171.75,83/1000,63,100.0
2432,C4,171.833,83/1000,38,100.0
2433,C2,171.833,83/1000,63,100.0
2434,D4,171.875,0.125,38,100.0
2435,A3,171.917,83/1000,63,100.0
2436,A1,171.917,83/1000,63,100.0
2437,G3,172.0,0.5,63,100.0
2438,G1,172.0,0.5,63,100.0
2439,A4,172.0,0.25,63,100.0
2440,E4,172.0,0.25,63,100.0
2441,F#2,172.0,0.5,87,100.0
2442,C2,172.0,0.5,87,100.0
2443,C5,172.25,0.25,63,100.0
2444,A3,172.5,0.5,63,100.0
2445,A4,172.5,0.125,63,100.0
2446,A1,172.5,0.5,63,100.0
2447,F#2,172.5,0.25,87,100.0
2448,C2,172.5,0.25,87,100.0
2449,A4,172.625,0.125,63,100.0
2450,G4,172.75,0.25,63,100.0
2451,F#2,172.75,0.25,87,100.0
2452,C2,172.75,0.25,87,100.0
2453,C4,173.0,0.125,63,100.0
2454,B-2,173.0,0.5,87,100.0
2455,E2,173.0,0.5,87,100.0
2456,D4,173.125,0.375,63,100.0
2457,C4,173.5,0.125,63,100.0
2458,C2,173.5,2.0,63,100.0
2459,E4,173.5,2.0,63,100.0
2460,C4,173.5,2.0,63,100.0
2461,G3,173.5,2.0,63,100.0
2462,F#2,173.5,0.5,84,100.0
2463,G#2,173.5,0.5,84,100.0
2464,C2,173.5,0.5,84,100.0
2465,E4,173.625,0.125,63,100.0
2466,G3,173.75,0.5,63,100.0
2467,B-2,174.0,167/1000,79,100.0
2468,E2,174.0,167/1000,79,100.0
2469,C3,174.167,167/1000,79,100.0
2470,E3,174.25,0.25,63,100.0
2471,B2,174.333,167/1000,63,100.0
2472,C3,174.5,0.5,63,100.0
2473,G#2,174.5,167/1000,79,100.0
2474,E2,174.5,167/1000,79,100.0
2475,A2,174.667,167/1000,63,100.0
2476,G2,174.833,167/1000,63,100.0
2477,D3,175.0,0.25,63,100.0
2478,G#2,175.0,0.125,79,100.0
2479,E2,175.0,0.125,79,100.0
2480,E2,175.125,0.125,63,100.0
2481,E3,175.25,0.25,38,100.0
2482,C2,175.25,0.25,95,100.0
2483,D4,175.5,83/1000,63,100.0
2484,E3,175.5,167/1000,63,100.0
2485,D2,175.5,83/1000,63,100.0
2486,G#2,175.5,0.125,79,100.0
2487,E2,175.5,0.125,79,100.0
2488,E-4,175.583,83/1000,38,100.0
2489,E-2,175.583,83/1000,38,100.0
2490,E2,175.625,0.125,63,100.0
2491,E4,175.667,83/1000,63,100.0
2492,A3,175.667,167/1000,63,100.0
2493,E2,175.667,83/1000,38,100.0
2494,D4,175.75,83/1000,63,100.0
2495,D2,175.75,83/1000,63,100.0
2496,C2,175.75,0.25,95,100.0
2497,C4,175.833,83/1000,38,100.0
2498,C4,175.833,167/1000,63,100.0
2499,C2,175.833,83/1000,63,100.0
2500,A3,175.917,83/1000,63,100.0
2501,A1,175.917,83/1000,63,100.0
2502,G3,176.0,0.5,63,100.0
2503,A3,176.0,0.125,63,100.0
2504,G1,176.0,0.5,63,100.0
2505,C2,176.0,0.5,95,100.0
2506,A3,176.0,0.5,95,100.0
2507,C4,176.125,0.125,63,100.0
2508,D4,176.25,0.125,38,100.0
2509,C4,176.375,0.125,38,100.0
2510,A3,176.5,0.5,63,100.0
2511,C4,176.5,167/1000,63,100.0
2512,A1,176.5,0.5,63,100.0
2513,C2,176.5,0.25,95,100.0
2514,C4,176.667,167/1000,63,100.0
2515,C2,176.75,0.25,95,100.0
2516,A3,176.833,167/1000,63,100.0
2517,G3,177.0,167/1000,63,100.0
2518,B-2,177.0,0.5,95,100.0
2519,E2,177.0,0.5,95,100.0
2520,E3,177.167,167/1000,63,100.0
2521,D3,177.333,167/1000,63,100.0
2522,D3,177.5,0.5,63,100.0
2523,D2,177.5,2.0,63,100.0
2524,F#4,177.5,2.0,63,100.0
2525,D4,177.5,2.0,63,100.0
2526,A3,177.5,2.0,63,100.0
2527,A4,177.5,0.125,63,100.0
2528,D4,177.5,0.125,63,100.0
2529,C2,177.5,0.5,95,100.0
2530,B-2,177.5,0.5,95,100.0
2531,B4,177.625,0.125,15,100.0
2532,E4,177.625,0.125,15,100.0
2533,A4,177.75,0.125,42,100.0
2534,D4,177.75,0.125,42,100.0
2535,B4,177.875,0.125,15,100.0
2536,E4,177.875,0.125,15,100.0
2537,A4,178.0,0.125,42,100.0
2538,D4,178.0,0.125,42,100.0
2539,C2,178.0,0.25,87,100.0
2540,C3,178.0,0.25,87,100.0
2541,B4,178.125,0.125,15,100.0
2542,E4,178.125,0.125,15,100.0
2543,C3,178.25,0.25,79,100.0
2544,A4,178.25,0.125,42,100.0
2545,D4,178.25,0.125,42,100.0
2546,B4,178.375,0.125,15,100.0
2547,E4,178.375,0.125,15,100.0
2548,B2,178.5,0.25,79,100.0
2549,A4,178.5,0.125,42,100.0
2550,D4,178.5,0.125,42,100.0
2551,B4,178.625,0.125,15,100.0
2552,E4,178.625,0.125,15,100.0
2553,B2,178.75,0.25,63,100.0
2554,A4,178.75,0.125,42,100.0
2555,D4,178.75,0.125,42,100.0
2556,B4,178.875,0.125,15,100.0
2557,E4,178.875,0.125,15,100.0
2558,A4,179.0,0.125,42,100.0
2559,D4,179.0,0.125,42,100.0
2560,C2,179.0,0.25,87,100.0
2561,A2,179.0,0.25,87,100.0
2562,B4,179.125,0.125,15,100.0
2563,E4,179.125,0.125,15,100.0
2564,A2,179.25,0.25,79,100.0
2565,A4,179.25,0.125,42,100.0
2566,D4,179.25,0.125,42,100.0
2567,B4,179.375,0.125,15,100.0
2568,E4,179.375,0.125,15,100.0
2569,D4,179.5,83/1000,63,100.0
2570,D2,179.5,83/1000,63,100.0
2571,G2,179.5,0.25,63,100.0
2572,A4,179.5,0.125,42,100.0
2573,D4,179.5,0.125,42,100.0
2574,E-4,179.583,83/1000,38,100.0
2575,E-2,179.583,83/1000,38,100.0
2576,B4,179.625,0.125,15,100.0
2577,E4,179.625,0.125,15,100.0
2578,E4,179.667,83/1000,63,100.0
2579,E2,179.667,83/1000,38,100.0
2580,D4,179.75,83/1000,63,100.0
2581,D2,179.75,83/1000,63,100.0
2582,G2,179.75,0.25,63,100.0
2583,A4,179.75,0.125,42,100.0
2584,D4,179.75,0.125,42,100.0
2585,C4,179.833,83/1000,38,100.0
2586,C2,179.833,83/1000,63,100.0
2587,B4,179.875,0.125,15,100.0
2588,E4,179.875,0.125,15,100.0
2589,A3,179.917,83/1000,63,100.0
2590,A1,179.917,83/1000,63,100.0
2591,G3,180.0,0.5,63,100.0
2592,G1,180.0,0.5,63,100.0
2593,C2,180.0,1.0,95,100.0
2594,A3,180.0,1.0,95,100.0
2595,A3,180.5,0.5,63,100.0
2596,A1,180.5,0.5,63,100.0
2597,F#2,181.0,0.25,95,100.0
2598,E2,181.0,0.25,95,100.0
2599,B1,181.25,0.5,95,100.0
2600,C2,181.5,0.75,63,100.0
2601,E4,181.5,1.0,63,100.0
2602,C4,181.5,1.0,63,100.0
2603,G3,181.5,1.0,63,100.0
2604,A4,181.5,0.125,63,100.0
2605,D4,181.5,0.125,63,100.0
2606,B4,181.625,0.125,15,100.0
2607,E4,181.625,0.125,15,100.0
2608,B2,181.75,0.125,63,100.0
2609,A4,181.75,0.125,42,100.0
2610,D4,181.75,0.125,42,100.0
2611,B2,181.875,0.125,47,100.0
2612,B4,181.875,0.125,15,100.0
2613,E4,181.875,0.125,15,100.0
2614,A4,182.0,0.125,42,100.0
2615,D4,182.0,0.125,42,100.0
2616,C2,182.0,0.25,87,100.0
2617,B2,182.0,0.25,87,100.0
2618,B4,182.125,0.125,15,100.0
2619,E4,182.125,0.125,15,100.0
2620,A2,182.25,0.25,95,100.0
2621,A4,182.25,0.125,42,100.0
2622,D4,182.25,0.125,42,100.0
2623,B4,182.375,0.125,15,100.0
2624,E4,182.375,0.125,15,100.0
2625,E3,182.5,0.5,63,100.0
2626,E2,182.5,0.5,63,100.0
2627,A2,182.5,0.25,79,100.0
2628,A4,182.5,0.125,42,100.0
2629,D4,182.5,0.125,42,100.0
2630,B4,182.625,0.125,15,100.0
2631,E4,182.625,0.125,15,100.0
2632,G2,182.75,0.125,79,100.0
2633,A4,182.75,0.125,42,100.0
2634,D4,182.75,0.125,42,100.0
2635,A2,182.875,0.125,63,100.0
2636,B4,182.875,0.125,15,100.0
2637,E4,182.875,0.125,15,100.0
2638,G3,183.0,0.5,63,100.0
2639,G2,183.0,0.5,63,100.0
2640,A4,183.0,0.125,42,100.0
2641,D4,183.0,0.125,42,100.0
2642,C2,183.0,0.25,87,100.0
2643,G2,183.0,0.25,87,100.0
2644,B4,183.125,0.125,15,100.0
2645,E4,183.125,0.125,15,100.0
2646,G2,183.25,0.25,79,100.0
2647,A4,183.25,0.125,42,100.0
2648,D4,183.25,0.125,42,100.0
2649,B4,183.375,0.125,15,100.0
2650,E4,183.375,0.125,15,100.0
2651,A3,183.5,0.25,63,100.0
2652,A2,183.5,0.25,63,100.0
2653,F2,183.5,0.25,63,100.0
2654,A4,183.5,0.125,42,100.0
2655,D4,183.5,0.125,42,100.0
2656,B4,183.625,0.125,15,100.0
2657,E4,183.625,0.125,15,100.0
2658,C4,183.75,0.25,63,100.0
2659,C3,183.75,0.25,63,100.0
2660,F2,183.75,0.25,63,100.0
2661,A4,183.75,0.125,42,100.0
2662,D4,183.75,0.125,42,100.0
2663,B4,183.875,0.125,15,100.0
2664,E4,183.875,0.125,15,100.0
2665,C4,184.0,0.5,63,100.0
2666,C3,184.0,0.5,63,100.0
2667,C2,184.0,0.25,95,100.0
2668,B-2,184.0,0.25,95,100.0
2669,A3,184.5,0.5,63,100.0
2670,A2,184.5,0.5,63,100.0
2671,C2,184.75,0.25,95,100.0
2672,G3,185.0,0.5,63,100.0
2673,G2,185.0,0.5,63,100.0
2674,B-2,185.0,0.5,87,100.0
2675,E2,185.0,0.5,87,100.0
2676,E3,185.5,0.5,63,100.0
2677,E2,185.5,0.5,63,100.0
2678,C2,185.5,0.5,103,100.0
2679,B-2,185.5,0.5,103,100.0
2680,G3,186.0,0.5,63,100.0
2681,G2,186.0,0.5,63,100.0
2682,B-2,186.0,0.25,111,100.0
2683,C2,186.0,0.25,111,100.0
2684,C2,186.25,0.5,95,100.0
2685,E3,186.5,0.5,63,100.0
2686,E2,186.5,0.5,63,100.0
2687,C2,186.75,0.25,95,100.0
2688,D3,187.0,0.25,63,100.0
2689,D2,187.0,0.5,63,100.0
2690,F#2,187.0,0.25,111,100.0
2691,E2,187.0,0.25,111,100.0
2692,D3,187.25,0.5,63,100.0
2693,E2,187.25,0.25,95,100.0
2694,D2,187.5,0.25,63,100.0
2695,C2,187.5,0.25,95,100.0
2696,C3,187.75,0.25,63,100.0
2697,C2,187.75,0.25,63,100.0
2698,C2,187.75,0.25,95,100.0
2699,C3,188.0,1.0,63,100.0
2700,C2,188.0,1.0,63,100.0
2701,A3,188.0,0.25,90,100.0
2702,E2,188.0,0.25,90,100.0
2703,C2,188.0,0.25,90,100.0
2704,C2,188.25,0.25,79,100.0
2705,E2,188.5,0.25,95,100.0
2706,C2,188.75,0.25,95,100.0
2707,G#2,189.0,0.25,95,100.0
2708,E2,189.0,0.25,95,100.0
2709,E2,189.25,0.25,79,100.0
2710,C2,189.5,1.0,63,100.0
2711,C2,189.5,0.25,95,100.0
2712,E4,189.5,2.0,63,100.0
2713,C4,189.5,2.0,63,100.0
2714,G3,189.5,2.0,63,100.0
2715,C3,189.5,2.0,63,100.0
2716,E-3,189.75,0.25,95,100.0
2717,C2,189.75,0.25,95,100.0
2718,B-2,190.0,0.25,87,100.0
2719,E2,190.0,0.25,87,100.0
2720,C2,190.25,0.25,95,100.0
2721,C2,190.5,0.5,63,100.0
2722,E2,190.5,0.5,95,100.0
2723,C2,191.0,0.5,63,100.0
2724,B-2,191.0,0.25,87,100.0
2725,E2,191.0,0.25,87,100.0
2726,C2,191.25,0.25,95,100.0
2727,D4,191.5,83/1000,63,100.0
2728,D2,191.5,83/1000,63,100.0
2729,E2,191.5,0.25,95,100.0
2730,E-4,191.583,83/1000,38,100.0
2731,E-2,191.583,83/1000,38,100.0
2732,E4,191.667,83/1000,63,100.0
2733,E2,191.667,83/1000,38,100.0
2734,D4,191.75,83/1000,63,100.0
2735,D2,191.75,83/1000,63,100.0
2736,C2,191.75,0.25,95,100.0
2737,C4,191.833,83/1000,38,100.0
2738,C2,191.833,83/1000,63,100.0
2739,A3,191.917,83/1000,63,100.0
2740,A1,191.917,83/1000,63,100.0
2741,G3,192.0,0.5,63,100.0
2742,G1,192.0,0.5,63,100.0
2743,G#2,192.0,0.5,95,100.0
2744,C2,192.0,0.5,95,100.0
2745,A3,192.5,0.5,63,100.0
2746,A1,192.5,0.5,63,100.0
2747,C2,192.5,0.25,95,100.0
2748,C2,192.75,0.25,95,100.0
2749,B-2,193.0,0.5,95,100.0
2750,E2,193.0,0.5,95,100.0
2751,D2,193.5,2.0,63,100.0
2752,F#4,193.5,2.0,63,100.0
2753,D4,193.5,2.0,63,100.0
2754,A3,193.5,2.0,63,100.0
2755,A4,193.5,0.125,63,100.0
2756,D4,193.5,0.125,63,100.0
2757,C2,193.5,0.25,95,100.0
2758,B-2,193.5,0.25,95,100.0
2759,B4,193.625,0.125,15,100.0
2760,E4,193.625,0.125,15,100.0
2761,A4,193.75,0.125,42,100.0
2762,D4,193.75,0.125,42,100.0
2763,B4,193.875,0.125,15,100.0
2764,E4,193.875,0.125,15,100.0
2765,A4,194.0,0.125,42,100.0
2766,D4,194.0,0.125,42,100.0
2767,B4,194.125,0.125,15,100.0
2768,E4,194.125,0.125,15,100.0
2769,A4,194.25,0.125,42,100.0
2770,D4,194.25,0.125,42,100.0
2771,F#2,194.25,0.25,95,100.0
2772,G#2,194.25,0.25,95,100.0
2773,B4,194.375,0.125,15,100.0
2774,E4,194.375,0.125,15,100.0
2775,C2,194.5,0.5,95,100.0
2776,A4,194.5,0.125,42,100.0
2777,D4,194.5,0.125,42,100.0
2778,B4,194.625,0.125,15,100.0
2779,E4,194.625,0.125,15,100.0
2780,A4,194.75,0.125,42,100.0
2781,D4,194.75,0.125,42,100.0
2782,B4,194.875,0.125,15,100.0
2783,E4,194.875,0.125,15,100.0
2784,A4,195.0,0.125,42,100.0
2785,D4,195.0,0.125,42,100.0
2786,B-2,195.0,0.5,95,100.0
2787,E2,195.0,0.5,95,100.0
2788,B4,195.125,0.125,15,100.0
2789,E4,195.125,0.125,15,100.0
2790,A4,195.25,0.125,42,100.0
2791,D4,195.25,0.125,42,100.0
2792,B4,195.375,0.125,15,100.0
2793,E4,195.375,0.125,15,100.0
2794,D4,195.5,83/1000,63,100.0
2795,D2,195.5,83/1000,63,100.0
2796,A4,195.5,0.125,42,100.0
2797,D4,195.5,0.125,42,100.0
2798,F#2,195.5,0.5,95,100.0
2799,C2,195.5,0.5,95,100.0
2800,E-4,195.583,83/1000,38,100.0
2801,E-2,195.583,83/1000,38,100.0
2802,B4,195.625,0.125,15,100.0
2803,E4,195.625,0.125,15,100.0
2804,E4,195.667,83/1000,63,100.0
2805,E2,195.667,83/1000,38,100.0
2806,D4,195.75,83/1000,63,100.0
2807,D2,195.75,83/1000,63,100.0
2808,A4,195.75,0.125,42,100.0
2809,D4,195.75,0.125,42,100.0
2810,C4,195.833,83/1000,38,100.0
2811,C2,195.833,83/1000,63,100.0
2812,B4,195.875,0.125,15,100.0
2813,E4,195.875,0.125,15,100.0
2814,A3,195.917,83/1000,63,100.0
2815,A1,195.917,83/1000,63,100.0
2816,G3,196.0,0.5,63,100.0
2817,G1,196.0,0.5,63,100.0
2818,C2,196.0,0.5,95,100.0
2819,F#2,196.0,0.5,95,100.0
2820,A3,196.5,0.5,63,100.0
2821,A1,196.5,0.5,63,100.0
2822,F#2,196.5,0.25,95,100.0
2823,G#2,196.75,0.25,95,100.0
2824,F#2,197.0,0.5,95,100.0
2825,C2,197.0,0.5,95,100.0
2826,E2,197.0,0.5,95,100.0
2827,C2,197.5,0.75,63,100.0
2828,E4,197.5,1.0,63,100.0
2829,C4,197.5,1.0,63,100.0
2830,G3,197.5,1.0,63,100.0
2831,A4,197.5,0.125,63,100.0
2832,D4,197.5,0.125,63,100.0
2833,C2,197.5,0.5,95,100.0
2834,B-2,197.5,0.5,95,100.0
2835,B4,197.625,0.125,15,100.0
2836,E4,197.625,0.125,15,100.0
2837,A4,197.75,0.125,42,100.0
2838,D4,197.75,0.125,42,100.0
2839,B4,197.875,0.125,15,100.0
2840,E4,197.875,0.125,15,100.0
2841,A4,198.0,0.125,42,100.0
2842,D4,198.0,0.125,42,100.0
2843,B4,198.125,0.125,15,100.0
2844,E4,198.125,0.125,15,100.0
2845,A4,198.25,0.125,42,100.0
2846,D4,198.25,0.125,42,100.0
2847,B4,198.375,0.125,15,100.0
2848,E4,198.375,0.125,15,100.0
2849,E3,198.5,0.5,63,100.0
2850,E2,198.5,0.5,63,100.0
2851,A4,198.5,0.125,42,100.0
2852,D4,198.5,0.125,42,100.0
2853,G#2,198.5,0.5,95,100.0
2854,F#2,198.5,0.5,95,100.0
2855,C2,198.5,0.5,95,100.0
2856,B4,198.625,0.125,15,100.0
2857,E4,198.625,0.125,15,100.0
2858,A4,198.75,0.125,42,100.0
2859,D4,198.75,0.125,42,100.0
2860,B4,198.875,0.125,15,100.0
2861,E4,198.875,0.125,15,100.0
2862,G3,199.0,0.5,63,100.0
2863,G2,199.0,0.5,63,100.0
2864,A4,199.0,0.125,42,100.0
2865,D4,199.0,0.125,42,100.0
2866,F#2,199.0,0.5,95,100.0
2867,E2,199.0,0.5,95,100.0
2868,B4,199.125,0.125,15,100.0
2869,E4,199.125,0.125,15,100.0
2870,A4,199.25,0.125,42,100.0
2871,D4,199.25,0.125,42,100.0
2872,B4,199.375,0.125,15,100.0
2873,E4,199.375,0.125,15,100.0
2874,A3,199.5,0.25,63,100.0
2875,A2,199.5,0.25,63,100.0
2876,A4,199.5,0.125,42,100.0
2877,D4,199.5,0.125,42,100.0
2878,G#2,199.5,0.25,95,100.0
2879,F#2,199.5,0.25,95,100.0
2880,B4,199.625,0.125,15,100.0
2881,E4,199.625,0.125,15,100.0
2882,C4,199.75,0.25,63,100.0
2883,C3,199.75,0.25,63,100.0
2884,E2,199.75,0.25,47,100.0
2885,A4,199.75,0.125,42,100.0
2886,D4,199.75,0.125,42,100.0
2887,B4,199.875,0.125,15,100.0
2888,E4,199.875,0.125,15,100.0
2889,C4,200.0,0.5,63,100.0
2890,C3,200.0,0.5,63,100.0
2891,B-2,200.0,0.5,95,100.0
2892,E2,200.0,0.5,95,100.0
2893,A3,200.5,0.5,63,100.0
2894,A2,200.5,0.5,63,100.0
2895,C2,200.5,0.25,95,100.0
2896,C2,200.75,0.25,95,100.0
2897,G3,201.0,0.5,63,100.0
2898,G2,201.0,0.5,63,100.0
2899,C2,201.0,0.5,95,100.0
2900,F#2,201.0,0.5,95,100.0
2901,G#2,201.0,0.5,95,100.0
2902,E2,201.0,0.5,95,100.0
2903,E3,201.5,0.5,63,100.0
2904,E2,201.5,0.5,63,100.0
2905,C2,201.5,333/1000,95,100.0
2906,E2,201.833,167/1000,47,100.0
2907,G3,202.0,0.5,63,100.0
2908,G2,202.0,0.5,63,100.0
2909,C2,202.0,0.5,95,100.0
2910,B-2,202.0,0.5,95,100.0
2911,E2,202.0,0.5,95,100.0
2912,E3,202.5,0.5,63,100.0
2913,E2,202.5,0.5,63,100.0
2914,C2,202.5,0.25,95,100.0
2915,F#2,202.75,0.25,95,100.0
2916,D3,203.0,0.25,63,100.0
2917,D2,203.0,0.5,63,100.0
2918,C2,203.0,0.5,95,100.0
2919,G#2,203.0,0.5,95,100.0
2920,F#2,203.0,0.5,95,100.0
2921,E2,203.0,0.5,95,100.0
2922,D3,203.25,0.5,63,100.0
2923,D2,203.5,0.5,63,100.0
2924,C2,203.5,0.25,95,100.0
2925,C3,203.75,0.25,63,100.0
2926,C2,203.75,0.25,63,100.0
2927,C2,203.75,0.25,95,100.0
2928,C3,204.0,1.0,63,100.0
2929,D2,204.0,0.25,63,100.0
2930,C2,204.0,0.25,99,100.0
2931,G#2,204.0,0.25,99,100.0
2932,F#2,204.0,0.25,99,100.0
2933,E2,204.0,0.25,99,100.0
2934,E1,204.25,0.25,63,100.0
2935,C2,204.25,0.25,95,100.0
2936,F1,204.5,0.25,63,100.0
2937,F#2,204.5,0.25,95,100.0
2938,G1,204.75,0.25,63,100.0
2939,B-2,204.75,0.25,95,100.0
2940,A1,205.0,0.25,63,100.0
2941,C2,205.0,0.5,99,100.0
2942,G#2,205.0,0.5,99,100.0
2943,F#2,205.0,0.5,99,100.0
2944,E2,205.0,0.5,99,100.0
2945,B1,205.25,0.25,63,100.0
2946,C2,205.5,0.75,63,100.0
2947,B-4,205.5,2.5,63,100.0
2948,E4,205.5,2.5,63,100.0
2949,G3,205.5,2.5,63,100.0
2950,C3,205.5,2.5,63,100.0
2951,F#2,205.5,0.25,95,100.0
2952,C2,205.5,0.25,95,100.0
2953,B-2,205.75,0.25,95,100.0
2954,C2,205.75,0.25,95,100.0
2955,C2,206.0,0.25,99,100.0
2956,G#2,206.0,0.25,99,100.0
2957,F#2,206.0,0.25,99,100.0
2958,E2,206.0,0.25,99,100.0
2959,E1,206.25,0.25,63,100.0
2960,F#2,206.25,0.25,95,100.0
2961,C2,206.25,0.25,95,100.0
2962,F1,206.5,0.25,63,100.0
2963,B-2,206.5,0.5,95,100.0
2964,F#1,206.75,0.25,63,100.0
2965,G1,207.0,0.25,63,100.0
2966,C2,207.0,0.5,99,100.0
2967,E-3,207.0,0.5,99,100.0
2968,E2,207.0,0.5,99,100.0
2969,B-2,207.0,0.5,99,100.0
2970,A1,207.25,0.25,63,100.0
2971,B-1,207.5,0.25,63,100.0
2972,G#2,207.5,0.5,95,100.0
2973,F#2,207.5,0.5,95,100.0
2974,C2,207.5,0.5,95,100.0
2975,B1,207.75,0.25,63,100.0
2976,C3,208.0,1.0,63,100.0
2977,C2,208.0,0.25,63,100.0
2978,B-2,208.0,0.5,95,100.0
2979,E2,208.0,0.5,95,100.0
2980,C2,208.25,0.5,63,100.0
2981,C2,208.5,0.25,95,100.0
2982,C2,208.75,0.25,63,100.0
2983,C2,208.75,0.25,95,100.0
2984,C2,209.0,0.75,63,100.0
2985,B-2,209.0,0.5,95,100.0
2986,E2,209.0,0.5,95,100.0
2987,C2,209.5,0.25,95,100.0
2988,A4,209.5,0.5,63,100.0
2989,F#4,209.5,0.5,63,100.0
2990,C4,209.5,0.5,63,100.0
2991,C2,209.75,0.25,63,100.0
2992,C2,209.75,0.25,95,100.0
2993,C3,210.0,0.25,63,100.0
2994,B-4,210.0,0.5,63,100.0
2995,G4,210.0,0.5,63,100.0
2996,C4,210.0,0.5,63,100.0
2997,B-2,210.0,0.5,95,100.0
2998,E2,210.0,0.5,95,100.0
2999,C2,210.25,0.25,63,100.0
3000,G2,210.5,0.5,63,100.0
3001,C2,210.5,0.25,95,100.0
3002,C2,210.75,0.25,95,100.0
3003,C3,211.0,0.25,63,100.0
3004,C2,211.0,0.25,63,100.0
3005,B-2,211.0,0.5,95,100.0
3006,E2,211.0,0.5,95,100.0
3007,C#3,211.25,0.25,63,100.0
3008,C2,211.25,0.25,63,100.0
3009,D3,211.5,0.5,63,100.0
3010,C#2,211.5,0.25,63,100.0
3011,C2,211.5,0.25,95,100.0
3012,C#2,211.75,0.25,63,100.0
3013,C2,211.75,0.25,95,100.0
3014,D2,212.0,0.25,63,100.0
3015,B-2,212.0,0.5,95,100.0
3016,E2,212.0,0.5,95,100.0
3017,D2,212.25,0.25,63,100.0
3018,D3,212.5,0.125,63,100.0
3019,C2,212.5,0.25,95,100.0
3020,C5,212.5,0.25,63,100.0
3021,A4,212.5,0.25,63,100.0
3022,D4,212.5,0.25,63,100.0
3023,E3,212.625,0.125,38,100.0
3024,D3,212.75,0.25,38,100.0
3025,C2,212.75,0.25,95,100.0
3026,C5,212.75,0.25,63,100.0
3027,A4,212.75,0.25,63,100.0
3028,D4,212.75,0.25,63,100.0
3029,D3,213.0,0.25,63,100.0
3030,C5,213.0,0.25,63,100.0
3031,A4,213.0,0.25,63,100.0
3032,D4,213.0,0.25,63,100.0
3033,B-2,213.0,0.5,95,100.0
3034,E2,213.0,0.5,95,100.0
3035,C3,213.25,0.25,63,100.0
3036,C5,213.25,0.25,63,100.0
3037,A4,213.25,0.25,63,100.0
3038,D4,213.25,0.25,63,100.0
3039,A2,213.5,0.25,63,100.0
3040,C2,213.5,0.25,95,100.0
3041,C5,213.5,0.25,63,100.0
3042,A4,213.5,0.25,63,100.0
3043,D4,213.5,0.25,63,100.0
3044,F#2,213.75,0.25,63,100.0
3045,C2,213.75,0.25,95,100.0
3046,C5,213.75,1.25,63,100.0
3047,A4,213.75,1.25,63,100.0
3048,D4,213.75,1.25,63,100.0
3049,F#2,214.0,0.25,63,100.0
3050,B-2,214.0,0.5,95,100.0
3051,E2,214.0,0.5,95,100.0
3052,A1,214.25,0.25,63,100.0
3053,D2,214.5,0.5,63,100.0
3054,C2,214.5,0.25,95,100.0
3055,C2,214.75,0.25,95,100.0
3056,D2,215.0,0.5,63,100.0
3057,A4,215.0,0.5,63,100.0
3058,F#4,215.0,0.5,63,100.0
3059,D4,215.0,0.5,63,100.0
3060,B-2,215.0,0.5,95,100.0
3061,E2,215.0,0.5,95,100.0
3062,E-2,215.5,0.5,63,100.0
3063,C2,215.5,0.25,95,100.0
3064,A4,215.5,0.5,63,100.0
3065,F#4,215.5,0.5,63,100.0
3066,D4,215.5,0.5,63,100.0
3067,C2,215.75,0.25,95,100.0
3068,E2,216.0,1.0,63,100.0
3069,B4,216.0,1.5,63,100.0
3070,F#4,216.0,1.5,63,100.0
3071,D4,216.0,1.5,63,100.0
3072,A3,216.0,1.5,63,100.0
3073,E3,216.0,1.5,63,100.0
3074,B-2,216.0,0.5,95,100.0
3075,E2,216.0,0.5,95,100.0
3076,C2,216.5,0.25,95,100.0
3077,E2,216.5,0.25,95,100.0
3078,C2,216.75,0.25,95,100.0
3079,E3,217.0,0.5,63,100.0
3080,C2,217.0,0.25,95,100.0
3081,B-2,217.0,0.25,95,100.0
3082,E2,217.0,0.25,95,100.0
3083,E2,217.25,0.25,95,100.0
3084,E2,217.5,1.5,63,100.0
3085,C2,217.5,0.25,95,100.0
3086,B4,217.5,0.5,63,100.0
3087,F#4,217.5,0.5,63,100.0
3088,D4,217.5,0.5,63,100.0
3089,A3,217.5,0.5,63,100.0
3090,E3,217.5,0.5,63,100.0
3091,C2,217.75,0.25,95,100.0
3092,B4,218.0,1.5,63,100.0
3093,F#4,218.0,1.5,63,100.0
3094,D4,218.0,1.5,63,100.0
3095,A3,218.0,1.5,63,100.0
3096,E3,218.0,1.5,63,100.0
3097,G#2,218.0,0.5,79,100.0
3098,C2,218.0,0.5,79,100.0
3099,C#3,218.0,0.5,79,100.0
3100,G#2,218.5,0.5,79,100.0
3101,C2,218.5,0.5,79,100.0
3102,D2,219.0,0.5,63,100.0
3103,G#2,219.0,0.125,71,100.0
3104,E2,219.0,0.125,71,100.0
3105,G2,219.125,0.125,79,100.0
3106,G2,219.25,0.125,79,100.0
3107,G2,219.375,0.125,79,100.0
3108,D4,219.5,83/1000,63,100.0
3109,C2,219.5,0.5,63,100.0
3110,G#2,219.5,0.25,79,100.0
3111,C2,219.5,0.25,79,100.0
3112,F2,219.5,0.25,79,100.0
3113,E-4,219.583,83/1000,38,100.0
3114,E4,219.667,83/1000,63,100.0
3115,D4,219.75,83/1000,63,100.0
3116,F2,219.75,0.25,79,100.0
3117,C4,219.833,83/1000,38,100.0
3118,A3,219.917,83/1000,63,100.0
3119,G3,220.0,0.5,63,100.0
3120,G1,220.0,0.5,63,100.0
3121,C2,220.0,0.5,79,100.0
3122,A3,220.0,0.5,79,100.0
3123,A3,220.5,0.5,63,100.0
3124,A1,220.5,0.5,63,100.0
3125,C2,220.5,333/1000,95,100.0
3126,C3,220.833,167/1000,63,100.0
3127,C2,221.0,0.5,87,100.0
3128,C3,221.0,0.5,87,100.0
3129,D2,221.5,2.0,63,100.0
3130,F#4,221.5,2.0,63,100.0
3131,D4,221.5,2.0,63,100.0
3132,A3,221.5,2.0,63,100.0
3133,A4,221.5,0.125,63,100.0
3134,D4,221.5,0.125,63,100.0
3135,C#3,221.5,1.0,87,100.0
3136,C2,221.5,1.0,87,100.0
3137,B4,221.625,0.125,15,100.0
3138,E4,221.625,0.125,15,100.0
3139,A4,221.75,0.125,42,100.0
3140,D4,221.75,0.125,42,100.0
3141,B4,221.875,0.125,15,100.0
3142,E4,221.875,0.125,15,100.0
3143,A4,222.0,0.125,42,100.0
3144,D4,222.0,0.125,42,100.0
3145,B4,222.125,0.125,15,100.0
3146,E4,222.125,0.125,15,100.0
3147,A4,222.25,0.125,42,100.0
3148,D4,222.25,0.125,42,100.0
3149,B4,222.375,0.125,15,100.0
3150,E4,222.375,0.125,15,100.0
3151,A4,222.5,0.125,42,100.0
3152,D4,222.5,0.125,42,100.0
3153,C2,222.5,0.5,87,100.0
3154,B-2,222.5,0.5,87,100.0
3155,B4,222.625,0.125,15,100.0
3156,E4,222.625,0.125,15,100.0
3157,A4,222.75,0.125,42,100.0
3158,D4,222.75,0.125,42,100.0
3159,B4,222.875,0.125,15,100.0
3160,E4,222.875,0.125,15,100.0
3161,A4,223.0,0.125,42,100.0
3162,D4,223.0,0.125,42,100.0
3163,E2,223.0,0.5,87,100.0
3164,B-2,223.0,0.5,87,100.0
3165,B4,223.125,0.125,15,100.0
3166,E4,223.125,0.125,15,100.0
3167,A4,223.25,0.125,42,100.0
3168,D4,223.25,0.125,42,100.0
3169,B4,223.375,0.125,15,100.0
3170,E4,223.375,0.125,15,100.0
3171,D4,223.5,83/1000,63,100.0
3172,D2,223.5,83/1000,63,100.0
3173,C2,223.5,0.25,95,100.0
3174,A4,223.5,0.125,42,100.0
3175,D4,223.5,0.125,42,100.0
3176,E-4,223.583,83/1000,38,100.0
3177,E-2,223.583,83/1000,38,100.0
3178,B4,223.625,0.125,15,100.0
3179,E4,223.625,0.125,15,100.0
3180,E4,223.667,83/1000,63,100.0
3181,E2,223.667,83/1000,38,100.0
3182,D4,223.75,83/1000,63,100.0
3183,D2,223.75,83/1000,63,100.0
3184,C2,223.75,0.25,95,100.0
3185,A4,223.75,0.125,42,100.0
3186,D4,223.75,0.125,42,100.0
3187,C4,223.833,83/1000,38,100.0
3188,C2,223.833,83/1000,63,100.0
3189,B4,223.875,0.125,15,100.0
3190,E4,223.875,0.125,15,100.0
3191,A3,223.917,83/1000,63,100.0
3192,A1,223.917,83/1000,63,100.0
3193,G3,224.0,0.5,63,100.0
3194,G1,224.0,0.5,63,100.0
3195,C2,224.0,0.5,87,100.0
3196,C#3,224.0,0.5,87,100.0
3197,A3,224.5,0.5,63,100.0
3198,A1,224.5,0.5,63,100.0
3199,C2,224.5,0.25,95,100.0
3200,C2,224.75,0.25,95,100.0
3201,E2,225.0,0.5,95,100.0
3202,C2,225.5,2.0,63,100.0
3203,C2,225.5,0.5,95,100.0
3204,E4,225.5,2.0,63,100.0
3205,C4,225.5,2.0,63,100.0
3206,G3,225.5,2.0,63,100.0
3207,A4,225.5,0.125,63,100.0
3208,D4,225.5,0.125,63,100.0
3209,B4,225.625,0.125,15,100.0
3210,E4,225.625,0.125,15,100.0
3211,A4,225.75,0.125,42,100.0
3212,D4,225.75,0.125,42,100.0
3213,B4,225.875,0.125,15,100.0
3214,E4,225.875,0.125,15,100.0
3215,B2,226.0,167/1000,79,100.0
3216,A4,226.0,0.125,42,100.0
3217,D4,226.0,0.125,42,100.0
3218,B4,226.125,0.125,15,100.0
3219,E4,226.125,0.125,15,100.0
3220,B2,226.167,167/1000,79,100.0
3221,A4,226.25,0.125,42,100.0
3222,D4,226.25,0.125,42,100.0
3223,B2,226.333,167/1000,79,100.0
3224,B4,226.375,0.125,15,100.0
3225,E4,226.375,0.125,15,100.0
3226,A4,226.5,0.125,42,100.0
3227,D4,226.5,0.125,42,100.0
3228,C2,226.5,167/1000,79,100.0
3229,A2,226.5,167/1000,79,100.0
3230,B4,226.625,0.125,15,100.0
3231,E4,226.625,0.125,15,100.0
3232,A2,226.667,167/1000,63,100.0
3233,A4,226.75,0.125,42,100.0
3234,D4,226.75,0.125,42,100.0
3235,A2,226.833,167/1000,63,100.0
3236,B4,226.875,0.125,15,100.0
3237,E4,226.875,0.125,15,100.0
3238,G2,227.0,167/1000,63,100.0
3239,A4,227.0,0.125,42,100.0
3240,D4,227.0,0.125,42,100.0
3241,B4,227.125,0.125,15,100.0
3242,E4,227.125,0.125,15,100.0
3243,G2,227.167,167/1000,63,100.0
3244,A4,227.25,0.125,42,100.0
3245,D4,227.25,0.125,42,100.0
3246,G2,227.333,167/1000,63,100.0
3247,B4,227.375,0.125,15,100.0
3248,E4,227.375,0.125,15,100.0
3249,D4,227.5,83/1000,63,100.0
3250,D2,227.5,83/1000,63,100.0
3251,A4,227.5,0.125,42,100.0
3252,D4,227.5,0.125,42,100.0
3253,G#2,227.5,0.25,71,100.0
3254,F2,227.5,0.25,71,100.0
3255,E-4,227.583,83/1000,38,100.0
3256,E-2,227.583,83/1000,38,100.0
3257,B4,227.625,0.125,15,100.0
3258,E4,227.625,0.125,15,100.0
3259,E4,227.667,83/1000,63,100.0
3260,E2,227.667,83/1000,38,100.0
3261,D4,227.75,83/1000,63,100.0
3262,D2,227.75,83/1000,63,100.0
3263,F2,227.75,0.25,63,100.0
3264,A4,227.75,0.125,42,100.0
3265,D4,227.75,0.125,42,100.0
3266,C4,227.833,83/1000,38,100.0
3267,C2,227.833,83/1000,63,100.0
3268,B4,227.875,0.125,15,100.0
3269,E4,227.875,0.125,15,100.0
3270,A3,227.917,83/1000,63,100.0
3271,A1,227.917,83/1000,63,100.0
3272,G3,228.0,0.5,63,100.0
3273,G1,228.0,0.5,63,100.0
3274,C2,228.0,0.5,79,100.0
3275,A3,228.0,0.5,79,100.0
3276,A3,228.5,0.5,63,100.0
3277,A1,228.5,0.5,63,100.0
3278,C2,228.5,333/1000,95,100.0
3279,C3,228.833,167/1000,63,100.0
3280,C2,229.0,0.5,87,100.0
3281,C3,229.0,0.5,87,100.0
3282,D2,229.5,2.0,63,100.0
3283,F#4,229.5,2.0,63,100.0
3284,D4,229.5,2.0,63,100.0
3285,A3,229.5,2.0,63,100.0
3286,A4,229.5,0.125,63,100.0
3287,D4,229.5,0.125,63,100.0
3288,C#3,229.5,1.0,87,100.0
3289,C2,229.5,1.0,87,100.0
3290,B4,229.625,0.125,15,100.0
3291,E4,229.625,0.125,15,100.0
3292,A4,229.75,0.125,42,100.0
3293,D4,229.75,0.125,42,100.0
3294,B4,229.875,0.125,15,100.0
3295,E4,229.875,0.125,15,100.0
3296,A4,230.0,0.125,42,100.0
3297,D4,230.0,0.125,42,100.0
3298,B4,230.125,0.125,15,100.0
3299,E4,230.125,0.125,15,100.0
3300,A4,230.25,0.125,42,100.0
3301,D4,230.25,0.125,42,100.0
3302,B4,230.375,0.125,15,100.0
3303,E4,230.375,0.125,15,100.0
3304,A4,230.5,0.125,42,100.0
3305,D4,230.5,0.125,42,100.0
3306,C2,230.5,0.5,87,100.0
3307,B-2,230.5,0.5,87,100.0
3308,B4,230.625,0.125,15,100.0
3309,E4,230.625,0.125,15,100.0
3310,A4,230.75,0.125,42,100.0
3311,D4,230.75,0.125,42,100.0
3312,B4,230.875,0.125,15,100.0
3313,E4,230.875,0.125,15,100.0
3314,A4,231.0,0.125,42,100.0
3315,D4,231.0,0.125,42,100.0
3316,E2,231.0,0.5,87,100.0
3317,B-2,231.0,0.5,87,100.0
3318,B4,231.125,0.125,15,100.0
3319,E4,231.125,0.125,15,100.0
3320,A4,231.25,0.125,42,100.0
3321,D4,231.25,0.125,42,100.0
3322,B4,231.375,0.125,15,100.0
3323,E4,231.375,0.125,15,100.0
3324,D4,231.5,83/1000,63,100.0
3325,D2,231.5,83/1000,63,100.0
3326,C2,231.5,0.25,95,100.0
3327,A4,231.5,0.125,42,100.0
3328,D4,231.5,0.125,42,100.0
3329,E-4,231.583,83/1000,38,100.0
3330,E-2,231.583,83/1000,38,100.0
3331,B4,231.625,0.125,15,100.0
3332,E4,231.625,0.125,15,100.0
3333,E4,231.667,83/1000,63,100.0
3334,E2,231.667,83/1000,38,100.0
3335,D4,231.75,83/1000,63,100.0
3336,D2,231.75,83/1000,63,100.0
3337,C2,231.75,0.25,95,100.0
3338,A4,231.75,0.125,42,100.0
3339,D4,231.75,0.125,42,100.0
3340,C4,231.833,83/1000,38,100.0
3341,C2,231.833,83/1000,63,100.0
3342,B4,231.875,0.125,15,100.0
3343,E4,231.875,0.125,15,100.0
3344,A3,231.917,83/1000,63,100.0
3345,A1,231.917,83/1000,63,100.0
3346,G3,232.0,0.5,63,100.0
3347,G1,232.0,0.5,63,100.0
3348,C2,232.0,0.5,87,100.0
3349,C#3,232.0,0.5,87,100.0
3350,A3,232.5,0.5,63,100.0
3351,A1,232.5,0.5,63,100.0
3352,C2,232.5,0.25,95,100.0
3353,C2,232.75,0.25,95,100.0
3354,E2,233.0,0.5,95,100.0
3355,C2,233.5,2.0,63,100.0
3356,C2,233.5,0.5,95,100.0
3357,E4,233.5,2.0,63,100.0
3358,C4,233.5,2.0,63,100.0
3359,G3,233.5,2.0,63,100.0
3360,A4,233.5,0.125,63,100.0
3361,D4,233.5,0.125,63,100.0
3362,B4,233.625,0.125,15,100.0
3363,E4,233.625,0.125,15,100.0
3364,A4,233.75,0.125,42,100.0
3365,D4,233.75,0.125,42,100.0
3366,B4,233.875,0.125,15,100.0
3367,E4,233.875,0.125,15,100.0
3368,B2,234.0,167/1000,79,100.0
3369,A4,234.0,0.125,42,100.0
3370,D4,234.0,0.125,42,100.0
3371,B4,234.125,0.125,15,100.0
3372,E4,234.125,0.125,15,100.0
3373,B2,234.167,167/1000,79,100.0
3374,A4,234.25,0.125,42,100.0
3375,D4,234.25,0.125,42,100.0
3376,B2,234.333,167/1000,79,100.0
3377,B4,234.375,0.125,15,100.0
3378,E4,234.375,0.125,15,100.0
3379,A4,234.5,0.125,42,100.0
3380,D4,234.5,0.125,42,100.0
3381,C2,234.5,167/1000,79,100.0
3382,A2,234.5,167/1000,79,100.0
3383,B4,234.625,0.125,15,100.0
3384,E4,234.625,0.125,15,100.0
3385,A2,234.667,167/1000,63,100.0
3386,A4,234.75,0.125,42,100.0
3387,D4,234.75,0.125,42,100.0
3388,A2,234.833,167/1000,63,100.0
3389,B4,234.875,0.125,15,100.0
3390,E4,234.875,0.125,15,100.0
3391,G2,235.0,167/1000,63,100.0
3392,A4,235.0,0.125,42,100.0
3393,D4,235.0,0.125,42,100.0
3394,B4,235.125,0.125,15,100.0
3395,E4,235.125,0.125,15,100.0
3396,G2,235.167,167/1000,63,100.0
3397,A4,235.25,0.125,42,100.0
3398,D4,235.25,0.125,42,100.0
3399,G2,235.333,167/1000,63,100.0
3400,B4,235.375,0.125,15,100.0
3401,E4,235.375,0.125,15,100.0
3402,D4,235.5,83/1000,63,100.0
3403,D2,235.5,83/1000,63,100.0
3404,A4,235.5,0.125,42,100.0
3405,D4,235.5,0.125,42,100.0
3406,G#2,235.5,0.25,71,100.0
3407,F2,235.5,0.25,71,100.0
3408,E-4,235.583,83/1000,38,100.0
3409,E-2,235.583,83/1000,38,100.0
3410,B4,235.625,0.125,15,100.0
3411,E4,235.625,0.125,15,100.0
3412,E4,235.667,83/1000,63,100.0
3413,E2,235.667,83/1000,38,100.0
3414,D4,235.75,83/1000,63,100.0
3415,D2,235.75,83/1000,63,100.0
3416,F2,235.75,0.25,63,100.0
3417,A4,235.75,0.125,42,100.0
3418,D4,235.75,0.125,42,100.0
3419,C4,235.833,83/1000,38,100.0
3420,C2,235.833,83/1000,63,100.0
3421,B4,235.875,0.125,15,100.0
3422,E4,235.875,0.125,15,100.0
3423,A3,235.917,83/1000,63,100.0
3424,A1,235.917,83/1000,63,100.0
3425,G3,236.0,0.5,63,100.0
3426,G1,236.0,0.5,63,100.0
3427,A3,236.0,0.75,87,100.0
3428,C2,236.0,0.75,87,100.0
3429,A3,236.5,0.5,63,100.0
3430,A1,236.5,0.5,63,100.0
3431,C2,236.75,0.25,95,100.0
3432,E-3,237.0,0.5,95,100.0
3433,E2,237.0,0.5,95,100.0
3434,D2,237.5,2.0,63,100.0
3435,C2,237.5,0.5,95,100.0
3436,F#4,237.5,2.0,63,100.0
3437,D4,237.5,2.0,63,100.0
3438,A3,237.5,2.0,63,100.0
3439,A4,237.5,0.125,63,100.0
3440,D4,237.5,0.125,63,100.0
3441,B4,237.625,0.125,15,100.0
3442,E4,237.625,0.125,15,100.0
3443,A4,237.75,0.125,42,100.0
3444,D4,237.75,0.125,42,100.0
3445,B4,237.875,0.125,15,100.0
3446,E4,237.875,0.125,15,100.0
3447,A4,238.0,0.125,42,100.0
3448,D4,238.0,0.125,42,100.0
3449,C2,238.0,0.5,95,100.0
3450,E-3,238.0,0.5,95,100.0
3451,B4,238.125,0.125,15,100.0
3452,E4,238.125,0.125,15,100.0
3453,A4,238.25,0.125,42,100.0
3454,D4,238.25,0.125,42,100.0
3455,B4,238.375,0.125,15,100.0
3456,E4,238.375,0.125,15,100.0
3457,C2,238.5,0.25,95,100.0
3458,A4,238.5,0.125,42,100.0
3459,D4,238.5,0.125,42,100.0
3460,B4,238.625,0.125,15,100.0
3461,E4,238.625,0.125,15,100.0
3462,A4,238.75,0.125,42,100.0
3463,D4,238.75,0.125,42,100.0
3464,C2,238.75,0.25,71,100.0
3465,E2,238.75,0.25,71,100.0
3466,B4,238.875,0.125,15,100.0
3467,E4,238.875,0.125,15,100.0
3468,A4,239.0,0.125,42,100.0
3469,D4,239.0,0.125,42,100.0
3470,E-3,239.0,0.5,95,100.0
3471,E2,239.0,0.5,95,100.0
3472,B4,239.125,0.125,15,100.0
3473,E4,239.125,0.125,15,100.0
3474,A4,239.25,0.125,42,100.0
3475,D4,239.25,0.125,42,100.0
3476,B4,239.375,0.125,15,100.0
3477,E4,239.375,0.125,15,100.0
3478,D4,239.5,83/1000,63,100.0
3479,D2,239.5,83/1000,63,100.0
3480,C2,239.5,0.5,95,100.0
3481,A4,239.5,0.125,42,100.0
3482,D4,239.5,0.125,42,100.0
3483,E-4,239.583,83/1000,38,100.0
3484,E-2,239.583,83/1000,38,100.0
3485,B4,239.625,0.125,15,100.0
3486,E4,239.625,0.125,15,100.0
3487,E4,239.667,83/1000,63,100.0
3488,E2,239.667,83/1000,38,100.0
3489,D4,239.75,83/1000,63,100.0
3490,D2,239.75,83/1000,63,100.0
3491,A4,239.75,0.125,42,100.0
3492,D4,239.75,0.125,42,100.0
3493,C4,239.833,83/1000,38,100.0
3494,C2,239.833,83/1000,63,100.0
3495,B4,239.875,0.125,15,100.0
3496,E4,239.875,0.125,15,100.0
3497,A3,239.917,83/1000,63,100.0
3498,A1,239.917,83/1000,63,100.0
3499,G3,240.0,0.5,63,100.0
3500,G1,240.0,0.5,63,100.0
3501,E-3,240.0,0.25,95,100.0
3502,C2,240.0,0.25,95,100.0
3503,C2,240.25,0.5,95,100.0
3504,A3,240.5,0.5,63,100.0
3505,A1,240.5,0.5,63,100.0
3506,C2,240.75,0.25,95,100.0
3507,E-3,241.0,0.5,95,100.0
3508,E2,241.0,0.5,95,100.0
3509,C2,241.5,2.0,63,100.0
3510,E4,241.5,2.0,63,100.0
3511,C4,241.5,2.0,63,100.0
3512,G3,241.5,2.0,63,100.0
3513,A4,241.5,0.125,63,100.0
3514,D4,241.5,0.125,63,100.0
3515,C2,241.5,0.5,95,100.0
3516,B-2,241.5,0.5,95,100.0
3517,B4,241.625,0.125,15,100.0
3518,E4,241.625,0.125,15,100.0
3519,A4,241.75,0.125,42,100.0
3520,D4,241.75,0.125,42,100.0
3521,B4,241.875,0.125,15,100.0
3522,E4,241.875,0.125,15,100.0
3523,E2,242.0,0.25,95,100.0
3524,A4,242.0,0.125,42,100.0
3525,D4,242.0,0.125,42,100.0
3526,B4,242.125,0.125,15,100.0
3527,E4,242.125,0.125,15,100.0
3528,C3,242.25,0.25,63,100.0
3529,A4,242.25,0.125,42,100.0
3530,D4,242.25,0.125,42,100.0
3531,B4,242.375,0.125,15,100.0
3532,E4,242.375,0.125,15,100.0
3533,A4,242.5,0.125,42,100.0
3534,D4,242.5,0.125,42,100.0
3535,A2,242.5,0.25,79,100.0
3536,C2,242.5,0.25,79,100.0
3537,B4,242.625,0.125,15,100.0
3538,E4,242.625,0.125,15,100.0
3539,A4,242.75,0.125,42,100.0
3540,D4,242.75,0.125,42,100.0
3541,G2,242.75,0.25,79,100.0
3542,C2,242.75,0.25,79,100.0
3543,B4,242.875,0.125,15,100.0
3544,E4,242.875,0.125,15,100.0
3545,C2,243.0,0.25,95,100.0
3546,A4,243.0,0.125,42,100.0
3547,D4,243.0,0.125,42,100.0
3548,B4,243.125,0.125,15,100.0
3549,E4,243.125,0.125,15,100.0
3550,E2,243.25,0.25,95,100.0
3551,A4,243.25,0.125,42,100.0
3552,D4,243.25,0.125,42,100.0
3553,B4,243.375,0.125,15,100.0
3554,E4,243.375,0.125,15,100.0
3555,D4,243.5,83/1000,63,100.0
3556,D2,243.5,83/1000,63,100.0
3557,A4,243.5,0.125,42,100.0
3558,D4,243.5,0.125,42,100.0
3559,C2,243.5,0.25,79,100.0
3560,C3,243.5,0.25,79,100.0
3561,E-4,243.583,83/1000,38,100.0
3562,E-2,243.583,83/1000,38,100.0
3563,B4,243.625,0.125,15,100.0
3564,E4,243.625,0.125,15,100.0
3565,E4,243.667,83/1000,63,100.0
3566,E2,243.667,83/1000,38,100.0
3567,D4,243.75,83/1000,63,100.0
3568,D2,243.75,83/1000,63,100.0
3569,A2,243.75,0.25,63,100.0
3570,A4,243.75,0.125,42,100.0
3571,D4,243.75,0.125,42,100.0
3572,C4,243.833,83/1000,38,100.0
3573,C2,243.833,83/1000,63,100.0
3574,B4,243.875,0.125,15,100.0
3575,E4,243.875,0.125,15,100.0
3576,A3,243.917,83/1000,63,100.0
3577,A1,243.917,83/1000,63,100.0
3578,G3,244.0,0.5,63,100.0
3579,G1,244.0,0.5,63,100.0
3580,C2,244.0,0.25,79,100.0
3581,E2,244.0,0.25,79,100.0
3582,A3,244.0,0.25,79,100.0
3583,C2,244.25,0.5,95,100.0
3584,A3,244.5,0.5,63,100.0
3585,A1,244.5,0.5,63,100.0
3586,C2,244.75,0.25,95,100.0
3587,E-3,245.0,0.5,95,100.0
3588,E2,245.0,0.5,95,100.0
3589,D2,245.5,2.0,63,100.0
3590,C2,245.5,0.5,95,100.0
3591,F#4,245.5,2.0,63,100.0
3592,D4,245.5,2.0,63,100.0
3593,A3,245.5,2.0,63,100.0
3594,A4,245.5,0.125,63,100.0
3595,D4,245.5,0.125,63,100.0
3596,B4,245.625,0.125,15,100.0
3597,E4,245.625,0.125,15,100.0
3598,A4,245.75,0.125,42,100.0
3599,D4,245.75,0.125,42,100.0
3600,B4,245.875,0.125,15,100.0
3601,E4,245.875,0.125,15,100.0
3602,A4,246.0,0.125,42,100.0
3603,D4,246.0,0.125,42,100.0
3604,C2,246.0,0.5,95,100.0
3605,E-3,246.0,0.5,95,100.0
3606,B4,246.125,0.125,15,100.0
3607,E4,246.125,0.125,15,100.0
3608,A4,246.25,0.125,42,100.0
3609,D4,246.25,0.125,42,100.0
3610,B4,246.375,0.125,15,100.0
3611,E4,246.375,0.125,15,100.0
3612,C2,246.5,0.5,95,100.0
3613,A4,246.5,0.125,42,100.0
3614,D4,246.5,0.125,42,100.0
3615,B4,246.625,0.125,15,100.0
3616,E4,246.625,0.125,15,100.0
3617,A4,246.75,0.125,42,100.0
3618,D4,246.75,0.125,42,100.0
3619,B4,246.875,0.125,15,100.0
3620,E4,246.875,0.125,15,100.0
3621,A4,247.0,0.125,42,100.0
3622,D4,247.0,0.125,42,100.0
3623,E2,247.0,0.5,95,100.0
3624,E-3,247.0,0.5,95,100.0
3625,B4,247.125,0.125,15,100.0
3626,E4,247.125,0.125,15,100.0
3627,A4,247.25,0.125,42,100.0
3628,D4,247.25,0.125,42,100.0
3629,B4,247.375,0.125,15,100.0
3630,E4,247.375,0.125,15,100.0
3631,D4,247.5,83/1000,63,100.0
3632,D2,247.5,83/1000,63,100.0
3633,C2,247.5,0.25,95,100.0
3634,A4,247.5,0.125,42,100.0
3635,D4,247.5,0.125,42,100.0
3636,E-4,247.583,83/1000,38,100.0
3637,E-2,247.583,83/1000,38,100.0
3638,B4,247.625,0.125,15,100.0
3639,E4,247.625,0.125,15,100.0
3640,E4,247.667,83/1000,63,100.0
3641,E2,247.667,83/1000,38,100.0
3642,D4,247.75,83/1000,63,100.0
3643,D2,247.75,83/1000,63,100.0
3644,C2,247.75,0.25,95,100.0
3645,A4,247.75,0.125,42,100.0
3646,D4,247.75,0.125,42,100.0
3647,C4,247.833,83/1000,38,100.0
3648,C2,247.833,83/1000,63,100.0
3649,B4,247.875,0.125,15,100.0
3650,E4,247.875,0.125,15,100.0
3651,A3,247.917,83/1000,63,100.0
3652,A1,247.917,83/1000,63,100.0
3653,G3,248.0,0.5,63,100.0
3654,G1,248.0,0.5,63,100.0
3655,E-3,248.0,0.25,95,100.0
3656,C2,248.0,0.25,95,100.0
3657,C2,248.25,0.25,95,100.0
3658,A3,248.5,0.5,63,100.0
3659,A1,248.5,0.5,63,100.0
3660,E-3,249.0,0.25,95,100.0
3661,E2,249.0,0.25,95,100.0
3662,C2,249.5,2.0,63,100.0
3663,E4,249.5,2.0,63,100.0
3664,C4,249.5,2.0,63,100.0
3665,G3,249.5,2.0,63,100.0
3666,A4,249.5,0.125,63,100.0
3667,D4,249.5,0.125,63,100.0
3668,B4,249.625,0.125,15,100.0
3669,E4,249.625,0.125,15,100.0
3670,C2,249.75,0.25,79,100.0
3671,A4,249.75,0.125,42,100.0
3672,D4,249.75,0.125,42,100.0
3673,B4,249.875,0.125,15,100.0
3674,E4,249.875,0.125,15,100.0
3675,A4,250.0,0.125,42,100.0
3676,D4,250.0,0.125,42,100.0
3677,C2,250.0,0.5,95,100.0
3678,E-3,250.0,0.5,95,100.0
3679,B4,250.125,0.125,15,100.0
3680,E4,250.125,0.125,15,100.0
3681,A4,250.25,0.125,42,100.0
3682,D4,250.25,0.125,42,100.0
3683,B4,250.375,0.125,15,100.0
3684,E4,250.375,0.125,15,100.0
3685,C2,250.5,0.5,95,100.0
3686,A4,250.5,0.125,42,100.0
3687,D4,250.5,0.125,42,100.0
3688,B4,250.625,0.125,15,100.0
3689,E4,250.625,0.125,15,100.0
3690,A4,250.75,0.125,42,100.0
3691,D4,250.75,0.125,42,100.0
3692,B4,250.875,0.125,15,100.0
3693,E4,250.875,0.125,15,100.0
3694,A4,251.0,0.125,42,100.0
3695,D4,251.0,0.125,42,100.0
3696,E2,251.0,0.5,95,100.0
3697,E-3,251.0,0.5,95,100.0
3698,B4,251.125,0.125,15,100.0
3699,E4,251.125,0.125,15,100.0
3700,A4,251.25,0.125,42,100.0
3701,D4,251.25,0.125,42,100.0
3702,B4,251.375,0.125,15,100.0
3703,E4,251.375,0.125,15,100.0
3704,D4,251.5,83/1000,63,100.0
3705,D2,251.5,83/1000,63,100.0
3706,C2,251.5,0.5,95,100.0
3707,A4,251.5,0.125,42,100.0
3708,D4,251.5,0.125,42,100.0
3709,E-4,251.583,83/1000,38,100.0
3710,E-2,251.583,83/1000,38,100.0
3711,B4,251.625,0.125,15,100.0
3712,E4,251.625,0.125,15,100.0
3713,E4,251.667,83/1000,63,100.0
3714,E2,251.667,83/1000,38,100.0
3715,D4,251.75,83/1000,63,100.0
3716,D2,251.75,83/1000,63,100.0
3717,A4,251.75,0.125,42,100.0
3718,D4,251.75,0.125,42,100.0
3719,C4,251.833,83/1000,38,100.0
3720,C2,251.833,83/1000,63,100.0
3721,B4,251.875,0.125,15,100.0
3722,E4,251.875,0.125,15,100.0
3723,A3,251.917,83/1000,63,100.0
3724,A1,251.917,83/1000,63,100.0
3725,G3,252.0,0.5,63,100.0
3726,G1,252.0,0.5,63,100.0
3727,C2,252.0,0.75,95,100.0
3728,E-3,252.0,0.75,95,100.0
3729,A3,252.5,0.5,63,100.0
3730,A1,252.5,0.5,63,100.0
3731,C2,252.75,0.25,95,100.0
3732,E2,253.0,0.5,95,100.0
3733,E-3,253.0,0.5,95,100.0
3734,D2,253.5,2.0,63,100.0
3735,C2,253.5,0.5,95,100.0
3736,F#4,253.5,2.0,63,100.0
3737,D4,253.5,2.0,63,100.0
3738,A3,253.5,2.0,63,100.0
3739,A4,253.5,0.125,63,100.0
3740,D4,253.5,0.125,63,100.0
3741,B4,253.625,0.125,15,100.0
3742,E4,253.625,0.125,15,100.0
3743,A4,253.75,0.125,42,100.0
3744,D4,253.75,0.125,42,100.0
3745,B4,253.875,0.125,15,100.0
3746,E4,253.875,0.125,15,100.0
3747,A4,254.0,0.125,42,100.0
3748,D4,254.0,0.125,42,100.0
3749,C2,254.0,0.5,95,100.0
3750,E-3,254.0,0.5,95,100.0
3751,B4,254.125,0.125,15,100.0
3752,E4,254.125,0.125,15,100.0
3753,A4,254.25,0.125,42,100.0
3754,D4,254.25,0.125,42,100.0
3755,B4,254.375,0.125,15,100.0
3756,E4,254.375,0.125,15,100.0
3757,A4,254.5,0.125,42,100.0
3758,D4,254.5,0.125,42,100.0
3759,B4,254.625,0.125,15,100.0
3760,E4,254.625,0.125,15,100.0
3761,A4,254.75,0.125,42,100.0
3762,D4,254.75,0.125,42,100.0
3763,B4,254.875,0.125,15,100.0
3764,E4,254.875,0.125,15,100.0
3765,A4,255.0,0.125,42,100.0
3766,D4,255.0,0.125,42,100.0
3767,E2,255.0,0.25,95,100.0
3768,E-3,255.0,0.25,95,100.0
3769,B4,255.125,0.125,15,100.0
3770,E4,255.125,0.125,15,100.0
3771,E2,255.25,0.25,63,100.0
3772,A4,255.25,0.125,42,100.0
3773,D4,255.25,0.125,42,100.0
3774,B4,255.375,0.125,15,100.0
3775,E4,255.375,0.125,15,100.0
3776,D4,255.5,83/1000,63,100.0
3777,D2,255.5,83/1000,63,100.0
3778,C2,255.5,0.25,95,100.0
3779,A4,255.5,0.125,42,100.0
3780,D4,255.5,0.125,42,100.0
3781,E-4,255.583,83/1000,38,100.0
3782,E-2,255.583,83/1000,38,100.0
3783,B4,255.625,0.125,15,100.0
3784,E4,255.625,0.125,15,100.0
3785,E4,255.667,83/1000,63,100.0
3786,E2,255.667,83/1000,38,100.0
3787,D4,255.75,83/1000,63,100.0
3788,D2,255.75,83/1000,63,100.0
3789,C2,255.75,0.25,95,100.0
3790,A4,255.75,0.125,42,100.0
3791,D4,255.75,0.125,42,100.0
3792,C4,255.833,83/1000,38,100.0
3793,C2,255.833,83/1000,63,100.0
3794,B4,255.875,0.125,15,100.0
3795,E4,255.875,0.125,15,100.0
3796,A3,255.917,83/1000,63,100.0
3797,A1,255.917,83/1000,63,100.0
3798,G3,256.0,0.5,63,100.0
3799,G1,256.0,0.5,63,100.0
3800,C2,256.0,0.5,95,100.0
3801,E-3,256.0,0.5,95,100.0
3802,A3,256.5,0.5,63,100.0
3803,A1,256.5,0.5,63,100.0
3804,C2,256.5,0.25,95,100.0
3805,D2,256.75,0.25,47,100.0
3806,E-3,257.0,0.5,95,100.0
3807,E2,257.0,0.5,95,100.0
3808,C2,257.5,2.0,63,100.0
3809,C2,257.5,0.5,95,100.0
3810,E4,257.5,2.0,63,100.0
3811,C4,257.5,2.0,63,100.0
3812,G3,257.5,2.0,63,100.0
3813,A4,257.5,0.125,63,100.0
3814,D4,257.5,0.125,63,100.0
3815,B4,257.625,0.125,15,100.0
3816,E4,257.625,0.125,15,100.0
3817,A4,257.75,0.125,42,100.0
3818,D4,257.75,0.125,42,100.0
3819,B4,257.875,0.125,15,100.0
3820,E4,257.875,0.125,15,100.0
3821,A4,258.0,0.125,42,100.0
3822,D4,258.0,0.125,42,100.0
3823,E-3,258.0,0.25,95,100.0
3824,C2,258.0,0.25,95,100.0
3825,B4,258.125,0.125,15,100.0
3826,E4,258.125,0.125,15,100.0
3827,C2,258.25,0.5,95,100.0
3828,A4,258.25,0.125,42,100.0
3829,D4,258.25,0.125,42,100.0
3830,B4,258.375,0.125,15,100.0
3831,E4,258.375,0.125,15,100.0
3832,A4,258.5,0.125,42,100.0
3833,D4,258.5,0.125,42,100.0
3834,B4,258.625,0.125,15,100.0
3835,E4,258.625,0.125,15,100.0
3836,C2,258.75,0.25,95,100.0
3837,A4,258.75,0.125,42,100.0
3838,D4,258.75,0.125,42,100.0
3839,B4,258.875,0.125,15,100.0
3840,E4,258.875,0.125,15,100.0
3841,A4,259.0,0.125,42,100.0
3842,D4,259.0,0.125,42,100.0
3843,E-3,259.0,1.0,95,100.0
3844,E2,259.0,1.0,95,100.0
3845,B4,259.125,0.125,15,100.0
3846,E4,259.125,0.125,15,100.0
3847,A4,259.25,0.125,42,100.0
3848,D4,259.25,0.125,42,100.0
3849,B4,259.375,0.125,15,100.0
3850,E4,259.375,0.125,15,100.0
3851,D4,259.5,83/1000,63,100.0
3852,D2,259.5,83/1000,63,100.0
3853,A4,259.5,0.125,42,100.0
3854,D4,259.5,0.125,42,100.0
3855,E-4,259.583,83/1000,38,100.0
3856,E-2,259.583,83/1000,38,100.0
3857,B4,259.625,0.125,15,100.0
3858,E4,259.625,0.125,15,100.0
3859,E4,259.667,83/1000,63,100.0
3860,E2,259.667,83/1000,38,100.0
3861,D4,259.75,83/1000,63,100.0
3862,D2,259.75,83/1000,63,100.0
3863,A4,259.75,0.125,42,100.0
3864,D4,259.75,0.125,42,100.0
3865,C4,259.833,83/1000,38,100.0
3866,C2,259.833,83/1000,63,100.0
3867,B4,259.875,0.125,15,100.0
3868,E4,259.875,0.125,15,100.0
3869,A3,259.917,83/1000,63,100.0
3870,A1,259.917,83/1000,63,100.0
3871,G3,260.0,0.5,63,100.0
3872,G1,260.0,0.5,63,100.0
3873,E-3,260.0,0.25,95,100.0
3874,C2,260.0,0.25,95,100.0
3875,A3,260.5,0.5,63,100.0
3876,A1,260.5,0.5,63,100.0
3877,C2,260.75,0.25,95,100.0
3878,E-3,261.0,0.5,95,100.0
3879,E2,261.0,0.5,95,100.0
3880,D2,261.5,2.0,63,100.0
3881,C2,261.5,0.5,95,100.0
3882,F#4,261.5,2.0,63,100.0
3883,D4,261.5,2.0,63,100.0
3884,A3,261.5,2.0,63,100.0
3885,A4,261.5,0.125,63,100.0
3886,D4,261.5,0.125,63,100.0
3887,B4,261.625,0.125,15,100.0
3888,E4,261.625,0.125,15,100.0
3889,A4,261.75,0.125,42,100.0
3890,D4,261.75,0.125,42,100.0
3891,B4,261.875,0.125,15,100.0
3892,E4,261.875,0.125,15,100.0
3893,A4,262.0,0.125,42,100.0
3894,D4,262.0,0.125,42,100.0
3895,E-3,262.0,0.25,95,100.0
3896,C2,262.0,0.25,95,100.0
3897,B4,262.125,0.125,15,100.0
3898,E4,262.125,0.125,15,100.0
3899,C2,262.25,0.5,95,100.0
3900,A4,262.25,0.125,42,100.0
3901,D4,262.25,0.125,42,100.0
3902,B4,262.375,0.125,15,100.0
3903,E4,262.375,0.125,15,100.0
3904,A4,262.5,0.125,42,100.0
3905,D4,262.5,0.125,42,100.0
3906,B4,262.625,0.125,15,100.0
3907,E4,262.625,0.125,15,100.0
3908,C2,262.75,0.25,95,100.0
3909,A4,262.75,0.125,42,100.0
3910,D4,262.75,0.125,42,100.0
3911,B4,262.875,0.125,15,100.0
3912,E4,262.875,0.125,15,100.0
3913,A4,263.0,0.125,42,100.0
3914,D4,263.0,0.125,42,100.0
3915,E-3,263.0,0.5,95,100.0
3916,E2,263.0,0.5,95,100.0
3917,B4,263.125,0.125,15,100.0
3918,E4,263.125,0.125,15,100.0
3919,A4,263.25,0.125,42,100.0
3920,D4,263.25,0.125,42,100.0
3921,B4,263.375,0.125,15,100.0
3922,E4,263.375,0.125,15,100.0
3923,D4,263.5,83/1000,63,100.0
3924,D2,263.5,83/1000,63,100.0
3925,C2,263.5,0.5,95,100.0
3926,A4,263.5,0.125,42,100.0
3927,D4,263.5,0.125,42,100.0
3928,E-4,263.583,83/1000,38,100.0
3929,E-2,263.583,83/1000,38,100.0
3930,B4,263.625,0.125,15,100.0
3931,E4,263.625,0.125,15,100.0
3932,E4,263.667,83/1000,63,100.0
3933,E2,263.667,83/1000,38,100.0
3934,D4,263.75,83/1000,63,100.0
3935,D2,263.75,83/1000,63,100.0
3936,A4,263.75,0.125,42,100.0
3937,D4,263.75,0.125,42,100.0
3938,C4,263.833,83/1000,38,100.0
3939,C2,263.833,83/1000,63,100.0
3940,B4,263.875,0.125,15,100.0
3941,E4,263.875,0.125,15,100.0
3942,A3,263.917,83/1000,63,100.0
3943,A1,263.917,83/1000,63,100.0
3944,G3,264.0,0.5,63,100.0
3945,G1,264.0,0.5,63,100.0
3946,E-3,264.0,0.5,95,100.0
3947,C2,264.0,0.5,95,100.0
3948,A3,264.5,0.5,63,100.0
3949,A1,264.5,0.5,63,100.0
3950,C2,264.5,0.5,95,100.0
3951,E-3,265.0,0.5,95,100.0
3952,E2,265.0,0.5,95,100.0
3953,C2,265.5,2.0,63,100.0
3954,C2,265.5,0.5,95,100.0
3955,E4,265.5,2.0,63,100.0
3956,C4,265.5,2.0,63,100.0
3957,G3,265.5,2.0,63,100.0
3958,A4,265.5,0.125,63,100.0
3959,D4,265.5,0.125,63,100.0
3960,B4,265.625,0.125,15,100.0
3961,E4,265.625,0.125,15,100.0
3962,A4,265.75,0.125,42,100.0
3963,D4,265.75,0.125,42,100.0
3964,B4,265.875,0.125,15,100.0
3965,E4,265.875,0.125,15,100.0
3966,A4,266.0,0.125,42,100.0
3967,D4,266.0,0.125,42,100.0
3968,E-3,266.0,0.25,95,100.0
3969,C2,266.0,0.25,95,100.0
3970,B4,266.125,0.125,15,100.0
3971,E4,266.125,0.125,15,100.0
3972,A4,266.25,0.125,42,100.0
3973,D4,266.25,0.125,42,100.0
3974,B4,266.375,0.125,15,100.0
3975,E4,266.375,0.125,15,100.0
3976,A4,266.5,0.125,42,100.0
3977,D4,266.5,0.125,42,100.0
3978,B4,266.625,0.125,15,100.0
3979,E4,266.625,0.125,15,100.0
3980,C2,266.75,0.25,95,100.0
3981,A4,266.75,0.125,42,100.0
3982,D4,266.75,0.125,42,100.0
3983,B4,266.875,0.125,15,100.0
3984,E4,266.875,0.125,15,100.0
3985,A4,267.0,0.125,42,100.0
3986,D4,267.0,0.125,42,100.0
3987,E-3,267.0,0.5,95,100.0
3988,E2,267.0,0.5,95,100.0
3989,B4,267.125,0.125,15,100.0
3990,E4,267.125,0.125,15,100.0
3991,A4,267.25,0.125,42,100.0
3992,D4,267.25,0.125,42,100.0
3993,B4,267.375,0.125,15,100.0
3994,E4,267.375,0.125,15,100.0
3995,D4,267.5,83/1000,63,100.0
3996,D2,267.5,83/1000,63,100.0
3997,C2,267.5,0.5,95,100.0
3998,A4,267.5,0.125,42,100.0
3999,D4,267.5,0.125,42,100.0
4000,E-4,267.583,83/1000,38,100.0
4001,E-2,267.583,83/1000,38,100.0
4002,B4,267.625,0.125,15,100.0
4003,E4,267.625,0.125,15,100.0
4004,E4,267.667,83/1000,63,100.0
4005,E2,267.667,83/1000,38,100.0
4006,D4,267.75,83/1000,63,100.0
4007,D2,267.75,83/1000,63,100.0
4008,A4,267.75,0.125,42,100.0
4009,D4,267.75,0.125,42,100.0
4010,C4,267.833,83/1000,38,100.0
4011,C2,267.833,83/1000,63,100.0
4012,B4,267.875,0.125,15,100.0
4013,E4,267.875,0.125,15,100.0
4014,A3,267.917,83/1000,63,100.0
4015,A1,267.917,83/1000,63,100.0
4016,G3,268.0,0.5,63,100.0
4017,G1,268.0,0.5,63,100.0
4018,B-2,268.0,0.75,95,100.0
4019,C2,268.0,0.75,95,100.0
4020,A3,268.5,0.5,63,100.0
4021,A1,268.5,0.5,63,100.0
4022,C2,268.75,0.25,95,100.0
4023,A1,269.0,0.5,63,100.0
4024,E-3,269.0,0.5,95,100.0
4025,E2,269.0,0.5,95,100.0
4026,A2,269.5,0.5,63,100.0
4027,C2,269.5,0.5,95,100.0
4028,F#4,269.5,2.0,63,100.0
4029,D4,269.5,2.0,63,100.0
4030,A3,269.5,2.0,63,100.0
4031,A4,269.5,0.125,63,100.0
4032,D4,269.5,0.125,63,100.0
4033,B4,269.625,0.125,15,100.0
4034,E4,269.625,0.125,15,100.0
4035,A4,269.75,0.125,42,100.0
4036,D4,269.75,0.125,42,100.0
4037,B4,269.875,0.125,15,100.0
4038,E4,269.875,0.125,15,100.0
4039,A4,270.0,0.125,42,100.0
4040,D4,270.0,0.125,42,100.0
4041,C2,270.0,0.5,95,100.0
4042,E-3,270.0,0.5,95,100.0
4043,B4,270.125,0.125,15,100.0
4044,E4,270.125,0.125,15,100.0
4045,A1,270.25,0.25,63,100.0
4046,A4,270.25,0.125,42,100.0
4047,D4,270.25,0.125,42,100.0
4048,B4,270.375,0.125,15,100.0
4049,E4,270.375,0.125,15,100.0
4050,G2,270.5,0.5,63,100.0
4051,D2,270.5,167/1000,63,100.0
4052,C2,270.5,0.25,95,100.0
4053,A4,270.5,0.125,42,100.0
4054,D4,270.5,0.125,42,100.0
4055,B4,270.625,0.125,15,100.0
4056,E4,270.625,0.125,15,100.0
4057,E2,270.667,333/1000,38,100.0
4058,A4,270.75,0.125,42,100.0
4059,D4,270.75,0.125,42,100.0
4060,C2,270.75,0.25,71,100.0
4061,E2,270.75,0.25,71,100.0
4062,B4,270.875,0.125,15,100.0
4063,E4,270.875,0.125,15,100.0
4064,A2,271.0,0.25,63,100.0
4065,D2,271.0,0.5,63,100.0
4066,A4,271.0,0.125,42,100.0
4067,D4,271.0,0.125,42,100.0
4068,E-3,271.0,0.5,95,100.0
4069,E2,271.0,0.5,95,100.0
4070,B4,271.125,0.125,15,100.0
4071,E4,271.125,0.125,15,100.0
4072,G2,271.25,0.25,63,100.0
4073,A4,271.25,0.125,42,100.0
4074,D4,271.25,0.125,42,100.0
4075,B4,271.375,0.125,15,100.0
4076,E4,271.375,0.125,15,100.0
4077,D4,271.5,83/1000,63,100.0
4078,C3,271.5,0.25,63,100.0
4079,D2,271.5,83/1000,63,100.0
4080,C2,271.5,0.5,95,100.0
4081,A4,271.5,0.125,42,100.0
4082,D4,271.5,0.125,42,100.0
4083,E-4,271.583,83/1000,38,100.0
4084,E-2,271.583,83/1000,38,100.0
4085,B4,271.625,0.125,15,100.0
4086,E4,271.625,0.125,15,100.0
4087,E4,271.667,83/1000,63,100.0
4088,E2,271.667,83/1000,38,100.0
4089,D4,271.75,83/1000,63,100.0
4090,A2,271.75,0.25,63,100.0
4091,D2,271.75,83/1000,63,100.0
4092,A4,271.75,0.125,42,100.0
4093,D4,271.75,0.125,42,100.0
4094,C4,271.833,83/1000,38,100.0
4095,C2,271.833,83/1000,63,100.0
4096,B4,271.875,0.125,15,100.0
4097,E4,271.875,0.125,15,100.0
4098,A3,271.917,83/1000,63,100.0
4099,A1,271.917,83/1000,63,100.0
4100,G3,272.0,0.5,63,100.0
4101,D3,272.0,0.75,63,100.0
4102,G1,272.0,0.5,63,100.0
4103,E-3,272.0,0.25,95,100.0
4104,C2,272.0,0.25,95,100.0
4105,C2,272.25,0.5,95,100.0
4106,A3,272.5,0.5,63,100.0
4107,A1,272.5,0.5,63,100.0
4108,D3,272.75,0.25,63,100.0
4109,C2,272.75,0.25,95,100.0
4110,E3,273.0,0.5,63,100.0
4111,A1,273.0,0.5,63,100.0
4112,E-3,273.0,0.5,95,100.0
4113,E2,273.0,0.5,95,100.0
4114,D3,273.5,0.5,63,100.0
4115,A2,273.5,1.0,63,100.0
4116,E4,273.5,2.0,63,100.0
4117,C4,273.5,2.0,63,100.0
4118,G3,273.5,2.0,63,100.0
4119,A4,273.5,0.125,63,100.0
4120,D4,273.5,0.125,63,100.0
4121,C2,273.5,0.5,95,100.0
4122,B-2,273.5,0.5,95,100.0
4123,B4,273.625,0.125,15,100.0
4124,E4,273.625,0.125,15,100.0
4125,A4,273.75,0.125,42,100.0
4126,D4,273.75,0.125,42,100.0
4127,B4,273.875,0.125,15,100.0
4128,E4,273.875,0.125,15,100.0
4129,E3,274.0,0.5,63,100.0
4130,E2,274.0,0.25,95,100.0
4131,A4,274.0,0.125,42,100.0
4132,D4,274.0,0.125,42,100.0
4133,B4,274.125,0.125,15,100.0
4134,E4,274.125,0.125,15,100.0
4135,C3,274.25,0.25,63,100.0
4136,A4,274.25,0.125,42,100.0
4137,D4,274.25,0.125,42,100.0
4138,B4,274.375,0.125,15,100.0
4139,E4,274.375,0.125,15,100.0
4140,G2,274.5,0.5,63,100.0
4141,D2,274.5,0.5,63,100.0
4142,A4,274.5,0.125,42,100.0
4143,D4,274.5,0.125,42,100.0
4144,A2,274.5,0.25,79,100.0
4145,C2,274.5,0.25,79,100.0
4146,B4,274.625,0.125,15,100.0
4147,E4,274.625,0.125,15,100.0
4148,A4,274.75,0.125,42,100.0
4149,D4,274.75,0.125,42,100.0
4150,G2,274.75,0.25,79,100.0
4151,C2,274.75,0.25,79,100.0
4152,B4,274.875,0.125,15,100.0
4153,E4,274.875,0.125,15,100.0
4154,A2,275.0,0.25,63,100.0
4155,C2,275.0,0.5,63,100.0
4156,C2,275.0,0.25,95,100.0
4157,A4,275.0,0.125,42,100.0
4158,D4,275.0,0.125,42,100.0
4159,B4,275.125,0.125,15,100.0
4160,E4,275.125,0.125,15,100.0
4161,G2,275.25,0.25,63,100.0
4162,E2,275.25,0.25,95,100.0
4163,A4,275.25,0.125,42,100.0
4164,D4,275.25,0.125,42,100.0
4165,B4,275.375,0.125,15,100.0
4166,E4,275.375,0.125,15,100.0
4167,D4,275.5,83/1000,63,100.0
4168,C3,275.5,0.25,63,100.0
4169,D2,275.5,83/1000,63,100.0
4170,A4,275.5,0.125,42,100.0
4171,D4,275.5,0.125,42,100.0
4172,C2,275.5,0.25,79,100.0
4173,C3,275.5,0.25,79,100.0
4174,E-4,275.583,83/1000,38,100.0
4175,E-2,275.583,83/1000,38,100.0
4176,B4,275.625,0.125,15,100.0
4177,E4,275.625,0.125,15,100.0
4178,E4,275.667,83/1000,63,100.0
4179,E2,275.667,83/1000,38,100.0
4180,D4,275.75,83/1000,63,100.0
4181,G2,275.75,0.25,63,100.0
4182,D2,275.75,83/1000,63,100.0
4183,A2,275.75,0.25,63,100.0
4184,A4,275.75,0.125,42,100.0
4185,D4,275.75,0.125,42,100.0
4186,C4,275.833,83/1000,38,100.0
4187,C2,275.833,83/1000,63,100.0
4188,B4,275.875,0.125,15,100.0
4189,E4,275.875,0.125,15,100.0
4190,A3,275.917,83/1000,63,100.0
4191,A1,275.917,83/1000,63,100.0
4192,G3,276.0,0.5,63,100.0
4193,C3,276.0,0.75,63,100.0
4194,G1,276.0,0.5,63,100.0
4195,B-2,276.0,0.75,95,100.0
4196,C2,276.0,0.75,95,100.0
4197,A3,276.5,0.5,63,100.0
4198,A1,276.5,0.5,63,100.0
4199,C3,276.75,0.25,63,100.0
4200,C2,276.75,0.25,95,100.0
4201,D3,277.0,0.5,63,100.0
4202,A1,277.0,0.5,63,100.0
4203,E-3,277.0,0.5,95,100.0
4204,E2,277.0,0.5,95,100.0
4205,C3,277.5,0.5,63,100.0
4206,A2,277.5,0.5,63,100.0
4207,C2,277.5,0.5,95,100.0
4208,F#4,277.5,2.0,63,100.0
4209,D4,277.5,2.0,63,100.0
4210,A3,277.5,2.0,63,100.0
4211,A4,277.5,0.125,63,100.0
4212,D4,277.5,0.125,63,100.0
4213,B4,277.625,0.125,15,100.0
4214,E4,277.625,0.125,15,100.0
4215,A4,277.75,0.125,42,100.0
4216,D4,277.75,0.125,42,100.0
4217,B4,277.875,0.125,15,100.0
4218,E4,277.875,0.125,15,100.0
4219,D3,278.0,0.5,63,100.0
4220,A4,278.0,0.125,42,100.0
4221,D4,278.0,0.125,42,100.0
4222,C2,278.0,0.5,95,100.0
4223,E-3,278.0,0.5,95,100.0
4224,B4,278.125,0.125,15,100.0
4225,E4,278.125,0.125,15,100.0
4226,A1,278.25,0.25,63,100.0
4227,A4,278.25,0.125,42,100.0
4228,D4,278.25,0.125,42,100.0
4229,B4,278.375,0.125,15,100.0
4230,E4,278.375,0.125,15,100.0
4231,G2,278.5,0.5,63,100.0
4232,D2,278.5,167/1000,63,100.0
4233,C2,278.5,0.25,95,100.0
4234,A4,278.5,0.125,42,100.0
4235,D4,278.5,0.125,42,100.0
4236,B4,278.625,0.125,15,100.0
4237,E4,278.625,0.125,15,100.0
4238,E2,278.667,333/1000,38,100.0
4239,A4,278.75,0.125,42,100.0
4240,D4,278.75,0.125,42,100.0
4241,C2,278.75,0.25,71,100.0
4242,E2,278.75,0.25,71,100.0
4243,B4,278.875,0.125,15,100.0
4244,E4,278.875,0.125,15,100.0
4245,A2,279.0,0.25,63,100.0
4246,D2,279.0,0.5,63,100.0
4247,A4,279.0,0.125,42,100.0
4248,D4,279.0,0.125,42,100.0
4249,E-3,279.0,0.5,95,100.0
4250,E2,279.0,0.5,95,100.0
4251,B4,279.125,0.125,15,100.0
4252,E4,279.125,0.125,15,100.0
4253,G2,279.25,0.25,63,100.0
4254,A4,279.25,0.125,42,100.0
4255,D4,279.25,0.125,42,100.0
4256,B4,279.375,0.125,15,100.0
4257,E4,279.375,0.125,15,100.0
4258,D4,279.5,83/1000,63,100.0
4259,C3,279.5,0.25,63,100.0
4260,D2,279.5,83/1000,63,100.0
4261,C2,279.5,0.5,95,100.0
4262,A4,279.5,0.125,42,100.0
4263,D4,279.5,0.125,42,100.0
4264,E-4,279.583,83/1000,38,100.0
4265,E-2,279.583,83/1000,38,100.0
4266,B4,279.625,0.125,15,100.0
4267,E4,279.625,0.125,15,100.0
4268,E4,279.667,83/1000,63,100.0
4269,E2,279.667,83/1000,38,100.0
4270,D4,279.75,83/1000,63,100.0
4271,A2,279.75,0.25,63,100.0
4272,D2,279.75,83/1000,63,100.0
4273,A4,279.75,0.125,42,100.0
4274,D4,279.75,0.125,42,100.0
4275,C4,279.833,83/1000,38,100.0
4276,C2,279.833,83/1000,63,100.0
4277,B4,279.875,0.125,15,100.0
4278,E4,279.875,0.125,15,100.0
4279,A3,279.917,83/1000,63,100.0
4280,A1,279.917,83/1000,63,100.0
4281,G3,280.0,0.5,63,100.0
4282,D3,280.0,0.75,63,100.0
4283,G1,280.0,0.5,63,100.0
4284,E-3,280.0,0.25,95,100.0
4285,C2,280.0,0.25,95,100.0
4286,C2,280.25,0.5,95,100.0
4287,A3,280.5,0.5,63,100.0
4288,A1,280.5,0.5,63,100.0
4289,D3,280.75,0.25,63,100.0
4290,C2,280.75,0.25,95,100.0
4291,E3,281.0,0.5,63,100.0
4292,A1,281.0,0.5,63,100.0
4293,E-3,281.0,0.5,95,100.0
4294,E2,281.0,0.5,95,100.0
4295,D3,281.5,0.5,63,100.0
4296,A2,281.5,1.0,63,100.0
4297,E4,281.5,2.0,63,100.0
4298,C4,281.5,2.0,63,100.0
4299,G3,281.5,2.0,63,100.0
4300,A4,281.5,0.125,63,100.0
4301,D4,281.5,0.125,63,100.0
4302,C2,281.5,0.5,95,100.0
4303,B-2,281.5,0.5,95,100.0
4304,B4,281.625,0.125,15,100.0
4305,E4,281.625,0.125,15,100.0
4306,A4,281.75,0.125,42,100.0
4307,D4,281.75,0.125,42,100.0
4308,B4,281.875,0.125,15,100.0
4309,E4,281.875,0.125,15,100.0
4310,E3,282.0,0.5,63,100.0
4311,E2,282.0,0.25,95,100.0
4312,A4,282.0,0.125,42,100.0
4313,D4,282.0,0.125,42,100.0
4314,B4,282.125,0.125,15,100.0
4315,E4,282.125,0.125,15,100.0
4316,C3,282.25,0.25,63,100.0
4317,A4,282.25,0.125,42,100.0
4318,D4,282.25,0.125,42,100.0
4319,B4,282.375,0.125,15,100.0
4320,E4,282.375,0.125,15,100.0
4321,G2,282.5,0.5,63,100.0
4322,D2,282.5,0.5,63,100.0
4323,A4,282.5,0.125,42,100.0
4324,D4,282.5,0.125,42,100.0
4325,A2,282.5,0.25,79,100.0
4326,C2,282.5,0.25,79,100.0
4327,B4,282.625,0.125,15,100.0
4328,E4,282.625,0.125,15,100.0
4329,A4,282.75,0.125,42,100.0
4330,D4,282.75,0.125,42,100.0
4331,G2,282.75,0.25,79,100.0
4332,C2,282.75,0.25,79,100.0
4333,B4,282.875,0.125,15,100.0
4334,E4,282.875,0.125,15,100.0
4335,A2,283.0,0.25,63,100.0
4336,C2,283.0,0.5,63,100.0
4337,C2,283.0,0.25,95,100.0
4338,A4,283.0,0.125,42,100.0
4339,D4,283.0,0.125,42,100.0
4340,B4,283.125,0.125,15,100.0
4341,E4,283.125,0.125,15,100.0
4342,G2,283.25,0.25,63,100.0
4343,E2,283.25,0.25,95,100.0
4344,A4,283.25,0.125,42,100.0
4345,D4,283.25,0.125,42,100.0
4346,B4,283.375,0.125,15,100.0
4347,E4,283.375,0.125,15,100.0
4348,D4,283.5,83/1000,63,100.0
4349,C3,283.5,0.25,63,100.0
4350,D2,283.5,83/1000,63,100.0
4351,A4,283.5,0.125,42,100.0
4352,D4,283.5,0.125,42,100.0
4353,C2,283.5,0.25,79,100.0
4354,C3,283.5,0.25,79,100.0
4355,E-4,283.583,83/1000,38,100.0
4356,E-2,283.583,83/1000,38,100.0
4357,B4,283.625,0.125,15,100.0
4358,E4,283.625,0.125,15,100.0
4359,E4,283.667,83/1000,63,100.0
4360,E2,283.667,83/1000,38,100.0
4361,D4,283.75,83/1000,63,100.0
4362,G2,283.75,0.25,63,100.0
4363,D2,283.75,83/1000,63,100.0
4364,A2,283.75,0.25,63,100.0
4365,A4,283.75,0.125,42,100.0
4366,D4,283.75,0.125,42,100.0
4367,C4,283.833,83/1000,38,100.0
4368,C2,283.833,83/1000,63,100.0
4369,B4,283.875,0.125,15,100.0
4370,E4,283.875,0.125,15,100.0
4371,A3,283.917,83/1000,63,100.0
4372,A1,283.917,83/1000,63,100.0
4373,G3,284.0,0.5,63,100.0
4374,C3,284.0,0.75,63,100.0
4375,G1,284.0,0.5,63,100.0
4376,C2,284.0,0.25,79,100.0
4377,E2,284.0,0.25,79,100.0
4378,A3,284.0,0.25,79,100.0
4379,C2,284.25,0.5,95,100.0
4380,A3,284.5,0.5,63,100.0
4381,A1,284.5,0.5,63,100.0
4382,C3,284.75,0.25,63,100.0
4383,C2,284.75,0.25,95,100.0
4384,D3,285.0,0.5,63,100.0
4385,A1,285.0,0.5,63,100.0
4386,E-3,285.0,0.5,95,100.0
4387,E2,285.0,0.5,95,100.0
4388,C3,285.5,0.5,63,100.0
4389,A2,285.5,0.5,63,100.0
4390,C2,285.5,0.5,95,100.0
4391,F#4,285.5,2.0,63,100.0
4392,D4,285.5,2.0,63,100.0
4393,A3,285.5,2.0,63,100.0
4394,A4,285.5,0.125,63,100.0
4395,D4,285.5,0.125,63,100.0
4396,B4,285.625,0.125,15,100.0
4397,E4,285.625,0.125,15,100.0
4398,A4,285.75,0.125,42,100.0
4399,D4,285.75,0.125,42,100.0
4400,B4,285.875,0.125,15,100.0
4401,E4,285.875,0.125,15,100.0
4402,D3,286.0,0.5,63,100.0
4403,A4,286.0,0.125,42,100.0
4404,D4,286.0,0.125,42,100.0
4405,C2,286.0,0.5,95,100.0
4406,E-3,286.0,0.5,95,100.0
4407,B4,286.125,0.125,15,100.0
4408,E4,286.125,0.125,15,100.0
4409,A1,286.25,0.25,63,100.0
4410,A4,286.25,0.125,42,100.0
4411,D4,286.25,0.125,42,100.0
4412,B4,286.375,0.125,15,100.0
4413,E4,286.375,0.125,15,100.0
4414,G2,286.5,0.5,63,100.0
4415,D2,286.5,167/1000,63,100.0
4416,C2,286.5,0.5,95,100.0
4417,A4,286.5,0.125,42,100.0
4418,D4,286.5,0.125,42,100.0
4419,B4,286.625,0.125,15,100.0
4420,E4,286.625,0.125,15,100.0
4421,E2,286.667,333/1000,38,100.0
4422,A4,286.75,0.125,42,100.0
4423,D4,286.75,0.125,42,100.0
4424,B4,286.875,0.125,15,100.0
4425,E4,286.875,0.125,15,100.0
4426,A2,287.0,0.25,63,100.0
4427,D2,287.0,0.5,63,100.0
4428,A4,287.0,0.125,42,100.0
4429,D4,287.0,0.125,42,100.0
4430,E2,287.0,0.5,95,100.0
4431,E-3,287.0,0.5,95,100.0
4432,B4,287.125,0.125,15,100.0
4433,E4,287.125,0.125,15,100.0
4434,G2,287.25,0.25,63,100.0
4435,A4,287.25,0.125,42,100.0
4436,D4,287.25,0.125,42,100.0
4437,B4,287.375,0.125,15,100.0
4438,E4,287.375,0.125,15,100.0
4439,D4,287.5,83/1000,63,100.0
4440,C3,287.5,0.25,63,100.0
4441,D2,287.5,83/1000,63,100.0
4442,C2,287.5,0.25,95,100.0
4443,A4,287.5,0.125,42,100.0
4444,D4,287.5,0.125,42,100.0
4445,E-4,287.583,83/1000,38,100.0
4446,E-2,287.583,83/1000,38,100.0
4447,B4,287.625,0.125,15,100.0
4448,E4,287.625,0.125,15,100.0
4449,E4,287.667,83/1000,63,100.0
4450,E2,287.667,83/1000,38,100.0
4451,D4,287.75,83/1000,63,100.0
4452,A2,287.75,0.25,63,100.0
4453,D2,287.75,83/1000,63,100.0
4454,C2,287.75,0.25,95,100.0
4455,A4,287.75,0.125,42,100.0
4456,D4,287.75,0.125,42,100.0
4457,C4,287.833,83/1000,38,100.0
4458,C2,287.833,83/1000,63,100.0
4459,B4,287.875,0.125,15,100.0
4460,E4,287.875,0.125,15,100.0
4461,A3,287.917,83/1000,63,100.0
4462,A1,287.917,83/1000,63,100.0
4463,G3,288.0,0.5,63,100.0
4464,D3,288.0,0.75,63,100.0
4465,G1,288.0,0.5,63,100.0
4466,E-3,288.0,0.25,95,100.0
4467,C2,288.0,0.25,95,100.0
4468,C2,288.25,0.25,95,100.0
4469,A3,288.5,0.5,63,100.0
4470,A1,288.5,0.5,63,100.0
4471,D3,288.75,0.25,63,100.0
4472,E3,289.0,0.5,63,100.0
4473,A1,289.0,0.5,63,100.0
4474,E-3,289.0,0.25,95,100.0
4475,E2,289.0,0.25,95,100.0
4476,D3,289.5,0.5,63,100.0
4477,A2,289.5,1.0,63,100.0
4478,E4,289.5,2.0,63,100.0
4479,C4,289.5,2.0,63,100.0
4480,G3,289.5,2.0,63,100.0
4481,A4,289.5,0.125,63,100.0
4482,D4,289.5,0.125,63,100.0
4483,B4,289.625,0.125,15,100.0
4484,E4,289.625,0.125,15,100.0
4485,C2,289.75,0.25,79,100.0
4486,A4,289.75,0.125,42,100.0
4487,D4,289.75,0.125,42,100.0
4488,B4,289.875,0.125,15,100.0
4489,E4,289.875,0.125,15,100.0
4490,E3,290.0,0.5,63,100.0
4491,A4,290.0,0.125,42,100.0
4492,D4,290.0,0.125,42,100.0
4493,C2,290.0,0.5,95,100.0
4494,E-3,290.0,0.5,95,100.0
4495,B4,290.125,0.125,15,100.0
4496,E4,290.125,0.125,15,100.0
4497,A4,290.25,0.125,42,100.0
4498,D4,290.25,0.125,42,100.0
4499,B4,290.375,0.125,15,100.0
4500,E4,290.375,0.125,15,100.0
4501,G2,290.5,0.5,63,100.0
4502,D2,290.5,0.5,63,100.0
4503,C2,290.5,0.5,95,100.0
4504,A4,290.5,0.125,42,100.0
4505,D4,290.5,0.125,42,100.0
4506,B4,290.625,0.125,15,100.0
4507,E4,290.625,0.125,15,100.0
4508,A4,290.75,0.125,42,100.0
4509,D4,290.75,0.125,42,100.0
4510,B4,290.875,0.125,15,100.0
4511,E4,290.875,0.125,15,100.0
4512,A2,291.0,0.25,63,100.0
4513,C2,291.0,0.5,63,100.0
4514,A4,291.0,0.125,42,100.0
4515,D4,291.0,0.125,42,100.0
4516,E2,291.0,0.5,95,100.0
4517,E-3,291.0,0.5,95,100.0
4518,B4,291.125,0.125,15,100.0
4519,E4,291.125,0.125,15,100.0
4520,G2,291.25,0.25,63,100.0
4521,A4,291.25,0.125,42,100.0
4522,D4,291.25,0.125,42,100.0
4523,B4,291.375,0.125,15,100.0
4524,E4,291.375,0.125,15,100.0
4525,D4,291.5,83/1000,63,100.0
4526,C3,291.5,0.25,63,100.0
4527,D2,291.5,83/1000,63,100.0
4528,C2,291.5,0.5,95,100.0
4529,A4,291.5,0.125,42,100.0
4530,D4,291.5,0.125,42,100.0
4531,E-4,291.583,83/1000,38,100.0
4532,E-2,291.583,83/1000,38,100.0
4533,B4,291.625,0.125,15,100.0
4534,E4,291.625,0.125,15,100.0
4535,E4,291.667,83/1000,63,100.0
4536,E2,291.667,83/1000,38,100.0
4537,D4,291.75,83/1000,63,100.0
4538,G2,291.75,0.25,63,100.0
4539,D2,291.75,83/1000,63,100.0
4540,A4,291.75,0.125,42,100.0
4541,D4,291.75,0.125,42,100.0
4542,C4,291.833,83/1000,38,100.0
4543,C2,291.833,83/1000,63,100.0
4544,B4,291.875,0.125,15,100.0
4545,E4,291.875,0.125,15,100.0
4546,A3,291.917,83/1000,63,100.0
4547,A1,291.917,83/1000,63,100.0
4548,G3,292.0,0.5,63,100.0
4549,C3,292.0,0.75,63,100.0
4550,G1,292.0,0.5,63,100.0
4551,C2,292.0,0.75,95,100.0
4552,E-3,292.0,0.75,95,100.0
4553,A3,292.5,0.5,63,100.0
4554,A1,292.5,0.5,63,100.0
4555,C3,292.75,0.25,63,100.0
4556,C2,292.75,0.25,95,100.0
4557,D3,293.0,0.5,63,100.0
4558,A1,293.0,0.5,63,100.0
4559,E2,293.0,0.5,95,100.0
4560,E-3,293.0,0.5,95,100.0
4561,C3,293.5,0.5,63,100.0
4562,A2,293.5,0.5,63,100.0
4563,C2,293.5,0.5,95,100.0
4564,F#4,293.5,2.0,63,100.0
4565,D4,293.5,2.0,63,100.0
4566,A3,293.5,2.0,63,100.0
4567,A4,293.5,0.125,63,100.0
4568,D4,293.5,0.125,63,100.0
4569,B4,293.625,0.125,15,100.0
4570,E4,293.625,0.125,15,100.0
4571,A4,293.75,0.125,42,100.0
4572,D4,293.75,0.125,42,100.0
4573,B4,293.875,0.125,15,100.0
4574,E4,293.875,0.125,15,100.0
4575,D3,294.0,0.5,63,100.0
4576,A4,294.0,0.125,42,100.0
4577,D4,294.0,0.125,42,100.0
4578,C2,294.0,0.5,95,100.0
4579,E-3,294.0,0.5,95,100.0
4580,B4,294.125,0.125,15,100.0
4581,E4,294.125,0.125,15,100.0
4582,A1,294.25,0.25,63,100.0
4583,A4,294.25,0.125,42,100.0
4584,D4,294.25,0.125,42,100.0
4585,B4,294.375,0.125,15,100.0
4586,E4,294.375,0.125,15,100.0
4587,G2,294.5,0.5,63,100.0
4588,D2,294.5,167/1000,63,100.0
4589,A4,294.5,0.125,42,100.0
4590,D4,294.5,0.125,42,100.0
4591,B4,294.625,0.125,15,100.0
4592,E4,294.625,0.125,15,100.0
4593,E2,294.667,333/1000,38,100.0
4594,A4,294.75,0.125,42,100.0
4595,D4,294.75,0.125,42,100.0
4596,B4,294.875,0.125,15,100.0
4597,E4,294.875,0.125,15,100.0
4598,A2,295.0,0.25,63,100.0
4599,D2,295.0,0.5,63,100.0
4600,A4,295.0,0.125,42,100.0
4601,D4,295.0,0.125,42,100.0
4602,E2,295.0,0.25,95,100.0
4603,E-3,295.0,0.25,95,100.0
4604,B4,295.125,0.125,15,100.0
4605,E4,295.125,0.125,15,100.0
4606,G2,295.25,0.25,63,100.0
4607,E2,295.25,0.25,63,100.0
4608,A4,295.25,0.125,42,100.0
4609,D4,295.25,0.125,42,100.0
4610,B4,295.375,0.125,15,100.0
4611,E4,295.375,0.125,15,100.0
4612,D4,295.5,83/1000,63,100.0
4613,C3,295.5,0.25,63,100.0
4614,D2,295.5,83/1000,63,100.0
4615,C2,295.5,0.25,95,100.0
4616,A4,295.5,0.125,42,100.0
4617,D4,295.5,0.125,42,100.0
4618,E-4,295.583,83/1000,38,100.0
4619,E-2,295.583,83/1000,38,100.0
4620,B4,295.625,0.125,15,100.0
4621,E4,295.625,0.125,15,100.0
4622,E4,295.667,83/1000,63,100.0
4623,E2,295.667,83/1000,38,100.0
4624,D4,295.75,83/1000,63,100.0
4625,A2,295.75,0.25,63,100.0
4626,D2,295.75,83/1000,63,100.0
4627,C2,295.75,0.25,95,100.0
4628,A4,295.75,0.125,42,100.0
4629,D4,295.75,0.125,42,100.0
4630,C4,295.833,83/1000,38,100.0
4631,C2,295.833,83/1000,63,100.0
4632,B4,295.875,0.125,15,100.0
4633,E4,295.875,0.125,15,100.0
4634,A3,295.917,83/1000,63,100.0
4635,A1,295.917,83/1000,63,100.0
4636,G3,296.0,0.5,63,100.0
4637,D3,296.0,0.75,63,100.0
4638,G1,296.0,0.5,63,100.0
4639,C2,296.0,0.5,95,100.0
4640,E-3,296.0,0.5,95,100.0
4641,A3,296.5,0.5,63,100.0
4642,A1,296.5,0.5,63,100.0
4643,C2,296.5,0.25,95,100.0
4644,D3,296.75,0.25,63,100.0
4645,D2,296.75,0.25,47,100.0
4646,E3,297.0,0.5,63,100.0
4647,A1,297.0,0.5,63,100.0
4648,E-3,297.0,0.5,95,100.0
4649,E2,297.0,0.5,95,100.0
4650,D3,297.5,0.5,63,100.0
4651,A2,297.5,1.0,63,100.0
4652,C2,297.5,0.5,95,100.0
4653,E4,297.5,2.0,63,100.0
4654,C4,297.5,2.0,63,100.0
4655,G3,297.5,2.0,63,100.0
4656,A4,297.5,0.125,63,100.0
4657,D4,297.5,0.125,63,100.0
4658,B4,297.625,0.125,15,100.0
4659,E4,297.625,0.125,15,100.0
4660,A4,297.75,0.125,42,100.0
4661,D4,297.75,0.125,42,100.0
4662,B4,297.875,0.125,15,100.0
4663,E4,297.875,0.125,15,100.0
4664,E3,298.0,0.5,63,100.0
4665,A4,298.0,0.125,42,100.0
4666,D4,298.0,0.125,42,100.0
4667,E-3,298.0,0.25,95,100.0
4668,C2,298.0,0.25,95,100.0
4669,B4,298.125,0.125,15,100.0
4670,E4,298.125,0.125,15,100.0
4671,C2,298.25,0.5,95,100.0
4672,A4,298.25,0.125,42,100.0
4673,D4,298.25,0.125,42,100.0
4674,B4,298.375,0.125,15,100.0
4675,E4,298.375,0.125,15,100.0
4676,G2,298.5,0.5,63,100.0
4677,D2,298.5,0.5,63,100.0
4678,A4,298.5,0.125,42,100.0
4679,D4,298.5,0.125,42,100.0
4680,B4,298.625,0.125,15,100.0
4681,E4,298.625,0.125,15,100.0
4682,C2,298.75,0.25,95,100.0
4683,A4,298.75,0.125,42,100.0
4684,D4,298.75,0.125,42,100.0
4685,B4,298.875,0.125,15,100.0
4686,E4,298.875,0.125,15,100.0
4687,A2,299.0,0.25,63,100.0
4688,C2,299.0,0.5,63,100.0
4689,A4,299.0,0.125,42,100.0
4690,D4,299.0,0.125,42,100.0
4691,E-3,299.0,1.0,95,100.0
4692,E2,299.0,1.0,95,100.0
4693,B4,299.125,0.125,15,100.0
4694,E4,299.125,0.125,15,100.0
4695,G2,299.25,0.25,63,100.0
4696,A4,299.25,0.125,42,100.0
4697,D4,299.25,0.125,42,100.0
4698,B4,299.375,0.125,15,100.0
4699,E4,299.375,0.125,15,100.0
4700,D4,299.5,83/1000,63,100.0
4701,C3,299.5,0.25,63,100.0
4702,D2,299.5,83/1000,63,100.0
4703,A4,299.5,0.125,42,100.0
4704,D4,299.5,0.125,42,100.0
4705,E-4,299.583,83/1000,38,100.0
4706,E-2,299.583,83/1000,38,100.0
4707,B4,299.625,0.125,15,100.0
4708,E4,299.625,0.125,15,100.0
4709,E4,299.667,83/1000,63,100.0
4710,E2,299.667,83/1000,38,100.0
4711,D4,299.75,83/1000,63,100.0
4712,G2,299.75,0.25,63,100.0
4713,D2,299.75,83/1000,63,100.0
4714,A4,299.75,0.125,42,100.0
4715,D4,299.75,0.125,42,100.0
4716,C4,299.833,83/1000,38,100.0
4717,C2,299.833,83/1000,63,100.0
4718,B4,299.875,0.125,15,100.0
4719,E4,299.875,0.125,15,100.0
4720,A3,299.917,83/1000,63,100.0
4721,A1,299.917,83/1000,63,100.0
4722,C3,300.0,0.75,63,100.0
4723,C3,300.75,0.25,63,100.0
4724,D3,301.0,0.5,63,100.0
4725,C3,301.5,0.5,63,100.0
4726,D3,302.0,0.5,63,100.0
