,note_name,start_time,duration,velocity,tempo
0,D3,0.0,1.0,127,138.0
1,F#3,0.0,1.0,127,138.0
2,D3,0.0,1.0,127,138.0
3,A3,0.0,1.0,127,138.0
4,F#3,0.0,1.0,127,138.0
5,D3,0.0,1.0,127,138.0
6,D3,1.0,1.0,127,138.0
7,F#3,1.0,1.0,127,138.0
8,D3,1.0,1.0,127,138.0
9,A3,1.0,1.0,127,138.0
10,F#3,1.0,1.0,127,138.0
11,D3,1.0,1.0,127,138.0
12,B2,2.0,0.5,127,138.0
13,E3,2.0,0.5,127,138.0
14,B2,2.0,0.5,127,138.0
15,A3,2.0,1.5,127,138.0
16,F#3,2.0,1.5,127,138.0
17,D3,2.0,1.5,127,138.0
18,A2,2.5,0.5,127,138.0
19,D3,2.5,0.5,127,138.0
20,A2,2.5,0.5,127,138.0
21,F#2,3.0,0.5,127,138.0
22,B2,3.0,0.5,127,138.0
23,F#2,3.0,0.5,127,138.0
24,D2,3.5,1.0,127,138.0
25,A2,3.5,1.0,127,138.0
26,D2,3.5,0.5,127,138.0
27,F#4,3.5,0.5,127,138.0
28,D4,3.5,0.5,127,138.0
29,A3,3.5,0.5,127,138.0
30,D2,4.5,1.0,127,138.0
31,A2,4.5,1.0,127,138.0
32,D2,4.5,1.0,127,138.0
33,E4,4.5,1.5,127,138.0
34,B3,4.5,1.5,127,138.0
35,G3,4.5,1.5,127,138.0
36,F#2,5.5,0.5,127,138.0
37,B2,5.5,0.5,127,138.0
38,F#2,5.5,0.5,127,138.0
39,A2,6.0,0.5,127,138.0
40,D3,6.0,0.5,127,138.0
41,A2,6.0,0.5,127,138.0
42,B2,6.5,0.5,127,138.0
43,E3,6.5,0.5,127,138.0
44,B2,6.5,0.5,127,138.0
45,D3,7.0,1.0,127,138.0
46,F#3,7.0,1.0,127,138.0
47,D3,7.0,1.0,127,138.0
48,A3,7.0,1.0,127,138.0
49,F#3,7.0,1.0,127,138.0
50,D3,7.0,1.0,127,138.0
51,D3,8.0,1.0,127,138.0
52,F#3,8.0,1.0,127,138.0
53,D3,8.0,1.0,127,138.0
54,A3,8.0,1.0,127,138.0
55,F#3,8.0,1.0,127,138.0
56,D3,8.0,1.0,127,138.0
57,B2,9.0,0.5,127,138.0
58,E3,9.0,0.5,127,138.0
59,B2,9.0,0.5,127,138.0
60,A3,9.0,1.5,127,138.0
61,F#3,9.0,1.5,127,138.0
62,D3,9.0,1.5,127,138.0
63,A2,9.5,0.5,127,138.0
64,D3,9.5,0.5,127,138.0
65,A2,9.5,0.5,127,138.0
66,F#2,10.0,0.5,127,138.0
67,B2,10.0,0.5,127,138.0
68,F#2,10.0,0.5,127,138.0
69,D2,10.5,1.0,127,138.0
70,A2,10.5,1.0,127,138.0
71,D2,10.5,0.5,127,138.0
72,F#4,10.5,0.5,127,138.0
73,D4,10.5,0.5,127,138.0
74,A3,10.5,0.5,127,138.0
75,D2,11.5,1.0,127,138.0
76,A2,11.5,1.0,127,138.0
77,D2,11.5,1.0,127,138.0
78,E4,11.5,1.5,127,138.0
79,B3,11.5,1.5,127,138.0
80,G3,11.5,1.5,127,138.0
81,F#2,12.5,0.5,127,138.0
82,B2,12.5,0.5,127,138.0
83,F#2,12.5,0.5,127,138.0
84,A2,13.0,0.5,127,138.0
85,D3,13.0,0.5,127,138.0
86,A2,13.0,0.5,127,138.0
87,B2,13.5,0.5,127,138.0
88,E3,13.5,0.5,127,138.0
89,B2,13.5,0.5,127,138.0
90,D3,14.0,1.0,127,138.0
91,F#3,14.0,1.0,127,138.0
92,D3,14.0,1.0,127,138.0
93,A3,14.0,1.0,127,138.0
94,F#3,14.0,1.0,127,138.0
95,D3,14.0,1.0,127,138.0
96,D3,15.0,1.0,127,138.0
97,F#3,15.0,1.0,127,138.0
98,D3,15.0,1.0,127,138.0
99,A3,15.0,1.0,127,138.0
100,F#3,15.0,1.0,127,138.0
101,D3,15.0,1.0,127,138.0
102,B2,16.0,0.5,127,138.0
103,E3,16.0,0.5,127,138.0
104,B2,16.0,0.5,127,138.0
105,A3,16.0,1.5,127,138.0
106,F#3,16.0,1.5,127,138.0
107,D3,16.0,1.5,127,138.0
108,A2,16.5,0.5,127,138.0
109,D3,16.5,0.5,127,138.0
110,A2,16.5,0.5,127,138.0
111,F#2,17.0,0.5,127,138.0
112,B2,17.0,0.5,127,138.0
113,F#2,17.0,0.5,127,138.0
114,D2,17.5,1.0,127,138.0
115,A2,17.5,1.0,127,138.0
116,D2,17.5,0.5,127,138.0
117,F#4,17.5,0.5,127,138.0
118,D4,17.5,0.5,127,138.0
119,A3,17.5,0.5,127,138.0
120,D2,18.5,1.0,127,138.0
121,A2,18.5,1.0,127,138.0
122,D2,18.5,1.0,127,138.0
123,E4,18.5,1.5,127,138.0
124,B3,18.5,1.5,127,138.0
125,G3,18.5,1.5,127,138.0
126,F#2,19.5,0.5,127,138.0
127,B2,19.5,0.5,127,138.0
128,F#2,19.5,0.5,127,138.0
129,A2,20.0,0.5,127,138.0
130,D3,20.0,0.5,127,138.0
131,A2,20.0,0.5,127,138.0
132,B2,20.5,0.5,127,138.0
133,E3,20.5,0.5,127,138.0
134,B2,20.5,0.5,127,138.0
135,D3,21.0,1.0,127,138.0
136,F#3,21.0,1.0,127,138.0
137,D3,21.0,1.0,127,138.0
138,A3,21.0,1.0,127,138.0
139,F#3,21.0,1.0,127,138.0
140,D3,21.0,1.0,127,138.0
141,D3,22.0,1.0,127,138.0
142,F#3,22.0,1.0,127,138.0
143,D3,22.0,1.0,127,138.0
144,A3,22.0,1.0,127,138.0
145,F#3,22.0,1.0,127,138.0
146,D3,22.0,1.0,127,138.0
147,B2,23.0,0.5,127,138.0
148,E3,23.0,0.5,127,138.0
149,B2,23.0,0.5,127,138.0
150,A3,23.0,1.5,127,138.0
151,F#3,23.0,1.5,127,138.0
152,D3,23.0,1.5,127,138.0
153,A2,23.5,0.5,127,138.0
154,D3,23.5,0.5,127,138.0
155,A2,23.5,0.5,127,138.0
156,F#2,24.0,0.5,127,138.0
157,B2,24.0,0.5,127,138.0
158,F#2,24.0,0.5,127,138.0
159,D2,24.5,1.0,127,138.0
160,A2,24.5,1.0,127,138.0
161,D2,24.5,0.5,127,138.0
162,F#4,24.5,0.5,127,138.0
163,D4,24.5,0.5,127,138.0
164,A3,24.5,0.5,127,138.0
165,D2,25.5,1.0,127,138.0
166,A2,25.5,1.0,127,138.0
167,D2,25.5,1.0,127,138.0
168,E4,25.5,1.5,127,138.0
169,B3,25.5,1.5,127,138.0
170,G3,25.5,1.5,127,138.0
171,F#2,26.5,0.5,127,138.0
172,B2,26.5,0.5,127,138.0
173,F#2,26.5,0.5,127,138.0
174,A2,27.0,0.5,127,138.0
175,D3,27.0,0.5,127,138.0
176,A2,27.0,0.5,127,138.0
177,B2,27.5,0.5,127,138.0
178,E3,27.5,0.5,127,138.0
179,B2,27.5,0.5,127,138.0
180,F#3,28.0,0.5,127,138.0
181,D3,28.0,1.0,127,138.0
182,D3,28.0,1.0,127,138.0
183,A3,28.0,1.0,127,138.0
184,F#3,28.0,1.0,127,138.0
185,D3,28.0,1.0,127,138.0
186,F#3,28.5,0.5,127,138.0
187,D3,29.0,0.75,127,138.0
188,D3,29.0,1.0,127,138.0
189,D3,29.0,1.0,127,138.0
190,A3,29.0,1.0,127,138.0
191,F#3,29.0,1.0,127,138.0
192,D3,29.0,1.0,127,138.0
193,D3,29.75,0.25,127,138.0
194,F#3,30.0,0.5,127,138.0
195,C3,30.0,0.5,127,138.0
196,C3,30.0,0.5,127,138.0
197,G3,30.0,0.5,127,138.0
198,E3,30.0,0.5,127,138.0
199,C3,30.0,0.5,127,138.0
200,F#3,30.5,0.25,127,138.0
201,C#3,30.5,0.5,127,138.0
202,C#3,30.5,0.5,127,138.0
203,G#3,30.5,0.5,127,138.0
204,F3,30.5,0.5,127,138.0
205,C#3,30.5,0.5,127,138.0
206,D3,30.75,0.75,127,138.0
207,D3,31.0,0.5,127,138.0
208,D3,31.0,0.5,127,138.0
209,A3,31.0,0.5,127,138.0
210,F#3,31.0,0.5,127,138.0
211,D3,31.0,0.5,127,138.0
212,D5,31.25,0.25,127,138.0
213,D3,31.5,1.0,127,138.0
214,F5,31.5,0.25,127,138.0
215,D3,31.5,0.5,127,138.0
216,A3,31.5,1.0,127,138.0
217,F#3,31.5,1.0,127,138.0
218,D3,31.5,1.0,127,138.0
219,E5,31.75,0.25,127,138.0
220,E-5,32.0,0.25,127,138.0
221,D5,32.25,0.25,127,138.0
222,D3,32.5,1.0,127,138.0
223,C#5,32.5,0.25,127,138.0
224,D3,32.5,1.0,127,138.0
225,A3,32.5,1.0,127,138.0
226,F#3,32.5,1.0,127,138.0
227,D3,32.5,1.0,127,138.0
228,C5,32.75,0.25,127,138.0
229,B4,33.0,0.25,127,138.0
230,G#4,33.25,0.25,127,138.0
231,C3,33.5,0.5,127,138.0
232,B4,33.5,0.25,127,138.0
233,C3,33.5,0.5,127,138.0
234,G3,33.5,0.5,127,138.0
235,E3,33.5,0.5,127,138.0
236,C3,33.5,0.5,127,138.0
237,G#4,33.75,0.25,127,138.0
238,C#3,34.0,0.5,127,138.0
239,C#3,34.0,0.5,127,138.0
240,G#3,34.0,0.5,127,138.0
241,F3,34.0,0.5,127,138.0
242,C#3,34.0,0.5,127,138.0
243,G#4,34.25,0.25,127,138.0
244,D3,34.5,0.5,127,138.0
245,B4,34.5,0.25,127,138.0
246,D3,34.5,0.5,127,138.0
247,A3,34.5,0.5,127,138.0
248,F#3,34.5,0.5,127,138.0
249,D3,34.5,0.5,127,138.0
250,B-4,34.75,0.25,127,138.0
251,D3,35.0,1.0,95,138.0
252,D3,35.0,1.0,127,138.0
253,F#3,35.0,1.0,127,138.0
254,A4,35.0,0.25,127,138.0
255,D3,35.0,1.0,127,138.0
256,A3,35.0,1.0,127,138.0
257,F#3,35.0,1.0,127,138.0
258,D3,35.0,1.0,127,138.0
259,D3,36.0,1.0,95,138.0
260,D3,36.0,1.0,127,138.0
261,F#3,36.0,1.0,127,138.0
262,D3,36.0,1.0,127,138.0
263,A3,36.0,1.0,127,138.0
264,F#3,36.0,1.0,127,138.0
265,D3,36.0,1.0,127,138.0
266,B2,37.0,0.5,95,138.0
267,B2,37.0,0.5,127,138.0
268,E3,37.0,0.5,127,138.0
269,B2,37.0,0.5,127,138.0
270,A3,37.0,1.5,127,138.0
271,F#3,37.0,1.5,127,138.0
272,D3,37.0,1.5,127,138.0
273,A2,37.5,0.5,95,138.0
274,A2,37.5,0.5,127,138.0
275,D3,37.5,0.5,127,138.0
276,A2,37.5,0.5,127,138.0
277,F#2,38.0,0.5,95,138.0
278,F#2,38.0,0.5,127,138.0
279,B2,38.0,0.5,127,138.0
280,F#2,38.0,0.5,127,138.0
281,D2,38.5,0.5,95,138.0
282,D2,38.5,1.0,127,138.0
283,A2,38.5,1.0,127,138.0
284,D2,38.5,0.5,127,138.0
285,F#4,38.5,0.5,127,138.0
286,D4,38.5,0.5,127,138.0
287,A3,38.5,0.5,127,138.0
288,D2,39.5,0.5,95,138.0
289,D2,39.5,1.0,127,138.0
290,A2,39.5,1.0,127,138.0
291,D2,39.5,1.0,127,138.0
292,E4,39.5,1.5,127,138.0
293,B3,39.5,1.5,127,138.0
294,G3,39.5,1.5,127,138.0
295,F#2,40.5,0.5,95,138.0
296,F#2,40.5,0.5,127,138.0
297,B2,40.5,0.5,127,138.0
298,F#2,40.5,0.5,127,138.0
299,A2,41.0,0.5,95,138.0
300,A2,41.0,0.5,127,138.0
301,D3,41.0,0.5,127,138.0
302,A2,41.0,0.5,127,138.0
303,B2,41.5,0.5,95,138.0
304,B2,41.5,0.5,127,138.0
305,E3,41.5,0.5,127,138.0
306,B2,41.5,0.5,127,138.0
307,F#3,42.0,0.5,127,138.0
308,D3,42.0,1.0,127,138.0
309,D3,42.0,1.0,127,138.0
310,A3,42.0,1.0,127,138.0
311,F#3,42.0,1.0,127,138.0
312,D3,42.0,1.0,127,138.0
313,F#3,42.5,0.5,127,138.0
314,D3,43.0,0.75,127,138.0
315,D3,43.0,1.0,127,138.0
316,D3,43.0,1.0,127,138.0
317,A3,43.0,1.0,127,138.0
318,F#3,43.0,1.0,127,138.0
319,D3,43.0,1.0,127,138.0
320,D3,43.75,0.25,127,138.0
321,F#3,44.0,0.5,127,138.0
322,C3,44.0,0.5,127,138.0
323,C3,44.0,0.5,127,138.0
324,G3,44.0,0.5,127,138.0
325,E3,44.0,0.5,127,138.0
326,C3,44.0,0.5,127,138.0
327,F#3,44.5,0.25,127,138.0
328,C#3,44.5,0.5,127,138.0
329,C#3,44.5,0.5,127,138.0
330,G#3,44.5,0.5,127,138.0
331,F3,44.5,0.5,127,138.0
332,C#3,44.5,0.5,127,138.0
333,D3,44.75,0.75,127,138.0
334,D3,45.0,0.5,127,138.0
335,D3,45.0,0.5,127,138.0
336,A3,45.0,0.5,127,138.0
337,F#3,45.0,0.5,127,138.0
338,D3,45.0,0.5,127,138.0
339,D3,45.5,1.0,127,138.0
340,D3,45.5,0.5,127,138.0
341,A3,45.5,1.0,127,138.0
342,F#3,45.5,1.0,127,138.0
343,D3,45.5,1.0,127,138.0
344,D3,46.5,1.0,127,138.0
345,D3,46.5,1.0,127,138.0
346,A3,46.5,1.0,127,138.0
347,F#3,46.5,1.0,127,138.0
348,D3,46.5,1.0,127,138.0
349,C3,47.5,0.5,127,138.0
350,C3,47.5,0.5,127,138.0
351,G3,47.5,0.5,127,138.0
352,E3,47.5,0.5,127,138.0
353,C3,47.5,0.5,127,138.0
354,C#3,48.0,0.5,127,138.0
355,C#3,48.0,0.5,127,138.0
356,G#3,48.0,0.5,127,138.0
357,F3,48.0,0.5,127,138.0
358,C#3,48.0,0.5,127,138.0
359,D3,48.5,0.5,127,138.0
360,D3,48.5,0.5,127,138.0
361,A3,48.5,0.5,127,138.0
362,F#3,48.5,0.5,127,138.0
363,D3,48.5,0.5,127,138.0
364,D3,49.0,1.0,95,138.0
365,D3,49.0,1.0,127,138.0
366,F#3,49.0,1.0,127,138.0
367,D3,49.0,1.0,127,138.0
368,A3,49.0,1.0,127,138.0
369,F#3,49.0,1.0,127,138.0
370,D3,49.0,1.0,127,138.0
371,D3,50.0,1.0,95,138.0
372,D3,50.0,1.0,127,138.0
373,F#3,50.0,1.0,127,138.0
374,D3,50.0,1.0,127,138.0
375,A3,50.0,1.0,127,138.0
376,F#3,50.0,1.0,127,138.0
377,D3,50.0,1.0,127,138.0
378,B2,51.0,0.5,95,138.0
379,B2,51.0,0.5,127,138.0
380,E3,51.0,0.5,127,138.0
381,B2,51.0,0.5,127,138.0
382,A3,51.0,1.5,127,138.0
383,F#3,51.0,1.5,127,138.0
384,D3,51.0,1.5,127,138.0
385,A2,51.5,0.5,95,138.0
386,A2,51.5,0.5,127,138.0
387,D3,51.5,0.5,127,138.0
388,A2,51.5,0.5,127,138.0
389,F#2,52.0,0.5,95,138.0
390,F#2,52.0,0.5,127,138.0
391,B2,52.0,0.5,127,138.0
392,F#2,52.0,0.5,127,138.0
393,D2,52.5,0.5,95,138.0
394,D2,52.5,1.0,127,138.0
395,A2,52.5,1.0,127,138.0
396,D2,52.5,0.5,127,138.0
397,F#4,52.5,0.5,127,138.0
398,D4,52.5,0.5,127,138.0
399,A3,52.5,0.5,127,138.0
400,D2,53.5,0.5,95,138.0
401,D2,53.5,1.0,127,138.0
402,A2,53.5,1.0,127,138.0
403,D2,53.5,1.0,127,138.0
404,E4,53.5,1.5,127,138.0
405,B3,53.5,1.5,127,138.0
406,G3,53.5,1.5,127,138.0
407,F#2,54.5,0.5,95,138.0
408,F#2,54.5,0.5,127,138.0
409,B2,54.5,0.5,127,138.0
410,F#2,54.5,0.5,127,138.0
411,A2,55.0,0.5,95,138.0
412,A2,55.0,0.5,127,138.0
413,D3,55.0,0.5,127,138.0
414,A2,55.0,0.5,127,138.0
415,B2,55.5,0.5,95,138.0
416,B2,55.5,0.5,127,138.0
417,E3,55.5,0.5,127,138.0
418,B2,55.5,0.5,127,138.0
419,A3,56.0,0.25,127,138.0
420,D3,56.0,1.0,127,138.0
421,F#3,56.0,1.0,127,138.0
422,D3,56.0,1.0,127,138.0
423,A3,56.0,1.0,127,138.0
424,F#3,56.0,1.0,127,138.0
425,D3,56.0,1.0,127,138.0
426,G#3,56.25,0.25,127,138.0
427,A3,56.5,0.5,127,138.0
428,C#4,57.0,0.75,127,138.0
429,D3,57.0,1.0,127,138.0
430,F#3,57.0,1.0,127,138.0
431,D3,57.0,1.0,127,138.0
432,A3,57.0,1.0,127,138.0
433,F#3,57.0,1.0,127,138.0
434,D3,57.0,1.0,127,138.0
435,A3,57.75,0.25,127,138.0
436,G3,58.0,0.25,127,138.0
437,B2,58.0,0.5,127,138.0
438,E3,58.0,0.5,127,138.0
439,B2,58.0,0.5,127,138.0
440,A3,58.0,1.5,127,138.0
441,F#3,58.0,1.5,127,138.0
442,D3,58.0,1.5,127,138.0
443,C4,58.25,0.75,127,138.0
444,A2,58.5,0.5,127,138.0
445,D3,58.5,0.5,127,138.0
446,A2,58.5,0.5,127,138.0
447,A3,59.0,0.5,127,138.0
448,F#2,59.0,0.5,127,138.0
449,B2,59.0,0.5,127,138.0
450,F#2,59.0,0.5,127,138.0
451,A3,59.5,1.0,127,138.0
452,D2,59.5,1.0,127,138.0
453,A2,59.5,1.0,127,138.0
454,D2,59.5,0.5,127,138.0
455,F#4,59.5,0.5,127,138.0
456,D4,59.5,0.5,127,138.0
457,A3,59.5,0.5,127,138.0
458,G3,60.5,0.25,127,138.0
459,D2,60.5,1.0,127,138.0
460,A2,60.5,1.0,127,138.0
461,D2,60.5,1.0,127,138.0
462,E4,60.5,1.5,127,138.0
463,B3,60.5,1.5,127,138.0
464,G3,60.5,1.5,127,138.0
465,F#3,60.75,0.25,127,138.0
466,D3,61.0,1.5,127,138.0
467,F#2,61.5,0.5,127,138.0
468,B2,61.5,0.5,127,138.0
469,F#2,61.5,0.5,127,138.0
470,A2,62.0,0.5,127,138.0
471,D3,62.0,0.5,127,138.0
472,A2,62.0,0.5,127,138.0
473,B2,62.5,0.5,127,138.0
474,E3,62.5,0.5,127,138.0
475,B2,62.5,0.5,127,138.0
476,D3,63.0,1.0,127,138.0
477,D3,63.0,1.0,127,138.0
478,A3,63.0,1.0,127,138.0
479,F#3,63.0,1.0,127,138.0
480,D3,63.0,1.0,127,138.0
481,D3,64.0,1.0,127,138.0
482,D3,64.0,1.0,127,138.0
483,A3,64.0,1.0,127,138.0
484,F#3,64.0,1.0,127,138.0
485,D3,64.0,1.0,127,138.0
486,C3,65.0,0.5,127,138.0
487,C3,65.0,0.5,127,138.0
488,G3,65.0,0.5,127,138.0
489,E3,65.0,0.5,127,138.0
490,C3,65.0,0.5,127,138.0
491,C#3,65.5,0.5,127,138.0
492,C#3,65.5,0.5,127,138.0
493,G#3,65.5,0.5,127,138.0
494,F3,65.5,0.5,127,138.0
495,C#3,65.5,0.5,127,138.0
496,D3,66.0,0.5,127,138.0
497,D3,66.0,0.5,127,138.0
498,A3,66.0,0.5,127,138.0
499,F#3,66.0,0.5,127,138.0
500,D3,66.0,0.5,127,138.0
501,D3,66.5,1.0,127,138.0
502,D3,66.5,0.5,127,138.0
503,A3,66.5,1.0,127,138.0
504,F#3,66.5,1.0,127,138.0
505,D3,66.5,1.0,127,138.0
506,D3,67.5,1.0,127,138.0
507,D3,67.5,1.0,127,138.0
508,A3,67.5,1.0,127,138.0
509,F#3,67.5,1.0,127,138.0
510,D3,67.5,1.0,127,138.0
511,C3,68.5,0.5,127,138.0
512,C3,68.5,0.5,127,138.0
513,G3,68.5,0.5,127,138.0
514,E3,68.5,0.5,127,138.0
515,C3,68.5,0.5,127,138.0
516,C#3,69.0,0.5,127,138.0
517,C#3,69.0,0.5,127,138.0
518,G#3,69.0,0.5,127,138.0
519,F3,69.0,0.5,127,138.0
520,C#3,69.0,0.5,127,138.0
521,D3,69.5,0.5,127,138.0
522,D3,69.5,0.5,127,138.0
523,A3,69.5,0.5,127,138.0
524,F#3,69.5,0.5,127,138.0
525,D3,69.5,0.5,127,138.0
526,D3,70.0,1.0,95,138.0
527,D3,70.0,1.0,127,138.0
528,F#3,70.0,1.0,127,138.0
529,D3,70.0,1.0,127,138.0
530,A3,70.0,1.0,127,138.0
531,F#3,70.0,1.0,127,138.0
532,D3,70.0,1.0,127,138.0
533,D3,71.0,1.0,95,138.0
534,D3,71.0,1.0,127,138.0
535,F#3,71.0,1.0,127,138.0
536,D3,71.0,1.0,127,138.0
537,A3,71.0,1.0,127,138.0
538,F#3,71.0,1.0,127,138.0
539,D3,71.0,1.0,127,138.0
540,B2,72.0,0.5,95,138.0
541,B2,72.0,0.5,127,138.0
542,E3,72.0,0.5,127,138.0
543,B2,72.0,0.5,127,138.0
544,A3,72.0,1.0,127,138.0
545,F#3,72.0,1.0,127,138.0
546,D3,72.0,1.0,127,138.0
547,A2,72.5,0.5,95,138.0
548,A2,72.5,0.5,127,138.0
549,D3,72.5,0.5,127,138.0
550,A2,72.5,0.5,127,138.0
551,F#2,73.0,0.5,95,138.0
552,F#2,73.0,0.5,127,138.0
553,B2,73.0,0.5,127,138.0
554,F#2,73.0,0.5,127,138.0
555,D2,73.5,0.5,95,138.0
556,D2,73.5,1.0,127,138.0
557,A2,73.5,1.0,127,138.0
558,D2,73.5,0.5,127,138.0
559,F#4,73.5,0.5,127,138.0
560,D4,73.5,0.5,127,138.0
561,A3,73.5,0.5,127,138.0
562,D2,74.5,0.5,95,138.0
563,D2,74.5,1.0,127,138.0
564,A2,74.5,1.0,127,138.0
565,D2,74.5,1.0,127,138.0
566,E4,74.5,1.0,127,138.0
567,B3,74.5,1.0,127,138.0
568,G3,74.5,1.0,127,138.0
569,F#2,75.5,0.5,95,138.0
570,F#2,75.5,0.5,127,138.0
571,B2,75.5,0.5,127,138.0
572,F#2,75.5,0.5,127,138.0
573,E4,75.5,0.5,127,138.0
574,B3,75.5,0.5,127,138.0
575,G3,75.5,0.5,127,138.0
576,A2,76.0,0.5,127,138.0
577,D3,76.0,0.5,127,138.0
578,A2,76.0,0.5,127,138.0
579,F3,76.0,0.5,111,138.0
580,A2,76.0,0.5,111,138.0
581,B2,76.5,0.5,95,138.0
582,B2,76.5,0.5,127,138.0
583,E3,76.5,0.5,127,138.0
584,B2,76.5,0.5,127,138.0
585,F3,77.0,0.5,127,138.0
586,D3,77.0,1.0,127,138.0
587,F#3,77.0,1.0,127,138.0
588,D3,77.0,1.0,127,138.0
589,A3,77.0,1.0,127,138.0
590,F#3,77.0,1.0,127,138.0
591,D3,77.0,1.0,127,138.0
592,D3,77.5,1.0,127,138.0
593,D3,78.0,1.0,127,138.0
594,F#3,78.0,1.0,127,138.0
595,D3,78.0,1.0,127,138.0
596,A3,78.0,1.0,127,138.0
597,F#3,78.0,1.0,127,138.0
598,D3,78.0,1.0,127,138.0
599,D3,78.5,0.5,127,138.0
600,F3,79.0,1.0,127,138.0
601,B2,79.0,0.5,127,138.0
602,E3,79.0,0.5,127,138.0
603,B2,79.0,0.5,127,138.0
604,A3,79.0,1.0,127,138.0
605,F#3,79.0,1.0,127,138.0
606,D3,79.0,1.0,127,138.0
607,A2,79.5,0.5,127,138.0
608,D3,79.5,0.5,127,138.0
609,A2,79.5,0.5,127,138.0
610,F3,80.0,0.5,127,138.0
611,F#2,80.0,0.5,127,138.0
612,B2,80.0,0.5,127,138.0
613,F#2,80.0,0.5,127,138.0
614,E3,80.5,0.5,127,138.0
615,D2,80.5,1.0,127,138.0
616,A2,80.5,1.0,127,138.0
617,D2,80.5,0.5,127,138.0
618,E4,80.5,0.5,127,138.0
619,B3,80.5,0.5,127,138.0
620,D5,80.5,0.5,127,138.0
621,A4,80.5,0.5,127,138.0
622,D4,80.5,0.5,127,138.0
623,D3,81.0,2.0,127,138.0
624,D2,81.5,1.0,127,138.0
625,A2,81.5,1.0,127,138.0
626,D2,81.5,1.0,127,138.0
627,E4,81.5,1.0,127,138.0
628,B3,81.5,1.0,127,138.0
629,C5,81.5,1.0,127,138.0
630,G4,81.5,1.0,127,138.0
631,C4,81.5,1.0,127,138.0
632,F#2,82.5,0.5,127,138.0
633,B2,82.5,0.5,127,138.0
634,F#2,82.5,0.5,127,138.0
635,E4,82.5,0.5,127,138.0
636,B3,82.5,0.5,127,138.0
637,C5,82.5,0.5,127,138.0
638,G4,82.5,0.5,127,138.0
639,A2,83.0,0.5,127,138.0
640,D3,83.0,0.5,127,138.0
641,A2,83.0,0.5,127,138.0
642,B2,83.5,0.5,127,138.0
643,E3,83.5,0.5,127,138.0
644,B2,83.5,0.5,127,138.0
645,D3,84.0,1.0,127,138.0
646,F#3,84.0,1.0,127,138.0
647,D3,84.0,1.0,127,138.0
648,D4,84.0,1.0,127,138.0
649,A3,84.0,1.0,127,138.0
650,A3,84.0,1.0,127,138.0
651,F#3,84.0,1.0,127,138.0
652,D3,84.0,1.0,127,138.0
653,D3,85.0,1.0,127,138.0
654,F#3,85.0,1.0,127,138.0
655,D3,85.0,1.0,127,138.0
656,D4,85.0,1.0,127,138.0
657,A3,85.0,1.0,127,138.0
658,A3,85.0,1.0,127,138.0
659,F#3,85.0,1.0,127,138.0
660,D3,85.0,1.0,127,138.0
661,B2,86.0,0.5,127,138.0
662,E3,86.0,0.5,127,138.0
663,B2,86.0,0.5,127,138.0
664,B3,86.0,0.5,127,138.0
665,G3,86.0,0.5,127,138.0
666,A3,86.0,1.5,127,138.0
667,F#3,86.0,1.5,127,138.0
668,D3,86.0,1.5,127,138.0
669,A2,86.5,0.5,127,138.0
670,D3,86.5,0.5,127,138.0
671,A2,86.5,0.5,127,138.0
672,D4,86.5,0.5,127,138.0
673,A3,86.5,0.5,127,138.0
674,F#2,87.0,0.5,127,138.0
675,B2,87.0,0.5,127,138.0
676,F#2,87.0,0.5,127,138.0
677,B3,87.0,0.5,127,138.0
678,G3,87.0,0.5,127,138.0
679,D2,87.5,1.0,127,138.0
680,A2,87.5,1.0,127,138.0
681,D2,87.5,0.5,127,138.0
682,B3,87.5,1.0,127,138.0
683,G3,87.5,1.0,127,138.0
684,F#4,87.5,0.5,127,138.0
685,D4,87.5,0.5,127,138.0
686,A3,87.5,0.5,127,138.0
687,D2,88.5,1.0,127,138.0
688,A2,88.5,1.0,127,138.0
689,D2,88.5,1.0,127,138.0
690,A3,88.5,2.5,127,138.0
691,F#3,88.5,2.5,127,138.0
692,E4,88.5,1.5,127,138.0
693,B3,88.5,1.5,127,138.0
694,G3,88.5,1.5,127,138.0
695,F#2,89.5,0.5,127,138.0
696,B2,89.5,0.5,127,138.0
697,F#2,89.5,0.5,127,138.0
698,A2,90.0,0.5,127,138.0
699,D3,90.0,0.5,127,138.0
700,A2,90.0,0.5,127,138.0
701,B2,90.5,0.5,127,138.0
702,E3,90.5,0.5,127,138.0
703,B2,90.5,0.5,127,138.0
704,D3,91.0,1.0,127,138.0
705,F#3,91.0,1.0,127,138.0
706,D3,91.0,1.0,127,138.0
707,A3,91.0,1.0,127,138.0
708,F#3,91.0,1.0,127,138.0
709,D3,91.0,1.0,127,138.0
710,D3,92.0,1.0,127,138.0
711,F#3,92.0,1.0,127,138.0
712,D3,92.0,1.0,127,138.0
713,A3,92.0,1.0,127,138.0
714,F#3,92.0,1.0,127,138.0
715,A3,92.0,1.0,127,138.0
716,F#3,92.0,1.0,127,138.0
717,D3,92.0,1.0,127,138.0
718,D3,93.0,0.5,127,138.0
719,B2,93.0,0.5,127,138.0
720,E3,93.0,0.5,127,138.0
721,B2,93.0,0.5,127,138.0
722,A3,93.0,1.5,127,138.0
723,F#3,93.0,1.5,127,138.0
724,D3,93.0,1.5,127,138.0
725,B2,93.5,0.5,127,138.0
726,A2,93.5,0.5,127,138.0
727,D3,93.5,0.5,127,138.0
728,A2,93.5,0.5,127,138.0
729,D3,94.0,0.75,127,138.0
730,F#2,94.0,0.5,127,138.0
731,B2,94.0,0.5,127,138.0
732,F#2,94.0,0.5,127,138.0
733,D2,94.5,1.0,127,138.0
734,A2,94.5,1.0,127,138.0
735,D2,94.5,0.5,127,138.0
736,F#4,94.5,0.5,127,138.0
737,D4,94.5,0.5,127,138.0
738,A3,94.5,0.5,127,138.0
739,D3,94.75,0.5,127,138.0
740,D3,95.25,0.5,127,138.0
741,D2,95.5,1.0,127,138.0
742,A2,95.5,1.0,127,138.0
743,D2,95.5,1.0,127,138.0
744,E4,95.5,1.5,127,138.0
745,B3,95.5,1.5,127,138.0
746,G3,95.5,1.5,127,138.0
747,D3,95.75,1.25,127,138.0
748,F#2,96.5,0.5,127,138.0
749,B2,96.5,0.5,127,138.0
750,F#2,96.5,0.5,127,138.0
751,B2,97.0,0.25,127,138.0
752,A2,97.0,0.5,127,138.0
753,D3,97.0,0.5,127,138.0
754,A2,97.0,0.5,127,138.0
755,B2,97.25,0.25,127,138.0
756,D3,97.5,1.0,127,138.0
757,B2,97.5,0.5,127,138.0
758,E3,97.5,0.5,127,138.0
759,B2,97.5,0.5,127,138.0
760,D3,98.0,1.0,127,138.0
761,D3,98.0,1.0,127,138.0
762,A3,98.0,1.0,127,138.0
763,F#3,98.0,1.0,127,138.0
764,D3,98.0,1.0,127,138.0
765,D3,98.5,0.5,127,138.0
766,D3,99.0,0.5,127,138.0
767,D3,99.0,1.0,127,138.0
768,D3,99.0,1.0,127,138.0
769,A3,99.0,1.0,127,138.0
770,F#3,99.0,1.0,127,138.0
771,D3,99.0,1.0,127,138.0
772,D3,99.5,1.5,127,138.0
773,C3,100.0,0.5,127,138.0
774,C3,100.0,0.5,127,138.0
775,G3,100.0,0.5,127,138.0
776,E3,100.0,0.5,127,138.0
777,C3,100.0,0.5,127,138.0
778,C#3,100.5,0.5,127,138.0
779,C#3,100.5,0.5,127,138.0
780,G#3,100.5,0.5,127,138.0
781,F3,100.5,0.5,127,138.0
782,C#3,100.5,0.5,127,138.0
783,D3,101.0,0.5,127,138.0
784,D3,101.0,0.5,127,138.0
785,A3,101.0,0.5,127,138.0
786,F#3,101.0,0.5,127,138.0
787,D3,101.0,0.5,127,138.0
788,D3,101.5,1.0,127,138.0
789,D3,101.5,0.5,127,138.0
790,A3,101.5,1.0,127,138.0
791,F#3,101.5,1.0,127,138.0
792,D3,101.5,1.0,127,138.0
793,D3,102.5,1.0,127,138.0
794,D3,102.5,1.0,127,138.0
795,A4,102.5,1.0,127,138.0
796,F#4,102.5,1.0,127,138.0
797,A3,102.5,1.0,127,138.0
798,F#3,102.5,1.0,127,138.0
799,D3,102.5,1.0,127,138.0
800,C3,103.5,0.5,127,138.0
801,C3,103.5,0.5,127,138.0
802,G3,103.5,0.5,127,138.0
803,E3,103.5,0.5,127,138.0
804,C3,103.5,0.5,127,138.0
805,C#3,104.0,0.5,127,138.0
806,C#3,104.0,0.5,127,138.0
807,G#3,104.0,0.5,127,138.0
808,F3,104.0,0.5,127,138.0
809,C#3,104.0,0.5,127,138.0
810,D3,104.5,0.5,127,138.0
811,D3,104.5,0.5,127,138.0
812,A3,104.5,0.5,127,138.0
813,F#3,104.5,0.5,127,138.0
814,D3,104.5,0.5,127,138.0
815,D3,105.0,1.0,127,138.0
816,F#3,105.0,1.0,127,138.0
817,D3,105.0,1.0,127,138.0
818,F#3,105.0,1.0,127,138.0
819,D3,105.0,1.0,127,138.0
820,D3,106.0,1.0,95,138.0
821,D3,106.0,1.0,127,138.0
822,F#3,106.0,1.0,127,138.0
823,D3,106.0,1.0,127,138.0
824,D4,106.0,1.0,127,138.0
825,A3,106.0,1.0,127,138.0
826,D3,107.0,1.0,95,138.0
827,B2,107.0,0.5,127,138.0
828,E3,107.0,0.5,127,138.0
829,B2,107.0,0.5,127,138.0
830,A3,107.0,9/125,95,138.0
831,F#3,107.0,9/125,95,138.0
832,D3,107.0,9/125,95,138.0
833,A2,107.5,0.5,127,138.0
834,D3,107.5,0.5,127,138.0
835,A2,107.5,0.5,127,138.0
836,B2,108.0,0.5,95,138.0
837,F#2,108.0,0.5,127,138.0
838,B2,108.0,0.5,127,138.0
839,F#2,108.0,0.5,127,138.0
840,A2,108.5,0.5,95,138.0
841,D2,108.5,1.0,127,138.0
842,A2,108.5,1.0,127,138.0
843,D2,108.5,0.5,127,138.0
844,F#4,108.5,0.5,127,138.0
845,D4,108.5,0.5,127,138.0
846,A3,108.5,0.5,127,138.0
847,F#2,109.0,0.5,95,138.0
848,D2,109.5,0.5,95,138.0
849,D2,109.5,1.0,127,138.0
850,A2,109.5,1.0,127,138.0
851,D2,109.5,1.0,127,138.0
852,E4,109.5,1.0,127,138.0
853,B3,109.5,1.0,127,138.0
854,G3,109.5,1.0,127,138.0
855,D2,110.5,0.5,95,138.0
856,F#2,110.5,0.5,127,138.0
857,B2,110.5,0.5,127,138.0
858,F#2,110.5,0.5,127,138.0
859,E4,110.5,0.5,127,138.0
860,B3,110.5,0.5,127,138.0
861,G3,110.5,0.5,127,138.0
862,C3,111.0,0.5,127,138.0
863,A2,111.0,0.5,127,138.0
864,D3,111.0,0.5,127,138.0
865,A2,111.0,0.5,127,138.0
866,B2,111.5,0.5,127,138.0
867,E3,111.5,0.5,127,138.0
868,B2,111.5,0.5,127,138.0
869,D3,111.5,0.5,111,138.0
870,F#2,111.5,0.5,111,138.0
871,D3,112.0,1.0,127,138.0
872,F#3,112.0,1.0,127,138.0
873,D3,112.0,1.0,127,138.0
874,E3,112.0,0.5,111,138.0
875,A2,112.0,0.5,111,138.0
876,F#3,112.0,1.0,127,138.0
877,D3,112.0,1.0,127,138.0
878,F#3,112.5,0.5,111,138.0
879,B2,112.5,0.5,111,138.0
880,E3,113.0,0.5,127,138.0
881,D3,113.0,1.0,127,138.0
882,F#3,113.0,1.0,127,138.0
883,D3,113.0,1.0,127,138.0
884,D4,113.0,1.0,127,138.0
885,A3,113.0,1.0,127,138.0
886,D3,113.5,1.5,127,138.0
887,B2,114.0,0.5,127,138.0
888,E3,114.0,0.5,127,138.0
889,B2,114.0,0.5,127,138.0
890,A3,114.0,9/125,95,138.0
891,F#3,114.0,9/125,95,138.0
892,D3,114.0,9/125,95,138.0
893,A2,114.5,0.5,127,138.0
894,D3,114.5,0.5,127,138.0
895,A2,114.5,0.5,127,138.0
896,F#2,115.0,0.5,127,138.0
897,B2,115.0,0.5,127,138.0
898,F#2,115.0,0.5,127,138.0
899,G#4,115.0,1.0,127,138.0
900,C#4,115.0,1.0,127,138.0
901,F3,115.0,1.0,127,138.0
902,D2,115.5,1.0,127,138.0
903,A2,115.5,1.0,127,138.0
904,D2,115.5,0.5,127,138.0
905,E4,115.5,0.5,127,138.0
906,B3,115.5,0.5,127,138.0
907,D4,115.5,0.5,127,138.0
908,A3,115.5,0.5,127,138.0
909,A4,116.0,0.5,127,138.0
910,D4,116.0,0.5,127,138.0
911,F#3,116.0,0.5,127,138.0
912,D2,116.5,1.0,127,138.0
913,A2,116.5,1.0,127,138.0
914,D2,116.5,1.0,127,138.0
915,F#4,116.5,0.5,127,138.0
916,A3,116.5,0.5,127,138.0
917,D3,116.5,0.5,127,138.0
918,E4,116.5,1.0,127,138.0
919,B3,116.5,1.0,127,138.0
920,C4,116.5,1.0,127,138.0
921,G3,116.5,1.0,127,138.0
922,G4,117.0,1.0,127,138.0
923,B3,117.0,1.0,127,138.0
924,E3,117.0,1.0,127,138.0
925,F#2,117.5,0.5,127,138.0
926,B2,117.5,0.5,127,138.0
927,F#2,117.5,0.5,127,138.0
928,E4,117.5,0.5,127,138.0
929,B3,117.5,0.5,127,138.0
930,C4,117.5,0.5,127,138.0
931,G3,117.5,0.5,127,138.0
932,A2,118.0,0.5,127,138.0
933,D3,118.0,0.5,127,138.0
934,A2,118.0,0.5,127,138.0
935,B2,118.5,0.5,127,138.0
936,E3,118.5,0.5,127,138.0
937,B2,118.5,0.5,127,138.0
938,G4,118.5,0.5,127,138.0
939,B3,118.5,0.5,127,138.0
940,E3,118.5,0.5,127,138.0
941,D3,119.0,1.0,127,138.0
942,F#3,119.0,1.0,127,138.0
943,D3,119.0,1.0,127,138.0
944,F#4,119.0,1.0,127,138.0
945,A3,119.0,1.0,127,138.0
946,D3,119.0,1.0,127,138.0
947,F#3,119.0,1.0,127,138.0
948,D3,119.0,1.0,127,138.0
949,B2,120.0,0.5,127,138.0
950,D3,120.0,1.0,127,138.0
951,F#3,120.0,1.0,127,138.0
952,D3,120.0,1.0,127,138.0
953,F#4,120.0,0.5,127,138.0
954,A3,120.0,0.5,127,138.0
955,D3,120.0,0.5,127,138.0
956,D4,120.0,1.0,127,138.0
957,A3,120.0,1.0,127,138.0
958,D3,120.5,0.5,127,138.0
959,E3,121.0,0.5,127,138.0
960,B2,121.0,0.5,127,138.0
961,E3,121.0,0.5,127,138.0
962,B2,121.0,0.5,127,138.0
963,A3,121.0,9/125,95,138.0
964,F#3,121.0,9/125,95,138.0
965,D3,121.0,9/125,95,138.0
966,F#3,121.5,0.5,127,138.0
967,A2,121.5,0.5,127,138.0
968,D3,121.5,0.5,127,138.0
969,A2,121.5,0.5,127,138.0
970,E3,122.0,0.5,127,138.0
971,F#2,122.0,0.5,127,138.0
972,B2,122.0,0.5,127,138.0
973,F#2,122.0,0.5,127,138.0
974,D3,122.5,1.5,127,138.0
975,D2,122.5,1.0,127,138.0
976,A2,122.5,1.0,127,138.0
977,D2,122.5,0.5,127,138.0
978,F#4,122.5,0.5,127,138.0
979,D4,122.5,0.5,127,138.0
980,A3,122.5,0.5,127,138.0
981,D2,123.5,1.0,127,138.0
982,A2,123.5,1.0,127,138.0
983,D2,123.5,1.0,127,138.0
984,E4,123.5,1.0,127,138.0
985,B3,123.5,1.0,127,138.0
986,G3,123.5,1.0,127,138.0
987,F#2,124.5,0.5,127,138.0
988,B2,124.5,0.5,127,138.0
989,F#2,124.5,0.5,127,138.0
990,E4,124.5,0.5,127,138.0
991,B3,124.5,0.5,127,138.0
992,G3,124.5,0.5,127,138.0
993,A2,125.0,0.5,127,138.0
994,D3,125.0,0.5,127,138.0
995,A2,125.0,0.5,127,138.0
996,A4,125.0,0.5,127,138.0
997,D4,125.0,0.5,127,138.0
998,F#3,125.0,0.5,127,138.0
999,B2,125.5,0.5,127,138.0
1000,E3,125.5,0.5,127,138.0
1001,B2,125.5,0.5,127,138.0
1002,A4,125.5,1.0,127,138.0
1003,D4,125.5,1.0,127,138.0
1004,F#3,125.5,1.0,127,138.0
1005,D3,126.0,1.0,127,138.0
1006,F#3,126.0,1.0,127,138.0
1007,D3,126.0,1.0,127,138.0
1008,F#3,126.0,1.0,127,138.0
1009,D3,126.0,1.0,127,138.0
1010,F#4,126.5,0.5,127,138.0
1011,A3,126.5,0.5,127,138.0
1012,D3,126.5,0.5,127,138.0
1013,D3,127.0,1.0,127,138.0
1014,F#3,127.0,1.0,127,138.0
1015,D3,127.0,1.0,127,138.0
1016,G4,127.0,0.5,127,138.0
1017,B3,127.0,0.5,127,138.0
1018,E3,127.0,0.5,127,138.0
1019,E3,127.0,0.5,127,138.0
1020,D4,127.0,1.0,127,138.0
1021,A3,127.0,1.0,127,138.0
1022,G4,127.5,0.5,127,138.0
1023,B3,127.5,0.5,127,138.0
1024,E3,127.5,0.5,127,138.0
1025,E3,127.5,0.5,127,138.0
1026,D3,128.0,1.5,127,138.0
1027,B2,128.0,0.5,127,138.0
1028,E3,128.0,0.5,127,138.0
1029,B2,128.0,0.5,127,138.0
1030,F#4,128.0,2.5,127,138.0
1031,A3,128.0,2.5,127,138.0
1032,A3,128.0,9/125,95,138.0
1033,F#3,128.0,9/125,95,138.0
1034,D3,128.0,9/125,95,138.0
1035,A2,128.5,0.5,127,138.0
1036,A2,128.5,0.5,127,138.0
1037,D3,128.5,0.5,127,138.0
1038,A2,128.5,0.5,127,138.0
1039,D3,129.0,1.0,127,138.0
1040,F#2,129.0,0.5,127,138.0
1041,B2,129.0,0.5,127,138.0
1042,F#2,129.0,0.5,127,138.0
1043,D3,129.5,1.0,127,138.0
1044,D2,129.5,1.0,127,138.0
1045,A2,129.5,1.0,127,138.0
1046,D2,129.5,0.5,127,138.0
1047,F#4,129.5,0.5,127,138.0
1048,D4,129.5,0.5,127,138.0
1049,A3,129.5,0.5,127,138.0
1050,A2,130.0,0.5,127,138.0
1051,B2,130.5,1.0,127,138.0
1052,D2,130.5,1.0,127,138.0
1053,A2,130.5,1.0,127,138.0
1054,D2,130.5,1.0,127,138.0
1055,E4,130.5,1.0,127,138.0
1056,B3,130.5,1.0,127,138.0
1057,G3,130.5,1.0,127,138.0
1058,F#2,131.5,0.5,127,138.0
1059,B2,131.5,0.5,127,138.0
1060,F#2,131.5,0.5,127,138.0
1061,E4,131.5,0.5,127,138.0
1062,B3,131.5,0.5,127,138.0
1063,G3,131.5,0.5,127,138.0
1064,A2,132.0,0.5,127,138.0
1065,D3,132.0,0.5,127,138.0
1066,A2,132.0,0.5,127,138.0
1067,B2,132.5,0.5,127,138.0
1068,E3,132.5,0.5,127,138.0
1069,B2,132.5,0.5,127,138.0
1070,D3,133.0,1.0,127,138.0
1071,F#3,133.0,1.0,127,138.0
1072,D3,133.0,1.0,127,138.0
1073,A4,133.0,0.5,127,138.0
1074,D4,133.0,0.5,127,138.0
1075,F#3,133.0,0.5,127,138.0
1076,F#3,133.0,1.0,127,138.0
1077,D3,133.0,1.0,127,138.0
1078,A4,133.5,0.5,127,138.0
1079,D4,133.5,0.5,127,138.0
1080,F#3,133.5,0.5,127,138.0
1081,D3,134.0,1.0,127,138.0
1082,F#3,134.0,1.0,127,138.0
1083,D3,134.0,1.0,127,138.0
1084,A4,134.0,0.5,127,138.0
1085,D4,134.0,0.5,127,138.0
1086,F#3,134.0,0.5,127,138.0
1087,D4,134.0,1.0,127,138.0
1088,A3,134.0,1.0,127,138.0
1089,F#4,134.5,0.5,127,138.0
1090,A3,134.5,0.5,127,138.0
1091,D3,134.5,0.5,127,138.0
1092,B2,135.0,0.5,127,138.0
1093,E3,135.0,0.5,127,138.0
1094,B2,135.0,0.5,127,138.0
1095,G4,135.0,0.5,127,138.0
1096,B3,135.0,0.5,127,138.0
1097,E3,135.0,0.5,127,138.0
1098,D3,135.0,0.5,127,138.0
1099,A3,135.0,9/125,95,138.0
1100,F#3,135.0,9/125,95,138.0
1101,D3,135.0,9/125,95,138.0
1102,D3,135.5,0.5,127,138.0
1103,A2,135.5,0.5,127,138.0
1104,D3,135.5,0.5,127,138.0
1105,A2,135.5,0.5,127,138.0
1106,G4,135.5,1.0,127,138.0
1107,B3,135.5,1.0,127,138.0
1108,E3,135.5,1.0,127,138.0
1109,F#2,136.0,0.5,127,138.0
1110,B2,136.0,0.5,127,138.0
1111,F#2,136.0,0.5,127,138.0
1112,D2,136.5,1.0,127,138.0
1113,A2,136.5,1.0,127,138.0
1114,D2,136.5,0.5,127,138.0
1115,F#4,136.5,0.5,127,138.0
1116,A3,136.5,0.5,127,138.0
1117,D3,136.5,0.5,127,138.0
1118,A2,136.5,0.5,127,138.0
1119,F#4,136.5,0.5,127,138.0
1120,D4,136.5,0.5,127,138.0
1121,A3,136.5,0.5,127,138.0
1122,D3,137.0,0.5,127,138.0
1123,D3,137.5,0.5,127,138.0
1124,D2,137.5,1.0,127,138.0
1125,A2,137.5,1.0,127,138.0
1126,D2,137.5,1.0,127,138.0
1127,E4,137.5,1.0,127,138.0
1128,B3,137.5,1.0,127,138.0
1129,G3,137.5,1.0,127,138.0
1130,A2,138.0,0.5,127,138.0
1131,B2,138.5,1.0,127,138.0
1132,F#2,138.5,0.5,127,138.0
1133,B2,138.5,0.5,127,138.0
1134,F#2,138.5,0.5,127,138.0
1135,E4,138.5,0.5,127,138.0
1136,B3,138.5,0.5,127,138.0
1137,G3,138.5,0.5,127,138.0
1138,A2,139.0,0.5,127,138.0
1139,D3,139.0,0.5,127,138.0
1140,A2,139.0,0.5,127,138.0
1141,B2,139.5,0.5,127,138.0
1142,E3,139.5,0.5,127,138.0
1143,B2,139.5,0.5,127,138.0
1144,D3,140.0,1.0,127,138.0
1145,F#3,140.0,1.0,127,138.0
1146,D3,140.0,1.0,127,138.0
1147,A4,140.0,1.0,127,138.0
1148,C4,140.0,1.0,127,138.0
1149,F3,140.0,1.0,127,138.0
1150,F#3,140.0,1.0,127,138.0
1151,D3,140.0,1.0,127,138.0
1152,D3,141.0,1.0,127,138.0
1153,F#3,141.0,1.0,127,138.0
1154,D3,141.0,1.0,127,138.0
1155,G4,141.0,0.5,127,138.0
1156,B3,141.0,0.5,127,138.0
1157,E3,141.0,0.5,127,138.0
1158,D4,141.0,1.0,127,138.0
1159,A3,141.0,1.0,127,138.0
1160,F#4,141.5,0.5,127,138.0
1161,A3,141.5,0.5,127,138.0
1162,D3,141.5,0.5,127,138.0
1163,G4,142.0,1.0,127,138.0
1164,B2,142.0,0.5,127,138.0
1165,E3,142.0,0.5,127,138.0
1166,B2,142.0,0.5,127,138.0
1167,B3,142.0,0.5,127,138.0
1168,E3,142.0,0.5,127,138.0
1169,A3,142.0,9/125,95,138.0
1170,F#3,142.0,9/125,95,138.0
1171,D3,142.0,9/125,95,138.0
1172,A2,142.5,0.5,127,138.0
1173,D3,142.5,0.5,127,138.0
1174,A2,142.5,0.5,127,138.0
1175,A3,142.5,0.5,127,138.0
1176,D3,142.5,0.5,127,138.0
1177,F#2,143.0,0.5,127,138.0
1178,B2,143.0,0.5,127,138.0
1179,F#2,143.0,0.5,127,138.0
1180,F#4,143.0,0.5,127,138.0
1181,A3,143.0,0.5,127,138.0
1182,D3,143.0,0.5,127,138.0
1183,D2,143.5,1.0,127,138.0
1184,A2,143.5,1.0,127,138.0
1185,D2,143.5,0.5,127,138.0
1186,G4,143.5,1.0,127,138.0
1187,D4,143.5,1.0,127,138.0
1188,E3,143.5,1.0,127,138.0
1189,F#4,143.5,0.5,127,138.0
1190,D4,143.5,0.5,127,138.0
1191,A3,143.5,0.5,127,138.0
1192,D2,144.5,1.0,127,138.0
1193,A2,144.5,1.0,127,138.0
1194,D2,144.5,1.0,127,138.0
1195,F#4,144.5,0.5,127,138.0
1196,A3,144.5,0.5,127,138.0
1197,D3,144.5,0.5,127,138.0
1198,E4,144.5,1.0,127,138.0
1199,B3,144.5,1.0,127,138.0
1200,G3,144.5,1.0,127,138.0
1201,G4,145.0,0.5,127,138.0
1202,B3,145.0,0.5,127,138.0
1203,E3,145.0,0.5,127,138.0
1204,F#2,145.5,0.5,127,138.0
1205,B2,145.5,0.5,127,138.0
1206,F#2,145.5,0.5,127,138.0
1207,E4,145.5,0.5,127,138.0
1208,A3,145.5,0.5,127,138.0
1209,C3,145.5,0.5,127,138.0
1210,E4,145.5,0.5,127,138.0
1211,B3,145.5,0.5,127,138.0
1212,G3,145.5,0.5,127,138.0
1213,A2,146.0,0.5,127,138.0
1214,D3,146.0,0.5,127,138.0
1215,A2,146.0,0.5,127,138.0
1216,G4,146.0,2.0,127,138.0
1217,B3,146.0,2.0,127,138.0
1218,D3,146.0,2.0,127,138.0
1219,B2,146.5,0.5,127,138.0
1220,E3,146.5,0.5,127,138.0
1221,B2,146.5,0.5,127,138.0
1222,D3,147.0,1.0,127,138.0
1223,F#3,147.0,1.0,127,138.0
1224,D3,147.0,1.0,127,138.0
1225,F#3,147.0,1.0,127,138.0
1226,D3,147.0,1.0,127,138.0
1227,D3,148.0,1.0,95,138.0
1228,D3,148.0,1.0,127,138.0
1229,F#3,148.0,1.0,127,138.0
1230,D3,148.0,1.0,127,138.0
1231,D4,148.0,1.0,127,138.0
1232,A3,148.0,1.0,127,138.0
1233,D3,149.0,1.0,95,138.0
1234,B2,149.0,0.5,127,138.0
1235,E3,149.0,0.5,127,138.0
1236,B2,149.0,0.5,127,138.0
1237,A3,149.0,9/125,95,138.0
1238,F#3,149.0,9/125,95,138.0
1239,D3,149.0,9/125,95,138.0
1240,A2,149.5,0.5,127,138.0
1241,D3,149.5,0.5,127,138.0
1242,A2,149.5,0.5,127,138.0
1243,B2,150.0,0.5,95,138.0
1244,F#2,150.0,0.5,127,138.0
1245,B2,150.0,0.5,127,138.0
1246,F#2,150.0,0.5,127,138.0
1247,A2,150.5,0.5,95,138.0
1248,D2,150.5,1.0,127,138.0
1249,A2,150.5,1.0,127,138.0
1250,D2,150.5,0.5,127,138.0
1251,F#4,150.5,0.5,127,138.0
1252,D4,150.5,0.5,127,138.0
1253,A3,150.5,0.5,127,138.0
1254,F#2,151.0,0.5,95,138.0
1255,D2,151.5,0.5,95,138.0
1256,D2,151.5,1.0,127,138.0
1257,A2,151.5,1.0,127,138.0
1258,D2,151.5,1.0,127,138.0
1259,E4,151.5,1.0,127,138.0
1260,B3,151.5,1.0,127,138.0
1261,G3,151.5,1.0,127,138.0
1262,D2,152.5,0.5,95,138.0
1263,F#2,152.5,0.5,127,138.0
1264,B2,152.5,0.5,127,138.0
1265,F#2,152.5,0.5,127,138.0
1266,E4,152.5,0.5,127,138.0
1267,B3,152.5,0.5,127,138.0
1268,G3,152.5,0.5,127,138.0
1269,A2,153.0,0.5,127,138.0
1270,D3,153.0,0.5,127,138.0
1271,A2,153.0,0.5,127,138.0
1272,F#2,153.5,0.5,95,138.0
1273,B2,153.5,0.5,127,138.0
1274,E3,153.5,0.5,127,138.0
1275,B2,153.5,0.5,127,138.0
1276,A2,154.0,0.5,95,138.0
1277,D3,154.0,1.0,127,138.0
1278,D3,154.0,1.0,127,138.0
1279,A3,154.0,1.0,127,138.0
1280,F#3,154.0,1.0,127,138.0
1281,D3,154.0,1.0,127,138.0
1282,B2,154.5,0.5,95,138.0
1283,F#3,155.0,0.5,127,138.0
1284,D3,155.0,1.0,127,138.0
1285,D3,155.0,1.0,127,138.0
1286,A3,155.0,1.0,127,138.0
1287,F#3,155.0,1.0,127,138.0
1288,D3,155.0,1.0,127,138.0
1289,F#3,155.5,0.5,127,138.0
1290,E3,156.0,0.25,127,138.0
1291,C3,156.0,0.5,127,138.0
1292,C3,156.0,0.5,127,138.0
1293,G3,156.0,0.5,127,138.0
1294,E3,156.0,0.5,127,138.0
1295,C3,156.0,0.5,127,138.0
1296,D3,156.25,0.25,127,138.0
1297,D3,156.5,0.5,127,138.0
1298,C#3,156.5,0.5,127,138.0
1299,C#3,156.5,0.5,127,138.0
1300,G#3,156.5,0.5,127,138.0
1301,F3,156.5,0.5,127,138.0
1302,C#3,156.5,0.5,127,138.0
1303,E3,157.0,0.5,127,138.0
1304,D3,157.0,0.5,127,138.0
1305,D3,157.0,0.5,127,138.0
1306,A3,157.0,0.5,127,138.0
1307,F#3,157.0,0.5,127,138.0
1308,D3,157.0,0.5,127,138.0
1309,F3,157.5,0.25,127,138.0
1310,D3,157.5,1.0,127,138.0
1311,D3,157.5,0.5,127,138.0
1312,A3,157.5,1.0,127,138.0
1313,F#3,157.5,1.0,127,138.0
1314,D3,157.5,1.0,127,138.0
1315,F#3,157.75,0.25,127,138.0
1316,E3,158.0,0.25,127,138.0
1317,D3,158.25,1.25,127,138.0
1318,D3,158.5,1.0,127,138.0
1319,D3,158.5,1.0,127,138.0
1320,A3,158.5,1.0,127,138.0
1321,F#3,158.5,1.0,127,138.0
1322,D3,158.5,1.0,127,138.0
1323,C3,159.5,0.5,127,138.0
1324,C3,159.5,0.5,127,138.0
1325,G3,159.5,0.5,127,138.0
1326,E3,159.5,0.5,127,138.0
1327,C3,159.5,0.5,127,138.0
1328,C#3,160.0,0.5,127,138.0
1329,C#3,160.0,0.5,127,138.0
1330,G#3,160.0,0.5,127,138.0
1331,F3,160.0,0.5,127,138.0
1332,C#3,160.0,0.5,127,138.0
1333,D3,160.5,0.5,127,138.0
1334,D3,160.5,0.5,127,138.0
1335,A3,160.5,0.5,127,138.0
1336,F#3,160.5,0.5,127,138.0
1337,D3,160.5,0.5,127,138.0
1338,D3,161.0,1.0,127,138.0
1339,F#3,161.0,1.0,127,138.0
1340,D3,161.0,1.0,127,138.0
1341,F#3,161.0,1.0,127,138.0
1342,D3,161.0,1.0,127,138.0
1343,D3,162.0,1.0,127,138.0
1344,F#3,162.0,1.0,127,138.0
1345,G3,162.0,9/125,95,138.0
1346,D3,162.0,1.0,127,138.0
1347,D4,162.0,1.0,127,138.0
1348,F#3,162.0,1.0,127,138.0
1349,B2,163.0,0.5,127,138.0
1350,E3,163.0,0.5,127,138.0
1351,F#3,163.0,0.5,127,138.0
1352,B2,163.0,0.5,127,138.0
1353,A2,163.5,0.5,127,138.0
1354,D3,163.5,0.5,127,138.0
1355,A3,163.5,0.5,127,138.0
1356,A2,163.5,0.5,127,138.0
1357,F#2,164.0,0.5,127,138.0
1358,B2,164.0,0.5,127,138.0
1359,F#3,164.0,0.5,127,138.0
1360,F#2,164.0,0.5,127,138.0
1361,D2,164.5,1.0,127,138.0
1362,A2,164.5,1.0,127,138.0
1363,D2,164.5,0.5,127,138.0
1364,F#4,164.5,0.5,127,138.0
1365,D4,164.5,0.5,127,138.0
1366,A3,164.5,0.5,127,138.0
1367,D2,165.5,1.0,127,138.0
1368,A2,165.5,1.0,127,138.0
1369,D2,165.5,1.0,127,138.0
1370,E4,165.5,1.0,127,138.0
1371,B3,165.5,1.0,127,138.0
1372,G3,165.5,1.0,127,138.0
1373,F#2,166.5,0.5,127,138.0
1374,B2,166.5,0.5,127,138.0
1375,F#2,166.5,0.5,127,138.0
1376,G3,166.5,9/125,95,138.0
1377,D3,166.5,9/125,95,138.0
1378,A2,166.5,9/125,95,138.0
1379,A2,167.0,0.5,127,138.0
1380,D3,167.0,0.5,127,138.0
1381,A2,167.0,0.5,127,138.0
1382,B2,167.5,0.5,127,138.0
1383,E3,167.5,0.5,127,138.0
1384,B2,167.5,0.5,127,138.0
1385,A2,168.0,0.5,127,138.0
1386,D3,168.0,1.0,127,138.0
1387,F#3,168.0,1.0,127,138.0
1388,D3,168.0,1.0,127,138.0
1389,F#3,168.0,1.0,127,138.0
1390,D3,168.0,1.0,127,138.0
1391,B2,168.5,0.5,127,138.0
1392,D3,169.0,1.0,127,138.0
1393,D3,169.0,1.0,127,138.0
1394,F#3,169.0,1.0,127,138.0
1395,D3,169.0,1.0,127,138.0
1396,D4,169.0,1.0,127,138.0
1397,A3,169.0,1.0,127,138.0
1398,B2,170.0,0.5,127,138.0
1399,B2,170.0,0.5,127,138.0
1400,E3,170.0,0.5,127,138.0
1401,B2,170.0,0.5,127,138.0
1402,F#3,170.0,0.5,127,138.0
1403,D3,170.0,0.5,127,138.0
1404,D3,170.5,0.5,127,138.0
1405,A2,170.5,0.5,127,138.0
1406,D3,170.5,0.5,127,138.0
1407,A2,170.5,0.5,127,138.0
1408,D4,170.5,0.5,127,138.0
1409,A3,170.5,0.5,127,138.0
1410,A2,171.0,0.5,127,138.0
1411,F#2,171.0,0.5,127,138.0
1412,B2,171.0,0.5,127,138.0
1413,F#2,171.0,0.5,127,138.0
1414,D3,171.0,9/125,95,138.0
1415,A2,171.0,9/125,95,138.0
1416,A2,171.5,0.5,127,138.0
1417,D2,171.5,1.0,127,138.0
1418,A2,171.5,1.0,127,138.0
1419,D2,171.5,0.5,127,138.0
1420,F#4,171.5,0.5,127,138.0
1421,D4,171.5,0.5,127,138.0
1422,A3,171.5,0.5,127,138.0
1423,B2,172.0,1.0,127,138.0
1424,D2,172.5,1.0,127,138.0
1425,A2,172.5,1.0,127,138.0
1426,D2,172.5,1.0,127,138.0
1427,E4,172.5,1.0,127,138.0
1428,B3,172.5,1.0,127,138.0
1429,G3,172.5,1.0,127,138.0
1430,F#2,173.5,0.5,127,138.0
1431,B2,173.5,0.5,127,138.0
1432,F#2,173.5,0.5,127,138.0
1433,G3,173.5,9/125,95,138.0
1434,D3,173.5,9/125,95,138.0
1435,A2,173.5,9/125,95,138.0
1436,D3,174.0,1.0,127,138.0
1437,A2,174.0,0.5,127,138.0
1438,D3,174.0,0.5,127,138.0
1439,A2,174.0,0.5,127,138.0
1440,B2,174.5,0.5,127,138.0
1441,E3,174.5,0.5,127,138.0
1442,B2,174.5,0.5,127,138.0
1443,D3,175.0,1.0,127,138.0
1444,F#3,175.0,1.0,127,138.0
1445,D3,175.0,1.0,127,138.0
1446,F#3,175.0,1.0,127,138.0
1447,D3,175.0,1.0,127,138.0
1448,F#3,176.0,1.0,127,138.0
1449,D3,176.0,1.0,127,138.0
1450,F#3,176.0,1.0,127,138.0
1451,D3,176.0,1.0,127,138.0
1452,D4,176.0,1.0,127,138.0
1453,A3,176.0,1.0,127,138.0
1454,B2,177.0,0.5,127,138.0
1455,E3,177.0,0.5,127,138.0
1456,B2,177.0,0.5,127,138.0
1457,F#3,177.0,0.5,127,138.0
1458,D3,177.0,0.5,127,138.0
1459,A2,177.5,0.5,127,138.0
1460,D3,177.5,0.5,127,138.0
1461,A2,177.5,0.5,127,138.0
1462,D4,177.5,0.5,127,138.0
1463,A3,177.5,0.5,127,138.0
1464,E3,178.0,0.5,127,138.0
1465,F#2,178.0,0.5,127,138.0
1466,B2,178.0,0.5,127,138.0
1467,F#2,178.0,0.5,127,138.0
1468,A3,178.0,0.5,127,138.0
1469,F#3,178.0,0.5,127,138.0
1470,D3,178.5,1.5,127,138.0
1471,D2,178.5,1.0,127,138.0
1472,A2,178.5,1.0,127,138.0
1473,D2,178.5,0.5,127,138.0
1474,F#4,178.5,0.5,127,138.0
1475,D4,178.5,0.5,127,138.0
1476,A3,178.5,0.5,127,138.0
1477,D2,179.5,1.0,127,138.0
1478,A2,179.5,1.0,127,138.0
1479,D2,179.5,1.0,127,138.0
1480,E4,179.5,1.0,127,138.0
1481,B3,179.5,1.0,127,138.0
1482,G3,179.5,1.0,127,138.0
1483,A4,180.0,1.0,127,138.0
1484,F#4,180.0,1.0,127,138.0
1485,A3,180.0,1.0,127,138.0
1486,D3,180.0,1.0,127,138.0
1487,F#2,180.5,0.5,127,138.0
1488,B2,180.5,0.5,127,138.0
1489,A3,180.5,0.5,127,138.0
1490,F#2,180.5,0.5,127,138.0
1491,A2,181.0,0.5,127,138.0
1492,A2,181.0,0.5,127,138.0
1493,D3,181.0,0.5,127,138.0
1494,A2,181.0,0.5,127,138.0
1495,B2,181.5,0.5,127,138.0
1496,B2,181.5,0.5,127,138.0
1497,E3,181.5,0.5,127,138.0
1498,B2,181.5,0.5,127,138.0
1499,D3,182.0,1.0,127,138.0
1500,F#3,182.0,1.0,127,138.0
1501,D3,182.0,1.0,127,138.0
1502,F#3,182.0,1.0,127,138.0
1503,D3,182.0,1.0,127,138.0
1504,D3,183.0,1.0,127,138.0
1505,D3,183.0,1.0,127,138.0
1506,F#3,183.0,1.0,127,138.0
1507,D3,183.0,1.0,127,138.0
1508,D4,183.0,1.0,127,138.0
1509,A3,183.0,1.0,127,138.0
1510,B2,184.0,0.5,127,138.0
1511,B2,184.0,0.5,127,138.0
1512,E3,184.0,0.5,127,138.0
1513,B2,184.0,0.5,127,138.0
1514,F#3,184.0,0.5,127,138.0
1515,D3,184.0,0.5,127,138.0
1516,D3,184.5,0.5,127,138.0
1517,A2,184.5,0.5,127,138.0
1518,D3,184.5,0.5,127,138.0
1519,A2,184.5,0.5,127,138.0
1520,D4,184.5,0.5,127,138.0
1521,A3,184.5,0.5,127,138.0
1522,A2,185.0,0.5,127,138.0
1523,F#2,185.0,0.5,127,138.0
1524,B2,185.0,0.5,127,138.0
1525,F#2,185.0,0.5,127,138.0
1526,D3,185.0,9/125,95,138.0
1527,A2,185.0,9/125,95,138.0
1528,A2,185.5,0.5,127,138.0
1529,D2,185.5,1.0,127,138.0
1530,A2,185.5,1.0,127,138.0
1531,D2,185.5,0.5,127,138.0
1532,F#4,185.5,0.5,127,138.0
1533,D4,185.5,0.5,127,138.0
1534,A3,185.5,0.5,127,138.0
1535,B2,186.0,1.0,127,138.0
1536,D2,186.5,1.0,127,138.0
1537,A2,186.5,1.0,127,138.0
1538,D2,186.5,1.0,127,138.0
1539,E4,186.5,1.0,127,138.0
1540,B3,186.5,1.0,127,138.0
1541,G3,186.5,1.0,127,138.0
1542,F#2,187.5,0.5,127,138.0
1543,B2,187.5,0.5,127,138.0
1544,F#2,187.5,0.5,127,138.0
1545,G3,187.5,9/125,95,138.0
1546,D3,187.5,9/125,95,138.0
1547,A2,187.5,9/125,95,138.0
1548,D3,188.0,1.0,127,138.0
1549,A2,188.0,0.5,127,138.0
1550,D3,188.0,0.5,127,138.0
1551,A2,188.0,0.5,127,138.0
1552,B2,188.5,0.5,127,138.0
1553,E3,188.5,0.5,127,138.0
1554,B2,188.5,0.5,127,138.0
1555,D3,189.0,1.0,127,138.0
1556,F#3,189.0,1.0,127,138.0
1557,D3,189.0,1.0,127,138.0
1558,F#3,189.0,1.0,127,138.0
1559,D3,189.0,1.0,127,138.0
1560,F#3,190.0,1.0,127,138.0
1561,D3,190.0,1.0,127,138.0
1562,F#3,190.0,1.0,127,138.0
1563,D3,190.0,1.0,127,138.0
1564,D4,190.0,1.0,127,138.0
1565,A3,190.0,1.0,127,138.0
1566,B2,191.0,0.5,127,138.0
1567,E3,191.0,0.5,127,138.0
1568,B2,191.0,0.5,127,138.0
1569,F#3,191.0,0.5,127,138.0
1570,D3,191.0,0.5,127,138.0
1571,A2,191.5,0.5,127,138.0
1572,D3,191.5,0.5,127,138.0
1573,A2,191.5,0.5,127,138.0
1574,D4,191.5,0.5,127,138.0
1575,A3,191.5,0.5,127,138.0
1576,E3,192.0,0.5,127,138.0
1577,F#2,192.0,0.5,127,138.0
1578,B2,192.0,0.5,127,138.0
1579,F#2,192.0,0.5,127,138.0
1580,D3,192.0,9/125,95,138.0
1581,A2,192.0,9/125,95,138.0
1582,D3,192.5,1.5,127,138.0
1583,D2,192.5,1.0,127,138.0
1584,A2,192.5,1.0,127,138.0
1585,D2,192.5,0.5,127,138.0
1586,F#4,192.5,0.5,127,138.0
1587,D4,192.5,0.5,127,138.0
1588,A3,192.5,0.5,127,138.0
1589,D2,193.5,1.0,127,138.0
1590,A2,193.5,1.0,127,138.0
1591,D2,193.5,1.0,127,138.0
1592,E4,193.5,1.0,127,138.0
1593,B3,193.5,1.0,127,138.0
1594,G3,193.5,1.0,127,138.0
1595,A4,194.0,1.0,127,138.0
1596,F#4,194.0,1.0,127,138.0
1597,A3,194.0,1.0,127,138.0
1598,D3,194.0,1.0,127,138.0
1599,F#2,194.5,0.5,127,138.0
1600,B2,194.5,0.5,127,138.0
1601,F#2,194.5,0.5,127,138.0
1602,G3,194.5,9/125,95,138.0
1603,D3,194.5,9/125,95,138.0
1604,A2,194.5,9/125,95,138.0
1605,A2,195.0,0.5,127,138.0
1606,A2,195.0,0.5,127,138.0
1607,D3,195.0,0.5,127,138.0
1608,A2,195.0,0.5,127,138.0
1609,B2,195.5,0.5,127,138.0
1610,B2,195.5,0.5,127,138.0
1611,E3,195.5,0.5,127,138.0
1612,B2,195.5,0.5,127,138.0
1613,D3,196.0,1.0,127,138.0
1614,D3,196.0,1.0,127,138.0
1615,F#3,196.0,1.0,127,138.0
1616,D3,196.0,1.0,127,138.0
1617,F#3,196.0,1.0,127,138.0
1618,D3,196.0,1.0,127,138.0
1619,B2,197.0,0.5,127,138.0
1620,D3,197.0,1.0,127,138.0
1621,F#3,197.0,1.0,127,138.0
1622,D3,197.0,1.0,127,138.0
1623,D4,197.0,1.0,127,138.0
1624,A3,197.0,1.0,127,138.0
1625,D3,197.5,0.5,127,138.0
1626,A2,198.0,0.5,127,138.0
1627,B2,198.0,0.5,127,138.0
1628,E3,198.0,0.5,127,138.0
1629,B2,198.0,0.5,127,138.0
1630,F#3,198.0,0.5,127,138.0
1631,D3,198.0,0.5,127,138.0
1632,B2,198.5,1.5,127,138.0
1633,A2,198.5,0.5,127,138.0
1634,D3,198.5,0.5,127,138.0
1635,A2,198.5,0.5,127,138.0
1636,D4,198.5,0.5,127,138.0
1637,A3,198.5,0.5,127,138.0
1638,F#2,199.0,0.5,127,138.0
1639,B2,199.0,0.5,127,138.0
1640,F#2,199.0,0.5,127,138.0
1641,D3,199.0,9/125,95,138.0
1642,A2,199.0,9/125,95,138.0
1643,D2,199.5,1.0,127,138.0
1644,A2,199.5,1.0,127,138.0
1645,D2,199.5,0.5,127,138.0
1646,F#4,199.5,0.5,127,138.0
1647,D4,199.5,0.5,127,138.0
1648,A3,199.5,0.5,127,138.0
1649,D2,200.5,1.0,127,138.0
1650,A2,200.5,1.0,127,138.0
1651,D2,200.5,1.0,127,138.0
1652,E4,200.5,1.0,127,138.0
1653,B3,200.5,1.0,127,138.0
1654,G3,200.5,1.0,127,138.0
1655,A2,201.0,0.5,127,138.0
1656,B2,201.5,0.5,127,138.0
1657,F#2,201.5,0.5,127,138.0
1658,B2,201.5,0.5,127,138.0
1659,F#2,201.5,0.5,127,138.0
1660,G3,201.5,9/125,95,138.0
1661,D3,201.5,9/125,95,138.0
1662,A2,201.5,9/125,95,138.0
1663,D3,202.0,1.0,127,138.0
1664,A2,202.0,0.5,127,138.0
1665,D3,202.0,0.5,127,138.0
1666,A2,202.0,0.5,127,138.0
1667,B2,202.5,0.5,127,138.0
1668,E3,202.5,0.5,127,138.0
1669,B2,202.5,0.5,127,138.0
1670,D3,203.0,1.0,127,138.0
1671,F#3,203.0,1.0,127,138.0
1672,D3,203.0,1.0,127,138.0
1673,F#3,203.0,1.0,127,138.0
1674,D3,203.0,1.0,127,138.0
1675,F#3,204.0,1.0,127,138.0
1676,D3,204.0,1.0,127,138.0
1677,F#3,204.0,1.0,127,138.0
1678,D3,204.0,1.0,127,138.0
1679,D4,204.0,1.0,127,138.0
1680,A3,204.0,1.0,127,138.0
1681,E3,205.0,0.5,127,138.0
1682,B2,205.0,0.5,127,138.0
1683,E3,205.0,0.5,127,138.0
1684,B2,205.0,0.5,127,138.0
1685,F#3,205.0,0.5,127,138.0
1686,D3,205.0,0.5,127,138.0
1687,D3,205.5,1.5,127,138.0
1688,A2,205.5,0.5,127,138.0
1689,D3,205.5,0.5,127,138.0
1690,A2,205.5,0.5,127,138.0
1691,D4,205.5,0.5,127,138.0
1692,A3,205.5,0.5,127,138.0
1693,F#2,206.0,0.5,127,138.0
1694,B2,206.0,0.5,127,138.0
1695,F#2,206.0,0.5,127,138.0
1696,D3,206.0,9/125,95,138.0
1697,A2,206.0,9/125,95,138.0
1698,D2,206.5,1.0,127,138.0
1699,A2,206.5,1.0,127,138.0
1700,D2,206.5,0.5,127,138.0
1701,F#4,206.5,0.5,127,138.0
1702,D4,206.5,0.5,127,138.0
1703,A3,206.5,0.5,127,138.0
1704,A2,207.0,0.5,127,138.0
1705,B2,207.5,0.5,127,138.0
1706,D2,207.5,1.0,127,138.0
1707,A2,207.5,1.0,127,138.0
1708,D2,207.5,1.0,127,138.0
1709,E4,207.5,1.0,127,138.0
1710,B3,207.5,1.0,127,138.0
1711,G3,207.5,1.0,127,138.0
1712,D3,208.0,1.0,127,138.0
1713,F#2,208.5,0.5,127,138.0
1714,B2,208.5,0.5,127,138.0
1715,F#2,208.5,0.5,127,138.0
1716,G3,208.5,9/125,95,138.0
1717,D3,208.5,9/125,95,138.0
1718,A2,208.5,9/125,95,138.0
1719,B2,209.0,0.5,127,138.0
1720,A2,209.0,0.5,127,138.0
1721,D3,209.0,0.5,127,138.0
1722,A2,209.0,0.5,127,138.0
1723,D3,209.5,1.0,127,138.0
1724,B2,209.5,0.5,127,138.0
1725,E3,209.5,0.5,127,138.0
1726,B2,209.5,0.5,127,138.0
1727,D3,210.0,1.0,127,138.0
1728,F#3,210.0,1.0,127,138.0
1729,D3,210.0,1.0,127,138.0
1730,F#3,210.0,1.0,127,138.0
1731,D3,210.0,1.0,127,138.0
1732,D3,211.0,1.0,127,138.0
1733,F#3,211.0,1.0,127,138.0
1734,D3,211.0,1.0,127,138.0
1735,D4,211.0,1.0,127,138.0
1736,A3,211.0,1.0,127,138.0
1737,D3,211.5,0.5,127,138.0
1738,F#3,212.0,1.0,127,138.0
1739,B2,212.0,0.5,127,138.0
1740,E3,212.0,0.5,127,138.0
1741,B2,212.0,0.5,127,138.0
1742,F#3,212.0,0.5,127,138.0
1743,D3,212.0,0.5,127,138.0
1744,A2,212.5,0.5,127,138.0
1745,D3,212.5,0.5,127,138.0
1746,A2,212.5,0.5,127,138.0
1747,D4,212.5,0.5,127,138.0
1748,A3,212.5,0.5,127,138.0
1749,F#3,213.0,0.5,127,138.0
1750,F#2,213.0,0.5,127,138.0
1751,B2,213.0,0.5,127,138.0
1752,F#2,213.0,0.5,127,138.0
1753,D3,213.0,9/125,95,138.0
1754,A2,213.0,9/125,95,138.0
1755,F3,213.5,0.5,127,138.0
1756,D2,213.5,1.0,127,138.0
1757,A2,213.5,1.0,127,138.0
1758,D2,213.5,0.5,127,138.0
1759,F#4,213.5,0.5,127,138.0
1760,D4,213.5,0.5,127,138.0
1761,A3,213.5,0.5,127,138.0
1762,D3,214.0,2.0,127,138.0
1763,D2,214.5,1.0,127,138.0
1764,A2,214.5,1.0,127,138.0
1765,D2,214.5,1.0,127,138.0
1766,E4,214.5,1.0,127,138.0
1767,B3,214.5,1.0,127,138.0
1768,G3,214.5,1.0,127,138.0
1769,F#2,215.5,0.5,127,138.0
1770,B2,215.5,0.5,127,138.0
1771,F#2,215.5,0.5,127,138.0
1772,G3,215.5,9/125,95,138.0
1773,D3,215.5,9/125,95,138.0
1774,A2,215.5,9/125,95,138.0
1775,A2,216.0,0.5,127,138.0
1776,D3,216.0,0.5,127,138.0
1777,A2,216.0,0.5,127,138.0
1778,B2,216.5,0.5,127,138.0
1779,B2,216.5,0.5,127,138.0
1780,E3,216.5,0.5,127,138.0
1781,B2,216.5,0.5,127,138.0
1782,D3,217.0,0.5,127,138.0
1783,D3,217.0,1.0,127,138.0
1784,F#3,217.0,1.0,127,138.0
1785,D3,217.0,1.0,127,138.0
1786,F#3,217.0,1.0,127,138.0
1787,D3,217.0,1.0,127,138.0
1788,D3,217.5,0.5,127,138.0
1789,A2,218.0,1.5,127,138.0
1790,D3,218.0,1.0,127,138.0
1791,F#3,218.0,1.0,127,138.0
1792,D3,218.0,1.0,127,138.0
1793,D4,218.0,1.0,127,138.0
1794,A3,218.0,1.0,127,138.0
1795,B2,219.0,0.5,127,138.0
1796,E3,219.0,0.5,127,138.0
1797,B2,219.0,0.5,127,138.0
1798,F#3,219.0,0.5,127,138.0
1799,D3,219.0,0.5,127,138.0
1800,A2,219.5,0.5,127,138.0
1801,D3,219.5,0.5,127,138.0
1802,A2,219.5,0.5,127,138.0
1803,D4,219.5,0.5,127,138.0
1804,A3,219.5,0.5,127,138.0
1805,D3,220.0,1.0,127,138.0
1806,F#2,220.0,0.5,127,138.0
1807,B2,220.0,0.5,127,138.0
1808,F#2,220.0,0.5,127,138.0
1809,D3,220.0,9/125,95,138.0
1810,A2,220.0,9/125,95,138.0
1811,D2,220.5,1.0,127,138.0
1812,A2,220.5,1.0,127,138.0
1813,D2,220.5,0.5,127,138.0
1814,F#4,220.5,0.5,127,138.0
1815,D4,220.5,0.5,127,138.0
1816,A3,220.5,0.5,127,138.0
1817,D3,221.0,1.0,127,138.0
1818,D2,221.5,1.0,127,138.0
1819,A2,221.5,1.0,127,138.0
1820,D2,221.5,1.0,127,138.0
1821,E4,221.5,1.0,127,138.0
1822,B3,221.5,1.0,127,138.0
1823,G3,221.5,1.0,127,138.0
1824,B2,222.0,0.5,127,138.0
1825,A2,222.5,0.5,127,138.0
1826,F#2,222.5,0.5,127,138.0
1827,B2,222.5,0.5,127,138.0
1828,F#2,222.5,0.5,127,138.0
1829,G3,222.5,9/125,95,138.0
1830,D3,222.5,9/125,95,138.0
1831,A2,222.5,9/125,95,138.0
1832,A2,223.0,0.5,127,138.0
1833,D3,223.0,0.5,127,138.0
1834,A2,223.0,0.5,127,138.0
1835,B2,223.0,0.5,127,138.0
1836,F#2,223.0,0.5,127,138.0
1837,B2,223.5,0.5,127,138.0
1838,E3,223.5,0.5,127,138.0
1839,B2,223.5,0.5,127,138.0
1840,A2,223.5,0.5,127,138.0
1841,D2,223.5,0.5,127,138.0
1842,D3,224.0,333/1000,127,138.0
1843,D3,224.0,1.0,127,138.0
1844,F#3,224.0,1.0,127,138.0
1845,D3,224.0,1.0,127,138.0
1846,F#3,224.0,1.0,127,138.0
1847,D3,224.0,1.0,127,138.0
1848,A2,224.333,333/1000,127,138.0
1849,B2,224.667,333/1000,127,138.0
1850,A2,225.0,1.5,127,138.0
1851,D3,225.0,1.0,127,138.0
1852,F#3,225.0,1.0,127,138.0
1853,D3,225.0,1.0,127,138.0
1854,D4,225.0,1.0,127,138.0
1855,A3,225.0,1.0,127,138.0
1856,B2,226.0,0.5,127,138.0
1857,E3,226.0,0.5,127,138.0
1858,B2,226.0,0.5,127,138.0
1859,F#3,226.0,0.5,127,138.0
1860,D3,226.0,0.5,127,138.0
1861,A2,226.5,0.5,127,138.0
1862,D3,226.5,0.5,127,138.0
1863,A2,226.5,0.5,127,138.0
1864,D4,226.5,0.5,127,138.0
1865,A3,226.5,0.5,127,138.0
1866,F#2,227.0,0.5,127,138.0
1867,B2,227.0,0.5,127,138.0
1868,F#2,227.0,0.5,127,138.0
1869,D3,227.0,9/125,95,138.0
1870,A2,227.0,9/125,95,138.0
1871,D2,227.5,1.0,127,138.0
1872,A2,227.5,1.0,127,138.0
1873,D2,227.5,0.5,127,138.0
1874,F#4,227.5,0.5,127,138.0
1875,D4,227.5,0.5,127,138.0
1876,A3,227.5,0.5,127,138.0
1877,D2,228.5,1.0,127,138.0
1878,A2,228.5,1.0,127,138.0
1879,D2,228.5,1.0,127,138.0
1880,E4,228.5,1.0,127,138.0
1881,B3,228.5,1.0,127,138.0
1882,G3,228.5,1.0,127,138.0
1883,F#2,229.5,0.5,127,138.0
1884,B2,229.5,0.5,127,138.0
1885,F#2,229.5,0.5,127,138.0
1886,G3,229.5,9/125,95,138.0
1887,D3,229.5,9/125,95,138.0
1888,A2,229.5,9/125,95,138.0
1889,A2,230.0,0.5,127,138.0
1890,D3,230.0,0.5,127,138.0
1891,A2,230.0,0.5,127,138.0
1892,B2,230.5,0.5,127,138.0
1893,E3,230.5,0.5,127,138.0
1894,B2,230.5,0.5,127,138.0
1895,F#4,232.0,0.5,127,138.0
1896,D4,232.0,0.5,127,138.0
1897,A3,232.0,0.5,127,138.0
1898,D3,232.0,0.5,127,138.0
1899,F#4,232.5,0.5,127,138.0
1900,D4,232.5,0.5,127,138.0
1901,A3,232.5,0.5,127,138.0
1902,D3,232.5,0.5,127,138.0
1903,E4,233.0,0.75,127,138.0
1904,B3,233.0,0.75,127,138.0
1905,G3,233.0,0.75,127,138.0
1906,E3,233.0,0.75,127,138.0
1907,D4,233.75,0.25,127,138.0
1908,B-3,233.75,0.25,127,138.0
1909,F#3,233.75,0.25,127,138.0
1910,B2,233.75,0.25,127,138.0
1911,F#4,234.0,0.5,127,138.0
1912,D4,234.0,0.5,127,138.0
1913,A3,234.0,0.5,127,138.0
1914,D3,234.0,0.5,127,138.0
1915,F#4,234.5,0.5,127,138.0
1916,D4,234.5,0.5,127,138.0
1917,A3,234.5,0.5,127,138.0
1918,D3,234.5,0.5,127,138.0
1919,D4,235.0,0.75,127,138.0
1920,A3,235.0,0.75,127,138.0
1921,F#3,235.0,0.75,127,138.0
1922,D3,235.0,0.75,127,138.0
1923,D4,235.75,0.25,127,138.0
1924,A3,235.75,0.25,127,138.0
1925,F#3,235.75,0.25,127,138.0
1926,D3,235.75,0.25,127,138.0
1927,F#4,236.0,0.5,127,138.0
1928,D4,236.0,0.5,127,138.0
1929,F#3,236.0,0.5,127,138.0
1930,D3,236.0,0.5,127,138.0
1931,F#4,236.5,0.5,127,138.0
1932,D4,236.5,0.5,127,138.0
1933,F#3,236.5,0.5,127,138.0
1934,D3,236.5,0.5,127,138.0
1935,E4,237.0,0.5,127,138.0
1936,B3,237.0,0.5,127,138.0
1937,E3,237.0,0.5,127,138.0
1938,A2,237.0,0.5,127,138.0
1939,D4,237.5,0.5,127,138.0
1940,A3,237.5,0.5,127,138.0
1941,D3,237.5,0.5,127,138.0
1942,D3,237.5,0.5,127,138.0
1943,F#4,238.0,0.25,127,138.0
1944,D4,238.0,0.25,127,138.0
1945,A3,238.0,0.25,127,138.0
1946,D3,238.0,0.25,127,138.0
1947,F#4,238.25,0.75,127,138.0
1948,D4,238.25,0.75,127,138.0
1949,A3,238.25,0.75,127,138.0
1950,D3,238.25,0.75,127,138.0
1951,D4,239.0,1.0,127,138.0
1952,A3,239.0,1.0,127,138.0
1953,A3,239.0,1.0,127,138.0
1954,D3,239.0,1.0,127,138.0
1955,D5,239.0,0.5,127,138.0
1956,A4,239.0,0.5,127,138.0
1957,F#4,240.0,0.5,127,138.0
1958,D4,240.0,0.5,127,138.0
1959,A3,240.0,0.5,127,138.0
1960,D3,240.0,0.5,127,138.0
1961,F#4,240.5,0.5,127,138.0
1962,D4,240.5,0.5,127,138.0
1963,A3,240.5,0.5,127,138.0
1964,D3,240.5,0.5,127,138.0
1965,E4,241.0,0.75,127,138.0
1966,B3,241.0,0.75,127,138.0
1967,G3,241.0,0.75,127,138.0
1968,E3,241.0,0.75,127,138.0
1969,D4,241.75,0.25,127,138.0
1970,B-3,241.75,0.25,127,138.0
1971,F#3,241.75,0.25,127,138.0
1972,B2,241.75,0.25,127,138.0
1973,F#4,242.0,0.5,127,138.0
1974,D4,242.0,0.5,127,138.0
1975,A3,242.0,0.5,127,138.0
1976,D3,242.0,0.5,127,138.0
1977,F#4,242.5,0.5,127,138.0
1978,D4,242.5,0.5,127,138.0
1979,A3,242.5,0.5,127,138.0
1980,D3,242.5,0.5,127,138.0
1981,D4,243.0,0.75,127,138.0
1982,A3,243.0,0.75,127,138.0
1983,F#3,243.0,0.75,127,138.0
1984,D3,243.0,0.75,127,138.0
1985,D4,243.75,0.25,127,138.0
1986,A3,243.75,0.25,127,138.0
1987,F#3,243.75,0.25,127,138.0
1988,D3,243.75,0.25,127,138.0
1989,F#4,244.0,0.5,127,138.0
1990,D4,244.0,0.5,127,138.0
1991,F#3,244.0,0.5,127,138.0
1992,D3,244.0,0.5,127,138.0
1993,F#4,244.5,0.5,127,138.0
1994,D4,244.5,0.5,127,138.0
1995,F#3,244.5,0.5,127,138.0
1996,D3,244.5,0.5,127,138.0
1997,E4,245.0,0.5,127,138.0
1998,B3,245.0,0.5,127,138.0
1999,E3,245.0,0.5,127,138.0
2000,A2,245.0,0.5,127,138.0
2001,D4,245.5,0.5,127,138.0
2002,A3,245.5,0.5,127,138.0
2003,D3,245.5,0.5,127,138.0
2004,D3,245.5,0.5,127,138.0
2005,F#4,246.0,0.25,127,138.0
2006,D4,246.0,0.25,127,138.0
2007,A3,246.0,0.25,127,138.0
2008,D3,246.0,0.25,127,138.0
2009,F#4,246.25,0.75,127,138.0
2010,D4,246.25,0.75,127,138.0
2011,A3,246.25,0.75,127,138.0
2012,D3,246.25,0.75,127,138.0
2013,D4,247.0,1.0,127,138.0
2014,A3,247.0,1.0,127,138.0
2015,A3,247.0,1.0,127,138.0
2016,D3,247.0,1.0,127,138.0
